<?xml version="1.0" encoding="UTF-8"?>
<!DOCTYPE svg PUBLIC "-//W3C//DTD SVG 1.1//EN" "http://www.w3.org/Graphics/SVG/1.1/DTD/svg11.dtd">
<!-- Creator: CorelDRAW X7 -->
<svg xmlns="http://www.w3.org/2000/svg" xml:space="preserve" width="100%" height="100%" version="1.1" style="shape-rendering:geometricPrecision; text-rendering:geometricPrecision; image-rendering:optimizeQuality; fill-rule:evenodd; clip-rule:evenodd"
viewBox="0 0 119500 19333"
 xmlns:xlink="http://www.w3.org/1999/xlink">
 <defs>
  <style type="text/css">
   <![CDATA[
    .fil1 {fill:none}
    .fil0 {fill:#A6B7DE}
   ]]>
  </style>
 </defs>
 <g id="Layer_x0020_1">
  <metadata id="CorelCorpID_0Corel-Layer"/>
  <g id="_1597011014688">
   <path class="fil0" d="M79186 15866l-3467 3467 11192 0 3467 -3467 -11192 0zm17014 -12399l19479 0 3467 -3467 -22946 0 0 3467zm15367 12399l-15367 0 0 3467 15367 0 0 -3467zm7933 -7933l-23300 0 0 3467 19833 0 0 7933 3467 0 0 -11400zm-75867 3967l0 3466 0 3614 3466 -3467 0 -3613 -3466 0zm3466 -4320l0 -7227 -3466 3466 0 7228 464 -464 3002 -3003zm353 353l-3466 3467 3613 0 11546 0 3467 -3467 -15160 0zm-4172 -4466c1155,-1156 2311,-2312 3466,-3467l-15159 0 -3467 3467 15160 0zm32085 8433l0 7079 3467 -3467 0 -3612 -3467 0zm3467 -4321l0 -3612 -3467 0 0 3466 0 3613 3467 -3467zm-15366 4321l0 3466 0 3614 3466 -3467 0 -3613 -3466 0zm-43633 -8080l0 7226 3467 -3467 0 -7226 -3467 3467zm-12400 12046l-7433 0 0 3467 7433 0 0 -3467zm7933 -7580l-3466 3466 0 7581 3466 0 0 -11047zm63820 -353l-3467 3467 3613 0 7579 0 3467 -3467 -11192 0zm7725 -4466l3467 -3467 -11192 0 -3467 3467 3613 0 7579 0zm-23945 12399l-11546 0 -3467 3467 15013 0 0 -3467zm4319 -7933l-3466 3467 3613 0 7433 0 0 -3467 -7580 0zm-7786 -7933l0 3467 3467 0 0 -3467 -3467 0zm-23947 15866l-3466 3467 11047 0 0 -3467 -7581 0zm-15719 0l0 3467 7579 0 3468 -3467 -11047 0zm3821 -7933l-3467 3467 15158 0 3467 -3467 -15158 0zm-23654 0l0 3467 11547 0 2010 -2010 1457 -1457 -15014 0zm19479 -4466l3467 -3467 -22946 0 0 3467 19479 0z"/>
   <rect class="fil1" x="-250" y="-250" width="120000" height="19833"/>
  </g>
 </g>
</svg>
