<?xml version="1.0" encoding="UTF-8"?>
<!DOCTYPE svg PUBLIC "-//W3C//DTD SVG 1.1//EN" "http://www.w3.org/Graphics/SVG/1.1/DTD/svg11.dtd">
<!-- Creator: CorelDRAW X7 -->
<svg xmlns="http://www.w3.org/2000/svg" xml:space="preserve" width="4.72441in" height="1.27861in" version="1.1" style="shape-rendering:geometricPrecision; text-rendering:geometricPrecision; image-rendering:optimizeQuality; fill-rule:evenodd; clip-rule:evenodd"
viewBox="0 0 47244 12786"
 xmlns:xlink="http://www.w3.org/1999/xlink">
 <defs>
  <style type="text/css">
   <![CDATA[
    .fil1 {fill:#6C87C3}
    .fil2 {fill:#D2AE6D}
    .fil0 {fill:gray;fill-rule:nonzero}
   ]]>
  </style>
 </defs>
 <g id="Layer_x0020_1">
  <metadata id="CorelCorpID_0Corel-Layer"/>
  <g id="_1970769163968">
   <path class="fil0" d="M1365 10336l-1124 0 0 705 1034 0 0 243 -1034 0 0 705 1124 0 0 241 -1365 0 0 -2135 1365 0 0 241zm1702 315l284 0 -542 788 542 791 -284 0 -398 -607 -402 607 -282 0 544 -791 -544 -788 282 0 402 610 398 -610zm886 2135l0 -2049c218,-76 424,-113 619,-113 161,2 297,44 410,128 127,96 190,228 191,393l0 585c0,165 -64,297 -194,397 -116,91 -254,136 -416,134 -149,-4 -275,-29 -377,-75l0 600 -233 0zm233 -832c119,47 245,71 380,71 103,0 189,-25 259,-74 75,-53 112,-125 110,-215l0 -597c2,-89 -34,-159 -107,-212 -70,-47 -155,-71 -256,-71 -180,0 -309,14 -386,42l0 1056zm2318 288c-178,0 -311,-46 -398,-137 -87,-91 -131,-217 -132,-377l0 -1633 233 0 0 1633c0,187 99,280 297,280l0 234zm1256 -1398c-104,0 -191,24 -261,72 -78,53 -116,127 -116,220l0 597c0,95 38,170 116,224 72,47 159,71 261,71 101,0 187,-24 257,-71 78,-53 116,-128 115,-224l0 -597c0,-92 -38,-166 -115,-220 -69,-48 -155,-72 -257,-72zm-608 292c0,-166 64,-298 193,-396 113,-85 252,-129 415,-131 163,2 301,46 414,131 129,97 193,229 193,396l0 597c0,167 -64,300 -193,400 -113,85 -251,129 -414,131 -164,-2 -303,-46 -415,-131 -129,-99 -193,-232 -193,-400l0 -597zm2474 -485c65,-13 157,-15 274,-3l0 238c-89,-17 -169,-19 -238,-7 -169,40 -253,133 -253,281l0 1070 -232 0 0 -1070c0,-135 44,-249 133,-343 82,-85 187,-141 316,-166zm1857 485c0,-89 -38,-159 -113,-211 -70,-50 -156,-75 -259,-75 -105,0 -193,25 -264,75 -73,51 -111,121 -111,211l0 220 747 0 0 -220zm-747 606c0,93 39,167 114,221 68,47 155,71 261,71 180,0 303,-71 366,-214l212 106c-107,229 -300,343 -578,343 -164,0 -303,-43 -415,-127 -129,-100 -194,-232 -195,-400l0 -600c0,-166 65,-299 195,-396 113,-86 252,-128 415,-128 161,0 299,42 414,128 129,96 194,229 194,396l0 426 -983 0 0 174zm3194 488c-180,28 -325,-6 -437,-103 -113,-97 -169,-233 -169,-408l0 -1621 232 0 0 553 326 0 0 231 -326 0 0 837c0,96 32,175 97,235 66,61 158,81 277,60l0 216zm715 -2132l232 0 0 621c101,-45 226,-68 375,-68 161,-4 299,39 414,128 129,99 193,229 193,392l0 1059 -235 0 0 -1062c0,-89 -37,-159 -110,-210 -70,-48 -156,-73 -259,-76 -137,0 -263,24 -378,73l0 1275 -232 0 0 -2132zm2973 1038c0,-89 -37,-159 -113,-211 -70,-50 -156,-75 -259,-75 -105,0 -193,25 -264,75 -73,51 -110,121 -110,211l0 220 746 0 0 -220zm-746 606c0,93 38,167 113,221 68,47 155,71 261,71 180,0 303,-71 366,-214l212 106c-107,229 -299,343 -578,343 -164,0 -302,-43 -415,-127 -128,-100 -193,-232 -194,-400l0 -600c0,-166 65,-299 194,-396 114,-86 252,-128 415,-128 161,0 299,42 414,128 129,96 194,229 194,396l0 426 -982 0 0 174zm2620 488l0 -2132 722 0c221,0 405,48 550,145 173,117 259,281 259,491l0 860c0,210 -86,373 -259,488 -145,99 -329,148 -550,148l-722 0zm241 -241l481 0c160,0 293,-32 396,-94 113,-70 170,-170 169,-301l0 -860c0,-131 -57,-231 -169,-301 -102,-64 -235,-95 -396,-94l-481 0 0 1650zm2028 -1675c0,-45 16,-84 48,-116 34,-34 74,-50 119,-49 45,0 84,16 115,49 34,32 50,71 50,116 0,46 -16,86 -50,119 -32,32 -71,48 -115,48 -45,0 -85,-16 -119,-48 -32,-33 -48,-73 -48,-119zm289 337l0 1579 -232 0 0 -1579 232 0zm921 1124c127,171 277,253 449,247 203,-2 303,-78 301,-229 0,-127 -106,-210 -319,-250 -164,-28 -286,-67 -365,-116 -125,-78 -188,-192 -188,-341 0,-154 65,-272 193,-355 106,-68 232,-101 378,-101 184,0 342,61 473,184l-152 175c-87,-88 -194,-133 -321,-133 -91,0 -167,17 -228,51 -74,37 -110,97 -110,179 0,73 39,129 119,168 45,22 127,44 244,67 337,64 507,221 511,472 0,147 -57,262 -170,346 -95,69 -217,106 -366,110 -267,6 -478,-114 -630,-360l181 -114zm2623 -720c-71,-132 -193,-199 -365,-199 -106,0 -193,25 -262,74 -76,52 -113,122 -113,212l0 591c0,91 37,163 113,215 70,48 157,71 262,71 200,0 325,-82 374,-247l215 105c-47,133 -127,229 -241,290 -103,58 -219,87 -348,88 -163,0 -301,-43 -414,-128 -129,-99 -194,-232 -194,-399l0 -580c0,-166 65,-299 194,-396 113,-86 251,-128 414,-128 259,0 446,102 562,306l-197 125zm1478 -211c-105,0 -192,24 -262,72 -77,53 -116,127 -116,220l0 597c0,95 39,170 116,224 72,47 159,71 262,71 101,0 186,-24 257,-71 78,-53 116,-128 115,-224l0 -597c0,-92 -38,-166 -115,-220 -70,-48 -155,-72 -257,-72zm-609 292c0,-166 65,-298 194,-396 113,-85 251,-129 415,-131 163,2 300,46 414,131 128,97 193,229 193,396l0 597c0,167 -65,300 -193,400 -114,85 -251,129 -414,131 -165,-2 -303,-46 -415,-131 -129,-99 -194,-232 -194,-400l0 -597zm2578 806l452 -1291 244 0 -553 1579 -285 0 -556 -1579 247 0 451 1291zm2274 -806c0,-89 -38,-159 -113,-211 -70,-50 -157,-75 -259,-75 -106,0 -194,25 -264,75 -74,51 -111,121 -111,211l0 220 747 0 0 -220zm-747 606c0,93 38,167 114,221 67,47 154,71 261,71 180,0 302,-71 366,-214l212 106c-108,229 -300,343 -578,343 -165,0 -303,-43 -416,-127 -128,-100 -193,-232 -194,-400l0 -600c0,-166 65,-299 194,-396 114,-86 252,-128 416,-128 160,0 299,42 414,128 129,96 193,229 193,396l0 426 -982 0 0 174zm2195 -1091c65,-13 157,-15 274,-3l0 238c-89,-17 -168,-19 -238,-7 -168,40 -253,133 -253,281l0 1070 -232 0 0 -1070c0,-135 44,-249 134,-343 81,-85 186,-141 315,-166zm957 -337c0,-45 16,-84 48,-116 34,-34 74,-50 119,-49 46,0 84,16 115,49 34,32 51,71 51,116 0,46 -17,86 -51,119 -32,32 -70,48 -115,48 -45,0 -85,-16 -119,-48 -32,-33 -48,-73 -48,-119zm289 337l0 1579 -232 0 0 -1579 232 0zm1807 485c0,-89 -37,-159 -113,-211 -70,-50 -156,-75 -259,-75 -105,0 -193,25 -264,75 -73,51 -110,121 -110,211l0 220 746 0 0 -220zm-746 606c0,93 38,167 113,221 68,47 155,71 261,71 180,0 303,-71 366,-214l213 106c-108,229 -300,343 -579,343 -164,0 -302,-43 -415,-127 -128,-100 -193,-232 -194,-400l0 -600c0,-166 65,-299 194,-396 114,-86 252,-128 415,-128 161,0 299,42 414,128 129,96 194,229 194,396l0 426 -982 0 0 174zm1811 33c127,171 277,253 449,247 202,-2 302,-78 300,-229 0,-127 -106,-210 -318,-250 -164,-28 -286,-67 -366,-116 -125,-78 -187,-192 -187,-341 0,-154 64,-272 193,-355 106,-68 231,-101 378,-101 183,0 342,61 473,184l-152 175c-87,-88 -195,-133 -321,-133 -91,0 -168,17 -229,51 -73,37 -110,97 -110,179 0,73 40,129 119,168 46,22 127,44 244,67 337,64 508,221 511,472 0,147 -56,262 -169,346 -95,69 -217,106 -366,110 -268,6 -478,-114 -631,-360l182 -114z"/>
   <g>
    <path class="fil1" d="M31233 6247l-1561 1561c1561,0 3123,0 4685,0l1562 -1561c-1562,0 -3123,0 -4686,0l0 -1562 -1562 0 1562 -1562 -1561 1561c1561,0 3123,0 4685,0l1562 -1561c-1562,0 -3123,0 -4686,0l0 -1562 3123 0 1562 -1561c-1562,0 -3123,0 -4686,0l-1561 1561 0 1562 -3123 0 -1561 1562 0 1562c-1561,0 -3123,0 -4685,0l-1561 1561c2081,0 4164,0 6246,0l1561 -1561 0 -1562 3123 0 0 3123 1562 -1561zm-26548 -1562l0 3123 1561 0 0 -4685 -6246 0 0 1562 4685 0zm-1562 1562l-3123 0 0 1561 3123 0 0 -1561zm4685 -4686l0 3124 6246 0 1563 -1562 -6247 0 0 -3123 -9370 0 0 1561 7808 0zm10931 1562l0 -3123c-2081,0 -4164,0 -6246,0l-1561 1561 6246 0 0 3123 0 1 0 1562 -3124 0 -1561 1561 4685 0 1561 -1561 0 -1562 -1561 0 1 -1 6246 0 1561 -1561c-2082,0 -4165,0 -6247,0zm-10931 3124l0 1561 3124 0 1561 -1561 -4685 0zm15617 -6247l0 1561 1562 0 0 -1561 -1562 0z"/>
    <path class="fil2" d="M37874 1561l7808 0 1561 -1561 -9370 0 0 1561 1 0zm6247 4685l-6246 0 0 1562 6246 0 0 -1562zm3123 -3123l-9370 0 0 1561 7808 0 0 3123 1561 0 0 -4685 1 1z"/>
   </g>
  </g>
 </g>
</svg>
