<?xml version="1.0" encoding="UTF-8"?>
<!DOCTYPE svg PUBLIC "-//W3C//DTD SVG 1.1//EN" "http://www.w3.org/Graphics/SVG/1.1/DTD/svg11.dtd">
<!-- Creator: CorelDRAW X7 -->
<svg xmlns="http://www.w3.org/2000/svg" xml:space="preserve" width="100%" height="100%" version="1.1" style="shape-rendering:geometricPrecision; text-rendering:geometricPrecision; image-rendering:optimizeQuality; fill-rule:evenodd; clip-rule:evenodd"
viewBox="0 0 119800 19633"
 xmlns:xlink="http://www.w3.org/1999/xlink">
 <defs>
  <style type="text/css">
   <![CDATA[
    .fil1 {fill:none}
    .fil0 {fill:white}
   ]]>
  </style>
 </defs>
 <g id="Layer_x0020_1">
  <metadata id="CorelCorpID_0Corel-Layer"/>
  <g id="_1596965450416">
   <path class="fil0" d="M79273 15866l-3767 3767 11618 0 3767 -3767 -11618 0zm16927 -12099l19692 0 3767 -3767 -23459 0 0 3767zm15667 12099l-15667 0 0 3767 15667 0 0 -3767zm7933 -7933l-23600 0 0 3767 19833 0 0 7933 3767 0 0 -11700zm-76167 3967l0 3766 0 3826 3766 -3767 0 -3825 -3766 0zm3766 -4108l0 -7651 -76 76 -3690 3691 0 7651 2799 -2799 967 -968zm-3907 -4025c1253,-1257 2510,-2512 3766,-3767l-15583 0 -3767 3767 15584 0zm31873 8133l0 7592 3767 -3767 0 -3825 -3767 0zm3767 -4108l0 -3825 -3767 0 0 3766 0 3826 3767 -3767zm-15666 4108l0 3766 0 3826 3766 -3767 0 -3825 -3766 0zm-43633 -7992l0 7651 3767 -3767 0 -7651 -3767 3767zm-12100 11958l-7733 0 0 3767 7733 0 0 -3767zm7933 -7792l-3766 3767 0 7792 3766 0 0 -11559zm63607 -141l-3767 3767 3826 0 7792 0 3767 -3767 -11618 0zm7851 -4166l3767 -3767 -11618 0 -3767 3767 3826 0 7792 0zm-23858 12099l-11759 0 -3767 3767 15526 0 0 -3767zm4107 -7933l-3766 3767 3825 0 7733 0 0 -3767 -7792 0zm-7874 -7933l0 3767 3767 0 0 -3767 -3767 0zm-11959 7933l-3766 3767 3825 0 11759 0 3767 -3767 -15585 0zm-11900 7933l-3766 3767 11559 0 0 -3767 -7793 0zm-15807 0l0 3767 7792 0 3767 -3767 -11559 0zm3908 -7933l-3767 3767 15584 0 3767 -3767 -15584 0zm-23741 0l0 3767 11759 0 302 -302 3464 -3465 -15525 0zm19692 -4166l3767 -3767 -23459 0 0 3767 19692 0z"/>
   <rect class="fil1" x="-100" y="-100" width="120000" height="19833"/>
  </g>
 </g>
</svg>
