<?xml version="1.0" encoding="UTF-8"?>
<!DOCTYPE svg PUBLIC "-//W3C//DTD SVG 1.1//EN" "http://www.w3.org/Graphics/SVG/1.1/DTD/svg11.dtd">
<!-- Creator: CorelDRAW X7 -->
<svg xmlns="http://www.w3.org/2000/svg" xml:space="preserve" width="100%" height="100%" version="1.1" style="shape-rendering:geometricPrecision; text-rendering:geometricPrecision; image-rendering:optimizeQuality; fill-rule:evenodd; clip-rule:evenodd"
viewBox="0 0 300000 300000"
 xmlns:xlink="http://www.w3.org/1999/xlink">
 <defs>
  <style type="text/css">
   <![CDATA[
    .fil5 {fill:black}
    .fil13 {fill:#8480BC}
    .fil0 {fill:#A6B7DE}
    .fil8 {fill:#BBB8DA}
    .fil10 {fill:#C4CFE9}
    .fil4 {fill:#D2AE6D}
    .fil9 {fill:#DEE4F2}
    .fil11 {fill:#E4E3F0}
    .fil3 {fill:#E6D2AE}
    .fil14 {fill:#EDDFC4}
    .fil12 {fill:#F4F4FB}
    .fil7 {fill:white}
    .fil6 {fill:white}
    .fil2 {fill:#1A1A1A;fill-rule:nonzero}
    .fil1 {fill:white;fill-rule:nonzero}
   ]]>
  </style>
 </defs>
 <g id="Layer_x0020_1">
  <metadata id="CorelCorpID_0Corel-Layer"/>
  <g id="_1597064940832">
   <rect class="fil0" width="300000" height="300000"/>
   <path class="fil1" d="M101004 261218l-3217 3217 10840 0 3217 -3217 -10840 0zm-64525 -7933l-14587 0 0 3217 11371 0 3216 -3217zm5246 -4186l0 6872 3217 -3217 0 -6872 -3217 3217zm-750 220l-19833 0 0 -4717 24550 0 0 7933 16396 0 -4717 4717 -16396 0 0 -7933zm-11900 11899l-7183 0 0 3217 7183 0 0 -3217zm-7558 -750l8308 0 0 4717 -8683 0 0 -4717 375 0zm15491 -6654l-3216 3216 0 7405 3216 0 0 -10621zm-15866 3063l0 -4342 16616 0 0 12650 -4716 0 0 -7933 -11900 0 0 -375zm20583 4341l0 3217 7403 0 3217 -3217 -10620 0zm-750 -750l13180 0 -4717 4717 -8463 0 0 -4717zm4497 -7183l-3217 3217 14806 0 3217 -3217 -14806 0zm-4277 -4716l3217 -3217 -22520 0 0 3217 19303 0zm76897 0l19303 0 3217 -3217 -22520 0 0 3217zm19458 750l-20208 0 0 -4717 25080 0 -4717 4717 -155 0zm-4341 11899l-15117 0 0 3217 15117 0 0 -3217zm750 -750l0 4717 -16617 0 0 -4717 16617 0zm7183 -7183l-23050 0 0 3217 19833 0 0 7933 3217 0 0 -11150zm750 -750l0 12650 -4717 0 0 -7933 -19833 0 0 -4717 24550 0zm-76367 4717l0 6654 3216 -3217 0 -3437 -3216 0zm3966 0l0 3744 -4187 4189 -12957 0 4715 -4717 7713 0 0 -11149 -16397 0 4717 -4717 16396 0 0 7933 16397 0 -4717 4717 -11680 0zm-750 -4496l0 -6875 -3216 3216 0 6876 1298 -1299 1918 -1918zm529 529l-3216 3217 14807 0 3217 -3217 -14808 0 0 0zm27987 3967l0 6652 3217 -3217 0 -3435 -3217 0zm3967 0l0 3216 12430 0 -4717 4717 -12430 0 0 -7933 -7183 0 0 3744 -4187 4189 -16926 0 4717 -4717 11680 0 0 -3745 4187 -4188 7712 0 0 -3747 4187 -4186 12960 0 -640 640 -4077 4077 -7713 0 0 3216 12430 0 -4717 4717 -7713 0zm-750 -4498l0 -3435 -3217 0 0 3216 0 3436 3217 -3217zm-15116 4498l0 6654 3216 -3217 0 -3437 -3216 0zm15646 -3967l-3217 3217 3437 0 7403 0 3217 -3217 -10840 0zm7623 -4716l3217 -3217 -10840 0 -3217 3217 3437 0 7403 0zm-24019 12649l-11370 0 -3217 3217 14587 0 0 -3217zm4495 -7933l-3216 3217 3437 0 7183 0 0 -3217 -7404 0zm-7712 -7933l0 3217 3217 0 0 -3217 -3217 0zm-750 3592l0 -4342 4717 0 0 4717 -4717 0 0 -375zm-30453 -375l14808 0 3216 -3217 -14807 0 -3217 3217zm7182 12649l-3216 3217 10621 0 0 -3217 -7405 0z"/>
   <path class="fil2" d="M101004 231248l-3217 3217 10840 0 3217 -3217 -10840 0zm-64525 -7933l-14587 0 0 3217 11371 0 3216 -3217zm5246 -4186l0 6873 3217 -3217 0 -6873 -3217 3217zm-750 220l-19833 0 0 -4717 24550 0 0 7933 16396 0 -4717 4717 -16396 0 0 -7933zm-11900 11899l-7183 0 0 3217 7183 0 0 -3217zm-7558 -750l8308 0 0 4717 -8683 0 0 -4717 375 0zm15491 -6654l-3216 3217 0 7404 3216 0 0 -10621zm-15866 3063l0 -4342 16616 0 0 12650 -4716 0 0 -7933 -11900 0 0 -375zm20583 4341l0 3217 7403 0 3217 -3217 -10620 0zm-750 -750l13180 0 -4717 4717 -8463 0 0 -4717zm4497 -7183l-3217 3217 14806 0 3217 -3217 -14806 0zm-4277 -4716l3217 -3217 -22520 0 0 3217 19303 0zm76897 0l19303 0 3217 -3217 -22520 0 0 3217zm19458 750l-20208 0 0 -4717 25080 0 -4717 4717 -155 0zm-4341 11899l-15117 0 0 3217 15117 0 0 -3217zm750 -750l0 4717 -16617 0 0 -4717 16617 0zm7183 -7183l-23050 0 0 3217 19833 0 0 7933 3217 0 0 -11150zm750 -750l0 12650 -4717 0 0 -7933 -19833 0 0 -4717 24550 0zm-76367 4717l0 6654 3216 -3217 0 -3437 -3216 0zm3966 0l0 3745 -4187 4188 -12957 0 4715 -4717 7713 0 0 -11149 -16397 0 4717 -4717 16396 0 0 7933 16397 0 -4717 4717 -11680 0zm-750 -4496l0 -6875 -3216 3217 0 6875 1298 -1298 1918 -1919zm529 529l-3216 3217 14807 0 3217 -3217 -14808 0 0 0zm27987 3967l0 6653 3217 -3217 0 -3436 -3217 0zm3967 0l0 3216 12430 0 -4717 4717 -12430 0 0 -7933 -7183 0 0 3745 -4187 4188 -16926 0 4717 -4717 11680 0 0 -3745 4187 -4188 7712 0 0 -3746 4187 -4187 12960 0 -640 640 -4077 4077 -7713 0 0 3216 12430 0 -4717 4717 -7713 0zm-750 -4497l0 -3436 -3217 0 0 3216 0 3437 3217 -3217zm-15116 4497l0 6654 3216 -3217 0 -3437 -3216 0zm15646 -3967l-3217 3217 3437 0 7403 0 3217 -3217 -10840 0zm7623 -4716l3217 -3217 -10840 0 -3217 3217 3437 0 7403 0zm-24019 12649l-11370 0 -3217 3217 14587 0 0 -3217zm4495 -7933l-3216 3217 3437 0 7183 0 0 -3217 -7404 0zm-7712 -7933l0 3217 3217 0 0 -3217 -3217 0zm-750 3592l0 -4342 4717 0 0 4717 -4717 0 0 -375zm-30453 -375l14808 0 3216 -3217 -14807 0 -3217 3217zm7182 12649l-3216 3217 10621 0 0 -3217 -7405 0z"/>
   <g>
    <polygon class="fil3" points="41195,188630 44412,185413 21892,185413 21892,188630 "/>
    <polygon class="fil3" points="33263,196563 36479,193346 21892,193346 21892,196563 "/>
    <polygon class="fil4" points="29075,204496 29075,201279 21892,201279 21892,204496 "/>
    <polygon class="fil4" points="37008,204496 37008,193875 33792,197091 33792,204496 "/>
    <polygon class="fil4" points="44942,192815 44942,185943 41725,189160 41725,196032 "/>
    <polygon class="fil3" points="42255,196563 57061,196563 60278,193346 45472,193346 "/>
    <polygon class="fil3" points="49128,204496 52345,201279 41725,201279 41725,204496 "/>
    <polygon class="fil3" points="64996,188630 68212,185413 53405,185413 50188,188630 "/>
    <polygon class="fil3" points="66054,196563 80861,196563 84078,193346 69270,193346 "/>
    <polygon class="fil4" points="68741,192817 68741,185942 65525,189158 65525,196034 66823,194735 "/>
    <polygon class="fil4" points="68741,200750 68741,197313 65525,197313 65525,203967 "/>
    <polygon class="fil3" points="64775,204496 64775,201279 57370,201279 54154,204496 "/>
    <polygon class="fil3" points="89324,196563 96507,196563 96507,193346 89103,193346 85887,196563 "/>
    <polygon class="fil3" points="84608,188630 84608,185413 81391,185413 81391,188630 "/>
    <polygon class="fil3" points="84608,204496 84608,201279 73238,201279 70021,204496 "/>
    <polygon class="fil4" points="88574,200750 88574,197313 85358,197313 85358,203967 "/>
    <polygon class="fil3" points="97787,196563 101224,196563 108627,196563 111844,193346 101004,193346 "/>
    <polygon class="fil3" points="101224,188630 108627,188630 111844,185413 101004,185413 97787,188630 "/>
    <polygon class="fil4" points="97257,196032 100474,192815 100474,189380 97257,189380 97257,192596 "/>
    <polygon class="fil4" points="97257,203965 100474,200748 100474,197313 97257,197313 "/>
    <polygon class="fil3" points="101004,201279 97787,204496 108627,204496 111844,201279 "/>
    <polygon class="fil4" points="118092,193346 118092,196563 137925,196563 137925,204496 141142,204496 141142,193346 "/>
    <polygon class="fil4" points="118092,188630 137395,188630 140612,185413 118092,185413 "/>
    <polygon class="fil4" points="118092,201279 118092,204496 133209,204496 133209,201279 "/>
    <path class="fil1" d="M101004 201279l-3217 3217 10840 0 3217 -3217 -10840 0zm-64525 -7933l-14587 0 0 3217 11371 0 3216 -3217zm5246 -4186l0 6872 3217 -3217 0 -6872 -3217 3217zm-750 220l-19833 0 0 -4717 24550 0 0 7933 16396 0 -4717 4717 -16396 0 0 -7933zm-11900 11899l-7183 0 0 3217 7183 0 0 -3217zm-7558 -750l8308 0 0 4717 -8683 0 0 -4717 375 0zm15491 -6654l-3216 3216 0 7405 3216 0 0 -10621zm-15866 3063l0 -4342 16616 0 0 12650 -4716 0 0 -7933 -11900 0 0 -375zm20583 4341l0 3217 7403 0 3217 -3217 -10620 0zm-750 -750l13180 0 -4717 4717 -8463 0 0 -4717zm4497 -7183l-3217 3217 14806 0 3217 -3217 -14806 0zm-4277 -4716l3217 -3217 -22520 0 0 3217 19303 0zm76897 0l19303 0 3217 -3217 -22520 0 0 3217zm19458 750l-20208 0 0 -4717 25080 0 -4717 4717 -155 0zm-4341 11899l-15117 0 0 3217 15117 0 0 -3217zm750 -750l0 4717 -16617 0 0 -4717 16617 0zm7183 -7183l-23050 0 0 3217 19833 0 0 7933 3217 0 0 -11150zm750 -750l0 12650 -4717 0 0 -7933 -19833 0 0 -4717 24550 0zm-76367 4717l0 6654 3216 -3217 0 -3437 -3216 0zm3966 0l0 3744 -4187 4189 -12957 0 4715 -4717 7713 0 0 -11149 -16397 0 4717 -4717 16396 0 0 7933 16397 0 -4717 4717 -11680 0zm-750 -4496l0 -6875 -3216 3216 0 6876 1298 -1299 1918 -1918zm529 529l-3216 3217 14807 0 3217 -3217 -14808 0 0 0zm27987 3967l0 6652 3217 -3217 0 -3435 -3217 0zm3967 0l0 3216 12430 0 -4717 4717 -12430 0 0 -7933 -7183 0 0 3744 -4187 4189 -16926 0 4717 -4717 11680 0 0 -3745 4187 -4188 7712 0 0 -3747 4187 -4186 12960 0 -640 640 -4077 4077 -7713 0 0 3216 12430 0 -4717 4717 -7713 0zm-750 -4498l0 -3435 -3217 0 0 3216 0 3436 3217 -3217zm-15116 4498l0 6654 3216 -3217 0 -3437 -3216 0zm15646 -3967l-3217 3217 3437 0 7403 0 3217 -3217 -10840 0zm7623 -4716l3217 -3217 -10840 0 -3217 3217 3437 0 7403 0zm-24019 12649l-11370 0 -3217 3217 14587 0 0 -3217zm4495 -7933l-3216 3217 3437 0 7183 0 0 -3217 -7404 0zm-7712 -7933l0 3217 3217 0 0 -3217 -3217 0zm-750 3592l0 -4342 4717 0 0 4717 -4717 0 0 -375zm-30453 -375l14808 0 3216 -3217 -14807 0 -3217 3217zm7182 12649l-3216 3217 10621 0 0 -3217 -7405 0z"/>
   </g>
   <path class="fil5" d="M101218 171184l-3467 3467 11193 0 3467 -3467 -11193 0zm17014 -12399l19480 0 3467 -3467 -22947 0 0 3467zm15367 12399l-15367 0 0 3467 15367 0 0 -3467zm7933 -7933l-23300 0 0 3467 19833 0 0 7933 3467 0 0 -11400zm-75867 3967l0 3466 0 3614 3466 -3466 0 -3614 -3466 0zm3466 -4319l0 -7228 -3466 3467 0 7227 464 -464 3002 -3002zm353 352l-3466 3467 3613 0 11547 0 3467 -3467 -15161 0zm-4172 -4466c1155,-1156 2311,-2311 3466,-3467l-15159 0 -3467 3467 15160 0zm32085 8433l0 7080 3467 -3467 0 -3613 -3467 0zm3467 -4320l0 -3613 -3467 0 0 3466 0 3614 3467 -3467zm-15366 4320l0 3466 0 3614 3466 -3466 0 -3614 -3466 0zm-43633 -8079l0 7226 3467 -3467 0 -7226 -3467 3467zm-12400 12045l-7433 0 0 3467 7433 0 0 -3467zm7933 -7580l-3466 3467 0 7580 3466 0 0 -11047zm63820 -353l-3467 3467 3613 0 7580 0 3467 -3467 -11193 0zm7726 -4466l3467 -3467 -11193 0 -3467 3467 3613 0 7580 0zm-23946 12399l-11546 0 -3467 3467 15013 0 0 -3467zm4319 -7933l-3466 3467 3613 0 7433 0 0 -3467 -7580 0zm-7786 -7933l0 3467 3467 0 0 -3467 -3467 0zm-23947 15866l-3466 3467 11047 0 0 -3467 -7581 0zm-15719 0l0 3467 7580 0 3467 -3467 -11047 0zm3821 -7933l-3467 3467 15159 0 3467 -3467 -15159 0zm-23654 0l0 3467 11548 0 2009 -2009 1457 -1458 -15014 0zm19480 -4466l3467 -3467 -22947 0 0 3467 19480 0z"/>
   <path class="fil5" d="M101156 141065l-3767 3767 11617 0 3767 -3767 -11617 0zm16926 -12099l19692 0 3767 -3767 -23459 0 0 3767zm15667 12099l-15667 0 0 3767 15667 0 0 -3767zm7933 -7933l-23600 0 0 3767 19833 0 0 7933 3767 0 0 -11700zm-76167 3967l0 3766 0 3826 3766 -3767 0 -3825 -3766 0zm3766 -4108l0 -7651 -75 75 -3691 3692 0 7651 2799 -2800 967 -967zm-3907 -4025c1253,-1258 2510,-2512 3766,-3767l-15583 0 -3767 3767 15584 0zm31873 8133l0 7591 3767 -3767 0 -3824 -3767 0zm3767 -4109l0 -3824 -3767 0 0 3766 0 3825 3767 -3767zm-15666 4109l0 3766 0 3826 3766 -3767 0 -3825 -3766 0zm-43633 -7992l0 7650 3767 -3767 0 -7650 -3767 3767zm-12100 11958l-7733 0 0 3767 7733 0 0 -3767zm7933 -7792l-3766 3767 0 7792 3766 0 0 -11559zm63608 -141l-3767 3767 3825 0 7792 0 3767 -3767 -11617 0zm7850 -4166l3767 -3767 -11617 0 -3767 3767 3825 0 7792 0zm-23858 12099l-11758 0 -3767 3767 15525 0 0 -3767zm4107 -7933l-3766 3767 3825 0 7733 0 0 -3767 -7792 0zm-7874 -7933l0 3767 3767 0 0 -3767 -3767 0zm-11959 7933l-3766 3767 3825 0 11759 0 3767 -3767 -15585 0zm-11900 7933l-3766 3767 11559 0 0 -3767 -7793 0zm-15807 0l0 3767 7792 0 3767 -3767 -11559 0zm3909 -7933l-3767 3767 15583 0 3767 -3767 -15583 0zm-23742 0l0 3767 11759 0 302 -302 3464 -3465 -15525 0zm19692 -4166l3767 -3767 -23459 0 0 3767 19692 0z"/>
   <path class="fil6" d="M101218 111245l-3467 3467 11193 0 3467 -3467 -11193 0zm17014 -12399l19480 0 3467 -3467 -22947 0 0 3467zm15367 12399l-15367 0 0 3467 15367 0 0 -3467zm7933 -7933l-23300 0 0 3467 19833 0 0 7933 3467 0 0 -11400zm-75867 3967l0 3466 0 3615 3466 -3467 0 -3614 -3466 0zm3466 -4319l0 -7228 -3466 3467 0 7228 464 -465 3002 -3002zm353 352l-3466 3467 3613 0 11547 0 3467 -3467 -15161 0zm-4172 -4466c1155,-1156 2311,-2311 3466,-3467l-15159 0 -3467 3467 15160 0zm32085 8433l0 7080 3467 -3467 0 -3613 -3467 0zm3467 -4320l0 -3613 -3467 0 0 3466 0 3614 3467 -3467zm-15366 4320l0 3466 0 3615 3466 -3467 0 -3614 -3466 0zm-43633 -8079l0 7226 3467 -3467 0 -7226 -3467 3467zm-12400 12045l-7433 0 0 3467 7433 0 0 -3467zm7933 -7580l-3466 3467 0 7580 3466 0 0 -11047zm63820 -353l-3467 3467 3613 0 7580 0 3467 -3467 -11193 0zm7726 -4466l3467 -3467 -11193 0 -3467 3467 3613 0 7580 0zm-23946 12399l-11546 0 -3467 3467 15013 0 0 -3467zm4319 -7933l-3466 3467 3613 0 7433 0 0 -3467 -7580 0zm-7786 -7933l0 3467 3467 0 0 -3467 -3467 0zm-23947 15866l-3466 3467 11047 0 0 -3467 -7581 0zm-15719 0l0 3467 7580 0 3467 -3467 -11047 0zm3821 -7933l-3467 3467 15159 0 3467 -3467 -15159 0zm-23654 0l0 3467 11548 0 2009 -2009 1457 -1458 -15014 0zm19480 -4466l3467 -3467 -22947 0 0 3467 19480 0z"/>
   <path class="fil6" d="M101156 81126l-3767 3767 11617 0 3767 -3767 -11617 0zm16926 -12099l19692 0 3767 -3767 -23459 0 0 3767zm15667 12099l-15667 0 0 3767 15667 0 0 -3767zm7933 -7933l-23600 0 0 3767 19833 0 0 7933 3767 0 0 -11700zm-76167 3967l0 3766 0 3826 3766 -3767 0 -3825 -3766 0zm3766 -4108l0 -7651 -75 75 -3691 3692 0 7651 2799 -2800 967 -967zm-3907 -4025c1253,-1258 2510,-2512 3766,-3767l-15583 0 -3767 3767 15584 0zm31873 8133l0 7591 3767 -3767 0 -3824 -3767 0zm3767 -4109l0 -3824 -3767 0 0 3766 0 3825 3767 -3767zm-15666 4109l0 3766 0 3826 3766 -3767 0 -3825 -3766 0zm-43633 -7992l0 7650 3767 -3767 0 -7650 -3767 3767zm-12100 11958l-7733 0 0 3767 7733 0 0 -3767zm7933 -7792l-3766 3767 0 7792 3766 0 0 -11559zm63608 -141l-3767 3767 3825 0 7792 0 3767 -3767 -11617 0zm7850 -4166l3767 -3767 -11617 0 -3767 3767 3825 0 7792 0zm-23858 12099l-11758 0 -3767 3767 15525 0 0 -3767zm4107 -7933l-3766 3767 3825 0 7733 0 0 -3767 -7792 0zm-7874 -7933l0 3767 3767 0 0 -3767 -3767 0zm-11959 7933l-3766 3767 3825 0 11759 0 3767 -3767 -15585 0zm-11900 7933l-3766 3767 11559 0 0 -3767 -7793 0zm-15807 0l0 3767 7792 0 3767 -3767 -11559 0zm3909 -7933l-3767 3767 15583 0 3767 -3767 -15583 0zm-23742 0l0 3767 11759 0 302 -302 3464 -3465 -15525 0zm19692 -4166l3767 -3767 -23459 0 0 3767 19692 0z"/>
   <g>
    <g>
     <path class="fil7" d="M101114 51056l-3967 3967c3967,0 7933,0 11900,0l3967 -3967c-3967,0 -7933,0 -11900,0z"/>
     <polygon class="fil7" points="41615,39157 45582,35190 21782,35190 21782,39157 "/>
     <polygon class="fil7" points="21782,43123 21782,47090 33682,47090 37648,43123 "/>
     <polygon class="fil7" points="45582,43123 41615,47090 57481,47090 61448,43123 "/>
     <polygon class="fil7" points="41615,51056 41615,55023 49548,55023 53515,51056 "/>
     <polygon class="fil7" points="57481,51056 53515,55023 65415,55023 65415,51056 "/>
     <path class="fil7" d="M49548 39157l15867 0 3966 -3967c-5288,0 -10577,0 -15866,0l-3967 3967z"/>
     <path class="fil7" d="M69381 43123l-3966 3967 15866 0 3967 -3967c-5289,0 -10578,0 -15867,0z"/>
     <polygon class="fil7" points="81281,35190 81281,39157 85248,39157 85248,35190 "/>
     <polygon class="fil7" points="89214,43123 85248,47090 97147,47090 97147,43123 "/>
     <path class="fil7" d="M85248 51056c-3967,0 -7933,0 -11900,0l-3967 3967c5289,0 10578,0 15867,0l0 -3967z"/>
     <path class="fil7" d="M109047 39157l3967 -3967c-3967,0 -7933,0 -11900,0l-3967 3967c3967,0 7933,0 11900,0z"/>
     <path class="fil7" d="M101114 43123l-3967 3967c3967,0 7933,0 11900,0l3967 -3967c-3967,0 -7933,0 -11900,0z"/>
    </g>
    <g>
     <polygon class="fil8" points="37648,43123 33682,47090 33682,55023 37648,55023 "/>
     <polygon class="fil8" points="29715,51056 21782,51056 21782,55023 29715,55023 "/>
     <polygon class="fil8" points="41615,39157 41615,47090 45582,43123 45582,35190 "/>
     <polygon class="fil8" points="85248,47090 85248,55023 89214,51056 89214,47090 "/>
     <polygon class="fil8" points="97147,47090 101114,43123 101114,39157 97147,39157 "/>
     <polygon class="fil8" points="101114,47090 97147,47090 97147,55023 101114,51056 "/>
     <polygon class="fil8" points="69381,43123 69381,35190 65415,39157 65415,47090 "/>
     <polygon class="fil8" points="69381,47090 65415,47090 65415,55023 69381,51056 "/>
    </g>
    <path class="fil8" d="M117982 39157l19833 0 3967 -3967 -23800 0 0 3967zm15867 11899l-15867 0 0 3967 15867 0 0 -3967zm7933 -7933l-23800 0 0 3967 19833 0 0 7933 3967 0 0 -11900z"/>
   </g>
   <g>
    <g>
     <path class="fil9" d="M237550 170934l-3967 3967c3967,0 7933,0 11900,0l3967 -3967c-3967,0 -7933,0 -11900,0z"/>
     <polygon class="fil9" points="178051,159035 182018,155068 158218,155068 158218,159035 "/>
     <polygon class="fil9" points="158218,163001 158218,166968 170118,166968 174084,163001 "/>
     <polygon class="fil9" points="182018,163001 178051,166968 193917,166968 197884,163001 "/>
     <polygon class="fil9" points="178051,170934 178051,174901 185984,174901 189951,170934 "/>
     <polygon class="fil9" points="193917,170934 189951,174901 201851,174901 201851,170934 "/>
     <path class="fil9" d="M185984 159035l15867 0 3966 -3967c-5289,0 -10577,0 -15866,0l-3967 3967z"/>
     <path class="fil9" d="M205817 163001l-3966 3967 15866 0 3967 -3967c-5289,0 -10578,0 -15867,0z"/>
     <polygon class="fil9" points="217717,155068 217717,159035 221684,159035 221684,155068 "/>
     <polygon class="fil9" points="225650,163001 221684,166968 233583,166968 233583,163001 "/>
     <path class="fil9" d="M221684 170934c-3967,0 -7933,0 -11900,0l-3967 3967c5289,0 10578,0 15867,0l0 -3967z"/>
     <path class="fil9" d="M245483 159035l3967 -3967c-3967,0 -7933,0 -11900,0l-3967 3967c3967,0 7933,0 11900,0z"/>
     <path class="fil9" d="M237550 163001l-3967 3967c3967,0 7933,0 11900,0l3967 -3967c-3967,0 -7933,0 -11900,0z"/>
    </g>
    <g>
     <polygon class="fil10" points="174084,163001 170118,166968 170118,174901 174084,174901 "/>
     <polygon class="fil10" points="166151,170934 158218,170934 158218,174901 166151,174901 "/>
     <polygon class="fil10" points="178051,159035 178051,166968 182018,163001 182018,155068 "/>
     <polygon class="fil10" points="221684,166968 221684,174901 225650,170934 225650,166968 "/>
     <polygon class="fil10" points="233583,166968 237550,163001 237550,159035 233583,159035 "/>
     <polygon class="fil10" points="237550,166968 233583,166968 233583,174901 237550,170934 "/>
     <polygon class="fil10" points="205817,163001 205817,155068 201851,159035 201851,166968 "/>
     <polygon class="fil10" points="205817,166968 201851,166968 201851,174901 205817,170934 "/>
    </g>
    <path class="fil10" d="M254418 159035l19833 0 3967 -3967 -23800 0 0 3967zm15867 11899l-15867 0 0 3967 15867 0 0 -3967zm7933 -7933l-23800 0 0 3967 19833 0 0 7933 3967 0 0 -11900z"/>
   </g>
   <g>
    <g>
     <path class="fil7" d="M237550 140965l-3967 3967c3967,0 7933,0 11900,0l3967 -3967c-3967,0 -7933,0 -11900,0z"/>
     <polygon class="fil7" points="178051,129066 182018,125099 158218,125099 158218,129066 "/>
     <polygon class="fil7" points="158218,133032 158218,136999 170118,136999 174084,133032 "/>
     <polygon class="fil7" points="182018,133032 178051,136999 193917,136999 197884,133032 "/>
     <polygon class="fil7" points="178051,140965 178051,144932 185984,144932 189951,140965 "/>
     <polygon class="fil7" points="193917,140965 189951,144932 201851,144932 201851,140965 "/>
     <path class="fil7" d="M185984 129066l15867 0 3966 -3967c-5289,0 -10577,0 -15866,0l-3967 3967z"/>
     <path class="fil7" d="M205817 133032l-3966 3967 15866 0 3967 -3967c-5289,0 -10578,0 -15867,0z"/>
     <polygon class="fil7" points="217717,125099 217717,129066 221684,129066 221684,125099 "/>
     <polygon class="fil7" points="225650,133032 221684,136999 233583,136999 233583,133032 "/>
     <path class="fil7" d="M221684 140965c-3967,0 -7933,0 -11900,0l-3967 3967c5289,0 10578,0 15867,0l0 -3967z"/>
     <path class="fil7" d="M245483 129066l3967 -3967c-3967,0 -7933,0 -11900,0l-3967 3967c3967,0 7933,0 11900,0z"/>
     <path class="fil7" d="M237550 133032l-3967 3967c3967,0 7933,0 11900,0l3967 -3967c-3967,0 -7933,0 -11900,0z"/>
    </g>
    <g>
     <polygon class="fil11" points="174084,133032 170118,136999 170118,144932 174084,144932 "/>
     <polygon class="fil11" points="166151,140965 158218,140965 158218,144932 166151,144932 "/>
     <polygon class="fil11" points="178051,129066 178051,136999 182018,133032 182018,125099 "/>
     <polygon class="fil11" points="221684,136999 221684,144932 225650,140965 225650,136999 "/>
     <polygon class="fil11" points="233583,136999 237550,133032 237550,129066 233583,129066 "/>
     <polygon class="fil11" points="237550,136999 233583,136999 233583,144932 237550,140965 "/>
     <polygon class="fil11" points="205817,133032 205817,125099 201851,129066 201851,136999 "/>
     <polygon class="fil11" points="205817,136999 201851,136999 201851,144932 205817,140965 "/>
    </g>
    <path class="fil11" d="M254418 129066l19833 0 3967 -3967 -23800 0 0 3967zm15867 11899l-15867 0 0 3967 15867 0 0 -3967zm7933 -7933l-23800 0 0 3967 19833 0 0 7933 3967 0 0 -11900z"/>
   </g>
   <g>
    <g>
     <path class="fil12" d="M237550 110995l-3967 3967c3967,0 7933,0 11900,0l3967 -3967c-3967,0 -7933,0 -11900,0z"/>
     <polygon class="fil12" points="178051,99096 182018,95129 158218,95129 158218,99096 "/>
     <polygon class="fil12" points="158218,103062 158218,107029 170118,107029 174084,103062 "/>
     <polygon class="fil12" points="182018,103062 178051,107029 193917,107029 197884,103062 "/>
     <polygon class="fil12" points="178051,110995 178051,114962 185984,114962 189951,110995 "/>
     <polygon class="fil12" points="193917,110995 189951,114962 201851,114962 201851,110995 "/>
     <path class="fil12" d="M185984 99096l15867 0 3966 -3967c-5289,0 -10577,0 -15866,0l-3967 3967z"/>
     <path class="fil12" d="M205817 103062l-3966 3967 15866 0 3967 -3967c-5289,0 -10578,0 -15867,0z"/>
     <polygon class="fil12" points="217717,95129 217717,99096 221684,99096 221684,95129 "/>
     <polygon class="fil12" points="225650,103062 221684,107029 233583,107029 233583,103062 "/>
     <path class="fil12" d="M221684 110995c-3967,0 -7933,0 -11900,0l-3967 3967c5289,0 10578,0 15867,0l0 -3967z"/>
     <path class="fil12" d="M245483 99096l3967 -3967c-3967,0 -7933,0 -11900,0l-3967 3967c3967,0 7933,0 11900,0z"/>
     <path class="fil12" d="M237550 103062l-3967 3967c3967,0 7933,0 11900,0l3967 -3967c-3967,0 -7933,0 -11900,0z"/>
    </g>
    <g>
     <polygon class="fil11" points="174084,103062 170118,107029 170118,114962 174084,114962 "/>
     <polygon class="fil11" points="166151,110995 158218,110995 158218,114962 166151,114962 "/>
     <polygon class="fil11" points="178051,99096 178051,107029 182018,103062 182018,95129 "/>
     <polygon class="fil11" points="221684,107029 221684,114962 225650,110995 225650,107029 "/>
     <polygon class="fil11" points="233583,107029 237550,103062 237550,99096 233583,99096 "/>
     <polygon class="fil11" points="237550,107029 233583,107029 233583,114962 237550,110995 "/>
     <polygon class="fil11" points="205817,103062 205817,95129 201851,99096 201851,107029 "/>
     <polygon class="fil11" points="205817,107029 201851,107029 201851,114962 205817,110995 "/>
    </g>
    <path class="fil11" d="M254418 99096l19833 0 3967 -3967 -23800 0 0 3967zm15867 11899l-15867 0 0 3967 15867 0 0 -3967zm7933 -7933l-23800 0 0 3967 19833 0 0 7933 3967 0 0 -11900z"/>
   </g>
   <g>
    <g>
     <path class="fil11" d="M237550 81026l-3967 3967c3967,0 7933,0 11900,0l3967 -3967c-3967,0 -7933,0 -11900,0z"/>
     <polygon class="fil11" points="178051,69127 182018,65160 158218,65160 158218,69127 "/>
     <polygon class="fil11" points="158218,73093 158218,77060 170118,77060 174084,73093 "/>
     <polygon class="fil11" points="182018,73093 178051,77060 193917,77060 197884,73093 "/>
     <polygon class="fil11" points="178051,81026 178051,84993 185984,84993 189951,81026 "/>
     <polygon class="fil11" points="193917,81026 189951,84993 201851,84993 201851,81026 "/>
     <path class="fil11" d="M185984 69127l15867 0 3966 -3967c-5289,0 -10577,0 -15866,0l-3967 3967z"/>
     <path class="fil11" d="M205817 73093l-3966 3967 15866 0 3967 -3967c-5289,0 -10578,0 -15867,0z"/>
     <polygon class="fil11" points="217717,65160 217717,69127 221684,69127 221684,65160 "/>
     <polygon class="fil11" points="225650,73093 221684,77060 233583,77060 233583,73093 "/>
     <path class="fil11" d="M221684 81026c-3967,0 -7933,0 -11900,0l-3967 3967c5289,0 10578,0 15867,0l0 -3967z"/>
     <path class="fil11" d="M245483 69127l3967 -3967c-3967,0 -7933,0 -11900,0l-3967 3967c3967,0 7933,0 11900,0z"/>
     <path class="fil11" d="M237550 73093l-3967 3967c3967,0 7933,0 11900,0l3967 -3967c-3967,0 -7933,0 -11900,0z"/>
    </g>
    <g>
     <polygon class="fil13" points="174084,73093 170118,77060 170118,84993 174084,84993 "/>
     <polygon class="fil13" points="166151,81026 158218,81026 158218,84993 166151,84993 "/>
     <polygon class="fil13" points="178051,69127 178051,77060 182018,73093 182018,65160 "/>
     <polygon class="fil13" points="221684,77060 221684,84993 225650,81026 225650,77060 "/>
     <polygon class="fil13" points="233583,77060 237550,73093 237550,69127 233583,69127 "/>
     <polygon class="fil13" points="237550,77060 233583,77060 233583,84993 237550,81026 "/>
     <polygon class="fil13" points="205817,73093 205817,65160 201851,69127 201851,77060 "/>
     <polygon class="fil13" points="205817,77060 201851,77060 201851,84993 205817,81026 "/>
    </g>
    <path class="fil13" d="M254418 69127l19833 0 3967 -3967 -23800 0 0 3967zm15867 11899l-15867 0 0 3967 15867 0 0 -3967zm7933 -7933l-23800 0 0 3967 19833 0 0 7933 3967 0 0 -11900z"/>
   </g>
   <g>
    <g>
     <path class="fil7" d="M237550 51056l-3967 3967c3967,0 7933,0 11900,0l3967 -3967c-3967,0 -7933,0 -11900,0z"/>
     <polygon class="fil7" points="178051,39157 182018,35190 158218,35190 158218,39157 "/>
     <polygon class="fil7" points="158218,43123 158218,47090 170118,47090 174084,43123 "/>
     <polygon class="fil7" points="182018,43123 178051,47090 193917,47090 197884,43123 "/>
     <polygon class="fil7" points="178051,51056 178051,55023 185984,55023 189951,51056 "/>
     <polygon class="fil7" points="193917,51056 189951,55023 201851,55023 201851,51056 "/>
     <path class="fil7" d="M185984 39157l15867 0 3966 -3967c-5289,0 -10577,0 -15866,0l-3967 3967z"/>
     <path class="fil7" d="M205817 43123l-3966 3967 15866 0 3967 -3967c-5289,0 -10578,0 -15867,0z"/>
     <polygon class="fil7" points="217717,35190 217717,39157 221684,39157 221684,35190 "/>
     <polygon class="fil7" points="225650,43123 221684,47090 233583,47090 233583,43123 "/>
     <path class="fil7" d="M221684 51056c-3967,0 -7933,0 -11900,0l-3967 3967c5289,0 10578,0 15867,0l0 -3967z"/>
     <path class="fil7" d="M245483 39157l3967 -3967c-3967,0 -7933,0 -11900,0l-3967 3967c3967,0 7933,0 11900,0z"/>
     <path class="fil7" d="M237550 43123l-3967 3967c3967,0 7933,0 11900,0l3967 -3967c-3967,0 -7933,0 -11900,0z"/>
    </g>
    <g>
     <polygon class="fil11" points="174084,43123 170118,47090 170118,55023 174084,55023 "/>
     <polygon class="fil11" points="166151,51056 158218,51056 158218,55023 166151,55023 "/>
     <polygon class="fil11" points="178051,39157 178051,47090 182018,43123 182018,35190 "/>
     <polygon class="fil11" points="221684,47090 221684,55023 225650,51056 225650,47090 "/>
     <polygon class="fil11" points="233583,47090 237550,43123 237550,39157 233583,39157 "/>
     <polygon class="fil11" points="237550,47090 233583,47090 233583,55023 237550,51056 "/>
     <polygon class="fil11" points="205817,43123 205817,35190 201851,39157 201851,47090 "/>
     <polygon class="fil11" points="205817,47090 201851,47090 201851,55023 205817,51056 "/>
    </g>
    <path class="fil11" d="M254418 39157l19833 0 3967 -3967 -23800 0 0 3967zm15867 11899l-15867 0 0 3967 15867 0 0 -3967zm7933 -7933l-23800 0 0 3967 19833 0 0 7933 3967 0 0 -11900z"/>
   </g>
   <g>
    <g>
     <path class="fil7" d="M237550 200904l-3967 3967c3967,0 7933,0 11900,0l3967 -3967c-3967,0 -7933,0 -11900,0z"/>
     <polygon class="fil7" points="178051,189005 182018,185038 158218,185038 158218,189005 "/>
     <polygon class="fil7" points="158218,192971 158218,196938 170118,196938 174084,192971 "/>
     <polygon class="fil7" points="182018,192971 178051,196938 193917,196938 197884,192971 "/>
     <polygon class="fil7" points="178051,200904 178051,204871 185984,204871 189951,200904 "/>
     <polygon class="fil7" points="193917,200904 189951,204871 201851,204871 201851,200904 "/>
     <path class="fil7" d="M185984 189005l15867 0 3966 -3967c-5289,0 -10577,0 -15866,0l-3967 3967z"/>
     <path class="fil7" d="M205817 192971l-3966 3967 15866 0 3967 -3967c-5289,0 -10578,0 -15867,0z"/>
     <polygon class="fil7" points="217717,185038 217717,189005 221684,189005 221684,185038 "/>
     <polygon class="fil7" points="225650,192971 221684,196938 233583,196938 233583,192971 "/>
     <path class="fil7" d="M221684 200904c-3967,0 -7933,0 -11900,0l-3967 3967c5289,0 10578,0 15867,0l0 -3967z"/>
     <path class="fil7" d="M245483 189005l3967 -3967c-3967,0 -7933,0 -11900,0l-3967 3967c3967,0 7933,0 11900,0z"/>
     <path class="fil7" d="M237550 192971l-3967 3967c3967,0 7933,0 11900,0l3967 -3967c-3967,0 -7933,0 -11900,0z"/>
    </g>
    <g>
     <polygon class="fil3" points="174084,192971 170118,196938 170118,204871 174084,204871 "/>
     <polygon class="fil3" points="166151,200904 158218,200904 158218,204871 166151,204871 "/>
     <polygon class="fil3" points="178051,189005 178051,196938 182018,192971 182018,185038 "/>
     <polygon class="fil3" points="221684,196938 221684,204871 225650,200904 225650,196938 "/>
     <polygon class="fil3" points="233583,196938 237550,192971 237550,189005 233583,189005 "/>
     <polygon class="fil3" points="237550,196938 233583,196938 233583,204871 237550,200904 "/>
     <polygon class="fil3" points="205817,192971 205817,185038 201851,189005 201851,196938 "/>
     <polygon class="fil3" points="205817,196938 201851,196938 201851,204871 205817,200904 "/>
    </g>
    <path class="fil3" d="M254418 189005l19833 0 3967 -3967 -23800 0 0 3967zm15867 11899l-15867 0 0 3967 15867 0 0 -3967zm7933 -7933l-23800 0 0 3967 19833 0 0 7933 3967 0 0 -11900z"/>
   </g>
   <g>
    <g>
     <path class="fil7" d="M237550 230873l-3967 3967c3967,0 7933,0 11900,0l3967 -3967c-3967,0 -7933,0 -11900,0z"/>
     <polygon class="fil7" points="178051,218974 182018,215007 158218,215007 158218,218974 "/>
     <polygon class="fil7" points="158218,222940 158218,226907 170118,226907 174084,222940 "/>
     <polygon class="fil7" points="182018,222940 178051,226907 193917,226907 197884,222940 "/>
     <polygon class="fil7" points="178051,230873 178051,234840 185984,234840 189951,230873 "/>
     <polygon class="fil7" points="193917,230873 189951,234840 201851,234840 201851,230873 "/>
     <path class="fil7" d="M185984 218974l15867 0 3966 -3967c-5289,0 -10577,0 -15866,0l-3967 3967z"/>
     <path class="fil7" d="M205817 222940l-3966 3967 15866 0 3967 -3967c-5289,0 -10578,0 -15867,0z"/>
     <polygon class="fil7" points="217717,215007 217717,218974 221684,218974 221684,215007 "/>
     <polygon class="fil7" points="225650,222940 221684,226907 233583,226907 233583,222940 "/>
     <path class="fil7" d="M221684 230873c-3967,0 -7933,0 -11900,0l-3967 3967c5289,0 10578,0 15867,0l0 -3967z"/>
     <path class="fil7" d="M245483 218974l3967 -3967c-3967,0 -7933,0 -11900,0l-3967 3967c3967,0 7933,0 11900,0z"/>
     <path class="fil7" d="M237550 222940l-3967 3967c3967,0 7933,0 11900,0l3967 -3967c-3967,0 -7933,0 -11900,0z"/>
    </g>
    <g>
     <polygon class="fil14" points="174084,222940 170118,226907 170118,234840 174084,234840 "/>
     <polygon class="fil14" points="166151,230873 158218,230873 158218,234840 166151,234840 "/>
     <polygon class="fil14" points="178051,218974 178051,226907 182018,222940 182018,215007 "/>
     <polygon class="fil14" points="221684,226907 221684,234840 225650,230873 225650,226907 "/>
     <polygon class="fil14" points="233583,226907 237550,222940 237550,218974 233583,218974 "/>
     <polygon class="fil14" points="237550,226907 233583,226907 233583,234840 237550,230873 "/>
     <polygon class="fil14" points="205817,222940 205817,215007 201851,218974 201851,226907 "/>
     <polygon class="fil14" points="205817,226907 201851,226907 201851,234840 205817,230873 "/>
    </g>
    <path class="fil14" d="M254418 218974l19833 0 3967 -3967 -23800 0 0 3967zm15867 11899l-15867 0 0 3967 15867 0 0 -3967zm7933 -7933l-23800 0 0 3967 19833 0 0 7933 3967 0 0 -11900z"/>
   </g>
   <g>
    <g>
     <path class="fil7" d="M237550 260843l-3967 3967c3967,0 7933,0 11900,0l3967 -3967c-3967,0 -7933,0 -11900,0z"/>
     <polygon class="fil7" points="178051,248944 182018,244977 158218,244977 158218,248944 "/>
     <polygon class="fil7" points="158218,252910 158218,256877 170118,256877 174084,252910 "/>
     <polygon class="fil7" points="182018,252910 178051,256877 193917,256877 197884,252910 "/>
     <polygon class="fil7" points="178051,260843 178051,264810 185984,264810 189951,260843 "/>
     <polygon class="fil7" points="193917,260843 189951,264810 201851,264810 201851,260843 "/>
     <path class="fil7" d="M185984 248944l15867 0 3966 -3967c-5289,0 -10577,0 -15866,0l-3967 3967z"/>
     <path class="fil7" d="M205817 252910l-3966 3967 15866 0 3967 -3967c-5289,0 -10578,0 -15867,0z"/>
     <polygon class="fil7" points="217717,244977 217717,248944 221684,248944 221684,244977 "/>
     <polygon class="fil7" points="225650,252910 221684,256877 233583,256877 233583,252910 "/>
     <path class="fil7" d="M221684 260843c-3967,0 -7933,0 -11900,0l-3967 3967c5289,0 10578,0 15867,0l0 -3967z"/>
     <path class="fil7" d="M245483 248944l3967 -3967c-3967,0 -7933,0 -11900,0l-3967 3967c3967,0 7933,0 11900,0z"/>
     <path class="fil7" d="M237550 252910l-3967 3967c3967,0 7933,0 11900,0l3967 -3967c-3967,0 -7933,0 -11900,0z"/>
    </g>
    <g>
     <polygon class="fil13" points="174084,252910 170118,256877 170118,264810 174084,264810 "/>
     <polygon class="fil13" points="166151,260843 158218,260843 158218,264810 166151,264810 "/>
     <polygon class="fil13" points="178051,248944 178051,256877 182018,252910 182018,244977 "/>
     <polygon class="fil13" points="221684,256877 221684,264810 225650,260843 225650,256877 "/>
     <polygon class="fil13" points="233583,256877 237550,252910 237550,248944 233583,248944 "/>
     <polygon class="fil13" points="237550,256877 233583,256877 233583,264810 237550,260843 "/>
     <polygon class="fil13" points="205817,252910 205817,244977 201851,248944 201851,256877 "/>
     <polygon class="fil13" points="205817,256877 201851,256877 201851,264810 205817,260843 "/>
    </g>
    <path class="fil13" d="M254418 248944l19833 0 3967 -3967 -23800 0 0 3967zm15867 11899l-15867 0 0 3967 15867 0 0 -3967zm7933 -7933l-23800 0 0 3967 19833 0 0 7933 3967 0 0 -11900z"/>
   </g>
  </g>
 </g>
</svg>
