<?xml version="1.0" encoding="UTF-8"?>
<!DOCTYPE svg PUBLIC "-//W3C//DTD SVG 1.1//EN" "http://www.w3.org/Graphics/SVG/1.1/DTD/svg11.dtd">
<!-- Creator: CorelDRAW X7 -->
<svg xmlns="http://www.w3.org/2000/svg" xml:space="preserve" width="1.9685in" height="1.9685in" version="1.1" style="shape-rendering:geometricPrecision; text-rendering:geometricPrecision; image-rendering:optimizeQuality; fill-rule:evenodd; clip-rule:evenodd"
viewBox="0 0 19685 19685"
 xmlns:xlink="http://www.w3.org/1999/xlink">
 <defs>
  <style type="text/css">
   <![CDATA[
    .fil0 {fill:none}
    .fil1 {fill:black}
   ]]>
  </style>
 </defs>
 <g id="Layer_x0020_1">
  <metadata id="CorelCorpID_0Corel-Layer"/>
  <g id="_1883865000800">
   <rect class="fil0" width="19685" height="19685"/>
   <path class="fil1" d="M8040 11325l0 -338c904,30 2682,240 4417,1261 1390,818 2098,1513 2454,1962l0 -2897 788 0 0 -2941 -788 0 0 -2897c-356,449 -1064,1144 -2454,1962 -1735,1021 -3513,1231 -4417,1261l0 -332 -523 0 -2633 0 0 345 -898 0 0 2263 898 0 0 351 757 0 468 2805 1408 0 228 0 -228 -1359 -240 -1446 240 0 523 0 0 0zm0 -683l0 -1599c523,-25 1335,-92 2270,-345 726,-197 1526,-498 2319,-965 615,-363 1107,-702 1495,-1015 160,-130 314,-265 443,-382l0 7013c-129,-117 -283,-252 -443,-381 -388,-308 -880,-653 -1495,-1015 -793,-468 -1593,-769 -2319,-966 -929,-252 -1747,-320 -2270,-345zm-1107 683l424 2461 -947 6 -418 -2467 941 0 0 0zm7978 -357l0 -2251 449 0 0 2251 -449 0zm-7394 13l-2288 0 0 -7 0 -2270 2288 0 179 0 0 2277 -179 0 0 0zm-2633 -1926l0 1581 -559 0 0 -1581 559 0z"/>
  </g>
 </g>
</svg>
