<?xml version="1.0" encoding="UTF-8"?>
<!DOCTYPE svg PUBLIC "-//W3C//DTD SVG 1.1//EN" "http://www.w3.org/Graphics/SVG/1.1/DTD/svg11.dtd">
<!-- Creator: CorelDRAW X7 -->
<svg xmlns="http://www.w3.org/2000/svg" xml:space="preserve" width="1.9685in" height="1.9685in" version="1.1" style="shape-rendering:geometricPrecision; text-rendering:geometricPrecision; image-rendering:optimizeQuality; fill-rule:evenodd; clip-rule:evenodd"
viewBox="0 0 19685 19685"
 xmlns:xlink="http://www.w3.org/1999/xlink">
 <defs>
  <style type="text/css">
   <![CDATA[
    .fil0 {fill:none}
    .fil1 {fill:black}
   ]]>
  </style>
 </defs>
 <g id="Layer_x0020_1">
  <metadata id="CorelCorpID_0Corel-Layer"/>
  <g id="_2124919070448">
   <rect class="fil0" width="19685" height="19685"/>
   <path class="fil1" d="M5676 15397l8333 0 0 -11109 -5801 0 -2532 2531 0 8578zm2930 -7777l-283 621 -622 284 66 680 -397 556 397 556 -66 680 622 284 283 621 472 -45 0 2426 765 -710 764 710 0 -2426 472 45 283 -621 622 -284 -66 -680 397 -556 -397 -556 66 -680 -622 -284 -283 -621 -680 65 -556 -396 -556 396 -681 -65zm819 4315l418 298 417 -298 0 1554 -417 -388 -418 388 0 -1554zm-485 -3077c-231,231 -374,550 -374,903 0,352 143,672 374,903 231,231 550,373 903,373 352,0 671,-142 902,-373 231,-231 374,-551 374,-903 0,-353 -143,-672 -374,-903 -231,-231 -550,-374 -902,-374 -353,0 -672,143 -903,374zm-28 903c0,-248 97,-483 273,-658 175,-175 410,-273 658,-273 247,0 482,98 657,273 176,175 273,410 273,658 0,248 -97,483 -273,658 -175,175 -410,272 -657,272 -248,0 -483,-97 -658,-272 -176,-175 -273,-410 -273,-658zm-329 -1259l235 -515 564 54 461 -328 460 328 564 -54 235 515 515 234 -55 565 329 460 -328 460 54 564 -515 235 -235 515 -564 -54 -460 328 -461 -328 -564 54 -235 -515 -515 -235 54 -564 -328 -460 329 -460 -55 -565 515 -234zm5079 6549l-7638 0 0 -7986 2430 0 0 -2430 5208 0 0 10416zm-7393 -8333l1838 -1838 0 1838 -1838 0z"/>
  </g>
 </g>
</svg>
