<?xml version="1.0" encoding="UTF-8"?>
<!DOCTYPE svg PUBLIC "-//W3C//DTD SVG 1.1//EN" "http://www.w3.org/Graphics/SVG/1.1/DTD/svg11.dtd">
<!-- Creator: CorelDRAW X7 -->
<svg xmlns="http://www.w3.org/2000/svg" xml:space="preserve" width="1.9685in" height="1.9685in" version="1.1" style="shape-rendering:geometricPrecision; text-rendering:geometricPrecision; image-rendering:optimizeQuality; fill-rule:evenodd; clip-rule:evenodd"
viewBox="0 0 19685 19685"
 xmlns:xlink="http://www.w3.org/1999/xlink">
 <defs>
  <style type="text/css">
   <![CDATA[
    .fil1 {fill:none}
    .fil0 {fill:black}
   ]]>
  </style>
 </defs>
 <g id="Layer_x0020_1">
  <metadata id="CorelCorpID_0Corel-Layer"/>
  <g id="_1883856834288">
   <path class="fil0" d="M11922 6797l-2184 -2183 -5278 0 0 10414 7462 0 0 -8231zm-6072 5457l4688 0 0 344 -4688 0 0 -344 0 0zm0 -1390l4688 0 0 344 -4688 0 0 -344 0 0zm0 -1391l4688 0 0 351 -4688 0 0 -351 0 0zm0 -1390l4688 0 0 351 -4688 0 0 -351 0 0zm0 -1735l2079 0 0 351 -2079 0 0 -351zm9375 -2079l-1735 0 0 9412 868 1735 867 -1735 0 -9412 0 0zm-344 345l0 1390 -1046 0 0 -1390 1046 0zm-523 10027l-523 -1040 0 -7253 1046 0 0 7253 -523 1040 0 0zm-4515 -9437l1488 1495 -1488 0 0 -1495zm-5039 9480l0 -9726 4688 0 0 2086 2085 0 0 7640 -6773 0z"/>
   <rect class="fil1" width="19685" height="19685"/>
  </g>
 </g>
</svg>
