<?xml version="1.0" encoding="UTF-8"?>
<!DOCTYPE svg PUBLIC "-//W3C//DTD SVG 1.1//EN" "http://www.w3.org/Graphics/SVG/1.1/DTD/svg11.dtd">
<!-- Creator: CorelDRAW X7 -->
<svg xmlns="http://www.w3.org/2000/svg" xml:space="preserve" width="1.9685in" height="1.9685in" version="1.1" style="shape-rendering:geometricPrecision; text-rendering:geometricPrecision; image-rendering:optimizeQuality; fill-rule:evenodd; clip-rule:evenodd"
viewBox="0 0 19685 19685"
 xmlns:xlink="http://www.w3.org/1999/xlink">
 <defs>
  <style type="text/css">
   <![CDATA[
    .fil0 {fill:none}
    .fil1 {fill:black}
   ]]>
  </style>
 </defs>
 <g id="Layer_x0020_1">
  <metadata id="CorelCorpID_0Corel-Layer"/>
  <g id="_1885481122000">
   <rect class="fil0" width="19685" height="19685"/>
   <path class="fil1" d="M5678 6822l0 8575 8329 0 0 -11109 -5801 0 -2528 2534 0 0zm5463 4263l0 -2485 1377 0 0 289 -1107 0 0 775 960 0 0 295 -960 0 0 1126 -270 0 0 0zm-2080 0l0 -2485 708 0c172,0 301,12 393,43 117,43 222,117 308,221 86,105 154,234 203,394 49,160 74,351 74,572 0,283 -43,517 -123,714 -80,197 -191,338 -320,418 -129,80 -295,123 -505,123l-738 0zm271 -289l437 0c172,0 307,-31 393,-86 93,-62 160,-154 210,-277 67,-172 98,-369 98,-609 0,-252 -37,-449 -105,-597 -67,-141 -153,-240 -264,-289 -68,-31 -185,-49 -338,-49l-431 0 0 1907zm-2165 289l0 -2485 769 0c184,0 313,12 399,49 117,43 216,117 283,234 68,117 105,264 105,431 0,221 -55,405 -172,547 -111,141 -308,209 -591,209l-523 0 0 1015 -270 0 0 0zm270 -1304l529 0c166,0 289,-37 363,-111 80,-80 117,-190 117,-344 0,-99 -18,-179 -55,-252 -37,-68 -86,-117 -142,-142 -49,-31 -147,-43 -289,-43l-523 0 0 892 0 0zm671 -4903l0 1840 -1840 0 1840 -1840zm5555 10175l-7641 0 0 -7985 2430 0 0 -2436 5211 0 0 10421 0 0z"/>
  </g>
 </g>
</svg>
