<?xml version="1.0" encoding="UTF-8"?>
<!DOCTYPE svg PUBLIC "-//W3C//DTD SVG 1.1//EN" "http://www.w3.org/Graphics/SVG/1.1/DTD/svg11.dtd">
<!-- Creator: CorelDRAW X7 -->
<svg xmlns="http://www.w3.org/2000/svg" xml:space="preserve" width="1.9685in" height="1.9685in" version="1.1" style="shape-rendering:geometricPrecision; text-rendering:geometricPrecision; image-rendering:optimizeQuality; fill-rule:evenodd; clip-rule:evenodd"
viewBox="0 0 19685 19685"
 xmlns:xlink="http://www.w3.org/1999/xlink">
 <defs>
  <style type="text/css">
   <![CDATA[
    .fil0 {fill:none}
    .fil1 {fill:black}
   ]]>
  </style>
 </defs>
 <g id="Layer_x0020_1">
  <metadata id="CorelCorpID_0Corel-Layer"/>
  <g id="_2125125579360">
   <rect class="fil0" width="19685" height="19685"/>
   <path class="fil1" d="M10852 14185l-2019 0 0 1212 2019 0 2821 -1277 0 -1051c658,0 1267,-205 1703,-598 412,-371 668,-899 668,-1570 0,-671 -255,-1200 -668,-1572 -435,-392 -1043,-598 -1703,-598l0 -1161c0,-22 -20,-1469 -1156,-2435 -569,-484 -1416,-847 -2675,-847 -1258,0 -2105,363 -2675,847 -1136,966 -1155,2413 -1155,2435l0 1161c-660,0 -1267,206 -1703,598 -413,372 -668,901 -668,1572 0,671 256,1199 668,1570 437,393 1045,598 1703,598l351 0 0 -545 0 -4954c0,-19 17,-1306 1030,-2168 514,-436 1286,-764 2449,-764 1163,0 1936,328 2449,764 1014,862 1031,2149 1031,2168l0 6324 -2470 1113 0 -822zm2821 -5103l0 3637c1100,0 2020,-641 2020,-1818 0,-1175 -915,-1819 -2020,-1819zm-7661 0c-1105,0 -2020,644 -2020,1819 0,1177 920,1818 2020,1818l0 -3637zm4496 5971l-1331 0 0 -523 1331 0 0 523z"/>
  </g>
 </g>
</svg>
