<?xml version="1.0" encoding="UTF-8"?>
<!DOCTYPE svg PUBLIC "-//W3C//DTD SVG 1.1//EN" "http://www.w3.org/Graphics/SVG/1.1/DTD/svg11.dtd">
<!-- Creator: CorelDRAW X7 -->
<svg xmlns="http://www.w3.org/2000/svg" xml:space="preserve" width="1.9685in" height="1.9685in" version="1.1" style="shape-rendering:geometricPrecision; text-rendering:geometricPrecision; image-rendering:optimizeQuality; fill-rule:evenodd; clip-rule:evenodd"
viewBox="0 0 19685 19685"
 xmlns:xlink="http://www.w3.org/1999/xlink">
 <defs>
  <style type="text/css">
   <![CDATA[
    .fil1 {fill:none}
    .fil0 {fill:black}
   ]]>
  </style>
 </defs>
 <g id="Layer_x0020_1">
  <metadata id="CorelCorpID_0Corel-Layer"/>
  <g id="_1883985039680">
   <path class="fil0" d="M7603 11891l1378 0 0 2264c-117,31 -227,98 -313,184 -117,117 -197,289 -197,480 0,191 80,363 197,486 129,117 301,197 486,197 190,0 362,-80 486,-197 123,-123 196,-295 196,-486 0,-191 -73,-363 -196,-480 -87,-86 -191,-153 -314,-184l0 -2264 1384 0 0 2264c-123,31 -228,98 -314,184 -123,117 -203,289 -203,480 0,191 80,363 203,486 123,117 295,197 486,197 185,0 357,-80 486,-197 117,-123 197,-295 197,-486 0,-191 -80,-363 -197,-480 -86,-86 -197,-153 -314,-184l0 -2264 1378 0 0 2756 0 203 0 141 1618 0c37,123 99,228 185,314 117,117 289,197 480,197 190,0 363,-80 486,-197 116,-123 196,-295 196,-486 0,-191 -80,-363 -196,-480 -123,-129 -296,-203 -486,-203 -191,0 -363,74 -480,203 -86,80 -148,185 -185,308l-1273 0 0 -2756 480 0c590,0 1125,-240 1513,-627 387,-388 627,-923 627,-1514 0,-449 -141,-873 -381,-1218 -203,-289 -474,-523 -787,-683 -19,-313 -105,-602 -246,-855 -167,-301 -406,-547 -689,-726 -283,-178 -609,-289 -954,-313 -234,-13 -474,12 -707,86 -185,-486 -499,-911 -899,-1224 -492,-400 -1119,-634 -1802,-634l0 0 -37 0 0 0c-800,12 -1513,338 -2024,867 -467,474 -769,1102 -824,1803 -474,160 -886,455 -1193,836 -351,443 -566,1003 -566,1618 0,714 289,1360 756,1827 468,468 1114,757 1833,757l382 0 0 2756 -1618 0c-37,-123 -98,-228 -185,-308 -116,-129 -289,-203 -479,-203 -191,0 -363,74 -486,203 -117,117 -197,289 -197,480 0,191 80,363 197,486 123,117 295,197 486,197 190,0 363,-80 479,-197 87,-86 154,-191 185,-314l1962 0 0 -141 0 -203 0 -2756 0 0zm-2386 2701c24,24 49,61 67,98 12,43 25,86 25,129 0,43 -13,92 -25,129 -18,37 -43,74 -74,105 -55,61 -141,98 -233,98 -50,0 -93,-12 -130,-24 -43,-19 -73,-43 -110,-68 -25,-37 -50,-68 -68,-111 -12,-37 -25,-80 -25,-129 0,-49 13,-92 31,-129 12,-37 37,-74 68,-105 55,-61 141,-98 234,-98 43,0 86,12 129,25 37,18 74,43 98,67l13 13zm4176 0c31,24 50,61 68,98 19,43 25,86 25,129 0,43 -6,92 -25,129 -18,37 -43,74 -74,105 -55,61 -135,98 -233,98 -44,0 -87,-12 -130,-24 -37,-19 -73,-43 -104,-68 -31,-37 -56,-68 -68,-111 -18,-37 -24,-80 -24,-129 0,-49 6,-92 24,-129 12,-37 37,-74 68,-105 61,-61 141,-98 234,-98 49,0 92,12 129,25 37,18 74,43 98,67l12 13 0 0zm5014 98c18,-37 43,-74 68,-98l12 -13c25,-24 61,-49 98,-67 43,-13 86,-25 130,-25 92,0 178,37 233,98 31,31 56,68 68,105 18,37 31,80 31,129 0,49 -13,92 -25,129 -18,43 -43,74 -68,111 -30,25 -67,49 -110,68 -37,12 -80,24 -129,24 -93,0 -179,-37 -234,-98 -31,-31 -56,-68 -74,-105 -12,-37 -25,-86 -25,-129 0,-43 13,-86 25,-129zm-3832 0c18,-37 36,-74 67,-98l13 -13c24,-24 61,-49 98,-67 37,-13 80,-25 129,-25 92,0 172,37 234,98 31,31 55,68 68,105 18,37 24,80 24,129 0,49 -6,92 -24,129 -13,43 -37,74 -68,111 -31,25 -68,49 -105,68 -43,12 -86,24 -129,24 -98,0 -178,-37 -234,-98 -30,-31 -55,-68 -73,-105 -19,-37 -25,-86 -25,-129 0,-43 6,-86 25,-129l0 0zm2682 -3150l-6380 0c-1236,0 -2239,-1002 -2239,-2233 0,-1070 751,-1962 1753,-2183 -18,-1428 1114,-2590 2541,-2590 1212,0 2221,849 2479,1981 1144,-640 2553,258 2467,1562 683,252 1169,904 1169,1673 0,991 -800,1790 -1790,1790l0 0z"/>
   <rect class="fil1" width="19685" height="19685"/>
  </g>
 </g>
</svg>
