<?xml version="1.0" encoding="UTF-8"?>
<!DOCTYPE svg PUBLIC "-//W3C//DTD SVG 1.1//EN" "http://www.w3.org/Graphics/SVG/1.1/DTD/svg11.dtd">
<!-- Creator: CorelDRAW X7 -->
<svg xmlns="http://www.w3.org/2000/svg" xml:space="preserve" width="1.9685in" height="1.9685in" version="1.1" style="shape-rendering:geometricPrecision; text-rendering:geometricPrecision; image-rendering:optimizeQuality; fill-rule:evenodd; clip-rule:evenodd"
viewBox="0 0 19685 19685"
 xmlns:xlink="http://www.w3.org/1999/xlink">
 <defs>
  <style type="text/css">
   <![CDATA[
    .fil0 {fill:none}
    .fil1 {fill:black}
   ]]>
  </style>
 </defs>
 <g id="Layer_x0020_1">
  <metadata id="CorelCorpID_0Corel-Layer"/>
  <g id="_2125130687344">
   <rect class="fil0" width="19685" height="19685"/>
   <path class="fil1" d="M15198 12422l-2846 0 0 2205 -2571 -2205 -5294 0 0 -7364 10711 0 0 7364zm-2011 -3514l0 -335 -6690 0 0 335 6690 0zm0 1675l0 -335 -6690 0 0 335 6690 0zm0 -3686l0 335 -6690 0 0 -335 6690 0zm1676 -1504l-10042 0 0 6695 5083 0 2114 1811 0 -1811 2845 0 0 -6695z"/>
  </g>
 </g>
</svg>
