<?xml version="1.0" encoding="UTF-8"?>
<!DOCTYPE svg PUBLIC "-//W3C//DTD SVG 1.1//EN" "http://www.w3.org/Graphics/SVG/1.1/DTD/svg11.dtd">
<!-- Creator: CorelDRAW X7 -->
<svg xmlns="http://www.w3.org/2000/svg" xml:space="preserve" width="100%" height="100%" version="1.1" style="shape-rendering:geometricPrecision; text-rendering:geometricPrecision; image-rendering:optimizeQuality; fill-rule:evenodd; clip-rule:evenodd"
viewBox="0 0 3200 3200"
 xmlns:xlink="http://www.w3.org/1999/xlink">
 <defs>
  <style type="text/css">
   <![CDATA[
    .fil1 {fill:none}
    .fil0 {fill:black}
   ]]>
  </style>
 </defs>
 <g id="Layer_x0020_1">
  <metadata id="CorelCorpID_0Corel-Layer"/>
  <path class="fil0" d="M769 1212l471 0 0 776 -471 0 0 -776zm775 1025l443 0 0 -83 499 0 0 222 -499 0 0 -84 -498 0 0 -332 0 -63 0 -269 -194 0 0 55 0 360 -581 0 0 -886 581 0 0 415 194 0 0 -269 0 -63 0 -332 498 0 0 -84 499 0 0 222 -499 0 0 -83 -443 0 0 277 443 0 0 -83 499 0 0 221 -499 0 0 -83 -443 0 0 8 0 269 443 0 0 -83 499 0 0 222 -499 0 0 -83 -443 0 0 269 0 8 443 0 0 -83 499 0 0 221 -499 0 0 -83 -443 0 0 277zm499 -1246l0 -111 388 0 0 111 -388 0zm0 1218l0 111 388 0 0 -111 -388 0zm0 -554l0 -110 388 0 0 110 -388 0zm0 222l388 0 0 111 -388 0 0 -111zm388 -554l-388 0 0 -111 388 0 0 111z"/>
  <rect class="fil1" width="3200" height="3200"/>
 </g>
</svg>
