<?xml version="1.0" encoding="UTF-8"?>
<!DOCTYPE svg PUBLIC "-//W3C//DTD SVG 1.1//EN" "http://www.w3.org/Graphics/SVG/1.1/DTD/svg11.dtd">
<!-- Creator: CorelDRAW X7 -->
<svg xmlns="http://www.w3.org/2000/svg" xml:space="preserve" width="100%" height="100%" version="1.1" style="shape-rendering:geometricPrecision; text-rendering:geometricPrecision; image-rendering:optimizeQuality; fill-rule:evenodd; clip-rule:evenodd"
viewBox="0 0 3200 3200"
 xmlns:xlink="http://www.w3.org/1999/xlink">
 <defs>
  <style type="text/css">
   <![CDATA[
    .fil0 {fill:none}
    .fil1 {fill:black}
   ]]>
  </style>
 </defs>
 <g id="Layer_x0020_1">
  <metadata id="CorelCorpID_0Corel-Layer"/>
  <rect class="fil0" width="3200" height="3200"/>
  <path class="fil1" d="M1307 1841l0 -55c147,5 436,39 718,205 226,133 341,246 399,319l0 -471 128 0 0 -478 -128 0 0 -471c-58,73 -173,186 -399,319 -282,166 -571,200 -718,205l0 -54 -85 0 -428 0 0 56 -146 0 0 368 146 0 0 57 123 0 76 456 229 0 37 0 -37 -221 -39 -235 39 0 85 0zm0 -111l0 -260c85,-4 217,-15 369,-56 118,-32 248,-81 377,-157 100,-59 180,-114 243,-165 26,-21 51,-43 72,-62l0 1140c-21,-19 -46,-41 -72,-62 -63,-50 -143,-106 -243,-165 -129,-76 -259,-125 -377,-157 -151,-41 -284,-52 -369,-56zm-180 111l69 400 -154 1 -68 -401 153 0zm1297 -58l0 -366 73 0 0 366 -73 0zm-1202 2l-372 0 0 -1 0 -369 372 0 29 0 0 370 -29 0zm-428 -313l0 257 -91 0 0 -257 91 0z"/>
 </g>
</svg>
