<?xml version="1.0" encoding="UTF-8"?>
<!DOCTYPE svg PUBLIC "-//W3C//DTD SVG 1.1//EN" "http://www.w3.org/Graphics/SVG/1.1/DTD/svg11.dtd">
<!-- Creator: CorelDRAW X7 -->
<svg xmlns="http://www.w3.org/2000/svg" xml:space="preserve" width="1.9685in" height="1.9685in" version="1.1" style="shape-rendering:geometricPrecision; text-rendering:geometricPrecision; image-rendering:optimizeQuality; fill-rule:evenodd; clip-rule:evenodd"
viewBox="0 0 19685 19685"
 xmlns:xlink="http://www.w3.org/1999/xlink">
 <defs>
  <style type="text/css">
   <![CDATA[
    .fil0 {fill:none}
    .fil1 {fill:black}
   ]]>
  </style>
 </defs>
 <g id="Layer_x0020_1">
  <metadata id="CorelCorpID_0Corel-Layer"/>
  <g id="_1883985042208">
   <rect class="fil0" width="19685" height="19685"/>
   <path class="fil1" d="M9147 12039l1384 0 0 2128c-301,74 -510,351 -510,658 0,382 301,689 683,689 381,0 683,-301 683,-689 0,-313 -210,-584 -511,-658l0 -2128 1378 0 0 2959 1802 0c31,123 99,233 179,319 123,117 295,197 486,197 190,0 363,-80 486,-197 117,-129 197,-301 197,-492 0,-190 -80,-363 -197,-480 -123,-123 -296,-203 -486,-203 -191,0 -363,80 -486,203 -80,80 -148,191 -179,308l-1458 0 0 -2614 1440 0 0 -3181 947 948 246 -240 -5388 -5395 -5395 5395 246 240 1045 -1040 0 3273 1341 0 0 2614 -1451 0c-80,-295 -357,-511 -665,-511 -381,0 -683,302 -683,683 0,388 302,689 683,689 314,0 585,-209 665,-516l1796 0 0 -2959 1378 0 0 2128c-302,74 -511,345 -511,658 0,388 302,689 683,689 382,0 683,-307 683,-689 0,-307 -209,-584 -511,-658l0 -2128 0 0zm1729 -345l-2073 0 0 -2651 2073 0 0 2651zm-2418 0l-2374 0 0 -3279 3759 -3752 3857 3857 -7 0 0 3174 -2473 0 0 -2996 -2762 0 0 2996zm6263 2805c184,0 326,142 326,326 0,197 -142,332 -326,332 -191,0 -332,-147 -332,-332 0,-178 147,-326 332,-326zm-10083 326c0,-184 142,-326 326,-326 185,0 332,148 332,326 0,185 -141,332 -332,332 -190,0 -326,-141 -326,-332zm4011 0c0,-184 142,-326 326,-326 185,0 332,148 332,326 0,185 -141,332 -332,332 -191,0 -326,-141 -326,-332zm2055 -326c184,0 326,142 326,326 0,191 -136,332 -326,332 -191,0 -332,-147 -332,-332 0,-178 147,-326 332,-326z"/>
  </g>
 </g>
</svg>
