<?xml version="1.0" encoding="UTF-8"?>
<!DOCTYPE svg PUBLIC "-//W3C//DTD SVG 1.1//EN" "http://www.w3.org/Graphics/SVG/1.1/DTD/svg11.dtd">
<!-- Creator: CorelDRAW X7 -->
<svg xmlns="http://www.w3.org/2000/svg" xml:space="preserve" width="1.9685in" height="1.9685in" version="1.1" style="shape-rendering:geometricPrecision; text-rendering:geometricPrecision; image-rendering:optimizeQuality; fill-rule:evenodd; clip-rule:evenodd"
viewBox="0 0 19685 19685"
 xmlns:xlink="http://www.w3.org/1999/xlink">
 <defs>
  <style type="text/css">
   <![CDATA[
    .fil0 {fill:none}
    .fil1 {fill:black}
   ]]>
  </style>
 </defs>
 <g id="Layer_x0020_1">
  <metadata id="CorelCorpID_0Corel-Layer"/>
  <g id="_2125125587616">
   <rect class="fil0" width="19685" height="19685"/>
   <g>
    <path class="fil1" d="M13481 4296l-2 0c-417,0 -812,131 -1144,381l-2271 2271c-368,375 -570,849 -569,1335 0,265 54,522 159,763 10,23 21,46 32,69l312 -153c-9,-18 -18,-37 -26,-55l-159 69 159 -69c-86,-197 -130,-407 -130,-625 -1,-394 166,-783 468,-1091l2243 -2244c269,-200 590,-304 926,-304l2 0c415,0 807,161 1102,454 295,295 456,686 457,1102 0,337 -105,657 -303,927l-2071 2072 -16 19c-298,397 -752,626 -1247,626l-2 0c-216,0 -425,-44 -622,-130l-138 318c240,105 496,158 761,158l1 0c601,0 1153,-275 1517,-754l2071 -2073 16 -18c248,-333 380,-729 380,-1146 0,-509 -199,-986 -559,-1346 -361,-360 -839,-556 -1347,-556z"/>
    <path class="fil1" d="M9713 10779c87,196 131,406 131,624 0,337 -105,656 -304,926l-2070 2072 -16 17c-298,398 -753,625 -1248,625l-1 0c-416,0 -808,-161 -1102,-455 -295,-295 -457,-686 -457,-1102 -1,-396 165,-783 468,-1091l2242 -2246c270,-200 590,-306 927,-306l1 0c217,0 426,44 622,129l139 -317c-241,-106 -497,-159 -761,-159l-2 0c-416,0 -811,133 -1143,383l-2272 2272c-367,374 -569,849 -569,1335 0,509 199,987 560,1347 360,360 839,556 1347,556l1 0c602,0 1154,-273 1518,-752l2070 -2072 16 -19c249,-332 381,-728 380,-1144 0,-265 -53,-521 -159,-762l-318 139z"/>
    <polygon class="fil1" points="8161,11282 11279,8159 11524,8404 8407,11526 "/>
   </g>
  </g>
 </g>
</svg>
