<?xml version="1.0" encoding="UTF-8"?>
<!DOCTYPE svg PUBLIC "-//W3C//DTD SVG 1.1//EN" "http://www.w3.org/Graphics/SVG/1.1/DTD/svg11.dtd">
<!-- Creator: CorelDRAW X7 -->
<svg xmlns="http://www.w3.org/2000/svg" xml:space="preserve" width="1.9685in" height="1.9685in" version="1.1" style="shape-rendering:geometricPrecision; text-rendering:geometricPrecision; image-rendering:optimizeQuality; fill-rule:evenodd; clip-rule:evenodd"
viewBox="0 0 19685 19685"
 xmlns:xlink="http://www.w3.org/1999/xlink">
 <defs>
  <style type="text/css">
   <![CDATA[
    .fil0 {fill:none}
    .fil1 {fill:black}
   ]]>
  </style>
 </defs>
 <g id="Layer_x0020_1">
  <metadata id="CorelCorpID_0Corel-Layer"/>
  <g id="_2124918764224">
   <rect class="fil0" width="19685" height="19685"/>
   <path class="fil1" d="M15402 9842c-5,-1483 -583,-2879 -1632,-3927 -1048,-1049 -2444,-1627 -3927,-1632 -1484,5 -2880,583 -3928,1632 -1049,1048 -1627,2444 -1632,3928 5,1483 583,2879 1632,3927 1048,1049 2444,1627 3927,1632 1484,-5 2880,-583 3928,-1632 1049,-1048 1627,-2444 1632,-3928zm-8401 214l0 -428 2628 1 -1 -2628 428 0 0 2628 2630 2 -2 425 -2628 0 0 2628 -425 2 -2 -2630 -2628 0zm-843 3471c-983,-983 -1527,-2293 -1527,-3684 0,-1392 544,-2702 1527,-3685 983,-983 2293,-1527 3684,-1527 1392,0 2702,544 3685,1527 983,983 1527,2293 1527,3685 0,1391 -544,2701 -1527,3684 -983,983 -2293,1527 -3685,1527 -1391,0 -2701,-544 -3684,-1527z"/>
  </g>
 </g>
</svg>
