<?xml version="1.0" encoding="UTF-8"?>
<!DOCTYPE svg PUBLIC "-//W3C//DTD SVG 1.1//EN" "http://www.w3.org/Graphics/SVG/1.1/DTD/svg11.dtd">
<!-- Creator: CorelDRAW X7 -->
<svg xmlns="http://www.w3.org/2000/svg" xml:space="preserve" width="1.9685in" height="1.9685in" version="1.1" style="shape-rendering:geometricPrecision; text-rendering:geometricPrecision; image-rendering:optimizeQuality; fill-rule:evenodd; clip-rule:evenodd"
viewBox="0 0 19685 19685"
 xmlns:xlink="http://www.w3.org/1999/xlink">
 <defs>
  <style type="text/css">
   <![CDATA[
    .fil0 {fill:none}
    .fil1 {fill:black}
   ]]>
  </style>
 </defs>
 <g id="Layer_x0020_1">
  <metadata id="CorelCorpID_0Corel-Layer"/>
  <g id="_2125127439856">
   <rect class="fil0" width="19685" height="19685"/>
   <path class="fil1" d="M9323 12370c0,310 0,616 0,926 -590,0 -1180,0 -1770,0 0,-310 0,-616 0,-926 590,0 1180,0 1770,0zm667 -1675c715,-34 1369,-321 1873,-772l243 0 243 0 150 0 0 274 0 1016 0 3521 -2509 0c0,-1346 0,-2692 0,-4039zm-295 0c0,1346 0,2693 0,4039l-2509 0 0 -3451 0 -1086 0 -274 150 0 246 0 245 0c499,450 1151,737 1868,772zm2452 -1067c451,-528 720,-1206 720,-1951 0,-584 -166,-1133 -456,-1598 -548,-880 -1531,-1423 -2566,-1423 -1040,0 -2018,543 -2571,1423 -285,465 -456,1014 -456,1598 0,745 269,1423 720,1951l-585 0c-476,0 -968,191 -1319,507 -399,362 -647,879 -647,1459 0,1143 0,2292 0,3435l9711 0c0,-1143 0,-2292 0,-3435 0,-580 -248,-1097 -647,-1459 -351,-316 -843,-507 -1319,-507l-585 0zm-2302 -4677c1501,0 2727,1221 2727,2726 0,1501 -1226,2727 -2727,2727 -1505,0 -2732,-1226 -2732,-2727 0,-1505 1227,-2726 2732,-2726zm4527 6317l0 0c-83,-414 -315,-776 -641,-1019 -192,-135 -383,-228 -606,-280 -108,-26 -222,-41 -336,-46l0 4811 0 0 1619 0c0,0 0,-2876 0,-3140 0,-114 -15,-223 -36,-326l0 0zm-4527 -1164c1304,0 2370,-1035 2370,-2313 0,-610 -249,-1102 -714,-1428 -844,-590 -2473,-590 -3317,0 -465,326 -714,818 -714,1428 0,1278 1066,2313 2375,2313zm0 -3891c611,0 1128,135 1490,388 388,274 590,673 590,1190 0,1112 -936,2018 -2080,2018 -1148,0 -2080,-906 -2080,-2018 0,-517 197,-916 585,-1190 367,-253 879,-388 1495,-388zm-4400 4660c112,-235 278,-439 480,-598 12,-9 23,-18 35,-26l6 -5c262,-192 582,-310 930,-321l0 0 5 0 0 4811 -5 0 -1614 0 0 -2524c0,-486 -48,-898 163,-1337zm2403 2128l1180 0 0 -336 -1180 0 0 336z"/>
  </g>
 </g>
</svg>
