<?xml version="1.0" encoding="UTF-8"?>
<!DOCTYPE svg PUBLIC "-//W3C//DTD SVG 1.1//EN" "http://www.w3.org/Graphics/SVG/1.1/DTD/svg11.dtd">
<!-- Creator: CorelDRAW X7 -->
<svg xmlns="http://www.w3.org/2000/svg" xml:space="preserve" width="1.9685in" height="1.9685in" version="1.1" style="shape-rendering:geometricPrecision; text-rendering:geometricPrecision; image-rendering:optimizeQuality; fill-rule:evenodd; clip-rule:evenodd"
viewBox="0 0 19685 19685"
 xmlns:xlink="http://www.w3.org/1999/xlink">
 <defs>
  <style type="text/css">
   <![CDATA[
    .fil0 {fill:none}
    .fil1 {fill:black}
   ]]>
  </style>
 </defs>
 <g id="Layer_x0020_1">
  <metadata id="CorelCorpID_0Corel-Layer"/>
  <g id="_1884004753424">
   <g id="_892000983584">
    <rect class="fil0" width="19685" height="19685"/>
    <path class="fil1" d="M5914 5914c-1050,1050 -1627,2444 -1627,3929 0,1484 577,2880 1627,3930 1050,1049 2444,1627 3928,1625 1485,0 2879,-576 3929,-1627 1050,-1048 1627,-2444 1627,-3928 2,-1485 -577,-2879 -1625,-3929 -1050,-1050 -2446,-1627 -3931,-1627 -1484,0 -2878,577 -3928,1627zm1601 2936c0,1252 1045,2271 2333,2271 1277,0 2321,-1019 2321,-2271 0,-598 -242,-1081 -700,-1400 -825,-577 -2427,-577 -3254,0 -455,319 -700,802 -700,1400l0 0zm2333 1983c-1131,0 -2044,-892 -2044,-1983 0,-508 192,-898 573,-1165 360,-250 862,-381 1471,-381 598,0 1106,131 1460,381 381,267 579,657 579,1165 0,1091 -920,1983 -2039,1983l0 0zm0 583c-1481,0 -2683,-1208 -2683,-2677 0,-1475 1202,-2673 2683,-2673 1470,0 2671,1198 2671,2673 0,1469 -1201,2677 -2671,2677zm-2971 -2677c0,730 263,1394 704,1915l-573 0c-466,0 -948,189 -1292,498 -275,250 -477,575 -574,944 -332,-694 -509,-1459 -509,-2253 0,-1391 542,-2700 1527,-3683 983,-985 2292,-1527 3683,-1527 1392,0 2700,542 3684,1527 983,983 1525,2290 1525,3683 0,794 -175,1559 -509,2255 -96,-371 -298,-696 -573,-946 -345,-309 -827,-498 -1293,-498l-573 0c441,-521 704,-1184 704,-1915 0,-573 -161,-1110 -446,-1568 -537,-861 -1500,-1394 -2514,-1394 -1025,0 -1982,533 -2525,1394 -278,458 -446,995 -446,1568l0 0zm-1504 3784c14,-219 54,-432 160,-652 111,-227 275,-430 471,-582 11,-10 21,-20 31,-25l9 -6c254,-192 570,-304 908,-313l6 0 0 3238c-285,-190 -552,-408 -798,-656 -306,-306 -570,-642 -787,-1004l0 0zm1864 1833l0 -2085 0 -1057 0 -269 146 0 244 0 238 0c493,436 1131,719 1835,755l0 3350c-879,-23 -1721,-263 -2463,-694zm2754 694l0 -3350c698,-36 1338,-315 1834,-755l239 0 238 0 146 0 0 269 0 992 0 2150c-742,431 -1580,671 -2457,694l0 0zm2742 -871l0 -3235c111,4 223,20 329,47 219,50 406,140 594,273 319,238 546,592 629,998 15,81 29,165 33,254 -218,363 -483,704 -791,1011 -246,246 -511,464 -794,652l0 0z"/>
   </g>
  </g>
 </g>
</svg>
