<?xml version="1.0" encoding="UTF-8"?>
<!DOCTYPE svg PUBLIC "-//W3C//DTD SVG 1.1//EN" "http://www.w3.org/Graphics/SVG/1.1/DTD/svg11.dtd">
<!-- Creator: CorelDRAW X7 -->
<svg xmlns="http://www.w3.org/2000/svg" xml:space="preserve" width="100%" height="100%" version="1.1" style="shape-rendering:geometricPrecision; text-rendering:geometricPrecision; image-rendering:optimizeQuality; fill-rule:evenodd; clip-rule:evenodd"
viewBox="0 0 27093 49445"
 xmlns:xlink="http://www.w3.org/1999/xlink">
 <defs>
  <style type="text/css">
   <![CDATA[
    .fil0 {fill:#8480BC}
    .fil6 {fill:#5C56A2}
    .fil5 {fill:#BDADFF}
    .fil9 {fill:#D4D4D6}
    .fil8 {fill:#D6D5D7}
    .fil1 {fill:#FCE9CA}
    .fil3 {fill:white}
    .fil4 {fill:#BDADFF;fill-rule:nonzero}
    .fil7 {fill:#F1D59E;fill-rule:nonzero}
    .fil2 {fill:#FCE9CA;fill-rule:nonzero}
    .fil10 {fill:white;fill-rule:nonzero}
   ]]>
  </style>
 </defs>
 <g id="Layer_x0020_1">
  <metadata id="CorelCorpID_0Corel-Layer"/>
  <g id="_2717336663360">
   <g>
    <rect class="fil0" width="27093" height="49445"/>
    <g>
     <path class="fil1" d="M16347 36980c0,-18 -14,-32 -31,-32 -18,0 -31,14 -31,32 0,17 13,31 31,31 17,0 31,-14 31,-31z"/>
     <path class="fil1" d="M20719 34206c0,-26 -21,-47 -47,-47 -26,0 -47,21 -47,47 0,26 21,47 47,47 26,0 47,-21 47,-47z"/>
     <path class="fil1" d="M21180 36528c0,-26 -21,-47 -47,-47 -26,0 -47,21 -47,47 0,26 21,47 47,47 26,0 47,-21 47,-47z"/>
     <path class="fil1" d="M6762 36712c0,-26 -21,-47 -47,-47 -26,0 -47,21 -47,47 0,25 21,46 47,46 26,0 47,-21 47,-46z"/>
     <path class="fil1" d="M3382 38953c0,-26 -21,-47 -47,-47 -26,0 -47,21 -47,47 0,26 21,47 47,47 26,0 47,-21 47,-47z"/>
     <path class="fil1" d="M22311 37325c0,-40 -32,-72 -72,-72 -40,0 -72,32 -72,72 0,40 32,72 72,72 40,0 72,-32 72,-72z"/>
     <path class="fil1" d="M6605 37399c0,-39 -32,-71 -72,-71 -40,0 -72,32 -72,71 0,40 32,72 72,72 40,0 72,-32 72,-72z"/>
     <path class="fil1" d="M9766 37642c0,-40 -32,-72 -71,-72 -40,0 -72,32 -72,72 0,40 32,72 72,72 39,0 71,-32 71,-72z"/>
     <path class="fil1" d="M22114 38472c0,-40 -32,-72 -72,-72 -39,0 -71,32 -71,72 0,39 32,71 71,71 40,0 72,-32 72,-71z"/>
     <path class="fil1" d="M6125 28854c0,-26 -21,-47 -47,-47 -25,0 -46,21 -46,47 0,26 21,47 46,47 26,0 47,-21 47,-47z"/>
     <path class="fil1" d="M5038 28532c0,-40 -32,-72 -72,-72 -39,0 -71,32 -71,72 0,40 32,72 71,72 40,0 72,-32 72,-72z"/>
     <path class="fil1" d="M12119 35028c0,-26 -21,-47 -47,-47 -26,0 -47,21 -47,47 0,26 21,47 47,47 26,0 47,-21 47,-47z"/>
     <path class="fil1" d="M17037 31566c0,-26 -21,-47 -47,-47 -26,0 -47,21 -47,47 0,26 21,47 47,47 26,0 47,-21 47,-47z"/>
     <path class="fil1" d="M15186 27040c0,-19 -15,-35 -35,-35 -19,0 -34,16 -34,35 0,19 15,35 34,35 20,0 35,-16 35,-35z"/>
     <path class="fil1" d="M6302 40143c0,-26 -21,-47 -47,-47 -26,0 -47,21 -47,47 0,26 21,47 47,47 26,0 47,-21 47,-47z"/>
     <path class="fil1" d="M5623 39776c0,-17 -14,-31 -31,-31 -18,0 -31,14 -31,31 0,17 13,31 31,31 17,0 31,-14 31,-31z"/>
     <g>
      <path class="fil2" d="M17646 44134c0,0 -5,225 123,261 128,36 565,-218 565,-218l-582 -146 -106 103z"/>
      <path class="fil3" d="M17618 43284c0,0 -82,-307 -82,-442 0,-135 69,-418 106,-537 0,0 176,-98 274,37 0,0 -36,397 0,504 37,106 86,262 86,262l-295 260 -89 -84z"/>
      <path class="fil1" d="M17642 42305c0,0 -53,-196 -29,-253 25,-58 58,98 58,98 0,0 12,-201 49,-201 37,0 20,205 20,205 0,0 4,-205 41,-205 37,0 25,197 25,197 0,0 43,-156 77,-160 33,-4 0,184 0,184 0,0 50,-16 99,-43 49,-26 41,88 -66,215l-274 -37z"/>
      <path class="fil4" d="M17952 42342c0,-10 -5,-21 -14,-28 -158,-119 -306,-43 -312,-40 -18,9 -24,31 -15,48 9,17 30,24 47,15 5,-3 116,-57 237,34 16,12 38,8 50,-7 5,-7 7,-14 7,-22z"/>
      <path class="fil5" d="M17541 42765c0,0 240,-19 362,0 0,0 35,17 13,81 0,0 -184,100 -373,86 0,0 -42,-74 -2,-167z"/>
      <path class="fil4" d="M18007 43118l-10 -21c-209,98 -288,210 -292,215l20 13c1,-1 79,-111 282,-207z"/>
      <path class="fil3" d="M17699 43337c0,0 303,-405 873,-286 0,0 171,-348 266,-438 94,-91 483,-193 483,-193 0,0 73,-192 196,-209 123,-16 127,340 0,533 0,0 -311,118 -413,143l-70 315 35 -4c59,-11 122,-18 186,-20 0,0 230,0 442,131 0,0 308,-86 434,28 127,115 -171,356 -483,328 0,0 -233,-103 -335,-94l-471 221c0,0 -86,117 -348,114l-656 25 -139 -594z"/>
      <path class="fil6" d="M18116 43308c44,0 79,-36 79,-79 0,-44 -35,-80 -79,-80 -44,0 -80,36 -80,80 0,43 36,79 80,79z"/>
      <path class="fil4" d="M19770 43451c0,-14 -1,-26 -2,-37 -9,-74 -39,-123 -41,-125 -10,-16 -32,-21 -49,-10 -16,10 -21,32 -10,49 4,6 93,153 -47,314 -12,14 -11,37 4,50 15,12 37,11 50,-4 76,-87 95,-172 95,-237z"/>
      <path class="fil5" d="M19354 43577c101,-119 101,-378 43,-389 -46,-18 -104,-13 -104,-13 -108,185 -2,399 -2,399 0,0 23,14 63,3z"/>
      <path class="fil4" d="M18877 43792c0,-8 -2,-15 -7,-21 -7,-11 -185,-264 -15,-511 11,-16 7,-38 -9,-49 -16,-11 -38,-7 -49,9 -200,289 14,590 16,593 12,15 34,19 50,7 9,-6 14,-17 14,-28z"/>
      <path class="fil4" d="M19553 42744c0,-3 -1,-6 -1,-9 -82,-331 -214,-349 -229,-350 -19,-2 -36,13 -38,33 -1,18 13,35 32,37 4,1 99,25 166,297 5,19 24,31 43,26 16,-4 27,-18 27,-34z"/>
      <path class="fil5" d="M18778 42687c0,0 191,183 326,200 135,16 -163,-337 -163,-337 0,0 -121,-1 -163,137z"/>
      <path class="fil4" d="M18849 43259c0,-15 -10,-29 -25,-33 -178,-55 -217,-180 -218,-185 -6,-19 -26,-30 -44,-24 -19,5 -30,24 -25,43 2,7 50,167 266,233 19,6 39,-4 44,-23 1,-4 2,-7 2,-11z"/>
      <polygon class="fil4" points="19036,43214 19032,43190 18792,43229 18796,43252 "/>
      <path class="fil3" d="M17394 44251c286,0 518,-235 518,-525 0,-290 -232,-525 -518,-525 -286,0 -518,235 -518,525 0,290 232,525 518,525z"/>
      <path class="fil6" d="M17872 43800c8,-35 12,-72 12,-110 0,-270 -215,-489 -482,-489 -122,0 -233,46 -318,122l-4 4c-13,13 -10,34 5,43 66,36 197,164 144,597 -4,26 15,49 41,51 119,11 430,16 596,-194l6 -24z"/>
      <path class="fil1" d="M19026 44174c0,0 281,-39 331,-77 50,-37 -109,-32 -109,-32 0,0 192,-59 184,-95 -9,-36 -204,28 -204,28 0,0 198,-52 189,-88 -8,-36 -196,22 -196,22 0,0 141,-78 137,-112 -4,-34 -179,43 -179,43 0,0 4,-52 18,-106 15,-54 -95,-19 -193,114l22 303z"/>
      <path class="fil3" d="M17839 44046c0,0 -21,-262 192,-320 0,0 205,37 463,180 0,0 73,25 200,9 127,-17 303,-54 303,-54 0,0 90,105 29,313 0,0 -291,138 -561,113 -270,-24 -626,-241 -626,-241z"/>
      <path class="fil4" d="M19103 44030c0,-88 -42,-155 -75,-185 -15,-13 -37,-12 -51,2 -13,14 -12,37 2,50 5,4 105,102 16,259 -10,17 -4,39 13,49 18,9 39,3 49,-14 33,-58 46,-113 46,-161z"/>
      <path class="fil5" d="M18585 43920c0,0 -5,330 -120,367 0,0 56,18 180,-4 0,0 64,-184 -10,-363 0,0 -4,-14 -50,0z"/>
      <path class="fil4" d="M18107 43733c0,-3 0,-6 0,-9 -5,-25 -29,-43 -55,-38 -239,41 -275,257 -260,366 3,26 27,44 53,40 26,-3 44,-27 41,-53 -3,-22 -23,-224 182,-260 23,-4 39,-24 39,-46z"/>
     </g>
     <path class="fil1" d="M9362 41281c17,0 31,-14 31,-31 0,-17 -14,-31 -31,-31 -17,0 -31,14 -31,31 0,17 14,31 31,31z"/>
     <path class="fil1" d="M12135 45653c26,0 47,-21 47,-47 0,-26 -21,-47 -47,-47 -26,0 -47,21 -47,47 0,26 21,47 47,47z"/>
     <path class="fil1" d="M9813 46114c26,0 47,-21 47,-47 0,-26 -21,-47 -47,-47 -26,0 -47,21 -47,47 0,26 21,47 47,47z"/>
     <path class="fil1" d="M18471 47144c40,0 72,-33 72,-72 0,-40 -32,-72 -72,-72 -40,0 -72,32 -72,72 0,39 32,72 72,72z"/>
     <path class="fil1" d="M8664 46366c40,0 72,-32 72,-71 0,-40 -32,-72 -72,-72 -39,0 -71,32 -71,72 0,39 32,71 71,71z"/>
     <path class="fil1" d="M11313 37053c26,0 47,-21 47,-47 0,-26 -21,-47 -47,-47 -26,0 -47,21 -47,47 0,26 21,47 47,47z"/>
     <path class="fil1" d="M14775 41971c26,0 47,-21 47,-47 0,-26 -21,-47 -47,-47 -26,0 -47,21 -47,47 0,26 21,47 47,47z"/>
     <path class="fil1" d="M19301 40120c20,0 35,-15 35,-34 0,-20 -15,-35 -35,-35 -19,0 -35,15 -35,35 0,19 16,34 35,34z"/>
     <g>
      <image x="17844" y="39429" width="76.5" height="76.5" xlink:href="forget-password-back-2_Images\forget-password-back-2_ImgID1.png"/>
     </g>
     <path class="fil7" d="M17713 37564c-21,0 -39,18 -39,39 0,22 18,39 39,39 22,0 39,-17 39,-39 0,-21 -17,-39 -39,-39z"/>
     <path class="fil1" d="M24768 44842c0,-40 -32,-72 -71,-72 -40,0 -72,32 -72,72 0,39 32,72 72,72 39,0 71,-33 71,-72z"/>
     <path class="fil1" d="M23522 23081c0,-40 -32,-72 -72,-72 -39,0 -71,32 -71,72 0,40 32,72 71,72 40,0 72,-32 72,-72z"/>
     <path class="fil1" d="M1767 43526c0,39 -32,72 -72,72 -39,0 -72,-33 -72,-72 0,-40 33,-72 72,-72 40,0 72,32 72,72z"/>
     <path class="fil1" d="M14099 27755c0,40 -32,72 -71,72 -40,0 -72,-32 -72,-72 0,-40 32,-72 72,-72 39,0 71,32 71,72z"/>
     <path class="fil1" d="M14948 21037c0,-26 -21,-47 -47,-47 -26,0 -47,21 -47,47 0,26 21,47 47,47 26,0 47,-21 47,-47z"/>
     <path class="fil1" d="M11568 23279c0,-26 -21,-47 -47,-47 -26,0 -47,21 -47,47 0,25 21,46 47,46 26,0 47,-21 47,-46z"/>
     <path class="fil1" d="M2901 34916c0,-40 -32,-72 -71,-72 -40,0 -72,32 -72,72 0,39 32,71 72,71 39,0 71,-32 71,-71z"/>
     <path class="fil1" d="M13808 24101c0,-17 -13,-31 -31,-31 -17,0 -31,14 -31,31 0,18 14,32 31,32 18,0 31,-14 31,-32z"/>
     <path class="fil1" d="M23492 35282c26,0 47,-21 47,-47 0,-26 -21,-47 -47,-47 -26,0 -47,21 -47,47 0,26 21,47 47,47z"/>
     <path class="fil1" d="M10954 43328c0,40 -32,72 -72,72 -39,0 -71,-32 -71,-72 0,-40 32,-72 71,-72 40,0 72,32 72,72z"/>
     <path class="fil8" d="M14317 39356c99,106 215,258 223,402 10,159 98,303 225,413l-81 114c-174,-67 -322,-215 -332,-389 -11,-174 -250,-366 -250,-366 45,1 131,-81 215,-174z"/>
     <path class="fil3" d="M14540 39758c-8,-144 -124,-296 -223,-402 -76,-81 -143,-134 -143,-134 154,4 631,-643 631,-643 141,63 329,297 338,584 5,175 142,316 248,398l-146 110 146 143 -364 514c-95,-37 -186,-91 -262,-157 -127,-110 -215,-254 -225,-413z"/>
     <polygon class="fil9" points="15391,39814 15245,39671 15391,39561 15391,39688 "/>
    </g>
   </g>
   <path class="fil10" d="M18165 46019c-681,1084 -2240,1686 -3627,1402 -1469,-302 -1831,769 -2122,2007l69 0c291,-1240 634,-2230 2039,-1942 1413,291 3003,-325 3698,-1432 401,-639 424,-1316 73,-1932l-79 0c358,603 343,1268 -51,1897z"/>
  </g>
 </g>
</svg>
