<?xml version="1.0" encoding="UTF-8"?>
<!DOCTYPE svg PUBLIC "-//W3C//DTD SVG 1.1//EN" "http://www.w3.org/Graphics/SVG/1.1/DTD/svg11.dtd">
<!-- Creator: CorelDRAW X7 -->
<svg xmlns="http://www.w3.org/2000/svg" xml:space="preserve" width="100%" height="100%" version="1.1" style="shape-rendering:geometricPrecision; text-rendering:geometricPrecision; image-rendering:optimizeQuality; fill-rule:evenodd; clip-rule:evenodd"
viewBox="0 0 21675 13039"
 xmlns:xlink="http://www.w3.org/1999/xlink">
 <defs>
  <style type="text/css">
   <![CDATA[
    .fil5 {fill:#A6B7DE}
    .fil3 {fill:#686AA2}
    .fil1 {fill:white}
    .fil2 {fill:#FEFEFE;fill-rule:nonzero}
    .fil0 {fill:#686AA2;fill-rule:nonzero}
    .fil8 {fill:#D2AE6D;fill-rule:nonzero}
    .fil6 {fill:#F2D394;fill-rule:nonzero}
    .fil7 {fill:white;fill-rule:nonzero}
    .fil4 {fill:white;fill-rule:nonzero}
   ]]>
  </style>
 </defs>
 <g id="Layer_x0020_1">
  <metadata id="CorelCorpID_0Corel-Layer"/>
  <g id="_2717354060592">
   <g>
    <polygon class="fil0" points="21666,12275 11721,12275 10837,13033 9954,12275 8,12275 8,5 21666,5 "/>
    <circle class="fil1" cx="10837" cy="4578" r="3434"/>
    <path class="fil2" d="M3768 9568l171 0 0 590c0,105 -6,193 -18,264 -12,72 -34,129 -68,173 -34,44 -81,76 -141,95 -60,20 -137,30 -233,30l0 -176c69,0 123,-8 162,-22 39,-15 68,-39 87,-72 20,-33 31,-76 35,-127 3,-52 5,-114 5,-187l0 -568zm1214 709c-5,86 -23,157 -53,214 -31,57 -72,102 -125,135 -52,34 -114,58 -187,72 -72,14 -153,22 -242,22l-88 0 0 -176 65 0c65,0 125,-3 181,-10 56,-6 104,-18 144,-38 40,-19 72,-46 95,-80 23,-35 35,-81 37,-139l-239 0c-58,0 -111,-6 -160,-19 -48,-13 -91,-33 -127,-62 -36,-29 -64,-67 -85,-114 -20,-46 -30,-104 -30,-173 0,-58 9,-114 28,-169 19,-56 47,-104 83,-147 36,-42 80,-76 131,-103 52,-26 110,-39 176,-39 73,0 136,13 186,39 52,27 93,64 125,112 31,48 54,105 68,173 14,68 21,144 21,227l0 99 149 0c57,0 85,29 85,85 0,35 -7,59 -20,72 -13,13 -35,19 -65,19l-153 0zm-645 -385c0,71 21,124 62,158 42,35 103,51 183,51l227 0 0 -139c0,-106 -18,-190 -53,-251 -35,-61 -96,-92 -182,-92 -40,0 -76,8 -105,24 -30,16 -54,38 -74,64 -19,26 -34,55 -43,88 -10,32 -15,64 -15,97zm797 385c-56,0 -84,-28 -84,-85 0,-35 6,-59 20,-71 13,-13 35,-20 64,-20l142 0c34,0 63,-1 87,-4 24,-3 44,-9 60,-20 17,-10 29,-26 36,-46 8,-21 12,-48 12,-84l0 -484 174 0 0 406c0,35 2,67 7,96 5,29 14,53 28,73 15,19 34,35 57,47 24,11 55,16 92,16 56,0 85,29 85,85 0,35 -7,59 -20,72 -14,13 -35,19 -65,19 -55,0 -100,-13 -133,-39 -34,-26 -57,-59 -69,-98 -25,57 -65,95 -119,112 -54,17 -121,25 -200,25l-174 0zm273 315c0,-31 11,-57 33,-79 22,-22 49,-32 80,-32 31,0 57,10 79,32 21,22 32,48 32,79 0,31 -11,58 -32,80 -22,22 -48,33 -79,33 -31,0 -58,-11 -80,-33 -22,-22 -33,-49 -33,-80zm421 -315c-56,0 -85,-28 -85,-85 0,-35 7,-59 20,-71 14,-13 35,-20 65,-20l260 0c-25,-26 -46,-61 -63,-103 -17,-43 -26,-91 -26,-145 0,-73 14,-136 42,-190 28,-54 64,-98 108,-133 44,-35 93,-61 148,-78 54,-17 108,-25 163,-25 50,0 93,2 130,8 37,5 63,11 78,18l0 189c-27,-8 -55,-15 -87,-22 -31,-6 -69,-10 -114,-10 -89,0 -160,22 -212,66 -52,44 -78,104 -78,180 0,71 22,130 67,176 44,46 113,69 206,69l309 0 0 176 -931 0zm2305 0c-47,0 -86,-10 -117,-31 -31,-21 -54,-46 -69,-74 0,101 -6,187 -18,256 -13,70 -35,127 -69,170 -34,43 -80,74 -140,93 -59,19 -136,29 -231,29l0 -176c69,0 123,-8 162,-22 39,-15 67,-39 87,-72 19,-33 31,-76 34,-127 4,-52 5,-114 5,-187l0 -568 172 0 0 301c0,72 13,128 39,170 26,42 74,62 145,62 56,0 84,29 84,85 0,35 -6,59 -20,72 -13,13 -35,19 -64,19zm-386 -1171c0,-31 11,-57 33,-79 22,-22 49,-33 80,-33 31,0 57,11 79,33 21,22 32,48 32,79 0,31 -11,58 -32,80 -22,22 -48,33 -79,33 -31,0 -58,-11 -80,-33 -22,-22 -33,-49 -33,-80zm385 1171c-57,0 -85,-28 -85,-85 0,-35 7,-59 20,-71 13,-13 35,-20 65,-20l86 0c18,0 35,-2 54,-6 18,-4 36,-13 54,-27 19,-14 37,-34 54,-59 18,-24 34,-58 50,-100 32,-90 67,-163 103,-219 35,-56 72,-99 110,-129 37,-30 76,-50 114,-61 39,-10 78,-14 116,-14 52,0 101,10 147,30 46,20 85,49 118,87 33,37 59,82 78,133 19,51 29,109 29,173 0,123 -29,220 -87,290 -58,71 -148,106 -271,106 -68,0 -135,-11 -202,-34 -67,-23 -136,-61 -208,-115 -19,28 -37,51 -57,67 -19,16 -39,28 -60,36 -21,8 -43,13 -66,15 -22,2 -46,3 -71,3l-91 0zm937 -374c0,-31 -4,-62 -14,-92 -8,-30 -22,-56 -40,-78 -18,-22 -39,-40 -64,-54 -26,-13 -55,-20 -89,-20 -59,0 -113,26 -163,79 -50,52 -96,144 -140,275 53,33 105,61 156,81 51,21 104,31 158,31 59,0 106,-17 142,-50 36,-34 54,-91 54,-172zm582 -335l171 0 0 590c0,105 -6,193 -18,264 -12,72 -34,129 -68,173 -34,44 -81,76 -141,95 -60,20 -137,30 -233,30l0 -176c69,0 123,-8 162,-22 39,-15 68,-39 87,-72 20,-33 31,-76 35,-127 3,-52 5,-114 5,-187l0 -568zm2265 709c15,17 29,41 40,71 11,31 16,60 16,88 0,42 -12,84 -37,125 -25,41 -65,77 -119,109 -55,32 -127,57 -215,76 -88,19 -197,28 -325,28 -143,0 -260,-12 -353,-39 -92,-25 -166,-61 -220,-106 -54,-46 -92,-99 -113,-161 -21,-61 -32,-127 -32,-199l0 -327 172 0 0 295c0,125 43,217 129,276 86,58 226,88 421,88 71,0 140,-4 205,-12 65,-7 122,-18 171,-33 49,-15 87,-34 115,-57 28,-23 42,-49 42,-78 0,-33 -16,-62 -50,-87 -33,-25 -73,-48 -122,-68 -49,-19 -101,-36 -156,-51 -55,-15 -103,-29 -145,-41l0 -172c181,66 351,99 509,99l214 0c57,0 85,29 85,85 0,35 -7,59 -20,72 -14,13 -35,19 -65,19l-147 0zm220 -176c47,0 86,-1 118,-4 32,-3 58,-9 77,-20 19,-10 33,-26 41,-46 9,-21 13,-48 13,-84l0 -381 173 0 0 303c0,35 3,67 7,96 5,29 14,53 30,73 16,19 37,35 66,47 28,11 67,16 115,16 31,0 59,-1 82,-4 23,-3 43,-9 58,-20 16,-10 28,-26 35,-46 8,-21 12,-48 12,-84l0 -379 173 0 0 301c0,35 3,67 8,96 5,29 14,53 28,73 13,19 32,35 56,47 24,11 54,16 91,16l178 0 0 -638 173 0 0 814 -351 0c-55,0 -99,-13 -133,-39 -33,-26 -55,-59 -66,-98 -26,57 -66,95 -119,112 -54,17 -119,25 -195,25 -49,0 -90,-4 -121,-12 -32,-8 -59,-18 -80,-31 -21,-13 -37,-28 -49,-46 -12,-17 -22,-34 -31,-51 -12,30 -28,54 -47,71 -20,18 -44,32 -75,43 -30,11 -67,18 -112,21 -44,3 -97,5 -160,5l-70 0c-56,0 -84,-28 -84,-85 0,-35 6,-59 20,-71 13,-13 35,-20 64,-20l75 0zm649 -995c0,-31 11,-57 33,-79 22,-22 49,-33 80,-33 31,0 57,11 79,33 22,22 33,48 33,79 0,31 -11,58 -33,80 -22,22 -48,33 -79,33 -31,0 -58,-11 -80,-33 -22,-22 -33,-49 -33,-80zm275 0c0,-31 11,-57 33,-79 22,-22 49,-33 80,-33 31,0 57,11 79,33 21,22 32,48 32,79 0,31 -11,58 -32,80 -22,22 -48,33 -79,33 -31,0 -58,-11 -80,-33 -22,-22 -33,-49 -33,-80zm-133 -253c0,-31 11,-58 33,-80 22,-22 48,-33 80,-33 31,0 57,11 79,33 21,22 32,49 32,80 0,31 -11,57 -32,79 -22,22 -48,32 -79,32 -32,0 -58,-10 -80,-32 -22,-22 -33,-48 -33,-79zm1785 1424c-5,86 -23,157 -53,214 -31,57 -72,102 -124,135 -53,34 -115,58 -187,72 -73,14 -153,22 -242,22l-89 0 0 -176 65 0c65,0 125,-3 181,-10 56,-6 104,-18 144,-38 41,-19 72,-46 95,-80 23,-35 35,-81 37,-139l-239 0c-58,0 -111,-6 -159,-19 -49,-13 -91,-33 -128,-62 -36,-29 -64,-67 -84,-114 -21,-46 -31,-104 -31,-173 0,-58 9,-114 28,-169 20,-56 47,-104 83,-147 36,-42 80,-76 132,-103 51,-26 110,-39 176,-39 73,0 135,13 186,39 51,27 92,64 124,112 31,48 54,105 69,173 14,68 21,144 21,227l0 99 149 0c56,0 84,29 84,85 0,35 -6,59 -20,72 -13,13 -35,19 -64,19l-154 0zm-644 -385c0,71 20,124 62,158 41,35 102,51 182,51l227 0 0 -139c0,-106 -18,-190 -53,-251 -35,-61 -96,-92 -182,-92 -40,0 -76,8 -105,24 -30,16 -54,38 -74,64 -19,26 -33,55 -43,88 -9,32 -14,64 -14,97zm797 385c-57,0 -85,-28 -85,-85 0,-35 7,-59 20,-71 13,-13 35,-20 65,-20l86 0c18,0 35,-2 54,-6 18,-4 36,-13 54,-27 19,-14 37,-34 54,-59 18,-24 34,-58 50,-100 32,-90 67,-163 103,-219 35,-56 72,-99 110,-129 37,-30 76,-50 114,-61 39,-10 78,-14 116,-14 52,0 101,10 147,30 46,20 85,49 118,87 33,37 59,82 78,133 19,51 29,109 29,173 0,123 -29,220 -87,290 -58,71 -148,106 -271,106 -68,0 -135,-11 -202,-34 -67,-23 -136,-61 -208,-115 -19,28 -37,51 -57,67 -19,16 -39,28 -60,36 -21,8 -43,13 -66,15 -22,2 -46,3 -71,3l-91 0zm937 -374c0,-31 -4,-62 -14,-92 -8,-30 -22,-56 -40,-78 -18,-22 -39,-40 -64,-54 -26,-13 -55,-20 -89,-20 -59,0 -113,26 -163,79 -50,52 -96,144 -140,275 53,33 105,61 156,81 51,21 104,31 158,31 59,0 106,-17 142,-50 36,-34 54,-91 54,-172zm602 -1137l0 1511 -173 0 0 -1511 173 0zm807 1511c-47,0 -86,-10 -117,-31 -31,-21 -54,-46 -69,-74 0,101 -6,187 -18,256 -13,70 -35,127 -69,170 -34,43 -81,74 -140,93 -59,19 -136,29 -231,29l0 -176c69,0 122,-8 162,-22 38,-15 67,-39 87,-72 19,-33 30,-76 34,-127 4,-52 5,-114 5,-187l0 -568 172 0 0 301c0,72 13,128 39,170 26,42 74,62 145,62 56,0 84,29 84,85 0,35 -6,59 -20,72 -13,13 -35,19 -64,19zm348 -426c0,86 25,150 76,190 50,40 112,60 186,60l203 0 0 -212c0,-33 -3,-67 -9,-102 -6,-34 -18,-65 -35,-93 -17,-27 -40,-50 -70,-67 -30,-18 -67,-27 -112,-27 -38,0 -72,7 -102,20 -29,14 -54,32 -75,54 -20,22 -35,49 -46,80 -11,31 -16,63 -16,97zm-350 426c-56,0 -84,-28 -84,-85 0,-35 6,-59 20,-71 13,-13 35,-20 64,-20l241 0c-15,-29 -29,-62 -40,-98 -11,-36 -16,-77 -16,-124 0,-55 8,-109 27,-163 18,-54 45,-101 81,-143 35,-41 78,-75 130,-101 51,-26 111,-39 179,-39 78,0 141,14 191,42 49,28 88,64 117,108 29,44 49,92 60,145 11,52 16,104 16,155l0 394 -986 0zm491 -1171c0,-31 11,-57 33,-79 23,-22 49,-33 80,-33 31,0 57,11 79,33 22,22 33,48 33,79 0,31 -11,58 -33,80 -22,22 -48,33 -79,33 -31,0 -57,-11 -80,-33 -22,-22 -33,-49 -33,-80z"/>
    <path class="fil3" d="M10837 2587c-531,0 -1032,207 -1407,584 -377,375 -584,875 -584,1407 0,531 207,1032 584,1409 375,375 876,582 1407,582 532,0 1032,-207 1410,-582 374,-377 582,-878 582,-1409 0,-532 -208,-1032 -582,-1407 -378,-377 -878,-584 -1410,-584zm0 932c-370,0 -560,126 -560,375l126 0c0,-117 48,-249 434,-249 265,0 437,146 437,373 0,172 -245,333 -340,379 -11,7 -284,148 -284,554l0 64 126 0 0 -64c0,-327 205,-437 214,-441 17,-9 407,-208 407,-492 0,-294 -229,-499 -560,-499l0 0zm-187 1743l126 0 0 249 -126 0 0 -249zm1508 637c-353,353 -822,547 -1321,547 -498,0 -968,-194 -1321,-547 -350,-353 -544,-823 -544,-1321 0,-498 194,-968 544,-1321 353,-351 823,-545 1321,-545 499,0 968,194 1321,545 353,353 547,823 547,1321 0,498 -194,968 -547,1321z"/>
   </g>
   <g>
    <path class="fil4" d="M20782 934c-47,0 -47,73 0,73 47,0 47,-73 0,-73z"/>
    <polygon class="fil5" points="4487,4934 4509,4981 4493,4971 "/>
    <path class="fil2" d="M4222 5804c16,-26 50,-34 75,-18 26,16 34,50 18,76 -16,26 -50,34 -76,18 -25,-16 -33,-50 -17,-76z"/>
    <path class="fil6" d="M4401 7319c16,-26 49,-34 75,-18 26,16 33,51 17,76 -16,26 -49,34 -75,18 -25,-16 -33,-50 -17,-76z"/>
    <path class="fil4" d="M5839 2054c16,-26 50,-34 75,-18 26,16 34,50 18,76 -16,26 -50,34 -76,18 -25,-16 -33,-51 -17,-76z"/>
    <path class="fil4" d="M1274 1065c-16,26 -49,34 -75,18 -25,-16 -33,-50 -17,-76 16,-26 49,-34 75,-18 26,16 33,50 17,76z"/>
    <path class="fil2" d="M3323 3117c-16,26 -50,34 -76,18 -25,-16 -33,-50 -17,-76 16,-26 50,-34 75,-18 26,17 34,51 18,76z"/>
    <path class="fil4" d="M4762 544c-16,26 -50,33 -75,17 -26,-16 -34,-50 -18,-76 16,-26 50,-33 76,-17 25,16 33,50 17,76z"/>
    <path class="fil6" d="M659 4033c-16,26 -50,34 -76,18 -25,-16 -33,-50 -17,-76 16,-26 50,-34 75,-18 26,17 34,51 18,76z"/>
    <path class="fil4" d="M1569 5534c-16,26 -50,33 -75,17 -26,-16 -34,-50 -18,-76 16,-25 50,-33 76,-17 25,16 33,50 17,76z"/>
    <path class="fil4" d="M16681 4646c16,25 50,33 76,17 25,-16 33,-50 17,-76 -16,-26 -50,-34 -75,-17 -26,16 -34,50 -18,76z"/>
    <path class="fil2" d="M7674 1003c16,26 49,33 75,17 25,-16 33,-50 17,-76 -16,-26 -49,-33 -75,-17 -26,16 -33,50 -17,76z"/>
    <path class="fil4" d="M18276 1043c16,26 50,33 75,17 26,-16 34,-50 18,-76 -16,-26 -50,-33 -76,-17 -25,16 -33,50 -17,76z"/>
    <path class="fil4" d="M15904 2813c16,26 49,34 75,18 26,-16 33,-50 17,-76 -16,-26 -49,-34 -75,-18 -25,16 -33,50 -17,76z"/>
    <path class="fil7" d="M13308 1114c15,26 49,34 75,18 25,-16 33,-50 17,-76 -16,-26 -49,-34 -75,-18 -26,16 -33,50 -17,76z"/>
    <path class="fil4" d="M20077 10842c16,26 50,34 76,18 25,-16 33,-50 17,-76 -16,-26 -49,-34 -75,-18 -26,16 -33,50 -18,76z"/>
    <path class="fil2" d="M1815 9461c15,26 49,34 75,18 25,-17 33,-51 17,-76 -16,-26 -49,-34 -75,-18 -26,16 -33,50 -17,76z"/>
    <path class="fil4" d="M6295 7219c119,-4 215,-102 216,-223l2 0c0,121 96,219 215,223 -119,4 -215,102 -215,224l-2 0c0,-122 -96,-220 -216,-224z"/>
    <path class="fil4" d="M20845 7677c-16,26 -50,34 -75,18 -26,-16 -34,-50 -18,-76 16,-26 50,-34 76,-18 25,16 33,50 17,76z"/>
    <path class="fil4" d="M19716 5541c-16,26 -49,33 -75,17 -26,-16 -33,-50 -18,-76 16,-26 50,-34 76,-17 25,16 33,50 17,76z"/>
    <path class="fil4" d="M16333 6174c-16,26 -50,33 -75,17 -26,-16 -34,-50 -18,-76 16,-26 50,-34 75,-17 26,16 34,50 18,76z"/>
    <path class="fil4" d="M20479 8262c-15,26 -49,34 -75,18 -25,-16 -33,-50 -17,-76 16,-26 49,-34 75,-18 26,17 33,51 17,76z"/>
    <path class="fil4" d="M17637 7010c-16,26 -50,33 -75,17 -26,-16 -34,-50 -18,-76 16,-26 50,-34 75,-17 26,16 34,50 18,76z"/>
    <path class="fil2" d="M1499 7880c-16,26 -50,34 -75,18 -26,-16 -34,-50 -18,-76 16,-26 50,-34 75,-18 26,16 34,50 18,76z"/>
    <path class="fil4" d="M19830 3122c192,-6 346,-164 347,-359l3 0c2,195 155,353 347,359 -192,7 -347,166 -347,362l-3 0c0,-196 -154,-355 -347,-362z"/>
    <path class="fil8" d="M1170 11481c18,0 18,28 0,28 -18,0 -18,-28 0,-28z"/>
    <path class="fil8" d="M1461 11467c36,0 36,56 0,56 -36,0 -36,-56 0,-56z"/>
   </g>
  </g>
 </g>
</svg>
