<?xml version="1.0" encoding="UTF-8"?>
<!DOCTYPE svg PUBLIC "-//W3C//DTD SVG 1.1//EN" "http://www.w3.org/Graphics/SVG/1.1/DTD/svg11.dtd">
<!-- Creator: CorelDRAW X7 -->
<svg xmlns="http://www.w3.org/2000/svg" xml:space="preserve" width="100%" height="100%" version="1.1" style="shape-rendering:geometricPrecision; text-rendering:geometricPrecision; image-rendering:optimizeQuality; fill-rule:evenodd; clip-rule:evenodd"
viewBox="0 0 20413 8465"
 xmlns:xlink="http://www.w3.org/1999/xlink">
 <defs>
  <style type="text/css">
   <![CDATA[
    .fil1 {fill:#8EA0D1}
    .fil0 {fill:#E3C582}
    .fil2 {fill:white}
   ]]>
  </style>
 </defs>
 <g id="Layer_x0020_1">
  <metadata id="CorelCorpID_0Corel-Layer"/>
  <g id="_2724831737008">
   <path class="fil0" d="M12945 5251c-48,363 -612,589 -1259,504 -648,-85 -1134,-450 -1086,-814 48,-363 612,-589 1260,-504 647,85 1133,450 1085,814z"/>
   <path class="fil0" d="M6846 2668c184,362 -328,992 -1144,1406 -815,414 -1626,456 -1810,93 -184,-362 328,-992 1144,-1406 816,-414 1626,-456 1810,-93z"/>
   <path class="fil1" d="M5141 3077c737,-374 1468,-444 1738,-186 10,-82 1,-157 -33,-223 -184,-363 -994,-321 -1810,93 -816,414 -1328,1044 -1144,1406 18,35 43,66 72,93 47,-363 511,-845 1177,-1183z"/>
   <path class="fil1" d="M11860 4437c-648,-85 -1212,141 -1260,505 -3,26 -3,52 -1,78 140,-293 648,-463 1223,-387 601,79 1062,398 1087,734 18,-37 31,-76 36,-116 48,-364 -438,-728 -1085,-814z"/>
   <path class="fil2" d="M0 8465l20413 0c-127,-682 -321,-1341 -575,-1969l12 -5c212,-85 316,-326 231,-538l-512 -1282c-85,-212 -326,-315 -538,-231l-242 97c-491,-719 -1069,-1373 -1720,-1946 -241,-212 -491,-413 -750,-602 -1201,-876 -2597,-1501 -4110,-1796 -255,-50 -512,-90 -773,-121 -249,-29 -500,-50 -753,-61 -158,-7 -317,-11 -476,-11 -1037,0 -2038,152 -2982,434 -226,68 -449,143 -668,225l-75 -104c-133,-185 -392,-228 -577,-94l-912 654 -777 558 -31 22c-117,84 -177,219 -172,353 -744,554 -1412,1206 -1984,1936l-159 -84c-203,-107 -453,-29 -559,173l-987 1872c-107,202 -30,453 173,559l62 33c-246,616 -434,1261 -559,1928zm10599 -3445c-2,-26 -2,-52 1,-78 48,-365 612,-590 1260,-505 647,86 1133,450 1085,814 -5,41 -17,80 -35,117 -140,293 -649,463 -1224,387 -601,-79 -1062,-398 -1087,-735zm-3720 -2129c-46,362 -510,845 -1177,1183 -815,414 -1626,456 -1810,93 -184,-362 328,-992 1144,-1406 816,-414 1626,-456 1810,-93 34,66 44,141 33,223z"/>
  </g>
 </g>
</svg>
