<?xml version="1.0" encoding="UTF-8"?>
<!DOCTYPE svg PUBLIC "-//W3C//DTD SVG 1.1//EN" "http://www.w3.org/Graphics/SVG/1.1/DTD/svg11.dtd">
<!-- Creator: CorelDRAW X7 -->
<svg xmlns="http://www.w3.org/2000/svg" xml:space="preserve" width="100%" height="100%" version="1.1" style="shape-rendering:geometricPrecision; text-rendering:geometricPrecision; image-rendering:optimizeQuality; fill-rule:evenodd; clip-rule:evenodd"
viewBox="0 0 23145 41017"
 xmlns:xlink="http://www.w3.org/1999/xlink">
 <defs>
  <style type="text/css">
   <![CDATA[
    .fil1 {fill:#A6B7DE}
    .fil11 {fill:#5C56A2}
    .fil10 {fill:#BDADFF}
    .fil14 {fill:#D4D4D6}
    .fil13 {fill:#D6D5D7}
    .fil6 {fill:#FCE9CA}
    .fil8 {fill:white}
    .fil2 {fill:#FEFEFE;fill-rule:nonzero}
    .fil9 {fill:#BDADFF;fill-rule:nonzero}
    .fil5 {fill:#D2AE6D;fill-rule:nonzero}
    .fil12 {fill:#F1D59E;fill-rule:nonzero}
    .fil3 {fill:#F2D394;fill-rule:nonzero}
    .fil7 {fill:#FCE9CA;fill-rule:nonzero}
    .fil4 {fill:white;fill-rule:nonzero}
    .fil0 {fill:white;fill-rule:nonzero}
   ]]>
  </style>
 </defs>
 <g id="Layer_x0020_1">
  <metadata id="CorelCorpID_0Corel-Layer"/>
  <g id="_2724754269776">
   <g>
    <path class="fil0" d="M21868 475c-47,0 -47,73 0,73 47,0 47,-73 0,-73z"/>
    <polygon class="fil1" points="5573,4475 5595,4522 5579,4512 "/>
    <path class="fil2" d="M5308 5344c16,-26 50,-33 75,-17 26,16 34,50 18,76 -16,26 -50,34 -76,17 -25,-16 -33,-50 -17,-76z"/>
    <path class="fil3" d="M5487 6860c16,-26 49,-34 75,-18 26,16 33,50 17,76 -16,26 -49,34 -75,18 -25,-17 -33,-51 -17,-76z"/>
    <path class="fil0" d="M6925 1594c16,-26 50,-34 75,-17 26,16 34,50 18,76 -16,25 -50,33 -76,17 -25,-16 -33,-50 -17,-76z"/>
    <path class="fil0" d="M2360 606c-16,26 -49,33 -75,17 -25,-16 -33,-50 -17,-76 16,-26 49,-34 75,-17 26,16 33,50 17,76z"/>
    <path class="fil2" d="M4409 2658c-16,26 -50,34 -76,18 -25,-16 -33,-50 -17,-76 16,-26 50,-34 75,-18 26,16 34,50 18,76z"/>
    <path class="fil0" d="M5848 84c-16,26 -50,34 -75,18 -26,-16 -34,-50 -18,-76 16,-26 50,-34 76,-18 25,16 33,50 17,76z"/>
    <path class="fil3" d="M1745 3574c-16,26 -50,34 -76,18 -25,-16 -33,-51 -17,-76 16,-26 50,-34 75,-18 26,16 34,50 18,76z"/>
    <path class="fil0" d="M2655 5074c-16,26 -50,34 -75,18 -26,-16 -34,-50 -18,-76 16,-26 50,-34 76,-18 25,16 33,51 17,76z"/>
    <path class="fil0" d="M17767 4186c16,26 50,34 76,18 25,-16 33,-50 17,-76 -16,-26 -50,-34 -75,-18 -26,16 -34,50 -18,76z"/>
    <path class="fil2" d="M8760 543c16,26 49,34 75,18 25,-16 33,-50 17,-76 -16,-26 -49,-34 -75,-18 -26,16 -33,50 -17,76z"/>
    <path class="fil0" d="M19362 583c16,26 50,34 75,18 26,-16 34,-50 18,-76 -16,-26 -50,-34 -76,-18 -25,16 -33,50 -17,76z"/>
    <path class="fil0" d="M16990 2354c16,26 49,34 75,17 26,-16 33,-50 17,-76 -16,-25 -49,-33 -75,-17 -25,16 -33,50 -17,76z"/>
    <path class="fil4" d="M14394 655c15,26 49,33 75,17 25,-16 33,-50 17,-76 -16,-26 -49,-34 -75,-17 -26,16 -33,50 -17,76z"/>
    <path class="fil0" d="M21163 10383c16,26 50,34 76,17 25,-16 33,-50 17,-76 -16,-25 -49,-33 -75,-17 -26,16 -33,50 -18,76z"/>
    <path class="fil2" d="M2901 9002c15,25 49,33 75,17 25,-16 33,-50 17,-76 -16,-26 -49,-34 -75,-17 -26,16 -33,50 -17,76z"/>
    <path class="fil0" d="M7381 6759c119,-4 215,-102 216,-223l2 0c0,121 96,219 215,223 -119,4 -215,103 -215,225l-2 0c0,-122 -96,-221 -216,-225z"/>
    <path class="fil0" d="M21931 7218c-16,26 -50,34 -75,17 -26,-16 -34,-50 -18,-76 16,-25 50,-33 76,-17 25,16 33,50 17,76z"/>
    <path class="fil0" d="M20802 5081c-16,26 -49,34 -75,18 -26,-16 -33,-50 -18,-76 16,-26 50,-34 76,-18 25,16 33,50 17,76z"/>
    <path class="fil0" d="M17419 5714c-16,26 -50,34 -75,18 -26,-16 -34,-50 -18,-76 16,-26 50,-34 75,-18 26,16 34,50 18,76z"/>
    <path class="fil0" d="M21565 7803c-15,26 -49,34 -75,18 -25,-16 -33,-50 -17,-76 16,-26 49,-34 75,-18 26,16 33,50 17,76z"/>
    <path class="fil0" d="M18723 6550c-16,26 -50,34 -75,18 -26,-16 -34,-50 -18,-76 16,-26 50,-34 75,-18 26,16 34,50 18,76z"/>
    <path class="fil2" d="M2585 7421c-16,26 -50,33 -75,17 -26,-16 -34,-50 -18,-76 16,-26 50,-33 75,-17 26,16 34,50 18,76z"/>
    <path class="fil0" d="M20916 2663c192,-6 346,-164 347,-359l3 0c2,195 155,353 347,359 -192,7 -347,165 -347,361l-3 0c0,-196 -154,-354 -347,-361z"/>
    <path class="fil5" d="M2256 11022c18,0 18,28 0,28 -18,0 -18,-28 0,-28z"/>
    <path class="fil5" d="M2547 11008c36,0 36,56 0,56 -36,0 -36,-56 0,-56z"/>
   </g>
   <g>
    <g>
     <path class="fil6" d="M14723 28569c0,-17 -14,-31 -31,-31 -17,0 -31,14 -31,31 0,17 14,31 31,31 17,0 31,-14 31,-31z"/>
     <path class="fil6" d="M19095 25796c0,-26 -21,-47 -47,-47 -25,0 -46,21 -46,47 0,25 21,46 46,46 26,0 47,-21 47,-46z"/>
     <path class="fil6" d="M19556 28118c0,-26 -21,-47 -47,-47 -25,0 -46,21 -46,47 0,26 21,47 46,47 26,0 47,-21 47,-47z"/>
     <path class="fil6" d="M5139 28301c0,-26 -21,-47 -47,-47 -26,0 -47,21 -47,47 0,26 21,47 47,47 26,0 47,-21 47,-47z"/>
     <path class="fil6" d="M1758 30543c0,-26 -21,-47 -46,-47 -26,0 -47,21 -47,47 0,25 21,46 47,46 25,0 46,-21 46,-46z"/>
     <path class="fil6" d="M20687 28915c0,-40 -32,-72 -71,-72 -40,0 -72,32 -72,72 0,39 32,71 72,71 39,0 71,-32 71,-71z"/>
     <path class="fil6" d="M4981 28989c0,-40 -32,-72 -71,-72 -40,0 -72,32 -72,72 0,40 32,72 72,72 39,0 71,-32 71,-72z"/>
     <path class="fil6" d="M8143 29232c0,-40 -32,-72 -72,-72 -39,0 -71,32 -71,72 0,39 32,71 71,71 40,0 72,-32 72,-71z"/>
     <path class="fil6" d="M20491 30061c0,-39 -33,-71 -72,-71 -40,0 -72,32 -72,71 0,40 32,72 72,72 39,0 72,-32 72,-72z"/>
     <path class="fil6" d="M4502 20444c0,-26 -21,-47 -47,-47 -26,0 -47,21 -47,47 0,26 21,47 47,47 26,0 47,-21 47,-47z"/>
     <path class="fil6" d="M3414 20122c0,-40 -32,-72 -71,-72 -40,0 -72,32 -72,72 0,39 32,71 72,71 39,0 71,-32 71,-71z"/>
     <path class="fil6" d="M10495 26618c0,-26 -21,-47 -47,-47 -26,0 -47,21 -47,47 0,26 21,47 47,47 26,0 47,-21 47,-47z"/>
     <path class="fil6" d="M15414 23156c0,-26 -21,-47 -47,-47 -26,0 -47,21 -47,47 0,25 21,46 47,46 26,0 47,-21 47,-46z"/>
     <path class="fil6" d="M13563 18630c0,-20 -16,-35 -35,-35 -19,0 -35,15 -35,35 0,19 16,35 35,35 19,0 35,-16 35,-35z"/>
     <path class="fil6" d="M4679 31733c0,-26 -21,-47 -47,-47 -26,0 -47,21 -47,47 0,26 21,47 47,47 26,0 47,-21 47,-47z"/>
     <path class="fil6" d="M3999 31365c0,-17 -13,-31 -31,-31 -17,0 -31,14 -31,31 0,18 14,32 31,32 18,0 31,-14 31,-32z"/>
     <g>
      <path class="fil7" d="M16023 35724c0,0 -5,225 123,261 128,36 565,-218 565,-218l-582 -146 -106 103z"/>
      <path class="fil8" d="M15994 34874c0,0 -82,-307 -82,-442 0,-136 70,-418 107,-537 0,0 176,-98 274,37 0,0 -37,397 0,504 37,106 86,261 86,261l-296 261 -89 -84z"/>
      <path class="fil6" d="M16019 33895c0,0 -53,-196 -29,-254 25,-57 57,99 57,99 0,0 13,-201 50,-201 36,0 20,205 20,205 0,0 4,-205 41,-205 37,0 25,197 25,197 0,0 43,-156 77,-160 33,-4 0,184 0,184 0,0 49,-16 99,-43 49,-27 41,88 -66,215l-274 -37z"/>
      <path class="fil9" d="M16329 33932c0,-11 -5,-21 -15,-28 -158,-119 -305,-43 -312,-40 -17,9 -24,30 -15,48 9,17 31,24 48,15 5,-3 116,-57 237,33 16,12 38,9 50,-7 4,-6 7,-14 7,-21z"/>
      <path class="fil10" d="M15918 34355c0,0 239,-19 362,0 0,0 35,16 13,81 0,0 -184,100 -373,86 0,0 -42,-74 -2,-167z"/>
      <path class="fil9" d="M16384 34708l-10 -21c-210,98 -289,210 -292,214l20 14c0,-1 79,-112 282,-207z"/>
      <path class="fil8" d="M16076 34927c0,0 303,-405 872,-287 0,0 172,-348 266,-438 95,-90 483,-192 483,-192 0,0 74,-193 197,-209 123,-16 127,340 0,532 0,0 -311,119 -414,144l-69 315 35 -5c58,-10 121,-18 186,-20 0,0 229,0 442,131 0,0 307,-86 434,29 127,115 -172,356 -483,328 0,0 -233,-103 -336,-95l-471 221c0,0 -86,117 -348,115l-655 25 -139 -594z"/>
      <path class="fil11" d="M16492 34898c44,0 80,-36 80,-80 0,-44 -36,-79 -80,-79 -44,0 -79,35 -79,79 0,44 35,80 79,80z"/>
      <path class="fil9" d="M18147 35040c0,-13 -1,-25 -2,-37 -9,-73 -40,-122 -41,-124 -11,-16 -33,-21 -49,-11 -16,11 -21,33 -11,49 4,7 93,154 -46,314 -13,15 -11,38 4,50 15,13 37,12 50,-3 75,-87 95,-173 95,-238z"/>
      <path class="fil10" d="M17731 35166c101,-118 101,-377 43,-388 -46,-18 -105,-13 -105,-13 -108,185 -2,398 -2,398 0,0 23,15 64,3z"/>
      <path class="fil9" d="M17254 35381c0,-7 -2,-14 -7,-20 -8,-11 -186,-264 -15,-511 11,-16 7,-38 -9,-49 -16,-11 -38,-7 -50,9 -199,289 15,589 17,592 11,16 33,20 49,8 10,-7 15,-18 15,-29z"/>
      <path class="fil9" d="M17930 34333c0,-3 -1,-5 -2,-8 -81,-331 -213,-350 -228,-351 -20,-1 -37,14 -38,33 -2,19 13,36 32,38 4,1 99,25 166,297 4,19 23,30 43,26 16,-4 27,-19 27,-35z"/>
      <path class="fil10" d="M17154 34277c0,0 191,183 326,200 136,16 -163,-337 -163,-337 0,0 -120,-1 -163,137z"/>
      <path class="fil9" d="M17226 34849c0,-15 -10,-29 -25,-34 -178,-54 -217,-179 -219,-185 -5,-18 -25,-29 -44,-24 -18,6 -29,25 -24,44 2,7 49,167 266,233 18,6 38,-5 44,-23 1,-4 2,-7 2,-11z"/>
      <polygon class="fil9" points="17413,34804 17409,34780 17169,34818 17173,34842 "/>
      <path class="fil8" d="M15771 35841c286,0 518,-235 518,-525 0,-290 -232,-525 -518,-525 -286,0 -518,235 -518,525 0,290 232,525 518,525z"/>
      <path class="fil11" d="M16249 35390c8,-36 12,-73 12,-111 0,-269 -216,-488 -482,-488 -122,0 -233,46 -318,122l-4 4c-13,12 -11,34 5,42 66,37 197,165 143,597 -3,26 16,50 42,52 119,10 430,15 595,-194l7 -24z"/>
      <path class="fil6" d="M17403 35764c0,0 281,-40 331,-77 50,-37 -109,-33 -109,-33 0,0 192,-59 183,-94 -8,-36 -203,28 -203,28 0,0 198,-52 189,-88 -9,-36 -197,22 -197,22 0,0 141,-79 137,-112 -3,-34 -179,43 -179,43 0,0 5,-52 19,-106 14,-54 -95,-20 -194,114l23 303z"/>
      <path class="fil8" d="M16215 35635c0,0 -20,-262 193,-319 0,0 204,37 462,180 0,0 74,25 201,8 127,-16 303,-53 303,-53 0,0 90,105 29,313 0,0 -291,137 -561,113 -270,-25 -627,-242 -627,-242z"/>
      <path class="fil9" d="M17479 35620c0,-89 -42,-155 -75,-185 -14,-14 -37,-13 -50,2 -13,14 -12,36 2,50 5,4 105,102 16,259 -10,17 -4,39 13,48 17,10 39,4 49,-13 33,-59 45,-113 45,-161z"/>
      <path class="fil10" d="M16962 35509c0,0 -6,331 -120,368 0,0 56,18 180,-5 0,0 64,-183 -10,-363 0,0 -4,-14 -50,0z"/>
      <path class="fil9" d="M16484 35322c0,-2 0,-5 0,-8 -5,-26 -29,-43 -55,-38 -239,41 -275,257 -261,366 4,25 28,44 54,40 26,-3 44,-27 40,-53 -3,-23 -22,-225 183,-260 23,-4 39,-24 39,-47z"/>
     </g>
     <path class="fil6" d="M7738 32871c18,0 31,-14 31,-32 0,-17 -13,-31 -31,-31 -17,0 -31,14 -31,31 0,18 14,32 31,32z"/>
     <path class="fil6" d="M10512 37243c26,0 47,-21 47,-47 0,-26 -21,-47 -47,-47 -26,0 -47,21 -47,47 0,26 21,47 47,47z"/>
     <path class="fil6" d="M8190 37704c26,0 47,-21 47,-47 0,-26 -21,-47 -47,-47 -26,0 -47,21 -47,47 0,26 21,47 47,47z"/>
     <path class="fil6" d="M16848 38733c39,0 71,-32 71,-71 0,-40 -32,-72 -71,-72 -40,0 -72,32 -72,72 0,39 32,71 72,71z"/>
     <path class="fil6" d="M7041 37956c40,0 72,-32 72,-72 0,-39 -32,-71 -72,-71 -39,0 -71,32 -71,71 0,40 32,72 71,72z"/>
     <path class="fil6" d="M9690 28642c25,0 46,-21 46,-46 0,-26 -21,-47 -46,-47 -26,0 -47,21 -47,47 0,25 21,46 47,46z"/>
     <path class="fil6" d="M13152 33561c26,0 47,-21 47,-47 0,-26 -21,-47 -47,-47 -26,0 -47,21 -47,47 0,26 21,47 47,47z"/>
     <path class="fil6" d="M17678 31710c19,0 35,-15 35,-35 0,-19 -16,-35 -35,-35 -19,0 -35,16 -35,35 0,20 16,35 35,35z"/>
     <g>
      <image x="16221" y="31018" width="76.5" height="76.5" xlink:href="object-astro-with-back-2_Images\object-astro-with-back-2_ImgID1.png"/>
     </g>
     <path class="fil12" d="M16090 29154c-22,0 -39,17 -39,39 0,21 17,39 39,39 21,0 39,-18 39,-39 0,-22 -18,-39 -39,-39z"/>
     <path class="fil6" d="M23145 36432c0,-40 -32,-72 -72,-72 -39,0 -71,32 -71,72 0,39 32,71 71,71 40,0 72,-32 72,-71z"/>
     <path class="fil6" d="M21899 14671c0,-40 -32,-72 -72,-72 -39,0 -72,32 -72,72 0,39 33,71 72,71 40,0 72,-32 72,-71z"/>
     <path class="fil6" d="M143 35116c0,39 -32,71 -71,71 -40,0 -72,-32 -72,-71 0,-40 32,-72 72,-72 39,0 71,32 71,72z"/>
     <path class="fil6" d="M12476 19345c0,39 -32,71 -72,71 -39,0 -71,-32 -71,-71 0,-40 32,-72 71,-72 40,0 72,32 72,72z"/>
     <path class="fil6" d="M13324 12627c0,-26 -21,-47 -46,-47 -26,0 -47,21 -47,47 0,26 21,47 47,47 25,0 46,-21 46,-47z"/>
     <path class="fil6" d="M9944 14868c0,-26 -21,-47 -47,-47 -26,0 -47,21 -47,47 0,26 21,47 47,47 26,0 47,-21 47,-47z"/>
     <path class="fil6" d="M1278 26505c0,-39 -32,-71 -72,-71 -39,0 -71,32 -71,71 0,40 32,72 71,72 40,0 72,-32 72,-72z"/>
     <path class="fil6" d="M12185 15691c0,-17 -14,-31 -31,-31 -17,0 -31,14 -31,31 0,17 14,31 31,31 17,0 31,-14 31,-31z"/>
     <path class="fil6" d="M21868 26871c26,0 47,-21 47,-47 0,-26 -21,-47 -47,-47 -26,0 -47,21 -47,47 0,26 21,47 47,47z"/>
     <path class="fil6" d="M9330 34918c0,39 -32,71 -71,71 -40,0 -72,-32 -72,-71 0,-40 32,-72 72,-72 39,0 71,32 71,72z"/>
     <path class="fil13" d="M12694 30946c99,105 214,258 223,401 10,160 98,304 225,414l-81 114c-174,-67 -322,-215 -333,-389 -10,-174 -250,-367 -250,-367 46,2 132,-80 216,-173z"/>
     <path class="fil8" d="M12917 31347c-9,-143 -124,-296 -223,-401 -77,-81 -143,-135 -143,-135 153,5 631,-643 631,-643 141,63 328,297 337,585 6,175 143,315 249,398l-146 110 146 143 -364 513c-95,-37 -186,-90 -262,-156 -127,-110 -215,-254 -225,-414z"/>
     <polygon class="fil14" points="13768,31404 13622,31261 13768,31151 13768,31277 "/>
    </g>
    <path class="fil4" d="M16541 37608c-681,1084 -2240,1687 -3627,1402 -1468,-302 -1831,770 -2121,2007l69 0c291,-1239 633,-2230 2039,-1941 1413,291 3002,-325 3697,-1432 402,-640 425,-1316 73,-1932l-79 0c359,603 344,1268 -51,1896z"/>
   </g>
  </g>
 </g>
</svg>
