<?xml version="1.0" encoding="UTF-8"?>
<!DOCTYPE svg PUBLIC "-//W3C//DTD SVG 1.1//EN" "http://www.w3.org/Graphics/SVG/1.1/DTD/svg11.dtd">
<!-- Creator: CorelDRAW X7 -->
<svg xmlns="http://www.w3.org/2000/svg" xml:space="preserve" width="100%" height="100%" version="1.1" style="shape-rendering:geometricPrecision; text-rendering:geometricPrecision; image-rendering:optimizeQuality; fill-rule:evenodd; clip-rule:evenodd"
viewBox="0 0 24134 8374"
 xmlns:xlink="http://www.w3.org/1999/xlink">
 <defs>
  <style type="text/css">
   <![CDATA[
    .fil4 {fill:#8DA0D1;fill-rule:nonzero}
    .fil1 {fill:#8480BC;fill-rule:nonzero}
    .fil3 {fill:#5C56A2;fill-rule:nonzero}
    .fil6 {fill:#D4D4D6;fill-rule:nonzero}
    .fil5 {fill:#D6D5D7;fill-rule:nonzero}
    .fil0 {fill:#E0E4EE;fill-rule:nonzero}
    .fil2 {fill:white;fill-rule:nonzero}
    .fil7 {fill:white;fill-rule:nonzero}
   ]]>
  </style>
 </defs>
 <g id="Layer_x0020_1">
  <metadata id="CorelCorpID_0Corel-Layer"/>
  <g id="_2725086439312">
   <path class="fil0" d="M17017 1938c1250,498 2389,-461 2389,-461l43 70c185,-193 422,-327 658,-391 35,-10 71,-18 107,-13 36,5 72,24 93,60 24,40 25,96 10,143 -14,47 -41,86 -71,120 -59,69 -128,124 -203,163 -32,17 -139,57 -117,129 14,45 68,44 104,28 36,-17 66,-51 102,-68 73,-35 171,14 103,140 -19,33 -47,57 -76,77 -115,81 -216,168 -333,214l2 3c0,0 -1591,1333 -2903,655 -556,-287 -136,-959 92,-869z"/>
   <path class="fil1" d="M19273 1518l399 718c26,46 84,62 129,37 46,-25 63,-83 37,-129l-400 -718c-25,-46 -83,-62 -128,-37 -46,26 -63,83 -37,129z"/>
   <path class="fil2" d="M12289 4337c8,-135 124,-237 258,-229l423 25c1,0 3,1 4,1 4,-1 8,-2 12,-2 712,91 1321,-19 1800,-187 40,-348 190,-717 468,-1078 625,-811 1172,-1106 1661,-1099l-25 -20c-31,-23 -37,-66 -13,-96l106 -139c24,-30 67,-36 97,-12l30 22c-70,-348 5,-723 239,-1027 422,-547 1201,-657 1756,-252 10,6 19,13 29,21 556,429 660,1228 231,1785 -133,172 -302,302 -488,384 -141,63 -292,99 -445,108l30 24c15,11 24,27 26,44 3,18 -1,37 -13,52l-90 117c128,285 153,620 23,1021 -94,292 -270,620 -547,988 -13,19 -27,37 -42,56 -345,448 -752,708 -1161,800 -177,439 -459,1006 -902,1674 271,275 338,706 136,1056l-1363 -787c-116,-68 -156,-217 -89,-333l207 -357c33,-58 88,-94 148,-106 298,-481 537,-944 722,-1344 -46,-29 -91,-60 -135,-94 -117,-90 -218,-192 -303,-304 -500,128 -1152,228 -1972,232 -105,395 -477,675 -901,650l-11 -1 94 -1593z"/>
   <path class="fil3" d="M17830 3693l-350 454c-88,116 -67,282 49,371l301 232c273,-363 447,-687 540,-975l-169 -130c-116,-89 -282,-67 -371,48z"/>
   <path class="fil1" d="M15799 3977l1597 1231c48,38 117,29 154,-19 37,-49 28,-117 -20,-154l-1597 -1231 -134 173z"/>
   <path class="fil1" d="M14757 6920l977 501c55,29 122,7 150,-48 28,-54 6,-122 -48,-150l-977 -501c-55,-28 -122,-6 -150,49 -28,54 -6,121 48,149z"/>
   <path class="fil1" d="M13010 4184l141 1088c8,61 64,104 125,96 61,-8 104,-64 96,-125l-141 -1088c-8,-61 -64,-104 -125,-96 -61,8 -104,64 -96,125z"/>
   <path class="fil3" d="M18819 2434c186,-83 354,-212 487,-384 34,-45 65,-91 92,-138 20,-34 38,-68 54,-102 15,-31 28,-62 39,-93 30,-80 51,-163 64,-246 70,-444 -98,-912 -480,-1206 -9,-7 -18,-14 -28,-21 -60,58 -116,120 -169,188 -54,71 -102,143 -143,218 -38,70 -71,141 -99,213 -13,32 -24,65 -34,97 -13,41 -24,81 -33,122 -109,463 -20,956 250,1352z"/>
   <path class="fil4" d="M17275 1651l-12 15 1225 944c-2,-17 -11,-33 -26,-44l-1187 -915z"/>
   <path class="fil0" d="M17351 2766c1525,498 2914,-461 2914,-461l53 70c225,-193 515,-327 802,-391 43,-10 87,-18 131,-13 44,4 88,24 113,59 29,41 30,97 13,144 -18,46 -51,85 -87,120 -72,69 -156,124 -247,163 -40,16 -170,57 -143,129 16,44 83,44 127,27 44,-16 79,-50 123,-67 90,-35 209,13 126,139 -22,34 -57,57 -92,77 -141,81 -264,169 -406,215l2 3c0,0 -1941,1332 -3540,655 -678,-288 -166,-959 111,-869z"/>
   <path class="fil1" d="M20170 2407l400 718c25,46 83,62 129,37 45,-26 62,-83 36,-129l-399 -718c-26,-46 -83,-62 -129,-37 -46,26 -62,83 -37,129z"/>
   <path class="fil1" d="M18636 863l855 854c30,-80 51,-163 64,-246l-820 -821c-38,70 -71,141 -99,213z"/>
   <path class="fil1" d="M18569 1082l829 830c20,-34 38,-68 54,-102l-850 -850c-13,41 -24,81 -33,122z"/>
   <path class="fil5" d="M22783 947l-7 135c118,91 277,249 283,448 10,319 219,579 375,648 0,0 530,-718 700,-713 0,0 -389,-314 -406,-595 -17,-284 -258,-524 -541,-633l-404 570 0 140z"/>
   <path class="fil2" d="M22039 1208l-11 197c173,132 406,364 415,656 14,466 319,847 548,949 0,0 776,-1052 1025,-1045 0,0 -570,-458 -595,-871 -25,-414 -377,-766 -791,-926l-591 834 0 206z"/>
   <path class="fil6" d="M22039 1002l-11 403c85,-38 156,-86 292,-180 -153,-41 -188,-95 -281,-223z"/>
   <path class="fil7" d="M0 6917c1492,189 2698,106 3701,-151 1031,-265 1848,-714 2541,-1241 583,-443 1157,-959 1728,-1471 2436,-2187 4808,-4316 7894,-956l-124 115c-2973,-3238 -5284,-1164 -7657,966 -571,513 -1145,1029 -1739,1480 -708,539 -1545,999 -2602,1270 -1017,261 -2238,346 -3742,158l0 -170z"/>
   <path class="fil1" d="M14742 4440l274 212c210,161 512,122 674,-88l1596 -2071c233,-302 177,-736 -126,-969 -302,-233 -736,-177 -969,125l-1550 2013c-187,243 -142,591 101,778z"/>
  </g>
 </g>
</svg>
