<?xml version="1.0" encoding="UTF-8"?>
<!DOCTYPE svg PUBLIC "-//W3C//DTD SVG 1.1//EN" "http://www.w3.org/Graphics/SVG/1.1/DTD/svg11.dtd">
<!-- Creator: CorelDRAW X7 -->
<svg xmlns="http://www.w3.org/2000/svg" xml:space="preserve" width="100%" height="100%" version="1.1" style="shape-rendering:geometricPrecision; text-rendering:geometricPrecision; image-rendering:optimizeQuality; fill-rule:evenodd; clip-rule:evenodd"
viewBox="0 0 8120 8087"
 xmlns:xlink="http://www.w3.org/1999/xlink">
 <defs>
  <style type="text/css">
   <![CDATA[
    .fil2 {fill:#CCCCCC;fill-rule:nonzero}
    .fil1 {fill:#E6E6E6;fill-rule:nonzero}
    .fil0 {fill:white;fill-rule:nonzero}
   ]]>
  </style>
 </defs>
 <g id="Layer_x0020_1">
  <metadata id="CorelCorpID_0Corel-Layer"/>
  <g id="_2724845345424">
   <path class="fil0" d="M3021 139c2164,-580 4382,701 4961,2865 575,2146 -705,4363 -2869,4943 -2164,580 -4400,-696 -4975,-2841 -579,-2164 719,-4387 2883,-4967z"/>
   <path class="fil1" d="M7365 6397c-536,743 -1314,1299 -2252,1550 -2164,580 -4400,-696 -4975,-2841 -323,-1209 -54,-2440 618,-3393 0,0 -344,3261 1966,4595 2304,1315 4643,89 4643,89l0 0z"/>
   <path class="fil2" d="M2211 6729l-28 -104c-36,-135 162,-188 198,-53l28 104c36,136 -162,189 -198,53z"/>
   <path class="fil1" d="M6810 5487c-15,26 -35,61 -50,87 -45,78 -167,8 -121,-70 15,-26 36,-54 50,-87 45,-78 166,-8 121,70z"/>
   <path class="fil1" d="M2229 1056c-51,-189 251,-270 302,-81 53,196 -250,277 -302,81z"/>
   <path class="fil1" d="M5124 6543c-49,-185 239,-262 288,-77 52,192 -236,269 -288,77z"/>
  </g>
 </g>
</svg>
