<?xml version="1.0" encoding="UTF-8"?>
<!DOCTYPE svg PUBLIC "-//W3C//DTD SVG 1.1//EN" "http://www.w3.org/Graphics/SVG/1.1/DTD/svg11.dtd">
<!-- Creator: CorelDRAW X7 -->
<svg xmlns="http://www.w3.org/2000/svg" xml:space="preserve" width="100%" height="100%" version="1.1" style="shape-rendering:geometricPrecision; text-rendering:geometricPrecision; image-rendering:optimizeQuality; fill-rule:evenodd; clip-rule:evenodd"
viewBox="0 0 25983 37148"
 xmlns:xlink="http://www.w3.org/1999/xlink">
 <defs>
  <style type="text/css">
   <![CDATA[
    .fil6 {fill:#D0A667}
    .fil12 {fill:#A6B7DE}
    .fil5 {fill:#8EA0D1}
    .fil4 {fill:#E3C582}
    .fil9 {fill:white}
    .fil7 {fill:white}
    .fil3 {fill:#FEFEFE;fill-rule:nonzero}
    .fil10 {fill:#DBBB83;fill-rule:nonzero}
    .fil11 {fill:#D0A667;fill-rule:nonzero}
    .fil0 {fill:#D2AE6D;fill-rule:nonzero}
    .fil2 {fill:#F2D394;fill-rule:nonzero}
    .fil1 {fill:white;fill-rule:nonzero}
    .fil8 {fill:white;fill-rule:nonzero}
   ]]>
  </style>
 </defs>
 <g id="Layer_x0020_1">
  <metadata id="CorelCorpID_0Corel-Layer"/>
  <g id="_2725071705488">
   <path class="fil0" d="M5909 5390c55,0 55,85 0,85 -54,0 -54,-85 0,-85z"/>
   <path class="fil0" d="M14402 4857l62 0c78,0 78,-121 0,-121l-62 0c-78,0 -78,121 0,121z"/>
   <path class="fil1" d="M2155 4596c14,23 43,29 65,15 22,-13 29,-42 15,-65 -13,-22 -43,-29 -65,-15 -22,14 -29,43 -15,65z"/>
   <path class="fil2" d="M10883 104c16,-26 50,-34 76,-18 25,16 33,51 17,76 -16,26 -50,34 -75,18 -26,-16 -34,-50 -18,-76z"/>
   <path class="fil2" d="M19573 1309c-16,26 -49,33 -75,17 -25,-16 -33,-50 -17,-76 16,-26 49,-33 75,-17 26,16 33,50 17,76z"/>
   <path class="fil2" d="M4220 4320c-16,26 -50,33 -76,17 -25,-16 -33,-50 -17,-76 16,-26 50,-33 75,-17 26,16 34,50 18,76z"/>
   <path class="fil2" d="M23189 84c-16,26 -50,34 -76,18 -25,-16 -33,-50 -17,-76 16,-26 50,-34 75,-18 26,16 34,50 18,76z"/>
   <path class="fil2" d="M21800 4680c-16,-26 -49,-34 -75,-18 -26,17 -33,51 -17,76 16,26 49,34 75,18 26,-16 33,-50 17,-76z"/>
   <path class="fil3" d="M8054 3861c-16,26 -50,34 -75,18 -26,-17 -34,-51 -18,-76 16,-26 50,-34 75,-18 26,16 34,50 18,76z"/>
   <path class="fil2" d="M12155 3244c-16,26 -50,33 -75,17 -26,-16 -34,-50 -18,-76 16,-26 50,-34 75,-17 26,16 34,50 18,76z"/>
   <path class="fil4" d="M15723 33934c-48,363 -612,589 -1259,504 -648,-85 -1134,-450 -1086,-814 48,-363 612,-589 1259,-504 648,85 1134,450 1086,814z"/>
   <path class="fil4" d="M9624 31351c184,362 -328,992 -1144,1406 -815,414 -1626,456 -1810,93 -184,-362 328,-992 1144,-1406 815,-414 1626,-456 1810,-93z"/>
   <path class="fil5" d="M7919 31760c737,-374 1467,-444 1738,-186 10,-82 0,-157 -33,-223 -184,-363 -995,-321 -1810,93 -816,414 -1328,1044 -1144,1406 18,35 43,66 72,93 47,-363 510,-845 1177,-1183z"/>
   <path class="fil5" d="M14637 33120c-647,-85 -1211,141 -1259,505 -3,26 -3,52 -1,78 140,-293 648,-463 1223,-387 601,79 1061,398 1087,734 18,-37 31,-76 36,-116 48,-364 -438,-728 -1086,-814z"/>
   <path class="fil3" d="M9936 32264c-18,28 -55,37 -83,19 -28,-18 -36,-55 -19,-83 18,-29 55,-38 83,-20 28,18 36,55 19,84z"/>
   <path class="fil0" d="M21498 23694c10,-9 20,-19 29,-29 26,-26 66,14 40,40 -9,10 -19,19 -29,29 -26,26 -66,-14 -40,-40z"/>
   <path class="fil0" d="M21735 19881c19,10 39,19 58,29 32,16 4,65 -29,49 -19,-10 -38,-20 -58,-29 -32,-17 -4,-65 29,-49z"/>
   <path class="fil0" d="M17852 20922c36,0 36,56 0,56 -36,0 -36,-56 0,-56z"/>
   <path class="fil0" d="M24796 23084c-10,-10 -19,-19 -29,-29 -13,-13 7,-33 20,-20 10,10 19,19 29,29 13,13 -7,33 -20,20z"/>
   <path class="fil0" d="M24777 25635c36,0 37,57 0,57 -36,0 -36,-57 0,-57z"/>
   <path class="fil0" d="M24835 26305c37,0 37,56 0,56 -36,0 -36,-56 0,-56z"/>
   <path class="fil0" d="M23011 22308c-9,-9 -19,-19 -29,-29 -26,-25 14,-65 40,-40 10,10 20,20 29,29 26,26 -14,66 -40,40z"/>
   <path class="fil0" d="M23613 23395c37,0 37,56 0,56 -36,0 -36,-56 0,-56z"/>
   <path class="fil0" d="M23584 18448l29 0c37,0 37,57 0,57l-29 0c-36,0 -36,-57 0,-57z"/>
   <path class="fil0" d="M18405 23453c36,0 36,57 0,57 -37,0 -37,-57 0,-57z"/>
   <path class="fil0" d="M9444 16319l0 -16c0,-72 114,-73 114,0l0 16c0,73 -114,73 -114,0l0 -16c0,-72 114,-73 114,0l0 16c0,73 -114,73 -114,0z"/>
   <path class="fil0" d="M24602 32241c73,0 73,113 0,113 -72,0 -72,-113 0,-113z"/>
   <path class="fil0" d="M21024 17285c36,0 36,56 0,56 -37,0 -37,-56 0,-56z"/>
   <path class="fil0" d="M20238 16004c36,0 36,57 0,57 -36,0 -36,-57 0,-57z"/>
   <path class="fil0" d="M18929 16703c36,0 36,56 0,56 -37,0 -37,-56 0,-56z"/>
   <path class="fil0" d="M16892 23890c36,0 36,56 0,56 -37,0 -37,-56 0,-56z"/>
   <path class="fil0" d="M23674 29937c77,0 77,121 0,121 -78,0 -78,-121 0,-121z"/>
   <path class="fil0" d="M22040 31116l0 -29c0,-37 56,-37 56,0l0 29c0,36 -56,36 -56,0z"/>
   <path class="fil0" d="M23905 17109l0 -29c0,-36 57,-36 57,0l0 29c0,37 -57,37 -57,0z"/>
   <path class="fil0" d="M23933 18943l29 0c37,0 37,57 0,57l-29 0c-36,0 -36,-57 0,-57z"/>
   <path class="fil0" d="M24457 18448c36,0 36,57 0,57 -36,0 -36,-57 0,-57z"/>
   <path class="fil0" d="M24573 19903c37,0 37,57 0,57 -36,0 -36,-57 0,-57z"/>
   <path class="fil0" d="M24486 21795c36,0 37,56 0,56 -36,0 -36,-56 0,-56z"/>
   <path class="fil0" d="M16757 15205c-9,-10 -19,-20 -29,-29 -26,-26 14,-66 40,-40 10,9 20,19 29,29 26,26 -14,66 -40,40z"/>
   <path class="fil0" d="M19025 20959c10,-10 19,-19 29,-29 26,-26 66,14 40,40 -10,10 -19,19 -29,29 -26,26 -66,-14 -40,-40z"/>
   <path class="fil0" d="M21780 22566l29 0c22,0 44,20 43,43 -1,22 -19,42 -43,42l-29 0c-22,0 -43,-20 -42,-42 1,-23 18,-43 42,-43z"/>
   <path class="fil0" d="M25854 22857l29 0c22,0 43,20 42,42 -1,23 -18,43 -42,43l-29 0c-23,0 -44,-20 -43,-43 1,-23 19,-42 43,-42z"/>
   <path class="fil0" d="M24923 32983c54,0 54,85 0,85 -55,0 -55,-85 0,-85z"/>
   <path class="fil0" d="M24103 35283c-10,-10 -20,-19 -29,-29 -17,-16 -17,-44 0,-60 16,-16 43,-16 60,0 9,10 19,19 29,29 16,16 16,44 0,60 -17,16 -44,16 -60,0z"/>
   <path class="fil0" d="M24893 30510c55,0 55,84 0,84 -54,0 -54,-84 0,-84z"/>
   <path class="fil0" d="M25899 29795l0 -29c0,-22 19,-43 42,-42 23,1 42,19 42,42l0 29c0,23 -19,44 -42,43 -23,-1 -42,-19 -42,-43z"/>
   <path class="fil0" d="M18172 19249c55,0 55,85 0,85 -54,0 -55,-85 0,-85z"/>
   <path class="fil0" d="M25679 17241c55,0 55,85 0,85 -54,0 -55,-85 0,-85z"/>
   <path class="fil0" d="M23060 15670c55,0 55,85 0,85 -54,0 -54,-85 0,-85z"/>
   <path class="fil0" d="M21432 14897c10,10 19,19 29,29 16,16 16,44 0,60 -16,16 -44,16 -60,0 -10,-10 -19,-19 -29,-29 -16,-16 -16,-44 0,-60 16,-16 44,-16 60,0z"/>
   <path class="fil0" d="M19220 15030c54,0 54,85 0,85 -55,0 -55,-85 0,-85z"/>
   <path class="fil0" d="M19569 19045c54,0 54,85 0,85 -55,0 -55,-85 0,-85z"/>
   <path class="fil0" d="M21839 21065c10,10 20,20 29,30 16,16 16,43 0,60 -16,16 -43,16 -60,0l-29 -30c-16,-16 -16,-43 0,-60 16,-16 44,-16 60,0z"/>
   <path class="fil0" d="M20238 23643c55,0 55,85 0,85 -55,0 -55,-85 0,-85z"/>
   <path class="fil0" d="M18987 24079c54,0 54,85 0,85 -55,0 -55,-85 0,-85z"/>
   <path class="fil0" d="M19918 24254c54,0 55,85 0,85 -55,0 -55,-85 0,-85z"/>
   <path class="fil0" d="M21589 29396l0 -29c0,-51 46,-101 99,-99 54,3 99,44 99,99l0 29c0,52 -45,102 -99,99 -53,-2 -99,-43 -99,-99z"/>
   <path class="fil0" d="M20861 30729c37,0 37,56 0,56 -36,0 -36,-56 0,-56z"/>
   <path class="fil0" d="M18065 24316c-10,-10 -20,-19 -29,-29 -26,-26 14,-66 40,-40 9,10 19,19 29,29 26,26 -14,66 -40,40z"/>
   <path class="fil0" d="M23632 26860l0 -29c0,-22 20,-43 42,-42 23,1 43,19 43,42l0 29c0,23 -20,44 -43,43 -23,-1 -42,-19 -42,-43z"/>
   <path class="fil0" d="M21512 27026c55,0 55,85 0,85 -55,0 -55,-85 0,-85z"/>
   <path class="fil0" d="M18977 27085c55,0 55,84 0,84 -55,0 -55,-84 0,-84z"/>
   <path class="fil0" d="M23067 24615c55,0 55,85 0,85 -54,0 -55,-85 0,-85z"/>
   <path class="fil0" d="M19792 28485c55,0 55,84 0,84 -54,0 -54,-84 0,-84z"/>
   <path class="fil0" d="M17995 28798c73,0 73,113 0,113 -73,0 -73,-113 0,-113z"/>
   <path class="fil0" d="M22164 26132c72,0 73,113 0,113 -73,0 -73,-113 0,-113z"/>
   <path class="fil0" d="M22295 28303c72,0 73,113 0,113 -73,0 -73,-113 0,-113z"/>
   <path class="fil0" d="M3707 22814c36,0 37,-56 0,-56 -36,0 -36,56 0,56z"/>
   <path class="fil0" d="M5249 24065c37,0 37,-56 0,-56 -36,0 -36,56 0,56z"/>
   <path class="fil0" d="M5307 23396c37,0 37,-57 0,-57 -36,0 -36,57 0,57z"/>
   <path class="fil0" d="M2107 21388c36,0 36,-56 0,-56 -37,0 -37,56 0,56z"/>
   <path class="fil0" d="M7054 23630l0 29c0,36 57,36 57,0l0 -29c0,-37 -57,-37 -57,0z"/>
   <path class="fil0" d="M3105 26026l62 0c78,0 78,-121 0,-121l-62 0c-78,0 -78,121 0,121z"/>
   <path class="fil0" d="M15870 21592c36,0 36,-57 0,-57 -37,0 -37,57 0,57z"/>
   <path class="fil0" d="M12974 19250c78,0 78,-121 0,-121 -77,0 -77,121 0,121z"/>
   <path class="fil0" d="M4968 28200c78,0 78,-121 0,-121 -77,0 -78,121 0,121z"/>
   <path class="fil0" d="M7018 27020c78,0 78,-121 0,-121 -78,0 -78,121 0,121z"/>
   <path class="fil0" d="M8198 25467c78,0 78,-121 0,-121 -77,0 -77,121 0,121z"/>
   <path class="fil0" d="M1330 28934c-9,10 -19,20 -29,29 -26,26 14,66 40,40 10,-9 20,-19 29,-29 26,-25 -14,-65 -40,-40z"/>
   <path class="fil0" d="M13726 22737c-10,9 -20,19 -30,29 -25,26 15,66 40,40 10,-10 20,-20 30,-29 25,-26 -15,-66 -40,-40z"/>
   <path class="fil0" d="M3664 30653l62 0c47,0 93,-42 90,-91 -2,-49 -39,-91 -90,-91l-62 0c-48,0 -93,42 -91,91 2,49 40,91 91,91z"/>
   <path class="fil0" d="M3105 28665c116,0 117,-181 0,-181 -117,0 -117,181 0,181z"/>
   <path class="fil0" d="M11709 23657c73,0 73,-113 0,-113 -73,0 -73,113 0,113z"/>
   <path class="fil0" d="M4348 21885c10,-10 19,-20 29,-29 16,-17 16,-44 0,-60 -16,-17 -44,-17 -60,0 -9,9 -19,19 -29,29 -16,16 -16,43 0,60 16,16 44,16 60,0z"/>
   <path class="fil0" d="M11513 14098c54,0 54,-85 0,-85 -55,0 -55,85 0,85z"/>
   <path class="fil0" d="M9410 24341c55,0 55,-85 0,-85 -54,0 -55,85 0,85z"/>
   <path class="fil0" d="M9585 23236c54,0 54,-85 0,-85 -55,0 -55,85 0,85z"/>
   <path class="fil0" d="M1055 30031c116,0 117,-181 0,-181 -117,0 -117,181 0,181z"/>
   <path class="fil0" d="M620 28230c117,0 117,-181 0,-181 -116,0 -117,181 0,181z"/>
   <path class="fil0" d="M41 30655c54,0 55,-85 0,-85 -55,0 -55,85 0,85z"/>
   <path class="fil0" d="M710 26058c55,0 55,-85 0,-85 -54,0 -55,85 0,85z"/>
   <path class="fil0" d="M23044 33010c55,0 55,-84 0,-84 -54,0 -54,84 0,84z"/>
   <path class="fil0" d="M4145 16326c128,0 128,-198 0,-198 -127,0 -127,198 0,198z"/>
   <path class="fil0" d="M5733 26332l29 0c52,0 102,-46 99,-99 -2,-54 -43,-99 -99,-99l-29 0c-51,0 -101,45 -99,99 3,53 44,99 99,99z"/>
   <path class="fil0" d="M2051 21307l0 62c0,77 120,78 120,0l0 -62c0,-78 -120,-78 -120,0z"/>
   <path class="fil0" d="M19504 17019c77,0 77,-121 0,-121 -78,0 -78,121 0,121z"/>
   <path class="fil0" d="M963 34831c9,-10 19,-19 29,-29 21,-21 22,-59 0,-80 -23,-21 -58,-22 -80,0 -10,10 -20,19 -29,29 -21,21 -23,59 0,80 22,21 57,22 80,0z"/>
   <path class="fil0" d="M545 32475l29 0c29,0 58,-26 56,-56 -1,-31 -24,-57 -56,-57l-29 0c-30,0 -58,26 -57,57 2,31 25,56 57,56z"/>
   <circle class="fil6" cx="14181" cy="26799" r="3302"/>
   <path class="fil4" d="M10906 26388c979,139 2626,-560 3154,-663 1073,-208 2175,40 3269,76 -76,-239 -178,-466 -304,-678 -402,16 -826,-53 -1232,-65 -770,-23 -1536,180 -2305,133 -356,-21 -1156,-333 -1884,-455 -372,464 -621,1031 -698,1652z"/>
   <path class="fil4" d="M14181 23497c-335,0 -659,51 -964,144 414,236 1243,320 1435,346 346,46 722,63 1018,-120 5,-3 9,-6 13,-8 -451,-231 -961,-362 -1502,-362z"/>
   <path class="fil4" d="M17482 26845c-952,-240 -1959,-260 -2918,-50 -520,113 -1025,292 -1543,420 -650,160 -1321,238 -1992,233 -28,-1 -57,-1 -86,-3 131,661 459,1250 920,1705 791,-281 1551,-648 2260,-1095 621,-391 1242,-857 1973,-924 454,-41 900,77 1349,170 23,-149 35,-301 37,-456z"/>
   <path class="fil4" d="M17307 27862c-448,-66 -1249,328 -1445,494 -175,148 -322,329 -511,459 -240,165 -529,237 -811,310 -569,146 -1134,309 -1693,488 -72,23 -149,54 -183,118 454,236 970,370 1517,370 383,0 750,-66 1092,-186 343,-489 548,-1123 1090,-1353 92,-39 414,-85 705,-160 95,-171 175,-352 239,-540z"/>
   <path class="fil7" d="M14804 27734l0 623 -2492 0 0 -623 2492 0zm-2492 -1870l0 -623c1246,0 2492,0 3738,0l-623 623c-1038,0 -2077,0 -3115,0zm3738 623c0,623 0,1247 0,1870l-623 0 0 -1247 0 0 -3115 0 0 -623c1246,0 2492,0 3738,0z"/>
   <path class="fil1" d="M4793 21100c13,22 43,29 65,15 22,-14 29,-43 15,-65 -14,-22 -43,-29 -65,-15 -22,14 -29,43 -15,65z"/>
   <path class="fil1" d="M12331 21172c14,22 43,28 65,15 22,-14 29,-43 15,-65 -14,-23 -43,-29 -65,-15 -22,13 -29,42 -15,65z"/>
   <path class="fil1" d="M4155 18271c14,23 43,29 65,15 22,-13 29,-42 15,-65 -14,-22 -43,-28 -65,-15 -22,14 -29,43 -15,65z"/>
   <path class="fil1" d="M6691 21063c14,22 43,29 65,15 22,-14 29,-43 15,-65 -14,-22 -43,-29 -65,-15 -22,14 -29,43 -15,65z"/>
   <path class="fil1" d="M11293 22896c14,22 43,29 65,15 22,-14 29,-43 15,-65 -14,-22 -43,-29 -65,-15 -22,14 -29,43 -15,65z"/>
   <path class="fil1" d="M10482 24485c14,22 43,29 65,15 22,-14 29,-43 15,-65 -14,-22 -43,-29 -65,-15 -22,13 -29,43 -15,65z"/>
   <path class="fil1" d="M7299 24908c13,22 43,29 65,15 22,-14 29,-43 15,-65 -14,-22 -43,-29 -65,-15 -22,13 -29,43 -15,65z"/>
   <path class="fil1" d="M5720 23674c14,22 43,29 66,15 22,-14 28,-43 15,-65 -14,-22 -43,-29 -65,-15 -23,13 -29,43 -16,65z"/>
   <path class="fil1" d="M8881 21856c14,22 43,29 65,15 23,-13 29,-43 15,-65 -13,-22 -42,-29 -65,-15 -22,14 -28,43 -15,65z"/>
   <path class="fil1" d="M10973 21420c14,22 43,29 65,15 22,-14 29,-43 15,-65 -14,-22 -43,-29 -65,-15 -22,14 -29,43 -15,65z"/>
   <path class="fil1" d="M10060 23689c13,22 43,29 65,15 22,-14 29,-43 15,-65 -14,-22 -43,-29 -65,-15 -22,14 -29,43 -15,65z"/>
   <path class="fil1" d="M3837 24393c13,22 43,29 65,15 22,-14 29,-43 15,-65 -14,-22 -43,-29 -65,-15 -23,14 -29,43 -15,65z"/>
   <path class="fil1" d="M16392 21901c-16,26 -50,34 -76,17 -25,-16 -33,-50 -17,-76 16,-25 50,-33 75,-17 26,16 34,50 18,76z"/>
   <path class="fil3" d="M13596 21539c-16,26 -50,33 -75,17 -26,-16 -34,-50 -18,-76 16,-25 50,-33 75,-17 26,16 34,50 18,76z"/>
   <path class="fil3" d="M24214 27883c-16,25 -50,33 -76,17 -25,-16 -33,-50 -17,-76 16,-26 50,-34 75,-17 26,16 34,50 18,76z"/>
   <path class="fil1" d="M22945 20278c-16,26 -50,34 -75,18 -26,-16 -34,-50 -18,-76 16,-26 50,-34 76,-18 25,16 33,50 17,76z"/>
   <path class="fil3" d="M19297 25435c-16,26 -50,34 -75,18 -26,-16 -34,-50 -18,-76 16,-26 50,-34 75,-18 26,16 34,50 18,76z"/>
   <path class="fil3" d="M5468 29695c-16,26 -50,34 -75,18 -26,-16 -34,-50 -18,-76 16,-26 50,-34 76,-18 25,16 33,50 17,76z"/>
   <path class="fil3" d="M10110 27727c-16,26 -50,34 -76,18 -25,-16 -33,-50 -17,-76 16,-26 50,-34 75,-18 26,16 34,50 18,76z"/>
   <path class="fil3" d="M3015 27117c-16,26 -50,33 -75,17 -26,-16 -34,-50 -18,-76 16,-26 50,-34 75,-17 26,16 34,50 18,76z"/>
   <path class="fil3" d="M7566 27782c-16,26 -50,34 -75,18 -26,-16 -34,-50 -18,-76 16,-26 50,-34 75,-18 26,16 34,50 18,76z"/>
   <path class="fil3" d="M7409 15885c-16,26 -50,34 -76,18 -25,-16 -33,-50 -17,-76 16,-26 50,-34 75,-18 26,16 34,50 18,76z"/>
   <path class="fil3" d="M25304 23960c-16,26 -49,34 -75,18 -26,-16 -33,-50 -17,-76 16,-26 49,-34 75,-18 26,16 33,50 17,76z"/>
   <path class="fil8" d="M2135 24252c-206,-7 -371,-176 -372,-385l-3 0c-2,209 -166,378 -372,385 206,7 372,177 372,387l3 0c0,-210 165,-380 372,-387z"/>
   <path class="fil3" d="M23848 31259c137,5 246,116 246,255l3 0c1,-139 110,-250 246,-255 -137,-4 -246,-117 -247,-256l-1 0c0,139 -110,252 -247,256z"/>
   <path class="fil1" d="M16428 19102c-311,-10 -559,-265 -562,-581l-5 0c-2,316 -250,571 -561,581 312,11 562,268 562,585l4 0c0,-317 250,-574 562,-585z"/>
   <path class="fil9" d="M2778 37148l20413 0c-128,-682 -322,-1341 -576,-1969l13 -5c212,-85 315,-326 230,-538l-511 -1282c-85,-212 -326,-315 -538,-231l-243 97c-490,-719 -1069,-1373 -1720,-1946 -240,-212 -490,-413 -749,-602 -1201,-876 -2597,-1501 -4111,-1796 -254,-50 -512,-90 -773,-121 -248,-29 -499,-50 -752,-61 -158,-7 -317,-11 -477,-11 -1036,0 -2037,152 -2981,434 -226,68 -449,143 -668,225l-75 -104c-133,-185 -392,-228 -578,-94l-911 654 -777 558 -31 22c-117,84 -178,219 -172,353 -744,554 -1412,1206 -1984,1936l-160 -84c-202,-107 -452,-29 -559,173l-987 1872c-106,202 -29,453 173,559l63 33c-246,616 -435,1261 -559,1928zm10599 -3445c-2,-26 -2,-52 1,-78 48,-365 612,-590 1259,-505 648,86 1134,450 1086,814 -5,41 -17,80 -35,117 -141,293 -650,463 -1224,387 -601,-79 -1063,-398 -1087,-735zm-3720 -2129c-47,362 -510,845 -1177,1183 -815,414 -1626,456 -1810,93 -184,-362 328,-992 1144,-1406 815,-414 1626,-456 1810,-93 33,66 44,141 33,223z"/>
   <path class="fil1" d="M8782 13974c14,22 43,28 65,15 22,-14 29,-43 15,-65 -14,-23 -43,-29 -65,-15 -22,13 -29,42 -15,65z"/>
   <g>
    <path class="fil10" d="M19392 22662c0,-343 278,-621 621,-621 343,0 621,278 621,621 0,343 -278,622 -621,622 -343,0 -621,-279 -621,-622z"/>
    <path class="fil11" d="M20493 22268c88,107 141,245 141,394 0,343 -278,622 -621,622 -192,0 -363,-87 -477,-223 0,0 469,179 758,-109 288,-289 199,-684 199,-684z"/>
   </g>
   <path class="fil8" d="M8542 18690c-16,26 -49,34 -75,17 -26,-16 -33,-50 -17,-76 15,-25 49,-33 75,-17 25,16 33,50 17,76z"/>
   <path class="fil2" d="M4479 12240c-16,26 -50,34 -75,17 -26,-16 -34,-50 -18,-76 16,-25 50,-33 75,-17 26,16 34,50 18,76z"/>
   <polygon class="fil12" points="19335,13217 19312,13264 19329,13254 "/>
   <path class="fil1" d="M13046 16891c-16,-25 -49,-33 -75,-17 -26,16 -33,50 -17,76 16,26 49,34 75,17 26,-16 33,-50 17,-76z"/>
   <path class="fil3" d="M16848 10516c-16,-26 -50,-34 -76,-18 -25,16 -33,50 -17,76 16,26 50,34 75,18 26,-17 34,-51 18,-76z"/>
   <path class="fil3" d="M15691 9942c-16,-26 -50,-34 -76,-18 -25,16 -33,50 -17,76 16,26 50,34 75,18 26,-16 34,-50 18,-76z"/>
   <path class="fil2" d="M15085 16408c-16,-26 -50,-34 -75,-18 -26,17 -34,51 -18,76 16,26 50,34 76,18 25,-16 33,-50 17,-76z"/>
   <path class="fil8" d="M22547 9348c16,26 50,34 75,18 26,-16 34,-50 18,-76 -16,-26 -50,-34 -75,-18 -26,16 -34,50 -18,76z"/>
   <path class="fil8" d="M24351 9880c16,26 49,34 75,18 26,-16 33,-50 17,-76 -16,-26 -49,-34 -75,-18 -25,16 -33,50 -17,76z"/>
   <path class="fil2" d="M6395 17613c16,26 50,34 75,17 26,-16 34,-50 18,-76 -16,-25 -50,-33 -75,-17 -26,16 -34,50 -18,76z"/>
   <path class="fil3" d="M20499 11401c16,25 50,33 75,17 26,-16 34,-50 18,-76 -16,-26 -50,-34 -76,-17 -25,16 -33,50 -17,76z"/>
   <path class="fil2" d="M9868 19210c16,25 49,33 75,17 26,-16 33,-50 17,-76 -16,-26 -49,-34 -75,-17 -25,16 -33,50 -17,76z"/>
   <path class="fil8" d="M22253 13817c16,26 49,34 75,17 25,-16 33,-50 17,-76 -16,-25 -49,-33 -75,-17 -26,16 -33,50 -17,76z"/>
   <path class="fil8" d="M18830 10302c16,25 50,33 75,17 26,-16 34,-50 18,-76 -16,-26 -50,-33 -76,-17 -25,16 -33,50 -17,76z"/>
   <path class="fil8" d="M13585 11293c16,25 49,33 75,17 25,-16 33,-50 17,-76 -16,-26 -49,-34 -75,-18 -26,17 -33,51 -17,77z"/>
   <path class="fil2" d="M25442 15888c16,26 50,34 76,18 25,-16 33,-50 17,-76 -16,-26 -50,-34 -75,-18 -26,17 -34,51 -18,76z"/>
   <path class="fil3" d="M7140 12929c-16,26 -49,33 -75,17 -26,-16 -33,-50 -17,-76 16,-26 49,-34 75,-17 25,16 33,50 17,76z"/>
   <path class="fil2" d="M15563 11806c-16,26 -50,33 -76,17 -25,-16 -33,-50 -17,-76 16,-26 50,-33 75,-17 26,16 34,50 18,76z"/>
   <path class="fil1" d="M15058 11726c-16,25 -50,33 -76,17 -25,-16 -33,-50 -17,-76 16,-26 50,-34 75,-17 26,16 34,50 18,76z"/>
   <path class="fil3" d="M12515 11135c-16,26 -50,34 -75,18 -26,-16 -34,-50 -18,-76 16,-26 50,-34 76,-18 25,16 33,50 17,76z"/>
   <path class="fil1" d="M7846 11596c-16,26 -50,33 -75,17 -26,-16 -34,-50 -18,-76 16,-26 50,-34 76,-17 25,16 33,50 17,76z"/>
   <path class="fil3" d="M15990 12716c-16,26 -50,34 -76,18 -25,-16 -33,-50 -17,-76 16,-26 50,-34 75,-18 26,16 34,50 18,76z"/>
   <path class="fil8" d="M15203 14067c-119,-4 -215,-102 -216,-223l-2 0c0,121 -96,219 -215,223 120,4 216,102 216,224l1 0c0,-122 96,-220 216,-224z"/>
   <path class="fil1" d="M2414 15803c16,26 50,34 76,18 25,-16 33,-50 17,-76 -16,-26 -50,-34 -75,-18 -26,16 -34,50 -18,76z"/>
   <path class="fil3" d="M2135 13612c16,26 50,34 75,18 26,-16 34,-50 18,-76 -16,-26 -50,-34 -76,-18 -25,16 -33,50 -17,76z"/>
   <path class="fil3" d="M1104 10692c16,26 50,34 76,18 25,-16 33,-50 17,-76 -16,-26 -50,-34 -75,-18 -26,17 -34,51 -18,76z"/>
   <path class="fil3" d="M11056 17128c16,26 50,34 75,18 26,-16 34,-50 18,-76 -16,-26 -50,-34 -76,-18 -25,16 -33,50 -17,76z"/>
   <path class="fil2" d="M2780 16388c16,26 49,34 75,18 26,-16 33,-50 18,-76 -16,-26 -50,-34 -76,-18 -25,17 -33,51 -17,76z"/>
   <path class="fil2" d="M1751 14897c16,26 50,33 75,17 26,-16 34,-50 18,-76 -16,-26 -50,-34 -76,-17 -25,16 -33,50 -17,76z"/>
   <path class="fil3" d="M331 14640c15,26 49,34 75,18 25,-16 33,-50 17,-76 -16,-26 -49,-34 -75,-18 -26,16 -33,50 -17,76z"/>
   <path class="fil3" d="M1303 17241c16,26 49,34 75,18 26,-16 33,-50 17,-76 -15,-26 -49,-34 -75,-18 -25,16 -33,51 -17,76z"/>
   <path class="fil3" d="M22323 16163c16,26 49,34 75,18 26,-16 33,-50 18,-76 -16,-26 -50,-34 -76,-18 -25,16 -33,50 -17,76z"/>
   <path class="fil0" d="M3136 7044c19,0 19,28 0,28 -18,0 -18,-28 0,-28z"/>
   <path class="fil0" d="M3427 7030c37,0 37,56 0,56 -36,0 -36,-56 0,-56z"/>
   <path class="fil0" d="M3039 9217c47,0 47,73 0,73 -47,0 -47,-73 0,-73z"/>
   <path class="fil8" d="M16760 8512c-16,-25 -50,-33 -75,-17 -26,16 -34,50 -18,76 16,26 50,34 76,17 25,-16 33,-50 17,-76z"/>
   <path class="fil2" d="M25545 8906c16,26 50,33 76,17 25,-16 33,-50 17,-76 -16,-26 -50,-33 -75,-17 -26,16 -34,50 -18,76z"/>
   <path class="fil8" d="M19060 8827c16,26 49,34 75,17 25,-16 33,-50 17,-76 -16,-25 -49,-33 -75,-17 -26,16 -33,50 -17,76z"/>
   <path class="fil8" d="M21341 7885c16,26 50,33 75,17 26,-16 34,-50 18,-76 -16,-25 -50,-33 -75,-17 -26,16 -34,50 -18,76z"/>
   <path class="fil1" d="M3045 8065c-16,26 -50,34 -75,18 -26,-16 -34,-50 -18,-76 16,-26 50,-34 75,-18 26,16 34,50 18,76z"/>
   <path class="fil3" d="M16280 8972c-16,25 -49,33 -75,17 -26,-16 -33,-50 -17,-76 16,-26 49,-34 75,-17 25,16 33,50 17,76z"/>
   <path class="fil1" d="M13238 8939c-16,26 -50,34 -75,18 -26,-16 -34,-50 -18,-76 16,-26 50,-34 76,-18 25,17 33,51 17,76z"/>
   <path class="fil2" d="M10610 9078c-16,26 -49,33 -75,17 -25,-16 -33,-50 -17,-76 16,-25 49,-33 75,-17 26,16 33,50 17,76z"/>
   <path class="fil3" d="M9462 8078c-16,25 -50,33 -75,17 -26,-16 -34,-50 -18,-76 16,-26 50,-34 76,-17 25,16 33,50 17,76z"/>
   <path class="fil3" d="M12221 7854c-16,26 -50,34 -75,18 -26,-17 -34,-51 -18,-76 16,-26 50,-34 75,-18 26,16 34,50 18,76z"/>
   <path class="fil3" d="M14198 7692c-16,25 -49,33 -75,17 -25,-16 -33,-50 -17,-76 16,-26 49,-34 75,-18 26,17 33,51 17,77z"/>
   <path class="fil1" d="M6726 8776c-16,26 -50,34 -75,17 -26,-16 -34,-50 -18,-76 16,-25 50,-33 75,-17 26,16 34,50 18,76z"/>
   <path class="fil3" d="M24725 7039c-16,26 -50,34 -75,18 -26,-16 -34,-50 -18,-76 16,-26 50,-34 76,-18 25,16 33,50 17,76z"/>
   <path class="fil1" d="M8909 7677c-16,26 -49,34 -75,18 -26,-16 -33,-50 -18,-76 16,-26 50,-34 76,-18 25,16 33,50 17,76z"/>
  </g>
 </g>
</svg>
