<?xml version="1.0" encoding="UTF-8"?>
<!DOCTYPE svg PUBLIC "-//W3C//DTD SVG 1.1//EN" "http://www.w3.org/Graphics/SVG/1.1/DTD/svg11.dtd">
<!-- Creator: CorelDRAW X7 -->
<svg xmlns="http://www.w3.org/2000/svg" xml:space="preserve" width="100%" height="100%" version="1.1" style="shape-rendering:geometricPrecision; text-rendering:geometricPrecision; image-rendering:optimizeQuality; fill-rule:evenodd; clip-rule:evenodd"
viewBox="0 0 21675 13039"
 xmlns:xlink="http://www.w3.org/1999/xlink">
 <defs>
  <style type="text/css">
   <![CDATA[
    .fil5 {fill:#A6B7DE}
    .fil3 {fill:#686AA2}
    .fil1 {fill:white}
    .fil2 {fill:#FEFEFE;fill-rule:nonzero}
    .fil0 {fill:#686AA2;fill-rule:nonzero}
    .fil8 {fill:#D2AE6D;fill-rule:nonzero}
    .fil6 {fill:#F2D394;fill-rule:nonzero}
    .fil7 {fill:white;fill-rule:nonzero}
    .fil4 {fill:white;fill-rule:nonzero}
   ]]>
  </style>
 </defs>
 <g id="Layer_x0020_1">
  <metadata id="CorelCorpID_0Corel-Layer"/>
  <g id="_2717379727136">
   <polygon class="fil0" points="21666,12275 11721,12275 10837,13033 9954,12275 8,12275 8,5 21666,5 "/>
   <circle class="fil1" cx="10837" cy="4578" r="3434"/>
   <path class="fil2" d="M2413 10220c0,55 8,106 26,152 18,46 47,85 89,118 41,33 97,59 165,77 69,18 154,27 255,27 73,0 143,-5 210,-16 68,-10 127,-25 178,-45 52,-20 93,-44 124,-73 30,-29 45,-61 45,-98 0,-33 -11,-60 -32,-82 -21,-22 -62,-48 -121,-77 -42,-22 -81,-44 -117,-66 -36,-22 -68,-47 -93,-75 -26,-28 -47,-58 -63,-93 -16,-34 -23,-75 -23,-122 0,-54 9,-108 29,-163 19,-54 48,-104 86,-148 39,-45 87,-81 145,-108 58,-28 126,-42 206,-42 47,0 88,6 123,16 36,11 57,18 63,20l0 178c-29,-8 -59,-15 -92,-21 -33,-6 -66,-9 -99,-9 -47,0 -88,8 -123,22 -36,15 -66,35 -89,59 -24,24 -42,51 -53,80 -12,30 -18,60 -18,89 0,29 5,53 16,73 10,20 24,39 43,56 18,17 39,33 63,47 25,14 51,29 79,44 48,27 88,52 121,75 32,22 58,44 77,65 19,21 33,43 41,65 9,21 13,45 13,70 0,60 -13,117 -40,172 -27,55 -70,104 -130,146 -59,42 -135,77 -229,102 -94,27 -207,39 -340,39 -133,0 -244,-12 -335,-39 -90,-25 -163,-61 -217,-108 -55,-46 -95,-100 -119,-163 -24,-63 -36,-131 -36,-206l0 -316 172 0 0 278zm2042 57c-47,0 -86,-10 -117,-31 -31,-21 -54,-46 -69,-74 0,101 -6,187 -18,256 -13,70 -35,127 -69,170 -34,43 -80,74 -140,93 -59,19 -136,29 -231,29l0 -176c69,0 123,-8 162,-22 39,-15 68,-39 87,-72 19,-33 31,-76 34,-127 4,-52 5,-114 5,-187l0 -568 172 0 0 301c0,72 13,128 39,170 26,42 75,62 145,62 56,0 84,29 84,85 0,35 -6,59 -20,72 -13,13 -35,19 -64,19zm-1 0c-57,0 -85,-28 -85,-85 0,-35 7,-59 20,-71 13,-13 35,-20 65,-20l330 0 0 -638 173 0 0 814 -503 0zm268 315c0,-31 11,-57 33,-79 22,-22 49,-32 80,-32 31,0 57,10 79,32 22,22 32,48 32,79 0,31 -10,58 -32,80 -22,22 -48,33 -79,33 -31,0 -58,-11 -80,-33 -22,-22 -33,-49 -33,-80zm684 -1024l171 0 0 590c0,105 -6,193 -18,264 -12,72 -35,129 -69,173 -33,44 -80,76 -140,95 -60,20 -138,30 -233,30l0 -176c69,0 123,-8 162,-22 39,-15 68,-39 87,-72 20,-33 31,-76 34,-127 4,-52 6,-114 6,-187l0 -568zm909 618c0,35 -6,59 -20,72 -13,13 -35,19 -64,19l-55 0c-46,0 -87,-4 -124,-14 -38,-9 -69,-25 -96,-47 -26,-23 -46,-53 -61,-90 -15,-38 -22,-85 -22,-141l0 -1219 173 0 0 1172c0,59 10,101 28,126 19,25 60,37 123,37l34 0c56,0 84,29 84,85zm-84 91c-57,0 -85,-28 -85,-85 0,-35 7,-59 20,-71 13,-13 35,-20 65,-20l505 0c52,0 96,-9 131,-27 35,-18 52,-54 52,-106 0,-37 -17,-78 -52,-125 -35,-48 -81,-96 -138,-145 -57,-48 -123,-97 -197,-144 -74,-47 -150,-90 -227,-127 1,-18 6,-35 12,-53 7,-17 15,-33 24,-48 8,-15 17,-28 26,-39 9,-12 17,-20 23,-24l774 -341 0 172 -622 275c98,58 182,114 251,169 69,55 126,108 169,159 43,51 74,100 94,148 19,47 29,91 29,133 0,30 -4,63 -13,98 -9,36 -26,68 -52,98 -25,29 -61,54 -108,74 -46,19 -106,29 -180,29l-501 0zm3316 0l-1282 0c-82,0 -151,-5 -205,-17 -54,-11 -98,-29 -131,-54 -33,-24 -57,-56 -71,-95 -14,-39 -21,-86 -21,-143l0 -328 173 0 0 265c0,43 6,78 17,104 10,26 28,47 53,60 25,13 60,22 104,26 43,4 99,6 167,6l1022 0 0 -638 174 0 0 814zm-942 322c0,-32 11,-58 33,-79 22,-22 49,-33 79,-33 31,0 58,11 80,33 21,21 32,47 32,79 0,31 -11,57 -32,79 -22,22 -49,33 -80,33 -30,0 -57,-11 -79,-33 -22,-22 -33,-48 -33,-79zm1680 -413c0,35 -6,59 -20,72 -13,13 -35,19 -64,19l-55 0c-46,0 -87,-4 -124,-14 -37,-9 -69,-25 -95,-47 -26,-23 -47,-53 -62,-90 -15,-38 -22,-85 -22,-141l0 -1219 174 0 0 1172c0,59 9,101 28,126 18,25 59,37 123,37l33 0c56,0 84,29 84,85zm-10 -85c47,0 87,-1 118,-4 32,-3 58,-9 78,-20 19,-10 32,-26 41,-46 8,-21 12,-48 12,-84l0 -379 174 0 0 301c0,35 2,67 7,96 4,29 14,53 30,73 15,19 37,35 66,47 29,11 68,16 117,16 31,0 58,-1 81,-4 22,-3 41,-9 57,-20 15,-10 27,-26 34,-46 8,-21 12,-48 12,-84l0 -379 174 0 0 301c0,35 2,67 7,96 6,29 16,53 30,73 15,19 36,35 62,47 26,11 60,16 102,16 24,0 46,-1 66,-4 19,-3 36,-9 51,-20 14,-10 25,-26 33,-46 7,-21 11,-48 11,-84l0 -484 174 0 0 406c0,35 2,67 7,96 5,29 14,53 29,73 14,19 33,35 57,47 23,11 54,16 91,16 57,0 85,29 85,85 0,35 -7,59 -20,72 -14,13 -35,19 -65,19 -55,0 -99,-13 -133,-39 -34,-26 -57,-59 -68,-98 -13,29 -30,53 -53,70 -23,18 -47,32 -73,42 -25,10 -50,17 -73,20 -24,3 -45,5 -62,5 -47,0 -86,-4 -118,-13 -31,-8 -58,-19 -79,-32 -21,-13 -37,-28 -49,-45 -13,-16 -22,-32 -29,-47 -25,57 -64,95 -117,112 -53,17 -116,25 -190,25 -50,0 -91,-4 -124,-12 -33,-8 -60,-18 -81,-31 -21,-13 -38,-28 -51,-46 -12,-17 -23,-34 -31,-51 -13,30 -29,54 -48,71 -19,18 -44,32 -74,43 -30,11 -68,18 -112,21 -45,3 -98,5 -160,5l-70 0c-57,0 -85,-28 -85,-85 0,-35 7,-59 20,-71 14,-13 35,-20 65,-20l74 0zm2571 0c0,-90 -12,-166 -36,-228 -24,-62 -56,-112 -97,-151 -41,-39 -89,-68 -144,-85 -55,-18 -113,-27 -174,-27 -40,0 -84,4 -130,12 -46,7 -83,16 -113,25l0 -170c29,-8 66,-18 112,-28 47,-11 98,-16 153,-16 107,0 200,18 277,55 77,36 140,86 190,149 49,63 86,136 109,220 23,84 35,172 35,265l0 155 -1031 0c-56,0 -85,-28 -85,-85 0,-35 7,-59 21,-71 13,-13 35,-20 64,-20l849 0zm1051 -377c0,60 19,108 56,144 38,37 97,56 179,56 31,0 64,-4 100,-11 36,-7 69,-16 97,-27l0 -377 -186 0c-68,0 -125,17 -174,51 -48,35 -72,89 -72,164zm220 380c-34,0 -73,-5 -117,-16 -45,-9 -87,-27 -127,-53 -41,-26 -75,-63 -103,-110 -28,-48 -42,-110 -42,-185 0,-77 13,-141 40,-192 27,-51 61,-93 104,-126 42,-32 89,-55 140,-69 51,-15 103,-22 154,-22l337 0 0 607c0,59 9,101 27,126 18,25 59,37 123,37l50 0c56,0 85,29 85,85 0,35 -7,59 -20,72 -14,13 -35,19 -65,19l-71 0c-37,0 -72,-3 -105,-9 -34,-6 -63,-18 -90,-34 -26,-17 -48,-38 -66,-65 -18,-26 -30,-61 -36,-104 -31,11 -66,21 -105,28 -38,7 -76,11 -113,11zm586 173c-56,0 -85,-28 -85,-85 0,-35 7,-59 20,-71 14,-13 35,-20 65,-20l330 0 0 -638 173 0 0 814 -503 0zm269 315c0,-31 10,-57 33,-79 22,-22 48,-32 79,-32 31,0 58,10 79,32 22,22 33,48 33,79 0,31 -11,58 -33,80 -21,22 -48,33 -79,33 -31,0 -57,-11 -79,-33 -23,-22 -33,-49 -33,-80zm1813 -547c0,67 -23,123 -70,167 -47,43 -114,65 -203,65l-507 0 0 -176 492 0c49,0 79,-7 91,-22 13,-15 19,-31 19,-50 0,-14 -3,-28 -8,-44 -6,-15 -20,-41 -42,-75 -22,-35 -54,-83 -95,-144 -42,-62 -99,-145 -170,-251l163 -102c56,97 105,179 147,246 41,66 75,122 102,169 27,47 47,86 61,120 13,34 20,66 20,97zm573 232c-55,0 -106,-6 -153,-19 -47,-13 -88,-33 -123,-62 -35,-29 -62,-68 -83,-116 -20,-48 -30,-107 -30,-177 0,-57 9,-112 27,-166 18,-55 45,-103 80,-146 35,-42 79,-76 131,-101 53,-26 113,-39 180,-39 75,0 139,14 190,42 51,27 93,65 124,114 31,49 53,106 66,173 14,68 20,142 20,222l0 199c0,106 -14,192 -42,259 -28,67 -68,120 -121,159 -51,39 -116,65 -192,79 -76,14 -161,22 -256,22l-89 0 0 -176 66 0c67,0 129,-3 185,-9 56,-5 104,-18 144,-38 40,-20 71,-49 94,-86 22,-39 34,-90 34,-155l0 -40c-26,16 -59,30 -100,42 -40,13 -91,19 -152,19zm-220 -394c0,81 22,138 65,173 43,35 100,52 172,52 54,0 101,-7 142,-22 41,-14 72,-29 93,-46l0 -78c0,-48 -4,-94 -12,-136 -7,-42 -20,-79 -39,-109 -18,-30 -42,-54 -71,-72 -30,-17 -66,-26 -109,-26 -43,0 -80,8 -111,25 -30,17 -55,38 -74,64 -19,25 -34,53 -42,84 -9,31 -14,62 -14,91zm1077 -315l172 0 0 590c0,105 -6,193 -18,264 -13,72 -35,129 -69,173 -34,44 -81,76 -141,95 -60,20 -137,30 -232,30l0 -176c68,0 122,-8 162,-22 38,-15 68,-39 87,-72 19,-33 30,-76 34,-127 4,-52 5,-114 5,-187l0 -568zm790 709c-55,0 -106,-6 -154,-19 -47,-13 -88,-33 -123,-62 -34,-29 -62,-68 -82,-116 -21,-48 -31,-107 -31,-177 0,-57 9,-112 28,-166 18,-55 45,-103 80,-146 35,-42 79,-76 131,-101 52,-26 112,-39 180,-39 75,0 138,14 190,42 51,27 92,65 123,114 31,49 53,106 67,173 13,68 20,142 20,222l0 199c0,106 -14,192 -43,259 -28,67 -68,120 -120,159 -52,39 -116,65 -192,79 -76,14 -162,22 -256,22l-89 0 0 -176 65 0c68,0 129,-3 185,-9 56,-5 104,-18 144,-38 41,-20 72,-49 94,-86 23,-39 34,-90 34,-155l0 -40c-25,16 -59,30 -99,42 -41,13 -92,19 -152,19zm-220 -394c0,81 21,138 64,173 43,35 101,52 172,52 54,0 101,-7 143,-22 40,-14 71,-29 92,-46l0 -78c0,-48 -4,-94 -11,-136 -8,-42 -21,-79 -39,-109 -18,-30 -42,-54 -72,-72 -30,-17 -66,-26 -108,-26 -44,0 -81,8 -111,25 -30,17 -55,38 -75,64 -19,25 -33,53 -42,84 -9,31 -13,62 -13,91z"/>
   <path class="fil3" d="M9790 4641l1879 0 -401 400 99 91 518 -509 0 -90 -518 -509 -94 90 396 401 -1879 0 0 126zm3039 -63c0,531 -208,1032 -585,1407 -375,377 -875,584 -1407,584 -531,0 -1032,-207 -1409,-584 -375,-375 -582,-876 -582,-1407 0,-532 207,-1032 582,-1409 377,-375 878,-582 1409,-582 532,0 1032,207 1407,582 377,377 585,877 585,1409zm-3313 -1321c-352,353 -547,823 -547,1321 0,498 195,968 547,1321 353,351 823,545 1321,545 499,0 968,-194 1321,-545 351,-353 545,-823 545,-1321 0,-498 -194,-968 -545,-1321 -353,-353 -822,-547 -1321,-547 -498,0 -968,194 -1321,547z"/>
   <g>
    <path class="fil4" d="M20782 934c-47,0 -47,73 0,73 47,0 47,-73 0,-73z"/>
    <polygon class="fil5" points="4487,4934 4509,4981 4493,4971 "/>
    <path class="fil2" d="M4222 5804c16,-26 50,-34 75,-18 26,16 34,50 18,76 -16,26 -50,34 -76,18 -25,-16 -33,-50 -17,-76z"/>
    <path class="fil6" d="M4401 7319c16,-26 49,-34 75,-18 26,16 33,51 17,76 -16,26 -49,34 -75,18 -25,-16 -33,-50 -17,-76z"/>
    <path class="fil4" d="M5839 2054c16,-26 50,-34 75,-18 26,16 34,50 18,76 -16,26 -50,34 -76,18 -25,-16 -33,-51 -17,-76z"/>
    <path class="fil4" d="M1274 1065c-16,26 -49,34 -75,18 -25,-16 -33,-50 -17,-76 16,-26 49,-34 75,-18 26,16 33,50 17,76z"/>
    <path class="fil2" d="M3323 3117c-16,26 -50,34 -76,18 -25,-16 -33,-50 -17,-76 16,-26 50,-34 75,-18 26,17 34,51 18,76z"/>
    <path class="fil4" d="M4762 544c-16,26 -50,33 -75,17 -26,-16 -34,-50 -18,-76 16,-26 50,-33 76,-17 25,16 33,50 17,76z"/>
    <path class="fil6" d="M659 4033c-16,26 -50,34 -76,18 -25,-16 -33,-50 -17,-76 16,-26 50,-34 75,-18 26,17 34,51 18,76z"/>
    <path class="fil4" d="M1569 5534c-16,26 -50,33 -75,17 -26,-16 -34,-50 -18,-76 16,-25 50,-33 76,-17 25,16 33,50 17,76z"/>
    <path class="fil4" d="M16681 4646c16,25 50,33 76,17 25,-16 33,-50 17,-76 -16,-26 -50,-34 -75,-17 -26,16 -34,50 -18,76z"/>
    <path class="fil2" d="M7674 1003c16,26 49,33 75,17 25,-16 33,-50 17,-76 -16,-26 -49,-33 -75,-17 -26,16 -33,50 -17,76z"/>
    <path class="fil4" d="M18276 1043c16,26 50,33 75,17 26,-16 34,-50 18,-76 -16,-26 -50,-33 -76,-17 -25,16 -33,50 -17,76z"/>
    <path class="fil4" d="M15904 2813c16,26 49,34 75,18 26,-16 33,-50 17,-76 -16,-26 -49,-34 -75,-18 -25,16 -33,50 -17,76z"/>
    <path class="fil7" d="M13308 1114c15,26 49,34 75,18 25,-16 33,-50 17,-76 -16,-26 -49,-34 -75,-18 -26,16 -33,50 -17,76z"/>
    <path class="fil4" d="M20077 10842c16,26 50,34 76,18 25,-16 33,-50 17,-76 -16,-26 -49,-34 -75,-18 -26,16 -33,50 -18,76z"/>
    <path class="fil2" d="M1815 9461c15,26 49,34 75,18 25,-17 33,-51 17,-76 -16,-26 -49,-34 -75,-18 -26,16 -33,50 -17,76z"/>
    <path class="fil4" d="M6295 7219c119,-4 215,-102 216,-223l2 0c0,121 96,219 215,223 -119,4 -215,102 -215,224l-2 0c0,-122 -96,-220 -216,-224z"/>
    <path class="fil4" d="M20845 7677c-16,26 -50,34 -75,18 -26,-16 -34,-50 -18,-76 16,-26 50,-34 76,-18 25,16 33,50 17,76z"/>
    <path class="fil4" d="M19716 5541c-16,26 -49,33 -75,17 -26,-16 -33,-50 -18,-76 16,-26 50,-34 76,-17 25,16 33,50 17,76z"/>
    <path class="fil4" d="M16333 6174c-16,26 -50,33 -75,17 -26,-16 -34,-50 -18,-76 16,-26 50,-34 75,-17 26,16 34,50 18,76z"/>
    <path class="fil4" d="M20479 8262c-15,26 -49,34 -75,18 -25,-16 -33,-50 -17,-76 16,-26 49,-34 75,-18 26,17 33,51 17,76z"/>
    <path class="fil4" d="M17637 7010c-16,26 -50,33 -75,17 -26,-16 -34,-50 -18,-76 16,-26 50,-34 75,-17 26,16 34,50 18,76z"/>
    <path class="fil2" d="M1499 7880c-16,26 -50,34 -75,18 -26,-16 -34,-50 -18,-76 16,-26 50,-34 75,-18 26,16 34,50 18,76z"/>
    <path class="fil4" d="M19830 3122c192,-6 346,-164 347,-359l3 0c2,195 155,353 347,359 -192,7 -347,166 -347,362l-3 0c0,-196 -154,-355 -347,-362z"/>
    <path class="fil8" d="M1170 11481c18,0 18,28 0,28 -18,0 -18,-28 0,-28z"/>
    <path class="fil8" d="M1461 11467c36,0 36,56 0,56 -36,0 -36,-56 0,-56z"/>
   </g>
  </g>
 </g>
</svg>
