<?xml version="1.0" encoding="UTF-8"?>
<!DOCTYPE svg PUBLIC "-//W3C//DTD SVG 1.1//EN" "http://www.w3.org/Graphics/SVG/1.1/DTD/svg11.dtd">
<!-- Creator: CorelDRAW X7 -->
<svg xmlns="http://www.w3.org/2000/svg" xml:space="preserve" width="100%" height="100%" version="1.1" style="shape-rendering:geometricPrecision; text-rendering:geometricPrecision; image-rendering:optimizeQuality; fill-rule:evenodd; clip-rule:evenodd"
viewBox="0 0 21675 13039"
 xmlns:xlink="http://www.w3.org/1999/xlink">
 <defs>
  <style type="text/css">
   <![CDATA[
    .fil5 {fill:#A6B7DE}
    .fil3 {fill:#686AA2}
    .fil1 {fill:white}
    .fil2 {fill:#FEFEFE;fill-rule:nonzero}
    .fil0 {fill:#686AA2;fill-rule:nonzero}
    .fil8 {fill:#D2AE6D;fill-rule:nonzero}
    .fil6 {fill:#F2D394;fill-rule:nonzero}
    .fil7 {fill:white;fill-rule:nonzero}
    .fil4 {fill:white;fill-rule:nonzero}
   ]]>
  </style>
 </defs>
 <g id="Layer_x0020_1">
  <metadata id="CorelCorpID_0Corel-Layer"/>
  <g id="_2717376745152">
   <polygon class="fil0" points="21666,12275 11721,12275 10837,13033 9954,12275 8,12275 8,5 21666,5 "/>
   <circle class="fil1" cx="10837" cy="4578" r="3434"/>
   <path class="fil2" d="M4787 10277c-55,0 -100,-13 -134,-39 -33,-26 -56,-59 -68,-98 -12,29 -29,53 -50,70 -21,18 -48,32 -80,42 -32,10 -70,17 -115,20 -46,3 -98,5 -159,5l-861 0c-82,0 -150,-5 -205,-17 -54,-11 -98,-29 -131,-54 -33,-24 -57,-56 -71,-95 -14,-39 -21,-86 -21,-143l0 -328 174 0 0 265c0,43 5,78 16,104 11,26 29,47 54,60 25,13 59,22 103,26 44,4 100,6 168,6l772 0c47,0 87,-1 119,-4 32,-3 58,-9 77,-20 19,-10 32,-26 41,-46 9,-21 13,-48 13,-84l0 -484 174 0 0 406c0,35 2,67 7,96 5,29 14,53 28,73 15,19 34,35 58,47 24,11 54,16 91,16 56,0 84,29 84,85 0,35 -6,59 -20,72 -13,13 -35,19 -64,19zm-782 319c0,31 -11,58 -32,80 -22,22 -49,33 -79,33 -31,0 -58,-11 -80,-33 -22,-22 -33,-49 -33,-80 0,-31 11,-57 33,-79 22,-21 49,-32 80,-32 30,0 57,11 79,32 21,22 32,48 32,79zm-275 0c0,31 -11,58 -32,80 -22,22 -48,33 -79,33 -32,0 -58,-11 -80,-33 -22,-22 -33,-49 -33,-80 0,-31 11,-57 33,-79 22,-21 48,-32 80,-32 31,0 57,11 79,32 21,22 32,48 32,79zm134 255c0,31 -11,57 -33,80 -22,21 -48,32 -79,32 -31,0 -58,-11 -79,-32 -23,-23 -34,-49 -34,-80 0,-31 11,-58 34,-80 21,-22 48,-33 79,-33 31,0 57,11 79,33 22,22 33,49 33,80zm922 -574c-57,0 -85,-28 -85,-85 0,-35 7,-59 20,-71 13,-13 35,-20 65,-20l329 0 0 -638 174 0 0 814 -503 0zm86 319c0,-31 11,-57 33,-79 22,-21 49,-32 80,-32 31,0 57,11 79,32 22,22 33,48 33,79 0,31 -11,58 -33,80 -22,22 -48,33 -79,33 -31,0 -58,-11 -80,-33 -22,-22 -33,-49 -33,-80zm275 0c0,-31 11,-57 33,-79 23,-21 49,-32 80,-32 31,0 57,11 79,32 22,22 33,48 33,79 0,31 -11,58 -33,80 -22,22 -48,33 -79,33 -31,0 -57,-11 -80,-33 -22,-22 -33,-49 -33,-80zm1280 -319c-58,0 -107,-12 -146,-36 -39,-24 -79,-67 -119,-129 -15,38 -36,68 -60,91 -25,22 -52,39 -82,50 -31,10 -63,17 -96,20 -34,3 -68,4 -102,4l-322 0 0 -176 379 0c59,0 105,-7 137,-22 31,-15 47,-36 47,-64 0,-27 -7,-54 -21,-81 -14,-27 -32,-56 -52,-87l-226 -332 164 -102 254 422c28,47 53,87 74,121 21,34 41,61 60,82 20,21 38,37 56,48 17,10 36,15 55,15 56,0 85,29 85,85 0,35 -7,59 -20,72 -14,13 -35,19 -65,19zm294 -1171c0,-31 11,-57 33,-79 22,-22 49,-33 80,-33 31,0 57,11 79,33 21,22 32,48 32,79 0,31 -11,58 -32,80 -22,22 -48,33 -79,33 -31,0 -58,-11 -80,-33 -22,-22 -33,-49 -33,-80zm-296 1171c-57,0 -85,-28 -85,-85 0,-35 7,-59 20,-71 14,-13 35,-20 65,-20l330 0 0 -638 173 0 0 814 -503 0zm1305 0c-47,0 -85,-10 -117,-31 -31,-21 -54,-46 -69,-74 0,101 -6,187 -18,256 -12,70 -35,127 -68,170 -34,43 -81,74 -140,93 -59,19 -136,29 -232,29l0 -176c69,0 123,-8 162,-22 39,-15 68,-39 87,-72 20,-33 31,-76 35,-127 3,-52 5,-114 5,-187l0 -568 171 0 0 301c0,72 13,128 40,170 26,42 74,62 144,62 57,0 85,29 85,85 0,35 -7,59 -20,72 -14,13 -35,19 -65,19zm74 -176c47,0 86,-1 118,-4 32,-3 58,-9 77,-20 19,-10 33,-26 41,-46 8,-21 13,-48 13,-84l0 -381 173 0 0 303c0,35 3,67 7,96 5,29 14,53 30,73 15,19 37,35 66,47 28,11 67,16 115,16 31,0 58,-1 82,-4 23,-3 43,-9 58,-20 16,-10 27,-26 35,-46 8,-21 12,-48 12,-84l0 -379 173 0 0 301c0,35 3,67 8,96 5,29 14,53 28,73 13,19 32,35 55,47 24,11 55,16 92,16l178 0 0 -638 172 0 0 814 -350 0c-55,0 -99,-13 -133,-39 -33,-26 -56,-59 -67,-98 -25,57 -65,95 -118,112 -54,17 -119,25 -195,25 -49,0 -90,-4 -121,-12 -32,-8 -59,-18 -80,-31 -21,-13 -37,-28 -49,-46 -12,-17 -22,-34 -31,-51 -12,30 -28,54 -47,71 -20,18 -44,32 -75,43 -30,11 -67,18 -112,21 -44,3 -98,5 -160,5l-70 0c-56,0 -85,-28 -85,-85 0,-35 7,-59 21,-71 13,-13 35,-20 64,-20l75 0zm2570 -533l172 0 0 590c0,105 -6,193 -18,264 -13,72 -35,129 -69,173 -34,44 -81,76 -141,95 -60,20 -137,30 -232,30l0 -176c69,0 123,-8 162,-22 39,-15 68,-39 87,-72 19,-33 31,-76 34,-127 4,-52 5,-114 5,-187l0 -568zm1162 477c0,67 -23,123 -70,167 -46,43 -114,65 -203,65l-506 0 0 -176 492 0c48,0 78,-7 91,-22 12,-15 18,-31 18,-50 0,-14 -3,-28 -8,-44 -5,-15 -19,-41 -41,-75 -22,-35 -54,-83 -96,-144 -42,-62 -98,-145 -170,-251l163 -102c57,97 106,179 147,246 41,66 75,122 102,169 27,47 47,86 61,120 13,34 20,66 20,97zm2586 232c-55,0 -99,-13 -133,-39 -34,-26 -57,-59 -68,-98 -13,29 -30,53 -51,70 -21,18 -47,32 -79,42 -32,10 -71,17 -116,20 -45,3 -98,5 -159,5l-861 0c-81,0 -150,-5 -204,-17 -54,-11 -99,-29 -131,-54 -34,-24 -57,-56 -71,-95 -14,-39 -21,-86 -21,-143l0 -328 173 0 0 265c0,43 5,78 16,104 11,26 29,47 54,60 25,13 60,22 103,26 44,4 100,6 168,6l772 0c47,0 87,-1 119,-4 32,-3 58,-9 77,-20 19,-10 33,-26 42,-46 8,-21 12,-48 12,-84l0 -484 174 0 0 406c0,35 2,67 7,96 5,29 15,53 29,73 14,19 33,35 57,47 24,11 55,16 91,16 56,0 85,29 85,85 0,35 -7,59 -20,72 -14,13 -35,19 -65,19zm-1283 -1048c0,-31 11,-57 33,-79 22,-22 49,-33 80,-33 31,0 57,11 79,33 22,22 33,48 33,79 0,31 -11,58 -33,79 -22,23 -48,34 -79,34 -31,0 -58,-11 -80,-34 -22,-21 -33,-48 -33,-79zm275 0c0,-31 11,-57 33,-79 22,-22 49,-33 80,-33 31,0 57,11 79,33 22,22 32,48 32,79 0,31 -10,58 -32,79 -22,23 -48,34 -79,34 -31,0 -58,-11 -80,-34 -22,-21 -33,-48 -33,-79zm1007 1048c-56,0 -85,-28 -85,-85 0,-35 7,-59 20,-71 14,-13 35,-20 65,-20l330 0 0 -638 173 0 0 814 -503 0zm87 319c0,-31 11,-57 33,-79 22,-21 48,-32 79,-32 31,0 58,11 79,32 22,22 33,48 33,79 0,31 -11,58 -33,80 -21,22 -48,33 -79,33 -31,0 -57,-11 -79,-33 -22,-22 -33,-49 -33,-80zm275 0c0,-31 11,-57 33,-79 22,-21 48,-32 79,-32 31,0 58,11 79,32 22,22 33,48 33,79 0,31 -11,58 -33,80 -21,22 -48,33 -79,33 -31,0 -57,-11 -79,-33 -22,-22 -33,-49 -33,-80zm1184 -319c-5,86 -23,157 -53,214 -31,57 -72,102 -125,135 -52,34 -114,58 -187,72 -72,14 -153,22 -242,22l-89 0 0 -176 66 0c65,0 125,-3 181,-10 55,-6 103,-18 144,-38 40,-19 72,-46 95,-80 23,-35 35,-81 37,-139l-239 0c-58,0 -111,-6 -160,-19 -48,-13 -91,-33 -127,-62 -36,-29 -64,-67 -85,-114 -20,-46 -30,-104 -30,-173 0,-58 9,-114 28,-169 19,-56 47,-104 83,-147 36,-42 80,-76 131,-103 51,-26 110,-39 176,-39 73,0 135,13 186,39 51,27 93,64 124,112 32,48 55,105 69,173 14,68 21,144 21,227l0 99 149 0c57,0 85,29 85,85 0,35 -7,59 -20,72 -14,13 -35,19 -65,19l-153 0zm-645 -385c0,71 21,124 62,158 42,35 103,51 183,51l227 0 0 -139c0,-106 -18,-190 -53,-251 -35,-61 -96,-92 -182,-92 -41,0 -76,8 -105,24 -30,16 -54,38 -74,64 -19,26 -34,55 -43,88 -10,32 -15,64 -15,97zm1526 385c-44,0 -80,-4 -108,-12 -29,-8 -52,-18 -69,-30 -18,-13 -32,-27 -43,-45 -10,-17 -20,-34 -28,-50 -13,29 -30,53 -51,70 -21,18 -48,32 -80,42 -33,10 -72,17 -118,20 -45,3 -99,5 -162,5l-70 0c-56,0 -84,-28 -84,-85 0,-35 6,-59 20,-71 13,-13 35,-20 64,-20l75 0c47,0 86,-1 118,-4 32,-3 58,-9 77,-20 19,-10 33,-26 41,-46 9,-21 13,-48 13,-84l0 -379 173 0 0 301c0,35 2,67 5,96 2,29 9,53 20,73 10,19 26,35 46,47 20,11 46,16 80,16 27,-78 64,-156 111,-236 48,-79 104,-151 169,-215 66,-64 140,-117 224,-157 83,-40 173,-60 270,-60 144,0 255,42 333,126 77,84 116,204 116,360l0 182 161 0c57,0 85,29 85,85 0,35 -7,59 -20,72 -14,13 -35,19 -65,19l-1303 0zm968 -176l0 -141c0,-51 -5,-98 -15,-141 -11,-43 -28,-80 -52,-111 -24,-31 -55,-55 -94,-72 -39,-17 -85,-26 -140,-26 -68,0 -131,15 -191,45 -60,29 -113,68 -161,114 -46,47 -88,99 -124,158 -36,58 -64,117 -86,174l863 0zm-402 -995c0,-31 12,-57 33,-79 23,-22 49,-33 80,-33 31,0 57,11 79,33 22,22 33,48 33,79 0,31 -11,58 -33,80 -22,22 -48,33 -79,33 -31,0 -57,-11 -80,-33 -21,-22 -33,-49 -33,-80zm737 1171c-56,0 -84,-28 -84,-85 0,-35 6,-59 20,-71 13,-13 35,-20 64,-20l261 0c-26,-26 -47,-61 -64,-103 -17,-43 -25,-91 -25,-145 0,-73 13,-136 41,-190 28,-54 64,-98 108,-133 45,-35 94,-61 148,-78 54,-17 109,-25 164,-25 50,0 93,2 130,8 36,5 62,11 78,18l0 189c-27,-8 -56,-15 -87,-22 -31,-6 -70,-10 -115,-10 -89,0 -159,22 -212,66 -51,44 -77,104 -77,180 0,71 22,130 66,176 45,46 113,69 207,69l309 0 0 176 -932 0z"/>
   <path class="fil3" d="M10774 5625l0 -1879 -400 401 -90 -99 508 -518 90 0 509 518 -90 95 -401 -397 0 1879 -126 0zm63 -3038c-531,0 -1032,207 -1407,584 -377,375 -584,875 -584,1407 0,531 207,1032 584,1409 375,375 876,582 1407,582 532,0 1032,-207 1410,-582 374,-377 582,-878 582,-1409 0,-532 -208,-1032 -582,-1407 -378,-377 -878,-584 -1410,-584zm1321 3312c-353,353 -822,547 -1321,547 -498,0 -968,-194 -1321,-547 -350,-353 -544,-823 -544,-1321 0,-498 194,-968 544,-1321 353,-351 823,-545 1321,-545 499,0 968,194 1321,545 353,353 547,823 547,1321 0,498 -194,968 -547,1321z"/>
   <g>
    <path class="fil4" d="M20782 934c-47,0 -47,73 0,73 47,0 47,-73 0,-73z"/>
    <polygon class="fil5" points="4487,4934 4509,4981 4493,4971 "/>
    <path class="fil2" d="M4222 5804c16,-26 50,-34 75,-18 26,16 34,50 18,76 -16,26 -50,34 -76,18 -25,-16 -33,-50 -17,-76z"/>
    <path class="fil6" d="M4401 7319c16,-26 49,-34 75,-18 26,16 33,51 17,76 -16,26 -49,34 -75,18 -25,-16 -33,-50 -17,-76z"/>
    <path class="fil4" d="M5839 2054c16,-26 50,-34 75,-18 26,16 34,50 18,76 -16,26 -50,34 -76,18 -25,-16 -33,-51 -17,-76z"/>
    <path class="fil4" d="M1274 1065c-16,26 -49,34 -75,18 -25,-16 -33,-50 -17,-76 16,-26 49,-34 75,-18 26,16 33,50 17,76z"/>
    <path class="fil2" d="M3323 3117c-16,26 -50,34 -76,18 -25,-16 -33,-50 -17,-76 16,-26 50,-34 75,-18 26,17 34,51 18,76z"/>
    <path class="fil4" d="M4762 544c-16,26 -50,33 -75,17 -26,-16 -34,-50 -18,-76 16,-26 50,-33 76,-17 25,16 33,50 17,76z"/>
    <path class="fil6" d="M659 4033c-16,26 -50,34 -76,18 -25,-16 -33,-50 -17,-76 16,-26 50,-34 75,-18 26,17 34,51 18,76z"/>
    <path class="fil4" d="M1569 5534c-16,26 -50,33 -75,17 -26,-16 -34,-50 -18,-76 16,-25 50,-33 76,-17 25,16 33,50 17,76z"/>
    <path class="fil4" d="M16681 4646c16,25 50,33 76,17 25,-16 33,-50 17,-76 -16,-26 -50,-34 -75,-17 -26,16 -34,50 -18,76z"/>
    <path class="fil2" d="M7674 1003c16,26 49,33 75,17 25,-16 33,-50 17,-76 -16,-26 -49,-33 -75,-17 -26,16 -33,50 -17,76z"/>
    <path class="fil4" d="M18276 1043c16,26 50,33 75,17 26,-16 34,-50 18,-76 -16,-26 -50,-33 -76,-17 -25,16 -33,50 -17,76z"/>
    <path class="fil4" d="M15904 2813c16,26 49,34 75,18 26,-16 33,-50 17,-76 -16,-26 -49,-34 -75,-18 -25,16 -33,50 -17,76z"/>
    <path class="fil7" d="M13308 1114c15,26 49,34 75,18 25,-16 33,-50 17,-76 -16,-26 -49,-34 -75,-18 -26,16 -33,50 -17,76z"/>
    <path class="fil4" d="M20077 10842c16,26 50,34 76,18 25,-16 33,-50 17,-76 -16,-26 -49,-34 -75,-18 -26,16 -33,50 -18,76z"/>
    <path class="fil2" d="M1815 9461c15,26 49,34 75,18 25,-17 33,-51 17,-76 -16,-26 -49,-34 -75,-18 -26,16 -33,50 -17,76z"/>
    <path class="fil4" d="M6295 7219c119,-4 215,-102 216,-223l2 0c0,121 96,219 215,223 -119,4 -215,102 -215,224l-2 0c0,-122 -96,-220 -216,-224z"/>
    <path class="fil4" d="M20845 7677c-16,26 -50,34 -75,18 -26,-16 -34,-50 -18,-76 16,-26 50,-34 76,-18 25,16 33,50 17,76z"/>
    <path class="fil4" d="M19716 5541c-16,26 -49,33 -75,17 -26,-16 -33,-50 -18,-76 16,-26 50,-34 76,-17 25,16 33,50 17,76z"/>
    <path class="fil4" d="M16333 6174c-16,26 -50,33 -75,17 -26,-16 -34,-50 -18,-76 16,-26 50,-34 75,-17 26,16 34,50 18,76z"/>
    <path class="fil4" d="M20479 8262c-15,26 -49,34 -75,18 -25,-16 -33,-50 -17,-76 16,-26 49,-34 75,-18 26,17 33,51 17,76z"/>
    <path class="fil4" d="M17637 7010c-16,26 -50,33 -75,17 -26,-16 -34,-50 -18,-76 16,-26 50,-34 75,-17 26,16 34,50 18,76z"/>
    <path class="fil2" d="M1499 7880c-16,26 -50,34 -75,18 -26,-16 -34,-50 -18,-76 16,-26 50,-34 75,-18 26,16 34,50 18,76z"/>
    <path class="fil4" d="M19830 3122c192,-6 346,-164 347,-359l3 0c2,195 155,353 347,359 -192,7 -347,166 -347,362l-3 0c0,-196 -154,-355 -347,-362z"/>
    <path class="fil8" d="M1170 11481c18,0 18,28 0,28 -18,0 -18,-28 0,-28z"/>
    <path class="fil8" d="M1461 11467c36,0 36,56 0,56 -36,0 -36,-56 0,-56z"/>
   </g>
  </g>
 </g>
</svg>
