<?xml version="1.0" encoding="UTF-8"?>
<!DOCTYPE svg PUBLIC "-//W3C//DTD SVG 1.1//EN" "http://www.w3.org/Graphics/SVG/1.1/DTD/svg11.dtd">
<!-- Creator: CorelDRAW X7 -->
<svg xmlns="http://www.w3.org/2000/svg" xml:space="preserve" width="100%" height="100%" version="1.1" style="shape-rendering:geometricPrecision; text-rendering:geometricPrecision; image-rendering:optimizeQuality; fill-rule:evenodd; clip-rule:evenodd"
viewBox="0 0 25993 37169"
 xmlns:xlink="http://www.w3.org/1999/xlink">
 <defs>
  <style type="text/css">
   <![CDATA[
    .fil6 {fill:#D0A667}
    .fil12 {fill:#A6B7DE}
    .fil5 {fill:#8EA0D1}
    .fil4 {fill:#E3C582}
    .fil9 {fill:white}
    .fil7 {fill:white}
    .fil3 {fill:#FEFEFE;fill-rule:nonzero}
    .fil10 {fill:#DBBB83;fill-rule:nonzero}
    .fil11 {fill:#D0A667;fill-rule:nonzero}
    .fil0 {fill:#D2AE6D;fill-rule:nonzero}
    .fil2 {fill:#F2D394;fill-rule:nonzero}
    .fil1 {fill:white;fill-rule:nonzero}
    .fil8 {fill:white;fill-rule:nonzero}
   ]]>
  </style>
 </defs>
 <g id="Layer_x0020_1">
  <metadata id="CorelCorpID_0Corel-Layer"/>
  <g id="_2717383219808">
   <path class="fil0" d="M5914 5400c55,0 55,85 0,85 -54,0 -54,-85 0,-85z"/>
   <path class="fil0" d="M14407 4867l62 0c78,0 78,-120 0,-120l-62 0c-78,0 -78,120 0,120z"/>
   <path class="fil1" d="M2160 4607c14,22 43,29 65,15 22,-14 29,-43 15,-65 -14,-22 -43,-29 -65,-15 -22,13 -29,43 -15,65z"/>
   <path class="fil2" d="M10888 114c16,-26 50,-33 75,-17 26,16 34,50 18,76 -16,26 -50,33 -75,17 -26,-16 -34,-50 -18,-76z"/>
   <path class="fil2" d="M19578 1319c-16,26 -49,34 -75,18 -26,-17 -33,-51 -18,-76 16,-26 50,-34 76,-18 25,16 33,50 17,76z"/>
   <path class="fil2" d="M4224 4330c-16,26 -49,34 -75,18 -25,-16 -33,-51 -17,-76 16,-26 49,-34 75,-18 26,16 33,50 17,76z"/>
   <path class="fil2" d="M23193 95c-15,26 -49,33 -75,17 -25,-16 -33,-50 -17,-76 16,-26 49,-34 75,-17 26,16 33,50 17,76z"/>
   <path class="fil2" d="M21805 4690c-16,-25 -49,-33 -75,-17 -26,16 -34,50 -18,76 16,26 50,34 76,17 25,-16 33,-50 17,-76z"/>
   <path class="fil3" d="M8059 3871c-16,26 -50,34 -76,18 -25,-16 -33,-50 -17,-76 16,-26 50,-34 75,-18 26,16 34,50 18,76z"/>
   <path class="fil2" d="M12160 3254c-16,26 -50,34 -76,18 -25,-17 -33,-51 -17,-76 16,-26 50,-34 75,-18 26,16 34,50 18,76z"/>
   <path class="fil4" d="M15728 33944c-48,364 -612,590 -1260,504 -647,-85 -1133,-449 -1085,-813 48,-364 612,-590 1259,-505 648,86 1134,450 1086,814z"/>
   <path class="fil4" d="M9629 31361c184,363 -328,992 -1144,1406 -816,414 -1626,456 -1810,94 -184,-363 328,-992 1143,-1407 816,-414 1626,-455 1811,-93z"/>
   <path class="fil5" d="M7924 31770c736,-374 1467,-443 1738,-186 10,-81 0,-157 -33,-223 -184,-362 -995,-321 -1811,93 -815,415 -1327,1044 -1143,1407 18,35 43,65 72,92 47,-363 510,-845 1177,-1183z"/>
   <path class="fil5" d="M14642 33130c-647,-85 -1211,141 -1259,505 -4,26 -4,52 -2,79 141,-294 649,-464 1224,-388 600,79 1061,398 1087,735 17,-38 30,-76 36,-117 48,-364 -438,-728 -1086,-814z"/>
   <path class="fil3" d="M9941 32274c-18,28 -55,37 -83,19 -28,-17 -37,-55 -19,-83 18,-29 55,-37 83,-20 28,18 36,56 19,84z"/>
   <path class="fil0" d="M21503 23705c10,-10 19,-20 29,-30 26,-25 66,15 40,40 -10,10 -19,20 -29,29 -26,26 -66,-14 -40,-39z"/>
   <path class="fil0" d="M21740 19891c19,10 38,20 58,29 32,17 4,65 -29,49 -19,-10 -39,-19 -58,-29 -32,-16 -4,-65 29,-49z"/>
   <path class="fil0" d="M17857 20932c36,0 36,57 0,57 -37,0 -37,-57 0,-57z"/>
   <path class="fil0" d="M24801 23094c-10,-9 -19,-19 -29,-29 -13,-13 7,-33 20,-20 10,10 19,20 29,29 13,13 -7,33 -20,20z"/>
   <path class="fil0" d="M24782 25646c36,0 36,56 0,56 -37,0 -37,-56 0,-56z"/>
   <path class="fil0" d="M24840 26315c36,0 37,56 0,56 -36,0 -36,-56 0,-56z"/>
   <path class="fil0" d="M23016 22319c-10,-10 -19,-20 -29,-29 -26,-26 14,-66 40,-40 10,9 19,19 29,29 26,26 -14,66 -40,40z"/>
   <path class="fil0" d="M23618 23405c36,0 36,57 0,57 -36,0 -36,-57 0,-57z"/>
   <path class="fil0" d="M23589 18459l29 0c36,0 36,56 0,56l-29 0c-36,0 -37,-56 0,-56z"/>
   <path class="fil0" d="M18410 23463c36,0 36,57 0,57 -37,0 -37,-57 0,-57z"/>
   <path class="fil0" d="M9449 16330l0 -16c0,-73 113,-73 113,0l0 16c0,72 -113,73 -113,0l0 -16c0,-73 113,-73 113,0l0 16c0,72 -113,73 -113,0z"/>
   <path class="fil0" d="M24607 32252c73,0 73,113 0,113 -72,0 -73,-113 0,-113z"/>
   <path class="fil0" d="M21028 17295c37,0 37,56 0,56 -36,0 -36,-56 0,-56z"/>
   <path class="fil0" d="M20243 16015c36,0 36,56 0,56 -37,0 -37,-56 0,-56z"/>
   <path class="fil0" d="M18933 16713c37,0 37,57 0,57 -36,0 -36,-57 0,-57z"/>
   <path class="fil0" d="M16897 23900c36,0 36,56 0,56 -37,0 -37,-56 0,-56z"/>
   <path class="fil0" d="M23678 29947c78,0 78,121 0,121 -77,0 -77,-121 0,-121z"/>
   <path class="fil0" d="M22044 31126l0 -29c0,-36 57,-36 57,0l0 29c0,36 -57,36 -57,0z"/>
   <path class="fil0" d="M23910 17119l0 -29c0,-36 56,-36 56,0l0 29c0,37 -56,37 -56,0z"/>
   <path class="fil0" d="M23938 18953l29 0c37,0 37,57 0,57l-29 0c-36,0 -36,-57 0,-57z"/>
   <path class="fil0" d="M24462 18459c36,0 36,56 0,56 -37,0 -37,-56 0,-56z"/>
   <path class="fil0" d="M24578 19914c37,0 37,56 0,56 -36,0 -36,-56 0,-56z"/>
   <path class="fil0" d="M24491 21805c36,0 36,56 0,56 -36,0 -37,-56 0,-56z"/>
   <path class="fil0" d="M16762 15215c-10,-10 -19,-19 -29,-29 -26,-26 14,-66 40,-40 10,10 19,19 29,29 26,26 -14,66 -40,40z"/>
   <path class="fil0" d="M19030 20969c9,-9 19,-19 29,-29 26,-25 66,14 40,40 -10,10 -20,20 -29,29 -26,26 -66,-14 -40,-40z"/>
   <path class="fil0" d="M21785 22576l29 0c22,0 43,20 42,43 -1,23 -18,42 -42,42l-29 0c-22,0 -44,-19 -43,-42 2,-23 19,-43 43,-43z"/>
   <path class="fil0" d="M25858 22867l30 0c22,0 43,20 42,43 -1,23 -19,42 -42,42l-30 0c-22,0 -43,-19 -42,-42 1,-23 19,-43 42,-43z"/>
   <path class="fil0" d="M24927 32993c55,0 55,85 0,85 -54,0 -54,-85 0,-85z"/>
   <path class="fil0" d="M24107 35293c-9,-9 -19,-19 -29,-29 -16,-16 -16,-44 0,-60 17,-16 44,-16 60,0 10,10 20,20 29,29 17,16 17,44 0,60 -16,17 -43,17 -60,0z"/>
   <path class="fil0" d="M24898 30520c55,0 55,85 0,85 -54,0 -54,-85 0,-85z"/>
   <path class="fil0" d="M25903 29806l0 -29c0,-23 20,-44 43,-43 23,1 42,19 42,43l0 29c0,22 -19,43 -42,42 -23,-1 -43,-18 -43,-42z"/>
   <path class="fil0" d="M18177 19259c54,0 55,85 0,85 -55,0 -55,-85 0,-85z"/>
   <path class="fil0" d="M25684 17252c54,0 55,84 0,84 -55,0 -55,-84 0,-84z"/>
   <path class="fil0" d="M23065 15680c55,0 55,85 0,85 -54,0 -55,-85 0,-85z"/>
   <path class="fil0" d="M21437 14907c9,10 19,20 29,29 16,17 16,44 0,60 -17,17 -44,17 -60,0 -10,-9 -20,-19 -29,-29 -17,-16 -17,-44 0,-60 16,-16 43,-16 60,0z"/>
   <path class="fil0" d="M19224 15040c55,0 55,85 0,85 -54,0 -54,-85 0,-85z"/>
   <path class="fil0" d="M19574 19056c54,0 54,84 0,84 -55,0 -55,-84 0,-84z"/>
   <path class="fil0" d="M21844 21076c10,9 19,19 29,29 16,16 16,44 0,60 -16,16 -44,16 -60,0l-29 -29c-16,-16 -16,-44 0,-60 16,-16 44,-16 60,0z"/>
   <path class="fil0" d="M20243 23653c54,0 54,85 0,85 -55,0 -55,-85 0,-85z"/>
   <path class="fil0" d="M18992 24089c54,0 54,85 0,85 -55,0 -55,-85 0,-85z"/>
   <path class="fil0" d="M19923 24264c54,0 54,85 0,85 -55,0 -55,-85 0,-85z"/>
   <path class="fil0" d="M21594 29407l0 -29c0,-52 46,-102 99,-99 54,2 99,43 99,99l0 29c0,51 -45,101 -99,99 -53,-3 -99,-44 -99,-99z"/>
   <path class="fil0" d="M20866 30739c37,0 37,56 0,56 -36,0 -36,-56 0,-56z"/>
   <path class="fil0" d="M18070 24326c-10,-9 -20,-19 -30,-29 -25,-25 15,-65 40,-40 10,10 20,20 30,29 25,26 -15,66 -40,40z"/>
   <path class="fil0" d="M23637 26871l0 -29c0,-23 19,-44 42,-43 23,1 43,19 43,43l0 29c0,22 -20,43 -43,42 -23,-1 -42,-19 -42,-42z"/>
   <path class="fil0" d="M21517 27036c54,0 54,85 0,85 -55,0 -55,-85 0,-85z"/>
   <path class="fil0" d="M18982 27095c54,0 55,85 0,85 -55,0 -55,-85 0,-85z"/>
   <path class="fil0" d="M23072 24625c55,0 55,85 0,85 -55,0 -55,-85 0,-85z"/>
   <path class="fil0" d="M19797 28495c55,0 55,85 0,85 -54,0 -55,-85 0,-85z"/>
   <path class="fil0" d="M18000 28808c73,0 73,113 0,113 -73,0 -73,-113 0,-113z"/>
   <path class="fil0" d="M22168 26142c73,0 73,113 0,113 -72,0 -72,-113 0,-113z"/>
   <path class="fil0" d="M22299 28314c73,0 73,113 0,113 -72,0 -72,-113 0,-113z"/>
   <path class="fil0" d="M3712 22824c36,0 36,-56 0,-56 -37,0 -37,56 0,56z"/>
   <path class="fil0" d="M5254 24076c36,0 36,-57 0,-57 -36,0 -36,57 0,57z"/>
   <path class="fil0" d="M5312 23406c37,0 37,-56 0,-56 -36,0 -36,56 0,56z"/>
   <path class="fil0" d="M2112 21399c36,0 36,-57 0,-57 -37,0 -37,57 0,57z"/>
   <path class="fil0" d="M7059 23640l0 29c0,36 56,36 56,0l0 -29c0,-36 -56,-37 -56,0z"/>
   <path class="fil0" d="M3110 26036l62 0c77,0 77,-121 0,-121l-62 0c-78,0 -78,121 0,121z"/>
   <path class="fil0" d="M15874 21602c37,0 37,-56 0,-56 -36,0 -36,56 0,56z"/>
   <path class="fil0" d="M12979 19260c78,0 78,-120 0,-120 -77,0 -78,120 0,120z"/>
   <path class="fil0" d="M4973 28210c78,0 78,-121 0,-121 -78,0 -78,121 0,121z"/>
   <path class="fil0" d="M7023 27030c78,0 78,-121 0,-121 -78,0 -78,121 0,121z"/>
   <path class="fil0" d="M8203 25477c78,0 78,-121 0,-121 -78,0 -78,121 0,121z"/>
   <path class="fil0" d="M1335 28945c-10,9 -19,19 -29,29 -26,26 14,66 40,40 10,-10 19,-20 29,-29 26,-26 -14,-66 -40,-40z"/>
   <path class="fil0" d="M13730 22747c-9,10 -19,19 -29,29 -26,26 14,66 40,40 10,-10 20,-19 29,-29 26,-26 -14,-66 -40,-40z"/>
   <path class="fil0" d="M3669 30663l62 0c47,0 92,-42 90,-91 -2,-49 -40,-90 -90,-90l-62 0c-48,0 -93,41 -91,90 2,49 40,91 91,91z"/>
   <path class="fil0" d="M3110 28675c116,0 116,-181 0,-181 -117,0 -117,181 0,181z"/>
   <path class="fil0" d="M11714 23667c72,0 72,-113 0,-113 -73,0 -73,113 0,113z"/>
   <path class="fil0" d="M4353 21895c10,-10 19,-19 29,-29 16,-16 16,-44 0,-60 -16,-16 -44,-16 -60,0 -10,10 -19,19 -29,29 -16,16 -16,44 0,60 16,16 44,16 60,0z"/>
   <path class="fil0" d="M11518 14108c54,0 54,-84 0,-84 -55,0 -55,84 0,84z"/>
   <path class="fil0" d="M9415 24352c54,0 55,-85 0,-85 -55,0 -55,85 0,85z"/>
   <path class="fil0" d="M9589 23246c55,0 55,-85 0,-85 -54,0 -54,85 0,85z"/>
   <path class="fil0" d="M1060 30042c116,0 116,-181 0,-181 -117,0 -117,181 0,181z"/>
   <path class="fil0" d="M625 28240c116,0 117,-181 0,-181 -117,0 -117,181 0,181z"/>
   <path class="fil0" d="M46 30666c54,0 54,-85 0,-85 -55,0 -55,85 0,85z"/>
   <path class="fil0" d="M715 26068c54,0 55,-85 0,-85 -55,0 -55,85 0,85z"/>
   <path class="fil0" d="M23049 33021c55,0 55,-85 0,-85 -55,0 -55,85 0,85z"/>
   <path class="fil0" d="M4150 16337c128,0 128,-198 0,-198 -127,0 -127,198 0,198z"/>
   <path class="fil0" d="M5738 26342l29 0c52,0 102,-46 99,-99 -2,-54 -43,-99 -99,-99l-29 0c-52,0 -101,46 -99,99 3,54 44,99 99,99z"/>
   <path class="fil0" d="M2055 21317l0 62c0,78 121,78 121,0l0 -62c0,-78 -121,-78 -121,0z"/>
   <path class="fil0" d="M19508 17029c78,0 78,-121 0,-121 -77,0 -77,121 0,121z"/>
   <path class="fil0" d="M968 34841c9,-9 19,-19 29,-29 21,-21 22,-59 0,-80 -23,-20 -58,-22 -80,0 -10,10 -20,20 -29,29 -21,21 -23,60 0,80 22,21 57,23 80,0z"/>
   <path class="fil0" d="M550 32486l29 0c29,0 58,-26 56,-57 -1,-30 -25,-56 -56,-56l-29 0c-30,0 -58,26 -57,56 1,31 25,57 57,57z"/>
   <circle class="fil6" cx="14186" cy="26809" r="3302"/>
   <path class="fil4" d="M10911 26398c979,139 2626,-560 3154,-663 1073,-208 2175,40 3269,76 -76,-239 -179,-466 -304,-678 -402,17 -826,-53 -1232,-65 -770,-22 -1536,180 -2306,133 -355,-21 -1155,-332 -1883,-455 -372,465 -621,1032 -698,1652z"/>
   <path class="fil4" d="M14186 23507c-336,0 -659,51 -964,144 413,236 1242,321 1435,347 346,46 721,62 1018,-121 4,-2 8,-5 12,-8 -450,-231 -960,-362 -1501,-362z"/>
   <path class="fil4" d="M17486 26855c-951,-240 -1958,-260 -2917,-50 -521,114 -1025,292 -1543,420 -651,160 -1322,238 -1992,233 -28,0 -57,-1 -86,-3 131,661 459,1250 920,1705 791,-280 1550,-648 2260,-1095 621,-391 1242,-857 1973,-924 454,-41 900,77 1349,170 22,-149 34,-301 36,-456z"/>
   <path class="fil4" d="M17312 27873c-448,-67 -1249,327 -1445,493 -175,148 -322,329 -511,459 -240,165 -530,237 -812,310 -568,147 -1133,310 -1693,488 -71,23 -148,54 -182,118 454,236 970,370 1517,370 383,0 750,-66 1092,-186 343,-489 548,-1123 1090,-1353 91,-38 413,-85 704,-160 96,-171 176,-351 240,-539z"/>
   <path class="fil7" d="M14809 27744l0 623 -2492 0 0 -623 2492 0zm-2492 -1869l0 -624c1246,0 2492,0 3738,0l-623 624c-1038,0 -2077,0 -3115,0zm3738 623c0,623 0,1246 0,1869l-623 0 0 -1246 0 0 -3115 0 0 -623c1246,0 2492,0 3738,0z"/>
   <path class="fil1" d="M4797 21110c14,23 43,29 66,16 22,-14 28,-43 15,-66 -14,-22 -43,-28 -65,-15 -23,14 -29,43 -16,65z"/>
   <path class="fil1" d="M12336 21182c14,22 43,29 65,15 22,-14 29,-43 15,-65 -14,-22 -43,-29 -65,-15 -22,14 -29,43 -15,65z"/>
   <path class="fil1" d="M4160 18282c13,22 43,29 65,15 22,-14 29,-43 15,-65 -14,-22 -43,-29 -65,-15 -22,13 -29,43 -15,65z"/>
   <path class="fil1" d="M6696 21073c14,22 43,29 65,15 22,-14 29,-43 15,-65 -14,-22 -43,-29 -65,-15 -22,14 -29,43 -15,65z"/>
   <path class="fil1" d="M11298 22906c14,23 43,29 65,16 22,-14 29,-43 15,-66 -14,-22 -43,-28 -65,-15 -22,14 -29,43 -15,65z"/>
   <path class="fil1" d="M10487 24495c14,22 43,29 65,15 22,-14 29,-43 15,-65 -14,-22 -43,-29 -65,-15 -22,14 -29,43 -15,65z"/>
   <path class="fil1" d="M7303 24918c14,22 43,29 66,15 22,-14 28,-43 15,-65 -14,-22 -43,-29 -65,-15 -23,14 -29,43 -16,65z"/>
   <path class="fil1" d="M5725 23684c14,22 43,29 65,15 22,-14 29,-43 15,-65 -13,-22 -43,-29 -65,-15 -22,14 -29,43 -15,65z"/>
   <path class="fil1" d="M8886 21867c14,22 43,28 65,15 22,-14 29,-43 15,-65 -14,-23 -43,-29 -65,-15 -22,13 -29,42 -15,65z"/>
   <path class="fil1" d="M10978 21430c13,22 42,29 65,15 22,-14 29,-43 15,-65 -14,-22 -43,-29 -65,-15 -23,14 -29,43 -15,65z"/>
   <path class="fil1" d="M10064 23699c14,23 43,29 66,16 22,-14 28,-43 15,-66 -14,-22 -43,-29 -65,-15 -23,14 -29,43 -16,65z"/>
   <path class="fil1" d="M3841 24403c14,23 43,29 65,15 23,-13 29,-42 16,-65 -14,-22 -43,-28 -66,-15 -22,14 -28,43 -15,65z"/>
   <path class="fil1" d="M16396 21911c-15,26 -49,34 -75,18 -25,-16 -33,-50 -17,-76 16,-26 49,-34 75,-18 26,16 33,50 17,76z"/>
   <path class="fil3" d="M13601 21549c-16,26 -50,34 -76,18 -25,-16 -33,-50 -17,-76 16,-26 50,-34 75,-18 26,16 34,50 18,76z"/>
   <path class="fil3" d="M24218 27893c-16,26 -49,34 -75,18 -25,-17 -33,-51 -17,-76 16,-26 49,-34 75,-18 26,16 33,50 17,76z"/>
   <path class="fil1" d="M22950 20288c-16,26 -50,34 -76,18 -25,-16 -33,-50 -17,-76 16,-26 50,-34 75,-18 26,16 34,51 18,76z"/>
   <path class="fil3" d="M19302 25445c-16,26 -50,34 -76,18 -25,-16 -33,-50 -17,-76 16,-26 50,-34 75,-18 26,16 34,51 18,76z"/>
   <path class="fil3" d="M5473 29706c-16,25 -50,33 -76,17 -25,-16 -33,-50 -17,-76 16,-26 50,-34 75,-18 26,17 34,51 18,77z"/>
   <path class="fil3" d="M10114 27738c-15,26 -49,33 -75,17 -25,-16 -33,-50 -17,-76 16,-26 49,-34 75,-17 26,16 33,50 17,76z"/>
   <path class="fil3" d="M3020 27127c-16,26 -50,34 -76,18 -25,-17 -33,-51 -17,-76 16,-26 50,-34 75,-18 26,16 34,50 18,76z"/>
   <path class="fil3" d="M7571 27793c-16,26 -50,33 -76,17 -25,-16 -33,-50 -17,-76 16,-26 50,-34 75,-17 26,16 34,50 18,76z"/>
   <path class="fil3" d="M7413 15896c-15,25 -49,33 -75,17 -25,-16 -33,-50 -17,-76 16,-26 49,-34 75,-18 26,17 33,51 17,77z"/>
   <path class="fil3" d="M25309 23970c-16,26 -50,34 -75,18 -26,-16 -34,-50 -18,-76 16,-26 50,-34 76,-18 25,17 33,51 17,76z"/>
   <path class="fil8" d="M2139 24262c-205,-7 -370,-175 -371,-384l-4 0c-1,209 -166,377 -371,384 206,7 372,177 372,387l3 0c0,-210 165,-380 371,-387z"/>
   <path class="fil3" d="M23853 31269c136,5 245,117 246,255l2 0c1,-138 110,-250 246,-255 -136,-4 -246,-117 -246,-256l-2 0c0,139 -109,252 -246,256z"/>
   <path class="fil1" d="M16433 19113c-311,-11 -560,-266 -562,-581l-5 0c-2,315 -251,570 -561,581 312,10 562,267 562,584l4 0c0,-317 250,-574 562,-584z"/>
   <path class="fil9" d="M2782 37158l20414 1c-128,-683 -322,-1341 -576,-1970l12 -5c213,-84 316,-325 231,-538l-512 -1281c-84,-213 -325,-316 -538,-231l-242 96c-490,-718 -1069,-1372 -1720,-1946 -240,-212 -490,-413 -750,-602 -1200,-876 -2596,-1500 -4110,-1796 -254,-50 -512,-90 -773,-121 -248,-29 -499,-50 -752,-61 -158,-7 -317,-11 -477,-11 -1036,0 -2037,152 -2981,435 -226,67 -449,142 -669,225l-74 -104c-134,-186 -392,-228 -578,-95l-911 654 -777 558 -31 22c-118,85 -178,219 -172,354 -745,554 -1412,1205 -1984,1935l-160 -84c-202,-106 -452,-29 -559,173l-987 1873c-107,202 -29,452 173,559l62 33c-245,615 -434,1260 -559,1927zm10599 -3444c-2,-26 -2,-53 2,-79 48,-364 612,-590 1259,-505 648,86 1134,450 1086,814 -6,41 -18,80 -35,117 -141,294 -650,463 -1225,387 -600,-79 -1062,-398 -1087,-734zm-3719 -2130c-47,363 -511,845 -1177,1183 -816,414 -1626,456 -1810,94 -184,-363 328,-992 1143,-1407 816,-414 1627,-455 1810,-93 34,66 45,142 34,223z"/>
   <path class="fil1" d="M8787 13984c13,22 43,29 65,15 22,-14 29,-43 15,-65 -14,-22 -43,-29 -65,-15 -22,14 -29,43 -15,65z"/>
   <g>
    <path class="fil10" d="M19396 22673c0,-343 279,-622 622,-622 343,0 621,279 621,622 0,343 -278,621 -621,621 -343,0 -622,-278 -622,-621z"/>
    <path class="fil11" d="M20498 22279c88,107 141,244 141,394 0,343 -278,621 -621,621 -192,0 -363,-87 -477,-223 0,0 469,180 758,-109 288,-288 199,-683 199,-683z"/>
   </g>
   <path class="fil8" d="M8547 18700c-16,26 -50,34 -75,18 -26,-16 -34,-50 -18,-76 16,-26 50,-34 76,-18 25,16 33,50 17,76z"/>
   <path class="fil2" d="M4484 12250c-16,26 -50,34 -76,18 -25,-16 -33,-50 -17,-76 16,-26 50,-34 75,-18 26,16 34,50 18,76z"/>
   <polygon class="fil12" points="19339,13227 19317,13275 19333,13265 "/>
   <path class="fil1" d="M13051 16902c-16,-26 -49,-34 -75,-18 -26,16 -33,50 -18,76 16,26 50,34 76,18 25,-16 33,-50 17,-76z"/>
   <path class="fil3" d="M16852 10526c-16,-26 -49,-34 -75,-18 -25,16 -33,50 -17,76 16,26 49,34 75,18 26,-16 33,-50 17,-76z"/>
   <path class="fil3" d="M15695 9952c-15,-26 -49,-34 -75,-18 -25,16 -33,51 -17,76 16,26 49,34 75,18 26,-16 33,-50 17,-76z"/>
   <path class="fil2" d="M15090 16418c-16,-26 -50,-33 -75,-17 -26,16 -34,50 -18,76 16,26 50,34 75,17 26,-16 34,-50 18,-76z"/>
   <path class="fil8" d="M22552 9358c16,26 50,34 75,18 26,-16 34,-50 18,-76 -16,-26 -50,-34 -76,-18 -25,17 -33,51 -17,76z"/>
   <path class="fil8" d="M24356 9890c15,26 49,34 75,18 25,-16 33,-50 17,-76 -16,-26 -49,-34 -75,-18 -26,17 -33,51 -17,76z"/>
   <path class="fil2" d="M6400 17623c16,26 50,34 75,18 26,-16 34,-50 18,-76 -16,-26 -50,-34 -76,-18 -25,16 -33,50 -17,76z"/>
   <path class="fil3" d="M20504 11411c16,26 49,34 75,17 26,-16 33,-50 17,-76 -16,-25 -49,-33 -75,-17 -26,16 -33,50 -17,76z"/>
   <path class="fil2" d="M9872 19220c16,26 50,34 76,17 25,-16 33,-50 17,-76 -16,-25 -49,-33 -75,-17 -26,16 -33,50 -18,76z"/>
   <path class="fil8" d="M22257 13827c16,26 50,34 76,18 25,-16 33,-50 17,-76 -16,-26 -50,-34 -75,-18 -26,16 -34,50 -18,76z"/>
   <path class="fil8" d="M18835 10312c16,26 49,34 75,18 26,-17 33,-51 17,-76 -16,-26 -49,-34 -75,-18 -25,16 -33,50 -17,76z"/>
   <path class="fil8" d="M13589 11303c16,26 50,34 76,17 25,-16 33,-50 17,-76 -16,-25 -50,-33 -75,-17 -26,16 -34,50 -18,76z"/>
   <path class="fil2" d="M25447 15899c16,26 50,33 75,17 26,-16 34,-50 18,-76 -16,-26 -50,-33 -75,-17 -26,16 -34,50 -18,76z"/>
   <path class="fil3" d="M7145 12939c-16,26 -50,34 -75,18 -26,-17 -34,-51 -18,-76 16,-26 50,-34 76,-18 25,16 33,50 17,76z"/>
   <path class="fil2" d="M15567 11816c-16,26 -49,34 -75,18 -25,-16 -33,-51 -17,-76 16,-26 49,-34 75,-18 26,16 33,50 17,76z"/>
   <path class="fil1" d="M15062 11736c-15,26 -49,34 -75,18 -25,-17 -33,-51 -17,-76 16,-26 49,-34 75,-18 26,16 33,50 17,76z"/>
   <path class="fil3" d="M12520 11145c-16,26 -50,34 -75,18 -26,-16 -34,-50 -18,-76 16,-26 50,-34 75,-18 26,17 34,51 18,76z"/>
   <path class="fil1" d="M7851 11606c-16,26 -50,34 -76,18 -25,-17 -33,-51 -17,-76 16,-26 50,-34 75,-18 26,16 34,50 18,76z"/>
   <path class="fil3" d="M15994 12727c-15,25 -49,33 -75,17 -25,-16 -33,-50 -17,-76 16,-26 49,-34 75,-17 26,16 33,50 17,76z"/>
   <path class="fil8" d="M15208 14077c-119,-4 -215,-102 -216,-223l-2 0c0,121 -96,219 -215,223 119,4 215,103 215,225l2 0c0,-122 96,-221 216,-225z"/>
   <path class="fil1" d="M2419 15814c16,25 50,33 75,17 26,-16 34,-50 18,-76 -16,-26 -50,-34 -75,-17 -26,16 -34,50 -18,76z"/>
   <path class="fil3" d="M2140 13622c16,26 49,34 75,18 26,-16 33,-50 18,-76 -16,-26 -50,-34 -76,-18 -25,17 -33,51 -17,76z"/>
   <path class="fil3" d="M1109 10703c16,26 50,34 75,17 26,-16 34,-50 18,-76 -16,-25 -50,-33 -75,-17 -26,16 -34,50 -18,76z"/>
   <path class="fil3" d="M11061 17138c16,26 49,34 75,18 26,-16 33,-50 18,-76 -16,-26 -50,-34 -76,-18 -25,16 -33,51 -17,76z"/>
   <path class="fil2" d="M2785 16399c16,26 49,33 75,17 26,-16 33,-50 17,-76 -16,-26 -49,-33 -75,-17 -26,16 -33,50 -17,76z"/>
   <path class="fil2" d="M1756 14907c16,26 49,34 75,18 26,-17 33,-51 17,-76 -16,-26 -49,-34 -75,-18 -26,16 -33,50 -17,76z"/>
   <path class="fil3" d="M335 14651c16,25 50,33 76,17 25,-16 33,-50 17,-76 -16,-26 -50,-34 -75,-17 -26,16 -34,50 -18,76z"/>
   <path class="fil3" d="M1308 17252c16,26 49,33 75,17 25,-16 33,-50 17,-76 -16,-26 -49,-34 -75,-17 -26,16 -33,50 -17,76z"/>
   <path class="fil3" d="M22328 16174c16,25 49,33 75,17 25,-16 33,-50 17,-76 -16,-26 -49,-34 -75,-17 -26,16 -33,50 -17,76z"/>
   <path class="fil0" d="M3141 7054c18,0 18,29 0,29 -18,0 -18,-29 0,-29z"/>
   <path class="fil0" d="M3432 7040c37,0 37,57 0,57 -36,0 -36,-57 0,-57z"/>
   <path class="fil0" d="M3044 9228c47,0 47,73 0,73 -47,0 -47,-73 0,-73z"/>
   <path class="fil8" d="M16765 8523c-16,-26 -50,-34 -75,-18 -26,16 -34,50 -18,76 16,26 50,34 75,18 26,-16 34,-50 18,-76z"/>
   <path class="fil2" d="M25550 8916c16,26 50,34 75,18 26,-16 34,-50 18,-76 -16,-26 -50,-34 -76,-18 -25,16 -33,50 -17,76z"/>
   <path class="fil8" d="M19064 8837c16,26 50,34 76,18 25,-16 33,-50 17,-76 -16,-26 -50,-34 -75,-18 -26,16 -34,50 -18,76z"/>
   <path class="fil8" d="M21346 7895c16,26 50,34 75,18 26,-16 34,-50 18,-76 -16,-26 -50,-34 -76,-18 -25,16 -33,50 -17,76z"/>
   <path class="fil1" d="M3050 8076c-16,25 -50,33 -76,17 -25,-16 -33,-50 -17,-76 16,-26 50,-34 75,-17 26,16 34,50 18,76z"/>
   <path class="fil3" d="M16285 8982c-16,26 -50,34 -75,18 -26,-17 -34,-51 -18,-76 16,-26 50,-34 76,-18 25,16 33,50 17,76z"/>
   <path class="fil1" d="M13243 8950c-16,26 -50,33 -75,17 -26,-16 -34,-50 -18,-76 16,-26 50,-33 75,-17 26,16 34,50 18,76z"/>
   <path class="fil2" d="M10615 9088c-16,26 -49,34 -75,18 -26,-16 -33,-50 -17,-76 15,-26 49,-34 75,-18 25,16 33,50 17,76z"/>
   <path class="fil3" d="M9467 8088c-16,26 -50,34 -75,17 -26,-16 -34,-50 -18,-76 16,-25 50,-33 75,-17 26,16 34,50 18,76z"/>
   <path class="fil3" d="M12226 7864c-16,26 -50,34 -76,18 -25,-16 -33,-50 -17,-76 16,-26 50,-34 75,-18 26,16 34,50 18,76z"/>
   <path class="fil3" d="M14203 7702c-16,26 -49,34 -75,17 -26,-16 -33,-50 -17,-76 15,-25 49,-33 75,-17 25,16 33,50 17,76z"/>
   <path class="fil1" d="M6731 8786c-16,26 -50,34 -76,18 -25,-16 -33,-50 -17,-76 16,-26 50,-34 75,-18 26,16 34,50 18,76z"/>
   <path class="fil3" d="M24730 7050c-16,25 -50,33 -75,17 -26,-16 -34,-50 -18,-76 16,-26 50,-34 75,-18 26,17 34,51 18,77z"/>
   <path class="fil1" d="M8914 7688c-16,25 -50,33 -75,17 -26,-16 -34,-50 -18,-76 16,-26 50,-34 76,-17 25,16 33,50 17,76z"/>
  </g>
 </g>
</svg>
