<?xml version="1.0" encoding="UTF-8"?>
<!DOCTYPE svg PUBLIC "-//W3C//DTD SVG 1.1//EN" "http://www.w3.org/Graphics/SVG/1.1/DTD/svg11.dtd">
<!-- Creator: CorelDRAW X7 -->
<svg xmlns="http://www.w3.org/2000/svg" xml:space="preserve" width="100%" height="100%" version="1.1" style="shape-rendering:geometricPrecision; text-rendering:geometricPrecision; image-rendering:optimizeQuality; fill-rule:evenodd; clip-rule:evenodd"
viewBox="0 0 1000000 1000000"
 xmlns:xlink="http://www.w3.org/1999/xlink">
 <defs>
  <style type="text/css">
   <![CDATA[
    .fil5 {fill:#A6B7DE}
    .fil3 {fill:#FEFEFE;fill-rule:nonzero}
    .fil0 {fill:#D2AE6D;fill-rule:nonzero}
    .fil2 {fill:#F2D394;fill-rule:nonzero}
    .fil1 {fill:white;fill-rule:nonzero}
    .fil4 {fill:white;fill-rule:nonzero}
   ]]>
  </style>
 </defs>
 <g id="Layer_x0020_1">
  <metadata id="CorelCorpID_0Corel-Layer"/>
  <g id="_2725085169424">
   <path class="fil0" d="M178577 569285c537,0 538,832 0,832 -537,0 -538,-832 0,-832z"/>
   <path class="fil0" d="M135193 460066l611 0c765,0 766,-1185 0,-1185l-611 0c-764,0 -766,1185 0,1185z"/>
   <path class="fil1" d="M141626 561493c136,217 423,283 641,147 218,-135 284,-421 148,-638 -136,-218 -423,-285 -640,-149 -218,136 -285,422 -149,640z"/>
   <path class="fil2" d="M227534 517387c157,-254 489,-331 741,-173 252,158 329,492 172,746 -157,254 -489,332 -741,173 -252,-158 -329,-492 -172,-746z"/>
   <path class="fil2" d="M313066 529215c-158,254 -489,331 -741,173 -252,-159 -329,-493 -172,-747 157,-253 489,-332 741,-172 252,158 329,492 172,746z"/>
   <path class="fil2" d="M161946 558776c-157,254 -489,331 -741,173 -252,-158 -329,-493 -172,-746 157,-254 489,-332 741,-173 252,158 329,492 172,746z"/>
   <path class="fil2" d="M348649 517194c-157,254 -488,331 -741,173 -252,-158 -328,-492 -171,-746 157,-254 488,-332 741,-173 252,158 328,492 171,746z"/>
   <path class="fil2" d="M334985 562314c-157,-254 -489,-331 -741,-173 -252,158 -330,493 -172,747 157,254 489,331 741,172 252,-158 329,-492 172,-746z"/>
   <path class="fil3" d="M199684 554272c-157,254 -489,331 -741,173 -252,-158 -328,-493 -171,-746 157,-254 488,-332 741,-173 252,158 328,492 171,746z"/>
   <path class="fil2" d="M240048 548212c-157,253 -489,331 -741,172 -252,-158 -328,-492 -171,-746 157,-254 488,-332 741,-173 252,158 328,493 171,747z"/>
   <path class="fil3" d="M218209 833123c-172,279 -537,363 -813,190 -277,-174 -361,-541 -189,-819 173,-279 537,-365 814,-190 276,173 360,540 188,819z"/>
   <path class="fil0" d="M332011 748990c95,-95 191,-190 286,-285 254,-253 648,139 394,392 -96,96 -191,191 -287,286 -253,253 -647,-139 -393,-393z"/>
   <path class="fil0" d="M334339 711552c191,95 382,191 572,287 321,160 39,639 -280,479 -191,-96 -382,-191 -573,-287 -320,-160 -38,-639 281,-479z"/>
   <path class="fil0" d="M296123 721771c358,0 358,555 0,555 -358,0 -359,-555 0,-555z"/>
   <path class="fil0" d="M364471 743000c-95,-95 -191,-190 -286,-285 -127,-127 70,-323 196,-197 96,95 191,191 287,286 127,126 -70,323 -197,196z"/>
   <path class="fil0" d="M364283 768049c358,0 359,555 0,555 -358,0 -359,-555 0,-555z"/>
   <path class="fil0" d="M364856 774619c358,0 359,555 0,555 -358,0 -359,-555 0,-555z"/>
   <path class="fil0" d="M346903 735385c-95,-95 -191,-190 -286,-285 -254,-253 139,-646 393,-393 96,95 191,191 287,286 253,253 -140,645 -394,392z"/>
   <path class="fil0" d="M352828 746052c358,0 358,556 0,556 -359,0 -359,-556 0,-556z"/>
   <path class="fil0" d="M352541 697489l287 0c358,0 358,555 0,555l-287 0c-358,0 -358,-555 0,-555z"/>
   <path class="fil0" d="M301564 746624c358,0 359,555 0,555 -358,0 -359,-555 0,-555z"/>
   <path class="fil0" d="M213371 676586l0 -157c0,-715 1113,-716 1113,0l0 157c0,714 -1113,716 -1113,0l0 -157c0,-715 1113,-716 1113,0l0 157c0,714 -1113,716 -1113,0z"/>
   <path class="fil0" d="M362565 832904c716,0 717,1110 0,1110 -717,0 -718,-1110 0,-1110z"/>
   <path class="fil0" d="M327339 686062c358,0 359,555 0,555 -358,0 -359,-555 0,-555z"/>
   <path class="fil0" d="M319607 673493c358,0 358,555 0,555 -359,0 -359,-555 0,-555z"/>
   <path class="fil0" d="M306719 680349c358,0 359,555 0,555 -358,0 -359,-555 0,-555z"/>
   <path class="fil0" d="M286672 750909c358,0 359,555 0,555 -358,0 -359,-555 0,-555z"/>
   <path class="fil0" d="M353422 810279c765,0 766,1185 0,1185 -765,0 -766,-1185 0,-1185z"/>
   <path class="fil0" d="M337340 821854l0 -286c0,-357 557,-358 557,0l0 286c0,357 -557,357 -557,0z"/>
   <path class="fil0" d="M355700 684340l0 -285c0,-358 556,-358 556,0l0 285c0,357 -556,358 -556,0z"/>
   <path class="fil0" d="M355978 702345l286 0c358,0 359,555 0,555l-286 0c-358,0 -359,-555 0,-555z"/>
   <path class="fil0" d="M361133 697489c358,0 359,555 0,555 -358,0 -359,-555 0,-555z"/>
   <path class="fil0" d="M362278 711772c359,0 359,556 0,556 -358,0 -358,-556 0,-556z"/>
   <path class="fil0" d="M361419 730341c358,0 359,555 0,555 -358,0 -358,-555 0,-555z"/>
   <path class="fil0" d="M285348 665643c-95,-95 -191,-190 -286,-285 -254,-253 139,-646 393,-393 96,96 191,191 287,286 253,253 -140,645 -394,392z"/>
   <path class="fil0" d="M307668 722138c95,-95 191,-191 286,-286 254,-253 648,139 394,393 -96,95 -191,190 -287,285 -253,253 -647,-139 -393,-392z"/>
   <path class="fil0" d="M452277 674385l286 0c218,0 427,192 417,417 -10,225 -183,416 -417,416l-286 0c-219,0 -428,-192 -418,-416 10,-226 183,-417 418,-417z"/>
   <path class="fil0" d="M374880 740772l286 0c218,0 427,191 417,416 -10,226 -183,416 -417,416l-286 0c-219,0 -428,-191 -418,-416 10,-226 183,-416 418,-416z"/>
   <path class="fil0" d="M365715 840184c537,0 538,833 0,833 -537,0 -538,-833 0,-833z"/>
   <path class="fil0" d="M357646 862766c-96,-95 -191,-190 -287,-285 -159,-159 -159,-430 0,-589 160,-160 430,-160 590,0 96,95 191,190 287,286 159,158 159,429 0,588 -160,160 -430,160 -590,0z"/>
   <path class="fil0" d="M365429 815902c537,0 538,833 0,833 -537,0 -539,-833 0,-833z"/>
   <path class="fil0" d="M375321 808891l0 -285c0,-218 192,-427 418,-417 226,10 417,183 417,417l0 285c0,218 -192,427 -417,417 -227,-10 -418,-183 -418,-417z"/>
   <path class="fil0" d="M299273 705349c537,0 538,833 0,833 -537,0 -538,-833 0,-833z"/>
   <path class="fil0" d="M373161 685638c537,0 538,833 0,833 -537,0 -538,-833 0,-833z"/>
   <path class="fil0" d="M347386 670212c537,0 538,833 0,833 -537,0 -538,-833 0,-833z"/>
   <path class="fil0" d="M331357 662621c96,95 191,190 287,285 159,159 159,430 0,589 -160,160 -431,160 -591,0 -95,-95 -190,-190 -286,-285 -159,-160 -159,-430 0,-589 160,-160 430,-160 590,0z"/>
   <path class="fil0" d="M309583 663927c537,0 538,833 0,833 -537,0 -538,-833 0,-833z"/>
   <path class="fil0" d="M313020 703349c537,0 538,833 0,833 -537,0 -539,-833 0,-833z"/>
   <path class="fil0" d="M335367 723182c95,95 191,191 286,286 160,159 160,430 0,589 -160,159 -430,159 -590,0l-286 -286c-160,-159 -160,-430 0,-589 159,-159 430,-159 590,0z"/>
   <path class="fil0" d="M319607 748485c537,0 537,832 0,832 -537,0 -539,-832 0,-832z"/>
   <path class="fil0" d="M307292 752770c537,0 538,832 0,832 -537,0 -538,-832 0,-832z"/>
   <path class="fil0" d="M316456 754484c537,0 538,832 0,832 -537,0 -538,-832 0,-832z"/>
   <path class="fil0" d="M405746 884410l0 -286c0,-508 448,-995 974,-971 527,23 974,427 974,971l0 286c0,508 -448,995 -974,971 -528,-23 -974,-426 -974,-971z"/>
   <path class="fil0" d="M325743 818052c359,0 359,555 0,555 -358,0 -358,-555 0,-555z"/>
   <path class="fil0" d="M298217 755096c-95,-95 -191,-190 -286,-285 -254,-253 139,-646 393,-393 96,95 191,191 287,286 253,253 -140,645 -394,392z"/>
   <path class="fil0" d="M353013 780075l0 -285c0,-218 192,-427 418,-417 226,10 417,183 417,417l0 285c0,218 -192,427 -417,417 -227,-10 -418,-183 -418,-417z"/>
   <path class="fil0" d="M332146 781701c538,0 539,832 0,832 -537,0 -538,-832 0,-832z"/>
   <path class="fil0" d="M307196 782276c537,0 538,832 0,832 -537,0 -538,-832 0,-832z"/>
   <path class="fil0" d="M347453 758031c537,0 538,833 0,833 -537,0 -538,-833 0,-833z"/>
   <path class="fil0" d="M315220 796021c537,0 538,832 0,832 -537,0 -538,-832 0,-832z"/>
   <path class="fil0" d="M297530 799098c717,0 718,1110 0,1110 -716,0 -717,-1110 0,-1110z"/>
   <path class="fil0" d="M810249 952399c716,0 717,1110 0,1110 -717,0 -718,-1110 0,-1110z"/>
   <path class="fil0" d="M339849 794241c717,0 718,1110 0,1110 -716,0 -717,-1110 0,-1110z"/>
   <path class="fil0" d="M156901 740350c358,0 359,-556 0,-556 -358,0 -359,556 0,556z"/>
   <path class="fil0" d="M172079 752633c359,0 359,-555 0,-555 -358,0 -358,555 0,555z"/>
   <path class="fil0" d="M172652 746063c358,0 359,-555 0,-555 -358,0 -359,555 0,555z"/>
   <path class="fil0" d="M141149 726352c359,0 359,-555 0,-555 -358,0 -358,555 0,555z"/>
   <path class="fil0" d="M189844 748356l0 286c0,357 556,358 556,0l0 -286c0,-357 -556,-357 -556,0z"/>
   <path class="fil0" d="M20610 659361l611 0c765,0 766,-1185 0,-1185l-611 0c-764,0 -766,1185 0,1185z"/>
   <path class="fil0" d="M276611 728351c358,0 359,-555 0,-555 -358,0 -359,555 0,555z"/>
   <path class="fil0" d="M597286 969024c764,0 765,-1185 0,-1185 -765,0 -766,1185 0,1185z"/>
   <path class="fil0" d="M169314 793226c765,0 766,-1186 0,-1186 -764,0 -766,1186 0,1186z"/>
   <path class="fil0" d="M189490 781638c765,0 766,-1185 0,-1185 -764,0 -766,1185 0,1185z"/>
   <path class="fil0" d="M258804 860445c765,0 766,-1186 0,-1186 -764,0 -765,1186 0,1186z"/>
   <path class="fil0" d="M133507 800437c-96,95 -191,191 -287,286 -253,253 140,645 394,392 95,-95 191,-190 286,-285 254,-253 -140,-646 -393,-393z"/>
   <path class="fil0" d="M255508 739590c-95,95 -191,190 -286,286 -254,253 139,645 393,392 96,-95 191,-190 286,-286 254,-252 -139,-645 -393,-392z"/>
   <path class="fil0" d="M422600 497921l611 0c466,0 913,-409 891,-889 -21,-481 -391,-889 -891,-889l-611 0c-467,0 -913,409 -891,889 21,482 391,889 891,889z"/>
   <path class="fil0" d="M708396 98997c1147,0 1149,-1778 0,-1778 -1147,0 -1149,1778 0,1778z"/>
   <path class="fil0" d="M68526 724400c717,0 718,-1110 0,-1110 -716,0 -717,1110 0,1110z"/>
   <path class="fil0" d="M111991 702796c95,-96 190,-191 286,-286 159,-159 159,-430 0,-589 -160,-159 -431,-159 -590,0 -96,96 -191,191 -287,286 -159,159 -159,430 0,589 160,159 431,159 591,0z"/>
   <path class="fil0" d="M233728 654778c538,0 539,-833 0,-833 -537,0 -538,833 0,833z"/>
   <path class="fil0" d="M213033 755343c537,0 538,-833 0,-833 -537,0 -538,833 0,833z"/>
   <path class="fil0" d="M214751 744488c537,0 538,-833 0,-833 -537,0 -538,833 0,833z"/>
   <path class="fil0" d="M469566 254682c1147,0 1149,-1778 0,-1778 -1146,0 -1149,1778 0,1778z"/>
   <path class="fil0" d="M126517 793522c1147,0 1149,-1778 0,-1778 -1146,0 -1149,1778 0,1778z"/>
   <path class="fil0" d="M120816 817333c537,0 538,-833 0,-833 -537,0 -538,833 0,833z"/>
   <path class="fil0" d="M127403 772197c537,0 538,-832 0,-832 -537,0 -538,832 0,832z"/>
   <path class="fil0" d="M347228 840454c537,0 538,-832 0,-832 -537,0 -538,832 0,832z"/>
   <path class="fil0" d="M412970 588215c1253,0 1255,-1943 0,-1943 -1254,0 -1256,1943 0,1943z"/>
   <path class="fil0" d="M206546 124857l286 0c510,0 998,-446 974,-971 -24,-526 -428,-972 -974,-972l-286 0c-510,0 -998,447 -974,972 23,526 428,971 974,971z"/>
   <path class="fil0" d="M399776 788403l0 610c0,762 1188,763 1188,0l0 -610c0,-763 -1188,-764 -1188,0z"/>
   <path class="fil0" d="M266443 791667c765,0 766,-1185 0,-1185 -764,0 -766,1185 0,1185z"/>
   <path class="fil0" d="M129889 858330c96,-95 191,-190 287,-285 206,-206 221,-583 0,-786 -222,-203 -567,-219 -787,0 -96,96 -191,191 -287,286 -206,206 -221,582 0,785 222,204 567,220 787,0z"/>
   <path class="fil0" d="M33518 865293l286 0c291,0 571,-255 557,-555 -13,-301 -245,-555 -557,-555l-286 0c-291,0 -570,255 -557,555 14,301 245,555 557,555z"/>
   <path class="fil1" d="M167586 723523c136,217 422,283 640,147 218,-135 284,-421 149,-639 -136,-217 -423,-283 -641,-148 -218,136 -284,422 -148,640z"/>
   <path class="fil1" d="M241782 724224c136,218 423,284 641,148 218,-135 284,-421 148,-639 -136,-217 -423,-284 -641,-148 -217,136 -284,422 -148,639z"/>
   <path class="fil1" d="M94222 762774c135,218 422,284 640,149 218,-136 284,-422 149,-640 -136,-217 -423,-283 -641,-148 -218,136 -284,422 -148,639z"/>
   <path class="fil1" d="M413312 978112c136,217 423,283 640,148 218,-136 285,-422 149,-639 -136,-218 -423,-284 -641,-148 -218,135 -284,421 -148,639z"/>
   <path class="fil1" d="M19969 806958c136,218 423,284 641,148 218,-135 284,-421 148,-639 -136,-217 -423,-284 -641,-147 -217,135 -284,421 -148,638z"/>
   <path class="fil1" d="M223584 756751c135,217 422,284 640,148 218,-135 285,-421 149,-639 -136,-217 -423,-283 -641,-148 -218,136 -284,422 -148,639z"/>
   <path class="fil1" d="M192251 760905c136,217 423,283 641,148 218,-136 284,-422 148,-639 -136,-217 -422,-284 -640,-148 -218,135 -285,422 -149,639z"/>
   <path class="fil1" d="M176718 748789c135,217 422,283 640,148 218,-135 285,-422 148,-639 -135,-217 -422,-284 -640,-148 -218,135 -284,422 -148,639z"/>
   <path class="fil1" d="M236234 175715c136,217 423,283 641,148 217,-136 284,-422 148,-639 -136,-217 -423,-284 -641,-148 -218,135 -284,422 -148,639z"/>
   <path class="fil1" d="M748496 968876c136,218 423,284 641,148 218,-135 284,-421 148,-639 -136,-217 -422,-283 -640,-148 -218,136 -285,422 -149,639z"/>
   <path class="fil1" d="M72053 823582c136,217 423,284 641,148 218,-135 284,-421 148,-639 -136,-217 -423,-284 -641,-148 -217,136 -284,422 -148,639z"/>
   <path class="fil1" d="M248441 773710c136,217 423,283 641,148 218,-136 284,-422 148,-639 -136,-218 -422,-284 -640,-149 -218,136 -285,422 -149,640z"/>
   <path class="fil1" d="M281749 731383c-157,254 -488,332 -740,173 -252,-158 -329,-492 -172,-746 157,-254 489,-332 741,-173 252,158 328,493 171,746z"/>
   <path class="fil3" d="M254232 727829c-157,254 -489,331 -741,173 -252,-158 -329,-493 -172,-746 157,-254 489,-332 741,-174 252,159 329,493 172,747z"/>
   <path class="fil3" d="M85586 214333c-157,253 -489,331 -741,172 -252,-158 -328,-492 -171,-746 157,-254 488,-332 740,-173 252,159 329,493 172,747z"/>
   <path class="fil1" d="M733383 904946c-157,254 -489,331 -741,172 -252,-158 -328,-492 -171,-746 157,-254 488,-332 740,-173 252,159 329,493 172,747z"/>
   <path class="fil3" d="M405331 717056c-157,254 -489,331 -741,173 -252,-158 -329,-492 -172,-746 158,-254 489,-332 741,-173 252,158 329,492 172,746z"/>
   <path class="fil3" d="M174232 807907c-157,254 -488,331 -741,173 -251,-158 -328,-493 -171,-747 157,-254 489,-331 741,-172 252,158 328,492 171,746z"/>
   <path class="fil3" d="M219919 788587c-157,254 -489,331 -741,173 -252,-158 -329,-492 -172,-746 157,-254 489,-332 741,-173 252,158 329,492 172,746z"/>
   <path class="fil3" d="M150087 782591c-157,254 -489,331 -741,173 -252,-158 -329,-492 -171,-746 157,-254 488,-332 740,-173 253,158 329,492 172,746z"/>
   <path class="fil3" d="M303754 57085c-157,254 -489,331 -741,173 -252,-158 -329,-492 -172,-746 157,-254 489,-332 741,-173 252,158 329,492 172,746z"/>
   <path class="fil3" d="M483382 873543c-157,254 -489,331 -741,172 -252,-158 -328,-492 -171,-746 157,-254 489,-332 740,-173 253,159 329,493 172,747z"/>
   <path class="fil3" d="M369473 751602c-157,253 -489,331 -741,172 -252,-158 -329,-492 -172,-746 158,-254 489,-332 741,-173 252,158 329,493 172,747z"/>
   <path class="fil4" d="M591714 398137c-2023,-67 -3645,-1723 -3657,-3774l-33 0c-13,2051 -1634,3707 -3657,3774 2030,68 3658,1738 3660,3800l27 0c1,-2062 1629,-3732 3660,-3800z"/>
   <path class="fil3" d="M515212 730084c1339,45 2413,1142 2422,2499l21 0c9,-1357 1082,-2454 2422,-2499 -1345,-45 -2423,-1150 -2423,-2515l-18 0c-1,1365 -1079,2470 -2424,2515z"/>
   <path class="fil1" d="M282105 703908c-3055,-102 -5505,-2604 -5525,-5703l-50 0c-19,3099 -2468,5601 -5524,5703 3068,102 5529,2624 5529,5739l42 0c1,-3115 2461,-5637 5528,-5739z"/>
   <path class="fil1" d="M122345 242213c136,217 423,283 640,148 218,-136 285,-422 149,-639 -136,-217 -423,-284 -641,-148 -218,135 -284,421 -148,639z"/>
   <path class="fil4" d="M245957 236672c-157,254 -488,331 -741,173 -252,-158 -328,-492 -171,-746 157,-254 489,-332 741,-173 252,158 328,492 171,746z"/>
   <path class="fil2" d="M468397 425777c-157,254 -488,331 -741,173 -252,-158 -328,-493 -171,-747 157,-253 488,-331 741,-172 252,158 328,492 171,746z"/>
   <polygon class="fil5" points="310715,646129 310496,646593 310655,646495 "/>
   <path class="fil1" d="M146347 900104c-157,-254 -489,-331 -741,-173 -252,159 -329,493 -172,747 157,254 489,332 741,173 252,-159 329,-493 172,-747z"/>
   <path class="fil3" d="M52726 488413c-157,-254 -489,-331 -741,-173 -252,158 -329,493 -172,746 157,254 489,332 741,173 252,-158 329,-492 172,-746z"/>
   <path class="fil3" d="M278533 443969c-157,-253 -489,-331 -741,-172 -252,158 -329,492 -171,746 157,254 488,332 740,173 252,-158 329,-493 172,-747z"/>
   <path class="fil2" d="M268889 677457c-157,-254 -489,-331 -741,-173 -252,158 -328,492 -171,746 157,254 489,332 741,173 252,-158 328,-492 171,-746z"/>
   <path class="fil4" d="M342336 608144c157,254 488,332 741,173 251,-158 328,-492 171,-746 -157,-254 -489,-332 -741,-173 -252,158 -328,493 -171,746z"/>
   <path class="fil4" d="M360087 613367c157,254 488,331 740,173 252,-158 329,-492 172,-746 -157,-254 -489,-332 -741,-173 -252,158 -329,492 -171,746z"/>
   <path class="fil2" d="M80981 542323c157,254 489,332 741,173 252,-158 328,-492 171,-746 -157,-254 -489,-332 -740,-173 -253,158 -329,493 -172,746z"/>
   <path class="fil3" d="M322175 628294c157,254 488,332 740,173 253,-158 329,-492 172,-746 -157,-254 -489,-332 -741,-173 -252,158 -328,493 -171,746z"/>
   <path class="fil2" d="M490064 707277c157,254 489,331 741,173 252,-158 328,-493 171,-746 -157,-254 -488,-332 -740,-173 -252,158 -329,492 -172,746z"/>
   <path class="fil4" d="M480982 603282c157,254 488,331 740,173 252,-159 329,-493 172,-747 -157,-254 -489,-331 -741,-173 -252,158 -328,493 -171,747z"/>
   <path class="fil4" d="M305748 617505c157,254 489,331 741,173 252,-158 329,-492 172,-746 -158,-254 -489,-331 -741,-173 -252,158 -329,492 -172,746z"/>
   <path class="fil4" d="M254121 627233c157,254 489,331 741,173 252,-158 328,-492 171,-746 -157,-254 -489,-332 -740,-173 -253,158 -329,492 -172,746z"/>
   <path class="fil2" d="M370830 672355c157,254 489,331 741,173 252,-158 329,-493 172,-746 -157,-254 -489,-332 -741,-173 -252,158 -329,492 -172,746z"/>
   <path class="fil3" d="M190692 643297c-157,254 -489,331 -740,173 -253,-158 -329,-493 -172,-747 157,-253 489,-331 741,-172 252,158 328,492 171,746z"/>
   <path class="fil2" d="M273589 632272c-157,254 -489,331 -741,173 -252,-158 -328,-492 -171,-746 157,-254 488,-332 740,-173 252,158 329,492 172,746z"/>
   <path class="fil1" d="M397911 639354c-157,254 -489,332 -741,174 -252,-159 -328,-493 -171,-747 157,-254 488,-332 741,-173 251,158 328,493 171,746z"/>
   <path class="fil3" d="M469508 941316c-157,254 -489,331 -741,173 -252,-158 -329,-492 -172,-746 157,-254 489,-332 741,-173 252,158 329,492 172,746z"/>
   <path class="fil1" d="M385934 549944c-157,254 -489,331 -741,173 -252,-159 -329,-493 -172,-747 157,-254 489,-331 741,-172 252,158 329,492 172,746z"/>
   <path class="fil3" d="M174821 503534c-157,254 -489,331 -741,173 -252,-159 -328,-493 -171,-747 157,-254 489,-331 740,-172 253,158 329,492 172,746z"/>
   <path class="fil4" d="M969240 371099c-1174,-39 -2116,-1001 -2124,-2192l-19 0c-7,1191 -949,2153 -2123,2192 1179,39 2125,1008 2125,2206l16 0c0,-1198 946,-2167 2125,-2206z"/>
   <path class="fil1" d="M19567 204809c157,254 489,331 741,172 252,-158 329,-492 172,-746 -158,-254 -489,-332 -741,-173 -252,159 -329,493 -172,747z"/>
   <path class="fil3" d="M650818 960534c157,253 488,331 740,172 252,-158 329,-492 172,-746 -157,-254 -489,-332 -741,-173 -252,158 -329,493 -171,747z"/>
   <path class="fil3" d="M131284 621343c157,254 489,331 741,172 252,-158 328,-492 171,-746 -157,-254 -489,-332 -740,-173 -253,159 -329,493 -172,747z"/>
   <path class="fil3" d="M229233 684526c157,254 489,331 741,173 252,-159 328,-493 171,-747 -157,-254 -488,-332 -740,-173 -252,159 -329,493 -172,747z"/>
   <path class="fil2" d="M400946 747416c157,254 489,331 741,173 252,-158 329,-492 171,-746 -157,-254 -488,-332 -740,-173 -252,158 -329,492 -172,746z"/>
   <path class="fil2" d="M137647 662618c157,254 488,331 741,173 252,-158 328,-492 171,-746 -157,-254 -489,-332 -741,-173 -252,158 -328,492 -171,746z"/>
   <path class="fil3" d="M123667 660101c157,254 489,331 741,173 252,-158 328,-493 171,-747 -157,-253 -489,-332 -740,-172 -253,158 -329,492 -172,746z"/>
   <path class="fil3" d="M133236 685638c157,254 489,331 741,173 252,-158 329,-493 172,-746 -157,-254 -489,-332 -741,-173 -252,158 -329,492 -172,746z"/>
   <path class="fil3" d="M408062 455045c157,254 489,331 741,173 252,-158 329,-493 172,-747 -157,-253 -489,-331 -741,-172 -252,158 -329,492 -172,746z"/>
   <path class="fil0" d="M151283 585523c179,0 180,278 0,278 -179,0 -179,-278 0,-278z"/>
   <path class="fil0" d="M154147 585385c358,0 359,555 0,555 -358,0 -358,-555 0,-555z"/>
   <path class="fil0" d="M150327 606860c462,0 463,717 0,717 -462,0 -463,-717 0,-717z"/>
   <path class="fil4" d="M522100 924864c-157,-254 -489,-331 -741,-173 -252,158 -329,493 -172,746 157,254 489,332 741,173 252,-158 329,-492 172,-746z"/>
   <path class="fil2" d="M371844 603801c157,254 489,331 741,172 252,-158 328,-492 171,-746 -157,-254 -488,-332 -740,-173 -253,159 -329,493 -172,747z"/>
   <path class="fil4" d="M308009 603026c157,254 488,331 740,173 253,-158 329,-493 172,-746 -157,-254 -489,-332 -741,-173 -252,158 -328,492 -171,746z"/>
   <path class="fil4" d="M330466 593777c157,254 488,331 740,173 252,-158 329,-492 172,-746 -157,-254 -489,-332 -741,-173 -252,158 -328,492 -171,746z"/>
   <path class="fil1" d="M62276 623542c-157,254 -488,331 -741,173 -252,-158 -328,-492 -171,-746 157,-254 489,-332 741,-173 252,158 328,492 171,746z"/>
   <path class="fil3" d="M644322 412847c-157,254 -489,331 -741,173 -252,-158 -328,-493 -171,-747 157,-253 488,-331 741,-172 252,158 328,492 171,746z"/>
   <path class="fil1" d="M441535 61375c-157,253 -488,331 -741,173 -251,-159 -328,-493 -171,-747 157,-254 489,-331 741,-173 252,158 328,493 171,747z"/>
   <path class="fil2" d="M175642 839717c-157,254 -489,331 -741,173 -252,-158 -329,-492 -172,-746 157,-254 489,-332 741,-173 252,158 329,492 172,746z"/>
   <path class="fil3" d="M213545 595670c-157,254 -489,331 -741,173 -252,-158 -329,-493 -172,-747 157,-253 489,-331 741,-172 252,158 329,492 172,746z"/>
   <path class="fil3" d="M240697 593474c-157,254 -488,331 -740,173 -252,-158 -329,-492 -172,-746 157,-254 489,-332 741,-173 252,158 329,492 171,746z"/>
   <path class="fil3" d="M450989 49123c-157,253 -489,331 -741,173 -252,-159 -329,-493 -172,-747 157,-254 489,-332 741,-173 252,158 329,493 172,747z"/>
   <path class="fil1" d="M86629 876896c-157,254 -489,331 -741,173 -252,-158 -329,-492 -172,-746 157,-254 489,-332 741,-173 252,158 329,492 172,746z"/>
   <path class="fil3" d="M463017 750132c-157,254 -488,331 -740,173 -253,-158 -329,-492 -172,-746 157,-254 489,-332 741,-173 252,158 328,492 171,746z"/>
   <path class="fil1" d="M467182 475826c-157,254 -489,331 -741,173 -252,-158 -329,-493 -172,-747 157,-253 489,-331 741,-172 252,158 329,492 172,746z"/>
   <path class="fil4" d="M346097 277907c-463,0 -463,716 0,716 462,0 463,-716 0,-716z"/>
   <polygon class="fil5" points="185708,317176 185927,317640 185768,317541 "/>
   <path class="fil3" d="M183099 325714c157,-254 489,-331 740,-173 253,158 330,492 172,746 -157,254 -489,332 -741,173 -252,-158 -328,-492 -171,-746z"/>
   <path class="fil2" d="M184859 340590c157,-254 489,-331 741,-173 252,159 328,493 171,747 -157,254 -488,331 -740,172 -252,-158 -329,-492 -172,-746z"/>
   <path class="fil4" d="M213781 438133c157,-254 489,-331 741,-173 252,158 328,493 171,746 -157,254 -489,332 -741,174 -252,-159 -328,-493 -171,-747z"/>
   <path class="fil4" d="M154088 279191c-157,254 -489,331 -741,173 -252,-158 -329,-492 -172,-746 157,-254 489,-332 741,-173 252,158 329,492 172,746z"/>
   <path class="fil3" d="M174249 299341c-157,254 -489,331 -741,173 -252,-158 -329,-492 -171,-746 157,-254 488,-332 740,-173 252,158 329,492 172,746z"/>
   <path class="fil4" d="M188415 274073c-157,254 -489,331 -741,172 -252,-158 -329,-492 -172,-746 157,-254 489,-332 741,-173 252,159 329,493 172,747z"/>
   <path class="fil2" d="M148027 308334c-157,254 -489,331 -741,173 -252,-158 -328,-493 -171,-747 157,-253 488,-331 740,-172 252,158 329,492 172,746z"/>
   <path class="fil4" d="M156987 323064c-157,254 -488,331 -740,173 -252,-158 -329,-493 -172,-747 157,-254 489,-331 741,-173 252,159 328,493 171,747z"/>
   <path class="fil4" d="M305731 314344c157,253 489,331 741,173 252,-159 329,-493 171,-747 -157,-254 -488,-332 -740,-173 -252,158 -329,493 -172,747z"/>
   <path class="fil3" d="M198397 50797c157,254 489,331 741,173 252,-158 329,-493 172,-747 -157,-253 -489,-331 -741,-172 -252,158 -329,492 -172,746z"/>
   <path class="fil4" d="M321426 278972c157,254 489,331 741,173 252,-159 329,-493 172,-747 -158,-254 -489,-332 -741,-173 -252,158 -329,493 -172,747z"/>
   <path class="fil4" d="M298078 296354c157,254 489,331 741,173 252,-158 328,-492 171,-746 -157,-254 -489,-332 -741,-173 -252,158 -328,493 -171,746z"/>
   <path class="fil1" d="M272525 279672c157,254 488,331 741,173 252,-158 328,-492 171,-746 -157,-254 -489,-332 -741,-173 -252,158 -328,492 -171,746z"/>
   <path class="fil4" d="M339158 375181c157,254 489,331 741,173 252,-158 329,-492 171,-746 -157,-254 -488,-332 -740,-173 -253,158 -329,492 -172,746z"/>
   <path class="fil3" d="M159404 361620c157,254 489,331 741,173 252,-158 329,-493 172,-747 -157,-254 -489,-331 -741,-172 -252,158 -329,492 -172,746z"/>
   <path class="fil4" d="M203504 339607c1174,-40 2116,-1001 2123,-2192l20 0c7,1191 948,2152 2123,2192 -1179,39 -2125,1008 -2125,2205l-16 0c-1,-1197 -946,-2166 -2125,-2205z"/>
   <path class="fil4" d="M346712 344108c-157,254 -488,331 -740,173 -252,-158 -329,-492 -172,-746 157,-254 489,-332 741,-173 252,158 328,492 171,746z"/>
   <path class="fil4" d="M335602 323131c-157,254 -489,331 -741,173 -252,-158 -328,-492 -171,-746 157,-254 488,-332 740,-173 253,158 329,492 172,746z"/>
   <path class="fil4" d="M302302 329346c-157,254 -489,331 -741,173 -252,-158 -329,-492 -172,-746 157,-254 489,-332 741,-173 252,158 329,492 172,746z"/>
   <path class="fil4" d="M343115 349853c-157,254 -489,331 -741,173 -252,-158 -329,-492 -172,-746 157,-254 489,-332 741,-173 252,158 329,492 172,746z"/>
   <path class="fil4" d="M315136 337554c-157,254 -489,331 -741,173 -252,-159 -328,-493 -171,-747 157,-254 488,-331 740,-173 252,159 329,493 172,747z"/>
   <path class="fil3" d="M109197 176928c-157,254 -489,331 -741,173 -252,-158 -328,-492 -171,-746 157,-254 488,-332 740,-173 252,158 329,492 172,746z"/>
   <path class="fil4" d="M795719 102838c1889,-62 3404,-1610 3416,-3524l30 0c12,1914 1526,3462 3416,3524 -1897,63 -3417,1623 -3418,3548l-26 0c-1,-1925 -1521,-3485 -3418,-3548z"/>
   <path class="fil0" d="M153061 381453c179,0 179,278 0,278 -179,0 -180,-278 0,-278z"/>
   <path class="fil0" d="M155925 381314c358,0 359,556 0,556 -358,0 -359,-556 0,-556z"/>
   <path class="fil4" d="M310522 462535c-1174,-39 -2116,-1001 -2123,-2192l-20 0c-7,1191 -948,2153 -2123,2192 1179,39 2125,1008 2125,2206l16 0c0,-1198 946,-2167 2125,-2206z"/>
   <path class="fil0" d="M57423 936650l0 -285c0,-509 448,-995 974,-972 528,24 974,427 974,972l0 285c0,509 -448,995 -974,972 -527,-24 -974,-427 -974,-972z"/>
   <path class="fil0" d="M433638 820463c1146,0 1149,-1778 0,-1778 -1147,0 -1149,1778 0,1778z"/>
   <path class="fil1" d="M96999 587522c136,217 422,283 640,147 218,-135 285,-421 149,-638 -136,-218 -423,-284 -641,-148 -218,135 -284,421 -148,639z"/>
   <path class="fil4" d="M37277 720219c1146,0 1148,-1778 0,-1778 -1147,0 -1149,1778 0,1778z"/>
   <path class="fil1" d="M192886 867916c136,218 422,284 640,148 218,-135 285,-421 149,-639 -136,-217 -423,-283 -641,-148 -218,136 -284,422 -148,639z"/>
   <path class="fil1" d="M313719 874150c136,218 423,284 641,148 218,-135 284,-421 148,-639 -136,-217 -422,-284 -640,-148 -218,136 -285,422 -149,639z"/>
   <path class="fil1" d="M433975 548092c-157,254 -489,331 -741,173 -252,-158 -329,-492 -172,-746 157,-254 489,-332 741,-173 252,158 329,492 172,746z"/>
   <path class="fil0" d="M421160 671618l287 0c509,0 997,-447 974,-971 -24,-527 -428,-972 -974,-972l-287 0c-509,0 -997,447 -974,972 24,526 428,971 974,971z"/>
   <path class="fil3" d="M78295 403785c-157,254 -489,331 -741,173 -252,-159 -329,-493 -172,-747 157,-254 489,-331 741,-172 252,158 329,492 172,746z"/>
   <path class="fil3" d="M436058 398363c-157,-254 -489,-331 -741,-173 -252,158 -329,492 -172,746 157,254 489,332 741,173 252,-158 329,-492 172,-746z"/>
   <path class="fil4" d="M434845 208965c-1174,-40 -2116,-1001 -2123,-2192l-20 0c-7,1191 -948,2152 -2123,2192 1179,39 2125,1008 2125,2205l16 0c1,-1197 946,-2166 2125,-2205z"/>
   <path class="fil4" d="M55679 168788c157,254 488,331 740,173 252,-158 329,-492 172,-746 -157,-254 -489,-332 -741,-173 -252,158 -328,492 -171,746z"/>
   <path class="fil0" d="M284845 198274c1147,0 1149,-1778 0,-1778 -1147,0 -1149,1778 0,1778z"/>
   <path class="fil3" d="M53238 262740c1339,44 2413,1141 2422,2499l21 0c9,-1358 1082,-2455 2421,-2499 -1344,-45 -2422,-1151 -2423,-2516l-18 0c0,1365 -1079,2471 -2423,2516z"/>
   <path class="fil0" d="M387567 195044l0 -157c0,-715 1113,-716 1113,0l0 157c0,714 -1113,715 -1113,0l0 -157c0,-715 1113,-716 1113,0l0 157c0,714 -1113,715 -1113,0z"/>
   <path class="fil3" d="M367530 190781c-157,254 -488,332 -740,173 -252,-158 -329,-492 -172,-746 157,-254 489,-332 741,-173 252,158 329,493 171,746z"/>
   <path class="fil1" d="M381045 172014c136,217 423,283 641,148 218,-136 284,-422 148,-639 -136,-217 -422,-284 -640,-148 -218,135 -284,421 -149,639z"/>
   <path class="fil4" d="M378687 218317c-157,254 -489,331 -741,173 -252,-159 -328,-493 -171,-747 157,-254 488,-331 740,-173 252,159 329,493 172,747z"/>
   <path class="fil3" d="M364888 161755c-157,254 -488,331 -740,173 -252,-158 -329,-493 -172,-747 157,-253 489,-332 741,-173 252,159 328,493 171,747z"/>
   <path class="fil4" d="M95956 315640c157,254 489,331 741,173 252,-159 329,-493 172,-747 -157,-254 -489,-332 -741,-173 -252,158 -329,493 -172,747z"/>
   <path class="fil3" d="M75795 335790c157,254 489,331 741,172 252,-158 329,-492 172,-746 -157,-254 -489,-332 -741,-173 -252,158 -329,493 -172,747z"/>
   <path class="fil4" d="M59369 325000c157,254 489,332 740,173 253,-158 329,-492 172,-746 -157,-254 -489,-331 -741,-173 -252,158 -328,493 -171,746z"/>
   <path class="fil4" d="M61629 310521c157,254 489,331 741,173 252,-158 329,-493 172,-746 -157,-254 -489,-332 -741,-173 -252,158 -329,492 -172,746z"/>
   <path class="fil4" d="M84086 301272c157,254 489,331 741,173 252,-158 329,-492 171,-746 -157,-254 -488,-332 -740,-173 -252,158 -329,492 -172,746z"/>
   <path class="fil0" d="M146734 193725l611 0c466,0 913,-409 891,-889 -21,-481 -391,-888 -891,-888l-611 0c-466,0 -913,408 -891,888 21,482 391,889 891,889z"/>
   <path class="fil3" d="M351512 236672c-157,254 -489,331 -741,173 -252,-158 -329,-492 -171,-746 157,-254 488,-332 740,-173 253,158 329,492 172,746z"/>
   <path class="fil4" d="M426511 311484c157,253 489,331 741,173 252,-159 329,-493 172,-747 -157,-254 -489,-332 -741,-173 -252,159 -329,493 -172,747z"/>
   <path class="fil4" d="M201340 202676c157,-253 489,-331 741,-172 252,158 328,492 171,746 -157,254 -489,332 -740,173 -253,-158 -329,-493 -172,-747z"/>
   <path class="fil4" d="M253553 381317c1174,-39 2116,-1001 2124,-2191l19 0c7,1190 949,2152 2123,2191 -1179,40 -2125,1009 -2125,2206l-16 0c0,-1197 -946,-2166 -2125,-2206z"/>
   <path class="fil3" d="M314012 168789c1339,44 2413,1141 2422,2498l21 0c9,-1357 1082,-2454 2422,-2498 -1345,-45 -2423,-1151 -2424,-2516l-18 0c0,1365 -1078,2471 -2423,2516z"/>
   <path class="fil4" d="M407397 288665c157,253 488,331 741,172 252,-158 328,-492 171,-746 -157,-254 -489,-332 -741,-173 -252,159 -328,493 -171,747z"/>
   <path class="fil2" d="M426865 293703c-157,254 -489,331 -741,173 -252,-158 -329,-492 -172,-746 157,-254 489,-332 741,-173 252,158 329,492 172,746z"/>
   <path class="fil3" d="M396869 287120c-157,254 -489,331 -741,173 -252,-158 -329,-493 -172,-746 157,-254 489,-332 741,-174 252,159 329,493 172,747z"/>
   <path class="fil3" d="M170308 226801c-157,254 -488,331 -740,173 -252,-158 -329,-492 -172,-746 157,-254 489,-332 741,-173 252,158 328,492 171,746z"/>
   <path class="fil1" d="M403985 265563c-157,254 -489,331 -741,173 -252,-159 -328,-493 -171,-747 157,-254 488,-331 741,-173 252,159 328,493 171,747z"/>
   <path class="fil3" d="M455201 170747c-157,253 -489,331 -741,172 -252,-158 -328,-492 -171,-746 157,-254 488,-332 740,-173 252,159 329,493 172,747z"/>
   <path class="fil3" d="M413438 253311c-157,254 -488,331 -741,173 -252,-159 -328,-493 -171,-747 157,-254 489,-331 741,-173 252,159 328,493 171,747z"/>
   <path class="fil0" d="M803459 569285c-537,0 -538,832 0,832 538,0 539,-832 0,-832z"/>
   <path class="fil0" d="M846844 460066l-612 0c-764,0 -766,-1185 0,-1185l612 0c764,0 765,1185 0,1185z"/>
   <path class="fil1" d="M840410 561493c-135,217 -422,283 -640,147 -218,-135 -284,-421 -148,-638 135,-218 422,-285 640,-149 218,136 284,422 148,640z"/>
   <path class="fil2" d="M754502 517387c-157,-254 -488,-331 -740,-173 -253,158 -329,492 -172,746 157,254 489,332 741,173 252,-158 328,-492 171,-746z"/>
   <path class="fil2" d="M668971 529215c157,254 489,331 741,173 252,-159 329,-493 172,-747 -157,-253 -489,-332 -741,-172 -252,158 -329,492 -172,746z"/>
   <path class="fil2" d="M820091 558776c157,254 489,331 741,173 252,-158 329,-493 171,-746 -157,-254 -488,-332 -740,-173 -252,158 -329,492 -172,746z"/>
   <path class="fil2" d="M633388 517194c157,254 488,331 740,173 252,-158 329,-492 172,-746 -157,-254 -489,-332 -741,-173 -252,158 -328,492 -171,746z"/>
   <path class="fil2" d="M979520 743647c157,-254 489,-331 741,-172 252,158 329,492 172,746 -157,254 -489,332 -741,173 -252,-159 -329,-493 -172,-747z"/>
   <path class="fil3" d="M782353 554272c157,254 488,331 740,173 252,-158 329,-493 172,-746 -157,-254 -489,-332 -741,-173 -252,158 -328,492 -171,746z"/>
   <path class="fil2" d="M741989 548212c157,253 488,331 740,172 252,-158 329,-492 172,-746 -157,-254 -489,-332 -741,-173 -252,158 -328,493 -171,747z"/>
   <path class="fil3" d="M763828 833123c172,279 536,363 813,190 277,-174 361,-541 188,-819 -172,-279 -536,-365 -813,-190 -277,173 -361,540 -188,819z"/>
   <path class="fil0" d="M650026 748990c-96,-95 -191,-190 -287,-285 -253,-253 -647,139 -393,392 95,96 191,191 286,286 254,253 648,-139 394,-393z"/>
   <path class="fil0" d="M714967 316671c-190,96 -381,191 -572,287 -320,160 -39,639 281,479 191,-95 381,-191 572,-286 320,-161 39,-640 -281,-480z"/>
   <path class="fil0" d="M753184 326890c-358,0 -359,555 0,555 358,0 358,-555 0,-555z"/>
   <path class="fil0" d="M617566 743000c95,-95 190,-190 286,-285 127,-127 -70,-323 -197,-197 -95,95 -191,191 -286,286 -127,126 70,323 197,196z"/>
   <path class="fil0" d="M617754 768049c-359,0 -359,555 0,555 358,0 358,-555 0,-555z"/>
   <path class="fil0" d="M617181 774619c-358,0 -359,555 0,555 358,0 358,-555 0,-555z"/>
   <path class="fil0" d="M635134 735385c95,-95 190,-190 286,-285 253,-253 -140,-646 -394,-393 -95,95 -190,191 -286,286 -254,253 140,645 394,392z"/>
   <path class="fil0" d="M629209 746052c-358,0 -359,556 0,556 358,0 359,-556 0,-556z"/>
   <path class="fil0" d="M629495 697489l-286 0c-358,0 -359,555 0,555l286 0c359,0 359,-555 0,-555z"/>
   <path class="fil0" d="M606716 62463c-358,0 -358,556 0,556 359,0 359,-556 0,-556z"/>
   <path class="fil0" d="M977555 299759l0 -157c0,-714 -1113,-716 -1113,0l0 157c0,715 1113,716 1113,0l0 -157c0,-714 -1113,-716 -1113,0l0 157c0,715 1113,716 1113,0z"/>
   <path class="fil0" d="M619472 832904c-716,0 -718,1110 0,1110 716,0 717,-1110 0,-1110z"/>
   <path class="fil0" d="M654698 686062c-359,0 -359,555 0,555 358,0 358,-555 0,-555z"/>
   <path class="fil0" d="M662430 673493c-358,0 -359,555 0,555 358,0 359,-555 0,-555z"/>
   <path class="fil0" d="M675318 680349c-359,0 -359,555 0,555 358,0 358,-555 0,-555z"/>
   <path class="fil0" d="M621609 66748c-358,0 -359,556 0,556 358,0 358,-556 0,-556z"/>
   <path class="fil0" d="M628615 810279c-765,0 -766,1185 0,1185 764,0 766,-1185 0,-1185z"/>
   <path class="fil0" d="M644697 821854l0 -286c0,-357 -557,-358 -557,0l0 286c0,357 557,357 557,0z"/>
   <path class="fil0" d="M626337 684340l0 -285c0,-358 -557,-358 -557,0l0 285c0,357 557,358 557,0z"/>
   <path class="fil0" d="M626059 702345l-287 0c-358,0 -358,555 0,555l287 0c358,0 358,-555 0,-555z"/>
   <path class="fil0" d="M620904 697489c-358,0 -359,555 0,555 358,0 358,-555 0,-555z"/>
   <path class="fil0" d="M619758 711772c-358,0 -358,556 0,556 358,0 359,-556 0,-556z"/>
   <path class="fil0" d="M620617 730341c-358,0 -358,555 0,555 359,0 359,-555 0,-555z"/>
   <path class="fil0" d="M696689 665643c95,-95 190,-190 286,-285 253,-253 -140,-646 -394,-393 -95,96 -190,191 -286,286 -254,253 140,645 394,392z"/>
   <path class="fil0" d="M741639 327257c-96,-95 -191,-190 -287,-285 -253,-253 -647,139 -393,392 95,95 191,190 286,286 254,253 647,-140 394,-393z"/>
   <path class="fil0" d="M529760 674385l-286 0c-219,0 -428,192 -418,417 10,225 184,416 418,416l286 0c219,0 428,-192 417,-416 -10,-226 -183,-417 -417,-417z"/>
   <path class="fil0" d="M607157 740772l-286 0c-219,0 -428,191 -418,416 10,226 184,416 418,416l286 0c219,0 428,-191 418,-416 -10,-226 -184,-416 -418,-416z"/>
   <path class="fil0" d="M616322 840184c-537,0 -538,833 0,833 537,0 538,-833 0,-833z"/>
   <path class="fil0" d="M624391 862766c96,-95 191,-190 286,-285 160,-159 160,-430 0,-589 -160,-160 -430,-160 -590,0 -95,95 -191,190 -286,286 -160,158 -160,429 0,588 160,160 430,160 590,0z"/>
   <path class="fil0" d="M616608 815902c-537,0 -538,833 0,833 537,0 538,-833 0,-833z"/>
   <path class="fil0" d="M606715 808891l0 -285c0,-218 -192,-427 -417,-417 -226,10 -417,183 -417,417l0 285c0,218 192,427 417,417 226,-10 417,-183 417,-417z"/>
   <path class="fil0" d="M750033 310468c-537,0 -538,833 0,833 537,0 539,-833 0,-833z"/>
   <path class="fil0" d="M608876 685638c-538,0 -539,833 0,833 537,0 538,-833 0,-833z"/>
   <path class="fil0" d="M634650 670212c-537,0 -538,833 0,833 537,0 539,-833 0,-833z"/>
   <path class="fil0" d="M650679 662621c-95,95 -190,190 -286,285 -159,159 -159,430 0,589 160,160 431,160 590,0 96,-95 191,-190 287,-285 159,-160 159,-430 0,-589 -160,-160 -431,-160 -591,0z"/>
   <path class="fil0" d="M672454 663927c-537,0 -539,833 0,833 537,0 538,-833 0,-833z"/>
   <path class="fil0" d="M736287 308469c-537,0 -538,832 0,832 537,0 538,-832 0,-832z"/>
   <path class="fil0" d="M713940 328302c-96,95 -191,190 -287,285 -159,159 -159,430 0,589 160,160 431,160 591,0l286 -286c159,-158 159,-429 0,-588 -160,-160 -430,-160 -590,0z"/>
   <path class="fil0" d="M662430 748485c-537,0 -538,832 0,832 537,0 538,-832 0,-832z"/>
   <path class="fil0" d="M600989 68609c-537,0 -538,833 0,833 537,0 538,-833 0,-833z"/>
   <path class="fil0" d="M665580 754484c-537,0 -538,832 0,832 537,0 538,-832 0,-832z"/>
   <path class="fil0" d="M576291 884410l0 -286c0,-508 -448,-995 -974,-971 -528,23 -974,427 -974,971l0 286c0,508 448,995 974,971 528,-23 974,-426 974,-971z"/>
   <path class="fil0" d="M656293 818052c-358,0 -359,555 0,555 358,0 359,-555 0,-555z"/>
   <path class="fil0" d="M610063 70936c96,-95 191,-190 287,-286 253,-253 -140,-645 -394,-392 -95,95 -191,190 -286,286 -254,252 140,645 393,392z"/>
   <path class="fil0" d="M629023 780075l0 -285c0,-218 -192,-427 -417,-417 -226,10 -417,183 -417,417l0 285c0,218 192,427 417,417 226,-10 417,-183 417,-417z"/>
   <path class="fil0" d="M649890 781701c-537,0 -538,832 0,832 537,0 538,-832 0,-832z"/>
   <path class="fil0" d="M674841 782276c-537,0 -538,832 0,832 537,0 538,-832 0,-832z"/>
   <path class="fil0" d="M634583 758031c-537,0 -538,833 0,833 537,0 539,-833 0,-833z"/>
   <path class="fil0" d="M666817 796021c-538,0 -539,832 0,832 537,0 538,-832 0,-832z"/>
   <path class="fil0" d="M684506 799098c-716,0 -717,1110 0,1110 716,0 718,-1110 0,-1110z"/>
   <path class="fil0" d="M643476 772924c-716,0 -718,1110 0,1110 716,0 717,-1110 0,-1110z"/>
   <path class="fil0" d="M642187 794241c-716,0 -717,1110 0,1110 716,0 718,-1110 0,-1110z"/>
   <path class="fil0" d="M825136 740350c-358,0 -359,-556 0,-556 358,0 358,556 0,556z"/>
   <path class="fil0" d="M809957 752633c-358,0 -358,-555 0,-555 358,0 359,555 0,555z"/>
   <path class="fil0" d="M809384 746063c-358,0 -358,-555 0,-555 359,0 359,555 0,555z"/>
   <path class="fil0" d="M840887 726352c-358,0 -359,-555 0,-555 358,0 359,555 0,555z"/>
   <path class="fil0" d="M792193 748356l0 286c0,357 -556,358 -556,0l0 -286c0,-357 556,-357 556,0z"/>
   <path class="fil0" d="M961426 659361l-611 0c-764,0 -765,-1185 0,-1185l611 0c765,0 766,1185 0,1185z"/>
   <path class="fil0" d="M705426 728351c-359,0 -359,-555 0,-555 358,0 358,555 0,555z"/>
   <path class="fil0" d="M733922 705359c-764,0 -766,-1185 0,-1185 765,0 766,1185 0,1185z"/>
   <path class="fil0" d="M891729 83558c-765,0 -766,-1185 0,-1185 764,0 765,1185 0,1185z"/>
   <path class="fil0" d="M871553 71971c-765,0 -766,-1186 0,-1186 764,0 765,1186 0,1186z"/>
   <path class="fil0" d="M723232 860445c-764,0 -766,-1186 0,-1186 765,0 766,1186 0,1186z"/>
   <path class="fil0" d="M848530 800437c95,95 191,191 286,286 254,253 -139,645 -393,392 -96,-95 -191,-190 -286,-285 -254,-253 139,-646 393,-393z"/>
   <path class="fil0" d="M726529 739590c95,95 191,190 286,286 254,253 -140,645 -393,392 -96,-95 -191,-190 -287,-286 -254,-252 140,-645 394,-392z"/>
   <path class="fil0" d="M957956 770394l-612 0c-466,0 -913,-409 -891,-889 21,-482 392,-889 891,-889l612 0c466,0 912,409 891,889 -22,482 -392,889 -891,889z"/>
   <path class="fil0" d="M508396 104538c-1147,0 -1149,-1777 0,-1777 1147,0 1149,1777 0,1777z"/>
   <path class="fil0" d="M913510 724400c-716,0 -717,-1110 0,-1110 717,0 718,1110 0,1110z"/>
   <path class="fil0" d="M870046 702796c-95,-96 -191,-191 -286,-286 -160,-159 -160,-430 0,-589 160,-159 430,-159 590,0 95,96 191,191 286,286 160,159 160,430 0,589 -159,159 -430,159 -590,0z"/>
   <path class="fil0" d="M748308 654778c-537,0 -538,-833 0,-833 537,0 538,833 0,833z"/>
   <path class="fil0" d="M769004 755343c-537,0 -538,-833 0,-833 537,0 538,833 0,833z"/>
   <path class="fil0" d="M550989 970871c-537,0 -538,-833 0,-833 537,0 538,833 0,833z"/>
   <path class="fil0" d="M512471 271308c-1147,0 -1149,-1778 0,-1778 1146,0 1148,1778 0,1778z"/>
   <path class="fil0" d="M855520 793522c-1147,0 -1149,-1778 0,-1778 1146,0 1148,1778 0,1778z"/>
   <path class="fil0" d="M861221 817333c-537,0 -538,-833 0,-833 537,0 538,833 0,833z"/>
   <path class="fil0" d="M854634 772197c-537,0 -538,-832 0,-832 537,0 538,832 0,832z"/>
   <path class="fil0" d="M634809 840454c-537,0 -538,-832 0,-832 537,0 538,832 0,832z"/>
   <path class="fil0" d="M69508 89857c-1253,0 -1255,-1943 0,-1943 1253,0 1256,1943 0,1943z"/>
   <path class="fil0" d="M849423 911761l-286 0c-510,0 -998,-447 -974,-972 24,-526 428,-971 974,-971l286 0c510,0 998,447 974,971 -24,527 -428,972 -974,972z"/>
   <path class="fil0" d="M582261 788403l0 610c0,762 -1189,763 -1189,0l0 -610c0,-763 1189,-764 1189,0z"/>
   <path class="fil0" d="M715594 791667c-765,0 -766,-1185 0,-1185 764,0 765,1185 0,1185z"/>
   <path class="fil0" d="M852147 858330c-95,-95 -190,-190 -286,-285 -206,-206 -221,-583 0,-786 222,-203 567,-219 787,0 95,96 191,191 286,286 207,206 222,582 0,785 -222,204 -567,220 -787,0z"/>
   <path class="fil0" d="M948519 865293l-287 0c-291,0 -570,-255 -556,-555 13,-301 244,-555 556,-555l287 0c291,0 570,255 556,555 -13,301 -244,555 -556,555z"/>
   <path class="fil1" d="M814451 723523c-136,217 -423,283 -641,147 -218,-135 -284,-421 -148,-639 136,-217 423,-283 641,-148 218,136 284,422 148,640z"/>
   <path class="fil1" d="M740255 724224c-136,218 -423,284 -641,148 -218,-135 -284,-421 -148,-639 135,-217 422,-284 640,-148 218,136 284,422 149,639z"/>
   <path class="fil1" d="M887815 762774c-136,218 -423,284 -641,149 -217,-136 -284,-422 -148,-640 136,-217 423,-283 641,-148 218,136 284,422 148,639z"/>
   <path class="fil1" d="M795766 723156c-135,217 -422,283 -640,148 -218,-136 -284,-422 -149,-639 136,-217 423,-284 641,-148 218,135 284,421 148,639z"/>
   <path class="fil1" d="M962067 806958c-135,218 -422,284 -640,148 -218,-135 -284,-421 -149,-639 136,-217 423,-284 641,-147 218,135 284,421 148,638z"/>
   <path class="fil1" d="M758453 756751c-136,217 -423,284 -641,148 -217,-135 -284,-421 -148,-639 136,-217 423,-283 641,-148 218,136 284,422 148,639z"/>
   <path class="fil1" d="M789785 760905c-135,217 -422,283 -640,148 -218,-136 -284,-422 -149,-639 136,-217 423,-284 641,-148 218,135 284,422 148,639z"/>
   <path class="fil1" d="M805319 748789c-136,217 -422,283 -640,148 -218,-135 -285,-422 -149,-639 136,-217 423,-284 641,-148 218,135 284,422 148,639z"/>
   <path class="fil1" d="M745803 175715c-136,217 -423,283 -641,148 -218,-136 -284,-422 -148,-639 135,-217 422,-284 640,-148 218,135 284,422 149,639z"/>
   <path class="fil1" d="M284964 983654c-136,217 -423,283 -641,148 -218,-136 -284,-422 -148,-639 136,-217 422,-283 640,-148 218,135 285,422 149,639z"/>
   <path class="fil1" d="M909984 823582c-136,217 -423,284 -641,148 -218,-135 -284,-421 -148,-639 135,-217 422,-284 640,-148 218,136 284,422 149,639z"/>
   <path class="fil1" d="M733595 773710c-135,217 -422,283 -640,148 -218,-136 -284,-422 -148,-639 135,-218 422,-284 640,-149 218,136 284,422 148,640z"/>
   <path class="fil1" d="M887841 268211c157,254 489,331 740,173 253,-158 329,-492 172,-746 -157,-254 -489,-332 -741,-173 -252,158 -328,492 -171,746z"/>
   <path class="fil3" d="M727805 727829c157,254 489,331 741,173 252,-158 329,-493 172,-746 -157,-254 -489,-332 -741,-174 -252,159 -329,493 -172,747z"/>
   <path class="fil3" d="M896451 214333c157,253 488,331 740,172 253,-158 329,-492 172,-746 -157,-254 -489,-332 -741,-173 -252,159 -329,493 -171,747z"/>
   <path class="fil1" d="M635786 715452c157,254 489,331 741,173 252,-159 329,-493 172,-747 -157,-254 -489,-331 -741,-172 -252,158 -329,492 -172,746z"/>
   <path class="fil3" d="M576706 717056c157,254 489,331 741,173 252,-158 329,-492 171,-746 -157,-254 -488,-332 -741,-173 -252,158 -328,492 -171,746z"/>
   <path class="fil3" d="M807804 807907c157,254 489,331 741,173 252,-158 329,-493 172,-747 -157,-254 -489,-331 -741,-172 -252,158 -329,492 -172,746z"/>
   <path class="fil3" d="M762118 788587c157,254 489,331 741,173 252,-158 328,-492 171,-746 -157,-254 -488,-332 -740,-173 -253,158 -329,492 -172,746z"/>
   <path class="fil3" d="M910956 72923c157,254 489,331 741,173 252,-158 328,-492 171,-746 -157,-254 -489,-332 -741,-173 -252,158 -328,492 -171,746z"/>
   <path class="fil3" d="M866162 79459c157,254 489,331 741,173 252,-158 329,-493 172,-746 -157,-254 -489,-332 -741,-173 -252,158 -329,492 -172,746z"/>
   <path class="fil3" d="M788702 672323c158,254 489,332 741,173 252,-158 329,-492 172,-746 -157,-254 -489,-332 -741,-173 -252,158 -329,493 -172,746z"/>
   <path class="fil3" d="M612564 751602c157,253 489,331 741,172 252,-158 328,-492 171,-746 -157,-254 -489,-332 -741,-173 -252,158 -328,493 -171,747z"/>
   <path class="fil4" d="M930816 839615c2023,-67 3644,-1724 3657,-3774l33 0c13,2050 1634,3707 3657,3774 -2031,68 -3659,1737 -3660,3800l-27 0c-1,-2063 -1629,-3732 -3660,-3800z"/>
   <path class="fil3" d="M550989 18643c-1339,45 -2413,1142 -2422,2499l-21 0c-9,-1357 -1082,-2454 -2422,-2499 1345,-45 2423,-1150 2424,-2515l17 0c1,1365 1079,2470 2424,2515z"/>
   <path class="fil1" d="M859692 242213c-136,217 -423,283 -641,148 -218,-136 -284,-422 -148,-639 136,-217 422,-284 640,-148 218,135 284,421 149,639z"/>
   <path class="fil4" d="M736079 236672c157,254 489,331 741,173 252,-158 329,-492 172,-746 -157,-254 -489,-332 -741,-173 -252,158 -329,492 -172,746z"/>
   <path class="fil2" d="M817540 636534c157,254 488,331 740,173 253,-158 329,-492 172,-746 -157,-254 -489,-332 -741,-173 -252,158 -328,492 -171,746z"/>
   <polygon class="fil5" points="671321,646129 671541,646593 671381,646495 "/>
   <path class="fil1" d="M953780 61480c157,-254 489,-331 741,-173 252,158 328,493 171,747 -157,253 -488,331 -741,172 -252,-158 -328,-492 -171,-746z"/>
   <path class="fil3" d="M929311 488413c157,-254 489,-331 741,-173 252,158 329,493 171,746 -157,254 -488,332 -741,173 -251,-158 -328,-492 -171,-746z"/>
   <path class="fil3" d="M703504 443969c157,-253 488,-331 741,-172 251,158 329,492 171,746 -157,254 -489,332 -741,173 -252,-158 -328,-493 -171,-747z"/>
   <path class="fil2" d="M490632 632816c157,-254 489,-331 741,-173 252,159 329,493 172,747 -157,254 -489,331 -741,172 -252,-158 -329,-492 -172,-746z"/>
   <path class="fil4" d="M639701 608144c-157,254 -489,332 -741,173 -252,-158 -328,-492 -171,-746 157,-254 488,-332 740,-173 252,158 329,493 172,746z"/>
   <path class="fil4" d="M621950 613367c-157,254 -489,331 -741,173 -252,-158 -328,-492 -171,-746 157,-254 489,-332 741,-173 252,158 328,492 171,746z"/>
   <path class="fil2" d="M901056 542323c-157,254 -489,332 -741,173 -252,-158 -329,-492 -172,-746 157,-254 489,-332 741,-173 252,158 329,493 172,746z"/>
   <path class="fil3" d="M910234 673862c-157,254 -489,331 -741,172 -252,-158 -329,-492 -172,-746 157,-254 489,-332 741,-173 252,159 329,493 172,747z"/>
   <path class="fil2" d="M764500 704961c-157,254 -489,331 -741,173 -252,-158 -329,-493 -172,-746 157,-254 489,-332 741,-173 252,158 329,492 172,746z"/>
   <path class="fil4" d="M534390 603282c-157,254 -489,331 -741,173 -252,-159 -329,-493 -171,-747 157,-254 488,-331 740,-173 252,158 329,493 172,747z"/>
   <path class="fil4" d="M932641 443320c-157,254 -488,331 -740,173 -252,-158 -329,-492 -172,-746 157,-254 489,-331 741,-173 252,158 328,492 171,746z"/>
   <path class="fil4" d="M727916 627233c-157,254 -489,331 -741,173 -252,-158 -329,-492 -172,-746 157,-254 489,-332 741,-173 252,158 329,492 172,746z"/>
   <path class="fil2" d="M611206 672355c-157,254 -488,331 -740,173 -253,-158 -329,-493 -172,-746 157,-254 489,-332 741,-173 252,158 328,492 171,746z"/>
   <path class="fil3" d="M791344 643297c157,254 489,331 741,173 252,-158 329,-493 172,-747 -157,-253 -489,-331 -741,-172 -252,158 -329,492 -172,746z"/>
   <path class="fil2" d="M231729 930060c157,254 489,331 741,173 252,-159 329,-493 172,-747 -157,-254 -489,-331 -741,-172 -252,158 -329,492 -172,746z"/>
   <path class="fil1" d="M584126 639354c157,254 488,332 740,174 252,-159 329,-493 172,-747 -157,-254 -489,-332 -741,-173 -252,158 -328,493 -171,746z"/>
   <path class="fil3" d="M738444 625689c157,253 489,331 741,173 252,-159 328,-493 171,-747 -157,-254 -488,-332 -741,-173 -252,159 -328,493 -171,747z"/>
   <path class="fil1" d="M596103 549944c157,254 489,331 741,173 252,-159 329,-493 172,-747 -157,-254 -489,-331 -741,-172 -252,158 -329,492 -172,746z"/>
   <path class="fil3" d="M807216 503534c157,254 488,331 740,173 253,-159 329,-493 172,-747 -157,-254 -489,-331 -741,-172 -252,158 -329,492 -171,746z"/>
   <path class="fil4" d="M363390 89761c1174,-39 2116,-1001 2124,-2192l19 0c7,1191 948,2153 2123,2192 -1179,39 -2125,1008 -2125,2206l-16 0c0,-1198 -946,-2167 -2125,-2206z"/>
   <path class="fil1" d="M962470 204809c-157,254 -489,331 -741,172 -252,-158 -329,-492 -172,-746 157,-254 489,-332 741,-173 252,159 329,493 172,747z"/>
   <path class="fil3" d="M840609 650007c-157,254 -489,331 -741,173 -252,-158 -328,-492 -171,-746 157,-254 488,-332 740,-173 252,158 329,492 172,746z"/>
   <path class="fil3" d="M850753 621343c-157,254 -489,331 -741,172 -252,-158 -329,-492 -172,-746 157,-254 489,-332 741,-173 252,159 329,493 172,747z"/>
   <path class="fil3" d="M344323 950379c-157,254 -489,331 -741,173 -252,-158 -329,-492 -172,-746 157,-254 489,-332 741,-173 252,158 329,492 172,746z"/>
   <path class="fil2" d="M581091 747416c-157,254 -489,331 -741,173 -252,-158 -329,-492 -172,-746 157,-254 489,-332 741,-173 252,158 329,492 172,746z"/>
   <path class="fil2" d="M844390 662618c-157,254 -489,331 -741,173 -252,-158 -328,-492 -171,-746 157,-254 488,-332 740,-173 252,158 329,492 172,746z"/>
   <path class="fil3" d="M858370 660101c-157,254 -489,331 -741,173 -252,-158 -329,-493 -172,-747 157,-253 489,-332 741,-172 252,158 329,492 172,746z"/>
   <path class="fil3" d="M848800 685638c-157,254 -488,331 -740,173 -253,-158 -329,-493 -172,-746 157,-254 489,-332 741,-173 252,158 329,492 171,746z"/>
   <path class="fil3" d="M573975 455045c-158,254 -489,331 -741,173 -252,-158 -329,-493 -172,-747 157,-253 489,-331 741,-172 252,158 329,492 172,746z"/>
   <path class="fil0" d="M830753 585523c-179,0 -179,278 0,278 179,0 180,-278 0,-278z"/>
   <path class="fil0" d="M827889 585385c-358,0 -358,555 0,555 359,0 359,-555 0,-555z"/>
   <path class="fil0" d="M831710 606860c-462,0 -463,717 0,717 462,0 463,-717 0,-717z"/>
   <path class="fil4" d="M696661 566688c157,-254 488,-331 741,-173 252,158 328,493 171,746 -157,254 -489,332 -741,173 -252,-158 -328,-492 -171,-746z"/>
   <path class="fil2" d="M610193 603801c-157,254 -489,331 -741,172 -252,-158 -329,-492 -172,-746 157,-254 489,-332 741,-173 252,159 329,493 172,747z"/>
   <path class="fil4" d="M674028 603026c-157,254 -489,331 -741,173 -252,-158 -328,-493 -171,-746 157,-254 488,-332 740,-173 252,158 329,492 172,746z"/>
   <path class="fil4" d="M292471 924518c-157,254 -489,331 -741,173 -252,-158 -329,-492 -171,-746 157,-254 488,-332 740,-173 252,158 329,492 172,746z"/>
   <path class="fil1" d="M919761 623542c157,254 488,331 740,173 252,-158 329,-492 172,-746 -157,-254 -489,-332 -741,-173 -252,158 -329,492 -171,746z"/>
   <path class="fil3" d="M966186 441855c157,253 489,331 741,172 252,-158 329,-492 172,-746 -157,-254 -489,-332 -741,-173 -252,158 -329,493 -172,747z"/>
   <path class="fil1" d="M731327 604132c157,253 489,331 741,172 252,-158 329,-492 172,-746 -157,-254 -489,-331 -741,-173 -252,158 -329,493 -172,747z"/>
   <path class="fil2" d="M806395 839717c157,254 489,331 741,173 252,-158 329,-492 172,-746 -157,-254 -489,-332 -741,-173 -252,158 -329,492 -172,746z"/>
   <path class="fil3" d="M977381 218843c157,254 489,331 741,173 252,-158 329,-492 172,-746 -157,-254 -489,-332 -741,-173 -252,158 -329,492 -172,746z"/>
   <path class="fil3" d="M741339 593474c157,254 489,331 741,173 252,-158 328,-492 171,-746 -157,-254 -488,-332 -740,-173 -252,158 -329,492 -172,746z"/>
   <path class="fil3" d="M721874 591880c157,253 489,331 741,172 252,-158 329,-492 172,-746 -157,-254 -489,-332 -741,-173 -252,158 -329,493 -172,747z"/>
   <path class="fil1" d="M895408 876896c157,254 489,331 741,173 252,-158 329,-492 172,-746 -158,-254 -489,-332 -741,-173 -252,158 -329,492 -172,746z"/>
   <path class="fil3" d="M510686 766758c157,253 488,331 740,173 253,-159 329,-493 172,-747 -157,-254 -489,-332 -741,-173 -252,159 -328,493 -171,747z"/>
   <path class="fil1" d="M506521 492452c157,253 489,330 741,172 252,-158 329,-492 172,-746 -158,-254 -489,-332 -741,-173 -252,158 -329,493 -172,747z"/>
   <path class="fil4" d="M635940 277907c462,0 463,716 0,716 -462,0 -463,-716 0,-716z"/>
   <polygon class="fil5" points="796329,317176 796109,317640 796269,317541 "/>
   <path class="fil3" d="M798938 325714c-157,-254 -489,-331 -741,-173 -252,158 -329,492 -172,746 158,254 489,332 741,173 252,-158 329,-492 172,-746z"/>
   <path class="fil2" d="M797178 340590c-157,-254 -489,-331 -741,-173 -252,159 -329,493 -172,747 157,254 489,331 741,172 252,-158 329,-492 172,-746z"/>
   <path class="fil4" d="M783022 288896c-157,-254 -488,-331 -740,-173 -252,158 -329,493 -172,746 157,254 489,332 741,174 252,-159 329,-493 171,-747z"/>
   <path class="fil4" d="M827949 279191c157,254 489,331 741,173 252,-158 328,-492 171,-746 -157,-254 -489,-332 -740,-173 -253,158 -329,492 -172,746z"/>
   <path class="fil3" d="M807788 299341c157,254 488,331 741,173 252,-158 328,-492 171,-746 -157,-254 -488,-332 -741,-173 -252,158 -328,492 -171,746z"/>
   <path class="fil4" d="M793622 274073c157,254 489,331 741,172 252,-158 328,-492 171,-746 -157,-254 -489,-332 -741,-173 -252,159 -328,493 -171,747z"/>
   <path class="fil2" d="M834009 308334c158,254 489,331 741,173 252,-158 329,-493 172,-747 -157,-253 -489,-331 -741,-172 -252,158 -329,492 -172,746z"/>
   <path class="fil4" d="M825049 323064c157,254 489,331 741,173 252,-158 329,-493 171,-747 -157,-254 -488,-331 -740,-173 -252,159 -329,493 -172,747z"/>
   <path class="fil4" d="M676305 314344c-157,253 -488,331 -740,173 -252,-159 -329,-493 -172,-747 157,-254 489,-332 741,-173 252,158 328,493 171,747z"/>
   <path class="fil3" d="M764964 278579c-157,254 -489,331 -741,173 -252,-158 -328,-492 -171,-746 157,-254 488,-332 741,-173 252,158 328,492 171,746z"/>
   <path class="fil4" d="M660610 278972c-157,254 -488,331 -740,173 -252,-159 -329,-493 -172,-747 157,-254 489,-332 741,-173 252,158 328,493 171,747z"/>
   <path class="fil4" d="M683959 296354c-157,254 -489,331 -741,173 -252,-158 -329,-492 -172,-746 157,-254 489,-332 741,-173 252,158 329,493 172,746z"/>
   <path class="fil1" d="M709512 279672c-157,254 -489,331 -741,173 -252,-158 -329,-492 -172,-746 157,-254 489,-332 741,-173 252,158 329,492 172,746z"/>
   <path class="fil4" d="M642879 375181c-157,254 -489,331 -741,173 -252,-158 -329,-492 -172,-746 157,-254 489,-332 741,-173 252,158 329,492 172,746z"/>
   <path class="fil3" d="M822632 361620c-157,254 -488,331 -740,173 -253,-158 -329,-493 -172,-747 157,-254 489,-331 741,-172 252,158 329,492 171,746z"/>
   <path class="fil4" d="M778533 339607c-1174,-40 -2116,-1001 -2124,-2192l-19 0c-7,1191 -949,2152 -2123,2192 1179,39 2125,1008 2125,2205l16 0c0,-1197 946,-2166 2125,-2205z"/>
   <path class="fil4" d="M635324 344108c157,254 489,331 741,173 252,-158 329,-492 172,-746 -157,-254 -489,-332 -741,-173 -252,158 -329,492 -172,746z"/>
   <path class="fil4" d="M646435 323131c157,254 488,331 740,173 253,-158 329,-492 172,-746 -157,-254 -489,-332 -741,-173 -252,158 -329,492 -171,746z"/>
   <path class="fil4" d="M679735 329346c157,254 489,331 741,173 252,-158 328,-492 171,-746 -157,-254 -488,-332 -741,-173 -251,158 -328,492 -171,746z"/>
   <path class="fil4" d="M638922 349853c157,254 489,331 741,173 252,-158 328,-492 171,-746 -157,-254 -488,-332 -740,-173 -253,158 -329,492 -172,746z"/>
   <path class="fil4" d="M666901 337554c157,254 488,331 741,173 252,-159 328,-493 171,-747 -157,-254 -489,-331 -741,-173 -252,159 -328,493 -171,747z"/>
   <path class="fil3" d="M872840 176928c157,254 488,331 740,173 252,-158 329,-492 172,-746 -157,-254 -489,-332 -741,-173 -252,158 -329,492 -171,746z"/>
   <path class="fil0" d="M828976 381453c-179,0 -180,278 0,278 179,0 179,-278 0,-278z"/>
   <path class="fil0" d="M826112 381314c-358,0 -359,556 0,556 358,0 359,-556 0,-556z"/>
   <path class="fil4" d="M940594 588215c1174,-39 2116,-1001 2123,-2192l20 0c7,1191 948,2153 2123,2192 -1179,39 -2125,1009 -2125,2206l-16 0c-1,-1197 -946,-2167 -2125,-2206z"/>
   <path class="fil0" d="M904692 965329l0 -286c0,-508 -448,-995 -974,-971 -527,23 -974,427 -974,971l0 286c0,508 448,995 974,972 528,-24 974,-427 974,-972z"/>
   <path class="fil0" d="M548399 820463c-1147,0 -1149,-1778 0,-1778 1147,0 1149,1778 0,1778z"/>
   <path class="fil1" d="M885038 587522c-136,217 -423,283 -641,147 -218,-135 -284,-421 -148,-638 136,-218 422,-284 640,-148 218,135 285,421 149,639z"/>
   <path class="fil4" d="M944760 720219c-1146,0 -1149,-1778 0,-1778 1147,0 1149,1778 0,1778z"/>
   <path class="fil1" d="M789151 867916c-136,218 -423,284 -641,148 -218,-135 -284,-421 -148,-639 136,-217 422,-283 640,-148 218,136 285,422 149,639z"/>
   <path class="fil1" d="M668317 874150c-135,218 -422,284 -640,148 -218,-135 -284,-421 -149,-639 136,-217 423,-284 641,-148 218,136 284,422 148,639z"/>
   <path class="fil1" d="M548062 531467c157,254 489,331 741,173 252,-159 328,-493 171,-747 -157,-254 -488,-332 -741,-173 -251,159 -328,493 -171,747z"/>
   <path class="fil0" d="M560876 671618l-286 0c-510,0 -998,-447 -974,-971 24,-527 428,-972 974,-972l286 0c510,0 998,447 974,972 -23,526 -428,971 -974,971z"/>
   <path class="fil3" d="M903742 403785c157,254 489,331 741,173 252,-159 328,-493 171,-747 -157,-254 -488,-331 -740,-172 -252,158 -329,492 -172,746z"/>
   <path class="fil3" d="M545979 398363c157,-254 489,-331 741,-173 252,158 329,492 171,746 -157,254 -489,332 -741,173 -252,-158 -328,-492 -171,-746z"/>
   <path class="fil4" d="M926358 168788c-157,254 -489,331 -741,173 -252,-158 -328,-492 -171,-746 157,-254 488,-332 741,-173 252,158 328,492 171,746z"/>
   <path class="fil0" d="M697192 198274c-1147,0 -1149,-1778 0,-1778 1146,0 1149,1778 0,1778z"/>
   <path class="fil3" d="M928799 262740c-1339,44 -2413,1141 -2422,2499l-21 0c-9,-1358 -1082,-2455 -2422,-2499 1345,-45 2423,-1151 2423,-2516l18 0c1,1365 1079,2471 2424,2516z"/>
   <path class="fil0" d="M594470 195044l0 -157c0,-715 -1113,-716 -1113,0l0 157c0,714 1113,715 1113,0l0 -157c0,-715 -1113,-716 -1113,0l0 157c0,714 1113,715 1113,0z"/>
   <path class="fil3" d="M614506 190781c157,254 489,332 741,173 252,-158 329,-492 172,-746 -157,-254 -489,-332 -741,-173 -252,158 -329,493 -172,746z"/>
   <path class="fil1" d="M600991 172014c-135,217 -422,283 -640,148 -218,-136 -284,-422 -149,-639 136,-217 423,-284 641,-148 218,135 284,421 148,639z"/>
   <path class="fil4" d="M603350 218317c157,254 488,331 741,173 252,-159 328,-493 171,-747 -157,-254 -489,-331 -741,-173 -252,159 -328,493 -171,747z"/>
   <path class="fil3" d="M617148 161755c157,254 489,331 741,173 252,-158 329,-493 171,-747 -157,-253 -488,-332 -740,-173 -252,159 -329,493 -172,747z"/>
   <path class="fil4" d="M886080 315640c-157,254 -488,331 -741,173 -251,-159 -328,-493 -171,-747 157,-254 489,-332 741,-173 252,158 328,493 171,747z"/>
   <path class="fil3" d="M906241 335790c-157,254 -488,331 -740,172 -252,-158 -329,-492 -172,-746 157,-254 489,-332 741,-173 252,158 328,493 171,747z"/>
   <path class="fil4" d="M922668 325000c-157,254 -489,332 -741,173 -252,-158 -329,-492 -172,-746 158,-254 489,-331 741,-173 252,158 329,493 172,746z"/>
   <path class="fil4" d="M920407 310521c-157,254 -488,331 -740,173 -253,-158 -329,-493 -172,-746 157,-254 489,-332 741,-173 252,158 329,492 171,746z"/>
   <path class="fil4" d="M897950 301272c-157,254 -488,331 -740,173 -252,-158 -329,-492 -172,-746 157,-254 489,-332 741,-173 252,158 328,492 171,746z"/>
   <path class="fil0" d="M835303 193725l-612 0c-466,0 -913,-409 -891,-889 22,-481 392,-888 891,-888l612 0c466,0 912,408 891,888 -22,482 -392,889 -891,889z"/>
   <path class="fil3" d="M630525 236672c157,254 488,331 740,173 253,-158 329,-492 172,-746 -157,-254 -489,-332 -741,-173 -252,158 -328,492 -171,746z"/>
   <path class="fil4" d="M555526 311484c-157,253 -489,331 -741,173 -252,-159 -329,-493 -172,-747 157,-254 489,-332 741,-173 252,159 329,493 172,747z"/>
   <path class="fil4" d="M780697 202676c-157,-253 -489,-331 -741,-172 -252,158 -329,492 -172,746 157,254 489,332 741,173 252,-158 329,-493 172,-747z"/>
   <path class="fil4" d="M728483 381317c-1174,-39 -2115,-1001 -2123,-2191l-19 0c-8,1190 -949,2152 -2124,2191 1180,40 2125,1009 2125,2206l17 0c0,-1197 945,-2166 2124,-2206z"/>
   <path class="fil3" d="M668024 168789c-1339,44 -2412,1141 -2421,2498l-22 0c-8,-1357 -1081,-2454 -2421,-2498 1345,-45 2423,-1151 2423,-2516l18 0c1,1365 1079,2471 2423,2516z"/>
   <path class="fil4" d="M574640 288665c-157,253 -489,331 -741,172 -252,-158 -329,-492 -172,-746 157,-254 489,-332 741,-173 252,159 329,493 172,747z"/>
   <path class="fil2" d="M555172 293703c157,254 489,331 741,173 252,-158 328,-492 171,-746 -157,-254 -489,-332 -741,-173 -252,158 -328,492 -171,746z"/>
   <path class="fil3" d="M585168 287120c157,254 489,331 741,173 252,-158 328,-493 171,-746 -157,-254 -488,-332 -741,-174 -251,159 -328,493 -171,747z"/>
   <path class="fil3" d="M811728 226801c157,254 489,331 741,173 252,-158 329,-492 172,-746 -157,-254 -489,-332 -741,-173 -252,158 -329,492 -172,746z"/>
   <path class="fil1" d="M578051 265563c157,254 489,331 741,173 252,-159 329,-493 172,-747 -157,-254 -489,-331 -741,-173 -252,159 -329,493 -172,747z"/>
   <path class="fil3" d="M526836 170747c157,253 488,331 741,172 252,-158 328,-492 171,-746 -157,-254 -489,-332 -741,-173 -252,159 -328,493 -171,747z"/>
   <path class="fil3" d="M568598 253311c157,254 489,331 741,173 252,-159 329,-493 172,-747 -157,-254 -489,-331 -741,-173 -252,159 -329,493 -172,747z"/>
   <path class="fil4" d="M971544 569846c-157,254 -489,331 -741,173 -252,-159 -328,-493 -171,-747 157,-254 488,-332 741,-173 251,159 328,493 171,747z"/>
   <path class="fil4" d="M844959 400655c1174,-40 2116,-1001 2123,-2192l20 0c7,1191 948,2152 2123,2192 -1179,39 -2125,1008 -2125,2205l-16 0c-1,-1197 -946,-2166 -2125,-2205z"/>
   <path class="fil3" d="M30620 396395c1339,44 2413,1141 2421,2499l22 0c9,-1358 1082,-2455 2421,-2499 -1345,-45 -2422,-1150 -2423,-2516l-18 0c-1,1366 -1079,2471 -2423,2516z"/>
  </g>
 </g>
</svg>
