<?xml version="1.0" encoding="UTF-8"?>
<!DOCTYPE svg PUBLIC "-//W3C//DTD SVG 1.1//EN" "http://www.w3.org/Graphics/SVG/1.1/DTD/svg11.dtd">
<!-- Creator: CorelDRAW X7 -->
<svg xmlns="http://www.w3.org/2000/svg" xml:space="preserve" width="100%" height="100%" version="1.1" style="shape-rendering:geometricPrecision; text-rendering:geometricPrecision; image-rendering:optimizeQuality; fill-rule:evenodd; clip-rule:evenodd"
viewBox="0 0 21675 13039"
 xmlns:xlink="http://www.w3.org/1999/xlink">
 <defs>
  <style type="text/css">
   <![CDATA[
    .fil3 {fill:#686AA2}
    .fil1 {fill:white}
    .fil2 {fill:#FEFEFE;fill-rule:nonzero}
    .fil0 {fill:#686AA2;fill-rule:nonzero}
    .fil7 {fill:#D2AE6D;fill-rule:nonzero}
    .fil5 {fill:#F2D394;fill-rule:nonzero}
    .fil6 {fill:white;fill-rule:nonzero}
    .fil4 {fill:white;fill-rule:nonzero}
   ]]>
  </style>
 </defs>
 <g id="Layer_x0020_1">
  <metadata id="CorelCorpID_0Corel-Layer"/>
  <g id="_2717537656160">
   <polygon class="fil0" points="21666,12275 11721,12275 10837,13033 9954,12275 8,12275 8,5 21666,5 "/>
   <circle class="fil1" cx="10837" cy="4578" r="3434"/>
   <path class="fil2" d="M5869 10277c-54,0 -101,-10 -140,-31 -40,-21 -72,-57 -96,-109l0 -3c-27,53 -66,95 -117,126 -52,30 -116,45 -194,45 -68,0 -135,-11 -202,-34 -67,-23 -136,-61 -208,-115 -38,9 -69,20 -91,35 -23,16 -40,35 -51,60 -12,24 -19,55 -21,93 -3,37 -5,83 -5,137l0 642 -177 0 0 -647c0,-70 3,-131 12,-184 7,-53 22,-100 44,-138 22,-39 52,-73 91,-101 39,-28 89,-53 151,-75 18,-94 43,-173 77,-236 33,-64 71,-114 112,-153 42,-38 85,-65 130,-80 44,-16 86,-23 124,-23 52,0 101,10 147,30 46,20 85,49 118,87 33,37 59,82 78,133 19,51 29,109 29,173 0,10 -1,19 -1,29 -1,9 -2,18 -2,26 15,45 35,80 62,103 27,23 70,34 130,34 56,0 84,29 84,85 0,35 -7,59 -20,72 -13,13 -35,19 -64,19zm-365 -374c0,-31 -4,-62 -14,-92 -8,-30 -22,-56 -40,-78 -18,-22 -39,-40 -64,-54 -26,-13 -55,-20 -89,-20 -59,0 -116,28 -171,83 -55,55 -99,145 -132,271 53,33 105,61 156,81 51,21 104,31 158,31 59,0 106,-17 142,-50 36,-34 54,-91 54,-172zm364 374c-57,0 -85,-28 -85,-85 0,-35 7,-59 20,-71 13,-13 35,-20 65,-20l141 0c34,0 63,-1 87,-4 24,-3 44,-9 61,-20 16,-10 28,-26 36,-46 8,-21 12,-48 12,-84l0 -484 173 0 0 406c0,35 3,67 8,96 4,29 14,53 28,73 14,19 33,35 57,47 24,11 54,16 91,16 57,0 85,29 85,85 0,35 -7,59 -20,72 -14,13 -35,19 -65,19 -55,0 -99,-13 -133,-39 -34,-26 -57,-59 -69,-98 -25,57 -65,95 -119,112 -54,17 -120,25 -200,25l-173 0zm167 -1171c0,-31 11,-57 33,-79 22,-22 48,-33 79,-33 31,0 58,11 79,33 22,22 33,48 33,79 0,31 -11,58 -33,80 -21,22 -48,33 -79,33 -31,0 -57,-11 -79,-33 -22,-22 -33,-49 -33,-80zm275 0c0,-31 11,-57 33,-79 22,-22 49,-33 80,-33 30,0 57,11 79,33 21,22 32,48 32,79 0,31 -11,58 -32,80 -22,22 -49,33 -79,33 -31,0 -58,-11 -80,-33 -22,-22 -33,-49 -33,-80zm326 995c47,0 86,-1 118,-4 32,-3 58,-9 77,-20 19,-10 33,-26 41,-46 9,-21 13,-48 13,-84l0 -379 173 0 0 301c0,35 3,67 7,96 5,29 14,53 30,73 16,19 38,35 67,47 29,11 68,16 116,16 32,0 58,-1 81,-4 23,-3 42,-9 57,-20 16,-10 28,-26 35,-46 8,-21 12,-48 12,-84l0 -379 173 0 0 301c0,35 3,67 8,96 5,29 15,53 30,73 15,19 35,35 61,47 26,11 61,16 103,16 24,0 46,-1 65,-4 20,-3 37,-9 51,-20 14,-10 25,-26 33,-46 8,-21 12,-48 12,-84l0 -484 173 0 0 406c0,35 3,67 8,96 5,29 14,53 28,73 15,19 33,35 57,47 24,11 54,16 92,16 56,0 84,29 84,85 0,35 -6,59 -20,72 -13,13 -35,19 -64,19 -55,0 -100,-13 -134,-39 -34,-26 -56,-59 -68,-98 -13,29 -30,53 -53,70 -22,18 -47,32 -72,42 -26,10 -50,17 -74,20 -24,3 -44,5 -62,5 -46,0 -86,-4 -117,-13 -32,-8 -58,-19 -79,-32 -21,-13 -38,-28 -50,-45 -12,-16 -21,-32 -28,-47 -26,57 -65,95 -118,112 -52,17 -116,25 -189,25 -50,0 -91,-4 -125,-12 -32,-8 -59,-18 -81,-31 -20,-13 -37,-28 -50,-46 -13,-17 -23,-34 -32,-51 -12,30 -28,54 -47,71 -20,18 -44,32 -75,43 -30,11 -67,18 -112,21 -44,3 -97,5 -160,5l-70 0c-56,0 -84,-28 -84,-85 0,-35 6,-59 20,-71 13,-13 35,-20 64,-20l75 0zm1722 176c-57,0 -85,-28 -85,-85 0,-35 7,-59 20,-71 13,-13 35,-20 65,-20l141 0c34,0 63,-1 87,-4 24,-3 44,-9 61,-20 16,-10 28,-26 36,-46 8,-21 12,-48 12,-84l0 -484 173 0 0 406c0,35 3,67 8,96 4,29 14,53 28,73 14,19 33,35 57,47 24,11 54,16 91,16 57,0 85,29 85,85 0,35 -7,59 -20,72 -14,13 -35,19 -65,19 -55,0 -99,-13 -133,-39 -34,-26 -57,-59 -69,-98 -25,57 -65,95 -119,112 -54,17 -120,25 -200,25l-173 0zm167 319c0,-31 11,-57 33,-79 22,-21 48,-32 79,-32 31,0 58,11 79,32 22,22 33,48 33,79 0,31 -11,58 -33,80 -21,22 -48,33 -79,33 -31,0 -57,-11 -79,-33 -22,-22 -33,-49 -33,-80zm275 0c0,-31 11,-57 33,-79 22,-21 49,-32 80,-32 30,0 57,11 79,32 21,22 32,48 32,79 0,31 -11,58 -32,80 -22,22 -49,33 -79,33 -31,0 -58,-11 -80,-33 -22,-22 -33,-49 -33,-80zm326 -495c47,0 86,-1 118,-4 32,-3 58,-9 77,-20 19,-10 33,-26 41,-46 9,-21 13,-48 13,-84l0 -381 173 0 0 303c0,35 3,67 7,96 5,29 14,53 30,73 16,19 37,35 66,47 28,11 67,16 115,16 31,0 59,-1 82,-4 23,-3 43,-9 58,-20 16,-10 28,-26 35,-46 8,-21 12,-48 12,-84l0 -379 173 0 0 301c0,35 3,67 8,96 5,29 14,53 28,73 13,19 32,35 56,47 24,11 54,16 91,16l178 0 0 -638 173 0 0 814 -351 0c-55,0 -99,-13 -133,-39 -33,-26 -55,-59 -66,-98 -26,57 -66,95 -119,112 -54,17 -119,25 -195,25 -49,0 -90,-4 -121,-12 -32,-8 -59,-18 -80,-31 -21,-13 -37,-28 -49,-46 -12,-17 -22,-34 -31,-51 -12,30 -28,54 -47,71 -20,18 -44,32 -75,43 -30,11 -67,18 -112,21 -44,3 -97,5 -160,5l-70 0c-56,0 -84,-28 -84,-85 0,-35 6,-59 20,-71 13,-13 35,-20 64,-20l75 0zm2445 -377c0,60 19,108 57,144 37,37 97,56 178,56 31,0 64,-4 101,-11 36,-7 68,-16 96,-27l0 -377 -186 0c-67,0 -125,17 -173,51 -49,35 -73,89 -73,164zm220 380c-33,0 -72,-5 -117,-16 -44,-9 -87,-27 -127,-53 -40,-26 -75,-63 -103,-110 -28,-48 -42,-110 -42,-185 0,-77 13,-141 40,-192 27,-51 62,-93 104,-126 42,-32 89,-55 141,-69 51,-15 102,-22 153,-22l337 0 0 607c0,59 9,101 27,126 18,25 59,37 123,37l50 0c57,0 85,29 85,85 0,35 -7,59 -20,72 -14,13 -35,19 -65,19l-71 0c-36,0 -72,-3 -105,-9 -33,-6 -63,-18 -89,-34 -26,-17 -49,-38 -67,-65 -18,-26 -30,-61 -36,-104 -31,11 -66,21 -104,28 -39,7 -77,11 -114,11zm586 173c-56,0 -84,-28 -84,-85 0,-35 6,-59 20,-71 13,-13 35,-20 64,-20l330 0 0 -638 174 0 0 814 -504 0zm269 315c0,-31 11,-57 33,-79 22,-22 49,-32 79,-32 31,0 58,10 80,32 21,22 32,48 32,79 0,31 -11,58 -32,80 -22,22 -49,33 -80,33 -30,0 -57,-11 -79,-33 -22,-22 -33,-49 -33,-80zm1813 -547c0,67 -23,123 -70,167 -46,43 -114,65 -203,65l-506 0 0 -176 492 0c48,0 78,-7 91,-22 12,-15 18,-31 18,-50 0,-14 -3,-28 -8,-44 -5,-15 -19,-41 -41,-75 -22,-35 -54,-83 -96,-144 -42,-62 -98,-145 -170,-251l163 -102c57,97 106,179 147,246 41,66 75,122 102,169 27,47 47,86 61,120 13,34 20,66 20,97zm574 232c-55,0 -106,-6 -154,-19 -47,-13 -88,-33 -123,-62 -34,-29 -62,-68 -82,-116 -21,-48 -31,-107 -31,-177 0,-57 9,-112 27,-166 19,-55 46,-103 80,-146 36,-42 80,-76 132,-101 52,-26 112,-39 180,-39 75,0 138,14 189,42 52,27 93,65 124,114 31,49 53,106 67,173 13,68 20,142 20,222l0 199c0,106 -14,192 -43,259 -28,67 -68,120 -120,159 -52,39 -116,65 -193,79 -75,14 -161,22 -255,22l-89 0 0 -176 65 0c67,0 129,-3 185,-9 56,-5 104,-18 144,-38 40,-20 72,-49 94,-86 23,-39 34,-90 34,-155l0 -40c-26,16 -59,30 -99,42 -41,13 -92,19 -152,19zm-220 -394c0,81 21,138 64,173 43,35 101,52 172,52 54,0 101,-7 142,-22 41,-14 72,-29 93,-46l0 -78c0,-48 -4,-94 -11,-136 -8,-42 -21,-79 -39,-109 -19,-30 -43,-54 -72,-72 -30,-17 -66,-26 -108,-26 -44,0 -81,8 -111,25 -31,17 -55,38 -75,64 -19,25 -33,53 -42,84 -9,31 -13,62 -13,91zm1077 -315l171 0 0 590c0,105 -6,193 -18,264 -12,72 -35,129 -69,173 -34,44 -81,76 -141,95 -59,20 -137,30 -232,30l0 -176c69,0 123,-8 162,-22 39,-15 68,-39 87,-72 19,-33 31,-76 34,-127 4,-52 6,-114 6,-187l0 -568zm789 709c-55,0 -106,-6 -153,-19 -48,-13 -89,-33 -123,-62 -35,-29 -63,-68 -83,-116 -20,-48 -30,-107 -30,-177 0,-57 8,-112 27,-166 18,-55 45,-103 80,-146 35,-42 79,-76 131,-101 53,-26 113,-39 180,-39 75,0 138,14 190,42 51,27 92,65 123,114 31,49 54,106 67,173 13,68 20,142 20,222l0 199c0,106 -14,192 -42,259 -28,67 -69,120 -121,159 -52,39 -116,65 -192,79 -76,14 -161,22 -256,22l-89 0 0 -176 65 0c68,0 130,-3 185,-9 56,-5 104,-18 145,-38 40,-20 71,-49 94,-86 22,-39 33,-90 33,-155l0 -40c-25,16 -58,30 -99,42 -41,13 -91,19 -152,19zm-220 -394c0,81 21,138 65,173 43,35 100,52 172,52 53,0 101,-7 142,-22 41,-14 71,-29 92,-46l0 -78c0,-48 -4,-94 -11,-136 -8,-42 -20,-79 -39,-109 -18,-30 -42,-54 -72,-72 -29,-17 -65,-26 -108,-26 -43,0 -81,8 -111,25 -30,17 -55,38 -74,64 -19,25 -34,53 -43,84 -8,31 -13,62 -13,91z"/>
   <path class="fil3" d="M10611 5944c0,135 0,268 0,403 -257,0 -513,0 -770,0 0,-135 0,-268 0,-403 257,0 513,0 770,0zm637 -2490l-29 126c-83,-32 -176,-48 -266,-57l27 -123c90,6 183,24 268,54l0 0zm232 594c16,-86 14,-176 -20,-257 -23,-56 -59,-103 -108,-139l29 -135 32 20c74,52 130,121 166,207 39,95 45,203 32,304 -9,61 -27,119 -50,176l-126 -30c20,-47 36,-96 45,-146l0 0zm360 703c196,-230 313,-525 313,-849 0,-255 -72,-493 -198,-696 -238,-383 -666,-619 -1117,-619 -452,0 -878,236 -1119,619 -123,203 -198,441 -198,696 0,324 117,619 313,849l-254 0c-207,0 -421,83 -574,220 -174,158 -282,383 -282,635 0,498 0,2691 0,3189l4227 0c0,-498 0,-2691 0,-3189 0,-252 -108,-477 -282,-635 -153,-137 -367,-220 -574,-220l-255 0 0 0zm-1002 -2036c653,0 1187,531 1187,1187 0,653 -534,1186 -1187,1186 -655,0 -1188,-533 -1188,-1186 0,-656 533,-1187 1188,-1187zm0 2502c336,0 644,-129 879,-338l211 0c-270,315 -671,500 -1090,500 -418,0 -819,-185 -1092,-500l214 0c232,209 541,338 878,338l0 0zm1971 247l0 0c-36,-180 -138,-337 -280,-443 -83,-59 -166,-99 -263,-122 -47,-11 -97,-18 -146,-20l0 3788 0 0 704 0c0,0 0,-2946 0,-3061 0,-49 -6,-97 -15,-142l0 0zm-1971 -506c568,0 1032,-451 1032,-1007 0,-265 -108,-479 -311,-621 -367,-257 -1076,-257 -1443,0 -203,142 -311,355 -311,621 0,556 464,1007 1033,1007zm0 -1694c266,0 491,59 649,169 169,120 257,293 257,518 0,484 -408,878 -906,878 -499,0 -905,-394 -905,-878 0,-225 86,-398 255,-518 160,-110 382,-169 650,-169zm64 2241c416,-18 810,-200 1092,-507l0 3669 -1092 0 0 -3162zm-1665 498c0,-181 0,-361 0,-539 -123,0 -247,0 -371,0 65,-326 347,-574 689,-585l0 3788 -703 0 0 -2664c129,0 257,0 385,0zm732 216l514 0 0 -147 -514 0 0 147zm-1117 -345l259 0 0 -283 -259 0c0,6 0,283 0,283zm1921 -369c-416,-18 -810,-200 -1092,-507l0 3669 1092 0 0 -3162z"/>
   <g>
    <path class="fil4" d="M20782 934c-47,0 -47,73 0,73 47,0 47,-73 0,-73z"/>
    <path class="fil2" d="M4222 5804c16,-26 50,-34 75,-18 26,16 34,50 18,76 -16,26 -50,34 -76,18 -25,-16 -33,-50 -17,-76z"/>
    <path class="fil5" d="M4401 7319c16,-26 49,-34 75,-18 26,16 33,51 17,76 -16,26 -49,34 -75,18 -25,-16 -33,-50 -17,-76z"/>
    <path class="fil4" d="M5839 2054c16,-26 50,-34 75,-18 26,16 34,50 18,76 -16,26 -50,34 -76,18 -25,-16 -33,-51 -17,-76z"/>
    <path class="fil4" d="M1274 1065c-16,26 -49,34 -75,18 -25,-16 -33,-50 -17,-76 16,-26 49,-34 75,-18 26,16 33,50 17,76z"/>
    <path class="fil2" d="M3323 3117c-16,26 -50,34 -76,18 -25,-16 -33,-50 -17,-76 16,-26 50,-34 75,-18 26,17 34,51 18,76z"/>
    <path class="fil4" d="M4762 544c-16,26 -50,33 -75,17 -26,-16 -34,-50 -18,-76 16,-26 50,-33 76,-17 25,16 33,50 17,76z"/>
    <path class="fil5" d="M659 4033c-16,26 -50,34 -76,18 -25,-16 -33,-50 -17,-76 16,-26 50,-34 75,-18 26,17 34,51 18,76z"/>
    <path class="fil4" d="M1569 5534c-16,26 -50,33 -75,17 -26,-16 -34,-50 -18,-76 16,-25 50,-33 76,-17 25,16 33,50 17,76z"/>
    <path class="fil4" d="M16681 4646c16,25 50,33 76,17 25,-16 33,-50 17,-76 -16,-26 -50,-34 -75,-17 -26,16 -34,50 -18,76z"/>
    <path class="fil2" d="M7674 1003c16,26 49,33 75,17 25,-16 33,-50 17,-76 -16,-26 -49,-33 -75,-17 -26,16 -33,50 -17,76z"/>
    <path class="fil4" d="M18276 1043c16,26 50,33 75,17 26,-16 34,-50 18,-76 -16,-26 -50,-33 -76,-17 -25,16 -33,50 -17,76z"/>
    <path class="fil4" d="M15904 2813c16,26 49,34 75,18 26,-16 33,-50 17,-76 -16,-26 -49,-34 -75,-18 -25,16 -33,50 -17,76z"/>
    <path class="fil6" d="M13308 1114c15,26 49,34 75,18 25,-16 33,-50 17,-76 -16,-26 -49,-34 -75,-18 -26,16 -33,50 -17,76z"/>
    <path class="fil4" d="M20077 10842c16,26 50,34 76,18 25,-16 33,-50 17,-76 -16,-26 -49,-34 -75,-18 -26,16 -33,50 -18,76z"/>
    <path class="fil2" d="M1815 9461c15,26 49,34 75,18 25,-17 33,-51 17,-76 -16,-26 -49,-34 -75,-18 -26,16 -33,50 -17,76z"/>
    <path class="fil4" d="M6295 7219c119,-4 215,-102 216,-223l2 0c0,121 96,219 215,223 -119,4 -215,102 -215,224l-2 0c0,-122 -96,-220 -216,-224z"/>
    <path class="fil4" d="M20845 7677c-16,26 -50,34 -75,18 -26,-16 -34,-50 -18,-76 16,-26 50,-34 76,-18 25,16 33,50 17,76z"/>
    <path class="fil4" d="M19716 5541c-16,26 -49,33 -75,17 -26,-16 -33,-50 -18,-76 16,-26 50,-34 76,-17 25,16 33,50 17,76z"/>
    <path class="fil4" d="M16333 6174c-16,26 -50,33 -75,17 -26,-16 -34,-50 -18,-76 16,-26 50,-34 75,-17 26,16 34,50 18,76z"/>
    <path class="fil4" d="M20479 8262c-15,26 -49,34 -75,18 -25,-16 -33,-50 -17,-76 16,-26 49,-34 75,-18 26,17 33,51 17,76z"/>
    <path class="fil4" d="M17637 7010c-16,26 -50,33 -75,17 -26,-16 -34,-50 -18,-76 16,-26 50,-34 75,-17 26,16 34,50 18,76z"/>
    <path class="fil2" d="M1499 7880c-16,26 -50,34 -75,18 -26,-16 -34,-50 -18,-76 16,-26 50,-34 75,-18 26,16 34,50 18,76z"/>
    <path class="fil4" d="M19830 3122c192,-6 346,-164 347,-359l3 0c2,195 155,353 347,359 -192,7 -347,166 -347,362l-3 0c0,-196 -154,-355 -347,-362z"/>
    <path class="fil7" d="M1170 11481c18,0 18,28 0,28 -18,0 -18,-28 0,-28z"/>
    <path class="fil7" d="M1461 11467c36,0 36,56 0,56 -36,0 -36,-56 0,-56z"/>
   </g>
  </g>
 </g>
</svg>
