<?xml version="1.0" encoding="UTF-8"?>
<!DOCTYPE svg PUBLIC "-//W3C//DTD SVG 1.1//EN" "http://www.w3.org/Graphics/SVG/1.1/DTD/svg11.dtd">
<!-- Creator: CorelDRAW X7 -->
<svg xmlns="http://www.w3.org/2000/svg" xml:space="preserve" width="100%" height="100%" version="1.1" style="shape-rendering:geometricPrecision; text-rendering:geometricPrecision; image-rendering:optimizeQuality; fill-rule:evenodd; clip-rule:evenodd"
viewBox="0 0 76072 76072"
 xmlns:xlink="http://www.w3.org/1999/xlink">
 <defs>
  <style type="text/css">
   <![CDATA[
    .fil4 {fill:none}
    .fil3 {fill:white}
    .fil1 {fill:#45417A;fill-rule:nonzero}
    .fil0 {fill:#5C589A;fill-rule:nonzero}
    .fil2 {fill:#7875A3;fill-rule:nonzero}
   ]]>
  </style>
 </defs>
 <g id="Layer_x0020_1">
  <metadata id="CorelCorpID_0Corel-Layer"/>
  <g id="_1596812543184">
   <g>
    <path class="fil0" d="M76072 38092c0,-20990 -17102,-38092 -38092,-38092 -20989,0 -37980,17102 -37980,38092 0,20989 16991,37980 37980,37980 20990,0 38092,-16991 38092,-37980z"/>
    <path class="fil1" d="M8662 13993c-5441,6552 -8662,14881 -8662,24099 0,20989 16991,37980 37980,37980 11772,0 22211,-5331 29208,-13660 0,0 -28652,10995 -46310,-6663 -17657,-17657 -12216,-41756 -12216,-41756l0 0z"/>
    <path class="fil2" d="M66020 18329c0,-6969 -5678,-12647 -12647,-12647 -6969,0 -12611,5678 -12611,12647 0,6969 5642,12610 12611,12610 6969,0 12647,-5641 12647,-12610z"/>
   </g>
   <g>
    <polygon class="fil3" points="35789,26801 13317,26801 8823,26801 8823,31295 13317,31295 31294,31295 35787,26802 "/>
    <polygon class="fil3" points="35789,35789 13317,35789 8823,35789 8823,40283 13317,40283 31294,40283 31294,44778 31294,49271 35789,49271 35789,44778 "/>
    <polygon class="fil3" points="26801,44777 13317,44777 8823,44777 8823,49271 26801,49271 26801,44778 "/>
    <polygon class="fil3" points="67249,26801 40283,26801 40283,31295 62756,31295 "/>
    <polygon class="fil3" points="40283,35789 67249,35789 62756,40283 44778,40283 44778,49271 40283,49271 "/>
   </g>
  </g>
  <rect class="fil4" width="76072" height="76072"/>
 </g>
</svg>
