<?xml version="1.0" encoding="UTF-8"?>
<!DOCTYPE svg PUBLIC "-//W3C//DTD SVG 1.1//EN" "http://www.w3.org/Graphics/SVG/1.1/DTD/svg11.dtd">
<!-- Creator: CorelDRAW X7 -->
<svg xmlns="http://www.w3.org/2000/svg" xml:space="preserve" width="9.47378in" height="6.14846in" version="1.1" style="shape-rendering:geometricPrecision; text-rendering:geometricPrecision; image-rendering:optimizeQuality; fill-rule:evenodd; clip-rule:evenodd"
viewBox="0 0 94738 61485"
 xmlns:xlink="http://www.w3.org/1999/xlink">
 <defs>
  <style type="text/css">
   <![CDATA[
    .fil3 {fill:#F4E3C8}
    .fil0 {fill:#F6EFE2}
    .fil9 {fill:#BB9B61;fill-rule:nonzero}
    .fil8 {fill:#D0B076;fill-rule:nonzero}
    .fil6 {fill:#D2AE6D;fill-rule:nonzero}
    .fil4 {fill:#D7B77D;fill-rule:nonzero}
    .fil7 {fill:#DCC08D;fill-rule:nonzero}
    .fil2 {fill:#DCC293;fill-rule:nonzero}
    .fil5 {fill:#E3CCA2;fill-rule:nonzero}
    .fil1 {fill:#E9D1A9;fill-rule:nonzero}
   ]]>
  </style>
 </defs>
 <g id="Layer_x0020_1">
  <metadata id="CorelCorpID_0Corel-Layer"/>
  <g id="_2897504382480">
   <path class="fil0" d="M24853 42101c-466,1653 -1326,3191 -2320,4582 -4128,5775 -4977,10730 -3973,14802l55586 0c-885,-1964 -1412,-4565 -1595,-7842 -708,-12646 -5886,-19741 -13601,-20902 -13262,-1996 -24620,17546 -34097,9360z"/>
   <path class="fil0" d="M28790 33742c2577,-491 5957,-2378 11275,-6392 2177,-1643 4539,-2898 6965,-3743 4772,-1663 9791,-1740 14138,-63 1375,531 2644,1218 3797,2051 3691,2666 6193,6818 7188,12048 1076,5663 2928,9119 5661,10566 874,462 1822,704 2825,776 5159,369 8395,-3796 14099,-5720l0 -2675c-6606,-459 -13644,850 -17313,-1930 -3561,-2698 -2422,-7072 -2185,-11815 527,-10551 -7520,-17298 -17869,-15115 -4234,893 -8337,2715 -12404,2466 -5497,-337 -6990,-6028 -10279,-9871 -7520,-8784 -21025,-3339 -21077,8705 -31,6998 6731,22324 15179,20712z"/>
   <g>
    <path class="fil1" d="M31996 25357c-432,271 -707,656 -820,1144 -112,489 -31,956 239,1388 271,432 656,708 1145,820 488,112 955,31 1387,-239 171,-108 318,-233 440,-376 185,-217 312,-474 380,-769 112,-488 32,-955 -239,-1387 -270,-431 -655,-707 -1145,-820 -489,-112 -955,-31 -1387,239z"/>
    <path class="fil2" d="M33383 25118c-489,-112 -955,-31 -1387,239 -139,87 -262,187 -369,298 328,-122 673,-143 1029,-62 489,113 874,389 1145,820 270,432 351,899 239,1387 -68,295 -196,552 -380,769 -23,27 -47,53 -72,78 122,-45 242,-104 359,-177 171,-108 318,-233 440,-376 185,-217 312,-474 380,-769 112,-488 32,-955 -239,-1387 -270,-431 -655,-707 -1145,-820z"/>
    <path class="fil1" d="M29512 9809c-1500,-283 -3052,70 -4612,1048 -1560,977 -2562,2224 -2977,3706 -361,1289 -214,2584 436,3850 110,213 305,372 537,436 231,63 480,27 684,-101l929 -582c370,-232 507,-706 317,-1101 -337,-701 -415,-1353 -237,-1995 214,-777 777,-1455 1672,-2016 892,-559 1748,-756 2546,-585 794,170 1475,700 2023,1575 755,1205 919,2234 486,3057 -456,866 -1455,1777 -2974,2708l-402 251c-401,252 -523,783 -271,1184l2194 3502c122,194 312,329 536,381 223,51 453,12 648,-110l942 -590c76,-48 142,-106 197,-170 237,-278 279,-689 75,-1014l-1421 -2268c-18,-28 -10,-65 17,-84 1727,-1147 2832,-2382 3284,-3671 480,-1371 205,-2895 -819,-4529 -1021,-1628 -2302,-2598 -3810,-2882z"/>
    <path class="fil2" d="M29512 9809c-1500,-283 -3052,70 -4612,1048 -966,605 -1718,1314 -2249,2118 369,-345 790,-666 1263,-962 1560,-978 3112,-1331 4612,-1048 1508,284 2789,1254 3810,2882 1024,1634 1300,3158 819,4529 -139,396 -340,786 -601,1171 775,-750 1306,-1528 1587,-2327 480,-1371 205,-2895 -819,-4529 -1021,-1628 -2302,-2598 -3810,-2882z"/>
   </g>
   <g>
    <path class="fil1" d="M74393 38302c-272,-241 -591,-351 -947,-330 -357,22 -659,171 -900,443 -241,272 -352,591 -329,947 21,357 170,659 442,900 108,95 223,170 345,225 186,82 387,117 602,104 357,-21 660,-170 900,-442 240,-272 351,-591 330,-948 -23,-356 -172,-659 -443,-899z"/>
    <path class="fil2" d="M74836 39201c-22,-356 -172,-659 -443,-899 -88,-78 -181,-142 -278,-192 150,199 233,430 249,690 22,357 -89,676 -329,948 -240,272 -543,421 -900,442 -215,13 -416,-22 -602,-104 -22,-11 -45,-22 -67,-33 55,74 120,144 193,209 108,95 223,170 345,225 186,82 387,117 602,104 357,-22 660,-170 900,-442 240,-272 351,-591 330,-948z"/>
    <path class="fil1" d="M84516 33471c-110,-1082 -664,-2071 -1646,-2940 -982,-869 -2036,-1302 -3132,-1287 -953,13 -1809,374 -2543,1074 -123,118 -192,284 -189,455 3,170 78,333 206,446l585 518c234,206 585,204 816,-5 411,-372 842,-556 1316,-564 574,-10 1150,238 1714,736 561,497 869,1042 913,1621 44,577 -181,1149 -668,1700 -672,759 -1342,1078 -1991,948 -684,-136 -1508,-636 -2449,-1486l-254 -224c-252,-223 -640,-199 -863,53l-1950 2205c-109,122 -163,280 -153,443 10,163 83,312 206,421l593 525c48,42 101,75 156,100 238,106 527,51 708,-153l1263 -1428c15,-18 43,-20 60,-5 1132,948 2199,1454 3171,1503 1033,52 2019,-443 2929,-1472 907,-1025 1311,-2096 1202,-3184z"/>
    <path class="fil2" d="M84516 33471c-110,-1082 -664,-2071 -1646,-2940 -608,-538 -1244,-909 -1900,-1109 310,182 614,405 911,668 983,869 1537,1859 1646,2941 109,1087 -295,2158 -1201,3183 -911,1029 -1896,1525 -2930,1473 -298,-16 -606,-74 -921,-175 668,379 1307,585 1910,615 1033,52 2019,-443 2929,-1472 907,-1025 1311,-2096 1202,-3184z"/>
   </g>
   <path class="fil3" d="M19157 28329c3284,4278 7381,7793 5696,13772 12024,10862 19561,-2754 26001,-6711 5372,-3300 12018,-2501 15534,1762 5493,6660 -741,16141 5536,24333l22814 0 0 -19406c-7107,337 -9740,4016 -14221,3932 -4774,-89 -6818,-5050 -8402,-10434 -3022,-10274 -12538,-21809 -23092,-19861 -14846,2741 -12594,20140 -29866,12613z"/>
   <path class="fil3" d="M8967 2775c962,31 1734,821 1739,1799l16 0c8,-978 779,-1768 1739,-1799 -965,-32 -1739,-830 -1739,-1813l-13 0c0,983 -774,1781 -1742,1813z"/>
   <path class="fil3" d="M71901 11978c1692,55 3048,1444 3058,3163l27 0c14,-1719 1370,-3108 3058,-3163 -1697,-55 -3058,-1457 -3058,-3186l-23 0c0,1729 -1361,3131 -3062,3186z"/>
   <g>
    <path class="fil4" d="M0 40076c0,-3880 3145,-7025 7025,-7025 3881,0 7026,3145 7026,7025 0,3881 -3145,7026 -7026,7026 -3880,0 -7025,-3145 -7025,-7026z"/>
    <path class="fil5" d="M154 38609c675,-3175 3495,-5558 6871,-5558 3881,0 7026,3146 7026,7026 0,889 -166,1739 -467,2523 -1124,-319 -2820,-886 -5344,-1827 -3703,-1381 -6256,-1998 -8086,-2164z"/>
    <path class="fil5" d="M7025 47102c-2853,0 -5310,-1702 -6409,-4146 1075,-37 2276,-144 3548,-366 3132,-546 6336,1002 8147,2114 -1288,1470 -3178,2398 -5286,2398z"/>
    <path class="fil4" d="M13997 39201c-2245,-254 -4625,-855 -6803,-2063 -1938,-1075 -3476,-1862 -4688,-2440 1221,-1027 2798,-1647 4519,-1647 3584,0 6540,2683 6972,6150z"/>
    <path class="fil6" d="M4088 44824c3555,0 6436,-2882 6436,-6437 0,-2198 -1102,-4139 -2785,-5300 3545,358 6312,3350 6312,6990 0,3879 -3146,7025 -7026,7025 -2334,0 -4402,-1139 -5679,-2891 832,393 1761,613 2742,613z"/>
   </g>
   <g>
    <path class="fil7" d="M42844 53715c-442,-571 -1023,-906 -1728,-996 -704,-90 -1351,88 -1922,530 -571,442 -906,1023 -996,1727 -90,705 89,1351 530,1922 175,227 373,416 591,568 331,230 712,374 1137,428 704,90 1351,-88 1922,-530 570,-441 905,-1022 996,-1727 89,-705 -89,-1352 -530,-1922z"/>
    <path class="fil8" d="M43374 55637c89,-705 -89,-1352 -530,-1922 -143,-184 -300,-344 -471,-479 217,445 295,928 230,1442 -91,705 -426,1286 -996,1728 -571,441 -1218,620 -1922,530 -425,-55 -806,-199 -1137,-429 -41,-28 -81,-58 -120,-89 81,165 181,325 300,480 176,227 373,416 591,568 331,230 711,374 1137,428 704,90 1351,-88 1922,-530 570,-441 905,-1022 996,-1727z"/>
    <path class="fil7" d="M64413 48046c189,-2154 -524,-4293 -2120,-6356 -1595,-2062 -3493,-3300 -5640,-3679 -1866,-329 -3671,59 -5365,1152 -285,184 -482,482 -539,817 -57,335 29,681 237,950l950 1228c379,490 1065,617 1596,294 941,-573 1850,-773 2779,-613 1124,195 2159,893 3074,2076 912,1180 1310,2360 1180,3507 -129,1144 -781,2177 -1937,3071 -1594,1233 -3021,1608 -4242,1112 -1285,-521 -2707,-1804 -4231,-3814l-411 -532c-410,-530 -1176,-628 -1706,-217l-4630 3581c-257,198 -421,485 -462,808 -41,322 45,641 244,898l964 1246c78,101 168,185 267,254 425,295 1010,297 1440,-36l2998 -2319c37,-29 91,-23 120,13 1859,2274 3754,3659 5633,4116 2000,486 4109,-114 6270,-1786 2152,-1665 3340,-3607 3531,-5771z"/>
    <path class="fil8" d="M64413 48046c189,-2154 -524,-4293 -2120,-6356 -988,-1277 -2092,-2237 -3299,-2874 538,473 1049,1021 1532,1646 1596,2063 2309,4201 2120,6355 -191,2165 -1379,4107 -3531,5772 -2161,1671 -4270,2272 -6269,1786 -578,-141 -1157,-369 -1735,-684 1164,988 2336,1628 3501,1912 2000,486 4109,-114 6270,-1786 2152,-1665 3340,-3607 3531,-5771z"/>
   </g>
   <g>
    <path class="fil4" d="M46574 28320c-339,-87 -662,-43 -959,132 -297,176 -492,436 -579,776 -87,340 -43,662 132,959 176,296 437,491 776,579 134,34 266,48 395,41 196,-10 384,-68 564,-174 297,-175 491,-436 579,-775 87,-339 43,-662 -133,-959 -175,-297 -436,-492 -775,-579z"/>
    <path class="fil9" d="M47349 28899c-175,-297 -436,-492 -775,-579 -110,-28 -217,-42 -323,-43 216,106 389,267 517,484 176,297 220,620 133,959 -88,339 -282,600 -579,775 -180,106 -368,164 -564,174 -24,2 -48,2 -72,2 80,39 166,71 258,95 134,34 266,48 395,42 196,-11 384,-69 564,-175 297,-175 491,-436 579,-775 87,-339 43,-662 -133,-959z"/>
    <path class="fil4" d="M53156 19725c-569,-883 -1479,-1490 -2705,-1806 -1226,-316 -2322,-225 -3258,269 -813,429 -1390,1115 -1714,2038 -54,156 -41,329 37,474 78,146 214,253 373,294l730 188c292,75 592,-81 700,-363 190,-499 479,-847 883,-1062 489,-260 1093,-300 1797,-119 701,181 1204,515 1496,993 291,477 349,1067 172,1755 -244,947 -680,1515 -1296,1689 -647,182 -1575,114 -2757,-203l-316 -82c-316,-81 -638,110 -719,425l-709 2751c-40,153 -17,312 63,448 80,136 209,232 361,271l741 191c60,16 119,21 178,18 251,-13 475,-187 541,-442l459 -1782c6,-22 28,-36 50,-31 1390,319 2529,285 3386,-99 911,-409 1541,-1267 1872,-2551 329,-1279 206,-2378 -365,-3264z"/>
    <path class="fil9" d="M53156 19725c-569,-883 -1479,-1490 -2705,-1806 -759,-195 -1468,-235 -2120,-120 346,21 706,80 1077,175 1226,316 2136,923 2705,1806 571,886 694,1985 364,3264 -331,1284 -960,2142 -1872,2551 -263,118 -553,203 -868,255 740,31 1380,-72 1912,-310 911,-409 1541,-1267 1872,-2551 329,-1279 206,-2378 -365,-3264z"/>
   </g>
  </g>
 </g>
</svg>
