<?xml version="1.0" encoding="UTF-8"?>
<!DOCTYPE svg PUBLIC "-//W3C//DTD SVG 1.1//EN" "http://www.w3.org/Graphics/SVG/1.1/DTD/svg11.dtd">
<!-- Creator: CorelDRAW X7 -->
<svg xmlns="http://www.w3.org/2000/svg" xml:space="preserve" width="2.57921in" height="0.774843in" version="1.1" style="shape-rendering:geometricPrecision; text-rendering:geometricPrecision; image-rendering:optimizeQuality; fill-rule:evenodd; clip-rule:evenodd"
viewBox="0 0 25792 7748"
 xmlns:xlink="http://www.w3.org/1999/xlink">
 <defs>
  <style type="text/css">
   <![CDATA[
    .fil0 {fill:#6C87C3}
    .fil2 {fill:#999999}
    .fil1 {fill:#D2AE6D}
   ]]>
  </style>
 </defs>
 <g id="Layer_x0020_1">
  <metadata id="CorelCorpID_0Corel-Layer"/>
  <g id="_2284867831632">
   <g>
    <path class="fil0" d="M16199 4263l2558 0 852 -853 -2558 0 0 -852 1706 -1 852 -852 -2558 0 0 -853 1705 0 853 -852 -2558 0 -853 852 0 853 -1704 0 -853 853 0 852c-852,0 -1705,0 -2557,0l-853 853c1137,0 2274,0 3410,0l853 -853 0 -852 1704 0 1 1705zm-13641 0l852 0 0 -2558 -3410 0 0 853 2558 0 0 1705zm-853 -853l-1705 0 0 853 1705 0 0 -853zm2558 -2558l0 1706 3410 0 853 -853 -3411 0 0 -1705 -5115 0 0 852 4263 0zm5967 853l0 -1705c-1136,0 -2273,0 -3410,0l-852 852 3410 0 0 2558 -1705 0 -853 853 2558 0 852 -853 0 -852 2559 -1 852 -852 -3411 0zm-5967 1705l0 853 1705 0 852 -853 -2557 0zm8526 -3410l0 852 852 0 0 -852 -852 0z"/>
    <path class="fil1" d="M20677 852l4262 0 853 -852 -5116 0 1 852zm3410 2558l-3410 0 0 853 3410 0 0 -853zm1705 -1705l-5115 0 0 852 4262 0 0 1705 853 0 0 -2557z"/>
   </g>
   <path class="fil2" d="M18970 7159c63,53 152,65 232,65l1019 0c78,0 141,-10 190,-31 83,-35 146,-92 169,-181 22,-89 19,-159 -17,-244 -51,-126 -173,-241 -277,-324 -73,-58 -162,-117 -265,-178l656 -290 0 -182 -817 360c-41,30 -86,123 -89,173 81,40 161,84 239,135 123,77 267,186 353,304 37,49 55,93 55,132 0,117 -93,141 -192,141l-1001 0c-132,0 -160,-47 -160,-173l0 -1236 -183 0 0 1285c0,90 18,183 88,244zm-18504 219c13,-76 19,-169 19,-279l0 -623 -180 0 0 599c0,77 -3,142 -6,197 -4,54 -16,100 -36,134 -53,91 -169,99 -263,99l0 186c100,0 182,-10 245,-32 138,-43 197,-145 221,-281zm5103 185c0,66 52,119 118,119 66,0 119,-52 119,-119 0,-66 -53,-118 -119,-118 -66,0 -118,52 -118,118zm-3023 -551c23,-89 19,-158 -17,-244 -52,-126 -172,-240 -277,-324 -73,-58 -162,-117 -265,-178l656 -290 0 -182 -817 360c-40,29 -86,124 -89,173 82,40 161,84 239,135 78,49 148,100 208,151 60,52 109,102 146,153 49,66 95,195 0,244 -37,19 -83,29 -138,29l-1001 0c-67,0 -111,-13 -130,-40 -19,-26 -30,-70 -30,-133l0 -1236 -183 0 0 1285c0,136 45,260 189,294 39,10 83,15 131,15l1020 0c77,0 140,-10 190,-31 83,-35 145,-92 168,-181zm1615 132l0 -210c0,-137 -17,-299 -92,-417 -76,-119 -193,-164 -330,-164 -129,0 -246,48 -329,147 -75,92 -113,211 -113,329 0,115 27,232 119,309 81,67 190,86 292,86 91,0 186,-16 265,-64 0,69 1,143 -35,205 -55,90 -152,122 -252,132 -88,9 -175,9 -264,9l0 185 94 0c152,0 347,-12 473,-106 139,-104 172,-277 172,-441zm-617 -153c-46,-37 -68,-97 -68,-182 0,-66 19,-132 58,-186 48,-63 117,-94 196,-94 82,0 147,33 190,104 44,74 53,174 53,258l0 83c-22,18 -54,34 -97,49 -44,15 -94,22 -151,22 -75,0 -135,-18 -181,-54zm6494 21c22,-89 19,-158 -17,-244 -52,-128 -171,-239 -277,-324 -73,-58 -161,-117 -265,-178l656 -290 0 -182 -816 360c-42,28 -86,125 -90,173 81,40 161,84 239,135 79,49 148,100 208,151 60,52 109,102 145,153 38,49 55,93 55,132 0,117 -92,141 -192,141l-967 0c-40,0 -72,-6 -97,-18 -54,-26 -79,-69 -90,-126 -5,-31 -7,-65 -7,-101l0 -430 -184 0 0 512c0,37 -4,67 -12,88 -17,42 -44,63 -88,70 -54,7 -128,8 -178,-13 -57,-25 -85,-66 -96,-126 -6,-31 -9,-65 -9,-101l0 -318 -182 0 0 400c0,46 -7,109 -49,137 -37,26 -102,26 -146,26 -68,0 -148,-10 -193,-67 -16,-21 -27,-47 -32,-77 -5,-31 -7,-65 -7,-101l0 -318 -183 0 0 400c0,52 -6,109 -56,137 -50,27 -151,26 -207,26 -66,0 -165,10 -224,-18 -26,-12 -46,-29 -61,-49 -15,-21 -25,-47 -30,-77 -5,-31 -7,-65 -7,-101l0 -430 -184 0 0 512c0,52 -6,109 -57,137 -48,27 -151,26 -207,26l-814 0c-72,0 -131,-3 -177,-7 -67,-6 -138,-22 -166,-91 -11,-27 -17,-64 -17,-110l0 -279 -183 0 0 346c0,94 16,192 97,252 91,67 245,74 354,74l909 0c63,0 119,-2 167,-6 107,-7 214,-31 259,-139 13,42 37,76 72,104 66,51 182,41 265,41 81,0 211,1 286,-28 64,-22 103,-57 129,-119 9,17 20,35 34,53 58,80 178,94 269,94 78,0 145,-9 201,-26 55,-18 96,-58 123,-119 8,16 17,33 31,50 54,76 173,95 259,95 18,0 40,-2 65,-6 55,-7 111,-30 154,-64 24,-19 43,-44 56,-75 13,42 36,76 72,104 36,27 82,41 141,41l962 0c79,0 141,-10 190,-31 83,-35 147,-92 169,-181zm6697 -1173c65,0 117,-52 117,-118 0,-65 -51,-118 -117,-118 -67,0 -120,52 -120,118 0,67 54,118 120,118zm-32 150c0,-66 -53,-118 -118,-118 -66,0 -119,52 -119,118 0,66 53,118 119,118 65,0 118,-53 118,-118zm53 0c0,66 53,118 119,118 66,0 118,-52 118,-118 0,-66 -52,-118 -118,-118 -66,0 -119,52 -119,118zm-2752 -110c-40,46 -76,113 -76,175l867 -382 0 -167 -758 345c-9,5 -20,15 -33,29zm-2596 484c23,-23 35,-51 35,-84 0,-32 -12,-61 -35,-83 -23,-23 -50,-35 -83,-35 -32,0 -61,12 -84,35 -23,22 -35,51 -35,83 0,33 12,61 35,84 23,23 52,35 84,35 33,0 60,-12 83,-35zm522 577l0 -575 -181 0 0 573c0,104 -14,229 -102,298 -85,67 -221,75 -325,75 -144,0 -253,-29 -326,-87 -74,-58 -111,-160 -111,-304l0 -305 -181 0 0 343c0,175 51,307 152,399 103,92 257,138 462,138 193,0 344,-44 451,-130 107,-87 161,-228 161,-425zm546 284l0 -1594 -183 0 0 1594 183 0zm1866 -185l-964 0c-75,0 -126,-22 -153,-66 -28,-44 -42,-104 -42,-179l0 -318 -181 0 0 599c0,77 -1,142 -5,197 -6,93 -36,174 -128,210 -41,16 -98,23 -171,23l0 186c135,0 301,-14 392,-128 87,-112 91,-314 91,-450 16,29 40,56 73,78 33,22 74,33 124,33l960 0c150,0 316,-48 359,-212 22,-89 19,-158 -17,-244 -53,-127 -172,-239 -277,-324 -73,-58 -162,-117 -266,-178l657 -290 0 -182 -817 360c-42,28 -85,125 -89,173 156,76 313,174 447,286 70,62 200,185 200,285 0,55 -18,93 -55,112 -36,19 -83,29 -138,29zm3042 185l0 -860 -183 0 0 675 -188 0c-98,0 -168,-43 -184,-144 -6,-31 -8,-65 -8,-101l0 -318 -183 0 0 400c0,86 -19,146 -115,158 -26,3 -57,5 -93,5 -49,0 -88,-6 -116,-18 -28,-12 -50,-29 -65,-49 -16,-21 -26,-47 -31,-77 -5,-31 -7,-65 -7,-101l0 -318 -181 0 0 719c0,75 -8,136 -24,184 -35,99 -109,152 -210,171 -115,21 -269,23 -382,-5 -106,-26 -182,-82 -220,-186 -19,-50 -28,-111 -28,-182l0 -306 -181 0 0 345c0,173 51,305 153,396 102,91 256,136 461,136 194,0 344,-43 451,-129 107,-87 161,-228 161,-422l0 -82c17,30 44,55 81,77 89,51 288,34 384,6 57,-18 101,-58 127,-119 12,42 35,76 71,104 35,27 82,41 139,41l371 0zm1157 -80l0 -210c0,-85 -7,-163 -21,-234 -43,-215 -169,-347 -401,-347 -198,0 -352,116 -413,301 -37,107 -42,257 4,362 69,161 214,208 378,208 92,0 186,-16 266,-64 0,125 -9,232 -135,296 -111,56 -291,50 -417,50l0 185 94 0c153,0 347,-12 473,-106 140,-104 172,-277 172,-441zm-187 -170c-66,52 -167,71 -248,71 -159,0 -250,-73 -250,-236 0,-32 5,-63 15,-96 31,-112 122,-184 239,-184 137,0 209,93 232,219 13,77 12,149 12,226z"/>
  </g>
 </g>
</svg>
