<?xml version="1.0" encoding="UTF-8"?>
<!DOCTYPE svg PUBLIC "-//W3C//DTD SVG 1.1//EN" "http://www.w3.org/Graphics/SVG/1.1/DTD/svg11.dtd">
<!-- Creator: CorelDRAW X7 -->
<svg xmlns="http://www.w3.org/2000/svg" xml:space="preserve" width="2.57921in" height="0.42626in" version="1.1" style="shape-rendering:geometricPrecision; text-rendering:geometricPrecision; image-rendering:optimizeQuality; fill-rule:evenodd; clip-rule:evenodd"
viewBox="0 0 25792 4263"
 xmlns:xlink="http://www.w3.org/1999/xlink">
 <defs>
  <style type="text/css">
   <![CDATA[
    .fil0 {fill:#6C87C3}
    .fil1 {fill:#D2AE6D}
   ]]>
  </style>
 </defs>
 <g id="Layer_x0020_1">
  <metadata id="CorelCorpID_0Corel-Layer"/>
  <g id="_2283068123312">
   <path class="fil0" d="M16199 4263l2558 0 852 -853 -2558 0 0 -852 1706 -1 852 -852 -2558 0 0 -853 1705 0 853 -852 -2558 0 -853 852 0 853 -1705 0 -852 853 0 852c-852,0 -1705,0 -2557,0l-853 853c1137,0 2274,0 3410,0l853 -853 0 -852 1704 0 1 1705zm-13641 0l852 0 0 -2558 -3410 0 0 853 2558 0 0 1705zm-853 -853l-1705 0 0 853 1705 0 0 -853zm2558 -2558l0 1706 3410 0 853 -853 -3410 0 0 -1705 -5116 0 0 852 4263 0zm5967 853l0 -1705c-1136,0 -2273,0 -3410,0l-852 852 3410 0 0 2558 -1705 0 -853 853 2558 0 852 -853 0 -852 2559 -1 852 -852 -3411 0zm-5967 1705l0 853 1705 0 852 -853 -2557 0zm8526 -3410l0 852 852 0 0 -852 -852 0z"/>
   <path class="fil1" d="M20677 852l4262 0 852 -852 -5115 0 1 852zm3410 2558l-3410 0 0 853 3410 0 0 -853zm1705 -1705l-5115 0 0 852 4262 0 0 1705 852 0 1 -2557z"/>
  </g>
 </g>
</svg>
