<?xml version="1.0" encoding="UTF-8"?>
<!DOCTYPE svg PUBLIC "-//W3C//DTD SVG 1.1//EN" "http://www.w3.org/Graphics/SVG/1.1/DTD/svg11.dtd">
<!-- Creator: CorelDRAW X7 -->
<svg xmlns="http://www.w3.org/2000/svg" xml:space="preserve" width="10.6966in" height="7.91909in" version="1.1" style="shape-rendering:geometricPrecision; text-rendering:geometricPrecision; image-rendering:optimizeQuality; fill-rule:evenodd; clip-rule:evenodd"
viewBox="0 0 106966 79191"
 xmlns:xlink="http://www.w3.org/1999/xlink">
 <defs>
  <style type="text/css">
   <![CDATA[
    .fil14 {fill:#FEFEFE}
    .fil10 {fill:#C6D8D9}
    .fil16 {fill:#C19F3D}
    .fil9 {fill:#A7C0C1}
    .fil21 {fill:#8480BC}
    .fil17 {fill:#A38755}
    .fil5 {fill:#A6B7DE}
    .fil22 {fill:#A9A6D0}
    .fil11 {fill:#BB9B61}
    .fil24 {fill:#C1BEDD}
    .fil1 {fill:#CBD4EA}
    .fil23 {fill:#CECBE4}
    .fil25 {fill:#CFD8ED}
    .fil30 {fill:#D1B177}
    .fil18 {fill:#D2AE6D}
    .fil7 {fill:#D7B77D}
    .fil12 {fill:#DBBE8A}
    .fil28 {fill:#E0C698}
    .fil31 {fill:#E0E6F3}
    .fil0 {fill:#E1E6F3}
    .fil20 {fill:#E2CAA0}
    .fil26 {fill:#E6D1AB}
    .fil6 {fill:#E6D2AE}
    .fil2 {fill:#E8D8BA}
    .fil8 {fill:#E9D7B6}
    .fil19 {fill:#F1F3FA}
    .fil13 {fill:#F3E0C2}
    .fil15 {fill:#F6EFE2}
    .fil27 {fill:#FBF7F0}
    .fil4 {fill:#FBFAF4}
    .fil3 {fill:#FBFBF5}
    .fil29 {fill:white}
   ]]>
  </style>
 </defs>
 <g id="Layer_x0020_1">
  <metadata id="CorelCorpID_0Corel-Layer"/>
  <g id="_1502833716320">
   <path class="fil0" d="M155 38423c-1085,12298 3529,24928 13551,33656 15022,13084 35695,5814 50542,-3418 1534,-953 3396,-1871 5908,-2505 5977,-1508 10976,-901 15870,-2327 8274,-2410 12812,-9229 12383,-15103 -626,-8566 -8494,-9422 -15135,-9143 -2578,109 -4745,164 -6827,-444 -6124,-1786 -9809,-8549 -11409,-14293 -678,-2432 -1247,-4939 -2167,-7368 -3876,-10242 -12974,-16319 -22884,-17331 -20749,-2119 -38134,19040 -39832,38276z"/>
   <path class="fil1" d="M50977 70357c12459,-1158 30977,-16013 21951,-27525 -2967,-3784 -7682,-7260 -10426,-11495 -6441,-9941 -7775,-24149 -25206,-18663 -32763,10311 -23285,61120 13681,57683z"/>
   <path class="fil2" d="M38380 10278c-1198,-696 -2857,-599 -4685,456 -211,122 -420,258 -628,402l-2911 -1692c-1365,-793 -3254,-684 -5336,518 -3968,2291 -7215,7728 -7462,12364 -250,106 -500,231 -756,378 -3128,1807 -5668,6202 -5658,9800 5,1786 639,3044 1658,3637l3726 2164c-1020,-592 -1653,-1850 -1659,-3636 -10,-3599 2530,-7993 5658,-9799 257,-149 507,-273 756,-379 247,-4637 3494,-10072 7463,-12364 1633,-943 3144,-1204 4380,-894 -307,218 -609,456 -904,716l3726 2165c539,-475 1102,-886 1673,-1215 1828,-1055 3486,-1152 4684,-455l-3725 -2166z"/>
   <path class="fil3" d="M28546 12127c3384,-1954 6260,-1020 7202,1987 539,-475 1102,-886 1673,-1215 3634,-2098 6597,-406 6609,3770 12,4173 -2932,9274 -6566,11373l-17100 9872c-3128,1806 -5684,350 -5695,-3245 -10,-3599 2530,-7993 5658,-9799 257,-149 507,-273 756,-379 247,-4637 3494,-10072 7463,-12364z"/>
   <g>
    <path class="fil2" d="M90309 45350c-497,-288 -1185,-247 -1944,191 -123,71 -244,154 -364,241l2125 1235c119,-87 240,-170 363,-241 760,-439 1447,-480 1944,-191l-2124 -1235zm-1153 -875l-2124 -1234c-614,-357 -1464,-306 -2402,236 -1495,863 -2758,2710 -3196,4514 -405,-85 -893,10 -1418,313 -1389,802 -2511,2745 -2507,4342 1,336 56,625 147,874 -337,-62 -740,20 -1175,271 -1173,677 -2121,2321 -2117,3669 2,671 239,1143 621,1365l2124 1234c-382,-222 -619,-693 -621,-1364 -3,-1349 944,-2992 2118,-3670 434,-251 837,-333 1174,-271 -91,-248 -146,-538 -147,-874 -4,-1596 1118,-3539 2507,-4342 525,-303 1013,-398 1418,-313 438,-1803 1701,-3651 3196,-4514 938,-542 1788,-592 2402,-236z"/>
    <path class="fil4" d="M86754 44711c1865,-1077 3380,-213 3386,1929 0,124 -5,249 -15,377 120,-87 241,-170 364,-241 1509,-872 2734,-173 2739,1559 5,1733 -1213,3842 -2721,4713l-11888 6863c-1173,678 -2127,132 -2131,-1216 -3,-1349 944,-2992 2118,-3670 434,-251 837,-333 1174,-271 -91,-248 -146,-538 -147,-874 -4,-1596 1118,-3539 2507,-4342 525,-303 1013,-398 1418,-313 438,-1803 1701,-3651 3196,-4514z"/>
   </g>
   <g>
    <path class="fil5" d="M73228 71223l-17958 -7998 17 -5 16470 4300 1471 3703zm-65373 -5459l9745 -2544 -8705 3883 -16 -21 -17 -20 -17 -21 -17 -21 -16 -20 -17 -21 0 0 -17 -21 -16 -20 -17 -21 -17 -21 -16 -21 -17 -20 -16 -21 -17 -21 -16 -21 -17 -20 -16 -21 -17 -21 0 0 -16 -21 -17 -21 -16 -20 0 0 -17 -21 -16 -21 0 0 -16 -21 -17 -21 -16 -21 -16 -21 -17 -20 -16 -21 0 0 -16 -21 -17 -21 0 0 -16 -21 -16 -21 -16 -21 0 0 -17 -21 -16 -21 -16 -21 0 0 -16 -21 0 0 -16 -21 0 0 -16 -21 -1 0 -16 -21 -16 -21 0 0 -16 -21 0 0 -16 -21 0 0 -16 -21 -16 -21 0 0 -16 -21 0 0 -16 -21 0 0 -16 -21 0 0 -16 -21 -16 -21 0 0 -16 -21 0 0 -16 -21 0 0 -16 -21 0 0 -16 -22 -16 -21 0 0 -15 -21 0 0 -16 -21 0 0 -16 -21 -16 -21 -16 -21 -16 -22 -15 -21 -16 -21zm28588 5003l-18843 -7547 18843 5488 0 -1935 0 1935 18745 -5459 -18745 7518z"/>
    <path class="fil6" d="M17600 63220l-9745 2544c-396,-533 -777,-1073 -1144,-1622 -1441,-2155 -2652,-4426 -3631,-6775 -355,-851 -680,-1712 -974,-2582l7498 -18880 13922 -2533 -5926 29848z"/>
    <polygon class="fil7" points="17600,63220 36443,68708 36443,35905 23526,33372 "/>
    <polygon class="fil8" points="55287,63220 36443,68708 36443,35905 49359,33372 "/>
    <polygon class="fil7" points="55287,63220 76309,68708 63282,35905 49359,33372 "/>
    <polygon class="fil9" points="36443,66773 21662,62468 23349,52976 33311,55155 33605,50648 36016,52009 36443,51940 "/>
    <polygon class="fil10" points="36443,66773 36443,66773 36443,51940 43192,50855 44539,64415 "/>
    <polygon class="fil11" points="34024,44213 28431,43280 29396,36416 36443,37798 36443,50058 36363,50071 33739,48590 "/>
    <path class="fil12" d="M46353 63887l-1786 -17979 6768 -1054 315 52 3273 16485 -8570 2496zm-9910 -13829l0 -12260 12930 -2535 376 68 1519 7653 -8723 1359 463 4660 -6565 1055z"/>
    <polygon class="fil11" points="73228,65983 55259,61293 54923,61391 51650,44906 59859,46275 57479,36738 55473,36373 57371,43976 51345,42972 51268,42984 49749,35331 61936,37548 "/>
    <path class="fil12" d="M3080 57367l7870 -19819 12187 -2217 -546 2749 -168 -35 -2036 546 686 -2884 -1738 316 -2525 10330 -10141 1976 -815 2051 6150 -1197 -4583 14774 446 -116 -1156 301c-1441,-2155 -2652,-4426 -3631,-6775z"/>
    <polygon class="fil11" points="27151,39039 22591,38080 23137,35331 23514,35263 27570,36058 "/>
    <polygon class="fil12" points="9538,63405 14074,48779 18621,47894 20025,40611 22205,40026 17963,61391 17626,61293 "/>
    <polygon class="fil11" points="19868,61946 17963,61391 22205,40026 22475,39954 26891,40883 26339,44815 32061,45769 31598,52879 21858,50748 "/>
    <polygon class="fil13" points="68786,54798 68786,54798 57962,53205 60240,62593 73228,65983 "/>
    <polygon class="fil14" points="59185,53407 69256,55982 68409,53847 56698,50854 59315,62352 61341,62881 "/>
    <polygon class="fil13" points="20753,62204 36443,66773 45654,64090 43707,49794 36190,50854 32857,49794 32455,53857 22285,52503 "/>
    <polygon class="fil13" points="17600,47289 20037,35895 10950,37548 6526,48689 "/>
    <polygon class="fil15" points="59859,46275 57479,36738 55473,36373 57371,43976 51345,42972 42545,44343 43008,49003 36363,50071 33739,48590 34024,44213 28431,43280 29396,36416 27570,36058 27151,39039 22423,38045 20387,38591 21073,35707 19335,36023 16810,46353 6669,48329 5854,50380 12004,49183 7421,63957 9538,63405 14074,48779 18621,47894 20025,40611 22475,39954 26891,40883 26339,44815 32061,45769 31598,52879 21858,50748 19868,61946 21662,62469 23349,52976 33311,55155 33605,50648 36016,52009 43192,50855 44539,64415 46353,63887 44567,45908 51335,44854 "/>
    <path class="fil16" d="M49766 33446l-407 -74 407 74zm-26646 0l0 0 406 -74 -406 74z"/>
   </g>
   <g>
    <path class="fil17" d="M42216 20410c1403,-810 2808,-1005 3882,-393l-2219 -1290c-1074,-612 -2479,-417 -3882,393 -1402,810 -2803,2235 -3870,4083 -1688,2923 -2077,6139 -961,7938l4888 7874 2219 1289 -4888 -7874c-1116,-1798 -727,-5014 961,-7938 1067,-1848 2468,-3272 3870,-4082z"/>
    <path class="fil18" d="M42216 20410c1403,-810 2808,-1005 3882,-393 1699,968 2104,3725 1002,6805l-4827 13482 -4888 -7874c-1116,-1798 -727,-5014 961,-7938 1067,-1848 2468,-3272 3870,-4082z"/>
    <path class="fil19" d="M46181 24472c0,2345 -1646,5196 -3676,6368 -2031,1173 -3677,223 -3677,-2122 0,-2345 1646,-5196 3677,-6368 2030,-1173 3676,-222 3676,2122z"/>
    <path class="fil20" d="M44147 21848c-495,0 -1053,161 -1642,502 -2031,1172 -3677,4023 -3677,6368 0,1663 828,2625 2034,2625 495,0 1052,-162 1643,-503 2030,-1172 3676,-4023 3676,-6368 0,-1663 -828,-2624 -2034,-2624zm0 509l0 0c955,0 1525,791 1525,2115 0,2179 -1535,4838 -3422,5928 -492,283 -972,434 -1388,434 -955,0 -1525,-791 -1525,-2116 0,-2179 1535,-4838 3422,-5927 492,-284 971,-434 1388,-434z"/>
   </g>
   <path class="fil21" d="M26651 50254c789,-456 1579,-566 2183,-221l-1248 -726c-605,-344 -1395,-235 -2184,221 -789,456 -1577,1258 -2177,2297 -950,1645 -1169,3454 -541,4466l2750 4430 1248 725 -2750 -4430c-628,-1012 -408,-2821 541,-4466 600,-1039 1388,-1841 2178,-2296z"/>
   <path class="fil22" d="M26651 50254c789,-456 1579,-566 2183,-221 956,544 1184,2095 564,3828l-2716 7585 -2750 -4430c-628,-1012 -408,-2821 541,-4466 600,-1039 1388,-1841 2178,-2296z"/>
   <path class="fil19" d="M28881 52539c0,1319 -926,2923 -2069,3583 -1142,659 -2068,125 -2068,-1194 0,-1319 926,-2923 2068,-3583 1143,-659 2069,-125 2069,1194z"/>
   <path class="fil23" d="M27736 51063c-278,0 -592,91 -924,282 -1142,660 -2068,2264 -2068,3583 0,935 466,1476 1145,1476 278,0 591,-91 923,-282 1143,-660 2069,-2264 2069,-3583 0,-935 -466,-1477 -1145,-1476zm0 526l0 0c558,0 618,665 618,950 0,1130 -827,2562 -1805,3127 -240,138 -468,212 -660,212 -558,0 -618,-665 -618,-950 0,-1130 826,-2562 1805,-3127 240,-138 468,-212 660,-212z"/>
   <g>
    <path class="fil24" d="M57336 31614c871,-503 1744,-624 2411,-244l-1379 -801c-667,-380 -1540,-259 -2411,244 -872,503 -1742,1388 -2405,2537 -1049,1817 -1291,3815 -597,4932l3037 4893 1379 801 -3037 -4893c-694,-1117 -452,-3115 597,-4932 663,-1148 1533,-2033 2405,-2537z"/>
    <path class="fil22" d="M57336 31614c871,-503 1744,-624 2411,-244 1056,602 1308,2315 623,4229l-2999 8377 -3037 -4893c-694,-1117 -452,-3115 597,-4932 663,-1148 1533,-2033 2405,-2537z"/>
    <path class="fil19" d="M59799 34139c0,1457 -1023,3228 -2284,3957 -1262,728 -2285,138 -2285,-1319 0,-1457 1023,-3229 2285,-3957 1261,-729 2284,-138 2284,1319z"/>
    <path class="fil24" d="M58535 32508c-307,0 -654,100 -1020,312 -1262,728 -2285,2500 -2285,3957 0,1033 515,1631 1264,1631 307,0 654,-101 1021,-312 1261,-729 2284,-2500 2284,-3957 0,-1034 -514,-1631 -1264,-1631zm0 526l0 0c666,0 738,773 738,1105 0,1265 -926,2868 -2022,3500 -273,158 -535,242 -757,242 -665,0 -737,-772 -737,-1104 0,-1266 925,-2868 2021,-3501 274,-158 535,-242 757,-242z"/>
   </g>
   <polygon class="fil25" points="15580,39847 15574,43395 13297,44718 13302,41170 "/>
   <polygon class="fil26" points="13302,41170 13297,44718 11005,43395 11010,39847 "/>
   <polygon class="fil27" points="15580,39847 13302,41170 11010,39847 13287,38524 "/>
   <g>
    <polygon class="fil25" points="67868,57832 67862,60133 65160,61703 65166,59402 "/>
    <polygon class="fil26" points="65166,59402 65160,61703 62440,60133 62447,57832 "/>
    <polygon class="fil27" points="67868,57832 65166,59402 62447,57832 65149,56262 "/>
   </g>
   <g>
    <polygon class="fil25" points="42850,58414 42844,60400 40512,61756 40517,59770 "/>
    <polygon class="fil28" points="40517,59770 40512,61756 36443,59407 36443,57417 "/>
    <polygon class="fil27" points="42850,58414 40517,59770 36500,57450 37868,56660 39536,57620 40502,57059 "/>
   </g>
   <g>
    <path class="fil7" d="M96207 21206c0,-7677 -6224,-13901 -13902,-13901 -7677,0 -13901,6224 -13901,13901 0,7678 6224,13902 13901,13902 7678,0 13902,-6224 13902,-13902z"/>
    <path class="fil29" d="M84930 25141l0 2621 -10491 0 0 -2621 10491 0zm-10491 -7870l0 -2624c5246,0 10491,0 15736,0l-2624 2624c-4368,0 -8740,0 -13112,0zm15736 2621c0,2625 0,5249 0,7870l-2624 0 0 -5245 -13112 0 0 -2625c5246,0 10491,0 15736,0z"/>
   </g>
   <g>
    <polygon class="fil30" points="49283,38916 49277,41217 46575,42787 46581,40486 "/>
    <polygon class="fil26" points="46581,40486 46575,42787 43855,41217 43862,38916 "/>
    <polygon class="fil13" points="49283,38916 46581,40486 43862,38916 46563,37346 "/>
   </g>
   <g>
    <polygon class="fil25" points="39989,60424 39984,62063 38060,63181 38064,61542 "/>
    <polygon class="fil28" points="38064,61542 38060,63181 36123,62063 36128,60424 "/>
    <polygon class="fil27" points="39989,60424 38064,61542 36128,60424 38052,59306 "/>
   </g>
   <g>
    <polygon class="fil30" points="18226,54535 18221,56173 16297,57291 16302,55653 "/>
    <polygon class="fil26" points="16302,55653 16297,57291 14360,56173 14365,54535 "/>
    <polygon class="fil13" points="18226,54535 16302,55653 14365,54535 16289,53417 "/>
   </g>
   <g>
    <polygon class="fil30" points="16848,56687 16843,58456 14765,59663 14770,57894 "/>
    <polygon class="fil26" points="14770,57894 14765,59663 12674,58456 12679,56687 "/>
    <polygon class="fil13" points="16848,56687 14770,57894 12679,56687 14757,55480 "/>
   </g>
   <path class="fil31" d="M102297 55989c1118,37 2014,954 2020,2090l18 0c10,-1136 906,-2053 2020,-2090 -1120,-36 -2020,-962 -2020,-2104l-15 0c0,1142 -899,2068 -2023,2104z"/>
   <path class="fil31" d="M8010 6581c1439,47 2593,1228 2601,2691l23 0c12,-1463 1166,-2644 2601,-2691 -1443,-47 -2601,-1240 -2601,-2710l-19 0c0,1470 -1158,2663 -2605,2710z"/>
   <path class="fil0" d="M103879 30589c-2186,-1590 -4890,-932 -7257,1281 -2367,2214 -2513,5297 -327,6887 2186,1589 7296,2864 9663,651 2367,-2213 107,-7230 -2079,-8819z"/>
  </g>
 </g>
</svg>
