<?xml version="1.0" encoding="UTF-8"?>
<!DOCTYPE svg PUBLIC "-//W3C//DTD SVG 1.1//EN" "http://www.w3.org/Graphics/SVG/1.1/DTD/svg11.dtd">
<!-- Creator: CorelDRAW X7 -->
<svg xmlns="http://www.w3.org/2000/svg" xml:space="preserve" width="2.86212in" height="2.86071in" version="1.1" style="shape-rendering:geometricPrecision; text-rendering:geometricPrecision; image-rendering:optimizeQuality; fill-rule:evenodd; clip-rule:evenodd"
viewBox="0 0 28621 28607"
 xmlns:xlink="http://www.w3.org/1999/xlink">
 <defs>
  <style type="text/css">
   <![CDATA[
    .fil0 {fill:#FEFEFE}
    .fil1 {fill:#E6D2AE}
   ]]>
  </style>
 </defs>
 <g id="Layer_x0020_1">
  <metadata id="CorelCorpID_0Corel-Layer"/>
  <g id="_1503054347632">
   <ellipse class="fil0" cx="14311" cy="14304" rx="14311" ry="14303"/>
   <path class="fil1" d="M9214 14313c0,-2812 2280,-5092 5092,-5092 2811,0 5092,2280 5092,5092 0,1360 -531,2637 -1493,3599 -962,962 -2238,1492 -3599,1492 -1361,0 -2638,-530 -3600,-1492 -961,-962 -1492,-2239 -1492,-3599zm5097 -2910c987,1 1612,621 1836,1547 1101,-206 2052,418 2052,1563 0,903 -734,1633 -1636,1633l-4505 0c-902,0 -1636,-730 -1636,-1633 0,-1145 951,-1769 2052,-1563 224,-926 849,-1546 1837,-1547zm271 -5547l0 2283c-92,-4 -184,-6 -276,-6 -90,0 -178,2 -267,6l0 -2283c-468,-118 -805,-534 -805,-1044 0,-598 479,-1076 1077,-1076 598,0 1076,478 1076,1076 0,510 -337,926 -805,1044zm0 2827l0 3c2982,144 5358,2608 5358,5627 0,914 -217,1794 -626,2584l1 1c-83,160 -174,316 -272,468l-2 -1c-215,332 -466,644 -753,930 -1063,1064 -2478,1652 -3982,1652 -1505,0 -2919,-588 -3983,-1652 -288,-288 -542,-603 -758,-938l-2 1c-98,-152 -189,-309 -271,-469l1 -1c-406,-787 -621,-1665 -621,-2575 0,-3022 2380,-5489 5367,-5628l0 -2c88,-4 177,-6 267,-6 92,0 184,2 276,6zm5204 8487l1986 1146c336,-349 866,-434 1308,-178 519,299 694,952 394,1470 -299,519 -952,693 -1470,394 -441,-254 -633,-752 -502,-1215l-1988 -1149c98,-152 189,-308 272,-468zm-10694 460l-1977 1141c139,468 -52,974 -498,1231 -518,299 -1171,124 -1470,-394 -299,-518 -125,-1171 394,-1470 438,-253 961,-173 1297,167l1982 -1144c84,160 174,316 272,469zm-3463 1700c-147,-255 -60,-565 190,-710 262,-151 562,-67 710,190 148,257 72,559 -190,710 -251,144 -563,64 -710,-190zm17363 0c-147,254 -459,334 -709,190 -263,-151 -339,-453 -190,-710 148,-257 447,-341 709,-190 250,145 337,455 190,710zm-8681 -15037c294,0 519,231 519,519 0,303 -222,520 -519,520 -297,0 -520,-217 -520,-520 0,-288 226,-519 520,-519z"/>
  </g>
 </g>
</svg>
