<?xml version="1.0" encoding="UTF-8"?>
<!DOCTYPE svg PUBLIC "-//W3C//DTD SVG 1.1//EN" "http://www.w3.org/Graphics/SVG/1.1/DTD/svg11.dtd">
<!-- Creator: CorelDRAW X7 -->
<svg xmlns="http://www.w3.org/2000/svg" xml:space="preserve" width="3.11654in" height="0.604409in" version="1.1" style="shape-rendering:geometricPrecision; text-rendering:geometricPrecision; image-rendering:optimizeQuality; fill-rule:evenodd; clip-rule:evenodd"
viewBox="0 0 31165 6044"
 xmlns:xlink="http://www.w3.org/1999/xlink">
 <defs>
  <style type="text/css">
   <![CDATA[
    .fil0 {fill:#A38755}
    .fil1 {fill:white;fill-rule:nonzero}
   ]]>
  </style>
 </defs>
 <g id="Layer_x0020_1">
  <metadata id="CorelCorpID_0Corel-Layer"/>
  <g id="_1503132945808">
   <path class="fil0" d="M3022 0l25121 0c1663,0 3022,1360 3022,3022 0,1662 -1359,3022 -3022,3022l-25121 0c-1662,0 -3022,-1360 -3022,-3022 0,-1662 1360,-3022 3022,-3022z"/>
   <path class="fil1" d="M9769 3751c-58,0 -117,-10 -177,-29 -59,-20 -107,-62 -144,-127 -25,35 -54,63 -87,84 -34,21 -69,37 -109,47 -38,10 -79,17 -121,20 -41,3 -83,5 -123,5l-1344 0c-120,0 -221,-9 -303,-26 -82,-18 -147,-46 -196,-85 -49,-39 -83,-89 -104,-150 -20,-61 -30,-136 -30,-223l0 -506 397 0 0 452c0,41 6,73 16,96 11,24 29,42 55,56 26,14 62,23 107,27 45,4 102,6 172,6l1165 0c70,0 119,-10 146,-32 27,-21 41,-70 41,-144l0 -689 395 0 0 655c0,75 15,129 47,161 32,33 98,49 197,49 16,0 32,2 46,5 15,4 27,11 39,22 11,11 20,27 26,50 6,22 9,53 9,92 0,69 -10,118 -29,144 -20,26 -50,40 -91,40zm-1968 -1573c0,-58 22,-109 65,-153 42,-43 94,-65 154,-65 58,0 109,22 152,64 43,43 64,95 64,154 0,59 -21,110 -64,153 -43,43 -94,64 -152,64 -59,0 -110,-21 -153,-64 -44,-43 -66,-94 -66,-153zm500 0c0,-58 21,-109 64,-153 43,-43 93,-65 152,-65 59,0 110,22 153,64 44,43 65,95 65,154 0,59 -21,110 -64,153 -43,43 -94,64 -154,64 -59,0 -109,-21 -152,-64 -43,-43 -64,-94 -64,-153zm1592 1220c45,0 82,-1 112,-3 29,-2 53,-8 71,-18 19,-10 32,-25 41,-44 8,-19 12,-46 12,-82l0 -583 392 0 0 520c0,65 18,116 53,154 35,37 91,56 166,56 60,0 110,-9 152,-27 43,-18 64,-57 64,-120l0 -583 397 0 0 520c0,140 61,210 181,210l190 0 0 -865 397 0 0 1218 -468 0c-108,0 -190,-13 -245,-39 -56,-25 -102,-65 -140,-120 -31,39 -64,69 -99,90 -34,21 -70,37 -107,47 -37,11 -73,17 -108,19 -36,2 -70,3 -103,3 -103,0 -191,-17 -261,-51 -71,-34 -121,-70 -151,-108 -55,72 -126,116 -215,133 -88,17 -200,26 -337,26l-119 0c-16,0 -31,-2 -45,-5 -15,-3 -28,-10 -40,-21 -11,-12 -20,-29 -26,-51 -6,-23 -8,-53 -8,-92 0,-70 9,-118 29,-144 19,-27 49,-40 90,-40l125 0zm2989 -1832l0 2185 -395 0 0 -2185 395 0zm1473 2185c-29,222 -121,383 -276,485 -155,101 -386,151 -694,151l-94 0 0 -373 70 0c104,0 192,-6 265,-18 72,-12 132,-30 178,-54 45,-24 80,-52 102,-83 22,-31 37,-67 42,-108l-189 0c-90,0 -173,-10 -248,-31 -76,-20 -141,-53 -196,-99 -55,-46 -97,-105 -129,-178 -30,-73 -46,-160 -46,-261 0,-82 14,-163 41,-243 28,-79 68,-151 121,-214 54,-63 119,-114 197,-151 78,-37 166,-56 266,-56 112,0 207,19 283,58 76,38 138,93 184,163 47,71 81,154 101,251 21,97 31,203 31,320l0 88 224 0c16,0 31,2 46,5 14,4 27,11 38,22 11,11 19,27 26,50 6,22 10,53 10,92 0,69 -10,118 -29,144 -20,26 -50,40 -91,40l-233 0zm-823 -607c0,98 21,165 62,200 42,36 98,54 168,54l202 0 0 -182c0,-98 -16,-179 -46,-244 -30,-64 -87,-97 -171,-97 -76,0 -131,26 -164,77 -34,50 -51,114 -51,192zm2149 254c-5,-82 -19,-157 -39,-225 -20,-68 -51,-127 -93,-176 -42,-48 -96,-86 -161,-114 -65,-27 -147,-41 -244,-41 -33,0 -85,5 -155,14 -70,9 -141,24 -213,45l0 -356c47,-16 111,-33 191,-51 81,-19 164,-28 250,-28 159,0 294,27 403,82 109,55 197,128 264,221 67,91 116,198 145,319 29,121 44,247 44,379l0 284 -1487 0c-15,0 -31,-2 -45,-5 -15,-3 -28,-10 -39,-21 -11,-12 -20,-29 -26,-51 -6,-23 -9,-53 -9,-92 0,-70 10,-118 29,-144 19,-27 50,-40 90,-40l1095 0zm-722 -1394c0,-59 22,-110 64,-153 43,-43 95,-65 154,-65 59,0 110,21 153,64 43,43 64,94 64,154 0,59 -21,110 -64,152 -43,43 -94,65 -153,65 -58,0 -109,-22 -153,-65 -43,-42 -65,-93 -65,-152zm1661 664l398 0 0 911c0,146 -12,271 -34,373 -23,103 -62,186 -117,249 -57,63 -134,110 -233,139 -99,29 -225,45 -378,47l0 -373c81,-2 146,-12 196,-30 49,-17 86,-43 111,-77 24,-34 39,-79 47,-133 7,-54 10,-120 10,-195l0 -911zm1814 697c0,53 -9,103 -26,150 -17,47 -43,87 -77,122 -35,35 -80,63 -135,83 -56,21 -121,31 -196,31l-741 0 0 -353 600 0c46,0 83,-4 110,-13 27,-9 40,-26 40,-51 0,-12 -1,-24 -4,-36 -3,-12 -11,-29 -23,-50 -13,-22 -31,-50 -54,-84 -24,-35 -55,-81 -93,-138l-242 -362c61,-40 120,-80 178,-117 58,-39 120,-77 183,-116l266 432c72,117 126,214 161,292 35,77 53,147 53,210zm3711 386c-59,0 -118,-10 -177,-29 -59,-20 -107,-62 -144,-127 -25,35 -54,63 -87,84 -34,21 -70,37 -109,47 -39,10 -79,17 -121,20 -42,3 -83,5 -124,5l-1343 0c-121,0 -222,-9 -304,-26 -81,-18 -147,-46 -195,-85 -49,-39 -84,-89 -104,-150 -20,-61 -31,-136 -31,-223l0 -506 398 0 0 452c0,41 5,73 15,96 11,24 30,42 56,56 26,14 62,23 107,27 45,4 102,6 172,6l1165 0c70,0 118,-10 146,-32 27,-21 41,-70 41,-144l0 -689 394 0 0 655c0,75 16,129 48,161 32,33 98,49 197,49 16,0 31,2 45,5 15,4 28,11 40,22 11,11 20,27 26,50 6,22 8,53 8,92 0,69 -9,118 -29,144 -19,26 -49,40 -90,40zm-1968 -1573c0,-58 21,-109 64,-153 43,-43 95,-65 154,-65 59,0 110,22 153,64 43,43 64,95 64,154 0,59 -21,110 -64,153 -43,43 -94,64 -153,64 -58,0 -109,-21 -153,-64 -43,-43 -65,-94 -65,-153zm499 0c0,-58 22,-109 65,-153 42,-43 93,-65 152,-65 59,0 110,22 153,64 43,43 65,95 65,154 0,59 -22,110 -64,153 -43,43 -94,64 -154,64 -59,0 -110,-21 -152,-64 -43,-43 -65,-94 -65,-153zm1654 1220c70,0 119,-10 146,-32 28,-21 41,-70 41,-144l0 -689 398 0 0 655c0,75 14,129 42,161 29,33 92,49 191,49 16,0 31,2 45,5 14,4 27,11 38,22 11,11 20,27 26,50 7,22 10,53 10,92 0,69 -10,118 -29,144 -19,26 -49,40 -90,40 -59,0 -116,-10 -172,-29 -55,-20 -101,-62 -138,-127 -25,35 -54,63 -89,84 -34,21 -70,37 -109,47 -39,10 -80,17 -122,20 -41,3 -83,5 -124,5l-250 0c-16,0 -32,-2 -46,-5 -15,-3 -27,-10 -39,-21 -11,-12 -20,-29 -26,-51 -6,-23 -9,-53 -9,-92 0,-70 10,-118 29,-144 20,-27 50,-40 91,-40l186 0zm168 858c0,-59 21,-110 64,-153 43,-43 94,-64 154,-64 59,0 109,21 152,64 43,43 65,94 65,153 0,58 -22,109 -65,152 -43,43 -93,64 -152,64 -59,0 -110,-21 -153,-64 -44,-43 -65,-94 -65,-152zm1001 -858l0 -865 400 0 0 1218 -753 0c-16,0 -31,-2 -45,-5 -15,-3 -28,-10 -39,-21 -12,-12 -20,-29 -26,-51 -7,-23 -9,-53 -9,-92 0,-70 10,-118 29,-144 19,-27 49,-40 90,-40l353 0zm-298 -1394c0,-59 21,-110 64,-153 43,-43 94,-65 154,-65 59,0 110,21 153,64 42,43 64,94 64,154 0,59 -22,110 -64,152 -43,43 -94,65 -153,65 -59,0 -110,-22 -153,-65 -43,-42 -65,-93 -65,-152zm499 0c0,-59 21,-110 64,-153 43,-43 94,-65 153,-65 58,0 109,21 153,64 43,43 65,94 65,154 0,59 -22,110 -65,152 -42,43 -94,65 -153,65 -59,0 -110,-22 -153,-65 -43,-42 -64,-93 -64,-152zm-242 -444c0,-58 21,-109 64,-153 43,-43 94,-65 154,-65 59,0 110,21 153,64 42,43 64,95 64,154 0,59 -22,110 -64,153 -43,43 -94,64 -153,64 -59,0 -110,-21 -153,-64 -43,-43 -65,-94 -65,-153z"/>
  </g>
 </g>
</svg>
