<?xml version="1.0" encoding="UTF-8"?>
<!DOCTYPE svg PUBLIC "-//W3C//DTD SVG 1.1//EN" "http://www.w3.org/Graphics/SVG/1.1/DTD/svg11.dtd">
<!-- Creator: CorelDRAW X7 -->
<svg xmlns="http://www.w3.org/2000/svg" xml:space="preserve" width="0.849055in" height="0.849055in" version="1.1" style="shape-rendering:geometricPrecision; text-rendering:geometricPrecision; image-rendering:optimizeQuality; fill-rule:evenodd; clip-rule:evenodd"
viewBox="0 0 8491 8491"
 xmlns:xlink="http://www.w3.org/1999/xlink">
 <defs>
  <style type="text/css">
   <![CDATA[
    .fil0 {fill:#716279}
    .fil1 {fill:white}
   ]]>
  </style>
 </defs>
 <g id="Layer_x0020_1">
  <metadata id="CorelCorpID_0Corel-Layer"/>
  <g id="_1503031190304">
   <path class="fil0" d="M8491 4245c0,2345 -1901,4246 -4246,4246 -2344,0 -4245,-1901 -4245,-4246 0,-2344 1901,-4245 4245,-4245 2345,0 4246,1901 4246,4245z"/>
   <path class="fil1" d="M5312 4412l-757 0 0 2775 -1148 0 0 -2775 -546 0 0 -976 546 0 0 -631c0,-451 215,-1158 1158,-1158l850 4 0 946 -616 0c-102,0 -244,51 -244,266l0 574 858 0 -101 975z"/>
  </g>
 </g>
</svg>
