<?xml version="1.0" encoding="UTF-8"?>
<!DOCTYPE svg PUBLIC "-//W3C//DTD SVG 1.1//EN" "http://www.w3.org/Graphics/SVG/1.1/DTD/svg11.dtd">
<!-- Creator: CorelDRAW X7 -->
<svg xmlns="http://www.w3.org/2000/svg" xml:space="preserve" width="0.849055in" height="0.849055in" version="1.1" style="shape-rendering:geometricPrecision; text-rendering:geometricPrecision; image-rendering:optimizeQuality; fill-rule:evenodd; clip-rule:evenodd"
viewBox="0 0 8491 8491"
 xmlns:xlink="http://www.w3.org/1999/xlink">
 <defs>
  <style type="text/css">
   <![CDATA[
    .fil0 {fill:#716279}
    .fil1 {fill:#FEFEFE}
   ]]>
  </style>
 </defs>
 <g id="Layer_x0020_1">
  <metadata id="CorelCorpID_0Corel-Layer"/>
  <g id="_1503012360048">
   <path class="fil0" d="M8491 4245c0,2371 -1875,4246 -4246,4246 -2315,0 -4245,-1875 -4245,-4246 0,-2315 1930,-4245 4245,-4245 2371,0 4246,1930 4246,4245z"/>
   <path class="fil1" d="M3198 2205c-827,-551 -1158,-441 -1158,-441 -276,607 -110,1048 -55,1158 -276,276 -441,662 -441,1103 0,1654 992,2040 1929,2095 -110,110 -220,331 -275,606 -221,111 -827,276 -1213,-386 0,0 -221,-386 -662,-441 0,0 -441,0 -55,276 0,0 276,110 496,606 0,0 221,827 1434,607 0,331 0,606 0,717 0,110 -55,165 -166,220 386,110 772,166 1213,166 441,0 827,-56 1213,-166 -110,0 -165,-110 -165,-220 0,-166 0,-607 0,-1158 0,-386 -110,-662 -276,-827 937,-55 1930,-441 1930,-2095 0,-441 -166,-827 -441,-1103 55,-110 220,-551 -55,-1158 0,0 -331,-110 -1158,441 -331,-110 -662,-165 -1048,-165 -386,0 -716,55 -1047,165l0 0 0 0z"/>
  </g>
 </g>
</svg>
