<?xml version="1.0" encoding="UTF-8"?>
<!DOCTYPE svg PUBLIC "-//W3C//DTD SVG 1.1//EN" "http://www.w3.org/Graphics/SVG/1.1/DTD/svg11.dtd">
<!-- Creator: CorelDRAW X7 -->
<svg xmlns="http://www.w3.org/2000/svg" xml:space="preserve" width="27.1654in" height="17.1797in" version="1.1" style="shape-rendering:geometricPrecision; text-rendering:geometricPrecision; image-rendering:optimizeQuality; fill-rule:evenodd; clip-rule:evenodd"
viewBox="0 0 271654 171797"
 xmlns:xlink="http://www.w3.org/1999/xlink">
 <defs>
  <style type="text/css">
   <![CDATA[
    .fil1 {fill:#EDDFC4}
    .fil2 {fill:#F4EBDC}
    .fil0 {fill:#F6EFE2}
    .fil3 {fill:#F8F2E8}
   ]]>
  </style>
 </defs>
 <g id="Layer_x0020_1">
  <metadata id="CorelCorpID_0Corel-Layer"/>
  <g id="_1503104682400">
   <path class="fil0" d="M271654 43724c-41546,21957 -105063,10431 -113237,-43724l11737 0c15169,31109 63527,46233 101500,37878l0 5846z"/>
   <path class="fil0" d="M271654 122879c-99254,-46523 -170405,111508 -271654,19671l0 -97255c24188,41894 57270,59592 93479,63624 67858,7558 121119,-21601 178175,8113l0 5847z"/>
   <path class="fil1" d="M271654 118074c-26508,-13805 -52359,-11774 -79246,-6399 -31858,6368 -64109,14589 -94398,13095 -47422,-2340 -80980,-30985 -98010,-73809l0 -50961 159523 0c12267,45753 69780,57293 112131,43628l0 74446z"/>
   <path class="fil2" d="M125716 27268c4929,11542 -6725,20188 -20181,22678 -27499,5090 -43638,-27963 -36578,-37202 6780,-8873 47796,-6460 56759,14524z"/>
   <path class="fil3" d="M238060 124211c5035,5812 738,13704 -5809,18307 -13381,9407 -28864,-6771 -27108,-13962 1686,-6905 23762,-14912 32917,-4345z"/>
   <path class="fil3" d="M198450 136372c2543,0 4604,1700 4604,3796 0,2096 -2061,3796 -4604,3796 -2543,0 -4605,-1700 -4605,-3796 0,-2096 2062,-3796 4605,-3796z"/>
  </g>
 </g>
</svg>
