<?xml version="1.0" encoding="UTF-8"?>
<!DOCTYPE svg PUBLIC "-//W3C//DTD SVG 1.1//EN" "http://www.w3.org/Graphics/SVG/1.1/DTD/svg11.dtd">
<!-- Creator: CorelDRAW X7 -->
<svg xmlns="http://www.w3.org/2000/svg" xml:space="preserve" width="0.638189in" height="0.638189in" version="1.1" style="shape-rendering:geometricPrecision; text-rendering:geometricPrecision; image-rendering:optimizeQuality; fill-rule:evenodd; clip-rule:evenodd"
viewBox="0 0 6382 6382"
 xmlns:xlink="http://www.w3.org/1999/xlink">
 <defs>
  <style type="text/css">
   <![CDATA[
    .fil0 {fill:black}
   ]]>
  </style>
 </defs>
 <g id="Layer_x0020_1">
  <metadata id="CorelCorpID_0Corel-Layer"/>
  <path class="fil0" d="M3191 6382c853,0 1653,-331 2256,-935 604,-601 935,-1403 935,-2256 1,-853 -331,-1654 -933,-2257 -603,-603 -1405,-934 -2258,-934 -853,0 -1655,331 -2258,934 -602,603 -934,1404 -933,2257 0,853 331,1655 934,2256 603,604 1404,935 2257,935zm2116 -5306c565,564 876,1315 876,2115 0,456 -100,896 -293,1296 -55,-214 -171,-400 -329,-544 -197,-178 -475,-286 -742,-286l-329 0c253,-299 404,-680 404,-1100 0,-329 -93,-637 -256,-900 -664,-1066 -2230,-1066 -2894,0 -164,263 -256,571 -256,900 0,420 151,801 404,1100l-329 0c-267,0 -545,108 -742,286 -158,144 -274,330 -330,544 -192,-400 -292,-840 -292,-1296 0,-800 311,-1551 876,-2115 1169,-1170 3063,-1170 4232,0zm-2116 -54c844,-10 1537,697 1537,1535 0,844 -690,1537 -1534,1537l-3 0 -3 0c-844,0 -1535,-693 -1535,-1537 0,-838 694,-1545 1538,-1535zm0 2903l-3 0c-734,0 -1334,-585 -1334,-1304 0,-344 140,-621 403,-804 237,-166 585,-249 934,-249 349,0 697,83 934,249 263,183 402,460 402,804 0,719 -599,1304 -1333,1304l-3 0zm-842 -1973c-218,153 -332,377 -332,669 0,635 545,1146 1174,1139 628,7 1174,-504 1174,-1139 0,-292 -114,-516 -332,-669 -416,-294 -1268,-294 -1684,0zm757 2306c-401,-21 -769,-181 -1054,-434l-358 0 0 724 0 1235c427,248 908,386 1412,399l0 -1924zm-1575 -434c-493,17 -889,412 -910,902 227,380 542,710 910,956l0 -1858zm1745 434c401,-21 769,-181 1054,-434l358 0 0 724 0 1235c-427,248 -908,386 -1412,399l0 -1924zm1575 -434c493,17 889,412 910,902 -227,380 -542,710 -910,956l0 -1858z"/>
 </g>
</svg>
