<?xml version="1.0" encoding="UTF-8"?>
<!DOCTYPE svg PUBLIC "-//W3C//DTD SVG 1.1//EN" "http://www.w3.org/Graphics/SVG/1.1/DTD/svg11.dtd">
<!-- Creator: CorelDRAW X7 -->
<svg xmlns="http://www.w3.org/2000/svg" xml:space="preserve" width="2.91886in" height="0.924134in" version="1.1" style="shape-rendering:geometricPrecision; text-rendering:geometricPrecision; image-rendering:optimizeQuality; fill-rule:evenodd; clip-rule:evenodd"
viewBox="0 0 29189 9241"
 xmlns:xlink="http://www.w3.org/1999/xlink">
 <defs>
  <style type="text/css">
   <![CDATA[
    .fil1 {fill:#7C94CA}
    .fil2 {fill:#DFE5F2}
    .fil0 {fill:white}
    .fil3 {fill:#7C94CA;fill-rule:nonzero}
   ]]>
  </style>
 </defs>
 <g id="Layer_x0020_1">
  <metadata id="CorelCorpID_0Corel-Layer"/>
  <g id="_1743807198224">
   <path class="fil0" d="M24568 0l-19947 0c-2542,0 -4621,2079 -4621,4620l0 1c0,2541 2079,4620 4621,4620l19947 0c2541,0 4621,-2079 4621,-4620l0 -1c0,-2541 -2080,-4620 -4621,-4620z"/>
   <path class="fil1" d="M24568 203l-19947 0c-1215,0 -2319,497 -3120,1298 -801,801 -1298,1905 -1298,3120l0 0c0,1215 497,2319 1298,3119 801,801 1905,1298 3120,1298l19947 0c1214,0 2319,-497 3120,-1298 800,-800 1297,-1904 1297,-3119l0 0c0,-1215 -497,-2319 -1297,-3120 -801,-801 -1906,-1298 -3120,-1298zm0 -203l-19947 0c-2542,0 -4621,2079 -4621,4621l0 0c0,2541 2079,4620 4621,4620l19947 0c2541,0 4621,-2079 4621,-4620l0 0c0,-2542 -2080,-4621 -4621,-4621z"/>
   <rect class="fil2" x="19221" y="1338" width="267" height="6566"/>
   <rect class="fil1" x="19087" y="1338" width="134" height="6566"/>
   <path class="fil3" d="M24540 6737l-205 0 0 -511c-147,-44 -282,-114 -389,-209 -93,-83 -169,-184 -220,-305 -47,-112 -74,-240 -74,-382l204 0c0,51 5,101 13,146 9,56 25,108 45,157 39,91 96,168 166,230 54,47 116,87 184,118 22,11 46,21 71,30l0 -1343c-129,-37 -254,-86 -367,-156 -66,-41 -123,-90 -170,-146 -116,-134 -172,-303 -177,-474 -4,-169 41,-341 133,-488 45,-73 101,-140 168,-197 114,-97 258,-166 413,-206l0 -497 205 0 0 4233zm323 -4233l205 0 0 509c151,45 289,114 400,209 100,86 181,191 236,316 50,118 79,251 79,401l-204 0c0,-74 -9,-142 -24,-204 -10,-41 -22,-79 -38,-115 -42,-96 -104,-177 -181,-243 -42,-36 -88,-67 -138,-93 -41,-23 -85,-41 -130,-57l0 1404c127,36 246,83 355,150 49,30 93,64 133,103 41,41 77,85 107,136 91,157 113,350 79,531 -35,185 -129,361 -267,481 -113,99 -254,167 -407,207l0 498 -205 0 0 -4233zm-528 1950l0 -1242c-106,33 -203,83 -281,150 -49,43 -92,94 -128,149 -70,113 -105,247 -101,376 3,126 44,250 128,347 33,40 74,75 123,105 78,49 166,86 259,115l0 0zm736 1573c102,-34 195,-83 271,-148 102,-90 173,-223 200,-366 25,-135 10,-277 -56,-391 -20,-34 -44,-65 -72,-92 -28,-27 -62,-53 -98,-76 -66,-40 -139,-72 -215,-98 -11,-4 -22,-8 -33,-11l0 1183 3 -1zm-370 -4674c874,0 1694,340 2311,958 618,616 957,1438 957,2310 0,873 -339,1693 -957,2311 -617,616 -1437,957 -2311,957 -873,0 -1693,-341 -2311,-957 -616,-618 -956,-1438 -956,-2311 0,-872 340,-1694 956,-2310 618,-618 1438,-958 2311,-958zm-2166 5434c579,579 1349,897 2166,897 819,0 1588,-318 2166,-897 580,-579 899,-1348 899,-2166 0,-819 -319,-1587 -899,-2166 -578,-578 -1347,-898 -2166,-898 -817,0 -1587,320 -2166,898 -579,579 -897,1347 -897,2166 0,818 318,1587 897,2166z"/>
  </g>
  <path class="fil3" d="M5262 5365c-95,0 -177,-6 -245,-18 -68,-11 -126,-29 -172,-51 -47,-23 -84,-53 -113,-88 -28,-36 -49,-77 -64,-124 -14,-48 -24,-102 -29,-162 -4,-60 -7,-126 -7,-199l0 -1228 323 0 0 1228c0,69 2,125 7,166 5,41 17,74 38,97 20,22 51,38 91,45 42,7 98,11 171,11l0 323zm504 -323c18,0 31,4 40,13 9,10 13,22 13,36l0 222c0,19 -4,32 -13,40 -9,8 -22,12 -40,12l-541 0c-19,0 -33,-4 -41,-12 -8,-8 -12,-21 -12,-40l0 -222c0,-14 4,-26 12,-36 8,-9 22,-13 41,-13l541 0zm537 0c17,0 31,4 40,13 9,10 13,22 13,36l0 222c0,19 -4,32 -13,40 -9,8 -23,12 -40,12l-542 0c-19,0 -33,-4 -40,-12 -8,-8 -12,-21 -12,-40l0 -222c0,-14 4,-26 12,-36 7,-9 21,-13 40,-13l542 0zm1225 -1094c56,74 113,150 171,226 25,32 50,66 77,102 27,36 55,71 84,108 28,37 55,73 82,110 26,36 53,70 77,103 54,72 89,150 105,236 16,85 9,169 -19,253 -17,52 -42,100 -76,143 -33,43 -73,80 -121,111 -48,32 -102,55 -164,73 -61,17 -128,26 -202,26 -62,0 -126,-7 -193,-19 -67,-13 -134,-36 -203,-71 -16,-6 -31,-14 -46,-20 -13,-6 -26,-13 -40,-19 -14,-7 -25,-13 -35,-18 -83,25 -175,44 -275,55 -101,12 -213,18 -334,18l-147 0 0 -323 147 0c24,0 45,0 64,1 19,0 36,1 53,1 17,0 33,-1 51,-2 16,-1 35,-3 56,-5 -23,-26 -43,-51 -60,-76 -18,-24 -33,-50 -46,-78 -12,-27 -22,-56 -28,-87 -7,-30 -10,-64 -10,-101 0,-71 13,-136 41,-196 27,-60 65,-111 113,-153 48,-43 104,-75 168,-99 65,-24 134,-36 208,-36 84,0 158,17 224,50 65,33 120,75 165,126 44,50 78,105 101,164 23,59 34,113 34,165 0,41 -4,79 -12,114 -8,34 -20,67 -35,97 -14,31 -32,60 -54,88 -22,28 -46,55 -72,81 26,9 54,17 82,25 29,7 56,11 83,11 27,0 55,-2 85,-6 29,-4 57,-12 83,-23 26,-12 50,-29 70,-49 21,-21 36,-48 46,-82 10,-32 6,-70 -11,-115 -17,-44 -43,-94 -80,-151 -37,-56 -82,-118 -137,-186 -55,-68 -114,-142 -179,-222l-135 -167 244 -183zm-726 747c0,32 5,60 15,85 10,24 25,47 45,68 21,20 46,41 75,60 30,19 65,40 105,61 27,-12 53,-27 78,-44 25,-16 46,-34 65,-55 19,-20 34,-43 45,-68 11,-25 17,-53 17,-83 0,-36 -8,-68 -24,-96 -15,-27 -34,-50 -57,-69 -22,-18 -46,-31 -72,-40 -25,-8 -48,-12 -68,-12 -29,0 -57,4 -84,15 -28,10 -52,25 -73,42 -20,18 -37,38 -49,62 -12,23 -18,48 -18,74zm3089 670l-36 0c-67,0 -132,-6 -194,-19 -63,-12 -120,-31 -173,-57 -53,-25 -99,-58 -141,-98 -40,-39 -74,-87 -100,-141 -21,32 -47,60 -80,85 -32,25 -67,45 -105,61 -38,17 -78,29 -118,37 -41,8 -80,13 -117,13 -69,0 -135,-12 -196,-36 -62,-25 -116,-59 -163,-104 -47,-44 -84,-99 -111,-162 -27,-64 -41,-137 -41,-217 0,-93 18,-175 54,-246 35,-71 82,-133 141,-186 59,-53 126,-99 203,-137 76,-37 155,-70 237,-97l-30 -125 316 -74 236 918c14,56 36,101 67,136 31,34 65,60 102,79 37,18 74,31 113,37 38,7 72,10 100,10l36 0 0 323zm-798 -645c5,-23 7,-48 5,-73 -2,-24 -5,-50 -12,-78 -6,-28 -14,-58 -24,-90 -10,-32 -20,-68 -31,-107 -138,44 -244,94 -315,150 -71,55 -107,124 -107,206 0,32 7,61 22,86 14,25 32,46 55,62 24,16 49,28 77,36 28,7 56,8 85,4 64,-9 119,-28 162,-57 43,-29 71,-75 83,-139zm727 645l0 -323 529 0c72,0 133,-4 183,-12 49,-8 89,-19 119,-32 31,-13 55,-28 70,-43 16,-16 27,-33 34,-49 -115,15 -219,17 -310,5 -92,-13 -170,-39 -234,-78 -63,-39 -112,-92 -147,-158 -34,-65 -51,-144 -51,-236 0,-72 13,-141 40,-205 27,-65 65,-121 113,-169 48,-48 104,-85 169,-112 65,-28 137,-40 215,-36 69,2 130,14 183,36 53,21 100,50 139,86 39,35 72,76 98,123 27,47 48,98 64,153 16,54 28,111 35,170 7,59 12,119 12,178l-5 96c-7,122 -31,221 -72,299 -42,78 -96,140 -162,186 -66,45 -141,77 -226,94 -85,18 -174,27 -267,27l-529 0zm727 -1125c-31,-3 -61,-1 -90,7 -30,7 -56,19 -77,36 -23,18 -40,39 -54,65 -13,25 -20,55 -20,89 0,75 40,129 119,162 79,33 193,38 341,14 -1,-37 -4,-77 -9,-118 -4,-41 -13,-80 -28,-117 -15,-36 -37,-67 -65,-93 -29,-25 -68,-40 -117,-45zm-273 -824l233 -235 239 238 -237 236 -235 -239zm2012 1949l-49 0c-36,0 -69,-2 -100,-7 -32,-4 -63,-16 -93,-36 -11,111 -36,213 -77,303 -41,91 -95,169 -163,233 -67,65 -149,114 -243,150 -94,35 -200,53 -317,53l-162 0 0 -323 162 0c82,0 154,-8 215,-26 60,-17 110,-45 149,-83 39,-38 68,-87 87,-148 19,-61 28,-135 28,-223l0 -789 323 0 0 388c0,39 9,72 25,96 18,24 37,43 59,56 22,13 43,22 64,27 21,4 35,6 43,6l49 0 0 323zm1494 0l-490 0c-17,0 -35,-2 -55,-5 -20,-4 -43,-11 -69,-21 -26,-10 -56,-25 -90,-45 -34,-20 -73,-46 -117,-79 -52,24 -111,46 -177,65 -66,18 -137,34 -212,46 -75,13 -154,23 -237,29 -82,7 -166,10 -250,10l0 -323c58,0 115,-1 171,-4 56,-2 109,-6 160,-11 51,-5 98,-11 141,-18 44,-7 83,-16 118,-25 -74,-65 -140,-122 -199,-172 -60,-50 -106,-92 -140,-126l-36 -37 0 -70c0,-18 1,-38 3,-60 1,-22 5,-45 12,-69 6,-23 15,-47 27,-71 10,-24 26,-47 46,-69 37,-42 83,-73 137,-93 54,-21 120,-31 199,-31l454 0c39,0 77,6 114,16 38,10 73,25 105,44 32,19 60,42 86,69 26,27 46,58 60,92 10,22 17,47 23,75 5,28 8,53 8,75 0,21 -4,43 -13,65 -8,22 -25,50 -49,84 -24,33 -58,74 -102,123 -43,49 -100,110 -169,185 8,4 18,8 30,11 12,2 24,5 37,7 11,3 22,4 32,6 10,2 16,3 19,4l1 0 422 0 0 323zm-1084 -878c-26,0 -47,2 -62,7 -15,4 -26,8 -33,11l371 374c29,-25 60,-52 93,-81 33,-30 64,-61 93,-91 29,-31 53,-60 73,-89 19,-29 30,-55 32,-78 0,-13 -6,-25 -19,-36 -13,-11 -29,-17 -49,-17l-499 0zm2000 -211c2,6 6,20 11,43 6,22 12,50 19,82 7,32 14,68 21,108 8,40 15,80 21,120 6,40 12,79 16,117 4,39 6,72 6,100 0,89 -15,167 -45,232 -29,65 -68,119 -115,161 -48,42 -101,74 -160,95 -59,20 -119,31 -178,31l-559 0 0 -323 568 0c10,0 25,-1 45,-5 19,-2 39,-11 58,-23 19,-13 36,-33 51,-59 15,-27 22,-63 22,-109 0,-19 -2,-42 -4,-69 -3,-27 -8,-57 -13,-88 -5,-30 -11,-62 -17,-95 -7,-32 -13,-63 -19,-92 -6,-29 -12,-55 -18,-79 -6,-24 -11,-42 -14,-55l304 -92zm-128 -253l-218 -220 215 -223 223 223 -220 220zm-543 1l-218 -220 214 -223 223 223 -219 220z"/>
 </g>
</svg>
