<?xml version="1.0" encoding="UTF-8"?>
<!DOCTYPE svg PUBLIC "-//W3C//DTD SVG 1.1//EN" "http://www.w3.org/Graphics/SVG/1.1/DTD/svg11.dtd">
<!-- Creator: CorelDRAW X7 -->
<svg xmlns="http://www.w3.org/2000/svg" xml:space="preserve" width="9.67874in" height="3.82366in" version="1.1" style="shape-rendering:geometricPrecision; text-rendering:geometricPrecision; image-rendering:optimizeQuality; fill-rule:evenodd; clip-rule:evenodd"
viewBox="0 0 96787 38237"
 xmlns:xlink="http://www.w3.org/1999/xlink">
 <defs>
  <style type="text/css">
   <![CDATA[
    .fil2 {fill:black}
    .fil0 {fill:#D7B67C}
    .fil1 {fill:#F7F1E5}
   ]]>
  </style>
 </defs>
 <g id="Layer_x0020_1">
  <metadata id="CorelCorpID_0Corel-Layer"/>
  <g id="_1503139553504">
   <g>
    <path class="fil0" d="M77669 0c10559,0 19118,8560 19118,19118 0,10559 -8559,19119 -19118,19119 -10559,0 -19118,-8560 -19118,-19119 0,-10558 8559,-19118 19118,-19118z"/>
    <path class="fil1" d="M81277 24529l0 3608 -14430 0 0 -3608 14430 0zm-14430 -10822l0 -3608c7215,0 14430,0 21644,0l-3607 3608c-6012,0 -12025,0 -18037,0zm21644 3607c0,3608 0,7215 0,10823l-3607 0 0 -7215 0 0 -18037 0 0 -3608c7215,0 14430,0 21644,0z"/>
   </g>
   <path class="fil2" d="M16818 7043l-4 0 -4 0 -5 0 -2 0 -6 0 -2 0 -6 -1 -1 0c-152,-3 -308,-32 -458,-79 -161,-51 -296,-171 -399,-349 -68,97 -148,173 -240,230 -93,58 -191,101 -300,131 -106,28 -220,50 -333,55 -112,5 -235,13 -341,13l-6260 0c-326,0 -614,-27 -837,-72 -222,-45 -405,-127 -539,-234 -134,-107 -231,-244 -287,-413 -56,-168 -84,-374 -84,-616l0 -1394 1095 0 0 1245c0,112 15,201 44,266 29,64 80,117 152,154 72,38 172,64 295,75 124,11 281,17 474,17l5769 0c193,0 330,-33 403,-89 71,-56 112,-192 112,-398l0 -1900 1088 0 0 1806c0,202 47,360 132,446 83,84 260,132 524,135l5 0 2 0 3 0 6 0 4 0 8 0 8 0 1142 0c26,-6 55,-9 85,-9l1335 0 0 -2378 1104 0 0 3359 -2428 0 -5 0 -6 0 -8 0 -8 0 -1217 0 -5 0 -5 0zm29256 705c-216,0 -390,169 -390,386 0,217 173,391 390,391 218,0 388,-173 388,-391 0,-217 -170,-386 -388,-386zm-1511 -705l1935 0 0 -2824 -601 0 0 2215 -1258 0c-431,0 -524,-154 -524,-566l0 -4062 -601 0 0 4223c0,291 59,602 290,801 207,174 497,213 759,213zm-33489 997c-390,-391 -1018,-90 -1018,420 0,327 271,598 598,598 508,0 812,-626 420,-1018zm692 1223c-390,-389 -1021,-91 -1021,421 0,327 274,597 601,597 510,0 810,-627 420,-1018zm685 -1223c-390,-390 -1022,-93 -1022,420 0,329 274,598 602,598 509,0 812,-627 420,-1018zm33443 25186l594 0 0 2045c0,364 -21,668 -62,917 -43,247 -121,446 -239,597 -117,152 -280,262 -487,329 -208,69 -476,103 -806,103l0 -609c238,0 426,-26 561,-77 135,-51 236,-135 302,-250 68,-113 106,-261 119,-440 12,-179 18,-395 18,-648l0 -1967zm-1556 -2780l0 5238 -601 0 0 -5238 601 0zm-6675 4629l1747 0c180,0 332,-32 452,-96 121,-62 181,-186 181,-367 0,-127 -60,-271 -181,-435 -120,-164 -280,-330 -478,-500 -198,-169 -426,-336 -682,-499 -257,-164 -519,-312 -787,-443 5,-60 20,-119 43,-181 25,-61 52,-117 81,-168 29,-52 60,-97 92,-136 30,-39 57,-66 78,-81l2684 -1182 0 595 -2157 953c341,200 632,396 872,587 239,190 435,375 584,551 149,177 258,347 326,512 68,163 102,317 102,463 0,103 -16,216 -46,339 -32,123 -91,236 -180,338 -88,103 -213,189 -374,257 -161,67 -370,102 -625,102l-1731 0 -7 0 -3 0 -6 0 -3 0 -15 -1 -3 0c-178,-4 -323,-49 -435,-135 -118,-92 -196,-204 -236,-341 -44,102 -104,184 -184,245 -78,62 -162,110 -251,144 -88,34 -173,58 -255,69 -83,12 -154,19 -214,19 -162,0 -299,-15 -409,-46 -108,-29 -200,-67 -274,-112 -72,-45 -129,-97 -171,-154 -42,-58 -74,-113 -99,-165 -88,200 -223,330 -406,389 -183,58 -402,88 -657,88 -173,0 -316,-14 -431,-42 -114,-27 -208,-64 -281,-109 -72,-45 -131,-98 -175,-158 -44,-59 -81,-118 -110,-176 -43,103 -98,185 -164,246 -67,61 -153,110 -258,147 -105,38 -235,62 -389,73 -154,12 -339,19 -554,19l-230 0 -9 0 -4 0 -9 0 -5973 0c-284,0 -521,-20 -709,-59 -188,-41 -342,-102 -455,-187 -115,-85 -197,-195 -246,-329 -49,-136 -73,-301 -73,-497l0 -1135 601 0 0 917c0,150 19,271 57,362 36,90 98,160 186,206 86,47 206,77 358,91 151,14 346,22 582,22l2543 0c-55,-103 -101,-217 -139,-341 -38,-124 -58,-267 -58,-430 0,-190 32,-379 96,-566 62,-186 157,-351 279,-494 123,-143 273,-260 451,-351 178,-90 384,-137 618,-137 270,0 489,49 661,148 171,98 307,223 407,374 100,152 170,318 209,502 39,182 59,361 59,539l0 756 545 0 10 0 4 0 9 0 245 0c163,0 299,-5 410,-15 111,-10 200,-33 267,-70 66,-36 114,-90 143,-161 28,-70 43,-166 43,-289l0 -1314 602 0 0 1043c0,121 9,232 23,332 16,100 50,185 104,254 54,67 131,121 231,161 100,39 236,59 405,59 108,0 200,-5 280,-15 78,-10 144,-33 198,-70 54,-36 94,-90 120,-161 26,-70 40,-166 40,-289l0 -1314 602 0 0 1043c0,121 8,232 27,332 18,100 52,185 104,254 51,67 122,121 212,161 91,39 209,59 355,59 85,0 160,-5 228,-15 68,-10 126,-33 175,-70 50,-36 87,-90 116,-161 26,-70 40,-166 40,-289l0 -1680 601 0 0 1409c0,121 9,232 26,332 17,100 49,185 98,254 50,67 115,121 198,161 81,39 184,58 311,59l6 0 3 0 6 0zm-3694 -3450c0,-107 38,-199 115,-274 76,-76 168,-113 276,-113 107,0 199,37 273,113 76,75 114,167 114,274 0,108 -38,199 -114,275 -74,77 -166,115 -273,115 -108,0 -200,-38 -276,-115 -77,-76 -115,-167 -115,-275zm953 0c0,-107 39,-199 115,-274 77,-76 169,-113 276,-113 107,0 198,37 274,113 75,75 113,167 113,274 0,108 -38,199 -113,275 -76,77 -167,115 -274,115 -107,0 -199,-38 -276,-115 -76,-76 -115,-167 -115,-275zm-462 -878c0,-108 39,-199 114,-276 77,-76 169,-114 277,-114 108,0 198,38 274,114 75,77 112,168 112,276 0,108 -37,198 -112,274 -76,74 -166,112 -274,112 -108,0 -200,-38 -277,-112 -75,-76 -114,-166 -114,-274zm-5790 3460c0,299 87,518 263,659 176,139 391,209 647,209l702 0 0 -735c0,-116 -11,-235 -32,-355 -22,-118 -63,-226 -120,-322 -59,-95 -139,-173 -242,-234 -103,-62 -234,-92 -391,-92 -131,0 -249,23 -352,70 -102,46 -189,108 -261,187 -71,77 -125,170 -160,278 -37,106 -54,218 -54,335zm526 -2582c0,-107 39,-199 115,-274 77,-76 169,-113 276,-113 107,0 198,37 274,113 75,75 112,167 112,274 0,108 -37,199 -112,275 -76,77 -167,115 -274,115 -107,0 -199,-38 -276,-115 -76,-76 -115,-167 -115,-275zm-10785 3450l1740 0c181,0 332,-32 452,-96 121,-62 181,-186 181,-367 0,-127 -60,-271 -181,-435 -120,-164 -280,-330 -478,-500 -198,-169 -426,-336 -682,-499 -257,-164 -519,-312 -787,-443 5,-60 20,-119 43,-181 25,-61 52,-117 81,-168 29,-52 60,-97 92,-136 30,-39 57,-66 78,-81l2684 -1182 0 595 -2157 953c341,200 632,396 872,587 240,190 435,375 584,551 149,177 258,347 326,512 68,163 102,317 102,463 0,103 -16,216 -46,339 -32,123 -91,236 -180,338 -88,103 -213,189 -374,257 -161,67 -370,102 -625,102l-1725 0 -9 0 -4 0 -5 0 -4 0 -5 0 -4 -1 -5 0 -3 0 -6 0 -3 0c-173,-7 -314,-51 -423,-135 -118,-92 -196,-204 -238,-341 -88,200 -226,330 -413,389 -187,58 -418,88 -693,88l-589 0 -9 0 -4 0 -6 0 -3 0 -5 0 -4 -1 -5 0 -4 0 -5 0 -3 0c-173,-7 -314,-51 -423,-135 -118,-92 -196,-204 -238,-341 -88,200 -226,330 -413,389 -187,58 -418,88 -693,88l-592 0 -10 0 -9 0 -1067 0 -10 0 -9 0 -1067 0 -10 0 -9 0 0 0 -18 -1 -1 0c-188,-4 -347,-45 -477,-125 -137,-84 -274,-233 -412,-448 -55,132 -124,237 -210,316 -84,78 -180,136 -285,173 -105,37 -215,60 -333,70 -117,10 -233,15 -351,15l-1117 0 0 -609 1314 0c206,0 364,-26 473,-77 110,-52 164,-126 164,-224 0,-93 -24,-186 -73,-280 -49,-93 -109,-194 -181,-301l-780 -1149 566 -355 881 1461c97,163 183,302 256,420 72,117 143,211 209,285 68,72 131,127 192,165 58,34 117,52 180,55l3 0 3 0 6 0 9 0 1067 0 10 0 9 0 1068 0 9 0 9 0 481 0c118,0 218,-5 301,-15 84,-10 154,-33 210,-70 57,-36 98,-90 125,-161 29,-70 42,-166 42,-289l0 -1680 602 0 0 1409c0,121 8,232 25,332 16,100 49,185 98,254 49,67 115,121 197,161 79,37 178,57 299,59l6 0 1 0 5 0 3 0 4 0 9 0 477 0c118,0 218,-5 301,-15 85,-10 154,-33 211,-70 56,-36 98,-90 124,-161 29,-70 42,-166 42,-289l0 -1680 602 0 0 1409c0,121 8,232 25,332 16,100 49,185 98,254 49,67 115,121 197,161 79,37 178,57 300,59l5 0 1 0 5 0 3 0 4 0 9 0zm-1317 -3450c0,-107 39,-199 114,-274 78,-76 169,-113 277,-113 107,0 198,37 274,113 74,75 112,167 112,274 0,108 -38,199 -112,275 -76,77 -167,115 -274,115 -108,0 -199,-38 -277,-115 -75,-76 -114,-167 -114,-275zm-2924 5165c0,-108 37,-198 115,-274 76,-74 167,-112 275,-112 107,0 199,38 274,112 76,76 113,166 113,274 0,108 -37,200 -113,277 -75,75 -167,115 -274,115 -108,0 -199,-40 -275,-115 -78,-77 -115,-169 -115,-277zm952 0c0,-108 39,-198 115,-274 77,-74 169,-112 277,-112 106,0 198,38 273,112 75,76 113,166 113,274 0,108 -38,200 -113,277 -75,75 -167,115 -273,115 -108,0 -200,-40 -277,-115 -76,-77 -115,-169 -115,-277zm-7817 -2404l-594 0 0 -3926 594 0 0 3926zm-724 947c-2,-123 39,-225 122,-309 83,-83 186,-125 308,-125 123,0 224,42 309,125 83,84 125,186 125,309 0,121 -42,223 -125,308 -85,83 -186,124 -309,124 -122,0 -225,-41 -308,-124 -83,-85 -124,-187 -122,-308zm39907 -13645l0 5237 -602 0 0 -5237 602 0zm-2220 2779l594 0 0 2046c0,363 -21,668 -62,916 -43,247 -121,446 -239,598 -117,152 -280,262 -488,329 -207,68 -475,103 -806,103l0 -610c239,0 426,-25 562,-77 134,-51 236,-134 302,-249 67,-113 106,-261 118,-440 12,-180 19,-395 19,-648l0 -1968zm-91 -1600c0,-108 39,-200 115,-274 77,-76 169,-114 277,-114 107,0 198,38 273,114 75,74 113,166 113,274 0,107 -38,199 -113,275 -75,77 -166,115 -273,115 -108,0 -200,-38 -277,-115 -76,-76 -115,-168 -115,-275zm-6514 3449l1747 0c180,0 332,-32 452,-95 121,-63 181,-186 181,-367 0,-127 -60,-271 -181,-435 -120,-164 -280,-330 -478,-500 -198,-169 -426,-337 -682,-499 -257,-164 -519,-312 -787,-443 5,-60 20,-120 43,-181 25,-61 52,-117 81,-169 29,-51 60,-96 92,-135 30,-40 57,-66 78,-81l2684 -1183 0 596 -2157 952c341,201 632,397 872,588 239,190 435,375 584,551 149,177 258,347 326,511 68,164 102,318 102,463 0,103 -16,217 -46,339 -32,124 -91,236 -180,339 -88,103 -213,188 -374,257 -161,67 -370,101 -625,101l-1731 0 -7 0 -3 0 -6 0 -3 0 -15 0 -3 0c-178,-5 -323,-50 -435,-136 -118,-91 -196,-204 -236,-340 -44,102 -104,184 -184,245 -78,61 -162,109 -251,143 -88,35 -173,59 -255,70 -83,12 -154,18 -214,18 -162,0 -299,-15 -409,-45 -108,-29 -200,-67 -274,-113 -72,-45 -129,-96 -171,-153 -42,-58 -74,-113 -99,-165 -88,200 -223,329 -406,388 -183,59 -402,88 -657,88 -173,0 -316,-13 -431,-41 -114,-27 -208,-64 -281,-109 -72,-46 -131,-98 -175,-158 -44,-60 -81,-119 -110,-176 -43,103 -98,185 -164,246 -67,61 -153,110 -258,146 -105,39 -235,63 -389,74 -154,12 -339,18 -554,18l-230 0 -10 0 -3 0 -6 0 -3 0 -5 0 -4 0 -5 0 -4 0 -5 0 -4 -1c-172,-6 -313,-50 -423,-135 -116,-91 -195,-204 -236,-340 -43,102 -101,184 -173,245 -74,61 -165,109 -277,143 -111,35 -245,59 -401,70 -157,12 -340,18 -550,18l-2984 0c-284,0 -521,-19 -709,-59 -188,-40 -341,-101 -455,-187 -115,-84 -197,-194 -246,-329 -49,-135 -73,-300 -73,-496l0 -1136 602 0 0 917c0,151 18,272 56,362 36,91 99,160 186,207 86,46 207,77 358,90 151,15 346,22 582,22l2675 0c163,0 301,-5 412,-14 113,-10 202,-33 268,-70 65,-37 113,-91 144,-162 29,-69 44,-166 44,-288l0 -1680 602 0 0 1408c0,121 8,233 25,333 17,100 50,185 99,253 49,67 115,121 198,162 81,37 179,56 298,58l4 0 1 0 6 0 3 0 3 0 9 0 246 0c163,0 299,-5 410,-14 111,-10 200,-33 267,-70 66,-37 114,-91 143,-162 28,-69 43,-166 43,-288l0 -1315 602 0 0 1043c0,121 9,233 23,333 16,100 50,185 104,253 54,67 131,121 231,162 100,39 236,58 405,58 108,0 200,-5 280,-14 78,-10 144,-33 198,-70 54,-37 94,-91 120,-162 26,-69 40,-166 40,-288l0 -1315 602 0 0 1043c0,121 8,233 27,333 18,100 52,185 104,253 51,67 122,121 212,162 91,39 209,58 355,58 85,0 160,-5 228,-14 68,-10 126,-33 175,-70 50,-37 87,-91 116,-162 26,-69 40,-166 40,-288l0 -1680 601 0 0 1408c0,121 9,233 26,333 17,100 49,185 98,253 50,67 115,121 198,162 81,38 184,58 311,58l6 0 3 0 6 0zm-10184 1723c0,-107 38,-199 115,-274 75,-75 168,-112 275,-112 107,0 199,37 275,112 74,75 112,167 112,274 0,108 -38,200 -112,277 -76,75 -168,113 -275,113 -107,0 -200,-38 -275,-113 -77,-77 -115,-169 -115,-277zm-6576 -1114c-191,0 -369,-22 -533,-66 -163,-44 -305,-116 -426,-216 -120,-101 -216,-234 -286,-400 -71,-166 -106,-371 -106,-615 0,-196 31,-388 95,-576 63,-190 156,-357 277,-504 122,-147 274,-264 455,-352 182,-89 390,-133 624,-133 260,0 479,47 658,143 177,95 320,227 428,396 107,168 184,369 231,602 46,233 69,489 69,769l0 687c0,368 -49,668 -146,900 -98,231 -238,414 -419,549 -180,136 -402,227 -666,276 -263,49 -559,74 -887,74l-308 0 0 -610 226 0c234,0 448,-9 641,-29 195,-18 361,-62 500,-132 140,-69 248,-170 327,-300 77,-133 116,-310 116,-535l0 -139c-88,55 -203,103 -344,147 -142,42 -316,64 -526,64zm-764 -1364c0,278 75,478 224,597 149,120 349,180 597,180 186,0 349,-24 492,-74 143,-49 249,-102 321,-159l0 -273c0,-166 -13,-324 -39,-471 -27,-146 -71,-272 -135,-378 -63,-105 -147,-188 -249,-249 -103,-60 -228,-90 -376,-90 -150,0 -278,29 -384,88 -105,57 -190,130 -258,219 -66,88 -116,187 -146,294 -31,107 -47,213 -47,316zm-6425 755l1743 0c181,0 333,-32 452,-95 122,-63 181,-186 181,-367 0,-127 -59,-271 -181,-435 -119,-164 -280,-330 -478,-500 -197,-169 -425,-337 -682,-499 -257,-164 -518,-312 -786,-443 5,-60 20,-120 43,-181 24,-61 51,-117 80,-169 30,-51 60,-96 92,-135 31,-40 58,-66 78,-81l2684 -1183 0 596 -2157 952c342,201 633,397 872,588 240,190 435,375 585,551 149,177 258,347 325,511 69,164 103,318 103,463 0,103 -16,217 -47,339 -31,124 -90,236 -179,339 -88,103 -213,188 -375,257 -161,67 -369,101 -625,101l-1727 0 -10 0 -9 0 -182 0c-158,0 -301,-16 -429,-49 -130,-32 -238,-87 -330,-164 -91,-78 -161,-182 -213,-311 -51,-131 -77,-294 -77,-490l0 -4223 601 0 0 4062c0,206 33,351 97,437 65,86 207,129 427,129l105 0 10 0 9 0zm-2868 -1849l595 0 0 2046c0,363 -22,668 -63,916 -43,247 -121,446 -238,598 -118,152 -280,262 -488,329 -208,68 -476,103 -806,103l0 -610c239,0 426,-25 561,-77 135,-51 236,-134 302,-249 68,-113 106,-261 119,-440 12,-180 18,-395 18,-648l0 -1968zm-3291 1849l1134 0 0 -2214 602 0 0 2823 -1735 0 -10 0 -9 0 -181 0c-158,0 -302,-16 -430,-49 -130,-32 -238,-87 -330,-164 -91,-78 -161,-182 -213,-311 -51,-131 -77,-294 -77,-490l0 -4223 602 0 0 4062c0,206 33,351 96,437 65,86 207,129 427,129l105 0 10 0 9 0zm483 -3449c0,-108 37,-200 114,-274 77,-76 168,-114 276,-114 107,0 199,38 273,114 77,74 114,166 114,274 0,107 -37,199 -114,275 -74,77 -166,115 -273,115 -108,0 -199,-38 -276,-115 -77,-76 -114,-168 -114,-275zm952 0c0,-108 39,-200 115,-274 77,-76 169,-114 277,-114 106,0 198,38 273,114 75,74 113,166 113,274 0,107 -38,199 -113,275 -75,77 -167,115 -273,115 -108,0 -200,-38 -277,-115 -76,-76 -115,-168 -115,-275zm-7736 2055l595 0 0 1004c0,475 121,808 364,999 242,191 599,286 1073,286 243,0 453,-18 631,-55 176,-36 321,-101 436,-192 115,-90 199,-215 253,-374 54,-159 81,-359 81,-604l0 -1884 594 0 0 1891c0,646 -176,1109 -528,1395 -352,283 -846,426 -1482,426 -675,0 -1180,-150 -1515,-452 -334,-301 -502,-737 -502,-1311l0 -1129zm1650 -1102c0,-107 39,-199 115,-273 77,-76 169,-114 276,-114 108,0 198,38 274,114 75,74 113,166 113,273 0,108 -38,200 -113,276 -76,77 -166,114 -274,114 -107,0 -199,-37 -276,-114 -76,-76 -115,-168 -115,-276zm41392 -9711c0,-108 38,-200 115,-275 75,-75 167,-113 275,-113 108,0 199,38 274,113 76,75 114,167 114,275 0,107 -38,199 -114,274 -75,77 -166,116 -274,116 -108,0 -200,-39 -275,-116 -77,-75 -115,-167 -115,-274zm952 0c0,-108 40,-200 115,-275 77,-75 169,-113 277,-113 106,0 198,38 274,113 74,75 112,167 112,275 0,107 -38,199 -112,274 -76,77 -168,116 -274,116 -108,0 -200,-39 -277,-116 -75,-75 -115,-167 -115,-274zm-879 2582c0,298 88,517 264,658 175,139 390,209 646,209l703 0 0 -735c0,-116 -11,-235 -33,-355 -21,-118 -61,-226 -120,-321 -59,-96 -139,-174 -242,-235 -103,-61 -232,-92 -390,-92 -131,0 -248,24 -351,70 -103,46 -189,109 -261,187 -69,77 -123,170 -159,278 -38,106 -57,218 -57,336zm-1210 1476l-40 -2 -45 2c-190,0 -343,-46 -459,-136 -116,-92 -193,-204 -231,-341 -88,201 -230,330 -423,389 -194,59 -442,88 -745,88l-507 0 -9 0 -4 0 -5 0 -4 0 -4 0 -5 -1 -4 0 -5 0 -4 0c-171,-3 -321,-40 -450,-108 -138,-74 -247,-198 -332,-376l0 -13c-93,186 -228,332 -406,437 -178,105 -402,158 -671,158 -235,0 -469,-40 -701,-119 -233,-78 -473,-210 -721,-397 -65,97 -130,174 -196,231 -66,56 -136,97 -210,126 -74,26 -150,44 -228,51 -77,7 -160,11 -248,11l-303 0 -9 0 -4 0 -4 0 -5 0 -3 0 -6 -1 -1 0 -7 0 -7 0 -2 0c-144,-5 -267,-41 -366,-108 -107,-74 -187,-159 -239,-257 0,351 -21,648 -63,890 -43,243 -121,439 -238,589 -118,149 -279,256 -484,321 -206,66 -472,99 -803,99l0 -609c239,0 426,-25 561,-77 135,-51 235,-135 302,-249 68,-114 107,-262 119,-440 13,-180 17,-396 17,-648l0 -1968 596 0 0 1043c0,248 45,445 136,589 87,140 248,213 478,217l10 0 1 0 8 0 4 0 9 0 288 0c60,0 121,-8 185,-22 63,-13 127,-45 189,-94 64,-49 126,-118 188,-203 59,-86 118,-202 173,-348 111,-313 230,-566 355,-759 123,-193 251,-343 381,-447 130,-106 263,-175 398,-211 134,-34 268,-51 400,-51 181,0 351,35 510,105 158,71 295,171 410,301 114,131 205,285 271,462 65,179 97,378 97,600 0,33 -1,66 -3,99 -3,32 -4,63 -4,91 49,158 120,276 214,357 91,76 234,117 430,120l6 0 3 0 6 0 4 0 9 0 574 0c89,0 167,-5 235,-15 68,-9 126,-33 172,-70 47,-36 83,-90 109,-161 27,-69 41,-166 41,-289l0 -4093 601 0 0 3822c0,248 50,445 150,589 100,145 262,217 483,217l40 1 45 -1 835 0c-55,-103 -102,-217 -141,-340 -38,-125 -56,-268 -56,-431 0,-190 30,-379 94,-566 64,-185 156,-351 280,-494 122,-143 273,-260 451,-351 178,-90 386,-136 622,-136 270,0 490,48 661,147 170,98 306,223 406,375 100,151 170,318 208,501 38,182 57,362 57,539l0 1365 -3417 0zm-3724 -1298c0,-106 -14,-212 -46,-316 -31,-104 -77,-195 -139,-273 -63,-77 -137,-139 -224,-186 -88,-47 -190,-70 -307,-70 -205,0 -394,91 -566,273 -172,181 -333,499 -483,953 181,117 361,211 539,282 177,72 360,108 547,108 205,0 369,-59 494,-175 123,-118 185,-316 185,-596zm-7454 1298c-191,0 -368,-22 -532,-66 -164,-44 -305,-117 -426,-217 -121,-100 -216,-233 -287,-400 -70,-166 -105,-370 -105,-615 0,-195 31,-387 94,-575 64,-190 157,-358 278,-505 122,-146 274,-263 455,-351 182,-90 390,-134 623,-134 261,0 480,48 658,143 177,96 321,228 428,397 108,168 185,369 232,601 46,234 69,489 69,769l0 688c0,368 -49,667 -147,899 -98,232 -237,415 -418,549 -180,136 -402,228 -666,277 -263,49 -559,73 -887,73l-308 0 0 -609 226 0c234,0 448,-10 641,-29 194,-18 361,-62 500,-132 139,-70 248,-170 327,-301 77,-132 116,-309 116,-534l0 -140c-88,55 -203,104 -344,147 -142,43 -317,65 -527,65zm-763 -1365c0,279 75,478 224,598 149,120 348,180 597,180 185,0 349,-24 492,-75 142,-48 249,-101 321,-159l0 -272c0,-166 -13,-324 -39,-471 -27,-147 -71,-273 -135,-378 -63,-105 -147,-189 -249,-249 -103,-60 -228,-91 -376,-91 -150,0 -279,29 -384,88 -105,58 -190,131 -258,220 -66,88 -116,186 -147,294 -30,107 -46,212 -46,315zm-5713 756l1159 0c-48,-70 -94,-168 -139,-293 -46,-128 -69,-284 -69,-470 0,-253 60,-492 178,-715 118,-223 299,-380 542,-468 -97,0 -195,2 -293,4 -98,3 -198,6 -301,11l0 -548c532,-29 1010,-5 1435,73 424,78 781,218 1071,421 290,203 512,474 666,815 154,341 231,754 231,1241l0 538 -4479 0 -10 0 -9 0 -181 0c-158,0 -301,-16 -429,-49 -130,-32 -239,-87 -331,-164 -90,-78 -161,-182 -213,-312 -51,-130 -77,-293 -77,-489l0 -4223 602 0 0 4062c0,205 33,351 97,436 65,87 206,130 426,130l106 0 9 0 9 0zm2052 0c103,0 188,-26 258,-77 68,-52 123,-115 163,-190 39,-76 66,-158 80,-249 13,-91 21,-175 21,-255 0,-107 -10,-211 -28,-311 -20,-101 -51,-190 -95,-269 -45,-79 -101,-140 -170,-183 -70,-42 -154,-64 -251,-64 -172,0 -306,78 -400,234 -94,157 -141,360 -141,608 0,88 8,176 25,265 17,89 46,168 88,238 42,71 95,130 161,176 65,46 150,72 252,77l37 0zm1812 0c0,-524 -106,-927 -319,-1211 -213,-285 -501,-483 -867,-595 84,65 152,140 204,226 52,86 96,174 131,263 35,90 59,180 70,270 12,92 18,176 18,254 0,188 -17,346 -50,474 -33,130 -73,236 -119,319l932 0zm-10422 412c0,191 31,366 92,525 61,159 164,295 308,409 145,115 335,204 573,268 238,64 533,94 883,94 254,0 497,-18 729,-55 234,-37 439,-89 618,-158 179,-68 321,-151 426,-252 106,-100 158,-213 158,-341 0,-112 -37,-207 -111,-282 -74,-77 -214,-166 -420,-269 -145,-75 -281,-150 -405,-228 -126,-77 -234,-164 -324,-259 -89,-97 -161,-203 -216,-323 -55,-120 -82,-260 -82,-423 0,-186 33,-374 101,-563 66,-190 166,-362 300,-516 134,-154 301,-279 502,-375 201,-95 437,-143 713,-143 162,0 305,18 429,55 124,37 197,60 215,70l0 616c-98,-28 -204,-53 -318,-73 -115,-21 -229,-31 -341,-31 -162,0 -306,26 -429,77 -125,52 -228,119 -308,203 -82,84 -143,176 -184,279 -40,103 -61,206 -61,308 0,98 18,182 54,253 37,70 85,135 149,194 64,59 137,112 220,161 84,49 175,100 273,155 168,93 307,179 419,257 111,77 201,153 267,227 66,74 113,149 143,224 29,75 45,157 45,245 0,205 -46,403 -141,595 -93,191 -241,360 -447,507 -206,146 -471,265 -795,354 -325,91 -718,135 -1179,135 -460,0 -847,-44 -1160,-135 -313,-89 -565,-214 -755,-374 -189,-160 -326,-348 -409,-566 -84,-218 -126,-455 -126,-713l0 -1096 594 0 0 964zm-4881 -412l1135 0 0 -2215 601 0 0 2824 -1735 0 -10 0 -9 0 -181 0c-158,0 -301,-16 -430,-49 -129,-32 -238,-87 -330,-164 -90,-78 -161,-182 -213,-312 -51,-130 -77,-293 -77,-489l0 -4223 602 0 0 4062c0,205 33,351 96,436 66,87 207,130 427,130l106 0 9 0 9 0zm483 -3449c0,-108 38,-200 115,-275 76,-75 167,-113 275,-113 108,0 199,38 274,113 76,75 114,167 114,275 0,107 -38,199 -114,274 -75,77 -166,116 -274,116 -108,0 -199,-39 -275,-116 -77,-75 -115,-167 -115,-274zm952 0c0,-108 39,-200 115,-275 77,-75 169,-113 277,-113 106,0 198,38 273,113 75,75 113,167 113,275 0,107 -38,199 -113,274 -75,77 -167,116 -273,116 -108,0 -200,-39 -277,-116 -76,-75 -115,-167 -115,-274zm-4303 1600l595 0 0 2046c0,363 -21,667 -62,916 -43,247 -121,446 -239,598 -117,151 -280,261 -488,328 -208,69 -476,103 -806,103l0 -609c239,0 426,-25 561,-77 135,-51 236,-135 303,-249 67,-114 106,-262 118,-440 12,-180 18,-396 18,-648l0 -1968zm-90 -1600c0,-108 39,-200 115,-275 77,-75 169,-113 276,-113 108,0 199,38 274,113 75,75 113,167 113,275 0,107 -38,199 -113,274 -75,77 -166,116 -274,116 -107,0 -199,-39 -276,-116 -76,-75 -115,-167 -115,-274zm-2704 1726c-122,0 -234,28 -337,84 -103,57 -191,131 -264,224 -75,93 -133,201 -173,322 -40,122 -61,250 -61,388 0,130 22,244 65,342 43,96 102,174 179,236 77,61 165,104 265,130 100,26 206,40 319,40 102,0 204,-11 304,-32 101,-22 190,-61 269,-116 79,-57 142,-130 190,-221 48,-91 72,-207 72,-348 0,-163 -23,-307 -68,-433 -46,-127 -107,-237 -184,-330 -76,-93 -164,-164 -264,-213 -100,-49 -204,-73 -312,-73zm-1386 1078c0,-196 31,-393 95,-591 63,-198 156,-378 279,-540 123,-161 271,-291 444,-391 173,-102 370,-151 589,-151 192,0 369,37 532,113 164,75 308,185 434,329 125,144 224,320 293,525 71,205 107,441 107,706 0,162 -26,320 -77,472 -52,153 -135,290 -250,411 -115,120 -261,218 -440,294 -179,74 -393,112 -642,112 -205,0 -391,-26 -556,-77 -167,-51 -310,-130 -431,-238 -120,-106 -214,-241 -278,-403 -66,-161 -99,-351 -99,-571zm-513 -3983l0 5237 -602 0 0 -5237 602 0zm-5911 5040c0,191 31,366 92,525 61,159 164,295 308,409 145,115 335,204 573,268 238,64 533,94 884,94 253,0 496,-18 728,-55 234,-37 439,-89 618,-158 179,-68 322,-151 426,-252 106,-100 158,-213 158,-341 0,-112 -37,-207 -111,-282 -73,-77 -214,-166 -419,-269 -146,-75 -281,-150 -406,-228 -126,-77 -234,-164 -323,-259 -89,-97 -162,-203 -217,-323 -55,-120 -82,-260 -82,-423 0,-186 33,-374 101,-563 66,-190 166,-362 300,-516 134,-154 302,-279 502,-375 201,-95 438,-143 713,-143 162,0 306,18 429,55 125,37 197,60 215,70l0 616c-98,-28 -204,-53 -318,-73 -115,-21 -229,-31 -341,-31 -162,0 -305,26 -429,77 -125,52 -228,119 -308,203 -82,84 -143,176 -183,279 -41,103 -62,206 -62,308 0,98 18,182 54,253 37,70 86,135 149,194 64,59 137,112 220,161 85,49 175,100 273,155 168,93 307,179 419,257 111,77 201,153 267,227 66,74 113,149 143,224 29,75 45,157 45,245 0,205 -46,403 -141,595 -92,191 -241,360 -447,507 -205,146 -471,265 -795,354 -325,91 -718,135 -1178,135 -461,0 -848,-44 -1161,-135 -313,-89 -565,-214 -754,-374 -190,-160 -327,-348 -410,-566 -84,-218 -126,-455 -126,-713l0 -1096 594 0 0 964zm34323 -11899c124,0 232,-9 306,-9 76,0 148,-22 199,-49 51,-28 95,-77 111,-122 16,-46 35,-128 35,-225l0 -1610 1080 0 0 1434c0,165 56,330 147,426 89,95 250,155 458,155 163,0 302,-25 419,-75 117,-49 175,-159 175,-330l0 -1610 1095 0 0 1434c0,371 168,581 500,581l523 0 0 -2387 1095 0 0 3359 -1289 0c-284,0 -533,-43 -678,-106 -145,-62 -280,-180 -386,-332 -84,108 -183,198 -271,248 -88,50 -195,101 -297,131 -101,27 -207,50 -298,50 -93,0 -191,9 -283,9 -285,0 -533,-55 -721,-141 -186,-86 -334,-191 -417,-297 -150,198 -347,321 -590,367 -243,47 -568,71 -930,71l-318 0 -6 0 -5 0 -8 0 -8 0 -1221 0 -5 0 -5 0 -8 0 -9 0 -1217 0 -5 0 -6 0 -3 0 -1 0 -3 0 -3 0 -2 0 -2 0 -7 -1 -4 0 -3 0 -1 0 -4 0 -4 0 0 -1 -3 0 -4 0 -1 0 -4 0 -3 0 0 -1 -13 -1 -3 0 -1 0 -30 -4 0 0 -14 -2 -2 0 -2 -1 -4 0 -1 0 0 0 -5 -1 -2 -1 -3 0c-50,-8 -107,-21 -173,-40 -129,-33 -242,-106 -338,-219 -5,381 -50,700 -133,958 -84,256 -217,471 -380,622 -162,151 -389,277 -640,337 -253,61 -569,104 -931,110l0 -1030c231,-5 419,-38 550,-81 128,-42 244,-124 305,-214 60,-88 116,-223 130,-367 13,-143 28,-329 28,-537l0 -2513 1088 0 0 1434c0,207 67,371 200,454 128,81 263,123 406,127l5 0 1 0 5 0 2 0 3 0 4 0 8 0 9 0 1212 0 5 0 5 0 6 0 8 0 8 0 1215 0 5 0 6 0 5 0 8 0 8 0 330 0zm-7326 -3845c0,-162 59,-303 177,-422 119,-120 87,-180 252,-180 161,0 475,59 594,177 118,118 177,260 177,425 0,161 -59,302 -177,420 -119,118 -259,177 -421,177 -161,0 -302,-59 -422,-177 -120,-118 -180,-259 -180,-420zm79 3845l0 -2387 1105 0 0 3359 -2066 0 -6 0 -5 0 -8 0 -8 0 -480 0 -5 0 -5 0 -8 0 -9 0 -1221 0 -6 0 -5 0 -8 0 0 0 -7 0 -1 0 -7 0c-152,-2 -283,-10 -393,-26 -115,-15 -215,-40 -300,-76 -83,-33 -161,-77 -236,-132 -75,-53 -150,-115 -226,-187 -162,187 -338,304 -528,350 -190,47 -401,71 -614,71l-1467 0 0 -972 1669 0c134,0 235,-22 301,-62 66,-42 99,-92 99,-149 0,-64 -31,-143 -81,-228 -50,-86 -153,-239 -299,-447l-769 -1138 1004 -643 1014 1715c103,173 203,337 278,457 75,120 153,225 214,293 61,70 129,130 181,156 50,24 109,44 164,46l1 0 5 0 1 0 5 0 4 0 4 0 4 0 4 0 1217 0 5 0 5 0 6 0 8 0 8 0 474 0 6 0 5 0 5 0 8 0 8 0 956 0zm-9514 2389c0,-161 62,-306 177,-420 114,-114 259,-178 420,-178 162,0 303,60 421,178 118,118 177,259 177,420 0,162 -59,303 -177,421 -118,118 -259,177 -421,177 -161,0 -306,-63 -420,-177 -115,-114 -177,-259 -177,-421zm1372 0c0,-161 63,-306 177,-420 115,-114 261,-178 425,-178 162,0 306,64 421,178 114,114 177,259 177,420 0,162 -63,307 -177,421 -115,114 -259,177 -421,177 -161,0 -307,-63 -423,-177 -116,-114 -179,-259 -179,-421z"/>
   <polygon class="fil2" points="51962,2725 52215,2725 52215,37218 51962,37218 "/>
  </g>
 </g>
</svg>
