<?xml version="1.0" encoding="UTF-8"?>
<!DOCTYPE svg PUBLIC "-//W3C//DTD SVG 1.1//EN" "http://www.w3.org/Graphics/SVG/1.1/DTD/svg11.dtd">
<!-- Creator: CorelDRAW X7 -->
<svg xmlns="http://www.w3.org/2000/svg" xml:space="preserve" width="4.33004in" height="3.81031in" version="1.1" style="shape-rendering:geometricPrecision; text-rendering:geometricPrecision; image-rendering:optimizeQuality; fill-rule:evenodd; clip-rule:evenodd"
viewBox="0 0 43300 38103"
 xmlns:xlink="http://www.w3.org/1999/xlink">
 <defs>
  <style type="text/css">
   <![CDATA[
    .fil3 {fill:none}
    .fil2 {fill:#BB9B61}
    .fil0 {fill:#E1E7F3}
    .fil1 {fill:#F5F7FA}
   ]]>
  </style>
 </defs>
 <g id="Layer_x0020_1">
  <metadata id="CorelCorpID_0Corel-Layer"/>
  <g id="_2598443149232">
   <g>
    <path class="fil0" d="M31586 4988c6753,4967 5460,15344 909,22713 -9301,15061 -29476,1713 -30327,-7037 -817,-8402 17142,-24707 29418,-15676z"/>
    <path class="fil1" d="M34239 4854c12233,8998 6895,28946 -5492,30296 -16014,1747 -29930,-16946 -16210,-26363 6675,-4580 16085,-8065 21702,-3933z"/>
    <path class="fil2" d="M18458 13847l0 2456 562 0 0 -3058 -286 -276 -3058 0 0 553 2318 0c-29,29 -69,69 -98,108 -1687,1677 -2614,3916 -2614,6294 0,2377 927,4616 2614,6303 1677,1677 3916,2604 6293,2604 1224,0 2417,-246 3502,-710l0 -612c-1075,503 -2269,770 -3502,770 -2229,0 -4330,-868 -5908,-2447 -1569,-1578 -2437,-3679 -2437,-5908 0,-2230 868,-4331 2437,-5909 59,-50 118,-109 177,-168l0 0zm9446 16670l550 0 0 -330 -550 0 0 330zm880 0l1156 0 0 -330 -1156 0 0 330zm-880 -770l550 0 0 -331 -550 0 0 331zm880 0l716 0 0 -331 -716 0 0 331zm6636 -7705l1816 0 0 -330 -1816 0 0 330zm-1155 0l770 0 0 -330 -770 0 0 330zm1155 1871l551 0 0 -330 -551 0 0 330zm-1155 0l770 0 0 -330 -770 0 0 330zm1155 -935l3082 0 0 -331 -3082 0 0 331zm-1155 0l770 0 0 -331 -770 0 0 331zm-20812 -7264l-1761 0 0 330 1761 0 0 -330zm1156 0l-715 0 0 330 715 0 0 -330zm-1156 -1872l-495 0 0 331 495 0 0 -331zm1156 0l-715 0 0 331 715 0 0 -331zm-1156 936l-3026 0 0 330 3026 0 0 -330zm1156 0l-715 0 0 330 715 0 0 -330zm19514 1871l-551 0 0 330 551 0 0 -330zm1265 0l-550 0 0 330 550 0 0 -330zm-1045 330l0 606 330 0 0 -606 -330 0zm0 -935l0 495 330 0 0 -495 -330 0zm-15244 12932l0 495 330 0 0 -495 -330 0zm0 936l0 605 330 0 0 -605 -330 0zm1045 -331l-550 0 0 331 550 0 0 -331zm-1265 0l-495 0 0 331 495 0 0 -331zm-5669 -9025l-550 0 0 331 550 0 0 -331zm1266 0l-550 0 0 331 550 0 0 -331zm-1045 331l0 605 330 0 0 -605 -330 0zm0 -991l0 550 330 0 0 -550 -330 0zm15156 -9961l-551 0 0 330 551 0 0 -330zm1265 0l-550 0 0 330 550 0 0 -330zm-1045 330l0 606 330 0 0 -606 -330 0zm0 -935l0 495 330 0 0 -495 -330 0zm-3310 6981l389 129 1017 -1017 1781 1782 -1015 1016 131 389 1472 0 0 2621 -1472 0 -131 390 1015 1016 -1781 1781 -1016 -1015 -390 131 0 1472 -2621 0 0 -1472 -390 -131 -1015 1015 -1782 -1781 1017 -1017 -129 -389 -1470 0 0 -2621 1470 0 129 -388 -1017 -1017 1782 -1782 1017 1017 388 -129 0 -1470 2621 0 0 1470zm-557 -913l-1507 0 0 1315 -1096 364 -866 -866 -995 994 866 866 -363 1096 -1315 0 0 1508 1315 0 363 1096 -866 866 995 994 866 -866 1096 369 0 1315 1507 0 0 -1315 1096 -369 867 866 994 -994 -866 -866 369 -1096 1315 0 0 -1508 -1315 0 -369 -1096 866 -866 -994 -994 -867 866 -1096 -364 0 -1315zm-753 2913c889,0 1615,719 1615,1610 0,890 -725,1615 -1615,1615 -891,0 -1610,-726 -1610,-1615 0,-890 720,-1610 1610,-1610zm0 557c-583,0 -1054,470 -1054,1053 0,582 471,1058 1054,1058 582,0 1058,-476 1058,-1058 0,-583 -476,-1053 -1058,-1053zm6197 7458l2318 0 0 562 -3058 0 -276 -286 0 -3058 553 0 0 2456c59,-59 118,-109 177,-168 1579,-1578 2447,-3679 2447,-5909 0,-2229 -869,-4330 -2447,-5908 -1578,-1569 -3679,-2447 -5909,-2447 -1233,0 -2416,267 -3501,770l0 -612c1094,-464 2278,-710 3501,-710 2378,0 4617,927 6304,2614 1677,1677 2604,3916 2604,6293 0,2378 -927,4617 -2604,6304 -40,29 -69,69 -109,98l0 1z"/>
   </g>
   <rect class="fil3" width="43300" height="38103"/>
  </g>
 </g>
</svg>
