<?xml version="1.0" encoding="UTF-8"?>
<!DOCTYPE svg PUBLIC "-//W3C//DTD SVG 1.1//EN" "http://www.w3.org/Graphics/SVG/1.1/DTD/svg11.dtd">
<!-- Creator: CorelDRAW X7 -->
<svg xmlns="http://www.w3.org/2000/svg" xml:space="preserve" width="4.33004in" height="3.81031in" version="1.1" style="shape-rendering:geometricPrecision; text-rendering:geometricPrecision; image-rendering:optimizeQuality; fill-rule:evenodd; clip-rule:evenodd"
viewBox="0 0 43300 38103"
 xmlns:xlink="http://www.w3.org/1999/xlink">
 <defs>
  <style type="text/css">
   <![CDATA[
    .fil3 {fill:none}
    .fil2 {fill:#BB9B61}
    .fil0 {fill:#E1E7F3}
    .fil1 {fill:#F5F7FA}
   ]]>
  </style>
 </defs>
 <g id="Layer_x0020_1">
  <metadata id="CorelCorpID_0Corel-Layer"/>
  <g id="_2598287852016">
   <g>
    <path class="fil0" d="M6595 5610c-6752,4967 -5460,15344 -908,22713 9301,15061 29475,1714 30326,-7036 818,-8403 -17141,-24707 -29418,-15677z"/>
    <path class="fil1" d="M27715 4116c15191,3032 17971,21411 7154,28034 -13985,8562 -36372,-3236 -27846,-17909 4147,-7138 13717,-11517 20692,-10125z"/>
    <path class="fil2" d="M31424 19968l0 1933 -2584 0 -434 1312 1746 1746 -2624 2624 -1746 -1746 -1322 434 0 2585 -3897 0 0 -2585 -1312 -434 -1746 1746 -2624 -2624 1746 -1746 -434 -1312 -2584 0 0 -1933 0 0 0 -20c0,-2377 927,-4616 2604,-6293 1618,-1618 3749,-2535 6027,-2614l0 -1115 -1400 0 0 -562 3344 0 0 562 -1391 0 0 1115c2278,79 4399,996 6017,2614 1687,1677 2614,3916 2614,6293l0 20 0 0zm-19910 5191l-1761 0 0 330 1761 0 0 -330zm1155 0l-715 0 0 330 715 0 0 -330zm-1155 -1871l-496 0 0 330 496 0 0 -330zm1155 0l-715 0 0 330 715 0 0 -330zm-1155 935l-3027 0 0 330 3027 0 0 -330zm1155 0l-715 0 0 330 715 0 0 -330zm1648 -11772l495 0 0 330 -495 0 0 -330zm-1266 0l495 0 0 330 -495 0 0 -330zm1046 330l0 606 -330 0 0 -606 330 0zm0 -990l0 550 -330 0 0 -550 330 0zm-1369 8433l-550 0 0 -330 550 0 0 330zm-880 0l-1156 0 0 -330 1156 0 0 330zm880 -715l-550 0 0 -330 550 0 0 330zm-880 0l-715 0 0 -330 715 0 0 330zm21671 -4311l1761 0 0 330 -1761 0 0 -330zm-1155 0l715 0 0 330 -715 0 0 -330zm1155 -1871l496 0 0 330 -496 0 0 -330zm-1155 0l715 0 0 330 -715 0 0 -330zm1155 936l3027 0 0 330 -3027 0 0 -330zm-1155 0l715 0 0 330 -715 0 0 -330zm-2941 -3876l495 0 0 330 -495 0 0 -330zm-1266 0l496 0 0 330 -496 0 0 -330zm1046 330l0 606 -330 0 0 -606 330 0zm0 -990l0 550 -330 0 0 -550 330 0zm-1376 19041l495 0 0 330 -495 0 0 -330zm-1266 0l551 0 0 330 -551 0 0 -330zm1046 330l0 605 -330 0 0 -605 330 0zm0 -935l0 495 -330 0 0 -495 330 0zm5888 -8420l551 0 0 330 -551 0 0 -330zm-1265 0l550 0 0 330 -550 0 0 -330zm1045 330l0 605 -330 0 0 -605 330 0zm0 -991l0 551 -330 0 0 -551 330 0zm-18335 8403l550 0 0 331 -550 0 0 -331zm-1266 0l550 0 0 331 -550 0 0 -331zm1101 330l0 606 -331 0 0 -606 331 0zm0 -935l0 495 -331 0 0 -495 331 0zm8018 -14725l-553 0 0 1115 553 0 0 -1115zm-3137 2013l-552 -967 -484 276 553 967 483 -276zm-2654 2239l-957 -562 -286 483 967 562 276 -483 0 0zm8928 -3206l-553 957 474 286 562 -967 -483 -276 0 0zm3058 2644l-967 562 276 483 967 -562 -276 -483zm-6748 3827l0 -5287 553 0 0 5287 1085 0 562 0 1539 0 4883 0c-69,-2131 -927,-4113 -2437,-5633 -1578,-1568 -3679,-2446 -5908,-2446 -2230,0 -4331,878 -5909,2446 -1509,1520 -2368,3502 -2437,5633l5110 0 1302 0 572 0 1085 0zm8622 552l-6422 0c-128,947 -947,1677 -1923,1677 -987,0 -1796,-730 -1934,-1677l-6422 0 0 1115 2427 0 681 2022 -1598 1598 1834 1835 1598 -1598 2023 681 0 2426 2781 0 0 -2426 2023 -681 1598 1598 1835 -1835 -1599 -1598 671 -2022 2427 0 0 -1115 0 0zm-9717 0l2733 0c-128,642 -691,1115 -1361,1115 -671,0 -1233,-473 -1371,-1115l-1 0z"/>
   </g>
   <rect class="fil3" width="43300" height="38103"/>
  </g>
 </g>
</svg>
