<?xml version="1.0" encoding="UTF-8"?>
<!DOCTYPE svg PUBLIC "-//W3C//DTD SVG 1.1//EN" "http://www.w3.org/Graphics/SVG/1.1/DTD/svg11.dtd">
<!-- Creator: CorelDRAW X7 -->
<svg xmlns="http://www.w3.org/2000/svg" xml:space="preserve" width="27.1654in" height="8.80984in" version="1.1" style="shape-rendering:geometricPrecision; text-rendering:geometricPrecision; image-rendering:optimizeQuality; fill-rule:evenodd; clip-rule:evenodd"
viewBox="0 0 271654 88098"
 xmlns:xlink="http://www.w3.org/1999/xlink">
 <defs>
  <style type="text/css">
   <![CDATA[
    .fil23 {fill:#C7A76C}
    .fil4 {fill:#E0C698}
    .fil1 {fill:#E6D2AE}
    .fil0 {fill:#EDDFC4}
    .fil2 {fill:#F6EFE2}
    .fil20 {fill:white}
    .fil9 {fill:#657AA9;fill-rule:nonzero}
    .fil11 {fill:#6C698B;fill-rule:nonzero}
    .fil15 {fill:#6C87C3;fill-rule:nonzero}
    .fil5 {fill:#8480BC;fill-rule:nonzero}
    .fil17 {fill:#9DAFD7;fill-rule:nonzero}
    .fil6 {fill:#9F9CCB;fill-rule:nonzero}
    .fil7 {fill:#9FAED1;fill-rule:nonzero}
    .fil14 {fill:#A4DBDD;fill-rule:nonzero}
    .fil16 {fill:#BAC4DE;fill-rule:nonzero}
    .fil8 {fill:#BB9B61;fill-rule:nonzero}
    .fil13 {fill:#C4CFE9;fill-rule:nonzero}
    .fil22 {fill:#C7A76C;fill-rule:nonzero}
    .fil10 {fill:#D7B77D;fill-rule:nonzero}
    .fil19 {fill:#DBBE8A;fill-rule:nonzero}
    .fil3 {fill:#E0C698;fill-rule:nonzero}
    .fil18 {fill:#EDDFC4;fill-rule:nonzero}
    .fil12 {fill:#F0F0F1;fill-rule:nonzero}
    .fil21 {fill:white;fill-rule:nonzero}
   ]]>
  </style>
 </defs>
 <g id="Layer_x0020_1">
  <metadata id="CorelCorpID_0Corel-Layer"/>
  <g id="_1503031234544">
   <circle class="fil0" cx="202497" cy="23932" r="8003"/>
   <rect class="fil1" x="206822" y="49446" width="4547" height="14177"/>
   <rect class="fil0" x="197687" y="43535" width="9135" height="17016"/>
   <path class="fil2" d="M194373 63623l77281 0 0 -63595c-18950,-196 -41566,623 -68412,3043 -2983,269 -5937,538 -8869,804l0 59748z"/>
   <path class="fil3" d="M202133 65592l-202093 0 0 -60434c73061,10682 129738,4548 202093,-1986l0 62420z"/>
   <path class="fil1" d="M195522 75601l-10441 1535 -844 6395 4865 3772c31285,-687 60575,-1402 82552,-240l-1 -12951c-16022,-4508 -59162,-3633 -76131,1489z"/>
   <path class="fil4" d="M189102 87303l6420 -11702c-508,-2448 -2016,-5104 -2399,-5073 -7403,602 -17283,-275 -24534,263 -52272,3876 -103098,581 -168585,3017l-4 3910c30628,5713 67119,8952 104745,10014 27207,769 56569,181 84357,-429z"/>
   <path class="fil5" d="M245220 29712c-2951,7801 -7074,14430 -12166,19765 -4123,4284 -8892,7679 -14187,10145 -8650,4042 -15804,4163 -16693,4163 -40,0 -40,0 -81,0l41 -2748 40 -2749c40,0 6669,0 14631,-3759 10590,-5012 18431,-14025 23282,-26757l2586 970 2547 970 0 0z"/>
   <path class="fil6" d="M242673 28742c-12489,32658 -40540,32295 -40540,32295l41 -2749c40,0 6669,0 14631,-3759 10590,-5012 18431,-14025 23281,-26757l2587 970 0 0z"/>
   <polygon class="fil5" points="244290,23892 238712,28338 245866,30844 "/>
   <polygon class="fil6" points="238712,28338 242795,28136 244290,23892 "/>
   <path class="fil7" d="M221130 58854c162,-121 1496,647 1617,647 121,0 242,-1779 242,-1779 0,0 -242,-80 -161,-242 121,-121 970,-526 970,-526 0,0 -202,566 -647,809 0,0 364,1818 41,2182 -324,324 -3193,-364 -2062,-1091l0 0z"/>
   <path class="fil8" d="M221898 58531c-162,202 -566,242 -566,242l81 647c0,0 364,-283 849,-243l-364 -646z"/>
   <path class="fil9" d="M218584 60835c0,0 3274,-485 3435,-243 162,283 -848,2789 -848,2789l687 242 -1132 0 323 -2061c0,0 -2142,970 -2667,243 -485,-768 202,-970 202,-970z"/>
   <path class="fil7" d="M218988 61400l0 0c81,122 1576,1819 1455,2143 -162,323 -3638,-243 -3638,-243l364 323c-1374,0 -889,-849 -889,-849l2385 81c0,0 -566,-363 -1173,-889 0,0 -646,-687 41,-1455 202,-242 525,-485 1051,-727 2142,-1011 2667,-1334 2991,-930 323,404 -890,2223 -2587,2546l0 0z"/>
   <path class="fil10" d="M222262 57844c364,-162 808,-81 930,242 202,445 -203,647 -81,768 40,40 161,162 161,162l-202 40 -81 162c0,0 -323,-202 -404,0 -40,242 283,161 283,161 0,0 0,324 -161,324 -162,-41 -1496,-1294 -445,-1860l0 1z"/>
   <path class="fil11" d="M222464 58652l81 -41c0,0 40,-121 161,-161 122,-81 203,-202 162,-364l404 121c0,0 162,0 202,-161 0,0 -242,0 -283,-162 -80,-162 -687,-445 -1010,-40 0,0 -445,40 -323,687l202 161 81 0c0,0 -81,-161 121,-242 161,-81 202,202 202,202l0 0z"/>
   <path class="fil12" d="M221251 58692l283 -161c0,0 202,404 202,768l-363 323c0,0 0,-606 -121,-930l-1 0z"/>
   <path class="fil10" d="M221373 58288l242 -121c0,0 485,-445 566,-445l81 41c0,0 40,-121 162,-81l-566 768 -364 81c0,0 -404,-41 -121,-243z"/>
   <path class="fil13" d="M221858 58450c0,0 -364,2789 -768,2748 -1051,-40 -687,-2465 -162,-2425 566,41 -40,1455 -40,1455l646 -1697 324 -81 0 0z"/>
   <path class="fil14" d="M220888 60228c0,0 -202,243 -162,526 0,0 -242,-1011 404,-1132 0,0 -161,526 -242,606l0 0z"/>
   <path class="fil15" d="M220443 63543c-162,323 -3638,-243 -3638,-243l364 323c-1374,0 -889,-848 -889,-848l2385 80c0,0 -566,-363 -1173,-889 0,0 -646,-687 41,-1455 0,0 444,728 1455,889l0 0c81,122 1576,1819 1455,2143l0 0z"/>
   <path class="fil8" d="M230629 53317c0,0 -485,283 -445,768l-647 0c0,0 202,-405 162,-647 0,0 808,-162 930,-121z"/>
   <path class="fil13" d="M228729 54246c0,0 -930,1738 -1051,1657 -81,-80 81,-1374 81,-1374l-364 243c0,0 -566,1778 162,1940 727,162 970,-768 1374,-1132l-202 -1334 0 0z"/>
   <path class="fil7" d="M228729 54246c444,-363 1940,-606 2263,-363 202,161 -929,3758 -929,3758 0,0 -1657,526 -1738,41 -122,-445 81,-3153 404,-3436z"/>
   <path class="fil15" d="M230063 57641c0,0 1455,2911 1576,3355 81,445 -808,2466 -808,2466l444 161 -1091 0c0,0 687,-1980 525,-2465 -202,-526 -1212,-2142 -1535,-2102 -364,40 -647,0 -809,202 -161,243 -1414,1940 -1414,2142 0,202 283,2223 283,2223l-1051 0 566 -283c0,0 -445,-1778 -445,-2344 -40,-525 2021,-3314 2021,-3314l1738 -41 0 0z"/>
   <path class="fil13" d="M229295 54004l161 121 283 -283 202 283 485 -323c0,0 -525,-283 -1131,202z"/>
   <path class="fil10" d="M227395 54772c0,0 -283,0 -202,-202 81,-162 364,-243 364,-243 0,0 404,-364 485,-323 121,40 40,81 -41,161 -40,81 -161,203 -242,364 -81,121 -364,243 -364,243l0 0z"/>
   <path class="fil10" d="M230790 52427c485,364 81,1011 -646,1173 -768,161 -647,-445 -566,-647 80,-162 525,-1051 1212,-526l0 0z"/>
   <path class="fil8" d="M230750 53195c0,0 202,41 202,122 -40,80 -445,242 -485,121 -40,-121 283,-243 283,-243l0 0z"/>
   <path class="fil11" d="M230588 52751c0,0 -81,202 41,323 0,0 -81,243 -162,243l0 81c0,0 283,-203 364,-162 0,0 202,-162 242,-404l0 161c0,0 81,-121 -40,-242 0,0 121,-324 -41,-445l0 121c0,0 -404,-404 -727,-363 -324,81 -566,646 -566,646l202 -242c0,0 404,202 606,121 0,0 -80,41 -161,41 0,0 121,80 202,0 0,0 -41,121 -41,202l81 -81 0 0z"/>
   <path class="fil13" d="M230831 53842c0,0 1212,-808 1212,-1212 0,-364 -606,-1253 -606,-1253l202 -203c0,0 768,849 849,1536 40,728 -1657,2304 -1657,2304 0,0 -81,-808 0,-1172l0 0z"/>
   <path class="fil10" d="M231477 51417c0,0 -323,40 -242,-121 40,-202 283,-324 283,-324 0,0 363,-404 444,-404 122,41 41,81 0,162 -40,121 -121,242 -202,404 -40,162 -283,283 -283,283l0 0z"/>
   <path class="fil7" d="M235762 52185c0,0 -1334,-849 -1496,-1293 -161,-405 -808,-1415 -808,-1415 0,0 283,-485 202,-647 0,0 -687,566 -647,687 81,122 202,122 202,122 0,0 405,1253 728,1657 323,404 1617,1738 1617,1738l202 -849 0 0z"/>
   <path class="fil8" d="M236004 51781c-121,242 41,606 41,606l-607 202c0,0 81,-444 -161,-849l727 41z"/>
   <path class="fil10" d="M236408 51174c41,-404 -283,-767 -606,-727 -444,40 -485,445 -647,404 0,0 -202,-40 -202,-40l41 161 -81 162c0,0 283,202 162,323l-162 -242c0,0 -243,242 -162,404 81,121 1657,727 1657,-445l0 0z"/>
   <path class="fil11" d="M235640 51336l0 -81c0,0 81,-80 81,-242 0,-121 81,-243 202,-283l-283 -283c0,0 162,-81 324,-81 323,41 727,445 687,808 0,283 -41,445 -647,647l-202 -121 -40 -81c0,0 121,0 161,-161 0,-203 -283,-122 -283,-122l0 0z"/>
   <path class="fil15" d="M236974 63623c0,0 -768,162 -1253,81 0,0 566,-323 607,-364 -122,41 -1092,-2586 -1132,-2950 -162,-647 -162,-1294 -121,-1940 0,-526 40,-1051 40,-1617l0 0 0 0c485,-40 930,-202 1172,-404 41,283 41,566 41,808 0,1172 -364,2910 -364,2910 0,0 242,2021 1010,3476l0 0z"/>
   <path class="fil7" d="M236328 55459c-41,121 -41,242 -41,364 0,40 0,40 0,80 0,162 81,324 81,445 -243,243 -768,445 -1253,485 -40,0 -121,-40 -81,-121 0,-162 81,-324 81,-485 0,-202 -40,-404 -40,-606 -41,-283 -81,-566 -81,-809 0,-525 81,-1010 161,-1495 243,-1132 930,-1092 930,-1092 445,526 566,1011 243,3234l0 0z"/>
   <path class="fil14" d="M236125 52225l-80 -202 -647 283 40 647c0,0 203,-647 687,-728z"/>
   <path class="fil10" d="M232730 50083c0,0 -283,81 -242,-81 40,-202 242,-363 242,-363 0,0 324,-445 404,-445 122,0 41,81 0,162 0,121 -80,242 -121,404 -40,161 -283,323 -283,323z"/>
   <path class="fil13" d="M232973 49841l1374 1576c0,0 2102,930 1819,1415 -404,646 -2223,-970 -2223,-970 -647,-728 -1253,-1698 -1253,-1698l283 -323 0 0z"/>
   <path class="fil7" d="M240410 53155c0,0 -930,1778 -566,2061 323,283 1859,-1212 1859,-1212 0,0 -444,-1051 -1293,-849l0 0z"/>
   <path class="fil9" d="M240208 46163c0,0 -889,3718 -889,4122 40,404 1535,3112 1535,3112l-525 485 1253 -323c0,0 -1293,-3355 -1253,-3678 40,-323 1051,-3234 1051,-3234l-1294 -525 122 40 0 1z"/>
   <path class="fil8" d="M241137 52670c122,243 485,445 485,445l-323 565c0,0 -243,-404 -687,-525l525 -485z"/>
   <path class="fil7" d="M241784 59905c41,364 930,3314 930,3314l-930 485 1455 0 -525 -3597c0,0 525,-1091 970,-1859 0,0 566,-566 606,-1294 0,-202 -162,-364 -323,-606 -81,-162 -202,-323 -324,-485 -363,-768 -1091,-3072 -2304,-2789 -485,162 445,2385 1496,3961 40,41 40,41 81,81l0 0c-122,81 -1172,2465 -1132,2789l0 0z"/>
   <path class="fil10" d="M240531 51902c-364,-40 -768,202 -808,525 0,485 404,566 364,728 0,0 -81,202 -81,202l161 -40 162 121c0,0 243,-323 364,-121 121,202 -202,242 -202,242 0,0 121,324 242,243 162,-81 1011,-1698 -202,-1900l0 0z"/>
   <path class="fil11" d="M240652 52710l-121 0c0,0 -40,-80 -202,-121 -162,0 -283,-81 -283,-242l-323 242c0,0 -162,41 -243,-81 0,0 202,-80 243,-242 0,-202 444,-647 889,-404 0,0 444,-81 566,566l-162 202 -81 40c0,0 41,-162 -161,-202 -202,0 -121,243 -121,243l-1 -1z"/>
   <path class="fil12" d="M241703 53034l-202 -243c0,0 -323,324 -445,687l203 405c0,0 242,-566 444,-849l0 0z"/>
   <path class="fil15" d="M242714 63219l-930 485 1455 0 -525 -3597c0,0 525,-1091 970,-1859 0,0 566,-566 606,-1294 0,-202 -162,-364 -323,-606 -283,202 -688,525 -1132,687 40,40 40,40 81,81l0 0c-122,81 -1172,2465 -1132,2789 40,364 930,3314 930,3314l0 0z"/>
   <path class="fil13" d="M240935 53680c0,0 -525,1860 -121,1981 970,283 1536,-2102 1011,-2223 -566,-162 -485,1374 -485,1374l0 -1010 -405 -122 0 0z"/>
   <path class="fil16" d="M241339 54812c0,0 122,243 -40,526 0,0 606,-890 40,-1213 0,0 -40,566 0,687z"/>
   <path class="fil15" d="M241461 45435c0,0 364,647 364,1657 -41,970 -485,2749 -485,2749l606 3314 -849 525 243 -727c0,0 -1011,-3112 -930,-3759 404,-2304 -202,-2951 -202,-2951l1253 -808 0 0z"/>
   <path class="fil8" d="M240854 41232c0,0 -363,404 -161,848l-606 243c0,0 40,-445 -41,-687 0,0 687,-404 808,-404l0 0z"/>
   <path class="fil17" d="M239359 42727c0,0 -687,2021 -768,2021 -404,-81 -1253,-162 -1253,-162l-283 283c0,0 606,324 1334,404 768,81 889,-889 1253,-1253l-283 -1293z"/>
   <path class="fil7" d="M239359 42727c323,-526 1657,-1213 2061,-1051 243,81 283,3840 283,3840 0,0 -1374,1010 -1617,606 -282,-404 -929,-3072 -727,-3395z"/>
   <path class="fil14" d="M239844 42323l162 81 202 -405 283 243 323 -485c0,0 -566,-81 -970,566l0 0z"/>
   <path class="fil10" d="M237379 44788c0,0 40,-283 -122,-242 -202,40 -323,283 -323,283 0,0 -404,363 -404,485 0,81 81,0 161,-41 81,-40 243,-121 405,-161 121,-81 283,-324 283,-324z"/>
   <path class="fil10" d="M240733 40342c606,162 404,930 -242,1334 -647,364 -768,-242 -728,-444 0,-203 162,-1173 970,-890z"/>
   <path class="fil8" d="M240935 41070c0,0 202,0 243,81 0,40 -324,323 -404,242 -81,-81 161,-323 161,-323z"/>
   <path class="fil14" d="M241259 41636c0,0 848,-1132 727,-1496 -81,-364 -970,-1010 -970,-1010l121 -283c0,0 1011,566 1294,1253 283,647 -809,2708 -809,2708 0,0 -363,-768 -363,-1172l0 0z"/>
   <path class="fil10" d="M241056 39170c0,0 -242,121 -282,-40 0,-202 202,-404 202,-404 0,0 202,-485 283,-526 121,0 40,41 40,162 0,121 -40,283 -40,444 0,122 -203,364 -203,364l0 0z"/>
   <path class="fil11" d="M240329 40464c81,0 0,404 121,444 121,41 243,81 243,81l0 364c0,0 242,-283 404,-283 0,0 121,-485 -162,-647 0,0 41,-283 -242,-323 -283,-41 -930,121 -930,566l81 202c0,0 121,-364 242,-324 122,0 243,-80 243,-80z"/>
   <path class="fil10" d="M240935 53680c0,0 -40,-525 121,-606 122,-121 162,-161 283,-121 122,40 162,364 162,364l202 0c0,0 41,161 -121,161 -202,0 -323,324 -323,324 0,0 -122,81 -324,-122z"/>
   <path class="fil18" d="M271653 63623l0 10489c-28241,-2099 -53316,-368 -77280,1582l0 -12071 77280 0z"/>
   <path class="fil19" d="M245583 70535c283,-162 485,-566 -363,-1536 -1334,-1536 -8246,-5376 -8246,-5376l-1253 0 5619 3921 727 1091c-2021,-970 -4446,-1899 -7397,-2708l-2788 -1334 -607 -970 -1091 0 606 566 -2344 0 -1213 -566 -1050 0 1616 566 122 283c-2224,-364 -4649,-647 -7276,-849l-18552 0 0 0 -202053 0 -40 11196 4 4 0 -1015c70237,11397 120146,7526 172419,3650 7625,-566 15302,-1226 23099,-1857l4842 -8825c365,-16 30156,-1235 38830,6425 3228,-48 6492,-59 9796,-26 -755,-736 -1857,-1659 -3407,-2640l0 0zm7655 2705l-9999 -9617 -1212 0 5901 5457 2899 4117c802,12 1605,26 2411,43z"/>
   <g>
    <path class="fil1" d="M215451 27750c2872,0 5200,2329 5200,5201 0,2872 -2328,5200 -5200,5200 -2872,0 -5200,-2328 -5200,-5200 0,-2872 2328,-5201 5200,-5201z"/>
    <path class="fil20" d="M213006 32946l0 2950 970 0 0 -2950 -970 0zm3921 2950l970 0c0,-1980 0,-3920 0,-5901l-970 0c0,1657 0,4285 0,5901zm-1981 -4890l0 4890 1011 0 0 -4890 -1011 0z"/>
   </g>
   <path class="fil21" d="M202133 21750l-1495 0 0 -404 1495 0 0 404zm0 1616l-768 0 0 -404 768 0 0 404zm0 1617l-1495 0 0 -364 1495 0 0 364zm0 1617l-768 0 0 -364 768 0 0 364zm0 1617l-1495 0 0 -364 1495 0 0 364zm0 1616l-768 0 0 -363 768 0 0 363zm0 1617l-1495 0 0 -364 1495 0 0 364zm0 1617l-768 0 0 -364 768 0 0 364zm0 1657l-1495 0 0 -404 1495 0 0 404zm0 1617l-768 0 0 -404 768 0 0 404zm0 1617l-1495 0 0 -364 1495 0 0 364zm0 1616l-768 0 0 -363 768 0 0 363zm0 1617l-1495 0 0 -364 1495 0 0 364zm0 1617l-768 0 0 -364 768 0 0 364zm0 1617l-1495 0 0 -364 1495 0 0 364zm0 1616l-768 0 0 -363 768 0 0 363zm0 1658l-1495 0 0 -405 1495 0 0 405zm0 1616l-768 0 0 -364 768 0 0 364zm0 1617l-1495 0 0 -364 1495 0 0 364zm0 1617l-768 0 0 -364 768 0 0 364zm0 1616l-1495 0 0 -363 1495 0 0 363zm0 1617l-768 0 0 -364 768 0 0 364zm0 1617l-1495 0 0 -364 1495 0 0 364zm0 1617l-768 0 0 -364 768 0 0 364zm0 1657l-1495 0 0 -404 1495 0 0 404zm0 1617l-768 0 0 -364 768 0 0 364zm-3452 -40540l0 -1609 328 0 0 1335 814 0 0 274 -1142 0zm-184 0l-354 0 -140 -370 -651 0 -135 370 -347 0 630 -1623 347 0 650 1623zm-601 -644l-225 -600 -219 600 444 0zm-2691 -158c0,-165 25,-304 74,-417 37,-82 87,-157 151,-222 64,-66 134,-115 210,-147 101,-43 218,-64 350,-64 239,0 430,74 574,223 144,148 216,355 216,620 0,262 -72,468 -214,616 -143,148 -333,222 -572,222 -241,0 -433,-73 -576,-221 -142,-147 -213,-351 -213,-610zm337 -11c0,184 43,324 128,419 85,95 193,142 324,142 131,0 238,-47 322,-141 84,-94 126,-236 126,-424 0,-186 -41,-325 -123,-417 -81,-92 -190,-137 -325,-137 -136,0 -245,46 -328,139 -82,93 -124,232 -124,419zm-1277 217l0 -274 704 0 0 647c-68,67 -167,125 -298,176 -130,51 -261,76 -395,76 -170,0 -317,-35 -444,-107 -125,-71 -220,-173 -284,-306 -63,-133 -95,-277 -95,-433 0,-169 36,-320 106,-452 71,-131 175,-232 311,-302 104,-54 234,-81 389,-81 201,0 358,42 472,127 113,85 185,201 218,351l-326 61c-23,-80 -66,-143 -129,-189 -63,-46 -141,-69 -236,-69 -143,0 -256,45 -341,136 -84,91 -126,226 -126,405 0,193 43,337 128,434 86,96 197,144 336,144 68,0 137,-13 206,-40 69,-27 128,-60 177,-98l0 -206 -373 0z"/>
   <path class="fil22" d="M188784 58264c-1051,0 -1900,-404 -2547,-1253 -566,-768 -849,-1697 -849,-2789 0,-808 203,-1576 607,-2263 444,-728 1010,-1253 1778,-1617l768 1536c-970,485 -1415,1293 -1415,2385 0,606 122,1131 405,1576 282,485 727,728 1253,728l3920 0c526,0 970,-243 1253,-728 283,-444 404,-970 445,-1576 0,-1132 -485,-1900 -1455,-2385l727 -1536c768,364 1374,889 1819,1657 404,687 606,1455 606,2264 0,1091 -283,1980 -848,2748 -607,849 -1456,1253 -2547,1253l-3921 0 1 0zm7194 -19239l0 2102 -4042 3152 0 1253 4042 0 0 1738 -10468 0 0 -4082c0,-1091 242,-1940 727,-2587 566,-687 1415,-1051 2506,-1091 1819,0 2870,930 3112,2789l4123 -3274 0 0zm-5537 4163c0,-1293 -566,-1940 -1698,-1940 -1051,0 -1576,647 -1536,1940l0 2344 3234 0 0 -2344zm5537 -8771l0 1698 -10468 0 0 -1940 6790 -2870 -6790 -2951 0 -1899 10468 0 0 1697 -4810 0 -2829 -323 0 162 2466 889 3718 1738 0 1334 -3718 1738 -2506 848 0 162 2869 -283 4810 0 0 0z"/>
   <path class="fil23" d="M153526 23112c9579,0 17299,7720 17299,17259 0,9579 -7720,17299 -17299,17299 -9539,0 -17258,-7720 -17258,-17299 0,-9539 7719,-17259 17258,-17259zm3274 22190l0 3233 -13055 0 0 -3233 13055 0zm-13055 -9822l0 -3233c6548,0 13055,0 19603,0l-3274 3233c-5456,0 -10873,0 -16329,0zm19603 3274c0,3274 0,6548 0,9781l-3274 0 0 -6507 -16329 0 0 -3274c6548,0 13055,0 19603,0z"/>
   <path class="fil22" d="M55313 37461l-3718 0 0 1940 3436 0 0 1212 -3436 0 0 1940 3718 0 0 1213 -4931 0 0 -7518 4931 0 0 1213 0 0zm6791 40l-3719 0 0 2102 3274 0 0 1212 -3274 0 0 2951 -1212 0 0 -7518 4931 0 0 1253 0 0zm6548 0l-3719 0 0 2102 3274 0 0 1212 -3274 0 0 2951 -1213 0 0 -7518 4932 0 0 1253 0 0zm1576 -1253l1213 0 0 7518 -1213 0 0 -7518zm3233 2344c0,-768 324,-1334 890,-1819 565,-404 1253,-606 2021,-606 565,0 1091,162 1616,445 526,323 890,727 1172,1293l-1091 526c-364,-687 -970,-1011 -1738,-1011 -444,0 -808,81 -1132,283 -323,243 -525,526 -525,889l0 2830c0,363 202,687 525,889 324,202 688,283 1132,283 808,0 1374,-324 1738,-1011l1091 526c-283,566 -687,970 -1212,1293 -485,283 -1011,445 -1617,445 -768,0 -1415,-202 -1980,-606 -566,-445 -890,-1051 -890,-1819l0 -2830 0 0zm7154 -2344l1253 0 0 7518 -1253 0 0 -7518zm8529 1213l-3759 0 0 1940 3435 0 0 1212 -3435 0 0 1940 3759 0 0 1213 -4972 0 0 -7518 4972 0 0 1213 0 0zm3072 2101l0 4204 -1253 0 0 -7518 1293 0 2627 4446 768 1495 81 -40 -202 -1617 0 -4284 1253 0 0 7518 -1455 0 -2547 -4365 -687 -1415 -80 0 202 1576 0 0zm6467 -970c0,-768 283,-1334 889,-1819 566,-404 1212,-606 2021,-606 566,0 1091,162 1576,445 526,323 930,727 1213,1293l-1132 526c-364,-687 -930,-1011 -1698,-1011 -444,0 -808,81 -1131,283 -364,243 -526,526 -526,889l0 2830c0,363 162,687 526,889 323,202 687,283 1131,283 809,0 1375,-324 1698,-1011l1132 526c-283,566 -687,970 -1213,1293 -485,283 -1010,445 -1617,445 -768,0 -1414,-202 -1980,-606 -606,-445 -889,-1051 -889,-1819l0 -2830 0 0zm10225 2264l0 2910 -1212 0 0 -2910 -2627 -4608 1414 0 1819 3436 1819 -3436 1415 0 -2628 4608 0 0z"/>
   <path class="fil22" d="M54586 52941l444 -768 1051 526 -687 1131 1334 1536 -1536 0 -485 -525c-566,646 -1253,970 -2021,970 -647,0 -1212,-202 -1657,-607 -445,-404 -647,-929 -647,-1576 0,-768 445,-1455 1334,-1980 -444,-566 -647,-1011 -647,-1456 0,-565 203,-1010 607,-1333 363,-283 808,-445 1333,-445 485,0 930,162 1254,445 363,323 565,727 565,1212 0,728 -444,1334 -1253,1819l1011 1051zm-2183 -526c-606,405 -929,809 -929,1213 0,323 121,566 363,808 243,162 566,283 890,283 444,0 848,-242 1253,-687l-1577 -1617zm607 -2950c-243,0 -405,81 -526,202 -162,121 -242,283 -242,485 0,283 161,606 525,970 606,-323 889,-647 889,-1010 0,-203 -40,-364 -202,-485 -121,-122 -283,-162 -444,-162l0 0zm9255 6305l-1212 0 0 -7518 2910 0c808,0 1455,243 1981,768 404,445 646,1011 646,1698 0,647 -242,1212 -646,1697 -485,485 -1132,728 -1981,728l-1698 0 0 2627zm1698 -3759c445,0 768,-121 1051,-404 242,-242 323,-525 323,-889 0,-323 -121,-606 -323,-849 -283,-283 -606,-404 -1051,-404l-1698 0 0 2546 1698 0zm10226 3759l-1496 0 -2263 -2910 -889 0 0 2910 -1253 0 0 -7518 2910 0c808,0 1415,162 1859,526 485,404 768,1010 768,1778 0,1334 -647,2062 -1980,2264l2344 2950 0 0zm-2991 -4001c930,0 1415,-404 1415,-1213 0,-727 -485,-1091 -1415,-1091l-1657 0 0 2304 1657 0zm4244 -1253c0,-768 323,-1374 970,-1860 566,-404 1253,-606 2061,-606 849,0 1536,202 2102,606 647,485 970,1092 970,1860l0 2950c0,768 -323,1375 -970,1860 -566,404 -1253,606 -2102,606 -808,0 -1495,-202 -2061,-606 -647,-445 -970,-1092 -970,-1860l0 -2950zm1212 2950c0,405 203,687 566,930 364,202 768,323 1253,323 526,0 930,-121 1253,-323 405,-243 566,-525 566,-930l0 -2950c0,-404 -161,-728 -566,-930 -323,-202 -727,-323 -1253,-323 -485,40 -889,121 -1253,323 -363,202 -566,526 -566,930l0 2950zm8125 2304l-1213 0 0 -7518 1374 0 2062 4851 2101 -4851 1375 0 0 7518 -1213 0 0 -3476 243 -2021 -122 0 -646 1779 -1213 2667 -970 0 -1253 -2667 -606 -1819 -122 0 203 2061 0 3476 0 0zm7800 -5254c0,-768 324,-1374 930,-1860 566,-404 1253,-606 2102,-606 808,0 1536,202 2102,606 606,485 929,1092 929,1860l0 2950c0,768 -323,1375 -929,1860 -607,404 -1294,606 -2102,606 -849,0 -1536,-202 -2102,-606 -606,-445 -930,-1092 -930,-1860l0 -2950zm1213 2950c0,405 202,687 566,930 323,202 768,323 1253,323 485,0 889,-121 1253,-323 364,-243 566,-525 566,-930l0 -2950c0,-404 -202,-728 -566,-930 -324,-202 -768,-323 -1253,-323 -485,40 -930,121 -1253,323 -364,202 -566,526 -566,930l0 2950zm12004 -5254l0 1253 -2304 0 0 6305 -1212 0 0 -6305 -2264 0 0 -1253 5780 0 0 0zm1415 40l1213 0 0 7518 -1213 0 0 -7518zm3355 2264c0,-768 323,-1374 970,-1860 566,-404 1253,-606 2061,-606 849,0 1536,202 2102,606 647,485 970,1092 970,1860l0 2950c0,768 -323,1375 -970,1860 -566,404 -1253,606 -2102,606 -808,0 -1495,-202 -2061,-606 -647,-445 -970,-1092 -970,-1860l0 -2950zm1212 2950c0,405 202,687 566,930 364,202 768,323 1253,323 526,0 930,-121 1253,-323 404,-243 566,-525 566,-930l0 -2950c0,-404 -162,-728 -566,-930 -323,-202 -727,-323 -1253,-323 -485,40 -889,121 -1253,323 -364,202 -566,526 -566,930l0 2950zm8165 -1899l0 4203 -1253 0 0 -7518 1293 0 2627 4406 768 1495 81 0 -202 -1616 0 -4285 1253 0 0 7518 -1455 0 -2546 -4365 -688 -1455 -80 40 202 1577 0 0z"/>
   <path class="fil22" d="M50382 24284l1213 0 0 7518 -1213 0 0 -7518zm4770 3314l0 4204 -1213 0 0 -7518 1294 0 2586 4406 809 1495 40 0 -162 -1617 0 -4284 1213 0 0 7518 -1415 0 -2546 -4365 -727 -1455 -81 40 202 1576 0 0zm11883 -3354l0 1253 -2264 0 0 6305 -1253 0 0 -6305 -2263 0 0 -1253 5780 0 0 0zm6426 1253l-3718 0 0 1899 3395 0 0 1253 -3395 0 0 1900 3718 0 0 1253 -4971 0 0 -7558 4971 0 0 1253 0 0zm1577 1051c0,-728 323,-1334 929,-1779 526,-404 1172,-606 1981,-606 1293,0 2182,525 2708,1617l-1091 525c-324,-606 -849,-930 -1658,-930 -444,0 -808,81 -1131,283 -324,243 -526,526 -526,890l0 2869c0,404 202,687 526,930 323,202 687,283 1172,283 444,0 849,-81 1132,-283 363,-243 525,-526 525,-930l0 -566 -2102 0 0 -1172 3355 0 0 1738c0,809 -323,1415 -930,1860 -525,404 -1212,606 -1980,606 -808,0 -1455,-202 -1981,-606 -606,-445 -929,-1051 -929,-1860l0 -2869 0 0zm13863 5254l-1495 0 -2223 -2910 -930 0 0 2910 -1212 0 0 -7518 2910 0c768,0 1414,162 1859,526 485,404 728,970 768,1778 0,1334 -647,2061 -1981,2263l2304 2951 0 0zm-2950 -4001c929,0 1414,-405 1414,-1213 0,-728 -485,-1091 -1414,-1091l-1698 0 0 2304 1698 0zm6507 -3517l1294 0 2708 7518 -1294 0 -727 -1981 -2708 0c-81,243 -202,566 -324,970l-363 1011 -1294 0 2708 -7518zm930 2425l-243 -1212 -121 0 -283 1212 -606 1900 1859 0 -606 -1900zm8771 -2465l0 1253 -2304 0 0 6305 -1213 0 0 -6305 -2263 0 0 -1253 5780 0 0 0zm1414 40l1213 0 0 7518 -1213 0 0 -7518zm3355 2223c0,-727 323,-1334 970,-1819 566,-404 1253,-606 2061,-606 849,0 1536,202 2102,606 647,485 970,1092 970,1819l0 2991c0,768 -323,1374 -970,1819 -566,444 -1253,647 -2102,647 -808,0 -1495,-203 -2061,-647 -647,-445 -970,-1051 -970,-1819l0 -2991zm1213 2991c0,404 202,687 565,930 364,202 768,283 1253,283 526,0 930,-81 1253,-283 405,-243 566,-526 566,-930l0 -2991c0,-404 -161,-687 -566,-930 -323,-161 -727,-282 -1253,-282 -485,40 -889,121 -1253,323 -363,202 -565,525 -565,889l0 2991zm8164 -1900l0 4204 -1253 0 0 -7518 1294 0 2627 4406 768 1495 80 0 -202 -1617 0 -4284 1253 0 0 7518 -1455 0 -2546 -4365 -687 -1455 -81 40 202 1576 0 0zm7760 -1333c-40,485 485,849 1577,1051 849,161 1455,363 1859,687 606,404 889,1010 808,1778 0,687 -323,1213 -889,1617 -525,323 -1172,485 -1899,485 -607,0 -1132,-121 -1617,-445 -566,-323 -930,-768 -1213,-1374l1132 -485c364,728 930,1091 1738,1091 404,0 727,-81 1010,-242 324,-162 485,-404 526,-728 0,-364 -162,-687 -485,-849 -243,-161 -687,-283 -1213,-363 -1697,-243 -2546,-1011 -2546,-2264 40,-647 323,-1172 889,-1536 485,-364 1091,-566 1778,-566 1334,0 2264,566 2708,1657l-1091 485c-323,-646 -849,-970 -1617,-970 -363,0 -687,81 -970,243 -323,162 -444,404 -485,727l0 1zm6387 4042l1333 0 -929 2788 -1172 0 768 -2788z"/>
   <path class="fil4" d="M250827 73197l5121 6859c-1324,-1291 -5201,-5368 -6958,-6881 -3268,-34 -6525,-23 -9796,26 3668,3376 4961,7940 5661,13247 8057,13 15623,134 22548,416l-14165 -13624 -2411 -43z"/>
  </g>
 </g>
</svg>
