<?xml version="1.0" encoding="UTF-8"?>
<!DOCTYPE svg PUBLIC "-//W3C//DTD SVG 1.1//EN" "http://www.w3.org/Graphics/SVG/1.1/DTD/svg11.dtd">
<!-- Creator: CorelDRAW X7 -->
<svg xmlns="http://www.w3.org/2000/svg" xml:space="preserve" width="11.3624in" height="5.26012in" version="1.1" style="shape-rendering:geometricPrecision; text-rendering:geometricPrecision; image-rendering:optimizeQuality; fill-rule:evenodd; clip-rule:evenodd"
viewBox="0 0 113624 52601"
 xmlns:xlink="http://www.w3.org/1999/xlink">
 <defs>
  <style type="text/css">
   <![CDATA[
    .fil2 {fill:black;fill-rule:nonzero}
    .fil0 {fill:#F3E0C2;fill-rule:nonzero}
    .fil1 {fill:#F6EFE2;fill-rule:nonzero}
   ]]>
  </style>
 </defs>
 <g id="Layer_x0020_1">
  <metadata id="CorelCorpID_0Corel-Layer"/>
  <g id="_1502834299600">
   <g>
    <path class="fil0" d="M9632 35365l0 -29494c0,-1236 1005,-2242 2242,-2242l78512 0 0 -1495 -78512 0c-2061,0 -3737,1677 -3737,3737l0 29494 1495 0zm13607 15102l78511 0c2061,0 3737,-1677 3737,-3737l0 -29494 -1495 0 0 29494c0,1236 -1005,2242 -2242,2242l-78511 0 0 1495z"/>
    <path class="fil1" d="M4188 39679c-1143,0 -2120,445 -2932,1336 -385,413 -691,914 -917,1506 -226,591 -339,1186 -339,1785 0,1262 412,2542 1237,3838 824,1296 1927,2396 3310,3300 1170,771 2087,1157 2752,1157 266,0 485,-80 658,-239 173,-160 259,-373 259,-638 0,-399 -252,-732 -758,-997 -1209,-626 -2094,-1244 -2652,-1855 -532,-571 -797,-990 -797,-1256 0,-253 199,-406 598,-459l259 -40 299 -20c864,-133 1566,-535 2104,-1206 538,-671 807,-1486 807,-2443 0,-984 -332,-1834 -997,-2553 -758,-810 -1721,-1216 -2891,-1216zm95696 -39679c1144,0 2121,446 2932,1336 385,413 691,915 917,1506 226,591 339,1186 339,1785 0,1263 -412,2542 -1236,3838 -825,1296 -1928,2397 -3311,3301 -1170,771 -2087,1156 -2752,1156 -266,0 -485,-79 -658,-239 -173,-160 -259,-373 -259,-638 0,-399 252,-731 758,-997 1209,-626 2094,-1244 2652,-1855 532,-571 798,-990 798,-1256 0,-253 -199,-406 -598,-459l-260 -40 -299 -20c-864,-133 -1565,-535 -2104,-1206 -538,-671 -807,-1486 -807,-2443 0,-983 332,-1834 997,-2552 758,-811 1721,-1217 2891,-1217zm9552 0c1144,0 2121,446 2932,1336 385,413 691,915 917,1506 226,591 339,1186 339,1785 0,1263 -412,2542 -1236,3838 -825,1296 -1928,2397 -3311,3301 -1170,771 -2087,1156 -2752,1156 -266,0 -485,-79 -658,-239 -173,-160 -259,-373 -259,-638 0,-399 252,-731 758,-997 1209,-626 2094,-1244 2652,-1855 532,-571 798,-990 798,-1256 0,-253 -199,-406 -599,-459l-259 -40 -299 -20c-864,-133 -1566,-535 -2103,-1206 -539,-671 -808,-1486 -808,-2443 0,-983 332,-1834 997,-2552 758,-811 1721,-1217 2891,-1217zm-95696 39679c-1143,0 -2120,445 -2932,1336 -385,413 -691,914 -917,1506 -226,591 -339,1186 -339,1785 0,1262 412,2542 1237,3838 824,1296 1927,2396 3310,3300 1170,771 2087,1157 2752,1157 266,0 485,-80 658,-239 173,-160 259,-373 259,-638 0,-399 -252,-732 -758,-997 -1209,-626 -2093,-1244 -2652,-1855 -532,-571 -797,-990 -797,-1256 0,-253 199,-406 598,-459l259 -40 299 -20c865,-133 1565,-535 2104,-1206 538,-671 807,-1486 807,-2443 0,-984 -332,-1834 -997,-2553 -758,-810 -1721,-1216 -2891,-1216z"/>
   </g>
   <g>
    <path class="fil2" d="M22456 16692l-2632 0c-167,0 -308,-11 -420,-34 -111,-24 -202,-60 -269,-111 -68,-50 -116,-114 -145,-194 -29,-80 -44,-178 -44,-293l0 -671 357 0 0 541c0,90 10,161 33,214 22,54 59,95 109,122 52,28 123,45 213,54 90,8 205,12 345,12l2097 0 0 -1307 356 0 0 1667zm26110 23510l0 -3094 -355 0 0 3094 355 0zm-15606 -360l279 0c69,0 129,-3 178,-9 50,-6 92,-21 125,-41 32,-21 58,-54 74,-95 15,-41 24,-99 24,-171l0 -992 357 0 0 831c0,71 5,139 14,197 9,59 30,110 58,150 28,39 69,72 117,95 49,23 111,35 188,35 116,0 174,57 174,173 0,72 -15,122 -41,147 -27,26 -72,40 -133,40 -113,0 -204,-28 -274,-81 -69,-54 -115,-121 -140,-202 -52,119 -135,196 -245,230 -111,34 -248,53 -410,53l-344 0 -12 0 -11 0 0 0c-115,-2 -210,-26 -288,-75 -81,-49 -162,-137 -244,-264 -33,77 -75,140 -125,186 -49,46 -106,81 -168,102 -62,22 -128,36 -197,42 -69,5 -140,9 -208,9l-661 0 0 -360 778 0c121,0 215,-16 280,-46 65,-30 96,-74 96,-132 0,-54 -14,-111 -43,-165 -28,-54 -64,-114 -106,-178l-462 -679 334 -209 522 863c59,95 108,179 152,248 43,69 85,125 124,168 39,42 78,75 113,97 32,20 66,30 103,33l3 0 8 0 11 0zm332 1012c0,-63 23,-117 68,-161 45,-43 99,-66 163,-66 64,0 118,22 162,66 45,45 67,98 67,161 0,64 -23,119 -67,164 -44,44 -98,68 -162,68 -64,0 -118,-24 -163,-68 -45,-45 -68,-100 -68,-164zm564 0c0,-63 23,-116 68,-161 46,-44 99,-66 164,-66 63,0 117,22 162,66 44,44 66,98 66,161 0,64 -22,119 -66,164 -45,45 -99,68 -162,68 -65,0 -118,-23 -164,-68 -45,-45 -68,-100 -68,-164zm516 -652c-113,0 -174,-58 -174,-174 0,-72 15,-122 41,-147 27,-26 72,-39 133,-39l691 0c-28,-42 -55,-99 -82,-173 -27,-76 -41,-168 -41,-277 0,-150 36,-291 105,-423 71,-131 177,-224 322,-276 -58,0 -116,1 -174,2 -58,1 -117,4 -178,6l0 -323c315,-18 598,-2 849,43 251,45 463,129 634,249 171,119 305,280 395,481 91,200 137,447 137,733l0 318 -2658 0zm1220 -360c60,0 112,-16 153,-46 40,-30 73,-68 96,-112 22,-44 40,-94 47,-147 8,-53 13,-103 13,-151 0,-63 -7,-124 -17,-183 -10,-59 -31,-113 -56,-159 -26,-46 -60,-83 -101,-108 -41,-25 -90,-38 -148,-38 -102,0 -182,47 -237,139 -55,92 -83,212 -83,359 0,51 5,104 14,156 11,52 28,99 53,140 24,42 57,77 95,104 38,27 88,43 149,46l22 0zm1072 0c0,-309 -62,-548 -189,-715 -125,-169 -297,-285 -513,-352 51,38 91,84 121,134 31,49 58,103 78,155 20,53 34,107 41,160 6,54 11,104 11,150 0,110 -11,203 -30,279 -19,77 -43,139 -70,189l551 0zm1241 -2734l0 3094 -356 0 0 -3094 356 0zm2141 3094c-12,176 -49,322 -111,437 -61,116 -147,209 -254,277 -108,70 -236,119 -384,147 -148,29 -316,44 -497,44l-182 0 0 -360 134 0c132,0 257,-7 371,-20 114,-12 213,-38 296,-77 82,-39 147,-95 195,-165 47,-70 72,-165 75,-283l-490 0c-118,0 -228,-14 -327,-40 -99,-26 -188,-68 -262,-128 -72,-58 -131,-136 -174,-231 -42,-96 -62,-214 -62,-355 0,-118 20,-235 58,-346 39,-113 97,-214 170,-300 74,-86 165,-157 270,-211 104,-53 225,-80 361,-80 150,0 277,27 382,80 104,54 190,130 255,228 64,97 112,217 141,355 28,139 43,295 43,465l0 203 306 0c115,0 173,57 173,173 0,72 -14,121 -41,147 -28,26 -73,40 -132,40l-314 0zm-1324 -789c0,145 42,254 127,324 85,70 210,105 376,105l464 0 0 -286c0,-217 -37,-390 -108,-513 -71,-126 -197,-189 -373,-189 -83,0 -156,18 -217,50 -59,32 -111,76 -150,130 -40,53 -69,113 -89,179 -20,66 -30,132 -30,200zm3376 429c0,-185 -25,-342 -73,-468 -48,-126 -115,-231 -200,-310 -83,-79 -183,-137 -296,-173 -112,-36 -231,-54 -355,-54 -84,0 -173,9 -267,24 -93,14 -171,31 -232,50l0 -347c59,-17 136,-37 230,-58 94,-21 200,-33 313,-33 221,0 411,38 569,112 157,74 289,177 389,306 101,128 176,279 225,450 46,171 70,354 70,543l0 318 -2114 0c-115,0 -173,-58 -173,-174 0,-72 13,-121 41,-147 27,-26 71,-39 132,-39l1741 0zm-1078 -2037c0,-64 24,-118 69,-163 45,-44 100,-66 164,-66 63,0 116,22 161,66 45,45 67,99 67,163 0,63 -22,118 -67,162 -45,46 -98,68 -161,68 -64,0 -119,-22 -164,-68 -45,-44 -69,-99 -69,-162zm2928 1264c0,122 37,221 115,295 76,76 199,114 366,114 63,0 132,-8 207,-21 73,-15 140,-34 198,-57l0 -770 -383 0c-136,0 -256,34 -355,104 -99,70 -148,182 -148,335zm451 777c-69,0 -150,-10 -241,-31 -90,-19 -178,-57 -260,-110 -83,-53 -154,-128 -212,-225 -57,-97 -86,-224 -86,-378 0,-157 27,-289 82,-393 55,-105 127,-191 213,-257 86,-67 184,-114 289,-143 105,-29 209,-43 315,-43l691 0 0 1241c0,120 19,208 56,258 37,51 121,77 252,77l103 0c116,0 174,57 174,173 0,72 -14,122 -41,147 -28,26 -73,40 -133,40l-146 0c-73,0 -148,-8 -215,-20 -69,-11 -130,-36 -184,-69 -53,-34 -100,-79 -137,-133 -36,-53 -61,-125 -73,-213 -63,23 -136,42 -215,57 -79,15 -157,22 -232,22zm2943 -4c0,-185 -24,-341 -73,-468 -48,-126 -115,-231 -199,-310 -83,-79 -183,-137 -296,-173 -113,-36 -231,-54 -356,-54 -84,0 -172,9 -266,24 -93,14 -172,31 -232,50l0 -347c58,-17 135,-37 229,-58 95,-21 200,-33 314,-33 220,0 410,38 568,112 157,74 289,177 390,306 101,128 176,279 224,450 47,171 71,354 71,543l0 318 -2115 0c-114,0 -173,-58 -173,-174 0,-72 14,-122 41,-147 27,-26 72,-39 132,-39l1741 0zm-833 1008c0,-63 22,-117 68,-161 44,-45 99,-66 163,-66 63,0 118,22 162,66 44,44 67,98 67,161 0,64 -23,119 -67,164 -44,44 -99,67 -162,67 -64,0 -119,-23 -163,-67 -46,-45 -68,-100 -68,-164zm4210 -648c-11,176 -48,321 -110,437 -62,116 -148,209 -255,277 -108,70 -235,119 -384,147 -149,30 -314,44 -497,44l-182 0 0 -360 134 0c133,0 257,-7 371,-20 114,-12 213,-37 296,-77 83,-40 147,-95 196,-165 46,-70 71,-165 74,-283l-490 0c-119,0 -228,-14 -327,-40 -100,-26 -187,-68 -261,-128 -74,-59 -132,-136 -175,-231 -41,-96 -62,-214 -62,-355 0,-118 19,-234 58,-346 40,-114 96,-213 170,-300 75,-86 164,-156 270,-211 105,-54 226,-80 361,-80 150,0 277,26 382,80 105,55 189,130 255,228 65,98 112,216 141,355 28,140 43,293 43,465l0 203 306 0c115,0 173,57 173,173 0,72 -13,121 -41,147 -28,26 -71,40 -132,40l-314 0zm-1324 -789c0,145 43,254 128,324 84,70 209,105 375,105l464 0 0 -286c0,-217 -36,-389 -107,-513 -73,-126 -197,-189 -374,-189 -83,0 -156,17 -217,50 -60,32 -111,76 -150,130 -40,53 -69,113 -89,179 -20,66 -30,132 -30,200zm1635 789c-115,0 -173,-58 -173,-174 0,-72 13,-121 41,-147 27,-26 71,-39 132,-39l178 0c36,0 72,-5 110,-13 37,-8 75,-27 112,-55 37,-30 74,-70 110,-121 36,-50 71,-119 103,-205 66,-185 137,-334 210,-448 73,-114 149,-202 226,-264 77,-62 156,-103 235,-125 80,-20 159,-30 237,-30 107,0 208,20 302,62 94,41 175,101 243,178 68,77 121,168 160,273 39,106 58,222 58,354 0,252 -59,449 -178,594 -119,144 -304,216 -556,216 -139,0 -276,-23 -414,-70 -138,-46 -280,-124 -427,-234 -38,58 -76,103 -116,136 -39,33 -80,58 -125,75 -43,16 -88,25 -134,29 -46,5 -95,8 -147,8l-187 0zm1924 -767c0,-62 -9,-125 -28,-187 -18,-61 -45,-115 -82,-161 -37,-46 -82,-83 -133,-110 -52,-27 -113,-41 -182,-41 -121,0 -233,54 -335,161 -101,107 -197,295 -286,563 108,69 213,124 319,167 106,42 213,63 324,63 121,0 219,-35 293,-103 73,-69 110,-186 110,-352zm-5828 -15266l619 0 10 0 11 0 142 0c97,0 177,-2 243,-9 66,-5 119,-19 159,-41 39,-22 67,-53 84,-95 17,-41 25,-98 25,-171l0 -776 356 0 0 616c0,72 6,138 14,197 10,59 30,109 61,149 33,40 78,72 138,95 59,24 139,35 239,35 64,0 119,-2 166,-9 46,-5 85,-19 117,-41 31,-22 56,-53 71,-95 16,-41 24,-98 24,-171l0 -776 356 0 0 616c0,72 5,138 16,197 11,59 31,109 62,149 30,40 72,72 126,95 53,24 124,35 210,35 50,0 95,-2 135,-9 40,-5 75,-19 103,-41 30,-22 52,-53 68,-95 16,-41 24,-98 24,-171l0 -992 357 0 0 832c0,72 4,138 14,197 11,59 30,109 59,149 29,40 67,72 117,95 48,24 110,35 187,35 116,0 174,58 174,174 0,71 -14,121 -41,146 -28,27 -72,40 -133,40 -112,0 -204,-28 -274,-81 -69,-54 -115,-120 -139,-201 -26,60 -62,109 -108,145 -47,37 -97,64 -149,84 -52,21 -103,36 -151,42 -49,7 -91,11 -127,11 -95,0 -177,-9 -242,-28 -64,-16 -119,-38 -162,-66 -42,-26 -77,-56 -101,-91 -26,-33 -44,-66 -59,-97 -52,118 -132,195 -240,229 -109,36 -238,53 -390,53 -102,0 -187,-8 -254,-25 -67,-16 -123,-37 -167,-64 -43,-27 -77,-58 -104,-93 -25,-35 -47,-70 -65,-105 -25,61 -58,110 -96,146 -40,36 -91,65 -153,87 -62,22 -139,37 -231,43 -90,7 -200,11 -327,11l-133 0 -12 0 -10 0 -619 0 -11 0 -2 0 -9 0 -2 0 -8 -1 -2 0c-103,-3 -187,-29 -250,-80 -70,-54 -117,-120 -140,-201 -26,60 -60,109 -103,145 -44,37 -98,64 -164,84 -66,21 -144,36 -237,42 -93,7 -202,11 -326,11l-1767 0c-167,0 -308,-12 -419,-35 -112,-24 -203,-60 -270,-110 -68,-50 -116,-115 -145,-195 -29,-80 -44,-178 -44,-293l0 -671 357 0 0 542c0,89 10,160 33,213 22,54 59,95 110,123 51,27 122,45 212,53 90,9 205,13 345,13l1584 0c96,0 177,-2 243,-9 67,-5 120,-19 159,-41 39,-22 67,-53 85,-95 17,-41 26,-98 26,-171l0 -992 356 0 0 832c0,72 5,138 15,197 10,59 30,109 59,149 29,40 68,72 117,95 47,22 105,34 173,35l1 0 6 0 5 0 2 0 11 0zm4315 360c-116,0 -173,-58 -173,-173 0,-73 13,-122 41,-148 27,-26 71,-39 132,-39l1037 0c108,0 197,-18 268,-56 73,-37 107,-110 107,-217 0,-75 -34,-160 -107,-257 -71,-97 -166,-195 -282,-295 -118,-100 -252,-199 -405,-295 -152,-96 -306,-184 -465,-261 3,-36 12,-71 25,-107 15,-36 31,-69 48,-100 18,-30 36,-57 55,-80 18,-23 33,-39 46,-48l1589 -698 0 352 -1277 562c201,119 374,234 516,347 142,113 257,221 346,326 88,104 153,205 193,301 40,98 60,188 60,274 0,61 -9,128 -27,200 -19,73 -53,140 -107,200 -52,61 -125,112 -221,152 -95,40 -218,60 -370,60l-1029 0zm-28608 7836c-112,0 -204,-27 -273,-81 -69,-53 -116,-120 -140,-201 -25,61 -60,109 -102,146 -44,36 -98,64 -164,84 -66,20 -145,35 -238,41 -92,7 -201,11 -325,11l-1767 0c-167,0 -308,-11 -420,-34 -111,-25 -202,-60 -269,-111 -68,-50 -116,-115 -145,-195 -29,-79 -44,-177 -44,-293l0 -671 357 0 0 542c0,89 10,160 33,213 22,54 59,95 109,123 52,27 123,45 213,54 90,8 205,12 345,12l1583 0c96,0 178,-2 244,-8 66,-6 119,-20 159,-41 38,-22 66,-54 84,-96 18,-41 27,-98 27,-171l0 -991 356 0 0 831c0,72 4,138 15,197 10,59 29,109 59,150 28,39 68,71 117,95 50,23 112,34 186,34 116,0 174,58 174,174 0,72 -14,121 -41,147 -28,26 -72,39 -133,39zm-2632 -2146c0,-63 23,-117 68,-161 46,-44 100,-67 163,-67 64,0 119,23 163,67 44,44 67,98 67,161 0,64 -23,119 -67,163 -44,46 -99,68 -163,68 -63,0 -117,-22 -163,-68 -45,-44 -68,-99 -68,-163zm564 0c0,-63 24,-117 68,-161 46,-44 100,-67 164,-67 63,0 117,23 162,67 44,44 67,98 67,161 0,64 -23,119 -67,163 -45,46 -99,68 -162,68 -64,0 -118,-22 -164,-68 -44,-44 -68,-99 -68,-163zm2067 2146c-116,0 -174,-57 -174,-173 0,-72 14,-122 41,-148 28,-25 72,-39 133,-39l631 0 11 0 10 0 622 0 11 0 10 0 622 0 10 0 11 0 621 0 11 0 11 0 620 0 12 0 10 0c1333,0 341,0 1673,0 97,0 178,-3 243,-8 65,-5 120,-21 159,-41 38,-21 67,-55 84,-96 16,-40 25,-98 25,-171l0 -775 357 0 0 615c0,71 5,138 13,197 10,59 31,109 62,150 32,39 78,72 137,95 58,23 140,34 240,34 63,0 119,-3 165,-8 46,-5 86,-21 118,-41 31,-21 55,-55 71,-96 15,-41 24,-98 24,-171l0 -775 355 0 0 615c0,71 6,138 16,197 11,59 32,110 62,150 30,38 73,72 126,95 53,23 124,34 210,34 50,0 95,-3 135,-8 39,-5 76,-21 104,-41 28,-21 52,-55 68,-96 15,-40 24,-98 24,-171l0 -991 356 0 0 831c0,71 5,138 15,197 10,59 30,110 58,150 29,38 68,72 117,95 48,23 111,34 188,34 115,0 173,58 173,174 0,72 -13,121 -41,147 -27,26 -71,39 -132,39 -113,0 -205,-28 -274,-81 -69,-53 -115,-120 -140,-201 -26,61 -62,110 -108,146 -45,36 -97,64 -149,84 -52,20 -103,35 -151,41 -49,7 -91,11 -127,11 -95,0 -176,-10 -241,-27 -63,-17 -120,-40 -162,-66 -43,-26 -78,-58 -102,-91 -25,-33 -44,-67 -59,-98 -52,119 -132,196 -240,230 -108,34 -238,52 -389,52 -102,0 -188,-8 -255,-25 -66,-15 -124,-38 -167,-64 -41,-26 -77,-58 -103,-92 -26,-36 -48,-71 -66,-105 -25,61 -57,109 -96,146 -40,35 -91,65 -153,86 -62,22 -140,37 -230,43 -90,7 -201,11 -328,11 -1330,0 -335,0 -1665,0l-10 0 -11 0 -621 0 -11 0 -10 0 -621 0 -12 0 -10 0 -621 0 -11 0 -11 0 -621 0 -11 0 -10 0 -632 0zm8430 0c-113,0 -174,-57 -174,-173 0,-72 14,-123 42,-148 26,-25 71,-39 132,-39l1725 0c159,0 274,-26 343,-76 69,-50 104,-118 104,-201 0,-77 -32,-164 -96,-262 -63,-97 -152,-196 -264,-295 -113,-100 -247,-198 -398,-295 -151,-96 -316,-182 -494,-260 3,-36 10,-72 20,-110 10,-36 21,-72 35,-103 13,-32 27,-58 41,-81 15,-21 27,-36 39,-41l1624 -698 0 360 -1277 563c307,156 551,322 732,498 180,176 302,353 362,530 36,101 70,182 101,242 32,59 66,108 102,143 36,35 76,58 118,69 42,11 91,17 144,17 116,0 174,58 174,174 0,72 -15,121 -41,147 -28,26 -72,39 -133,39 -61,0 -117,-4 -166,-11 -51,-6 -98,-21 -141,-45 -45,-23 -87,-57 -125,-101 -39,-44 -76,-105 -111,-182l-17 0c-55,137 -148,227 -277,271 -131,46 -291,68 -478,68l-1646 0zm3114 -360c96,0 1750,-3 1815,-8 66,-6 119,-20 159,-41 39,-22 67,-54 84,-96 17,-41 26,-98 26,-171l0 -780 356 0 0 620c0,72 5,138 14,197 10,59 30,109 61,150 32,39 77,71 135,95 58,23 137,34 237,34 64,0 120,-2 169,-8 47,-6 87,-20 119,-41 31,-22 56,-54 71,-96 16,-41 24,-98 24,-171l0 -775 356 0 0 615c0,72 5,138 16,197 11,59 29,109 57,150 28,39 66,71 114,95 50,23 112,34 187,34l366 0 0 -1307 354 0 0 1667 -720 0c-112,0 -202,-27 -272,-81 -68,-53 -114,-120 -136,-201 -53,119 -135,195 -244,230 -110,35 -243,52 -399,52 -102,0 -185,-8 -250,-25 -65,-16 -119,-37 -163,-64 -42,-26 -76,-58 -101,-92 -24,-36 -45,-71 -63,-105 -25,61 -58,109 -97,146 -40,35 -91,65 -153,86 -62,22 -139,37 -230,43 -91,7 -1774,11 -1901,11l-144 0c-115,0 -174,-57 -174,-173 0,-72 14,-122 42,-148 27,-25 71,-39 132,-39l153 0zm2905 -2036c0,-64 23,-118 69,-163 45,-44 99,-66 162,-66 64,0 119,22 163,66 44,45 67,99 67,163 0,63 -23,117 -67,161 -44,46 -99,69 -163,69 -63,0 -117,-23 -162,-69 -46,-44 -69,-98 -69,-161zm564 0c0,-64 24,-118 68,-163 46,-44 100,-66 165,-66 62,0 116,22 161,66 44,45 66,99 66,163 0,63 -22,117 -66,161 -45,46 -99,69 -161,69 -65,0 -119,-23 -165,-69 -44,-44 -68,-98 -68,-161zm-273 -519c0,-64 23,-117 67,-163 46,-45 101,-68 165,-68 63,0 117,23 161,68 44,46 67,99 67,163 0,63 -23,117 -67,162 -44,44 -98,66 -161,66 -64,0 -119,-22 -165,-66 -44,-45 -67,-99 -67,-162zm3960 2729c0,72 -13,121 -41,147 -27,26 -71,39 -132,39l-113 0c-93,0 -179,-9 -254,-29 -77,-19 -141,-52 -196,-97 -53,-46 -96,-107 -125,-184 -31,-77 -46,-173 -46,-289l0 -2494 356 0 0 2399c0,121 20,207 57,258 39,51 123,76 253,76l68 0c116,0 173,58 173,174zm-173 186c-115,0 -174,-57 -174,-173 0,-72 14,-122 41,-148 28,-25 72,-39 133,-39l1033 0 0 -1307 355 0 0 1667 -1388 0zm906 645c0,-63 22,-118 68,-162 45,-44 101,-66 163,-66 64,0 118,22 163,66 43,43 67,99 67,162 0,64 -23,118 -67,163 -45,45 -99,67 -163,67 -62,0 -118,-23 -163,-67 -45,-45 -68,-99 -68,-163zm2312 -645l-481 0 0 -438c0,-165 37,-308 111,-427 75,-120 197,-205 366,-252l0 216c-50,16 -92,43 -125,75 -32,33 -60,70 -81,109 -20,38 -34,80 -41,121 -7,41 -10,80 -7,116l258 0 0 480zm2573 0c-119,0 -218,-25 -299,-74 -80,-50 -162,-138 -243,-265 -33,78 -74,141 -125,187 -50,46 -106,81 -168,102 -62,22 -128,36 -197,42 -70,5 -139,8 -209,8l-661 0 0 -360 778 0c121,0 215,-14 280,-45 66,-30 97,-74 97,-132 0,-55 -14,-110 -43,-166 -29,-54 -64,-113 -107,-177l-462 -679 335 -209 522 863c58,96 108,178 152,247 42,70 84,125 123,169 40,42 78,75 114,97 36,22 73,32 113,32 116,0 174,58 174,174 0,72 -13,121 -41,147 -27,26 -71,39 -133,39zm0 0c-115,0 -173,-57 -173,-173 0,-72 13,-122 41,-148 27,-25 71,-39 132,-39l291 0c69,0 129,-2 178,-8 50,-6 91,-20 124,-41 33,-22 58,-54 74,-96 16,-41 25,-98 25,-171l0 -991 356 0 0 831c0,72 5,138 15,197 10,59 29,109 58,150 29,39 68,71 117,95 49,23 111,34 188,34 116,0 174,58 174,174 0,72 -15,121 -42,147 -27,26 -72,39 -132,39 -114,0 -204,-27 -274,-81 -69,-53 -116,-120 -140,-201 -53,119 -135,195 -245,230 -111,35 -248,52 -410,52l-357 0zm343 653c0,-63 23,-117 68,-161 46,-44 100,-67 164,-67 63,0 117,23 162,67 44,44 66,98 66,161 0,64 -22,118 -66,164 -45,45 -99,68 -162,68 -64,0 -118,-23 -164,-68 -45,-46 -68,-100 -68,-164zm565 0c0,-63 23,-117 67,-161 46,-44 100,-67 164,-67 63,0 117,23 162,67 44,44 66,98 66,161 0,64 -22,118 -66,164 -45,45 -99,68 -162,68 -64,0 -118,-23 -164,-68 -44,-46 -67,-100 -67,-164zm516 -653c-116,0 -174,-57 -174,-173 0,-72 14,-122 41,-148 27,-25 72,-39 133,-39l290 0c69,0 128,-2 178,-8 50,-6 91,-20 124,-41 34,-22 58,-54 74,-96 17,-41 25,-98 25,-171l0 -991 356 0 0 831c0,72 5,138 15,197 10,59 29,109 58,150 29,39 68,71 117,95 49,23 111,34 188,34 116,0 174,58 174,174 0,72 -14,121 -41,147 -28,26 -72,39 -133,39 -113,0 -204,-27 -274,-81 -69,-53 -115,-120 -140,-201 -52,119 -134,195 -245,230 -111,35 -247,52 -410,52l-356 0zm650 -2396c0,-64 23,-118 69,-163 45,-44 99,-66 163,-66 63,0 117,22 162,66 45,45 67,99 67,163 0,63 -22,117 -67,161 -45,46 -99,69 -162,69 -64,0 -118,-23 -163,-69 -46,-44 -69,-98 -69,-161zm773 2396c-116,0 -174,-57 -174,-173 0,-72 14,-122 41,-148 27,-25 72,-39 133,-39l973 0c159,0 274,-25 343,-76 70,-51 104,-118 104,-201 0,-77 -31,-164 -95,-262 -63,-98 -152,-196 -265,-295 -113,-100 -246,-197 -397,-295 -152,-96 -317,-182 -494,-260 3,-36 9,-72 19,-110 10,-37 22,-71 35,-103 14,-32 28,-58 41,-81 15,-21 28,-36 39,-41l1625 -698 0 360 -1278 563c308,156 551,322 732,498 181,177 303,353 363,530 36,101 69,182 101,242 31,60 65,108 102,143 36,35 75,58 117,69 43,12 91,17 144,17 116,0 175,58 175,174 0,72 -14,121 -42,147 -27,26 -71,39 -133,39 -60,0 -116,-4 -166,-11 -50,-6 -98,-21 -141,-45 -44,-23 -85,-57 -124,-101 -39,-45 -75,-105 -111,-182l-18 0c-54,137 -148,227 -276,271 -131,46 -291,68 -479,68l-894 0zm2813 -2396c0,-64 22,-118 68,-163 45,-44 99,-66 163,-66 63,0 117,22 162,66 45,45 67,99 67,163 0,63 -22,117 -67,161 -45,46 -99,69 -162,69 -64,0 -118,-23 -163,-69 -46,-44 -68,-98 -68,-161zm-608 2396c-116,0 -174,-57 -174,-173 0,-72 14,-122 42,-148 27,-25 71,-39 132,-39l677 0 0 -1307 356 0 0 1667 -1033 0zm-32414 7070l-352 0 0 -2318 352 0 0 2318zm-429 559c-1,-72 24,-133 73,-182 49,-49 110,-74 182,-74 73,0 133,25 183,74 49,49 74,110 74,182 0,71 -25,132 -74,182 -50,49 -110,74 -183,74 -72,0 -133,-25 -182,-74 -49,-50 -74,-111 -73,-182zm2864 208c-118,0 -218,-25 -299,-75 -80,-49 -162,-137 -244,-264 -32,77 -74,140 -124,186 -50,46 -107,81 -169,102 -62,22 -127,36 -197,42 -69,6 -138,9 -207,9l-662 0 0 -360 779 0c121,0 214,-15 280,-46 65,-30 96,-74 96,-132 0,-54 -14,-110 -43,-165 -29,-55 -65,-114 -107,-178l-462 -679 335 -209 521 863c58,96 109,179 152,248 43,69 85,125 124,168 39,43 78,75 113,97 37,22 74,33 114,33 116,0 174,57 174,173 0,72 -14,121 -41,147 -28,26 -72,40 -133,40zm0 0c-115,0 -173,-58 -173,-174 0,-72 13,-121 41,-147 27,-26 72,-39 132,-39l632 0 11 0 10 0 622 0 11 0 10 0 621 0 11 0 11 0 621 0c857,0 764,0 1621,0l11 0 11 0 142 0c96,0 177,-3 242,-9 66,-6 119,-21 159,-41 38,-21 68,-54 84,-95 16,-41 25,-99 25,-171l0 -781 357 0 0 620c0,71 5,139 13,197 9,59 30,110 62,150 32,40 77,72 135,95 57,23 137,35 237,35 64,0 120,-4 169,-9 46,-6 87,-21 119,-41 30,-21 55,-54 70,-95 16,-42 25,-99 25,-171l0 -776 356 0 0 615c0,71 5,138 16,197 10,59 29,111 56,150 27,40 67,72 115,95 48,23 112,35 187,35l365 0 0 -1308 355 0 0 1668 -720 0c-111,0 -204,-28 -272,-81 -68,-53 -114,-121 -136,-202 -53,119 -136,196 -244,230 -110,34 -243,53 -399,53 -102,0 -185,-9 -250,-25 -65,-16 -120,-38 -163,-64 -42,-27 -77,-59 -101,-93 -24,-36 -45,-70 -63,-105 -26,61 -58,109 -97,146 -40,35 -91,65 -153,86 -61,22 -139,37 -230,43 -91,8 -202,12 -328,12l-133 0 -11 0 -10 0c-857,0 -764,0 -1621,0l-622 0 -11 0 -10 0 -621 0 -11 0 -11 0 -621 0 -11 0 -11 0 -632 0zm5677 -2397c0,-64 23,-118 68,-163 46,-44 100,-66 163,-66 64,0 119,23 163,66 44,44 66,99 66,163 0,63 -22,118 -66,162 -45,46 -99,68 -163,68 -63,0 -117,-22 -163,-68 -45,-44 -68,-99 -68,-162zm564 0c0,-64 24,-119 68,-163 46,-43 100,-66 164,-66 63,0 118,23 162,66 44,44 66,99 66,163 0,63 -22,119 -66,162 -44,45 -99,68 -162,68 -64,0 -118,-23 -164,-68 -44,-43 -68,-99 -68,-162zm-273 -519c0,-63 23,-117 67,-163 46,-45 101,-67 164,-67 64,0 119,23 162,67 44,45 67,100 67,163 0,64 -23,118 -67,162 -43,43 -98,66 -162,66 -63,0 -118,-22 -164,-66 -44,-45 -67,-98 -67,-162zm-7977 -22739c0,-64 23,-118 69,-161 44,-45 99,-68 162,-68 64,0 118,23 163,68 45,43 67,97 67,161 0,64 -22,118 -67,163 -45,45 -99,67 -163,67 -63,0 -118,-22 -162,-67 -46,-45 -69,-99 -69,-163zm564 0c0,-64 23,-118 69,-161 45,-45 99,-68 163,-68 63,0 117,23 162,68 45,43 67,97 67,161 0,64 -22,118 -67,163 -45,45 -99,67 -162,67 -64,0 -118,-22 -163,-67 -46,-45 -69,-99 -69,-163zm3192 1960c0,71 -13,120 -41,146 -27,27 -72,39 -132,39l-113 0c-93,0 -179,-9 -254,-28 -77,-20 -141,-52 -196,-98 -53,-46 -95,-107 -126,-183 -30,-77 -45,-174 -45,-289l0 -2494 356 0 0 2399c0,120 20,206 57,258 39,50 122,75 253,75l68 0c115,0 173,58 173,175zm-173 185c-115,0 -174,-57 -174,-173 0,-72 14,-122 41,-147 28,-26 72,-40 133,-40l2452 0c69,0 129,-3 178,-8 49,-5 91,-20 124,-41 33,-22 58,-54 74,-95 16,-41 24,-99 24,-171l0 -992 357 0 0 832c0,71 5,138 15,196 9,60 29,110 57,150 29,39 69,72 117,95 49,24 112,34 189,34 116,0 174,58 174,175 0,71 -15,120 -42,146 -28,26 -72,39 -132,39 -113,0 -205,-27 -274,-80 -69,-54 -116,-120 -140,-201 -53,118 -135,195 -246,229 -110,34 -247,52 -410,52l-2517 0zm2504 654c0,-64 23,-117 68,-162 45,-44 99,-66 164,-66 63,0 118,22 162,66 44,45 66,98 66,162 0,64 -22,118 -66,163 -44,44 -99,68 -162,68 -65,0 -119,-23 -164,-68 -45,-45 -68,-99 -68,-163zm564 0c0,-64 24,-117 68,-162 46,-44 100,-66 164,-66 63,0 117,22 162,66 44,45 66,98 66,162 0,64 -22,118 -66,163 -45,45 -99,68 -162,68 -64,0 -119,-23 -164,-68 -44,-44 -68,-99 -68,-163zm517 -654c-115,0 -174,-57 -174,-173 0,-72 14,-122 41,-147 27,-25 72,-40 133,-40l676 0 0 -1307 356 0 0 1667 -1032 0zm177 654c0,-64 23,-117 68,-162 45,-44 100,-66 163,-66 64,0 119,22 163,66 44,45 67,98 67,162 0,64 -23,118 -67,163 -44,44 -99,68 -163,68 -63,0 -118,-23 -163,-68 -45,-44 -68,-99 -68,-163zm564 0c0,-64 24,-117 68,-162 46,-44 100,-66 164,-66 63,0 117,22 162,66 44,45 67,98 67,162 0,64 -23,118 -67,163 -45,45 -99,68 -162,68 -64,0 -119,-23 -164,-68 -44,-44 -68,-99 -68,-163zm1945 -654c-96,0 -175,-21 -239,-64 -64,-43 -111,-94 -142,-152 0,208 -12,383 -36,527 -26,142 -73,259 -142,346 -70,88 -166,152 -286,190 -122,39 -280,59 -476,59l0 -360c142,0 253,-15 332,-45 80,-30 140,-80 180,-147 39,-67 63,-155 70,-260 7,-106 10,-233 10,-383l0 -1162 353 0 0 616c0,146 27,262 80,348 53,84 153,127 296,127 117,0 175,58 175,175 0,71 -15,120 -42,146 -28,26 -72,39 -133,39zm-790 -2396c0,-64 23,-119 68,-162 44,-44 99,-67 163,-67 64,0 118,23 163,67 44,43 66,98 66,162 0,63 -23,118 -66,162 -46,45 -99,68 -163,68 -64,0 -118,-23 -163,-68 -45,-44 -68,-99 -68,-162zm5569 2036c0,-184 -25,-341 -73,-467 -48,-126 -115,-230 -199,-310 -84,-80 -185,-138 -296,-173 -113,-35 -232,-55 -356,-55 -84,0 -173,9 -267,24 -93,15 -172,32 -232,51l0 -347c59,-17 136,-37 230,-58 95,-21 200,-33 313,-33 221,0 411,38 569,112 157,74 288,177 390,306 101,129 176,280 224,450 46,172 71,354 71,543l0 317 -5154 0c-115,0 -174,-57 -174,-173 0,-72 14,-122 41,-147 26,-25 72,-40 133,-40l4780 0zm-834 1010c0,-64 22,-118 68,-162 45,-45 100,-66 163,-66 63,0 118,21 163,66 44,44 66,98 66,162 0,63 -23,118 -66,162 -45,45 -100,68 -163,68 -63,0 -118,-23 -163,-68 -45,-45 -68,-99 -68,-162zm3607 -835c0,71 -14,120 -41,146 -27,27 -73,39 -133,39l-113 0c-92,0 -179,-9 -254,-28 -75,-20 -141,-52 -196,-98 -53,-46 -95,-108 -125,-183 -30,-77 -45,-174 -45,-289l0 -2494 355 0 0 2399c0,119 20,206 58,258 38,50 122,75 253,75l67 0c116,0 174,58 174,175zm2498 185c-110,0 -206,-22 -287,-64 -81,-43 -147,-117 -196,-222l0 -8c-55,110 -136,196 -240,258 -107,62 -239,94 -398,94 -139,0 -278,-24 -415,-70 -137,-46 -280,-124 -428,-235 -38,57 -76,103 -115,136 -38,33 -80,59 -124,75 -43,15 -89,26 -135,30 -45,3 -96,6 -147,6l-187 0c-115,0 -174,-57 -174,-173 0,-72 14,-122 42,-147 27,-26 71,-40 132,-40l178 0c36,0 72,-4 110,-12 37,-9 76,-27 112,-56 36,-28 75,-69 110,-120 36,-50 71,-119 103,-205 66,-185 137,-334 210,-448 73,-114 149,-203 226,-265 77,-61 156,-102 235,-124 80,-19 159,-30 237,-30 107,0 208,21 302,62 93,41 175,101 243,177 68,78 122,169 160,274 38,105 58,223 58,354 0,20 -1,39 -2,59 -2,18 -3,37 -3,53 30,93 72,164 127,211 56,47 144,70 266,70 116,0 172,58 172,175 0,70 -14,120 -40,146 -27,26 -71,39 -132,39zm-748 -766c0,-63 -10,-125 -28,-187 -18,-60 -46,-115 -82,-161 -37,-45 -82,-83 -133,-109 -52,-28 -113,-41 -182,-41 -121,0 -233,53 -335,160 -101,106 -197,295 -286,563 107,69 214,125 319,167 106,42 213,63 324,63 122,0 219,-34 293,-103 73,-69 110,-186 110,-352zm746 766c-114,0 -174,-57 -174,-173 0,-72 14,-122 42,-147 26,-25 71,-40 132,-40l632 0 10 0 11 0c1921,0 -1359,0 561,0l11 0 11 0 620 0 12 0 10 0 621 0 11 0 10 0 622 0 11 0 10 0 622 0 10 0 11 0 621 0 11 0 11 0 142 0c97,0 177,-2 242,-8 66,-5 119,-20 159,-41 39,-22 67,-53 85,-95 16,-41 25,-99 25,-171l0 -780 356 0 0 620c0,71 5,137 14,196 9,60 30,109 61,150 32,39 77,71 135,95 58,24 137,34 238,34 63,0 119,-2 167,-8 48,-5 88,-20 120,-41 31,-22 55,-53 71,-95 16,-41 24,-99 24,-171l0 -776 356 0 0 616c0,71 5,137 15,196 12,60 30,109 58,150 28,39 66,71 114,95 50,24 112,34 188,34l364 0 0 -1307 355 0 0 1667 -719 0c-113,0 -204,-27 -273,-80 -68,-54 -114,-120 -136,-201 -53,118 -135,195 -244,229 -110,35 -243,52 -399,52 -101,0 -185,-8 -250,-24 -65,-16 -119,-38 -163,-65 -42,-26 -76,-58 -101,-92 -24,-36 -45,-71 -63,-105 -26,61 -58,110 -97,146 -40,35 -90,65 -153,87 -62,22 -139,36 -230,42 -91,8 -200,11 -328,11l-133 0 -11 0 -10 0 -621 0 -12 0 -10 0 -621 0 -11 0 -11 0 -621 0 -11 0 -10 0 -622 0 -10 0 -11 0 -621 0 -11 0 -10 0c-1921,0 1359,0 -561,0l-12 0 -10 0 -632 0zm5923 -2396c0,-64 23,-118 69,-162 45,-44 99,-67 162,-67 64,0 119,23 163,67 45,44 67,98 67,162 0,63 -22,118 -67,162 -44,46 -99,68 -163,68 -63,0 -117,-22 -162,-68 -46,-44 -69,-99 -69,-162zm564 0c0,-64 24,-118 68,-162 46,-44 100,-67 164,-67 63,0 117,23 162,67 44,44 67,98 67,162 0,63 -23,118 -67,162 -45,46 -99,68 -162,68 -64,0 -118,-22 -164,-68 -44,-44 -68,-99 -68,-162zm-273 -519c0,-63 23,-117 68,-162 45,-46 100,-69 163,-69 65,0 118,23 162,69 45,45 67,99 67,162 0,64 -22,117 -67,162 -44,44 -97,66 -162,66 -63,0 -118,-22 -163,-66 -45,-45 -68,-98 -68,-162zm4150 2915c-96,0 -176,-21 -240,-64 -63,-43 -111,-94 -141,-152 0,208 -13,383 -37,527 -25,142 -72,259 -142,346 -69,89 -165,152 -286,190 -122,40 -279,59 -475,59l0 -360c141,0 252,-15 332,-45 80,-30 139,-79 179,-147 40,-67 63,-155 71,-260 6,-106 9,-233 9,-383l0 -1162 353 0 0 616c0,147 26,262 80,348 54,85 153,127 297,127 116,0 174,58 174,175 0,71 -14,120 -41,146 -28,27 -72,39 -133,39zm-2 0c-116,0 -174,-57 -174,-173 0,-72 14,-122 41,-147 28,-26 72,-40 133,-40l1037 0c108,0 197,-18 268,-55 72,-37 107,-110 107,-217 0,-75 -35,-160 -107,-258 -71,-96 -166,-194 -283,-294 -117,-100 -252,-199 -404,-295 -152,-97 -307,-185 -465,-262 3,-35 12,-71 25,-106 15,-36 31,-70 48,-100 17,-31 36,-57 54,-80 18,-23 34,-39 46,-48l1590 -698 0 351 -1278 563c202,118 375,234 517,346 141,113 257,222 346,326 88,105 153,206 193,302 40,97 60,188 60,274 0,60 -10,128 -28,200 -19,72 -53,139 -106,199 -52,61 -126,113 -221,152 -96,40 -219,60 -370,60l-1029 0zm231 -2269c0,-41 7,-83 23,-126 15,-43 34,-83 57,-119 21,-37 44,-68 69,-95 25,-28 45,-47 63,-56l1476 -671 0 326 -1688 741zm2517 -823l0 3092 -356 0 0 -3092 356 0zm-33402 10929c-167,0 -308,-12 -420,-35 -111,-24 -202,-60 -269,-110 -68,-50 -116,-115 -145,-195 -29,-80 -44,-178 -44,-293l0 -671 357 0 0 542c0,89 10,160 33,213 22,54 59,95 109,123 52,27 123,45 213,53 90,9 205,13 345,13l1732 0c108,0 197,-18 268,-56 69,-37 105,-110 105,-217 0,-75 -36,-160 -105,-257 -71,-97 -166,-195 -283,-295 -117,-100 -252,-199 -404,-295 -152,-96 -308,-184 -467,-261 2,-36 11,-71 26,-107 15,-36 31,-69 47,-100 18,-30 36,-57 55,-80 19,-23 34,-39 46,-48l1590 -698 0 352 -1278 562c201,119 374,234 515,347 143,113 258,221 347,326 88,104 152,205 193,301 41,98 62,188 62,274 0,61 -10,128 -29,200 -19,73 -55,140 -107,200 -52,61 -126,112 -222,152 -96,40 -218,60 -367,60l-1903 0zm3578 -1452l352 0 0 1208c0,215 -12,395 -37,542 -25,145 -72,263 -141,352 -70,90 -166,155 -289,194 -123,41 -281,61 -477,61l0 -360c141,0 252,-15 332,-45 80,-30 140,-79 179,-147 40,-67 63,-155 70,-260 8,-106 11,-233 11,-383l0 -1162zm2384 976c0,138 -48,251 -144,341 -96,90 -235,135 -417,135l-1038 0 0 -360 1009 0c99,0 161,-15 186,-45 25,-31 39,-64 39,-103 0,-28 -6,-58 -18,-90 -10,-32 -39,-83 -84,-155 -45,-71 -111,-169 -196,-294 -86,-126 -202,-296 -349,-513l335 -208c116,198 216,365 301,501 85,137 155,252 210,348 55,95 96,176 125,245 27,69 41,134 41,198zm1729 -2617l0 3093 -356 0 0 -3093 356 0zm921 1641l352 0 0 1208c0,215 -13,395 -37,542 -25,145 -73,263 -142,352 -70,90 -166,155 -289,194 -123,41 -281,61 -476,61l0 -360c140,0 251,-15 332,-45 79,-30 140,-79 178,-147 40,-67 64,-155 70,-260 8,-106 12,-233 12,-383l0 -1162zm1512 269l352 0 0 593c0,280 72,477 215,590 144,112 355,169 635,169 144,0 269,-11 373,-33 105,-22 191,-60 259,-113 68,-54 119,-127 150,-221 32,-94 48,-213 48,-357l0 -1113 352 0 0 1118c0,381 -105,655 -313,823 -209,167 -501,251 -878,251 -399,0 -698,-88 -897,-266 -197,-178 -296,-436 -296,-775l0 -666zm976 -650c0,-64 23,-119 68,-162 46,-45 100,-68 164,-68 64,0 117,23 162,68 44,43 66,98 66,162 0,63 -22,117 -66,162 -45,45 -98,67 -162,67 -64,0 -118,-22 -164,-67 -45,-45 -68,-99 -68,-162zm2922 1647c0,71 -14,121 -42,146 -27,27 -71,40 -132,40l-113 0c-94,0 -178,-10 -254,-29 -77,-19 -141,-52 -196,-97 -53,-46 -95,-107 -125,-184 -31,-77 -46,-174 -46,-289l0 -2494 356 0 0 2399c0,121 20,207 57,258 39,51 123,76 253,76l68 0c116,0 174,58 174,174zm-174 186c-116,0 -174,-58 -174,-173 0,-73 14,-122 41,-148 28,-26 72,-39 133,-39l677 0 0 -1308 356 0 0 1668 -1033 0zm291 -2397c0,-64 22,-117 68,-162 45,-44 99,-67 163,-67 63,0 118,23 162,67 45,45 67,98 67,162 0,63 -22,118 -67,162 -44,46 -99,68 -162,68 -64,0 -118,-22 -163,-68 -46,-44 -68,-99 -68,-162zm564 0c0,-64 23,-117 68,-162 45,-44 100,-67 163,-67 63,0 118,23 163,67 44,45 66,98 66,162 0,63 -22,118 -66,162 -45,46 -100,68 -163,68 -63,0 -118,-22 -163,-68 -45,-44 -68,-99 -68,-162zm1099 945l352 0 0 1208c0,215 -13,395 -37,542 -26,145 -72,263 -142,352 -69,90 -165,155 -288,194 -124,41 -282,61 -478,61l0 -360c142,0 252,-15 333,-45 79,-30 139,-79 178,-147 41,-67 64,-155 70,-260 8,-106 12,-233 12,-383l0 -1162zm1865 1266c0,71 -13,121 -41,146 -27,27 -71,40 -132,40l-113 0c-94,0 -178,-10 -254,-29 -77,-19 -141,-52 -196,-97 -54,-46 -96,-107 -125,-184 -31,-77 -46,-174 -46,-289l0 -2494 356 0 0 2399c0,121 20,207 57,258 39,51 123,76 253,76l68 0c116,0 173,58 173,174zm-173 186c-116,0 -174,-58 -174,-173 0,-73 14,-122 41,-148 28,-26 72,-39 133,-39l1037 0c107,0 197,-18 267,-56 73,-37 108,-110 108,-217 0,-75 -35,-160 -108,-257 -70,-97 -165,-195 -282,-295 -117,-100 -252,-199 -405,-295 -151,-96 -306,-184 -464,-261 3,-36 11,-71 25,-107 15,-36 31,-69 47,-100 18,-30 36,-57 55,-80 18,-23 34,-39 46,-48l1590 -698 0 352 -1278 562c202,119 375,234 517,347 141,113 257,221 345,326 88,104 153,205 193,301 40,98 60,188 60,274 0,61 -9,128 -27,200 -19,73 -53,140 -106,200 -52,61 -126,112 -222,152 -95,40 -218,60 -370,60l-1028 0zm3911 0c-113,0 -218,-13 -315,-40 -97,-25 -181,-68 -252,-127 -71,-59 -127,-138 -170,-236 -42,-98 -62,-219 -62,-363 0,-116 19,-230 56,-341 37,-112 92,-210 164,-297 73,-86 162,-156 269,-208 109,-53 231,-79 369,-79 155,0 284,29 390,85 105,56 190,134 253,234 65,99 110,218 137,355 28,138 42,289 42,454l0 406c0,218 -29,394 -87,531 -59,137 -141,245 -248,325 -107,80 -238,134 -395,163 -155,29 -330,43 -524,43l-183 0 0 -360 134 0c139,0 265,-5 379,-16 115,-12 214,-37 296,-79 83,-41 148,-100 194,-177 46,-78 69,-183 69,-316l0 -82c-53,32 -120,62 -204,87 -84,25 -187,38 -312,38zm-452 -806c0,165 45,282 133,353 88,71 206,106 353,106 111,0 207,-14 292,-44 84,-29 147,-60 190,-94l0 -161c0,-98 -9,-191 -23,-278 -17,-86 -43,-161 -80,-223 -37,-62 -87,-111 -148,-147 -61,-36 -135,-54 -222,-54 -89,0 -165,18 -227,52 -62,34 -114,77 -153,130 -39,52 -69,110 -87,173 -18,64 -28,126 -28,187zm3996 1464c0,-64 22,-118 68,-162 45,-45 100,-66 163,-66 63,0 118,21 163,66 44,44 67,98 67,162 0,63 -23,117 -67,162 -45,45 -100,68 -163,68 -63,0 -118,-23 -163,-68 -46,-45 -68,-99 -68,-162z"/>
    <path class="fil2" d="M63152 36639c-12,361 -119,635 -319,817 -201,182 -487,275 -855,275 -193,0 -364,-27 -511,-81 -147,-53 -270,-130 -368,-228 -97,-98 -173,-215 -223,-350 -48,-133 -74,-284 -74,-449l0 -659 347 0 0 585c0,553 280,833 838,833 288,0 497,-63 626,-186 127,-124 192,-329 192,-613l0 -2993 347 0 0 2694 334 0c114,0 171,57 171,172 0,71 -14,119 -41,144 -26,26 -72,39 -130,39l-334 0zm1037 -18874c-512,0 -945,-37 -1292,-111 -347,-73 -625,-195 -832,-359 -207,-165 -358,-377 -450,-637 -90,-260 -136,-576 -136,-949l0 -2146 1691 0 0 1917c0,172 24,311 68,409 44,100 124,181 235,239 112,58 264,98 455,114 191,18 434,26 732,26l4128 0c-67,-140 -119,-316 -150,-529 -31,-209 -47,-407 -47,-588 0,-338 60,-673 178,-999 118,-330 290,-622 510,-878 219,-254 493,-460 820,-617 326,-157 702,-236 1125,-236 498,0 906,90 1226,267 320,178 573,403 759,675 187,273 318,577 394,912 74,333 110,657 110,971l0 1022 1030 0c69,0 132,7 195,22 61,14 116,45 161,91 47,47 85,117 113,212 26,95 41,225 41,392 0,295 -42,501 -124,612 -83,111 -211,168 -386,168l-10554 0zm6044 -2691c0,449 106,759 314,932 210,175 458,262 743,262l742 0 0 -985c0,-173 -10,-341 -30,-501 -20,-160 -64,-302 -131,-423 -65,-119 -155,-217 -266,-291 -112,-75 -261,-111 -443,-111 -175,0 -322,34 -446,99 -123,66 -219,151 -286,254 -67,104 -119,221 -150,356 -31,131 -47,268 -47,408zm-27 -4728c0,-250 92,-466 274,-650 182,-184 402,-277 656,-277 249,0 467,91 649,273 181,181 274,400 274,654 0,249 -92,466 -274,648 -182,182 -400,273 -649,273 -250,0 -467,-91 -652,-273 -185,-182 -278,-399 -278,-648zm4529 7419c-65,0 -131,-7 -193,-19 -62,-13 -118,-42 -167,-92 -49,-48 -85,-120 -111,-216 -26,-95 -37,-225 -37,-390 0,-297 43,-501 125,-613 82,-112 210,-167 383,-167l1913 0 8 0 8 0 6 0 6 0 7 0 1893 0 9 0 8 0 6 0 6 0 7 0 1893 0 8 0 8 0 6 0 6 0 7 0 1894 0 7 0 9 0 6 0 6 0 7 0 1893 0 8 0 8 0 7 0 6 0 6 0 1894 0 8 0 8 0 6 0 6 0 7 0 1909 0c67,0 133,7 194,22 59,15 117,45 164,91 50,47 89,117 113,212 24,95 37,225 37,392 0,295 -42,501 -124,612 -83,111 -211,168 -384,168l-1913 0 -7 0 -8 0 -7 0 -6 0 -6 0 -1894 0 -8 0 -8 0 -6 0 -6 0 -7 0 -1893 0 -9 0 -7 0 -6 0 -7 0 -6 0 -1894 0 -8 0 -8 0 -6 0 -6 0 -7 0 -1893 0 -9 0 -7 0 -6 0 -7 0 -7 0 -1893 0 -8 0 -8 0 -6 0 -6 0 -7 0 -1910 0zm18162 -1497c-24,-349 -80,-667 -167,-955 -86,-289 -219,-540 -397,-748 -177,-206 -407,-368 -684,-485 -278,-115 -626,-173 -1040,-173 -141,0 -361,19 -659,57 -299,37 -601,101 -907,190l0 -1510c200,-70 471,-141 814,-219 343,-77 697,-119 1062,-119 680,0 1251,118 1715,351 464,233 840,545 1126,936 284,390 494,843 618,1358 125,513 187,1050 187,1608l0 1206 -6330 0c-66,0 -132,-7 -193,-19 -62,-13 -118,-42 -167,-92 -49,-48 -86,-120 -111,-216 -26,-95 -37,-225 -37,-390 0,-297 42,-501 124,-613 83,-112 210,-167 384,-167l4662 0zm-1227 3655c0,-250 92,-467 273,-648 181,-181 399,-273 657,-273 248,0 464,91 646,273 183,182 274,398 274,648 0,249 -93,467 -274,647 -181,181 -398,273 -646,273 -253,0 -471,-92 -655,-273 -183,-180 -275,-398 -275,-647zm-21527 8515c-365,0 -686,-52 -964,-156 -278,-104 -469,-204 -575,-301 -9,678 -96,1239 -262,1685 -164,447 -401,807 -709,1079 -307,274 -680,466 -1119,579 -438,110 -935,167 -1492,167 -2362,0 -3543,-1120 -3543,-3364l0 -1783 1678 0 0 1720c0,604 161,1068 478,1390 319,321 788,481 1414,481 651,0 1133,-134 1440,-402 308,-270 462,-729 462,-1381l0 -4315 1679 0 0 2210c0,277 74,496 223,656 148,158 382,238 706,238 250,0 467,-39 649,-114 183,-76 273,-245 273,-509l0 -2481 1679 0 0 2210c0,303 55,528 166,676 110,145 312,218 603,218l821 0 0 -3675 1681 0 0 5172 -1992 0c-249,0 -464,-17 -643,-49 -177,-36 -329,-83 -457,-144 -128,-62 -233,-134 -315,-216 -83,-83 -154,-171 -214,-264 -216,251 -470,424 -759,524 -291,100 -593,149 -908,149zm11591 -779c0,604 -78,1126 -231,1563 -155,438 -400,800 -735,1086 -336,286 -766,496 -1292,630 -525,136 -1157,204 -1896,204l-401 0 0 -1586 299 0c471,0 865,-33 1182,-93 315,-61 566,-145 753,-253 186,-108 324,-237 411,-389 86,-149 139,-315 154,-498 -259,76 -576,115 -953,115 -348,0 -674,-44 -978,-130 -301,-87 -564,-227 -786,-423 -219,-194 -395,-445 -527,-755 -131,-308 -198,-678 -198,-1109 0,-347 58,-691 175,-1029 118,-338 288,-641 509,-909 223,-270 499,-484 831,-643 330,-157 713,-238 1145,-238 480,0 882,83 1205,246 326,161 584,393 780,694 195,299 336,655 424,1067 86,409 129,862 129,1357l0 1093zm-3531 -1799c0,443 88,739 261,893 174,154 415,232 719,232 348,0 634,-61 860,-185l0 -634c0,-440 -65,-791 -195,-1053 -129,-262 -363,-394 -702,-394 -341,0 -581,113 -725,336 -146,225 -218,494 -218,805zm8582 2578c-115,0 -271,-26 -471,-80 -199,-52 -374,-165 -522,-338 -8,587 -78,1079 -206,1476 -130,394 -325,715 -586,957 -260,243 -590,418 -987,520 -401,104 -880,160 -1439,169l0 -1586c357,-8 639,-50 850,-125 208,-74 367,-183 471,-329 102,-146 169,-335 200,-566 30,-230 43,-507 43,-828l0 -3871 1681 0 0 2210c0,338 102,572 308,700 207,129 426,194 658,194 67,0 133,7 194,22 63,15 117,46 166,91 49,48 86,117 111,212 26,96 37,226 37,393 0,294 -41,500 -123,610 -83,113 -211,169 -385,169zm-2738 -6979c0,-249 92,-465 274,-649 182,-184 401,-278 656,-278 249,0 466,91 649,273 182,182 273,400 273,654 0,250 -91,467 -273,648 -182,182 -400,274 -649,274 -251,0 -468,-93 -652,-274 -184,-182 -278,-398 -278,-648zm2732 6979c-68,0 -133,-7 -193,-20 -63,-12 -117,-43 -168,-90 -47,-50 -84,-122 -111,-217 -26,-95 -37,-226 -37,-390 0,-296 42,-500 125,-613 82,-112 210,-167 384,-167l1912 0 8 0 8 0 6 0 7 0 6 0 1909 0c68,0 133,7 194,22 60,15 117,46 165,91 50,48 87,117 112,212 25,96 37,226 37,393 0,294 -41,500 -123,610 -83,113 -211,169 -385,169l-1912 0 -8 0 -8 0 -6 0 -6 0 -7 0 -1909 0zm7899 4614l-3132 444 0 -621 3132 -444 0 621zm-2542 -6111l0 -3675 1707 0 0 5172 -3208 0c-66,0 -131,-7 -192,-20 -64,-12 -117,-43 -168,-90 -47,-50 -84,-122 -111,-217 -26,-95 -37,-226 -37,-390 0,-296 42,-500 125,-613 82,-112 210,-167 383,-167l1501 0zm-213 3642c0,-249 92,-466 274,-648 182,-182 400,-273 656,-273 250,0 465,91 647,273 183,182 273,399 273,648 0,249 -90,465 -273,648 -182,182 -397,273 -647,273 -252,0 -469,-91 -654,-273 -184,-183 -276,-399 -276,-648zm-19572 11219l633 0c23,0 44,3 64,7 20,5 38,15 54,31 17,15 29,38 37,69 8,32 12,74 12,129 0,97 -13,164 -40,201 -27,37 -69,55 -127,55l-622 0 -11 0 -634 0c-21,0 -43,-2 -63,-7 -21,-4 -38,-13 -55,-29 -15,-16 -28,-40 -36,-71 -9,-31 -12,-74 -12,-128 0,-97 13,-165 40,-202 28,-37 70,-55 126,-55l623 0 11 0zm2268 -302c0,-43 -5,-86 -14,-128 -10,-43 -26,-81 -47,-113 -22,-33 -51,-60 -86,-82 -36,-20 -79,-31 -131,-31 -38,0 -76,9 -116,27 -40,20 -78,50 -114,92 -37,43 -73,98 -105,166 -33,68 -60,154 -83,256 71,44 139,78 203,106 63,27 133,41 207,41 92,0 163,-31 212,-92 49,-61 74,-143 74,-242zm-1413 302c34,0 77,-28 128,-84 50,-56 94,-139 133,-248 63,-162 132,-297 206,-404 75,-107 151,-192 230,-256 79,-65 159,-109 237,-134 80,-27 159,-39 236,-39 112,0 216,21 313,64 97,43 181,103 250,179 70,77 125,169 164,278 39,108 60,227 60,354 0,256 -63,459 -188,609 -126,150 -317,226 -573,226 -115,0 -229,-18 -345,-53 -116,-35 -238,-93 -366,-175 -73,82 -150,131 -227,149 -77,18 -162,26 -252,26l-228 0c-21,0 -43,-2 -63,-7 -21,-4 -39,-13 -55,-29 -16,-16 -28,-40 -36,-71 -9,-31 -12,-74 -12,-128 0,-97 13,-165 40,-202 27,-37 70,-55 126,-55l222 0zm2980 -2556l0 3048 -553 0 0 -3048 553 0zm-1032 -547c83,-79 156,-132 222,-158 65,-27 126,-40 184,-40 56,0 123,13 200,41 75,27 144,57 207,89 63,32 123,56 180,73 57,16 106,24 146,24 55,0 100,-20 133,-61 34,-41 58,-84 72,-130l222 97c-49,129 -105,226 -167,293 -63,66 -149,100 -260,100 -79,0 -153,-10 -223,-32 -68,-20 -136,-47 -201,-78 -62,-28 -123,-53 -180,-75 -57,-21 -110,-33 -159,-33 -40,0 -77,7 -112,19 -34,13 -77,38 -128,76l-136 -205zm6374 3595c-82,0 -164,-13 -247,-41 -83,-26 -150,-85 -202,-176 -35,49 -75,88 -122,117 -46,29 -97,51 -151,67 -55,13 -112,22 -170,26 -58,5 -116,7 -174,7l-1878 0c-169,0 -311,-12 -425,-36 -114,-24 -206,-64 -274,-118 -68,-54 -117,-124 -145,-209 -28,-86 -43,-190 -43,-312l0 -705 556 0 0 629c0,57 8,102 22,135 15,33 41,59 77,78 37,19 87,33 150,38 63,6 142,8 240,8l1631 0c97,0 165,-14 203,-44 39,-30 58,-98 58,-202l0 -961 552 0 0 914c0,105 22,180 67,225 44,46 137,68 275,68 23,0 44,3 64,7 21,5 38,15 55,31 16,15 27,38 36,69 9,32 12,74 12,129 0,97 -13,164 -40,201 -27,37 -69,55 -127,55zm-2753 -2194c0,-82 30,-153 90,-213 60,-61 132,-92 215,-92 83,0 154,30 214,90 60,60 90,132 90,215 0,82 -30,153 -90,213 -60,60 -131,89 -214,89 -82,0 -153,-29 -214,-89 -60,-60 -91,-131 -91,-213zm698 0c0,-82 31,-153 91,-213 59,-61 130,-92 213,-92 82,0 154,30 214,90 61,60 91,132 91,215 0,82 -30,153 -91,213 -59,60 -130,89 -214,89 -83,0 -154,-29 -213,-89 -60,-60 -91,-131 -91,-213zm2053 2194c-21,0 -43,-2 -63,-7 -21,-4 -38,-13 -55,-29 -15,-16 -28,-40 -36,-71 -8,-31 -12,-74 -12,-128 0,-97 13,-165 41,-202 27,-37 69,-55 125,-55l634 0c22,0 44,3 64,7 20,5 38,15 54,31 16,15 28,38 37,69 8,32 12,74 12,129 0,97 -13,164 -41,201 -26,37 -69,55 -126,55l-634 0zm634 0c-22,0 -43,-2 -64,-7 -20,-4 -38,-13 -54,-29 -16,-16 -28,-40 -36,-71 -9,-31 -13,-74 -13,-128 0,-97 14,-165 41,-202 27,-37 69,-55 126,-55l633 0c23,0 44,3 64,7 20,5 39,15 54,31 17,15 29,38 37,69 8,32 13,74 13,129 0,97 -14,164 -41,201 -27,37 -69,55 -127,55l-633 0zm633 0c-21,0 -43,-2 -63,-7 -21,-4 -39,-13 -55,-29 -16,-16 -28,-40 -36,-71 -8,-31 -12,-74 -12,-128 0,-97 13,-165 41,-202 26,-37 69,-55 125,-55l634 0c22,0 44,3 64,7 20,5 38,15 54,31 16,15 29,38 37,69 8,32 12,74 12,129 0,97 -13,164 -41,201 -27,37 -69,55 -126,55l-634 0zm1631 -492c60,0 117,-12 172,-35 54,-23 81,-74 81,-148 0,-52 -32,-120 -96,-206 -65,-86 -149,-178 -255,-276 -106,-97 -226,-193 -360,-289 -133,-95 -269,-178 -407,-249 19,-95 43,-172 71,-234 28,-61 56,-110 84,-147 29,-36 57,-64 84,-83 27,-19 49,-32 66,-41l1494 -656 0 571 -1011 419 0 13c171,111 313,220 424,329 111,108 201,214 268,316 67,102 114,199 139,291 25,93 38,180 38,261 0,68 -9,139 -28,216 -19,77 -55,148 -108,214 -54,66 -130,120 -229,163 -99,42 -228,63 -387,63l-1037 0c-22,0 -44,-2 -64,-7 -20,-4 -38,-13 -54,-29 -16,-16 -28,-40 -37,-71 -8,-31 -12,-74 -12,-128 0,-97 13,-165 41,-202 27,-37 69,-55 126,-55l997 0zm2488 492c-38,0 -89,-8 -155,-26 -66,-18 -123,-54 -171,-111 -3,193 -26,355 -68,485 -43,129 -107,235 -193,314 -85,80 -194,138 -324,171 -131,34 -289,53 -473,56l0 -521c117,-3 210,-16 279,-41 69,-25 121,-60 155,-109 34,-48 56,-109 66,-186 10,-76 14,-166 14,-271l0 -1273 552 0 0 727c0,111 34,187 101,229 68,43 141,64 217,64 22,0 43,3 63,7 21,5 39,15 55,31 16,15 28,38 37,69 9,32 12,74 12,129 0,97 -14,164 -40,201 -28,37 -70,55 -127,55zm-2 0c-22,0 -44,-2 -64,-7 -21,-4 -38,-13 -55,-29 -16,-16 -28,-40 -36,-71 -8,-31 -12,-74 -12,-128 0,-97 13,-165 41,-202 27,-37 68,-55 126,-55l623 0 10 0 623 0 11 0 623 0 10 0 623 0 11 0 623 0 10 0 623 0 10 0 623 0 11 0 175 0c63,0 116,-1 156,-4 41,-2 75,-11 100,-25 26,-14 45,-35 56,-61 12,-28 19,-65 19,-114l0 -816 548 0 0 727c0,90 24,163 74,215 49,52 127,78 233,78 82,0 152,-12 212,-37 59,-25 88,-81 88,-167l0 -816 556 0 0 727c0,195 85,293 253,293l266 0 0 -1207 556 0 0 1699 -654 0c-152,0 -266,-17 -344,-53 -78,-36 -142,-91 -196,-168 -43,55 -89,96 -138,125 -48,29 -99,51 -150,67 -51,14 -103,22 -152,25 -49,3 -97,4 -143,4 -145,0 -267,-23 -366,-71 -99,-47 -169,-97 -212,-150 -75,101 -175,162 -299,186 -123,23 -281,35 -472,35l-156 0 -10 0 -623 0 -11 0 -623 0 -10 0 -623 0 -10 0 -624 0 -10 0 -623 0 -10 0 -623 0 -11 0 -633 0zm5700 -2438c0,-81 30,-153 90,-214 59,-60 132,-90 216,-90 82,0 153,30 213,89 60,61 90,133 90,215 0,82 -30,153 -90,213 -60,60 -131,90 -213,90 -83,0 -154,-30 -214,-90 -61,-60 -92,-131 -92,-213zm699 0c0,-81 29,-153 90,-214 60,-60 130,-90 213,-90 82,0 153,30 214,89 60,61 91,133 91,215 0,82 -31,153 -90,213 -60,60 -132,90 -215,90 -83,0 -153,-30 -213,-90 -61,-60 -90,-131 -90,-213zm-339 -619c0,-82 29,-153 90,-213 59,-61 132,-91 215,-91 82,0 154,30 213,89 60,60 90,132 90,215 0,82 -30,154 -90,213 -59,59 -131,90 -213,90 -82,0 -153,-31 -214,-90 -60,-59 -91,-131 -91,-213zm-29484 -2598c-110,0 -171,-57 -171,-171 0,-71 14,-120 41,-145 26,-24 70,-39 130,-39l175 0c35,0 72,-5 108,-12 36,-7 75,-28 111,-55 35,-28 75,-69 109,-118 34,-49 71,-119 101,-203 65,-181 136,-330 207,-441 72,-112 148,-200 223,-261 75,-60 153,-103 231,-122 79,-21 157,-30 234,-30 106,0 206,21 298,61 92,40 174,100 240,175 65,75 120,166 157,269 38,103 57,220 57,349 0,249 -58,443 -175,586 -118,142 -300,213 -547,213 -138,0 -274,-24 -410,-69 -134,-45 -275,-122 -420,-231 -38,57 -77,102 -114,135 -38,31 -80,57 -123,72 -42,16 -89,27 -133,30 -45,3 -95,7 -145,7l-184 0zm1896 -755c0,-62 -10,-124 -27,-185 -17,-59 -46,-114 -81,-158 -36,-45 -81,-83 -131,-108 -50,-27 -111,-41 -180,-41 -119,0 -230,53 -330,159 -99,104 -194,290 -282,554 106,68 212,124 315,165 103,41 210,62 319,62 120,0 217,-35 289,-101 71,-68 108,-184 108,-347zm1762 572c0,71 -14,119 -40,144 -27,26 -73,39 -131,39l-111 0c-90,0 -177,-10 -251,-28 -74,-19 -140,-52 -193,-96 -52,-45 -94,-107 -123,-182 -29,-75 -46,-171 -46,-284l0 -2459 351 0 0 2365c0,117 21,205 57,254 37,50 121,75 249,75l67 0c114,0 171,57 171,172zm-171 183c-111,0 -171,-57 -171,-171 0,-71 14,-120 41,-145 25,-24 70,-39 130,-39l527 0c-52,-53 -96,-124 -129,-209 -34,-85 -51,-183 -51,-291 0,-147 28,-275 84,-384 56,-108 129,-198 218,-269 90,-71 190,-124 299,-157 109,-33 220,-51 331,-51 101,0 190,6 263,17 74,10 127,23 157,37l0 381c-54,-16 -113,-32 -175,-45 -62,-12 -141,-19 -232,-19 -180,0 -324,44 -428,132 -104,87 -158,210 -158,362 0,145 46,265 135,357 90,91 229,139 417,139l626 0 0 355 -1884 0zm4210 0c-95,0 -175,-22 -237,-64 -61,-41 -109,-92 -139,-149 0,204 -12,378 -37,518 -24,141 -72,256 -139,342 -68,86 -164,151 -282,188 -119,37 -276,58 -469,58l0 -355c140,0 250,-15 328,-45 78,-28 138,-79 176,-145 38,-65 64,-153 70,-256 6,-104 10,-230 10,-378l0 -1145 347 0 0 607c0,143 26,259 79,343 53,84 151,126 293,126 114,0 171,57 171,172 0,71 -15,119 -41,144 -26,25 -71,39 -130,39zm-2 0c-111,0 -171,-57 -171,-171 0,-71 14,-120 40,-145 26,-24 71,-39 131,-39l667 0 0 -1288 351 0 0 1643 -1018 0zm175 644c0,-62 23,-116 67,-159 44,-43 98,-66 161,-66 62,0 116,22 160,66 44,44 66,97 66,159 0,63 -23,117 -66,161 -43,43 -98,67 -160,67 -63,0 -116,-23 -161,-67 -45,-45 -67,-98 -67,-161zm556 0c0,-62 23,-115 67,-159 45,-44 98,-66 162,-66 62,0 115,22 159,66 44,44 66,97 66,159 0,63 -22,117 -66,161 -44,44 -97,67 -159,67 -64,0 -117,-23 -162,-67 -44,-44 -67,-98 -67,-161zm2589 -644c-117,0 -216,-25 -295,-73 -78,-48 -160,-136 -240,-261 -33,77 -74,139 -123,184 -49,44 -105,80 -166,101 -62,21 -126,36 -194,40 -68,5 -139,9 -206,9l-651 0 0 -355 767 0c120,0 212,-15 276,-45 63,-29 95,-73 95,-130 0,-53 -15,-108 -43,-163 -27,-54 -63,-112 -105,-175l-455 -669 330 -206 514 850c57,94 108,177 150,245 41,67 84,124 122,166 38,41 77,75 112,95 34,22 72,32 112,32 114,0 171,57 171,172 0,71 -14,119 -41,144 -26,26 -70,39 -130,39zm0 0c-111,0 -171,-57 -171,-171 0,-71 14,-120 40,-145 26,-24 71,-39 131,-39l175 0c36,0 72,-5 108,-12 36,-7 75,-28 111,-55 36,-28 74,-69 109,-118 34,-49 70,-119 101,-203 65,-181 135,-330 207,-441 72,-112 147,-200 223,-261 75,-60 153,-103 231,-122 79,-21 157,-30 234,-30 106,0 205,21 297,61 93,40 175,100 240,175 66,75 121,166 158,269 37,103 56,220 56,349 0,249 -57,443 -174,586 -118,142 -301,213 -548,213 -137,0 -274,-24 -409,-69 -134,-45 -276,-122 -421,-231 -37,57 -76,102 -114,135 -37,31 -79,57 -123,72 -42,16 -88,27 -132,30 -44,3 -96,7 -145,7l-184 0zm1896 -755c0,-62 -10,-124 -28,-185 -16,-59 -45,-114 -81,-158 -35,-45 -80,-83 -130,-108 -51,-27 -111,-41 -180,-41 -119,0 -230,53 -330,159 -100,104 -194,290 -282,554 106,68 212,124 315,165 103,41 210,62 319,62 119,0 217,-35 288,-101 72,-68 109,-184 109,-347zm2258 755c-112,0 -216,-14 -311,-39 -95,-25 -179,-68 -249,-126 -69,-57 -127,-136 -167,-232 -41,-96 -62,-216 -62,-358 0,-114 20,-227 56,-336 36,-109 91,-207 162,-293 70,-85 160,-154 264,-205 107,-51 228,-78 365,-78 152,0 281,29 384,84 103,54 187,133 249,231 62,98 110,215 135,350 26,135 41,287 41,447l0 401c0,212 -29,389 -86,523 -56,134 -140,242 -244,319 -104,79 -236,134 -389,162 -152,27 -327,43 -517,43l-180 0 0 -355 132 0c137,0 261,-6 374,-17 113,-11 210,-36 292,-77 81,-40 146,-100 190,-174 45,-76 69,-181 69,-312l0 -81c-52,31 -119,61 -202,85 -82,25 -184,38 -306,38zm-446 -794c0,162 45,279 131,348 85,69 203,104 348,104 109,0 204,-15 287,-43 82,-28 145,-59 188,-93l0 -158c0,-97 -9,-190 -24,-274 -14,-85 -42,-160 -78,-220 -36,-60 -86,-110 -146,-145 -60,-35 -133,-53 -219,-53 -88,0 -163,17 -223,51 -62,34 -113,77 -151,128 -37,51 -68,109 -86,171 -18,62 -27,124 -27,184zm7278 794c-111,0 -200,-27 -267,-80 -67,-52 -112,-118 -136,-198 -26,60 -61,108 -107,143 -46,36 -95,64 -145,83 -50,19 -102,36 -149,41 -48,6 -91,11 -125,11 -96,0 -175,-10 -238,-27 -62,-16 -117,-40 -160,-65 -42,-25 -77,-57 -101,-90 -24,-32 -44,-65 -58,-96 -51,117 -130,193 -233,226 -103,34 -222,52 -354,52 -175,0 -302,-21 -381,-61 -78,-40 -135,-90 -167,-148l0 157c0,370 -103,642 -308,807 -205,166 -494,248 -865,248 -394,0 -690,-87 -884,-260 -194,-173 -292,-428 -292,-759l0 -659 346 0 0 585c0,134 20,253 54,348 35,96 89,174 158,231 68,57 158,101 263,125 105,25 227,39 363,39 142,0 267,-11 369,-30 102,-18 187,-56 254,-110 68,-54 118,-129 148,-218 30,-90 48,-209 48,-351l0 -1375 346 0 0 607c0,69 6,137 16,194 9,58 31,109 62,148 31,38 79,71 142,93 61,23 147,34 252,34 55,0 105,-3 148,-8 42,-5 80,-20 108,-41 29,-21 53,-53 68,-93 15,-40 24,-98 24,-169l0 -765 349 0 0 607c0,69 6,136 18,194 11,58 33,109 62,148 28,38 73,71 127,93 52,23 124,34 209,34 46,0 89,-3 128,-8 39,-5 74,-21 100,-41 27,-21 49,-53 65,-93 16,-41 24,-98 24,-169l0 -977 351 0 0 819c0,69 6,136 15,194 10,58 29,109 56,148 25,38 65,71 113,93 46,23 109,34 184,34 114,0 172,57 172,172 0,71 -15,119 -41,144 -27,26 -70,39 -131,39zm3 0c-111,0 -171,-57 -171,-171 0,-71 14,-120 41,-145 25,-24 70,-39 130,-39l622 0 11 0 11 0 612 0 11 0 10 0 140 0c96,0 175,-3 240,-8 63,-5 118,-20 156,-41 38,-20 67,-53 83,-93 16,-40 25,-98 25,-169l0 -769 351 0 0 611c0,69 6,137 14,194 8,58 30,109 60,148 30,38 77,71 133,93 56,23 135,34 235,34 62,0 118,-3 165,-8 45,-5 87,-20 117,-41 31,-20 55,-53 70,-93 16,-41 24,-98 24,-169l0 -765 350 0 0 607c0,69 7,137 16,194 10,58 30,109 57,148 26,38 65,71 113,93 48,24 110,34 184,34l360 0 0 -1288 349 0 0 1643 -709 0c-109,0 -201,-27 -268,-80 -68,-52 -113,-118 -134,-198 -52,117 -134,193 -241,226 -108,34 -240,52 -393,52 -100,0 -183,-9 -247,-24 -63,-16 -118,-38 -160,-64 -41,-24 -77,-57 -100,-91 -23,-34 -45,-69 -62,-103 -25,60 -58,109 -95,143 -39,35 -91,65 -151,86 -61,20 -138,37 -227,42 -89,6 -200,11 -323,11l-131 0 -11 0 -10 0 -613 0 -11 0 -10 0 -623 0zm6629 0c-11,173 -47,317 -108,431 -62,115 -147,207 -252,274 -105,66 -232,118 -378,145 -145,28 -312,43 -490,43l-180 0 0 -355 133 0c131,0 253,-8 366,-20 111,-11 210,-37 291,-76 81,-39 147,-94 193,-162 45,-69 71,-163 74,-280l-483 0c-115,0 -225,-13 -323,-39 -98,-25 -184,-68 -257,-126 -72,-57 -131,-135 -172,-228 -41,-92 -61,-211 -61,-350 0,-116 19,-231 57,-341 37,-112 95,-211 167,-295 73,-85 162,-154 266,-208 104,-53 223,-80 356,-80 148,0 273,27 376,80 103,54 188,128 251,224 64,96 111,215 140,351 27,136 42,290 42,457l0 200 301 0c115,0 172,57 172,172 0,71 -15,119 -41,144 -27,25 -72,39 -131,39l-309 0zm-1304 -778c0,145 42,252 125,321 83,67 207,102 370,102l458 0 0 -281c0,-214 -37,-384 -107,-506 -70,-123 -194,-186 -368,-186 -82,0 -154,18 -214,49 -58,31 -109,76 -148,128 -38,52 -68,112 -87,177 -20,65 -29,130 -29,196zm1611 778c-111,0 -171,-57 -171,-171 0,-71 15,-120 41,-145 25,-24 70,-39 130,-39l175 0c36,0 72,-5 108,-12 36,-7 75,-28 111,-55 36,-28 74,-69 109,-118 35,-49 71,-119 101,-203 66,-181 136,-330 208,-441 71,-112 147,-200 222,-261 75,-60 154,-103 232,-122 78,-21 156,-30 233,-30 106,0 206,21 298,61 92,40 174,100 239,175 66,75 121,166 158,269 38,103 57,220 57,349 0,249 -58,443 -175,586 -117,142 -300,213 -548,213 -137,0 -273,-24 -409,-69 -134,-45 -276,-122 -421,-231 -37,57 -76,102 -114,135 -37,31 -79,57 -122,72 -42,16 -89,27 -133,30 -44,3 -95,7 -145,7l-184 0zm1896 -755c0,-62 -10,-124 -27,-185 -17,-59 -46,-114 -82,-158 -35,-45 -80,-83 -130,-108 -51,-27 -111,-41 -179,-41 -120,0 -231,53 -330,159 -100,104 -195,290 -283,554 106,68 212,124 315,165 104,41 210,62 319,62 120,0 217,-35 288,-101 72,-68 109,-184 109,-347zm-31175 5835c0,225 -27,412 -81,560 -54,149 -132,269 -233,360 -101,92 -225,156 -372,196 -147,38 -312,58 -495,58 -776,0 -1164,-369 -1164,-1107l0 -669 551 0 0 648c0,198 50,351 149,456 99,106 259,158 480,158 210,0 365,-44 466,-132 101,-88 152,-239 152,-453l0 -1149 552 0 -5 1074zm-1460 -1312c0,-82 30,-152 91,-213 59,-60 131,-91 215,-91 82,0 153,29 213,89 60,60 90,132 90,215 0,82 -30,153 -90,213 -60,60 -131,90 -213,90 -82,0 -153,-30 -214,-90 -61,-60 -92,-131 -92,-213zm3536 1631c0,199 -26,370 -76,514 -51,144 -132,263 -242,357 -110,93 -251,163 -424,207 -173,45 -380,67 -623,67l-132 0 0 -521 99 0c154,0 284,-11 388,-31 103,-20 186,-48 247,-83 62,-36 106,-78 135,-128 29,-49 45,-104 50,-163 -84,25 -188,37 -312,37 -114,0 -222,-14 -322,-43 -99,-28 -185,-74 -258,-138 -72,-64 -130,-147 -174,-249 -42,-100 -65,-222 -65,-364 0,-114 20,-227 58,-338 39,-111 95,-211 168,-299 73,-88 163,-159 273,-211 108,-52 234,-78 376,-78 158,0 289,27 396,80 107,54 192,130 256,229 64,98 110,214 139,351 29,134 43,282 43,445l0 359zm-1161 -590c0,144 29,242 87,292 56,52 136,77 235,77 114,0 209,-20 283,-61l0 -209c0,-143 -22,-259 -64,-345 -42,-86 -119,-130 -230,-130 -113,0 -191,37 -239,110 -48,74 -72,163 -72,266zm1946 -666l557 0 0 1273c0,204 -16,378 -47,521 -32,143 -87,259 -165,346 -78,89 -186,154 -325,195 -138,41 -315,63 -529,66l0 -521c114,-3 206,-16 274,-41 69,-25 121,-60 155,-109 35,-48 56,-109 66,-186 10,-76 14,-166 14,-271l0 -1273zm-43 -926c0,-81 30,-153 91,-214 59,-60 131,-90 215,-90 82,0 153,30 213,89 60,61 90,133 90,215 0,82 -30,153 -90,213 -60,60 -131,90 -213,90 -82,0 -153,-30 -214,-90 -61,-60 -92,-131 -92,-213zm2123 2182c0,97 -13,164 -40,201 -27,37 -70,55 -127,55l-180 0c-97,0 -186,-11 -267,-32 -80,-22 -150,-57 -209,-106 -58,-49 -104,-116 -136,-198 -34,-83 -51,-186 -51,-308l0 -2404 557 0 0 2327c0,100 18,163 53,190 36,26 86,39 152,39l81 0c23,0 44,3 64,7 21,5 38,15 55,31 15,15 27,38 36,69 9,32 12,74 12,129zm-171 256c-22,0 -44,-2 -64,-7 -20,-4 -38,-13 -54,-29 -16,-16 -28,-40 -37,-71 -8,-31 -12,-74 -12,-128 0,-97 14,-165 41,-202 27,-37 69,-55 126,-55l634 0c22,0 43,3 63,7 20,5 38,15 54,31 16,15 29,38 37,69 8,32 12,74 12,129 0,97 -13,164 -40,201 -27,37 -70,55 -126,55l-634 0zm634 0c-22,0 -44,-2 -64,-7 -21,-4 -38,-13 -55,-29 -16,-16 -27,-40 -36,-71 -9,-31 -12,-74 -12,-128 0,-97 13,-165 40,-202 28,-37 69,-55 127,-55l633 0c23,0 44,3 64,7 20,5 38,15 54,31 16,15 28,38 37,69 7,32 12,74 12,129 0,97 -14,164 -41,201 -26,37 -69,55 -126,55l-633 0zm633 0c-22,0 -44,-2 -64,-7 -20,-4 -38,-13 -54,-29 -16,-16 -28,-40 -37,-71 -9,-31 -12,-74 -12,-128 0,-97 14,-165 40,-202 28,-37 70,-55 127,-55l633 0c23,0 44,3 64,7 20,5 38,15 54,31 16,15 28,38 37,69 8,32 12,74 12,129 0,97 -13,164 -40,201 -27,37 -70,55 -127,55l-633 0zm633 0c-21,0 -43,-2 -63,-7 -21,-4 -38,-13 -55,-29 -16,-16 -28,-40 -36,-71 -9,-31 -12,-74 -12,-128 0,-97 13,-165 40,-202 28,-37 69,-55 126,-55l634 0c22,0 44,3 63,7 21,5 38,15 55,31 16,15 28,38 37,69 7,32 11,74 11,129 0,97 -13,164 -40,201 -27,37 -69,55 -126,55l-634 0zm634 0c-22,0 -44,-2 -64,-7 -21,-4 -38,-13 -55,-29 -15,-16 -27,-40 -36,-71 -9,-31 -12,-74 -12,-128 0,-97 13,-165 40,-202 28,-37 70,-55 127,-55l633 0c23,0 44,3 64,7 20,5 38,15 54,31 16,15 28,38 37,69 8,32 12,74 12,129 0,97 -13,164 -40,201 -27,37 -70,55 -127,55l-633 0zm633 0c-22,0 -43,-2 -64,-7 -20,-4 -38,-13 -54,-29 -16,-16 -28,-40 -36,-71 -9,-31 -13,-74 -13,-128 0,-97 14,-165 41,-202 27,-37 69,-55 126,-55l633 0c23,0 45,3 64,7 21,5 38,15 55,31 16,15 28,38 37,69 7,32 11,74 11,129 0,97 -13,164 -40,201 -27,37 -69,55 -127,55l-633 0z"/>
   </g>
  </g>
 </g>
</svg>
