<?xml version="1.0" encoding="UTF-8"?>
<!DOCTYPE svg PUBLIC "-//W3C//DTD SVG 1.1//EN" "http://www.w3.org/Graphics/SVG/1.1/DTD/svg11.dtd">
<!-- Creator: CorelDRAW X7 -->
<svg xmlns="http://www.w3.org/2000/svg" xml:space="preserve" width="4.49268in" height="1.4224in" version="1.1" style="shape-rendering:geometricPrecision; text-rendering:geometricPrecision; image-rendering:optimizeQuality; fill-rule:evenodd; clip-rule:evenodd"
viewBox="0 0 44927 14224"
 xmlns:xlink="http://www.w3.org/1999/xlink">
 <defs>
  <style type="text/css">
   <![CDATA[
    .fil2 {fill:#5C589A}
    .fil0 {fill:#8480BC}
    .fil1 {fill:white}
   ]]>
  </style>
 </defs>
 <g id="Layer_x0020_1">
  <metadata id="CorelCorpID_0Corel-Layer"/>
  <g id="_1503010285184">
   <path class="fil0" d="M7112 0l30703 0c3911,0 7112,3201 7112,7112 0,3911 -3200,7112 -7112,7112l-30703 0c-3911,0 -7112,-3200 -7112,-7112 0,-3912 3200,-7112 7112,-7112z"/>
   <path class="fil1" d="M35442 7239l0 0 0 -254 0 0 0 -29 4556 0 -1710 -1710 223 -223 2089 2089 -2089 2091 -223 -223 1710 -1711 -4556 0 0 -30zm-2452 -127c0,-1344 523,-2608 1473,-3559 951,-948 2213,-1473 3557,-1471 1344,0 2606,523 3557,1473 951,949 1473,2213 1473,3557 0,1344 -522,2608 -1473,3557 -951,951 -2213,1473 -3557,1473 -1344,2 -2606,-522 -3557,-1471 -950,-951 -1473,-2215 -1473,-3559zm9746 0c0,-1260 -491,-2444 -1380,-3336 -892,-889 -2075,-1380 -3336,-1380 -1260,0 -2444,491 -3334,1380 -891,892 -1382,2076 -1382,3336 0,1261 491,2444 1382,3336 890,890 2074,1381 3334,1381 1261,0 2444,-491 3336,-1381 889,-892 1380,-2075 1380,-3336z"/>
   <polygon class="fil2" points="30408,2059 29997,2059 29997,12166 30408,12166 "/>
   <polygon class="fil1" points="29791,2059 29997,2059 29997,12166 29791,12166 "/>
  </g>
 </g>
</svg>
