<?xml version="1.0" encoding="UTF-8"?>
<!DOCTYPE svg PUBLIC "-//W3C//DTD SVG 1.1//EN" "http://www.w3.org/Graphics/SVG/1.1/DTD/svg11.dtd">
<!-- Creator: CorelDRAW X7 -->
<svg xmlns="http://www.w3.org/2000/svg" xml:space="preserve" width="4.49268in" height="1.4224in" version="1.1" style="shape-rendering:geometricPrecision; text-rendering:geometricPrecision; image-rendering:optimizeQuality; fill-rule:evenodd; clip-rule:evenodd"
viewBox="0 0 44927 14224"
 xmlns:xlink="http://www.w3.org/1999/xlink">
 <defs>
  <style type="text/css">
   <![CDATA[
    .fil3 {fill:#5C589A}
    .fil0 {fill:#8480BC}
    .fil1 {fill:white}
    .fil2 {fill:white;fill-rule:nonzero}
   ]]>
  </style>
 </defs>
 <g id="Layer_x0020_1">
  <metadata id="CorelCorpID_0Corel-Layer"/>
  <g id="_1502834305104">
   <path class="fil0" d="M7112 0l30703 0c3911,0 7112,3201 7112,7112 0,3911 -3200,7112 -7112,7112l-30703 0c-3911,0 -7112,-3200 -7112,-7112 0,-3912 3200,-7112 7112,-7112z"/>
   <path class="fil1" d="M35442 7239l0 0 0 -254 0 0 0 -29 4556 0 -1710 -1710 223 -223 2089 2089 -2089 2091 -223 -223 1710 -1711 -4556 0 0 -30zm-2452 -127c0,-1344 523,-2608 1473,-3559 951,-948 2213,-1473 3557,-1471 1344,0 2606,523 3557,1473 951,949 1473,2213 1473,3557 0,1344 -522,2608 -1473,3557 -951,951 -2213,1473 -3557,1473 -1344,2 -2606,-522 -3557,-1471 -950,-951 -1473,-2215 -1473,-3559zm9746 0c0,-1260 -491,-2444 -1380,-3336 -892,-889 -2075,-1380 -3336,-1380 -1260,0 -2444,491 -3334,1380 -891,892 -1382,2076 -1382,3336 0,1261 491,2444 1382,3336 890,890 2074,1381 3334,1381 1261,0 2444,-491 3336,-1381 889,-892 1380,-2075 1380,-3336z"/>
   <path class="fil2" d="M4644 9477c-107,0 -209,-13 -308,-38 -98,-25 -191,-61 -278,-108 -87,-47 -167,-104 -241,-171 -74,-68 -139,-145 -193,-230 -64,-104 -113,-219 -148,-346 -35,-127 -51,-260 -51,-398 0,-88 5,-173 16,-255 10,-83 27,-168 50,-254 24,-86 54,-177 92,-272 38,-94 84,-198 139,-311l449 214c-48,97 -88,184 -120,261 -32,77 -58,150 -78,219 -20,68 -34,134 -43,198 -9,63 -13,128 -13,198 0,91 12,177 34,260 23,83 54,158 94,225 64,94 148,170 252,226 105,56 220,85 347,85l405 0c140,0 255,-15 344,-44 88,-29 157,-71 206,-124 50,-54 84,-120 101,-195 18,-76 27,-159 27,-252l0 -1342 497 0 0 1342c0,371 -98,649 -294,835 -196,185 -490,277 -881,277l-405 0zm-42 -2611l359 -363 367 368 -363 363 -363 -368zm3129 1537c-147,0 -273,-8 -377,-27 -106,-17 -194,-44 -266,-79 -72,-35 -129,-81 -173,-135 -43,-55 -76,-119 -98,-192 -23,-73 -38,-156 -45,-248 -7,-93 -11,-194 -11,-306l0 -1890 497 0 0 1890c0,106 3,191 11,255 7,64 26,113 58,149 30,35 78,58 141,70 63,11 151,17 263,17l0 496zm2486 0l-60 0c-117,0 -219,-11 -305,-32 -87,-22 -165,-53 -234,-93 -69,-38 -133,-86 -191,-141 -58,-55 -116,-117 -176,-184 -32,83 -83,154 -153,213 -69,58 -149,106 -239,142 -90,35 -186,61 -288,76 -103,16 -204,22 -304,19l-623 0 0 -496 651 0c87,0 169,-5 243,-16 75,-9 139,-26 194,-49 54,-24 98,-55 130,-93 32,-38 49,-86 54,-142 0,-57 -25,-130 -73,-218 -49,-87 -112,-185 -190,-292 -77,-109 -165,-223 -263,-343 -98,-120 -197,-243 -297,-366l85 -405 1731 -840 204 454 -1515 701c125,168 250,334 374,500 125,166 250,332 375,500 73,97 140,183 201,258 61,76 123,139 184,191 63,52 128,92 195,119 68,27 145,41 230,41l60 0 0 496zm-2020 -3023l1521 -661 104 224 -1651 720 26 -283zm3430 1347c3,10 9,32 18,66 8,34 18,77 29,127 11,49 22,105 32,166 12,62 22,123 33,185 9,62 17,122 24,181 6,58 9,109 9,153 0,137 -23,256 -68,357 -46,100 -105,182 -178,248 -73,65 -155,114 -246,145 -92,32 -183,48 -274,48l-861 0 0 -496 874 0c16,0 39,-3 69,-8 30,-4 60,-16 89,-36 30,-20 57,-51 79,-91 23,-41 35,-97 35,-167 0,-29 -3,-65 -7,-107 -5,-41 -11,-87 -19,-134 -9,-48 -17,-97 -28,-147 -9,-50 -19,-97 -28,-142 -10,-44 -19,-84 -28,-121 -9,-37 -17,-65 -22,-85l468 -142zm-242 2764l-335 -339 331 -343 343 343 -339 339zm-836 2l-335 -340 329 -343 343 343 -337 340zm2206 -1090l-497 0 0 -2877 497 0 0 2877zm1675 -121c-8,183 -42,348 -102,495 -60,147 -143,273 -247,376 -106,103 -232,183 -381,238 -150,56 -318,84 -505,84l-248 0 0 -497 248 0c127,0 238,-13 331,-40 93,-27 169,-69 229,-128 60,-58 105,-134 134,-228 29,-94 44,-208 44,-342l0 -1216 497 0 0 1258zm3001 722c121,0 226,-8 314,-23 89,-15 162,-42 219,-80 57,-37 100,-89 129,-152 28,-65 43,-145 44,-242 -18,-6 -48,-13 -88,-24 -41,-11 -89,-23 -144,-38 -55,-14 -115,-31 -180,-47 -64,-18 -130,-36 -196,-54 -67,-17 -132,-35 -197,-51 -65,-17 -124,-32 -178,-45 -35,-88 -61,-174 -77,-256 -17,-84 -26,-165 -26,-245 0,-152 29,-295 85,-430 55,-135 135,-253 239,-353 104,-101 230,-180 380,-239 150,-59 319,-88 506,-88 67,0 133,6 199,16 66,11 140,27 224,50l-125 479c-63,-19 -117,-32 -164,-41 -47,-8 -95,-13 -144,-13 -100,0 -193,15 -278,43 -86,29 -161,71 -224,125 -63,55 -113,121 -150,199 -36,79 -54,168 -54,268 0,8 0,16 0,25 0,8 0,17 2,25l700 179c128,32 220,87 277,163 57,77 86,171 86,284 0,185 -21,344 -64,478 -42,134 -110,244 -204,332 -94,87 -216,151 -365,193 -150,42 -332,63 -546,63l-421 0c-109,0 -214,-13 -313,-38 -100,-25 -194,-62 -282,-109 -88,-47 -168,-104 -242,-172 -73,-66 -137,-143 -193,-228 -131,-213 -197,-462 -197,-748 0,-88 6,-175 17,-262 13,-86 32,-175 57,-266 27,-91 60,-187 99,-286 40,-100 88,-208 144,-323l443 213c-47,98 -86,188 -119,270 -33,82 -60,159 -82,232 -21,73 -38,142 -48,209 -9,68 -14,135 -14,203 0,192 42,356 128,491 60,101 144,179 250,232 105,54 223,81 352,81l421 0zm3195 -601l-76 0c-55,0 -106,-3 -155,-10 -49,-6 -96,-25 -142,-55 -17,171 -56,327 -118,466 -63,140 -147,259 -251,359 -104,99 -229,176 -374,230 -145,55 -308,82 -489,82l-249 0 0 -497 249 0c127,0 238,-13 332,-40 93,-27 169,-69 229,-128 60,-58 104,-134 134,-228 29,-94 43,-208 43,-342l0 -1216 497 0 0 597c0,61 13,111 39,148 26,37 56,66 90,86 34,21 67,35 99,41 32,7 54,11 66,11l76 0 0 496zm1028 -1676c3,10 9,32 18,66 8,34 18,77 29,127 11,49 22,105 33,166 11,62 21,123 32,185 9,62 17,122 24,181 6,58 9,109 9,153 0,137 -23,256 -68,357 -46,100 -105,182 -178,248 -73,65 -155,114 -246,145 -92,32 -183,48 -274,48l-532 0 0 -496 545 0c16,0 39,-3 69,-8 30,-4 60,-16 90,-36 29,-20 56,-51 79,-91 22,-41 34,-97 34,-167 0,-29 -3,-65 -7,-107 -5,-41 -11,-87 -19,-134 -8,-48 -17,-97 -28,-147 -9,-50 -19,-97 -28,-142 -10,-44 -19,-84 -28,-121 -9,-37 -17,-65 -22,-85l468 -142zm-858 2372l359 -363 367 368 -364 363 -362 -368zm2487 -817c-8,183 -42,348 -101,495 -60,147 -143,273 -248,376 -105,103 -232,183 -381,238 -149,56 -318,84 -505,84l-247 0 0 -497 247 0c127,0 238,-13 332,-40 93,-27 169,-69 229,-128 60,-58 104,-134 134,-228 29,-94 43,-208 43,-342l0 -1216 497 0 0 1258zm1475 121c-146,0 -272,-8 -377,-27 -105,-17 -193,-44 -265,-79 -72,-35 -130,-81 -173,-135 -43,-55 -76,-119 -99,-192 -22,-73 -37,-156 -44,-248 -8,-93 -11,-194 -11,-306l0 -1890 497 0 0 1890c0,106 3,191 11,255 7,64 26,113 57,149 31,35 79,58 142,70 63,11 150,17 262,17l0 496zm-87 0l0 -496 1167 0c21,0 50,-2 87,-3 38,-2 74,-8 110,-16 36,-9 67,-22 93,-38 26,-17 39,-40 39,-69 0,-57 -21,-127 -65,-208 -43,-81 -99,-168 -166,-259 -68,-92 -145,-184 -229,-279 -85,-93 -169,-182 -251,-265 -84,-83 -162,-156 -235,-221 -73,-63 -132,-111 -176,-143l40 -451 1737 -794 181 435 -1461 645c51,49 108,104 171,167 63,62 128,129 195,198 66,70 132,143 198,218 66,75 127,150 186,225 58,75 109,149 154,221 46,72 81,140 106,204 22,55 38,109 48,161 9,52 14,99 14,142 0,53 -5,100 -15,139 -10,40 -21,74 -33,103 -16,35 -41,76 -74,121 -33,45 -79,87 -139,126 -59,38 -134,71 -223,97 -90,27 -199,40 -326,40l-1133 0z"/>
   <polygon class="fil3" points="30408,2059 29997,2059 29997,12166 30408,12166 "/>
   <polygon class="fil1" points="29791,2059 29997,2059 29997,12166 29791,12166 "/>
  </g>
 </g>
</svg>
