<?xml version="1.0" encoding="UTF-8"?>
<!DOCTYPE svg PUBLIC "-//W3C//DTD SVG 1.1//EN" "http://www.w3.org/Graphics/SVG/1.1/DTD/svg11.dtd">
<!-- Creator: CorelDRAW X7 -->
<svg xmlns="http://www.w3.org/2000/svg" xml:space="preserve" width="12.5511in" height="11.0726in" version="1.1" style="shape-rendering:geometricPrecision; text-rendering:geometricPrecision; image-rendering:optimizeQuality; fill-rule:evenodd; clip-rule:evenodd"
viewBox="0 0 125511 110726"
 xmlns:xlink="http://www.w3.org/1999/xlink">
 <defs>
  <style type="text/css">
   <![CDATA[
    .fil3 {fill:#D7B77D}
    .fil2 {fill:#E5D0AA}
    .fil0 {fill:#F4EBDC}
    .fil1 {fill:#F9F2E6}
    .fil4 {fill:white;fill-rule:nonzero}
   ]]>
  </style>
 </defs>
 <g id="Layer_x0020_1">
  <metadata id="CorelCorpID_0Corel-Layer"/>
  <g id="_2598328801376">
   <g>
    <path class="fil0" d="M0 14879c39435,-14284 68508,-5611 80655,1828 10606,6496 17770,14915 21139,23839 8026,21260 -3116,37247 -18497,42427 -26002,8757 -58896,-29669 -83297,1383l0 -69477z"/>
    <path class="fil1" d="M4119 99210c95,18788 37685,10941 49631,2055 5717,-4252 6881,-9699 -2843,-16298 -9832,-6672 -22407,-7494 -34536,-1466 -7039,3499 -12285,9030 -12252,15709z"/>
    <path class="fil1" d="M101993 85895c-1139,-14416 15493,-12614 21180,-7141 2721,2619 3563,6665 -198,12814 -3802,6218 -9149,8258 -14735,4996 -3242,-1893 -5842,-5545 -6247,-10669z"/>
    <path class="fil2" d="M13264 32768l13720 0 0 22605 -13720 0 0 -22605zm22576 29859l12905 0 0 -2418 14536 0 0 6467 -14536 0 0 -2447 -14507 0 0 -19343 -5651 0 0 12090 -16925 0 0 -25810 16925 0 0 12089 5651 0 0 -19343 14507 0 0 -2447 14536 0 0 6467 -14536 0 0 -2417 -12905 0 0 8069 12905 0 0 -2418 14536 0 0 6438 -14536 0 0 -2418 -12905 0 0 8069 12905 0 0 -2418 14536 0 0 6467 -14536 0 0 -2418 -12905 0 0 8069 12905 0 0 -2417 14536 0 0 6438 -14536 0 0 -2418 -12905 0 0 8069zm14536 -36297l0 -3233 11303 0 0 3233 -11303 0zm0 35481l0 3234 11303 0 0 -3234 -11303 0zm0 -16138l0 -3205 11303 0 0 3205 -11303 0zm0 6467l11303 0 0 3233 -11303 0 0 -3233zm11303 -16139l-11303 0 0 -3233 11303 0 0 3233z"/>
   </g>
   <g>
    <path class="fil3" d="M2438 0c-823,0 -1636,41 -2438,121l0 48451c802,80 1615,121 2438,121 13446,0 24347,-10900 24347,-24346 0,-13447 -10901,-24347 -24347,-24347z"/>
    <path class="fil4" d="M7107 25669c0,119 -17,203 -50,248 -34,45 -86,68 -156,68l-222 0c-120,0 -230,-13 -330,-39 -99,-27 -185,-71 -257,-132 -72,-61 -129,-143 -169,-245 -41,-102 -61,-228 -61,-380l0 -2971 686 0 0 2875c0,124 22,203 65,235 44,33 107,50 188,50l100 0c27,0 54,2 78,8 26,6 48,19 68,37 19,20 34,48 45,86 10,39 15,92 15,160zm423 -291c-50,-139 -75,-273 -75,-405 0,-169 30,-327 90,-476 60,-149 144,-268 252,-360 -56,4 -114,6 -173,8 -60,2 -120,6 -179,13l0 -479c101,-14 202,-24 302,-31 101,-7 200,-10 298,-10 658,0 1163,158 1515,474 353,316 529,777 529,1383l0 490 -3193 0c-28,0 -54,-2 -79,-8 -25,-5 -47,-17 -67,-36 -20,-21 -35,-50 -45,-88 -11,-39 -15,-92 -15,-159 0,-120 16,-203 50,-249 33,-45 85,-67 156,-67l634 0zm1420 -485c0,105 -8,197 -25,277 -16,80 -36,149 -61,208l565 0c0,-321 -60,-569 -179,-747 -119,-178 -295,-305 -527,-383 81,102 139,214 174,335 35,123 53,225 53,310zm-740 458c39,0 72,-17 97,-50 27,-33 47,-74 61,-121 15,-47 25,-97 30,-149 5,-53 8,-99 8,-138 0,-54 -4,-108 -11,-164 -7,-56 -19,-107 -37,-155 -18,-47 -40,-87 -67,-118 -27,-32 -60,-48 -101,-48 -35,0 -66,15 -92,44 -27,29 -49,68 -67,116 -18,48 -31,101 -40,161 -9,59 -13,117 -13,174 0,43 3,91 10,143 7,53 19,101 38,147 18,46 41,83 70,113 29,30 67,45 114,45zm5662 634c7,31 13,66 18,105 5,39 7,84 7,137 0,144 -27,276 -80,396 -55,120 -150,223 -288,312 -137,88 -322,157 -554,206 -232,49 -525,73 -882,73 -344,0 -629,-32 -852,-97 -223,-66 -401,-155 -534,-270 -132,-114 -224,-248 -277,-401 -52,-152 -78,-318 -78,-497l0 -876 685 0 0 853c0,228 83,394 249,498 166,105 439,157 818,157 246,0 443,-14 593,-41 149,-28 265,-63 349,-105 84,-42 138,-86 164,-133 25,-46 38,-86 38,-121 0,-91 -90,-168 -272,-232 -181,-63 -424,-133 -730,-211l0 -629c232,74 453,137 665,189 211,53 401,80 570,80l659 0c28,0 54,2 79,8 27,6 49,19 68,37 19,20 34,48 43,86 11,39 16,92 16,160 0,119 -17,203 -50,248 -33,45 -85,68 -156,68l-268 0zm1497 -607c74,0 145,-15 212,-44 67,-29 100,-91 100,-183 0,-64 -39,-149 -118,-255 -80,-107 -184,-220 -314,-341 -131,-120 -279,-239 -444,-357 -165,-118 -332,-220 -502,-308 24,-117 53,-213 87,-288 34,-76 70,-137 105,-183 35,-44 69,-79 103,-102 33,-23 60,-40 81,-51l1842 -811 0 706 -1247 518 0 16c211,137 386,272 523,406 138,135 248,265 330,391 83,126 140,246 172,360 32,115 47,222 47,321 0,85 -11,174 -35,269 -23,94 -68,182 -134,264 -66,81 -160,148 -282,201 -122,52 -281,78 -477,78l-1278 0c-27,0 -53,-2 -78,-8 -26,-5 -48,-17 -68,-36 -19,-21 -34,-50 -45,-88 -10,-39 -15,-92 -15,-159 0,-120 17,-203 51,-249 33,-45 85,-67 155,-67l1229 0zm-1039 -2317c21,-427 174,-713 459,-859l1667 -755 0 675 -2126 939zm4106 2924c-46,0 -110,-10 -191,-32 -81,-21 -151,-67 -211,-137 -3,238 -31,438 -83,599 -53,160 -132,290 -238,388 -105,99 -239,170 -400,212 -162,42 -356,65 -582,68l0 -644c144,-3 258,-20 344,-51 84,-30 148,-74 191,-133 41,-59 68,-136 80,-230 13,-93 18,-206 18,-336l0 -1572 681 0 0 897c0,137 41,232 125,284 83,53 172,80 266,80 28,0 54,2 79,8 25,6 47,19 67,37 20,20 35,48 45,86 11,39 15,92 15,160 0,119 -17,203 -50,248 -33,45 -85,68 -156,68zm-1542 -2712c0,-101 37,-189 111,-263 74,-75 163,-113 266,-113 101,0 189,37 263,111 74,74 111,163 111,265 0,102 -37,190 -111,263 -74,74 -162,111 -263,111 -101,0 -189,-37 -264,-111 -75,-73 -113,-161 -113,-263zm861 0c0,-101 37,-189 111,-263 74,-75 161,-113 263,-113 101,0 189,37 264,111 75,74 112,163 112,265 0,102 -37,190 -111,263 -74,74 -162,111 -265,111 -102,0 -189,-37 -263,-111 -74,-73 -111,-161 -111,-263zm-417 -765c0,-101 37,-189 111,-264 73,-74 162,-112 265,-112 101,0 189,37 263,111 74,73 111,162 111,265 0,101 -37,189 -111,263 -74,74 -162,111 -263,111 -101,0 -189,-37 -264,-111 -75,-74 -112,-162 -112,-263zm1096 3477c-28,0 -54,-2 -79,-8 -25,-5 -47,-18 -67,-39 -20,-22 -35,-52 -45,-91 -11,-38 -15,-91 -15,-158 0,-121 17,-203 50,-249 33,-45 85,-68 156,-68l834 0 0 -1487 691 0 0 2100 -1525 0zm59 887c0,-101 37,-189 110,-263 74,-74 162,-111 263,-111 102,0 190,37 263,111 74,74 111,162 111,263 0,101 -37,189 -111,263 -73,74 -161,111 -263,111 -101,0 -189,-37 -263,-111 -73,-74 -110,-162 -110,-263zm858 0c0,-101 37,-189 111,-263 74,-74 163,-111 266,-111 101,0 189,37 263,111 73,74 110,162 110,263 0,101 -37,189 -110,263 -74,74 -162,111 -263,111 -102,0 -190,-37 -265,-111 -75,-74 -112,-162 -112,-263zm3154 -1203c0,245 -31,457 -94,635 -62,177 -162,324 -297,440 -136,117 -310,202 -523,256 -213,56 -469,83 -768,83l-163 0 0 -644 121 0c191,0 350,-13 479,-38 127,-24 229,-59 305,-102 76,-44 131,-96 166,-158 36,-61 57,-128 63,-202 -105,31 -233,46 -386,46 -141,0 -273,-17 -396,-52 -122,-36 -229,-93 -319,-172 -88,-79 -160,-181 -213,-307 -53,-125 -80,-275 -80,-450 0,-141 23,-281 71,-418 47,-137 116,-260 206,-370 90,-109 202,-196 337,-260 133,-64 288,-97 463,-97 195,0 357,34 488,100 132,66 237,160 316,282 79,121 136,266 172,433 35,166 52,350 52,551l0 444zm-1430 -730c0,179 35,300 106,362 70,62 168,94 291,94 141,0 257,-24 348,-75l0 -257c0,-179 -26,-321 -79,-428 -52,-106 -147,-160 -284,-160 -138,0 -236,46 -294,136 -59,92 -88,201 -88,328z"/>
   </g>
  </g>
 </g>
</svg>
