<?xml version="1.0" encoding="UTF-8"?>
<!DOCTYPE svg PUBLIC "-//W3C//DTD SVG 1.1//EN" "http://www.w3.org/Graphics/SVG/1.1/DTD/svg11.dtd">
<!-- Creator: CorelDRAW X7 -->
<svg xmlns="http://www.w3.org/2000/svg" xml:space="preserve" width="2.67846in" height="4.86933in" version="1.1" style="shape-rendering:geometricPrecision; text-rendering:geometricPrecision; image-rendering:optimizeQuality; fill-rule:evenodd; clip-rule:evenodd"
viewBox="0 0 26785 48693"
 xmlns:xlink="http://www.w3.org/1999/xlink">
 <defs>
  <style type="text/css">
   <![CDATA[
    .fil0 {fill:#D7B77D}
    .fil1 {fill:white;fill-rule:nonzero}
   ]]>
  </style>
 </defs>
 <g id="Layer_x0020_1">
  <metadata id="CorelCorpID_0Corel-Layer"/>
  <g id="_2596526577472">
   <path class="fil0" d="M24347 0c823,0 1636,41 2438,121l0 48451c-802,80 -1615,121 -2438,121 -13447,0 -24347,-10900 -24347,-24346 0,-13447 10900,-24347 24347,-24347z"/>
   <path class="fil1" d="M4330 25291c0,120 -17,203 -51,248 -33,46 -85,69 -155,69l-222 0c-120,0 -231,-13 -330,-40 -99,-26 -185,-71 -257,-131 -73,-61 -129,-143 -169,-245 -41,-102 -61,-229 -61,-380l0 -2971 686 0 0 2875c0,124 22,203 65,235 44,33 107,49 188,49l100 0c27,0 53,3 78,9 25,6 48,18 68,37 19,19 34,47 45,86 10,39 15,92 15,159zm1804 -665c0,-53 -6,-106 -18,-158 -12,-53 -31,-100 -58,-140 -27,-40 -63,-74 -106,-100 -43,-26 -97,-40 -161,-40 -46,0 -95,12 -143,35 -49,23 -97,61 -141,113 -46,53 -89,121 -130,205 -40,85 -74,190 -102,317 88,53 172,96 251,130 78,34 164,51 255,51 113,0 201,-38 261,-114 61,-75 92,-175 92,-299zm-1742 374c42,0 95,-35 157,-104 62,-70 115,-173 165,-306 76,-202 161,-368 253,-500 92,-132 187,-238 284,-317 97,-79 195,-135 293,-166 97,-32 195,-48 291,-48 137,0 265,27 385,80 119,54 222,128 308,222 86,95 154,209 202,342 49,135 74,281 74,438 0,317 -77,568 -232,753 -155,186 -390,278 -707,278 -140,0 -282,-21 -424,-64 -143,-43 -293,-115 -452,-216 -90,101 -184,162 -279,184 -95,21 -199,32 -311,32l-280 0c-28,0 -54,-3 -79,-8 -25,-5 -48,-17 -68,-37 -19,-20 -34,-49 -44,-88 -11,-38 -15,-91 -15,-158 0,-121 16,-203 50,-249 33,-46 85,-68 156,-68l273 0zm4878 291c0,120 -17,203 -51,248 -33,46 -85,69 -155,69l-222 0c-120,0 -231,-13 -330,-40 -99,-26 -185,-71 -258,-131 -72,-61 -128,-143 -168,-245 -41,-102 -61,-229 -61,-380l0 -2971 686 0 0 2875c0,124 22,203 65,235 44,33 106,49 187,49l101 0c27,0 53,3 78,9 25,6 48,18 68,37 19,19 34,47 45,86 10,39 15,92 15,159zm396 -291l0 -1492 692 0 0 2100 -1300 0c-27,0 -53,-3 -78,-8 -25,-5 -48,-17 -68,-37 -19,-20 -34,-49 -44,-88 -11,-38 -15,-91 -15,-158 0,-121 16,-203 50,-249 33,-46 85,-68 155,-68l608 0zm-86 1479c0,-101 37,-189 111,-263 74,-74 162,-111 265,-111 102,0 189,37 263,111 74,74 110,162 110,263 0,101 -36,189 -110,263 -74,74 -161,111 -263,111 -102,0 -190,-37 -264,-111 -75,-74 -112,-162 -112,-263zm5447 -871c-148,0 -278,-21 -391,-63 -113,-42 -190,-83 -233,-123 -4,276 -39,504 -106,685 -66,181 -162,327 -287,438 -124,111 -276,189 -453,235 -178,45 -379,67 -605,67 -957,0 -1435,-454 -1435,-1366l0 -724 680 0 0 699c0,245 65,434 193,565 130,130 320,195 573,195 264,0 459,-55 583,-164 125,-109 188,-295 188,-560l0 -1752 679 0 0 897c0,113 30,201 91,266 60,65 155,97 286,97 101,0 189,-16 263,-46 74,-31 111,-100 111,-207l0 -1007 680 0 0 897c0,123 22,215 67,274 44,59 126,89 244,89l333 0 0 -1492 680 0 0 2100 -806 0c-101,0 -188,-7 -261,-20 -72,-14 -133,-34 -185,-58 -52,-26 -94,-55 -128,-88 -33,-34 -62,-70 -86,-108 -88,103 -191,173 -308,213 -118,41 -240,61 -367,61zm4019 -317c0,120 -16,204 -50,248 -33,46 -85,69 -155,69l-222 0c-121,0 -231,-13 -330,-40 -99,-27 -185,-71 -258,-131 -72,-61 -128,-143 -169,-245 -40,-102 -60,-229 -60,-380l0 -2971 686 0 0 2875c0,124 22,202 65,235 44,33 106,49 187,49l101 0c27,0 53,3 78,9 25,6 47,19 68,37 19,19 34,47 45,86 10,39 14,92 14,159zm63 -291c42,0 95,-35 157,-104 62,-70 116,-172 165,-306 77,-201 162,-367 253,-500 93,-132 187,-238 284,-317 97,-79 195,-134 292,-166 98,-32 196,-48 292,-48 137,0 265,27 385,80 119,53 222,127 308,222 86,94 154,209 202,342 49,135 74,281 74,438 0,25 -1,48 -3,69 -2,21 -2,42 -2,63 46,84 117,143 212,176 95,35 185,51 270,51 27,0 53,3 78,9 25,6 47,19 66,37 18,19 33,47 45,86 11,39 16,92 16,159 0,120 -16,204 -50,248 -33,46 -85,69 -155,69 -135,0 -255,-25 -360,-76 -106,-51 -197,-132 -275,-246 -151,258 -411,386 -781,386 -140,0 -282,-21 -425,-64 -142,-43 -292,-115 -451,-216 -90,101 -184,162 -280,184 -95,22 -198,32 -310,32l-281 0c-27,0 -53,-3 -78,-8 -25,-5 -47,-17 -68,-37 -19,-20 -34,-49 -45,-88 -10,-38 -14,-91 -14,-158 0,-121 16,-203 50,-249 33,-46 85,-68 155,-68l274 0zm1742 -374c0,-53 -7,-106 -18,-158 -12,-53 -32,-99 -58,-140 -27,-39 -63,-74 -106,-100 -44,-26 -97,-40 -161,-40 -46,0 -95,12 -143,35 -49,23 -97,61 -142,113 -45,53 -88,121 -129,205 -40,85 -74,190 -102,317 88,53 172,96 251,130 78,34 163,51 255,51 113,0 200,-38 261,-114 61,-75 92,-175 92,-299zm1752 374l0 -1492 691 0 0 2100 -1299 0c-27,0 -54,-3 -78,-8 -26,-5 -48,-17 -68,-37 -19,-20 -34,-49 -45,-88 -10,-38 -15,-91 -15,-158 0,-121 17,-203 50,-249 34,-46 86,-68 156,-68l608 0zm-514 -2405c0,-101 37,-189 111,-264 74,-74 163,-112 266,-112 101,0 189,37 263,111 73,74 110,162 110,265 0,101 -37,189 -110,263 -74,74 -162,111 -263,111 -102,0 -190,-37 -264,-111 -75,-74 -113,-162 -113,-263zm861 0c0,-101 37,-189 111,-264 74,-74 161,-112 263,-112 101,0 189,37 264,111 75,74 112,162 112,265 0,101 -37,189 -111,263 -74,74 -162,111 -265,111 -102,0 -189,-37 -263,-111 -74,-74 -111,-162 -111,-263z"/>
  </g>
 </g>
</svg>
