<?xml version="1.0" encoding="UTF-8"?>
<!DOCTYPE svg PUBLIC "-//W3C//DTD SVG 1.1//EN" "http://www.w3.org/Graphics/SVG/1.1/DTD/svg11.dtd">
<!-- Creator: CorelDRAW X7 -->
<svg xmlns="http://www.w3.org/2000/svg" xml:space="preserve" width="2.22748in" height="2.19681in" version="1.1" style="shape-rendering:geometricPrecision; text-rendering:geometricPrecision; image-rendering:optimizeQuality; fill-rule:evenodd; clip-rule:evenodd"
viewBox="0 0 22275 21968"
 xmlns:xlink="http://www.w3.org/1999/xlink">
 <defs>
  <style type="text/css">
   <![CDATA[
    .fil0 {fill:#BFCBE5}
    .fil1 {fill:#E9EDF6}
    .fil2 {fill:#F5F7FA}
    .fil3 {fill:#A38755;fill-rule:nonzero}
   ]]>
  </style>
 </defs>
 <g id="Layer_x0020_1">
  <metadata id="CorelCorpID_0Corel-Layer"/>
  <g id="_2598378834384">
   <circle class="fil0" cx="11600" cy="11293" r="10675"/>
   <circle class="fil1" transform="matrix(0.345373 1.28895 -1.28895 0.345372 10677.6 10677.9)" r="8000"/>
   <circle class="fil2" transform="matrix(0.228713 0.853566 -0.853566 0.228712 8042 11388)" r="8000"/>
   <path class="fil3" d="M10678 4489c-1652,0 -3207,645 -4377,1815 -1167,1167 -1812,2722 -1812,4374 0,1654 645,3207 1812,4376 1170,1168 2725,1813 4377,1813 1653,0 3206,-645 4376,-1813 1170,-1169 1812,-2722 1812,-4376 0,-1652 -642,-3207 -1812,-4374 -1170,-1170 -2723,-1815 -4376,-1815zm694 5919l4089 -3016 0 0c662,960 1018,2095 1018,3286 0,1549 -602,3005 -1697,4102 -1097,1097 -2553,1699 -4104,1699 -1549,0 -3006,-602 -4102,-1699 -161,-161 -311,-330 -450,-505l2594 -1913 360 -266 904 -666 387 -285 294 -216 0 0 707 -521 0 0zm3860 -3327l0 0 -2549 1879c-26,-118 -63,-227 -107,-332 -103,-238 -258,-437 -446,-600 -210,-180 -471,-310 -758,-394l0 -964 -388 0 0 885c-107,-15 -216,-24 -326,-24 -96,0 -192,2 -287,13l0 -874 -387 0 0 940c-294,75 -566,206 -782,390 -127,110 -234,236 -320,373 -173,279 -259,604 -250,925 8,324 116,643 334,898 90,105 197,199 323,276 215,133 450,225 694,296l0 182 -4089 3014c-662,-960 -1017,-2095 -1017,-3286 0,-1551 602,-3005 1698,-4102 1097,-1095 2554,-1701 4103,-1701 1550,0 3007,606 4104,1701 161,160 310,330 450,505l0 0zm-6397 5677c97,223 238,411 412,563 203,180 458,313 737,397l0 968 387 0 0 -885c107,15 219,24 328,24 94,2 191,-2 285,-13l0 874 388 0 0 -943c289,-77 557,-205 771,-392 261,-227 439,-561 505,-912 65,-343 24,-707 -150,-1005 -55,-96 -124,-180 -201,-257 -77,-75 -161,-139 -253,-195 -154,-96 -319,-169 -490,-227l-570 418 0 2251c-92,11 -187,17 -283,15 -111,0 -221,-10 -330,-28l0 -1784 -388 285 0 1399 -134 -56c-129,-60 -247,-135 -348,-225 -132,-118 -242,-263 -314,-435 -11,-25 -20,-49 -28,-75l-324 238 0 0zm2149 -2547l-409 302 -204 -45 0 -2536c95,-11 189,-15 285,-15 109,2 221,10 328,25l0 2269zm-1000 -2200l0 2352c-176,-56 -343,-126 -491,-218 -92,-58 -169,-125 -234,-200 -158,-184 -235,-417 -242,-657 -6,-245 60,-497 193,-712 67,-105 148,-201 242,-282 148,-127 330,-221 531,-283l1 0zm1450 3112c145,50 283,110 407,187 68,43 133,92 186,143 54,52 99,110 137,174 125,216 152,484 105,741 -51,270 -184,523 -379,692 -143,124 -319,216 -512,281l-6 2 0 -2241 62 21 0 0zm897 -1904l-959 707 0 -1887c85,30 169,64 246,107 94,49 182,109 261,176 146,126 264,278 343,460 30,69 54,141 73,219 17,68 30,141 36,218l0 0z"/>
  </g>
 </g>
</svg>
