<?xml version="1.0" encoding="UTF-8"?>
<!DOCTYPE svg PUBLIC "-//W3C//DTD SVG 1.1//EN" "http://www.w3.org/Graphics/SVG/1.1/DTD/svg11.dtd">
<!-- Creator: CorelDRAW X7 -->
<svg xmlns="http://www.w3.org/2000/svg" xml:space="preserve" width="12.5511in" height="11.0726in" version="1.1" style="shape-rendering:geometricPrecision; text-rendering:geometricPrecision; image-rendering:optimizeQuality; fill-rule:evenodd; clip-rule:evenodd"
viewBox="0 0 125511 110726"
 xmlns:xlink="http://www.w3.org/1999/xlink">
 <defs>
  <style type="text/css">
   <![CDATA[
    .fil3 {fill:#D7B77D}
    .fil2 {fill:#E5D0AA}
    .fil0 {fill:#F4EBDC}
    .fil1 {fill:#F9F2E6}
    .fil4 {fill:white;fill-rule:nonzero}
   ]]>
  </style>
 </defs>
 <g id="Layer_x0020_1">
  <metadata id="CorelCorpID_0Corel-Layer"/>
  <g id="_1502797071728">
   <g>
    <path class="fil0" d="M0 14879c39435,-14284 68508,-5611 80655,1829 10606,6495 17770,14914 21139,23839 8026,21259 -3116,37247 -18497,42427 -26002,8756 -58896,-29669 -83297,1382l0 -69477z"/>
    <path class="fil1" d="M4119 99211c95,18788 37685,10940 49631,2055 5717,-4252 6881,-9699 -2843,-16298 -9832,-6672 -22407,-7494 -34536,-1466 -7039,3498 -12285,9030 -12252,15709z"/>
    <path class="fil1" d="M101993 85895c-1139,-14415 15493,-12614 21180,-7141 2721,2619 3563,6665 -198,12815 -3802,6217 -9149,8258 -14735,4996 -3242,-1893 -5842,-5546 -6247,-10670z"/>
    <path class="fil2" d="M13264 32768l13720 0 0 22606 -13720 0 0 -22606zm22576 29859l12905 0 0 -2418 14536 0 0 6467 -14536 0 0 -2447 -14507 0 0 -19342 -5651 0 0 12089 -16925 0 0 -25810 16925 0 0 12089 5651 0 0 -19342 14507 0 0 -2447 14536 0 0 6467 -14536 0 0 -2418 -12905 0 0 8069 12905 0 0 -2418 14536 0 0 6438 -14536 0 0 -2418 -12905 0 0 8069 12905 0 0 -2417 14536 0 0 6467 -14536 0 0 -2418 -12905 0 0 8069 12905 0 0 -2418 14536 0 0 6438 -14536 0 0 -2418 -12905 0 0 8069zm14536 -36296l0 -3234 11303 0 0 3234 -11303 0zm0 35481l0 3233 11303 0 0 -3233 -11303 0zm0 -16139l0 -3204 11303 0 0 3204 -11303 0zm0 6467l11303 0 0 3234 -11303 0 0 -3234zm11303 -16138l-11303 0 0 -3234 11303 0 0 3234z"/>
   </g>
   <g>
    <path class="fil3" d="M0 122l0 48451c14315,1423 26785,-9783 26785,-24226 0,-14443 -12470,-25649 -26785,-24225z"/>
    <path class="fil4" d="M7107 25669c0,120 -17,203 -50,248 -34,46 -86,69 -156,69l-222 0c-120,0 -230,-13 -330,-40 -99,-27 -185,-71 -257,-132 -72,-60 -129,-142 -169,-244 -41,-102 -61,-229 -61,-380l0 -2972 686 0 0 2876c0,124 22,202 65,235 44,32 107,49 188,49l100 0c27,0 54,3 78,9 26,6 48,18 68,37 19,19 34,47 45,86 10,39 15,91 15,159zm423 -291c-50,-138 -75,-273 -75,-405 0,-169 30,-327 90,-476 60,-148 144,-268 252,-359 -56,3 -114,6 -173,8 -60,1 -120,6 -179,13l0 -480c101,-14 202,-23 302,-30 101,-7 200,-11 298,-11 658,0 1163,158 1515,474 353,316 529,778 529,1384l0 490 -3193 0c-28,0 -54,-3 -79,-8 -25,-5 -47,-18 -67,-37 -20,-20 -35,-49 -45,-88 -11,-39 -15,-92 -15,-158 0,-121 16,-204 50,-249 33,-46 85,-68 156,-68l634 0zm1420 -485c0,105 -8,197 -25,277 -16,80 -36,149 -61,208l565 0c0,-320 -60,-568 -179,-747 -119,-178 -295,-305 -527,-382 81,102 139,213 174,335 35,122 53,225 53,309zm-740 459c39,0 72,-17 97,-51 27,-33 47,-73 61,-121 15,-47 25,-97 30,-149 5,-52 8,-98 8,-138 0,-53 -4,-108 -11,-163 -7,-57 -19,-108 -37,-155 -18,-48 -40,-87 -67,-119 -27,-32 -60,-47 -101,-47 -35,0 -66,15 -92,44 -27,29 -49,67 -67,116 -18,47 -31,101 -40,161 -9,59 -13,117 -13,174 0,42 3,90 10,142 7,53 19,102 38,147 18,46 41,84 70,114 29,30 67,45 114,45zm5662 634c7,31 13,66 18,104 5,39 7,85 7,138 0,144 -27,276 -80,396 -55,119 -150,223 -288,312 -137,88 -322,156 -554,206 -232,49 -525,73 -882,73 -344,0 -629,-33 -852,-98 -223,-65 -401,-155 -534,-269 -132,-115 -224,-248 -277,-401 -52,-152 -78,-319 -78,-497l0 -876 685 0 0 853c0,228 83,394 249,498 166,104 439,156 818,156 246,0 443,-14 593,-41 149,-27 265,-63 349,-105 84,-42 138,-86 164,-133 25,-45 38,-86 38,-120 0,-92 -90,-169 -272,-232 -181,-64 -424,-134 -730,-211l0 -629c232,74 453,137 665,189 211,53 401,79 570,79l659 0c28,0 54,3 79,9 27,6 49,18 68,37 19,19 34,47 43,86 11,39 16,91 16,159 0,120 -17,203 -50,248 -33,46 -85,69 -156,69l-268 0zm1497 -608c74,0 145,-15 212,-44 67,-29 100,-91 100,-183 0,-63 -39,-149 -118,-255 -80,-107 -184,-220 -314,-340 -131,-121 -279,-240 -444,-358 -165,-117 -332,-220 -502,-307 24,-117 53,-213 87,-289 34,-76 70,-136 105,-182 35,-45 69,-79 103,-103 33,-23 60,-40 81,-50l1842 -812 0 706 -1247 518 0 16c211,137 386,273 523,407 138,134 248,264 330,390 83,127 140,246 172,361 32,114 47,221 47,321 0,84 -11,173 -35,268 -23,94 -68,182 -134,264 -66,82 -160,149 -282,202 -122,51 -281,78 -477,78l-1278 0c-27,0 -53,-3 -78,-8 -26,-5 -48,-18 -68,-37 -19,-20 -34,-49 -45,-88 -10,-39 -15,-92 -15,-158 0,-121 17,-204 51,-249 33,-46 85,-68 155,-68l1229 0zm-1039 -2317c21,-427 174,-712 459,-858l1667 -755 0 674 -2126 939zm4106 2925c-46,0 -110,-11 -191,-33 -81,-21 -151,-67 -211,-137 -3,238 -31,438 -83,599 -53,160 -132,290 -238,389 -105,98 -239,170 -400,211 -162,42 -356,65 -582,69l0 -644c144,-4 258,-21 344,-51 84,-30 148,-74 191,-134 41,-59 68,-136 80,-230 13,-93 18,-205 18,-336l0 -1572 681 0 0 898c0,137 41,232 125,284 83,53 172,79 266,79 28,0 54,3 79,9 25,6 47,18 67,37 20,19 35,47 45,86 11,39 15,91 15,159 0,120 -17,203 -50,248 -33,46 -85,69 -156,69zm-1542 -2712c0,-101 37,-189 111,-264 74,-75 163,-113 266,-113 101,0 189,37 263,111 74,74 111,163 111,266 0,101 -37,189 -111,263 -74,74 -162,111 -263,111 -101,0 -189,-37 -264,-111 -75,-74 -113,-162 -113,-263zm861 0c0,-101 37,-189 111,-264 74,-75 161,-113 263,-113 101,0 189,37 264,111 75,74 112,163 112,266 0,101 -37,189 -111,263 -74,74 -162,111 -265,111 -102,0 -189,-37 -263,-111 -74,-74 -111,-162 -111,-263zm-417 -765c0,-102 37,-190 111,-264 73,-75 162,-113 265,-113 101,0 189,37 263,111 74,74 111,163 111,266 0,101 -37,189 -111,263 -74,74 -162,110 -263,110 -101,0 -189,-36 -264,-110 -75,-74 -112,-162 -112,-263zm1096 3477c-28,0 -54,-3 -79,-8 -25,-5 -47,-19 -67,-40 -20,-22 -35,-52 -45,-90 -11,-39 -15,-92 -15,-159 0,-120 17,-203 50,-249 33,-44 85,-67 156,-67l834 0 0 -1488 691 0 0 2101 -1525 0zm59 886c0,-101 37,-189 110,-263 74,-73 162,-110 263,-110 102,0 190,37 263,110 74,74 111,162 111,263 0,102 -37,190 -111,263 -73,74 -161,111 -263,111 -101,0 -189,-37 -263,-111 -73,-73 -110,-161 -110,-263zm858 0c0,-101 37,-189 111,-263 74,-73 163,-110 266,-110 101,0 189,37 263,110 73,74 110,162 110,263 0,102 -37,190 -110,263 -74,74 -162,111 -263,111 -102,0 -190,-37 -265,-111 -75,-73 -112,-161 -112,-263zm3154 -1203c0,246 -31,458 -94,635 -62,178 -162,325 -297,441 -136,116 -310,201 -523,256 -213,55 -469,83 -768,83l-163 0 0 -644 121 0c191,0 350,-14 479,-38 127,-25 229,-59 305,-103 76,-44 131,-96 166,-158 36,-60 57,-128 63,-202 -105,31 -233,47 -386,47 -141,0 -273,-18 -396,-53 -122,-35 -229,-92 -319,-172 -88,-79 -160,-181 -213,-307 -53,-124 -80,-275 -80,-450 0,-141 23,-280 71,-418 47,-137 116,-260 206,-369 90,-109 202,-196 337,-261 133,-64 288,-96 463,-96 195,0 357,33 488,99 132,66 237,160 316,282 79,122 136,266 172,433 35,167 52,350 52,552l0 443zm-1430 -730c0,179 35,300 106,362 70,63 168,95 291,95 141,0 257,-25 348,-75l0 -258c0,-179 -26,-321 -79,-427 -52,-107 -147,-161 -284,-161 -138,0 -236,46 -294,137 -59,91 -88,200 -88,327z"/>
   </g>
  </g>
 </g>
</svg>
