<?xml version="1.0" encoding="UTF-8"?>
<!DOCTYPE svg PUBLIC "-//W3C//DTD SVG 1.1//EN" "http://www.w3.org/Graphics/SVG/1.1/DTD/svg11.dtd">
<!-- Creator: CorelDRAW X7 -->
<svg xmlns="http://www.w3.org/2000/svg" xml:space="preserve" width="12.5511in" height="10.3519in" version="1.1" style="shape-rendering:geometricPrecision; text-rendering:geometricPrecision; image-rendering:optimizeQuality; fill-rule:evenodd; clip-rule:evenodd"
viewBox="0 0 125511 103519"
 xmlns:xlink="http://www.w3.org/1999/xlink">
 <defs>
  <style type="text/css">
   <![CDATA[
    .fil2 {fill:#E5D0AA}
    .fil0 {fill:#F4EBDC}
    .fil1 {fill:#F9F2E6}
   ]]>
  </style>
 </defs>
 <g id="Layer_x0020_1">
  <metadata id="CorelCorpID_0Corel-Layer"/>
  <g id="_1502933133344">
   <path class="fil0" d="M0 7672c39435,-14284 68508,-5611 80655,1829 10606,6495 17770,14914 21139,23839 8026,21259 -3116,37247 -18497,42426 -26002,8757 -58896,-29668 -83297,1383l0 -69477z"/>
   <path class="fil1" d="M4119 92003c95,18789 37685,10941 49631,2056 5717,-4253 6881,-9700 -2843,-16299 -9832,-6671 -22407,-7494 -34536,-1465 -7039,3498 -12285,9030 -12252,15708z"/>
   <path class="fil1" d="M101993 78688c-1139,-14415 15493,-12614 21180,-7141 2721,2619 3563,6665 -198,12815 -3802,6217 -9149,8257 -14735,4996 -3242,-1893 -5842,-5546 -6247,-10670z"/>
   <path class="fil2" d="M13264 25561l13720 0 0 22606 -13720 0 0 -22606zm22576 29859l12905 0 0 -2418 14536 0 0 6467 -14536 0 0 -2447 -14507 0 0 -19342 -5651 0 0 12089 -16925 0 0 -25810 16925 0 0 12089 5651 0 0 -19342 14507 0 0 -2447 14536 0 0 6467 -14536 0 0 -2418 -12905 0 0 8069 12905 0 0 -2418 14536 0 0 6438 -14536 0 0 -2418 -12905 0 0 8069 12905 0 0 -2418 14536 0 0 6467 -14536 0 0 -2417 -12905 0 0 8069 12905 0 0 -2418 14536 0 0 6438 -14536 0 0 -2418 -12905 0 0 8069zm14536 -36297l0 -3233 11303 0 0 3233 -11303 0zm0 35481l0 3234 11303 0 0 -3234 -11303 0zm0 -16138l0 -3204 11303 0 0 3204 -11303 0zm0 6467l11303 0 0 3234 -11303 0 0 -3234zm11303 -16138l-11303 0 0 -3234 11303 0 0 3234z"/>
  </g>
 </g>
</svg>
