<?xml version="1.0" encoding="UTF-8"?>
<!DOCTYPE svg PUBLIC "-//W3C//DTD SVG 1.1//EN" "http://www.w3.org/Graphics/SVG/1.1/DTD/svg11.dtd">
<!-- Creator: CorelDRAW X7 -->
<svg xmlns="http://www.w3.org/2000/svg" xml:space="preserve" width="2.22748in" height="2.19681in" version="1.1" style="shape-rendering:geometricPrecision; text-rendering:geometricPrecision; image-rendering:optimizeQuality; fill-rule:evenodd; clip-rule:evenodd"
viewBox="0 0 22275 21968"
 xmlns:xlink="http://www.w3.org/1999/xlink">
 <defs>
  <style type="text/css">
   <![CDATA[
    .fil3 {fill:#A38755}
    .fil0 {fill:#BFCBE5}
    .fil1 {fill:#E9EDF6}
    .fil2 {fill:#F5F7FA}
   ]]>
  </style>
 </defs>
 <g id="Layer_x0020_1">
  <metadata id="CorelCorpID_0Corel-Layer"/>
  <g id="_2598353500256">
   <circle class="fil0" cx="11599" cy="11292" r="10675"/>
   <circle class="fil1" transform="matrix(0.667208 1.15564 1.15564 -0.667207 10677.2 10677.5)" r="8000"/>
   <circle class="fil2" transform="matrix(0.441838 0.765287 0.765286 -0.441838 12692.8 9666.05)" r="8000"/>
   <path class="fil3" d="M10677 16866c1652,0 3208,-644 4379,-1816 1166,-1165 1810,-2721 1810,-4373 0,-1651 -644,-3207 -1810,-4379 -1171,-1165 -2727,-1809 -4379,-1809 -1651,0 -3207,644 -4372,1809 -1172,1172 -1816,2728 -1816,4379 0,1652 644,3208 1816,4373 1165,1172 2721,1816 4372,1816zm-1927 -4136c-75,-128 -148,-257 -219,-388l-3411 0c-159,-533 -241,-1093 -241,-1665 0,-1548 603,-3008 1693,-4105 1097,-1096 2556,-1699 4105,-1699 1549,0 3009,603 4105,1699 1097,1097 1700,2557 1700,4105 0,572 -82,1132 -241,1665l-3416 0c-72,131 -145,260 -220,388l3505 0c-287,761 -735,1460 -1328,2053 -1096,1089 -2556,1699 -4105,1699 -1549,0 -3008,-610 -4105,-1699 -589,-593 -1036,-1292 -1322,-2053l3500 0zm2073 1882c104,-129 2570,-3162 2561,-5147 -6,-1602 -1221,-2905 -2707,-2905 -1493,0 -2707,1303 -2707,2906 0,1984 2449,5016 2553,5145l149 184 151 -183zm-146 -4569c525,0 962,-429 962,-961 0,-532 -437,-962 -962,-962 -532,0 -968,430 -968,962 0,532 436,961 968,961zm2305 -573c7,1569 -1780,3996 -2312,4685 -531,-689 -2304,-3116 -2304,-4685 0,-1384 1036,-2502 2311,-2502 1262,0 2298,1118 2305,2502zm-1732 -388c0,320 -259,579 -573,579 -320,0 -579,-259 -579,-579 0,-321 259,-580 579,-580 314,0 573,259 573,580z"/>
  </g>
 </g>
</svg>
