<?xml version="1.0" encoding="UTF-8"?>
<!DOCTYPE svg PUBLIC "-//W3C//DTD SVG 1.1//EN" "http://www.w3.org/Graphics/SVG/1.1/DTD/svg11.dtd">
<!-- Creator: CorelDRAW X7 -->
<svg xmlns="http://www.w3.org/2000/svg" xml:space="preserve" width="2.22748in" height="2.19681in" version="1.1" style="shape-rendering:geometricPrecision; text-rendering:geometricPrecision; image-rendering:optimizeQuality; fill-rule:evenodd; clip-rule:evenodd"
viewBox="0 0 22275 21968"
 xmlns:xlink="http://www.w3.org/1999/xlink">
 <defs>
  <style type="text/css">
   <![CDATA[
    .fil3 {fill:#A38755}
    .fil0 {fill:#BFCBE5}
    .fil1 {fill:#E9EDF6}
    .fil2 {fill:#F5F7FA}
   ]]>
  </style>
 </defs>
 <g id="Layer_x0020_1">
  <metadata id="CorelCorpID_0Corel-Layer"/>
  <g id="_2598287802224">
   <circle class="fil0" cx="11600" cy="11293" r="10675"/>
   <circle class="fil1" transform="matrix(0.499881 1.23725 -1.23725 0.499881 10677.7 10678)" r="8000"/>
   <circle class="fil2" transform="matrix(0.331031 0.819332 -0.81933 0.331031 8638.41 11774)" r="8000"/>
   <path class="fil3" d="M10678 16867c1651,0 3207,-645 4379,-1817 1165,-1165 1809,-2720 1809,-4372 0,-1652 -644,-3207 -1809,-4379 -1172,-1165 -2728,-1810 -4379,-1810 -1652,0 -3208,645 -4373,1810 -1172,1172 -1816,2727 -1816,4379 0,1652 644,3207 1816,4372 1165,1172 2721,1817 4373,1817zm-387 -9283l0 776 774 0 0 -776 -774 0zm774 5412l-774 0 0 776 774 0 0 -776zm-967 -386l1161 0 193 0 0 193 0 1162 0 193 -193 0 -1161 0 -193 0 0 -193 0 -1162 0 -193 193 0zm967 -2320l-774 0 0 776 774 0 0 -776zm-967 -386l1161 0 193 0 0 193 0 1162 0 193 -193 0 -1161 0 -193 0 0 -193 0 -1162 0 -193 193 0zm-193 -1351l0 -1162 0 -193 193 0 1161 0 193 0 0 193 0 1162 0 193 -193 0 -1161 0 -193 0 0 -193zm-3333 -1980c1097,-1097 2557,-1700 4106,-1700 1549,0 3008,603 4105,1700 1096,1096 1699,2556 1699,4105 0,1549 -603,3009 -1699,4105 -1097,1090 -2556,1700 -4105,1700 -1549,0 -3009,-610 -4106,-1700 -1089,-1096 -1692,-2556 -1692,-4105 0,-1549 603,-3009 1692,-4105z"/>
  </g>
 </g>
</svg>
