<?xml version="1.0" encoding="UTF-8"?>
<!DOCTYPE svg PUBLIC "-//W3C//DTD SVG 1.1//EN" "http://www.w3.org/Graphics/SVG/1.1/DTD/svg11.dtd">
<!-- Creator: CorelDRAW X7 -->
<svg xmlns="http://www.w3.org/2000/svg" xml:space="preserve" width="3.41102in" height="1.07992in" version="1.1" style="shape-rendering:geometricPrecision; text-rendering:geometricPrecision; image-rendering:optimizeQuality; fill-rule:evenodd; clip-rule:evenodd"
viewBox="0 0 34110 10799"
 xmlns:xlink="http://www.w3.org/1999/xlink">
 <defs>
  <style type="text/css">
   <![CDATA[
    .fil0 {fill:#7C94CA}
    .fil2 {fill:#DFE5F2}
    .fil1 {fill:white}
   ]]>
  </style>
 </defs>
 <g id="Layer_x0020_1">
  <metadata id="CorelCorpID_0Corel-Layer"/>
  <g id="_1502798379952">
   <g>
    <g>
     <path class="fil0" d="M5399 0l23312 0c2969,0 5399,2430 5399,5399 0,2970 -2429,5400 -5399,5400l-23312 0c-2969,0 -5399,-2430 -5399,-5400 0,-2969 2430,-5399 5399,-5399z"/>
     <rect class="fil1" x="239" y="239" width="33632" height="10321" rx="5161" ry="5161"/>
    </g>
    <path class="fil1" d="M5400 239l23311 0c2838,0 5160,2322 5160,5160 0,2839 -2322,5161 -5160,5161l-23311 0c-2839,0 -5161,-2322 -5161,-5161 0,-2838 2322,-5160 5161,-5160z"/>
   </g>
   <polygon class="fil2" points="23087,1563 22775,1563 22775,9236 23087,9236 "/>
   <polygon class="fil0" points="22618,1563 22775,1563 22775,9236 22618,9236 "/>
   <path class="fil0" d="M31568 2699c-722,-721 -1680,-1118 -2702,-1118 -1020,-1 -1980,396 -2700,1118 -722,721 -1119,1680 -1119,2700 0,1021 398,1980 1119,2701 722,722 1680,1118 2700,1118 1022,0 1980,-396 2703,-1118 721,-721 1117,-1680 1117,-2701 0,-1020 -396,-1978 -1118,-2700zm-1903 1832l1480 358 -988 1158 118 1519 -1408 -581 -1408 581 117 -1519 -987 -1158 1480 -358 797 -1298 799 1298zm-799 -842l-645 1050 -1200 290 800 939 -95 1230 1140 -471 1140 471 -95 -1230 800 -939 -1199 -290 -646 -1050zm0 5292c-956,-1 -1855,-374 -2532,-1050 -675,-676 -1048,-1575 -1048,-2532 0,-956 373,-1856 1048,-2531 677,-677 1577,-1049 2532,-1049 957,0 1857,372 2533,1049 677,675 1047,1575 1050,2531 -3,958 -373,1856 -1050,2532 -677,676 -1575,1049 -2533,1050z"/>
  </g>
 </g>
</svg>
