<?xml version="1.0" encoding="UTF-8"?>
<!DOCTYPE svg PUBLIC "-//W3C//DTD SVG 1.1//EN" "http://www.w3.org/Graphics/SVG/1.1/DTD/svg11.dtd">
<!-- Creator: CorelDRAW X7 -->
<svg xmlns="http://www.w3.org/2000/svg" xml:space="preserve" width="11.0952in" height="7.94496in" version="1.1" style="shape-rendering:geometricPrecision; text-rendering:geometricPrecision; image-rendering:optimizeQuality; fill-rule:evenodd; clip-rule:evenodd"
viewBox="0 0 110952 79450"
 xmlns:xlink="http://www.w3.org/1999/xlink">
 <defs>
  <style type="text/css">
   <![CDATA[
    .fil21 {fill:#5E6D8F}
    .fil19 {fill:#657AA9}
    .fil20 {fill:#6C87C3}
    .fil17 {fill:#8480BC}
    .fil18 {fill:#9F9CCB}
    .fil15 {fill:#A6B7DE}
    .fil13 {fill:#BB9B61}
    .fil16 {fill:#C4CFE9}
    .fil12 {fill:#D7B77D}
    .fil2 {fill:#E7EBF6}
    .fil11 {fill:#ECECFF}
    .fil1 {fill:#F3E0C2}
    .fil0 {fill:#F6EFE2}
    .fil14 {fill:white}
    .fil6 {fill:#657AA9;fill-rule:nonzero}
    .fil3 {fill:#6C87C3;fill-rule:nonzero}
    .fil5 {fill:#7C94CA;fill-rule:nonzero}
    .fil4 {fill:#8480BC;fill-rule:nonzero}
    .fil9 {fill:#A6B7DE;fill-rule:nonzero}
    .fil7 {fill:#D2AE6D;fill-rule:nonzero}
    .fil10 {fill:#ECECFF;fill-rule:nonzero}
    .fil8 {fill:white;fill-rule:nonzero}
   ]]>
  </style>
 </defs>
 <g id="Layer_x0020_1">
  <metadata id="CorelCorpID_0Corel-Layer"/>
  <g id="_1502908699696">
   <path class="fil0" d="M89119 28406c1333,1503 3199,2338 5239,3066 6858,2450 13997,5487 15046,13857 2210,17633 -21056,33469 -36945,34096 -7910,312 -15774,-2289 -22714,-8565 -5025,-4544 -8666,-10592 -10214,-17433 2895,-2533 5480,-5428 7683,-8486 5038,-6994 8604,-15613 8841,-24304 35,-1309 -11,-2620 -139,-3918 6354,-4738 18596,-7754 25298,-2559 4959,3844 3674,9474 7905,14246z"/>
   <path class="fil1" d="M75526 30698c-9435,0 -22307,11325 -22307,23543 0,12218 8510,22079 20728,22079 9562,0 24827,-7435 26312,-17891 597,-4209 -1041,-8654 -5188,-13025 -2916,-3073 -6329,-5627 -8282,-7934 -2631,-3110 -4762,-6772 -11263,-6772z"/>
   <g>
    <g id="_2186930193504">
     <path class="fil2" d="M46706 3107c-4955,-3566 -11667,-4088 -18887,-1433 -7216,2609 -14091,8079 -19342,15365 -5247,7286 -8257,15543 -8465,23246 -209,7655 2411,13859 7366,17429 4954,3566 11670,4084 18886,1478 7220,-2651 14095,-8124 19342,-15410 5247,-7286 8260,-15543 8466,-23201 208,-7700 -2412,-13904 -7366,-17474l0 0zm-20393 54283c-6775,2470 -13069,1976 -17714,-1371 -4649,-3347 -7112,-9161 -6914,-16367 212,-7192 3045,-14934 7965,-21768 4923,-6833 11370,-11969 18121,-14453 6753,-2439 13047,-1945 17696,1402 4645,3344 7109,9161 6935,16336 -195,7206 -3024,14951 -7948,21785 -4919,6830 -11367,11969 -18141,14436l0 0z"/>
     <path class="fil2" d="M41786 9941c-3723,-2679 -8741,-3080 -14162,-1107 -5417,1977 -10560,6079 -14498,11552 -3943,5473 -6208,11649 -6361,17415 -156,5765 1813,10400 5536,13079 3719,2679 8740,3079 14158,1106 5417,-1976 10560,-6078 14502,-11551 3942,-5474 6204,-11650 6361,-17415 156,-5765 -1817,-10400 -5536,-13079l0 0zm-15278 40243c-4955,1806 -9576,1461 -12989,-999 -3414,-2456 -5205,-6732 -5063,-12000 143,-5272 2206,-10950 5818,-15971 3615,-5017 8350,-8771 13302,-10577 4954,-1806 9575,-1462 12988,998 3414,2457 5206,6733 5063,12004 -143,5268 -2202,10947 -5818,15968 -3615,5017 -8347,8771 -13301,10577z"/>
     <path class="fil2" d="M36862 16774c-2467,-1778 -5831,-2042 -9432,-730 -3598,1308 -7025,4029 -9659,7689 -2634,3657 -4130,7770 -4235,11597 -125,3859 1197,6970 3664,8748 2488,1792 5835,2042 9454,702 3618,-1297 7046,-4018 9679,-7675 2638,-3661 4131,-7773 4214,-11615 104,-3830 -1197,-6924 -3685,-8716zm-10181 26232c-3134,1145 -6061,915 -8242,-654 -2158,-1552 -3320,-4273 -3229,-7606 90,-3379 1402,-6980 3712,-10185 2286,-3173 5306,-5591 8459,-6718 3156,-1169 6103,-929 8264,626 2178,1569 3319,4273 3208,7637 -70,3348 -1403,6980 -3689,10153 -2310,3205 -5309,5592 -8483,6747l0 0z"/>
     <path class="fil2" d="M31963 23577c-1231,-888 -2926,-1006 -4725,-373 -1802,679 -3535,2046 -4843,3859 -1305,1816 -2053,3894 -2126,5814 -31,1907 619,3480 1851,4367 1235,887 2930,1006 4729,372 1798,-678 3531,-2046 4839,-3858 1309,-1817 2053,-3894 2126,-5815 32,-1906 -615,-3476 -1851,-4366zm-5066 12237c-1357,494 -2609,372 -3535,-292 -925,-668 -1440,-1820 -1399,-3261 39,-1440 623,-2992 1604,-4352 982,-1361 2266,-2408 3622,-2902 1354,-494 2610,-373 3532,296 926,664 1441,1816 1402,3256 -38,1441 -626,2993 -1607,4353 -960,1378 -2265,2411 -3619,2902l0 0z"/>
    </g>
   </g>
   <path class="fil3" d="M80940 65306l14 -195c-320,-21 -654,-31 -981,-25l3 195c320,-7 647,4 964,25l0 0zm-3072 201c309,-66 629,-114 953,-153l-24 -194c-327,38 -655,90 -968,156l39 192 0 -1zm5163 147l49 -188c-306,-84 -630,-157 -957,-212l-35 191c324,56 640,125 943,209l0 0zm-7168 518c275,-132 575,-257 888,-362l-63 -184c-320,108 -626,233 -912,372l87 174 0 0zm9106 303l105 -164c-268,-167 -564,-320 -877,-456l-77 178c306,132 592,282 849,442zm-10755 964c178,-234 404,-456 672,-665l-119 -153c-281,216 -518,452 -709,699l156 119 0 0zm12171 522l178 -81c-126,-285 -317,-563 -564,-824l-139 132c229,247 407,505 525,773zm-12627 1802l174 -87c-142,-289 -212,-592 -212,-894 0,-112 7,-227 28,-338l-191 -35c-21,126 -32,251 -32,373 0,334 77,664 233,981l0 0zm12631 250c191,-302 309,-619 351,-943l-191 -24c-42,296 -150,585 -324,863l164 104zm-11107 1288l101 -167c-289,-174 -546,-366 -765,-567l-132 142c229,213 497,411 796,592l0 0zm9475 139c306,-167 584,-351 828,-546l-125 -150c-233,188 -501,362 -797,522l94 174 0 0zm-7474 682l52 -188c-320,-87 -626,-184 -915,-299l-73 181c296,115 612,219 936,306zm5445 66c327,-77 648,-167 947,-275l-66 -181c-293,101 -602,192 -922,268l41 188 0 0zm-3312 271l10 -194c-323,-18 -647,-53 -960,-98l-28 192c320,48 647,80 978,100zm1176 14c331,-14 658,-38 978,-76l-25 -195c-313,38 -636,66 -960,77l7 194z"/>
   <path class="fil3" d="M52569 47254l17 -195c-324,-24 -654,-38 -978,-45l-3 195c320,7 647,21 964,45zm-3090 59c316,-38 644,-66 964,-83l-11 -191c-327,17 -654,45 -974,83l21 191zm5195 254l41 -191c-313,-69 -636,-132 -963,-181l-28 192c320,48 640,111 950,180zm-7283 147c306,-80 623,-157 943,-220l-38 -191c-324,63 -647,139 -954,223l49 188 0 0zm9304 490l77 -181c-293,-121 -602,-236 -922,-337l-59 184c313,101 615,212 904,334l0 0zm-11287 254c278,-135 574,-268 884,-383l-70 -184c-313,122 -616,254 -901,393l87 174zm13124 787l119 -154c-251,-194 -526,-375 -822,-546l-97 167c289,167 557,345 800,533zm-14864 396c219,-209 470,-410 745,-598l-112 -160c-281,195 -542,403 -769,619l136 139zm16214 1180l174 -84c-135,-285 -320,-567 -542,-831l-150 125c216,254 390,518 518,790zm-17303 567c73,-292 195,-585 365,-866l-163 -101c-181,299 -313,605 -390,918l188 49 0 0zm17658 1500c84,-279 125,-561 125,-846 0,-49 0,-97 -3,-146l-195 10c4,46 4,91 4,136 0,264 -39,529 -119,790l188 56zm-17762 139l184 -66c-108,-300 -160,-609 -160,-919l-195 0c0,331 56,661 171,985l0 0zm16551 1656c258,-233 481,-480 668,-731l-156 -115c-178,241 -393,477 -644,700l132 146zm-15278 94l129 -146c-254,-219 -477,-449 -665,-686l-153 122c195,247 428,484 689,710l0 0zm13466 1085c306,-146 595,-302 862,-469l-100 -167c-265,163 -547,320 -846,463l84 173zm-11632 63l80 -177c-299,-139 -588,-289 -853,-449l-97 167c268,163 560,316 870,459zm9603 668c320,-83 637,-177 940,-282l-67 -184c-295,101 -605,198 -922,278l49 188 0 0zm-7568 38l49 -191c-317,-76 -630,-170 -926,-268l-62 185c303,100 619,191 939,274zm5449 348c327,-34 654,-80 971,-135l-35 -192c-310,56 -633,101 -957,136l21 191zm-3323 14l18 -191c-324,-31 -648,-77 -957,-125l-35 191c320,52 644,94 974,125l0 0zm1590 80c188,0 376,-3 561,-10l-7 -195c-321,11 -648,11 -968,4l-3 194c135,4 278,7 417,7z"/>
   <path class="fil3" d="M74566 34794l13 -191c-320,-24 -647,-42 -977,-45l0 191c320,7 647,21 964,45zm-3090 63c316,-38 640,-66 964,-83l-11 -195c-327,17 -654,45 -978,83l25 195zm5195 251l41 -192c-316,-69 -640,-129 -963,-181l-28 195c320,49 636,108 950,178zm-7283 149c306,-83 623,-156 943,-222l-38 -192c-327,66 -647,143 -957,226l52 188zm9304 487l77 -177c-296,-125 -606,-240 -922,-341l-59 184c313,101 615,213 904,334l0 0zm-11287 258c278,-139 574,-268 884,-386l-70 -181c-313,118 -619,250 -901,393l87 174zm13124 783l119 -153c-251,-192 -526,-376 -822,-547l-97 171c289,167 557,344 800,529l0 0zm-14864 400c219,-209 470,-414 745,-602l-112 -160c-281,195 -542,403 -769,619l136 143zm16214 1176l174 -84c-135,-285 -320,-563 -542,-831l-150 125c212,254 386,522 518,790zm-17303 567c73,-292 195,-584 365,-863l-167 -101c-177,296 -309,606 -386,919l188 45zm17658 1503c84,-278 126,-564 126,-845 0,-53 0,-101 -4,-150l-195 10c4,46 4,91 4,140 0,264 -42,529 -119,786l188 59 0 0zm-17762 139l184 -66c-108,-302 -160,-612 -160,-918l-195 0c0,330 56,661 171,984l0 0zm16551 1653c258,-230 481,-477 668,-731l-160 -114c-177,243 -393,480 -640,702l132 143 0 0zm-15278 97l125 -146c-250,-219 -473,-448 -661,-685l-153 118c195,247 425,487 689,713zm13466 1086c306,-146 595,-306 863,-473l-101 -164c-265,164 -547,317 -846,460l84 177zm-11632 59l80 -177c-299,-136 -588,-289 -853,-446l-97 167c268,160 560,317 870,456zm9603 672c320,-84 637,-181 940,-286l-67 -184c-295,104 -608,198 -922,282l49 188 0 0zm-7568 35l49 -188c-317,-80 -630,-171 -925,-272l-63 185c303,101 619,195 939,275zm5449 351c327,-35 654,-84 971,-136l-35 -195c-313,56 -633,101 -957,136l21 195zm-3326 14l21 -195c-324,-31 -647,-73 -961,-125l-31 191c317,52 644,98 971,129l0 0zm1593 76c188,0 376,-3 561,-7l-7 -194c-320,10 -648,10 -968,3l-3 195c136,3 275,3 417,3l0 0z"/>
   <path class="fil4" d="M31546 59130l14 -195c-320,-25 -651,-42 -978,-45l0 194c320,4 647,21 964,46zm-3090 59c317,-38 640,-66 964,-84l-11 -195c-327,18 -654,46 -977,84l24 195zm5195 250l42 -188c-314,-73 -637,-132 -964,-184l-28 195c320,49 640,108 950,177l0 0zm-7283 150c307,-84 623,-157 943,-219l-38 -192c-324,63 -647,140 -953,223l48 188 0 0zm9304 487l77 -177c-296,-126 -605,-240 -922,-341l-59 184c313,101 616,212 904,334l0 0zm-11287 258c278,-140 574,-268 884,-387l-70 -181c-313,119 -616,251 -901,394l87 174zm13125 786l118 -157c-251,-191 -526,-375 -821,-542l-98 167c289,167 557,344 801,532l0 0zm-14865 397c220,-209 470,-411 745,-602l-111 -160c-282,194 -543,403 -769,619l135 143zm16215 1179l174 -83c-136,-286 -321,-568 -543,-835l-150 125c212,254 386,522 519,793zm-17304 564c73,-293 195,-581 366,-863l-167 -101c-178,296 -310,605 -387,919l188 45zm17658 1503c84,-278 126,-564 126,-846 0,-48 0,-101 -4,-149l-195 10c4,45 4,91 4,139 0,265 -42,529 -118,790l187 56zm-17762 139l184 -66c-108,-303 -160,-609 -160,-919l-195 0c0,331 56,661 171,985l0 0zm16552 1656c257,-233 480,-480 668,-734l-160 -115c-174,244 -390,480 -641,703l133 146 0 0zm-15279 94l126 -146c-251,-219 -474,-449 -661,-685l-154 121c195,244 425,484 689,710zm13466 1086c306,-146 595,-306 863,-473l-101 -164c-265,164 -546,317 -846,459l84 178zm-11632 59l80 -174c-299,-139 -588,-292 -852,-449l-98 167c268,160 560,317 870,456zm9603 672c320,-84 637,-181 940,-286l-66 -184c-296,104 -609,198 -922,282l48 188 0 0zm-7567 34l48 -188c-316,-80 -630,-170 -925,-271l-63 188c303,101 619,191 940,271zm5448 352c327,-35 654,-80 971,-136l-35 -191c-313,52 -633,97 -957,132l21 195zm-3323 14l18 -195c-324,-32 -647,-73 -960,-125l-32 194c317,49 644,94 974,126zm1591 76c187,0 375,-3 560,-7l-7 -195c-320,11 -647,11 -968,4l-3 195c136,3 275,3 418,3l0 0z"/>
   <path class="fil5" d="M37388 38298l14 -191c-320,-24 -651,-42 -978,-45l-4 194c324,4 648,18 968,42l0 0zm-3094 63c321,-38 644,-66 964,-84l-10 -194c-327,17 -654,45 -974,83l20 195zm5195 250l42 -191c-313,-70 -637,-129 -964,-181l-28 195c321,49 641,108 950,177zm-7279 150c303,-83 620,-157 940,-223l-39 -191c-323,66 -643,143 -953,226l52 188zm9304 487l73 -177c-292,-126 -602,-240 -922,-341l-59 184c313,101 620,212 908,334l0 0zm-11290 258c278,-140 577,-268 883,-387l-69 -181c-313,119 -616,251 -901,394l87 174zm13124 783l118 -154c-247,-191 -525,-375 -821,-546l-97 171c289,167 560,344 800,529l0 0zm-14864 400c219,-209 470,-414 744,-602l-111 -160c-282,194 -539,403 -769,619l136 143zm16214 1176l174 -84c-136,-285 -317,-563 -543,-831l-149 125c215,254 389,522 518,790zm-17303 567c73,-292 198,-585 369,-863l-167 -101c-181,296 -314,605 -390,919l188 45zm17658 1503c83,-278 125,-564 125,-846 0,-52 0,-100 -3,-149l-195 10c3,46 3,91 3,139 0,265 -38,529 -118,787l188 59 0 0zm-17763 139l185 -66c-108,-303 -160,-612 -160,-919l-195 0c0,331 59,662 170,985l0 0zm16552 1653c258,-230 484,-477 668,-731l-156 -115c-178,244 -394,481 -641,703l129 143 0 0zm-15278 97l129 -146c-254,-219 -477,-449 -661,-685l-154 118c192,247 425,487 686,713l0 0zm13465 1086c307,-146 599,-306 867,-473l-105 -164c-261,164 -546,317 -845,459l83 178 0 0zm-11631 59l80 -177c-300,-136 -585,-289 -849,-446l-101 167c271,160 563,317 870,456zm9603 672c320,-84 637,-181 939,-286l-62 -184c-300,104 -609,198 -926,282l49 188zm-7565 34l46 -188c-317,-80 -627,-170 -926,-271l-62 184c302,101 619,195 942,275l0 0zm5446 352c327,-35 654,-84 971,-136l-35 -195c-310,56 -633,101 -957,136l21 195zm-3323 14l17 -195c-323,-31 -643,-73 -957,-125l-31 191c317,52 644,97 971,129l0 0zm1590 76c188,0 376,-3 560,-7l-7 -195c-320,11 -643,11 -967,4l-3 195c139,3 278,3 417,3l0 0z"/>
   <path class="fil3" d="M57631 25842l14 -195c-320,-24 -651,-38 -978,-45l-3 195c323,7 651,21 967,45l0 0zm-3090 59c317,-38 641,-66 964,-84l-10 -191c-327,18 -658,45 -978,84l24 191zm5192 251l45 -188c-317,-70 -640,-133 -964,-181l-31 191c320,49 640,108 950,178zm-7279 149c302,-83 619,-156 939,-219l-38 -191c-324,62 -644,139 -953,222l52 188 0 0zm9304 491l76 -181c-295,-122 -605,-237 -922,-341l-59 188c310,101 616,212 905,334l0 0zm-11288 254c279,-136 575,-268 884,-383l-73 -184c-313,121 -616,254 -898,393l87 174zm13125 786l118 -156c-250,-192 -525,-373 -821,-543l-97 167c288,167 556,344 800,532l0 0zm-14868 397c223,-209 473,-411 745,-599l-108 -163c-285,198 -543,403 -769,623l132 139zm16214 1179l178 -83c-136,-286 -320,-567 -546,-832l-147 125c213,254 387,519 515,790zm-17299 567c73,-295 194,-584 365,-866l-167 -101c-181,299 -310,606 -390,919l192 48 0 0zm17654 1500c84,-278 129,-560 129,-845 0,-49 -3,-98 -7,-147l-191 7c0,49 3,94 3,140 0,264 -42,528 -118,789l184 56zm-17759 139l181 -66c-104,-299 -160,-609 -160,-918l-195 0c0,330 59,661 174,984zm16549 1656c257,-233 483,-480 668,-730l-157 -115c-177,240 -393,477 -640,699l129 146 0 0zm-15275 94l125 -146c-254,-219 -477,-449 -661,-685l-153 122c195,247 424,483 689,709zm13465 1086c306,-146 595,-303 863,-470l-104 -167c-261,164 -543,320 -842,463l83 174zm-11635 63l83 -178c-302,-139 -588,-289 -852,-449l-101 167c271,164 564,317 870,460zm9607 668c320,-84 636,-178 936,-286l-63 -181c-296,101 -609,195 -922,279l49 188 0 0zm-7568 38l49 -191c-317,-77 -630,-171 -929,-268l-63 184c306,101 623,191 943,275zm5449 348c323,-35 650,-80 967,-136l-31 -191c-313,56 -637,101 -957,136l21 191 0 0zm-3327 14l21 -192c-323,-31 -647,-73 -960,-125l-31 192c316,52 643,93 970,125l0 0zm1590 80c192,0 376,-4 564,-11l-7 -194c-320,10 -647,13 -967,3l-7 195c139,3 278,7 417,7l0 0z"/>
   <g>
    <path class="fil6" d="M48100 16998l5260 -2958c70,-42 133,-49 188,-24 7,0 14,3 21,7 7,0 11,3 18,3 7,4 14,4 20,7 4,4 11,4 18,7 7,0 14,4 17,7 7,0 14,4 21,7 7,0 14,4 18,4 7,3 13,3 20,7 7,3 11,3 18,6 7,4 14,4 21,7 3,0 10,4 17,7 7,0 14,4 17,4 7,3 14,7 21,7 7,3 14,3 18,7 7,3 14,3 21,7 7,0 10,3 17,7 7,0 14,3 21,7 3,0 10,3 17,3 7,4 14,4 21,7 4,4 11,4 18,7 7,0 14,4 17,7 7,0 14,4 21,7 7,0 10,4 17,4 7,3 14,3 21,7 4,3 11,3 18,6 7,4 13,4 17,7 7,0 14,4 21,7 7,0 14,4 17,4 7,3 14,7 21,7 7,3 11,3 18,7 125,35 208,202 208,456l0 4784c0,358 -170,744 -376,870l-748 442 0 1464 -20 -17 0 11 -18 -18 0 11 -17 -18 0 11 -21 -18 0 14 -18 -17 0 10 -20 -17 0 10 -18 -17 0 10 -21 -17 0 10 -17 -17 0 10 -21 -14 0 11 -17 -17 0 10 -18 -17 0 10 -21 -17 0 10 -17 -17 0 10 -21 -14 0 11 -17 -18 0 11 -21 -18 0 11 -18 -18 0 11 -17 -18 0 11 -21 -18 0 14 -17 -17 0 10 -21 -17 0 10 -18 -17 0 11 -20 -18 0 11 -18 -18 0 11 -17 -14 0 10 -21 -17 0 10 -18 -17 0 10 -20 -17 0 10 -18 -17 0 10 -21 -14 0 11 -616 -557 -3441 1803c-69,41 -132,48 -188,24 -7,0 -10,-4 -17,-7 -7,0 -14,-4 -21,-4 -376,-153 -605,-146 -605,-633l0 -4784c0,-358 170,-745 375,-870l1 0z"/>
    <path class="fil7" d="M48555 17193l5393 -2958c206,-125 376,66 376,424l0 4785c0,355 -170,744 -376,870l-748 441 0 1465 -981 -883 -3664 1934c-208,125 -375,-66 -375,-424l0 -4785c0,-355 167,-744 375,-869z"/>
    <path class="fil8" d="M52331 18351c0,188 90,285 198,223 108,-66 198,-272 198,-456 0,-188 -90,-289 -198,-226 -108,66 -198,271 -198,459z"/>
    <path class="fil8" d="M51161 19044c0,187 91,288 199,222 108,-66 198,-268 198,-456 0,-187 -90,-288 -198,-222 -108,62 -199,268 -199,456z"/>
    <path class="fil8" d="M49992 19736c0,188 91,289 199,223 108,-66 198,-268 198,-456 0,-188 -90,-289 -198,-223 -108,63 -199,268 -199,456z"/>
   </g>
   <g>
    <path class="fil6" d="M29643 29259l5264 -2958c66,-42 132,-45 184,-24 7,0 14,3 21,7 7,0 11,3 18,7 7,0 14,3 20,3 7,4 11,4 18,7 7,4 14,4 21,7 3,0 10,4 17,7 7,0 14,4 18,7 7,0 13,4 20,4 7,3 14,6 18,6 7,4 14,4 21,7 7,4 10,4 17,7 7,0 14,4 21,7 3,0 10,4 17,4 7,3 14,7 18,7 7,3 14,3 21,7 7,3 14,3 17,7 7,0 14,3 21,7 7,0 10,3 17,7 7,0 14,3 21,3 7,4 11,4 18,7 7,4 13,4 20,7 4,0 11,4 18,7 7,0 14,4 17,7 7,0 14,4 21,4 7,3 11,7 18,7 6,3 13,3 20,6 4,4 11,4 18,7 7,0 14,4 21,7 3,0 10,4 17,4 7,3 14,7 17,7 126,35 209,202 209,456l0 4784c0,358 -167,748 -376,870l-748 442 0 1464 -17 -17 0 11 -21 -18 0 11 -17 -14 0 10 -21 -17 0 10 -18 -17 0 10 -20 -17 0 10 -18 -17 0 10 -21 -17 0 14 -17 -18 0 11 -17 -17 0 10 -21 -17 0 10 -18 -17 0 10 -21 -17 0 10 -17 -14 0 11 -21 -18 0 11 -17 -18 0 11 -18 -18 0 11 -21 -18 0 11 -17 -14 0 10 -21 -17 0 10 -17 -17 0 10 -21 -17 0 10 -18 -17 0 11 -17 -18 0 14 -21 -17 0 10 -17 -17 0 10 -21 -17 0 10 -18 -17 0 10 -20 -17 0 10 -18 -14 0 11 -17 -18 0 11 -620 -557 -3441 1803c-66,41 -132,48 -188,24 -7,0 -10,-4 -17,-4 -7,-3 -14,-7 -21,-7 -376,-153 -605,-146 -605,-633l0 -4784c0,-355 170,-745 376,-870l0 0z"/>
    <path class="fil7" d="M30098 29457l5393 -2961c209,-122 376,66 376,424l0 4785c0,358 -167,748 -376,870l-748 441 0 1465 -981 -883 -3664 1934c-205,125 -375,-66 -375,-421l0 -4788c0,-355 170,-744 375,-866z"/>
    <path class="fil8" d="M33874 30612c0,188 90,289 198,223 108,-66 198,-268 198,-456 0,-188 -90,-289 -198,-223 -108,63 -198,268 -198,456z"/>
    <path class="fil8" d="M32704 31305c0,187 91,288 199,222 111,-62 198,-268 198,-456 0,-187 -87,-288 -198,-222 -108,62 -199,268 -199,456z"/>
    <path class="fil8" d="M31535 31997c0,188 91,289 199,223 111,-63 198,-268 198,-456 0,-188 -87,-289 -198,-223 -108,63 -199,268 -199,456z"/>
   </g>
   <g>
    <path class="fil6" d="M68769 24450l5261 -2957c69,-42 132,-49 188,-25 7,0 14,4 17,7 7,0 14,4 21,4 7,3 14,7 17,7 7,3 14,3 21,7 7,3 11,3 18,7 7,0 14,3 20,6 4,0 11,4 18,7 7,0 14,4 17,4 7,3 14,3 21,7 7,3 14,3 18,7 7,0 13,3 20,7 7,0 11,3 18,7 7,0 14,3 21,3 3,4 10,7 17,7 7,4 14,4 17,7 7,4 14,4 21,7 7,0 14,4 18,7 7,0 14,4 21,4 7,3 10,7 17,7 7,3 14,3 21,7 7,3 10,3 17,7 7,0 14,3 21,6 4,0 11,4 18,7 7,0 13,4 17,4 7,3 14,3 21,7 7,3 14,3 17,7 7,0 14,3 21,7 7,0 11,3 18,7 7,0 13,3 20,3 4,4 11,4 18,7 122,35 205,202 205,456l0 4784c0,359 -167,745 -372,870l-748 442 0 1465 -21 -17 0 10 -18 -17 0 10 -20 -17 0 10 -18 -14 0 11 -21 -18 0 11 -17 -18 0 11 -18 -18 0 11 -20 -18 0 11 -18 -14 0 10 -21 -17 0 10 -17 -17 0 10 -21 -17 0 10 -17 -17 0 10 -18 -13 0 10 -21 -17 0 10 -17 -17 0 10 -21 -17 0 10 -17 -17 0 10 -21 -17 0 14 -18 -18 0 11 -20 -18 0 11 -18 -18 0 11 -17 -18 0 11 -21 -17 0 10 -18 -14 0 11 -20 -18 0 11 -18 -18 0 11 -21 -18 0 11 -17 -18 0 11 -17 -14 0 10 -21 -17 0 10 -616 -556 -3441 1802c-70,42 -133,49 -188,24 -7,0 -14,-3 -21,-3 -4,-4 -11,-7 -18,-7 -375,-153 -605,-146 -605,-633l0 -4785c0,-355 167,-744 376,-869l0 -1z"/>
    <path class="fil7" d="M69225 24648l5393 -2961c205,-121 376,67 376,425l0 4784c0,359 -171,748 -376,870l-748 442 0 1465 -985 -884 -3660 1935c-209,125 -376,-67 -376,-421l0 -4788c0,-355 167,-745 376,-867l0 0z"/>
    <path class="fil8" d="M73000 25804c0,187 87,288 198,222 108,-66 195,-268 195,-456 0,-187 -87,-288 -195,-222 -111,62 -198,268 -198,456z"/>
    <path class="fil8" d="M71831 26496c0,188 87,289 198,223 108,-66 195,-268 195,-456 0,-188 -87,-289 -195,-223 -111,63 -198,268 -198,456z"/>
    <path class="fil8" d="M70662 27188c0,188 87,289 198,223 108,-63 198,-268 198,-456 0,-188 -90,-289 -198,-222 -111,62 -198,268 -198,455z"/>
   </g>
   <g>
    <path class="fil6" d="M47746 35936l5261 -2958c70,-42 132,-49 188,-24 7,0 14,3 17,3 7,4 14,7 21,7 7,4 11,4 18,7 6,4 13,4 20,7 4,0 11,4 18,7 7,0 14,4 17,7 7,0 14,4 21,4 7,3 14,3 17,7 7,3 14,3 21,7 7,0 11,3 18,6 7,0 14,4 21,7 3,0 10,4 17,4 7,3 14,3 17,7 7,3 14,3 21,7 7,3 14,3 18,7 7,0 14,3 21,7 7,0 10,3 17,3 7,4 14,7 21,7 7,4 10,4 17,7 7,4 14,4 21,7 4,0 11,4 17,7 7,0 14,4 18,4 7,3 14,7 21,7 7,3 10,3 17,7 7,3 14,3 21,7 7,0 11,3 17,7 7,0 14,3 21,6 4,0 11,4 18,4 7,3 14,3 17,7 7,3 14,3 21,7 122,35 205,202 205,456l0 4784c0,355 -167,745 -376,870l-748 442 0 1465 -17 -18 0 11 -17 -18 0 11 -21 -18 0 11 -18 -18 0 11 -21 -14 0 10 -17 -17 0 10 -21 -17 0 10 -17 -17 0 10 -18 -17 0 10 -20 -13 0 10 -18 -17 0 10 -21 -17 0 10 -17 -17 0 10 -21 -17 0 10 -17 -17 0 14 -18 -18 0 11 -21 -18 0 11 -17 -18 0 11 -21 -18 0 11 -17 -17 0 10 -21 -14 0 10 -18 -17 0 11 -20 -18 0 11 -18 -18 0 11 -17 -18 0 11 -21 -14 0 10 -18 -17 0 10 -20 -17 0 10 -18 -17 0 10 -21 -17 0 10 -17 -17 0 14 -616 -557 -3441 1803c-70,41 -132,45 -188,24 -7,0 -14,-4 -21,-7 -3,0 -10,-3 -17,-7 -376,-150 -606,-143 -606,-630l0 -4784c0,-358 167,-748 376,-870l0 0z"/>
    <path class="fil7" d="M48202 36131l5389 -2958c209,-125 376,66 376,425l0 4784c0,355 -167,744 -376,870l-748 442 0 1464 -981 -883 -3660 1934c-209,122 -376,-66 -376,-424l0 -4785c0,-358 167,-744 376,-869z"/>
    <path class="fil8" d="M51977 37289c0,188 87,286 198,223 108,-66 195,-271 195,-459 0,-188 -87,-286 -195,-223 -111,66 -198,271 -198,459z"/>
    <path class="fil8" d="M50808 37982c0,188 87,285 198,222 108,-66 195,-271 195,-455 0,-188 -87,-289 -195,-227 -111,66 -198,272 -198,460z"/>
    <path class="fil8" d="M49639 38674c0,188 87,289 198,223 108,-66 195,-268 195,-456 0,-188 -87,-289 -195,-223 -111,63 -198,268 -198,456z"/>
   </g>
   <g>
    <path class="fil8" d="M29806 45786l0 -943 278 164 -3 939 0 0c0,160 56,275 150,331l-275 -160c-91,-53 -150,-167 -150,-331l0 0 0 0z"/>
    <path class="fil6" d="M25363 47752l5261 -2958c66,-41 132,-48 188,-24 3,0 10,4 17,7 7,0 14,3 17,3 7,4 14,7 21,7 7,4 14,4 18,7 7,4 14,4 21,7 7,0 10,4 17,7 7,0 14,4 21,4 7,3 10,7 17,7 7,3 14,3 21,7 4,3 11,3 17,7 7,0 14,3 18,7 7,0 14,3 21,7 7,0 10,3 17,3 7,4 14,4 21,7 7,4 10,4 17,7 7,0 14,4 21,7 4,0 11,3 18,7 7,0 14,3 17,3 7,4 14,4 21,7 7,4 10,4 17,7 7,4 14,4 21,7 7,0 11,4 18,7 7,0 14,4 21,4 3,3 10,3 17,7 7,3 14,3 17,7 7,3 14,3 21,7 7,0 14,3 18,7 7,0 14,3 21,3 6,4 10,7 17,7 7,4 14,4 21,7 122,35 205,202 205,456l0 4784c0,359 -167,745 -376,870l-748 442 0 1465 -17 -18 0 11 -21 -18 0 11 -17 -18 0 11 -21 -18 0 14 -18 -17 0 10 -17 -17 0 10 -21 -17 0 11 -17 -18 0 11 -21 -18 0 14 -18 -17 0 10 -21 -17 0 10 -17 -17 0 10 -17 -17 0 10 -21 -17 0 10 -18 -14 0 11 -21 -17 0 10 -17 -17 0 10 -21 -17 0 10 -17 -17 0 10 -18 -14 0 11 -20 -18 0 11 -18 -18 0 11 -21 -18 0 11 -17 -18 0 11 -21 -14 0 10 -17 -17 0 10 -18 -17 0 10 -21 -17 0 10 -17 -17 0 11 -21 -18 0 14 -17 -17 0 10 -620 -557 -3441 1803c-66,42 -132,48 -184,24 -7,0 -14,-3 -21,-7 -7,0 -14,-3 -18,-3 -379,-153 -605,-146 -605,-634l0 -4784c0,-358 167,-744 376,-870l0 0z"/>
    <path class="fil7" d="M25815 47947l5393 -2958c209,-122 376,66 376,425l0 4784c0,358 -167,745 -376,870l-748 442 0 1465 -981 -884 -3664 1934c-205,126 -376,-66 -376,-424l0 -4784c0,-355 171,-745 376,-870z"/>
    <path class="fil8" d="M29594 49105c0,188 87,286 195,223 111,-66 198,-271 198,-456 0,-188 -87,-288 -198,-226 -108,66 -195,272 -195,459z"/>
    <path class="fil8" d="M28425 49798c0,188 87,289 195,223 111,-67 198,-268 198,-456 0,-188 -87,-289 -198,-223 -108,63 -195,268 -195,456z"/>
    <path class="fil8" d="M27256 50490c0,188 87,289 194,223 112,-63 199,-268 199,-456 0,-188 -87,-289 -199,-223 -107,63 -194,268 -194,456z"/>
   </g>
   <path class="fil3" d="M38240 48751l164 -108 -540 -811 -163 108 539 811zm1190 1781l160 -108 -539 -811 -164 108 543 811zm1187 1781l160 -107 -540 -811 -160 108 540 810zm1186 1782l164 -108 -540 -811 -163 108 539 811zm1190 1781l160 -107 -539 -811 -160 108 539 810zm15014 383l104 -163 -769 -488 -104 164 769 487zm1809 1145l105 -164 -825 -522 -104 164 824 522zm-15636 254l163 -108 -543 -807 -160 108 540 807zm17446 891l104 -164 -825 -522 -104 167 825 519 0 0zm-16260 890l164 -108 -540 -807 -163 108 539 807zm18069 258l104 -167 -824 -519 -105 164 825 522 0 0zm1806 1145l104 -164 -821 -522 -104 164 821 522zm-18396 83l42 -191 -491 -105 -219 -323 -160 108 261 389 567 122zm2094 445l42 -191 -953 -202 -38 192 949 201 0 0zm2095 442l42 -188 -954 -201 -38 188 950 201 0 0zm16016 174l104 -163 -821 -522 -104 167 821 518 0 0zm-13921 272l41 -188 -953 -202 -38 188 950 202 0 0zm2094 445l42 -191 -953 -202 -39 191 950 202 0 0zm13636 432l105 -167 -821 -519 -105 164 821 522 0 0zm-11541 13l42 -191 -954 -202 -41 192 953 201zm2095 446l41 -192 -953 -201 -42 191 954 202zm2094 445l42 -191 -953 -202 -39 191 950 202 0 0zm9162 240l104 -163 -821 -522 -105 163 822 522zm-7067 202l42 -188 -954 -202 -38 188 950 202 0 0zm2094 445l42 -191 -953 -202 -42 192 953 201zm2095 446l42 -192 -954 -201 -41 191 953 202zm4687 52l104 -164 -821 -521 -104 163 821 522zm-2592 393l41 -191 -953 -202 -42 191 954 202zm2094 446l42 -192 -953 -202 -42 192 953 202zm2307 306l105 -164 -822 -522 -104 167 821 519 0 0zm-212 135l42 -187 -954 -202 -41 188 953 201z"/>
   <path class="fil3" d="M60359 36172l188 -59 -299 -925 -185 59 296 925zm654 2039l185 -59 -296 -925 -185 59 296 925zm651 2039l188 -59 -300 -925 -184 59 296 925zm654 2043l184 -59 -295 -930 -185 60 296 929zm654 2039l184 -60 -295 -929 -188 60 299 929zm894 1955l171 -90 -453 -863 -174 94 456 859zm999 1893l170 -91 -452 -859 -174 90 456 860zm995 1896l174 -90 -456 -863 -170 90 452 863zm999 1893l174 -90 -456 -860 -171 91 453 859zm998 1896l171 -90 -453 -863 -170 90 452 863zm999 1893l170 -90 -452 -860 -174 91 456 859zm998 1896l171 -90 -452 -863 -174 90 455 863zm996 1893l174 -90 -453 -860 -174 91 453 859zm998 1897l174 -91 -456 -863 -170 91 452 863zm999 1892l174 -90 -456 -860 -171 91 453 859zm998 1897l171 -91 -452 -863 -171 91 452 863zm540 1621l358 -7 59 -87 38 -59 -278 -525 -174 90 209 390 -216 3 4 195 0 0zm-2140 21l971 -11 0 -194 -975 10 4 195zm-2144 21l975 -11 -4 -191 -971 7 0 195zm-2139 24l974 -10 -4 -195 -974 10 4 195zm-2144 21l975 -10 0 -195 -975 10 0 195zm-2140 21l975 -11 -4 -191 -971 7 0 195zm-2139 24l970 -10 0 -195 -974 10 4 195zm-2144 21l974 -10 -3 -195 -971 10 0 195zm-2140 24l975 -10 -4 -195 -974 11 3 194zm-2139 21l970 -10 0 -195 -974 11 4 194zm-2144 21l974 -10 -3 -195 -971 10 0 195zm-2140 25l975 -11 -4 -195 -974 11 3 195zm-2140 20l971 -10 0 -195 -974 11 3 194zm-2143 21l974 -7 -3 -194 -971 10 0 191zm-2140 25l971 -11 0 -195 -974 11 3 195zm-2143 21l974 -11 0 -195 -974 11 0 195zm-2140 24l974 -10 -3 -195 -974 10 3 195zm-2140 21l971 -11 0 -194 -974 10 3 195z"/>
   <path class="fil3" d="M75446 45556l24 -974 -195 -3 -24 970 195 7 0 0zm-56 2140l25 -974 -195 -3 -25 970 195 7 0 0zm-59 2140l28 -974 -195 -4 -28 975 195 3zm-56 2140l28 -971 -195 -7 -27 974 194 4 0 0zm-55 2140l24 -971 -195 -7 -24 974 195 4 0 0zm-56 2143l24 -974 -194 -7 -25 974 195 7zm-56 2140l25 -974 -195 -4 -24 971 194 7 0 0zm-59 2140l28 -974 -195 -4 -24 971 191 7 0 0zm-55 2140l27 -971 -194 -7 -28 974 195 4 0 0zm-56 2140l24 -971 -195 -7 -24 974 195 4 0 0zm-52 1955l21 -786 -195 -4 -21 783 195 7 0 0z"/>
   <g>
    <path class="fil6" d="M71799 44586l5853 -3295c76,-46 149,-49 209,-25 7,0 14,4 20,7 7,0 14,4 21,7 7,0 14,4 21,7 7,0 14,4 21,7 7,0 14,4 21,7 10,0 17,4 24,7 7,0 14,3 21,7 7,0 14,3 21,7 7,0 14,3 21,7 7,0 14,3 21,7 7,0 14,3 21,7 7,0 14,3 21,7 7,0 14,3 21,7 7,0 13,3 20,7 7,0 14,3 21,7 7,0 14,3 21,7 7,0 14,3 21,7 7,0 14,3 21,7 7,0 14,3 21,7 7,0 14,3 21,7 7,0 14,3 21,7 7,0 14,3 21,6 7,4 13,4 20,7 7,4 14,4 21,7 7,4 14,4 21,7 7,4 14,4 21,7 7,4 14,4 21,7 7,4 17,4 21,7 10,4 17,4 24,7 7,4 14,4 21,7 136,39 230,226 230,505l0 5323c0,400 -188,832 -418,968l-835 494 0 1628 -21 -17 0 10 -21 -17 0 10 -21 -17 0 10 -20 -17 0 10 -21 -17 0 10 -21 -17 0 10 -21 -17 0 10 -21 -17 0 10 -21 -17 0 11 -21 -18 0 11 -21 -18 0 11 -20 -18 0 11 -21 -18 0 11 -21 -18 0 11 -21 -18 0 11 -21 -18 0 11 -21 -18 0 11 -21 -17 0 10 -21 -17 0 10 -21 -17 0 10 -20 -17 0 10 -21 -17 0 10 -25 -17 0 10 -21 -17 0 10 -20 -21 0 14 -21 -21 0 14 -21 -21 0 14 -21 -21 0 14 -21 -21 0 14 -21 -20 0 13 -21 -20 0 13 -685 -619 -3831 2008c-77,45 -146,52 -209,28 -7,-4 -14,-7 -21,-7 -7,-4 -14,-7 -21,-7 -417,-171 -671,-164 -671,-703l0 -5324c0,-400 184,-831 417,-967l0 0z"/>
    <path class="fil9" d="M72304 44801l6002 -3291c230,-136 418,73 418,469l0 5324c0,400 -188,832 -418,967l-832 494 0 1629 -1092 -981 -4078 2153c-230,136 -418,-76 -418,-473l0 -5323c0,-397 188,-828 418,-968l0 0z"/>
    <path class="fil8" d="M76507 46089c0,208 98,320 219,247 122,-70 220,-299 220,-508 0,-209 -98,-320 -220,-247 -121,73 -219,299 -219,508z"/>
    <path class="fil8" d="M75206 46861c0,209 97,317 219,247 122,-73 219,-299 219,-508 0,-209 -97,-320 -219,-250 -122,73 -219,302 -219,511l0 0z"/>
    <path class="fil8" d="M73904 47630c0,209 98,320 220,247 121,-69 219,-299 219,-508 0,-209 -98,-320 -219,-247 -122,73 -220,299 -220,508z"/>
   </g>
   <g>
    <path class="fil10" d="M77420 68434c3,94 -66,170 -150,174 -87,0 -160,-73 -160,-167 -3,-94 63,-171 150,-174 83,0 156,73 160,167z"/>
    <path class="fil10" d="M77681 63921c3,125 101,226 215,223 119,-4 209,-108 206,-237 -4,-125 -101,-226 -216,-223 -118,4 -209,108 -205,237z"/>
    <path class="fil10" d="M78798 52425c3,125 -84,226 -199,229 -111,4 -205,-94 -208,-215 -7,-126 83,-226 194,-230 115,-3 209,94 213,216z"/>
    <path class="fil11" d="M81258 54366c55,0 100,-45 100,-97 0,-56 -45,-98 -97,-98 -56,-3 -101,42 -101,98 0,52 45,97 98,97z"/>
    <path class="fil12" d="M78157 52522l4318 28c522,4 943,431 940,953l-42 6625c-3,519 -431,943 -950,940l-4318 -28c-522,-4 -943,-432 -939,-950l41 -6625c4,-522 432,-946 950,-943l0 0z"/>
    <path class="fil13" d="M78262 52808l4109 24c421,3 762,351 762,772l-42 6416c-3,425 -348,766 -772,762l-4109 -24c-421,-3 -762,-348 -762,-772l41 -6416c4,-421 348,-766 773,-762z"/>
    <path class="fil14" d="M78592 58281c-38,313 -459,1315 -556,1806 -87,441 -588,5006 -126,5173 185,70 1837,369 1931,56 369,-1200 -38,-4033 481,-4040 386,-6 243,1629 313,2941 21,403 62,779 146,1064 94,313 1747,35 1934,-31 390,-136 -31,-4784 -97,-5136 -90,-490 -498,-1499 -532,-1812l-1747 222 -1747 -243 0 0z"/>
    <path class="fil15" d="M80569 61844c17,149 24,320 31,508l2202 -185c-10,-174 -24,-344 -34,-508l-2199 185 0 0z"/>
    <path class="fil15" d="M77862 61607c-18,167 -32,338 -46,512l2220 212c7,-188 18,-362 35,-508l-2209 -216 0 0z"/>
    <path class="fil14" d="M79208 54053c-42,63 -1218,289 -1298,352 -76,59 -163,1273 -111,1412 49,143 97,1190 198,1542 105,351 136,838 80,1294 -55,456 -128,699 -7,908 119,205 1747,491 2241,522l0 0c494,-28 2123,-289 2244,-494 25,-42 84,-3121 321,-3737 55,-139 -18,-1357 -94,-1420 -80,-59 -1253,-302 -1291,-365l-1142 73 -1141 -87 0 0z"/>
    <path class="fil16" d="M82862 56537c-307,1086 -244,3341 -268,3379 -35,56 -181,118 -387,177 -97,7 -226,42 -351,87 -87,18 -174,35 -264,53 288,-171 716,-460 765,-696 73,-380 101,-915 21,-1392 -84,-477 104,-1757 205,-1788 101,-35 212,149 279,180l0 0z"/>
    <path class="fil16" d="M77848 56179c35,379 80,940 149,1180 105,351 136,838 80,1294 -55,456 -128,699 -7,908 35,59 181,118 387,181 97,10 222,45 351,91 84,20 171,41 261,59 -285,-178 -710,-470 -755,-707 -70,-382 -97,-918 -4,-1395 94,-473 -153,-1583 -327,-1646 -24,-10 -73,4 -135,35z"/>
    <path class="fil12" d="M78843 53744c-52,351 -320,389 -630,570 0,0 251,759 727,950 233,94 832,125 1423,129 595,3 1194,-21 1430,-112 477,-184 738,-939 738,-939 -310,-184 -574,-226 -626,-581l-1531 -66 -1531 49 0 0z"/>
    <path class="fil16" d="M82211 53229c118,-112 306,-296 324,-394 27,-146 -18,-956 -67,-1078 -45,-112 -344,-324 -424,-390 -334,-765 -1016,-1110 -1695,-1141 -695,24 -1398,372 -1732,1172 -119,91 -324,244 -362,331 -49,125 -105,932 -77,1079 14,86 160,243 272,354 539,1653 3103,1764 3761,67l0 0z"/>
    <path class="fil17" d="M80353 54325c1054,7 1921,-849 1928,-1904 6,-1054 -849,-1917 -1904,-1924 -1054,-7 -1917,849 -1924,1900 -7,1054 849,1921 1900,1928z"/>
    <path class="fil18" d="M80377 50497c578,4 1096,265 1444,672 70,198 108,414 105,636 -7,1058 -867,1907 -1925,1904 -577,-4 -1096,-265 -1443,-672 -70,-202 -105,-414 -105,-640 7,-1054 870,-1907 1924,-1900z"/>
    <path class="fil14" d="M80325 50699c421,3 804,170 1086,438 -247,-121 -526,-191 -818,-191 -912,-7 -1681,633 -1868,1493 -4,-53 -4,-101 -4,-153 4,-881 724,-1590 1604,-1587z"/>
    <path class="fil14" d="M78210 54523c-101,45 -202,-164 -300,-118 -1402,654 -2174,1579 -2174,1579 -279,404 14,1629 421,1569 414,-180 313,-156 1729,-963 393,-251 445,-1065 324,-2067z"/>
    <path class="fil15" d="M75774 57195c97,226 233,379 383,359 414,-181 313,-157 1729,-964 90,-59 167,-146 223,-261 -42,-105 -87,-171 -126,-185 -177,-62 -1579,1051 -1865,1107 -104,21 -226,10 -344,-56l0 0z"/>
    <path class="fil14" d="M76205 57526c-1611,856 -1280,-2721 -1270,-3410 4,-320 505,-230 1093,-320 0,0 859,3249 177,3730l0 0z"/>
    <path class="fil15" d="M76205 57526c-1611,856 -1280,-2721 -1270,-3410 0,-63 21,-112 56,-146 104,-49 167,-80 171,-80l0 0c0,0 -21,1562 132,2407 153,842 543,1009 824,954 63,-14 171,-70 307,-157 -39,202 -108,355 -220,432l0 0z"/>
    <path class="fil15" d="M79083 55546l2425 14c306,3 560,257 557,567l-14 2467c-4,310 -209,560 -519,557l-2473 -14c-310,0 -561,-254 -557,-564l14 -2470c3,-310 257,-561 567,-557l0 0z"/>
    <path class="fil14" d="M79006 55595l2422 13c310,4 564,258 560,568l-14 2467c-3,264 -153,379 -414,379l-2425 -18c-310,0 -560,-257 -560,-563l17 -2471c0,-90 25,-177 63,-254 97,-76 219,-121 351,-121l0 0z"/>
    <polygon class="fil15" points="79125,57668 79855,57675 79866,55974 79135,55967 "/>
    <polygon class="fil16" points="80579,57188 81466,57195 81470,56722 80583,56715 "/>
    <polygon class="fil16" points="80976,56353 81449,56357 81452,55939 80979,55936 "/>
    <path class="fil15" d="M81049 58340c268,0 490,-219 490,-487 4,-272 -215,-491 -487,-494 -268,0 -490,219 -490,487 -4,271 215,490 487,494z"/>
    <path class="fil19" d="M78592 57787c0,0 -146,153 -643,852 -428,595 -870,950 -1156,1054 -149,56 -278,53 -372,-3 -115,-70 -167,-191 -139,-362 38,-237 546,-776 1047,-1336 87,-94 146,282 0,410 -442,491 -661,790 -692,971 7,-3 21,-7 35,-14 233,-83 605,-393 984,-925 529,-741 933,-1027 933,-1030l3 383 0 0z"/>
    <path class="fil19" d="M78575 56444c-125,-112 -491,-488 -640,-662 -331,-393 -707,-890 -867,-1318 -149,-400 -118,-741 279,-891 59,-21 146,83 48,136 -299,111 -313,382 -191,706 153,407 515,891 839,1274 149,173 455,441 546,563 -4,35 -4,136 -14,192l0 0z"/>
    <path class="fil19" d="M81654 59081c752,957 1298,355 1531,-338 122,-233 390,-167 223,167 -428,1124 -1336,1173 -2095,209 -35,-94 272,-153 341,-38l0 0z"/>
    <path class="fil16" d="M78839 62766c494,3 908,320 1002,737 60,7 119,11 178,18 125,-4 59,710 -21,685l-303 -24c-184,257 -504,424 -870,421 -421,-4 -779,-233 -936,-557 -59,-3 -114,-10 -173,-14 -136,-7 -98,-730 20,-723 14,0 70,6 150,13 160,-330 525,-560 953,-556l0 0z"/>
    <path class="fil16" d="M81748 62776c376,4 703,185 880,456 181,-21 220,-24 230,-24 108,-11 136,880 21,880l-209 3c-167,313 -522,526 -932,526 -348,-4 -651,-157 -835,-393 -91,7 -178,10 -265,17 -90,14 -125,-748 -28,-755l140 -24c114,-397 518,-686 998,-686l0 0z"/>
    <path class="fil16" d="M79313 61050l810 474c21,-74 46,-133 77,-174 -108,-74 -261,-178 -442,-300 -132,-87 -278,-184 -428,-285 -487,-327 -1023,-682 -1256,-832 -18,56 -28,108 -38,153 -7,39 -18,108 -28,199l814 477 491 288 0 0z"/>
    <path class="fil16" d="M81045 61061l-581 320c25,45 45,104 59,174l1027 -491 581 -282 536 -257c-14,-146 -28,-261 -39,-334l-1071 588 -512 282 0 0z"/>
    <path class="fil15" d="M79960 64714l-2231 -115c4,80 11,150 18,216l2181 111c11,-66 21,-139 32,-212l0 0z"/>
    <path class="fil15" d="M80680 64745c7,74 17,147 28,213l2143 -146c7,-67 14,-140 18,-216l-2189 149z"/>
    <path class="fil16" d="M80976 59064l-7 1110c0,107 -112,198 -251,194l-605 -3c-136,0 -251,-91 -247,-198l7 -1110 1103 7z"/>
    <path class="fil20" d="M74782 53928c35,73 411,264 714,237 302,-28 532,-369 532,-369 0,0 -21,-293 -212,-634 -188,-341 -313,-595 -380,-556 -62,41 -10,532 -10,532 0,0 -365,-334 -640,-504 -275,-174 -324,-216 -393,-154 -70,67 41,181 41,181 0,0 -281,-153 -361,-80 -81,70 69,237 69,237 0,0 -181,-90 -247,14 -66,101 188,247 188,247 0,0 -157,-45 -164,59 -7,122 742,686 863,790l0 0z"/>
    <path class="fil21" d="M73919 53138c-7,122 742,686 863,790 14,28 77,73 164,115 146,73 362,139 550,122 302,-28 532,-369 532,-369 0,0 0,-7 0,-21 -14,10 -24,17 -38,24 -157,105 -421,244 -675,219 -418,-38 -898,-469 -1385,-911 -7,10 -7,21 -11,31l0 0z"/>
    <path class="fil14" d="M82503 54551c101,45 206,-164 299,-115 1396,668 2158,1604 2158,1604 275,407 -39,1632 -442,1566 -411,-188 -310,-160 -1716,-985 -393,-257 -434,-1072 -299,-2070z"/>
    <path class="fil15" d="M84904 57254c-97,223 -237,376 -386,352 -411,-188 -310,-160 -1716,-985 -93,-59 -163,-150 -219,-264 42,-101 87,-171 126,-185 177,-59 1569,1072 1851,1131 104,24 226,14 344,-49l0 0z"/>
    <path class="fil14" d="M84469 57578c1601,877 1312,-2704 1312,-3393 0,-320 -501,-236 -1089,-337 0,0 -898,3239 -223,3730l0 0z"/>
    <path class="fil15" d="M84469 57578c1601,877 1312,-2704 1312,-3393 0,-66 -18,-111 -52,-149 -101,-49 -167,-80 -171,-84l0 0c0,4 4,1566 -160,2408 -163,842 -557,1002 -838,943 -60,-14 -171,-73 -307,-160 39,202 108,355 216,435l0 0z"/>
    <path class="fil20" d="M85937 53998c-34,73 -414,257 -713,226 -303,-28 -532,-376 -532,-376 0,0 28,-292 222,-630 192,-337 321,-588 383,-550 66,42 7,529 7,529 0,0 369,-327 647,-494 275,-170 324,-212 394,-146 69,63 -42,177 -42,177 0,0 282,-149 362,-76 76,73 -73,236 -73,236 0,0 181,-86 247,18 66,101 -192,247 -192,247 0,0 157,-45 164,63 7,121 -752,671 -874,775l0 1z"/>
    <path class="fil21" d="M86811 53222c7,121 -752,671 -874,776 -13,27 -76,69 -167,114 -142,70 -361,133 -546,112 -303,-28 -532,-376 -532,-376 0,0 3,-7 3,-17 11,6 25,17 39,24 156,104 417,247 671,226 418,-31 901,-459 1395,-894 4,10 7,21 11,35l0 0z"/>
    <path class="fil21" d="M77472 56398c-77,49 -153,101 -237,157l150 324c28,-18 56,-32 83,-49 60,-35 122,-70 185,-108l-178 -327c0,3 -3,3 -3,3z"/>
    <path class="fil20" d="M77235 56555c84,-56 160,-108 237,-157 0,0 3,0 3,-3l-3 -11 -282 -515 -428 -793c-56,38 -111,80 -160,118l585 1257 48 104z"/>
    <path class="fil21" d="M83397 56558c-62,-45 -125,-87 -184,-125l-101 296 -21 62c7,4 14,11 21,14 87,49 167,98 240,140l42 -140 66 -205c-21,-14 -42,-28 -63,-42l0 0z"/>
    <path class="fil20" d="M83213 56433c59,38 122,80 184,125 21,14 42,28 63,42l477 -1486c-73,-52 -150,-107 -230,-160l-306 915 -188 564z"/>
    <polygon class="fil16" points="79121,58322 80210,58329 80210,58002 79121,57995 "/>
    <polygon class="fil16" points="80388,56350 80857,56353 80861,55936 80388,55932 "/>
    <path class="fil12" d="M79862 65233c59,10 -1993,-147 -2053,-143 -59,3 60,2136 60,2136 73,233 -954,710 -943,1110 7,348 553,449 894,442 344,-10 856,-323 1148,-501 289,-177 404,-226 425,-341 20,-115 -18,-651 -18,-651l487 -2052 0 0z"/>
    <path class="fil13" d="M77218 68430c-118,-261 661,-964 845,-1005 185,-39 755,-112 710,-108 -45,3 -616,0 -692,-174 -80,-174 -181,-1796 45,-1830 230,-32 1093,-126 1093,-126 -588,-41 -1375,-101 -1410,-97 -3,0 -3,3 -7,14 -38,184 67,2122 67,2122 73,233 -954,710 -943,1110 7,348 553,449 894,442 38,-3 76,-7 118,-14 0,0 -602,-76 -720,-334l0 0z"/>
    <path class="fil12" d="M80767 65236c-59,11 1997,-125 2056,-122 59,7 -87,2137 -87,2137 -76,233 947,723 933,1124 -14,347 -560,441 -901,428 -345,-11 -853,-334 -1142,-512 -288,-181 -400,-233 -421,-348 -17,-115 25,-651 25,-651l-463 -2056z"/>
    <path class="fil13" d="M83373 68465c122,-257 -647,-974 -832,-1016 -184,-38 -755,-122 -709,-118 45,7 616,10 696,-164 80,-174 201,-1795 -25,-1830 -226,-35 -1092,-139 -1092,-139 591,-35 1378,-84 1412,-84 4,4 4,7 7,18 39,184 -94,2119 -94,2119 -76,233 947,723 933,1124 -14,347 -560,441 -901,428 -39,0 -80,-7 -119,-14 0,0 606,-67 724,-324z"/>
   </g>
   <path class="fil0" d="M93095 26705c-5930,-4636 -2135,-9004 3779,-11822 4867,-2319 12604,-4539 13700,2501 1448,9292 -10427,14833 -17479,9321z"/>
   <path class="fil0" d="M107822 29602c1729,0 3130,1041 3130,2089 0,1048 -1401,1898 -3130,1898 -1729,0 -3130,-850 -3130,-1898 0,-1048 1401,-2089 3130,-2089z"/>
  </g>
 </g>
</svg>
