<?xml version="1.0" encoding="UTF-8"?>
<!DOCTYPE svg PUBLIC "-//W3C//DTD SVG 1.1//EN" "http://www.w3.org/Graphics/SVG/1.1/DTD/svg11.dtd">
<!-- Creator: CorelDRAW X7 -->
<svg xmlns="http://www.w3.org/2000/svg" xml:space="preserve" width="2.22748in" height="2.19681in" version="1.1" style="shape-rendering:geometricPrecision; text-rendering:geometricPrecision; image-rendering:optimizeQuality; fill-rule:evenodd; clip-rule:evenodd"
viewBox="0 0 22275 21968"
 xmlns:xlink="http://www.w3.org/1999/xlink">
 <defs>
  <style type="text/css">
   <![CDATA[
    .fil3 {fill:#A38755}
    .fil0 {fill:#BFCBE5}
    .fil1 {fill:#E9EDF6}
    .fil2 {fill:#F5F7FA}
   ]]>
  </style>
 </defs>
 <g id="Layer_x0020_1">
  <metadata id="CorelCorpID_0Corel-Layer"/>
  <g id="_1503012349808">
   <path class="fil0" d="M11599 617c-5896,0 -10675,4779 -10675,10675 0,5896 4779,10675 10675,10675 5896,0 10675,-4779 10675,-10675 0,-5896 -4779,-10675 -10675,-10675z"/>
   <path class="fil1" d="M4554 1932c-4830,3382 -6004,10039 -2622,14868 3382,4830 10038,6003 14868,2622 4829,-3382 6003,-10039 2621,-14868 -3381,-4830 -10038,-6003 -14867,-2622z"/>
   <path class="fil2" d="M8121 6175c-3199,2239 -3976,6647 -1737,9845 2240,3199 6648,3976 9846,1736 3198,-2239 3976,-6647 1736,-9845 -2239,-3199 -6647,-3976 -9845,-1736z"/>
   <path class="fil3" d="M7255 6392c0,-691 -561,-1253 -1252,-1253 -689,0 -1252,562 -1252,1253 0,689 563,1251 1252,1251 689,0 1252,-562 1252,-1251zm-2892 0c0,-904 737,-1641 1640,-1641 829,0 1531,625 1629,1446l5700 0c-12,129 -12,259 0,388l-5700 0c-99,830 -810,1445 -1629,1445 -901,0 -1640,-737 -1640,-1638zm2775 1678l2929 5372c1062,-429 2250,353 2250,1522 0,902 -739,1639 -1640,1639 -901,0 -1640,-737 -1640,-1639 0,-536 259,-1027 692,-1337l-2929 -5372c119,-51 232,-113 338,-185zm8213 -3319c903,0 1639,737 1639,1641 0,901 -738,1638 -1639,1638 -215,0 -421,-42 -610,-118l-2929 5372c-106,-72 -219,-134 -338,-185l2929 -5372c-436,-309 -692,-807 -692,-1336 0,-901 735,-1640 1640,-1640zm-1253 1641c0,689 563,1251 1253,1251 689,0 1252,-562 1252,-1251 0,-691 -562,-1253 -1252,-1253 -690,0 -1253,562 -1253,1253zm-3421 7319c-690,0 -1252,563 -1252,1253 0,689 563,1251 1252,1251 689,0 1252,-562 1252,-1251 0,-691 -562,-1253 -1252,-1253z"/>
  </g>
 </g>
</svg>
