<?xml version="1.0" encoding="UTF-8"?>
<!DOCTYPE svg PUBLIC "-//W3C//DTD SVG 1.1//EN" "http://www.w3.org/Graphics/SVG/1.1/DTD/svg11.dtd">
<!-- Creator: CorelDRAW X7 -->
<svg xmlns="http://www.w3.org/2000/svg" xml:space="preserve" width="2.22748in" height="2.19681in" version="1.1" style="shape-rendering:geometricPrecision; text-rendering:geometricPrecision; image-rendering:optimizeQuality; fill-rule:evenodd; clip-rule:evenodd"
viewBox="0 0 22275 21968"
 xmlns:xlink="http://www.w3.org/1999/xlink">
 <defs>
  <style type="text/css">
   <![CDATA[
    .fil3 {fill:#A38755}
    .fil0 {fill:#BFCBE5}
    .fil1 {fill:#E9EDF6}
    .fil2 {fill:#F5F7FA}
   ]]>
  </style>
 </defs>
 <g id="Layer_x0020_1">
  <metadata id="CorelCorpID_0Corel-Layer"/>
  <g id="_1502933173984">
   <path class="fil0" d="M11599 617c-5895,0 -10675,4780 -10675,10675 0,5896 4780,10676 10675,10676 5896,0 10676,-4780 10676,-10676 0,-5895 -4780,-10675 -10676,-10675z"/>
   <path class="fil1" d="M5340 1432c-5106,2948 -6856,9477 -3908,14583 2948,5106 9477,6856 14583,3908 5106,-2948 6855,-9477 3907,-14583 -2948,-5106 -9477,-6856 -14582,-3908z"/>
   <path class="fil2" d="M8475 6707c-3381,1952 -4539,6276 -2587,9657 1952,3381 6276,4540 9657,2588 3381,-1952 4540,-6276 2587,-9657 -1952,-3381 -6275,-4540 -9657,-2588z"/>
   <path class="fil3" d="M10677 4489c-1653,0 -3206,644 -4375,1813 -1169,1169 -1813,2723 -1813,4376 0,1652 644,3207 1813,4375 1169,1169 2722,1813 4375,1813 1653,0 3207,-644 4376,-1813 1169,-1168 1813,-2723 1813,-4375 0,-1653 -644,-3207 -1813,-4376 -1169,-1169 -2723,-1813 -4376,-1813zm0 1547c-1239,0 -2405,483 -3282,1359 -876,877 -1359,2043 -1359,3283 0,1239 483,2405 1359,3282 877,876 2043,1359 3282,1359 1240,0 2405,-482 3282,-1359 877,-877 1359,-2043 1359,-3282 0,-1240 -482,-2406 -1359,-3283 -877,-876 -2042,-1359 -3282,-1359zm0 1548c-826,0 -1603,322 -2188,906 -584,584 -906,1361 -906,2188 0,826 322,1603 906,2188 585,584 1362,905 2188,905 827,0 1603,-321 2188,-905 585,-585 906,-1362 906,-2188 0,-827 -321,-1604 -906,-2188 -585,-584 -1361,-906 -2188,-906zm194 3287l1546 0 0 -387 -1546 0 0 -1547 -387 0 0 1547 -1547 0 0 387 1547 0 0 1547 387 0 0 -1547zm1720 1721c-511,512 -1190,793 -1914,793 -723,0 -1403,-281 -1915,-793 -511,-512 -792,-1192 -792,-1914 0,-723 281,-1403 792,-1915 512,-511 1192,-793 1915,-793 724,0 1403,282 1914,793 512,512 793,1192 793,1915 0,722 -281,1402 -793,1914zm1095 1094c-804,804 -1873,1246 -3009,1246 -1137,0 -2205,-442 -3008,-1246 -804,-804 -1247,-1872 -1247,-3008 0,-1137 443,-2205 1247,-3009 803,-803 1871,-1246 3008,-1246 1136,0 2205,443 3009,1246 803,804 1245,1872 1245,3009 0,1136 -442,2204 -1245,3008zm1093 1094c-1095,1096 -2552,1700 -4102,1700 -1549,0 -3006,-604 -4102,-1700 -1096,-1096 -1699,-2552 -1699,-4102 0,-1550 603,-3007 1699,-4103 1096,-1095 2553,-1699 4102,-1699 1550,0 3007,604 4102,1699 1096,1096 1700,2553 1700,4103 0,1550 -604,3006 -1700,4102z"/>
  </g>
 </g>
</svg>
