<?xml version="1.0" encoding="UTF-8"?>
<!DOCTYPE svg PUBLIC "-//W3C//DTD SVG 1.1//EN" "http://www.w3.org/Graphics/SVG/1.1/DTD/svg11.dtd">
<!-- Creator: CorelDRAW X7 -->
<svg xmlns="http://www.w3.org/2000/svg" xml:space="preserve" width="2.22748in" height="2.19681in" version="1.1" style="shape-rendering:geometricPrecision; text-rendering:geometricPrecision; image-rendering:optimizeQuality; fill-rule:evenodd; clip-rule:evenodd"
viewBox="0 0 22275 21968"
 xmlns:xlink="http://www.w3.org/1999/xlink">
 <defs>
  <style type="text/css">
   <![CDATA[
    .fil0 {fill:#D5DDEE}
    .fil1 {fill:#E9EDF6}
    .fil2 {fill:#F9FBFB}
    .fil3 {fill:#A38755;fill-rule:nonzero}
   ]]>
  </style>
 </defs>
 <g id="Layer_x0020_1">
  <metadata id="CorelCorpID_0Corel-Layer"/>
  <g id="_1502797080016">
   <path class="fil0" d="M11600 618c-5896,0 -10675,4779 -10675,10675 0,5896 4779,10675 10675,10675 5896,0 10675,-4779 10675,-10675 0,-5896 -4779,-10675 -10675,-10675z"/>
   <path class="fil1" d="M20989 7915c-1526,-5695 -7379,-9075 -13074,-7549 -5695,1526 -9075,7380 -7549,13075 1526,5695 7380,9074 13075,7548 5695,-1525 9074,-7379 7548,-13074z"/>
   <path class="fil2" d="M18267 10784c-1011,-3772 -4887,-6010 -8659,-4999 -3771,1010 -6009,4887 -4998,8658 1010,3771 4887,6009 8658,4999 3771,-1011 6009,-4887 4999,-8658z"/>
   <path class="fil3" d="M12338 8806c0,-230 -42,-431 -117,-604 -79,-182 -197,-336 -343,-461 -169,-145 -384,-252 -620,-319l0 -399c330,79 635,221 871,424 189,163 342,363 446,601 97,222 150,474 150,758l-387 0zm-1660 -4317c3417,0 6188,2771 6188,6189 0,3418 -2771,6189 -6188,6189 -3418,0 -6189,-2771 -6189,-6189 0,-3418 2771,-6189 6189,-6189zm4102 2087c-1050,-1050 -2500,-1700 -4102,-1700 -1602,0 -3053,650 -4103,1700 -1049,1049 -1699,2500 -1699,4102 0,1602 650,3052 1699,4102 1050,1050 2501,1699 4103,1699 1602,0 3052,-649 4102,-1699 1050,-1050 1699,-2500 1699,-4102 0,-1602 -649,-3053 -1699,-4102zm-4296 -487l387 0 0 872 0 387 0 5506 0 386 0 1549 1397 -1130 242 301 -1832 1482 -1833 -1482 242 -301 1397 1130 0 -1556c-465,-43 -915,-209 -1238,-493 -176,-155 -319,-348 -415,-576 -91,-212 -141,-454 -141,-724l387 0c0,217 39,408 109,573 73,172 181,318 316,437 253,222 608,355 982,395l0 -2537c-421,-90 -837,-194 -1196,-416 -126,-79 -234,-172 -323,-277 -218,-255 -326,-574 -335,-898 -8,-320 79,-647 252,-925 85,-138 192,-264 319,-373 336,-286 803,-439 1283,-465l0 -865zm0 3824l0 -2573c-392,24 -768,147 -1032,373 -95,81 -177,177 -242,283 -133,214 -201,465 -194,710 7,240 85,473 242,657 64,76 142,143 235,201 283,176 632,270 991,349zm774 173c280,73 547,166 785,314 92,57 177,122 253,196 78,76 146,161 201,257 173,298 215,662 150,1005 -66,351 -243,685 -505,912 -242,209 -551,348 -884,419l0 -396c240,-61 459,-166 631,-315 195,-169 328,-422 379,-691 48,-258 19,-526 -105,-741 -37,-64 -83,-122 -136,-173 -54,-53 -118,-101 -188,-144 -171,-107 -369,-182 -581,-243l0 -400z"/>
  </g>
 </g>
</svg>
