<?xml version="1.0" encoding="UTF-8"?>
<!DOCTYPE svg PUBLIC "-//W3C//DTD SVG 1.1//EN" "http://www.w3.org/Graphics/SVG/1.1/DTD/svg11.dtd">
<!-- Creator: CorelDRAW X7 -->
<svg xmlns="http://www.w3.org/2000/svg" xml:space="preserve" width="4.24984in" height="3.09654in" version="1.1" style="shape-rendering:geometricPrecision; text-rendering:geometricPrecision; image-rendering:optimizeQuality; fill-rule:evenodd; clip-rule:evenodd"
viewBox="0 0 42498 30965"
 xmlns:xlink="http://www.w3.org/1999/xlink">
 <defs>
  <style type="text/css">
   <![CDATA[
    .fil0 {fill:none}
    .fil1 {fill:#A38755}
   ]]>
  </style>
 </defs>
 <g id="Layer_x0020_1">
  <metadata id="CorelCorpID_0Corel-Layer"/>
  <g id="_2598338795248">
   <rect class="fil0" width="42498" height="30965"/>
   <g>
    <path class="fil1" d="M20052 13761c-208,-7 -382,156 -388,364 -1,8 -1,16 0,24l0 1868c-902,-723 -2219,-580 -2943,322 -299,371 -461,834 -461,1311 -20,1155 901,2108 2056,2128 1156,20 2109,-901 2128,-2057 1,-23 1,-47 0,-71l0 -3499c3,-105 -38,-206 -114,-279 -74,-72 -174,-112 -278,-109l0 -2zm17149 3087c-332,-777 -1094,-1282 -1939,-1287 -1155,0 -2092,936 -2092,2091 0,0 0,1 0,1 -1,1156 936,2093 2092,2093 502,0 988,-180 1368,-507 5,-6 14,-13 15,-15 34,-28 64,-60 88,-96 126,-181 81,-430 -100,-556 -151,-98 -351,-80 -482,44 -13,11 -50,46 -56,50l-5 5c-112,95 -239,169 -376,220 -145,51 -298,76 -452,74 -141,1 -283,-22 -417,-67 -131,-43 -254,-107 -366,-188 -111,-82 -209,-180 -290,-292 -82,-114 -145,-241 -186,-375l2958 0c104,2 204,-38 278,-111 76,-72 118,-173 114,-278 3,-275 -49,-549 -153,-805l1 -1zm3631 -1031c-76,-71 -166,-125 -264,-158 -112,-40 -229,-67 -347,-81 -117,-14 -235,-21 -353,-22 -239,0 -477,41 -703,123 -220,80 -426,196 -609,344l0 -79c-9,-215 -191,-383 -406,-375 -204,8 -368,171 -376,375l0 3408c9,215 191,384 407,375 203,-8 367,-171 375,-375l0 -1704c-1,-176 33,-350 102,-512 66,-155 161,-297 280,-416 120,-119 261,-214 417,-280 162,-69 336,-104 512,-103 175,-1 348,30 511,94 52,24 108,38 165,40 53,1 105,-9 153,-29 46,-20 88,-49 122,-85 35,-35 63,-76 84,-122 22,-48 32,-100 32,-153 4,-98 -35,-193 -105,-261l3 -4zm-14243 903c121,-119 263,-215 419,-281 162,-69 336,-103 512,-102 155,-1 310,26 455,82 146,58 281,141 400,244 72,57 162,88 254,86 105,5 208,-35 282,-109 73,-75 113,-176 110,-281 2,-114 -48,-222 -135,-295 -374,-335 -861,-517 -1363,-508 -1156,0 -2093,936 -2093,2092 -3,1154 931,2092 2084,2095 504,1 992,-180 1372,-509 79,-75 123,-179 123,-288 7,-207 -156,-381 -364,-388 -8,0 -17,0 -25,0 -89,0 -175,29 -247,82 -116,102 -251,184 -395,240 -146,55 -300,82 -456,81 -176,1 -350,-34 -512,-102 -156,-67 -298,-162 -418,-281 -513,-509 -516,-1338 -6,-1851 2,-2 4,-4 6,-5l-3 -2zm-2168 -551c-818,-817 -2143,-817 -2960,1 -392,392 -612,924 -612,1478 -19,1155 901,2108 2057,2128 1155,20 2108,-901 2128,-2057 0,-23 0,-47 0,-71 0,-275 -53,-548 -155,-803 -106,-254 -262,-484 -458,-676l0 0zm-271 1983c-66,155 -162,296 -280,417 -120,120 -261,216 -417,284 -328,139 -699,139 -1027,0 -313,-134 -562,-385 -693,-699 -138,-325 -138,-692 0,-1016 132,-313 380,-561 693,-694 328,-139 699,-139 1027,0 156,68 297,164 417,284 118,121 214,262 280,417 137,324 137,689 0,1012l0 -5zm-4590 2c-133,314 -383,565 -696,701 -329,139 -699,139 -1028,0 -312,-135 -561,-385 -692,-699 -138,-325 -138,-692 0,-1016 131,-313 380,-562 692,-696 329,-139 700,-139 1028,0 313,136 563,387 696,701 138,323 138,689 0,1012l0 -3zm-11884 -7753l0 1426 1426 0 0 -1426 -1426 0zm31658 9156l0 -312 133 0c33,0 57,3 72,9 15,5 27,15 36,30 10,14 14,30 14,49 0,23 -7,42 -20,58 -14,15 -35,24 -62,28 14,8 25,17 34,26 9,10 20,27 35,51l38 61 -75 0 -45 -68c-16,-24 -27,-40 -33,-46 -6,-6 -12,-11 -19,-13 -7,-2 -17,-3 -32,-3l-13 0 0 130 -63 0zm133 -471c87,0 166,35 223,92l0 0c57,57 93,136 93,223 0,87 -36,166 -93,223 -57,57 -136,92 -223,92 -87,0 -166,-35 -223,-92l0 0c-57,-57 -92,-136 -92,-223 0,-87 35,-166 92,-223l0 0 0 0c57,-57 136,-92 223,-92zm183 133c-47,-47 -112,-76 -183,-76 -71,0 -136,29 -182,76l0 0c-47,46 -76,111 -76,182 0,71 29,136 76,182l0 1c46,46 111,75 182,75 71,0 136,-29 183,-76 46,-46 75,-111 75,-182 0,-71 -29,-136 -75,-182l0 0zm-253 158l47 0c30,0 49,-1 56,-4 8,-2 14,-7 18,-13 4,-6 6,-14 6,-23 0,-11 -3,-19 -8,-26 -6,-6 -14,-10 -24,-12 -5,-1 -20,-1 -46,-1l-49 0 0 79zm-5395 -2111c39,-135 101,-262 183,-376 81,-112 180,-210 292,-291 113,-81 238,-145 370,-189 134,-44 274,-67 414,-67 141,0 280,23 413,67 263,88 493,256 657,480 84,114 148,241 189,376l-2518 0zm6830 -1449l0 0 0 0zm-14243 903l0 0 0 0zm6482 -776c0,-51 -10,-102 -31,-149 -21,-45 -50,-86 -85,-122 -34,-36 -76,-65 -122,-84 -48,-20 -100,-30 -153,-30 -74,0 -147,21 -209,61l-2234 1453 0 -2918c2,-105 -39,-205 -114,-278 -72,-76 -172,-118 -276,-116 -215,-1 -391,172 -392,387 0,2 0,3 0,5l0 5193c-1,104 40,204 114,276 72,76 173,118 278,116 104,2 203,-40 275,-116 74,-72 115,-172 114,-276l0 -1346 455 -299 1727 1938c70,68 164,104 261,101 52,1 105,-10 153,-30 46,-19 88,-48 122,-83 36,-37 65,-79 85,-126 21,-47 32,-98 31,-149 1,-101 -38,-199 -108,-273l-1605 -1808 1565 -1016c101,-70 158,-188 149,-311zm-8921 2208l0 0 0 0zm-4590 2l0 0 0 0zm-14004 -4499l0 -1426 -1426 0 0 1426 1426 0zm1791 0l0 -1426 -1425 0 0 1426 1425 0zm329 0l1426 0 0 -1426 -1426 0 0 1426zm1426 1791l0 -1426 -1426 0 0 1426 1426 0zm329 -1426l0 1426 1426 0 0 -1426 -1426 0zm-5045 3431c-225,0 -408,183 -408,408 0,226 183,408 408,408 226,0 408,-182 408,-408 0,-225 -182,-408 -408,-408zm-585 -2005l0 -1426 -1426 0 0 1426 1426 0zm1755 0l0 -1426 -1426 0 0 1426 1426 0zm366 0l1425 0 0 -1426 -1425 0 0 1426zm5155 402l-9469 0c-192,1149 263,2630 1117,3451 902,867 2151,1265 3489,1265 3290,0 5996,-1425 7276,-4496 640,27 1360,-92 1808,-591 148,-165 262,-359 385,-579 -615,-369 -1150,-483 -1864,-293 -80,-636 -442,-1028 -887,-1400l-210 -172c-121,151 -221,292 -300,434 -337,608 -288,1448 117,2016 -301,219 -774,344 -1462,365zm-6691 1274c407,0 737,330 737,737 0,407 -330,737 -737,737 -407,0 -737,-330 -737,-737 0,-407 330,-737 737,-737z"/>
   </g>
  </g>
 </g>
</svg>
