<?xml version="1.0" encoding="UTF-8"?>
<!DOCTYPE svg PUBLIC "-//W3C//DTD SVG 1.1//EN" "http://www.w3.org/Graphics/SVG/1.1/DTD/svg11.dtd">
<!-- Creator: CorelDRAW X7 -->
<svg xmlns="http://www.w3.org/2000/svg" xml:space="preserve" width="4.55335in" height="3.18323in" version="1.1" style="shape-rendering:geometricPrecision; text-rendering:geometricPrecision; image-rendering:optimizeQuality; fill-rule:evenodd; clip-rule:evenodd"
viewBox="0 0 45533 31832"
 xmlns:xlink="http://www.w3.org/1999/xlink">
 <defs>
  <style type="text/css">
   <![CDATA[
    .fil2 {fill:none}
    .fil0 {fill:#A38755}
    .fil1 {fill:#D2AE6D}
   ]]>
  </style>
 </defs>
 <g id="Layer_x0020_1">
  <metadata id="CorelCorpID_0Corel-Layer"/>
  <g id="_1502798344880">
   <g>
    <g>
     <path class="fil0" d="M22767 26583c5891,0 10666,-4776 10666,-10667 0,-5891 -4775,-10667 -10666,-10667 -5891,0 -10667,4776 -10667,10667 0,5891 4776,10667 10667,10667l0 0zm0 -1600c-5008,0 -9067,-4059 -9067,-9067 0,-5007 4059,-9067 9067,-9067 5007,0 9066,4060 9066,9067 0,5008 -4059,9067 -9066,9067l0 0z"/>
     <path class="fil1" d="M22767 24449c4713,0 8533,-3820 8533,-8533 0,-4713 -3820,-8533 -8533,-8533 -4713,0 -8534,3820 -8534,8533 0,4713 3821,8533 8534,8533l0 0zm0 -16533c-295,0 -534,240 -534,537l0 6930 -3735 0c-293,0 -531,237 -531,533 0,295 243,533 531,533l4802 0 0 -7999c0,-296 -238,-534 -533,-534z"/>
    </g>
   </g>
   <polygon class="fil2" points="0,0 45533,0 45533,31832 0,31832 "/>
  </g>
 </g>
</svg>
