<?xml version="1.0" encoding="UTF-8"?>
<!DOCTYPE svg PUBLIC "-//W3C//DTD SVG 1.1//EN" "http://www.w3.org/Graphics/SVG/1.1/DTD/svg11.dtd">
<!-- Creator: CorelDRAW X7 -->
<svg xmlns="http://www.w3.org/2000/svg" xml:space="preserve" width="2.22748in" height="2.19681in" version="1.1" style="shape-rendering:geometricPrecision; text-rendering:geometricPrecision; image-rendering:optimizeQuality; fill-rule:evenodd; clip-rule:evenodd"
viewBox="0 0 22275 21968"
 xmlns:xlink="http://www.w3.org/1999/xlink">
 <defs>
  <style type="text/css">
   <![CDATA[
    .fil3 {fill:#A38755}
    .fil0 {fill:#BFCBE5}
    .fil1 {fill:#E9EDF6}
    .fil2 {fill:#F5F7FA}
   ]]>
  </style>
 </defs>
 <g id="Layer_x0020_1">
  <metadata id="CorelCorpID_0Corel-Layer"/>
  <g id="_1502933160096">
   <path class="fil0" d="M11600 618c-5896,0 -10675,4779 -10675,10675 0,5896 4779,10675 10675,10675 5896,0 10675,-4779 10675,-10675 0,-5896 -4779,-10675 -10675,-10675z"/>
   <path class="fil1" d="M20576 6679c-2209,-5467 -8431,-8108 -13897,-5899 -5467,2209 -8108,8431 -5899,13897 2208,5467 8430,8108 13897,5899 5466,-2209 8107,-8431 5899,-13897z"/>
   <path class="fil2" d="M15193 9126c-1463,-3620 -5583,-5369 -9203,-3907 -3620,1463 -5369,5583 -3906,9203 1462,3620 5583,5369 9203,3907 3620,-1463 5369,-5583 3906,-9203z"/>
   <path class="fil3" d="M10678 16867c1651,0 3207,-645 4379,-1817 1165,-1165 1809,-2720 1809,-4372 0,-1652 -644,-3207 -1809,-4379 -1172,-1165 -2728,-1810 -4379,-1810 -1652,0 -3208,645 -4373,1810 -1172,1172 -1816,2727 -1816,4379 0,1652 644,3207 1816,4372 1165,1172 2721,1817 4373,1817zm-387 -9283l0 776 774 0 0 -776 -774 0zm774 5412l-774 0 0 776 774 0 0 -776zm387 -386l0 1548 -1547 0 0 -1548 1547 0zm-387 -2320l-774 0 0 776 774 0 0 -776zm387 -386l0 1548 -1547 0 0 -1548 1547 0zm-1547 -2706l1547 0 0 193 0 1355 -1547 0 0 -1548zm-3333 -625c1097,-1097 2557,-1700 4106,-1700 1549,0 3008,603 4105,1700 1096,1096 1699,2556 1699,4105 0,1549 -603,3009 -1699,4105 -1097,1090 -2556,1700 -4105,1700 -1549,0 -3009,-610 -4106,-1700 -1089,-1096 -1692,-2556 -1692,-4105 0,-1549 603,-3009 1692,-4105z"/>
  </g>
 </g>
</svg>
