<?xml version="1.0" encoding="UTF-8"?>
<!DOCTYPE svg PUBLIC "-//W3C//DTD SVG 1.1//EN" "http://www.w3.org/Graphics/SVG/1.1/DTD/svg11.dtd">
<!-- Creator: CorelDRAW X7 -->
<svg xmlns="http://www.w3.org/2000/svg" xml:space="preserve" width="2.22748in" height="2.19681in" version="1.1" style="shape-rendering:geometricPrecision; text-rendering:geometricPrecision; image-rendering:optimizeQuality; fill-rule:evenodd; clip-rule:evenodd"
viewBox="0 0 22275 21968"
 xmlns:xlink="http://www.w3.org/1999/xlink">
 <defs>
  <style type="text/css">
   <![CDATA[
    .fil3 {fill:#A38755}
    .fil0 {fill:#BFCBE5}
    .fil1 {fill:#E9EDF6}
    .fil2 {fill:#F5F7FA}
   ]]>
  </style>
 </defs>
 <g id="Layer_x0020_1">
  <metadata id="CorelCorpID_0Corel-Layer"/>
  <g id="_1503106077264">
   <path class="fil0" d="M11600 618c-5896,0 -10675,4779 -10675,10675 0,5896 4779,10675 10675,10675 5896,0 10675,-4779 10675,-10675 0,-5896 -4779,-10675 -10675,-10675z"/>
   <path class="fil1" d="M20709 14329c2017,-5540 -840,-11666 -6380,-13683 -5540,-2016 -11666,841 -13683,6381 -2016,5540 840,11666 6381,13683 5540,2016 11666,-841 13682,-6381z"/>
   <path class="fil2" d="M15770 12026c1335,-3669 -556,-7726 -4225,-9061 -3669,-1336 -7726,556 -9061,4225 -1336,3669 556,7726 4225,9061 3669,1335 7725,-556 9061,-4225z"/>
   <path class="fil3" d="M10485 9033l385 0 0 -1241 -385 0 0 1241zm4153 -2555l0 1699 -384 0 0 -2117 192 -191 2116 0 0 384 -1604 0c24,24 49,48 73,72 1163,1162 1804,2709 1804,4352 0,1645 -641,3191 -1804,4354 -1163,1163 -2708,1804 -4353,1804 -847,0 -1667,-170 -2423,-493l0 -422c750,347 1572,530 2423,530 1541,0 2991,-601 4082,-1691 1089,-1090 1690,-2540 1690,-4082 0,-1541 -601,-2990 -1690,-4080 -40,-40 -81,-80 -122,-119zm-8240 8625l-1604 0 0 385 2115 0 193 -192 0 -2117 -384 0 0 1698c-41,-39 -81,-78 -121,-118 -1091,-1090 -1691,-2540 -1691,-4082 0,-1541 600,-2990 1691,-4080 1090,-1090 2539,-1692 4081,-1692 850,0 1672,183 2422,530l0 -421c-755,-323 -1576,-493 -2422,-493 -1644,0 -3191,641 -4354,1804 -1163,1162 -1803,2709 -1803,4352 0,1645 640,3191 1803,4354 25,24 49,48 74,72zm4472 -1539l0 -3761 -385 0 0 3761 385 0z"/>
  </g>
 </g>
</svg>
