<?xml version="1.0" encoding="UTF-8"?>
<!DOCTYPE svg PUBLIC "-//W3C//DTD SVG 1.1//EN" "http://www.w3.org/Graphics/SVG/1.1/DTD/svg11.dtd">
<!-- Creator: CorelDRAW X7 -->
<svg xmlns="http://www.w3.org/2000/svg" xml:space="preserve" width="4.55335in" height="3.18323in" version="1.1" style="shape-rendering:geometricPrecision; text-rendering:geometricPrecision; image-rendering:optimizeQuality; fill-rule:evenodd; clip-rule:evenodd"
viewBox="0 0 45533 31832"
 xmlns:xlink="http://www.w3.org/1999/xlink">
 <defs>
  <style type="text/css">
   <![CDATA[
    .fil2 {fill:none}
    .fil0 {fill:#A38755}
    .fil1 {fill:#FBF9F4}
   ]]>
  </style>
 </defs>
 <g id="Layer_x0020_1">
  <metadata id="CorelCorpID_0Corel-Layer"/>
  <g id="_1503054394864">
   <g>
    <path class="fil0" d="M8397 10761l28740 0 0 9580 -14370 0 0 1597 -6387 0 0 -1597 -7983 0 0 -9580zm1596 7984l3194 0 0 -4790 1596 0 0 4790 1597 0 0 -6387 -6387 0 0 6387zm7984 -6387l0 7983 3193 0 0 -1596 3193 0 0 -6387 -6386 0zm3193 1597l1597 0 0 3193 -1597 0 0 -3193zm4790 -1597l0 6387 3193 0 0 -4790 1597 0 0 4790 1597 0 0 -4790 1596 0 0 4790 1597 0 0 -6387 -9580 0z"/>
    <polygon class="fil1" points="9993,18745 13187,18745 13187,13955 14783,13955 14783,18745 16380,18745 16380,12358 9993,12358 "/>
    <path class="fil1" d="M17977 12358l0 7983 3193 0 0 -1596 3193 0 0 -6387 -6386 0zm4790 4790l-1597 0 0 -3193 1597 0 0 3193z"/>
    <polygon class="fil1" points="25960,12358 25960,18745 29153,18745 29153,13955 30750,13955 30750,18745 32347,18745 32347,13955 33943,13955 33943,18745 35540,18745 35540,12358 "/>
   </g>
   <polygon class="fil2" points="0,0 45533,0 45533,31832 0,31832 "/>
  </g>
 </g>
</svg>
