<?xml version="1.0" encoding="UTF-8"?>
<!DOCTYPE svg PUBLIC "-//W3C//DTD SVG 1.1//EN" "http://www.w3.org/Graphics/SVG/1.1/DTD/svg11.dtd">
<!-- Creator: CorelDRAW X7 -->
<svg xmlns="http://www.w3.org/2000/svg" xml:space="preserve" width="4.55335in" height="3.18323in" version="1.1" style="shape-rendering:geometricPrecision; text-rendering:geometricPrecision; image-rendering:optimizeQuality; fill-rule:evenodd; clip-rule:evenodd"
viewBox="0 0 45533 31832"
 xmlns:xlink="http://www.w3.org/1999/xlink">
 <defs>
  <style type="text/css">
   <![CDATA[
    .fil9 {fill:none}
    .fil4 {fill:none;fill-rule:nonzero}
    .fil0 {fill:#A38755}
    .fil8 {fill:#EEE0C6}
    .fil7 {fill:#FBF9F4}
    .fil3 {fill:#75613D;fill-rule:nonzero}
    .fil2 {fill:#A38755;fill-rule:nonzero}
    .fil1 {fill:#D2AE6D;fill-rule:nonzero}
    .fil6 {fill:#707070;fill-rule:nonzero;fill-opacity:0.007843}
    .fil5 {fill:white;fill-rule:nonzero;fill-opacity:0.007843}
   ]]>
  </style>
 </defs>
 <g id="Layer_x0020_1">
  <metadata id="CorelCorpID_0Corel-Layer"/>
  <g id="_1502933128960">
   <g>
    <g>
     <path class="fil0" d="M14741 21536l0 2731 408 0 0 -2731 -408 0zm21015 1869c0,-525 -370,-919 -887,-919 -517,0 -887,394 -887,919 0,524 370,918 887,918 517,0 887,-394 887,-918zm-887 -623c288,0 563,229 563,623 0,394 -275,623 -563,623 -289,0 -563,-229 -563,-623 0,-394 274,-623 563,-623zm1147 -240l0 1725 324 0 0 -943c0,-317 225,-503 447,-503 70,0 126,6 172,24l123 -303c-67,-28 -137,-42 -243,-42 -179,0 -429,127 -499,324l-14 0 0 -282 -310 0zm1242 0l0 1725 324 0 0 -954c0,-264 176,-531 440,-531 246,0 383,119 383,478l0 1007 324 0 0 -954c0,-264 176,-531 440,-531 246,0 383,119 383,478l0 1007 324 0 0 -1056c0,-426 -194,-725 -616,-725 -267,0 -478,138 -602,331 -87,-204 -267,-331 -545,-331 -204,0 -433,130 -531,296l-14 0 0 -240 -310 0zm-4462 0l0 296 324 0 0 1429 324 0 0 -1429 450 0 0 -296 -450 0 0 -218c0,-200 127,-295 289,-295 59,0 105,7 147,28l113 -278c-74,-32 -151,-46 -260,-46 -363,0 -613,229 -613,581l0 228 -324 0zm-161 296l0 -296 -423 0 0 -527 -323 0 0 527 -303 0 0 296 303 0 0 904c0,352 193,553 556,553 109,0 186,-14 260,-46l-113 -278c-45,21 -88,28 -147,28 -152,0 -233,-88 -233,-281l0 -880 423 0zm-1981 -352c-433,0 -641,260 -700,419l295 127c60,-162 232,-250 412,-250 243,0 450,158 450,419l0 49c-67,-39 -236,-106 -468,-106 -404,0 -756,211 -756,602 0,359 292,577 644,577 295,0 471,-151 566,-295l14 0 0 239 310 0 0 -1042c0,-486 -345,-739 -767,-739zm45 926c275,0 412,112 412,112 0,282 -271,504 -528,504 -169,0 -359,-92 -359,-275 0,-158 134,-341 475,-341zm-1414 -1665l0 2520 324 0 0 -2520 -324 0zm-560 750c0,200 -161,440 -450,440l-542 0 0 -880 542 0c289,0 450,239 450,440zm-1316 -750l0 2520 324 0 0 -1021 535 0c419,0 788,-309 788,-749 0,-440 -369,-750 -788,-750l-859 0zm-1192 1658c0,394 -261,623 -549,623 -289,0 -549,-236 -549,-623 0,-387 260,-623 549,-623 288,0 549,229 549,623zm-1422 0c0,527 384,918 820,918 275,0 489,-137 588,-295l14 0 0 239 310 0 0 -2520 -324 0 0 795 14 240 -14 0c-99,-158 -313,-296 -588,-296 -436,0 -820,391 -820,919zm-1787 193c0,426 215,725 658,725 236,0 450,-137 545,-295l14 0 0 239 310 0 0 -1725 -324 0 0 951c0,263 -172,535 -454,535 -246,0 -425,-124 -425,-483l0 -1003 -324 0 0 1056zm-2020 -193c0,524 370,918 887,918 517,0 887,-394 887,-918 0,-525 -370,-919 -887,-919 -517,0 -887,394 -887,919zm1450 0c0,394 -275,623 -563,623 -289,0 -563,-229 -563,-623 0,-394 274,-623 563,-623 288,0 563,229 563,623zm-2016 -1658l0 2520 324 0 0 -2520 -324 0zm-254 2125l-225 -225c-190,218 -457,366 -774,366 -531,0 -978,-387 -978,-1006 0,-619 447,-1006 978,-1006 289,0 524,102 700,320l225 -218c-225,-261 -545,-412 -925,-412 -742,0 -1309,566 -1309,1316 0,750 567,1316 1309,1316 422,0 778,-187 999,-451zm-12040 46c260,-260 341,-626 341,-922 0,-91 -7,-175 -21,-246l-1327 0 0 394 943 0c-28,222 -102,384 -214,496 -138,138 -352,289 -729,289 -580,0 -1034,-468 -1034,-1049 0,-580 454,-1048 1034,-1048 313,0 542,123 711,281l278 -278c-236,-225 -549,-397 -989,-397 -795,0 -1464,647 -1464,1442 0,795 669,1443 1464,1443 430,0 753,-141 1007,-405zm1413 -1453c-514,0 -932,391 -932,929 0,535 418,929 932,929 514,0 933,-394 933,-929 0,-538 -419,-929 -933,-929zm-524 929c0,-334 243,-563 524,-563 281,0 524,229 524,563 0,331 -243,563 -524,563 -281,0 -524,-232 -524,-563zm2558 -929c-513,0 -932,391 -932,929 0,535 419,929 932,929 514,0 933,-394 933,-929 0,-538 -419,-929 -933,-929zm-524 929c0,-334 243,-563 524,-563 282,0 524,229 524,563 0,331 -242,563 -524,563 -281,0 -524,-232 -524,-563zm2518 -929c-465,0 -890,408 -890,933 0,520 425,925 890,925 222,0 398,-98 489,-211l14 0 0 134c0,355 -190,545 -496,545 -250,0 -405,-179 -468,-331l-355 148c102,246 373,549 823,549 479,0 883,-282 883,-968l0 -1668 -387 0 0 152 -14 0c-91,-109 -267,-208 -489,-208zm35 366c278,0 496,239 496,567 0,323 -218,559 -496,559 -281,0 -517,-236 -517,-559 0,-328 236,-567 517,-567zm2618 -366c-478,0 -876,377 -876,929 0,521 394,929 922,929 426,0 672,-260 774,-412l-317 -211c-105,155 -249,257 -457,257 -208,0 -356,-95 -451,-282l1243 -513 -43 -106c-77,-207 -313,-591 -795,-591zm-471 901c-11,-359 277,-542 485,-542 162,0 299,81 345,197l-830 345z"/>
     <path id="path22" class="fil1" d="M25047 16354l-1517 2636 -3972 0c-354,0 -681,-189 -857,-497l-3213 -5602c-175,-305 -175,-679 0,-984l1222 -2131 1510 2623 2275 3955 4552 0z"/>
     <path id="path26" class="fil2" d="M30055 12891l-3213 5602c-176,308 -503,497 -858,497l-2454 0 1517 -2636 2276 -3955 -2276 -3954 3022 0 1986 3462c175,305 175,679 0,984z"/>
     <path id="path30" class="fil3" d="M28069 8445l-7574 0 -2275 3954 -1510 -2623 1991 -3471c176,-307 503,-497 857,-497l6426 0c355,0 682,190 858,497l1227 2140z"/>
     <path id="path64" class="fil4" d="M18220 12399l2275 -3954 7574 0 -47 -83m-7527 0l-2276 3955"/>
     <path id="path80" class="fil5" d="M15488 11990l1222 -2132 1510 2624 2275 3954 4504 0 48 -82 0 0 -4552 0 -2275 -3955 -1510 -2623 -1222 2131c-87,152 -129,320 -130,489l0 4c0,14 0,27 1,40 7,-155 49,-310 129,-450z"/>
     <path id="path96" class="fil6" d="M23578 18908l-4020 0c-354,0 -681,-190 -857,-497l-3213 -5602c-80,-140 -122,-295 -129,-451 -7,184 34,368 129,533l3213 5602c176,308 503,497 857,497l3972 0 48 -82z"/>
     <path class="fil7" d="M20495 8445l-2275 3954 2276 3955 4551 0 2275 -3955 -2275 -3954 -4552 0zm299 3954c0,-1092 885,-1977 1977,-1977 1092,0 1978,885 1978,1977 0,1092 -886,1977 -1978,1977 -1092,0 -1977,-885 -1977,-1977z"/>
    </g>
    <path class="fil8" d="M22771 14376c1092,0 1978,-885 1978,-1977 0,-1092 -886,-1977 -1978,-1977 -1092,0 -1977,885 -1977,1977 0,1092 885,1977 1977,1977z"/>
   </g>
   <polygon class="fil9" points="0,0 45533,0 45533,31832 0,31832 "/>
  </g>
 </g>
</svg>
