<?xml version="1.0" encoding="UTF-8"?>
<!DOCTYPE svg PUBLIC "-//W3C//DTD SVG 1.1//EN" "http://www.w3.org/Graphics/SVG/1.1/DTD/svg11.dtd">
<!-- Creator: CorelDRAW X7 -->
<svg xmlns="http://www.w3.org/2000/svg" xml:space="preserve" width="4.55335in" height="3.18323in" version="1.1" style="shape-rendering:geometricPrecision; text-rendering:geometricPrecision; image-rendering:optimizeQuality; fill-rule:evenodd; clip-rule:evenodd"
viewBox="0 0 45533 31832"
 xmlns:xlink="http://www.w3.org/1999/xlink">
 <defs>
  <style type="text/css">
   <![CDATA[
    .fil1 {fill:none}
    .fil0 {fill:#A38755}
   ]]>
  </style>
 </defs>
 <g id="Layer_x0020_1">
  <metadata id="CorelCorpID_0Corel-Layer"/>
  <g id="_1503106121840">
   <g>
    <path class="fil0" d="M21570 13761c-208,-7 -382,156 -389,364 0,8 0,16 0,24l0 1868c-901,-723 -2219,-580 -2943,322 -298,371 -461,834 -461,1311 -19,1155 901,2108 2057,2128 1155,19 2108,-901 2128,-2057 0,-23 0,-47 0,-71l0 -3499c3,-105 -39,-206 -114,-279 -74,-72 -175,-112 -278,-109l0 -2zm17149 3087c-333,-777 -1094,-1282 -1939,-1287 -1156,0 -2092,936 -2093,2091 0,0 0,1 0,1 0,1156 937,2093 2093,2093 502,0 987,-180 1367,-508 6,-5 14,-12 15,-14 34,-28 64,-60 89,-97 125,-180 81,-429 -100,-555 -152,-98 -351,-80 -483,44 -12,11 -49,45 -55,50l-6 5c-111,95 -238,169 -375,220 -146,51 -298,76 -452,74 -142,1 -283,-22 -417,-67 -131,-43 -255,-107 -367,-188 -111,-82 -209,-180 -289,-292 -83,-114 -146,-241 -187,-375l2959 0c104,2 204,-38 278,-111 76,-72 118,-173 114,-278 2,-275 -50,-549 -153,-805l1 -1zm3630 -1031c-76,-71 -165,-125 -263,-158 -112,-40 -229,-67 -347,-81 -118,-14 -236,-21 -353,-22 -240,0 -478,41 -703,123 -221,80 -427,196 -610,343l0 -78c-8,-215 -190,-383 -406,-375 -204,8 -367,171 -375,375l0 3408c8,215 190,384 406,375 204,-8 367,-171 375,-375l0 -1704c-1,-176 34,-350 103,-512 65,-155 161,-297 280,-416 119,-119 261,-214 416,-280 162,-69 336,-104 512,-103 175,-1 349,30 512,94 52,24 108,38 165,40 52,1 104,-9 153,-29 46,-20 87,-49 122,-85 35,-35 63,-76 84,-122 21,-48 32,-100 32,-153 3,-98 -35,-193 -105,-261l2 -4zm-14242 903c120,-119 263,-215 419,-281 162,-69 336,-103 511,-102 156,-1 311,26 456,82 146,58 281,141 399,244 73,57 162,88 255,86 105,5 207,-35 282,-110 73,-74 113,-175 110,-280 1,-114 -48,-222 -135,-295 -374,-335 -861,-517 -1364,-508 -1155,0 -2092,936 -2092,2092 -3,1154 930,2092 2084,2095 504,1 991,-180 1372,-509 79,-75 123,-179 122,-288 7,-207 -156,-381 -364,-388 -8,-1 -16,-1 -24,0 -89,0 -176,29 -247,81 -117,103 -251,185 -396,241 -146,55 -300,82 -455,81 -176,1 -351,-34 -512,-102 -156,-67 -298,-162 -419,-281 -513,-509 -515,-1338 -5,-1851 1,-2 3,-4 5,-6l-2 -1zm-2169 -552c-817,-816 -2142,-816 -2959,2 -392,392 -612,924 -612,1478 -20,1155 901,2108 2056,2128 1156,20 2108,-901 2128,-2057 1,-23 1,-47 0,-71 0,-275 -52,-548 -155,-803 -105,-254 -261,-484 -458,-677l0 0zm-270 1984c-67,155 -162,296 -281,417 -119,120 -261,216 -416,284 -329,139 -699,139 -1027,0 -314,-134 -562,-385 -694,-699 -138,-325 -138,-692 0,-1016 132,-313 381,-562 694,-694 328,-139 698,-139 1027,0 155,68 297,164 416,284 119,121 214,262 281,417 137,324 137,689 0,1012l0 -5zm-4590 2c-134,314 -383,565 -697,701 -328,139 -699,139 -1027,0 -313,-135 -561,-385 -693,-699 -137,-325 -137,-692 0,-1016 132,-313 380,-562 693,-696 328,-139 699,-139 1027,0 314,136 563,387 697,701 137,323 137,689 0,1012l0 -3zm-11884 -7753l0 1426 1426 0 0 -1426 -1426 0zm31658 9156l0 -312 132 0c34,0 58,3 73,9 15,5 27,15 36,30 9,14 14,30 14,49 0,23 -7,42 -21,58 -14,15 -34,24 -61,28 13,8 24,17 33,26 9,10 21,27 36,51l38 61 -75 0 -45 -68c-16,-24 -28,-40 -34,-46 -6,-6 -12,-11 -18,-13 -7,-2 -18,-3 -32,-3l-13 0 0 130 -63 0zm133 -471c87,0 166,35 223,92l0 0c57,57 92,136 92,223 0,87 -35,166 -92,223 -57,57 -136,92 -223,92 -87,0 -166,-35 -223,-92l0 0c-57,-57 -93,-136 -93,-223 0,-87 36,-166 93,-223l0 0 0 0c57,-57 136,-92 223,-92zm182 133c-46,-47 -111,-76 -182,-76 -71,0 -136,29 -183,76l0 0c-46,46 -75,111 -75,182 0,71 29,136 75,182l0 1c47,46 112,75 183,75 71,0 136,-29 182,-76 47,-46 76,-111 76,-182 0,-71 -29,-136 -76,-182l0 0zm-252 158l46 0c31,0 49,-1 57,-4 7,-2 13,-7 18,-13 4,-6 6,-14 6,-23 0,-11 -3,-19 -8,-26 -6,-6 -14,-10 -24,-12 -5,-1 -21,-1 -46,-1l-49 0 0 79zm-5395 -2111c39,-135 101,-262 183,-376 81,-112 179,-210 291,-291 113,-81 238,-145 370,-189 134,-44 274,-67 415,-67 140,0 280,23 412,67 264,88 494,256 658,480 83,114 147,241 189,376l-2518 0zm6829 -1449l0 0 0 0zm-14242 903l0 0 0 0zm6481 -776c1,-51 -10,-102 -30,-149 -22,-45 -50,-87 -85,-122 -35,-36 -76,-65 -122,-84 -49,-20 -101,-31 -153,-30 -75,-1 -147,21 -210,61l-2234 1453 0 -2918c3,-105 -39,-205 -113,-278 -72,-76 -172,-118 -277,-116 -215,-1 -390,172 -392,387 0,2 0,3 0,5l0 5193c-1,104 40,204 114,276 73,76 174,118 278,116 104,2 204,-40 275,-116 75,-72 116,-172 114,-276l0 -1347 456 -298 1727 1938c70,68 164,104 261,101 52,1 104,-10 153,-30 46,-19 87,-48 122,-83 35,-37 64,-79 85,-126 20,-47 31,-98 31,-149 0,-101 -39,-199 -108,-273l-1605 -1808 1565 -1016c100,-70 157,-188 148,-311zm-8920 2208l0 0 0 0zm-4590 2l0 0 0 0zm-14004 -4499l0 -1426 -1426 0 0 1426 1426 0zm1791 0l0 -1426 -1426 0 0 1426 1426 0zm329 0l1426 0 0 -1426 -1426 0 0 1426zm1426 1791l0 -1426 -1426 0 0 1426 1426 0zm329 -1426l0 1426 1426 0 0 -1426 -1426 0zm-5045 3431c-226,0 -409,183 -409,408 0,226 183,408 409,408 225,0 408,-182 408,-408 0,-225 -183,-408 -408,-408zm-585 -2005l0 -1426 -1426 0 0 1426 1426 0zm1755 0l0 -1426 -1426 0 0 1426 1426 0zm365 0l1426 0 0 -1426 -1426 0 0 1426zm5155 402l-9469 0c-191,1149 264,2630 1118,3451 902,867 2151,1265 3489,1265 3290,0 5996,-1425 7275,-4496 640,27 1361,-92 1809,-591 148,-165 261,-359 385,-579 -615,-369 -1150,-483 -1865,-293 -79,-636 -442,-1028 -887,-1400l-210 -172c-120,151 -220,292 -299,434 -338,608 -289,1448 116,2016 -301,219 -773,344 -1462,365zm-6690 1274c407,0 737,330 737,737 0,407 -330,737 -737,737 -407,0 -737,-330 -737,-737 0,-407 330,-737 737,-737z"/>
   </g>
   <polygon class="fil1" points="0,0 45533,0 45533,31832 0,31832 "/>
  </g>
 </g>
</svg>
