<?xml version="1.0" encoding="UTF-8"?>
<!DOCTYPE svg PUBLIC "-//W3C//DTD SVG 1.1//EN" "http://www.w3.org/Graphics/SVG/1.1/DTD/svg11.dtd">
<!-- Creator: CorelDRAW X7 -->
<svg xmlns="http://www.w3.org/2000/svg" xml:space="preserve" width="4.24984in" height="3.09654in" version="1.1" style="shape-rendering:geometricPrecision; text-rendering:geometricPrecision; image-rendering:optimizeQuality; fill-rule:evenodd; clip-rule:evenodd"
viewBox="0 0 42498 30965"
 xmlns:xlink="http://www.w3.org/1999/xlink">
 <defs>
  <style type="text/css">
   <![CDATA[
    .fil0 {fill:none}
    .fil1 {fill:#A38755}
   ]]>
  </style>
 </defs>
 <g id="Layer_x0020_1">
  <metadata id="CorelCorpID_0Corel-Layer"/>
  <g id="_2598352481456">
   <rect class="fil0" width="42498" height="30965"/>
   <path class="fil1" d="M16348 15349l384 4026c100,251 1982,866 4463,866 2483,0 4365,-616 4463,-866l552 -4787 -133 123c-158,147 -307,273 -447,379 -141,106 -278,188 -411,246 -134,58 -277,87 -430,87 -143,0 -254,-31 -332,-93 -78,-63 -117,-149 -117,-258l0 -25c0,-8 1,-17 3,-29 7,-66 37,-144 87,-230 51,-88 112,-178 184,-272 72,-93 148,-188 229,-284 81,-96 156,-187 224,-273 69,-85 126,-164 171,-236 46,-71 68,-129 68,-174 0,-26 -9,-47 -28,-63 -19,-16 -50,-24 -93,-24 -76,0 -153,20 -233,59 -80,39 -160,92 -238,157 -78,66 -154,141 -229,226 -74,85 -144,173 -209,264 -65,92 -124,184 -178,277 -53,92 -99,177 -137,255l-48 104 -67 151 -78 172 -75 167 -61 141 -38 85c-9,20 -25,58 -46,114l-75 196 -89 236 -88 234 -72 194c-21,56 -34,94 -40,114 -18,58 -40,112 -66,164 -25,51 -54,96 -87,135 -33,39 -71,70 -113,94 -43,23 -90,35 -143,35 -68,0 -124,-16 -168,-49 -44,-32 -67,-94 -67,-185 0,-45 6,-91 17,-137 12,-47 26,-94 43,-139 17,-46 34,-91 52,-134l49 -126c102,-223 206,-446 311,-670 106,-225 207,-446 304,-666l58 -137 -17 18c-123,118 -244,222 -366,313 -121,90 -242,162 -361,216 -120,53 -236,80 -349,80 -78,0 -142,-12 -194,-37 -52,-24 -93,-58 -124,-100 -31,-43 -54,-93 -67,-151 -4,-20 -7,-40 -10,-61 -33,26 -66,51 -100,75 -117,82 -231,148 -344,199 -113,50 -215,75 -305,75 -91,0 -164,-30 -221,-90 -56,-61 -85,-163 -85,-308 0,-103 15,-222 46,-358 -49,87 -111,175 -184,264 -74,89 -157,171 -251,244 -95,74 -200,134 -317,179 -117,46 -244,69 -381,69 -62,0 -122,-8 -180,-24 -57,-15 -108,-42 -151,-80 -43,-38 -78,-89 -104,-152 -27,-64 -40,-143 -40,-239l11 -102c8,-66 32,-170 73,-312 40,-141 103,-325 187,-550 85,-225 205,-499 359,-820 40,-85 85,-145 137,-182 52,-37 108,-55 168,-55 27,0 54,4 82,11 28,8 55,20 79,37 25,17 44,38 60,64 15,25 22,55 22,88 0,23 -3,44 -8,64 -10,38 -30,88 -61,149l-109 211 -131 256c-46,91 -89,186 -129,284 -39,98 -73,198 -101,300 -29,101 -45,200 -48,296 0,40 9,77 28,110 19,34 50,50 93,50 122,0 239,-40 350,-120 111,-80 214,-180 308,-300 94,-119 180,-247 256,-384 76,-138 140,-263 191,-377 35,-76 67,-157 94,-244 28,-87 57,-167 89,-241 32,-74 69,-135 110,-184 42,-49 94,-74 156,-74 68,0 121,26 161,77 39,52 59,113 59,184 0,40 -13,96 -38,166 -26,70 -58,151 -96,241l-126 289c-45,103 -87,207 -125,313 -39,106 -71,210 -96,311 -26,102 -39,196 -39,283 0,80 42,121 125,121 58,0 130,-21 217,-61 87,-40 178,-96 273,-169l71 -57c27,-109 58,-210 94,-302 66,-174 133,-347 201,-519l186 -472 856 -2158c34,-87 80,-148 137,-184 57,-36 115,-54 174,-54 58,0 111,19 159,57 48,38 72,100 72,184 0,41 -8,83 -24,127 -16,45 -36,93 -60,144 -47,105 -103,233 -168,385 -65,152 -135,317 -210,495 -74,179 -150,365 -228,557l-229 564c-74,183 -144,357 -209,521l-168 426c-21,52 -41,111 -61,179 -20,68 -30,129 -30,183 0,33 6,60 17,80 12,20 33,30 65,30 40,0 89,-14 149,-42 59,-28 123,-65 192,-110 68,-46 140,-98 214,-158 75,-59 149,-120 222,-183 74,-64 144,-128 211,-191 66,-64 126,-122 179,-176 12,-13 27,-22 43,-29 32,-95 61,-188 87,-279l62 -170c26,-74 57,-147 90,-218 34,-71 73,-133 115,-186 42,-52 88,-78 137,-78 75,0 130,17 164,52 34,34 51,85 51,152 0,13 -2,34 -6,63l-14 93c-6,32 -12,63 -19,92 -6,29 -12,50 -18,63 70,-76 145,-151 226,-226 81,-74 165,-142 251,-202 87,-60 176,-109 266,-148 90,-37 181,-56 271,-56 62,0 124,9 185,26 61,18 116,44 164,79 48,35 87,78 117,131 30,52 46,113 46,182 0,91 -24,189 -70,293 -46,104 -104,208 -173,312 -70,105 -145,207 -226,307 -81,99 -157,189 -228,271l-178 207c-48,57 -73,96 -75,116 0,26 9,48 26,65 17,17 45,25 85,25 32,0 79,-18 141,-54 62,-35 149,-97 261,-185 112,-88 254,-207 427,-355 118,-102 256,-223 412,-361l747 -6919c-120,66 -245,108 -319,132 -309,102 -746,193 -1297,270 -1114,156 -2592,242 -4163,242 -1570,0 -3048,-86 -4162,-242 -552,-77 -988,-168 -1297,-270 -74,-24 -199,-66 -319,-132l690 6351c32,-109 67,-219 107,-327 81,-223 175,-442 281,-655 107,-213 222,-414 348,-603 125,-190 258,-365 399,-524 142,-160 287,-297 435,-412 149,-115 299,-204 451,-269 152,-65 302,-97 451,-97 171,0 337,47 497,140 160,94 309,246 449,456 32,46 52,94 61,142 8,48 12,93 12,135 0,101 -24,180 -72,238 -48,58 -105,87 -171,87 -60,0 -116,-32 -168,-96 -51,-63 -109,-154 -173,-272 -61,-107 -127,-185 -200,-233 -72,-48 -151,-72 -235,-72 -132,0 -273,55 -423,164 -150,109 -298,254 -445,433 -147,180 -287,385 -422,616 -135,231 -254,467 -357,709 -104,243 -186,481 -248,717 -61,235 -91,446 -91,634 0,62 4,126 12,192 9,66 25,126 48,179 24,54 56,98 96,132 41,35 92,52 154,52 70,0 149,-23 238,-70 88,-47 180,-108 275,-184 95,-76 191,-162 287,-258 96,-96 185,-193 268,-291 83,-98 156,-192 220,-283 65,-90 113,-169 145,-236l262 -786c32,-85 74,-145 126,-181 52,-35 105,-53 160,-53 26,0 52,4 79,13 26,9 50,23 70,42 21,19 38,44 50,74 12,30 18,65 18,105 0,107 -9,207 -28,301 -19,94 -43,185 -72,275 -29,89 -62,179 -98,269 -35,90 -70,185 -104,283 -8,11 -21,46 -41,105l-72 223c-28,89 -59,189 -92,299l-102 338 -100 338 -86 300 -64 224 -31 107c-9,35 -24,75 -45,118 -21,44 -45,85 -73,124 -29,39 -60,72 -94,97 -33,26 -68,39 -104,39 -60,0 -104,-20 -131,-60 -28,-41 -41,-114 -41,-221l0 -47c0,-16 1,-32 2,-50 2,-36 16,-103 43,-201 26,-98 58,-209 94,-333 37,-124 77,-252 119,-385l115 -356c-100,111 -209,222 -325,333 -117,110 -237,210 -359,298 -123,88 -246,160 -370,215 -125,56 -244,84 -359,84 -132,0 -245,-29 -340,-87 -18,-10 -34,-22 -50,-34zm5992 -8619l-8 33c-4,6 -6,12 -6,17 0,68 251,123 560,123 309,0 560,-55 560,-123l10 -41c79,30 125,68 125,108 0,105 -311,189 -695,189 -384,0 -695,-84 -695,-189 0,-44 56,-85 149,-117zm1328 -853l508 -2060 2907 -3068 2 -3c62,-70 -63,-285 -270,-470 -207,-184 -431,-247 -500,-177l-2 2 -3101 3263 -637 2462c-427,-14 -872,-21 -1329,-21 -3230,0 -5849,361 -5849,806 0,446 2619,807 5849,807 3230,0 5848,-361 5848,-807 0,-326 -1405,-607 -3426,-734zm-2473 14633c-1517,0 -2690,-228 -3254,-364 -385,-93 -695,-189 -930,-287l752 1284 294 4015c0,450 1430,815 3193,815 1764,0 3194,-365 3194,-815l233 -4058 711 -1245c-236,100 -548,197 -939,291 -564,136 -1736,364 -3254,364z"/>
  </g>
 </g>
</svg>
