<?xml version="1.0" encoding="UTF-8"?>
<!DOCTYPE svg PUBLIC "-//W3C//DTD SVG 1.1//EN" "http://www.w3.org/Graphics/SVG/1.1/DTD/svg11.dtd">
<!-- Creator: CorelDRAW X7 -->
<svg xmlns="http://www.w3.org/2000/svg" xml:space="preserve" width="4.24984in" height="3.09654in" version="1.1" style="shape-rendering:geometricPrecision; text-rendering:geometricPrecision; image-rendering:optimizeQuality; fill-rule:evenodd; clip-rule:evenodd"
viewBox="0 0 42498 30965"
 xmlns:xlink="http://www.w3.org/1999/xlink">
 <defs>
  <style type="text/css">
   <![CDATA[
    .fil0 {fill:none}
    .fil1 {fill:#927C53}
    .fil2 {fill:white}
   ]]>
  </style>
 </defs>
 <g id="Layer_x0020_1">
  <metadata id="CorelCorpID_0Corel-Layer"/>
  <g id="_2596466004784">
   <rect class="fil0" width="42498" height="30965"/>
   <g>
    <g>
     <circle class="fil1" cx="21249" cy="15483" r="10667"/>
     <path class="fil2" d="M14187 14664l190 0 0 528 10 0c20,-81 56,-157 106,-229 50,-72 111,-135 183,-188 72,-54 152,-95 241,-126 89,-30 182,-45 279,-45 123,0 230,16 321,48 90,32 167,74 231,125 63,52 113,111 150,176 37,65 62,131 76,198l10 0c77,-180 180,-317 308,-409 129,-92 299,-138 510,-138 117,0 225,18 324,53 98,35 184,89 256,161 72,72 128,163 168,273 40,111 60,241 60,392l0 1762 -191 0 0 -1767c0,-164 -25,-293 -75,-387 -50,-94 -110,-165 -178,-213 -69,-49 -137,-79 -206,-91 -69,-11 -121,-17 -158,-17 -117,0 -225,20 -324,60 -99,40 -184,101 -256,181 -72,80 -128,180 -168,299 -40,118 -60,255 -60,409l0 1526 -191 0 0 -1767c0,-161 -24,-289 -73,-384 -48,-96 -105,-167 -171,-214 -65,-47 -132,-77 -200,-90 -69,-13 -123,-20 -163,-20 -91,0 -185,18 -282,55 -97,37 -185,94 -266,171 -80,77 -145,175 -195,296 -51,120 -76,263 -76,427l0 1526 -190 0 0 -2581zm3870 1291c0,-185 26,-358 78,-520 51,-162 128,-305 228,-429 100,-124 224,-222 371,-294 148,-72 317,-108 507,-108 191,0 360,36 507,108 148,72 271,170 372,294 100,124 176,267 228,429 52,162 78,335 78,520 0,184 -26,358 -78,522 -52,164 -128,307 -228,429 -101,122 -224,219 -372,291 -147,72 -316,108 -507,108 -190,0 -359,-36 -507,-108 -147,-72 -271,-169 -371,-291 -100,-122 -177,-265 -228,-429 -52,-164 -78,-338 -78,-522l0 0zm190 0c0,153 22,302 66,444 43,142 107,268 190,379 84,110 188,198 312,263 124,66 266,98 426,98 161,0 303,-32 427,-98 124,-65 228,-153 311,-263 84,-111 147,-237 191,-379 44,-142 65,-291 65,-444 0,-154 -21,-302 -65,-445 -44,-142 -107,-268 -191,-379 -83,-110 -187,-198 -311,-263 -124,-65 -266,-98 -427,-98 -160,0 -302,33 -426,98 -124,65 -228,153 -312,263 -83,111 -147,237 -190,379 -44,143 -66,291 -66,445l0 0zm4568 -492c-10,-114 -39,-215 -88,-302 -48,-87 -111,-159 -188,-215 -77,-57 -166,-101 -268,-131 -102,-30 -212,-45 -329,-45 -161,0 -303,33 -427,98 -124,65 -227,152 -311,261 -84,109 -147,232 -191,371 -43,139 -65,282 -65,429 0,174 20,335 60,482 40,148 102,276 186,384 84,109 187,194 311,254 124,60 270,90 437,90 120,0 232,-20 334,-60 102,-40 192,-95 271,-166 78,-70 143,-154 193,-253 50,-99 84,-207 100,-324l191 0c-20,154 -62,291 -125,412 -64,120 -144,221 -241,303 -97,82 -208,145 -332,189 -123,43 -254,65 -391,65 -211,0 -391,-38 -540,-113 -149,-75 -271,-177 -366,-304 -95,-127 -166,-273 -211,-439 -45,-166 -68,-339 -68,-520 0,-180 26,-351 78,-512 52,-160 128,-301 228,-421 101,-121 225,-216 372,-286 147,-71 316,-106 507,-106 140,0 272,18 394,53 122,35 231,88 326,158 96,70 173,160 234,269 60,108 97,235 110,379l-191 0zm854 -1802l0 1556 10 0c33,-97 81,-184 143,-259 62,-75 134,-140 216,-193 82,-54 171,-94 268,-121 97,-26 196,-40 296,-40 151,0 279,19 384,55 106,37 192,86 259,146 67,60 119,128 158,203 38,76 66,152 83,229 17,77 27,151 30,223 3,72 5,135 5,188l0 1597 -191 0 0 -1632c0,-63 -5,-144 -15,-241 -10,-97 -39,-190 -88,-278 -48,-89 -122,-165 -221,-229 -98,-63 -235,-95 -409,-95 -147,0 -277,27 -391,80 -114,54 -211,128 -291,224 -81,95 -142,209 -184,341 -41,132 -62,277 -62,434l0 1396 -191 0 0 -3584 191 0zm4126 3072l-10 0c-30,77 -74,149 -131,218 -57,69 -126,130 -208,183 -82,54 -175,96 -279,126 -103,30 -217,45 -341,45 -274,0 -487,-60 -637,-178 -151,-119 -226,-302 -226,-550 0,-151 30,-274 90,-369 60,-95 136,-171 228,-226 92,-55 194,-94 307,-118 112,-23 220,-40 323,-50l296 -25c138,-10 246,-26 324,-48 79,-22 138,-52 178,-90 41,-39 66,-88 76,-148 10,-60 15,-136 15,-226 0,-70 -14,-136 -40,-196 -27,-60 -69,-114 -126,-161 -57,-46 -130,-83 -221,-110 -90,-27 -200,-40 -331,-40 -231,0 -417,57 -560,171 -142,113 -220,286 -233,517l-191 0c14,-285 105,-498 274,-640 169,-143 409,-214 720,-214 311,0 538,61 680,183 142,123 214,282 214,480l0 1501c0,36 0,73 2,110 2,37 8,70 18,101 10,30 26,54 50,72 23,19 57,28 100,28 34,0 81,-5 141,-15l0 160c-50,14 -102,21 -156,21 -77,0 -138,-10 -183,-31 -45,-20 -80,-46 -103,-80 -23,-33 -39,-73 -48,-118 -8,-45 -12,-94 -12,-148l0 -135zm0 -954c-47,57 -118,95 -214,115 -95,20 -201,35 -318,45l-322 31c-93,10 -187,24 -281,42 -93,19 -178,50 -253,93 -75,44 -136,103 -183,178 -47,76 -71,173 -71,294 0,191 61,332 181,424 121,92 286,138 497,138 218,0 390,-39 517,-118 127,-78 224,-169 291,-271 67,-102 110,-201 128,-296 19,-95 28,-160 28,-193l0 -482z"/>
    </g>
   </g>
  </g>
 </g>
</svg>
