<?xml version="1.0" encoding="UTF-8"?>
<!DOCTYPE svg PUBLIC "-//W3C//DTD SVG 1.1//EN" "http://www.w3.org/Graphics/SVG/1.1/DTD/svg11.dtd">
<!-- Creator: CorelDRAW X7 -->
<svg xmlns="http://www.w3.org/2000/svg" xml:space="preserve" width="4.55335in" height="3.18323in" version="1.1" style="shape-rendering:geometricPrecision; text-rendering:geometricPrecision; image-rendering:optimizeQuality; fill-rule:evenodd; clip-rule:evenodd"
viewBox="0 0 45533 31832"
 xmlns:xlink="http://www.w3.org/1999/xlink">
 <defs>
  <style type="text/css">
   <![CDATA[
    .fil3 {fill:none}
    .fil1 {fill:#AB9162}
    .fil0 {fill:#D2AE6D}
    .fil2 {fill:#FBF9F4}
   ]]>
  </style>
 </defs>
 <g id="Layer_x0020_1">
  <metadata id="CorelCorpID_0Corel-Layer"/>
  <g id="_1503106137488">
   <g>
    <g>
     <polygon class="fil0" points="22767,4911 12924,8420 14425,21435 22767,26055 31108,21435 32609,8420 "/>
     <polygon class="fil1" points="22767,4911 22767,7257 22767,7247 22767,17956 22767,17956 22767,26055 22767,26055 31108,21435 32609,8420 "/>
     <path class="fil2" d="M22767 7247l-6153 13797 0 0 2294 0 0 0 1237 -3087 5222 -1 1237 3087 0 1 2295 0 0 0 -6132 -13797 0 0 0 0 0 0 0 0zm1797 8806l-3594 0 1797 -4324 1797 4324z"/>
    </g>
   </g>
   <polygon class="fil3" points="0,0 45533,0 45533,31832 0,31832 "/>
  </g>
 </g>
</svg>
