<?xml version="1.0" encoding="UTF-8"?>
<!DOCTYPE svg PUBLIC "-//W3C//DTD SVG 1.1//EN" "http://www.w3.org/Graphics/SVG/1.1/DTD/svg11.dtd">
<!-- Creator: CorelDRAW X7 -->
<svg xmlns="http://www.w3.org/2000/svg" xml:space="preserve" width="27.1654in" height="23.2441in" version="1.1" style="shape-rendering:geometricPrecision; text-rendering:geometricPrecision; image-rendering:optimizeQuality; fill-rule:evenodd; clip-rule:evenodd"
viewBox="0 0 271654 232441"
 xmlns:xlink="http://www.w3.org/1999/xlink">
 <defs>
  <style type="text/css">
   <![CDATA[
    .fil1 {fill:#F3E9D7}
    .fil2 {fill:#FBF6EE}
    .fil0 {fill:#FBF8F1}
   ]]>
  </style>
 </defs>
 <g id="Layer_x0020_1">
  <metadata id="CorelCorpID_0Corel-Layer"/>
  <g id="_1502933173120">
   <path class="fil0" d="M158240 181389c38522,11132 36757,-4573 68724,-6013 15280,-689 32140,6164 44690,20555l0 4898c-12042,-7928 -44784,-20984 -57326,-9525 -4421,4039 -1168,9509 -15735,11058 -17469,1857 -37586,-4844 -52221,6716 -7824,6179 -12825,24745 -23084,23281 -17339,-2474 -13746,-27938 -38601,-33323 -33308,-7216 -48417,15497 -84687,-16585l0 -36234c35992,55537 98902,18024 158240,35172z"/>
   <path class="fil1" d="M271654 195931l0 -150111c-5510,-32430 -30397,-49813 -53024,-45039 -10827,2284 -26438,9646 -21017,23535 3552,9102 -7340,10494 -13356,9728 -9052,-1152 -15095,-4696 -20645,-8195 -11583,-7301 -32774,-15343 -42898,-1621 -26630,36093 -77482,-12328 -120714,-8193l0 134973c15940,29685 54578,39573 81762,34326 17004,-3282 29495,18074 40274,18271 10358,190 18976,-20945 36204,-15966 23519,6797 32021,3279 42352,-820 26486,-10509 47416,-7705 71062,9112z"/>
   <path class="fil2" d="M81762 185334c-27184,5247 -65822,-4641 -81762,-34326l0 31443c36270,32082 51379,9369 84687,16585 24855,5385 21262,30849 38601,33323 10259,1464 15260,-17102 23084,-23281 14635,-11560 34752,-4859 52221,-6716 14567,-1549 11314,-7019 15735,-11058 12542,-11459 45284,1597 57326,9525l0 -4898c-23646,-16817 -44576,-19621 -71062,-9112 -10331,4099 -18833,7617 -42352,820 -17228,-4979 -25846,16156 -36204,15966 -10779,-197 -23270,-21553 -40274,-18271z"/>
   <path class="fil2" d="M251207 205279c2600,6817 -3795,12456 -11126,14432 -14983,4037 -23528,-15413 -19627,-21252 3747,-5608 26026,-5572 30753,6820z"/>
  </g>
 </g>
</svg>
