<?xml version="1.0" encoding="UTF-8"?>
<!DOCTYPE svg PUBLIC "-//W3C//DTD SVG 1.1//EN" "http://www.w3.org/Graphics/SVG/1.1/DTD/svg11.dtd">
<!-- Creator: CorelDRAW X7 -->
<svg xmlns="http://www.w3.org/2000/svg" xml:space="preserve" width="4.55335in" height="3.18323in" version="1.1" style="shape-rendering:geometricPrecision; text-rendering:geometricPrecision; image-rendering:optimizeQuality; fill-rule:evenodd; clip-rule:evenodd"
viewBox="0 0 45533 31832"
 xmlns:xlink="http://www.w3.org/1999/xlink">
 <defs>
  <style type="text/css">
   <![CDATA[
    .fil4 {fill:none}
    .fil1 {fill:#75613D}
    .fil2 {fill:#A38755}
    .fil0 {fill:#D2AE6D}
    .fil3 {fill:#D7B77D}
   ]]>
  </style>
 </defs>
 <g id="Layer_x0020_1">
  <metadata id="CorelCorpID_0Corel-Layer"/>
  <g id="_1503054384336">
   <g>
    <path class="fil0" d="M35094 15352c636,387 946,1048 946,1862 0,846 -261,1378 -644,1725 -376,338 -759,411 -1151,411 -302,0 -645,-56 -817,-193 -106,-73 -155,-242 -163,-339 -16,-113 -16,-1048 -16,-1717 0,-653 0,-1757 16,-1902 0,-33 49,-97 74,-113 89,-41 245,-49 400,-49 530,0 995,89 1355,315zm-751 -677c-857,0 -1176,24 -1633,24 -245,0 -772,-24 -911,-24 -41,48 -166,266 -150,314 204,24 351,48 457,72 213,49 318,113 343,363 16,298 8,1242 8,1725 0,677 8,1274 -16,1774 -17,266 -52,341 -200,402 -88,37 -139,44 -329,65 -58,7 -150,258 -118,323l10 0c702,8 1543,24 2033,24 922,0 1567,-210 2065,-580 498,-355 996,-984 996,-2072 0,-766 -278,-1395 -800,-1846 -433,-371 -1037,-564 -1755,-564z"/>
    <path class="fil0" d="M38194 15400c8,290 0,879 0,1749 0,637 0,1532 -16,1782 -25,290 -48,353 -244,402 -139,40 -240,49 -370,57 -49,41 -159,299 -101,323 547,-8 1531,32 1898,32 482,0 955,-56 1339,-226 628,-274 1061,-709 1061,-1402 0,-710 -531,-1081 -1135,-1234 -24,-8 -24,-24 0,-32 425,-177 751,-548 751,-1008 0,-935 -865,-1160 -1493,-1160 -507,0 -931,16 -1453,16 -555,0 -773,-24 -846,-24 -41,32 -167,274 -126,314 164,24 368,48 490,72 155,41 237,113 245,339zm775 1370c0,-524 9,-1281 17,-1571 0,-41 41,-121 73,-129 106,-17 245,-17 294,-17 726,0 1216,266 1216,968 0,306 -122,588 -383,717 -98,48 -278,89 -588,89 -221,0 -482,-8 -588,-16 -16,0 -41,-25 -41,-41zm49 420c74,-16 376,-8 417,-8 955,0 1477,403 1477,1112 0,742 -498,1056 -1061,1056 -204,0 -498,-16 -629,-89 -122,-56 -220,-250 -236,-387 -25,-322 -17,-1136 -17,-1644 0,-16 25,-32 49,-40z"/>
    <path class="fil1" d="M31056 18010c0,-962 -654,-1634 -1590,-1634 -363,0 -766,119 -1103,326 -474,318 -715,777 -715,1365 0,841 437,1739 1663,1739 342,0 753,-157 990,-302 494,-323 755,-839 755,-1494zm-1875 -1291c689,0 1153,626 1153,1557 0,486 -111,833 -320,1003 -135,119 -298,176 -499,176 -679,0 -1153,-660 -1153,-1606 0,-505 145,-849 428,-1021 103,-71 242,-110 391,-109z"/>
    <path class="fil1" d="M25172 18766l0 0zm842 -325c254,-191 488,-450 488,-1043 0,-54 -29,-244 -45,-309l-5 -13c-8,-20 -15,-37 -5,-51l32 -11c0,0 61,19 189,32l37 1c124,0 256,-57 313,-136 72,-99 98,-237 91,-331 -6,-92 -21,-131 -26,-144 -105,101 -227,190 -506,190 -189,0 -324,-22 -466,-75 -263,-97 -453,-167 -790,-175l-19 0c-327,0 -833,191 -1034,350 -294,210 -462,540 -462,905 0,566 252,937 752,1106 15,7 25,21 28,38 2,17 -2,34 -14,45 -75,64 -210,144 -328,214 -81,47 -157,92 -204,126 -62,44 -53,87 -43,132l4 17c30,116 132,328 471,457 15,4 25,17 25,34 0,15 -8,27 -21,32 -410,282 -588,445 -665,532 -130,148 -144,303 -144,363 0,208 118,509 381,713 271,208 589,301 1029,301 338,0 650,-71 958,-215 635,-306 1014,-807 1014,-1339 0,-357 -206,-653 -538,-774 -240,-81 -752,-117 -1162,-145l-201 -14c-310,-24 -375,-155 -375,-260 0,-127 143,-195 199,-211l7 -1 95 -8 98 -8c318,-33 601,-143 842,-325zm-153 -794c0,276 -90,537 -227,663 -91,100 -276,146 -377,146 -592,0 -802,-544 -802,-1010 0,-461 244,-760 622,-760 491,0 784,360 784,961zm-1140 2299c62,-34 165,-76 307,-76 442,0 804,44 1020,123 281,103 417,285 417,557 0,390 -329,784 -1062,784 -372,0 -656,-87 -866,-265 -173,-147 -254,-312 -254,-519 0,-221 139,-412 438,-604z"/>
    <path class="fil1" d="M22524 17765c0,-387 -65,-726 -228,-968 -196,-274 -473,-435 -832,-435 -319,0 -743,218 -1094,516 -8,8 -62,59 -61,-20 1,-79 13,-241 21,-342 7,-102 -54,-150 -54,-150 -228,113 -872,266 -1110,290 -173,34 -217,201 -32,258l3 1c193,58 324,120 421,185 73,56 65,137 65,201 8,540 8,1371 -16,1822 -8,177 -57,242 -188,274l12 -4c-98,24 -180,40 -302,57 -41,40 -41,274 0,322 82,0 498,-24 841,-24 473,0 718,24 841,24 48,-57 65,-274 32,-322 -139,-9 -237,-25 -335,-49 -130,-32 -163,-97 -171,-242 -16,-378 -16,-1185 -16,-1733 0,-153 41,-226 90,-266 459,-393 1315,-334 1395,379 33,306 25,919 25,1451 0,290 -25,363 -131,395 -49,24 -179,48 -334,65 -49,48 -33,274 0,322 212,0 457,-24 816,-24 449,0 734,24 849,24 49,-57 65,-266 32,-322 -179,-25 -310,-49 -465,-121 -24,-16 -57,-89 -57,-113 -17,-250 -17,-976 -17,-1451z"/>
    <path class="fil1" d="M16481 16719l0 0zm-818 1130c0,-505 144,-849 428,-1021 103,-71 242,-110 390,-109 690,0 1153,626 1153,1557 0,486 -110,833 -319,1003 -136,119 -299,176 -499,176 -679,0 -1153,-660 -1153,-1606zm2694 161c0,-962 -654,-1634 -1590,-1634 -364,0 -766,119 -1103,326 -475,318 -715,777 -715,1365 0,840 437,1739 1663,1739 341,0 752,-157 989,-302 494,-323 756,-839 756,-1494z"/>
    <path class="fil1" d="M13866 18542c3,-285 5,-590 5,-830 0,-837 -399,-1336 -1067,-1336 -283,0 -705,192 -1131,515 -10,15 -27,24 -44,24 -19,0 -36,-10 -48,-28 -211,-344 -484,-511 -834,-511 -214,0 -628,129 -1092,492 -12,12 -26,18 -42,18 -31,0 -60,-26 -60,-53 0,-91 8,-183 15,-264l6 -80c4,-60 -19,-98 -33,-116 -243,113 -863,260 -1099,285 -89,17 -132,68 -134,108 -2,43 35,78 104,99 178,53 319,115 433,189 77,60 76,144 75,205l0 17c9,574 7,1389 -16,1824 -9,184 -63,262 -207,298 -87,23 -160,40 -314,64 -11,13 -22,50 -25,108 -3,78 12,142 25,163 83,0 166,-4 262,-9 143,-6 320,-15 575,-15 217,0 407,9 560,15 100,5 188,9 259,9 28,-54 38,-228 21,-272l-131 -23c-71,-12 -133,-22 -168,-32 -162,-38 -192,-140 -200,-226 -12,-279 -11,-925 -9,-1444l1 -427c0,-66 29,-138 68,-166 230,-172 511,-279 734,-279 380,0 617,210 703,625 51,259 33,1293 9,1651 -9,154 -54,221 -175,258 -71,18 -145,31 -231,46l-98 17c-13,15 -26,64 -26,132 0,73 15,124 25,140 69,0 192,-3 321,-7 160,-4 341,-9 451,-9 366,0 619,8 866,16 6,-6 18,-25 29,-69 18,-79 17,-172 4,-203 -99,-16 -165,-32 -229,-47l-108 -25c-77,-30 -172,-68 -172,-225 -5,-231 -4,-537 -2,-860l2 -471c0,-265 0,-441 -32,-591l0 -6c0,-21 9,-52 26,-69 272,-206 558,-279 735,-279 476,0 694,338 736,626 45,279 20,1452 17,1586 -9,187 -49,251 -191,298 -77,23 -141,39 -270,63 -21,37 -15,216 2,271 221,-14 453,-23 897,-23 222,0 412,10 551,17 76,4 137,7 181,7 28,-38 56,-224 42,-272l-6 -2c-179,-30 -320,-55 -418,-102 -79,-22 -131,-131 -131,-170 0,-162 1,-396 3,-645z"/>
    <path class="fil2" d="M5147 19684c697,-643 2040,-2264 1585,-4916 -582,-2568 -1959,-3412 -2107,-3734 -162,-228 -326,-632 -326,-632l0 5c57,221 87,1095 103,2077 22,1376 18,2963 27,3263 32,1076 0,2110 -63,2908 13,586 97,1214 388,1348 0,0 6,-4 17,-11 45,-32 181,-131 363,-297 4,-4 8,-7 13,-11z"/>
    <path class="fil0" d="M4366 18655c63,-798 95,-1832 63,-2908 -9,-300 -5,-1887 -27,-3263 -16,-982 -46,-1856 -103,-2077 -4,-15 -8,-27 -12,-35 -17,226 -26,315 -241,544 -334,261 -2045,1695 -2185,4612 -130,2721 1970,4342 2253,4548 20,15 31,22 31,22 81,-185 164,-716 221,-1443z"/>
    <path class="fil3" d="M4754 20003c-291,-134 -375,-762 -388,-1348 -57,727 -140,1258 -221,1443 0,0 -11,-7 -31,-22 203,473 183,1282 183,1282l297 98c0,0 -60,-785 24,-1165 25,-114 84,-215 153,-299 -11,7 -17,11 -17,11z"/>
    <path class="fil0" d="M43035 18775c126,0 167,34 167,137 0,101 -43,140 -154,140l-139 0 0 -277 126 0zm-221 -86l0 797 95 0 0 -351 132 0 162 351 105 0 -168 -362c102,-21 157,-95 157,-212 0,-145 -72,-223 -248,-223l-235 0z"/>
    <path class="fil0" d="M43049 18513c323,0 571,252 571,576 0,317 -255,572 -572,572 -319,0 -574,-255 -574,-572 0,-322 255,-576 575,-576zm-632 574c0,354 276,631 631,631 354,0 630,-280 630,-640 0,-343 -281,-621 -629,-621 -356,0 -632,274 -632,630z"/>
   </g>
   <polygon class="fil4" points="0,0 45533,0 45533,31832 0,31832 "/>
  </g>
 </g>
</svg>
