<?xml version="1.0" encoding="UTF-8"?>
<!DOCTYPE svg PUBLIC "-//W3C//DTD SVG 1.1//EN" "http://www.w3.org/Graphics/SVG/1.1/DTD/svg11.dtd">
<!-- Creator: CorelDRAW X7 -->
<svg xmlns="http://www.w3.org/2000/svg" xml:space="preserve" width="27.1654in" height="20.3606in" version="1.1" style="shape-rendering:geometricPrecision; text-rendering:geometricPrecision; image-rendering:optimizeQuality; fill-rule:evenodd; clip-rule:evenodd"
viewBox="0 0 271654 203606"
 xmlns:xlink="http://www.w3.org/1999/xlink">
 <defs>
  <style type="text/css">
   <![CDATA[
    .fil0 {fill:#F3E9D7}
   ]]>
  </style>
 </defs>
 <g id="Layer_x0020_1">
  <metadata id="CorelCorpID_0Corel-Layer"/>
  <path class="fil0" d="M271654 195931l0 -150111c-5510,-32430 -30397,-49813 -53024,-45040 -10827,2285 -26438,9647 -21017,23536 3552,9102 -7340,10494 -13356,9728 -9052,-1152 -15095,-4696 -20645,-8195 -11583,-7301 -32774,-15343 -42898,-1622 -26630,36094 -77482,-12327 -120714,-8192l0 130181 0 4792c15940,29685 54578,39573 81762,34326 17004,-3282 29495,18073 40274,18271 10358,190 18976,-20945 36204,-15966 23519,6797 32021,3278 42352,-820 26486,-10510 47416,-7705 71062,9112z"/>
 </g>
</svg>
