<?xml version="1.0" encoding="UTF-8"?>
<!DOCTYPE svg PUBLIC "-//W3C//DTD SVG 1.1//EN" "http://www.w3.org/Graphics/SVG/1.1/DTD/svg11.dtd">
<!-- Creator: CorelDRAW X7 -->
<svg xmlns="http://www.w3.org/2000/svg" xml:space="preserve" width="27.1654in" height="17.0278in" version="1.1" style="shape-rendering:geometricPrecision; text-rendering:geometricPrecision; image-rendering:optimizeQuality; fill-rule:evenodd; clip-rule:evenodd"
viewBox="0 0 271654 170278"
 xmlns:xlink="http://www.w3.org/1999/xlink">
 <defs>
  <style type="text/css">
   <![CDATA[
    .fil1 {fill:#FBF8F1}
    .fil0 {fill:white}
   ]]>
  </style>
 </defs>
 <g id="Layer_x0020_1">
  <metadata id="CorelCorpID_0Corel-Layer"/>
  <g id="_1502933179136">
   <polygon class="fil0" points="0,47291 0,170278 271654,170278 271654,47291 "/>
   <path class="fil1" d="M251207 80397c-4727,-12393 -27006,-12428 -30753,-6821 -3901,5839 4644,25290 19627,21252 7331,-1975 13726,-7614 11126,-14431z"/>
   <path class="fil1" d="M271654 0l-271654 0 0 57569c36270,32081 51379,9369 84687,16585 24855,5385 21262,30848 38601,33322 10259,1464 15260,-17102 23084,-23281 14635,-11559 34752,-4858 52221,-6715 14567,-1549 11314,-7019 15735,-11059 12542,-11459 45284,1598 57326,9525l0 -4898 0 -71048z"/>
  </g>
 </g>
</svg>
