<?xml version="1.0" encoding="UTF-8"?>
<!DOCTYPE svg PUBLIC "-//W3C//DTD SVG 1.1//EN" "http://www.w3.org/Graphics/SVG/1.1/DTD/svg11.dtd">
<!-- Creator: CorelDRAW X7 -->
<svg xmlns="http://www.w3.org/2000/svg" xml:space="preserve" width="4.55335in" height="3.18323in" version="1.1" style="shape-rendering:geometricPrecision; text-rendering:geometricPrecision; image-rendering:optimizeQuality; fill-rule:evenodd; clip-rule:evenodd"
viewBox="0 0 45533 31832"
 xmlns:xlink="http://www.w3.org/1999/xlink">
 <defs>
  <style type="text/css">
   <![CDATA[
    .fil1 {fill:none}
    .fil0 {fill:#A38755}
   ]]>
  </style>
 </defs>
 <g id="Layer_x0020_1">
  <metadata id="CorelCorpID_0Corel-Layer"/>
  <g id="_1503054343376">
   <path class="fil0" d="M17866 16216l384 4026c99,251 1981,866 4463,866 2482,0 4365,-616 4463,-866l551 -4787 -132 123c-158,147 -308,273 -448,379 -140,106 -277,188 -411,246 -134,58 -277,87 -429,87 -143,0 -254,-31 -332,-93 -78,-63 -118,-149 -118,-258l0 -25c0,-8 1,-18 3,-29 8,-66 37,-144 88,-231 51,-87 112,-177 183,-271 72,-93 148,-188 229,-284 81,-96 156,-187 225,-273 69,-85 126,-164 171,-236 45,-71 68,-129 68,-174 0,-26 -10,-47 -29,-63 -18,-16 -50,-24 -93,-24 -75,0 -153,20 -233,59 -80,39 -159,92 -237,157 -78,66 -155,141 -229,226 -74,85 -144,173 -209,264 -65,92 -124,184 -178,277 -54,92 -99,177 -137,255l-48 104 -68 151 -78 172 -75 167 -60 141 -38 85c-10,20 -25,58 -47,114l-75 196 -89 236 -87 234 -72 194c-21,56 -34,94 -40,114 -19,58 -41,112 -66,164 -26,51 -55,96 -88,135 -33,39 -71,70 -113,94 -42,23 -90,35 -143,35 -67,0 -123,-16 -168,-49 -44,-32 -66,-94 -66,-185 0,-45 6,-91 17,-137 11,-47 25,-94 42,-139 17,-46 35,-91 53,-134l49 -126c102,-223 205,-446 311,-670 105,-225 206,-447 303,-666l59 -137 -18 18c-122,118 -244,222 -365,313 -122,90 -243,162 -362,216 -120,53 -236,80 -349,80 -77,0 -142,-12 -193,-37 -52,-25 -94,-58 -125,-100 -31,-43 -53,-93 -66,-151 -5,-20 -7,-40 -10,-61 -33,26 -67,51 -100,75 -117,82 -232,148 -345,199 -113,50 -215,75 -305,75 -90,0 -164,-30 -220,-90 -57,-61 -85,-163 -85,-308 0,-103 15,-222 45,-358 -49,87 -110,175 -184,264 -73,89 -157,171 -251,244 -94,74 -200,134 -316,179 -117,46 -244,69 -382,69 -62,0 -122,-8 -179,-24 -58,-15 -108,-42 -151,-80 -44,-38 -78,-89 -105,-152 -26,-64 -39,-143 -39,-239l11 -102c7,-66 31,-170 72,-312 40,-141 103,-325 188,-550 85,-225 204,-499 359,-820 39,-85 85,-145 137,-182 51,-37 107,-55 168,-55 26,0 53,4 82,11 28,8 54,20 79,37 24,17 44,38 59,64 15,25 23,55 23,88 0,23 -3,44 -9,64 -9,38 -30,87 -60,149l-109 211 -132 256c-46,91 -89,186 -128,284 -40,98 -74,198 -102,300 -28,101 -44,200 -48,296 0,40 9,77 28,110 19,34 50,50 94,50 122,0 239,-40 350,-120 111,-80 213,-180 308,-300 94,-119 179,-247 255,-385 77,-137 140,-262 191,-376 36,-76 67,-157 95,-244 27,-87 57,-167 89,-241 32,-74 68,-135 110,-184 41,-49 93,-74 155,-74 68,0 122,26 161,77 40,52 60,113 60,184 0,40 -13,96 -39,166 -25,70 -57,151 -96,241l-125 289c-45,103 -87,207 -126,313 -39,106 -71,210 -96,311 -26,102 -38,196 -38,283 0,80 41,121 124,121 58,0 131,-21 218,-61 86,-40 177,-96 272,-169l72 -57c26,-109 57,-210 93,-302 66,-174 133,-347 201,-519l187 -472 856 -2158c33,-87 79,-148 136,-184 58,-36 116,-54 174,-54 59,0 112,19 160,57 48,38 72,100 72,184 0,40 -8,83 -24,127 -16,45 -36,93 -61,144 -47,105 -103,233 -168,385 -65,152 -135,317 -209,495 -74,179 -151,365 -229,557l-229 564c-74,183 -144,357 -209,521l-168 426c-21,51 -41,111 -60,179 -20,68 -30,129 -30,183 0,33 5,60 17,80 11,20 33,30 65,30 39,0 89,-14 148,-42 59,-28 123,-65 192,-110 69,-46 140,-98 215,-158 74,-59 148,-120 222,-184 73,-63 143,-127 210,-190 67,-64 127,-122 180,-176 12,-13 27,-22 43,-29 32,-95 61,-188 86,-279l63 -170c26,-74 56,-147 90,-218 34,-71 72,-133 114,-186 43,-52 88,-78 137,-78 76,0 130,17 164,52 34,34 51,85 51,152 0,13 -2,34 -6,63l-14 93c-5,32 -11,63 -18,92 -7,29 -13,50 -18,63 69,-76 145,-151 226,-226 81,-74 164,-142 251,-202 87,-61 175,-109 266,-148 90,-37 180,-56 271,-56 62,0 124,9 185,26 61,18 116,44 164,79 48,35 87,78 117,131 30,52 45,113 45,182 0,91 -23,189 -69,293 -46,103 -104,208 -174,312 -70,105 -145,207 -226,307 -81,99 -157,189 -227,271l-178 207c-48,57 -73,96 -75,116 0,26 8,48 25,65 17,17 46,25 85,25 32,0 79,-18 141,-54 62,-35 150,-97 262,-185 112,-88 254,-207 426,-355 118,-102 257,-223 413,-361l747 -6919c-121,66 -246,108 -320,132 -309,102 -745,193 -1297,270 -1114,156 -2592,242 -4162,242 -1571,0 -3049,-86 -4163,-242 -551,-77 -988,-168 -1297,-270 -74,-24 -199,-66 -319,-132l690 6351c32,-109 68,-219 108,-327 81,-223 174,-442 281,-655 106,-213 222,-414 347,-604 125,-189 259,-364 400,-523 141,-160 286,-297 435,-412 149,-115 299,-204 450,-269 152,-65 302,-97 451,-97 171,0 337,47 497,140 160,94 310,246 449,455 32,47 53,95 61,143 9,48 13,93 13,135 0,101 -24,180 -72,238 -48,58 -105,87 -171,87 -60,0 -116,-32 -168,-96 -52,-63 -110,-154 -174,-272 -60,-107 -127,-185 -199,-233 -73,-48 -151,-72 -236,-72 -132,0 -273,55 -422,164 -150,109 -298,254 -445,433 -147,180 -288,385 -423,616 -134,231 -253,467 -357,709 -104,243 -186,481 -247,717 -61,235 -92,446 -92,634 0,62 4,126 13,192 8,66 24,126 48,179 23,54 55,98 96,132 40,35 92,52 154,52 70,0 149,-23 237,-70 89,-47 180,-108 276,-184 95,-76 190,-162 286,-258 96,-96 186,-193 269,-291 82,-98 156,-192 220,-283 64,-90 112,-169 144,-236l263 -786c32,-85 74,-145 125,-181 52,-35 105,-53 160,-53 26,0 53,4 79,13 27,9 50,23 71,42 21,19 37,44 49,74 13,30 19,65 19,105 0,107 -10,207 -29,301 -18,94 -42,185 -72,275 -29,89 -61,179 -97,269 -36,90 -71,185 -105,283 -7,11 -21,46 -41,105l-72 223c-28,89 -59,189 -91,299l-102 338 -100 338 -87 300 -63 224 -31 107c-10,35 -25,75 -45,118 -21,44 -46,85 -74,124 -28,39 -59,72 -93,97 -34,26 -69,39 -105,39 -60,0 -104,-20 -131,-60 -27,-41 -41,-114 -41,-221l0 -47c0,-16 1,-33 3,-50 2,-36 16,-103 42,-201 27,-98 58,-209 95,-333 37,-124 76,-252 119,-385l114 -356c-100,111 -208,222 -325,333 -117,110 -236,210 -359,298 -122,88 -245,160 -370,215 -124,56 -244,84 -359,84 -131,0 -245,-29 -340,-87 -17,-10 -33,-22 -49,-34zm5992 -8619l-9 33c-3,6 -5,11 -5,17 0,68 251,123 559,123 309,0 560,-55 560,-123l10 -41c79,30 126,68 126,108 0,105 -312,189 -696,189 -383,0 -695,-84 -695,-189 0,-44 56,-85 150,-117zm1328 -853l508 -2060 2906 -3068 3 -3c61,-70 -63,-285 -271,-470 -207,-184 -430,-247 -500,-177l-1 2 -3101 3263 -638 2462c-427,-14 -872,-21 -1329,-21 -3230,0 -5848,361 -5848,806 0,446 2618,807 5848,807 3230,0 5849,-361 5849,-807 0,-326 -1405,-607 -3426,-734zm-2473 14633c-1518,0 -2690,-228 -3254,-364 -386,-93 -696,-189 -931,-288l752 1285 294 4015c0,450 1430,815 3194,815 1763,0 3193,-365 3193,-815l233 -4058 712 -1245c-237,100 -549,197 -939,291 -564,136 -1737,364 -3254,364z"/>
   <polygon class="fil1" points="0,0 45533,0 45533,31832 0,31832 "/>
  </g>
 </g>
</svg>
