<?xml version="1.0" encoding="UTF-8"?>
<!DOCTYPE svg PUBLIC "-//W3C//DTD SVG 1.1//EN" "http://www.w3.org/Graphics/SVG/1.1/DTD/svg11.dtd">
<!-- Creator: CorelDRAW X7 -->
<svg xmlns="http://www.w3.org/2000/svg" xml:space="preserve" width="4.55335in" height="3.18323in" version="1.1" style="shape-rendering:geometricPrecision; text-rendering:geometricPrecision; image-rendering:optimizeQuality; fill-rule:evenodd; clip-rule:evenodd"
viewBox="0 0 45533 31832"
 xmlns:xlink="http://www.w3.org/1999/xlink">
 <defs>
  <style type="text/css">
   <![CDATA[
    .fil7 {fill:none}
    .fil4 {fill:#AB9162}
    .fil6 {fill:#8B7A5B;fill-rule:nonzero}
    .fil0 {fill:#A38755;fill-rule:nonzero}
    .fil5 {fill:#D2AE6D;fill-rule:nonzero}
    .fil2 {fill:#DBBE8A;fill-rule:nonzero}
    .fil1 {fill:#EDDFC4;fill-rule:nonzero}
    .fil3 {fill:#FBF9F4;fill-rule:nonzero}
   ]]>
  </style>
 </defs>
 <g id="Layer_x0020_1">
  <metadata id="CorelCorpID_0Corel-Layer"/>
  <g id="_1502933161472">
   <g>
    <path class="fil0" d="M22882 16189l-8442 8443c276,288 663,468 1095,469l14462 0c492,-1 926,-233 1204,-593l-8319 -8319z"/>
    <path class="fil1" d="M25418 13577l-2324 2324 8294 8293c84,-189 131,-398 131,-618l0 -9077c-137,196 -272,393 -402,584 -231,371 -491,768 -718,1162 -684,1184 -1160,2341 -1336,4018 -47,141 -153,232 -271,232 -105,0 -203,-74 -256,-194 0,-1 0,-2 0,-4 -172,-1695 -651,-2860 -1340,-4052 -228,-394 -487,-791 -718,-1162 -331,-485 -678,-990 -1059,-1506 0,0 -1,0 -1,-1l0 1z"/>
    <path class="fil2" d="M24777 12577l-10762 10762 0 237c0,845 680,1525 1525,1525l296 0 10388 -10388c-256,-371 -519,-749 -805,-1136 -92,-140 -188,-280 -288,-419 -87,-146 -180,-293 -277,-439 -24,-47 -51,-95 -77,-142z"/>
    <path class="fil3" d="M24592 16345l-1791 1792 6965 6964 232 0c843,-2 1521,-682 1521,-1525l0 -305 -6927 -6926z"/>
    <path class="fil4" d="M25418 13577l0 0zm-11403 -4454l0 14216 10762 -10762c26,47 53,95 77,142 97,146 190,293 277,439 100,139 196,278 287,419 0,0 1,0 1,0 8,11 15,21 23,32 372,504 712,998 1036,1474 231,371 490,768 718,1162 687,1190 1166,2352 1339,4042l199 200c19,5 38,8 58,8 118,0 224,-91 271,-232 176,-1677 652,-2834 1335,-4018 228,-394 488,-791 719,-1162 130,-191 265,-388 402,-584l0 -5376c0,-843 -683,-1526 -1526,-1526l-14453 0c-842,0 -1525,683 -1525,1526z"/>
    <path class="fil3" d="M19461 10959c0,1 1,2 1,2l0 -1 -1 -1zm-1290 -1648c-1361,0 -2463,1122 -2463,2507 0,1384 1102,2506 2463,2506 886,0 1400,-279 1845,-732 446,-454 609,-1140 609,-1832 0,-106 -7,-211 -19,-315l-961 0 -183 0 -1261 0 0 887 1412 0c-57,221 -154,422 -307,578 -275,279 -591,451 -1137,451 -838,0 -1517,-691 -1517,-1543 0,-853 679,-1544 1517,-1544 408,0 763,119 1044,377l694 -694c-1,0 -1,-1 -2,-1 -462,-444 -1054,-645 -1734,-645l0 0z"/>
    <g>
     <path class="fil5" d="M28813 5172c2699,0 4887,2088 4887,4664 -2,805 -193,1595 -610,2294 -125,205 -242,410 -346,614 -97,146 -190,293 -277,439 -100,139 -196,279 -288,419 -381,515 -728,1020 -1059,1505 -231,372 -490,769 -718,1163 -689,1192 -1167,2356 -1340,4052 0,1 0,3 0,4 -53,120 -151,194 -256,194 -118,0 -224,-92 -271,-233 -176,-1676 -652,-2833 -1335,-4017 -228,-394 -488,-791 -719,-1163 -331,-485 -677,-990 -1059,-1505 -92,-140 -188,-280 -288,-419 -87,-146 -180,-293 -277,-439 -104,-204 -221,-409 -346,-614 -415,-700 -583,-1490 -584,-2294 0,-2576 2188,-4664 4886,-4664z"/>
     <path class="fil6" d="M28813 8216c-937,0 -1697,725 -1697,1620 0,895 760,1621 1697,1621 938,0 1698,-726 1698,-1621 0,-895 -760,-1620 -1698,-1620z"/>
    </g>
   </g>
   <polygon class="fil7" points="0,0 45533,0 45533,31832 0,31832 "/>
  </g>
 </g>
</svg>
