<?xml version="1.0" encoding="UTF-8"?>
<!DOCTYPE svg PUBLIC "-//W3C//DTD SVG 1.1//EN" "http://www.w3.org/Graphics/SVG/1.1/DTD/svg11.dtd">
<!-- Creator: CorelDRAW X7 -->
<svg xmlns="http://www.w3.org/2000/svg" xml:space="preserve" width="4.55335in" height="3.18323in" version="1.1" style="shape-rendering:geometricPrecision; text-rendering:geometricPrecision; image-rendering:optimizeQuality; fill-rule:evenodd; clip-rule:evenodd"
viewBox="0 0 45533 31832"
 xmlns:xlink="http://www.w3.org/1999/xlink">
 <defs>
  <style type="text/css">
   <![CDATA[
    .fil1 {fill:none}
    .fil0 {fill:#A38755}
   ]]>
  </style>
 </defs>
 <g id="Layer_x0020_1">
  <metadata id="CorelCorpID_0Corel-Layer"/>
  <g id="_1502933166464">
   <path class="fil0" d="M32681 11304c251,0 457,209 457,460 0,251 -206,457 -457,457 -253,0 -458,-206 -458,-457 0,-251 205,-460 458,-460zm-1067 8653c-2359,1405 -6264,2567 -9516,2868 -5291,489 -10805,-279 -11576,-4413 -378,-2039 551,-4199 1783,-5541l0 -718c-2218,1944 -3421,4406 -2728,7315 884,3730 5616,5844 12839,5142 2857,-279 6598,-1198 9198,-2625l0 -2028zm-1815 -8745l0 6176c0,725 352,1354 1387,1453l0 -7629 -1387 0zm-3113 2162c-1446,0 -2547,1013 -2547,2802 0,2093 1261,2812 2578,2812 1006,0 1577,-327 2122,-864l-850 -812c-352,350 -654,519 -1262,519 -781,0 -1219,-519 -1219,-1222l3491 0 0 -496c0,-1553 -847,-2739 -2313,-2739zm-1046 1708c152,-328 516,-570 986,-570 705,0 972,571 1000,1160l-2118 0c11,-241 42,-392 132,-590zm-4260 -3096l0 5356c0,771 476,1552 1597,1552l813 0 0 -1147 -559 0c-327,0 -477,-175 -477,-491l0 -2679 1036 0 0 -1111 -1036 0 0 -1480 -1374 0zm-5488 1480l0 5434 1377 0 0 -4323 1137 0c404,0 572,200 572,523l0 3800 1373 1 0 -3808c0,-773 -411,-1624 -1617,-1624l-2842 -3zm-1221 0l-1389 0 -1 4036c0,727 353,1356 1390,1456l0 -5492zm-1389 -751l1386 0 0 -1316 -1386 0 0 1316zm21445 -213c331,1867 -720,3812 -2598,4931l0 1463c2260,-827 4578,-3509 3905,-6792 -1257,-6127 -13151,-6515 -20817,-1848l0 516c7659,-3936 18521,-3913 19510,1730zm-2067 -969c90,0 129,22 129,89l0 11c0,63 -39,93 -129,93l-86 -2 0 -191 86 0zm0 310l140 237c4,8 12,14 22,14l102 0c17,0 23,-11 23,-21 0,-5 -4,-12 -5,-17l-145 -246c77,-25 126,-78 126,-177l0 -11c0,-160 -103,-211 -274,-211 -48,0 -137,3 -170,8 -29,4 -42,18 -42,53l0 596c0,12 11,26 23,26l93 0c16,0 25,-14 25,-26l0 -236 63 0c5,0 17,6 19,11zm21 473c303,0 553,-248 553,-552 0,-304 -250,-552 -553,-552 -307,0 -552,248 -552,552 0,304 245,552 552,552z"/>
   <polygon class="fil1" points="0,0 45533,0 45533,31832 0,31832 "/>
  </g>
 </g>
</svg>
