<?xml version="1.0" encoding="UTF-8"?>
<!DOCTYPE svg PUBLIC "-//W3C//DTD SVG 1.1//EN" "http://www.w3.org/Graphics/SVG/1.1/DTD/svg11.dtd">
<!-- Creator: CorelDRAW X7 -->
<svg xmlns="http://www.w3.org/2000/svg" xml:space="preserve" width="11.0308in" height="7.92807in" version="1.1" style="shape-rendering:geometricPrecision; text-rendering:geometricPrecision; image-rendering:optimizeQuality; fill-rule:evenodd; clip-rule:evenodd"
viewBox="0 0 110308 79281"
 xmlns:xlink="http://www.w3.org/1999/xlink">
 <defs>
  <style type="text/css">
   <![CDATA[
    .fil10 {fill:#8480BC}
    .fil9 {fill:#BB9B61}
    .fil7 {fill:#D2AE6D}
    .fil12 {fill:#DCC08D}
    .fil11 {fill:#E6D2AE}
    .fil1 {fill:#F3E0C2}
    .fil2 {fill:#F6EFE2}
    .fil0 {fill:#FCE9CA}
    .fil8 {fill:white}
    .fil13 {fill:black;fill-rule:nonzero}
    .fil5 {fill:#8480BC;fill-rule:nonzero}
    .fil4 {fill:#BB9B61;fill-rule:nonzero}
    .fil3 {fill:#EED5AB;fill-rule:nonzero}
    .fil6 {fill:#FCE9CA;fill-rule:nonzero}
   ]]>
  </style>
 </defs>
 <g id="Layer_x0020_1">
  <metadata id="CorelCorpID_0Corel-Layer"/>
  <g id="_1503098629120">
   <circle class="fil0" transform="matrix(-0.0673742 0.0586798 0.0586798 0.0673742 18865.3 16595.5)" r="80317"/>
   <path class="fil1" d="M31173 76225c-5033,153 -8407,-3308 -12684,-5203 -1057,-469 -2214,-863 -3649,-1180 -10772,-2380 -15245,-6787 -13924,-18712 1196,-10800 9164,-20853 19391,-23878 34442,-10188 39649,48095 10866,48973z"/>
   <path class="fil2" d="M34603 67064c7866,8606 28434,12747 37761,12162 8216,-515 16016,-2592 21208,-5827 8915,-5553 14868,-15108 15049,-29302 278,-21844 -12440,-41905 -35274,-43966 -10039,-907 -21125,2939 -27953,10398 -6805,7434 -7769,14673 -4491,23863 967,2711 1220,5447 813,8026 -615,3907 -2283,6203 -4105,8032 -5216,5236 -9689,9306 -3008,16614z"/>
   <path class="fil3" d="M0 29576c817,27 1472,698 1477,1528l13 0c6,-830 660,-1501 1477,-1528 -820,-27 -1478,-703 -1478,-1538l-11 0c0,835 -658,1511 -1478,1538l0 0z"/>
   <path class="fil4" d="M53291 67641l0 1531 -449 0 0 -2745 473 0 952 1621 284 546 27 -7 -66 -590 0 -1570 450 0 0 2745 -524 0 -934 -1590 -255 -523 -28 8 70 574 0 0zm3192 -108c-99,0 -182,23 -252,70 -77,51 -116,121 -116,208l0 702c0,91 39,165 116,222 72,51 156,77 252,77 91,0 172,-26 245,-77 77,-57 115,-131 116,-222l0 -702c0,-88 -38,-158 -116,-208 -70,-47 -152,-70 -245,-70zm-793 278c0,-217 83,-390 248,-519 150,-113 332,-171 545,-174 212,3 392,61 540,174 165,129 248,302 248,519l0 702c0,220 -83,393 -248,519 -148,114 -328,172 -540,174 -217,-2 -398,-60 -545,-174 -165,-126 -248,-299 -248,-519l0 -702zm3353 -1384l447 0 0 2745 -447 0 0 -2745zm1268 869c329,-165 663,-208 1002,-129 380,88 570,316 570,680l0 1325 -424 0 0 -1321c-8,-158 -104,-259 -286,-303 -166,-39 -310,-21 -434,55l0 1569 -428 0 0 -1876zm3151 1895c-252,37 -455,1 -610,-108 -173,-123 -259,-321 -259,-593l0 -2063 422 0 0 737 384 0 0 426 -384 0 0 897c0,142 46,238 136,286 62,34 166,51 311,51l0 367zm1646 -1380c0,-88 -38,-159 -116,-212 -73,-47 -158,-70 -256,-70 -104,0 -189,25 -255,74 -76,54 -111,126 -109,215l0 195 736 0 0 -202 0 0zm349 992c-155,274 -396,411 -721,412 -215,0 -397,-56 -546,-171 -164,-129 -248,-302 -249,-519l0 -706c0,-220 83,-393 249,-519 148,-113 330,-170 546,-170 212,0 390,57 535,170 166,126 249,299 249,519l0 547 -1148 0 0 159c-2,77 28,142 89,197 54,49 126,79 214,90 205,23 347,-48 426,-214l356 205 0 0zm1291 -1639c34,-10 96,-16 184,-16 79,0 156,8 227,23l0 377c-123,-37 -246,-30 -367,22 -137,57 -207,150 -207,277l0 1325 -425 0 0 -1334c0,-279 124,-481 373,-605 49,-25 113,-47 193,-66l22 -3 0 0zm1021 132c328,-165 662,-208 1002,-129 380,88 569,316 569,680l0 1325 -424 0 0 -1321c-7,-158 -103,-259 -286,-303 -165,-39 -309,-21 -433,55l0 1569 -428 0 0 -1876zm3413 515c0,-88 -38,-159 -116,-212 -73,-47 -158,-70 -257,-70 -103,0 -188,25 -255,74 -75,54 -110,126 -108,215l0 195 736 0 0 -202 0 0zm349 992c-156,274 -396,411 -722,412 -214,0 -396,-56 -545,-171 -165,-129 -248,-302 -249,-519l0 -706c0,-220 83,-393 249,-519 148,-113 330,-170 545,-170 213,0 391,57 536,170 166,126 248,299 248,519l0 547 -1147 0 0 159c-2,77 27,142 89,197 54,49 126,79 214,90 205,23 347,-48 426,-214l356 205 0 0zm1564 388c-252,37 -455,1 -609,-108 -174,-123 -260,-321 -260,-593l0 -2063 422 0 0 737 384 0 0 426 -384 0 0 897c0,142 46,238 136,286 62,34 166,51 311,51l0 367zm3805 -19l-546 0 -823 -1062 -329 0 0 1062 -449 0 0 -2745 1062 0c287,0 512,65 678,197 181,145 275,363 284,653 0,479 -242,751 -725,818l848 1077zm-1081 -1454c338,0 507,-146 507,-437 0,-277 -169,-411 -507,-403l-617 0 0 840 617 0zm2683 93c0,-88 -39,-159 -117,-212 -73,-47 -157,-70 -256,-70 -104,0 -189,25 -255,74 -75,54 -111,126 -108,215l0 195 736 0 0 -202 0 0zm348 992c-155,274 -396,411 -721,412 -215,0 -396,-56 -546,-171 -164,-129 -248,-302 -249,-519l0 -706c0,-220 83,-393 249,-519 148,-113 330,-170 546,-170 212,0 390,57 535,170 166,126 249,299 249,519l0 547 -1147 0 0 159c-3,77 27,142 88,197 54,49 126,79 214,90 205,23 347,-48 427,-214l355 205 0 0zm2246 1025l-426 0 0 -711c-252,106 -503,104 -754,-7 -268,-119 -404,-318 -407,-597l0 -691c0,-380 193,-605 579,-678 326,-61 662,-14 1008,141l0 2543 0 0zm-426 -2269c-159,-70 -315,-86 -470,-51 -175,42 -263,144 -263,306l0 699c12,151 104,244 275,283 142,34 295,23 458,-31l0 -1206zm2675 1485c-378,162 -723,209 -1034,140 -360,-80 -540,-303 -540,-671l0 -1349 426 0 0 1357c8,155 100,256 277,303 160,41 310,24 448,-51l0 -1609 423 0 0 1880 0 0zm632 -2350c0,-77 26,-142 77,-193 52,-52 116,-78 192,-78 79,0 143,26 193,78 52,51 78,116 78,193 0,77 -26,142 -78,195 -52,52 -116,78 -193,78 -74,0 -138,-26 -192,-78 -51,-54 -77,-119 -77,-195zm62 466l0 2012 427 0 0 -2012 -427 0zm1668 4c35,-10 96,-16 184,-16 80,0 156,8 228,23l0 377c-124,-37 -247,-30 -368,22 -137,57 -207,150 -207,277l0 1325 -425 0 0 -1334c0,-279 124,-481 373,-605 49,-25 113,-47 193,-66l22 -3 0 0zm1982 647c0,-88 -38,-159 -116,-212 -73,-47 -158,-70 -256,-70 -104,0 -189,25 -255,74 -76,54 -111,126 -109,215l0 195 736 0 0 -202 0 0zm349 992c-155,274 -396,411 -721,412 -215,0 -396,-56 -546,-171 -164,-129 -248,-302 -249,-519l0 -706c0,-220 83,-393 249,-519 148,-113 330,-170 546,-170 212,0 390,57 535,170 166,126 249,299 249,519l0 547 -1148 0 0 159c-2,77 28,142 89,197 54,49 126,79 214,90 205,23 347,-48 427,-214l355 205 0 0zm2268 -2380l0 2664c-362,145 -691,191 -988,136 -370,-64 -568,-282 -596,-655l0 -742c-3,-282 133,-485 407,-611 259,-116 509,-116 751,0l0 -792 426 0 0 0zm-426 1155c-131,-83 -279,-105 -445,-66 -177,44 -273,142 -287,295l0 761c7,160 103,261 287,301 158,37 306,24 445,-38l0 -1253zm1672 928l-434 0 0 -2067 434 0 0 2067zm-497 430c0,-80 27,-147 82,-201 52,-54 118,-82 197,-82 80,0 147,28 203,82 54,54 81,121 81,201 0,79 -27,146 -81,202 -55,54 -122,81 -203,81 -79,0 -145,-27 -197,-81 -55,-54 -82,-122 -82,-202z"/>
   <path class="fil5" d="M53181 15342l-636 0 0 -3961 1532 0c430,0 773,136 1031,409 227,246 341,544 341,893 0,356 -114,653 -341,891 -254,265 -595,396 -1025,396l-902 0 0 1372 0 0zm896 -1964c229,0 412,-74 550,-219 120,-128 179,-283 178,-464 0,-178 -62,-331 -184,-459 -134,-142 -315,-211 -544,-205l-896 0 0 1347 896 0 0 0zm3464 1964l-688 0 -1148 -3961 672 0 699 2477c-3,0 36,248 118,741l49 0 124 -767c41,-262 179,-569 314,-946 141,-395 246,-703 314,-923l541 0 617 1880c-4,0 51,248 166,745l52 0 88 -741 694 -2466 666 0 -1147 3961 -689 0 -625 -1937 -80 -497 -38 0c-63,327 -93,492 -89,492l-610 1942zm4607 -3961l677 0 1431 3961 -677 0 -385 -1029 -1421 0c-42,126 -102,299 -180,515l-177 514 -695 0 1427 -3961 0 0zm497 1281l-123 -626 -77 0 -136 637 -317 991 978 0 -325 -1002 0 0zm6215 -1287l0 650 -1205 0 0 3317 -648 0 0 -3317 -1202 0 0 -650 3055 0zm1314 2003c0,-128 -56,-230 -169,-307 -105,-67 -227,-100 -369,-100 -150,0 -273,35 -369,106 -108,78 -159,183 -155,312l0 281 1062 0 0 -292zm502 1432c-223,394 -570,592 -1040,595 -310,0 -572,-82 -787,-249 -238,-185 -358,-435 -360,-748l0 -1019c0,-318 120,-566 360,-748 213,-165 475,-247 787,-247 305,0 564,82 773,247 238,182 358,430 358,748l0 789 -1655 0 0 230c-4,110 39,206 128,284 78,71 181,115 308,131 296,32 501,-70 616,-309l512 296 0 0zm547 -1405c0,-317 119,-567 358,-749 214,-164 475,-246 784,-246 253,0 478,58 673,173 227,135 378,330 453,587l-561 213c-74,-264 -266,-389 -576,-374 -313,15 -484,144 -514,391l0 991c15,115 73,208 173,279 97,68 211,105 341,112 310,15 502,-110 576,-374l572 213c-72,257 -225,453 -460,587 -197,115 -424,172 -677,172 -309,0 -570,-82 -784,-246 -239,-182 -358,-432 -358,-748l0 -981 0 0zm3260 -2024l0 1163c373,-160 736,-164 1087,-11 380,168 570,472 570,913l0 1896 -611 0 0 -1901c0,-235 -132,-379 -396,-432 -243,-46 -459,-8 -650,112l0 2221 -616 0 0 -3961 616 0zm2343 1254c473,-239 956,-301 1445,-186 549,127 823,455 823,981l0 1912 -612 0 0 -1907c-11,-227 -149,-373 -413,-437 -239,-56 -447,-30 -626,79l0 2265 -617 0 0 -2707 0 0zm4022 341c-143,0 -263,34 -364,101 -111,75 -167,175 -167,301l0 1013c0,131 56,238 167,320 104,74 225,112 364,112 131,0 248,-38 352,-112 111,-82 167,-188 169,-320l0 -1013c0,-127 -56,-228 -169,-301 -101,-67 -218,-101 -352,-101zm-1145 402c0,-313 119,-563 358,-749 216,-164 479,-248 787,-252 306,4 565,88 779,252 238,186 358,436 358,749l0 1013c0,317 -120,567 -358,749 -214,164 -473,248 -779,251 -314,-3 -575,-87 -787,-251 -239,-182 -358,-432 -358,-749l0 -1013zm3978 1986c-355,0 -631,-89 -828,-268 -193,-175 -290,-417 -292,-727l0 -2988 615 0 0 2988c0,281 168,420 505,418l0 577 0 0zm1434 -2388c-142,0 -263,34 -363,101 -111,75 -167,175 -167,301l0 1013c0,131 56,238 167,320 103,74 224,112 363,112 131,0 248,-38 353,-112 111,-82 167,-188 168,-320l0 -1013c0,-127 -56,-228 -168,-301 -101,-67 -218,-101 -353,-101zm-1145 402c0,-313 119,-563 358,-749 216,-164 479,-248 787,-252 306,4 565,88 779,252 238,186 358,436 358,749l0 1013c0,317 -120,567 -358,749 -214,164 -473,248 -779,251 -313,-3 -575,-87 -787,-251 -239,-182 -358,-432 -358,-749l0 -1013zm3194 2137c193,256 451,378 773,365 339,-18 506,-215 503,-593 -377,157 -744,149 -1103,-24 -381,-179 -571,-471 -571,-877l0 -1003c0,-530 285,-856 857,-977 530,-112 999,-27 1404,256l0 2680c0,306 -90,552 -273,738 -163,168 -380,272 -650,314 -253,36 -499,8 -738,-85 -252,-96 -443,-243 -570,-440l368 -354 0 0zm1254 -2468c-171,-120 -380,-154 -628,-101 -268,60 -403,206 -407,437l0 1008c14,225 150,362 407,413 246,49 455,11 628,-112l0 -1645 0 0zm3497 -603l0 2898c0,306 -95,552 -286,738 -168,168 -390,272 -667,314 -261,36 -514,8 -760,-85 -256,-96 -448,-243 -576,-440l369 -354c189,248 462,360 817,335 373,-29 545,-217 515,-563 -380,157 -756,149 -1131,-24 -398,-179 -597,-471 -597,-877l0 -1942 614 0 0 1947c15,225 161,362 437,413 261,49 478,11 653,-112l0 -2248 612 0 0 0z"/>
   <path class="fil6" d="M42261 10767c0,1807 -1465,3272 -3272,3272 -1806,0 -3271,-1465 -3271,-3272 0,-1807 1465,-3271 3271,-3271 1807,0 3272,1464 3272,3271z"/>
   <path class="fil3" d="M36460 12842c-464,-564 -742,-1287 -742,-2075 0,-1807 1464,-3271 3271,-3271 1009,0 1910,456 2510,1173 0,0 -2469,-946 -3989,573 -1519,1520 -1050,3600 -1050,3600z"/>
   <path class="fil7" d="M29248 20466c0,-6015 -4876,-10891 -10891,-10891 -6015,0 -10891,4876 -10891,10891 0,6015 4876,10891 10891,10891 6015,0 10891,-4876 10891,-10891z"/>
   <path class="fil8" d="M20413 23548l0 2055 -8220 0 0 -2055 8220 0zm-8220 -6165l0 -2055c4110,0 8220,0 12330,0l-2055 2055c-3426,0 -6850,0 -10275,0zm12330 8220l-2055 0 0 -4110 -10275 0 0 -2055c4110,0 8220,0 12330,0 0,2055 0,4110 0,6165z"/>
   <g>
    <g>
     <path class="fil9" d="M85294 45858l0 1268 -1269 0 0 -1268 1269 0zm-287 982l0 -696 -696 0 0 696 696 0zm-2021 -1239l0 3421 -508 0 0 516 -786 0 0 527 -787 0 0 515 -519 0 0 516 -869 0 0 -512 -523 0 0 -527 -520 0 0 -1046 -708 0 0 3302 529 0 0 537 527 0 0 516 522 0 0 523 509 0 0 523 529 0 0 441 0 75 0 272 0 256 0 446 0 303 0 301 1215 0 0 -604 -684 0 0 -446 684 0 0 -528 525 0 0 -534 350 0 0 534 506 0 0 974 0 303 0 301 1216 0 0 -604 -685 0 0 -974 0 -1005 0 -36 708 0 0 -521 527 0 0 -798 459 0 0 -2060 553 0 0 684 604 0 0 -1215 -302 0 -302 0 -553 0 0 -781 2145 0 0 -514 1027 0 0 -3082 -501 0 0 -508 -4357 0 0 508 -531 0 0 1z"/>
     <path class="fil10" d="M83070 60094c-2482,0 -4816,-967 -6571,-2723 -1756,-1755 -2723,-4090 -2723,-6572 0,-2483 967,-4816 2723,-6572 1755,-1756 4089,-2723 6571,-2723 2483,0 4816,967 6572,2723 1756,1756 2723,4089 2723,6572 0,2482 -967,4817 -2723,6572 -1756,1756 -4089,2723 -6572,2723zm-6161 -15457c-1645,1646 -2553,3835 -2553,6162 0,2230 835,4332 2353,5951l12312 -12313c-1620,-1518 -3720,-2352 -5951,-2352 -2327,0 -4514,907 -6161,2552zm12523 211l-12313 12313c1620,1518 3721,2352 5951,2352 2327,0 4515,-906 6161,-2553 1646,-1645 2552,-3834 2552,-6161 0,-2231 -833,-4331 -2351,-5951l0 0z"/>
    </g>
    <g>
     <path class="fil4" d="M57580 55841c-8,90 87,153 286,190 151,28 264,69 338,121 107,76 155,185 145,329 -5,121 -60,217 -165,287 -94,61 -207,92 -341,93 -107,0 -206,-28 -296,-83 -97,-59 -167,-141 -213,-246l204 -92c60,135 164,202 309,202 74,0 137,-15 187,-44 56,-33 87,-78 92,-134 4,-70 -24,-122 -87,-158 -46,-25 -120,-46 -221,-62 -306,-46 -460,-183 -461,-411 8,-117 62,-211 162,-280 89,-64 198,-96 326,-97 241,0 404,99 489,295l-201 88c-52,-116 -149,-175 -288,-175 -71,0 -130,15 -179,45 -54,33 -83,77 -86,132zm1872 935c-187,81 -357,104 -512,69 -178,-39 -267,-150 -267,-332l0 -668 211 0 0 672c4,77 49,127 137,150 79,21 154,12 222,-25l0 -797 209 0 0 931zm760 -1095c-135,0 -202,45 -202,135l0 180 190 0 0 211 -190 0 0 633 -211 0 0 -1024c0,-112 40,-199 121,-263 77,-60 174,-86 292,-79l0 207zm639 0c-134,0 -202,45 -202,135l0 180 191 0 0 211 -191 0 0 633 -210 0 0 -1024c0,-112 40,-199 121,-263 76,-60 174,-86 291,-79l0 207zm832 484c0,-43 -19,-79 -58,-105 -36,-23 -78,-34 -127,-34 -51,0 -93,12 -126,36 -37,27 -55,63 -54,107l0 97 365 0 0 -101zm173 492c-77,135 -196,203 -358,204 -106,0 -196,-28 -270,-85 -82,-64 -123,-150 -123,-257l0 -350c0,-109 41,-194 123,-257 74,-56 163,-84 270,-84 105,0 194,28 266,84 82,63 122,148 122,257l0 271 -567 0 0 79c-2,38 13,71 43,98 27,24 63,39 106,44 101,12 172,-24 211,-106l177 102 0 0zm665 -812c16,-5 47,-8 90,-8 40,0 77,4 113,11l0 187c-61,-18 -122,-14 -182,11 -68,28 -102,74 -102,137l0 657 -211 0 0 -662c0,-138 61,-238 185,-298 24,-13 56,-24 95,-34l12 -1 0 0zm463 -233c0,-38 13,-70 38,-96 26,-25 58,-38 95,-38 39,0 71,13 96,38 26,26 38,58 38,96 0,38 -12,70 -38,97 -26,25 -58,38 -96,38 -37,0 -68,-13 -95,-38 -25,-27 -38,-59 -38,-97zm31 231l0 997 211 0 0 -997 -211 0zm571 68c163,-82 328,-104 496,-65 188,45 282,157 282,337l0 657 -210 0 0 -655c-4,-78 -51,-128 -141,-150 -82,-20 -153,-10 -215,27l0 778 -212 0 0 -929zm1276 988c67,88 155,130 266,125 116,-6 173,-74 172,-203 -129,54 -255,51 -378,-8 -131,-62 -196,-162 -196,-302l0 -344c0,-182 98,-294 294,-335 182,-39 343,-9 482,88l0 920c0,105 -31,189 -94,253 -56,57 -131,93 -223,108 -87,12 -171,3 -253,-29 -87,-34 -153,-84 -196,-152l126 -121 0 0zm431 -847c-59,-41 -131,-53 -216,-35 -92,21 -138,71 -139,150l0 346c4,77 51,124 139,142 85,17 156,4 216,-38l0 -565 0 0zm560 659c0,-40 13,-73 40,-100 26,-27 58,-41 98,-41 39,0 72,14 100,41 27,27 40,60 40,100 0,40 -13,73 -40,99 -27,28 -60,41 -100,41 -40,0 -72,-13 -98,-41 -27,-26 -40,-59 -40,-99zm611 0c0,-40 14,-73 41,-100 25,-27 58,-41 97,-41 40,0 73,14 101,41 26,27 40,60 40,100 0,40 -14,73 -40,99 -28,28 -61,41 -101,41 -39,0 -72,-13 -97,-41 -27,-26 -41,-59 -41,-99zm612 0c0,-40 13,-73 40,-100 26,-27 58,-41 98,-41 39,0 72,14 100,41 27,27 41,60 41,100 0,40 -14,73 -41,99 -27,28 -60,41 -100,41 -40,0 -72,-13 -98,-41 -27,-26 -40,-59 -40,-99z"/>
     <g>
      <path class="fil9" d="M66147 49353l-2267 0 0 931 2267 0 0 -931zm-404 2441l-1964 -1134 -465 807 1963 1134 466 -807zm-1571 1912l-1133 -1964 -807 466 1134 1964 806 -466 0 0zm-2316 870l0 -2267 -931 0 0 2267 931 0zm-2441 -404l1133 -1964 -806 -466 -1133 1964 806 466zm-1912 -1571l1964 -1134 -466 -807 -1963 1134 465 807 0 0zm5862 -7135l-1133 1963 807 466 1133 -1963 -807 -466zm1912 1571l-1963 1134 465 806 1964 -1134 -466 -806 0 0z"/>
      <polygon class="fil11" points="60924,45062 60924,47329 61856,47329 61856,45062 "/>
      <polygon class="fil12" points="58609,45932 59742,47895 60548,47429 59415,45466 "/>
      <polygon class="fil12" points="57038,47843 59001,48977 59467,48171 57503,47037 "/>
      <polygon class="fil7" points="56633,49353 56633,50284 58900,50284 58900,49353 "/>
     </g>
     <path class="fil10" d="M61390 60094c-2483,0 -4817,-967 -6571,-2723 -1756,-1755 -2723,-4090 -2723,-6572 0,-2483 967,-4816 2723,-6572 1754,-1756 4088,-2723 6571,-2723 2483,0 4816,967 6572,2723 1756,1756 2723,4089 2723,6572 0,2482 -967,4817 -2723,6572 -1756,1756 -4089,2723 -6572,2723zm-6161 -15457c-1645,1646 -2553,3835 -2553,6162 0,2230 835,4332 2353,5951l12311 -12313c-1619,-1518 -3720,-2352 -5950,-2352 -2328,0 -4515,907 -6161,2552l0 0zm12523 211l-12313 12313c1619,1518 3721,2352 5951,2352 2327,0 4515,-906 6160,-2553 1647,-1645 2553,-3834 2553,-6161 0,-2231 -833,-4331 -2351,-5951l0 0z"/>
    </g>
    <g>
     <path class="fil4" d="M80027 30408l420 0 0 857 -420 0 0 1312 -909 0 0 -1312 -2347 0 -525 -704 2920 -3651 861 0 0 3498zm-869 -1514c87,-654 133,-981 138,-981l-119 0c-302,525 -464,803 -485,834l-1264 1661 1714 0 16 -1514 0 0zm2781 2062c0,274 132,485 392,633 210,119 469,178 774,178 309,0 568,-59 779,-178 253,-146 380,-356 380,-633l0 -2303c0,-279 -127,-493 -380,-641 -205,-113 -464,-170 -779,-170 -313,0 -572,57 -774,170 -258,145 -389,359 -392,641l0 2303zm1166 1708c-545,0 -1012,-137 -1399,-411 -448,-318 -671,-752 -671,-1297l0 -2303c0,-556 223,-990 671,-1305 382,-273 849,-411 1399,-414 546,0 1013,138 1403,414 443,315 663,749 661,1305l0 2303c0,545 -220,979 -661,1297 -387,274 -854,411 -1403,411zm6371 -2256l419 0 0 857 -419 0 0 1312 -909 0 0 -1312 -2347 0 -525 -704 2920 -3651 861 0 0 3498 0 0zm-869 -1514c86,-654 132,-981 138,-981l-119 0c-302,525 -464,803 -486,834l-1263 1661 1714 0 16 -1514 0 0z"/>
     <path class="fil10" d="M83070 39082c-2482,0 -4816,-967 -6571,-2723 -1756,-1756 -2723,-4090 -2723,-6572 0,-2484 967,-4817 2723,-6573 1755,-1755 4089,-2722 6571,-2722 2483,0 4816,967 6572,2722 1756,1756 2723,4089 2723,6573 0,2482 -967,4816 -2723,6572 -1756,1756 -4089,2723 -6572,2723zm-6161 -15458c-1645,1647 -2553,3835 -2553,6163 0,2230 835,4331 2353,5951l12312 -12313c-1620,-1518 -3720,-2352 -5951,-2352 -2327,0 -4514,906 -6161,2551l0 0zm12523 212l-12313 12313c1620,1518 3721,2351 5951,2351 2328,0 4515,-906 6161,-2552 1646,-1646 2553,-3834 2553,-6161 0,-2231 -834,-4332 -2352,-5951l0 0z"/>
    </g>
    <g>
     <path class="fil9" d="M59946 32361l-932 0 0 932 932 0 0 -932 932 0 931 0 932 0 0 932 931 0 0 -932 -931 0 0 -931 -932 0 -931 0 -932 0 0 931zm1580 -7353l0 2789 0 932 932 0 2762 0 0 5832 -7654 0 0 -9553 3960 0 0 0zm932 2789l0 -2789 899 0 0 931 932 0 0 932 931 0 0 926 -2762 0zm-3444 0l0 -931 932 0 0 931 0 932 -932 0 0 -932zm-2379 -2789l0 9553 0 932 931 0 7654 0 425 0 507 0 0 -8622 -932 0 0 -932 -931 0 0 -931 -932 0 0 -932 -5791 0 -931 0 0 932z"/>
     <path class="fil10" d="M61392 39082c-2482,0 -4817,-968 -6572,-2724 -1756,-1756 -2724,-4091 -2724,-6574 0,-2484 968,-4818 2724,-6574 1755,-1756 4090,-2724 6572,-2724 2484,0 4818,968 6574,2724 1757,1756 2724,4090 2724,6574 0,2483 -967,4818 -2724,6574 -1756,1756 -4090,2724 -6574,2724zm-6162 -15462c-1646,1647 -2554,3836 -2554,6164 0,2230 836,4333 2354,5953l12315 -12316c-1620,-1519 -3721,-2353 -5953,-2353 -2328,0 -4515,907 -6162,2552zm12527 212l-12317 12316c1620,1518 3722,2352 5952,2352 2329,0 4517,-906 6163,-2553 1647,-1646 2554,-3835 2554,-6163 0,-2232 -834,-4332 -2352,-5952l0 0z"/>
    </g>
   </g>
   <path class="fil3" d="M103921 71113c1759,59 3168,1503 3180,3290l28 0c12,-1787 1420,-3231 3179,-3290 -1766,-58 -3181,-1514 -3181,-3311l-23 0c-2,1797 -1417,3253 -3183,3311l0 0z"/>
   <path class="fil13" d="M25535 62178l828 0c150,0 225,75 225,225 0,93 -18,157 -54,191 -35,34 -93,50 -171,50l-825 0 -3 0 -3 0 -3 0 -4 0 -2 0c-119,-1 -219,-29 -298,-83 -83,-56 -143,-122 -184,-196 0,268 -15,496 -47,681 -33,185 -93,336 -183,450 -90,114 -214,196 -371,246 -157,50 -361,76 -614,76l0 -466c183,0 326,-20 430,-59 103,-39 180,-103 231,-191 51,-87 82,-200 91,-337 9,-137 13,-302 13,-496l0 -1506 456 0 0 798c0,190 35,341 104,452 68,109 194,164 377,165l4 0 3 0zm-2142 -21457c-124,0 -249,-20 -374,-61 -124,-41 -226,-130 -304,-267 -53,74 -114,132 -184,177 -71,44 -147,77 -230,100 -81,21 -166,35 -255,42 -88,6 -175,9 -261,9l-2836 0c-254,0 -467,-18 -641,-55 -172,-36 -310,-96 -412,-178 -103,-82 -176,-188 -220,-317 -42,-129 -64,-286 -64,-471l0 -1067 839 0 0 953c0,86 11,153 33,203 23,49 61,89 116,118 56,30 132,49 226,57 95,9 216,13 363,13l2460 0c148,0 250,-22 308,-68 57,-45 86,-147 86,-304l0 -1454 833 0 0 1382c0,159 34,273 101,341 67,69 206,103 416,103 33,0 66,4 96,11 31,8 58,23 83,45 23,24 42,59 54,106 14,47 19,112 19,195 0,146 -20,248 -61,303 -41,57 -105,84 -191,84l0 0zm24083 -3958l-193 0 0 26402 193 0 0 -12911 0 -13491 0 0zm-27656 5980c0,-124 45,-231 136,-322 90,-90 198,-135 324,-135 124,0 231,45 322,135 90,91 135,198 135,322 0,124 -45,231 -135,322 -91,90 -198,136 -322,136 -124,0 -232,-46 -323,-136 -92,-91 -137,-198 -137,-322l0 0zm-528 -937c0,-123 46,-231 136,-322 91,-90 198,-135 322,-135 124,0 232,45 322,135 90,91 136,199 136,322 0,124 -46,232 -136,323 -90,90 -198,135 -322,135 -124,0 -231,-45 -322,-135 -90,-91 -136,-199 -136,-323zm1051 0c0,-123 45,-231 136,-322 90,-90 198,-135 325,-135 124,0 231,45 322,135 90,91 136,199 136,322 0,124 -46,232 -136,323 -91,90 -198,135 -322,135 -125,0 -233,-45 -324,-135 -92,-91 -137,-199 -137,-323zm3047 -1085c-33,0 -66,-3 -96,-9 -31,-7 -58,-22 -83,-46 -23,-24 -42,-60 -55,-107 -13,-48 -18,-112 -18,-194 0,-147 20,-249 61,-305 41,-56 105,-83 191,-83l956 0c33,0 66,4 96,11 30,8 58,23 81,45 25,24 44,59 56,106 12,47 19,112 19,195 0,146 -21,249 -61,303 -41,57 -105,84 -191,84l-956 0 0 0zm956 0c-34,0 -66,-3 -96,-9 -31,-7 -58,-23 -83,-49 -24,-27 -42,-63 -55,-111 -13,-47 -18,-112 -18,-193 0,-148 20,-249 61,-305 41,-55 105,-83 191,-83l1022 0 0 -1820 844 0 0 2570 -1866 0 0 0zm72 1085c0,-123 45,-231 135,-322 91,-90 199,-135 322,-135 124,0 232,45 322,135 91,91 136,199 136,322 0,124 -45,232 -136,323 -90,90 -198,135 -322,135 -123,0 -231,-45 -322,-135 -90,-91 -135,-199 -135,-323zm1051 0c0,-123 45,-231 135,-322 91,-90 200,-135 325,-135 124,0 232,45 322,135 91,91 136,199 136,322 0,124 -45,232 -136,323 -90,90 -198,135 -322,135 -123,0 -232,-45 -324,-135 -91,-91 -136,-199 -136,-323zm4144 -1085c-124,0 -230,-6 -318,-19 -88,-12 -165,-31 -229,-58 -64,-26 -124,-59 -181,-101 -58,-41 -115,-89 -174,-144 -124,144 -258,233 -403,268 -146,36 -302,54 -471,54l-1123 0 0 -744 1278 0c102,0 180,-16 231,-47 50,-32 75,-70 75,-114 0,-49 -21,-107 -62,-174 -41,-69 -117,-184 -229,-343l-589 -871 769 -492 776 1313c82,138 153,255 213,349 61,95 114,170 164,225 49,56 96,96 139,119 43,24 88,35 134,35 34,0 66,4 97,11 33,8 59,23 83,45 23,24 41,59 53,106 13,47 19,112 19,195 0,146 -20,248 -61,303 -41,56 -105,84 -191,84zm684 -3687c0,-124 45,-231 135,-323 91,-91 200,-138 326,-138 124,0 231,46 321,136 91,90 136,199 136,325 0,124 -45,231 -136,322 -90,90 -197,136 -321,136 -124,0 -232,-46 -323,-136 -92,-91 -138,-198 -138,-322l0 0zm60 2943l0 -1826 846 0 0 2570 -1590 0c-33,0 -65,-3 -96,-9 -31,-7 -58,-22 -83,-46 -23,-24 -41,-60 -55,-107 -12,-48 -18,-112 -18,-194 0,-147 21,-249 62,-305 41,-56 104,-83 190,-83l744 0 0 0zm3375 744c-57,0 -134,-12 -234,-40 -98,-25 -185,-81 -258,-167 -4,291 -39,536 -102,733 -64,196 -162,355 -291,476 -129,120 -293,207 -489,258 -199,52 -436,79 -713,84l0 -788c176,-4 316,-25 421,-63 103,-36 182,-90 233,-163 51,-72 84,-166 99,-281 15,-114 22,-252 22,-411l0 -1924 833 0 0 1098c0,168 51,284 153,348 102,64 211,96 326,96 34,0 66,4 96,11 31,8 58,23 83,45 24,24 42,59 55,106 13,47 18,112 18,195 0,146 -20,249 -61,303 -41,57 -105,84 -191,84l0 0zm262 -744c94,0 173,-2 234,-6 63,-4 114,-17 152,-38 39,-21 67,-52 85,-93 19,-41 27,-98 27,-173l0 -1232 827 0 0 1098c0,138 37,246 112,326 74,79 192,118 351,118 125,0 231,-19 321,-57 89,-37 133,-121 133,-253l0 -1232 839 0 0 1098c0,296 128,444 382,444l400 0 0 -1826 839 0 0 2570 -987 0c-229,0 -401,-26 -519,-80 -116,-54 -214,-138 -295,-254 -64,82 -134,145 -208,189 -73,44 -149,78 -227,100 -77,22 -154,35 -228,39 -76,4 -147,6 -217,6 -218,0 -402,-35 -552,-107 -148,-71 -255,-147 -318,-227 -115,151 -266,245 -452,280 -187,36 -424,54 -712,54l-252 0c-33,0 -66,-3 -96,-9 -31,-7 -58,-22 -83,-46 -23,-24 -42,-60 -55,-107 -13,-48 -18,-112 -18,-194 0,-147 20,-249 61,-305 42,-56 105,-83 191,-83l265 0 0 0zm8793 357c0,146 -21,248 -62,303 -40,57 -104,84 -190,84l-271 0c-148,0 -282,-16 -404,-48 -122,-33 -227,-87 -315,-162 -89,-74 -158,-174 -207,-299 -50,-125 -74,-280 -74,-465l0 -3637 839 0 0 3520c0,152 27,247 80,287 54,40 130,60 229,60l123 0c33,0 65,4 96,11 31,8 58,23 83,45 23,24 42,59 55,106 12,47 18,112 18,195zm486 -357l0 -1826 846 0 0 2570 -1590 0c-34,0 -66,-3 -96,-9 -32,-7 -58,-22 -83,-46 -24,-24 -42,-60 -55,-107 -13,-48 -19,-112 -19,-194 0,-147 21,-249 62,-305 41,-56 104,-83 191,-83l744 0 0 0zm-106 1810c0,-124 45,-231 136,-322 90,-90 198,-136 325,-136 123,0 230,46 321,136 90,91 135,198 135,322 0,124 -45,232 -135,322 -91,91 -198,136 -321,136 -125,0 -233,-45 -324,-136 -92,-90 -137,-198 -137,-322zm-30892 7299c0,146 23,280 70,401 47,122 125,226 236,314 110,87 256,156 439,205 181,48 407,72 675,72 194,0 380,-14 558,-42 179,-28 336,-69 473,-121 137,-53 246,-116 327,-193 80,-77 120,-164 120,-261 0,-86 -28,-158 -85,-216 -56,-59 -164,-127 -321,-206 -112,-57 -215,-116 -311,-174 -96,-59 -179,-126 -247,-199 -68,-73 -123,-155 -165,-247 -43,-91 -63,-199 -63,-324 0,-142 26,-286 77,-431 51,-145 127,-277 230,-395 102,-118 230,-214 384,-287 153,-73 335,-109 545,-109 125,0 234,14 329,42 95,28 151,46 165,53l0 472c-75,-21 -157,-40 -244,-56 -88,-16 -175,-23 -261,-23 -124,0 -234,19 -328,59 -96,39 -174,91 -236,155 -63,64 -110,135 -141,213 -31,79 -47,158 -47,236 0,75 14,140 42,194 27,54 65,103 114,148 49,45 105,86 168,123 65,38 134,77 209,119 128,72 235,137 321,197 85,59 153,117 204,174 50,56 87,113 110,171 22,57 34,120 34,187 0,158 -35,309 -107,456 -72,146 -186,275 -343,388 -157,112 -360,203 -608,271 -249,69 -550,103 -903,103 -352,0 -648,-34 -888,-103 -239,-69 -432,-164 -577,-286 -145,-123 -250,-267 -314,-434 -64,-166 -96,-348 -96,-545l0 -839 455 0 0 738zm5418 150c-124,0 -228,-27 -310,-83 -82,-56 -143,-122 -183,-197 0,269 -16,497 -48,682 -32,185 -93,336 -182,450 -90,114 -214,196 -371,246 -158,50 -361,76 -614,76l0 -466c182,0 326,-20 429,-59 103,-39 180,-103 232,-191 51,-87 81,-200 90,-337 10,-138 14,-302 14,-496l0 -1506 455 0 0 798c0,190 35,341 104,451 70,111 198,166 384,166 150,0 225,75 225,225 0,93 -18,157 -54,191 -35,33 -92,50 -171,50zm-3 0c-149,0 -224,-75 -224,-224 0,-94 17,-158 53,-191 35,-34 93,-51 171,-51l875 0 0 -1695 461 0 0 2161 -1336 0zm712 836c0,-82 30,-152 88,-210 59,-57 130,-86 211,-86 82,0 153,28 211,86 57,58 86,128 86,210 0,83 -29,153 -86,212 -58,58 -129,87 -211,87 -81,0 -152,-29 -211,-87 -59,-59 -88,-129 -88,-212zm1814 -2717l455 0 0 1566c0,278 -15,511 -47,701 -33,189 -93,342 -183,458 -90,116 -214,200 -373,251 -160,52 -364,79 -617,79l0 -466c182,0 326,-20 429,-59 103,-39 181,-103 232,-191 51,-87 81,-200 90,-337 10,-138 14,-302 14,-496l0 -1506zm2413 1640c0,93 -17,157 -53,191 -35,33 -93,50 -171,50l-146 0c-121,0 -230,-12 -329,-37 -99,-25 -183,-66 -252,-126 -70,-59 -124,-139 -163,-238 -40,-100 -59,-225 -59,-375l0 -3233 460 0 0 3110c0,157 25,269 74,334 50,66 158,99 327,99l88 0c150,0 224,75 224,225zm-224 241c-150,0 -225,-75 -225,-224 0,-94 18,-158 54,-191 35,-34 92,-51 171,-51l831 0c150,0 225,75 225,225 0,93 -18,157 -54,191 -35,33 -92,50 -171,50l-831 0zm831 0c-150,0 -225,-75 -225,-224 0,-94 18,-158 54,-191 35,-34 92,-51 171,-51l831 0c150,0 225,75 225,225 0,93 -18,157 -54,191 -35,33 -92,50 -171,50l-831 0zm831 0c-150,0 -224,-75 -224,-224 0,-94 17,-158 53,-191 35,-34 93,-51 171,-51l1341 0c139,0 255,-25 347,-73 92,-48 138,-142 138,-281 0,-97 -46,-207 -138,-333 -92,-125 -214,-253 -366,-383 -152,-129 -326,-257 -523,-382 -196,-125 -396,-238 -601,-338 3,-46 14,-92 32,-139 19,-47 40,-90 62,-129 23,-39 46,-74 70,-104 24,-30 42,-54 60,-62l2055 -905 0 456 -1651 729c261,154 484,303 667,449 183,146 334,288 447,423 115,135 198,266 249,391 52,125 79,243 79,355 0,78 -12,165 -36,259 -24,94 -69,180 -137,259 -68,78 -163,145 -287,197 -123,52 -282,77 -478,77l-1330 0zm4728 -1466c0,157 50,284 150,381 99,98 257,147 472,147 83,0 172,-8 268,-27 96,-18 182,-43 256,-74l0 -998 -494 0c-178,0 -332,45 -460,135 -129,91 -192,236 -192,436zm584 1006c-90,0 -193,-14 -311,-40 -118,-27 -231,-74 -338,-143 -106,-68 -197,-165 -272,-292 -75,-126 -112,-290 -112,-490 0,-203 35,-373 106,-509 71,-136 163,-248 275,-334 113,-86 237,-147 374,-185 136,-37 271,-56 407,-56l894 0 0 1610c0,157 24,269 72,334 49,66 157,99 326,99l134 0c149,0 224,75 224,225 0,93 -18,157 -53,191 -36,33 -93,50 -171,50l-189 0c-97,0 -191,-8 -278,-24 -89,-17 -168,-47 -238,-91 -70,-44 -129,-101 -177,-171 -48,-70 -80,-163 -95,-276 -82,30 -175,54 -278,73 -103,19 -203,29 -300,29zm1555 460c-150,0 -225,-75 -225,-224 0,-94 18,-158 53,-191 36,-34 93,-51 172,-51l875 0 0 -1695 460 0 0 2161 -1335 0zm712 836c0,-82 29,-152 88,-210 58,-57 129,-86 210,-86 83,0 153,28 211,86 57,58 86,128 86,210 0,83 -28,153 -86,212 -58,58 -128,87 -211,87 -81,0 -152,-29 -210,-87 -59,-59 -88,-129 -88,-212zm2762 -836c-124,0 -228,-27 -310,-83 -82,-56 -143,-122 -183,-197 0,269 -16,497 -48,682 -32,185 -93,336 -183,450 -89,114 -213,196 -370,246 -158,50 -361,76 -614,76l0 -466c182,0 326,-20 429,-59 103,-39 180,-103 232,-191 51,-87 81,-200 90,-337 10,-138 13,-302 13,-496l0 -1506 456 0 0 798c0,190 35,341 104,451 70,111 198,166 384,166 150,0 225,75 225,225 0,93 -18,157 -54,191 -35,33 -92,50 -171,50zm-3 0c-150,0 -224,-75 -224,-224 0,-94 17,-158 53,-191 35,-34 93,-51 171,-51l831 0c150,0 225,75 225,225 0,93 -18,157 -53,191 -36,33 -93,50 -172,50l-831 0zm831 0c-149,0 -224,-75 -224,-224 0,-94 17,-158 53,-191 36,-34 93,-51 171,-51l2251 0c0,-239 -31,-441 -94,-605 -63,-165 -149,-299 -258,-403 -108,-103 -236,-178 -382,-225 -146,-46 -300,-70 -461,-70 -108,0 -223,11 -344,31 -122,20 -222,41 -300,66l0 -451c75,-21 174,-46 297,-74 123,-29 258,-43 405,-43 281,0 522,47 724,140 201,93 367,221 501,384 134,163 233,352 295,567 63,216 97,444 100,683l349 0c149,0 224,75 224,225 0,93 -18,157 -53,191 -36,33 -93,50 -171,50l-3083 0zm1173 842c0,-83 30,-152 88,-210 59,-57 129,-86 211,-86 82,0 152,28 210,86 57,57 86,127 86,210 0,82 -28,153 -86,211 -57,59 -128,87 -210,87 -82,0 -153,-29 -211,-87 -59,-59 -88,-129 -88,-211zm1915 -842c-150,0 -224,-75 -224,-224 0,-94 17,-158 53,-191 35,-34 93,-51 171,-51l875 0 0 -1695 461 0 0 2161 -1336 0zm376 -3106c0,-83 30,-152 88,-210 59,-57 129,-87 211,-87 82,0 152,30 210,87 57,58 87,127 87,210 0,82 -30,152 -87,210 -58,59 -128,88 -210,88 -82,0 -152,-29 -211,-88 -58,-58 -88,-128 -88,-210zm730 0c0,-83 30,-153 88,-210 58,-58 129,-87 211,-87 82,0 152,29 210,87 57,57 86,127 86,210 0,82 -29,152 -86,210 -58,59 -128,88 -210,88 -82,0 -153,-29 -211,-88 -58,-58 -88,-128 -88,-210zm2981 1225l455 0 0 1566c0,278 -16,511 -48,701 -32,189 -93,342 -183,458 -89,116 -214,200 -373,251 -159,52 -364,79 -617,79l0 -466c183,0 326,-20 430,-59 103,-39 180,-103 231,-191 51,-87 81,-200 91,-337 9,-138 14,-302 14,-496l0 -1506zm-70 -1225c0,-83 30,-153 88,-210 59,-58 130,-87 212,-87 82,0 152,29 210,87 57,57 86,127 86,210 0,82 -29,152 -86,210 -58,59 -128,88 -210,88 -82,0 -153,-29 -212,-88 -58,-58 -88,-128 -88,-210zm1770 -903l0 4009 -461 0 0 -4009 461 0zm-17994 10695c0,146 24,280 71,402 46,121 125,226 235,313 111,88 257,157 439,205 182,49 408,72 676,72 194,0 380,-14 558,-42 179,-28 336,-68 473,-120 137,-53 246,-117 326,-193 81,-77 121,-164 121,-261 0,-87 -29,-158 -85,-217 -57,-58 -164,-126 -321,-206 -112,-56 -215,-115 -311,-174 -96,-59 -179,-125 -247,-198 -68,-74 -124,-155 -166,-247 -42,-92 -62,-200 -62,-324 0,-142 25,-286 76,-432 51,-144 128,-276 231,-394 102,-118 230,-214 383,-287 154,-73 335,-109 546,-109 125,0 234,14 329,42 95,28 150,46 164,53l0 472c-75,-22 -156,-41 -243,-56 -88,-16 -175,-24 -261,-24 -125,0 -234,20 -329,59 -95,40 -173,91 -236,156 -62,64 -109,134 -140,213 -31,79 -47,157 -47,236 0,75 14,140 41,194 28,53 66,103 115,147 48,45 104,87 168,124 64,38 134,77 209,119 128,71 235,137 321,196 85,59 153,118 204,175 50,56 87,113 109,171 23,57 35,120 35,187 0,157 -36,309 -108,456 -71,146 -185,275 -342,387 -157,113 -361,203 -609,272 -249,69 -549,103 -902,103 -353,0 -648,-34 -888,-103 -240,-69 -433,-164 -578,-287 -145,-122 -249,-267 -313,-433 -64,-167 -97,-348 -97,-546l0 -838 455 0 0 737zm4471 -1730l454 0 0 1566c0,277 -15,511 -47,701 -32,189 -93,341 -183,457 -90,116 -214,200 -373,252 -159,52 -364,79 -617,79l0 -466c182,0 326,-20 430,-59 103,-39 180,-104 231,-191 51,-88 81,-201 91,-337 9,-138 14,-303 14,-496l0 -1506zm2094 1881c-146,0 -281,-17 -407,-51 -125,-33 -234,-88 -326,-165 -92,-77 -165,-179 -219,-306 -55,-128 -81,-284 -81,-471 0,-150 24,-297 72,-441 49,-145 120,-274 213,-386 93,-112 209,-202 348,-269 139,-68 298,-102 477,-102 200,0 367,36 504,109 135,73 245,174 327,304 83,129 142,282 177,460 36,179 54,375 54,589l0 526c0,281 -38,511 -113,689 -74,177 -182,317 -320,420 -138,103 -308,174 -510,212 -201,37 -428,56 -679,56l-235 0 0 -466 173 0c178,0 342,-8 490,-23 149,-14 276,-48 383,-101 107,-53 191,-130 250,-230 59,-101 89,-237 89,-409l0 -107c-68,42 -156,80 -263,112 -109,33 -243,50 -404,50zm-584 -1045c0,214 57,366 172,458 114,92 266,138 456,138 143,0 268,-19 378,-57 108,-38 190,-78 245,-122l0 -209c0,-127 -10,-248 -30,-360 -20,-112 -55,-209 -103,-289 -49,-81 -112,-145 -191,-191 -78,-46 -174,-70 -287,-70 -116,0 -214,23 -294,68 -81,44 -146,100 -198,168 -50,68 -89,143 -112,225 -24,82 -36,163 -36,241zm3625 803c0,94 -17,158 -53,191 -36,34 -93,51 -171,51l-146 0c-121,0 -230,-13 -329,-37 -99,-25 -183,-66 -252,-126 -70,-59 -124,-139 -163,-239 -40,-100 -59,-224 -59,-374l0 -3233 460 0 0 3109c0,158 25,269 74,335 50,66 158,99 327,99l88 0c150,0 224,75 224,224zm-224 242c-150,0 -225,-75 -225,-225 0,-93 18,-157 54,-191 35,-33 92,-50 171,-50l831 0c150,0 225,75 225,224 0,94 -18,158 -54,191 -35,34 -93,51 -171,51l-831 0zm831 0c-150,0 -225,-75 -225,-225 0,-93 18,-157 54,-191 35,-33 92,-50 171,-50l831 0c150,0 225,75 225,224 0,94 -18,158 -54,191 -35,34 -92,51 -171,51l-831 0zm831 0c-149,0 -225,-75 -225,-225 0,-93 18,-157 54,-191 35,-33 93,-50 171,-50l375 0c90,0 167,-4 231,-11 64,-8 118,-26 161,-54 43,-28 74,-69 95,-123 21,-54 32,-128 32,-221l0 -1286 461 0 0 1078c0,93 7,178 19,255 13,76 37,141 75,193 37,52 88,94 151,124 63,30 144,45 243,45 150,0 225,75 225,224 0,94 -18,158 -54,191 -35,34 -92,51 -171,51 -146,0 -264,-34 -354,-104 -90,-70 -149,-156 -181,-261 -68,153 -173,253 -317,298 -143,44 -320,67 -530,67l-461 0zm842 -3107c0,-82 30,-152 88,-209 58,-58 129,-87 211,-87 82,0 152,29 210,87 57,57 86,127 86,209 0,83 -29,153 -86,211 -58,59 -128,88 -210,88 -82,0 -152,-29 -211,-88 -58,-58 -88,-128 -88,-211zm998 3107c-149,0 -224,-75 -224,-225 0,-93 17,-157 53,-191 36,-33 93,-50 171,-50l828 0 3 0 828 0 4 0 831 0c150,0 224,75 224,224 0,94 -17,158 -53,191 -35,34 -93,51 -171,51l-828 0 -3 0 -828 0 -4 0 -831 0zm3420 -1130c0,229 68,396 203,504 133,106 298,160 494,160l538 0 0 -563c0,-89 -9,-179 -25,-271 -17,-91 -47,-173 -92,-246 -45,-73 -107,-133 -185,-180 -79,-47 -178,-70 -299,-70 -100,0 -190,18 -269,53 -78,36 -145,84 -199,143 -53,59 -94,131 -123,213 -28,81 -43,167 -43,257zm-926 1130c-150,0 -225,-75 -225,-225 0,-93 18,-157 54,-191 35,-33 92,-50 171,-50l639 0c-42,-79 -78,-166 -108,-260 -29,-96 -43,-205 -43,-330 0,-146 24,-290 72,-433 49,-142 121,-269 215,-378 94,-110 209,-200 345,-269 136,-69 295,-105 476,-105 207,0 375,38 506,113 130,75 234,171 311,287 76,116 130,243 159,384 29,139 44,277 44,412l0 1045 -2616 0zm1302 -3107c0,-82 30,-152 88,-209 59,-58 129,-87 211,-87 83,0 152,29 210,87 57,57 86,127 86,209 0,83 -29,153 -86,211 -58,59 -127,88 -210,88 -82,0 -152,-29 -211,-88 -58,-58 -88,-128 -88,-211zm-30426 1676l0 1458 -455 0 0 -4026 1532 0c427,0 767,133 1018,398 230,243 341,538 340,884 0,347 -108,644 -335,885 -251,267 -593,401 -1017,401l-1083 0zm1077 -456c293,0 521,-88 686,-263 146,-154 219,-344 219,-573 0,-224 -74,-415 -224,-568 -168,-171 -395,-252 -681,-252l-1077 0 0 1656 1077 0zm4541 -1601l938 2978 979 -3489 478 0 -1169 4026 -567 0 -867 -2717 -863 2717 -568 0 -1169 -4026 478 0 979 3489 938 -2978 413 0zm3917 -511l567 0 1459 4026 -483 0 -471 -1296 -1579 0 -453 1296 -485 0 1445 -4026zm910 2268l-626 -1762 -628 1762 1254 0zm3547 8302c-149,0 -225,-75 -225,-224 0,-94 18,-158 54,-191 35,-34 92,-51 171,-51l831 0c150,0 225,75 225,225 0,93 -18,157 -54,191 -35,34 -93,50 -171,50l-831 0zm831 0c-149,0 -225,-75 -225,-224 0,-94 18,-158 54,-191 35,-34 92,-51 171,-51l375 0c90,0 167,-4 231,-11 64,-7 118,-25 161,-53 43,-28 74,-70 95,-124 21,-53 32,-127 32,-221l0 -1286 460 0 0 1078c0,93 8,178 20,255 13,77 37,142 75,194 37,51 88,93 151,123 63,31 144,45 243,45 150,0 225,75 225,225 0,93 -18,157 -54,191 -35,34 -92,50 -171,50 -146,0 -264,-34 -354,-104 -90,-69 -150,-156 -181,-261 -68,154 -174,253 -317,298 -143,45 -320,67 -530,67l-461 0zm724 836c0,-82 29,-152 88,-209 58,-58 129,-87 210,-87 83,0 153,29 211,87 57,56 86,127 86,209 0,83 -29,153 -86,212 -58,58 -128,87 -211,87 -81,0 -152,-29 -210,-87 -59,-59 -88,-129 -88,-212zm1116 -836c-149,0 -224,-75 -224,-224 0,-94 17,-158 53,-191 36,-34 93,-51 171,-51l671 0 606 0 0 -1695 460 0 0 2161 -1057 0 -680 0zm1114 836c0,-82 29,-152 88,-209 58,-58 129,-87 210,-87 83,0 153,29 211,87 57,56 86,127 86,209 0,83 -29,153 -86,212 -58,58 -128,87 -211,87 -81,0 -152,-29 -210,-87 -59,-59 -88,-129 -88,-212zm7114 -836l-3403 0c-217,0 -399,-14 -543,-45 -144,-30 -261,-78 -348,-143 -88,-65 -151,-149 -188,-252 -38,-103 -56,-230 -56,-380l0 -869 460 0 0 702c0,115 15,208 43,277 29,69 76,123 142,158 67,36 159,59 275,69 116,11 265,17 445,17l2712 0 0 -1695 461 0 0 2161zm-2899 -2780c0,-83 30,-153 88,-210 59,-58 129,-87 211,-87 82,0 152,29 210,87 57,57 87,127 87,210 0,82 -30,152 -87,210 -58,59 -128,88 -210,88 -82,0 -152,-29 -211,-88 -58,-58 -88,-128 -88,-210zm730 0c0,-83 30,-153 88,-210 59,-58 129,-87 211,-87 82,0 152,29 210,87 57,57 86,127 86,210 0,82 -29,152 -86,210 -58,59 -128,88 -210,88 -82,0 -152,-29 -211,-88 -58,-58 -88,-128 -88,-210zm5189 2780c-154,0 -283,-32 -387,-96 -104,-64 -210,-178 -315,-343 -42,101 -96,182 -161,242 -65,60 -138,105 -218,133 -81,28 -165,46 -255,53 -90,8 -179,11 -269,11l-855 0 0 -466 1006 0c157,0 278,-19 362,-59 85,-39 126,-96 126,-171 0,-71 -19,-142 -56,-214 -38,-72 -83,-149 -139,-231l-597 -879 433 -272 674 1119c75,124 141,231 197,321 55,89 109,162 160,218 51,55 100,97 147,126 46,28 95,42 147,42 149,0 224,75 224,225 0,93 -17,157 -53,191 -36,34 -93,50 -171,50zm-1820 -3106c0,-83 30,-153 88,-210 59,-58 129,-87 212,-87 82,0 151,29 209,87 57,57 86,127 86,210 0,82 -29,152 -86,210 -58,59 -127,88 -209,88 -83,0 -153,-29 -212,-88 -58,-58 -88,-128 -88,-210zm1820 3106c-150,0 -225,-75 -225,-224 0,-94 18,-158 53,-191 36,-34 93,-51 172,-51l831 0c150,0 225,75 225,225 0,93 -18,157 -54,191 -35,34 -93,50 -171,50l-831 0zm831 0c-150,0 -225,-75 -225,-224 0,-94 18,-158 54,-191 35,-34 92,-51 171,-51l831 0c150,0 225,75 225,225 0,93 -18,157 -54,191 -35,34 -92,50 -171,50l-831 0zm831 0c-150,0 -225,-75 -225,-224 0,-94 18,-158 54,-191 35,-34 92,-51 171,-51l831 0c150,0 225,75 225,225 0,93 -18,157 -54,191 -35,34 -92,50 -171,50l-831 0zm831 0c-149,0 -224,-75 -224,-224 0,-94 17,-158 53,-191 36,-34 93,-51 171,-51l875 0 0 -3542 461 0 0 4008 -1336 0zm-28622 -993l-455 0 0 -3005 455 0 0 3005zm-554 725c0,-94 30,-172 94,-236 63,-64 142,-97 236,-97 93,0 171,33 236,97 63,63 95,142 95,236 0,92 -31,171 -95,236 -65,64 -143,95 -236,95 -94,0 -173,-32 -236,-95 -64,-65 -94,-144 -94,-236zm4024 268c-154,0 -283,-32 -387,-96 -104,-64 -210,-178 -315,-343 -43,101 -96,182 -161,242 -65,59 -138,105 -219,133 -80,28 -164,46 -254,53 -90,8 -179,11 -269,11l-855 0 0 -466 1006 0c157,0 278,-19 362,-59 84,-39 126,-96 126,-171 0,-71 -19,-142 -57,-214 -37,-72 -82,-149 -138,-231l-597 -879 433 -272 674 1119c75,124 141,231 197,321 55,89 109,162 160,218 51,55 100,98 147,126 46,28 95,42 147,42 149,0 224,75 224,225 0,93 -18,157 -53,191 -36,34 -93,50 -171,50zm0 0c-150,0 -225,-75 -225,-224 0,-94 18,-158 53,-191 36,-34 93,-51 172,-51l831 0c149,0 224,75 224,225 0,93 -17,157 -53,191 -36,34 -93,50 -171,50l-831 0zm831 0c-150,0 -225,-75 -225,-224 0,-94 18,-158 53,-191 36,-34 93,-51 172,-51l831 0c150,0 225,75 225,225 0,93 -18,157 -54,191 -35,34 -93,50 -171,50l-831 0zm831 0c-150,0 -225,-75 -225,-224 0,-94 18,-158 54,-191 35,-34 92,-51 171,-51l831 0c150,0 225,75 225,225 0,93 -18,157 -54,191 -35,34 -92,50 -171,50l-831 0zm831 0c-149,0 -225,-75 -225,-224 0,-94 18,-158 54,-191 35,-34 92,-51 171,-51l831 0c150,0 225,75 225,225 0,93 -18,157 -53,191 -36,34 -93,50 -172,50l-831 0zm831 0c-149,0 -224,-75 -224,-224 0,-94 17,-158 53,-191 35,-34 93,-51 171,-51l831 0c150,0 225,75 225,225 0,93 -18,157 -53,191 -36,34 -93,50 -172,50l-831 0zm831 0c-149,0 -224,-75 -224,-224 0,-94 18,-158 53,-191 36,-34 93,-51 171,-51l633 0 524 0 0 -1695 461 0 0 2161 -1003 0 -615 0zm375 847c0,-82 29,-151 88,-209 58,-57 128,-86 211,-86 82,0 152,29 209,86 58,58 87,127 87,209 0,83 -29,153 -87,212 -57,58 -127,88 -209,88 -83,0 -153,-30 -211,-88 -59,-59 -88,-129 -88,-212zm729 0c0,-82 30,-152 88,-209 59,-58 129,-86 212,-86 81,0 152,28 209,86 58,57 87,127 87,209 0,83 -29,154 -87,212 -57,58 -128,88 -209,88 -83,0 -153,-30 -212,-88 -58,-58 -88,-129 -88,-212z"/>
  </g>
 </g>
</svg>
