<?xml version="1.0" encoding="UTF-8"?>
<!DOCTYPE svg PUBLIC "-//W3C//DTD SVG 1.1//EN" "http://www.w3.org/Graphics/SVG/1.1/DTD/svg11.dtd">
<!-- Creator: CorelDRAW X7 -->
<svg xmlns="http://www.w3.org/2000/svg" xml:space="preserve" width="27.1654in" height="16.8757in" version="1.1" style="shape-rendering:geometricPrecision; text-rendering:geometricPrecision; image-rendering:optimizeQuality; fill-rule:evenodd; clip-rule:evenodd"
viewBox="0 0 271654 168757"
 xmlns:xlink="http://www.w3.org/1999/xlink">
 <defs>
  <style type="text/css">
   <![CDATA[
    .fil0 {fill:#FBF8F1}
   ]]>
  </style>
 </defs>
 <g id="Layer_x0020_1">
  <metadata id="CorelCorpID_0Corel-Layer"/>
  <path class="fil0" d="M271654 132248l0 4898c-12042,-7928 -44784,-20984 -57326,-9526 -4421,4040 -1168,9510 -15735,11059 -17469,1857 -37586,-4844 -52221,6715 -7824,6180 -12825,24745 -23084,23281 -17339,-2474 -13746,-27937 -38601,-33322 -33308,-7216 -48417,15496 -84687,-16585l0 -31443 0 -4791 0 -82534 271654 0 0 132248zm-20447 9348c2600,6817 -3795,12456 -11126,14432 -14983,4037 -23528,-15413 -19627,-21252 3747,-5608 26026,-5572 30753,6820z"/>
 </g>
</svg>
