<?xml version="1.0" encoding="UTF-8"?>
<!DOCTYPE svg PUBLIC "-//W3C//DTD SVG 1.1//EN" "http://www.w3.org/Graphics/SVG/1.1/DTD/svg11.dtd">
<!-- Creator: CorelDRAW X7 -->
<svg xmlns="http://www.w3.org/2000/svg" xml:space="preserve" width="11.0764in" height="8.30366in" version="1.1" style="shape-rendering:geometricPrecision; text-rendering:geometricPrecision; image-rendering:optimizeQuality; fill-rule:evenodd; clip-rule:evenodd"
viewBox="0 0 110764 83037"
 xmlns:xlink="http://www.w3.org/1999/xlink">
 <defs>
  <style type="text/css">
   <![CDATA[
    .fil29 {fill:#8480BC}
    .fil27 {fill:#95A9D4}
    .fil28 {fill:#BBB8DA}
    .fil22 {fill:#C4CFE9}
    .fil2 {fill:#D2AE6D}
    .fil4 {fill:#E0C698}
    .fil23 {fill:#E1E7F4}
    .fil5 {fill:#EBDBBD}
    .fil0 {fill:#F3E0C2}
    .fil1 {fill:#F6EFE2}
    .fil3 {fill:white}
    .fil20 {fill:#2688C4;fill-rule:nonzero}
    .fil10 {fill:#657AA9;fill-rule:nonzero}
    .fil14 {fill:#6C87C3;fill-rule:nonzero}
    .fil13 {fill:#7C94CA;fill-rule:nonzero}
    .fil11 {fill:#8480BC;fill-rule:nonzero}
    .fil6 {fill:#899FCF;fill-rule:nonzero}
    .fil12 {fill:#9DAFD7;fill-rule:nonzero}
    .fil26 {fill:#9F9CCB;fill-rule:nonzero}
    .fil25 {fill:#A5A2CE;fill-rule:nonzero}
    .fil17 {fill:#BB9B61;fill-rule:nonzero}
    .fil16 {fill:#BBB8DA;fill-rule:nonzero}
    .fil8 {fill:#C4CFE9;fill-rule:nonzero}
    .fil18 {fill:#D2AE6D;fill-rule:nonzero}
    .fil21 {fill:#DCC08D;fill-rule:nonzero}
    .fil19 {fill:#E6D2AE;fill-rule:nonzero}
    .fil30 {fill:#EBDBBD;fill-rule:nonzero}
    .fil9 {fill:#F5E1CD;fill-rule:nonzero}
    .fil7 {fill:#FBF7F0;fill-rule:nonzero}
    .fil24 {fill:#FFCFD3;fill-rule:nonzero}
    .fil15 {fill:white;fill-rule:nonzero}
   ]]>
  </style>
 </defs>
 <g id="Layer_x0020_1">
  <metadata id="CorelCorpID_0Corel-Layer"/>
  <g id="_1529426132096">
   <g>
    <path class="fil0" d="M57940 82520c-10941,-1588 -19943,-7251 -26457,-14730 -21647,-24855 -4236,-60226 25954,-66900 10718,-2369 27260,-195 35236,8771 7718,8676 4327,16788 846,24870 -2765,6419 -5299,12097 -3244,19129 1499,5127 3645,10427 2953,15344 -1953,13886 -24727,15049 -35288,13516z"/>
    <path class="fil1" d="M95974 72483c725,-1173 965,-2357 1029,-3521 196,-3601 -834,-6330 2659,-8228 4865,-2642 10545,2437 10066,8927 -412,5580 -5581,9802 -9936,10072 -4085,253 -6603,-2740 -3818,-7250z"/>
    <path class="fil1" d="M39247 45610c8294,9524 6546,25495 -5199,31557 -4840,2498 -10496,2852 -14246,-1065 -2952,-3083 -3675,-7945 -6505,-10435 -2499,-2198 -4871,-3136 -6985,-4636 -5497,-3897 -8912,-12879 -3803,-18392 8008,-8642 29238,-5641 36738,2971z"/>
    <g>
     <g>
      <path class="fil2" d="M40877 22141c0,-7591 -6153,-13744 -13743,-13744 -7590,0 -13743,6153 -13743,13744 0,7590 6153,13743 13743,13743 7590,0 13743,-6153 13743,-13743z"/>
      <path class="fil3" d="M29725 26031l0 2591 -10371 0 0 -2591 10371 0zm-10371 -7781l0 -2594c5185,0 10375,0 15560,0l-2594 2594c-4322,0 -8644,0 -12966,0l0 0zm15560 2591c0,2595 0,5190 0,7781l-2594 0 0 -5186 -12966 0 0 -2595c5185,0 10371,0 15560,0l0 0z"/>
     </g>
     <path class="fil4" d="M81408 57790c0,-574 -3364,-1040 -7521,-1040 -4153,0 -7521,466 -7521,1040 0,575 3368,1040 7521,1040 4157,0 7521,-465 7521,-1040z"/>
     <path class="fil4" d="M32320 57512l-8543 -165 7104 3139 8656 -691c901,398 3601,691 6796,691 3928,0 7112,-439 7112,-983 0,-260 -721,-492 -1896,-669l16544 -1322 -35773 0 0 0z"/>
     <path class="fil5" d="M32646 71560c0,-271 -1584,-492 -3544,-492 -1957,0 -3541,221 -3541,492 0,270 1584,488 3541,488 1960,0 3544,-218 3544,-488z"/>
     <polygon class="fil4" points="81251,65987 57136,64080 54496,64159 61075,66971 "/>
     <polygon class="fil4" points="71950,70929 47835,69021 45195,69100 51770,71913 "/>
     <polygon class="fil5" points="36003,46116 9572,46446 32320,57512 68093,57512 "/>
     <polygon class="fil6" points="32320,57512 34351,57512 34351,20841 32320,20841 "/>
     <polygon class="fil7" points="33213,57512 68093,57512 68093,20841 33213,20841 "/>
     <polygon class="fil8" points="33213,23699 68093,23699 68093,20841 33213,20841 "/>
     <path class="fil9" d="M30296 61290c90,330 -53,864 -383,954 -331,90 -725,-293 -815,-627 -90,-331 105,-673 435,-763 331,-90 673,105 763,436l0 0z"/>
     <path class="fil10" d="M29853 61098c67,-18 165,-63 199,-127 3,-8 7,-12 7,-19 -146,-105 -338,-150 -526,-98 -330,90 -525,432 -435,763 64,236 285,499 526,597 -4,-64 -23,-132 -38,-196 -71,-262 -146,-522 -229,-781 169,-33 334,-79 496,-139l0 0z"/>
     <path class="fil9" d="M29466 61605c-45,-33 -105,-49 -158,-26 -11,4 -22,11 -30,23 -26,22 -34,60 -30,93 8,98 86,181 180,207 27,7 53,15 83,7 26,-3 52,-15 67,-37 57,-83 -45,-222 -112,-267z"/>
     <polygon class="fil11" points="28467,65916 28801,71214 29169,71214 29481,65957 29807,65972 30007,71346 30288,71338 30724,66010 30788,65353 28474,65383 "/>
     <polygon class="fil11" points="28801,71214 27994,71304 28024,71428 29207,71428 29169,71214 "/>
     <polygon class="fil11" points="30007,71346 30007,71496 31114,71537 31114,71398 30288,71338 "/>
     <path class="fil10" d="M29702 61741c203,18 365,-185 564,-211 11,0 26,0 37,4 15,7 23,23 30,38 26,48 53,101 79,150 26,49 53,101 64,157 11,68 4,136 -8,203 -7,53 -18,109 -45,158 -41,86 -124,150 -214,184 -90,30 -191,37 -285,30 -68,-8 -135,-19 -192,-49 -131,-67 -210,-221 -187,-364 3,-38 15,-71 11,-109 -4,-34 -19,-68 -38,-98 -18,-33 -154,-210 -48,-210 30,0 78,53 105,71 41,23 82,38 127,46l0 0z"/>
     <path class="fil12" d="M75479 54730l-2861 0c-68,0 -128,-38 -154,-98 -26,-60 -15,-131 30,-180l2756 -2970 241 221 -2498 2697 2486 0 0 330z"/>
     <polygon class="fil13" points="76069,57280 71953,57280 71953,54328 76069,54328 "/>
     <path class="fil12" d="M75479 42523l-2861 0c-68,0 -128,-38 -154,-98 -26,-60 -15,-132 30,-180l2756 -2974 241 225 -2498 2696 2486 0 0 331z"/>
     <path class="fil12" d="M75479 45575l-2861 0c-68,0 -128,-37 -154,-101 -26,-60 -15,-128 30,-177l2756 -2973 241 225 -2498 2696 2486 0 0 330z"/>
     <path class="fil12" d="M75479 48628l-2861 0c-68,0 -128,-41 -154,-101 -26,-60 -15,-128 30,-177l2756 -2974 241 226 -2498 2696 2486 0 0 330z"/>
     <path class="fil12" d="M75479 51681l-2861 0c-68,0 -128,-41 -154,-101 -26,-61 -15,-132 30,-177l2756 -2974 241 225 -2498 2696 2486 0 0 331z"/>
     <path class="fil12" d="M75479 39545l-2861 0c-68,0 -128,-41 -154,-102 -26,-60 -15,-127 30,-176l2756 -2974 241 225 -2498 2696 2486 0 0 331z"/>
     <path class="fil12" d="M75479 36563l-2861 0c-68,0 -128,-37 -154,-97 -26,-60 -15,-132 30,-177l2756 -2974 241 226 -2498 2692 2486 0 0 330z"/>
     <path class="fil12" d="M75479 33586l-2861 0c-68,0 -128,-38 -154,-98 -26,-60 -15,-131 30,-180l2756 -2974 241 225 -2498 2696 2486 0 0 331z"/>
     <path class="fil12" d="M75479 30608l-2861 0c-68,0 -128,-38 -154,-101 -26,-60 -15,-128 30,-177l2756 -2974 241 225 -2498 2697 2486 0 0 330z"/>
     <path class="fil12" d="M75479 27630l-2861 0c-68,0 -128,-41 -154,-101 -26,-60 -15,-132 30,-177l2756 -2973 241 225 -2498 2696 2486 0 0 330z"/>
     <path class="fil12" d="M75479 24649l-2861 0c-68,0 -128,-38 -154,-98 -26,-60 -15,-131 30,-180l2756 -2970 241 221 -2498 2696 2486 0 0 331z"/>
     <polygon class="fil14" points="77473,58049 70549,58049 70549,56754 77473,56754 "/>
     <path class="fil7" d="M37385 23076l8648 0c296,0 540,-245 540,-541l0 -383c0,-297 -244,-537 -540,-537l-8648 0c-297,0 -541,240 -541,537l0 383c0,296 244,541 541,541z"/>
     <polygon class="fil13" points="81243,65492 81251,65987 61432,66250 57136,64080 57132,63584 "/>
     <polygon class="fil13" points="61432,66250 81251,65987 76959,63813 57136,64080 "/>
     <polygon class="fil15" points="61424,65755 81243,65492 76951,63318 57132,63584 "/>
     <polygon class="fil11" points="66028,63847 76917,63701 76594,63535 65705,63682 "/>
     <polygon class="fil11" points="66839,64256 77728,64114 77406,63948 66516,64091 "/>
     <polygon class="fil11" points="67620,64651 78510,64508 78183,64343 67293,64485 "/>
     <polygon class="fil11" points="68367,65030 79257,64883 78930,64718 68041,64865 "/>
     <polygon class="fil16" points="61439,65443 68484,65349 65206,63689 58161,63783 "/>
     <polygon class="fil13" points="72010,70332 72013,70828 52195,71090 47903,68920 47895,68424 "/>
     <polygon class="fil13" points="52195,71090 72013,70828 67721,68657 47903,68920 "/>
     <polygon class="fil15" points="52191,70595 72010,70332 67714,68161 47895,68424 "/>
     <polygon class="fil17" points="56791,68687 67684,68541 67357,68379 56468,68522 "/>
     <polygon class="fil17" points="57606,69096 68495,68954 68168,68789 57279,68935 "/>
     <polygon class="fil17" points="58383,69491 69272,69348 68949,69183 58060,69326 "/>
     <polygon class="fil17" points="59130,69870 70020,69724 69697,69562 58807,69705 "/>
     <polygon class="fil18" points="52202,70283 59246,70189 55968,68529 48924,68623 "/>
     <polygon class="fil19" points="34351,27120 46739,27120 46739,25798 34351,25798 "/>
     <polygon class="fil19" points="34351,33830 46739,33830 46739,28276 34351,28276 "/>
     <path class="fil13" d="M72727 20939l2568 0 0 34797 -2568 0 0 -34797zm2899 -330l-3230 0 0 35458 3230 0 0 -35458z"/>
     <path class="fil20" d="M75479 21671l-2861 0c-68,0 -128,-37 -154,-97 -26,-61 -15,-132 30,-181l2756 -2974 241 226 -2498 2696 2486 0 0 330z"/>
     <polygon class="fil21" points="75626,21731 70388,21731 70388,17315 75626,17315 "/>
     <polygon class="fil21" points="83496,19850 78254,19850 78254,17312 83496,17312 "/>
     <path class="fil13" d="M62397 16189c-38,0 -68,-26 -79,-60 -15,-45 11,-90 53,-102l12230 -3728c18,-8 37,-8 56,0l5794 2448c45,19 64,64 45,109 -19,41 -64,60 -109,41l-5768 -2433 -12200 3721c-7,0 -15,4 -22,4l0 0z"/>
     <path class="fil13" d="M72701 17605c-19,0 -38,-4 -61,-12 -82,-34 -127,-127 -93,-214l1926 -5065c26,-68 94,-113 165,-105 75,3 135,60 150,131l995 4942c19,90 -41,176 -127,195 -90,15 -177,-41 -196,-132l-882 -4378 -1723 4529c-27,67 -87,108 -154,108l0 1z"/>
     <path class="fil21" d="M74957 12370c0,184 -146,334 -330,334 -184,0 -334,-150 -334,-334 0,-184 150,-330 334,-330 184,0 330,146 330,330z"/>
     <path class="fil12" d="M83410 17635l-25880 0c-90,0 -165,-72 -165,-166 0,-90 75,-165 165,-165l25880 0c90,0 165,75 165,165 0,94 -75,166 -165,166z"/>
     <path class="fil12" d="M73020 17593c-19,0 -42,-7 -57,-26l-1381 -1378 -12651 0 -1295 1295c-34,34 -87,34 -117,0 -34,-30 -34,-82 0,-116l1344 -1344 12790 0 1427 1427c34,33 34,86 0,116 -15,19 -38,26 -60,26l0 0z"/>
     <path class="fil12" d="M83519 17593c-30,0 -60,-15 -75,-45l-1379 -2636 -3349 0 -1299 2554c-19,41 -72,56 -109,33 -41,-18 -60,-67 -38,-109l1345 -2643 3548 0 1427 2726c23,38 8,90 -34,109 -11,7 -26,11 -37,11l0 0z"/>
     <path class="fil12" d="M68499 17608c-19,0 -38,-7 -53,-19l-1622 -1310 0 1224c0,49 -38,83 -83,83 -45,0 -82,-34 -82,-83l0 -1397c0,-34 19,-60 45,-75 30,-15 64,-11 90,11l1754 1420c37,30 41,79 15,116 -19,19 -42,30 -64,30l0 0z"/>
     <path class="fil12" d="M70065 17608c-19,0 -34,-7 -53,-19l-1622 -1310 0 1224c0,49 -34,83 -83,83 -45,0 -82,-34 -82,-83l0 -1397c0,-34 18,-60 48,-75 30,-15 64,-11 87,11l1757 1420c38,30 41,79 11,116 -15,19 -37,30 -63,30z"/>
     <path class="fil12" d="M71634 17608c-19,0 -37,-7 -52,-19l-1623 -1310 0 1224c0,49 -37,83 -82,83 -45,0 -83,-34 -83,-83l0 -1397c0,-34 19,-60 49,-75 26,-15 60,-11 86,11l1758 1420c34,30 41,79 11,116 -15,19 -41,30 -64,30z"/>
     <path class="fil12" d="M80905 17608c-22,0 -45,-11 -64,-30l-2106 -2486 0 2411c0,49 -34,83 -83,83 -45,0 -82,-34 -82,-83l0 -2636c0,-34 22,-64 56,-75 34,-15 68,-4 90,23l2253 2658c30,34 26,86 -11,117 -15,11 -34,18 -53,18l0 0z"/>
     <path class="fil12" d="M82527 17608c-26,0 -52,-11 -71,-37l-1603 -2430 0 2362c0,49 -38,83 -83,83 -45,0 -83,-34 -83,-83l0 -2636c0,-37 23,-67 60,-79 34,-11 72,4 91,34l1757 2659c26,37 15,90 -23,112 -15,12 -30,15 -45,15l0 0z"/>
     <path class="fil22" d="M44812 46127l-4956 0 0 496 349 0 -1810 10889 169 0 207 -1246 3251 0 211 1246 165 0 -207 -1246 440 0 -211 1246 169 0 207 -1246 3256 0 206 1246 169 0 -1810 -10889 195 0 0 -496 0 0zm-4224 496l3646 0 -405 2429 -2835 0 -406 -2429 0 0zm432 2595l2782 0 -266 1599 -2250 0 -266 -1599 0 0zm293 1764l2196 0 -266 1596 -1664 0 -266 -1596 0 0zm293 1762l1610 0 -266 1595 -1078 0 -266 -1595 0 0zm293 1761l1025 0 -267 1596 -492 0 -266 -1596zm2095 -5453l405 -2429 49 0 406 2429 -860 0zm-3571 -2429l402 2429 -857 0 406 -2429 49 0zm428 2595l266 1599 -1441 0 266 -1599 909 0 0 0zm-1202 1764l1495 0 266 1596 -2027 0 266 -1596zm-293 1762l2081 0 266 1595 -2613 0 266 -1595zm-292 1761l2666 0 266 1596 -3199 0 267 -1596 0 0zm4637 -3688l266 -1599 913 0 267 1599 -1446 0zm-26 165l1498 0 266 1596 -2031 0 267 -1596 0 0zm-293 1762l2084 0 266 1595 -2613 0 263 -1595zm-293 1761l2670 0 266 1596 -3199 0 263 -1596 0 0z"/>
     <path class="fil23" d="M61439 40532l-8073 0 0 6234 2129 0c0,48 12,97 34,139l-34 3 909 3793 -45 3214 225 3597 575 0 210 -3556 327 15 131 3541 499 0 286 -3499 338 -3459 432 -3694 -27 -4 57 -90 2027 0 0 -6234 0 0zm-4017 8321c-913,252 -267,1566 383,1390 672,-184 491,-1630 -383,-1390zm-1352 -2087l2801 0c26,71 79,131 150,161l-743 3387 -1202 98 -1186 -3380c105,-45 180,-146 180,-266l0 0z"/>
     <path class="fil4" d="M63001 61151c0,-270 -1588,-488 -3544,-488 -1957,0 -3541,218 -3541,488 0,270 1584,492 3541,492 1956,0 3544,-222 3544,-492z"/>
     <polygon class="fil18" points="55844,48414 63918,48414 63918,42185 55844,42185 "/>
     <polygon class="fil21" points="61090,55661 61428,52207 61860,48512 61522,48463 60756,51966 59554,52064 58308,48512 57970,48561 58882,52353 58837,55567 "/>
     <path class="fil24" d="M61331 48320c0,158 131,289 289,289 157,0 289,-131 289,-289 0,-158 -132,-289 -289,-289 -158,0 -289,131 -289,289z"/>
     <path class="fil24" d="M57970 48418c0,158 131,285 289,285 158,0 289,-127 289,-285 0,-162 -131,-289 -289,-289 -158,0 -289,127 -289,289z"/>
     <path class="fil11" d="M59599 51546c0,-4 -3,-8 -7,-12 -19,-26 -34,-56 -49,-82 -4,-4 -4,-8 -7,-11 -12,-23 -23,-45 -34,-68 -4,-8 -8,-15 -8,-23 -11,-26 -22,-52 -30,-78 -22,-83 -26,-169 -15,-248 8,-53 23,-102 42,-150 41,-98 101,-184 184,-252 22,-15 41,-30 63,-41 15,-12 30,-23 45,-30 38,-19 76,-34 117,-45 0,0 0,0 0,0 45,-12 90,-19 135,-19 11,0 19,0 30,0 38,0 71,4 109,7 4,4 11,4 19,8 37,7 75,19 112,34 4,0 4,3 8,3 165,72 300,214 349,402 94,331 -49,864 -383,954 -154,41 -319,-19 -462,-128 -4,0 -4,0 -4,0 -52,-41 -105,-90 -150,-142 -3,-4 -3,-8 -3,-8 -23,-22 -42,-49 -61,-71z"/>
     <polygon class="fil10" points="58837,55567 59168,60866 59536,60866 59847,55609 60174,55624 60373,60997 60658,60989 61090,55661 61154,55008 58845,55038 "/>
     <polygon class="fil10" points="59168,60866 58360,60956 58390,61080 59573,61080 59536,60866 "/>
     <polygon class="fil10" points="60373,60997 60373,61147 61481,61189 61481,61050 60658,60989 "/>
     <path class="fil22" d="M54053 29403l-6890 638 481 5178 -237 -255 -830 751 -2298 1138 -375 41 -1724 1851 30 23 -1521 2482 -2215 -102 -342 950 196 83 236 -623 2460 563 1498 -1172 206 2069 -116 3109 1205 0 64 -232 -826 -109 439 -2753 365 -3128 41 -30 7 4 15 -22 19 -16 -7 -7 1291 -2302 1127 -488c304,-131 897,-620 1363,-1048l105 1172 13833 -1277 -660 -7130 -5952 552 11 -113c0,-259 -191,-473 -439,-511l0 -7844 -162 0 0 7844c-247,38 -439,252 -439,511 0,71 15,143 41,203l0 0zm-8794 6090c-293,-758 -1445,-499 -1333,372 154,1205 1378,879 1378,-135 192,-45 443,-278 -45,-237l0 0zm2392 -173l8 87 -346 259 338 -346z"/>
     <polygon class="fil25" points="65727,35887 51898,37164 51240,30037 65070,28761 "/>
     <polygon class="fil13" points="58897,28978 58732,28978 58732,18243 58897,18243 "/>
     <path class="fil13" d="M59337 29200c0,285 -233,518 -522,518 -286,0 -519,-233 -519,-518 0,-289 233,-522 519,-522 289,0 522,233 522,522z"/>
     <path class="fil21" d="M59419 18243c0,334 -270,604 -604,604 -335,0 -605,-270 -605,-604 0,-334 270,-608 605,-608 334,0 604,274 604,608z"/>
     <path class="fil12" d="M60655 17608c-19,0 -38,-7 -53,-19l-1622 -1310 0 1224c0,49 -38,83 -83,83 -45,0 -82,-34 -82,-83l0 -1397c0,-34 18,-60 48,-75 27,-15 64,-11 87,11l1757 1420c34,30 41,79 11,116 -15,19 -41,30 -63,30z"/>
     <path class="fil12" d="M62224 17608c-19,0 -37,-7 -52,-19l-1623 -1310 0 1224c0,49 -37,83 -82,83 -45,0 -83,-34 -83,-83l0 -1397c0,-34 19,-60 49,-75 26,-15 60,-11 86,11l1758 1420c34,30 41,79 11,116 -15,19 -41,30 -64,30z"/>
     <path class="fil12" d="M63790 17608c-15,0 -34,-7 -49,-19l-1622 -1310 0 1224c0,49 -38,83 -83,83 -45,0 -82,-34 -82,-83l0 -1397c0,-34 19,-60 45,-75 30,-15 64,-11 90,11l1754 1420c37,30 41,79 15,116 -19,19 -42,30 -68,30l0 0z"/>
     <path class="fil12" d="M65360 17608c-19,0 -38,-7 -53,-19l-1622 -1310 0 1224c0,49 -34,83 -83,83 -45,0 -82,-34 -82,-83l0 -1397c0,-34 18,-60 48,-75 31,-15 64,-11 87,11l1757 1420c34,30 41,79 11,116 -15,19 -37,30 -63,30z"/>
     <path class="fil12" d="M66929 17608c-19,0 -37,-7 -52,-19l-1623 -1310 0 1224c0,49 -37,83 -82,83 -45,0 -83,-34 -83,-83l0 -1397c0,-34 19,-60 49,-75 26,-15 60,-11 86,11l1758 1420c34,30 41,79 11,116 -15,19 -41,30 -64,30z"/>
     <polygon class="fil17" points="51694,34958 50862,35711 48132,37063 49333,37371 51139,36132 51745,35512 "/>
     <path class="fil9" d="M48199 35685c-26,383 244,935 627,965 383,30 733,-477 763,-860 26,-383 -259,-717 -642,-744 -383,-30 -718,256 -748,639z"/>
     <polygon class="fil10" points="46660,39477 47009,43014 46893,46124 48098,46124 48166,45894 47339,45782 47779,43029 48177,39609 "/>
     <path class="fil21" d="M52274 35129c-350,327 -1600,1232 -2062,1367l-965 281 -1063 113 -1723 1855 1731 1134 1318 -2351 1123 -484c461,-203 1599,-1220 1911,-1615l-270 -300z"/>
     <path class="fil11" d="M48744 36635c-338,-94 -571,-594 -545,-950 30,-383 365,-669 748,-639 22,0 45,8 67,12 15,56 19,116 11,165 -41,191 -180,368 -360,450 0,0 4,849 79,962z"/>
     <path class="fil9" d="M48571 35752c-56,0 -113,23 -158,57 -150,109 -60,345 94,401 49,19 105,23 158,19 45,0 94,-7 128,-37 33,-30 52,-75 52,-117 4,-45 -7,-90 -22,-131 -38,-94 -147,-192 -252,-192z"/>
     <polygon class="fil6" points="42758,41144 44970,41246 46513,38730 48226,39838 45308,42117 42849,41554 42608,42177 42417,42094 "/>
     <polygon class="fil11" points="42191,59540 44384,46345 44223,46319 42030,59514 "/>
     <polygon class="fil11" points="46220,59540 48413,46345 48252,46319 46055,59514 "/>
     <polygon class="fil11" points="43802,49218 47865,49218 47865,49052 43802,49052 "/>
     <polygon class="fil11" points="43513,50982 47576,50982 47576,50817 43513,50817 "/>
     <polygon class="fil11" points="43228,52744 47291,52744 47291,52578 43228,52578 "/>
     <polygon class="fil11" points="42939,54505 47002,54505 47002,54339 42939,54339 "/>
     <polygon class="fil11" points="42650,56266 46712,56266 46712,56101 42650,56101 "/>
     <polygon class="fil11" points="42364,58027 46427,58027 46427,57862 42364,57862 "/>
     <polygon class="fil26" points="50561,59540 50726,59514 48534,46319 48368,46345 "/>
     <polygon class="fil26" points="46536,59540 46697,59514 44504,46319 44343,46345 "/>
     <polygon class="fil26" points="44891,49218 48954,49218 48954,49052 44891,49052 "/>
     <polygon class="fil26" points="45180,50982 49243,50982 49243,50817 45180,50817 "/>
     <polygon class="fil26" points="45466,52744 49529,52744 49529,52578 45466,52578 "/>
     <polygon class="fil26" points="45755,54505 49818,54505 49818,54339 45755,54339 "/>
     <polygon class="fil26" points="46040,56266 50103,56266 50103,56101 46040,56101 "/>
     <polygon class="fil26" points="46329,58027 50392,58027 50392,57862 46329,57862 "/>
     <polygon class="fil26" points="43825,46623 48781,46623 48781,46127 43825,46127 "/>
     <path class="fil9" d="M52274 34821c3,0 116,-60 116,-60l113 180 563 -315 188 210 -796 601 -173 -218 90 -124 -38 -135 -63 -139 0 0z"/>
     <path class="fil9" d="M49487 35493c75,-7 151,-15 226,-15 52,0 127,19 120,72 0,26 -23,45 -45,63 -68,57 -143,113 -233,124 -71,8 -150,-18 -203,-71 -49,-49 -79,-124 -56,-184 64,19 127,22 191,11l0 0z"/>
     <rect class="fil27" x="54448" y="20841" width="165" height="2856"/>
     <polygon class="fil28" points="30724,66010 31062,62555 31494,58860 31156,58812 30390,62315 29188,62409 27941,58860 27603,58909 28516,62698 28467,65916 "/>
     <polygon class="fil29" points="28369,60085 27941,58860 27603,58909 27889,60085 "/>
     <polygon class="fil29" points="31156,58812 30878,60085 31347,60085 31494,58860 "/>
     <path class="fil9" d="M30964 58669c0,158 128,285 289,285 158,0 286,-127 286,-285 0,-162 -128,-289 -286,-289 -161,0 -289,127 -289,289z"/>
     <path class="fil9" d="M27603 58763c0,161 132,289 289,289 158,0 290,-128 290,-289 0,-158 -132,-286 -290,-286 -157,0 -289,128 -289,286z"/>
     <polygon class="fil15" points="36510,58688 22636,58688 22636,50431 36510,50431 "/>
     <polygon class="fil8" points="29567,57606 23375,57606 23375,51474 29567,51474 "/>
     <polygon class="fil8" points="35725,52053 30318,52053 30318,51531 35725,51531 "/>
     <polygon class="fil8" points="35725,53326 30318,53326 30318,52804 35725,52804 "/>
     <polygon class="fil8" points="35725,54599 30318,54599 30318,54077 35725,54077 "/>
     <polygon class="fil8" points="35725,55871 30318,55871 30318,55350 35725,55350 "/>
     <polygon class="fil8" points="35725,57144 30318,57144 30318,56622 35725,56622 "/>
    </g>
   </g>
   <path class="fil30" d="M105747 58426c1382,45 2490,1179 2498,2583l22 0c11,-1404 1119,-2538 2497,-2583 -1385,-45 -2497,-1191 -2497,-2603l-19 0c0,1412 -1111,2558 -2501,2603z"/>
  </g>
 </g>
</svg>
