<?xml version="1.0" encoding="UTF-8"?>
<!DOCTYPE svg PUBLIC "-//W3C//DTD SVG 1.1//EN" "http://www.w3.org/Graphics/SVG/1.1/DTD/svg11.dtd">
<!-- Creator: CorelDRAW X7 -->
<svg xmlns="http://www.w3.org/2000/svg" xml:space="preserve" width="6.3028in" height="0.529173in" version="1.1" style="shape-rendering:geometricPrecision; text-rendering:geometricPrecision; image-rendering:optimizeQuality; fill-rule:evenodd; clip-rule:evenodd"
viewBox="0 0 63028 5292"
 xmlns:xlink="http://www.w3.org/1999/xlink">
 <defs>
  <style type="text/css">
   <![CDATA[
    .fil1 {fill:white}
    .fil0 {fill:#A38755;fill-rule:nonzero}
    .fil2 {fill:#E6D2AE;fill-rule:nonzero}
   ]]>
  </style>
 </defs>
 <g id="Layer_x0020_1">
  <metadata id="CorelCorpID_0Corel-Layer"/>
  <g id="_1502928613392">
   <path class="fil0" d="M61904 5292l-60780 0c-309,0 -590,-127 -794,-330 -204,-204 -330,-485 -330,-794l0 -3044c0,-309 126,-590 330,-794 204,-204 485,-330 794,-330l60780 0c309,0 590,126 794,330 204,204 330,485 330,794l0 3044c0,309 -126,590 -330,794 -204,203 -485,330 -794,330zm-60780 -307l60780 0c225,0 429,-92 577,-240 149,-148 241,-353 241,-577l0 -3044c0,-225 -92,-429 -241,-577 -148,-149 -352,-241 -577,-241l-60780 0c-225,0 -429,92 -577,241 -149,148 -241,352 -241,577l0 3044c0,224 92,429 241,577 148,148 352,240 577,240z"/>
   <path class="fil1" d="M62722 4168l0 -3044c0,-225 -92,-429 -241,-577 -148,-149 -352,-241 -577,-241l-60780 0c-225,0 -429,92 -577,241 -149,148 -241,352 -241,577l0 3044c0,224 92,429 241,577 148,148 352,240 577,240l60780 0c225,0 429,-92 577,-240 149,-148 241,-353 241,-577z"/>
   <path class="fil2" d="M47666 3545c-6,138 -27,253 -65,344 -38,92 -90,165 -156,221 -66,56 -146,96 -241,119 -94,24 -201,35 -320,35 -514,0 -771,-244 -771,-733l0 -446 368 0 0 432c0,132 33,233 97,303 65,69 170,104 317,104 142,0 246,-29 311,-88 65,-58 97,-159 97,-300l0 -2014 366 0 0 1696 224 0c15,0 29,2 42,5 13,3 26,10 36,20 11,10 19,25 24,46 6,21 9,49 9,86 0,64 -9,109 -27,133 -18,24 -46,37 -84,37l-227 0zm1241 0c-26,0 -55,-2 -85,-6 -30,-4 -59,-11 -87,-21 -28,-11 -55,-26 -81,-45 -26,-18 -47,-43 -63,-72 -24,32 -51,58 -83,77 -32,20 -66,34 -102,44 -35,10 -73,16 -112,19 -38,2 -77,4 -115,4l-286 0c-15,0 -29,-2 -42,-4 -14,-3 -26,-10 -36,-20 -11,-11 -19,-27 -25,-48 -5,-20 -8,-49 -8,-85 0,-64 9,-109 27,-133 18,-25 46,-37 84,-37l227 0c64,0 109,-10 135,-29 25,-20 38,-65 38,-134l0 -638 368 0 0 606c0,70 18,120 55,150 37,30 101,45 191,45 15,0 29,2 43,5 13,3 25,10 36,20 10,10 18,25 24,46 5,21 8,49 8,86 0,64 -9,109 -27,133 -18,24 -46,37 -84,37zm-941 476c0,-54 20,-102 60,-141 39,-40 87,-60 142,-60 55,0 102,20 142,60 39,39 59,87 59,141 0,54 -20,101 -59,141 -40,40 -87,60 -142,60 -54,0 -101,-20 -141,-60 -41,-40 -61,-87 -61,-141zm463 0c0,-54 19,-102 59,-141 40,-40 87,-60 141,-60 55,0 102,20 142,60 40,39 60,87 60,141 0,54 -20,101 -59,141 -40,40 -87,60 -143,60 -54,0 -101,-20 -141,-60 -40,-40 -59,-87 -59,-141zm625 -803c23,0 51,-19 84,-56 34,-37 63,-92 89,-164 41,-108 87,-197 136,-269 50,-70 100,-127 152,-170 52,-42 105,-72 157,-89 53,-17 105,-25 157,-25 73,0 142,14 207,43 64,28 119,68 165,119 46,50 83,112 108,183 27,73 40,151 40,236 0,13 0,25 -1,36 -1,12 -2,23 -2,34 25,45 63,77 115,95 51,18 99,27 144,27 15,0 29,2 42,5 13,3 25,10 36,20 10,10 18,25 24,46 6,21 9,49 9,86 0,64 -9,109 -27,133 -18,24 -46,37 -84,37 -72,0 -136,-14 -193,-41 -57,-27 -106,-71 -147,-132 -82,138 -221,207 -420,207 -75,0 -151,-11 -228,-34 -76,-23 -157,-62 -242,-116 -49,54 -99,87 -151,98 -50,12 -106,18 -166,18l-151 0c-15,0 -29,-2 -42,-4 -14,-3 -25,-10 -36,-20 -11,-11 -19,-27 -24,-48 -6,-20 -8,-49 -8,-85 0,-64 9,-109 26,-133 18,-25 46,-37 84,-37l147 0zm935 -200c0,-29 -3,-58 -9,-85 -7,-29 -17,-54 -31,-76 -15,-21 -34,-39 -58,-53 -23,-15 -52,-22 -86,-22 -25,0 -51,7 -76,19 -27,13 -52,33 -77,61 -24,28 -47,64 -69,110 -22,45 -40,102 -55,170 47,29 92,52 135,70 42,18 88,27 137,27 61,0 108,-20 140,-61 33,-40 49,-94 49,-160zm615 527c-15,0 -29,-2 -42,-4 -14,-3 -26,-10 -37,-22 -10,-12 -18,-28 -24,-48 -5,-21 -8,-50 -8,-85 0,-65 9,-110 27,-134 18,-24 46,-36 84,-36l448 0 0 -799 371 0 0 1128 -819 0zm31 476c0,-54 20,-102 60,-141 40,-40 87,-60 141,-60 55,0 102,20 141,60 40,39 60,87 60,141 0,54 -20,101 -60,141 -39,40 -86,60 -141,60 -54,0 -101,-20 -141,-60 -40,-40 -60,-87 -60,-141zm461 0c0,-54 20,-102 60,-141 40,-40 87,-60 143,-60 54,0 101,20 141,60 40,39 59,87 59,141 0,54 -19,101 -59,141 -40,40 -87,60 -141,60 -55,0 -102,-20 -143,-60 -40,-40 -60,-87 -60,-141zm1029 -2499l0 2023 -366 0 0 -2023 366 0zm2840 2023c-79,0 -149,-12 -209,-34 -61,-23 -102,-45 -125,-66 -2,148 -21,270 -57,368 -36,97 -88,175 -155,235 -66,59 -147,101 -243,126 -95,24 -203,36 -324,36 -514,0 -771,-244 -771,-733l0 -389 365 0 0 375c0,132 35,233 104,303 69,70 171,105 307,105 142,0 247,-29 314,-88 67,-58 100,-158 100,-301l0 -941 365 0 0 482c0,61 16,108 49,143 32,35 83,52 153,52 55,0 102,-8 142,-25 39,-16 59,-53 59,-111l0 -541 365 0 0 482c0,66 12,116 36,148 24,31 68,47 131,47l179 0 0 -801 366 0 0 1128 -434 0c-54,0 -101,-4 -139,-11 -39,-8 -72,-18 -100,-31 -28,-14 -51,-30 -68,-48 -18,-17 -34,-37 -47,-57 -47,55 -102,92 -165,114 -63,22 -129,33 -198,33zm1686 -1004l368 0 0 845c0,135 -10,250 -31,345 -21,96 -57,172 -109,231 -52,58 -123,101 -215,129 -92,27 -209,41 -350,43l0 -345c75,-2 136,-11 181,-28 46,-16 80,-40 103,-72 23,-31 37,-72 43,-123 7,-50 10,-111 10,-180l0 -845zm1680 647c0,49 -8,95 -24,138 -15,44 -39,81 -71,113 -33,33 -75,59 -126,77 -51,19 -111,29 -181,29l-686 0 0 -327 555 0c44,0 78,-4 103,-12 25,-8 37,-24 37,-47 0,-11 -1,-22 -4,-34 -3,-11 -10,-26 -22,-46 -11,-20 -28,-46 -50,-78 -21,-32 -50,-75 -86,-127l-224 -335c56,-38 111,-75 165,-109 54,-36 111,-71 170,-107l246 400c67,108 116,198 149,270 32,71 49,137 49,195zm649 -1666l0 2023 -366 0 0 -2023 366 0zm-683 -363c55,-53 103,-87 147,-105 43,-18 84,-26 122,-26 38,0 81,9 132,27 50,17 96,37 137,59 42,20 82,37 119,48 38,11 71,16 97,16 37,0 66,-13 88,-40 23,-28 39,-57 48,-87l147 65c-32,85 -70,150 -111,194 -41,44 -98,66 -172,66 -52,0 -101,-6 -147,-21 -45,-13 -90,-31 -133,-52 -42,-18 -82,-35 -119,-49 -38,-14 -74,-22 -106,-22 -27,0 -51,4 -74,13 -22,8 -51,25 -85,49l-90 -135z"/>
  </g>
 </g>
</svg>
