<?xml version="1.0" encoding="UTF-8"?>
<!DOCTYPE svg PUBLIC "-//W3C//DTD SVG 1.1//EN" "http://www.w3.org/Graphics/SVG/1.1/DTD/svg11.dtd">
<!-- Creator: CorelDRAW X7 -->
<svg xmlns="http://www.w3.org/2000/svg" xml:space="preserve" width="8.22in" height="10.3123in" version="1.1" style="shape-rendering:geometricPrecision; text-rendering:geometricPrecision; image-rendering:optimizeQuality; fill-rule:evenodd; clip-rule:evenodd"
viewBox="0 0 82200 103123"
 xmlns:xlink="http://www.w3.org/1999/xlink">
 <defs>
  <style type="text/css">
   <![CDATA[
    .fil1 {fill:#BB9B61}
    .fil2 {fill:#BB9B61;fill-rule:nonzero}
    .fil0 {fill:#D7B77D;fill-rule:nonzero}
   ]]>
  </style>
 </defs>
 <g id="Layer_x0020_1">
  <metadata id="CorelCorpID_0Corel-Layer"/>
  <g id="_1502797102384">
   <path class="fil0" d="M0 0l0 103123c47015,-11852 81819,-53484 82200,-103123l-82200 0z"/>
   <path class="fil1" d="M0 92892c36803,-8597 68054,-35613 79705,-73642 544,-1776 1034,-3535 1488,-5310 -6098,43357 -38636,78455 -81192,89183l0 -10231 -1 0z"/>
   <path class="fil2" d="M55087 47847c-685,0 -686,1042 0,1042 685,0 687,-1042 0,-1042z"/>
   <path class="fil2" d="M20778 67172l0 -178c0,-231 -363,-231 -363,0l0 178c0,213 363,213 363,0z"/>
   <path class="fil2" d="M47654 52323c-218,0 -218,338 0,338 236,0 236,-338 0,-338z"/>
   <path class="fil2" d="M33100 78202c-73,-53 -127,-124 -199,-178 -73,-88 -199,35 -109,125 55,53 109,125 182,178 73,71 199,-35 127,-125l-1 0z"/>
   <path class="fil2" d="M16931 78718c-109,0 -109,178 0,178 127,0 127,-178 0,-178z"/>
   <path class="fil2" d="M20524 37403c-54,53 -109,106 -182,178 -73,71 55,195 128,124 72,-71 127,-124 181,-178 91,-88 -36,-213 -127,-124z"/>
   <path class="fil2" d="M13519 54170c73,-71 128,-125 182,-178 91,-88 -36,-213 -109,-125 -73,54 -127,107 -199,178 -73,72 54,195 127,125l-1 0z"/>
   <path class="fil2" d="M28454 55982c-109,0 -109,178 0,178 109,0 109,-178 0,-178z"/>
   <path class="fil2" d="M37782 44615l0 178c0,231 363,231 363,0l0 -178c0,-214 -363,-214 -363,0z"/>
   <path class="fil2" d="M49488 35857l-182 0c-237,0 -237,338 0,338l182 0c236,0 236,-338 0,-338z"/>
   <path class="fil2" d="M69958 36923l-182 0c-217,0 -217,355 0,355l182 0c236,0 236,-355 0,-355z"/>
   <path class="fil2" d="M18038 80334c-345,0 -345,514 0,514 345,0 345,-514 0,-514z"/>
   <path class="fil2" d="M32937 63229l0 -178c0,-142 -127,-267 -272,-267 -145,18 -272,125 -272,267l0 178c0,141 127,266 272,266 145,-18 272,-125 272,-266z"/>
   <path class="fil2" d="M25533 54473c-454,0 -454,692 0,692 454,0 454,-692 0,-692z"/>
   <path class="fil2" d="M46203 44810c-237,0 -237,337 0,337 217,0 217,-337 0,-337z"/>
   <path class="fil2" d="M51865 43904c-237,0 -237,355 0,355 236,0 236,-355 0,-355z"/>
   <path class="fil2" d="M65021 33531c-217,0 -217,338 0,338 237,0 237,-338 0,-338z"/>
   <path class="fil2" d="M67944 28682l0 -178c0,-213 -345,-213 -345,0l0 178c0,231 345,231 345,0z"/>
   <path class="fil2" d="M70084 30955c73,-53 128,-125 182,-178 164,-160 -73,-408 -236,-248 -73,71 -127,124 -182,178 -163,160 73,408 236,248z"/>
   <path class="fil2" d="M69050 32803c-236,0 -236,355 0,355 236,0 236,-355 0,-355z"/>
   <path class="fil2" d="M73987 33336l0 -178c0,-213 -363,-213 -363,0l0 178c0,231 363,231 363,0z"/>
   <path class="fil2" d="M67780 39961l-199 0c-218,0 -218,354 0,354l199 0c218,0 218,-354 0,-354z"/>
   <path class="fil2" d="M64477 36923c-218,0 -218,355 0,355 236,0 236,-355 0,-355z"/>
   <path class="fil2" d="M58863 25706c-237,0 -237,355 0,355 217,0 217,-355 0,-355z"/>
   <path class="fil2" d="M34497 37456c-236,0 -236,355 0,355 218,0 218,-355 0,-355z"/>
   <path class="fil2" d="M63752 45875c-237,0 -237,355 0,355 217,0 217,-355 0,-355z"/>
   <path class="fil2" d="M59904 51595c-218,0 -218,355 0,355 236,0 236,-355 0,-355z"/>
   <path class="fil2" d="M5225 50173l-181 0c-218,0 -218,338 0,338l181 0c237,0 237,-338 0,-338z"/>
   <path class="fil2" d="M10906 44259l0 -178c0,-232 -363,-232 -363,0l0 178c0,231 363,231 363,0z"/>
   <path class="fil2" d="M20415 47669c-236,0 -236,338 0,338 218,0 218,-338 0,-338z"/>
   <path class="fil2" d="M3774 59126c-236,0 -236,337 0,337 218,0 218,-337 0,-337z"/>
   <path class="fil2" d="M15461 63229l0 -178c0,-232 -345,-232 -345,0l0 178c0,231 345,231 345,0z"/>
   <path class="fil2" d="M19871 73976c-237,0 -237,354 0,354 217,0 217,-354 0,-354z"/>
   <path class="fil2" d="M3489 82863c-218,0 -218,338 0,338 236,0 236,-338 0,-338z"/>
   <path class="fil2" d="M9200 89304c54,-53 127,-125 182,-178 163,-160 -91,-408 -254,-248 -54,71 -109,124 -182,178 -163,160 90,408 254,248z"/>
   <path class="fil2" d="M43099 61453c55,-71 109,-125 182,-178 90,-106 90,-284 0,-373 -109,-106 -291,-106 -381,0 -54,53 -127,125 -182,178 -109,89 -109,267 0,373 91,89 272,89 381,0z"/>
   <path class="fil2" d="M30469 71027c-346,0 -346,514 0,514 345,0 345,-514 0,-514z"/>
   <path class="fil2" d="M26349 76835l0 -178c0,-142 -127,-267 -272,-267 -145,0 -272,125 -272,267l0 178c0,142 127,266 272,266 145,-18 272,-124 272,-266z"/>
   <path class="fil2" d="M15297 40245c-345,0 -345,515 0,515 346,0 346,-515 0,-515z"/>
   <path class="fil2" d="M72962 5855l-182 0c-145,0 -272,125 -272,266 18,142 127,267 272,267l182 0c145,0 272,-125 272,-267 -19,-141 -127,-266 -272,-266z"/>
   <path class="fil2" d="M35586 26284c-345,0 -345,515 0,515 345,0 345,-515 0,-515z"/>
   <path class="fil2" d="M28999 43815l-182 0c-128,0 -273,125 -254,267 0,141 109,266 254,266l182 0c144,0 272,-125 272,-266 0,-142 -109,-267 -272,-267z"/>
   <path class="fil2" d="M24806 39339c-345,0 -345,533 0,533 346,0 346,-533 0,-533z"/>
   <path class="fil2" d="M18583 39694c-346,0 -346,533 0,533 345,0 345,-533 0,-533z"/>
   <path class="fil2" d="M15116 44898c-346,0 -346,515 0,515 326,0 345,-515 0,-515z"/>
   <path class="fil2" d="M21866 83637c-454,0 -454,711 0,711 472,0 472,-711 0,-711z"/>
   <path class="fil2" d="M27983 50991c-73,-53 -128,-125 -182,-178 -145,-125 -381,-142 -509,0 -127,142 -145,355 0,498 55,53 128,106 182,178 128,124 381,141 509,0 127,-142 127,-355 0,-498z"/>
   <path class="fil2" d="M34861 53282c-109,53 -236,125 -363,178 -163,89 -217,320 -127,480 109,160 308,213 490,124 127,-53 254,-124 363,-178 163,-88 236,-319 127,-479 -109,-160 -308,-213 -490,-125z"/>
   <path class="fil2" d="M63025 24845c-345,0 -345,533 0,533 327,0 346,-533 0,-533z"/>
   <path class="fil2" d="M73261 19836c-346,0 -346,515 0,515 345,0 345,-515 0,-515z"/>
   <path class="fil2" d="M19127 52944c-345,0 -345,533 0,533 345,0 345,-533 0,-533z"/>
   <path class="fil2" d="M17293 57598c-326,0 -326,515 0,515 345,0 345,-515 0,-515z"/>
   <path class="fil2" d="M5425 54739c-345,0 -345,515 0,515 326,0 326,-515 0,-515z"/>
   <path class="fil2" d="M8710 54739c-345,0 -345,515 0,515 345,0 345,-515 0,-515z"/>
   <path class="fil2" d="M36312 70316c-326,0 -345,515 0,515 346,0 346,-515 0,-515z"/>
   <path class="fil2" d="M16842 25272c-345,0 -345,514 0,514 345,0 345,-514 0,-514z"/>
   <path class="fil2" d="M10906 35236c-345,0 -345,515 0,515 345,0 345,-515 0,-515z"/>
   <path class="fil2" d="M24940 62124c-345,0 -345,514 0,514 345,0 345,-514 0,-514z"/>
   <path class="fil2" d="M19886 61551c-345,0 -345,514 0,514 345,0 345,-514 0,-514z"/>
   <path class="fil2" d="M14549 70558c-345,0 -345,515 0,515 345,0 345,-515 0,-515z"/>
   <path class="fil2" d="M9072 77101c-345,0 -345,533 0,533 346,0 346,-533 0,-533z"/>
   <path class="fil2" d="M12176 79073c-346,0 -346,533 0,533 345,0 345,-533 0,-533z"/>
   <path class="fil2" d="M11813 83194c-345,0 -345,515 0,515 345,0 345,-515 0,-515z"/>
   <path class="fil2" d="M10615 48628c55,-53 109,-125 182,-178 236,-231 236,-639 0,-871 -254,-213 -635,-231 -889,0 -55,72 -109,125 -182,178 -218,232 -237,640 0,871 253,213 635,231 889,0z"/>
   <path class="fil2" d="M61555 31204l-181 0c-237,0 -237,338 0,338l181 0c237,0 237,-338 0,-338z"/>
   <path class="fil2" d="M48018 62874c-218,0 -218,355 0,355 236,0 236,-355 0,-355z"/>
   <path class="fil2" d="M43753 58877c73,-53 127,-124 181,-178 164,-160 -73,-408 -236,-248 -73,71 -127,125 -182,178 -163,160 73,408 237,248z"/>
   <path class="fil2" d="M51502 56426c-236,0 -236,355 0,355 218,0 218,-355 0,-355z"/>
   <path class="fil2" d="M52591 49446l0 -178c0,-214 -363,-214 -363,0l0 178c0,231 363,231 363,0z"/>
   <path class="fil2" d="M25715 73443l-182 0c-237,0 -237,337 0,337l182 0c236,0 236,-337 0,-337z"/>
   <path class="fil2" d="M21322 78274c-218,0 -218,337 0,337 236,0 236,-337 0,-337z"/>
   <path class="fil2" d="M7984 46142c-346,0 -346,533 0,533 345,0 345,-533 0,-533z"/>
   <path class="fil2" d="M7602 47758c-326,0 -326,515 0,515 346,0 346,-515 0,-515z"/>
   <path class="fil2" d="M2780 19101c-345,0 -345,533 0,533 326,0 326,-533 0,-533z"/>
   <path class="fil2" d="M8528 43992c-345,0 -345,533 0,533 345,0 345,-533 0,-533z"/>
   <path class="fil2" d="M5969 44898c-345,0 -345,515 0,515 345,0 345,-515 0,-515z"/>
   <path class="fil2" d="M17856 78452c-454,0 -471,692 0,692 454,0 454,-692 0,-692z"/>
   <path class="fil2" d="M2122 60369c-218,0 -218,355 0,355 237,0 237,-355 0,-355z"/>
   <path class="fil2" d="M3230 60369c-472,0 -472,711 0,711 454,0 454,-711 0,-711z"/>
   <path class="fil1" d="M40706 33263c1844,-5062 6295,-8130 10400,-7435 -634,-563 -1357,-1015 -2165,-1324 -4423,-1688 -9665,1487 -11705,7093 -2040,5605 -108,11517 4316,13205 428,164 865,268 1306,343 -2832,-2519 -3820,-7301 -2152,-11882z"/>
   <path class="fil1" d="M24503 61465c2646,-1129 5449,-562 6653,1228 -7,-440 -90,-874 -260,-1289 -930,-2267 -4059,-3091 -6989,-1840 -2929,1251 -4549,4103 -3619,6370 90,220 206,421 336,613 -33,-1968 1485,-4059 3879,-5082z"/>
   <path class="fil1" d="M15965 72766c1716,-1150 3777,-1119 4877,-12 -66,-311 -185,-607 -362,-878 -972,-1481 -3300,-1650 -5200,-377 -1899,1273 -2652,3506 -1680,4987 93,143 204,270 322,389 -295,-1388 490,-3069 2043,-4109z"/>
   <path class="fil2" d="M51854 57063c-494,0 -494,-761 0,-761 529,0 529,761 0,761z"/>
   <path class="fil2" d="M7159 54506c-248,0 -248,-379 0,-379 247,0 247,379 0,379z"/>
   <path class="fil2" d="M8747 48770c-493,0 -493,-761 0,-761 530,0 530,761 0,761z"/>
   <path class="fil2" d="M22446 69295l0 379c0,519 -777,519 -777,0l0 -379c0,-483 777,-483 777,0z"/>
   <path class="fil2" d="M8747 75583l-387 0c-494,0 -494,-761 0,-761l387 0c530,0 530,761 0,761z"/>
   <path class="fil2" d="M17608 44623c-742,0 -742,-1140 0,-1140 777,0 777,1140 0,1140z"/>
   <path class="fil2" d="M44327 32972l0 379c0,519 -811,519 -811,0l0 -379c0,-483 811,-483 811,0z"/>
   <path class="fil2" d="M42603 43655c-493,0 -493,-761 0,-761 494,0 494,761 0,761z"/>
   <path class="fil2" d="M20857 33013c-529,0 -529,-794 0,-794 494,0 494,794 0,794z"/>
   <path class="fil2" d="M65974 29246c-778,0 -778,-1141 0,-1141 741,0 741,1141 0,1141z"/>
   <path class="fil2" d="M38579 57235c-778,0 -778,-1141 0,-1141 741,0 741,1141 0,1141z"/>
   <path class="fil2" d="M10760 66946c-142,-139 -248,-276 -388,-415 -248,-207 -248,-586 0,-794 212,-242 599,-242 811,0 142,139 282,243 424,380 212,242 212,586 0,829 -248,207 -600,207 -847,0z"/>
   <path class="fil2" d="M7546 30836l-387 0c-318,0 -600,-276 -600,-587 36,-311 248,-587 600,-587l387 0c318,0 600,276 600,587 -36,311 -248,587 -600,587z"/>
   <path class="fil2" d="M3911 41478c-741,0 -741,-1140 0,-1140 778,0 778,1140 0,1140z"/>
   <path class="fil2" d="M31307 42861c-990,0 -990,-1555 0,-1555 1023,0 1023,1555 0,1555z"/>
   <path class="fil2" d="M27996 63512c141,-138 247,-275 387,-379 354,-346 917,172 566,518 -142,139 -282,276 -424,415 -354,346 -883,-207 -529,-554z"/>
   <path class="fil2" d="M30529 69295c-529,0 -529,-794 0,-794 494,0 494,794 0,794z"/>
   <path class="fil2" d="M55489 38714c-742,0 -742,-1140 0,-1140 777,0 777,1140 0,1140z"/>
   <path class="fil2" d="M55101 43829c-778,0 -778,-1140 0,-1140 741,0 741,1140 0,1140z"/>
   <path class="fil2" d="M63150 36573c-106,138 -248,275 -387,379 -212,243 -600,243 -848,0 -211,-207 -211,-587 0,-794 142,-139 282,-276 424,-379 212,-243 599,-243 811,0 248,207 248,586 0,794z"/>
   <path class="fil2" d="M17608 48355c-989,0 -989,-1520 0,-1520 1023,0 1023,1520 0,1520z"/>
   <path class="fil2" d="M66880 13546l0 379c0,518 -811,518 -811,0l0 -379c0,-483 811,-483 811,0z"/>
   <path class="fil2" d="M20820 15062c106,139 248,276 388,380 212,242 599,242 847,0 212,-208 212,-587 0,-794 -142,-139 -281,-276 -423,-380 -212,-242 -600,-242 -812,0 -248,208 -248,587 0,794z"/>
   <path class="fil2" d="M56727 16930c-531,0 -531,-816 0,-816 556,0 556,816 0,816z"/>
   <path class="fil2" d="M12804 7775c-345,0 -345,514 0,514 346,0 346,-514 0,-514z"/>
   <path class="fil2" d="M40775 16307c-346,0 -346,533 0,533 345,0 345,-533 0,-533z"/>
   <path class="fil2" d="M5506 70483c-327,0 -327,515 0,515 345,0 345,-515 0,-515z"/>
  </g>
 </g>
</svg>
