<?xml version="1.0" encoding="UTF-8"?>
<!DOCTYPE svg PUBLIC "-//W3C//DTD SVG 1.1//EN" "http://www.w3.org/Graphics/SVG/1.1/DTD/svg11.dtd">
<!-- Creator: CorelDRAW X7 -->
<svg xmlns="http://www.w3.org/2000/svg" xml:space="preserve" width="0.638189in" height="0.638189in" version="1.1" style="shape-rendering:geometricPrecision; text-rendering:geometricPrecision; image-rendering:optimizeQuality; fill-rule:evenodd; clip-rule:evenodd"
viewBox="0 0 6382 6382"
 xmlns:xlink="http://www.w3.org/1999/xlink">
 <defs>
  <style type="text/css">
   <![CDATA[
    .fil0 {fill:black}
   ]]>
  </style>
 </defs>
 <g id="Layer_x0020_1">
  <metadata id="CorelCorpID_0Corel-Layer"/>
  <path class="fil0" d="M5449 5448c601,-603 933,-1406 933,-2257 0,-852 -332,-1654 -933,-2258 -604,-601 -1406,-933 -2258,-933 -852,0 -1654,332 -2258,933 -601,604 -933,1406 -933,2258 0,851 332,1654 933,2257 604,601 1406,934 2258,934 852,0 1654,-333 2258,-934zm-3499 -3324l174 -174 1067 1067 1067 -1067 174 174 -1068 1067 1068 1068 -173 173 -1068 -1068 -1068 1068 -173 -173 1068 -1068 -1068 -1067 0 0zm-1752 1067c0,-799 310,-1552 876,-2117 566,-566 1318,-876 2117,-876 799,0 1551,310 2117,876 565,565 876,1318 876,2117 0,798 -311,1551 -876,2116 -566,566 -1318,877 -2117,877 -799,0 -1551,-311 -2117,-877 -566,-565 -876,-1318 -876,-2116z"/>
 </g>
</svg>
