<?xml version="1.0" encoding="UTF-8"?>
<!DOCTYPE svg PUBLIC "-//W3C//DTD SVG 1.1//EN" "http://www.w3.org/Graphics/SVG/1.1/DTD/svg11.dtd">
<!-- Creator: CorelDRAW X7 -->
<svg xmlns="http://www.w3.org/2000/svg" xml:space="preserve" width="11.859in" height="7.4261in" version="1.1" style="shape-rendering:geometricPrecision; text-rendering:geometricPrecision; image-rendering:optimizeQuality; fill-rule:evenodd; clip-rule:evenodd"
viewBox="0 0 118590 74261"
 xmlns:xlink="http://www.w3.org/1999/xlink">
 <defs>
  <style type="text/css">
   <![CDATA[
    .fil30 {fill:#D7B77D}
    .fil0 {fill:#E0E6F3}
    .fil1 {fill:#F1F3FA}
    .fil3 {fill:#2F8AA1;fill-rule:nonzero}
    .fil28 {fill:#5E6D8F;fill-rule:nonzero}
    .fil9 {fill:#647CB2;fill-rule:nonzero}
    .fil7 {fill:#6E6E6E;fill-rule:nonzero}
    .fil29 {fill:#7C94CA;fill-rule:nonzero}
    .fil10 {fill:#8295C1;fill-rule:nonzero}
    .fil23 {fill:#8480BC;fill-rule:nonzero}
    .fil15 {fill:#A38755;fill-rule:nonzero}
    .fil31 {fill:#A3B4D9;fill-rule:nonzero}
    .fil13 {fill:#A6B7DE;fill-rule:nonzero}
    .fil25 {fill:#A8A8A8;fill-rule:nonzero}
    .fil4 {fill:#A9A6D0;fill-rule:nonzero}
    .fil2 {fill:#B7C5E4;fill-rule:nonzero}
    .fil6 {fill:#BBB8DA;fill-rule:nonzero}
    .fil22 {fill:#C4CFE9;fill-rule:nonzero}
    .fil8 {fill:#D0D9ED;fill-rule:nonzero}
    .fil19 {fill:#D2AE6D;fill-rule:nonzero}
    .fil17 {fill:#D5A767;fill-rule:nonzero}
    .fil26 {fill:#D7B77D;fill-rule:nonzero}
    .fil5 {fill:#DBD9EB;fill-rule:nonzero}
    .fil14 {fill:#DCC08D;fill-rule:nonzero}
    .fil16 {fill:#E0C698;fill-rule:nonzero}
    .fil11 {fill:#E3CCA2;fill-rule:nonzero}
    .fil32 {fill:#E6D1AB;fill-rule:nonzero}
    .fil20 {fill:#E9D6B3;fill-rule:nonzero}
    .fil24 {fill:#EDDFC4;fill-rule:nonzero}
    .fil21 {fill:#F6C96B;fill-rule:nonzero}
    .fil12 {fill:#F6EFE2;fill-rule:nonzero}
    .fil27 {fill:#FCA30B;fill-rule:nonzero}
    .fil18 {fill:white;fill-rule:nonzero}
   ]]>
  </style>
 </defs>
 <g id="Layer_x0020_1">
  <metadata id="CorelCorpID_0Corel-Layer"/>
  <g id="_1503148669024">
   <path class="fil0" d="M106477 62217c-757,-3648 1305,-7803 4606,-9280 3302,-1478 6593,282 7350,3930 758,3648 -1304,7803 -4605,9281 -3302,1477 -6593,-282 -7351,-3931z"/>
   <path class="fil0" d="M70918 11527c8031,9221 4411,7613 17670,6759 14147,-912 27269,12114 22121,26311 -1691,4661 -5165,7865 -6929,13015 -675,1974 -1228,4048 -2643,5787 -5331,6552 -14350,2850 -20096,-942 -2984,-1969 -5349,-2254 -7662,-1593 -12334,3526 -14759,14264 -35442,13341 -18310,-817 -41721,-22049 -37420,-40990 2884,-12699 12057,-21696 22661,-27419 15584,-8411 35245,-8615 47740,5731z"/>
   <path class="fil1" d="M73078 29488c10184,12979 3010,20868 -7629,28369 -23337,16454 -63894,10168 -56558,-21562 3084,-13339 15556,-24655 30156,-25287 12821,-555 25291,7341 34031,18480z"/>
   <path class="fil2" d="M65567 30061c-1020,511 -3136,1537 -4700,2074 -1947,664 -3438,953 -3692,998l-38 7c0,0 -445,316 -1238,824 -83,0 -167,3 -261,10l0 0c-441,-180 -2315,105 -3904,605 -3003,-1081 -16089,3696 -13495,5754 -2354,347 -11632,4262 -8886,5614 0,0 -4314,1811 -4978,3737 -602,1742 3122,1029 3963,852 1199,-254 2308,-699 3598,-1279 3098,-1401 8928,-4155 14664,-6908 2037,-977 3327,-2065 5517,-1926 3768,236 9494,-1324 12153,-3243 1568,-1134 3014,-2914 3842,-4562 997,-1982 818,-2859 -35,-3061 -889,-211 -1739,118 -2510,504z"/>
   <path class="fil3" d="M26099 42130c24,0 59,-7 101,-14 -219,-24 -417,-73 -595,-146 195,101 365,160 494,160z"/>
   <path class="fil4" d="M58697 11025c-408,-1101 -2304,-2523 -3973,-2477 -2884,1908 -1311,3847 466,3843 636,-1 3123,-904 3507,-1366z"/>
   <path class="fil4" d="M31966 28120c-1322,-3968 5256,-13698 10868,-10191 36,-4825 7727,-13250 10758,-10807 0,0 738,376 738,376 -733,-1578 -4602,-3988 -7491,-2802 -2854,1168 -7171,6744 -7196,10022 -1083,-677 -1933,-941 -3049,-580 -3084,995 -6227,4666 -7442,7595 -596,1439 -871,2872 -519,3933 0,0 -4801,1863 -6518,8360 -546,2062 -594,3967 90,5048 268,424 1794,1871 2914,2611 -1101,-910 6263,-12202 6847,-13565z"/>
   <path class="fil5" d="M65372 13780c-135,-275 -313,-497 -538,-640 -1523,-977 -3981,49 -6011,1415 608,-1467 473,-2715 -70,-3459 -90,-118 -188,-226 -295,-320 -803,-681 -2114,-567 -3362,848 -45,-1196 -153,-2235 -372,-3076 -219,-835 -553,-1474 -1057,-1881 -858,-692 -2207,-706 -4328,167 -2854,1168 -7175,6741 -7200,10019 -2030,-1269 -3247,-1081 -6942,1957 -2155,1770 -4912,6452 -4064,8997 0,0 -4804,1860 -6522,8357 -636,2413 -594,4610 508,5521 142,118 306,216 483,285 181,73 379,122 598,146 87,7 181,14 275,14 1946,-49 35515,-19166 37462,-21561 1515,-1790 2204,-5211 1435,-6789l0 0z"/>
   <path class="fil6" d="M55899 18483c0,369 -243,793 -542,946l-25469 12884c-299,149 -542,-28 -542,-400 0,-372 243,-793 542,-946l25469 -12883c299,-150 542,27 542,399z"/>
   <path class="fil6" d="M60039 12789c0,375 -243,796 -542,949l-25468 12884c-299,153 -539,-28 -539,-400 0,-372 240,-796 539,-946l25468 -12883c299,-150 542,27 542,396l0 0z"/>
   <path class="fil6" d="M55899 21682c0,372 -243,792 -542,945l-25469 12884c-299,149 -542,-28 -542,-400 0,-368 243,-793 542,-946l25469 -12883c299,-150 542,28 542,400z"/>
   <path class="fil7" d="M69342 15681c400,-2558 491,-4554 501,-4797 -3,233 -59,2162 -435,4644 -24,53 -45,101 -66,153z"/>
   <path class="fil8" d="M60103 33260c0,0 -5330,-983 -6335,-5582 -695,-3198 -545,-9747 -545,-9747 0,0 3676,-628 5574,-2279 1898,-1651 3301,-3721 3301,-3721 0,0 1372,723 3177,501 1804,-219 4793,-1849 4793,-1849 0,0 0,7 0,24 -10,240 112,2776 -292,5331 -239,1533 -660,3407 -1175,5083 -2673,8722 -8498,12239 -8498,12239l0 0z"/>
   <path class="fil9" d="M60248 9354c1982,950 4401,520 6382,-297 1299,-536 2734,-1435 3847,-2347l1527 739c-2258,2414 -7380,5151 -9838,3050l-1918 -1145z"/>
   <path class="fil10" d="M60283 9372l1957 952c-1675,3471 -6728,6402 -10362,7308l-2271 -1242 0 -3c0,0 4307,-1067 6702,-3132 2399,-2065 3939,-3901 3939,-3901l35 18z"/>
   <path class="fil9" d="M53099 32397c-1232,-983 -2345,-2408 -2807,-4461 -880,-3887 -689,-11351 -685,-11545l1995 966c2985,3187 -221,13058 5236,16465l-141 575c-1100,-575 -2416,-1057 -3598,-2000z"/>
   <polygon class="fil4" points="66940,14534 60439,21769 63349,21793 58138,30234 66697,20110 64236,20107 "/>
   <path class="fil11" d="M76389 31054c-268,146 -295,233 -521,476 -459,-1234 -1506,-1853 -2823,-2047 -1353,-198 -2468,518 -3824,80 876,997 1672,1314 2948,1352 -716,720 -1874,1637 -2830,2075 -859,376 -1648,115 -2531,146l-108 -573c195,-31 386,-77 570,-132 1155,-320 1471,-755 2271,-1554 -1036,160 -1374,38 -2090,-915 -462,-615 -500,-1394 -699,-2151 915,441 1631,799 2709,639 2134,-358 6591,-379 6928,2604l0 0z"/>
   <path class="fil12" d="M65299 37395l0 0 3932 -2249 -3932 2249zm3724 -2614c-717,-476 -2072,-716 -2389,-1631 56,-7 115,-7 174,-14 883,-31 1672,230 2531,-146 956,-438 2114,-1355 2830,-2075 -1276,-38 -2072,-355 -2948,-1352 1356,438 2471,-278 3824,-80 1317,194 2333,653 2791,1887l0 0c11,32 25,60 35,91 -215,205 -341,375 -396,733 -80,397 160,237 -160,515 -156,160 -556,240 -754,320 -598,278 -1735,1936 -2253,2291 -994,719 -1293,139 -2249,855 -279,240 -637,358 -758,799 -118,397 198,633 198,1033 0,918 -1512,1634 -2347,1634 -358,0 -799,-438 -997,-396 -386,76 -654,1074 -856,1432l0 -1860 0 0c-625,-369 -1790,-549 -1933,-1008 -239,-796 717,-835 797,-1433 121,-837 -1353,-1314 -1874,-1633 1039,-560 2670,0 3706,319 997,317 2113,275 3028,-281l0 0z"/>
   <path class="fil13" d="M53528 52952c793,-111 2239,-518 2802,-459l87 -24c-111,-122 -275,-219 -1060,-132 -477,48 -1054,188 -1579,264 -684,108 -897,90 -1477,136 -202,201 334,333 1227,215l0 0z"/>
   <path class="fil13" d="M46287 55632c-786,150 -1575,286 -2159,275 -97,209 382,240 1328,84 855,-143 1512,-383 2280,-550 -281,-55 -938,98 -1449,191l0 0z"/>
   <path class="fil2" d="M69057 50164c-180,63 -330,118 -462,167 -14,-7 -31,-11 -45,-17l507 -150 0 0zm6658 -876c-550,104 -1099,209 -1572,309 1248,-55 2691,-142 3567,-34 25,-56 66,-112 129,-160l10 208 -2343 188 -3 0 -970 83 -2820 845 -45 -1095c1248,-28 2827,-288 4047,-344l0 0zm22791 -4652l-3 4 -970 80 -2715 813 -87 -2085 -7162 2151c-274,7 -368,-59 -740,-45 -713,28 -1658,205 -2444,397 -1099,239 -1491,417 -2520,458 -713,28 -1113,-93 -1276,-215 10,334 413,469 1526,518 -1106,-35 -3233,441 -4332,678 -2781,594 -4811,782 -6636,806 650,348 2239,383 4686,73 -1338,268 -2444,397 -3782,650 -1415,265 -2204,428 -3237,397 330,194 1126,281 2044,309l-1582 473c-257,-362 -3709,17 -5485,292 -1315,205 -2413,494 -3672,768 -1418,310 -2367,397 -3577,511 268,143 327,327 942,369 956,62 1401,7 2764,-289 -1043,397 -1457,588 -2976,953 -240,59 -490,118 -751,174 -691,156 -1425,302 -2079,417 -1105,198 -1477,97 -2423,247 219,187 1172,170 2170,93 -789,108 -1575,275 -2309,404 -841,149 -1578,226 -2419,375 -1575,285 -3091,730 -4447,1127 1102,-178 2257,-345 3313,-459 633,-70 1315,-167 1530,-70 268,84 -90,292 229,362 425,114 1589,45 2538,-32 633,-48 2211,-253 2110,-66 11,-3 18,-7 28,-14l39 918 -3407 1015 132 3181 1185 -87 0 7 21 -3 14 -7 12703 -153 6799 -4752 10684 1432 17186 -10633 19 -1948 -1631 406 0 0z"/>
   <polygon class="fil14" points="82939,35577 82939,49677 65449,60131 65449,57948 65449,57857 65449,47411 65449,47345 66130,46952 74512,42113 74554,42088 75165,40086 75176,40058 78308,38250 80940,36731 81086,36644 82355,35914 "/>
   <polygon class="fil15" points="81628,35514 81086,35824 80999,35879 80387,36234 80387,34906 80453,34868 81041,35194 81086,35215 "/>
   <polygon class="fil16" points="80387,34906 80387,36234 78204,37496 78204,36164 "/>
   <polygon class="fil17" points="78308,38250 78308,38250 78308,38250 75176,40058 75165,40086 74453,39676 78204,37496 78204,37496 80387,36234 80999,35879 81086,35827 81628,35514 81086,35215 81041,35194 80453,34868 80387,34906 78204,36164 78204,35347 80352,34103 81086,34503 81089,34496 82956,35549 82939,35577 82355,35914 81086,36644 80940,36731 "/>
   <path class="fil18" d="M66214 41174c796,966 1432,-1585 511,-852 -390,122 -800,466 -511,852zm11990 -5010l0 1332 -3751 2176 -741 1982 -8413 4815 0 -2135 0 -3657c202,-358 470,-1356 856,-1432 198,-42 639,396 997,396 835,0 2347,-716 2347,-1631 0,-403 -316,-639 -198,-1039 121,-438 479,-556 758,-796 956,-716 1255,-136 2249,-852 518,-358 1655,-2016 2253,-2294 198,-80 597,-160 754,-320 320,-278 52,-129 132,-525 77,-501 515,-890 942,-1130l1815 -1039 0 5332 0 817 0 0zm-5392 -159c-223,180 -383,469 -323,806 691,59 1105,-1057 323,-806zm-1700 497l3 14c-420,118 -1494,1015 -1136,1494 657,953 1731,-896 1672,-1494 -164,-56 -330,-63 -539,-14zm5197 -3755c-264,490 -101,1154 720,720 1105,-553 -143,-1617 -716,-730 0,3 0,7 -4,10z"/>
   <path class="fil14" d="M76313 32737c573,-887 1821,177 716,730 -821,434 -984,-230 -720,-720 4,-3 4,-7 4,-10z"/>
   <polygon class="fil15" points="75165,40086 74554,42088 74512,42113 73712,41654 74453,39672 "/>
   <polygon class="fil19" points="65299,46469 73712,41654 74512,42113 66130,46952 65449,47345 65449,47411 65421,47393 64552,46896 64559,46893 63596,46340 63596,46333 62699,45819 65299,44334 65299,45287 64225,45905 65275,46482 "/>
   <path class="fil14" d="M72812 36005c782,-251 368,865 -323,806 -60,-337 100,-622 323,-806z"/>
   <path class="fil11" d="M71651 36516c59,598 -1015,2447 -1672,1491 -358,-476 716,-1373 1133,-1491l0 -14c209,-49 375,-42 539,14z"/>
   <path class="fil20" d="M66725 40322c921,-733 285,1822 -511,852 -289,-386 121,-730 511,-852z"/>
   <polygon class="fil15" points="65449,57948 65449,60131 63624,59043 63620,59039 63596,59025 62699,58490 62699,45819 63596,46333 63596,46340 64559,46893 64552,46896 65421,47393 65449,47411 65449,57857 "/>
   <polygon class="fil16" points="65299,45287 65299,46469 65275,46482 64225,45905 "/>
   <polygon class="fil21" points="63624,59043 63613,59046 63596,59057 63596,59025 63620,59039 "/>
   <path class="fil22" d="M67806 41021c3080,-1905 6160,-3814 9240,-5719 261,-160 25,-573 -240,-413 -3080,1908 -6160,3813 -9240,5718 -264,164 -24,577 240,414z"/>
   <path class="fil22" d="M68087 43048c3081,-1905 6161,-3814 9241,-5719 261,-160 21,-574 -240,-414 -3080,1909 -6160,3814 -9244,5719 -261,163 -21,577 243,414l0 0z"/>
   <path class="fil23" d="M77905 41643c354,-233 723,-424 1098,-563 -38,591 -66,1172 -153,1784 -10,0 -17,3 -24,6 -229,56 -459,157 -681,296 -39,-535 -178,-1001 -240,-1523l0 0z"/>
   <path class="fil23" d="M76772 43461c-188,-86 -386,-142 -598,-184 448,-573 959,-1081 1515,-1484 59,521 205,984 240,1516 -229,170 -448,375 -653,608 -160,-167 -289,-355 -504,-456l0 0z"/>
   <path class="fil23" d="M76194 44716c-298,-24 -608,-13 -924,7 208,-420 452,-824 723,-1202 268,48 532,111 740,253 143,98 244,240 362,365 -157,202 -299,418 -428,644 -139,-60 -330,-56 -473,-67l0 0z"/>
   <path class="fil23" d="M75506 45923c-261,94 -521,191 -779,267 105,-410 247,-816 425,-1213 274,-17 549,-35 806,-14 132,11 431,-10 574,70 -108,222 -185,455 -237,685 -264,69 -514,104 -789,205l0 0z"/>
   <path class="fil23" d="M75249 47067c-243,132 -480,267 -720,372 25,-240 45,-473 80,-685 14,-105 35,-209 59,-317 268,-76 543,-180 817,-278 261,-94 508,-128 762,-198 -39,233 -66,459 -91,671 -302,153 -601,268 -907,435z"/>
   <path class="fil23" d="M74449 48158c25,-163 42,-323 59,-483 188,-84 376,-184 567,-292 355,-191 702,-330 1053,-508 -38,285 -76,570 -125,859 -539,240 -1053,358 -1554,424l0 0z"/>
   <path class="fil23" d="M75670 49062c-546,219 -1068,275 -1523,205 125,-278 205,-567 261,-859 500,-69 1015,-191 1550,-427 -38,205 -83,410 -139,619 -38,156 -90,309 -149,462l0 0z"/>
   <path class="fil23" d="M73754 50574c-122,-83 -233,-181 -327,-295 146,-157 278,-310 390,-452 76,-98 139,-198 198,-303 462,73 994,18 1540,-187 -237,542 -577,1074 -970,1567 -316,0 -609,-170 -831,-330z"/>
   <path class="fil23" d="M72649 50971c194,-140 389,-310 570,-484 139,178 312,317 507,411 205,104 407,222 650,253 -403,466 -848,883 -1307,1224 -191,-428 -403,-841 -420,-1404z"/>
   <path class="fil23" d="M71710 51360c3,0 7,0 10,0 -97,348 -229,699 -285,1039 -48,289 -83,570 -97,842 -212,45 -417,59 -608,38 -887,-104 93,-2020 980,-1919l0 0z"/>
   <path class="fil23" d="M71630 52448c59,-365 188,-730 288,-1102 157,-35 334,-115 515,-226 21,560 222,984 414,1415 -438,299 -880,528 -1294,650 11,-236 32,-483 77,-737l0 0z"/>
   <path class="fil23" d="M79219 41007c73,-21 142,-42 212,-59 932,-233 494,1366 -365,1825 87,-605 115,-1182 153,-1766z"/>
   <path class="fil14" d="M81962 32952c556,-80 636,-674 358,-1032 -320,-362 -1116,-438 -1516,-598 -834,-320 -1470,-838 -1748,-1752 312,399 702,542 1122,542 1137,0 2528,-1029 3456,-942 -518,0 -1297,-396 -1679,-887 -87,-111 -157,-229 -195,-347 918,476 2194,594 3150,320 876,-282 1752,-956 2670,-640 -282,-316 -720,-640 -598,-1116 438,438 914,240 1432,278 431,42 901,233 1293,428l598 -348c-208,-184 -278,-511 -556,-737 -539,-417 -1255,-417 -1853,-236 -838,118 -1137,535 -1912,-63 -539,-417 -838,-1192 -956,-1790 0,1314 299,2152 1137,3167 -834,-953 -2451,-657 -3289,-539 -2110,295 -3643,-476 -5016,-1731 476,1849 1672,3167 3525,3761 -1015,63 -1853,-236 -2868,-236 -1078,0 -1672,59 -2451,-838 299,1255 1137,2388 2030,3285 960,897 2211,1019 3167,1735 -417,0 -834,0 -1192,59 942,702 2169,1592 2826,2670 21,-209 -24,-539 24,-692l-62 -1363c-344,-7 -661,-62 -897,-358l0 0z"/>
   <path class="fil14" d="M88136 30484c-136,-66 -212,-59 -295,-21 0,4 -4,4 -7,7 0,0 0,0 -4,0 -156,118 -299,282 -351,490 358,122 598,-59 657,-476z"/>
   <path class="fil14" d="M89450 28391l-7 -7c-278,289 -532,748 -233,963 956,779 1314,-2030 240,-956l0 0z"/>
   <path class="fil12" d="M84611 33171c181,-118 598,-236 716,-535 118,-421 -358,-480 -358,-779 118,-476 476,-775 897,-1074 834,-598 2211,-838 2687,-1794 240,-535 42,-699 522,-1175 177,-177 420,-400 667,-581l-14 -17c-7,0 -14,-7 -21,-10 -392,-195 -862,-386 -1293,-428 -518,-38 -994,160 -1432,-278 -122,476 316,799 598,1116 -918,-316 -1794,358 -2670,640 -956,274 -2232,156 -3150,-320 38,118 105,233 195,351 382,490 1161,883 1679,883 -928,-87 -2319,942 -3456,942 -420,0 -810,-143 -1122,-542 278,914 914,1432 1748,1752 400,160 1196,236 1516,598 278,358 198,952 -358,1032 233,296 553,351 897,358l0 1349c254,-838 897,-1036 1752,-1488z"/>
   <polygon class="fil14" points="98569,33324 98423,33408 95868,34885 92659,36735 92648,36766 92037,38768 91991,38793 83610,43635 82932,44025 82932,44091 82932,54537 82932,54628 82932,56811 100422,46354 100422,32257 99838,32594 "/>
   <polygon class="fil15" points="98478,32559 98569,32507 99108,32191 98569,31895 98524,31871 97933,31548 97867,31586 97867,32911 "/>
   <polygon class="fil19" points="98569,31176 98569,31183 97835,30783 95763,31982 95763,32799 97867,31586 97933,31548 98524,31871 98569,31895 99108,32191 98569,32507 98478,32559 97867,32911 95763,34131 91932,36352 92648,36766 92659,36735 95868,34885 98423,33408 98569,33324 99838,32594 100418,32257 100436,32229 "/>
   <polygon class="fil16" points="97867,32911 97867,31586 95763,32799 95763,34131 "/>
   <path class="fil18" d="M87830 30474c4,-4 4,-4 4,-4 3,-3 7,-3 7,-7 83,-38 159,-45 295,21 -59,417 -299,598 -657,480 52,-212 195,-376 351,-490l0 0zm1613 -2090l7 11c1074,-1078 716,1731 -240,952 -299,-215 -45,-674 233,-963l0 0zm-6584 14719l8333 -4769 740 -1982 3831 -2221 0 -1332 0 -817 0 -8308 -5458 3184 -598 348c7,3 14,10 21,10l14 17c-247,181 -490,404 -667,581 -480,476 -282,640 -522,1175 -476,956 -1853,1196 -2687,1794 -421,299 -779,598 -897,1074 0,299 476,358 358,779 -118,299 -535,417 -716,535 -855,452 -1498,650 -1752,1488l0 6310 0 952 0 1182z"/>
   <polygon class="fil15" points="91991,38793 92037,38768 92648,36766 91932,36352 91192,38334 "/>
   <polygon class="fil15" points="82932,54537 82932,44091 82901,44073 82035,43576 82038,43573 81079,43020 81079,43013 80182,42502 80182,55170 81079,55705 81103,55719 81103,55723 82932,56811 82932,54628 "/>
   <polygon class="fil16" points="81708,42585 82754,43162 82859,43103 82859,41921 "/>
   <polygon class="fil19" points="81079,43020 82038,43573 82035,43576 82901,44073 82932,44091 82932,44025 83610,43635 91991,38793 91192,38334 82859,43103 82754,43162 81708,42585 82859,41921 82859,40969 80182,42499 81079,43013 "/>
   <polygon class="fil21" points="81079,55705 81079,55737 81093,55726 81103,55723 81103,55719 "/>
   <path class="fil22" d="M84952 35410c3080,-1905 6160,-3810 9240,-5719 261,-160 21,-573 -243,-410 -3081,1905 -6161,3810 -9241,5715 -260,164 -21,577 244,414l0 0z"/>
   <path class="fil22" d="M84952 37451c3080,-1905 6160,-3810 9240,-5716 261,-163 21,-577 -243,-413 -3081,1905 -6161,3810 -9241,5718 -260,160 -21,574 244,411l0 0z"/>
   <path class="fil22" d="M85091 39637c3080,-1905 6163,-3810 9243,-5715 261,-163 21,-577 -243,-414 -3080,1906 -6160,3814 -9240,5719 -261,160 -21,574 240,410l0 0z"/>
   <path class="fil23" d="M94282 43187c-90,410 -476,813 -855,904 -382,90 -619,-171 -528,-577 94,-411 476,-814 858,-904 383,-91 619,167 525,577l0 0zm-1766 2117c-90,174 -226,-24 -420,76 -192,98 -282,379 -418,407 -135,31 286,-1224 442,-1314 156,-94 487,661 396,831l0 0zm-1599 122c-382,351 -765,389 -859,83 -90,-302 146,-834 529,-1185 382,-352 765,-390 855,-84 94,303 -142,835 -525,1186l0 0zm4245 -2406c87,-369 132,-730 132,-1081 0,-1916 -1422,-2653 -3174,-1638 -1752,1012 -3174,3386 -3174,5305 0,369 52,692 150,970 302,199 740,-62 1161,-104 605,-49 674,539 719,1203 139,-21 289,-59 438,-108l0 -462 237 -139 0 514c97,-41 194,-87 292,-135l0 -546 236 -136 0 550c94,-56 188,-119 278,-181l0 -532 240 -136 0 494c150,-118 299,-247 442,-382 45,-661 142,-1287 705,-1892 501,-521 1019,-768 1314,-1564l4 0 0 0 0 0z"/>
   <path class="fil23" d="M89394 49702c-305,14 -455,-296 -326,-685 69,-209 201,-396 358,-532 -59,-122 -63,-299 0,-494 128,-389 483,-712 792,-723 310,-10 459,379 431,730 397,11 904,18 1395,14 524,-598 1070,-1241 1498,-1742 -28,-319 122,-883 431,-1230 309,-344 664,-431 793,-191 62,121 59,302 0,497 156,-49 288,-14 358,114 128,244 -18,720 -327,1064 -299,334 -748,435 -967,358 -309,331 -674,720 -1036,1109 338,-21 661,-48 932,-80 223,-344 633,-785 921,-796 306,-10 452,296 324,685 -70,209 -202,400 -358,532 48,122 48,285 -11,466 -128,389 -483,716 -789,726 -278,7 -469,-358 -403,-702 -390,-17 -890,-28 -1370,-3 -445,497 -897,1029 -1258,1463 66,268 -126,852 -400,1161 -310,345 -661,428 -789,188 -59,-111 -63,-275 -14,-452 -157,45 -289,11 -358,-118 -129,-243 17,-716 323,-1060 288,-324 699,-351 921,-268l0 0c240,-250 522,-549 814,-866 -320,25 -640,52 -915,80 -222,331 -671,748 -970,755l0 0z"/>
   <path class="fil15" d="M34237 33161c-48,167 -942,3365 -938,4307 3,1766 626,3007 1630,3588 1259,733 2517,1463 3776,2197 -14,-7 -28,-17 -42,-28 -14,-7 -24,-14 -35,-21 -38,-21 -73,-45 -108,-69 -10,-7 -21,-14 -31,-21 -28,-21 -59,-42 -87,-66 -7,-7 -17,-14 -24,-21 -70,-52 -136,-111 -198,-174 -18,-17 -35,-31 -49,-49 -24,-24 -45,-48 -70,-73 -38,-41 -73,-83 -111,-125 -10,-17 -24,-31 -35,-48 -24,-28 -45,-59 -69,-91 -42,-59 -83,-118 -118,-177 -25,-35 -45,-66 -63,-101 -7,-10 -10,-21 -17,-28 -25,-41 -45,-83 -66,-125 -7,-7 -11,-17 -14,-24 -25,-45 -45,-94 -66,-139 -4,-7 -7,-18 -14,-25 -18,-45 -38,-87 -56,-135 -24,-63 -48,-129 -73,-198 -17,-49 -35,-101 -52,-157 -24,-76 -45,-156 -66,-240 -14,-52 -24,-100 -35,-153 -3,-3 -3,-7 -3,-10 -11,-52 -25,-108 -32,-167 -17,-83 -31,-170 -41,-257 -11,-59 -14,-118 -21,-177 0,-7 -4,-11 -4,-18 -6,-69 -13,-142 -17,-215 -3,-70 -7,-143 -10,-219l0 -18c-4,-73 -4,-146 -4,-222 -3,-942 890,-4137 935,-4308l-3772 -2193 0 0z"/>
   <g>
    <path class="fil24" d="M38009 35354c-45,171 -938,3366 -935,4308 0,76 0,149 4,222l0 18c3,76 7,146 10,219 4,73 11,146 17,215 0,4 4,11 4,18 7,59 10,118 21,177 10,87 24,174 42,257 10,59 20,111 31,167 0,3 3,7 3,10 11,53 21,101 35,153 21,84 42,164 66,240 17,52 35,108 52,157 25,69 49,135 73,198 18,45 38,90 59,135 4,7 7,18 11,25 21,45 42,94 66,139 3,7 7,17 14,24 21,42 41,84 66,125 7,7 10,18 17,28 18,35 38,66 59,101 39,59 80,118 122,177 21,31 45,63 69,91 11,17 25,31 39,48 34,42 69,84 107,125 21,25 46,49 70,73 14,18 31,32 49,49 62,63 128,118 198,174 7,7 14,14 24,21 28,21 59,45 87,66 11,7 21,14 31,21 35,24 70,48 108,69 11,11 21,14 35,21 1018,619 2440,546 4012,-361 3087,-1784 5579,-6102 5569,-9651 -4,-1512 -758,-2861 -800,-2934 -73,42 -1456,810 -2937,1644 0,28 3,56 3,84 4,1039 -726,2301 -1627,2822 -264,153 -514,223 -733,223 -21,0 -42,0 -63,0 -17,-3 -38,-3 -55,-7 -21,0 -39,-3 -56,-7 -14,-3 -28,-7 -42,-10 -7,0 -14,-4 -24,-4 -14,-7 -28,-10 -42,-14 -14,-7 -28,-10 -38,-14 -45,-17 -87,-38 -129,-62l0 0 -810 -473 -3 0 0 0 -483 -282c-1238,626 -2323,1144 -2396,1175l0 0zm2879 -893c-87,1964 1331,1641 2113,1227 1200,-636 1906,-2586 1906,-3466 0,-24 2106,-1105 2169,-1137 35,59 497,1499 500,2785 7,3011 -2284,7095 -4901,8608 -2621,1512 -4923,278 -4933,-2736 -4,-800 688,-3946 730,-4089 69,-34 1105,-507 2416,-1192l-483 -282c274,-142 559,-288 844,-434 -3,49 -7,101 -7,149 0,504 174,862 459,1040l-813 -473 0 0z"/>
   </g>
   <path class="fil14" d="M42334 38407c0,201 66,340 177,413l-142 1363 -198 1895 1654 -981 4 -3 -389 -2774 -4 -11c122,-208 198,-441 198,-653 0,-410 -292,-581 -650,-372 -174,101 -334,271 -452,469 -121,209 -198,445 -198,654l0 0zm-1443 -3946c-90,1964 1328,1641 2110,1227 1200,-636 1906,-2586 1906,-3466 0,-24 2106,-1105 2169,-1140 35,62 497,1502 500,2788 7,3011 -2284,7095 -4901,8608 -2621,1512 -4923,278 -4933,-2736 -4,-800 688,-3946 730,-4089 69,-34 1105,-511 2416,-1192l0 10c0,0 0,-7 3,-10l0 0z"/>
   <path class="fil25" d="M37954 42606c-14,-17 -28,-31 -39,-48 11,17 25,31 39,48z"/>
   <path class="fil15" d="M39219 32566l2030 1179c-3,49 -7,101 -7,149 0,504 174,862 459,1040 42,24 84,45 129,62 14,4 24,7 38,14 14,4 28,7 42,11 7,3 17,7 24,7 14,3 28,7 42,10 17,4 38,7 56,7 17,4 38,4 59,7 17,0 38,0 55,0 223,0 473,-73 737,-222 901,-522 1631,-1784 1627,-2823 0,-28 -3,-56 -3,-84l-3776 -2193c0,27 4,55 4,83 3,994 -668,2194 -1516,2753l0 0z"/>
   <path class="fil26" d="M40731 29730l3776 2193c1481,-834 2864,-1602 2937,-1644l-2214 -1286c-7,330 -11,591 -11,737 0,0 94,674 -778,740 -970,77 -1047,-643 -1047,-643 0,-236 11,-883 25,-1599 -477,264 -1554,862 -2688,1502z"/>
   <path class="fil27" d="M40888 34461l0 10c0,0 0,-3 0,-10l0 0z"/>
   <path class="fil25" d="M41934 35028c-7,0 -17,-4 -24,-7 10,3 17,7 24,7z"/>
   <polygon class="fil28" points="42369,40183 42171,42078 43825,41097 "/>
   <path class="fil29" d="M42511 38820l-142 1363 1456 914 4 -3 -389 -2774 -908 -567c-121,209 -198,445 -198,654 0,198 66,340 177,413l0 0z"/>
   <path class="fil28" d="M42532 37753l908 567 -4 -11c122,-208 198,-441 198,-653 0,-410 -292,-581 -650,-372 -174,101 -334,271 -452,469z"/>
   <path class="fil30" d="M34237 33161l3772 2193c591,-288 1186,-570 1770,-862 493,-243 977,-497 1470,-747l-3761 -2201 -3251 1617 0 0z"/>
   <path class="fil15" d="M36191 28085c0,0 -83,2799 -115,4179l0 0 0 0c-10,334 -13,584 -17,695 -3,553 341,1158 1474,935 515,-100 601,-688 608,-1029l-7 -246c0,-206 0,-439 0,-682l-219 -129 219 129c11,-1408 39,-3278 39,-3278 0,-1700 834,-3418 2033,-4155l1092 -674c1916,-1182 2166,42 2166,1742 0,0 -24,1432 -45,2656l104 -59 -104 59c-14,716 -21,1363 -21,1599 0,0 73,720 1043,647 872,-70 778,-744 778,-744 0,-146 4,-407 7,-737l0 0c28,-1693 112,-5243 112,-5243 0,-2388 -1676,-3483 -3744,-2447l-1892 949c-2068,1036 -3511,3448 -3511,5833zm7478 0l0 0 0 0 0 0z"/>
   <path class="fil2" d="M42317 44671c1793,-831 2040,-726 2054,-469 0,0 -14,229 -21,424 -427,195 -1376,622 -2391,1081l-112 -820 470 -216 0 0zm5847 -1098l-2103 556c14,-268 62,-841 62,-841 -21,-365 -1609,38 -3549,897l-779 344 -125 -915c-14,-104 -222,-104 -556,-27 -91,17 -188,45 -299,76 -73,24 -153,49 -237,77 -55,10 -114,20 -180,38l-14 3 -254 66c-403,119 -914,317 -1471,571l-18084 8287c-664,306 -1498,852 -2131,1335 -1477,1130 -2166,2952 518,2389 2722,-578 6709,-2771 9324,-3970l6619 -3042c-14,20 -21,41 -21,52 21,271 619,247 1568,-4 1192,-313 2385,-629 3577,-942 -14,4 -28,7 -38,11 963,-251 2305,-744 3779,-1415 2892,-1321 5207,-2827 5169,-3365 -17,-230 -740,-181 -775,-181l0 0z"/>
   <path class="fil31" d="M51599 17426c0,-45 3,-69 3,-69 0,0 4307,-1067 6703,-3132 2169,-1871 3640,-3553 3893,-3852 28,-32 42,-49 42,-49 3401,2162 7108,-800 9764,-2875 -31,4118 -724,8741 -1959,12588 -3602,11198 -10238,15425 -10238,15425 0,0 -1906,-274 -3828,-1474 -1554,-970 -3122,-2545 -3695,-5079 -842,-3713 -703,-10697 -685,-11483l0 0zm2499 9835c1005,4600 6018,5764 6018,5764 0,0 5448,-3681 8121,-12404 567,-1727 932,-3521 1168,-5093 379,-2482 435,-4411 438,-4641 0,-17 0,-24 0,-24 0,0 -2938,2044 -4742,2263 -1804,223 -3021,-431 -3021,-431 0,0 -1220,1471 -3118,3122 -1898,1651 -5305,2479 -5305,2479 0,0 -258,5770 441,8965l0 0z"/>
   <path class="fil32" d="M66348 31429l-70 35c-421,-650 -1523,-125 -2124,-271 -674,-202 -1074,-1116 -914,-1756 438,240 598,480 1116,560 396,80 834,-42 1195,118 595,240 717,758 797,1314l0 0z"/>
   <path class="fil11" d="M66634 33150c317,915 1672,1155 2389,1631 -915,556 -2031,598 -3028,281 -1036,-319 -2667,-879 -3706,-319 521,319 1995,796 1874,1633 -80,598 -1036,637 -797,1433 143,459 1308,639 1933,1008l0 1860c-7,14 -14,28 -21,38 80,-674 -1116,-1032 -1592,-1314 -716,-396 -1595,-994 -1912,-1752 -240,-518 38,-1074 -160,-1592 -160,-560 -678,-678 -1154,-876 -799,-320 -1672,-518 -2510,-637 1036,-559 2190,-1195 3383,-1154 639,39 1196,275 1835,317 556,41 1154,-42 1752,118 -758,-435 -1474,-1074 -1634,-1989 717,118 998,793 1833,835 497,27 1053,-7 1581,-108l108 573c-59,7 -118,7 -174,14l0 0z"/>
   <path class="fil0" d="M73373 64401c-1147,-79 -1709,-741 -1254,-1478 455,-736 1755,-1269 2902,-1190 1147,79 1709,741 1254,1477 -455,737 -1754,1270 -2902,1191z"/>
   <path class="fil20" d="M57314 35214c424,0 978,-130 1203,355 -637,88 -1191,592 -1906,519 -786,-88 -1180,-615 -1092,-1447 481,527 1138,573 1795,573l0 0z"/>
  </g>
 </g>
</svg>
