<?xml version="1.0" encoding="UTF-8"?>
<!DOCTYPE svg PUBLIC "-//W3C//DTD SVG 1.1//EN" "http://www.w3.org/Graphics/SVG/1.1/DTD/svg11.dtd">
<!-- Creator: CorelDRAW X7 -->
<svg xmlns="http://www.w3.org/2000/svg" xml:space="preserve" width="3.41102in" height="1.07992in" version="1.1" style="shape-rendering:geometricPrecision; text-rendering:geometricPrecision; image-rendering:optimizeQuality; fill-rule:evenodd; clip-rule:evenodd"
viewBox="0 0 34110 10799"
 xmlns:xlink="http://www.w3.org/1999/xlink">
 <defs>
  <style type="text/css">
   <![CDATA[
    .fil0 {fill:#D2AE6D}
    .fil2 {fill:#746549}
    .fil3 {fill:white}
    .fil1 {fill:white;fill-rule:nonzero}
   ]]>
  </style>
 </defs>
 <g id="Layer_x0020_1">
  <metadata id="CorelCorpID_0Corel-Layer"/>
  <g id="_1503031230800">
   <path class="fil0" d="M5399 0l23312 0c2969,0 5399,2430 5399,5399 0,2970 -2429,5400 -5399,5400l-23312 0c-2969,0 -5399,-2430 -5399,-5399 0,-2970 2429,-5400 5399,-5400z"/>
   <path class="fil1" d="M5711 6145l-122 0c-135,0 -263,-59 -385,-178 -34,40 -73,72 -119,98 -46,26 -95,46 -148,61 -52,15 -106,26 -160,32 -54,6 -106,9 -155,9 -38,0 -77,-2 -117,-6 -39,-5 -84,-13 -134,-23 -50,-11 -107,-25 -172,-43 -64,-18 -141,-40 -231,-67l108 -362c62,24 126,45 192,64 65,19 129,34 192,46 63,11 123,19 180,22 58,4 109,3 155,-3 45,-7 84,-18 115,-34 33,-17 54,-40 65,-68 5,-12 8,-23 8,-32 0,-10 -3,-21 -9,-35 -5,-13 -14,-29 -26,-48 -13,-18 -28,-42 -47,-73l-538 -756 318 -204 541 819c29,44 60,91 92,138 32,48 65,91 97,130 33,39 64,70 94,96 30,25 58,38 84,38l122 0 0 379zm587 -378c20,0 36,5 46,16 11,11 16,25 16,42l0 259c0,22 -5,38 -16,47 -10,9 -26,14 -46,14l-633 0c-22,0 -39,-5 -47,-14 -9,-9 -14,-25 -14,-47l0 -259c0,-17 5,-31 14,-42 8,-11 25,-16 47,-16l633 0zm1605 0l0 378 -225 0c-86,0 -164,-12 -235,-35 -70,-24 -130,-58 -179,-103 -56,47 -123,82 -200,104 -78,22 -166,34 -265,34l-524 0 0 -378 524 0c62,0 111,-6 148,-17 37,-12 64,-26 83,-43 19,-17 31,-37 37,-58 6,-21 8,-42 8,-62l0 -491 376 0 0 480c0,46 10,81 30,107 20,26 43,45 69,58 26,12 51,20 76,22 26,3 43,4 52,4l225 0zm-616 1210l-254 -257 251 -261 260 261 -257 257zm-635 1l-254 -257 250 -261 260 261 -256 257zm2444 -1211l0 378 -95 0c-86,0 -165,-12 -235,-35 -71,-24 -131,-58 -179,-103 -57,47 -123,82 -201,104 -77,22 -165,34 -264,34l-268 0 0 -378 268 0c62,0 111,-6 148,-17 36,-12 64,-26 83,-43 18,-17 31,-37 36,-58 6,-21 9,-42 9,-62l0 -491 376 0 0 480c0,46 10,81 30,107 20,26 43,45 69,58 26,12 51,20 76,22 25,3 42,4 52,4l95 0zm-871 -1370l273 -275 278 279 -276 275 -275 -279zm826 1748l0 -378 886 0c16,0 38,-1 67,-2 28,-2 56,-5 83,-12 27,-7 51,-16 71,-29 19,-13 29,-30 29,-52 0,-44 -16,-96 -49,-158 -33,-62 -75,-127 -127,-197 -51,-70 -109,-140 -173,-211 -64,-71 -128,-139 -191,-201 -63,-64 -123,-119 -178,-168 -56,-48 -100,-85 -134,-109l31 -342 1318 -604 138 331 -1109 489c38,38 81,80 130,128 47,47 97,97 147,150 50,53 101,109 151,165 50,57 97,115 141,171 44,58 83,114 117,168 35,54 61,106 80,154 17,43 30,84 37,123 7,40 10,75 10,108 0,40 -3,76 -11,106 -7,30 -16,56 -25,77 -12,28 -31,58 -56,93 -25,34 -60,66 -105,95 -45,29 -102,54 -170,74 -68,21 -151,31 -248,31l-860 0zm4695 815l-727 0c-84,0 -168,-8 -251,-23 -83,-15 -163,-38 -238,-69 -76,-31 -146,-70 -211,-118 -65,-48 -121,-105 -169,-170 -48,-65 -85,-139 -112,-222 -27,-83 -40,-175 -40,-277 0,-129 26,-248 77,-357 51,-108 125,-204 220,-286 51,-43 105,-80 163,-112 57,-31 117,-56 181,-74 -31,-38 -56,-76 -75,-114 -19,-38 -33,-74 -44,-109 -10,-35 -16,-68 -19,-97 -3,-30 -5,-57 -5,-80 0,-88 18,-172 54,-250 36,-77 84,-146 144,-203 60,-59 130,-104 210,-138 80,-33 164,-50 251,-50 57,0 109,6 157,19 48,11 94,28 139,50 45,21 90,45 134,73 44,28 90,57 137,88l-168 305c-64,-36 -115,-65 -155,-85 -40,-21 -74,-37 -101,-47 -28,-11 -52,-18 -73,-21 -21,-3 -44,-4 -70,-4 -34,0 -69,6 -104,18 -36,12 -67,29 -96,52 -29,23 -52,50 -71,82 -18,33 -27,70 -27,111 0,25 9,58 29,97 19,38 53,79 103,121l-2 -1c62,48 144,86 247,112 102,26 221,39 356,39l170 0 0 377 -894 0c-50,0 -104,10 -163,29 -60,18 -116,47 -167,87 -52,39 -95,89 -130,150 -35,60 -52,133 -52,218 0,81 14,149 41,206 28,56 64,103 108,140 43,37 91,66 143,86 53,21 104,37 153,48 49,10 93,16 133,19 40,1 69,2 87,2l727 0 0 378zm503 -379c81,0 153,-3 216,-9 64,-5 120,-13 169,-24 48,-10 91,-24 128,-41 37,-16 69,-36 97,-60 42,-34 74,-74 96,-119 21,-46 34,-107 39,-183l-234 0c-50,0 -102,-4 -155,-13 -52,-7 -103,-21 -151,-41 -49,-20 -94,-45 -137,-77 -43,-31 -81,-70 -112,-116 -32,-46 -57,-100 -76,-162 -19,-63 -28,-135 -28,-216 0,-69 6,-132 18,-185 12,-54 27,-102 46,-144 19,-41 40,-77 63,-108 23,-31 46,-58 67,-81 60,-61 129,-107 206,-140 76,-33 159,-49 248,-49 111,0 205,19 283,57 78,37 142,90 192,156 50,67 87,146 110,238 23,91 35,190 35,297l0 538c0,151 -23,277 -68,379 -46,103 -115,191 -207,265 -47,37 -98,68 -152,95 -55,27 -116,49 -183,67 -68,18 -144,32 -227,40 -83,9 -177,13 -283,13l0 -377zm500 -1391c-85,0 -154,27 -204,80 -51,54 -76,137 -76,250 0,45 9,82 27,114 17,31 40,57 68,77 27,19 58,34 93,42 34,10 69,14 103,14l234 0 0 -206c0,-58 -5,-106 -14,-148 -9,-41 -21,-75 -36,-102 -14,-27 -31,-49 -50,-65 -19,-16 -37,-28 -54,-36 -18,-8 -35,-14 -51,-16 -17,-3 -29,-4 -40,-4zm2073 955l-57 0c-42,0 -81,-3 -118,-8 -37,-5 -73,-19 -108,-42 -12,130 -42,248 -89,354 -48,106 -111,197 -191,272 -79,75 -174,134 -284,175 -110,41 -234,62 -371,62l-189 0 0 -377 189 0c97,0 181,-10 252,-30 70,-21 128,-53 174,-98 45,-44 79,-102 101,-173 23,-71 34,-158 34,-260l0 -923 377 0 0 454c0,46 10,84 29,112 20,28 43,50 69,65 25,16 50,27 75,32 24,5 41,7 50,7l57 0 0 378zm576 -378c20,0 36,5 46,16 11,11 16,25 16,42l0 259c0,22 -5,38 -16,47 -10,9 -26,14 -46,14l-633 0c-23,0 -39,-5 -48,-14 -8,-9 -13,-25 -13,-47l0 -259c0,-17 5,-31 13,-42 9,-11 25,-16 48,-16l633 0zm627 0c20,0 36,5 46,16 11,11 16,25 16,42l0 259c0,22 -5,38 -16,47 -10,9 -26,14 -46,14l-633 0c-22,0 -38,-5 -47,-14 -9,-9 -14,-25 -14,-47l0 -259c0,-17 5,-31 14,-42 9,-11 25,-16 47,-16l633 0zm1126 374c-185,0 -332,-48 -440,-144 -55,52 -117,89 -185,113 -67,23 -137,35 -209,35l-341 0 0 -378 341 0c13,0 30,-2 53,-6 22,-4 45,-14 68,-29 23,-16 42,-39 59,-70 18,-31 27,-74 27,-128l0 -6 0 -431 377 0 0 431c0,83 19,143 58,181 39,38 103,57 192,57 12,0 29,-3 52,-7 23,-4 46,-15 68,-31 23,-16 43,-40 60,-72 17,-32 26,-75 26,-128l0 -431 375 0 0 431c0,83 20,144 60,183 40,39 105,58 195,58 13,0 31,-3 54,-8 23,-6 45,-17 67,-34 22,-16 42,-41 58,-72 16,-31 24,-74 24,-127 0,-22 -1,-49 -5,-81 -4,-31 -8,-64 -14,-99 -5,-35 -12,-70 -19,-106 -7,-36 -14,-70 -21,-102 -7,-32 -14,-61 -20,-88 -7,-26 -12,-47 -16,-62l356 -116c1,6 6,23 12,48 6,25 13,57 22,94 9,37 17,79 26,124 9,46 18,91 25,137 8,46 14,91 19,135 5,44 8,83 8,116 0,103 -17,193 -51,270 -34,78 -78,142 -132,193 -55,51 -116,89 -185,114 -69,25 -138,38 -208,40 -188,0 -336,-50 -446,-149 -55,51 -116,89 -184,111 -67,23 -136,34 -206,34zm357 -1713l-258 261 -257 -258 257 -260 258 257zm650 -6l-254 258 -266 -255 261 -260 259 257zm-335 -427l-242 242 -240 -239 243 -242 239 239z"/>
   <polygon class="fil2" points="23087,1563 22775,1563 22775,9236 23087,9236 "/>
   <polygon class="fil3" points="22618,1563 22775,1563 22775,9236 22618,9236 "/>
   <path class="fil3" d="M26909 5496l0 0 0 -193 0 0 0 -22 3459 0 -1298 -1298 169 -170 1587 1587 -1587 1587 -169 -169 1298 -1300 -3459 0 0 -22zm-1861 -96c0,-1021 396,-1981 1118,-2702 722,-721 1680,-1119 2701,-1117 1020,0 1978,396 2700,1118 722,720 1118,1680 1118,2701 0,1020 -396,1980 -1118,2700 -722,722 -1680,1119 -2700,1119 -1021,1 -1979,-397 -2701,-1118 -722,-721 -1118,-1681 -1118,-2701zm7399 0c0,-957 -372,-1856 -1048,-2533 -677,-676 -1575,-1048 -2532,-1048 -958,0 -1856,372 -2532,1048 -677,677 -1049,1576 -1049,2533 0,957 372,1855 1049,2532 676,676 1574,1049 2532,1049 957,0 1855,-373 2532,-1049 676,-677 1048,-1575 1048,-2532z"/>
  </g>
 </g>
</svg>
