<?xml version="1.0" encoding="UTF-8"?>
<!DOCTYPE svg PUBLIC "-//W3C//DTD SVG 1.1//EN" "http://www.w3.org/Graphics/SVG/1.1/DTD/svg11.dtd">
<!-- Creator: CorelDRAW X7 -->
<svg xmlns="http://www.w3.org/2000/svg" xml:space="preserve" width="22.8155in" height="7.0585in" version="1.1" style="shape-rendering:geometricPrecision; text-rendering:geometricPrecision; image-rendering:optimizeQuality; fill-rule:evenodd; clip-rule:evenodd"
viewBox="0 0 228155 70585"
 xmlns:xlink="http://www.w3.org/1999/xlink">
 <defs>
  <style type="text/css">
   <![CDATA[
    .fil0 {fill:#F5ECDE}
    .fil1 {fill:#FAF6F0}
   ]]>
  </style>
 </defs>
 <g id="Layer_x0020_1">
  <metadata id="CorelCorpID_0Corel-Layer"/>
  <g id="_1503132916752">
   <path class="fil0" d="M0 51437c52967,16291 119532,1892 127770,-51437l-72977 0c11396,35764 -26300,44122 -54793,36443l0 14994z"/>
   <path class="fil1" d="M0 59531c27525,11004 55928,14641 86221,7015 21152,-5325 39380,-14826 62263,-22000 28992,-9090 58353,-11218 79671,18197l0 -62743 -126453 0c-2792,24479 -17696,43388 -44947,49603 -17863,4073 -38391,2172 -56755,-2963l0 12891z"/>
   <path class="fil1" d="M0 26632l0 -26632 32491 0c4153,17992 -15390,32118 -32491,26632z"/>
  </g>
 </g>
</svg>
