<?xml version="1.0" encoding="UTF-8"?>
<!DOCTYPE svg PUBLIC "-//W3C//DTD SVG 1.1//EN" "http://www.w3.org/Graphics/SVG/1.1/DTD/svg11.dtd">
<!-- Creator: CorelDRAW X7 -->
<svg xmlns="http://www.w3.org/2000/svg" xml:space="preserve" width="6.39999in" height="3.59999in" version="1.1" style="shape-rendering:geometricPrecision; text-rendering:geometricPrecision; image-rendering:optimizeQuality; fill-rule:evenodd; clip-rule:evenodd"
viewBox="0 0 64000 36000"
 xmlns:xlink="http://www.w3.org/1999/xlink">
 <defs>
  <style type="text/css">
   <![CDATA[
    .fil0 {fill:none}
    .fil7 {fill:white}
    .fil5 {fill:#D1A85D;fill-rule:nonzero}
    .fil1 {fill:#D7B77D;fill-rule:nonzero}
    .fil4 {fill:#DFC596;fill-rule:nonzero}
    .fil3 {fill:#E3CCA2;fill-rule:nonzero}
    .fil2 {fill:#EDDEC2;fill-rule:nonzero}
    .fil6 {fill:white;fill-rule:nonzero}
   ]]>
  </style>
 </defs>
 <g id="Layer_x0020_1">
  <metadata id="CorelCorpID_0Corel-Layer"/>
  <g id="_1970863954864">
   <rect class="fil0" width="64000" height="36000"/>
   <g>
    <g>
     <path class="fil1" d="M30336 29775c0,243 -197,440 -440,440 -243,0 -440,-197 -440,-440 0,-243 197,-440 440,-440 243,0 440,197 440,440z"/>
     <path class="fil2" d="M30326 29867c-42,199 -218,348 -430,348 -243,0 -440,-197 -440,-440 0,-56 10,-109 29,-158 71,20 177,55 335,114 232,87 392,126 506,136z"/>
     <path class="fil3" d="M29896 29335c179,0 333,107 401,260 -67,2 -142,9 -222,23 -196,34 -397,-63 -510,-133 81,-92 199,-150 331,-150z"/>
     <path class="fil4" d="M29459 29830c141,16 290,53 427,129 121,67 217,117 293,153 -76,64 -175,103 -283,103 -224,0 -410,-168 -437,-385z"/>
     <path class="fil5" d="M30080 29478c-223,0 -403,180 -403,403 0,137 69,259 174,332 -222,-23 -395,-210 -395,-438 0,-243 197,-440 440,-440 146,0 276,71 356,181 -52,-25 -111,-38 -172,-38z"/>
    </g>
    <g>
     <path class="fil1" d="M17992 17190c0,-155 126,-280 280,-280 155,0 280,125 280,280 0,154 -125,279 -280,279 -154,0 -280,-125 -280,-279z"/>
     <path class="fil2" d="M17998 17131c27,-126 140,-221 274,-221 155,0 280,125 280,280 0,35 -7,69 -19,100 -44,-13 -112,-35 -213,-73 -147,-55 -249,-79 -322,-86z"/>
     <path class="fil3" d="M18272 17469c-114,0 -211,-67 -255,-165 43,-1 90,-5 141,-14 125,-22 252,40 325,84 -52,59 -127,95 -211,95z"/>
     <path class="fil4" d="M18550 17155c-90,-10 -184,-34 -271,-82 -77,-43 -139,-75 -187,-98 49,-40 112,-65 180,-65 143,0 261,107 278,245z"/>
     <path class="fil5" d="M18155 17379c142,0 256,-115 256,-257 0,-87 -43,-164 -110,-211 141,15 251,134 251,279 0,154 -125,279 -280,279 -93,0 -175,-45 -226,-115 33,16 70,25 109,25z"/>
    </g>
    <path class="fil6" d="M63085 11239c-71,39 -161,16 -204,-55l-1 1c42,71 20,161 -48,205 71,-39 161,-15 204,56l1 -1c-43,-71 -21,-162 48,-206l0 0z"/>
    <path class="fil6" d="M38664 15082c-59,-2 -107,-51 -107,-110l-1 0c0,59 -48,108 -107,110 60,2 107,50 107,110l1 0c0,-60 47,-108 107,-110l0 0z"/>
    <path class="fil6" d="M35319 9972c-34,-19 -78,-7 -98,26l-1 0c20,-34 10,-77 -23,-99 34,19 78,8 98,-26l1 0c-21,34 -10,78 23,99l0 0z"/>
    <path class="fil6" d="M26984 7011c25,13 56,3 69,-22 13,-26 3,-57 -22,-70 -26,-13 -57,-3 -70,22 -13,25 -3,57 23,70l0 0z"/>
    <path class="fil6" d="M55244 8650c-35,-19 -78,-8 -98,26l-1 0c20,-34 10,-78 -23,-99 34,19 78,8 98,-27l0 1c-20,34 -9,78 24,99l0 0z"/>
    <path class="fil6" d="M23892 20463c59,2 106,50 106,110l1 0c1,-60 48,-108 107,-110 -59,-2 -107,-51 -107,-111l-1 0c0,60 -47,109 -106,111l0 0z"/>
    <path class="fil6" d="M31430 26176c39,0 71,-32 72,-72l0 0c0,40 31,72 70,74 -39,1 -71,33 -72,73l0 0c0,-40 -31,-73 -70,-75l0 0z"/>
    <path class="fil6" d="M53683 24654c-123,7 -220,111 -218,236l-2 0c-4,-125 -105,-224 -229,-225 124,-7 221,-112 218,-238l2 0c3,126 105,226 229,227l0 0z"/>
    <path class="fil6" d="M35572 28534c-26,-13 -57,-3 -70,22 -13,25 -3,56 23,70 25,13 56,3 69,-22 13,-26 3,-57 -22,-70l0 0z"/>
    <path class="fil6" d="M44032 19694c-32,18 -72,7 -91,-24l-1 0c19,32 9,73 -21,92 32,-18 72,-7 91,25l1 0c-19,-32 -10,-73 21,-93l0 0z"/>
    <path class="fil6" d="M45348 19457c-34,18 -77,7 -98,-27l-1 1c21,34 10,77 -23,98 35,-19 78,-7 98,27l1 0c-21,-34 -10,-78 23,-99l0 0z"/>
    <path class="fil6" d="M25058 25185c39,0 71,-32 72,-71l0 0c0,39 31,72 70,73 -40,1 -71,33 -72,73l-1 0c1,-40 -30,-73 -69,-75l0 0z"/>
    <path class="fil6" d="M24827 30124c39,0 71,-32 72,-71l1 0c-1,39 30,71 69,73 -39,1 -71,33 -72,73l0 0c1,-40 -30,-73 -70,-75l0 0z"/>
    <path class="fil6" d="M27264 27391c39,0 71,-32 72,-71l0 0c0,39 31,72 70,74 -40,0 -71,32 -72,72l0 0c0,-40 -31,-73 -70,-75l0 0z"/>
    <path class="fil6" d="M23739 27406c39,-1 71,-32 71,-72l1 0c0,40 31,72 70,74 -40,1 -72,32 -72,72l-1 0c1,-40 -30,-72 -69,-74l0 0z"/>
    <path class="fil6" d="M19589 24146c40,-1 71,-32 72,-72l1 0c-1,40 30,72 69,74 -39,1 -71,33 -71,73l-1 0c1,-40 -30,-73 -70,-75l0 0z"/>
    <path class="fil6" d="M16484 30879c39,-1 70,-33 71,-72l1 0c-1,39 30,72 69,74 -39,0 -71,32 -71,72l-1 0c1,-40 -30,-72 -69,-74l0 0z"/>
    <path class="fil6" d="M21072 22599c39,-1 71,-33 71,-72l1 0c0,39 31,72 70,74 -40,0 -72,32 -72,72l-1 0c1,-40 -30,-72 -69,-74l0 0z"/>
    <path class="fil6" d="M4516 18839c39,-1 71,-32 71,-72l1 0c0,40 31,72 70,74 -40,1 -72,33 -72,73l-1 0c1,-40 -30,-73 -69,-75l0 0z"/>
    <path class="fil6" d="M21137 14560c59,2 106,50 106,110l1 0c1,-60 48,-108 107,-110 -59,-2 -107,-51 -107,-111l-1 0c0,60 -47,109 -106,111l0 0z"/>
    <path class="fil6" d="M8427 12650c59,2 107,50 107,110l1 0c0,-60 47,-108 106,-110 -59,-2 -106,-51 -106,-111l-1 0c0,60 -48,109 -107,111l0 0z"/>
    <path class="fil6" d="M14483 13636c59,2 106,51 106,110l1 0c1,-59 48,-108 107,-110 -59,-2 -107,-50 -107,-110l-1 0c0,60 -47,108 -106,110l0 0z"/>
    <path class="fil6" d="M9488 15744c59,2 106,50 106,110l1 0c1,-60 48,-108 107,-110 -59,-2 -107,-50 -107,-111l-1 0c0,61 -47,109 -106,111l0 0z"/>
    <path class="fil6" d="M5265 15371c59,2 106,50 107,110l1 0c0,-60 47,-108 106,-110 -59,-2 -106,-51 -106,-111l-1 0c0,60 -48,109 -107,111l0 0z"/>
    <path class="fil6" d="M2697 12814c59,2 106,50 106,110l1 0c1,-60 48,-108 107,-110 -59,-2 -107,-51 -107,-111l-1 0c0,60 -47,109 -106,111l0 0z"/>
    <path class="fil6" d="M1449 16240c59,2 106,51 107,110l1 0c0,-59 47,-108 106,-110 -59,-2 -106,-50 -106,-110l-1 0c0,60 -48,108 -107,110l0 0z"/>
    <path class="fil6" d="M3454 16765c59,2 106,50 107,110l0 0c1,-60 48,-108 107,-110 -59,-2 -107,-50 -107,-111l0 0c0,61 -48,109 -107,111l0 0z"/>
    <path class="fil6" d="M7825 18905c59,2 106,50 106,110l1 0c1,-60 48,-108 107,-110 -59,-2 -107,-51 -107,-111l-1 0c0,60 -47,109 -106,111l0 0z"/>
    <path class="fil6" d="M11454 13461c59,2 107,50 107,110l1 0c0,-60 48,-108 107,-110 -60,-2 -107,-51 -107,-111l-1 0c0,60 -47,109 -107,111l0 0z"/>
    <path class="fil6" d="M13455 18773c59,2 106,51 107,110l1 0c0,-59 47,-108 106,-110 -59,-2 -106,-50 -106,-110l-1 0c0,60 -48,108 -107,110l0 0z"/>
    <path class="fil6" d="M12936 16095c59,2 106,50 107,110l1 0c0,-60 47,-108 106,-110 -59,-2 -106,-51 -106,-111l-1 0c0,60 -48,109 -107,111l0 0z"/>
    <path class="fil6" d="M10367 18246c59,2 106,50 107,110l1 0c0,-60 47,-108 106,-110 -59,-2 -106,-51 -106,-111l-1 0c0,60 -48,109 -107,111l0 0z"/>
    <path class="fil6" d="M16590 21110c59,2 106,51 107,111l1 0c0,-60 47,-109 106,-111 -59,-1 -106,-50 -106,-110l-1 0c0,60 -48,109 -107,110l0 0z"/>
    <path class="fil6" d="M10344 22099c59,2 106,50 106,110l1 0c1,-60 48,-108 107,-110 -59,-2 -107,-51 -107,-111l-1 0c0,60 -47,109 -106,111l0 0z"/>
    <path class="fil6" d="M15966 17106c59,2 106,50 107,110l1 0c0,-60 47,-108 106,-110 -59,-2 -106,-51 -106,-111l-1 0c0,60 -48,109 -107,111l0 0z"/>
    <path class="fil6" d="M16056 24222c103,4 186,88 187,193l1 0c1,-105 84,-189 187,-193 -104,-3 -187,-88 -187,-193l-1 0c0,105 -83,190 -187,193l0 0z"/>
    <path class="fil6" d="M13834 22132c39,-1 71,-32 71,-72l1 0c0,40 31,72 70,74 -40,1 -71,32 -72,72l-1 0c1,-40 -30,-72 -69,-74l0 0z"/>
    <path class="fil6" d="M4351 21572c39,-1 71,-32 72,-72l0 0c0,40 31,72 70,74 -39,1 -71,33 -72,72l0 0c0,-39 -31,-72 -70,-74l0 0z"/>
    <path class="fil6" d="M7264 28080c39,-1 71,-32 72,-72l1 0c-1,40 30,72 69,74 -39,1 -71,32 -72,72l0 0c0,-40 -31,-72 -70,-74l0 0z"/>
    <path class="fil6" d="M2639 26346c39,0 71,-32 72,-71l0 0c0,39 31,72 70,73 -39,1 -71,33 -72,73l0 0c0,-40 -31,-73 -70,-75l0 0z"/>
    <path class="fil6" d="M6524 17028c39,0 71,-32 72,-72l1 0c-1,40 30,72 69,74 -39,1 -71,33 -72,73l0 0c0,-40 -31,-73 -70,-75l0 0z"/>
    <path class="fil6" d="M19168 12452c39,-1 71,-33 71,-72l1 0c0,39 31,72 70,74 -40,0 -71,32 -72,72l-1 0c1,-40 -30,-73 -69,-74l0 0z"/>
    <path class="fil6" d="M30864 16675c39,0 71,-32 72,-71l0 0c0,39 31,72 70,73 -39,1 -71,33 -72,73l0 0c0,-40 -31,-73 -70,-75l0 0z"/>
    <path class="fil6" d="M22718 18351c39,0 71,-32 72,-72l0 0c0,40 31,72 70,74 -39,1 -71,33 -72,73l0 0c0,-40 -31,-73 -70,-75l0 0z"/>
    <path class="fil6" d="M21166 27365c39,-1 71,-32 72,-72l1 0c-1,40 30,72 69,74 -39,1 -71,33 -72,72l0 0c0,-40 -31,-72 -70,-74l0 0z"/>
    <path class="fil6" d="M11866 26454c39,0 71,-32 71,-71l1 0c0,39 31,72 70,73 -40,1 -72,33 -72,73l-1 0c1,-40 -30,-73 -69,-75l0 0z"/>
    <path class="fil6" d="M10503 33128c39,-1 71,-32 72,-72l1 0c-1,40 30,72 69,74 -39,1 -71,32 -72,72l0 0c0,-40 -31,-72 -70,-74l0 0z"/>
    <path class="fil6" d="M8233 24593c39,-1 71,-32 71,-72l1 0c0,40 31,72 70,74 -40,1 -72,32 -72,72l-1 0c1,-40 -30,-72 -69,-74l0 0z"/>
    <path class="fil6" d="M2471 31244c39,-1 71,-32 71,-72l1 0c0,40 30,72 69,74 -39,1 -71,32 -71,72l-1 0c1,-40 -30,-72 -69,-74l0 0z"/>
    <path class="fil6" d="M16563 27688c39,-1 71,-32 72,-72l0 0c0,40 31,72 70,74 -39,1 -71,32 -72,72l0 0c0,-40 -31,-72 -70,-74l0 0z"/>
    <path class="fil6" d="M24531 33483c39,-1 71,-32 72,-72l0 0c0,40 31,72 70,74 -39,1 -71,32 -72,72l0 0c0,-40 -31,-72 -70,-74l0 0z"/>
    <path class="fil6" d="M26888 29562c39,-1 71,-33 72,-72l0 0c0,39 31,72 70,74 -39,0 -71,32 -72,72l0 0c0,-40 -31,-73 -70,-74l0 0z"/>
    <path class="fil6" d="M31588 33171c39,-1 71,-32 72,-72l1 0c-1,40 30,72 69,74 -39,1 -71,33 -71,73l-1 0c1,-40 -30,-73 -70,-75l0 0z"/>
    <path class="fil6" d="M46755 11693c39,-1 71,-32 71,-72l1 0c0,40 31,72 70,74 -40,1 -72,33 -72,72l-1 0c1,-39 -30,-72 -69,-74l0 0z"/>
    <path class="fil6" d="M43293 14359c39,0 70,-32 71,-72l1 0c-1,40 30,72 69,74 -39,1 -71,33 -71,73l-1 0c1,-40 -30,-73 -69,-75l0 0z"/>
    <path class="fil6" d="M39078 17882c39,0 71,-32 72,-71l0 0c0,39 31,71 70,73 -39,1 -71,33 -72,73l0 0c0,-40 -31,-73 -70,-75l0 0z"/>
    <path class="fil6" d="M33448 21010c39,0 70,-32 71,-72l1 0c0,40 30,72 69,74 -39,1 -71,33 -71,73l-1 0c1,-40 -30,-73 -69,-75l0 0z"/>
    <path class="fil6" d="M29105 24443c39,-1 71,-33 72,-72l0 0c0,39 31,72 70,74 -39,0 -71,32 -72,72l0 0c0,-40 -31,-73 -70,-74l0 0z"/>
    <path class="fil6" d="M22055 29472c39,-1 71,-32 72,-72l1 0c-1,40 30,72 69,74 -39,1 -71,33 -72,73l0 0c0,-40 -31,-73 -70,-75l0 0z"/>
    <path class="fil6" d="M16688 32995c39,0 71,-32 72,-71l1 0c-1,39 30,71 69,73 -39,1 -71,33 -72,73l0 0c0,-40 -30,-73 -70,-75l0 0z"/>
    <path class="fil6" d="M14548 34510c39,-1 71,-32 72,-72l0 0c0,40 31,72 70,74 -39,1 -71,32 -72,72l0 0c0,-40 -31,-72 -70,-74l0 0z"/>
    <path class="fil6" d="M46690 14419c39,-1 71,-33 71,-72l1 0c0,39 30,72 69,74 -39,0 -71,32 -71,72l-1 0c1,-40 -30,-72 -69,-74l0 0z"/>
    <path class="fil6" d="M43035 15900c40,0 71,-32 72,-71l1 0c-1,39 30,72 69,73 -39,1 -71,33 -71,73l-1 0c1,-40 -30,-73 -70,-75l0 0z"/>
    <path class="fil6" d="M41093 18040c39,0 71,-32 71,-71l1 0c0,39 31,72 70,74 -40,0 -71,32 -72,72l-1 0c1,-40 -30,-73 -69,-75l0 0z"/>
    <path class="fil6" d="M38141 20495c39,-1 70,-33 71,-72l1 0c0,40 30,72 69,74 -39,1 -71,32 -71,72l-1 0c1,-40 -30,-72 -69,-74l0 0z"/>
    <path class="fil6" d="M35362 22862c39,-1 70,-32 71,-72l1 0c0,40 30,72 69,74 -39,1 -71,33 -71,72l-1 0c1,-39 -30,-72 -69,-74l0 0z"/>
    <path class="fil6" d="M32630 23605c39,-1 71,-32 72,-72l1 0c-1,40 30,72 69,74 -39,1 -71,33 -72,72l0 0c0,-40 -30,-72 -70,-74l0 0z"/>
    <path class="fil6" d="M29727 27200c39,0 71,-32 72,-71l0 0c0,39 31,72 70,73 -39,1 -71,33 -72,73l0 0c0,-40 -31,-73 -70,-75l0 0z"/>
    <path class="fil6" d="M21916 32426c39,-1 71,-32 72,-72l1 0c-1,40 30,72 69,74 -39,1 -71,33 -72,73l0 0c0,-40 -31,-73 -70,-75l0 0z"/>
    <path class="fil6" d="M19098 34273c39,-1 71,-32 71,-72l1 0c0,40 31,72 70,74 -40,1 -72,33 -72,72l-1 0c1,-39 -30,-72 -69,-74l0 0z"/>
    <path class="fil6" d="M24399 34471c39,-1 71,-33 72,-72l1 0c-1,39 30,72 69,74 -39,0 -71,32 -72,72l0 0c0,-40 -30,-73 -70,-74l0 0z"/>
    <path class="fil6" d="M28185 32693c39,-1 71,-33 72,-72l1 0c-1,39 30,72 69,74 -39,0 -71,32 -72,72l0 0c0,-40 -30,-73 -70,-74l0 0z"/>
    <path class="fil6" d="M32164 29341c39,-1 70,-33 71,-72l1 0c-1,39 30,72 69,74 -39,0 -71,32 -71,72l-1 0c1,-40 -30,-73 -69,-74l0 0z"/>
    <path class="fil6" d="M30889 30001c59,2 107,50 107,110l1 0c0,-60 48,-108 107,-110 -60,-2 -107,-51 -107,-111l-1 0c0,60 -47,109 -107,111l0 0z"/>
    <path class="fil6" d="M35853 21507c59,2 106,50 107,110l1 0c0,-60 47,-108 106,-110 -59,-2 -107,-51 -107,-111l0 0c0,60 -48,109 -107,111l0 0z"/>
    <path class="fil6" d="M36084 18160c59,2 106,50 107,110l0 0c1,-60 48,-108 107,-110 -59,-2 -107,-51 -107,-111l0 0c0,60 -48,109 -107,111l0 0z"/>
    <path class="fil6" d="M31375 21276c59,2 106,50 107,110l1 0c0,-60 47,-108 106,-110 -59,-2 -106,-51 -106,-111l-1 0c0,60 -48,109 -107,111l0 0z"/>
    <path class="fil6" d="M26931 25150c58,2 106,50 106,110l1 0c1,-60 48,-108 107,-110 -59,-2 -107,-51 -107,-111l-1 0c0,60 -47,109 -106,111l0 0z"/>
    <path class="fil6" d="M20896 30462c59,2 107,50 107,110l1 0c0,-60 48,-108 107,-110 -60,-2 -107,-51 -107,-111l-1 0c0,60 -47,109 -107,111l0 0z"/>
    <path class="fil6" d="M18303 33393c59,2 107,50 107,110l1 0c0,-60 48,-108 107,-110 -60,-2 -107,-51 -107,-111l-1 0c0,60 -47,109 -107,111l0 0z"/>
    <path class="fil6" d="M13661 32821c59,2 107,51 107,110l1 0c0,-59 48,-108 107,-110 -60,-2 -107,-50 -107,-110l-1 0c0,60 -47,108 -107,110l0 0z"/>
    <path class="fil6" d="M17184 25919c59,2 106,50 107,110l1 0c0,-60 47,-108 106,-110 -59,-2 -107,-51 -107,-111l0 0c0,60 -48,109 -107,111l0 0z"/>
    <path class="fil6" d="M43033 12556c39,0 71,-32 71,-72l1 0c0,40 31,72 70,74 -40,1 -72,33 -72,73l-1 0c1,-40 -30,-73 -69,-75l0 0z"/>
    <path class="fil6" d="M41185 14754c39,0 71,-32 72,-71l1 0c-1,39 30,72 69,73 -39,1 -71,33 -72,73l0 0c0,-40 -31,-73 -70,-75l0 0z"/>
    <path class="fil6" d="M40434 12278c39,0 71,-32 72,-71l1 0c-1,39 30,72 69,74 -39,0 -71,32 -72,72l0 0c0,-40 -31,-73 -70,-75l0 0z"/>
    <path class="fil6" d="M36450 13003c39,-1 71,-32 72,-72l1 0c-1,40 30,72 69,74 -39,1 -71,32 -72,72l0 0c0,-40 -31,-72 -70,-74l0 0z"/>
    <path class="fil6" d="M36429 15688c39,-1 70,-33 71,-72l1 0c-1,39 30,72 69,74 -39,0 -71,32 -71,72l-1 0c1,-40 -30,-73 -69,-74l0 0z"/>
    <path class="fil6" d="M34347 17621c39,-1 71,-32 71,-72l1 0c0,40 30,72 69,74 -39,1 -71,33 -71,72l-1 0c1,-40 -30,-72 -69,-74l0 0z"/>
    <path class="fil6" d="M30754 19884c39,0 71,-32 72,-71l0 0c0,39 31,72 70,73 -39,1 -71,33 -72,73l0 0c0,-40 -31,-73 -70,-75l0 0z"/>
    <path class="fil6" d="M32098 18508c39,-1 71,-32 71,-72l1 0c0,40 30,72 69,74 -39,1 -71,32 -71,72l-1 0c1,-40 -30,-72 -69,-74l0 0z"/>
    <path class="fil6" d="M32957 15553c39,-1 71,-33 72,-72l1 0c-1,39 30,72 69,74 -39,0 -71,32 -72,72l0 0c1,-40 -30,-73 -70,-74l0 0z"/>
    <path class="fil6" d="M35428 14294c39,-1 71,-32 72,-72l1 0c-1,40 30,72 69,74 -39,1 -71,33 -72,73l0 0c0,-40 -31,-73 -70,-75l0 0z"/>
    <path class="fil6" d="M34066 12407c39,-1 71,-32 72,-72l0 0c0,40 31,72 70,74 -39,1 -71,33 -72,73l0 0c0,-40 -31,-73 -70,-75l0 0z"/>
    <path class="fil6" d="M30930 12329c39,-1 71,-32 72,-72l0 0c0,40 31,72 70,74 -40,1 -71,33 -72,72l-1 0c1,-39 -30,-72 -69,-74l0 0z"/>
    <path class="fil6" d="M28778 15867c39,0 71,-32 72,-71l0 0c0,39 31,72 70,73 -39,1 -71,33 -72,73l0 0c0,-40 -31,-73 -70,-75l0 0z"/>
    <path class="fil6" d="M27857 19390c39,0 70,-32 71,-71l1 0c0,39 30,72 69,74 -39,0 -71,32 -71,72l-1 0c1,-40 -30,-73 -69,-75l0 0z"/>
    <path class="fil6" d="M25681 21808c39,0 71,-32 72,-71l1 0c-1,39 30,72 69,74 -39,0 -71,32 -72,72l0 0c1,-40 -30,-73 -70,-75l0 0z"/>
    <path class="fil6" d="M28611 21940c39,-1 71,-32 72,-72l0 0c0,40 31,72 70,74 -39,1 -71,33 -72,73l0 0c0,-40 -31,-73 -70,-75l0 0z"/>
    <path class="fil6" d="M31147 24015c39,-1 71,-33 72,-72l0 0c0,39 31,72 70,74 -39,0 -71,32 -72,72l0 0c0,-40 -31,-73 -70,-74l0 0z"/>
    <path class="fil6" d="M23866 23809c39,-1 71,-32 72,-72l0 0c0,40 31,72 70,74 -39,1 -71,33 -72,72l0 0c0,-39 -31,-72 -70,-74l0 0z"/>
    <path class="fil6" d="M21929 25120c40,-1 71,-33 72,-72l1 0c-1,39 30,72 69,74 -39,0 -71,32 -72,72l0 0c1,-40 -30,-73 -70,-74l0 0z"/>
    <path class="fil6" d="M19398 26807c39,0 71,-32 72,-72l1 1c-1,39 30,71 69,73 -39,1 -71,33 -72,73l0 0c0,-40 -30,-73 -70,-75l0 0z"/>
    <path class="fil6" d="M18835 29499c39,-1 71,-33 72,-72l0 0c0,39 31,72 70,74 -40,0 -71,32 -72,72l-1 0c1,-40 -30,-72 -69,-74l0 0z"/>
    <path class="fil6" d="M14031 29606c39,-1 71,-32 72,-72l1 0c-1,40 30,72 69,74 -39,1 -71,33 -72,72l0 0c1,-39 -30,-72 -70,-74l0 0z"/>
    <path class="fil6" d="M14262 26840c39,-1 71,-32 72,-72l0 0c0,40 31,72 70,74 -40,1 -71,33 -72,73l-1 0c1,-40 -30,-73 -69,-75l0 0z"/>
    <path class="fil6" d="M11891 29540c39,-1 71,-32 72,-72l1 0c-1,40 30,72 69,74 -39,1 -71,33 -72,72l0 0c0,-39 -31,-72 -70,-74l0 0z"/>
    <path class="fil6" d="M8796 31878c39,-1 71,-32 72,-72l0 0c0,40 31,72 70,74 -39,1 -71,32 -72,72l0 0c0,-40 -31,-72 -70,-74l0 0z"/>
    <path class="fil6" d="M7907 34347c39,0 71,-32 72,-71l0 0c0,39 31,72 70,73 -39,1 -71,33 -72,73l0 0c0,-40 -31,-73 -70,-75l0 0z"/>
    <path class="fil6" d="M11766 35283c39,0 71,-32 72,-72l0 0c0,40 31,72 70,74 -39,1 -71,33 -72,73l0 0c0,-40 -31,-73 -70,-75l0 0z"/>
    <path class="fil6" d="M12083 31653c39,0 71,-32 72,-71l0 0c0,39 31,72 70,73 -39,1 -71,33 -72,73l0 0c0,-40 -31,-73 -70,-75l0 0z"/>
    <path class="fil6" d="M15343 30139c39,-1 70,-33 71,-72l1 0c0,39 30,72 69,74 -39,1 -71,32 -71,72l-1 0c1,-40 -30,-72 -69,-74l0 0z"/>
    <path class="fil6" d="M19162 20788c39,-1 71,-32 72,-72l0 0c0,40 31,72 70,74 -39,1 -71,32 -72,72l0 0c0,-40 -31,-72 -70,-74l0 0z"/>
    <path class="fil6" d="M14848 20096c39,0 71,-32 72,-71l0 0c0,39 31,72 70,73 -39,1 -71,33 -72,73l0 0c0,-40 -31,-73 -70,-75l0 0z"/>
    <path class="fil6" d="M11858 23251c39,0 71,-32 72,-72l1 0c-1,40 30,72 69,74 -39,1 -71,33 -72,73l0 0c0,-40 -31,-73 -70,-75l0 0z"/>
    <path class="fil6" d="M11792 20090c39,0 71,-32 72,-71l1 0c-1,39 30,72 69,73 -39,1 -71,33 -71,73l-1 0c1,-40 -30,-73 -70,-75l0 0z"/>
    <path class="fil6" d="M8697 20979c39,0 71,-32 72,-71l1 0c-1,39 30,72 69,73 -39,1 -71,33 -72,73l0 0c1,-40 -30,-73 -70,-75l0 0z"/>
    <path class="fil6" d="M6788 23449c39,-1 71,-32 71,-72l1 0c0,40 30,72 69,74 -39,1 -71,32 -71,72l-1 0c1,-40 -30,-72 -69,-74l0 0z"/>
    <path class="fil6" d="M1454 19531c39,-1 70,-33 71,-72l1 0c0,39 30,72 69,74 -39,0 -71,32 -71,72l-1 0c1,-40 -30,-72 -69,-74l0 0z"/>
    <path class="fil6" d="M1717 23811c39,-1 71,-32 72,-72l0 0c0,40 31,72 70,74 -39,1 -71,33 -72,72l0 0c0,-39 -31,-72 -70,-74l0 0z"/>
    <path class="fil6" d="M7446 26939c39,-1 71,-32 72,-72l1 0c-1,40 30,72 69,74 -39,1 -71,33 -72,72l0 0c0,-39 -31,-72 -70,-74l0 0z"/>
    <path class="fil6" d="M4911 34018c39,-1 71,-32 72,-72l0 0c0,40 31,72 70,74 -39,1 -71,33 -72,72l-1 0c1,-39 -30,-72 -69,-74l0 0z"/>
    <path class="fil6" d="M6582 20486c59,2 106,50 106,110l1 0c1,-60 48,-108 107,-110 -59,-2 -107,-51 -107,-111l0 0c0,60 -48,109 -107,111l0 0z"/>
    <path class="fil6" d="M543 17925c59,2 106,50 107,110l1 0c0,-60 47,-108 106,-110 -59,-2 -106,-50 -106,-111l-1 0c0,61 -48,109 -107,111l0 0z"/>
    <path class="fil6" d="M358 12621c86,3 154,73 154,159l2 0c0,-86 68,-156 154,-159 -86,-3 -154,-73 -154,-160l-2 0c0,87 -68,157 -154,160l0 0z"/>
    <path class="fil6" d="M2300 22426c39,-1 71,-32 71,-72l1 0c0,40 30,72 69,74 -39,1 -71,33 -71,72l-1 0c1,-39 -30,-72 -69,-74l0 0z"/>
    <path class="fil6" d="M26505 12556c39,0 70,-32 71,-72l1 1c-1,39 30,71 69,73 -39,1 -71,33 -71,73l-1 0c1,-40 -30,-73 -69,-75l0 0z"/>
    <path class="fil6" d="M17068 14403c39,0 71,-32 72,-71l0 0c0,39 31,72 70,74 -39,0 -71,32 -72,72l0 0c0,-40 -31,-73 -70,-75l0 0z"/>
    <path class="fil6" d="M37076 25251c39,0 71,-32 71,-72l1 0c0,40 31,72 70,74 -40,1 -71,33 -72,73l-1 0c1,-40 -30,-73 -69,-75l0 0z"/>
    <path class="fil6" d="M33985 25227c39,-1 70,-32 71,-72l1 0c-1,40 30,72 69,74 -39,1 -71,32 -71,72l-1 0c1,-40 -30,-72 -69,-74l0 0z"/>
    <path class="fil6" d="M26576 15777c39,-1 71,-32 72,-72l0 0c0,40 31,72 70,74 -39,1 -71,33 -72,72l0 0c0,-39 -31,-72 -70,-74l0 0z"/>
    <path class="fil6" d="M22450 15775c39,-1 71,-32 72,-72l1 0c-1,40 30,72 69,74 -39,1 -71,33 -72,72l0 0c1,-39 -30,-72 -70,-74l0 0z"/>
    <path class="fil6" d="M20525 18157c39,-1 71,-32 72,-72l1 0c-1,40 30,72 69,74 -39,1 -71,33 -72,72l0 0c0,-39 -31,-72 -70,-74l0 0z"/>
    <path class="fil6" d="M26110 31811c39,-1 71,-32 72,-72l0 0c0,40 31,72 70,74 -39,1 -71,32 -72,72l0 0c0,-40 -31,-72 -70,-74l0 0z"/>
    <path class="fil6" d="M9550 27885c39,0 71,-32 71,-71l1 0c0,39 31,72 70,73 -40,1 -72,33 -72,73l-1 0c1,-40 -30,-73 -69,-75l0 0z"/>
    <path class="fil6" d="M10998 27885c39,0 71,-32 72,-71l0 0c0,39 31,72 70,73 -39,1 -71,33 -72,73l0 0c0,-40 -31,-73 -70,-75l0 0z"/>
    <path class="fil6" d="M10866 26147c39,0 70,-32 71,-71l1 0c-1,39 30,72 69,74 -39,0 -71,32 -71,72l-1 0c1,-40 -30,-73 -69,-75l0 0z"/>
    <path class="fil6" d="M12216 25152c39,0 71,-32 72,-71l1 0c-1,39 30,72 69,74 -39,0 -71,32 -72,72l0 0c0,-40 -31,-73 -70,-75l0 0z"/>
    <path class="fil6" d="M10564 24072c39,0 71,-32 72,-71l0 0c0,39 31,72 70,73 -39,1 -71,33 -72,73l0 0c0,-40 -31,-73 -70,-75l0 0z"/>
    <path class="fil6" d="M5861 25785c39,0 71,-32 71,-71l1 0c0,39 31,72 70,73 -40,1 -72,33 -72,73l-1 0c1,-40 -30,-73 -69,-75l0 0z"/>
    <path class="fil6" d="M5141 27894c39,-1 71,-32 72,-72l1 0c-1,40 30,72 69,74 -39,1 -71,32 -72,72l0 0c1,-40 -30,-72 -70,-74l0 0z"/>
    <path class="fil6" d="M4812 30330c39,0 71,-32 72,-71l0 0c0,39 31,72 70,73 -39,1 -71,33 -72,73l0 0c0,-40 -31,-73 -70,-75l0 0z"/>
    <path class="fil6" d="M5076 29540c39,-1 70,-32 71,-72l1 0c-1,40 30,72 69,74 -39,1 -71,33 -71,72l-1 0c1,-39 -30,-72 -69,-74l0 0z"/>
    <path class="fil6" d="M3726 28651c39,-1 70,-32 71,-72l1 0c0,40 30,72 69,74 -39,1 -71,33 -71,72l-1 0c1,-39 -30,-72 -69,-74l0 0z"/>
    <path class="fil6" d="M4252 26676c39,-1 71,-33 72,-72l1 0c-1,39 30,72 69,74 -39,0 -71,32 -72,72l0 0c1,-40 -30,-73 -70,-74l0 0z"/>
    <path class="fil6" d="M43856 29151c39,-1 71,-32 72,-72l0 0c0,40 31,72 70,74 -40,1 -71,33 -72,72l-1 0c1,-39 -30,-72 -69,-74l0 0z"/>
    <path class="fil6" d="M44647 17166c39,-1 71,-32 71,-72l1 0c0,40 30,72 70,74 -40,1 -72,32 -72,72l-1 0c1,-40 -30,-72 -69,-74l0 0z"/>
    <path class="fil6" d="M41558 20453c39,-1 70,-33 71,-72l1 0c-1,39 30,72 69,74 -39,0 -71,32 -71,72l-1 0c1,-40 -30,-73 -70,-74l1 0z"/>
    <path class="fil6" d="M45766 25430c39,0 71,-32 72,-71l1 0c-1,39 30,72 69,73 -39,1 -71,33 -72,73l0 0c0,-40 -31,-73 -70,-75l0 0z"/>
    <path class="fil6" d="M39971 26550c39,-1 70,-32 71,-72l1 0c0,40 30,72 69,74 -39,1 -71,32 -71,72l-1 0c1,-40 -30,-72 -69,-74l0 0z"/>
    <path class="fil6" d="M37870 32207c39,-1 71,-32 71,-72l1 0c0,40 31,72 70,74 -40,1 -72,33 -72,72l-1 0c1,-39 -30,-72 -69,-74l0 0z"/>
    <path class="fil6" d="M23926 13011c58,2 106,51 106,110l1 0c0,-59 48,-108 107,-110 -60,-2 -107,-50 -107,-110l-1 0c0,60 -47,108 -107,110l1 0z"/>
    <path class="fil6" d="M25481 18104c59,2 106,50 106,110l1 0c1,-60 48,-108 107,-110 -59,-2 -107,-51 -107,-111l0 0c-1,60 -48,109 -107,111l0 0z"/>
    <path class="fil6" d="M16163 12090c59,2 107,50 107,110l1 0c0,-60 48,-108 106,-110 -59,-2 -106,-51 -106,-111l-1 0c0,60 -48,109 -107,111l0 0z"/>
    <path class="fil6" d="M15769 14152c59,2 106,51 106,111l1 0c1,-60 48,-109 107,-111 -59,-2 -107,-50 -107,-110l-1 0c0,60 -47,108 -106,110l0 0z"/>
    <path class="fil6" d="M15275 15140c59,2 106,50 106,110l1 0c1,-60 48,-108 107,-110 -59,-2 -107,-50 -107,-111l-1 0c0,61 -47,109 -106,111l0 0z"/>
    <path class="fil6" d="M13307 14460c59,2 106,50 107,110l1 0c0,-60 47,-108 106,-110 -59,-2 -106,-51 -106,-111l-1 0c0,60 -48,109 -107,111l0 0z"/>
    <path class="fil6" d="M9586 23844c59,2 107,50 107,110l1 0c0,-60 48,-108 107,-110 -60,-2 -107,-51 -107,-111l-1 0c0,60 -47,109 -107,111l0 0z"/>
    <path class="fil6" d="M10212 24667c59,2 106,50 107,110l1 0c0,-60 47,-108 106,-110 -59,-2 -107,-51 -107,-111l0 0c0,60 -48,109 -107,111l0 0z"/>
    <path class="fil6" d="M12672 24008c59,2 106,50 106,110l1 0c1,-60 48,-108 107,-110 -59,-2 -107,-51 -107,-111l0 0c0,60 -48,109 -107,111l0 0z"/>
    <path class="fil6" d="M14295 24799c59,2 106,50 106,110l1 0c1,-60 48,-108 107,-110 -59,-2 -107,-51 -107,-111l-1 0c0,60 -47,109 -106,111l0 0z"/>
    <path class="fil6" d="M18501 23943c59,2 106,50 107,110l1 0c0,-60 47,-108 106,-110 -59,-2 -106,-51 -106,-111l-1 0c0,60 -48,109 -107,111l0 0z"/>
    <path class="fil6" d="M20337 23877c59,2 106,50 106,110l1 0c1,-60 48,-108 107,-110 -59,-2 -107,-51 -107,-111l-1 0c0,60 -47,109 -106,111l0 0z"/>
    <path class="fil6" d="M22378 23515c59,2 106,50 107,110l1 0c0,-60 47,-108 106,-110 -59,-2 -107,-51 -107,-111l0 0c0,60 -48,109 -107,111l0 0z"/>
    <path class="fil6" d="M23234 22165c59,2 106,50 107,110l1 0c0,-60 47,-108 106,-110 -59,-2 -106,-51 -106,-111l-1 0c0,60 -48,109 -107,111l0 0z"/>
    <path class="fil6" d="M12838 31318c59,2 106,51 106,111l1 0c1,-60 48,-109 107,-111 -59,-2 -107,-50 -107,-110l-1 0c0,60 -47,108 -106,110l0 0z"/>
    <path class="fil6" d="M11191 30825c59,2 107,50 107,110l1 0c0,-60 48,-108 107,-110 -60,-2 -107,-51 -107,-111l-1 0c0,60 -47,109 -107,111l0 0z"/>
    <path class="fil6" d="M10105 31669c59,2 107,50 107,110l1 0c0,-60 48,-108 107,-110 -60,-2 -107,-51 -107,-111l-1 0c0,60 -47,109 -107,111l0 0z"/>
    <path class="fil6" d="M8229 30253c59,2 106,50 106,110l1 0c1,-60 48,-108 107,-110 -59,-2 -107,-50 -107,-111l-1 0c0,61 -47,109 -106,111l0 0z"/>
    <path class="fil6" d="M7470 31449c59,2 106,50 106,110l1 0c0,-60 48,-108 107,-110 -59,-2 -107,-50 -107,-111l-1 0c0,61 -47,109 -106,111l0 0z"/>
    <path class="fil6" d="M5724 31713c59,2 107,50 107,110l1 0c0,-60 48,-108 107,-110 -60,-2 -107,-51 -107,-111l-1 0c0,60 -47,109 -107,111l0 0z"/>
    <path class="fil6" d="M6590 33755c59,2 106,50 107,110l1 0c0,-60 47,-108 106,-110 -59,-2 -106,-51 -106,-111l-1 0c0,60 -48,109 -107,111l0 0z"/>
    <path class="fil6" d="M6557 35006c59,2 106,50 107,110l1 0c0,-60 47,-108 106,-110 -59,-2 -106,-51 -106,-111l-1 0c0,60 -48,109 -107,111l0 0z"/>
    <path class="fil6" d="M3453 33556c59,2 106,51 106,111l1 0c1,-60 48,-109 107,-111 -59,-1 -107,-50 -107,-110l-1 0c0,60 -47,108 -106,110l0 0z"/>
    <path class="fil6" d="M390 26576c59,2 107,50 107,110l1 0c0,-60 48,-108 107,-110 -60,-2 -107,-50 -107,-111l-1 0c0,61 -47,109 -107,111l0 0z"/>
    <path class="fil6" d="M46233 34281c59,2 106,51 107,111l1 0c0,-60 47,-109 106,-111 -59,-2 -107,-50 -107,-110l0 0c0,60 -48,108 -107,110l0 0z"/>
    <path class="fil6" d="M42502 30855c39,-1 71,-32 72,-72l1 0c-1,40 30,72 69,74 -39,1 -71,33 -72,72l0 0c0,-39 -31,-72 -70,-74l0 0z"/>
    <path class="fil6" d="M40099 29341c39,-1 70,-33 71,-72l1 0c0,39 30,72 69,74 -39,0 -71,32 -71,72l-1 0c1,-40 -30,-73 -69,-74l0 0z"/>
    <path class="fil6" d="M34139 31053c39,-1 71,-33 72,-72l0 0c0,39 31,72 70,74 -39,0 -71,32 -72,72l0 0c0,-40 -31,-72 -70,-74l0 0z"/>
    <path class="fil6" d="M35324 33851c40,0 71,-32 72,-71l1 0c-1,39 30,72 69,73 -39,1 -71,33 -72,73l0 0c1,-40 -30,-73 -70,-75l0 0z"/>
    <path class="fil6" d="M32518 34764c40,-1 71,-32 72,-72l1 0c-1,40 30,72 69,74 -39,1 -71,32 -71,72l-1 0c1,-40 -30,-72 -70,-74l0 0z"/>
    <path class="fil6" d="M42282 23976c39,-1 71,-33 71,-72l1 0c0,39 31,72 70,74 -40,0 -71,32 -72,72l-1 0c1,-40 -30,-72 -69,-74l0 0z"/>
    <path class="fil6" d="M38426 22485c39,0 71,-32 71,-71l1 0c0,39 31,72 70,74 -40,0 -72,32 -72,72l-1 0c1,-40 -30,-73 -69,-75l0 0z"/>
    <path class="fil6" d="M42410 27260c39,-1 71,-32 71,-72l1 0c0,40 31,72 70,74 -40,1 -71,32 -72,72l-1 0c1,-40 -30,-72 -69,-74l0 0z"/>
    <path class="fil6" d="M46853 28394c39,-1 71,-33 71,-72l1 0c0,39 31,72 70,74 -40,0 -72,32 -72,72l-1 0c1,-40 -30,-72 -69,-74l0 0z"/>
    <path class="fil6" d="M45239 30698c40,0 71,-32 72,-71l1 0c-1,39 30,72 69,74 -39,0 -71,32 -72,72l0 0c1,-40 -30,-73 -70,-75l0 0z"/>
    <path class="fil6" d="M43495 31910c39,-1 71,-33 72,-72l0 0c0,39 31,72 70,74 -39,0 -71,32 -72,72l0 0c0,-40 -31,-73 -70,-74l0 0z"/>
    <path class="fil6" d="M42441 32667c40,-1 71,-32 72,-72l1 0c-1,40 30,72 69,74 -39,1 -71,32 -71,72l-1 0c1,-40 -30,-72 -70,-74l0 0z"/>
    <path class="fil6" d="M40795 33490c39,-1 71,-32 72,-72l0 0c0,40 31,72 70,74 -39,1 -71,33 -72,72l0 0c0,-40 -31,-72 -70,-74l0 0z"/>
    <path class="fil6" d="M39459 33896c75,-1 136,-62 137,-138l1 0c0,76 59,138 134,142 -75,1 -137,62 -138,139l-1 0c1,-77 -58,-139 -133,-143l0 0z"/>
    <path class="fil6" d="M42541 34536c39,0 71,-32 72,-71l0 0c0,39 31,72 70,73 -39,1 -71,33 -72,73l0 0c0,-40 -31,-73 -70,-75l0 0z"/>
    <path class="fil6" d="M45274 33186c39,0 71,-32 72,-71l0 0c0,39 31,72 70,73 -40,1 -71,33 -72,73l-1 0c1,-40 -30,-73 -69,-75l0 0z"/>
    <path class="fil6" d="M40236 31079c39,-1 71,-32 72,-72l1 0c-1,40 30,72 69,74 -39,1 -71,33 -72,73l0 0c0,-40 -31,-73 -70,-75l0 0z"/>
    <path class="fil6" d="M37866 27490c39,-1 71,-32 72,-72l0 0c0,40 31,72 70,74 -39,1 -71,33 -72,73l0 0c0,-40 -31,-73 -70,-75l0 0z"/>
    <path class="fil6" d="M37372 30421c39,-1 71,-33 72,-72l0 0c0,39 31,72 70,74 -39,0 -71,32 -72,72l0 0c0,-40 -31,-72 -70,-74l0 0z"/>
    <path class="fil6" d="M34376 27885c39,0 71,-32 72,-71l0 0c0,39 31,72 70,73 -39,1 -71,33 -72,73l0 0c0,-40 -31,-73 -70,-75l0 0z"/>
    <path class="fil6" d="M29345 1801c156,5 281,133 282,291l3 0c1,-158 126,-286 282,-291 -157,-5 -283,-134 -283,-293l-2 0c0,159 -126,288 -282,293l0 0z"/>
    <path class="fil6" d="M17383 8441c40,-1 71,-33 72,-72l1 0c-1,39 30,72 69,74 -39,0 -71,32 -71,72l-1 0c1,-40 -30,-73 -70,-74l0 0z"/>
    <path class="fil6" d="M20775 9494c39,-1 71,-32 71,-72l1 0c0,40 31,72 70,74 -40,1 -71,33 -72,73l-1 0c1,-40 -30,-73 -69,-75l0 0z"/>
    <path class="fil6" d="M21367 11799c40,-1 71,-32 72,-72l1 0c-1,40 30,72 69,74 -39,1 -71,33 -71,72l-1 0c1,-39 -30,-72 -70,-74l0 0z"/>
    <path class="fil6" d="M27554 9651c39,-1 71,-32 72,-72l0 0c0,40 31,72 70,74 -40,1 -71,32 -72,72l-1 0c1,-40 -30,-72 -69,-74l0 0z"/>
    <path class="fil6" d="M20591 2682c39,-1 71,-32 72,-72l0 0c0,40 31,72 70,74 -39,1 -71,32 -72,72l0 0c0,-40 -31,-72 -70,-74l0 0z"/>
    <path class="fil6" d="M14262 3397c39,-1 71,-32 72,-72l0 0c0,40 31,72 70,74 -40,1 -71,32 -72,72l-1 0c1,-40 -30,-72 -69,-74l0 0z"/>
    <path class="fil6" d="M13369 9315c39,-1 71,-32 72,-72l0 0c0,40 31,72 70,74 -39,1 -71,33 -72,72l0 0c0,-39 -31,-72 -70,-74l0 0z"/>
    <path class="fil6" d="M7377 3685c39,-1 70,-32 71,-72l1 0c0,40 30,72 69,74 -39,1 -71,32 -71,72l-1 0c1,-40 -30,-72 -69,-74l0 0z"/>
    <path class="fil6" d="M5368 8887c39,-1 71,-32 72,-72l0 0c0,40 31,72 70,74 -39,1 -71,33 -72,72l0 0c0,-39 -31,-72 -70,-74l0 0z"/>
    <path class="fil6" d="M10999 6879c39,-1 70,-33 71,-72l1 0c-1,39 30,72 69,74 -39,0 -71,32 -71,72l-1 0c1,-40 -30,-73 -69,-74l0 0z"/>
    <path class="fil6" d="M5960 11225c39,-1 71,-32 72,-72l1 0c-1,40 30,72 69,74 -39,1 -71,32 -72,72l0 0c0,-40 -30,-72 -70,-74l0 0z"/>
    <path class="fil6" d="M164 2152c39,-1 71,-33 71,-72l1 0c0,39 31,72 70,74 -40,0 -72,32 -72,72l-1 0c1,-40 -30,-72 -69,-74l0 0z"/>
    <path class="fil6" d="M2634 9915c39,-1 71,-32 72,-72l0 0c0,40 31,72 70,74 -39,1 -71,33 -72,72l0 0c0,-39 -31,-72 -70,-74l0 0z"/>
    <path class="fil6" d="M1086 11577c39,0 71,-32 72,-72l0 0c0,40 31,72 70,74 -39,1 -71,33 -72,73l0 0c0,-40 -31,-73 -70,-75l0 0z"/>
    <path class="fil6" d="M2962 11503c39,-1 71,-33 72,-72l0 0c0,39 31,72 70,74 -40,0 -71,32 -72,72l-1 0c1,-40 -30,-72 -69,-74l0 0z"/>
    <path class="fil6" d="M5267 10449c39,-1 71,-32 71,-72l1 0c0,40 30,72 69,74 -39,1 -71,33 -71,72l-1 0c1,-39 -30,-72 -69,-74l0 0z"/>
    <path class="fil6" d="M9020 9922c39,-1 71,-32 72,-72l1 0c-1,40 30,72 69,74 -39,1 -71,33 -72,73l0 0c0,-40 -31,-73 -70,-75l0 0z"/>
    <path class="fil6" d="M10732 8901c39,0 71,-32 72,-71l1 0c-1,39 30,72 69,74 -39,0 -71,32 -72,72l0 0c1,-40 -30,-73 -70,-75l0 0z"/>
    <path class="fil6" d="M12445 7881c39,-1 70,-32 71,-72l1 0c-1,40 30,72 69,74 -39,1 -71,32 -71,72l-1 0c1,-40 -30,-72 -69,-74l0 0z"/>
    <path class="fil6" d="M14157 6860c39,-1 71,-32 71,-72l1 0c0,40 30,72 69,74 -39,1 -71,33 -71,72l-1 0c1,-39 -30,-72 -69,-74l0 0z"/>
    <path class="fil6" d="M18998 6952c39,-1 71,-33 72,-72l0 0c0,39 31,72 70,74 -39,0 -71,32 -72,72l0 0c0,-40 -31,-72 -70,-74l0 0z"/>
    <path class="fil6" d="M23840 7043c39,-1 71,-32 71,-72l1 0c0,40 30,72 69,74 -39,1 -71,33 -71,73l-1 0c1,-40 -30,-73 -69,-75l0 0z"/>
    <path class="fil6" d="M25084 9953c25,13 57,3 69,-22 13,-25 3,-57 -22,-70 -25,-13 -57,-3 -69,22 -13,26 -3,57 22,70l0 0z"/>
    <path class="fil6" d="M23184 12895c26,14 57,4 70,-22 13,-25 3,-56 -23,-70 -25,-13 -56,-3 -69,23 -13,25 -3,56 22,69l0 0z"/>
    <path class="fil6" d="M15373 10970c59,2 106,51 107,110l1 0c0,-59 47,-108 106,-110 -59,-2 -106,-50 -106,-111l-1 0c0,61 -48,109 -107,111l0 0z"/>
    <path class="fil6" d="M9609 7381c59,2 107,50 107,110l1 0c0,-60 48,-108 107,-110 -60,-2 -107,-51 -107,-111l-1 0c0,60 -47,109 -107,111l0 0z"/>
    <path class="fil6" d="M7998 14658c59,2 106,50 106,110l1 0c1,-60 48,-108 107,-110 -59,-2 -107,-51 -107,-111l-1 0c0,60 -47,109 -106,111l0 0z"/>
    <path class="fil6" d="M6386 21935c59,2 106,50 106,110l1 0c1,-60 48,-108 107,-110 -59,-2 -107,-51 -107,-111l0 0c0,60 -48,109 -107,111l0 0z"/>
    <path class="fil6" d="M1284 7182c39,-1 71,-32 72,-72l0 0c0,40 31,72 70,74 -39,1 -71,33 -72,72l0 0c0,-39 -31,-72 -70,-74l0 0z"/>
    <path class="fil6" d="M4280 6557c39,-1 71,-33 72,-72l1 0c-1,39 30,72 69,74 -39,0 -71,32 -72,72l0 0c0,-40 -31,-73 -70,-74l0 0z"/>
    <path class="fil6" d="M7277 5931c39,-1 70,-32 71,-72l1 0c0,40 30,72 69,74 -39,1 -71,33 -71,72l-1 0c1,-39 -30,-72 -69,-74l0 0z"/>
    <path class="fil6" d="M10273 5305c39,0 71,-32 71,-71l1 0c0,39 31,72 70,73 -40,1 -71,33 -72,73l-1 0c1,-40 -30,-73 -69,-75l0 0z"/>
    <path class="fil6" d="M9218 4852c40,-1 71,-33 72,-72l1 0c-1,39 30,72 69,74 -39,0 -71,32 -71,72l-1 0c1,-40 -30,-72 -70,-74l0 0z"/>
    <path class="fil6" d="M7145 6557c39,-1 71,-33 71,-72l1 0c0,39 31,72 70,74 -40,0 -71,32 -72,72l-1 0c1,-40 -30,-73 -69,-74l0 0z"/>
    <path class="fil6" d="M15475 7314c39,-1 71,-32 72,-72l0 0c0,40 31,72 70,74 -39,1 -71,32 -72,72l0 0c0,-40 -31,-72 -70,-74l0 0z"/>
    <path class="fil6" d="M17746 3633c39,0 71,-32 72,-71l1 0c-1,39 30,72 69,73 -39,1 -71,33 -72,73l0 0c0,-40 -31,-73 -70,-75l0 0z"/>
    <path class="fil6" d="M14822 5570c39,-1 70,-32 71,-72l1 0c0,40 30,72 69,74 -39,1 -71,33 -71,72l-1 0c1,-39 -30,-72 -69,-74l0 0z"/>
    <path class="fil6" d="M12319 4253c39,-1 71,-32 72,-72l1 0c-1,40 30,72 69,74 -39,1 -71,33 -72,72l0 0c0,-39 -31,-72 -70,-74l0 0z"/>
    <path class="fil6" d="M12023 6327c39,0 71,-32 72,-71l0 0c0,39 31,72 70,73 -40,1 -71,33 -72,73l-1 0c1,-40 -30,-73 -69,-75l0 0z"/>
    <path class="fil6" d="M10179 6031c39,-1 71,-32 72,-72l0 0c0,40 31,72 70,74 -39,1 -71,33 -72,72l0 0c0,-39 -31,-72 -70,-74l0 0z"/>
    <path class="fil6" d="M10443 2245c39,-1 70,-33 71,-72l1 0c-1,39 30,72 69,74 -39,0 -71,32 -71,72l-1 0c1,-40 -30,-73 -70,-74l1 0z"/>
    <path class="fil6" d="M5899 829c39,-1 71,-33 71,-72l1 0c0,39 30,72 69,74 -39,1 -71,32 -71,72l-1 0c1,-40 -30,-72 -69,-74l0 0z"/>
    <path class="fil6" d="M5767 3298c39,-1 71,-32 72,-72l0 0c0,40 31,72 70,74 -39,1 -71,33 -72,73l0 0c0,-40 -31,-73 -70,-75l0 0z"/>
    <path class="fil6" d="M2902 1553c40,-1 71,-32 72,-72l1 0c-1,40 30,72 69,74 -39,1 -71,33 -71,72l-1 0c1,-39 -30,-72 -70,-74l0 0z"/>
    <path class="fil6" d="M2968 4319c39,-1 71,-32 72,-72l1 0c-1,40 30,72 69,74 -39,1 -71,32 -72,72l0 0c0,-40 -31,-72 -70,-74l0 0z"/>
    <path class="fil6" d="M30692 3957c59,2 106,50 107,110l1 0c0,-60 47,-108 106,-110 -59,-2 -107,-51 -107,-111l0 0c0,60 -48,109 -107,111l0 0z"/>
    <path class="fil6" d="M30066 9126c59,2 107,50 107,110l1 0c0,-60 48,-108 107,-110 -60,-2 -107,-51 -107,-111l-1 0c0,60 -47,109 -107,111l0 0z"/>
    <path class="fil6" d="M23712 1224c59,2 106,50 106,110l1 0c1,-60 48,-108 107,-110 -59,-2 -107,-51 -107,-111l-1 0c0,60 -47,109 -106,111l0 0z"/>
    <path class="fil6" d="M18839 18872c59,2 106,50 106,110l1 0c1,-60 48,-108 107,-110 -59,-2 -107,-51 -107,-111l-1 0c0,60 -47,109 -106,111l0 0z"/>
    <path class="fil6" d="M14097 18345c59,2 107,51 107,110l1 0c0,-59 47,-108 106,-110 -59,-2 -106,-50 -106,-110l-1 0c0,60 -48,108 -107,110l0 0z"/>
    <path class="fil6" d="M12649 11266c39,0 70,-32 71,-72l1 0c-1,40 30,72 69,74 -39,1 -71,33 -71,73l-1 0c1,-40 -30,-73 -69,-75l0 0z"/>
    <path class="fil6" d="M5928 13826c39,-1 71,-32 72,-72l0 0c0,40 31,72 70,74 -40,1 -71,33 -72,72l-1 0c1,-39 -30,-72 -69,-74l0 0z"/>
    <path class="fil6" d="M6257 14550c39,0 71,-32 72,-71l0 0c0,39 31,72 70,73 -39,1 -71,33 -72,73l0 0c0,-40 -31,-73 -70,-75l0 0z"/>
    <path class="fil6" d="M4150 17250c39,0 71,-32 72,-72l0 0c0,40 31,72 70,74 -40,1 -71,33 -72,73l-1 0c1,-40 -30,-73 -69,-75l0 0z"/>
    <path class="fil6" d="M33342 5954c39,-1 70,-33 71,-72l1 0c0,39 30,72 69,74 -39,0 -71,32 -71,72l-1 0c1,-40 -30,-72 -69,-74l0 0z"/>
    <path class="fil6" d="M30753 6425c39,-1 71,-32 71,-72l1 0c0,40 31,72 70,74 -40,1 -72,32 -72,72l-1 0c1,-40 -30,-72 -69,-74l0 0z"/>
    <path class="fil6" d="M24469 2804c39,0 71,-32 72,-72l0 0c0,40 31,72 70,74 -40,1 -71,33 -72,73l0 0c0,-40 -31,-73 -70,-75l0 0z"/>
    <path class="fil6" d="M23251 5241c39,-1 70,-32 71,-72l1 0c0,40 30,72 69,74 -39,1 -71,32 -71,72l-1 0c1,-40 -30,-72 -69,-74l0 0z"/>
    <path class="fil6" d="M23020 6360c39,0 71,-32 72,-72l0 1c0,39 31,71 70,73 -39,1 -71,33 -72,73l0 0c0,-40 -31,-73 -70,-75l0 0z"/>
    <path class="fil6" d="M21143 7282c39,-1 71,-32 72,-72l1 0c-1,40 30,72 69,74 -39,1 -71,33 -71,73l-1 0c1,-40 -30,-73 -70,-75l0 0z"/>
    <path class="fil6" d="M19267 8204c39,-1 70,-32 71,-72l1 0c0,40 30,72 69,74 -39,1 -71,33 -71,73l-1 -1c1,-39 -30,-72 -69,-74l0 0z"/>
    <path class="fil6" d="M29238 33902c39,-1 71,-33 72,-72l0 0c0,39 31,72 70,74 -39,0 -71,32 -72,72l0 0c0,-40 -31,-73 -70,-74l0 0z"/>
    <path class="fil6" d="M31131 31564c39,-1 71,-32 72,-72l1 0c-1,40 30,72 69,74 -39,1 -71,32 -72,72l0 0c1,-40 -30,-72 -70,-74l0 0z"/>
    <path class="fil6" d="M33025 29226c39,-1 70,-32 71,-72l1 0c0,40 30,72 69,74 -39,1 -71,33 -71,72l-1 0c1,-39 -30,-72 -69,-74l0 0z"/>
    <path class="fil6" d="M15932 969c39,0 71,-32 72,-71l0 0c0,39 31,72 70,74 -39,0 -71,32 -72,72l0 0c0,-40 -31,-73 -70,-75l0 0z"/>
    <path class="fil6" d="M6005 23705c39,-1 71,-32 72,-72l0 0c0,40 31,72 70,74 -40,1 -71,32 -72,72l-1 0c1,-40 -30,-72 -69,-74l0 0z"/>
    <path class="fil6" d="M35419 32365c39,0 71,-32 72,-71l1 0c-1,39 30,71 69,73 -39,1 -71,33 -72,73l0 0c0,-40 -30,-73 -70,-75l0 0z"/>
    <path class="fil6" d="M29169 29198c39,0 71,-32 72,-71l0 0c0,39 31,72 70,74 -39,0 -71,32 -72,72l0 0c0,-40 -31,-73 -70,-75l0 0z"/>
    <path class="fil6" d="M28725 27536c39,-1 70,-33 71,-72l1 0c0,39 30,72 69,74 -39,1 -71,32 -71,72l-1 0c1,-40 -30,-72 -69,-74l0 0z"/>
    <path class="fil6" d="M28280 25873c39,-1 71,-32 72,-72l0 0c0,40 31,72 70,74 -39,1 -71,32 -72,72l0 0c0,-40 -31,-72 -70,-74l0 0z"/>
    <path class="fil6" d="M58320 17034c-39,0 -71,32 -71,71l-1 0c0,-39 -31,-72 -70,-73 40,-1 71,-33 72,-73l1 0c-1,40 30,73 69,75l0 0z"/>
    <path class="fil6" d="M54409 23223c-59,-2 -107,-50 -107,-110l-1 0c0,60 -48,108 -107,110 60,2 107,50 107,111l1 0c0,-61 47,-109 107,-111l0 0z"/>
    <path class="fil6" d="M48353 22237c-59,-2 -106,-51 -106,-111l-1 0c-1,60 -48,109 -107,111 59,2 107,50 107,110l0 0c1,-60 48,-108 107,-110l0 0z"/>
    <path class="fil6" d="M53348 20129c-59,-2 -106,-51 -106,-110l-1 0c-1,59 -48,108 -107,110 59,2 107,50 107,110l1 0c0,-60 47,-108 106,-110l0 0z"/>
    <path class="fil6" d="M57571 20502c-59,-2 -107,-50 -107,-110l-1 0c0,60 -48,108 -107,110 60,2 107,51 107,111l1 0c0,-60 47,-109 107,-111l0 0z"/>
    <path class="fil6" d="M60139 23059c-59,-2 -106,-51 -106,-110l-1 0c-1,59 -48,108 -107,110 59,2 107,50 107,110l1 0c0,-60 47,-108 106,-110l0 0z"/>
    <path class="fil6" d="M61985 19602c-59,-2 -107,-50 -107,-110l-1 0c0,60 -48,108 -107,110 60,2 107,51 107,111l1 0c0,-60 47,-109 107,-111l0 0z"/>
    <path class="fil6" d="M59382 19108c-59,-2 -106,-51 -107,-110l-1 0c0,59 -47,108 -106,110 59,2 107,50 107,110l0 0c0,-60 48,-108 107,-110l0 0z"/>
    <path class="fil6" d="M55011 16968c-59,-2 -106,-50 -106,-110l-1 0c-1,60 -48,108 -107,110 59,2 107,50 107,111l1 0c0,-61 47,-109 106,-111l0 0z"/>
    <path class="fil6" d="M51382 22412c-59,-2 -107,-50 -107,-110l-1 0c0,60 -48,108 -107,110 60,2 107,50 107,111l1 0c0,-61 47,-109 107,-111l0 0z"/>
    <path class="fil6" d="M49381 17099c-59,-2 -106,-50 -107,-110l-1 0c0,60 -47,108 -106,110 59,2 106,51 106,111l1 0c0,-60 48,-109 107,-111l0 0z"/>
    <path class="fil6" d="M49900 19778c-59,-2 -106,-51 -107,-110l-1 0c0,59 -47,108 -106,110 59,2 106,50 106,111l1 0c0,-61 48,-109 107,-111l0 0z"/>
    <path class="fil6" d="M52469 17627c-59,-2 -106,-50 -107,-110l-1 0c0,60 -47,108 -106,110 59,2 106,51 106,111l1 0c0,-60 48,-109 107,-111l0 0z"/>
    <path class="fil6" d="M52492 13774c-59,-2 -106,-50 -106,-110l-1 0c-1,60 -48,108 -107,110 59,2 107,51 107,111l1 0c0,-60 47,-109 106,-111l0 0z"/>
    <path class="fil6" d="M49002 13741c-39,1 -71,32 -72,72l0 0c0,-40 -31,-72 -70,-74 40,-1 71,-33 72,-72l1 0c-1,39 30,72 69,74l0 0z"/>
    <path class="fil6" d="M58485 14301c-39,0 -71,32 -72,72l-1 0c1,-40 -30,-72 -69,-74 39,-1 71,-33 72,-73l0 0c0,40 31,73 70,75l0 0z"/>
    <path class="fil6" d="M55572 7793c-39,1 -71,32 -72,72l-1 0c1,-40 -30,-72 -69,-74 39,-1 71,-33 72,-72l0 0c0,39 31,72 70,74l0 0z"/>
    <path class="fil6" d="M63457 13478c-40,0 -71,32 -72,71l-1 0c1,-39 -30,-72 -69,-73 39,-1 71,-33 71,-73l1 0c-1,40 30,73 70,75l0 0z"/>
    <path class="fil6" d="M60197 9526c-39,1 -71,33 -72,72l0 0c0,-39 -31,-72 -70,-74 39,0 71,-32 72,-72l0 0c0,40 31,73 70,74l0 0z"/>
    <path class="fil6" d="M56312 18845c-39,0 -71,32 -72,71l-1 0c1,-39 -30,-72 -69,-74 39,0 71,-32 72,-72l0 0c0,40 30,73 70,75l0 0z"/>
    <path class="fil6" d="M50970 9419c-39,0 -71,32 -71,71l-1 0c0,-39 -31,-72 -70,-74 40,0 71,-32 72,-72l1 0c-1,40 30,73 69,75l0 0z"/>
    <path class="fil6" d="M52333 2745c-39,1 -71,32 -72,72l-1 0c1,-40 -30,-72 -69,-74 39,-1 71,-33 72,-72l0 0c0,40 30,72 70,74l0 0z"/>
    <path class="fil6" d="M54603 11280c-39,1 -71,32 -71,72l-1 0c0,-40 -31,-72 -70,-74 40,-1 72,-32 72,-72l1 0c-1,40 30,72 69,74l0 0z"/>
    <path class="fil6" d="M60365 4629c-39,1 -71,32 -71,72l-1 0c0,-40 -31,-72 -70,-74 40,-1 72,-33 72,-72l1 0c-1,39 30,72 69,74l0 0z"/>
    <path class="fil6" d="M48288 1363c-39,1 -71,32 -72,72l0 0c0,-40 -31,-72 -70,-74 39,-1 71,-33 72,-72l0 0c0,39 31,72 70,74l0 0z"/>
    <path class="fil6" d="M49175 3051c-59,-2 -107,-50 -107,-110l-1 0c0,60 -48,108 -107,110 60,2 107,51 107,111l1 0c0,-60 47,-109 107,-111l0 0z"/>
    <path class="fil6" d="M48805 6267c-40,1 -71,32 -72,72l-1 0c1,-40 -30,-72 -69,-74 39,-1 71,-33 71,-73l1 0c-1,40 30,73 70,75l0 0z"/>
    <path class="fil6" d="M48574 9033c-39,0 -71,32 -72,71l0 0c0,-39 -31,-72 -70,-73 39,-1 71,-33 72,-73l0 0c0,40 31,73 70,75l0 0z"/>
    <path class="fil6" d="M50945 6333c-39,0 -71,32 -72,71l-1 0c1,-39 -30,-72 -69,-73 39,-1 71,-33 72,-73l0 0c0,40 31,73 70,75l0 0z"/>
    <path class="fil6" d="M54040 3995c-39,1 -71,32 -72,72l-1 0c1,-40 -30,-72 -69,-74 39,-1 71,-33 72,-72l0 0c0,39 31,72 70,74l0 0z"/>
    <path class="fil6" d="M54929 1526c-39,0 -71,32 -72,71l-1 0c1,-39 -30,-72 -69,-74 39,0 71,-32 72,-72l0 0c0,40 31,73 70,75l0 0z"/>
    <path class="fil6" d="M51439 1558c-39,1 -71,33 -72,72l-1 0c1,-39 -30,-72 -69,-74 39,0 71,-32 72,-72l0 0c0,40 30,73 70,74l0 0z"/>
    <path class="fil6" d="M50753 4219c-39,1 -71,33 -72,72l0 0c0,-39 -31,-72 -70,-74 39,0 71,-32 72,-72l0 0c0,40 31,73 70,74l0 0z"/>
    <path class="fil6" d="M47493 5734c-39,1 -71,32 -71,72l-1 0c0,-40 -30,-72 -70,-74 40,-1 72,-32 72,-72l1 0c-1,40 30,72 69,74l0 0z"/>
    <path class="fil6" d="M47988 15776c-39,1 -71,33 -72,72l0 0c0,-39 -31,-72 -70,-74 39,0 71,-32 72,-72l0 0c0,40 31,73 70,74l0 0z"/>
    <path class="fil6" d="M50978 12622c-39,0 -71,32 -72,71l-1 0c1,-39 -30,-72 -69,-74 39,0 71,-32 72,-72l0 0c0,40 30,73 70,75l0 0z"/>
    <path class="fil6" d="M51044 15782c-40,1 -71,33 -72,72l-1 0c1,-39 -30,-72 -69,-74 39,0 71,-32 71,-72l1 0c-1,40 30,73 70,74l0 0z"/>
    <path class="fil6" d="M54139 14893c-40,1 -71,33 -72,72l-1 0c1,-39 -30,-72 -69,-74 39,0 71,-32 71,-72l1 0c-1,40 30,73 70,74l0 0z"/>
    <path class="fil6" d="M56048 12424c-39,1 -71,32 -71,72l-1 0c0,-40 -31,-72 -70,-74 40,-1 72,-33 72,-72l1 0c-1,39 30,72 69,74l0 0z"/>
    <path class="fil6" d="M61382 16342c-39,1 -71,32 -71,72l-1 0c0,-40 -31,-72 -70,-74 40,-1 72,-32 72,-72l1 0c-1,40 30,72 69,74l0 0z"/>
    <path class="fil6" d="M61119 12062c-39,1 -71,32 -72,72l0 0c0,-40 -31,-72 -70,-74 39,-1 71,-33 72,-73l0 0c0,40 31,73 70,75l0 0z"/>
    <path class="fil6" d="M55390 8934c-39,1 -71,32 -72,72l-1 0c1,-40 -30,-72 -69,-74 39,-1 71,-33 72,-73l0 0c0,40 31,73 70,75l0 0z"/>
    <path class="fil6" d="M57925 1855c-39,0 -71,32 -72,72l0 0c0,-40 -31,-72 -70,-74 39,-1 71,-33 72,-73l0 0c0,40 31,73 70,75l0 0z"/>
    <path class="fil6" d="M63292 1427c-39,0 -71,32 -72,72l0 0c0,-40 -31,-72 -70,-74 39,-1 71,-33 72,-73l0 0c0,40 31,73 70,75l0 0z"/>
    <path class="fil6" d="M56254 15387c-59,-2 -106,-50 -107,-110l-1 0c0,60 -47,108 -106,110 59,2 107,51 107,111l0 0c0,-60 48,-109 107,-111l0 0z"/>
    <path class="fil6" d="M61687 17856c-59,-2 -106,-50 -107,-110l-1 0c0,60 -47,108 -106,110 59,2 106,51 106,111l1 0c0,-60 48,-109 107,-111l0 0z"/>
    <path class="fil6" d="M63266 17790c-59,-2 -107,-50 -107,-110l-1 0c0,60 -47,108 -106,110 59,2 106,51 106,111l1 0c0,-60 48,-109 107,-111l0 0z"/>
    <path class="fil6" d="M62478 23252c-86,-3 -154,-73 -154,-159l-2 0c0,86 -69,156 -154,159 86,2 154,73 154,160l2 0c0,-87 68,-158 154,-160l0 0z"/>
    <path class="fil6" d="M60536 13447c-39,0 -71,32 -71,72l-1 0c0,-40 -31,-72 -70,-74 40,-1 72,-33 72,-73l1 0c-1,40 30,73 69,75l0 0z"/>
    <path class="fil6" d="M61729 7298c-39,0 -70,32 -71,71l-1 0c1,-39 -30,-72 -69,-74 39,0 71,-32 71,-72l1 0c-1,40 30,73 70,75l-1 0z"/>
    <path class="fil6" d="M53286 7987c-39,1 -71,33 -71,72l-1 0c0,-39 -31,-72 -70,-74 40,0 71,-32 72,-72l1 0c-1,40 30,73 69,74l0 0z"/>
    <path class="fil6" d="M51838 7987c-39,1 -71,33 -72,72l0 0c0,-39 -31,-72 -70,-74 39,0 71,-32 72,-72l0 0c0,40 31,73 70,74l0 0z"/>
    <path class="fil6" d="M51970 9725c-39,1 -70,33 -71,72l-1 0c1,-39 -30,-72 -69,-74 39,0 71,-32 71,-72l1 0c-1,40 30,72 69,74l0 0z"/>
    <path class="fil6" d="M50620 10720c-39,1 -71,33 -72,72l-1 0c1,-39 -30,-72 -69,-74 39,0 71,-32 72,-72l0 0c0,40 31,72 70,74l0 0z"/>
    <path class="fil6" d="M52272 11800c-39,1 -71,33 -72,72l0 0c0,-39 -31,-72 -70,-74 39,0 71,-32 72,-72l0 0c0,40 31,73 70,74l0 0z"/>
    <path class="fil6" d="M56975 10088c-39,0 -71,32 -71,71l-1 0c0,-39 -31,-72 -70,-74 40,0 72,-32 72,-72l1 0c-1,40 30,73 69,75l0 0z"/>
    <path class="fil6" d="M57695 7979c-40,1 -71,32 -72,72l-1 0c1,-40 -30,-72 -69,-74 39,-1 71,-33 71,-72l1 0c-1,39 30,72 70,74l0 0z"/>
    <path class="fil6" d="M58024 5542c-39,1 -71,33 -72,72l0 0c0,-39 -31,-72 -70,-74 39,0 71,-32 72,-72l0 0c0,40 31,73 70,74l0 0z"/>
    <path class="fil6" d="M57760 6333c-39,0 -70,32 -71,71l-1 0c0,-39 -30,-72 -69,-73 39,-1 71,-33 71,-73l1 0c-1,40 30,73 69,75l0 0z"/>
    <path class="fil6" d="M59110 7222c-39,0 -70,32 -71,71l-1 0c0,-39 -30,-72 -69,-73 39,-1 71,-33 71,-73l1 0c-1,40 30,73 69,75l0 0z"/>
    <path class="fil6" d="M58584 9197c-40,1 -71,32 -72,72l-1 0c1,-40 -30,-72 -69,-74 39,-1 71,-32 71,-72l1 0c-1,40 30,72 70,74l0 0z"/>
    <path class="fil6" d="M47561 20733c-59,-2 -106,-51 -106,-110l-1 0c-1,59 -48,108 -107,110 59,2 107,50 107,110l0 0c1,-60 48,-108 107,-110l0 0z"/>
    <path class="fil6" d="M49529 21413c-59,-2 -106,-50 -107,-110l-1 0c0,60 -47,108 -106,110 59,2 106,50 106,111l1 0c0,-61 48,-109 107,-111l0 0z"/>
    <path class="fil6" d="M53250 12029c-59,-2 -107,-50 -107,-110l-1 0c0,60 -48,108 -107,110 60,2 107,50 107,111l1 0c0,-60 47,-109 107,-111l0 0z"/>
    <path class="fil6" d="M52624 11206c-59,-2 -106,-51 -107,-110l-1 0c0,59 -47,108 -106,110 59,2 106,50 106,110l1 0c0,-60 48,-108 107,-110l0 0z"/>
    <path class="fil6" d="M50164 11865c-59,-2 -106,-50 -107,-110l0 0c-1,60 -48,108 -107,110 59,2 107,50 107,111l0 0c0,-60 48,-109 107,-111l0 0z"/>
    <path class="fil6" d="M48541 11074c-59,-2 -106,-50 -107,-110l0 0c-1,60 -48,108 -107,110 59,2 107,51 107,111l0 0c0,-60 48,-109 107,-111l0 0z"/>
    <path class="fil6" d="M49998 4554c-59,-2 -106,-50 -106,-110l-1 0c-1,60 -48,108 -107,110 59,2 107,51 107,111l0 0c0,-60 48,-109 107,-111l0 0z"/>
    <path class="fil6" d="M51644 5048c-58,-2 -106,-50 -106,-110l-1 0c-1,60 -48,108 -107,110 59,2 107,51 107,111l1 0c0,-60 47,-109 106,-111l0 0z"/>
    <path class="fil6" d="M52731 4204c-59,-2 -107,-50 -107,-110l-1 0c0,60 -48,108 -107,110 60,2 107,50 107,111l1 0c0,-61 47,-109 107,-111l0 0z"/>
    <path class="fil6" d="M54607 5620c-59,-2 -106,-51 -106,-110l-1 0c-1,59 -48,108 -107,110 59,2 107,50 107,110l1 0c0,-60 47,-108 106,-110l0 0z"/>
    <path class="fil6" d="M55366 4424c-59,-2 -106,-51 -106,-110l-1 0c-1,59 -48,108 -107,110 59,2 107,50 107,110l1 0c0,-60 47,-108 106,-110l0 0z"/>
    <path class="fil6" d="M57111 4160c-58,-2 -106,-50 -106,-110l-1 0c0,60 -48,108 -107,110 59,2 107,51 107,111l1 0c0,-60 47,-109 106,-111l0 0z"/>
    <path class="fil6" d="M56246 2118c-59,-2 -106,-50 -107,-110l-1 0c0,60 -47,108 -106,110 59,2 106,51 106,111l1 0c0,-60 48,-109 107,-111l0 0z"/>
    <path class="fil6" d="M56279 867c-59,-2 -107,-50 -107,-110l-1 0c0,60 -47,108 -106,110 59,2 106,51 106,111l1 0c0,-60 48,-109 107,-111l0 0z"/>
    <path class="fil6" d="M59383 2316c-59,-2 -106,-50 -106,-110l-1 0c-1,60 -48,108 -107,110 59,2 107,51 107,111l1 0c0,-60 47,-109 106,-111l0 0z"/>
    <path class="fil6" d="M62445 9297c-59,-2 -106,-51 -106,-110l-1 0c0,59 -48,108 -107,110 60,2 107,50 107,110l1 0c0,-60 47,-108 106,-110l0 0z"/>
    <path class="fil6" d="M48574 32476c-39,1 -71,32 -72,72l0 0c0,-40 -31,-72 -70,-74 39,-1 71,-33 72,-72l0 0c0,39 31,72 70,74l0 0z"/>
    <path class="fil6" d="M49467 26558c-39,0 -71,32 -72,71l-1 0c1,-39 -30,-71 -69,-73 39,-1 71,-33 72,-73l0 0c0,40 31,73 70,75l0 0z"/>
    <path class="fil6" d="M55459 32188c-39,1 -71,32 -71,72l-1 0c0,-40 -31,-72 -70,-74 40,-1 72,-32 72,-72l1 0c-1,40 30,72 69,74l0 0z"/>
    <path class="fil6" d="M57468 26986c-39,0 -71,32 -72,72l-1 0c1,-40 -30,-72 -69,-74 39,-1 71,-33 72,-73l0 0c0,40 31,73 70,75l0 0z"/>
    <path class="fil6" d="M51837 28994c-39,1 -70,32 -71,72l-1 0c0,-40 -30,-72 -69,-74 39,-1 71,-32 71,-72l1 0c-1,40 30,72 69,74l0 0z"/>
    <path class="fil6" d="M56876 24648c-39,1 -71,32 -72,72l-1 0c1,-40 -30,-72 -69,-74 39,-1 71,-33 72,-72l0 0c-1,39 30,72 70,74l0 0z"/>
    <path class="fil6" d="M62672 33721c-39,1 -71,32 -72,72l0 0c0,-40 -31,-72 -70,-74 40,-1 71,-32 72,-72l1 0c-1,40 30,72 69,74l0 0z"/>
    <path class="fil6" d="M60202 25958c-39,1 -71,32 -72,72l0 0c0,-40 -31,-72 -70,-74 39,-1 71,-33 72,-73l0 0c0,40 31,73 70,75l0 0z"/>
    <path class="fil6" d="M63763 23456c-39,1 -71,32 -72,72l0 0c0,-40 -31,-72 -70,-74 39,-1 71,-32 72,-72l0 0c0,40 31,72 70,74l0 0z"/>
    <path class="fil6" d="M62281 24378c-39,1 -71,32 -71,72l-1 0c0,-40 -30,-72 -69,-74 39,-1 71,-32 71,-72l1 0c-1,40 30,72 69,74l0 0z"/>
    <path class="fil6" d="M59874 24370c-39,1 -71,32 -72,72l0 0c0,-40 -31,-72 -70,-74 39,-1 71,-32 72,-72l0 0c0,40 31,72 70,74l0 0z"/>
    <path class="fil6" d="M57569 25424c-39,1 -71,32 -71,72l-1 0c0,-40 -31,-72 -70,-74 40,-1 72,-33 72,-73l1 0c-1,40 30,73 69,75l0 0z"/>
    <path class="fil6" d="M53816 25951c-39,0 -71,32 -72,71l-1 0c1,-39 -30,-72 -69,-73 39,-1 71,-33 72,-73l0 0c0,40 30,73 70,75l0 0z"/>
    <path class="fil6" d="M52104 26971c-40,1 -71,33 -72,72l-1 0c1,-39 -30,-72 -69,-74 39,0 71,-32 71,-72l1 0c-1,40 30,72 70,74l0 0z"/>
    <path class="fil6" d="M50391 27992c-39,1 -70,32 -71,72l-1 0c0,-40 -30,-72 -69,-74 39,-1 71,-33 71,-72l1 0c-1,39 30,72 69,74l0 0z"/>
    <path class="fil6" d="M48679 29013c-39,0 -71,32 -71,72l-1 -1c0,-39 -31,-71 -70,-73 40,-1 72,-33 72,-73l1 0c-1,40 30,73 69,75l0 0z"/>
    <path class="fil6" d="M53226 28492c-58,-2 -106,-50 -106,-110l-1 0c0,60 -48,108 -107,110 60,2 107,51 107,111l1 0c0,-60 47,-109 106,-111l0 0z"/>
    <path class="fil6" d="M54838 21215c-59,-2 -106,-50 -106,-110l-1 0c-1,60 -48,108 -107,110 59,2 107,51 107,111l1 0c0,-60 47,-109 106,-111l0 0z"/>
    <path class="fil6" d="M56450 13938c-59,-2 -106,-51 -107,-110l-1 0c0,59 -47,108 -106,110 59,2 107,50 107,110l0 0c0,-60 48,-108 107,-110l0 0z"/>
    <path class="fil6" d="M61552 28691c-39,0 -71,32 -72,71l0 0c0,-39 -31,-72 -70,-73 39,-1 71,-33 72,-73l0 0c0,40 31,73 70,75l0 0z"/>
    <path class="fil6" d="M58556 29316c-39,1 -71,33 -72,72l-1 0c1,-39 -30,-72 -69,-74 39,-1 71,-32 72,-72l0 0c0,40 30,72 70,74l0 0z"/>
    <path class="fil6" d="M55559 29942c-39,1 -70,32 -71,72l-1 0c0,-40 -30,-72 -69,-74 39,-1 71,-33 71,-72l1 0c-1,39 30,72 69,74l0 0z"/>
    <path class="fil6" d="M52563 30567c-39,1 -71,33 -72,72l0 0c0,-39 -31,-72 -70,-74 40,0 71,-32 72,-72l1 0c-1,40 30,73 69,74l0 0z"/>
    <path class="fil6" d="M53617 31021c-39,1 -70,32 -71,72l-1 0c1,-40 -30,-72 -69,-74 39,-1 71,-32 71,-72l1 0c-1,40 30,72 69,74l0 0z"/>
    <path class="fil6" d="M55691 29316c-39,1 -71,33 -72,72l0 0c0,-39 -31,-72 -70,-74 40,-1 71,-32 72,-72l1 0c-1,40 30,72 69,74l0 0z"/>
    <path class="fil6" d="M48014 30303c-39,1 -70,32 -71,72l-1 0c0,-40 -30,-72 -69,-74 39,-1 71,-33 71,-73l1 0c-1,40 30,73 69,75l0 0z"/>
    <path class="fil6" d="M50517 31620c-39,1 -71,32 -72,72l-1 0c1,-40 -30,-72 -69,-74 39,-1 71,-33 72,-73l0 0c0,40 30,73 70,75l0 0z"/>
    <path class="fil6" d="M50813 29545c-39,1 -71,33 -72,72l0 0c0,-39 -31,-72 -70,-74 39,0 71,-32 72,-72l0 0c0,40 31,73 70,74l0 0z"/>
    <path class="fil6" d="M52657 29842c-39,1 -71,32 -72,72l0 0c0,-40 -31,-72 -70,-74 39,-1 71,-33 72,-73l0 0c0,40 31,73 70,75l0 0z"/>
    <path class="fil6" d="M52393 33628c-39,1 -70,33 -71,72l-1 0c0,-39 -30,-72 -69,-74 39,-1 71,-32 71,-72l1 0c-1,40 30,72 69,74l0 0z"/>
    <path class="fil6" d="M56937 35044c-39,1 -71,32 -71,72l-1 0c0,-40 -31,-72 -70,-74 40,-1 72,-32 72,-72l1 0c-1,40 30,72 69,74l0 0z"/>
    <path class="fil6" d="M57069 32575c-39,0 -71,32 -72,71l0 0c0,-39 -31,-72 -70,-73 39,-1 71,-33 72,-73l0 0c0,40 31,73 70,75l0 0z"/>
    <path class="fil6" d="M59933 34320c-39,0 -70,32 -71,72l-1 -1c1,-39 -30,-71 -69,-73 39,-1 71,-33 71,-73l1 0c-1,40 30,73 70,75l-1 0z"/>
    <path class="fil6" d="M59868 31554c-39,1 -71,32 -72,72l-1 0c1,-40 -30,-72 -69,-74 39,-1 71,-33 72,-72l0 0c0,39 30,72 70,74l0 0z"/>
    <path class="fil6" d="M37253 10134c-59,-2 -107,-50 -107,-110l-1 0c0,60 -48,108 -107,110 60,2 107,51 107,111l1 0c0,-60 47,-109 107,-111l0 0z"/>
    <path class="fil6" d="M50187 24607c-39,0 -70,32 -71,71l-1 0c0,-39 -30,-72 -69,-73 39,-1 71,-33 71,-73l1 0c-1,40 30,73 69,75l0 0z"/>
    <path class="fil6" d="M56908 22047c-39,1 -71,32 -72,72l0 0c0,-40 -31,-72 -70,-74 39,-1 71,-33 72,-72l0 0c0,39 31,72 70,74l0 0z"/>
    <path class="fil6" d="M56579 21322c-39,1 -71,33 -72,72l-1 0c1,-39 -30,-72 -69,-74 39,0 71,-32 72,-72l0 0c0,40 31,73 70,74l0 0z"/>
    <path class="fil6" d="M58686 18623c-39,0 -71,32 -72,71l0 0c0,-39 -31,-72 -70,-73 39,-1 71,-33 72,-73l0 0c0,40 31,73 70,75l0 0z"/>
    <path class="fil6" d="M56831 12168c-39,1 -71,32 -72,72l0 0c0,-40 -31,-72 -70,-74 40,-1 71,-33 72,-72l0 0c0,39 31,72 70,74l0 0z"/>
    <path class="fil6" d="M63832 10923c-39,1 -71,32 -72,72l0 0c0,-40 -31,-72 -70,-74 39,-1 71,-32 72,-72l0 0c0,40 31,72 70,74l0 0z"/>
    <path class="fil6" d="M44142 10693c59,-2 106,-51 107,-110l1 0c0,59 47,108 106,110 -59,2 -106,50 -106,110l-1 0c0,-60 -48,-108 -107,-110l0 0z"/>
    <path class="fil6" d="M38150 11219c39,1 70,33 71,72l1 0c0,-39 30,-72 69,-74 -39,0 -71,-32 -71,-72l-1 0c1,40 -30,73 -69,74l0 0z"/>
    <path class="fil6" d="M41063 4712c39,0 71,32 71,71l1 0c0,-39 30,-72 69,-74 -39,0 -71,-32 -71,-72l-1 0c1,40 -30,73 -69,75l0 0z"/>
    <path class="fil6" d="M45664 6337c39,1 71,32 72,72l0 0c0,-40 31,-72 70,-74 -39,-1 -71,-32 -72,-72l0 0c0,40 -31,72 -70,74l0 0z"/>
    <path class="fil6" d="M42031 8199c39,0 71,32 72,72l0 0c0,-40 31,-72 70,-74 -39,-1 -71,-33 -72,-73l0 0c0,40 -31,73 -70,75l0 0z"/>
    <path class="fil6" d="M45690 3251c39,1 70,33 71,72l1 0c0,-39 30,-72 69,-74 -39,0 -71,-32 -71,-72l-1 0c1,40 -30,72 -69,74l0 0z"/>
    <path class="fil6" d="M42324 411c39,1 71,33 72,72l1 0c-1,-39 30,-72 69,-74 -39,0 -71,-32 -72,-72l0 0c0,40 -31,72 -70,74l0 0z"/>
    <path class="fil6" d="M45881 1138c40,1 71,32 72,72l1 0c-1,-40 30,-72 69,-74 -39,-1 -71,-32 -71,-72l-1 0c1,40 -30,72 -70,74l0 0z"/>
    <path class="fil6" d="M45657 9540c39,1 71,32 71,72l1 0c0,-40 31,-72 70,-74 -40,-1 -72,-32 -72,-72l-1 0c1,40 -30,72 -69,74l0 0z"/>
    <path class="fil6" d="M42496 11812c39,1 71,32 72,72l0 0c0,-40 31,-72 70,-74 -40,-1 -71,-32 -72,-72l-1 0c1,40 -30,72 -69,74l0 0z"/>
    <path class="fil6" d="M40586 9343c39,0 71,32 72,71l0 0c0,-39 31,-72 70,-73 -39,-1 -71,-33 -72,-73l0 0c0,40 -31,73 -70,75l0 0z"/>
    <path class="fil6" d="M41245 5852c39,1 71,33 71,72l1 0c0,-39 30,-72 69,-74 -39,0 -71,-32 -71,-72l-1 0c1,40 -30,73 -69,74l0 0z"/>
    <path class="fil6" d="M43348 4906c39,1 71,32 72,72l1 0c-1,-40 30,-72 69,-74 -39,-1 -71,-32 -72,-72l0 0c0,40 -31,72 -70,74l0 0z"/>
    <path class="fil6" d="M44796 4906c40,1 71,32 72,72l1 0c-1,-40 30,-72 69,-74 -39,-1 -71,-32 -71,-72l-1 0c1,40 -30,72 -70,74l0 0z"/>
    <path class="fil6" d="M44664 6644c39,1 71,32 72,72l0 0c0,-40 31,-72 70,-74 -40,-1 -71,-33 -72,-72l0 0c0,39 -31,72 -70,74l0 0z"/>
    <path class="fil6" d="M46015 7639c39,1 71,32 71,72l1 0c0,-40 30,-72 69,-74 -39,-1 -71,-33 -71,-72l-1 0c1,39 -30,72 -69,74l0 0z"/>
    <path class="fil6" d="M44363 8719c39,1 70,32 71,72l1 0c0,-40 30,-72 69,-74 -39,-1 -71,-32 -71,-72l-1 0c1,40 -30,72 -69,74l0 0z"/>
    <path class="fil6" d="M39659 7006c39,1 71,32 72,72l0 0c0,-40 31,-72 70,-74 -39,-1 -71,-32 -72,-72l0 0c0,40 -31,72 -70,74l0 0z"/>
    <path class="fil6" d="M38940 4898c39,0 71,32 71,71l1 0c0,-39 31,-72 70,-73 -40,-1 -71,-33 -72,-73l-1 0c1,40 -30,73 -69,75l0 0z"/>
    <path class="fil6" d="M38611 2461c39,1 70,32 71,72l1 0c0,-40 30,-72 69,-74 -39,-1 -71,-32 -71,-72l-1 0c1,40 -30,72 -69,74l0 0z"/>
    <path class="fil6" d="M38874 3251c39,1 71,33 72,72l0 0c0,-39 31,-72 70,-74 -39,0 -71,-32 -72,-72l0 0c0,40 -31,72 -70,74l0 0z"/>
    <path class="fil6" d="M37524 4140c39,1 71,33 72,72l0 0c0,-39 31,-72 70,-74 -39,0 -71,-32 -72,-72l0 0c0,40 -31,72 -70,74l0 0z"/>
    <path class="fil6" d="M38051 6116c39,1 71,32 72,72l0 0c0,-40 31,-72 70,-74 -40,-1 -71,-33 -72,-72l-1 0c1,39 -30,72 -69,74l0 0z"/>
    <path class="fil6" d="M43385 8948c59,-2 106,-51 106,-111l1 0c1,60 48,109 107,111 -59,1 -107,50 -107,110l0 0c0,-60 -48,-109 -107,-110l0 0z"/>
    <path class="fil6" d="M44010 8124c59,-2 107,-50 107,-110l1 0c0,60 48,108 107,110 -60,2 -107,51 -107,111l-1 0c0,-60 -47,-109 -107,-111l0 0z"/>
    <path class="fil6" d="M46470 8784c59,-2 107,-51 107,-111l1 0c0,60 48,109 106,111 -59,1 -106,50 -106,110l-1 0c0,-60 -48,-109 -107,-110l0 0z"/>
    <path class="fil6" d="M46636 1473c59,-2 106,-50 107,-110l1 0c0,60 47,108 106,110 -59,2 -106,51 -106,111l-1 0c0,-60 -48,-109 -107,-111l0 0z"/>
    <path class="fil6" d="M44990 1967c59,-2 106,-50 107,-110l1 0c0,60 47,108 106,110 -59,2 -107,51 -107,111l0 0c0,-60 -48,-109 -107,-111l0 0z"/>
    <path class="fil6" d="M43904 1122c59,-2 106,-50 106,-110l1 0c1,60 48,108 107,110 -59,2 -107,51 -107,111l0 0c0,-60 -48,-109 -107,-111l0 0z"/>
    <path class="fil6" d="M42027 2538c59,-2 106,-50 107,-110l1 0c0,60 47,108 106,110 -59,2 -106,51 -106,111l-1 0c0,-60 -48,-109 -107,-111l0 0z"/>
    <path class="fil6" d="M41268 1342c59,-2 106,-50 107,-110l1 0c0,60 47,108 106,110 -59,2 -107,51 -107,111l0 0c0,-60 -48,-109 -107,-111l0 0z"/>
    <path class="fil6" d="M39523 1079c59,-2 106,-50 107,-110l1 0c0,60 47,108 106,110 -59,2 -107,50 -107,111l0 0c0,-61 -48,-109 -107,-111l0 0z"/>
    <path class="fil6" d="M40184 10856c59,-2 107,-50 107,-110l1 0c0,60 48,108 107,110 -60,2 -107,51 -107,111l-1 0c0,-60 -47,-109 -107,-111l0 0z"/>
    <path class="fil6" d="M39803 9087c39,0 71,32 72,71l1 0c-1,-39 30,-72 69,-73 -39,-1 -71,-33 -72,-73l0 0c0,40 -30,73 -70,75l0 0z"/>
    <path class="fil6" d="M35614 2095c39,1 70,33 71,72l1 0c-1,-39 30,-72 69,-74 -39,0 -71,-32 -71,-72l-1 0c1,40 -30,73 -69,74l0 0z"/>
    <path class="fil6" d="M35498 5059c39,0 71,32 72,72l1 0c-1,-40 30,-72 69,-74 -39,-1 -71,-33 -72,-73l0 0c0,40 -31,73 -70,75l0 0z"/>
    <path class="fil6" d="M28880 3429c39,1 71,32 72,72l0 0c0,-40 31,-72 70,-74 -39,-1 -71,-33 -72,-72l0 0c0,39 -31,72 -70,74l0 0z"/>
    <path class="fil6" d="M33057 959c39,0 71,32 72,71l0 0c0,-39 31,-72 70,-74 -40,0 -71,-32 -72,-72l-1 0c1,40 -30,73 -69,75l0 0z"/>
    <path class="fil6" d="M33682 3280c39,1 71,32 71,72l1 0c0,-40 31,-72 70,-74 -40,-1 -71,-33 -72,-73l-1 0c1,40 -30,73 -69,75l0 0z"/>
    <path class="fil6" d="M37437 7847c39,1 71,33 71,72l1 0c0,-40 31,-72 70,-74 -40,-1 -72,-32 -72,-72l-1 0c1,40 -30,72 -69,74l0 0z"/>
    <path class="fil6" d="M34605 8720c39,1 71,32 72,72l0 0c0,-40 31,-72 70,-74 -39,-1 -71,-33 -72,-73l0 0c0,40 -31,73 -70,75l0 0z"/>
    <path class="fil6" d="M31774 9592c39,1 70,33 71,72l1 0c-1,-39 30,-72 69,-74 -39,0 -71,-32 -71,-72l-1 0c1,40 -30,72 -69,74l0 0z"/>
    <path class="fil6" d="M28942 10465c39,1 71,32 72,72l0 0c0,-40 31,-72 70,-74 -40,-1 -71,-33 -72,-72l-1 0c1,39 -30,72 -69,74l0 0z"/>
    <path class="fil6" d="M30622 13649c39,-1 71,-32 72,-72l1 0c-1,40 30,72 69,74 -39,1 -71,32 -71,72l-1 0c1,-40 -30,-72 -70,-74l0 0z"/>
    <path class="fil6" d="M44826 21493c-59,-2 -107,-50 -107,-110l-1 0c0,60 -48,108 -107,110 60,2 107,51 107,111l1 0c0,-60 47,-109 107,-111l0 0z"/>
    <path class="fil6" d="M46208 17740c-59,-2 -106,-50 -106,-110l-1 0c-1,60 -48,108 -107,110 59,2 107,51 107,111l1 0c0,-60 47,-109 106,-111l0 0z"/>
    <path class="fil6" d="M39248 30152c39,-1 71,-32 71,-72l1 0c0,40 30,72 69,74 -39,1 -71,33 -71,72l-1 0c1,-39 -30,-72 -69,-74l0 0z"/>
    <path class="fil6" d="M39216 27840c39,-1 70,-32 71,-72l1 0c0,40 30,72 69,74 -39,1 -71,33 -71,72l-1 0c1,-39 -30,-72 -69,-74l0 0z"/>
    <path class="fil6" d="M36186 26688c39,-1 71,-33 72,-72l1 0c-1,39 30,72 69,74 -39,0 -71,32 -72,72l0 0c0,-40 -30,-73 -70,-74l0 0z"/>
    <path class="fil6" d="M38854 24877c39,-1 71,-33 72,-72l0 0c0,39 31,72 70,74 -40,0 -71,32 -72,72l-1 0c1,-40 -30,-72 -69,-74l0 0z"/>
    <path class="fil6" d="M44143 20506c-32,18 -72,7 -91,-25l-1 1c19,31 9,72 -22,92 32,-18 73,-7 92,25l1 0c-19,-32 -10,-73 21,-93l0 0z"/>
    <path class="fil6" d="M43119 21297c-32,18 -72,7 -91,-24l-1 0c19,32 9,73 -22,92 33,-17 73,-7 92,25l1 0c-19,-32 -10,-73 21,-93l0 0z"/>
    <path class="fil6" d="M44635 22423c-32,17 -72,7 -91,-25l-1 0c19,32 9,73 -21,93 32,-18 72,-7 91,25l1 -1c-19,-32 -9,-72 21,-92l0 0z"/>
    <path class="fil6" d="M46907 23657c-32,18 -72,7 -91,-24l-1 0c19,32 9,73 -21,92 32,-17 72,-7 91,25l1 0c-19,-32 -10,-73 21,-93l0 0z"/>
    <path class="fil6" d="M46808 24991c-31,18 -72,7 -91,-25l-1 1c19,31 9,72 -21,92 32,-18 72,-7 91,25l1 0c-19,-32 -9,-73 21,-93l0 0z"/>
    <path class="fil6" d="M44012 25066c-32,18 -72,7 -92,-25l0 1c19,31 9,72 -22,92 32,-18 73,-7 92,25l0 -1c-19,-31 -9,-72 22,-92l0 0z"/>
    <path class="fil6" d="M41070 23541c-32,18 -72,7 -91,-24l-1 0c19,32 9,73 -21,92 32,-17 72,-7 91,25l1 0c-19,-32 -9,-73 21,-93l0 0z"/>
    <path class="fil6" d="M62062 15024c-39,1 -71,32 -71,72l-1 0c0,-40 -31,-72 -70,-74 40,-1 71,-33 72,-73l1 0c-1,40 30,73 69,75l0 0z"/>
    <path class="fil6" d="M62895 25430c-39,1 -70,33 -71,72l-1 0c0,-39 -30,-72 -69,-74 39,0 71,-32 71,-72l1 0c-1,40 30,73 69,74l0 0z"/>
    <path class="fil6" d="M63192 27208c-39,1 -71,33 -72,72l-1 0c1,-39 -30,-72 -69,-74 39,0 71,-32 72,-72l0 0c0,40 31,73 70,74l0 0z"/>
    <path class="fil6" d="M60656 27208c-39,1 -70,33 -71,72l-1 0c0,-39 -30,-72 -69,-74 39,0 71,-32 71,-72l1 0c-1,40 30,73 69,74l0 0z"/>
    <path class="fil6" d="M59116 26889c-39,0 -71,32 -71,71l-1 0c0,-39 -31,-72 -70,-73 40,-1 71,-33 72,-73l1 0c-1,40 30,73 69,75l0 0z"/>
    <path class="fil6" d="M57206 27461c-39,0 -70,32 -71,71l-1 0c0,-39 -30,-72 -69,-73 39,-1 71,-33 71,-73l1 0c-1,40 30,73 69,75l0 0z"/>
    <path class="fil6" d="M56572 26506c-39,0 -70,32 -71,72l-1 0c1,-40 -30,-72 -69,-74 39,-1 71,-33 71,-73l1 0c-1,40 30,73 69,75l0 0z"/>
    <path class="fil6" d="M55260 27702c-39,0 -71,32 -72,71l-1 0c1,-39 -30,-72 -69,-74 39,0 71,-32 72,-72l0 0c0,40 31,73 70,75l0 0z"/>
    <path class="fil6" d="M62837 30868c-39,1 -71,33 -72,72l-1 0c1,-39 -30,-72 -69,-74 39,0 71,-32 72,-72l0 0c0,40 30,73 70,74l0 0z"/>
    <path class="fil6" d="M493 4203c59,2 107,50 107,110l1 0c0,-60 48,-108 107,-110 -60,-2 -107,-51 -107,-111l-1 0c0,60 -47,109 -107,111l0 0z"/>
    <path class="fil6" d="M63622 3389c59,2 106,50 107,110l0 0c1,-60 48,-108 107,-110 -59,-2 -107,-51 -107,-111l0 0c0,60 -48,109 -107,111l0 0z"/>
    <path class="fil6" d="M49296 35469c-39,1 -70,32 -71,72l-1 0c0,-40 -30,-72 -69,-74 39,-1 71,-33 71,-73l1 0c-1,40 30,73 69,75l0 0z"/>
    <path class="fil6" d="M37319 35135c-40,1 -71,33 -72,72l-1 0c1,-39 -30,-72 -69,-74 39,0 71,-32 71,-72l1 0c-1,40 30,72 70,74l0 0z"/>
    <path class="fil6" d="M22110 35591c-39,1 -71,32 -71,72l-1 0c0,-40 -31,-72 -70,-74 40,-1 72,-32 72,-72l1 0c-1,40 30,72 69,74l0 0z"/>
    <path class="fil6" d="M1553 35035c-39,1 -71,32 -71,72l-1 0c0,-40 -31,-72 -70,-74 40,-1 72,-33 72,-73l1 0c-1,40 30,73 69,75l0 0z"/>
    <path class="fil6" d="M62073 35420c-39,1 -71,33 -72,72l0 0c0,-39 -31,-72 -70,-74 39,0 71,-32 72,-72l0 0c0,40 31,73 70,74l0 0z"/>
    <path class="fil6" d="M60843 435c-39,1 -71,32 -72,72l0 0c0,-40 -31,-72 -70,-74 39,-1 71,-32 72,-72l0 0c0,40 31,72 70,74l0 0z"/>
    <circle class="fil7" cx="41626" cy="12456" r="41"/>
    <circle class="fil7" cx="28377" cy="10739" r="41"/>
    <circle class="fil7" cx="14714" cy="4055" r="41"/>
    <circle class="fil7" cx="32144" cy="4541" r="41"/>
    <circle class="fil7" cx="48887" cy="23819" r="41"/>
    <circle class="fil7" cx="21352" cy="20264" r="41"/>
    <circle class="fil7" cx="11068" cy="16659" r="41"/>
    <circle class="fil7" cx="3540" cy="8714" r="41"/>
    <circle class="fil7" cx="17637" cy="22812" r="41"/>
    <circle class="fil7" cx="29165" cy="25034" r="41"/>
    <circle class="fil7" cx="21560" cy="25403" r="41"/>
    <circle class="fil7" cx="43088" cy="27556" r="41"/>
    <circle class="fil7" cx="52852" cy="24854" r="41"/>
   </g>
  </g>
 </g>
</svg>
