<?xml version="1.0" encoding="UTF-8"?>
<!DOCTYPE svg PUBLIC "-//W3C//DTD SVG 1.1//EN" "http://www.w3.org/Graphics/SVG/1.1/DTD/svg11.dtd">
<!-- Creator: CorelDRAW X7 -->
<svg xmlns="http://www.w3.org/2000/svg" xml:space="preserve" width="1.9685in" height="0.785118in" version="1.1" style="shape-rendering:geometricPrecision; text-rendering:geometricPrecision; image-rendering:optimizeQuality; fill-rule:evenodd; clip-rule:evenodd"
viewBox="0 0 19685 7851"
 xmlns:xlink="http://www.w3.org/1999/xlink">
 <defs>
  <style type="text/css">
   <![CDATA[
    .fil0 {fill:#DBBB82}
   ]]>
  </style>
 </defs>
 <g id="Layer_x0020_1">
  <metadata id="CorelCorpID_0Corel-Layer"/>
  <path class="fil0" d="M13789 2600c-673,-1564 -2230,-2600 -3946,-2600 -1717,0 -3274,1036 -3947,2600 155,31 307,77 455,139 1112,461 2287,695 3492,695 1204,0 2379,-234 3491,-695 148,-62 300,-108 455,-139zm-7248 4364c1096,94 2201,142 3302,142 1101,0 2205,-48 3302,-142 -612,529 -1898,887 -3302,887 -1404,0 -2691,-358 -3302,-887zm-6511 -1514l9813 0 9812 0c-3200,854 -6498,1286 -9812,1286 -3315,0 -6613,-432 -9813,-1286zm5269 -2524c310,-19 620,34 910,154 1158,480 2380,724 3634,724 1253,0 2475,-244 3633,-724 290,-120 600,-173 910,-154 1965,118 3821,877 5299,2154l-9842 0 -9843 0c1478,-1277 3334,-2036 5299,-2154z"/>
 </g>
</svg>
