<?xml version="1.0" encoding="UTF-8"?>
<!DOCTYPE svg PUBLIC "-//W3C//DTD SVG 1.1//EN" "http://www.w3.org/Graphics/SVG/1.1/DTD/svg11.dtd">
<!-- Creator: CorelDRAW X7 -->
<svg xmlns="http://www.w3.org/2000/svg" xml:space="preserve" width="1.9685in" height="0.437717in" version="1.1" style="shape-rendering:geometricPrecision; text-rendering:geometricPrecision; image-rendering:optimizeQuality; fill-rule:evenodd; clip-rule:evenodd"
viewBox="0 0 19685 4377"
 xmlns:xlink="http://www.w3.org/1999/xlink">
 <defs>
  <style type="text/css">
   <![CDATA[
    .fil0 {fill:#DBBB82}
   ]]>
  </style>
 </defs>
 <g id="Layer_x0020_1">
  <metadata id="CorelCorpID_0Corel-Layer"/>
  <path class="fil0" d="M9843 0c-1747,0 -3286,507 -4189,1275 -3498,280 -5654,891 -5654,1472 0,787 3955,1630 9843,1630 5887,0 9842,-843 9842,-1630 0,-581 -2156,-1192 -5654,-1472 -903,-768 -2442,-1275 -4188,-1275zm3241 3056c0,-259 -1303,-536 -3241,-536 -1939,0 -3242,277 -3242,536 0,260 1303,537 3242,537 1938,0 3241,-277 3241,-537z"/>
 </g>
</svg>
