<?xml version="1.0" encoding="UTF-8"?>
<!DOCTYPE svg PUBLIC "-//W3C//DTD SVG 1.1//EN" "http://www.w3.org/Graphics/SVG/1.1/DTD/svg11.dtd">
<!-- Creator: CorelDRAW X7 -->
<svg xmlns="http://www.w3.org/2000/svg" xml:space="preserve" width="1.9685in" height="0.485354in" version="1.1" style="shape-rendering:geometricPrecision; text-rendering:geometricPrecision; image-rendering:optimizeQuality; fill-rule:evenodd; clip-rule:evenodd"
viewBox="0 0 19685 4854"
 xmlns:xlink="http://www.w3.org/1999/xlink">
 <defs>
  <style type="text/css">
   <![CDATA[
    .fil0 {fill:#DBBB82}
   ]]>
  </style>
 </defs>
 <g id="Layer_x0020_1">
  <metadata id="CorelCorpID_0Corel-Layer"/>
  <path class="fil0" d="M13652 1877c0,510 -1905,765 -3809,765 -1905,0 -3810,-255 -3810,-765 0,-219 80,-433 220,-634 -3847,293 -6253,1035 -6253,1740 0,903 3955,1871 9843,1871 5887,0 9842,-968 9842,-1871 0,-705 -2408,-1447 -6258,-1741 143,203 225,416 225,635zm-3809 -1877c-1894,0 -3493,818 -3493,1786 0,328 1567,595 3493,595 1925,0 3492,-267 3492,-595 0,-951 -1632,-1786 -3492,-1786z"/>
 </g>
</svg>
