<?xml version="1.0" encoding="UTF-8"?>
<!DOCTYPE svg PUBLIC "-//W3C//DTD SVG 1.1//EN" "http://www.w3.org/Graphics/SVG/1.1/DTD/svg11.dtd">
<!-- Creator: CorelDRAW X7 -->
<svg xmlns="http://www.w3.org/2000/svg" xml:space="preserve" width="27.1654in" height="15.2805in" version="1.1" style="shape-rendering:geometricPrecision; text-rendering:geometricPrecision; image-rendering:optimizeQuality; fill-rule:evenodd; clip-rule:evenodd"
viewBox="0 0 271654 152805"
 xmlns:xlink="http://www.w3.org/1999/xlink">
 <defs>
  <style type="text/css">
   <![CDATA[
    .fil0 {fill:#75613D}
    .fil11 {fill:#D9C49C}
    .fil12 {fill:#EDDFC4}
    .fil10 {fill:#FBF7F2}
    .fil7 {fill:white}
    .fil5 {fill:#D1A85D;fill-rule:nonzero}
    .fil1 {fill:#D7B77D;fill-rule:nonzero}
    .fil4 {fill:#DFC596;fill-rule:nonzero}
    .fil3 {fill:#E3CCA2;fill-rule:nonzero}
    .fil2 {fill:#EDDEC2;fill-rule:nonzero}
    .fil9 {fill:#EDDFC4;fill-rule:nonzero}
    .fil8 {fill:#F6EFE2;fill-rule:nonzero}
    .fil6 {fill:white;fill-rule:nonzero}
   ]]>
  </style>
 </defs>
 <g id="Layer_x0020_1">
  <metadata id="CorelCorpID_0Corel-Layer"/>
  <g id="_1725992744096">
   <rect class="fil0" width="271654" height="152805"/>
   <g>
    <g>
     <path class="fil1" d="M128764 126383c0,1031 -836,1867 -1868,1867 -1031,0 -1867,-836 -1867,-1867 0,-1032 836,-1868 1867,-1868 1032,0 1868,836 1868,1868z"/>
     <path class="fil2" d="M128723 126773c-179,844 -929,1477 -1827,1477 -1031,0 -1867,-836 -1867,-1867 0,-237 44,-463 124,-671 299,85 750,235 1421,486 984,367 1663,531 2149,575z"/>
     <path class="fil3" d="M126896 124515c759,0 1412,453 1704,1102 -286,10 -605,39 -943,98 -832,145 -1684,-267 -2166,-562 343,-391 845,-638 1405,-638z"/>
     <path class="fil4" d="M125043 126616c597,67 1230,227 1809,548 515,286 924,495 1246,649 -325,273 -744,437 -1202,437 -952,0 -1738,-713 -1853,-1634z"/>
     <path class="fil5" d="M127677 125121c-945,0 -1711,766 -1711,1711 0,584 294,1100 741,1409 -943,-95 -1678,-891 -1678,-1858 0,-1032 836,-1868 1867,-1868 621,0 1171,303 1510,769 -221,-105 -468,-163 -729,-163z"/>
    </g>
    <g>
     <path class="fil1" d="M76370 72963c0,-656 532,-1187 1187,-1187 656,0 1188,531 1188,1187 0,656 -532,1188 -1188,1188 -655,0 -1187,-532 -1187,-1188z"/>
     <path class="fil2" d="M76396 72715c114,-537 591,-939 1162,-939 655,0 1187,531 1187,1187 0,151 -28,294 -79,427 -190,-54 -476,-150 -903,-309 -626,-234 -1058,-338 -1367,-366z"/>
     <path class="fil3" d="M77558 74151c-483,0 -898,-288 -1084,-701 182,-6 385,-24 600,-62 529,-92 1071,170 1377,358 -218,248 -537,405 -893,405z"/>
     <path class="fil4" d="M78736 72815c-379,-43 -782,-144 -1150,-349 -328,-181 -588,-314 -793,-412 207,-174 473,-278 764,-278 606,0 1106,453 1179,1039z"/>
     <path class="fil5" d="M77061 73766c601,0 1088,-487 1088,-1088 0,-372 -186,-700 -471,-896 599,60 1067,566 1067,1181 0,656 -532,1188 -1188,1188 -394,0 -744,-193 -960,-489 141,67 298,104 464,104z"/>
    </g>
    <path class="fil6" d="M267769 47706c-301,167 -683,66 -864,-233l-5 3c177,301 85,685 -205,871 303,-167 686,-65 866,236l4 -2c-179,-302 -87,-688 204,-875l0 0z"/>
    <path class="fil6" d="M164111 64016c-250,-8 -451,-213 -452,-467l-4 0c-2,254 -202,459 -453,467 252,8 453,215 453,470l4 0c0,-255 201,-462 452,-470l0 0z"/>
    <path class="fil6" d="M149914 42328c-145,-81 -329,-32 -416,111l-2 -1c85,-145 40,-329 -99,-419 146,81 330,32 417,-113l2 1c-87,145 -42,331 98,421l0 0z"/>
    <path class="fil6" d="M114535 29759c108,55 240,13 294,-95 55,-107 13,-240 -95,-296 -108,-55 -240,-14 -294,94 -55,108 -12,240 95,296l0 1z"/>
    <path class="fil6" d="M234486 36715c-145,-80 -328,-32 -415,112l-3 -1c85,-145 41,-330 -98,-419 145,80 330,31 417,-114l1 1c-86,145 -42,331 98,421l0 0z"/>
    <path class="fil6" d="M101411 86857c250,8 451,213 452,467l5 0c1,-254 202,-459 452,-467 -251,-9 -453,-215 -453,-470l-3 0c0,255 -202,461 -453,470l0 0z"/>
    <path class="fil6" d="M133408 111107c166,-3 300,-136 304,-304l3 0c-2,168 129,305 295,313 -167,3 -302,138 -305,307l-2 0c3,-169 -129,-308 -295,-316l0 0z"/>
    <path class="fil6" d="M227863 104646c-524,30 -934,471 -924,1003l-9 0c-16,-532 -447,-951 -973,-956 527,-30 939,-474 925,-1009l7 0c14,535 447,957 974,962l0 0z"/>
    <path class="fil6" d="M150987 121114c-108,-56 -239,-13 -294,94 -55,108 -12,240 95,296 108,56 240,14 295,-94 54,-107 12,-240 -96,-296l0 0z"/>
    <path class="fil6" d="M186899 83595c-136,74 -307,29 -388,-105l-3 1c80,135 38,308 -92,392 136,-76 309,-30 389,106l2 -1c-81,-136 -39,-309 92,-393l0 0z"/>
    <path class="fil6" d="M192484 82585c-146,80 -329,32 -416,-112l-2 2c85,144 40,329 -99,419 146,-81 330,-32 417,113l2 -1c-87,-145 -42,-331 98,-421l0 0z"/>
    <path class="fil6" d="M106361 106902c165,-3 300,-137 304,-305l2 0c-1,168 130,306 295,314 -166,3 -301,138 -304,307l-2 -1c2,-168 -129,-307 -295,-315l0 0z"/>
    <path class="fil6" d="M105382 127866c166,-4 301,-137 304,-305l3 0c-1,168 129,305 295,313 -166,3 -302,138 -304,307l-3 0c3,-169 -128,-307 -295,-315l0 0z"/>
    <path class="fil6" d="M115724 116266c166,-3 301,-137 304,-305l3 0c-1,168 129,305 295,313 -166,4 -302,138 -304,307l-3 0c3,-169 -128,-307 -295,-315l0 0z"/>
    <path class="fil6" d="M100761 116327c166,-3 301,-137 304,-305l3 0c-1,168 130,306 295,314 -166,3 -302,138 -304,307l-2 0c2,-169 -129,-308 -296,-316l0 0z"/>
    <path class="fil6" d="M83149 102491c166,-3 301,-137 304,-305l3 0c-1,168 129,306 295,314 -166,3 -302,138 -304,307l-2 -1c2,-168 -129,-307 -296,-315l0 0z"/>
    <path class="fil6" d="M69966 131067c166,-3 300,-137 304,-304l2 0c-1,168 130,305 295,313 -166,3 -301,138 -304,307l-2 0c2,-169 -129,-308 -295,-316l0 0z"/>
    <path class="fil6" d="M89441 95922c166,-3 301,-136 304,-304l3 0c-2,168 129,305 295,313 -167,3 -302,138 -304,307l-3 0c3,-169 -129,-308 -295,-316l0 0z"/>
    <path class="fil6" d="M19168 79965c166,-3 300,-137 304,-305l2 0c-1,168 130,306 295,314 -166,3 -301,137 -304,306l-2 0c2,-169 -129,-307 -295,-315l0 0z"/>
    <path class="fil6" d="M89717 61800c250,8 450,213 452,467l4 0c2,-254 202,-459 453,-467 -252,-8 -453,-215 -453,-470l-4 0c0,255 -201,462 -452,470l0 0z"/>
    <path class="fil6" d="M35770 53694c251,8 451,213 453,467l4 0c2,-254 202,-459 452,-467 -251,-8 -453,-215 -453,-470l-3 0c0,255 -202,462 -453,470l0 0z"/>
    <path class="fil6" d="M61473 57881c251,8 451,213 453,467l4 0c2,-254 202,-459 452,-467 -251,-9 -452,-215 -452,-471l-4 0c0,256 -201,462 -453,471l0 0z"/>
    <path class="fil6" d="M40271 66828c250,8 451,213 453,467l4 0c1,-254 202,-459 452,-467 -251,-9 -453,-215 -453,-470l-3 0c0,255 -202,461 -453,470l0 0z"/>
    <path class="fil6" d="M22349 65242c250,9 451,214 452,468l5 0c1,-254 202,-459 452,-468 -251,-8 -453,-214 -453,-470l-3 0c0,255 -202,462 -453,470l0 0z"/>
    <path class="fil6" d="M11446 54391c250,8 451,213 452,467l4 0c2,-254 203,-459 453,-467 -251,-9 -453,-215 -453,-470l-3 0c0,255 -202,461 -453,470l0 0z"/>
    <path class="fil6" d="M6151 68934c250,8 451,213 452,467l5 0c1,-254 202,-459 452,-467 -251,-9 -453,-215 -453,-470l-3 0c0,255 -202,461 -453,470l0 0z"/>
    <path class="fil6" d="M14660 71162c250,8 451,213 453,467l4 0c1,-254 202,-459 452,-467 -251,-9 -453,-215 -453,-471l-3 0c0,256 -202,462 -453,471l0 0z"/>
    <path class="fil6" d="M33213 80244c250,9 451,214 452,467l4 0c2,-253 202,-458 453,-467 -252,-8 -453,-215 -453,-470l-4 0c0,255 -201,462 -452,470l0 0z"/>
    <path class="fil6" d="M48619 57136c250,9 451,214 453,468l4 0c1,-254 202,-459 452,-468 -251,-8 -453,-214 -453,-470l-3 0c0,256 -202,462 -453,470l0 0z"/>
    <path class="fil6" d="M57111 79685c250,9 451,214 453,467l4 0c1,-253 202,-458 452,-467 -251,-8 -453,-215 -453,-470l-3 0c0,255 -202,462 -453,470l0 0z"/>
    <path class="fil6" d="M54908 68317c250,8 451,213 453,467l4 0c1,-254 202,-459 452,-467 -251,-8 -453,-215 -453,-470l-3 0c0,255 -202,462 -453,470l0 0z"/>
    <path class="fil6" d="M44004 77447c250,8 451,213 452,467l4 0c2,-254 202,-459 453,-467 -252,-9 -453,-215 -453,-471l-4 0c0,256 -201,462 -452,471l0 0z"/>
    <path class="fil6" d="M70418 89605c250,9 451,214 452,468l4 0c2,-254 203,-459 453,-468 -251,-8 -453,-214 -453,-470l-3 0c0,256 -202,462 -453,470l0 0z"/>
    <path class="fil6" d="M43905 93801c250,8 451,213 452,467l4 0c2,-254 203,-459 453,-467 -251,-9 -453,-215 -453,-470l-3 0c-1,255 -202,461 -453,470l0 0z"/>
    <path class="fil6" d="M67770 72609c250,8 451,213 452,467l4 0c2,-254 203,-459 453,-467 -251,-9 -453,-215 -453,-471l-3 0c-1,256 -202,462 -453,471l0 0z"/>
    <path class="fil6" d="M68152 102814c438,15 789,374 792,818l7 0c3,-444 354,-803 791,-818 -439,-14 -792,-376 -792,-822l-6 0c0,446 -353,808 -792,822l0 0z"/>
    <path class="fil6" d="M58719 93941c166,-4 301,-137 304,-305l3 0c-2,168 129,305 295,313 -167,3 -302,138 -305,307l-2 0c3,-169 -129,-307 -295,-315l0 0z"/>
    <path class="fil6" d="M18469 91565c166,-3 300,-137 304,-305l3 0c-2,168 129,306 295,313 -167,4 -302,138 -305,307l-2 0c2,-169 -129,-307 -295,-315l0 0z"/>
    <path class="fil6" d="M30834 119188c165,-3 300,-137 304,-305l2 0c-1,168 130,306 295,314 -166,3 -301,138 -304,307l-2 0c2,-169 -129,-308 -295,-316l0 0z"/>
    <path class="fil6" d="M11202 111829c165,-3 300,-136 304,-304l2 0c-1,168 130,305 295,313 -166,3 -301,138 -304,307l-2 0c2,-169 -129,-308 -295,-316l0 0z"/>
    <path class="fil6" d="M27693 72278c166,-3 300,-137 304,-305l3 0c-2,168 129,306 295,314 -167,3 -302,138 -305,307l-2 0c3,-169 -129,-308 -295,-316l0 0z"/>
    <path class="fil6" d="M81360 52852c166,-3 300,-137 304,-305l2 0c-1,168 130,306 295,314 -166,3 -301,138 -304,307l-2 -1c2,-168 -129,-307 -295,-315l0 0z"/>
    <path class="fil6" d="M131005 70780c166,-3 301,-137 304,-305l3 0c-1,168 129,306 295,314 -166,3 -302,138 -304,307l-2 0c2,-169 -129,-308 -296,-316l0 0z"/>
    <path class="fil6" d="M96429 77894c166,-3 300,-137 304,-305l3 0c-2,168 129,306 295,313 -167,4 -302,138 -305,307l-2 0c3,-169 -129,-307 -295,-315l0 0z"/>
    <path class="fil6" d="M89842 116153c166,-3 301,-137 304,-305l3 1c-1,167 129,305 295,313 -167,3 -302,138 -304,307l-3 0c3,-169 -129,-308 -295,-316l0 0z"/>
    <path class="fil6" d="M50365 112288c166,-3 301,-137 304,-305l3 0c-1,168 129,306 295,314 -166,3 -302,138 -304,307l-2 0c2,-169 -129,-308 -296,-316l0 0z"/>
    <path class="fil6" d="M44582 140614c166,-3 301,-137 304,-305l3 0c-1,168 129,306 295,314 -167,3 -302,138 -304,307l-3 0c3,-169 -129,-308 -295,-316l0 0z"/>
    <path class="fil6" d="M34945 104386c165,-3 300,-137 304,-304l2 0c-1,167 130,305 295,313 -166,3 -301,138 -304,307l-2 0c2,-169 -129,-308 -295,-316l0 0z"/>
    <path class="fil6" d="M10487 132617c166,-3 301,-137 304,-304l3 0c-2,167 129,305 295,313 -167,3 -302,138 -305,307l-2 0c3,-169 -129,-308 -295,-316l0 0z"/>
    <path class="fil6" d="M70303 117523c166,-3 301,-136 304,-304l3 0c-1,168 129,305 295,313 -167,3 -302,138 -304,307l-3 0c3,-169 -129,-308 -295,-316l0 0z"/>
    <path class="fil6" d="M104124 142121c166,-3 301,-137 304,-305l3 0c-1,168 130,306 295,313 -166,4 -302,138 -304,307l-2 0c2,-169 -129,-307 -296,-315l0 0z"/>
    <path class="fil6" d="M114129 125477c166,-3 301,-137 304,-305l3 0c-2,168 129,306 295,314 -167,3 -302,138 -305,307l-2 0c3,-169 -129,-308 -295,-316l0 0z"/>
    <path class="fil6" d="M134080 140798c166,-3 300,-136 304,-304l3 0c-2,168 129,305 295,313 -167,3 -302,138 -305,307l-2 0c3,-169 -129,-308 -295,-316l0 0z"/>
    <path class="fil6" d="M198455 49632c166,-3 300,-137 304,-305l3 0c-2,168 129,306 295,314 -167,3 -302,138 -305,307l-2 0c3,-169 -129,-308 -295,-316l0 0z"/>
    <path class="fil6" d="M183759 60949c166,-3 301,-137 304,-305l3 0c-2,168 129,306 295,314 -167,3 -302,138 -305,307l-2 0c3,-169 -129,-308 -295,-316l0 0z"/>
    <path class="fil6" d="M165870 75903c166,-3 301,-137 304,-305l3 0c-2,168 129,306 295,314 -167,3 -302,138 -304,307l-3 0c3,-169 -129,-308 -295,-316l0 0z"/>
    <path class="fil6" d="M141972 89180c165,-3 300,-137 304,-305l2 0c-1,168 130,306 295,314 -166,3 -301,138 -304,307l-2 0c2,-169 -129,-308 -295,-316l0 0z"/>
    <path class="fil6" d="M123539 103749c166,-3 301,-137 304,-305l3 0c-1,168 129,306 295,313 -167,4 -302,138 -304,307l-3 0c3,-169 -129,-307 -295,-315l0 0z"/>
    <path class="fil6" d="M93616 125098c165,-3 300,-137 304,-305l2 0c-1,168 130,306 295,313 -166,4 -301,138 -304,307l-2 0c2,-169 -129,-307 -295,-315l0 0z"/>
    <path class="fil6" d="M70835 140052c166,-3 301,-137 304,-305l3 0c-1,168 129,306 295,313 -166,4 -302,138 -304,307l-3 0c3,-169 -129,-307 -295,-315l0 0z"/>
    <path class="fil6" d="M61751 146481c166,-4 301,-137 304,-305l3 0c-2,168 129,305 295,313 -167,3 -302,138 -305,307l-2 0c3,-169 -129,-307 -295,-315l0 0z"/>
    <path class="fil6" d="M198179 61201c166,-3 300,-137 304,-305l3 1c-2,167 129,305 295,313 -167,3 -302,138 -305,307l-2 0c2,-169 -129,-308 -295,-316l0 0z"/>
    <path class="fil6" d="M182668 67490c166,-3 301,-136 304,-304l3 0c-2,168 129,305 295,313 -167,3 -302,138 -305,307l-2 0c3,-169 -129,-308 -295,-316l0 0z"/>
    <path class="fil6" d="M174422 76575c166,-4 301,-137 304,-305l3 0c-1,168 129,305 295,313 -166,3 -302,138 -304,307l-2 0c2,-169 -129,-307 -296,-315l0 0z"/>
    <path class="fil6" d="M161892 86992c165,-3 300,-137 304,-305l2 0c-1,168 130,306 295,314 -166,3 -301,138 -304,306l-2 0c2,-169 -129,-307 -295,-315l0 0z"/>
    <path class="fil6" d="M150096 97040c166,-3 300,-136 304,-304l2 0c-1,168 130,305 295,313 -166,3 -301,138 -304,307l-2 0c2,-169 -129,-308 -295,-316l0 0z"/>
    <path class="fil6" d="M138503 100194c165,-4 300,-137 304,-305l2 0c-1,168 130,305 295,313 -166,3 -302,138 -304,307l-2 0c2,-169 -129,-307 -295,-315l0 0z"/>
    <path class="fil6" d="M126179 115454c166,-3 301,-136 304,-304l3 0c-2,168 129,305 295,313 -167,3 -302,138 -304,307l-3 0c3,-169 -129,-308 -295,-316l0 0z"/>
    <path class="fil6" d="M93026 137636c165,-3 300,-137 304,-305l2 0c-1,168 130,306 295,314 -166,3 -301,138 -304,306l-2 0c2,-168 -129,-307 -295,-315l0 0z"/>
    <path class="fil6" d="M81062 145475c166,-3 301,-137 304,-305l3 0c-1,168 129,306 295,314 -166,3 -302,138 -304,307l-3 -1c3,-169 -128,-307 -295,-315l0 0z"/>
    <path class="fil6" d="M103565 146313c166,-3 301,-136 304,-304l3 0c-1,168 130,305 295,313 -166,3 -302,138 -304,307l-2 0c2,-169 -129,-308 -296,-316l0 0z"/>
    <path class="fil6" d="M119635 138767c166,-4 301,-137 304,-305l3 0c-1,168 129,305 295,313 -166,3 -302,138 -304,307l-2 0c2,-169 -129,-307 -296,-315l0 0z"/>
    <path class="fil6" d="M136521 124539c166,-3 301,-137 304,-305l3 0c-2,168 129,305 295,313 -167,4 -302,138 -304,307l-3 0c3,-169 -129,-307 -295,-315l0 0z"/>
    <path class="fil6" d="M131113 127343c251,8 451,213 453,467l4 0c1,-254 202,-459 452,-467 -251,-9 -452,-215 -452,-471l-4 0c0,256 -202,462 -453,471l0 0z"/>
    <path class="fil6" d="M152181 91287c251,8 451,213 453,467l4 0c2,-254 202,-459 452,-467 -251,-9 -452,-215 -452,-470l-4 0c0,255 -201,461 -453,470l0 0z"/>
    <path class="fil6" d="M153161 77081c251,8 451,213 453,467l4 0c2,-254 202,-459 453,-467 -252,-9 -453,-215 -453,-470l-4 0c0,255 -201,461 -453,470l0 0z"/>
    <path class="fil6" d="M133174 90308c251,9 451,214 453,467l4 0c2,-253 202,-458 453,-467 -252,-8 -453,-215 -453,-470l-4 0c0,255 -201,462 -453,470l0 0z"/>
    <path class="fil6" d="M114309 106750c250,9 451,214 453,467l4 0c1,-253 202,-458 452,-467 -251,-8 -453,-215 -453,-470l-3 0c0,255 -202,462 -453,470l0 0z"/>
    <path class="fil6" d="M88696 129299c251,8 451,213 453,467l4 0c1,-254 202,-459 452,-467 -251,-8 -452,-215 -452,-470l-4 0c0,255 -202,462 -453,470l0 0z"/>
    <path class="fil6" d="M77691 141739c250,8 451,213 452,467l4 0c2,-254 203,-459 453,-467 -251,-8 -453,-215 -453,-470l-3 0c-1,255 -202,462 -453,470l0 0z"/>
    <path class="fil6" d="M57987 139314c250,8 451,213 452,467l5 0c1,-254 202,-459 452,-467 -251,-9 -453,-215 -453,-470l-3 0c0,255 -202,461 -453,470l0 0z"/>
    <path class="fil6" d="M72939 110014c250,8 451,213 453,467l4 0c1,-254 202,-459 452,-467 -251,-8 -453,-215 -453,-470l-3 0c0,255 -202,462 -453,470l0 0z"/>
    <path class="fil6" d="M182657 53296c165,-3 300,-137 304,-304l2 0c-1,168 130,305 295,313 -166,3 -302,138 -304,307l-2 0c2,-169 -129,-308 -296,-316l1 0z"/>
    <path class="fil6" d="M174815 62626c165,-3 300,-137 304,-305l2 0c-1,168 130,306 295,314 -166,3 -301,138 -304,307l-2 0c2,-169 -129,-308 -295,-316l0 0z"/>
    <path class="fil6" d="M171627 52117c166,-3 301,-137 304,-305l3 0c-1,168 129,306 295,314 -167,3 -302,138 -304,307l-3 0c3,-169 -129,-308 -295,-316l0 0z"/>
    <path class="fil6" d="M154717 55192c165,-3 300,-137 304,-305l2 0c-1,168 130,306 295,313 -166,4 -301,138 -304,307l-2 0c2,-169 -129,-307 -295,-315l0 0z"/>
    <path class="fil6" d="M154624 66587c166,-3 301,-137 304,-304l3 0c-1,168 129,305 295,313 -166,3 -302,138 -304,307l-3 0c3,-169 -128,-308 -295,-316l0 0z"/>
    <path class="fil6" d="M145788 74794c166,-3 300,-137 304,-305l3 0c-2,168 129,306 295,314 -167,3 -302,137 -305,306l-2 0c2,-169 -129,-307 -295,-315l0 0z"/>
    <path class="fil6" d="M130539 84401c165,-3 300,-137 304,-305l2 0c-1,168 130,306 295,314 -166,3 -301,138 -304,307l-2 0c2,-169 -129,-308 -295,-316l0 0z"/>
    <path class="fil6" d="M136242 78558c165,-3 300,-136 304,-304l2 0c-1,168 130,305 295,313 -166,3 -301,138 -304,307l-2 0c2,-169 -129,-308 -295,-316l0 0z"/>
    <path class="fil6" d="M139891 66014c166,-3 300,-137 304,-304l3 0c-2,167 129,305 295,313 -167,3 -302,138 -305,307l-2 0c2,-169 -129,-308 -295,-316l0 0z"/>
    <path class="fil6" d="M150379 60673c165,-3 300,-137 303,-305l3 0c-1,168 130,306 295,314 -166,3 -302,138 -304,306l-2 0c2,-169 -129,-307 -296,-315l1 0z"/>
    <path class="fil6" d="M144596 52663c166,-3 301,-136 304,-304l3 0c-2,168 129,305 295,313 -167,3 -302,138 -304,307l-3 0c3,-169 -129,-308 -295,-316l0 0z"/>
    <path class="fil6" d="M131285 52332c166,-3 300,-137 304,-305l2 0c-1,168 130,306 295,314 -166,3 -301,138 -304,307l-2 0c2,-169 -129,-308 -295,-316l0 0z"/>
    <path class="fil6" d="M122151 67351c166,-4 300,-137 304,-305l3 0c-2,168 129,305 295,313 -167,3 -302,138 -305,307l-2 0c3,-169 -129,-307 -295,-315l0 0z"/>
    <path class="fil6" d="M118240 82305c166,-3 300,-137 304,-305l3 0c-2,168 129,305 295,313 -167,4 -302,138 -305,307l-2 0c3,-169 -129,-307 -295,-315l0 0z"/>
    <path class="fil6" d="M109007 92568c166,-3 301,-137 304,-305l3 1c-2,167 129,305 295,313 -167,3 -302,138 -304,307l-3 0c3,-169 -129,-308 -295,-316l0 0z"/>
    <path class="fil6" d="M121443 93127c166,-3 300,-137 304,-305l3 0c-2,168 129,306 295,314 -167,3 -302,138 -305,307l-2 0c2,-169 -129,-308 -295,-316l0 0z"/>
    <path class="fil6" d="M132207 101932c166,-3 300,-137 304,-305l3 0c-2,168 129,306 295,314 -167,3 -302,138 -305,307l-2 0c2,-169 -129,-308 -295,-316l0 0z"/>
    <path class="fil6" d="M101302 101059c166,-3 301,-136 304,-304l3 0c-1,168 129,305 295,313 -166,3 -302,138 -304,307l-2 0c2,-169 -129,-308 -296,-316l0 0z"/>
    <path class="fil6" d="M93081 106622c166,-3 301,-136 304,-304l3 0c-1,168 130,305 295,313 -166,3 -302,138 -304,307l-2 0c2,-169 -129,-308 -296,-316l0 0z"/>
    <path class="fil6" d="M82338 113786c166,-3 301,-137 304,-305l3 0c-2,168 129,306 295,314 -167,3 -302,138 -305,307l-2 0c3,-169 -129,-308 -295,-316l0 0z"/>
    <path class="fil6" d="M79946 125210c166,-3 301,-137 304,-305l3 0c-1,168 130,306 295,314 -166,3 -302,138 -304,307l-2 0c2,-169 -129,-308 -296,-316l0 0z"/>
    <path class="fil6" d="M59558 125665c165,-3 300,-136 304,-304l2 0c-1,168 130,305 295,313 -166,3 -301,138 -304,307l-2 0c2,-169 -129,-308 -295,-316l0 0z"/>
    <path class="fil6" d="M60536 113926c166,-3 300,-137 304,-305l3 0c-2,168 129,306 295,314 -167,3 -302,137 -305,306l-2 0c3,-169 -129,-307 -295,-315l0 0z"/>
    <path class="fil6" d="M50473 125386c166,-3 301,-137 304,-305l3 0c-1,168 129,306 295,314 -166,3 -302,138 -304,307l-2 -1c2,-168 -129,-307 -296,-315l0 0z"/>
    <path class="fil6" d="M37336 135309c166,-3 301,-137 304,-305l3 0c-2,168 129,306 295,313 -167,4 -302,138 -304,307l-3 0c3,-169 -129,-307 -295,-315l0 0z"/>
    <path class="fil6" d="M33563 145791c166,-4 300,-137 304,-305l2 0c-1,168 130,305 295,313 -166,3 -301,138 -304,307l-2 0c2,-169 -129,-307 -295,-315l0 0z"/>
    <path class="fil6" d="M49942 149763c166,-3 300,-137 304,-305l3 0c-2,168 129,306 295,314 -167,3 -302,138 -305,307l-2 0c3,-169 -129,-308 -295,-316l0 0z"/>
    <path class="fil6" d="M51287 134356c166,-3 301,-137 304,-305l3 0c-1,168 130,305 295,313 -166,4 -302,138 -304,307l-2 0c2,-169 -129,-307 -296,-315l0 0z"/>
    <path class="fil6" d="M65123 127927c166,-3 301,-137 304,-305l3 0c-1,168 129,306 295,314 -166,3 -302,137 -304,306l-2 0c2,-169 -129,-307 -296,-315l0 0z"/>
    <path class="fil6" d="M81335 88236c166,-3 301,-137 304,-305l3 0c-1,168 129,306 295,313 -167,4 -302,138 -304,307l-3 0c3,-169 -129,-307 -295,-315l0 0z"/>
    <path class="fil6" d="M63024 85301c166,-3 301,-137 304,-305l3 0c-1,168 129,306 295,314 -166,3 -302,137 -304,306l-2 0c2,-169 -129,-307 -296,-315l0 0z"/>
    <path class="fil6" d="M50334 98692c165,-3 300,-137 304,-304l2 0c-1,168 130,305 295,313 -166,3 -301,138 -304,307l-2 0c2,-169 -129,-308 -295,-316l0 0z"/>
    <path class="fil6" d="M50054 85276c166,-3 301,-137 304,-305l3 0c-2,168 129,305 295,313 -167,4 -302,138 -305,307l-2 0c3,-169 -129,-307 -295,-315l0 0z"/>
    <path class="fil6" d="M36917 89049c166,-3 300,-137 304,-305l3 0c-2,168 129,306 295,314 -167,3 -302,138 -305,307l-2 0c3,-169 -129,-308 -295,-316l0 0z"/>
    <path class="fil6" d="M28811 99531c166,-3 300,-137 304,-305l3 0c-2,168 129,306 295,314 -167,3 -302,137 -305,306l-2 0c3,-169 -129,-307 -295,-315l0 0z"/>
    <path class="fil6" d="M6170 82900c166,-3 301,-137 304,-305l3 0c-1,168 129,306 295,313 -166,4 -302,138 -304,307l-3 0c3,-169 -128,-307 -295,-315l0 0z"/>
    <path class="fil6" d="M7288 101068c166,-3 301,-137 304,-305l3 0c-1,168 129,306 295,314 -166,3 -302,138 -304,307l-2 0c2,-169 -129,-308 -296,-316l0 0z"/>
    <path class="fil6" d="M31606 114345c166,-3 301,-137 304,-305l3 0c-2,168 129,306 295,314 -167,3 -302,138 -304,307l-3 0c3,-169 -129,-308 -295,-316l0 0z"/>
    <path class="fil6" d="M20845 144393c166,-3 300,-137 304,-305l3 0c-2,168 129,306 295,314 -167,3 -302,138 -305,307l-2 0c2,-169 -129,-308 -295,-316l0 0z"/>
    <path class="fil6" d="M27937 86954c250,9 451,213 453,467l4 0c1,-254 202,-458 452,-467 -251,-8 -453,-215 -453,-470l-3 0c0,255 -202,462 -453,470l0 0z"/>
    <path class="fil6" d="M2306 76085c250,9 451,214 452,467l4 0c2,-253 202,-458 453,-467 -251,-8 -453,-215 -453,-470l-3 0c-1,255 -202,462 -453,470l0 0z"/>
    <path class="fil6" d="M1521 53572c361,12 651,308 653,674l6 0c3,-366 292,-662 654,-674 -363,-12 -654,-311 -654,-679l-5 0c0,368 -291,667 -654,679l0 0z"/>
    <path class="fil6" d="M9761 95190c166,-4 301,-137 304,-305l3 0c-1,168 129,305 295,313 -166,4 -302,138 -304,307l-3 0c3,-169 -128,-307 -295,-315l0 0z"/>
    <path class="fil6" d="M112501 53296c166,-3 301,-136 304,-304l3 0c-2,168 129,305 295,313 -167,3 -302,138 -305,307l-2 0c3,-169 -129,-308 -295,-316l0 0z"/>
    <path class="fil6" d="M72447 61137c166,-3 301,-137 304,-305l3 0c-2,168 129,306 295,314 -167,3 -302,137 -305,306l-2 0c3,-169 -129,-307 -295,-315l0 0z"/>
    <path class="fil6" d="M157372 107181c166,-3 300,-136 304,-304l3 0c-2,168 129,305 295,313 -167,3 -302,138 -305,307l-2 0c3,-169 -129,-308 -295,-316l0 0z"/>
    <path class="fil6" d="M144250 107078c166,-3 301,-137 304,-305l3 0c-1,168 130,306 295,313 -166,4 -302,138 -304,307l-2 0c2,-169 -129,-307 -296,-315l0 0z"/>
    <path class="fil6" d="M112805 66967c166,-3 301,-136 304,-304l3 0c-2,168 129,305 295,313 -167,3 -302,138 -305,307l-2 0c3,-169 -129,-308 -295,-316l0 0z"/>
    <path class="fil6" d="M95293 66959c166,-3 300,-137 304,-305l2 0c-1,168 130,305 295,313 -166,4 -301,138 -304,307l-2 0c2,-169 -129,-307 -295,-315l0 0z"/>
    <path class="fil6" d="M87122 77069c165,-3 300,-137 304,-305l2 0c-1,168 130,306 295,314 -166,3 -302,138 -304,307l-2 0c2,-169 -129,-308 -296,-316l1 0z"/>
    <path class="fil6" d="M110827 135024c166,-3 301,-137 304,-305l3 0c-2,168 129,306 295,314 -167,3 -302,137 -304,306l-3 0c3,-169 -129,-307 -295,-315l0 0z"/>
    <path class="fil6" d="M40535 118362c166,-3 300,-137 304,-305l3 0c-2,168 129,306 295,314 -167,3 -302,138 -305,307l-2 0c2,-169 -129,-308 -295,-316l0 0z"/>
    <path class="fil6" d="M46682 118362c166,-3 301,-137 304,-305l3 0c-2,168 129,306 295,314 -167,3 -302,138 -305,307l-2 0c3,-169 -129,-308 -295,-316l0 0z"/>
    <path class="fil6" d="M46120 110986c165,-4 300,-137 304,-305l2 0c-1,168 130,305 295,313 -166,3 -302,138 -304,307l-2 0c2,-169 -129,-307 -295,-315l0 0z"/>
    <path class="fil6" d="M51853 106762c166,-3 301,-137 304,-305l3 0c-2,168 129,306 295,314 -167,3 -302,138 -305,307l-2 0c3,-169 -129,-308 -295,-316l0 0z"/>
    <path class="fil6" d="M44840 102177c166,-3 301,-136 304,-304l3 0c-1,168 129,305 295,313 -166,3 -302,138 -304,307l-2 0c2,-169 -129,-308 -296,-316l0 0z"/>
    <path class="fil6" d="M24876 109448c166,-3 301,-137 304,-305l3 0c-1,168 130,306 295,314 -166,3 -302,138 -304,307l-2 0c2,-169 -129,-308 -296,-316l0 0z"/>
    <path class="fil6" d="M21823 118398c166,-3 301,-137 304,-305l3 0c-2,168 129,306 295,314 -167,3 -302,138 -304,307l-3 0c3,-169 -129,-308 -295,-316l0 0z"/>
    <path class="fil6" d="M20426 128740c165,-3 300,-137 304,-305l2 0c-1,168 130,306 295,314 -166,3 -302,138 -304,307l-2 0c2,-169 -129,-308 -296,-316l1 0z"/>
    <path class="fil6" d="M21544 125386c165,-3 300,-137 304,-305l2 0c-1,168 130,306 295,314 -166,3 -301,138 -304,307l-2 -1c2,-168 -129,-307 -295,-315l0 0z"/>
    <path class="fil6" d="M15814 121612c165,-3 300,-136 304,-304l2 0c-1,168 130,305 295,313 -166,3 -301,138 -304,307l-2 0c2,-169 -129,-308 -295,-316l0 0z"/>
    <path class="fil6" d="M18050 113227c165,-3 300,-137 304,-305l2 0c-1,168 130,306 295,314 -166,3 -301,138 -304,307l-2 0c2,-169 -129,-308 -295,-316l0 0z"/>
    <path class="fil6" d="M186150 123734c166,-3 301,-137 304,-305l3 0c-1,168 130,306 295,314 -166,3 -302,138 -304,307l-2 0c2,-169 -129,-308 -296,-316l0 0z"/>
    <path class="fil6" d="M189507 72862c166,-3 301,-136 304,-304l3 0c-1,168 129,305 295,313 -166,3 -302,138 -304,307l-2 0c2,-169 -129,-308 -296,-316l0 0z"/>
    <path class="fil6" d="M176395 86813c165,-3 300,-137 304,-305l2 0c-1,168 130,306 295,314 -166,3 -301,138 -304,307l-2 0c2,-169 -129,-308 -295,-316l0 0z"/>
    <path class="fil6" d="M194259 107941c166,-3 301,-136 304,-304l3 0c-2,168 129,305 295,313 -167,3 -302,138 -305,307l-2 0c3,-169 -129,-308 -295,-316l0 0z"/>
    <path class="fil6" d="M169659 112693c166,-3 301,-137 304,-305l3 1c-2,167 129,305 295,313 -167,3 -302,138 -305,307l-2 0c3,-169 -129,-308 -295,-316l0 0z"/>
    <path class="fil6" d="M160742 136706c166,-3 300,-137 304,-304l3 0c-2,167 129,305 295,313 -167,3 -302,138 -305,307l-2 0c2,-169 -129,-308 -295,-316l0 0z"/>
    <path class="fil6" d="M101554 55228c250,8 451,213 452,467l5 0c1,-254 202,-459 452,-467 -251,-9 -453,-215 -453,-470l-3 0c0,255 -202,461 -453,470l0 0z"/>
    <path class="fil6" d="M108156 76842c250,9 451,214 452,467l4 0c2,-253 203,-458 453,-467 -251,-8 -453,-215 -453,-470l-3 0c-1,255 -202,462 -453,470l0 0z"/>
    <path class="fil6" d="M68607 51316c250,8 450,213 452,467l4 0c2,-254 202,-459 453,-467 -252,-8 -453,-215 -453,-470l-4 0c0,255 -201,462 -453,470l1 0z"/>
    <path class="fil6" d="M66931 60071c251,9 451,214 453,468l4 0c2,-254 202,-459 453,-468 -252,-8 -453,-215 -453,-470l-4 0c0,255 -201,462 -453,470l0 0z"/>
    <path class="fil6" d="M64835 64264c250,8 451,213 453,467l4 0c1,-254 202,-459 452,-467 -251,-8 -453,-215 -453,-470l-3 0c0,255 -202,462 -453,470l0 0z"/>
    <path class="fil6" d="M56483 61377c250,8 451,213 452,467l5 0c1,-254 202,-459 452,-467 -251,-8 -453,-215 -453,-470l-3 0c0,255 -202,462 -453,470l0 0z"/>
    <path class="fil6" d="M40690 101208c251,8 451,213 453,467l4 0c2,-254 202,-459 452,-467 -251,-8 -452,-215 -452,-470l-4 0c0,255 -201,462 -453,470l0 0z"/>
    <path class="fil6" d="M43346 104702c250,8 451,213 452,467l4 0c2,-254 203,-459 453,-467 -251,-8 -453,-215 -453,-470l-3 0c-1,255 -202,461 -453,470l0 0z"/>
    <path class="fil6" d="M53787 101904c250,8 451,213 452,467l4 0c2,-254 202,-459 453,-467 -252,-8 -453,-215 -453,-470l-4 0c0,255 -201,462 -452,470l0 0z"/>
    <path class="fil6" d="M60676 105261c250,8 451,213 452,467l4 0c2,-254 202,-459 453,-467 -252,-8 -453,-215 -453,-470l-4 0c0,255 -201,462 -452,470l0 0z"/>
    <path class="fil6" d="M78529 101629c251,8 451,213 453,467l4 0c1,-254 202,-459 452,-467 -251,-9 -452,-215 -452,-470l-4 0c0,255 -202,461 -453,470l0 0z"/>
    <path class="fil6" d="M86320 101348c251,8 451,213 453,467l4 0c2,-254 202,-459 452,-467 -251,-9 -452,-215 -452,-470l-4 0c0,255 -201,461 -453,470l0 0z"/>
    <path class="fil6" d="M94985 99810c251,9 451,214 453,467l4 0c2,-253 202,-458 452,-467 -251,-8 -452,-215 -452,-470l-4 0c0,255 -201,462 -453,470l0 0z"/>
    <path class="fil6" d="M98619 94080c250,9 451,214 453,467l4 0c1,-253 202,-458 452,-467 -251,-8 -453,-215 -453,-470l-3 0c0,255 -202,462 -453,470l0 0z"/>
    <path class="fil6" d="M54491 132934c250,9 451,214 453,467l4 0c1,-253 202,-458 452,-467 -251,-8 -453,-215 -453,-470l-3 0c0,255 -202,462 -453,470l0 0z"/>
    <path class="fil6" d="M47503 130838c250,8 451,213 453,467l4 0c1,-254 202,-459 452,-467 -251,-8 -453,-215 -453,-470l-3 0c0,255 -202,462 -453,470l0 0z"/>
    <path class="fil6" d="M42893 134422c250,9 451,214 453,467l4 0c1,-253 202,-458 452,-467 -251,-8 -453,-215 -453,-470l-3 0c0,255 -202,462 -453,470l0 0z"/>
    <path class="fil6" d="M34927 128413c250,8 451,213 453,467l4 0c1,-254 202,-459 452,-467 -251,-9 -453,-215 -453,-470l-3 0c0,255 -202,461 -453,470l0 0z"/>
    <path class="fil6" d="M31705 133489c250,9 451,214 453,467l4 0c1,-253 202,-458 452,-467 -251,-8 -453,-215 -453,-470l-3 0c0,255 -202,462 -453,470l0 0z"/>
    <path class="fil6" d="M24298 134607c250,9 451,214 452,467l5 0c1,-253 202,-458 452,-467 -251,-8 -453,-215 -453,-470l-3 0c0,255 -202,462 -453,470l0 0z"/>
    <path class="fil6" d="M27972 143275c251,8 451,213 453,467l4 0c2,-254 202,-459 453,-467 -252,-8 -453,-215 -453,-470l-4 0c0,255 -201,461 -453,470l0 0z"/>
    <path class="fil6" d="M27833 148586c250,8 451,213 452,467l4 0c2,-254 202,-459 453,-467 -252,-9 -453,-215 -453,-470l-4 0c0,255 -201,461 -452,470l0 0z"/>
    <path class="fil6" d="M14655 142434c250,8 451,213 452,467l4 0c2,-254 202,-459 453,-467 -252,-9 -453,-215 -453,-470l-4 0c0,255 -201,461 -452,470l0 0z"/>
    <path class="fil6" d="M1657 112805c250,9 451,213 453,467l4 0c1,-254 202,-458 452,-467 -251,-8 -453,-215 -453,-470l-3 0c0,255 -202,462 -453,470l0 0z"/>
    <path class="fil6" d="M196240 145511c250,8 451,213 453,467l4 0c1,-254 202,-459 452,-467 -251,-8 -453,-215 -453,-470l-3 0c0,255 -202,462 -453,470l0 0z"/>
    <path class="fil6" d="M180405 130967c166,-3 300,-136 304,-304l3 0c-2,168 129,305 295,313 -167,3 -302,138 -305,307l-2 0c3,-169 -129,-308 -295,-316l0 0z"/>
    <path class="fil6" d="M170203 124539c165,-3 300,-137 304,-305l2 0c-1,168 130,305 295,313 -166,4 -301,138 -304,307l-2 0c2,-169 -129,-307 -295,-315l0 0z"/>
    <path class="fil6" d="M144907 131806c165,-3 300,-137 304,-305l2 0c-1,168 130,306 295,314 -166,3 -301,138 -304,307l-2 0c2,-169 -129,-308 -295,-316l0 0z"/>
    <path class="fil6" d="M149938 143685c166,-3 300,-136 304,-304l3 0c-2,168 129,305 295,313 -167,3 -302,138 -305,307l-2 0c2,-169 -129,-308 -295,-316l0 0z"/>
    <path class="fil6" d="M138028 147559c165,-3 300,-137 304,-305l2 0c-1,168 130,306 295,313 -166,4 -302,138 -304,307l-2 0c2,-169 -129,-307 -295,-315l0 0z"/>
    <path class="fil6" d="M179469 101767c166,-3 301,-137 304,-305l3 0c-1,168 129,306 295,314 -166,3 -302,138 -304,307l-3 0c3,-169 -128,-308 -295,-316l0 0z"/>
    <path class="fil6" d="M163102 95442c166,-3 301,-137 304,-305l3 0c-2,168 129,306 295,314 -167,3 -302,137 -305,306l-2 0c3,-169 -129,-307 -295,-315l0 0z"/>
    <path class="fil6" d="M180013 115707c165,-3 300,-137 304,-305l2 0c-1,168 130,305 295,313 -166,4 -301,138 -304,307l-2 0c2,-169 -129,-307 -295,-315l0 0z"/>
    <path class="fil6" d="M198871 120520c166,-3 301,-137 304,-305l3 0c-2,168 129,306 295,313 -167,4 -302,138 -305,307l-2 0c3,-169 -129,-307 -295,-315l0 0z"/>
    <path class="fil6" d="M192023 130303c166,-3 300,-137 304,-305l3 0c-2,168 129,306 295,313 -167,4 -302,138 -305,307l-2 0c3,-169 -129,-307 -295,-315l0 0z"/>
    <path class="fil6" d="M184619 135443c166,-3 300,-137 304,-305l3 0c-2,168 129,306 295,314 -167,3 -302,138 -305,307l-2 0c3,-169 -129,-308 -295,-316l0 0z"/>
    <path class="fil6" d="M180147 138657c166,-3 300,-136 304,-304l2 0c-1,168 130,305 295,313 -166,3 -301,138 -304,307l-2 0c2,-169 -129,-308 -295,-316l0 0z"/>
    <path class="fil6" d="M173159 142151c166,-3 300,-136 304,-304l3 0c-2,168 129,305 295,313 -167,3 -302,138 -305,307l-2 0c2,-169 -129,-308 -295,-316l0 0z"/>
    <path class="fil6" d="M167485 143875c319,-6 578,-263 585,-586l5 0c-2,323 249,588 568,603 -320,6 -581,265 -586,590l-4 0c5,-325 -248,-592 -568,-607l0 0z"/>
    <path class="fil6" d="M180569 146593c166,-3 301,-137 304,-305l3 0c-1,168 130,306 295,314 -166,3 -302,138 -304,307l-2 0c2,-169 -129,-308 -296,-316l0 0z"/>
    <path class="fil6" d="M192169 140863c166,-3 301,-137 304,-305l3 0c-1,168 129,306 295,314 -166,3 -302,138 -304,307l-2 -1c2,-168 -129,-307 -296,-315l0 0z"/>
    <path class="fil6" d="M170786 131918c166,-3 301,-136 304,-304l3 0c-1,168 130,305 295,313 -166,3 -302,138 -304,307l-2 0c2,-169 -129,-308 -296,-316l0 0z"/>
    <path class="fil6" d="M160726 116685c166,-3 301,-137 304,-305l3 0c-2,168 129,306 295,314 -167,3 -302,138 -304,307l-3 0c3,-169 -129,-308 -295,-316l0 0z"/>
    <path class="fil6" d="M158630 129123c166,-3 300,-137 304,-304l2 0c-1,168 130,305 295,313 -166,3 -301,138 -304,307l-2 0c2,-169 -129,-308 -295,-316l0 0z"/>
    <path class="fil6" d="M145912 118362c166,-3 300,-137 304,-305l3 0c-2,168 129,306 295,314 -167,3 -302,138 -305,307l-2 0c2,-169 -129,-308 -295,-316l0 0z"/>
    <path class="fil6" d="M124557 7644c662,22 1193,564 1198,1236l10 0c4,-672 535,-1214 1198,-1236 -665,-22 -1199,-569 -1199,-1244l-9 0c0,675 -533,1222 -1198,1244l0 0z"/>
    <path class="fil6" d="M73786 35827c165,-3 300,-137 304,-305l2 0c-1,168 130,306 295,313 -166,4 -301,138 -304,307l-2 0c2,-169 -129,-307 -295,-315l0 0z"/>
    <path class="fil6" d="M88181 40299c165,-3 300,-137 304,-305l2 0c-1,168 130,306 295,314 -166,3 -301,138 -304,307l-2 -1c2,-168 -129,-307 -295,-315l0 0z"/>
    <path class="fil6" d="M90696 50082c166,-3 301,-137 304,-305l3 0c-1,168 129,306 295,314 -166,3 -302,138 -304,307l-3 -1c3,-168 -129,-307 -295,-315l0 0z"/>
    <path class="fil6" d="M116955 40964c166,-3 301,-137 304,-305l3 0c-2,168 129,306 295,314 -167,3 -302,137 -304,306l-3 0c3,-169 -129,-307 -295,-315l0 0z"/>
    <path class="fil6" d="M87401 11383c166,-3 301,-137 304,-305l3 0c-2,168 129,306 295,314 -167,3 -302,138 -305,307l-2 0c3,-169 -129,-308 -295,-316l0 0z"/>
    <path class="fil6" d="M60536 14419c166,-3 300,-137 304,-305l3 0c-2,168 129,305 295,313 -167,4 -302,138 -305,307l-2 0c2,-169 -129,-307 -295,-315l0 0z"/>
    <path class="fil6" d="M56747 39539c166,-3 300,-137 304,-305l2 0c-1,168 130,306 295,314 -166,3 -301,138 -304,306l-2 0c2,-169 -129,-307 -295,-315l0 0z"/>
    <path class="fil6" d="M31311 15640c166,-3 300,-136 304,-304l3 0c-2,168 129,305 295,313 -167,3 -302,138 -305,307l-2 0c3,-169 -129,-308 -295,-316l0 0z"/>
    <path class="fil6" d="M22786 37722c165,-3 300,-137 304,-305l2 0c-1,168 130,306 295,314 -166,3 -301,138 -304,307l-2 0c2,-169 -129,-308 -295,-316l0 0z"/>
    <path class="fil6" d="M46684 29197c166,-3 301,-137 304,-305l3 0c-1,168 129,306 295,314 -167,3 -302,137 -304,306l-3 0c3,-169 -129,-307 -295,-315l0 0z"/>
    <path class="fil6" d="M25299 47645c166,-3 301,-137 304,-305l3 0c-2,168 129,306 295,314 -167,3 -302,137 -304,306l-3 0c3,-169 -129,-307 -295,-315l0 0z"/>
    <path class="fil6" d="M695 9133c166,-3 301,-137 304,-305l3 0c-1,168 129,306 295,314 -166,3 -302,138 -304,307l-3 0c3,-169 -129,-308 -295,-316l0 0z"/>
    <path class="fil6" d="M11180 42085c166,-3 301,-137 304,-305l3 0c-1,168 129,306 295,314 -166,3 -302,138 -304,307l-3 0c3,-169 -129,-308 -295,-316l0 0z"/>
    <path class="fil6" d="M4610 49141c165,-3 300,-137 304,-305l2 0c-1,168 130,306 295,314 -166,3 -302,137 -304,306l-2 0c2,-169 -129,-307 -296,-315l1 0z"/>
    <path class="fil6" d="M12572 48824c166,-3 300,-137 304,-305l3 0c-2,168 129,306 295,314 -167,3 -302,138 -305,307l-2 0c3,-169 -129,-308 -295,-316l0 0z"/>
    <path class="fil6" d="M22355 44352c166,-3 300,-137 304,-305l3 0c-2,168 129,306 295,314 -167,3 -302,138 -305,306l-2 0c3,-168 -129,-307 -295,-315l0 0z"/>
    <path class="fil6" d="M38287 42116c166,-3 301,-137 304,-305l3 0c-1,168 129,306 295,313 -166,4 -302,138 -304,307l-3 0c3,-169 -128,-307 -295,-315l0 0z"/>
    <path class="fil6" d="M45555 37783c165,-3 300,-137 304,-304l2 0c-1,167 130,305 295,313 -166,3 -301,138 -304,307l-2 0c2,-169 -129,-308 -295,-316l0 0z"/>
    <path class="fil6" d="M52822 33451c166,-3 301,-137 304,-305l3 0c-2,168 129,306 295,314 -167,3 -302,137 -305,306l-2 0c3,-169 -129,-307 -295,-315l0 0z"/>
    <path class="fil6" d="M60089 29118c166,-3 301,-137 304,-304l3 0c-1,168 130,305 295,313 -166,3 -302,138 -304,307l-2 0c2,-169 -129,-308 -296,-316l0 0z"/>
    <path class="fil6" d="M80640 29507c165,-3 300,-137 304,-305l2 0c-1,168 130,306 295,314 -166,3 -301,138 -304,307l-2 0c2,-169 -129,-308 -295,-316l0 0z"/>
    <path class="fil6" d="M101190 29896c166,-3 300,-137 304,-305l2 0c-1,168 130,305 295,313 -166,4 -301,138 -304,307l-2 0c2,-169 -129,-307 -295,-315l0 0z"/>
    <path class="fil6" d="M106472 42247c107,56 239,14 294,-94 55,-108 12,-240 -95,-296 -108,-56 -240,-14 -295,94 -55,108 -12,240 96,296l0 0z"/>
    <path class="fil6" d="M98408 54736c108,55 240,13 294,-95 55,-107 13,-239 -95,-295 -107,-56 -239,-14 -294,93 -55,108 -12,241 95,296l0 1z"/>
    <path class="fil6" d="M65252 46564c251,9 451,214 453,467l4 0c2,-253 202,-458 452,-467 -251,-8 -452,-215 -452,-470l-4 0c0,255 -201,462 -453,470l0 0z"/>
    <path class="fil6" d="M40788 31329c250,8 451,213 453,467l4 0c1,-254 202,-459 452,-467 -251,-9 -453,-215 -453,-471l-3 0c0,256 -202,462 -453,471l0 0z"/>
    <path class="fil6" d="M33947 62217c250,8 451,213 452,467l4 0c2,-254 203,-459 453,-467 -251,-8 -453,-215 -453,-470l-4 0c0,255 -201,462 -452,470l0 0z"/>
    <path class="fil6" d="M27105 93106c251,8 451,213 453,467l4 0c2,-254 202,-459 452,-467 -251,-9 -452,-215 -452,-470l-4 0c0,255 -201,461 -453,470l0 0z"/>
    <path class="fil6" d="M5450 30485c166,-3 301,-137 304,-304l3 0c-1,168 129,305 295,313 -167,3 -302,138 -304,307l-3 0c3,-169 -129,-308 -295,-316l0 0z"/>
    <path class="fil6" d="M18168 27830c166,-3 301,-137 304,-305l3 0c-2,168 129,306 295,314 -167,3 -302,138 -304,307l-3 -1c3,-169 -129,-307 -295,-315l0 0z"/>
    <path class="fil6" d="M30886 25174c166,-3 300,-136 304,-304l3 0c-2,168 129,305 295,313 -167,3 -302,138 -305,307l-2 0c3,-169 -129,-308 -295,-316l0 0z"/>
    <path class="fil6" d="M43604 22519c166,-3 300,-137 304,-305l3 0c-2,168 129,306 295,314 -167,3 -302,138 -305,307l-2 0c3,-169 -129,-308 -295,-316l0 0z"/>
    <path class="fil6" d="M39129 20593c165,-3 300,-137 304,-305l2 0c-1,168 130,306 295,314 -166,3 -302,138 -304,307l-2 0c2,-169 -129,-308 -295,-316l0 0z"/>
    <path class="fil6" d="M30327 27830c166,-3 300,-137 304,-305l3 0c-2,168 129,306 295,314 -167,3 -302,138 -305,307l-2 -1c3,-169 -129,-307 -295,-315l0 0z"/>
    <path class="fil6" d="M65686 31044c165,-3 300,-137 304,-304l2 0c-1,168 130,305 295,313 -166,3 -301,138 -304,307l-2 0c2,-169 -129,-308 -295,-316l0 0z"/>
    <path class="fil6" d="M75326 15422c165,-3 300,-137 304,-305l2 0c-1,168 130,306 295,314 -166,3 -301,138 -304,307l-2 0c2,-169 -129,-308 -295,-316l0 0z"/>
    <path class="fil6" d="M62912 23643c166,-3 300,-137 304,-305l2 0c-1,168 130,305 295,313 -166,4 -301,138 -304,307l-2 0c2,-169 -129,-307 -295,-315l0 0z"/>
    <path class="fil6" d="M52290 18052c166,-3 301,-137 304,-304l3 0c-1,168 129,305 295,313 -167,3 -302,138 -304,307l-3 0c3,-169 -129,-308 -295,-316l0 0z"/>
    <path class="fil6" d="M51032 26857c166,-3 301,-137 304,-305l3 0c-1,168 130,306 295,314 -166,3 -302,138 -304,307l-2 0c2,-169 -129,-308 -296,-316l0 0z"/>
    <path class="fil6" d="M43206 25599c166,-3 300,-137 304,-305l3 1c-2,167 129,305 295,313 -167,3 -302,138 -305,307l-2 0c3,-169 -129,-308 -295,-316l0 0z"/>
    <path class="fil6" d="M44324 9527c166,-3 301,-137 304,-305l3 0c-2,168 129,306 295,314 -167,3 -302,138 -305,307l-2 0c3,-169 -129,-308 -295,-316l0 0z"/>
    <path class="fil6" d="M25038 3518c165,-4 300,-137 304,-305l2 0c-1,168 130,305 295,313 -166,3 -302,138 -304,307l-2 0c2,-169 -129,-307 -295,-315l0 0z"/>
    <path class="fil6" d="M24479 13999c165,-3 300,-136 304,-304l2 0c-1,168 130,305 295,313 -166,3 -302,138 -304,307l-2 0c2,-169 -129,-308 -295,-316l0 0z"/>
    <path class="fil6" d="M12320 6592c165,-3 300,-137 304,-305l2 1c-1,167 130,305 295,313 -166,3 -301,138 -304,307l-2 0c2,-169 -129,-308 -295,-316l0 0z"/>
    <path class="fil6" d="M12599 18332c166,-3 301,-137 304,-305l3 0c-2,168 129,306 295,314 -167,3 -302,137 -304,306l-3 0c3,-169 -129,-307 -295,-315l0 0z"/>
    <path class="fil6" d="M130275 16794c250,9 451,214 452,468l4 0c2,-254 203,-459 453,-468 -251,-8 -453,-214 -453,-470l-3 0c-1,256 -202,462 -453,470l0 0z"/>
    <path class="fil6" d="M127619 38736c251,9 451,214 453,468l4 0c2,-254 202,-459 452,-468 -251,-8 -452,-215 -452,-470l-4 0c0,255 -201,462 -453,470l0 0z"/>
    <path class="fil6" d="M100646 5195c250,8 451,213 453,467l4 0c1,-254 202,-459 452,-467 -251,-9 -453,-215 -453,-470l-3 0c0,255 -202,461 -453,470l0 0z"/>
    <path class="fil6" d="M79962 80105c250,8 451,213 453,467l4 0c1,-254 202,-459 452,-467 -251,-9 -453,-215 -453,-471l-3 0c0,256 -202,462 -453,471l0 0z"/>
    <path class="fil6" d="M59837 77868c250,9 451,214 453,468l4 0c1,-254 202,-459 452,-468 -251,-8 -453,-214 -453,-470l-3 0c0,255 -202,462 -453,470l0 0z"/>
    <path class="fil6" d="M53688 47821c166,-3 300,-137 304,-305l2 0c-1,168 130,305 295,313 -166,4 -301,138 -304,307l-2 0c2,-169 -129,-307 -295,-315l0 0z"/>
    <path class="fil6" d="M25162 58686c165,-3 300,-137 304,-305l2 0c-1,168 130,305 295,313 -166,4 -301,138 -304,307l-2 0c2,-169 -129,-307 -295,-315l0 0z"/>
    <path class="fil6" d="M26559 61760c166,-3 301,-137 304,-304l3 0c-2,168 129,305 295,313 -167,3 -302,138 -304,307l-3 0c3,-169 -129,-308 -295,-316l0 0z"/>
    <path class="fil6" d="M17615 73220c165,-3 300,-136 304,-304l2 0c-1,168 130,305 295,313 -166,3 -301,138 -304,307l-2 0c2,-169 -129,-308 -295,-316l0 0z"/>
    <path class="fil6" d="M141521 25271c166,-3 301,-137 304,-305l3 0c-1,168 130,306 295,314 -166,3 -302,138 -304,307l-2 0c2,-169 -129,-308 -296,-316l0 0z"/>
    <path class="fil6" d="M130533 27271c166,-3 300,-137 304,-305l3 0c-2,168 129,306 295,314 -167,3 -302,138 -305,306l-2 0c3,-169 -129,-307 -295,-315l0 0z"/>
    <path class="fil6" d="M103861 11903c165,-3 300,-137 304,-305l2 0c-1,168 130,306 295,314 -166,3 -301,138 -304,307l-2 0c2,-169 -129,-308 -295,-316l0 0z"/>
    <path class="fil6" d="M98690 22245c165,-3 300,-137 304,-305l2 0c-1,168 130,306 295,314 -166,3 -301,138 -304,307l-2 0c2,-169 -129,-308 -295,-316l0 0z"/>
    <path class="fil6" d="M97711 26997c166,-3 301,-137 304,-305l3 0c-1,168 129,306 295,314 -166,3 -302,137 -304,306l-2 0c2,-169 -129,-307 -296,-315l0 0z"/>
    <path class="fil6" d="M89745 30910c166,-3 301,-137 304,-305l3 0c-1,168 129,306 295,314 -167,3 -302,138 -304,307l-3 0c3,-169 -129,-308 -295,-316l0 0z"/>
    <path class="fil6" d="M81779 34823c166,-3 301,-137 304,-305l3 1c-2,167 129,305 295,313 -167,3 -302,138 -305,307l-2 0c3,-169 -129,-308 -295,-316l0 0z"/>
    <path class="fil6" d="M124104 143898c166,-3 301,-137 304,-304l3 0c-2,168 129,305 295,313 -167,3 -302,138 -304,307l-3 0c3,-169 -129,-308 -295,-316l0 0z"/>
    <path class="fil6" d="M132140 133976c166,-4 301,-137 304,-305l3 0c-2,168 129,305 295,313 -167,3 -302,138 -304,307l-3 0c3,-169 -129,-307 -295,-315l0 0z"/>
    <path class="fil6" d="M140176 124053c166,-3 301,-137 304,-305l3 0c-1,168 129,306 295,314 -167,3 -302,137 -304,306l-3 0c3,-169 -129,-307 -295,-315l0 0z"/>
    <path class="fil6" d="M67625 4115c166,-3 301,-137 304,-305l3 0c-2,168 129,306 295,314 -167,3 -302,138 -305,307l-2 0c3,-169 -129,-308 -295,-316l0 0z"/>
    <path class="fil6" d="M25488 100617c166,-3 301,-136 304,-304l3 0c-1,168 129,305 295,313 -166,3 -302,138 -304,307l-3 0c3,-169 -128,-308 -295,-316l0 0z"/>
    <path class="fil6" d="M150341 137378c165,-4 300,-137 304,-305l2 0c-1,168 130,305 295,313 -166,3 -301,138 -304,307l-2 0c2,-169 -129,-307 -295,-315l0 0z"/>
    <path class="fil6" d="M123811 123936c166,-3 301,-137 304,-305l3 0c-1,168 129,305 295,313 -166,4 -302,138 -304,307l-3 0c3,-169 -129,-307 -295,-315l0 0z"/>
    <path class="fil6" d="M121925 116878c165,-3 300,-137 304,-305l2 0c-1,168 130,306 295,314 -166,3 -302,138 -304,307l-2 0c2,-169 -129,-308 -295,-316l0 0z"/>
    <path class="fil6" d="M120038 109820c166,-3 300,-137 304,-305l3 0c-2,168 129,306 295,314 -167,3 -302,138 -305,307l-2 0c2,-169 -129,-308 -295,-316l0 0z"/>
    <path class="fil6" d="M247545 72301c-166,3 -300,137 -304,305l-2 -1c1,-167 -130,-305 -295,-313 166,-3 301,-138 304,-307l2 0c-2,169 129,308 295,316l0 0z"/>
    <path class="fil6" d="M230943 98572c-251,-9 -451,-214 -453,-468l-4 0c-2,254 -202,459 -452,468 251,8 452,214 452,470l4 0c0,-255 201,-462 453,-470l0 0z"/>
    <path class="fil6" d="M205240 94385c-251,-8 -451,-213 -453,-467l-4 0c-2,254 -202,459 -453,467 252,8 453,215 453,470l4 0c0,-255 201,-462 453,-470l0 0z"/>
    <path class="fil6" d="M226442 85438c-250,-8 -451,-213 -453,-467l-4 0c-1,254 -202,459 -452,467 251,8 453,215 453,470l3 0c0,-255 202,-462 453,-470l0 0z"/>
    <path class="fil6" d="M244364 87023c-250,-8 -451,-213 -453,-467l-4 0c-1,254 -202,459 -452,467 251,9 453,215 453,470l3 0c0,-255 202,-461 453,-470l0 0z"/>
    <path class="fil6" d="M255267 97875c-250,-8 -451,-213 -452,-467l-5 0c-1,254 -202,459 -452,467 251,8 453,215 453,470l3 0c0,-255 202,-462 453,-470l0 0z"/>
    <path class="fil6" d="M263099 83204c-250,-8 -451,-213 -452,-467l-5 0c-1,254 -202,459 -452,467 251,9 453,215 453,471l3 0c0,-256 202,-462 453,-471l0 0z"/>
    <path class="fil6" d="M252053 81104c-251,-8 -451,-213 -453,-467l-4 0c-2,254 -202,459 -452,467 251,8 452,215 452,470l4 0c0,-255 201,-462 453,-470l0 0z"/>
    <path class="fil6" d="M233500 72021c-250,-8 -451,-213 -452,-467l-4 0c-2,254 -203,459 -453,467 251,9 453,215 453,470l4 0c0,-255 201,-461 452,-470l0 0z"/>
    <path class="fil6" d="M218094 95129c-250,-8 -451,-213 -453,-467l-4 0c-1,254 -202,459 -452,467 251,8 453,215 453,470l3 0c0,-255 202,-462 453,-470l0 0z"/>
    <path class="fil6" d="M209602 72580c-250,-8 -451,-213 -453,-467l-4 0c-1,254 -202,459 -452,467 251,9 453,215 453,470l3 0c0,-255 202,-461 453,-470l0 0z"/>
    <path class="fil6" d="M211805 83949c-251,-9 -451,-214 -453,-468l-4 0c-2,254 -202,459 -452,468 251,8 452,214 452,470l4 0c0,-255 202,-462 453,-470l0 0z"/>
    <path class="fil6" d="M222709 74819c-250,-8 -451,-213 -452,-467l-4 0c-2,254 -203,459 -453,467 251,8 453,215 453,470l3 0c1,-255 202,-462 453,-470l0 0z"/>
    <path class="fil6" d="M222808 58465c-250,-9 -451,-213 -452,-467l-4 0c-2,254 -203,458 -453,467 251,8 453,215 453,470l3 0c0,-255 202,-462 453,-470l0 0z"/>
    <path class="fil6" d="M207994 58325c-166,3 -301,137 -304,305l-3 0c2,-168 -129,-306 -295,-314 167,-3 302,-138 304,-307l3 0c-3,169 129,308 295,316l0 0z"/>
    <path class="fil6" d="M248244 60701c-166,3 -300,137 -304,305l-3 0c2,-168 -129,-306 -295,-314 167,-3 302,-138 305,-307l2 0c-3,169 129,308 295,316l0 0z"/>
    <path class="fil6" d="M235879 33078c-166,3 -300,137 -304,304l-2 0c1,-168 -130,-305 -295,-313 166,-3 301,-138 304,-307l2 0c-2,169 129,308 295,316l0 0z"/>
    <path class="fil6" d="M269347 57207c-166,3 -300,137 -304,305l-2 0c1,-168 -130,-306 -295,-314 166,-3 301,-138 304,-307l2 0c-2,169 129,308 295,316l0 0z"/>
    <path class="fil6" d="M255511 40436c-165,3 -300,137 -304,305l-2 0c1,-168 -130,-306 -295,-314 166,-3 301,-138 304,-306l2 0c-2,169 129,307 295,315l0 0z"/>
    <path class="fil6" d="M239020 79987c-166,4 -301,137 -304,305l-3 0c2,-168 -129,-305 -295,-313 167,-3 302,-138 305,-307l2 0c-3,169 129,307 295,315l0 0z"/>
    <path class="fil6" d="M216348 39978c-166,3 -301,137 -304,304l-3 0c1,-168 -130,-305 -295,-313 166,-3 302,-138 304,-307l2 0c-2,169 129,308 296,316l0 0z"/>
    <path class="fil6" d="M222131 11652c-166,3 -301,136 -304,304l-3 0c1,-168 -129,-305 -295,-313 166,-3 302,-138 304,-307l3 0c-3,169 128,308 295,316l0 0z"/>
    <path class="fil6" d="M231768 47879c-165,3 -300,137 -304,305l-2 0c1,-168 -130,-305 -295,-313 166,-4 301,-138 304,-307l2 0c-2,169 129,307 295,315l0 0z"/>
    <path class="fil6" d="M256226 19648c-166,3 -301,137 -304,305l-3 0c2,-168 -129,-305 -295,-313 167,-4 302,-138 304,-307l3 0c-3,169 129,307 295,315l0 0z"/>
    <path class="fil6" d="M204962 5785c-166,3 -301,137 -304,305l-3 0c2,-168 -129,-306 -295,-314 167,-3 302,-138 304,-307l3 0c-3,169 129,308 295,316l0 0z"/>
    <path class="fil6" d="M208726 12952c-250,-9 -451,-213 -453,-467l-4 0c-1,254 -202,458 -452,467 251,8 453,215 453,470l3 0c0,-255 202,-462 453,-470l0 0z"/>
    <path class="fil6" d="M207155 26600c-165,3 -300,137 -304,305l-2 0c1,-168 -130,-306 -295,-314 166,-3 301,-137 304,-306l2 0c-2,169 129,307 295,315l0 0z"/>
    <path class="fil6" d="M206177 38340c-166,3 -300,137 -304,304l-3 0c2,-167 -129,-305 -295,-313 167,-3 302,-138 305,-307l2 0c-3,169 129,308 295,316l0 0z"/>
    <path class="fil6" d="M216240 26880c-166,3 -301,137 -304,304l-3 0c1,-168 -130,-305 -295,-313 166,-3 302,-138 304,-307l2 0c-2,169 129,308 296,316l0 0z"/>
    <path class="fil6" d="M229377 16957c-166,3 -301,137 -304,305l-3 0c1,-168 -129,-306 -295,-314 166,-3 302,-138 304,-307l3 0c-3,169 129,308 295,316l0 0z"/>
    <path class="fil6" d="M233150 6475c-166,3 -300,137 -304,305l-2 0c1,-168 -130,-306 -295,-314 166,-3 301,-138 304,-307l2 1c-2,169 129,307 295,315l0 0z"/>
    <path class="fil6" d="M218336 6615c-166,3 -301,137 -304,305l-3 0c2,-168 -129,-306 -295,-314 167,-3 302,-138 305,-307l2 0c-3,169 129,308 295,316l0 0z"/>
    <path class="fil6" d="M215426 17910c-166,3 -301,137 -305,305l-2 0c1,-168 -130,-306 -295,-314 166,-3 302,-138 304,-307l2 0c-2,169 129,308 296,316l0 0z"/>
    <path class="fil6" d="M201590 24339c-166,3 -301,137 -304,305l-3 0c1,-168 -130,-306 -295,-314 166,-3 302,-138 304,-307l2 0c-2,169 129,308 296,316l0 0z"/>
    <path class="fil6" d="M203689 66965c-166,3 -301,137 -304,305l-3 0c1,-168 -130,-306 -295,-314 166,-3 302,-138 304,-307l2 0c-2,169 129,308 296,316l0 0z"/>
    <path class="fil6" d="M216379 53573c-165,3 -300,137 -304,305l-2 0c1,-168 -130,-306 -295,-313 166,-4 301,-138 304,-307l2 0c-2,169 129,307 295,315l0 0z"/>
    <path class="fil6" d="M216659 66990c-166,3 -301,137 -304,305l-3 0c2,-168 -129,-306 -295,-314 167,-3 302,-138 304,-307l3 0c-3,169 129,308 295,316l0 0z"/>
    <path class="fil6" d="M229796 63217c-166,3 -301,136 -304,304l-3 0c2,-168 -129,-305 -295,-313 167,-3 302,-138 305,-307l2 0c-3,169 129,308 295,316l0 0z"/>
    <path class="fil6" d="M237902 52735c-166,3 -301,137 -304,304l-3 0c2,-167 -129,-305 -295,-313 167,-3 302,-138 305,-307l2 0c-3,169 129,308 295,316l0 0z"/>
    <path class="fil6" d="M260543 69366c-166,3 -301,137 -304,305l-3 0c1,-168 -129,-306 -295,-314 166,-3 302,-138 304,-307l2 0c-2,169 129,308 296,316l0 0z"/>
    <path class="fil6" d="M259425 51197c-166,4 -301,137 -304,305l-3 0c1,-168 -130,-305 -295,-313 166,-3 302,-138 304,-307l2 0c-2,169 129,307 296,315l0 0z"/>
    <path class="fil6" d="M235107 37921c-166,3 -301,136 -304,304l-3 0c1,-168 -129,-305 -295,-313 166,-3 302,-138 304,-307l3 0c-3,169 129,307 295,316l0 0z"/>
    <path class="fil6" d="M245868 7873c-166,3 -300,137 -304,304l-3 0c2,-168 -129,-305 -295,-313 167,-3 302,-138 305,-307l2 0c-2,169 129,308 295,316l0 0z"/>
    <path class="fil6" d="M268649 6056c-166,3 -301,137 -304,305l-3 0c1,-168 -130,-306 -295,-314 166,-3 302,-138 304,-307l2 0c-2,169 129,308 296,316l0 0z"/>
    <path class="fil6" d="M238776 65311c-250,-8 -451,-213 -453,-467l-4 0c-1,254 -202,459 -452,467 251,9 453,215 453,471l3 0c0,-256 202,-462 453,-471l0 0z"/>
    <path class="fil6" d="M261836 75793c-251,-8 -451,-213 -453,-467l-4 0c-1,254 -202,459 -452,467 251,9 452,215 452,470l4 0c0,-255 201,-461 453,-470l0 0z"/>
    <path class="fil6" d="M268537 75512c-250,-9 -451,-214 -452,-468l-4 0c-2,254 -202,459 -453,468 252,8 453,215 453,470l4 0c0,-255 201,-462 452,-470l0 0z"/>
    <path class="fil6" d="M265192 98694c-361,-12 -651,-308 -654,-675l-5 0c-3,367 -292,663 -654,675 363,12 654,310 654,679l5 0c0,-369 291,-667 654,-679l0 0z"/>
    <path class="fil6" d="M256952 57076c-166,3 -301,137 -304,305l-3 0c1,-168 -130,-306 -295,-314 166,-3 302,-138 304,-307l2 0c-2,169 129,308 296,316l0 0z"/>
    <path class="fil6" d="M262017 30975c-166,3 -301,137 -304,305l-3 0c1,-168 -129,-306 -295,-314 166,-3 302,-138 304,-307l2 0c-2,169 129,308 296,316l0 0z"/>
    <path class="fil6" d="M226178 33904c-166,3 -300,136 -304,304l-3 0c2,-168 -129,-305 -295,-313 167,-3 302,-138 305,-307l2 0c-3,169 129,308 295,316l0 0z"/>
    <path class="fil6" d="M220031 33904c-166,3 -301,137 -304,304l-3 0c2,-168 -129,-305 -295,-313 167,-3 302,-138 305,-307l2 0c-3,169 129,308 295,316l0 0z"/>
    <path class="fil6" d="M220593 41280c-165,3 -300,137 -304,305l-2 0c1,-168 -130,-306 -295,-314 166,-3 301,-138 304,-307l2 1c-2,169 129,307 295,315l0 0z"/>
    <path class="fil6" d="M214860 45504c-166,3 -301,136 -304,304l-3 0c2,-168 -129,-305 -295,-313 167,-3 302,-138 304,-307l3 0c-3,169 129,308 295,316l0 0z"/>
    <path class="fil6" d="M221873 50088c-166,3 -301,137 -304,305l-3 0c1,-168 -130,-306 -295,-314 166,-3 302,-138 304,-306l2 0c-2,169 129,307 296,315l0 0z"/>
    <path class="fil6" d="M241836 42817c-165,4 -300,137 -304,305l-2 0c1,-168 -130,-305 -295,-313 166,-3 302,-138 304,-307l2 0c-2,169 129,307 295,315l0 0z"/>
    <path class="fil6" d="M244890 33868c-166,3 -301,136 -304,304l-3 0c1,-168 -129,-305 -295,-313 167,-3 302,-138 304,-307l3 0c-3,169 129,308 295,316l0 0z"/>
    <path class="fil6" d="M246287 23526c-165,3 -300,136 -304,304l-2 0c1,-168 -130,-305 -295,-313 166,-3 301,-138 304,-307l2 0c-2,169 129,308 295,316l0 0z"/>
    <path class="fil6" d="M245169 26880c-165,3 -300,137 -304,304l-2 0c1,-168 -130,-305 -295,-313 166,-3 301,-138 304,-307l2 0c-2,169 129,308 295,316l0 0z"/>
    <path class="fil6" d="M250899 30653c-165,3 -300,137 -304,305l-2 0c1,-168 -130,-306 -295,-314 166,-3 301,-138 304,-306l2 0c-2,168 129,307 295,315l0 0z"/>
    <path class="fil6" d="M248663 39039c-166,3 -300,136 -304,304l-2 0c1,-168 -130,-305 -295,-313 166,-3 301,-138 304,-307l2 0c-2,169 129,308 295,316l0 0z"/>
    <path class="fil6" d="M201878 88001c-250,-8 -451,-213 -453,-467l-4 0c-1,254 -202,459 -452,467 251,9 453,215 453,471l3 0c0,-256 202,-462 453,-471l0 0z"/>
    <path class="fil6" d="M210230 90889c-250,-9 -451,-214 -453,-468l-4 0c-1,254 -202,459 -452,468 251,8 453,214 453,470l3 0c0,-256 202,-462 453,-470l0 0z"/>
    <path class="fil6" d="M226023 51058c-251,-9 -451,-214 -453,-467l-4 0c-2,253 -202,458 -453,467 252,8 453,215 453,470l4 0c0,-255 201,-462 453,-470l0 0z"/>
    <path class="fil6" d="M223367 47564c-250,-9 -451,-214 -452,-467l-4 0c-2,253 -203,458 -453,467 251,8 453,215 453,470l3 0c0,-255 202,-462 453,-470l0 0z"/>
    <path class="fil6" d="M212926 50361c-250,-8 -451,-213 -452,-467l-4 0c-2,254 -203,459 -453,467 251,9 453,215 453,471l3 0c1,-256 202,-462 453,-471l0 0z"/>
    <path class="fil6" d="M206037 47005c-250,-9 -451,-214 -452,-467l-4 0c-2,253 -203,458 -453,467 251,8 453,215 453,470l3 0c1,-255 202,-462 453,-470l0 0z"/>
    <path class="fil6" d="M212222 19331c-250,-8 -451,-213 -453,-467l-4 0c-1,254 -202,459 -452,467 251,9 453,215 453,470l3 0c0,-255 202,-461 453,-470l0 0z"/>
    <path class="fil6" d="M219210 21428c-251,-9 -451,-214 -453,-467l-4 0c-1,253 -202,458 -452,467 251,8 453,215 453,470l3 0c0,-255 202,-462 453,-470l0 0z"/>
    <path class="fil6" d="M223820 17843c-251,-8 -451,-213 -453,-467l-4 0c-1,254 -202,459 -452,467 251,9 453,215 453,470l3 0c0,-255 202,-461 453,-470l0 0z"/>
    <path class="fil6" d="M231786 23853c-250,-8 -451,-213 -453,-467l-4 0c-1,254 -202,459 -452,467 251,8 453,215 453,470l3 0c0,-255 202,-462 453,-470l0 0z"/>
    <path class="fil6" d="M235008 18776c-250,-8 -451,-213 -453,-467l-4 0c-1,254 -202,459 -452,467 251,9 453,215 453,470l3 0c0,-255 202,-461 453,-470l0 0z"/>
    <path class="fil6" d="M242415 17658c-250,-8 -451,-213 -453,-467l-4 0c-1,254 -202,459 -452,467 251,9 453,215 453,470l3 0c0,-255 202,-461 453,-470l0 0z"/>
    <path class="fil6" d="M238740 8991c-250,-9 -450,-214 -452,-467l-4 0c-2,253 -202,458 -453,467 252,8 453,215 453,470l4 0c0,-255 201,-462 453,-470l-1 0z"/>
    <path class="fil6" d="M238880 3680c-250,-8 -451,-213 -452,-467l-4 0c-2,254 -203,459 -453,467 251,8 453,215 453,470l3 0c1,-255 202,-462 453,-470l0 0z"/>
    <path class="fil6" d="M252058 9832c-250,-8 -451,-213 -452,-467l-4 0c-2,254 -203,459 -453,467 251,8 453,215 453,470l3 0c1,-255 202,-462 453,-470l0 0z"/>
    <path class="fil6" d="M265056 39460c-251,-8 -451,-213 -453,-467l-4 0c-2,254 -202,459 -452,467 251,9 452,215 452,471l4 0c0,-256 201,-462 453,-471l0 0z"/>
    <path class="fil6" d="M206177 137847c-166,3 -300,137 -304,305l-3 0c2,-168 -129,-306 -295,-314 167,-3 302,-138 305,-307l2 0c-3,169 129,308 295,316l0 0z"/>
    <path class="fil6" d="M209966 112727c-166,3 -300,137 -304,304l-3 0c2,-167 -129,-305 -295,-313 167,-3 302,-138 305,-307l2 0c-2,169 129,308 295,316l0 0z"/>
    <path class="fil6" d="M235402 136625c-166,3 -301,137 -304,305l-3 0c2,-168 -129,-306 -295,-314 167,-3 302,-137 305,-306l2 0c-3,169 129,307 295,315l0 0z"/>
    <path class="fil6" d="M243927 114544c-166,3 -300,136 -304,304l-3 0c2,-168 -129,-305 -294,-313 166,-3 301,-138 304,-307l2 0c-2,169 129,308 295,316l0 0z"/>
    <path class="fil6" d="M220029 123069c-166,3 -301,137 -304,305l-3 -1c1,-167 -129,-305 -295,-313 166,-3 302,-138 304,-307l3 0c-3,169 128,308 295,316l0 0z"/>
    <path class="fil6" d="M241414 104621c-166,3 -301,137 -304,305l-3 0c1,-168 -129,-306 -295,-314 167,-3 302,-138 304,-307l3 0c-3,169 129,308 295,316l0 0z"/>
    <path class="fil6" d="M266018 143133c-166,3 -301,136 -304,304l-3 0c1,-168 -129,-305 -295,-313 166,-3 302,-138 304,-307l2 0c-2,169 129,308 296,316l0 0z"/>
    <path class="fil6" d="M255533 110180c-166,4 -301,137 -304,305l-3 0c1,-168 -129,-305 -295,-313 166,-3 302,-138 304,-307l2 0c-2,169 129,307 296,315l0 0z"/>
    <path class="fil6" d="M270648 99562c-166,3 -301,137 -304,305l-3 0c1,-168 -129,-306 -295,-313 167,-4 302,-138 304,-307l3 0c-3,169 129,307 295,315l0 0z"/>
    <path class="fil6" d="M264359 103475c-166,4 -301,137 -304,305l-3 0c1,-168 -129,-305 -295,-313 166,-3 302,-138 304,-307l3 0c-3,169 128,307 295,315l0 0z"/>
    <path class="fil6" d="M254141 103442c-166,3 -301,136 -304,304l-3 0c2,-168 -129,-305 -295,-313 167,-3 302,-138 305,-307l2 0c-3,169 129,308 295,316l0 0z"/>
    <path class="fil6" d="M244358 107914c-166,3 -301,137 -304,304l-3 0c2,-167 -129,-305 -295,-313 167,-3 302,-138 305,-307l2 0c-3,169 129,308 295,316l0 0z"/>
    <path class="fil6" d="M228426 110150c-166,3 -301,137 -304,305l-3 0c1,-168 -129,-306 -295,-314 166,-3 302,-138 304,-307l2 0c-2,169 129,308 296,316l0 0z"/>
    <path class="fil6" d="M221158 114482c-166,3 -300,137 -304,305l-2 0c1,-168 -130,-306 -295,-313 166,-4 301,-138 304,-307l2 0c-2,169 129,307 295,315l0 0z"/>
    <path class="fil6" d="M213891 118815c-166,3 -301,137 -304,305l-3 0c2,-168 -129,-306 -295,-314 167,-3 302,-138 304,-307l3 0c-3,169 129,308 295,316l0 0z"/>
    <path class="fil6" d="M206624 123147c-166,3 -301,137 -305,305l-2 0c1,-168 -130,-306 -295,-313 166,-4 302,-138 304,-307l2 0c-2,169 129,307 296,315l0 0z"/>
    <path class="fil6" d="M225925 120937c-250,-8 -451,-213 -453,-467l-4 0c-1,254 -202,459 -452,467 251,8 453,215 453,470l3 0c0,-255 202,-462 453,-470l0 0z"/>
    <path class="fil6" d="M232766 90049c-250,-9 -451,-214 -452,-468l-4 0c-2,254 -203,459 -453,468 251,8 453,214 453,470l3 0c1,-256 202,-462 453,-470l0 0z"/>
    <path class="fil6" d="M239608 59160c-251,-8 -451,-213 -453,-467l-4 0c-2,254 -202,459 -453,467 252,8 453,215 453,470l4 0c0,-255 201,-462 453,-470l0 0z"/>
    <path class="fil6" d="M261263 121780c-166,3 -301,137 -304,305l-3 0c1,-168 -129,-306 -295,-313 166,-4 302,-138 304,-307l3 0c-3,169 128,307 295,315l0 0z"/>
    <path class="fil6" d="M248545 124436c-166,3 -301,137 -304,304l-3 0c1,-167 -129,-305 -295,-313 167,-3 302,-138 304,-307l3 0c-3,169 129,308 295,316l0 0z"/>
    <path class="fil6" d="M235827 127091c-166,3 -301,137 -304,305l-3 0c2,-168 -129,-306 -295,-314 167,-3 302,-138 304,-306l3 0c-3,168 129,307 295,315l0 0z"/>
    <path class="fil6" d="M223109 129746c-166,4 -300,137 -304,305l-3 0c2,-168 -129,-305 -295,-313 167,-3 302,-138 305,-307l2 0c-3,169 129,308 295,315l0 0z"/>
    <path class="fil6" d="M227584 131672c-165,4 -300,137 -304,305l-2 0c1,-168 -130,-305 -295,-313 166,-3 301,-138 304,-307l2 0c-2,169 129,307 295,315l0 0z"/>
    <path class="fil6" d="M236386 124436c-166,3 -301,137 -304,304l-3 0c2,-167 -129,-305 -295,-313 167,-3 302,-138 305,-307l2 0c-3,169 129,308 295,316l0 0z"/>
    <path class="fil6" d="M203801 128623c-166,3 -300,137 -304,305l-3 0c2,-168 -129,-306 -295,-314 167,-3 302,-138 305,-307l2 0c-2,169 129,308 295,316l0 0z"/>
    <path class="fil6" d="M214423 134213c-166,3 -301,137 -304,305l-3 0c1,-168 -129,-306 -295,-313 166,-4 302,-138 304,-307l2 0c-2,169 129,307 296,315l0 0z"/>
    <path class="fil6" d="M215681 125409c-166,3 -301,136 -305,304l-2 0c1,-168 -130,-305 -295,-313 166,-3 302,-138 304,-307l2 0c-2,169 129,308 296,316l0 0z"/>
    <path class="fil6" d="M223507 126666c-166,3 -301,137 -304,305l-3 0c2,-168 -129,-305 -295,-313 167,-4 302,-138 305,-307l2 0c-3,169 129,307 295,315l0 0z"/>
    <path class="fil6" d="M222389 142739c-166,3 -301,136 -304,304l-3 0c2,-168 -129,-305 -295,-313 167,-3 302,-138 304,-307l3 0c-3,169 129,308 295,316l0 0z"/>
    <path class="fil6" d="M241675 148748c-165,3 -300,137 -304,305l-2 0c1,-168 -130,-306 -295,-314 166,-3 301,-138 304,-307l2 0c-2,169 129,308 295,316l0 0z"/>
    <path class="fil6" d="M242234 138266c-165,3 -300,137 -304,305l-2 0c1,-168 -130,-306 -295,-313 166,-4 301,-138 304,-307l2 0c-2,169 129,307 295,315l0 0z"/>
    <path class="fil6" d="M254393 145673c-166,3 -300,137 -304,305l-2 0c1,-168 -130,-305 -295,-313 166,-4 301,-138 304,-307l2 0c-2,169 129,307 295,315l0 0z"/>
    <path class="fil6" d="M254114 133934c-166,3 -301,137 -304,305l-3 0c1,-168 -129,-306 -295,-314 166,-3 302,-138 304,-307l3 0c-3,169 129,308 295,316l0 0z"/>
    <path class="fil6" d="M158122 43015c-250,-9 -451,-214 -453,-467l-4 0c-1,253 -202,458 -452,467 251,8 453,215 453,470l3 0c0,-255 202,-462 453,-470l0 0z"/>
    <path class="fil6" d="M213025 104445c-166,3 -300,137 -304,305l-3 0c2,-168 -129,-306 -295,-314 167,-3 302,-138 305,-307l2 0c-2,169 129,308 295,316l0 0z"/>
    <path class="fil6" d="M241551 93580c-165,3 -300,137 -304,305l-2 0c1,-168 -130,-306 -295,-314 166,-3 301,-138 304,-307l2 0c-2,169 129,308 295,316l0 0z"/>
    <path class="fil6" d="M240154 90505c-166,3 -301,137 -304,305l-3 0c1,-168 -129,-306 -295,-313 166,-4 302,-138 304,-307l3 0c-3,169 129,307 295,315l0 0z"/>
    <path class="fil6" d="M249098 79045c-166,3 -300,137 -304,305l-3 0c2,-168 -129,-306 -294,-314 166,-3 301,-137 304,-306l2 0c-2,169 129,307 295,315l0 0z"/>
    <path class="fil6" d="M241225 51648c-166,3 -301,137 -304,305l-3 0c1,-168 -129,-306 -295,-314 166,-3 302,-137 304,-306l2 0c-2,169 129,307 296,315l0 0z"/>
    <path class="fil6" d="M270941 46364c-166,3 -301,137 -304,305l-3 0c1,-168 -129,-306 -295,-314 166,-3 302,-138 304,-307l2 1c-2,168 129,307 296,315l0 0z"/>
    <path class="fil6" d="M187366 45386c250,-9 450,-214 452,-467l4 0c2,253 202,458 453,467 -252,8 -453,215 -453,470l-4 0c0,-255 -201,-462 -452,-470l0 0z"/>
    <path class="fil6" d="M161930 47622c166,3 300,137 304,305l2 0c-1,-168 130,-306 295,-314 -166,-3 -301,-138 -304,-307l-2 0c2,169 -129,308 -295,316l0 0z"/>
    <path class="fil6" d="M174295 19999c165,3 300,136 304,304l2 0c-1,-168 130,-305 295,-313 -166,-3 -302,-138 -304,-307l-2 0c2,169 -129,308 -296,316l1 0z"/>
    <path class="fil6" d="M193826 26899c166,3 301,137 304,304l3 0c-2,-168 129,-305 295,-313 -167,-3 -302,-138 -304,-307l-3 0c3,169 -129,308 -295,316l0 0z"/>
    <path class="fil6" d="M178405 34800c166,3 301,137 304,305l3 0c-1,-168 130,-306 295,-313 -166,-4 -302,-138 -304,-307l-2 0c2,169 -129,307 -296,315l0 0z"/>
    <path class="fil6" d="M193934 13801c166,3 301,136 304,304l3 0c-2,-168 129,-305 295,-313 -167,-3 -302,-138 -304,-307l-3 0c3,169 -129,308 -295,316l0 0z"/>
    <path class="fil6" d="M179649 1746c166,3 301,137 304,305l3 0c-1,-168 129,-306 295,-314 -166,-3 -302,-138 -304,-307l-2 0c2,169 -129,308 -296,316l0 0z"/>
    <path class="fil6" d="M194748 4831c166,3 301,137 304,305l3 0c-1,-168 129,-306 295,-314 -166,-3 -302,-138 -304,-307l-3 0c3,169 -129,308 -295,316l0 0z"/>
    <path class="fil6" d="M193794 40494c166,3 301,137 304,305l3 0c-1,-168 130,-306 295,-313 -166,-4 -302,-138 -304,-307l-2 0c2,169 -129,307 -296,315l0 0z"/>
    <path class="fil6" d="M180378 50138c166,3 300,136 304,304l2 0c-1,-168 130,-305 295,-313 -166,-3 -301,-138 -304,-307l-2 0c2,169 -129,308 -295,316l0 0z"/>
    <path class="fil6" d="M172272 39656c166,3 300,137 304,304l3 0c-2,-167 129,-305 295,-313 -167,-3 -302,-138 -305,-307l-2 0c2,169 -129,308 -295,316l0 0z"/>
    <path class="fil6" d="M175067 24841c166,4 300,137 304,305l3 0c-2,-168 129,-305 295,-313 -167,-3 -302,-138 -305,-307l-2 0c3,169 -129,307 -295,315l0 0z"/>
    <path class="fil6" d="M183996 20825c165,3 300,136 304,304l2 0c-1,-168 130,-305 295,-313 -166,-3 -301,-138 -304,-307l-2 0c2,169 -129,308 -295,316l0 0z"/>
    <path class="fil6" d="M190143 20825c166,3 300,136 304,304l3 0c-2,-168 129,-305 295,-313 -167,-3 -302,-138 -305,-307l-2 0c2,169 -129,308 -295,316l0 0z"/>
    <path class="fil6" d="M189580 28201c166,3 301,137 304,305l3 0c-1,-168 129,-306 295,-314 -166,-3 -302,-138 -304,-307l-2 0c2,169 -129,308 -296,316l0 0z"/>
    <path class="fil6" d="M195314 32424c166,4 300,137 304,305l3 0c-2,-168 129,-305 295,-313 -167,-3 -302,-138 -305,-307l-2 0c2,169 -129,307 -295,315l0 0z"/>
    <path class="fil6" d="M188301 37009c166,3 301,137 304,305l3 0c-1,-168 129,-306 295,-314 -167,-3 -302,-138 -304,-306l-3 0c3,168 -129,307 -295,315l0 0z"/>
    <path class="fil6" d="M168337 29738c166,3 301,137 304,305l3 0c-1,-168 129,-305 295,-313 -166,-4 -302,-138 -304,-307l-3 0c3,169 -128,307 -295,315l0 0z"/>
    <path class="fil6" d="M165284 20789c166,3 300,136 304,304l3 0c-2,-168 129,-305 295,-313 -167,-3 -302,-138 -305,-307l-2 0c2,169 -129,308 -295,316l0 0z"/>
    <path class="fil6" d="M163886 10446c166,4 301,137 304,305l3 0c-1,-168 129,-305 295,-313 -166,-3 -302,-138 -304,-307l-2 0c2,169 -129,307 -296,315l0 0z"/>
    <path class="fil6" d="M165004 13801c166,3 301,136 304,304l3 0c-1,-168 130,-305 295,-313 -166,-3 -302,-138 -304,-307l-2 0c2,169 -129,308 -296,316l0 0z"/>
    <path class="fil6" d="M159274 17574c166,3 301,137 304,305l3 0c-1,-168 130,-306 295,-314 -166,-3 -302,-138 -304,-307l-2 1c2,168 -129,307 -296,315l0 0z"/>
    <path class="fil6" d="M161511 25960c165,3 300,136 304,304l2 0c-1,-168 130,-305 295,-313 -166,-3 -302,-138 -304,-307l-2 0c2,169 -129,307 -296,316l1 0z"/>
    <path class="fil6" d="M184151 37979c250,-9 451,-214 453,-468l4 0c1,254 202,459 452,468 -251,8 -453,215 -453,470l-3 0c0,-255 -202,-462 -453,-470l0 0z"/>
    <path class="fil6" d="M186807 34485c250,-9 450,-214 452,-467l4 0c2,253 202,458 453,467 -252,8 -453,215 -453,470l-4 0c0,-255 -201,-462 -452,-470l0 0z"/>
    <path class="fil6" d="M197248 37282c250,-8 450,-213 452,-467l4 0c2,254 202,459 453,467 -252,9 -453,215 -453,471l-4 0c0,-256 -201,-462 -453,-471l1 0z"/>
    <path class="fil6" d="M197952 6252c250,-8 451,-213 452,-467l5 0c1,254 202,459 452,467 -251,9 -453,215 -453,470l-3 0c0,-255 -202,-461 -453,-470l0 0z"/>
    <path class="fil6" d="M190964 8349c250,-9 451,-214 453,-468l4 0c1,254 202,459 452,468 -251,8 -453,215 -453,470l-3 0c0,-255 -202,-462 -453,-470l0 0z"/>
    <path class="fil6" d="M186354 4764c250,-8 451,-213 453,-467l4 0c1,254 202,459 452,467 -251,9 -453,215 -453,470l-3 0c0,-255 -202,-461 -453,-470l0 0z"/>
    <path class="fil6" d="M178388 10774c250,-8 451,-213 452,-467l4 0c2,254 203,459 453,467 -251,8 -453,215 -453,470l-3 0c0,-255 -202,-462 -453,-470l0 0z"/>
    <path class="fil6" d="M175166 5697c250,-8 451,-213 452,-467l5 0c1,254 202,459 452,467 -251,9 -453,215 -453,470l-3 0c0,-255 -202,-461 -453,-470l0 0z"/>
    <path class="fil6" d="M167759 4579c250,-8 451,-213 452,-467l4 0c2,254 203,459 453,467 -251,9 -453,215 -453,470l-4 0c0,-255 -201,-461 -452,-470l0 0z"/>
    <path class="fil6" d="M170566 46081c250,-8 451,-213 453,-467l4 0c1,254 202,459 452,467 -251,8 -453,215 -453,470l-3 0c0,-255 -202,-462 -453,-470l0 0z"/>
    <path class="fil6" d="M168949 38569c166,3 301,137 304,305l3 0c-2,-168 129,-306 295,-314 -167,-3 -302,-138 -305,-306l-2 0c3,169 -129,307 -295,315l0 0z"/>
    <path class="fil6" d="M151165 8894c166,3 300,137 304,305l3 0c-2,-168 129,-306 295,-314 -167,-3 -302,-137 -305,-306l-2 0c3,169 -129,307 -295,315l0 0z"/>
    <path class="fil6" d="M150676 21472c166,3 300,137 304,305l3 0c-2,-168 129,-305 295,-313 -167,-4 -302,-138 -305,-307l-2 0c2,169 -129,307 -295,315l0 0z"/>
    <path class="fil6" d="M122585 14554c165,3 300,137 304,305l2 0c-1,-168 130,-305 295,-313 -166,-4 -301,-138 -304,-307l-2 0c2,169 -129,307 -295,315l0 0z"/>
    <path class="fil6" d="M140313 4069c166,3 301,136 304,304l3 0c-2,-168 129,-305 295,-313 -167,-3 -302,-138 -305,-307l-2 0c3,169 -129,308 -295,316l0 0z"/>
    <path class="fil6" d="M142966 13921c166,4 300,137 304,305l2 0c-1,-168 130,-305 295,-313 -166,-3 -301,-138 -304,-307l-2 0c2,169 -129,308 -295,315l0 0z"/>
    <path class="fil6" d="M158904 33309c166,3 300,136 304,304l3 0c-2,-168 129,-305 295,-313 -167,-3 -302,-138 -305,-307l-2 0c2,169 -129,307 -295,316l0 0z"/>
    <path class="fil6" d="M146885 37012c166,3 300,137 304,305l2 0c-1,-168 130,-306 295,-314 -166,-3 -301,-138 -304,-307l-2 0c2,169 -129,308 -295,316l0 0z"/>
    <path class="fil6" d="M134866 40716c165,3 300,136 304,304l2 0c-1,-168 130,-305 295,-313 -166,-3 -301,-138 -304,-307l-2 0c2,169 -129,308 -295,316l0 0z"/>
    <path class="fil6" d="M122847 44419c165,3 300,137 304,305l2 0c-1,-168 130,-306 295,-314 -166,-3 -302,-137 -304,-306l-2 0c2,169 -129,307 -296,315l1 0z"/>
    <path class="fil6" d="M129980 57934c166,-3 300,-137 304,-305l2 0c-1,168 130,306 295,314 -166,3 -301,138 -304,307l-2 0c2,-169 -129,-308 -295,-316l0 0z"/>
    <path class="fil6" d="M190266 91231c-250,-8 -451,-213 -452,-467l-5 0c-1,254 -202,459 -452,467 251,8 453,215 453,470l3 0c0,-255 202,-462 453,-470l0 0z"/>
    <path class="fil6" d="M196136 75299c-250,-9 -451,-214 -453,-468l-4 0c-1,254 -202,459 -452,468 251,8 453,215 453,470l3 0c0,-255 202,-462 453,-470l0 0z"/>
    <path class="fil6" d="M166591 127983c165,-3 300,-137 304,-305l2 1c-1,167 130,305 295,313 -166,3 -302,138 -304,307l-2 0c2,-169 -129,-308 -296,-316l1 0z"/>
    <path class="fil6" d="M166454 118170c166,-4 301,-137 304,-305l3 0c-2,168 129,305 295,313 -167,3 -302,138 -304,307l-3 0c3,-169 -129,-307 -295,-315l0 0z"/>
    <path class="fil6" d="M153596 113278c166,-3 301,-137 305,-305l2 0c-1,168 130,306 295,314 -166,3 -302,138 -304,307l-2 0c2,-169 -129,-308 -296,-316l0 0z"/>
    <path class="fil6" d="M164919 105591c166,-3 301,-136 304,-304l3 0c-2,168 129,305 295,313 -167,3 -302,138 -305,307l-2 0c3,-169 -129,-308 -295,-316l0 0z"/>
    <path class="fil6" d="M187370 87039c-136,75 -307,30 -389,-104l-2 1c80,135 38,308 -92,391 136,-75 308,-29 389,106l2 -1c-81,-135 -39,-309 92,-393l0 0z"/>
    <path class="fil6" d="M183023 90399c-135,75 -307,30 -388,-105l-2 2c80,135 38,307 -92,391 136,-75 308,-29 389,106l2 -1c-81,-135 -39,-309 91,-393l0 0z"/>
    <path class="fil6" d="M189459 95175c-136,75 -307,30 -388,-104l-2 1c79,135 38,308 -93,392 136,-76 309,-30 390,106l1 -2c-80,-135 -39,-309 92,-393l0 0z"/>
    <path class="fil6" d="M199102 100416c-135,75 -307,30 -388,-104l-2 1c79,135 38,308 -93,391 137,-75 309,-29 390,106l2 -1c-81,-135 -40,-309 91,-393l0 0z"/>
    <path class="fil6" d="M198683 106076c-136,75 -307,30 -388,-104l-2 1c79,135 38,308 -93,392 136,-76 309,-30 390,106l1 -1c-80,-136 -39,-309 92,-394l0 0z"/>
    <path class="fil6" d="M186813 106394c-136,75 -307,30 -388,-104l-3 1c80,135 38,308 -92,391 136,-75 309,-29 389,107l2 -2c-80,-135 -39,-309 92,-393l0 0z"/>
    <path class="fil6" d="M174327 99924c-136,75 -307,29 -388,-105l-2 1c79,136 38,308 -93,392 136,-75 309,-30 390,106l1 -1c-80,-136 -39,-309 92,-393l0 0z"/>
    <path class="fil6" d="M263429 63770c-166,3 -301,137 -304,305l-3 0c1,-168 -130,-306 -295,-314 166,-3 302,-138 304,-307l2 0c-2,169 129,308 296,316l0 0z"/>
    <path class="fil6" d="M266965 107942c-166,3 -300,137 -304,305l-3 0c2,-168 -129,-306 -294,-314 166,-3 301,-138 304,-307l2 0c-2,169 129,308 295,316l0 0z"/>
    <path class="fil6" d="M268223 115489c-166,3 -301,137 -304,305l-3 0c2,-168 -129,-306 -295,-314 167,-3 302,-138 305,-307l2 0c-3,169 129,308 295,316l0 0z"/>
    <path class="fil6" d="M257462 115489c-166,3 -301,137 -304,305l-3 0c1,-168 -129,-306 -295,-314 166,-3 302,-138 304,-307l2 0c-2,169 129,308 296,316l0 0z"/>
    <path class="fil6" d="M250924 114131c-166,3 -300,137 -304,305l-3 0c2,-168 -129,-306 -295,-314 167,-3 302,-137 305,-306l2 0c-3,169 129,307 295,315l0 0z"/>
    <path class="fil6" d="M242818 116559c-166,3 -301,137 -304,305l-3 0c1,-168 -130,-306 -295,-314 166,-3 302,-138 304,-307l2 0c-2,169 129,308 296,316l0 0z"/>
    <path class="fil6" d="M240127 112506c-166,3 -300,137 -304,305l-2 0c1,-168 -130,-306 -295,-314 166,-3 301,-138 304,-307l2 1c-2,168 129,307 295,315l0 0z"/>
    <path class="fil6" d="M234555 117582c-166,3 -300,137 -304,305l-3 0c2,-168 -129,-306 -295,-314 167,-3 302,-138 305,-307l2 0c-2,169 129,308 295,316l0 0z"/>
    <path class="fil6" d="M266716 131024c-166,3 -300,137 -304,305l-3 0c2,-168 -129,-306 -295,-314 167,-3 302,-138 305,-307l2 0c-3,169 129,308 295,316l0 0z"/>
    <path class="fil6" d="M2094 17839c250,9 451,214 453,468l4 0c1,-254 202,-459 452,-468 -251,-8 -453,-214 -453,-470l-3 0c0,255 -202,462 -453,470l0 0z"/>
    <path class="fil6" d="M270049 14384c250,9 451,214 453,468l4 0c1,-254 202,-459 452,-468 -251,-8 -453,-214 -453,-470l-3 0c0,256 -202,462 -453,470l0 0z"/>
    <path class="fil6" d="M209243 150551c-166,3 -300,137 -304,305l-3 0c2,-168 -129,-306 -295,-314 167,-3 302,-138 305,-307l2 0c-2,169 129,308 295,316l0 0z"/>
    <path class="fil6" d="M158402 149135c-166,3 -301,137 -304,305l-3 0c1,-168 -129,-306 -295,-313 167,-4 302,-138 304,-307l3 0c-3,169 129,307 295,315l0 0z"/>
    <path class="fil6" d="M93849 151070c-166,3 -301,137 -304,305l-3 0c1,-168 -129,-306 -295,-314 166,-3 302,-138 304,-307l2 0c-2,169 129,308 296,316l0 0z"/>
    <path class="fil6" d="M6592 148709c-165,3 -300,137 -304,304l-2 0c1,-168 -130,-305 -295,-313 166,-3 302,-138 304,-307l2 0c-2,169 129,308 296,316l-1 0z"/>
    <path class="fil6" d="M263474 150345c-166,3 -301,137 -304,305l-3 0c1,-168 -129,-306 -295,-313 167,-4 302,-138 304,-307l3 0c-3,169 129,307 295,315l0 0z"/>
    <path class="fil6" d="M258253 1847c-166,3 -300,137 -304,304l-3 0c2,-168 -129,-305 -295,-313 167,-3 302,-138 305,-307l2 0c-2,169 129,308 295,316l0 0z"/>
    <circle class="fil7" cx="176684" cy="52869" r="175"/>
    <circle class="fil7" cx="120448" cy="45583" r="175"/>
    <circle class="fil7" cx="62453" cy="17212" r="175"/>
    <circle class="fil7" cx="136439" cy="19276" r="175"/>
    <circle class="fil7" cx="207505" cy="101100" r="175"/>
    <circle class="fil7" cx="90631" cy="86012" r="175"/>
    <circle class="fil7" cx="46978" cy="70712" r="175"/>
    <circle class="fil7" cx="15024" cy="36989" r="175"/>
    <circle class="fil7" cx="74861" cy="96826" r="175"/>
    <circle class="fil7" cx="123792" cy="106259" r="175"/>
    <circle class="fil7" cx="91515" cy="107825" r="175"/>
    <circle class="fil7" cx="182892" cy="116963" r="175"/>
    <circle class="fil7" cx="224334" cy="105495" r="175"/>
   </g>
   <g>
    <path class="fil8" d="M135827 125796c27418,0 49394,-22065 49394,-49394 0,-27328 -21976,-49393 -49394,-49393 -27419,0 -49394,22065 -49394,49393 0,27329 21975,49394 49394,49394z"/>
    <path class="fil9" d="M131069 102258c-4234,0 -4234,-6680 0,-6680 4435,0 4435,6680 0,6680z"/>
    <path class="fil10" d="M147079 41135c-4506,3913 -4443,11398 140,16719 4584,5321 11952,6463 16457,2550 4505,-3913 4442,-11398 -141,-16719 -4583,-5321 -11951,-6463 -16456,-2550z"/>
    <path class="fil9" d="M108652 53544c2087,-2789 5514,-4547 7707,-940 1059,1741 368,3393 -1285,4685 -5129,4012 -8576,-866 -6422,-3745z"/>
    <path class="fil9" d="M169445 62915c1766,0 1766,-3629 0,-3629 -1850,0 -1850,3629 0,3629z"/>
    <path class="fil11" d="M93151 74579c0,25855 20437,46731 45935,46731 25498,0 45934,-20876 45934,-46731 0,-1635 -81,-3249 -241,-4840 291,2179 442,4403 442,6663 0,27329 -21976,49394 -49394,49394 -27419,0 -49394,-22065 -49394,-49394 0,-27328 21975,-49393 49394,-49393 5739,0 11240,966 16351,2746 -4144,-1242 -8537,-1908 -13092,-1908 -25498,0 -45935,20876 -45935,46732z"/>
    <path class="fil12" d="M139086 121310c-25498,0 -45935,-20876 -45935,-46731 0,-25856 20437,-46732 45935,-46732 4555,0 8948,666 13092,1908 247,86 494,174 739,264 -2291,-413 -4652,-628 -7067,-628 -21744,0 -39171,17457 -39171,39079 0,21621 17427,39078 39171,39078 20761,0 37587,-15916 39065,-36175 70,1059 105,2128 105,3206 0,25855 -20436,46731 -45934,46731z"/>
   </g>
  </g>
 </g>
</svg>
