<?xml version="1.0" encoding="UTF-8"?>
<!DOCTYPE svg PUBLIC "-//W3C//DTD SVG 1.1//EN" "http://www.w3.org/Graphics/SVG/1.1/DTD/svg11.dtd">
<!-- Creator: CorelDRAW X7 -->
<svg xmlns="http://www.w3.org/2000/svg" xml:space="preserve" width="1.02362in" height="1.02362in" version="1.1" style="shape-rendering:geometricPrecision; text-rendering:geometricPrecision; image-rendering:optimizeQuality; fill-rule:evenodd; clip-rule:evenodd"
viewBox="0 0 10236 10236"
 xmlns:xlink="http://www.w3.org/1999/xlink">
 <defs>
  <style type="text/css">
   <![CDATA[
    .fil0 {fill:none}
    .fil1 {fill:black}
   ]]>
  </style>
 </defs>
 <g id="Layer_x0020_1">
  <metadata id="CorelCorpID_0Corel-Layer"/>
  <g id="_2382475330608">
   <rect class="fil0" width="10236" height="10236"/>
   <path class="fil1" d="M2452 3183l0 5491 5333 0 0 -7111 -3713 0 -1620 1620zm3119 4546l0 -194 793 -1210 -720 0 0 -187 944 0 0 187 -799 1218 813 0 0 186 -1031 0zm-110 -2961l493 -1592 248 0 494 1592 -197 0 -421 -1355 -420 1355 -197 0zm-1453 -705l0 3287 -700 -699 -157 173 889 905 157 0 889 -905 -157 -165 -699 691 0 -3287 -222 0zm-1 -2121l0 1176 -1176 0 1176 -1176zm3556 6510l-4889 0 0 -5111 1556 0 0 -1556 3333 0 0 6667z"/>
  </g>
 </g>
</svg>
