<?xml version="1.0" encoding="UTF-8"?>
<!DOCTYPE svg PUBLIC "-//W3C//DTD SVG 1.1//EN" "http://www.w3.org/Graphics/SVG/1.1/DTD/svg11.dtd">
<!-- Creator: CorelDRAW X7 -->
<svg xmlns="http://www.w3.org/2000/svg" xml:space="preserve" width="1.02362in" height="1.02362in" version="1.1" style="shape-rendering:geometricPrecision; text-rendering:geometricPrecision; image-rendering:optimizeQuality; fill-rule:evenodd; clip-rule:evenodd"
viewBox="0 0 10236 10236"
 xmlns:xlink="http://www.w3.org/1999/xlink">
 <defs>
  <style type="text/css">
   <![CDATA[
    .fil0 {fill:none}
    .fil1 {fill:black}
   ]]>
  </style>
 </defs>
 <g id="Layer_x0020_1">
  <metadata id="CorelCorpID_0Corel-Layer"/>
  <g id="_2382552853152">
   <rect class="fil0" width="10236" height="10236"/>
   <path class="fil1" d="M2452 3183l0 5491 5333 0 0 -7111 -3713 0 -1620 1620zm4289 1362l-286 0 -378 -1219 -365 1219 -280 0 507 -1591 280 0 522 1591zm-1185 3184l0 -290 686 -1032 -608 0 0 -269 953 0 0 249 -713 1073 742 0 0 269 -1060 0zm-1548 -3666l0 3287 -700 -699 -157 173 889 905 157 0 889 -905 -157 -165 -700 691 0 -3287 -221 0zm-1 -2121l0 1176 -1176 0 1176 -1176zm3556 6510l-4889 0 0 -5111 1555 0 0 -1556 3334 0 0 6667z"/>
  </g>
 </g>
</svg>
