<?xml version="1.0" encoding="UTF-8"?>
<!DOCTYPE svg PUBLIC "-//W3C//DTD SVG 1.1//EN" "http://www.w3.org/Graphics/SVG/1.1/DTD/svg11.dtd">
<!-- Creator: CorelDRAW X7 -->
<svg xmlns="http://www.w3.org/2000/svg" xml:space="preserve" width="100%" height="100%" version="1.1" style="shape-rendering:geometricPrecision; text-rendering:geometricPrecision; image-rendering:optimizeQuality; fill-rule:evenodd; clip-rule:evenodd"
viewBox="0 0 2600 2600"
 xmlns:xlink="http://www.w3.org/1999/xlink">
 <defs>
  <style type="text/css">
   <![CDATA[
    .fil1 {fill:none}
    .fil0 {fill:black}
   ]]>
  </style>
 </defs>
 <g id="Layer_x0020_1">
  <metadata id="CorelCorpID_0Corel-Layer"/>
  <g id="_2724828441264">
   <path class="fil0" d="M1629 811c70,172 -74,426 -329,426 -186,0 -346,-145 -346,-333 0,-196 181,-249 346,-249 122,0 277,30 329,156zm-228 978c0,59 0,119 0,178 114,0 227,0 341,0 0,-59 0,-119 0,-178 -114,0 -227,0 -341,0zm-547 -530c-86,-102 -138,-234 -138,-378 0,-113 32,-219 88,-308 106,-170 295,-276 496,-276 201,0 390,106 496,276 56,89 88,195 88,308 0,144 -52,276 -138,378l113 0c91,0 186,36 254,98 77,69 126,170 126,282 0,221 0,442 0,664l-1878 0c0,-222 0,-443 0,-664 0,-112 49,-213 126,-282 68,-62 163,-98 254,-98l113 0zm446 -905c-291,0 -527,237 -527,527 0,291 236,527 527,527 291,0 527,-236 527,-527 0,-290 -236,-527 -527,-527zm0 1111c-150,0 -287,-57 -390,-150l-95 0c121,140 298,223 485,223 186,0 363,-82 485,-223l-95 0c-103,93 -240,150 -390,150zm-876 110l0 0c16,-80 62,-149 125,-196 37,-26 74,-45 117,-55 21,-5 43,-8 64,-9l0 931 0 0 -312 0c0,0 0,-557 0,-607 0,-22 2,-43 6,-64zm876 -224c-253,0 -459,-201 -459,-447 0,-118 48,-214 139,-277 163,-114 477,-114 640,0 91,63 139,159 139,277 0,246 -206,447 -459,447zm0 -752c-118,0 -218,26 -288,74 -76,53 -114,131 -114,231 0,215 180,390 402,390 222,0 402,-175 402,-390 0,-100 -38,-178 -114,-231 -70,-48 -170,-74 -288,-74zm-28 995c-186,-8 -361,-90 -485,-226l0 878 485 0 0 -652zm738 220c0,-79 0,-159 0,-239 55,0 111,0 166,0 -29,-144 -154,-254 -306,-260l0 931 312 0 0 -432c-57,0 -114,0 -172,0zm-324 97l-229 0 0 -66 229 0 0 66zm496 -153l-115 0 0 -126 115 0c0,2 0,126 0,126zm-854 -164c186,-8 361,-90 485,-226l0 878 -485 0 0 -652zm249 -762c-42,-101 -181,-120 -277,-120 -131,0 -289,32 -289,192 0,272 374,383 530,150 42,-62 65,-150 36,-222z"/>
   <rect class="fil1" width="2600" height="2600"/>
  </g>
 </g>
</svg>
