<?xml version="1.0" encoding="UTF-8"?>
<!DOCTYPE svg PUBLIC "-//W3C//DTD SVG 1.1//EN" "http://www.w3.org/Graphics/SVG/1.1/DTD/svg11.dtd">
<!-- Creator: CorelDRAW X7 -->
<svg xmlns="http://www.w3.org/2000/svg" xml:space="preserve" width="100%" height="100%" version="1.1" style="shape-rendering:geometricPrecision; text-rendering:geometricPrecision; image-rendering:optimizeQuality; fill-rule:evenodd; clip-rule:evenodd"
viewBox="0 0 2600 2600"
 xmlns:xlink="http://www.w3.org/1999/xlink">
 <defs>
  <style type="text/css">
   <![CDATA[
    .fil0 {fill:none}
    .fil1 {fill:black}
   ]]>
  </style>
 </defs>
 <g id="Layer_x0020_1">
  <metadata id="CorelCorpID_0Corel-Layer"/>
  <g id="_2724847818368">
   <rect class="fil0" width="2600" height="2600"/>
   <path class="fil1" d="M809 1100l73 -73 473 109 199 -199c31,-31 79,-31 109,0 31,30 31,78 0,109l-199 199 109 473 -73 73 -200 -382 -200 200 18 127 -54 55 -91 -164 -164 -91 55 -54 127 18 200 -200 -382 -200zm1130 -439c-171,-170 -398,-264 -639,-264 -241,0 -468,94 -639,264 -170,171 -264,398 -264,639 0,241 94,468 264,639 171,170 398,264 639,264 241,0 468,-94 639,-264 170,-171 264,-398 264,-639 0,-241 -94,-468 -264,-639zm-639 1486c-226,0 -439,-88 -599,-248 -160,-160 -248,-373 -248,-599 0,-226 88,-439 248,-599 160,-160 373,-248 599,-248 226,0 439,88 599,248 160,160 248,373 248,599 0,226 -88,439 -248,599 -160,160 -373,248 -599,248z"/>
  </g>
 </g>
</svg>
