<?xml version="1.0" encoding="UTF-8"?>
<!DOCTYPE svg PUBLIC "-//W3C//DTD SVG 1.1//EN" "http://www.w3.org/Graphics/SVG/1.1/DTD/svg11.dtd">
<!-- Creator: CorelDRAW X7 -->
<svg xmlns="http://www.w3.org/2000/svg" xml:space="preserve" width="100%" height="100%" version="1.1" style="shape-rendering:geometricPrecision; text-rendering:geometricPrecision; image-rendering:optimizeQuality; fill-rule:evenodd; clip-rule:evenodd"
viewBox="0 0 2600 2600"
 xmlns:xlink="http://www.w3.org/1999/xlink">
 <defs>
  <style type="text/css">
   <![CDATA[
    .fil0 {fill:none}
    .fil1 {fill:black}
   ]]>
  </style>
 </defs>
 <g id="Layer_x0020_1">
  <metadata id="CorelCorpID_0Corel-Layer"/>
  <g id="_2724834408496">
   <rect class="fil0" width="2600" height="2600"/>
   <path class="fil1" d="M708 1097l425 0c3,-19 12,-43 20,-58 9,-18 23,-35 38,-48 29,-26 67,-41 109,-41 42,0 80,15 109,41 15,13 29,30 38,48 8,15 17,39 20,58l425 0 0 -79 -171 0 -48 -144 113 -113 -130 -130 -114 113 -143 -48 0 -172 -198 0 0 172 -143 48 -114 -113 -130 130 113 113 -48 144 -171 0 0 79zm761 867l423 0 0 -810c-394,0 -790,0 -1184,0l0 0 0 810 423 0 0 -226 338 0 0 226zm423 56l-423 0 0 56c142,0 283,0 423,0l0 -56zm-761 0l-423 0 0 56c141,0 281,0 423,0l0 -56zm60 -923l218 0c-5,-25 -19,-48 -37,-63 -19,-17 -44,-27 -72,-27 -28,0 -53,10 -72,27 -18,15 -32,38 -37,63zm-534 1035l-6 0c0,-390 0,-780 0,-1170l57 0 131 0 24 -72 -88 -89 -40 -40 40 -39 130 -131 39 -40 40 40 89 89 72 -24 0 -132 0 -56 56 0 198 0 56 0 0 56 0 132 72 24 89 -89 40 -40 39 40 130 130 40 40 -40 40 -88 89 24 72 131 0 57 0c0,390 0,780 0,1170 -431,0 -862,0 -1292,0zm530 -56l0 -282 226 0 0 282 -226 0zm-310 -734l0 283 282 0 0 -283 -282 0zm56 226l0 -169 169 0 0 169 -169 0zm508 -226l0 283 282 0 0 -283 -282 0zm57 226l0 -169 169 0 0 169 -169 0z"/>
  </g>
 </g>
</svg>
