<?xml version="1.0" encoding="UTF-8"?>
<!DOCTYPE svg PUBLIC "-//W3C//DTD SVG 1.1//EN" "http://www.w3.org/Graphics/SVG/1.1/DTD/svg11.dtd">
<!-- Creator: CorelDRAW X7 -->
<svg xmlns="http://www.w3.org/2000/svg" xml:space="preserve" width="100%" height="100%" version="1.1" style="shape-rendering:geometricPrecision; text-rendering:geometricPrecision; image-rendering:optimizeQuality; fill-rule:evenodd; clip-rule:evenodd"
viewBox="0 0 2600 2600"
 xmlns:xlink="http://www.w3.org/1999/xlink">
 <defs>
  <style type="text/css">
   <![CDATA[
    .fil0 {fill:none}
    .fil1 {fill:black}
   ]]>
  </style>
 </defs>
 <g id="Layer_x0020_1">
  <metadata id="CorelCorpID_0Corel-Layer"/>
  <g id="_2724834379088">
   <rect class="fil0" width="2600" height="2600"/>
   <path class="fil1" d="M1718 1101c-29,-201 -187,-344 -389,-362l0 -86 225 0c0,-56 0,-112 0,-169 -94,0 -188,0 -281,0l0 255c-204,18 -362,162 -391,362l-485 0 0 1015c602,0 1204,0 1806,0l0 -1015 -485 0zm146 166l0 0c47,0 85,38 85,84l0 145 -169 0 0 -145c0,-46 38,-84 84,-84zm-1128 338l0 0c-46,0 -85,38 -85,84l0 145 170 0 0 -145c0,-46 -38,-84 -85,-84zm0 56c15,0 28,13 28,28l0 88 -56 0 0 -88c0,-15 13,-28 28,-28zm1128 -56l0 0c47,0 85,38 85,84l0 145 -169 0 0 -145c0,-46 38,-84 84,-84zm0 56c-15,0 -28,13 -28,28l0 88 56 0 0 -88c0,-15 -13,-28 -28,-28zm-846 -394l0 0c-46,0 -84,38 -84,84l0 145 169 0 0 -145c0,-46 -38,-84 -85,-84zm0 56c15,0 28,13 28,28l0 88 -56 0 0 -88c0,-15 13,-28 28,-28zm564 -56l0 0c47,0 85,38 85,84l0 145 -169 0 0 -145c0,-46 38,-84 84,-84zm0 56c-15,0 -28,13 -28,28l0 88 56 0 0 -88c0,-15 -13,-28 -28,-28zm-282 -56l0 0c47,0 85,38 85,84l0 145 -170 0 0 -145c0,-46 39,-84 85,-84zm20 64c-5,-5 -12,-8 -20,-8 -8,0 -15,3 -20,8 -5,5 -8,12 -8,20l0 88 56 0 0 -88c0,-8 -3,-15 -8,-20zm-584 -64l0 0c-46,0 -85,38 -85,84l0 145 170 0 0 -145c0,-46 -38,-84 -85,-84zm0 56c15,0 28,13 28,28l0 88 -56 0 0 -88c0,-15 13,-28 28,-28zm1128 0c-15,0 -28,13 -28,28l0 88 56 0 0 -88c0,-15 -13,-28 -28,-28zm-203 -222l-136 0c-1,-110 -46,-215 -124,-293 137,39 237,153 260,293zm-192 0l-338 0c2,-123 65,-236 169,-302 104,66 167,179 169,302zm-394 0l-136 0c23,-141 125,-254 260,-293 -78,78 -123,183 -124,293zm423 -504l0 -56 -169 0 0 56 169 0zm648 1462c-207,0 -414,0 -621,0l0 -394 57 0 0 -56 -564 0 0 56 57 0 0 394c-207,0 -414,0 -621,0 0,-300 0,-601 0,-901l1692 0c0,300 0,601 0,901zm-1015 0l0 -394 141 0 0 394 -141 0zm197 0l0 -394 141 0 0 394 -141 0z"/>
  </g>
 </g>
</svg>
