<?xml version="1.0" encoding="UTF-8"?>
<!DOCTYPE svg PUBLIC "-//W3C//DTD SVG 1.1//EN" "http://www.w3.org/Graphics/SVG/1.1/DTD/svg11.dtd">
<!-- Creator: CorelDRAW X7 -->
<svg xmlns="http://www.w3.org/2000/svg" xml:space="preserve" width="100%" height="100%" version="1.1" style="shape-rendering:geometricPrecision; text-rendering:geometricPrecision; image-rendering:optimizeQuality; fill-rule:evenodd; clip-rule:evenodd"
viewBox="0 0 2600 2600"
 xmlns:xlink="http://www.w3.org/1999/xlink">
 <defs>
  <style type="text/css">
   <![CDATA[
    .fil0 {fill:none}
    .fil1 {fill:black}
   ]]>
  </style>
 </defs>
 <g id="Layer_x0020_1">
  <metadata id="CorelCorpID_0Corel-Layer"/>
  <g id="_2724831783408">
   <rect class="fil0" width="2600" height="2600"/>
   <path class="fil1" d="M397 651l0 1411 1806 0 0 -1411 -254 0 0 -113 -56 0 0 113 -121 0 0 -113c-19,0 -38,0 -57,0l0 113 -121 0 0 -113c-18,0 -37,0 -56,0l0 113 -121 0 0 -113c-19,0 -38,0 -56,0l0 113 -122 0 0 -113c-18,0 -37,0 -56,0l0 113 -121 0 0 -113c-19,0 -38,0 -56,0l0 113 -121 0 0 -113c-19,0 -38,0 -57,0l0 113 -121 0 0 -113 -56 0 0 113 -254 0zm310 56l0 113 -56 0 0 -113 -198 0 0 170 1694 0 0 -170 -198 0 0 113 -56 0 0 -113 -121 0 0 113c-19,0 -38,0 -57,0l0 -113 -121 0 0 113c-18,0 -37,0 -56,0l0 -113 -121 0 0 113c-19,0 -38,0 -56,0l0 -113 -122 0 0 113c-18,0 -37,0 -56,0l0 -113 -121 0 0 113c-19,0 -38,0 -56,0l0 -113 -121 0 0 113c-19,0 -38,0 -57,0l0 -113 -121 0zm424 1186l338 0 0 -339 -338 0 0 339zm56 -283l226 0 0 226 -226 0 0 -226zm-56 -225l338 0 0 -339 -338 0 0 339zm56 -283l226 0 0 226 -226 0 0 -226zm423 791l339 0 0 -339 -339 0 0 339zm0 -508l339 0 0 -339 -339 0 0 339zm57 -283l226 0 0 226 -226 0 0 -226zm-1016 791l339 0 0 -339 -339 0 0 339zm56 -283l226 0 0 226 -226 0 0 -226zm-56 -225l339 0 0 -339 -339 0 0 339zm56 -283l226 0 0 226 -226 0 0 -226zm-254 904l0 -1073 1694 0 0 1073 -1694 0z"/>
  </g>
 </g>
</svg>
