<?xml version="1.0" encoding="UTF-8"?>
<!DOCTYPE svg PUBLIC "-//W3C//DTD SVG 1.1//EN" "http://www.w3.org/Graphics/SVG/1.1/DTD/svg11.dtd">
<!-- Creator: CorelDRAW X7 -->
<svg xmlns="http://www.w3.org/2000/svg" xml:space="preserve" width="100%" height="100%" version="1.1" style="shape-rendering:geometricPrecision; text-rendering:geometricPrecision; image-rendering:optimizeQuality; fill-rule:evenodd; clip-rule:evenodd"
viewBox="0 0 2600 2600"
 xmlns:xlink="http://www.w3.org/1999/xlink">
 <defs>
  <style type="text/css">
   <![CDATA[
    .fil0 {fill:none}
    .fil1 {fill:black}
   ]]>
  </style>
 </defs>
 <g id="Layer_x0020_1">
  <metadata id="CorelCorpID_0Corel-Layer"/>
  <g id="_2724844375584">
   <rect class="fil0" width="2600" height="2600"/>
   <path class="fil1" d="M476 1095l433 0 0 45c62,-2 151,-11 253,-35 105,-25 224,-67 342,-136 82,-48 147,-93 197,-134 66,-53 108,-98 135,-132l8 -10 0 403 110 0 0 408 -110 0 0 403 -8 -10c-27,-34 -69,-79 -135,-132 -50,-41 -115,-86 -197,-134 -118,-69 -237,-111 -342,-136 -102,-24 -191,-33 -253,-35l0 46 -102 0 63 382 -231 0 -63 -382 -105 0 0 -48 -110 0 0 -316 110 0 0 -47 5 0zm1592 394l123 70 -27 47 -127 -73 27 -47 4 3zm28 -216l143 0 0 55 -147 0 0 -55 4 0zm70 -275l25 43 -127 74 -27 -48 127 -73 2 4zm-1312 151l-327 0 0 302 327 0 0 -302zm55 46l0 210c36,2 80,5 130,12 53,7 113,18 176,35 50,13 102,30 155,52 53,21 107,48 162,79 42,25 79,49 113,72 34,23 64,46 90,67 11,8 21,17 31,25 8,7 15,14 23,20l0 -934c-8,6 -15,13 -23,20 -10,8 -20,17 -31,25 -27,22 -58,45 -94,69 -32,23 -69,46 -109,70 -55,31 -109,58 -162,79 -53,22 -105,39 -155,52 -63,17 -123,28 -176,35 -50,7 -94,10 -130,12zm990 -44l-55 0 0 298 55 0 0 -298zm-1428 46l-55 0 0 206 55 0 0 -206zm160 309l56 327 120 -1 -56 -326 -120 0z"/>
  </g>
 </g>
</svg>
