<?xml version="1.0" encoding="UTF-8"?>
<!DOCTYPE svg PUBLIC "-//W3C//DTD SVG 1.1//EN" "http://www.w3.org/Graphics/SVG/1.1/DTD/svg11.dtd">
<!-- Creator: CorelDRAW X7 -->
<svg xmlns="http://www.w3.org/2000/svg" xml:space="preserve" width="1.02362in" height="1.02362in" version="1.1" style="shape-rendering:geometricPrecision; text-rendering:geometricPrecision; image-rendering:optimizeQuality; fill-rule:evenodd; clip-rule:evenodd"
viewBox="0 0 10236 10236"
 xmlns:xlink="http://www.w3.org/1999/xlink">
 <defs>
  <style type="text/css">
   <![CDATA[
    .fil0 {fill:none}
    .fil1 {fill:black}
   ]]>
  </style>
 </defs>
 <g id="Layer_x0020_1">
  <metadata id="CorelCorpID_0Corel-Layer"/>
  <g id="_2320804559152">
   <rect class="fil0" width="10236" height="10236"/>
   <path class="fil1" d="M2633 7021l5213 0c404,0 719,-315 719,-718 0,-502 -375,-718 -837,-718l-111 0 0 -111c0,-1296 -953,-2259 -2251,-2259 -1098,0 -2094,700 -2288,1811l-18 101 -101 -9c-203,-18 -401,-3 -578,45 -416,115 -710,428 -710,876 0,534 412,982 962,982zm3665 -2208l-158 -157c-526,525 -606,606 -1135,1134l-518 -518 -157 158 675 675 1293 -1292zm1548 2431l-5213 0c-672,0 -1184,-550 -1184,-1205 0,-550 360,-948 874,-1090 174,-47 362,-67 555,-59 254,-1167 1321,-1898 2488,-1898 1375,0 2418,1000 2470,2374 548,38 951,360 951,937 0,526 -414,941 -941,941z"/>
  </g>
 </g>
</svg>
