<?xml version="1.0" encoding="UTF-8"?>
<!DOCTYPE svg PUBLIC "-//W3C//DTD SVG 1.1//EN" "http://www.w3.org/Graphics/SVG/1.1/DTD/svg11.dtd">
<!-- Creator: CorelDRAW X7 -->
<svg xmlns="http://www.w3.org/2000/svg" xml:space="preserve" width="1.02362in" height="1.02362in" version="1.1" style="shape-rendering:geometricPrecision; text-rendering:geometricPrecision; image-rendering:optimizeQuality; fill-rule:evenodd; clip-rule:evenodd"
viewBox="0 0 10236 10236"
 xmlns:xlink="http://www.w3.org/1999/xlink">
 <defs>
  <style type="text/css">
   <![CDATA[
    .fil1 {fill:none}
    .fil0 {fill:black;fill-rule:nonzero}
   ]]>
  </style>
 </defs>
 <g id="Layer_x0020_1">
  <metadata id="CorelCorpID_0Corel-Layer"/>
  <g id="_2320947063696">
   <path class="fil0" d="M4252 4816l-630 0 0 200 289 0c-185,195 -287,452 -287,721 0,137 26,274 80,402 161,391 544,648 969,648 425,0 808,-257 970,-648 53,-128 79,-265 79,-402 0,-136 -26,-273 -79,-402 -182,-439 -588,-663 -1058,-643l0 201c389,-20 721,154 873,519 43,104 64,215 64,325 0,467 -377,849 -849,849 -469,0 -849,-380 -849,-849 0,-215 81,-421 228,-579l0 321 200 0c0,-202 0,-461 0,-663zm-1222 2554l4492 0c350,0 626,-153 805,-376 222,-278 293,-660 177,-998 -95,-277 -319,-528 -698,-669l-78 -29 6 -82c25,-373 -92,-751 -423,-954 -346,-212 -770,-140 -1107,54l-128 74 -35 -144c-205,-844 -858,-1476 -1754,-1368 -866,104 -1378,837 -1378,1688l0 89 -87 19c-733,167 -1221,736 -1135,1493 24,214 96,422 212,603 223,349 610,600 1131,600zm4492 222l-4492 0c-605,0 -1056,-293 -1318,-703 -134,-210 -218,-451 -246,-698 -94,-830 419,-1496 1222,-1712 32,-931 632,-1709 1573,-1822 947,-113 1693,509 1959,1401 384,-182 834,-213 1206,15 377,230 542,647 533,1077 403,171 647,457 756,774 139,408 54,872 -214,1208 -219,274 -555,460 -979,460z"/>
   <rect class="fil1" width="10236" height="10236"/>
  </g>
 </g>
</svg>
