<?xml version="1.0" encoding="UTF-8"?>
<!DOCTYPE svg PUBLIC "-//W3C//DTD SVG 1.1//EN" "http://www.w3.org/Graphics/SVG/1.1/DTD/svg11.dtd">
<!-- Creator: CorelDRAW X7 -->
<svg xmlns="http://www.w3.org/2000/svg" xml:space="preserve" width="1.02362in" height="1.02362in" version="1.1" style="shape-rendering:geometricPrecision; text-rendering:geometricPrecision; image-rendering:optimizeQuality; fill-rule:evenodd; clip-rule:evenodd"
viewBox="0 0 10236 10236"
 xmlns:xlink="http://www.w3.org/1999/xlink">
 <defs>
  <style type="text/css">
   <![CDATA[
    .fil1 {fill:none}
    .fil0 {fill:black;fill-rule:nonzero}
   ]]>
  </style>
 </defs>
 <g id="Layer_x0020_1">
  <metadata id="CorelCorpID_0Corel-Layer"/>
  <g id="_2320947060432">
   <path class="fil0" d="M8554 5918c59,-547 -206,-1084 -685,-1359 -276,-158 -626,-231 -1035,-171l-97 14 -26 -94c-217,-778 -767,-1276 -1593,-1276 -826,0 -1375,499 -1592,1276l-27 94 -96 -14c-409,-60 -759,13 -1035,170 -479,274 -745,813 -686,1359 56,521 407,978 889,1178 172,71 358,109 547,109l3999 0c190,0 376,-38 548,-109 480,-199 833,-658 889,-1177zm-2633 -1043c-527,525 -606,606 -1135,1135l-518 -519 -158 158 676 675 1292 -1292 -157 -157zm2854 1066c-65,601 -470,1129 -1025,1359 -199,83 -414,127 -633,127l-3999 0c-218,0 -433,-44 -633,-127 -555,-230 -959,-758 -1024,-1359 -68,-635 242,-1258 798,-1576 294,-168 660,-252 1081,-209 264,-828 892,-1346 1778,-1346 886,0 1514,516 1779,1346 422,-43 788,42 1083,210 554,318 863,942 795,1575z"/>
   <rect class="fil1" width="10236" height="10236"/>
  </g>
 </g>
</svg>
