<?xml version="1.0" encoding="UTF-8"?>
<!DOCTYPE svg PUBLIC "-//W3C//DTD SVG 1.1//EN" "http://www.w3.org/Graphics/SVG/1.1/DTD/svg11.dtd">
<!-- Creator: CorelDRAW X7 -->
<svg xmlns="http://www.w3.org/2000/svg" xml:space="preserve" width="1.02362in" height="1.02362in" version="1.1" style="shape-rendering:geometricPrecision; text-rendering:geometricPrecision; image-rendering:optimizeQuality; fill-rule:evenodd; clip-rule:evenodd"
viewBox="0 0 10236 10236"
 xmlns:xlink="http://www.w3.org/1999/xlink">
 <defs>
  <style type="text/css">
   <![CDATA[
    .fil1 {fill:none}
    .fil0 {fill:black}
   ]]>
  </style>
 </defs>
 <g id="Layer_x0020_1">
  <metadata id="CorelCorpID_0Corel-Layer"/>
  <g id="_2320804809968">
   <path class="fil0" d="M2633 7021l5213 0c404,0 719,-314 719,-718 0,-502 -375,-718 -837,-718l-111 0 0 -111c0,-1296 -952,-2259 -2251,-2259 -1098,0 -2094,700 -2288,1811l-18 101 -101 -9c-203,-18 -401,-3 -578,45 -416,115 -710,428 -710,876 0,534 412,982 962,982zm1654 -2611l631 0c0,203 -1,461 0,664l-200 0 0 -322c-147,158 -228,364 -228,580 0,469 380,849 849,849 471,0 849,-383 849,-849 0,-111 -22,-222 -65,-326 -151,-365 -483,-539 -873,-519l0 -201c471,-20 876,204 1058,644 53,128 80,265 80,402 0,136 -27,273 -80,402 -162,391 -544,647 -969,647 -425,0 -808,-256 -970,-647 -53,-129 -80,-266 -80,-402 0,-270 103,-527 288,-722l-290 0 0 -200zm3559 2834l-5213 0c-672,0 -1184,-550 -1184,-1205 0,-550 360,-948 874,-1090 174,-47 362,-67 555,-59 254,-1167 1322,-1897 2488,-1897 1375,0 2418,999 2470,2373 548,38 951,360 951,937 0,526 -414,941 -941,941z"/>
   <rect class="fil1" width="10236" height="10236"/>
  </g>
 </g>
</svg>
