<?xml version="1.0" encoding="UTF-8"?>
<!DOCTYPE svg PUBLIC "-//W3C//DTD SVG 1.1//EN" "http://www.w3.org/Graphics/SVG/1.1/DTD/svg11.dtd">
<!-- Creator: CorelDRAW X7 -->
<svg xmlns="http://www.w3.org/2000/svg" xml:space="preserve" width="1.02362in" height="1.02362in" version="1.1" style="shape-rendering:geometricPrecision; text-rendering:geometricPrecision; image-rendering:optimizeQuality; fill-rule:evenodd; clip-rule:evenodd"
viewBox="0 0 10236 10236"
 xmlns:xlink="http://www.w3.org/1999/xlink">
 <defs>
  <style type="text/css">
   <![CDATA[
    .fil0 {fill:none}
    .fil1 {fill:black}
   ]]>
  </style>
 </defs>
 <g id="Layer_x0020_1">
  <metadata id="CorelCorpID_0Corel-Layer"/>
  <g id="_2382597611440">
   <rect class="fil0" width="10236" height="10236"/>
   <path class="fil1" d="M5118 1563c-950,0 -1842,370 -2514,1041 -672,672 -1042,1564 -1042,2514 0,950 370,1843 1042,2514 672,672 1564,1042 2514,1042 950,0 1843,-370 2514,-1042 672,-671 1042,-1564 1042,-2514 0,-950 -370,-1842 -1042,-2514 -671,-671 -1564,-1041 -2514,-1041zm0 1666c-663,0 -1000,224 -1000,667l222 0c0,-207 89,-444 778,-444 473,0 778,261 778,666 0,308 -437,594 -605,679 -21,10 -507,261 -507,988l0 111 223 0 0 -111c0,-585 368,-782 383,-790 30,-14 728,-370 728,-877 0,-523 -411,-889 -1000,-889zm-334 3111l223 0 0 890 -223 0 0 -890zm2691 1135c-629,630 -1467,977 -2357,977 -890,0 -1727,-347 -2357,-977 -629,-630 -976,-1466 -976,-2357 0,-890 347,-1727 976,-2357 630,-629 1467,-976 2357,-976 890,0 1728,347 2357,976 630,630 976,1467 976,2357 0,891 -346,1727 -976,2357z"/>
  </g>
 </g>
</svg>
