<?xml version="1.0" encoding="UTF-8"?>
<!DOCTYPE svg PUBLIC "-//W3C//DTD SVG 1.1//EN" "http://www.w3.org/Graphics/SVG/1.1/DTD/svg11.dtd">
<!-- Creator: CorelDRAW X7 -->
<svg xmlns="http://www.w3.org/2000/svg" xml:space="preserve" width="1.02362in" height="1.02362in" version="1.1" style="shape-rendering:geometricPrecision; text-rendering:geometricPrecision; image-rendering:optimizeQuality; fill-rule:evenodd; clip-rule:evenodd"
viewBox="0 0 10236 10236"
 xmlns:xlink="http://www.w3.org/1999/xlink">
 <defs>
  <style type="text/css">
   <![CDATA[
    .fil0 {fill:none}
    .fil1 {fill:black}
   ]]>
  </style>
 </defs>
 <g id="Layer_x0020_1">
  <metadata id="CorelCorpID_0Corel-Layer"/>
  <g id="_2382379129472">
   <polygon class="fil0" points="0,0 10236,0 10236,10236 0,10236 "/>
   <path class="fil1" d="M5007 2782l222 0 0 1335 -222 0 0 -1335zm1924 2225l-1924 0 0 1924 647 -648 991 991 629 -629 -991 -991 648 -647zm-537 222l-425 425 991 991 -315 315 -991 -991 -425 425 0 -1165 1165 0zm297 -1841l157 157 -943 944 -158 -157 944 -944zm-3146 3460l-157 -157 944 -944 157 158 -944 943zm-763 -1619l0 -222 1335 0 0 222 -1335 0zm606 -1684l157 -157 944 944 -157 157 -944 -944z"/>
  </g>
 </g>
</svg>
