<?xml version="1.0" encoding="UTF-8"?>
<!DOCTYPE svg PUBLIC "-//W3C//DTD SVG 1.1//EN" "http://www.w3.org/Graphics/SVG/1.1/DTD/svg11.dtd">
<!-- Creator: CorelDRAW X7 -->
<svg xmlns="http://www.w3.org/2000/svg" xml:space="preserve" width="1.02362in" height="1.02362in" version="1.1" style="shape-rendering:geometricPrecision; text-rendering:geometricPrecision; image-rendering:optimizeQuality; fill-rule:evenodd; clip-rule:evenodd"
viewBox="0 0 10236 10236"
 xmlns:xlink="http://www.w3.org/1999/xlink">
 <defs>
  <style type="text/css">
   <![CDATA[
    .fil0 {fill:none}
    .fil1 {fill:black}
   ]]>
  </style>
 </defs>
 <g id="Layer_x0020_1">
  <metadata id="CorelCorpID_0Corel-Layer"/>
  <g id="_2320950104032">
   <rect class="fil0" width="10236" height="10236"/>
   <path class="fil1" d="M1563 8007l7111 0 0 -5778 -7111 0 0 5778zm1425 -2192l0 -207 1193 -505 0 222 -945 388 945 393 0 222 -1193 -513zm2314 -1157l-595 2115 223 0 594 -2115 -222 0zm1946 1157l-1193 513 0 -222 943 -393 -943 -388 0 -222 1193 505 0 207zm-3241 -3086l445 0 0 222 -445 0 0 -222zm-889 0l444 0 0 222 -444 0 0 -222zm-889 0l445 0 0 222 -445 0 0 -222zm-444 5056l0 -4333 6667 0 0 4333 -6667 0zm6667 -5333l0 777 -6667 0 0 -777 6667 0z"/>
  </g>
 </g>
</svg>
