<?xml version="1.0" encoding="UTF-8"?>
<!DOCTYPE svg PUBLIC "-//W3C//DTD SVG 1.1//EN" "http://www.w3.org/Graphics/SVG/1.1/DTD/svg11.dtd">
<!-- Creator: CorelDRAW X7 -->
<svg xmlns="http://www.w3.org/2000/svg" xml:space="preserve" width="100%" height="100%" version="1.1" style="shape-rendering:geometricPrecision; text-rendering:geometricPrecision; image-rendering:optimizeQuality; fill-rule:evenodd; clip-rule:evenodd"
viewBox="0 0 2600 2600"
 xmlns:xlink="http://www.w3.org/1999/xlink">
 <defs>
  <style type="text/css">
   <![CDATA[
    .fil0 {fill:none}
    .fil1 {fill:black}
   ]]>
  </style>
 </defs>
 <g id="Layer_x0020_1">
  <metadata id="CorelCorpID_0Corel-Layer"/>
  <g id="_2307283505328">
   <rect class="fil0" width="2600" height="2600"/>
   <path class="fil1" d="M1695 1893l0 -1149 -113 0c0,383 0,766 0,1149l113 0zm-169 -1205l226 0c0,420 0,841 0,1261 -76,0 -151,0 -226,0 0,-420 0,-841 0,-1261zm-677 867l226 0c0,112 0,282 0,394 -75,0 -151,0 -226,0 0,-112 0,-282 0,-394zm57 56c0,75 0,207 0,282l112 0 0 -282 -112 0zm338 -395c0,225 0,451 0,677l113 0 0 -677 -113 0zm-56 -57l225 0c0,264 0,527 0,790 -75,0 -150,0 -225,0 0,-263 0,-526 0,-790zm-565 -350l0 1394 1354 0 0 -1806 -943 0 -411 412zm395 -316l0 299 -299 0 299 -299zm903 1654l-1242 0 0 -1298 395 0 0 -396 847 0 0 1694z"/>
  </g>
 </g>
</svg>
