<?xml version="1.0" encoding="UTF-8"?>
<!DOCTYPE svg PUBLIC "-//W3C//DTD SVG 1.1//EN" "http://www.w3.org/Graphics/SVG/1.1/DTD/svg11.dtd">
<!-- Creator: CorelDRAW X7 -->
<svg xmlns="http://www.w3.org/2000/svg" xml:space="preserve" width="1.02362in" height="1.02362in" version="1.1" style="shape-rendering:geometricPrecision; text-rendering:geometricPrecision; image-rendering:optimizeQuality; fill-rule:evenodd; clip-rule:evenodd"
viewBox="0 0 10236 10236"
 xmlns:xlink="http://www.w3.org/1999/xlink">
 <defs>
  <style type="text/css">
   <![CDATA[
    .fil1 {fill:none}
    .fil0 {fill:black}
   ]]>
  </style>
 </defs>
 <g id="Layer_x0020_1">
  <metadata id="CorelCorpID_0Corel-Layer"/>
  <g id="_2296317292160">
   <path class="fil0" d="M2453 3185l0 5488 5330 0 0 -4953 -220 0 0 4733 -4890 0 0 -5110 1555 0 0 -1560 1398 0 0 -220 -1555 0 -1618 1622zm5220 -1622l-1267 12 -8 228 984 4 -2323 2327 158 153 2322 -2322 0 988 233 -12 11 -1268 -110 -110zm-3665 378l0 1177 -1177 0 1177 -1177z"/>
   <rect class="fil1" width="10236" height="10236"/>
  </g>
 </g>
</svg>
