<?xml version="1.0" encoding="UTF-8"?>
<!DOCTYPE svg PUBLIC "-//W3C//DTD SVG 1.1//EN" "http://www.w3.org/Graphics/SVG/1.1/DTD/svg11.dtd">
<!-- Creator: CorelDRAW X7 -->
<svg xmlns="http://www.w3.org/2000/svg" xml:space="preserve" width="1.02362in" height="1.02362in" version="1.1" style="shape-rendering:geometricPrecision; text-rendering:geometricPrecision; image-rendering:optimizeQuality; fill-rule:evenodd; clip-rule:evenodd"
viewBox="0 0 10236 10236"
 xmlns:xlink="http://www.w3.org/1999/xlink">
 <defs>
  <style type="text/css">
   <![CDATA[
    .fil1 {fill:none}
    .fil0 {fill:black}
   ]]>
  </style>
 </defs>
 <g id="Layer_x0020_1">
  <metadata id="CorelCorpID_0Corel-Layer"/>
  <g id="_2296489519136">
   <path class="fil0" d="M7008 1563l-3780 0 0 1669 -895 0 0 664 -770 0 0 3557 1665 0 0 1220 3780 0 0 -1220 1665 0 0 -3557 -769 0 0 -664 -896 0 0 -1669zm-454 2992l-1 -439 -2870 0 -1 439 -1127 0 0 -1100 2563 0 2563 0 0 1100 -1127 0zm1 223l1126 0 0 333 -1125 0 -1 -333zm-2874 0l0 333 -1126 0 0 -333 1126 0zm-228 -1546l0 -1449 3330 0 0 1449 -3330 0zm4451 888l0 1214 -1569 0 -3 -995 -2428 0 -2 995 -1569 0 0 -1214 -550 0 0 3108 1445 0 0 -1445 3780 0 0 1445 1445 0 0 -3108 -549 0zm-3896 3443l2220 0 0 220 -2220 0 0 -220zm0 -890l2220 0 0 225 -2220 0 0 -225zm2775 1780l-3330 0 0 -2445 3330 0 0 2445z"/>
   <rect class="fil1" width="10236" height="10236"/>
  </g>
 </g>
</svg>
