<?xml version="1.0" encoding="UTF-8"?>
<!DOCTYPE svg PUBLIC "-//W3C//DTD SVG 1.1//EN" "http://www.w3.org/Graphics/SVG/1.1/DTD/svg11.dtd">
<!-- Creator: CorelDRAW X7 -->
<svg xmlns="http://www.w3.org/2000/svg" xml:space="preserve" width="1.02362in" height="1.02362in" version="1.1" style="shape-rendering:geometricPrecision; text-rendering:geometricPrecision; image-rendering:optimizeQuality; fill-rule:evenodd; clip-rule:evenodd"
viewBox="0 0 10236 10236"
 xmlns:xlink="http://www.w3.org/1999/xlink">
 <defs>
  <style type="text/css">
   <![CDATA[
    .fil1 {fill:none}
    .fil0 {fill:black}
   ]]>
  </style>
 </defs>
 <g id="Layer_x0020_1">
  <metadata id="CorelCorpID_0Corel-Layer"/>
  <g id="_2296485288512">
   <path class="fil0" d="M7008 1563l-3780 0 0 1669 -895 0 0 664 -770 0 0 3557 1665 0 0 1220 3780 0 0 -1220 1665 0 0 -3557 -769 0 0 -664 -896 0 0 -1669zm-3555 1669l0 -1449 3330 0 0 1449 -3330 0zm4451 888l0 1102 -1569 0 -3 -883 -2428 0 -2 883 -1569 0 0 -1102 -550 0 0 3108 1445 0 0 -1445 3780 0 0 1445 1445 0 0 -3108 -549 0zm-2786 -665l-2563 0 0 1545 1126 0 2 -884 2870 0 3 884 1125 0 0 -1545 -2563 0zm-1110 4108l2220 0 0 220 -2220 0 0 -220zm0 -890l2220 0 0 225 -2220 0 0 -225zm2775 1780l-3330 0 0 -2445 3330 0 0 2445z"/>
   <rect class="fil1" width="10236" height="10236"/>
  </g>
 </g>
</svg>
