<?xml version="1.0" encoding="UTF-8"?>
<!DOCTYPE svg PUBLIC "-//W3C//DTD SVG 1.1//EN" "http://www.w3.org/Graphics/SVG/1.1/DTD/svg11.dtd">
<!-- Creator: CorelDRAW X7 -->
<svg xmlns="http://www.w3.org/2000/svg" xml:space="preserve" width="100%" height="100%" version="1.1" style="shape-rendering:geometricPrecision; text-rendering:geometricPrecision; image-rendering:optimizeQuality; fill-rule:evenodd; clip-rule:evenodd"
viewBox="0 0 2600 2600"
 xmlns:xlink="http://www.w3.org/1999/xlink">
 <defs>
  <style type="text/css">
   <![CDATA[
    .fil1 {fill:none}
    .fil0 {fill:black}
   ]]>
  </style>
 </defs>
 <g id="Layer_x0020_1">
  <metadata id="CorelCorpID_0Corel-Layer"/>
  <g id="_2724746413168">
   <path class="fil0" d="M1300 2147l0 0 -7 0 -2 0 -2 0 0 0 0 0 -9 0 -1 -1 -1 0 -2 0 -5 0 -2 0 -1 0 -1 0 -9 0 -7 -1 -2 0 -2 0 0 0 -3 0 -2 0 -2 0 -2 0 -2 -1 -3 0 -2 0 -2 0 -2 0 -2 -1 0 0 -3 0 -2 0 -2 0 -2 0 0 0 -2 -1 -3 0 -2 0 -2 0 -1 0 -1 -1 -2 0 -5 0 -2 -1 -2 0 0 0 -2 0 -2 0 -3 -1 -4 0 -2 -1 -2 0 -3 0 -4 -1 -2 0 -2 0 -2 -1 -3 0 -2 -1 -2 0 0 -427 0 -82 0 -200 0 -82 -56 -56 -487 -487c25,-35 54,-68 85,-100 143,-142 327,-227 525,-244l11 -1 0 0 10 -1 0 0 11 -1 0 0 10 0 0 0 11 0 0 0 10 -1 1 0 10 0 0 0 11 0 0 0 10 1 0 0 11 0 0 0 10 0 0 0 11 1 0 0 10 1 0 0 11 1c198,17 382,102 525,244 31,32 60,65 86,101l-487 486 -57 56 0 81 0 201 0 82 0 427c-8,2 -17,3 -26,4l0 0c-14,2 -27,3 -41,5l0 0 -11 0 -1 1c-6,0 -13,0 -19,1l-1 0 -10 0 -1 0 -9 0 -1 0 -10 1 0 0 -2 0 -2 0 -7 0zm-78 -1747c-212,18 -409,110 -561,261 -170,171 -264,398 -264,639 0,241 94,468 264,639 124,123 277,206 444,243l0 0 1 0 1 1 1 0 7 1 1 0 1 1 1 0 1 0 7 2 1 0 1 0 9 1 1 1 1 0 1 0 1 0 0 0 4 1 1 0 1 0 1 0 0 0 1 1 1 0 1 0 1 0 1 0 4 1 1 0 1 0 2 1 2 0 1 0 4 1 2 0 2 0 2 0 5 1 2 0 2 1 2 0 5 0 2 1 2 0 2 0 2 0 2 1 3 0 2 0 2 0 2 1 2 0 3 0 2 0 2 0 2 1 1 0 1 0 3 0 2 0 2 0 2 1 4 0 1 0 2 0 2 0 2 0 2 0 1 0 2 1 2 0 2 0 2 0 2 0 1 0 2 0 6 0 2 0 1 0 2 1 4 0 3 0 1 0 1 0 2 0 7 0 2 0 0 0 0 0 11 0 0 0 11 0 9 0 2 0 1 0 2 0c10,-1 20,-1 31,-2l0 0c29,-1 57,-4 85,-9 19,-3 38,-6 57,-10l0 0c165,-37 318,-121 441,-243 170,-171 264,-398 264,-639 0,-177 -51,-347 -145,-492l0 0c-11,-16 -22,-32 -33,-47 -26,-35 -55,-68 -86,-100 -152,-151 -349,-243 -560,-261l-11 -1 -1 0c-3,0 -7,0 -11,0l0 0 -11 -1 0 0 -11 0 0 0 -11 -1 0 0 -12 0 0 0 -11 0 0 0 -11 0 0 0 -11 0 -1 0 -11 1 0 0 -11 0 0 0 -11 1 0 0 -11 0 0 0 -11 1zm677 1499c-113,112 -251,189 -401,225l0 -359 0 -82 0 -314 519 -520c84,134 130,289 130,451 0,226 -88,439 -248,599zm-796 225c-151,-36 -289,-113 -402,-225 -160,-160 -248,-373 -248,-599 0,-162 46,-317 130,-451l0 0 520 520 0 395 0 360 0 0z"/>
   <rect class="fil1" width="2600" height="2600"/>
  </g>
 </g>
</svg>
