<?xml version="1.0" encoding="UTF-8"?>
<!DOCTYPE svg PUBLIC "-//W3C//DTD SVG 1.1//EN" "http://www.w3.org/Graphics/SVG/1.1/DTD/svg11.dtd">
<!-- Creator: CorelDRAW X7 -->
<svg xmlns="http://www.w3.org/2000/svg" xml:space="preserve" width="100%" height="100%" version="1.1" style="shape-rendering:geometricPrecision; text-rendering:geometricPrecision; image-rendering:optimizeQuality; fill-rule:evenodd; clip-rule:evenodd"
viewBox="0 0 2600 2600"
 xmlns:xlink="http://www.w3.org/1999/xlink">
 <defs>
  <style type="text/css">
   <![CDATA[
    .fil1 {fill:none}
    .fil0 {fill:black}
   ]]>
  </style>
 </defs>
 <g id="Layer_x0020_1">
  <metadata id="CorelCorpID_0Corel-Layer"/>
  <g id="_2724831442576">
   <path class="fil0" d="M1841 894l-2 643c-501,-127 -555,110 -1024,12l0 421 -56 0c0,-322 0,-755 1,-1077 520,131 559,-130 1081,1zm-1026 597l1 -527c230,47 363,16 497,-15 125,-30 251,-59 472,-11l-2 528c-230,-47 -363,-16 -497,15 -125,29 -250,58 -471,10z"/>
   <rect class="fil1" width="2600" height="2600"/>
  </g>
 </g>
</svg>
