<?xml version="1.0" encoding="UTF-8"?>
<!DOCTYPE svg PUBLIC "-//W3C//DTD SVG 1.1//EN" "http://www.w3.org/Graphics/SVG/1.1/DTD/svg11.dtd">
<!-- Creator: CorelDRAW X7 -->
<svg xmlns="http://www.w3.org/2000/svg" xml:space="preserve" width="100%" height="100%" version="1.1" style="shape-rendering:geometricPrecision; text-rendering:geometricPrecision; image-rendering:optimizeQuality; fill-rule:evenodd; clip-rule:evenodd"
viewBox="0 0 2600 2600"
 xmlns:xlink="http://www.w3.org/1999/xlink">
 <defs>
  <style type="text/css">
   <![CDATA[
    .fil1 {fill:none}
    .fil0 {fill:black}
   ]]>
  </style>
 </defs>
 <g id="Layer_x0020_1">
  <metadata id="CorelCorpID_0Corel-Layer"/>
  <g id="_2724831301424">
   <path class="fil0" d="M2022 711l-3 857c-674,-170 -742,154 -1384,13l0 584 -57 0c0,-429 1,-1025 2,-1455 694,176 745,-173 1442,1zm-1387 812l2 -741c316,68 496,26 676,-16 172,-40 345,-80 653,-10l-3 741c-316,-68 -496,-26 -677,16 -172,40 -344,80 -651,10z"/>
   <rect class="fil1" width="2600" height="2600"/>
  </g>
 </g>
</svg>
