<?xml version="1.0" encoding="UTF-8"?>
<!DOCTYPE svg PUBLIC "-//W3C//DTD SVG 1.1//EN" "http://www.w3.org/Graphics/SVG/1.1/DTD/svg11.dtd">
<!-- Creator: CorelDRAW X7 -->
<svg xmlns="http://www.w3.org/2000/svg" xml:space="preserve" width="100%" height="100%" version="1.1" style="shape-rendering:geometricPrecision; text-rendering:geometricPrecision; image-rendering:optimizeQuality; fill-rule:evenodd; clip-rule:evenodd"
viewBox="0 0 2600 2600"
 xmlns:xlink="http://www.w3.org/1999/xlink">
 <defs>
  <style type="text/css">
   <![CDATA[
    .fil0 {fill:none}
    .fil1 {fill:black}
   ]]>
  </style>
 </defs>
 <g id="Layer_x0020_1">
  <metadata id="CorelCorpID_0Corel-Layer"/>
  <g id="_2724836724688">
   <rect class="fil0" width="2600" height="2600"/>
   <path class="fil1" d="M2202 528l-4 1072c-848,-214 -928,197 -1745,12l0 692 -55 0c0,-536 0,-1239 2,-1777 867,219 931,-217 1802,1zm-1749 1027c394,91 613,40 832,-11 227,-53 454,-106 857,-16l3 -955c-395,-92 -614,-41 -833,10 -227,53 -454,106 -856,16l-3 956z"/>
  </g>
 </g>
</svg>
