<?xml version="1.0" encoding="UTF-8"?>
<!DOCTYPE svg PUBLIC "-//W3C//DTD SVG 1.1//EN" "http://www.w3.org/Graphics/SVG/1.1/DTD/svg11.dtd">
<!-- Creator: CorelDRAW X7 -->
<svg xmlns="http://www.w3.org/2000/svg" xml:space="preserve" width="100%" height="100%" version="1.1" style="shape-rendering:geometricPrecision; text-rendering:geometricPrecision; image-rendering:optimizeQuality; fill-rule:evenodd; clip-rule:evenodd"
viewBox="0 0 2600 2600"
 xmlns:xlink="http://www.w3.org/1999/xlink">
 <defs>
  <style type="text/css">
   <![CDATA[
    .fil0 {fill:none}
    .fil1 {fill:black}
   ]]>
  </style>
 </defs>
 <g id="Layer_x0020_1">
  <metadata id="CorelCorpID_0Corel-Layer"/>
  <g id="_2307278469600">
   <rect class="fil0" width="2600" height="2600"/>
   <g>
    <path class="fil1" d="M2022 857l0 0 5 8 0 1 5 7 0 1c73,125 115,270 115,426 0,127 -28,250 -81,362l0 0 -4 9 -1 0 -4 9 0 0 -5 9 0 0 0 1c-40,76 -91,146 -153,209 -40,40 -84,75 -129,106l-1 0 -8 6 0 0 -9 5 0 0c-134,85 -289,131 -452,131 -226,0 -439,-88 -599,-248 -112,-113 -189,-251 -225,-401l0 -1 0 -2 -2 -7 -1 -5 0 -1 -1 -3 0 0 -1 -6 -1 -3 -1 -6 -1 -3 0 -4 -1 -3 0 0 0 -3 -1 -3 0 0 0 -3 -1 -3 0 -4 -1 -6 -1 -3 -1 -6 0 -4c-1,-5 -2,-10 -2,-15l-1 -4 0 -3 -1 -6 0 -3 -1 -7 0 -3 0 -3 -1 -4 0 -3 -1 -9 0 -4 0 -6 0 0 0 -3 -1 -7 0 -3c0,-12 -1,-24 -1,-36 0,-127 28,-250 81,-362l0 0 5 -9 0 0 4 -9 0 0 5 -9 0 0 0 -1c40,-76 91,-146 153,-209 36,-36 75,-68 116,-96l4 -3 4 -3 4 -3 3 -2 1 -1 4 -2 2 -2 3 -1 5 -4 1 0 8 -5 1 -1c132,-81 284,-125 443,-125 9,0 19,1 28,1l0 -57c-9,0 -19,0 -28,0 -133,0 -261,28 -378,82l-5 3c-5,2 -10,5 -15,7l-5 3c-12,5 -24,12 -35,18l-5 3 -5 2 0 1 -5 2 -5 3 -5 3 -4 3 -1 0c-6,4 -12,8 -18,12l-2 1 -4 2 -5 3 0 1 -8 5 -2 1 -4 3 -4 3 -9 6 -1 1 -4 3 -5 3 -4 4 -5 3 -5 4 -4 3 0 1 -4 3 -1 0 -4 3 -4 3 -1 1 -4 4 0 0 -4 3 -1 0 -4 4 -4 4 -5 3 0 0 -3 3 -1 1 -4 4 -4 3 -1 1 -4 4 -3 2 -1 1 -5 4 0 1 -4 3 -4 4 -3 3 -1 1 -4 4 -3 3 -3 3 -3 2c-2,3 -5,6 -8,9l0 0 -7 8 0 0 -8 8 0 0 -8 8 0 0 0 1c-133,146 -213,330 -230,526l-1 12 0 0 0 11 0 0 -1 11 0 0 -1 11 0 0 0 11 0 1 0 11 0 0 0 11 0 0c0,7 0,13 0,20l0 3 0 0c0,11 1,21 1,32l1 1c1,22 3,45 6,67l0 0c2,11 3,22 5,33l0 1 2 9 0 1 0 0 0 0 2 9 0 2 0 0 2 10 0 1c2,5 3,10 4,15l0 0c37,163 120,313 241,435 83,82 179,147 284,192l0 0 9 4 1 0c44,18 89,33 135,44l0 0c7,1 14,3 22,5l0 0 10 2 1 0 10 2 0 0 1 0 10 2 0 0 1 0c11,2 21,3 32,5l0 0c8,1 15,2 22,3l1 0 10 1 1 0 10 1 1 0 9 0 2 1 0 0 10 0 1 0c11,1 22,2 33,2l0 0 2 0 9 0 1 0 11 0 0 0 0 0 11 0 0 0c4,0 8,0 12,0l0 0 11 -1 11 0 11 -1 0 0 11 0 0 0 12 -1 0 0 11 -1 0 0 11 -1 0 0 11 -2 0 0 11 -1 0 0 11 -2 0 0 11 -1 0 0 11 -2 0 0 11 -2 0 0 11 -2 0 0c3,-1 7,-2 10,-2l0 0 11 -3 0 0 11 -2 0 0c82,-20 161,-51 234,-92l0 0c55,-31 106,-68 154,-110l0 0c5,-5 11,-10 16,-15l0 0c8,-8 17,-15 25,-23l8 -9 0 0 7 -8 0 0 8 -8 0 0 8 -8 0 0 0 -1c133,-146 213,-330 230,-526l1 -12 0 0c0,-3 0,-7 0,-11l0 0 1 -11 0 0 1 -11 0 0 0 -11 0 0 0 -12 0 0 0 -11 0 0 0 -11 0 -1 0 -4 0 -9 0 -4 -1 -7 0 -6 0 -7 0 -5 -1 -8 0 -4 -1 -9 0 -2 0 -2 -1 -11 0 0c-1,-4 -1,-8 -2,-12l0 -3 -1 -10 0 -1c-17,-132 -62,-257 -133,-368l0 0 -5 -7 0 -1c-38,-57 -81,-110 -130,-157l235 0 0 -56 -310 0 -28 28 0 310 56 0 0 -249c6,6 12,11 18,17 47,48 88,100 123,156zm177 353c-1,-4 -1,-8 -2,-12l2 12zm-625 324l-246 -246 0 -552 -56 0 0 576 262 262 40 -40zm-1064 -262l113 0 0 56 -113 0 0 -56zm1467 0l113 0 0 56 -113 0 0 -56zm-705 705l56 0 0 113 -56 0 0 -113zm0 -1467l56 0 0 113 -56 0 0 -113z"/>
   </g>
  </g>
 </g>
</svg>
