<?xml version="1.0" encoding="UTF-8"?>
<!DOCTYPE svg PUBLIC "-//W3C//DTD SVG 1.1//EN" "http://www.w3.org/Graphics/SVG/1.1/DTD/svg11.dtd">
<!-- Creator: CorelDRAW X7 -->
<svg xmlns="http://www.w3.org/2000/svg" xml:space="preserve" width="1.02362in" height="1.02362in" version="1.1" style="shape-rendering:geometricPrecision; text-rendering:geometricPrecision; image-rendering:optimizeQuality; fill-rule:evenodd; clip-rule:evenodd"
viewBox="0 0 10236 10236"
 xmlns:xlink="http://www.w3.org/1999/xlink">
 <defs>
  <style type="text/css">
   <![CDATA[
    .fil1 {fill:none}
    .fil0 {fill:black}
   ]]>
  </style>
 </defs>
 <g id="Layer_x0020_1">
  <metadata id="CorelCorpID_0Corel-Layer"/>
  <g id="_2296477777456">
   <path class="fil0" d="M7339 6008l0 2445 -4886 0 0 -5110 1555 0 0 -1560 3331 0 0 2445 224 0 0 -2665c-1240,0 -2476,0 -3713,0l-1622 1622c0,1827 0,3658 0,5488l5335 0 0 -2665 -224 0zm-1288 -1000l3288 0 0 220 -3288 0 701 701 -177 158 -902 -890 0 -158 902 -889 169 157 -693 701zm-3445 -1890l1177 -1177 0 1177 -1177 0z"/>
   <rect class="fil1" width="10236" height="10236"/>
  </g>
 </g>
</svg>
