<?xml version="1.0" encoding="UTF-8"?>
<!DOCTYPE svg PUBLIC "-//W3C//DTD SVG 1.1//EN" "http://www.w3.org/Graphics/SVG/1.1/DTD/svg11.dtd">
<!-- Creator: CorelDRAW X7 -->
<svg xmlns="http://www.w3.org/2000/svg" xml:space="preserve" width="1.02362in" height="1.02362in" version="1.1" style="shape-rendering:geometricPrecision; text-rendering:geometricPrecision; image-rendering:optimizeQuality; fill-rule:evenodd; clip-rule:evenodd"
viewBox="0 0 10236 10236"
 xmlns:xlink="http://www.w3.org/1999/xlink">
 <defs>
  <style type="text/css">
   <![CDATA[
    .fil1 {fill:none}
    .fil0 {fill:black;fill-rule:nonzero}
   ]]>
  </style>
 </defs>
 <g id="Layer_x0020_1">
  <metadata id="CorelCorpID_0Corel-Layer"/>
  <g id="_2320954089600">
   <path class="fil0" d="M8142 5264c-249,30 -459,149 -590,368 -111,185 -133,404 -149,614 -16,223 -17,445 -17,668 3,450 43,1242 -484,1461 -220,92 -511,77 -750,77l0 222c276,0 577,14 835,-94 639,-266 624,-1087 621,-1667 -1,-217 1,-434 17,-651 12,-169 28,-367 117,-516 147,-245 366,-264 622,-271l0 -714c-256,-7 -475,-26 -622,-271 -89,-148 -105,-347 -117,-516 -16,-217 -18,-433 -17,-651 3,-580 18,-1401 -621,-1667 -258,-108 -559,-94 -835,-94l0 222c239,0 530,-15 750,77 527,220 487,1011 484,1462 0,222 1,445 17,667 16,210 38,429 149,614 131,219 341,338 590,368l0 292zm-6047 0c248,30 458,149 590,368 110,185 133,404 148,614 16,223 17,445 17,668 -3,450 -42,1242 484,1461 220,92 511,77 750,77l0 222c-276,0 -577,14 -835,-94 -639,-266 -624,-1087 -621,-1667 1,-217 -1,-434 -17,-651 -12,-169 -28,-367 -117,-516 -147,-245 -365,-264 -622,-271l0 -714c257,-7 475,-26 622,-271 89,-148 105,-347 117,-516 16,-217 18,-433 17,-651 -3,-580 -18,-1401 621,-1667 258,-108 559,-94 835,-94l0 222c-239,0 -530,-15 -750,77 -526,220 -487,1011 -484,1462 0,222 -1,445 -17,667 -15,210 -38,429 -148,614 -132,219 -342,338 -590,368l0 292zm2912 -2482l222 0 0 890 -222 0 0 -890zm0 1558l222 0 0 3114 -222 0 0 -3114z"/>
   <rect class="fil1" width="10236" height="10236"/>
  </g>
 </g>
</svg>
