<?xml version="1.0" encoding="UTF-8"?>
<!DOCTYPE svg PUBLIC "-//W3C//DTD SVG 1.1//EN" "http://www.w3.org/Graphics/SVG/1.1/DTD/svg11.dtd">
<!-- Creator: CorelDRAW X7 -->
<svg xmlns="http://www.w3.org/2000/svg" xml:space="preserve" width="100%" height="100%" version="1.1" style="shape-rendering:geometricPrecision; text-rendering:geometricPrecision; image-rendering:optimizeQuality; fill-rule:evenodd; clip-rule:evenodd"
viewBox="0 0 26000 26000"
 xmlns:xlink="http://www.w3.org/1999/xlink">
 <defs>
  <style type="text/css">
   <![CDATA[
    .fil1 {fill:none}
    .fil0 {fill:black}
   ]]>
  </style>
 </defs>
 <g id="Layer_x0020_1">
  <metadata id="CorelCorpID_0Corel-Layer"/>
  <g id="_2503681671856">
   <path class="fil0" d="M15508 12999c0,-787 320,-1500 836,-2016 517,-517 1231,-837 2019,-837 787,0 1501,320 2018,837 517,516 837,1229 837,2016 0,787 -321,1501 -837,2018 -517,517 -1231,837 -2018,837 -787,0 -1501,-320 -2018,-837 -517,-517 -837,-1231 -837,-2018zm-1029 -531l-10760 0 0 1064 1411 0 0 2539 1066 0 0 -2539 1191 0 0 1411 1065 0 0 -1411 6027 0c118,868 522,1647 1113,2238 710,709 1690,1149 2771,1149 1079,0 2059,-440 2769,-1150 709,-710 1149,-1690 1149,-2770 0,-1080 -440,-2060 -1149,-2769 -709,-710 -1689,-1149 -2769,-1149 -1080,0 -2060,440 -2770,1149 -592,591 -996,1370 -1114,2238z"/>
   <rect class="fil1" width="26000" height="26000"/>
  </g>
 </g>
</svg>
