<?xml version="1.0" encoding="UTF-8"?>
<!DOCTYPE svg PUBLIC "-//W3C//DTD SVG 1.1//EN" "http://www.w3.org/Graphics/SVG/1.1/DTD/svg11.dtd">
<!-- Creator: CorelDRAW X7 -->
<svg xmlns="http://www.w3.org/2000/svg" xml:space="preserve" width="1.02362in" height="1.02362in" version="1.1" style="shape-rendering:geometricPrecision; text-rendering:geometricPrecision; image-rendering:optimizeQuality; fill-rule:evenodd; clip-rule:evenodd"
viewBox="0 0 10236 10236"
 xmlns:xlink="http://www.w3.org/1999/xlink">
 <defs>
  <style type="text/css">
   <![CDATA[
    .fil0 {fill:none}
    .fil1 {fill:black}
   ]]>
  </style>
 </defs>
 <g id="Layer_x0020_1">
  <metadata id="CorelCorpID_0Corel-Layer"/>
  <g id="_2382393380320">
   <polygon class="fil0" points="0,0 10236,0 10236,10236 0,10236 "/>
   <path class="fil1" d="M5723 3482c0,-333 -272,-605 -605,-605 -333,0 -604,272 -604,605 0,332 271,604 604,604 333,0 605,-272 605,-604zm2652 5080l-6513 0 1100 -1999 755 0 -130 -223 -757 0 -1344 2445 7264 0 -1344 -2445 -756 0 -131 223 756 0 1100 1999zm-1592 -2941c307,-621 531,-1263 529,-1807 -3,-648 -247,-1237 -640,-1663 -398,-432 -948,-700 -1554,-700 -608,0 -1159,268 -1557,700 -393,427 -637,1015 -637,1663 0,542 225,1184 531,1806 493,1002 1197,1959 1484,2332l175 228 176 -228c289,-373 999,-1331 1493,-2331zm308 -1806c5,1340 -1520,3412 -1976,4002 -454,-591 -1969,-2662 -1969,-4003 0,-1181 885,-2140 1972,-2140 1083,0 1968,959 1973,2141zm-1591 -333c0,211 -171,381 -382,381 -211,0 -381,-171 -381,-381 0,-211 170,-383 381,-383 211,0 382,171 382,383z"/>
  </g>
 </g>
</svg>
