<?xml version="1.0" encoding="UTF-8"?>
<!DOCTYPE svg PUBLIC "-//W3C//DTD SVG 1.1//EN" "http://www.w3.org/Graphics/SVG/1.1/DTD/svg11.dtd">
<!-- Creator: CorelDRAW X7 -->
<svg xmlns="http://www.w3.org/2000/svg" xml:space="preserve" width="1.02362in" height="1.02362in" version="1.1" style="shape-rendering:geometricPrecision; text-rendering:geometricPrecision; image-rendering:optimizeQuality; fill-rule:evenodd; clip-rule:evenodd"
viewBox="0 0 10236 10236"
 xmlns:xlink="http://www.w3.org/1999/xlink">
 <defs>
  <style type="text/css">
   <![CDATA[
    .fil0 {fill:none}
    .fil1 {fill:black}
   ]]>
  </style>
 </defs>
 <g id="Layer_x0020_1">
  <metadata id="CorelCorpID_0Corel-Layer"/>
  <g id="_2382381013600">
   <polygon class="fil0" points="0,0 10236,0 10236,10236 0,10236 "/>
   <path class="fil1" d="M3655 1452c606,0 1155,268 1554,700 392,426 637,1014 640,1663 2,544 -223,1186 -529,1807 -494,1000 -1204,1958 -1493,2331l-176 228 -175 -228c-287,-373 -992,-1330 -1485,-2332 -305,-622 -530,-1264 -530,-1806 0,-648 243,-1236 637,-1663 398,-432 948,-700 1557,-700zm-1023 5708c-46,-70 -93,-140 -137,-210l-1009 1834 7263 0 -1343 -2443 -343 0c-52,74 -105,148 -159,221l371 0 1100 2000 -6513 0 770 -1402zm3749 -4781c410,0 782,181 1051,473 263,286 428,680 429,1114 2,362 -145,783 -345,1189 -318,644 -775,1261 -961,1501l-176 227 -175 -227c-133,-173 -405,-541 -666,-974 38,-79 77,-160 114,-244 275,478 584,896 727,1082 292,-376 1264,-1698 1261,-2553 -3,-753 -568,-1365 -1259,-1365 -191,0 -372,46 -535,130 -30,-68 -62,-135 -97,-201 192,-97 406,-152 632,-152zm-3330 1103c0,-332 271,-604 604,-604 332,0 605,272 605,604 0,333 -273,604 -605,604 -333,0 -604,-271 -604,-604zm222 0c0,211 171,382 382,382 211,0 382,-170 382,-382 0,-211 -171,-382 -382,-382 -212,0 -382,171 -382,382zm2683 273c0,-234 191,-426 425,-426 235,0 427,191 427,426 0,234 -192,425 -427,425 -234,0 -425,-191 -425,-425zm222 0c0,112 91,203 203,203 113,0 204,-91 204,-203 0,-113 -91,-204 -204,-204 -112,0 -203,91 -203,204zm-2523 -2080c1082,0 1967,959 1972,2140 6,1341 -1519,3413 -1975,4003 -455,-591 -1969,-2662 -1969,-4003 0,-1181 884,-2140 1972,-2140z"/>
  </g>
 </g>
</svg>
