<?xml version="1.0" encoding="UTF-8"?>
<!DOCTYPE svg PUBLIC "-//W3C//DTD SVG 1.1//EN" "http://www.w3.org/Graphics/SVG/1.1/DTD/svg11.dtd">
<!-- Creator: CorelDRAW X7 -->
<svg xmlns="http://www.w3.org/2000/svg" xml:space="preserve" width="1.02362in" height="1.02362in" version="1.1" style="shape-rendering:geometricPrecision; text-rendering:geometricPrecision; image-rendering:optimizeQuality; fill-rule:evenodd; clip-rule:evenodd"
viewBox="0 0 10236 10236"
 xmlns:xlink="http://www.w3.org/1999/xlink">
 <defs>
  <style type="text/css">
   <![CDATA[
    .fil0 {fill:none}
    .fil1 {fill:black}
   ]]>
  </style>
 </defs>
 <g id="Layer_x0020_1">
  <metadata id="CorelCorpID_0Corel-Layer"/>
  <g id="_2382494270160">
   <polygon class="fil0" points="0,0 10236,0 10236,10236 0,10236 "/>
   <path class="fil1" d="M5118 2498c-457,0 -827,370 -827,827 0,456 370,826 827,826 457,0 827,-370 827,-826 0,-457 -370,-827 -827,-827zm2157 3463l1100 2000 -6513 0 1100 -2000 1822 0 0 860 668 0 0 -860 1823 0zm-2491 -223l-1954 0 -1344 2445 7264 0 -1344 -2445 -1954 0 0 -1186c540,-147 938,-583 938,-1227 0,-645 -570,-1272 -1272,-1272 -702,0 -1272,627 -1272,1272 0,644 398,1080 938,1227l0 1186zm445 860l-222 0 0 -2007c74,7 148,7 222,0l0 2007zm-1160 -3273c0,-580 470,-1050 1049,-1050 579,0 1049,470 1049,1050 0,579 -470,1049 -1049,1049 -579,0 -1049,-470 -1049,-1049zm445 0c0,-334 270,-605 604,-605 334,0 604,271 604,605 0,333 -270,604 -604,604 -334,0 -604,-271 -604,-604z"/>
  </g>
 </g>
</svg>
