<?xml version="1.0" encoding="UTF-8"?>
<!DOCTYPE svg PUBLIC "-//W3C//DTD SVG 1.1//EN" "http://www.w3.org/Graphics/SVG/1.1/DTD/svg11.dtd">
<!-- Creator: CorelDRAW X7 -->
<svg xmlns="http://www.w3.org/2000/svg" xml:space="preserve" width="1.02362in" height="1.02362in" version="1.1" style="shape-rendering:geometricPrecision; text-rendering:geometricPrecision; image-rendering:optimizeQuality; fill-rule:evenodd; clip-rule:evenodd"
viewBox="0 0 10236 10236"
 xmlns:xlink="http://www.w3.org/1999/xlink">
 <defs>
  <style type="text/css">
   <![CDATA[
    .fil0 {fill:none}
    .fil1 {fill:black}
   ]]>
  </style>
 </defs>
 <g id="Layer_x0020_1">
  <metadata id="CorelCorpID_0Corel-Layer"/>
  <g id="_2382494272016">
   <polygon class="fil0" points="0,0 10236,0 10236,10236 0,10236 "/>
   <path class="fil1" d="M3989 4383c527,-56 938,-483 938,-1043 0,-570 -479,-1049 -1049,-1049 -583,0 -1049,472 -1049,1049 0,541 410,987 937,1043l0 2563 223 0 0 -2563zm214 1121l0 222 1824 0 0 -222 -1824 0zm4172 2219l-6513 0 1100 -1999 582 0 0 -223 -714 0 -1344 2445 7264 0 -1344 -2445 -704 0 0 223 573 0 1100 1999zm-1567 -3716c0,-243 -196,-439 -439,-439 -243,0 -439,196 -439,439 0,242 196,439 439,439 242,0 439,-197 439,-439zm-551 652l0 1397 223 0 0 -1397c312,-53 550,-325 550,-652 0,-365 -296,-661 -661,-661 -366,0 -662,296 -662,661 0,327 238,599 550,652zm-2379 -493c-457,0 -827,-370 -827,-826 0,-457 370,-827 827,-827 456,0 826,370 826,827 0,456 -370,826 -826,826z"/>
  </g>
 </g>
</svg>
