<?xml version="1.0" encoding="UTF-8"?>
<!DOCTYPE svg PUBLIC "-//W3C//DTD SVG 1.1//EN" "http://www.w3.org/Graphics/SVG/1.1/DTD/svg11.dtd">
<!-- Creator: CorelDRAW X7 -->
<svg xmlns="http://www.w3.org/2000/svg" xml:space="preserve" width="1.02362in" height="1.02362in" version="1.1" style="shape-rendering:geometricPrecision; text-rendering:geometricPrecision; image-rendering:optimizeQuality; fill-rule:evenodd; clip-rule:evenodd"
viewBox="0 0 10236 10236"
 xmlns:xlink="http://www.w3.org/1999/xlink">
 <defs>
  <style type="text/css">
   <![CDATA[
    .fil0 {fill:none}
    .fil1 {fill:black}
   ]]>
  </style>
 </defs>
 <g id="Layer_x0020_1">
  <metadata id="CorelCorpID_0Corel-Layer"/>
  <g id="_2382416704656">
   <polygon class="fil0" points="0,0 10236,0 10236,10236 0,10236 "/>
   <path class="fil1" d="M4069 3340c0,541 411,987 938,1043l0 2340 222 0 0 -2340c527,-56 938,-483 938,-1043 0,-561 -469,-1049 -1049,-1049 -579,0 -1049,469 -1049,1049zm715 2161l-1954 0 -1344 2445 7264 0 -1344 -2445 -1954 0 0 223 1823 0 1100 1999 -6513 0 1100 -1999 1822 0 0 -223zm334 -1335c-456,0 -827,-370 -827,-826 0,-457 371,-827 827,-827 457,0 827,370 827,827 0,456 -370,826 -827,826z"/>
  </g>
 </g>
</svg>
