<?xml version="1.0" encoding="UTF-8"?>
<!DOCTYPE svg PUBLIC "-//W3C//DTD SVG 1.1//EN" "http://www.w3.org/Graphics/SVG/1.1/DTD/svg11.dtd">
<!-- Creator: CorelDRAW X7 -->
<svg xmlns="http://www.w3.org/2000/svg" xml:space="preserve" width="100%" height="100%" version="1.1" style="shape-rendering:geometricPrecision; text-rendering:geometricPrecision; image-rendering:optimizeQuality; fill-rule:evenodd; clip-rule:evenodd"
viewBox="0 0 2600 2600"
 xmlns:xlink="http://www.w3.org/1999/xlink">
 <defs>
  <style type="text/css">
   <![CDATA[
    .fil1 {fill:none}
    .fil0 {fill:black}
   ]]>
  </style>
 </defs>
 <g id="Layer_x0020_1">
  <metadata id="CorelCorpID_0Corel-Layer"/>
  <path class="fil0" d="M1413 623l254 0 0 56 -254 0 0 -56zm508 -226l-1242 0 0 597 -282 118 0 1091 1806 0 0 -1091 -282 -118 0 -597zm-56 56l0 839 -565 354 -564 -354 0 -839 1129 0zm-1186 804l-193 -121 193 -81 0 202zm-226 890l0 -965 847 531 847 -531 0 965 -1694 0zm1661 -1011l-193 121 0 -202 193 81zm-1181 -62l734 0 0 57 -734 0 0 -57zm0 -225l734 0 0 56 -734 0 0 -56z"/>
  <rect class="fil1" width="2600" height="2600"/>
 </g>
</svg>
