<?xml version="1.0" encoding="UTF-8"?>
<!DOCTYPE svg PUBLIC "-//W3C//DTD SVG 1.1//EN" "http://www.w3.org/Graphics/SVG/1.1/DTD/svg11.dtd">
<!-- Creator: CorelDRAW X7 -->
<svg xmlns="http://www.w3.org/2000/svg" xml:space="preserve" width="1.02362in" height="1.02362in" version="1.1" style="shape-rendering:geometricPrecision; text-rendering:geometricPrecision; image-rendering:optimizeQuality; fill-rule:evenodd; clip-rule:evenodd"
viewBox="0 0 10236 10236"
 xmlns:xlink="http://www.w3.org/1999/xlink">
 <defs>
  <style type="text/css">
   <![CDATA[
    .fil0 {fill:none}
    .fil1 {fill:black}
   ]]>
  </style>
 </defs>
 <g id="Layer_x0020_1">
  <metadata id="CorelCorpID_0Corel-Layer"/>
  <g id="_2846565906192">
   <rect class="fil0" width="10236" height="10236"/>
   <path class="fil1" d="M8412 3396l-516 3095 0 -2428 -3318 0 -789 -778 -1362 0 111 -667 1938 0 788 778 3148 0zm-4714 111l789 778 3187 0 0 3333 -5889 0 0 -4111c638,0 1275,0 1913,0zm-2135 -222l0 4555 6333 0 778 -4666 -3318 0 -789 -778 -2217 0 -148 889 -639 0z"/>
   <polygon class="fil1" points="3730,5841 3730,6063 4618,6063 4618,6951 4841,6951 4841,6063 5729,6063 5729,5841 4841,5841 4841,4952 4618,4952 4618,5841 "/>
  </g>
 </g>
</svg>
