<?xml version="1.0" encoding="UTF-8"?>
<!DOCTYPE svg PUBLIC "-//W3C//DTD SVG 1.1//EN" "http://www.w3.org/Graphics/SVG/1.1/DTD/svg11.dtd">
<!-- Creator: CorelDRAW X7 -->
<svg xmlns="http://www.w3.org/2000/svg" xml:space="preserve" width="1.02362in" height="1.02362in" version="1.1" style="shape-rendering:geometricPrecision; text-rendering:geometricPrecision; image-rendering:optimizeQuality; fill-rule:evenodd; clip-rule:evenodd"
viewBox="0 0 10236 10236"
 xmlns:xlink="http://www.w3.org/1999/xlink">
 <defs>
  <style type="text/css">
   <![CDATA[
    .fil0 {fill:none}
    .fil1 {fill:black}
   ]]>
  </style>
 </defs>
 <g id="Layer_x0020_1">
  <metadata id="CorelCorpID_0Corel-Layer"/>
  <g id="_2382577301696">
   <rect class="fil0" width="10236" height="10236"/>
   <path class="fil1" d="M7340 3896c0,-17 -21,-1559 -1667,-1844l0 -489 -1110 0 0 489c-1647,285 -1667,1827 -1667,1844l0 278 0 3611 -333 0 0 222c1703,0 3407,0 5110,0l0 -222 -333 0 0 -3889zm-2333 4333l222 0 0 890 -222 0 0 -890zm444 -6206c-220,-21 -446,-21 -666,0l0 -238 666 0 0 238zm-2333 5762l0 -3889c0,-68 22,-1666 2000,-1666 1971,0 2000,1598 2000,1666l0 3889c-1334,0 -2666,0 -4000,0z"/>
  </g>
 </g>
</svg>
