<?xml version="1.0" encoding="UTF-8"?>
<!DOCTYPE svg PUBLIC "-//W3C//DTD SVG 1.1//EN" "http://www.w3.org/Graphics/SVG/1.1/DTD/svg11.dtd">
<!-- Creator: CorelDRAW X7 -->
<svg xmlns="http://www.w3.org/2000/svg" xml:space="preserve" width="100%" height="100%" version="1.1" style="shape-rendering:geometricPrecision; text-rendering:geometricPrecision; image-rendering:optimizeQuality; fill-rule:evenodd; clip-rule:evenodd"
viewBox="0 0 2600 2600"
 xmlns:xlink="http://www.w3.org/1999/xlink">
 <defs>
  <style type="text/css">
   <![CDATA[
    .fil0 {fill:none}
    .fil1 {fill:black}
   ]]>
  </style>
 </defs>
 <g id="Layer_x0020_1">
  <metadata id="CorelCorpID_0Corel-Layer"/>
  <g id="_2307334207904">
   <rect class="fil0" width="2600" height="2600"/>
   <path class="fil1" d="M1300 2203c241,0 468,-94 639,-265 170,-170 264,-397 264,-638 0,-241 -94,-468 -264,-639 -171,-170 -398,-264 -639,-264 -241,0 -468,94 -638,264 -171,171 -265,398 -265,639 0,241 94,468 265,638 170,171 397,265 638,265zm-384 -489l768 0c-29,-71 -29,-150 -29,-223 1,-100 0,-202 0,-302 0,-98 -40,-187 -104,-252 -64,-64 -153,-104 -251,-104 -98,0 -187,40 -251,104 -64,65 -104,154 -104,252 0,100 -1,202 0,302 0,73 0,152 -29,223zm356 56l0 112 56 0 0 -112 462 0c-85,-76 -79,-195 -79,-297l0 -284c0,-207 -153,-378 -351,-407l0 -64 -120 0 0 64c-198,29 -351,200 -351,407l0 284c0,102 6,221 -79,297l462 0zm-571 -1069c160,-160 373,-248 599,-248 226,0 439,88 599,248 160,160 248,373 248,599 0,226 -88,439 -248,599 -160,159 -373,248 -599,248 -226,0 -439,-89 -599,-248 -159,-160 -247,-373 -247,-599 0,-226 88,-439 247,-599z"/>
  </g>
 </g>
</svg>
