<?xml version="1.0" encoding="UTF-8"?>
<!DOCTYPE svg PUBLIC "-//W3C//DTD SVG 1.1//EN" "http://www.w3.org/Graphics/SVG/1.1/DTD/svg11.dtd">
<!-- Creator: CorelDRAW X7 -->
<svg xmlns="http://www.w3.org/2000/svg" xml:space="preserve" width="100%" height="100%" version="1.1" style="shape-rendering:geometricPrecision; text-rendering:geometricPrecision; image-rendering:optimizeQuality; fill-rule:evenodd; clip-rule:evenodd"
viewBox="0 0 2600 2600"
 xmlns:xlink="http://www.w3.org/1999/xlink">
 <defs>
  <style type="text/css">
   <![CDATA[
    .fil0 {fill:none}
    .fil1 {fill:black}
   ]]>
  </style>
 </defs>
 <g id="Layer_x0020_1">
  <metadata id="CorelCorpID_0Corel-Layer"/>
  <g id="_2724844960832">
   <rect class="fil0" width="2600" height="2600"/>
   <path class="fil1" d="M2203 707l-623 0c-11,-66 -58,-225 -280,-225 -222,0 -269,159 -280,225l-623 0 0 1186 1806 0 0 -1186zm-903 -169c173,0 213,115 223,169l-446 0c9,-54 49,-169 223,-169zm847 226l0 395 -1694 0 0 -395 1694 0zm-960 451l226 0 0 113 -226 0 0 -113zm-734 621l0 -621 678 0 0 169 338 0 0 -169 678 0 0 621 -1694 0z"/>
  </g>
 </g>
</svg>
