<?xml version="1.0" encoding="UTF-8"?>
<!DOCTYPE svg PUBLIC "-//W3C//DTD SVG 1.1//EN" "http://www.w3.org/Graphics/SVG/1.1/DTD/svg11.dtd">
<!-- Creator: CorelDRAW X7 -->
<svg xmlns="http://www.w3.org/2000/svg" xml:space="preserve" width="100%" height="100%" version="1.1" style="shape-rendering:geometricPrecision; text-rendering:geometricPrecision; image-rendering:optimizeQuality; fill-rule:evenodd; clip-rule:evenodd"
viewBox="0 0 2600 2600"
 xmlns:xlink="http://www.w3.org/1999/xlink">
 <defs>
  <style type="text/css">
   <![CDATA[
    .fil0 {fill:none}
    .fil1 {fill:black}
   ]]>
  </style>
 </defs>
 <g id="Layer_x0020_1">
  <metadata id="CorelCorpID_0Corel-Layer"/>
  <g id="_2724751416176">
   <rect class="fil0" width="2600" height="2600"/>
   <path class="fil1" d="M1667 805l-355 -355 -859 0 0 1693 1214 0 0 -1338zm-988 887l762 0 0 56 -762 0 0 -56zm0 -226l762 0 0 56 -762 0 0 -56zm0 -226l762 0 0 57 -762 0 0 -57zm0 -226l762 0 0 57 -762 0 0 -57zm0 -282l339 0 0 57 -339 0 0 -57zm1468 -282l-283 0 0 1474 141 282 142 -282 0 -1474zm-57 57l0 169 -169 0 0 -169 169 0zm-85 1573l-84 -169 0 -1179 169 0 0 1179 -85 169zm-677 -1534l243 243 -243 0 0 -243zm-818 1541l0 -1581 762 0 0 339 339 0 0 1242 -1101 0z"/>
  </g>
 </g>
</svg>
