<?xml version="1.0" encoding="UTF-8"?>
<!DOCTYPE svg PUBLIC "-//W3C//DTD SVG 1.1//EN" "http://www.w3.org/Graphics/SVG/1.1/DTD/svg11.dtd">
<!-- Creator: CorelDRAW X7 -->
<svg xmlns="http://www.w3.org/2000/svg" xml:space="preserve" width="100%" height="100%" version="1.1" style="shape-rendering:geometricPrecision; text-rendering:geometricPrecision; image-rendering:optimizeQuality; fill-rule:evenodd; clip-rule:evenodd"
viewBox="0 0 26000 26000"
 xmlns:xlink="http://www.w3.org/1999/xlink">
 <defs>
  <style type="text/css">
   <![CDATA[
    .fil0 {fill:none}
    .fil1 {fill:black}
   ]]>
  </style>
 </defs>
 <g id="Layer_x0020_1">
  <metadata id="CorelCorpID_0Corel-Layer"/>
  <g id="_1917744292944">
   <rect class="fil0" width="26000" height="26000"/>
   <path class="fil1" d="M6760 13814l12480 0 0 7404 -12480 0 0 -7404zm5819 3841c-108,-108 -175,-257 -175,-421 0,-165 67,-315 175,-423 107,-108 256,-175 421,-175 165,0 314,67 421,175 108,108 175,258 175,423 0,164 -67,313 -175,422 -107,108 -256,174 -421,174 -165,0 -314,-66 -421,-175zm421 -2082c-458,0 -873,186 -1174,487 -301,300 -487,716 -487,1174 0,396 140,762 374,1048 195,239 456,423 755,524l0 1500 1065 0 0 -1500c298,-101 559,-285 754,-524 234,-286 374,-652 374,-1048 0,-458 -186,-874 -488,-1174 -300,-301 -715,-487 -1173,-487zm7306 -2822l-11289 0 0 -3983c0,-1099 447,-2094 1168,-2816 721,-721 1717,-1168 2815,-1168 1098,0 2094,447 2815,1168 722,722 1168,1717 1168,2816l0 1096 1065 0 0 -1096c0,-1392 -566,-2655 -1480,-3569 -914,-914 -2176,-1480 -3568,-1480 -1392,0 -2654,566 -3568,1480 -914,914 -1480,2177 -1480,3569l0 3983 -2257 0 0 9530 14611 0 0 -9530z"/>
  </g>
 </g>
</svg>
