<?xml version="1.0" encoding="UTF-8"?>
<!DOCTYPE svg PUBLIC "-//W3C//DTD SVG 1.1//EN" "http://www.w3.org/Graphics/SVG/1.1/DTD/svg11.dtd">
<!-- Creator: CorelDRAW X7 -->
<svg xmlns="http://www.w3.org/2000/svg" xml:space="preserve" width="100%" height="100%" version="1.1" style="shape-rendering:geometricPrecision; text-rendering:geometricPrecision; image-rendering:optimizeQuality; fill-rule:evenodd; clip-rule:evenodd"
viewBox="0 0 2600 2600"
 xmlns:xlink="http://www.w3.org/1999/xlink">
 <defs>
  <style type="text/css">
   <![CDATA[
    .fil0 {fill:none}
    .fil1 {fill:black}
   ]]>
  </style>
 </defs>
 <g id="Layer_x0020_1">
  <metadata id="CorelCorpID_0Corel-Layer"/>
  <g id="_2724846468592">
   <rect class="fil0" width="2600" height="2600"/>
   <path class="fil1" d="M623 809l0 1394 1354 0 0 -1806 -943 0 -411 412zm888 693l0 -404 224 0 0 47 -180 0 0 126 156 0 0 48 -156 0 0 183 -44 0zm-338 0l0 -404 115 0c28,0 49,2 64,7 19,7 36,19 50,36 14,17 25,38 33,64 8,26 12,57 12,93 0,46 -7,84 -20,116 -13,32 -31,55 -52,68 -21,13 -48,20 -82,20l-120 0zm44 -47l71 0c28,0 50,-5 64,-14 15,-10 26,-25 34,-45 11,-28 16,-60 16,-99 0,-41 -6,-73 -17,-97 -11,-23 -25,-39 -43,-47 -11,-5 -30,-8 -55,-8l-70 0 0 310zm-352 47l0 -404 125 0c30,0 51,2 65,8 19,7 35,19 46,38 11,19 17,43 17,70 0,36 -9,66 -28,89 -18,23 -50,34 -96,34l-85 0 0 165 -44 0zm44 -212l86 0c27,0 47,-6 59,-18 13,-13 19,-31 19,-56 0,-16 -3,-29 -9,-41 -7,-11 -14,-19 -23,-23 -8,-5 -24,-7 -47,-7l-85 0 0 145zm109 -797l0 299 -299 0 299 -299zm903 1654l-1242 0 0 -1298 395 0 0 -396 847 0 0 1694z"/>
  </g>
 </g>
</svg>
