<?xml version="1.0" encoding="UTF-8"?>
<!DOCTYPE svg PUBLIC "-//W3C//DTD SVG 1.1//EN" "http://www.w3.org/Graphics/SVG/1.1/DTD/svg11.dtd">
<!-- Creator: CorelDRAW X7 -->
<svg xmlns="http://www.w3.org/2000/svg" xml:space="preserve" width="100%" height="100%" version="1.1" style="shape-rendering:geometricPrecision; text-rendering:geometricPrecision; image-rendering:optimizeQuality; fill-rule:evenodd; clip-rule:evenodd"
viewBox="0 0 2600 2600"
 xmlns:xlink="http://www.w3.org/1999/xlink">
 <defs>
  <style type="text/css">
   <![CDATA[
    .fil0 {fill:none}
    .fil1 {fill:black}
   ]]>
  </style>
 </defs>
 <g id="Layer_x0020_1">
  <metadata id="CorelCorpID_0Corel-Layer"/>
  <g id="_2724846466384">
   <rect class="fil0" width="2600" height="2600"/>
   <path class="fil1" d="M623 809l0 1394 1354 0 0 -1806 -943 0 -411 412zm884 693l0 -404 227 0 0 68 -161 0 0 96 139 0 0 68 -139 0 0 172 -66 0zm-335 -404l122 0c30,0 54,3 70,10 15,7 30,19 43,35 13,16 23,38 31,64 8,26 11,58 11,97 0,35 -4,65 -12,91 -7,26 -17,46 -30,62 -12,15 -26,26 -43,34 -18,7 -40,11 -67,11l-125 0 0 -404zm66 68l0 268 50 0c22,0 38,-2 47,-6 10,-4 18,-10 24,-19 6,-8 11,-21 15,-38 4,-18 6,-41 6,-70 0,-30 -2,-54 -6,-71 -4,-17 -10,-31 -19,-41 -9,-10 -20,-16 -32,-19 -9,-3 -28,-4 -54,-4l-31 0zm-374 336l0 -404 107 0c40,0 66,2 79,6 19,6 36,19 48,40 13,20 20,46 20,79 0,29 -6,53 -17,73 -11,20 -25,34 -41,42 -17,8 -46,12 -86,12l-44 0 0 152 -66 0zm66 -336l0 115 37 0c25,0 42,-1 51,-5 9,-3 16,-10 22,-19 6,-9 9,-20 9,-33 0,-14 -3,-25 -9,-35 -6,-9 -13,-15 -22,-18 -9,-3 -27,-5 -55,-5l-33 0zm88 -673l0 299 -299 0 299 -299zm903 1654l-1242 0 0 -1298 395 0 0 -396 847 0 0 1694z"/>
  </g>
 </g>
</svg>
