<?xml version="1.0" encoding="UTF-8"?>
<!DOCTYPE svg PUBLIC "-//W3C//DTD SVG 1.1//EN" "http://www.w3.org/Graphics/SVG/1.1/DTD/svg11.dtd">
<!-- Creator: CorelDRAW X7 -->
<svg xmlns="http://www.w3.org/2000/svg" xml:space="preserve" width="1.02362in" height="1.02362in" version="1.1" style="shape-rendering:geometricPrecision; text-rendering:geometricPrecision; image-rendering:optimizeQuality; fill-rule:evenodd; clip-rule:evenodd"
viewBox="0 0 10236 10236"
 xmlns:xlink="http://www.w3.org/1999/xlink">
 <defs>
  <style type="text/css">
   <![CDATA[
    .fil0 {fill:none}
    .fil1 {fill:black}
   ]]>
  </style>
 </defs>
 <g id="Layer_x0020_1">
  <metadata id="CorelCorpID_0Corel-Layer"/>
  <g id="_2296479595744">
   <rect class="fil0" width="10236" height="10236"/>
   <path class="fil1" d="M6563 1563l0 222 1731 0 -2071 2071c-495,-457 -1157,-738 -1883,-738 -1531,0 -2777,1246 -2777,2778 0,1531 1246,2778 2777,2778 1532,0 2778,-1247 2778,-2778 0,-726 -280,-1387 -738,-1883l2072 -2071 0 1732 222 0 0 -2000 -112 -111 -1999 0zm-2223 6889c-1409,0 -2555,-1147 -2555,-2556 0,-1409 1146,-2555 2555,-2555 1409,0 2556,1146 2556,2555 0,1409 -1147,2556 -2556,2556z"/>
  </g>
 </g>
</svg>
