<?xml version="1.0" encoding="UTF-8"?>
<!DOCTYPE svg PUBLIC "-//W3C//DTD SVG 1.1//EN" "http://www.w3.org/Graphics/SVG/1.1/DTD/svg11.dtd">
<!-- Creator: CorelDRAW X7 -->
<svg xmlns="http://www.w3.org/2000/svg" xml:space="preserve" width="1.02362in" height="1.02362in" version="1.1" style="shape-rendering:geometricPrecision; text-rendering:geometricPrecision; image-rendering:optimizeQuality; fill-rule:evenodd; clip-rule:evenodd"
viewBox="0 0 10236 10236"
 xmlns:xlink="http://www.w3.org/1999/xlink">
 <defs>
  <style type="text/css">
   <![CDATA[
    .fil1 {fill:none}
    .fil0 {fill:black}
   ]]>
  </style>
 </defs>
 <g id="Layer_x0020_1">
  <metadata id="CorelCorpID_0Corel-Layer"/>
  <g id="_2296485254880">
   <path class="fil0" d="M4357 8657c1531,0 2777,-1246 2777,-2777 0,-726 -280,-1388 -737,-1883l1237 -1238 866 866 157 -158 -866 -865 866 -866 -157 -157 -866 866 -866 -866 -157 157 866 866 -1238 1238c-495,-458 -1156,-738 -1882,-738 -1532,0 -2778,1246 -2778,2778 0,1531 1246,2777 2778,2777zm0 -5333c1409,0 2555,1147 2555,2556 0,1408 -1146,2555 -2555,2555 -1409,0 -2556,-1147 -2556,-2555 0,-1409 1147,-2556 2556,-2556z"/>
   <rect class="fil1" width="10236" height="10236"/>
  </g>
 </g>
</svg>
