<?xml version="1.0" encoding="UTF-8"?>
<!DOCTYPE svg PUBLIC "-//W3C//DTD SVG 1.1//EN" "http://www.w3.org/Graphics/SVG/1.1/DTD/svg11.dtd">
<!-- Creator: CorelDRAW X7 -->
<svg xmlns="http://www.w3.org/2000/svg" xml:space="preserve" width="100%" height="100%" version="1.1" style="shape-rendering:geometricPrecision; text-rendering:geometricPrecision; image-rendering:optimizeQuality; fill-rule:evenodd; clip-rule:evenodd"
viewBox="0 0 2600 2600"
 xmlns:xlink="http://www.w3.org/1999/xlink">
 <defs>
  <style type="text/css">
   <![CDATA[
    .fil0 {fill:none}
    .fil1 {fill:black}
   ]]>
  </style>
 </defs>
 <g id="Layer_x0020_1">
  <metadata id="CorelCorpID_0Corel-Layer"/>
  <g id="_2724844341536">
   <rect class="fil0" width="2600" height="2600"/>
   <path class="fil1" d="M1542 1310c-59,-70 -145,-113 -242,-113 -97,0 -183,43 -242,113 -153,-128 -385,-18 -385,180l0 206 311 0 0 108 632 0 0 -108 311 0 0 -206c0,-198 -232,-308 -385,-180zm-242 858c232,0 450,-90 614,-255 164,-163 254,-381 254,-613 0,-232 -90,-450 -254,-614 -164,-164 -382,-254 -614,-254 -232,0 -450,90 -613,254 -165,164 -255,382 -255,614 0,232 90,450 255,613 163,165 381,255 613,255zm-576 -1444c154,-154 359,-238 576,-238 217,0 422,84 576,238 154,154 238,359 238,576 0,217 -84,422 -238,576 -154,153 -359,238 -576,238 -217,0 -422,-85 -576,-238 -153,-154 -237,-359 -237,-576 0,-217 84,-422 237,-576zm183 293c36,0 65,29 65,65 0,36 -29,65 -65,65 -35,0 -65,-29 -65,-65 0,-36 30,-65 65,-65zm786 0c36,0 65,29 65,65 0,36 -29,65 -65,65 -36,0 -65,-29 -65,-65 0,-36 29,-65 65,-65zm-786 -54c66,0 120,53 120,119 0,66 -54,119 -120,119 -66,0 -119,-54 -119,-119 0,-66 54,-119 119,-119zm270 129c-109,-110 -30,-296 123,-296 153,0 232,186 123,296 -68,67 -178,67 -246,0zm123 -242c-106,0 -159,128 -84,203 46,47 122,47 168,0 75,-75 22,-203 -84,-203zm0 401c104,0 194,61 236,149 17,35 26,73 26,112l0 238 -523 0 0 -238c0,-39 8,-77 25,-112 42,-88 132,-149 236,-149zm-316 258c0,-58 15,-109 42,-155 -116,-102 -299,-19 -299,136l0 152 257 0 0 -133zm709 -546c-66,0 -119,53 -119,119 0,66 53,119 119,119 66,0 119,-54 119,-119 0,-66 -53,-119 -119,-119zm-77 546c0,-58 -15,-109 -42,-155 116,-102 299,-19 299,136l0 152 -257 0 0 -133z"/>
  </g>
 </g>
</svg>
