<?xml version="1.0" encoding="UTF-8"?>
<!DOCTYPE svg PUBLIC "-//W3C//DTD SVG 1.1//EN" "http://www.w3.org/Graphics/SVG/1.1/DTD/svg11.dtd">
<!-- Creator: CorelDRAW X7 -->
<svg xmlns="http://www.w3.org/2000/svg" xml:space="preserve" width="1.02362in" height="1.02362in" version="1.1" style="shape-rendering:geometricPrecision; text-rendering:geometricPrecision; image-rendering:optimizeQuality; fill-rule:evenodd; clip-rule:evenodd"
viewBox="0 0 10236 10236"
 xmlns:xlink="http://www.w3.org/1999/xlink">
 <defs>
  <style type="text/css">
   <![CDATA[
    .fil0 {fill:none}
    .fil1 {fill:black;fill-rule:nonzero}
   ]]>
  </style>
 </defs>
 <g id="Layer_x0020_1">
  <metadata id="CorelCorpID_0Corel-Layer"/>
  <g id="_1503130481104">
   <rect class="fil0" width="10236" height="10236"/>
   <path class="fil1" d="M5118 2752c382,0 693,-310 693,-693 0,-382 -311,-692 -693,-692 -382,0 -692,310 -692,692 0,382 310,693 692,693zm-111 6117l-736 0 0 -4898 -222 0 0 2075 -399 0 0 -1964c0,-366 297,-663 663,-663l1611 0c365,0 662,297 662,663l0 1964 -399 0 0 -2075 -222 0 0 4898 -736 0 0 -1953 -222 0 0 1953zm-694 -5672c-488,0 -886,397 -886,885l0 2187 622 0 0 2823 2138 0 0 -2823 622 0 0 -2187c0,-488 -397,-885 -885,-885l-1611 0zm805 -223c-504,0 -915,-411 -915,-915 0,-504 411,-914 915,-914 504,0 915,410 915,914 0,504 -411,915 -915,915z"/>
  </g>
 </g>
</svg>
