<?xml version="1.0" encoding="UTF-8"?>
<!DOCTYPE svg PUBLIC "-//W3C//DTD SVG 1.1//EN" "http://www.w3.org/Graphics/SVG/1.1/DTD/svg11.dtd">
<!-- Creator: CorelDRAW X7 -->
<svg xmlns="http://www.w3.org/2000/svg" xml:space="preserve" width="1.02362in" height="1.02362in" version="1.1" style="shape-rendering:geometricPrecision; text-rendering:geometricPrecision; image-rendering:optimizeQuality; fill-rule:evenodd; clip-rule:evenodd"
viewBox="0 0 10236 10236"
 xmlns:xlink="http://www.w3.org/1999/xlink">
 <defs>
  <style type="text/css">
   <![CDATA[
    .fil1 {fill:none}
    .fil0 {fill:black;fill-rule:nonzero}
   ]]>
  </style>
 </defs>
 <g id="Layer_x0020_1">
  <metadata id="CorelCorpID_0Corel-Layer"/>
  <g id="_2321318336672">
   <path class="fil0" d="M5118 1367c-382,0 -692,310 -692,692 0,382 310,693 692,693 382,0 693,-311 693,-693 0,-382 -311,-692 -693,-692zm-111 7502l0 -1432 -569 0 0 1432 569 0zm791 0l0 -1432 -569 0 0 1432 569 0zm-680 -5895c-504,0 -915,-411 -915,-915 0,-504 411,-915 915,-915 504,0 915,411 915,915 0,504 -411,915 -915,915zm1069 997l228 2075 227 0 0 -1964c0,-366 -298,-663 -663,-663l-1722 0c-365,0 -662,297 -662,663l0 1964 226 0 228 -2075 222 0 -356 3244 2406 0 -356 -3244 222 0zm-208 -774c488,0 885,397 885,885l0 2187 -424 0 128 1168 -547 0 0 1655 -1806 0 0 -1655 -547 0 128 -1168 -424 0 0 -2187c0,-488 397,-885 885,-885l1722 0z"/>
   <rect class="fil1" width="10236" height="10236"/>
  </g>
 </g>
</svg>
