<?xml version="1.0" encoding="UTF-8"?>
<!DOCTYPE svg PUBLIC "-//W3C//DTD SVG 1.1//EN" "http://www.w3.org/Graphics/SVG/1.1/DTD/svg11.dtd">
<!-- Creator: CorelDRAW X7 -->
<svg xmlns="http://www.w3.org/2000/svg" xml:space="preserve" width="100%" height="100%" version="1.1" style="shape-rendering:geometricPrecision; text-rendering:geometricPrecision; image-rendering:optimizeQuality; fill-rule:evenodd; clip-rule:evenodd"
viewBox="0 0 2600 2600"
 xmlns:xlink="http://www.w3.org/1999/xlink">
 <defs>
  <style type="text/css">
   <![CDATA[
    .fil0 {fill:none}
    .fil1 {fill:black}
   ]]>
  </style>
 </defs>
 <g id="Layer_x0020_1">
  <metadata id="CorelCorpID_0Corel-Layer"/>
  <g id="_2307155563632">
   <rect class="fil0" width="2600" height="2600"/>
   <path class="fil1" d="M1300 397c-241,0 -468,94 -639,264 -170,171 -264,398 -264,639 0,241 94,468 264,639 171,170 398,264 639,264 241,0 468,-94 639,-264 170,-171 264,-398 264,-639 0,-241 -94,-468 -264,-639 -171,-170 -398,-264 -639,-264zm-423 875l0 56 395 0 0 395 56 0 0 -395 395 0 0 -56 -395 0 0 -395 -56 0 0 395 -395 0zm1022 627c-160,160 -373,248 -599,248 -226,0 -439,-88 -599,-248 -160,-160 -248,-373 -248,-599 0,-226 88,-439 248,-599 160,-160 373,-248 599,-248 226,0 439,88 599,248 160,160 248,373 248,599 0,226 -88,439 -248,599z"/>
  </g>
 </g>
</svg>
