<?xml version="1.0" encoding="UTF-8"?>
<!DOCTYPE svg PUBLIC "-//W3C//DTD SVG 1.1//EN" "http://www.w3.org/Graphics/SVG/1.1/DTD/svg11.dtd">
<!-- Creator: CorelDRAW X7 -->
<svg xmlns="http://www.w3.org/2000/svg" xml:space="preserve" width="1.02362in" height="1.02362in" version="1.1" style="shape-rendering:geometricPrecision; text-rendering:geometricPrecision; image-rendering:optimizeQuality; fill-rule:evenodd; clip-rule:evenodd"
viewBox="0 0 10236 10236"
 xmlns:xlink="http://www.w3.org/1999/xlink">
 <defs>
  <style type="text/css">
   <![CDATA[
    .fil1 {fill:none}
    .fil0 {fill:black}
   ]]>
  </style>
 </defs>
 <g id="Layer_x0020_1">
  <metadata id="CorelCorpID_0Corel-Layer"/>
  <g id="_2296485222656">
   <path class="fil0" d="M7008 1563l-3780 0 0 2110 -1665 0 0 3780 1665 0 0 1220 3780 0 0 -1220 1665 0 0 -3780 -1665 0 0 -2110zm-3000 6000l2220 0 0 220 -2220 0 0 -220zm0 -890l2220 0 0 225 -2220 0 0 -225zm-1110 -2220l445 0 0 220 -445 0 0 -220zm-670 0l445 0 0 220 -445 0 0 -220zm1225 -2670l3330 0 0 1890 -3330 0 0 -1890zm3330 6670l-3330 0 0 -2445 3330 0 0 2445zm1670 -4555l0 3330 -1445 0 0 -1445 -3780 0 0 1445 -1445 0 0 -3330 6670 0z"/>
   <rect class="fil1" width="10236" height="10236"/>
  </g>
 </g>
</svg>
