<?xml version="1.0" encoding="UTF-8"?>
<!DOCTYPE svg PUBLIC "-//W3C//DTD SVG 1.1//EN" "http://www.w3.org/Graphics/SVG/1.1/DTD/svg11.dtd">
<!-- Creator: CorelDRAW X7 -->
<svg xmlns="http://www.w3.org/2000/svg" xml:space="preserve" width="100%" height="100%" version="1.1" style="shape-rendering:geometricPrecision; text-rendering:geometricPrecision; image-rendering:optimizeQuality; fill-rule:evenodd; clip-rule:evenodd"
viewBox="0 0 2600 2600"
 xmlns:xlink="http://www.w3.org/1999/xlink">
 <defs>
  <style type="text/css">
   <![CDATA[
    .fil1 {fill:none}
    .fil0 {fill:black}
   ]]>
  </style>
 </defs>
 <g id="Layer_x0020_1">
  <metadata id="CorelCorpID_0Corel-Layer"/>
  <g id="_2307449986976">
   <path class="fil0" d="M397 2034l1806 0 0 -1468 -1806 0 0 1468zm1016 -875l0 508 537 0 0 -508 -131 0c37,-36 60,-86 60,-141 0,-109 -89,-198 -198,-198 -109,0 -197,89 -197,198 0,55 23,105 59,141l-130 0zm268 0l0 0c-77,0 -141,-64 -141,-141 0,-78 64,-141 141,-141 78,0 142,63 142,141 0,77 -64,141 -142,141zm-212 56l424 0 0 395 -424 0 0 -395zm-819 395l650 0 0 57 -650 0 0 -57zm0 -225l650 0 0 56 -650 0 0 -56zm0 -226l650 0 0 56 -650 0 0 -56zm-197 818c0,-451 0,-903 0,-1354l1694 0c0,451 0,903 0,1354l-1694 0z"/>
   <rect class="fil1" width="2600" height="2600"/>
  </g>
 </g>
</svg>
