<?xml version="1.0" encoding="UTF-8"?>
<!DOCTYPE svg PUBLIC "-//W3C//DTD SVG 1.1//EN" "http://www.w3.org/Graphics/SVG/1.1/DTD/svg11.dtd">
<!-- Creator: CorelDRAW X7 -->
<svg xmlns="http://www.w3.org/2000/svg" xml:space="preserve" width="1.02362in" height="1.02362in" version="1.1" style="shape-rendering:geometricPrecision; text-rendering:geometricPrecision; image-rendering:optimizeQuality; fill-rule:evenodd; clip-rule:evenodd"
viewBox="0 0 10236 10236"
 xmlns:xlink="http://www.w3.org/1999/xlink">
 <defs>
  <style type="text/css">
   <![CDATA[
    .fil1 {fill:none}
    .fil0 {fill:black}
   ]]>
  </style>
 </defs>
 <g id="Layer_x0020_1">
  <metadata id="CorelCorpID_0Corel-Layer"/>
  <g id="_2382205369696">
   <path class="fil0" d="M8451 7397l-3333 0 0 -222 3333 0 0 222zm-6389 -3836c0,-522 423,-945 945,-945 522,0 944,423 944,945 0,521 -422,944 -944,944 -522,0 -945,-423 -945,-944zm1667 0c0,-399 -323,-722 -722,-722 -399,0 -722,323 -722,722 0,400 322,722 722,722 399,0 722,-323 722,-722zm722 4059l-2888 0 0 -2892 2888 0 0 2892zm-2666 -223l2444 0 0 -2447 -2444 0 0 2447zm6889 -2002l-3778 0 0 -667 3778 0 0 667zm-223 -222l0 -223 -3333 0 0 223 3333 0zm223 1335l-3778 0 0 -668 3778 0 0 668zm-223 -223l0 -222 -3333 0 0 222 3333 0zm223 667l-3778 0 0 668 3778 0 0 -668z"/>
   <polygon class="fil1" points="0,0 10236,0 10236,10236 0,10236 "/>
  </g>
 </g>
</svg>
