<?xml version="1.0" encoding="UTF-8"?>
<!DOCTYPE svg PUBLIC "-//W3C//DTD SVG 1.1//EN" "http://www.w3.org/Graphics/SVG/1.1/DTD/svg11.dtd">
<!-- Creator: CorelDRAW X7 -->
<svg xmlns="http://www.w3.org/2000/svg" xml:space="preserve" width="1.02362in" height="1.02362in" version="1.1" style="shape-rendering:geometricPrecision; text-rendering:geometricPrecision; image-rendering:optimizeQuality; fill-rule:evenodd; clip-rule:evenodd"
viewBox="0 0 10236 10236"
 xmlns:xlink="http://www.w3.org/1999/xlink">
 <defs>
  <style type="text/css">
   <![CDATA[
    .fil1 {fill:none}
    .fil0 {fill:black}
   ]]>
  </style>
 </defs>
 <g id="Layer_x0020_1">
  <metadata id="CorelCorpID_0Corel-Layer"/>
  <g id="_2382369996080">
   <path class="fil0" d="M3007 4785c-494,0 -940,298 -1130,756 -59,143 -92,300 -92,466l0 1555 2444 0 0 -1555c0,-166 -33,-323 -93,-466 -189,-458 -636,-756 -1129,-756zm1889 -1005l0 668 3778 0 0 -668 -3778 0zm3555 445l-3333 0 0 -222 3333 0 0 222zm0 3337l-3333 0 0 -222 3333 0 0 222zm223 -2002l-3778 0 0 -667 3778 0 0 667zm-223 -223l0 -222 -3333 0 0 222 3333 0zm223 1335l-3778 0 0 -667 3778 0 0 667zm-223 -222l0 -223 -3333 0 0 223 3333 0zm223 667l-3778 0 0 668 3778 0 0 -668zm-4945 -3721c0,399 -323,722 -722,722 -399,0 -722,-323 -722,-722 0,-400 322,-722 722,-722 399,0 722,322 722,722zm222 0c0,-522 -422,-944 -944,-944 -522,0 -945,422 -945,944 0,522 423,945 945,945 522,0 944,-423 944,-945zm-944 1167c-398,0 -759,162 -1021,424 -261,261 -423,622 -423,1020l0 1778 2888 0 0 -1778c0,-398 -162,-759 -423,-1020 -262,-262 -623,-424 -1021,-424z"/>
   <polygon class="fil1" points="0,0 10236,0 10236,10236 0,10236 "/>
  </g>
 </g>
</svg>
