<?xml version="1.0" encoding="UTF-8"?>
<!DOCTYPE svg PUBLIC "-//W3C//DTD SVG 1.1//EN" "http://www.w3.org/Graphics/SVG/1.1/DTD/svg11.dtd">
<!-- Creator: CorelDRAW X7 -->
<svg xmlns="http://www.w3.org/2000/svg" xml:space="preserve" width="1.02362in" height="1.02362in" version="1.1" style="shape-rendering:geometricPrecision; text-rendering:geometricPrecision; image-rendering:optimizeQuality; fill-rule:evenodd; clip-rule:evenodd"
viewBox="0 0 10236 10236"
 xmlns:xlink="http://www.w3.org/1999/xlink">
 <defs>
  <style type="text/css">
   <![CDATA[
    .fil0 {fill:none}
    .fil1 {fill:black}
   ]]>
  </style>
 </defs>
 <g id="Layer_x0020_1">
  <metadata id="CorelCorpID_0Corel-Layer"/>
  <g id="_2382457449616">
   <rect class="fil0" width="10236" height="10236"/>
   <path class="fil1" d="M3089 2229l0 445 -1194 0 0 4888 1194 0 0 445 4058 0 0 -445 1194 0 0 -4888 -1194 0 0 -445 -4058 0zm0 667l0 4444 -971 0 0 -4444 971 0zm4058 4444l0 -4444 972 0 0 4444 -972 0zm-3835 -4889l3612 0 0 5334 -3612 0 0 -5334z"/>
  </g>
 </g>
</svg>
