<?xml version="1.0" encoding="UTF-8"?>
<!DOCTYPE svg PUBLIC "-//W3C//DTD SVG 1.1//EN" "http://www.w3.org/Graphics/SVG/1.1/DTD/svg11.dtd">
<!-- Creator: CorelDRAW X7 -->
<svg xmlns="http://www.w3.org/2000/svg" xml:space="preserve" width="1.02362in" height="1.02362in" version="1.1" style="shape-rendering:geometricPrecision; text-rendering:geometricPrecision; image-rendering:optimizeQuality; fill-rule:evenodd; clip-rule:evenodd"
viewBox="0 0 10236 10236"
 xmlns:xlink="http://www.w3.org/1999/xlink">
 <defs>
  <style type="text/css">
   <![CDATA[
    .fil0 {fill:none}
    .fil1 {fill:black}
   ]]>
  </style>
 </defs>
 <g id="Layer_x0020_1">
  <metadata id="CorelCorpID_0Corel-Layer"/>
  <g id="_1950516240016">
   <rect class="fil0" width="10236" height="10236"/>
   <path class="fil1" d="M4896 2014c-832,55 -1581,415 -2135,969 -603,603 -976,1437 -976,2357 0,921 373,1754 976,2357 603,603 1437,977 2357,977 453,0 884,-90 1276,-252 337,-140 647,-334 919,-573l-2417 -2417 0 -3418zm889 -394l0 2425 1672 -1673c-92,-73 -189,-142 -288,-206 -164,-107 -336,-200 -515,-280 -174,-77 -356,-142 -545,-193 -107,-29 -215,-53 -324,-73zm-223 -256l0 3218 2223 -2223c-309,-277 -659,-506 -1041,-676 -368,-163 -765,-273 -1182,-319zm343 3819l1995 1995c155,-233 281,-487 373,-756 115,-339 178,-702 178,-1081 0,-416 -75,-814 -213,-1179 -116,-306 -274,-589 -469,-844l-1864 1865zm-315 0l2337 2338c468,-602 747,-1359 747,-2180 0,-902 -336,-1726 -889,-2353l-2195 2195zm-472 -3398c-1964,0 -3556,1592 -3556,3555 0,1964 1592,3556 3556,3556 982,0 1871,-398 2514,-1041l-2514 -2515 0 -3555z"/>
  </g>
 </g>
</svg>
