<?xml version="1.0" encoding="UTF-8"?>
<!DOCTYPE svg PUBLIC "-//W3C//DTD SVG 1.1//EN" "http://www.w3.org/Graphics/SVG/1.1/DTD/svg11.dtd">
<!-- Creator: CorelDRAW X7 -->
<svg xmlns="http://www.w3.org/2000/svg" xml:space="preserve" width="1.02362in" height="1.02362in" version="1.1" style="shape-rendering:geometricPrecision; text-rendering:geometricPrecision; image-rendering:optimizeQuality; fill-rule:evenodd; clip-rule:evenodd"
viewBox="0 0 10236 10236"
 xmlns:xlink="http://www.w3.org/1999/xlink">
 <defs>
  <style type="text/css">
   <![CDATA[
    .fil1 {fill:none}
    .fil0 {fill:black}
   ]]>
  </style>
 </defs>
 <g id="Layer_x0020_1">
  <metadata id="CorelCorpID_0Corel-Layer"/>
  <g id="_2320953524624">
   <path class="fil0" d="M5118 1785c-920,0 -1754,373 -2357,976 -603,603 -976,1437 -976,2357 0,921 373,1754 976,2357 603,603 1437,976 2357,976 921,0 1754,-373 2357,-976 603,-603 976,-1436 976,-2357 0,-920 -373,-1754 -976,-2357 -23,-23 -46,-46 -70,-68l0 981 -222 0 0 -1172 155 -161 1178 0 0 222 -926 0c668,646 1084,1552 1084,2555 0,1964 -1592,3556 -3556,3556 -1964,0 -3556,-1592 -3556,-3556 0,-1964 1592,-3556 3556,-3556 37,0 74,1 111,2l0 223c-37,-1 -74,-2 -111,-2zm-889 3334c0,491 398,888 889,888 491,0 889,-397 889,-888 0,-492 -397,-890 -889,-890 -491,0 -889,398 -889,890zm-223 0c0,-614 499,-1112 1112,-1112 610,0 1111,496 1111,1112 0,612 -498,1111 -1111,1111 -147,0 -291,-29 -425,-85 -415,-172 -687,-577 -687,-1026z"/>
   <rect class="fil1" width="10236" height="10236"/>
  </g>
 </g>
</svg>
