<?xml version="1.0" encoding="UTF-8"?>
<!DOCTYPE svg PUBLIC "-//W3C//DTD SVG 1.1//EN" "http://www.w3.org/Graphics/SVG/1.1/DTD/svg11.dtd">
<!-- Creator: CorelDRAW X7 -->
<svg xmlns="http://www.w3.org/2000/svg" xml:space="preserve" width="1.02362in" height="1.02362in" version="1.1" style="shape-rendering:geometricPrecision; text-rendering:geometricPrecision; image-rendering:optimizeQuality; fill-rule:evenodd; clip-rule:evenodd"
viewBox="0 0 10236 10236"
 xmlns:xlink="http://www.w3.org/1999/xlink">
 <defs>
  <style type="text/css">
   <![CDATA[
    .fil0 {fill:none}
    .fil1 {fill:black}
   ]]>
  </style>
 </defs>
 <g id="Layer_x0020_1">
  <metadata id="CorelCorpID_0Corel-Layer"/>
  <g id="_2320947599264">
   <rect class="fil0" width="10236" height="10236"/>
   <path class="fil1" d="M6506 3731l2168 0 0 -223 -1946 0 0 -1945 -222 0 0 2168zm-1388 276c307,0 585,124 786,325 201,201 326,479 326,786 0,307 -125,585 -326,786 -201,201 -479,326 -786,326 -307,0 -585,-125 -786,-326 -201,-201 -325,-479 -325,-786 0,-307 124,-585 325,-786 201,-201 479,-325 786,-325zm0 222c491,0 889,398 889,889 0,491 -398,889 -889,889 -491,0 -889,-398 -889,-889 0,-491 398,-889 889,-889zm-1388 2276l-2168 0 0 223 1946 0 0 1946 222 0 0 -2169zm2776 0l2168 0 0 223 -1946 0 0 1946 -222 0 0 -2169zm-2776 -2774l-2168 0 0 -223 1946 0 0 -1945 222 0 0 2168z"/>
  </g>
 </g>
</svg>
