<?xml version="1.0" encoding="UTF-8"?>
<!DOCTYPE svg PUBLIC "-//W3C//DTD SVG 1.1//EN" "http://www.w3.org/Graphics/SVG/1.1/DTD/svg11.dtd">
<!-- Creator: CorelDRAW X7 -->
<svg xmlns="http://www.w3.org/2000/svg" xml:space="preserve" width="1.02362in" height="1.02362in" version="1.1" style="shape-rendering:geometricPrecision; text-rendering:geometricPrecision; image-rendering:optimizeQuality; fill-rule:evenodd; clip-rule:evenodd"
viewBox="0 0 10236 10236"
 xmlns:xlink="http://www.w3.org/1999/xlink">
 <defs>
  <style type="text/css">
   <![CDATA[
    .fil0 {fill:none}
    .fil1 {fill:black}
   ]]>
  </style>
 </defs>
 <g id="Layer_x0020_1">
  <metadata id="CorelCorpID_0Corel-Layer"/>
  <g id="_2320937624336">
   <rect class="fil0" width="10236" height="10236"/>
   <path class="fil1" d="M5521 8453l-2846 0 0 -5110 1555 0 0 -1560 3331 0 0 4624 224 99 0 -4943c-1240,0 -2476,0 -3712,0l-1622 1622c0,1827 0,3658 0,5488l3168 0 -98 -220zm-313 -2357l1281 2897 323 -1295 1293 -321 -2897 -1281zm-436 -436l1776 4015 447 -1794 1792 -445 -4015 -1776zm-1943 -2542l1177 -1177 0 1177 -1177 0z"/>
  </g>
 </g>
</svg>
