<?xml version="1.0" encoding="UTF-8"?>
<!DOCTYPE svg PUBLIC "-//W3C//DTD SVG 1.1//EN" "http://www.w3.org/Graphics/SVG/1.1/DTD/svg11.dtd">
<!-- Creator: CorelDRAW X7 -->
<svg xmlns="http://www.w3.org/2000/svg" xml:space="preserve" width="100%" height="100%" version="1.1" style="shape-rendering:geometricPrecision; text-rendering:geometricPrecision; image-rendering:optimizeQuality; fill-rule:evenodd; clip-rule:evenodd"
viewBox="0 0 26000 26000"
 xmlns:xlink="http://www.w3.org/1999/xlink">
 <defs>
  <style type="text/css">
   <![CDATA[
    .fil0 {fill:none}
    .fil1 {fill:black}
   ]]>
  </style>
 </defs>
 <g id="Layer_x0020_1">
  <metadata id="CorelCorpID_0Corel-Layer"/>
  <g id="_2280498008640">
   <rect class="fil0" width="26000" height="26000"/>
   <path class="fil1" d="M13424 3969l565 0 0 2492c785,154 1518,478 2072,966 372,328 673,733 877,1214 190,449 296,961 296,1535l-182 0 -100 0 -283 0c0,-159 -9,-312 -27,-458 -37,-313 -113,-599 -223,-857 -169,-399 -420,-736 -731,-1010 -374,-330 -847,-574 -1365,-729 -109,-33 -221,-62 -334,-87l0 5302 0 604c708,173 1378,384 1922,722 193,120 372,256 531,411 162,158 303,334 418,532 362,626 448,1388 313,2111 -139,740 -513,1444 -1064,1921 -571,494 -1321,804 -2120,934l0 2459 -565 0 0 -2396c-130,7 -260,10 -391,9 -152,-2 -305,-10 -457,-24l0 2411 -565 0 0 -2492c-785,-154 -1518,-478 -2072,-966 -372,-328 -673,-733 -877,-1213 -190,-450 -296,-962 -296,-1536l282 0 283 0c0,114 5,224 14,332 30,363 112,690 236,983 169,399 420,736 731,1010 406,358 929,615 1499,767 66,18 133,34 200,49l0 -805 0 -5089c-1209,-299 -2313,-713 -2871,-1677 -362,-625 -448,-1388 -312,-2111 138,-740 512,-1444 1063,-1921 571,-494 1321,-804 2120,-934l0 -2459 565 0 0 2396c130,-7 261,-10 391,-9 152,2 305,10 457,24l0 -2411zm565 9554l0 5478 5 0c663,-123 1279,-384 1747,-789 453,-392 761,-979 878,-1598 112,-598 44,-1222 -247,-1725 -89,-153 -197,-289 -323,-411 -127,-124 -274,-236 -436,-336 -423,-263 -954,-444 -1529,-595l-95 -24zm-565 5548l0 -5682c-152,-35 -306,-68 -460,-102 -129,-28 -259,-56 -388,-85l0 5404 0 449c153,16 307,24 462,26 129,1 258,-2 386,-10zm0 -6261l0 -74 0 -5791c-153,-16 -307,-24 -462,-26 -129,-1 -257,2 -386,10l0 5695c169,38 338,75 508,112 113,24 227,49 340,74zm-1413 -5811c-665,121 -1283,383 -1751,789 -453,392 -762,979 -878,1598 -113,598 -45,1222 246,1725 432,746 1349,1110 2383,1377l0 -5489z"/>
  </g>
 </g>
</svg>
