<?xml version="1.0" encoding="UTF-8"?>
<!DOCTYPE svg PUBLIC "-//W3C//DTD SVG 1.1//EN" "http://www.w3.org/Graphics/SVG/1.1/DTD/svg11.dtd">
<!-- Creator: CorelDRAW X7 -->
<svg xmlns="http://www.w3.org/2000/svg" xml:space="preserve" width="100%" height="100%" version="1.1" style="shape-rendering:geometricPrecision; text-rendering:geometricPrecision; image-rendering:optimizeQuality; fill-rule:evenodd; clip-rule:evenodd"
viewBox="0 0 26000 26000"
 xmlns:xlink="http://www.w3.org/1999/xlink">
 <defs>
  <style type="text/css">
   <![CDATA[
    .fil0 {fill:none}
    .fil1 {fill:black;fill-rule:nonzero}
   ]]>
  </style>
 </defs>
 <g id="Layer_x0020_1">
  <metadata id="CorelCorpID_0Corel-Layer"/>
  <g id="_2278934602992">
   <rect class="fil0" width="26000" height="26000"/>
   <path class="fil0" d="M16952 10176c0,-1103 -414,-1953 -1077,-2537 -1469,-1294 -4309,-1355 -5800,-64 -990,857 -1353,2533 -691,3677 1071,1851 4562,1523 6378,2650 355,221 650,494 854,846 662,1144 299,2820 -691,3677 -1491,1291 -4331,1230 -5800,-64 -663,-584 -1077,-1434 -1077,-2537"/>
   <path class="fil1" d="M16669 10176c0,-497 -89,-936 -250,-1315 -169,-399 -420,-736 -731,-1010 -687,-605 -1704,-921 -2726,-932 -1009,-11 -2015,274 -2702,869 -453,392 -762,979 -879,1599 -112,597 -44,1221 247,1724 578,998 2022,1312 3456,1625 1029,224 2055,447 2827,927 193,120 372,256 531,411 162,158 303,334 418,532 362,626 448,1388 313,2111 -139,740 -513,1444 -1064,1921 -737,638 -1773,968 -2826,1003l0 2390 -565 0 0 -2399c-1044,-70 -2062,-427 -2779,-1059 -372,-328 -673,-733 -877,-1213 -190,-450 -296,-962 -296,-1536l565 0c0,497 89,936 250,1315 169,399 420,736 731,1010 687,605 1704,921 2726,932 1009,11 2015,-274 2702,-869 453,-392 762,-979 879,-1598 112,-598 44,-1222 -247,-1725 -89,-153 -197,-289 -323,-411 -127,-124 -274,-236 -436,-336 -688,-428 -1666,-641 -2648,-854 -1556,-339 -3122,-680 -3825,-1894 -362,-625 -448,-1388 -313,-2111 139,-740 513,-1444 1064,-1921 737,-638 1773,-968 2827,-1003l0 -2390 565 0 0 2400c1043,69 2061,426 2778,1058 372,328 673,733 877,1214 190,449 296,962 296,1535l-565 0z"/>
  </g>
 </g>
</svg>
