<?xml version="1.0" encoding="UTF-8"?>
<!DOCTYPE svg PUBLIC "-//W3C//DTD SVG 1.1//EN" "http://www.w3.org/Graphics/SVG/1.1/DTD/svg11.dtd">
<!-- Creator: CorelDRAW X7 -->
<svg xmlns="http://www.w3.org/2000/svg" xml:space="preserve" width="1.02362in" height="1.02362in" version="1.1" style="shape-rendering:geometricPrecision; text-rendering:geometricPrecision; image-rendering:optimizeQuality; fill-rule:evenodd; clip-rule:evenodd"
viewBox="0 0 10236 10236"
 xmlns:xlink="http://www.w3.org/1999/xlink">
 <defs>
  <style type="text/css">
   <![CDATA[
    .fil0 {fill:none}
    .fil1 {fill:#373435;fill-rule:nonzero}
   ]]>
  </style>
 </defs>
 <g id="Layer_x0020_1">
  <metadata id="CorelCorpID_0Corel-Layer"/>
  <rect class="fil0" width="10236" height="10236"/>
  <path class="fil1" d="M4942 2816l0 501c55,-5 110,-8 165,-7 63,1 125,5 187,13l0 -507 223 0 0 553c164,48 315,124 435,227 109,93 197,208 257,345 55,127 86,272 86,435l-72 0 -39 0 -112 0c0,-80 -8,-154 -25,-222 -11,-44 -25,-86 -42,-125 -45,-104 -113,-193 -197,-265 -45,-38 -95,-72 -150,-101 -45,-24 -92,-44 -141,-62l0 1276 0 252c137,40 268,90 386,163 53,33 101,70 145,113 45,44 84,92 116,147 99,172 123,381 86,578 -38,201 -140,394 -290,524 -123,107 -277,181 -443,225l0 542 -223 0 0 -502c-54,5 -109,8 -164,7 -63,-1 -126,-5 -188,-14l0 509 -223 0 0 -557c-159,-48 -306,-124 -423,-227 -101,-90 -183,-200 -239,-331 -52,-122 -81,-261 -81,-416l112 0 111 0c0,56 4,109 13,159 10,61 27,118 49,170 42,99 105,183 182,251 58,51 125,94 199,128 25,12 51,23 77,33l0 -1189 0 -272c-140,-41 -276,-93 -399,-170 -72,-45 -134,-99 -186,-159 -125,-147 -187,-329 -192,-516 -5,-184 45,-372 145,-531 49,-79 110,-152 183,-214 124,-107 280,-181 449,-224l0 -540 223 0zm0 724l0 1458c67,15 135,30 203,44 50,10 100,21 149,32l0 -40 0 -1487c-62,-10 -125,-15 -189,-15 -54,-1 -109,2 -163,8zm0 1685l0 59 0 1405c62,10 126,15 190,16 54,0 109,-3 162,-9l0 -1395c-64,-14 -129,-28 -194,-42 -53,-11 -106,-22 -158,-34zm-223 -288l0 -1351c-115,36 -220,90 -305,162 -55,47 -101,102 -139,163 -76,123 -115,267 -111,408 3,138 48,272 139,378 37,43 81,82 135,115 85,53 180,93 281,125zm798 1712l3 -1c111,-37 212,-90 294,-162 113,-97 189,-242 218,-397 28,-148 11,-302 -60,-425 -22,-38 -48,-71 -78,-100 -32,-30 -68,-58 -108,-83 -71,-44 -149,-79 -233,-108 -12,-4 -24,-8 -36,-12l0 1288zm-399 -5086c950,0 1843,370 2514,1041 672,671 1042,1565 1042,2514 0,950 -370,1842 -1042,2514 -671,672 -1564,1042 -2514,1042 -950,0 -1842,-370 -2514,-1042 -672,-672 -1042,-1564 -1042,-2514 0,-949 370,-1843 1042,-2514 672,-671 1564,-1041 2514,-1041zm-2357 5912c630,629 1467,976 2357,976 890,0 1728,-347 2357,-976 630,-630 976,-1467 976,-2357 0,-890 -346,-1727 -976,-2357 -629,-629 -1467,-977 -2357,-977 -890,0 -1727,348 -2357,977 -629,630 -976,1467 -976,2357 0,890 347,1727 976,2357z"/>
 </g>
</svg>
