<?xml version="1.0" encoding="UTF-8"?>
<!DOCTYPE svg PUBLIC "-//W3C//DTD SVG 1.1//EN" "http://www.w3.org/Graphics/SVG/1.1/DTD/svg11.dtd">
<!-- Creator: CorelDRAW X7 -->
<svg xmlns="http://www.w3.org/2000/svg" xml:space="preserve" width="100%" height="100%" version="1.1" style="shape-rendering:geometricPrecision; text-rendering:geometricPrecision; image-rendering:optimizeQuality; fill-rule:evenodd; clip-rule:evenodd"
viewBox="0 0 26000 26000"
 xmlns:xlink="http://www.w3.org/1999/xlink">
 <defs>
  <style type="text/css">
   <![CDATA[
    .fil0 {fill:none}
    .fil1 {fill:black}
   ]]>
  </style>
 </defs>
 <g id="Layer_x0020_1">
  <metadata id="CorelCorpID_0Corel-Layer"/>
  <g id="_2278932911840">
   <rect class="fil0" width="26000" height="26000"/>
   <path class="fil1" d="M7074 18358c0,-779 634,-1411 1411,-1411 779,0 1411,632 1411,1411 0,777 -632,1411 -1411,1411 -777,0 -1411,-634 -1411,-1411zm4515 -5357c0,-779 634,-1411 1411,-1411 779,0 1411,632 1411,1411 0,777 -632,1410 -1411,1411 -777,0 -1411,-634 -1411,-1411zm10442 -848l-7247 0c-716,-1497 -2852,-1496 -3568,0l-7247 0 0 1696 7246 0c723,1513 2862,1485 3570,0l7246 0 0 -1696zm-7075 565l6510 0 0 566 -6510 0c27,-187 27,-379 0,-566zm-3912 0c-27,187 -27,379 0,566l-6510 0 0 -566 6510 0zm7882 -5078c0,-779 -634,-1411 -1411,-1411 -779,0 -1411,632 -1411,1411 0,777 632,1410 1411,1411 777,0 1411,-634 1411,-1411zm-14957 -848l11762 0c716,-1497 2852,-1496 3568,0l2732 0 0 1696 -2731 0c-723,1513 -2862,1485 -3570,0l-11761 0 0 -1696zm11590 565l-11025 0 0 566 11025 0c-27,-187 -27,-379 0,-566zm3912 0c27,187 27,379 0,566l1995 0 0 -566 -1995 0zm2560 10153l-11762 0c-716,-1497 -2852,-1496 -3568,0l-2732 0 0 1696 2732 0c722,1513 2861,1485 3569,0l11761 0 0 -1696zm-11590 565l11025 0 0 566 -11025 0c27,-187 27,-379 0,-566zm-3912 0c-27,187 -27,379 0,566l-1995 0 0 -566 1995 0z"/>
  </g>
 </g>
</svg>
