<?xml version="1.0" encoding="UTF-8"?>
<!DOCTYPE svg PUBLIC "-//W3C//DTD SVG 1.1//EN" "http://www.w3.org/Graphics/SVG/1.1/DTD/svg11.dtd">
<!-- Creator: CorelDRAW X7 -->
<svg xmlns="http://www.w3.org/2000/svg" xml:space="preserve" width="100%" height="100%" version="1.1" style="shape-rendering:geometricPrecision; text-rendering:geometricPrecision; image-rendering:optimizeQuality; fill-rule:evenodd; clip-rule:evenodd"
viewBox="0 0 2600 2600"
 xmlns:xlink="http://www.w3.org/1999/xlink">
 <defs>
  <style type="text/css">
   <![CDATA[
    .fil0 {fill:none}
    .fil1 {fill:black}
   ]]>
  </style>
 </defs>
 <g id="Layer_x0020_1">
  <metadata id="CorelCorpID_0Corel-Layer"/>
  <g id="_2307345112544">
   <rect class="fil0" width="2600" height="2600"/>
   <path class="fil1" d="M1897 969l177 -177 -266 -266 -177 177 -133 -44 0 -262 -396 0 0 262 -133 44 -177 -177 -266 266 177 177 -44 133 -262 0 0 396 262 0 44 133 -177 177 266 266 177 -177 133 44 0 262 396 0 0 -262 133 -44 177 177 266 -266 -177 -177 44 -133 262 0 0 -396 -262 0 -44 -133zm-597 133c-109,0 -198,89 -198,198 0,109 89,198 198,198 109,0 198,-89 198,-198 0,-109 -89,-198 -198,-198zm0 339c-78,0 -141,-63 -141,-141 0,-78 63,-141 141,-141 78,0 141,63 141,141 0,78 -63,141 -141,141zm847 0l-246 0 -69 205 162 162 -186 186 -162 -162 -205 69 0 246 -282 0 0 -246 -205 -69 -162 162 -186 -186 162 -162 -68 -205 -247 0 0 -282 247 0 68 -205 -162 -162 186 -186 162 162 205 -68 0 -247 282 0 0 247 205 68 162 -162 186 186 -162 162 69 205 246 0 0 282z"/>
  </g>
 </g>
</svg>
