<?xml version="1.0" encoding="UTF-8"?>
<!DOCTYPE svg PUBLIC "-//W3C//DTD SVG 1.1//EN" "http://www.w3.org/Graphics/SVG/1.1/DTD/svg11.dtd">
<!-- Creator: CorelDRAW X7 -->
<svg xmlns="http://www.w3.org/2000/svg" xml:space="preserve" width="1.02362in" height="1.02362in" version="1.1" style="shape-rendering:geometricPrecision; text-rendering:geometricPrecision; image-rendering:optimizeQuality; fill-rule:evenodd; clip-rule:evenodd"
viewBox="0 0 10236 10236"
 xmlns:xlink="http://www.w3.org/1999/xlink">
 <defs>
  <style type="text/css">
   <![CDATA[
    .fil1 {fill:none}
    .fil0 {fill:black}
   ]]>
  </style>
 </defs>
 <g id="Layer_x0020_1">
  <metadata id="CorelCorpID_0Corel-Layer"/>
  <g id="_2296484995408">
   <path class="fil0" d="M3007 2683l0 -1120 -222 0 0 1120c-377,54 -667,378 -667,769 0,391 290,715 667,769l0 4453 222 0 0 -4453c376,-54 667,-378 667,-769 0,-391 -291,-715 -667,-769zm2222 1666l0 -2786 -222 0 0 2786c-376,54 -667,378 -667,769 0,391 291,715 667,769l0 2787 222 0 0 -2787c377,-54 667,-378 667,-769 0,-391 -290,-715 -667,-769zm-111 1325c-306,0 -555,-250 -555,-556 0,-306 249,-555 555,-555 306,0 556,249 556,555 0,306 -250,556 -556,556zm2333 342l0 -4453 -222 0 0 4453c-376,54 -666,377 -666,769 0,391 290,714 666,768l0 1121 222 0 0 -1121c377,-54 667,-377 667,-768 0,-392 -290,-715 -667,-769zm-110 1324c-307,0 -556,-250 -556,-555 0,-307 249,-556 556,-556 306,0 555,249 555,556 0,305 -249,555 -555,555zm-4445 -3333c-306,0 -555,-249 -555,-555 0,-306 249,-556 555,-556 306,0 556,250 556,556 0,306 -250,555 -556,555z"/>
   <rect class="fil1" width="10236" height="10236"/>
  </g>
 </g>
</svg>
