<?xml version="1.0" encoding="UTF-8"?>
<!DOCTYPE svg PUBLIC "-//W3C//DTD SVG 1.1//EN" "http://www.w3.org/Graphics/SVG/1.1/DTD/svg11.dtd">
<!-- Creator: CorelDRAW X7 -->
<svg xmlns="http://www.w3.org/2000/svg" xml:space="preserve" width="1.02362in" height="1.02362in" version="1.1" style="shape-rendering:geometricPrecision; text-rendering:geometricPrecision; image-rendering:optimizeQuality; fill-rule:evenodd; clip-rule:evenodd"
viewBox="0 0 10236 10236"
 xmlns:xlink="http://www.w3.org/1999/xlink">
 <defs>
  <style type="text/css">
   <![CDATA[
    .fil0 {fill:none}
    .fil1 {fill:black}
   ]]>
  </style>
 </defs>
 <g id="Layer_x0020_1">
  <metadata id="CorelCorpID_0Corel-Layer"/>
  <g id="_2382492351984">
   <rect class="fil0" width="10236" height="10236"/>
   <path class="fil1" d="M1563 8673l2666 0 0 -222 -2444 0 0 -6666 2444 0 -691 699 165 157 905 -889 0 -157 -905 -889 -173 158 699 698 -2666 0 0 7111zm3444 -4111l222 0 0 2223 -222 0 0 -2223zm0 -1111l222 0 0 667 -222 0 0 -667zm1000 5000l699 -699 -173 -157 -905 889 0 157 905 889 165 -157 -691 -700 2667 0 0 -7111 -2667 0 0 223 2445 0 0 6666 -2445 0z"/>
  </g>
 </g>
</svg>
