<?xml version="1.0" encoding="UTF-8"?>
<!DOCTYPE svg PUBLIC "-//W3C//DTD SVG 1.1//EN" "http://www.w3.org/Graphics/SVG/1.1/DTD/svg11.dtd">
<!-- Creator: CorelDRAW X7 -->
<svg xmlns="http://www.w3.org/2000/svg" xml:space="preserve" width="1.02362in" height="1.02362in" version="1.1" style="shape-rendering:geometricPrecision; text-rendering:geometricPrecision; image-rendering:optimizeQuality; fill-rule:evenodd; clip-rule:evenodd"
viewBox="0 0 10236 10236"
 xmlns:xlink="http://www.w3.org/1999/xlink">
 <defs>
  <style type="text/css">
   <![CDATA[
    .fil0 {fill:none}
    .fil1 {fill:black}
   ]]>
  </style>
 </defs>
 <g id="Layer_x0020_1">
  <metadata id="CorelCorpID_0Corel-Layer"/>
  <g id="_2382492349520">
   <rect class="fil0" width="10236" height="10236"/>
   <path class="fil1" d="M1563 8674l2666 0 0 -222 -2444 0 0 -6667 2444 0 -691 699 165 158 905 -889c0,-64 0,-127 0,-190 -1015,0 -2030,0 -3045,0l0 7111zm4065 0c0,-64 0,-127 0,-190l905 -889 173 157 -699 700 2445 0 0 -6667 -2445 0 0 -222 2667 0 0 7111c-1016,0 -2031,0 -3046,0zm-621 -4111l222 0 0 2222 -222 0 0 -2222zm0 -1111l222 0 0 667 -222 0 0 -667z"/>
  </g>
 </g>
</svg>
