<?xml version="1.0" encoding="UTF-8"?>
<!DOCTYPE svg PUBLIC "-//W3C//DTD SVG 1.1//EN" "http://www.w3.org/Graphics/SVG/1.1/DTD/svg11.dtd">
<!-- Creator: CorelDRAW X7 -->
<svg xmlns="http://www.w3.org/2000/svg" xml:space="preserve" width="100%" height="100%" version="1.1" style="shape-rendering:geometricPrecision; text-rendering:geometricPrecision; image-rendering:optimizeQuality; fill-rule:evenodd; clip-rule:evenodd"
viewBox="0 0 2600 2600"
 xmlns:xlink="http://www.w3.org/1999/xlink">
 <defs>
  <style type="text/css">
   <![CDATA[
    .fil0 {fill:none}
    .fil1 {fill:black}
   ]]>
  </style>
 </defs>
 <g id="Layer_x0020_1">
  <metadata id="CorelCorpID_0Corel-Layer"/>
  <g id="_2724832494624">
   <rect class="fil0" width="2600" height="2600"/>
   <path class="fil1" d="M397 2203l677 0 0 -56 -621 0 0 -1694 372 0 249 0 -175 178 42 40 230 -226 0 -40 -230 -226 -44 40 177 178 -677 0 0 1806zm875 -1101l56 0 0 621 -56 0 0 -621zm0 -225l56 0 0 113 -56 0 0 -113zm254 1270l177 -178 -44 -40 -230 226 0 40 230 226 42 -40 -175 -178 284 0 393 0 0 -1806 -677 0 0 56 621 0 0 1694 -337 0 -284 0z"/>
  </g>
 </g>
</svg>
