<?xml version="1.0" encoding="UTF-8"?>
<!DOCTYPE svg PUBLIC "-//W3C//DTD SVG 1.1//EN" "http://www.w3.org/Graphics/SVG/1.1/DTD/svg11.dtd">
<!-- Creator: CorelDRAW X7 -->
<svg xmlns="http://www.w3.org/2000/svg" xml:space="preserve" width="1.02362in" height="1.02362in" version="1.1" style="shape-rendering:geometricPrecision; text-rendering:geometricPrecision; image-rendering:optimizeQuality; fill-rule:evenodd; clip-rule:evenodd"
viewBox="0 0 10236 10236"
 xmlns:xlink="http://www.w3.org/1999/xlink">
 <defs>
  <style type="text/css">
   <![CDATA[
    .fil0 {fill:none}
    .fil1 {fill:black}
   ]]>
  </style>
 </defs>
 <g id="Layer_x0020_1">
  <metadata id="CorelCorpID_0Corel-Layer"/>
  <g id="_2382453840176">
   <polygon class="fil0" points="0,0 10236,0 10236,10236 0,10236 "/>
   <path class="fil1" d="M2562 8285l0 -6333 1667 0 0 221 -1444 0 0 5890 1444 0 -699 -700 173 -157 905 889c0,63 0,126 0,190 -682,0 -1364,0 -2046,0zm2445 -3500l222 0 0 2000 -222 0 0 -2000zm0 -1334l222 0 0 890 -222 0 0 -890zm621 -1499l0 189 905 889 165 -157 -691 -700 1444 0 0 5890c-481,0 -963,0 -1444,0l0 222c556,0 1111,0 1667,0l0 -6333c-682,0 -1364,0 -2046,0z"/>
  </g>
 </g>
</svg>
