<?xml version="1.0" encoding="UTF-8"?>
<!DOCTYPE svg PUBLIC "-//W3C//DTD SVG 1.1//EN" "http://www.w3.org/Graphics/SVG/1.1/DTD/svg11.dtd">
<!-- Creator: CorelDRAW X7 -->
<svg xmlns="http://www.w3.org/2000/svg" xml:space="preserve" width="100%" height="100%" version="1.1" style="shape-rendering:geometricPrecision; text-rendering:geometricPrecision; image-rendering:optimizeQuality; fill-rule:evenodd; clip-rule:evenodd"
viewBox="0 0 2600 2600"
 xmlns:xlink="http://www.w3.org/1999/xlink">
 <defs>
  <style type="text/css">
   <![CDATA[
    .fil0 {fill:none}
    .fil1 {fill:black}
   ]]>
  </style>
 </defs>
 <g id="Layer_x0020_1">
  <metadata id="CorelCorpID_0Corel-Layer"/>
  <g id="_2724835325056">
   <rect class="fil0" width="2600" height="2600"/>
   <path class="fil1" d="M656 2104l-5 0 0 -1608 423 0 0 56 -367 0 0 1496 367 0 -177 -178 44 -40 230 226c0,16 0,32 0,48 -172,0 -343,0 -515,0zm616 -1002l56 0 0 621 -56 0 0 -621zm0 -225l56 0 0 113 -56 0 0 -113zm157 -381l0 48 230 226 42 -40 -175 -178 367 0 0 1496c-123,0 -245,0 -367,0l0 56c141,0 282,0 423,0l0 -1608c-173,0 -346,0 -520,0z"/>
  </g>
 </g>
</svg>
