<?xml version="1.0" encoding="UTF-8"?>
<!DOCTYPE svg PUBLIC "-//W3C//DTD SVG 1.1//EN" "http://www.w3.org/Graphics/SVG/1.1/DTD/svg11.dtd">
<!-- Creator: CorelDRAW X7 -->
<svg xmlns="http://www.w3.org/2000/svg" xml:space="preserve" width="1.02362in" height="1.02362in" version="1.1" style="shape-rendering:geometricPrecision; text-rendering:geometricPrecision; image-rendering:optimizeQuality; fill-rule:evenodd; clip-rule:evenodd"
viewBox="0 0 10236 10236"
 xmlns:xlink="http://www.w3.org/1999/xlink">
 <defs>
  <style type="text/css">
   <![CDATA[
    .fil0 {fill:none}
    .fil1 {fill:black}
   ]]>
  </style>
 </defs>
 <g id="Layer_x0020_1">
  <metadata id="CorelCorpID_0Corel-Layer"/>
  <g id="_2382385402976">
   <polygon class="fil0" points="0,0 10236,0 10236,10236 0,10236 "/>
   <path class="fil1" d="M5007 5007l222 0 0 1555 -222 0 0 -1555zm-778 2000l-2444 0 0 -3777 2444 0 -691 699 165 157 905 -889 0 -190 -3045 0 0 4222 2666 0 0 -222zm1778 0l699 -699 -173 -157 -905 889 0 189 379 0 2667 0 0 -4222 -2667 0 0 223 2445 0 0 3777 -2445 0zm-1000 -3333l222 0 0 889 -222 0 0 -889z"/>
  </g>
 </g>
</svg>
