<?xml version="1.0" encoding="UTF-8"?>
<!DOCTYPE svg PUBLIC "-//W3C//DTD SVG 1.1//EN" "http://www.w3.org/Graphics/SVG/1.1/DTD/svg11.dtd">
<!-- Creator: CorelDRAW X7 -->
<svg xmlns="http://www.w3.org/2000/svg" xml:space="preserve" width="1.02362in" height="1.02362in" version="1.1" style="shape-rendering:geometricPrecision; text-rendering:geometricPrecision; image-rendering:optimizeQuality; fill-rule:evenodd; clip-rule:evenodd"
viewBox="0 0 10236 10236"
 xmlns:xlink="http://www.w3.org/1999/xlink">
 <defs>
  <style type="text/css">
   <![CDATA[
    .fil0 {fill:none}
    .fil1 {fill:black}
   ]]>
  </style>
 </defs>
 <g id="Layer_x0020_1">
  <metadata id="CorelCorpID_0Corel-Layer"/>
  <g id="_2382377593680">
   <polygon class="fil0" points="0,0 10236,0 10236,10236 0,10236 "/>
   <path class="fil1" d="M1785 8451l2444 0 0 -222 -2221 0 0 -6222 2221 0 -691 699 165 158 905 -889 0 -157 -905 -889 -173 157 699 699 -2444 0 0 6666zm3222 -3889l222 0 0 2223 -222 0 0 -2223zm0 -1333l222 0 0 889 -222 0 0 -889zm1000 5000l699 -699 -173 -158 -905 889 0 157 905 889 165 -157 -691 -699 2444 0 0 -6666 -2444 0 0 222 2222 0 0 6222 -2222 0z"/>
  </g>
 </g>
</svg>
