<?xml version="1.0" encoding="UTF-8"?>
<!DOCTYPE svg PUBLIC "-//W3C//DTD SVG 1.1//EN" "http://www.w3.org/Graphics/SVG/1.1/DTD/svg11.dtd">
<!-- Creator: CorelDRAW X7 -->
<svg xmlns="http://www.w3.org/2000/svg" xml:space="preserve" width="1.02362in" height="1.02362in" version="1.1" style="shape-rendering:geometricPrecision; text-rendering:geometricPrecision; image-rendering:optimizeQuality; fill-rule:evenodd; clip-rule:evenodd"
viewBox="0 0 10236 10236"
 xmlns:xlink="http://www.w3.org/1999/xlink">
 <defs>
  <style type="text/css">
   <![CDATA[
    .fil1 {fill:none}
    .fil0 {fill:black}
   ]]>
  </style>
 </defs>
 <g id="Layer_x0020_1">
  <metadata id="CorelCorpID_0Corel-Layer"/>
  <g id="_2382577272992">
   <path class="fil0" d="M5229 4118l-222 0 0 -667 222 0 0 667zm-2398 -1425l0 981 222 0 0 -1223 -111 -110 -1222 0 0 221 927 0c-15,14 -29,28 -43,42 -672,671 -1042,1565 -1042,2514 0,950 370,1842 1042,2514 672,672 1564,1042 2514,1042 489,0 963,-98 1399,-285l0 -244c-433,201 -908,306 -1399,306 -890,0 -1727,-347 -2357,-976 -629,-630 -976,-1467 -976,-2357 0,-890 347,-1727 976,-2357 23,-23 46,-46 70,-68zm4759 4981l926 0 0 222 -1221 0 -112 -111 0 -1222 222 0 0 980c24,-22 47,-45 70,-68 630,-630 976,-1467 976,-2357 0,-890 -346,-1727 -976,-2357 -629,-629 -1467,-977 -2357,-977 -491,0 -966,106 -1399,307l0 -244c437,-186 910,-284 1399,-284 950,0 1843,370 2514,1041 672,671 1042,1565 1042,2514 0,950 -370,1842 -1042,2514 -14,14 -28,28 -42,42zm-2583 -889l0 -2223 222 0 0 2223 -222 0z"/>
   <rect class="fil1" width="10236" height="10236"/>
  </g>
 </g>
</svg>
