<?xml version="1.0" encoding="UTF-8"?>
<!DOCTYPE svg PUBLIC "-//W3C//DTD SVG 1.1//EN" "http://www.w3.org/Graphics/SVG/1.1/DTD/svg11.dtd">
<!-- Creator: CorelDRAW X7 -->
<svg xmlns="http://www.w3.org/2000/svg" xml:space="preserve" width="100%" height="100%" version="1.1" style="shape-rendering:geometricPrecision; text-rendering:geometricPrecision; image-rendering:optimizeQuality; fill-rule:evenodd; clip-rule:evenodd"
viewBox="0 0 2600 2600"
 xmlns:xlink="http://www.w3.org/1999/xlink">
 <defs>
  <style type="text/css">
   <![CDATA[
    .fil0 {fill:none}
    .fil1 {fill:black}
   ]]>
  </style>
 </defs>
 <g id="Layer_x0020_1">
  <metadata id="CorelCorpID_0Corel-Layer"/>
  <g id="_2724846464496">
   <rect class="fil0" width="2600" height="2600"/>
   <g>
    <path class="fil1" d="M1300 397c-241,0 -468,94 -639,264 -170,171 -264,398 -264,639 0,241 94,468 264,639 171,170 398,264 639,264 241,0 468,-94 639,-264 170,-171 264,-398 264,-639 0,-241 -94,-468 -264,-639 -171,-170 -398,-264 -639,-264zm599 1502c-160,160 -373,248 -599,248 -226,0 -439,-88 -599,-248 -160,-160 -248,-373 -248,-599 0,-226 88,-439 248,-599 160,-160 373,-248 599,-248 226,0 439,88 599,248 160,160 248,373 248,599 0,226 -88,439 -248,599z"/>
    <path class="fil1" d="M1300 623c-181,0 -351,70 -479,198 -128,128 -198,298 -198,479 0,181 70,351 198,479 128,128 298,198 479,198 181,0 351,-70 479,-198 128,-128 198,-298 198,-479 0,-181 -70,-351 -198,-479 -128,-128 -298,-198 -479,-198zm439 1116c-117,117 -273,182 -439,182 -166,0 -322,-65 -439,-182 -117,-117 -182,-273 -182,-439 0,-166 65,-322 182,-439 117,-117 273,-182 439,-182 166,0 322,65 439,182 117,117 182,273 182,439 0,166 -65,322 -182,439z"/>
    <path class="fil1" d="M1300 849c-121,0 -234,46 -319,132 -86,85 -133,198 -133,319 0,121 47,234 133,319 85,86 198,132 319,132 121,0 234,-46 319,-132 86,-85 133,-198 133,-319 0,-121 -47,-234 -133,-319 -85,-86 -198,-132 -319,-132zm279 730c-74,75 -173,116 -279,116 -106,0 -205,-41 -279,-116 -75,-74 -116,-174 -116,-279 0,-105 41,-205 116,-279 74,-75 173,-116 279,-116 106,0 205,41 279,116 75,74 116,174 116,279 0,105 -41,205 -116,279z"/>
    <path class="fil1" d="M1300 1074c-60,0 -117,24 -160,66 -42,43 -66,100 -66,160 0,60 24,117 66,160 43,42 100,66 160,66 60,0 117,-24 160,-66 42,-43 66,-100 66,-160 0,-60 -24,-117 -66,-160 -43,-42 -100,-66 -160,-66zm120 346c-32,32 -75,49 -120,49 -45,0 -88,-17 -120,-49 -32,-32 -49,-75 -49,-120 0,-45 17,-88 49,-120 32,-32 75,-49 120,-49 45,0 88,17 120,49 32,32 49,75 49,120 0,45 -17,88 -49,120z"/>
   </g>
  </g>
 </g>
</svg>
