<?xml version="1.0" encoding="UTF-8"?>
<!DOCTYPE svg PUBLIC "-//W3C//DTD SVG 1.1//EN" "http://www.w3.org/Graphics/SVG/1.1/DTD/svg11.dtd">
<!-- Creator: CorelDRAW X7 -->
<svg xmlns="http://www.w3.org/2000/svg" xml:space="preserve" width="1.02362in" height="1.02362in" version="1.1" style="shape-rendering:geometricPrecision; text-rendering:geometricPrecision; image-rendering:optimizeQuality; fill-rule:evenodd; clip-rule:evenodd"
viewBox="0 0 10236 10236"
 xmlns:xlink="http://www.w3.org/1999/xlink">
 <defs>
  <style type="text/css">
   <![CDATA[
    .fil0 {fill:none}
    .fil1 {fill:black}
   ]]>
  </style>
 </defs>
 <g id="Layer_x0020_1">
  <metadata id="CorelCorpID_0Corel-Layer"/>
  <g id="_1950508612080">
   <rect class="fil0" width="10236" height="10236"/>
   <path class="fil1" d="M6500 3959l-1859 0 0 -914c287,-111 491,-390 491,-715 0,-423 -344,-767 -767,-767 -423,0 -767,344 -767,767 0,325 204,604 491,715l0 914 -1859 0 0 4270 1636 0 0 -554c-303,-177 -490,-501 -490,-853 0,-545 444,-989 989,-989 545,0 989,444 989,989 0,352 -187,676 -490,853l0 554 1636 0 0 -1859 914 0c111,287 390,491 715,491 423,0 767,-344 767,-767 0,-423 -344,-767 -767,-767 -325,0 -604,204 -715,490l-914 0 0 -1858zm-4492 4491l0 -4714 1858 0 0 -553c-303,-177 -490,-502 -490,-853 0,-546 444,-990 989,-990 545,0 989,445 989,990 0,351 -187,676 -490,853l0 553 1858 0 0 1859 554 0c177,-303 501,-491 853,-491 545,0 989,445 989,990 0,545 -444,989 -989,989 -352,0 -676,-188 -853,-491l-554 0 0 1859 -2081 0 0 -914c287,-111 491,-389 491,-715 0,-423 -344,-767 -767,-767 -423,0 -767,344 -767,767 0,326 204,604 491,715l0 914 -2081 -1z"/>
  </g>
 </g>
</svg>
