<?xml version="1.0" encoding="UTF-8"?>
<!DOCTYPE svg PUBLIC "-//W3C//DTD SVG 1.1//EN" "http://www.w3.org/Graphics/SVG/1.1/DTD/svg11.dtd">
<!-- Creator: CorelDRAW X7 -->
<svg xmlns="http://www.w3.org/2000/svg" xml:space="preserve" width="1.02362in" height="1.02362in" version="1.1" style="shape-rendering:geometricPrecision; text-rendering:geometricPrecision; image-rendering:optimizeQuality; fill-rule:evenodd; clip-rule:evenodd"
viewBox="0 0 10236 10236"
 xmlns:xlink="http://www.w3.org/1999/xlink">
 <defs>
  <style type="text/css">
   <![CDATA[
    .fil0 {fill:none}
    .fil1 {fill:black}
   ]]>
  </style>
 </defs>
 <g id="Layer_x0020_1">
  <metadata id="CorelCorpID_0Corel-Layer"/>
  <g id="_2320959891088">
   <rect class="fil0" width="10236" height="10236"/>
   <path class="fil1" d="M3956 1233l222 0 0 890 -222 0 0 -890zm3145 1809l0 5334 861 0 0 -5334 -861 0zm223 5111l0 -4888 416 0 0 4888 -416 0zm-1013 223l465 -5314 -858 -75 -12 136 -845 -149 -926 5252 848 150 921 -5226 -451 5151 858 75zm224 -5111l-426 4870 -415 -36 426 -4871 415 37zm-1294 -34l-849 4815 410 72 849 -4814 -410 -73zm-1051 -107l780 363 -2254 4834 -781 -363 2255 -4834zm-1582 4902l2066 -4431 -377 -176 -2066 4431 377 176zm3055 -5807l-111 -193 -771 445 112 193 770 -445zm-3081 1779l-111 -193 771 -445 111 193 -771 445zm-111 -1779l111 -193 771 445 -111 193 -771 -445z"/>
  </g>
 </g>
</svg>
