<?xml version="1.0" encoding="UTF-8"?>
<!DOCTYPE svg PUBLIC "-//W3C//DTD SVG 1.1//EN" "http://www.w3.org/Graphics/SVG/1.1/DTD/svg11.dtd">
<!-- Creator: CorelDRAW X7 -->
<svg xmlns="http://www.w3.org/2000/svg" xml:space="preserve" width="100%" height="100%" version="1.1" style="shape-rendering:geometricPrecision; text-rendering:geometricPrecision; image-rendering:optimizeQuality; fill-rule:evenodd; clip-rule:evenodd"
viewBox="0 0 2600 2600"
 xmlns:xlink="http://www.w3.org/1999/xlink">
 <defs>
  <style type="text/css">
   <![CDATA[
    .fil1 {fill:none}
    .fil0 {fill:black}
   ]]>
  </style>
 </defs>
 <g id="Layer_x0020_1">
  <metadata id="CorelCorpID_0Corel-Layer"/>
  <g id="_2307279316256">
   <path class="fil0" d="M1300 397c-241,0 -468,94 -639,264 -6,7 -13,14 -19,21l40 40 -2 1c7,-7 14,-14 21,-22 160,-160 373,-248 599,-248 226,0 439,88 599,248 9,10 19,20 28,30 -3,-3 -6,-6 -9,-9l40 -40c-6,-7 -13,-14 -19,-21 -171,-170 -398,-264 -639,-264zm0 677c-60,0 -117,24 -160,66 -6,7 -13,14 -18,21l-1 1 0 1 -1 1 0 0 -1 0 0 1 -1 1 0 0 0 1 -1 0 0 1 0 0 -1 1 0 1 -1 0 0 0 0 1 -1 1 0 1 0 0 -1 0 0 1 -1 1 0 0 -1 1 0 0 -1 1 0 0 0 1 -1 1 0 0 0 0 0 1 -1 1 -1 1 0 1 -1 1 0 0 0 1 -1 1 0 0 0 0 -1 1 0 1 -1 1 0 0 0 1 -1 0 0 1 0 0 0 1 -1 1 0 1 0 0 -1 0 0 1 -1 1 0 0 0 1 0 1 -1 0 0 1 0 0 -1 1 0 1 0 0 -1 1 0 1 0 1 -1 0 0 2 0 0 -1 1 0 0 0 1 -1 1 0 0 0 1 -1 1 0 0 0 1c-12,27 -18,57 -18,88 0,60 24,117 66,160 43,42 100,66 160,66 60,0 117,-24 160,-66 42,-43 66,-100 66,-160 0,-60 -24,-117 -66,-160 -43,-42 -100,-66 -160,-66zm120 346c-32,32 -75,49 -120,49 -45,0 -88,-17 -120,-49 -32,-32 -49,-75 -49,-120 0,-45 17,-88 49,-120 32,-32 75,-49 120,-49 45,0 88,17 120,49 32,32 49,75 49,120 0,45 -17,88 -49,120zm-120 -571c-121,0 -234,46 -319,132 -7,6 -13,13 -20,20l40 40 0 0c7,-7 13,-14 20,-20 74,-75 173,-116 279,-116 106,0 205,41 279,116 7,7 14,14 20,21l0 -1 40 -40c-7,-7 -13,-13 -20,-20 -85,-86 -198,-132 -319,-132zm0 -226c-181,0 -351,70 -479,198 -7,7 -13,13 -19,20l40 40c6,-7 12,-13 19,-20 117,-117 273,-182 439,-182 166,0 322,65 439,182 7,7 13,13 20,20l39 -40c-6,-6 -12,-13 -19,-20 -128,-128 -298,-198 -479,-198zm-792 243c-73,132 -111,280 -111,434 0,241 94,468 264,639 171,170 398,264 639,264 241,0 468,-94 639,-264 170,-171 264,-398 264,-639 0,-154 -38,-302 -111,-434l-41 42 -1 -2c63,120 97,255 97,394 0,226 -88,439 -248,599 -160,160 -373,248 -599,248 -226,0 -439,-88 -599,-248 -160,-160 -248,-373 -248,-599 0,-139 34,-273 96,-392l-41 -42z"/>
   <rect class="fil1" width="2600" height="2600"/>
  </g>
 </g>
</svg>
