<?xml version="1.0" encoding="UTF-8"?>
<!DOCTYPE svg PUBLIC "-//W3C//DTD SVG 1.1//EN" "http://www.w3.org/Graphics/SVG/1.1/DTD/svg11.dtd">
<!-- Creator: CorelDRAW X7 -->
<svg xmlns="http://www.w3.org/2000/svg" xml:space="preserve" width="100%" height="100%" version="1.1" style="shape-rendering:geometricPrecision; text-rendering:geometricPrecision; image-rendering:optimizeQuality; fill-rule:evenodd; clip-rule:evenodd"
viewBox="0 0 2600 2600"
 xmlns:xlink="http://www.w3.org/1999/xlink">
 <defs>
  <style type="text/css">
   <![CDATA[
    .fil0 {fill:none}
    .fil1 {fill:black}
   ]]>
  </style>
 </defs>
 <g id="Layer_x0020_1">
  <metadata id="CorelCorpID_0Corel-Layer"/>
  <g id="_2307272636656">
   <rect class="fil0" width="2600" height="2600"/>
   <path class="fil1" d="M2090 1526l-173 -1129 -1234 0 -173 1129 0 677 1580 0 0 -677zm-1241 -847l903 0 0 57 -903 0 0 -57zm-57 282l1016 0 0 57 -1016 0 0 -57zm-57 283l1129 0 0 56 -1129 0 0 -56zm-3 -791l1136 0 165 1073 -451 0 0 28c0,156 -126,282 -282,282 -156,0 -282,-126 -282,-282l0 -28 -451 0 165 -1073zm1302 1694l-1468 0 0 -565 396 0c15,174 161,311 338,311 177,0 323,-137 338,-311l396 0 0 565z"/>
  </g>
 </g>
</svg>
