<?xml version="1.0" encoding="UTF-8"?>
<!DOCTYPE svg PUBLIC "-//W3C//DTD SVG 1.1//EN" "http://www.w3.org/Graphics/SVG/1.1/DTD/svg11.dtd">
<!-- Creator: CorelDRAW X7 -->
<svg xmlns="http://www.w3.org/2000/svg" xml:space="preserve" width="27.1654in" height="16.0067in" version="1.1" style="shape-rendering:geometricPrecision; text-rendering:geometricPrecision; image-rendering:optimizeQuality; fill-rule:evenodd; clip-rule:evenodd"
viewBox="0 0 271654 160067"
 xmlns:xlink="http://www.w3.org/1999/xlink">
 <defs>
  <style type="text/css">
   <![CDATA[
    .fil64 {fill:#846D45}
    .fil35 {fill:#899FCF}
    .fil66 {fill:#9D8457}
    .fil69 {fill:#9F9CCB}
    .fil68 {fill:#A5B6DB}
    .fil34 {fill:#A7B7DB}
    .fil63 {fill:#BB9B61}
    .fil24 {fill:#CAD4EB}
    .fil16 {fill:#D1B585}
    .fil67 {fill:#D7B67C}
    .fil14 {fill:#D7BD91}
    .fil0 {fill:#DDC290}
    .fil2 {fill:#E1C99D}
    .fil8 {fill:#E5D0AA}
    .fil1 {fill:#EBDBBC}
    .fil36 {fill:#EDDFC4}
    .fil5 {fill:#EFE2CA}
    .fil6 {fill:#F4EBDB}
    .fil9 {fill:#F6F1E5}
    .fil7 {fill:#FBF5EF}
    .fil4 {fill:#FCFBF7}
    .fil3 {fill:white}
    .fil65 {fill:white}
    .fil32 {fill:#6B7692;fill-rule:nonzero}
    .fil25 {fill:#6E7C9A;fill-rule:nonzero}
    .fil23 {fill:#7487B2;fill-rule:nonzero}
    .fil28 {fill:#8293BA;fill-rule:nonzero}
    .fil18 {fill:#899FCF;fill-rule:nonzero}
    .fil55 {fill:#9F9CCB;fill-rule:nonzero}
    .fil27 {fill:#A0B2D8;fill-rule:nonzero}
    .fil56 {fill:#A38755;fill-rule:nonzero}
    .fil54 {fill:#A6B7DE;fill-rule:nonzero}
    .fil21 {fill:#A7B7DB;fill-rule:nonzero}
    .fil33 {fill:#B0BEDF;fill-rule:nonzero}
    .fil29 {fill:#B8C5E2;fill-rule:nonzero}
    .fil45 {fill:#BB9B61;fill-rule:nonzero}
    .fil31 {fill:#BCC8E5;fill-rule:nonzero}
    .fil30 {fill:#BECAE6;fill-rule:nonzero}
    .fil47 {fill:#C2CDE6;fill-rule:nonzero}
    .fil60 {fill:#C4C2DF;fill-rule:nonzero}
    .fil22 {fill:#CAD4EB;fill-rule:nonzero}
    .fil15 {fill:#CEB68C;fill-rule:nonzero}
    .fil50 {fill:#CFCEE5;fill-rule:nonzero}
    .fil58 {fill:#D0D9EC;fill-rule:nonzero}
    .fil17 {fill:#D1B585;fill-rule:nonzero}
    .fil39 {fill:#D2AE6D;fill-rule:nonzero}
    .fil62 {fill:#D2D0E6;fill-rule:nonzero}
    .fil26 {fill:#D2DBEE;fill-rule:nonzero}
    .fil52 {fill:#D3DBED;fill-rule:nonzero}
    .fil41 {fill:#D5B376;fill-rule:nonzero}
    .fil53 {fill:#D5DDEF;fill-rule:nonzero}
    .fil19 {fill:#D8E0F1;fill-rule:nonzero}
    .fil44 {fill:#DBBD89;fill-rule:nonzero}
    .fil43 {fill:#DCC08D;fill-rule:nonzero}
    .fil12 {fill:#DFCFB3;fill-rule:nonzero}
    .fil13 {fill:#E2CBA1;fill-rule:nonzero}
    .fil49 {fill:#E3E9F4;fill-rule:nonzero}
    .fil57 {fill:#E4E3F0;fill-rule:nonzero}
    .fil11 {fill:#E5D4B7;fill-rule:nonzero}
    .fil38 {fill:#E6D2AE;fill-rule:nonzero}
    .fil61 {fill:#EAD8BB;fill-rule:nonzero}
    .fil51 {fill:#EBDBBD;fill-rule:nonzero}
    .fil10 {fill:#ECDDC2;fill-rule:nonzero}
    .fil42 {fill:#EDDFC4;fill-rule:nonzero}
    .fil37 {fill:#EFE2CA;fill-rule:nonzero}
    .fil48 {fill:#F6F0E3;fill-rule:nonzero}
    .fil59 {fill:#FBF7F2;fill-rule:nonzero}
    .fil46 {fill:#FBF8F2;fill-rule:nonzero}
    .fil40 {fill:#FFB586;fill-rule:nonzero}
    .fil20 {fill:white;fill-rule:nonzero}
    .fil70 {fill:white;fill-rule:nonzero}
   ]]>
  </style>
 </defs>
 <g id="Layer_x0020_1">
  <metadata id="CorelCorpID_0Corel-Layer"/>
  <g id="_2704407518000">
   <g>
    <path class="fil0" d="M271653 80747c-11228,3650 -24084,27873 -30219,38485l30219 -1940 0 -36545z"/>
    <path class="fil1" d="M9737 116660c-2220,-2776 -7803,-10272 -9737,-13267l0 13899 9737 -632z"/>
    <path class="fil2" d="M271653 0l-31965 0c3855,12837 5927,26446 5927,40538 0,25371 -10048,55008 -21796,75563l33199 -1369c6134,-10612 11074,-22002 14635,-33985l0 -80747z"/>
    <path class="fil3" d="M52168 75777c0,-8836 -7163,-16000 -16000,-16000 -8837,0 -16000,7164 -16000,16000 0,8837 7163,16000 16000,16000 8837,0 16000,-7163 16000,-16000z"/>
    <path class="fil4" d="M80422 70743c0,-18677 -15141,-33818 -33818,-33818 -18677,0 -33818,15141 -33818,33818 0,18677 15141,33818 33818,33818 18677,0 33818,-15141 33818,-33818zm-44254 -10966c8837,0 16000,7164 16000,16000 0,8837 -7163,16000 -16000,16000 -8837,0 -16000,-7163 -16000,-16000 0,-8836 7163,-16000 16000,-16000z"/>
    <path class="fil5" d="M10674 0l-10674 0 0 16278c2953,-5833 6541,-11289 10674,-16278z"/>
    <path class="fil6" d="M33650 0l-22976 0c-4133,4989 -7721,10445 -10674,16278l0 27871c4627,-18958 17036,-34867 33650,-44149z"/>
    <path class="fil5" d="M18362 116292c-5476,-5922 -14683,-19396 -18362,-26663l0 17910c1934,2995 4017,5886 6237,8662l12125 91z"/>
    <path class="fil6" d="M25846 114482c-10833,-9298 -22351,-27461 -25846,-41781l0 22303c3679,7267 8344,13949 13820,19871l12026 -393z"/>
    <path class="fil7" d="M108677 65709c0,-28518 -23119,-51636 -51637,-51636 -28518,0 -51636,23118 -51636,51636 0,19896 11253,37164 27741,45787l13505 -2362c15241,-2665 30552,-4643 45897,-5934 9934,-9411 16130,-22727 16130,-37491zm-62073 -28784c18677,0 33818,15141 33818,33818 0,18677 -15141,33818 -33818,33818 -18677,0 -33818,-15141 -33818,-33818 0,-18677 15141,-33818 33818,-33818z"/>
    <path class="fil8" d="M244022 0l-33692 0c5630,14092 8726,29471 8726,45572 0,22022 -5791,42691 -15934,60567 4381,6024 21077,5333 28364,4129 11748,-20555 18462,-44359 18462,-69730 0,-14092 -2071,-27701 -5926,-40538z"/>
    <path class="fil1" d="M212968 0l-34501 0c8263,15011 12965,32260 12965,50607 0,19169 -5133,37140 -14099,52613l0 0c-541,5061 24916,6961 28427,2919 10143,-17876 15934,-38545 15934,-60567 0,-16101 -3096,-31480 -8726,-45572z"/>
    <path class="fil5" d="M180474 0l-38630 0c12513,15104 20034,34494 20034,55641 0,11763 -2327,22982 -6546,33223 2787,166 7515,13557 8982,16140 5012,277 11688,2209 15027,-1784 8966,-15473 14098,-33444 14098,-52613 0,-18347 -4701,-35596 -12965,-50607z"/>
    <path class="fil6" d="M165185 55641c0,-21147 -7521,-40537 -20034,-55641l-47077 0c21256,11876 35629,34597 35629,60675 0,10034 -2128,19571 -5957,28184l6772 8333c2458,-855 19452,-4235 24121,-8328 4219,-10241 6546,-21460 6546,-33223z"/>
    <path class="fil9" d="M33650 0c-16614,9282 -29023,25191 -33650,44149l0 33052c3495,14320 11430,26899 22263,36198l10882 -1903c-16488,-8623 -27741,-25891 -27741,-45787 0,-28518 23118,-51636 51636,-51636 28518,0 51637,23118 51637,51636 0,14764 -6196,28080 -16130,37491 4928,-414 9859,-758 14793,-1031l3020 -11145c346,-1278 1506,-2165 2830,-2165l17784 0c3829,-8613 5957,-18150 5957,-28184 0,-26078 -14372,-48799 -35628,-60675l-32730 0 -34923 0z"/>
   </g>
   <g>
    <g>
     <path class="fil10" d="M52403 49167c0,2841 -2315,5156 -5157,5156 -2841,0 -5141,-2315 -5141,-5156 0,-2841 2300,-5142 5141,-5142 2842,0 5157,2301 5157,5142z"/>
     <g>
      <path class="fil11" d="M43278 52429c-737,-887 -1173,-2014 -1173,-3262 0,-2841 2300,-5142 5141,-5142 1594,0 3007,722 3954,1850 0,0 -3879,-1489 -6269,902 -2390,2390 -1653,5652 -1653,5652z"/>
      <path class="fil12" d="M48125 46327c-60,60 -121,120 -181,180 -90,90 -90,256 0,346 106,90 256,90 361,0 60,-60 105,-120 166,-165 90,-106 90,-271 0,-361 -91,-90 -256,-90 -346,0z"/>
      <path class="fil12" d="M49493 52250c331,0 331,-511 0,-511 -316,0 -316,511 0,511z"/>
      <path class="fil12" d="M46411 48386c421,0 421,-676 0,-676 -436,0 -436,676 0,676z"/>
     </g>
     <g>
      <path class="fil12" d="M45374 49243l180 0c211,0 211,-330 0,-330l-180 0c-211,0 -211,330 0,330z"/>
      <path class="fil12" d="M48861 49948c752,0 752,-1172 0,-1172 -752,0 -752,1172 0,1172z"/>
     </g>
    </g>
    <g>
     <path class="fil13" d="M0 0l0 64286c29309,-7388 51006,-33341 51243,-64286l-51243 0z"/>
     <path class="fil14" d="M0 57908c22943,-5359 42424,-22201 49687,-45908 340,-1107 645,-2203 928,-3310 -3801,27029 -24085,48908 -50614,55596l0 -6378 -1 0z"/>
     <path class="fil15" d="M34341 29827c-427,0 -428,650 0,650 427,0 428,-650 0,-650z"/>
     <path class="fil15" d="M12953 41875l0 -111c0,-145 -226,-145 -226,0l0 111c0,132 226,132 226,0z"/>
     <path class="fil15" d="M29707 32618c-136,0 -136,211 0,211 148,0 148,-211 0,-211z"/>
     <path class="fil15" d="M20635 48751c-46,-33 -80,-78 -125,-111 -45,-55 -124,22 -68,78 34,33 68,77 114,111 45,44 124,-22 79,-78l0 0z"/>
     <path class="fil15" d="M10555 49072c-68,0 -68,111 0,111 79,0 79,-111 0,-111z"/>
     <path class="fil15" d="M12795 23317c-34,33 -68,66 -114,111 -45,44 34,121 80,77 45,-44 79,-77 113,-111 56,-55 -22,-132 -79,-77z"/>
     <path class="fil15" d="M8428 33769c45,-44 79,-77 113,-111 57,-55 -22,-133 -68,-77 -45,33 -79,66 -124,111 -45,44 34,121 80,77l-1 0z"/>
     <path class="fil15" d="M17738 34899c-68,0 -68,111 0,111 68,0 68,-111 0,-111z"/>
     <path class="fil15" d="M23553 27812l0 111c0,145 226,145 226,0l0 -111c0,-132 -226,-132 -226,0z"/>
     <path class="fil15" d="M30850 22353l-113 0c-147,0 -147,211 0,211l113 0c148,0 148,-211 0,-211z"/>
     <path class="fil15" d="M43611 23018l-113 0c-136,0 -136,221 0,221l113 0c148,0 148,-221 0,-221z"/>
     <path class="fil15" d="M11245 50080c-215,0 -215,320 0,320 215,0 215,-320 0,-320z"/>
     <path class="fil15" d="M20533 39416l0 -111c0,-88 -80,-166 -170,-166 -90,12 -170,78 -170,166l0 111c0,89 80,166 170,166 90,-11 170,-77 170,-166z"/>
     <path class="fil15" d="M15917 33958c-283,0 -283,432 0,432 283,0 283,-432 0,-432z"/>
     <path class="fil15" d="M28802 27934c-147,0 -147,211 0,211 136,0 136,-211 0,-211z"/>
     <path class="fil15" d="M32332 27369c-147,0 -147,222 0,222 147,0 147,-222 0,-222z"/>
     <path class="fil15" d="M40534 20903c-136,0 -136,211 0,211 147,0 147,-211 0,-211z"/>
     <path class="fil15" d="M42356 17880l0 -111c0,-133 -215,-133 -215,0l0 111c0,144 215,144 215,0z"/>
     <path class="fil15" d="M43690 19297c46,-33 80,-77 114,-111 101,-99 -46,-254 -148,-155 -45,45 -79,78 -113,111 -102,100 45,255 147,155z"/>
     <path class="fil15" d="M43045 20449c-147,0 -147,222 0,222 148,0 148,-222 0,-222z"/>
     <path class="fil15" d="M46123 20781l0 -110c0,-133 -226,-133 -226,0l0 110c0,145 226,145 226,0z"/>
     <path class="fil15" d="M42254 24911l-124 0c-136,0 -136,221 0,221l124 0c136,0 136,-221 0,-221z"/>
     <path class="fil15" d="M40194 23018c-135,0 -135,221 0,221 148,0 148,-221 0,-221z"/>
     <path class="fil15" d="M36695 16025c-148,0 -148,221 0,221 135,0 135,-221 0,-221z"/>
     <path class="fil15" d="M21505 23350c-147,0 -147,221 0,221 136,0 136,-221 0,-221z"/>
     <path class="fil15" d="M39742 28598c-147,0 -147,222 0,222 136,0 136,-222 0,-222z"/>
     <path class="fil15" d="M37344 32164c-136,0 -136,221 0,221 147,0 147,-221 0,-221z"/>
     <path class="fil15" d="M3258 31278l-114 0c-136,0 -136,210 0,210l114 0c147,0 147,-210 0,-210z"/>
     <path class="fil15" d="M6799 27591l0 -111c0,-145 -226,-145 -226,0l0 111c0,144 226,144 226,0z"/>
     <path class="fil15" d="M12727 29717c-148,0 -148,210 0,210 135,0 135,-210 0,-210z"/>
     <path class="fil15" d="M2353 36859c-148,0 -148,210 0,210 136,0 136,-210 0,-210z"/>
     <path class="fil15" d="M9638 39416l0 -111c0,-144 -215,-144 -215,0l0 111c0,145 215,145 215,0z"/>
     <path class="fil15" d="M12387 46116c-147,0 -147,221 0,221 136,0 136,-221 0,-221z"/>
     <path class="fil15" d="M2175 51656c-136,0 -136,211 0,211 147,0 147,-211 0,-211z"/>
     <path class="fil15" d="M5735 55672c34,-34 80,-78 114,-111 101,-100 -57,-255 -159,-155 -34,44 -68,78 -113,111 -102,99 56,254 158,155z"/>
     <path class="fil15" d="M26868 38310c34,-45 68,-78 113,-111 57,-67 57,-178 0,-233 -68,-66 -181,-66 -237,0 -34,33 -80,78 -114,111 -68,55 -68,166 0,233 57,55 170,55 238,0z"/>
     <path class="fil15" d="M18994 44278c-215,0 -215,320 0,320 215,0 215,-320 0,-320z"/>
     <path class="fil15" d="M16426 47898l0 -111c0,-88 -79,-166 -170,-166 -90,0 -169,78 -169,166l0 111c0,89 79,166 169,166 91,-11 170,-77 170,-166z"/>
     <path class="fil15" d="M9536 25089c-215,0 -215,320 0,320 216,0 216,-320 0,-320z"/>
     <path class="fil15" d="M45484 3650l-113 0c-91,0 -170,78 -170,166 11,88 79,166 170,166l113 0c90,0 170,-78 170,-166 -12,-88 -80,-166 -170,-166z"/>
     <path class="fil15" d="M22184 16385c-215,0 -215,321 0,321 215,0 215,-321 0,-321z"/>
     <path class="fil15" d="M18078 27314l-114 0c-79,0 -170,78 -158,166 0,89 68,166 158,166l114 0c90,0 169,-77 169,-166 0,-88 -68,-166 -169,-166z"/>
     <path class="fil15" d="M15464 24524c-215,0 -215,332 0,332 215,0 215,-332 0,-332z"/>
     <path class="fil15" d="M11584 24745c-215,0 -215,332 0,332 215,0 215,-332 0,-332z"/>
     <path class="fil15" d="M9423 27989c-215,0 -215,321 0,321 204,0 215,-321 0,-321z"/>
     <path class="fil15" d="M13631 52139c-283,0 -283,443 0,443 294,0 294,-443 0,-443z"/>
     <path class="fil15" d="M17444 31787c-45,-33 -79,-77 -113,-111 -90,-77 -238,-88 -317,0 -80,89 -90,222 0,311 34,33 79,66 113,111 80,77 238,88 317,0 80,-89 80,-222 0,-311z"/>
     <path class="fil15" d="M21732 33216c-68,33 -147,78 -226,111 -102,55 -136,199 -79,299 68,99 192,133 305,77 80,-33 158,-77 226,-110 102,-56 147,-200 80,-299 -68,-100 -193,-133 -306,-78z"/>
     <path class="fil15" d="M39290 15488c-216,0 -216,333 0,333 203,0 215,-333 0,-333z"/>
     <path class="fil15" d="M45670 12366c-215,0 -215,321 0,321 215,0 215,-321 0,-321z"/>
     <path class="fil15" d="M11924 33005c-215,0 -215,332 0,332 215,0 215,-332 0,-332z"/>
     <path class="fil15" d="M10781 35906c-204,0 -204,321 0,321 215,0 215,-321 0,-321z"/>
     <path class="fil15" d="M3382 34124c-215,0 -215,321 0,321 203,0 203,-321 0,-321z"/>
     <path class="fil15" d="M5430 34124c-215,0 -215,321 0,321 215,0 215,-321 0,-321z"/>
     <path class="fil15" d="M22637 43834c-204,0 -215,321 0,321 215,0 215,-321 0,-321z"/>
     <path class="fil15" d="M10499 15754c-215,0 -215,321 0,321 215,0 215,-321 0,-321z"/>
     <path class="fil15" d="M6799 21966c-215,0 -215,321 0,321 215,0 215,-321 0,-321z"/>
     <path class="fil15" d="M15547 38727c-215,0 -215,321 0,321 216,0 216,-321 0,-321z"/>
     <path class="fil15" d="M12397 38370c-215,0 -215,321 0,321 215,0 215,-321 0,-321z"/>
     <path class="fil15" d="M9070 43986c-215,0 -215,320 0,320 215,0 215,-320 0,-320z"/>
     <path class="fil15" d="M5656 48064c-215,0 -215,333 0,333 215,0 215,-333 0,-333z"/>
     <path class="fil15" d="M7590 49294c-215,0 -215,332 0,332 215,0 215,-332 0,-332z"/>
     <path class="fil15" d="M7364 51863c-215,0 -215,321 0,321 215,0 215,-321 0,-321z"/>
     <path class="fil15" d="M6618 30315c34,-34 67,-78 113,-111 147,-145 147,-399 0,-543 -158,-133 -396,-144 -555,0 -34,44 -67,78 -113,111 -136,144 -147,398 0,543 158,132 396,144 555,0z"/>
     <path class="fil15" d="M38373 19453l-113 0c-147,0 -147,210 0,210l113 0c148,0 148,-210 0,-210z"/>
     <path class="fil15" d="M29934 39195c-136,0 -136,221 0,221 147,0 147,-221 0,-221z"/>
     <path class="fil15" d="M27275 36704c46,-33 80,-78 113,-111 102,-100 -45,-255 -147,-155 -45,45 -79,78 -113,111 -102,100 45,254 147,155z"/>
     <path class="fil15" d="M32106 35176c-147,0 -147,221 0,221 136,0 136,-221 0,-221z"/>
     <path class="fil15" d="M32785 30824l0 -111c0,-133 -226,-133 -226,0l0 111c0,144 226,144 226,0z"/>
     <path class="fil15" d="M16030 45784l-113 0c-147,0 -147,210 0,210l113 0c148,0 148,-210 0,-210z"/>
     <path class="fil15" d="M13292 48795c-136,0 -136,211 0,211 147,0 147,-211 0,-211z"/>
     <path class="fil15" d="M4977 28765c-215,0 -215,332 0,332 215,0 215,-332 0,-332z"/>
     <path class="fil15" d="M4739 29772c-203,0 -203,321 0,321 216,0 216,-321 0,-321z"/>
     <path class="fil15" d="M1733 11908c-215,0 -215,332 0,332 204,0 204,-332 0,-332z"/>
     <path class="fil15" d="M5316 27424c-215,0 -215,333 0,333 216,0 216,-333 0,-333z"/>
     <path class="fil15" d="M3721 27989c-215,0 -215,321 0,321 215,0 215,-321 0,-321z"/>
     <path class="fil15" d="M11132 48906c-284,0 -294,432 0,432 283,0 283,-432 0,-432z"/>
     <path class="fil15" d="M1323 37634c-136,0 -136,221 0,221 147,0 147,-221 0,-221z"/>
     <path class="fil15" d="M2013 37634c-294,0 -294,443 0,443 283,0 283,-443 0,-443z"/>
     <path class="fil16" d="M25376 20736c1149,-3156 3924,-5068 6483,-4635 -395,-351 -846,-632 -1349,-825 -2758,-1052 -6025,927 -7297,4421 -1272,3495 -68,7180 2690,8233 267,101 540,167 814,213 -1765,-1570 -2381,-4551 -1341,-7407z"/>
     <path class="fil14" d="M15275 38317c1650,-704 3397,-351 4148,765 -5,-274 -57,-545 -162,-803 -580,-1413 -2531,-1927 -4357,-1147 -1826,780 -2837,2558 -2256,3971 56,137 128,263 209,382 -20,-1227 926,-2530 2418,-3168z"/>
     <path class="fil16" d="M9952 45362c1070,-717 2355,-698 3041,-8 -41,-193 -115,-378 -226,-547 -606,-923 -2057,-1028 -3241,-235 -1185,794 -1654,2185 -1048,3109 58,89 127,168 201,242 -184,-865 305,-1913 1273,-2561z"/>
     <path class="fil15" d="M32325 35573c-307,0 -307,-475 0,-475 330,0 330,475 0,475z"/>
     <path class="fil15" d="M4463 33979c-155,0 -155,-237 0,-237 154,0 154,237 0,237z"/>
     <path class="fil15" d="M5453 30403c-308,0 -308,-475 0,-475 330,0 330,475 0,475z"/>
     <path class="fil15" d="M13993 43198l0 237c0,323 -485,323 -485,0l0 -237c0,-301 485,-301 485,0z"/>
     <path class="fil15" d="M5453 47118l-242 0c-307,0 -307,-474 0,-474l242 0c330,0 330,474 0,474z"/>
     <path class="fil15" d="M10977 27818c-463,0 -463,-711 0,-711 484,0 484,711 0,711z"/>
     <path class="fil15" d="M27633 20555l0 236c0,323 -505,323 -505,0l0 -236c0,-302 505,-302 505,0z"/>
     <path class="fil15" d="M26559 27214c-308,0 -308,-474 0,-474 307,0 307,474 0,474z"/>
     <path class="fil15" d="M13002 20580c-330,0 -330,-495 0,-495 308,0 308,495 0,495z"/>
     <path class="fil15" d="M41128 18232c-485,0 -485,-711 0,-711 462,0 462,711 0,711z"/>
     <path class="fil15" d="M24050 35680c-485,0 -485,-711 0,-711 462,0 462,711 0,711z"/>
     <path class="fil17" d="M6707 41734c-88,-87 -154,-172 -241,-259 -155,-129 -155,-366 0,-495 132,-151 374,-151 506,0 88,87 175,151 264,237 132,151 132,365 0,517 -155,129 -374,129 -529,0z"/>
     <path class="fil15" d="M4704 19223l-241 0c-198,0 -374,-172 -374,-366 22,-194 154,-366 374,-366l241 0c198,0 374,172 374,366 -22,194 -155,366 -374,366z"/>
     <path class="fil15" d="M2438 25857c-462,0 -462,-711 0,-711 485,0 485,711 0,711z"/>
     <path class="fil17" d="M19516 26719c-616,0 -616,-969 0,-969 638,0 638,969 0,969z"/>
     <path class="fil15" d="M17452 39593c89,-86 155,-172 242,-236 220,-216 572,107 352,323 -88,86 -175,172 -264,258 -220,216 -550,-129 -330,-345z"/>
     <path class="fil15" d="M19032 43198c-330,0 -330,-495 0,-495 307,0 307,495 0,495z"/>
     <path class="fil17" d="M34591 24134c-462,0 -462,-711 0,-711 485,0 485,711 0,711z"/>
     <path class="fil15" d="M34350 27323c-485,0 -485,-711 0,-711 462,0 462,711 0,711z"/>
     <path class="fil17" d="M39367 22799c-66,87 -154,172 -241,237 -132,151 -374,151 -528,0 -132,-130 -132,-366 0,-495 88,-87 175,-172 264,-237 132,-151 373,-151 505,0 155,129 155,366 0,495z"/>
     <path class="fil15" d="M10977 30144c-617,0 -617,-947 0,-947 637,0 637,947 0,947z"/>
     <path class="fil15" d="M41693 8444l0 237c0,323 -506,323 -506,0l0 -237c0,-301 506,-301 506,0z"/>
     <path class="fil15" d="M12979 9390c66,86 155,172 242,236 132,152 374,152 528,0 132,-129 132,-365 0,-495 -88,-86 -175,-172 -264,-236 -132,-151 -374,-151 -506,0 -154,129 -154,366 0,495z"/>
     <path class="fil15" d="M35363 10554c-330,0 -330,-509 0,-509 347,0 347,509 0,509z"/>
     <path class="fil15" d="M7982 4847c-215,0 -215,321 0,321 215,0 215,-321 0,-321z"/>
     <path class="fil15" d="M25419 10166c-215,0 -215,332 0,332 215,0 215,-332 0,-332z"/>
     <path class="fil15" d="M3432 43939c-203,0 -203,321 0,321 215,0 215,-321 0,-321z"/>
    </g>
   </g>
   <g>
    <g>
     <path class="fil18" d="M223730 43275c0,0 -46,-531 4,-972 50,-440 -18,-1117 -59,-1418 -42,-300 -452,-1237 -463,-1725l1197 -2167 742 5463c0,0 -679,199 -964,377 -286,178 -457,442 -457,442z"/>
     <path class="fil18" d="M226468 45075c0,0 588,142 1026,-178 678,-497 1232,-1622 505,-2366l-2450 257 919 2287z"/>
     <path class="fil19" d="M222199 33449c-226,1060 449,2102 1508,2328 1059,226 2101,-449 2328,-1508 226,-1059 -449,-2101 -1509,-2328 -1059,-226 -2101,449 -2327,1508z"/>
     <path class="fil20" d="M222862 35367c-541,-451 -821,-1180 -663,-1918 118,-551 456,-998 903,-1268 0,0 -823,728 -815,1584 9,909 575,1602 575,1602z"/>
     <path class="fil21" d="M223326 32979c0,0 -205,-199 -386,-489 -181,-291 -129,-412 -110,-461 20,-49 854,-459 1337,-528 483,-69 1401,3 1927,580 527,576 512,1515 494,1849 0,0 -808,86 -1590,396 -782,310 -1485,903 -1485,903l-82 -303 194 -1185 -299 -762z"/>
     <path class="fil20" d="M226094 32081c-526,-577 -1443,-649 -1927,-580 -483,69 -1317,479 -1337,528 -19,49 -71,170 110,461 0,0 -115,-262 50,-431 165,-169 1402,-739 2302,-435 749,254 802,457 802,457z"/>
     <path class="fil22" d="M223660 33738l68 -725 82 -189c228,128 356,394 299,662 -39,183 -155,329 -307,411l-142 -159z"/>
     <path class="fil23" d="M223110 33273c-47,221 94,438 314,485 221,47 438,-94 485,-314 47,-221 -93,-438 -314,-485 -221,-47 -438,94 -485,314z"/>
     <path class="fil18" d="M223244 33302c-32,147 62,291 209,323 147,31 292,-62 323,-210 31,-147 -62,-291 -209,-323 -147,-31 -292,63 -323,210z"/>
     <path class="fil23" d="M223872 34068c206,-106 365,-299 417,-543 71,-335 -79,-666 -353,-840l-126 139c228,128 356,394 299,663 -39,182 -155,328 -307,410l70 171z"/>
     <path class="fil24" d="M224841 31806c-2,121 92,220 211,223 119,2 217,-94 219,-215 3,-121 -92,-220 -211,-223 -118,-2 -217,94 -219,215zm182 39c-8,-9 -14,-22 -13,-35 0,-15 6,-28 15,-37 8,-8 20,-13 32,-13 13,0 24,6 32,14 8,9 14,22 14,36l0 1c-1,14 -7,27 -16,36 -8,8 -19,13 -31,13 -13,0 -25,-6 -33,-15z"/>
     <path class="fil18" d="M226816 34443l-228 -513c0,0 -2315,223 -3466,1606 0,0 2656,-672 3694,-1093z"/>
     <path class="fil21" d="M226370 34606c0,0 -1255,43 -1857,286 -602,243 -1442,634 -1543,764 -101,131 -122,233 -122,233l1049 63 645 -495 1909 -171 -81 -680z"/>
     <polygon class="fil18" points="227022,35249 226871,34434 226617,34473 226755,35258 "/>
     <polygon class="fil22" points="226617,34473 226370,34606 226451,35286 226755,35258 "/>
     <path class="fil22" d="M224659 34183c-19,53 7,111 60,130 52,19 110,-8 129,-60 19,-52 -8,-110 -60,-129 -52,-20 -110,7 -129,59z"/>
     <path class="fil25" d="M223760 33678c-19,52 8,110 60,129 52,19 110,-7 129,-60 20,-52 -7,-110 -59,-129 -52,-19 -110,8 -130,60z"/>
     <path class="fil18" d="M223865 33776c-132,14 -297,65 -365,187 -176,316 190,433 412,421 277,-15 560,-109 813,-219 76,-33 131,84 54,118 -336,146 -876,358 -1229,172 -188,-99 -271,-366 -166,-554 87,-158 288,-234 458,-253 83,-9 106,119 23,128z"/>
     <path class="fil26" d="M223730 43275c0,0 -580,296 -913,2598 -333,2302 -367,1844 -375,2254 -8,409 149,482 128,703 -21,221 134,678 350,1030 217,351 1207,1490 1395,1663 189,173 465,431 532,551 67,121 383,69 383,69 0,0 172,-89 238,-307 67,-218 232,-249 303,-333 71,-85 80,-248 166,-310 86,-61 459,-134 545,-255 85,-120 139,-155 221,-164 81,-10 182,-15 254,-105 73,-91 86,-28 196,-18 111,10 154,26 258,-58 104,-84 121,-40 209,-15 87,25 78,256 78,256 0,0 78,-57 111,-116 32,-59 28,-133 -3,-173 -32,-40 -53,-31 -81,-90 -27,-59 -171,-189 -306,-211 -134,-22 -280,-146 -343,-286 -63,-139 -139,-189 -228,-300 -89,-112 -73,-308 -202,-388 -129,-81 -186,-279 -314,-359 -129,-81 -223,-260 -223,-386 0,-126 -171,-348 -333,-429 0,0 222,-1007 176,-1162 -47,-156 -154,-305 -141,-395 12,-90 229,-362 300,-692 70,-329 38,-456 125,-556 88,-101 229,-110 293,-375 63,-265 337,-643 -193,-1613 -558,-1021 -1569,-912 -1919,-794 -350,117 -687,766 -687,766z"/>
     <path class="fil27" d="M226957 50669c73,-91 86,-28 196,-18 111,10 154,26 258,-58 104,-84 121,-40 209,-15 87,25 78,256 78,256 0,0 78,-57 111,-116 32,-59 28,-133 -3,-173 -32,-40 -53,-31 -81,-90 -27,-59 -171,-189 -306,-211 -134,-22 -280,-146 -343,-286 -63,-139 -139,-189 -228,-300 -89,-112 -73,-308 -202,-388 -129,-81 -186,-279 -314,-359 -129,-81 -223,-260 -223,-386 0,-126 -171,-348 -333,-429 0,0 222,-1007 176,-1162 -47,-156 -154,-305 -141,-395 12,-90 229,-362 300,-692 70,-329 38,-456 125,-556 79,-90 200,-107 270,-298 0,0 -182,290 -417,240 -234,-50 -343,247 -225,429 118,182 -30,179 -204,527 -174,347 -32,421 -27,712 5,291 -131,297 -138,488 -7,190 191,198 87,374 -104,177 -249,547 -84,583 164,35 465,241 441,355 -25,114 98,472 275,510 178,38 284,286 346,617 62,332 257,199 358,355 101,156 39,486 39,486z"/>
     <path class="fil28" d="M227667 50913l31 -79c0,0 95,-166 35,-258 -60,-92 -1183,-266 -1953,484 -771,751 -617,1088 -617,1088l233 150c0,0 260,148 564,-32 304,-181 1707,-1353 1707,-1353z"/>
     <path class="fil19" d="M229656 53400c0,0 -145,-224 -431,-344 -286,-121 -393,-303 -454,-389 -61,-86 -114,-117 -203,-229 -89,-112 -487,-634 -586,-887 -98,-253 -161,-552 -354,-673 -193,-120 -997,232 -1413,719 -416,488 -343,491 -369,611l-106 123c0,0 -194,-147 -273,-210 0,0 -86,94 -71,177 0,0 839,603 1099,877 259,275 982,1019 955,1364 -28,346 -209,639 -289,761 -79,122 -347,509 -332,811 15,301 9,519 225,684 0,0 237,38 662,-462 425,-499 622,-894 793,-1229 171,-335 218,-431 496,-643 277,-213 233,-256 241,-386 8,-131 -103,-387 -103,-387l513 -288z"/>
     <path class="fil27" d="M229143 53688l513 -288c0,0 -145,-224 -431,-344 -286,-121 -393,-303 -454,-389 -61,-86 -114,-117 -203,-229 -89,-112 -487,-634 -586,-887 -98,-253 -161,-552 -354,-673 -113,-71 -440,22 -774,211 0,0 685,314 726,734 42,420 1195,1104 1252,1460 56,357 311,405 311,405z"/>
     <path class="fil28" d="M230229 54006c0,0 -36,384 -317,675 -281,291 -590,437 -696,653 -106,216 -115,599 -425,904 -311,305 -893,797 -1705,564l2248 -2516 391 -282 504 2z"/>
     <path class="fil29" d="M230229 54006l-110 -355 -463 -251c0,0 -398,94 -525,219 -126,126 9,333 10,420 2,86 41,181 -86,280 -127,99 -352,283 -420,381 -67,98 -665,912 -665,912 0,0 -120,-152 -295,-110 -175,43 -351,403 -425,407 -74,4 -235,-388 -235,-388 0,0 -244,365 -203,732 41,367 155,484 242,542 87,59 570,-183 1240,-995 671,-811 723,-1025 892,-1195 169,-169 268,-387 569,-521l474 -78z"/>
     <path class="fil30" d="M230636 50984c0,0 -268,42 -357,23 -88,-19 -96,-107 -175,-110 -79,-4 -390,-190 -488,-290 -98,-101 -215,-205 -284,-253 -70,-48 -265,-189 -319,-247 -54,-58 -92,-192 -208,-270 -116,-78 -272,-244 -349,-380 -77,-135 -121,-430 -226,-558 -105,-129 -208,-204 -237,-316 -29,-112 -35,-240 -103,-294 -68,-54 -147,-151 -154,-212 -7,-61 -71,-8 -195,-234 -124,-225 -86,-436 -189,-637 -103,-201 -111,-196 -131,-379 -21,-184 -122,-205 -127,-306 -5,-100 -116,-263 -98,-412 19,-148 -207,-269 -211,-376 -4,-107 -317,-658 -317,-658 0,0 1293,31 1587,-1100 268,-1027 -40,-1434 -56,-1444l1001 -124c0,0 38,353 28,490 -9,137 58,258 124,318 67,61 155,457 161,585 6,127 335,602 389,971 54,370 -58,425 63,544 120,119 237,223 344,405 107,182 278,404 352,526 73,122 221,206 242,357 21,150 -8,190 14,308 21,117 22,362 -28,438 0,0 21,57 4,107 -17,49 170,135 164,194 -6,58 37,167 130,200 92,33 335,45 384,155 50,110 34,153 81,183 46,30 59,92 51,130 -8,38 152,126 230,228 77,103 25,224 159,280 134,55 236,136 293,274l-1549 1884z"/>
     <path class="fil18" d="M231548 49874l637 -774c-57,-138 -159,-219 -293,-274 -134,-56 -82,-177 -159,-280 -78,-102 -238,-190 -230,-228 8,-38 -5,-100 -52,-130 -46,-30 -30,-73 -80,-183 -49,-110 -292,-122 -384,-155 -93,-33 -136,-142 -130,-200 6,-59 -181,-145 -164,-194 17,-50 -4,-107 -4,-107 50,-76 49,-321 28,-438 -22,-118 7,-158 -14,-308 -21,-151 -169,-235 -242,-357 -74,-122 -245,-344 -352,-526 -107,-182 -224,-286 -344,-405 -121,-119 -10,-174 -63,-544 -54,-369 -383,-844 -389,-971 -6,-128 -94,-524 -161,-585 -66,-60 -133,-181 -124,-318 10,-137 -28,-490 -28,-490l-421 52c0,0 -180,456 -4,728 176,272 503,377 435,694 -68,317 -178,906 45,1038 222,133 265,677 217,903 -48,226 290,271 462,536 65,101 -58,388 15,603 70,209 302,126 323,236 49,253 -32,504 122,583 359,183 570,306 729,551 159,245 93,382 202,549 108,168 494,663 423,994z"/>
     <path class="fil23" d="M232223 49698c0,0 148,-352 -38,-598 -186,-245 -1011,-76 -1606,473 -595,549 -532,1000 -418,1150 114,150 371,126 371,126l1691 -1151z"/>
     <path class="fil22" d="M233559 54925c0,0 -263,-114 -408,-260 -146,-146 -210,-319 -204,-432 7,-114 -29,-568 -77,-715 -48,-147 -136,-192 -185,-251 -49,-60 -247,-376 -277,-484 -30,-108 -364,-511 -694,-868 -330,-358 -1038,-832 -1260,-1136 -223,-304 276,-838 615,-1040 340,-201 699,-270 901,-245 203,26 279,245 341,453 62,208 578,1060 775,1381 196,320 984,1412 984,1412l-511 2185z"/>
     <path class="fil18" d="M232870 53250l1200 -510c0,0 -788,-1092 -984,-1412 -197,-321 -713,-1173 -775,-1381 -62,-208 -138,-427 -341,-453 -202,-25 -561,44 -901,245 0,0 417,178 925,719 1199,1278 876,2792 876,2792z"/>
     <path class="fil23" d="M234162 53034c0,0 1,-336 -294,-443 -295,-107 -805,129 -939,383 -134,254 -28,418 71,492 99,75 261,207 280,286 18,79 76,241 56,480 -20,239 -48,472 72,594 120,123 238,131 350,80 113,-51 895,-547 989,-616 94,-68 170,-209 192,-383 21,-159 -16,-277 -201,-485 -226,-253 -362,-188 -576,-388z"/>
     <path class="fil21" d="M231613 37922c0,0 203,-80 270,-145 67,-66 182,-68 241,-55 59,13 124,0 130,127 2,30 27,81 27,81 0,0 77,63 137,94 60,30 118,153 116,285 0,0 127,67 133,143 6,77 -49,290 -49,290 0,0 103,80 78,172 -24,92 -79,310 -134,338 -54,28 -75,81 -143,31 -69,-50 -108,-138 -111,-187 -2,-49 6,-87 6,-87 0,0 -246,75 -517,124l-184 -1211z"/>
     <path class="fil31" d="M231895 38774c29,-215 0,-411 -98,-596 -97,-184 -268,-340 -415,-372 -148,-31 -177,-20 -203,-65 -26,-45 -135,-175 -233,-213 -98,-39 -115,-42 -148,-72 -34,-29 -198,-148 -307,-158 -108,-10 -931,-959 -1727,-1306l712 3162c0,0 435,221 620,203 185,-18 344,105 431,92 87,-12 239,-42 280,-28 41,13 291,128 463,90 171,-39 551,-183 625,-737z"/>
     <path class="fil18" d="M229191 37890l285 1264c0,0 435,221 620,203 185,-18 344,105 431,92 87,-12 239,-42 280,-28 41,13 291,128 462,90 172,-39 552,-183 626,-737 0,0 -198,517 -571,500 -372,-17 -146,-141 -413,-198 -266,-56 -135,178 -412,119 -276,-59 -352,-282 -559,-326 -208,-44 -749,-979 -749,-979z"/>
     <path class="fil23" d="M225549 42788c0,0 475,-75 571,-1018 95,-943 -135,-2513 -288,-3456 -152,-943 -555,-2364 -1290,-2857 0,0 2784,-245 2991,-262 207,-18 880,20 1091,480 211,461 619,1821 744,2643 124,822 365,2756 183,3363 -183,606 -454,716 -679,738 -226,23 -3323,369 -3323,369z"/>
     <path class="fil21" d="M225315 35389c-442,39 -773,68 -773,68 735,493 1138,1914 1290,2857 153,943 383,2513 288,3456 -96,943 -571,1018 -571,1018 0,0 366,-41 855,-95 0,0 178,-108 422,-631 245,-522 122,-1689 70,-2062 -53,-374 258,-422 377,-441 119,-19 1083,-105 1344,-129 262,-23 316,94 375,275 58,180 218,842 200,1422 -18,579 -614,1324 -614,1324 153,-17 258,-28 294,-32 225,-22 496,-132 679,-738 182,-607 -59,-2541 -183,-3363 -125,-822 -533,-2182 -744,-2643 -211,-461 -884,-498 -1091,-480 -25,2 -89,7 -182,15 0,0 450,342 530,510 79,167 137,347 -84,388 -221,42 -1361,125 -1507,147 -146,22 -347,50 -478,-244 -132,-293 -497,-622 -497,-622z"/>
     <path class="fil23" d="M225549 42788c0,0 475,-75 571,-1018 95,-943 -135,-2513 -288,-3456 -152,-943 -555,-2364 -1290,-2857l-520 490 1129 6509 398 332z"/>
     <polygon class="fil32" points="225151,42456 224781,42076 223654,36099 224542,35457 224022,35947 "/>
     <path class="fil23" d="M226637 37839c-23,510 374,942 887,965 513,23 947,-372 969,-883 23,-511 -374,-943 -887,-966 -513,-22 -947,373 -969,884z"/>
     <path class="fil18" d="M226929 37812c-18,401 294,741 697,759 403,18 744,-293 762,-695 18,-401 -294,-741 -697,-759 -403,-17 -744,293 -762,695z"/>
     <path class="fil22" d="M224615 35159c-26,119 50,236 169,262 119,25 236,-51 262,-170 25,-119 -51,-236 -170,-261 -119,-26 -236,50 -261,169z"/>
     <path class="fil18" d="M225348 38222c164,-9 336,-58 474,-145 348,-218 273,-641 159,-975 -135,-391 -335,-783 -541,-1142 -127,-221 -372,-447 -587,-511 -238,-72 -158,-453 82,-381 334,101 630,349 809,645 271,445 549,979 671,1487 101,417 61,864 -297,1144 -207,161 -486,252 -747,267 -250,13 -273,-375 -23,-389z"/>
     <path class="fil25" d="M227484 37681c-11,239 175,441 415,451 239,11 442,-174 453,-412 10,-239 -175,-441 -415,-452 -240,-11 -443,174 -453,413z"/>
     <path class="fil28" d="M218405 41616c0,0 -138,355 -336,454 -198,99 -251,-107 -205,-216 45,-110 68,-216 68,-216l237 -73 236 51z"/>
     <path class="fil33" d="M219389 41707c0,0 -1196,-154 -1532,-9 0,0 -186,230 -250,384 -64,154 -131,136 -181,103 -50,-33 -124,-102 -56,-339 69,-238 51,-197 51,-197 0,0 -100,323 -203,372 -103,49 -237,-29 -186,-371 0,0 -192,153 -247,141 -55,-11 -125,-97 -52,-293 73,-197 246,-368 246,-368 0,0 -274,3 -332,-18 -57,-21 -72,-135 10,-210 82,-75 586,-241 702,-265 115,-24 292,18 411,-1 119,-19 658,21 766,58 107,36 423,-78 423,-78 0,0 273,478 430,1091z"/>
     <path class="fil19" d="M223784 35883c-598,-318 -1190,45 -1506,531 -316,486 -152,944 -286,1031 -134,86 -207,458 -270,706 -40,154 -133,247 -197,266 -63,20 -156,80 -186,159 -30,80 -67,251 -244,306 -178,55 -230,84 -286,191 -56,107 -64,205 -183,266 -119,61 -200,53 -262,126 -62,73 -54,141 -137,157 -82,15 -111,26 -170,69 -59,44 -28,101 -93,107 -64,6 -195,28 -246,113 -51,85 7,170 -129,218 -136,47 -175,-64 -362,62 -186,126 -278,295 -291,511 -13,216 123,573 293,815 171,242 319,307 570,344 251,37 370,-87 399,-131 29,-43 82,-105 175,-151 93,-47 190,-82 231,-120 41,-37 152,-77 254,-118 102,-41 470,-185 715,-351 244,-167 353,-289 484,-374 131,-85 353,-210 522,-366 170,-156 425,-251 511,-372 85,-120 122,-384 252,-529 130,-145 475,-548 661,-1046 186,-497 369,-1000 287,-1655 -61,-491 -340,-676 -506,-765z"/>
     <path class="fil27" d="M219229 41517c171,242 319,307 570,344 251,37 370,-87 399,-131 29,-43 82,-105 175,-151 93,-47 190,-82 231,-120 41,-38 152,-77 254,-118 102,-41 470,-185 715,-351 244,-167 353,-289 484,-374 131,-85 353,-210 522,-366 170,-156 425,-251 511,-372 85,-121 122,-385 252,-529 130,-145 475,-548 661,-1046 186,-497 369,-1000 287,-1655 -61,-491 -339,-676 -506,-765 0,0 335,543 194,894 -142,351 -451,607 -387,1030 63,422 -140,845 -291,943 -152,98 -370,467 -428,738 -58,272 -232,299 -493,468 -260,169 -272,414 -516,572 -244,158 -514,105 -835,313 -321,208 -240,475 -514,496 -273,21 -371,-87 -581,49 -209,135 -704,131 -704,131z"/>
     <path class="fil24" d="M226124 33729c-3,120 92,220 211,222 118,3 217,-93 219,-214 2,-121 -92,-221 -211,-223 -119,-2 -217,94 -219,215zm182 39c-9,-9 -14,-22 -14,-36 1,-14 7,-27 16,-36 8,-8 19,-13 31,-13 13,0 25,5 32,14 9,9 15,22 14,36l0 1c0,14 -6,27 -15,36 -8,8 -20,13 -31,13 -13,-1 -25,-6 -33,-15z"/>
     <path class="fil23" d="M226204 33767c-83,-228 4,-472 144,-656 60,-79 160,-151 195,-246 71,-187 -140,-400 -267,-516 -315,-287 -788,-428 -1212,-409 -171,8 -166,-258 5,-266 470,-21 985,140 1345,444 220,185 494,501 389,813 -92,275 -464,431 -341,770 58,161 -200,226 -258,66z"/>
     <path class="fil34" d="M233784 52341c198,279 286,399 286,399l-3 2c-43,-61 -107,-117 -199,-151 -295,-107 -805,129 -939,383 -13,23 -23,46 -32,68 -30,79 -36,149 -28,208 15,102 74,174 131,216 99,75 261,206 280,286 18,79 76,241 56,480 -20,239 -48,472 72,594 25,26 50,46 74,62 -89,-45 -236,-127 -331,-223 -146,-146 -210,-319 -204,-432 7,-113 -29,-568 -77,-715 -48,-147 -39,-278 -89,-337 -41,-50 -62,-109 -66,-174 -31,-463 806,-1038 1069,-666z"/>
    </g>
    <g>
     <path class="fil35" d="M231058 30011c-2175,-1249 -2400,-2504 -1714,-3698 656,-1142 2207,-2150 3563,-3032 744,-484 1427,-928 1829,-1309 432,-410 803,-880 1066,-1449 264,-572 424,-1249 432,-2072 39,-3612 -3943,-7176 -6843,-9772 -404,-362 -787,-704 -1158,-1047 -1593,-1472 -3152,-3033 -4431,-4725 -702,-928 -1319,-1895 -1809,-2907l458 0c482,990 1087,1938 1776,2848 1270,1680 2821,3233 4408,4699 362,335 748,681 1156,1045 2927,2620 6946,6218 6907,9919 -9,852 -175,1556 -450,2151 -275,593 -660,1083 -1108,1508 -414,393 -1105,842 -1857,1331 -1338,870 -2868,1864 -3501,2966 -629,1096 -406,2257 1642,3434 180,103 381,208 596,320 520,273 1123,588 1655,1001 277,216 539,470 744,742 215,286 368,591 408,893 39,287 -25,578 -239,853 -90,116 -207,229 -353,339 -376,284 -871,362 -1371,440 -472,75 -947,150 -1368,389 -510,289 -822,766 -1125,1229l-94 143c-601,909 -1536,1422 -2640,1474 -16,1 -32,3 -46,8 -1,-7 -1,-13 -2,-20 -10,-212 155,-393 368,-403 423,-20 773,-144 1072,-348 311,-212 577,-514 816,-876l94 -141c315,-483 641,-981 1191,-1293 450,-255 944,-333 1434,-410 475,-75 947,-150 1284,-404 132,-99 237,-201 316,-303 179,-230 234,-472 202,-709 -36,-266 -175,-541 -371,-801 -195,-259 -444,-500 -709,-706 -519,-404 -1113,-714 -1626,-983 -216,-113 -419,-219 -602,-324z"/>
     <path class="fil24" d="M230371 36107c303,-463 615,-940 1125,-1229 421,-239 896,-314 1368,-389 500,-78 995,-156 1371,-440 146,-110 263,-223 353,-339 214,-275 278,-566 239,-853 -40,-302 -193,-607 -408,-893 -205,-272 -467,-526 -744,-742 -532,-413 -1135,-728 -1655,-1001 -215,-112 -416,-217 -596,-320 -2048,-1177 -2271,-2338 -1642,-3434 633,-1102 2163,-2096 3501,-2966 752,-489 1443,-938 1857,-1331 448,-425 833,-915 1108,-1508 275,-595 441,-1299 450,-2151 39,-3701 -3980,-7299 -6907,-9919 -408,-364 -794,-710 -1156,-1045 -1587,-1466 -3138,-3019 -4408,-4699 -689,-910 -1294,-1858 -1776,-2848l405 0c438,844 967,1657 1561,2443 1243,1644 2772,3173 4339,4621 337,312 733,666 1150,1040 3009,2693 7140,6391 7098,10357 -10,940 -195,1720 -502,2385 -309,668 -738,1214 -1234,1684 -452,429 -1164,892 -1940,1397 -1284,834 -2752,1789 -3316,2770 -461,802 -242,1686 1429,2646 170,97 366,199 575,309 543,284 1172,612 1742,1057 315,244 614,534 852,850 270,359 463,754 519,1163 59,437 -37,876 -355,1285 -121,154 -273,303 -461,445 -490,369 -1058,459 -1630,549 -417,66 -837,132 -1172,322 -391,221 -663,638 -927,1043 -60,91 -73,111 -95,144 -291,441 -623,814 -1025,1088 -415,282 -895,455 -1471,482 -207,9 -383,-145 -402,-348 14,-5 30,-7 46,-8 1104,-52 2039,-565 2640,-1474l94 -143z"/>
    </g>
   </g>
   <g>
    <path class="fil36" d="M213590 151002c-3622,5327 -11187,9612 -18450,9008 -10152,-844 -20168,-8957 -18922,-16012 2701,-15298 51027,-13076 37372,7004z"/>
    <path class="fil36" d="M168231 151069c2895,0 5241,1699 5241,3796 0,2096 -2346,3796 -5241,3796 -2894,0 -5240,-1700 -5240,-3796 0,-2097 2346,-3796 5240,-3796z"/>
    <path class="fil37" d="M271653 89780l0 -16299 -46649 -8158c-59100,-10335 -119254,-10335 -178354,0l-46650 8158 0 16299 271653 0z"/>
    <path class="fil38" d="M225004 74016c-59100,-10335 -119254,-10335 -178354,0l-46650 8158 0 59883 68114 -36883 23210 0 89005 0 23211 0 59164 32036c2971,907 5955,1808 8949,2687l0 -57723 -46649 -8158z"/>
    <path class="fil39" d="M225004 74016c-59100,-10335 -119254,-10335 -178354,0l-46650 8158 0 21913 46650 -8158c59100,-10335 119254,-10335 178354,0l46649 8158 0 -21913 -46649 -8158z"/>
    <path class="fil40" d="M271653 82174l0 3441 -46648 -8157c-59101,-10337 -119256,-10337 -178357,0l-46648 8157 0 -3441 46648 -8157c59101,-10337 119256,-10337 178357,0l46648 8157z"/>
    <path class="fil40" d="M271653 82174l0 3441 -46648 -8157c-59101,-10337 -119256,-10337 -178357,0l-46648 8157 0 -3441 46648 -8157c59101,-10337 119256,-10337 178357,0l46648 8157z"/>
    <path class="fil41" d="M180329 109521l-89005 0 -22096 0 -52636 43663c21859,2736 48255,-1302 47557,-16666 -67,-1485 -479,-3074 -1296,-4771 -3462,-7197 4643,-9328 12218,-9426 4744,-62 9776,753 14391,1895 3313,820 6366,1830 9509,3088 6286,2516 13102,5373 19368,7893l47576 378c2190,-1968 5243,-4069 7870,-5649 72,-43 144,-85 215,-128 386,-229 774,-454 1165,-669 24,-14 49,-27 74,-40 378,-208 759,-408 1141,-603 69,-35 137,-71 206,-105 382,-192 766,-378 1152,-558 86,-40 172,-79 258,-119 386,-177 774,-349 1165,-514 71,-30 142,-59 212,-88 375,-156 752,-307 1131,-453 49,-19 98,-39 148,-58 398,-152 800,-296 1203,-436 92,-32 184,-65 277,-96 391,-134 785,-262 1180,-384 97,-31 195,-60 293,-90 403,-122 807,-240 1214,-352 64,-17 128,-34 192,-51 373,-100 749,-196 1125,-288 91,-22 182,-45 272,-67 400,-95 801,-185 1204,-270 115,-24 229,-48 343,-71 399,-82 800,-160 1202,-233 108,-19 217,-37 325,-56 371,-65 742,-126 1115,-183 93,-14 186,-29 280,-42 391,-58 783,-110 1177,-160 126,-16 252,-32 378,-47 398,-47 798,-91 1199,-130 136,-13 272,-26 408,-38 404,-37 810,-72 1217,-101 117,-8 234,-15 351,-22 344,-23 689,-43 1035,-60 129,-7 257,-14 387,-20 400,-18 802,-31 1205,-42 156,-4 312,-8 469,-11 396,-7 793,-13 1191,-14 157,0 315,1 473,1 337,1 675,4 1014,10 194,3 389,7 584,12 330,7 662,18 994,29 171,7 342,12 514,20 389,16 780,36 1172,58 188,11 376,22 565,34 373,23 746,48 1121,76 199,15 400,32 600,48 287,24 575,49 863,75 247,22 494,45 742,69 321,32 643,65 965,100 213,23 427,46 641,70 375,43 751,88 1128,135 222,28 444,56 666,85 267,35 535,72 804,109 325,44 651,91 977,138 247,36 493,73 740,110 275,42 549,85 825,128 324,52 649,105 975,159 253,42 506,85 760,129 250,43 501,87 751,132 372,66 744,133 1117,203 196,36 392,73 589,110 426,81 853,164 1281,249 188,38 377,75 566,113 284,58 569,116 854,175l-19750 -16383 -22096 0z"/>
    <path class="fil42" d="M180329 105174l-89005 0 -23210 0 -68114 36883 0 7337c4713,1727 10475,3024 16592,3790l52636 -43663 22096 0 89005 0 22096 0 19750 16383c12869,2670 26544,7041 40528,11306l-59163 -32036 -23211 0z"/>
    <path class="fil43" d="M174233 129664l-16441 -25033 -43931 0 -14890 22673c3517,1417 6674,2988 9718,4546 11155,5713 27863,11321 40644,10434 6478,-449 12153,-2720 18399,-7895 1883,-1560 3875,-3188 6501,-4725z"/>
    <polygon class="fil37" points="53521,69014 50623,69014 68577,108675 71475,108675 "/>
    <polygon class="fil37" points="217444,69014 220341,69014 202387,108675 199489,108675 "/>
    <path class="fil38" d="M225004 74016c-59100,-10335 -119254,-10335 -178354,0l-46650 8158 0 8452 46650 -8159c59100,-10335 119254,-10335 178354,0l46649 8159 0 -8452 -46649 -8158z"/>
    <path class="fil44" d="M271653 82174l0 3441 -46648 -8157c-59101,-10337 -119256,-10337 -178357,0l-46648 8157 0 -3441 46648 -8157c59101,-10337 119256,-10337 178357,0l46648 8157z"/>
    <polygon class="fil45" points="129190,131441 118482,131441 128164,112479 130726,112479 "/>
    <polygon class="fil40" points="129606,126310 129189,131442 125681,131442 125667,117372 128164,112479 128235,112479 "/>
    <polygon class="fil46" points="129606,126310 129189,131442 125681,131442 125667,117372 125655,106803 127673,106803 128235,112479 "/>
    <polygon class="fil10" points="127673,106803 125655,106803 125656,107015 126822,107015 128755,126523 128355,131442 129189,131442 129606,126310 "/>
    <polygon class="fil38" points="127997,110071 125665,110071 125655,106804 127673,106804 "/>
    <path class="fil39" d="M130767 102461l-8899 0c-1710,0 -2999,1386 -2879,3095 119,1710 1602,3096 3312,3096l8899 0c1710,0 2999,-1386 2879,-3096 -119,-1709 -1602,-3095 -3312,-3095z"/>
    <polygon class="fil45" points="143595,131441 154303,131441 144621,112479 142058,112479 "/>
    <polygon class="fil40" points="143178,126310 143595,131442 147104,131442 147118,117372 144620,112479 144549,112479 "/>
    <polygon class="fil46" points="143178,126310 143595,131442 147104,131442 147118,117372 147129,106803 145111,106803 144549,112479 "/>
    <polygon class="fil10" points="145111,106803 147129,106803 147129,107015 145962,107015 144030,126523 144430,131442 143595,131442 143178,126310 "/>
    <polygon class="fil38" points="144787,110071 147119,110071 147129,106804 145111,106804 "/>
    <path class="fil39" d="M142017 102461l8900 0c1709,0 2998,1386 2878,3095 -119,1710 -1602,3096 -3312,3096l-8899 0c-1710,0 -2998,-1386 -2879,-3096 120,-1709 1603,-3095 3312,-3095z"/>
    <path class="fil39" d="M122432 114632l-276 -1442 -4915 0 -276 1442c-106,863 1114,1613 2733,1613 1619,0 2840,-750 2734,-1613z"/>
    <path class="fil47" d="M122156 113190c-80,-649 -1178,-1146 -2457,-1146 -1280,0 -2378,497 -2458,1146 -85,695 1013,1294 2458,1294 1444,0 2542,-599 2457,-1294z"/>
    <path class="fil39" d="M118119 121332l-276 -1442 -4915 0 -276 1442c-106,863 1114,1613 2733,1613 1619,0 2840,-750 2734,-1613z"/>
    <path class="fil48" d="M117843 119890c-80,-650 -1178,-1146 -2457,-1146 -1280,0 -2378,496 -2458,1146 -85,695 1013,1294 2458,1294 1444,0 2542,-599 2457,-1294z"/>
    <path class="fil39" d="M113806 128032l-276 -1442 -4915 0 -276 1442c-106,863 1114,1613 2733,1613 1619,0 2840,-750 2734,-1613z"/>
    <path class="fil49" d="M113530 126590c-80,-650 -1178,-1146 -2457,-1146 -1280,0 -2378,496 -2458,1146 -85,694 1013,1294 2458,1294 1444,0 2542,-600 2457,-1294z"/>
    <path class="fil39" d="M150897 114632l276 -1442 4915 0 276 1442c106,863 -1115,1613 -2734,1613 -1619,0 -2839,-750 -2733,-1613z"/>
    <path class="fil47" d="M151173 113190c80,-649 1178,-1146 2457,-1146 1280,0 2378,497 2457,1146 86,695 -1012,1294 -2457,1294 -1445,0 -2542,-599 -2457,-1294z"/>
    <path class="fil39" d="M155210 121332l276 -1442 4915 0 276 1442c106,863 -1115,1613 -2734,1613 -1619,0 -2839,-750 -2733,-1613z"/>
    <path class="fil48" d="M155486 119890c80,-650 1178,-1146 2457,-1146 1280,0 2378,496 2458,1146 85,695 -1013,1294 -2458,1294 -1445,0 -2543,-599 -2457,-1294z"/>
    <path class="fil39" d="M159523 128032l276 -1442 4915 0 276 1442c106,863 -1115,1613 -2734,1613 -1619,0 -2839,-750 -2733,-1613z"/>
    <path class="fil49" d="M159799 126590c80,-650 1178,-1146 2457,-1146 1279,0 2378,496 2457,1146 86,694 -1012,1294 -2457,1294 -1445,0 -2542,-600 -2457,-1294z"/>
    <path class="fil43" d="M161831 78834l7439 17835 -66887 0 7439 -17835c17480,-1181 34530,-1181 52009,0z"/>
    <path class="fil48" d="M104598 95071l6130 -14696c8400,-550 16839,-829 25099,-829 8259,0 16698,279 25098,829l6131 14696 -62458 0z"/>
    <path class="fil45" d="M106933 93386l4749 -11385c8084,-511 16203,-770 24145,-770 7941,0 16060,259 24144,770l4749 11385 -57787 0z"/>
    <path class="fil39" d="M102383 96669l0 2821 66887 0 0 -2821c0,0 -66887,-478 -66887,0z"/>
    <path class="fil50" d="M116348 90491c-2349,0 -3987,-1624 -3701,-3368 247,-1510 1891,-2594 3701,-2594 1809,0 3454,1084 3701,2594 286,1744 -1353,3368 -3701,3368zm0 -6989c-2311,0 -4478,1418 -4903,3467 -513,2477 1634,4903 4903,4903 3269,0 5416,-2426 4903,-4903 -424,-2049 -2592,-3467 -4903,-3467z"/>
    <path class="fil51" d="M127924 90491c-2349,0 -3987,-1624 -3701,-3368 247,-1510 1891,-2594 3701,-2594 1809,0 3454,1084 3701,2594 286,1744 -1353,3368 -3701,3368zm0 -6989c-2311,0 -4478,1418 -4903,3467 -513,2477 1634,4903 4903,4903 3269,0 5416,-2426 4903,-4903 -424,-2049 -2592,-3467 -4903,-3467z"/>
    <path class="fil52" d="M139243 90491c-2349,0 -3987,-1624 -3702,-3368 248,-1510 1892,-2594 3702,-2594 1809,0 3454,1084 3701,2594 286,1744 -1353,3368 -3701,3368zm0 -6989c-2311,0 -4479,1418 -4903,3467 -514,2477 1634,4903 4903,4903 3269,0 5416,-2426 4903,-4903 -425,-2049 -2592,-3467 -4903,-3467z"/>
    <path class="fil47" d="M148725 84057c-113,-544 -688,-920 -1302,-920 -614,0 -1189,376 -1302,920 -136,658 434,1302 1302,1302 868,0 1438,-644 1302,-1302z"/>
    <path class="fil48" d="M153469 84110c-113,-544 -688,-920 -1302,-920 -614,0 -1189,376 -1302,920 -136,659 434,1302 1302,1302 868,0 1438,-643 1302,-1302z"/>
    <path class="fil53" d="M157840 84030c-113,-544 -688,-920 -1302,-920 -614,0 -1189,376 -1302,920 -137,658 434,1302 1302,1302 868,0 1438,-644 1302,-1302z"/>
    <path class="fil48" d="M145720 88196l747 -1527c2042,-68 11122,3 13243,0l611 1527 -14601 0z"/>
    <path class="fil54" d="M146399 87901l589 -911c1612,-41 5168,-39 6802,-73l215 984 -7606 0z"/>
    <path class="fil48" d="M144814 90641l747 -1527c2043,-68 12798,-13 14918,-15l612 1526 -16277 16z"/>
    <path class="fil55" d="M145493 90346l590 -911c1612,-41 9053,-92 10687,-126l216 985 -11493 52z"/>
    <path class="fil37" d="M107180 73086l57293 0c1931,0 3335,-1834 2830,-3698l-6010 -22175c-346,-1278 -1506,-2165 -2829,-2165l-45274 0c-1324,0 -2484,887 -2830,2165l-6009 22175c-505,1864 899,3698 2829,3698z"/>
    <polygon class="fil56" points="108954,69404 114574,48731 157159,48732 162778,69404 "/>
    <path class="fil57" d="M145294 64817c-115,-517 -699,-875 -1322,-875 -624,0 -1208,358 -1323,875 -138,624 441,1236 1323,1236 881,0 1460,-612 1322,-1236z"/>
    <path class="fil57" d="M151291 64788c-114,-517 -699,-874 -1322,-874 -623,0 -1207,357 -1322,874 -139,625 441,1236 1322,1236 882,0 1461,-611 1322,-1236z"/>
    <path class="fil57" d="M157289 64645c-115,-517 -700,-875 -1323,-875 -623,0 -1207,358 -1322,875 -138,624 441,1236 1322,1236 882,0 1461,-612 1323,-1236z"/>
    <path class="fil49" d="M121052 58428l1151 0c-164,3001 2346,5589 5706,5740l-4 1197c-4084,-156 -7104,-3316 -6853,-6937zm6894 -6117l-3 921c-2889,115 -5340,2130 -5701,4794l-1150 0c438,-3201 3401,-5601 6854,-5715zm7382 5715l-1150 0c-365,-2698 -2876,-4730 -5815,-4796l-2 -921c3502,66 6524,2483 6967,5717zm-12328 0c317,-2306 2431,-4059 4941,-4175l-3 924 427 0 -1 -927c2562,67 4734,1838 5056,4178l-1323 0 17 402 1343 0c118,2634 -2123,4883 -5077,4969l-2 -1435 -462 0 -5 1431c-2891,-147 -5065,-2370 -4948,-4965l1221 0 18 -402 -1202 0zm5384 7342l-2 -1197c3423,-88 6002,-2703 5835,-5743l1151 0c254,3661 -2835,6850 -6984,6940zm7546 -6940l1323 0 -40 -402 -1325 0c-485,-3493 -3756,-6094 -7528,-6159l-2 -1195 -407 0 -4 1197c-3723,114 -6935,2697 -7415,6157l-1446 0 -40 402 1444 0c-299,3927 2969,7373 7413,7532l-4 1324 489 0 -3 -1321c4509,-92 7847,-3568 7545,-7535z"/>
    <path class="fil58" d="M119495 63317c-108,-191 -209,-386 -301,-585 -583,-1252 -855,-2630 -757,-4051 8,-102 17,-205 28,-307 10,-103 24,-205 38,-306 196,-1360 720,-2603 1477,-3673 117,-165 240,-325 367,-482 831,-1020 1890,-1865 3094,-2478l-449 -712c-1352,677 -2544,1616 -3481,2754 -127,155 -251,314 -368,477 -866,1192 -1472,2585 -1704,4114 -15,101 -29,203 -42,306 -12,102 -22,205 -31,307 -136,1604 154,3166 803,4586 91,200 191,398 296,592 799,1470 1989,2747 3475,3706l645 -1008c-1310,-839 -2368,-1955 -3090,-3240z"/>
    <polygon class="fil59" points="154426,53785 153917,51911 140529,51911 140848,53785 "/>
    <polygon class="fil55" points="148050,53244 147760,52374 141381,52374 141529,53244 "/>
    <polygon class="fil59" points="155481,57668 154972,55793 141190,55793 141507,57668 "/>
    <polygon class="fil54" points="145290,57128 145000,56258 142043,56256 142192,57126 "/>
    <polygon class="fil59" points="156522,61494 156012,59620 141842,59620 142161,61494 "/>
    <polygon class="fil39" points="154591,60983 154301,60113 142692,60082 142836,60953 "/>
    <path class="fil43" d="M74131 99953l20607 -949c707,-32 1343,-475 1621,-1127l6660 -15657c245,-575 185,-1229 -159,-1750 -344,-521 -922,-831 -1545,-831l-49 0 -71 4c-10846,698 -22717,1867 -33426,3292 -578,78 -1093,428 -1375,938 -284,511 -309,1133 -69,1665l6032 13327c300,662 963,1090 1690,1090l84 -2z"/>
    <path class="fil48" d="M82096 84218c1385,-144 2796,-284 4203,-418l-125 2366c-1243,118 -2529,246 -3839,381l-239 -2329z"/>
    <path class="fil60" d="M88611 88337c1147,-104 2279,-203 3380,-295l-552 2954c-1036,88 -2078,180 -3126,275l298 -2934z"/>
    <path class="fil48" d="M89096 83543c1259,-112 2529,-219 3794,-320l-445 2384c-1170,97 -2372,202 -3589,311l240 -2375z"/>
    <path class="fil48" d="M88069 93690c976,-89 1949,-176 2917,-260l-509 2725 -2671 123 263 -2588z"/>
    <path class="fil48" d="M94650 87827c768,-61 1532,-119 2291,-174l-1278 3002c-569,43 -1140,88 -1714,134l701 -2962z"/>
    <path class="fil48" d="M82578 88920c1173,-121 2335,-236 3468,-345l-155 2923c-1003,97 -2009,196 -3018,300l-295 -2878z"/>
    <path class="fil48" d="M70274 85607c1090,-143 2222,-287 3379,-429l537 2273c-975,117 -1948,237 -2919,360l-997 -2204z"/>
    <path class="fil47" d="M95792 82999c1109,-82 2190,-158 3225,-226l-1025 2409c-914,65 -1836,133 -2765,204l565 -2387z"/>
    <path class="fil48" d="M93371 93231c415,-34 1408,-67 1820,-99l-1229 2890 -1258 31 667 -2822z"/>
    <path class="fil48" d="M83117 94171c884,-90 1766,-177 2646,-263l-131 2471 -2278 105 -237 -2313z"/>
    <path class="fil53" d="M73577 92897l-4 0 -1272 -2811c1157,-140 2818,-336 4245,-502l321 -46c1057,-121 2122,-239 3188,-354l434 2880 39 364 643 4156 -1845 85 -590 45 -3372 139 -1787 -3956z"/>
    <path class="fil48" d="M76409 84846c979,-114 1959,-225 2940,-333l349 2311c-954,103 -1907,209 -2860,317l-429 -2295z"/>
    <path class="fil43" d="M197530 99953l-20606 -949c-707,-32 -1344,-475 -1621,-1127l-6661 -15657c-244,-575 -185,-1229 159,-1750 345,-521 922,-831 1545,-831l50 0 70 4c10847,698 22718,1867 33426,3292 579,78 1093,428 1376,938 283,511 309,1133 68,1665l-6032 13327c-300,662 -963,1090 -1690,1090l-84 -2z"/>
    <path class="fil53" d="M189565 84218c-1385,-144 -2796,-284 -4203,-418l126 2366c1242,118 2529,246 3839,381l238 -2329z"/>
    <path class="fil48" d="M183051 88337c-1148,-104 -2279,-203 -3380,-295l551 2954c1036,88 2079,180 3126,275l-297 -2934z"/>
    <path class="fil48" d="M182565 83543c-1258,-112 -2529,-219 -3793,-320l444 2384c1170,97 2373,202 3590,311l-241 -2375z"/>
    <path class="fil48" d="M183593 93690c-977,-89 -1950,-176 -2917,-260l509 2725 2670 123 -262 -2588z"/>
    <path class="fil48" d="M177011 87827c-768,-61 -1532,-119 -2291,-174l1278 3002c569,43 1140,88 1714,134l-701 -2962z"/>
    <path class="fil48" d="M189083 88920c-1173,-121 -2334,-236 -3468,-345l155 2923c1004,97 2010,196 3018,300l295 -2878z"/>
    <path class="fil48" d="M201387 85607c-1089,-143 -2222,-287 -3378,-429l-538 2273c975,117 1948,237 2919,360l997 -2204z"/>
    <path class="fil48" d="M175869 82999c-1108,-82 -2189,-158 -3224,-226l1024 2409c915,65 1836,133 2765,204l-565 -2387z"/>
    <path class="fil53" d="M178290 93231c-414,-34 -1408,-67 -1819,-99l1228 2890 1258 31 -667 -2822z"/>
    <path class="fil48" d="M188544 94171c-883,-90 -1765,-177 -2645,-263l131 2471 2277 105 237 -2313z"/>
    <path class="fil47" d="M198084 92897l4 0 1272 -2811c-1157,-140 -2818,-336 -4244,-502l-322 -46c-1057,-121 -2122,-239 -3188,-354l-434 2880 -39 364 -643 4156 1846 85 590 45 3371 139 1787 -3956z"/>
    <path class="fil48" d="M195252 84846c-979,-114 -1959,-225 -2939,-333l-350 2311c954,103 1907,209 2861,317l428 -2295z"/>
    <path class="fil43" d="M52262 86789l7515 13880c858,1585 260,3564 -1331,4409l-43279 22985c-2045,1086 -4536,-259 -4751,-2564l-2551 -27500c-148,-1600 898,-3068 2459,-3450l38316 -9366c1432,-350 2920,310 3622,1606z"/>
    <polygon class="fil49" points="49933,89761 49933,89763 12153,101744 11713,97850 48950,87893 "/>
    <polygon class="fil45" points="49934,89762 37774,93620 36510,91218 48948,87893 "/>
    <polygon class="fil61" points="51475,94771 51475,94774 13231,108730 12791,104835 50492,92903 "/>
    <polygon class="fil45" points="51473,94772 30958,102262 29523,99538 50491,92903 "/>
    <polygon class="fil62" points="53486,99195 53486,99198 14371,115702 13930,111807 52503,97328 "/>
    <polygon class="fil45" points="53487,99194 53487,99198 45460,102584 44323,100397 52502,97329 "/>
    <path class="fil61" d="M19450 118514c-256,-677 -1109,-982 -1905,-681 -796,301 -1235,1094 -979,1770 255,677 1108,982 1905,681 796,-301 1235,-1093 979,-1770z"/>
    <path class="fil53" d="M26561 115429c-256,-677 -1109,-981 -1905,-681 -797,301 -1235,1094 -980,1770 256,677 1109,982 1905,681 797,-300 1236,-1093 980,-1770z"/>
    <path class="fil46" d="M33671 112344c-255,-677 -1108,-981 -1905,-680 -796,301 -1235,1093 -979,1770 256,677 1109,981 1905,680 797,-300 1235,-1093 979,-1770z"/>
    <path class="fil47" d="M40782 109260c-256,-677 -1109,-982 -1905,-681 -797,301 -1235,1093 -979,1770 255,677 1108,982 1905,681 796,-301 1235,-1093 979,-1770z"/>
    <path class="fil43" d="M219075 86789l-7515 13880c-858,1585 -260,3564 1331,4409l43279 22985c2045,1086 4537,-259 4751,-2564l2551 -27500c149,-1600 -898,-3068 -2459,-3450l-38316 -9366c-1432,-350 -2920,310 -3622,1606z"/>
    <polygon class="fil49" points="221404,89761 221404,89763 259184,101744 259624,97850 222387,87893 "/>
    <polygon class="fil45" points="221403,89762 233563,93620 234827,91218 222389,87893 "/>
    <polygon class="fil61" points="219862,94771 219862,94774 258106,108730 258546,104835 220846,92903 "/>
    <polygon class="fil45" points="219864,94772 240379,102262 241814,99538 220846,92903 "/>
    <polygon class="fil62" points="217851,99195 217851,99198 256966,115702 257407,111807 218834,97328 "/>
    <polygon class="fil45" points="217850,99194 217850,99198 225877,102584 227014,100397 218835,97329 "/>
    <path class="fil61" d="M251887 118514c256,-677 1108,-982 1905,-681 797,301 1235,1094 979,1770 -255,677 -1108,982 -1905,681 -796,-301 -1235,-1093 -979,-1770z"/>
    <path class="fil53" d="M244776 115429c256,-677 1108,-981 1905,-681 797,301 1235,1094 980,1770 -256,677 -1109,982 -1905,681 -797,-300 -1235,-1093 -980,-1770z"/>
    <path class="fil46" d="M237666 112344c255,-677 1108,-981 1905,-680 796,301 1235,1093 979,1770 -256,677 -1108,981 -1905,680 -797,-300 -1235,-1093 -979,-1770z"/>
    <path class="fil47" d="M230555 109260c256,-677 1108,-982 1905,-681 797,301 1235,1093 979,1770 -255,677 -1108,982 -1905,681 -796,-301 -1235,-1093 -979,-1770z"/>
    <path class="fil63" d="M131200 107068l-8899 0c-1511,0 -2844,-1082 -3217,-2513 -85,314 -120,651 -95,1001 119,1710 1602,3096 3312,3096l8899 0c1710,0 2999,-1386 2879,-3096 -14,-199 -46,-393 -95,-582 -331,1218 -1424,2094 -2784,2094z"/>
    <path class="fil63" d="M141584 107068l8899 0c1511,0 2845,-1082 3217,-2513 85,314 120,651 95,1001 -119,1710 -1602,3096 -3312,3096l-8899 0c-1710,0 -2998,-1386 -2879,-3096 14,-199 47,-393 96,-582 331,1218 1424,2094 2783,2094z"/>
    <path class="fil3" d="M6238 72390l-6238 1091c36261,-5555 70104,-12021 106964,-13735l429 -1583c-7930,438 -15783,1081 -23587,1901 -26124,2748 -51720,7806 -77568,12326z"/>
    <path class="fil3" d="M265416 72390l6237 1091c-36261,-5555 -70103,-12021 -106964,-13735l-428 -1583c7930,438 15783,1081 23587,1901 26123,2748 51720,7806 77568,12326z"/>
    <path class="fil3" d="M135827 46397l20821 0 433 0 1270 0c1317,0 2471,887 2815,2165l5755 19417 -2234 -8243 -373 -1378 -3021 -11145c-331,-1221 -1404,-2085 -2654,-2160 -58,-3 -117,-5 -175,-5l-3130 0 -19507 0 -19508 0 -3129 0c-59,0 -117,2 -175,5 -1250,75 -2324,939 -2655,2160l-3020 11145 -374 1378 -2233 8243 5754 -19417c345,-1278 1498,-2165 2816,-2165l1269 0 434 0 20821 0z"/>
    <polygon class="fil64" points="114759,48731 114369,48731 108750,69404 162778,69404 162765,69354 111470,68996 109254,68981 "/>
    <polygon class="fil65" points="162840,69128 162242,66929 157296,48732 157023,48732 159571,58108 161965,66915 162642,69404 162915,69404 "/>
    <polygon class="fil66" points="129606,126306 130726,112479 128236,112479 "/>
    <polygon class="fil66" points="143179,126306 144549,112479 142058,112479 "/>
    <g>
     <ellipse class="fil67" cx="127924" cy="87413" rx="3733" ry="2884"/>
     <path class="fil3" d="M128628 88229l0 544 -2817 0 0 -544 2817 0zm-2817 -1632l0 -545c1409,0 2817,0 4226,0l-704 545c-1174,0 -2348,0 -3522,0zm4226 544c0,544 0,1088 0,1632l-704 0 0 -1088 0 0 -3522 0 0 -544c1409,0 2817,0 4226,0z"/>
    </g>
    <g>
     <ellipse class="fil68" cx="139243" cy="87413" rx="3733" ry="2884"/>
     <path class="fil3" d="M139947 88229l0 544 -2817 0 0 -544 2817 0zm-2817 -1633l0 -544c1408,0 2817,0 4226,0l-705 544c-1173,0 -2347,0 -3521,0zm4226 544c0,545 0,1089 0,1633l-705 0 0 -1088 0 0 -3521 0 0 -545c1408,0 2817,0 4226,0z"/>
    </g>
    <g>
     <ellipse class="fil69" cx="116348" cy="87413" rx="3733" ry="2884"/>
     <path class="fil3" d="M117052 88229l0 544 -2817 0 0 -544 2817 0zm-2817 -1633l0 -544c1409,0 2817,0 4226,0l-704 544c-1174,0 -2348,0 -3522,0zm4226 544c0,545 0,1089 0,1633l-704 0 0 -1088 0 0 -3522 0 0 -545c1409,0 2817,0 4226,0z"/>
    </g>
    <path class="fil58" d="M136925 63317c108,-191 209,-386 301,-585 583,-1252 855,-2630 757,-4051 -8,-102 -17,-205 -28,-307 -10,-103 -23,-205 -38,-306 -196,-1360 -720,-2603 -1477,-3673 -117,-165 -240,-325 -367,-482 -831,-1020 -1890,-1865 -3094,-2478l449 -712c1352,677 2544,1616 3481,2754 127,155 251,314 368,477 866,1192 1472,2585 1704,4114 15,101 30,203 42,306 12,102 22,205 31,307 136,1604 -154,3166 -803,4586 -91,200 -190,398 -296,592 -799,1470 -1989,2747 -3475,3706l-645 -1008c1310,-839 2368,-1955 3090,-3240z"/>
    <path class="fil70" d="M125560 56591c-44,525 -87,1051 -131,1576 -43,525 -86,1051 -129,1576 -114,0 -228,0 -342,0 36,-392 73,-785 109,-1177 36,-392 72,-785 108,-1177 -81,121 -163,242 -245,363 -73,-106 -145,-211 -216,-317 194,-281 387,-563 576,-844 90,0 180,0 270,0zm596 2224c-9,156 33,275 126,359 74,68 170,101 285,101 115,0 215,-33 296,-101 99,-82 150,-202 155,-359 7,-217 14,-435 21,-653 7,-217 15,-435 23,-653 5,-158 -35,-280 -123,-363 -68,-65 -159,-96 -269,-96 -110,0 -203,32 -278,96 -95,82 -148,204 -158,363 -13,218 -27,436 -39,653 -13,218 -26,436 -39,653zm388 968c-208,0 -382,-77 -520,-233 -157,-179 -225,-426 -203,-735 15,-217 30,-435 45,-653 15,-217 30,-435 45,-653 22,-315 119,-560 285,-739 143,-154 308,-234 498,-235 188,-1 347,79 477,235 149,178 221,424 213,739 -6,218 -11,436 -16,653 -5,218 -10,436 -16,653 -7,309 -94,555 -267,735 -151,156 -333,233 -541,233zm1554 -968c0,156 48,275 146,359 79,67 176,101 290,101 117,0 214,-33 292,-101 93,-82 136,-202 133,-359 -5,-217 -10,-435 -16,-653 -5,-217 -10,-435 -16,-653 -3,-158 -50,-280 -142,-363 -72,-65 -165,-96 -275,-96 -110,0 -201,32 -272,96 -91,82 -138,204 -138,363 -1,218 -1,436 -1,653 0,218 0,436 -1,653zm443 968c-208,0 -387,-76 -533,-233 -168,-179 -249,-426 -245,-735 2,-217 4,-435 7,-653 2,-217 5,-435 8,-653 3,-315 85,-560 241,-739 135,-154 295,-234 485,-235 188,-1 351,78 490,235 159,178 246,424 256,739 7,218 14,436 22,653 7,218 15,436 22,653 10,309 -63,556 -225,735 -142,157 -319,233 -528,233zm1878 -2440c18,257 -8,462 -79,614 -70,150 -170,226 -297,227 -289,1 -445,-283 -470,-849 -11,-252 19,-453 91,-607 67,-147 161,-220 283,-220 129,0 236,71 318,215 84,146 136,353 154,620zm-303 2735c-98,-90 -197,-180 -295,-270 220,-572 435,-1143 635,-1716 198,-570 381,-1144 560,-1716 93,90 187,181 282,271 -176,572 -358,1146 -554,1716 -197,573 -410,1144 -628,1715zm48 -2735c-18,-296 -86,-445 -203,-445 -108,0 -154,145 -139,437 16,300 79,450 192,450 118,0 168,-147 150,-442zm1313 1573c-29,-296 -105,-443 -228,-443 -113,0 -156,144 -131,434 27,301 98,451 216,451 123,0 171,-147 143,-442zm268 5c27,259 6,463 -64,615 -69,150 -170,224 -303,224 -302,0 -477,-282 -522,-848 -19,-251 7,-453 76,-605 67,-146 162,-220 289,-220 137,0 252,72 343,215 93,147 153,353 181,619z"/>
   </g>
  </g>
 </g>
</svg>
