<?xml version="1.0" encoding="UTF-8"?>
<!DOCTYPE svg PUBLIC "-//W3C//DTD SVG 1.1//EN" "http://www.w3.org/Graphics/SVG/1.1/DTD/svg11.dtd">
<!-- Creator: CorelDRAW X7 -->
<svg xmlns="http://www.w3.org/2000/svg" xml:space="preserve" width="27.1654in" height="11.5019in" version="1.1" style="shape-rendering:geometricPrecision; text-rendering:geometricPrecision; image-rendering:optimizeQuality; fill-rule:evenodd; clip-rule:evenodd"
viewBox="0 0 271654 115019"
 xmlns:xlink="http://www.w3.org/1999/xlink">
 <defs>
  <style type="text/css">
   <![CDATA[
    .fil30 {fill:#846D45}
    .fil32 {fill:#9D8457}
    .fil35 {fill:#9F9CCB}
    .fil34 {fill:#A5B6DB}
    .fil28 {fill:#BB9B61}
    .fil33 {fill:#D7B67C}
    .fil0 {fill:#EDDFC4}
    .fil29 {fill:white}
    .fil31 {fill:white}
    .fil20 {fill:#9F9CCB;fill-rule:nonzero}
    .fil21 {fill:#A38755;fill-rule:nonzero}
    .fil19 {fill:#A6B7DE;fill-rule:nonzero}
    .fil9 {fill:#BB9B61;fill-rule:nonzero}
    .fil12 {fill:#C2CDE6;fill-rule:nonzero}
    .fil25 {fill:#C4C2DF;fill-rule:nonzero}
    .fil15 {fill:#CFCEE5;fill-rule:nonzero}
    .fil23 {fill:#D0D9EC;fill-rule:nonzero}
    .fil3 {fill:#D2AE6D;fill-rule:nonzero}
    .fil27 {fill:#D2D0E6;fill-rule:nonzero}
    .fil17 {fill:#D3DBED;fill-rule:nonzero}
    .fil5 {fill:#D5B376;fill-rule:nonzero}
    .fil18 {fill:#D5DDEF;fill-rule:nonzero}
    .fil8 {fill:#DBBD89;fill-rule:nonzero}
    .fil7 {fill:#DCC08D;fill-rule:nonzero}
    .fil14 {fill:#E3E9F4;fill-rule:nonzero}
    .fil22 {fill:#E4E3F0;fill-rule:nonzero}
    .fil2 {fill:#E6D2AE;fill-rule:nonzero}
    .fil26 {fill:#EAD8BB;fill-rule:nonzero}
    .fil16 {fill:#EBDBBD;fill-rule:nonzero}
    .fil11 {fill:#ECDDC2;fill-rule:nonzero}
    .fil6 {fill:#EDDFC4;fill-rule:nonzero}
    .fil1 {fill:#EFE2CA;fill-rule:nonzero}
    .fil13 {fill:#F6F0E3;fill-rule:nonzero}
    .fil24 {fill:#FBF7F2;fill-rule:nonzero}
    .fil10 {fill:#FBF8F2;fill-rule:nonzero}
    .fil4 {fill:#FFB586;fill-rule:nonzero}
    .fil36 {fill:white;fill-rule:nonzero}
   ]]>
  </style>
 </defs>
 <g id="Layer_x0020_1">
  <metadata id="CorelCorpID_0Corel-Layer"/>
  <g id="_2704401562096">
   <path class="fil0" d="M213590 105954c-3622,5327 -11187,9612 -18450,9008 -10152,-844 -20168,-8957 -18922,-16012 2701,-15298 51027,-13077 37372,7004z"/>
   <path class="fil0" d="M168231 106021c2895,0 5241,1699 5241,3796 0,2096 -2346,3796 -5241,3796 -2894,0 -5240,-1700 -5240,-3796 0,-2097 2346,-3796 5240,-3796z"/>
   <path class="fil1" d="M271654 44732l0 -16299 -46650 -8158c-59100,-10335 -119254,-10335 -178355,0l-46649 8158 0 16299 271654 0z"/>
   <path class="fil2" d="M225004 28968c-59100,-10336 -119254,-10336 -178355,0l-46649 8158 0 59883 68114 -36883 23210 0 89005 0 23211 0 59164 32036c2971,907 5955,1808 8950,2687l0 -57723 -46650 -8158z"/>
   <path class="fil3" d="M225004 28968c-59100,-10336 -119254,-10336 -178355,0l-46649 8158 0 21913 46649 -8158c59101,-10335 119255,-10335 178355,0l46650 8158 0 -21913 -46650 -8158z"/>
   <path class="fil4" d="M271654 37126l0 3441 -46649 -8157c-59101,-10337 -119256,-10337 -178357,0l-46648 8157 0 -3441 46648 -8157c59101,-10337 119256,-10337 178357,0l46649 8157z"/>
   <path class="fil4" d="M271654 37126l0 3441 -46649 -8157c-59101,-10337 -119256,-10337 -178357,0l-46648 8157 0 -3441 46648 -8157c59101,-10337 119256,-10337 178357,0l46649 8157z"/>
   <path class="fil5" d="M180329 64473l-89005 0 -22096 0 -52636 43663c21859,2736 48255,-1302 47557,-16666 -67,-1485 -479,-3074 -1296,-4771 -3462,-7198 4643,-9328 12218,-9426 4744,-62 9775,752 14391,1895 3313,820 6366,1830 9509,3087 6286,2517 13102,5374 19368,7894l47576 378c2190,-1968 5243,-4069 7870,-5650 72,-42 144,-85 215,-127 386,-229 774,-454 1165,-669 25,-14 49,-27 74,-40 378,-208 759,-408 1142,-603 68,-35 136,-71 205,-105 382,-192 766,-378 1152,-558 86,-40 172,-79 258,-119 386,-177 774,-349 1165,-514 71,-30 142,-59 213,-88 374,-156 751,-308 1130,-453 49,-20 98,-40 148,-58 398,-152 800,-296 1203,-436 92,-32 184,-65 277,-96 392,-134 785,-262 1180,-385 98,-30 195,-59 293,-89 403,-122 807,-240 1214,-352 64,-18 128,-34 192,-51 374,-101 749,-196 1125,-288 91,-23 182,-46 273,-67 399,-95 800,-185 1203,-270 115,-24 229,-48 343,-72 399,-81 800,-159 1202,-232 108,-19 217,-37 325,-56 371,-65 743,-126 1116,-183 93,-14 185,-29 279,-42 391,-58 784,-110 1178,-160 125,-16 251,-32 377,-47 398,-47 798,-91 1199,-130 136,-13 272,-26 408,-38 404,-37 810,-72 1217,-101 117,-8 234,-15 351,-23 344,-22 689,-42 1035,-59 129,-7 258,-14 387,-20 400,-18 802,-31 1205,-42 156,-4 312,-8 469,-11 396,-8 793,-13 1191,-14 157,0 315,0 473,1 337,1 675,4 1014,10 195,3 389,7 584,11 330,8 662,19 994,30 171,6 342,12 514,20 390,16 780,36 1172,58 188,11 376,22 565,34 373,23 746,48 1121,76 200,15 400,32 600,48 287,24 575,49 863,75 247,22 494,45 742,69 321,32 643,65 965,100 213,23 427,46 641,70 375,43 751,88 1129,135 221,28 443,56 665,85 267,35 535,71 804,108 325,45 651,91 977,139 247,36 494,73 741,110 274,42 548,84 824,128 324,52 649,105 975,159 253,42 507,85 760,129 250,43 501,87 751,132 372,66 744,133 1117,203 196,36 392,73 589,110 426,81 853,164 1281,249 188,38 377,75 566,113 284,58 569,115 854,175l-19750 -16383 -22096 0z"/>
   <path class="fil6" d="M180329 60126l-89005 0 -23210 0 -68114 36883 0 7337c4713,1727 10475,3024 16592,3790l52636 -43663 22096 0 89005 0 22096 0 19750 16383c12869,2670 26544,7041 40529,11306l-59164 -32036 -23211 0z"/>
   <path class="fil7" d="M174233 84616l-16441 -25033 -43931 0 -14890 22672c3517,1418 6674,2989 9718,4547 11155,5713 27863,11321 40644,10434 6478,-449 12153,-2720 18399,-7895 1883,-1560 3875,-3188 6501,-4725z"/>
   <polygon class="fil1" points="53520,23966 50623,23966 68577,63627 71475,63627 "/>
   <polygon class="fil1" points="217444,23966 220341,23966 202387,63627 199489,63627 "/>
   <path class="fil2" d="M225004 28968c-59100,-10336 -119254,-10336 -178355,0l-46649 8158 0 8452 46649 -8159c59101,-10335 119255,-10335 178355,0l46650 8159 0 -8452 -46650 -8158z"/>
   <path class="fil8" d="M271654 37126l0 3441 -46649 -8157c-59101,-10337 -119256,-10337 -178357,0l-46648 8157 0 -3441 46648 -8157c59101,-10337 119256,-10337 178357,0l46649 8157z"/>
   <polygon class="fil9" points="129190,86392 118482,86392 128164,67431 130726,67431 "/>
   <polygon class="fil4" points="129606,81262 129189,86394 125681,86394 125667,72324 128164,67431 128235,67431 "/>
   <polygon class="fil10" points="129606,81262 129189,86394 125681,86394 125667,72324 125655,61754 127673,61754 128235,67431 "/>
   <polygon class="fil11" points="127673,61755 125655,61755 125656,61967 126822,61967 128755,81475 128355,86394 129189,86394 129606,81262 "/>
   <polygon class="fil2" points="127997,65023 125665,65023 125655,61756 127673,61756 "/>
   <path class="fil3" d="M130767 57413l-8899 0c-1710,0 -2999,1386 -2879,3095 119,1710 1602,3096 3312,3096l8899 0c1710,0 2999,-1386 2879,-3096 -119,-1709 -1602,-3095 -3312,-3095z"/>
   <polygon class="fil9" points="143595,86392 154303,86392 144621,67431 142058,67431 "/>
   <polygon class="fil4" points="143178,81262 143595,86394 147104,86394 147118,72324 144620,67431 144549,67431 "/>
   <polygon class="fil10" points="143178,81262 143595,86394 147104,86394 147118,72324 147129,61754 145111,61754 144549,67431 "/>
   <polygon class="fil11" points="145111,61755 147129,61755 147129,61967 145962,61967 144030,81475 144430,86394 143595,86394 143178,81262 "/>
   <polygon class="fil2" points="144787,65023 147119,65023 147129,61756 145111,61756 "/>
   <path class="fil3" d="M142017 57413l8900 0c1709,0 2998,1386 2878,3095 -119,1710 -1602,3096 -3312,3096l-8899 0c-1710,0 -2998,-1386 -2879,-3096 120,-1709 1603,-3095 3312,-3095z"/>
   <path class="fil3" d="M122432 69584l-276 -1442 -4915 0 -276 1442c-106,863 1114,1613 2733,1613 1619,0 2840,-750 2734,-1613z"/>
   <path class="fil12" d="M122156 68142c-80,-649 -1178,-1146 -2457,-1146 -1280,0 -2378,497 -2458,1146 -85,695 1013,1294 2458,1294 1444,0 2542,-599 2457,-1294z"/>
   <path class="fil3" d="M118119 76284l-276 -1442 -4915 0 -276 1442c-106,863 1114,1613 2733,1613 1619,0 2840,-750 2734,-1613z"/>
   <path class="fil13" d="M117843 74842c-80,-650 -1178,-1146 -2457,-1146 -1280,0 -2378,496 -2458,1146 -85,695 1013,1294 2458,1294 1444,0 2542,-599 2457,-1294z"/>
   <path class="fil3" d="M113806 82984l-276 -1442 -4915 0 -276 1442c-106,862 1114,1613 2733,1613 1619,0 2840,-751 2734,-1613z"/>
   <path class="fil14" d="M113530 81542c-80,-650 -1178,-1146 -2457,-1146 -1280,0 -2378,496 -2458,1146 -85,694 1013,1294 2458,1294 1444,0 2542,-600 2457,-1294z"/>
   <path class="fil3" d="M150897 69584l276 -1442 4915 0 276 1442c106,863 -1115,1613 -2734,1613 -1619,0 -2839,-750 -2733,-1613z"/>
   <path class="fil12" d="M151173 68142c80,-649 1178,-1146 2457,-1146 1280,0 2378,497 2457,1146 86,695 -1012,1294 -2457,1294 -1445,0 -2542,-599 -2457,-1294z"/>
   <path class="fil3" d="M155210 76284l276 -1442 4915 0 276 1442c106,863 -1115,1613 -2734,1613 -1619,0 -2839,-750 -2733,-1613z"/>
   <path class="fil13" d="M155486 74842c80,-650 1178,-1146 2457,-1146 1280,0 2378,496 2458,1146 85,695 -1013,1294 -2458,1294 -1445,0 -2543,-599 -2457,-1294z"/>
   <path class="fil3" d="M159523 82984l276 -1442 4915 0 276 1442c106,862 -1114,1613 -2734,1613 -1619,0 -2839,-751 -2733,-1613z"/>
   <path class="fil14" d="M159799 81542c80,-650 1178,-1146 2457,-1146 1280,0 2378,496 2458,1146 85,694 -1013,1294 -2458,1294 -1445,0 -2542,-600 -2457,-1294z"/>
   <path class="fil7" d="M161831 33786l7440 17835 -66888 0 7439 -17835c17480,-1181 34530,-1181 52009,0z"/>
   <path class="fil13" d="M104598 50023l6130 -14697c8400,-549 16839,-828 25099,-828 8259,0 16698,279 25098,828l6131 14697 -62458 0z"/>
   <path class="fil9" d="M106933 48338l4749 -11385c8084,-511 16203,-770 24145,-770 7941,0 16060,259 24144,770l4750 11385 -57788 0z"/>
   <path class="fil3" d="M102383 51621l0 2821 66888 0 0 -2821c0,0 -66888,-478 -66888,0z"/>
   <path class="fil15" d="M116348 45443c-2349,0 -3987,-1624 -3701,-3368 247,-1511 1891,-2595 3701,-2595 1809,0 3454,1084 3701,2595 286,1744 -1353,3368 -3701,3368zm0 -6989c-2311,0 -4478,1418 -4903,3467 -513,2477 1634,4903 4903,4903 3269,0 5416,-2426 4903,-4903 -424,-2049 -2592,-3467 -4903,-3467z"/>
   <path class="fil16" d="M127924 45443c-2349,0 -3987,-1624 -3701,-3368 247,-1511 1891,-2595 3701,-2595 1809,0 3454,1084 3701,2595 286,1744 -1353,3368 -3701,3368zm0 -6989c-2311,0 -4478,1418 -4903,3467 -513,2477 1634,4903 4903,4903 3269,0 5416,-2426 4903,-4903 -424,-2049 -2592,-3467 -4903,-3467z"/>
   <path class="fil17" d="M139243 45443c-2349,0 -3987,-1624 -3702,-3368 248,-1511 1892,-2595 3702,-2595 1809,0 3454,1084 3701,2595 286,1744 -1353,3368 -3701,3368zm0 -6989c-2311,0 -4479,1418 -4903,3467 -514,2477 1634,4903 4903,4903 3269,0 5416,-2426 4903,-4903 -425,-2049 -2592,-3467 -4903,-3467z"/>
   <path class="fil12" d="M148725 39009c-113,-544 -688,-920 -1302,-920 -614,0 -1189,376 -1302,920 -136,658 434,1302 1302,1302 868,0 1438,-644 1302,-1302z"/>
   <path class="fil13" d="M153469 39062c-113,-544 -688,-920 -1302,-920 -614,0 -1189,376 -1302,920 -136,658 434,1302 1302,1302 868,0 1438,-644 1302,-1302z"/>
   <path class="fil18" d="M157840 38982c-113,-544 -688,-920 -1302,-920 -614,0 -1189,376 -1302,920 -137,658 434,1302 1302,1302 868,0 1438,-644 1302,-1302z"/>
   <path class="fil13" d="M145720 43148l747 -1527c2042,-68 11122,3 13243,0l611 1527 -14601 0z"/>
   <path class="fil19" d="M146399 42853l589 -911c1612,-41 5168,-39 6802,-73l215 984 -7606 0z"/>
   <path class="fil13" d="M144814 45593l747 -1527c2043,-69 12798,-13 14918,-15l612 1526 -16277 16z"/>
   <path class="fil20" d="M145493 45298l590 -911c1612,-41 9053,-92 10687,-126l216 984 -11493 53z"/>
   <path class="fil1" d="M107180 28038l57293 0c1931,0 3335,-1834 2830,-3698l-6010 -22175c-346,-1278 -1506,-2165 -2829,-2165l-45274 0c-1324,0 -2484,887 -2830,2165l-6009 22175c-505,1864 898,3698 2829,3698z"/>
   <polygon class="fil21" points="108954,24356 114574,3682 157159,3684 162778,24356 "/>
   <path class="fil22" d="M145294 19768c-115,-516 -699,-874 -1322,-874 -624,0 -1208,358 -1323,874 -138,625 441,1237 1323,1237 881,0 1460,-612 1322,-1237z"/>
   <path class="fil22" d="M151291 19740c-114,-517 -699,-875 -1322,-875 -623,0 -1207,358 -1322,875 -139,625 441,1236 1322,1236 882,0 1461,-611 1322,-1236z"/>
   <path class="fil22" d="M157289 19596c-115,-516 -700,-874 -1323,-874 -623,0 -1207,358 -1322,874 -138,625 441,1237 1322,1237 882,0 1461,-612 1323,-1237z"/>
   <path class="fil14" d="M121052 13380l1151 0c-164,3000 2346,5589 5706,5740l-4 1197c-4084,-156 -7104,-3316 -6853,-6937zm6894 -6117l-3 921c-2889,115 -5340,2130 -5701,4794l-1150 0c438,-3201 3401,-5601 6854,-5715zm7382 5715l-1150 0c-365,-2698 -2876,-4730 -5815,-4796l-2 -922c3502,67 6524,2483 6967,5718zm-12328 0c317,-2306 2431,-4059 4941,-4175l-3 923 427 0 -1 -926c2562,67 4734,1838 5056,4178l-1323 0 17 402 1343 0c118,2634 -2123,4883 -5077,4969l-2 -1435 -462 0 -5 1431c-2891,-147 -5065,-2370 -4948,-4965l1221 0 18 -402 -1202 0zm5384 7342l-2 -1197c3423,-88 6002,-2703 5835,-5743l1151 0c254,3661 -2835,6850 -6984,6940zm7546 -6940l1323 0 -40 -402 -1325 0c-485,-3494 -3756,-6094 -7528,-6159l-2 -1195 -407 0 -4 1197c-3723,113 -6935,2697 -7415,6157l-1446 0 -40 402 1444 0c-299,3927 2969,7373 7413,7532l-4 1324 489 0 -3 -1321c4509,-92 7847,-3568 7545,-7535z"/>
   <path class="fil23" d="M119495 18269c-108,-191 -209,-386 -301,-585 -583,-1252 -855,-2631 -757,-4051 8,-102 17,-205 28,-308 10,-102 24,-204 38,-305 196,-1360 720,-2603 1477,-3673 117,-165 240,-325 367,-482 831,-1020 1890,-1865 3094,-2478l-449 -712c-1352,677 -2544,1616 -3481,2754 -127,155 -251,314 -368,477 -866,1192 -1472,2584 -1704,4114 -15,101 -29,203 -42,305 -12,103 -22,206 -31,308 -136,1604 154,3166 803,4586 91,200 191,398 296,592 799,1469 1989,2747 3475,3706l645 -1008c-1310,-840 -2368,-1955 -3090,-3240z"/>
   <polygon class="fil24" points="154426,8737 153917,6863 140529,6863 140848,8737 "/>
   <polygon class="fil20" points="148050,8196 147760,7325 141381,7325 141529,8196 "/>
   <polygon class="fil24" points="155481,12619 154972,10745 141190,10745 141507,12619 "/>
   <polygon class="fil19" points="145290,12080 145000,11210 142043,11208 142192,12078 "/>
   <polygon class="fil24" points="156522,16446 156012,14572 141842,14572 142161,16446 "/>
   <polygon class="fil3" points="154591,15935 154301,15065 142692,15034 142836,15905 "/>
   <path class="fil7" d="M74131 54905l20607 -949c707,-32 1343,-475 1621,-1127l6660 -15657c245,-575 185,-1229 -159,-1751 -344,-520 -922,-830 -1545,-830l-49 0 -71 4c-10846,697 -22717,1867 -33426,3292 -578,77 -1093,428 -1376,938 -283,511 -309,1133 -68,1665l6032 13327c300,662 963,1090 1690,1090l84 -2z"/>
   <path class="fil13" d="M82096 39170c1385,-144 2796,-284 4203,-418l-125 2365c-1243,119 -2529,247 -3839,381l-239 -2328z"/>
   <path class="fil25" d="M88611 43289c1147,-104 2279,-203 3380,-295l-552 2954c-1036,88 -2079,179 -3126,275l298 -2934z"/>
   <path class="fil13" d="M89096 38495c1259,-112 2529,-219 3794,-321l-445 2385c-1170,97 -2373,202 -3590,311l241 -2375z"/>
   <path class="fil13" d="M88068 48642c977,-89 1950,-176 2918,-260l-509 2725 -2671 123 262 -2588z"/>
   <path class="fil13" d="M94650 42778c768,-60 1532,-118 2291,-173l-1278 3002c-569,43 -1140,88 -1714,134l701 -2963z"/>
   <path class="fil13" d="M82578 43872c1173,-121 2334,-236 3468,-345l-155 2923c-1004,97 -2009,196 -3018,299l-295 -2877z"/>
   <path class="fil13" d="M70274 40559c1090,-143 2222,-287 3379,-429l537 2273c-975,117 -1948,237 -2919,360l-997 -2204z"/>
   <path class="fil12" d="M95792 37951c1109,-82 2190,-158 3224,-227l-1024 2410c-914,65 -1836,133 -2765,204l565 -2387z"/>
   <path class="fil13" d="M93371 48182c415,-33 1408,-66 1820,-98l-1229 2890 -1258 31 667 -2823z"/>
   <path class="fil13" d="M83117 49123c884,-90 1766,-177 2646,-263l-132 2471 -2277 105 -237 -2313z"/>
   <path class="fil18" d="M73577 47849l-4 0 -1272 -2811c1157,-140 2818,-336 4245,-503l321 -45c1057,-121 2122,-239 3188,-354l434 2880 39 364 643 4156 -1845 85 -590 45 -3372 139 -1787 -3956z"/>
   <path class="fil13" d="M76409 39798c979,-114 1959,-225 2940,-333l349 2311c-954,103 -1907,209 -2860,317l-429 -2295z"/>
   <path class="fil7" d="M197531 54905l-20607 -949c-707,-32 -1344,-475 -1621,-1127l-6661 -15657c-244,-575 -185,-1229 159,-1751 345,-520 922,-830 1545,-830l50 0 70 4c10847,697 22718,1867 33426,3292 579,77 1093,428 1376,938 284,511 309,1133 68,1665l-6032 13327c-300,662 -963,1090 -1689,1090l-84 -2z"/>
   <path class="fil18" d="M189565 39170c-1385,-144 -2796,-284 -4203,-418l126 2365c1242,119 2529,247 3839,381l238 -2328z"/>
   <path class="fil13" d="M183051 43289c-1147,-104 -2279,-203 -3380,-295l551 2954c1036,88 2079,179 3126,275l-297 -2934z"/>
   <path class="fil13" d="M182565 38495c-1258,-112 -2529,-219 -3793,-321l444 2385c1170,97 2373,202 3590,311l-241 -2375z"/>
   <path class="fil13" d="M183593 48642c-977,-89 -1949,-176 -2917,-260l509 2725 2671 123 -263 -2588z"/>
   <path class="fil13" d="M177011 42778c-768,-60 -1532,-118 -2291,-173l1278 3002c569,43 1141,88 1714,134l-701 -2963z"/>
   <path class="fil13" d="M189083 43872c-1173,-121 -2334,-236 -3467,-345l155 2923c1003,97 2009,196 3018,299l294 -2877z"/>
   <path class="fil13" d="M201387 40559c-1089,-143 -2222,-287 -3378,-429l-538 2273c975,117 1948,237 2919,360l997 -2204z"/>
   <path class="fil13" d="M175870 37951c-1109,-82 -2190,-158 -3225,-227l1024 2410c915,65 1836,133 2766,204l-565 -2387z"/>
   <path class="fil18" d="M178290 48182c-414,-33 -1408,-66 -1819,-98l1228 2890 1259 31 -668 -2823z"/>
   <path class="fil13" d="M188545 49123c-884,-90 -1766,-177 -2646,-263l131 2471 2277 105 238 -2313z"/>
   <path class="fil12" d="M198084 47849l4 0 1272 -2811c-1157,-140 -2818,-336 -4244,-503l-322 -45c-1057,-121 -2122,-239 -3188,-354l-434 2880 -38 364 -644 4156 1846 85 590 45 3371 139 1787 -3956z"/>
   <path class="fil13" d="M195252 39798c-979,-114 -1959,-225 -2939,-333l-350 2311c954,103 1908,209 2861,317l428 -2295z"/>
   <path class="fil7" d="M52262 41741l7515 13880c858,1585 260,3564 -1331,4409l-43280 22985c-2044,1086 -4536,-259 -4750,-2564l-2551 -27500c-149,-1601 897,-3068 2459,-3450l38316 -9366c1432,-350 2920,310 3622,1606z"/>
   <polygon class="fil14" points="49933,44713 49933,44715 12153,56696 11713,52802 48950,42845 "/>
   <polygon class="fil9" points="49933,44714 37774,48572 36510,46170 48948,42845 "/>
   <polygon class="fil26" points="51474,49723 51474,49725 13231,63682 12791,59787 50491,47855 "/>
   <polygon class="fil9" points="51473,49724 30958,57214 29523,54490 50491,47855 "/>
   <polygon class="fil27" points="53486,54147 53486,54150 14371,70654 13930,66759 52502,52280 "/>
   <polygon class="fil9" points="53487,54146 53487,54150 45460,57536 44323,55349 52501,52281 "/>
   <path class="fil26" d="M19450 73466c-256,-677 -1109,-982 -1905,-681 -797,301 -1235,1093 -980,1770 256,677 1109,982 1906,681 796,-301 1235,-1093 979,-1770z"/>
   <path class="fil18" d="M26561 70381c-256,-677 -1109,-981 -1906,-681 -796,301 -1234,1094 -979,1770 256,677 1108,982 1905,681 797,-300 1235,-1093 980,-1770z"/>
   <path class="fil10" d="M33671 67296c-255,-677 -1108,-981 -1905,-681 -796,301 -1235,1094 -979,1770 255,678 1108,982 1905,681 796,-300 1235,-1093 979,-1770z"/>
   <path class="fil12" d="M40782 64212c-256,-677 -1109,-982 -1905,-681 -797,301 -1235,1093 -980,1770 256,677 1109,982 1906,681 796,-301 1235,-1093 979,-1770z"/>
   <path class="fil7" d="M219075 41741l-7515 13880c-857,1585 -260,3564 1331,4409l43279 22985c2045,1086 4537,-259 4751,-2564l2552 -27500c148,-1601 -898,-3068 -2460,-3450l-38316 -9366c-1432,-350 -2920,310 -3622,1606z"/>
   <polygon class="fil14" points="221404,44713 221404,44715 259184,56696 259624,52802 222388,42845 "/>
   <polygon class="fil9" points="221404,44714 233563,48572 234827,46170 222389,42845 "/>
   <polygon class="fil26" points="219863,49723 219863,49725 258106,63682 258546,59787 220846,47855 "/>
   <polygon class="fil9" points="219864,49724 240379,57214 241814,54490 220846,47855 "/>
   <polygon class="fil27" points="217851,54147 217851,54150 256966,70654 257407,66759 218835,52280 "/>
   <polygon class="fil9" points="217850,54146 217850,54150 225877,57536 227014,55349 218836,52281 "/>
   <path class="fil26" d="M251887 73466c256,-677 1108,-982 1905,-681 797,301 1235,1093 980,1770 -256,677 -1109,982 -1906,681 -796,-301 -1235,-1093 -979,-1770z"/>
   <path class="fil18" d="M244776 70381c256,-677 1109,-981 1906,-681 796,301 1235,1094 979,1770 -256,677 -1108,982 -1905,681 -797,-300 -1235,-1093 -980,-1770z"/>
   <path class="fil10" d="M237666 67296c255,-677 1108,-981 1905,-681 796,301 1235,1094 979,1770 -255,678 -1108,982 -1905,681 -796,-300 -1235,-1093 -979,-1770z"/>
   <path class="fil12" d="M230555 64212c256,-677 1108,-982 1905,-681 797,301 1235,1093 980,1770 -256,677 -1109,982 -1906,681 -796,-301 -1235,-1093 -979,-1770z"/>
   <path class="fil28" d="M131200 62020l-8899 0c-1511,0 -2844,-1082 -3217,-2513 -85,314 -120,651 -95,1001 119,1710 1602,3096 3312,3096l8899 0c1710,0 2999,-1386 2879,-3096 -14,-199 -46,-394 -95,-582 -331,1218 -1424,2094 -2784,2094z"/>
   <path class="fil28" d="M141584 62020l8899 0c1511,0 2845,-1082 3217,-2513 85,314 120,651 95,1001 -119,1710 -1602,3096 -3312,3096l-8899 0c-1710,0 -2998,-1386 -2879,-3096 14,-199 47,-394 96,-582 331,1218 1424,2094 2783,2094z"/>
   <path class="fil29" d="M6237 27342l-6237 1091c36261,-5555 70104,-12021 106964,-13736l429 -1582c-7930,438 -15783,1080 -23587,1901 -26124,2748 -51721,7806 -77569,12326z"/>
   <path class="fil29" d="M265416 27342l6238 1091c-36261,-5555 -70104,-12021 -106964,-13736l-429 -1582c7930,438 15783,1080 23587,1901 26123,2748 51720,7806 77568,12326z"/>
   <path class="fil29" d="M135827 1349l20821 0 433 0 1270 0c1317,0 2471,887 2815,2165l5755 19416 -2234 -8242 -373 -1378 -3021 -11145c-331,-1221 -1404,-2085 -2654,-2160 -58,-3 -117,-5 -175,-5l-3130 0 -19507 0 -19508 0 -3129 0c-59,0 -117,2 -175,5 -1250,75 -2324,939 -2655,2160l-3020 11145 -374 1378 -2233 8242 5754 -19416c345,-1278 1498,-2165 2816,-2165l1269 0 434 0 20821 0z"/>
   <polygon class="fil30" points="114759,3682 114369,3682 108750,24356 162778,24356 162765,24306 111470,23948 109254,23933 "/>
   <polygon class="fil31" points="162840,24080 162242,21881 157296,3684 157023,3684 159571,13059 161965,21867 162642,24356 162915,24356 "/>
   <polygon class="fil32" points="129606,81258 130726,67431 128236,67431 "/>
   <polygon class="fil32" points="143179,81258 144549,67431 142058,67431 "/>
   <g>
    <ellipse class="fil33" cx="127924" cy="42365" rx="3733" ry="2884"/>
    <path class="fil29" d="M128628 43181l0 544 -2817 0 0 -544 2817 0zm-2817 -1633l0 -544c1409,0 2817,0 4226,0l-704 544c-1174,0 -2348,0 -3522,0zm4226 545c0,544 0,1088 0,1632l-704 0 0 -1088 0 0 -3522 0 0 -544c1409,0 2817,0 4226,0z"/>
   </g>
   <g>
    <ellipse class="fil34" cx="139243" cy="42364" rx="3733" ry="2884"/>
    <path class="fil29" d="M139947 43181l0 544 -2817 0 0 -544 2817 0zm-2817 -1633l0 -544c1408,0 2817,0 4226,0l-705 544c-1173,0 -2347,0 -3521,0zm4226 544c0,544 0,1089 0,1633l-705 0 0 -1089 0 0 -3521 0 0 -544c1408,0 2817,0 4226,0z"/>
   </g>
   <g>
    <ellipse class="fil35" cx="116348" cy="42364" rx="3733" ry="2884"/>
    <path class="fil29" d="M117052 43181l0 544 -2817 0 0 -544 2817 0zm-2817 -1633l0 -544c1409,0 2817,0 4226,0l-704 544c-1174,0 -2348,0 -3522,0zm4226 544c0,544 0,1089 0,1633l-704 0 0 -1089 0 0 -3522 0 0 -544c1409,0 2817,0 4226,0z"/>
   </g>
   <path class="fil23" d="M136925 18269c108,-191 209,-386 301,-585 583,-1252 855,-2631 757,-4051 -8,-102 -17,-205 -28,-308 -10,-102 -23,-204 -38,-305 -196,-1360 -720,-2603 -1477,-3673 -117,-165 -240,-325 -367,-482 -831,-1020 -1890,-1865 -3094,-2478l449 -712c1352,677 2544,1616 3481,2754 127,155 251,314 368,477 866,1192 1472,2584 1704,4114 15,101 30,203 42,305 12,103 22,206 31,308 136,1604 -154,3166 -803,4586 -91,200 -190,398 -296,592 -799,1469 -1989,2747 -3475,3706l-645 -1008c1310,-840 2368,-1955 3090,-3240z"/>
   <path class="fil36" d="M125560 11543c-44,525 -87,1051 -131,1576 -43,525 -86,1051 -129,1576 -114,0 -228,0 -342,0 36,-392 73,-785 109,-1177 36,-392 72,-785 108,-1178 -81,121 -163,243 -245,364 -73,-106 -145,-211 -216,-317 194,-281 387,-563 576,-844 90,0 180,0 270,0zm596 2224c-9,155 33,275 126,359 74,67 170,101 285,101 115,0 215,-33 296,-101 99,-82 150,-202 155,-359 7,-217 14,-435 21,-653 7,-217 15,-435 23,-653 5,-158 -35,-280 -123,-363 -68,-65 -159,-96 -269,-96 -110,0 -203,31 -278,96 -95,82 -148,204 -158,363 -13,218 -27,436 -39,653 -13,218 -26,436 -39,653zm388 968c-208,0 -382,-77 -520,-233 -157,-180 -225,-426 -203,-735 15,-217 30,-435 45,-653 15,-217 30,-435 45,-653 22,-315 119,-560 285,-739 143,-154 308,-234 498,-235 188,-1 347,78 477,235 149,178 221,424 213,739 -6,218 -11,436 -16,653 -5,218 -10,436 -16,653 -7,309 -94,555 -267,735 -151,156 -333,233 -541,233zm1554 -968c0,155 48,275 146,359 79,67 176,101 290,101 117,0 214,-33 292,-101 93,-82 136,-202 133,-359 -5,-217 -10,-435 -16,-653 -5,-218 -10,-435 -16,-653 -3,-158 -50,-280 -142,-363 -72,-65 -165,-96 -275,-96 -110,0 -201,32 -272,96 -91,82 -138,203 -138,363 -1,218 -1,436 -1,653 0,218 0,436 -1,653zm443 968c-208,0 -387,-77 -533,-233 -168,-179 -249,-426 -245,-735 2,-217 4,-435 7,-653 2,-218 5,-435 8,-653 3,-315 85,-560 241,-739 135,-154 295,-234 485,-235 188,-1 351,78 490,235 159,178 246,424 256,739 7,218 14,436 22,653 7,218 15,436 22,653 10,309 -63,556 -225,735 -142,156 -319,233 -528,233zm1878 -2440c18,257 -8,462 -79,614 -70,150 -170,226 -297,227 -289,1 -445,-283 -470,-849 -11,-252 19,-453 91,-608 67,-146 161,-219 283,-219 129,0 236,71 318,215 84,146 136,353 154,620zm-303 2735c-98,-90 -197,-180 -295,-270 220,-572 435,-1143 635,-1716 198,-571 381,-1144 560,-1716 93,90 187,180 282,271 -176,572 -358,1146 -554,1716 -197,573 -410,1144 -628,1715zm48 -2735c-18,-296 -86,-446 -203,-446 -108,0 -154,146 -139,438 16,300 79,450 192,450 118,0 168,-148 150,-442zm1313 1573c-29,-296 -105,-444 -228,-444 -113,0 -156,145 -131,435 27,300 98,450 216,450 123,0 171,-147 143,-441zm268 5c27,258 6,463 -64,615 -69,150 -170,224 -303,224 -302,0 -477,-283 -522,-848 -19,-251 7,-453 76,-605 67,-146 162,-220 289,-220 137,0 252,72 343,215 93,146 153,353 181,619z"/>
  </g>
 </g>
</svg>
