<?xml version="1.0" encoding="UTF-8"?>
<!DOCTYPE svg PUBLIC "-//W3C//DTD SVG 1.1//EN" "http://www.w3.org/Graphics/SVG/1.1/DTD/svg11.dtd">
<!-- Creator: CorelDRAW X7 -->
<svg xmlns="http://www.w3.org/2000/svg" xml:space="preserve" width="27.1654in" height="17.2808in" version="1.1" style="shape-rendering:geometricPrecision; text-rendering:geometricPrecision; image-rendering:optimizeQuality; fill-rule:evenodd; clip-rule:evenodd"
viewBox="0 0 271654 172808"
 xmlns:xlink="http://www.w3.org/1999/xlink">
 <defs>
  <style type="text/css">
   <![CDATA[
    .fil64 {fill:#846D45}
    .fil35 {fill:#899FCF}
    .fil66 {fill:#9D8457}
    .fil69 {fill:#9F9CCB}
    .fil68 {fill:#A5B6DB}
    .fil34 {fill:#A7B7DB}
    .fil63 {fill:#BB9B61}
    .fil24 {fill:#CAD4EB}
    .fil16 {fill:#D1B585}
    .fil67 {fill:#D7B67C}
    .fil14 {fill:#D7BD91}
    .fil0 {fill:#DDC290}
    .fil2 {fill:#E1C99D}
    .fil8 {fill:#E5D0AA}
    .fil1 {fill:#EBDBBC}
    .fil36 {fill:#EDDFC4}
    .fil5 {fill:#EFE2CA}
    .fil6 {fill:#F4EBDB}
    .fil9 {fill:#F6F1E5}
    .fil7 {fill:#FBF5EF}
    .fil4 {fill:#FCFBF7}
    .fil3 {fill:white}
    .fil65 {fill:white}
    .fil32 {fill:#6B7692;fill-rule:nonzero}
    .fil25 {fill:#6E7C9A;fill-rule:nonzero}
    .fil23 {fill:#7487B2;fill-rule:nonzero}
    .fil28 {fill:#8293BA;fill-rule:nonzero}
    .fil18 {fill:#899FCF;fill-rule:nonzero}
    .fil55 {fill:#9F9CCB;fill-rule:nonzero}
    .fil27 {fill:#A0B2D8;fill-rule:nonzero}
    .fil56 {fill:#A38755;fill-rule:nonzero}
    .fil54 {fill:#A6B7DE;fill-rule:nonzero}
    .fil21 {fill:#A7B7DB;fill-rule:nonzero}
    .fil33 {fill:#B0BEDF;fill-rule:nonzero}
    .fil29 {fill:#B8C5E2;fill-rule:nonzero}
    .fil45 {fill:#BB9B61;fill-rule:nonzero}
    .fil31 {fill:#BCC8E5;fill-rule:nonzero}
    .fil30 {fill:#BECAE6;fill-rule:nonzero}
    .fil47 {fill:#C2CDE6;fill-rule:nonzero}
    .fil60 {fill:#C4C2DF;fill-rule:nonzero}
    .fil22 {fill:#CAD4EB;fill-rule:nonzero}
    .fil15 {fill:#CEB68C;fill-rule:nonzero}
    .fil50 {fill:#CFCEE5;fill-rule:nonzero}
    .fil58 {fill:#D0D9EC;fill-rule:nonzero}
    .fil17 {fill:#D1B585;fill-rule:nonzero}
    .fil39 {fill:#D2AE6D;fill-rule:nonzero}
    .fil62 {fill:#D2D0E6;fill-rule:nonzero}
    .fil26 {fill:#D2DBEE;fill-rule:nonzero}
    .fil52 {fill:#D3DBED;fill-rule:nonzero}
    .fil41 {fill:#D5B376;fill-rule:nonzero}
    .fil53 {fill:#D5DDEF;fill-rule:nonzero}
    .fil19 {fill:#D8E0F1;fill-rule:nonzero}
    .fil44 {fill:#DBBD89;fill-rule:nonzero}
    .fil43 {fill:#DCC08D;fill-rule:nonzero}
    .fil12 {fill:#DFCFB3;fill-rule:nonzero}
    .fil13 {fill:#E2CBA1;fill-rule:nonzero}
    .fil49 {fill:#E3E9F4;fill-rule:nonzero}
    .fil57 {fill:#E4E3F0;fill-rule:nonzero}
    .fil11 {fill:#E5D4B7;fill-rule:nonzero}
    .fil38 {fill:#E6D2AE;fill-rule:nonzero}
    .fil61 {fill:#EAD8BB;fill-rule:nonzero}
    .fil51 {fill:#EBDBBD;fill-rule:nonzero}
    .fil10 {fill:#ECDDC2;fill-rule:nonzero}
    .fil42 {fill:#EDDFC4;fill-rule:nonzero}
    .fil37 {fill:#EFE2CA;fill-rule:nonzero}
    .fil48 {fill:#F6F0E3;fill-rule:nonzero}
    .fil59 {fill:#FBF7F2;fill-rule:nonzero}
    .fil46 {fill:#FBF8F2;fill-rule:nonzero}
    .fil40 {fill:#FFB586;fill-rule:nonzero}
    .fil20 {fill:white;fill-rule:nonzero}
    .fil70 {fill:white;fill-rule:nonzero}
   ]]>
  </style>
 </defs>
 <g id="Layer_x0020_1">
  <metadata id="CorelCorpID_0Corel-Layer"/>
  <g id="_2704398464240">
   <g>
    <path class="fil0" d="M271654 80747c-11229,3650 -24085,27873 -30220,38486l30220 -1941 0 -36545z"/>
    <path class="fil1" d="M9737 116660c-2220,-2776 -7803,-10271 -9737,-13267l0 13899 9737 -632z"/>
    <path class="fil2" d="M271654 0l-31966 0c3855,12837 5927,26446 5927,40538 0,25372 -10047,55008 -21796,75563l33199 -1368c6134,-10613 11074,-22003 14636,-33986l0 -80747z"/>
    <path class="fil3" d="M52168 75777c0,-8836 -7164,-16000 -16000,-16000 -8837,0 -16000,7164 -16000,16000 0,8837 7163,16000 16000,16000 8836,0 16000,-7163 16000,-16000z"/>
    <path class="fil4" d="M80422 70743c0,-18677 -15141,-33818 -33818,-33818 -18677,0 -33818,15141 -33818,33818 0,18677 15141,33818 33818,33818 18677,0 33818,-15141 33818,-33818zm-44254 -10966c8836,0 16000,7164 16000,16000 0,8837 -7164,16000 -16000,16000 -8837,0 -16000,-7163 -16000,-16000 0,-8836 7163,-16000 16000,-16000z"/>
    <path class="fil5" d="M10674 0l-10674 0 0 16278c2953,-5833 6541,-11289 10674,-16278z"/>
    <path class="fil6" d="M33650 0l-22976 0c-4133,4989 -7721,10445 -10674,16278l0 27871c4627,-18958 17036,-34867 33650,-44149z"/>
    <path class="fil5" d="M18361 116292c-5475,-5922 -14682,-19396 -18361,-26663l0 17910c1934,2995 4017,5886 6237,8662l12124 91z"/>
    <path class="fil6" d="M25846 114482c-10833,-9298 -22351,-27461 -25846,-41781l0 22303c3679,7267 8344,13949 13820,19871l12026 -393z"/>
    <path class="fil7" d="M108677 65709c0,-28518 -23119,-51636 -51637,-51636 -28518,0 -51636,23118 -51636,51636 0,19896 11253,37164 27741,45787l13504 -2362c15242,-2665 30553,-4643 45898,-5934 9934,-9411 16130,-22727 16130,-37491zm-62073 -28784c18677,0 33818,15141 33818,33818 0,18677 -15141,33818 -33818,33818 -18677,0 -33818,-15141 -33818,-33818 0,-18677 15141,-33818 33818,-33818z"/>
    <path class="fil8" d="M244022 0l-33692 0c5630,14092 8726,29471 8726,45572 0,22022 -5791,42691 -15934,60567 4381,6024 21077,5333 28364,4129 11748,-20555 18462,-44358 18462,-69730 0,-14092 -2071,-27701 -5926,-40538z"/>
    <path class="fil1" d="M212968 0l-34501 0c8263,15011 12965,32260 12965,50607 0,19169 -5133,37140 -14099,52613l0 0c-541,5061 24916,6961 28427,2919 10143,-17876 15934,-38545 15934,-60567 0,-16101 -3096,-31480 -8726,-45572z"/>
    <path class="fil5" d="M180474 0l-38630 0c12513,15104 20034,34494 20034,55641 0,11763 -2327,22982 -6546,33223 2787,166 7515,13557 8982,16140 5012,277 11688,2209 15027,-1784 8966,-15473 14099,-33444 14099,-52613 0,-18347 -4702,-35596 -12966,-50607z"/>
    <path class="fil6" d="M165185 55641c0,-21147 -7521,-40537 -20034,-55641l-47077 0c21256,11876 35629,34597 35629,60675 0,10034 -2128,19571 -5957,28184l6772 8333c2458,-855 19452,-4235 24121,-8328 4219,-10241 6546,-21460 6546,-33223z"/>
    <path class="fil9" d="M33650 0c-16614,9282 -29023,25191 -33650,44149l0 33052c3495,14320 11430,26899 22263,36198l10882 -1903c-16488,-8623 -27741,-25891 -27741,-45787 0,-28518 23118,-51636 51636,-51636 28518,0 51637,23118 51637,51636 0,14764 -6196,28080 -16130,37491 4928,-414 9859,-758 14793,-1031l3020 -11145c346,-1278 1506,-2165 2830,-2165l17784 0c3829,-8613 5957,-18150 5957,-28184 0,-26078 -14372,-48799 -35628,-60675l-32730 0 -34923 0z"/>
   </g>
   <g>
    <g>
     <path class="fil10" d="M28745 71626c0,2841 -2316,5156 -5157,5156 -2841,0 -5141,-2315 -5141,-5156 0,-2841 2300,-5141 5141,-5141 2841,0 5157,2300 5157,5141z"/>
     <g>
      <path class="fil11" d="M19619 74888c-736,-887 -1172,-2014 -1172,-3262 0,-2841 2300,-5141 5141,-5141 1594,0 3007,721 3954,1849 0,0 -3879,-1489 -6269,902 -2390,2390 -1654,5652 -1654,5652z"/>
      <path class="fil12" d="M24466 68786c-60,60 -120,120 -180,180 -90,91 -90,256 0,346 105,90 256,90 361,0 60,-60 105,-120 165,-165 90,-105 90,-271 0,-361 -90,-90 -255,-90 -346,0z"/>
      <path class="fil12" d="M25835 74709c330,0 330,-511 0,-511 -316,0 -316,511 0,511z"/>
      <path class="fil12" d="M22753 70846c421,0 421,-677 0,-677 -436,0 -436,677 0,677z"/>
     </g>
     <g>
      <path class="fil12" d="M21715 71702l181 0c210,0 210,-330 0,-330l-181 0c-210,0 -210,330 0,330z"/>
      <path class="fil12" d="M25203 72407c752,0 752,-1172 0,-1172 -752,0 -752,1172 0,1172z"/>
     </g>
    </g>
    <g>
     <path class="fil13" d="M0 0l0 64286c29309,-7388 51006,-33341 51243,-64286l-51243 0z"/>
     <path class="fil14" d="M0 57909c22943,-5360 42424,-22202 49687,-45909 340,-1107 645,-2203 928,-3310 -3801,27029 -24085,48908 -50614,55596l0 -6377 -1 0z"/>
     <path class="fil15" d="M34341 29827c-427,0 -428,650 0,650 427,0 428,-650 0,-650z"/>
     <path class="fil15" d="M12953 41875l0 -111c0,-145 -226,-145 -226,0l0 111c0,132 226,132 226,0z"/>
     <path class="fil15" d="M29707 32618c-136,0 -136,211 0,211 147,0 147,-211 0,-211z"/>
     <path class="fil15" d="M20634 48751c-45,-33 -79,-78 -124,-111 -45,-55 -124,22 -68,78 34,33 68,77 114,111 45,44 124,-22 79,-78l-1 0z"/>
     <path class="fil15" d="M10554 49072c-67,0 -67,111 0,111 80,0 80,-111 0,-111z"/>
     <path class="fil15" d="M12794 23317c-33,33 -67,66 -113,111 -45,44 34,121 80,77 45,-44 79,-77 113,-111 56,-55 -23,-132 -80,-77z"/>
     <path class="fil15" d="M8428 33769c45,-44 79,-77 113,-111 57,-55 -22,-133 -68,-77 -45,33 -79,66 -124,111 -45,44 34,121 80,77l-1 0z"/>
     <path class="fil15" d="M17738 34899c-68,0 -68,111 0,111 68,0 68,-111 0,-111z"/>
     <path class="fil15" d="M23553 27812l0 111c0,145 226,145 226,0l0 -111c0,-132 -226,-132 -226,0z"/>
     <path class="fil15" d="M30850 22353l-113 0c-147,0 -147,211 0,211l113 0c148,0 148,-211 0,-211z"/>
     <path class="fil15" d="M43611 23018l-113 0c-136,0 -136,221 0,221l113 0c148,0 148,-221 0,-221z"/>
     <path class="fil15" d="M11245 50080c-215,0 -215,320 0,320 215,0 215,-320 0,-320z"/>
     <path class="fil15" d="M20533 39416l0 -111c0,-88 -80,-166 -170,-166 -90,12 -170,78 -170,166l0 111c0,89 80,166 170,166 90,-11 170,-77 170,-166z"/>
     <path class="fil15" d="M15917 33958c-283,0 -283,432 0,432 283,0 283,-432 0,-432z"/>
     <path class="fil15" d="M28802 27934c-147,0 -147,211 0,211 136,0 136,-211 0,-211z"/>
     <path class="fil15" d="M32332 27369c-147,0 -147,222 0,222 147,0 147,-222 0,-222z"/>
     <path class="fil15" d="M40534 20903c-136,0 -136,211 0,211 147,0 147,-211 0,-211z"/>
     <path class="fil15" d="M42356 17880l0 -111c0,-133 -216,-133 -216,0l0 111c0,144 216,144 216,0z"/>
     <path class="fil15" d="M43690 19297c46,-33 80,-77 114,-111 101,-99 -46,-254 -148,-155 -45,45 -79,78 -113,111 -102,100 45,255 147,155z"/>
     <path class="fil15" d="M43045 20449c-147,0 -147,222 0,222 148,0 148,-222 0,-222z"/>
     <path class="fil15" d="M46123 20781l0 -110c0,-133 -226,-133 -226,0l0 110c0,145 226,145 226,0z"/>
     <path class="fil15" d="M42254 24911l-124 0c-136,0 -136,221 0,221l124 0c136,0 136,-221 0,-221z"/>
     <path class="fil15" d="M40194 23018c-135,0 -135,221 0,221 148,0 148,-221 0,-221z"/>
     <path class="fil15" d="M36695 16025c-148,0 -148,221 0,221 135,0 135,-221 0,-221z"/>
     <path class="fil15" d="M21505 23350c-147,0 -147,221 0,221 136,0 136,-221 0,-221z"/>
     <path class="fil15" d="M39742 28598c-147,0 -147,222 0,222 136,0 136,-222 0,-222z"/>
     <path class="fil15" d="M37344 32164c-136,0 -136,221 0,221 147,0 147,-221 0,-221z"/>
     <path class="fil15" d="M3257 31278l-113 0c-136,0 -136,210 0,210l113 0c148,0 148,-210 0,-210z"/>
     <path class="fil15" d="M6799 27591l0 -111c0,-145 -226,-145 -226,0l0 111c0,144 226,144 226,0z"/>
     <path class="fil15" d="M12727 29717c-148,0 -148,210 0,210 135,0 135,-210 0,-210z"/>
     <path class="fil15" d="M2353 36859c-148,0 -148,210 0,210 135,0 135,-210 0,-210z"/>
     <path class="fil15" d="M9638 39416l0 -111c0,-144 -215,-144 -215,0l0 111c0,145 215,145 215,0z"/>
     <path class="fil15" d="M12387 46116c-147,0 -147,221 0,221 136,0 136,-221 0,-221z"/>
     <path class="fil15" d="M2175 51656c-136,0 -136,211 0,211 147,0 147,-211 0,-211z"/>
     <path class="fil15" d="M5735 55672c34,-34 79,-78 113,-111 102,-100 -56,-255 -158,-155 -34,44 -68,78 -113,111 -102,99 56,254 158,155z"/>
     <path class="fil15" d="M26868 38310c34,-45 68,-78 113,-111 56,-67 56,-178 0,-233 -68,-66 -181,-66 -237,0 -34,33 -80,78 -114,111 -68,55 -68,166 0,233 57,55 170,55 238,0z"/>
     <path class="fil15" d="M18994 44278c-215,0 -215,321 0,321 215,0 215,-321 0,-321z"/>
     <path class="fil15" d="M16426 47898l0 -111c0,-88 -79,-166 -170,-166 -90,0 -169,78 -169,166l0 111c0,89 79,167 169,167 91,-12 170,-78 170,-167z"/>
     <path class="fil15" d="M9536 25089c-215,0 -215,320 0,320 215,0 215,-320 0,-320z"/>
     <path class="fil15" d="M45484 3650l-114 0c-90,0 -169,78 -169,166 11,88 79,166 169,166l114 0c90,0 170,-78 170,-166 -12,-88 -80,-166 -170,-166z"/>
     <path class="fil15" d="M22184 16385c-215,0 -215,321 0,321 215,0 215,-321 0,-321z"/>
     <path class="fil15" d="M18077 27314l-113 0c-79,0 -170,78 -158,166 0,89 68,166 158,166l113 0c91,0 170,-77 170,-166 0,-88 -68,-166 -170,-166z"/>
     <path class="fil15" d="M15464 24524c-215,0 -215,332 0,332 215,0 215,-332 0,-332z"/>
     <path class="fil15" d="M11584 24745c-215,0 -215,332 0,332 215,0 215,-332 0,-332z"/>
     <path class="fil15" d="M9423 27989c-215,0 -215,321 0,321 204,0 215,-321 0,-321z"/>
     <path class="fil15" d="M13631 52139c-283,0 -283,443 0,443 294,0 294,-443 0,-443z"/>
     <path class="fil15" d="M17444 31787c-45,-33 -79,-77 -113,-111 -90,-77 -238,-88 -317,0 -80,89 -90,222 0,311 34,33 79,66 113,111 80,77 238,88 317,0 80,-89 80,-222 0,-311z"/>
     <path class="fil15" d="M21732 33216c-68,33 -147,78 -226,111 -102,55 -136,199 -79,299 67,99 192,133 305,77 79,-33 158,-77 226,-110 102,-56 147,-200 80,-299 -68,-100 -193,-133 -306,-78z"/>
     <path class="fil15" d="M39290 15488c-216,0 -216,333 0,333 203,0 215,-333 0,-333z"/>
     <path class="fil15" d="M45670 12366c-215,0 -215,321 0,321 215,0 215,-321 0,-321z"/>
     <path class="fil15" d="M11924 33005c-216,0 -216,332 0,332 215,0 215,-332 0,-332z"/>
     <path class="fil15" d="M10781 35907c-204,0 -204,320 0,320 215,0 215,-320 0,-320z"/>
     <path class="fil15" d="M3382 34124c-215,0 -215,321 0,321 203,0 203,-321 0,-321z"/>
     <path class="fil15" d="M5430 34124c-216,0 -216,321 0,321 215,0 215,-321 0,-321z"/>
     <path class="fil15" d="M22637 43834c-204,0 -215,321 0,321 215,0 215,-321 0,-321z"/>
     <path class="fil15" d="M10499 15754c-215,0 -215,321 0,321 215,0 215,-321 0,-321z"/>
     <path class="fil15" d="M6799 21966c-215,0 -215,321 0,321 215,0 215,-321 0,-321z"/>
     <path class="fil15" d="M15547 38727c-215,0 -215,321 0,321 215,0 215,-321 0,-321z"/>
     <path class="fil15" d="M12397 38370c-215,0 -215,321 0,321 215,0 215,-321 0,-321z"/>
     <path class="fil15" d="M9070 43986c-215,0 -215,320 0,320 215,0 215,-320 0,-320z"/>
     <path class="fil15" d="M5656 48065c-216,0 -216,332 0,332 215,0 215,-332 0,-332z"/>
     <path class="fil15" d="M7590 49294c-215,0 -215,332 0,332 215,0 215,-332 0,-332z"/>
     <path class="fil15" d="M7364 51863c-215,0 -215,321 0,321 215,0 215,-321 0,-321z"/>
     <path class="fil15" d="M6618 30315c33,-34 67,-78 113,-111 147,-145 147,-399 0,-543 -158,-133 -396,-144 -555,0 -34,44 -68,78 -113,111 -136,144 -147,398 0,543 158,132 396,144 555,0z"/>
     <path class="fil15" d="M38373 19453l-113 0c-147,0 -147,210 0,210l113 0c148,0 148,-210 0,-210z"/>
     <path class="fil15" d="M29934 39195c-136,0 -136,221 0,221 147,0 147,-221 0,-221z"/>
     <path class="fil15" d="M27275 36704c46,-33 79,-78 113,-111 102,-100 -45,-255 -147,-155 -45,45 -79,78 -113,111 -102,100 45,254 147,155z"/>
     <path class="fil15" d="M32106 35176c-147,0 -147,221 0,221 136,0 136,-221 0,-221z"/>
     <path class="fil15" d="M32785 30824l0 -111c0,-133 -226,-133 -226,0l0 111c0,144 226,144 226,0z"/>
     <path class="fil15" d="M16030 45784l-113 0c-147,0 -147,210 0,210l113 0c148,0 148,-210 0,-210z"/>
     <path class="fil15" d="M13292 48795c-136,0 -136,211 0,211 147,0 147,-211 0,-211z"/>
     <path class="fil15" d="M4977 28765c-215,0 -215,332 0,332 215,0 215,-332 0,-332z"/>
     <path class="fil15" d="M4739 29772c-203,0 -203,321 0,321 215,0 215,-321 0,-321z"/>
     <path class="fil15" d="M1733 11908c-215,0 -215,332 0,332 204,0 204,-332 0,-332z"/>
     <path class="fil15" d="M5316 27424c-215,0 -215,333 0,333 215,0 215,-333 0,-333z"/>
     <path class="fil15" d="M3721 27989c-215,0 -215,321 0,321 215,0 215,-321 0,-321z"/>
     <path class="fil15" d="M11131 48906c-283,0 -293,432 0,432 283,0 283,-432 0,-432z"/>
     <path class="fil15" d="M1323 37634c-136,0 -136,221 0,221 147,0 147,-221 0,-221z"/>
     <path class="fil15" d="M2013 37634c-294,0 -294,443 0,443 283,0 283,-443 0,-443z"/>
     <path class="fil16" d="M25376 20736c1149,-3156 3924,-5068 6483,-4635 -395,-351 -846,-632 -1349,-825 -2758,-1052 -6025,927 -7297,4421 -1272,3494 -68,7180 2690,8233 267,101 540,167 814,213 -1765,-1570 -2381,-4551 -1341,-7407z"/>
     <path class="fil14" d="M15275 38317c1650,-704 3397,-351 4148,765 -5,-274 -57,-545 -162,-803 -580,-1413 -2531,-1927 -4357,-1147 -1826,780 -2837,2558 -2257,3971 56,137 129,263 210,382 -21,-1227 926,-2530 2418,-3168z"/>
     <path class="fil16" d="M9952 45362c1070,-717 2355,-698 3041,-8 -42,-193 -115,-378 -226,-547 -606,-923 -2057,-1028 -3241,-235 -1185,794 -1654,2185 -1048,3109 58,89 127,168 201,243 -184,-866 305,-1914 1273,-2562z"/>
     <path class="fil15" d="M32325 35573c-308,0 -308,-475 0,-475 330,0 330,475 0,475z"/>
     <path class="fil15" d="M4463 33979c-155,0 -155,-237 0,-237 154,0 154,237 0,237z"/>
     <path class="fil15" d="M5453 30403c-308,0 -308,-475 0,-475 330,0 330,475 0,475z"/>
     <path class="fil15" d="M13993 43198l0 237c0,323 -485,323 -485,0l0 -237c0,-301 485,-301 485,0z"/>
     <path class="fil15" d="M5453 47118l-242 0c-307,0 -307,-474 0,-474l242 0c330,0 330,474 0,474z"/>
     <path class="fil15" d="M10977 27818c-463,0 -463,-711 0,-711 484,0 484,711 0,711z"/>
     <path class="fil15" d="M27633 20555l0 236c0,323 -505,323 -505,0l0 -236c0,-302 505,-302 505,0z"/>
     <path class="fil15" d="M26559 27214c-308,0 -308,-474 0,-474 307,0 307,474 0,474z"/>
     <path class="fil15" d="M13002 20580c-330,0 -330,-495 0,-495 308,0 308,495 0,495z"/>
     <path class="fil15" d="M41128 18232c-485,0 -485,-711 0,-711 462,0 462,711 0,711z"/>
     <path class="fil15" d="M24050 35680c-485,0 -485,-711 0,-711 462,0 462,711 0,711z"/>
     <path class="fil17" d="M6707 41734c-88,-87 -154,-172 -241,-259 -155,-129 -155,-366 0,-495 132,-151 373,-151 505,0 89,87 176,151 265,237 132,151 132,365 0,517 -155,129 -374,129 -529,0z"/>
     <path class="fil15" d="M4704 19223l-241 0c-199,0 -374,-172 -374,-366 22,-194 154,-366 374,-366l241 0c198,0 374,172 374,366 -23,194 -155,366 -374,366z"/>
     <path class="fil15" d="M2438 25857c-462,0 -462,-711 0,-711 485,0 485,711 0,711z"/>
     <path class="fil17" d="M19516 26719c-616,0 -616,-969 0,-969 638,0 638,969 0,969z"/>
     <path class="fil15" d="M17452 39593c89,-86 155,-172 242,-236 220,-216 572,107 352,323 -88,86 -175,172 -264,258 -220,216 -550,-129 -330,-345z"/>
     <path class="fil15" d="M19032 43198c-330,0 -330,-495 0,-495 307,0 307,495 0,495z"/>
     <path class="fil17" d="M34591 24134c-462,0 -462,-711 0,-711 485,0 485,711 0,711z"/>
     <path class="fil15" d="M34349 27323c-484,0 -484,-711 0,-711 463,0 463,711 0,711z"/>
     <path class="fil17" d="M39367 22799c-66,87 -154,172 -241,237 -132,151 -374,151 -528,0 -132,-130 -132,-366 0,-495 88,-87 175,-172 264,-237 132,-151 373,-151 505,0 155,129 155,366 0,495z"/>
     <path class="fil15" d="M10977 30144c-617,0 -617,-947 0,-947 637,0 637,947 0,947z"/>
     <path class="fil15" d="M41692 8444l0 237c0,323 -505,323 -505,0l0 -237c0,-301 505,-301 505,0z"/>
     <path class="fil15" d="M12979 9390c66,86 155,172 242,236 132,152 374,152 528,0 132,-129 132,-365 0,-495 -88,-86 -176,-172 -264,-236 -132,-151 -374,-151 -506,0 -154,129 -154,366 0,495z"/>
     <path class="fil15" d="M35363 10554c-331,0 -331,-509 0,-509 347,0 347,509 0,509z"/>
     <path class="fil15" d="M7982 4847c-215,0 -215,321 0,321 215,0 215,-321 0,-321z"/>
     <path class="fil15" d="M25419 10166c-216,0 -216,332 0,332 215,0 215,-332 0,-332z"/>
     <path class="fil15" d="M3432 43939c-203,0 -203,321 0,321 215,0 215,-321 0,-321z"/>
    </g>
   </g>
   <g>
    <g>
     <path class="fil18" d="M230180 51224c0,0 -46,-532 4,-972 50,-440 -17,-1117 -59,-1418 -42,-301 -452,-1237 -463,-1725l1197 -2167 742 5462c0,0 -679,200 -964,378 -286,178 -457,442 -457,442z"/>
     <path class="fil18" d="M232918 53024c0,0 588,142 1026,-179 678,-496 1232,-1621 505,-2365l-2450 257 919 2287z"/>
     <path class="fil19" d="M228649 41398c-226,1059 449,2101 1508,2328 1060,226 2102,-449 2328,-1509 226,-1059 -449,-2101 -1508,-2327 -1060,-226 -2102,449 -2328,1508z"/>
     <path class="fil20" d="M229312 43316c-541,-452 -820,-1181 -663,-1918 118,-551 456,-998 903,-1268 0,0 -823,727 -815,1584 10,909 575,1602 575,1602z"/>
     <path class="fil21" d="M229776 40928c0,0 -205,-199 -386,-489 -181,-291 -129,-412 -110,-461 20,-49 854,-459 1337,-528 484,-69 1401,3 1927,580 527,576 512,1514 494,1849 0,0 -807,86 -1590,396 -782,310 -1485,902 -1485,902l-82 -302 194 -1185 -299 -762z"/>
     <path class="fil20" d="M232544 40030c-526,-577 -1443,-649 -1927,-580 -483,69 -1317,479 -1336,528 -20,49 -72,170 109,461 0,0 -115,-262 50,-431 165,-169 1403,-740 2302,-435 749,253 802,457 802,457z"/>
     <path class="fil22" d="M230111 41687l67 -725 82 -189c228,128 357,393 299,662 -39,183 -155,328 -307,411l-141 -159z"/>
     <path class="fil23" d="M229561 41222c-48,221 93,438 314,485 220,47 437,-94 484,-314 48,-221 -93,-438 -314,-485 -220,-47 -437,93 -484,314z"/>
     <path class="fil18" d="M229694 41250c-32,148 62,292 209,324 147,31 292,-63 323,-210 32,-147 -62,-292 -209,-323 -147,-31 -292,62 -323,209z"/>
     <path class="fil23" d="M230322 42017c206,-106 365,-299 417,-543 72,-336 -79,-667 -353,-840l-126 139c228,128 357,393 299,662 -39,183 -155,328 -307,411l70 171z"/>
     <path class="fil24" d="M231291 39755c-2,120 92,220 211,223 119,2 217,-94 219,-215 3,-121 -92,-221 -210,-223 -119,-2 -218,94 -220,215zm182 39c-8,-9 -13,-22 -13,-36 0,-14 6,-27 15,-36 9,-8 20,-13 32,-13 13,0 24,5 32,14 9,9 14,22 14,36l0 1c-1,14 -6,27 -16,36 -8,8 -19,13 -31,13 -13,-1 -24,-6 -33,-15z"/>
     <path class="fil18" d="M233266 42391l-228 -512c0,0 -2315,223 -3466,1606 0,0 2656,-672 3694,-1094z"/>
     <path class="fil21" d="M232821 42555c0,0 -1256,43 -1858,286 -602,242 -1442,633 -1542,764 -101,131 -123,233 -123,233l1050 63 644 -495 1909 -171 -80 -680z"/>
     <polygon class="fil18" points="233472,43198 233321,42383 233068,42422 233205,43207 "/>
     <polygon class="fil22" points="233068,42422 232821,42555 232901,43235 233205,43207 "/>
     <path class="fil22" d="M231109 42132c-19,52 8,110 60,130 52,19 110,-8 129,-60 19,-52 -7,-110 -59,-130 -53,-19 -111,8 -130,60z"/>
     <path class="fil25" d="M230211 41627c-20,52 7,110 59,129 53,19 110,-8 130,-60 19,-52 -8,-110 -60,-129 -52,-19 -110,7 -129,60z"/>
     <path class="fil18" d="M230315 41725c-132,14 -297,65 -365,187 -175,316 190,433 412,421 277,-16 560,-109 813,-219 76,-34 131,84 54,117 -335,146 -876,359 -1228,173 -189,-99 -272,-366 -167,-554 87,-158 288,-234 459,-253 82,-9 105,119 22,128z"/>
     <path class="fil26" d="M230180 51224c0,0 -580,295 -913,2598 -332,2302 -367,1844 -375,2253 -8,410 149,483 128,704 -21,221 134,678 350,1029 217,352 1207,1491 1395,1664 189,173 465,431 532,551 67,121 383,69 383,69 0,0 172,-90 238,-307 67,-218 233,-249 304,-334 71,-84 79,-248 165,-309 86,-61 460,-134 545,-255 86,-121 139,-156 221,-165 82,-9 182,-14 254,-104 73,-91 86,-29 196,-18 111,10 154,26 258,-58 104,-84 121,-40 209,-15 87,25 78,255 78,255 0,0 78,-56 111,-115 32,-60 28,-133 -3,-173 -31,-40 -53,-31 -80,-90 -27,-59 -172,-189 -307,-212 -134,-22 -280,-146 -343,-285 -63,-139 -139,-189 -227,-301 -89,-111 -74,-307 -203,-387 -128,-81 -186,-279 -314,-359 -129,-81 -223,-260 -223,-386 1,-126 -171,-348 -332,-429 0,0 221,-1007 175,-1163 -46,-155 -154,-304 -141,-394 12,-90 230,-362 300,-692 70,-330 38,-456 125,-557 88,-100 230,-110 293,-375 63,-265 337,-642 -193,-1612 -557,-1021 -1569,-912 -1919,-794 -349,117 -687,766 -687,766z"/>
     <path class="fil27" d="M233407 58618c73,-91 86,-29 196,-18 111,10 154,26 258,-58 104,-84 121,-40 209,-15 87,25 78,255 78,255 0,0 78,-56 111,-115 32,-60 28,-133 -3,-173 -31,-40 -53,-31 -80,-90 -27,-59 -172,-189 -307,-212 -134,-22 -280,-146 -343,-285 -63,-139 -139,-189 -227,-301 -89,-111 -74,-307 -203,-387 -128,-81 -186,-279 -314,-359 -129,-81 -223,-260 -223,-386 1,-126 -171,-348 -332,-429 0,0 221,-1007 175,-1163 -46,-155 -154,-304 -141,-394 12,-90 230,-362 300,-692 70,-330 38,-456 125,-557 79,-89 200,-107 270,-298 0,0 -182,291 -416,241 -235,-51 -344,247 -226,429 118,181 -30,179 -203,526 -174,348 -33,422 -28,713 5,290 -131,297 -138,488 -7,190 191,198 87,374 -103,176 -249,547 -84,582 165,36 465,242 441,356 -24,114 98,472 276,510 177,37 283,285 345,617 62,331 257,199 358,355 101,156 39,486 39,486z"/>
     <path class="fil28" d="M234118 58862l30 -80c0,0 95,-165 35,-257 -60,-93 -1183,-266 -1953,484 -770,750 -617,1088 -617,1088l233 149c0,0 260,149 564,-32 304,-180 1708,-1352 1708,-1352z"/>
     <path class="fil19" d="M236106 61348c0,0 -145,-223 -431,-343 -285,-121 -392,-303 -454,-389 -61,-86 -114,-117 -203,-229 -88,-112 -487,-635 -586,-888 -98,-253 -160,-551 -353,-672 -193,-121 -998,231 -1414,719 -415,488 -343,490 -369,611l-106 123c0,0 -193,-147 -273,-211 0,0 -86,95 -71,177 0,0 839,604 1099,878 260,274 982,1019 955,1364 -27,346 -209,638 -288,761 -80,122 -348,509 -333,811 15,301 9,518 225,684 0,0 238,37 663,-462 424,-499 622,-895 792,-1229 171,-335 218,-431 496,-644 277,-212 233,-255 241,-386 8,-130 -103,-386 -103,-386l513 -289z"/>
     <path class="fil27" d="M235593 61637l513 -289c0,0 -145,-223 -431,-343 -285,-121 -392,-303 -454,-389 -61,-86 -114,-117 -203,-229 -88,-112 -487,-635 -586,-888 -98,-253 -160,-551 -353,-672 -114,-71 -441,22 -775,211 0,0 685,314 727,734 41,419 1195,1103 1251,1460 56,357 311,405 311,405z"/>
     <path class="fil28" d="M236679 61955c0,0 -35,383 -317,675 -281,291 -590,437 -696,653 -106,216 -115,599 -425,904 -310,305 -893,797 -1705,564l2248 -2517 391 -281 504 2z"/>
     <path class="fil29" d="M236679 61955l-110 -355 -463 -252c0,0 -398,94 -524,220 -127,125 8,333 9,420 2,86 41,181 -86,280 -127,98 -352,282 -419,381 -68,98 -666,912 -666,912 0,0 -120,-152 -295,-110 -175,42 -351,403 -425,407 -74,4 -235,-389 -235,-389 0,0 -244,366 -203,733 41,367 155,484 242,542 87,58 570,-183 1240,-995 671,-811 723,-1025 892,-1195 169,-169 268,-387 569,-521l474 -78z"/>
     <path class="fil30" d="M237086 58932c0,0 -268,43 -356,24 -89,-19 -97,-107 -176,-111 -79,-3 -390,-189 -488,-290 -98,-100 -215,-204 -284,-252 -70,-48 -265,-190 -319,-247 -54,-58 -91,-192 -207,-270 -116,-78 -273,-244 -350,-380 -77,-136 -120,-430 -226,-559 -105,-128 -208,-203 -237,-315 -29,-113 -35,-240 -103,-294 -68,-55 -147,-151 -154,-212 -6,-61 -71,-9 -195,-234 -124,-225 -86,-436 -189,-637 -103,-201 -110,-196 -131,-379 -20,-184 -122,-205 -127,-306 -5,-100 -116,-263 -98,-412 19,-148 -207,-270 -211,-377 -4,-106 -317,-657 -317,-657 0,0 1293,31 1588,-1100 267,-1027 -40,-1435 -57,-1444l1001 -124c0,0 38,353 28,490 -9,137 58,257 125,318 66,61 154,457 160,584 6,128 335,603 389,972 54,369 -58,425 63,544 120,118 237,223 344,405 107,182 279,404 352,526 73,122 221,206 242,356 21,151 -7,191 14,308 21,118 22,363 -27,439 0,0 20,57 3,106 -17,50 170,136 164,195 -6,58 38,167 130,200 92,33 335,45 384,155 50,110 34,153 81,183 46,29 60,92 52,130 -9,38 152,125 229,228 78,103 25,224 159,279 134,56 236,137 293,275l-1549 1883z"/>
     <path class="fil18" d="M237998 57823l637 -774c-57,-138 -159,-219 -293,-275 -134,-55 -81,-176 -159,-279 -77,-103 -238,-190 -229,-228 8,-38 -6,-101 -52,-130 -47,-30 -31,-73 -81,-183 -49,-110 -292,-122 -384,-155 -92,-33 -136,-142 -130,-200 6,-59 -181,-145 -164,-195 17,-49 -3,-106 -3,-106 49,-76 48,-321 27,-439 -21,-117 7,-157 -14,-308 -21,-150 -169,-235 -242,-356 -73,-122 -245,-344 -352,-526 -107,-182 -224,-287 -344,-405 -121,-119 -9,-175 -63,-544 -54,-369 -383,-844 -389,-972 -6,-127 -94,-523 -160,-584 -67,-61 -134,-181 -125,-318 10,-137 -28,-490 -28,-490l-421 52c0,0 -180,456 -4,728 176,272 503,377 435,694 -67,317 -177,906 45,1038 222,133 265,677 217,903 -48,226 290,270 462,535 65,101 -57,389 15,604 71,208 302,126 323,236 49,252 -32,504 122,583 359,183 571,306 730,551 159,245 92,381 201,549 109,168 494,663 423,994z"/>
     <path class="fil23" d="M238673 57647c0,0 148,-353 -38,-598 -186,-245 -1011,-77 -1606,472 -594,550 -532,1001 -418,1151 114,150 371,126 371,126l1691 -1151z"/>
     <path class="fil22" d="M240010 62874c0,0 -263,-114 -409,-260 -146,-146 -210,-319 -204,-432 7,-114 -29,-568 -77,-715 -48,-147 -136,-192 -185,-252 -49,-59 -247,-375 -277,-483 -30,-108 -363,-511 -694,-869 -330,-357 -1037,-831 -1260,-1135 -222,-304 276,-838 616,-1040 339,-201 698,-271 901,-245 202,26 279,245 340,453 62,208 578,1060 775,1381 197,320 984,1412 984,1412l-510 2185z"/>
     <path class="fil18" d="M239320 61199l1201 -510c0,0 -788,-1092 -985,-1412 -197,-321 -713,-1174 -775,-1381 -61,-208 -138,-427 -340,-453 -203,-26 -562,44 -901,245 0,0 416,178 924,719 1199,1278 876,2792 876,2792z"/>
     <path class="fil23" d="M240612 60983c0,0 1,-336 -294,-443 -295,-107 -805,128 -939,383 -134,254 -28,418 71,492 100,74 261,206 280,285 18,79 76,242 56,481 -20,239 -47,472 72,594 120,123 238,130 350,79 113,-51 895,-547 989,-615 94,-68 170,-209 192,-383 21,-159 -15,-277 -201,-485 -226,-253 -362,-188 -576,-388z"/>
     <path class="fil21" d="M238063 45871c0,0 203,-80 270,-146 67,-65 182,-67 241,-54 59,12 124,0 130,127 2,30 27,81 27,81 0,0 77,63 137,93 60,31 118,153 116,286 0,0 127,67 133,143 6,76 -49,290 -49,290 0,0 103,80 79,172 -24,92 -80,310 -134,338 -55,28 -75,81 -144,31 -69,-50 -108,-138 -110,-187 -3,-49 5,-87 5,-87 0,0 -246,75 -517,123l-184 -1210z"/>
     <path class="fil31" d="M238346 46722c28,-214 -1,-411 -99,-595 -97,-184 -267,-340 -415,-372 -148,-31 -177,-20 -203,-65 -25,-45 -135,-175 -233,-213 -98,-39 -114,-43 -148,-72 -34,-29 -198,-148 -307,-158 -108,-10 -930,-959 -1727,-1306l712 3162c0,0 435,221 620,203 185,-18 344,105 431,92 87,-12 239,-42 280,-29 42,14 291,129 463,90 172,-38 551,-182 626,-737z"/>
     <path class="fil18" d="M235642 45839l284 1264c0,0 435,221 620,203 185,-18 344,105 431,92 87,-12 239,-42 280,-28 42,13 291,128 463,89 172,-38 551,-182 626,-737 0,0 -199,517 -571,501 -372,-17 -147,-141 -413,-198 -267,-57 -136,178 -412,118 -277,-59 -353,-281 -560,-325 -208,-45 -748,-979 -748,-979z"/>
     <path class="fil23" d="M231999 50737c0,0 476,-75 571,-1018 95,-944 -135,-2513 -287,-3456 -152,-943 -556,-2364 -1291,-2857 0,0 2784,-245 2991,-263 207,-17 880,20 1091,481 211,460 619,1820 744,2642 125,823 366,2757 183,3363 -182,607 -453,717 -679,739 -226,23 -3323,369 -3323,369z"/>
     <path class="fil21" d="M231766 43338c-443,39 -774,68 -774,68 735,493 1139,1914 1291,2857 152,943 382,2512 287,3456 -95,943 -571,1018 -571,1018 0,0 366,-41 856,-96 0,0 177,-108 422,-630 244,-522 122,-1689 69,-2063 -53,-373 258,-422 377,-441 119,-18 1083,-104 1344,-128 262,-24 316,94 375,275 59,180 218,842 200,1421 -18,580 -614,1325 -614,1325 153,-17 258,-28 294,-32 226,-22 497,-132 679,-739 183,-606 -58,-2540 -183,-3362 -125,-823 -533,-2183 -744,-2643 -211,-461 -884,-498 -1091,-481 -25,2 -89,8 -182,16 0,0 451,342 530,509 79,168 138,348 -83,389 -221,41 -1362,125 -1508,147 -146,22 -346,50 -478,-244 -132,-293 -496,-622 -496,-622z"/>
     <path class="fil23" d="M231999 50737c0,0 476,-75 571,-1018 95,-944 -135,-2513 -287,-3456 -152,-943 -556,-2364 -1291,-2857l-520 490 1129 6508 398 333z"/>
     <polygon class="fil32" points="231601,50404 231232,50025 230104,44047 230992,43406 230472,43896 "/>
     <path class="fil23" d="M233087 45787c-23,511 374,943 887,966 513,23 947,-373 970,-883 22,-511 -375,-943 -888,-966 -512,-23 -947,373 -969,883z"/>
     <path class="fil18" d="M233379 45760c-18,402 294,741 697,759 403,18 745,-293 762,-694 18,-401 -294,-741 -697,-759 -403,-18 -744,293 -762,694z"/>
     <path class="fil22" d="M231065 43108c-26,119 50,236 169,261 119,26 237,-50 262,-169 25,-119 -50,-236 -170,-262 -118,-25 -236,51 -261,170z"/>
     <path class="fil18" d="M231799 46171c163,-9 335,-58 474,-145 347,-218 272,-642 158,-975 -134,-391 -335,-784 -541,-1142 -127,-221 -372,-447 -586,-512 -238,-71 -159,-452 81,-380 334,101 630,349 810,645 270,445 548,979 670,1487 101,416 61,864 -297,1144 -207,161 -485,252 -747,266 -250,14 -272,-374 -22,-388z"/>
     <path class="fil25" d="M233934 45630c-10,238 175,441 415,451 240,11 442,-174 453,-413 11,-238 -175,-441 -415,-451 -239,-11 -442,174 -453,413z"/>
     <path class="fil28" d="M224855 49565c0,0 -138,355 -336,454 -197,99 -251,-107 -205,-216 45,-110 68,-216 68,-216l237 -73 236 51z"/>
     <path class="fil33" d="M225839 49655c0,0 -1196,-153 -1532,-8 0,0 -186,229 -250,384 -64,154 -130,135 -181,103 -50,-33 -124,-102 -56,-340 69,-237 51,-196 51,-196 0,0 -100,323 -203,372 -103,48 -237,-29 -186,-371 0,0 -192,153 -247,141 -55,-11 -125,-97 -52,-294 73,-196 247,-367 247,-367 0,0 -275,3 -332,-18 -58,-21 -73,-135 9,-210 82,-75 586,-242 702,-265 116,-24 292,18 411,-1 119,-19 659,21 766,57 107,37 423,-77 423,-77 0,0 273,478 430,1090z"/>
     <path class="fil19" d="M230234 43832c-598,-318 -1190,45 -1505,531 -316,486 -153,944 -287,1030 -134,87 -206,458 -270,707 -40,154 -132,247 -196,266 -64,20 -156,79 -187,159 -30,80 -67,251 -244,306 -177,55 -230,83 -286,191 -56,107 -64,205 -183,266 -119,61 -200,53 -262,126 -62,73 -54,141 -136,157 -83,15 -112,25 -171,69 -59,44 -28,100 -92,106 -65,7 -195,28 -247,114 -51,85 7,170 -129,217 -136,47 -175,-64 -361,62 -186,126 -279,296 -292,512 -13,216 123,573 294,815 170,242 319,306 569,343 251,37 370,-86 399,-130 29,-43 82,-105 175,-151 93,-47 190,-82 231,-120 41,-38 153,-77 254,-118 102,-41 471,-185 715,-351 244,-167 353,-290 484,-374 131,-85 353,-210 523,-366 169,-156 424,-251 510,-372 85,-121 122,-385 252,-529 130,-145 475,-549 661,-1046 186,-497 369,-1000 287,-1656 -61,-490 -339,-675 -506,-764z"/>
     <path class="fil27" d="M225680 49466c170,242 319,306 569,343 251,37 370,-86 399,-130 29,-43 82,-105 175,-151 93,-47 190,-82 231,-120 41,-38 153,-77 254,-118 102,-42 471,-185 715,-351 244,-167 353,-290 484,-374 131,-85 353,-210 523,-366 169,-156 424,-251 510,-372 85,-121 122,-385 252,-529 131,-145 475,-549 661,-1046 186,-497 369,-1000 287,-1656 -61,-490 -339,-675 -506,-764 0,0 335,543 194,894 -141,350 -450,607 -387,1029 63,423 -140,846 -291,944 -151,98 -370,466 -428,738 -58,272 -232,299 -493,468 -260,169 -271,414 -516,572 -244,158 -514,105 -835,313 -321,208 -240,475 -513,496 -274,21 -372,-88 -581,48 -210,136 -704,132 -704,132z"/>
     <path class="fil24" d="M232574 41677c-2,121 92,221 211,223 119,3 217,-94 219,-214 3,-121 -92,-221 -211,-223 -119,-2 -217,94 -219,214zm182 40c-8,-9 -14,-22 -13,-36 0,-15 6,-28 15,-37 8,-8 20,-13 32,-12 12,0 24,5 32,13 8,10 14,23 13,37l0 1c0,14 -6,27 -15,36 -8,8 -19,13 -31,12 -13,0 -25,-5 -33,-14z"/>
     <path class="fil23" d="M232654 41716c-82,-229 4,-473 144,-656 61,-79 160,-151 196,-246 71,-188 -140,-400 -268,-516 -315,-287 -788,-428 -1212,-409 -171,8 -165,-258 5,-266 470,-21 986,140 1345,443 220,186 494,501 389,813 -92,276 -464,432 -341,771 58,161 -200,225 -258,66z"/>
     <path class="fil34" d="M240235 60290c197,279 285,399 285,399l-3 1c-43,-61 -106,-117 -199,-150 -295,-107 -805,128 -939,383 -12,23 -23,46 -31,68 -31,79 -37,148 -29,208 15,102 75,174 132,216 99,74 260,206 279,285 18,79 76,242 56,481 -20,239 -47,471 72,594 25,26 50,46 74,62 -89,-45 -235,-127 -331,-223 -146,-146 -210,-319 -204,-432 7,-114 -29,-568 -77,-715 -48,-147 -39,-278 -88,-338 -41,-49 -62,-108 -67,-173 -31,-463 806,-1038 1070,-666z"/>
    </g>
    <g>
     <path class="fil35" d="M237508 37960c-2175,-1249 -2400,-2505 -1714,-3698 656,-1143 2207,-2151 3563,-3032 745,-484 1428,-929 1829,-1309 432,-410 803,-881 1066,-1449 264,-572 424,-1249 433,-2072 38,-3612 -3944,-7177 -6844,-9772 -404,-362 -787,-705 -1158,-1047 -1593,-1473 -3152,-3033 -4431,-4725 -1292,-1709 -2295,-3548 -2755,-5557 -181,-788 -258,-1672 -226,-2587 32,-890 169,-1813 417,-2712l488 0c-263,918 -408,1864 -441,2777 -32,898 44,1764 221,2537 454,1980 1445,3795 2721,5483 1270,1680 2821,3233 4408,4699 363,335 749,680 1156,1045 2927,2620 6947,6218 6907,9919 -9,852 -175,1555 -450,2151 -275,593 -660,1083 -1108,1508 -414,392 -1105,841 -1857,1331 -1338,870 -2868,1864 -3501,2966 -629,1095 -406,2257 1642,3434 180,103 381,208 596,320 521,272 1123,587 1655,1001 277,216 539,469 745,742 215,285 367,590 408,892 39,288 -26,579 -240,854 -90,116 -207,229 -353,339 -375,283 -871,361 -1370,440 -472,75 -948,149 -1369,388 -510,290 -822,767 -1125,1230l-93 142c-602,910 -1537,1423 -2641,1475 -16,0 -31,3 -46,7 -1,-6 -1,-12 -1,-19 -10,-213 154,-393 367,-403 423,-20 773,-144 1072,-348 312,-212 577,-514 816,-876l94 -141c316,-484 641,-981 1191,-1293 451,-256 944,-333 1435,-411 474,-74 946,-149 1283,-403 132,-99 237,-201 317,-304 179,-229 233,-471 201,-709 -36,-266 -175,-540 -371,-801 -195,-258 -444,-499 -709,-705 -519,-404 -1112,-715 -1626,-983 -216,-113 -419,-219 -602,-324z"/>
     <path class="fil24" d="M236821 44056c303,-463 615,-940 1125,-1230 421,-239 897,-313 1369,-388 499,-79 995,-157 1370,-440 146,-110 263,-223 353,-339 214,-275 279,-566 240,-854 -41,-302 -193,-607 -408,-892 -206,-273 -468,-526 -745,-742 -532,-414 -1134,-729 -1655,-1001 -215,-112 -416,-217 -596,-320 -2048,-1177 -2271,-2339 -1642,-3434 633,-1102 2163,-2096 3501,-2966 752,-490 1443,-939 1857,-1331 448,-425 833,-915 1108,-1508 275,-596 441,-1299 450,-2151 40,-3701 -3980,-7299 -6907,-9919 -407,-365 -793,-710 -1156,-1045 -1587,-1466 -3138,-3019 -4408,-4699 -1276,-1688 -2267,-3503 -2721,-5483 -177,-773 -253,-1639 -221,-2537 33,-913 178,-1859 441,-2777l314 0c-268,902 -415,1838 -447,2741 -30,847 41,1661 207,2386 434,1894 1387,3638 2617,5264 1243,1644 2772,3174 4339,4622 337,312 733,666 1150,1039 3009,2693 7141,6391 7098,10358 -10,940 -195,1720 -502,2384 -309,669 -738,1214 -1234,1685 -451,428 -1164,892 -1940,1397 -1284,834 -2752,1789 -3315,2769 -462,803 -242,1687 1429,2646 169,98 365,200 574,309 544,285 1172,613 1743,1057 314,245 613,535 851,851 270,359 464,754 519,1163 59,437 -37,875 -355,1284 -121,155 -273,304 -461,446 -490,369 -1058,459 -1630,549 -417,65 -837,132 -1172,321 -390,222 -663,639 -927,1043 -60,92 -72,112 -94,145 -292,440 -623,814 -1026,1088 -414,282 -895,455 -1471,481 -206,10 -382,-144 -402,-348 15,-4 30,-7 46,-7 1104,-52 2039,-565 2641,-1475l93 -142z"/>
    </g>
   </g>
   <g>
    <path class="fil36" d="M213590 163744c-3622,5326 -11187,9611 -18450,9007 -10152,-844 -20168,-8957 -18922,-16012 2701,-15298 51027,-13076 37372,7005z"/>
    <path class="fil36" d="M168231 163810c2895,0 5241,1699 5241,3796 0,2096 -2346,3796 -5241,3796 -2894,0 -5240,-1700 -5240,-3796 0,-2097 2346,-3796 5240,-3796z"/>
    <path class="fil37" d="M271654 102521l0 -16299 -46650 -8158c-59100,-10335 -119254,-10335 -178355,0l-46649 8158 0 16299 271654 0z"/>
    <path class="fil38" d="M225004 86757c-59100,-10335 -119254,-10335 -178354,0l-46650 8158 0 59883 68114 -36883 23210 0 89005 0 23211 0 59164 32036c2971,907 5955,1808 8950,2687l0 -57723 -46650 -8158z"/>
    <path class="fil39" d="M225004 86757c-59100,-10335 -119254,-10335 -178354,0l-46650 8158 0 21913 46650 -8158c59100,-10335 119254,-10335 178354,0l46650 8158 0 -21913 -46650 -8158z"/>
    <path class="fil40" d="M271654 94915l0 3441 -46649 -8157c-59101,-10337 -119256,-10337 -178357,0l-46648 8157 0 -3441 46648 -8157c59101,-10337 119256,-10337 178357,0l46649 8157z"/>
    <path class="fil40" d="M271654 94915l0 3441 -46649 -8157c-59101,-10337 -119256,-10337 -178357,0l-46648 8157 0 -3441 46648 -8157c59101,-10337 119256,-10337 178357,0l46649 8157z"/>
    <path class="fil41" d="M180329 122262l-89005 0 -22096 0 -52636 43663c21859,2736 48255,-1302 47557,-16666 -67,-1485 -479,-3074 -1296,-4771 -3462,-7197 4643,-9328 12218,-9426 4744,-62 9775,752 14391,1895 3313,820 6366,1830 9509,3087 6286,2517 13102,5374 19368,7894l47576 378c2190,-1968 5243,-4069 7870,-5649 72,-43 144,-86 215,-128 386,-229 774,-454 1165,-669 25,-14 49,-27 74,-40 378,-208 759,-408 1142,-603 68,-35 136,-71 205,-105 382,-192 766,-378 1152,-558 86,-40 172,-79 258,-119 386,-177 774,-349 1165,-514 71,-30 142,-59 212,-88 375,-156 752,-307 1131,-453 49,-19 98,-39 148,-58 398,-152 800,-296 1203,-436 92,-32 184,-65 277,-96 392,-134 785,-262 1180,-384 97,-31 195,-60 293,-90 403,-122 807,-240 1214,-352 64,-18 128,-34 192,-51 374,-100 749,-196 1125,-288 91,-22 182,-45 273,-67 399,-95 800,-185 1203,-270 115,-24 229,-48 343,-72 399,-81 800,-159 1202,-232 108,-19 217,-37 325,-56 371,-65 742,-126 1116,-183 93,-14 185,-29 279,-42 391,-58 783,-110 1178,-160 125,-16 251,-32 377,-47 398,-47 798,-91 1199,-130 136,-13 272,-26 408,-38 404,-37 810,-72 1217,-101 117,-8 234,-15 351,-22 344,-23 689,-43 1035,-60 129,-7 257,-14 387,-20 400,-18 802,-31 1205,-42 156,-4 312,-8 469,-11 396,-7 793,-13 1191,-14 157,0 315,1 473,1 337,1 675,4 1014,10 194,3 389,7 584,12 330,7 662,18 994,29 171,6 342,12 514,20 389,16 780,36 1172,58 188,11 376,22 565,34 373,23 746,48 1121,76 200,15 400,32 600,48 287,24 575,49 863,75 247,22 494,45 742,69 321,32 643,65 965,100 213,23 427,46 641,70 375,43 751,88 1129,135 221,28 443,56 665,85 267,35 535,71 804,109 325,44 651,91 977,138 247,36 493,73 741,110 274,42 548,85 824,128 324,52 649,105 975,159 253,42 506,85 760,129 250,43 501,87 751,132 372,66 744,133 1117,203 196,36 392,73 589,110 426,81 853,164 1281,249 188,38 377,75 566,113 284,58 569,116 854,175l-19750 -16383 -22096 0z"/>
    <path class="fil42" d="M180329 117915l-89005 0 -23210 0 -68114 36883 0 7337c4713,1727 10475,3024 16592,3790l52636 -43663 22096 0 89005 0 22096 0 19750 16383c12869,2670 26544,7041 40529,11306l-59164 -32036 -23211 0z"/>
    <path class="fil43" d="M174233 142405l-16441 -25033 -43931 0 -14890 22672c3517,1418 6674,2989 9718,4547 11155,5713 27863,11321 40644,10434 6478,-449 12153,-2720 18399,-7895 1883,-1560 3875,-3188 6501,-4725z"/>
    <polygon class="fil37" points="53521,81755 50623,81755 68577,121416 71475,121416 "/>
    <polygon class="fil37" points="217444,81755 220341,81755 202387,121416 199489,121416 "/>
    <path class="fil38" d="M225004 86757c-59100,-10335 -119254,-10335 -178354,0l-46650 8158 0 8452 46650 -8159c59100,-10335 119254,-10335 178354,0l46650 8159 0 -8452 -46650 -8158z"/>
    <path class="fil44" d="M271654 94915l0 3441 -46649 -8157c-59101,-10337 -119256,-10337 -178357,0l-46648 8157 0 -3441 46648 -8157c59101,-10337 119256,-10337 178357,0l46649 8157z"/>
    <polygon class="fil45" points="129190,144181 118482,144181 128164,125220 130726,125220 "/>
    <polygon class="fil40" points="129606,139051 129189,144183 125681,144183 125667,130113 128164,125220 128235,125220 "/>
    <polygon class="fil46" points="129606,139051 129189,144183 125681,144183 125667,130113 125655,119544 127673,119544 128235,125220 "/>
    <polygon class="fil10" points="127673,119544 125655,119544 125656,119756 126822,119756 128755,139264 128355,144183 129189,144183 129606,139051 "/>
    <polygon class="fil38" points="127997,122812 125665,122812 125655,119545 127673,119545 "/>
    <path class="fil39" d="M130767 115202l-8899 0c-1710,0 -2999,1386 -2879,3095 119,1710 1602,3096 3312,3096l8899 0c1710,0 2999,-1386 2879,-3096 -119,-1709 -1602,-3095 -3312,-3095z"/>
    <polygon class="fil45" points="143595,144181 154303,144181 144621,125220 142058,125220 "/>
    <polygon class="fil40" points="143178,139051 143595,144183 147104,144183 147118,130113 144620,125220 144549,125220 "/>
    <polygon class="fil46" points="143178,139051 143595,144183 147104,144183 147118,130113 147129,119544 145111,119544 144549,125220 "/>
    <polygon class="fil10" points="145111,119544 147129,119544 147129,119756 145962,119756 144030,139264 144430,144183 143595,144183 143178,139051 "/>
    <polygon class="fil38" points="144787,122812 147119,122812 147129,119545 145111,119545 "/>
    <path class="fil39" d="M142017 115202l8900 0c1709,0 2998,1386 2878,3095 -119,1710 -1602,3096 -3312,3096l-8899 0c-1710,0 -2998,-1386 -2879,-3096 120,-1709 1603,-3095 3312,-3095z"/>
    <path class="fil39" d="M122432 127373l-276 -1442 -4915 0 -276 1442c-106,863 1114,1613 2733,1613 1619,0 2840,-750 2734,-1613z"/>
    <path class="fil47" d="M122156 125931c-80,-649 -1178,-1146 -2457,-1146 -1280,0 -2378,497 -2458,1146 -85,695 1013,1294 2458,1294 1444,0 2542,-599 2457,-1294z"/>
    <path class="fil39" d="M118119 134073l-276 -1442 -4915 0 -276 1442c-106,863 1114,1613 2733,1613 1619,0 2840,-750 2734,-1613z"/>
    <path class="fil48" d="M117843 132631c-80,-650 -1178,-1146 -2457,-1146 -1280,0 -2378,496 -2458,1146 -85,695 1013,1294 2458,1294 1444,0 2542,-599 2457,-1294z"/>
    <path class="fil39" d="M113806 140773l-276 -1442 -4915 0 -276 1442c-106,863 1114,1613 2733,1613 1619,0 2840,-750 2734,-1613z"/>
    <path class="fil49" d="M113530 139331c-80,-650 -1178,-1146 -2457,-1146 -1280,0 -2378,496 -2458,1146 -85,694 1013,1294 2458,1294 1444,0 2542,-600 2457,-1294z"/>
    <path class="fil39" d="M150897 127373l276 -1442 4915 0 276 1442c106,863 -1115,1613 -2734,1613 -1619,0 -2839,-750 -2733,-1613z"/>
    <path class="fil47" d="M151173 125931c80,-649 1178,-1146 2457,-1146 1280,0 2378,497 2457,1146 86,695 -1012,1294 -2457,1294 -1445,0 -2542,-599 -2457,-1294z"/>
    <path class="fil39" d="M155210 134073l276 -1442 4915 0 276 1442c106,863 -1115,1613 -2734,1613 -1619,0 -2839,-750 -2733,-1613z"/>
    <path class="fil48" d="M155486 132631c80,-650 1178,-1146 2457,-1146 1280,0 2378,496 2458,1146 85,695 -1013,1294 -2458,1294 -1445,0 -2543,-599 -2457,-1294z"/>
    <path class="fil39" d="M159523 140773l276 -1442 4915 0 276 1442c106,863 -1115,1613 -2734,1613 -1619,0 -2839,-750 -2733,-1613z"/>
    <path class="fil49" d="M159799 139331c80,-650 1178,-1146 2457,-1146 1280,0 2378,496 2457,1146 86,694 -1012,1294 -2457,1294 -1445,0 -2542,-600 -2457,-1294z"/>
    <path class="fil43" d="M161831 91575l7439 17835 -66887 0 7439 -17835c17480,-1181 34530,-1181 52009,0z"/>
    <path class="fil48" d="M104598 107812l6130 -14696c8400,-550 16839,-829 25099,-829 8259,0 16698,279 25098,829l6131 14696 -62458 0z"/>
    <path class="fil45" d="M106933 106127l4749 -11385c8084,-511 16203,-770 24145,-770 7941,0 16060,259 24144,770l4749 11385 -57787 0z"/>
    <path class="fil39" d="M102383 109410l0 2821 66887 0 0 -2821c0,0 -66887,-478 -66887,0z"/>
    <path class="fil50" d="M116348 103232c-2349,0 -3987,-1624 -3701,-3368 247,-1511 1891,-2595 3701,-2595 1809,0 3454,1084 3701,2595 286,1744 -1353,3368 -3701,3368zm0 -6989c-2311,0 -4478,1418 -4903,3467 -513,2477 1634,4903 4903,4903 3269,0 5416,-2426 4903,-4903 -424,-2049 -2592,-3467 -4903,-3467z"/>
    <path class="fil51" d="M127924 103232c-2349,0 -3987,-1624 -3701,-3368 247,-1511 1891,-2595 3701,-2595 1809,0 3454,1084 3701,2595 286,1744 -1353,3368 -3701,3368zm0 -6989c-2311,0 -4478,1418 -4903,3467 -513,2477 1634,4903 4903,4903 3269,0 5416,-2426 4903,-4903 -424,-2049 -2592,-3467 -4903,-3467z"/>
    <path class="fil52" d="M139243 103232c-2349,0 -3987,-1624 -3702,-3368 248,-1511 1892,-2595 3702,-2595 1809,0 3454,1084 3701,2595 286,1744 -1353,3368 -3701,3368zm0 -6989c-2311,0 -4479,1418 -4903,3467 -514,2477 1634,4903 4903,4903 3269,0 5416,-2426 4903,-4903 -425,-2049 -2592,-3467 -4903,-3467z"/>
    <path class="fil47" d="M148725 96798c-113,-544 -688,-920 -1302,-920 -614,0 -1189,376 -1302,920 -136,658 434,1302 1302,1302 868,0 1438,-644 1302,-1302z"/>
    <path class="fil48" d="M153469 96851c-113,-544 -688,-920 -1302,-920 -614,0 -1189,376 -1302,920 -136,658 434,1302 1302,1302 868,0 1438,-644 1302,-1302z"/>
    <path class="fil53" d="M157840 96771c-113,-544 -688,-920 -1302,-920 -614,0 -1189,376 -1302,920 -137,658 434,1302 1302,1302 868,0 1438,-644 1302,-1302z"/>
    <path class="fil48" d="M145720 100937l747 -1527c2042,-68 11122,3 13243,0l611 1527 -14601 0z"/>
    <path class="fil54" d="M146399 100642l589 -911c1612,-41 5168,-39 6802,-73l215 984 -7606 0z"/>
    <path class="fil48" d="M144814 103382l747 -1527c2043,-69 12798,-13 14918,-15l612 1526 -16277 16z"/>
    <path class="fil55" d="M145493 103087l590 -911c1612,-41 9053,-92 10687,-126l216 984 -11493 53z"/>
    <path class="fil37" d="M107180 85827l57293 0c1931,0 3335,-1834 2830,-3698l-6010 -22175c-346,-1278 -1506,-2165 -2829,-2165l-45274 0c-1324,0 -2484,887 -2830,2165l-6009 22175c-505,1864 899,3698 2829,3698z"/>
    <polygon class="fil56" points="108954,82145 114574,61471 157159,61473 162778,82145 "/>
    <path class="fil57" d="M145294 77558c-115,-517 -699,-875 -1322,-875 -624,0 -1208,358 -1323,875 -138,624 441,1236 1323,1236 881,0 1460,-612 1322,-1236z"/>
    <path class="fil57" d="M151291 77529c-114,-517 -699,-875 -1322,-875 -623,0 -1207,358 -1322,875 -139,625 441,1236 1322,1236 882,0 1461,-611 1322,-1236z"/>
    <path class="fil57" d="M157289 77385c-115,-516 -700,-874 -1323,-874 -623,0 -1207,358 -1322,874 -138,625 441,1237 1322,1237 882,0 1461,-612 1323,-1237z"/>
    <path class="fil49" d="M121052 71169l1151 0c-164,3001 2346,5589 5706,5740l-4 1197c-4084,-156 -7104,-3316 -6853,-6937zm6894 -6117l-3 921c-2889,115 -5340,2130 -5701,4794l-1150 0c438,-3201 3401,-5601 6854,-5715zm7382 5715l-1150 0c-365,-2698 -2876,-4730 -5815,-4796l-2 -921c3502,66 6524,2483 6967,5717zm-12328 0c317,-2306 2431,-4059 4941,-4175l-3 923 427 0 -1 -926c2562,67 4734,1838 5056,4178l-1323 0 17 402 1343 0c118,2634 -2123,4883 -5077,4969l-2 -1435 -462 0 -5 1431c-2891,-147 -5065,-2370 -4948,-4965l1221 0 18 -402 -1202 0zm5384 7342l-2 -1197c3423,-88 6002,-2703 5835,-5743l1151 0c254,3661 -2835,6850 -6984,6940zm7546 -6940l1323 0 -40 -402 -1325 0c-485,-3493 -3756,-6094 -7528,-6159l-2 -1195 -407 0 -4 1197c-3723,114 -6935,2697 -7415,6157l-1446 0 -40 402 1444 0c-299,3927 2969,7373 7413,7532l-4 1324 489 0 -3 -1321c4509,-92 7847,-3568 7545,-7535z"/>
    <path class="fil58" d="M119495 76058c-108,-191 -209,-386 -301,-585 -583,-1252 -855,-2630 -757,-4051 8,-102 17,-205 28,-308 10,-102 24,-204 38,-305 196,-1360 720,-2603 1477,-3673 117,-165 240,-325 367,-482 831,-1020 1890,-1865 3094,-2478l-449 -712c-1352,677 -2544,1616 -3481,2754 -127,155 -251,314 -368,477 -866,1192 -1472,2585 -1704,4114 -15,101 -29,203 -42,305 -12,103 -22,206 -31,308 -136,1604 154,3166 803,4586 91,200 191,398 296,592 799,1470 1989,2747 3475,3706l645 -1008c-1310,-840 -2368,-1955 -3090,-3240z"/>
    <polygon class="fil59" points="154426,66526 153917,64652 140529,64652 140848,66526 "/>
    <polygon class="fil55" points="148050,65985 147760,65115 141381,65115 141529,65985 "/>
    <polygon class="fil59" points="155481,70408 154972,68534 141190,68534 141507,70408 "/>
    <polygon class="fil54" points="145290,69869 145000,68999 142043,68997 142192,69867 "/>
    <polygon class="fil59" points="156522,74235 156012,72361 141842,72361 142161,74235 "/>
    <polygon class="fil39" points="154591,73724 154301,72854 142692,72823 142836,73694 "/>
    <path class="fil43" d="M74131 112694l20607 -949c707,-32 1343,-475 1621,-1127l6660 -15657c245,-575 185,-1229 -159,-1750 -344,-521 -922,-831 -1545,-831l-49 0 -71 4c-10846,698 -22717,1867 -33426,3292 -578,78 -1093,428 -1376,938 -283,511 -308,1133 -68,1665l6032 13327c300,662 963,1090 1690,1090l84 -2z"/>
    <path class="fil48" d="M82096 96959c1385,-144 2796,-284 4203,-418l-125 2365c-1243,119 -2529,247 -3839,381l-239 -2328z"/>
    <path class="fil60" d="M88611 101078c1147,-104 2279,-203 3380,-295l-552 2954c-1036,88 -2078,179 -3126,275l298 -2934z"/>
    <path class="fil48" d="M89096 96284c1259,-112 2529,-219 3794,-321l-445 2385c-1170,97 -2372,202 -3590,311l241 -2375z"/>
    <path class="fil48" d="M88068 106431c977,-89 1950,-176 2918,-260l-509 2725 -2671 123 262 -2588z"/>
    <path class="fil48" d="M94650 100567c768,-60 1532,-118 2291,-173l-1278 3002c-569,43 -1140,88 -1714,134l701 -2963z"/>
    <path class="fil48" d="M82578 101661c1173,-121 2335,-236 3468,-345l-155 2923c-1004,97 -2009,196 -3018,300l-295 -2878z"/>
    <path class="fil48" d="M70274 98348c1090,-143 2222,-287 3379,-429l537 2273c-975,117 -1948,237 -2919,360l-997 -2204z"/>
    <path class="fil47" d="M95792 95740c1109,-82 2190,-158 3224,-226l-1024 2409c-914,65 -1836,133 -2765,204l565 -2387z"/>
    <path class="fil48" d="M93371 105972c415,-34 1408,-67 1820,-99l-1229 2890 -1258 31 667 -2822z"/>
    <path class="fil48" d="M83117 106912c884,-90 1766,-177 2646,-263l-131 2471 -2278 105 -237 -2313z"/>
    <path class="fil53" d="M73577 105638l-4 0 -1272 -2811c1157,-140 2818,-336 4245,-503l321 -45c1057,-121 2122,-239 3188,-354l434 2880 39 364 643 4156 -1845 85 -590 45 -3372 139 -1787 -3956z"/>
    <path class="fil48" d="M76409 97587c979,-114 1959,-225 2940,-333l349 2311c-954,103 -1907,209 -2860,317l-429 -2295z"/>
    <path class="fil43" d="M197530 112694l-20606 -949c-707,-32 -1344,-475 -1621,-1127l-6661 -15657c-244,-575 -185,-1229 159,-1750 345,-521 922,-831 1545,-831l50 0 70 4c10847,698 22718,1867 33426,3292 579,78 1093,428 1376,938 284,511 309,1133 68,1665l-6032 13327c-300,662 -963,1090 -1690,1090l-84 -2z"/>
    <path class="fil53" d="M189565 96959c-1385,-144 -2796,-284 -4203,-418l126 2365c1242,119 2529,247 3839,381l238 -2328z"/>
    <path class="fil48" d="M183051 101078c-1148,-104 -2279,-203 -3380,-295l551 2954c1036,88 2079,179 3126,275l-297 -2934z"/>
    <path class="fil48" d="M182565 96284c-1258,-112 -2529,-219 -3793,-321l444 2385c1170,97 2373,202 3590,311l-241 -2375z"/>
    <path class="fil48" d="M183593 106431c-977,-89 -1949,-176 -2917,-260l509 2725 2670 123 -262 -2588z"/>
    <path class="fil48" d="M177011 100567c-768,-60 -1532,-118 -2291,-173l1278 3002c569,43 1140,88 1714,134l-701 -2963z"/>
    <path class="fil48" d="M189083 101661c-1173,-121 -2334,-236 -3468,-345l156 2923c1003,97 2009,196 3017,300l295 -2878z"/>
    <path class="fil48" d="M201387 98348c-1089,-143 -2222,-287 -3378,-429l-538 2273c975,117 1948,237 2919,360l997 -2204z"/>
    <path class="fil48" d="M175870 95740c-1109,-82 -2190,-158 -3225,-226l1024 2409c915,65 1836,133 2766,204l-565 -2387z"/>
    <path class="fil53" d="M178290 105972c-414,-34 -1408,-67 -1819,-99l1228 2890 1258 31 -667 -2822z"/>
    <path class="fil48" d="M188545 106912c-884,-90 -1766,-177 -2646,-263l131 2471 2277 105 238 -2313z"/>
    <path class="fil47" d="M198084 105638l4 0 1272 -2811c-1157,-140 -2818,-336 -4244,-503l-322 -45c-1057,-121 -2122,-239 -3188,-354l-434 2880 -38 364 -644 4156 1846 85 590 45 3371 139 1787 -3956z"/>
    <path class="fil48" d="M195252 97587c-979,-114 -1959,-225 -2939,-333l-350 2311c954,103 1908,209 2861,317l428 -2295z"/>
    <path class="fil43" d="M52262 99530l7515 13880c858,1585 260,3564 -1331,4409l-43279 22985c-2045,1086 -4537,-259 -4751,-2564l-2551 -27500c-149,-1601 898,-3068 2459,-3450l38316 -9366c1432,-350 2920,310 3622,1606z"/>
    <polygon class="fil49" points="49933,102502 49933,102504 12153,114485 11713,110591 48950,100634 "/>
    <polygon class="fil45" points="49934,102503 37774,106361 36510,103959 48948,100634 "/>
    <polygon class="fil61" points="51475,107512 51475,107514 13231,121471 12791,117576 50491,105644 "/>
    <polygon class="fil45" points="51473,107513 30958,115003 29523,112279 50491,105644 "/>
    <polygon class="fil62" points="53486,111936 53486,111939 14371,128443 13930,124548 52503,110069 "/>
    <polygon class="fil45" points="53487,111935 53487,111939 45460,115325 44323,113138 52502,110070 "/>
    <path class="fil61" d="M19450 131255c-256,-677 -1109,-982 -1905,-681 -797,301 -1235,1094 -979,1770 255,677 1108,982 1905,681 796,-301 1235,-1093 979,-1770z"/>
    <path class="fil53" d="M26561 128170c-256,-677 -1109,-981 -1905,-681 -797,301 -1235,1094 -980,1770 256,677 1109,982 1905,681 797,-300 1235,-1093 980,-1770z"/>
    <path class="fil46" d="M33671 125085c-255,-677 -1108,-981 -1905,-681 -796,302 -1235,1094 -979,1771 255,677 1108,981 1905,680 796,-300 1235,-1093 979,-1770z"/>
    <path class="fil47" d="M40782 122001c-256,-677 -1109,-982 -1905,-681 -797,301 -1235,1093 -980,1770 256,677 1109,982 1906,681 796,-301 1235,-1093 979,-1770z"/>
    <path class="fil43" d="M219075 99530l-7515 13880c-857,1585 -260,3564 1331,4409l43279 22985c2045,1086 4537,-259 4751,-2564l2551 -27500c149,-1601 -897,-3068 -2459,-3450l-38316 -9366c-1432,-350 -2920,310 -3622,1606z"/>
    <polygon class="fil49" points="221404,102502 221404,102504 259184,114485 259624,110591 222387,100634 "/>
    <polygon class="fil45" points="221404,102503 233563,106361 234827,103959 222389,100634 "/>
    <polygon class="fil61" points="219863,107512 219863,107514 258106,121471 258546,117576 220846,105644 "/>
    <polygon class="fil45" points="219864,107513 240379,115003 241814,112279 220846,105644 "/>
    <polygon class="fil62" points="217851,111936 217851,111939 256966,128443 257407,124548 218834,110069 "/>
    <polygon class="fil45" points="217850,111935 217850,111939 225877,115325 227014,113138 218835,110070 "/>
    <path class="fil61" d="M251887 131255c256,-677 1108,-982 1905,-681 797,301 1235,1094 980,1770 -256,677 -1109,982 -1906,681 -796,-301 -1235,-1093 -979,-1770z"/>
    <path class="fil53" d="M244776 128170c256,-677 1109,-981 1905,-681 797,301 1236,1094 980,1770 -256,677 -1108,982 -1905,681 -797,-300 -1235,-1093 -980,-1770z"/>
    <path class="fil46" d="M237666 125085c255,-677 1108,-981 1905,-681 796,302 1235,1094 979,1771 -255,677 -1108,981 -1905,680 -796,-300 -1235,-1093 -979,-1770z"/>
    <path class="fil47" d="M230555 122001c256,-677 1108,-982 1905,-681 797,301 1235,1093 980,1770 -256,677 -1109,982 -1906,681 -796,-301 -1235,-1093 -979,-1770z"/>
    <path class="fil63" d="M131200 119809l-8899 0c-1511,0 -2844,-1082 -3217,-2513 -85,314 -120,651 -95,1001 119,1710 1602,3096 3312,3096l8899 0c1710,0 2999,-1386 2879,-3096 -14,-199 -46,-394 -95,-582 -331,1218 -1424,2094 -2784,2094z"/>
    <path class="fil63" d="M141584 119809l8899 0c1511,0 2845,-1082 3217,-2513 85,314 120,651 95,1001 -119,1710 -1602,3096 -3312,3096l-8899 0c-1710,0 -2998,-1386 -2879,-3096 14,-199 47,-394 96,-582 331,1218 1424,2094 2783,2094z"/>
    <path class="fil3" d="M6237 85131l-6237 1091c36261,-5555 70104,-12021 106964,-13736l429 -1582c-7930,438 -15783,1080 -23587,1901 -26124,2748 -51720,7806 -77569,12326z"/>
    <path class="fil3" d="M265416 85131l6238 1091c-36261,-5555 -70104,-12021 -106964,-13736l-429 -1582c7930,438 15783,1080 23587,1901 26123,2748 51720,7806 77568,12326z"/>
    <path class="fil3" d="M135827 59138l20821 0 433 0 1270 0c1317,0 2471,887 2815,2165l5755 19416 -2234 -8242 -373 -1378 -3021 -11145c-331,-1221 -1404,-2085 -2654,-2160 -58,-3 -117,-5 -175,-5l-3130 0 -19507 0 -19508 0 -3129 0c-59,0 -117,2 -175,5 -1250,75 -2324,939 -2655,2160l-3020 11145 -374 1378 -2233 8242 5754 -19416c345,-1278 1498,-2165 2816,-2165l1269 0 434 0 20821 0z"/>
    <polygon class="fil64" points="114759,61471 114369,61471 108750,82145 162778,82145 162765,82095 111470,81737 109254,81722 "/>
    <polygon class="fil65" points="162840,81869 162242,79670 157296,61473 157023,61473 159571,70849 161965,79656 162642,82145 162915,82145 "/>
    <polygon class="fil66" points="129606,139047 130726,125220 128236,125220 "/>
    <polygon class="fil66" points="143179,139047 144549,125220 142058,125220 "/>
    <g>
     <ellipse class="fil67" cx="127924" cy="100154" rx="3733" ry="2884"/>
     <path class="fil3" d="M128628 100970l0 544 -2817 0 0 -544 2817 0zm-2817 -1633l0 -544c1409,0 2817,0 4226,0l-704 544c-1174,0 -2348,0 -3522,0zm4226 545c0,544 0,1088 0,1632l-704 0 0 -1088 0 0 -3522 0 0 -544c1409,0 2817,0 4226,0z"/>
    </g>
    <g>
     <ellipse class="fil68" cx="139243" cy="100153" rx="3733" ry="2884"/>
     <path class="fil3" d="M139947 100970l0 544 -2817 0 0 -544 2817 0zm-2817 -1633l0 -544c1408,0 2817,0 4226,0l-705 544c-1173,0 -2347,0 -3521,0zm4226 544c0,545 0,1089 0,1633l-705 0 0 -1088 0 0 -3521 0 0 -545c1408,0 2817,0 4226,0z"/>
    </g>
    <g>
     <ellipse class="fil69" cx="116348" cy="100153" rx="3733" ry="2884"/>
     <path class="fil3" d="M117052 100970l0 544 -2817 0 0 -544 2817 0zm-2817 -1633l0 -544c1409,0 2817,0 4226,0l-704 544c-1174,0 -2348,0 -3522,0zm4226 544c0,545 0,1089 0,1633l-704 0 0 -1088 0 0 -3522 0 0 -545c1409,0 2817,0 4226,0z"/>
    </g>
    <path class="fil58" d="M136925 76058c108,-191 209,-386 301,-585 583,-1252 855,-2630 757,-4051 -8,-102 -17,-205 -28,-308 -10,-102 -23,-204 -38,-305 -196,-1360 -720,-2603 -1477,-3673 -117,-165 -240,-325 -367,-482 -831,-1020 -1890,-1865 -3094,-2478l449 -712c1352,677 2544,1616 3481,2754 127,155 251,314 368,477 866,1192 1472,2585 1704,4114 15,101 30,203 42,305 12,103 22,206 31,308 136,1604 -154,3166 -803,4586 -91,200 -190,398 -296,592 -799,1470 -1989,2747 -3475,3706l-645 -1008c1310,-840 2368,-1955 3090,-3240z"/>
    <path class="fil70" d="M125560 69332c-44,525 -87,1051 -131,1576 -43,525 -86,1051 -129,1576 -114,0 -228,0 -342,0 36,-392 73,-785 109,-1177 36,-392 72,-785 108,-1178 -81,122 -163,243 -245,364 -73,-106 -145,-211 -216,-317 194,-281 387,-563 576,-844 90,0 180,0 270,0zm596 2224c-9,155 33,275 126,359 74,68 170,101 285,101 115,0 215,-33 296,-101 99,-82 150,-202 155,-359 7,-217 14,-435 21,-653 7,-217 15,-435 23,-653 5,-158 -35,-280 -123,-363 -68,-65 -159,-96 -269,-96 -110,0 -203,32 -278,96 -95,82 -148,204 -158,363 -13,218 -27,436 -39,653 -13,218 -26,436 -39,653zm388 968c-208,0 -382,-77 -520,-233 -157,-179 -225,-426 -203,-735 15,-217 30,-435 45,-653 15,-217 30,-435 45,-653 22,-315 119,-560 285,-739 143,-154 308,-234 498,-235 188,-1 347,78 477,235 149,178 221,424 213,739 -6,218 -11,436 -16,653 -5,218 -10,436 -16,653 -7,309 -94,555 -267,735 -151,156 -333,233 -541,233zm1554 -968c0,156 48,275 146,359 79,67 176,101 290,101 117,0 214,-33 292,-101 93,-82 136,-202 133,-359 -5,-217 -10,-435 -16,-653 -5,-217 -10,-435 -16,-653 -3,-158 -50,-280 -142,-363 -72,-65 -165,-96 -275,-96 -110,0 -201,32 -272,96 -91,82 -138,204 -138,363 -1,218 -1,436 -1,653 0,218 0,436 -1,653zm443 968c-208,0 -387,-77 -533,-233 -168,-179 -249,-426 -245,-735 2,-217 4,-435 7,-653 2,-217 5,-435 8,-653 3,-315 85,-560 241,-739 135,-154 295,-234 485,-235 188,-1 351,78 490,235 159,178 246,424 256,739 7,218 14,436 22,653 7,218 15,436 22,653 10,309 -63,556 -225,735 -142,156 -319,233 -528,233zm1878 -2440c18,257 -8,462 -79,614 -70,150 -170,226 -297,227 -289,1 -445,-283 -470,-849 -11,-252 19,-453 91,-607 67,-147 161,-220 283,-220 129,0 236,71 318,215 84,146 136,353 154,620zm-303 2735c-98,-90 -197,-180 -295,-270 220,-572 435,-1143 635,-1716 198,-570 381,-1144 560,-1716 93,90 187,180 282,271 -176,572 -358,1146 -554,1716 -197,573 -410,1144 -628,1715zm48 -2735c-18,-296 -86,-445 -203,-445 -108,0 -154,145 -139,437 16,300 79,450 192,450 118,0 168,-147 150,-442zm1313 1573c-29,-296 -105,-443 -228,-443 -113,0 -156,144 -131,434 27,300 98,451 216,451 123,0 171,-148 143,-442zm268 5c27,258 6,463 -64,615 -69,150 -170,224 -303,224 -302,0 -477,-282 -522,-848 -19,-251 7,-453 76,-605 67,-146 162,-220 289,-220 137,0 252,72 343,215 93,146 153,353 181,619z"/>
   </g>
  </g>
 </g>
</svg>
