<?xml version="1.0" encoding="UTF-8"?>
<!DOCTYPE svg PUBLIC "-//W3C//DTD SVG 1.1//EN" "http://www.w3.org/Graphics/SVG/1.1/DTD/svg11.dtd">
<!-- Creator: CorelDRAW X7 -->
<svg xmlns="http://www.w3.org/2000/svg" xml:space="preserve" width="2.04047in" height="6.4811in" version="1.1" style="shape-rendering:geometricPrecision; text-rendering:geometricPrecision; image-rendering:optimizeQuality; fill-rule:evenodd; clip-rule:evenodd"
viewBox="0 0 20405 64811"
 xmlns:xlink="http://www.w3.org/1999/xlink">
 <defs>
  <style type="text/css">
   <![CDATA[
    .fil17 {fill:#899FCF}
    .fil16 {fill:#A7B7DB}
    .fil6 {fill:#CAD4EB}
    .fil14 {fill:#6B7692;fill-rule:nonzero}
    .fil7 {fill:#6E7C9A;fill-rule:nonzero}
    .fil5 {fill:#7487B2;fill-rule:nonzero}
    .fil10 {fill:#8293BA;fill-rule:nonzero}
    .fil0 {fill:#899FCF;fill-rule:nonzero}
    .fil9 {fill:#A0B2D8;fill-rule:nonzero}
    .fil3 {fill:#A7B7DB;fill-rule:nonzero}
    .fil15 {fill:#B0BEDF;fill-rule:nonzero}
    .fil11 {fill:#B8C5E2;fill-rule:nonzero}
    .fil13 {fill:#BCC8E5;fill-rule:nonzero}
    .fil12 {fill:#BECAE6;fill-rule:nonzero}
    .fil4 {fill:#CAD4EB;fill-rule:nonzero}
    .fil8 {fill:#D2DBEE;fill-rule:nonzero}
    .fil1 {fill:#D8E0F1;fill-rule:nonzero}
    .fil2 {fill:white;fill-rule:nonzero}
   ]]>
  </style>
 </defs>
 <g id="Layer_x0020_1">
  <metadata id="CorelCorpID_0Corel-Layer"/>
  <g id="_2704421739856">
   <g>
    <path class="fil0" d="M7130 51223c0,0 -45,-531 4,-971 50,-440 -17,-1118 -59,-1418 -42,-301 -452,-1237 -463,-1726l1197 -2166 743 5462c0,0 -680,200 -965,377 -285,178 -457,442 -457,442z"/>
    <path class="fil0" d="M9868 53023c0,0 588,143 1026,-178 679,-497 1232,-1621 505,-2365l-2450 256 919 2287z"/>
    <path class="fil1" d="M5599 41398c-226,1059 449,2101 1508,2327 1060,226 2102,-449 2328,-1508 226,-1059 -449,-2101 -1508,-2327 -1059,-226 -2101,449 -2328,1508z"/>
    <path class="fil2" d="M6263 43315c-542,-451 -821,-1180 -664,-1917 118,-551 457,-998 904,-1269 0,0 -824,728 -815,1584 9,909 575,1602 575,1602z"/>
    <path class="fil3" d="M6726 40927c0,0 -205,-198 -386,-489 -181,-290 -129,-412 -109,-461 19,-49 853,-458 1337,-527 483,-69 1400,3 1926,579 527,577 512,1515 494,1849 0,0 -807,86 -1590,397 -782,310 -1485,902 -1485,902l-81 -302 193 -1185 -299 -763z"/>
    <path class="fil2" d="M9494 40029c-526,-576 -1443,-648 -1927,-579 -483,69 -1317,479 -1336,527 -20,49 -72,171 109,461 0,0 -115,-261 50,-430 165,-169 1403,-740 2302,-435 749,253 802,456 802,456z"/>
    <path class="fil4" d="M7061 41687l67 -725 82 -189c228,128 357,393 299,662 -39,182 -155,328 -307,411l-141 -159z"/>
    <path class="fil5" d="M6511 41222c-47,220 93,437 314,484 220,48 437,-93 485,-314 47,-220 -94,-437 -315,-484 -220,-48 -437,93 -484,314z"/>
    <path class="fil0" d="M6644 41250c-32,147 62,292 209,323 147,32 292,-62 323,-209 32,-147 -62,-292 -209,-323 -147,-32 -292,62 -323,209z"/>
    <path class="fil5" d="M7272 42016c206,-105 365,-299 417,-543 72,-335 -79,-666 -353,-839l-125 139c227,128 356,393 298,662 -39,182 -155,328 -307,411l70 170z"/>
    <path class="fil6" d="M8241 39754c-2,121 92,221 211,223 119,2 217,-94 220,-214 2,-121 -93,-221 -211,-223 -119,-2 -217,94 -220,214zm182 40c-8,-9 -13,-22 -13,-36 0,-15 6,-28 15,-37 9,-8 20,-13 32,-12 13,0 24,5 32,13 9,10 14,23 14,37l0 1c-1,14 -6,27 -16,36 -8,8 -19,13 -31,12 -13,0 -24,-5 -33,-14z"/>
    <path class="fil0" d="M10217 42391l-229 -513c0,0 -2315,224 -3466,1607 0,0 2657,-673 3695,-1094z"/>
    <path class="fil3" d="M9771 42554c0,0 -1256,44 -1858,286 -602,243 -1441,634 -1542,765 -101,131 -123,232 -123,232l1050 63 644 -494 1909 -172 -80 -680z"/>
    <polygon class="fil0" points="10422,43197 10271,42383 10018,42421 10155,43207 "/>
    <polygon class="fil4" points="10018,42421 9771,42554 9851,43234 10155,43207 "/>
    <path class="fil4" d="M8059 42132c-19,52 8,110 60,129 52,19 110,-7 129,-60 19,-52 -7,-110 -59,-129 -53,-19 -111,8 -130,60z"/>
    <path class="fil7" d="M7161 41626c-20,52 7,110 59,130 53,19 111,-8 130,-60 19,-52 -8,-110 -60,-129 -52,-20 -110,7 -129,59z"/>
    <path class="fil0" d="M7265 41725c-132,14 -297,64 -365,187 -175,315 190,433 412,420 277,-15 560,-108 813,-219 77,-33 131,85 54,118 -335,146 -876,358 -1228,173 -189,-99 -272,-366 -167,-555 87,-157 288,-234 459,-252 82,-9 106,119 22,128z"/>
    <path class="fil8" d="M7130 51223c0,0 -580,296 -913,2598 -332,2303 -367,1845 -375,2254 -8,409 149,482 128,703 -20,221 134,679 351,1030 216,351 1206,1491 1394,1663 189,173 465,431 532,552 67,120 384,68 384,68 0,0 171,-89 238,-307 66,-218 232,-249 303,-333 71,-84 79,-248 165,-309 86,-62 460,-134 545,-255 86,-121 140,-156 221,-165 82,-9 182,-14 254,-105 73,-91 86,-28 197,-18 110,11 153,26 257,-57 104,-84 121,-41 209,-15 87,25 78,255 78,255 0,0 78,-56 111,-116 32,-59 28,-133 -3,-173 -31,-39 -53,-31 -80,-90 -27,-59 -172,-189 -307,-211 -134,-22 -280,-146 -343,-285 -63,-140 -139,-189 -227,-301 -89,-112 -74,-307 -203,-388 -128,-80 -185,-278 -314,-359 -129,-80 -223,-260 -223,-385 1,-126 -171,-349 -332,-429 0,0 221,-1007 175,-1163 -46,-156 -154,-305 -141,-395 13,-90 230,-362 300,-691 70,-330 38,-456 126,-557 87,-101 229,-110 292,-375 63,-265 337,-642 -193,-1612 -557,-1021 -1569,-912 -1918,-795 -350,118 -688,766 -688,766z"/>
    <path class="fil9" d="M10357 58617c73,-91 86,-28 197,-18 110,11 153,26 257,-57 104,-84 121,-41 209,-15 87,25 78,255 78,255 0,0 78,-56 111,-116 32,-59 28,-133 -3,-173 -31,-39 -53,-31 -80,-90 -27,-59 -172,-189 -307,-211 -134,-22 -280,-146 -343,-285 -63,-140 -139,-189 -227,-301 -89,-112 -74,-307 -203,-388 -128,-80 -185,-278 -314,-359 -129,-80 -223,-260 -223,-385 1,-126 -171,-349 -332,-429 0,0 221,-1007 175,-1163 -46,-156 -154,-305 -141,-395 13,-90 230,-362 300,-691 70,-330 38,-456 126,-557 78,-90 199,-107 269,-298 0,0 -182,290 -416,240 -235,-50 -344,248 -226,429 118,182 -30,180 -203,527 -174,347 -33,422 -28,712 5,291 -131,297 -138,488 -7,191 191,198 87,375 -103,176 -249,547 -84,582 165,35 466,241 441,355 -24,114 98,472 276,510 177,38 283,286 345,617 62,332 257,199 358,355 101,156 39,486 39,486z"/>
    <path class="fil10" d="M11068 58862l30 -80c0,0 95,-166 35,-258 -60,-92 -1183,-266 -1953,485 -770,750 -617,1088 -617,1088l233 149c0,0 260,148 564,-32 304,-181 1708,-1352 1708,-1352z"/>
    <path class="fil1" d="M13056 61348c0,0 -145,-223 -431,-344 -285,-121 -392,-303 -454,-389 -61,-86 -114,-117 -203,-229 -88,-111 -487,-634 -586,-887 -98,-253 -160,-552 -353,-672 -193,-121 -998,231 -1414,719 -415,488 -343,490 -369,610l-105 124c0,0 -194,-148 -274,-211 0,0 -86,94 -71,177 0,0 839,603 1099,878 260,274 982,1018 955,1364 -27,345 -209,638 -288,760 -80,123 -348,509 -333,811 16,302 9,519 225,685 0,0 238,37 663,-462 424,-500 622,-895 793,-1230 171,-335 218,-431 495,-643 277,-213 233,-255 241,-386 9,-131 -103,-387 -103,-387l513 -288z"/>
    <path class="fil9" d="M12543 61636l513 -288c0,0 -145,-223 -431,-344 -285,-121 -392,-303 -454,-389 -61,-86 -114,-117 -203,-229 -88,-111 -487,-634 -586,-887 -98,-253 -160,-552 -353,-672 -114,-72 -441,22 -775,210 0,0 685,314 727,734 41,420 1195,1104 1251,1461 56,356 311,404 311,404z"/>
    <path class="fil10" d="M13629 61954c0,0 -35,384 -316,675 -282,292 -591,438 -697,654 -106,216 -115,598 -425,903 -310,305 -893,797 -1705,564l2248 -2516 391 -281 504 1z"/>
    <path class="fil11" d="M13629 61954l-110 -355 -463 -251c0,0 -398,94 -524,219 -127,126 8,334 9,420 2,87 41,181 -86,280 -127,99 -352,283 -419,381 -68,99 -666,912 -666,912 0,0 -120,-151 -295,-109 -174,42 -351,402 -425,406 -73,4 -235,-388 -235,-388 0,0 -244,365 -203,732 41,367 155,484 242,543 87,58 570,-184 1240,-995 671,-812 723,-1026 892,-1195 169,-170 268,-387 569,-522l474 -78z"/>
    <path class="fil12" d="M14036 58932c0,0 -268,42 -356,23 -89,-19 -97,-106 -176,-110 -79,-4 -390,-189 -488,-290 -98,-100 -215,-205 -284,-253 -70,-48 -265,-189 -319,-247 -54,-58 -91,-192 -207,-270 -116,-77 -273,-244 -350,-379 -77,-136 -120,-430 -225,-559 -106,-128 -209,-204 -238,-316 -29,-112 -35,-239 -103,-294 -68,-54 -147,-150 -154,-211 -6,-62 -71,-9 -195,-234 -124,-226 -86,-436 -189,-637 -103,-201 -110,-196 -131,-380 -20,-183 -122,-205 -127,-305 -5,-101 -116,-264 -98,-412 19,-149 -207,-270 -211,-377 -3,-107 -317,-658 -317,-658 0,0 1293,31 1588,-1099 267,-1028 -40,-1435 -57,-1444l1001 -125c0,0 38,353 28,490 -9,138 58,258 125,319 66,60 154,457 160,584 6,127 335,602 389,972 54,369 -58,425 63,543 120,119 237,223 344,405 107,182 279,405 352,526 73,122 221,207 242,357 21,150 -7,191 14,308 21,117 22,363 -27,438 0,0 20,58 3,107 -17,49 170,136 164,194 -6,59 38,167 130,200 92,33 335,45 384,155 50,110 34,153 81,183 46,30 60,93 52,131 -9,38 152,125 229,228 78,102 25,224 159,279 134,55 236,137 293,275l-1549 1883z"/>
    <path class="fil0" d="M14948 57823l637 -774c-57,-138 -159,-220 -293,-275 -134,-55 -81,-177 -159,-279 -77,-103 -238,-190 -229,-228 8,-38 -6,-101 -52,-131 -47,-30 -31,-73 -81,-183 -49,-110 -292,-122 -384,-155 -92,-33 -136,-141 -130,-200 6,-58 -181,-145 -164,-194 17,-49 -3,-107 -3,-107 49,-75 48,-321 27,-438 -21,-117 7,-158 -14,-308 -21,-150 -169,-235 -242,-357 -73,-121 -245,-344 -352,-526 -107,-182 -224,-286 -344,-405 -121,-118 -9,-174 -63,-543 -54,-370 -383,-845 -389,-972 -6,-127 -94,-524 -160,-584 -67,-61 -134,-181 -125,-319 10,-137 -28,-490 -28,-490l-421 53c0,0 -180,455 -4,727 176,272 503,377 435,694 -67,317 -177,906 45,1039 222,132 265,677 217,903 -48,225 290,270 462,535 65,101 -57,389 15,604 71,208 302,126 323,236 49,252 -32,504 122,582 359,183 571,306 730,551 159,246 92,382 201,550 109,168 494,663 423,994z"/>
    <path class="fil5" d="M15623 57647c0,0 148,-353 -38,-598 -186,-246 -1011,-77 -1606,472 -594,549 -532,1000 -418,1150 114,151 371,126 371,126l1691 -1150z"/>
    <path class="fil4" d="M16960 62873c0,0 -263,-113 -409,-259 -146,-146 -210,-319 -204,-433 7,-113 -29,-567 -77,-714 -48,-148 -136,-193 -185,-252 -49,-59 -247,-375 -277,-484 -30,-108 -363,-510 -694,-868 -330,-358 -1037,-832 -1260,-1136 -222,-303 276,-838 616,-1039 339,-202 698,-271 901,-245 202,25 279,245 340,452 62,208 578,1061 775,1381 197,321 984,1413 984,1413l-510 2184z"/>
    <path class="fil0" d="M16270 61198l1200 -509c0,0 -787,-1092 -984,-1413 -197,-320 -713,-1173 -775,-1381 -61,-207 -138,-427 -340,-452 -203,-26 -562,43 -901,245 0,0 416,177 924,719 1199,1277 876,2791 876,2791z"/>
    <path class="fil5" d="M17562 60982c0,0 1,-335 -294,-443 -295,-107 -805,129 -939,383 -134,254 -28,419 71,493 100,74 261,206 280,285 18,79 76,242 56,480 -20,239 -47,472 72,595 120,123 238,130 350,79 113,-51 895,-547 989,-615 94,-69 170,-209 192,-384 21,-159 -15,-277 -201,-484 -226,-253 -362,-188 -576,-389z"/>
    <path class="fil3" d="M15013 45871c0,0 203,-81 270,-146 67,-65 182,-67 241,-55 59,13 124,1 130,128 2,30 27,81 27,81 0,0 77,62 137,93 60,30 118,153 116,285 0,0 127,67 133,144 6,76 -49,290 -49,290 0,0 103,79 79,171 -24,92 -80,310 -134,338 -55,29 -75,82 -144,32 -69,-50 -108,-138 -110,-187 -3,-50 5,-88 5,-88 0,0 -246,76 -517,124l-184 -1210z"/>
    <path class="fil13" d="M15296 46722c28,-214 -1,-411 -99,-595 -97,-185 -267,-340 -415,-372 -148,-32 -177,-20 -203,-65 -25,-46 -135,-175 -233,-214 -98,-38 -114,-42 -148,-71 -34,-29 -198,-149 -306,-158 -109,-10 -931,-959 -1728,-1306l712 3162c0,0 435,221 620,203 185,-18 344,104 431,92 87,-13 239,-42 280,-29 42,13 291,129 463,90 172,-38 551,-183 626,-737z"/>
    <path class="fil0" d="M12592 45839l284 1264c0,0 435,221 620,203 185,-18 344,104 431,92 87,-13 239,-42 280,-29 42,13 291,129 463,90 172,-38 551,-183 626,-737 0,0 -199,517 -571,500 -372,-16 -147,-140 -413,-197 -267,-57 -136,177 -412,118 -277,-59 -353,-281 -560,-326 -208,-44 -748,-978 -748,-978z"/>
    <path class="fil5" d="M8949 50736c0,0 476,-75 571,-1018 95,-943 -135,-2512 -287,-3455 -152,-943 -556,-2364 -1291,-2857 0,0 2784,-245 2991,-263 207,-18 880,20 1091,480 211,461 619,1821 744,2643 125,822 366,2757 183,3363 -182,606 -453,716 -679,739 -226,22 -3323,368 -3323,368z"/>
    <path class="fil3" d="M8716 43338c-443,39 -774,68 -774,68 735,493 1139,1914 1291,2857 152,942 382,2512 287,3455 -95,943 -571,1019 -571,1019 0,0 366,-41 856,-96 0,0 177,-108 422,-630 244,-523 122,-1689 69,-2063 -53,-374 258,-422 377,-441 119,-19 1083,-104 1344,-128 262,-24 316,94 375,274 59,181 218,842 200,1422 -18,580 -614,1325 -614,1325 153,-17 259,-29 294,-32 226,-23 497,-133 679,-739 183,-606 -58,-2541 -183,-3363 -125,-822 -533,-2182 -744,-2643 -211,-460 -884,-498 -1091,-480 -25,2 -89,8 -182,16 0,0 451,342 530,509 79,167 138,348 -83,389 -221,41 -1362,125 -1508,146 -146,22 -346,50 -478,-243 -132,-294 -496,-622 -496,-622z"/>
    <path class="fil5" d="M8949 50736c0,0 476,-75 571,-1018 95,-943 -135,-2512 -287,-3455 -152,-943 -556,-2364 -1291,-2857l-520 490 1130 6508 397 332z"/>
    <polygon class="fil14" points="8551,50404 8182,50025 7054,44047 7942,43406 7422,43896 "/>
    <path class="fil5" d="M10037 45787c-23,510 374,943 887,966 513,22 947,-373 970,-884 22,-510 -375,-943 -888,-965 -512,-23 -947,372 -969,883z"/>
    <path class="fil0" d="M10329 45760c-18,401 294,741 697,759 403,18 745,-293 762,-694 18,-401 -294,-741 -697,-759 -403,-18 -744,293 -762,694z"/>
    <path class="fil4" d="M8015 43108c-25,119 50,236 169,261 120,26 237,-50 262,-169 26,-119 -50,-237 -169,-262 -119,-25 -237,50 -262,170z"/>
    <path class="fil0" d="M8749 46171c163,-9 335,-59 474,-145 347,-218 272,-642 158,-976 -134,-391 -335,-783 -541,-1141 -127,-221 -372,-447 -586,-512 -238,-72 -159,-453 81,-380 334,101 630,348 810,644 270,446 548,979 670,1487 101,417 62,864 -297,1144 -207,162 -485,253 -747,267 -250,14 -272,-375 -22,-388z"/>
    <path class="fil7" d="M10884 45629c-10,239 175,441 415,452 240,10 443,-174 453,-413 11,-239 -175,-441 -415,-452 -239,-10 -442,175 -453,413z"/>
    <path class="fil10" d="M1805 49564c0,0 -137,355 -335,454 -198,100 -252,-106 -206,-216 45,-109 68,-215 68,-215l237 -73 236 50z"/>
    <path class="fil15" d="M2789 49655c0,0 -1196,-154 -1532,-9 0,0 -186,230 -250,384 -64,155 -130,136 -181,103 -50,-33 -124,-102 -55,-339 68,-237 50,-197 50,-197 0,0 -100,324 -203,372 -103,49 -237,-28 -186,-371 0,0 -192,154 -247,142 -54,-12 -125,-98 -52,-294 73,-197 247,-367 247,-367 0,0 -275,3 -332,-18 -58,-21 -73,-135 9,-210 83,-76 587,-242 702,-266 116,-24 292,18 411,0 119,-19 659,21 766,57 107,36 423,-78 423,-78 0,0 274,479 430,1091z"/>
    <path class="fil1" d="M7184 43832c-598,-318 -1190,45 -1505,530 -316,486 -153,944 -287,1031 -134,87 -206,458 -270,706 -40,154 -132,247 -196,267 -64,19 -156,79 -187,159 -30,80 -66,251 -244,306 -177,55 -230,83 -286,191 -56,107 -64,205 -183,265 -119,61 -200,54 -262,127 -62,73 -53,141 -136,156 -83,16 -112,26 -171,70 -59,44 -28,100 -92,106 -65,6 -195,28 -246,113 -52,85 6,171 -130,218 -136,47 -175,-64 -361,62 -186,126 -279,295 -292,511 -13,216 123,573 294,815 170,242 319,307 569,344 251,37 370,-87 399,-130 30,-44 82,-105 175,-152 93,-46 190,-82 231,-119 42,-38 153,-77 254,-119 102,-41 471,-184 715,-351 244,-166 354,-289 484,-374 131,-84 353,-209 523,-365 169,-157 424,-251 510,-372 85,-121 122,-385 252,-530 131,-144 475,-548 661,-1045 186,-497 369,-1001 287,-1656 -61,-490 -339,-676 -506,-764z"/>
    <path class="fil9" d="M2630 49465c170,242 319,307 569,344 251,37 370,-87 399,-130 30,-44 83,-105 175,-152 93,-46 190,-82 231,-119 42,-38 153,-77 254,-119 102,-41 471,-184 715,-351 244,-166 354,-289 484,-374 131,-84 353,-209 523,-365 169,-157 424,-251 510,-372 85,-121 122,-385 252,-530 131,-144 475,-548 661,-1045 186,-497 369,-1001 287,-1656 -61,-490 -339,-676 -506,-764 0,0 335,543 194,893 -141,351 -450,608 -387,1030 63,422 -140,845 -291,943 -151,98 -370,467 -428,739 -58,271 -232,299 -493,467 -260,169 -271,414 -515,573 -244,158 -515,104 -836,312 -321,208 -240,475 -513,497 -274,21 -372,-88 -581,48 -210,136 -704,131 -704,131z"/>
    <path class="fil6" d="M9524 41677c-2,121 92,221 211,223 119,2 217,-94 219,-215 3,-120 -92,-220 -211,-222 -119,-3 -217,93 -219,214zm182 40c-8,-10 -14,-22 -13,-36 0,-15 6,-28 15,-37 8,-8 20,-13 32,-13 12,1 24,6 32,14 8,9 14,22 14,37l-1 0c0,15 -6,27 -15,36 -8,8 -19,13 -31,13 -13,0 -25,-6 -33,-14z"/>
    <path class="fil5" d="M9604 41715c-82,-228 4,-472 144,-655 61,-79 160,-151 196,-246 71,-188 -140,-400 -267,-516 -316,-288 -789,-428 -1213,-409 -171,8 -165,-258 5,-266 470,-21 986,140 1345,443 220,186 494,501 390,813 -93,275 -465,431 -342,771 58,161 -200,225 -258,65z"/>
    <path class="fil16" d="M17185 60289c197,279 285,400 285,400l-3 1c-43,-61 -106,-117 -199,-151 -295,-107 -805,129 -939,383 -12,24 -23,46 -31,69 -31,79 -37,148 -29,207 15,102 75,174 132,217 99,74 260,206 279,285 18,79 76,242 56,480 -20,239 -47,472 72,595 25,25 50,46 74,62 -89,-45 -235,-127 -331,-223 -146,-146 -210,-319 -204,-433 7,-113 -29,-567 -77,-715 -48,-147 -39,-278 -88,-337 -41,-49 -62,-109 -67,-173 -31,-464 806,-1038 1070,-667z"/>
   </g>
   <g>
    <path class="fil17" d="M14458 37959c-2175,-1249 -2400,-2504 -1714,-3697 656,-1143 2207,-2151 3563,-3032 745,-485 1428,-929 1829,-1309 432,-410 803,-881 1066,-1449 264,-572 424,-1250 433,-2073 38,-3612 -3944,-7176 -6844,-9771 -404,-362 -787,-705 -1158,-1047 -1593,-1473 -3152,-3033 -4431,-4725 -1292,-1709 -2294,-3548 -2755,-5557 -181,-789 -258,-1672 -226,-2587 32,-890 169,-1813 418,-2712l487 0c-263,918 -408,1864 -441,2777 -32,898 44,1764 221,2537 454,1980 1445,3795 2721,5483 1270,1680 2821,3233 4408,4699 363,335 749,680 1156,1045 2927,2620 6947,6218 6907,9919 -9,852 -175,1555 -450,2150 -275,594 -660,1083 -1108,1509 -414,392 -1105,841 -1857,1331 -1338,869 -2868,1864 -3501,2966 -629,1095 -406,2257 1642,3433 180,103 381,209 596,321 521,272 1123,587 1655,1001 277,216 539,469 745,742 215,285 367,590 408,892 39,288 -26,579 -240,854 -90,115 -207,229 -353,339 -375,283 -871,361 -1370,440 -472,74 -948,149 -1369,388 -510,289 -822,767 -1125,1230l-93 142c-602,909 -1537,1423 -2641,1474 -16,1 -31,4 -46,8 -1,-6 -1,-13 -1,-19 -10,-213 154,-393 367,-403 423,-20 773,-145 1072,-348 312,-212 577,-514 816,-876l94 -142c316,-483 641,-980 1191,-1292 451,-256 944,-334 1435,-411 474,-75 946,-149 1283,-403 132,-100 237,-201 317,-304 178,-230 233,-471 201,-709 -36,-266 -175,-540 -371,-801 -195,-259 -444,-500 -709,-706 -519,-403 -1112,-714 -1626,-982 -216,-113 -419,-219 -602,-325z"/>
    <path class="fil6" d="M13771 44056c303,-463 615,-941 1125,-1230 421,-239 897,-314 1369,-388 499,-79 995,-157 1370,-440 146,-110 263,-224 353,-339 214,-275 279,-566 240,-854 -41,-302 -193,-607 -408,-892 -206,-273 -468,-526 -745,-742 -532,-414 -1134,-729 -1655,-1001 -215,-112 -416,-218 -596,-321 -2048,-1176 -2271,-2338 -1642,-3433 633,-1102 2163,-2097 3501,-2966 752,-490 1443,-939 1857,-1331 448,-426 833,-915 1108,-1509 275,-595 441,-1298 450,-2150 40,-3701 -3980,-7299 -6907,-9919 -407,-365 -793,-710 -1156,-1045 -1587,-1466 -3138,-3019 -4408,-4699 -1276,-1688 -2267,-3503 -2721,-5483 -177,-773 -253,-1639 -221,-2537 33,-913 178,-1859 441,-2777l314 0c-268,902 -414,1838 -447,2741 -30,847 41,1661 207,2386 434,1894 1387,3638 2617,5264 1243,1644 2772,3174 4339,4622 337,312 733,666 1150,1039 3009,2693 7141,6391 7098,10357 -10,940 -195,1720 -502,2385 -309,668 -738,1214 -1234,1685 -451,428 -1164,891 -1940,1396 -1284,835 -2752,1789 -3315,2770 -462,803 -242,1686 1429,2646 169,97 365,200 574,309 544,284 1172,613 1743,1057 314,245 613,535 851,850 270,359 464,755 519,1164 59,437 -37,875 -355,1284 -121,155 -273,304 -461,446 -490,369 -1058,458 -1630,548 -417,66 -837,132 -1172,322 -390,222 -663,638 -927,1043 -60,92 -72,111 -94,144 -292,441 -623,814 -1026,1088 -414,283 -895,455 -1471,482 -206,10 -382,-145 -402,-348 15,-4 30,-7 46,-8 1104,-51 2039,-565 2641,-1474l93 -142z"/>
   </g>
  </g>
 </g>
</svg>
