<?xml version="1.0" encoding="UTF-8"?>
<!DOCTYPE svg PUBLIC "-//W3C//DTD SVG 1.1//EN" "http://www.w3.org/Graphics/SVG/1.1/DTD/svg11.dtd">
<!-- Creator: CorelDRAW X7 -->
<svg xmlns="http://www.w3.org/2000/svg" xml:space="preserve" width="5.12429in" height="6.42862in" version="1.1" style="shape-rendering:geometricPrecision; text-rendering:geometricPrecision; image-rendering:optimizeQuality; fill-rule:evenodd; clip-rule:evenodd"
viewBox="0 0 51243 64286"
 xmlns:xlink="http://www.w3.org/1999/xlink">
 <defs>
  <style type="text/css">
   <![CDATA[
    .fil3 {fill:#D1B585}
    .fil1 {fill:#D7BD91}
    .fil2 {fill:#CEB68C;fill-rule:nonzero}
    .fil4 {fill:#D1B585;fill-rule:nonzero}
    .fil0 {fill:#E2CBA1;fill-rule:nonzero}
   ]]>
  </style>
 </defs>
 <g id="Layer_x0020_1">
  <metadata id="CorelCorpID_0Corel-Layer"/>
  <g id="_2704393860048">
   <path class="fil0" d="M0 0l0 64286c29309,-7389 51006,-33341 51243,-64286l-51243 0z"/>
   <path class="fil1" d="M0 57908c22943,-5359 42424,-22201 49687,-45908 340,-1107 645,-2203 928,-3310 -3801,27028 -24085,48908 -50614,55596l0 -6378 -1 0z"/>
   <path class="fil2" d="M34341 29827c-427,0 -428,650 0,650 427,0 428,-650 0,-650z"/>
   <path class="fil2" d="M12953 41874l0 -111c0,-144 -226,-144 -226,0l0 111c0,133 226,133 226,0z"/>
   <path class="fil2" d="M29707 32618c-136,0 -136,210 0,210 147,0 147,-210 0,-210z"/>
   <path class="fil2" d="M20634 48751c-45,-34 -79,-78 -124,-111 -45,-55 -124,22 -68,77 34,34 68,78 114,111 45,45 124,-22 79,-77l-1 0z"/>
   <path class="fil2" d="M10555 49072c-68,0 -68,111 0,111 79,0 79,-111 0,-111z"/>
   <path class="fil2" d="M12795 23317c-34,33 -68,66 -114,111 -45,44 34,121 80,77 45,-44 79,-77 113,-111 56,-55 -22,-133 -79,-77z"/>
   <path class="fil2" d="M8428 33769c45,-44 79,-78 113,-111 57,-55 -22,-133 -68,-78 -45,34 -79,67 -124,111 -45,45 34,122 80,78l-1 0z"/>
   <path class="fil2" d="M17738 34899c-68,0 -68,110 0,110 68,0 68,-110 0,-110z"/>
   <path class="fil2" d="M23553 27812l0 111c0,144 226,144 226,0l0 -111c0,-133 -226,-133 -226,0z"/>
   <path class="fil2" d="M30850 22353l-113 0c-147,0 -147,211 0,211l113 0c147,0 147,-211 0,-211z"/>
   <path class="fil2" d="M43611 23018l-113 0c-136,0 -136,221 0,221l113 0c148,0 148,-221 0,-221z"/>
   <path class="fil2" d="M11245 50079c-215,0 -215,321 0,321 215,0 215,-321 0,-321z"/>
   <path class="fil2" d="M20533 39416l0 -111c0,-88 -80,-166 -170,-166 -90,11 -170,78 -170,166l0 111c0,89 80,166 170,166 90,-11 170,-77 170,-166z"/>
   <path class="fil2" d="M15917 33958c-283,0 -283,432 0,432 283,0 283,-432 0,-432z"/>
   <path class="fil2" d="M28802 27934c-147,0 -147,211 0,211 136,0 136,-211 0,-211z"/>
   <path class="fil2" d="M32332 27369c-147,0 -147,221 0,221 147,0 147,-221 0,-221z"/>
   <path class="fil2" d="M40534 20903c-136,0 -136,211 0,211 147,0 147,-211 0,-211z"/>
   <path class="fil2" d="M42356 17880l0 -111c0,-133 -216,-133 -216,0l0 111c0,144 216,144 216,0z"/>
   <path class="fil2" d="M43690 19297c46,-33 80,-78 113,-111 102,-100 -45,-254 -147,-155 -45,45 -79,78 -113,111 -102,100 45,255 147,155z"/>
   <path class="fil2" d="M43045 20449c-147,0 -147,221 0,221 148,0 148,-221 0,-221z"/>
   <path class="fil2" d="M46123 20781l0 -111c0,-133 -226,-133 -226,0l0 111c0,145 226,145 226,0z"/>
   <path class="fil2" d="M42254 24911l-124 0c-136,0 -136,221 0,221l124 0c136,0 136,-221 0,-221z"/>
   <path class="fil2" d="M40194 23018c-135,0 -135,221 0,221 148,0 148,-221 0,-221z"/>
   <path class="fil2" d="M36695 16025c-148,0 -148,221 0,221 135,0 135,-221 0,-221z"/>
   <path class="fil2" d="M21505 23350c-147,0 -147,221 0,221 136,0 136,-221 0,-221z"/>
   <path class="fil2" d="M39742 28598c-147,0 -147,222 0,222 136,0 136,-222 0,-222z"/>
   <path class="fil2" d="M37343 32164c-135,0 -135,221 0,221 148,0 148,-221 0,-221z"/>
   <path class="fil2" d="M3258 31278l-114 0c-136,0 -136,210 0,210l114 0c147,0 147,-210 0,-210z"/>
   <path class="fil2" d="M6799 27590l0 -111c0,-144 -226,-144 -226,0l0 111c0,145 226,145 226,0z"/>
   <path class="fil2" d="M12727 29716c-148,0 -148,211 0,211 135,0 135,-211 0,-211z"/>
   <path class="fil2" d="M2353 36858c-148,0 -148,211 0,211 136,0 136,-211 0,-211z"/>
   <path class="fil2" d="M9638 39416l0 -111c0,-144 -215,-144 -215,0l0 111c0,144 215,144 215,0z"/>
   <path class="fil2" d="M12387 46116c-147,0 -147,221 0,221 136,0 136,-221 0,-221z"/>
   <path class="fil2" d="M2175 51656c-136,0 -136,211 0,211 147,0 147,-211 0,-211z"/>
   <path class="fil2" d="M5735 55671c34,-33 80,-77 114,-111 101,-99 -57,-254 -159,-154 -34,44 -68,77 -113,111 -102,99 56,254 158,154z"/>
   <path class="fil2" d="M26868 38309c34,-44 68,-77 113,-111 56,-66 56,-177 0,-232 -68,-67 -181,-67 -237,0 -34,33 -80,78 -114,111 -68,55 -68,166 0,232 57,56 170,56 238,0z"/>
   <path class="fil2" d="M18994 44277c-215,0 -215,321 0,321 215,0 215,-321 0,-321z"/>
   <path class="fil2" d="M16426 47898l0 -111c0,-88 -79,-166 -170,-166 -90,0 -169,78 -169,166l0 111c0,89 79,166 169,166 91,-11 170,-77 170,-166z"/>
   <path class="fil2" d="M9536 25088c-215,0 -215,321 0,321 215,0 215,-321 0,-321z"/>
   <path class="fil2" d="M45484 3650l-114 0c-90,0 -169,78 -169,166 11,88 79,166 169,166l114 0c90,0 169,-78 169,-166 -11,-88 -79,-166 -169,-166z"/>
   <path class="fil2" d="M22184 16385c-215,0 -215,321 0,321 215,0 215,-321 0,-321z"/>
   <path class="fil2" d="M18077 27314l-113 0c-79,0 -170,78 -158,166 0,89 68,166 158,166l113 0c91,0 170,-77 170,-166 0,-88 -68,-166 -170,-166z"/>
   <path class="fil2" d="M15464 24524c-215,0 -215,332 0,332 215,0 215,-332 0,-332z"/>
   <path class="fil2" d="M11584 24745c-215,0 -215,332 0,332 215,0 215,-332 0,-332z"/>
   <path class="fil2" d="M9423 27989c-215,0 -215,321 0,321 204,0 215,-321 0,-321z"/>
   <path class="fil2" d="M13631 52139c-283,0 -283,443 0,443 294,0 294,-443 0,-443z"/>
   <path class="fil2" d="M17444 31787c-45,-33 -79,-77 -113,-111 -90,-77 -238,-88 -317,0 -80,89 -90,222 0,311 34,33 79,66 113,111 80,77 238,88 317,0 80,-89 80,-222 0,-311z"/>
   <path class="fil2" d="M21732 33216c-68,33 -147,77 -226,111 -102,55 -136,199 -79,299 67,99 192,132 305,77 79,-33 158,-77 226,-111 102,-55 147,-199 80,-299 -68,-99 -193,-132 -306,-77z"/>
   <path class="fil2" d="M39290 15488c-216,0 -216,332 0,332 203,0 215,-332 0,-332z"/>
   <path class="fil2" d="M45670 12366c-215,0 -215,321 0,321 215,0 215,-321 0,-321z"/>
   <path class="fil2" d="M11924 33005c-216,0 -216,332 0,332 215,0 215,-332 0,-332z"/>
   <path class="fil2" d="M10781 35906c-204,0 -204,321 0,321 215,0 215,-321 0,-321z"/>
   <path class="fil2" d="M3382 34124c-215,0 -215,321 0,321 203,0 203,-321 0,-321z"/>
   <path class="fil2" d="M5430 34124c-215,0 -215,321 0,321 215,0 215,-321 0,-321z"/>
   <path class="fil2" d="M22637 43834c-204,0 -215,321 0,321 215,0 215,-321 0,-321z"/>
   <path class="fil2" d="M10499 15754c-215,0 -215,321 0,321 215,0 215,-321 0,-321z"/>
   <path class="fil2" d="M6799 21966c-215,0 -215,321 0,321 215,0 215,-321 0,-321z"/>
   <path class="fil2" d="M15547 38727c-215,0 -215,321 0,321 215,0 215,-321 0,-321z"/>
   <path class="fil2" d="M12397 38370c-215,0 -215,321 0,321 215,0 215,-321 0,-321z"/>
   <path class="fil2" d="M9070 43985c-215,0 -215,321 0,321 215,0 215,-321 0,-321z"/>
   <path class="fil2" d="M5656 48064c-215,0 -215,332 0,332 215,0 215,-332 0,-332z"/>
   <path class="fil2" d="M7590 49293c-215,0 -215,333 0,333 215,0 215,-333 0,-333z"/>
   <path class="fil2" d="M7364 51863c-215,0 -215,320 0,320 215,0 215,-320 0,-320z"/>
   <path class="fil2" d="M6618 30314c33,-33 67,-77 113,-111 147,-144 147,-398 0,-542 -158,-133 -396,-145 -555,0 -34,44 -68,77 -113,111 -136,144 -147,398 0,542 158,133 396,145 555,0z"/>
   <path class="fil2" d="M38373 19453l-113 0c-147,0 -147,210 0,210l113 0c147,0 147,-210 0,-210z"/>
   <path class="fil2" d="M29934 39195c-136,0 -136,221 0,221 147,0 147,-221 0,-221z"/>
   <path class="fil2" d="M27275 36704c46,-34 79,-78 113,-111 102,-100 -45,-255 -147,-155 -45,44 -79,78 -113,111 -102,99 45,254 147,155z"/>
   <path class="fil2" d="M32106 35176c-147,0 -147,221 0,221 136,0 136,-221 0,-221z"/>
   <path class="fil2" d="M32785 30824l0 -111c0,-133 -226,-133 -226,0l0 111c0,144 226,144 226,0z"/>
   <path class="fil2" d="M16030 45784l-113 0c-147,0 -147,210 0,210l113 0c148,0 148,-210 0,-210z"/>
   <path class="fil2" d="M13292 48795c-136,0 -136,211 0,211 147,0 147,-211 0,-211z"/>
   <path class="fil2" d="M4977 28764c-215,0 -215,333 0,333 215,0 215,-333 0,-333z"/>
   <path class="fil2" d="M4739 29772c-203,0 -203,321 0,321 216,0 216,-321 0,-321z"/>
   <path class="fil2" d="M1733 11908c-215,0 -215,332 0,332 204,0 204,-332 0,-332z"/>
   <path class="fil2" d="M5316 27424c-215,0 -215,333 0,333 215,0 215,-333 0,-333z"/>
   <path class="fil2" d="M3721 27989c-215,0 -215,321 0,321 215,0 215,-321 0,-321z"/>
   <path class="fil2" d="M11131 48906c-283,0 -293,432 0,432 284,0 284,-432 0,-432z"/>
   <path class="fil2" d="M1323 37634c-136,0 -136,221 0,221 147,0 147,-221 0,-221z"/>
   <path class="fil2" d="M2013 37634c-294,0 -294,443 0,443 283,0 283,-443 0,-443z"/>
   <path class="fil3" d="M25376 20736c1149,-3156 3924,-5068 6483,-4635 -395,-351 -846,-633 -1349,-825 -2758,-1052 -6025,927 -7297,4421 -1272,3494 -68,7180 2690,8232 267,102 540,167 814,214 -1765,-1570 -2381,-4551 -1341,-7407z"/>
   <path class="fil1" d="M15275 38317c1650,-704 3397,-351 4148,765 -5,-274 -57,-545 -162,-803 -580,-1413 -2531,-1927 -4357,-1147 -1826,780 -2837,2557 -2257,3971 57,137 129,262 210,382 -21,-1227 926,-2531 2418,-3168z"/>
   <path class="fil3" d="M9952 45362c1070,-717 2355,-698 3041,-8 -41,-193 -115,-378 -226,-547 -606,-923 -2057,-1028 -3241,-235 -1185,794 -1654,2185 -1048,3109 58,89 127,168 201,242 -184,-865 305,-1913 1273,-2561z"/>
   <path class="fil2" d="M32325 35572c-308,0 -308,-474 0,-474 330,0 330,474 0,474z"/>
   <path class="fil2" d="M4463 33979c-155,0 -155,-237 0,-237 154,0 154,237 0,237z"/>
   <path class="fil2" d="M5453 30403c-308,0 -308,-475 0,-475 330,0 330,475 0,475z"/>
   <path class="fil2" d="M13993 43198l0 236c0,324 -485,324 -485,0l0 -236c0,-301 485,-301 485,0z"/>
   <path class="fil2" d="M5453 47118l-242 0c-307,0 -307,-474 0,-474l242 0c330,0 330,474 0,474z"/>
   <path class="fil2" d="M10977 27818c-463,0 -463,-711 0,-711 484,0 484,711 0,711z"/>
   <path class="fil2" d="M27633 20554l0 237c0,323 -505,323 -505,0l0 -237c0,-301 505,-301 505,0z"/>
   <path class="fil2" d="M26559 27214c-308,0 -308,-474 0,-474 307,0 307,474 0,474z"/>
   <path class="fil2" d="M13002 20580c-330,0 -330,-495 0,-495 308,0 308,495 0,495z"/>
   <path class="fil2" d="M41128 18232c-485,0 -485,-711 0,-711 462,0 462,711 0,711z"/>
   <path class="fil2" d="M24050 35680c-485,0 -485,-711 0,-711 462,0 462,711 0,711z"/>
   <path class="fil4" d="M6707 41734c-88,-87 -154,-172 -241,-259 -155,-129 -155,-366 0,-495 132,-151 373,-151 506,0 88,87 175,151 264,237 132,151 132,365 0,517 -155,129 -374,129 -529,0z"/>
   <path class="fil2" d="M4704 19223l-241 0c-198,0 -374,-172 -374,-366 22,-194 154,-366 374,-366l241 0c198,0 374,172 374,366 -22,194 -155,366 -374,366z"/>
   <path class="fil2" d="M2438 25857c-462,0 -462,-711 0,-711 485,0 485,711 0,711z"/>
   <path class="fil4" d="M19516 26719c-616,0 -616,-969 0,-969 638,0 638,969 0,969z"/>
   <path class="fil2" d="M17452 39593c89,-86 155,-172 242,-236 220,-216 572,107 352,323 -88,86 -175,172 -264,258 -220,216 -550,-129 -330,-345z"/>
   <path class="fil2" d="M19032 43198c-330,0 -330,-495 0,-495 307,0 307,495 0,495z"/>
   <path class="fil4" d="M34591 24134c-462,0 -462,-711 0,-711 485,0 485,711 0,711z"/>
   <path class="fil2" d="M34349 27323c-484,0 -484,-711 0,-711 463,0 463,711 0,711z"/>
   <path class="fil4" d="M39367 22799c-66,87 -154,172 -241,237 -132,151 -374,151 -528,0 -133,-130 -133,-366 0,-495 88,-87 175,-172 264,-237 132,-151 373,-151 505,0 155,129 155,366 0,495z"/>
   <path class="fil2" d="M10977 30144c-617,0 -617,-947 0,-947 637,0 637,947 0,947z"/>
   <path class="fil2" d="M41692 8444l0 237c0,323 -505,323 -505,0l0 -237c0,-301 505,-301 505,0z"/>
   <path class="fil2" d="M12979 9390c66,86 155,172 242,236 132,151 374,151 528,0 132,-129 132,-366 0,-495 -88,-86 -176,-172 -264,-236 -132,-151 -374,-151 -506,0 -154,129 -154,365 0,495z"/>
   <path class="fil2" d="M35363 10554c-331,0 -331,-509 0,-509 347,0 347,509 0,509z"/>
   <path class="fil2" d="M7982 4847c-215,0 -215,321 0,321 215,0 215,-321 0,-321z"/>
   <path class="fil2" d="M25419 10166c-216,0 -216,332 0,332 215,0 215,-332 0,-332z"/>
   <path class="fil2" d="M3432 43939c-203,0 -203,320 0,320 215,0 215,-320 0,-320z"/>
  </g>
 </g>
</svg>
