<?xml version="1.0" encoding="UTF-8"?>
<!DOCTYPE svg PUBLIC "-//W3C//DTD SVG 1.1//EN" "http://www.w3.org/Graphics/SVG/1.1/DTD/svg11.dtd">
<!-- Creator: CorelDRAW X7 -->
<svg xmlns="http://www.w3.org/2000/svg" xml:space="preserve" width="100%" height="100%" version="1.1" style="shape-rendering:geometricPrecision; text-rendering:geometricPrecision; image-rendering:optimizeQuality; fill-rule:evenodd; clip-rule:evenodd"
viewBox="0 0 2600 2600"
 xmlns:xlink="http://www.w3.org/1999/xlink">
 <defs>
  <style type="text/css">
   <![CDATA[
    .fil1 {fill:none}
    .fil0 {fill:black}
   ]]>
  </style>
 </defs>
 <g id="Layer_x0020_1">
  <metadata id="CorelCorpID_0Corel-Layer"/>
  <g id="_2724752112208">
   <path class="fil0" d="M998 397l0 1710 -177 -178 -40 44 226 230 39 0 226 -230 -40 -42 -177 176 0 -1710 -57 0zm522 1806l0 -49 170 -260c12,-18 23,-34 35,-48l-186 0 0 -47 237 0 0 47 -185 281 -21 29 212 0 0 47 -262 0zm-11 -1402l128 -404 47 0 135 404 -50 0 -38 -122 -140 0 -36 122 -46 0zm95 -166l114 0 -35 -112c-11,-34 -19,-62 -24,-84 -4,26 -10,52 -18,78l-37 118z"/>
   <rect class="fil1" width="2600" height="2600"/>
  </g>
 </g>
</svg>
