<?xml version="1.0" encoding="UTF-8"?>
<!DOCTYPE svg PUBLIC "-//W3C//DTD SVG 1.1//EN" "http://www.w3.org/Graphics/SVG/1.1/DTD/svg11.dtd">
<!-- Creator: CorelDRAW X7 -->
<svg xmlns="http://www.w3.org/2000/svg" xml:space="preserve" width="100%" height="100%" version="1.1" style="shape-rendering:geometricPrecision; text-rendering:geometricPrecision; image-rendering:optimizeQuality; fill-rule:evenodd; clip-rule:evenodd"
viewBox="0 0 2600 2600"
 xmlns:xlink="http://www.w3.org/1999/xlink">
 <defs>
  <style type="text/css">
   <![CDATA[
    .fil0 {fill:none}
    .fil1 {fill:black}
   ]]>
  </style>
 </defs>
 <g id="Layer_x0020_1">
  <metadata id="CorelCorpID_0Corel-Layer"/>
  <g id="_2724832031344">
   <rect class="fil0" width="2600" height="2600"/>
   <path class="fil1" d="M623 809l0 1394 1354 0 0 -1806 -943 0 -411 412zm792 1154l0 -49 170 -259c12,-18 23,-34 35,-48l-186 0 0 -48 237 0 0 48 -186 280 -20 29 212 0 0 47 -262 0zm-24 -809l128 -404 47 0 135 404 -50 0 -38 -122 -140 0 -36 122 -46 0zm95 -165l113 0 -35 -112c-10,-35 -18,-63 -23,-84 -5,26 -11,51 -18,77l-37 119zm-468 43l0 835 -178 -178 -40 44 226 230 40 0 226 -230 -40 -42 -178 176 0 -835 -56 0zm0 -539l0 299 -299 0 299 -299zm903 1654l-1242 0 0 -1298 395 0 0 -396 847 0 0 1694z"/>
  </g>
 </g>
</svg>
