<?xml version="1.0" encoding="UTF-8"?>
<!DOCTYPE svg PUBLIC "-//W3C//DTD SVG 1.1//EN" "http://www.w3.org/Graphics/SVG/1.1/DTD/svg11.dtd">
<!-- Creator: CorelDRAW X7 -->
<svg xmlns="http://www.w3.org/2000/svg" xml:space="preserve" width="100%" height="100%" version="1.1" style="shape-rendering:geometricPrecision; text-rendering:geometricPrecision; image-rendering:optimizeQuality; fill-rule:evenodd; clip-rule:evenodd"
viewBox="0 0 2600 2600"
 xmlns:xlink="http://www.w3.org/1999/xlink">
 <defs>
  <style type="text/css">
   <![CDATA[
    .fil0 {fill:none}
    .fil1 {fill:black}
   ]]>
  </style>
 </defs>
 <g id="Layer_x0020_1">
  <metadata id="CorelCorpID_0Corel-Layer"/>
  <g id="_2724845343824">
   <rect class="fil0" width="2600" height="2600"/>
   <path class="fil1" d="M1788 1506l0 -103 -411 -257 0 -283c0,-43 -34,-77 -77,-77 -43,0 -77,34 -77,77l0 283 -411 257 0 103 411 -129 0 283 -103 77 0 77 180 -51 180 51 0 -77 -103 -77 0 -283 411 129zm-488 -1109c241,0 468,94 639,265 170,170 264,397 264,638 0,241 -94,468 -264,639 -171,170 -398,264 -639,264 -241,0 -468,-94 -639,-264 -170,-171 -264,-398 -264,-639 0,-241 94,-468 264,-638 171,-171 398,-265 639,-265zm-599 1502c160,160 373,248 599,248 226,0 439,-88 599,-248 160,-160 248,-373 248,-599 0,-226 -88,-439 -248,-599 -160,-160 -373,-248 -599,-248 -226,0 -439,88 -599,248 -160,160 -248,373 -248,599 0,226 88,439 248,599z"/>
  </g>
 </g>
</svg>
