<?xml version="1.0" encoding="UTF-8"?>
<!DOCTYPE svg PUBLIC "-//W3C//DTD SVG 1.1//EN" "http://www.w3.org/Graphics/SVG/1.1/DTD/svg11.dtd">
<!-- Creator: CorelDRAW X7 -->
<svg xmlns="http://www.w3.org/2000/svg" xml:space="preserve" width="100%" height="100%" version="1.1" style="shape-rendering:geometricPrecision; text-rendering:geometricPrecision; image-rendering:optimizeQuality; fill-rule:evenodd; clip-rule:evenodd"
viewBox="0 0 2600 2600"
 xmlns:xlink="http://www.w3.org/1999/xlink">
 <defs>
  <style type="text/css">
   <![CDATA[
    .fil0 {fill:none}
    .fil1 {fill:black}
   ]]>
  </style>
 </defs>
 <g id="Layer_x0020_1">
  <metadata id="CorelCorpID_0Corel-Layer"/>
  <g id="_2724829800784">
   <rect class="fil0" width="2600" height="2600"/>
   <path class="fil1" d="M1759 1512l-74 -23 -265 -83 0 178 85 64c0,55 0,111 0,166l-205 -58 -205 58c0,-55 0,-111 0,-166l85 -64 0 -178 -265 83 -74 23c0,-64 0,-128 0,-193l339 -211 0 -202c0,-33 13,-63 35,-85l0 0 0 0c22,-22 52,-35 85,-35 33,0 63,13 85,35l0 0 0 0c22,22 35,52 35,85l0 202 339 211c0,65 0,129 0,193zm-459 -1115c241,0 468,94 639,265 170,170 264,397 264,638 0,241 -94,468 -264,639 -171,170 -398,264 -639,264 -241,0 -468,-94 -639,-264 -170,-171 -264,-398 -264,-639 0,-241 94,-468 264,-638 171,-171 398,-265 639,-265zm-599 1502c160,160 373,248 599,248 226,0 439,-88 599,-248 160,-160 248,-373 248,-599 0,-226 -88,-439 -248,-599 -160,-160 -373,-248 -599,-248 -226,0 -439,88 -599,248 -160,160 -248,373 -248,599 0,226 88,439 248,599zm1001 -464l0 -84 -338 -212 0 -233c0,-35 -29,-64 -64,-64 -35,0 -64,29 -64,64l0 233 -338 212 0 84 338 -106 0 283 -84 64 0 63 148 -42 148 42 0 -63 -84 -64 0 -283 338 106z"/>
  </g>
 </g>
</svg>
