<?xml version="1.0" encoding="UTF-8"?>
<!DOCTYPE svg PUBLIC "-//W3C//DTD SVG 1.1//EN" "http://www.w3.org/Graphics/SVG/1.1/DTD/svg11.dtd">
<!-- Creator: CorelDRAW X7 -->
<svg xmlns="http://www.w3.org/2000/svg" xml:space="preserve" width="100%" height="100%" version="1.1" style="shape-rendering:geometricPrecision; text-rendering:geometricPrecision; image-rendering:optimizeQuality; fill-rule:evenodd; clip-rule:evenodd"
viewBox="0 0 26000 26000"
 xmlns:xlink="http://www.w3.org/1999/xlink">
 <defs>
  <style type="text/css">
   <![CDATA[
    .fil0 {fill:none}
    .fil1 {fill:black}
   ]]>
  </style>
 </defs>
 <g id="Layer_x0020_1">
  <metadata id="CorelCorpID_0Corel-Layer"/>
  <g id="_2280451095024">
   <rect class="fil0" width="26000" height="26000"/>
   <path class="fil1" d="M20902 20338l-15803 0 0 -9875 2260 -4801 4237 0 2808 0 4238 0 2260 4801 0 9875zm-5368 -4520l-5068 0 0 -5232 -4802 0 0 9187 14673 0 0 -9187 -4803 0 0 5232zm-4964 -5797l893 -3794 -3747 0 -1786 3794 4640 0zm3967 -3794l893 3794 4641 0 -1786 -3794 -3748 0zm-3506 9026l3938 0 0 -4667 -3938 0 0 4667zm3819 -5232l-803 -3794 -2094 0 -803 3794 3700 0z"/>
  </g>
 </g>
</svg>
