<?xml version="1.0" encoding="UTF-8"?>
<!DOCTYPE svg PUBLIC "-//W3C//DTD SVG 1.1//EN" "http://www.w3.org/Graphics/SVG/1.1/DTD/svg11.dtd">
<!-- Creator: CorelDRAW X7 -->
<svg xmlns="http://www.w3.org/2000/svg" xml:space="preserve" width="100%" height="100%" version="1.1" style="shape-rendering:geometricPrecision; text-rendering:geometricPrecision; image-rendering:optimizeQuality; fill-rule:evenodd; clip-rule:evenodd"
viewBox="0 0 26000 26000"
 xmlns:xlink="http://www.w3.org/1999/xlink">
 <defs>
  <style type="text/css">
   <![CDATA[
    .fil0 {fill:none}
    .fil1 {fill:black}
   ]]>
  </style>
 </defs>
 <g id="Layer_x0020_1">
  <metadata id="CorelCorpID_0Corel-Layer"/>
  <g id="_2280495520096">
   <rect class="fil0" width="26000" height="26000"/>
   <path class="fil1" d="M20901 8203l0 -1976 -15802 0 0 1976 15802 0zm-11150 6485l6498 0 0 -565 -6498 0 0 565zm0 1695l6498 0 0 -565 -6498 0 0 565zm0 1695l6498 0 0 -565 -6498 0 0 565zm11151 -9310l0 11570 -15803 0 0 -11570 -565 0 0 -3106 16932 0 0 3106 -564 0zm-565 0l-14673 0 0 11005 14673 0 0 -11005z"/>
  </g>
 </g>
</svg>
