<?xml version="1.0" encoding="UTF-8"?>
<!DOCTYPE svg PUBLIC "-//W3C//DTD SVG 1.1//EN" "http://www.w3.org/Graphics/SVG/1.1/DTD/svg11.dtd">
<!-- Creator: CorelDRAW X7 -->
<svg xmlns="http://www.w3.org/2000/svg" xml:space="preserve" width="100%" height="100%" version="1.1" style="shape-rendering:geometricPrecision; text-rendering:geometricPrecision; image-rendering:optimizeQuality; fill-rule:evenodd; clip-rule:evenodd"
viewBox="0 0 2600 2600"
 xmlns:xlink="http://www.w3.org/1999/xlink">
 <defs>
  <style type="text/css">
   <![CDATA[
    .fil0 {fill:none}
    .fil1 {fill:black}
   ]]>
  </style>
 </defs>
 <g id="Layer_x0020_1">
  <metadata id="CorelCorpID_0Corel-Layer"/>
  <g id="_2307280413440">
   <rect class="fil0" width="2600" height="2600"/>
   <path class="fil1" d="M397 2034l1806 0 0 -1468 -1806 0 0 1468zm1129 -311l57 0 0 -846 -57 0 0 846zm-848 0l57 0 0 -846 -57 0 0 846zm509 0l56 0 0 -113 -56 0 0 113zm56 -225l0 -621 -56 0 0 621 56 0zm-226 225l57 0 0 -113 -57 0 0 113zm57 -225l0 -621 -57 0 0 621 57 0zm-226 225l56 0 0 -846 -56 0 0 846zm509 0l56 0 0 -846 -56 0 0 846zm508 0l57 0 0 -846 -57 0 0 846zm-169 0l56 0 0 -113 -56 0 0 113zm56 -225l0 -621 -56 0 0 621 56 0zm-1299 479l0 -1008 0 -121 0 -56 0 -169 1694 0 0 169 0 56 0 121 0 1008 -1694 0z"/>
  </g>
 </g>
</svg>
