<?xml version="1.0" encoding="UTF-8"?>
<!DOCTYPE svg PUBLIC "-//W3C//DTD SVG 1.1//EN" "http://www.w3.org/Graphics/SVG/1.1/DTD/svg11.dtd">
<!-- Creator: CorelDRAW X7 -->
<svg xmlns="http://www.w3.org/2000/svg" xml:space="preserve" width="100%" height="100%" version="1.1" style="shape-rendering:geometricPrecision; text-rendering:geometricPrecision; image-rendering:optimizeQuality; fill-rule:evenodd; clip-rule:evenodd"
viewBox="0 0 26000 26000"
 xmlns:xlink="http://www.w3.org/1999/xlink">
 <defs>
  <style type="text/css">
   <![CDATA[
    .fil0 {fill:none}
    .fil1 {fill:black}
   ]]>
  </style>
 </defs>
 <g id="Layer_x0020_1">
  <metadata id="CorelCorpID_0Corel-Layer"/>
  <g id="_2280365338288">
   <rect class="fil0" width="26000" height="26000"/>
   <path class="fil1" d="M20902 20338l-15804 0 0 -9875 2260 -4801 11284 0 2260 4801 0 9875zm-10022 -7501l4240 0c156,0 298,64 401,167 103,104 168,246 168,402 0,156 -65,298 -168,401 -103,104 -245,168 -401,168l-4240 0c-156,0 -298,-64 -401,-168 -103,-103 -168,-245 -168,-401 0,-156 65,-298 168,-402 103,-103 245,-167 401,-167zm-794 -226c-204,204 -331,485 -331,795 0,310 127,591 331,795 203,203 485,330 794,330l4240 0c309,0 591,-127 794,-330 204,-204 331,-485 331,-795 0,-310 -127,-591 -331,-795 -203,-204 -485,-330 -794,-330l-4240 0c-309,0 -591,126 -794,330zm-4157 -2590l14142 0 -1787 -3794 -10568 0 -1787 3794zm14408 565l-14674 0 0 9187 14674 0 0 -9187z"/>
  </g>
 </g>
</svg>
