<?xml version="1.0" encoding="UTF-8"?>
<!DOCTYPE svg PUBLIC "-//W3C//DTD SVG 1.1//EN" "http://www.w3.org/Graphics/SVG/1.1/DTD/svg11.dtd">
<!-- Creator: CorelDRAW X7 -->
<svg xmlns="http://www.w3.org/2000/svg" xml:space="preserve" width="100%" height="100%" version="1.1" style="shape-rendering:geometricPrecision; text-rendering:geometricPrecision; image-rendering:optimizeQuality; fill-rule:evenodd; clip-rule:evenodd"
viewBox="0 0 26000 26000"
 xmlns:xlink="http://www.w3.org/1999/xlink">
 <defs>
  <style type="text/css">
   <![CDATA[
    .fil0 {fill:none}
    .fil1 {fill:black;fill-rule:nonzero}
   ]]>
  </style>
 </defs>
 <g id="Layer_x0020_1">
  <metadata id="CorelCorpID_0Corel-Layer"/>
  <g id="_2280500354432">
   <rect class="fil0" width="26000" height="26000"/>
   <path class="fil1" d="M6034 14129l6684 0 0 -7902 -4491 0 -2193 7902zm4560 2819c0,39 8,76 21,109 14,34 36,66 63,93 28,27 60,49 94,64 32,13 69,21 108,21l4240 0c39,0 76,-8 108,-21 34,-15 66,-37 94,-64 52,-52 84,-124 84,-202 0,-39 -8,-76 -21,-108 -14,-34 -36,-66 -63,-93 -28,-28 -60,-50 -94,-64 -32,-13 -69,-21 -108,-21l-4240 0c-39,0 -76,8 -108,21 -34,14 -66,36 -94,64 -52,52 -84,123 -84,201zm-500 325c-42,-101 -65,-211 -65,-325 0,-234 96,-447 250,-601 78,-78 172,-141 277,-185 100,-42 210,-65 324,-65l4240 0c114,0 224,23 324,65 105,44 199,107 277,185 78,78 141,172 185,277 42,101 65,211 65,324 0,234 -96,447 -250,602 -78,77 -172,141 -277,184 -100,42 -210,66 -324,66l-4240 0c-114,0 -224,-24 -324,-66 -105,-43 -199,-107 -277,-184 -78,-78 -141,-172 -185,-277zm-4149 -2579l0 5079 14110 0 0 -5079 -14110 0zm12256 -9032c805,2905 1612,5809 2419,8714l0 5962 -15240 0 0 0 0 -5962 2419 -8714c3467,0 6935,0 10402,0zm-4918 8467l6684 0 -2193 -7902 -4491 0 0 7902z"/>
  </g>
 </g>
</svg>
