<?xml version="1.0" encoding="UTF-8"?>
<!DOCTYPE svg PUBLIC "-//W3C//DTD SVG 1.1//EN" "http://www.w3.org/Graphics/SVG/1.1/DTD/svg11.dtd">
<!-- Creator: CorelDRAW X7 -->
<svg xmlns="http://www.w3.org/2000/svg" xml:space="preserve" width="100%" height="100%" version="1.1" style="shape-rendering:geometricPrecision; text-rendering:geometricPrecision; image-rendering:optimizeQuality; fill-rule:evenodd; clip-rule:evenodd"
viewBox="0 0 2600 2600"
 xmlns:xlink="http://www.w3.org/1999/xlink">
 <defs>
  <style type="text/css">
   <![CDATA[
    .fil0 {fill:none}
    .fil1 {fill:black}
   ]]>
  </style>
 </defs>
 <g id="Layer_x0020_1">
  <metadata id="CorelCorpID_0Corel-Layer"/>
  <g id="_2724847848928">
   <rect class="fil0" width="2600" height="2600"/>
   <path class="fil1" d="M397 2059l0 57c602,0 1204,0 1806,0 0,-395 0,-789 0,-1184l-226 0 0 -193 -648 0 0 -86 225 0c0,-56 0,-112 0,-169 -94,0 -188,0 -281,0l0 255 -650 0 0 193 -226 0c0,376 0,752 0,1127zm170 -958l1466 0 0 57 -1466 0 0 -57zm1466 282l-113 0 0 -169 113 0 0 169zm-169 0l-113 0 0 -169 113 0 0 169zm-169 0l-113 0 0 -169 113 0 0 169zm-169 0l-113 0 0 -169 113 0 0 169zm-170 0l-112 0 0 -169 112 0 0 169zm-169 0l-113 0 0 -169 113 0 0 169zm-169 0l-113 0 0 -169 113 0 0 169zm-169 0l-113 0 0 -169 113 0 0 169zm1184 226l-113 0 0 -170 113 0 0 170zm-169 0l-113 0 0 -170 113 0 0 170zm-169 0l-113 0 0 -170 113 0 0 170zm-169 0l-113 0 0 -170 113 0 0 170zm-170 0l-112 0 0 -170 112 0 0 170zm-169 0l-113 0 0 -170 113 0 0 170zm-169 0l-113 0 0 -170 113 0 0 170zm-169 0l-113 0 0 -170 113 0 0 170zm1184 225l-113 0 0 -169 113 0 0 169zm-169 0l-113 0 0 -169 113 0 0 169zm-169 0l-113 0 0 -169 113 0 0 169zm-677 0l-113 0 0 -169 113 0 0 169zm-169 0l-113 0 0 -169 113 0 0 169zm-169 -451l-113 0 0 -169 113 0 0 169zm0 226l-113 0 0 -170 113 0 0 170zm0 225l-113 0 0 -169 113 0 0 169zm1466 -845c0,357 0,713 0,1070 -207,0 -414,0 -621,0l0 -394 -451 0 1 394c-207,0 -414,0 -621,0 0,-357 0,-713 0,-1070l1692 0zm-1466 -57l1240 0 0 -137 -1240 0 0 137zm818 -335l0 -56 -169 0 0 56 169 0zm-367 1462l0 -338 141 0 0 338 -141 0zm197 0l0 -338 141 0 0 338 -141 0z"/>
  </g>
 </g>
</svg>
