<?xml version="1.0" encoding="UTF-8"?>
<!DOCTYPE svg PUBLIC "-//W3C//DTD SVG 1.1//EN" "http://www.w3.org/Graphics/SVG/1.1/DTD/svg11.dtd">
<!-- Creator: CorelDRAW X7 -->
<svg xmlns="http://www.w3.org/2000/svg" xml:space="preserve" width="100%" height="100%" version="1.1" style="shape-rendering:geometricPrecision; text-rendering:geometricPrecision; image-rendering:optimizeQuality; fill-rule:evenodd; clip-rule:evenodd"
viewBox="0 0 2600 2600"
 xmlns:xlink="http://www.w3.org/1999/xlink">
 <defs>
  <style type="text/css">
   <![CDATA[
    .fil0 {fill:none}
    .fil1 {fill:black}
   ]]>
  </style>
 </defs>
 <g id="Layer_x0020_1">
  <metadata id="CorelCorpID_0Corel-Layer"/>
  <g id="_2724757427360">
   <rect class="fil0" width="2600" height="2600"/>
   <path class="fil1" d="M906 540l0 282 -114 0 0 -56 -56 0 0 56 -113 0 0 -56 -56 0 0 56c-57,0 -113,0 -170,0l0 1294c602,0 1204,0 1806,0 0,-432 0,-863 0,-1294l-170 0 0 -56 -56 0 0 56 -113 0 0 -56 -56 0 0 56 -114 0 0 -282 -282 0 0 -56 -56 0 0 56 -112 0 0 -56 -57 0 0 56 -281 0zm1099 929l56 0 0 169 -56 0 0 -169zm0 -225l56 0 0 169 -56 0 0 -169zm-113 225l56 0 0 169 -56 0 0 -169zm0 -225l56 0 0 169 -56 0 0 -169zm-112 225l56 0 0 169 -56 0 0 -169zm0 -225l56 0 0 169 -56 0 0 -169zm225 -225l56 0 0 168 -56 0 0 -168zm-113 0l56 0 0 168 -56 0 0 -168zm-112 0l56 0 0 168 -56 0 0 -168zm-283 394l56 0 0 168 -56 0 0 -168zm0 -226l56 0 0 169 -56 0 0 -169zm0 -225l56 0 0 169 -56 0 0 -169zm-113 451l56 0 0 168 -56 0 0 -168zm0 -226l56 0 0 169 -56 0 0 -169zm0 -225l56 0 0 169 -56 0 0 -169zm-112 451l56 0 0 168 -56 0 0 -168zm0 -226l56 0 0 169 -56 0 0 -169zm0 -225l56 0 0 169 -56 0 0 -169zm-113 451l56 0 0 168 -56 0 0 -168zm0 -226l56 0 0 169 -56 0 0 -169zm0 -225l56 0 0 169 -56 0 0 -169zm-112 451l56 0 0 168 -56 0 0 -168zm0 -226l56 0 0 169 -56 0 0 -169zm0 -225l56 0 0 169 -56 0 0 -169zm450 -225l56 0 0 169 -56 0 0 -169zm-113 0l56 0 0 169 -56 0 0 -169zm-112 0l56 0 0 169 -56 0 0 -169zm-113 0l56 0 0 169 -56 0 0 -169zm-112 0l56 0 0 169 -56 0 0 -169zm-283 732l56 0 0 169 -56 0 0 -169zm0 -225l56 0 0 169 -56 0 0 -169zm-112 225l56 0 0 169 -56 0 0 -169zm0 -225l56 0 0 169 -56 0 0 -169zm-113 225l56 0 0 169 -56 0 0 -169zm0 -225l56 0 0 169 -56 0 0 -169zm225 -225l56 0 0 168 -56 0 0 -168zm-112 0l56 0 0 168 -56 0 0 -168zm-113 0l56 0 0 168 -56 0 0 -168zm508 675l0 365 -85 0 0 -1462 675 0 0 1462 -84 0 0 -365c-169,0 -337,0 -506,0zm56 56l169 0 0 309 -169 0 0 -309zm225 0l169 0 0 309 -169 0 0 -309zm-874 141l452 0 0 168 -452 0 0 -168zm452 -57l-452 0 0 -956 452 0 0 956zm788 57l452 0 0 168 -452 0 0 -168zm452 -57l-452 0 0 -956 452 0 0 956z"/>
  </g>
 </g>
</svg>
