<?xml version="1.0" encoding="UTF-8"?>
<!DOCTYPE svg PUBLIC "-//W3C//DTD SVG 1.1//EN" "http://www.w3.org/Graphics/SVG/1.1/DTD/svg11.dtd">
<!-- Creator: CorelDRAW X7 -->
<svg xmlns="http://www.w3.org/2000/svg" xml:space="preserve" width="100%" height="100%" version="1.1" style="shape-rendering:geometricPrecision; text-rendering:geometricPrecision; image-rendering:optimizeQuality; fill-rule:evenodd; clip-rule:evenodd"
viewBox="0 0 2600 2600"
 xmlns:xlink="http://www.w3.org/1999/xlink">
 <defs>
  <style type="text/css">
   <![CDATA[
    .fil0 {fill:none}
    .fil1 {fill:black}
   ]]>
  </style>
 </defs>
 <g id="Layer_x0020_1">
  <metadata id="CorelCorpID_0Corel-Layer"/>
  <g id="_2724746353648">
   <rect class="fil0" width="2600" height="2600"/>
   <path class="fil1" d="M454 2061l0 -674 593 297 0 -289 578 289 0 -289 521 261 0 405c-564,0 -1128,0 -1692,0zm882 -76l0 -173 0 0 -56 0 0 173 56 0zm347 0l0 -173 -56 0 0 173 56 0zm-173 0l0 -173 -57 0 0 173 57 0zm-347 -173l-57 0 0 173 57 0 0 -173zm-174 0l-56 0 0 173 56 0 0 -173zm-173 0l-57 0 0 173 57 0 0 -173zm-173 0l-57 0 0 173 57 0 0 -173zm-246 -517l422 212 57 -1024 285 0 58 935 180 89 56 -764 283 0 59 675 406 203 0 496 -1806 0 0 -822zm711 -755l-178 0 -3 58 185 0 -4 -58zm7 115l-191 0 -4 59 199 0 -4 -59zm8 116l-206 0 -42 764 116 57 0 -288 170 85 -38 -618zm564 29l-179 0 -5 59 189 0 -5 -59zm10 115l-198 0 -4 59 207 0 -5 -59zm10 116l-217 0 -37 504 115 57 0 -288 170 84 -31 -357z"/>
  </g>
 </g>
</svg>
