<?xml version="1.0" encoding="UTF-8"?>
<!DOCTYPE svg PUBLIC "-//W3C//DTD SVG 1.1//EN" "http://www.w3.org/Graphics/SVG/1.1/DTD/svg11.dtd">
<!-- Creator: CorelDRAW X7 -->
<svg xmlns="http://www.w3.org/2000/svg" xml:space="preserve" width="100%" height="100%" version="1.1" style="shape-rendering:geometricPrecision; text-rendering:geometricPrecision; image-rendering:optimizeQuality; fill-rule:evenodd; clip-rule:evenodd"
viewBox="0 0 2600 2600"
 xmlns:xlink="http://www.w3.org/1999/xlink">
 <defs>
  <style type="text/css">
   <![CDATA[
    .fil0 {fill:none}
    .fil1 {fill:black}
   ]]>
  </style>
 </defs>
 <g id="Layer_x0020_1">
  <metadata id="CorelCorpID_0Corel-Layer"/>
  <rect class="fil0" width="2600" height="2600"/>
  <path class="fil1" d="M589 926c102,0 193,-60 237,-146 43,86 134,146 237,146 103,0 193,-60 237,-146 44,86 133,146 237,146 103,0 193,-60 237,-146 44,86 133,146 236,146 31,0 60,-5 87,-14l0 1112 -95 0 0 -1025 -425 0 0 1025 -1074 0 0 -1112c27,9 56,14 86,14zm892 73l-882 0 0 929 882 0 0 -929zm-825 872l0 -816 769 0 0 816 -769 0zm407 -1003c-105,0 -192,-77 -206,-180l412 0c-13,103 -101,180 -206,180zm1216 -237l-1958 0c7,110 27,190 124,253l0 1198 1709 0 0 -1198c99,-64 118,-143 125,-253zm-644 1240l0 -816 309 0 0 816 -309 0zm0 57l309 0 0 96 -309 0 0 -96zm-98 -1060c-106,0 -193,-77 -207,-180l413 0c-13,103 -101,180 -206,180zm-742 -180c-15,103 -101,180 -206,180 -105,0 -192,-77 -206,-180l412 0zm1215 180c-105,0 -192,-77 -206,-180l413 0c-13,103 -102,180 -207,180z"/>
 </g>
</svg>
