<?xml version="1.0" encoding="UTF-8"?>
<!DOCTYPE svg PUBLIC "-//W3C//DTD SVG 1.1//EN" "http://www.w3.org/Graphics/SVG/1.1/DTD/svg11.dtd">
<!-- Creator: CorelDRAW X7 -->
<svg xmlns="http://www.w3.org/2000/svg" xml:space="preserve" width="100%" height="100%" version="1.1" style="shape-rendering:geometricPrecision; text-rendering:geometricPrecision; image-rendering:optimizeQuality; fill-rule:evenodd; clip-rule:evenodd"
viewBox="0 0 2600 2600"
 xmlns:xlink="http://www.w3.org/1999/xlink">
 <defs>
  <style type="text/css">
   <![CDATA[
    .fil0 {fill:none}
    .fil1 {fill:black}
   ]]>
  </style>
 </defs>
 <g id="Layer_x0020_1">
  <metadata id="CorelCorpID_0Corel-Layer"/>
  <g id="_2724831008944">
   <rect class="fil0" width="2600" height="2600"/>
   <path class="fil1" d="M656 2104l-5 0 0 -1608 1298 0 0 1608c-431,0 -862,0 -1293,0zm813 -56l0 -282 -338 0 0 282c-141,0 -283,0 -424,0l0 -1496 1186 0 0 1496c-141,0 -283,0 -424,0zm-282 0l0 -226 226 0 0 226 -226 0zm-310 -734l0 339 282 0 0 -339 -282 0zm56 282l0 -226 169 0 0 226 -169 0zm508 -282l0 339 282 0 0 -339 -282 0zm57 282l0 -226 169 0 0 226 -169 0zm-57 -846l0 338 282 0 0 -338 -282 0zm57 282l0 -226 169 0 0 226 -169 0zm-621 -282l0 338 282 0 0 -338 -282 0zm56 282l0 -226 169 0 0 226 -169 0z"/>
  </g>
 </g>
</svg>
