<?xml version="1.0" encoding="UTF-8"?>
<!DOCTYPE svg PUBLIC "-//W3C//DTD SVG 1.1//EN" "http://www.w3.org/Graphics/SVG/1.1/DTD/svg11.dtd">
<!-- Creator: CorelDRAW X7 -->
<svg xmlns="http://www.w3.org/2000/svg" xml:space="preserve" width="100%" height="100%" version="1.1" style="shape-rendering:geometricPrecision; text-rendering:geometricPrecision; image-rendering:optimizeQuality; fill-rule:evenodd; clip-rule:evenodd"
viewBox="0 0 2600 2600"
 xmlns:xlink="http://www.w3.org/1999/xlink">
 <defs>
  <style type="text/css">
   <![CDATA[
    .fil0 {fill:none}
    .fil1 {fill:black}
   ]]>
  </style>
 </defs>
 <g id="Layer_x0020_1">
  <metadata id="CorelCorpID_0Corel-Layer"/>
  <g id="_2724834361776">
   <rect class="fil0" width="2600" height="2600"/>
   <path class="fil1" d="M516 1947l0 -56c523,0 1045,0 1568,0l0 56 -1568 0zm1625 57l0 55 -1682 0 0 -55 1682 0zm-1569 -170l113 0c0,-234 0,-468 0,-703l-113 0c0,235 0,469 0,703zm338 0l113 0c0,-234 0,-468 0,-703l-113 0c0,235 0,469 0,703zm339 0l102 0c0,-234 0,-468 0,-703l-102 0c0,235 0,469 0,703zm328 0l113 0c0,-225 0,-450 0,-675l0 -28 -113 0c0,235 0,469 0,703zm338 0l113 0c0,-234 0,-468 0,-703l-113 0c0,235 0,469 0,703zm-1252 -759l637 -518 637 518 -1274 0zm637 -591l-785 638 0 712 -56 0 0 113 -57 0 0 169 1796 0 0 -169 -57 0 0 -113 -56 0 0 -712 -785 -638zm559 647l-113 0 0 703 113 0 0 -703zm-339 0l-113 0 0 703 113 0 0 -703zm-779 0l113 0 0 703 -113 0 0 -703zm339 0l113 0 0 703 -113 0 0 -703z"/>
  </g>
 </g>
</svg>
