<?xml version="1.0" encoding="UTF-8"?>
<!DOCTYPE svg PUBLIC "-//W3C//DTD SVG 1.1//EN" "http://www.w3.org/Graphics/SVG/1.1/DTD/svg11.dtd">
<!-- Creator: CorelDRAW X7 -->
<svg xmlns="http://www.w3.org/2000/svg" xml:space="preserve" width="100%" height="100%" version="1.1" style="shape-rendering:geometricPrecision; text-rendering:geometricPrecision; image-rendering:optimizeQuality; fill-rule:evenodd; clip-rule:evenodd"
viewBox="0 0 2600 2600"
 xmlns:xlink="http://www.w3.org/1999/xlink">
 <defs>
  <style type="text/css">
   <![CDATA[
    .fil0 {fill:none}
    .fil1 {fill:black}
   ]]>
  </style>
 </defs>
 <g id="Layer_x0020_1">
  <metadata id="CorelCorpID_0Corel-Layer"/>
  <g id="_2724643929312">
   <rect class="fil0" width="2600" height="2600"/>
   <path class="fil1" d="M447 1914l120 119 119 120 120 -120 110 110 327 -326 802 -520 -217 -218 43 -216 -67 -67 -67 -67 -216 43 -218 -217 -520 802 -326 327 110 110 -120 120zm1293 -1289l44 -164 -54 -14 -44 163 54 15zm250 289l163 -44 -14 -54 -164 44 15 54zm-86 -178l119 -119 -40 -40 -119 119 40 40zm-1297 1257l-80 -79 80 -80 79 80 80 79 -80 80 -79 -80zm119 -119l-189 -190 303 -303 477 -733 317 318 318 317 -733 477 -303 303 -190 -189zm948 -948l-105 -106 149 -30 46 46 46 46 -30 149 -106 -105z"/>
  </g>
 </g>
</svg>
