<?xml version="1.0" encoding="UTF-8"?>
<!DOCTYPE svg PUBLIC "-//W3C//DTD SVG 1.1//EN" "http://www.w3.org/Graphics/SVG/1.1/DTD/svg11.dtd">
<!-- Creator: CorelDRAW X7 -->
<svg xmlns="http://www.w3.org/2000/svg" xml:space="preserve" width="100%" height="100%" version="1.1" style="shape-rendering:geometricPrecision; text-rendering:geometricPrecision; image-rendering:optimizeQuality; fill-rule:evenodd; clip-rule:evenodd"
viewBox="0 0 2600 2600"
 xmlns:xlink="http://www.w3.org/1999/xlink">
 <defs>
  <style type="text/css">
   <![CDATA[
    .fil0 {fill:none}
    .fil1 {fill:black}
   ]]>
  </style>
 </defs>
 <g id="Layer_x0020_1">
  <metadata id="CorelCorpID_0Corel-Layer"/>
  <g id="_2724952663472">
   <rect class="fil0" width="2600" height="2600"/>
   <path class="fil1" d="M284 1074l0 282 0 170 169 0 0 155 462 0 936 200 0 -308 183 -122 0 -95 0 -207 -183 -122 0 -308 -936 200 -462 0 0 155 -169 0zm1826 60l146 -85 -28 -49 -147 85 29 49zm-29 381l147 85 28 -49 -146 -85 -29 49zm66 -187l169 0 0 -56 -169 0 0 56zm-1807 28l0 -225 113 0 0 225 0 113 -113 0 0 -113zm170 0l0 -381 428 0 856 -180 0 561 0 449 -856 -180 -428 0 0 -269zm1341 0l0 -262 126 85 0 177 0 65 -126 84 0 -149z"/>
  </g>
 </g>
</svg>
