<?xml version="1.0" encoding="UTF-8"?>
<!DOCTYPE svg PUBLIC "-//W3C//DTD SVG 1.1//EN" "http://www.w3.org/Graphics/SVG/1.1/DTD/svg11.dtd">
<!-- Creator: CorelDRAW X7 -->
<svg xmlns="http://www.w3.org/2000/svg" xml:space="preserve" width="100%" height="100%" version="1.1" style="shape-rendering:geometricPrecision; text-rendering:geometricPrecision; image-rendering:optimizeQuality; fill-rule:evenodd; clip-rule:evenodd"
viewBox="0 0 2600 2600"
 xmlns:xlink="http://www.w3.org/1999/xlink">
 <defs>
  <style type="text/css">
   <![CDATA[
    .fil1 {fill:none}
    .fil0 {fill:black}
   ]]>
  </style>
 </defs>
 <g id="Layer_x0020_1">
  <metadata id="CorelCorpID_0Corel-Layer"/>
  <g id="_2307272591280">
   <path class="fil0" d="M1159 397l0 113 -107 0 -21 85 -380 0 0 1608 1298 0 0 -1608 -380 0 -21 -85 -107 0 0 -113 -282 0zm-317 1461l91 91c13,-13 27,-27 40,-40l103 -103 -40 -40 -103 103 -51 -51 -40 40zm0 -282l91 91c13,-13 27,-27 40,-40l103 -103 -40 -40 -103 103 -51 -51 -40 40zm0 -283l91 92c13,-13 27,-27 40,-40l103 -103 -40 -40 -103 103 -51 -52 -40 40zm0 -282l91 91c13,-13 27,-26 40,-39l103 -103 -40 -40 -103 103 -51 -52 -40 40zm260 882l621 0 0 56 -621 0 0 -56zm0 -283l621 0 0 57 -621 0 0 -57zm0 -282l621 0 0 57 -621 0 0 -57zm0 -282l621 0 0 56 -621 0 0 -56zm516 -254l-35 -141 310 0 0 1496 -1186 0 0 -1496 310 0 -35 141 636 0zm-114 -226l42 170 -492 0 42 -170 119 0 0 -113 170 0 0 113 119 0z"/>
   <rect class="fil1" width="2600" height="2600"/>
  </g>
 </g>
</svg>
