<?xml version="1.0" encoding="UTF-8"?>
<!DOCTYPE svg PUBLIC "-//W3C//DTD SVG 1.1//EN" "http://www.w3.org/Graphics/SVG/1.1/DTD/svg11.dtd">
<!-- Creator: CorelDRAW X7 -->
<svg xmlns="http://www.w3.org/2000/svg" xml:space="preserve" width="100%" height="100%" version="1.1" style="shape-rendering:geometricPrecision; text-rendering:geometricPrecision; image-rendering:optimizeQuality; fill-rule:evenodd; clip-rule:evenodd"
viewBox="0 0 2600 2600"
 xmlns:xlink="http://www.w3.org/1999/xlink">
 <defs>
  <style type="text/css">
   <![CDATA[
    .fil0 {fill:none}
    .fil1 {fill:black}
   ]]>
  </style>
 </defs>
 <g id="Layer_x0020_1">
  <metadata id="CorelCorpID_0Corel-Layer"/>
  <g id="_2307166794496">
   <rect class="fil0" width="2600" height="2600"/>
   <path class="fil1" d="M623 809l0 1394 1354 0 0 -1806 -943 0 -411 412zm247 1049l91 91c14,-13 27,-27 40,-40l103 -103 -40 -40 -103 103 -51 -51 -40 40zm0 -282l91 91c14,-13 27,-27 40,-40l103 -103 -40 -40 -103 103 -51 -51 -40 40zm0 -283l91 92c14,-13 27,-27 40,-40l103 -103 -40 -40 -103 103 -51 -52 -40 40zm0 -282l91 91c14,-13 27,-26 40,-39l103 -103 -40 -40 -103 103 -51 -52 -40 40zm261 882l621 0 0 56 -621 0 0 -56zm0 -283l621 0 0 57 -621 0 0 -57zm0 -282l621 0 0 57 -621 0 0 -57zm0 -282l621 0 0 56 -621 0 0 -56zm-113 -553l0 299 -299 0 299 -299zm903 1654l-1242 0 0 -1298 395 0 0 -396 847 0 0 1694z"/>
  </g>
 </g>
</svg>
