<?xml version="1.0" encoding="UTF-8"?>
<!DOCTYPE svg PUBLIC "-//W3C//DTD SVG 1.1//EN" "http://www.w3.org/Graphics/SVG/1.1/DTD/svg11.dtd">
<!-- Creator: CorelDRAW X7 -->
<svg xmlns="http://www.w3.org/2000/svg" xml:space="preserve" width="100%" height="100%" version="1.1" style="shape-rendering:geometricPrecision; text-rendering:geometricPrecision; image-rendering:optimizeQuality; fill-rule:evenodd; clip-rule:evenodd"
viewBox="0 0 2600 2600"
 xmlns:xlink="http://www.w3.org/1999/xlink">
 <defs>
  <style type="text/css">
   <![CDATA[
    .fil1 {fill:none}
    .fil0 {fill:black}
   ]]>
  </style>
 </defs>
 <g id="Layer_x0020_1">
  <metadata id="CorelCorpID_0Corel-Layer"/>
  <g id="_2724844946016">
   <path class="fil0" d="M594 978l0 1225 1158 0 0 -1580 -802 0 -356 355zm1186 943l0 56 226 0 0 -1580 -802 0 -150 149 40 40 133 -133 722 0 0 1468 -169 0zm-847 -1202l0 242 -242 0 242 -242zm762 1428l-1044 0 0 -1129 339 0 0 -339 705 0 0 1468z"/>
   <rect class="fil1" width="2600" height="2600"/>
  </g>
 </g>
</svg>
