<?xml version="1.0" encoding="UTF-8"?>
<!DOCTYPE svg PUBLIC "-//W3C//DTD SVG 1.1//EN" "http://www.w3.org/Graphics/SVG/1.1/DTD/svg11.dtd">
<!-- Creator: CorelDRAW X7 -->
<svg xmlns="http://www.w3.org/2000/svg" xml:space="preserve" width="100%" height="100%" version="1.1" style="shape-rendering:geometricPrecision; text-rendering:geometricPrecision; image-rendering:optimizeQuality; fill-rule:evenodd; clip-rule:evenodd"
viewBox="0 0 2600 2600"
 xmlns:xlink="http://www.w3.org/1999/xlink">
 <defs>
  <style type="text/css">
   <![CDATA[
    .fil0 {fill:none}
    .fil1 {fill:black}
   ]]>
  </style>
 </defs>
 <g id="Layer_x0020_1">
  <metadata id="CorelCorpID_0Corel-Layer"/>
  <g id="_2724828432912">
   <rect class="fil0" width="2600" height="2600"/>
   <path class="fil1" d="M1921 397l-1242 0 0 597 -282 118 0 1091 1806 0 0 -1091 -282 -118 0 -597zm-740 822c-42,-17 -74,-44 -96,-81 -22,-37 -33,-80 -33,-131 0,-48 11,-93 33,-136 22,-42 53,-74 93,-97 40,-22 85,-34 133,-34 43,0 82,9 117,27 35,18 61,42 79,72 17,30 26,62 26,97 0,29 -7,58 -20,85 -14,28 -33,50 -56,67 -18,13 -33,19 -44,19 -5,0 -11,-2 -15,-6 -4,-4 -6,-9 -6,-15 0,-3 3,-19 9,-48l45 -208 -56 0 -10 48c-12,-19 -26,-33 -43,-43 -16,-9 -33,-14 -51,-14 -24,0 -48,8 -73,25 -25,16 -46,41 -63,74 -16,33 -25,66 -25,99 0,27 5,51 16,73 11,23 25,39 43,50 17,11 35,16 53,16 17,0 34,-4 51,-14 16,-9 31,-22 45,-37 1,12 3,21 6,27 4,8 10,14 19,18 9,5 20,7 35,7 44,0 85,-21 123,-63 42,-46 63,-99 63,-159 0,-42 -10,-81 -30,-117 -24,-41 -56,-72 -97,-93 -41,-21 -87,-32 -138,-32 -66,0 -123,15 -169,45 -46,30 -82,72 -108,128 -20,46 -31,94 -31,144 0,45 9,88 26,127 14,30 35,58 62,81 27,24 60,41 99,53 39,12 81,18 127,18 50,0 93,-7 128,-20 35,-13 66,-31 91,-53 26,-23 44,-45 55,-67l-56 0c-18,26 -46,49 -82,67 -37,18 -82,27 -137,27 -50,0 -97,-8 -138,-26zm21 -130c-13,-16 -20,-38 -20,-66 0,-18 3,-38 10,-59 7,-21 16,-39 27,-54 11,-15 22,-26 33,-33 12,-6 25,-10 38,-10 20,0 37,8 51,24 14,15 21,37 21,65 0,21 -4,42 -11,63 -8,21 -17,39 -29,52 -12,14 -24,24 -37,31 -13,7 -25,10 -36,10 -18,0 -33,-7 -47,-23zm663 -636l0 839 -565 354 -564 -354 0 -839 1129 0zm-1186 804l-193 -121 193 -81 0 202zm-226 890l0 -965 847 531 847 -531 0 965 -1694 0zm1661 -1011l-193 121 0 -202 193 81z"/>
  </g>
 </g>
</svg>
