<?xml version="1.0" encoding="UTF-8"?>
<!DOCTYPE svg PUBLIC "-//W3C//DTD SVG 1.1//EN" "http://www.w3.org/Graphics/SVG/1.1/DTD/svg11.dtd">
<!-- Creator: CorelDRAW X7 -->
<svg xmlns="http://www.w3.org/2000/svg" xml:space="preserve" width="100%" height="100%" version="1.1" style="shape-rendering:geometricPrecision; text-rendering:geometricPrecision; image-rendering:optimizeQuality; fill-rule:evenodd; clip-rule:evenodd"
viewBox="0 0 2600 2600"
 xmlns:xlink="http://www.w3.org/1999/xlink">
 <defs>
  <style type="text/css">
   <![CDATA[
    .fil0 {fill:none}
    .fil1 {fill:black}
   ]]>
  </style>
 </defs>
 <g id="Layer_x0020_1">
  <metadata id="CorelCorpID_0Corel-Layer"/>
  <g id="_2724833605248">
   <rect class="fil0" width="2600" height="2600"/>
   <path class="fil1" d="M1921 397l-1242 0 0 597 -282 118 0 1091 1806 0 0 -1091 -282 -118 0 -597zm-430 755l54 0c-18,44 -46,78 -84,103 -38,24 -84,36 -140,36 -56,0 -104,-11 -143,-33 -39,-22 -69,-55 -91,-97 -22,-43 -32,-94 -32,-154 0,-61 11,-117 35,-166 24,-48 55,-85 94,-109 38,-25 82,-37 131,-37 42,0 80,10 112,30 33,19 58,47 77,84 19,36 28,78 28,125 0,54 -14,103 -42,147 -33,51 -75,77 -126,77 -14,0 -24,-3 -32,-9 -7,-5 -12,-14 -15,-27 -19,24 -42,36 -69,36 -27,0 -50,-12 -69,-35 -19,-23 -29,-55 -29,-95 0,-39 8,-76 22,-110 15,-34 32,-58 52,-74 20,-15 41,-22 64,-22 15,0 28,3 40,10 11,7 20,18 27,32l6 -35 68 0 -39 222c-2,15 -3,24 -3,28 0,5 1,9 3,11 2,3 4,4 7,4 8,0 18,-6 31,-17 17,-16 31,-37 42,-63 11,-27 16,-54 16,-83 0,-35 -7,-66 -22,-94 -15,-29 -35,-50 -60,-64 -24,-14 -54,-21 -89,-21 -42,0 -79,10 -110,29 -31,20 -56,50 -75,91 -20,41 -29,88 -29,140 0,45 9,85 27,119 18,34 43,60 74,77 31,18 69,26 114,26 41,0 76,-6 105,-20 29,-14 53,-35 70,-62zm-274 -128c0,27 4,47 13,59 9,12 20,18 33,18 11,0 22,-4 32,-13 12,-11 23,-30 32,-57 10,-27 14,-54 14,-81 0,-24 -4,-41 -13,-54 -9,-12 -20,-18 -34,-18 -20,0 -37,11 -50,35 -18,33 -27,70 -27,111zm648 -571l0 839 -565 354 -564 -354 0 -839 1129 0zm-1186 804l-193 -121 193 -81 0 202zm-226 890l0 -965 847 531 847 -531 0 965 -1694 0zm1661 -1011l-193 121 0 -202 193 81z"/>
  </g>
 </g>
</svg>
