<?xml version="1.0" encoding="UTF-8"?>
<!DOCTYPE svg PUBLIC "-//W3C//DTD SVG 1.1//EN" "http://www.w3.org/Graphics/SVG/1.1/DTD/svg11.dtd">
<!-- Creator: CorelDRAW X7 -->
<svg xmlns="http://www.w3.org/2000/svg" xml:space="preserve" width="100%" height="100%" version="1.1" style="shape-rendering:geometricPrecision; text-rendering:geometricPrecision; image-rendering:optimizeQuality; fill-rule:evenodd; clip-rule:evenodd"
viewBox="0 0 2600 2600"
 xmlns:xlink="http://www.w3.org/1999/xlink">
 <defs>
  <style type="text/css">
   <![CDATA[
    .fil0 {fill:none}
    .fil1 {fill:black}
   ]]>
  </style>
 </defs>
 <g id="Layer_x0020_1">
  <metadata id="CorelCorpID_0Corel-Layer"/>
  <g id="_2307335827504">
   <rect class="fil0" width="2600" height="2600"/>
   <path class="fil1" d="M1780 397l-960 0 0 536 -423 0 0 960 423 0 0 310 960 0 0 -310 423 0 0 -960 -423 0 0 -536zm-762 1524l564 0 0 56 -564 0 0 -56zm0 -226l564 0 0 57 -564 0 0 -57zm-282 -564l113 0 0 56 -113 0 0 -56zm-170 0l113 0 0 56 -113 0 0 -56zm311 -678l846 0 0 480 -846 0 0 -480zm846 1694l-846 0 0 -621 846 0 0 621zm424 -1157l0 846 -367 0 0 -367 -960 0 0 367 -367 0 0 -846 1694 0z"/>
  </g>
 </g>
</svg>
