<?xml version="1.0" encoding="UTF-8"?>
<!DOCTYPE svg PUBLIC "-//W3C//DTD SVG 1.1//EN" "http://www.w3.org/Graphics/SVG/1.1/DTD/svg11.dtd">
<!-- Creator: CorelDRAW X7 -->
<svg xmlns="http://www.w3.org/2000/svg" xml:space="preserve" width="100%" height="100%" version="1.1" style="shape-rendering:geometricPrecision; text-rendering:geometricPrecision; image-rendering:optimizeQuality; fill-rule:evenodd; clip-rule:evenodd"
viewBox="0 0 26000 26000"
 xmlns:xlink="http://www.w3.org/1999/xlink">
 <defs>
  <style type="text/css">
   <![CDATA[
    .fil0 {fill:none}
    .fil1 {fill:black}
   ]]>
  </style>
 </defs>
 <g id="Layer_x0020_1">
  <metadata id="CorelCorpID_0Corel-Layer"/>
  <g id="_2354731115680">
   <rect class="fil0" width="26000" height="26000"/>
   <path class="fil1" d="M13000 3969c4993,0 9032,4038 9032,9031 0,4999 -4033,9032 -9032,9032 -4992,0 -9031,-4039 -9031,-9032 0,-4986 4045,-9031 9031,-9031zm2094 6532l0 -281c-6,-561 -224,-985 -561,-1271 -766,-661 -2343,-711 -3122,-44 -649,555 -767,1720 25,2213 642,399 1514,498 2349,698l1309 -1316 0 1zm-7884 8688l3303 -3303c75,81 156,162 237,237 517,455 1234,716 1970,779l0 1408 554 0 0 -1402c748,-37 1471,-280 2001,-742 854,-735 1141,-2119 567,-3104 -180,-311 -436,-554 -741,-741 -219,-138 -455,-244 -699,-325l4781 -4786c1477,1576 2288,3621 2288,5790 0,4681 -3790,8471 -8471,8471 -2169,0 -4214,-805 -5790,-2282l0 0zm3696 -3702l3060 -3054c299,87 586,199 842,355 230,144 423,324 554,555 437,748 200,1845 -449,2406 -978,841 -2836,804 -3795,-44 -75,-68 -144,-137 -212,-218zm7878 -8676l-3148 3147c-68,-610 -336,-1090 -741,-1433 -424,-362 -1010,-574 -1621,-636l0 -1409 -555 0 0 1397c-623,37 -1234,236 -1670,610 -935,798 -1016,2413 94,3098 629,393 1427,517 2187,686l-2730 2730c-118,-281 -187,-598 -187,-954l-554 0c0,524 118,985 330,1365l-3378 3378c-1465,-1576 -2275,-3621 -2275,-5790 0,-4681 3777,-8477 8464,-8477 2163,0 4213,823 5784,2288l0 0z"/>
  </g>
 </g>
</svg>
