<?xml version="1.0" encoding="UTF-8"?>
<!DOCTYPE svg PUBLIC "-//W3C//DTD SVG 1.1//EN" "http://www.w3.org/Graphics/SVG/1.1/DTD/svg11.dtd">
<!-- Creator: CorelDRAW X7 -->
<svg xmlns="http://www.w3.org/2000/svg" xml:space="preserve" width="100%" height="100%" version="1.1" style="shape-rendering:geometricPrecision; text-rendering:geometricPrecision; image-rendering:optimizeQuality; fill-rule:evenodd; clip-rule:evenodd"
viewBox="0 0 2600 2600"
 xmlns:xlink="http://www.w3.org/1999/xlink">
 <defs>
  <style type="text/css">
   <![CDATA[
    .fil0 {fill:none}
    .fil1 {fill:black}
   ]]>
  </style>
 </defs>
 <g id="Layer_x0020_1">
  <metadata id="CorelCorpID_0Corel-Layer"/>
  <g id="_2724756035408">
   <rect class="fil0" width="2600" height="2600"/>
   <path class="fil1" d="M397 536l0 1411 903 117 903 -117 0 -1411 -903 117 -903 -117zm1606 1133l6 56 -537 56 -6 -56 537 -56zm-531 -170l-6 -56 537 -56 6 56 -537 56zm0 -282l-6 -56 537 -56 6 56 -537 56zm0 -282l-6 -56 537 -57 6 56 -537 57zm-875 734l537 56 -6 56 -536 -56 5 -56zm0 -282l537 56 -6 56 -536 -56 5 -56zm0 -283l537 57 -6 56 -536 -57 5 -56zm531 -169l-536 -57 5 -56 537 57 -6 56zm-675 -335l819 106 0 1297 -819 -105 0 -1298zm1694 1298l-819 106 0 -1298 819 -106 0 1298z"/>
  </g>
 </g>
</svg>
