<?xml version="1.0" encoding="UTF-8"?>
<!DOCTYPE svg PUBLIC "-//W3C//DTD SVG 1.1//EN" "http://www.w3.org/Graphics/SVG/1.1/DTD/svg11.dtd">
<!-- Creator: CorelDRAW X7 -->
<svg xmlns="http://www.w3.org/2000/svg" xml:space="preserve" width="100%" height="100%" version="1.1" style="shape-rendering:geometricPrecision; text-rendering:geometricPrecision; image-rendering:optimizeQuality; fill-rule:evenodd; clip-rule:evenodd"
viewBox="0 0 2600 2600"
 xmlns:xlink="http://www.w3.org/1999/xlink">
 <defs>
  <style type="text/css">
   <![CDATA[
    .fil1 {fill:none}
    .fil0 {fill:black}
   ]]>
  </style>
 </defs>
 <g id="Layer_x0020_1">
  <metadata id="CorelCorpID_0Corel-Layer"/>
  <g id="_2724761713184">
   <path class="fil0" d="M623 580c132,0 240,108 240,240 0,132 -108,240 -240,240 -133,0 -240,-108 -240,-240 0,-132 107,-240 240,-240zm1354 0c132,0 240,108 240,240 0,132 -108,240 -240,240 -132,0 -240,-108 -240,-240 0,-132 108,-240 240,-240zm423 1073l0 367 -620 0 0 -367c0,-112 -39,-216 -104,-298 77,-77 184,-125 301,-125 234,0 423,189 423,423zm-846 367l0 -367c0,-95 31,-183 85,-254 53,71 84,159 84,254l0 367 -169 0zm903 56l0 -423c0,-265 -215,-480 -480,-480 -132,0 -252,54 -338,140 -87,-86 -207,-140 -339,-140 -132,0 -252,54 -339,140 -86,-86 -206,-140 -338,-140 -265,0 -480,215 -480,480l0 423 677 0 13 0 2 0 13 0 2 0 13 0 2 0 13 0 2 0 13 0 2 0 13 0 2 0 13 0 2 0 13 0 2 0 13 0 2 0 13 0 2 0 13 0 2 0 13 0 2 0 13 0 2 0 13 0 2 0 13 0 2 0 13 0 2 0 13 0 2 0 13 0 2 0 13 0 394 0 15 0 15 0 15 0 15 0 15 0 15 0 15 0 15 0 15 0 15 0 15 0 15 0 15 0 15 0 15 0 15 0 15 0 15 0 13 0 677 0zm-856 -721c-65,82 -104,186 -104,298l0 367 -394 0 0 -367c0,-112 -39,-216 -104,-298 77,-77 183,-125 301,-125 118,0 224,48 301,125zm376 -831c-163,0 -296,133 -296,296 0,164 133,297 296,297 163,0 296,-133 296,-297 0,-163 -133,-296 -296,-296zm-677 56c132,0 240,108 240,240 0,132 -108,240 -240,240 -132,0 -240,-108 -240,-240 0,-132 108,-240 240,-240zm-423 1440l0 -367c0,-95 31,-183 84,-254 54,71 85,159 85,254l0 367 -169 0zm47 -665c-65,82 -104,186 -104,298l0 367 -620 0 0 -367c0,-234 189,-423 423,-423 117,0 224,48 301,125zm376 -831c-164,0 -296,133 -296,296 0,164 132,297 296,297 163,0 296,-133 296,-297 0,-163 -133,-296 -296,-296zm-677 0c-164,0 -296,133 -296,296 0,164 132,297 296,297 163,0 296,-133 296,-297 0,-163 -133,-296 -296,-296z"/>
   <rect class="fil1" width="2600" height="2600"/>
  </g>
 </g>
</svg>
