<?xml version="1.0" encoding="UTF-8"?>
<!DOCTYPE svg PUBLIC "-//W3C//DTD SVG 1.1//EN" "http://www.w3.org/Graphics/SVG/1.1/DTD/svg11.dtd">
<!-- Creator: CorelDRAW X7 -->
<svg xmlns="http://www.w3.org/2000/svg" xml:space="preserve" width="100%" height="100%" version="1.1" style="shape-rendering:geometricPrecision; text-rendering:geometricPrecision; image-rendering:optimizeQuality; fill-rule:evenodd; clip-rule:evenodd"
viewBox="0 0 2600 2600"
 xmlns:xlink="http://www.w3.org/1999/xlink">
 <defs>
  <style type="text/css">
   <![CDATA[
    .fil0 {fill:none}
    .fil1 {fill:black}
   ]]>
  </style>
 </defs>
 <g id="Layer_x0020_1">
  <metadata id="CorelCorpID_0Corel-Layer"/>
  <g id="_2724831789328">
   <rect class="fil0" width="2600" height="2600"/>
   <path class="fil1" d="M1836 933c-202,0 -367,165 -367,367l0 -28 -1072 0 0 56 141 0 0 254 57 0 0 -254 169 0 0 141 56 0 0 -141 649 0 0 -28c0,202 165,367 367,367 203,0 367,-165 367,-367 0,-202 -164,-367 -367,-367zm0 677c-171,0 -310,-139 -310,-310 0,-171 139,-310 310,-310 171,0 311,139 311,310 0,171 -140,310 -311,310z"/>
  </g>
 </g>
</svg>
