<?xml version="1.0" encoding="UTF-8"?>
<!DOCTYPE svg PUBLIC "-//W3C//DTD SVG 1.1//EN" "http://www.w3.org/Graphics/SVG/1.1/DTD/svg11.dtd">
<!-- Creator: CorelDRAW X7 -->
<svg xmlns="http://www.w3.org/2000/svg" xml:space="preserve" width="100%" height="100%" version="1.1" style="shape-rendering:geometricPrecision; text-rendering:geometricPrecision; image-rendering:optimizeQuality; fill-rule:evenodd; clip-rule:evenodd"
viewBox="0 0 2600 2600"
 xmlns:xlink="http://www.w3.org/1999/xlink">
 <defs>
  <style type="text/css">
   <![CDATA[
    .fil0 {fill:none}
    .fil1 {fill:black}
   ]]>
  </style>
 </defs>
 <g id="Layer_x0020_1">
  <metadata id="CorelCorpID_0Corel-Layer"/>
  <g id="_2724746328464">
   <rect class="fil0" width="2600" height="2600"/>
   <path class="fil1" d="M1689 1639l159 0 279 508 -1654 0 279 -508 159 0c-11,-19 -21,-38 -32,-57l-160 0 -342 621 1846 0 -342 -621 -160 0c-10,19 -21,38 -32,57zm-542 -726c0,-43 17,-81 45,-109 27,-28 66,-45 108,-45 42,0 81,17 108,45 28,28 46,66 46,109 0,42 -18,80 -46,108 -27,28 -66,45 -108,45 -42,0 -81,-17 -108,-45 -28,-28 -45,-66 -45,-108zm85 -69c-18,17 -29,42 -29,69 0,26 11,51 29,68 17,18 41,29 68,29 27,0 51,-11 69,-29 17,-17 28,-42 28,-68 0,-27 -11,-51 -28,-69 -18,-18 -42,-28 -69,-28 -27,0 -51,10 -68,28zm68 -447c154,0 294,68 395,178 99,108 162,257 162,422 1,138 -56,301 -134,459 -126,254 -306,497 -379,592l-45 58 -44 -58c-73,-95 -252,-338 -377,-592 -78,-158 -135,-321 -135,-459 0,-164 62,-314 162,-422 101,-110 240,-178 395,-178zm0 56c275,0 500,244 501,544 1,341 -386,867 -502,1017 -115,-150 -500,-676 -500,-1017 0,-300 225,-544 501,-544z"/>
  </g>
 </g>
</svg>
