<?xml version="1.0" encoding="UTF-8"?>
<!DOCTYPE svg PUBLIC "-//W3C//DTD SVG 1.1//EN" "http://www.w3.org/Graphics/SVG/1.1/DTD/svg11.dtd">
<!-- Creator: CorelDRAW X7 -->
<svg xmlns="http://www.w3.org/2000/svg" xml:space="preserve" width="100%" height="100%" version="1.1" style="shape-rendering:geometricPrecision; text-rendering:geometricPrecision; image-rendering:optimizeQuality; fill-rule:evenodd; clip-rule:evenodd"
viewBox="0 0 2600 2600"
 xmlns:xlink="http://www.w3.org/1999/xlink">
 <defs>
  <style type="text/css">
   <![CDATA[
    .fil0 {fill:none}
    .fil1 {fill:black}
   ]]>
  </style>
 </defs>
 <g id="Layer_x0020_1">
  <metadata id="CorelCorpID_0Corel-Layer"/>
  <g id="_2724830619424">
   <rect class="fil0" width="2600" height="2600"/>
   <path class="fil1" d="M823 1224l-36 217 485 0 0 762 56 0 0 -762 485 0 -36 -217 -253 -113 -53 -448 139 -111 0 -155 -620 0 0 155 139 111 -53 448 -253 113zm366 -585l-143 -114 0 -72 508 0 0 72 -143 114 60 511 255 113 20 122 -892 0 20 -122 255 -113 60 -511z"/>
  </g>
 </g>
</svg>
