<?xml version="1.0" encoding="UTF-8"?>
<!DOCTYPE svg PUBLIC "-//W3C//DTD SVG 1.1//EN" "http://www.w3.org/Graphics/SVG/1.1/DTD/svg11.dtd">
<!-- Creator: CorelDRAW X7 -->
<svg xmlns="http://www.w3.org/2000/svg" xml:space="preserve" width="100%" height="100%" version="1.1" style="shape-rendering:geometricPrecision; text-rendering:geometricPrecision; image-rendering:optimizeQuality; fill-rule:evenodd; clip-rule:evenodd"
viewBox="0 0 26000 26000"
 xmlns:xlink="http://www.w3.org/1999/xlink">
 <defs>
  <style type="text/css">
   <![CDATA[
    .fil0 {fill:none}
    .fil1 {fill:black}
   ]]>
  </style>
 </defs>
 <g id="Layer_x0020_1">
  <metadata id="CorelCorpID_0Corel-Layer"/>
  <g id="_2503571415232">
   <rect class="fil0" width="26000" height="26000"/>
   <path class="fil1" d="M14529 17368l-5897 -5897 653 -466 2609 1004 4261 -3365 -204 -1834 241 -241 3239 3239 -241 241 -1697 -189 -137 -15 -3364 4260 1004 2609 -467 654zm-9465 2816l752 753 5387 -5388 3460 3460 1452 -2032 77 -109 -991 -2579 2623 -3322 1758 195 1355 -1355 -4744 -4743 -1354 1354 194 1758 -3322 2623 -2579 -991 -2141 1529 3460 3460 -5387 5387z"/>
  </g>
 </g>
</svg>
