<?xml version="1.0" encoding="UTF-8"?>
<!DOCTYPE svg PUBLIC "-//W3C//DTD SVG 1.1//EN" "http://www.w3.org/Graphics/SVG/1.1/DTD/svg11.dtd">
<!-- Creator: CorelDRAW X7 -->
<svg xmlns="http://www.w3.org/2000/svg" xml:space="preserve" width="100%" height="100%" version="1.1" style="shape-rendering:geometricPrecision; text-rendering:geometricPrecision; image-rendering:optimizeQuality; fill-rule:evenodd; clip-rule:evenodd"
viewBox="0 0 2600 2600"
 xmlns:xlink="http://www.w3.org/1999/xlink">
 <defs>
  <style type="text/css">
   <![CDATA[
    .fil0 {fill:none}
    .fil1 {fill:black}
   ]]>
  </style>
 </defs>
 <g id="Layer_x0020_1">
  <metadata id="CorelCorpID_0Corel-Layer"/>
  <g id="_2724844335776">
   <rect class="fil0" width="2600" height="2600"/>
   <path class="fil1" d="M928 397c154,0 294,68 395,178 100,108 162,257 163,422 0,138 -57,301 -135,459 -125,254 -306,497 -379,592l-45 58 -44 -58c-73,-95 -252,-338 -377,-592 -78,-158 -135,-321 -135,-459 0,-164 62,-314 162,-422 101,-110 241,-178 395,-178zm926 1242l280 508 -1655 0 176 -320c-11,-18 -23,-36 -35,-54l-236 430 1845 0 -341 -621 -65 0 31 57zm-233 -1007c104,0 198,46 267,120 67,73 108,173 109,284 0,91 -37,198 -88,301 -81,164 -197,321 -244,382l-45 57 -44 -57c-34,-44 -103,-138 -169,-248 9,-20 19,-40 29,-62 70,122 148,228 184,275 74,-95 321,-431 321,-648 -1,-192 -145,-347 -320,-347 -49,0 -95,12 -136,33 -8,-17 -16,-34 -25,-51 49,-25 103,-39 161,-39zm-846 281c0,-43 17,-81 45,-109 28,-28 66,-45 108,-45 43,0 81,17 109,45 28,28 45,66 45,109 0,42 -17,80 -45,108 -28,28 -66,45 -109,45 -42,0 -80,-17 -108,-45 -28,-28 -45,-66 -45,-108zm85 -69c-18,17 -29,42 -29,69 0,26 11,51 29,68 17,18 41,29 68,29 27,0 51,-11 69,-29 18,-17 28,-42 28,-68 0,-27 -10,-51 -28,-69 -18,-18 -42,-28 -69,-28 -27,0 -51,10 -68,28zm653 138c0,-30 12,-57 32,-77 19,-19 46,-31 76,-31 30,0 57,12 76,31 20,20 32,47 32,77 0,29 -12,57 -32,76 -19,20 -46,32 -76,32 -30,0 -57,-12 -76,-32l0 0c-20,-20 -32,-47 -32,-76zm71 -37c-9,9 -15,22 -15,37 0,14 6,27 15,36l0 0c10,10 23,15 37,15 14,0 27,-5 37,-15 9,-9 15,-22 15,-36 0,-15 -6,-27 -15,-37 -10,-9 -23,-15 -37,-15 -14,0 -27,6 -37,15zm-656 -492c275,0 500,244 501,544 2,341 -386,867 -501,1017 -116,-150 -500,-676 -500,-1017 0,-300 224,-544 500,-544z"/>
  </g>
 </g>
</svg>
