<?xml version="1.0" encoding="UTF-8"?>
<!DOCTYPE svg PUBLIC "-//W3C//DTD SVG 1.1//EN" "http://www.w3.org/Graphics/SVG/1.1/DTD/svg11.dtd">
<!-- Creator: CorelDRAW X7 -->
<svg xmlns="http://www.w3.org/2000/svg" xml:space="preserve" width="100%" height="100%" version="1.1" style="shape-rendering:geometricPrecision; text-rendering:geometricPrecision; image-rendering:optimizeQuality; fill-rule:evenodd; clip-rule:evenodd"
viewBox="0 0 2600 2600"
 xmlns:xlink="http://www.w3.org/1999/xlink">
 <defs>
  <style type="text/css">
   <![CDATA[
    .fil1 {fill:none}
    .fil0 {fill:black}
   ]]>
  </style>
 </defs>
 <g id="Layer_x0020_1">
  <metadata id="CorelCorpID_0Corel-Layer"/>
  <g id="_2307274211632">
   <path class="fil0" d="M651 961l339 0 0 -338 -339 0 0 338zm0 1016l339 0 0 -338 -339 0 0 338zm959 0l339 0 0 -338 -339 0 0 338zm-479 0l338 0 0 -338 -338 0 0 338zm56 -282l226 0 0 226 -226 0 0 -226zm480 0l226 0 0 226 -226 0 0 -226zm-960 0l226 0 0 226 -226 0 0 -226zm-56 -226l339 0 0 -338 -339 0 0 338zm959 -508l339 0 0 -338 -339 0 0 338zm0 508l339 0 0 -338 -339 0 0 338zm-479 -508l338 0 0 -338 -338 0 0 338zm0 508l338 0 0 -338 -338 0 0 338zm56 -282l226 0 0 226 -226 0 0 -226zm0 -508l226 0 0 226 -226 0 0 -226zm480 508l226 0 0 226 -226 0 0 -226zm0 -508l226 0 0 226 -226 0 0 -226zm-960 508l226 0 0 226 -226 0 0 -226zm0 -508l226 0 0 226 -226 0 0 -226z"/>
   <rect class="fil1" width="2600" height="2600"/>
  </g>
 </g>
</svg>
