<?xml version="1.0" encoding="UTF-8"?>
<!DOCTYPE svg PUBLIC "-//W3C//DTD SVG 1.1//EN" "http://www.w3.org/Graphics/SVG/1.1/DTD/svg11.dtd">
<!-- Creator: CorelDRAW X7 -->
<svg xmlns="http://www.w3.org/2000/svg" xml:space="preserve" width="100%" height="100%" version="1.1" style="shape-rendering:geometricPrecision; text-rendering:geometricPrecision; image-rendering:optimizeQuality; fill-rule:evenodd; clip-rule:evenodd"
viewBox="0 0 2600 2600"
 xmlns:xlink="http://www.w3.org/1999/xlink">
 <defs>
  <style type="text/css">
   <![CDATA[
    .fil0 {fill:none}
    .fil1 {fill:black}
   ]]>
  </style>
 </defs>
 <g id="Layer_x0020_1">
  <metadata id="CorelCorpID_0Corel-Layer"/>
  <g id="_2307281804384">
   <rect class="fil0" width="2600" height="2600"/>
   <path class="fil1" d="M1864 1230l0 -14 0 -128c0,-4 -5,-396 -423,-468l0 -124 -141 0 -141 0 0 124c-418,72 -423,464 -423,468l0 71 0 71 0 56 0 649 -85 0 0 0 0 47 0 9 538 0 0 113 222 0 0 -113c179,0 359,0 538,0l0 -56 -85 0c0,-216 0,-433 0,-649l0 -56zm-479 -617c-27,-3 -55,-4 -85,-4 -30,0 -58,1 -85,4l0 -61 85 0 85 0 0 61zm-593 1322l0 -847c0,-17 6,-423 508,-423 501,0 508,406 508,423l0 847c-339,0 -677,0 -1016,0zm453 113l0 -57 110 0 0 57 -110 0z"/>
  </g>
 </g>
</svg>
