<?xml version="1.0" encoding="UTF-8"?>
<!DOCTYPE svg PUBLIC "-//W3C//DTD SVG 1.1//EN" "http://www.w3.org/Graphics/SVG/1.1/DTD/svg11.dtd">
<!-- Creator: CorelDRAW X7 -->
<svg xmlns="http://www.w3.org/2000/svg" xml:space="preserve" width="100%" height="100%" version="1.1" style="shape-rendering:geometricPrecision; text-rendering:geometricPrecision; image-rendering:optimizeQuality; fill-rule:evenodd; clip-rule:evenodd"
viewBox="0 0 2600 2600"
 xmlns:xlink="http://www.w3.org/1999/xlink">
 <defs>
  <style type="text/css">
   <![CDATA[
    .fil0 {fill:none}
    .fil1 {fill:black}
   ]]>
  </style>
 </defs>
 <g id="Layer_x0020_1">
  <metadata id="CorelCorpID_0Corel-Layer"/>
  <rect class="fil0" width="2600" height="2600"/>
  <path class="fil1" d="M1609 451c123,45 235,116 330,211 170,170 264,397 264,638 0,241 -94,468 -264,639 -171,170 -398,264 -639,264 -241,0 -468,-94 -639,-264 -170,-171 -264,-398 -264,-639 0,-241 94,-468 264,-638 95,-95 207,-166 330,-211l0 60c-108,42 -206,107 -290,190 -160,160 -248,373 -248,599 0,226 88,439 248,599 160,160 373,248 599,248 226,0 439,-88 599,-248 160,-160 248,-373 248,-599 0,-226 -88,-439 -248,-599 -84,-83 -182,-148 -290,-190l0 -60zm-281 510l0 -564 -56 0 0 564 56 0zm-28 113c-60,0 -117,24 -160,66 -6,7 -13,14 -18,21l-1 1 0 1 -1 1 0 0 -1 0 0 1 -1 1 0 0 0 1 -1 0 0 1 0 0 -1 1 0 1 -1 0 0 0 0 1 -1 1 0 1 0 0 -1 0 0 1 -1 1 0 0 0 1 -1 0 0 1 0 0 -1 1 0 1 -1 0 0 0 0 1 -1 1 -1 1 0 1 -1 1 0 0 0 1 -1 1 0 0 0 0 -1 1 0 1 -1 1 0 0 0 1 0 0 -1 1 0 0 0 1 -1 1 0 1 0 0 -1 0 0 1 0 1 -1 0 0 1 0 1 -1 0 0 1 0 0 -1 1 0 1 0 0 -1 1 0 1 0 1 0 0 -1 2 0 0 -1 1 0 0 0 1 -1 1 0 0 0 1 0 1 -1 0 0 1c-12,27 -18,57 -18,88 0,60 24,117 66,160 43,42 100,66 160,66 60,0 117,-24 160,-66 42,-43 66,-100 66,-160 0,-60 -24,-117 -66,-160 -43,-42 -100,-66 -160,-66zm120 346c-32,32 -75,49 -120,49 -45,0 -88,-17 -120,-49 -32,-32 -49,-75 -49,-120 0,-45 17,-88 49,-120 32,-32 75,-49 120,-49 45,0 88,17 120,49 32,32 49,75 49,120 0,45 -17,88 -49,120z"/>
 </g>
</svg>
