<?xml version="1.0" encoding="UTF-8"?>
<!DOCTYPE svg PUBLIC "-//W3C//DTD SVG 1.1//EN" "http://www.w3.org/Graphics/SVG/1.1/DTD/svg11.dtd">
<!-- Creator: CorelDRAW X7 -->
<svg xmlns="http://www.w3.org/2000/svg" xml:space="preserve" width="100%" height="100%" version="1.1" style="shape-rendering:geometricPrecision; text-rendering:geometricPrecision; image-rendering:optimizeQuality; fill-rule:evenodd; clip-rule:evenodd"
viewBox="0 0 2600 2600"
 xmlns:xlink="http://www.w3.org/1999/xlink">
 <defs>
  <style type="text/css">
   <![CDATA[
    .fil0 {fill:none}
    .fil1 {fill:black;fill-rule:nonzero}
   ]]>
  </style>
 </defs>
 <g id="Layer_x0020_1">
  <metadata id="CorelCorpID_0Corel-Layer"/>
  <g id="_2724831430640">
   <rect class="fil0" width="2600" height="2600"/>
   <path class="fil1" d="M1155 1165l-135 135 135 135 -40 40 0 0 -135 -135 -135 135 0 0 -40 -40 135 -135 -135 -135 40 -40 0 0 135 135 135 -135 0 0 40 40zm611 -116l-1109 0c-138,0 -251,113 -251,251 0,138 113,251 251,251l1109 0c-14,-10 -28,-21 -40,-34 -56,-55 -91,-132 -91,-217 0,-85 35,-162 91,-217 12,-13 26,-24 40,-34zm177 559l-1286 0c-66,0 -127,-21 -177,-57 -15,-10 -28,-21 -40,-34 -56,-55 -91,-132 -91,-217 0,-85 35,-162 91,-217 12,-13 25,-24 40,-34 50,-36 111,-57 177,-57l1286 0 3 0 1 0 2 0 2 0 1 0 3 1 0 0 3 0 1 0 2 0 2 0 2 0 2 0 1 0 3 1 0 0 3 0 0 0 1 0 3 0 2 0 2 1 1 0 3 0 0 0 3 1 1 0 1 0 3 1 0 0 3 0 0 0 3 1 1 0 2 0 2 1 3 0 1 0 0 0 3 1 0 0 3 1 1 0 2 1 2 0 1 0 2 1 0 0 3 1 1 0 2 1 2 0 1 0 2 1 1 0 2 1 1 0 2 1 2 1 1 0 2 1 1 0 3 1 0 0 2 1 1 0 2 1 2 1 1 0 2 1 0 0 3 1 1 1 2 1 1 0 1 1 2 1 1 0 3 1 2 1 0 0 1 1 2 1 3 1 2 1 0 0 3 2 0 0 2 1 2 1 1 0 2 1 0 1 3 1 0 0 0 0 3 2 2 1 1 1 1 1 3 1 0 0 2 2 1 0 2 1 1 1 1 1 2 1 0 0 3 2 0 0 2 2 1 0 0 0 0 1 1 0 1 1 0 0 1 0 0 1 1 0 0 1 1 0 1 1 0 0 0 0 1 1 1 0 0 1 1 0 0 0 1 1 0 0 1 1 1 0 0 0 0 1 1 0 1 1 0 0 1 0 0 1 1 0 0 1 1 0 0 1 1 0 0 0 1 1 0 0 1 1 0 0 1 0 0 1 1 0 1 1 0 1 0 0 1 0 0 1 1 0 1 1 0 0 0 0 1 1 0 0 1 1 1 0 0 0 0 1 1 1 1 0 0 1 0 0 1 0 0 1 1 0 1 1 0 0 0 1 1 0 0 1 1 0 1 1 0 0 0 0 1 1 0 1 1 0 0 1c56,55 91,132 91,217 0,85 -35,162 -91,217l0 1 -1 1 0 0 -1 1 0 0 0 0 -1 1 -1 0 0 1 -1 1 0 0 0 0 -1 1 -1 0 0 1 -1 0 0 0 0 1 -1 0 -1 1 0 1 0 0 -1 0 -1 1 0 0 -1 1 0 0 0 0 -1 1 -1 0 0 1 -1 0 0 1 0 0 -1 1 -1 0 0 1 -1 0 0 0 -1 1 0 0 -1 1 0 0 -1 0 0 1 -1 0 0 1 -1 0 0 1 -1 0 0 0 -1 1 -1 0 0 1 0 0 -1 0 -1 1 0 0 -1 1 0 0 -1 0 0 1 -1 0 -1 1 0 0 0 0 -1 1 -1 0 0 1 -1 0 0 1 -1 0 0 0 -1 1 -1 0 0 1 0 0 -1 0 -2 2 0 0 -3 2 0 0 -2 1 -1 1 -1 1 -2 1 -1 0 -2 2 0 0 -3 1 -1 1 -1 1 -2 1 -3 2 0 0 0 0 -3 1 0 1 -2 1 -1 0 -2 1 -2 1 0 0 -3 2 0 0 -2 1 -3 1 -2 1 -1 1 0 0 -2 1 -3 1 -1 0 -2 1 -1 1 -1 0 -2 1 -1 1 -3 1 0 0 -2 1 -1 0 -2 1 -2 1 -1 0 -2 1 0 0 -3 1 -1 0 -2 1 -1 0 -2 1 -2 1 -1 0 -2 1 -1 0 -2 1 -1 0 -2 0 -2 1 -1 0 -3 1 0 0 -2 1 -1 0 -2 0 -2 1 -1 0 -3 1 0 0 -3 1 0 0 -1 0 -3 0 -2 1 -2 0 -1 0 -3 1 0 0 -3 0 0 1 -3 0 -1 0 -1 0 -3 1 0 0 -3 0 -1 0 -2 1 -2 0 -3 0 -1 0 0 0 -3 0 0 0 -3 1 -1 0 -2 0 -2 0 -2 0 -2 0 -1 0 -3 0 0 0 -3 1 -1 0 -2 0 -2 0 -1 0 -3 0zm0 -559l0 0c-138,0 -251,113 -251,251l0 0c0,138 113,251 251,251 138,0 251,-113 251,-251 0,-138 -113,-251 -251,-251zm0 502l0 0zm251 -251l0 0z"/>
  </g>
 </g>
</svg>
