<?xml version="1.0" encoding="UTF-8"?>
<!DOCTYPE svg PUBLIC "-//W3C//DTD SVG 1.1//EN" "http://www.w3.org/Graphics/SVG/1.1/DTD/svg11.dtd">
<!-- Creator: CorelDRAW X7 -->
<svg xmlns="http://www.w3.org/2000/svg" xml:space="preserve" width="100%" height="100%" version="1.1" style="shape-rendering:geometricPrecision; text-rendering:geometricPrecision; image-rendering:optimizeQuality; fill-rule:evenodd; clip-rule:evenodd"
viewBox="0 0 2600 2600"
 xmlns:xlink="http://www.w3.org/1999/xlink">
 <defs>
  <style type="text/css">
   <![CDATA[
    .fil1 {fill:none}
    .fil0 {fill:black}
   ]]>
  </style>
 </defs>
 <g id="Layer_x0020_1">
  <metadata id="CorelCorpID_0Corel-Layer"/>
  <g id="_2724758569776">
   <path class="fil0" d="M1751 693c0,133 -107,240 -239,240 -25,0 -49,-4 -72,-11 1,9 1,17 1,25 0,11 0,23 -1,34 23,6 47,9 72,9 163,0 296,-133 296,-297 0,-163 -133,-296 -296,-296 -139,0 -256,96 -288,224 18,8 35,17 52,27 21,-111 119,-195 236,-195 132,0 239,108 239,240zm240 833c0,-265 -215,-480 -479,-480 -30,0 -59,3 -87,8 -8,23 -17,44 -28,64 36,-10 75,-15 115,-15 233,0 423,190 423,423l0 621 -310 0 0 56 310 0 30 0 26 0 0 -677zm-479 254l0 367 -847 0 0 -367c0,-234 190,-424 423,-424 234,0 424,190 424,424zm56 423l0 -423c0,-265 -215,-480 -480,-480 -264,0 -479,215 -479,480l0 423c319,0 639,0 959,0zm-426 -1490c4,1 8,2 11,3l1 0 6 2 0 0c97,30 168,122 168,229 0,130 -104,236 -233,240l0 0 0 0 0 0 0 0 0 0 -1 0 0 0 0 0 0 0 0 0 0 0 0 0 0 0 -1 0 -4 0 0 0 0 0 0 0 0 0 -1 0 0 0c-132,0 -240,-108 -240,-240 0,-132 108,-240 240,-240l6 0 0 0 1 0 5 1 1 0 0 0 1 0 4 0 1 0 0 0 5 0 0 0 1 0 0 0 5 1 1 0 0 0 5 1 1 0 0 0 5 1 0 0 1 0 1 0 5 1 0 0 0 0 5 1 0 0zm-119 523c2,1 4,1 6,2l0 0 7 1 0 0 7 1 0 0 7 1 1 0 6 1 0 0c10,1 21,1 31,1 164,0 297,-133 297,-296 0,-138 -96,-255 -225,-287l0 0 -4 -1 -1 -1 0 0 -6 -1 -1 0 0 0 -1 0 -5 -1 -1 -1 0 0 -1 0 -6 -1 -1 0 0 0 -7 -1 0 0 0 0 0 0 -7 -1 0 0 -1 0 -7 0 0 0c-2,-1 -5,-1 -7,-1l-1 0c-2,0 -4,0 -7,0l0 0c-3,0 -5,0 -8,0 -163,0 -296,133 -296,296 0,5 0,10 0,15l0 0 1 6 0 1 0 4 0 3 1 4 0 3 1 4 0 4 1 3 0 4 1 3 1 4 0 3 1 4 1 3 1 4 1 3 1 4 1 3 0 3 2 4 0 0 2 6 0 1c1,2 1,4 2,6l0 0 3 6 0 1 1 2 1 4 0 0 3 6 0 0 1 3 2 4 1 2 2 4 2 3 1 3 2 4 1 2 2 3 2 3 2 3 2 3 2 3 1 3 2 3 3 3 1 2 3 4 1 2 2 2 3 3 0 1 4 4 0 1 4 5 0 0 5 5 0 0 4 5 0 0 3 2 2 3 3 2 2 3 3 2 2 2 3 3 2 2 3 3 3 2 2 2 3 2 3 2 2 2 3 2 3 3 2 1 4 2 2 2 3 2 3 2 2 1 4 3 0 0 6 3 0 0 6 3 0 1 6 3 1 0 2 1 3 2 3 1 4 2 2 1 4 2 4 1 2 1 4 2 3 1 3 1 3 1 4 1 3 1 4 1 3 2 3 0 4 2 3 0 3 1 5 1 0 0z"/>
   <rect class="fil1" width="2600" height="2600"/>
  </g>
 </g>
</svg>
