<?xml version="1.0" encoding="UTF-8"?>
<!DOCTYPE svg PUBLIC "-//W3C//DTD SVG 1.1//EN" "http://www.w3.org/Graphics/SVG/1.1/DTD/svg11.dtd">
<!-- Creator: CorelDRAW X7 -->
<svg xmlns="http://www.w3.org/2000/svg" xml:space="preserve" width="100%" height="100%" version="1.1" style="shape-rendering:geometricPrecision; text-rendering:geometricPrecision; image-rendering:optimizeQuality; fill-rule:evenodd; clip-rule:evenodd"
viewBox="0 0 2600 2600"
 xmlns:xlink="http://www.w3.org/1999/xlink">
 <defs>
  <style type="text/css">
   <![CDATA[
    .fil1 {fill:none}
    .fil0 {fill:black}
   ]]>
  </style>
 </defs>
 <g id="Layer_x0020_1">
  <metadata id="CorelCorpID_0Corel-Layer"/>
  <g id="_2724950639728">
   <path class="fil0" d="M2062 1653l0 367 -564 0 0 56 620 0 0 -56 0 -367c0,-265 -215,-480 -479,-480 -112,0 -215,38 -297,103 14,13 26,27 38,42 72,-55 161,-88 259,-88 233,0 423,189 423,423zm-424 -1073c133,0 240,108 240,240 0,132 -107,240 -240,240 -132,0 -239,-108 -239,-240 0,-132 107,-240 239,-240zm0 -56c-163,0 -296,133 -296,296 0,164 133,297 296,297 164,0 297,-133 297,-297 0,-163 -133,-296 -297,-296zm-253 1129l0 367 -847 0 0 -367c0,-234 190,-423 423,-423 121,0 230,50 307,131l0 0c2,3 4,5 7,7l0 0 0 0c2,3 4,5 6,7l0 1 0 0 1 1 6 6 0 1 0 0 6 7 0 1 1 0 0 1c56,71 90,162 90,260zm56 423l0 -423c0,-112 -39,-216 -103,-298l0 0c-2,-2 -4,-5 -6,-7l0 0 -1 -1c-2,-3 -5,-5 -7,-8 -2,-3 -5,-6 -7,-9l-1 0 0 0c-2,-3 -4,-5 -7,-7l0 -1 0 0 -1 -1c-2,-2 -4,-4 -7,-7l0 0 0 0 -1 -1c-87,-86 -207,-140 -339,-140 -264,0 -479,215 -479,480l0 423c319,0 639,0 959,0zm-480 -1496c133,0 240,108 240,240 0,132 -107,240 -240,240 -132,0 -240,-108 -240,-240 0,-132 108,-240 240,-240zm0 -56c-163,0 -296,133 -296,296 0,164 133,297 296,297 164,0 297,-133 297,-297 0,-163 -133,-296 -297,-296z"/>
   <rect class="fil1" width="2600" height="2600"/>
   <rect class="fil1" width="2600" height="2600"/>
  </g>
 </g>
</svg>
