<?xml version="1.0" encoding="UTF-8"?>
<!DOCTYPE svg PUBLIC "-//W3C//DTD SVG 1.1//EN" "http://www.w3.org/Graphics/SVG/1.1/DTD/svg11.dtd">
<!-- Creator: CorelDRAW X7 -->
<svg xmlns="http://www.w3.org/2000/svg" xml:space="preserve" width="100%" height="100%" version="1.1" style="shape-rendering:geometricPrecision; text-rendering:geometricPrecision; image-rendering:optimizeQuality; fill-rule:evenodd; clip-rule:evenodd"
viewBox="0 0 2600 2600"
 xmlns:xlink="http://www.w3.org/1999/xlink">
 <defs>
  <style type="text/css">
   <![CDATA[
    .fil1 {fill:none}
    .fil0 {fill:black}
   ]]>
  </style>
 </defs>
 <g id="Layer_x0020_1">
  <metadata id="CorelCorpID_0Corel-Layer"/>
  <g id="_2724758146560">
   <path class="fil0" d="M1812 1366c191,41 335,211 335,414l0 367 -311 0 0 56 311 0 18 0 38 0 0 -423c0,-243 -181,-444 -415,-476 9,20 17,41 24,62zm-272 -673c0,133 -108,240 -240,240 -25,0 -49,-4 -71,-11 0,9 1,17 1,25 0,11 -1,23 -2,34 23,6 47,9 72,9 163,0 296,-133 296,-297 0,-163 -133,-296 -296,-296 -139,0 -255,96 -288,224 19,8 36,17 52,27 21,-111 119,-195 236,-195 132,0 240,108 240,240zm240 833c0,-265 -215,-480 -480,-480 -30,0 -59,3 -87,8 -7,23 -17,44 -28,64 37,-10 75,-15 115,-15 233,0 423,190 423,423l0 621 -310 0 0 56 310 0 30 0 27 0 0 -677zm-480 254l0 367 -847 0 0 -367c0,-234 190,-424 424,-424 233,0 423,190 423,424zm57 423l0 -423c0,-265 -216,-480 -480,-480 -265,0 -480,215 -480,480l0 423c320,0 640,0 960,0zm-426 -1490c3,1 7,2 11,3l0 0 6 2 0 0c98,30 169,122 169,229 0,130 -104,236 -233,240l-1 0 0 0 0 0 0 0 0 0 0 0 0 0 0 0 0 0 -1 0 0 0 0 0 0 0 0 0 -5 0 0 0 0 0 0 0 0 0 0 0 0 0c-133,0 -240,-108 -240,-240 0,-132 107,-240 240,-240l5 0 1 0 1 0 4 1 1 0 0 0 2 0 3 0 1 0 0 0 6 0 0 0 0 0 0 0 5 1 1 0 1 0 4 1 1 0 0 0 6 1 0 0 0 0 1 0 5 1 0 0 0 0 6 1 0 0zm-120 523c2,1 5,1 7,2l0 0 6 1 1 0 6 1 1 0 6 1 1 0 6 1 0 0c11,1 21,1 32,1 163,0 296,-133 296,-296 0,-138 -96,-255 -224,-287l0 0 -5 -1 0 -1 -1 0 -5 -1 -1 0 -1 0 0 0 -6 -1 -1 -1 0 0 -1 0 -6 -1 0 0 -1 0 -6 -1 0 0 -1 0 0 0 -6 -1 -1 0 0 0 -7 0 -1 0c-2,-1 -5,-1 -7,-1l0 0c-3,0 -5,0 -7,0l-1 0c-2,0 -5,0 -7,0 -164,0 -297,133 -297,296 0,5 1,10 1,15l0 0 0 6 0 1 1 4 0 3 0 4 1 3 0 4 1 4 0 3 1 4 0 3 1 4 1 3 1 4 0 3 1 4 1 3 1 4 1 3 1 3 1 4 0 0 2 6 0 1c1,2 2,4 2,6l0 0 3 6 0 1 1 2 2 4 0 0 2 6 0 0 2 3 1 4 1 2 2 4 2 3 1 3 2 4 2 2 2 3 1 3 2 3 2 3 2 3 2 3 2 3 2 3 1 2 3 4 2 2 2 2 2 3 0 1 4 4 0 1 5 5 0 0 4 5 0 0 5 5 0 0 2 2 3 3 2 2 3 3 2 2 3 2 3 3 1 2 4 3 2 2 3 2 2 2 3 2 3 2 2 2 4 3 2 1 3 2 3 2 2 2 4 2 2 1 4 3 0 0 5 3 0 0 6 3 1 1 5 3 1 0 2 1 4 2 2 1 4 2 3 1 3 2 4 1 2 1 5 2 2 1 4 1 3 1 4 1 2 1 4 1 4 2 3 0 4 2 2 0 4 1 4 1 0 0zm1152 -289c0,132 -108,240 -240,240 -3,0 -5,0 -8,0 14,17 28,36 40,55 148,-16 265,-142 265,-295 0,-163 -133,-296 -297,-296 -25,0 -49,3 -72,9 1,11 2,22 2,33 0,9 0,17 -1,25 22,-7 46,-11 71,-11 132,0 240,108 240,240z"/>
   <rect class="fil1" width="2600" height="2600"/>
  </g>
 </g>
</svg>
