<?xml version="1.0" encoding="UTF-8"?>
<!DOCTYPE svg PUBLIC "-//W3C//DTD SVG 1.1//EN" "http://www.w3.org/Graphics/SVG/1.1/DTD/svg11.dtd">
<!-- Creator: CorelDRAW X7 -->
<svg xmlns="http://www.w3.org/2000/svg" xml:space="preserve" width="100%" height="100%" version="1.1" style="shape-rendering:geometricPrecision; text-rendering:geometricPrecision; image-rendering:optimizeQuality; fill-rule:evenodd; clip-rule:evenodd"
viewBox="0 0 2600 2600"
 xmlns:xlink="http://www.w3.org/1999/xlink">
 <defs>
  <style type="text/css">
   <![CDATA[
    .fil0 {fill:none}
    .fil1 {fill:black}
   ]]>
  </style>
 </defs>
 <g id="Layer_x0020_1">
  <metadata id="CorelCorpID_0Corel-Layer"/>
  <g id="_2724846476816">
   <rect class="fil0" width="2600" height="2600"/>
   <path class="fil1" d="M397 1921l1806 0 0 -1242 -1806 0 0 1242zm1439 -734c94,0 170,-76 170,-169 0,-94 -76,-169 -170,-169 -93,0 -169,75 -169,169 0,93 76,169 169,169zm0 -282c63,0 113,51 113,113 0,62 -50,113 -113,113 -62,0 -113,-51 -113,-113 0,-62 51,-113 113,-113zm-1383 960l0 -129 620 -539 343 344 171 -228 560 480 0 72 -1694 0zm1694 -1129l0 982 -569 -487 -168 224 -334 -335 -623 541 0 -925 1694 0z"/>
  </g>
 </g>
</svg>
