<?xml version="1.0" encoding="UTF-8"?>
<!DOCTYPE svg PUBLIC "-//W3C//DTD SVG 1.1//EN" "http://www.w3.org/Graphics/SVG/1.1/DTD/svg11.dtd">
<!-- Creator: CorelDRAW X7 -->
<svg xmlns="http://www.w3.org/2000/svg" xml:space="preserve" width="100%" height="100%" version="1.1" style="shape-rendering:geometricPrecision; text-rendering:geometricPrecision; image-rendering:optimizeQuality; fill-rule:evenodd; clip-rule:evenodd"
viewBox="0 0 2600 2600"
 xmlns:xlink="http://www.w3.org/1999/xlink">
 <defs>
  <style type="text/css">
   <![CDATA[
    .fil0 {fill:none}
    .fil1 {fill:black}
   ]]>
  </style>
 </defs>
 <g id="Layer_x0020_1">
  <metadata id="CorelCorpID_0Corel-Layer"/>
  <g id="_2307450030528">
   <rect class="fil0" width="2600" height="2600"/>
   <path class="fil1" d="M1413 1159l0 508 537 0 0 -508 -131 0c37,-36 60,-86 60,-141 0,-109 -89,-198 -198,-198 -109,0 -197,89 -197,198 0,55 23,105 59,141l-130 0zm790 -593l-536 0 0 57 480 0c0,103 0,207 0,310l56 0 0 -367zm-56 1101l0 310 -480 0 0 57 536 0 0 -367 -56 0zm-1214 -1101l-536 0 0 367 56 0c0,-103 0,-207 0,-310l480 0 0 -57zm-536 1101l0 367 536 0 0 -57 -480 0 0 -310 -56 0zm1284 -508l0 0c-77,0 -141,-64 -141,-141 0,-78 64,-141 141,-141 78,0 142,63 142,141 0,77 -64,141 -142,141zm-212 56l424 0 0 395 -424 0 0 -395zm-819 395l650 0 0 57 -650 0 0 -57zm0 -225l650 0 0 56 -650 0 0 -56zm0 -226l650 0 0 56 -650 0 0 -56z"/>
  </g>
 </g>
</svg>
