<?xml version="1.0" encoding="UTF-8"?>
<!DOCTYPE svg PUBLIC "-//W3C//DTD SVG 1.1//EN" "http://www.w3.org/Graphics/SVG/1.1/DTD/svg11.dtd">
<!-- Creator: CorelDRAW X7 -->
<svg xmlns="http://www.w3.org/2000/svg" xml:space="preserve" width="100%" height="100%" version="1.1" style="shape-rendering:geometricPrecision; text-rendering:geometricPrecision; image-rendering:optimizeQuality; fill-rule:evenodd; clip-rule:evenodd"
viewBox="0 0 2600 2600"
 xmlns:xlink="http://www.w3.org/1999/xlink">
 <defs>
  <style type="text/css">
   <![CDATA[
    .fil0 {fill:none}
    .fil1 {fill:black}
   ]]>
  </style>
 </defs>
 <g id="Layer_x0020_1">
  <metadata id="CorelCorpID_0Corel-Layer"/>
  <g id="_2307272650064">
   <rect class="fil0" width="2600" height="2600"/>
   <path class="fil1" d="M764 2203l1072 0 0 -1524 85 0 0 -56 -395 0 0 -226 -452 0 0 226 -395 0 0 56 85 0 0 1524zm677 -1242l57 0 0 960 -57 0 0 -960zm-339 0l57 0 0 960 -57 0 0 -960zm29 -508l338 0 0 170 -338 0 0 -170zm649 226l0 1468 -960 0 0 -1468 960 0z"/>
  </g>
 </g>
</svg>
