<?xml version="1.0" encoding="UTF-8"?>
<!DOCTYPE svg PUBLIC "-//W3C//DTD SVG 1.1//EN" "http://www.w3.org/Graphics/SVG/1.1/DTD/svg11.dtd">
<!-- Creator: CorelDRAW X7 -->
<svg xmlns="http://www.w3.org/2000/svg" xml:space="preserve" width="100%" height="100%" version="1.1" style="shape-rendering:geometricPrecision; text-rendering:geometricPrecision; image-rendering:optimizeQuality; fill-rule:evenodd; clip-rule:evenodd"
viewBox="0 0 2600 2600"
 xmlns:xlink="http://www.w3.org/1999/xlink">
 <defs>
  <style type="text/css">
   <![CDATA[
    .fil0 {fill:none}
    .fil1 {fill:black}
   ]]>
  </style>
 </defs>
 <g id="Layer_x0020_1">
  <metadata id="CorelCorpID_0Corel-Layer"/>
  <g id="_2724830385872">
   <rect class="fil0" width="2600" height="2600"/>
   <path class="fil1" d="M1808 397l-1411 0 0 1806 1806 0 0 -1451 -355 -355 -40 0zm-1016 1524l1016 0 0 56 -1016 0 0 -56zm0 -226l1016 0 0 57 -1016 0 0 -57zm0 -226l1016 0 0 57 -1016 0 0 -57zm960 -1016l0 480 -903 0 0 -480 903 0zm-1129 1694l0 -847 1354 0 0 847 -1354 0zm1524 0l-113 0 0 -903 -1468 0 0 903 -113 0 0 -1694 339 0 0 537 1016 0 0 -537 17 0 322 322 0 1372z"/>
  </g>
 </g>
</svg>
