<?xml version="1.0" encoding="UTF-8"?>
<!DOCTYPE svg PUBLIC "-//W3C//DTD SVG 1.1//EN" "http://www.w3.org/Graphics/SVG/1.1/DTD/svg11.dtd">
<!-- Creator: CorelDRAW X7 -->
<svg xmlns="http://www.w3.org/2000/svg" xml:space="preserve" width="100%" height="100%" version="1.1" style="shape-rendering:geometricPrecision; text-rendering:geometricPrecision; image-rendering:optimizeQuality; fill-rule:evenodd; clip-rule:evenodd"
viewBox="0 0 2600 2600"
 xmlns:xlink="http://www.w3.org/1999/xlink">
 <defs>
  <style type="text/css">
   <![CDATA[
    .fil0 {fill:none}
    .fil1 {fill:black}
   ]]>
  </style>
 </defs>
 <g id="Layer_x0020_1">
  <metadata id="CorelCorpID_0Corel-Layer"/>
  <g id="_2724756008208">
   <rect class="fil0" width="2600" height="2600"/>
   <path class="fil1" d="M1413 780l395 -395 407 407 -395 395 113 113 -915 915 -633 -633 915 -915 113 113zm149 49l40 39 254 -254 -40 -39 -254 254zm424 -85l-254 254 40 40 253 -254 -39 -40zm149 48l-327 -327 -355 355 327 327 355 -355zm-1117 1343l835 -835 -73 -73 -407 -407 -73 -73 -835 835 553 553z"/>
  </g>
 </g>
</svg>
