<?xml version="1.0" encoding="UTF-8"?>
<!DOCTYPE svg PUBLIC "-//W3C//DTD SVG 1.1//EN" "http://www.w3.org/Graphics/SVG/1.1/DTD/svg11.dtd">
<!-- Creator: CorelDRAW X7 -->
<svg xmlns="http://www.w3.org/2000/svg" xml:space="preserve" width="100%" height="100%" version="1.1" style="shape-rendering:geometricPrecision; text-rendering:geometricPrecision; image-rendering:optimizeQuality; fill-rule:evenodd; clip-rule:evenodd"
viewBox="0 0 26000 26000"
 xmlns:xlink="http://www.w3.org/1999/xlink">
 <defs>
  <style type="text/css">
   <![CDATA[
    .fil0 {fill:none}
    .fil1 {fill:black}
   ]]>
  </style>
 </defs>
 <g id="Layer_x0020_1">
  <metadata id="CorelCorpID_0Corel-Layer"/>
  <g id="_2278934621040">
   <rect class="fil0" width="26000" height="26000"/>
   <path class="fil1" d="M11870 2619l565 0 0 1643c377,-16 754,-11 1130,17l0 -1660 565 0 0 1719c1286,174 2499,613 3396,1306 551,427 996,954 1298,1580 285,590 443,1263 443,2018l-183 0 -100 0 -282 0c0,-126 -5,-249 -15,-370 -41,-519 -169,-987 -370,-1403 -263,-545 -652,-1005 -1136,-1379 -715,-553 -1659,-929 -2681,-1122 -122,-24 -246,-44 -370,-62l0 8036c1178,242 2300,527 3188,1012 286,156 549,331 781,530 236,201 442,429 612,687 539,817 667,1816 464,2764 -206,968 -760,1887 -1576,2507 -922,702 -2163,1116 -3469,1254l0 1685 -565 0 0 -1643c-171,7 -342,10 -513,9 -206,-2 -412,-11 -617,-26l0 1660 -565 0 0 -1719c-1286,-174 -2499,-613 -3396,-1306 -551,-427 -996,-954 -1298,-1580 -285,-589 -443,-1263 -443,-2018l283 0 282 0c0,91 3,182 8,270 32,559 163,1060 377,1503 263,545 652,1005 1136,1379 744,576 1736,960 2805,1145 82,14 164,27 246,39l0 -7359 0 -661c-1925,-398 -3712,-925 -4581,-2245 -538,-817 -667,-1816 -464,-2764 207,-967 760,-1887 1576,-2507 922,-702 2163,-1116 3469,-1254l0 -1685zm565 2207l0 7786c218,43 436,85 654,126 159,31 318,61 476,92l0 -7986c-376,-30 -753,-36 -1130,-18zm0 8361l0 196 0 7774c206,16 414,25 621,27 170,2 340,-2 509,-9l0 -7770c-193,-38 -387,-75 -582,-113 -182,-35 -365,-70 -548,-105zm-565 -690l0 -7627c-1187,133 -2304,508 -3129,1136 -705,536 -1185,1334 -1365,2176 -173,809 -67,1655 383,2338 736,1117 2347,1606 4111,1977zm2260 8633l4 0c1185,-133 2301,-509 3125,-1136 705,-536 1185,-1334 1365,-2176 173,-809 67,-1655 -383,-2338 -138,-210 -310,-398 -509,-568 -202,-174 -433,-327 -684,-464 -769,-420 -1763,-686 -2822,-910l-96 -20 0 7612z"/>
  </g>
 </g>
</svg>
