<?xml version="1.0" encoding="UTF-8"?>
<!DOCTYPE svg PUBLIC "-//W3C//DTD SVG 1.1//EN" "http://www.w3.org/Graphics/SVG/1.1/DTD/svg11.dtd">
<!-- Creator: CorelDRAW X7 -->
<svg xmlns="http://www.w3.org/2000/svg" xml:space="preserve" width="100%" height="100%" version="1.1" style="shape-rendering:geometricPrecision; text-rendering:geometricPrecision; image-rendering:optimizeQuality; fill-rule:evenodd; clip-rule:evenodd"
viewBox="0 0 26000 26000"
 xmlns:xlink="http://www.w3.org/1999/xlink">
 <defs>
  <style type="text/css">
   <![CDATA[
    .fil0 {fill:none}
    .fil1 {fill:black}
   ]]>
  </style>
 </defs>
 <g id="Layer_x0020_1">
  <metadata id="CorelCorpID_0Corel-Layer"/>
  <g id="_2280505280640">
   <rect class="fil0" width="26000" height="26000"/>
   <path class="fil1" d="M13000 3969c-2412,0 -4680,940 -6386,2646 -1706,1705 -2646,3973 -2646,6384 0,2413 940,4680 2646,6386 1706,1706 3974,2646 6386,2646 2413,0 4680,-940 6386,-2646 1706,-1706 2646,-3973 2646,-6386 0,-2411 -940,-4679 -2646,-6384 -1706,-1706 -3973,-2646 -6386,-2646zm3669 6207c0,-497 -89,-936 -250,-1315 -169,-399 -420,-736 -731,-1010 -615,-542 -1495,-851 -2405,-918l0 5726 154 154c908,201 1790,425 2474,850 193,120 372,256 531,411 162,158 303,334 418,532 338,584 436,1288 337,1967l2094 2095c1406,-1559 2176,-3554 2176,-5669 0,-2261 -881,-4386 -2479,-5986 -1600,-1598 -3727,-2480 -5988,-2480 -2114,0 -4109,770 -5666,2177l1752 1752c192,-423 464,-805 805,-1100 737,-638 1773,-968 2827,-1003l0 -978 565 0 0 988c1043,69 2061,426 2778,1058 372,328 673,733 877,1214 190,449 296,961 296,1535l-182 0 -100 0 -283 0zm372 7040c-187,551 -507,1054 -932,1422 -737,638 -1773,968 -2826,1003l0 978 -565 0 0 -987c-1043,-70 -2062,-427 -2779,-1059 -372,-328 -673,-733 -877,-1213 -190,-450 -296,-962 -296,-1536l282 0 283 0c0,497 89,936 250,1315 169,399 420,736 731,1010 615,542 1495,852 2406,918l0 -5833c-1472,-324 -2912,-691 -3578,-1840 -362,-625 -448,-1388 -312,-2111 14,-78 31,-154 51,-231l-1951 -1951c-1546,1589 -2395,3678 -2395,5898 0,2262 881,4388 2481,5988 1598,1598 3725,2479 5986,2479 2220,0 4310,-849 5899,-2392l-1858 -1858zm-7524 -8323l3201 3201 0 -5172c-926,34 -1827,319 -2458,866 -331,286 -584,675 -743,1105zm4685 4686l2468 2467c-4,-411 -98,-812 -298,-1157 -89,-153 -197,-289 -323,-411 -127,-124 -274,-236 -436,-336 -393,-244 -881,-419 -1411,-563zm2385 3182l-3304 -3304 0 5621c925,-34 1826,-319 2458,-866 416,-361 711,-886 846,-1451zm-4175 -4175l-3054 -3054c-76,552 3,1117 270,1579 487,841 1590,1197 2784,1475z"/>
  </g>
 </g>
</svg>
