<?xml version="1.0" encoding="UTF-8"?>
<!DOCTYPE svg PUBLIC "-//W3C//DTD SVG 1.1//EN" "http://www.w3.org/Graphics/SVG/1.1/DTD/svg11.dtd">
<!-- Creator: CorelDRAW X7 -->
<svg xmlns="http://www.w3.org/2000/svg" xml:space="preserve" width="100%" height="100%" version="1.1" style="shape-rendering:geometricPrecision; text-rendering:geometricPrecision; image-rendering:optimizeQuality; fill-rule:evenodd; clip-rule:evenodd"
viewBox="0 0 2600 2600"
 xmlns:xlink="http://www.w3.org/1999/xlink">
 <defs>
  <style type="text/css">
   <![CDATA[
    .fil0 {fill:none}
    .fil1 {fill:black}
   ]]>
  </style>
 </defs>
 <g id="Layer_x0020_1">
  <metadata id="CorelCorpID_0Corel-Layer"/>
  <g id="_2724755986640">
   <rect class="fil0" width="2600" height="2600"/>
   <path class="fil1" d="M1949 736l-342 0 0 -69 0 -4c-10,-67 -40,-127 -88,-175 -59,-59 -136,-91 -219,-91 -83,0 -161,33 -219,91l-1 0c-48,48 -78,109 -87,176l0 72 -342 0 0 1467 1298 0 0 -1467zm-398 0l-502 0 0 -66c8,-54 33,-103 71,-142l0 0c48,-48 112,-74 180,-75 68,0 131,27 179,75 39,38 64,87 72,141l0 67zm-558 56l0 169 56 0 0 -169 502 0 0 169 56 0 0 -169 286 0 0 1355 -1186 0 0 -1355 286 0z"/>
  </g>
 </g>
</svg>
