<?xml version="1.0" encoding="UTF-8"?>
<!DOCTYPE svg PUBLIC "-//W3C//DTD SVG 1.1//EN" "http://www.w3.org/Graphics/SVG/1.1/DTD/svg11.dtd">
<!-- Creator: CorelDRAW X7 -->
<svg xmlns="http://www.w3.org/2000/svg" xml:space="preserve" width="100%" height="100%" version="1.1" style="shape-rendering:geometricPrecision; text-rendering:geometricPrecision; image-rendering:optimizeQuality; fill-rule:evenodd; clip-rule:evenodd"
viewBox="0 0 26000 26000"
 xmlns:xlink="http://www.w3.org/1999/xlink">
 <defs>
  <style type="text/css">
   <![CDATA[
    .fil0 {fill:none}
    .fil1 {fill:black}
   ]]>
  </style>
 </defs>
 <g id="Layer_x0020_1">
  <metadata id="CorelCorpID_0Corel-Layer"/>
  <g id="_2278935214704">
   <rect class="fil0" width="26000" height="26000"/>
   <path class="fil1" d="M13000 21466c-2261,0 -4388,-881 -5987,-2479 -1599,-1600 -2479,-3726 -2479,-5988 0,-2261 880,-4386 2479,-5986 1599,-1598 3726,-2480 5987,-2480 2261,0 4388,882 5986,2480 1600,1600 2481,3725 2481,5986 0,2262 -881,4388 -2481,5988 -1598,1598 -3725,2479 -5986,2479zm283 -16085l0 988c1043,69 2061,426 2778,1058 372,328 673,733 877,1214 190,449 296,961 296,1535l-182 0 -100 0 -283 0c0,-497 -89,-936 -250,-1315 -169,-399 -420,-736 -731,-1010 -615,-542 -1495,-851 -2405,-918l0 5846 61 14c941,206 1860,431 2567,870 193,120 372,256 531,411 162,158 303,334 418,532 362,626 448,1388 313,2111 -139,740 -513,1444 -1064,1921 -737,638 -1773,968 -2826,1003l0 978 -565 0 0 -987c-1043,-70 -2062,-427 -2779,-1059 -372,-328 -673,-733 -877,-1213 -190,-450 -296,-962 -296,-1536l282 0 283 0c0,497 89,936 250,1315 169,399 420,736 731,1010 615,542 1495,852 2406,918l0 -5833c-1472,-324 -2912,-691 -3578,-1840 -362,-625 -448,-1388 -312,-2111 138,-740 512,-1444 1063,-1921 737,-638 1773,-968 2827,-1003l0 -978 565 0zm0 7976l0 5721c925,-34 1826,-319 2458,-866 453,-392 761,-979 878,-1598 112,-598 44,-1222 -247,-1725 -89,-153 -197,-289 -323,-411 -127,-124 -274,-236 -436,-336 -614,-381 -1458,-592 -2330,-785zm-565 -702l0 -5733c-926,34 -1827,319 -2458,866 -453,392 -762,979 -878,1598 -113,598 -45,1222 246,1725 528,913 1782,1254 3090,1544zm6668 -6040c-1706,-1706 -3974,-2646 -6386,-2646 -2413,0 -4680,940 -6386,2646 -1706,1705 -2646,3973 -2646,6384 0,2413 940,4680 2646,6386 1706,1706 3973,2646 6386,2646 2412,0 4680,-940 6386,-2646 1706,-1706 2646,-3973 2646,-6386 0,-2411 -940,-4679 -2646,-6384z"/>
  </g>
 </g>
</svg>
