<?xml version="1.0" encoding="UTF-8"?>
<!DOCTYPE svg PUBLIC "-//W3C//DTD SVG 1.1//EN" "http://www.w3.org/Graphics/SVG/1.1/DTD/svg11.dtd">
<!-- Creator: CorelDRAW X7 -->
<svg xmlns="http://www.w3.org/2000/svg" xml:space="preserve" width="100%" height="100%" version="1.1" style="shape-rendering:geometricPrecision; text-rendering:geometricPrecision; image-rendering:optimizeQuality; fill-rule:evenodd; clip-rule:evenodd"
viewBox="0 0 2600 2600"
 xmlns:xlink="http://www.w3.org/1999/xlink">
 <defs>
  <style type="text/css">
   <![CDATA[
    .fil0 {fill:none}
    .fil1 {fill:black}
   ]]>
  </style>
 </defs>
 <g id="Layer_x0020_1">
  <metadata id="CorelCorpID_0Corel-Layer"/>
  <g id="_2307279276608">
   <rect class="fil0" width="2600" height="2600"/>
   <path class="fil1" d="M1539 1441l-117 -117 214 -210 101 0c142,0 311,-66 311,-381l0 -44 -248 116 -86 -89 108 -251 -43 0c-315,0 -381,170 -381,311l0 101 -210 213 -342 -343 90 -90 -332 -199 -88 88 199 332 91 -91 343 343 -688 698 -5 5 -56 193 84 79 193 -48 705 -693 118 117 -85 85 576 576 209 -209 -576 -576 -85 84zm-952 -887l26 -25 232 139 -118 119 -140 -233zm62 1452l-149 37 -36 -34 42 -146 949 -963 0 -124c0,-158 92,-241 281,-251l-89 204 140 144 203 -95c-12,186 -97,280 -253,280l-124 0 -964 948zm1342 56l-496 -496 129 -130 496 497 -129 129z"/>
  </g>
 </g>
</svg>
