<?xml version="1.0" encoding="UTF-8"?>
<!DOCTYPE svg PUBLIC "-//W3C//DTD SVG 1.1//EN" "http://www.w3.org/Graphics/SVG/1.1/DTD/svg11.dtd">
<!-- Creator: CorelDRAW X7 -->
<svg xmlns="http://www.w3.org/2000/svg" xml:space="preserve" width="100%" height="100%" version="1.1" style="shape-rendering:geometricPrecision; text-rendering:geometricPrecision; image-rendering:optimizeQuality; fill-rule:evenodd; clip-rule:evenodd"
viewBox="0 0 26000 26000"
 xmlns:xlink="http://www.w3.org/1999/xlink">
 <defs>
  <style type="text/css">
   <![CDATA[
    .fil0 {fill:none}
    .fil1 {fill:black}
    .fil2 {fill:#D2AE6D}
   ]]>
  </style>
 </defs>
 <g id="Layer_x0020_1">
  <metadata id="CorelCorpID_0Corel-Layer"/>
  <g id="_2759367888352">
   <rect class="fil0" width="26000" height="26000"/>
   <g>
    <path class="fil1" d="M13000 3579l-2458 7068 -6831 0 5571 4334 -2480 7440 6198 -4648 6197 4648 -2479 -7440 5571 -4334 -6830 0 -2459 -7068zm3055 11202l2036 6105 -5091 -3819 -5090 3819 2035 -6106 -4589 -3568 5587 0 2057 -5914 2057 5914 5587 0 -4589 3569z"/>
    <polygon class="fil2" points="13000,5298 10943,11212 5356,11212 9945,14780 7910,20886 13000,17067 18091,20886 16055,14781 20644,11212 15057,11212 "/>
   </g>
  </g>
 </g>
</svg>
