<?xml version="1.0" encoding="UTF-8"?>
<!DOCTYPE svg PUBLIC "-//W3C//DTD SVG 1.1//EN" "http://www.w3.org/Graphics/SVG/1.1/DTD/svg11.dtd">
<!-- Creator: CorelDRAW X7 -->
<svg xmlns="http://www.w3.org/2000/svg" xml:space="preserve" width="100%" height="100%" version="1.1" style="shape-rendering:geometricPrecision; text-rendering:geometricPrecision; image-rendering:optimizeQuality; fill-rule:evenodd; clip-rule:evenodd"
viewBox="0 0 26000 26000"
 xmlns:xlink="http://www.w3.org/1999/xlink">
 <defs>
  <style type="text/css">
   <![CDATA[
    .fil0 {fill:none}
    .fil1 {fill:black}
   ]]>
  </style>
 </defs>
 <g id="Layer_x0020_1">
  <metadata id="CorelCorpID_0Corel-Layer"/>
  <g id="_2438159708592">
   <rect class="fil0" width="26000" height="26000"/>
   <path class="fil1" d="M13000 7920c825,0 1604,196 2293,545l1695 -2935c-1189,-636 -2546,-996 -3988,-996 -1442,0 -2799,360 -3988,996l1695 2935c689,-349 1468,-545 2293,-545zm-7385 -1906l399 -399 803 802c1616,-1518 3791,-2448 6183,-2448 2392,0 4567,930 6183,2449l803 -803 399 399 -802 803c1518,1616 2449,3791 2449,6183 0,2392 -931,4567 -2449,6183l802 803 -399 399 -803 -802c-1616,1518 -3791,2449 -6183,2449 -2392,0 -4567,-931 -6183,-2449l-803 802 -399 -399 802 -803c-1518,-1616 -2448,-3791 -2448,-6183 0,-2392 930,-4567 2449,-6183l-803 -803zm7385 15453c1442,0 2799,-361 3988,-997l-1695 -2935c-689,349 -1468,546 -2293,546 -825,0 -1604,-197 -2293,-546l-1695 2935c1189,636 2546,997 3988,997zm0 -3951c2494,0 4516,-2022 4516,-4516 0,-2494 -2022,-4515 -4516,-4515 -2494,0 -4515,2021 -4515,4515 0,2494 2021,4516 4515,4516zm-2781 -8769c-293,192 -565,414 -811,661 -290,289 -545,613 -758,966l-3350 -898c422,-922 1005,-1755 1713,-2463 456,-455 962,-859 1511,-1201l1695 2935zm-1840 2138c-295,644 -459,1360 -459,2115 0,755 164,1471 459,2114l-3299 885c-353,-932 -546,-1943 -546,-2999 0,-1056 193,-2066 546,-2999l3299 884zm271 4741c213,353 468,677 758,967 246,246 518,468 811,660l-1695 2935c-549,-342 -1055,-746 -1511,-1201 -708,-708 -1291,-1541 -1713,-2463l3350 -898zm7131 -6879c293,192 565,414 812,661 289,289 544,613 757,966l3350 -898c-422,-922 -1005,-1755 -1713,-2463 -455,-455 -962,-859 -1511,-1201l-1695 2935zm1840 2138c295,644 460,1360 460,2115 0,755 -165,1471 -460,2114l3299 885c353,-932 547,-1943 547,-2999 0,-1056 -194,-2066 -547,-2999l-3299 884zm-271 4741c-213,353 -468,677 -757,967 -247,246 -519,468 -812,660l1695 2935c549,-342 1056,-746 1511,-1201 708,-708 1291,-1541 1713,-2463l-3350 -898z"/>
  </g>
 </g>
</svg>
