<?xml version="1.0" encoding="UTF-8"?>
<!DOCTYPE svg PUBLIC "-//W3C//DTD SVG 1.1//EN" "http://www.w3.org/Graphics/SVG/1.1/DTD/svg11.dtd">
<!-- Creator: CorelDRAW X7 -->
<svg xmlns="http://www.w3.org/2000/svg" xml:space="preserve" width="100%" height="100%" version="1.1" style="shape-rendering:geometricPrecision; text-rendering:geometricPrecision; image-rendering:optimizeQuality; fill-rule:evenodd; clip-rule:evenodd"
viewBox="0 0 2600 2600"
 xmlns:xlink="http://www.w3.org/1999/xlink">
 <defs>
  <style type="text/css">
   <![CDATA[
    .fil0 {fill:none}
    .fil1 {fill:black}
   ]]>
  </style>
 </defs>
 <g id="Layer_x0020_1">
  <metadata id="CorelCorpID_0Corel-Layer"/>
  <g id="_2724758174080">
   <rect class="fil0" width="2600" height="2600"/>
   <path class="fil1" d="M397 2203l677 0 0 -56 -621 0 0 -1694 372 0 249 0 -175 178 42 40 230 -226c0,-16 0,-32 0,-48 -213,0 -426,0 -639,0l-135 0 0 1806zm1032 0c0,-16 0,-32 0,-48l230 -226 44 40 -177 178 284 0 337 0 0 -1694 -621 0 0 -56 677 0 0 1806 -393 0 -23 0c-119,0 -238,0 -358,0zm-157 -1101l56 0 0 621 -56 0 0 -621zm0 -225l56 0 0 113 -56 0 0 -113z"/>
  </g>
 </g>
</svg>
