<?xml version="1.0" encoding="UTF-8"?>
<!DOCTYPE svg PUBLIC "-//W3C//DTD SVG 1.1//EN" "http://www.w3.org/Graphics/SVG/1.1/DTD/svg11.dtd">
<!-- Creator: CorelDRAW X7 -->
<svg xmlns="http://www.w3.org/2000/svg" xml:space="preserve" width="100%" height="100%" version="1.1" style="shape-rendering:geometricPrecision; text-rendering:geometricPrecision; image-rendering:optimizeQuality; fill-rule:evenodd; clip-rule:evenodd"
viewBox="0 0 2600 2600"
 xmlns:xlink="http://www.w3.org/1999/xlink">
 <defs>
  <style type="text/css">
   <![CDATA[
    .fil0 {fill:none}
    .fil1 {fill:black}
   ]]>
  </style>
 </defs>
 <g id="Layer_x0020_1">
  <metadata id="CorelCorpID_0Corel-Layer"/>
  <g id="_2724752118736">
   <rect class="fil0" width="2600" height="2600"/>
   <path class="fil1" d="M1272 1102l56 0 0 621 -56 0 0 -621zm0 -225l56 0 0 113 -56 0 0 -113z"/>
   <path class="fil1" d="M1074 1780l-621 0 0 -960 142 0 479 0 -175 178 42 40 230 -226 0 -48 -97 0 -310 0 -367 0 0 1072 677 0 0 -56zm452 0l177 -178 -44 -40 -230 226 0 48 97 0 346 0 49 0 282 0 0 -1072 -556 0 -121 0 0 56 621 0 0 960 -275 0 -346 0z"/>
  </g>
 </g>
</svg>
