<?xml version="1.0" encoding="UTF-8"?>
<!DOCTYPE svg PUBLIC "-//W3C//DTD SVG 1.1//EN" "http://www.w3.org/Graphics/SVG/1.1/DTD/svg11.dtd">
<!-- Creator: CorelDRAW X7 -->
<svg xmlns="http://www.w3.org/2000/svg" xml:space="preserve" width="100%" height="100%" version="1.1" style="shape-rendering:geometricPrecision; text-rendering:geometricPrecision; image-rendering:optimizeQuality; fill-rule:evenodd; clip-rule:evenodd"
viewBox="0 0 2600 2600"
 xmlns:xlink="http://www.w3.org/1999/xlink">
 <defs>
  <style type="text/css">
   <![CDATA[
    .fil0 {fill:none}
    .fil1 {fill:black}
   ]]>
  </style>
 </defs>
 <g id="Layer_x0020_1">
  <metadata id="CorelCorpID_0Corel-Layer"/>
  <g id="_2724844969600">
   <rect class="fil0" width="2600" height="2600"/>
   <path class="fil1" d="M2203 877l0 1157c-324,0 -648,0 -972,0 -278,0 -556,0 -834,0l0 -1157 226 0 0 -141 56 0 0 -170 57 0 0 170 282 0 0 141c414,0 771,0 1185,0zm-438 381l113 0 0 -57 -113 0 0 57zm113 169l-113 0 0 57 113 0 0 -57zm-225 57l0 -57 -113 0 0 57 113 0zm-113 -226l113 0 0 -57 -113 0 0 57zm-113 0l0 -57 -113 0 0 57 113 0zm0 169l-113 0 0 57 113 0 0 -57zm451 226l-113 0 0 56 113 0 0 -56zm-225 56l0 -56 -113 0 0 28 0 28 56 0 57 0zm-226 0l0 -28 0 -28 -113 0 0 28 0 28 113 0zm-748 0l283 0c0,-263 0,-654 0,-917l-283 0c0,263 0,654 0,917zm-56 -776l-170 0 0 1045c301,0 601,0 902,0 264,0 528,0 792,0l0 -1045 -1129 0 0 833 -395 0 0 -833z"/>
  </g>
 </g>
</svg>
