<?xml version="1.0" encoding="UTF-8"?>
<!DOCTYPE svg PUBLIC "-//W3C//DTD SVG 1.1//EN" "http://www.w3.org/Graphics/SVG/1.1/DTD/svg11.dtd">
<!-- Creator: CorelDRAW X7 -->
<svg xmlns="http://www.w3.org/2000/svg" xml:space="preserve" width="100%" height="100%" version="1.1" style="shape-rendering:geometricPrecision; text-rendering:geometricPrecision; image-rendering:optimizeQuality; fill-rule:evenodd; clip-rule:evenodd"
viewBox="0 0 2600 2600"
 xmlns:xlink="http://www.w3.org/1999/xlink">
 <defs>
  <style type="text/css">
   <![CDATA[
    .fil0 {fill:none}
    .fil1 {fill:black}
   ]]>
  </style>
 </defs>
 <g id="Layer_x0020_1">
  <metadata id="CorelCorpID_0Corel-Layer"/>
  <g id="_2724833665088">
   <rect class="fil0" width="2600" height="2600"/>
   <path class="fil1" d="M1783 654l-254 254 40 40 254 -254 -40 -40zm-1129 1129l40 40 254 -254 -40 -40 -254 254zm-79 -80l39 40 255 -254 -40 -40 -254 254zm1640 -798l-1310 1310c-173,-174 -346,-347 -520,-520l435 -435 252 252 440 -440 -252 -252 435 -435c173,173 347,347 520,520zm-520 -440l-355 355 251 252 -519 519 -252 -251 -355 355c147,147 293,293 440,440l1230 -1230c-147,-147 -293,-293 -440,-440zm-246 364l40 39 254 -254 -40 -39 -254 254z"/>
  </g>
 </g>
</svg>
