<?xml version="1.0" encoding="UTF-8"?>
<!DOCTYPE svg PUBLIC "-//W3C//DTD SVG 1.1//EN" "http://www.w3.org/Graphics/SVG/1.1/DTD/svg11.dtd">
<!-- Creator: CorelDRAW X7 -->
<svg xmlns="http://www.w3.org/2000/svg" xml:space="preserve" width="100%" height="100%" version="1.1" style="shape-rendering:geometricPrecision; text-rendering:geometricPrecision; image-rendering:optimizeQuality; fill-rule:evenodd; clip-rule:evenodd"
viewBox="0 0 2600 2600"
 xmlns:xlink="http://www.w3.org/1999/xlink">
 <defs>
  <style type="text/css">
   <![CDATA[
    .fil1 {fill:none}
    .fil0 {fill:black}
   ]]>
  </style>
 </defs>
 <g id="Layer_x0020_1">
  <metadata id="CorelCorpID_0Corel-Layer"/>
  <g id="_2307288506096">
   <path class="fil0" d="M622 396l0 57c451,0 880,199 1170,547 229,273 355,620 355,977l57 0c0,-370 -131,-730 -368,-1014 -302,-360 -734,-567 -1214,-567zm229 1581c0,-126 -102,-228 -228,-228 -125,0 -227,102 -227,228 0,125 102,227 227,227 126,0 228,-102 228,-227zm-398 0c0,-94 76,-171 170,-171 94,0 171,77 171,171 0,94 -77,170 -171,170 -94,0 -170,-76 -170,-170zm796 0c0,-345 -288,-626 -627,-626l0 57c310,0 570,255 570,569l57 0zm-627 -944l0 56c480,0 889,398 889,888l56 0c0,-521 -437,-944 -945,-944zm1207 944l56 0c0,-696 -558,-1262 -1263,-1262l0 56c677,0 1207,541 1207,1206z"/>
   <rect class="fil1" width="2600" height="2600"/>
  </g>
 </g>
</svg>
