<?xml version="1.0" encoding="UTF-8"?>
<!DOCTYPE svg PUBLIC "-//W3C//DTD SVG 1.1//EN" "http://www.w3.org/Graphics/SVG/1.1/DTD/svg11.dtd">
<!-- Creator: CorelDRAW X7 -->
<svg xmlns="http://www.w3.org/2000/svg" xml:space="preserve" width="100%" height="100%" version="1.1" style="shape-rendering:geometricPrecision; text-rendering:geometricPrecision; image-rendering:optimizeQuality; fill-rule:evenodd; clip-rule:evenodd"
viewBox="0 0 2600 2600"
 xmlns:xlink="http://www.w3.org/1999/xlink">
 <defs>
  <style type="text/css">
   <![CDATA[
    .fil0 {fill:none}
    .fil1 {fill:black}
   ]]>
  </style>
 </defs>
 <g id="Layer_x0020_1">
  <metadata id="CorelCorpID_0Corel-Layer"/>
  <g id="_2724833662368">
   <rect class="fil0" width="2600" height="2600"/>
   <path class="fil1" d="M1588 730l57 0 0 225 225 0 0 57 -225 0 0 226 -57 0 0 -226 -226 0 0 -57 226 0 0 -225zm-536 778l126 -126c-95,-106 -154,-245 -154,-398 0,-327 266,-593 592,-593 327,0 593,266 593,593 0,326 -266,592 -593,592 -153,0 -292,-59 -398,-154l-126 126 84 85 -576 576 -209 -209 576 -576 85 84zm1100 -524c0,-296 -240,-536 -536,-536 -295,0 -536,240 -536,536 0,295 241,536 536,536 296,0 536,-241 536,-536zm-1552 1145l497 -496 -130 -130 -496 497 129 129z"/>
  </g>
 </g>
</svg>
