<?xml version="1.0" encoding="UTF-8"?>
<!DOCTYPE svg PUBLIC "-//W3C//DTD SVG 1.1//EN" "http://www.w3.org/Graphics/SVG/1.1/DTD/svg11.dtd">
<!-- Creator: CorelDRAW X7 -->
<svg xmlns="http://www.w3.org/2000/svg" xml:space="preserve" width="5.82823in" height="5.82823in" version="1.1" style="shape-rendering:geometricPrecision; text-rendering:geometricPrecision; image-rendering:optimizeQuality; fill-rule:evenodd; clip-rule:evenodd"
viewBox="0 0 58282 58282"
 xmlns:xlink="http://www.w3.org/1999/xlink">
 <defs>
  <style type="text/css">
   <![CDATA[
    .fil0 {fill:#EFE3CB}
   ]]>
  </style>
 </defs>
 <g id="Layer_x0020_1">
  <metadata id="CorelCorpID_0Corel-Layer"/>
  <path class="fil0" d="M58282 29141c0,-16094 -13047,-29141 -29141,-29141 -16094,0 -29141,13047 -29141,29141 0,16094 13047,29141 29141,29141 16094,0 29141,-13047 29141,-29141zm-23647 8249l0 5494 -21991 0 0 -5494 21991 0zm-21991 -16498l0 -5501c10995,0 21999,0 32995,0l-5502 5501c-9165,0 -18329,0 -27493,0l0 0zm32995 5494c0,5502 0,11004 0,16498l-5502 0 0 -10996 0 0 -27493 0 0 -5502c10995,0 21991,0 32995,0l0 0z"/>
 </g>
</svg>
