<?xml version="1.0" encoding="UTF-8"?>
<!DOCTYPE svg PUBLIC "-//W3C//DTD SVG 1.1//EN" "http://www.w3.org/Graphics/SVG/1.1/DTD/svg11.dtd">
<!-- Creator: CorelDRAW X7 -->
<svg xmlns="http://www.w3.org/2000/svg" xml:space="preserve" width="16.3611in" height="12.1824in" version="1.1" style="shape-rendering:geometricPrecision; text-rendering:geometricPrecision; image-rendering:optimizeQuality; fill-rule:evenodd; clip-rule:evenodd"
viewBox="0 0 163611 121824"
 xmlns:xlink="http://www.w3.org/1999/xlink">
 <defs>
  <style type="text/css">
   <![CDATA[
    .fil0 {fill:#F7F2E6}
   ]]>
  </style>
 </defs>
 <g id="Layer_x0020_1">
  <metadata id="CorelCorpID_0Corel-Layer"/>
  <path class="fil0" d="M24316 86861c-5912,-3704 -10309,-7985 -13193,-12543 -2721,-4299 -4087,-8837 -4100,-13351 -12,-4529 1328,-9075 4020,-13373 2842,-4537 7197,-8811 13069,-12528 11826,-7484 27454,-11234 43105,-11247 15652,-13 31264,3710 43057,11174 5797,3668 10127,7901 12993,12407 2773,4360 4164,8965 4173,13537 9,4585 -1363,9191 -4117,13543 -2821,4457 -7101,8653 -12846,12307 -5749,3656 -12413,6416 -19547,8281 -7488,1957 -15488,2936 -23495,2936l0 -10c-8007,0 -15994,-969 -23463,-2906 -7171,-1860 -13871,-4603 -19656,-8227zm20672 -14310c-3334,-1939 -5690,-4182 -7075,-6540 -977,-1662 -1468,-3380 -1472,-5076 -5,-1699 478,-3421 1449,-5090 1370,-2356 3699,-4596 6995,-6532 6105,-3587 14206,-5385 22339,-5392 8135,-6 16227,1778 22314,5355 3270,1921 5596,4149 6982,6497 999,1692 1500,3436 1503,5154 3,1730 -491,3477 -1481,5162 -1360,2316 -3658,4521 -6901,6436 -2955,1744 -6390,3064 -10075,3958 -3868,939 -8031,1408 -12226,1408 -4189,0 -8350,-466 -12220,-1398 -3688,-888 -7141,-2202 -10132,-3942zm-1311 2262c-13084,-7611 -13136,-20100 -113,-27752l0 0c13023,-7652 34306,-7669 47295,-37l0 0c12988,7632 13039,20121 112,27753l0 0c-6474,3822 -15045,5735 -23631,5735l0 0c-8558,0 -17131,-1899 -23663,-5699zm11052 -20568c-6880,3683 -6853,9694 59,13357l0 0c6913,3663 18157,3656 24985,-17l0 0c6829,-3674 6802,-9684 -59,-13357l0 0c-3426,-1833 -7943,-2750 -12464,-2750l0 0c-4536,0 -9076,923 -12521,2767l0 0zm-1228 -2303c-2673,1430 -4527,3217 -5556,5158 -649,1225 -972,2512 -969,3821 3,1311 334,2602 992,3830 1044,1951 2915,3741 5602,5165 3831,2029 8809,3042 13743,3039 4941,-4 9905,-1026 13699,-3067 2619,-1409 4449,-3175 5480,-5101 666,-1243 998,-2546 995,-3866 -2,-1331 -336,-2637 -1003,-3877 -1035,-1925 -2886,-3697 -5542,-5119 -1893,-1013 -4062,-1774 -6364,-2282 -2375,-524 -4868,-786 -7328,-786 -2467,0 -4971,264 -7355,791 -2313,511 -4492,1275 -6394,2294zm-52852 49963c-218,-136 -434,-273 -649,-411l0 3075c18752,11506 43168,17256 67542,17255l0 0c24777,0 49509,-5942 68190,-17821l0 0c37299,-23719 37152,-62532 -327,-86250l0 0c-37130,-23498 -97742,-23661 -135405,-540l0 3077c111,-71 221,-141 332,-212 18369,-11624 42614,-17450 66878,-17470 24265,-20 48485,5763 66803,17356 9079,5745 15869,12387 20371,19467 4396,6914 6602,14233 6616,21520 14,7299 -2162,14619 -6530,21522 -4438,7013 -11149,13601 -20140,19319 -8939,5684 -19299,9976 -30390,12874 -11574,3025 -23968,4538 -36398,4538l0 10c-12363,1 -24736,-1505 -36347,-4516 -11132,-2887 -21543,-7152 -30546,-12793zm12913 -73652c-5579,3409 -10099,7226 -13562,11294l0 -3895c3322,-3450 7389,-6691 12201,-9630 7488,-4575 16117,-8023 25319,-10344 9498,-2396 19642,-3594 29796,-3594 10118,1 20220,1191 29672,3572 9157,2306 17739,5732 25181,10279 8220,5022 14281,10936 18174,17278 3482,5673 5230,11690 5241,17734 11,6038 -1716,12053 -5182,17726 -3847,6297 -9840,12169 -17976,17164 -15067,9250 -34951,13885 -54849,13901 -19895,16 -39866,-4585 -55108,-13805 -4927,-2980 -9084,-6278 -12469,-9796l0 -3897c3517,4132 8121,8005 13820,11451l0 0c29672,17949 77933,17910 107244,-86l0 0c29313,-17994 29197,-47443 -257,-65439l0 0c-14699,-8981 -34088,-13470 -53491,-13471l0 0c-19474,-1 -38961,4520 -53754,13558l0 0zm9372 60819c-24611,-15419 -24707,-40717 -214,-56217l0 0c24493,-15500 64518,-15533 88946,-74l0 0c24429,15460 24525,40757 214,56217l0 0c-12177,7742 -28296,11616 -44445,11616 -16095,0 -32218,-3846 -44501,-11542zm13059 -45888c-17189,9794 -17122,25778 149,35521l0 0c17272,9741 45362,9721 62425,-47l0 0c17061,-9769 16993,-25752 -151,-35521l0 0c-8556,-4875 -19842,-7311 -31136,-7312l0 0c-11335,0 -22677,2453 -31287,7359l0 0zm-1290 -2272c-5511,3139 -9417,6925 -11712,10994 -1646,2917 -2464,5969 -2456,9034 8,3079 840,6133 2495,9039 2319,4070 6266,7858 11833,10998 9036,5097 20837,7639 32571,7631 11752,-9 23509,-2569 32433,-7678 5412,-3099 9266,-6833 11556,-10852 1676,-2942 2511,-6032 2506,-9144 -6,-3123 -850,-6218 -2533,-9157 -2308,-4032 -6208,-7788 -11690,-10912 -4424,-2521 -9511,-4417 -14929,-5689 -5567,-1307 -11523,-1961 -17497,-1961l0 -11c-5965,0 -11946,662 -17567,1984 -5445,1280 -10560,3188 -15010,5724z"/>
 </g>
</svg>
