<?xml version="1.0" encoding="UTF-8"?>
<!DOCTYPE svg PUBLIC "-//W3C//DTD SVG 1.1//EN" "http://www.w3.org/Graphics/SVG/1.1/DTD/svg11.dtd">
<!-- Creator: CorelDRAW X7 -->
<svg xmlns="http://www.w3.org/2000/svg" xml:space="preserve" width="11.4657in" height="8.9361in" version="1.1" style="shape-rendering:geometricPrecision; text-rendering:geometricPrecision; image-rendering:optimizeQuality; fill-rule:evenodd; clip-rule:evenodd"
viewBox="0 0 114657 89361"
 xmlns:xlink="http://www.w3.org/1999/xlink">
 <defs>
  <style type="text/css">
   <![CDATA[
    .fil46 {fill:#657AA9}
    .fil20 {fill:#7C94CA}
    .fil44 {fill:#899FCF}
    .fil40 {fill:#8C89C1}
    .fil57 {fill:#9B98C9}
    .fil33 {fill:#A5A2CE}
    .fil45 {fill:#A5B7DB}
    .fil34 {fill:#AABADC}
    .fil37 {fill:#AEBEDE}
    .fil68 {fill:#BB9B61}
    .fil61 {fill:#BBB8DA}
    .fil2 {fill:#BDBBDB}
    .fil47 {fill:#C1C0DF}
    .fil29 {fill:#C7A76C}
    .fil1 {fill:#CECBE4}
    .fil6 {fill:#D6BB8A}
    .fil28 {fill:#D7B67C}
    .fil66 {fill:#D7B77D}
    .fil48 {fill:#D8DBEE}
    .fil32 {fill:#D9D7EA}
    .fil70 {fill:#DFC596}
    .fil64 {fill:#E0E6F3}
    .fil71 {fill:#E3CCA2}
    .fil72 {fill:#EBDABB}
    .fil35 {fill:#EBEFF7}
    .fil59 {fill:#EED5AB}
    .fil63 {fill:#EFF2F9}
    .fil69 {fill:#F1E5CF}
    .fil54 {fill:#F8F9FC}
    .fil38 {fill:#FBFCFE}
    .fil65 {fill:white}
    .fil17 {fill:#657AA9;fill-rule:nonzero}
    .fil53 {fill:#6D81AF;fill-rule:nonzero}
    .fil39 {fill:#7084B0;fill-rule:nonzero}
    .fil24 {fill:#7C94CA;fill-rule:nonzero}
    .fil18 {fill:#899FCF;fill-rule:nonzero}
    .fil42 {fill:#8C89C1;fill-rule:nonzero}
    .fil55 {fill:#8CA0CD;fill-rule:nonzero}
    .fil50 {fill:#93A7D4;fill-rule:nonzero}
    .fil31 {fill:#9B98C9;fill-rule:nonzero}
    .fil9 {fill:#A38755;fill-rule:nonzero}
    .fil52 {fill:#A58D63;fill-rule:nonzero}
    .fil22 {fill:#A5B7DB;fill-rule:nonzero}
    .fil36 {fill:#AABADC;fill-rule:nonzero}
    .fil43 {fill:#ABBBE0;fill-rule:nonzero}
    .fil11 {fill:#B3C1E0;fill-rule:nonzero}
    .fil19 {fill:#B7C4E3;fill-rule:nonzero}
    .fil51 {fill:#B7C4E3;fill-rule:nonzero}
    .fil21 {fill:#B8C5E2;fill-rule:nonzero}
    .fil41 {fill:#BEBCDC;fill-rule:nonzero}
    .fil26 {fill:#C7A76C;fill-rule:nonzero}
    .fil4 {fill:#D4B47A;fill-rule:nonzero}
    .fil49 {fill:#D4B887;fill-rule:nonzero}
    .fil67 {fill:#D6BB8A;fill-rule:nonzero}
    .fil27 {fill:#D7B67C;fill-rule:nonzero}
    .fil12 {fill:#D7B77D;fill-rule:nonzero}
    .fil62 {fill:#D8DBEE;fill-rule:nonzero}
    .fil58 {fill:#D9D7EA;fill-rule:nonzero}
    .fil7 {fill:#DBBE8A;fill-rule:nonzero}
    .fil56 {fill:#DFC596;fill-rule:nonzero}
    .fil25 {fill:#E2CBA1;fill-rule:nonzero}
    .fil10 {fill:#E3CDA4;fill-rule:nonzero}
    .fil23 {fill:#E4E9F4;fill-rule:nonzero}
    .fil3 {fill:#E6D1AB;fill-rule:nonzero}
    .fil16 {fill:#E6D2AE;fill-rule:nonzero}
    .fil30 {fill:#E9D1A9;fill-rule:nonzero}
    .fil0 {fill:#E9E7F2;fill-rule:nonzero}
    .fil14 {fill:#F1E5CF;fill-rule:nonzero}
    .fil5 {fill:#F4E3C8;fill-rule:nonzero}
    .fil15 {fill:#FBF7F0;fill-rule:nonzero}
    .fil13 {fill:#FBFCFE;fill-rule:nonzero}
    .fil60 {fill:#FCE9CA;fill-rule:nonzero}
    .fil8 {fill:white;fill-rule:nonzero}
   ]]>
  </style>
 </defs>
 <g id="Layer_x0020_1">
  <metadata id="CorelCorpID_0Corel-Layer"/>
  <g id="_2897776814704">
   <g>
    <g>
     <polygon class="fil0" points="46679,17668 80747,37223 80818,65823 46679,46226 "/>
     <g>
      <path class="fil1" d="M56792 39761l6621 3822 -27 9565 -6621 -3822 27 -9565zm7338 13817l27 -9565 13888 8018 -28 9565 -13887 -8018zm14016 -2944l-21350 -12327 3 -1084 21350 12326 -3 1085zm5 -1994l-21349 -12326 3 -1085 21349 12326 -3 1085zm6 -1994l-21350 -12326 3 -1086 21350 12326 -3 1086zm6 -1996l-21350 -12326 3 -1084 21350 12326 -3 1084zm5 -1993l-21349 -12326 3 -1085 21349 12326 -3 1085zm-22542 -14101l-57 20079 -7302 -4216 57 -20079 7302 4216zm24394 35910l67 -23498 -33408 -19292 0 23541 33341 19249z"/>
      <polygon class="fil2" points="70886,50304 70876,53834 72585,53052 "/>
     </g>
    </g>
    <g>
     <path class="fil3" d="M63971 52835l-4216 -2434c-177,-102 -278,-230 -301,-355l0 16057c-32,159 70,335 301,468l4216 2435c192,111 437,169 673,175l0 -16171c-236,-6 -481,-64 -673,-175z"/>
     <path class="fil4" d="M62900 70141l0 -10480 0 0 0 0c-20,96 -89,186 -210,256l-4397 2539c-154,89 -365,128 -583,123l0 10594c218,5 429,-34 583,-123l4397 -2539c167,-97 235,-232 210,-370z"/>
     <g>
      <path class="fil5" d="M69623 50349l-4396 2538c-321,185 -886,162 -1256,-52l-4216 -2434c-371,-214 -411,-540 -91,-725l4397 -2539c321,-185 886,-161 1256,52l4216 2435c371,213 411,540 90,725z"/>
      <path class="fil4" d="M69834 66149l0 -16057 0 0 0 0c-20,97 -89,187 -210,257l-4397 2538c-154,89 -365,128 -583,123l0 16171c218,5 429,-34 583,-123l4397 -2539c167,-96 235,-232 210,-370z"/>
      <path class="fil5" d="M62690 59917l-4397 2539c-321,185 -886,161 -1256,-52l-4216 -2435c-370,-213 -411,-540 -90,-725l4396 -2538c321,-185 886,-162 1256,52l4216 2434c371,214 411,540 91,725z"/>
      <path class="fil3" d="M57037 62404l-4216 -2435c-177,-102 -277,-229 -301,-355l0 10481c-32,159 70,335 301,468l4216 2434c192,111 437,170 673,176l0 -10594c-236,-6 -481,-64 -673,-175z"/>
      <path class="fil5" d="M55909 67859l-4397 2538c-320,185 -886,162 -1256,-52l-4216 -2434c-370,-214 -411,-540 -90,-725l4397 -2539c320,-185 885,-161 1255,53l4217 2434c370,214 410,540 90,725z"/>
      <path class="fil4" d="M56119 74057l0 -6455c0,0 0,0 0,0l0 0c-20,97 -89,187 -210,257l-4397 2538c-154,89 -365,129 -583,123l0 6568c218,6 429,-34 583,-123l4397 -2538c168,-97 235,-233 210,-370z"/>
      <path class="fil3" d="M50256 70345l-4216 -2434c-176,-102 -277,-230 -300,-355l0 6454c-33,159 70,336 300,469l4216 2434c193,111 437,169 673,175l0 -6568c-236,-5 -480,-64 -673,-175z"/>
      <polygon class="fil6" points="54030,66101 52748,65361 49062,67489 50343,68229 "/>
      <polygon class="fil6" points="56216,61166 57498,61906 62399,59076 61117,58336 "/>
      <polygon class="fil6" points="64201,50130 65482,50870 68587,49078 67306,48338 "/>
     </g>
    </g>
    <g>
     <polygon class="fil7" points="14753,50945 24654,56661 24654,55844 14753,50131 "/>
     <polygon class="fil8" points="14753,50131 27483,42779 37384,48495 24654,55844 "/>
     <polygon class="fil9" points="24654,56661 37384,49312 37384,48496 24654,55844 "/>
     <polygon class="fil7" points="14753,47657 24654,53374 24654,52557 14753,46844 "/>
     <polygon class="fil10" points="37384,45208 24655,52557 14753,46843 27483,39492 "/>
     <polygon class="fil9" points="24654,53374 37384,46025 37384,45208 24654,52557 "/>
     <path class="fil11" d="M14753 47657l0 0c-736,438 -898,1434 -338,2082l338 392 9901 5713 12730 -7349 0 -2470 -12730 7349 -9901 -5717z"/>
     <path class="fil12" d="M14527 46976l226 -133 0 814c-736,438 -898,1434 -338,2082l338 392 0 814 -696 -746c-912,-977 -683,-2548 470,-3223z"/>
     <polygon class="fil13" points="19704,47270 28183,42339 32422,44817 23979,49704 "/>
    </g>
    <g>
     <path class="fil8" d="M39011 33163c4,2 7,5 10,7 51,36 102,74 152,115 6,4 12,9 18,14 48,40 95,81 142,124 7,7 15,15 22,22 40,37 79,76 117,116 10,11 21,22 32,33 29,31 56,64 84,96 20,23 41,46 60,70 8,9 15,19 23,28 83,103 163,211 236,323 1,2 2,3 3,5 73,112 141,230 203,350 4,8 9,17 13,25 14,26 25,52 38,78 20,41 40,82 58,123 6,14 12,29 18,44 22,51 42,101 62,152 4,13 9,25 14,38 22,60 42,120 60,180 3,9 5,18 8,27 18,62 35,123 50,185 1,7 2,13 4,19 15,67 28,133 39,199 0,1 0,1 0,1 11,67 18,132 24,198 0,5 1,10 1,15 5,66 8,130 8,194 0,63 -3,124 -9,183 0,6 -1,11 -1,16 -3,29 -9,55 -13,83 -31,-13 -63,-24 -96,-39 -3,-1 -7,-3 -10,-5 -55,-25 -110,-53 -166,-86 -56,-32 -112,-68 -168,-106 -3,-2 -6,-5 -9,-7 -52,-36 -103,-74 -152,-115 -6,-4 -12,-9 -18,-14 -48,-40 -96,-81 -143,-125 -7,-6 -14,-14 -22,-21 -39,-37 -78,-76 -117,-116 -10,-12 -21,-23 -32,-34 -28,-31 -56,-63 -84,-95 -20,-23 -41,-46 -61,-70 -7,-10 -15,-20 -22,-30 -84,-103 -163,-210 -236,-322 -1,-2 -2,-4 -3,-5 -66,-101 -126,-207 -182,-314 -18,-34 -38,-68 -55,-102 -11,-23 -22,-45 -32,-68 -37,-77 -72,-155 -103,-234 -2,-5 -3,-9 -5,-14 -34,-87 -64,-173 -90,-261 -2,-6 -4,-13 -6,-19 -28,-94 -52,-187 -71,-280 -1,-4 -1,-9 -3,-13 -19,-96 -33,-192 -42,-286 0,-1 0,-1 0,-2 -8,-79 -11,-156 -11,-233 0,-64 3,-125 8,-184 1,-5 2,-10 2,-16 3,-29 8,-55 12,-83 33,12 64,24 97,39 4,1 7,3 11,5 55,25 110,53 166,86 56,32 112,68 167,106zm-282 -848c-24,14 -48,28 -72,42l-422 245c-37,22 -74,43 -110,64l-471 274c0,0 -1,0 -1,0 -50,30 -97,67 -140,107 -11,10 -22,20 -32,31 -42,43 -81,89 -115,143 -1,1 -2,1 -2,2 -23,36 -44,74 -63,114 -1,2 -1,3 -2,5 -2,4 -4,9 -6,13 -11,25 -22,51 -32,77 -5,14 -10,28 -14,42 -3,8 -6,16 -8,25 -3,7 -5,14 -8,21 -8,28 -15,57 -22,86 -2,10 -4,21 -6,32 -2,6 -3,13 -4,20 -2,10 -5,19 -6,30 -5,26 -9,53 -12,80 -2,15 -3,31 -5,46 0,5 -1,10 -1,15 -1,7 -2,13 -3,19 -2,26 -3,53 -4,79 -2,27 -2,54 -2,81l0 5c0,25 0,50 1,75 0,27 2,54 3,81 2,26 4,52 7,77 0,1 0,1 0,2 0,0 0,0 0,0 0,1 0,2 0,2 3,28 5,55 9,83 4,28 8,56 12,84 5,29 10,57 15,85 2,11 4,22 6,32 1,5 2,9 3,14 3,15 6,30 9,45 7,31 14,62 22,92 8,33 17,66 27,99 4,15 8,29 13,43 0,3 1,6 2,9 1,4 2,7 3,10 5,15 9,29 13,44 12,37 25,74 38,111 12,35 26,71 40,106 2,5 3,9 5,14 1,3 3,7 4,10 20,50 41,100 63,150 11,25 24,49 35,74 6,12 11,25 17,38 5,10 11,20 16,30 8,17 16,34 25,51 8,17 20,34 30,51 22,43 43,87 68,129 36,63 74,124 113,185 1,1 2,3 3,5 74,112 153,220 236,323 5,5 9,12 14,18 3,4 6,7 9,11 20,24 41,47 61,70 23,26 45,54 68,79 6,5 11,11 16,16 11,12 22,22 32,34 20,20 39,41 59,61 19,19 39,37 58,55 7,7 15,15 22,22 5,4 9,9 14,13 29,26 58,52 87,77 14,12 28,23 42,34 5,5 11,10 18,15 6,5 13,10 19,16 25,20 51,39 77,58 18,14 37,27 56,40 3,3 6,5 9,7 3,2 6,4 9,6 23,16 47,32 71,47 24,15 48,30 71,44 6,3 11,7 17,10 18,10 36,20 53,29 23,13 46,25 68,36 15,7 30,14 45,21 3,1 7,3 10,5 5,1 9,4 13,6 23,10 45,19 67,28 22,9 45,18 67,25 4,2 8,3 12,4 3,1 7,2 10,3 15,6 30,11 45,15 23,7 46,14 69,19 11,3 22,5 33,8 5,1 10,2 14,3 8,1 15,3 22,5 25,4 49,8 73,12 15,2 30,3 44,4 5,1 11,1 16,2 5,0 9,1 14,1 27,2 53,3 79,3 11,0 23,-1 34,-2 8,0 17,-1 26,-1 9,0 18,0 27,-1 32,-3 64,-8 96,-14 0,0 1,-1 2,-1 7,-1 14,-4 21,-6 32,-7 63,-15 94,-26 2,0 4,-2 7,-3 45,-16 88,-36 128,-59l0 0 0 0 0 0 0 0 1382 -803c51,-30 98,-67 142,-108 10,-10 21,-20 31,-30 42,-43 81,-90 115,-143 1,-1 2,-2 2,-2 23,-36 44,-74 63,-115 1,-1 1,-2 2,-4 2,-4 3,-8 5,-12 12,-26 23,-51 33,-79 5,-13 9,-27 14,-41 3,-8 5,-16 8,-25 3,-7 5,-14 7,-22 9,-27 16,-56 23,-85 2,-10 4,-21 6,-31 1,-7 3,-13 4,-20 2,-11 4,-20 6,-31 5,-26 9,-53 12,-80 2,-14 3,-30 5,-45 0,-5 1,-11 1,-16 1,-6 2,-13 2,-19 3,-26 4,-52 5,-79 1,-26 2,-53 2,-81l0 -4c0,-25 0,-51 -1,-76 -1,-27 -2,-54 -4,-81 0,-12 -2,-25 -3,-37 0,-5 -1,-10 -1,-16 -1,-9 -1,-19 -2,-28 -3,-28 -6,-55 -9,-82 -4,-29 -8,-57 -12,-85 -1,-1 -1,-1 -1,-2 0,0 0,-1 0,-1 -4,-28 -9,-55 -14,-83 -6,-30 -12,-60 -19,-91 -2,-8 -4,-16 -6,-25 -1,-6 -3,-13 -4,-20 -4,-15 -7,-31 -12,-47 -8,-33 -17,-66 -26,-99 -4,-13 -8,-26 -12,-39 -2,-8 -5,-17 -8,-26 -4,-13 -7,-27 -12,-41 -12,-37 -24,-74 -37,-111 -4,-9 -8,-19 -11,-28 -5,-13 -9,-25 -14,-38 -8,-21 -16,-43 -24,-64 -12,-30 -25,-59 -38,-89 -6,-14 -12,-29 -18,-43 -3,-6 -5,-13 -8,-18 -16,-36 -33,-70 -50,-105 -12,-26 -24,-52 -37,-78 -2,-3 -3,-7 -5,-10 -3,-5 -6,-10 -9,-16 -62,-119 -130,-237 -203,-350 -1,-1 -2,-3 -3,-4 -73,-112 -153,-220 -236,-323 -5,-6 -9,-12 -13,-18 -3,-4 -6,-7 -10,-11 -19,-24 -39,-46 -60,-69 -23,-27 -45,-54 -69,-80 -5,-5 -10,-10 -15,-16 -11,-11 -21,-22 -32,-33 -20,-21 -39,-42 -59,-62 -19,-19 -39,-37 -58,-55 -7,-7 -14,-14 -22,-21 -5,-4 -9,-9 -14,-14 -29,-26 -58,-51 -87,-76 -14,-12 -27,-23 -41,-34 -6,-5 -12,-10 -18,-15 -6,-5 -13,-11 -20,-16 -25,-20 -51,-40 -76,-58 -19,-14 -37,-27 -56,-40 -3,-2 -6,-5 -10,-7 -3,-2 -5,-4 -8,-6 -24,-17 -47,-32 -72,-48 -23,-14 -47,-29 -70,-43 -6,-3 -11,-6 -17,-9 -18,-11 -36,-21 -53,-30 -23,-13 -46,-25 -69,-36 -15,-7 -29,-14 -44,-21 -3,-1 -7,-3 -10,-5 -5,-2 -9,-4 -14,-6 -22,-10 -44,-19 -67,-28 -22,-9 -45,-18 -67,-26 -4,-1 -8,-2 -11,-3 -4,-1 -7,-3 -11,-4 -15,-5 -30,-10 -45,-14 -23,-8 -46,-14 -69,-20 -11,-2 -22,-4 -33,-7 -5,-1 -9,-2 -14,-3 -7,-2 -15,-3 -22,-5 -25,-5 -49,-9 -73,-12 -15,-2 -29,-3 -44,-4 -5,-1 -10,-1 -15,-2 -5,0 -10,-1 -15,-2 -27,-1 -53,-2 -79,-2 -11,0 -22,1 -34,2 -8,0 -17,0 -26,1 -9,0 -18,0 -27,1 -33,3 -65,8 -96,14 -1,0 -1,0 -2,1 -7,1 -13,4 -20,5 -32,8 -64,16 -95,26 -2,1 -5,3 -7,4 -45,16 -87,35 -127,58 -1,0 -1,1 -1,1l0 0 -307 178z"/>
     <path class="fil8" d="M39216 31021c7,5 13,10 20,15 113,79 223,162 332,250 13,10 26,21 39,32 105,86 209,176 310,271 16,15 33,31 49,47 86,81 171,167 254,254 23,24 47,48 70,72 62,67 123,138 184,208 44,51 88,100 131,152 65,78 126,160 189,241 33,44 69,87 102,133 77,105 151,213 224,323 16,23 33,45 48,69 88,134 171,270 251,408 24,41 45,83 68,124 55,99 110,197 161,298 28,55 53,112 81,169 43,89 86,177 126,268 14,31 26,63 40,95 47,110 92,221 134,332 10,28 21,56 31,83 48,131 92,261 132,393 6,19 11,38 17,58 40,134 76,269 108,403 3,14 6,28 10,42 33,145 61,289 84,432 0,2 1,3 1,4 23,145 40,288 52,430 1,11 1,23 2,35 11,142 18,283 17,421 0,139 -7,272 -19,400 -1,12 -2,23 -3,35 -12,118 -29,231 -50,340 -3,14 -6,29 -9,43 -21,106 -48,207 -78,303 -6,18 -12,36 -18,54 -30,90 -64,177 -101,259 -4,10 -8,20 -12,29 -45,95 -93,183 -147,266 -6,11 -15,20 -22,31 -3,4 -7,8 -10,13 -2,0 -4,1 -6,1 -38,3 -76,4 -115,5 -22,1 -43,1 -65,1 -31,0 -62,-2 -93,-3 -25,-1 -50,-2 -76,-4 -26,-2 -52,-5 -78,-8 -29,-3 -58,-6 -87,-11 -24,-3 -49,-7 -74,-12 -31,-5 -62,-11 -93,-17 -22,-5 -43,-9 -64,-14 -34,-8 -68,-16 -101,-25 -22,-6 -43,-12 -65,-18 -37,-11 -74,-23 -111,-35 -17,-5 -35,-11 -52,-17 -55,-19 -110,-39 -166,-61 -1,-1 -1,-1 -2,-1 -55,-22 -110,-46 -166,-71 -17,-8 -35,-17 -53,-25 -39,-19 -79,-38 -119,-59 -20,-10 -40,-20 -60,-31 -53,-28 -106,-56 -159,-87 -124,-71 -245,-149 -366,-232 -7,-5 -13,-10 -21,-15 -112,-79 -222,-162 -331,-250 -13,-11 -26,-21 -39,-32 -105,-86 -209,-176 -310,-271 -17,-15 -32,-31 -49,-46 -86,-82 -171,-167 -254,-254 -24,-25 -47,-49 -70,-73 -63,-67 -123,-138 -183,-207 -45,-52 -90,-101 -133,-154 -64,-77 -125,-157 -186,-237 -35,-46 -71,-90 -105,-136 -74,-101 -145,-205 -215,-309 -19,-29 -39,-55 -57,-84 -88,-133 -171,-269 -251,-408 -23,-39 -43,-79 -65,-118 -56,-100 -112,-201 -164,-303 -28,-55 -53,-111 -80,-167 -43,-90 -87,-179 -127,-270 -14,-31 -26,-63 -40,-94 -47,-110 -92,-221 -134,-333 -10,-27 -21,-55 -31,-83 -48,-130 -92,-261 -132,-392 -6,-20 -11,-39 -17,-58 -40,-135 -76,-269 -108,-403 -3,-15 -6,-28 -10,-42 -33,-145 -61,-289 -84,-432 0,-2 -1,-3 -1,-5 -23,-144 -40,-287 -52,-429 -1,-12 -2,-23 -3,-35 -11,-142 -17,-283 -17,-421 1,-139 8,-272 20,-400 1,-12 2,-23 3,-35 12,-118 29,-231 50,-340 3,-14 5,-29 9,-43 21,-106 48,-207 78,-303 5,-19 12,-36 17,-54 31,-91 65,-178 102,-260 4,-9 8,-20 12,-28 44,-95 93,-183 147,-266 7,-11 15,-21 22,-31 3,-5 7,-9 10,-14 3,0 5,0 7,0 38,-3 76,-5 115,-6 22,0 43,-1 65,-1 31,0 62,2 93,3 25,1 50,2 76,4 26,2 52,5 78,8 29,4 58,7 87,11 24,3 49,8 74,12 31,5 62,11 93,17 22,5 43,10 65,14 33,8 67,17 100,26 22,5 43,11 65,17 37,11 74,23 111,35 17,6 35,11 53,17 54,19 109,39 164,61 1,0 1,1 2,1 55,22 111,46 167,72 17,8 35,16 53,24 39,19 79,39 119,59 20,10 40,20 60,31 53,28 106,56 159,87 124,72 245,149 366,232zm-510 -1531c-31,-1 -62,-3 -93,-3 -8,0 -17,-1 -25,-1 -14,0 -27,2 -40,2 -39,1 -77,3 -115,5 -11,1 -23,1 -35,2 -8,1 -16,3 -24,3 -58,7 -115,15 -171,25 -5,1 -10,2 -15,2 -1,1 -1,1 -2,1 -80,16 -157,38 -232,64 -7,2 -14,3 -21,6 -5,2 -10,4 -15,6 -33,12 -65,26 -97,39 -15,7 -31,13 -46,20 -47,22 -93,45 -137,71l0 0 0 0 0 0 -282 164c-46,27 -93,54 -141,82l-346 201c-53,31 -106,62 -159,92l-292 171 -1 0 -161 93c-74,43 -143,93 -211,147 -20,16 -39,34 -59,51 -47,42 -93,86 -136,132 -19,21 -39,41 -57,62 -50,59 -97,121 -141,187 -7,10 -15,20 -23,31 -1,3 -3,5 -5,7 -50,79 -95,162 -137,250 -2,3 -3,6 -4,9 -4,9 -8,19 -12,28 -25,55 -50,111 -72,170 -11,29 -20,60 -30,90 -6,18 -12,36 -17,54 -6,16 -11,31 -16,48 -18,60 -34,123 -49,186 -5,23 -9,46 -14,69 -3,14 -6,29 -8,43 -5,23 -10,44 -14,67 -10,56 -18,114 -26,174 -4,32 -7,66 -10,99 -1,12 -3,23 -4,35 -1,14 -3,27 -4,41 -5,56 -8,114 -10,172 -3,58 -4,117 -5,176 0,4 0,7 0,11 0,54 1,109 3,164 1,59 4,117 8,177 1,26 4,53 6,80 1,12 2,23 3,35 2,21 3,41 5,62 6,59 12,119 20,179 8,61 16,123 26,185 0,1 1,2 1,3 0,2 0,4 1,5 9,59 19,118 31,178 12,65 25,131 40,197 4,19 9,38 13,57 3,14 7,28 10,42 8,34 16,68 24,102 18,72 38,144 58,217 8,28 17,56 26,85 6,19 11,38 17,57 9,29 17,58 26,87 26,81 54,162 82,243 8,21 16,42 24,63 10,27 21,54 31,82 17,46 34,92 52,138 26,66 54,131 82,196 14,31 26,62 40,93 5,13 10,26 16,39 35,78 74,155 112,233 26,55 51,110 79,165 3,7 6,14 10,21 49,96 102,189 154,283 22,39 42,79 65,117 80,139 163,275 251,409 17,27 37,53 55,80 71,105 142,211 217,312 34,46 69,90 104,135 55,72 109,145 165,214 7,8 15,16 22,24 43,53 88,102 132,153 50,58 98,117 149,172 11,12 23,24 35,36 23,25 46,48 69,73 43,44 86,90 129,134 41,41 84,80 126,120 16,15 32,31 48,46 10,10 20,20 30,29 63,58 126,113 190,168 30,25 61,50 91,74 13,11 26,22 39,32 14,12 28,24 42,35 56,44 111,87 167,128 41,30 81,59 122,87 7,5 14,10 21,15 6,4 12,9 18,13 52,35 104,70 157,103 51,33 103,65 155,95 12,7 24,14 36,21 38,23 77,44 115,65 15,8 30,15 44,23 20,10 40,21 60,31 15,7 31,16 46,23 24,13 49,23 73,35 18,8 35,17 53,25 7,3 14,7 22,10 48,22 96,42 144,61 0,0 1,1 2,1l0 0c49,20 98,38 147,55 6,2 12,4 18,6 18,6 35,12 53,18 25,8 50,16 75,24 12,4 24,7 36,10 22,6 43,12 64,18 17,4 34,9 50,14 17,4 34,7 52,11 21,5 42,10 63,14 12,2 23,6 35,8 20,4 39,6 59,10 25,4 50,8 74,12 9,1 18,3 26,4 21,3 41,4 60,6 27,3 53,6 79,8 8,1 16,2 23,3 18,1 35,1 53,1 31,2 62,3 93,3 8,0 17,1 26,1 13,0 26,-1 39,-2 39,0 77,-2 115,-5 11,-1 23,-1 35,-2 8,-1 16,-2 24,-3 58,-6 116,-14 172,-25 4,-1 9,-1 14,-2 0,0 1,-1 2,-1 80,-16 156,-38 231,-63 7,-3 14,-4 21,-6 6,-2 11,-5 16,-7 33,-12 65,-25 96,-39 16,-7 32,-13 47,-20 46,-22 92,-45 136,-71l0 0 0 0 548 -318 834 -485 0 0 0 0c74,-43 144,-93 211,-147 20,-16 39,-33 59,-50 47,-42 93,-86 137,-133 19,-20 38,-40 56,-61 50,-59 97,-121 142,-188 7,-10 15,-20 21,-30 2,-3 4,-5 6,-8 49,-77 95,-161 137,-249 1,-3 3,-6 4,-9 4,-9 8,-19 12,-29 25,-55 50,-110 71,-169 11,-29 20,-60 31,-91 5,-17 12,-35 17,-53 5,-16 11,-31 16,-48 18,-60 34,-122 49,-186 5,-22 9,-46 13,-69 4,-14 6,-29 9,-43 5,-23 10,-44 14,-66 9,-57 18,-115 26,-175 4,-32 7,-66 10,-100 1,-11 2,-22 3,-34 2,-14 3,-27 5,-41 4,-57 8,-114 10,-172 3,-58 4,-117 4,-176 0,-4 0,-8 0,-11 1,-55 0,-109 -2,-164 -2,-59 -4,-118 -8,-177 -2,-26 -4,-53 -6,-80 -1,-12 -2,-24 -3,-35 -2,-21 -3,-42 -5,-63 -6,-59 -12,-119 -20,-179 -8,-61 -17,-123 -27,-185 0,-1 0,-2 0,-3 0,-1 0,-2 -1,-4 -9,-59 -20,-119 -31,-179 -12,-66 -26,-132 -40,-198 -4,-18 -9,-37 -13,-55 -4,-14 -7,-28 -10,-42 -8,-35 -16,-69 -25,-104 -18,-72 -37,-144 -58,-216 -7,-28 -16,-56 -25,-84 -5,-19 -11,-38 -17,-57 -9,-30 -17,-59 -27,-89 -26,-81 -53,-162 -82,-243 -7,-21 -15,-41 -23,-61 -10,-28 -20,-55 -31,-83 -17,-46 -34,-93 -52,-139 -26,-65 -54,-129 -82,-193 -13,-32 -26,-64 -40,-96 -6,-13 -11,-26 -17,-39 -34,-77 -73,-153 -110,-229 -27,-56 -52,-113 -80,-168 -4,-8 -7,-15 -11,-22 -47,-94 -99,-185 -150,-277 -23,-41 -44,-82 -68,-123 -80,-138 -163,-275 -251,-408 -15,-24 -32,-47 -48,-70 -73,-109 -147,-217 -224,-323 -33,-45 -69,-89 -103,-134 -55,-72 -110,-145 -167,-215 -7,-9 -14,-16 -21,-24 -43,-52 -88,-101 -132,-152 -49,-58 -98,-117 -149,-173 -11,-12 -23,-23 -34,-35 -23,-25 -46,-48 -69,-72 -44,-45 -86,-92 -130,-135 -41,-41 -83,-81 -125,-120 -16,-15 -32,-31 -49,-46 -10,-10 -20,-20 -30,-30 -63,-57 -126,-113 -190,-167 -29,-25 -60,-49 -90,-74 -13,-11 -26,-22 -39,-32 -14,-12 -28,-24 -43,-36 -55,-43 -111,-86 -167,-127 -40,-30 -81,-58 -121,-87 -7,-5 -14,-10 -21,-15 -6,-4 -12,-9 -19,-13 -51,-36 -103,-70 -156,-103 -51,-33 -103,-65 -155,-95 -12,-7 -24,-14 -36,-21 -38,-22 -77,-44 -115,-65 -15,-8 -30,-15 -44,-22 -20,-11 -40,-21 -60,-31 -15,-8 -30,-17 -46,-24 -24,-13 -49,-23 -73,-35 -18,-8 -35,-17 -53,-25 -7,-3 -14,-6 -21,-10 -49,-22 -98,-42 -146,-62 -1,0 -1,0 -2,0 -49,-20 -97,-38 -145,-55 -7,-2 -13,-4 -19,-6 -18,-6 -35,-12 -53,-17 -25,-8 -50,-17 -74,-25 -13,-3 -25,-6 -37,-10 -22,-6 -43,-12 -65,-18 -16,-4 -33,-9 -49,-13 -17,-5 -34,-8 -51,-12 -22,-5 -43,-9 -65,-14 -11,-2 -22,-5 -33,-7 -21,-4 -40,-7 -60,-10 -25,-4 -50,-9 -74,-12 -9,-2 -17,-4 -26,-5 -20,-3 -40,-4 -60,-6 -27,-3 -53,-6 -79,-8 -8,-1 -16,-2 -23,-2 -18,-2 -35,-1 -53,-2z"/>
     <path class="fil9" d="M39130 28618c7,5 14,9 21,13 90,58 179,117 268,178 31,22 62,44 93,67 59,41 117,83 175,126 39,29 77,59 116,89 51,40 102,79 153,120 43,35 86,70 129,106 46,38 92,77 138,116 55,48 110,96 164,145 39,36 78,71 117,106 79,73 157,148 235,224 19,20 39,38 59,57 109,109 216,222 322,336 22,25 45,50 68,74 142,156 281,317 416,481 18,22 35,43 52,64 135,167 267,337 395,512 12,15 23,32 35,48 132,181 260,367 384,556 4,6 7,11 10,17 125,191 244,385 359,582 6,11 13,21 19,31 111,193 217,389 320,587 10,20 21,41 32,62 98,192 192,388 280,584 13,29 27,58 39,87 67,149 130,299 190,449 14,36 28,72 41,107 39,99 76,197 112,296 19,52 37,104 55,156 23,68 46,135 68,203 19,57 37,114 54,171 19,60 37,120 55,180 18,60 35,121 51,181 15,54 30,107 43,161 17,65 33,131 49,196 11,45 22,91 32,136 16,71 31,141 45,212 9,40 18,81 25,121 19,98 37,196 52,294 2,10 4,20 6,30 17,108 32,216 45,324 4,30 7,60 10,91 9,77 17,153 23,229 4,37 6,73 9,110 6,72 10,145 13,216 2,35 4,70 5,104 4,102 6,204 6,305 0,106 -3,210 -8,312 -1,29 -4,57 -5,86 -4,70 -9,140 -15,208 -3,39 -8,78 -12,117 -7,58 -13,116 -21,172 -5,42 -12,83 -18,124 -9,52 -17,103 -27,154 -9,46 -18,91 -27,136 -10,46 -20,91 -31,136 -13,52 -27,104 -41,155 -11,40 -22,80 -34,119 -19,61 -39,121 -60,180 -11,32 -22,65 -34,96 -38,99 -78,195 -121,288 -68,144 -143,279 -224,405 -58,91 -120,176 -184,257 -16,20 -32,39 -48,58 -39,47 -80,90 -121,133 -14,3 -28,7 -42,11 -17,3 -34,8 -52,12 -9,2 -19,3 -28,4 -87,17 -176,30 -266,39 -31,3 -62,6 -93,8 -59,5 -119,7 -179,9 -34,0 -68,1 -102,1 -48,0 -96,-2 -145,-4 -39,-2 -78,-4 -117,-7 -41,-3 -82,-8 -123,-12 -45,-5 -89,-10 -135,-17 -38,-5 -76,-12 -115,-19 -48,-8 -97,-16 -146,-27 -33,-7 -66,-14 -100,-22 -52,-12 -104,-25 -157,-39 -33,-9 -67,-18 -100,-28 -58,-16 -116,-35 -174,-54 -27,-8 -54,-17 -81,-26 -86,-30 -172,-61 -259,-96 0,0 -1,-1 -1,-1 -86,-34 -173,-72 -260,-112 -27,-12 -55,-25 -82,-38 -62,-29 -124,-59 -186,-91 -31,-16 -62,-32 -93,-48 -83,-44 -165,-88 -249,-137 -92,-53 -183,-108 -274,-166 -6,-4 -13,-8 -20,-12 -90,-57 -180,-117 -268,-178 -31,-22 -62,-44 -93,-66 -58,-42 -117,-84 -175,-127 -39,-29 -78,-59 -117,-89 -51,-39 -101,-79 -152,-119 -43,-35 -86,-71 -130,-107 -46,-39 -92,-77 -137,-116 -55,-48 -110,-97 -165,-146 -39,-35 -78,-69 -116,-105 -80,-74 -158,-149 -237,-226 -19,-19 -38,-37 -57,-56 -109,-108 -216,-221 -322,-335 -23,-25 -46,-50 -69,-75 -142,-156 -281,-316 -416,-481 -18,-21 -34,-42 -52,-64 -135,-166 -267,-336 -395,-511 -12,-16 -23,-32 -35,-48 -132,-182 -260,-367 -384,-556 -3,-6 -6,-11 -10,-17 -124,-191 -244,-386 -359,-583 -6,-10 -12,-20 -18,-30 -112,-193 -218,-389 -320,-587 -11,-20 -22,-41 -32,-61 -99,-193 -192,-388 -280,-585 -13,-28 -27,-57 -40,-86 -66,-149 -129,-299 -189,-449 -15,-36 -28,-72 -42,-108 -38,-98 -75,-197 -111,-296 -19,-51 -37,-103 -55,-155 -23,-68 -46,-135 -68,-203 -19,-57 -37,-114 -55,-171 -18,-60 -36,-120 -54,-179 -17,-61 -35,-122 -51,-183 -15,-53 -30,-106 -43,-160 -17,-65 -33,-130 -49,-195 -11,-46 -22,-91 -32,-137 -16,-70 -31,-141 -46,-212 -8,-40 -17,-81 -24,-121 -19,-98 -37,-196 -52,-294 -2,-10 -4,-20 -6,-30 -17,-108 -32,-216 -45,-323 -4,-31 -7,-61 -10,-91 -9,-77 -17,-153 -23,-230 -4,-36 -7,-73 -9,-109 -5,-73 -10,-145 -13,-217 -2,-35 -4,-69 -5,-103 -4,-103 -6,-205 -6,-305 0,-106 3,-210 8,-312 1,-29 3,-57 5,-86 4,-70 9,-140 15,-209 4,-39 8,-78 12,-116 7,-58 13,-116 21,-173 6,-42 12,-82 18,-123 9,-53 18,-104 27,-155 9,-46 18,-91 27,-136 10,-45 20,-91 31,-135 13,-53 27,-105 41,-156 11,-40 22,-80 34,-119 19,-61 39,-121 60,-180 11,-32 22,-65 34,-96 38,-99 78,-195 121,-288 34,-72 70,-142 107,-210 1,-1 2,-2 2,-3 37,-66 75,-130 115,-193 58,-90 120,-175 185,-257 16,-19 31,-39 47,-58 39,-46 81,-89 121,-133 14,-3 28,-7 42,-10 18,-4 35,-9 52,-12 10,-2 20,-3 29,-5 87,-17 176,-29 266,-39 31,-3 62,-5 93,-8 59,-4 118,-7 179,-8 34,-1 67,-2 102,-2 47,0 96,3 144,5 39,2 78,3 118,6 41,3 82,8 123,13 44,5 89,10 134,16 38,6 77,12 115,19 49,8 97,17 146,27 33,7 67,15 100,22 52,12 105,25 158,39 33,9 66,18 99,28 58,17 116,35 174,54 27,9 54,17 82,27 85,29 171,60 258,95 0,0 0,0 0,0 87,35 174,73 262,113 27,12 54,25 81,38 62,29 124,59 187,91 30,16 61,32 92,48 83,44 165,89 249,137 92,53 183,108 273,165zm8631 9574c-1,-22 -2,-44 -3,-65 -2,-46 -4,-92 -6,-138 -3,-54 -4,-108 -8,-162 -3,-42 -7,-84 -10,-125 -4,-49 -7,-98 -11,-146 -3,-33 -5,-65 -8,-97 -7,-69 -15,-139 -23,-208 -5,-40 -9,-81 -14,-121 -2,-14 -3,-28 -4,-42 -17,-127 -35,-254 -55,-382 0,-2 -1,-4 -1,-6 -2,-13 -5,-26 -7,-39 -18,-114 -37,-227 -59,-340 -3,-17 -7,-34 -10,-51 -11,-54 -22,-108 -33,-161 -14,-66 -26,-132 -40,-197 -7,-29 -14,-57 -20,-85 -14,-60 -29,-121 -43,-181 -12,-50 -23,-100 -36,-151 -9,-36 -19,-73 -29,-110 -18,-70 -37,-141 -57,-212 -11,-42 -22,-84 -33,-126 -11,-38 -24,-77 -35,-115 -24,-80 -48,-160 -73,-240 -12,-40 -23,-80 -36,-119 -11,-36 -24,-72 -36,-108 -29,-90 -60,-179 -91,-269 -14,-42 -27,-85 -42,-127 -10,-27 -21,-54 -31,-81 -47,-131 -97,-262 -148,-393 -14,-37 -27,-74 -41,-111 -5,-11 -9,-21 -13,-31 -80,-200 -165,-399 -252,-597 -8,-17 -14,-34 -22,-51 -27,-59 -55,-119 -82,-178 -31,-67 -62,-134 -93,-201 -40,-84 -82,-167 -123,-251 -32,-65 -63,-130 -96,-194 -8,-15 -15,-30 -22,-44 -37,-72 -76,-143 -114,-215 -31,-60 -62,-120 -95,-179 -50,-93 -102,-185 -154,-276 -29,-53 -58,-106 -89,-158 -64,-112 -131,-222 -198,-333 -19,-31 -37,-62 -56,-93 -86,-141 -175,-280 -265,-419 -26,-40 -54,-79 -80,-119 -65,-98 -130,-195 -197,-292 -36,-52 -73,-102 -109,-154 -59,-83 -117,-166 -177,-247 -41,-56 -83,-110 -124,-165 -57,-76 -114,-153 -173,-228 -43,-56 -88,-111 -133,-167 -43,-54 -85,-109 -129,-163 -15,-17 -29,-34 -43,-51 -48,-58 -97,-115 -145,-172 -57,-67 -115,-135 -173,-201 -49,-57 -99,-112 -149,-168 -39,-43 -77,-87 -116,-130 -15,-16 -30,-30 -45,-46 -140,-152 -283,-301 -428,-445 -3,-4 -6,-8 -10,-11 -22,-22 -45,-42 -67,-64 -103,-102 -207,-202 -313,-299 -14,-14 -28,-28 -42,-41 -37,-34 -75,-66 -112,-99 -73,-65 -146,-131 -219,-194 -21,-18 -41,-37 -61,-54 -41,-34 -81,-66 -121,-100 -58,-47 -115,-95 -173,-141 -21,-18 -42,-35 -63,-52 -46,-37 -93,-71 -139,-107 -52,-40 -103,-80 -155,-118 -17,-13 -34,-27 -51,-39 -60,-45 -121,-87 -182,-130 -41,-29 -82,-59 -123,-87 -10,-7 -19,-14 -29,-21 -107,-73 -214,-144 -323,-214 -1,0 -2,-1 -3,-2 -11,-7 -21,-12 -32,-19 -95,-60 -190,-119 -285,-175 -25,-15 -50,-29 -75,-43 -80,-47 -160,-91 -240,-134 -30,-17 -60,-31 -90,-47 -41,-22 -83,-44 -124,-64 -31,-16 -63,-34 -95,-50 -51,-25 -101,-47 -151,-71 -37,-17 -73,-35 -110,-52 -14,-6 -30,-14 -44,-21 -101,-45 -202,-87 -301,-127 -1,-1 -2,-1 -3,-1 -102,-41 -203,-79 -303,-114 -13,-5 -26,-9 -39,-13 -37,-13 -73,-24 -109,-36 -52,-17 -103,-35 -154,-50 -25,-8 -50,-14 -76,-21 -44,-13 -89,-25 -133,-37 -34,-9 -69,-20 -103,-28 -36,-9 -70,-15 -106,-24 -44,-10 -89,-20 -133,-29 -23,-5 -47,-11 -70,-16 -42,-8 -82,-13 -124,-20 -51,-9 -102,-18 -152,-25 -18,-3 -37,-7 -54,-9 -42,-6 -83,-8 -125,-13 -55,-6 -109,-12 -163,-17 -16,-1 -32,-3 -48,-4 -37,-3 -72,-2 -109,-4 -64,-3 -128,-6 -192,-6 -18,-1 -36,-2 -53,-2 -28,0 -55,3 -82,4 -80,1 -160,5 -238,11 -24,2 -48,1 -72,3 -32,3 -64,8 -97,12 -25,3 -49,5 -74,8 -89,12 -177,26 -264,43 -2,1 -5,2 -7,2 -24,5 -47,12 -70,17 -72,16 -144,33 -214,53 -34,9 -67,21 -101,31 -45,14 -91,27 -135,43 -11,4 -21,9 -32,13 -68,25 -134,53 -200,81 -32,14 -65,27 -96,41 -97,45 -191,94 -282,147l-1383 803c92,-53 186,-102 283,-147 31,-14 64,-27 95,-40 66,-29 133,-57 200,-82 55,-20 112,-38 168,-56 33,-10 67,-22 101,-31 70,-20 141,-37 214,-53 23,-5 46,-12 69,-17 90,-17 180,-32 272,-44 25,-3 49,-6 74,-9 56,-6 112,-10 169,-15 78,-6 158,-9 238,-11 45,-1 90,-2 135,-2 64,0 128,3 192,6 52,3 104,5 156,9 55,4 109,10 164,16 59,7 118,13 179,22 50,7 101,16 152,25 65,11 129,23 194,36 44,9 88,19 133,30 69,15 139,33 209,51 44,12 88,24 133,37 76,22 153,46 230,71 36,12 72,24 109,36 113,39 227,81 342,127 0,0 1,0 1,1 1,0 1,0 1,0 115,46 230,96 346,149 36,16 73,34 109,51 82,39 165,79 247,121 41,21 82,42 124,64 109,58 219,117 330,181 121,70 240,143 360,218 10,7 21,13 31,20 120,76 238,155 356,236 41,28 82,58 123,87 78,56 156,111 233,169 52,39 103,79 154,118 68,53 136,105 203,159 58,46 115,94 172,141 61,51 122,102 183,154 73,64 146,129 219,194 51,46 103,92 154,140 105,97 210,197 313,299 26,25 52,49 77,75 145,144 287,293 428,445 54,58 107,117 160,176 51,56 101,111 150,168 58,67 115,134 173,201 48,58 97,114 145,172 23,29 47,59 70,88 -11,-12 -21,-25 -32,-37 -11,-12 -22,-23 -33,-34 -106,-115 -213,-227 -322,-336 -3,-2 -5,-5 -8,-8 -16,-16 -34,-31 -50,-48 -78,-76 -157,-152 -236,-225 -11,-10 -21,-21 -32,-31 -28,-25 -56,-49 -84,-74 -55,-50 -110,-99 -165,-146 -15,-14 -31,-28 -46,-41 -30,-26 -61,-50 -91,-75 -44,-36 -87,-72 -130,-107 -16,-12 -32,-26 -48,-39 -34,-27 -70,-53 -105,-80 -38,-30 -77,-60 -116,-89 -13,-10 -25,-20 -38,-29 -46,-34 -91,-65 -137,-98 -31,-22 -62,-44 -93,-66 -7,-5 -14,-10 -21,-15 -81,-56 -162,-109 -243,-161 -1,-1 -3,-1 -4,-2 -6,-4 -14,-8 -21,-13 -72,-45 -144,-90 -217,-133 -19,-11 -37,-22 -56,-33 -60,-34 -120,-68 -181,-100 -22,-13 -45,-24 -68,-36 -31,-16 -61,-32 -92,-48 -24,-12 -48,-25 -72,-37 -39,-19 -77,-36 -115,-54 -27,-13 -54,-26 -81,-38 -11,-5 -23,-11 -34,-16 -76,-34 -152,-67 -227,-97l0 0c0,0 -1,0 -1,0 -77,-31 -153,-59 -229,-86 -10,-4 -19,-6 -29,-10 -27,-9 -54,-17 -82,-26 -38,-13 -78,-27 -116,-39 -19,-5 -38,-10 -58,-15 -33,-10 -66,-19 -99,-28 -26,-7 -52,-15 -78,-21 -27,-7 -53,-12 -80,-18 -33,-8 -66,-15 -99,-22 -18,-4 -36,-9 -53,-12 -32,-6 -62,-10 -94,-15 -38,-7 -76,-14 -115,-19 -13,-2 -27,-5 -40,-7 -32,-4 -63,-6 -94,-10 -41,-4 -82,-9 -123,-12 -12,-1 -24,-3 -36,-4 -27,-2 -54,-1 -82,-2 -48,-3 -96,-5 -144,-5 -13,0 -27,-2 -40,-1 -21,0 -41,2 -62,2 -60,2 -120,5 -179,9 -18,1 -36,1 -54,2 -13,2 -26,5 -39,6 -90,10 -179,22 -266,39 -7,1 -15,1 -22,3 -2,0 -4,1 -6,1 -18,4 -35,9 -53,13 -54,12 -108,24 -161,40 -26,7 -51,15 -76,23 -34,11 -68,20 -101,32 -9,3 -17,7 -25,10 -51,19 -101,40 -150,61 -24,11 -49,20 -73,31 -72,34 -143,71 -212,111l0 0 0 0 0 0 0 0 0 0 -579 336 -803 467 0 0 0 0 0 0 0 0c-87,50 -169,107 -250,167 -19,14 -39,29 -58,43 -79,62 -155,127 -228,198 -5,5 -10,10 -15,16 -68,67 -133,139 -196,215 -16,19 -32,38 -47,57 -65,82 -127,167 -185,258 -2,2 -4,4 -5,7 -38,60 -75,122 -110,185 -1,1 -1,2 -2,3 -36,65 -70,132 -102,200 -2,4 -3,7 -5,10 -43,93 -83,189 -121,289 -3,8 -7,16 -11,25 -8,22 -15,47 -23,70 -21,59 -41,119 -60,181 -5,16 -11,31 -16,48 -7,22 -12,47 -18,70 -15,51 -28,103 -41,156 -5,21 -11,42 -16,63 -6,24 -10,49 -15,73 -10,44 -18,90 -27,135 -4,24 -10,46 -14,70 -5,28 -8,57 -13,85 -6,41 -13,82 -18,123 -3,22 -7,42 -10,64 -4,35 -7,72 -11,109 -4,39 -9,77 -12,117 -1,16 -4,31 -5,47 -4,53 -7,107 -10,161 -2,29 -4,57 -5,86 -1,7 -1,14 -2,21 -4,90 -6,182 -6,275 0,5 0,10 0,16 0,85 1,170 3,256 1,16 2,33 3,49 1,34 3,69 4,103 2,41 4,82 6,123 2,31 5,62 8,94 3,36 5,73 8,110 2,24 4,48 6,72 5,52 12,104 18,156 3,31 6,62 10,93 1,10 2,20 3,30 13,96 26,192 41,288 1,1 1,3 1,4 2,10 4,20 5,30 14,86 28,171 45,256 2,12 5,26 8,38 7,41 16,81 24,122 11,49 20,98 30,148 5,21 11,42 16,63 10,46 21,91 32,137 9,38 17,75 26,113 7,27 15,55 22,83 14,53 29,107 43,160 9,31 17,63 26,94 8,29 18,58 26,87 17,60 36,120 54,180 9,30 18,60 27,90 9,27 19,54 28,82 22,67 45,135 68,202 11,32 21,63 32,95 7,20 16,40 23,61 36,99 73,197 111,295 11,28 20,57 32,84 3,8 6,16 10,24 60,150 123,300 189,449 6,13 10,25 16,38 7,16 16,32 23,48 89,197 182,392 281,585 3,7 6,14 9,21 7,13 15,26 22,40 103,198 209,394 321,588 6,9 12,19 17,29 115,197 235,392 360,583 3,6 7,11 10,17 124,189 252,374 384,556 12,16 23,33 35,48 128,175 260,345 395,512 11,13 21,27 32,41 6,8 13,15 20,22 135,165 274,325 416,481 12,13 23,27 35,40 11,12 23,23 33,35 106,114 214,227 323,336 2,2 5,5 7,7 17,17 34,32 50,48 78,77 157,153 237,226 10,10 21,21 31,31 28,25 57,49 85,74 54,49 109,98 165,146 15,13 30,28 46,41 30,25 61,50 91,75 43,36 86,72 130,107 16,12 31,26 47,39 35,27 70,53 105,80 39,30 78,60 117,89 13,10 25,20 38,29 45,34 91,65 137,98 31,22 61,45 93,66 7,5 14,10 21,15 81,56 162,109 243,161 1,1 2,1 4,2 7,5 14,9 21,13 72,46 144,90 217,133 19,11 37,22 56,33 60,35 121,68 181,101 23,12 45,23 68,35 31,17 62,32 92,48 24,12 49,26 72,37 39,19 77,36 114,54 28,13 55,26 83,39 11,5 22,11 34,16 75,34 151,66 226,96 0,0 0,0 1,0l0 0c77,31 153,60 229,86 10,4 20,7 30,10 27,10 54,18 81,27 39,12 78,26 116,38 20,5 39,10 58,15 33,10 67,19 100,28 26,7 52,15 77,22 27,6 53,11 80,17 34,8 67,16 100,22 17,4 36,9 53,12 32,6 62,10 93,16 38,6 77,13 115,18 14,3 27,6 41,7 31,4 62,7 94,10 41,4 82,9 123,12 11,1 24,3 36,4 27,2 54,2 81,3 49,2 97,4 145,5 13,0 27,1 40,1 21,0 41,-3 62,-3 60,-1 120,-4 179,-9 18,-1 36,0 54,-2 13,-1 25,-4 38,-6 91,-9 180,-22 267,-38 7,-2 15,-2 22,-3 2,-1 4,-2 6,-2 18,-4 35,-8 52,-12 55,-12 108,-25 161,-40 26,-7 52,-16 77,-24 34,-10 68,-20 101,-32 8,-3 16,-7 24,-10 52,-18 101,-40 151,-61 24,-10 49,-20 72,-31 73,-34 144,-70 213,-110l0 -1c0,0 0,1 0,1l1382 -804c86,-50 169,-107 249,-166 20,-14 39,-29 58,-44 79,-62 156,-127 229,-197 5,-5 9,-11 15,-16 68,-67 133,-139 195,-215 16,-19 32,-38 48,-58 64,-81 126,-166 184,-257 2,-2 4,-5 5,-7 39,-61 76,-123 112,-188 0,0 0,0 0,-1 36,-64 70,-131 103,-200 1,-3 2,-6 4,-9 43,-93 83,-189 121,-288 4,-9 7,-17 11,-25 8,-23 15,-48 23,-71 21,-59 41,-119 60,-180 5,-17 11,-32 16,-48 7,-23 12,-48 18,-71 15,-51 28,-103 41,-156 5,-21 12,-41 16,-63 6,-24 10,-48 15,-72 10,-45 19,-90 27,-136 5,-24 10,-46 14,-70 5,-27 8,-56 13,-84 6,-41 13,-83 18,-124 3,-21 7,-42 10,-63 4,-36 7,-73 11,-109 4,-39 9,-78 12,-117 2,-16 4,-32 5,-48 4,-52 7,-107 10,-160 2,-29 4,-57 5,-86 1,-8 1,-14 2,-21 3,-90 6,-182 6,-275 0,-5 0,-11 0,-16 0,-85 -1,-171 -3,-256 -1,-17 -2,-33 -3,-49 -1,-35 -3,-69 -4,-104 -2,-40 -4,-81 -6,-122 -2,-31 -5,-63 -8,-94 -2,-37 -5,-74 -8,-110 -3,-25 -4,-48 -6,-73 -5,-51 -12,-103 -17,-155 -4,-31 -7,-62 -11,-93 -1,-10 -2,-20 -3,-31 -13,-95 -26,-191 -41,-288 0,-1 -1,-2 -1,-4 -2,-10 -4,-20 -5,-30 -14,-85 -28,-170 -45,-256 -2,-12 -5,-25 -8,-38 -7,-40 -16,-81 -24,-121 -10,-50 -20,-99 -31,-149 -4,-21 -10,-42 -15,-63 -10,-46 -21,-91 -32,-136 -9,-38 -17,-76 -26,-114 -7,-28 -15,-55 -23,-83 -14,-53 -28,-106 -42,-159 -9,-32 -17,-63 -26,-95 -8,-29 -18,-58 -26,-87 -18,-60 -36,-120 -54,-180 -10,-30 -18,-60 -27,-90 -4,-12 -9,-24 -12,-35 45,117 90,234 132,352 25,69 49,138 73,207 31,90 62,180 91,270 25,75 49,151 72,226 25,80 49,160 72,240 24,80 47,161 69,241 20,71 38,142 57,213 22,87 44,174 65,260 14,61 29,121 42,181 22,94 42,188 61,282 11,54 22,107 33,161 25,131 48,261 69,391 2,13 5,26 7,40 23,143 42,286 60,429 5,40 9,81 14,121 11,102 22,204 30,305 5,49 8,97 12,145 7,97 13,193 17,289 3,46 5,91 7,137 5,136 8,271 7,405 0,141 -4,279 -10,414 -2,39 -5,77 -7,115 -5,93 -11,185 -20,276 -4,53 -10,104 -16,156 -8,77 -17,153 -27,228 -8,56 -16,110 -25,165 -11,69 -22,137 -35,205 -11,61 -24,121 -36,180 -13,61 -27,121 -41,180 -18,71 -35,139 -54,207 -15,53 -30,106 -46,158 -25,81 -52,161 -80,240 -15,42 -29,85 -45,126 -50,132 -103,261 -161,383 -45,96 -92,189 -142,279 0,0 0,0 0,1 -50,91 -104,179 -158,264 -11,18 -23,34 -35,51 -42,63 -85,125 -129,185 -18,24 -36,48 -54,71 -43,55 -86,108 -130,159 -17,20 -34,40 -51,59 -61,68 -124,134 -188,197 -9,9 -19,17 -28,25 -56,54 -114,106 -173,156 -22,17 -44,35 -65,52 -51,41 -102,80 -155,117 -21,16 -43,32 -65,47 -73,50 -147,98 -223,142 0,0 0,0 -1,0l1 0 -1 0 1382 -803c77,-44 151,-92 224,-142 22,-15 43,-31 65,-47 53,-37 104,-77 155,-117 22,-18 43,-35 65,-53 59,-49 117,-101 173,-155 9,-8 19,-16 28,-25 65,-63 127,-129 188,-197 17,-19 34,-40 51,-59 44,-52 87,-105 130,-159 18,-24 36,-47 54,-71 45,-61 88,-122 130,-185 11,-18 23,-34 34,-51 3,-5 7,-10 10,-15 103,-162 198,-334 285,-516 1,-4 3,-9 5,-13 58,-123 111,-251 162,-383 4,-11 9,-21 14,-33 11,-30 20,-63 31,-94 27,-78 54,-158 79,-239 7,-22 15,-42 21,-64 9,-30 16,-63 25,-94 19,-68 37,-137 54,-207 6,-28 15,-55 22,-84 7,-31 12,-64 19,-96 12,-59 25,-120 36,-180 6,-32 13,-62 19,-93 6,-37 10,-75 17,-113 8,-54 16,-108 24,-164 4,-28 9,-55 12,-84 7,-47 10,-96 16,-144 5,-52 11,-104 16,-156 1,-21 4,-42 6,-63 6,-69 9,-141 13,-213 2,-38 6,-76 8,-115 0,-10 1,-18 1,-28 5,-119 8,-241 9,-364 0,-8 0,-15 0,-22 0,-113 -2,-227 -5,-340z"/>
     <path class="fil14" d="M38833 36900c923,532 1674,104 1677,-956 3,-1062 -743,-2354 -1666,-2887 -924,-534 -1675,-106 -1678,956 -3,1061 743,2353 1667,2887zm17 -6111c2014,1163 3640,3981 3633,6294 -6,2314 -1643,3246 -3656,2084 -2014,-1162 -3641,-3980 -3635,-6293 7,-2314 1645,-3247 3658,-2085z"/>
     <path class="fil15" d="M38844 33057c923,533 1669,1825 1666,2887 -3,1060 -754,1488 -1677,956 -924,-534 -1670,-1826 -1667,-2887 3,-1062 754,-1490 1678,-956z"/>
     <path class="fil12" d="M38820 41504c3136,1811 5688,358 5698,-3246 10,-3604 -2525,-7995 -5661,-9805 -3137,-1811 -5688,-357 -5698,3247 -10,3604 2525,7993 5661,9804zm43 -15195c4167,2406 7534,8238 7520,13026 -13,4788 -3402,6718 -7569,4312 -4167,-2405 -7534,-8236 -7521,-13024 14,-4788 3403,-6720 7570,-4314z"/>
     <path class="fil16" d="M38827 39167c2013,1163 3650,230 3656,-2084 7,-2313 -1619,-5131 -3633,-6294 -2013,-1162 -3651,-229 -3658,2085 -6,2313 1621,5131 3635,6293zm30 -10714c3136,1811 5671,6201 5661,9805 -10,3604 -2562,5057 -5698,3246 -3137,-1811 -5671,-6200 -5661,-9804 10,-3604 2561,-5058 5698,-3247z"/>
    </g>
    <g>
     <polygon class="fil17" points="27724,41447 27400,41259 38706,34731 39030,34919 "/>
     <g>
      <polygon class="fil18" points="25757,41458 25433,41270 27400,41259 27724,41447 "/>
      <polygon class="fil17" points="23160,45768 22837,45580 24125,43431 24449,43619 "/>
      <polygon class="fil17" points="23334,43981 23011,43793 24160,43130 24483,43318 "/>
      <polygon class="fil18" points="23335,44262 23011,44074 23011,43793 23334,43981 "/>
      <polygon class="fil17" points="23154,42961 22830,42773 25434,41270 25757,41458 "/>
     </g>
     <polygon class="fil19" points="25757,41458 27724,41447 28141,41206 39030,34919 39031,35200 28141,41486 27724,41727 25602,44358 23160,45768 24449,43619 23335,44261 23334,43981 24483,43318 23154,42961 "/>
    </g>
    <g>
     <path class="fil20" d="M40283 4312l-3 0 -5 0c-44,1 -87,9 -128,26l0 0c-12,4 -25,8 -37,13l0 0c-13,3 -26,7 -38,12l0 0c-13,4 -26,8 -38,13l0 0c-13,3 -25,7 -38,13l0 0c-13,3 -25,7 -38,12l0 0c-12,4 -25,7 -38,13l0 0c-12,3 -25,7 -37,12l0 0c-13,4 -26,8 -38,13l0 0c-13,3 -26,8 -38,12l0 0c-13,4 -25,8 -38,13l0 0c-12,4 -25,8 -38,13l0 0c-13,3 -25,7 -37,12l0 0c-13,4 -26,8 -38,13l0 0c-13,3 -26,8 -38,12l0 0c-13,4 -25,8 -38,13l0 0c-13,3 -25,8 -38,13l0 0c-12,3 -25,7 -37,12l0 0c-13,4 -26,8 -38,13l0 0c-13,4 -26,7 -38,13l0 0c-13,3 -26,7 -38,12l0 0c-13,4 -25,8 -38,13l0 0c-13,3 -25,8 -37,12l0 0c-13,4 -26,8 -38,13l0 0c-13,3 -26,8 -38,13l0 0c-13,3 -26,7 -38,12l0 0c-13,4 -26,8 -38,13l0 0c-13,3 -25,7 -38,12l0 0c-13,4 -25,8 -38,13l0 0c-12,3 -25,8 -37,13l0 0c-13,3 -26,7 -38,12l0 0c-246,68 -414,404 -414,910l0 0 0 9574c0,715 336,1494 751,1740l0 0 1497 887 0 2929 38 -34 0 21 37 -34 0 22 39 -35 0 22 37 -34 0 21 38 -34 0 22 38 -34 0 21 38 -34 0 22 38 -34 0 21 37 -34 0 21 38 -34 0 22 38 -34 0 21 38 -34 0 21 38 -33 0 21 37 -34 0 21 38 -34 0 22 38 -34 0 21 38 -34 0 22 38 -35 0 22 37 -34 0 21 38 -34 0 22 38 -34 0 21 38 -34 0 22 38 -34 0 21 38 -34 0 21 38 -34 0 21 37 -33 0 21 38 -34 0 21 38 -34 0 22 38 -34 0 21 37 -34 0 22 38 -34 0 21 1236 -1111 6885 3608c137,81 265,93 375,48l0 0c13,-4 26,-7 38,-12l0 0c13,-4 26,-8 38,-13l0 0c753,-303 1211,-290 1211,-1263l0 0 0 -9574c0,-715 -336,-1494 -751,-1740l0 0 -10529 -5922c-83,-49 -164,-73 -239,-74z"/>
     <path class="fil21" d="M50140 10699l-10790 -5922c-415,-246 -751,134 -751,849l0 9574c0,715 336,1494 751,1740l1497 887 0 2929 1964 -1765 7329 3871c415,246 752,-134 752,-849l0 -9574c0,-715 -337,-1494 -752,-1740z"/>
     <path class="fil8" d="M42584 13013c0,376 -176,576 -394,447 -219,-130 -395,-539 -395,-915 0,-375 176,-575 395,-446 218,130 394,539 394,914z"/>
     <path class="fil8" d="M44924 14400c0,375 -177,575 -395,446 -218,-130 -395,-539 -395,-914 0,-376 177,-576 395,-446 218,129 395,538 395,914z"/>
     <path class="fil8" d="M47263 15786c0,376 -177,575 -395,446 -218,-129 -395,-539 -395,-914 0,-376 177,-575 395,-446 218,129 395,539 395,914z"/>
    </g>
    <g>
     <path class="fil22" d="M59042 8346l-10529 -5922c-136,-81 -264,-93 -375,-48 -12,3 -25,7 -37,12 -13,4 -26,8 -38,13 -13,3 -26,7 -38,13 -13,3 -25,7 -38,12 -13,4 -25,8 -38,13 -12,3 -25,7 -37,12 -13,4 -26,8 -38,13 -13,4 -26,8 -38,12 -13,4 -25,8 -38,13 -13,4 -25,8 -38,13 -13,3 -25,7 -37,12 -14,4 -26,8 -38,13 -13,3 -26,8 -38,12 -13,4 -26,8 -38,13 -13,4 -26,8 -38,13 -13,3 -25,7 -38,12 -13,4 -25,8 -38,13 -12,3 -25,7 -37,13 -13,3 -26,7 -38,12 -13,4 -26,8 -38,13 -13,3 -25,7 -38,12 -13,4 -25,8 -38,13 -12,4 -25,8 -37,13 -13,3 -26,7 -38,12 -13,4 -26,8 -38,13 -13,3 -25,8 -38,12 -13,4 -25,8 -38,13 -13,3 -25,8 -38,13 -12,3 -25,7 -37,12 -13,4 -26,8 -38,13 -246,67 -415,404 -415,910l0 9574c0,715 337,1493 752,1739l1497 887 0 2929 38 -34 0 22 37 -34 0 21 38 -34 0 22 38 -34 0 21 38 -34 0 22 38 -35 0 22 38 -34 0 21 37 -34 0 22 38 -34 0 21 38 -34 0 21 38 -34 0 22 38 -34 0 21 38 -34 0 21 37 -33 0 21 38 -34 0 21 38 -34 0 22 38 -34 0 21 38 -34 0 22 37 -34 0 21 38 -34 0 21 38 -34 0 22 38 -34 0 21 38 -34 0 21 38 -34 0 22 37 -34 0 21 38 -34 0 22 38 -34 0 21 38 -34 0 21 38 -34 0 22 37 -34 0 21 38 -34 0 22 1236 -1111 6885 3607c137,81 265,93 375,49 13,-4 26,-8 38,-13 13,-3 25,-8 38,-12 753,-303 1211,-290 1211,-1263l0 -9574c0,-715 -336,-1494 -751,-1740z"/>
     <path class="fil23" d="M58131 8737l-10790 -5922c-415,-246 -752,134 -752,849l0 9574c0,715 337,1493 752,1739l1497 887 0 2930 1964 -1765 7329 3870c415,246 752,-134 752,-849l0 -9574c0,-715 -337,-1493 -752,-1739z"/>
     <path class="fil24" d="M50575 11051c0,376 -176,575 -395,446 -218,-129 -394,-539 -394,-914 0,-375 176,-575 394,-446 219,129 395,538 395,914z"/>
     <path class="fil24" d="M52915 12437c0,376 -177,576 -395,446 -219,-129 -395,-538 -395,-914 0,-375 176,-575 395,-446 218,130 395,539 395,914z"/>
     <path class="fil24" d="M55254 13824c0,375 -177,575 -395,446 -218,-130 -395,-539 -395,-914 0,-376 177,-576 395,-446 218,129 395,538 395,914z"/>
    </g>
    <g>
     <polygon class="fil25" points="79995,35557 79981,40431 77330,38899 77343,34026 "/>
     <polygon class="fil26" points="79995,35557 81751,34536 81738,39410 79981,40431 "/>
     <polygon class="fil27" points="77343,34026 79099,33005 81751,34536 79995,35557 "/>
     <polygon class="fil25" points="84075,33232 84048,42778 81396,41247 81423,31701 "/>
     <polygon class="fil26" points="84075,33232 85831,32212 85804,41757 84048,42778 "/>
     <polygon class="fil27" points="81423,31701 83179,30681 85831,32211 84075,33232 "/>
     <polygon class="fil25" points="88146,33345 88113,45125 85460,43594 85494,31814 "/>
     <polygon class="fil26" points="88146,33345 89902,32325 89869,44104 88113,45125 "/>
     <polygon class="fil27" points="85494,31814 87250,30793 89902,32324 88146,33345 "/>
     <polygon class="fil28" points="89571,17843 92223,19374 93979,18354 91327,16823 "/>
     <polygon class="fil25" points="92223,19374 92179,47473 89527,45941 89571,17843 "/>
     <polygon class="fil29" points="92223,19374 92179,47473 93935,46452 93979,18354 "/>
    </g>
    <g>
     <path class="fil6" d="M80175 14798l-8 0 -2 0c-27,0 -53,1 -78,3 -2,0 -3,1 -5,1l0 0c-2,0 -5,1 -9,1l0 0c-24,3 -47,6 -70,10l0 0c-17,3 -33,9 -49,13l0 0c-9,3 -19,5 -27,8l0 0c-6,2 -12,2 -17,4l0 0c-36,13 -69,28 -100,46l0 0 -1152 669c36,-20 75,-37 117,-50l0 0c8,-3 18,-5 27,-7l0 0c38,-11 78,-19 120,-24l0 0c3,0 5,-1 9,-1l0 0c49,-5 101,-5 155,-2l0 0c2,1 4,0 7,1l0 0c56,3 115,11 176,23l0 0c2,1 4,1 6,1l0 0c59,12 122,29 187,48l0 0c5,2 10,4 15,6l0 0c63,20 128,43 196,71l0 0c6,2 13,5 19,8l0 0c68,28 138,60 211,96l0 0c3,1 6,3 9,4l0 0c76,38 154,80 234,126l0 0c50,29 95,63 144,93l0 0 -959 557c-36,22 -65,51 -89,87l0 0c-8,13 -16,27 -23,42l0 0c-6,12 -11,25 -16,38l0 0c-5,13 -9,26 -13,39l0 0c-1,3 -2,7 -3,10l0 0c0,2 0,4 -1,5l0 0c-2,9 -5,18 -7,27l0 0c-3,15 -6,30 -9,46l0 0c-3,17 -5,34 -8,52l0 0c-1,12 -2,25 -3,37l0 0c-1,3 -1,7 -1,10l0 0c-1,5 -2,10 -2,16l0 0c-2,24 -4,50 -5,76l0 0c-1,32 -1,65 -2,100l0 0c0,2 0,4 0,6l0 0 -3 1024c0,35 1,70 2,104l0 0c1,28 2,56 3,84l0 0c1,9 2,17 3,26l0 0c0,3 0,7 0,11l0 0c1,10 2,20 3,30l0 0c2,19 3,38 6,56l0 0c2,17 4,34 7,51l0 0c2,15 5,30 8,45l0 0c1,6 2,11 3,16l0 0c0,2 1,4 1,5l0 0c1,7 3,13 4,20l0 0c3,13 6,26 9,38l0 0c3,12 6,24 9,35l0 0c3,11 6,22 9,33l0 0c4,11 7,21 11,31l0 0c3,9 6,18 9,27l0 0c1,3 2,5 3,8l0 0c0,0 0,1 0,1l0 0c3,6 5,12 7,18l0 0c3,8 7,17 10,26l0 0c4,8 7,16 11,24l0 0c4,8 7,16 11,24l0 0c4,9 8,17 12,26l0 0c6,11 12,22 18,33l0 0c6,12 12,23 18,34l0 0c1,0 1,0 1,0l0 0c0,0 0,0 0,0l0 0c11,19 22,38 34,56l0 0c13,19 25,37 38,55l0 0c10,12 19,25 29,37l0 0c7,10 16,20 24,30l0 0c1,1 1,2 2,2l0 0c0,1 1,1 1,1l0 0c7,9 15,18 22,27l0 0c10,10 19,21 30,32l0 0c10,11 21,23 32,34l0 0c12,12 25,25 38,37l0 0c14,13 28,27 43,40l0 0c2,2 4,4 6,6l0 0c1,1 3,2 4,3l0 0c14,12 27,24 42,36l0 0c19,16 38,33 59,49l0 0c22,17 45,35 69,52l0 0c15,11 31,22 47,33l0 0c4,4 8,6 13,9l0 0c8,6 15,11 23,17l0 0c32,22 65,44 100,66l0 0c39,25 80,50 124,75l0 0c10,6 20,12 31,19l0 0c32,18 63,35 93,52l0 0c34,18 68,36 100,51l0 0c28,15 55,27 81,39l0 0c2,1 3,1 4,2l0 0c1,0 2,0 3,1l0 0c22,9 42,19 63,27l0 0c21,8 41,16 60,22l0 0c17,7 35,12 51,17l0 0c16,5 32,10 47,13l0 0c0,0 1,0 1,0l0 0c0,0 0,1 1,1l0 0c14,3 27,6 40,9l0 0c13,2 26,4 39,6l0 0c12,2 25,3 36,4l0 0c13,1 24,1 36,1l0 0c7,0 14,0 21,-1l0 0c1,0 2,0 3,0l0 0c3,0 7,0 10,-1l0 0c13,-1 25,-2 37,-5l0 0c13,-3 27,-6 40,-11l0 0c14,-5 28,-12 41,-19l0 0 994 -578 -3 858c0,88 -7,169 -20,242l0 0c0,1 0,2 0,3l0 0c-13,71 -32,134 -57,190l0 0c-1,3 -2,6 -3,9l0 0c-21,47 -48,87 -78,125l0 0c-9,11 -18,23 -28,34l0 0c-34,37 -72,70 -115,95l0 0c0,0 0,0 0,0l0 0c0,0 0,0 0,0l0 0 1152 -669c43,-25 81,-59 115,-95l0 0c10,-11 19,-23 28,-35l0 0c11,-14 24,-26 34,-41l0 0c13,-21 26,-44 37,-68l0 0c2,-5 4,-11 7,-16l0 0c1,-2 2,-5 3,-8l0 0c5,-11 10,-22 14,-33l0 0c7,-18 13,-37 19,-57l0 0c5,-17 10,-35 14,-53l0 0c4,-16 6,-31 9,-47l0 0c1,-1 1,-2 1,-3l0 0c0,-2 1,-4 1,-6l0 0c3,-18 6,-36 8,-54l0 0c3,-19 5,-38 6,-58l0 0c2,-19 3,-39 4,-59l0 0c1,-20 1,-41 1,-62l0 0 0 -4 5 -1796c0,-18 0,-36 -1,-54l0 0c0,-19 -1,-39 -2,-58l0 0c-1,-19 -3,-38 -5,-57l0 0c-1,-18 -3,-37 -6,-56l0 0c-2,-18 -5,-37 -8,-55l0 0c-3,-19 -6,-37 -9,-56l0 0c0,0 0,0 0,0l0 0 0 -1c-4,-18 -8,-36 -12,-54l0 0c-3,-19 -8,-37 -13,-56l0 0c-4,-18 -9,-37 -14,-55l0 0c-5,-18 -10,-37 -16,-55l0 0c-5,-17 -11,-35 -17,-53l0 0c-6,-17 -12,-35 -18,-53l0 0c-2,-3 -3,-7 -5,-11l0 0c0,-1 0,-2 -1,-3l0 0c-4,-12 -9,-24 -14,-37l0 0c-6,-17 -13,-33 -20,-50l0 0c-7,-17 -14,-33 -21,-50l0 0c-8,-18 -17,-36 -25,-54l0 0c-8,-18 -17,-36 -26,-54l0 0c-12,-24 -24,-48 -37,-71l0 0c-2,-5 -5,-10 -8,-14l0 0c-1,-3 -3,-5 -4,-8l0 0c-12,-22 -24,-44 -37,-66l0 0c-31,-53 -64,-106 -99,-158l0 0c-20,-30 -42,-60 -64,-90l0 0c-3,-5 -6,-10 -10,-14l0 0c-3,-5 -7,-10 -11,-16l0 0c-19,-26 -40,-53 -60,-80l0 0c-20,-25 -40,-50 -61,-74l0 0c-20,-25 -41,-49 -62,-73l0 0c-19,-22 -39,-43 -59,-65l0 0c-1,-1 -2,-3 -3,-4l0 0c-3,-2 -5,-5 -7,-8l0 0c-25,-26 -50,-52 -76,-78l0 0c-27,-28 -56,-56 -84,-84l0 0c-31,-30 -63,-60 -96,-89l0 0c-11,-10 -23,-20 -35,-31l0 0c-5,-4 -11,-9 -16,-14l0 0c-18,-15 -35,-30 -53,-45l0 0c-37,-31 -74,-62 -113,-92l0 0c-39,-31 -79,-62 -120,-92l0 0c-15,-11 -30,-21 -45,-32l0 0c-7,-6 -15,-11 -22,-16l0 0c-20,-14 -41,-29 -61,-43l0 0c-45,-31 -90,-61 -136,-90l0 0c-48,-31 -97,-60 -146,-89l0 0c-11,-7 -23,-14 -34,-20l0 0c-38,-22 -76,-43 -112,-63l0 0c-42,-22 -82,-43 -122,-63l0 0c-3,-1 -6,-3 -9,-5l0 0c-1,-1 -3,-1 -5,-2l0 0c-42,-21 -84,-41 -125,-59l0 0c-27,-13 -54,-23 -81,-35l0 0c-7,-2 -13,-6 -20,-8l0 0c-4,-2 -10,-4 -15,-6l0 0c-36,-15 -72,-28 -107,-41l0 0c-25,-9 -49,-16 -73,-24l0 0c-5,-1 -10,-3 -15,-5l0 0c-4,-1 -8,-2 -12,-4l0 0c-32,-9 -64,-18 -95,-26l0 0c-27,-7 -54,-13 -81,-18l0 0c-2,0 -3,-1 -5,-1l0 0c-1,0 -2,-1 -4,-1l0 0c-29,-5 -57,-10 -85,-14l0 0c-29,-4 -56,-7 -84,-9l0 0c-1,0 -2,0 -4,0l0 0c-2,0 -4,0 -6,0l0 0c-21,-2 -43,-2 -63,-2zm1393 4317c-1,0 -2,0 -3,-1l0 0c-83,-37 -176,-85 -278,-144l0 0c-103,-59 -195,-118 -279,-176l0 0c-4,-3 -8,-6 -12,-9l0 0c-81,-57 -154,-114 -217,-171l0 0c-1,-1 -3,-2 -4,-3l0 0c-65,-58 -122,-116 -171,-175l0 0c-1,0 -1,-1 -1,-1l0 0c-50,-59 -92,-119 -127,-180l0 0c0,0 0,0 0,0l0 0c-36,-61 -65,-122 -88,-185l0 0c0,-1 0,-1 0,-2l0 0c-23,-62 -41,-126 -54,-191l0 0c0,-2 -1,-3 -1,-5l0 0c-13,-64 -21,-130 -27,-199l0 0c0,-3 -1,-7 -1,-10l0 0c-5,-70 -7,-141 -7,-215l0 0 3 -1024c0,-70 3,-137 9,-198l0 0c0,-3 0,-6 0,-9l0 0c6,-59 15,-114 28,-162l0 0c0,-2 1,-3 1,-5l0 0c6,-22 17,-38 24,-57l0 0c53,34 109,67 160,103l0 0c7,5 15,10 22,15l0 0c116,84 227,171 331,262l0 0c5,4 10,9 16,14l0 0c106,93 206,190 298,290l0 0c1,1 2,2 3,3l0 0c92,100 177,203 253,308l0 0c4,5 7,9 10,14l0 0c75,103 142,208 200,315l0 0c2,2 3,5 4,7l0 0c60,109 111,220 152,331l0 0c0,1 0,2 1,2l0 0c41,113 73,225 94,338l0 0 0 0c21,113 32,225 31,337l0 0 -2 880c-44,0 -90,-3 -145,-17l0 0 -1 0c-65,-16 -139,-43 -222,-80l0 0z"/>
     <path class="fil6" d="M87827 26450l0 -11 -1 -43 0 0c0,-19 -1,-39 -2,-58l0 0c-1,-19 -3,-37 -5,-56l0 0c-2,-19 -4,-37 -6,-56l0 0c-2,-18 -5,-37 -8,-55l0 0c-3,-19 -6,-37 -9,-56l0 0c0,0 0,0 0,-1l0 0c0,0 0,0 0,0l0 0c-4,-18 -8,-36 -11,-54l0 0c-5,-18 -9,-37 -14,-55l0 0c-4,-19 -9,-37 -14,-55l0 0c-5,-18 -10,-37 -16,-55l0 0c-5,-17 -11,-35 -17,-53l0 0c-6,-17 -12,-35 -18,-53l0 0c-2,-4 -3,-8 -5,-12l0 0c0,0 0,-2 -1,-2l0 0c-4,-13 -9,-24 -13,-37l0 0c-7,-16 -14,-33 -20,-49l0 0c-7,-17 -14,-34 -22,-51l0 0c-8,-18 -16,-36 -25,-54l0 0c-8,-18 -17,-36 -26,-54l0 0c-12,-24 -24,-48 -37,-72l0 0c-2,-4 -5,-9 -8,-13l0 0c-1,-3 -3,-6 -4,-8l0 0c-12,-22 -23,-43 -36,-64l0 0c-31,-54 -65,-107 -100,-160l0 0c-21,-31 -43,-61 -64,-91l0 0c-3,-4 -6,-9 -10,-13l0 0c-3,-5 -7,-10 -10,-16l0 0c-20,-26 -40,-53 -61,-79l0 0c-20,-25 -40,-50 -61,-75l0 0c-20,-25 -41,-49 -62,-72l0 0c-19,-22 -39,-44 -59,-66l0 0c-1,-1 -2,-3 -3,-4l0 0c-3,-2 -5,-5 -7,-7l0 0c-25,-27 -50,-53 -75,-79l0 0c-28,-28 -56,-56 -85,-83l0 0c-31,-30 -63,-60 -95,-89l0 0c-12,-11 -24,-21 -36,-31l0 0c-5,-5 -11,-10 -16,-15l0 0c-18,-15 -35,-30 -53,-45l0 0c-36,-31 -74,-62 -112,-92l0 0c-40,-31 -80,-62 -121,-92l0 0c-15,-11 -30,-21 -45,-32l0 0c-8,-5 -15,-10 -22,-15l0 0c-21,-15 -40,-30 -61,-44l0 0c-45,-30 -90,-61 -137,-90l0 0c-47,-30 -96,-60 -145,-89l0 0c-11,-7 -23,-13 -35,-20l0 0c-38,-22 -75,-43 -112,-63l0 0c-40,-22 -80,-42 -119,-62l0 0c-4,-2 -8,-4 -12,-6l0 0c-2,-1 -3,-2 -5,-3l0 0c-42,-20 -84,-40 -125,-59l0 0c-27,-12 -54,-23 -81,-34l0 0c-6,-3 -13,-6 -20,-8l0 0c-5,-2 -10,-5 -15,-7l0 0c-37,-14 -72,-28 -108,-40l0 0c-24,-9 -48,-16 -72,-24l0 0c-5,-2 -10,-3 -15,-5l0 0c-4,-1 -8,-3 -13,-4l0 0c-32,-10 -63,-18 -94,-26l0 0c-27,-7 -54,-13 -80,-18l0 0c-2,0 -4,-1 -7,-2l0 0c-1,0 -2,0 -3,0l0 0c-30,-6 -58,-11 -86,-15l0 0c-28,-3 -56,-6 -83,-8l0 0c-1,0 -2,0 -4,0l0 0c-2,-1 -4,-1 -6,-1l0 0c-19,-1 -39,-2 -58,-2l-7 0 -13 0c-25,0 -49,2 -73,4l0 0c-2,0 -3,0 -5,0l0 0c-3,1 -5,1 -8,2l0 0c-24,2 -49,5 -71,10l0 0c-17,3 -33,8 -49,13l0 0c-9,2 -18,4 -27,7l0 0c-6,2 -12,3 -17,5l0 0c-36,12 -69,27 -100,46l0 0 -1152 669c36,-21 75,-37 116,-50l0 0c9,-3 19,-5 28,-8l0 0c38,-10 78,-19 120,-23l0 0c3,0 5,-1 9,-2l0 0c48,-4 101,-4 155,-1l0 0c2,0 4,0 7,0l0 0c56,4 114,12 176,24l0 0c2,0 4,1 6,1l0 0c60,12 122,29 187,48l0 0c5,2 10,4 15,5l0 0c63,20 128,44 196,71l0 0c6,3 13,6 20,9l0 0c68,28 138,59 210,95l0 0c4,2 8,5 12,7l0 0c75,37 152,79 231,124l0 0c51,29 96,63 145,93l0 0 -960 558c-35,21 -65,50 -88,86l0 0c0,0 0,0 0,0l0 0c-9,13 -16,27 -23,41l0 0c-6,13 -11,26 -17,39l0 0c-4,13 -8,25 -12,39l0 0c-1,3 -2,6 -3,10l0 0c0,1 -1,3 -1,5l0 0c-2,9 -5,17 -7,27l0 0c-4,15 -6,30 -9,46l0 0c-3,16 -5,34 -8,51l0 0c-1,12 -2,25 -4,37l0 0c0,3 0,6 -1,9l0 0c0,6 -1,11 -1,17l0 0c-2,24 -4,49 -5,75l0 0c-1,32 -2,65 -2,99l0 0c0,2 0,4 0,6l0 0 -3 1027c0,35 1,69 2,103l0 0c0,29 1,56 3,84l0 0c1,9 2,18 2,26l0 0c1,4 1,8 1,11l0 0c1,10 2,20 2,30l0 0c2,19 4,38 7,56l0 0c2,17 4,34 7,51l0 0c2,15 5,30 8,45l0 0c1,6 2,11 3,17l0 0c0,1 1,3 1,4l0 0c1,7 2,13 4,20l0 0c3,13 6,26 9,38l0 0c3,12 6,24 9,35l0 0c3,11 6,22 9,33l0 0c4,11 7,21 11,32l0 0c3,9 6,18 9,27l0 0c1,2 2,4 3,7l0 0c0,0 0,1 0,2l0 0c2,6 5,11 7,17l0 0c3,9 7,18 10,26l0 0c4,8 7,17 11,24l0 0c3,9 7,17 11,25l0 0c4,8 8,17 12,26l0 0c6,11 12,22 18,33l0 0c6,11 12,22 18,33l0 0c1,1 1,1 1,1l0 0c0,0 0,0 0,0l0 0c11,19 23,39 36,58l0 0c12,18 24,35 37,53l0 0c9,13 18,25 28,37l0 0c8,10 16,20 24,30l0 0c1,1 1,2 2,2l0 0c0,0 0,0 0,1l0 0c8,9 16,18 24,27l0 0c9,11 19,22 29,33l0 0c11,11 22,22 33,33l0 0c12,13 24,25 38,38l0 0c14,13 28,27 43,40l0 0c2,2 4,3 5,5l0 0c1,0 2,2 3,3l0 0c15,12 29,25 44,37l0 0c19,16 39,33 59,49l0 0c22,17 45,34 69,52l0 0c15,11 31,22 46,32l0 0c4,4 8,7 12,9l0 0c9,7 16,12 25,18l0 0c32,22 65,43 100,65l0 0c39,25 80,50 123,76l0 0c10,6 20,12 31,18l0 0c32,18 62,35 92,51l0 0c34,19 67,36 100,52l0 0c28,14 55,27 81,39l0 0c2,1 3,1 5,2l0 0c1,0 2,1 3,1l0 0c21,9 42,18 62,26l0 0c20,8 40,16 59,23l0 0c18,6 35,12 52,17l0 0c16,4 31,9 47,13l0 0c0,0 1,0 2,0l0 0c0,0 0,0 0,0l0 0c14,4 27,7 39,9l0 0c14,3 27,5 40,7l0 0c12,1 24,3 36,3l0 0c13,1 24,2 36,2l0 0c7,0 14,-1 21,-1l0 0c1,-1 2,-1 3,-1l0 0c4,0 7,0 10,0l0 0c13,-1 25,-3 37,-5l0 0c14,-3 27,-7 40,-12l0 0c15,-5 29,-11 42,-19l0 0 994 -577 -3 858c0,88 -7,169 -20,242l0 0c0,1 -1,2 -1,3l0 0c-12,71 -31,134 -56,190l0 0c-1,3 -2,6 -3,9l0 0c-21,47 -49,87 -78,125l0 0c-9,11 -18,23 -28,34l0 0c-34,37 -72,70 -115,95l0 0 1152 -669c43,-25 80,-58 115,-95l0 0c10,-11 19,-23 28,-35l0 0c11,-14 24,-25 33,-41l0 0c14,-21 26,-43 38,-68l0 0c2,-5 4,-11 7,-16l0 0c1,-2 2,-5 3,-8l0 0c5,-11 10,-21 14,-32l0 0c7,-19 13,-38 19,-58l0 0c5,-17 10,-35 14,-53l0 0c4,-15 6,-32 9,-47l0 0c1,-1 1,-2 1,-3l0 0c0,-2 1,-4 1,-6l0 0c3,-17 6,-35 8,-54l0 0c2,-19 4,-38 6,-57l0 0c2,-20 3,-40 4,-60l0 0c1,-20 1,-41 1,-62l0 0c0,-1 0,-2 0,-3l0 0 5 -1799zm-1522 1456c-1,-1 -2,-1 -4,-2l0 0c-83,-37 -175,-84 -277,-144l0 0c-103,-59 -196,-118 -279,-176l0 0c-4,-3 -8,-6 -12,-9l0 0c-81,-57 -154,-114 -218,-171l0 0c-1,-1 -2,-2 -3,-3l0 0c-65,-58 -122,-117 -172,-176l0 0c0,0 0,0 0,-1l0 0c-50,-59 -92,-118 -127,-179l0 0c0,0 0,-1 0,-1l0 0c-36,-60 -65,-122 -88,-185l0 0c0,0 0,-1 0,-2l0 0c-24,-62 -41,-126 -54,-191l0 0c0,-2 -1,-3 -1,-5l0 0c-13,-64 -21,-130 -27,-198l0 0c0,-4 -1,-7 -1,-11l0 0c-5,-69 -7,-140 -7,-214l0 0 3 -1026c0,-70 3,-136 9,-197l0 0c0,-3 0,-6 0,-9l0 0c6,-60 15,-113 28,-162l0 0c0,-1 1,-3 1,-5l0 0c6,-21 16,-37 24,-56l0 0c53,35 109,67 160,103l0 0c7,5 14,10 22,15l0 0c116,84 227,171 331,262l0 0c5,4 10,9 16,14l0 0c106,93 206,190 297,290l0 0c2,1 3,2 4,4l0 0c93,100 177,203 254,307l0 0c3,5 6,9 9,14l0 0c75,103 142,208 200,314l0 0c2,3 3,5 4,8l0 0c60,109 110,219 151,330l0 0c1,1 1,2 2,3l0 0c41,112 72,224 94,336l0 0c0,1 0,1 0,1l0 0c21,112 32,224 31,335l0 0 -2 882c-44,0 -90,-2 -146,-16l0 0c0,0 0,0 -1,0l0 0c-65,-16 -139,-43 -221,-79l0 0z"/>
     <path class="fil6" d="M86741 20375l0 -4 0 -12 -1 -17 0 0c0,-10 -1,-20 -1,-30l0 0c-1,-10 -2,-20 -3,-31l0 0c0,0 0,0 0,-1l0 0c0,0 0,-1 0,-1l0 0c-1,-12 -3,-24 -4,-35l0 0c-2,-12 -3,-24 -5,-37l0 0c-3,-13 -5,-28 -8,-42l0 0c0,0 0,0 0,-1l0 0c-3,-14 -5,-28 -8,-42l0 0c-4,-17 -8,-34 -12,-51l0 0c-2,-7 -4,-13 -5,-20l0 0c-2,-4 -3,-8 -4,-12l0 0c-2,-6 -3,-13 -5,-20l0 0c-6,-20 -11,-40 -18,-59l0 0c-2,-9 -5,-17 -8,-26l0 0c-1,-5 -3,-10 -5,-16l0 0c-2,-7 -4,-14 -6,-21l0 0c-8,-22 -16,-44 -24,-65l0 0c-1,-5 -3,-10 -5,-15l0 0c-3,-7 -5,-14 -8,-21l0 0c-4,-12 -8,-24 -13,-35l0 0c-7,-17 -13,-33 -20,-50l0 0c-3,-6 -5,-12 -7,-18l0 0c-1,-3 -2,-5 -3,-7l0 0c-11,-27 -23,-53 -34,-79l0 0c-1,-2 -2,-4 -3,-7l0 0c-5,-12 -10,-22 -16,-33l0 0c-6,-15 -13,-30 -19,-43l0 0c-2,-4 -4,-8 -5,-11l0 0c-10,-20 -19,-38 -27,-56l0 0c-4,-7 -8,-16 -11,-23l0 0c-1,-2 -2,-3 -3,-6l0 0c-17,-33 -31,-61 -43,-83l0 0c-1,-1 -2,-4 -3,-5l0 0c-2,-5 -3,-5 -5,-9l0 0c-10,-20 -18,-35 -21,-39l0 0 -1152 669c3,5 12,21 21,39l0 0c3,5 5,9 8,14l0 0c12,22 26,51 43,84l0 0c4,9 9,19 14,29l0 0c9,17 17,35 27,55l0 0c8,18 17,37 25,56l0 0c5,11 10,20 15,31l0 0c13,30 26,61 40,93l0 0c2,6 5,12 7,18l0 0c11,28 23,56 34,85l0 0c2,7 5,14 7,22l0 0c13,33 24,67 35,101l0 0c2,5 4,11 6,16l0 0c11,35 21,70 31,105l0 0c0,4 2,8 2,11l0 0c10,39 19,76 26,114l0 0c0,0 0,0 0,0l0 0 0 0c8,40 13,78 17,116l0 0 0 0c4,37 5,73 4,108l0 0c0,1 0,2 0,3l0 0c-1,35 -4,67 -11,98l0 0c0,2 0,3 -1,4l0 0c-6,31 -15,59 -27,86l0 0c0,1 -1,3 -1,4l0 0c-9,19 -21,35 -33,51l0 0c-23,32 -50,61 -86,83l0 0 -5801 3703 1152 -669 5801 -3703c36,-22 63,-51 86,-83l0 0c2,-4 7,-6 10,-10l0 0c7,-11 13,-22 19,-35l0 0c1,-2 2,-4 3,-6l0 0c1,-2 2,-3 2,-5l0 0c3,-7 6,-13 9,-20l0 0c3,-9 6,-18 9,-28l0 0c3,-8 5,-17 7,-26l0 0c1,-4 2,-7 2,-11l0 0c1,-1 1,-3 1,-4l0 0c1,-4 2,-8 3,-12l0 0c1,-8 2,-17 3,-26l0 0c1,-8 2,-17 3,-26l0 0c1,-9 1,-17 2,-26l0 0c0,-3 0,-6 0,-8l0 0c0,-1 0,-2 0,-3l0 0 1 -14z"/>
     <path class="fil30" d="M85864 28051l3 -1026c1,-578 -181,-1056 -987,-1521 -843,-486 -992,-200 -994,377l-3 1027c-1,607 146,1035 989,1522 805,465 990,228 992,-379zm-981 -3408c1087,628 1795,1587 1792,2477l-5 1798c-3,921 -713,1000 -1801,373 -1089,-629 -1795,-1527 -1792,-2448l5 -1798c2,-890 711,-1031 1801,-402z"/>
     <path class="fil30" d="M79146 18118c-1,609 146,1035 989,1522 805,465 990,230 992,-379l3 -1024c1,-580 -181,-1058 -987,-1523 -843,-487 -992,-200 -994,380l-3 1024zm2787 2010c-2,921 -713,1000 -1801,373 -1087,-628 -1795,-1527 -1792,-2448l5 -1796c2,-892 713,-1032 1801,-404 1087,628 1795,1587 1792,2479l-5 1796z"/>
     <path class="fil30" d="M85226 19961c32,58 645,1160 203,1426l-5801 3703c-32,-58 -645,-1160 -203,-1426l5801 -3703z"/>
    </g>
    <g>
     <path class="fil31" d="M78684 73838c151,87 169,219 39,295l-4333 2518c-129,75 -360,66 -511,-21l-83 -48c-150,-87 -167,-221 -38,-296l4334 -2518c129,-75 359,-65 509,22l83 48z"/>
     <path class="fil32" d="M78814 69388l-8642 5021c-1156,672 -1149,1772 16,2444l0 0 1546 893c1163,672 3062,672 4217,0l0 0 4864 -2826 2022 1942 1114 -3765 642 -373c1156,-672 1150,-1771 -14,-2443l0 0 -1546 -893c-582,-336 -1348,-504 -2114,-504l0 0c-764,0 -1527,168 -2105,504zm-6605 6278c-173,-100 -191,-253 -43,-339l0 0 8238 -4788c148,-86 412,-76 586,24l0 0c173,100 192,254 44,340l0 0 -8238 4788c-67,38 -158,58 -253,58l0 0c-116,0 -239,-29 -334,-83zm1670 964l-82 -48c-151,-87 -168,-221 -38,-296l0 0 4333 -2518c129,-75 359,-65 509,22l0 0 83 48c151,86 169,219 40,295l0 0 -4334 2518c-58,34 -138,51 -222,51l0 0c-100,0 -207,-25 -289,-72l0 0z"/>
     <path class="fil31" d="M80990 70563c173,100 192,254 44,340l-8238 4788c-148,86 -414,75 -587,-25 -173,-100 -191,-253 -43,-339l8238 -4788c148,-86 412,-76 586,24z"/>
     <path class="fil33" d="M85449 71598c-3,32 -5,63 -11,95l0 0c-5,26 -13,51 -19,76l0 0c-8,30 -16,60 -26,90l0 0c-9,25 -20,49 -31,73l0 0c-13,31 -27,63 -43,93l0 0c-12,23 -27,45 -41,67l0 0c-21,35 -44,70 -69,104l0 0c-15,20 -32,40 -49,61l0 0c-38,46 -81,91 -126,136l0 0c-16,15 -31,32 -48,47l0 0c-28,25 -60,49 -90,74l0 0c-28,22 -54,45 -84,67l0 0c-33,24 -69,46 -104,69l0 0c-38,25 -74,50 -115,74l0 0 -642 373 -1114 3765 -2022 -1942 -4864 2826c-88,51 -182,97 -278,141l0 0c-28,12 -57,24 -86,36l0 0c-75,32 -152,61 -230,88l0 0c-30,10 -58,20 -89,30l0 0c-50,16 -101,29 -152,43l0 0c-40,11 -78,22 -118,32l0 0c-54,13 -109,24 -163,35l0 0c-38,7 -76,16 -115,23l0 0c-112,20 -225,35 -340,47l0 0c-34,4 -69,6 -104,9l0 0c-68,6 -137,11 -205,14l0 0c-43,1 -86,2 -129,3l0 0c-55,1 -110,2 -166,1l0 0c-45,-1 -90,-2 -135,-4l0 0c-52,-2 -103,-5 -154,-8l0 0c-46,-3 -91,-7 -137,-12l0 0c-50,-4 -101,-10 -151,-16l0 0c-44,-6 -88,-12 -133,-19l0 0c-53,-8 -106,-18 -159,-28l0 0c-41,-8 -82,-16 -123,-25l0 0c-63,-13 -125,-29 -186,-45l0 0c-34,-9 -69,-18 -102,-27l0 0c-109,-32 -216,-68 -319,-108l0 0c-51,-20 -100,-41 -149,-63l0 0c-25,-11 -52,-22 -77,-34l0 0c-75,-35 -147,-73 -217,-113l0 0 -1546 -893c-587,-338 -880,-785 -878,-1231l0 0 -4 1419c-2,445 291,892 878,1231l0 0 1546 893c70,40 142,77 217,113l0 0c25,12 51,22 76,33l0 0c44,19 87,40 133,58l0 0c5,2 11,3 17,5l0 0c103,41 210,76 319,108l0 0c8,3 16,6 24,9l0 0c25,7 52,12 77,18l0 0c62,17 124,32 187,46l0 0c16,3 31,8 47,12l0 0c25,5 51,8 76,13l0 0c53,10 106,19 160,28l0 0c20,3 40,7 61,10l0 0c24,4 48,5 71,8l0 0c51,7 101,12 151,17l0 0c24,2 46,6 70,8l0 0c22,2 45,2 67,3l0 0c51,4 102,7 154,9l0 0c25,1 50,3 75,4l0 0c11,0 22,0 33,0l0 0c9,0 18,-1 27,-1l0 0c56,1 111,1 167,0l0 0c11,0 23,0 35,0l0 0c15,0 30,0 45,-1l0 0c16,0 32,-2 47,-3l0 0c69,-3 138,-8 206,-14l0 0c27,-2 54,-2 81,-5l0 0c7,-1 15,-2 23,-3l0 0c115,-12 228,-28 340,-48l0 0c6,-1 12,-1 18,-2l0 0c33,-6 65,-14 97,-21l0 0c54,-11 109,-21 163,-34l0 0c40,-10 79,-21 118,-32l0 0c51,-14 103,-28 153,-44l0 0c11,-3 23,-6 34,-10l0 0c19,-6 35,-14 54,-20l0 0c79,-27 155,-56 230,-87l0 0c29,-12 58,-24 85,-36l0 0c97,-44 191,-90 280,-141l0 0 4863 -2827 2021 1942 1115 -3764 642 -373c12,-7 24,-14 36,-21l0 0c28,-17 52,-36 78,-53l0 0c36,-23 72,-46 105,-70l0 0c30,-21 56,-44 84,-67l0 0c31,-24 62,-48 90,-73l0 0c5,-5 12,-10 17,-15l0 0c11,-10 20,-22 31,-33l0 0c45,-44 88,-89 126,-136l0 0c9,-10 19,-19 28,-29l0 0c8,-10 13,-21 21,-32l0 0c25,-34 48,-68 69,-103l0 0c9,-15 21,-29 29,-43l0 0c5,-8 7,-16 12,-24l0 0c16,-31 30,-62 43,-93l0 0c8,-18 18,-36 25,-54l0 0c3,-6 4,-13 6,-19l0 0c11,-30 18,-60 26,-90l0 0c5,-20 13,-40 17,-60l0 0c1,-5 1,-11 2,-16l0 0c6,-32 8,-64 10,-96l0 0c2,-20 7,-40 7,-60l0 0c1,-9 1,-17 1,-26l0 0 4 -1419c0,29 -5,58 -7,87l0 0z"/>
    </g>
    <g>
     <path class="fil34" d="M69142 81009l0 -3 -3 1139 0 0c0,13 -1,25 -1,37l0 0c-1,18 -5,36 -6,54l0 0c-3,50 -9,100 -17,150l0 0c-2,11 -2,22 -4,32l0 0c-3,17 -10,34 -15,50l0 0c-10,46 -23,92 -39,137l0 0c-5,15 -7,31 -13,46l0 0c-4,12 -12,24 -17,36l0 0c-20,49 -43,98 -68,146l0 0c-9,17 -15,35 -24,52l0 0c-6,10 -13,20 -19,29l0 0c-8,14 -16,26 -24,40l0 0c-31,50 -66,100 -103,150l0 0c-5,6 -10,13 -15,19l0 0c-2,3 -3,6 -5,8l0 0c-42,53 -89,106 -138,157l0 0c-13,15 -29,29 -43,43l0 0c-25,25 -49,51 -75,75l0 0c-17,16 -36,31 -54,47l0 0c-16,14 -32,28 -48,42l0 0c-61,50 -124,100 -193,149l0 0c-45,36 -97,70 -151,104l0 0c-6,3 -10,7 -16,10l0 0c-10,7 -21,13 -31,19l-8717 5066 0 0c-74,43 -153,83 -235,119l0 0c-28,12 -57,21 -86,32l0 0c-56,22 -111,45 -170,64l0 0c-1,1 -3,1 -5,2l0 0c-76,24 -155,45 -234,64l0 0c-24,6 -48,10 -71,15l0 0c-35,7 -69,16 -105,22l0 0c-42,8 -84,15 -127,21l0 0c-104,25 -209,46 -316,66l0 0c-8,1 -17,4 -25,5l0 0c-13,3 -26,3 -39,6l0 0c-161,28 -324,51 -489,68l0 0c-1,0 -1,0 -2,0l0 0c-4,0 -8,0 -11,1l0 0c-131,12 -263,21 -395,26l0 0c-17,1 -34,3 -51,3l0 0c-8,1 -17,1 -25,1l0 0c-8,0 -15,0 -22,0l0 0c-122,3 -243,4 -365,1l0 0c-1,0 -3,0 -5,0l0 0c-2,1 -4,1 -6,0l0 0c-1,0 -1,0 -2,0l0 0c-122,-3 -243,-10 -364,-19l0 0c-13,-1 -27,-1 -40,-2l0 0c-21,-2 -42,-5 -62,-7l0 0c-92,-9 -184,-19 -274,-31l0 0c-22,-3 -43,-4 -65,-7l0 0c-10,-2 -21,-4 -32,-6l0 0c-121,-17 -242,-38 -361,-63l0 0c-5,0 -10,-1 -15,-2l0 0c-13,-3 -25,-7 -38,-9l0 0c-116,-25 -230,-53 -343,-84l0 0c-17,-5 -35,-8 -52,-13l0 0c-9,-3 -17,-6 -25,-9l0 0c-148,-43 -292,-92 -432,-145l0 0c-12,-5 -26,-8 -38,-13l0 0c-16,-6 -31,-14 -47,-21l0 0c-67,-27 -132,-55 -197,-85l0 0c-29,-14 -59,-27 -88,-41l0 0c-92,-44 -182,-91 -268,-140l0 0c-813,-470 -1219,-1086 -1217,-1702l1 -243 0 0c-125,-80 -220,-169 -284,-263l0 0c-68,-100 -101,-205 -101,-311l2 -852 0 0c-289,-376 -435,-779 -434,-1182l4 -1139 0 0c-1,329 95,658 287,972l0 0c116,188 267,371 452,545l-3 1036 0 0c31,23 64,46 99,67l-1 462 0 0c88,537 487,1060 1199,1471l0 0c86,49 175,96 267,140l0 0c29,14 59,27 89,41l0 0c65,30 129,58 196,85l0 0c28,12 57,23 85,34l0 0c140,53 284,102 432,145l0 0c25,8 52,14 77,21l0 0c113,32 227,60 343,84l0 0c18,4 35,9 53,13l0 0c119,24 240,44 361,62l0 0c32,5 65,9 97,13l0 0c91,12 182,22 273,31l0 0c35,3 69,6 104,9l0 0c121,9 242,16 363,19l0 0c5,0 10,0 15,0l0 0c121,3 242,2 363,-1l0 0c33,-1 66,-3 98,-4l0 0c133,-6 264,-13 395,-26l0 0c4,-1 9,-1 13,-1l0 0c165,-17 328,-40 489,-68l0 0c22,-4 43,-7 64,-11l0 0c107,-20 212,-41 316,-66l0 0c79,-11 156,-27 232,-43l0 0c24,-5 47,-10 71,-15l0 0c82,-19 162,-41 240,-66l0 0c57,-19 111,-41 166,-63l0 0c30,-11 60,-21 89,-33l0 0c82,-36 161,-76 235,-119l8717 -5066 0 0c16,-9 32,-20 47,-29l0 0c54,-34 106,-68 152,-104l0 0c68,-49 131,-99 192,-150l0 0c16,-13 32,-27 48,-41l0 0c46,-40 88,-81 129,-122l0 0c15,-14 30,-28 44,-43l0 0c51,-54 99,-109 142,-165l0 0c6,-6 10,-13 15,-20l0 0c38,-49 72,-99 103,-150l0 0c9,-13 17,-25 25,-39l0 0c15,-27 28,-54 42,-81l0 0c25,-48 49,-97 68,-146l0 0c11,-27 21,-54 31,-82l0 0c15,-45 28,-91 39,-137l0 0c6,-27 13,-55 18,-82l0 0c9,-50 14,-100 17,-151l0 0c2,-29 6,-58 7,-87z"/>
     <path class="fil35" d="M62524 79082c-1367,-545 -3248,-466 -4457,237l0 0c-403,234 -685,511 -850,806l0 0c-1439,-87 -2929,188 -4028,827l0 0c-1652,959 -1883,2427 -703,3535l0 0c-441,327 -407,796 96,1103l0 0c-117,690 282,1404 1198,1933l0 0c1218,703 3001,876 4493,520l0 0c381,-55 737,-167 1033,-339l0 0 8717 -5066c72,-42 139,-87 199,-133l0 0c1321,-939 1218,-2326 -299,-3202l0 0c-809,-467 -1866,-700 -2922,-700l0 0c-873,0 -1746,160 -2477,479l0 0z"/>
     <path class="fil36" d="M57590 82942c-16,-78 -7,-158 31,-238 46,-99 131,-186 243,-257 12,-7 24,-15 36,-22 6,-3 13,-7 19,-10 13,-7 26,-14 39,-21 13,-6 26,-13 40,-19 7,-3 14,-6 21,-9 28,-12 57,-23 86,-34 8,-2 15,-5 23,-7 15,-5 30,-10 45,-14 8,-3 16,-5 24,-7 15,-5 31,-9 47,-13 8,-2 16,-3 24,-5 11,-3 23,-5 34,-8 14,-2 27,-5 40,-7 17,-3 33,-6 50,-9 23,-3 45,-6 69,-9 11,-1 22,-2 34,-3 17,-2 35,-4 52,-5 27,-1 53,-2 80,-3 17,0 35,-1 53,0 90,0 181,7 271,21 162,26 306,71 426,131 20,10 39,20 57,31 13,7 25,14 36,22 12,7 24,15 35,23 27,19 53,39 76,60 10,9 19,17 27,26 13,13 25,26 37,40 7,9 14,18 21,27 4,5 7,9 10,14 6,9 12,19 18,28 9,15 16,29 23,44 4,10 8,19 12,29 35,94 32,194 -14,293 -39,84 -106,159 -193,223 -11,8 -22,16 -33,23 -35,23 -72,45 -111,64 -14,7 -27,13 -41,20 -7,3 -14,6 -20,9 -21,9 -43,17 -65,25 -248,92 -560,125 -867,77 -147,-23 -278,-62 -390,-113 -48,-22 -92,-45 -132,-71 -14,-9 -27,-18 -40,-27 -31,-23 -60,-46 -86,-71 -25,-25 -48,-51 -68,-78 -3,-4 -7,-9 -10,-13 -6,-10 -12,-19 -18,-29 -5,-9 -11,-19 -16,-29 -9,-19 -17,-38 -24,-58 -2,-7 -4,-13 -6,-20 -1,-7 -3,-14 -5,-21zm2209 -1641l-727 -114c-93,-14 -190,32 -215,85l-113 242 0 1c-225,-2 -490,12 -728,52l-219 -218c-48,-48 -154,-65 -238,-37l-653 217c-83,27 -112,89 -64,137l216 216 1 0c-177,96 -320,188 -448,332l-418 -66c-93,-14 -198,20 -223,73l-197 420c-25,54 48,89 141,104l418 65 2 0c-18,161 16,292 85,430l-380 135c-84,27 -113,89 -65,137l376 377c48,49 155,65 238,38l377 -125 4 0c165,102 333,186 582,260l-114 241c-25,54 27,94 120,109l728 113c93,15 160,-7 185,-60l113 -242 1 -1c278,10 497,-10 736,-51l227 219c48,48 154,64 238,37l653 -218c84,-27 113,-90 65,-139l-214 -219 2 -7c177,-96 326,-202 454,-345l418 65c93,15 170,5 195,-48l196 -420c25,-54 -18,-114 -111,-128l-418 -65 -2 -1c18,-160 -23,-278 -92,-416l374 -121c83,-28 112,-89 64,-138l-376 -377c-48,-48 -156,-65 -239,-37l-379 124 -8 -1c-165,-102 -342,-187 -590,-261l113 -241c25,-54 2,-119 -91,-133z"/>
     <path class="fil36" d="M62693 82720c-41,-43 -69,-90 -80,-142 -14,-64 0,-126 35,-183 4,-6 8,-12 12,-17 2,-3 5,-6 7,-9 4,-6 9,-12 14,-17 5,-6 10,-11 15,-17 3,-3 6,-5 9,-8 11,-11 23,-21 36,-31 3,-3 6,-5 10,-8 7,-5 13,-10 20,-14 4,-3 8,-5 11,-8 8,-4 15,-9 23,-13 4,-3 7,-5 11,-7 6,-3 11,-6 17,-9 7,-3 13,-7 20,-10 8,-4 17,-8 26,-12 11,-5 23,-10 35,-14 7,-3 13,-5 19,-7 9,-3 19,-6 29,-10 14,-4 29,-9 44,-13 11,-2 21,-5 31,-7 53,-12 108,-20 166,-25 105,-7 207,0 301,18 16,3 31,6 47,10 10,2 20,5 30,8 9,2 19,5 29,8 24,8 47,16 69,25 9,4 18,7 26,11 13,6 26,12 38,18 8,4 16,9 24,13 4,2 8,5 11,7 8,4 15,9 23,14 10,7 21,14 30,22 7,5 13,10 20,15 58,50 98,109 112,172 12,54 4,107 -20,156 -3,6 -6,12 -10,18 -10,18 -23,36 -38,53 -5,5 -10,11 -16,16 -2,3 -5,6 -8,8 -8,9 -17,16 -27,24 -106,88 -274,150 -472,164 -94,7 -186,2 -272,-12 -37,-6 -72,-14 -107,-24 -11,-3 -22,-6 -33,-10 -28,-8 -54,-18 -80,-29 -25,-11 -49,-23 -71,-36 -4,-2 -8,-4 -11,-6 -8,-5 -15,-10 -23,-14 -7,-5 -14,-10 -21,-15 -13,-10 -26,-20 -38,-31 -4,-3 -8,-7 -11,-10 -4,-4 -8,-8 -12,-12zm606 -1256l-468 34c-60,5 -97,44 -90,79l34 156 0 0c-132,30 -279,74 -401,130l-217 -96c-47,-21 -116,-16 -153,11l-290 216c-37,27 -29,67 19,88l215 96 0 0c-63,79 -108,153 -123,254l-270 19c-60,5 -107,39 -99,73l58 271c8,35 65,45 124,41l270 -20 1 0c56,96 130,167 227,238l-166 130c-36,28 -28,68 20,89l373 167c48,22 117,17 154,-11l167 -124 3 0c137,36 270,62 444,71l34 155c7,35 54,51 114,47l469 -34c60,-5 90,-26 83,-61l-34 -155 0 -1c165,-32 284,-75 406,-131l222 96c48,22 116,16 153,-11l290 -216c37,-28 28,-68 -19,-90l-215 -98 -2 -4c63,-80 107,-162 122,-263l269 -19c60,-4 101,-20 93,-55l-59 -271c-7,-34 -57,-63 -117,-59l-270 20 -1 0c-55,-96 -127,-158 -224,-229l167 -122c37,-27 28,-67 -20,-88l-373 -168c-48,-21 -118,-16 -155,11l-169 124 -5 1c-137,-36 -275,-62 -449,-70l-34 -156c-8,-35 -48,-69 -108,-65z"/>
    </g>
    <g>
     <path class="fil37" d="M40743 49691l-11417 6592c-593,342 -889,942 -887,1541l0 0 0 9 0 8 0 8 0 8 0 9 0 8 0 8 0 8 0 9 0 8 0 8 0 8 0 9 0 8 0 8 0 8 0 9 0 8 0 8 0 8 0 9 0 8 0 8 0 8 0 8 0 9 0 8 0 8 0 9 0 8 0 8 0 8 0 8 0 9 0 8 0 8 0 8 0 9 0 8 0 8 0 9 0 8 0 8 0 8 0 8 0 9 0 8 0 8 0 8 0 9 0 8 0 8 0 8 0 9 0 8 0 8 0 8 0 8 0 9 0 8 0 8 0 9 0 8 0 8 0 8 0 8 0 9 0 8 0 8 0 8 0 9 0 8 0 8 0 8 0 9 0 8 0 8 0 8 0 9 0 8 0 8 0 8 0 8 0 9 0 8 0 8 0 9 0 8 0 8 0 8 0 8 0 9 0 8 0 8 0 8 0 9 0 8 0 8 0 8 0 9c-2,599 294,1199 887,1541l0 0 7162 4135c550,318 1226,318 1776,0l0 0 11416 -6591c593,-342 889,-942 888,-1542l0 0 0 -8 0 -8 0 -9 0 -8 0 -8 0 -8 0 -8 0 -9 0 -8 0 -8 0 -8 0 -9 0 -8 0 -8 0 -8 0 -9 0 -8 0 -8 0 -8 0 -9 0 -8 0 -8 0 -8 0 -8 0 -9 0 -8 0 -8 0 -9 0 -8 0 -8 0 -8 0 -8 0 -9 0 -8 0 -8 0 -8 0 -9 0 -8 0 -8 0 -8 0 -9 0 -8 0 -8 0 -8 0 -9 0 -8 0 -8 0 -9 0 -8 0 -8 0 -8 0 -8 0 -9 0 -8 0 -8 0 -8 0 -9 0 -8 0 -8 0 -8 0 -9 0 -8 0 -8 0 -8 0 -8 0 -9 0 -8 0 -8 0 -8 0 -9 0 -8 0 -8 0 -9 0 -8 0 -8 0 -8 0 -8 0 -9 0 -8 0 -8 0 -8 0 -9 0 -8 0 -8 0 -8 0 -9 0 -8 0 -8 0 -8 0 -8 0 -9 0 -8 0 -8 0 -9 0 -8 0 -8 0 -8 0 -8 0 -9 0 -8c1,-599 -295,-1199 -888,-1542l0 0 -7162 -4135c-274,-158 -581,-237 -887,-237 -307,0 -614,79 -888,237l0 0z"/>
     <path class="fil38" d="M40743 49691l-11417 6592c-1183,683 -1183,2392 0,3075l0 0 7162 4135c550,317 1226,317 1776,0l0 0 11416 -6591c1184,-684 1184,-2392 0,-3076l0 0 -7162 -4135c-274,-158 -581,-237 -887,-237 -307,0 -614,79 -888,237l0 0z"/>
     <path class="fil39" d="M42092 51615l-11120 6420c-202,117 -172,331 64,467l4315 2491c233,135 476,223 732,217 144,-4 278,-37 407,-98 42,-20 81,-42 136,-74l10804 -6238c202,-116 172,-330 -64,-467l-4644 -2681c-180,-104 -442,-145 -630,-37zm-5775 9748c-81,16 -169,24 -263,24 -240,0 -475,-55 -642,-152l-4644 -2681c-295,-171 -323,-421 -64,-570l11120 -6421c209,-121 347,-164 501,-170 195,-8 402,56 665,208l4644 2680c295,171 323,421 64,571l-11120 6420c-71,41 -160,72 -261,91z"/>
     <path class="fil40" d="M43881 56019l-5371 3101c-77,44 -67,123 22,174l0 0c89,51 224,57 301,12l0 0 5371 -3101c77,-44 67,-122 -21,-174l0 0c-49,-28 -112,-42 -171,-42l0 0c-49,0 -96,10 -131,30l0 0z"/>
     <polygon class="fil39" points="38429,57867 35560,57683 35578,57586 38265,57758 38356,55566 41103,55268 41215,53555 41384,53558 41267,55349 38521,55647 "/>
     <polygon class="fil41" points="41905,53673 41333,53047 40680,53647 "/>
     <path class="fil42" d="M35966 57405c219,127 219,332 0,458 -220,127 -575,127 -794,0 -219,-126 -219,-331 0,-458 219,-126 574,-126 794,0z"/>
     <path class="fil41" d="M38744 57583c219,127 219,332 0,458 -219,127 -575,127 -794,0 -219,-126 -219,-331 0,-458 219,-126 575,-126 794,0z"/>
     <path class="fil12" d="M38836 55377c219,127 219,332 0,458 -220,127 -575,127 -794,0 -219,-126 -219,-331 0,-458 219,-126 574,-126 794,0z"/>
     <path class="fil43" d="M41582 55079c219,127 219,332 0,458 -219,127 -575,127 -794,0 -219,-126 -219,-331 0,-458 219,-126 575,-126 794,0z"/>
     <polygon class="fil43" points="37285,59150 35404,60236 34315,59607 36196,58521 "/>
     <polygon class="fil43" points="45806,54231 43925,55317 42835,54688 44716,53602 "/>
    </g>
    <g>
     <path class="fil44" d="M68408 36933l1044 69 -3761 9966 -2447 -5635 -5862 17204 -3278 -4525 -588 1641 -2243 6283 0 0c-2330,6561 -2233,6592 -2307,6910l0 0 1377 -617 3837 -10903 0 0 3318 4580 5617 -16487 2367 5451 5204 -13787 1044 69 -58 -4356 -3264 4137z"/>
     <path class="fil45" d="M52348 55000c-11,31 -1134,3165 -2242,6284l0 0 -2307 6909 0 0 1167 653c74,-318 -23,-349 2307,-6910l0 0 2243 -6283 0 0 586 -1635 -1165 -659 -589 1641z"/>
     <path class="fil45" d="M67206 36328l893 515 -3164 8384 756 1741 3761 -9966 -1044 -69 3264 -4137 -1168 -652 -3298 4184zm-2271 8899l0 0 -1691 -3894 1691 3894z"/>
     <path class="fil45" d="M56437 57233l945 1304 5862 -17204 -1167 -652 -5640 16552zm0 0l0 0 -2333 -3221 2333 3221z"/>
     <path class="fil46" d="M53950 57968l2380 3286 3 -7 1165 659 -3318 -4580c-93,259 -193,538 -230,642zm0 0l0 0c-22,61 -19,53 0,0l0 0z"/>
     <polygon class="fil46" points="62727,46559 64315,50218 65482,50870 63115,45419 "/>
    </g>
    <g>
     <path class="fil47" d="M14230 66871c1,15 0,30 0,45l0 0c18,745 477,1454 1398,1986l0 0 17560 10138c2075,1198 5700,1048 8096,-336l0 0c1353,-781 2024,-1788 1979,-2733l0 0 0 -1728c-22,905 -690,1854 -1979,2599l0 0c-2396,1383 -6021,1533 -8096,335l0 0 -17560 -10138c-903,-521 -1363,-1212 -1398,-1940l0 1772zm29033 7372c0,-30 0,-60 0,-89l0 0 0 89z"/>
     <path class="fil48" d="M16210 62365c-2397,1384 -2657,3476 -582,4674l0 0 17560 10138c2075,1198 5700,1048 8096,-335l0 0c2396,-1384 2656,-3476 581,-4674l0 0 -17560 -10138c-940,-543 -2198,-809 -3516,-809l0 0c-1591,0 -3269,388 -4579,1144l0 0z"/>
     <path class="fil49" d="M35836 72664l-2835 2092c1822,824 4452,732 6089,-213 689,-398 1141,-912 1292,-1467l-4546 -412z"/>
     <path class="fil50" d="M35836 72664l-563 -2636c-1018,72 -1965,339 -2690,758 -1785,1030 -1785,2726 0,3757 132,76 271,147 418,213l2835 -2092z"/>
     <path class="fil51" d="M35836 72664l4546 412c228,-838 -253,-1690 -1292,-2290 -1002,-578 -2411,-859 -3817,-758l563 2636z"/>
     <path class="fil52" d="M39090 74543c689,-398 1141,-912 1292,-1467l0 1495c-151,556 -603,1070 -1292,1467 -1637,945 -4267,1037 -6089,214l0 -1496c1822,824 4452,732 6089,-213z"/>
     <path class="fil53" d="M32583 74543c131,76 271,147 417,213l0 1496c-146,-67 -286,-138 -417,-214 -898,-518 -1344,-1205 -1338,-1890l0 -1447c0,-8 0,-17 0,-25 5,678 451,1354 1338,1867z"/>
     <path class="fil54" d="M23602 65860l-612 354c-551,318 -610,798 -134,1073l0 0 5801 3349c477,276 1309,241 1859,-77l0 0 613 -353c550,-318 610,-798 133,-1073l0 0 -5801 -3350c-216,-124 -505,-185 -808,-185l0 0c-365,0 -750,89 -1051,262l0 0z"/>
     <polygon class="fil55" points="19344,65859 20101,66297 24139,63966 23381,63529 "/>
     <polygon class="fil55" points="17996,65081 18754,65519 21235,64086 20477,63649 "/>
     <polygon class="fil55" points="16649,64303 17406,64741 20694,62842 19937,62405 "/>
    </g>
    <g>
     <path class="fil29" d="M66066 73612l-3393 0 0 1547c0,253 166,505 498,697l0 0c665,384 1746,384 2403,0l0 0c328,-191 492,-444 492,-697l0 0 0 -1547z"/>
     <path class="fil56" d="M63171 72914c-664,384 -664,1011 0,1395 665,383 1746,383 2403,0 657,-383 657,-1011 0,-1395 -657,-383 -1738,-383 -2403,0z"/>
    </g>
    <g>
     <g>
      <path class="fil57" d="M43517 78592l0 2094c0,253 166,505 498,697l0 0c663,383 1743,383 2400,0l0 0c328,-191 492,-444 492,-697l0 0 0 -2094 -3390 0z"/>
      <path class="fil58" d="M44015 77895c-664,383 -664,1010 0,1394 663,383 1744,383 2400,0 656,-383 656,-1010 0,-1394 -656,-383 -1737,-383 -2400,0z"/>
     </g>
     <g>
      <path class="fil59" d="M49529 84245l0 -3827 -3390 0 0 3827c0,253 165,505 497,697l0 0c664,383 1744,383 2401,0l0 0c328,-192 492,-444 492,-697z"/>
      <path class="fil60" d="M46636 79686c-663,383 -663,1010 0,1393 664,383 1744,383 2401,0 656,-383 656,-1010 0,-1393 -657,-384 -1737,-384 -2401,0z"/>
     </g>
    </g>
    <g>
     <path class="fil61" d="M4565 42233l0 7 0 7c1,150 9,293 17,436l0 0 144 -80c3,68 4,138 8,206l0 0 143 -80c4,68 4,138 9,205l0 0 143 -80c3,68 4,139 8,206l0 0 144 -81c3,69 3,139 7,207l0 0 144 -81c3,69 4,139 8,206l0 0 144 -80c3,68 3,138 7,206l0 0 144 -80c3,68 4,138 8,206l0 0 143 -81c4,68 5,139 9,206l0 0 143 -80c3,68 4,138 8,206l0 0 21680 -12147c10,-157 18,-314 18,-470l0 0c0,-1481 -452,-2566 -1181,-3121l0 0c-48,-45 -99,-86 -151,-125l0 0c-49,-45 -100,-87 -152,-126l0 0c-49,-45 -99,-86 -151,-126l0 0c-49,-45 -100,-86 -152,-125l0 0c-49,-45 -100,-87 -151,-126l0 0c-49,-45 -100,-86 -152,-126l0 0c-49,-45 -100,-86 -152,-126l0 0c-48,-44 -99,-86 -151,-125l0 0c-701,-642 -1702,-740 -2818,-153l0 0c-303,-667 -707,-1198 -1190,-1579l0 0c-49,-44 -100,-85 -152,-126l0 0c-49,-44 -100,-85 -151,-125l0 0c-50,-44 -100,-86 -152,-126l0 0c-49,-44 -100,-85 -151,-126l0 0c-50,-44 -100,-85 -152,-125l0 0c-49,-44 -100,-86 -151,-126l0 0c-50,-44 -100,-85 -152,-126l0 0c-49,-43 -100,-85 -151,-125l0 0c-601,-533 -1338,-816 -2165,-816l0 0c-736,0 -1543,224 -2390,699l0 0c-2816,1578 -5194,5426 -5958,9304l0 0c-166,67 -333,146 -503,241l0 0c-2458,1377 -4450,5169 -4450,8471z"/>
     <path class="fil48" d="M16840 25347c-2816,1578 -5194,5427 -5958,9304 -166,68 -333,146 -504,242 -2457,1377 -4449,5169 -4449,8470 0,84 2,166 6,247l3 -2c3,66 4,133 8,199 0,1 0,3 0,4 0,1 0,2 0,3l21680 -12147c10,-157 17,-314 17,-470 0,-1481 -451,-2567 -1180,-3121 -2,-2 -5,-4 -7,-7 -712,-537 -1687,-568 -2763,34 -260,146 -513,324 -759,526 -105,-641 -275,-1214 -501,-1711 -303,-667 -707,-1198 -1190,-1579 -7,-7 -14,-13 -21,-19 -1124,-871 -2672,-931 -4382,27z"/>
    </g>
    <g>
     <path class="fil61" d="M35560 14070l0 -14c0,-916 -279,-1587 -730,-1931l0 0c-30,-27 -61,-53 -93,-77l0 0c-31,-28 -62,-54 -95,-78l0 0c-30,-28 -61,-53 -93,-78l0 0c-31,-27 -62,-53 -94,-78l0 0c-30,-27 -61,-53 -94,-77l0 0c-30,-28 -62,-54 -94,-78l0 0c-30,-28 -61,-53 -93,-78l0 0c-31,-27 -62,-53 -94,-78l0 0c-434,-396 -1053,-457 -1744,-94l0 0c-187,-413 -437,-741 -736,-977l0 0c-31,-27 -62,-53 -94,-78l0 0c-30,-27 -61,-53 -93,-78l0 0c-31,-27 -62,-52 -94,-77l0 0c-30,-28 -62,-53 -94,-78l0 0c-30,-27 -62,-53 -94,-78l0 0c-30,-27 -61,-52 -93,-77l0 0c-31,-28 -63,-53 -94,-78l0 0c-31,-27 -62,-53 -94,-78l0 0c-371,-329 -827,-505 -1339,-505 -455,0 -955,139 -1479,433l0 0c-1742,976 -3213,3357 -3686,5756l0 0c-102,42 -206,90 -312,149l0 0c-1520,852 -2752,3198 -2752,5241l0 0c0,96 5,187 11,279l0 0 88 -50c2,42 3,86 5,127l0 0 89 -50c2,43 2,86 5,128l0 0 89 -49c2,41 2,85 5,127l0 0 89 -50c1,42 2,86 4,128l0 0 89 -50c2,42 3,86 5,127l0 0 89 -50c2,43 2,86 5,128l0 0 89 -50c2,42 2,86 5,128l0 0 89 -50c1,42 2,86 4,127l0 0 89 -49c2,42 3,85 5,127l0 0 13413 -7515c6,-93 11,-185 11,-277z"/>
     <path class="fil62" d="M22136 21862c-5,-91 -11,-182 -11,-279 0,-2042 1233,-4388 2753,-5240 106,-59 209,-107 312,-149 473,-2400 1944,-4781 3686,-5757 1863,-1043 3417,-134 3770,2030 153,-125 309,-235 470,-325 1350,-756 2444,101 2444,1914 0,96 -5,194 -10,291l-13414 7515z"/>
    </g>
    <g>
     <polygon class="fil63" points="75962,47410 75928,59372 93031,69247 93065,57284 "/>
     <polygon class="fil44" points="75962,47410 76925,46846 93988,56748 93065,57284 "/>
     <polygon class="fil34" points="93031,69247 93954,68710 93988,56748 93065,57284 "/>
     <path class="fil64" d="M75928 59372l8349 -1041 8754 10916c0,0 -17103,-9875 -17103,-9875z"/>
     <path class="fil65" d="M93065 57284l-8597 3147 -8506 -13021c0,0 17103,9875 17103,9874z"/>
    </g>
    <path class="fil22" d="M85067 58420c41,-434 -153,-851 -531,-1069 -486,-281 -852,22 -854,587 -1,435 228,831 579,1033 438,253 756,1 806,-551zm2103 932c2,40 2,80 2,120 -2,836 -288,1231 -656,1321 -222,54 -474,-2 -713,-140 -262,-151 -463,-348 -607,-569 -109,-166 -184,-345 -228,-527 -241,214 -578,256 -960,51 -13,-7 -27,-14 -40,-22 -436,-252 -781,-691 -970,-1194 -65,-174 -112,-356 -137,-540 -15,-107 -22,-216 -22,-324 3,-1061 733,-1518 1516,-1065 439,253 729,669 891,1072l81 -401 810 536c-227,1196 -350,1693 -351,1972 0,74 10,145 30,212 8,27 17,55 28,80 50,118 130,220 232,296 23,18 48,34 73,49 345,199 695,6 735,-821 2,-48 4,-98 4,-150 4,-1327 -944,-2937 -2239,-3685 -1296,-748 -2370,-237 -2531,1092 -13,110 -20,226 -20,347 -1,454 94,936 267,1407 380,1040 1133,2026 2038,2548 553,320 986,414 1445,361l135 319c-487,75 -987,-35 -1593,-384 -992,-573 -1830,-1666 -2260,-2815 -200,-533 -311,-1078 -310,-1589 1,-204 19,-394 53,-570 256,-1330 1419,-1810 2790,-1018 1398,808 2454,2606 2507,4031z"/>
    <path class="fil35" d="M24654 53374l-9901 -5717c-736,438 -898,1434 -338,2082l338 392 9901 5713 0 -2470z"/>
    <g>
     <path class="fil9" d="M12149 55687c-1712,-988 -3112,-3414 -3112,-5391 0,-1977 1399,-2786 3109,-1798 1711,988 3111,3414 3112,5391 1,1977 -1398,2786 -3109,1798zm283 -9438c-1370,-791 -2617,-872 -3529,-367l-1 -2 -39 22c-1,1 -2,1 -3,2l-1214 688 221 361c-314,578 -491,1325 -491,2219 0,316 23,639 66,966 0,1 0,1 0,2 46,2229 2628,8330 4064,11561l-310 2779 1251 -709c0,0 2948,-3725 4384,-6264 127,-184 238,-390 330,-616 2,-3 4,-7 5,-10 26,-52 44,-106 60,-162 171,-486 265,-1056 264,-1706 -1,-3214 -2278,-7157 -5058,-8764z"/>
     <path class="fil66" d="M6126 49881c0,316 22,639 65,966l0 0c0,1 -1,1 -1,2l0 0c66,3092 5006,13631 5006,13631l0 0c0,0 2948,-3725 4384,-6264l0 0c127,-184 238,-390 330,-616l0 0c2,-4 4,-7 5,-10l0 0c26,-51 44,-106 60,-162l0 0c171,-486 265,-1056 264,-1706l0 0c-2,-3214 -2278,-7157 -5058,-8764l0 0c-805,-465 -1568,-685 -2246,-685l0 0c-1662,0 -2809,1325 -2809,3608zm4771 6515c-1711,-988 -3111,-3414 -3111,-5391l0 0c0,-1977 1399,-2786 3109,-1798l0 0c1711,988 3111,3414 3112,5391l0 0c1,1405 -705,2220 -1727,2220l0 0c-417,0 -887,-136 -1383,-422l0 0z"/>
    </g>
    <g>
     <path class="fil6" d="M70903 25948l3 0 1 0c15,0 28,-2 43,-2l0 0c44,-1 87,-3 129,-6l0 0c13,-1 26,0 39,-2l0 0c10,-1 18,-3 28,-4l0 0c65,-7 130,-16 193,-28l0 0c5,-1 10,-1 16,-2l0 0c0,0 1,0 2,-1l0 0c90,-18 176,-42 261,-71l0 0c7,-3 15,-4 23,-7l0 0c6,-2 11,-5 17,-7l0 0c38,-14 73,-29 109,-45l0 0c17,-7 35,-13 52,-21l0 0c52,-25 104,-51 153,-80l0 0 1594 -926c-50,29 -101,55 -154,80l0 0c-17,8 -34,14 -51,22l0 0c-36,15 -72,30 -110,44l0 0c-13,5 -27,9 -40,14l0 0c-85,29 -171,53 -261,71l0 0c-6,1 -12,2 -18,3l0 0c-63,12 -127,22 -193,28l0 0c-22,3 -44,4 -67,6l0 0c-42,4 -85,6 -128,6l0 0c-25,1 -50,2 -75,1l0 0c-34,0 -69,-1 -104,-3l0 0c-28,-1 -56,-2 -85,-5l0 0c-29,-2 -59,-5 -88,-9l0 0c-33,-3 -65,-7 -97,-12l0 0c-28,-3 -56,-8 -84,-13l0 0c-34,-6 -69,-12 -105,-20l0 0c-24,-5 -48,-10 -72,-16l0 0c-38,-8 -76,-18 -114,-28l0 0c-24,-6 -48,-13 -72,-20l0 0c-41,-12 -83,-25 -125,-39l0 0c-20,-6 -39,-12 -59,-19l0 0c-62,-21 -124,-44 -187,-69l0 0c-1,0 -1,-1 -1,-1l0 0c-62,-25 -125,-52 -188,-80l0 0c-19,-9 -39,-19 -59,-28l0 0c-44,-21 -89,-43 -134,-66l0 0c-22,-11 -44,-23 -67,-35l0 0c-59,-31 -119,-63 -180,-98l0 0c-138,-80 -275,-167 -410,-261l0 0c-8,-5 -16,-12 -24,-17l0 0c-126,-88 -250,-182 -371,-280l0 0c-14,-11 -28,-22 -42,-34l0 0c-118,-96 -234,-198 -348,-304l0 0c-14,-13 -27,-25 -41,-38l0 0c-116,-109 -229,-222 -340,-340l0 0c-9,-9 -18,-19 -28,-28l0 0c-118,-127 -234,-258 -346,-393l0 0c-1,-1 -2,-3 -3,-4l0 0c-115,-139 -227,-281 -335,-428l0 0c-1,-1 -2,-2 -2,-3l0 0c-98,-133 -192,-270 -284,-408l0 0c-57,-86 -110,-174 -164,-262l0 0c-46,-74 -93,-148 -137,-223l0 0c-21,-35 -40,-72 -60,-107l0 0c-72,-126 -141,-253 -207,-382l0 0c-7,-14 -14,-28 -22,-42l0 0c-78,-156 -153,-315 -223,-474l0 0c-4,-9 -7,-17 -11,-25l0 0c-68,-157 -131,-314 -190,-473l0 0c-4,-10 -8,-21 -12,-31l0 0c-60,-162 -114,-325 -163,-488l0 0c-3,-10 -6,-19 -9,-29l0 0c-47,-157 -88,-313 -125,-470l0 0c-4,-15 -7,-30 -11,-45l0 0c-37,-162 -69,-323 -94,-483l0 0c-1,-3 -1,-5 -1,-8l0 0c-26,-161 -45,-322 -59,-482l0 0c-1,-13 -2,-26 -3,-39l0 0c-12,-159 -19,-318 -19,-474l0 0c1,-155 8,-304 22,-449l0 0c1,-13 2,-26 4,-39l0 0c13,-132 32,-260 55,-382l0 0c4,-16 7,-33 10,-49l0 0c25,-118 54,-232 88,-341l0 0c7,-20 13,-40 20,-60l0 0c34,-102 72,-200 114,-293l0 0c5,-10 9,-21 14,-32l0 0c50,-105 105,-205 165,-298l0 0c8,-12 17,-23 25,-35l0 0c49,-75 103,-145 159,-210l0 0c20,-24 42,-47 63,-70l0 0c49,-52 100,-102 154,-148l0 0c22,-20 43,-40 66,-58l0 0c76,-60 154,-116 237,-165l0 0 -1593 926c-83,48 -162,105 -237,165l0 0c-23,18 -45,38 -67,57l0 0c-53,47 -104,96 -153,149l0 0c-22,23 -43,45 -64,69l0 0c-56,66 -109,136 -159,211l0 0c-7,12 -17,23 -24,35l0 0c-3,3 -5,5 -6,8l0 0c-56,88 -108,181 -155,280l0 0c-1,3 -3,7 -4,10l0 0c-5,11 -9,22 -14,32l0 0c-28,62 -56,125 -80,191l0 0c-13,33 -23,68 -34,102l0 0c-7,20 -14,40 -20,60l0 0c-6,18 -13,36 -18,54l0 0c-20,68 -38,138 -55,209l0 0c-5,26 -10,52 -15,78l0 0c-3,16 -7,32 -10,49l0 0c-5,25 -10,49 -15,74l0 0c-11,64 -21,129 -29,196l0 0c-5,37 -8,75 -11,112l0 0c-2,13 -3,26 -5,39l0 0c-1,15 -3,31 -4,46l0 0c-6,64 -10,128 -12,193l0 0c-3,66 -5,132 -5,199l0 0c0,4 0,7 0,11l0 0c0,62 1,123 3,185l0 0c1,66 5,132 9,198l0 0c2,31 5,61 7,91l0 0c1,13 2,26 3,40l0 0c2,23 3,46 6,69l0 0c6,66 13,133 22,201l0 0c8,68 18,137 29,206l0 0c1,1 1,3 1,5l0 0c1,3 1,5 2,8l0 0c10,64 21,129 33,193l0 0c13,72 28,143 43,214l0 0c6,26 12,51 18,76l0 0c3,15 7,30 11,45l0 0c7,31 14,63 22,94l0 0c18,72 36,145 57,217l0 0c14,53 30,106 46,159l0 0c3,10 5,19 8,29l0 0c3,9 6,19 9,29l0 0c21,70 44,141 68,211l0 0c23,70 47,140 72,209l0 0c5,13 10,26 15,39l0 0c4,11 8,21 12,31l0 0c16,44 32,87 49,131l0 0c26,66 52,133 80,199l0 0c20,48 40,96 61,143l0 0c4,8 7,16 11,24l0 0c3,10 7,19 12,28l0 0c29,66 59,133 90,198l0 0c34,73 69,145 104,216l0 0c6,11 12,22 17,33l0 0c7,14 15,28 22,42l0 0c29,58 58,115 88,171l0 0c38,71 79,141 118,211l0 0c20,35 40,71 60,107l0 0c9,14 16,28 24,42l0 0c36,62 76,120 113,181l0 0c55,88 108,176 165,261l0 0c9,14 17,29 26,43l0 0c84,125 170,248 259,368l0 0c0,0 0,1 0,1l0 0c0,0 1,0 1,0l0 0c59,81 120,161 182,239l0 0c50,64 101,126 152,188l0 0c1,2 3,3 3,5l0 0c1,1 2,2 3,3l0 0c52,62 105,124 158,185l0 0c53,60 106,119 159,176l0 0c9,10 18,19 27,28l0 0c9,10 19,20 28,29l0 0c37,40 75,80 113,119l0 0c57,58 114,115 173,171l0 0c18,17 36,33 54,50l0 0c13,13 27,25 40,38l0 0c29,27 57,53 86,79l0 0c60,55 121,108 182,159l0 0c27,23 54,44 81,67l0 0c14,10 27,22 41,33l0 0c20,16 40,33 60,49l0 0c60,47 120,93 180,137l0 0c44,32 88,63 132,94l0 0c8,5 16,11 24,17l0 0c7,5 15,11 22,16l0 0c58,40 116,78 174,115l0 0c58,37 116,72 174,106l0 0c13,8 27,16 40,24l0 0c44,25 87,49 131,73l0 0c16,8 32,16 49,25l0 0c22,12 45,24 67,35l0 0c17,9 35,18 52,27l0 0c27,13 54,26 82,38l0 0c20,10 39,19 59,29l0 0c8,3 17,7 25,11l0 0c54,24 108,47 162,69l0 0c1,0 1,0 2,1l0 0c56,22 111,43 166,62l0 0c7,2 13,4 20,7l0 0c20,7 40,13 60,19l0 0c28,9 56,19 84,28l0 0c14,4 27,7 41,11l0 0c24,7 48,13 72,20l0 0c19,5 37,11 56,15l0 0c19,5 38,9 58,13l0 0c24,6 48,11 72,16l0 0c13,3 26,6 38,9l0 0c23,4 45,7 67,11l0 0c28,5 56,9 83,13l0 0c10,2 20,4 30,5l0 0c23,3 45,5 67,7l0 0c30,3 60,7 89,9l0 0c9,1 18,3 26,3l0 0c20,1 39,1 59,2l0 0c35,2 70,3 104,3l0 0c9,0 18,1 27,1zm-3143 -11192l0 0 0 0c0,0 0,0 0,0l0 0z"/>
     <path class="fil6" d="M77558 23752l0 0 0 -1 0 0 0 -1 0 -1 0 0 0 -1 0 -1 0 0 0 -1 0 0 0 -1 0 -1 0 0 0 -1 0 0 0 -1 0 -1 0 0 0 -1 0 0 0 -1 0 -1 0 0 0 -1 0 0 0 -1 0 -1 0 0 0 -1 0 0 0 -1 -2797 -1615 -1594 926 2798 1615c-1,127 -4,252 -10,375l0 0c-1,34 -4,67 -6,102l0 0c-5,84 -11,168 -18,250l0 0c-5,48 -10,94 -15,141l0 0c-7,70 -16,140 -25,208l0 0c-7,50 -14,98 -22,147l0 0c-10,63 -21,125 -33,187l0 0c-10,54 -21,109 -33,163l0 0c-11,55 -24,109 -37,163l0 0c-16,63 -32,125 -49,186l0 0c-13,49 -28,97 -42,144l0 0c-22,72 -46,143 -70,212l0 0c-15,41 -28,81 -44,121l0 0c-45,120 -94,238 -147,350l0 0c-42,88 -85,173 -131,256l0 0c-12,22 -26,42 -38,64l0 0c-34,58 -68,116 -104,171l0 0c-71,110 -146,215 -225,314l0 0c-18,23 -37,46 -56,69l0 0c-75,90 -153,177 -235,258l0 0c-9,8 -17,18 -26,26l0 0c-89,87 -182,166 -279,241l0 0c-23,19 -46,36 -70,53l0 0c-99,74 -200,144 -306,205l1593 -926c106,-61 207,-131 307,-204l0 0c23,-18 47,-35 69,-53l0 0c97,-76 191,-155 280,-242l0 0c8,-8 17,-17 25,-26l0 0c82,-81 160,-168 235,-258l0 0c19,-23 38,-46 56,-69l0 0c79,-99 155,-203 226,-314l0 0c3,-5 7,-9 9,-13l0 0c33,-51 63,-105 94,-158l0 0c13,-22 26,-42 38,-64l0 0c45,-81 88,-165 129,-251l0 0c1,-2 1,-3 2,-5l0 0c53,-112 102,-230 148,-350l0 0c5,-13 10,-24 15,-37l0 0c10,-27 18,-56 28,-84l0 0c25,-69 48,-140 70,-212l0 0c7,-22 15,-42 22,-64l0 0c7,-26 13,-54 20,-80l0 0c17,-61 34,-123 49,-186l0 0c7,-28 15,-55 22,-83l0 0c6,-26 10,-54 16,-80l0 0c11,-54 22,-108 32,-163l0 0c6,-31 13,-61 19,-92l0 0c5,-31 9,-64 14,-95l0 0c8,-49 15,-98 22,-147l0 0c4,-28 9,-55 12,-83l0 0c6,-41 9,-83 13,-125l0 0c5,-46 11,-93 15,-140l0 0c2,-21 5,-41 6,-63l0 0c5,-61 9,-125 12,-187l0 0c2,-35 5,-68 6,-104l0 0c1,-9 2,-18 2,-28l0 0c5,-107 7,-216 8,-327z"/>
     <path class="fil6" d="M67602 10893l-4 0 -4 0c-25,1 -48,3 -72,4l0 0c-75,2 -148,5 -221,10l0 0c-20,2 -41,2 -62,3l0 0c-17,2 -33,6 -50,7l0 0c-105,12 -210,27 -312,46l0 0c-12,2 -25,3 -38,5l0 0c-4,1 -8,2 -12,3l0 0c-28,6 -56,14 -84,20l0 0c-59,14 -118,28 -177,44l0 0c-33,9 -65,21 -98,31l0 0c-38,12 -77,23 -115,36l0 0c-11,4 -21,9 -32,13l0 0c-63,24 -124,49 -184,75l0 0c-30,13 -60,25 -89,38l0 0c-89,42 -176,86 -260,135l0 0 -1593 926c84,-49 171,-93 259,-135l0 0c30,-14 60,-25 89,-38l0 0c61,-26 122,-52 184,-75l0 0c49,-17 98,-34 148,-49l0 0c33,-11 65,-22 98,-31l0 0c58,-17 117,-30 177,-44l0 0c28,-6 56,-14 84,-20l0 0c16,-3 34,-5 50,-8l0 0c102,-20 206,-34 312,-46l0 0c37,-3 74,-7 111,-10l0 0c73,-5 147,-8 221,-10l0 0c40,-1 79,-3 119,-2l0 0c60,0 121,3 182,6l0 0c46,2 91,3 138,7l0 0c48,3 97,9 146,14l0 0c55,6 110,12 165,20l0 0c45,6 91,15 137,23l0 0c59,9 118,20 178,32l0 0c39,8 79,17 119,26l0 0c63,15 127,30 191,47l0 0c41,11 81,22 121,34l0 0c68,19 137,40 206,63l0 0c34,11 68,22 103,34l0 0c90,31 180,64 271,99l0 0c14,6 28,11 41,16l0 0c104,41 209,87 314,134l0 0c31,15 62,30 93,44l0 0c76,36 153,73 230,112l0 0c36,19 72,37 109,57l0 0c99,52 199,106 300,164l0 0c65,38 130,78 195,118l0 0c44,26 87,52 130,79l0 0c53,34 106,69 159,104l0 0c46,30 91,59 137,90l0 0c50,35 100,71 151,106l0 0c48,35 97,68 145,104l0 0c92,67 183,136 275,207l0 0 -493 2887 1593 -926 493 -2887c-84,-66 -169,-130 -253,-192l0 0c-7,-5 -14,-10 -21,-15l0 0c-49,-36 -99,-70 -148,-105l0 0c-42,-30 -84,-61 -127,-90l0 0c-7,-5 -15,-10 -22,-15l0 0c-46,-31 -91,-60 -137,-90l0 0c-44,-29 -88,-59 -132,-87l0 0c-9,-6 -18,-11 -27,-17l0 0c-43,-27 -86,-53 -129,-79l0 0c-44,-27 -87,-54 -130,-80l0 0c-22,-12 -44,-25 -66,-38l0 0c-72,-41 -143,-81 -215,-120l0 0c-28,-15 -56,-29 -85,-44l0 0c-36,-19 -73,-38 -109,-57l0 0c-28,-14 -55,-29 -83,-43l0 0c-49,-24 -98,-46 -147,-69l0 0c-31,-14 -62,-29 -92,-43l0 0c-12,-6 -24,-12 -36,-17l0 0c-91,-41 -182,-79 -272,-116l0 0c-2,0 -4,-1 -6,-2l0 0c-14,-5 -27,-10 -41,-15l0 0c-76,-30 -152,-60 -228,-86l0 0c-15,-5 -29,-9 -44,-14l0 0c-34,-12 -69,-23 -103,-34l0 0c-43,-14 -85,-29 -127,-42l0 0c-26,-8 -52,-14 -79,-21l0 0c-40,-12 -80,-23 -120,-33l0 0c-28,-8 -56,-17 -83,-23l0 0c-37,-10 -73,-17 -109,-25l0 0c-40,-9 -79,-18 -119,-26l0 0c-18,-4 -36,-9 -54,-12l0 0c-42,-9 -83,-14 -124,-21l0 0c-46,-7 -92,-16 -137,-22l0 0c-13,-2 -27,-5 -40,-7l0 0c-42,-5 -83,-8 -125,-12l0 0c-49,-6 -98,-12 -146,-15l0 0c-12,-1 -24,-3 -35,-4l0 0c-35,-2 -69,-2 -103,-3l0 0c-61,-3 -122,-6 -181,-6l0 0c-13,0 -26,-1 -39,-2z"/>
     <path class="fil67" d="M74948 19904c12,30 24,61 37,91 68,172 135,344 196,516 8,22 15,43 23,65 57,160 110,320 161,480 9,29 19,57 28,86 52,169 101,338 146,507 11,38 20,75 30,113 43,163 83,326 119,488 2,11 5,22 7,33 38,170 70,339 99,507 7,36 13,73 19,109 29,173 55,345 76,515l1593 -926c-3,-21 -5,-43 -8,-64 -15,-114 -31,-229 -49,-345 -6,-35 -12,-71 -19,-106 -5,-36 -12,-72 -18,-108 -8,-47 -15,-92 -24,-138 -23,-120 -47,-240 -73,-360 -1,-4 -2,-7 -2,-11 -3,-10 -5,-20 -8,-31 -24,-107 -48,-216 -75,-324 -14,-55 -29,-110 -44,-165 -9,-38 -19,-75 -29,-112 -8,-31 -16,-62 -24,-92 -34,-123 -70,-245 -107,-368 -6,-16 -11,-32 -16,-48 -9,-29 -18,-57 -28,-86 -24,-76 -47,-151 -72,-227 -29,-84 -59,-169 -89,-253 -7,-22 -15,-43 -22,-65 -4,-11 -8,-22 -12,-33 -41,-114 -84,-227 -128,-340 -18,-48 -38,-95 -57,-142 -12,-31 -24,-62 -37,-92 -13,-33 -25,-65 -39,-97 -45,-109 -92,-218 -140,-326 -11,-27 -24,-54 -36,-81 -14,-30 -27,-59 -41,-89 -25,-54 -49,-108 -74,-163 -54,-115 -110,-231 -167,-346 -3,-6 -6,-12 -9,-18 -65,-130 -131,-258 -199,-386 -17,-31 -34,-61 -51,-92 -52,-95 -105,-190 -159,-284 -35,-63 -69,-128 -105,-190 -19,-32 -39,-63 -57,-95 -44,-73 -88,-145 -132,-217 -63,-102 -126,-204 -191,-305 -46,-72 -93,-143 -140,-214 -31,-47 -61,-95 -92,-142 -30,-43 -61,-85 -91,-128 -68,-98 -137,-195 -207,-291 -31,-43 -61,-88 -92,-131 -38,-51 -77,-100 -116,-151 -35,-46 -70,-93 -106,-138 -22,-30 -44,-60 -67,-89 -87,-110 -175,-219 -264,-326 -4,-4 -7,-8 -11,-12 -9,-12 -19,-23 -29,-34 -74,-88 -148,-176 -223,-261 -38,-43 -76,-85 -114,-127 -29,-31 -57,-63 -85,-94 -23,-25 -46,-51 -70,-77 -92,-100 -187,-199 -281,-295 -12,-12 -23,-23 -34,-34l-1593 925c130,132 258,269 385,407 28,31 56,63 84,94 114,127 227,256 338,388 9,11 19,22 29,34 116,139 230,282 342,426 36,46 71,93 106,139 70,93 139,187 208,281 70,97 139,194 207,292 61,89 123,179 183,269 47,72 94,143 140,216 65,100 128,202 191,304 44,72 88,144 131,217 56,94 109,189 163,284 53,95 107,189 159,285 85,158 169,317 250,478 87,175 170,351 250,527 13,30 27,59 40,89 75,168 147,336 216,504z"/>
     <path class="fil30" d="M69091 12753c400,231 799,502 1192,808l-493 2887c-229,-178 -466,-341 -708,-481 -2263,-1306 -4104,-256 -4111,2345 -8,2600 1821,5767 4084,7074 2265,1307 4105,258 4113,-2342l2797 1615c-13,4347 -3136,6127 -6919,3942 -3783,-2184 -6884,-7557 -6872,-11904 12,-4347 3134,-6128 6917,-3944z"/>
     <path class="fil30" d="M71526 14670c1143,1157 2149,2577 2916,4114 766,1536 1266,3135 1447,4630l-2766 -1110c-220,-1830 -1232,-3818 -2593,-5197l996 -2437z"/>
     <polygon class="fil68" points="71876,12635 70283,13561 69790,16448 71114,15678 71526,14670 71529,14669 "/>
     <polygon class="fil68" points="75889,23414 73902,22617 73168,23044 75965,24659 77558,23733 76445,23090 "/>
    </g>
    <path class="fil69" d="M106851 52979c2150,70 3874,1835 3885,4020l35 0c18,-2185 1742,-3950 3886,-4020 -2156,-70 -3886,-1852 -3886,-4049l-29 0c0,2197 -1729,3979 -3891,4049z"/>
    <path class="fil70" d="M453 55681c973,-32 1754,-831 1759,-1820l16 0c8,989 788,1788 1758,1820 -975,32 -1758,838 -1758,1833l-13 0c0,-995 -783,-1801 -1762,-1833z"/>
    <path class="fil71" d="M87198 6774c816,26 1470,696 1474,1524l13 0c7,-828 661,-1498 1474,-1524 -818,-27 -1474,-703 -1474,-1536l-11 0c0,833 -656,1509 -1476,1536z"/>
    <g>
     <path class="fil61" d="M8864 10056l0 -9c0,-568 -173,-985 -453,-1198l0 0c-19,-18 -38,-34 -58,-49l0 0c-19,-17 -38,-33 -58,-48l0 0c-19,-17 -39,-33 -58,-48l0 0c-19,-17 -39,-33 -59,-48l0 0c-18,-18 -38,-34 -58,-49l0 0c-19,-17 -38,-33 -58,-48l0 0c-19,-17 -38,-33 -58,-48l0 0c-19,-17 -39,-33 -58,-49l0 0c-270,-246 -654,-283 -1083,-58l0 0c-116,-256 -271,-460 -457,-607l0 0c-19,-17 -39,-32 -58,-48l0 0c-19,-17 -39,-33 -59,-48l0 0c-18,-17 -38,-33 -58,-49l0 0c-19,-16 -38,-32 -58,-48l0 0c-19,-17 -38,-32 -58,-48l0 0c-19,-17 -38,-33 -58,-48l0 0c-19,-17 -39,-33 -58,-49l0 0c-19,-17 -39,-32 -59,-48l0 0c-230,-204 -513,-313 -831,-313 -283,0 -593,86 -918,268l0 0c-1082,606 -1995,2084 -2288,3574l0 0c-64,26 -128,56 -194,93l0 0c-944,528 -1709,1985 -1709,3253l0 0c0,60 3,117 7,173l0 0 55 -31c1,27 1,54 3,79l0 0 55 -31c1,27 1,54 3,80l0 0 55 -31c1,26 2,53 3,79l0 0 55 -31c1,26 2,53 3,79l0 0 55 -31c2,27 2,54 4,80l0 0 55 -31c1,26 1,53 3,79l0 0 55 -31c1,26 2,53 3,79l0 0 55 -31c1,26 2,54 3,79l0 0 55 -31c2,27 2,54 3,80l0 0 8328 -4666c3,-58 6,-115 6,-172z"/>
     <path class="fil62" d="M530 14894c-3,-57 -6,-114 -6,-174 0,-1268 765,-2724 1709,-3253 65,-37 130,-67 193,-93 294,-1489 1207,-2967 2289,-3574 1156,-647 2121,-83 2340,1261 95,-78 192,-146 292,-202 838,-469 1518,63 1518,1188 0,60 -4,120 -7,181l-8328 4666z"/>
    </g>
   </g>
   <g>
    <path class="fil72" d="M98222 4388c0,-1993 1244,-3694 2998,-4371 2397,205 4278,2216 4278,4666 0,1992 -1244,3694 -2998,4370 -2397,-205 -4278,-2215 -4278,-4665z"/>
    <path class="fil71" d="M98222 4388c0,2450 1881,4460 4278,4665 -523,202 -1091,312 -1684,312 -2587,0 -4683,-2096 -4683,-4682 0,-2586 2096,-4683 4683,-4683 136,0 271,6 404,17 -1754,677 -2998,2378 -2998,4371z"/>
   </g>
  </g>
 </g>
</svg>
