<?xml version="1.0" encoding="UTF-8"?>
<!DOCTYPE svg PUBLIC "-//W3C//DTD SVG 1.1//EN" "http://www.w3.org/Graphics/SVG/1.1/DTD/svg11.dtd">
<!-- Creator: CorelDRAW X7 -->
<svg xmlns="http://www.w3.org/2000/svg" xml:space="preserve" width="1.02362in" height="1.02362in" version="1.1" style="shape-rendering:geometricPrecision; text-rendering:geometricPrecision; image-rendering:optimizeQuality; fill-rule:evenodd; clip-rule:evenodd"
viewBox="0 0 10236 10236"
 xmlns:xlink="http://www.w3.org/1999/xlink">
 <defs>
  <style type="text/css">
   <![CDATA[
    .fil0 {fill:none}
    .fil1 {fill:black}
   ]]>
  </style>
 </defs>
 <g id="Layer_x0020_1">
  <metadata id="CorelCorpID_0Corel-Layer"/>
  <g id="_2673303499376">
   <rect class="fil0" width="10236" height="10236"/>
   <path class="fil1" d="M7228 6829l0 -3284 -329 0 0 -444 -223 0 0 444 -445 0 0 -444 -223 0 0 444 -445 0 0 -444 -222 0 0 444 -445 0 0 -444 -223 0 0 444 -445 0 0 -444 -223 0 0 444 -445 0 0 -444 -222 0 0 444 -330 0 0 3284 4220 0zm-1777 -1124l-666 0 0 222 666 0 0 -222zm-1101 0l-666 0 0 222 666 0 0 -222zm0 -1259l-666 0 0 222 666 0 0 -222zm1101 0l-666 0 0 222 666 0 0 -222zm1101 0l-665 0 0 222 665 0 0 -222zm164 1060l-624 625 -369 -369 157 -156 132 131 80 80 146 -146 321 -321 157 156zm290 1101l-3776 0 0 -2840 3776 0 0 2840z"/>
   <path class="fil1" d="M5118 1563c-1966,-1 -3555,1590 -3555,3555 0,1966 1590,3555 3555,3555 1965,0 3556,-1589 3555,-3555 0,-1965 -1589,-3555 -3555,-3555zm0 6889c-1842,-1 -3333,-1491 -3333,-3334 0,-1843 1490,-3333 3333,-3333 1844,0 3333,1490 3334,3333 -1,1843 -1491,3333 -3334,3334z"/>
  </g>
 </g>
</svg>
