<?xml version="1.0" encoding="UTF-8"?>
<!DOCTYPE svg PUBLIC "-//W3C//DTD SVG 1.1//EN" "http://www.w3.org/Graphics/SVG/1.1/DTD/svg11.dtd">
<!-- Creator: CorelDRAW X7 -->
<svg xmlns="http://www.w3.org/2000/svg" xml:space="preserve" width="1.02362in" height="1.02362in" version="1.1" style="shape-rendering:geometricPrecision; text-rendering:geometricPrecision; image-rendering:optimizeQuality; fill-rule:evenodd; clip-rule:evenodd"
viewBox="0 0 10236 10236"
 xmlns:xlink="http://www.w3.org/1999/xlink">
 <defs>
  <style type="text/css">
   <![CDATA[
    .fil0 {fill:none}
    .fil1 {fill:black}
   ]]>
  </style>
 </defs>
 <g id="Layer_x0020_1">
  <metadata id="CorelCorpID_0Corel-Layer"/>
  <rect class="fil0" width="10236" height="10236"/>
  <path class="fil1" d="M2604 2604c671,-671 1564,-1041 2514,-1041 950,-1 1843,369 2514,1041 672,671 1041,1564 1041,2514 0,950 -369,1843 -1041,2514 -671,672 -1564,1041 -2514,1041 -950,0 -1843,-369 -2514,-1041 -672,-671 -1042,-1564 -1041,-2514 0,-950 369,-1842 1041,-2514zm626 1450c0,-193 158,-350 350,-350l3076 0c193,0 350,157 350,350l0 2128c0,193 -157,350 -350,350l-3076 0c-192,0 -350,-157 -350,-350l0 -2128zm2152 578c172,94 290,276 290,486 0,50 -6,98 -18,143 -28,101 -82,189 -156,259 -99,93 -233,151 -378,151 -306,0 -556,-247 -556,-553 0,-294 232,-534 522,-551l34 -1c94,0 184,24 262,66zm-262 -289c-60,0 -118,7 -174,20 -345,79 -605,386 -605,755 0,429 351,775 779,775 159,0 307,-49 431,-132 72,-48 136,-109 189,-179 97,-130 155,-290 155,-464 0,-397 -302,-726 -688,-770 -29,-3 -58,-5 -87,-5zm1603 -189c0,-92 -74,-166 -166,-166 -90,0 -165,74 -165,166 0,92 75,167 165,167 92,0 166,-75 166,-167zm-1936 964c0,184 149,333 333,333 180,0 329,-149 329,-333 0,-184 -149,-333 -329,-333 -184,0 -333,149 -333,333zm1869 -1637l-3076 0c-315,0 -572,258 -572,573l0 2128c0,315 257,573 572,573l3076 0c315,0 573,-258 573,-573l0 -2128c0,-315 -258,-573 -573,-573zm-1538 4971c890,-1 1727,-348 2357,-977 629,-630 976,-1467 976,-2357 0,-890 -346,-1728 -976,-2357 -630,-630 -1466,-976 -2357,-976 -890,0 -1728,346 -2357,976 -630,629 -976,1467 -976,2357 0,891 346,1727 976,2357 630,629 1467,976 2357,977z"/>
 </g>
</svg>
