<?xml version="1.0" encoding="UTF-8"?>
<!DOCTYPE svg PUBLIC "-//W3C//DTD SVG 1.1//EN" "http://www.w3.org/Graphics/SVG/1.1/DTD/svg11.dtd">
<!-- Creator: CorelDRAW X7 -->
<svg xmlns="http://www.w3.org/2000/svg" xml:space="preserve" width="1.02362in" height="1.02362in" version="1.1" style="shape-rendering:geometricPrecision; text-rendering:geometricPrecision; image-rendering:optimizeQuality; fill-rule:evenodd; clip-rule:evenodd"
viewBox="0 0 10236 10236"
 xmlns:xlink="http://www.w3.org/1999/xlink">
 <defs>
  <style type="text/css">
   <![CDATA[
    .fil0 {fill:none}
    .fil1 {fill:black}
   ]]>
  </style>
 </defs>
 <g id="Layer_x0020_1">
  <metadata id="CorelCorpID_0Corel-Layer"/>
  <g id="_2069286292336">
   <rect class="fil0" width="10236" height="10236"/>
   <path class="fil1" d="M2604 2604c671,-671 1564,-1041 2514,-1041 950,-1 1843,369 2514,1041 672,671 1041,1564 1041,2514 0,950 -369,1843 -1041,2514 -671,672 -1564,1041 -2514,1041 -950,0 -1843,-369 -2514,-1041 -672,-671 -1042,-1564 -1041,-2514 0,-950 369,-1842 1041,-2514zm4624 1986l0 -1111 -1110 0 0 222 888 0 0 889 222 0zm-4220 0l0 -1111 1110 0 0 222 -888 0 0 889 -222 0zm0 1057l0 1110 1110 0 0 -222 -888 0 0 -888 -222 0zm4220 0l0 1110 -1110 0 0 -222 888 0 0 -888 222 0zm-2110 2805c890,-1 1727,-348 2357,-977 629,-630 976,-1467 976,-2357 0,-890 -346,-1728 -976,-2357 -630,-630 -1466,-976 -2357,-976 -890,0 -1728,346 -2357,976 -630,629 -976,1467 -976,2357 0,891 346,1727 976,2357 630,629 1467,976 2357,977z"/>
  </g>
 </g>
</svg>
