<?xml version="1.0" encoding="UTF-8"?>
<!DOCTYPE svg PUBLIC "-//W3C//DTD SVG 1.1//EN" "http://www.w3.org/Graphics/SVG/1.1/DTD/svg11.dtd">
<!-- Creator: CorelDRAW X7 -->
<svg xmlns="http://www.w3.org/2000/svg" xml:space="preserve" width="1.02362in" height="1.02362in" version="1.1" style="shape-rendering:geometricPrecision; text-rendering:geometricPrecision; image-rendering:optimizeQuality; fill-rule:evenodd; clip-rule:evenodd"
viewBox="0 0 10236 10236"
 xmlns:xlink="http://www.w3.org/1999/xlink">
 <defs>
  <style type="text/css">
   <![CDATA[
    .fil0 {fill:none}
    .fil1 {fill:black}
   ]]>
  </style>
 </defs>
 <g id="Layer_x0020_1">
  <metadata id="CorelCorpID_0Corel-Layer"/>
  <g id="_2673301375792">
   <rect class="fil0" width="10236" height="10236"/>
   <path class="fil1" d="M5007 4688c-191,50 -333,222 -333,429 0,245 199,444 444,444 82,0 159,-22 225,-61l738 739 158 -158 -739 -738c40,-66 62,-144 62,-226 0,-207 -142,-379 -333,-429l0 -1794 -222 0 0 1794zm-2403 -2084c671,-671 1564,-1041 2514,-1041 950,-1 1843,369 2514,1041 672,671 1041,1564 1041,2514 0,950 -369,1843 -1041,2514 -671,672 -1564,1041 -2514,1041 -950,0 -1843,-369 -2514,-1041 -672,-671 -1042,-1564 -1041,-2514 0,-950 369,-1842 1041,-2514zm2626 5846c848,-29 1642,-372 2245,-975 603,-604 947,-1398 974,-2247l-443 0 0 -222 443 0c-28,-848 -371,-1642 -974,-2245 -603,-604 -1397,-947 -2247,-974l0 443 -222 0 0 -443c-848,27 -1642,371 -2245,974 -604,603 -947,1398 -974,2247l444 0 0 222 -444 0c28,848 371,1642 974,2245 603,603 1398,947 2247,975l0 -447 222 0 0 447zm-2389 -5451l314 314 157 -157 -314 -314 -157 157zm158 4397l314 -315 -157 -157 -314 314 157 158zm4397 -159l-315 -314 -157 157 314 314 158 -157zm-159 -4396l-314 314 157 157 314 -314 -157 -157zm-2119 2053c123,0 223,100 223,223 0,122 -100,222 -223,222 -122,0 -222,-100 -222,-222 0,-123 100,-223 222,-223z"/>
  </g>
 </g>
</svg>
