<?xml version="1.0" encoding="UTF-8"?>
<!DOCTYPE svg PUBLIC "-//W3C//DTD SVG 1.1//EN" "http://www.w3.org/Graphics/SVG/1.1/DTD/svg11.dtd">
<!-- Creator: CorelDRAW X7 -->
<svg xmlns="http://www.w3.org/2000/svg" xml:space="preserve" width="1.02362in" height="1.02362in" version="1.1" style="shape-rendering:geometricPrecision; text-rendering:geometricPrecision; image-rendering:optimizeQuality; fill-rule:evenodd; clip-rule:evenodd"
viewBox="0 0 10236 10236"
 xmlns:xlink="http://www.w3.org/1999/xlink">
 <defs>
  <style type="text/css">
   <![CDATA[
    .fil0 {fill:none}
    .fil1 {fill:black}
   ]]>
  </style>
 </defs>
 <g id="Layer_x0020_1">
  <metadata id="CorelCorpID_0Corel-Layer"/>
  <g id="_2673303513040">
   <rect class="fil0" width="10236" height="10236"/>
   <path class="fil1" d="M6197 6040l-968 -968 0 -2176 -222 0 0 2268 1033 1033 157 -157zm1435 -3436c-671,-671 -1564,-1041 -2514,-1041 -950,-1 -1843,369 -2514,1041 -672,671 -1041,1564 -1041,2514 0,950 370,1843 1041,2514 672,672 1564,1041 2514,1041 950,0 1843,-369 2515,-1041 671,-671 1041,-1564 1040,-2514 0,-950 -369,-1842 -1041,-2514zm-2403 -817l0 664 -221 0 0 -664c-849,27 -1643,370 -2247,974 -603,603 -947,1398 -974,2247l664 0 0 221 -664 0c27,849 371,1643 974,2246 604,603 1398,947 2247,975l0 -665 221 0 0 665c849,-28 1643,-372 2246,-975 604,-604 947,-1397 975,-2246l-665 0 0 -222 665 0c-28,-849 -371,-1643 -975,-2246 -603,-604 -1397,-947 -2246,-974z"/>
  </g>
 </g>
</svg>
