<?xml version="1.0" encoding="UTF-8"?>
<!DOCTYPE svg PUBLIC "-//W3C//DTD SVG 1.1//EN" "http://www.w3.org/Graphics/SVG/1.1/DTD/svg11.dtd">
<!-- Creator: CorelDRAW X7 -->
<svg xmlns="http://www.w3.org/2000/svg" xml:space="preserve" width="1.02362in" height="1.02362in" version="1.1" style="shape-rendering:geometricPrecision; text-rendering:geometricPrecision; image-rendering:optimizeQuality; fill-rule:evenodd; clip-rule:evenodd"
viewBox="0 0 10236 10236"
 xmlns:xlink="http://www.w3.org/1999/xlink">
 <defs>
  <style type="text/css">
   <![CDATA[
    .fil0 {fill:none}
    .fil1 {fill:black}
   ]]>
  </style>
 </defs>
 <g id="Layer_x0020_1">
  <metadata id="CorelCorpID_0Corel-Layer"/>
  <g id="_2069423810928">
   <rect class="fil0" width="10236" height="10236"/>
   <path class="fil1" d="M3885 6075l-1959 0c-92,-307 -139,-628 -139,-957 0,-890 347,-1728 973,-2358 630,-630 1468,-977 2358,-977 890,0 1729,347 2358,977 630,630 977,1468 977,2358 0,329 -47,650 -139,957l-1962 0c-41,74 -83,149 -127,222l2014 0c-164,438 -422,839 -763,1179 -629,627 -1468,977 -2358,977 -890,0 -1728,-350 -2358,-977 -339,-340 -595,-741 -760,-1179l2011 0c-43,-73 -85,-148 -126,-222zm1233 -1541c-184,0 -333,-148 -333,-333 0,-184 149,-333 333,-333 180,0 329,149 329,333 0,185 -149,333 -329,333zm552 -333c0,-305 -250,-552 -552,-552 -305,0 -556,247 -556,552 0,306 251,553 556,553 302,0 552,-247 552,-553zm-556 2915c-305,-396 -1324,-1790 -1324,-2691 0,-796 596,-1438 1328,-1438 725,0 1320,642 1324,1438 4,901 -1022,2295 -1328,2691zm1559 -2695c-3,-920 -701,-1668 -1555,-1668 -858,0 -1555,748 -1555,1669 0,1140 1407,2882 1467,2956l85 106 87 -106c60,-73 1476,-1816 1471,-2957zm961 -1819c-673,-669 -1567,-1039 -2516,-1039 -949,0 -1842,370 -2512,1039 -673,674 -1043,1567 -1043,2516 0,949 370,1843 1043,2512 670,673 1563,1043 2512,1043 949,0 1843,-370 2516,-1043 669,-669 1039,-1563 1039,-2512 0,-949 -370,-1842 -1039,-2516z"/>
  </g>
 </g>
</svg>
