<?xml version="1.0" encoding="UTF-8"?>
<!DOCTYPE svg PUBLIC "-//W3C//DTD SVG 1.1//EN" "http://www.w3.org/Graphics/SVG/1.1/DTD/svg11.dtd">
<!-- Creator: CorelDRAW X7 -->
<svg xmlns="http://www.w3.org/2000/svg" xml:space="preserve" width="1.02362in" height="1.02362in" version="1.1" style="shape-rendering:geometricPrecision; text-rendering:geometricPrecision; image-rendering:optimizeQuality; fill-rule:evenodd; clip-rule:evenodd"
viewBox="0 0 10236 10236"
 xmlns:xlink="http://www.w3.org/1999/xlink">
 <defs>
  <style type="text/css">
   <![CDATA[
    .fil0 {fill:none}
    .fil1 {fill:black}
   ]]>
  </style>
 </defs>
 <g id="Layer_x0020_1">
  <metadata id="CorelCorpID_0Corel-Layer"/>
  <g id="_2069496901312">
   <rect class="fil0" width="10236" height="10236"/>
   <path class="fil1" d="M7632 2604c-671,-671 -1564,-1041 -2514,-1041 -950,-1 -1843,369 -2514,1041 -672,671 -1041,1564 -1041,2514 0,950 370,1843 1041,2514 672,672 1564,1041 2514,1041 950,0 1843,-369 2515,-1041 671,-671 1041,-1564 1040,-2514 0,-950 -369,-1842 -1041,-2514zm-1820 764l-2331 0 0 3500 3275 -5 0 -2557 -944 -938zm-2109 222l1887 0 0 938 944 0 0 2113 -2831 5 0 -3056zm2109 716l0 -630 630 630 -630 0zm-694 4146c-890,-1 -1727,-348 -2357,-977 -629,-630 -976,-1467 -976,-2357 0,-890 347,-1728 976,-2357 630,-630 1467,-976 2357,-976 890,0 1728,346 2357,976 630,629 976,1467 977,2357 -1,891 -347,1727 -977,2357 -629,629 -1466,976 -2357,977z"/>
  </g>
 </g>
</svg>
