<?xml version="1.0" encoding="UTF-8"?>
<!DOCTYPE svg PUBLIC "-//W3C//DTD SVG 1.1//EN" "http://www.w3.org/Graphics/SVG/1.1/DTD/svg11.dtd">
<!-- Creator: CorelDRAW X7 -->
<svg xmlns="http://www.w3.org/2000/svg" xml:space="preserve" width="1.02362in" height="1.02362in" version="1.1" style="shape-rendering:geometricPrecision; text-rendering:geometricPrecision; image-rendering:optimizeQuality; fill-rule:evenodd; clip-rule:evenodd"
viewBox="0 0 10236 10236"
 xmlns:xlink="http://www.w3.org/1999/xlink">
 <defs>
  <style type="text/css">
   <![CDATA[
    .fil0 {fill:none}
    .fil3 {fill:blue}
    .fil2 {fill:red}
    .fil1 {fill:white}
   ]]>
  </style>
 </defs>
 <g id="Layer_x0020_1">
  <metadata id="CorelCorpID_0Corel-Layer"/>
  <g id="_2160905531616">
   <rect class="fil0" width="10236" height="10236"/>
   <g>
    <path class="fil1" d="M8673 5118c0,-950 -369,-1843 -1041,-2514 -671,-672 -1564,-1042 -2514,-1041 -950,0 -1843,370 -2514,1041 -672,672 -1041,1564 -1041,2514 -1,950 369,1843 1041,2514 671,672 1564,1041 2514,1041 950,0 1843,-369 2514,-1041 672,-671 1041,-1564 1041,-2514z"/>
    <path class="fil2" d="M5119 3342c-985,0 -1777,792 -1777,1777 0,983 793,1775 1776,1775 983,0 1776,-793 1776,-1776 0,-983 -792,-1776 -1775,-1776z"/>
    <path class="fil3" d="M3704 6531c-379,-379 -584,-876 -584,-1412 0,-537 205,-1034 585,-1414 380,-380 877,-585 1414,-585 536,0 1033,205 1412,584 380,380 586,877 586,1414 0,537 -206,1034 -586,1413 -379,380 -876,586 -1413,586 -537,0 -1034,-206 -1414,-586zm3771 -3770c-630,-630 -1466,-976 -2357,-976 -890,0 -1727,346 -2357,976 -630,630 -975,1467 -976,2357 0,891 346,1727 976,2357 630,630 1466,976 2357,976 891,0 1727,-346 2357,-976 630,-630 976,-1467 976,-2357 0,-891 -346,-1727 -976,-2357z"/>
   </g>
  </g>
 </g>
</svg>
