<?xml version="1.0" encoding="UTF-8"?>
<!DOCTYPE svg PUBLIC "-//W3C//DTD SVG 1.1//EN" "http://www.w3.org/Graphics/SVG/1.1/DTD/svg11.dtd">
<!-- Creator: CorelDRAW X7 -->
<svg xmlns="http://www.w3.org/2000/svg" xml:space="preserve" width="1.02362in" height="1.02362in" version="1.1" style="shape-rendering:geometricPrecision; text-rendering:geometricPrecision; image-rendering:optimizeQuality; fill-rule:evenodd; clip-rule:evenodd"
viewBox="0 0 10236 10236"
 xmlns:xlink="http://www.w3.org/1999/xlink">
 <defs>
  <style type="text/css">
   <![CDATA[
    .fil0 {fill:none}
    .fil1 {fill:black}
   ]]>
  </style>
 </defs>
 <g id="Layer_x0020_1">
  <metadata id="CorelCorpID_0Corel-Layer"/>
  <g id="_2069213300752">
   <rect class="fil0" width="10236" height="10236"/>
   <path class="fil1" d="M3137 6169l0 0zm4495 -3565c-671,-671 -1564,-1041 -2514,-1041 -950,-1 -1843,369 -2514,1041 -672,671 -1041,1564 -1041,2514 0,950 370,1843 1041,2514 672,672 1564,1041 2514,1041 950,0 1843,-369 2515,-1041 671,-671 1041,-1564 1040,-2514 0,-950 -369,-1842 -1041,-2514zm-2514 5848c-890,-1 -1727,-348 -2357,-977 -629,-630 -976,-1467 -976,-2357 0,-890 347,-1728 976,-2357 630,-630 1467,-976 2357,-976 890,0 1728,346 2357,976 630,629 976,1467 977,2357 -1,891 -347,1727 -977,2357 -629,629 -1466,976 -2357,977zm1981 -2283l0 0zm-1981 -2349c608,0 922,430 1005,982 619,-189 1224,90 1224,769 0,467 -378,845 -846,845l-2766 0c-467,0 -845,-378 -845,-845 0,-679 604,-958 1223,-769 83,-552 398,-982 1005,-982zm1383 2818c143,0 281,-29 408,-81 131,-54 249,-134 347,-232 98,-98 177,-216 231,-347 98,-237 106,-507 32,-752 -71,-232 -211,-409 -395,-529 -179,-116 -396,-175 -628,-175 -66,0 -133,5 -202,15 -159,-569 -567,-939 -1176,-939 -609,0 -1017,370 -1175,939 -69,-10 -137,-15 -203,-15 -231,0 -449,59 -627,175 -185,120 -325,297 -396,529 -74,245 -66,515 32,752 54,131 133,249 231,347 98,98 216,178 347,232 127,52 265,81 408,81l2766 0z"/>
  </g>
 </g>
</svg>
