<?xml version="1.0" encoding="UTF-8"?>
<!DOCTYPE svg PUBLIC "-//W3C//DTD SVG 1.1//EN" "http://www.w3.org/Graphics/SVG/1.1/DTD/svg11.dtd">
<!-- Creator: CorelDRAW X7 -->
<svg xmlns="http://www.w3.org/2000/svg" xml:space="preserve" width="1.02362in" height="1.02362in" version="1.1" style="shape-rendering:geometricPrecision; text-rendering:geometricPrecision; image-rendering:optimizeQuality; fill-rule:evenodd; clip-rule:evenodd"
viewBox="0 0 10236 10236"
 xmlns:xlink="http://www.w3.org/1999/xlink">
 <defs>
  <style type="text/css">
   <![CDATA[
    .fil0 {fill:none}
    .fil1 {fill:black}
   ]]>
  </style>
 </defs>
 <g id="Layer_x0020_1">
  <metadata id="CorelCorpID_0Corel-Layer"/>
  <g id="_2160984658560">
   <rect class="fil0" width="10236" height="10236"/>
   <path class="fil1" d="M3487 5265c-696,273 -664,966 -153,1175 72,29 151,45 235,45l2880 0c995,0 1204,-1355 28,-1617 0,-1425 -1654,-1509 -1948,-131 -548,-318 -1052,-193 -1042,528zm1631 -3702c-1966,-1 -3555,1590 -3555,3555 0,1966 1590,3555 3555,3555 1965,0 3556,-1589 3555,-3555 0,-1965 -1589,-3555 -3555,-3555zm0 6889c-1842,-1 -3333,-1491 -3333,-3334 0,-1843 1490,-3333 3333,-3333 1844,0 3333,1490 3334,3333 -1,1843 -1491,3333 -3334,3334zm-729 -4026c200,-538 680,-947 1272,-893 616,57 979,575 1030,1165 494,164 859,579 805,1116 -16,160 -72,315 -162,449 -175,260 -479,444 -885,444l-2880 0c-54,0 -109,-5 -162,-15 -212,-41 -412,-167 -535,-344 -93,-134 -140,-292 -136,-455 8,-347 237,-618 535,-773 22,-276 127,-544 381,-683 228,-126 500,-99 737,-11z"/>
  </g>
 </g>
</svg>
