<?xml version="1.0" encoding="UTF-8"?>
<!DOCTYPE svg PUBLIC "-//W3C//DTD SVG 1.1//EN" "http://www.w3.org/Graphics/SVG/1.1/DTD/svg11.dtd">
<!-- Creator: CorelDRAW X7 -->
<svg xmlns="http://www.w3.org/2000/svg" xml:space="preserve" width="9.87878in" height="9.87878in" version="1.1" style="shape-rendering:geometricPrecision; text-rendering:geometricPrecision; image-rendering:optimizeQuality; fill-rule:evenodd; clip-rule:evenodd"
viewBox="0 0 98788 98788"
 xmlns:xlink="http://www.w3.org/1999/xlink">
 <defs>
  <style type="text/css">
   <![CDATA[
    .fil1 {fill:#F2E9D7}
    .fil3 {fill:white}
    .fil4 {fill:#F2E9D7;fill-rule:nonzero}
    .fil2 {fill:#F4ECDC;fill-rule:nonzero}
    .fil0 {fill:#FAF6F0;fill-rule:nonzero}
   ]]>
  </style>
 </defs>
 <g id="Layer_x0020_1">
  <metadata id="CorelCorpID_0Corel-Layer"/>
  <g id="_1602626510736">
   <path class="fil0" d="M49394 98788c27418,0 49394,-22066 49394,-49394 0,-27329 -21976,-49394 -49394,-49394 -27419,0 -49394,22065 -49394,49394 0,27328 21975,49394 49394,49394z"/>
   <path class="fil1" d="M20246 41461c0,-24646 22265,-42768 46238,-38451 -5318,-1947 -11073,-3010 -17090,-3010 -27419,0 -49394,22065 -49394,49394 0,27329 21975,49394 49394,49394 27418,0 49394,-22065 49394,-49394 0,-2260 -150,-4484 -442,-6663 2015,20104 -19477,37808 -38929,37808 -21744,0 -39171,-17457 -39171,-39078z"/>
   <path class="fil2" d="M83012 35906c1767,0 1767,-3629 0,-3629 -1850,0 -1850,3629 0,3629z"/>
   <path class="fil2" d="M44636 75250c-4234,0 -4234,-6681 0,-6681 4435,0 4435,6681 0,6681z"/>
   <path class="fil3" d="M60646 14126c-4506,3913 -4443,11399 141,16719 4583,5321 11951,6463 16456,2550 4506,-3912 4443,-11398 -141,-16719 -4583,-5321 -11951,-6462 -16456,-2550z"/>
   <path class="fil4" d="M22220 26536c2086,-2789 5513,-4547 7706,-941 1059,1741 368,3393 -1285,4686 -5129,4011 -8575,-866 -6421,-3745z"/>
  </g>
 </g>
</svg>
