<?xml version="1.0" encoding="UTF-8"?>
<!DOCTYPE svg PUBLIC "-//W3C//DTD SVG 1.1//EN" "http://www.w3.org/Graphics/SVG/1.1/DTD/svg11.dtd">
<!-- Creator: CorelDRAW X7 -->
<svg xmlns="http://www.w3.org/2000/svg" xml:space="preserve" width="27.1654in" height="15.2805in" version="1.1" style="shape-rendering:geometricPrecision; text-rendering:geometricPrecision; image-rendering:optimizeQuality; fill-rule:evenodd; clip-rule:evenodd"
viewBox="0 0 271654 152805"
 xmlns:xlink="http://www.w3.org/1999/xlink">
 <defs>
  <style type="text/css">
   <![CDATA[
    .fil0 {fill:none}
    .fil5 {fill:#EDDFC6}
    .fil3 {fill:#E8D6B4;fill-rule:nonzero}
    .fil4 {fill:#EDDFC6;fill-rule:nonzero}
    .fil1 {fill:#EEE0C7;fill-rule:nonzero}
    .fil2 {fill:#F5EDDE;fill-rule:nonzero}
   ]]>
  </style>
 </defs>
 <g id="Layer_x0020_1">
  <metadata id="CorelCorpID_0Corel-Layer"/>
  <g id="_1602639927136">
   <polygon class="fil0" points="0,0 271654,0 271654,152805 0,152805 "/>
   <g>
    <g>
     <path class="fil1" d="M223467 84259c0,-1739 -1409,-3148 -3148,-3148 -1738,0 -3148,1409 -3148,3148 0,1738 1410,3147 3148,3147 1739,0 3148,-1409 3148,-3147z"/>
     <path class="fil2" d="M223398 83601c-303,-1423 -1566,-2490 -3079,-2490 -1738,0 -3148,1409 -3148,3148 0,398 74,779 210,1130 503,-143 1263,-397 2394,-818 1659,-619 2803,-896 3623,-970z"/>
     <path class="fil2" d="M220319 87406c1279,0 2379,-762 2872,-1857 -482,-17 -1020,-65 -1590,-164 -1403,-245 -2839,449 -3650,947 577,658 1424,1074 2368,1074z"/>
     <path class="fil1" d="M217196 83866c1005,-114 2072,-383 3048,-924 868,-482 1557,-834 2100,-1093 -547,-461 -1254,-738 -2025,-738 -1606,0 -2930,1202 -3123,2755z"/>
     <path class="fil3" d="M221635 86386c-1593,0 -2884,-1292 -2884,-2884 0,-985 494,-1855 1248,-2375 -1588,160 -2828,1501 -2828,3132 0,1738 1410,3147 3148,3147 1046,0 1972,-510 2545,-1295 -373,176 -789,275 -1229,275z"/>
    </g>
    <path class="fil4" d="M28548 3063c385,-213 871,-84 1102,296l6 -3c-226,-384 -108,-873 262,-1111 -386,214 -876,84 -1105,-301l-5 3c229,385 111,877 -260,1116l0 0z"/>
    <path class="fil4" d="M157099 121082c-664,22 -1196,565 -1200,1238l-11 0c-4,-673 -535,-1216 -1199,-1238 666,-23 1200,-570 1200,-1246l10 0c0,676 534,1223 1200,1246l0 0z"/>
    <path class="fil4" d="M188823 145109c-439,-8 -796,-363 -806,-808l-7 0c4,445 -343,810 -782,831 441,8 800,366 807,813l6 0c-7,-448 341,-815 782,-836l0 0z"/>
    <path class="fil4" d="M188093 54672c-663,22 -1195,565 -1199,1238l-11 0c-4,-673 -536,-1216 -1200,-1238 667,-22 1201,-570 1201,-1246l9 0c0,676 534,1224 1200,1246l0 0z"/>
    <path class="fil4" d="M262948 44284c-663,22 -1195,565 -1199,1238l-11 0c-4,-673 -536,-1216 -1199,-1238 666,-22 1200,-570 1200,-1246l9 0c0,676 534,1224 1200,1246l0 0z"/>
    <path class="fil4" d="M239242 128367c-663,22 -1195,565 -1200,1238l-10 0c-5,-673 -536,-1216 -1200,-1238 666,-22 1201,-570 1201,-1246l9 0c0,676 534,1223 1200,1246l0 0z"/>
    <path class="fil4" d="M246260 83318c-663,23 -1195,566 -1199,1239l-11 0c-4,-673 -536,-1216 -1199,-1239 666,-22 1200,-569 1200,-1245l9 0c0,676 534,1223 1200,1245l0 0z"/>
    <path class="fil4" d="M270248 139856c-439,-8 -796,-362 -806,-807l-7 0c4,445 -343,810 -782,830 441,9 800,366 807,814l6 0c-7,-448 341,-816 782,-837l0 0z"/>
    <path class="fil4" d="M210242 30956c-440,-8 -797,-363 -806,-808l-7 1c3,445 -343,809 -782,830 441,9 800,366 806,814l6 0c-6,-448 342,-816 783,-837l0 0z"/>
    <path class="fil4" d="M78662 78472c-439,-8 -796,-363 -805,-807l-7 0c3,445 -343,809 -782,830 441,9 800,366 806,814l6 0c-6,-448 342,-816 783,-837l-1 0z"/>
    <path class="fil4" d="M170303 97326c-440,-8 -797,-363 -806,-808l-7 1c3,445 -343,809 -782,830 441,9 800,366 806,814l6 0c-6,-448 342,-816 783,-837l0 0z"/>
    <path class="fil4" d="M49598 127239c-440,-8 -797,-363 -806,-808l-7 1c3,445 -343,809 -782,830 441,9 800,366 806,814l6 0c-6,-448 342,-816 783,-837l0 0z"/>
    <path class="fil4" d="M28066 148072c-440,-8 -797,-363 -806,-808l-7 1c3,445 -343,809 -782,830 441,9 800,366 806,814l6 0c-6,-448 342,-816 783,-837l0 0z"/>
    <path class="fil4" d="M22538 132822c-663,23 -1195,566 -1199,1239l-11 0c-4,-673 -536,-1216 -1199,-1239 666,-22 1200,-569 1200,-1246l9 0c0,677 534,1224 1200,1246l0 0z"/>
    <path class="fil4" d="M19941 95172c-664,22 -1196,565 -1200,1238l-11 0c-4,-673 -535,-1216 -1199,-1238 666,-23 1200,-570 1200,-1246l10 0c0,676 534,1223 1200,1246l0 0z"/>
    <path class="fil4" d="M72914 130230c-664,22 -1195,565 -1200,1238l-11 0c-4,-673 -535,-1216 -1199,-1238 666,-23 1200,-570 1200,-1246l10 0c0,676 534,1223 1200,1246l0 0z"/>
    <path class="fil4" d="M15819 37157c-440,-8 -797,-362 -806,-807l-7 0c4,445 -343,810 -782,831 441,8 800,365 807,813l5 0c-6,-448 342,-815 783,-837l0 0z"/>
    <path class="fil4" d="M16063 67360c-439,-8 -796,-363 -805,-808l-7 0c3,445 -343,810 -782,831 441,9 800,366 806,813l6 0c-6,-447 342,-815 783,-836l-1 0z"/>
    <path class="fil4" d="M39483 89110c-439,-8 -796,-362 -805,-807l-8 0c4,445 -343,810 -781,831 441,8 799,365 806,813l6 0c-6,-448 342,-816 782,-837l0 0z"/>
    <path class="fil4" d="M79899 114573c-439,-8 -796,-363 -805,-808l-7 0c3,445 -343,810 -782,831 441,8 800,366 806,813l6 0c-6,-448 342,-815 783,-836l-1 0z"/>
    <path class="fil4" d="M64784 99088c-439,-8 -796,-363 -805,-808l-8 1c4,445 -343,809 -781,830 441,9 799,366 806,814l6 -1c-6,-447 342,-815 782,-836l0 0z"/>
    <path class="fil4" d="M55113 65841c-440,-8 -797,-362 -806,-807l-7 0c3,445 -343,810 -782,830 441,9 800,366 806,814l6 0c-6,-448 342,-816 783,-837l0 0z"/>
    <path class="fil4" d="M27316 51685c-439,-9 -796,-363 -805,-808l-7 0c3,445 -343,810 -782,831 441,8 799,365 806,813l6 0c-6,-448 342,-815 782,-836l0 0z"/>
    <path class="fil4" d="M42642 30457c-440,-8 -797,-363 -806,-808l-7 0c4,445 -343,810 -782,831 441,8 800,365 807,813l5 0c-6,-448 342,-815 783,-836l0 0z"/>
    <path class="fil4" d="M77922 29578c-440,-8 -797,-362 -806,-807l-7 0c4,445 -343,810 -782,830 441,9 800,366 806,814l6 0c-6,-448 342,-816 783,-837l0 0z"/>
    <path class="fil4" d="M102130 69383c-440,-8 -797,-363 -806,-808l-7 0c4,445 -343,810 -782,831 441,8 800,366 807,813l5 0c-6,-447 342,-815 783,-836l0 0z"/>
    <path class="fil4" d="M112495 109017c-439,-8 -796,-363 -805,-808l-7 0c3,445 -343,810 -782,831 441,8 800,365 806,813l6 0c-6,-448 342,-815 783,-836l-1 0z"/>
    <path class="fil4" d="M136966 136219c-440,-8 -797,-363 -806,-808l-7 0c4,445 -343,810 -782,831 441,9 800,366 807,814l5 -1c-6,-447 342,-815 783,-836l0 0z"/>
    <path class="fil4" d="M104006 137701c-439,-9 -796,-363 -805,-808l-7 0c3,445 -343,810 -782,831 441,8 800,365 806,813l6 0c-6,-448 342,-815 783,-836l-1 0z"/>
    <path class="fil4" d="M210307 124736c-440,-8 -797,-362 -806,-807l-7 0c3,445 -343,810 -782,831 441,8 800,365 806,813l6 0c-6,-448 342,-815 783,-837l0 0z"/>
    <path class="fil4" d="M258837 116958c-439,-9 -796,-363 -805,-808l-8 0c4,445 -343,810 -781,831 441,8 799,365 806,813l6 0c-6,-448 342,-815 782,-836l0 0z"/>
    <path class="fil4" d="M127706 32134c-440,-8 -797,-363 -806,-808l-7 1c3,445 -343,809 -782,830 441,9 800,366 806,814l6 0c-6,-448 342,-816 783,-837l0 0z"/>
    <path class="fil4" d="M233864 52914c-440,-8 -797,-363 -806,-808l-7 0c4,445 -343,810 -782,831 441,9 800,366 807,814l5 -1c-6,-447 342,-815 783,-836l0 0z"/>
    <path class="fil4" d="M126900 68367c-440,-8 -797,-362 -806,-807l-7 0c4,445 -343,810 -782,831 441,8 800,365 807,813l5 0c-6,-448 342,-815 783,-837l0 0z"/>
    <path class="fil4" d="M173314 68344c-439,-8 -796,-363 -806,-807l-7 0c4,445 -343,809 -782,830 441,9 800,366 807,814l6 0c-7,-448 341,-816 782,-837l0 0z"/>
    <path class="fil4" d="M194971 95141c-440,-9 -797,-363 -806,-808l-7 0c4,445 -343,810 -782,831 441,8 800,365 807,813l5 0c-6,-448 342,-815 783,-836l0 0z"/>
    <path class="fil4" d="M156720 37253c-664,22 -1196,565 -1200,1238l-11 0c-4,-673 -535,-1216 -1199,-1238 666,-22 1200,-570 1200,-1246l10 0c0,676 534,1224 1200,1246l0 0z"/>
    <path class="fil4" d="M139222 94540c-663,22 -1195,565 -1199,1238l-11 0c-4,-673 -536,-1216 -1199,-1238 666,-23 1200,-570 1200,-1246l9 0c1,676 535,1223 1200,1246l0 0z"/>
    <path class="fil4" d="M244042 26886c-663,22 -1195,565 -1199,1238l-11 0c-4,-673 -536,-1216 -1199,-1238 666,-23 1200,-570 1200,-1246l9 0c1,676 535,1223 1201,1246l-1 0z"/>
    <path class="fil4" d="M248482 50090c-663,23 -1195,566 -1199,1239l-11 0c-4,-673 -536,-1216 -1199,-1239 666,-22 1200,-569 1200,-1245l9 0c0,676 534,1223 1200,1245l0 0z"/>
    <path class="fil4" d="M254038 61203c-663,22 -1195,565 -1199,1238l-11 0c-4,-673 -536,-1216 -1199,-1238 666,-22 1200,-570 1200,-1246l9 0c0,676 534,1224 1200,1246l0 0z"/>
    <path class="fil4" d="M122665 149053c-663,22 -1195,565 -1199,1238l-11 0c-4,-673 -536,-1216 -1199,-1238 666,-22 1200,-570 1200,-1246l9 0c0,676 534,1224 1200,1246l0 0z"/>
    <path class="fil4" d="M164498 140227c-663,22 -1195,565 -1199,1238l-11 0c-4,-673 -536,-1216 -1199,-1238 666,-22 1200,-570 1200,-1246l9 0c0,676 534,1223 1200,1246l0 0z"/>
    <path class="fil4" d="M192466 5618c-439,-8 -796,-363 -805,-808l-7 0c3,445 -343,810 -782,831 441,8 799,365 806,813l6 0c-6,-448 342,-815 782,-836l0 0z"/>
    <path class="fil4" d="M185496 23615c-439,-9 -796,-363 -805,-808l-7 0c3,445 -343,810 -782,831 441,8 799,365 806,813l6 0c-6,-448 342,-815 783,-836l-1 0z"/>
    <path class="fil4" d="M107055 45276c-439,-9 -796,-363 -805,-808l-8 0c4,445 -343,810 -781,831 441,8 799,365 806,813l6 0c-6,-448 342,-815 782,-836l0 0z"/>
    <path class="fil4" d="M143685 2849c-285,148 -634,37 -779,-250 -146,-284 -32,-635 253,-783 285,-148 635,-37 780,248 145,286 32,637 -254,785l0 0z"/>
    <path class="fil4" d="M165056 35949c-285,148 -634,36 -779,-250 -145,-285 -32,-636 253,-784 285,-148 635,-37 780,249 145,285 32,636 -253,784l-1 1z"/>
    <path class="fil4" d="M252932 14292c-663,22 -1195,565 -1199,1238l-11 0c-4,-673 -536,-1216 -1199,-1238 666,-23 1200,-570 1200,-1246l9 0c0,676 534,1223 1200,1246l0 0z"/>
    <path class="fil4" d="M213946 103186c-663,22 -1195,565 -1200,1238l-10 0c-5,-673 -536,-1216 -1200,-1238 666,-22 1201,-570 1201,-1246l9 0c0,676 534,1224 1200,1246l0 0z"/>
    <path class="fil4" d="M267285 97259c-664,22 -1195,565 -1200,1238l-11 0c-4,-673 -535,-1216 -1199,-1238 666,-22 1200,-569 1200,-1246l10 0c0,676 534,1224 1200,1246l0 0z"/>
    <path class="fil4" d="M6793 4884c664,-22 1196,-565 1200,-1238l11 0c4,673 535,1216 1199,1238 -666,22 -1200,570 -1200,1246l-10 0c0,-676 -534,-1224 -1200,-1246l0 0z"/>
    <path class="fil4" d="M63425 10980c-440,8 -797,363 -806,807l-7 0c3,-445 -343,-809 -782,-830 441,-9 800,-366 806,-814l6 0c-6,448 342,816 783,837l0 0z"/>
    <path class="fil4" d="M100286 8606c-439,9 -796,363 -805,808l-8 0c4,-445 -343,-810 -781,-831 441,-8 799,-365 806,-813l6 0c-6,448 342,815 782,836l0 0z"/>
    <path class="fil4" d="M81381 44426c-440,-8 -797,-363 -806,-808l-7 0c3,445 -343,810 -782,831 441,9 800,366 806,813l6 0c-6,-447 342,-815 783,-836l0 0z"/>
    <circle class="fil5" cx="106643" cy="11690" r="464"/>
    <circle class="fil5" cx="185670" cy="118843" r="464"/>
    <circle class="fil5" cx="227466" cy="147504" r="464"/>
    <path class="fil4" d="M2924 118951c-439,-8 -796,-363 -805,-808l-7 0c3,445 -343,810 -782,831 441,9 800,366 806,813l6 0c-6,-447 342,-815 783,-836l-1 0z"/>
    <path class="fil4" d="M9924 48534c-439,-8 -796,-362 -805,-807l-7 0c3,445 -343,809 -782,830 441,9 800,366 806,814l6 0c-6,-448 342,-816 783,-837l-1 0z"/>
    <path class="fil4" d="M226488 12032c-440,-8 -797,-363 -806,-808l-7 1c3,445 -343,809 -782,830 441,9 800,366 806,814l6 0c-6,-448 342,-816 783,-837l0 0z"/>
   </g>
  </g>
 </g>
</svg>
