<?xml version="1.0" encoding="UTF-8"?>
<!DOCTYPE svg PUBLIC "-//W3C//DTD SVG 1.1//EN" "http://www.w3.org/Graphics/SVG/1.1/DTD/svg11.dtd">
<!-- Creator: CorelDRAW X7 -->
<svg xmlns="http://www.w3.org/2000/svg" xml:space="preserve" width="10.1361in" height="2.95185in" version="1.1" style="shape-rendering:geometricPrecision; text-rendering:geometricPrecision; image-rendering:optimizeQuality; fill-rule:evenodd; clip-rule:evenodd"
viewBox="0 0 101361 29519"
 xmlns:xlink="http://www.w3.org/1999/xlink">
 <defs>
  <style type="text/css">
   <![CDATA[
    .fil7 {fill:#6C87C3}
    .fil4 {fill:#BDADFF}
    .fil9 {fill:#D4D4D6}
    .fil8 {fill:#D6D5D7}
    .fil10 {fill:#DCD3FF}
    .fil1 {fill:#FBF7F0}
    .fil2 {fill:#FCE9CA}
    .fil6 {fill:white}
    .fil3 {fill:#BDADFF;fill-rule:nonzero}
    .fil5 {fill:#DCD3FF;fill-rule:nonzero}
    .fil11 {fill:#FBF7F0;fill-rule:nonzero}
    .fil0 {fill:#FCE9CA;fill-rule:nonzero}
   ]]>
  </style>
 </defs>
 <g id="Layer_x0020_1">
  <metadata id="CorelCorpID_0Corel-Layer"/>
  <g id="_1602658516688">
   <path class="fil0" d="M79051 19221c0,0 -961,108 -1041,674 -80,566 1253,2282 1253,2282l288 -2563 -500 -393 0 0z"/>
   <path class="fil1" d="M82656 18614c0,0 1261,-526 1836,-603 575,-78 1820,53 2349,143 0,0 518,693 -1,1188 0,0 -1712,75 -2147,290 -430,218 -1067,517 -1067,517l-1277 -1108 307 -427 0 0z"/>
   <path class="fil2" d="M86841 18154c0,0 804,-339 1061,-269 261,73 -384,303 -384,303 0,0 863,-64 884,94 21,157 -862,202 -862,202 0,0 876,-100 897,57 21,158 -825,220 -825,220 0,0 690,94 726,236 36,139 -784,106 -784,106 0,0 97,204 240,397 139,194 -351,225 -954,-158l1 -1188z"/>
   <path class="fil3" d="M86861 19496c43,-6 87,-34 111,-76 417,-741 8,-1328 -8,-1352 -49,-72 -146,-85 -214,-37 -67,49 -85,142 -36,209 15,20 309,462 -9,1030 -42,75 -12,166 58,209 33,17 64,21 98,17z"/>
   <path class="fil4" d="M84823 17988c0,0 219,1011 208,1542 0,0 -52,159 -338,102 0,0 -531,-727 -580,-1540 0,0 291,-221 710,-104l0 0z"/>
   <path class="fil5" d="M83587 20176l379 -188c-537,-835 -1356,-973 -1379,-987l-44 92c5,4 518,273 1044,1083z"/>
   <path class="fil6" d="M82477 18989c0,0 1899,1059 1720,3555 0,0 1581,529 2018,882 442,348 1100,1947 1100,1947 0,0 860,201 1003,715 139,515 -1375,736 -2271,306 0,0 -681,-1257 -846,-1677l-1382 -118 37 147c81,245 147,510 192,781 0,0 132,980 -304,1958 0,0 543,1263 130,1865 -417,607 -1615,-524 -1675,-1869 0,0 305,-1052 208,-1481l-1212 -1880c0,0 -548,-299 -686,-1417l-483 -2780 2451 -934 0 0z"/>
   <path class="fil7" d="M82840 20749c25,188 199,316 382,291 187,-25 321,-195 295,-382 -25,-187 -199,-320 -386,-295 -184,25 -316,199 -291,386z"/>
   <path class="fil3" d="M83181 27878c59,-8 110,-19 156,-30 310,-81 502,-237 509,-246 63,-52 71,-149 15,-215 -52,-62 -149,-71 -215,-14 -23,20 -598,484 -1365,-20 -66,-43 -164,-26 -210,46 -43,70 -26,164 45,210 415,274 788,306 1065,269l0 0z"/>
   <path class="fil4" d="M82405 26178c565,362 1668,213 1682,-40 50,-207 -4,-451 -4,-451 -851,-354 -1701,221 -1701,221 0,0 -47,106 23,270z"/>
   <path class="fil3" d="M86068 26547c13,-1 25,-7 38,-9 1363,-540 1364,-1112 1360,-1177 -3,-82 -77,-146 -163,-143 -77,6 -142,76 -139,158 -2,18 -50,436 -1170,878 -78,32 -118,120 -86,198 26,66 92,105 160,95z"/>
   <path class="fil4" d="M85866 23213c0,0 -670,919 -665,1504 9,584 1342,-888 1342,-888 0,0 -65,-516 -677,-616l0 0z"/>
   <path class="fil3" d="M83470 23844c64,-9 118,-59 126,-126 132,-789 642,-1027 663,-1035 77,-36 113,-128 77,-201 -32,-78 -120,-114 -198,-82 -28,13 -682,309 -840,1267 -14,85 40,164 124,175 17,2 31,4 48,2l0 0z"/>
   <polygon class="fil5" points="83819,24599 84234,24634 83565,23584 83469,23614 "/>
   <path class="fil6" d="M78408 18215c164,1218 1299,2072 2534,1905 1235,-166 2103,-1290 1939,-2508 -164,-1219 -1299,-2072 -2534,-1905 -1236,166 -2103,1290 -1939,2508z"/>
   <path class="fil7" d="M80604 19992c153,14 313,10 475,-12 1151,-155 1960,-1197 1807,-2334 -70,-520 -330,-966 -703,-1285l-19 -14c-63,-48 -151,-23 -180,46 -116,301 -586,933 -2461,956 -113,-2 -200,92 -194,204 22,513 179,1841 1169,2428l106 11 0 0z"/>
   <path class="fil2" d="M79673 25124c0,0 328,1174 518,1365 187,192 74,-482 74,-482 0,0 362,784 511,729 148,-59 -237,-853 -237,-853 0,0 335,814 484,755 148,-55 -207,-823 -207,-823 0,0 414,556 556,520 143,-37 -286,-738 -286,-738 0,0 224,-13 462,16 239,32 26,-416 -597,-757l-1278 268z"/>
   <path class="fil1" d="M79537 19993c0,0 1104,-240 1473,634 0,0 -40,895 -501,2076 0,0 -64,325 77,857 145,532 404,1260 404,1260 0,0 -396,444 -1317,304 0,0 -755,-1161 -803,-2326 -53,-1164 667,-2805 667,-2805l0 0z"/>
   <path class="fil3" d="M80331 25369c375,-51 636,-268 745,-426 47,-71 30,-164 -38,-216 -67,-47 -164,-30 -212,37 -14,24 -374,506 -1094,217 -78,-33 -168,5 -201,84 -28,81 9,168 88,200 266,108 507,131 712,104l0 0z"/>
   <path class="fil4" d="M80502 23099c0,0 -1409,168 -1632,-301 0,0 -45,249 120,765 0,0 821,167 1541,-251 0,0 57,-25 -29,-213z"/>
   <path class="fil3" d="M81024 20955c13,-2 26,-3 38,-5 104,-36 167,-148 131,-256 -312,-995 -1253,-1024 -1709,-898 -109,28 -172,141 -140,249 28,109 141,172 250,144 92,-25 941,-226 1212,626 30,96 124,153 218,140z"/>
   <g>
    <path class="fil8" d="M97770 6350c-395,482 -976,1064 -1585,1181 -671,133 -1234,591 -1630,1195l-532 -279c186,-780 731,-1496 1467,-1638 734,-147 1415,-1275 1415,-1275 22,192 421,511 865,816z"/>
    <path class="fil6" d="M96186 7531c608,-117 1189,-699 1584,-1181 301,-371 489,-687 489,-687 71,659 3102,2319 3102,2319 -188,637 -1077,1573 -2294,1776 -743,122 -1265,786 -1553,1285l-553 -559 -525 704 -2399 -1255c103,-426 281,-845 518,-1207 396,-604 959,-1062 1630,-1196l1 1z"/>
    <polygon class="fil9" points="96436,11188 96961,10484 97514,11043 96972,11116 "/>
   </g>
   <path class="fil3" d="M81215 24269c34,-4 63,-17 86,-42 42,-36 1018,-939 2168,-357 74,38 166,8 203,-67 38,-74 8,-165 -66,-203 -1346,-686 -2506,398 -2517,409 -57,59 -62,155 -1,217 30,35 80,50 127,43l0 0z"/>
   <path class="fil10" d="M80976 20956c-51,363 -174,997 -467,1747 50,404 153,701 265,916 -182,-794 345,-2430 400,-2759 -25,41 -64,74 -112,90l-38 5c-16,2 -32,2 -48,1z"/>
   <path class="fil11" d="M0 3163c5881,4597 11824,6120 18054,5893 7054,-257 14489,-2754 22621,-5573 377,-131 812,-284 1260,-442 5655,-1990 13546,-4767 17835,-1619 2704,1984 2875,5157 3064,8658 169,3140 352,6548 2424,9544 1495,2163 3609,3602 6174,4019 2376,386 5143,-104 8171,-1707l156 295c-3095,1639 -5935,2138 -8380,1741 -2661,-432 -4850,-1922 -6396,-4158 -2125,-3074 -2312,-6531 -2483,-9715 -184,-3419 -351,-6518 -2927,-8408 -4148,-3043 -11942,-301 -17528,1665 -421,148 -829,292 -1262,442 -8157,2828 -15616,5332 -22715,5591 -6236,228 -12185,-1275 -18068,-5803l0 -423z"/>
  </g>
 </g>
</svg>
