<?xml version="1.0" encoding="UTF-8"?>
<!DOCTYPE svg PUBLIC "-//W3C//DTD SVG 1.1//EN" "http://www.w3.org/Graphics/SVG/1.1/DTD/svg11.dtd">
<!-- Creator: CorelDRAW X7 -->
<svg xmlns="http://www.w3.org/2000/svg" xml:space="preserve" width="3.22764in" height="0.429087in" version="1.1" style="shape-rendering:geometricPrecision; text-rendering:geometricPrecision; image-rendering:optimizeQuality; fill-rule:evenodd; clip-rule:evenodd"
viewBox="0 0 32276 4291"
 xmlns:xlink="http://www.w3.org/1999/xlink">
 <defs>
  <style type="text/css">
   <![CDATA[
    .fil0 {fill:#6C87C3}
    .fil1 {fill:#D2AE6D}
   ]]>
  </style>
 </defs>
 <g id="Layer_x0020_1">
  <metadata id="CorelCorpID_0Corel-Layer"/>
  <g id="_1602622785600">
   <g id="_2865414711952">
    <path class="fil0" d="M22949 0l0 858 2358 0 0 2575 -1499 0 -1 -1716 -858 0 0 2574 2358 0 858 -858 0 -2575 -858 -858 -2358 0zm-4074 0l0 858 2358 0 0 3433 858 0 0 -3433 -858 -858 -2358 0zm0 1717l0 2574 859 0 0 -2574 -859 0zm9006 2574l-858 0 0 -4290 858 0 0 4290zm-9757 -858l-3431 0 0 858 2573 0 858 -858zm0 -1716l-3431 0 0 858 2573 0 858 -858zm0 -1716l-3431 0 0 858 2573 0 858 -858zm-5147 1716l858 0 0 -1716 -3430 0 -1 858 2573 0 0 858 858 858 0 1716 -858 0 0 -1716 -1714 0 0 1716 -859 0 0 -2574 2573 0 0 0zm18441 -858l0 858 -2572 0 0 2574 859 0 0 -1716 1713 0 858 -858 0 -1716 -3429 0 0 858 2571 0zm-21765 2574l-3431 0 0 858 2573 0 858 -858zm0 -1716l-3431 0 0 858 2573 0 858 -858zm0 -1716l-3431 0 0 858 2573 0 858 -858z"/>
    <path class="fil1" d="M5149 1l-5149 0 0 858 4291 0 858 -858zm-1716 3432l-3433 0 0 858 3433 0 0 -858zm1716 -1716l-5149 0 0 858 4291 0 0 1716 858 0 0 -2574z"/>
   </g>
  </g>
 </g>
</svg>
