<?xml version="1.0" encoding="UTF-8"?>
<!DOCTYPE svg PUBLIC "-//W3C//DTD SVG 1.1//EN" "http://www.w3.org/Graphics/SVG/1.1/DTD/svg11.dtd">
<!-- Creator: CorelDRAW X7 -->
<svg xmlns="http://www.w3.org/2000/svg" xml:space="preserve" width="27.1654in" height="15.2805in" version="1.1" style="shape-rendering:geometricPrecision; text-rendering:geometricPrecision; image-rendering:optimizeQuality; fill-rule:evenodd; clip-rule:evenodd"
viewBox="0 0 271654 152805"
 xmlns:xlink="http://www.w3.org/1999/xlink">
 <defs>
  <style type="text/css">
   <![CDATA[
    .fil0 {fill:none}
    .fil1 {fill:#FEFEFE}
    .fil7 {fill:#DEC393}
    .fil5 {fill:#D3B374;fill-rule:nonzero}
    .fil2 {fill:#D7B37A;fill-rule:nonzero}
    .fil6 {fill:#DEC393;fill-rule:nonzero}
    .fil4 {fill:#DFC596;fill-rule:nonzero}
    .fil3 {fill:#EDDEC2;fill-rule:nonzero}
   ]]>
  </style>
 </defs>
 <g id="Layer_x0020_1">
  <metadata id="CorelCorpID_0Corel-Layer"/>
  <g id="_1602776787968">
   <polygon class="fil0" points="0,0 271654,0 271654,152805 0,152805 "/>
   <rect class="fil1" width="271654" height="152805"/>
   <g>
    <g>
     <path class="fil2" d="M239826 124638c0,1032 836,1868 1868,1868 1031,0 1867,-836 1867,-1868 0,-1031 -836,-1867 -1867,-1867 -1032,0 -1868,836 -1868,1867z"/>
     <path class="fil3" d="M239867 125028c179,844 929,1478 1827,1478 1031,0 1867,-836 1867,-1868 0,-236 -44,-462 -124,-671 -299,85 -749,236 -1421,486 -984,367 -1663,531 -2149,575z"/>
     <path class="fil4" d="M241694 122771c-759,0 -1412,452 -1704,1102 286,10 605,38 943,97 832,145 1684,-266 2166,-562 -343,-391 -845,-637 -1405,-637z"/>
     <path class="fil4" d="M243547 124871c-597,67 -1230,227 -1809,548 -515,286 -924,495 -1246,649 325,273 744,438 1202,438 952,0 1738,-713 1853,-1635z"/>
     <path class="fil5" d="M240913 123376c945,0 1711,766 1711,1711 0,585 -293,1101 -741,1409 943,-95 1678,-890 1678,-1858 0,-1031 -836,-1867 -1867,-1867 -621,0 -1171,302 -1510,768 221,-104 468,-163 729,-163z"/>
    </g>
    <g>
     <path class="fil4" d="M195284 72963c0,-656 -532,-1187 -1188,-1187 -656,0 -1188,531 -1188,1187 0,656 532,1188 1188,1188 656,0 1188,-532 1188,-1188z"/>
     <path class="fil3" d="M195258 72715c-114,-537 -591,-939 -1162,-939 -656,0 -1188,531 -1188,1187 0,151 28,294 79,427 190,-54 477,-150 904,-309 626,-234 1057,-338 1367,-366z"/>
     <path class="fil3" d="M194096 74151c482,0 898,-288 1084,-701 -182,-6 -385,-24 -600,-62 -530,-92 -1071,170 -1377,358 217,248 537,405 893,405z"/>
     <path class="fil4" d="M192918 72815c379,-43 781,-144 1150,-349 327,-181 587,-314 792,-412 -206,-174 -473,-278 -764,-278 -606,0 -1106,453 -1178,1039z"/>
     <path class="fil5" d="M194593 73766c-601,0 -1088,-487 -1088,-1088 0,-372 186,-700 470,-896 -599,60 -1067,566 -1067,1181 0,656 532,1188 1188,1188 395,0 744,-193 960,-489 -140,67 -298,104 -463,104z"/>
    </g>
    <path class="fil6" d="M3884 47706c302,167 684,66 865,-233l4 3c-177,301 -84,685 206,871 -303,-167 -687,-65 -867,236l-4 -2c180,-302 88,-688 -204,-875l0 0z"/>
    <path class="fil6" d="M107542 64016c250,-8 451,-213 453,-467l4 0c1,254 202,459 452,467 -251,8 -453,215 -453,470l-3 0c0,-255 -202,-462 -453,-470l0 0z"/>
    <path class="fil6" d="M121740 42328c145,-81 329,-32 416,111l2 -1c-85,-145 -41,-329 99,-419 -146,81 -331,32 -417,-113l-2 1c86,145 42,331 -98,421l0 0z"/>
    <path class="fil6" d="M157118 29759c-107,55 -239,13 -294,-95 -55,-107 -12,-240 96,-296 107,-55 239,-14 294,94 55,108 12,240 -96,296l0 1z"/>
    <path class="fil6" d="M37167 36715c145,-80 329,-32 416,112l2 -1c-85,-145 -40,-330 99,-419 -146,80 -330,31 -417,-114l-2 1c87,145 42,331 -98,421l0 0z"/>
    <path class="fil6" d="M170243 86857c-251,8 -451,213 -453,467l-4 0c-2,-254 -202,-459 -452,-467 251,-9 452,-215 452,-470l4 0c0,255 201,461 453,470l0 0z"/>
    <path class="fil6" d="M138246 111107c-166,-3 -301,-136 -304,-304l-3 0c1,168 -130,305 -295,313 166,3 302,138 304,307l2 0c-2,-169 129,-308 296,-316l0 0z"/>
    <path class="fil6" d="M43790 104646c524,30 934,471 925,1003l8 0c17,-532 448,-951 973,-956 -526,-30 -938,-474 -925,-1009l-7 0c-13,535 -447,957 -974,962l0 0z"/>
    <path class="fil6" d="M120667 121114c107,-56 239,-13 294,94 55,108 12,240 -96,296 -107,56 -239,14 -294,-94 -55,-107 -12,-240 96,-296l0 0z"/>
    <path class="fil6" d="M84755 83595c135,74 307,29 388,-105l2 1c-79,135 -38,308 92,392 -136,-76 -308,-30 -389,106l-2 -1c81,-136 40,-309 -91,-393l0 0z"/>
    <path class="fil6" d="M79170 82585c145,80 329,32 416,-112l2 2c-85,144 -41,329 99,419 -146,-81 -331,-32 -417,113l-2 -1c86,-145 42,-331 -98,-421l0 0z"/>
    <path class="fil6" d="M165293 106902c-166,-3 -301,-137 -304,-305l-3 0c2,168 -129,306 -295,314 167,3 302,138 305,307l2 -1c-3,-168 129,-307 295,-315l0 0z"/>
    <path class="fil6" d="M166271 127866c-166,-4 -300,-137 -304,-305l-2 0c1,168 -130,305 -295,313 166,3 301,138 304,307l2 0c-2,-169 129,-307 295,-316l0 1z"/>
    <path class="fil6" d="M155929 116266c-166,-3 -300,-137 -304,-305l-2 0c1,168 -130,305 -295,313 166,4 301,138 304,307l2 0c-2,-169 129,-307 295,-315l0 0z"/>
    <path class="fil6" d="M170892 116327c-166,-3 -300,-137 -304,-305l-3 0c2,168 -129,306 -295,314 167,3 302,138 305,307l2 0c-3,-169 129,-308 295,-316l0 0z"/>
    <path class="fil6" d="M188504 102491c-166,-3 -300,-137 -304,-305l-3 0c2,168 -129,306 -295,314 167,3 302,138 305,307l2 -1c-2,-168 129,-307 295,-315l0 0z"/>
    <path class="fil6" d="M201688 131067c-166,-3 -301,-137 -304,-304l-3 0c1,168 -129,305 -295,313 167,3 302,138 304,307l3 0c-3,-169 129,-308 295,-316l0 0z"/>
    <path class="fil6" d="M182212 95922c-165,-3 -300,-136 -304,-304l-2 0c1,168 -130,305 -295,313 166,3 301,138 304,307l2 0c-2,-169 129,-308 295,-316l0 0z"/>
    <path class="fil6" d="M252486 79965c-166,-3 -301,-137 -304,-305l-3 0c2,168 -129,306 -295,314 167,3 302,137 304,306l3 0c-3,-169 129,-307 295,-315l0 0z"/>
    <path class="fil6" d="M181937 61800c-250,8 -451,213 -453,467l-4 0c-1,-254 -202,-459 -452,-467 251,-8 453,-215 453,-470l3 0c0,255 202,462 453,470l0 0z"/>
    <path class="fil6" d="M235883 53694c-250,8 -451,213 -452,467l-4 0c-2,-254 -203,-459 -453,-467 251,-8 453,-215 453,-470l3 0c1,255 202,462 453,470l0 0z"/>
    <path class="fil6" d="M210180 57881c-250,8 -451,213 -452,467l-4 0c-2,-254 -203,-459 -453,-467 251,-9 453,-215 453,-471l3 0c0,256 202,462 453,471l0 0z"/>
    <path class="fil6" d="M231382 66828c-250,8 -450,213 -452,467l-4 0c-2,-254 -202,-459 -453,-467 252,-9 453,-215 453,-470l4 0c0,255 201,461 452,470l0 0z"/>
    <path class="fil6" d="M249305 65242c-251,9 -451,214 -453,468l-4 0c-2,-254 -202,-459 -452,-468 251,-8 452,-214 452,-470l4 0c0,255 201,462 453,470l0 0z"/>
    <path class="fil6" d="M260208 54391c-251,8 -451,213 -453,467l-4 0c-1,-254 -202,-459 -452,-467 251,-9 452,-215 452,-470l4 0c0,255 202,461 453,470l0 0z"/>
    <path class="fil6" d="M265503 68934c-251,8 -451,213 -453,467l-4 0c-2,-254 -202,-459 -452,-467 251,-9 452,-215 452,-470l4 0c0,255 201,461 453,470l0 0z"/>
    <path class="fil6" d="M256993 71162c-250,8 -451,213 -452,467l-4 0c-2,-254 -202,-459 -453,-467 252,-9 453,-215 453,-471l4 0c0,256 201,462 452,471l0 0z"/>
    <path class="fil6" d="M238441 80244c-250,9 -451,214 -453,467l-4 0c-1,-253 -202,-458 -452,-467 251,-8 453,-215 453,-470l3 0c0,255 202,462 453,470l0 0z"/>
    <path class="fil6" d="M223034 57136c-250,9 -450,214 -452,468l-4 0c-2,-254 -202,-459 -453,-468 252,-8 453,-214 453,-470l4 0c0,256 201,462 452,470l0 0z"/>
    <path class="fil6" d="M214542 79685c-250,9 -451,214 -452,467l-4 0c-2,-253 -202,-458 -453,-467 252,-8 453,-215 453,-470l4 0c0,255 201,462 452,470l0 0z"/>
    <path class="fil6" d="M216745 68317c-250,8 -451,213 -452,467l-4 0c-2,-254 -202,-459 -453,-467 252,-8 453,-215 453,-470l4 0c0,255 201,462 452,470l0 0z"/>
    <path class="fil6" d="M227650 77447c-250,8 -451,213 -453,467l-4 0c-1,-254 -202,-459 -452,-467 251,-9 453,-215 453,-471l3 0c0,256 202,462 453,471l0 0z"/>
    <path class="fil6" d="M201236 89605c-251,9 -451,214 -453,468l-4 0c-1,-254 -202,-459 -452,-468 251,-8 452,-214 452,-470l4 0c0,256 202,462 453,470l0 0z"/>
    <path class="fil6" d="M227749 93801c-250,8 -451,213 -453,467l-4 0c-1,-254 -202,-459 -452,-467 251,-9 453,-215 453,-470l3 0c0,255 202,461 453,470l0 0z"/>
    <path class="fil6" d="M203884 72609c-250,8 -451,213 -453,467l-4 0c-1,-254 -202,-459 -452,-467 251,-9 453,-215 453,-471l3 0c0,256 202,462 453,471l0 0z"/>
    <path class="fil6" d="M203502 102814c-438,15 -789,374 -792,818l-7 0c-3,-444 -354,-803 -792,-818 440,-14 792,-376 792,-822l6 0c1,446 353,808 793,822l0 0z"/>
    <path class="fil6" d="M212935 93941c-166,-4 -301,-137 -304,-305l-3 0c1,168 -130,305 -295,313 166,3 302,138 304,307l2 0c-2,-169 129,-307 296,-315l0 0z"/>
    <path class="fil6" d="M253185 91565c-166,-3 -301,-137 -304,-305l-3 0c1,168 -129,306 -295,313 166,4 302,138 304,307l2 0c-2,-169 129,-307 296,-315l0 0z"/>
    <path class="fil6" d="M240820 119188c-166,-3 -301,-137 -304,-305l-3 0c2,168 -129,306 -295,314 167,3 302,138 304,307l3 0c-3,-169 129,-308 295,-316l0 0z"/>
    <path class="fil6" d="M260452 111829c-166,-3 -301,-136 -304,-304l-3 0c2,168 -129,305 -295,313 167,3 302,138 305,307l2 0c-3,-169 129,-308 295,-316l0 0z"/>
    <path class="fil6" d="M243961 72278c-166,-3 -301,-137 -304,-305l-3 0c1,168 -130,306 -295,314 166,3 302,138 304,307l2 0c-2,-169 129,-308 296,-316l0 0z"/>
    <path class="fil6" d="M190294 52852c-166,-3 -301,-137 -304,-305l-3 0c2,168 -129,306 -295,314 167,3 302,138 304,307l3 -1c-3,-168 129,-307 295,-315l0 0z"/>
    <path class="fil6" d="M140648 70780c-166,-3 -300,-137 -304,-305l-2 0c1,168 -130,306 -295,314 166,3 301,138 304,307l2 0c-2,-169 129,-308 295,-316l0 0z"/>
    <path class="fil6" d="M175225 77894c-166,-3 -301,-137 -304,-305l-3 0c1,168 -130,306 -295,313 166,4 302,138 304,307l2 0c-2,-169 129,-307 296,-315l0 0z"/>
    <path class="fil6" d="M181811 116153c-165,-3 -300,-137 -304,-305l-2 1c1,167 -130,305 -295,313 166,3 301,138 304,307l2 0c-2,-169 129,-308 295,-316l0 0z"/>
    <path class="fil6" d="M221288 112288c-166,-3 -300,-137 -304,-305l-3 0c2,168 -129,306 -295,314 167,3 302,138 305,307l2 0c-2,-169 129,-308 295,-316l0 0z"/>
    <path class="fil6" d="M227071 140614c-165,-3 -300,-137 -304,-305l-2 0c1,168 -130,306 -295,314 166,3 301,138 304,307l2 0c-2,-169 129,-308 295,-316l0 0z"/>
    <path class="fil6" d="M236709 104386c-166,-3 -301,-137 -304,-304l-3 0c2,167 -129,305 -295,313 167,3 302,138 305,307l2 0c-3,-169 129,-308 295,-316l0 0z"/>
    <path class="fil6" d="M261166 132617c-165,-3 -300,-137 -304,-304l-2 0c1,167 -130,305 -295,313 166,3 302,138 304,307l2 0c-2,-169 129,-308 295,-316l0 0z"/>
    <path class="fil6" d="M201350 117523c-165,-3 -300,-136 -304,-304l-2 0c1,168 -130,305 -295,313 166,3 301,138 304,307l2 0c-2,-169 129,-308 295,-316l0 0z"/>
    <path class="fil6" d="M167529 142121c-166,-3 -300,-137 -304,-305l-3 0c2,168 -129,306 -295,313 167,4 302,138 305,307l2 0c-3,-169 129,-307 295,-315l0 0z"/>
    <path class="fil6" d="M157524 125477c-165,-3 -300,-137 -303,-305l-3 0c1,168 -130,306 -295,314 166,3 302,138 304,307l2 0c-2,-169 129,-308 296,-316l-1 0z"/>
    <path class="fil6" d="M137574 140798c-166,-3 -301,-136 -304,-304l-3 0c1,168 -130,305 -295,313 166,3 302,138 304,307l2 0c-2,-169 129,-308 296,-316l0 0z"/>
    <path class="fil6" d="M73199 49632c-166,-3 -301,-137 -304,-305l-3 0c1,168 -130,306 -295,314 166,3 302,138 304,307l2 0c-2,-169 129,-308 296,-316l0 0z"/>
    <path class="fil6" d="M87894 60949c-165,-3 -300,-137 -304,-305l-2 0c1,168 -130,306 -295,314 166,3 301,138 304,307l2 0c-2,-169 129,-308 295,-316l0 0z"/>
    <path class="fil6" d="M105783 75903c-165,-3 -300,-137 -304,-305l-2 0c1,168 -130,306 -295,314 166,3 301,138 304,307l2 0c-2,-169 129,-308 295,-316l0 0z"/>
    <path class="fil6" d="M129682 89180c-166,-3 -301,-137 -304,-305l-3 0c2,168 -129,306 -295,314 167,3 302,138 304,307l3 0c-3,-169 129,-308 295,-316l0 0z"/>
    <path class="fil6" d="M148114 103749c-165,-3 -300,-137 -304,-305l-2 0c1,168 -130,306 -295,313 166,4 301,138 304,307l2 0c-2,-169 129,-307 295,-315l0 0z"/>
    <path class="fil6" d="M178038 125098c-166,-3 -301,-137 -304,-305l-3 0c2,168 -129,306 -295,313 167,4 302,138 304,307l3 0c-3,-169 129,-307 295,-315l0 0z"/>
    <path class="fil6" d="M200818 140052c-165,-3 -300,-137 -304,-305l-2 0c1,168 -130,306 -295,313 166,4 301,138 304,307l2 0c-2,-169 129,-307 295,-315l0 0z"/>
    <path class="fil6" d="M209903 146481c-166,-4 -301,-137 -304,-305l-3 0c1,168 -130,305 -295,313 166,3 302,138 304,307l2 0c-2,-169 129,-307 296,-315l0 0z"/>
    <path class="fil6" d="M73475 61201c-166,-3 -301,-137 -304,-305l-3 1c1,167 -129,305 -295,313 166,3 302,138 304,307l2 0c-2,-169 129,-308 296,-316l0 0z"/>
    <path class="fil6" d="M88986 67490c-166,-3 -301,-136 -305,-304l-2 0c1,168 -130,305 -295,313 166,3 302,138 304,307l2 0c-2,-169 129,-308 296,-316l0 0z"/>
    <path class="fil6" d="M97231 76575c-166,-4 -300,-137 -304,-305l-3 0c2,168 -129,305 -295,313 167,3 302,138 305,307l2 0c-2,-169 129,-307 295,-315l0 0z"/>
    <path class="fil6" d="M109762 86992c-166,-3 -301,-137 -304,-305l-3 0c2,168 -129,306 -295,314 167,3 302,138 304,306l3 0c-3,-169 129,-307 295,-315l0 0z"/>
    <path class="fil6" d="M121558 97040c-166,-3 -301,-136 -304,-304l-3 0c1,168 -129,305 -295,313 166,3 302,138 304,307l3 0c-3,-169 129,-308 295,-316l0 0z"/>
    <path class="fil6" d="M133151 100194c-166,-4 -300,-137 -304,-305l-3 0c2,168 -129,305 -295,313 167,3 302,138 305,307l2 0c-3,-169 129,-307 295,-315l0 0z"/>
    <path class="fil6" d="M145474 115454c-165,-3 -300,-136 -304,-304l-2 0c1,168 -130,305 -295,313 166,3 301,138 304,307l2 0c-2,-169 129,-308 295,-316l0 0z"/>
    <path class="fil6" d="M178628 137636c-166,-3 -301,-137 -304,-305l-3 0c2,168 -129,306 -295,314 167,3 302,138 304,306l3 0c-3,-168 129,-307 295,-315l0 0z"/>
    <path class="fil6" d="M190591 145475c-166,-3 -300,-137 -304,-305l-2 0c1,168 -130,306 -295,314 166,3 301,138 304,306l2 0c-2,-169 129,-307 295,-315l0 0z"/>
    <path class="fil6" d="M168088 146313c-166,-3 -300,-136 -304,-304l-3 0c2,168 -129,305 -295,313 167,3 302,138 305,307l2 0c-2,-169 129,-308 295,-316l0 0z"/>
    <path class="fil6" d="M152018 138767c-166,-4 -300,-137 -304,-305l-2 0c1,168 -130,305 -295,313 166,3 301,138 304,307l2 0c-2,-169 129,-307 295,-315l0 0z"/>
    <path class="fil6" d="M135132 124539c-165,-3 -300,-137 -304,-305l-2 0c1,168 -130,305 -295,313 166,4 301,138 304,307l2 0c-2,-169 129,-307 295,-315l0 0z"/>
    <path class="fil6" d="M140540 127343c-250,8 -451,213 -452,467l-4 0c-2,-254 -203,-459 -453,-467 251,-9 453,-215 453,-471l3 0c1,256 202,462 453,471l0 0z"/>
    <path class="fil6" d="M119472 91287c-250,8 -451,213 -452,467l-4 0c-2,-254 -203,-459 -453,-467 251,-9 453,-215 453,-470l3 0c0,255 202,461 453,470l0 0z"/>
    <path class="fil6" d="M118492 77081c-250,8 -451,213 -452,467l-5 0c-1,-254 -202,-459 -452,-467 251,-9 453,-215 453,-470l3 0c0,255 202,461 453,470l0 0z"/>
    <path class="fil6" d="M138479 90308c-250,9 -451,214 -452,467l-4 0c-2,-253 -203,-458 -453,-467 251,-8 453,-215 453,-470l3 0c0,255 202,462 453,470l0 0z"/>
    <path class="fil6" d="M157344 106750c-250,9 -450,214 -452,467l-4 0c-2,-253 -202,-458 -453,-467 252,-8 453,-215 453,-470l4 0c0,255 201,462 452,470l0 0z"/>
    <path class="fil6" d="M182957 129299c-250,8 -451,213 -452,467l-4 0c-2,-254 -203,-459 -453,-467 251,-8 453,-215 453,-470l3 0c1,255 202,462 453,470l0 0z"/>
    <path class="fil6" d="M193963 141739c-250,8 -451,213 -453,467l-4 0c-1,-254 -202,-459 -452,-467 251,-8 453,-215 453,-470l3 0c0,255 202,462 453,470l0 0z"/>
    <path class="fil6" d="M213667 139314c-251,8 -451,213 -453,467l-4 0c-2,-254 -202,-459 -453,-467 252,-9 453,-215 453,-470l4 0c0,255 201,461 453,470l0 0z"/>
    <path class="fil6" d="M198715 110014c-251,8 -451,213 -453,467l-4 0c-2,-254 -202,-459 -453,-467 252,-8 453,-215 453,-470l4 0c0,255 201,462 453,470l0 0z"/>
    <path class="fil6" d="M88997 53296c-166,-3 -301,-137 -304,-304l-3 0c2,168 -129,305 -295,313 167,3 302,138 305,307l2 0c-3,-169 129,-308 295,-316l0 0z"/>
    <path class="fil6" d="M96839 62626c-166,-3 -301,-137 -304,-305l-3 0c2,168 -129,306 -295,314 167,3 302,138 304,307l3 0c-3,-169 129,-308 295,-316l0 0z"/>
    <path class="fil6" d="M100026 52117c-165,-3 -300,-137 -304,-305l-2 0c1,168 -130,306 -295,314 166,3 301,138 304,307l2 0c-2,-169 129,-308 295,-316l0 0z"/>
    <path class="fil6" d="M116937 55192c-166,-3 -301,-137 -304,-305l-3 0c2,168 -129,306 -295,313 167,4 302,138 305,307l2 0c-3,-169 129,-307 295,-315l0 0z"/>
    <path class="fil6" d="M117029 66587c-166,-3 -300,-137 -304,-304l-2 0c1,168 -130,305 -295,313 166,3 301,138 304,307l2 0c-2,-169 129,-308 295,-316l0 0z"/>
    <path class="fil6" d="M125866 74794c-166,-3 -301,-137 -304,-305l-3 0c1,168 -129,306 -295,314 166,3 302,137 304,306l3 0c-3,-169 128,-307 295,-315l0 0z"/>
    <path class="fil6" d="M141115 84401c-166,-3 -301,-137 -304,-305l-3 0c2,168 -129,306 -295,314 167,3 302,138 305,307l2 0c-3,-169 129,-308 295,-316l0 0z"/>
    <path class="fil6" d="M135412 78558c-166,-3 -301,-136 -304,-304l-3 0c2,168 -129,305 -295,313 167,3 302,138 304,307l3 0c-3,-169 129,-308 295,-316l0 0z"/>
    <path class="fil6" d="M131763 66014c-166,-3 -301,-137 -304,-304l-3 0c1,167 -129,305 -295,313 166,3 302,138 304,307l3 0c-3,-169 128,-308 295,-316l0 0z"/>
    <path class="fil6" d="M121275 60673c-166,-3 -300,-137 -304,-305l-3 0c2,168 -129,306 -295,314 167,3 302,138 305,306l2 0c-3,-169 129,-307 295,-315l0 0z"/>
    <path class="fil6" d="M127057 52663c-165,-3 -300,-136 -304,-304l-2 0c1,168 -130,305 -295,313 166,3 301,138 304,307l2 0c-2,-169 129,-308 295,-316l0 0z"/>
    <path class="fil6" d="M140369 52332c-166,-3 -301,-137 -304,-305l-3 0c1,168 -129,306 -295,314 166,3 302,138 304,307l3 0c-3,-169 129,-308 295,-316l0 0z"/>
    <path class="fil6" d="M149503 67351c-166,-4 -301,-137 -304,-305l-3 0c1,168 -130,305 -295,313 166,3 302,138 304,307l2 0c-2,-169 129,-307 296,-315l0 0z"/>
    <path class="fil6" d="M153414 82305c-166,-3 -301,-137 -304,-305l-3 0c1,168 -130,305 -295,313 166,4 302,138 304,307l2 0c-2,-169 129,-307 296,-315l0 0z"/>
    <path class="fil6" d="M162646 92568c-165,-3 -300,-137 -304,-305l-2 1c1,167 -130,305 -295,313 166,3 301,138 304,307l2 0c-2,-169 129,-308 295,-316l0 0z"/>
    <path class="fil6" d="M150211 93127c-166,-3 -301,-137 -304,-305l-3 0c1,168 -129,306 -295,314 166,3 302,138 304,307l2 0c-2,-169 129,-308 296,-316l0 0z"/>
    <path class="fil6" d="M139447 101932c-166,-3 -301,-137 -304,-305l-3 0c1,168 -129,306 -295,314 166,3 302,138 304,307l2 0c-2,-169 129,-308 296,-316l0 0z"/>
    <path class="fil6" d="M170351 101059c-166,-3 -300,-136 -304,-304l-2 0c1,168 -130,305 -295,313 166,3 301,138 304,307l2 0c-2,-169 129,-308 295,-316l0 0z"/>
    <path class="fil6" d="M178572 106622c-166,-3 -300,-136 -304,-304l-3 0c2,168 -129,305 -295,313 167,3 302,138 305,307l2 0c-2,-169 129,-308 295,-316l0 0z"/>
    <path class="fil6" d="M189316 113786c-166,-3 -301,-137 -304,-305l-3 0c1,168 -130,306 -295,314 166,3 302,138 304,307l2 0c-2,-169 129,-308 296,-316l0 0z"/>
    <path class="fil6" d="M191707 125210c-166,-3 -300,-137 -304,-305l-3 0c2,168 -129,306 -295,314 167,3 302,138 305,307l2 0c-2,-169 129,-308 295,-316l0 0z"/>
    <path class="fil6" d="M212096 125665c-166,-3 -301,-136 -304,-304l-3 0c2,168 -129,305 -295,313 167,3 302,138 305,307l2 0c-3,-169 129,-308 295,-316l0 0z"/>
    <path class="fil6" d="M211118 113926c-166,-3 -301,-137 -304,-305l-3 0c1,168 -129,306 -295,314 166,3 302,137 304,306l2 0c-2,-169 129,-307 296,-315l0 0z"/>
    <path class="fil6" d="M221180 125386c-166,-3 -300,-137 -304,-305l-2 0c1,168 -130,306 -295,314 166,3 301,138 304,307l2 -1c-2,-168 129,-307 295,-315l0 0z"/>
    <path class="fil6" d="M234317 135309c-165,-3 -300,-137 -304,-305l-2 0c1,168 -130,306 -295,313 166,4 301,138 304,307l2 0c-2,-169 129,-307 295,-315l0 0z"/>
    <path class="fil6" d="M238091 145791c-166,-4 -301,-137 -304,-305l-3 0c2,168 -129,305 -295,313 167,3 302,138 304,307l3 0c-3,-169 129,-307 295,-315l0 0z"/>
    <path class="fil6" d="M221712 149763c-166,-3 -301,-137 -304,-305l-3 0c1,168 -130,306 -295,314 166,3 302,138 304,307l2 0c-2,-169 129,-308 296,-316l0 0z"/>
    <path class="fil6" d="M220366 134356c-166,-3 -300,-137 -304,-305l-3 0c2,168 -129,305 -295,313 167,4 302,138 305,307l2 0c-2,-169 129,-307 295,-315l0 0z"/>
    <path class="fil6" d="M206530 127927c-166,-3 -300,-137 -304,-305l-3 0c2,168 -129,306 -295,314 167,3 302,137 305,306l2 0c-2,-169 129,-307 295,-315l0 0z"/>
    <path class="fil6" d="M190318 88236c-165,-3 -300,-137 -304,-305l-2 0c1,168 -130,306 -295,313 166,4 301,138 304,307l2 0c-2,-169 129,-307 295,-315l0 0z"/>
    <path class="fil6" d="M208629 85301c-166,-3 -300,-137 -304,-305l-2 0c1,168 -130,306 -295,314 166,3 301,137 304,306l2 0c-2,-169 129,-307 295,-315l0 0z"/>
    <path class="fil6" d="M221320 98692c-166,-3 -301,-137 -304,-304l-3 0c2,168 -129,305 -295,313 167,3 302,138 305,307l2 0c-3,-169 129,-308 295,-316l0 0z"/>
    <path class="fil6" d="M221599 85276c-165,-3 -300,-137 -304,-305l-2 0c1,168 -130,305 -295,313 166,4 302,138 304,307l2 0c-2,-169 129,-307 295,-315l0 0z"/>
    <path class="fil6" d="M234737 89049c-166,-3 -301,-137 -304,-305l-3 0c1,168 -129,306 -295,314 166,3 302,138 304,307l2 0c-2,-169 129,-308 296,-316l0 0z"/>
    <path class="fil6" d="M242843 99531c-166,-3 -301,-137 -304,-305l-3 0c1,168 -130,306 -295,314 166,3 302,137 304,306l2 0c-2,-169 129,-307 296,-315l0 0z"/>
    <path class="fil6" d="M265483 82900c-166,-3 -300,-137 -304,-305l-2 0c1,168 -130,306 -295,313 166,4 301,138 304,307l2 0c-2,-169 129,-307 295,-315l0 0z"/>
    <path class="fil6" d="M264365 101068c-166,-3 -300,-137 -304,-305l-3 0c2,168 -129,306 -295,314 167,3 302,138 305,307l2 0c-2,-169 129,-308 295,-316l0 0z"/>
    <path class="fil6" d="M240047 114345c-165,-3 -300,-137 -304,-305l-2 0c1,168 -130,306 -295,314 166,3 301,138 304,307l2 0c-2,-169 129,-308 295,-316l0 0z"/>
    <path class="fil6" d="M250809 144393c-166,-3 -301,-137 -304,-305l-3 0c1,168 -129,306 -295,314 166,3 302,138 304,307l3 0c-3,-169 128,-308 295,-316l0 0z"/>
    <path class="fil6" d="M243716 86954c-250,9 -451,213 -452,467l-4 0c-2,-254 -202,-458 -453,-467 252,-8 453,-215 453,-470l4 0c0,255 201,462 452,470l0 0z"/>
    <path class="fil6" d="M269348 76085c-250,9 -451,214 -453,467l-4 0c-1,-253 -202,-458 -452,-467 251,-8 453,-215 453,-470l3 0c0,255 202,462 453,470l0 0z"/>
    <path class="fil6" d="M270133 53572c-362,12 -652,308 -654,674l-6 0c-2,-366 -292,-662 -653,-674 363,-12 654,-311 654,-679l5 0c0,368 291,667 654,679l0 0z"/>
    <path class="fil6" d="M261892 95190c-166,-4 -300,-137 -304,-305l-2 0c1,168 -130,305 -295,313 166,4 301,138 304,307l2 0c-2,-169 129,-307 295,-315l0 0z"/>
    <path class="fil6" d="M159152 53296c-165,-3 -300,-136 -304,-304l-2 0c1,168 -130,305 -295,313 166,3 302,138 304,307l2 0c-2,-169 129,-308 295,-316l0 0z"/>
    <path class="fil6" d="M199207 61137c-166,-3 -301,-137 -304,-305l-3 0c1,168 -130,306 -295,314 166,3 302,137 304,306l2 0c-2,-169 129,-307 296,-315l0 0z"/>
    <path class="fil6" d="M114282 107181c-166,-3 -301,-136 -304,-304l-3 0c1,168 -130,305 -295,313 166,3 302,138 304,307l2 0c-2,-169 129,-308 296,-316l0 0z"/>
    <path class="fil6" d="M127403 107078c-166,-3 -300,-137 -304,-305l-3 0c2,168 -129,306 -295,313 167,4 302,138 305,307l2 0c-2,-169 129,-307 295,-315l0 0z"/>
    <path class="fil6" d="M158848 66967c-165,-3 -300,-136 -304,-304l-2 0c1,168 -130,305 -295,313 166,3 302,138 304,307l2 0c-2,-169 129,-308 296,-316l-1 0z"/>
    <path class="fil6" d="M176361 66959c-166,-3 -301,-137 -304,-305l-3 0c1,168 -129,305 -295,313 167,4 302,138 304,307l3 0c-3,-169 129,-307 295,-315l0 0z"/>
    <path class="fil6" d="M184532 77069c-166,-3 -300,-137 -304,-305l-3 0c2,168 -129,306 -295,314 167,3 302,138 305,307l2 0c-3,-169 129,-308 295,-316l0 0z"/>
    <path class="fil6" d="M160826 135024c-165,-3 -300,-137 -304,-305l-2 0c1,168 -130,306 -295,314 166,3 301,137 304,306l2 0c-2,-169 129,-307 295,-315l0 0z"/>
    <path class="fil6" d="M231119 118362c-166,-3 -301,-137 -304,-305l-3 0c1,168 -129,306 -295,314 166,3 302,138 304,307l2 0c-2,-169 129,-308 296,-316l0 0z"/>
    <path class="fil6" d="M224972 118362c-166,-3 -301,-137 -304,-305l-3 0c1,168 -130,306 -295,314 166,3 302,138 304,307l2 0c-2,-169 129,-308 296,-316l0 0z"/>
    <path class="fil6" d="M225534 110986c-166,-4 -300,-137 -304,-305l-3 0c2,168 -129,305 -295,313 167,3 302,138 305,307l2 0c-3,-169 129,-307 295,-315l0 0z"/>
    <path class="fil6" d="M219801 106762c-166,-3 -301,-137 -305,-305l-2 0c1,168 -130,306 -295,314 166,3 302,138 304,307l2 0c-2,-169 129,-308 296,-316l0 0z"/>
    <path class="fil6" d="M226813 102177c-166,-3 -300,-136 -304,-304l-3 0c2,168 -129,305 -295,313 167,3 302,138 305,307l2 0c-2,-169 129,-308 295,-316l0 0z"/>
    <path class="fil6" d="M246777 109448c-166,-3 -300,-137 -304,-305l-3 0c2,168 -129,306 -295,314 167,3 302,138 305,307l2 0c-3,-169 129,-308 295,-316l0 0z"/>
    <path class="fil6" d="M249830 118398c-165,-3 -300,-137 -304,-305l-2 0c1,168 -130,306 -295,314 166,3 302,138 304,307l2 0c-2,-169 129,-308 295,-316l0 0z"/>
    <path class="fil6" d="M251228 128740c-166,-3 -300,-137 -304,-305l-3 0c2,168 -129,306 -295,314 167,3 302,138 305,307l2 0c-3,-169 129,-308 295,-316l0 0z"/>
    <path class="fil6" d="M250110 125386c-166,-3 -301,-137 -304,-305l-3 0c2,168 -129,306 -295,314 167,3 302,138 305,307l2 -1c-3,-168 129,-307 295,-315l0 0z"/>
    <path class="fil6" d="M255840 121612c-166,-3 -301,-136 -304,-304l-3 0c2,168 -129,305 -295,313 167,3 302,138 305,307l2 0c-3,-169 129,-308 295,-316l0 0z"/>
    <path class="fil6" d="M253604 113227c-166,-3 -301,-137 -304,-305l-3 0c2,168 -129,306 -295,314 167,3 302,138 304,307l3 0c-3,-169 129,-308 295,-316l0 0z"/>
    <path class="fil6" d="M85503 123734c-166,-3 -300,-137 -304,-305l-3 0c2,168 -129,306 -295,314 167,3 302,138 305,307l2 0c-2,-169 129,-308 295,-316l0 0z"/>
    <path class="fil6" d="M82146 72862c-166,-3 -300,-136 -304,-304l-2 0c1,168 -130,305 -295,313 166,3 301,138 304,307l2 0c-2,-169 129,-308 295,-316l0 0z"/>
    <path class="fil6" d="M95259 86813c-166,-3 -301,-137 -304,-305l-3 0c2,168 -129,306 -295,314 167,3 302,138 304,307l3 0c-3,-169 129,-308 295,-316l0 0z"/>
    <path class="fil6" d="M77394 107941c-165,-3 -300,-136 -304,-304l-2 0c1,168 -130,305 -295,313 166,3 302,138 304,307l2 0c-2,-169 129,-308 295,-316l0 0z"/>
    <path class="fil6" d="M101994 112693c-165,-3 -300,-137 -304,-305l-2 1c1,167 -130,305 -295,313 166,3 301,138 304,307l2 0c-2,-169 129,-308 295,-316l0 0z"/>
    <path class="fil6" d="M110912 136706c-166,-3 -301,-137 -304,-304l-3 0c1,167 -129,305 -295,313 166,3 302,138 304,307l3 0c-3,-169 128,-308 295,-316l0 0z"/>
    <path class="fil6" d="M170100 55228c-251,8 -451,213 -453,467l-4 0c-2,-254 -202,-459 -452,-467 251,-9 452,-215 452,-470l4 0c0,255 201,461 453,470l0 0z"/>
    <path class="fil6" d="M163498 76842c-250,9 -451,214 -453,467l-4 0c-1,-253 -202,-458 -452,-467 251,-8 453,-215 453,-470l3 0c0,255 202,462 453,470l0 0z"/>
    <path class="fil6" d="M203047 51316c-250,8 -451,213 -453,467l-4 0c-1,-254 -202,-459 -452,-467 251,-8 453,-215 453,-470l3 0c0,255 202,462 453,470l0 0z"/>
    <path class="fil6" d="M204722 60071c-250,9 -451,214 -452,468l-5 0c-1,-254 -202,-459 -452,-468 251,-8 453,-215 453,-470l3 0c0,255 202,462 453,470l0 0z"/>
    <path class="fil6" d="M206818 64264c-250,8 -450,213 -452,467l-4 0c-2,-254 -202,-459 -453,-467 252,-8 453,-215 453,-470l4 0c0,255 201,462 453,470l-1 0z"/>
    <path class="fil6" d="M215171 61377c-251,8 -451,213 -453,467l-4 0c-2,-254 -202,-459 -452,-467 251,-8 452,-215 452,-470l4 0c0,255 201,462 453,470l0 0z"/>
    <path class="fil6" d="M230963 101208c-250,8 -451,213 -452,467l-4 0c-2,-254 -203,-459 -453,-467 251,-8 453,-215 453,-470l3 0c0,255 202,462 453,470l0 0z"/>
    <path class="fil6" d="M228308 104702c-250,8 -451,213 -453,467l-4 0c-1,-254 -202,-459 -452,-467 251,-8 453,-215 453,-470l3 0c0,255 202,461 453,470l0 0z"/>
    <path class="fil6" d="M217867 101904c-250,8 -451,213 -453,467l-4 0c-1,-254 -202,-459 -452,-467 251,-8 453,-215 453,-470l3 0c0,255 202,462 453,470l0 0z"/>
    <path class="fil6" d="M210978 105261c-250,8 -451,213 -453,467l-4 0c-1,-254 -202,-459 -452,-467 251,-8 453,-215 453,-470l3 0c0,255 202,461 453,470l0 0z"/>
    <path class="fil6" d="M193124 101629c-250,8 -451,213 -452,467l-4 0c-2,-254 -203,-459 -453,-467 251,-9 453,-215 453,-470l3 0c1,255 202,461 453,470l0 0z"/>
    <path class="fil6" d="M185333 101348c-250,8 -451,213 -452,467l-5 0c-1,-254 -202,-459 -452,-467 251,-9 453,-215 453,-470l3 0c0,255 202,461 453,470l0 0z"/>
    <path class="fil6" d="M176668 99810c-250,9 -451,214 -452,467l-4 0c-2,-253 -203,-458 -453,-467 251,-8 453,-215 453,-470l3 0c0,255 202,462 453,470l0 0z"/>
    <path class="fil6" d="M173034 94080c-250,9 -450,214 -452,467l-4 0c-2,-253 -202,-458 -453,-467 252,-8 453,-215 453,-470l4 0c0,255 201,462 453,470l-1 0z"/>
    <path class="fil6" d="M217162 132934c-250,9 -450,214 -452,467l-4 0c-2,-253 -202,-458 -453,-467 252,-8 453,-215 453,-470l4 0c0,255 201,462 453,470l-1 0z"/>
    <path class="fil6" d="M224150 130838c-250,8 -451,213 -452,467l-4 0c-2,-254 -202,-459 -453,-467 252,-8 453,-215 453,-470l4 0c0,255 201,462 452,470l0 0z"/>
    <path class="fil6" d="M228760 134422c-250,9 -451,214 -452,467l-4 0c-2,-253 -202,-458 -453,-467 252,-8 453,-215 453,-470l4 0c0,255 201,462 452,470l0 0z"/>
    <path class="fil6" d="M236726 128413c-250,8 -450,213 -452,467l-4 0c-2,-254 -202,-459 -453,-467 252,-9 453,-215 453,-470l4 0c0,255 201,461 453,470l-1 0z"/>
    <path class="fil6" d="M239948 133489c-250,9 -450,214 -452,467l-4 0c-2,-253 -202,-458 -453,-467 252,-8 453,-215 453,-470l4 0c0,255 201,462 453,470l-1 0z"/>
    <path class="fil6" d="M247356 134607c-251,9 -451,214 -453,467l-4 0c-2,-253 -202,-458 -452,-467 251,-8 452,-215 452,-470l4 0c0,255 201,462 453,470l0 0z"/>
    <path class="fil6" d="M243681 143275c-250,8 -451,213 -452,467l-5 0c-1,-254 -202,-459 -452,-467 251,-8 453,-215 453,-470l3 0c0,255 202,461 453,470l0 0z"/>
    <path class="fil6" d="M243821 148586c-250,8 -451,213 -453,467l-4 0c-1,-254 -202,-459 -452,-467 251,-9 453,-215 453,-470l3 0c0,255 202,461 453,470l0 0z"/>
    <path class="fil6" d="M256999 142434c-250,8 -451,213 -453,467l-4 0c-1,-254 -202,-459 -452,-467 251,-9 453,-215 453,-470l3 0c0,255 202,461 453,470l0 0z"/>
    <path class="fil6" d="M269996 112805c-250,9 -451,213 -452,467l-4 0c-2,-254 -202,-458 -453,-467 252,-8 453,-215 453,-470l4 0c0,255 201,462 452,470l0 0z"/>
    <path class="fil6" d="M75413 145511c-250,8 -451,213 -452,467l-4 0c-2,-254 -202,-459 -453,-467 252,-8 453,-215 453,-470l4 0c0,255 201,462 452,470l0 0z"/>
    <path class="fil6" d="M91249 130967c-166,-3 -301,-136 -304,-304l-3 0c1,168 -129,305 -295,313 166,3 302,138 304,307l2 0c-2,-169 129,-308 296,-316l0 0z"/>
    <path class="fil6" d="M101451 124539c-166,-3 -301,-137 -304,-305l-3 0c2,168 -129,305 -295,313 167,4 302,138 305,307l2 0c-3,-169 129,-307 295,-315l0 0z"/>
    <path class="fil6" d="M126747 131806c-166,-3 -301,-137 -304,-305l-3 0c2,168 -129,306 -295,314 167,3 302,138 305,307l2 0c-3,-169 129,-308 295,-316l0 0z"/>
    <path class="fil6" d="M121716 143685c-166,-3 -301,-136 -304,-304l-3 0c1,168 -129,305 -295,313 166,3 302,138 304,307l3 0c-3,-169 128,-308 295,-316l0 0z"/>
    <path class="fil6" d="M133626 147559c-166,-3 -300,-137 -304,-305l-3 0c2,168 -129,306 -295,313 167,4 302,138 305,307l2 0c-3,-169 129,-307 295,-315l0 0z"/>
    <path class="fil6" d="M92184 101767c-166,-3 -300,-137 -304,-305l-2 0c1,168 -130,306 -295,314 166,3 301,138 304,307l2 0c-2,-169 129,-308 295,-316l0 0z"/>
    <path class="fil6" d="M108552 95442c-166,-3 -301,-137 -304,-305l-3 0c1,168 -130,306 -295,314 166,3 302,137 304,306l2 0c-2,-169 129,-307 296,-315l0 0z"/>
    <path class="fil6" d="M91641 115707c-166,-3 -301,-137 -304,-305l-3 0c2,168 -129,305 -295,313 167,4 302,138 305,307l2 0c-3,-169 129,-307 295,-315l0 0z"/>
    <path class="fil6" d="M72782 120520c-165,-3 -300,-137 -304,-305l-2 0c1,168 -130,305 -295,313 166,4 302,138 304,307l2 0c-2,-169 129,-307 296,-315l-1 0z"/>
    <path class="fil6" d="M79631 130303c-166,-3 -301,-137 -304,-305l-3 0c1,168 -130,306 -295,313 166,4 302,138 304,307l2 0c-2,-169 129,-307 296,-315l0 0z"/>
    <path class="fil6" d="M87035 135443c-166,-3 -301,-137 -304,-305l-3 0c1,168 -130,306 -295,314 166,3 302,138 304,307l2 0c-2,-169 129,-308 296,-316l0 0z"/>
    <path class="fil6" d="M91507 138657c-166,-3 -301,-136 -304,-304l-3 0c1,168 -129,305 -295,313 166,3 302,138 304,307l3 0c-3,-169 129,-308 295,-316l0 0z"/>
    <path class="fil6" d="M98495 142151c-166,-3 -301,-136 -304,-304l-3 0c1,168 -129,305 -295,313 166,3 302,138 304,307l2 0c-2,-169 129,-308 296,-316l0 0z"/>
    <path class="fil6" d="M104168 143875c-319,-6 -578,-263 -584,-586l-6 0c3,323 -249,588 -567,603 320,6 580,265 585,590l4 0c-4,-325 249,-592 568,-607l0 0z"/>
    <path class="fil6" d="M91084 146593c-166,-3 -300,-137 -304,-305l-3 0c2,168 -129,306 -295,314 167,3 302,138 305,307l2 0c-3,-169 129,-308 295,-316l0 0z"/>
    <path class="fil6" d="M79484 140863c-166,-3 -300,-137 -304,-305l-2 0c1,168 -130,306 -295,314 166,3 301,138 304,307l2 -1c-2,-169 129,-307 295,-315l0 0z"/>
    <path class="fil6" d="M100867 131918c-166,-3 -300,-136 -304,-304l-3 0c2,168 -129,305 -295,313 167,3 302,138 305,307l2 0c-3,-169 129,-308 295,-316l0 0z"/>
    <path class="fil6" d="M110927 116685c-165,-3 -300,-137 -304,-305l-2 0c1,168 -130,306 -295,314 166,3 301,138 304,307l2 -1c-2,-168 129,-307 295,-315l0 0z"/>
    <path class="fil6" d="M113024 129123c-166,-3 -301,-137 -304,-304l-3 0c1,168 -129,305 -295,313 167,3 302,138 304,307l3 0c-3,-169 129,-308 295,-316l0 0z"/>
    <path class="fil6" d="M125742 118362c-166,-3 -301,-137 -304,-305l-3 0c1,168 -129,306 -295,314 166,3 302,138 304,307l2 0c-2,-169 129,-308 296,-316l0 0z"/>
    <path class="fil6" d="M147096 7644c-662,22 -1193,564 -1197,1236l-11 0c-4,-672 -535,-1214 -1197,-1236 665,-22 1198,-569 1198,-1244l9 0c1,675 534,1222 1199,1244l-1 0z"/>
    <path class="fil6" d="M197868 35827c-166,-3 -301,-137 -304,-305l-3 0c2,168 -129,306 -295,313 167,4 302,138 305,307l2 0c-3,-169 129,-307 295,-315l0 0z"/>
    <path class="fil6" d="M183473 40299c-166,-3 -301,-137 -304,-305l-3 0c2,168 -129,306 -295,314 167,3 302,138 305,307l2 -1c-3,-168 129,-307 295,-315l0 0z"/>
    <path class="fil6" d="M180957 50082c-166,-3 -300,-137 -304,-305l-2 0c1,168 -130,306 -295,314 166,3 301,138 304,307l2 -1c-2,-168 129,-307 295,-315l0 0z"/>
    <path class="fil6" d="M154698 40964c-165,-3 -300,-137 -304,-305l-2 0c1,168 -130,306 -295,314 166,3 301,137 304,306l2 0c-2,-169 129,-307 295,-315l0 0z"/>
    <path class="fil6" d="M184253 11383c-166,-3 -301,-137 -304,-305l-3 0c1,168 -130,306 -295,314 166,3 302,138 304,307l2 0c-2,-169 129,-308 296,-316l0 0z"/>
    <path class="fil6" d="M211118 14419c-166,-3 -301,-137 -304,-305l-3 0c1,168 -129,305 -295,313 166,4 302,138 304,307l2 0c-2,-169 129,-307 296,-315l0 0z"/>
    <path class="fil6" d="M214907 39539c-166,-3 -301,-137 -304,-305l-3 0c1,168 -129,306 -295,314 167,3 302,138 304,306l3 0c-3,-169 129,-307 295,-315l0 0z"/>
    <path class="fil6" d="M240343 15640c-166,-3 -301,-136 -304,-304l-3 0c1,168 -130,305 -295,313 166,3 302,138 304,307l2 0c-2,-169 129,-308 296,-316l0 0z"/>
    <path class="fil6" d="M248868 37722c-166,-3 -301,-137 -304,-305l-3 0c1,168 -129,306 -295,314 167,3 302,138 304,307l3 0c-3,-169 129,-308 295,-316l0 0z"/>
    <path class="fil6" d="M224969 29197c-165,-3 -300,-137 -304,-305l-2 0c1,168 -130,306 -295,314 166,3 301,137 304,306l2 0c-2,-169 129,-307 295,-315l0 0z"/>
    <path class="fil6" d="M246354 47645c-165,-3 -300,-137 -304,-305l-2 0c1,168 -130,306 -295,314 166,3 301,137 304,306l2 0c-2,-169 129,-307 295,-315l0 0z"/>
    <path class="fil6" d="M270958 9133c-166,-3 -300,-137 -304,-305l-2 0c1,168 -130,306 -295,314 166,3 301,138 304,307l2 0c-2,-169 129,-308 295,-316l0 0z"/>
    <path class="fil6" d="M260473 42085c-165,-3 -300,-137 -304,-305l-2 0c1,168 -130,306 -295,314 166,3 301,138 304,307l2 0c-2,-169 129,-308 295,-316l0 0z"/>
    <path class="fil6" d="M267044 49141c-166,-3 -300,-137 -304,-305l-3 0c2,168 -129,306 -295,314 167,3 302,137 305,306l2 0c-3,-169 129,-307 295,-315l0 0z"/>
    <path class="fil6" d="M259082 48824c-166,-3 -301,-137 -304,-305l-3 0c1,168 -130,306 -295,314 166,3 302,138 304,307l2 0c-2,-169 129,-308 296,-316l0 0z"/>
    <path class="fil6" d="M249299 44352c-166,-3 -301,-137 -304,-305l-3 0c1,168 -130,306 -295,314 166,3 302,138 304,306l2 0c-2,-168 129,-307 296,-315l0 0z"/>
    <path class="fil6" d="M233366 42116c-166,-3 -300,-137 -304,-305l-2 0c1,168 -130,306 -295,313 166,4 301,138 304,307l2 0c-2,-169 129,-307 295,-315l0 0z"/>
    <path class="fil6" d="M226099 37783c-166,-3 -301,-137 -304,-304l-3 0c2,167 -129,305 -295,313 167,3 302,138 304,307l3 0c-3,-169 129,-308 295,-316l0 0z"/>
    <path class="fil6" d="M218831 33451c-165,-3 -300,-137 -303,-305l-3 0c1,168 -130,306 -295,314 166,3 302,137 304,306l2 0c-2,-169 129,-307 296,-315l-1 0z"/>
    <path class="fil6" d="M211564 29118c-166,-3 -300,-137 -304,-304l-3 0c2,168 -129,305 -295,313 167,3 302,138 305,307l2 0c-2,-169 129,-308 295,-316l0 0z"/>
    <path class="fil6" d="M191014 29507c-166,-3 -301,-137 -304,-305l-3 0c2,168 -129,306 -295,314 167,3 302,138 305,307l2 0c-3,-169 129,-308 295,-316l0 0z"/>
    <path class="fil6" d="M170464 29896c-166,-3 -301,-137 -304,-305l-3 0c1,168 -129,305 -295,313 167,4 302,138 304,307l3 0c-3,-169 129,-307 295,-315l0 0z"/>
    <path class="fil6" d="M165182 42247c-108,56 -240,14 -294,-94 -55,-108 -13,-240 95,-296 108,-56 240,-14 294,94 55,108 12,240 -95,296l0 0z"/>
    <path class="fil6" d="M173245 54736c-107,55 -239,13 -294,-95 -55,-107 -12,-239 95,-295 108,-56 240,-14 295,93 55,108 12,241 -96,296l0 1z"/>
    <path class="fil6" d="M206401 46564c-250,9 -451,214 -452,467l-4 0c-2,-253 -203,-458 -453,-467 251,-8 453,-215 453,-470l3 0c1,255 202,462 453,470l0 0z"/>
    <path class="fil6" d="M230865 31329c-250,8 -450,213 -452,467l-4 0c-2,-254 -202,-459 -453,-467 252,-9 453,-215 453,-471l4 0c0,256 201,462 452,471l0 0z"/>
    <path class="fil6" d="M237707 62217c-250,8 -451,213 -453,467l-4 0c-1,-254 -202,-459 -452,-467 251,-8 453,-215 453,-470l3 0c0,255 202,462 453,470l0 0z"/>
    <path class="fil6" d="M244548 93106c-250,8 -451,213 -452,467l-4 0c-2,-254 -203,-459 -453,-467 251,-9 453,-215 453,-470l3 0c1,255 202,461 453,470l0 0z"/>
    <path class="fil6" d="M266203 30485c-165,-3 -300,-137 -304,-304l-2 0c1,168 -130,305 -295,313 166,3 301,138 304,307l2 0c-2,-169 129,-308 295,-316l0 0z"/>
    <path class="fil6" d="M253485 27830c-165,-3 -300,-137 -304,-305l-2 0c1,168 -130,306 -295,314 166,3 302,138 304,307l2 -1c-2,-169 129,-307 295,-315l0 0z"/>
    <path class="fil6" d="M240768 25174c-166,-3 -301,-136 -304,-304l-3 0c1,168 -130,305 -295,313 166,3 302,138 304,307l2 0c-2,-169 129,-308 296,-316l0 0z"/>
    <path class="fil6" d="M228050 22519c-166,-3 -301,-137 -304,-305l-3 0c1,168 -129,306 -295,314 166,3 302,138 304,307l2 0c-2,-169 129,-308 296,-316l0 0z"/>
    <path class="fil6" d="M232525 20593c-166,-3 -300,-137 -304,-305l-3 0c2,168 -129,306 -295,314 167,3 302,138 305,307l2 0c-3,-169 129,-308 295,-316l0 0z"/>
    <path class="fil6" d="M241327 27830c-166,-3 -301,-137 -304,-305l-3 0c1,168 -130,306 -295,314 166,3 302,138 304,307l2 -1c-2,-169 129,-307 296,-315l0 0z"/>
    <path class="fil6" d="M205968 31044c-166,-3 -301,-137 -304,-304l-3 0c2,168 -129,305 -295,313 167,3 302,138 305,307l2 0c-3,-169 129,-308 295,-316l0 0z"/>
    <path class="fil6" d="M196328 15422c-166,-3 -301,-137 -304,-305l-3 0c2,168 -129,306 -295,314 167,3 302,138 305,307l2 0c-3,-169 129,-308 295,-316l0 0z"/>
    <path class="fil6" d="M208742 23643c-166,-3 -301,-137 -304,-305l-3 0c1,168 -129,305 -295,313 166,4 302,138 304,307l3 0c-3,-169 129,-307 295,-315l0 0z"/>
    <path class="fil6" d="M219363 18052c-165,-3 -300,-137 -304,-304l-2 0c1,168 -130,305 -295,313 166,3 301,138 304,307l2 0c-2,-169 129,-308 295,-316l0 0z"/>
    <path class="fil6" d="M220621 26857c-166,-3 -300,-137 -304,-305l-3 0c2,168 -129,306 -295,314 167,3 302,138 305,307l2 0c-2,-169 129,-308 295,-316l0 0z"/>
    <path class="fil6" d="M228448 25599c-166,-3 -301,-137 -304,-305l-3 1c1,167 -130,305 -295,313 166,3 302,138 304,307l2 0c-2,-169 129,-308 296,-316l0 0z"/>
    <path class="fil6" d="M227329 9527c-165,-3 -300,-137 -304,-305l-2 0c1,168 -130,306 -295,314 166,3 302,138 304,307l2 0c-2,-169 129,-308 296,-316l-1 0z"/>
    <path class="fil6" d="M246616 3518c-166,-4 -301,-137 -304,-305l-3 0c2,168 -129,305 -295,313 167,3 302,138 305,307l2 0c-3,-169 129,-307 295,-315l0 0z"/>
    <path class="fil6" d="M247175 13999c-166,-3 -300,-136 -304,-304l-3 0c2,168 -129,305 -295,313 167,3 302,138 305,307l2 0c-3,-169 129,-308 295,-316l0 0z"/>
    <path class="fil6" d="M259334 6592c-166,-3 -301,-137 -304,-305l-3 1c2,167 -129,305 -295,313 167,3 302,138 304,307l3 0c-3,-169 129,-308 295,-316l0 0z"/>
    <path class="fil6" d="M259054 18332c-165,-3 -300,-137 -304,-305l-2 0c1,168 -130,306 -295,314 166,3 301,137 304,306l2 0c-2,-169 129,-307 295,-315l0 0z"/>
    <path class="fil6" d="M141379 16794c-250,9 -451,214 -453,468l-4 0c-1,-254 -202,-459 -452,-468 251,-8 453,-214 453,-470l3 0c0,256 202,462 453,470l0 0z"/>
    <path class="fil6" d="M144034 38736c-250,9 -451,214 -452,468l-4 0c-2,-254 -203,-459 -453,-468 251,-8 453,-215 453,-470l3 0c0,255 202,462 453,470l0 0z"/>
    <path class="fil6" d="M171007 5195c-250,8 -451,213 -452,467l-4 0c-2,-254 -202,-459 -453,-467 252,-9 453,-215 453,-470l4 0c0,255 201,461 452,470l0 0z"/>
    <path class="fil6" d="M191691 80105c-250,8 -451,213 -452,467l-4 0c-2,-254 -202,-459 -453,-467 252,-9 453,-215 453,-471l4 0c0,256 201,462 452,471l0 0z"/>
    <path class="fil6" d="M211816 77868c-250,9 -450,214 -452,468l-4 0c-2,-254 -202,-459 -453,-468 252,-8 453,-214 453,-470l4 0c0,255 201,462 452,470l0 0z"/>
    <path class="fil6" d="M217966 47821c-166,-3 -301,-137 -304,-305l-3 0c1,168 -129,305 -295,313 167,4 302,138 304,307l3 0c-3,-169 129,-307 295,-315l0 0z"/>
    <path class="fil6" d="M246492 58686c-166,-3 -301,-137 -304,-305l-3 0c2,168 -129,305 -295,313 167,4 302,138 305,307l2 0c-3,-169 129,-307 295,-315l0 0z"/>
    <path class="fil6" d="M245094 61760c-165,-3 -300,-137 -304,-304l-2 0c1,168 -130,305 -295,313 166,3 301,138 304,307l2 0c-2,-169 129,-308 295,-316l0 0z"/>
    <path class="fil6" d="M254039 73220c-166,-3 -301,-136 -304,-304l-3 0c2,168 -129,305 -295,313 167,3 302,138 304,307l3 0c-3,-169 129,-308 295,-316l0 0z"/>
    <path class="fil6" d="M130132 25271c-166,-3 -300,-137 -304,-305l-3 0c2,168 -129,306 -295,314 167,3 302,138 305,307l2 0c-3,-169 129,-308 295,-316l0 0z"/>
    <path class="fil6" d="M141121 27271c-166,-3 -301,-137 -304,-305l-3 0c1,168 -130,306 -295,314 166,3 302,138 304,306l2 0c-2,-169 129,-307 296,-315l0 0z"/>
    <path class="fil6" d="M167793 11903c-166,-3 -301,-137 -304,-305l-3 0c2,168 -129,306 -295,314 167,3 302,138 305,307l2 0c-3,-169 129,-308 295,-316l0 0z"/>
    <path class="fil6" d="M172964 22245c-166,-3 -301,-137 -304,-305l-3 0c2,168 -129,306 -295,314 167,3 302,138 304,307l3 0c-3,-169 129,-308 295,-316l0 0z"/>
    <path class="fil6" d="M173942 26997c-166,-3 -300,-137 -304,-305l-3 0c2,168 -129,306 -295,314 167,3 302,137 305,306l2 0c-2,-169 129,-307 295,-315l0 0z"/>
    <path class="fil6" d="M181908 30910c-165,-3 -300,-137 -304,-305l-2 0c1,168 -130,306 -295,314 166,3 301,138 304,307l2 0c-2,-169 129,-308 295,-316l0 0z"/>
    <path class="fil6" d="M189874 34823c-165,-3 -300,-137 -303,-305l-3 1c1,167 -130,305 -295,313 166,3 302,138 304,307l2 0c-2,-169 129,-308 296,-316l-1 0z"/>
    <path class="fil6" d="M147549 143898c-165,-3 -300,-137 -304,-304l-2 0c1,168 -130,305 -295,313 166,3 301,138 304,307l2 0c-2,-169 129,-308 295,-316l0 0z"/>
    <path class="fil6" d="M139513 133976c-165,-4 -300,-137 -304,-305l-2 0c1,168 -130,305 -295,313 166,3 301,138 304,307l2 0c-2,-169 129,-307 295,-315l0 0z"/>
    <path class="fil6" d="M131477 124053c-165,-3 -300,-137 -304,-305l-2 0c1,168 -130,306 -295,314 166,3 301,137 304,306l2 0c-2,-169 129,-307 295,-315l0 0z"/>
    <path class="fil6" d="M204028 4115c-165,-3 -300,-137 -304,-305l-2 0c1,168 -130,306 -295,314 166,3 302,138 304,307l2 0c-2,-169 129,-308 296,-316l-1 0z"/>
    <path class="fil6" d="M246165 100617c-166,-3 -300,-136 -304,-304l-2 0c1,168 -130,305 -295,313 166,3 301,138 304,307l2 0c-2,-169 129,-308 295,-316l0 0z"/>
    <path class="fil6" d="M121313 137378c-166,-4 -301,-137 -304,-305l-3 0c2,168 -129,305 -295,313 167,3 302,138 304,307l3 0c-3,-169 129,-307 295,-315l0 0z"/>
    <path class="fil6" d="M147842 123936c-166,-3 -300,-137 -304,-305l-2 0c1,168 -130,305 -295,313 166,4 301,138 304,307l2 0c-2,-169 129,-307 295,-315l0 0z"/>
    <path class="fil6" d="M149729 116878c-166,-3 -300,-137 -304,-305l-3 0c2,168 -129,306 -295,314 167,3 302,138 305,307l2 0c-3,-169 129,-308 295,-316l0 0z"/>
    <path class="fil6" d="M151616 109820c-166,-3 -301,-137 -304,-305l-3 0c1,168 -129,306 -295,314 166,3 302,138 304,307l3 0c-3,-169 128,-308 295,-316l0 0z"/>
    <path class="fil6" d="M24108 72301c166,3 301,137 304,305l3 -1c-1,-167 129,-305 295,-313 -166,-3 -302,-138 -304,-307l-2 0c2,169 -129,308 -296,316l0 0z"/>
    <path class="fil6" d="M40711 98572c250,-9 451,-214 452,-468l5 0c1,254 202,459 452,468 -251,8 -453,214 -453,470l-3 0c0,-255 -202,-462 -453,-470l0 0z"/>
    <path class="fil6" d="M66414 94385c250,-8 451,-213 453,-467l4 0c1,254 202,459 452,467 -251,8 -453,215 -453,470l-3 0c0,-255 -202,-462 -453,-470l0 0z"/>
    <path class="fil6" d="M45212 85438c250,-8 451,-213 452,-467l4 0c2,254 203,459 453,467 -251,8 -453,215 -453,470l-4 0c0,-255 -201,-462 -452,-470l0 0z"/>
    <path class="fil6" d="M27289 87023c251,-8 451,-213 453,-467l4 0c2,254 202,459 453,467 -252,9 -453,215 -453,470l-4 0c0,-255 -201,-461 -453,-470l0 0z"/>
    <path class="fil6" d="M16386 97875c251,-8 451,-213 453,-467l4 0c2,254 202,459 453,467 -252,8 -453,215 -453,470l-4 0c0,-255 -201,-462 -453,-470l0 0z"/>
    <path class="fil6" d="M8554 83204c251,-8 451,-213 453,-467l4 0c2,254 202,459 453,467 -252,9 -453,215 -453,471l-4 0c0,-256 -201,-462 -453,-471l0 0z"/>
    <path class="fil6" d="M19601 81104c250,-8 451,-213 452,-467l4 0c2,254 203,459 453,467 -251,8 -453,215 -453,470l-3 0c0,-255 -202,-462 -453,-470l0 0z"/>
    <path class="fil6" d="M38153 72021c251,-8 451,-213 453,-467l4 0c1,254 202,459 452,467 -251,9 -453,215 -453,470l-3 0c0,-255 -202,-461 -453,-470l0 0z"/>
    <path class="fil6" d="M53560 95129c250,-8 451,-213 452,-467l4 0c2,254 203,459 453,467 -251,8 -453,215 -453,470l-3 0c-1,-255 -202,-462 -453,-470l0 0z"/>
    <path class="fil6" d="M62052 72580c250,-8 451,-213 452,-467l4 0c2,254 203,459 453,467 -251,9 -453,215 -453,470l-3 0c-1,-255 -202,-461 -453,-470l0 0z"/>
    <path class="fil6" d="M59849 83949c250,-9 451,-214 452,-468l4 0c2,254 203,459 453,468 -251,8 -453,214 -453,470l-3 0c0,-255 -202,-462 -453,-470l0 0z"/>
    <path class="fil6" d="M48944 74819c251,-8 451,-213 453,-467l4 0c2,254 202,459 452,467 -251,8 -452,215 -452,470l-4 0c0,-255 -201,-462 -453,-470l0 0z"/>
    <path class="fil6" d="M48845 58465c251,-9 451,-213 453,-467l4 0c2,254 202,458 452,467 -251,8 -452,215 -452,470l-4 0c0,-255 -201,-462 -453,-470l0 0z"/>
    <path class="fil6" d="M63660 58325c165,3 300,137 304,305l2 0c-1,-168 130,-306 295,-314 -166,-3 -301,-138 -304,-307l-2 0c2,169 -129,308 -295,316l0 0z"/>
    <path class="fil6" d="M23410 60701c165,3 300,137 304,305l2 0c-1,-168 130,-306 295,-314 -166,-3 -302,-138 -304,-307l-2 0c2,169 -129,308 -295,316l0 0z"/>
    <path class="fil6" d="M35774 33078c166,3 301,137 304,304l3 0c-1,-168 129,-305 295,-313 -166,-3 -302,-138 -304,-307l-2 0c2,169 -129,308 -296,316l0 0z"/>
    <path class="fil6" d="M2306 57207c166,3 301,137 304,305l3 0c-1,-168 129,-306 295,-314 -166,-3 -302,-138 -304,-307l-3 0c3,169 -129,308 -295,316l0 0z"/>
    <path class="fil6" d="M16142 40436c166,3 301,137 304,305l3 0c-1,-168 129,-306 295,-314 -167,-3 -302,-138 -304,-306l-3 0c3,169 -129,307 -295,315l0 0z"/>
    <path class="fil6" d="M32634 79987c165,4 300,137 304,305l2 0c-1,-168 130,-305 295,-313 -166,-3 -301,-138 -304,-307l-2 0c2,169 -129,307 -295,315l0 0z"/>
    <path class="fil6" d="M55306 39978c166,3 300,137 304,304l3 0c-2,-168 129,-305 295,-313 -167,-3 -302,-138 -305,-307l-2 0c3,169 -129,308 -295,316l0 0z"/>
    <path class="fil6" d="M49523 11652c166,3 300,136 304,304l3 0c-2,-168 129,-305 295,-313 -167,-3 -302,-138 -305,-307l-2 0c2,169 -129,308 -295,316l0 0z"/>
    <path class="fil6" d="M39885 47879c166,3 301,137 304,305l3 0c-1,-168 129,-305 295,-313 -166,-4 -302,-138 -304,-307l-3 0c3,169 -129,307 -295,315l0 0z"/>
    <path class="fil6" d="M15428 19648c166,3 300,137 304,305l2 0c-1,-168 130,-305 295,-313 -166,-4 -301,-138 -304,-307l-2 0c2,169 -129,307 -295,315l0 0z"/>
    <path class="fil6" d="M66692 5785c165,3 300,137 304,305l2 0c-1,-168 130,-306 295,-314 -166,-3 -301,-138 -304,-307l-2 0c2,169 -129,308 -295,316l0 0z"/>
    <path class="fil6" d="M62928 12952c250,-9 451,-213 452,-467l4 0c2,254 202,458 453,467 -252,8 -453,215 -453,470l-4 0c0,-255 -201,-462 -452,-470l0 0z"/>
    <path class="fil6" d="M64498 26600c166,3 301,137 304,305l3 0c-1,-168 129,-306 295,-314 -166,-3 -302,-137 -304,-306l-3 0c3,169 -129,307 -295,315l0 0z"/>
    <path class="fil6" d="M65477 38340c165,3 300,137 304,304l2 0c-1,-167 130,-305 295,-313 -166,-3 -302,-138 -304,-307l-2 0c2,169 -129,308 -296,316l1 0z"/>
    <path class="fil6" d="M55414 26880c166,3 300,137 304,304l3 0c-2,-168 129,-305 295,-313 -167,-3 -302,-138 -305,-307l-2 0c3,169 -129,308 -295,316l0 0z"/>
    <path class="fil6" d="M42277 16957c166,3 300,137 304,305l3 0c-2,-168 129,-306 295,-314 -167,-3 -302,-138 -305,-307l-2 0c2,169 -129,308 -295,316l0 0z"/>
    <path class="fil6" d="M38503 6475c166,3 301,137 304,305l3 0c-1,-168 129,-306 295,-314 -166,-3 -302,-138 -304,-307l-2 1c2,169 -129,307 -296,315l0 0z"/>
    <path class="fil6" d="M53318 6615c165,3 300,137 304,305l2 0c-1,-168 130,-306 295,-314 -166,-3 -301,-138 -304,-307l-2 0c2,169 -129,308 -295,316l0 0z"/>
    <path class="fil6" d="M56228 17910c166,3 301,137 304,305l3 0c-2,-168 129,-306 295,-314 -167,-3 -302,-138 -305,-307l-2 0c3,169 -129,308 -295,316l0 0z"/>
    <path class="fil6" d="M70064 24339c166,3 300,137 304,305l3 0c-2,-168 129,-306 295,-314 -167,-3 -302,-138 -305,-307l-2 0c3,169 -129,308 -295,316l0 0z"/>
    <path class="fil6" d="M67965 66965c166,3 300,137 304,305l3 0c-2,-168 129,-306 295,-314 -167,-3 -302,-138 -305,-307l-2 0c3,169 -129,308 -295,316l0 0z"/>
    <path class="fil6" d="M55274 53573c166,3 301,137 304,305l3 0c-1,-168 129,-306 295,-313 -167,-4 -302,-138 -304,-307l-3 0c3,169 -129,307 -295,315l0 0z"/>
    <path class="fil6" d="M54995 66990c165,3 300,137 304,305l2 0c-1,-168 130,-306 295,-314 -166,-3 -301,-138 -304,-307l-2 0c2,169 -129,308 -295,316l0 0z"/>
    <path class="fil6" d="M41858 63217c165,3 300,136 304,304l2 0c-1,-168 130,-305 295,-313 -166,-3 -302,-138 -304,-307l-2 0c2,169 -129,308 -295,316l0 0z"/>
    <path class="fil6" d="M33752 52735c165,3 300,137 304,305l2 -1c-1,-167 130,-305 295,-313 -166,-3 -301,-138 -304,-307l-2 0c2,169 -129,308 -295,316l0 0z"/>
    <path class="fil6" d="M11111 69366c166,3 300,137 304,305l3 0c-2,-168 129,-306 295,-314 -167,-3 -302,-138 -305,-307l-2 0c3,169 -129,308 -295,316l0 0z"/>
    <path class="fil6" d="M12229 51197c166,4 301,137 304,305l3 0c-2,-168 129,-305 295,-313 -167,-3 -302,-138 -305,-307l-2 0c3,169 -129,307 -295,315l0 0z"/>
    <path class="fil6" d="M36547 37921c166,3 300,136 304,304l2 0c-1,-168 130,-305 295,-313 -166,-3 -301,-138 -304,-307l-2 0c2,169 -129,308 -295,316l0 0z"/>
    <path class="fil6" d="M25785 7873c166,3 301,137 304,304l3 0c-1,-168 130,-305 295,-313 -166,-3 -302,-138 -304,-307l-2 0c2,169 -129,308 -296,316l0 0z"/>
    <path class="fil6" d="M3005 6056c166,3 301,137 304,305l3 0c-2,-168 129,-306 295,-314 -167,-3 -302,-138 -305,-307l-2 0c3,169 -129,308 -295,316l0 0z"/>
    <path class="fil6" d="M32878 65311c250,-8 451,-213 452,-467l4 0c2,254 203,459 453,467 -251,9 -453,215 -453,471l-3 0c-1,-256 -202,-462 -453,-471l0 0z"/>
    <path class="fil6" d="M9818 75793c250,-8 451,-213 452,-467l4 0c2,254 203,459 453,467 -251,9 -453,215 -453,470l-3 0c0,-255 -202,-461 -453,-470l0 0z"/>
    <path class="fil6" d="M3116 75512c250,-9 451,-214 453,-468l4 0c1,254 202,459 452,468 -251,8 -453,215 -453,470l-3 0c0,-255 -202,-462 -453,-470l0 0z"/>
    <path class="fil6" d="M6462 98694c361,-12 651,-308 653,-675l6 0c2,367 292,663 653,675 -363,12 -654,310 -654,679l-5 0c0,-369 -291,-667 -653,-679l0 0z"/>
    <path class="fil6" d="M14702 57076c166,3 300,137 304,305l3 0c-2,-168 129,-306 295,-314 -167,-3 -302,-138 -305,-307l-2 0c3,169 -129,308 -295,316l0 0z"/>
    <path class="fil6" d="M9637 30975c166,3 300,137 304,305l3 0c-2,-168 129,-306 295,-314 -167,-3 -302,-138 -305,-307l-2 0c2,169 -129,308 -295,316l0 0z"/>
    <path class="fil6" d="M45476 33904c165,3 300,136 304,304l2 0c-1,-168 130,-305 295,-313 -166,-3 -302,-138 -304,-307l-2 0c2,169 -129,308 -295,316l0 0z"/>
    <path class="fil6" d="M51623 33904c165,3 300,137 304,304l2 0c-1,-168 130,-305 295,-313 -166,-3 -301,-138 -304,-307l-2 0c2,169 -129,308 -295,316l0 0z"/>
    <path class="fil6" d="M51060 41280c166,3 301,137 304,305l3 0c-1,-168 129,-306 295,-314 -167,-3 -302,-138 -304,-307l-3 1c3,169 -129,307 -295,315l0 0z"/>
    <path class="fil6" d="M56794 45504c165,3 300,136 304,304l2 0c-1,-168 130,-305 295,-313 -166,-3 -301,-138 -304,-307l-2 0c2,169 -129,308 -295,316l0 0z"/>
    <path class="fil6" d="M49781 50088c166,3 301,137 304,305l3 0c-2,-168 129,-306 295,-314 -167,-3 -302,-138 -305,-306l-2 0c3,169 -129,307 -295,315l0 0z"/>
    <path class="fil6" d="M29817 42817c166,4 301,137 304,305l3 0c-2,-168 129,-305 295,-313 -167,-3 -302,-138 -305,-307l-2 0c3,169 -129,307 -295,315l0 0z"/>
    <path class="fil6" d="M26764 33868c166,3 300,136 304,304l2 0c-1,-168 130,-305 295,-313 -166,-3 -301,-138 -304,-307l-2 0c2,169 -129,308 -295,316l0 0z"/>
    <path class="fil6" d="M25366 23526c166,3 301,136 304,304l3 0c-2,-168 129,-305 295,-313 -167,-3 -302,-138 -304,-307l-3 0c3,169 -129,308 -295,316l0 0z"/>
    <path class="fil6" d="M26484 26880c166,3 301,137 304,304l3 0c-1,-168 129,-305 295,-313 -167,-3 -302,-138 -304,-307l-3 0c3,169 -129,308 -295,316l0 0z"/>
    <path class="fil6" d="M20754 30653c166,3 301,137 304,305l3 0c-1,-168 129,-306 295,-314 -167,-3 -302,-138 -304,-306l-3 0c3,168 -129,307 -295,315l0 0z"/>
    <path class="fil6" d="M22990 39039c166,3 301,136 304,304l3 0c-1,-168 129,-305 295,-313 -166,-3 -302,-138 -304,-307l-2 0c2,169 -129,308 -296,316l0 0z"/>
    <path class="fil6" d="M69776 88001c250,-8 451,-213 452,-467l4 0c2,254 202,459 453,467 -251,9 -453,215 -453,471l-4 0c0,-256 -201,-462 -452,-471l0 0z"/>
    <path class="fil6" d="M61424 90889c250,-9 450,-214 452,-468l4 0c2,254 202,459 453,468 -252,8 -453,214 -453,470l-4 0c0,-256 -201,-462 -452,-470l0 0z"/>
    <path class="fil6" d="M45631 51058c250,-9 451,-214 453,-467l4 0c1,253 202,458 452,467 -251,8 -453,215 -453,470l-3 0c0,-255 -202,-462 -453,-470l0 0z"/>
    <path class="fil6" d="M48286 47564c251,-9 451,-214 453,-467l4 0c2,253 202,458 452,467 -251,8 -452,215 -452,470l-4 0c0,-255 -201,-462 -453,-470l0 0z"/>
    <path class="fil6" d="M58727 50361c251,-8 451,-213 453,-467l4 0c2,254 202,459 452,467 -251,9 -452,215 -452,471l-4 0c0,-256 -201,-462 -453,-471l0 0z"/>
    <path class="fil6" d="M65616 47005c251,-9 451,-214 453,-467l4 0c1,253 202,458 452,467 -251,8 -452,215 -452,470l-4 0c0,-255 -202,-462 -453,-470l0 0z"/>
    <path class="fil6" d="M59432 19331c250,-8 451,-213 452,-467l4 0c2,254 202,459 453,467 -252,9 -453,215 -453,470l-4 0c0,-255 -201,-461 -452,-470l0 0z"/>
    <path class="fil6" d="M52444 21428c250,-9 451,-214 452,-467l4 0c2,253 203,458 453,467 -251,8 -453,215 -453,470l-3 0c-1,-255 -202,-462 -453,-470l0 0z"/>
    <path class="fil6" d="M47834 17843c250,-8 451,-213 452,-467l4 0c2,254 203,459 453,467 -251,9 -453,215 -453,470l-3 0c-1,-255 -202,-461 -453,-470l0 0z"/>
    <path class="fil6" d="M39868 23853c250,-8 451,-213 452,-467l4 0c2,254 202,459 453,467 -252,8 -453,215 -453,470l-4 0c0,-255 -201,-462 -452,-470l0 0z"/>
    <path class="fil6" d="M36646 18776c250,-8 451,-213 452,-467l4 0c2,254 202,459 453,467 -252,9 -453,215 -453,470l-4 0c0,-255 -201,-461 -452,-470l0 0z"/>
    <path class="fil6" d="M29239 17658c250,-8 450,-213 452,-467l4 0c2,254 202,459 453,467 -252,9 -453,215 -453,470l-4 0c0,-255 -201,-461 -452,-470l0 0z"/>
    <path class="fil6" d="M32913 8991c250,-9 451,-214 453,-467l4 0c1,253 202,458 452,467 -251,8 -453,215 -453,470l-3 0c0,-255 -202,-462 -453,-470l0 0z"/>
    <path class="fil6" d="M32773 3680c251,-8 451,-213 453,-467l4 0c1,254 202,459 452,467 -251,8 -452,215 -452,470l-4 0c0,-255 -202,-462 -453,-470l0 0z"/>
    <path class="fil6" d="M19595 9832c251,-8 451,-213 453,-467l4 0c2,254 202,459 452,467 -251,8 -452,215 -452,470l-4 0c0,-255 -202,-462 -453,-470l0 0z"/>
    <path class="fil6" d="M6598 39460c250,-8 451,-213 452,-467l5 0c1,254 202,459 452,467 -251,9 -453,215 -453,471l-3 0c0,-256 -202,-462 -453,-471l0 0z"/>
    <path class="fil6" d="M65476 137847c166,3 301,137 305,305l2 0c-1,-168 130,-306 295,-314 -166,-3 -302,-138 -304,-307l-2 0c2,169 -129,308 -296,316l0 0z"/>
    <path class="fil6" d="M61687 112727c166,3 301,137 304,304l3 0c-1,-167 130,-305 295,-313 -166,-3 -302,-138 -304,-307l-2 0c2,169 -129,308 -296,316l0 0z"/>
    <path class="fil6" d="M36252 136625c165,3 300,137 304,305l2 0c-1,-168 130,-306 295,-314 -166,-3 -302,-137 -304,-306l-2 0c2,169 -129,307 -295,315l0 0z"/>
    <path class="fil6" d="M27726 114544c166,3 301,136 304,304l3 0c-1,-168 129,-305 295,-313 -166,-3 -302,-138 -304,-307l-2 0c2,169 -129,308 -296,316l0 0z"/>
    <path class="fil6" d="M51625 123069c166,3 300,137 304,305l3 -1c-2,-167 129,-305 295,-313 -167,-3 -302,-138 -305,-307l-2 0c2,169 -129,308 -295,316l0 0z"/>
    <path class="fil6" d="M30240 104621c166,3 300,137 304,305l2 0c-1,-168 130,-306 295,-314 -166,-3 -301,-138 -304,-307l-2 0c2,169 -129,308 -295,316l0 0z"/>
    <path class="fil6" d="M5636 143133c166,3 300,136 304,304l3 0c-2,-168 129,-305 295,-313 -167,-3 -302,-138 -305,-307l-2 0c3,169 -129,308 -295,316l0 0z"/>
    <path class="fil6" d="M16121 110180c166,4 300,137 304,305l3 0c-2,-168 129,-305 295,-313 -167,-3 -302,-138 -305,-307l-2 0c2,169 -129,307 -295,315l0 0z"/>
    <path class="fil6" d="M1006 99562c166,3 300,137 304,305l2 0c-1,-168 130,-306 295,-313 -166,-4 -301,-138 -304,-307l-2 0c2,169 -129,307 -295,315l0 0z"/>
    <path class="fil6" d="M7295 103475c166,4 300,137 304,305l3 0c-2,-168 129,-305 294,-313 -166,-3 -301,-138 -304,-307l-2 0c2,169 -129,307 -295,315l0 0z"/>
    <path class="fil6" d="M17513 103442c165,3 300,136 304,304l2 0c-1,-168 130,-305 295,-313 -166,-3 -301,-138 -304,-307l-2 0c2,169 -129,308 -295,316l0 0z"/>
    <path class="fil6" d="M27296 107914c165,3 300,137 304,304l2 0c-1,-167 130,-305 295,-313 -166,-3 -301,-138 -304,-307l-2 0c2,169 -129,308 -295,316l0 0z"/>
    <path class="fil6" d="M43228 110150c166,3 300,137 304,305l3 0c-2,-168 129,-306 295,-314 -167,-3 -302,-138 -305,-307l-2 0c3,169 -129,308 -295,316l0 0z"/>
    <path class="fil6" d="M50495 114482c166,3 301,137 304,305l3 0c-1,-168 129,-306 295,-313 -166,-4 -302,-138 -304,-307l-2 0c2,169 -129,307 -296,315l0 0z"/>
    <path class="fil6" d="M57763 118815c165,3 300,137 304,305l2 -1c-1,-167 130,-305 295,-313 -166,-3 -301,-138 -304,-307l-2 0c2,169 -129,308 -295,316l0 0z"/>
    <path class="fil6" d="M65030 123147c166,3 301,137 304,305l3 0c-2,-168 129,-306 295,-313 -167,-4 -302,-138 -305,-307l-2 0c3,169 -129,307 -295,315l0 0z"/>
    <path class="fil6" d="M45729 120937c250,-8 451,-213 452,-467l4 0c2,254 203,459 453,467 -251,8 -453,215 -453,470l-4 0c0,-255 -201,-462 -452,-470l0 0z"/>
    <path class="fil6" d="M38887 90049c251,-9 451,-214 453,-468l4 0c2,254 202,459 452,468 -251,8 -452,214 -452,470l-4 0c0,-256 -201,-462 -453,-470l0 0z"/>
    <path class="fil6" d="M32046 59160c250,-8 451,-213 453,-467l4 0c1,254 202,459 452,467 -251,8 -453,215 -453,470l-3 0c0,-255 -202,-462 -453,-470l0 0z"/>
    <path class="fil6" d="M10391 121780c166,3 300,137 304,305l3 0c-2,-168 129,-306 295,-313 -167,-4 -302,-138 -305,-307l-2 0c2,169 -129,307 -295,315l0 0z"/>
    <path class="fil6" d="M23109 124436c166,3 300,137 304,304l2 0c-1,-167 130,-305 295,-313 -166,-3 -301,-138 -304,-307l-2 0c2,169 -129,308 -295,316l0 0z"/>
    <path class="fil6" d="M35827 127091c165,3 300,137 304,305l2 0c-1,-168 130,-306 295,-314 -166,-3 -301,-138 -304,-306l-2 0c2,168 -129,307 -295,315l0 0z"/>
    <path class="fil6" d="M48545 129746c165,4 300,137 304,305l2 0c-1,-168 130,-305 295,-313 -166,-3 -302,-138 -304,-307l-2 0c2,169 -129,308 -295,315l0 0z"/>
    <path class="fil6" d="M44069 131672c166,4 301,137 304,305l3 0c-2,-168 129,-305 295,-313 -167,-3 -302,-138 -304,-307l-3 0c3,169 -129,307 -295,315l0 0z"/>
    <path class="fil6" d="M35268 124436c165,3 300,137 304,304l2 0c-1,-167 130,-305 295,-313 -166,-3 -301,-138 -304,-307l-2 0c2,169 -129,308 -295,316l0 0z"/>
    <path class="fil6" d="M67852 128623c166,3 301,137 304,305l3 0c-1,-168 130,-306 295,-314 -166,-3 -302,-138 -304,-307l-2 0c2,169 -129,308 -296,316l0 0z"/>
    <path class="fil6" d="M57231 134213c166,3 300,137 304,305l3 0c-2,-168 129,-306 295,-313 -167,-4 -302,-138 -305,-307l-2 0c2,169 -129,307 -295,315l0 0z"/>
    <path class="fil6" d="M55973 125409c166,3 301,136 304,304l3 0c-2,-168 129,-305 295,-313 -167,-3 -302,-138 -305,-307l-2 0c3,169 -129,308 -295,316l0 0z"/>
    <path class="fil6" d="M48147 126666c165,3 300,137 304,305l2 0c-1,-168 130,-305 295,-313 -166,-4 -301,-138 -304,-307l-2 0c2,169 -129,307 -295,315l0 0z"/>
    <path class="fil6" d="M49265 142739c165,3 300,136 304,304l2 0c-1,-168 130,-305 295,-313 -166,-3 -301,-138 -304,-307l-2 0c2,169 -129,308 -295,316l0 0z"/>
    <path class="fil6" d="M29978 148748c166,3 301,137 304,305l3 0c-1,-168 129,-306 295,-314 -167,-3 -302,-138 -304,-307l-3 0c3,169 -129,308 -295,316l0 0z"/>
    <path class="fil6" d="M29419 138266c166,3 301,137 304,305l3 0c-2,-168 129,-306 295,-314 -167,-3 -302,-137 -304,-306l-3 0c3,169 -129,307 -295,315l0 0z"/>
    <path class="fil6" d="M17260 145673c166,3 301,137 304,305l3 0c-1,-168 129,-305 295,-313 -166,-4 -302,-138 -304,-307l-3 0c3,169 -129,307 -295,315l0 0z"/>
    <path class="fil6" d="M17540 133934c166,3 300,137 304,305l2 -1c-1,-167 130,-305 295,-313 -166,-3 -301,-138 -304,-307l-2 0c2,169 -129,308 -295,316l0 0z"/>
    <path class="fil6" d="M113532 43015c250,-9 451,-214 452,-467l4 0c2,253 202,458 453,467 -252,8 -453,215 -453,470l-4 0c0,-255 -201,-462 -452,-470l0 0z"/>
    <path class="fil6" d="M58628 104445c166,3 301,137 304,305l3 0c-1,-168 129,-306 295,-314 -166,-3 -302,-138 -304,-307l-2 0c2,169 -129,308 -296,316l0 0z"/>
    <path class="fil6" d="M30102 93580c166,3 301,137 304,305l3 0c-1,-168 129,-306 295,-314 -167,-3 -302,-138 -304,-307l-3 0c3,169 -129,308 -295,316l0 0z"/>
    <path class="fil6" d="M31500 90505c166,3 300,137 304,305l2 0c-1,-168 130,-306 295,-313 -166,-4 -301,-138 -304,-307l-2 0c2,169 -129,307 -295,315l0 0z"/>
    <path class="fil6" d="M22555 79045c166,3 301,137 304,305l3 0c-1,-168 129,-306 295,-314 -166,-3 -302,-137 -304,-306l-2 0c2,169 -129,307 -296,315l0 0z"/>
    <path class="fil6" d="M30429 51648c166,3 300,137 304,305l3 0c-2,-168 129,-306 295,-314 -167,-3 -302,-137 -305,-306l-2 0c2,169 -129,307 -295,315l0 0z"/>
    <path class="fil6" d="M713 46364c166,3 300,137 304,305l3 0c-2,-168 129,-306 295,-314 -167,-3 -302,-138 -305,-307l-2 1c3,168 -129,307 -295,315l0 0z"/>
    <path class="fil6" d="M84288 45386c-250,-9 -451,-214 -453,-467l-4 0c-1,253 -202,458 -452,467 251,8 453,215 453,470l3 0c0,-255 202,-462 453,-470l0 0z"/>
    <path class="fil6" d="M109724 47622c-166,3 -301,137 -304,305l-3 0c1,-168 -129,-306 -295,-314 167,-3 302,-138 304,-307l3 0c-3,169 129,308 295,316l0 0z"/>
    <path class="fil6" d="M97359 19999c-166,3 -300,136 -304,304l-3 0c2,-168 -129,-305 -295,-313 167,-3 302,-138 305,-307l2 0c-3,169 129,308 295,316l0 0z"/>
    <path class="fil6" d="M77827 26899c-165,3 -300,137 -304,304l-2 0c1,-168 -130,-305 -295,-313 166,-3 301,-138 304,-307l2 0c-2,169 129,308 295,316l0 0z"/>
    <path class="fil6" d="M93248 34800c-166,3 -300,137 -304,305l-3 0c2,-168 -129,-306 -295,-313 167,-4 302,-138 305,-307l2 0c-2,169 129,307 295,315l0 0z"/>
    <path class="fil6" d="M77719 13801c-165,3 -300,136 -304,304l-2 0c1,-168 -130,-305 -295,-313 166,-3 301,-138 304,-307l2 0c-2,169 129,308 295,316l0 0z"/>
    <path class="fil6" d="M92004 1746c-166,3 -300,137 -304,305l-3 0c2,-168 -129,-306 -295,-314 167,-3 302,-138 305,-307l2 0c-2,169 129,308 295,316l0 0z"/>
    <path class="fil6" d="M76905 4831c-165,3 -300,137 -304,305l-2 0c1,-168 -130,-306 -295,-314 166,-3 301,-138 304,-307l2 0c-2,169 129,308 295,316l0 0z"/>
    <path class="fil6" d="M77859 40494c-166,3 -300,137 -304,305l-3 0c2,-168 -129,-306 -295,-313 167,-4 302,-138 305,-307l2 0c-2,169 129,307 295,315l0 0z"/>
    <path class="fil6" d="M91276 50138c-166,3 -301,136 -304,304l-3 0c1,-168 -129,-305 -295,-313 167,-3 302,-138 304,-307l3 0c-3,169 129,308 295,316l0 0z"/>
    <path class="fil6" d="M99382 39656c-166,3 -301,137 -304,304l-3 0c1,-167 -129,-305 -295,-313 166,-3 302,-138 304,-307l3 0c-3,169 129,308 295,316l0 0z"/>
    <path class="fil6" d="M96587 24841c-166,4 -301,137 -304,305l-3 0c1,-168 -130,-305 -295,-313 166,-3 302,-138 304,-307l2 0c-2,169 129,307 296,315l0 0z"/>
    <path class="fil6" d="M87658 20825c-166,3 -301,136 -304,304l-3 0c2,-168 -129,-305 -295,-313 167,-3 302,-138 304,-307l3 0c-3,169 129,308 295,316l0 0z"/>
    <path class="fil6" d="M81511 20825c-166,3 -301,136 -304,304l-3 0c1,-168 -129,-305 -295,-313 166,-3 302,-138 304,-307l3 0c-3,169 128,308 295,316l0 0z"/>
    <path class="fil6" d="M82073 28201c-166,3 -300,137 -304,305l-3 0c2,-168 -129,-306 -295,-314 167,-3 302,-138 305,-307l2 1c-2,168 129,307 295,315l0 0z"/>
    <path class="fil6" d="M76340 32424c-166,4 -301,137 -304,305l-3 0c1,-168 -129,-305 -295,-313 166,-3 302,-138 304,-307l2 0c-2,169 129,307 296,315l0 0z"/>
    <path class="fil6" d="M83352 37009c-165,3 -300,137 -304,305l-2 0c1,-168 -130,-306 -295,-314 166,-3 301,-138 304,-306l2 0c-2,168 129,307 295,315l0 0z"/>
    <path class="fil6" d="M103316 29738c-166,3 -300,137 -304,305l-2 0c1,-168 -130,-305 -295,-313 166,-4 301,-138 304,-307l2 0c-2,169 129,307 295,315l0 0z"/>
    <path class="fil6" d="M106370 20789c-166,3 -301,136 -304,304l-3 0c1,-168 -129,-305 -295,-313 166,-3 302,-138 304,-307l2 0c-2,169 129,308 296,316l0 0z"/>
    <path class="fil6" d="M107767 10446c-166,4 -300,137 -304,305l-2 0c1,-168 -130,-305 -295,-313 166,-3 301,-138 304,-307l2 0c-2,169 129,307 295,315l0 0z"/>
    <path class="fil6" d="M106649 13801c-166,3 -300,136 -304,304l-3 0c2,-168 -129,-305 -295,-313 167,-3 302,-138 305,-307l2 0c-2,169 129,308 295,316l0 0z"/>
    <path class="fil6" d="M112379 17574c-166,3 -300,137 -304,305l-3 0c2,-168 -129,-306 -295,-314 167,-3 302,-138 305,-307l2 1c-2,168 129,307 295,315l0 0z"/>
    <path class="fil6" d="M110143 25960c-166,3 -300,136 -304,304l-3 0c2,-168 -129,-305 -295,-313 167,-3 302,-138 305,-307l2 0c-3,169 129,308 295,316l0 0z"/>
    <path class="fil6" d="M87502 37979c-250,-9 -451,-214 -452,-468l-4 0c-2,254 -202,459 -453,468 252,8 453,215 453,470l4 0c0,-255 201,-462 452,-470l0 0z"/>
    <path class="fil6" d="M84847 34485c-250,-9 -451,-214 -453,-467l-4 0c-1,253 -202,458 -452,467 251,8 453,215 453,470l3 0c0,-255 202,-462 453,-470l0 0z"/>
    <path class="fil6" d="M74406 37282c-250,-8 -451,-213 -453,-467l-4 0c-1,254 -202,459 -452,467 251,9 453,215 453,471l3 0c0,-256 202,-462 453,-471l0 0z"/>
    <path class="fil6" d="M73702 6252c-251,-8 -451,-213 -453,-467l-4 0c-1,254 -202,459 -452,467 251,9 452,215 452,470l4 0c0,-255 201,-461 453,-470l0 0z"/>
    <path class="fil6" d="M80690 8349c-251,-9 -451,-214 -453,-468l-4 0c-2,254 -202,459 -453,468 252,8 453,215 453,470l4 0c0,-255 201,-462 453,-470l0 0z"/>
    <path class="fil6" d="M85300 4764c-251,-8 -451,-213 -453,-467l-4 0c-2,254 -202,459 -453,467 252,9 453,215 453,470l4 0c0,-255 201,-461 453,-470l0 0z"/>
    <path class="fil6" d="M93266 10774c-251,-8 -451,-213 -453,-467l-4 0c-1,254 -202,459 -452,467 251,8 452,215 452,470l4 0c0,-255 202,-462 453,-470l0 0z"/>
    <path class="fil6" d="M96488 5697c-251,-8 -451,-213 -453,-467l-4 0c-2,254 -202,459 -452,467 251,9 452,215 452,470l4 0c0,-255 201,-461 453,-470l0 0z"/>
    <path class="fil6" d="M103895 4579c-250,-8 -451,-213 -453,-467l-4 0c-1,254 -202,459 -452,467 251,9 453,215 453,470l3 0c0,-255 202,-461 453,-470l0 0z"/>
    <path class="fil6" d="M101087 46081c-250,-8 -451,-213 -452,-467l-4 0c-2,254 -202,459 -453,467 252,8 453,215 453,470l4 0c0,-255 201,-462 452,-470l0 0z"/>
    <path class="fil6" d="M102704 38569c-165,3 -300,137 -304,305l-2 0c1,-168 -130,-306 -295,-314 166,-3 302,-138 304,-306l2 0c-2,169 129,307 295,315l0 0z"/>
    <path class="fil6" d="M120489 8894c-166,3 -301,137 -304,305l-3 0c1,-168 -130,-306 -295,-314 166,-3 302,-137 304,-306l2 0c-2,169 129,307 296,315l0 0z"/>
    <path class="fil6" d="M120978 21472c-166,3 -301,137 -304,305l-3 0c1,-168 -129,-305 -295,-313 166,-4 302,-138 304,-307l3 0c-3,169 128,307 295,315l0 0z"/>
    <path class="fil6" d="M149069 14554c-166,3 -301,137 -304,305l-3 0c2,-168 -129,-305 -295,-313 167,-4 302,-138 305,-307l2 0c-3,169 129,307 295,315l0 0z"/>
    <path class="fil6" d="M131341 4069c-166,3 -301,136 -305,304l-2 0c1,-168 -130,-305 -295,-313 166,-3 302,-138 304,-307l2 0c-2,169 129,308 296,316l0 0z"/>
    <path class="fil6" d="M128688 13921c-166,4 -301,137 -304,305l-3 0c1,-168 -129,-305 -295,-313 167,-3 302,-138 304,-307l3 0c-3,169 129,308 295,315l0 0z"/>
    <path class="fil6" d="M112750 33309c-166,3 -301,136 -304,304l-3 0c1,-168 -129,-305 -295,-313 166,-3 302,-138 304,-307l2 0c-2,169 129,308 296,316l0 0z"/>
    <path class="fil6" d="M124769 37012c-166,3 -301,137 -304,305l-3 0c1,-168 -129,-306 -295,-314 167,-3 302,-138 304,-307l3 0c-3,169 129,308 295,316l0 0z"/>
    <path class="fil6" d="M136788 40716c-166,3 -301,136 -304,304l-3 0c2,-168 -129,-305 -295,-313 167,-3 302,-138 304,-307l3 0c-3,169 129,308 295,316l0 0z"/>
    <path class="fil6" d="M148807 44419c-166,3 -301,137 -304,305l-3 0c2,-168 -129,-306 -295,-314 167,-3 302,-137 305,-306l2 0c-3,169 129,307 295,315l0 0z"/>
    <path class="fil6" d="M141674 57934c-166,-3 -301,-137 -304,-305l-3 0c1,168 -129,306 -295,314 167,3 302,138 304,307l3 0c-3,-169 129,-308 295,-316l0 0z"/>
    <path class="fil6" d="M81387 91231c251,-8 451,-213 453,-467l4 0c2,254 202,459 453,467 -252,8 -453,215 -453,470l-4 0c0,-255 -201,-462 -453,-470l0 0z"/>
    <path class="fil6" d="M75518 75299c250,-9 451,-214 452,-468l4 0c2,254 202,459 453,468 -252,8 -453,215 -453,470l-4 0c0,-255 -201,-462 -452,-470l0 0z"/>
    <path class="fil6" d="M105063 127983c-166,-3 -300,-137 -304,-305l-3 1c2,167 -129,305 -295,313 167,3 302,138 305,307l2 0c-3,-169 129,-308 295,-316l0 0z"/>
    <path class="fil6" d="M105199 118170c-165,-4 -300,-137 -304,-305l-2 0c1,168 -130,305 -295,313 166,3 301,138 304,307l2 0c-2,-169 129,-307 295,-315l0 0z"/>
    <path class="fil6" d="M118057 113278c-166,-3 -300,-137 -304,-305l-3 0c2,168 -129,306 -295,314 167,3 302,138 305,307l2 0c-3,-169 129,-308 295,-316l0 0z"/>
    <path class="fil6" d="M106734 105591c-165,-3 -300,-136 -303,-304l-3 0c1,168 -130,305 -295,313 166,3 302,138 304,307l2 0c-2,-169 129,-308 296,-316l-1 0z"/>
    <path class="fil6" d="M84284 87039c135,75 307,30 388,-104l2 1c-79,135 -38,308 93,391 -137,-75 -309,-29 -390,106l-2 -1c81,-135 40,-309 -91,-393l0 0z"/>
    <path class="fil6" d="M88630 90399c136,75 307,30 388,-105l3 2c-80,135 -38,307 92,391 -136,-75 -309,-29 -389,106l-2 -1c80,-135 39,-309 -92,-393l0 0z"/>
    <path class="fil6" d="M82195 95175c135,75 307,30 388,-104l2 1c-79,135 -38,308 92,392 -136,-76 -308,-30 -389,106l-2 -2c81,-135 39,-309 -91,-393l0 0z"/>
    <path class="fil6" d="M72551 100416c136,75 307,30 389,-104l2 1c-80,135 -38,308 92,391 -136,-75 -308,-29 -389,106l-2 -1c81,-135 39,-309 -92,-393l0 0z"/>
    <path class="fil6" d="M72971 106076c135,75 307,30 388,-104l2 1c-79,135 -38,308 92,392 -136,-76 -308,-30 -389,106l-2 -1c81,-136 39,-309 -91,-394l0 0z"/>
    <path class="fil6" d="M84841 106394c135,75 307,30 388,-104l2 1c-79,135 -38,308 92,391 -136,-75 -308,-29 -389,107l-2 -2c81,-135 40,-309 -91,-393l0 0z"/>
    <path class="fil6" d="M97327 99924c135,75 307,29 388,-105l2 1c-80,136 -38,308 92,392 -136,-75 -308,-30 -389,106l-2 -1c81,-136 39,-309 -91,-393l0 0z"/>
    <path class="fil6" d="M8225 63770c166,3 300,137 304,305l3 0c-2,-168 129,-306 295,-314 -167,-3 -302,-138 -305,-307l-2 0c3,169 -129,308 -295,316l0 0z"/>
    <path class="fil6" d="M4688 107942c166,3 301,137 304,305l3 0c-1,-168 129,-306 295,-314 -166,-3 -302,-138 -304,-307l-2 0c2,169 -129,308 -296,316l0 0z"/>
    <path class="fil6" d="M3431 115489c165,3 300,137 304,305l2 0c-1,-168 130,-306 295,-314 -166,-3 -302,-138 -304,-307l-2 0c2,169 -129,308 -295,316l0 0z"/>
    <path class="fil6" d="M14192 115489c166,3 300,137 304,305l3 0c-2,-168 129,-306 295,-314 -167,-3 -302,-138 -305,-307l-2 0c2,169 -129,308 -295,316l0 0z"/>
    <path class="fil6" d="M20730 114131c165,3 300,137 304,305l2 0c-1,-168 130,-306 295,-314 -166,-3 -302,-137 -304,-306l-2 0c2,169 -129,307 -296,315l1 0z"/>
    <path class="fil6" d="M28836 116559c166,3 300,137 304,305l3 0c-2,-168 129,-306 295,-314 -167,-3 -302,-138 -305,-307l-2 0c3,169 -129,308 -295,316l0 0z"/>
    <path class="fil6" d="M31526 112506c166,3 301,137 304,305l3 0c-1,-168 129,-306 295,-314 -166,-3 -302,-138 -304,-307l-2 1c2,168 -129,307 -296,315l0 0z"/>
    <path class="fil6" d="M37098 117582c166,3 301,137 304,305l3 0c-1,-168 130,-306 295,-314 -166,-3 -302,-138 -304,-307l-2 0c2,169 -129,308 -296,316l0 0z"/>
    <path class="fil6" d="M4938 131024c165,3 300,137 303,305l3 0c-1,-168 130,-306 295,-314 -166,-3 -302,-138 -304,-307l-2 0c2,169 -129,308 -296,316l1 0z"/>
    <path class="fil6" d="M269559 17839c-250,9 -450,214 -452,468l-4 0c-2,-254 -202,-459 -453,-468 252,-8 453,-214 453,-470l4 0c0,255 201,462 452,470l0 0z"/>
    <path class="fil6" d="M1604 14384c-250,9 -451,214 -452,468l-4 0c-2,-254 -202,-459 -453,-468 252,-8 453,-214 453,-470l4 0c0,256 201,462 452,470l0 0z"/>
    <path class="fil6" d="M62410 150551c166,3 301,137 304,305l3 0c-1,-168 129,-306 295,-314 -166,-3 -302,-138 -304,-307l-2 0c2,169 -129,308 -296,316l0 0z"/>
    <path class="fil6" d="M113252 149135c166,3 300,137 304,305l2 0c-1,-168 130,-306 295,-314 -166,-3 -301,-137 -304,-306l-2 0c2,169 -129,307 -295,315l0 0z"/>
    <path class="fil6" d="M177805 151070c166,3 300,137 304,305l3 0c-2,-168 129,-306 295,-314 -167,-3 -302,-138 -305,-307l-2 0c2,169 -129,308 -295,316l0 0z"/>
    <path class="fil6" d="M265061 148709c166,3 301,136 304,304l3 0c-2,-168 129,-305 295,-313 -167,-3 -302,-138 -305,-307l-2 0c3,169 -129,308 -295,316l0 0z"/>
    <path class="fil6" d="M8180 150345c166,3 300,137 304,305l2 0c-1,-168 130,-306 295,-313 -166,-4 -301,-138 -304,-307l-2 0c2,169 -129,307 -295,315l0 0z"/>
    <path class="fil6" d="M13400 1847c166,3 301,137 304,304l3 0c-1,-168 130,-305 295,-313 -166,-3 -302,-138 -304,-307l-2 0c2,169 -129,308 -296,316l0 0z"/>
    <circle class="fil7" cx="94970" cy="52869" r="175"/>
    <circle class="fil7" cx="151205" cy="45583" r="175"/>
    <circle class="fil7" cx="209200" cy="17212" r="175"/>
    <circle class="fil7" cx="135215" cy="19276" r="175"/>
    <circle class="fil7" cx="64149" cy="101100" r="175"/>
    <circle class="fil7" cx="181023" cy="86012" r="175"/>
    <circle class="fil7" cx="224675" cy="70712" r="175"/>
    <circle class="fil7" cx="256630" cy="36989" r="175"/>
    <circle class="fil7" cx="196793" cy="96826" r="175"/>
    <circle class="fil7" cx="147862" cy="106259" r="175"/>
    <circle class="fil7" cx="180138" cy="107825" r="175"/>
    <circle class="fil7" cx="88762" cy="116963" r="175"/>
    <circle class="fil7" cx="47320" cy="105495" r="175"/>
   </g>
  </g>
 </g>
</svg>
