<?xml version="1.0" encoding="UTF-8"?>
<!DOCTYPE svg PUBLIC "-//W3C//DTD SVG 1.1//EN" "http://www.w3.org/Graphics/SVG/1.1/DTD/svg11.dtd">
<!-- Creator: CorelDRAW X7 -->
<svg xmlns="http://www.w3.org/2000/svg" xml:space="preserve" width="27.1654in" height="20.7964in" version="1.1" style="shape-rendering:geometricPrecision; text-rendering:geometricPrecision; image-rendering:optimizeQuality; fill-rule:evenodd; clip-rule:evenodd"
viewBox="0 0 271654 207964"
 xmlns:xlink="http://www.w3.org/1999/xlink">
 <defs>
  <style type="text/css">
   <![CDATA[
    .fil0 {fill:#DABD89}
    .fil6 {fill:#DDC493}
    .fil7 {fill:#DFC798}
    .fil5 {fill:#E4CEA7}
    .fil4 {fill:#EBDABB}
    .fil3 {fill:#EDDEC2}
    .fil2 {fill:#DFC798;fill-rule:nonzero}
    .fil1 {fill:#E7D4B1;fill-rule:nonzero}
   ]]>
  </style>
 </defs>
 <g id="Layer_x0020_1">
  <metadata id="CorelCorpID_0Corel-Layer"/>
  <g id="_1602779044768">
   <polygon class="fil0" points="0,0 271654,0 271654,207964 0,207964 "/>
   <g>
    <path class="fil1" d="M26415 198922c0,3353 -997,6460 -2712,9042l-23703 0 0 -21748c2772,-2209 6286,-3527 10116,-3527 9047,0 16299,7251 16299,16233z"/>
    <path class="fil2" d="M0 186216c2772,-2209 6286,-3527 10116,-3527 5056,0 9513,2262 12507,5788 0,0 -12308,-4657 -19826,2860 -1144,1145 -2062,2353 -2797,3579l0 -8700z"/>
    <path class="fil2" d="M6809 190424c1854,0 1854,2914 0,2914 -1943,0 -1943,-2914 0,-2914z"/>
    <path class="fil2" d="M0 204794c366,-97 787,8 1094,314 399,400 399,1131 0,1531 -266,266 -533,532 -799,731 -85,100 -186,178 -295,235l0 -2811z"/>
    <path class="fil2" d="M14428 205300c583,0 583,1192 0,1192 -610,0 -610,-1192 0,-1192z"/>
    <path class="fil3" d="M0 162913c41882,-22135 106089,-10239 113420,45051l-11298 0c-14424,-32004 -63613,-47679 -102122,-39205l0 -5846z"/>
    <path class="fil4" d="M0 83758c44648,20928 77922,1975 113402,-16134 47759,-24376 130328,-45390 158252,24930l0 68788c-24188,-41895 -57270,-59592 -93480,-63625 -67857,-7557 -121118,21602 -178174,-8113l0 -5846z"/>
    <path class="fil5" d="M0 88562c26508,13806 52358,11774 79246,6400 31858,-6369 64108,-14590 94398,-13095 47421,2340 80979,30985 98010,73808l0 52289 -159175 0c-11500,-46860 -69721,-58752 -112479,-44955l0 -74447z"/>
    <path class="fil6" d="M223026 175404c5730,13416 -7815,23465 -23456,26360 -31963,5916 -50721,-32503 -42515,-43242 7880,-10313 55554,-7508 65971,16882z"/>
    <path class="fil7" d="M31341 81771c-5151,-6795 175,-15217 7753,-19836 15486,-9440 31446,9581 28983,17411 -2366,7519 -27372,14780 -36736,2425z"/>
    <path class="fil7" d="M72922 69744c-2387,0 -4322,-1700 -4322,-3796 0,-2097 1935,-3796 4322,-3796 2388,0 4323,1699 4323,3796 0,2096 -1935,3796 -4323,3796z"/>
   </g>
  </g>
 </g>
</svg>
