<?xml version="1.0" encoding="UTF-8"?>
<!DOCTYPE svg PUBLIC "-//W3C//DTD SVG 1.1//EN" "http://www.w3.org/Graphics/SVG/1.1/DTD/svg11.dtd">
<!-- Creator: CorelDRAW X7 -->
<svg xmlns="http://www.w3.org/2000/svg" xml:space="preserve" width="2.1278in" height="0.673661in" version="1.1" style="shape-rendering:geometricPrecision; text-rendering:geometricPrecision; image-rendering:optimizeQuality; fill-rule:evenodd; clip-rule:evenodd"
viewBox="0 0 21278 6737"
 xmlns:xlink="http://www.w3.org/1999/xlink">
 <defs>
  <style type="text/css">
   <![CDATA[
    .fil2 {fill:#A38755}
    .fil0 {fill:#D2AE6D}
    .fil3 {fill:white}
    .fil1 {fill:white;fill-rule:nonzero}
   ]]>
  </style>
 </defs>
 <g id="Layer_x0020_1">
  <metadata id="CorelCorpID_0Corel-Layer"/>
  <g id="_1602794709360">
   <g id="_1742630770544">
    <path class="fil0" d="M3368 0l14542 0c1852,0 3368,1516 3368,3368 0,1852 -1515,3368 -3368,3368l-14542 0c-1852,0 -3368,-1515 -3368,-3367 0,-1853 1515,-3369 3368,-3369z"/>
    <path class="fil1" d="M3563 3833l-77 0c-84,0 -164,-36 -240,-111 -21,25 -45,45 -74,61 -29,17 -59,29 -92,38 -33,10 -66,17 -100,20 -34,4 -66,6 -97,6 -23,0 -48,-1 -73,-4 -24,-3 -52,-8 -83,-14 -32,-7 -67,-16 -108,-27 -40,-11 -88,-25 -144,-42l68 -225c38,15 78,28 119,39 41,12 81,22 120,29 39,7 77,12 112,14 37,2 68,2 97,-2 28,-4 53,-11 72,-21 20,-11 34,-25 40,-43 4,-7 5,-14 5,-20 0,-6 -1,-13 -5,-21 -3,-9 -9,-19 -16,-30 -9,-12 -18,-27 -30,-46l-335 -471 198 -128 337 511c19,28 38,57 58,86 20,30 40,57 60,81 21,25 40,44 59,60 19,16 36,24 52,24l77 0 0 236zm366 -235c12,0 22,3 28,10 7,6 10,15 10,26l0 161c0,14 -3,24 -10,30 -6,5 -16,8 -28,8l-395 0c-14,0 -24,-3 -29,-8 -6,-6 -9,-16 -9,-30l0 -161c0,-11 3,-20 9,-26 5,-7 15,-10 29,-10l395 0zm1000 0l0 235 -139 0c-54,0 -103,-7 -147,-21 -44,-15 -81,-37 -112,-65 -35,30 -76,51 -124,65 -49,14 -104,21 -166,21l-327 0 0 -235 327 0c39,0 69,-4 93,-11 23,-8 39,-16 51,-27 12,-10 20,-23 23,-36 3,-13 5,-26 5,-39l0 -306 235 0 0 299c0,29 6,51 19,67 12,16 26,28 43,36 16,8 31,13 47,14 16,2 27,3 33,3l139 0 0 0zm-383 754l-159 -160 157 -163 162 163 -160 160zm-396 1l-159 -160 155 -163 163 163 -159 160zm1524 -755l0 235 -59 0c-54,0 -103,-7 -147,-21 -44,-15 -81,-37 -111,-65 -36,30 -77,51 -126,65 -48,14 -103,21 -164,21l-168 0 0 -235 168 0c38,0 68,-4 92,-11 22,-8 40,-16 52,-27 11,-10 19,-23 22,-36 4,-13 5,-26 5,-39l0 -306 235 0 0 299c0,29 6,51 19,67 12,16 27,28 42,36 17,8 33,13 48,14 16,2 27,3 33,3l59 0 0 0zm-543 -855l169 -172 175 174 -173 172 -171 -174 0 0zm515 1090l0 -235 553 0c10,0 23,-1 42,-2 17,-1 34,-3 51,-7 17,-5 32,-10 44,-18 12,-8 19,-19 19,-33 0,-27 -10,-60 -31,-98 -20,-39 -47,-80 -79,-123 -32,-44 -68,-88 -109,-132 -39,-44 -79,-86 -118,-125 -39,-40 -77,-74 -111,-105 -35,-30 -63,-53 -84,-68l20 -213 822 -377 86 206 -693 305c25,24 52,50 81,80 30,30 62,61 93,94 31,33 63,68 94,103 31,35 60,71 88,106 27,37 52,72 73,105 22,34 38,66 50,96 10,27 19,53 23,77 4,25 6,47 6,67 0,25 -2,48 -7,66 -5,19 -10,35 -15,49 -8,17 -20,36 -35,58 -16,21 -38,41 -66,59 -28,18 -63,33 -106,46 -42,13 -94,19 -154,19l-537 0 0 0zm2929 509l-454 0c-52,0 -105,-5 -156,-15 -52,-9 -102,-23 -149,-43 -47,-19 -91,-43 -131,-73 -41,-30 -76,-66 -106,-106 -30,-41 -53,-87 -70,-139 -16,-52 -25,-109 -25,-173 0,-80 17,-154 48,-222 32,-68 78,-128 138,-179 31,-26 65,-50 101,-70 36,-19 73,-34 113,-46 -20,-23 -35,-47 -47,-71 -11,-24 -20,-46 -27,-68 -6,-22 -10,-42 -12,-60 -2,-19 -3,-36 -3,-50 0,-55 11,-108 34,-156 22,-48 52,-91 90,-127 37,-37 81,-65 131,-86 49,-21 101,-31 156,-31 36,0 68,4 98,12 30,7 59,17 87,31 28,13 56,28 83,45 28,18 57,36 86,55l-105 191c-40,-23 -72,-41 -97,-53 -25,-14 -46,-23 -63,-30 -17,-7 -32,-11 -45,-13 -13,-2 -28,-2 -44,-2 -21,0 -43,3 -65,11 -22,7 -42,18 -60,32 -18,15 -33,32 -44,52 -11,20 -17,43 -17,69 0,15 6,36 18,60 12,24 33,50 65,76l-2 -1c39,30 90,54 154,70 64,16 138,24 223,24l106 0 0 235 -558 0c-31,0 -65,7 -102,19 -38,11 -72,29 -104,54 -32,24 -59,55 -81,93 -22,38 -33,83 -33,136 0,51 9,93 26,129 18,35 40,64 67,87 27,23 57,41 90,54 33,13 65,23 95,30 30,6 58,10 83,12 25,0 43,1 54,1l454 0 0 236 0 0zm314 -237c50,0 95,-2 134,-5 40,-3 75,-8 106,-15 30,-7 56,-15 80,-26 23,-10 43,-22 60,-37 26,-21 46,-46 60,-75 13,-28 21,-66 24,-114l-146 0c-31,0 -63,-2 -96,-8 -33,-4 -65,-13 -95,-25 -30,-13 -58,-28 -85,-48 -27,-20 -51,-44 -70,-73 -20,-28 -36,-62 -47,-101 -12,-39 -18,-84 -18,-135 0,-43 4,-82 11,-115 8,-34 17,-64 29,-90 12,-25 25,-48 39,-67 15,-19 29,-36 42,-51 38,-38 81,-66 129,-87 47,-21 99,-31 154,-31 70,0 128,12 177,36 49,23 89,56 120,97 31,42 54,91 68,149 15,57 22,118 22,185l0 336c0,94 -14,172 -42,236 -29,64 -72,119 -129,165 -30,23 -61,43 -95,60 -34,16 -73,30 -114,41 -43,12 -90,20 -142,25 -52,6 -110,9 -176,9l0 -236 0 0zm311 -867c-53,0 -96,16 -127,50 -32,33 -47,85 -47,155 0,29 5,52 17,72 10,19 25,35 42,48 17,11 36,21 58,26 21,6 43,9 64,9l146 0 0 -129c0,-36 -3,-66 -8,-92 -6,-26 -14,-47 -23,-64 -9,-17 -19,-30 -31,-40 -12,-10 -23,-18 -34,-23 -11,-5 -22,-9 -32,-10 -10,-2 -18,-2 -25,-2l0 0zm1294 595l-36 0c-26,0 -50,-2 -74,-5 -23,-3 -45,-12 -67,-26 -7,81 -26,155 -55,221 -30,66 -70,123 -120,170 -49,46 -108,83 -177,109 -68,25 -146,39 -231,39l-118 0 0 -236 118 0c60,0 113,-6 157,-18 44,-13 80,-33 109,-61 28,-28 49,-64 63,-108 14,-45 21,-99 21,-163l0 -575 235 0 0 283c0,29 6,52 18,70 13,17 27,31 43,40 16,10 31,17 47,20 15,3 25,5 31,5l36 0 0 235 0 0zm359 -235c12,0 22,3 29,10 6,6 10,15 10,26l0 161c0,14 -4,24 -10,30 -7,5 -17,8 -29,8l-395 0c-14,0 -24,-3 -30,-8 -5,-6 -8,-16 -8,-30l0 -161c0,-11 3,-20 8,-26 6,-7 16,-10 30,-10l395 0zm391 0c13,0 22,3 29,10 7,6 10,15 10,26l0 161c0,14 -3,24 -10,30 -7,5 -16,8 -29,8l-395 0c-14,0 -24,-3 -29,-8 -6,-6 -9,-16 -9,-30l0 -161c0,-11 3,-20 9,-26 5,-7 15,-10 29,-10l395 0zm702 233c-115,0 -207,-30 -274,-90 -34,32 -73,56 -115,70 -42,15 -86,22 -131,22l-212 0 0 -235 212 0c8,0 19,-2 33,-4 14,-3 28,-9 43,-18 14,-10 26,-25 37,-44 11,-19 16,-46 16,-80l0 -4 0 -268 236 0 0 268c0,52 11,90 36,113 24,24 64,36 119,36 8,0 19,-2 33,-4 14,-3 29,-10 42,-20 15,-10 27,-25 38,-45 10,-20 16,-46 16,-80l0 -268 234 0 0 268c0,52 12,90 37,115 25,24 66,36 122,36 8,0 19,-2 34,-5 14,-4 28,-11 41,-21 14,-10 27,-26 37,-45 10,-20 15,-47 15,-80 0,-13 -1,-30 -4,-50 -2,-19 -5,-40 -8,-62 -3,-22 -8,-44 -12,-66 -5,-22 -9,-44 -13,-64 -5,-20 -9,-38 -13,-54 -4,-17 -7,-30 -10,-39l222 -73c1,4 4,15 8,30 4,16 8,36 14,59 5,23 10,49 16,77 5,29 11,57 15,86 5,29 9,57 12,84 3,28 5,52 5,72 0,65 -10,121 -32,169 -21,49 -48,88 -82,120 -34,32 -72,56 -115,71 -43,16 -86,24 -130,25 -117,0 -210,-31 -278,-93 -35,32 -73,56 -115,70 -42,14 -85,21 -129,21l0 0zm223 -1069l-161 163 -160 -161 160 -162 161 160zm406 -3l-159 160 -166 -159 163 -162 162 161zm-209 -267l-151 151 -150 -149 152 -151 149 149z"/>
    <polygon class="fil2" points="14402,975 14207,975 14207,5762 14402,5762 "/>
    <polygon class="fil3" points="14109,975 14207,975 14207,5762 14109,5762 "/>
    <path class="fil3" d="M16786 3429l0 0 0 -121 0 0 0 -14 2158 0 -810 -809 105 -106 990 990 -990 990 -105 -106 810 -811 -2158 0 0 -13zm-1161 -60c0,-637 247,-1236 697,-1686 451,-450 1048,-698 1685,-697 637,0 1234,247 1685,698 450,449 697,1048 697,1685 0,636 -247,1235 -697,1684 -451,450 -1048,698 -1685,698 -637,1 -1234,-248 -1685,-697 -450,-450 -697,-1049 -697,-1685zm4616 0c0,-597 -233,-1158 -654,-1580 -423,-422 -983,-654 -1580,-654 -597,0 -1157,232 -1579,654 -422,422 -655,983 -655,1580 0,597 233,1157 655,1579 422,422 982,654 1579,654 597,0 1157,-232 1580,-654 422,-422 654,-982 654,-1579z"/>
   </g>
  </g>
 </g>
</svg>
