<?xml version="1.0" encoding="UTF-8"?>
<!DOCTYPE svg PUBLIC "-//W3C//DTD SVG 1.1//EN" "http://www.w3.org/Graphics/SVG/1.1/DTD/svg11.dtd">
<!-- Creator: CorelDRAW X7 -->
<svg xmlns="http://www.w3.org/2000/svg" xml:space="preserve" width="27.1654in" height="16.3401in" version="1.1" style="shape-rendering:geometricPrecision; text-rendering:geometricPrecision; image-rendering:optimizeQuality; fill-rule:evenodd; clip-rule:evenodd"
viewBox="0 0 271654 163401"
 xmlns:xlink="http://www.w3.org/1999/xlink">
 <defs>
  <style type="text/css">
   <![CDATA[
    .fil5 {fill:#E6D4AF}
    .fil4 {fill:#ECDDC1}
    .fil8 {fill:#F1E8D8}
    .fil3 {fill:#F6EFE2}
    .fil6 {fill:#F6EFE3}
    .fil7 {fill:#F8F1E6}
    .fil2 {fill:#ECDDC1;fill-rule:nonzero}
    .fil1 {fill:#F1E8D5;fill-rule:nonzero}
    .fil0 {fill:#F6EFE3;fill-rule:nonzero}
   ]]>
  </style>
 </defs>
 <g id="Layer_x0020_1">
  <metadata id="CorelCorpID_0Corel-Layer"/>
  <g id="_1602613857632">
   <g>
    <path class="fil0" d="M26415 154359c0,3353 -997,6460 -2712,9042l-23703 0 0 -21748c2772,-2208 6286,-3527 10116,-3527 9047,0 16299,7251 16299,16233z"/>
    <path class="fil1" d="M0 141653c2772,-2208 6286,-3527 10116,-3527 5056,0 9513,2262 12507,5788 0,0 -12308,-4657 -19826,2860 -1144,1145 -2062,2353 -2797,3579l0 -8700z"/>
    <path class="fil2" d="M6809 145861c1854,0 1854,2914 0,2914 -1943,0 -1943,-2914 0,-2914z"/>
    <path class="fil2" d="M0 160231c366,-97 787,8 1094,314 399,400 399,1131 0,1531 -266,266 -533,532 -799,731 -85,100 -186,178 -295,235l0 -2811z"/>
    <path class="fil2" d="M14428 160737c583,0 583,1192 0,1192 -610,0 -610,-1192 0,-1192z"/>
    <path class="fil3" d="M0 118350c41882,-22135 106089,-10239 113420,45051l-11298 0c-14424,-32004 -63613,-47679 -102122,-39205l0 -5846z"/>
    <path class="fil3" d="M0 39195c44648,20928 77922,1975 113402,-16134 47759,-24376 130328,-45389 158252,24930l0 68788c-24188,-41894 -57270,-59592 -93480,-63624 -67857,-7558 -121118,21601 -178174,-8114l0 -5846z"/>
    <path class="fil4" d="M0 43999c26508,13806 52358,11775 79246,6400 31858,-6369 64108,-14589 94398,-13095 47421,2340 80979,30985 98010,73808l0 52289 -159175 0c-11500,-46860 -69721,-58751 -112479,-44955l0 -74447z"/>
    <path class="fil5" d="M223026 130841c5730,13416 -7815,23465 -23456,26360 -31963,5916 -50721,-32502 -42515,-43242 7880,-10313 55554,-7508 65971,16882z"/>
    <path class="fil6" d="M31341 37209c-5151,-6796 175,-15218 7753,-19837 15486,-9440 31446,9582 28983,17411 -2366,7519 -27372,14780 -36736,2426z"/>
    <path class="fil6" d="M72922 25181c-2387,0 -4322,-1700 -4322,-3796 0,-2097 1935,-3796 4322,-3796 2388,0 4323,1699 4323,3796 0,2096 -1935,3796 -4323,3796z"/>
   </g>
   <path class="fil7" d="M217140 80758c4009,0 7258,3249 7258,7258 0,4009 -3249,7258 -7258,7258 -4009,0 -7258,-3249 -7258,-7258 0,-4009 3249,-7258 7258,-7258z"/>
   <path class="fil8" d="M214736 82030c3306,0 5986,2680 5986,5986 0,3306 -2680,5986 -5986,5986 -815,0 -1592,-163 -2300,-458 1267,1079 2909,1730 4704,1730 4009,0 7258,-3249 7258,-7258 0,-4009 -3249,-7258 -7258,-7258 -1795,0 -3437,651 -4704,1730 708,-295 1485,-458 2300,-458z"/>
  </g>
 </g>
</svg>
