<?xml version="1.0" encoding="UTF-8"?>
<!DOCTYPE svg PUBLIC "-//W3C//DTD SVG 1.1//EN" "http://www.w3.org/Graphics/SVG/1.1/DTD/svg11.dtd">
<!-- Creator: CorelDRAW X7 -->
<svg xmlns="http://www.w3.org/2000/svg" xml:space="preserve" width="100%" height="100%" version="1.1" style="shape-rendering:geometricPrecision; text-rendering:geometricPrecision; image-rendering:optimizeQuality; fill-rule:evenodd; clip-rule:evenodd"
viewBox="0 0 5217 5144"
 xmlns:xlink="http://www.w3.org/1999/xlink">
 <defs>
  <style type="text/css">
   <![CDATA[
    .fil0 {fill:none}
    .fil4 {fill:#5C56A2}
    .fil1 {fill:#999999}
    .fil3 {fill:#FCD0D1}
    .fil2 {fill:#FCE9CA}
   ]]>
  </style>
 </defs>
 <g id="Layer_x0020_1">
  <metadata id="CorelCorpID_0Corel-Layer"/>
  <g id="_1686595303568">
   <rect class="fil0" width="5217" height="5144"/>
   <g>
    <circle class="fil1" cx="2716" cy="2644" r="2500"/>
    <circle class="fil2" cx="2501" cy="2500" r="2500"/>
    <circle class="fil3" cx="2500" cy="1861" r="1656"/>
    <path class="fil4" d="M3573 3197c-158,0 -287,129 -287,287 0,158 129,287 287,287 159,0 288,-129 288,-287 0,-158 -129,-287 -288,-287zm-139 -62l-716 -1312c18,-12 34,-26 49,-41 68,-68 110,-162 110,-266 0,-104 -42,-198 -111,-266 -68,-68 -162,-110 -265,-110 -104,0 -198,42 -266,110 -68,68 -111,162 -111,266 0,104 43,198 111,266 15,15 31,28 48,41l0 0 -715 1312c-44,-18 -91,-27 -140,-27 -104,0 -198,42 -266,110 -68,68 -111,162 -111,266 0,103 43,198 111,266 68,68 162,110 266,110 103,0 197,-42 266,-110 58,-58 97,-136 108,-222l1398 0c10,86 49,164 107,222 69,68 163,110 266,110 104,0 198,-42 266,-110 69,-68 111,-162 111,-266 0,-104 -43,-198 -111,-266 -68,-68 -162,-110 -266,-110 -49,0 -96,9 -139,27zm-793 -1270l0 0 715 1312c-17,12 -33,26 -48,41 -59,58 -98,135 -108,221l-1398 0c-11,-86 -50,-163 -109,-221 -14,-15 -30,-28 -48,-41l716 -1312c43,18 90,27 140,27 49,0 96,-9 140,-27zm-140 -636c-159,0 -288,129 -288,287 0,158 129,287 288,287 158,0 287,-129 287,-287 0,-158 -129,-287 -287,-287zm-1073 1968c-158,0 -288,129 -288,287 0,158 129,287 288,287 158,0 287,-129 287,-287 0,-158 -129,-287 -287,-287z"/>
   </g>
  </g>
 </g>
</svg>
