<?xml version="1.0" encoding="UTF-8"?>
<!DOCTYPE svg PUBLIC "-//W3C//DTD SVG 1.1//EN" "http://www.w3.org/Graphics/SVG/1.1/DTD/svg11.dtd">
<!-- Creator: CorelDRAW X7 -->
<svg xmlns="http://www.w3.org/2000/svg" xml:space="preserve" width="100%" height="100%" version="1.1" style="shape-rendering:geometricPrecision; text-rendering:geometricPrecision; image-rendering:optimizeQuality; fill-rule:evenodd; clip-rule:evenodd"
viewBox="0 0 5217 5144"
 xmlns:xlink="http://www.w3.org/1999/xlink">
 <defs>
  <style type="text/css">
   <![CDATA[
    .fil4 {fill:none}
    .fil3 {fill:#5C56A2}
    .fil0 {fill:#999999}
    .fil2 {fill:#FCD0D1}
    .fil1 {fill:#FCE9CA}
   ]]>
  </style>
 </defs>
 <g id="Layer_x0020_1">
  <metadata id="CorelCorpID_0Corel-Layer"/>
  <g id="_1686852393136">
   <g>
    <circle class="fil0" cx="2717" cy="2644" r="2500"/>
    <circle class="fil1" transform="matrix(0.0318427 0.118838 -0.118838 0.0318426 2500.8 2500.27)" r="20320"/>
    <circle class="fil2" transform="matrix(0.0210869 0.0786972 -0.0786971 0.0210868 1883.59 2666.56)" r="20320"/>
    <path class="fil3" d="M2501 1051c801,0 1449,649 1449,1449 0,802 -647,1450 -1449,1450 -801,0 -1449,-649 -1449,-1450 0,-799 649,-1449 1449,-1449zm336 1049l0 -46c-1,-90 -36,-157 -90,-204 -123,-106 -376,-113 -501,-6 -104,89 -123,276 4,354 103,65 243,80 377,113l210 -211zm-1265 1393l530 -530c12,14 25,27 38,39 83,73 198,115 316,125l0 226 89 0 0 -225c120,-6 236,-46 321,-119 137,-119 183,-340 91,-498 -29,-51 -70,-89 -119,-120 -35,-21 -73,-38 -112,-52l767 -768c237,253 367,582 367,929 0,752 -608,1360 -1359,1360 -348,0 -676,-130 -929,-367zm593 -593l491 -491c48,15 94,33 135,58 37,23 68,52 89,89 70,120 32,295 -72,385 -157,136 -455,129 -609,-6 -12,-11 -23,-23 -34,-35zm1264 -1392l-505 505c-11,-98 -54,-175 -119,-230 -68,-58 -162,-93 -260,-102l0 -226 -89 0 0 224c-100,5 -198,37 -268,97 -150,129 -163,387 15,498 101,63 229,83 351,109l-438 438c-19,-44 -30,-95 -30,-153l-89 0c0,85 19,158 53,220l-542 541c-235,-252 -365,-581 -365,-929 0,-751 606,-1359 1358,-1359 347,0 676,131 928,367z"/>
   </g>
   <rect class="fil4" width="5217" height="5144"/>
  </g>
 </g>
</svg>
