<?xml version="1.0" encoding="UTF-8"?>
<!DOCTYPE svg PUBLIC "-//W3C//DTD SVG 1.1//EN" "http://www.w3.org/Graphics/SVG/1.1/DTD/svg11.dtd">
<!-- Creator: CorelDRAW X7 -->
<svg xmlns="http://www.w3.org/2000/svg" xml:space="preserve" width="100%" height="100%" version="1.1" style="shape-rendering:geometricPrecision; text-rendering:geometricPrecision; image-rendering:optimizeQuality; fill-rule:evenodd; clip-rule:evenodd"
viewBox="0 0 5217 5145"
 xmlns:xlink="http://www.w3.org/1999/xlink">
 <defs>
  <style type="text/css">
   <![CDATA[
    .fil4 {fill:none}
    .fil3 {fill:#5C56A2}
    .fil0 {fill:#999999}
    .fil2 {fill:#FCD0D1}
    .fil1 {fill:#FCE9CA}
   ]]>
  </style>
 </defs>
 <g id="Layer_x0020_1">
  <metadata id="CorelCorpID_0Corel-Layer"/>
  <g id="_1686863686688">
   <g>
    <circle class="fil0" cx="2716" cy="2644" r="2500"/>
    <circle class="fil1" cx="2501" cy="2500" r="2500"/>
    <circle class="fil2" cx="2500" cy="1861" r="1656"/>
    <path class="fil3" d="M3573 3197c-158,0 -287,129 -287,287 0,159 129,288 287,288 159,0 288,-129 288,-288 0,-158 -129,-287 -288,-287zm-139 -62l-716 -1312c18,-12 34,-26 49,-41 68,-68 110,-162 110,-266 0,-103 -42,-197 -111,-265 -68,-68 -162,-111 -265,-111 -104,0 -198,43 -266,111 -68,68 -111,162 -111,265 0,104 43,198 111,266 15,15 31,29 48,41l0 0 -715 1312c-44,-17 -91,-27 -140,-27 -104,0 -198,42 -266,110 -68,68 -111,163 -111,266 0,104 43,198 111,266 68,68 162,111 266,111 103,0 197,-43 266,-111 58,-58 97,-135 108,-221l1398 0c10,86 49,163 107,221 69,68 163,111 266,111 104,0 198,-43 266,-111 69,-68 111,-162 111,-266 0,-103 -43,-198 -111,-266 -68,-68 -162,-110 -266,-110 -49,0 -96,10 -139,27zm-793 -1269l0 0 715 1312c-17,12 -33,26 -48,40 -59,58 -98,136 -108,222l-1398 0c-11,-86 -50,-164 -109,-222 -14,-14 -30,-28 -48,-40l716 -1312c43,17 90,27 140,27 49,0 96,-10 140,-27zm-140 -637c-159,0 -288,129 -288,287 0,159 129,288 288,288 158,0 287,-129 287,-288 0,-158 -129,-287 -287,-287zm-1073 1968c-158,0 -288,129 -288,287 0,159 129,288 288,288 158,0 287,-129 287,-288 0,-158 -129,-287 -287,-287z"/>
   </g>
   <rect class="fil4" width="5217" height="5145"/>
  </g>
 </g>
</svg>
