<?xml version="1.0" encoding="UTF-8"?>
<!DOCTYPE svg PUBLIC "-//W3C//DTD SVG 1.1//EN" "http://www.w3.org/Graphics/SVG/1.1/DTD/svg11.dtd">
<!-- Creator: CorelDRAW X7 -->
<svg xmlns="http://www.w3.org/2000/svg" xml:space="preserve" width="100%" height="100%" version="1.1" style="shape-rendering:geometricPrecision; text-rendering:geometricPrecision; image-rendering:optimizeQuality; fill-rule:evenodd; clip-rule:evenodd"
viewBox="0 0 5217 5145"
 xmlns:xlink="http://www.w3.org/1999/xlink">
 <defs>
  <style type="text/css">
   <![CDATA[
    .fil4 {fill:none}
    .fil3 {fill:#5C56A2}
    .fil0 {fill:#999999}
    .fil2 {fill:#FCD0D1}
    .fil1 {fill:#FCE9CA}
   ]]>
  </style>
 </defs>
 <g id="Layer_x0020_1">
  <metadata id="CorelCorpID_0Corel-Layer"/>
  <g id="_1686863695168">
   <g>
    <circle class="fil0" cx="2717" cy="2645" r="2500"/>
    <circle class="fil1" transform="matrix(-0.106548 0.0615153 -0.0615152 -0.106548 2500.73 2500.59)" r="20320"/>
    <circle class="fil2" transform="matrix(-0.070558 0.0407367 -0.0407366 -0.0705579 2180.36 1947.45)" r="20320"/>
    <path class="fil3" d="M2501 1051c801,0 1449,649 1449,1450 0,802 -647,1449 -1449,1449 -801,0 -1450,-648 -1450,-1449 0,-800 650,-1450 1450,-1450zm-45 2418l-189 -189 -63 63 265 266 63 0 265 -266 -63 -63 -189 189c0,-114 0,-227 0,-341 120,-6 236,-46 321,-119 137,-119 182,-340 91,-498 -29,-50 -71,-89 -119,-119 -179,-111 -427,-93 -588,-193 -127,-79 -108,-266 -4,-355 125,-107 377,-100 501,6 55,48 90,118 90,212l89 0c0,-122 -46,-215 -121,-279 -68,-58 -162,-92 -260,-102l0 -226 -89 0 0 224c-100,6 -198,38 -268,97 -151,129 -164,388 15,498 172,107 421,90 587,193 38,23 69,52 90,89 70,120 31,296 -72,386 -157,135 -455,129 -609,-7 -70,-61 -113,-150 -113,-266l-89 0c0,143 55,255 143,333 83,73 198,115 316,125 0,114 0,228 0,342zm45 391c751,0 1359,-608 1359,-1359 0,-751 -608,-1360 -1359,-1360 -752,0 -1358,609 -1358,1360 0,752 605,1359 1358,1359z"/>
   </g>
   <rect class="fil4" width="5217" height="5145"/>
  </g>
 </g>
</svg>
