<?xml version="1.0" encoding="UTF-8"?>
<!DOCTYPE svg PUBLIC "-//W3C//DTD SVG 1.1//EN" "http://www.w3.org/Graphics/SVG/1.1/DTD/svg11.dtd">
<!-- Creator: CorelDRAW X7 -->
<svg xmlns="http://www.w3.org/2000/svg" xml:space="preserve" width="100%" height="100%" version="1.1" style="shape-rendering:geometricPrecision; text-rendering:geometricPrecision; image-rendering:optimizeQuality; fill-rule:evenodd; clip-rule:evenodd"
viewBox="0 0 5217 5144"
 xmlns:xlink="http://www.w3.org/1999/xlink">
 <defs>
  <style type="text/css">
   <![CDATA[
    .fil4 {fill:none}
    .fil3 {fill:#5C56A2}
    .fil0 {fill:#999999}
    .fil2 {fill:#FCD0D1}
    .fil1 {fill:#FCE9CA}
   ]]>
  </style>
 </defs>
 <g id="Layer_x0020_1">
  <metadata id="CorelCorpID_0Corel-Layer"/>
  <g id="_1686852394864">
   <g>
    <circle class="fil0" cx="2717" cy="2644" r="2500"/>
    <circle class="fil1" transform="matrix(0.0615153 -0.106548 0.106548 0.0615152 2500.68 2500.32)" r="20320"/>
    <circle class="fil2" transform="matrix(0.0407367 -0.070558 0.0705579 0.0407366 3054.7 2819.17)" r="20320"/>
    <path class="fil3" d="M1445 3493c10,11 21,22 32,33l0 0c4,4 9,9 13,13l1 0 12 12 0 0 6 6 0 0c269,253 620,393 992,393 387,0 751,-151 1025,-424 273,-275 424,-639 424,-1026 0,-372 -140,-723 -393,-992l0 0 -5 -5 0 0 0 -1 0 0 -1 0 0 -1 -1 0 -10 -11 0 0 -1 -1 0 0 0 0 -1 -1 0 0 -1 0 0 -1 -9 -9 0 0 -1 -1 0 0 -1 -1 0 0 0 0 -1 -1 0 0 0 0 -10 -10 -1 0 0 -1 -1 0 0 -1 0 0 -1 -1 0 0 -1 -1c-3,-3 -6,-6 -9,-9l-1 0 0 -1 -1 0 0 0 0 -1 -1 0 0 -1 -6 -5 0 0c-270,-254 -621,-393 -992,-393 -387,0 -751,151 -1024,425 -275,273 -425,638 -425,1024 0,372 139,723 393,993l0 0zm402 -614l0 -183 -334 0 0 -87 351 -497 77 0 0 497 104 0 0 87 -104 0 0 183 -94 0zm0 -270l0 -345 -241 345 241 0zm383 -108c0,-91 9,-164 28,-220 19,-55 46,-98 83,-128 37,-30 83,-45 139,-45 41,0 77,9 108,25 31,17 57,41 77,72 9,13 16,28 23,44l741 -742c-252,-235 -581,-366 -928,-366 -363,0 -705,143 -962,398 -255,257 -396,599 -396,961 0,348 130,677 365,929l741 -741c-13,-52 -19,-115 -19,-187zm488 -154c8,41 12,92 12,154 0,90 -10,163 -28,218 -18,56 -46,98 -83,128 -37,30 -83,45 -139,45 -74,0 -132,-26 -174,-79 -8,-10 -15,-20 -22,-32l-712 712c253,237 581,367 929,367 362,0 704,-142 961,-398 257,-257 398,-599 398,-962 0,-347 -130,-676 -367,-929l-775 776zm-392 154c0,39 2,74 5,106l286 -287c-7,-31 -16,-54 -28,-71 -29,-42 -66,-62 -110,-62 -44,0 -78,18 -104,55 -32,46 -49,133 -49,259zm25 213c6,15 12,28 20,39 29,41 66,62 109,62 43,0 79,-21 109,-62 29,-42 44,-126 44,-252 0,-24 0,-47 -1,-68l-281 281zm865 165l0 -183 -334 0 0 -87 351 -497 77 0 0 497 104 0 0 87 -104 0 0 183 -94 0zm0 -270l0 -345 -241 345 241 0z"/>
   </g>
   <rect class="fil4" width="5217" height="5144"/>
  </g>
 </g>
</svg>
