<?xml version="1.0" encoding="UTF-8"?>
<!DOCTYPE svg PUBLIC "-//W3C//DTD SVG 1.1//EN" "http://www.w3.org/Graphics/SVG/1.1/DTD/svg11.dtd">
<!-- Creator: CorelDRAW X7 -->
<svg xmlns="http://www.w3.org/2000/svg" xml:space="preserve" width="100%" height="100%" version="1.1" style="shape-rendering:geometricPrecision; text-rendering:geometricPrecision; image-rendering:optimizeQuality; fill-rule:evenodd; clip-rule:evenodd"
viewBox="0 0 5217 5145"
 xmlns:xlink="http://www.w3.org/1999/xlink">
 <defs>
  <style type="text/css">
   <![CDATA[
    .fil4 {fill:none}
    .fil3 {fill:#5C56A2}
    .fil0 {fill:#999999}
    .fil2 {fill:#FCD0D1}
    .fil1 {fill:#FCE9CA}
   ]]>
  </style>
 </defs>
 <g id="Layer_x0020_1">
  <metadata id="CorelCorpID_0Corel-Layer"/>
  <g id="_1686863705312">
   <g>
    <circle class="fil0" cx="2717" cy="2644" r="2500"/>
    <g>
     <circle class="fil1" transform="matrix(-0.0615153 -0.106548 -0.106548 0.0615152 2500.72 2500.72)" r="20320"/>
     <circle class="fil2" transform="matrix(-0.0407367 -0.070558 -0.0705579 0.0407366 1946.7 2819.57)" r="20320"/>
    </g>
    <g>
     <path class="fil3" d="M3760 1866l0 0 8 12 0 2 8 11 0 2c116,199 183,430 183,679 0,202 -45,399 -129,577l0 0 -7 15 -1 0 -7 14 0 0 -8 14 0 0 0 2c-63,121 -145,233 -244,333 -63,64 -133,120 -205,169l-2 0 -13 10 0 0 -14 8 0 0c-214,135 -461,209 -721,209 -360,0 -700,-141 -955,-396 -178,-180 -301,-400 -359,-639l0 -2 0 -3 -3 -11 -2 -8 0 -2 -1 -5 0 0 -2 -9 -1 -5 -2 -10 -2 -4 0 -7 -1 -4 0 0 0 -5 -2 -5 0 0 0 -5 -1 -4 0 -7 -2 -9 -2 -5 -1 -10 0 -6c-2,-8 -4,-16 -4,-24l-1 -6 0 -5 -2 -10 0 -5 -1 -11 0 -4 0 -5 -2 -7 0 -4 -2 -15 0 -6 0 -10 0 0 0 -4 -1 -12 0 -4c0,-19 -2,-39 -2,-58 0,-202 45,-398 129,-577l0 0 8 -14 0 0 7 -15 0 0 8 -14 0 0 0 -2c63,-121 145,-232 244,-333 57,-57 119,-108 185,-153l6 -5 6 -4 7 -5 5 -3 1 -2 7 -3 3 -3 5 -2 7 -6 2 0 13 -8 1 -2c211,-129 453,-199 707,-199 14,0 30,1 45,1l0 -91c-15,0 -31,0 -45,0 -212,0 -416,45 -603,131l-8 5c-8,3 -16,8 -24,11l-8 5c-19,8 -38,19 -56,28l-8 5 -8 3 0 2 -8 3 -7 5 -8 5 -7 5 -1 0c-10,6 -20,12 -29,19l-3 1 -7 3 -8 5 0 2 -12 8 -4 1 -6 5 -6 5 -15 9 -1 2 -7 5 -8 5 -6 6 -8 5 -8 6 -6 5 0 1 -7 5 -1 0 -7 5 -6 5 -2 1 -6 7 0 0 -6 4 -2 0 -6 7 -7 6 -8 5 0 0 -5 5 -1 1 -7 7 -6 4 -2 2 -6 6 -5 4 -1 1 -8 7 0 1 -7 5 -6 6 -5 5 -1 2 -7 6 -4 5 -5 5 -5 3c-3,5 -8,9 -13,14l0 0 -11 13 0 0 -13 13 0 0 -12 12 0 0 0 2c-212,233 -340,526 -367,839l-2 19 0 0 0 17 0 0 -1 18 0 0 -2 18 0 0 0 17 0 2 0 17 0 0 0 18 0 0c0,11 0,21 0,32l0 5 0 0c0,17 2,33 2,51l1 1c2,35 5,72 10,107l0 0c3,18 5,35 8,53l0 1 3 15 0 1 0 0 0 0 3 15 0 3 0 0 4 16 0 1c3,8 4,16 6,24l0 0c59,260 191,500 384,694 133,131 286,234 453,306l0 0 15 7 1 0c70,28 142,52 215,70l0 0c12,1 23,5 35,8l0 0 16 3 2 0 16 3 0 0 2 0 16 3 0 0 1 0c18,4 34,5 51,8l0 0c13,2 24,4 35,5l2 0 16 2 1 0 16 1 2 0 14 0 4 2 0 0 16 0 1 0c18,2 35,3 53,3l0 0 3 0 14 0 2 0 18 0 0 0 0 0 17 0 0 0c6,0 13,0 19,0l0 0 18 -1 17 0 18 -2 0 0 18 0 0 0 19 -2 0 0 17 -1 0 0 18 -2 0 0 17 -3 0 0 18 -2 0 0 17 -3 0 0 18 -1 0 0 18 -4 0 0 17 -3 0 0 18 -3 0 0c5,-2 11,-3 16,-3l0 0 17 -5 0 0 18 -3 0 0c131,-32 257,-82 373,-147l0 0c88,-49 169,-108 246,-175l0 0c8,-8 17,-16 25,-24l0 0c13,-13 27,-24 40,-37l13 -14 0 0 11 -13 0 0 13 -13 0 0 12 -13 0 0 0 -1c212,-233 340,-526 367,-839l2 -19 0 0c0,-5 0,-11 0,-18l0 0 1 -17 0 0 2 -18 0 0 0 -17 0 0 0 -19 0 0 0 -18 0 0 0 -18 0 -1 0 -7 0 -14 0 -6 -2 -11 0 -10 0 -11 0 -8 -1 -13 0 -6 -2 -15 0 -3 0 -3 -1 -18 0 0c-2,-6 -2,-12 -4,-19l0 -4 -1 -16 0 -2c-27,-211 -99,-410 -212,-587l0 0 -8 -11 0 -2c-61,-91 -130,-175 -208,-250l375 0 0 -89 -494 0 -45 44 0 495 89 0 0 -397c10,9 19,17 29,27 75,76 140,159 196,248l0 1zm282 562c-2,-6 -2,-12 -3,-19l3 19zm-997 517l-392 -392 0 -880 -89 0 0 918 418 418 63 -64 0 0zm-1696 -418l180 0 0 90 -180 0 0 -90zm2339 0l180 0 0 90 -180 0 0 -90zm-1124 1125l89 0 0 180 -89 0 0 -180zm0 -2340l89 0 0 180 -89 0 0 -180z"/>
    </g>
   </g>
   <rect class="fil4" width="5217" height="5145"/>
  </g>
 </g>
</svg>
