<?xml version="1.0" encoding="UTF-8"?>
<!DOCTYPE svg PUBLIC "-//W3C//DTD SVG 1.1//EN" "http://www.w3.org/Graphics/SVG/1.1/DTD/svg11.dtd">
<!-- Creator: CorelDRAW X7 -->
<svg xmlns="http://www.w3.org/2000/svg" xml:space="preserve" width="100%" height="100%" version="1.1" style="shape-rendering:geometricPrecision; text-rendering:geometricPrecision; image-rendering:optimizeQuality; fill-rule:evenodd; clip-rule:evenodd"
viewBox="0 0 5217 5145"
 xmlns:xlink="http://www.w3.org/1999/xlink">
 <defs>
  <style type="text/css">
   <![CDATA[
    .fil4 {fill:none}
    .fil3 {fill:#5C56A2}
    .fil0 {fill:#999999}
    .fil2 {fill:#FCD0D1}
    .fil1 {fill:#FCE9CA}
   ]]>
  </style>
 </defs>
 <g id="Layer_x0020_1">
  <metadata id="CorelCorpID_0Corel-Layer"/>
  <g id="_1686863684192">
   <g>
    <circle class="fil0" cx="2716" cy="2644" r="2500"/>
    <circle class="fil1" cx="2501" cy="2500" r="2500"/>
    <circle class="fil2" transform="matrix(0.070558 0.0407367 0.0407366 -0.0705579 2820.84 1947.25)" r="20320"/>
    <path class="fil3" d="M3484 972l-1967 0 0 963 -446 188 0 1727 2859 0 0 -1727 -446 -188 0 -963zm-1028 369l0 180 89 0 0 -180 -89 0zm0 358l0 990 89 0 0 -990 -89 0zm938 -637l0 1346 -893 560 -894 -560 0 -1346 1787 0zm-1877 1290l-305 -192 305 -128 0 320zm-357 1409l0 -1528 1341 841 1340 -841 0 1528 -2681 0zm2629 -1601l-305 192 0 -320 305 128z"/>
   </g>
   <rect class="fil4" width="5217" height="5145"/>
  </g>
 </g>
</svg>
