<?xml version="1.0" encoding="UTF-8"?>
<!DOCTYPE svg PUBLIC "-//W3C//DTD SVG 1.1//EN" "http://www.w3.org/Graphics/SVG/1.1/DTD/svg11.dtd">
<!-- Creator: CorelDRAW X7 -->
<svg xmlns="http://www.w3.org/2000/svg" xml:space="preserve" width="100%" height="100%" version="1.1" style="shape-rendering:geometricPrecision; text-rendering:geometricPrecision; image-rendering:optimizeQuality; fill-rule:evenodd; clip-rule:evenodd"
viewBox="0 0 5217 5144"
 xmlns:xlink="http://www.w3.org/1999/xlink">
 <defs>
  <style type="text/css">
   <![CDATA[
    .fil4 {fill:none}
    .fil3 {fill:#5C56A2}
    .fil0 {fill:#999999}
    .fil2 {fill:#FCD0D1}
    .fil1 {fill:#FCE9CA}
   ]]>
  </style>
 </defs>
 <g id="Layer_x0020_1">
  <metadata id="CorelCorpID_0Corel-Layer"/>
  <g id="_1686856495968">
   <g>
    <circle class="fil0" cx="2717" cy="2644" r="2500"/>
    <circle class="fil1" transform="matrix(0.118838 0.0318427 -0.0318426 0.118838 2500.78 2500.29)" r="20320"/>
    <circle class="fil2" transform="matrix(0.0786972 0.0210869 -0.0210868 0.0786971 2336.18 3117.95)" r="20320"/>
    <path class="fil3" d="M1473 2456l179 0 0 89 -179 0 0 -89zm1698 44c1,66 -8,131 -26,195l80 45c24,-76 37,-157 36,-240 4,-342 -225,-656 -571,-745 -406,-104 -820,140 -925,546 -17,66 -25,133 -24,199 -1,67 7,134 24,199 21,81 54,155 97,222l77 -45c-72,-111 -110,-243 -109,-376 -3,-235 118,-464 336,-590 321,-185 731,-75 915,246 61,106 92,225 90,344zm-645 191l603 215 41 -70 -507 -415 -4 -2c-45,-88 -152,-122 -240,-78 -87,45 -122,153 -77,240 29,57 85,93 148,97l36 13zm373 38l-276 -99c24,-23 42,-52 50,-85l226 184zm-309 -229c0,50 -40,90 -89,90 -50,0 -90,-40 -90,-90 0,-49 40,-89 90,-89 49,0 89,40 89,89zm-89 1439c384,0 746,-149 1018,-422 271,-271 421,-633 421,-1017 0,-384 -150,-746 -421,-1018 -272,-271 -634,-421 -1018,-421 -384,0 -746,150 -1017,421 -272,272 -422,634 -422,1018 0,384 150,746 422,1017 271,273 633,422 1017,422zm-955 -2393c255,-255 595,-396 955,-396 360,0 699,141 954,396 255,255 396,594 396,954 0,361 -141,700 -396,955 -255,253 -594,395 -954,395 -360,0 -700,-142 -955,-395 -253,-255 -393,-594 -393,-955 0,-360 140,-699 393,-954zm1134 1580l-90 0c-24,0 -44,20 -44,45 0,24 20,44 44,44l90 0c24,0 44,-20 44,-44 0,-25 -20,-45 -44,-45zm-269 0l-89 0c-25,0 -45,20 -45,45 0,24 20,44 45,44l89 0c25,0 45,-20 45,-44 0,-25 -20,-45 -45,-45zm269 179l-358 0c-74,0 -134,-60 -134,-134 0,-74 60,-134 134,-134l358 0c74,0 134,60 134,134 0,74 -60,134 -134,134zm0 -358l-358 0c-123,0 -223,100 -223,224 0,123 100,223 223,223l358 0c123,0 223,-100 223,-223 0,-124 -100,-224 -223,-224zm207 -1204l89 -155 77 45 -89 154 -77 -44zm-431 -270l90 0 0 178 -90 0 0 -178zm-508 160l77 -45 90 155 -78 44 -89 -154zm1266 1330l45 -77 154 89 -44 78 -155 -90zm-1626 -938l45 -77 155 89 -45 78 -155 -90zm1626 12l155 -89 44 77 -155 89 -44 -77zm-1626 939l155 -90 45 78 -155 89 -45 -77zm1762 -520l179 0 0 89 -179 0 0 -89z"/>
   </g>
   <rect class="fil4" width="5217" height="5144"/>
  </g>
 </g>
</svg>
