<?xml version="1.0" encoding="UTF-8"?>
<!DOCTYPE svg PUBLIC "-//W3C//DTD SVG 1.1//EN" "http://www.w3.org/Graphics/SVG/1.1/DTD/svg11.dtd">
<!-- Creator: CorelDRAW X7 -->
<svg xmlns="http://www.w3.org/2000/svg" xml:space="preserve" width="100%" height="100%" version="1.1" style="shape-rendering:geometricPrecision; text-rendering:geometricPrecision; image-rendering:optimizeQuality; fill-rule:evenodd; clip-rule:evenodd"
viewBox="0 0 5217 5145"
 xmlns:xlink="http://www.w3.org/1999/xlink">
 <defs>
  <style type="text/css">
   <![CDATA[
    .fil4 {fill:none}
    .fil3 {fill:#5C56A2}
    .fil0 {fill:#999999}
    .fil2 {fill:#FCD0D1}
    .fil1 {fill:#FCE9CA}
   ]]>
  </style>
 </defs>
 <g id="Layer_x0020_1">
  <metadata id="CorelCorpID_0Corel-Layer"/>
  <g id="_1686863689536">
   <g>
    <circle class="fil0" cx="2717" cy="2645" r="2500"/>
    <g>
     <circle class="fil1" transform="matrix(0.106548 0.0615153 -0.0615152 0.106548 2500.79 2500.66)" r="20320"/>
     <circle class="fil2" transform="matrix(0.070558 0.0407367 -0.0407366 0.0705579 2181.94 3054.68)" r="20320"/>
    </g>
    <path class="fil3" d="M2550 2735c96,14 204,35 318,66 190,51 399,130 607,252 161,95 289,184 390,265 44,35 82,68 117,100l0 -1834c-35,31 -73,64 -117,99 -101,81 -229,171 -390,265 -208,123 -417,202 -607,253 -113,30 -219,51 -314,65l278 0 1 470 -283 -1zm-47 -553c251,-32 591,-113 927,-311 363,-213 549,-395 641,-513l0 759 161 0 0 768 -161 0 0 758c-92,-117 -278,-299 -641,-513 -336,-197 -676,-278 -927,-311l-12 24 211 210 -348 348 -211 -211 -106 54 0 288 -471 0 1 -288 -108 -53 -210 210 -348 -347 211 -211 -54 -108 -288 1 0 -471 288 1 54 -108 -211 -210c116,-116 232,-232 347,-348l211 211 107 -54 0 -288 471 1 -1 287 108 54 210 -211 348 348 -211 211 12 23zm-484 536c-60,61 -139,91 -218,91 -78,0 -157,-30 -217,-91 -60,-60 -91,-138 -91,-217 0,-79 31,-158 91,-218 60,-60 139,-90 217,-91 79,1 158,31 218,91 60,60 90,139 90,217 0,79 -30,158 -90,218zm-218 2c56,0 113,-22 155,-65 43,-42 64,-99 65,-155 -1,-55 -22,-112 -65,-154 -42,-43 -99,-64 -155,-64 -55,0 -112,21 -155,64 -42,43 -64,99 -64,154 0,56 22,113 65,156 42,42 99,64 154,64zm553 -993l-192 192 -215 -107 0 -253 -291 0 0 253 -215 107 -192 -192 -222 221 193 192 -107 215 -253 0 0 291 253 0 107 215 -193 192 221 222 193 -193 215 107 0 253 291 0 0 -253 214 -107 193 193 221 -222 -192 -192 107 -215 253 0 0 -291 -253 0 -107 -214 192 -194 -221 -220zm1717 479l71 0 0 589 -71 0 0 -589z"/>
   </g>
   <rect class="fil4" width="5217" height="5145"/>
  </g>
 </g>
</svg>
