<?xml version="1.0" encoding="UTF-8"?>
<!DOCTYPE svg PUBLIC "-//W3C//DTD SVG 1.1//EN" "http://www.w3.org/Graphics/SVG/1.1/DTD/svg11.dtd">
<!-- Creator: CorelDRAW X7 -->
<svg xmlns="http://www.w3.org/2000/svg" xml:space="preserve" width="100%" height="100%" version="1.1" style="shape-rendering:geometricPrecision; text-rendering:geometricPrecision; image-rendering:optimizeQuality; fill-rule:evenodd; clip-rule:evenodd"
viewBox="0 0 770 1084"
 xmlns:xlink="http://www.w3.org/1999/xlink">
 <defs>
  <style type="text/css">
   <![CDATA[
    .fil5 {fill:#5C56A2}
    .fil4 {fill:#BDADFF}
    .fil7 {fill:#D4D4D6}
    .fil6 {fill:#D6D5D7}
    .fil2 {fill:#FCE9CA}
    .fil1 {fill:white}
    .fil3 {fill:#BDADFF;fill-rule:nonzero}
    .fil0 {fill:#FCE9CA;fill-rule:nonzero}
    .fil8 {fill:white;fill-rule:nonzero}
   ]]>
  </style>
 </defs>
 <g id="Layer_x0020_1">
  <metadata id="CorelCorpID_0Corel-Layer"/>
  <g id="_3092825528512">
   <path class="fil0" d="M521 555c0,0 -1,22 12,26 13,4 57,-22 57,-22l-58 -14 -11 10z"/>
   <path class="fil1" d="M518 470c0,0 -8,-31 -8,-44 0,-14 7,-42 11,-54 0,0 17,-10 27,4 0,0 -4,39 0,50 4,11 9,26 9,26l-30 26 -9 -8z"/>
   <path class="fil2" d="M521 372c0,0 -6,-20 -3,-25 2,-6 5,10 5,10 0,0 2,-21 5,-21 4,0 2,21 2,21 0,0 1,-21 4,-21 4,0 3,20 3,20 0,0 4,-15 8,-16 3,0 0,19 0,19 0,0 5,-2 10,-5 4,-2 4,9 -7,22l-27 -4z"/>
   <path class="fil3" d="M552 376c0,-1 -1,-2 -2,-3 -16,-12 -30,-4 -31,-4 -2,1 -2,3 -2,5 1,1 3,2 5,1 1,0 12,-5 24,4 1,1 4,0 5,-1 0,-1 1,-1 1,-2z"/>
   <path class="fil4" d="M510 418c0,0 24,-2 37,0 0,0 3,2 1,8 0,0 -18,10 -37,9 0,0 -5,-8 -1,-17z"/>
   <path class="fil3" d="M557 453l-1 -2c-21,10 -29,21 -29,22l2 1c0,0 8,-11 28,-21z"/>
   <path class="fil1" d="M526 475c0,0 31,-40 88,-28 0,0 17,-35 26,-44 10,-9 48,-19 48,-19 0,0 8,-20 20,-21 12,-2 13,34 0,53 0,0 -31,12 -41,14l-7 32 3 -1c6,-1 12,-1 19,-2 0,0 23,0 44,13 0,0 31,-8 44,3 12,12 -18,36 -49,33 0,0 -23,-10 -33,-9l-47 22c0,0 -9,11 -35,11l-66 3 -14 -60z"/>
   <path class="fil5" d="M568 472c4,0 8,-3 8,-8 0,-4 -4,-8 -8,-8 -4,0 -8,4 -8,8 0,5 4,8 8,8z"/>
   <path class="fil3" d="M733 487c0,-2 0,-3 0,-4 -1,-7 -4,-12 -4,-13 -1,-1 -3,-2 -5,-1 -1,1 -2,4 -1,5 1,1 9,16 -4,32 -2,1 -2,3 0,5 1,1 4,1 5,-1 7,-8 9,-17 9,-23z"/>
   <path class="fil4" d="M692 499c10,-12 10,-38 4,-39 -5,-1 -10,-1 -10,-1 -11,19 -1,40 -1,40 0,0 3,1 7,0z"/>
   <path class="fil3" d="M644 521c0,-1 0,-2 -1,-2 0,-1 -18,-27 -1,-51 1,-2 1,-4 -1,-5 -2,-1 -4,-1 -5,1 -20,28 1,59 2,59 1,1 3,2 5,1 1,-1 1,-2 1,-3z"/>
   <path class="fil3" d="M712 416c0,0 0,-1 0,-1 -9,-33 -22,-35 -23,-35 -2,0 -4,1 -4,3 0,2 1,4 3,4 1,0 10,3 17,30 0,2 2,3 4,2 2,0 3,-1 3,-3z"/>
   <path class="fil4" d="M634 410c0,0 19,19 33,20 13,2 -17,-33 -17,-33 0,0 -12,-1 -16,13z"/>
   <path class="fil3" d="M641 467c0,-1 -1,-2 -2,-3 -18,-5 -22,-18 -22,-18 -1,-2 -3,-3 -4,-3 -2,1 -3,3 -3,5 0,0 5,16 27,23 2,0 4,-1 4,-2 0,-1 0,-1 0,-2z"/>
   <polygon class="fil3" points="660,463 660,461 636,464 636,467 "/>
   <path class="fil1" d="M496 567c28,0 52,-24 52,-53 0,-29 -24,-52 -52,-52 -29,0 -52,23 -52,52 0,29 23,53 52,53z"/>
   <path class="fil5" d="M544 522c0,-4 1,-8 1,-11 0,-27 -22,-49 -48,-49 -13,0 -24,4 -32,12l-1 0c-1,2 -1,4 1,5 6,3 20,16 14,59 0,3 2,5 4,5 12,1 43,2 60,-19l1 -2z"/>
   <path class="fil2" d="M659 559c0,0 28,-4 33,-8 5,-3 -11,-3 -11,-3 0,0 19,-6 19,-9 -1,-4 -21,2 -21,2 0,0 20,-5 19,-8 -1,-4 -20,2 -20,2 0,0 15,-8 14,-11 0,-4 -18,4 -18,4 0,0 1,-5 2,-11 2,-5 -9,-2 -19,12l2 30z"/>
   <path class="fil1" d="M540 546c0,0 -2,-26 19,-32 0,0 21,4 47,18 0,0 7,3 20,1 12,-2 30,-5 30,-5 0,0 9,10 3,31 0,0 -29,14 -56,11 -27,-2 -63,-24 -63,-24z"/>
   <path class="fil3" d="M667 545c0,-9 -5,-16 -8,-19 -1,-1 -4,-1 -5,0 -1,2 -1,4 0,5 1,1 11,10 2,26 -1,2 0,4 1,5 2,1 4,0 5,-1 3,-6 5,-12 5,-16z"/>
   <path class="fil4" d="M615 534c0,0 -1,33 -12,36 0,0 5,2 18,0 0,0 6,-19 -1,-36 0,0 -1,-2 -5,0z"/>
   <path class="fil3" d="M567 515c0,0 0,-1 0,-1 0,-3 -3,-4 -5,-4 -24,4 -28,26 -26,37 0,2 2,4 5,4 2,-1 4,-3 4,-6 0,-2 -2,-22 18,-26 2,0 4,-2 4,-4z"/>
   <path class="fil6" d="M188 77c10,11 22,26 22,40 1,16 10,31 23,42l-8 11c-18,-7 -32,-21 -33,-39 -2,-17 -25,-36 -25,-36 4,0 13,-9 21,-18z"/>
   <path class="fil1" d="M210 117c0,-14 -12,-29 -22,-40 -8,-8 -14,-13 -14,-13 15,0 63,-65 63,-65 14,7 33,30 34,59 0,17 14,31 24,40l-14 11 14 14 -36 51c-9,-3 -18,-9 -26,-15 -13,-11 -22,-26 -23,-42z"/>
   <polygon class="fil7" points="295,123 281,109 295,98 295,110 "/>
   <path class="fil8" d="M573 743c-68,109 -224,169 -363,141 -147,-31 -183,77 -212,200l7 0c29,-124 63,-223 204,-194 141,29 300,-32 370,-143 40,-64 42,-132 7,-193l-8 0c36,60 34,127 -5,189z"/>
  </g>
 </g>
</svg>
