<?xml version="1.0" encoding="UTF-8"?>
<!DOCTYPE svg PUBLIC "-//W3C//DTD SVG 1.1//EN" "http://www.w3.org/Graphics/SVG/1.1/DTD/svg11.dtd">
<!-- Creator: CorelDRAW X7 -->
<svg xmlns="http://www.w3.org/2000/svg" xml:space="preserve" width="100%" height="100%" version="1.1" style="shape-rendering:geometricPrecision; text-rendering:geometricPrecision; image-rendering:optimizeQuality; fill-rule:evenodd; clip-rule:evenodd"
viewBox="0 0 162560 33867"
 xmlns:xlink="http://www.w3.org/1999/xlink">
 <defs>
  <style type="text/css">
   <![CDATA[
    .fil3 {fill:#FDDFD1}
    .fil15 {fill:#F7D8C4}
    .fil22 {fill:#D2AE6D}
    .fil30 {fill:#D89E60}
    .fil1 {fill:#F2D6C0}
    .fil0 {fill:#DFB778}
    .fil4 {fill:#8DA0D1}
    .fil2 {fill:#835086}
    .fil6 {fill:#6C87C3}
    .fil5 {fill:#686AA2}
    .fil31 {fill:black}
    .fil14 {fill:#DABA76}
    .fil19 {fill:#F0F5FF}
    .fil16 {fill:#FF6600}
    .fil20 {fill:white}
    .fil23 {fill:white}
    .fil8 {fill:#FDDFD1;fill-rule:nonzero}
    .fil9 {fill:#FCD9C8;fill-rule:nonzero}
    .fil25 {fill:#D2AE6D;fill-rule:nonzero}
    .fil10 {fill:#DABA76;fill-rule:nonzero}
    .fil21 {fill:#8DA0D1;fill-rule:nonzero}
    .fil11 {fill:#6C87C3;fill-rule:nonzero}
    .fil12 {fill:#686AA2;fill-rule:nonzero}
    .fil29 {fill:#282828;fill-rule:nonzero}
    .fil26 {fill:#D2AE6D;fill-rule:nonzero}
    .fil18 {fill:#D6E4FF;fill-rule:nonzero}
    .fil24 {fill:#E2C89A;fill-rule:nonzero}
    .fil13 {fill:#EBF2FF;fill-rule:nonzero}
    .fil27 {fill:#F4DDB5;fill-rule:nonzero}
    .fil28 {fill:#F6E3C3;fill-rule:nonzero}
    .fil7 {fill:white;fill-rule:nonzero}
    .fil17 {fill:white;fill-rule:nonzero}
   ]]>
  </style>
 </defs>
 <g id="Layer_x0020_1">
  <metadata id="CorelCorpID_0Corel-Layer"/>
  <g id="_2565894833744">
   <polygon class="fil0" points="0,33867 162560,33867 162560,0 0,0 "/>
   <path class="fil1" d="M17916 6440c0,0 3689,1104 3607,-1238 0,0 -54,-1707 -2190,-707 0,0 -77,-2319 -1923,-2150 -1846,168 -2487,451 -2487,451 0,0 59,-657 -703,-1029 -1136,-555 -2870,-65 -2870,-65 0,0 -1209,312 -1060,1259 172,1100 658,789 2165,815 0,0 4389,4209 5461,2664z"/>
   <path class="fil2" d="M18556 33867c133,-815 238,-1649 316,-2495 314,-3429 174,-7026 -414,-10690 -589,-3664 -1592,-7179 -2981,-10448 -668,-1571 -1424,-3075 -2247,-4472 -814,-1382 -1702,-2670 -2638,-3828 -556,-689 -1132,-1336 -1722,-1934l-8870 0 0 33620 729 247 17827 0z"/>
   <path class="fil3" d="M18591 33867c153,-1006 264,-2050 331,-3117 197,-3118 28,-6393 -502,-9735 -530,-3343 -1389,-6554 -2554,-9546 -560,-1438 -1189,-2816 -1870,-4097 -675,-1268 -1406,-2451 -2174,-3517 -768,-1065 -1578,-2023 -2410,-2844 -366,-362 -737,-700 -1112,-1011l-8300 0 0 33867 18591 0z"/>
   <path class="fil4" d="M6066 13494c2318,-214 4787,3300 5505,7832 718,4532 -582,8393 -2899,8606 -2317,213 -4787,-3300 -5505,-7832 -718,-4532 582,-8393 2899,-8606z"/>
   <path class="fil5" d="M4406 0c5501,1884 10998,10381 12670,20926 750,4732 622,9199 -177,12941l2314 0c107,-715 193,-1444 259,-2182 304,-3429 157,-7025 -436,-10688 -593,-3664 -1596,-7179 -2984,-10447 -667,-1570 -1421,-3074 -2241,-4470 -813,-1382 -1697,-2670 -2629,-3828 -654,-813 -1335,-1567 -2035,-2252l-4741 0zm-4406 20l51 -20 -51 0 0 20z"/>
   <path class="fil6" d="M4997 8369c3749,-345 7745,5341 8908,12675 897,5658 -152,10670 -2399,12823l3302 0c579,-1731 936,-3715 1059,-5898 129,-2275 -2,-4666 -388,-7107 -387,-2439 -1007,-4785 -1843,-6972 -807,-2111 -1780,-3983 -2892,-5565 -1112,-1581 -2307,-2794 -3552,-3603 -1290,-839 -2577,-1205 -3824,-1091 -1245,115 -2378,703 -3368,1747l0 12139c185,-5091 2100,-8881 4997,-9148zm-4997 23832c292,580 598,1136 918,1666l5060 0c-2586,-1972 -4846,-6353 -5673,-11570 -170,-1070 -269,-2116 -305,-3124l0 13028z"/>
   <path class="fil6" d="M7571 20886c0,0 2245,6804 2788,8030l596 -1050c0,0 -2235,-5341 -3384,-6980z"/>
   <path class="fil4" d="M10359 28916c0,0 1343,3267 1871,4101 0,0 516,-726 628,-1063 0,0 -1576,-3431 -1900,-3947l-599 909z"/>
   <path class="fil7" d="M54726 2594c36,57 110,75 167,39 57,-36 75,-111 39,-169 -35,-57 -110,-75 -167,-39 -57,36 -74,111 -39,169z"/>
   <path class="fil8" d="M69944 3223c36,57 111,75 168,39 57,-36 74,-112 38,-169 -35,-58 -110,-75 -167,-39 -57,36 -74,111 -39,169z"/>
   <path class="fil8" d="M58053 11385c36,58 111,75 168,39 56,-36 74,-111 38,-169 -35,-57 -110,-75 -167,-39 -57,36 -74,112 -39,169z"/>
   <path class="fil8" d="M59041 8480c35,57 110,74 167,39 57,-36 74,-112 39,-169 -36,-58 -111,-75 -168,-39 -57,35 -74,111 -38,169z"/>
   <path class="fil8" d="M54884 6333c35,57 110,75 167,39 57,-36 74,-111 39,-169 -36,-57 -111,-75 -167,-39 -57,36 -75,111 -39,169z"/>
   <path class="fil8" d="M48833 1449c36,57 111,75 167,39 57,-36 75,-112 39,-169 -35,-58 -110,-75 -167,-39 -57,36 -74,111 -39,169z"/>
   <path class="fil8" d="M18052 10005c35,58 110,75 167,39 57,-36 74,-111 39,-169 -36,-57 -111,-75 -168,-39 -56,36 -74,112 -38,169z"/>
   <path class="fil7" d="M15861 8839c35,58 110,75 167,40 57,-36 74,-112 39,-169 -36,-58 -110,-75 -167,-39 -57,35 -75,111 -39,168z"/>
   <path class="fil8" d="M25314 4608c35,58 110,75 167,39 57,-35 74,-111 39,-169 -35,-57 -110,-75 -167,-39 -57,36 -74,112 -39,169z"/>
   <path class="fil7" d="M32075 4537c35,57 110,75 167,39 57,-36 74,-112 39,-169 -36,-58 -111,-75 -168,-39 -57,35 -74,111 -38,169z"/>
   <path class="fil8" d="M37914 4844c35,58 110,75 167,39 57,-36 74,-111 39,-169 -36,-57 -111,-75 -168,-39 -56,36 -74,112 -38,169z"/>
   <path class="fil8" d="M40466 2621c35,58 110,75 167,39 57,-35 74,-111 39,-168 -36,-58 -111,-76 -168,-40 -57,36 -74,112 -38,169z"/>
   <path class="fil8" d="M47281 8814c36,57 111,74 168,39 57,-36 74,-112 38,-169 -35,-58 -110,-75 -167,-39 -57,35 -74,111 -39,169z"/>
   <path class="fil8" d="M96214 3101c35,57 110,75 167,39 57,-36 74,-111 39,-169 -36,-57 -111,-75 -168,-39 -57,36 -74,111 -38,169z"/>
   <path class="fil7" d="M28031 10728c35,58 110,75 167,39 57,-36 74,-111 39,-169 -36,-57 -110,-75 -167,-39 -57,36 -75,112 -39,169z"/>
   <path class="fil8" d="M81406 13028c36,57 110,75 167,39 57,-36 75,-112 39,-169 -35,-58 -110,-75 -167,-39 -57,36 -74,111 -39,169z"/>
   <path class="fil8" d="M37264 12012c35,57 110,75 167,39 57,-36 74,-112 39,-169 -35,-58 -110,-75 -167,-39 -57,35 -75,111 -39,169z"/>
   <path class="fil8" d="M42292 11733c36,57 111,75 168,39 57,-36 74,-112 38,-169 -35,-57 -110,-75 -167,-39 -57,36 -74,111 -39,169z"/>
   <path class="fil8" d="M47826 14024c36,57 111,75 168,39 57,-36 74,-112 38,-169 -35,-58 -110,-75 -167,-39 -57,35 -74,111 -39,169z"/>
   <path class="fil8" d="M34335 2124c36,58 110,75 167,40 57,-36 74,-112 39,-169 -35,-58 -110,-75 -167,-40 -57,36 -74,112 -39,169z"/>
   <path class="fil8" d="M29940 1763c36,58 111,75 168,40 57,-36 74,-112 38,-169 -35,-58 -110,-75 -167,-40 -57,36 -74,112 -39,169z"/>
   <path class="fil8" d="M25006 2391c36,57 111,75 168,39 56,-36 74,-112 38,-169 -35,-58 -110,-75 -167,-39 -57,36 -74,111 -39,169z"/>
   <path class="fil8" d="M44628 8304c35,58 110,75 167,39 57,-36 74,-111 39,-169 -35,-57 -110,-75 -167,-39 -57,36 -74,112 -39,169z"/>
   <path class="fil7" d="M48404 6491c35,57 110,75 167,39 57,-36 74,-112 39,-169 -36,-58 -111,-75 -168,-39 -56,36 -74,111 -38,169z"/>
   <path class="fil7" d="M50886 10823c35,58 110,75 167,40 57,-36 74,-112 39,-169 -36,-58 -111,-76 -168,-40 -57,36 -74,112 -38,169z"/>
   <path class="fil8" d="M46091 30658c36,57 110,75 167,39 57,-36 74,-111 39,-169 -35,-57 -110,-75 -167,-39 -57,36 -74,111 -39,169z"/>
   <path class="fil8" d="M42435 5841c35,57 110,75 167,39 57,-36 74,-112 39,-169 -36,-57 -111,-75 -168,-39 -57,36 -74,111 -38,169z"/>
   <path class="fil7" d="M36494 5950c36,57 111,75 168,39 56,-36 74,-112 38,-169 -35,-58 -110,-75 -167,-39 -57,36 -74,111 -39,169z"/>
   <path class="fil8" d="M29444 8282c35,57 110,75 167,39 57,-36 74,-112 39,-169 -36,-57 -110,-75 -167,-39 -57,36 -75,111 -39,169z"/>
   <path class="fil8" d="M20029 30841c36,58 111,75 168,39 57,-36 74,-111 38,-169 -35,-57 -110,-75 -167,-39 -57,36 -74,112 -39,169z"/>
   <path class="fil8" d="M22043 26024c35,58 110,75 167,39 57,-36 75,-111 39,-169 -35,-57 -110,-75 -167,-39 -57,36 -74,112 -39,169z"/>
   <path class="fil8" d="M36302 26651c35,57 110,74 167,39 57,-36 74,-112 39,-169 -36,-58 -111,-75 -168,-39 -57,35 -74,111 -38,169z"/>
   <path class="fil8" d="M60721 23202c35,57 110,75 167,39 57,-36 74,-112 39,-169 -36,-57 -111,-75 -168,-39 -57,36 -74,111 -38,169z"/>
   <path class="fil8" d="M64905 24532c35,58 110,75 167,39 57,-36 74,-111 39,-169 -36,-57 -111,-75 -168,-39 -57,36 -74,112 -38,169z"/>
   <path class="fil8" d="M45392 27829c35,57 110,75 167,39 57,-36 75,-112 39,-169 -35,-57 -110,-75 -167,-39 -57,36 -74,111 -39,169z"/>
   <path class="fil8" d="M24614 27299c35,58 110,75 167,39 57,-35 75,-111 39,-168 -35,-58 -110,-76 -167,-40 -57,36 -74,112 -39,169z"/>
   <path class="fil7" d="M20646 29870c35,57 110,75 167,39 57,-36 74,-111 38,-169 -35,-57 -110,-75 -167,-39 -57,36 -74,112 -38,169z"/>
   <path class="fil8" d="M80524 19378c36,57 110,75 167,39 57,-36 75,-112 39,-169 -35,-58 -110,-75 -167,-39 -57,36 -74,111 -39,169z"/>
   <path class="fil8" d="M26540 7599c35,57 110,75 167,39 57,-36 74,-112 39,-169 -35,-57 -110,-75 -167,-39 -57,36 -74,111 -39,169z"/>
   <path class="fil8" d="M66593 16099c35,58 110,75 167,39 57,-36 74,-111 39,-169 -35,-57 -110,-75 -167,-39 -57,36 -74,112 -39,169z"/>
   <path class="fil7" d="M22153 4815c35,57 110,75 167,39 57,-36 74,-112 39,-169 -36,-58 -110,-75 -167,-39 -57,35 -75,111 -39,169z"/>
   <path class="fil8" d="M22237 30475c36,58 111,75 168,40 57,-36 74,-112 38,-169 -35,-58 -110,-75 -167,-39 -57,35 -74,111 -39,168z"/>
   <path class="fil8" d="M27137 31432c36,58 110,75 167,39 57,-36 75,-111 39,-169 -35,-57 -110,-75 -167,-39 -57,36 -74,112 -39,169z"/>
   <path class="fil7" d="M46793 28147c36,58 111,75 168,39 56,-35 74,-111 38,-169 -35,-57 -110,-75 -167,-39 -57,36 -74,112 -39,169z"/>
   <path class="fil8" d="M51698 31333c35,58 110,75 167,39 57,-36 74,-111 39,-169 -36,-57 -111,-75 -167,-39 -57,36 -75,112 -39,169z"/>
   <path class="fil8" d="M55725 32096c35,57 110,75 167,39 57,-36 74,-111 39,-169 -36,-57 -110,-75 -167,-39 -57,36 -75,111 -39,169z"/>
   <path class="fil8" d="M41593 30454c36,57 111,75 168,39 56,-36 74,-111 38,-169 -35,-57 -110,-75 -167,-39 -57,36 -74,111 -39,169z"/>
   <path class="fil9" d="M34211 14654l244 2047 381 2025c0,0 1598,-183 3224,-908l-538 -275c0,0 1006,-269 2547,-1721 -1904,-912 -2944,-862 -2944,-862l431 -426c-1766,-194 -3345,120 -3345,120z"/>
   <path class="fil10" d="M34293 15341l162 1360 253 1345c0,0 1062,-121 2142,-603l-358 -182c0,0 669,-180 1693,-1144 -1265,-606 -1956,-572 -1956,-572l286 -284c-1174,-129 -2222,80 -2222,80z"/>
   <polygon class="fil11" points="34369,14155 35136,19153 34540,19247 33774,14249 "/>
   <path class="fil12" d="M30324 20758c0,0 2576,3100 6773,1732 393,-128 394,-692 -1,-812 -1094,-332 -2559,-1058 -3063,-2615l-3709 1695z"/>
   <path class="fil12" d="M29302 14097c0,0 1526,-3743 5936,-3721 413,1 583,539 242,774 -942,650 -2122,1790 -2135,3428l-4043 -481z"/>
   <path class="fil13" d="M33782 14019c-1449,-250 -7375,-22 -13023,861 -6389,999 -13331,5133 -13194,6025 138,894 7994,2713 14383,1714 6027,-943 11364,-2476 12670,-3157l-836 -5443z"/>
   <path class="fil12" d="M13917 22677c403,-904 560,-1865 411,-2829 -148,-964 -585,-1832 -1240,-2570 -3162,1427 -5475,3016 -5524,3583 -1,15 -1,30 1,44 3,15 7,29 13,44 216,525 2898,1333 6339,1728z"/>
   <path class="fil11" d="M22907 16253c-1205,189 -2029,1327 -1843,2544 187,1216 1314,2049 2518,1860 1205,-188 2029,-1327 1843,-2543 -187,-1216 -1314,-2049 -2518,-1861z"/>
   <path class="fil11" d="M26977 16549c-707,110 -1190,778 -1081,1491 110,713 771,1202 1477,1092 706,-111 1190,-779 1080,-1492 -109,-713 -770,-1202 -1476,-1091z"/>
   <path class="fil14" d="M27324 18811c531,-83 895,-585 813,-1122l0 0c-83,-536 -580,-904 -1111,-820l0 0c-532,83 -896,585 -813,1122l0 0c35,228 145,425 300,571l0 0c211,196 505,297 811,249l0 0z"/>
   <path class="fil12" d="M34084 15979c1662,-260 3061,-130 3126,290 65,421 -1231,973 -2892,1233 -1662,260 -3062,130 -3126,-290 -65,-421 1230,-973 2892,-1233z"/>
   <path class="fil15" d="M60524 28852c0,0 1334,-2153 -765,-2395 -1769,-204 -2605,132 -2605,132 0,0 1372,-1955 -80,-2445 -1452,-491 -5176,669 -5176,669 0,0 486,-1636 -1234,-1317 -1720,318 -2957,1362 -2891,1834 0,0 -719,1837 4240,1489 0,0 163,3372 5323,2080 0,0 1734,2160 3188,-47z"/>
   <path class="fil8" d="M37865 32586c36,58 110,75 167,39 57,-36 75,-111 39,-169 -35,-57 -110,-75 -167,-39 -57,36 -74,112 -39,169z"/>
   <path class="fil8" d="M32113 29170c36,58 111,75 168,39 57,-36 74,-111 38,-169 -35,-57 -110,-75 -167,-39 -57,36 -74,112 -39,169z"/>
   <path class="fil8" d="M40038 24892c36,58 111,75 168,39 57,-35 74,-111 38,-169 -35,-57 -110,-75 -167,-39 -57,36 -74,112 -39,169z"/>
   <path class="fil8" d="M32148 32759c36,58 110,75 167,39 57,-35 75,-111 39,-168 -35,-58 -110,-76 -167,-40 -57,36 -74,112 -39,169z"/>
   <path class="fil7" d="M34190 33274c36,58 110,75 167,39 57,-35 75,-111 39,-169 -35,-57 -110,-75 -167,-39 -57,36 -74,112 -39,169z"/>
   <path class="fil7" d="M29234 28279c36,58 111,75 168,40 57,-36 74,-112 38,-169 -35,-58 -110,-76 -167,-40 -57,36 -74,112 -39,169z"/>
   <path class="fil8" d="M41950 27364c35,58 110,75 167,39 57,-35 74,-111 39,-169 -36,-57 -110,-75 -167,-39 -57,36 -75,112 -39,169z"/>
   <polygon class="fil16" points="15679,22404 15687,22379 15690,22405 "/>
   <polygon class="fil16" points="14705,21013 14705,21012 14706,21013 "/>
   <path class="fil8" d="M65619 11440c36,58 111,75 167,39 57,-35 75,-111 39,-169 -35,-57 -110,-75 -167,-39 -57,36 -74,112 -39,169z"/>
   <path class="fil8" d="M51724 19393c35,58 110,75 167,39 57,-35 74,-111 39,-169 -36,-57 -111,-75 -168,-39 -57,36 -74,112 -38,169z"/>
   <path class="fil7" d="M74174 20524c36,58 110,75 167,39 57,-35 75,-111 39,-169 -35,-57 -110,-75 -167,-39 -57,36 -74,112 -39,169z"/>
   <path class="fil7" d="M55606 14531c36,58 111,75 168,39 56,-36 74,-111 38,-169 -35,-57 -110,-75 -167,-39 -57,36 -74,112 -39,169z"/>
   <path class="fil8" d="M62044 30610c35,58 110,75 167,39 57,-36 74,-111 39,-169 -36,-57 -111,-75 -168,-39 -57,36 -74,112 -38,169z"/>
   <path class="fil8" d="M32846 23770c35,57 110,74 167,39 57,-36 74,-112 39,-169 -36,-58 -111,-75 -168,-39 -57,35 -74,111 -38,169z"/>
   <path class="fil8" d="M43485 21333c36,58 110,75 167,40 57,-36 75,-112 39,-169 -35,-58 -110,-75 -167,-39 -57,35 -74,111 -39,168z"/>
   <path class="fil8" d="M47644 23798c35,58 110,75 167,39 57,-35 74,-111 39,-169 -35,-57 -110,-75 -167,-39 -57,36 -74,112 -39,169z"/>
   <path class="fil8" d="M58826 18625c36,57 111,75 168,39 57,-36 74,-111 38,-169 -35,-57 -110,-75 -167,-39 -57,36 -74,112 -39,169z"/>
   <path class="fil8" d="M53927 20289c35,57 110,75 167,39 57,-36 74,-112 39,-169 -36,-57 -111,-75 -168,-39 -57,36 -74,111 -38,169z"/>
   <path class="fil8" d="M46024 19180c36,57 110,75 167,39 57,-36 75,-111 39,-169 -35,-57 -110,-75 -167,-39 -57,36 -74,111 -39,169z"/>
   <path class="fil8" d="M76987 31235c36,57 110,75 167,39 57,-36 75,-111 39,-169 -35,-57 -110,-75 -167,-39 -57,36 -74,111 -39,169z"/>
   <path class="fil7" d="M46890 20418c35,58 110,75 167,40 57,-36 74,-112 39,-169 -36,-58 -111,-75 -167,-39 -57,35 -75,111 -39,168z"/>
   <path class="fil8" d="M39682 19063c36,57 111,75 168,39 57,-36 74,-112 38,-169 -35,-58 -110,-75 -167,-39 -57,35 -74,111 -39,169z"/>
   <path class="fil8" d="M27087 23558c36,57 111,75 167,39 57,-36 75,-111 39,-169 -35,-57 -110,-75 -167,-39 -57,36 -74,111 -39,169z"/>
   <path class="fil8" d="M25619 30591c-267,9 -481,228 -483,499l-4 0c-2,-271 -216,-490 -483,-499 268,-9 483,-230 483,-503l4 0c0,273 215,494 483,503z"/>
   <path class="fil17" d="M39004 8209c322,-11 580,-275 582,-602l5 0c2,327 260,591 582,602 -323,11 -582,277 -582,606l-5 0c0,-329 -259,-595 -582,-606z"/>
   <path class="fil8" d="M66812 4964c-650,21 -1172,556 -1177,1217l-10 0c-4,-661 -526,-1196 -1177,-1217 654,-22 1178,-561 1178,-1226l9 0c0,665 524,1204 1177,1226z"/>
   <path class="fil18" d="M23633 8880c0,0 459,-282 687,-59 228,224 224,1445 224,1445l-997 -1041 86 -345z"/>
   <path class="fil19" d="M21840 9845c0,0 -734,200 -1013,363 -280,163 -781,649 -983,869 0,0 7,487 404,529 0,0 778,-556 1042,-608 265,-51 644,-136 644,-136l186 -932 -280 -85z"/>
   <path class="fil20" d="M19844 11077c0,0 -470,126 -559,247 -89,120 272,1 272,1 0,0 -401,268 -357,344 44,78 448,-204 448,-204 0,0 -418,256 -374,333 44,77 436,-186 436,-186 0,0 -270,279 -239,354 32,75 382,-223 382,-223 0,0 25,124 29,259 4,135 231,-20 366,-396l-404 -529z"/>
   <path class="fil11" d="M20302 11682c-22,14 -50,16 -76,5 -434,-187 -455,-587 -455,-604 -2,-47 34,-87 81,-89 47,-2 86,35 88,82 1,13 20,310 353,453 43,19 63,70 45,113 -8,18 -21,31 -36,40z"/>
   <path class="fil4" d="M20675 10311c0,0 246,524 432,757 0,0 77,53 183,-70 0,0 -13,-506 -267,-884 0,0 -204,2 -348,197z"/>
   <path class="fil21" d="M21962 10860l-56 4c-47,-556 90,-856 96,-868l51 24c-1,3 -136,300 -91,840z"/>
   <path class="fil20" d="M22048 9952c0,0 -477,1122 448,2168 0,0 -514,780 -588,1085 -74,305 179,1242 179,1242 0,0 -22,26 -51,71 40,41 145,117 374,125 130,5 300,-12 521,-70 22,-35 42,-70 60,-106 0,0 -126,-793 -198,-1037l570 -526 32 78c48,135 108,277 181,414 0,0 274,479 799,766 0,0 9,33 25,85 50,-1 156,-12 277,-64l79 -41c124,-72 263,-199 355,-424 -18,-30 -37,-60 -58,-89 0,0 -490,-364 -595,-587l-105 -1251c0,0 139,-321 -179,-866l-732 -1399 -1394 426z"/>
   <path class="fil5" d="M22484 10857c53,92 22,209 -69,262 -91,53 -207,22 -260,-70 -52,-92 -21,-209 70,-262 91,-53 207,-22 259,70z"/>
   <path class="fil11" d="M24677 14183l-6 2 -2 1 -4 1 -4 2 -1 1 -6 2 0 0 -5 2 -3 1 -3 1 -4 2 -1 0 -6 2 0 1 -5 1 -2 1 -4 1 -4 2 -1 0 -5 2 -1 0 -5 2 -2 1 -3 0 -4 2 -1 0 -5 2 -1 0 -4 1 -3 1 -3 1 -4 1 -1 0 -5 1 -1 1 -4 1 -3 1 -2 0 -4 1 -1 1 -5 1 -1 0 -3 1 -3 1 -2 0 -5 1 0 0 -5 1 -1 1 -3 0 -4 1 -1 0 -5 1 -4 1 -2 0 -3 1 -3 0 -1 1 -4 0 -1 0 -4 1 -1 0 -3 1 -3 0 -1 1 -4 0 0 0 -4 1 -2 0 -2 1 -3 0 -1 0 -4 1 -1 0 -3 0 -2 0 -2 1 -3 0 -1 0 -3 1 -1 0 -3 0 -1 0 -2 0 -3 1 -1 0 -3 0 -1 0 -1 0 -1 0 -2 0 -1 1 -3 0 -1 0 -3 0 -1 0 -2 0 -2 0 -1 0 -2 1 -1 0 -2 0 -1 0 -2 0 -2 0 -1 0 -2 0 -3 0 0 0 -2 0c-16,2 -25,1 -29,1 -47,-3 -83,-43 -80,-90 2,-47 41,-84 88,-82 19,1 428,10 594,-475 16,-44 64,-68 108,-53 44,16 68,65 53,109l-23 61 -4 10 -1 1 -4 10 -4 10 -1 1 -4 9 -1 2 -4 8 -1 3 -3 7 -2 4 -3 6 -2 4 -3 5 -2 5 -2 5 -4 5 -1 4 -4 6 -1 3 -4 7 -1 2 -5 8 0 1 -5 8 -1 0 -5 9 0 0 -5 8 -1 1 -4 8 -1 2 -4 6 -2 2 -4 6 -2 3 -3 5 -6 8 -3 4 -2 3 -4 5 -2 3 -4 5 -1 2 -5 7 -1 1 -5 6 0 1 -6 7 0 0 -5 7 -1 1 -5 6 -2 1 -4 5 -2 2 -4 5 -2 2 -4 4 -2 4 -3 3 -4 3 -2 3 -4 4 -2 2 -4 5 -2 1 -5 5 -1 1 -5 6 -1 0 -6 6 0 0 -6 6 0 0 -5 5 -1 1 -5 5 -2 1 -4 4 -2 2 -4 3 -3 3 -3 2 -3 3 -3 2 -4 3 -2 2 -4 4 -2 1 -5 4 -1 1 -5 4 -1 1 -6 4 0 0 -6 5 0 0 -6 4 -1 1 -5 3 -1 1 -5 4 -2 1 -4 3 -2 1 -4 3 -3 1 -3 2 -3 3 -3 1 -4 3 -2 1 -4 3 -1 1 -5 3 -2 0 -5 3 0 1 -6 3 -79 41z"/>
   <path class="fil4" d="M24519 13120c-124,356 -660,668 -751,559 -94,-73 -153,-201 -153,-201 254,-450 823,-486 823,-486 0,0 58,30 81,128z"/>
   <path class="fil21" d="M24395 11865c-15,9 -33,13 -51,11 -32,-3 -768,-71 -1075,584 -20,43 -70,61 -113,41 -42,-20 -60,-72 -40,-114 359,-766 1237,-682 1245,-681 47,5 81,47 76,94 -3,28 -19,52 -42,65z"/>
   <path class="fil11" d="M23033 14541c-5,4 -12,6 -18,8l-84 24 -11 3 -10 2 -2 0 -8 3 -10 2 -15 4 -5 1 -10 2 -10 3 -8 1 -2 1 -9 2 -19 4 -2 0 -8 2 -9 2 -9 2 -6 1 -3 1 -10 2 -9 1 -8 2 -1 0 -9 2 -9 1 -9 2 -2 0 -6 1 -9 2 -8 1 -6 1 -11 2 -9 1 -8 1 0 0 -8 1 -9 1 -8 1 -2 1 -6 0 -8 1 -8 1 -5 1 -3 0 -7 1 -8 1 -8 0 0 0 -7 1 -8 1 -7 0 -3 1 -5 0 -7 0 -7 1 -5 0 -2 0 -8 1 -7 0 -7 1 0 0 -7 0 -7 0 -6 0 -3 0 -4 1 -7 0 -7 0 -5 0 -1 0 -7 0 -6 0 -7 0 0 0 -6 0 -6 0 -7 0 -3 0 -3 -1 -6 0 -21 -1 -10 -1 0 0 -10 0 -9 -1 -1 0 -10 -1 -7 -1 -3 0 -9 -1 -6 -1 -3 0 -9 -1 -5 -1 -4 -1 -9 -1 -4 -1 -4 0 -9 -2 -3 0 -5 -1 -8 -2 -2 -1 -6 -1 -8 -2 -1 0 -7 -2 -7 -1 0 0 -7 -2 -7 -2 -1 0 -7 -2 -5 -2 -1 0 -7 -3 -5 -1 -1 -1 -7 -2 -4 -1 -2 -1 -6 -2 -3 -1 -3 -2 -6 -2 -2 -1 -4 -1 -5 -3 -2 0 -4 -2 -5 -3 -1 0 -4 -2 -5 -2 -1 -1 -4 -2 -5 -2 -4 -3 -4 -2 -1 0 -4 -3 -4 -2 0 0 -4 -3 -3 -1 -1 -1 -5 -3 -2 -1 -1 -1 -4 -3 -2 -1 -1 -1 -4 -2 -1 -1 -2 -2 -3 -2 -1 -1 -2 -2 -3 -2 -1 0 -2 -2 -3 -3 0 0 -2 -2 -3 -2 -2 -2 -2 -2 -1 0 -2 -2 -1 -2 -1 0 -2 -2 -2 -2 0 0 -19 -23c-27,-40 -16,-93 22,-119 37,-27 89,-17 116,20 8,8 170,176 812,-11 45,-14 92,13 105,58 12,39 -6,79 -39,98z"/>
   <path class="fil4" d="M21990 12989c0,0 608,179 803,441 196,263 -891,66 -891,66 0,0 -147,-251 88,-507z"/>
   <path class="fil21" d="M23260 12448c-31,19 -72,15 -100,-11 -325,-306 -630,-236 -643,-233 -46,10 -92,-17 -103,-63 -11,-46 16,-92 62,-104 16,-4 404,-98 799,274 35,32 37,87 5,121 -6,7 -13,12 -20,16z"/>
   <polygon class="fil21" points="23389,12894 23336,12914 23128,12367 23181,12347 "/>
   <path class="fil20" d="M23574 8212c342,598 133,1366 -467,1716 -600,349 -1363,148 -1705,-450 -342,-597 -133,-1365 467,-1715 600,-350 1363,-149 1705,449z"/>
   <path class="fil5" d="M23212 9754c-64,60 -136,114 -214,159 -558,326 -1268,139 -1587,-418 -145,-255 -183,-543 -128,-812l4 -13c10,-42 57,-62 94,-40 154,93 575,212 1407,-421 49,-38 120,-26 156,25 164,236 545,880 310,1478l-42 42z"/>
   <path class="fil20" d="M25363 11715c0,0 255,635 238,785 -18,149 -198,-189 -198,-189 0,0 107,473 23,498 -85,25 -185,-460 -185,-460 0,0 129,477 44,502 -84,25 -189,-438 -189,-438 0,0 5,390 -69,422 -74,32 -124,-426 -124,-426 0,0 -103,72 -198,167 -95,95 -153,-176 5,-543l653 -318z"/>
   <path class="fil19" d="M23679 9389c0,0 -566,273 -430,787 0,0 320,383 925,749 0,0 139,125 257,410 117,285 251,697 251,697 0,0 325,61 681,-317 0,0 -62,-774 -435,-1309 -374,-535 -1249,-1017 -1249,-1017z"/>
   <path class="fil11" d="M25157 12049c-182,106 -370,99 -472,66 -45,-14 -70,-62 -56,-107 14,-45 61,-70 106,-57 14,5 336,97 555,-280 24,-40 76,-54 116,-30 41,24 54,77 30,117 -81,141 -179,233 -279,291z"/>
   <path class="fil4" d="M24310 11100c0,0 678,-410 618,-694 0,0 104,96 206,382 0,0 -303,355 -764,416 0,0 -33,9 -60,-104z"/>
   <path class="fil21" d="M23353 10328c-6,3 -11,6 -18,9 -58,21 -123,-9 -145,-68 -200,-550 204,-886 446,-986 58,-24 124,4 148,62 24,58 -4,125 -61,149 -51,22 -492,225 -321,696 20,53 -2,111 -49,138z"/>
   <path class="fil20" d="M21890 15109c105,257 751,-88 1041,-536 -221,58 -391,75 -521,70 -229,-8 -334,-84 -374,-125 -32,47 -73,116 -107,193 -55,124 -91,273 -39,398z"/>
   <path class="fil20" d="M24953 15034c260,85 410,-298 352,-745 -25,-189 -87,-389 -194,-571 -92,225 -231,352 -355,424l-79 41c-121,52 -227,63 -277,64 12,38 28,85 48,138 88,230 255,567 505,649z"/>
   <circle class="fil22" cx="23244" cy="18455" r="1693"/>
   <path class="fil23" d="M23564 18935l0 319 -1278 0 0 -319 1278 0zm-1278 -959l0 -320c639,0 1278,0 1917,0l-319 320c-533,0 -1065,0 -1598,0zm1917 320c0,319 0,639 0,958l-319 0 0 -639 0 0 -1598 0 0 -319c639,0 1278,0 1917,0z"/>
   <path class="fil5" d="M12858 31954c0,0 144,327 847,1913l-1046 0 -429 -850 628 -1063z"/>
   <path class="fil17" d="M87769 27711c461,-16 831,-394 834,-863l7 0c3,469 373,847 834,863 -463,15 -834,397 -835,868l-6 0c0,-471 -371,-853 -834,-868z"/>
   <path class="fil7" d="M148432 6966c36,-57 111,-75 168,-39 57,36 74,111 38,169 -35,57 -110,75 -167,39 -57,-36 -74,-111 -39,-169z"/>
   <path class="fil8" d="M150439 29000c-58,35 -75,110 -40,167 36,57 112,74 169,39 58,-36 75,-111 39,-168 -35,-57 -111,-74 -168,-38z"/>
   <path class="fil8" d="M96875 21410c-57,36 -74,111 -39,167 36,57 112,75 169,39 58,-35 75,-110 39,-167 -35,-57 -111,-74 -169,-39z"/>
   <path class="fil8" d="M99781 22397c-57,36 -75,111 -39,168 36,57 111,74 169,38 57,-35 75,-110 39,-167 -36,-57 -111,-74 -169,-39z"/>
   <path class="fil8" d="M114421 28951c-58,35 -75,110 -39,167 35,57 111,74 169,39 57,-35 75,-110 39,-167 -36,-57 -112,-74 -169,-39z"/>
   <path class="fil8" d="M142539 8111c36,-57 111,-75 168,-39 57,36 74,112 38,169 -35,58 -110,75 -167,39 -57,-36 -74,-111 -39,-169z"/>
   <path class="fil8" d="M138821 31674c-58,35 -75,110 -39,167 35,57 111,74 169,39 57,-35 75,-110 39,-167 -36,-57 -112,-74 -169,-39z"/>
   <path class="fil8" d="M120771 15193c-58,35 -75,110 -39,167 35,57 111,74 169,39 57,-36 75,-111 39,-168 -36,-56 -112,-74 -169,-38z"/>
   <path class="fil8" d="M152238 22378c-57,36 -75,111 -39,167 36,57 112,75 169,39 58,-35 75,-110 39,-167 -36,-57 -111,-74 -169,-39z"/>
   <path class="fil7" d="M124046 3409c-58,35 -75,110 -39,167 35,57 111,74 168,39 58,-36 76,-111 40,-167 -36,-57 -112,-75 -169,-39z"/>
   <path class="fil7" d="M72416 11671c-57,36 -75,111 -39,168 36,57 112,74 169,38 58,-35 75,-110 39,-167 -36,-57 -111,-74 -169,-39z"/>
   <path class="fil8" d="M92202 17104c-58,35 -75,110 -40,167 36,57 112,74 169,39 58,-36 75,-111 39,-168 -35,-57 -111,-74 -168,-38z"/>
   <path class="fil8" d="M111959 5541c-58,35 -75,110 -39,167 35,57 111,74 169,39 57,-36 75,-111 39,-167 -36,-57 -112,-75 -169,-39z"/>
   <path class="fil7" d="M96958 29127c-57,36 -75,111 -39,168 36,57 112,74 169,38 58,-35 75,-110 39,-167 -36,-57 -111,-74 -169,-39z"/>
   <path class="fil8" d="M86927 6842c-57,35 -75,110 -39,167 36,57 111,74 169,39 57,-36 75,-110 39,-167 -36,-57 -111,-74 -169,-39z"/>
   <path class="fil8" d="M89636 22183c-58,36 -75,111 -40,168 36,57 112,74 169,38 58,-35 75,-110 40,-167 -36,-57 -112,-74 -169,-39z"/>
   <path class="fil8" d="M87972 17283c-58,36 -75,111 -39,168 35,57 111,74 169,38 57,-35 75,-110 39,-167 -36,-57 -112,-74 -169,-39z"/>
   <path class="fil8" d="M104719 3639c-57,36 -75,111 -39,167 36,57 112,75 169,39 58,-35 75,-110 39,-167 -36,-57 -111,-74 -169,-39z"/>
   <path class="fil8" d="M89672 11726c-58,35 -75,110 -39,167 36,57 111,74 169,39 57,-36 75,-111 39,-168 -36,-57 -112,-74 -169,-38z"/>
   <path class="fil7" d="M71226 25959c-58,35 -75,110 -39,167 35,57 111,74 168,39 58,-36 75,-111 40,-167 -36,-57 -112,-75 -169,-39z"/>
   <path class="fil8" d="M78977 4505c35,57 110,75 167,39 57,-36 74,-112 39,-169 -35,-58 -110,-75 -167,-39 -57,35 -74,111 -39,169z"/>
   <path class="fil24" d="M67067 22197c0,-1204 965,-2170 2169,-2170 1196,0 2161,966 2161,2170 0,1195 -965,2160 -2161,2160 -1204,0 -2169,-965 -2169,-2160z"/>
   <path class="fil25" d="M70910 20816c301,380 487,858 487,1381 0,1195 -965,2160 -2161,2160 -673,0 -1266,-301 -1664,-770 0,0 1638,620 2638,-381 1010,-1009 700,-2391 700,-2391l0 1z"/>
   <path class="fil26" d="M68015 21391c-186,0 -186,-292 0,-292 194,0 194,292 0,292z"/>
   <path class="fil26" d="M67917 22702c-195,0 -195,-293 0,-293 186,0 186,293 0,293z"/>
   <path class="fil27" d="M69936 20842c-27,35 -62,71 -97,97 -53,62 -151,62 -213,0 -53,-53 -53,-150 0,-203 36,-36 71,-71 106,-98 54,-62 151,-62 204,0 62,53 62,151 0,204l0 0z"/>
   <path class="fil24" d="M152967 14190c598,-1035 1927,-1391 2962,-794 1035,598 1385,1924 788,2959 -597,1035 -1918,1389 -2953,791 -1035,-597 -1394,-1921 -797,-2956z"/>
   <path class="fil25" d="M156976 14921c82,477 3,980 -259,1434 -597,1035 -1918,1389 -2953,791 -580,-335 -943,-895 -1051,-1504 0,0 1100,1357 2472,989 1373,-368 1791,-1711 1791,-1711l0 1z"/>
   <path class="fil26" d="M153930 16125c35,-9 69,-18 104,-27 51,-14 86,-75 72,-126 -19,-55 -74,-87 -131,-76 -35,9 -64,22 -95,25 -55,20 -90,80 -76,132 14,51 74,86 126,72l0 0z"/>
   <path class="fil26" d="M154677 13681c-120,-70 -228,116 -107,186 115,66 222,-120 107,-186z"/>
   <path class="fil27" d="M155545 15642l-66 -38c-76,-44 -146,76 -69,120l65 38c77,45 147,-76 70,-120z"/>
   <path class="fil26" d="M154987 15736c-153,-89 -295,158 -142,246 159,92 301,-155 142,-246z"/>
   <path class="fil28" d="M154423 14651c-273,-158 -520,269 -246,427 274,158 520,-269 246,-427z"/>
   <path class="fil29" d="M119281 15636c-74,0 -149,-12 -224,-37 -75,-24 -136,-78 -183,-160 -32,45 -69,80 -111,106 -42,27 -87,47 -137,60 -49,13 -100,22 -154,26 -53,3 -105,5 -157,5l-1703 0c-152,0 -280,-11 -384,-33 -104,-22 -187,-58 -248,-107 -62,-49 -106,-112 -132,-190 -26,-78 -39,-172 -39,-283l0 -641 504 0 0 572c0,52 7,93 20,122 14,30 37,54 70,72 34,17 79,29 136,34 57,5 129,8 218,8l1477 0c88,0 150,-14 185,-41 34,-27 52,-89 52,-183l0 -874 500 0 0 831c0,95 20,164 60,205 41,41 124,62 250,62 20,0 40,2 58,6 19,5 35,14 50,27 14,14 25,35 33,64 7,28 11,67 11,117 0,88 -13,149 -37,182 -25,34 -63,50 -115,50zm-2146 1215c0,-75 28,-139 82,-194 54,-54 119,-81 195,-81 75,0 139,27 193,81 54,55 81,119 81,194 0,74 -27,139 -81,193 -54,54 -118,81 -193,81 -75,0 -140,-27 -194,-81 -55,-54 -83,-119 -83,-193zm-316 -563c0,-74 27,-139 81,-193 54,-55 119,-82 193,-82 75,0 139,27 194,82 54,54 81,119 81,193 0,74 -27,139 -81,193 -55,55 -119,82 -194,82 -74,0 -139,-27 -193,-82 -54,-54 -81,-119 -81,-193zm631 0c0,-74 27,-139 81,-193 54,-55 119,-82 195,-82 75,0 139,27 194,82 54,54 81,119 81,193 0,74 -27,139 -81,193 -55,55 -119,82 -194,82 -75,0 -139,-27 -194,-82 -55,-54 -82,-119 -82,-193zm1829 -652c-20,0 -39,-2 -57,-5 -19,-4 -35,-14 -50,-30 -14,-16 -25,-38 -33,-66 -8,-29 -11,-67 -11,-117 0,-88 12,-149 37,-183 24,-32 63,-49 114,-49l614 0 0 -1094 507 0 0 1544 -1121 0zm44 652c0,-74 27,-139 81,-193 54,-55 119,-82 193,-82 75,0 139,27 194,82 54,54 81,119 81,193 0,74 -27,139 -81,193 -55,55 -119,82 -194,82 -74,0 -139,-27 -193,-82 -54,-54 -81,-119 -81,-193zm631 0c0,-74 27,-139 81,-193 54,-55 120,-82 195,-82 75,0 139,27 194,82 54,54 81,119 81,193 0,74 -27,139 -81,193 -55,55 -119,82 -194,82 -74,0 -139,-27 -194,-82 -55,-54 -82,-119 -82,-193zm2489 -652c-75,0 -138,-4 -191,-11 -53,-7 -99,-19 -138,-35 -38,-16 -75,-36 -109,-61 -34,-25 -69,-53 -104,-86 -74,86 -155,140 -242,161 -88,21 -181,32 -283,32l-674 0 0 -446 767 0c62,0 108,-10 139,-29 30,-19 45,-42 45,-68 0,-29 -12,-64 -37,-105 -25,-42 -70,-110 -138,-206l-353 -523 461 -295 466 788c50,83 92,153 128,210 37,57 69,102 99,135 29,34 57,58 83,71 26,14 53,22 81,22 20,0 39,2 58,6 20,5 36,14 50,27 13,14 24,35 32,64 7,28 11,67 11,117 0,88 -12,149 -37,182 -24,34 -62,50 -114,50zm411 -2214c0,-74 27,-139 81,-194 54,-55 120,-83 195,-83 75,0 139,27 194,82 54,54 81,119 81,195 0,74 -27,139 -81,193 -55,55 -119,82 -194,82 -74,0 -139,-27 -194,-82 -55,-54 -82,-119 -82,-193zm36 1768l0 -1098 508 0 0 1544 -955 0c-20,0 -39,-2 -58,-5 -18,-4 -35,-13 -49,-28 -15,-14 -26,-36 -33,-64 -8,-29 -11,-68 -11,-117 0,-88 12,-149 37,-183 24,-33 62,-49 114,-49l447 0zm2027 446c-35,0 -81,-7 -141,-24 -59,-15 -111,-49 -155,-100 -2,175 -23,322 -61,440 -39,118 -97,213 -175,286 -77,72 -176,124 -294,155 -119,31 -262,48 -428,50l0 -473c106,-3 190,-15 253,-38 62,-22 109,-54 140,-98 30,-43 51,-99 60,-169 9,-68 13,-151 13,-247l0 -1155 500 0 0 660c0,100 30,170 92,208 61,39 126,59 196,59 20,0 39,2 57,6 19,5 35,14 50,27 14,14 25,35 33,64 8,28 11,67 11,117 0,88 -12,149 -37,182 -24,34 -63,50 -114,50zm157 -446c57,0 104,-2 141,-4 37,-3 68,-11 91,-23 23,-13 40,-32 51,-56 11,-25 16,-59 16,-104l0 -740 497 0 0 660c0,82 22,148 67,195 45,48 115,72 211,72 75,0 139,-12 192,-35 54,-22 81,-73 81,-152l0 -740 503 0 0 660c0,177 77,267 230,267l240 0 0 -1098 504 0 0 1544 -593 0c-138,0 -241,-16 -312,-48 -69,-32 -128,-83 -177,-153 -39,50 -81,88 -125,114 -43,27 -89,47 -136,60 -47,13 -92,21 -137,23 -45,3 -88,4 -130,4 -131,0 -242,-21 -332,-64 -89,-43 -153,-88 -191,-137 -69,91 -160,148 -272,169 -111,21 -254,32 -427,32l-151 0c-20,0 -40,-2 -58,-5 -19,-4 -35,-13 -50,-28 -14,-14 -25,-36 -33,-64 -7,-29 -11,-68 -11,-117 0,-88 13,-149 37,-183 25,-33 63,-49 115,-49l159 0zm4133 656c0,-120 7,-225 19,-312 13,-87 38,-162 76,-225 38,-64 89,-118 153,-165 64,-47 147,-91 249,-133 25,-165 69,-304 131,-416 63,-113 132,-203 210,-272 78,-69 159,-118 244,-148 86,-30 165,-44 236,-44 106,0 204,19 292,58 89,39 164,93 226,163 62,69 110,154 145,252 34,99 52,206 52,322 0,233 -58,417 -173,553 -115,137 -288,205 -521,205 -220,0 -447,-78 -683,-233 -52,25 -89,70 -111,133 -22,64 -33,154 -33,270l0 1322 -512 0 0 -1330zm1555 -931c0,-84 -24,-158 -74,-224 -49,-66 -119,-98 -208,-98 -77,0 -151,37 -222,112 -72,75 -119,202 -140,380 67,39 137,71 210,96 72,25 134,37 186,37 72,0 132,-28 178,-83 47,-56 70,-130 70,-220zm1404 -2048l0 2769 -501 0 0 -2769 501 0zm1808 1396l504 0 0 1155c0,186 -14,344 -42,474 -29,130 -78,235 -149,315 -71,80 -169,139 -295,177 -125,37 -286,57 -480,59l0 -473c104,-3 187,-15 249,-38 63,-22 110,-54 141,-98 31,-43 50,-99 59,-169 9,-68 13,-151 13,-247l0 -1155zm1470 -1396l0 2769 -500 0 0 -2769 500 0zm-934 -496c75,-72 141,-120 201,-144 59,-24 115,-36 166,-36 52,0 112,12 181,37 69,24 132,51 189,81 56,28 111,51 163,66 51,14 96,22 132,22 50,0 90,-19 120,-55 31,-38 53,-77 66,-119l201 89c-44,116 -95,205 -152,266 -56,60 -135,90 -235,90 -72,0 -139,-9 -202,-28 -62,-19 -123,-43 -182,-72 -57,-25 -111,-48 -163,-67 -52,-20 -100,-30 -144,-30 -37,0 -71,6 -102,17 -31,11 -69,35 -116,68l-123 -185zm4831 3265c5,23 9,49 12,77 4,29 6,62 6,101 0,106 -20,203 -59,291 -40,88 -110,164 -212,230 -100,64 -236,115 -407,151 -170,36 -386,54 -648,54 -253,0 -462,-24 -626,-72 -165,-48 -295,-114 -393,-198 -97,-84 -165,-182 -203,-295 -39,-112 -58,-234 -58,-365l0 -644 504 0 0 627c0,167 61,290 183,366 122,77 322,115 601,115 181,0 326,-10 436,-30 110,-20 195,-46 256,-77 62,-31 102,-64 121,-98 18,-34 28,-63 28,-88 0,-68 -66,-125 -200,-171 -133,-47 -312,-98 -537,-155l0 -463c171,55 334,101 489,139 155,39 295,59 419,59l485 0c20,0 39,2 58,6 19,5 35,14 50,27 13,14 24,35 31,64 8,28 12,67 12,117 0,88 -12,149 -37,182 -24,34 -63,50 -114,50l-197 0zm356 -446c57,0 104,-2 141,-4 37,-3 68,-11 91,-23 23,-13 40,-32 51,-56 11,-25 16,-59 16,-104l0 -740 497 0 0 660c0,82 22,148 67,195 45,48 115,72 211,72 75,0 139,-12 192,-35 54,-22 81,-73 81,-152l0 -740 503 0 0 660c0,177 77,267 230,267l240 0 0 -1098 504 0 0 1544 -593 0c-138,0 -241,-16 -312,-48 -69,-32 -128,-83 -177,-153 -39,50 -81,88 -125,114 -43,27 -89,47 -136,60 -47,13 -92,21 -137,23 -45,3 -88,4 -130,4 -131,0 -242,-21 -332,-64 -89,-43 -153,-88 -191,-137 -69,91 -160,148 -272,169 -111,21 -254,32 -427,32l-151 0c-20,0 -40,-2 -58,-5 -19,-4 -35,-13 -50,-28 -14,-14 -25,-36 -33,-64 -7,-29 -11,-68 -11,-117 0,-88 13,-149 37,-183 25,-33 63,-49 115,-49l159 0zm-25047 6024c-86,0 -157,-19 -214,-57 -57,-39 -99,-84 -127,-136 0,186 -11,343 -32,471 -23,128 -65,232 -127,311 -62,79 -147,136 -256,170 -108,35 -249,52 -424,52l0 -322c126,0 225,-13 297,-40 71,-28 124,-72 160,-132 35,-61 56,-139 62,-233 7,-95 9,-209 9,-343l0 -1040 315 0 0 551c0,132 24,236 72,312 48,76 137,114 265,114 104,0 155,52 155,156 0,64 -12,108 -36,132 -25,23 -64,34 -119,34zm-2 0c-103,0 -155,-51 -155,-155 0,-64 12,-108 37,-132 25,-23 64,-35 118,-35l260 0c62,0 115,-2 159,-7 44,-5 81,-18 111,-37 30,-20 51,-48 66,-85 15,-37 22,-88 22,-153l0 -888 318 0 0 744c0,64 4,123 13,176 9,53 26,98 52,134 26,36 61,64 104,85 44,21 100,31 168,31 104,0 155,52 155,156 0,64 -12,108 -36,132 -25,23 -64,34 -119,34 -101,0 -182,-23 -244,-71 -62,-49 -104,-108 -126,-181 -46,106 -119,175 -218,206 -99,31 -221,46 -367,46l-318 0zm307 586c0,-57 20,-105 60,-145 41,-40 89,-60 146,-60 57,0 105,20 145,60 40,40 60,88 60,145 0,56 -20,105 -60,146 -40,40 -88,60 -145,60 -57,0 -105,-20 -146,-60 -40,-41 -60,-90 -60,-146zm503 0c0,-57 21,-105 61,-145 41,-40 89,-60 146,-60 57,0 105,20 145,60 40,40 60,88 60,145 0,56 -20,105 -60,146 -40,40 -88,60 -145,60 -57,0 -105,-20 -146,-60 -40,-41 -61,-90 -61,-146zm598 -908c86,0 158,-2 216,-7 59,-5 106,-18 142,-37 35,-20 60,-48 76,-85 14,-37 22,-88 22,-153l0 -695 318 0 0 551c0,64 5,123 13,176 8,53 26,98 55,134 28,36 69,64 122,85 53,21 125,31 214,31 57,0 106,-2 148,-7 41,-5 76,-18 105,-37 28,-20 49,-48 63,-85 14,-37 21,-88 21,-153l0 -695 318 0 0 551c0,64 5,123 15,176 9,53 27,98 55,134 27,36 64,64 112,85 48,21 111,31 188,31 44,0 84,-2 120,-7 36,-5 67,-18 93,-37 26,-20 46,-48 61,-85 14,-37 21,-88 21,-153l0 -888 318 0 0 744c0,64 5,123 14,176 9,53 26,98 51,134 27,36 61,64 105,85 44,21 99,31 168,31 103,0 155,52 155,156 0,64 -12,108 -37,132 -25,23 -64,34 -118,34 -101,0 -183,-23 -245,-71 -62,-49 -103,-108 -125,-181 -23,55 -54,98 -97,130 -41,33 -86,58 -132,76 -47,18 -92,31 -135,37 -44,6 -82,9 -113,9 -86,0 -158,-7 -216,-23 -58,-16 -106,-36 -145,-60 -38,-24 -69,-51 -91,-81 -22,-31 -39,-60 -52,-88 -47,106 -118,175 -215,206 -97,31 -212,46 -347,46 -92,0 -167,-7 -228,-22 -60,-14 -110,-33 -149,-57 -38,-24 -69,-52 -92,-83 -24,-32 -43,-63 -58,-94 -23,55 -52,98 -87,130 -36,33 -81,59 -136,78 -56,20 -125,33 -206,39 -82,6 -179,9 -293,9l-129 0c-103,0 -155,-51 -155,-155 0,-64 12,-108 37,-132 25,-23 64,-35 118,-35l137 0zm3156 322c-104,0 -156,-51 -156,-155 0,-64 13,-108 37,-132 25,-23 64,-35 119,-35l159 0c31,0 64,-3 97,-11 34,-7 67,-24 100,-50 34,-26 67,-62 99,-107 32,-46 63,-107 92,-184 59,-165 122,-299 188,-401 65,-103 132,-181 201,-237 69,-56 139,-93 211,-111 71,-18 141,-27 211,-27 96,0 186,18 270,55 84,38 156,91 217,159 60,69 108,151 143,245 34,94 51,199 51,317 0,225 -53,402 -159,532 -106,129 -271,194 -496,194 -124,0 -247,-21 -370,-63 -124,-42 -250,-111 -381,-210 -35,51 -69,92 -104,122 -35,30 -72,52 -111,66 -39,15 -79,24 -120,28 -41,4 -85,5 -132,5l-166 0zm1717 -686c0,-56 -7,-112 -24,-167 -16,-55 -41,-103 -74,-144 -33,-41 -72,-74 -118,-98 -47,-25 -100,-37 -162,-37 -109,0 -209,48 -300,144 -90,96 -176,264 -255,504 96,62 191,111 285,149 94,38 190,57 289,57 109,0 195,-31 261,-93 65,-62 98,-166 98,-315zm2145 -613l314 0 0 1082c0,192 -11,353 -33,484 -22,130 -64,236 -126,316 -62,80 -148,138 -258,174 -110,36 -251,54 -426,54l0 -322c126,0 225,-13 297,-40 71,-28 125,-72 160,-132 35,-61 56,-139 62,-233 7,-95 10,-209 10,-343l0 -1040zm2129 873c0,124 -43,226 -128,306 -85,80 -209,120 -372,120l-928 0 0 -322 901 0c89,0 144,-13 167,-40 23,-27 34,-58 34,-92 0,-25 -5,-52 -15,-81 -10,-28 -35,-74 -76,-138 -40,-64 -99,-152 -175,-264 -76,-113 -181,-265 -312,-458l300 -188c103,178 193,328 269,450 75,122 138,225 187,310 49,86 86,159 111,220 25,62 37,120 37,177zm2349 260c0,64 -12,108 -37,132 -24,23 -64,34 -118,34l-101 0c-83,0 -159,-8 -227,-25 -68,-17 -126,-46 -175,-87 -47,-41 -85,-96 -112,-165 -27,-69 -41,-155 -41,-259l0 -2233 318 0 0 2148c0,109 18,186 51,231 35,46 110,68 226,68l61 0c103,0 155,52 155,156zm2231 166c-98,0 -183,-19 -256,-57 -73,-39 -131,-105 -176,-199l0 -7c-49,99 -121,176 -214,231 -95,56 -213,84 -355,84 -124,0 -248,-21 -371,-63 -123,-42 -250,-111 -381,-210 -34,51 -69,92 -104,122 -35,30 -71,52 -111,66 -39,15 -79,24 -120,28 -41,4 -85,5 -131,5l-167 0c-104,0 -155,-51 -155,-155 0,-64 12,-108 37,-132 24,-23 64,-35 118,-35l159 0c32,0 64,-3 98,-11 33,-7 67,-24 100,-50 33,-26 66,-62 99,-107 31,-46 62,-107 91,-184 59,-165 122,-299 188,-401 65,-103 133,-181 202,-237 68,-56 139,-93 210,-111 71,-18 141,-27 211,-27 96,0 186,18 270,55 84,38 156,91 217,159 60,69 108,151 143,245 34,94 52,199 52,317 0,18 -1,35 -2,52 -2,17 -2,33 -2,48 26,84 63,146 113,189 50,42 129,63 237,63 104,0 155,52 154,156 0,64 -12,108 -36,132 -24,23 -63,34 -118,34zm-668 -686c0,-56 -8,-112 -25,-167 -16,-55 -41,-103 -74,-144 -33,-41 -72,-74 -118,-98 -46,-25 -100,-37 -162,-37 -109,0 -208,48 -299,144 -91,96 -176,264 -256,504 96,62 191,111 285,149 94,38 190,57 289,57 109,0 196,-31 261,-93 66,-62 99,-166 99,-315zm803 364c86,0 158,-2 216,-7 59,-5 106,-18 142,-37 35,-20 60,-48 76,-85 14,-37 22,-88 22,-153l0 -699 318 0 0 555c0,64 5,123 13,176 8,53 26,98 55,134 28,36 68,64 120,85 52,21 123,31 212,31 57,0 107,-2 150,-7 43,-5 78,-18 107,-37 28,-20 49,-48 63,-85 14,-37 21,-88 21,-153l0 -695 318 0 0 551c0,64 5,123 15,176 9,53 26,98 51,134 24,36 59,64 102,85 44,21 99,31 167,31l326 0 0 -1170 317 0 0 1492 -643 0c-101,0 -181,-23 -243,-71 -61,-49 -102,-108 -122,-181 -47,106 -120,175 -218,206 -98,31 -217,46 -356,46 -91,0 -166,-7 -223,-22 -58,-14 -107,-33 -146,-57 -38,-24 -68,-52 -90,-83 -22,-32 -41,-63 -56,-94 -23,55 -52,98 -87,130 -36,33 -81,59 -136,78 -56,20 -125,33 -206,39 -82,6 -179,9 -293,9l-129 0c-103,0 -155,-51 -155,-155 0,-64 12,-108 37,-132 25,-23 64,-35 118,-35l137 0zm1190 -1823c0,-57 20,-106 61,-145 40,-40 88,-60 145,-60 57,0 106,20 145,60 40,39 60,88 60,145 0,56 -20,105 -60,145 -39,41 -88,61 -145,61 -57,0 -105,-20 -145,-61 -41,-40 -61,-89 -61,-145zm504 0c0,-57 20,-106 61,-145 40,-40 89,-60 146,-60 56,0 104,20 144,60 40,39 60,88 60,145 0,56 -20,105 -60,145 -40,41 -88,61 -144,61 -57,0 -106,-20 -146,-61 -41,-40 -61,-89 -61,-145zm-245 -465c0,-57 21,-105 61,-146 41,-40 89,-60 146,-60 57,0 105,20 145,60 39,41 60,89 60,146 0,57 -21,105 -60,145 -40,40 -88,60 -145,60 -57,0 -105,-20 -146,-60 -40,-40 -61,-88 -61,-145zm3444 1377c-65,0 -124,15 -179,45 -54,30 -100,69 -139,118 -40,50 -70,106 -91,170 -22,65 -33,133 -33,205 0,70 12,130 35,181 22,52 54,93 94,125 41,33 87,55 140,69 53,14 109,21 169,21 54,0 108,-6 161,-17 53,-11 100,-32 142,-61 42,-30 75,-69 100,-117 26,-48 39,-109 39,-184 0,-86 -13,-162 -37,-229 -24,-67 -56,-125 -97,-174 -40,-49 -86,-87 -139,-113 -53,-26 -108,-39 -165,-39zm-733 571c0,-104 16,-208 50,-313 33,-105 83,-200 147,-285 66,-86 144,-154 235,-207 92,-54 196,-80 312,-80 101,0 195,20 281,60 87,39 163,97 230,174 66,76 118,169 155,277 37,109 56,233 56,374 0,85 -14,168 -41,249 -27,81 -71,154 -132,218 -60,63 -138,115 -232,155 -95,39 -209,59 -340,59 -108,0 -207,-13 -294,-41 -88,-27 -164,-69 -228,-126 -64,-56 -113,-127 -147,-212 -35,-86 -52,-187 -52,-302zm2248 -2107l0 2769 -318 0 0 -2769 318 0zm1477 2769c-86,0 -157,-19 -214,-57 -57,-39 -99,-84 -127,-136 0,186 -11,343 -33,471 -22,128 -64,232 -126,311 -62,79 -147,136 -256,170 -108,35 -249,52 -424,52l0 -322c126,0 225,-13 297,-40 71,-28 124,-72 160,-132 35,-61 56,-139 62,-233 7,-95 9,-209 9,-343l0 -1040 315 0 0 551c0,132 24,236 72,312 48,76 136,114 265,114 103,0 155,52 155,156 0,64 -12,108 -37,132 -24,23 -64,34 -118,34zm2384 0c-98,0 -183,-19 -256,-57 -73,-39 -131,-105 -175,-199l0 -7c-50,99 -121,176 -215,231 -94,56 -213,84 -355,84 -124,0 -248,-21 -371,-63 -123,-42 -250,-111 -381,-210 -34,51 -69,92 -103,122 -35,30 -72,52 -112,66 -38,15 -79,24 -120,28 -41,4 -85,5 -131,5l-167 0c-103,0 -155,-51 -155,-155 0,-64 12,-108 37,-132 24,-23 64,-35 118,-35l159 0c32,0 64,-3 98,-11 33,-7 67,-24 100,-50 34,-26 67,-62 99,-107 32,-46 63,-107 92,-184 59,-165 121,-299 187,-401 65,-103 133,-181 202,-237 68,-56 139,-93 210,-111 71,-18 142,-27 211,-27 96,0 186,18 270,55 84,38 157,91 217,159 60,69 108,151 143,245 34,94 52,199 52,317 0,18 -1,35 -2,52 -1,17 -2,33 -2,48 26,84 63,146 113,189 50,42 129,63 237,63 105,0 156,52 154,156 0,64 -12,108 -36,132 -24,23 -63,34 -118,34zm-668 -686c0,-56 -8,-112 -25,-167 -16,-55 -40,-103 -73,-144 -33,-41 -73,-74 -119,-98 -46,-25 -100,-37 -162,-37 -109,0 -208,48 -299,144 -91,96 -176,264 -256,504 96,62 191,111 285,149 94,38 191,57 289,57 109,0 196,-31 262,-93 65,-62 98,-166 98,-315zm667 686c-104,0 -156,-51 -156,-155 0,-64 13,-108 37,-132 25,-23 64,-35 119,-35l617 0c-25,-36 -50,-88 -74,-155 -24,-67 -36,-150 -36,-248 0,-134 32,-260 94,-378 63,-118 158,-201 287,-247 -52,0 -104,0 -155,2 -52,1 -105,3 -159,6l0 -290c281,-16 534,-3 758,39 224,40 413,115 566,222 154,107 271,251 353,431 81,180 122,399 122,656l0 284 -2373 0zm1089 -322c54,0 100,-13 136,-40 37,-27 66,-61 86,-100 21,-41 35,-85 43,-132 7,-48 11,-93 11,-135 0,-57 -5,-112 -15,-165 -10,-53 -27,-100 -50,-142 -24,-41 -53,-74 -90,-96 -37,-23 -81,-35 -133,-35 -91,0 -161,42 -211,125 -50,82 -74,190 -74,321 0,46 3,93 13,140 9,47 24,89 46,126 22,37 50,68 85,93 35,24 79,38 134,40l19 0zm958 0c0,-276 -56,-490 -169,-640 -112,-150 -265,-255 -458,-314 45,34 80,74 108,119 28,45 51,92 69,139 19,48 31,95 37,143 6,49 10,93 10,135 0,98 -9,182 -27,250 -17,68 -39,125 -62,168l492 0zm-30002 4267l-314 0 0 -2076 314 0 0 2076zm-382 501c-2,-65 21,-119 64,-163 44,-44 99,-67 163,-67 65,0 119,23 163,67 44,44 66,98 66,163 0,64 -22,118 -66,163 -44,44 -98,66 -163,66 -64,0 -119,-22 -163,-66 -44,-45 -66,-99 -64,-163zm-4628 185c-86,0 -157,-19 -214,-57 -56,-39 -99,-84 -126,-136 0,185 -11,343 -33,471 -23,128 -64,232 -126,311 -62,78 -148,135 -256,170 -109,35 -250,52 -425,52l0 -322c127,0 225,-14 297,-41 71,-27 124,-71 160,-132 35,-60 56,-138 63,-232 6,-95 9,-209 9,-343l0 -1040 315 0 0 551c0,131 24,236 71,312 48,76 137,114 265,114 104,0 156,52 156,155 0,65 -13,109 -37,132 -25,24 -64,35 -119,35zm-706 -2146c0,-57 21,-105 61,-144 40,-40 89,-61 146,-61 57,0 104,20 144,61 40,39 60,87 60,144 0,57 -20,106 -60,146 -39,40 -87,61 -144,61 -57,0 -106,-20 -146,-61 -41,-40 -61,-89 -61,-146zm704 2146c-102,0 -155,-51 -155,-155 0,-65 13,-109 37,-132 25,-23 64,-35 118,-35l260 0c62,0 115,-2 159,-7 44,-5 81,-18 111,-37 30,-20 52,-48 66,-86 15,-37 22,-88 22,-152l0 -889 318 0 0 745c0,64 5,123 14,176 8,53 25,98 51,134 26,35 61,64 104,85 44,21 100,31 169,31 103,0 155,52 155,155 0,65 -13,109 -37,132 -25,24 -64,35 -118,35 -101,0 -183,-24 -245,-72 -62,-48 -103,-107 -125,-180 -47,106 -120,175 -219,206 -99,31 -221,46 -366,46l-319 0zm307 585c0,-57 20,-105 61,-144 40,-40 88,-60 145,-60 57,0 106,20 145,60 40,40 60,87 60,144 0,57 -20,106 -60,146 -39,40 -88,61 -145,61 -57,0 -105,-20 -145,-61 -41,-40 -61,-89 -61,-146zm504 0c0,-57 20,-104 60,-144 41,-40 90,-60 146,-60 57,0 105,20 145,60 40,40 60,87 60,144 0,57 -20,106 -60,146 -40,41 -88,61 -145,61 -56,0 -105,-20 -146,-61 -40,-40 -60,-89 -60,-146zm461 -585c-103,0 -156,-51 -156,-155 0,-65 13,-109 37,-132 25,-23 64,-35 119,-35l869 0c142,0 245,-22 307,-68 62,-46 93,-106 93,-180 0,-69 -29,-148 -86,-235 -56,-87 -135,-175 -236,-264 -101,-89 -220,-177 -355,-263 -136,-87 -283,-165 -441,-234 2,-32 8,-64 17,-98 9,-33 20,-64 31,-92 13,-29 25,-53 37,-73 13,-19 24,-32 34,-37l1451 -625 0 323 -1140 503c274,141 492,289 653,447 162,158 270,316 324,474 32,91 62,163 90,217 29,53 59,96 91,128 33,31 68,52 106,62 37,10 81,15 128,15 104,0 156,52 156,155 0,65 -13,109 -37,132 -25,23 -64,35 -119,35 -54,0 -104,-3 -148,-9 -45,-6 -88,-20 -126,-41 -40,-21 -77,-51 -111,-91 -35,-40 -68,-93 -99,-162l-16 0c-49,122 -132,202 -248,242 -116,41 -259,61 -426,61l-799 0zm214 -2033c0,-36 6,-73 20,-112 14,-38 31,-74 51,-106 19,-32 40,-61 62,-85 22,-25 40,-42 56,-50l1318 -601 0 292 -1507 662zm2298 -113c0,-57 21,-105 61,-144 40,-40 89,-61 146,-61 57,0 105,20 145,61 39,39 59,87 59,144 0,57 -20,106 -59,146 -40,40 -88,61 -145,61 -57,0 -105,-20 -146,-61 -40,-40 -61,-89 -61,-146zm-542 2146c-103,0 -156,-51 -156,-155 0,-65 13,-109 37,-132 25,-23 64,-35 119,-35l604 0 0 -1171 318 0 0 1493 -922 0zm5835 0c-101,0 -183,-23 -245,-72 -61,-48 -103,-107 -124,-180 -23,54 -54,98 -92,130 -39,32 -88,58 -146,76 -59,18 -130,30 -212,37 -83,6 -180,9 -291,9l-1578 0c-150,0 -276,-10 -375,-31 -100,-21 -180,-54 -241,-99 -60,-45 -104,-103 -129,-174 -26,-71 -39,-159 -39,-262l0 -601 318 0 0 485c0,80 10,144 30,192 19,47 52,84 98,109 46,24 109,40 189,48 80,7 183,11 308,11l1415 0c86,0 159,-2 218,-7 59,-6 106,-18 141,-37 34,-20 60,-48 76,-86 15,-36 23,-88 23,-152l0 -889 319 0 0 745c0,64 4,123 13,176 9,53 26,98 52,134 26,36 61,64 105,85 44,21 100,31 167,31 103,0 155,52 155,155 0,65 -12,109 -37,132 -25,24 -64,35 -118,35zm-2351 -1921c0,-57 20,-105 61,-144 40,-40 88,-61 145,-61 57,0 105,21 145,61 40,39 60,87 60,144 0,57 -20,105 -60,146 -40,40 -88,61 -145,61 -57,0 -105,-21 -145,-61 -41,-41 -61,-89 -61,-146zm504 0c0,-57 20,-105 60,-144 41,-40 90,-61 146,-61 57,0 105,20 145,61 40,39 60,87 60,144 0,57 -20,106 -60,146 -40,41 -88,61 -145,61 -56,0 -105,-20 -146,-61 -40,-40 -60,-89 -60,-146zm1845 1921c-103,0 -155,-51 -155,-155 0,-65 12,-109 36,-132 25,-23 64,-35 119,-35l441 0c-29,-54 -54,-114 -74,-179 -20,-66 -30,-142 -30,-228 0,-101 16,-201 50,-299 33,-99 83,-186 148,-262 65,-75 144,-137 239,-185 93,-48 203,-73 328,-73 143,0 259,26 350,79 90,51 162,117 215,197 53,81 89,169 109,266 20,96 31,191 31,285l0 399 295 0c104,0 156,52 156,155 0,65 -13,109 -37,132 -25,24 -64,35 -119,35l-2102 0zm640 -780c0,158 46,273 139,348 93,73 207,110 342,110l372 0 0 -388c0,-62 -6,-124 -18,-188 -11,-62 -32,-120 -63,-170 -31,-50 -74,-92 -128,-124 -55,-32 -123,-48 -206,-48 -70,0 -132,12 -186,36 -54,25 -100,58 -138,99 -37,41 -65,90 -84,147 -20,56 -30,116 -30,178zm251 -1366c0,-57 21,-105 61,-144 41,-40 89,-61 146,-61 57,0 105,21 145,61 39,39 60,87 60,144 0,57 -20,106 -60,146 -40,41 -88,61 -145,61 -57,0 -105,-20 -146,-61 -40,-40 -61,-89 -61,-146zm1211 2146c-103,0 -155,-51 -155,-155 0,-65 12,-109 37,-132 25,-23 64,-35 118,-35l870 0c142,0 245,-23 306,-68 62,-46 94,-106 94,-180 0,-69 -29,-148 -86,-235 -57,-87 -136,-175 -236,-264 -101,-89 -220,-177 -355,-263 -136,-87 -283,-165 -441,-234 2,-32 8,-64 17,-98 9,-33 19,-64 31,-92 12,-29 24,-53 37,-73 12,-19 24,-32 34,-37l1451 -625 0 323 -1140 503c274,141 492,289 653,447 162,158 270,316 324,474 31,91 62,163 90,217 28,53 59,96 91,128 33,31 68,52 106,62 37,10 80,15 128,15 104,0 155,52 155,155 0,65 -12,109 -36,132 -25,24 -64,35 -119,35 -54,0 -104,-3 -148,-9 -46,-7 -88,-20 -127,-41 -39,-21 -76,-51 -110,-91 -35,-40 -68,-93 -100,-162l-15 0c-49,122 -132,202 -248,242 -116,41 -259,61 -427,61l-799 0zm214 -2033c0,-36 7,-73 21,-112 14,-38 31,-74 50,-106 20,-32 41,-61 63,-85 22,-25 40,-43 56,-50l1318 -601 0 292 -1508 662zm1897 1711c86,0 158,-2 216,-7 59,-6 106,-18 142,-37 35,-20 60,-48 76,-86 15,-36 22,-88 22,-152l0 -699 318 0 0 555c0,64 5,123 13,176 8,53 26,98 54,134 29,36 69,64 121,85 51,21 123,31 212,31 57,0 107,-2 150,-7 42,-6 78,-18 106,-37 29,-20 50,-48 64,-86 14,-37 21,-88 21,-152l0 -695 318 0 0 551c0,64 5,123 15,176 9,53 26,98 51,134 24,36 58,64 102,85 43,21 99,31 167,31l326 0 0 -1171 317 0 0 1493 -643 0c-101,0 -182,-23 -243,-72 -61,-48 -102,-107 -122,-180 -47,106 -120,175 -218,206 -98,31 -217,46 -356,46 -91,0 -166,-7 -223,-22 -58,-14 -107,-33 -146,-57 -38,-24 -68,-52 -90,-84 -22,-31 -41,-62 -57,-93 -22,55 -51,98 -86,130 -36,33 -81,58 -137,78 -55,19 -124,32 -205,39 -82,6 -179,9 -293,9l-129 0c-103,0 -155,-51 -155,-155 0,-65 12,-109 37,-132 24,-23 64,-35 118,-35l137 0zm1190 -1824c0,-57 20,-105 61,-144 40,-40 88,-61 145,-61 57,0 105,21 145,61 40,39 60,87 60,144 0,57 -20,105 -60,146 -40,40 -88,61 -145,61 -57,0 -105,-21 -145,-61 -41,-41 -61,-89 -61,-146zm504 0c0,-57 20,-105 60,-144 41,-40 90,-61 147,-61 56,0 104,20 144,61 40,39 60,87 60,144 0,57 -20,106 -60,146 -40,41 -88,61 -144,61 -57,0 -106,-20 -147,-61 -40,-40 -60,-89 -60,-146zm-245 -464c0,-57 21,-106 61,-146 40,-40 89,-60 146,-60 57,0 105,20 145,60 40,40 59,89 59,146 0,57 -19,105 -59,145 -40,40 -88,59 -145,59 -57,0 -106,-19 -146,-59 -40,-40 -61,-88 -61,-145zm2866 2506c0,101 17,193 49,278 32,84 87,156 163,216 76,61 177,108 303,142 125,33 281,49 467,49 134,0 262,-9 385,-29 124,-19 232,-47 327,-83 95,-36 170,-80 225,-133 56,-53 84,-113 84,-181 0,-59 -20,-109 -59,-149 -39,-41 -113,-88 -222,-142 -77,-40 -149,-80 -215,-120 -66,-41 -123,-87 -170,-137 -47,-52 -86,-108 -115,-171 -29,-64 -43,-138 -43,-224 0,-98 17,-198 53,-298 35,-100 88,-191 159,-273 71,-81 159,-147 265,-198 106,-50 232,-75 377,-75 86,0 162,9 227,29 66,19 104,31 114,37l0 326c-52,-15 -108,-28 -168,-39 -61,-11 -121,-16 -181,-16 -86,0 -161,13 -227,40 -66,27 -120,63 -163,108 -43,44 -75,93 -96,147 -22,54 -33,109 -33,163 0,52 10,96 29,134 19,37 45,71 79,102 33,31 72,59 116,85 45,26 92,53 144,82 89,50 162,95 222,136 59,41 106,81 141,120 35,39 60,79 75,119 16,39 24,83 24,129 0,109 -24,213 -74,315 -49,101 -128,190 -237,268 -108,77 -249,140 -420,187 -172,48 -379,71 -623,71 -244,0 -448,-23 -614,-71 -165,-47 -298,-113 -399,-198 -100,-84 -172,-184 -216,-299 -45,-115 -67,-241 -67,-377l0 -579 314 0 0 509zm3618 -63c0,65 -12,109 -36,132 -25,24 -64,35 -119,35l-101 0c-83,0 -159,-8 -227,-26 -68,-16 -126,-46 -174,-86 -48,-42 -85,-97 -113,-165 -27,-69 -40,-155 -40,-259l0 -2233 318 0 0 2148c0,109 17,185 51,231 34,46 109,68 225,68l61 0c104,0 155,52 155,155zm-155 167c-103,0 -155,-51 -155,-155 0,-65 12,-109 37,-132 25,-23 64,-35 118,-35l618 0c-26,-37 -50,-88 -74,-155 -24,-67 -36,-150 -36,-248 0,-134 31,-260 94,-378 62,-118 158,-201 287,-247 -52,0 -104,0 -156,2 -51,1 -104,3 -159,5l0 -289c282,-16 534,-3 759,39 224,40 413,115 566,222 153,107 271,251 353,431 81,180 122,398 122,656l0 284 -2374 0zm1090 -322c54,0 99,-13 136,-40 36,-28 65,-61 86,-101 21,-40 35,-84 43,-132 7,-47 11,-92 11,-134 0,-57 -5,-112 -15,-165 -10,-53 -27,-100 -51,-142 -23,-42 -53,-74 -89,-97 -37,-22 -81,-34 -133,-34 -91,0 -162,42 -211,124 -50,83 -75,190 -75,322 0,46 4,93 13,140 9,47 25,89 47,125 22,38 50,69 85,94 34,24 79,38 133,40l20 0zm958 0c0,-276 -56,-490 -169,-640 -112,-150 -265,-255 -458,-315 44,35 80,75 108,120 27,45 51,92 69,139 19,48 31,95 37,143 6,48 9,93 9,134 0,99 -9,183 -26,251 -18,68 -39,124 -63,168l493 0zm2063 -104c0,124 -43,226 -128,306 -85,80 -209,120 -372,120l-928 0 0 -322 901 0c89,0 144,-13 167,-40 23,-28 34,-58 34,-92 0,-25 -5,-53 -15,-81 -10,-29 -35,-74 -76,-138 -40,-64 -99,-152 -175,-264 -77,-113 -181,-265 -312,-459l299 -187c104,178 194,328 269,450 76,121 139,225 188,310 49,86 86,159 111,220 25,61 37,120 37,177zm741 -873l314 0 0 1081c0,192 -11,353 -33,485 -22,130 -64,236 -126,316 -62,80 -148,138 -258,174 -110,36 -251,54 -426,54l0 -322c126,0 225,-14 297,-41 71,-27 125,-71 160,-132 35,-60 56,-138 62,-232 7,-95 10,-209 10,-343l0 -1040zm1447 1299c-101,0 -195,-11 -281,-35 -87,-23 -162,-61 -226,-114 -63,-53 -114,-124 -151,-212 -38,-87 -56,-195 -56,-325 0,-103 16,-205 50,-304 34,-100 83,-189 147,-267 64,-77 144,-139 240,-186 97,-47 206,-70 330,-70 138,0 253,25 348,75 94,51 169,121 226,210 57,89 98,195 122,318 25,123 37,259 37,407l0 363c0,195 -26,353 -77,476 -52,122 -126,219 -222,290 -95,72 -212,120 -352,146 -139,26 -295,39 -469,39l-163 0 0 -322 120 0c123,0 237,-5 339,-15 103,-10 190,-33 264,-70 74,-37 131,-90 173,-159 41,-70 61,-164 61,-283l0 -74c-46,29 -107,55 -181,78 -75,23 -168,34 -279,34zm-404 -721c0,147 40,253 119,316 79,63 184,95 315,95 99,0 185,-13 261,-40 75,-25 131,-53 169,-84l0 -144c0,-88 -7,-171 -20,-249 -15,-77 -38,-144 -72,-199 -33,-56 -77,-100 -131,-132 -55,-32 -121,-48 -199,-48 -79,0 -147,15 -203,46 -56,31 -101,70 -136,117 -35,46 -62,98 -78,155 -16,57 -25,112 -25,167zm2505 554c0,65 -13,109 -37,132 -25,24 -64,35 -119,35l-101 0c-83,0 -159,-8 -226,-26 -69,-16 -127,-46 -175,-86 -48,-42 -85,-97 -113,-165 -27,-69 -40,-155 -40,-259l0 -2233 318 0 0 2148c0,109 17,185 51,231 34,46 109,68 226,68l60 0c104,0 156,52 156,155zm-156 167c-103,0 -155,-51 -155,-155 0,-65 12,-109 37,-132 25,-23 64,-35 118,-35l260 0c62,0 115,-2 159,-7 44,-6 81,-18 111,-37 30,-20 52,-48 66,-86 15,-37 22,-88 22,-152l0 -889 318 0 0 745c0,64 4,123 13,176 9,53 26,98 52,134 26,35 61,64 104,85 44,21 100,31 168,31 104,0 156,52 156,155 0,65 -13,109 -37,132 -25,24 -64,35 -119,35 -100,0 -182,-24 -244,-72 -62,-48 -103,-107 -125,-180 -47,106 -120,175 -219,206 -99,31 -221,46 -367,46l-318 0zm307 -2146c0,-57 20,-105 61,-144 40,-41 88,-61 145,-61 57,0 105,20 145,61 40,39 60,87 60,144 0,57 -20,106 -60,146 -40,41 -88,61 -145,61 -57,0 -105,-20 -145,-61 -41,-40 -61,-89 -61,-146zm503 0c0,-57 21,-105 61,-144 41,-41 89,-61 146,-61 57,0 105,20 145,61 40,39 60,87 60,144 0,57 -20,106 -60,146 -40,41 -88,61 -145,61 -57,0 -105,-20 -146,-61 -40,-40 -61,-89 -61,-146zm598 1824c86,0 158,-2 216,-7 59,-6 107,-18 142,-37 35,-20 60,-48 76,-86 15,-37 22,-88 22,-152l0 -699 318 0 0 555c0,64 5,123 13,176 8,53 26,98 55,134 28,35 68,64 120,85 52,21 123,31 212,31 57,0 107,-2 150,-7 43,-6 78,-18 107,-37 28,-20 49,-48 63,-86 14,-37 21,-88 21,-152l0 -695 318 0 0 551c0,64 5,123 15,176 9,53 26,98 51,134 24,35 59,64 102,85 44,21 100,31 167,31l326 0 0 -1171 317 0 0 1493 -643 0c-100,0 -181,-24 -243,-72 -61,-48 -102,-107 -122,-180 -46,106 -120,175 -218,206 -98,31 -217,46 -356,46 -91,0 -166,-7 -223,-22 -58,-14 -107,-33 -146,-57 -38,-24 -68,-52 -90,-84 -22,-31 -41,-62 -56,-93 -23,55 -52,98 -87,130 -36,33 -81,58 -136,78 -56,20 -125,33 -206,39 -81,6 -179,9 -293,9l-129 0c-103,0 -155,-51 -155,-155 0,-65 13,-109 37,-132 25,-23 64,-35 118,-35l137 0zm4626 -104c0,124 -43,226 -128,306 -85,80 -210,120 -373,120l-927 0 0 -322 901 0c89,0 144,-13 167,-40 22,-28 34,-58 34,-92 0,-25 -5,-53 -15,-81 -10,-29 -35,-74 -76,-138 -40,-64 -99,-152 -175,-264 -77,-113 -181,-265 -312,-459l299 -187c104,178 194,328 269,450 76,121 139,225 188,310 49,86 86,159 111,220 25,61 37,120 37,177z"/>
   <circle class="fil30" cx="104515" cy="12879" r="7481"/>
   <rect class="fil31" x="145300" y="12566" width="52.8819" height="13815.9"/>
   <path class="fil23" d="M105927 14997l0 1411 -5646 0 0 -1411 5646 0zm-5646 -4235l0 -1412c2823,0 5646,0 8469,0l-1411 1412c-2353,0 -4706,0 -7058,0zm8469 1411c0,1412 0,2824 0,4235l-1411 0 0 -2823 0 0 -7058 0 0 -1412c2823,0 5646,0 8469,0z"/>
  </g>
 </g>
</svg>
