<?xml version="1.0" encoding="UTF-8"?>
<!DOCTYPE svg PUBLIC "-//W3C//DTD SVG 1.1//EN" "http://www.w3.org/Graphics/SVG/1.1/DTD/svg11.dtd">
<!-- Creator: CorelDRAW X7 -->
<svg xmlns="http://www.w3.org/2000/svg" xml:space="preserve" width="100%" height="100%" version="1.1" style="shape-rendering:geometricPrecision; text-rendering:geometricPrecision; image-rendering:optimizeQuality; fill-rule:evenodd; clip-rule:evenodd"
viewBox="0 0 2413 838"
 xmlns:xlink="http://www.w3.org/1999/xlink">
 <defs>
  <style type="text/css">
   <![CDATA[
    .fil4 {fill:#8DA0D1;fill-rule:nonzero}
    .fil1 {fill:#8480BC;fill-rule:nonzero}
    .fil3 {fill:#5C56A2;fill-rule:nonzero}
    .fil6 {fill:#D4D4D6;fill-rule:nonzero}
    .fil5 {fill:#D6D5D7;fill-rule:nonzero}
    .fil0 {fill:#E0E4EE;fill-rule:nonzero}
    .fil2 {fill:white;fill-rule:nonzero}
    .fil7 {fill:white;fill-rule:nonzero}
   ]]>
  </style>
 </defs>
 <g id="Layer_x0020_1">
  <metadata id="CorelCorpID_0Corel-Layer"/>
  <g id="_3092821082704">
   <path class="fil0" d="M1701 194c125,50 239,-46 239,-46l5 7c18,-19 42,-33 65,-39 4,-1 8,-2 11,-1 4,0 7,2 9,6 3,4 3,9 2,14 -2,5 -5,9 -8,12 -5,7 -12,12 -20,16 -3,2 -14,6 -12,13 2,5 7,5 11,3 3,-2 6,-5 10,-7 7,-3 17,2 10,14 -2,4 -4,6 -7,8 -12,8 -22,17 -34,21l1 1c0,0 -160,133 -291,65 -55,-29 -13,-96 9,-87z"/>
   <path class="fil1" d="M1927 152l40 72c3,5 8,6 13,4 4,-3 6,-9 4,-13l-40 -72c-3,-5 -9,-6 -13,-4 -5,3 -6,9 -4,13z"/>
   <path class="fil2" d="M1229 434c1,-13 12,-24 26,-23l42 3c0,0 0,0 0,0 1,0 1,0 1,0 72,9 133,-2 180,-19 4,-35 19,-72 47,-108 63,-81 117,-111 166,-110l-2 -2c-3,-2 -4,-6 -2,-9l11 -14c2,-3 7,-4 10,-2l3 3c-7,-35 0,-73 24,-103 42,-55 120,-66 175,-25 1,0 2,1 3,2 56,43 66,123 23,178 -13,18 -30,31 -48,39 -15,6 -30,10 -45,11l3 2c1,1 2,3 3,4 0,2 -1,4 -2,6l-9 11c13,29 16,62 3,102 -10,30 -27,62 -55,99 -1,2 -3,4 -4,6 -35,45 -76,71 -116,80 -18,44 -46,100 -91,167 28,28 34,71 14,106l-136 -79c-12,-7 -16,-22 -9,-33l20 -36c4,-6 9,-9 15,-11 30,-48 54,-94 72,-134 -4,-3 -9,-6 -13,-9 -12,-9 -22,-19 -30,-31 -50,13 -115,23 -198,24 -10,39 -47,67 -90,65l-1 -1 10 -159z"/>
   <path class="fil3" d="M1783 370l-35 45c-9,12 -7,28 5,37l30 23c27,-36 45,-68 54,-97l-17 -13c-12,-9 -28,-7 -37,5z"/>
   <path class="fil1" d="M1580 398l159 123c5,4 12,3 16,-2 4,-5 3,-11 -2,-15l-160 -123 -13 17z"/>
   <path class="fil1" d="M1476 692l97 51c6,2 12,0 15,-5 3,-6 1,-12 -5,-15l-97 -50c-6,-3 -12,-1 -15,4 -3,6 -1,13 5,15z"/>
   <path class="fil1" d="M1301 419l14 109c1,6 6,10 12,9 7,-1 11,-6 10,-12l-14 -109c-1,-6 -6,-11 -13,-10 -6,1 -10,7 -9,13z"/>
   <path class="fil3" d="M1882 244c18,-8 35,-21 48,-39 4,-4 7,-9 10,-13 2,-4 3,-7 5,-11 1,-3 3,-6 4,-9 3,-8 5,-16 6,-25 7,-44 -10,-91 -48,-120 -1,-1 -2,-2 -3,-2 -6,6 -11,12 -16,19 -6,7 -11,14 -15,21 -4,7 -7,14 -10,22 -1,3 -2,6 -3,9 -1,4 -2,9 -3,13 -11,46 -2,95 25,135z"/>
   <path class="fil4" d="M1727 165l-1 2 123 94c-1,-1 -2,-3 -3,-4l-119 -92z"/>
   <path class="fil0" d="M1735 277c152,50 291,-46 291,-46l6 7c22,-19 51,-33 80,-39 4,-1 9,-2 13,-2 4,1 9,3 11,6 3,4 3,10 1,15 -1,4 -5,8 -8,12 -7,7 -16,12 -25,16 -4,2 -17,6 -14,13 1,4 8,4 12,3 5,-2 8,-5 13,-7 9,-4 21,1 12,14 -2,3 -5,6 -9,8 -14,8 -26,17 -40,21l0 0c0,0 -194,134 -354,66 -68,-29 -17,-96 11,-87z"/>
   <path class="fil1" d="M2017 241l40 72c2,4 8,6 13,4 4,-3 6,-9 3,-13l-40 -72c-2,-5 -8,-6 -13,-4 -4,3 -6,9 -3,13z"/>
   <path class="fil1" d="M1863 87l86 85c3,-8 5,-16 6,-25l-82 -82c-4,7 -7,14 -10,22z"/>
   <path class="fil1" d="M1857 109l83 83c2,-4 3,-7 5,-11l-85 -85c-1,4 -2,9 -3,13z"/>
   <path class="fil5" d="M2278 95l-1 14c12,9 28,24 29,44 1,32 22,58 37,65 0,0 53,-72 70,-71 0,0 -39,-31 -40,-60 -2,-28 -26,-52 -54,-63l-41 57 0 14z"/>
   <path class="fil2" d="M2204 121l-1 20c17,13 40,36 41,65 2,47 32,85 55,95 0,0 77,-105 102,-104 0,0 -57,-46 -59,-87 -3,-42 -38,-77 -79,-93l-59 84 0 20z"/>
   <path class="fil6" d="M2204 101l-1 40c8,-4 15,-9 29,-18 -15,-4 -19,-10 -28,-22z"/>
   <path class="fil7" d="M0 692c149,19 270,11 370,-15 103,-26 185,-71 254,-124 58,-44 116,-96 173,-147 243,-219 481,-432 789,-96l-12 12c-298,-324 -529,-117 -766,96 -57,52 -114,103 -174,148 -71,54 -154,100 -260,127 -102,26 -224,35 -374,16l0 -17z"/>
   <path class="fil1" d="M1474 444l27 22c21,16 52,12 68,-9l159 -207c24,-31 18,-74 -12,-97 -30,-24 -74,-18 -97,12l-155 202c-19,24 -14,59 10,77z"/>
  </g>
 </g>
</svg>
