<?xml version="1.0" encoding="UTF-8"?>
<!DOCTYPE svg PUBLIC "-//W3C//DTD SVG 1.1//EN" "http://www.w3.org/Graphics/SVG/1.1/DTD/svg11.dtd">
<!-- Creator: CorelDRAW X7 -->
<svg xmlns="http://www.w3.org/2000/svg" xml:space="preserve" width="100%" height="100%" version="1.1" style="shape-rendering:geometricPrecision; text-rendering:geometricPrecision; image-rendering:optimizeQuality; fill-rule:evenodd; clip-rule:evenodd"
viewBox="0 0 33132 22946"
 xmlns:xlink="http://www.w3.org/1999/xlink">
 <defs>
  <style type="text/css">
   <![CDATA[
    .fil0 {fill:none}
    .fil25 {fill:#DABA76}
    .fil21 {fill:#D5B682}
    .fil27 {fill:#E6ADAD}
    .fil26 {fill:#D097A9}
    .fil28 {fill:#C086A6}
    .fil20 {fill:#A6B7DE}
    .fil3 {fill:#C1C6FF}
    .fil2 {fill:#DADAFF}
    .fil24 {fill:#E4BD79}
    .fil1 {fill:#E7E7FF}
    .fil23 {fill:#FCD682}
    .fil12 {fill:#FDE7DB;fill-rule:nonzero}
    .fil4 {fill:#FDDFD1;fill-rule:nonzero}
    .fil11 {fill:#FCD9C8;fill-rule:nonzero}
    .fil19 {fill:#D2AE6D;fill-rule:nonzero}
    .fil18 {fill:#E3C582;fill-rule:nonzero}
    .fil16 {fill:#E4BD79;fill-rule:nonzero}
    .fil10 {fill:#EBB3A9;fill-rule:nonzero}
    .fil9 {fill:#EAAEA4;fill-rule:nonzero}
    .fil15 {fill:#C9A374;fill-rule:nonzero}
    .fil14 {fill:#EABCB9;fill-rule:nonzero}
    .fil13 {fill:#E6ADAD;fill-rule:nonzero}
    .fil8 {fill:#A5A5FF;fill-rule:nonzero}
    .fil29 {fill:#C6C6FF;fill-rule:nonzero}
    .fil6 {fill:#F2D394;fill-rule:nonzero}
    .fil22 {fill:#F4CD7D;fill-rule:nonzero}
    .fil17 {fill:#FCD682;fill-rule:nonzero}
    .fil5 {fill:white;fill-rule:nonzero}
    .fil7 {fill:white;fill-rule:nonzero}
   ]]>
  </style>
 </defs>
 <g id="Layer_x0020_1">
  <metadata id="CorelCorpID_0Corel-Layer"/>
  <g id="_2566012493168">
   <rect class="fil0" width="33132" height="22946"/>
   <g>
    <g>
     <circle class="fil1" transform="matrix(-0.262515 -0.228639 0.228639 -0.262515 23726.5 16275.1)" r="9796"/>
     <circle class="fil2" transform="matrix(-0.197888 -0.172352 0.172352 -0.197888 24359.5 16826.5)" r="9796"/>
    </g>
    <circle class="fil2" transform="matrix(0.786757 0.685231 -0.68523 0.786757 11774.7 12247.2)" r="9796"/>
    <circle class="fil3" transform="matrix(0.593069 0.516537 -0.516537 0.59307 9877.4 10594.7)" r="9796"/>
    <path class="fil4" d="M4531 11686c6,-49 -15,-102 -44,-143 -30,-41 -68,-76 -107,-107 -40,-30 -82,-56 -126,-80 -43,-24 -88,-44 -134,-62 -46,-18 -92,-34 -140,-48 -47,-14 -96,-24 -146,-32 -50,-8 -102,-13 -158,-12 -27,0 -57,2 -90,10 -18,4 -22,4 -40,10 -16,4 -28,8 -41,13 -54,20 -104,46 -153,81 -48,36 -98,80 -130,161 -15,41 -23,94 -9,145 13,50 41,90 69,118 27,28 59,49 79,61 35,20 66,33 104,42 38,9 83,11 127,1 44,-10 84,-32 116,-59 63,-55 93,-122 107,-186 14,-65 13,-130 -3,-193 -14,-63 -49,-124 -98,-171l5 6c-54,-58 -116,-100 -182,-125 -33,-14 -67,-24 -100,-31 -33,-8 -67,-13 -100,-15 -33,-2 -67,-2 -99,0 -33,3 -66,6 -97,14 -64,14 -125,37 -177,72l-2 1c-3,2 -4,7 -2,10 2,3 6,4 9,3 56,-21 115,-32 175,-36 60,-3 120,1 179,13 58,11 116,30 168,57 53,27 101,63 138,109l0 0 1 1c29,32 50,74 58,118 9,44 7,90 -4,133 -11,43 -33,84 -66,111 -33,28 -78,37 -120,26 -21,-5 -42,-14 -60,-25 -20,-12 -39,-23 -54,-39 -15,-15 -27,-33 -32,-53 -6,-19 -4,-40 3,-60 15,-41 46,-75 81,-103 36,-29 76,-51 118,-69 21,-9 42,-16 64,-23 22,-5 44,-9 67,-10 46,-3 92,-2 138,3 92,9 183,28 272,54 89,27 176,60 256,107 39,24 77,51 108,84 31,34 55,74 57,120 1,4 4,7 8,6 3,0 6,-2 7,-6l0 -2z"/>
    <path class="fil4" d="M8634 11955c17,-29 55,-38 83,-20 29,18 38,56 20,85 -18,28 -55,37 -84,19 -29,-18 -37,-56 -19,-84z"/>
    <path class="fil4" d="M12241 11838c17,-29 55,-38 83,-20 29,18 38,56 20,85 -18,29 -55,37 -84,19 -29,-18 -37,-56 -19,-84z"/>
    <path class="fil5" d="M14869 11027c17,-29 55,-37 83,-19 29,18 38,55 20,84 -18,29 -56,38 -84,20 -29,-18 -37,-56 -19,-85z"/>
    <path class="fil4" d="M10634 3925c18,-29 56,-38 84,-20 29,18 37,56 20,85 -18,29 -56,38 -84,20 -29,-18 -37,-56 -20,-85z"/>
    <path class="fil4" d="M11923 3286c18,-29 55,-38 84,-20 28,18 37,56 19,85 -18,29 -55,37 -84,19 -28,-18 -37,-56 -19,-84z"/>
    <path class="fil6" d="M12598 10489c17,-29 55,-38 83,-20 29,18 38,56 20,85 -18,29 -55,37 -84,19 -29,-18 -37,-56 -19,-84z"/>
    <path class="fil7" d="M18259 13851c-221,-8 -397,-189 -399,-413l-3 0c-2,224 -178,405 -399,413 221,7 399,190 399,415l3 0c0,-225 177,-408 399,-415z"/>
    <path class="fil8" d="M4310 14656c0,296 1329,535 2968,535 1638,0 2967,-239 2967,-535 0,-296 -1329,-536 -2967,-536 -1639,0 -2968,240 -2968,536z"/>
    <polygon class="fil9" points="6451,14419 6451,14419 6548,13504 5985,13486 6059,14406 "/>
    <polygon class="fil10" points="9404,14396 9404,14396 9509,13212 8947,13194 9012,14384 "/>
    <polygon class="fil11" points="5842,14656 5842,14656 5993,13230 5117,13203 5232,14637 "/>
    <polygon class="fil11" points="8818,14656 8818,14656 8969,13230 8093,13203 8208,14637 "/>
    <path class="fil12" d="M4002 11070c-149,1593 1174,3020 2955,3186 1781,166 3345,-991 3494,-2584 149,-1594 -1174,-3020 -2955,-3186 -1781,-167 -3346,990 -3494,2584z"/>
    <path class="fil13" d="M8115 8908c0,0 -868,-306 -1914,-15l16 250c0,0 851,-284 1890,18l8 -253z"/>
    <path class="fil11" d="M9992 10070c0,0 381,-957 123,-1043 -259,-87 -785,246 -785,246l662 797z"/>
    <path class="fil14" d="M8451 10300c0,0 366,-839 199,-923 -168,-84 -737,136 -990,264 0,0 647,236 791,659z"/>
    <path class="fil15" d="M9688 10793c-3,68 51,125 119,127 67,2 124,-51 126,-119l8 -246c2,-68 -51,-124 -119,-126 -68,-3 -125,51 -127,119l-7 245z"/>
    <path class="fil15" d="M8856 11061c-2,68 51,125 119,127 68,2 124,-51 126,-119l8 -246c2,-68 -51,-125 -119,-127 -68,-2 -125,51 -127,119l-7 246z"/>
    <path class="fil14" d="M8998 11930c-13,423 130,770 829,845 369,39 491,-217 504,-640 14,-422 659,-939 -300,-969 -682,-21 -1020,342 -1033,764z"/>
    <path class="fil11" d="M9362 11983c-15,462 321,847 750,860 429,14 788,-350 802,-812 15,-462 -321,-847 -750,-860 -429,-14 -788,350 -802,812z"/>
    <path class="fil14" d="M10532 11922c-16,-66 -82,-106 -148,-90 -65,16 -106,82 -90,148 16,65 83,105 148,89 66,-16 106,-82 90,-147z"/>
    <path class="fil14" d="M10061 12037c-16,-66 -82,-106 -148,-90 -65,16 -106,82 -89,148 16,65 82,105 147,89 66,-16 106,-82 90,-147z"/>
    <path class="fil16" d="M7889 8462c0,-416 -337,-753 -753,-753 -415,0 -752,337 -752,753 0,416 337,752 752,752 416,0 753,-336 753,-752z"/>
    <path class="fil17" d="M7783 8407c0,-415 -336,-752 -752,-752 -416,0 -753,337 -753,752 0,416 337,753 753,753 416,0 752,-337 752,-753z"/>
    <path class="fil18" d="M6811 8592l193 3 -1 32c0,34 1,56 6,67 4,11 13,16 28,16 12,1 21,-4 27,-13 6,-9 9,-22 9,-40 1,-31 -5,-52 -17,-64 -11,-13 -45,-37 -103,-73 -48,-30 -81,-54 -99,-70 -17,-16 -32,-38 -44,-67 -11,-29 -17,-65 -16,-108 1,-69 19,-123 52,-161 34,-39 84,-62 151,-70l1 -73 89 2 -1 75c51,6 96,26 134,61 38,36 56,96 54,182l0 38 -193 -3 0 -48c1,-52 0,-84 -4,-97 -4,-12 -13,-19 -28,-19 -13,0 -23,4 -30,13 -6,8 -10,21 -10,38 -1,44 2,75 7,94 6,18 27,39 62,61 58,38 97,66 118,84 21,18 39,43 54,74 15,32 22,68 21,108 -1,57 -18,102 -51,134 -33,33 -83,52 -148,59l-1 61 -89 -1 1 -62c-59,-9 -104,-29 -133,-62 -29,-33 -43,-78 -42,-135 0,-8 1,-20 3,-36z"/>
    <path class="fil19" d="M6811 8563l193 3 -1 32c0,34 1,56 6,67 4,11 13,16 28,16 12,0 21,-4 27,-13 6,-9 9,-22 9,-41 1,-30 -5,-51 -17,-63 -11,-13 -45,-37 -103,-73 -48,-30 -81,-54 -99,-70 -17,-16 -32,-38 -44,-67 -11,-29 -17,-66 -16,-108 1,-69 19,-123 52,-161 34,-39 84,-62 151,-70l1 -73 89 1 -1 76c51,5 96,26 134,61 38,36 56,96 54,182l0 38 -193 -4 0 -47c1,-52 0,-84 -4,-97 -4,-12 -13,-19 -28,-19 -13,0 -23,4 -30,13 -6,8 -10,21 -10,38 -1,44 2,75 7,93 6,19 27,40 62,62 58,38 97,66 118,84 21,18 39,42 54,74 15,32 22,68 21,108 -1,57 -18,102 -51,134 -33,33 -83,52 -148,58l-1 62 -89 -1 1 -62c-59,-9 -104,-30 -133,-62 -29,-33 -43,-78 -42,-135 0,-8 1,-20 3,-36z"/>
    <polygon class="fil20" points="7864,5637 7889,5689 7871,5678 "/>
    <path class="fil16" d="M6297 5092c0,-416 337,-753 753,-753 415,0 752,337 752,753 0,415 -337,752 -752,752 -416,0 -753,-337 -753,-752z"/>
    <path class="fil17" d="M6403 5037c0,-415 336,-752 752,-752 416,0 753,337 753,752 0,416 -337,753 -753,753 -416,0 -752,-337 -752,-753z"/>
    <path class="fil18" d="M6929 5213l193 3 -1 32c-1,34 1,57 6,67 4,11 13,16 28,16 12,1 21,-4 27,-13 6,-9 9,-22 9,-40 1,-31 -5,-52 -17,-64 -11,-13 -46,-37 -103,-73 -48,-30 -81,-54 -99,-70 -17,-16 -32,-38 -44,-67 -11,-29 -17,-65 -16,-108 1,-69 19,-123 52,-161 34,-39 84,-62 151,-70l1 -73 89 2 -2 75c52,6 97,26 135,62 37,35 56,95 54,181l-1 38 -192 -3 0 -48c1,-52 0,-84 -4,-96 -4,-13 -13,-20 -28,-20 -14,0 -23,4 -30,13 -6,8 -10,21 -10,39 -1,43 2,74 7,93 6,18 26,39 61,62 59,38 98,65 119,83 21,18 39,43 54,74 15,32 22,68 21,108 -1,57 -18,102 -51,135 -34,32 -83,51 -148,58l-1 61 -89 -1 1 -62c-60,-9 -104,-29 -133,-62 -29,-33 -43,-78 -42,-135 0,-8 1,-20 3,-36z"/>
    <path class="fil19" d="M6929 5184l193 3 -1 32c-1,34 1,56 6,67 4,11 13,16 28,16 12,0 21,-4 27,-13 6,-9 9,-22 9,-41 1,-30 -5,-51 -17,-63 -11,-13 -46,-37 -103,-73 -48,-30 -81,-54 -99,-70 -17,-16 -32,-38 -44,-67 -11,-29 -17,-65 -16,-108 1,-69 19,-123 52,-161 34,-39 84,-62 151,-70l1 -73 89 2 -2 75c52,6 97,26 135,61 37,36 56,96 54,182l-1 38 -192 -3 0 -48c1,-52 0,-84 -4,-97 -4,-12 -13,-19 -28,-19 -14,0 -23,4 -30,13 -6,8 -10,21 -10,38 -1,44 2,75 7,93 6,19 26,40 61,62 59,38 98,66 119,84 21,18 39,42 54,74 15,32 22,68 21,108 -1,57 -18,102 -51,134 -34,33 -83,52 -148,59l-1 61 -89 -1 1 -62c-60,-9 -104,-30 -133,-62 -29,-33 -43,-78 -42,-135 0,-8 1,-20 3,-36z"/>
    <path class="fil12" d="M8134 9165c0,0 -914,-338 -1964,-9l35 450 1929 -441z"/>
    <path class="fil8" d="M12945 14812l0 -192c0,0 -1,0 -2,-1 -32,-180 -452,-322 -967,-322 -524,0 -951,148 -967,333l0 0c0,0 0,1 0,2 -1,3 -1,6 -1,9 0,2 0,5 1,7 -1,45 -1,161 -1,206 0,22 42,246 931,288l67 3c1037,-29 939,-333 939,-333z"/>
    <polygon class="fil21" points="12041,14583 12055,14512 12056,14569 "/>
    <path class="fil4" d="M11681 14660c-18,-29 -55,-38 -84,-20 -28,18 -37,56 -19,85 18,29 55,38 84,20 28,-18 37,-56 19,-85z"/>
    <path class="fil16" d="M11917 14214c387,0 1028,153 1028,153l0 193c0,0 98,304 -939,332l-67 -2c-889,-42 -931,-266 -931,-288 0,-56 1,-225 1,-225 0,0 573,-163 960,-163l-52 0z"/>
    <path class="fil17" d="M12945 14388c0,190 -434,344 -969,344 -534,0 -968,-154 -968,-344 0,-189 434,-343 968,-343 535,0 969,154 969,343z"/>
    <path class="fil18" d="M12292 14409l-164 -72 24 -12c26,-11 40,-20 45,-25 4,-5 0,-10 -12,-16 -10,-4 -20,-5 -32,-4 -11,1 -24,4 -37,11 -23,10 -34,19 -34,28 1,8 11,29 32,64 18,29 29,51 32,64 3,13 -1,28 -14,45 -12,16 -36,34 -72,52 -58,29 -119,44 -182,47 -64,2 -128,-10 -192,-35l-66 31 -72 -39 68 -31c-37,-23 -54,-50 -54,-78 1,-29 38,-58 110,-89l31 -14 152 72 -39 18c-44,20 -70,34 -78,40 -7,7 -5,13 8,19 10,6 22,8 35,7 13,-1 26,-5 41,-12 37,-17 60,-30 71,-40 10,-9 10,-25 -1,-47 -17,-35 -27,-60 -30,-73 -3,-14 2,-29 15,-45 12,-16 34,-30 64,-43 43,-19 89,-28 138,-27 49,0 102,9 159,28l44 -19 72 29 -43 21c44,23 68,45 70,67 2,23 -18,44 -60,65 -6,3 -16,7 -29,13z"/>
    <path class="fil19" d="M12292 14380l-164 -72 24 -12c26,-12 40,-20 45,-25 4,-5 0,-11 -12,-16 -10,-4 -20,-5 -32,-4 -11,1 -24,4 -37,10 -23,11 -34,20 -34,29 1,8 11,29 32,63 18,30 29,52 32,65 3,13 -1,28 -14,45 -12,16 -36,34 -72,51 -58,29 -119,45 -182,48 -64,2 -128,-10 -192,-35l-66 31 -72 -39 68 -31c-37,-23 -54,-50 -54,-79 1,-28 38,-57 110,-89l31 -13 152 72 -39 18c-44,20 -70,33 -78,40 -7,7 -5,13 8,19 10,6 22,8 35,7 13,-1 26,-5 41,-12 37,-17 60,-30 71,-40 10,-9 10,-25 -1,-47 -17,-36 -27,-60 -30,-74 -3,-13 2,-28 15,-44 12,-16 34,-30 64,-43 43,-19 89,-28 138,-28 49,1 102,10 159,29l44 -19 72 29 -43 20c44,24 68,46 70,68 2,22 -18,44 -60,65 -6,3 -16,7 -29,13z"/>
    <path class="fil8" d="M17063 18083c0,0 -1,0 -2,-1 0,-182 -391,-394 -898,-480 -481,-82 -900,-23 -994,129 -150,-33 -328,-53 -519,-53 -524,0 -951,148 -968,333 0,0 0,0 0,0l0 2c0,3 -1,6 -1,9 0,2 1,5 1,7 0,45 -1,161 -1,206 0,22 42,246 932,288l66 3c589,-17 812,-121 894,-209 110,38 244,76 411,112l66 14c1027,146 981,-171 981,-171l32 -189z"/>
    <path class="fil16" d="M14474 17633c387,0 1028,154 1028,154l0 192c0,0 98,305 -939,333l-67 -2c-889,-42 -931,-267 -931,-289 0,-56 1,-224 1,-224 0,0 573,-164 960,-164l-52 0z"/>
    <path class="fil22" d="M15502 17808c0,190 -434,344 -969,344 -534,0 -968,-154 -968,-344 0,-190 434,-344 968,-344 535,0 969,154 969,344z"/>
    <path class="fil18" d="M14849 17829l-164 -73 24 -11c26,-12 40,-20 45,-25 4,-6 0,-11 -12,-16 -10,-4 -20,-6 -32,-5 -11,1 -24,5 -37,11 -23,11 -34,20 -34,29 1,8 11,29 32,63 19,30 29,52 32,65 3,13 -1,28 -14,44 -12,17 -36,34 -72,52 -58,29 -119,45 -182,47 -64,3 -128,-9 -192,-34l-66 31 -72 -39 68 -31c-37,-24 -54,-50 -54,-79 1,-28 38,-58 110,-89l32 -13 151 72 -39 18c-44,20 -70,33 -77,40 -8,6 -6,13 7,19 10,5 22,8 35,7 13,-1 26,-5 41,-12 37,-17 60,-30 71,-40 10,-9 10,-25 -1,-47 -17,-36 -27,-60 -30,-74 -3,-13 2,-28 15,-44 13,-16 34,-30 64,-43 43,-19 89,-28 138,-28 49,0 102,10 159,29l44 -20 72 30 -43 20c44,23 68,46 70,68 2,22 -17,44 -60,65 -6,3 -15,7 -29,13z"/>
    <path class="fil19" d="M14849 17800l-164 -73 24 -11c26,-12 40,-20 45,-26 4,-5 0,-10 -12,-15 -10,-4 -20,-6 -32,-5 -11,1 -24,5 -37,11 -23,10 -34,20 -34,28 1,9 11,30 32,64 19,30 29,52 32,65 3,13 -1,28 -14,44 -12,17 -36,34 -72,52 -58,29 -119,45 -182,47 -64,2 -128,-9 -192,-34l-66 31 -72 -39 68 -31c-37,-24 -54,-50 -54,-79 1,-28 38,-58 110,-89l32 -13 151 72 -39 18c-44,20 -70,33 -77,40 -8,6 -6,13 7,19 10,5 22,7 35,7 13,-1 26,-5 41,-12 37,-17 60,-30 71,-40 10,-10 10,-25 -1,-47 -17,-36 -27,-60 -30,-74 -3,-13 2,-28 15,-44 13,-16 34,-31 64,-44 43,-18 89,-27 138,-27 49,0 102,10 159,29l44 -20 72 30 -43 20c44,23 68,46 70,68 2,22 -17,44 -60,65 -6,3 -15,7 -29,13z"/>
    <path class="fil16" d="M15960 17545c381,65 987,324 987,324l-33 190c0,0 46,316 -981,170l-65 -13c-870,-191 -874,-419 -870,-441 10,-55 38,-221 38,-221 0,0 593,-65 975,0l-51 -9z"/>
    <path class="fil17" d="M16943 17890c-32,187 -485,266 -1012,176 -527,-89 -929,-314 -897,-501 32,-187 485,-266 1012,-176 527,89 929,314 897,501z"/>
    <path class="fil18" d="M16301 17801l-149 -99 25 -7c27,-7 43,-13 48,-18 5,-4 2,-10 -9,-17 -9,-5 -19,-9 -30,-10 -12,-1 -25,1 -39,5 -24,6 -37,14 -37,22 -1,9 5,31 20,68 13,33 20,56 21,69 1,14 -6,28 -21,42 -15,14 -42,27 -80,39 -62,19 -125,24 -188,16 -63,-9 -124,-31 -183,-66l-70 19 -65 -50 73 -19c-33,-30 -46,-59 -40,-87 5,-28 47,-51 123,-70l33 -8 137 97 -41 11c-47,13 -74,21 -83,26 -9,6 -7,12 4,21 9,7 21,11 33,12 13,1 27,0 43,-4 39,-11 64,-20 76,-28 12,-8 14,-23 7,-47 -11,-38 -16,-63 -17,-77 0,-14 7,-28 22,-42 15,-13 39,-24 71,-31 45,-11 92,-13 140,-4 49,8 99,27 153,55l46 -12 66 41 -46 13c40,30 59,56 58,78 -2,23 -25,41 -70,54 -6,2 -17,5 -31,8z"/>
    <path class="fil19" d="M16301 17772l-149 -99 25 -7c27,-7 43,-13 48,-18 5,-4 2,-10 -9,-17 -9,-5 -19,-9 -30,-10 -12,-1 -25,1 -39,5 -24,6 -37,13 -37,22 -1,8 5,31 20,68 13,33 20,56 21,69 1,14 -6,28 -21,42 -15,14 -42,27 -80,39 -62,19 -125,24 -188,16 -63,-9 -124,-31 -183,-67l-70 20 -65 -50 73 -20c-33,-29 -46,-58 -40,-86 5,-28 47,-51 123,-70l33 -8 137 97 -41 11c-47,12 -74,21 -83,26 -9,6 -7,12 4,21 9,7 21,11 33,12 13,1 27,0 43,-4 39,-11 64,-20 76,-28 12,-8 14,-23 7,-47 -11,-38 -16,-63 -17,-77 0,-14 7,-28 22,-42 15,-13 39,-24 71,-31 45,-12 92,-13 140,-4 49,8 99,27 153,55l46 -12 66 41 -46 13c40,30 59,56 58,78 -2,23 -25,41 -70,54 -6,2 -17,5 -31,8z"/>
    <path class="fil7" d="M3179 13336c-17,29 -55,38 -83,20 -29,-18 -38,-56 -20,-85 18,-29 55,-38 84,-20 29,18 37,56 19,85z"/>
    <path class="fil6" d="M9341 3762c-18,29 -55,38 -84,20 -28,-18 -37,-56 -19,-85 18,-28 55,-37 84,-19 28,18 37,56 19,84z"/>
    <path class="fil4" d="M5924 5799c-18,29 -56,37 -84,20 -29,-18 -37,-56 -20,-85 18,-29 56,-38 84,-20 29,18 37,56 20,85z"/>
    <path class="fil7" d="M4614 7602c-18,29 -56,38 -84,20 -29,-18 -37,-56 -20,-85 18,-29 56,-37 84,-19 29,18 37,56 20,84z"/>
    <path class="fil6" d="M12066 5362c17,29 55,38 84,20 28,-18 37,-56 19,-85 -18,-29 -55,-38 -84,-20 -28,18 -37,56 -19,85z"/>
    <path class="fil5" d="M12628 5273c18,29 55,37 84,19 28,-17 37,-55 19,-84 -17,-29 -55,-38 -83,-20 -29,18 -38,56 -20,85z"/>
    <path class="fil4" d="M15460 4615c18,29 56,38 84,20 29,-18 38,-56 20,-85 -18,-29 -56,-38 -84,-20 -29,18 -37,56 -20,85z"/>
    <path class="fil4" d="M17256 5916c18,29 56,38 84,20 29,-18 37,-56 20,-85 -18,-29 -56,-38 -84,-19 -29,17 -37,55 -20,84z"/>
    <path class="fil6" d="M13336 4047c18,28 56,37 84,19 29,-18 37,-56 20,-84 -18,-29 -56,-38 -84,-20 -29,18 -37,56 -20,85z"/>
    <path class="fil4" d="M11590 6376c18,29 55,38 84,20 28,-18 37,-56 19,-85 -18,-29 -55,-37 -84,-19 -28,18 -37,56 -19,84z"/>
    <path class="fil5" d="M19120 7381c18,29 56,37 84,19 29,-18 37,-56 19,-84 -17,-29 -55,-38 -83,-20 -29,18 -38,56 -20,85z"/>
    <path class="fil7" d="M11839 8779c161,-5 290,-138 291,-302l3 0c1,164 130,297 292,302 -162,6 -292,139 -292,304l-2 0c0,-165 -130,-298 -292,-304z"/>
    <path class="fil6" d="M27329 7269c-434,-14 -781,-370 -784,-811l-7 0c-3,441 -350,797 -784,811 435,15 784,373 785,817l5 0c1,-444 350,-802 785,-817z"/>
    <circle class="fil23" cx="20054" cy="7267" r="4551"/>
    <path class="fil24" d="M20913 8556l0 858 -3435 0 0 -858 3435 0zm-3435 -2577l0 -859c1717,0 3435,0 5152,0l-858 859c-1432,0 -2863,0 -4294,0zm5152 859c0,859 0,1718 0,2576l-858 0 0 -1717 0 0 -4294 0 0 -859c1717,0 3435,0 5152,0z"/>
    <path class="fil4" d="M28171 4122c-18,29 -55,38 -84,20 -29,-18 -37,-56 -19,-85 17,-29 55,-38 83,-20 29,18 38,56 20,85z"/>
    <path class="fil4" d="M16116 17362c-17,29 -55,38 -84,20 -28,-18 -37,-56 -19,-85 18,-29 55,-38 84,-20 28,18 37,56 19,85z"/>
    <path class="fil5" d="M23715 11829c-17,29 -55,38 -84,20 -28,-18 -37,-56 -19,-85 18,-29 55,-38 84,-20 28,18 37,56 19,85z"/>
    <path class="fil4" d="M23308 12481c-18,29 -55,37 -84,19 -28,-18 -37,-55 -19,-84 18,-29 55,-38 84,-20 28,18 37,56 19,85z"/>
    <path class="fil4" d="M8943 7255c-18,28 -56,37 -84,19 -29,-18 -37,-56 -20,-84 18,-29 56,-38 84,-20 29,18 37,56 20,85z"/>
    <path class="fil25" d="M15503 7267c0,-2449 1935,-4447 4361,-4547 -64,-3 -127,-4 -191,-4 -2514,0 -4551,2038 -4551,4551 0,2514 2037,4552 4551,4552 64,0 127,-2 191,-4 -2426,-100 -4361,-2098 -4361,-4548z"/>
    <path class="fil25" d="M19857 11815l7 0c-2,0 -4,-1 -7,0zm-4354 -4548c0,-2449 1935,-4447 4361,-4547l-7 0 -178 -4 -6 0c-2514,0 -4551,2038 -4551,4551 0,2514 2037,4552 4551,4552 62,0 124,-2 185,-5 -2423,-102 -4355,-2099 -4355,-4547z"/>
    <path class="fil26" d="M6416 8841c-56,-79 -97,-169 -119,-266 -8,-36 -14,-72 -16,-110 -2,20 -3,39 -3,59 0,18 1,37 2,55 8,98 34,191 75,275l61 -13z"/>
    <path class="fil27" d="M7843 8838c30,-81 46,-169 46,-260 0,-11 -1,-23 -1,-34 -1,-1 -2,-1 -4,-1 -11,103 -42,199 -90,285l49 10z"/>
    <path class="fil28" d="M6637 9048c-87,-53 -162,-124 -221,-207l-61 13c39,81 93,154 158,215 42,-7 83,-14 124,-21z"/>
    <path class="fil28" d="M7794 8828c-47,84 -109,157 -183,218 36,5 70,10 102,15 55,-66 100,-141 130,-223l-49 -10z"/>
    <path class="fil29" d="M16627 16136c0,381 1713,690 3825,690 2112,0 3825,-309 3825,-690 0,-382 -1713,-691 -3825,-691 -2112,0 -3825,309 -3825,691z"/>
    <path class="fil17" d="M31578 12853c-281,9 -506,240 -508,525l-4 0c-2,-285 -227,-516 -508,-525 282,-10 508,-242 508,-529l4 0c0,287 226,519 508,529z"/>
    <path class="fil16" d="M6297 1286c0,-416 337,-753 753,-753 415,0 752,337 752,753 0,415 -337,752 -752,752 -416,0 -753,-337 -753,-752z"/>
    <path class="fil17" d="M6403 1231c0,-415 336,-752 752,-752 416,0 753,337 753,752 0,416 -337,753 -753,753 -416,0 -752,-337 -752,-753z"/>
    <path class="fil18" d="M6929 1407l193 3 -1 32c-1,34 1,57 6,67 4,11 13,16 28,16 12,1 21,-4 27,-13 6,-9 9,-22 9,-40 1,-31 -5,-52 -17,-64 -11,-13 -46,-37 -103,-73 -48,-30 -81,-54 -99,-70 -17,-16 -32,-38 -44,-67 -11,-29 -17,-65 -16,-108 1,-69 19,-123 52,-161 34,-39 84,-62 151,-70l1 -73 89 2 -2 75c52,6 97,26 135,61 37,36 56,96 54,182l-1 38 -192 -3 0 -48c1,-52 0,-84 -4,-96 -4,-13 -13,-20 -28,-20 -14,0 -23,4 -30,13 -6,8 -10,21 -10,39 -1,43 2,74 7,93 6,18 26,39 61,62 59,38 98,65 119,83 21,18 39,43 54,74 15,32 22,68 21,108 -1,57 -18,102 -51,135 -34,32 -83,51 -148,58l-1 61 -89 -1 1 -62c-60,-9 -104,-29 -133,-62 -29,-33 -43,-78 -42,-135 0,-8 1,-20 3,-36z"/>
    <path class="fil19" d="M6929 1378l193 3 -1 32c-1,34 1,56 6,67 4,11 13,16 28,16 12,0 21,-4 27,-13 6,-9 9,-22 9,-41 1,-30 -5,-51 -17,-63 -11,-13 -46,-37 -103,-73 -48,-30 -81,-54 -99,-70 -17,-16 -32,-38 -44,-67 -11,-29 -17,-65 -16,-108 1,-69 19,-123 52,-161 34,-39 84,-62 151,-70l1 -73 89 2 -2 75c52,6 97,26 135,61 37,36 56,96 54,182l-1 38 -192 -4 0 -47c1,-52 0,-84 -4,-97 -4,-12 -13,-19 -28,-19 -14,0 -23,4 -30,13 -6,8 -10,21 -10,38 -1,44 2,75 7,93 6,19 26,40 61,62 59,38 98,66 119,84 21,18 39,42 54,74 15,32 22,68 21,108 -1,57 -18,102 -51,134 -34,33 -83,52 -148,58l-1 62 -89 -1 1 -62c-60,-9 -104,-30 -133,-62 -29,-33 -43,-78 -42,-135 0,-8 1,-20 3,-36z"/>
   </g>
  </g>
 </g>
</svg>
