<?xml version="1.0" encoding="UTF-8"?>
<!DOCTYPE svg PUBLIC "-//W3C//DTD SVG 1.1//EN" "http://www.w3.org/Graphics/SVG/1.1/DTD/svg11.dtd">
<!-- Creator: CorelDRAW X7 -->
<svg xmlns="http://www.w3.org/2000/svg" xml:space="preserve" width="100%" height="100%" version="1.1" style="shape-rendering:geometricPrecision; text-rendering:geometricPrecision; image-rendering:optimizeQuality; fill-rule:evenodd; clip-rule:evenodd"
viewBox="0 0 33132 22946"
 xmlns:xlink="http://www.w3.org/1999/xlink">
 <defs>
  <style type="text/css">
   <![CDATA[
    .fil0 {fill:none}
    .fil12 {fill:#B8ABC7}
    .fil14 {fill:#6560A9}
    .fil21 {fill:#575197}
    .fil17 {fill:#5556B3}
    .fil23 {fill:#7173B3}
    .fil18 {fill:#758BCE}
    .fil19 {fill:#B6B9FF}
    .fil22 {fill:#BDC0FF}
    .fil15 {fill:#CACEFF}
    .fil20 {fill:#CFD0E4}
    .fil1 {fill:#DBE8FF}
    .fil3 {fill:#E4EDFF}
    .fil16 {fill:#E5C2C8}
    .fil11 {fill:#EAD2DA}
    .fil2 {fill:#EAF2FF}
    .fil10 {fill:#ECECFF}
    .fil13 {fill:white}
    .fil7 {fill:#DEAB67;fill-rule:nonzero}
    .fil6 {fill:#6560A9;fill-rule:nonzero}
    .fil8 {fill:#5556B3;fill-rule:nonzero}
    .fil4 {fill:#9999FF;fill-rule:nonzero}
    .fil9 {fill:#ECECFF;fill-rule:nonzero}
    .fil5 {fill:white;fill-rule:nonzero}
   ]]>
  </style>
 </defs>
 <g id="Layer_x0020_1">
  <metadata id="CorelCorpID_0Corel-Layer"/>
  <g id="_1529303192368">
   <rect class="fil0" width="33132" height="22946"/>
   <g>
    <path class="fil1" d="M21838 4048c5041,0 9128,4086 9128,9127 0,5041 -4087,9128 -9128,9128 -4346,0 -7981,-3037 -8902,-7104 789,-691 1493,-1479 2094,-2313 1372,-1905 2344,-4253 2408,-6621 10,-357 -2,-714 -38,-1067 1314,-733 2827,-1150 4438,-1150z"/>
    <circle class="fil2" cx="22693" cy="15421" r="6027"/>
    <g>
     <g>
      <g id="_2186930193504">
       <path class="fil3" d="M14891 1490c-1350,-972 -3179,-1114 -5145,-391 -1967,710 -3840,2201 -5270,4186 -1429,1985 -2250,4234 -2306,6333 -57,2086 657,3776 2007,4748 1350,972 3179,1113 5145,403 1967,-723 3840,-2213 5270,-4199 1429,-1985 2250,-4234 2306,-6320 57,-2098 -657,-3788 -2007,-4760zm-5556 14788c-1845,673 -3560,538 -4826,-373 -1266,-912 -1937,-2496 -1884,-4460 59,-1959 830,-4068 2171,-5930 1340,-1862 3097,-3261 4937,-3938 1839,-664 3554,-529 4820,382 1266,912 1937,2496 1890,4451 -54,1964 -824,4073 -2165,5935 -1341,1861 -3097,3261 -4943,3933z"/>
       <path class="fil3" d="M13550 3351c-1013,-730 -2381,-839 -3857,-301 -1476,538 -2877,1656 -3951,3147 -1074,1491 -1690,3173 -1733,4744 -42,1571 495,2833 1509,3563 1013,730 2381,840 3857,302 1476,-538 2877,-1656 3951,-3147 1074,-1491 1690,-3174 1733,-4744 42,-1571 -495,-2834 -1509,-3564zm-4162 10964c-1349,491 -2609,398 -3538,-272 -930,-670 -1418,-1834 -1379,-3270 39,-1436 600,-2983 1585,-4350 985,-1368 2274,-2390 3624,-2882 1349,-492 2608,-398 3538,272 930,669 1418,1834 1379,3270 -39,1435 -600,2983 -1585,4350 -985,1367 -2274,2390 -3624,2882z"/>
       <path class="fil3" d="M12210 5213c-672,-484 -1590,-557 -2570,-200 -980,358 -1914,1099 -2632,2095 -718,997 -1125,2117 -1153,3161 -34,1051 325,1898 997,2382 678,488 1590,557 2576,191 986,-353 1920,-1094 2638,-2091 717,-997 1125,-2117 1147,-3164 28,-1043 -326,-1886 -1003,-2374zm-2775 7147c-853,311 -1651,249 -2244,-179 -589,-423 -905,-1164 -881,-2072 25,-921 383,-1902 1012,-2775 623,-865 1446,-1523 2305,-1830 859,-319 1662,-253 2250,170 594,428 905,1165 875,2081 -19,912 -383,1901 -1006,2766 -629,873 -1446,1523 -2311,1839z"/>
       <path class="fil3" d="M10875 7066c-336,-242 -798,-274 -1288,-102 -490,185 -963,558 -1319,1052 -356,494 -560,1061 -579,1584 -9,520 168,947 504,1189 336,242 798,275 1288,102 490,-185 963,-557 1319,-1052 356,-494 559,-1060 579,-1584 9,-519 -168,-947 -504,-1189zm-1381 3334c-369,135 -711,101 -963,-80 -252,-182 -392,-495 -381,-888 11,-393 170,-815 437,-1186 267,-371 618,-656 987,-791 369,-134 711,-101 963,81 252,181 392,495 381,887 -11,393 -170,816 -437,1187 -262,374 -618,656 -987,790z"/>
      </g>
     </g>
     <path class="fil4" d="M24218 18435l3 -53c-87,-6 -178,-9 -267,-7l1 53c87,-2 177,1 263,7zm-837 54c84,-17 171,-31 259,-41l-6 -53c-90,10 -179,25 -264,42l11 52zm1406 40l14 -51c-84,-23 -172,-43 -261,-58l-9 52c87,15 174,35 256,57zm-1952 142c75,-37 156,-70 242,-99l-17 -51c-88,30 -171,65 -249,102l24 48zm2480 82l28 -45c-72,-45 -152,-87 -238,-124l-21 49c83,36 161,77 231,120zm-2930 262c49,-63 111,-124 184,-181l-33 -42c-76,60 -141,124 -193,191l42 32zm3316 143l49 -22c-35,-78 -87,-154 -154,-225l-38 36c63,67 111,138 143,211zm-3440 491l47 -24c-38,-79 -58,-161 -58,-243 0,-31 3,-62 8,-93l-52 -9c-6,34 -9,68 -9,102 0,90 22,180 64,267zm3441 68c52,-82 84,-169 96,-256l-52 -8c-11,81 -41,160 -89,236l45 28zm-3025 350l27 -45c-78,-47 -149,-99 -209,-154l-35 39c62,57 135,111 217,160zm2580 38c84,-45 160,-95 226,-148l-34 -41c-63,51 -136,99 -217,143l25 46zm-2036 186l14 -51c-86,-23 -170,-50 -249,-81l-19 49c80,32 166,60 254,83zm1484 19c89,-21 176,-46 258,-75l-18 -50c-80,28 -165,53 -252,73l12 52zm-903 74l3 -53c-88,-6 -176,-15 -261,-28l-8 53c87,13 177,22 266,28zm321 3c90,-3 179,-10 266,-21l-6 -53c-86,11 -174,18 -262,21l2 53z"/>
     <path class="fil4" d="M16489 13517l4 -53c-88,-7 -178,-11 -267,-13l-1 53c88,2 177,6 264,13zm-842 16c86,-10 174,-18 262,-23l-3 -53c-89,5 -178,13 -266,23l7 53zm1414 69l12 -52c-85,-19 -173,-36 -262,-50l-8 53c87,13 175,30 258,49zm-1983 40c83,-22 169,-43 256,-60l-10 -52c-88,17 -176,38 -260,61l14 51zm2535 133l20 -49c-80,-33 -164,-65 -251,-92l-16 50c85,28 168,58 247,91zm-3076 70c76,-38 157,-73 241,-105l-19 -50c-85,33 -168,69 -245,107l23 48zm3576 214l32 -42c-68,-53 -143,-103 -223,-149l-27 46c79,45 152,94 218,145zm-4050 108c60,-57 128,-112 203,-164l-30 -43c-77,53 -147,110 -209,169l36 38zm4418 321l47 -23c-37,-77 -87,-154 -148,-226l-40 34c58,69 105,142 141,215zm-4714 154c20,-79 53,-159 100,-235l-46 -28c-49,81 -85,166 -106,251l52 12zm4810 409c23,-75 35,-153 35,-230 0,-13 -1,-27 -1,-40l-53 3c0,12 1,24 1,37 0,72 -11,144 -33,215l51 15zm-4839 38l50 -17c-29,-82 -43,-167 -43,-251l-53 0c0,90 15,181 46,268zm4509 451c71,-63 132,-130 182,-199l-42 -31c-49,66 -108,130 -175,191l35 39zm-4162 26l35 -40c-69,-59 -130,-122 -180,-186l-42 33c53,67 116,132 187,193zm3669 296c83,-40 162,-83 235,-129l-28 -45c-71,45 -149,87 -230,126l23 48zm-3169 17l22 -49c-82,-37 -160,-78 -232,-121l-27 45c73,44 153,86 237,125zm2616 182c87,-23 173,-49 256,-77l-18 -51c-81,29 -165,54 -251,77l13 51zm-2061 10l13 -51c-87,-22 -172,-47 -253,-74l-17 50c83,28 169,53 257,75zm1484 95c89,-9 178,-22 264,-37l-9 -52c-85,15 -173,27 -261,37l6 52zm-906 4l5 -53c-88,-8 -176,-20 -261,-34l-8 53c86,14 175,25 264,34zm434 21c51,0 102,0 152,-2l-1 -53c-88,3 -176,3 -264,1l-1 53c37,1 75,1 114,1z"/>
     <path class="fil4" d="M22481 10123l4 -53c-87,-7 -177,-11 -266,-13l-1 53c88,2 177,6 263,13zm-842 16c87,-10 175,-18 263,-23l-3 -53c-89,5 -178,13 -266,23l6 53zm1415 68l12 -51c-86,-20 -174,-36 -263,-50l-8 53c88,13 175,29 259,48zm-1983 41c83,-23 169,-43 256,-60l-10 -52c-89,17 -176,38 -260,61l14 51zm2534 133l21 -49c-80,-33 -164,-65 -251,-92l-16 50c85,27 168,58 246,91zm-3075 70c76,-38 157,-73 241,-105l-19 -50c-86,33 -168,69 -246,107l24 48zm3576 214l32 -42c-68,-53 -143,-102 -224,-149l-26 46c78,45 152,94 218,145zm-4050 108c60,-57 128,-112 203,-164l-30 -43c-77,53 -148,110 -210,169l37 38zm4417 321l48 -23c-37,-77 -87,-154 -148,-226l-41 34c59,69 106,142 141,215zm-4714 154c20,-79 54,-159 100,-235l-45 -28c-49,81 -85,166 -106,250l51 13zm4811 409c23,-75 34,-153 34,-230 0,-13 0,-27 -1,-40l-53 2c1,13 1,25 1,38 0,72 -11,144 -32,215l51 15zm-4839 38l50 -17c-29,-82 -44,-167 -44,-251l-53 0c0,90 16,181 47,268zm4509 451c70,-63 131,-130 182,-199l-43 -31c-48,66 -107,130 -174,191l35 39zm-4162 26l35 -40c-69,-59 -130,-122 -181,-186l-42 32c53,68 116,133 188,194zm3669 296c83,-40 162,-83 235,-129l-28 -45c-72,45 -149,87 -230,126l23 48zm-3170 17l23 -49c-82,-37 -161,-78 -233,-122l-27 46c74,44 154,86 237,125zm2617 182c87,-23 173,-49 256,-77l-18 -51c-81,29 -166,54 -252,77l14 51zm-2061 10l12 -52c-86,-21 -171,-46 -252,-73l-17 50c83,28 169,53 257,75zm1483 95c90,-9 179,-22 265,-37l-9 -52c-85,15 -173,27 -261,37l5 52zm-905 4l5 -53c-88,-8 -176,-20 -261,-34l-9 53c87,14 176,25 265,34zm433 21c52,0 103,-1 153,-2l-2 -53c-87,3 -176,3 -263,1l-2 53c38,1 76,1 114,1z"/>
     <path class="fil4" d="M10761 16751l4 -52c-88,-7 -177,-11 -266,-13l-1 53c88,2 176,6 263,12zm-842 17c87,-10 175,-18 263,-23l-3 -53c-89,5 -178,13 -266,23l6 53zm1415 68l12 -51c-85,-19 -174,-36 -263,-50l-8 53c88,13 175,30 259,48zm-1983 41c83,-23 169,-43 256,-60l-10 -52c-89,17 -176,38 -260,61l14 51zm2534 133l21 -49c-80,-33 -165,-65 -251,-92l-16 50c85,27 168,58 246,91zm-3075 70c76,-38 157,-73 241,-105l-19 -50c-86,33 -168,69 -246,107l24 48zm3575 214l33 -42c-68,-53 -143,-103 -224,-149l-26 46c78,45 151,94 217,145zm-4049 108c60,-57 128,-112 203,-164l-30 -43c-78,53 -148,110 -210,169l37 38zm4417 321l48 -23c-37,-77 -87,-154 -148,-226l-41 34c58,69 106,142 141,215zm-4714 154c20,-79 54,-159 100,-235l-45 -28c-49,81 -85,166 -106,250l51 13zm4811 409c23,-75 34,-153 34,-230 0,-13 0,-27 -1,-40l-53 3c1,12 1,24 1,37 0,72 -11,144 -32,215l51 15zm-4839 38l50 -17c-29,-82 -44,-167 -44,-251l-53 0c0,90 16,180 47,268zm4509 451c70,-63 131,-130 182,-199l-43 -31c-48,66 -107,130 -175,191l36 39zm-4162 26l34 -40c-69,-59 -129,-122 -180,-186l-42 33c53,67 116,132 188,193zm3668 296c84,-40 163,-83 236,-129l-28 -45c-72,45 -149,87 -230,126l22 48zm-3169 17l22 -49c-82,-37 -160,-78 -232,-122l-27 46c74,44 153,86 237,125zm2617 182c87,-23 173,-49 255,-77l-17 -51c-81,29 -166,54 -252,77l14 51zm-2062 10l13 -51c-86,-22 -171,-47 -252,-74l-17 50c82,28 169,53 256,75zm1484 95c90,-9 179,-22 265,-37l-10 -52c-84,15 -172,27 -260,37l5 52zm-905 4l5 -53c-88,-8 -176,-20 -261,-34l-9 53c86,14 175,25 265,34zm433 21c51,0 102,0 153,-2l-2 -53c-87,3 -176,3 -263,1l-2 53c38,1 76,1 114,1z"/>
     <path class="fil4" d="M12352 11077l4 -53c-87,-7 -177,-11 -266,-12l-1 53c88,1 177,5 263,12zm-842 16c87,-10 175,-17 263,-22l-3 -53c-89,5 -179,12 -266,23l6 52zm1415 69l12 -52c-86,-19 -174,-36 -263,-49l-8 52c88,14 175,30 259,49zm-1983 41c83,-23 169,-43 256,-61l-10 -52c-89,18 -176,39 -260,62l14 51zm2534 133l21 -49c-80,-34 -165,-65 -251,-93l-16 51c85,27 168,58 246,91zm-3075 69c76,-37 157,-73 241,-105l-19 -49c-86,33 -168,69 -246,107l24 47zm3575 214l33 -42c-68,-52 -143,-102 -224,-148l-26 46c78,45 152,94 217,144zm-4049 109c60,-57 128,-112 203,-164l-30 -44c-77,53 -148,110 -210,169l37 39zm4417 321l48 -23c-37,-78 -87,-154 -148,-227l-41 34c58,70 106,142 141,216zm-4714 154c20,-80 54,-159 100,-236l-45 -27c-49,81 -85,165 -106,250l51 13zm4811 409c23,-76 34,-153 34,-230 0,-14 0,-27 -1,-41l-53 3c1,12 1,25 1,38 0,72 -11,144 -32,215l51 15zm-4839 38l50 -18c-29,-82 -44,-166 -44,-250l-53 0c0,90 16,180 47,268zm4509 451c70,-64 131,-131 182,-200l-43 -31c-48,66 -107,131 -175,192l36 39zm-4162 26l34 -40c-69,-60 -129,-122 -180,-187l-42 33c53,67 116,132 188,194zm3668 295c84,-39 163,-82 236,-128l-28 -45c-72,45 -149,87 -230,126l22 47zm-3169 17l22 -48c-82,-38 -160,-79 -232,-122l-27 45c74,45 153,87 237,125zm2617 183c87,-23 173,-49 255,-78l-17 -50c-81,28 -166,54 -252,77l14 51zm-2062 10l13 -52c-86,-22 -171,-46 -252,-74l-17 51c82,27 169,53 256,75zm1484 95c90,-10 179,-22 265,-37l-10 -53c-84,15 -172,28 -260,37l5 53zm-905 4l5 -53c-88,-9 -176,-20 -261,-34l-9 52c86,14 175,26 265,35zm433 21c51,0 102,-1 153,-3l-2 -53c-87,3 -176,4 -263,1l-2 53c38,1 76,2 114,2z"/>
     <path class="fil4" d="M17867 7683l5 -53c-88,-7 -178,-11 -267,-12l-1 53c88,1 177,5 263,12zm-842 16c87,-10 175,-17 263,-22l-3 -53c-89,5 -178,12 -266,23l6 52zm1415 69l12 -52c-86,-19 -174,-36 -262,-49l-8 52c87,14 174,30 258,49zm-1983 41c83,-23 169,-43 256,-61l-10 -52c-89,18 -176,38 -260,61l14 52zm2535 133l20 -49c-80,-34 -164,-65 -251,-93l-16 51c85,27 168,58 247,91zm-3076 69c76,-37 157,-73 241,-105l-19 -49c-85,32 -168,68 -245,107l23 47zm3576 214l32 -42c-68,-52 -143,-102 -224,-148l-26 46c79,45 152,93 218,144zm-4050 109c60,-57 128,-113 203,-164l-30 -44c-77,53 -148,110 -209,169l36 39zm4417 321l48 -23c-37,-78 -87,-154 -148,-227l-41 34c59,70 106,142 141,216zm-4713 154c19,-80 53,-159 100,-236l-46 -27c-49,81 -85,165 -106,250l52 13zm4810 409c23,-76 34,-153 34,-230 0,-14 0,-27 -1,-41l-53 3c1,12 1,25 1,38 0,72 -10,144 -32,215l51 15zm-4839 38l50 -18c-29,-82 -44,-166 -44,-250l-53 0c0,90 16,180 47,268zm4509 451c70,-64 132,-131 182,-200l-43 -31c-48,66 -107,130 -174,192l35 39zm-4162 26l35 -40c-69,-60 -130,-122 -181,-187l-41 33c53,67 116,132 187,194zm3669 295c83,-39 162,-83 235,-128l-28 -45c-71,44 -149,87 -230,126l23 47zm-3169 17l22 -48c-82,-38 -160,-79 -232,-122l-28 45c74,45 154,86 238,125zm2616 183c88,-23 174,-49 256,-78l-18 -50c-80,28 -165,54 -251,76l13 52zm-2061 9l13 -51c-87,-22 -172,-46 -253,-74l-17 51c83,27 169,52 257,74zm1484 96c88,-10 177,-22 264,-37l-9 -53c-86,15 -173,28 -261,37l6 53zm-906 4l5 -53c-88,-9 -175,-20 -261,-34l-9 52c87,14 176,26 265,35zm433 21c52,0 103,-1 153,-3l-2 -53c-87,3 -176,4 -263,1l-1 53c37,1 75,2 113,2z"/>
     <path class="fil5" d="M10287 13117l0 -257 75 44 0 256 -1 0c1,44 16,75 41,90l-74 -43c-25,-15 -41,-46 -41,-91l0 1z"/>
     <path class="fil6" d="M15546 5615l1434 -806c18,-11 36,-13 51,-7 1,1 3,1 5,2 2,0 3,1 5,2 2,0 3,1 5,1 2,1 4,1 5,2 2,0 4,1 5,2 2,0 4,1 6,1 1,1 3,1 5,2 2,1 3,1 5,2 2,0 3,1 5,2 2,0 4,1 5,1 2,1 4,1 5,2 2,0 4,1 6,2 1,0 3,1 5,1 1,1 3,1 5,2 2,1 3,1 5,2 2,0 3,1 5,2 2,0 4,1 5,1 2,1 4,1 5,2 2,0 4,1 6,2 1,0 3,1 5,1 1,1 3,1 5,2 2,1 3,1 5,2 2,0 3,1 5,2 2,0 4,1 5,1 2,1 4,1 5,2 2,1 4,1 6,2 1,0 3,1 5,1 2,1 3,1 5,2 2,1 3,1 5,2 2,0 4,1 5,2 34,9 57,55 57,123l0 1304c0,97 -46,203 -103,237l-203 121 0 398 -6 -4 0 3 -5 -5 0 3 -5 -5 0 3 -5 -4 0 2 -5 -4 0 3 -5 -5 0 3 -5 -5 0 3 -6 -4 0 3 -5 -5 0 3 -5 -5 0 3 -5 -4 0 2 -5 -4 0 3 -5 -5 0 3 -6 -5 0 3 -5 -4 0 3 -5 -5 0 3 -5 -5 0 3 -5 -4 0 2 -5 -4 0 3 -5 -5 0 3 -6 -5 0 3 -5 -4 0 3 -5 -5 0 3 -5 -5 0 3 -5 -4 0 2 -5 -4 0 3 -5 -5 0 3 -6 -5 0 3 -5 -4 0 3 -5 -5 0 3 -5 -5 0 3 -168 -151 -938 491c-18,11 -36,13 -51,7 -2,-1 -3,-1 -5,-2 -2,-1 -3,-1 -5,-2 -103,-41 -165,-39 -165,-172l0 -1303c0,-98 46,-204 102,-237z"/>
     <path class="fil7" d="M15670 5668l1469 -806c57,-34 103,18 103,115l0 1304c0,97 -46,203 -103,237l-204 121 0 398 -267 -240 -998 527c-56,34 -102,-18 -102,-115l0 -1304c0,-97 46,-203 102,-237z"/>
     <path class="fil5" d="M16699 5983c0,51 24,79 54,61 29,-18 54,-73 54,-125 0,-51 -25,-78 -54,-60 -30,17 -54,73 -54,124z"/>
     <path class="fil5" d="M16380 6172c0,51 25,78 54,61 30,-18 54,-74 54,-125 0,-51 -24,-78 -54,-60 -29,17 -54,73 -54,124z"/>
     <path class="fil5" d="M16062 6361c0,51 24,78 54,60 30,-17 54,-73 54,-124 0,-51 -24,-78 -54,-61 -30,18 -54,74 -54,125z"/>
     <path class="fil6" d="M10243 8614l1433 -806c19,-11 36,-13 51,-6 2,0 4,1 5,1 2,1 4,1 6,2 1,0 3,1 5,2 1,0 3,1 5,1 2,1 3,1 5,2 2,1 3,1 5,2 2,0 4,1 5,2 2,0 4,1 5,1 2,1 4,1 6,2 1,0 3,1 5,2 1,0 3,1 5,1 2,1 3,1 5,2 2,1 3,1 5,2 2,0 4,1 5,2 2,0 4,1 5,1 2,1 4,1 6,2 1,0 3,1 5,2 2,0 3,1 5,1 2,1 3,1 5,2 2,1 4,1 5,2 2,0 4,1 5,2 2,0 4,1 6,1 1,1 3,1 5,2 1,1 3,1 5,2 2,0 3,1 5,1 2,1 3,1 5,2 2,1 4,1 5,2 2,0 4,1 5,2 2,0 4,1 6,1 1,1 3,1 5,2 33,9 56,55 56,124l0 1303c0,98 -46,204 -102,237l-204 121 0 399 -5 -5 0 3 -5 -5 0 3 -5 -4 0 3 -6 -5 0 3 -5 -5 0 3 -5 -4 0 2 -5 -4 0 3 -5 -5 0 3 -5 -5 0 3 -5 -4 0 3 -6 -5 0 3 -5 -5 0 3 -5 -4 0 3 -5 -5 0 3 -5 -5 0 3 -5 -5 0 3 -5 -4 0 3 -6 -5 0 3 -5 -5 0 3 -5 -4 0 2 -5 -4 0 3 -5 -5 0 3 -5 -5 0 3 -6 -4 0 3 -5 -5 0 3 -5 -5 0 3 -5 -4 0 2 -5 -4 0 3 -5 -5 0 3 -5 -5 0 3 -6 -4 0 3 -168 -152 -937 492c-19,11 -36,12 -51,6 -2,0 -4,-1 -5,-2 -2,0 -4,-1 -6,-1 -102,-42 -165,-40 -165,-172l0 -1304c0,-97 46,-203 103,-237z"/>
     <path class="fil7" d="M10367 8668l1469 -807c56,-33 102,19 102,116l0 1303c0,98 -46,204 -102,237l-204 121 0 399 -267 -241 -998 527c-57,34 -103,-18 -103,-115l0 -1304c0,-97 46,-203 103,-236z"/>
     <path class="fil5" d="M11395 8983c0,51 25,78 54,60 30,-17 54,-73 54,-124 0,-51 -24,-78 -54,-61 -29,18 -54,74 -54,125z"/>
     <path class="fil5" d="M11077 9171c0,52 24,79 54,61 29,-17 54,-73 54,-124 0,-51 -25,-79 -54,-61 -30,18 -54,73 -54,124z"/>
     <path class="fil5" d="M10759 9360c0,51 24,78 53,61 30,-18 54,-73 54,-125 0,-51 -24,-78 -54,-60 -29,17 -53,73 -53,124z"/>
     <path class="fil6" d="M20902 7304l1433 -806c19,-11 36,-13 51,-7 2,1 4,1 5,2 2,1 4,1 6,2 1,0 3,1 5,2 1,0 3,1 5,1 2,1 3,1 5,2 2,0 4,1 5,2 2,0 4,1 5,1 2,1 4,2 5,2 2,1 4,1 6,2 1,0 3,1 5,2 2,0 3,1 5,1 2,1 3,1 5,2 2,1 4,1 5,2 2,0 4,1 5,1 2,1 4,1 5,2 2,1 4,1 6,2 1,0 3,1 5,2 2,0 3,1 5,1 2,1 3,1 5,2 2,1 4,1 5,2 2,0 4,1 5,1 2,1 4,2 6,2 1,1 3,1 5,2 1,0 3,1 5,2 2,0 3,1 5,1 2,1 4,1 5,2 2,1 4,1 5,2 2,0 4,1 5,2 2,0 4,1 6,1 1,1 3,1 5,2 33,9 56,55 56,124l0 1303c0,98 -46,204 -102,237l-204 121 0 399 -5 -5 0 3 -5 -5 0 3 -5 -4 0 3 -6 -5 0 3 -5 -5 0 3 -5 -5 0 3 -5 -4 0 3 -5 -5 0 3 -5 -5 0 3 -5 -4 0 3 -6 -5 0 3 -5 -5 0 3 -5 -5 0 3 -5 -4 0 3 -5 -5 0 3 -5 -5 0 3 -6 -4 0 2 -5 -4 0 3 -5 -5 0 3 -5 -5 0 3 -5 -4 0 3 -5 -5 0 3 -5 -5 0 3 -6 -4 0 3 -5 -5 0 3 -5 -5 0 3 -5 -5 0 3 -5 -4 0 3 -5 -5 0 3 -5 -5 0 3 -6 -4 0 2 -168 -151 -937 491c-19,11 -36,13 -51,7 -2,0 -4,-1 -5,-2 -2,0 -4,-1 -6,-1 -102,-42 -164,-40 -164,-172l0 -1304c0,-97 45,-203 102,-237z"/>
     <path class="fil7" d="M21026 7357l1469 -806c56,-33 102,18 102,116l0 1303c0,98 -46,204 -102,237l-204 121 0 399 -267 -241 -998 527c-57,34 -103,-18 -103,-115l0 -1304c0,-97 46,-203 103,-237z"/>
     <path class="fil5" d="M22054 7673c0,51 25,78 54,60 30,-17 54,-73 54,-124 0,-51 -24,-78 -54,-61 -29,18 -54,73 -54,125z"/>
     <path class="fil5" d="M21736 7861c0,51 24,79 54,61 29,-18 54,-73 54,-124 0,-52 -25,-79 -54,-61 -30,17 -54,73 -54,124z"/>
     <path class="fil5" d="M21418 8050c0,51 24,78 53,61 30,-18 54,-74 54,-125 0,-51 -24,-78 -54,-60 -29,17 -53,73 -53,124z"/>
     <path class="fil6" d="M15174 10433l1434 -806c18,-11 36,-13 51,-7 2,1 3,1 5,2 2,1 3,1 5,2 2,0 4,1 5,2 2,0 4,1 5,1 2,1 4,1 6,2 1,0 3,1 5,2 1,0 3,1 5,1 2,1 3,1 5,2 2,1 3,1 5,2 2,0 4,1 5,1 2,1 4,2 5,2 2,1 4,1 6,2 1,0 3,1 5,2 1,0 3,1 5,1 2,1 3,1 5,2 2,1 4,1 5,2 2,0 4,1 5,2 2,0 4,1 5,1 2,1 4,1 6,2 1,0 3,1 5,2 2,0 3,1 5,1 2,1 3,1 5,2 2,1 4,1 5,2 2,0 4,1 5,2 2,0 4,1 6,1 1,1 3,1 5,2 1,0 3,1 5,2 2,0 3,1 5,1 2,1 3,1 5,2 2,1 4,1 5,2 34,9 57,55 57,124l0 1303c0,98 -46,204 -103,237l-203 121 0 399 -6 -5 0 3 -5 -5 0 3 -5 -4 0 2 -5 -4 0 3 -5 -5 0 3 -5 -5 0 3 -6 -4 0 3 -5 -5 0 3 -5 -5 0 3 -5 -4 0 2 -5 -4 0 3 -5 -5 0 3 -5 -5 0 3 -6 -4 0 3 -5 -5 0 3 -5 -5 0 3 -5 -5 0 3 -5 -4 0 3 -5 -5 0 3 -5 -5 0 3 -6 -4 0 3 -5 -5 0 3 -5 -5 0 3 -5 -5 0 3 -5 -4 0 3 -5 -5 0 3 -5 -5 0 3 -6 -4 0 3 -5 -5 0 3 -5 -5 0 3 -5 -5 0 3 -168 -151 -938 491c-18,11 -36,13 -51,7 -2,-1 -3,-1 -5,-2 -2,0 -3,-1 -5,-2 -103,-41 -165,-39 -165,-171l0 -1304c0,-97 46,-203 102,-237z"/>
     <path class="fil7" d="M15298 10486l1469 -806c57,-33 103,18 103,116l0 1303c0,97 -46,204 -103,237l-203 121 0 399 -268 -241 -998 527c-56,34 -102,-18 -102,-115l0 -1304c0,-97 46,-203 102,-237z"/>
     <path class="fil5" d="M16327 10801c0,52 24,79 54,61 29,-17 54,-73 54,-124 0,-51 -25,-79 -54,-61 -30,18 -54,73 -54,124z"/>
     <path class="fil5" d="M16009 10990c0,51 24,79 53,61 30,-18 54,-73 54,-125 0,-51 -24,-78 -54,-60 -29,17 -53,73 -53,124z"/>
     <path class="fil5" d="M15690 11179c0,51 24,78 54,61 30,-18 54,-74 54,-125 0,-51 -24,-78 -54,-61 -30,18 -54,74 -54,125z"/>
     <path class="fil6" d="M9076 13652l1433 -806c19,-11 36,-12 52,-6 1,0 3,1 5,1 1,1 3,1 5,2 2,1 3,1 5,2 2,0 3,1 5,1 2,1 4,2 5,2 2,1 4,1 5,2 2,0 4,1 6,2 1,0 3,1 5,1 2,1 3,1 5,2 2,1 3,1 5,2 2,0 3,1 5,2 2,0 4,1 5,1 2,1 4,1 5,2 2,0 4,1 6,2 1,0 3,1 5,1 2,1 3,1 5,2 2,1 3,1 5,2 2,0 4,1 5,1 2,1 4,2 5,2 2,1 4,1 6,2 1,0 3,1 5,2 1,0 3,1 5,1 2,1 3,1 5,2 2,1 3,1 5,2 2,0 4,1 5,2 2,0 4,1 5,1 2,1 4,1 6,2 1,0 3,1 5,2 1,0 3,1 5,1 2,1 3,1 5,2 33,9 56,55 56,124l0 1303c0,98 -45,204 -102,237l-204 121 0 399 -5 -5 0 3 -5 -4 0 2 -5 -4 0 3 -5 -5 0 3 -5 -5 0 3 -6 -4 0 3 -5 -5 0 3 -5 -5 0 3 -5 -5 0 3 -5 -4 0 3 -5 -5 0 3 -5 -5 0 3 -6 -4 0 3 -5 -5 0 3 -5 -5 0 3 -5 -5 0 3 -5 -4 0 3 -5 -5 0 3 -6 -5 0 3 -5 -4 0 3 -5 -5 0 3 -5 -5 0 3 -5 -5 0 3 -5 -4 0 3 -5 -5 0 3 -6 -5 0 3 -5 -4 0 3 -5 -5 0 3 -5 -5 0 3 -5 -5 0 3 -5 -4 0 3 -169 -152 -937 492c-19,11 -36,12 -51,6 -2,0 -3,-1 -5,-2 -2,0 -4,-1 -5,-1 -103,-41 -165,-40 -165,-172l0 -1304c0,-97 46,-203 102,-237z"/>
     <path class="fil7" d="M9200 13706l1469 -807c57,-33 102,19 102,116l0 1303c0,98 -45,204 -102,237l-204 121 0 399 -267 -240 -998 527c-56,33 -102,-19 -102,-116l0 -1303c0,-98 46,-204 102,-237z"/>
     <path class="fil5" d="M10229 14021c0,51 24,78 54,60 29,-17 53,-73 53,-124 0,-51 -24,-78 -53,-61 -30,18 -54,74 -54,125z"/>
     <path class="fil5" d="M9910 14209c0,52 24,79 54,61 30,-17 54,-73 54,-124 0,-51 -24,-79 -54,-61 -30,18 -54,73 -54,124z"/>
     <path class="fil5" d="M9592 14398c0,51 24,79 54,61 29,-18 53,-73 53,-125 0,-51 -24,-78 -53,-60 -30,17 -54,73 -54,124z"/>
     <path class="fil4" d="M12585 13924l44 -29 -147 -221 -44 30 147 220zm324 486l44 -30 -147 -220 -45 29 148 221zm323 485l44 -29 -147 -221 -44 29 147 221zm324 485l44 -29 -147 -221 -44 30 147 220zm323 486l44 -30 -147 -220 -44 29 147 221zm4091 104l28 -45 -209 -133 -29 45 210 133zm493 312l28 -45 -224 -142 -28 45 224 142zm-4260 69l44 -29 -147 -221 -44 30 147 220zm4752 243l29 -45 -224 -142 -29 45 224 142zm-4429 243l45 -30 -148 -220 -44 29 147 221zm4922 69l29 -45 -224 -142 -29 45 224 142zm493 312l28 -45 -224 -142 -28 45 224 142zm-5012 23l11 -52 -134 -28 -59 -89 -44 29 71 107 155 33zm571 121l11 -52 -260 -55 -11 52 260 55zm570 121l11 -52 -259 -55 -11 52 259 55zm4364 47l28 -44 -224 -142 -28 44 224 142zm-3793 74l11 -51 -259 -56 -11 52 259 55zm571 122l11 -52 -260 -55 -11 51 260 56zm3715 117l28 -45 -224 -142 -28 45 224 142zm-3145 4l11 -52 -259 -55 -11 52 259 55zm571 121l11 -52 -259 -55 -11 52 259 55zm571 121l11 -52 -260 -55 -11 52 260 55zm2496 66l28 -45 -224 -142 -28 45 224 142zm-1926 55l11 -52 -259 -55 -11 52 259 55zm571 121l11 -52 -259 -55 -11 52 259 55zm570 122l12 -52 -260 -55 -11 51 259 56zm1277 14l29 -45 -224 -142 -29 45 224 142zm-706 107l11 -52 -259 -55 -11 52 259 55zm571 121l11 -52 -260 -55 -11 52 260 55zm628 84l29 -45 -224 -142 -29 45 224 142zm-58 37l11 -52 -259 -55 -11 52 259 55z"/>
     <path class="fil4" d="M18611 10498l50 -16 -80 -253 -51 16 81 253zm178 555l50 -16 -81 -252 -50 16 81 252zm178 556l50 -16 -81 -253 -50 16 81 253zm177 556l51 -17 -81 -252 -50 16 80 253zm178 555l51 -16 -81 -253 -51 17 81 252zm244 533l47 -25 -124 -234 -47 25 124 234zm272 516l47 -25 -124 -234 -47 25 124 234zm272 516l47 -24 -124 -235 -47 25 124 234zm272 516l46 -24 -123 -235 -47 25 124 234zm271 516l47 -24 -123 -235 -47 25 123 234zm272 517l47 -25 -123 -235 -47 25 123 235zm272 516l47 -25 -123 -235 -47 25 123 235zm272 516l47 -25 -124 -234 -46 24 123 235zm272 516l47 -25 -124 -234 -47 24 124 235zm272 516l47 -25 -124 -234 -47 24 124 235zm272 516l47 -24 -124 -235 -47 25 124 234zm147 442l98 -1 15 -24 11 -16 -76 -144 -47 25 56 106 -58 1 1 53zm-584 6l265 -3 0 -53 -265 3 0 53zm-583 6l265 -3 0 -53 -265 3 0 53zm-583 6l265 -3 -1 -53 -265 3 1 53zm-584 6l266 -3 -1 -53 -265 3 0 53zm-583 6l265 -3 0 -53 -265 3 0 53zm-583 6l265 -3 -1 -53 -265 3 1 53zm-584 6l266 -3 -1 -53 -265 3 0 53zm-583 6l265 -3 0 -53 -265 3 0 53zm-583 6l265 -3 -1 -53 -265 3 1 53zm-584 6l266 -2 -1 -53 -265 2 0 53zm-583 6l265 -2 0 -53 -265 2 0 53zm-583 6l265 -2 -1 -53 -265 2 1 53zm-584 6l266 -2 -1 -53 -265 2 0 53zm-583 6l265 -2 0 -53 -265 2 0 53zm-583 7l265 -3 0 -53 -266 2 1 54zm-584 6l266 -3 -1 -53 -265 3 0 53zm-583 6l265 -3 0 -53 -265 3 0 53z"/>
     <path class="fil4" d="M22721 13054l7 -265 -53 -2 -7 265 53 2zm-16 583l7 -265 -53 -2 -7 266 53 1zm-15 583l7 -265 -53 -1 -7 265 53 1zm-15 583l7 -265 -53 -1 -7 265 53 1zm-16 583l7 -265 -53 -1 -7 265 53 1zm-15 584l7 -266 -53 -1 -7 265 53 2zm-15 583l7 -265 -54 -2 -6 265 53 2zm-16 583l7 -265 -53 -2 -7 265 53 2zm-15 583l7 -265 -53 -2 -7 266 53 1zm-16 583l8 -265 -54 -1 -7 265 53 1zm-13 532l5 -214 -53 -1 -6 214 54 1z"/>
     <path class="fil8" d="M21727 12789l1595 -897c21,-12 40,-14 57,-7 2,0 4,1 6,2 2,0 4,1 5,2 2,0 4,1 6,2 2,0 4,1 6,2 2,0 4,1 6,1 2,1 3,2 5,2 2,1 4,2 6,2 2,1 4,1 6,2 2,1 4,1 6,2 1,1 3,1 5,2 2,1 4,1 6,2 2,0 4,1 6,2 2,0 4,1 5,2 2,0 4,1 6,2 2,0 4,1 6,2 2,0 4,1 6,1 2,1 4,2 5,2 2,1 4,2 6,2 2,1 4,1 6,2 2,1 4,1 6,2 2,1 3,1 5,2 2,1 4,1 6,2 2,0 4,1 6,2 2,0 4,1 5,2 2,0 4,1 6,2 2,0 4,1 6,2 2,0 4,1 6,2 2,0 4,1 5,1 2,1 4,2 6,2 2,1 4,1 6,2 37,10 63,61 63,138l0 1450c0,109 -51,227 -114,264l-227 134 0 444 -6 -5 0 3 -5 -5 0 3 -6 -5 0 3 -6 -5 0 3 -6 -5 0 3 -5 -5 0 3 -6 -5 0 4 -6 -6 0 4 -6 -6 0 4 -5 -5 0 3 -6 -5 0 3 -6 -5 0 3 -5 -5 0 3 -6 -5 0 3 -6 -5 0 3 -6 -5 0 3 -5 -5 0 3 -6 -5 0 4 -6 -6 0 4 -6 -6 0 4 -5 -5 0 3 -6 -5 0 3 -6 -5 0 3 -5 -5 0 3 -6 -5 0 3 -6 -5 0 3 -6 -5 0 3 -5 -5 0 3 -6 -5 0 4 -6 -6 0 4 -6 -6 0 4 -187 -169 -1043 547c-20,12 -40,14 -57,7 -2,0 -3,-1 -5,-2 -2,0 -4,-1 -6,-2 -114,-45 -183,-43 -183,-191l0 -1450c0,-108 50,-226 113,-264z"/>
     <path class="fil4" d="M21865 12849l1635 -898c63,-37 114,21 114,129l0 1450c0,109 -51,227 -114,264l-227 134 0 444 -297 -267 -1111 586c-63,37 -114,-20 -114,-129l0 -1450c0,-108 51,-226 114,-263z"/>
     <path class="fil5" d="M23010 13199c0,57 27,87 60,68 33,-20 59,-82 59,-139 0,-57 -26,-87 -59,-67 -33,19 -60,81 -60,138z"/>
     <path class="fil5" d="M22655 13409c0,57 27,87 60,68 33,-20 60,-82 60,-139 0,-57 -27,-87 -60,-67 -33,19 -60,81 -60,138z"/>
     <path class="fil5" d="M22301 13619c0,57 27,87 60,68 33,-20 60,-82 60,-139 0,-57 -27,-87 -60,-67 -33,19 -60,81 -60,138z"/>
     <polygon class="fil9" points="24035,15057 24042,14921 23601,15036 23546,15179 "/>
     <g>
      <path class="fil9" d="M23195 19286c1,26 -18,47 -41,48 -24,0 -43,-20 -44,-45 -1,-26 18,-47 41,-48 23,0 43,20 44,45z"/>
      <path class="fil9" d="M23266 18057c1,34 27,62 59,61 32,-1 57,-30 56,-64 -1,-35 -28,-62 -59,-61 -32,1 -57,29 -56,64z"/>
      <path class="fil9" d="M23570 14926c1,33 -23,61 -54,62 -30,1 -56,-26 -57,-59 -1,-34 23,-62 54,-62 31,-1 56,25 57,59z"/>
      <path class="fil10" d="M24241 15454c14,0 26,-12 27,-26 0,-15 -12,-27 -27,-27 -15,0 -27,12 -27,26 0,15 12,27 27,27z"/>
      <path class="fil11" d="M23396 14952l1176 8c142,0 257,117 256,259l-11 1805c-1,142 -117,257 -259,256l-1176 -7c-142,-1 -258,-118 -257,-260l12 -1804c1,-142 117,-258 259,-257z"/>
      <path class="fil12" d="M23424 15030l1119 7c115,0 209,95 208,210l-11 1748c-1,115 -95,208 -210,208l-1120 -7c-115,-1 -208,-96 -207,-211l11 -1748c0,-115 95,-208 210,-207z"/>
      <path class="fil13" d="M23514 16521c-10,85 -125,358 -151,492 -24,120 -161,1364 -35,1409 51,19 501,101 527,16 100,-328 -11,-1099 130,-1101 105,-2 67,443 86,800 6,111 17,213 40,291 25,86 476,9 527,-9 106,-37 -9,-1303 -27,-1398 -24,-134 -135,-409 -145,-494l-476 60 -476 -66z"/>
      <path class="fil14" d="M24053 17491c4,41 7,88 8,139l600 -50c-3,-48 -6,-94 -10,-139l-598 50z"/>
      <path class="fil14" d="M23315 17427c-4,45 -8,91 -12,139l605 58c1,-51 4,-98 9,-139l-602 -58z"/>
      <path class="fil13" d="M23682 15369c-11,17 -332,79 -353,95 -22,17 -45,348 -31,386 14,38 26,324 54,419 28,96 37,229 22,353 -15,124 -35,190 -2,248 33,56 476,133 610,141l0 0c135,-7 579,-78 612,-134 7,-11 23,-850 87,-1018 15,-38 -4,-370 -26,-386 -21,-17 -341,-83 -351,-100l-311 20 -311 -24z"/>
      <path class="fil15" d="M24677 16046c-83,295 -66,910 -73,920 -9,16 -49,32 -105,48 -27,2 -61,12 -96,24 -23,5 -47,10 -71,15 78,-47 195,-125 208,-190 20,-104 28,-250 5,-380 -22,-129 29,-478 56,-487 28,-9 59,41 76,50z"/>
      <path class="fil15" d="M23311 15948c10,103 22,256 41,321 28,96 37,229 22,353 -15,124 -35,190 -2,248 9,15 49,32 105,49 27,2 61,12 96,25 23,5 47,10 71,15 -78,-47 -194,-127 -206,-192 -19,-104 -26,-250 -1,-380 26,-129 -41,-432 -89,-449 -6,-2 -19,2 -37,10z"/>
      <path class="fil16" d="M23583 15284c-15,96 -88,107 -172,156 0,0 68,207 198,258 64,26 226,35 388,35 162,2 325,-5 389,-30 131,-50 201,-256 201,-256 -84,-50 -156,-61 -170,-157l-417 -19 -417 13z"/>
      <path class="fil13" d="M24500 15144c33,-30 83,-80 88,-107 8,-40 -4,-260 -18,-294 -12,-30 -94,-88 -116,-106 -90,-209 -276,-302 -461,-311 -190,7 -381,102 -472,320 -33,25 -88,66 -98,90 -14,33 -29,254 -22,293 4,24 44,67 75,97 146,450 845,481 1024,18z"/>
      <path class="fil17" d="M23994 15443c287,1 523,-231 525,-518 2,-288 -231,-523 -518,-525 -287,-2 -523,231 -525,518 -1,287 231,523 518,525z"/>
      <path class="fil18" d="M24001 14400c157,1 298,72 393,183 19,54 29,113 29,174 -2,287 -237,519 -525,518 -157,-1 -298,-72 -393,-183 -19,-54 -29,-113 -29,-174 2,-288 237,-520 525,-518z"/>
      <path class="fil13" d="M23987 14456c114,0 218,45 295,118 -67,-33 -143,-51 -223,-52 -248,-1 -457,173 -508,407 -1,-14 -2,-28 -2,-42 2,-240 197,-433 438,-431z"/>
      <path class="fil13" d="M23410 15497c-27,12 -55,-45 -81,-33 -383,178 -593,431 -593,431 -76,110 4,444 114,427 113,-49 86,-42 472,-262 107,-69 121,-291 88,-563z"/>
      <path class="fil12" d="M22747 16225c26,61 63,103 103,97 113,-49 86,-42 472,-262 25,-16 45,-40 60,-72 -11,-27 -23,-46 -34,-50 -48,-16 -430,287 -507,302 -29,6 -62,3 -94,-15z"/>
      <path class="fil13" d="M22864 16315c-439,233 -348,-741 -346,-929 1,-87 137,-63 298,-88 0,0 234,886 48,1017z"/>
      <path class="fil12" d="M22864 16315c-439,233 -348,-741 -346,-929 0,-17 6,-30 16,-40 27,-13 45,-22 46,-22l0 0c0,1 -6,426 35,656 42,230 148,275 226,260 16,-3 46,-19 83,-42 -11,54 -30,96 -60,117z"/>
      <path class="fil12" d="M23648 15775l660 4c85,1 153,70 153,155l-5 672c0,84 -57,152 -141,152l-673 -4c-85,0 -153,-70 -153,-154l4 -672c1,-85 70,-153 155,-153z"/>
      <path class="fil13" d="M23627 15789l660 4c85,1 153,70 153,154l-5 673c0,71 -41,103 -112,102l-661 -4c-84,0 -153,-70 -152,-154l4 -673c0,-25 7,-48 18,-69 26,-21 59,-33 95,-33z"/>
      <polygon class="fil12" points="23659,16354 23858,16355 23861,15892 23662,15891 "/>
      <polygon class="fil19" points="24056,16223 24297,16225 24298,16096 24057,16095 "/>
      <polygon class="fil19" points="24164,15996 24293,15996 24293,15882 24165,15882 "/>
      <path class="fil12" d="M24183 16537c74,0 134,-60 135,-133 0,-74 -60,-134 -133,-134 -74,-1 -134,59 -134,132 -1,74 59,134 132,135z"/>
      <path class="fil14" d="M23514 16386c0,0 -40,42 -175,232 -116,163 -237,259 -315,287 -40,15 -75,15 -101,-1 -31,-18 -46,-51 -38,-98 10,-65 148,-212 285,-364 24,-25 40,76 1,111 -121,135 -181,216 -190,265 3,-1 6,-2 10,-3 63,-24 165,-107 269,-253 143,-201 253,-280 253,-280l1 104z"/>
      <path class="fil14" d="M23510 16020c-34,-30 -134,-133 -175,-180 -90,-107 -192,-243 -236,-359 -41,-109 -32,-202 76,-243 16,-6 40,22 14,37 -82,30 -86,104 -53,193 41,110 140,242 229,346 40,48 124,121 148,154 0,9 0,37 -3,52z"/>
      <path class="fil14" d="M24348 16739c205,261 354,96 417,-93 34,-63 106,-45 61,47 -116,305 -364,318 -570,56 -10,-26 74,-42 92,-10z"/>
      <path class="fil15" d="M23581 17742c135,1 248,88 273,202 16,1 33,3 49,4 34,-1 16,194 -5,187l-83 -6c-50,69 -138,115 -237,114 -115,-1 -213,-63 -256,-152 -15,-1 -31,-2 -46,-3 -37,-3 -27,-199 5,-198 4,1 19,2 41,4 43,-90 143,-152 259,-152z"/>
      <path class="fil15" d="M24374 17746c103,0 192,50 240,124 49,-6 60,-7 63,-7 29,-3 36,239 5,240l-57 1c-45,85 -142,143 -254,142 -94,0 -177,-42 -228,-107 -24,2 -48,4 -72,6 -24,3 -33,-205 -7,-207l38 -6c32,-108 142,-187 272,-186z"/>
      <path class="fil20" d="M24550 17803c25,18 47,41 64,67 49,-6 60,-9 63,-7 2,2 5,240 5,240l-57 1c-17,34 -43,63 -75,86 1,-123 1,-275 0,-387z"/>
      <path class="fil12" d="M23522 17828l142 14c26,2 44,25 42,50l-21 220c-2,25 -25,44 -50,42l-143 -14c-25,-3 -44,-25 -41,-50l21 -220c2,-26 25,-44 50,-42z"/>
      <path class="fil12" d="M24458 17830l-142 12c-26,2 -45,25 -43,50l19 220c2,25 24,44 50,42l142 -12c26,-2 44,-24 42,-49l-18 -220c-2,-26 -24,-45 -50,-43z"/>
      <path class="fil15" d="M23711 17275l220 129c6,-20 13,-36 21,-48 -29,-19 -71,-47 -120,-81 -36,-24 -76,-50 -116,-77 -134,-90 -279,-187 -343,-227 -4,15 -8,29 -10,42 -2,10 -5,29 -8,54l222 130 134 78z"/>
      <path class="fil15" d="M24183 17278l-159 87c7,12 12,28 17,48l279 -134 159 -77 145 -70c-4,-40 -7,-71 -10,-91l-292 160 -139 77z"/>
      <path class="fil14" d="M23886 18274l-607 -32c1,21 3,41 5,59l595 30c3,-18 5,-38 7,-57z"/>
      <path class="fil14" d="M24083 18282c2,20 5,40 8,58l584 -40c2,-18 3,-38 4,-59l-596 41z"/>
      <path class="fil21" d="M24549 18308l126 -8c2,-18 3,-38 4,-59l-129 9c-1,21 -1,41 -1,58z"/>
      <path class="fil15" d="M24164 16733l-2 303c0,30 -31,54 -68,54l-166 -1c-37,-1 -67,-25 -67,-55l2 -302 301 1z"/>
      <path class="fil22" d="M23355 17067l81 47c0,-15 1,-27 1,-37 0,-24 8,-41 21,-51 -35,-23 -64,-42 -85,-55 -4,15 -7,29 -10,42 -2,10 -5,29 -8,54z"/>
      <path class="fil21" d="M23379 18248l-100 -6c1,22 3,41 5,59l99 5c-1,-17 -3,-37 -4,-58z"/>
      <path class="fil23" d="M22476 15334c10,21 112,72 194,65 83,-7 146,-101 146,-101 0,0 -6,-79 -58,-172 -51,-93 -85,-162 -103,-151 -18,11 -4,144 -4,144 0,0 -99,-90 -174,-137 -75,-48 -88,-59 -107,-41 -18,17 11,49 11,49 0,0 -76,-42 -98,-23 -22,20 19,65 19,65 0,0 -49,-24 -67,4 -19,28 51,68 51,68 0,0 -42,-13 -44,16 -3,33 201,186 234,214z"/>
      <path class="fil14" d="M22242 15120c-3,33 201,186 235,214 3,8 20,20 44,32 40,20 98,38 149,33 83,-7 146,-101 146,-101 0,0 0,-1 -1,-5 -3,2 -6,5 -10,7 -43,28 -115,66 -184,60 -114,-11 -244,-129 -377,-249 -1,2 -2,5 -2,9z"/>
      <path class="fil13" d="M24580 15504c27,13 56,-44 81,-31 381,182 588,437 588,437 75,111 -10,444 -120,426 -112,-50 -85,-43 -468,-268 -107,-69 -118,-292 -81,-564z"/>
      <path class="fil12" d="M25234 16241c-27,60 -64,102 -105,95 -112,-50 -85,-43 -468,-268 -25,-16 -45,-40 -60,-72 12,-28 24,-46 35,-49 48,-17 427,291 504,307 29,6 62,4 94,-13z"/>
      <path class="fil13" d="M25116 16329c435,239 357,-737 357,-924 0,-88 -136,-65 -297,-92 0,0 -244,883 -60,1016z"/>
      <path class="fil12" d="M25116 16329c435,239 357,-737 357,-924 0,-18 -5,-31 -15,-40 -27,-14 -45,-23 -46,-23l0 0c0,0 1,426 -44,655 -44,230 -151,274 -228,257 -16,-3 -46,-20 -83,-43 10,55 29,97 59,118z"/>
      <path class="fil23" d="M25515 15353c-9,21 -112,71 -194,63 -83,-9 -145,-103 -145,-103 0,0 8,-79 60,-172 53,-92 88,-160 105,-149 18,11 2,144 2,144 0,0 100,-89 176,-135 75,-47 89,-58 107,-40 19,18 -11,49 -11,49 0,0 77,-41 98,-21 22,20 -20,64 -20,64 0,0 50,-23 68,5 18,28 -53,67 -53,67 0,0 43,-12 45,17 2,33 -204,183 -238,211z"/>
      <path class="fil14" d="M25753 15142c2,33 -204,183 -238,211 -3,8 -20,20 -45,32 -39,18 -98,36 -149,31 -83,-9 -145,-103 -145,-103 0,0 1,-2 1,-5 3,2 7,5 10,7 43,28 114,67 183,62 114,-9 246,-125 381,-244 1,2 2,5 2,9z"/>
      <path class="fil21" d="M23209 16008c-21,13 -42,28 -64,43l41 87c7,-4 14,-8 22,-13 16,-9 33,-19 51,-29l-49 -89c0,1 -1,1 -1,1z"/>
      <path class="fil14" d="M23145 16051c22,-15 44,-30 64,-43 0,0 1,-1 1,-1l-1 -3 -76 -141 -117 -216c-16,11 -30,22 -44,33l160 342 13 29z"/>
      <path class="fil21" d="M24823 16051c-17,-12 -34,-23 -50,-34l-27 81 -6 17c2,1 4,2 6,3 23,14 45,27 65,39l12 -38 18 -56c-6,-4 -12,-8 -18,-12z"/>
      <path class="fil14" d="M24773 16017c16,11 33,22 50,34 6,4 12,8 18,12l129 -405c-20,-14 -40,-29 -62,-44l-84 250 -51 153z"/>
      <polygon class="fil19" points="23658,16532 23955,16534 23955,16444 23659,16443 "/>
      <polygon class="fil19" points="24003,15995 24132,15995 24132,15881 24004,15881 "/>
      <path class="fil16" d="M23860 18415c17,3 -543,-40 -559,-40 -16,1 17,582 17,582 19,64 -261,194 -258,303 2,95 151,122 244,120 94,-2 233,-88 312,-136 79,-48 110,-62 116,-93 6,-31 -5,-177 -5,-177l133 -559z"/>
      <path class="fil12" d="M23140 19286c-32,-71 180,-263 230,-274 50,-10 206,-31 194,-30 -12,2 -168,1 -189,-47 -22,-47 -49,-489 13,-498 62,-9 297,-34 297,-34 -160,-12 -374,-28 -384,-28 -1,0 -1,2 -2,4 -11,51 19,578 19,578 19,64 -261,194 -258,303 2,95 151,122 244,120 10,0 21,-1 32,-3 0,0 -164,-21 -196,-91z"/>
      <path class="fil16" d="M24107 18415c-16,3 544,-33 560,-32 16,1 -24,582 -24,582 -21,63 258,196 254,305 -3,95 -152,121 -246,117 -93,-3 -232,-90 -310,-140 -78,-49 -109,-63 -115,-94 -5,-31 7,-177 7,-177l-126 -561z"/>
      <path class="fil12" d="M24817 19295c33,-70 -177,-265 -227,-276 -50,-11 -206,-34 -193,-33 12,2 167,3 189,-44 22,-48 56,-489 -6,-499 -62,-10 -298,-38 -298,-38 161,-9 375,-23 385,-22 1,0 1,1 2,4 10,50 -26,578 -26,578 -21,63 258,196 254,305 -3,95 -152,121 -246,117 -10,0 -21,-1 -32,-4 0,0 165,-18 198,-88z"/>
     </g>
    </g>
   </g>
  </g>
 </g>
</svg>
