<?xml version="1.0" encoding="UTF-8"?>
<!DOCTYPE svg PUBLIC "-//W3C//DTD SVG 1.1//EN" "http://www.w3.org/Graphics/SVG/1.1/DTD/svg11.dtd">
<!-- Creator: CorelDRAW X7 -->
<svg xmlns="http://www.w3.org/2000/svg" xml:space="preserve" width="100%" height="100%" version="1.1" style="shape-rendering:geometricPrecision; text-rendering:geometricPrecision; image-rendering:optimizeQuality; fill-rule:evenodd; clip-rule:evenodd"
viewBox="0 0 813 813"
 xmlns:xlink="http://www.w3.org/1999/xlink">
 <defs>
  <style type="text/css">
   <![CDATA[
    .fil3 {fill:#CCCCCC;fill-rule:nonzero}
    .fil0 {fill:#D2AE6D;fill-rule:nonzero}
    .fil2 {fill:#E6E6E6;fill-rule:nonzero}
    .fil1 {fill:white;fill-rule:nonzero}
   ]]>
  </style>
 </defs>
 <g id="Layer_x0020_1">
  <metadata id="CorelCorpID_0Corel-Layer"/>
  <g id="_3094302206224">
   <path class="fil0" d="M478 303l-18 5c-14,4 -30,-5 -34,-20 -4,-14 4,-28 20,-32l18 -5c13,-3 30,4 32,18 4,15 -4,30 -18,34z"/>
   <path class="fil1" d="M302 16c217,-58 439,70 497,286 57,215 -71,437 -287,495 -217,58 -440,-70 -498,-284 -58,-217 72,-439 288,-497z"/>
   <path class="fil2" d="M737 642c-54,74 -132,130 -225,155 -217,58 -440,-70 -498,-284 -32,-121 -5,-244 62,-340 0,0 -34,326 197,460 230,131 464,9 464,9l0 0z"/>
   <path class="fil3" d="M218 695l-5 -18c-6,-24 28,-33 34,-9l5 18c7,23 -28,32 -34,9z"/>
   <path class="fil2" d="M666 535c-2,4 -5,9 -7,13 -7,11 -24,1 -18,-11 2,-3 6,-8 8,-12 6,-12 24,-1 17,10z"/>
   <path class="fil2" d="M239 130c-12,-45 60,-64 72,-19 13,47 -59,66 -72,19z"/>
   <path class="fil2" d="M482 640c-8,-29 37,-41 45,-12 8,30 -37,42 -45,12z"/>
  </g>
 </g>
</svg>
