<?xml version="1.0" encoding="UTF-8"?>
<!DOCTYPE svg PUBLIC "-//W3C//DTD SVG 1.1//EN" "http://www.w3.org/Graphics/SVG/1.1/DTD/svg11.dtd">
<!-- Creator: CorelDRAW X7 -->
<svg xmlns="http://www.w3.org/2000/svg" xml:space="preserve" width="100%" height="100%" version="1.1" style="shape-rendering:geometricPrecision; text-rendering:geometricPrecision; image-rendering:optimizeQuality; fill-rule:evenodd; clip-rule:evenodd"
viewBox="0 0 33132 22946"
 xmlns:xlink="http://www.w3.org/1999/xlink">
 <defs>
  <style type="text/css">
   <![CDATA[
    .fil0 {fill:none}
    .fil13 {fill:#EBCCA6}
    .fil8 {fill:#D2AE6D}
    .fil14 {fill:#E5BD8D}
    .fil11 {fill:#D8A261}
    .fil12 {fill:#8480BC}
    .fil2 {fill:#FCD5B8}
    .fil1 {fill:#FCE9CA}
    .fil9 {fill:white}
    .fil6 {fill:#DBBB83;fill-rule:nonzero}
    .fil4 {fill:#D5A767;fill-rule:nonzero}
    .fil7 {fill:#D8A261;fill-rule:nonzero}
    .fil5 {fill:#8480BC;fill-rule:nonzero}
    .fil10 {fill:black;fill-rule:nonzero}
    .fil3 {fill:#E3C582;fill-rule:nonzero}
   ]]>
  </style>
 </defs>
 <g id="Layer_x0020_1">
  <metadata id="CorelCorpID_0Corel-Layer"/>
  <g id="_2565968748192">
   <rect class="fil0" width="33132" height="22946"/>
   <g>
    <g>
     <circle class="fil1" transform="matrix(-0.150783 0.131325 0.131325 0.150783 6652.95 5275.05)" r="9796"/>
     <circle class="fil2" transform="matrix(-0.507239 0.441783 0.441783 0.507239 8126.9 14424.7)" r="9796"/>
     <circle class="fil1" transform="matrix(-0.846356 0.737138 0.737138 0.846356 20599.9 11480.2)" r="9796"/>
    </g>
    <path class="fil3" d="M1564 8710c281,10 506,240 508,525l4 0c2,-285 227,-515 507,-525 -281,-9 -507,-241 -507,-528l-4 0c0,287 -226,519 -508,528z"/>
    <path class="fil4" d="M15430 19208l0 418 -122 0 0 -749 129 0 260 442 77 149 8 -1 -18 -162 0 -428 123 0 0 749 -143 0 -255 -434 -70 -143 -8 2 19 157zm872 -29c-27,0 -50,6 -69,19 -21,14 -32,33 -32,57l0 191c0,25 11,45 32,61 20,14 42,21 69,21 24,0 47,-7 66,-21 21,-16 32,-36 32,-61l0 -191c0,-24 -10,-44 -32,-57 -19,-13 -41,-19 -66,-19zm-217 76c0,-60 23,-107 68,-142 41,-31 91,-47 149,-48 58,1 107,17 147,48 45,35 68,82 68,142l0 191c0,60 -23,107 -68,142 -40,31 -89,47 -147,47 -60,0 -109,-16 -149,-47 -45,-35 -68,-82 -68,-142l0 -191zm915 -378l122 0 0 749 -122 0 0 -749zm347 237c89,-45 180,-57 273,-35 104,24 156,86 156,185l0 362 -116 0 0 -361c-2,-43 -28,-70 -78,-82 -45,-11 -85,-6 -119,15l0 428 -116 0 0 -512zm860 517c-69,10 -124,0 -167,-29 -47,-34 -71,-88 -71,-162l0 -563 116 0 0 201 104 0 0 116 -104 0 0 245c0,39 12,65 37,78 17,9 45,14 85,14l0 100zm449 -376c0,-24 -11,-44 -32,-58 -20,-13 -43,-19 -70,-19 -28,0 -51,6 -69,20 -21,15 -31,34 -30,59l0 53 201 0 0 -55zm95 270c-42,75 -108,113 -197,113 -58,0 -108,-16 -149,-47 -45,-35 -67,-82 -68,-142l0 -192c0,-60 23,-107 68,-142 41,-31 90,-46 149,-46 58,0 107,15 146,46 46,35 68,82 68,142l0 149 -313 0 0 43c-1,21 8,39 24,54 15,14 35,22 59,25 56,6 94,-13 116,-58l97 55zm353 -447c9,-3 26,-4 50,-4 21,0 42,2 62,6l0 103c-34,-10 -67,-8 -100,6 -38,15 -57,41 -57,75l0 362 -116 0 0 -364c0,-76 34,-131 102,-165 13,-7 31,-13 52,-18l7 -1zm278 36c90,-45 181,-57 274,-35 103,24 155,86 155,185l0 362 -116 0 0 -361c-2,-43 -28,-70 -78,-82 -45,-11 -84,-6 -118,15l0 428 -117 0 0 -512zm932 141c0,-24 -11,-44 -32,-58 -20,-13 -43,-19 -70,-19 -28,0 -51,6 -69,20 -21,15 -31,34 -30,59l0 53 201 0 0 -55zm95 270c-42,75 -108,113 -197,113 -58,0 -108,-16 -149,-47 -45,-35 -67,-82 -68,-142l0 -192c0,-60 23,-107 68,-142 41,-31 90,-46 149,-46 58,0 107,15 146,46 46,35 68,82 68,142l0 149 -313 0 0 43c-1,21 7,39 24,54 15,14 35,22 59,25 56,6 94,-13 116,-58l97 55zm427 106c-69,10 -124,0 -166,-29 -48,-34 -71,-88 -71,-162l0 -563 115 0 0 201 105 0 0 116 -105 0 0 245c0,39 12,65 37,78 17,9 45,14 85,14l0 100zm1039 -5l-149 0 -225 -290 -90 0 0 290 -122 0 0 -749 289 0c79,0 140,18 185,54 50,39 76,99 78,178 0,131 -66,205 -198,223l232 294zm-296 -397c93,0 139,-40 139,-119 0,-76 -46,-112 -139,-110l-168 0 0 229 168 0zm733 26c0,-24 -11,-44 -32,-58 -20,-13 -43,-19 -70,-19 -28,0 -52,6 -70,20 -20,15 -30,34 -29,59l0 53 201 0 0 -55zm95 270c-43,75 -108,113 -197,113 -59,0 -108,-16 -149,-47 -45,-35 -68,-82 -68,-142l0 -192c0,-60 23,-107 68,-142 40,-31 90,-46 149,-46 58,0 107,15 146,46 45,35 68,82 68,142l0 149 -313 0 0 43c-1,21 7,39 24,54 15,14 34,22 58,25 56,6 95,-13 117,-58l97 55zm613 280l-116 0 0 -194c-69,29 -138,28 -206,-2 -73,-32 -110,-87 -111,-163l0 -188c0,-104 53,-166 158,-185 89,-17 180,-4 275,38l0 694zm-116 -619c-44,-19 -86,-24 -129,-14 -47,11 -71,39 -71,84l0 190c3,41 28,67 75,77 38,10 80,7 125,-8l0 -329zm730 405c-103,44 -197,57 -282,38 -99,-21 -148,-82 -148,-183l0 -368 116 0 0 370c3,43 28,70 76,83 44,11 85,7 122,-14l0 -439 116 0 0 513zm172 -641c0,-21 7,-39 21,-53 15,-14 32,-21 53,-21 21,0 39,7 52,21 15,14 22,32 22,53 0,21 -7,39 -22,53 -14,14 -31,21 -52,21 -21,0 -38,-7 -53,-21 -14,-15 -21,-33 -21,-53zm17 127l0 549 117 0 0 -549 -117 0zm456 1c9,-3 26,-4 50,-4 21,0 42,2 62,6l0 103c-34,-10 -67,-8 -100,6 -38,15 -57,41 -57,75l0 362 -116 0 0 -364c0,-76 34,-131 102,-165 13,-7 31,-13 52,-18l7 -1zm541 177c0,-24 -11,-44 -32,-58 -20,-13 -43,-19 -70,-19 -28,0 -52,6 -70,20 -20,15 -30,34 -29,59l0 53 201 0 0 -55zm95 270c-43,75 -108,113 -197,113 -59,0 -108,-16 -149,-47 -45,-35 -68,-82 -68,-142l0 -192c0,-60 23,-107 68,-142 40,-31 90,-46 149,-46 58,0 107,15 146,46 45,35 68,82 68,142l0 149 -313 0 0 43c-1,21 7,39 24,54 15,14 34,22 58,25 56,6 95,-13 117,-58l97 55zm619 -649l0 727c-99,40 -189,52 -270,37 -101,-18 -155,-77 -163,-179l0 -202c0,-77 37,-133 112,-167 70,-32 139,-32 205,0l0 -216 116 0zm-116 315c-36,-23 -77,-29 -122,-18 -48,12 -74,39 -78,81l0 207c2,44 28,71 78,82 43,10 84,7 122,-10l0 -342zm456 253l-119 0 0 -564 119 0 0 564zm-136 118c0,-22 8,-40 23,-55 14,-15 32,-22 53,-22 22,0 41,7 56,22 15,15 22,33 22,55 0,21 -7,40 -22,55 -15,15 -34,22 -56,22 -21,0 -39,-7 -53,-22 -15,-15 -23,-33 -23,-55z"/>
    <path class="fil5" d="M15400 4933l-173 0 0 -1081 418 0c117,0 211,37 281,111 62,68 93,149 93,244 0,97 -31,178 -93,243 -69,73 -162,109 -279,109l-247 0 0 374zm245 -536c62,0 112,-20 150,-60 33,-35 49,-77 49,-127 0,-48 -17,-90 -51,-125 -36,-39 -86,-57 -148,-56l-245 0 0 368 245 0zm945 536l-187 0 -314 -1081 184 0 191 676c-1,0 9,67 32,202l13 0 34 -209c11,-72 49,-156 86,-258 38,-108 67,-192 85,-252l148 0 168 513c-1,0 14,67 46,203l14 0 24 -202 189 -673 182 0 -313 1081 -188 0 -171 -529 -21 -135 -11 0c-17,89 -25,134 -24,134l-167 530zm1258 -1081l185 0 390 1081 -184 0 -106 -281 -387 0c-12,35 -28,82 -50,141l-48 140 -190 0 390 -1081zm136 349l-34 -170 -21 0 -37 173 -87 271 267 0 -88 -274zm1696 -351l0 178 -329 0 0 905 -177 0 0 -905 -328 0 0 -178 834 0zm359 547c0,-35 -16,-63 -46,-84 -29,-18 -62,-27 -101,-27 -41,0 -75,9 -101,29 -29,21 -43,50 -42,85l0 77 290 0 0 -80zm137 391c-61,107 -156,161 -284,162 -85,0 -156,-22 -215,-68 -65,-50 -98,-119 -98,-204l0 -278c0,-87 33,-155 98,-204 58,-45 130,-68 215,-68 83,0 154,23 211,68 65,49 98,117 98,204l0 215 -452 0 0 63c-1,30 10,56 35,78 21,19 49,31 84,35 81,9 137,-19 168,-84l140 81zm149 -384c0,-86 33,-154 98,-204 58,-45 129,-67 214,-67 69,0 130,15 183,47 62,37 104,90 124,160l-153 58c-20,-72 -73,-106 -157,-102 -86,4 -132,40 -140,107l0 270c4,32 19,57 47,76 26,19 57,29 93,31 84,4 137,-30 157,-102l156 58c-20,70 -61,124 -125,160 -54,32 -116,47 -185,47 -85,0 -156,-22 -214,-67 -65,-49 -98,-118 -98,-204l0 -268zm890 -552l0 317c102,-43 201,-44 297,-3 103,46 155,129 155,249l0 518 -167 0 0 -519c0,-64 -36,-103 -108,-118 -66,-12 -125,-2 -177,31l0 606 -168 0 0 -1081 168 0zm639 342c130,-65 261,-82 395,-51 150,35 224,124 224,268l0 522 -167 0 0 -521c-3,-62 -40,-101 -112,-119 -65,-15 -122,-8 -171,22l0 618 -169 0 0 -739zm1098 93c-39,0 -72,9 -99,28 -30,20 -46,48 -46,82l0 276c0,36 16,65 46,88 28,20 61,30 99,30 36,0 68,-10 96,-30 31,-23 46,-52 46,-88l0 -276c0,-35 -15,-62 -46,-82 -27,-19 -59,-28 -96,-28zm-312 110c0,-86 32,-154 97,-204 59,-45 131,-68 215,-69 84,1 154,24 213,69 65,50 97,118 97,204l0 276c0,87 -32,155 -97,205 -59,45 -129,67 -213,68 -85,-1 -157,-23 -215,-68 -65,-50 -97,-118 -97,-205l0 -276zm1085 542c-96,0 -172,-24 -226,-73 -52,-48 -79,-114 -79,-199l0 -815 168 0 0 815c0,77 46,115 137,115l0 157zm392 -652c-39,0 -72,9 -99,28 -31,20 -46,48 -46,82l0 276c0,36 15,65 46,88 28,20 61,30 99,30 36,0 68,-10 96,-30 30,-23 46,-52 46,-88l0 -276c0,-35 -15,-62 -46,-82 -27,-19 -59,-28 -96,-28zm-313 110c0,-86 33,-154 98,-204 59,-45 131,-68 215,-69 83,1 154,24 213,69 65,50 97,118 97,204l0 276c0,87 -32,155 -97,205 -59,45 -130,67 -213,68 -86,-1 -157,-23 -215,-68 -65,-50 -98,-118 -98,-205l0 -276zm872 583c53,70 123,103 211,100 93,-5 138,-59 137,-162 -102,43 -203,41 -301,-7 -104,-48 -155,-128 -155,-239l0 -274c0,-144 77,-233 233,-267 145,-30 273,-7 384,70l0 732c0,83 -25,151 -75,201 -44,46 -104,75 -177,86 -69,10 -136,2 -202,-23 -69,-26 -120,-67 -155,-120l100 -97zm343 -673c-47,-33 -104,-42 -172,-28 -73,16 -110,56 -111,119l0 275c4,62 41,99 111,113 67,14 124,3 172,-30l0 -449zm954 -165l0 791c0,83 -26,151 -78,201 -46,46 -106,75 -182,86 -71,10 -140,2 -208,-23 -70,-26 -122,-67 -157,-120l101 -97c52,68 126,99 223,92 102,-8 149,-60 141,-154 -104,43 -207,41 -309,-7 -109,-48 -163,-128 -163,-239l0 -530 168 0 0 531c4,62 43,99 119,113 71,14 130,3 178,-30l0 -614 167 0z"/>
    <path class="fil6" d="M11013 3144c0,379 307,686 686,686 378,0 685,-307 685,-686 0,-379 -307,-686 -685,-686 -379,0 -686,307 -686,686z"/>
    <path class="fil7" d="M12229 3579c97,-118 155,-270 155,-435 0,-379 -307,-686 -685,-686 -212,0 -401,96 -527,246 0,0 518,-198 837,120 318,319 220,755 220,755z"/>
    <circle class="fil8" cx="6514" cy="6331" r="2973"/>
    <path class="fil9" d="M7075 7173l0 561 -2243 0 0 -561 2243 0zm-2243 -1683l0 -561c1122,0 2243,0 3365,0l-561 561c-935,0 -1869,0 -2804,0zm3365 561c0,561 0,1122 0,1683l-561 0 0 -1122 0 0 -2804 0 0 -561c1122,0 2243,0 3365,0z"/>
    <path class="fil10" d="M7270 11860c-34,0 -68,-5 -102,-16 -34,-12 -62,-36 -84,-73 -14,20 -31,36 -50,48 -19,12 -40,21 -62,27 -23,6 -46,10 -70,12 -24,1 -48,2 -71,2l-774 0c-70,0 -128,-5 -175,-15 -47,-10 -85,-26 -113,-48 -28,-23 -48,-52 -60,-87 -11,-35 -17,-78 -17,-129l0 -291 229 0 0 260c0,24 3,42 9,56 6,13 16,24 31,32 16,8 36,13 62,16 26,2 59,3 99,3l672 0c40,0 68,-6 84,-18 15,-13 23,-40 23,-83l0 -397 228 0 0 377c0,43 9,75 27,93 18,19 56,28 114,28 9,0 18,1 26,3 8,2 16,6 22,13 7,6 12,15 15,28 4,13 5,31 5,54 0,40 -5,67 -16,82 -12,16 -29,23 -52,23zm6573 -1080l-53 0 0 7207 53 0 0 -3525 0 -3682zm-3905 5234c-4,63 -17,114 -39,155 -22,41 -52,74 -90,98 -38,25 -83,42 -135,52 -53,11 -111,16 -176,16l-64 0 0 -127 47 0c47,0 91,-3 131,-7 41,-5 75,-14 104,-28 30,-14 53,-33 69,-58 17,-25 26,-59 27,-101l-173 0c-42,0 -80,-4 -115,-13 -36,-10 -66,-25 -93,-46 -26,-21 -46,-48 -61,-82 -15,-33 -22,-75 -22,-125 0,-42 7,-83 20,-123 14,-40 34,-75 60,-106 27,-30 58,-55 96,-74 37,-19 79,-29 127,-29 53,0 98,10 135,29 37,19 67,46 90,80 23,35 39,77 49,126 11,49 16,104 16,164l0 72 108 0c40,0 61,21 61,62 0,25 -5,42 -15,52 -9,9 -25,13 -46,13l-111 0zm-467 -279c0,52 15,90 45,115 30,25 74,37 132,37l164 0 0 -101c0,-77 -13,-137 -38,-182 -26,-44 -70,-66 -132,-66 -29,0 -55,6 -76,17 -22,12 -39,27 -53,46 -14,19 -25,40 -32,64 -7,23 -10,47 -10,70zm577 279c-41,0 -61,-20 -61,-61 0,-25 4,-43 14,-52 10,-9 25,-14 47,-14l239 0 0 -967 125 0 0 1094 -364 0zm1120 0c-4,63 -17,114 -39,155 -22,41 -52,74 -90,98 -38,25 -83,42 -136,52 -52,11 -110,16 -175,16l-64 0 0 -127 47 0c47,0 91,-3 131,-7 40,-5 75,-14 104,-28 30,-14 52,-33 69,-58 17,-25 26,-59 27,-101l-173 0c-42,0 -81,-4 -116,-13 -35,-10 -65,-25 -92,-46 -26,-21 -46,-48 -61,-82 -15,-33 -22,-75 -22,-125 0,-42 7,-83 20,-123 14,-40 34,-75 60,-106 26,-30 58,-55 95,-74 38,-19 80,-29 128,-29 53,0 98,10 135,29 37,19 67,46 90,80 23,35 39,77 49,126 11,49 16,104 16,164l0 72 107 0c41,0 62,21 62,62 0,25 -5,42 -15,52 -9,9 -25,13 -47,13l-110 0zm-467 -279c0,52 15,90 45,115 29,25 74,37 132,37l164 0 0 -101c0,-77 -13,-137 -38,-182 -26,-44 -70,-66 -132,-66 -29,0 -55,6 -76,17 -22,12 -39,27 -54,46 -14,19 -24,40 -31,64 -7,23 -10,47 -10,70zm577 279c-41,0 -62,-20 -62,-61 0,-25 5,-43 15,-52 10,-9 25,-14 47,-14l102 0c25,0 46,-1 63,-3 18,-2 32,-7 44,-14 12,-8 20,-19 26,-34 6,-15 9,-35 9,-60l0 -351 125 0 0 294c0,25 2,48 6,69 3,21 10,39 20,53 10,14 24,26 41,34 18,8 40,12 67,12 41,0 61,21 61,62 0,25 -5,42 -14,52 -10,9 -26,13 -47,13 -40,0 -72,-9 -97,-28 -24,-19 -41,-43 -49,-71 -19,42 -48,69 -87,81 -39,12 -87,18 -145,18l-125 0zm229 -847c0,-23 9,-42 24,-58 17,-16 36,-23 58,-23 23,0 42,7 57,23 16,16 24,35 24,58 0,22 -8,41 -24,57 -15,16 -34,24 -57,24 -22,0 -41,-8 -58,-24 -15,-16 -24,-35 -24,-57zm273 847c-41,0 -61,-20 -61,-61 0,-25 5,-43 14,-52 10,-9 26,-14 47,-14l344 0c56,0 97,-9 121,-27 24,-18 37,-42 37,-71 0,-27 -12,-58 -34,-93 -23,-34 -54,-69 -94,-104 -40,-35 -87,-70 -140,-104 -54,-34 -112,-65 -174,-93 1,-12 3,-25 7,-38 3,-13 7,-25 12,-37 5,-11 10,-20 15,-28 5,-8 9,-13 13,-15l573 -247 0 128 -450 199c108,55 194,114 258,176 64,62 107,125 128,187 13,36 24,65 36,86 11,21 23,38 36,51 12,12 26,20 41,24 15,4 32,6 51,6 41,0 61,21 61,62 0,25 -4,42 -14,52 -10,9 -25,13 -47,13 -21,0 -41,-1 -59,-3 -18,-3 -34,-8 -50,-16 -15,-9 -30,-21 -43,-36 -14,-16 -27,-37 -40,-64l-6 0c-19,48 -52,80 -98,95 -46,17 -102,24 -168,24l-316 0zm780 0c-41,0 -61,-20 -61,-61 0,-25 5,-43 14,-52 10,-9 26,-14 47,-14l239 0 0 -462 126 0 0 589 -365 0zm103 -847c0,-23 8,-42 24,-58 16,-16 35,-23 57,-23 23,0 42,7 57,23 16,16 24,35 24,58 0,22 -8,41 -24,57 -15,16 -34,24 -57,24 -22,0 -41,-8 -57,-24 -16,-16 -24,-35 -24,-57zm199 0c0,-23 8,-42 24,-58 16,-16 35,-23 58,-23 22,0 41,7 57,23 15,16 23,35 23,58 0,22 -8,41 -23,57 -16,16 -35,24 -57,24 -23,0 -42,-8 -58,-24 -16,-16 -24,-35 -24,-57zm-8537 457l0 398 -124 0 0 -1099 418 0c116,0 209,36 278,109 62,66 93,147 93,241 0,95 -31,175 -92,241 -69,73 -162,109 -278,110l-295 0zm294 -125c80,0 142,-23 187,-71 40,-42 60,-94 60,-157 0,-61 -21,-113 -61,-155 -46,-47 -108,-70 -186,-69l-294 0 0 452 294 0zm1195 -437l256 813 267 -952 131 0 -319 1099 -155 0 -237 -742 -236 742 -154 0 -319 -1099 130 0 267 952 256 -813 113 0zm953 -139l155 0 398 1099 -132 0 -128 -354 -431 0 -124 354 -132 0 394 -1099zm249 619l-171 -481 -172 481 343 0zm-860 2031l-124 0 0 -820 124 0 0 820zm-151 198c-1,-26 8,-47 25,-64 17,-18 39,-27 64,-27 26,0 47,9 65,27 17,17 26,38 26,64 0,25 -9,47 -26,64 -18,18 -39,26 -65,26 -25,0 -47,-8 -64,-26 -17,-17 -26,-39 -25,-64zm1010 73c-42,0 -77,-8 -105,-26 -29,-17 -58,-49 -86,-93 -12,27 -26,49 -44,65 -18,17 -38,29 -60,37 -22,7 -45,12 -69,14 -25,2 -49,3 -74,3l-233 0 0 -127 274 0c43,0 76,-5 99,-16 23,-11 35,-26 35,-47 0,-19 -6,-39 -16,-58 -10,-20 -23,-41 -38,-63l-163 -240 119 -74 184 305c20,34 38,63 53,88 15,24 30,44 44,59 14,15 27,27 40,35 13,7 26,11 40,11 41,0 62,21 62,61 0,26 -5,43 -15,53 -10,9 -25,13 -47,13zm0 0c-41,0 -61,-20 -61,-61 0,-26 5,-43 14,-52 10,-9 26,-14 47,-14l227 0c41,0 61,21 61,61 0,26 -5,43 -14,53 -10,9 -26,13 -47,13l-227 0zm227 0c-41,0 -61,-20 -61,-61 0,-26 5,-43 14,-52 10,-9 26,-14 47,-14l227 0c41,0 61,21 61,61 0,26 -5,43 -14,53 -10,9 -26,13 -47,13l-227 0zm227 0c-41,0 -61,-20 -61,-61 0,-26 4,-43 14,-52 10,-9 25,-14 47,-14l239 0 0 -463 126 0 0 590 -365 0zm63 232c0,-23 8,-42 24,-58 16,-15 35,-23 57,-23 23,0 42,8 58,23 15,16 23,35 23,58 0,22 -8,41 -23,57 -16,16 -35,24 -58,24 -22,0 -41,-8 -57,-24 -16,-16 -24,-35 -24,-57zm199 0c0,-23 8,-42 24,-58 16,-15 35,-23 58,-23 22,0 41,8 57,23 15,16 23,35 23,58 0,22 -8,41 -23,57 -16,16 -35,24 -57,24 -23,0 -42,-8 -58,-24 -16,-16 -24,-35 -24,-57zm686 -232c-34,0 -62,-7 -84,-22 -23,-16 -39,-34 -50,-54 0,73 -5,135 -13,186 -9,51 -26,92 -50,123 -25,31 -58,53 -101,67 -43,14 -99,21 -168,21l0 -128c50,0 89,-5 117,-16 28,-10 49,-28 63,-52 14,-23 23,-54 25,-92 3,-37 4,-82 4,-135l0 -411 124 0 0 218c0,52 10,93 29,123 18,30 53,45 104,45 41,0 62,21 62,61 0,26 -5,43 -15,53 -10,9 -25,13 -47,13zm0 0c-41,0 -62,-20 -62,-61 0,-26 5,-43 15,-52 10,-9 25,-14 47,-14l102 0c25,0 45,-1 63,-3 17,-2 32,-7 44,-15 12,-7 20,-18 26,-33 6,-15 9,-35 9,-61l0 -351 125 0 0 295c0,25 2,48 6,69 3,21 10,39 20,53 10,14 24,25 41,34 18,8 40,12 67,12 40,0 61,21 61,61 0,26 -5,43 -15,53 -9,9 -25,13 -46,13 -40,0 -72,-9 -97,-28 -25,-19 -41,-43 -50,-71 -18,42 -47,69 -86,81 -39,12 -87,18 -145,18l-125 0zm197 228c0,-22 8,-41 24,-57 16,-16 35,-23 58,-23 22,0 41,7 57,23 16,16 24,35 24,57 0,23 -8,42 -24,58 -16,16 -35,24 -57,24 -23,0 -42,-8 -58,-24 -16,-16 -24,-35 -24,-58zm305 -228c-41,0 -61,-20 -61,-61 0,-26 4,-43 14,-52 10,-9 25,-14 47,-14l239 0 0 -463 125 0 0 590 -364 0zm194 228c0,-22 8,-41 24,-57 16,-16 36,-23 58,-23 22,0 41,7 57,23 16,16 24,35 24,57 0,23 -8,42 -24,58 -16,16 -35,24 -57,24 -22,0 -42,-8 -58,-24 -16,-16 -24,-35 -24,-58zm1942 -228l-929 0c-59,0 -109,-4 -148,-12 -39,-8 -71,-21 -95,-39 -24,-18 -41,-41 -51,-69 -11,-28 -16,-63 -16,-103l0 -238 126 0 0 192c0,31 4,57 12,75 7,19 20,34 39,44 18,9 43,16 74,19 32,3 73,4 122,4l740 0 0 -463 126 0 0 590zm-791 -759c0,-22 8,-41 24,-57 16,-16 35,-24 57,-24 23,0 42,8 58,24 16,16 23,35 23,57 0,23 -7,42 -23,58 -16,16 -35,24 -58,24 -22,0 -41,-8 -57,-24 -16,-16 -24,-35 -24,-58zm199 0c0,-22 8,-41 24,-57 16,-16 35,-24 58,-24 22,0 41,8 57,24 16,16 23,35 23,57 0,23 -7,42 -23,58 -16,16 -35,24 -57,24 -23,0 -42,-8 -58,-24 -16,-16 -24,-35 -24,-58zm1416 759c-42,0 -77,-8 -105,-26 -29,-17 -57,-49 -86,-93 -12,27 -26,49 -44,65 -18,17 -38,29 -60,37 -22,7 -45,12 -69,14 -25,2 -49,3 -74,3l-233 0 0 -127 275 0c43,0 76,-5 98,-16 23,-11 35,-26 35,-47 0,-19 -5,-39 -16,-58 -10,-20 -22,-41 -37,-63l-163 -240 118 -74 184 305c20,34 38,63 53,88 16,24 30,44 44,59 14,15 28,27 40,35 13,7 26,11 40,11 41,0 62,21 62,61 0,26 -5,43 -15,53 -10,9 -25,13 -47,13zm-496 -848c0,-22 8,-41 24,-57 16,-16 35,-24 57,-24 23,0 42,8 58,24 15,16 23,35 23,57 0,23 -8,42 -23,58 -16,16 -35,24 -58,24 -22,0 -41,-8 -57,-24 -16,-16 -24,-35 -24,-58zm496 848c-41,0 -61,-20 -61,-61 0,-26 5,-43 15,-52 9,-9 25,-14 46,-14l227 0c41,0 62,21 62,61 0,26 -5,43 -15,53 -10,9 -25,13 -47,13l-227 0zm227 0c-41,0 -61,-20 -61,-61 0,-26 5,-43 14,-52 10,-9 26,-14 47,-14l227 0c41,0 61,21 61,61 0,26 -4,43 -14,53 -10,9 -25,13 -47,13l-227 0zm227 0c-41,0 -61,-20 -61,-61 0,-26 5,-43 14,-52 10,-9 26,-14 47,-14l227 0c41,0 61,21 61,61 0,26 -5,43 -14,53 -10,9 -26,13 -47,13l-227 0zm227 0c-41,0 -61,-20 -61,-61 0,-26 5,-43 14,-52 10,-9 26,-14 47,-14l239 0 0 -967 126 0 0 1094 -365 0zm-6266 -5432c0,-34 13,-63 37,-88 25,-24 54,-37 89,-37 34,0 63,13 88,37 24,25 37,54 37,88 0,34 -13,63 -37,88 -25,25 -54,37 -88,37 -34,0 -63,-12 -88,-37 -25,-25 -38,-54 -38,-88zm-144 -255c0,-34 13,-64 37,-88 25,-25 54,-37 88,-37 34,0 63,12 88,37 25,24 37,54 37,88 0,33 -12,63 -37,87 -25,25 -54,37 -88,37 -34,0 -63,-12 -88,-37 -24,-24 -37,-54 -37,-87zm287 0c0,-34 12,-64 37,-88 25,-25 54,-37 89,-37 34,0 63,12 88,37 24,24 37,54 37,88 0,33 -13,63 -37,87 -25,25 -54,37 -88,37 -34,0 -64,-12 -89,-37 -25,-24 -37,-54 -37,-87zm832 -297c-9,0 -18,-1 -26,-2 -9,-2 -16,-6 -23,-13 -6,-6 -11,-16 -15,-29 -4,-13 -5,-31 -5,-53 0,-40 6,-68 17,-83 11,-15 28,-23 52,-23l261 0c9,0 18,1 26,3 8,2 16,6 22,13 7,6 12,15 15,28 4,13 5,31 5,54 0,40 -5,67 -16,82 -11,16 -29,23 -52,23l-261 0zm261 0c-9,0 -18,-1 -27,-2 -8,-2 -15,-6 -22,-14 -7,-7 -12,-17 -15,-30 -4,-13 -5,-30 -5,-53 0,-40 5,-68 17,-83 11,-15 28,-22 52,-22l279 0 0 -497 230 0 0 701 -509 0zm19 297c0,-34 13,-64 37,-88 25,-25 54,-37 88,-37 34,0 63,12 88,37 25,24 37,54 37,88 0,33 -12,63 -37,87 -25,25 -54,37 -88,37 -34,0 -63,-12 -88,-37 -24,-24 -37,-54 -37,-87zm287 0c0,-34 12,-64 37,-88 25,-25 55,-37 89,-37 34,0 63,12 88,37 24,24 37,54 37,88 0,33 -13,63 -37,87 -25,25 -54,37 -88,37 -34,0 -64,-12 -89,-37 -25,-24 -37,-54 -37,-87zm1131 -297c-34,0 -62,-1 -86,-5 -25,-3 -45,-8 -63,-16 -17,-7 -34,-16 -49,-27 -16,-12 -32,-25 -48,-40 -34,40 -70,64 -110,74 -40,9 -82,14 -128,14l-307 0 0 -203 349 0c28,0 49,-4 63,-13 14,-8 20,-19 20,-31 0,-13 -5,-29 -16,-47 -12,-19 -32,-50 -63,-94l-161 -238 210 -134 212 358c22,38 42,70 58,96 17,26 31,46 45,61 13,16 26,26 38,33 12,6 24,9 36,9 10,0 18,1 27,3 9,2 16,6 23,13 6,6 11,15 14,28 3,13 5,31 5,54 0,40 -5,67 -17,82 -11,16 -28,23 -52,23zm187 -1006c0,-34 12,-63 37,-88 25,-25 54,-38 89,-38 34,0 63,12 88,37 24,25 37,55 37,89 0,34 -13,63 -37,88 -25,24 -54,37 -88,37 -34,0 -63,-13 -88,-37 -25,-25 -38,-54 -38,-88zm17 803l0 -498 230 0 0 701 -434 0c-9,0 -17,-1 -26,-2 -8,-2 -16,-6 -22,-13 -7,-6 -12,-16 -15,-29 -4,-13 -5,-31 -5,-53 0,-40 5,-68 16,-83 12,-15 29,-23 52,-23l204 0zm921 203c-16,0 -37,-3 -64,-11 -27,-7 -51,-22 -71,-45 -1,79 -10,146 -27,200 -18,53 -45,97 -80,130 -35,33 -80,56 -133,70 -55,14 -119,22 -195,23l0 -215c48,-1 86,-7 115,-17 28,-10 50,-25 64,-45 13,-19 23,-45 27,-76 4,-32 6,-69 6,-113l0 -525 227 0 0 300c0,46 14,78 42,95 28,17 57,26 89,26 9,0 18,1 26,3 8,2 16,6 23,13 6,6 11,15 15,28 3,13 5,31 5,54 0,40 -6,67 -17,82 -11,16 -29,23 -52,23zm71 -203c26,0 47,0 64,-1 17,-2 31,-5 42,-11 10,-6 18,-14 23,-25 5,-11 7,-27 7,-47l0 -337 226 0 0 300c0,38 10,67 30,89 21,21 53,32 96,32 34,0 63,-5 88,-15 24,-11 36,-33 36,-69l0 -337 229 0 0 300c0,81 35,121 104,121l110 0 0 -498 229 0 0 701 -270 0c-62,0 -109,-7 -141,-22 -32,-14 -59,-37 -81,-69 -18,23 -37,40 -57,52 -20,12 -40,21 -62,27 -21,6 -42,9 -62,11 -21,1 -40,1 -59,1 -60,0 -110,-9 -151,-29 -40,-19 -69,-40 -87,-62 -31,41 -72,67 -123,77 -51,9 -116,14 -194,14l-69 0c-9,0 -18,-1 -26,-2 -9,-2 -16,-6 -23,-13 -6,-6 -11,-16 -15,-29 -3,-13 -5,-31 -5,-53 0,-40 6,-68 17,-83 11,-15 28,-23 52,-23l72 0zm2400 98c0,40 -5,67 -17,82 -11,16 -28,23 -52,23l-74 0c-40,0 -77,-4 -110,-13 -33,-9 -62,-24 -86,-44 -24,-20 -43,-48 -56,-82 -14,-34 -21,-76 -21,-127l0 -992 230 0 0 960c0,42 7,68 21,79 15,11 36,16 63,16l33 0c10,0 18,1 27,3 8,2 15,6 22,13 7,6 12,15 15,28 4,13 5,31 5,54zm133 -98l0 -498 231 0 0 701 -434 0c-9,0 -18,-1 -26,-2 -9,-2 -16,-6 -23,-13 -6,-6 -11,-16 -15,-29 -4,-13 -5,-31 -5,-53 0,-40 6,-68 17,-83 11,-15 28,-23 52,-23l203 0zm-29 494c0,-34 12,-63 37,-88 25,-24 54,-37 89,-37 34,0 63,13 87,37 25,25 37,54 37,88 0,34 -12,63 -37,88 -24,25 -53,37 -87,37 -34,0 -64,-12 -89,-37 -25,-25 -37,-54 -37,-88zm-8432 1992c0,40 6,77 19,110 13,33 34,62 64,86 31,24 70,42 120,56 50,13 111,19 185,19 53,0 103,-4 152,-11 49,-8 92,-19 129,-33 38,-15 67,-32 89,-53 22,-21 33,-45 33,-71 0,-24 -8,-43 -23,-59 -15,-16 -45,-35 -88,-56 -30,-16 -58,-32 -85,-48 -26,-16 -48,-34 -67,-54 -19,-20 -34,-42 -45,-67 -12,-26 -17,-55 -17,-89 0,-39 7,-78 21,-118 13,-39 34,-75 62,-107 28,-33 63,-59 105,-79 42,-20 92,-30 149,-30 34,0 64,4 90,12 26,8 41,12 45,15l0 128c-21,-6 -43,-11 -67,-15 -24,-4 -47,-6 -71,-6 -34,0 -64,5 -90,16 -26,10 -47,24 -64,42 -17,17 -30,37 -38,58 -9,22 -13,43 -13,65 0,20 4,38 11,53 8,14 18,28 31,40 14,12 29,23 46,34 18,10 37,21 57,32 35,20 64,37 88,54 23,16 42,32 56,47 13,16 23,31 30,47 6,16 9,33 9,51 0,43 -10,84 -29,125 -20,39 -51,75 -94,105 -43,31 -98,56 -166,74 -68,19 -150,29 -246,29 -97,0 -177,-10 -243,-29 -65,-18 -118,-44 -157,-78 -40,-33 -69,-73 -86,-118 -18,-46 -26,-95 -26,-149l0 -229 124 0 0 201zm1479 42c-34,0 -62,-8 -85,-23 -22,-16 -39,-33 -50,-54 0,73 -4,136 -13,186 -9,51 -25,92 -50,123 -24,31 -58,54 -101,67 -43,14 -98,21 -167,21l0 -127c49,0 89,-6 117,-16 28,-11 49,-29 63,-53 14,-23 22,-54 25,-91 2,-38 3,-83 3,-136l0 -411 125 0 0 218c0,52 9,93 28,123 19,30 54,45 105,45 41,0 61,21 61,62 0,25 -5,43 -14,52 -10,9 -26,14 -47,14zm-1 0c-41,0 -61,-21 -61,-62 0,-25 5,-43 14,-52 10,-9 26,-14 47,-14l239 0 0 -462 126 0 0 590 -365 0zm195 228c0,-23 7,-42 24,-58 15,-15 35,-23 57,-23 23,0 42,8 58,23 15,16 23,35 23,58 0,22 -8,41 -23,57 -16,16 -35,24 -58,24 -22,0 -42,-8 -57,-24 -17,-16 -24,-35 -24,-57zm495 -742l124 0 0 427c0,76 -5,140 -13,192 -9,51 -25,93 -50,125 -25,31 -59,54 -102,68 -43,15 -99,22 -168,22l0 -127c50,0 89,-6 117,-16 28,-11 49,-29 63,-53 14,-23 22,-54 25,-91 2,-38 4,-83 4,-136l0 -411zm658 448c0,25 -5,43 -14,52 -10,9 -26,14 -47,14l-40 0c-33,0 -63,-4 -90,-11 -27,-6 -49,-18 -69,-34 -18,-16 -33,-38 -44,-65 -11,-27 -16,-61 -16,-102l0 -883 126 0 0 849c0,43 6,73 20,91 13,18 43,27 89,27l24 0c41,0 61,21 61,62zm-61 66c-41,0 -61,-21 -61,-62 0,-25 4,-43 14,-52 10,-9 25,-14 47,-14l227 0c41,0 61,21 61,62 0,25 -5,43 -14,52 -10,9 -26,14 -47,14l-227 0zm227 0c-41,0 -61,-21 -61,-62 0,-25 4,-43 14,-52 10,-9 25,-14 47,-14l227 0c41,0 61,21 61,62 0,25 -5,43 -15,52 -9,9 -25,14 -46,14l-227 0zm227 0c-41,0 -62,-21 -62,-62 0,-25 5,-43 15,-52 10,-9 25,-14 47,-14l366 0c38,0 69,-6 94,-20 26,-13 38,-38 38,-76 0,-27 -12,-57 -38,-91 -25,-34 -58,-69 -100,-105 -41,-35 -88,-70 -142,-104 -54,-34 -108,-65 -164,-92 1,-13 4,-25 9,-38 5,-13 10,-25 16,-35 7,-11 13,-21 20,-29 6,-8 12,-14 16,-17l561 -247 0 125 -451 199c71,42 132,82 182,122 50,40 91,79 122,116 32,37 54,72 68,106 15,35 22,67 22,97 0,22 -4,45 -10,71 -7,26 -19,49 -37,71 -19,21 -45,39 -79,53 -33,14 -77,22 -130,22l-363 0zm1290 -401c0,43 14,78 41,104 27,27 70,41 129,41 23,0 47,-3 73,-8 26,-5 50,-12 70,-20l0 -273 -135 0c-49,0 -90,13 -125,37 -35,25 -53,65 -53,119zm160 275c-25,0 -53,-4 -85,-11 -32,-7 -63,-20 -92,-39 -30,-19 -54,-45 -75,-80 -20,-34 -30,-79 -30,-134 0,-55 9,-101 29,-139 19,-37 44,-67 75,-90 30,-24 64,-41 102,-51 37,-10 74,-15 111,-15l244 0 0 439c0,43 6,73 20,91 13,18 42,27 88,27l37 0c41,0 61,21 61,62 0,25 -5,43 -14,52 -10,9 -26,14 -47,14l-52 0c-26,0 -52,-3 -76,-7 -24,-5 -45,-13 -64,-25 -19,-12 -35,-27 -49,-47 -13,-19 -21,-44 -26,-75 -22,8 -47,15 -75,20 -28,5 -56,8 -82,8zm424 126c-41,0 -61,-21 -61,-62 0,-25 4,-43 14,-52 10,-9 25,-14 47,-14l239 0 0 -462 126 0 0 590 -365 0zm194 228c0,-23 8,-42 24,-58 16,-15 36,-23 58,-23 22,0 42,8 57,23 16,16 24,35 24,58 0,22 -8,41 -24,57 -15,16 -35,24 -57,24 -22,0 -42,-8 -58,-24 -16,-16 -24,-35 -24,-57zm754 -228c-34,0 -62,-8 -84,-23 -23,-16 -39,-33 -50,-54 0,73 -5,136 -13,186 -9,51 -26,92 -50,123 -25,31 -58,54 -101,67 -43,14 -99,21 -168,21l0 -127c50,0 89,-6 117,-16 28,-11 49,-29 63,-53 14,-23 23,-54 25,-91 3,-38 4,-83 4,-136l0 -411 124 0 0 218c0,52 10,93 29,123 18,30 53,45 104,45 41,0 62,21 62,62 0,25 -5,43 -15,52 -10,9 -25,14 -47,14zm0 0c-41,0 -62,-21 -62,-62 0,-25 5,-43 15,-52 10,-9 25,-14 47,-14l226 0c41,0 62,21 62,62 0,25 -5,43 -15,52 -10,9 -25,14 -47,14l-226 0zm226 0c-40,0 -61,-21 -61,-62 0,-25 5,-43 15,-52 9,-9 25,-14 46,-14l615 0c0,-65 -9,-120 -26,-165 -17,-45 -41,-81 -70,-110 -30,-28 -65,-48 -105,-61 -40,-13 -81,-19 -125,-19 -30,0 -61,2 -94,8 -34,5 -61,11 -82,18l0 -123c20,-6 47,-13 81,-20 34,-8 70,-12 110,-12 77,0 143,13 198,38 55,26 100,61 137,105 36,44 63,96 80,155 17,59 27,121 28,186l95 0c41,0 61,21 61,62 0,25 -5,43 -14,52 -10,9 -26,14 -47,14l-842 0zm321 229c0,-22 7,-41 24,-57 15,-16 35,-24 57,-24 23,0 42,8 58,24 15,16 23,35 23,57 0,23 -8,42 -23,58 -16,16 -35,24 -58,24 -22,0 -42,-8 -57,-24 -17,-16 -24,-35 -24,-58zm522 -229c-41,0 -61,-21 -61,-62 0,-25 5,-43 14,-52 10,-9 26,-14 47,-14l239 0 0 -462 126 0 0 590 -365 0zm103 -848c0,-23 8,-42 24,-58 16,-15 35,-23 57,-23 23,0 42,8 58,23 16,16 23,35 23,58 0,22 -7,41 -23,57 -16,16 -35,24 -58,24 -22,0 -41,-8 -57,-24 -16,-16 -24,-35 -24,-57zm199 0c0,-23 8,-42 24,-58 16,-15 35,-23 58,-23 22,0 41,8 57,23 16,16 23,35 23,58 0,22 -7,41 -23,57 -16,16 -35,24 -57,24 -23,0 -42,-8 -58,-24 -16,-16 -24,-35 -24,-57zm814 334l124 0 0 427c0,76 -5,140 -13,192 -9,51 -25,93 -50,125 -25,31 -59,54 -102,68 -43,15 -99,22 -168,22l0 -127c50,0 89,-6 117,-16 28,-11 49,-29 63,-53 14,-23 22,-54 25,-91 2,-38 4,-83 4,-136l0 -411zm-19 -334c0,-23 8,-42 24,-58 16,-15 35,-23 58,-23 22,0 41,8 57,23 15,16 23,35 23,58 0,22 -8,41 -23,57 -16,16 -35,24 -57,24 -23,0 -42,-8 -58,-24 -16,-16 -24,-35 -24,-57zm483 -247l0 1095 -126 0 0 -1095 126 0zm-5087 2883c0,40 7,77 19,110 13,33 35,62 65,86 30,24 70,42 120,55 49,14 111,20 184,20 53,0 104,-4 152,-11 49,-8 92,-19 129,-33 38,-15 68,-32 89,-53 22,-21 33,-45 33,-71 0,-24 -7,-43 -23,-59 -15,-16 -45,-35 -87,-56 -31,-16 -59,-32 -85,-48 -27,-16 -49,-34 -68,-54 -18,-20 -33,-43 -45,-68 -11,-25 -17,-54 -17,-88 0,-39 7,-78 21,-118 14,-39 35,-75 63,-108 28,-32 63,-58 105,-78 41,-20 91,-30 148,-30 34,0 64,4 90,12 26,8 41,12 45,14l0 129c-20,-6 -43,-11 -66,-15 -24,-4 -48,-7 -72,-7 -34,0 -63,6 -89,17 -26,10 -48,24 -65,42 -17,17 -30,37 -38,58 -8,22 -13,43 -13,65 0,20 4,38 11,52 8,15 18,29 32,41 13,12 28,23 46,34 17,10 36,21 57,32 35,19 64,37 87,54 23,16 42,32 56,47 14,16 24,31 30,47 6,16 9,33 9,51 0,43 -9,84 -29,124 -20,40 -51,76 -94,106 -43,31 -98,56 -166,74 -68,19 -150,28 -246,28 -96,0 -177,-9 -242,-28 -66,-18 -118,-44 -158,-78 -40,-33 -68,-73 -86,-118 -17,-46 -26,-95 -26,-149l0 -229 124 0 0 201zm1220 -472l125 0 0 427c0,76 -5,140 -13,192 -9,51 -26,93 -50,125 -25,31 -59,54 -102,68 -44,15 -100,22 -169,22l0 -127c50,0 89,-6 118,-17 28,-10 49,-28 63,-52 14,-23 22,-54 25,-92 2,-37 3,-82 3,-135l0 -411zm-119 -246c0,-22 7,-41 24,-57 15,-16 35,-24 57,-24 23,0 42,8 57,24 16,16 24,35 24,57 0,23 -8,42 -24,58 -15,16 -34,24 -57,24 -22,0 -42,-8 -57,-24 -17,-16 -24,-35 -24,-58zm199 0c0,-22 8,-41 24,-57 16,-16 35,-24 57,-24 23,0 42,8 58,24 15,16 23,35 23,57 0,23 -8,42 -23,58 -16,16 -35,24 -58,24 -22,0 -41,-8 -57,-24 -16,-16 -24,-35 -24,-58zm-97 -183c0,-23 8,-42 24,-58 16,-16 35,-24 58,-24 22,0 41,8 57,24 16,16 23,35 23,58 0,22 -7,41 -23,57 -16,16 -35,24 -57,24 -23,0 -42,-8 -58,-24 -16,-16 -24,-35 -24,-57z"/>
    <g>
     <g>
      <path class="fil11" d="M24166 13262l0 347 -347 0 0 -347 347 0zm-78 269l0 -190 -190 0 0 190 190 0zm-552 -339l0 934 -139 0 0 141 -214 0 0 144 -215 0 0 140 -142 0 0 141 -237 0 0 -140 -143 0 0 -143 -142 0 0 -286 -193 0 0 901 144 0 0 147 144 0 0 141 143 0 0 143 139 0 0 142 144 0 0 121 0 20 0 74 0 70 0 122 0 83 0 82 332 0 0 -165 -187 0 0 -122 187 0 0 -144 143 0 0 -146 95 0 0 146 139 0 0 266 0 83 0 82 331 0 0 -165 -186 0 0 -266 0 -274 0 -10 193 0 0 -142 144 0 0 -218 125 0 0 -562 151 0 0 186 165 0 0 -331 -83 0 -82 0 -151 0 0 -213 585 0 0 -141 281 0 0 -841 -137 0 0 -139 -1189 0 0 139 -145 0z"/>
      <path class="fil12" d="M23559 17148c-678,0 -1315,-264 -1794,-743 -479,-479 -743,-1116 -743,-1794 0,-678 264,-1315 743,-1794 479,-479 1116,-743 1794,-743 678,0 1314,264 1794,743 479,479 743,1116 743,1794 0,678 -264,1315 -743,1794 -480,479 -1116,743 -1794,743zm-1682 -4219c-449,450 -697,1047 -697,1682 0,609 228,1182 642,1625l3361 -3361c-442,-415 -1015,-642 -1624,-642 -636,0 -1232,247 -1682,696zm3418 58l-3361 3361c442,414 1016,642 1625,642 635,0 1232,-248 1681,-697 450,-449 697,-1047 697,-1682 0,-609 -227,-1182 -642,-1624z"/>
     </g>
     <g>
      <path class="fil4" d="M16601 15987c-2,25 24,42 78,52 41,8 72,19 92,33 30,21 43,51 40,90 -1,33 -16,59 -45,78 -26,17 -57,26 -93,26 -29,0 -56,-8 -81,-23 -26,-16 -46,-38 -58,-67l56 -25c16,37 44,55 84,55 20,0 37,-4 51,-12 15,-9 24,-21 25,-37 1,-19 -6,-33 -24,-43 -12,-7 -32,-12 -60,-17 -83,-12 -125,-50 -126,-112 2,-32 17,-57 44,-76 25,-18 54,-26 89,-27 66,0 111,27 134,81l-55 24c-14,-32 -41,-48 -79,-48 -19,0 -35,4 -48,12 -15,9 -23,21 -24,36zm511 256c-51,22 -97,28 -140,18 -48,-10 -73,-41 -73,-90l0 -183 58 0 0 184c1,21 14,34 37,41 22,5 42,3 61,-7l0 -218 57 0 0 255zm207 -299c-36,0 -55,12 -55,36l0 50 52 0 0 57 -52 0 0 173 -57 0 0 -280c0,-30 11,-54 33,-71 21,-17 47,-24 79,-22l0 57zm175 0c-37,0 -55,12 -55,36l0 50 52 0 0 57 -52 0 0 173 -58 0 0 -280c0,-30 11,-54 33,-71 21,-17 48,-24 80,-22l0 57zm227 132c0,-12 -5,-22 -16,-29 -10,-6 -21,-9 -34,-9 -14,0 -26,3 -35,10 -10,7 -15,17 -14,29l0 26 99 0 0 -27zm47 134c-21,37 -53,56 -97,56 -29,0 -54,-8 -74,-23 -22,-18 -34,-41 -34,-71l0 -95c0,-30 11,-53 34,-70 20,-16 44,-23 74,-23 28,0 53,7 72,23 22,17 34,40 34,70l0 74 -155 0 0 21c-1,11 3,20 12,27 7,7 17,11 28,12 28,3 47,-6 58,-29l48 28zm182 -222c4,-1 13,-2 24,-2 11,0 21,1 31,3l0 51c-16,-5 -33,-4 -49,3 -19,8 -28,21 -28,38l0 179 -58 0 0 -181c0,-37 17,-65 50,-81 7,-4 16,-7 27,-9l3 -1zm126 -63c0,-11 4,-19 11,-26 7,-7 15,-11 26,-11 10,0 19,4 26,11 7,7 10,15 10,26 0,10 -3,19 -10,26 -7,7 -16,11 -26,11 -11,0 -19,-4 -26,-11 -7,-7 -11,-16 -11,-26zm9 63l0 272 57 0 0 -272 -57 0zm155 18c45,-22 90,-28 136,-17 51,12 77,42 77,92l0 179 -57 0 0 -179c-1,-21 -14,-35 -39,-41 -22,-5 -42,-3 -59,8l0 212 -58 0 0 -254zm349 270c18,24 42,36 72,34 32,-1 48,-20 47,-55 -35,14 -69,14 -103,-2 -36,-17 -53,-45 -53,-83l0 -94c0,-49 26,-80 80,-91 50,-11 93,-3 131,24l0 251c0,29 -8,52 -25,69 -15,16 -36,26 -61,29 -24,4 -47,1 -69,-7 -24,-10 -42,-23 -54,-42l35 -33zm117 -231c-16,-11 -35,-15 -59,-10 -25,6 -37,20 -38,41l0 95c2,21 14,34 38,38 24,5 43,2 59,-10l0 -154zm153 180c0,-11 4,-20 11,-28 7,-7 16,-11 27,-11 11,0 20,4 27,11 8,8 11,17 11,28 0,11 -3,20 -11,27 -7,7 -16,11 -27,11 -11,0 -20,-4 -27,-11 -7,-7 -11,-16 -11,-27zm167 0c0,-11 4,-20 11,-28 7,-7 16,-11 27,-11 11,0 20,4 27,11 7,8 11,17 11,28 0,11 -4,20 -11,27 -7,7 -16,11 -27,11 -11,0 -20,-4 -27,-11 -7,-7 -11,-16 -11,-27zm167 0c0,-11 4,-20 11,-28 7,-7 16,-11 27,-11 10,0 20,4 27,11 7,8 11,17 11,28 0,11 -4,20 -11,27 -7,7 -16,11 -27,11 -11,0 -20,-4 -27,-11 -7,-7 -11,-16 -11,-27z"/>
      <g>
       <path class="fil11" d="M18940 14216l-619 0 0 255 619 0 0 -255zm-111 667l-536 -310 -127 220 536 310 127 -220zm-429 521l-309 -535 -220 127 309 536 220 -128zm-632 238l0 -619 -254 0 0 619 254 0zm-666 -110l309 -536 -220 -127 -309 536 220 127zm-522 -429l536 -310 -127 -220 -536 310 127 220zm1600 -1948l-309 536 220 127 309 -535 -220 -128zm522 429l-536 310 127 220 536 -310 -127 -220z"/>
       <polygon class="fil13" points="17514,13045 17514,13664 17768,13664 17768,13045 "/>
       <polygon class="fil14" points="16882,13283 17191,13819 17411,13691 17102,13155 "/>
       <polygon class="fil14" points="16453,13804 16989,14114 17116,13894 16580,13584 "/>
       <polygon class="fil11" points="16343,14216 16343,14471 16961,14471 16961,14216 "/>
      </g>
      <path class="fil12" d="M17641 17148c-678,0 -1315,-264 -1794,-743 -479,-479 -743,-1116 -743,-1794 0,-678 264,-1315 743,-1794 479,-479 1116,-743 1794,-743 678,0 1315,264 1794,743 479,479 743,1116 743,1794 0,678 -264,1315 -743,1794 -479,479 -1116,743 -1794,743zm-1682 -4219c-449,450 -697,1047 -697,1682 0,609 229,1182 643,1625l3360 -3361c-442,-415 -1015,-642 -1624,-642 -635,0 -1232,247 -1682,696zm3419 58l-3361 3361c442,414 1015,642 1624,642 635,0 1233,-248 1682,-697 449,-449 696,-1047 696,-1682 0,-609 -227,-1182 -641,-1624z"/>
     </g>
     <g>
      <path class="fil7" d="M22728 9045l115 0 0 234 -115 0 0 358 -248 0 0 -358 -641 0 -143 -192 797 -997 235 0 0 955zm-237 -413c24,-179 36,-268 38,-268l-33 0c-82,144 -126,219 -132,228l-345 453 468 0 4 -413zm759 563c0,75 36,132 107,173 57,32 128,48 211,48 85,0 155,-16 213,-48 69,-40 104,-98 104,-173l0 -629c0,-76 -35,-134 -104,-175 -56,-31 -127,-46 -213,-46 -85,0 -156,15 -211,46 -70,40 -106,98 -107,175l0 629zm318 466c-148,0 -276,-37 -381,-112 -123,-87 -184,-205 -184,-354l0 -629c0,-152 61,-270 184,-356 104,-75 231,-112 381,-113 149,0 277,38 383,113 121,86 181,204 181,356l0 629c0,149 -60,267 -181,354 -105,75 -233,112 -383,112zm1739 -616l115 0 0 234 -115 0 0 358 -248 0 0 -358 -641 0 -143 -192 797 -997 235 0 0 955zm-237 -413c24,-179 36,-268 38,-268l-33 0c-82,144 -126,219 -132,228l-345 453 468 0 4 -413z"/>
      <path class="fil12" d="M23559 11413c-678,0 -1315,-264 -1794,-743 -479,-480 -743,-1117 -743,-1794 0,-678 264,-1315 743,-1794 479,-479 1116,-743 1794,-743 678,0 1314,264 1794,743 479,479 743,1116 743,1794 0,677 -264,1314 -743,1794 -480,479 -1116,743 -1794,743zm-1682 -4219c-449,449 -697,1046 -697,1682 0,608 228,1182 643,1624l3360 -3361c-442,-414 -1015,-642 -1624,-642 -636,0 -1232,248 -1682,697zm3418 57l-3361 3361c442,415 1016,642 1625,642 635,0 1232,-247 1681,-697 450,-449 697,-1046 697,-1681 0,-609 -227,-1183 -642,-1625z"/>
     </g>
     <g>
      <path class="fil11" d="M17247 9578l-254 0 0 255 254 0 0 -255 254 0 255 0 254 0 0 255 254 0 0 -255 -254 0 0 -254 -254 0 -255 0 -254 0 0 254zm431 -2007l0 762 0 254 255 0 754 0 0 1592 -2090 0 0 -2608 1081 0zm255 762l0 -762 245 0 0 255 254 0 0 254 255 0 0 253 -754 0zm-940 0l0 -255 254 0 0 255 0 254 -254 0 0 -254zm-650 -762l0 2608 0 254 254 0 2090 0 116 0 138 0 0 -2353 -254 0 0 -254 -255 0 0 -255 -254 0 0 -254 -1581 0 -254 0 0 254z"/>
      <path class="fil12" d="M17642 11413c-678,0 -1315,-264 -1794,-744 -480,-479 -744,-1116 -744,-1794 0,-678 264,-1315 744,-1794 479,-480 1116,-744 1794,-744 678,0 1315,264 1794,744 480,479 744,1116 744,1794 0,678 -264,1315 -744,1794 -479,480 -1116,744 -1794,744zm-1682 -4220c-450,449 -697,1047 -697,1682 0,609 228,1183 642,1625l3362 -3362c-443,-414 -1016,-642 -1625,-642 -636,0 -1233,247 -1682,697zm3419 57l-3362 3362c442,414 1016,642 1625,642 635,0 1233,-247 1682,-697 449,-449 697,-1047 697,-1682 0,-609 -228,-1183 -642,-1625z"/>
     </g>
    </g>
    <path class="fil3" d="M29569 20233c281,9 506,239 507,525l5 0c2,-286 227,-516 507,-525 -282,-10 -507,-242 -507,-529l-4 0c0,287 -226,519 -508,529z"/>
   </g>
  </g>
 </g>
</svg>
