<?xml version="1.0" encoding="UTF-8"?>
<!DOCTYPE svg PUBLIC "-//W3C//DTD SVG 1.1//EN" "http://www.w3.org/Graphics/SVG/1.1/DTD/svg11.dtd">
<!-- Creator: CorelDRAW X7 -->
<svg xmlns="http://www.w3.org/2000/svg" xml:space="preserve" width="100%" height="100%" version="1.1" style="shape-rendering:geometricPrecision; text-rendering:geometricPrecision; image-rendering:optimizeQuality; fill-rule:evenodd; clip-rule:evenodd"
viewBox="0 0 331320 229460"
 xmlns:xlink="http://www.w3.org/1999/xlink">
 <defs>
  <style type="text/css">
   <![CDATA[
    .fil0 {fill:none}
    .fil13 {fill:#EBCCA6}
    .fil8 {fill:#D2AE6D}
    .fil14 {fill:#E5BD8D}
    .fil11 {fill:#D8A261}
    .fil12 {fill:#8480BC}
    .fil2 {fill:#FCDDC5}
    .fil1 {fill:#FCE9CA}
    .fil9 {fill:white}
    .fil6 {fill:#DBBB83;fill-rule:nonzero}
    .fil4 {fill:#D5A767;fill-rule:nonzero}
    .fil7 {fill:#D8A261;fill-rule:nonzero}
    .fil5 {fill:#8480BC;fill-rule:nonzero}
    .fil10 {fill:black;fill-rule:nonzero}
    .fil3 {fill:#E3C582;fill-rule:nonzero}
   ]]>
  </style>
 </defs>
 <g id="Layer_x0020_1">
  <metadata id="CorelCorpID_0Corel-Layer"/>
  <g id="_1686744047488">
   <rect class="fil0" width="331320" height="229460"/>
   <g>
    <g>
     <circle class="fil1" transform="matrix(-0.150783 0.131325 0.131325 0.150783 66529.5 52750.5)" r="97958"/>
     <circle class="fil2" transform="matrix(-0.507239 0.441783 0.441783 0.507239 81269 144247)" r="97958"/>
     <circle class="fil1" transform="matrix(-0.846356 0.737138 0.737138 0.846356 205999 114802)" r="97958"/>
    </g>
    <path class="fil3" d="M15641 87104c2806,93 5055,2397 5074,5249l45 0c18,-2852 2266,-5156 5073,-5249 -2818,-94 -5076,-2416 -5077,-5284l-37 0c-2,2868 -2261,5190 -5078,5284z"/>
    <path class="fil4" d="M154303 192081l0 4180 -1225 0 0 -7493 1292 0 2599 4424 775 1492 72 -19 -180 -1612 0 -4285 1230 0 0 7493 -1431 0 -2549 -4341 -696 -1427 -78 21 191 1567zm8714 -295c-270,0 -497,64 -688,191 -210,141 -316,331 -316,569l0 1916c0,249 106,450 316,605 196,141 425,212 688,212 247,0 469,-71 667,-212 210,-155 315,-356 319,-605l0 -1916c0,-241 -106,-432 -319,-569 -191,-127 -413,-191 -667,-191zm-2166 760c0,-592 226,-1065 677,-1416 410,-310 907,-469 1489,-476 579,7 1069,166 1473,476 451,351 677,824 677,1416l0 1916c0,600 -226,1072 -677,1416 -404,311 -894,469 -1473,476 -593,-7 -1088,-165 -1489,-476 -451,-344 -677,-816 -677,-1416l0 -1916zm9153 -3778l1219 0 0 7493 -1219 0 0 -7493zm3462 2373c896,-452 1808,-570 2734,-353 1037,241 1555,861 1555,1855l0 3618 -1157 0 0 -3607c-21,-430 -282,-706 -781,-827 -452,-106 -845,-57 -1184,150l0 4284 -1167 0 0 -5120zm8599 5171c-686,101 -1240,2 -1663,-294 -473,-337 -709,-877 -709,-1618l0 -5632 1153 0 0 2011 1048 0 0 1162 -1048 0 0 2449c0,389 124,650 372,781 168,93 452,139 847,139l0 1002zm4495 -3766c0,-241 -106,-435 -319,-580 -198,-127 -429,-190 -699,-190 -282,0 -515,67 -696,201 -205,148 -302,345 -295,589l0 532 2009 0 0 -552zm951 2708c-424,746 -1080,1122 -1969,1125 -585,0 -1081,-155 -1488,-469 -450,-351 -678,-824 -681,-1416l0 -1928c0,-600 227,-1071 681,-1415 403,-310 899,-465 1488,-465 579,0 1067,155 1462,465 452,344 678,815 678,1415l0 1494 -3131 0 0 434c-7,210 74,389 242,538 148,134 344,217 583,247 560,61 948,-133 1165,-584l970 559zm3525 -4475c93,-28 261,-42 501,-42 217,0 425,21 621,61l0 1029c-337,-99 -672,-80 -1002,61 -376,156 -565,408 -565,755l0 3618 -1162 0 0 -3642c0,-762 339,-1313 1018,-1650 134,-68 310,-128 527,-181l62 -9zm2786 362c896,-452 1808,-570 2734,-353 1037,241 1555,861 1555,1855l0 3618 -1157 0 0 -3607c-21,-430 -282,-706 -781,-827 -452,-106 -845,-57 -1184,150l0 4284 -1167 0 0 -5120zm9317 1405c0,-241 -106,-435 -319,-580 -198,-127 -429,-190 -699,-190 -282,0 -515,67 -696,201 -205,148 -302,345 -295,589l0 532 2009 0 0 -552zm951 2708c-424,746 -1080,1122 -1969,1125 -585,0 -1081,-155 -1488,-469 -450,-351 -678,-824 -681,-1416l0 -1928c0,-600 227,-1071 681,-1415 403,-310 899,-465 1488,-465 579,0 1067,155 1462,465 452,344 678,815 678,1415l0 1494 -3131 0 0 434c-7,210 74,389 242,538 148,134 344,217 583,247 560,61 948,-133 1165,-584l970 559zm4269 1058c-686,101 -1240,2 -1663,-294 -473,-337 -709,-877 -709,-1618l0 -5632 1153 0 0 2011 1048 0 0 1162 -1048 0 0 2449c0,389 124,650 372,781 168,93 452,139 847,139l0 1002zm10386 -51l-1489 0 -2247 -2900 -899 0 0 2900 -1225 0 0 -7493 2898 0c784,0 1399,178 1851,538 494,395 751,990 776,1782 0,1307 -660,2049 -1979,2233l2314 2940zm-2951 -3969c924,0 1386,-398 1386,-1194 0,-755 -462,-1122 -1386,-1100l-1684 0 0 2294 1684 0zm7323 254c0,-241 -106,-435 -319,-580 -198,-127 -429,-190 -699,-190 -282,0 -515,67 -696,201 -205,148 -302,345 -295,589l0 532 2009 0 0 -552zm951 2708c-424,746 -1080,1122 -1969,1125 -585,0 -1081,-155 -1488,-469 -450,-351 -678,-824 -681,-1416l0 -1928c0,-600 227,-1071 681,-1415 403,-310 899,-465 1488,-465 579,0 1067,155 1462,465 452,344 678,815 678,1415l0 1494 -3131 0 0 434c-7,210 74,389 242,538 148,134 344,217 583,247 560,61 948,-133 1165,-584l970 559zm6130 2796l-1162 0 0 -1939c-687,289 -1373,282 -2057,-21 -734,-323 -1104,-866 -1111,-1628l0 -1886c0,-1037 527,-1652 1580,-1850 889,-167 1806,-40 2750,383l0 6941zm-1162 -6192c-433,-190 -859,-236 -1283,-139 -478,113 -718,392 -718,836l0 1907c34,411 284,667 750,771 388,93 806,65 1251,-83l0 -3292zm7301 4052c-1030,444 -1972,571 -2822,383 -983,-217 -1473,-827 -1473,-1831l0 -3683 1162 0 0 3704c21,423 274,700 755,827 438,113 847,67 1224,-139l0 -4392 1154 0 0 5131zm1726 -6413c0,-210 70,-387 211,-528 141,-141 316,-211 522,-211 217,0 392,70 528,211 141,141 212,318 212,528 0,210 -71,388 -212,532 -143,141 -318,212 -528,212 -202,0 -377,-71 -522,-212 -141,-148 -211,-326 -211,-532zm169 1271l0 5493 1164 0 0 -5493 -1164 0zm4554 11c93,-28 261,-42 501,-42 217,0 425,21 621,61l0 1029c-337,-99 -672,-80 -1002,61 -376,156 -565,408 -565,755l0 3618 -1162 0 0 -3642c0,-762 339,-1313 1018,-1650 134,-68 310,-128 527,-181l62 -9zm5410 1767c0,-241 -106,-435 -319,-580 -198,-127 -429,-190 -699,-190 -282,0 -515,67 -696,201 -205,148 -302,345 -295,589l0 532 2009 0 0 -552zm951 2708c-424,746 -1080,1122 -1969,1125 -585,0 -1081,-155 -1488,-469 -450,-351 -678,-824 -681,-1416l0 -1928c0,-600 227,-1071 681,-1415 403,-310 899,-465 1488,-465 579,0 1067,155 1462,465 452,344 678,815 678,1415l0 1494 -3131 0 0 434c-7,210 74,389 242,538 148,134 344,217 583,247 560,61 948,-133 1165,-584l970 559zm6192 -6496l0 7270c-990,397 -1888,521 -2697,372 -1011,-176 -1552,-770 -1628,-1788l0 -2025c-7,-769 363,-1325 1111,-1669 706,-317 1390,-317 2051,0l0 -2160 1163 0zm-1163 3152c-358,-228 -763,-288 -1215,-180 -485,120 -746,388 -785,806l0 2076c21,437 282,712 785,822 430,100 836,65 1215,-103l0 -3421zm4562 2532l-1184 0 0 -5642 1184 0 0 5642zm-1355 1173c0,-217 74,-400 223,-548 143,-148 321,-222 538,-222 217,0 402,74 553,222 149,148 223,331 223,548 0,217 -74,401 -223,553 -148,148 -333,222 -553,222 -217,0 -395,-74 -538,-222 -149,-149 -223,-332 -223,-553z"/>
    <path class="fil5" d="M154004 49329l-1736 0 0 -10813 4182 0c1173,0 2110,372 2813,1118 621,672 931,1484 931,2438 0,970 -310,1782 -931,2431 -693,723 -1624,1082 -2798,1082l-2461 0 0 3744zm2446 -5360c624,0 1123,-202 1499,-599 329,-348 491,-771 486,-1267 0,-486 -168,-904 -501,-1253 -367,-386 -860,-575 -1484,-559l-2446 0 0 3678 2446 0zm9454 5360l-1879 0 -3132 -10813 1835 0 1908 6763c-10,0 97,675 321,2021l135 0 336 -2094c114,-713 489,-1553 857,-2581 387,-1079 672,-1920 858,-2520l1476 0 1685 5131c-10,0 140,677 454,2034l142 0 239 -2021 1894 -6733 1820 0 -3133 10813 -1879 0 -1708 -5287 -216 -1356 -104 0c-173,893 -255,1341 -245,1341l-1664 5302zm12575 -10813l1847 0 3908 10813 -1848 0 -1052 -2810 -3879 0c-114,346 -277,817 -491,1408l-484 1402 -1896 0 3895 -10813zm1356 3498l-336 -1708 -208 0 -372 1738 -866 2706 2671 0 -889 -2736zm16964 -3513l0 1774 -3288 0 0 9054 -1769 0 0 -9054 -3281 0 0 -1774 8338 0zm3587 5468c0,-349 -153,-629 -461,-838 -285,-183 -618,-275 -1008,-275 -407,0 -743,97 -1005,290 -295,214 -435,499 -425,851l0 768 2899 0 0 -796zm1372 3907c-611,1076 -1558,1618 -2841,1624 -845,0 -1560,-224 -2148,-678 -649,-506 -977,-1188 -982,-2043l0 -2782c0,-866 328,-1545 982,-2042 583,-448 1298,-672 2148,-672 835,0 1540,224 2110,672 652,497 978,1176 978,2042l0 2155 -4518 0 0 627c-10,302 107,562 349,776 213,193 496,313 842,356 807,89 1367,-191 1680,-842l1400 807zm1492 -3834c0,-865 325,-1547 977,-2044 583,-448 1296,-672 2141,-672 689,0 1303,158 1835,471 621,369 1033,901 1237,1604l-1530 580c-204,-720 -728,-1061 -1573,-1020 -855,40 -1321,394 -1402,1066l0 2706c40,315 198,567 470,761 265,186 576,287 932,305 845,41 1369,-300 1573,-1020l1560 582c-196,700 -613,1235 -1255,1601 -539,314 -1158,471 -1847,471 -845,0 -1558,-224 -2141,-672 -652,-496 -977,-1178 -977,-2041l0 -2678zm8898 -5526l0 3177c1018,-438 2008,-448 2968,-31 1037,459 1556,1288 1556,2492l0 5175 -1668 0 0 -5190c0,-641 -362,-1033 -1082,-1178 -662,-125 -1252,-23 -1774,305l0 6063 -1680 0 0 -10813 1680 0zm6395 3424c1293,-652 2609,-822 3946,-509 1496,349 2244,1242 2244,2678l0 5220 -1669 0 0 -5205c-31,-621 -408,-1018 -1128,-1194 -651,-153 -1219,-81 -1708,216l0 6183 -1685 0 0 -7389zm10978 931c-389,0 -718,92 -992,275 -303,204 -456,479 -456,823l0 2764c0,359 153,649 456,873 282,203 613,305 992,305 357,0 677,-102 962,-305 303,-224 456,-514 461,-873l0 -2764c0,-349 -153,-624 -461,-823 -275,-183 -595,-275 -962,-275zm-3125 1098c0,-856 325,-1538 977,-2044 590,-448 1308,-677 2148,-688 835,11 1543,240 2126,688 651,506 977,1188 977,2044l0 2764c0,865 -326,1547 -977,2044 -583,448 -1291,677 -2126,687 -855,-10 -1570,-239 -2148,-687 -652,-497 -977,-1179 -977,-2044l0 -2764zm10858 5419c-969,0 -1723,-242 -2260,-731 -527,-476 -791,-1138 -797,-1983l0 -8158 1678 0 0 8158c0,766 461,1146 1379,1141l0 1573zm3915 -6517c-389,0 -718,92 -992,275 -303,204 -456,479 -456,823l0 2764c0,359 153,649 456,873 282,203 613,305 992,305 357,0 677,-102 962,-305 303,-224 456,-514 461,-873l0 -2764c0,-349 -153,-624 -461,-823 -275,-183 -595,-275 -962,-275zm-3125 1098c0,-856 325,-1538 977,-2044 590,-448 1308,-677 2148,-688 835,11 1543,240 2126,688 651,506 977,1188 977,2044l0 2764c0,865 -326,1547 -977,2044 -583,448 -1291,677 -2126,687 -855,-10 -1570,-239 -2148,-687 -652,-497 -977,-1179 -977,-2044l0 -2764zm8718 5831c527,700 1232,1033 2110,998 926,-49 1382,-588 1372,-1619 -1029,427 -2031,407 -3011,-66 -1039,-487 -1558,-1286 -1558,-2393l0 -2739c0,-1445 779,-2336 2339,-2667 1448,-306 2726,-72 3833,700l0 7315c0,835 -247,1507 -745,2013 -446,459 -1039,744 -1775,858 -689,99 -1361,23 -2013,-231 -690,-263 -1209,-665 -1558,-1202l1006 -967zm3423 -6735c-468,-328 -1038,-420 -1715,-275 -731,163 -1100,560 -1110,1191l0 2752c38,613 410,987 1110,1127 672,135 1242,31 1715,-305l0 -4490zm9545 -1647l0 7911c0,835 -260,1507 -781,2013 -459,459 -1064,744 -1820,858 -713,99 -1403,23 -2075,-231 -700,-263 -1224,-665 -1573,-1202l1008 -967c517,679 1260,985 2230,916 1018,-79 1489,-593 1407,-1537 -1038,427 -2066,407 -3087,-66 -1087,-487 -1632,-1286 -1632,-2393l0 -5302 1678 0 0 5315c40,613 438,987 1193,1127 711,135 1304,31 1782,-305l0 -6137 1670 0z"/>
    <path class="fil6" d="M110128 31439c0,3787 3071,6858 6858,6858 3787,0 6858,-3071 6858,-6858 0,-3788 -3071,-6858 -6858,-6858 -3787,0 -6858,3070 -6858,6858z"/>
    <path class="fil7" d="M122288 35789c972,-1183 1556,-2699 1556,-4350 0,-3788 -3070,-6858 -6858,-6858 -2114,0 -4004,956 -5262,2460 0,0 5177,-1985 8362,1200 3185,3186 2202,7548 2202,7548z"/>
    <circle class="fil8" cx="65142" cy="63315" r="29727"/>
    <path class="fil9" d="M70753 71728l0 5610 -22437 0 0 -5610 22437 0zm-22437 -16828l0 -5609c11219,0 22437,0 33655,0l-5609 5609c-9349,0 -18697,0 -28046,0zm33655 5610c0,5609 0,11218 0,16828l-5609 0 0 -11219 0 0 -28046 0 0 -5609c11219,0 22437,0 33655,0z"/>
    <path class="fil10" d="M72696 118603c-338,0 -679,-56 -1020,-167 -341,-112 -617,-356 -832,-729 -143,203 -311,361 -502,482 -194,120 -400,211 -626,273 -223,59 -455,97 -696,115 -241,17 -479,26 -714,26l-7740 0c-694,0 -1276,-50 -1749,-150 -470,-100 -846,-264 -1125,-488 -282,-223 -482,-511 -600,-864 -117,-352 -176,-781 -176,-1287l0 -2912 2289 0 0 2601c0,235 32,420 91,555 62,135 168,244 318,323 152,80 358,133 617,156 258,24 587,35 990,35l6714 0c403,0 682,-61 841,-185 156,-123 235,-402 235,-831l0 -3970 2274 0 0 3773c0,435 91,746 274,931 185,188 564,282 1137,282 91,0 179,9 261,30 85,20 159,62 227,123 64,65 114,159 149,288 36,130 50,306 50,532 0,400 -55,679 -167,829 -112,153 -285,229 -520,229zm65736 -10804l-528 0 0 72066 528 0 0 -35241 0 -36825zm-39055 52345c-39,623 -169,1139 -389,1548 -219,412 -518,739 -899,981 -378,246 -830,419 -1354,521 -524,103 -1109,154 -1753,154l-644 0 0 -1273 473 0c470,0 907,-23 1311,-69 403,-43 751,-135 1042,-275 294,-141 521,-335 690,-583 166,-250 255,-585 266,-1004l-1730 0c-419,0 -805,-46 -1155,-138 -352,-92 -659,-243 -922,-452 -261,-210 -465,-483 -613,-820 -148,-338 -220,-756 -220,-1255 0,-419 66,-827 204,-1226 138,-401 338,-754 598,-1060 263,-307 580,-555 953,-746 371,-189 797,-284 1275,-284 529,0 979,95 1346,284 371,191 670,460 900,804 230,348 396,767 498,1260 102,491 153,1037 153,1643l0 718 1078 0c409,0 614,204 614,613 0,255 -49,429 -146,521 -97,92 -253,138 -468,138l-1108 0zm-4671 -2792c0,518 151,901 450,1149 299,248 741,371 1323,371l1641 0 0 -1012c0,-766 -128,-1375 -381,-1817 -256,-444 -695,-666 -1318,-666 -294,0 -550,58 -764,176 -215,115 -391,271 -532,460 -140,189 -245,401 -314,636 -69,235 -105,468 -105,703zm5772 2792c-409,0 -613,-204 -613,-613 0,-256 48,-429 145,-521 98,-92 253,-138 468,-138l2389 0 0 -9670 1257 0 0 10942 -3646 0zm11198 0c-39,623 -169,1139 -389,1548 -219,412 -518,739 -899,981 -378,246 -830,419 -1354,521 -524,103 -1109,154 -1753,154l-644 0 0 -1273 473 0c470,0 907,-23 1311,-69 403,-43 751,-135 1042,-275 294,-141 521,-335 690,-583 166,-250 255,-585 266,-1004l-1730 0c-419,0 -805,-46 -1155,-138 -352,-92 -659,-243 -922,-452 -261,-210 -465,-483 -613,-820 -148,-338 -220,-756 -220,-1255 0,-419 66,-827 204,-1226 138,-401 338,-754 598,-1060 263,-307 580,-555 953,-746 371,-189 797,-284 1275,-284 529,0 979,95 1346,284 371,191 670,460 900,804 230,348 396,767 498,1260 102,491 153,1037 153,1643l0 718 1078 0c409,0 614,204 614,613 0,255 -49,429 -146,521 -97,92 -253,138 -468,138l-1108 0zm-4671 -2792c0,518 151,901 450,1149 299,248 741,371 1323,371l1641 0 0 -1012c0,-766 -128,-1375 -381,-1817 -256,-444 -695,-666 -1318,-666 -294,0 -550,58 -764,176 -215,115 -391,271 -532,460 -140,189 -245,401 -314,636 -69,235 -105,468 -105,703zm5772 2792c-409,0 -613,-204 -613,-613 0,-256 48,-429 145,-521 98,-92 253,-138 468,-138l1024 0c246,0 455,-11 629,-31 176,-20 322,-69 439,-146 118,-76 205,-189 261,-337 59,-145 87,-347 87,-603l0 -3510 1257 0 0 2943c0,253 18,485 53,695 34,209 103,386 205,529 102,140 240,253 411,337 174,82 394,123 664,123 409,0 614,204 614,613 0,255 -49,429 -146,521 -97,92 -253,138 -468,138 -398,0 -720,-95 -965,-284 -246,-191 -409,-426 -496,-712 -184,419 -473,689 -863,812 -391,123 -874,184 -1449,184l-1257 0zm2297 -8479c0,-225 82,-417 240,-573 161,-158 353,-237 577,-237 225,0 414,79 573,237 155,156 235,348 235,573 0,224 -80,416 -235,574 -159,161 -348,241 -573,241 -224,0 -416,-80 -577,-241 -158,-158 -240,-350 -240,-574zm2726 8479c-409,0 -613,-204 -613,-613 0,-256 48,-429 145,-521 98,-92 253,-138 468,-138l3436 0c562,0 969,-90 1211,-271 246,-179 368,-417 368,-710 0,-274 -112,-583 -337,-928 -225,-345 -537,-692 -935,-1045 -399,-352 -869,-697 -1403,-1040 -536,-342 -1116,-648 -1742,-924 10,-126 33,-253 69,-386 33,-130 76,-253 122,-365 49,-113 98,-207 146,-287 51,-76 95,-125 135,-145l5734 -2471 0 1275 -4507 1990c1083,555 1944,1142 2583,1766 638,623 1065,1246 1280,1872 125,358 242,644 355,856 112,212 232,381 360,506 128,125 266,207 416,245 149,41 320,62 509,62 409,0 613,204 613,613 0,255 -48,429 -146,521 -97,92 -252,138 -467,138 -215,0 -411,-13 -588,-38 -179,-23 -345,-77 -498,-161 -156,-82 -301,-202 -437,-358 -138,-158 -268,-370 -393,-641l-62 0c-194,480 -521,799 -978,958 -460,161 -1022,240 -1686,240l-3158 0zm7800 0c-409,0 -613,-204 -613,-613 0,-256 48,-429 145,-521 98,-92 253,-138 468,-138l2389 0 0 -4627 1257 0 0 5899 -3646 0zm1027 -8479c0,-225 79,-417 240,-573 159,-158 350,-237 575,-237 225,0 416,79 572,237 159,156 238,348 238,573 0,224 -79,416 -238,574 -156,161 -347,241 -572,241 -225,0 -416,-80 -575,-241 -161,-158 -240,-350 -240,-574zm1990 0c0,-225 82,-417 240,-573 161,-158 353,-237 578,-237 222,0 414,79 572,237 156,156 235,348 235,573 0,224 -79,416 -235,574 -158,161 -350,241 -572,241 -225,0 -417,-80 -578,-241 -158,-158 -240,-350 -240,-574zm-85370 4573l0 3980 -1242 0 0 -10988 4182 0c1165,0 2090,363 2778,1086 626,664 935,1469 930,2411 0,948 -304,1753 -915,2417 -692,723 -1620,1089 -2777,1094l-2956 0zm2940 -1245c800,0 1424,-237 1873,-717 399,-419 598,-941 598,-1564 0,-613 -204,-1132 -613,-1551 -460,-467 -1078,-697 -1858,-687l-2940 0 0 4519 2940 0zm11952 -4371l2560 8130 2673 -9522 1303 0 -3189 10988 -1548 0 -2366 -7417 -2358 7417 -1548 0 -3191 -10988 1303 0 2672 9522 2560 -8130 1129 0zm9532 -1392l1549 0 3983 10988 -1319 0 -1287 -3538 -4310 0 -1237 3538 -1323 0 3944 -10988zm2484 6190l-1707 -4811 -1714 4811 3421 0zm-8598 20312l-1241 0 0 -8203 1241 0 0 8203zm-1512 1978c-5,-256 82,-470 255,-644 174,-174 389,-263 644,-263 256,0 468,89 644,263 174,174 261,388 261,644 0,253 -87,467 -261,644 -176,173 -388,260 -644,260 -255,0 -470,-87 -644,-260 -173,-177 -260,-391 -255,-644zm10106 733c-419,0 -771,-87 -1055,-263 -286,-174 -572,-486 -861,-935 -115,276 -260,495 -439,659 -176,163 -376,286 -595,363 -220,76 -450,125 -695,145 -246,21 -488,31 -734,31l-2335 0 0 -1272 2747 0c429,0 759,-54 988,-161 230,-108 343,-263 343,-468 0,-194 -51,-388 -153,-585 -103,-194 -228,-404 -379,-628l-1630 -2402 1183 -741 1840 3053c204,340 383,631 536,877 151,245 299,442 437,595 141,151 274,266 401,345 128,76 261,115 401,115 409,0 614,204 614,613 0,255 -49,429 -146,521 -97,92 -253,138 -468,138zm0 0c-409,0 -613,-204 -613,-613 0,-256 48,-429 145,-521 98,-92 253,-138 468,-138l2269 0c408,0 613,204 613,613 0,255 -49,429 -146,521 -97,92 -253,138 -467,138l-2269 0zm2269 0c-409,0 -613,-204 -613,-613 0,-256 48,-429 145,-521 98,-92 253,-138 468,-138l2269 0c408,0 613,204 613,613 0,255 -49,429 -146,521 -97,92 -253,138 -467,138l-2269 0zm2269 0c-409,0 -613,-204 -613,-613 0,-256 48,-429 145,-521 98,-92 253,-138 468,-138l2389 0 0 -4627 1257 0 0 5899 -3646 0zm628 2312c0,-225 80,-414 241,-572 158,-156 350,-235 574,-235 225,0 417,79 573,235 158,158 237,347 237,572 0,225 -79,417 -237,578 -156,158 -348,240 -573,240 -224,0 -416,-82 -574,-240 -161,-161 -241,-353 -241,-578zm1991 0c0,-225 81,-414 240,-572 161,-156 352,-235 577,-235 223,0 414,79 573,235 155,158 235,347 235,572 0,225 -80,417 -235,578 -159,158 -350,240 -573,240 -225,0 -416,-82 -577,-240 -159,-161 -240,-353 -240,-578zm6864 -2312c-339,0 -621,-77 -845,-227 -225,-154 -391,-333 -501,-537 0,733 -44,1354 -130,1860 -90,506 -253,917 -499,1229 -245,312 -582,536 -1011,672 -429,138 -986,207 -1676,207l0 -1273c498,0 889,-53 1172,-161 281,-107 491,-281 631,-521 141,-237 223,-546 248,-919 26,-376 36,-826 36,-1354l0 -4111 1244 0 0 2179c0,519 95,930 284,1231 189,302 539,453 1047,453 409,0 613,204 613,613 0,255 -48,429 -145,521 -97,92 -253,138 -468,138zm-7 0c-409,0 -613,-204 -613,-613 0,-256 48,-429 145,-521 98,-92 253,-138 468,-138l1024 0c246,0 455,-11 629,-31 176,-20 322,-69 439,-146 118,-76 205,-189 261,-337 59,-145 87,-347 87,-603l0 -3510 1257 0 0 2943c0,253 18,485 53,695 34,209 103,386 205,529 102,140 240,253 411,337 174,82 394,123 664,123 409,0 614,204 614,613 0,255 -49,429 -146,521 -97,92 -253,138 -468,138 -398,0 -720,-95 -965,-284 -246,-191 -409,-426 -496,-712 -184,419 -473,689 -863,812 -391,123 -874,184 -1449,184l-1257 0zm1975 2281c0,-224 79,-416 240,-572 158,-158 353,-235 575,-235 225,0 416,77 575,235 156,156 235,348 235,572 0,225 -79,417 -235,578 -159,158 -350,237 -575,237 -222,0 -417,-79 -575,-237 -161,-161 -240,-353 -240,-578zm3048 -2281c-409,0 -613,-204 -613,-613 0,-256 48,-429 145,-521 98,-92 253,-138 468,-138l2389 0 0 -4627 1257 0 0 5899 -3646 0zm1944 2281c0,-224 79,-416 240,-572 159,-158 353,-235 575,-235 225,0 417,77 575,235 156,156 235,348 235,572 0,225 -79,417 -235,578 -158,158 -350,237 -575,237 -222,0 -416,-79 -575,-237 -161,-161 -240,-353 -240,-578zm19419 -2281l-9289 0c-593,0 -1088,-41 -1482,-123 -393,-84 -713,-212 -950,-391 -240,-176 -412,-406 -514,-687 -102,-283 -153,-628 -153,-1037l0 -2373 1257 0 0 1916c0,314 38,567 118,756 76,189 206,335 388,432 181,97 432,161 748,189 317,30 723,46 1217,46l7401 0 0 -4627 1259 0 0 5899zm-7912 -7590c0,-225 79,-417 240,-573 159,-158 350,-237 575,-237 225,0 416,79 572,237 159,156 238,348 238,573 0,224 -79,416 -238,574 -156,161 -347,241 -572,241 -225,0 -416,-80 -575,-241 -161,-158 -240,-350 -240,-574zm1990 0c0,-225 82,-417 240,-573 161,-158 353,-237 578,-237 222,0 414,79 572,237 156,156 235,348 235,573 0,224 -79,416 -235,574 -158,161 -350,241 -572,241 -225,0 -417,-80 -578,-241 -158,-158 -240,-350 -240,-574zm14164 7590c-419,0 -771,-87 -1055,-263 -286,-174 -572,-486 -861,-935 -115,276 -260,495 -439,659 -176,163 -376,286 -595,363 -220,76 -450,125 -695,145 -246,21 -488,31 -734,31l-2335 0 0 -1272 2747 0c429,0 759,-54 988,-161 230,-108 343,-263 343,-468 0,-194 -51,-388 -153,-585 -103,-194 -228,-404 -379,-628l-1630 -2402 1183 -741 1840 3053c204,340 383,631 536,877 151,245 299,442 437,595 141,151 274,266 401,345 128,76 261,115 401,115 409,0 614,204 614,613 0,255 -49,429 -146,521 -97,92 -253,138 -468,138zm-4966 -8479c0,-225 82,-417 240,-573 161,-158 353,-237 577,-237 225,0 414,79 573,237 155,156 235,348 235,573 0,224 -80,416 -235,574 -159,161 -348,241 -573,241 -224,0 -416,-80 -577,-241 -158,-158 -240,-350 -240,-574zm4966 8479c-409,0 -613,-204 -613,-613 0,-256 48,-429 145,-521 98,-92 253,-138 468,-138l2269 0c408,0 613,204 613,613 0,255 -49,429 -146,521 -97,92 -253,138 -467,138l-2269 0zm2269 0c-409,0 -613,-204 -613,-613 0,-256 48,-429 145,-521 98,-92 253,-138 468,-138l2269 0c408,0 613,204 613,613 0,255 -49,429 -146,521 -97,92 -253,138 -467,138l-2269 0zm2269 0c-409,0 -613,-204 -613,-613 0,-256 48,-429 145,-521 98,-92 253,-138 468,-138l2269 0c408,0 613,204 613,613 0,255 -49,429 -146,521 -97,92 -253,138 -467,138l-2269 0zm2269 0c-409,0 -613,-204 -613,-613 0,-256 48,-429 145,-521 98,-92 253,-138 468,-138l2389 0 0 -9670 1257 0 0 10942 -3646 0zm-62657 -54321c0,-338 123,-632 370,-879 247,-247 541,-370 885,-370 340,0 631,123 878,370 247,247 370,541 370,879 0,337 -123,631 -370,878 -247,247 -538,370 -878,370 -338,0 -632,-123 -882,-370 -250,-247 -373,-541 -373,-878zm-1440 -2557c0,-338 123,-632 370,-879 247,-246 541,-370 879,-370 338,0 632,124 878,370 247,247 371,541 371,879 0,338 -124,632 -371,879 -246,246 -540,370 -878,370 -338,0 -632,-124 -879,-370 -247,-247 -370,-541 -370,-879zm2868 0c0,-338 123,-632 370,-879 247,-246 541,-370 888,-370 338,0 631,124 878,370 247,247 371,541 371,879 0,338 -124,632 -371,879 -247,246 -540,370 -878,370 -341,0 -635,-124 -885,-370 -250,-247 -373,-541 -373,-879zm8316 -2962c-91,0 -179,-9 -262,-26 -85,-18 -158,-59 -226,-124 -64,-67 -114,-164 -150,-294 -35,-129 -50,-305 -50,-529 0,-402 56,-678 168,-831 112,-153 285,-227 520,-227l2609 0c91,0 180,9 262,30 82,20 159,62 223,123 68,65 118,159 153,288 32,130 50,306 50,532 0,400 -56,679 -167,829 -112,153 -286,229 -521,229l-2609 0zm2609 0c-91,0 -179,-9 -262,-26 -85,-18 -158,-62 -226,-133 -64,-73 -114,-173 -150,-302 -35,-130 -50,-306 -50,-529 0,-403 56,-679 168,-832 112,-150 285,-226 520,-226l2789 0 0 -4969 2306 0 0 7017 -5095 0zm197 2962c0,-338 123,-632 370,-879 247,-246 541,-370 879,-370 338,0 632,124 878,370 247,247 371,541 371,879 0,338 -124,632 -371,879 -246,246 -540,370 -878,370 -338,0 -632,-124 -879,-370 -247,-247 -370,-541 -370,-879zm2868 0c0,-338 123,-632 370,-879 247,-246 544,-370 888,-370 337,0 631,124 878,370 247,247 370,541 370,879 0,338 -123,632 -370,879 -247,246 -541,370 -878,370 -338,0 -635,-124 -885,-370 -250,-247 -373,-541 -373,-879zm11313 -2962c-340,0 -628,-18 -869,-53 -241,-32 -450,-85 -626,-159 -174,-70 -338,-161 -494,-276 -156,-111 -314,-241 -473,-391 -338,391 -705,635 -1102,732 -397,97 -823,147 -1284,147l-3065 0 0 -2031 3488 0c279,0 491,-44 629,-129 138,-88 206,-191 206,-311 0,-133 -56,-291 -168,-476 -112,-188 -320,-500 -626,-935l-1607 -2377 2098 -1343 2119 3582c223,379 417,697 581,955 165,259 312,464 447,614 135,153 262,262 379,324 118,64 241,96 367,96 91,0 180,9 265,30 88,20 161,62 226,123 62,65 112,159 144,288 35,130 53,306 53,532 0,400 -56,679 -168,829 -111,153 -285,229 -520,229zm1866 -10064c0,-338 123,-632 370,-882 247,-250 544,-376 888,-376 338,0 631,123 878,370 247,247 370,544 370,888 0,338 -123,631 -370,878 -247,247 -540,370 -878,370 -338,0 -632,-123 -882,-370 -250,-247 -376,-540 -376,-878zm165 8033l0 -4986 2309 0 0 7017 -4340 0c-91,0 -179,-9 -262,-26 -85,-18 -158,-59 -226,-124 -64,-67 -114,-164 -150,-294 -35,-129 -50,-305 -50,-529 0,-402 56,-678 168,-831 112,-153 285,-227 520,-227l2031 0zm9212 2031c-156,0 -367,-35 -638,-109 -270,-70 -505,-223 -705,-458 -12,796 -106,1463 -279,2001 -176,535 -441,970 -793,1299 -353,329 -800,567 -1337,705 -541,141 -1190,217 -1946,229l0 -2151c482,-11 864,-67 1149,-170 282,-100 497,-247 638,-447 138,-197 229,-452 270,-767 41,-311 59,-687 59,-1122l0 -5251 2274 0 0 2997c0,458 139,776 418,949 279,176 576,264 890,264 91,0 179,9 262,30 85,20 158,62 226,123 65,65 115,159 150,288 35,130 50,306 50,532 0,400 -56,679 -168,829 -111,153 -285,229 -520,229zm714 -2031c258,0 473,-5 640,-17 171,-12 309,-47 415,-103 106,-59 182,-144 232,-256 50,-111 73,-267 73,-470l0 -3364 2257 0 0 2997c0,376 100,673 306,890 203,215 523,323 958,323 341,0 631,-52 875,-155 244,-103 365,-332 365,-691l0 -3364 2289 0 0 2997c0,808 350,1213 1043,1213l1093 0 0 -4986 2289 0 0 7017 -2694 0c-626,0 -1096,-73 -1417,-220 -317,-147 -584,-377 -805,-694 -176,226 -367,397 -567,517 -200,121 -408,212 -620,274 -212,58 -420,94 -623,105 -206,12 -400,18 -591,18 -596,0 -1099,-97 -1507,-294 -406,-194 -697,-399 -870,-620 -314,414 -726,670 -1234,767 -508,97 -1155,147 -1942,147l-688 0c-91,0 -179,-9 -262,-26 -85,-18 -158,-59 -226,-124 -64,-67 -114,-164 -150,-294 -35,-129 -50,-305 -50,-529 0,-402 56,-678 168,-831 112,-153 285,-227 520,-227l723 0zm24001 973c0,400 -56,679 -168,829 -111,153 -285,229 -520,229l-740 0c-403,0 -770,-44 -1102,-132 -332,-91 -620,-238 -861,-441 -241,-203 -429,-476 -564,-817 -136,-341 -203,-764 -203,-1269l0 -9927 2292 0 0 9606c0,415 73,676 217,785 147,109 356,164 626,164l335 0c91,0 179,9 262,30 85,20 158,62 226,123 65,65 115,159 150,288 35,130 50,306 50,532zm1326 -973l0 -4986 2309 0 0 7017 -4340 0c-91,0 -179,-9 -262,-26 -85,-18 -158,-59 -226,-124 -64,-67 -114,-164 -150,-294 -35,-129 -50,-305 -50,-529 0,-402 56,-678 168,-831 112,-153 285,-227 520,-227l2031 0zm-288 4940c0,-338 123,-632 370,-878 247,-247 540,-371 887,-371 338,0 629,124 876,371 247,246 370,540 370,878 0,338 -123,632 -370,879 -247,247 -538,370 -876,370 -341,0 -635,-123 -884,-370 -250,-247 -373,-541 -373,-879zm-84321 19922c0,398 64,764 191,1096 128,332 343,618 644,856 302,240 700,426 1198,559 496,133 1112,197 1845,197 529,0 1037,-39 1523,-115 488,-77 917,-187 1290,-330 375,-143 672,-317 891,-526 220,-210 330,-447 330,-713 0,-235 -77,-432 -233,-590 -153,-161 -447,-347 -876,-562 -304,-156 -587,-314 -848,-475 -263,-161 -488,-343 -675,-542 -186,-202 -337,-424 -452,-674 -115,-251 -171,-545 -171,-884 0,-389 69,-782 210,-1178 138,-396 347,-756 628,-1078 279,-322 629,-583 1048,-782 419,-199 914,-299 1489,-299 340,0 639,38 897,115 260,77 411,125 449,146l0 1287c-204,-58 -426,-110 -664,-153 -240,-43 -478,-64 -713,-64 -339,0 -638,54 -896,161 -261,107 -476,248 -644,424 -171,174 -299,368 -383,583 -85,214 -128,429 -128,643 0,205 38,381 112,529 77,146 179,281 312,404 133,123 286,235 460,337 176,102 365,210 570,325 350,194 641,373 876,536 232,161 419,320 557,475 138,154 237,310 299,468 61,156 94,327 94,511 0,429 -97,843 -294,1244 -194,399 -505,751 -935,1058 -429,306 -983,554 -1660,741 -680,189 -1500,281 -2463,281 -963,0 -1771,-92 -2425,-281 -654,-187 -1180,-447 -1576,-782 -396,-335 -682,-728 -856,-1183 -176,-455 -263,-950 -263,-1489l0 -2290 1242 0 0 2014zm14789 411c-339,0 -621,-77 -845,-227 -225,-154 -391,-333 -501,-537 0,733 -44,1354 -130,1860 -90,506 -253,917 -499,1229 -245,312 -582,536 -1011,672 -429,138 -986,207 -1676,207l0 -1273c498,0 889,-53 1172,-161 281,-107 491,-281 631,-521 141,-237 223,-546 248,-919 26,-376 36,-826 36,-1354l0 -4111 1244 0 0 2179c0,519 95,930 284,1231 189,302 539,453 1047,453 409,0 613,204 613,613 0,255 -48,429 -145,521 -97,92 -253,138 -468,138zm-7 0c-409,0 -613,-204 -613,-613 0,-256 48,-429 145,-521 98,-92 253,-138 468,-138l2389 0 0 -4627 1257 0 0 5899 -3646 0zm1944 2281c0,-224 79,-416 240,-572 159,-158 353,-235 575,-235 225,0 417,77 575,235 156,156 235,348 235,572 0,225 -79,417 -235,578 -158,158 -350,237 -575,237 -222,0 -416,-79 -575,-237 -161,-161 -240,-353 -240,-578zm4951 -7416l1242 0 0 4274c0,759 -44,1395 -130,1914 -90,516 -253,932 -499,1249 -245,317 -585,547 -1019,687 -434,143 -994,215 -1684,215l0 -1273c499,0 890,-53 1173,-161 281,-107 493,-281 631,-521 141,-237 222,-546 248,-919 25,-376 38,-826 38,-1354l0 -4111zm6586 4476c0,255 -48,429 -145,521 -97,92 -253,138 -468,138l-398 0c-330,0 -629,-33 -897,-102 -271,-67 -498,-182 -690,-343 -189,-163 -337,-380 -445,-651 -107,-273 -161,-613 -161,-1022l0 -8824 1257 0 0 8487c0,429 69,733 202,912 136,181 432,271 892,271l240 0c409,0 613,204 613,613zm-613 659c-409,0 -613,-204 -613,-613 0,-256 48,-429 145,-521 98,-92 253,-138 468,-138l2269 0c408,0 613,204 613,613 0,255 -49,429 -146,521 -97,92 -253,138 -467,138l-2269 0zm2269 0c-409,0 -613,-204 -613,-613 0,-256 48,-429 145,-521 98,-92 253,-138 468,-138l2269 0c408,0 613,204 613,613 0,255 -49,429 -146,521 -97,92 -253,138 -467,138l-2269 0zm2269 0c-409,0 -613,-204 -613,-613 0,-256 48,-429 145,-521 98,-92 253,-138 468,-138l3661 0c378,0 695,-67 945,-200 253,-130 378,-388 378,-766 0,-266 -125,-567 -378,-910 -250,-342 -585,-689 -999,-1044 -413,-353 -889,-703 -1425,-1043 -537,-342 -1083,-651 -1643,-925 10,-125 41,-250 89,-378 52,-128 108,-245 169,-352 61,-108 125,-202 192,-284 64,-82 120,-138 163,-169l5608 -2470 0 1244 -4507 1990c713,419 1321,828 1822,1227 501,398 909,784 1221,1152 312,370 539,725 680,1068 143,342 214,664 214,968 0,215 -33,452 -97,708 -66,258 -189,493 -375,707 -184,215 -445,394 -782,537 -337,140 -772,212 -1306,212l-3630 0zm12904 -4003c0,429 136,776 409,1042 271,268 703,401 1290,401 225,0 468,-25 731,-74 261,-51 496,-118 700,-202l0 -2726 -1349 0c-488,0 -907,125 -1257,371 -350,247 -524,643 -524,1188zm1595 2746c-246,0 -527,-36 -849,-110 -322,-71 -631,-202 -922,-388 -291,-187 -539,-452 -743,-797 -205,-345 -307,-792 -307,-1339 0,-554 97,-1017 291,-1390 194,-370 445,-674 751,-909 307,-235 647,-404 1020,-506 370,-102 741,-154 1111,-154l2440 0 0 4395c0,429 66,733 197,912 133,181 429,271 889,271l365 0c409,0 613,204 613,613 0,255 -48,429 -145,521 -97,92 -253,138 -468,138l-516 0c-263,0 -519,-23 -759,-66 -242,-46 -457,-128 -649,-248 -189,-120 -350,-276 -483,-468 -130,-191 -217,-444 -258,-753 -224,81 -477,148 -758,199 -281,53 -555,79 -820,79zm4243 1257c-409,0 -613,-204 -613,-613 0,-256 48,-429 145,-521 98,-92 253,-138 468,-138l2389 0 0 -4627 1257 0 0 5899 -3646 0zm1944 2281c0,-224 79,-416 240,-572 159,-158 353,-235 575,-235 225,0 417,77 575,235 156,156 235,348 235,572 0,225 -79,417 -235,578 -158,158 -350,237 -575,237 -222,0 -416,-79 -575,-237 -161,-161 -240,-353 -240,-578zm7539 -2281c-339,0 -621,-77 -845,-227 -225,-154 -391,-333 -501,-537 0,733 -44,1354 -130,1860 -90,506 -253,917 -499,1229 -245,312 -582,536 -1011,672 -429,138 -986,207 -1676,207l0 -1273c498,0 889,-53 1172,-161 281,-107 491,-281 631,-521 141,-237 223,-546 248,-919 26,-376 36,-826 36,-1354l0 -4111 1244 0 0 2179c0,519 95,930 284,1231 189,302 539,453 1047,453 409,0 613,204 613,613 0,255 -48,429 -145,521 -97,92 -253,138 -468,138zm-7 0c-409,0 -613,-204 -613,-613 0,-256 48,-429 145,-521 98,-92 253,-138 468,-138l2269 0c408,0 613,204 613,613 0,255 -49,429 -146,521 -97,92 -253,138 -467,138l-2269 0zm2269 0c-409,0 -613,-204 -613,-613 0,-256 48,-429 145,-521 98,-92 253,-138 468,-138l6144 0c0,-654 -84,-1206 -258,-1653 -171,-450 -406,-815 -702,-1099 -297,-281 -647,-485 -1045,-613 -399,-128 -818,-192 -1257,-192 -294,0 -608,28 -940,85 -332,53 -606,112 -818,179l0 -1229c205,-59 475,-128 810,-205 337,-76 705,-117 1106,-117 767,0 1426,127 1975,383 549,253 1004,603 1370,1047 365,445 633,961 804,1549 171,590 263,1211 274,1865l950 0c409,0 613,204 613,613 0,255 -48,429 -145,521 -97,92 -253,138 -468,138l-8413 0zm3201 2297c0,-225 79,-417 240,-572 159,-159 353,-236 575,-236 225,0 417,77 575,236 156,155 235,347 235,572 0,225 -79,416 -235,577 -158,159 -350,238 -575,238 -222,0 -416,-79 -575,-238 -161,-161 -240,-352 -240,-577zm5227 -2297c-409,0 -613,-204 -613,-613 0,-256 48,-429 145,-521 98,-92 253,-138 468,-138l2389 0 0 -4627 1257 0 0 5899 -3646 0zm1027 -8479c0,-225 79,-417 240,-573 159,-158 350,-237 575,-237 225,0 416,79 572,237 159,156 238,348 238,573 0,224 -79,416 -238,574 -156,161 -347,241 -572,241 -225,0 -416,-80 -575,-241 -161,-158 -240,-350 -240,-574zm1990 0c0,-225 82,-417 240,-573 161,-158 353,-237 578,-237 222,0 414,79 572,237 156,156 235,348 235,573 0,224 -79,416 -235,574 -158,161 -350,241 -572,241 -225,0 -417,-80 -578,-241 -158,-158 -240,-350 -240,-574zm8137 3344l1242 0 0 4274c0,759 -44,1395 -130,1914 -90,516 -253,932 -499,1249 -245,317 -585,547 -1019,687 -434,143 -994,215 -1684,215l0 -1273c499,0 890,-53 1173,-161 281,-107 493,-281 631,-521 141,-237 222,-546 248,-919 25,-376 38,-826 38,-1354l0 -4111zm-189 -3344c0,-225 82,-417 240,-573 161,-158 353,-237 578,-237 225,0 414,79 572,237 156,156 235,348 235,573 0,224 -79,416 -235,574 -158,161 -347,241 -572,241 -225,0 -417,-80 -578,-241 -158,-158 -240,-350 -240,-574zm4828 -2463l0 10942 -1257 0 0 -10942 1257 0zm-50863 28830c0,398 64,764 191,1096 128,332 343,618 644,856 302,240 700,426 1198,559 496,133 1112,197 1845,197 529,0 1037,-39 1523,-115 488,-77 917,-187 1290,-330 375,-143 672,-317 891,-526 220,-210 330,-447 330,-713 0,-235 -77,-432 -233,-590 -153,-161 -447,-347 -876,-562 -304,-156 -587,-314 -848,-475 -263,-161 -488,-343 -675,-542 -186,-202 -337,-424 -452,-674 -115,-251 -171,-545 -171,-884 0,-389 69,-782 210,-1178 138,-396 347,-756 628,-1078 279,-322 629,-583 1048,-782 419,-199 914,-299 1489,-299 340,0 639,38 897,115 260,77 411,125 449,146l0 1287c-204,-58 -426,-110 -664,-153 -240,-43 -478,-64 -713,-64 -339,0 -638,54 -896,161 -261,107 -476,248 -644,424 -171,174 -299,368 -383,583 -85,214 -128,429 -128,643 0,205 38,381 112,529 77,146 179,281 312,404 133,123 286,235 460,337 176,102 365,210 570,325 350,194 641,373 876,536 232,161 419,320 557,475 138,154 237,310 299,468 61,156 94,327 94,511 0,429 -97,843 -294,1244 -194,399 -505,751 -935,1058 -429,306 -983,554 -1660,741 -680,189 -1500,281 -2463,281 -963,0 -1771,-92 -2425,-281 -654,-187 -1180,-447 -1576,-782 -396,-335 -682,-728 -856,-1183 -176,-455 -263,-950 -263,-1489l0 -2290 1242 0 0 2014zm12201 -4724l1242 0 0 4274c0,759 -44,1395 -130,1914 -90,516 -253,932 -499,1249 -245,317 -585,547 -1019,687 -434,143 -994,215 -1684,215l0 -1273c499,0 890,-53 1173,-161 281,-107 493,-281 631,-521 141,-237 222,-546 248,-919 25,-376 38,-826 38,-1354l0 -4111zm-1198 -2455c0,-225 79,-417 240,-573 159,-158 350,-237 575,-237 225,0 416,79 572,237 159,156 238,348 238,573 0,224 -79,416 -238,574 -156,161 -347,241 -572,241 -225,0 -416,-80 -575,-241 -161,-158 -240,-350 -240,-574zm1990 0c0,-225 82,-417 240,-573 161,-158 353,-237 578,-237 222,0 414,79 572,237 156,156 235,348 235,573 0,224 -79,416 -235,574 -158,161 -350,241 -572,241 -225,0 -417,-80 -578,-241 -158,-158 -240,-350 -240,-574zm-965 -1835c0,-225 81,-416 240,-577 161,-159 352,-238 577,-238 225,0 414,79 572,238 156,161 235,352 235,577 0,225 -79,414 -235,573 -158,155 -347,235 -572,235 -225,0 -416,-80 -577,-235 -159,-159 -240,-348 -240,-573z"/>
    <g>
     <g>
      <path class="fil11" d="M241656 132624l0 3461 -3462 0 0 -3461 3462 0zm-781 2681l0 -1900 -1900 0 0 1900 1900 0zm-5517 -3384l0 9340 -1386 0 0 1407 -2147 0 0 1438 -2147 0 0 1407 -1417 0 0 1407 -2373 0 0 -1396 -1428 0 0 -1438 -1419 0 0 -2857 -1931 0 0 9013 1443 0 0 1468 1438 0 0 1407 1427 0 0 1428 1387 0 0 1428 1444 0 0 1202 0 205 0 744 0 698 0 1218 0 826 0 822 3318 0 0 -1648 -1869 0 0 -1218 1869 0 0 -1442 1432 0 0 -1458 955 0 0 1458 1382 0 0 2660 0 826 0 822 3318 0 0 -1648 -1869 0 0 -2660 0 -2742 0 -99 1932 0 0 -1423 1438 0 0 -2177 1253 0 0 -5624 1510 0 0 1869 1648 0 0 -3317 -822 0 -826 0 -1510 0 0 -2132 5855 0 0 -1402 2804 0 0 -8412 -1366 0 0 -1387 -11894 0 0 1387 -1449 0z"/>
      <path class="fil12" d="M235586 171483c-6775,0 -13146,-2641 -17934,-7433 -4793,-4792 -7433,-11164 -7433,-17939 0,-6779 2640,-13147 7433,-17939 4788,-4793 11159,-7433 17934,-7433 6779,0 13147,2640 17939,7433 4793,4792 7433,11160 7433,17939 0,6775 -2640,13147 -7433,17939 -4792,4792 -11160,7433 -17939,7433zm-16816 -42193c-4491,4495 -6969,10469 -6969,16821 0,6086 2281,11823 6423,16244l33606 -33610c-4421,-4142 -10154,-6419 -16244,-6419 -6352,0 -12321,2474 -16816,6964zm34183 577l-33610 33610c4421,4142 10158,6419 16243,6419 6353,0 12326,-2474 16817,-6968 4494,-4492 6967,-10465 6967,-16817 0,-6090 -2275,-11823 -6417,-16244z"/>
     </g>
     <g>
      <path class="fil4" d="M166010 159873c-21,245 239,418 780,519 413,77 721,187 924,331 291,206 423,505 397,896 -14,332 -164,594 -451,785 -256,167 -566,251 -931,253 -293,0 -564,-76 -809,-227 -263,-161 -456,-384 -581,-671l556 -251c166,367 449,550 845,550 202,0 372,-40 511,-120 153,-90 237,-212 249,-366 12,-189 -65,-333 -237,-430 -125,-69 -327,-126 -603,-168 -834,-127 -1254,-501 -1257,-1122 21,-321 168,-576 440,-766 245,-173 541,-261 891,-263 657,0 1103,268 1336,804l-551 241c-142,-317 -405,-477 -785,-477 -193,0 -355,40 -489,121 -147,90 -225,211 -235,361zm5111 2552c-510,220 -976,283 -1397,189 -487,-107 -730,-410 -730,-907l0 -1824 576 0 0 1835c10,210 135,346 374,410 216,56 419,33 606,-70l0 -2175 571 0 0 2542zm2073 -2988c-367,0 -550,122 -550,367l0 493 519 0 0 576 -519 0 0 1726 -576 0 0 -2795c0,-304 110,-543 330,-718 210,-163 476,-234 796,-214l0 565zm1746 0c-367,0 -551,122 -551,367l0 493 520 0 0 576 -520 0 0 1726 -575 0 0 -2795c0,-304 110,-543 330,-718 209,-163 476,-234 796,-214l0 565zm2270 1321c0,-119 -53,-215 -158,-287 -98,-62 -212,-94 -346,-94 -140,0 -255,33 -345,100 -101,73 -149,170 -146,292l0 263 995 0 0 -274zm471 1342c-209,369 -535,555 -975,557 -290,0 -535,-76 -737,-232 -224,-174 -336,-409 -338,-702l0 -954c0,-298 113,-531 338,-701 200,-154 445,-231 737,-231 286,0 529,77 724,231 224,170 335,403 335,701l0 739 -1550 0 0 215c-3,104 36,193 120,267 73,66 170,107 289,122 276,31 469,-66 576,-289l481 277zm1815 -2217c46,-14 129,-20 248,-20 107,0 210,10 307,30l0 509c-166,-49 -333,-39 -496,31 -186,77 -279,202 -279,373l0 1793 -576 0 0 -1805c0,-377 168,-650 504,-816 67,-35 153,-64 261,-91l31 -4zm1265 -634c0,-105 36,-192 105,-262 71,-70 157,-105 259,-105 107,0 194,35 261,105 70,70 105,157 105,262 0,103 -35,191 -105,263 -71,70 -157,105 -261,105 -101,0 -187,-35 -259,-105 -69,-74 -105,-161 -105,-263zm85 629l0 2721 576 0 0 -2721 -576 0zm1558 185c444,-224 896,-283 1355,-176 513,121 770,427 770,919l0 1793 -573 0 0 -1787c-11,-213 -140,-349 -387,-410 -223,-53 -418,-28 -587,75l0 2122 -578 0 0 -2536zm3484 2697c181,240 423,355 724,343 318,-17 474,-202 471,-556 -353,147 -697,140 -1033,-22 -357,-168 -535,-442 -535,-822l0 -940c0,-496 268,-802 803,-916 497,-105 936,-24 1315,241l0 2511c0,286 -84,517 -256,691 -152,157 -356,255 -608,294 -237,34 -468,8 -692,-79 -236,-91 -415,-229 -534,-413l345 -332zm1175 -2312c-160,-112 -356,-144 -589,-94 -251,56 -377,192 -380,409l0 944c12,211 140,339 380,387 231,47 427,11 589,-104l0 -1542zm1529 1800c0,-109 36,-201 110,-274 69,-74 158,-111 266,-111 107,0 198,37 274,111 73,73 110,165 110,274 0,108 -37,198 -110,271 -74,74 -165,110 -274,110 -108,0 -197,-36 -266,-110 -74,-73 -110,-163 -110,-271zm1669 0c0,-109 36,-201 110,-274 70,-74 159,-111 266,-111 108,0 199,37 274,111 73,73 110,165 110,274 0,108 -37,198 -110,271 -74,74 -165,110 -274,110 -107,0 -196,-36 -266,-110 -74,-73 -110,-163 -110,-271zm1670 0c0,-109 36,-201 109,-274 70,-74 159,-111 267,-111 107,0 198,37 274,111 73,73 110,165 110,274 0,108 -37,198 -110,271 -74,74 -165,110 -274,110 -108,0 -197,-36 -267,-110 -73,-73 -109,-163 -109,-271z"/>
      <g>
       <path class="fil11" d="M189396 142164l-6189 0 0 2542 6189 0 0 -2542zm-1104 6662l-5360 -3094 -1271 2202 5360 3094 1271 -2202zm-4288 5218l-3094 -5359 -2202 1271 3095 5360 2201 -1272zm-6322 2376l0 -6189 -2542 0 0 6189 2542 0zm-6663 -1104l3094 -5360 -2201 -1271 -3094 5360 2201 1271zm-5218 -4288l5360 -3094 -1272 -2202 -5359 3095 1271 2201zm16001 -19474l-3094 5359 2202 1271 3094 -5359 -2202 -1271zm5218 4287l-5359 3095 1271 2201 5360 -3094 -1272 -2202z"/>
       <polygon class="fil13" points="175139,130450 175139,136638 177682,136638 177682,130450 "/>
       <polygon class="fil14" points="168818,132825 171912,138185 174113,136913 171019,131554 "/>
       <polygon class="fil14" points="164530,138043 169890,141137 171161,138936 165801,135842 "/>
       <polygon class="fil11" points="163426,142164 163426,144706 169614,144706 169614,142164 "/>
      </g>
      <path class="fil12" d="M176409 171483c-6775,0 -13146,-2641 -17935,-7433 -4793,-4792 -7433,-11164 -7433,-17939 0,-6779 2640,-13147 7433,-17939 4789,-4793 11160,-7433 17935,-7433 6778,0 13146,2640 17939,7433 4793,4792 7433,11160 7433,17939 0,6775 -2640,13147 -7433,17939 -4793,4792 -11161,7433 -17939,7433zm-16816 -42193c-4491,4495 -6969,10469 -6969,16821 0,6086 2281,11823 6423,16244l33605 -33610c-4421,-4142 -10154,-6419 -16243,-6419 -6353,0 -12322,2474 -16816,6964zm34182 577l-33609 33610c4421,4142 10158,6419 16243,6419 6353,0 12326,-2474 16816,-6968 4494,-4492 6968,-10465 6968,-16817 0,-6090 -2275,-11823 -6418,-16244z"/>
     </g>
     <g>
      <path class="fil7" d="M227281 90451l1145 0 0 2341 -1145 0 0 3580 -2482 0 0 -3580 -6406 0 -1433 -1922 7971 -9966 2350 0 0 9547zm-2371 -4131c235,-1786 361,-2677 375,-2677l-324 0c-825,1432 -1266,2191 -1325,2276l-3450 4532 4679 0 45 -4131zm7591 5629c0,748 358,1322 1069,1727 574,325 1281,486 2113,486 843,0 1550,-161 2125,-486 692,-398 1038,-972 1038,-1727l0 -6288c0,-762 -346,-1344 -1038,-1749 -560,-309 -1267,-464 -2125,-464 -854,0 -1561,155 -2113,464 -704,397 -1061,980 -1069,1749l0 6288zm3182 4661c-1487,0 -2762,-375 -3818,-1122 -1223,-869 -1833,-2051 -1833,-3539l0 -6288c0,-1517 610,-2702 1833,-3560 1042,-747 2316,-1124 3818,-1130 1491,0 2765,375 3829,1130 1208,858 1811,2043 1804,3560l0 6288c0,1488 -600,2670 -1804,3539 -1057,747 -2330,1122 -3829,1122zm17389 -6159l1145 0 0 2341 -1145 0 0 3580 -2482 0 0 -3580 -6406 0 -1432 -1922 7971 -9966 2349 0 0 9547zm-2371 -4131c235,-1786 361,-2677 375,-2677l-323 0c-826,1432 -1267,2191 -1326,2276l-3450 4532 4680 0 44 -4131z"/>
      <path class="fil12" d="M235586 114129c-6774,0 -13146,-2641 -17934,-7433 -4793,-4792 -7433,-11165 -7433,-17939 0,-6779 2640,-13147 7433,-17940 4788,-4792 11160,-7432 17934,-7432 6779,0 13147,2640 17940,7432 4792,4793 7432,11161 7432,17940 0,6774 -2640,13147 -7432,17939 -4793,4792 -11161,7433 -17940,7433zm-16816 -42193c-4491,4494 -6968,10468 -6968,16821 0,6086 2280,11823 6423,16244l33605 -33610c-4421,-4142 -10154,-6419 -16244,-6419 -6352,0 -12321,2474 -16816,6964zm34183 577l-33610 33609c4421,4143 10158,6419 16243,6419 6354,0 12326,-2473 16817,-6968 4494,-4491 6968,-10464 6968,-16816 0,-6090 -2276,-11823 -6418,-16244z"/>
     </g>
     <g>
      <path class="fil11" d="M172469 95784l-2543 0 0 2543 2543 0 0 -2543 2543 0 2543 0 2542 0 0 2543 2543 0 0 -2543 -2543 0 0 -2542 -2542 0 -2543 0 -2543 0 0 2542zm4313 -20072l0 7613 0 2543 2543 0 7540 0 0 15920 -20892 0 0 -26076 10809 0zm2543 7613l0 -7613 2454 0 0 2543 2543 0 0 2542 2543 0 0 2528 -7540 0zm-9399 0l0 -2542 2543 0 0 2542 0 2543 -2543 0 0 -2543zm-6495 -7613l0 26076 0 2543 2542 0 20892 0 1160 0 1383 0 0 -23534 -2543 0 0 -2542 -2543 0 0 -2543 -2543 0 0 -2543 -15806 0 -2542 0 0 2543z"/>
      <path class="fil12" d="M176417 114129c-6777,0 -13150,-2642 -17940,-7435 -4794,-4794 -7435,-11168 -7435,-17944 0,-6781 2641,-13151 7435,-17944 4790,-4794 11163,-7435 17940,-7435 6780,0 13150,2641 17944,7435 4794,4793 7435,11163 7435,17944 0,6776 -2641,13150 -7435,17944 -4794,4793 -11164,7435 -17944,7435zm-16821 -42204c-4492,4495 -6970,10471 -6970,16825 0,6087 2281,11826 6424,16248l33615 -33618c-4422,-4144 -10157,-6421 -16248,-6421 -6355,0 -12325,2474 -16821,6966zm34192 577l-33619 33618c4423,4144 10161,6421 16248,6421 6355,0 12329,-2475 16821,-6970 4495,-4493 6970,-10467 6970,-16821 0,-6092 -2276,-11826 -6420,-16248z"/>
     </g>
    </g>
    <path class="fil3" d="M295690 202327c2806,93 5055,2397 5074,5249l45 0c18,-2852 2266,-5156 5073,-5249 -2818,-94 -5076,-2416 -5077,-5284l-37 0c-2,2868 -2261,5190 -5078,5284z"/>
   </g>
  </g>
 </g>
</svg>
