<?xml version="1.0" encoding="UTF-8"?>
<!DOCTYPE svg PUBLIC "-//W3C//DTD SVG 1.1//EN" "http://www.w3.org/Graphics/SVG/1.1/DTD/svg11.dtd">
<!-- Creator: CorelDRAW X7 -->
<svg xmlns="http://www.w3.org/2000/svg" xml:space="preserve" width="100%" height="100%" version="1.1" style="shape-rendering:geometricPrecision; text-rendering:geometricPrecision; image-rendering:optimizeQuality; fill-rule:evenodd; clip-rule:evenodd"
viewBox="0 0 33132 22946"
 xmlns:xlink="http://www.w3.org/1999/xlink">
 <defs>
  <style type="text/css">
   <![CDATA[
    .fil0 {fill:none}
    .fil24 {fill:#DABA76}
    .fil3 {fill:#DBE8FF}
    .fil2 {fill:#E4EDFF}
    .fil1 {fill:#EAF2FF}
    .fil14 {fill:#D5A767;fill-rule:nonzero}
    .fil17 {fill:#DABA76;fill-rule:nonzero}
    .fil4 {fill:#8DA0D1;fill-rule:nonzero}
    .fil6 {fill:#2195CA;fill-rule:nonzero}
    .fil5 {fill:#2F8AA1;fill-rule:nonzero}
    .fil23 {fill:#45487A;fill-rule:nonzero}
    .fil11 {fill:#564D72;fill-rule:nonzero}
    .fil13 {fill:#5C56A2;fill-rule:nonzero}
    .fil9 {fill:#6E6E6E;fill-rule:nonzero}
    .fil7 {fill:#79C9F0;fill-rule:nonzero}
    .fil12 {fill:#8480BC;fill-rule:nonzero}
    .fil21 {fill:#A8A8A8;fill-rule:nonzero}
    .fil16 {fill:#BF7D31;fill-rule:nonzero}
    .fil20 {fill:#DADAFF;fill-rule:nonzero}
    .fil10 {fill:#E3C07B;fill-rule:nonzero}
    .fil8 {fill:#E6E9FF;fill-rule:nonzero}
    .fil19 {fill:#F6C96B;fill-rule:nonzero}
    .fil22 {fill:#FCA30B;fill-rule:nonzero}
    .fil15 {fill:#FCE9CA;fill-rule:nonzero}
    .fil18 {fill:white;fill-rule:nonzero}
   ]]>
  </style>
 </defs>
 <g id="Layer_x0020_1">
  <metadata id="CorelCorpID_0Corel-Layer"/>
  <rect class="fil0" width="33132" height="22946"/>
  <g id="_2565894188912">
   <circle class="fil1" transform="matrix(-0.475607 -0.414232 0.414232 -0.475607 24769.4 13365.7)" r="9796"/>
   <circle class="fil2" transform="matrix(-0.173693 -0.151279 0.151279 -0.173694 26752.7 4103.9)" r="9796"/>
   <circle class="fil3" transform="matrix(0.786757 -0.685231 -0.68523 -0.786758 12404.6 11473)" r="9796"/>
   <circle class="fil1" transform="matrix(0.593069 -0.516537 -0.516537 -0.59307 11039.4 12894.2)" r="9796"/>
   <g>
    <path class="fil4" d="M18841 9635c0,0 -846,440 -1417,636 -520,178 -919,255 -987,267l-10 2c0,0 -119,84 -331,220 -22,0 -45,1 -70,3l0 0c-118,-48 -619,28 -1044,161 -804,-289 -4302,988 -3609,1539 -629,93 -3110,1140 -2375,1502 0,0 -1154,484 -1332,999 -161,465 834,275 1059,227 321,-68 618,-186 963,-342 828,-375 2387,-1110 3921,-1847 545,-261 890,-552 1475,-515 1007,64 2539,-354 3250,-867 419,-303 806,-779 1027,-1219 412,-820 74,-933 -520,-766z"/>
    <path class="fil5" d="M8127 12943c7,0 16,-1 27,-4 -59,-6 -112,-18 -159,-38 53,27 98,42 132,42z"/>
    <path class="fil5" d="M16877 5570c544,-365 1200,-640 1608,-378 60,38 108,97 143,171 0,-1 0,-1 0,-1 -34,-155 -709,-677 -811,-742 -253,-162 -601,-118 -958,26 145,198 181,532 18,924z"/>
    <path class="fil5" d="M16780 4560l0 0c-74,-320 -553,-609 -999,-596 59,225 88,502 100,822 334,-378 684,-409 899,-226z"/>
    <path class="fil6" d="M7729 11348c460,-1737 1744,-2235 1744,-2235 -227,-680 511,-1932 1087,-2405 988,-813 1313,-863 1856,-523 7,-877 1162,-2367 1925,-2680 567,-233 928,-229 1158,-44 0,-1 0,-1 -1,-1 -195,-422 -1052,-843 -1825,-527 -763,313 -1918,1804 -1924,2680 -544,-339 -869,-290 -1857,523 -576,474 -1313,1726 -1087,2405 0,0 -1284,498 -1743,2236 -146,551 -159,1061 24,1349 72,114 480,500 779,698 -295,-243 -306,-831 -136,-1476z"/>
    <path class="fil7" d="M18628 5362c-35,-73 -83,-132 -143,-170 -408,-262 -1065,13 -1608,378 163,-392 127,-726 -18,-924 -24,-33 -50,-61 -79,-86 -215,-183 -565,-152 -899,226 -12,-320 -41,-597 -100,-822 -59,-224 -148,-395 -282,-503 -230,-185 -591,-189 -1158,44 -763,313 -1918,1803 -1925,2680 -543,-340 -868,-290 -1856,523 -576,473 -1314,1725 -1087,2405 0,0 -1285,498 -1744,2236 -170,644 -159,1232 136,1475 38,32 81,58 130,77 48,20 100,32 159,38 24,3 48,4 74,4 520,-13 9496,-5124 10017,-5765 405,-478 589,-1393 383,-1816z"/>
    <path class="fil8" d="M16095 6620c0,99 -65,213 -145,253l-6810 3446c-80,40 -144,-8 -144,-107 0,-100 64,-213 144,-253l6810 -3445c80,-41 145,7 145,106z"/>
    <path class="fil8" d="M17202 5098c0,100 -64,213 -144,253l-6810 3446c-80,40 -145,-8 -145,-107 0,-99 65,-213 145,-253l6810 -3445c80,-41 144,7 144,106z"/>
    <path class="fil8" d="M16095 7476c0,99 -65,212 -145,253l-6810 3445c-80,40 -144,-8 -144,-107 0,-99 64,-212 144,-253l6810 -3445c80,-40 145,7 145,107z"/>
    <path class="fil9" d="M19691 5871c107,-684 130,-1218 133,-1282 -1,61 -16,578 -116,1242 -6,13 -12,26 -17,40z"/>
    <path class="fil10" d="M17223 10509c0,0 -1340,-312 -1609,-1541 -186,-855 -118,-2398 -118,-2398 0,0 911,-221 1419,-663 507,-441 834,-834 834,-834 0,0 325,175 807,115 482,-58 1269,-605 1269,-605 0,0 -1,2 -1,6 -3,64 -26,598 -133,1282 -65,409 -159,873 -296,1321 -715,2333 -2172,3317 -2172,3317z"/>
    <path class="fil11" d="M17268 4185c66,30 457,200 1012,128 609,-79 1602,-765 1602,-765 0,0 443,38 519,269 -92,62 -617,412 -1113,615 3,-52 3,-87 3,-101 0,14 -2,49 -5,102 -167,69 -331,121 -473,139 -610,79 -1022,-133 -1022,-133 0,0 -3,4 -11,13l-512 -267z"/>
    <path class="fil12" d="M14946 6338c0,-12 0,-19 0,-19 0,0 1152,-285 1793,-837 580,-501 973,-951 1041,-1030 8,-9 11,-13 11,-13 0,0 412,212 1021,133 143,-18 307,-70 474,-139 1,0 1,0 2,-1 496,-203 1021,-553 1113,-615 9,-5 14,-9 14,-9 0,0 -1,35 -4,99 0,0 0,0 0,1 -18,382 -109,1808 -533,3128 -963,2994 -2737,4125 -2737,4125 0,0 -510,-73 -1024,-394 -416,-260 -835,-681 -988,-1359 -225,-993 -188,-2860 -183,-3070zm668 2630c269,1230 1610,1541 1610,1541 0,0 1456,-984 2171,-3317 151,-462 249,-941 313,-1361 100,-664 115,-1181 116,-1242 0,-4 1,-6 1,-6 0,0 -787,547 -1269,605 -482,60 -807,-115 -807,-115 0,0 -327,393 -834,834 -508,442 -1419,664 -1419,664 0,0 -68,1542 118,2397z"/>
    <path class="fil13" d="M17268 4185l512 267c-68,79 -461,529 -1041,1030 -641,552 -1793,837 -1793,837 0,0 0,7 0,19l-533 -277 0 -1c0,0 1152,-286 1793,-838 640,-552 1052,-1042 1052,-1042l10 5z"/>
    <path class="fil11" d="M16117 10767c-521,-192 -1299,-637 -1521,-1619 -235,-1039 -184,-3035 -183,-3087l533 277c-5,210 -42,2077 183,3070 153,678 572,1099 988,1359z"/>
    <polygon class="fil13" points="19048,5564 17310,7499 18088,7505 16694,9763 18983,7056 18325,7054 "/>
    <path class="fil14" d="M21574 9982c-71,39 -78,62 -139,127 -123,-330 -403,-495 -755,-547 -361,-53 -660,138 -1022,22 234,265 447,351 788,361 -191,192 -501,437 -756,554 -230,101 -441,31 -678,40l-28 -153c52,-9 103,-21 152,-36 309,-85 394,-202 607,-415 -277,42 -367,10 -559,-245 -123,-165 -133,-373 -186,-575 244,117 436,213 724,170 571,-96 1763,-101 1852,697z"/>
    <path class="fil15" d="M18609 11678l0 0 1051 -602 -1051 602zm996 -699c-192,-128 -554,-192 -639,-437 15,-1 31,-2 46,-3 237,-9 448,61 678,-40 255,-117 565,-362 756,-554 -341,-10 -554,-95 -788,-361 362,116 661,-75 1022,-22 352,52 624,174 747,504l0 0c3,8 6,17 9,25 -58,54 -91,100 -106,195 -21,107 43,64 -43,139 -42,43 -148,63 -201,85 -160,74 -465,517 -603,613 -266,192 -346,36 -601,228 -75,64 -170,96 -202,214 -32,106 53,170 53,277 0,244 -405,436 -629,436 -95,0 -213,-117 -266,-106 -103,20 -175,287 -229,383l0 -497 0 0c-167,-99 -479,-148 -517,-270 -64,-213 192,-223 213,-383 33,-224 -362,-352 -500,-437 277,-149 713,0 990,85 267,85 565,75 810,-74z"/>
    <path class="fil4" d="M15461 15837c213,-30 600,-138 749,-122l24 -6c-29,-33 -73,-60 -284,-36 -127,13 -281,50 -421,71 -183,29 -241,24 -395,36 -55,54 88,89 327,57z"/>
    <path class="fil4" d="M13525 16554c-210,40 -421,77 -577,74 -26,56 102,64 355,22 229,-39 404,-103 610,-147 -75,-15 -251,26 -388,51z"/>
    <path class="fil4" d="M19614 15092c-48,17 -88,31 -123,44 -4,-1 -9,-3 -12,-4l135 -40zm1781 -234c-147,27 -295,55 -421,83 333,-15 720,-38 954,-9 6,-16 18,-30 34,-44l3 56 -627 50 0 1 -260 22 -754 225 -12 -292c334,-8 756,-78 1083,-92zm6094 -1244l-1 1 -260 22 -726 217 -23 -558 -1915 576c-73,1 -99,-16 -198,-13 -190,7 -443,55 -653,106 -294,64 -399,112 -674,123 -191,7 -298,-25 -342,-57 4,88 112,125 409,137 -296,-8 -865,119 -1159,182 -743,159 -1286,209 -1774,216 174,93 599,102 1253,19 -358,71 -654,107 -1011,174 -379,71 -590,115 -866,106 88,52 301,75 547,83l-424 126c-69,-96 -991,5 -1467,78 -351,55 -645,132 -981,206 -379,82 -633,106 -956,136 72,38 87,88 252,99 255,16 374,2 739,-77 -279,106 -390,157 -796,254 -65,16 -132,32 -201,47 -185,42 -382,81 -556,112 -295,53 -395,26 -648,65 58,51 313,46 581,26 -212,29 -422,74 -618,108 -225,39 -422,60 -647,100 -421,76 -826,195 -1189,301 295,-47 604,-92 886,-123 169,-18 351,-44 409,-18 72,22 -25,78 61,97 114,30 425,11 679,-9 169,-13 591,-68 564,-17 3,-2 5,-3 8,-4l10 245 -912 272 36 851 317 -24 0 2 5 -1 5 -2 3396 -41 2272 -1590 10 186 2461 323 4608 -2603 0 -589 -511 130z"/>
    <polygon class="fil10" points="23326,11192 23326,14961 18649,17757 18649,17174 18649,17149 18649,14355 18649,14338 18832,14233 21073,12939 21084,12932 21248,12397 21250,12389 22088,11906 22792,11500 22831,11477 23170,11282 "/>
    <polygon class="fil16" points="22975,11174 22831,11258 22807,11272 22643,11367 22643,11012 22661,11002 22819,11089 22831,11095 "/>
    <polygon class="fil17" points="22643,11012 22643,11367 22060,11705 22060,11349 "/>
    <polygon class="fil14" points="22088,11906 22088,11906 22088,11906 21250,12389 21248,12397 21057,12287 22060,11705 22060,11705 22643,11367 22807,11272 22831,11258 22975,11174 22831,11095 22819,11089 22661,11002 22643,11012 22060,11349 22060,11130 22634,10797 22831,10904 22831,10903 23330,11184 23326,11192 23170,11282 22831,11477 22792,11500 "/>
    <path class="fil18" d="M18854 12688c213,259 383,-424 136,-227 -104,32 -213,124 -136,227zm3206 -1339l0 356 -1003 582 -198 529 -2250 1288 0 -571 0 -978c54,-96 126,-363 229,-383 53,-11 171,106 266,106 224,0 629,-192 629,-436 0,-107 -85,-171 -53,-277 32,-118 127,-150 201,-214 256,-192 336,-36 602,-228 138,-96 443,-539 603,-613 52,-22 159,-43 201,-85 86,-75 14,-35 35,-141 21,-134 138,-238 252,-302l486 -278 0 1426 0 219zm-1442 -43c-59,48 -102,125 -86,216 185,15 295,-283 86,-216zm-455 133l1 3c-112,32 -399,272 -304,400 176,255 464,-240 448,-400 -44,-15 -89,-16 -145,-3zm1390 -1004c-71,131 -26,308 193,192 296,-148 -39,-432 -191,-195 -1,1 -1,2 -2,3z"/>
    <path class="fil14" d="M21555 10432c152,-237 486,47 191,195 -219,116 -264,-61 -193,-192 1,-1 1,-2 2,-3z"/>
    <polygon class="fil16" points="21248,12397 21084,12932 21073,12939 20859,12816 21057,12287 "/>
    <polygon class="fil14" points="18609,14104 20859,12816 21073,12939 18832,14233 18649,14338 18649,14355 18642,14351 18410,14218 18411,14217 18154,14069 18154,14068 17914,13930 18609,13533 18609,13788 18322,13953 18603,14108 "/>
    <path class="fil14" d="M20618 11306c209,-67 99,231 -86,216 -16,-91 27,-167 86,-216z"/>
    <path class="fil14" d="M20308 11442c16,160 -272,655 -448,400 -95,-128 192,-368 304,-400l-1 -3c56,-13 101,-12 145,3z"/>
    <path class="fil14" d="M18966 10542c85,245 447,309 639,437 -245,149 -543,159 -810,74 -277,-85 -713,-234 -991,-85 139,85 533,213 501,437 -21,160 -277,170 -213,383 38,122 350,171 517,270l0 497c-2,4 -4,7 -6,10 22,-180 -298,-276 -425,-351 -192,-106 -426,-266 -511,-469 -64,-138 10,-287 -43,-426 -43,-149 -181,-181 -309,-234 -213,-85 -447,-138 -671,-170 277,-149 585,-320 905,-309 171,10 319,74 490,85 149,11 309,-11 469,32 -203,-117 -394,-287 -437,-532 192,32 266,212 490,223 133,8 281,-1 423,-28l28 153c-15,1 -31,2 -46,3z"/>
    <path class="fil14" d="M18990 12461c247,-197 77,486 -136,227 -78,-103 32,-195 136,-227z"/>
    <path class="fil14" d="M18966 9935l-18 9c-113,-174 -407,-33 -568,-73 -181,-53 -288,-298 -245,-469 117,64 160,128 298,150 107,21 224,-11 320,32 160,64 192,201 213,351z"/>
    <polygon class="fil16" points="18649,17174 18649,17757 18161,17466 18160,17465 18154,17461 17914,17318 17914,13930 18154,14068 18154,14069 18411,14217 18410,14218 18642,14351 18649,14355 18649,17149 "/>
    <polygon class="fil17" points="18609,13788 18609,14104 18603,14108 18322,13953 "/>
    <polygon class="fil19" points="18161,17466 18158,17467 18154,17470 18154,17461 18160,17465 "/>
    <path class="fil14" d="M16900 11266c103,0 237,-31 293,87 -156,22 -290,145 -464,126 -192,-21 -287,-149 -266,-351 117,127 277,138 437,138z"/>
    <path class="fil20" d="M19279 12647c824,-510 1648,-1019 2472,-1529 69,-43 5,-154 -65,-110 -824,509 -1647,1019 -2471,1529 -70,43 -6,153 64,110z"/>
    <path class="fil20" d="M19355 13189c823,-510 1647,-1019 2471,-1529 70,-43 6,-154 -65,-110 -824,509 -1647,1019 -2471,1529 -70,43 -6,153 65,110z"/>
    <path class="fil13" d="M21980 12814c95,-63 193,-114 294,-151 -11,158 -18,313 -41,477 -3,0 -5,1 -7,1 -61,16 -122,43 -182,79 -10,-142 -48,-267 -64,-406z"/>
    <path class="fil13" d="M21676 13299c-49,-22 -103,-38 -159,-49 120,-153 257,-289 405,-396 16,139 55,262 65,405 -62,45 -120,101 -175,163 -43,-45 -77,-96 -136,-123z"/>
    <path class="fil13" d="M21522 13635c-79,-6 -162,-4 -246,2 55,-113 120,-220 193,-321 71,12 141,29 198,67 38,26 65,64 96,98 -42,54 -80,112 -114,172 -37,-16 -88,-15 -127,-18z"/>
    <path class="fil13" d="M21339 13957c-70,26 -140,52 -209,72 28,-109 66,-218 113,-324 74,-5 147,-9 217,-4 34,3 114,-3 153,19 -30,60 -49,121 -63,183 -71,19 -138,28 -211,54z"/>
    <path class="fil13" d="M21270 14264c-65,35 -129,71 -192,100 6,-65 11,-127 20,-184 5,-28 10,-56 17,-84 71,-21 144,-49 218,-75 70,-25 136,-35 204,-53 -11,62 -18,123 -24,180 -82,40 -162,71 -243,116z"/>
    <path class="fil13" d="M21056 14556c7,-44 12,-87 16,-130 50,-22 100,-49 152,-77 94,-52 187,-89 281,-136 -10,76 -20,152 -34,229 -143,64 -281,96 -415,114z"/>
    <path class="fil13" d="M21382 14798c-145,58 -285,73 -407,54 33,-74 55,-152 70,-229 133,-19 271,-52 414,-114 -10,54 -22,109 -37,165 -10,41 -24,82 -40,124z"/>
    <path class="fil13" d="M20870 15202c-33,-23 -62,-49 -87,-80 39,-41 74,-82 104,-121 20,-25 37,-52 53,-80 124,19 265,5 412,-50 -64,144 -155,287 -260,419 -84,0 -162,-46 -222,-88z"/>
    <path class="fil13" d="M20575 15308c52,-38 104,-83 152,-130 37,47 83,85 135,110 55,28 109,60 174,68 -107,124 -227,236 -349,328 -51,-115 -108,-226 -112,-376z"/>
    <path class="fil13" d="M20323 15412c1,0 2,0 3,0 -26,93 -61,187 -76,278 -13,77 -22,152 -26,225 -57,12 -112,15 -163,10 -237,-28 26,-540 262,-513z"/>
    <path class="fil13" d="M20302 15703c16,-98 50,-195 77,-295 42,-9 89,-30 137,-61 6,150 61,263 112,379 -118,80 -236,141 -346,173 2,-63 8,-129 20,-196z"/>
    <path class="fil13" d="M22331 12644c19,-6 38,-11 57,-16 249,-63 132,365 -97,488 23,-162 30,-316 40,-472z"/>
    <path class="fil14" d="M23065 10490c149,-21 170,-181 96,-277 -86,-96 -299,-117 -405,-160 -224,-85 -394,-223 -469,-468 84,107 188,145 301,145 304,0 676,-275 924,-252 -138,0 -347,-105 -449,-237 -24,-30 -42,-62 -52,-93 246,127 586,159 842,85 234,-75 468,-255 714,-170 -75,-85 -192,-171 -160,-299 117,118 245,64 383,75 115,11 241,62 346,114l159 -93c-55,-49 -73,-137 -148,-197 -144,-112 -335,-112 -495,-64 -224,32 -304,144 -512,-16 -143,-112 -223,-319 -255,-479 0,351 80,575 303,847 -222,-255 -655,-176 -878,-144 -565,79 -975,-128 -1343,-463 128,495 448,846 943,1006 -271,16 -495,-64 -767,-64 -287,0 -447,16 -655,-223 80,335 304,639 544,878 255,240 591,272 846,464 -112,0 -223,0 -319,16 252,188 580,426 756,713 5,-55 -7,-143 6,-185l-16 -364c-93,-2 -177,-17 -240,-95z"/>
    <path class="fil14" d="M24716 9830c-36,-18 -57,-16 -79,-6 -1,1 -1,1 -2,2 0,0 0,0 -1,0 -42,32 -80,75 -94,131 96,32 160,-16 176,-127z"/>
    <path class="fil14" d="M25067 9270l-2 -2c-74,77 -142,200 -62,258 256,208 352,-543 64,-256z"/>
    <path class="fil15" d="M23773 10549c48,-33 160,-64 192,-144 32,-112 -96,-128 -96,-208 32,-128 128,-208 239,-288 224,-159 592,-223 720,-479 63,-144 11,-187 139,-314 47,-48 112,-108 178,-156l-3 -4c-2,-1 -4,-2 -6,-3 -105,-52 -230,-103 -346,-114 -138,-11 -266,43 -383,-75 -32,128 85,214 160,299 -246,-85 -480,95 -714,170 -256,74 -596,42 -842,-85 10,32 28,63 52,94 102,131 311,236 449,236 -249,-23 -620,252 -924,252 -113,0 -217,-38 -301,-145 75,244 245,383 469,468 106,43 319,64 405,160 74,96 53,256 -96,277 62,78 148,93 240,95l0 361c67,-224 239,-277 468,-397z"/>
    <polygon class="fil10" points="27505,10589 27466,10612 26783,11006 25925,11501 25922,11509 25759,12044 25747,12051 23506,13346 23324,13450 23324,13468 23324,16261 23324,16286 23324,16869 28000,14073 28000,10304 27844,10394 "/>
    <polygon class="fil16" points="27482,10384 27505,10370 27650,10286 27505,10207 27493,10201 27335,10114 27318,10124 27318,10479 "/>
    <polygon class="fil14" points="27506,10015 27505,10016 27309,9909 26756,10230 26756,10449 27318,10124 27335,10114 27493,10201 27505,10207 27650,10286 27505,10370 27481,10384 27318,10479 26756,10805 25731,11399 25922,11509 25925,11501 26783,11006 27466,10612 27505,10589 27844,10394 28000,10304 28005,10296 "/>
    <polygon class="fil17" points="27318,10479 27318,10124 26756,10449 26756,10805 "/>
    <path class="fil18" d="M24634 9826c1,0 1,0 1,0 1,-1 1,-1 2,-2 22,-11 43,-12 79,6 -16,111 -80,159 -176,127 14,-56 52,-99 94,-131zm431 -558l2 2c288,-287 192,464 -64,256 -80,-58 -12,-181 62,-258zm-1760 3936l2228 -1276 198 -529 1025 -594 0 -356 0 -219 0 -2222 -1461 852 -159 93c2,1 4,2 6,3l3 4c-66,48 -131,108 -178,156 -128,127 -76,170 -140,314 -127,256 -495,320 -719,479 -111,80 -207,160 -239,288 0,80 128,96 96,208 -32,80 -144,111 -192,144 -229,120 -401,173 -468,397l0 1687 0 255 0 316z"/>
    <polygon class="fil16" points="25747,12051 25759,12044 25922,11509 25731,11399 25533,11928 "/>
    <polygon class="fil16" points="23324,16261 23324,13468 23316,13463 23084,13330 23085,13330 22828,13181 22828,13180 22589,13043 22589,16430 22828,16573 22835,16577 22836,16578 23324,16869 23324,16286 "/>
    <polygon class="fil17" points="22997,13066 23277,13220 23305,13204 23305,12888 "/>
    <polygon class="fil14" points="22828,13181 23085,13330 23084,13330 23316,13463 23324,13468 23324,13450 23506,13346 25747,12051 25533,11928 23305,13204 23277,13220 22997,13066 23305,12888 23305,12633 22589,13043 22828,13180 "/>
    <polygon class="fil19" points="22828,16573 22828,16582 22832,16579 22836,16578 22835,16577 "/>
    <path class="fil20" d="M23864 11147c823,-510 1647,-1019 2471,-1529 70,-43 6,-154 -65,-110 -823,509 -1647,1019 -2471,1528 -70,44 -6,154 65,111z"/>
    <path class="fil20" d="M23864 11693c823,-510 1647,-1019 2471,-1529 70,-44 6,-154 -65,-111 -823,510 -1647,1020 -2471,1529 -70,44 -6,154 65,111z"/>
    <path class="fil20" d="M23902 12278c823,-510 1647,-1020 2471,-1529 70,-44 6,-154 -65,-111 -823,510 -1647,1020 -2471,1529 -70,44 -6,154 65,111z"/>
    <path class="fil13" d="M26359 13226c-24,110 -127,218 -229,242 -102,24 -165,-45 -140,-155 24,-109 127,-217 229,-242 102,-24 165,46 140,155zm-472 567c-25,46 -61,-7 -112,20 -52,26 -76,101 -112,109 -36,8 76,-327 118,-352 42,-25 130,177 106,223zm-428 32c-102,93 -204,104 -229,22 -24,-81 39,-223 141,-317 102,-93 205,-104 229,-22 25,81 -39,223 -141,317zm1135 -644c24,-98 36,-195 36,-288 0,-513 -380,-709 -849,-439 -469,271 -849,906 -849,1419 0,98 14,185 40,259 81,54 198,-16 311,-28 161,-13 180,145 192,322 38,-6 77,-15 117,-28l0 -124 64 -37 0 137c25,-11 51,-23 77,-36l0 -146 64 -36 0 147c25,-16 50,-32 75,-49l0 -141 63 -37 0 132c41,-32 80,-66 118,-102 13,-177 39,-344 190,-506 133,-139 272,-206 350,-419l1 0 0 0z"/>
    <path class="fil13" d="M25053 14969c-83,3 -122,-80 -88,-184 18,-55 54,-106 96,-142 -16,-33 -17,-80 0,-132 34,-104 129,-190 212,-194 82,-2 123,102 115,196 106,3 241,5 373,4 140,-161 286,-332 400,-467 -7,-85 33,-235 116,-328 82,-93 177,-116 211,-51 18,32 16,80 0,132 42,-13 78,-3 96,31 35,65 -5,192 -87,285 -80,89 -200,116 -259,96 -83,88 -180,192 -276,296 89,-6 176,-14 249,-21 59,-92 169,-211 246,-213 82,-3 121,79 86,183 -18,56 -53,107 -95,142 13,33 13,76 -4,125 -34,104 -128,191 -211,194 -73,2 -124,-96 -107,-188 -104,-4 -238,-7 -366,-1 -119,133 -240,275 -337,391 18,72 -33,228 -107,311 -82,92 -177,115 -211,50 -16,-30 -16,-74 -3,-121 -42,13 -78,3 -96,-32 -34,-64 4,-191 87,-283 76,-86 186,-94 246,-71l0 0c64,-68 139,-147 217,-232 -86,7 -171,14 -245,21 -59,88 -179,200 -258,203z"/>
    <path class="fil16" d="M10303 10545c-12,45 -252,900 -251,1152 1,472 168,804 436,960 337,195 673,391 1009,587 -3,-2 -7,-5 -11,-7 -3,-2 -6,-4 -9,-6 -10,-6 -19,-12 -29,-19 -2,-2 -5,-4 -8,-6 -8,-5 -15,-11 -23,-17 -2,-2 -5,-4 -7,-5 -18,-15 -35,-30 -52,-47 -5,-4 -10,-9 -14,-13 -6,-6 -12,-13 -18,-19 -10,-11 -20,-23 -29,-34 -4,-4 -7,-9 -10,-13 -7,-8 -13,-16 -19,-24 -11,-16 -22,-32 -32,-48 -6,-9 -11,-18 -16,-27 -2,-3 -3,-5 -5,-7 -6,-11 -12,-22 -18,-33 -1,-3 -2,-5 -3,-7 -7,-12 -13,-25 -18,-37 -1,-2 -2,-5 -3,-7 -5,-11 -11,-23 -15,-36 -7,-17 -14,-34 -20,-52 -5,-14 -10,-28 -14,-42 -6,-22 -12,-43 -18,-65 -3,-14 -6,-27 -9,-41 0,-1 -1,-1 -1,-2 -3,-15 -6,-29 -8,-45 -5,-22 -8,-46 -11,-69 -3,-16 -4,-32 -6,-48 0,-1 -1,-3 -1,-4 -1,-19 -3,-38 -4,-57 -2,-20 -3,-39 -3,-59l0 -5c-1,-19 -2,-39 -2,-59 0,-253 239,-1107 251,-1152l-1009 -587z"/>
    <g>
     <path class="fil15" d="M11312 11132c-12,45 -251,899 -250,1152 0,20 0,40 1,59l0 5c0,20 1,39 3,59 1,19 3,38 4,57 1,1 1,3 1,4 2,16 3,32 6,48 3,23 6,47 11,69 2,15 5,30 8,45 0,1 1,1 1,2 3,14 6,27 9,41 6,22 12,43 18,65 4,14 9,28 14,42 6,17 13,35 20,52 4,12 10,24 15,36 1,2 2,5 3,7 6,12 11,25 18,37 1,2 2,4 4,7 5,11 11,22 17,33 2,2 3,4 5,7 5,9 10,18 16,27 10,16 21,32 32,48 6,8 12,16 19,24 3,5 6,9 10,13 9,11 19,23 29,34 6,6 12,13 18,19 4,4 9,9 14,13 17,17 34,32 52,47 2,1 5,3 7,5 8,6 15,12 23,17 3,2 6,4 8,6 10,7 19,13 29,19 3,2 6,4 9,6 273,165 653,145 1074,-97 825,-477 1491,-1632 1489,-2581 -2,-404 -203,-765 -214,-784 -19,11 -389,216 -786,440 0,7 1,14 1,22 1,277 -194,615 -435,754 -71,41 -137,60 -196,60 -6,0 -11,0 -16,0 -5,-1 -10,-1 -16,-1 -5,-1 -10,-2 -15,-3 -3,0 -7,-1 -10,-2 -2,0 -5,-1 -7,-2 -4,-1 -8,-2 -11,-3 -4,-2 -7,-3 -11,-4 -11,-5 -23,-10 -34,-17l0 0 -217 -126 0 0 0 0 -130 -75c-331,167 -621,305 -640,314zm770 -239c-24,525 355,438 565,328 321,-170 509,-692 509,-927 0,-6 564,-295 580,-304 9,16 133,401 134,745 2,805 -611,1897 -1311,2302 -700,404 -1316,74 -1318,-732 -1,-214 184,-1055 194,-1093 19,-9 296,-136 647,-319l-130 -75c74,-38 150,-77 226,-117 -1,14 -2,27 -2,40 1,135 47,231 123,278l-217 -126z"/>
    </g>
    <path class="fil14" d="M12468 11948c0,54 18,91 47,110l-37 365 -53 506 442 -262 1 0 -104 -742 -1 -3c33,-56 53,-118 53,-174 0,-111 -78,-156 -174,-101 -47,28 -89,74 -121,126 -32,56 -53,119 -53,175zm-386 -1055c-24,525 355,438 565,328 321,-170 509,-692 509,-927 0,-6 564,-295 580,-304 9,16 133,401 134,745 2,805 -611,1898 -1311,2302 -700,404 -1316,74 -1319,-732 0,-214 185,-1055 195,-1093 19,-9 296,-136 647,-319l0 3c0,-1 0,-2 0,-3z"/>
    <path class="fil21" d="M11297 13071c-4,-4 -7,-9 -10,-13 3,4 6,9 10,13z"/>
    <path class="fil16" d="M11635 10386l543 315c-1,14 -2,27 -2,40 0,135 47,231 123,278 11,7 22,12 34,17 4,1 7,2 11,4 3,1 7,2 11,3 2,1 4,1 7,2 3,1 7,2 10,2 5,1 10,2 15,2 5,1 11,1 16,2 5,0 10,0 16,0 59,0 125,-19 196,-60 241,-139 436,-477 435,-754 0,-8 -1,-15 -1,-22l-1009 -587c0,7 1,15 1,22 1,266 -178,587 -406,736z"/>
    <path class="fil17" d="M12040 9628l1009 587c397,-224 767,-429 786,-440l-593 -345c-1,89 -2,158 -2,198 0,0 25,180 -208,198 -260,21 -280,-172 -280,-172 0,-63 3,-236 6,-428 -127,71 -415,231 -718,402z"/>
    <path class="fil22" d="M12082 10893l0 3c0,-1 0,-2 0,-3l0 0z"/>
    <path class="fil21" d="M12362 11045c-3,-1 -5,-1 -7,-2 2,1 5,2 7,2z"/>
    <polygon class="fil23" points="12478,12423 12425,12929 12867,12667 "/>
    <path class="fil13" d="M12515 12058l-37 365 389 244 1 -1 -104 -741 -243 -152c-33,56 -53,119 -53,175 0,53 18,91 47,110z"/>
    <path class="fil23" d="M12521 11773l243 152 -1 -3c33,-55 53,-118 53,-174 0,-111 -78,-156 -174,-101 -47,28 -89,73 -121,126z"/>
    <path class="fil24" d="M10303 10545l1009 587c158,-77 317,-153 473,-231 132,-65 262,-133 393,-200l-1005 -588 -870 432z"/>
    <path class="fil16" d="M10826 9188c0,0 -22,748 -31,1117l0 0 0 0c-3,90 -4,157 -4,186 -1,148 91,310 394,251 137,-27 161,-185 163,-276l-3 -65c0,-55 0,-117 1,-183l-59 -35 59 35c2,-376 10,-877 10,-877 0,-454 223,-913 543,-1110l293 -181c511,-316 579,12 579,466 0,0 -8,383 -13,710l28 -16 -28 16c-3,192 -6,364 -6,428 0,0 20,193 280,172 233,-18 208,-198 208,-198 0,-40 1,-109 2,-198l0 0c8,-452 30,-1401 30,-1401 0,-639 -448,-931 -1002,-655l-505 254c-553,277 -939,922 -939,1560zm1999 0l1 0 0 0 -1 0z"/>
    <path class="fil4" d="M12464 13623c479,-222 546,-194 549,-125 0,0 -3,61 -6,113 -114,52 -368,166 -639,289l-30 -219 126 -58zm1563 -293l-562 148c3,-72 17,-224 17,-224 -6,-98 -430,9 -950,239l-208 92 -33 -245c-4,-27 -59,-28 -149,-7 -24,5 -51,12 -79,21 -21,6 -42,13 -64,20 -15,3 -31,6 -48,10l-4 1 -68 18c-108,32 -245,84 -393,152l-4836 2216c-178,82 -400,229 -570,358 -395,301 -579,788 139,638 727,-154 1794,-741 2493,-1062l1769 -813c-3,6 -5,11 -4,14 5,72 164,66 419,-1 318,-84 637,-168 956,-252 -4,1 -7,2 -11,3 259,-67 617,-199 1011,-379 774,-353 1393,-755 1383,-899 -5,-62 -198,-49 -208,-48z"/>
   </g>
  </g>
 </g>
</svg>
