<?xml version="1.0" encoding="UTF-8"?>
<!DOCTYPE svg PUBLIC "-//W3C//DTD SVG 1.1//EN" "http://www.w3.org/Graphics/SVG/1.1/DTD/svg11.dtd">
<!-- Creator: CorelDRAW X7 -->
<svg xmlns="http://www.w3.org/2000/svg" xml:space="preserve" width="100%" height="100%" version="1.1" style="shape-rendering:geometricPrecision; text-rendering:geometricPrecision; image-rendering:optimizeQuality; fill-rule:evenodd; clip-rule:evenodd"
viewBox="0 0 33132 22946"
 xmlns:xlink="http://www.w3.org/1999/xlink">
 <defs>
  <style type="text/css">
   <![CDATA[
    .fil0 {fill:none}
    .fil23 {fill:#DABA76}
    .fil2 {fill:#DBE8FF}
    .fil1 {fill:#EAF2FF}
    .fil13 {fill:#D5A767;fill-rule:nonzero}
    .fil16 {fill:#DABA76;fill-rule:nonzero}
    .fil3 {fill:#8DA0D1;fill-rule:nonzero}
    .fil5 {fill:#2195CA;fill-rule:nonzero}
    .fil4 {fill:#2F8AA1;fill-rule:nonzero}
    .fil22 {fill:#45487A;fill-rule:nonzero}
    .fil10 {fill:#564D72;fill-rule:nonzero}
    .fil12 {fill:#5C56A2;fill-rule:nonzero}
    .fil8 {fill:#6E6E6E;fill-rule:nonzero}
    .fil6 {fill:#79C9F0;fill-rule:nonzero}
    .fil11 {fill:#8480BC;fill-rule:nonzero}
    .fil20 {fill:#A8A8A8;fill-rule:nonzero}
    .fil15 {fill:#BF7D31;fill-rule:nonzero}
    .fil19 {fill:#DADAFF;fill-rule:nonzero}
    .fil9 {fill:#E3C07B;fill-rule:nonzero}
    .fil7 {fill:#E6E9FF;fill-rule:nonzero}
    .fil18 {fill:#F6C96B;fill-rule:nonzero}
    .fil21 {fill:#FCA30B;fill-rule:nonzero}
    .fil14 {fill:#FCE9CA;fill-rule:nonzero}
    .fil17 {fill:white;fill-rule:nonzero}
   ]]>
  </style>
 </defs>
 <g id="Layer_x0020_1">
  <metadata id="CorelCorpID_0Corel-Layer"/>
  <g id="_1529145641808">
   <rect class="fil0" width="33132" height="22946"/>
   <g>
    <circle class="fil1" transform="matrix(-0.475607 0.414232 0.414232 0.475607 23992.1 12838.4)" r="9796"/>
    <circle class="fil2" transform="matrix(-0.143884 0.125316 0.125316 0.143884 30006.5 19430.7)" r="9796"/>
    <circle class="fil2" transform="matrix(0.786757 -0.685231 -0.68523 -0.786758 11476.9 11472.9)" r="9796"/>
    <circle class="fil1" transform="matrix(0.593069 -0.516537 -0.516537 -0.59307 10111.7 12894.1)" r="9796"/>
    <g>
     <path class="fil3" d="M17913 9635c0,0 -846,440 -1417,636 -520,177 -919,255 -987,267l-10 2c0,0 -119,84 -331,219 -22,1 -44,2 -69,4l-1 0c-118,-48 -619,28 -1044,161 -803,-289 -4302,988 -3609,1539 -629,93 -3110,1140 -2375,1501 0,0 -1154,485 -1332,1000 -161,465 835,275 1060,227 320,-68 617,-186 962,-342 828,-375 2387,-1110 3921,-1847 545,-261 890,-552 1476,-515 1007,63 2539,-354 3249,-867 420,-303 806,-779 1028,-1219 412,-820 73,-933 -521,-766z"/>
     <path class="fil4" d="M7199 12943c7,0 17,-1 27,-4 -58,-6 -111,-18 -159,-38 53,27 98,42 132,42z"/>
     <path class="fil4" d="M15950 5570c543,-366 1200,-640 1607,-379 60,39 108,98 144,171 0,0 0,0 -1,-1 -33,-154 -709,-676 -811,-741 -252,-162 -600,-118 -958,25 145,199 181,533 19,925z"/>
     <path class="fil4" d="M15852 4560l0 -1c-74,-319 -552,-608 -999,-595 60,225 88,502 100,822 334,-378 685,-409 899,-226z"/>
     <path class="fil5" d="M6802 11348c459,-1737 1743,-2235 1743,-2235 -226,-680 511,-1932 1087,-2405 988,-813 1313,-863 1857,-523 6,-877 1161,-2367 1924,-2680 568,-233 929,-229 1158,-44 0,-1 0,-1 0,-1 -196,-422 -1053,-843 -1825,-527 -764,313 -1919,1804 -1925,2680 -543,-340 -868,-290 -1857,523 -576,474 -1313,1726 -1087,2405 0,0 -1284,498 -1743,2236 -145,551 -159,1061 24,1349 72,113 480,500 779,698 -295,-243 -306,-831 -135,-1476z"/>
     <path class="fil6" d="M17701 5362c-36,-73 -84,-132 -144,-171 -408,-261 -1064,14 -1607,379 162,-392 126,-726 -19,-925 -24,-32 -50,-60 -79,-85 -214,-183 -565,-152 -899,226 -12,-320 -40,-597 -100,-822 -58,-224 -147,-395 -282,-503 -229,-185 -590,-189 -1158,44 -763,313 -1918,1803 -1924,2680 -543,-340 -869,-290 -1857,523 -576,473 -1313,1725 -1087,2405 0,0 -1284,498 -1743,2235 -170,645 -160,1233 135,1476 38,32 82,58 130,77 48,20 101,32 159,38 24,3 48,4 74,4 521,-13 9496,-5124 10017,-5765 405,-479 590,-1393 384,-1816z"/>
     <path class="fil7" d="M15167 6620c0,99 -64,213 -144,253l-6810 3445c-80,41 -145,-7 -145,-106 0,-100 65,-213 145,-253l6810 -3446c80,-40 144,8 144,107z"/>
     <path class="fil7" d="M16275 5098c0,100 -65,213 -145,253l-6810 3445c-80,41 -145,-7 -145,-106 0,-99 65,-213 145,-253l6810 -3445c80,-41 145,7 145,106z"/>
     <path class="fil7" d="M15167 7476c0,99 -64,212 -144,252l-6810 3446c-80,40 -145,-8 -145,-107 0,-99 65,-212 145,-253l6810 -3445c80,-41 144,7 144,107z"/>
     <path class="fil8" d="M18763 5871c107,-684 131,-1218 134,-1282 -1,61 -16,578 -117,1241 -6,14 -11,27 -17,41z"/>
     <path class="fil9" d="M16296 10509c0,0 -1341,-312 -1609,-1541 -187,-855 -119,-2398 -119,-2398 0,0 911,-221 1419,-663 507,-441 834,-834 834,-834 0,0 325,175 808,115 482,-58 1268,-605 1268,-605 0,0 0,2 0,6 -3,64 -27,598 -134,1282 -64,409 -159,873 -296,1321 -714,2333 -2171,3317 -2171,3317z"/>
     <path class="fil10" d="M16340 4184c66,31 457,201 1012,129 609,-79 1602,-765 1602,-765 0,0 443,38 519,269 -91,62 -616,412 -1113,615 3,-52 4,-87 4,-102 -1,15 -3,50 -5,103 -168,68 -332,121 -474,139 -610,79 -1022,-133 -1022,-133 0,0 -3,4 -10,12l-513 -267z"/>
     <path class="fil11" d="M14018 6338c0,-12 1,-19 1,-19 0,0 1151,-285 1792,-837 580,-501 973,-951 1042,-1030 7,-9 10,-13 10,-13 0,0 412,212 1022,133 143,-18 307,-71 474,-139 0,0 1,0 1,-1 497,-203 1022,-553 1113,-615 9,-6 14,-9 14,-9 0,0 -1,35 -4,99 0,0 0,0 0,1 -17,382 -108,1808 -533,3128 -962,2994 -2737,4125 -2737,4125 0,0 -510,-74 -1024,-394 -416,-260 -835,-681 -988,-1359 -224,-993 -188,-2860 -183,-3070zm669 2630c268,1229 1609,1541 1609,1541 0,0 1457,-984 2171,-3317 151,-462 249,-941 313,-1362 101,-663 116,-1180 117,-1241 0,-4 0,-6 0,-6 0,0 -786,547 -1268,605 -483,60 -808,-116 -808,-116 0,0 -327,394 -834,835 -507,442 -1419,663 -1419,663 0,0 -68,1543 119,2398z"/>
     <path class="fil12" d="M16340 4184l513 267c-69,80 -462,530 -1042,1031 -641,552 -1792,837 -1792,837 0,0 0,7 -1,19l-532 -277 0 -1c0,0 1151,-286 1792,-838 641,-552 1052,-1043 1052,-1043l10 5z"/>
     <path class="fil10" d="M15189 10767c-521,-192 -1299,-637 -1521,-1619 -235,-1039 -184,-3035 -182,-3087l532 277c-5,210 -41,2077 183,3070 153,678 572,1099 988,1359z"/>
     <polygon class="fil12" points="18120,5564 16382,7499 17160,7505 15766,9762 18056,7056 17397,7054 "/>
     <path class="fil13" d="M20647 9982c-72,39 -79,62 -140,127 -122,-330 -402,-495 -754,-547 -362,-53 -660,138 -1023,21 235,266 447,352 789,362 -192,192 -501,437 -757,554 -230,101 -441,31 -677,40l-29 -153c52,-9 103,-22 153,-36 308,-85 393,-202 607,-415 -277,42 -368,10 -559,-245 -124,-165 -134,-373 -187,-576 245,118 436,214 724,171 571,-96 1763,-101 1853,697z"/>
     <path class="fil14" d="M17681 11678l0 0 1052 -602 -1052 602zm996 -699c-192,-128 -554,-192 -639,-437 15,-1 31,-2 47,-3 236,-9 447,61 677,-40 256,-117 565,-362 757,-554 -342,-10 -554,-96 -789,-362 363,117 661,-74 1023,-21 352,52 623,174 746,504l0 0c3,8 6,17 9,25 -58,54 -91,100 -105,195 -22,107 42,64 -43,138 -42,43 -149,64 -202,86 -160,74 -464,517 -603,613 -266,192 -346,36 -601,228 -74,64 -170,96 -202,214 -32,106 53,170 53,276 0,245 -405,437 -628,437 -96,0 -214,-117 -267,-106 -103,20 -175,287 -229,383l0 -497 0 0c-167,-99 -478,-148 -517,-270 -64,-213 192,-223 214,-383 32,-224 -362,-352 -501,-437 277,-149 714,0 990,85 267,85 565,75 810,-74z"/>
     <path class="fil3" d="M14534 15837c212,-30 599,-138 749,-122l23 -6c-29,-33 -73,-60 -284,-36 -127,13 -281,50 -421,71 -183,29 -240,24 -395,36 -54,54 89,89 328,57z"/>
     <path class="fil3" d="M12598 16554c-211,40 -421,77 -578,73 -25,56 102,65 355,23 229,-39 405,-103 610,-147 -75,-15 -251,26 -387,51z"/>
     <path class="fil3" d="M18687 15091c-49,18 -89,32 -124,45 -4,-2 -8,-3 -12,-4l136 -41zm1780 -233c-147,27 -295,55 -421,83 334,-15 720,-39 955,-10 6,-15 17,-29 34,-43l2 56 -626 50 -1 1 -260 22 -754 225 -12 -292c335,-8 757,-78 1083,-92zm6094 -1244l-1 1 -259 21 -726 218 -24 -558 -1915 576c-73,1 -98,-17 -197,-13 -191,7 -444,55 -654,106 -294,64 -398,111 -674,123 -190,7 -298,-25 -341,-57 3,88 111,125 408,137 -295,-8 -865,118 -1159,182 -743,159 -1286,209 -1774,216 174,93 599,102 1253,19 -358,71 -653,106 -1011,174 -379,71 -589,115 -866,106 89,52 301,75 547,83l-423 126c-69,-96 -992,5 -1467,78 -352,55 -646,132 -982,206 -379,82 -632,106 -956,136 72,38 88,88 252,99 255,16 374,2 739,-77 -279,106 -390,157 -796,254 -64,16 -131,32 -200,47 -186,42 -382,81 -557,112 -295,52 -395,26 -648,65 59,51 313,46 581,26 -211,28 -421,73 -618,108 -225,39 -422,60 -647,100 -421,76 -826,195 -1189,301 295,-47 604,-92 886,-123 169,-18 352,-45 409,-18 72,22 -24,78 61,97 114,30 425,11 679,-9 169,-13 591,-68 564,-17 3,-2 5,-3 8,-4l10 245 -911 272 35 850 318 -23 -1 2 6 -2 4 -1 3397 -41 2271 -1590 11 186 2460 323 4609 -2603 0 -589 -512 130z"/>
     <polygon class="fil9" points="22399,11191 22399,14961 17722,17757 17722,17174 17722,17149 17722,14355 17722,14338 17904,14233 20145,12939 20156,12932 20320,12397 20323,12389 21160,11906 21864,11499 21903,11477 22242,11281 "/>
     <polygon class="fil15" points="22047,11174 21903,11258 21880,11272 21716,11367 21716,11012 21733,11001 21891,11089 21903,11095 "/>
     <polygon class="fil16" points="21716,11012 21716,11367 21132,11704 21132,11349 "/>
     <polygon class="fil13" points="21160,11906 21160,11906 21160,11906 20323,12389 20320,12397 20129,12287 21132,11705 21132,11704 21716,11367 21879,11272 21903,11258 22047,11174 21903,11095 21891,11089 21733,11001 21716,11012 21132,11349 21132,11130 21707,10797 21903,10904 21904,10902 22403,11184 22399,11192 22242,11281 21903,11477 21864,11500 "/>
     <path class="fil17" d="M17926 12688c213,259 383,-424 136,-227 -104,31 -213,124 -136,227zm3206 -1339l0 355 -1003 583 -198 529 -2250 1288 0 -571 0 -978c54,-96 126,-363 229,-383 53,-11 171,106 267,106 223,0 628,-192 628,-436 0,-107 -85,-171 -53,-278 32,-117 128,-149 202,-213 255,-192 335,-36 601,-228 139,-96 443,-539 603,-613 53,-22 160,-43 202,-86 85,-74 13,-34 35,-140 20,-134 138,-238 252,-302l485 -278 0 1426 0 219zm-1442 -43c-59,48 -101,125 -86,216 185,15 296,-283 86,-216zm-454 133l0 3c-112,32 -399,272 -303,400 176,255 463,-240 447,-400 -44,-15 -88,-16 -144,-3zm1390 -1004c-71,131 -27,308 192,192 296,-148 -38,-433 -191,-195 -1,1 -1,1 -1,3z"/>
     <path class="fil13" d="M20627 10432c153,-238 487,47 191,195 -219,116 -263,-61 -192,-192 0,-1 0,-2 1,-3z"/>
     <polygon class="fil15" points="20320,12397 20157,12932 20145,12939 19931,12816 20129,12287 "/>
     <polygon class="fil13" points="17681,14104 19931,12816 20145,12939 17904,14233 17722,14338 17722,14355 17714,14351 17482,14218 17483,14217 17226,14069 17226,14068 16987,13930 17681,13533 17681,13788 17394,13953 17675,14107 "/>
     <path class="fil13" d="M19690 11306c210,-67 99,231 -86,216 -15,-91 27,-168 86,-216z"/>
     <path class="fil13" d="M19380 11442c16,160 -271,655 -447,399 -96,-127 191,-367 303,-399l0 -3c56,-13 100,-12 144,3z"/>
     <path class="fil13" d="M18038 10542c85,245 447,309 639,437 -245,148 -543,159 -810,74 -276,-85 -713,-234 -990,-85 139,85 533,213 501,437 -22,160 -278,170 -213,383 38,122 349,171 516,270l0 497c-2,4 -4,7 -5,10 21,-181 -298,-276 -426,-351 -192,-106 -426,-266 -511,-469 -64,-138 10,-287 -43,-426 -43,-149 -181,-181 -309,-234 -213,-85 -447,-138 -671,-170 277,-149 586,-320 905,-309 171,10 320,74 490,85 149,11 309,-11 469,32 -202,-117 -394,-288 -437,-532 192,32 267,212 490,223 133,8 282,-2 423,-28l29 153c-16,1 -32,2 -47,3z"/>
     <path class="fil13" d="M18062 12460c247,-196 77,487 -136,228 -77,-103 32,-196 136,-228z"/>
     <path class="fil13" d="M18038 9935l-18 9c-112,-174 -407,-33 -568,-73 -181,-54 -287,-298 -245,-469 117,64 160,128 299,149 106,22 223,-10 319,32 160,64 192,202 213,352z"/>
     <polygon class="fil15" points="17722,17174 17722,17757 17234,17466 17233,17465 17226,17461 16987,17318 16987,13930 17226,14068 17226,14069 17483,14217 17482,14218 17714,14351 17722,14355 17722,17149 "/>
     <polygon class="fil16" points="17681,13788 17681,14104 17675,14107 17394,13953 "/>
     <polygon class="fil18" points="17234,17466 17230,17467 17226,17470 17226,17461 17233,17465 "/>
     <path class="fil13" d="M15972 11266c103,0 238,-31 293,87 -156,22 -290,144 -464,126 -191,-21 -287,-149 -266,-352 117,128 277,139 437,139z"/>
     <path class="fil19" d="M18352 12647c823,-510 1647,-1019 2471,-1529 70,-43 6,-154 -65,-110 -823,509 -1647,1019 -2471,1528 -70,44 -6,154 65,111z"/>
     <path class="fil19" d="M18427 13189c824,-510 1647,-1019 2471,-1529 70,-43 6,-154 -64,-110 -824,509 -1648,1019 -2472,1528 -69,44 -5,154 65,111z"/>
     <path class="fil12" d="M21052 12814c95,-63 194,-114 294,-151 -10,158 -18,313 -41,476 -2,1 -4,2 -6,2 -62,16 -123,43 -182,79 -11,-143 -48,-267 -65,-406z"/>
     <path class="fil12" d="M20749 13299c-50,-23 -103,-38 -159,-49 119,-153 256,-289 404,-396 16,139 55,262 65,405 -62,45 -120,100 -175,163 -42,-45 -77,-96 -135,-123z"/>
     <path class="fil12" d="M20594 13635c-79,-6 -162,-4 -246,2 55,-113 120,-220 193,-322 71,13 142,30 198,68 38,26 65,64 96,98 -41,54 -80,112 -114,172 -37,-16 -88,-15 -127,-18z"/>
     <path class="fil12" d="M20411 13957c-70,26 -140,52 -209,72 28,-109 66,-218 114,-324 73,-5 146,-9 216,-4 35,3 114,-3 153,19 -29,60 -49,121 -63,183 -71,19 -138,28 -211,54z"/>
     <path class="fil12" d="M20342 14263c-65,36 -129,72 -192,100 6,-64 12,-126 21,-183 4,-28 10,-56 16,-84 72,-21 145,-49 218,-75 70,-25 136,-35 204,-53 -11,62 -18,123 -24,180 -81,40 -162,71 -243,115z"/>
     <path class="fil12" d="M20128 14556c7,-44 12,-87 16,-130 50,-22 100,-49 152,-77 94,-52 187,-89 281,-137 -10,77 -20,153 -33,230 -144,64 -282,95 -416,114z"/>
     <path class="fil12" d="M20454 14798c-145,58 -285,73 -407,54 34,-74 55,-152 70,-229 134,-19 271,-52 415,-115 -11,55 -23,110 -38,166 -10,41 -24,82 -40,124z"/>
     <path class="fil12" d="M19942 15202c-32,-23 -62,-49 -87,-80 39,-41 75,-83 104,-121 20,-26 38,-53 53,-80 124,19 266,5 412,-50 -64,144 -154,287 -260,419 -84,0 -162,-46 -222,-88z"/>
     <path class="fil12" d="M19647 15308c52,-38 104,-83 153,-130 36,47 83,85 135,110 54,27 108,60 174,68 -108,124 -228,236 -350,327 -51,-115 -108,-225 -112,-375z"/>
     <path class="fil12" d="M19396 15412c0,0 1,0 2,0 -26,93 -61,187 -76,278 -13,77 -22,152 -25,225 -58,12 -113,15 -163,9 -238,-27 25,-539 262,-512z"/>
     <path class="fil12" d="M19374 15703c16,-98 50,-195 78,-295 41,-9 88,-31 137,-61 5,150 60,263 111,379 -118,80 -236,141 -346,173 2,-63 9,-129 20,-196z"/>
     <path class="fil12" d="M21404 12643c19,-5 37,-11 56,-15 249,-63 133,365 -97,488 23,-162 31,-317 41,-473z"/>
     <path class="fil13" d="M22137 10489c149,-21 170,-180 96,-276 -86,-96 -298,-117 -405,-160 -224,-85 -394,-224 -468,-468 83,107 187,145 300,145 304,0 676,-275 924,-252 -138,0 -347,-106 -449,-237 -23,-30 -41,-62 -52,-93 246,127 586,159 842,85 235,-75 469,-255 714,-170 -75,-85 -192,-171 -160,-299 117,118 245,64 384,75 115,11 240,62 345,114l160 -93c-55,-49 -74,-137 -149,-197 -144,-112 -335,-112 -495,-64 -224,32 -304,144 -511,-16 -144,-112 -224,-319 -256,-479 0,351 80,575 304,847 -223,-255 -655,-176 -879,-144 -564,78 -975,-128 -1342,-463 128,495 447,846 943,1006 -272,16 -496,-64 -767,-64 -288,0 -448,16 -655,-223 79,335 303,638 543,878 256,240 591,272 847,464 -112,0 -224,0 -320,16 252,187 581,426 756,713 5,-55 -6,-143 6,-185l-16 -364c-92,-2 -177,-17 -240,-96z"/>
     <path class="fil13" d="M23788 9829c-36,-17 -56,-16 -79,-5 0,1 -1,1 -2,2 0,0 0,0 -1,0 -41,32 -80,75 -94,131 96,32 160,-16 176,-128z"/>
     <path class="fil13" d="M24139 9270l-2 -2c-74,77 -142,200 -62,258 256,207 352,-543 64,-256z"/>
     <path class="fil14" d="M22845 10548c48,-32 160,-64 192,-143 32,-112 -96,-128 -96,-208 32,-128 128,-208 240,-288 224,-160 591,-223 719,-479 64,-144 11,-187 139,-315 47,-47 112,-107 178,-155l-3 -4c-2,-1 -4,-2 -6,-3 -105,-52 -230,-103 -345,-114 -139,-11 -267,43 -384,-75 -32,128 85,214 160,298 -245,-84 -479,96 -714,171 -255,74 -596,42 -842,-85 11,31 28,63 52,93 102,132 311,237 450,237 -249,-23 -621,252 -925,252 -113,0 -217,-38 -301,-145 75,244 245,383 469,468 107,43 320,64 405,160 74,96 53,255 -96,276 63,79 148,94 240,96l0 361c68,-224 239,-277 468,-398z"/>
     <polygon class="fil9" points="26578,10589 26538,10612 25855,11006 24997,11501 24995,11509 24831,12044 24819,12051 22578,13346 22396,13450 22396,13468 22396,16261 22396,16286 22396,16869 27073,14073 27073,10304 26917,10394 "/>
     <polygon class="fil15" points="26554,10384 26578,10370 26722,10286 26578,10207 26565,10201 26407,10114 26390,10124 26390,10479 "/>
     <polygon class="fil13" points="26578,10015 26578,10016 26381,9909 25828,10230 25828,10449 26390,10124 26407,10114 26565,10201 26578,10207 26722,10286 26578,10370 26554,10384 26390,10479 25828,10805 24803,11399 24994,11509 24997,11501 25855,11006 26538,10612 26578,10589 26917,10394 27073,10304 27077,10296 "/>
     <polygon class="fil16" points="26390,10479 26390,10124 25828,10449 25828,10805 "/>
     <path class="fil17" d="M23706 9826c1,0 1,0 1,0 1,-1 2,-1 2,-2 23,-11 43,-12 79,5 -16,112 -80,160 -176,128 14,-56 53,-99 94,-131zm431 -558l2 2c288,-287 192,464 -64,256 -80,-58 -12,-181 62,-258zm-1760 3936l2228 -1276 198 -529 1025 -594 0 -356 0 -219 0 -2222 -1460 852 -160 93c2,1 4,2 6,3l3 4c-66,48 -131,108 -178,155 -128,128 -75,171 -139,315 -128,256 -496,320 -719,479 -112,80 -208,160 -240,288 0,80 128,96 96,208 -32,79 -144,111 -192,143 -229,121 -400,174 -468,398l0 1687 0 255 0 316z"/>
     <polygon class="fil15" points="24819,12051 24831,12044 24995,11509 24803,11399 24605,11928 "/>
     <polygon class="fil15" points="22396,16261 22396,13468 22388,13463 22156,13330 22158,13330 21901,13181 21901,13180 21661,13043 21661,16430 21901,16573 21907,16577 21908,16578 22396,16869 22396,16286 "/>
     <polygon class="fil16" points="22069,13066 22349,13220 22377,13204 22377,12888 "/>
     <polygon class="fil13" points="21901,13181 22158,13330 22156,13330 22388,13463 22396,13468 22396,13450 22578,13346 24819,12051 24605,11928 22377,13204 22349,13220 22069,13066 22377,12888 22377,12633 21661,13043 21901,13180 "/>
     <polygon class="fil18" points="21901,16573 21901,16582 21905,16579 21908,16578 21907,16577 "/>
     <path class="fil19" d="M22936 11147c824,-510 1647,-1019 2471,-1529 70,-43 6,-154 -64,-110 -824,509 -1648,1019 -2471,1528 -70,44 -6,154 64,111z"/>
     <path class="fil19" d="M22936 11693c824,-510 1647,-1020 2471,-1529 70,-44 6,-154 -64,-111 -824,510 -1648,1020 -2471,1529 -70,44 -6,154 64,111z"/>
     <path class="fil19" d="M22974 12277c824,-509 1647,-1019 2471,-1528 70,-44 6,-154 -64,-111 -824,510 -1648,1019 -2471,1529 -70,44 -6,154 64,110z"/>
     <path class="fil12" d="M25432 13226c-25,110 -127,218 -229,242 -103,24 -166,-45 -141,-155 24,-109 127,-217 229,-242 102,-24 165,46 141,155zm-473 567c-24,46 -60,-7 -112,19 -51,27 -76,102 -112,110 -36,8 76,-327 118,-352 42,-25 130,177 106,223zm-428 32c-102,93 -204,104 -229,22 -24,-81 39,-223 141,-317 102,-94 205,-104 229,-22 25,81 -38,223 -141,317zm1136 -644c23,-98 35,-195 35,-288 0,-513 -380,-709 -849,-439 -468,271 -848,906 -848,1419 0,98 14,185 40,259 81,54 198,-16 310,-28 161,-13 180,145 192,322 38,-6 77,-15 118,-28l0 -124 63 -37 0 137c26,-11 52,-23 78,-36l0 -146 63 -36 0 146c25,-15 50,-31 75,-48l0 -142 63 -36 0 132c41,-32 80,-66 118,-102 13,-177 39,-344 190,-506 133,-139 272,-206 350,-419l1 0 1 0z"/>
     <path class="fil12" d="M24125 14969c-83,3 -122,-80 -88,-184 19,-55 54,-106 96,-142 -16,-33 -17,-80 0,-132 35,-104 129,-191 212,-194 83,-2 123,102 115,196 107,3 242,5 373,4 140,-161 287,-332 401,-467 -8,-85 32,-236 115,-328 82,-93 177,-116 212,-51 17,32 16,80 0,132 42,-13 77,-3 96,31 34,65 -5,192 -88,285 -79,89 -199,116 -258,96 -83,88 -181,192 -277,295 90,-5 176,-13 249,-21 60,-91 169,-210 246,-213 82,-2 121,80 87,184 -19,56 -54,106 -96,142 13,33 13,76 -3,125 -35,104 -129,191 -211,194 -74,2 -125,-96 -108,-188 -104,-4 -238,-7 -366,-1 -119,133 -240,275 -336,391 17,72 -34,228 -108,311 -82,92 -176,115 -211,50 -16,-30 -16,-74 -3,-121 -42,12 -77,3 -96,-32 -34,-64 5,-191 87,-283 77,-86 186,-94 246,-71l0 0c64,-68 139,-147 217,-232 -85,7 -171,14 -245,21 -59,88 -179,200 -258,203z"/>
     <path class="fil15" d="M9375 10545c-12,45 -252,900 -251,1152 2,472 168,804 436,960 337,195 673,391 1010,586 -4,-1 -8,-4 -11,-6 -3,-2 -7,-4 -10,-6 -9,-6 -19,-12 -28,-19 -3,-2 -6,-4 -8,-6 -8,-5 -16,-11 -24,-17 -2,-2 -4,-4 -6,-5 -19,-15 -36,-30 -53,-47 -5,-5 -9,-9 -14,-13 -6,-6 -12,-13 -18,-20 -10,-11 -20,-22 -29,-33 -4,-4 -7,-9 -10,-13 -6,-8 -12,-16 -19,-24 -11,-16 -21,-32 -31,-48 -7,-9 -12,-18 -17,-27 -2,-3 -3,-5 -4,-7 -7,-11 -13,-22 -18,-33 -2,-3 -3,-5 -4,-7 -6,-13 -12,-25 -18,-37 -1,-2 -2,-5 -3,-7 -5,-12 -10,-23 -15,-36 -7,-17 -13,-35 -20,-53 -5,-13 -9,-27 -13,-42 -7,-21 -13,-42 -18,-64 -4,-14 -7,-27 -10,-41 0,-1 0,-2 0,-2 -4,-15 -7,-30 -9,-45 -4,-23 -8,-46 -11,-69 -2,-16 -4,-32 -6,-48 0,-1 0,-3 0,-4 -2,-19 -4,-38 -5,-57 -1,-20 -2,-39 -3,-59l0 -5c-1,-19 -1,-39 -1,-59 -1,-253 238,-1107 251,-1152l-1010 -587z"/>
     <g>
      <path class="fil14" d="M10385 11132c-13,45 -252,899 -251,1152 0,20 0,40 1,59l0 5c1,20 2,39 3,59 1,19 3,38 5,57 0,1 0,3 0,4 2,16 4,32 6,48 3,23 7,47 11,69 2,15 6,30 9,45 0,1 0,1 0,2 3,14 6,27 10,41 5,22 11,43 17,64 5,15 9,29 14,42 7,18 13,36 20,53 5,12 10,24 15,36 1,2 2,5 3,7 6,12 12,25 18,37 1,2 2,4 4,7 5,11 11,22 18,33 1,2 2,4 4,7 5,9 10,18 16,27 11,16 21,32 33,48 5,8 12,16 18,24 3,4 6,9 10,13 9,11 19,22 29,33 6,7 12,13 18,20 5,4 9,8 14,13 17,16 34,32 53,47 2,1 4,3 6,5 8,6 16,12 24,17 2,2 5,4 7,6 10,7 20,13 29,19 4,2 7,4 10,6 272,165 653,145 1073,-97 825,-477 1491,-1632 1489,-2581 -1,-404 -203,-765 -214,-784 -19,11 -389,216 -786,439 1,8 2,15 2,23 0,277 -195,615 -436,754 -70,41 -137,60 -196,60 -5,0 -11,0 -16,0 -5,-1 -10,-1 -15,-2 -5,0 -11,-1 -16,-2 -3,-1 -7,-2 -10,-2 -2,-1 -4,-1 -7,-2 -3,-1 -7,-2 -11,-4 -4,-1 -7,-2 -10,-3 -12,-5 -24,-11 -35,-17l0 0 -217 -126 0 0 0 0 -130 -75c-331,167 -621,305 -639,314zm769 -239c-23,525 356,438 565,328 321,-170 510,-692 509,-927 0,-6 564,-295 581,-304 9,16 133,401 133,744 3,806 -611,1898 -1311,2303 -700,404 -1316,73 -1318,-732 -1,-214 184,-1055 195,-1093 19,-9 295,-136 646,-319l-130 -75c74,-38 151,-77 226,-117 -1,14 -1,27 -1,40 0,135 47,231 122,278l-217 -126z"/>
     </g>
     <path class="fil13" d="M11541 11948c0,53 18,91 47,110l-38 365 -53 506 442 -262 2 -1 -105 -741 0 -3c32,-56 52,-118 52,-174 0,-111 -78,-156 -174,-101 -46,28 -89,73 -120,126 -33,56 -53,119 -53,175zm-387 -1055c-23,525 356,438 565,328 321,-170 510,-692 509,-927 0,-6 564,-295 581,-304 9,16 132,401 133,744 3,806 -611,1898 -1311,2303 -700,404 -1316,74 -1318,-732 -1,-214 184,-1055 195,-1093 19,-9 296,-137 646,-319l0 3c0,-1 0,-2 0,-3z"/>
     <path class="fil20" d="M10369 13071c-4,-4 -7,-9 -10,-13 3,4 6,9 10,13z"/>
     <path class="fil15" d="M10708 10386l542 315c-1,14 -1,27 -1,40 0,135 47,231 122,278 11,6 23,12 35,17 3,1 6,2 10,3 4,2 8,3 11,4 2,0 5,1 7,2 4,1 7,1 10,2 6,1 11,2 16,2 5,1 10,1 15,2 5,0 11,0 16,0 59,0 126,-19 196,-60 241,-139 436,-477 436,-754 0,-8 -1,-15 -2,-23l-1009 -586c0,7 1,15 1,22 1,266 -178,587 -405,736z"/>
     <path class="fil16" d="M11112 9628l1009 587c397,-224 767,-429 786,-440l-592 -345c-2,89 -3,158 -3,198 0,0 25,180 -208,198 -260,21 -279,-172 -279,-172 0,-64 2,-236 5,-428 -127,70 -415,231 -718,402z"/>
     <path class="fil21" d="M11154 10893l0 3c0,-1 0,-2 0,-3l0 0z"/>
     <path class="fil20" d="M11434 11045c-2,-1 -5,-2 -7,-2 3,1 5,1 7,2z"/>
     <polygon class="fil22" points="11550,12423 11497,12929 11939,12667 "/>
     <path class="fil12" d="M11588 12058l-38 365 389 244 2 -1 -105 -741 -242 -152c-33,56 -53,119 -53,175 0,53 18,91 47,110z"/>
     <path class="fil22" d="M11594 11773l242 152 -1 -4c33,-55 53,-117 53,-173 0,-111 -78,-156 -174,-101 -46,28 -89,73 -120,126z"/>
     <path class="fil23" d="M9375 10545l1010 587c157,-77 316,-153 473,-231 131,-65 261,-133 392,-200l-1005 -588 -870 432z"/>
     <path class="fil15" d="M9898 9188c0,0 -22,748 -31,1117l0 0 0 0c-2,90 -4,157 -4,186 -1,148 91,310 394,251 137,-27 161,-185 163,-276l-2 -65c0,-55 0,-118 0,-183l-59 -35 59 35c3,-376 10,-877 10,-877 0,-454 223,-913 543,-1110l293 -181c511,-316 579,12 579,466 0,0 -7,383 -13,710l28 -16 -28 16c-3,192 -5,364 -5,428 0,0 19,193 279,172 233,-18 208,-198 208,-198 0,-40 1,-109 2,-198l0 0c8,-452 30,-1402 30,-1402 0,-638 -448,-930 -1001,-654l-506 254c-553,277 -939,922 -939,1560zm2000 0l0 0 0 0 0 0z"/>
     <path class="fil3" d="M11536 13623c479,-222 546,-195 550,-125 0,0 -4,61 -7,113 -114,52 -367,166 -639,289l-30 -219 126 -58zm1563 -293l-562 148c4,-72 17,-225 17,-225 -5,-97 -430,10 -949,240l-208 92 -34 -245c-3,-27 -59,-28 -148,-7 -24,5 -51,12 -80,21 -20,6 -41,13 -64,20 -15,3 -31,6 -48,10l-4 1 -68 18c-107,31 -245,84 -393,152l-4835 2216c-178,82 -401,228 -570,358 -396,301 -580,788 138,638 727,-154 1794,-741 2493,-1062l1770 -813c-3,6 -5,11 -5,14 5,72 165,66 419,-1 319,-84 637,-168 956,-252 -3,1 -7,2 -10,3 258,-67 616,-199 1010,-379 774,-353 1393,-755 1383,-900 -5,-61 -198,-48 -208,-47z"/>
    </g>
   </g>
  </g>
 </g>
</svg>
