<?xml version="1.0" encoding="UTF-8"?>
<!DOCTYPE svg PUBLIC "-//W3C//DTD SVG 1.1//EN" "http://www.w3.org/Graphics/SVG/1.1/DTD/svg11.dtd">
<!-- Creator: CorelDRAW X7 -->
<svg xmlns="http://www.w3.org/2000/svg" xml:space="preserve" width="100%" height="100%" version="1.1" style="shape-rendering:geometricPrecision; text-rendering:geometricPrecision; image-rendering:optimizeQuality; fill-rule:evenodd; clip-rule:evenodd"
viewBox="0 0 33132 22946"
 xmlns:xlink="http://www.w3.org/1999/xlink">
 <defs>
  <style type="text/css">
   <![CDATA[
    .fil0 {fill:none}
    .fil23 {fill:#DABA76}
    .fil2 {fill:#DBE8FF}
    .fil1 {fill:#EAF2FF}
    .fil13 {fill:#D5A767;fill-rule:nonzero}
    .fil16 {fill:#DABA76;fill-rule:nonzero}
    .fil3 {fill:#8DA0D1;fill-rule:nonzero}
    .fil5 {fill:#2195CA;fill-rule:nonzero}
    .fil4 {fill:#2F8AA1;fill-rule:nonzero}
    .fil22 {fill:#45487A;fill-rule:nonzero}
    .fil10 {fill:#564D72;fill-rule:nonzero}
    .fil12 {fill:#5C56A2;fill-rule:nonzero}
    .fil8 {fill:#6E6E6E;fill-rule:nonzero}
    .fil6 {fill:#79C9F0;fill-rule:nonzero}
    .fil11 {fill:#8480BC;fill-rule:nonzero}
    .fil20 {fill:#A8A8A8;fill-rule:nonzero}
    .fil15 {fill:#BF7D31;fill-rule:nonzero}
    .fil19 {fill:#DADAFF;fill-rule:nonzero}
    .fil9 {fill:#E3C07B;fill-rule:nonzero}
    .fil7 {fill:#E6E9FF;fill-rule:nonzero}
    .fil18 {fill:#F6C96B;fill-rule:nonzero}
    .fil21 {fill:#FCA30B;fill-rule:nonzero}
    .fil14 {fill:#FCE9CA;fill-rule:nonzero}
    .fil17 {fill:white;fill-rule:nonzero}
   ]]>
  </style>
 </defs>
 <g id="Layer_x0020_1">
  <metadata id="CorelCorpID_0Corel-Layer"/>
  <g id="_1529503912384">
   <rect class="fil0" width="33132" height="22946"/>
   <g>
    <circle class="fil1" transform="matrix(-0.511628 0.445604 0.445605 0.511627 24554.5 12941.9)" r="9796"/>
    <circle class="fil2" transform="matrix(-0.154781 0.134807 0.134807 0.154781 31024.4 20033.4)" r="9796"/>
    <circle class="fil2" transform="matrix(0.846343 -0.737127 -0.737127 -0.846343 11091.5 11473)" r="9796"/>
    <circle class="fil1" transform="matrix(0.637987 -0.555658 -0.555658 -0.637986 9622.88 13001.9)" r="9796"/>
    <g>
     <path class="fil3" d="M18015 9496c0,0 -910,473 -1524,684 -560,191 -989,274 -1062,287l-11 2c0,0 -128,91 -356,237 -24,0 -48,1 -75,3l0 0c-127,-52 -666,30 -1123,174 -864,-311 -4628,1063 -3882,1655 -677,100 -3346,1226 -2556,1615 0,0 -1241,521 -1432,1075 -173,501 898,296 1140,245 345,-73 664,-201 1035,-368 891,-403 2568,-1195 4218,-1987 586,-281 957,-594 1587,-554 1084,68 2731,-381 3496,-933 451,-326 867,-838 1105,-1312 443,-881 79,-1003 -560,-823z"/>
     <path class="fil4" d="M6490 13055c7,0 17,-2 29,-4 -63,-7 -120,-21 -171,-42 56,29 105,46 142,46z"/>
     <path class="fil4" d="M15903 5123c584,-393 1291,-688 1729,-407 65,41 116,105 155,184 0,-1 0,-1 -1,-1 -36,-167 -763,-728 -872,-798 -272,-174 -647,-127 -1031,27 156,214 195,573 20,995z"/>
     <path class="fil4" d="M15798 4036l0 0c-80,-343 -594,-654 -1074,-641 63,242 94,541 107,885 359,-407 736,-440 967,-244z"/>
     <path class="fil5" d="M6062 11339c494,-1869 1876,-2404 1876,-2404 -244,-732 550,-2079 1169,-2588 1063,-874 1413,-928 1997,-563 7,-943 1250,-2546 2071,-2883 610,-250 998,-246 1245,-47 0,0 0,-1 0,-1 -211,-454 -1133,-907 -1964,-566 -821,336 -2063,1940 -2070,2883 -585,-366 -934,-312 -1997,562 -620,510 -1413,1856 -1170,2587 0,0 -1381,536 -1875,2405 -157,593 -171,1141 26,1452 77,122 516,538 838,751 -317,-262 -329,-894 -146,-1588z"/>
     <path class="fil6" d="M17787 4900c-39,-79 -90,-143 -155,-184 -438,-281 -1145,14 -1729,407 175,-422 136,-781 -20,-995 -26,-34 -54,-65 -85,-92 -231,-196 -608,-163 -967,244 -13,-344 -44,-643 -107,-885 -63,-240 -159,-424 -304,-541 -247,-199 -635,-203 -1245,48 -821,336 -2064,1939 -2071,2882 -584,-365 -934,-311 -1997,563 -620,509 -1413,1856 -1169,2588 0,0 -1382,535 -1876,2404 -183,694 -171,1326 146,1588 41,34 88,62 139,82 52,21 109,35 172,42 25,2 52,4 79,4 560,-14 10216,-5513 10776,-6202 436,-515 634,-1499 413,-1953z"/>
     <path class="fil7" d="M15062 6253c0,106 -70,228 -156,272l-7326 3706c-86,43 -156,-8 -156,-115 0,-107 70,-228 156,-272l7326 -3706c86,-43 156,8 156,115z"/>
     <path class="fil7" d="M16253 4615c0,108 -70,229 -156,273l-7326 3706c-86,44 -155,-8 -155,-115 0,-107 69,-229 155,-272l7326 -3706c86,-43 156,8 156,114z"/>
     <path class="fil7" d="M15062 7173c0,107 -70,228 -156,272l-7326 3706c-86,43 -156,-8 -156,-115 0,-106 70,-228 156,-272l7326 -3706c86,-43 156,8 156,115z"/>
     <path class="fil8" d="M18929 5447c115,-736 141,-1310 144,-1380 -1,67 -17,622 -125,1336 -7,15 -13,29 -19,44z"/>
     <path class="fil9" d="M16275 10436c0,0 -1442,-335 -1731,-1658 -200,-920 -127,-2579 -127,-2579 0,0 980,-238 1526,-713 546,-475 897,-898 897,-898 0,0 350,188 869,124 519,-63 1364,-651 1364,-651 0,0 0,2 0,7 -3,69 -28,643 -144,1378 -69,441 -170,940 -318,1422 -769,2509 -2336,3568 -2336,3568z"/>
     <path class="fil10" d="M16323 3632c71,34 491,216 1088,139 656,-86 1724,-823 1724,-823 0,0 477,41 558,290 -98,66 -663,442 -1197,661 3,-56 4,-94 4,-109 -1,15 -3,53 -5,110 -180,74 -357,130 -510,150 -656,85 -1099,-144 -1099,-144 0,0 -4,5 -12,14l-551 -288z"/>
     <path class="fil11" d="M13825 5949c0,-13 1,-20 1,-20 0,0 1239,-307 1928,-901 624,-538 1047,-1022 1120,-1108 8,-9 12,-14 12,-14 0,0 443,229 1099,144 153,-20 330,-76 510,-150 0,0 1,0 1,-1 534,-219 1099,-595 1197,-662 10,-6 16,-10 16,-10 0,0 -2,39 -5,107 0,0 0,0 0,1 -19,411 -117,1945 -573,3365 -1036,3221 -2945,4437 -2945,4437 0,0 -548,-79 -1101,-424 -447,-279 -898,-732 -1063,-1461 -242,-1068 -202,-3077 -197,-3303zm719 2829c289,1323 1731,1658 1731,1658 0,0 1567,-1059 2336,-3568 163,-497 268,-1013 336,-1465 109,-714 125,-1269 126,-1335 0,-5 0,-7 0,-7 0,0 -845,588 -1364,651 -519,64 -869,-124 -869,-124 0,0 -351,423 -897,898 -546,475 -1526,713 -1526,713 0,0 -74,1660 127,2579z"/>
     <path class="fil12" d="M16323 3632l551 288c-73,86 -496,570 -1120,1108 -689,594 -1928,901 -1928,901 0,0 0,7 -1,20l-573 -298 0 -1c0,0 1239,-307 1928,-901 690,-594 1133,-1122 1133,-1122l10 5z"/>
     <path class="fil10" d="M15085 10713c-561,-206 -1398,-684 -1636,-1741 -253,-1118 -198,-3265 -197,-3321l573 298c-5,226 -45,2235 197,3303 165,729 616,1182 1063,1461z"/>
     <polygon class="fil12" points="18238,5117 16368,7198 17205,7205 15706,9633 18168,6721 17460,6720 "/>
     <path class="fil13" d="M20956 9869c-77,42 -85,67 -150,137 -132,-355 -433,-533 -812,-589 -389,-57 -710,149 -1100,23 252,287 481,378 848,389 -206,207 -539,471 -814,597 -247,108 -474,33 -728,42l-31 -165c56,-9 111,-22 164,-38 332,-92 423,-217 653,-447 -298,46 -395,11 -601,-263 -133,-177 -144,-401 -201,-619 263,127 469,230 779,184 614,-103 1896,-109 1993,749z"/>
     <path class="fil14" d="M17766 11693l0 0 1131 -647 -1131 647zm1071 -752c-206,-137 -596,-206 -687,-469 16,-2 33,-2 50,-4 254,-9 481,66 728,-42 275,-126 608,-390 814,-597 -367,-11 -596,-102 -848,-389 390,126 711,-80 1100,-23 379,56 671,188 803,543l0 0c3,9 7,17 10,26 -62,59 -98,108 -114,211 -23,114 46,68 -46,148 -45,46 -160,69 -217,92 -172,80 -499,557 -648,659 -286,207 -372,40 -647,246 -80,69 -183,103 -218,230 -34,114 57,182 57,297 0,264 -435,470 -675,470 -103,0 -230,-126 -287,-114 -111,22 -188,309 -246,412l0 -535 0 0c-180,-106 -515,-158 -556,-290 -69,-229 206,-240 229,-412 35,-241 -389,-378 -539,-470 299,-161 768,0 1066,92 287,91 608,79 871,-81z"/>
     <path class="fil3" d="M14380 16168c228,-32 644,-149 806,-132l25 -7c-32,-35 -79,-63 -305,-38 -137,14 -303,54 -454,76 -197,31 -258,26 -425,39 -58,58 96,96 353,62z"/>
     <path class="fil3" d="M12297 16939c-226,43 -453,82 -621,79 -28,60 110,69 382,24 246,-41 435,-110 656,-158 -81,-16 -270,28 -417,55z"/>
     <path class="fil3" d="M18847 15366c-52,18 -95,34 -133,48 -4,-2 -9,-3 -13,-5l146 -43zm1915 -252c-158,30 -316,60 -452,89 359,-16 774,-41 1026,-10 7,-16 19,-32 37,-46l3 60 -674 54 -1 0 -279 24 -811 243 -13 -315c359,-8 813,-83 1164,-99zm6556 -1338l-1 1 -279 23 -781 234 -25 -600 -2060 619c-79,2 -106,-17 -213,-13 -205,8 -477,59 -703,114 -316,69 -429,120 -725,132 -205,8 -320,-27 -367,-62 3,96 119,135 439,149 -318,-10 -930,127 -1246,195 -800,171 -1384,225 -1909,232 187,100 644,110 1348,21 -385,77 -703,114 -1088,187 -407,76 -634,123 -931,114 95,56 324,81 588,89l-455 136c-74,-104 -1067,5 -1578,84 -378,59 -694,142 -1056,221 -408,89 -681,114 -1029,147 77,41 94,94 271,106 275,18 403,2 795,-83 -300,114 -419,169 -856,274 -69,17 -141,34 -216,50 -199,45 -410,87 -598,120 -318,57 -425,28 -697,71 63,54 337,49 624,27 -227,31 -453,79 -664,116 -242,43 -454,65 -696,108 -453,82 -889,210 -1279,324 317,-51 649,-99 953,-132 182,-20 378,-48 440,-20 77,24 -26,84 66,104 122,33 457,13 730,-9 182,-14 636,-73 607,-19 3,-1 5,-2 8,-4l11 264 -980 292 38 915 341 -25 0 2 6 -1 4 -2 3654 -44 2443 -1710 12 200 2647 347 4958 -2800 0 -633 -551 139z"/>
     <polygon class="fil9" points="22840,11170 22840,15226 17809,18233 17809,17605 17809,17579 17809,14574 17809,14555 18005,14442 20416,13050 20428,13043 20604,12467 20607,12459 21508,11939 22265,11502 22307,11477 22672,11267 "/>
     <polygon class="fil15" points="22463,11152 22307,11241 22282,11257 22106,11359 22106,10977 22125,10966 22294,11060 22307,11066 "/>
     <polygon class="fil16" points="22106,10977 22106,11359 21478,11722 21478,11339 "/>
     <polygon class="fil13" points="21508,11939 21508,11939 21508,11939 20607,12459 20604,12467 20399,12349 21478,11722 21478,11722 22106,11359 22282,11257 22307,11242 22463,11152 22307,11066 22294,11060 22125,10966 22106,10977 21478,11339 21478,11104 22096,10746 22307,10861 22308,10859 22845,11162 22840,11170 22672,11267 22307,11477 22265,11502 "/>
     <path class="fil17" d="M18029 12780c229,278 412,-456 147,-245 -112,35 -230,134 -147,245zm3449 -1441l0 383 -1079 626 -213 570 -2420 1385 0 -614 0 -1052c58,-103 135,-390 246,-412 57,-12 184,114 287,114 240,0 675,-206 675,-469 0,-116 -91,-184 -57,-299 35,-126 138,-160 218,-229 275,-206 361,-39 647,-245 149,-103 476,-580 648,-660 57,-23 172,-46 217,-92 92,-80 15,-37 38,-151 22,-144 148,-256 271,-325l522 -299 0 1534 0 235zm-1551 -46c-64,52 -110,135 -93,232 199,17 318,-304 93,-232zm-489 143l1 4c-121,34 -430,292 -327,430 189,274 498,-258 481,-430 -47,-16 -95,-18 -155,-4zm1495 -1080c-76,141 -29,332 207,207 318,-159 -41,-465 -206,-210 0,1 0,2 -1,3z"/>
     <path class="fil13" d="M20934 10353c165,-255 524,51 206,210 -236,125 -283,-66 -207,-207 1,-1 1,-2 1,-3z"/>
     <polygon class="fil15" points="20604,12467 20428,13043 20416,13050 20186,12918 20399,12348 "/>
     <polygon class="fil13" points="17766,14303 20186,12918 20416,13050 18005,14442 17809,14555 17809,14574 17801,14569 17551,14426 17553,14425 17276,14266 17276,14264 17018,14116 17766,13689 17766,13963 17457,14141 17759,14307 "/>
     <path class="fil13" d="M19927 11293c225,-72 106,249 -93,232 -17,-97 29,-179 93,-232z"/>
     <path class="fil13" d="M19593 11440c17,172 -292,704 -481,429 -103,-137 206,-395 326,-429l0 -4c60,-14 108,-12 155,4z"/>
     <path class="fil13" d="M18150 10472c91,263 481,332 687,469 -263,160 -584,172 -871,81 -298,-92 -767,-253 -1066,-92 150,92 574,229 539,470 -23,172 -298,183 -229,412 41,132 376,184 556,290l0 535c-2,4 -4,8 -6,11 23,-194 -321,-297 -458,-378 -206,-114 -459,-286 -550,-504 -69,-149 11,-309 -46,-458 -46,-161 -195,-195 -332,-252 -230,-92 -481,-149 -722,-183 298,-161 630,-344 973,-332 184,11 344,79 528,91 160,12 332,-12 504,34 -218,-125 -424,-309 -470,-572 206,34 287,228 527,240 143,8 303,-2 455,-31l31 165c-17,2 -34,2 -50,4z"/>
     <path class="fil13" d="M18176 12535c265,-211 82,524 -147,245 -83,-111 35,-210 147,-245z"/>
     <path class="fil13" d="M18150 9818l-20 10c-121,-187 -438,-36 -611,-78 -194,-58 -309,-321 -263,-505 126,69 172,138 321,161 114,23 240,-12 344,34 171,69 206,218 229,378z"/>
     <polygon class="fil15" points="17809,17605 17809,18233 17284,17920 17283,17919 17276,17915 17018,17761 17018,14116 17276,14264 17276,14266 17553,14425 17551,14426 17801,14569 17809,14574 17809,17579 "/>
     <polygon class="fil16" points="17766,13963 17766,14303 17759,14307 17457,14141 "/>
     <polygon class="fil18" points="17284,17920 17281,17921 17276,17924 17276,17915 17283,17919 "/>
     <path class="fil13" d="M15927 11251c111,0 256,-34 315,93 -167,23 -312,155 -499,136 -206,-23 -309,-161 -286,-379 126,138 298,150 470,150z"/>
     <path class="fil19" d="M18487 12736c886,-548 1772,-1097 2658,-1645 75,-46 7,-165 -69,-119 -886,549 -1772,1097 -2658,1645 -76,47 -7,166 69,119z"/>
     <path class="fil19" d="M18568 13319c886,-548 1772,-1097 2658,-1645 75,-46 6,-165 -69,-119 -886,549 -1772,1097 -2659,1645 -75,47 -6,166 70,119z"/>
     <path class="fil12" d="M21392 12915c102,-67 208,-122 316,-162 -11,170 -19,337 -44,513 -3,0 -5,1 -7,2 -66,16 -132,45 -196,85 -11,-154 -51,-288 -69,-438z"/>
     <path class="fil12" d="M21066 13438c-54,-25 -111,-41 -172,-53 129,-165 276,-311 436,-427 17,150 59,283 69,436 -66,49 -129,108 -188,175 -46,-48 -83,-102 -145,-131z"/>
     <path class="fil12" d="M20900 13799c-86,-7 -175,-4 -266,2 60,-121 130,-237 208,-346 77,14 153,32 213,73 41,28 70,69 104,105 -45,58 -86,120 -123,185 -40,-17 -95,-16 -136,-19z"/>
     <path class="fil12" d="M20702 14146c-75,27 -150,55 -224,77 30,-118 71,-235 122,-349 79,-5 158,-10 232,-4 38,3 124,-3 165,20 -31,64 -53,131 -68,197 -76,20 -148,30 -227,59z"/>
     <path class="fil12" d="M20628 14475c-70,38 -138,77 -207,107 7,-69 13,-136 23,-197 4,-30 10,-60 17,-91 77,-22 156,-52 235,-80 75,-27 146,-37 219,-57 -11,67 -19,132 -26,193 -87,44 -173,77 -261,125z"/>
     <path class="fil12" d="M20398 14789c7,-47 12,-93 17,-139 54,-24 108,-53 163,-84 102,-55 202,-95 303,-146 -11,82 -22,164 -36,247 -155,69 -303,103 -447,122z"/>
     <path class="fil12" d="M20749 15049c-157,63 -307,79 -438,59 36,-80 59,-163 75,-247 144,-20 292,-55 446,-123 -11,59 -24,118 -40,178 -11,45 -26,89 -43,133z"/>
     <path class="fil12" d="M20198 15484c-35,-24 -67,-52 -94,-85 42,-45 80,-89 112,-130 22,-28 40,-57 57,-87 133,21 286,5 443,-54 -68,156 -166,309 -279,451 -91,0 -175,-49 -239,-95z"/>
     <path class="fil12" d="M19880 15598c56,-40 112,-89 164,-139 40,51 90,91 146,118 59,30 117,64 187,73 -116,134 -244,254 -376,352 -55,-123 -116,-242 -121,-404z"/>
     <path class="fil12" d="M19610 15710c1,0 2,0 3,0 -28,100 -66,201 -82,299 -14,83 -24,164 -28,242 -61,13 -120,17 -175,11 -255,-30 27,-581 282,-552z"/>
     <path class="fil12" d="M19587 16023c17,-105 54,-210 83,-317 45,-10 96,-33 148,-65 6,161 64,283 119,407 -126,86 -253,152 -372,187 3,-68 9,-139 22,-212z"/>
     <path class="fil12" d="M21770 12732c21,-6 41,-12 61,-17 268,-67 142,393 -105,525 25,-174 33,-340 44,-508z"/>
     <path class="fil13" d="M22559 10415c160,-23 183,-194 103,-297 -92,-104 -321,-126 -436,-172 -240,-92 -423,-241 -503,-504 90,115 202,156 323,156 327,0 727,-296 994,-271 -149,0 -373,-114 -483,-255 -25,-32 -45,-66 -56,-100 264,137 631,171 906,92 252,-81 504,-275 768,-184 -81,-91 -207,-184 -172,-321 126,126 263,69 412,80 124,12 259,67 372,123l172 -100c-60,-53 -80,-147 -160,-212 -155,-120 -361,-120 -533,-68 -241,34 -327,154 -550,-18 -155,-120 -241,-343 -275,-515 0,378 86,619 327,911 -240,-274 -705,-189 -946,-155 -607,85 -1048,-137 -1443,-498 137,532 481,911 1014,1082 -292,18 -533,-68 -825,-68 -310,0 -481,17 -705,-241 86,361 327,687 584,945 276,258 636,293 911,499 -120,0 -240,0 -343,17 271,202 624,458 813,768 6,-60 -7,-155 7,-199l-18 -392c-99,-2 -190,-18 -258,-103z"/>
     <path class="fil13" d="M24335 9705c-39,-19 -61,-17 -85,-6 0,1 -1,1 -2,2 0,0 0,0 -1,0 -45,34 -86,81 -101,141 103,35 172,-17 189,-137z"/>
     <path class="fil13" d="M24713 9103l-2 -2c-80,83 -153,215 -67,277 275,224 378,-584 69,-275z"/>
     <path class="fil14" d="M23321 10478c52,-34 172,-68 206,-154 34,-121 -103,-138 -103,-224 34,-137 137,-223 258,-309 240,-172 636,-241 773,-516 69,-154 12,-201 150,-338 51,-51 121,-115 192,-167l-4 -5c-2,0 -4,-2 -6,-3 -113,-56 -248,-111 -372,-123 -149,-11 -286,46 -412,-80 -35,137 91,230 172,321 -264,-91 -516,103 -768,184 -275,79 -642,45 -906,-92 11,34 30,67 56,101 110,141 334,254 483,254 -267,-25 -667,271 -994,271 -121,0 -233,-41 -323,-156 80,263 263,412 503,504 115,46 344,68 436,172 80,103 57,274 -103,297 67,85 159,101 258,103l0 388c73,-241 258,-298 504,-428z"/>
     <polygon class="fil9" points="27336,10522 27294,10546 26559,10971 25636,11503 25633,11512 25457,12088 25444,12095 23033,13488 22838,13600 22838,13619 22838,16624 22838,16650 22838,17278 27869,14270 27869,10215 27701,10312 "/>
     <polygon class="fil15" points="27310,10302 27336,10287 27491,10196 27336,10111 27323,10104 27153,10011 27134,10022 27134,10403 "/>
     <polygon class="fil13" points="27336,9904 27336,9906 27125,9791 26529,10136 26529,10371 27134,10022 27153,10011 27323,10104 27336,10111 27491,10196 27336,10287 27310,10302 27134,10403 26529,10754 25427,11393 25633,11512 25636,11503 26559,10971 27294,10546 27336,10522 27701,10312 27868,10215 27873,10207 "/>
     <polygon class="fil16" points="27134,10403 27134,10022 26529,10371 26529,10754 "/>
     <path class="fil17" d="M24247 9702c1,-1 1,-1 1,-1 1,-1 2,-1 2,-2 24,-11 46,-13 85,6 -17,120 -86,172 -189,138 15,-61 56,-108 101,-141zm464 -601l2 3c309,-310 206,498 -69,274 -86,-62 -13,-194 67,-277zm-1894 4234l2397 -1372 213 -570 1102 -639 0 -383 0 -235 0 -2390 -1570 916 -172 100c2,1 4,3 6,3l4 5c-71,52 -141,116 -192,167 -138,137 -81,184 -150,338 -137,275 -533,344 -773,516 -121,86 -224,172 -258,309 0,86 137,103 103,224 -34,86 -154,120 -206,154 -246,130 -431,187 -504,428l0 1815 0 274 0 340z"/>
     <polygon class="fil15" points="25444,12095 25457,12088 25633,11512 25427,11393 25214,11963 "/>
     <polygon class="fil15" points="22838,16624 22838,13619 22829,13614 22580,13471 22581,13470 22305,13311 22305,13309 22047,13162 22047,16806 22305,16960 22312,16964 22312,16965 22838,17278 22838,16650 "/>
     <polygon class="fil16" points="22486,13186 22787,13352 22817,13335 22817,12995 "/>
     <polygon class="fil13" points="22305,13311 22581,13470 22580,13471 22829,13614 22838,13619 22838,13600 23033,13488 25444,12095 25214,11963 22817,13335 22787,13352 22486,13186 22817,12995 22817,12721 22047,13161 22305,13309 "/>
     <polygon class="fil18" points="22305,16960 22305,16969 22309,16966 22312,16965 22312,16964 "/>
     <path class="fil19" d="M23419 11122c886,-548 1772,-1096 2658,-1645 75,-46 6,-165 -70,-118 -886,548 -1772,1096 -2658,1644 -75,47 -6,166 70,119z"/>
     <path class="fil19" d="M23419 11709c886,-548 1772,-1096 2658,-1644 75,-47 6,-166 -70,-119 -886,548 -1772,1096 -2658,1645 -75,46 -6,165 70,118z"/>
     <path class="fil19" d="M23459 12338c886,-548 1773,-1096 2659,-1644 75,-47 6,-166 -70,-119 -886,548 -1772,1097 -2658,1645 -75,46 -6,165 69,118z"/>
     <path class="fil12" d="M26103 13359c-26,118 -137,234 -246,260 -110,26 -178,-49 -152,-166 27,-118 137,-234 247,-260 110,-26 178,48 151,166zm-508 609c-26,50 -65,-7 -121,22 -55,28 -81,109 -120,117 -39,9 82,-352 127,-378 45,-27 140,190 114,239zm-460 35c-110,101 -220,112 -247,24 -26,-87 42,-240 152,-341 110,-101 220,-112 246,-24 27,87 -41,240 -151,341zm1221 -692c25,-106 38,-210 38,-311 0,-551 -409,-763 -913,-471 -504,291 -913,974 -913,1526 0,106 15,199 43,279 87,57 213,-18 334,-30 174,-14 194,155 207,346 40,-6 83,-17 126,-31l0 -133 68 -40 0 148c28,-12 56,-25 84,-39l0 -157 68 -39 0 158c27,-16 54,-34 80,-52l0 -153 69 -39 0 142c43,-34 86,-71 127,-110 13,-190 41,-370 203,-544 144,-150 293,-221 378,-450l1 0 0 0z"/>
     <path class="fil12" d="M24697 15233c-88,4 -131,-85 -94,-197 20,-60 58,-114 103,-153 -17,-35 -18,-86 0,-142 37,-112 139,-205 228,-208 89,-3 132,109 124,210 114,3 260,5 401,4 151,-172 308,-357 431,-501 -8,-92 35,-254 124,-354 89,-99 191,-124 228,-55 18,35 17,87 0,143 45,-14 83,-4 103,33 37,70 -5,207 -94,306 -86,96 -215,125 -278,103 -89,95 -194,207 -298,319 97,-6 190,-14 268,-23 64,-99 182,-226 265,-229 88,-3 130,85 93,197 -20,60 -58,115 -103,153 14,35 14,82 -3,134 -37,112 -139,206 -227,209 -80,2 -135,-103 -116,-202 -112,-5 -256,-8 -394,-1 -128,143 -258,296 -362,421 19,77 -36,245 -115,334 -89,99 -190,123 -227,54 -17,-32 -18,-79 -4,-130 -45,13 -83,3 -103,-34 -37,-70 5,-206 93,-305 83,-93 201,-101 265,-77l0 0c69,-72 150,-158 234,-249 -92,7 -184,15 -263,23 -64,95 -193,215 -279,217z"/>
     <path class="fil15" d="M8831 10475c-14,48 -271,968 -270,1239 1,508 180,865 469,1032 362,211 724,421 1086,632 -4,-2 -8,-5 -12,-8 -4,-2 -7,-4 -10,-6 -11,-6 -21,-13 -31,-20 -3,-2 -6,-4 -9,-6 -8,-6 -17,-12 -25,-19 -2,-2 -5,-4 -7,-6 -20,-15 -39,-32 -57,-50 -5,-5 -10,-9 -14,-14 -7,-7 -13,-14 -20,-21 -11,-12 -21,-24 -32,-36 -3,-5 -7,-9 -10,-14 -7,-8 -13,-17 -20,-26 -12,-17 -24,-34 -34,-51 -7,-10 -13,-19 -18,-29 -2,-3 -3,-6 -5,-8 -7,-12 -13,-24 -19,-36 -2,-2 -3,-5 -4,-7 -7,-13 -13,-27 -19,-40 -1,-2 -2,-5 -4,-7 -5,-13 -11,-25 -16,-39 -7,-18 -14,-37 -21,-57 -5,-14 -10,-29 -15,-45 -7,-22 -13,-45 -19,-69 -4,-15 -7,-29 -10,-44 -1,-1 -1,-2 -1,-3 -3,-15 -7,-31 -9,-48 -5,-24 -9,-49 -12,-74 -3,-17 -4,-34 -6,-51 0,-2 -1,-3 -1,-5 -2,-20 -4,-41 -5,-62 -1,-20 -2,-41 -3,-63l0 -5c-1,-21 -1,-42 -1,-64 -1,-271 256,-1190 269,-1239l-1085 -631z"/>
     <g>
      <path class="fil14" d="M9916 11106c-13,49 -270,968 -269,1239 0,22 0,43 1,64l0 5c1,22 2,42 3,63 1,21 3,42 5,62 0,1 1,3 1,5 2,17 3,34 6,51 3,25 7,50 12,74 3,17 6,32 9,48 0,1 1,2 1,3 3,15 6,29 10,44 6,24 12,47 19,69 5,15 10,31 15,45 7,20 14,39 21,57 5,13 11,26 17,39 1,2 2,5 3,7 6,13 12,27 19,40 1,2 2,5 4,7 6,12 12,24 19,36 2,2 3,5 5,8 5,10 11,19 17,29 11,17 23,34 35,51 6,9 13,18 20,26 3,5 7,9 11,14 10,12 20,24 31,36 6,7 13,14 20,21 4,5 9,9 14,14 18,18 37,34 57,50 2,2 4,4 7,6 8,6 17,13 25,19 3,2 6,4 9,6 10,7 20,14 31,20 3,3 6,4 10,6 293,178 702,157 1154,-104 888,-513 1605,-1755 1602,-2776 -1,-435 -218,-823 -230,-844 -21,12 -419,233 -845,473 0,8 1,16 1,24 1,299 -209,662 -468,812 -76,44 -148,64 -211,64 -6,0 -12,0 -18,0 -5,-1 -11,-1 -16,-2 -6,0 -11,-1 -16,-2 -4,-1 -8,-2 -12,-3 -2,0 -4,-1 -7,-1 -4,-2 -8,-3 -12,-4 -4,-2 -8,-3 -11,-4 -13,-5 -25,-11 -37,-18l0 0 -233 -136 -1 0 0 0 -139 -81c-356,180 -668,329 -689,338zm828 -257c-25,565 383,472 608,353 345,-183 548,-744 548,-997 0,-7 606,-318 624,-327 10,17 143,431 144,801 2,866 -657,2041 -1410,2476 -754,435 -1416,80 -1419,-787 -1,-230 198,-1135 210,-1176 20,-10 318,-146 695,-343l-139 -81c79,-41 161,-83 243,-125 -1,14 -2,29 -2,43 0,145 50,248 132,299l-234 -136z"/>
     </g>
     <path class="fil13" d="M11160 11984c0,58 19,98 51,119l-41 392 -57 545 476 -282 1 -1 -112 -798 -1 -3c35,-60 57,-127 57,-188 0,-118 -84,-167 -187,-107 -50,29 -96,78 -130,135 -35,60 -57,128 -57,188zm-415 -1135c-26,565 382,472 607,353 345,-183 548,-744 548,-997 0,-7 606,-318 624,-328 10,18 143,432 144,802 2,866 -657,2041 -1410,2476 -754,435 -1416,80 -1419,-787 -1,-230 198,-1135 210,-1176 20,-10 318,-147 695,-343l0 3c0,0 0,-2 1,-3z"/>
     <path class="fil20" d="M9900 13192c-4,-5 -8,-9 -11,-14 3,5 7,9 11,14z"/>
     <path class="fil15" d="M10264 10304l584 339c-1,14 -2,29 -2,43 0,145 50,248 132,299 12,7 24,13 37,18 4,1 7,2 11,4 4,1 8,2 12,3 2,1 5,2 7,2 4,1 8,2 12,3 5,1 11,2 16,2 5,1 11,1 17,2 5,0 11,0 16,0 64,0 136,-21 212,-64 259,-150 469,-513 468,-812 0,-8 -1,-16 -1,-24l-1086 -631c0,8 1,16 1,24 1,286 -192,631 -436,792z"/>
     <path class="fil16" d="M10699 9488l1086 631c426,-240 824,-461 845,-473l-637 -370c-2,95 -3,170 -3,212 0,0 27,194 -224,213 -279,22 -301,-185 -301,-185 0,-68 3,-254 7,-460 -137,76 -447,248 -773,432z"/>
     <path class="fil21" d="M10744 10849l0 3c0,0 0,-1 0,-3l0 0z"/>
     <path class="fil20" d="M11045 11012c-2,0 -5,-1 -7,-2 3,1 5,2 7,2z"/>
     <polygon class="fil22" points="11170,12495 11113,13040 11589,12758 "/>
     <path class="fil12" d="M11211 12103l-41 392 419 263 1 -1 -112 -798 -261 -163c-35,60 -57,128 -57,188 0,57 19,98 51,119z"/>
     <path class="fil22" d="M11217 11796l261 163 -1 -3c35,-60 57,-127 57,-188 0,-118 -84,-167 -187,-107 -50,29 -96,78 -130,135z"/>
     <path class="fil23" d="M8831 10475l1085 631c170,-83 341,-164 509,-248 142,-70 281,-143 423,-215l-1082 -633 -935 465z"/>
     <path class="fil15" d="M9393 9015c0,0 -24,805 -33,1202l0 0 0 0c-3,96 -4,168 -5,200 -1,159 98,333 424,269 148,-29 173,-198 175,-296l-2 -71c0,-59 0,-126 0,-196l-63 -37 63 37c3,-405 11,-943 11,-943 0,-489 240,-983 585,-1195l314 -194c551,-340 623,12 623,501 0,0 -7,412 -13,764l30 -17 -30 17c-4,206 -6,392 -6,460 0,0 21,207 300,186 251,-20 224,-214 224,-214 0,-42 1,-117 2,-212l0 0c8,-487 32,-1508 32,-1508 0,-687 -482,-1002 -1077,-704l-544 273c-595,298 -1010,992 -1010,1678zm2151 0l0 0 0 0 0 0z"/>
     <path class="fil3" d="M11155 13786c516,-239 587,-209 591,-135 0,0 -4,66 -6,122 -123,56 -396,179 -688,311l-32 -236 135 -62zm1682 -316l-605 160c4,-77 18,-242 18,-242 -6,-105 -463,11 -1021,258l-224 99 -36 -263c-4,-30 -64,-30 -160,-8 -26,5 -54,13 -86,22 -21,7 -44,14 -68,22 -16,3 -33,6 -52,11l-4 1 -73 19c-116,34 -263,91 -423,164l-5202 2384c-191,88 -431,245 -613,384 -425,325 -623,849 149,687 783,-166 1930,-797 2682,-1142l1904 -875c-4,6 -6,12 -6,15 6,78 178,71 451,-1 343,-90 686,-181 1029,-271 -4,1 -8,2 -11,3 277,-72 663,-214 1087,-407 832,-380 1498,-813 1487,-968 -5,-66 -213,-52 -223,-52z"/>
    </g>
   </g>
  </g>
 </g>
</svg>
