<?xml version="1.0" encoding="UTF-8"?>
<!DOCTYPE svg PUBLIC "-//W3C//DTD SVG 1.1//EN" "http://www.w3.org/Graphics/SVG/1.1/DTD/svg11.dtd">
<!-- Creator: CorelDRAW X7 -->
<svg xmlns="http://www.w3.org/2000/svg" xml:space="preserve" width="1.57488in" height="0.47311in" version="1.1" style="shape-rendering:geometricPrecision; text-rendering:geometricPrecision; image-rendering:optimizeQuality; fill-rule:evenodd; clip-rule:evenodd"
viewBox="0 0 15749 4731"
 xmlns:xlink="http://www.w3.org/1999/xlink">
 <defs>
  <style type="text/css">
   <![CDATA[
    .fil0 {fill:#6C87C3}
   ]]>
  </style>
 </defs>
 <g id="Layer_x0020_1">
  <metadata id="CorelCorpID_0Corel-Layer"/>
  <path class="fil0" d="M10371 2158l-418 417 1407 0 418 -417 -1407 0zm1212 2213c38,33 93,40 142,40l622 0c48,0 86,-6 116,-19 51,-21 89,-56 103,-111 14,-54 12,-96 -10,-149 -31,-76 -106,-147 -169,-197 -45,-36 -99,-72 -162,-109l401 -177 0 -111 -499 220c-25,18 -53,75 -55,105 50,24 99,52 146,82 75,48 164,114 216,186 22,30 34,57 34,81 0,71 -57,86 -118,86l-611 0c-80,0 -98,-29 -98,-106l0 -754 -111 0 0 784c0,55 10,112 53,149zm-11298 134c7,-47 11,-103 11,-171l0 -380 -110 0 0 366c0,47 -1,87 -4,120 -2,33 -9,61 -22,82 -32,55 -103,61 -160,61l0 113c61,0 111,-6 150,-19 84,-27 120,-89 135,-172zm3115 113c0,40 32,72 72,72 41,0 73,-31 73,-72 0,-40 -32,-72 -73,-72 -40,0 -72,32 -72,72zm-1845 -337c13,-54 11,-96 -11,-149 -31,-77 -105,-146 -169,-197 -44,-36 -99,-72 -162,-109l401 -177 0 -111 -499 220c-24,18 -53,75 -54,105 49,24 98,52 146,82 47,30 90,62 127,93 36,32 66,62 88,93 31,41 58,119 0,149 -22,12 -50,18 -84,18l-611 0c-41,0 -67,-8 -79,-24 -12,-16 -18,-43 -18,-82l0 -754 -112 0 0 784c0,83 27,159 115,180 24,6 51,9 80,9l623 0c47,0 86,-6 116,-19 51,-21 89,-56 103,-111zm985 81l0 -128c0,-84 -10,-183 -56,-255 -46,-72 -118,-100 -201,-100 -79,0 -150,29 -201,90 -46,56 -69,129 -69,201 0,70 17,141 73,188 49,41 116,53 178,53 56,0 114,-10 162,-39 0,42 1,87 -22,125 -33,55 -92,74 -153,80 -54,6 -107,6 -162,6l0 113 58 0c93,0 212,-7 288,-65 86,-63 105,-169 105,-269zm-376 -94c-28,-22 -42,-59 -42,-111 0,-40 12,-80 36,-113 29,-38 72,-57 119,-57 51,0 90,20 117,63 27,45 32,106 32,158l0 50c-14,11 -33,21 -60,30 -26,9 -57,14 -91,14 -46,0 -83,-11 -111,-34zm3965 13c14,-54 12,-96 -10,-149 -32,-78 -105,-145 -169,-197 -45,-36 -99,-72 -162,-109l401 -177 0 -111 -499 220c-25,16 -52,76 -55,105 50,24 99,52 146,82 48,30 90,62 127,93 37,32 67,62 89,93 23,30 34,57 34,81 0,72 -57,86 -118,86l-590 0c-25,0 -44,-4 -59,-11 -33,-16 -49,-42 -55,-77 -4,-19 -5,-40 -5,-62l0 -262 -112 0 0 312c0,23 -2,41 -7,54 -11,26 -27,39 -54,43 -33,4 -79,5 -109,-8 -35,-16 -52,-40 -59,-77 -3,-19 -5,-40 -5,-62l0 -194 -111 0 0 244c0,29 -4,67 -30,84 -23,16 -62,16 -89,16 -42,0 -91,-6 -118,-41 -10,-13 -17,-29 -19,-47 -3,-19 -5,-40 -5,-62l0 -194 -112 0 0 244c0,32 -4,67 -34,84 -30,17 -92,16 -126,16 -40,0 -101,6 -137,-11 -16,-8 -28,-18 -37,-30 -9,-13 -15,-29 -18,-47 -4,-19 -5,-40 -5,-62l0 -262 -112 0 0 312c0,32 -4,67 -35,84 -29,17 -92,16 -126,16l-498 0c-44,0 -80,-2 -108,-4 -40,-4 -84,-14 -101,-56 -7,-16 -10,-39 -10,-67l0 -170 -112 0 0 211c0,57 10,117 59,153 56,41 150,46 216,46l555 0c39,0 73,-1 102,-4 66,-4 131,-19 159,-85 7,26 22,47 44,64 40,31 111,25 161,25 50,0 129,0 175,-17 39,-13 63,-35 79,-73 5,11 12,21 20,33 36,49 109,57 165,57 48,0 88,-6 122,-16 34,-11 59,-35 76,-73 4,10 10,20 18,31 33,46 106,58 159,58 11,0 24,-1 40,-4 33,-4 67,-18 94,-39 14,-11 26,-27 34,-46 7,26 22,47 44,64 21,16 50,25 86,25l587 0c48,0 86,-6 116,-19 50,-21 90,-56 103,-111zm4089 -716c40,0 72,-32 72,-72 0,-40 -31,-72 -72,-72 -40,0 -73,32 -73,72 0,41 33,72 73,72zm-19 92c0,-40 -32,-72 -72,-72 -40,0 -73,31 -73,72 0,40 33,72 73,72 40,0 72,-32 72,-72zm32 0c0,40 33,72 73,72 40,0 72,-32 72,-72 0,-41 -32,-72 -72,-72 -40,0 -73,31 -73,72zm-1680 -67c-24,28 -47,69 -47,106l530 -233 0 -102 -463 211c-6,3 -12,9 -20,18zm-1585 295c14,-14 21,-31 21,-51 0,-20 -7,-37 -21,-51 -14,-14 -31,-21 -51,-21 -20,0 -37,7 -51,21 -14,14 -22,31 -22,51 0,20 8,37 22,51 14,14 31,21 51,21 20,0 37,-7 51,-21zm318 353l0 -352 -110 0 0 350c0,64 -9,140 -62,182 -52,41 -135,46 -199,46 -88,0 -154,-18 -199,-53 -45,-36 -68,-98 -68,-186l0 -186 -110 0 0 209c0,107 31,188 93,244 62,56 156,84 282,84 118,0 210,-26 275,-79 66,-53 98,-139 98,-259zm334 173l0 -973 -112 0 0 973 112 0zm1139 -113l-589 0c-45,0 -76,-14 -93,-41 -17,-26 -25,-63 -25,-109l0 -194 -111 0 0 366c0,47 -1,87 -3,120 -4,57 -22,107 -78,128 -25,10 -60,15 -105,15l0 113c83,0 184,-9 240,-78 53,-68 55,-192 55,-275 10,18 25,34 45,48 20,13 45,20 75,20l587 0c92,0 193,-29 219,-130 13,-54 11,-96 -11,-149 -32,-77 -104,-146 -169,-197 -44,-36 -98,-72 -162,-109l401 -177 0 -111 -499 220c-25,17 -52,76 -54,105 95,47 191,106 273,175 43,37 122,113 122,174 0,33 -11,56 -34,68 -22,12 -50,18 -84,18zm1858 113l0 -525 -112 0 0 412 -114 0c-61,0 -103,-26 -113,-88 -4,-19 -5,-40 -5,-62l0 -194 -112 0 0 244c0,53 -11,90 -70,97 -16,2 -35,3 -57,3 -30,0 -54,-4 -71,-11 -17,-8 -30,-18 -40,-30 -9,-13 -15,-29 -18,-47 -3,-19 -5,-40 -5,-62l0 -194 -110 0 0 439c0,46 -5,83 -15,112 -21,61 -66,93 -128,105 -70,13 -164,14 -233,-3 -65,-16 -111,-50 -135,-114 -11,-30 -17,-67 -17,-111l0 -187 -110 0 0 211c0,106 31,186 93,242 62,55 156,83 282,83 118,0 210,-26 275,-79 66,-53 98,-139 98,-258l0 -50c11,18 27,34 50,47 54,31 176,21 234,4 35,-11 62,-35 78,-73 7,26 21,47 43,64 21,16 50,25 86,25l226 0zm706 -49l0 -128c0,-52 -4,-100 -13,-143 -26,-131 -103,-212 -244,-212 -121,0 -215,71 -253,184 -22,65 -25,157 3,221 42,98 131,127 231,127 56,0 113,-10 162,-39 0,76 -5,142 -82,181 -68,34 -178,30 -255,30l0 113 58 0c93,0 211,-7 288,-65 86,-63 105,-169 105,-269zm-114 -104c-40,32 -102,44 -151,44 -97,0 -153,-45 -153,-145 0,-19 3,-38 9,-58 19,-68 75,-112 146,-112 84,0 127,56 142,133 8,48 7,91 7,138zm-9215 -3131l-1894 0 0 418 1476 0 418 -418zm681 -543l0 892 418 -417 0 -893 -418 418zm-97 28l-2576 0 0 -612 3188 0 0 1030 2129 0 -612 613 -2129 0 0 -1031zm-1546 1546l-932 0 0 417 932 0 0 -417zm98 -98l0 613 -1128 0 0 -613 1128 0zm932 -864l-417 418 0 961 417 0 0 -1379zm-2060 398l0 -564 2158 0 0 1643 -613 0 0 -1030 -1545 0 0 -49zm2673 564l0 417 961 0 418 -417 -1379 0zm-97 -98l1711 0 -613 613 -1098 0 0 -613zm583 -933l-417 418 1922 0 418 -418 -1923 0zm-555 -612l418 -418 -2924 0 0 418 2506 0zm9985 0l2507 0 418 -418 -2925 0 0 418zm-97 97l0 -612 3257 0 -613 612 -2644 0zm2060 1546l-1963 0 0 417 1963 0 0 -417zm98 -98l0 613 -2158 0 0 -613 2158 0zm933 -933l-2994 0 0 418 2576 0 0 1030 418 0 0 -1448zm97 -97l0 1643 -613 0 0 -1030 -2575 0 0 -613 3188 0zm-9917 613l0 864 418 -418 0 -446 -418 0zm515 0l0 486 -543 544 -1683 0 612 -613 1002 0 0 -1448 -2129 0 612 -612 2129 0 0 1030 2130 0 -613 613 -1517 0zm-97 -1477l-418 418 0 892 169 -168 249 -249 0 -893zm-349 1379l1923 0 418 -418 -1923 0 -418 418zm4052 98l0 864 418 -418 0 -446 -418 0zm515 417l1614 0 -612 613 -1614 0 0 -1030 -933 0 0 486 -544 544 -2198 0 613 -613 1516 0 0 -486 544 -544 1002 0 0 -486 543 -544 1683 0 -83 83 -529 529 -1002 0 0 418 1614 0 -612 613 -1002 0 0 417zm-97 -1001l0 -447 -418 0 0 864 418 -417zm-1963 584l0 864 417 -418 0 -446 -417 0zm2032 -516l-418 418 446 0 961 0 418 -418 -1407 0zm989 -612l418 -418 -1407 0 -418 418 1407 0zm-3119 1643l-1476 0 -418 417 1894 0 0 -417zm584 -1031l-417 418 446 0 933 0 0 -418 -962 0zm-1001 -1030l0 418 417 0 0 -418 -417 0zm-98 467l0 -564 613 0 0 612 -613 0 0 -48zm-3954 -49l1923 0 417 -418 -1922 0 -418 418zm933 1643l-418 417 1379 0 0 -417 -961 0z"/>
 </g>
</svg>
