<?xml version="1.0" encoding="UTF-8"?>
<!DOCTYPE svg PUBLIC "-//W3C//DTD SVG 1.1//EN" "http://www.w3.org/Graphics/SVG/1.1/DTD/svg11.dtd">
<!-- Creator: CorelDRAW X7 -->
<svg xmlns="http://www.w3.org/2000/svg" xml:space="preserve" width="1.5748in" height="0.47311in" version="1.1" style="shape-rendering:geometricPrecision; text-rendering:geometricPrecision; image-rendering:optimizeQuality; fill-rule:evenodd; clip-rule:evenodd"
viewBox="0 0 15748 4731"
 xmlns:xlink="http://www.w3.org/1999/xlink">
 <defs>
  <style type="text/css">
   <![CDATA[
    .fil0 {fill:#6C87C3}
   ]]>
  </style>
 </defs>
 <g id="Layer_x0020_1">
  <metadata id="CorelCorpID_0Corel-Layer"/>
  <path class="fil0" d="M284 4505c8,-47 12,-103 12,-171l0 -380 -110 0 0 366c0,47 -2,87 -4,120 -2,33 -9,61 -22,82 -12,21 -31,37 -56,46 -25,10 -60,15 -104,15l0 113c61,0 111,-6 149,-19 39,-13 69,-33 91,-61 22,-29 36,-66 44,-111zm10086 -2347l-418 417 1408 0 418 -417 -1408 0zm-8379 -1031l-1894 0 0 418 1477 0 417 -418zm681 -543l0 892 418 -417 0 -893 -418 418zm-97 28l-2575 0 0 -612 3188 0 0 1030 2129 0 -613 613 -2129 0 0 -1031zm-1545 1546l-933 0 0 417 933 0 0 -417zm-982 -98l1079 0 0 613 -1127 0 0 -613 48 0zm2012 -864l-418 418 0 961 418 0 0 -1379 0 0zm-2060 398l0 -564 2157 0 0 1643 -612 0 0 -1030 -1545 0 0 -49zm2672 564l0 417 962 0 418 -417 -1380 0zm-97 -98l1712 0 -613 613 -1099 0 0 -613zm584 -933l-418 418 1923 0 418 -418 -1923 0zm-555 -612l417 -418 -2924 0 0 418 2507 0zm9985 0l2506 0 418 -418 -2924 0 0 418zm2527 97l-2624 0 0 -612 3256 0 -612 612 -20 0 0 0zm-564 1546l-1963 0 0 417 1963 0 0 -417zm97 -98l0 613 -2157 0 0 -613 2157 0zm933 -933l-2993 0 0 418 2575 0 0 1030 418 0 0 -1448zm97 -97l0 1643 -612 0 0 -1030 -2575 0 0 -613 3187 0zm-9916 613l0 864 418 -418 0 -446 -418 0zm515 0l0 486 -544 544 -1682 0 612 -613 1002 0 0 -1448 -2130 0 613 -612 2129 0 0 1030 2129 0 -612 613 -1517 0 0 0zm-97 -584l0 -893 -418 418 0 892 169 -168 249 -249 0 0zm68 68l-417 418 1922 0 418 -418 -1923 0 0 0 0 0zm3635 516l0 864 417 -418 0 -446 -417 0zm515 0l0 417 1614 0 -613 613 -1614 0 0 -1030 -933 0 0 486 -543 544 -2198 0 612 -613 1517 0 0 -486 544 -544 1001 0 0 -486 544 -544 1683 0 -83 83 -530 529 -1001 0 0 418 1614 0 -613 613 -1001 0 0 0zm-98 -584l0 -447 -417 0 0 418 0 446 417 -417 0 0zm-1963 584l0 864 418 -418 0 -446 -418 0zm2032 -516l-418 418 447 0 961 0 418 -418 -1408 0 0 0zm990 -612l418 -418 -1408 0 -418 418 447 0 961 0 0 0zm-3119 1643l-1476 0 -418 417 1894 0 0 -417 0 0zm584 -1031l-418 418 446 0 933 0 0 -418 -961 0zm-1002 -1030l0 418 418 0 0 -418 -418 0zm-97 467l0 -564 612 0 0 612 -612 0 0 -48zm-3954 -49l1922 0 418 -418 -1923 0 -417 418zm932 1643l-418 417 1380 0 0 -417 -962 0zm-1159 2460c0,-20 -8,-37 -21,-51 -15,-14 -32,-21 -52,-21 -19,0 -37,7 -51,21 -14,14 -21,31 -21,51 0,20 7,37 21,51 14,14 31,21 51,21 20,0 37,-7 52,-21 13,-14 21,-31 21,-51zm3442 -784c0,-20 -7,-37 -21,-51 -14,-14 -31,-21 -51,-21 -20,0 -37,7 -52,21 -14,14 -21,31 -21,51 0,20 7,37 21,51 15,14 32,21 52,21 20,0 37,-7 51,-21 14,-14 21,-31 21,-51zm1517 -138l530 -233 0 -102 -464 211c-5,3 -12,9 -19,18 -8,8 -15,18 -22,30 -7,11 -13,23 -18,37 -5,13 -7,27 -7,39zm1662 -152c14,14 32,21 52,21 20,0 36,-7 50,-21 14,-14 21,-31 21,-51 0,-20 -7,-37 -21,-51 -14,-14 -30,-21 -50,-21 -20,0 -38,7 -52,21 -14,14 -21,31 -21,51 0,20 7,37 21,51zm11 164c14,-14 21,-31 21,-51 0,-20 -7,-37 -21,-51 -14,-14 -31,-21 -51,-21 -20,0 -37,7 -51,21 -14,14 -21,31 -21,51 0,20 7,37 21,51 14,14 31,21 51,21 20,0 37,-7 51,-21zm126 21c20,0 37,-7 51,-21 14,-14 21,-31 21,-51 0,-20 -7,-37 -21,-51 -14,-14 -31,-21 -51,-21 -20,0 -37,7 -51,21 -14,14 -21,31 -21,51 0,20 7,37 21,51 14,14 31,21 51,21zm1240 584c10,24 23,44 40,58 17,15 37,25 61,31 24,6 51,9 80,9 207,0 415,0 623,0 47,0 86,-6 116,-19 30,-13 53,-29 69,-48 17,-19 28,-40 34,-63 5,-22 8,-44 8,-63 0,-27 -6,-55 -19,-86 -12,-30 -33,-62 -60,-95 -28,-32 -64,-67 -109,-102 -44,-36 -99,-72 -162,-109l401 -177 0 -111 -499 220c-4,2 -9,7 -14,15l-18 25 -15 31c-4,12 -7,23 -7,34 49,24 98,52 146,82 47,30 90,62 126,93 37,32 67,62 89,93 23,30 34,57 34,81 0,33 -11,56 -34,68 -22,12 -50,18 -84,18 -203,0 -407,0 -611,0 -41,0 -67,-8 -79,-24 -12,-16 -18,-43 -18,-82l0 -754 -112 0 0 784c0,37 5,67 14,91zm-929 98l0 -525 -111 0 0 412 -115 0c-24,0 -44,-4 -59,-11 -15,-8 -27,-18 -36,-30 -8,-13 -15,-29 -18,-47 -3,-19 -5,-40 -5,-62l0 -194 -111 0 0 244c0,23 -3,41 -8,54 -5,13 -13,23 -23,30 -10,7 -24,11 -40,13 -15,2 -34,3 -56,3 -30,0 -54,-4 -71,-11 -17,-8 -31,-18 -40,-30 -10,-13 -16,-29 -19,-47 -3,-19 -4,-40 -4,-62l0 -194 -110 0 0 439c0,46 -5,83 -15,112 -10,29 -26,52 -48,70 -21,17 -48,29 -81,35 -33,6 -72,9 -117,9 -43,0 -82,-4 -116,-12 -33,-8 -61,-22 -84,-40 -22,-18 -39,-43 -50,-74 -11,-30 -17,-67 -17,-111l0 -187 -110 0 0 211c0,106 31,186 93,242 62,55 156,83 281,83 119,0 210,-26 276,-79 65,-53 98,-139 98,-258l0 -50c10,18 27,34 50,47 22,13 56,20 99,20 54,0 99,-6 135,-16 35,-11 61,-35 78,-73 7,26 21,47 43,64 21,16 50,25 85,25l226 0zm199 -127c13,31 31,56 53,74 23,19 49,32 79,41 31,8 64,12 99,12 39,0 72,-4 98,-12 26,-8 48,-17 64,-27l0 25c0,42 -7,75 -21,100 -15,24 -35,43 -61,56 -26,13 -57,21 -93,24 -36,4 -76,6 -119,6l-42 0 0 113 57 0c61,0 116,-5 165,-14 49,-9 90,-26 124,-51 33,-25 59,-59 77,-102 19,-43 28,-99 28,-167l0 -128c0,-52 -5,-100 -13,-143 -9,-43 -23,-81 -43,-112 -20,-31 -47,-56 -80,-74 -33,-17 -74,-26 -122,-26 -43,0 -82,8 -116,25 -34,16 -62,38 -84,65 -23,27 -40,58 -52,94 -12,35 -18,70 -18,107 0,45 7,83 20,114zm242 18c-46,0 -83,-11 -111,-34 -28,-22 -41,-59 -41,-111 0,-19 2,-38 8,-58 6,-20 15,-39 27,-55 13,-17 29,-30 48,-41 20,-11 44,-16 72,-16 27,0 50,5 70,17 19,11 34,26 46,46 12,20 20,43 25,70 5,27 7,57 7,88l0 50c-13,11 -33,21 -59,30 -27,9 -57,14 -92,14zm-3438 109l0 -973 -111 0 0 973 111 0zm431 -68c10,18 25,34 45,48 20,13 45,20 75,20l30 0c186,0 371,0 556,0 48,0 86,-6 116,-19 30,-13 54,-29 70,-48 17,-19 27,-40 33,-63 6,-22 9,-44 9,-63 0,-27 -6,-55 -19,-86 -13,-30 -33,-62 -61,-95 -27,-32 -64,-67 -108,-102 -45,-36 -99,-72 -162,-109l401 -177 0 -111 -499 220c-4,2 -9,7 -15,15 -6,7 -11,15 -17,25 -5,9 -10,20 -15,31 -4,12 -7,23 -8,34 50,24 99,52 146,82 48,30 90,62 127,93 37,32 67,62 89,93 23,30 34,57 34,81 0,33 -11,56 -34,68 -22,12 -50,18 -84,18 -186,0 -372,0 -559,0l-30 0c-45,0 -77,-14 -93,-41 -17,-26 -26,-63 -26,-109l0 -194 -110 0 0 366c0,47 -1,87 -3,120 -3,33 -10,61 -22,82 -13,21 -32,37 -57,46 -25,10 -60,15 -104,15l0 113c61,0 111,-6 149,-19 38,-12 68,-32 90,-59 22,-28 37,-65 44,-110 8,-45 12,-100 12,-165zm-1419 149c62,56 156,84 281,84 118,0 210,-26 276,-79 65,-53 98,-139 98,-259l0 -352 -111 0 0 350c0,46 -5,83 -15,113 -10,29 -25,52 -47,69 -21,17 -48,29 -81,36 -33,7 -72,10 -117,10 -88,0 -154,-18 -199,-53 -45,-36 -68,-98 -68,-186l0 -186 -110 0 0 209c0,107 31,188 93,244zm-3701 -188c9,25 24,46 46,61 21,16 50,27 85,35 35,7 78,11 131,11l555 0c39,0 73,-1 102,-4 29,-2 54,-6 75,-12 20,-7 37,-16 51,-27 14,-11 24,-27 32,-46 8,26 23,47 44,64 22,16 51,25 86,25 59,0 120,1 179,-4 28,-2 52,-6 72,-13 20,-7 35,-16 48,-27 12,-12 22,-27 31,-46 5,11 12,21 20,33 8,11 19,21 32,29 14,8 32,15 53,20 21,5 48,8 80,8 47,0 88,-6 122,-16 34,-11 59,-35 75,-73 5,10 11,20 19,31 8,11 18,20 32,29 13,8 30,15 51,20 49,14 114,12 163,-7 16,-7 32,-16 46,-27 15,-11 26,-27 34,-46 8,26 22,47 44,64 22,16 51,25 86,25l32 0c185,0 371,0 556,0 48,0 86,-6 116,-19 30,-13 53,-29 70,-48 16,-19 27,-40 33,-63 6,-22 9,-44 9,-63 0,-27 -7,-55 -19,-86 -13,-30 -33,-62 -61,-95 -28,-32 -64,-67 -108,-102 -45,-36 -99,-72 -162,-109l400 -177 0 -111 -498 220c-4,2 -9,7 -15,15 -6,7 -12,15 -17,25l-15 31c-4,12 -7,23 -8,34 50,24 98,52 146,82 48,30 90,62 127,93 37,32 67,62 89,93 22,30 33,57 33,81 0,33 -11,56 -33,68 -22,12 -51,18 -84,18 -187,0 -373,0 -559,0l-32 0c-24,0 -43,-4 -59,-11 -15,-8 -27,-18 -36,-30 -10,-13 -15,-29 -19,-47 -3,-19 -4,-40 -4,-62l0 -262 -112 0 0 312c0,23 -3,41 -8,54 -5,13 -12,23 -21,30 -30,23 -109,19 -141,5 -17,-8 -30,-18 -40,-30 -9,-13 -16,-29 -19,-47 -3,-19 -5,-40 -5,-62l0 -194 -112 0 0 244c0,23 -2,41 -7,54 -5,13 -12,23 -22,30 -10,7 -23,11 -37,13 -15,2 -32,3 -52,3 -32,0 -57,-4 -76,-11 -18,-8 -32,-18 -42,-30 -10,-13 -17,-29 -20,-47 -3,-19 -4,-40 -4,-62l0 -194 -112 0 0 244c0,23 -3,41 -8,54 -5,13 -14,23 -26,30 -13,7 -30,11 -50,13 -51,4 -104,3 -155,3 -23,0 -43,-4 -59,-11 -15,-8 -27,-18 -36,-30 -9,-13 -16,-29 -19,-47 -3,-19 -4,-40 -4,-62l0 -262 -112 0 0 312c0,23 -3,41 -8,54 -6,13 -15,23 -27,30 -12,7 -29,11 -50,13 -21,2 -46,3 -76,3l-498 0c-44,0 -80,-2 -108,-4 -28,-3 -51,-9 -67,-17 -16,-9 -27,-22 -34,-39 -7,-16 -11,-39 -11,-67l0 -170 -112 0 0 211c0,36 5,67 14,92zm-896 -20c14,31 31,56 54,74 22,19 48,32 79,41 30,8 64,12 99,12 39,0 72,-4 98,-12 26,-8 47,-17 64,-27l0 25c0,42 -7,75 -22,100 -15,24 -35,43 -61,56 -26,13 -57,21 -92,24 -37,4 -76,6 -120,6l-42 0 0 113 57 0c61,0 116,-5 165,-14 49,-9 91,-26 124,-51 34,-25 60,-59 78,-102 18,-43 27,-99 27,-167l0 -128c0,-52 -4,-100 -13,-143 -9,-43 -23,-81 -43,-112 -20,-31 -46,-56 -79,-74 -34,-17 -74,-26 -123,-26 -43,0 -82,8 -116,25 -33,16 -61,38 -84,65 -23,27 -40,58 -52,94 -12,35 -17,70 -17,107 0,45 6,83 19,114zm394 -26c-14,11 -33,21 -60,30 -27,9 -57,14 -92,14 -45,0 -83,-11 -111,-34 -27,-22 -41,-59 -41,-111 0,-19 3,-38 9,-58 5,-20 15,-39 27,-55 13,-17 28,-30 48,-41 19,-11 43,-16 71,-16 28,0 51,5 70,17 19,11 34,26 47,46 11,20 20,43 25,70 4,27 7,57 7,88l0 50zm-1855 113c18,15 38,25 62,31 24,6 50,9 80,9 207,0 415,0 622,0 48,0 86,-6 116,-19 30,-13 54,-29 70,-48 16,-19 27,-40 33,-63 6,-22 9,-44 9,-63 0,-27 -6,-55 -19,-86 -13,-30 -33,-62 -60,-95 -28,-32 -65,-67 -109,-102 -45,-36 -99,-72 -162,-109l401 -177 0 -111 -499 220c-4,2 -9,7 -15,15 -6,7 -11,15 -17,25 -5,9 -10,20 -15,31 -4,12 -7,23 -8,34 50,24 99,52 146,82 48,30 90,62 127,93 37,32 67,62 89,93 23,30 34,57 34,81 0,33 -11,56 -34,68 -22,12 -50,18 -84,18 -204,0 -408,0 -611,0 -41,0 -68,-8 -80,-24 -11,-16 -18,-43 -18,-82l0 -754 -111 0 0 784c0,37 4,67 14,91 9,24 23,44 39,58z"/>
 </g>
</svg>
