<?xml version="1.0" encoding="UTF-8"?>
<!DOCTYPE svg PUBLIC "-//W3C//DTD SVG 1.1//EN" "http://www.w3.org/Graphics/SVG/1.1/DTD/svg11.dtd">
<!-- Creator: CorelDRAW X7 -->
<svg xmlns="http://www.w3.org/2000/svg" xml:space="preserve" width="100%" height="100%" version="1.1" style="shape-rendering:geometricPrecision; text-rendering:geometricPrecision; image-rendering:optimizeQuality; fill-rule:evenodd; clip-rule:evenodd"
viewBox="0 0 10160 10160"
 xmlns:xlink="http://www.w3.org/1999/xlink">
 <defs>
  <style type="text/css">
   <![CDATA[
    .fil0 {fill:none}
    .fil6 {fill:#A6B7DE}
    .fil4 {fill:#FEFEFE;fill-rule:nonzero}
    .fil1 {fill:#D2AE6D;fill-rule:nonzero}
    .fil3 {fill:#F2D394;fill-rule:nonzero}
    .fil2 {fill:white;fill-rule:nonzero}
    .fil5 {fill:white;fill-rule:nonzero}
   ]]>
  </style>
 </defs>
 <g id="Layer_x0020_1">
  <metadata id="CorelCorpID_0Corel-Layer"/>
  <g id="_2307463285728">
   <rect class="fil0" width="10160" height="10160"/>
   <path class="fil1" d="M1833 5609c5,0 5,8 0,8 -6,0 -6,-8 0,-8z"/>
   <path class="fil1" d="M1392 4496l6 0c8,0 8,-12 0,-12l-6 0c-8,0 -8,12 0,12z"/>
   <path class="fil2" d="M1457 5529c1,2 4,3 7,2 2,-2 2,-5 1,-7 -1,-2 -4,-3 -6,-1 -3,1 -3,4 -2,6z"/>
   <path class="fil3" d="M2330 5080c2,-3 5,-3 7,-2 3,2 4,5 2,8 -1,2 -5,3 -7,2 -3,-2 -4,-5 -2,-8z"/>
   <path class="fil3" d="M3199 5200c-2,3 -5,4 -8,2 -2,-1 -3,-5 -1,-7 1,-3 5,-4 7,-2 3,1 4,5 2,7z"/>
   <path class="fil3" d="M1664 5502c-2,2 -5,3 -8,1 -3,-1 -3,-5 -2,-7 2,-3 5,-4 8,-2 2,2 3,5 2,8z"/>
   <path class="fil3" d="M3560 5078c-1,3 -5,3 -7,2 -3,-2 -3,-5 -2,-8 2,-2 5,-3 8,-2 2,2 3,5 1,8z"/>
   <path class="fil3" d="M3422 5538c-2,-3 -5,-4 -8,-2 -2,1 -3,5 -2,7 2,3 5,4 8,2 2,-1 3,-5 2,-7z"/>
   <path class="fil4" d="M2047 5456c-2,2 -5,3 -8,1 -2,-1 -3,-5 -1,-7 1,-3 5,-4 7,-2 3,2 4,5 2,8z"/>
   <path class="fil3" d="M2457 5394c-2,3 -5,3 -7,2 -3,-2 -4,-5 -2,-8 1,-2 5,-3 7,-2 3,2 4,5 2,8z"/>
   <path class="fil4" d="M2235 8296c-2,3 -5,4 -8,2 -3,-2 -4,-6 -2,-8 2,-3 5,-4 8,-2 3,1 4,5 2,8z"/>
   <path class="fil1" d="M3391 7439c1,-1 2,-2 3,-3 3,-2 7,2 4,4 -1,1 -2,2 -3,3 -2,3 -6,-1 -4,-4z"/>
   <path class="fil1" d="M3415 7058c2,1 4,2 6,3 3,1 0,6 -3,4 -2,0 -4,-1 -6,-2 -3,-2 0,-7 3,-5z"/>
   <path class="fil1" d="M3027 7162c3,0 3,5 0,5 -4,0 -4,-5 0,-5z"/>
   <path class="fil1" d="M3721 7378c-1,-1 -2,-2 -3,-3 -1,-1 1,-3 2,-2 1,1 2,2 3,3 1,1 -1,3 -2,2z"/>
   <path class="fil1" d="M3719 7633c4,0 4,6 0,6 -3,0 -3,-6 0,-6z"/>
   <path class="fil1" d="M3725 7700c4,0 4,6 0,6 -4,0 -4,-6 0,-6z"/>
   <path class="fil1" d="M3543 7300c-1,-1 -2,-1 -3,-2 -3,-3 1,-7 4,-4 1,1 2,1 3,2 2,3 -2,7 -4,4z"/>
   <path class="fil1" d="M3603 7409c4,0 4,6 0,6 -4,0 -4,-6 0,-6z"/>
   <path class="fil1" d="M3600 6914l3 0c4,0 4,6 0,6l-3 0c-4,0 -4,-6 0,-6z"/>
   <path class="fil1" d="M3082 7415c4,0 4,6 0,6 -4,0 -4,-6 0,-6z"/>
   <path class="fil1" d="M2186 6702l0 -2c0,-7 11,-7 11,0l0 2c0,7 -11,7 -11,0l0 -2c0,-7 11,-7 11,0l0 2c0,7 -11,7 -11,0z"/>
   <path class="fil1" d="M3702 8294c7,0 7,11 0,11 -7,0 -7,-11 0,-11z"/>
   <path class="fil1" d="M3344 6798c4,0 4,6 0,6 -4,0 -4,-6 0,-6z"/>
   <path class="fil1" d="M3265 6670c4,0 4,6 0,6 -3,0 -3,-6 0,-6z"/>
   <path class="fil1" d="M3134 6740c4,0 4,6 0,6 -3,0 -3,-6 0,-6z"/>
   <path class="fil1" d="M2931 7459c3,0 3,5 0,5 -4,0 -4,-5 0,-5z"/>
   <path class="fil1" d="M3609 8063c8,0 8,12 0,12 -8,0 -8,-12 0,-12z"/>
   <path class="fil1" d="M3446 8181l0 -3c0,-3 5,-3 5,0l0 3c0,4 -5,4 -5,0z"/>
   <path class="fil1" d="M3632 6781l0 -3c0,-4 6,-4 6,0l0 3c0,3 -6,3 -6,0z"/>
   <path class="fil1" d="M3635 6964l3 0c3,0 3,6 0,6l-3 0c-4,0 -4,-6 0,-6z"/>
   <path class="fil1" d="M3687 6914c4,0 4,6 0,6 -3,0 -3,-6 0,-6z"/>
   <path class="fil1" d="M3699 7060c4,0 4,6 0,6 -4,0 -4,-6 0,-6z"/>
   <path class="fil1" d="M3690 7249c4,0 4,6 0,6 -3,0 -3,-6 0,-6z"/>
   <path class="fil1" d="M2917 6590c-1,-1 -2,-2 -3,-3 -2,-2 2,-6 4,-4 1,1 2,2 3,3 3,3 -1,7 -4,4z"/>
   <path class="fil1" d="M3144 7166c1,-1 2,-2 3,-3 3,-3 7,1 4,4 -1,1 -2,2 -3,3 -2,2 -6,-2 -4,-4z"/>
   <path class="fil1" d="M4613 6679l3 0c2,0 5,2 4,4 0,3 -1,5 -4,5l-3 0c-2,0 -4,-2 -4,-5 0,-2 2,-4 4,-4z"/>
   <path class="fil1" d="M3827 7355l3 0c2,0 4,2 4,5 0,2 -2,4 -4,4l-3 0c-2,0 -4,-2 -4,-4 0,-3 2,-5 4,-5z"/>
   <path class="fil1" d="M3734 8368c5,0 5,8 0,8 -6,0 -6,-8 0,-8z"/>
   <path class="fil1" d="M3652 8598c-1,-1 -2,-2 -3,-3 -2,-2 -2,-4 0,-6 2,-2 4,-2 6,0 1,1 2,2 3,3 1,2 1,4 0,6 -2,2 -5,2 -6,0z"/>
   <path class="fil1" d="M3731 8121c5,0 5,8 0,8 -6,0 -6,-8 0,-8z"/>
   <path class="fil1" d="M3831 8049l0 -3c0,-2 2,-4 5,-4 2,0 4,2 4,4l0 3c0,2 -2,4 -4,4 -3,0 -5,-1 -5,-4z"/>
   <path class="fil1" d="M3059 6995c5,0 5,8 0,8 -6,0 -6,-8 0,-8z"/>
   <path class="fil1" d="M3809 6794c6,0 6,8 0,8 -5,0 -5,-8 0,-8z"/>
   <path class="fil1" d="M3548 6637c5,0 5,8 0,8 -6,0 -6,-8 0,-8z"/>
   <path class="fil1" d="M3385 6559c1,1 2,2 3,3 1,2 1,5 0,6 -2,2 -5,2 -6,0 -1,-1 -2,-2 -3,-3 -2,-1 -2,-4 0,-6 1,-1 4,-1 6,0z"/>
   <path class="fil1" d="M3164 6573c5,0 5,8 0,8 -6,0 -6,-8 0,-8z"/>
   <path class="fil1" d="M3198 6974c6,0 6,9 0,9 -5,0 -5,-9 0,-9z"/>
   <path class="fil1" d="M3425 7176c1,1 2,2 3,3 2,2 2,4 0,6 -1,2 -4,2 -6,0l-2 -3c-2,-1 -2,-4 0,-6 1,-1 4,-1 5,0z"/>
   <path class="fil1" d="M3265 7434c6,0 6,8 0,8 -5,0 -5,-8 0,-8z"/>
   <path class="fil1" d="M3140 7478c6,0 6,8 0,8 -5,0 -5,-8 0,-8z"/>
   <path class="fil1" d="M3233 7495c6,0 6,8 0,8 -5,0 -5,-8 0,-8z"/>
   <path class="fil1" d="M4141 8818l0 -3c0,-5 4,-10 9,-9 6,0 10,4 10,9l0 3c0,6 -4,10 -10,10 -5,0 -9,-4 -9,-10z"/>
   <path class="fil1" d="M3328 8142c3,0 3,6 0,6 -4,0 -4,-6 0,-6z"/>
   <path class="fil1" d="M3048 7501c-1,-1 -2,-2 -3,-3 -2,-2 2,-6 4,-4 1,1 2,2 3,3 3,3 -1,7 -4,4z"/>
   <path class="fil1" d="M3605 7756l0 -3c0,-2 2,-5 4,-5 2,1 4,2 4,5l0 3c0,2 -2,4 -4,4 -2,0 -4,-2 -4,-4z"/>
   <path class="fil1" d="M3393 7772c5,0 5,9 0,9 -6,0 -6,-9 0,-9z"/>
   <path class="fil1" d="M3139 7778c6,0 6,9 0,9 -5,0 -5,-9 0,-9z"/>
   <path class="fil1" d="M3548 7531c6,0 6,9 0,9 -5,0 -5,-9 0,-9z"/>
   <path class="fil1" d="M3221 7918c5,0 5,9 0,9 -6,0 -6,-9 0,-9z"/>
   <path class="fil1" d="M3041 7949c7,0 7,12 0,12 -7,0 -7,-12 0,-12z"/>
   <path class="fil1" d="M8250 9511c8,0 8,11 0,11 -7,0 -7,-11 0,-11z"/>
   <path class="fil1" d="M3471 7900c7,0 7,11 0,11 -7,0 -7,-11 0,-11z"/>
   <path class="fil1" d="M1612 7351c4,0 4,-6 0,-6 -3,0 -3,6 0,6z"/>
   <path class="fil1" d="M1767 7476c3,0 3,-6 0,-6 -4,0 -4,6 0,6z"/>
   <path class="fil1" d="M1772 7409c4,0 4,-5 0,-5 -3,0 -3,5 0,5z"/>
   <path class="fil1" d="M1452 7208c4,0 4,-5 0,-5 -3,0 -3,5 0,5z"/>
   <path class="fil1" d="M1947 7433l0 2c0,4 6,4 6,0l0 -2c0,-4 -6,-4 -6,0z"/>
   <path class="fil1" d="M228 6526l6 0c8,0 8,-12 0,-12l-6 0c-8,0 -8,12 0,12z"/>
   <path class="fil1" d="M2829 7229c3,0 3,-6 0,-6 -4,0 -4,6 0,6z"/>
   <path class="fil1" d="M6087 9680c7,0 7,-12 0,-12 -8,0 -8,12 0,12z"/>
   <path class="fil1" d="M1738 7890c8,0 8,-12 0,-12 -7,0 -7,12 0,12z"/>
   <path class="fil1" d="M1943 7772c8,0 8,-13 0,-13 -7,0 -7,13 0,13z"/>
   <path class="fil1" d="M2648 8574c7,0 7,-12 0,-12 -8,0 -8,12 0,12z"/>
   <path class="fil1" d="M1375 7963c-1,1 -2,2 -3,3 -3,3 1,7 4,4 1,-1 2,-2 3,-3 2,-3 -2,-7 -4,-4z"/>
   <path class="fil1" d="M2614 7343c-1,1 -2,2 -3,3 -2,3 2,7 4,4 1,-1 2,-2 3,-3 3,-2 -1,-6 -4,-4z"/>
   <path class="fil1" d="M4312 4882l6 0c5,0 9,-4 9,-9 0,-5 -4,-9 -9,-9l-6 0c-5,0 -9,4 -9,9 0,5 4,9 9,9z"/>
   <path class="fil1" d="M7215 818c12,0 12,-18 0,-18 -11,0 -11,18 0,18z"/>
   <path class="fil1" d="M714 7189c8,0 8,-12 0,-12 -7,0 -7,12 0,12z"/>
   <path class="fil1" d="M1156 6969c1,-1 2,-2 3,-3 2,-2 2,-5 0,-6 -2,-2 -4,-2 -6,0 -1,1 -2,2 -3,3 -2,1 -2,4 0,6 2,1 4,1 6,0z"/>
   <path class="fil1" d="M2393 6479c5,0 5,-8 0,-8 -6,0 -6,8 0,8z"/>
   <path class="fil1" d="M2183 7504c5,0 5,-9 0,-9 -6,0 -6,9 0,9z"/>
   <path class="fil1" d="M2200 7393c6,0 6,-8 0,-8 -5,0 -5,8 0,8z"/>
   <path class="fil1" d="M4789 2404c12,0 12,-18 0,-18 -12,0 -12,18 0,18z"/>
   <path class="fil1" d="M1304 7893c11,0 11,-18 0,-18 -12,0 -12,18 0,18z"/>
   <path class="fil1" d="M1246 8135c5,0 5,-8 0,-8 -6,0 -6,8 0,8z"/>
   <path class="fil1" d="M1313 7675c5,0 5,-8 0,-8 -6,0 -6,8 0,8z"/>
   <path class="fil1" d="M3546 8371c5,0 5,-9 0,-9 -5,0 -5,9 0,9z"/>
   <path class="fil1" d="M4214 5801c13,0 13,-19 0,-19 -13,0 -13,19 0,19z"/>
   <path class="fil1" d="M2117 1082l3 0c5,0 10,-5 9,-10 0,-5 -4,-10 -9,-10l-3 0c-5,0 -10,5 -10,10 0,5 4,10 10,10z"/>
   <path class="fil1" d="M4080 7840l0 7c0,7 12,7 12,0l0 -7c0,-7 -12,-7 -12,0z"/>
   <path class="fil1" d="M2725 7874c8,0 8,-12 0,-12 -8,0 -8,12 0,12z"/>
   <path class="fil1" d="M1338 8553c1,-1 2,-2 3,-3 2,-2 2,-6 0,-8 -2,-2 -6,-2 -8,0 -1,1 -2,2 -3,3 -2,2 -2,6 0,8 2,2 6,2 8,0z"/>
   <path class="fil1" d="M359 8624l3 0c3,0 5,-3 5,-6 0,-3 -2,-6 -5,-6l-3 0c-3,0 -6,3 -6,6 0,3 3,6 6,6z"/>
   <path class="fil2" d="M1721 7180c1,2 4,3 6,1 3,-1 3,-4 2,-6 -2,-3 -4,-3 -7,-2 -2,1 -3,4 -1,7z"/>
   <path class="fil2" d="M2475 7187c1,2 4,3 6,1 2,-1 3,-4 2,-6 -2,-2 -5,-3 -7,-2 -2,2 -3,5 -1,7z"/>
   <path class="fil2" d="M975 7579c2,3 5,3 7,2 2,-1 3,-4 1,-7 -1,-2 -4,-2 -6,-1 -2,1 -3,4 -2,6z"/>
   <path class="fil2" d="M4217 9773c2,2 5,3 7,1 2,-1 3,-4 1,-6 -1,-2 -4,-3 -6,-2 -2,2 -3,5 -2,7z"/>
   <path class="fil2" d="M221 8029c1,3 4,3 7,2 2,-1 2,-4 1,-7 -1,-2 -4,-2 -6,-1 -3,1 -3,4 -2,6z"/>
   <path class="fil2" d="M2290 7518c1,2 4,3 6,2 3,-2 3,-5 2,-7 -2,-2 -4,-3 -7,-1 -2,1 -3,4 -1,6z"/>
   <path class="fil2" d="M1971 7560c2,3 5,3 7,2 2,-1 3,-4 1,-7 -1,-2 -4,-3 -6,-1 -2,1 -3,4 -2,6z"/>
   <path class="fil2" d="M1814 7437c1,2 4,3 6,1 2,-1 3,-4 2,-6 -2,-2 -5,-3 -7,-2 -2,2 -3,5 -1,7z"/>
   <path class="fil2" d="M2418 1600c2,2 5,3 7,1 2,-1 3,-4 1,-6 -1,-2 -4,-3 -6,-2 -2,2 -3,5 -2,7z"/>
   <path class="fil2" d="M7623 9679c1,2 4,3 6,1 3,-1 3,-4 2,-6 -1,-3 -4,-3 -7,-2 -2,2 -2,4 -1,7z"/>
   <path class="fil2" d="M750 8199c2,2 5,3 7,1 2,-1 3,-4 1,-6 -1,-2 -4,-3 -6,-2 -2,2 -3,5 -2,7z"/>
   <path class="fil2" d="M2542 7691c2,2 5,3 7,1 2,-1 3,-4 1,-6 -1,-2 -4,-3 -6,-2 -2,2 -3,5 -2,7z"/>
   <path class="fil2" d="M2881 7260c-2,2 -5,3 -8,1 -2,-1 -3,-5 -2,-7 2,-3 5,-4 8,-2 3,2 3,5 2,8z"/>
   <path class="fil4" d="M2601 7223c-1,3 -5,4 -7,2 -3,-1 -4,-5 -2,-7 1,-3 5,-4 7,-2 3,1 4,5 2,7z"/>
   <path class="fil4" d="M888 1993c-2,3 -5,4 -8,2 -2,-2 -3,-5 -2,-8 2,-2 5,-3 8,-1 3,1 3,5 2,7z"/>
   <path class="fil2" d="M7469 9028c-1,2 -5,3 -7,1 -3,-1 -4,-5 -2,-7 2,-3 5,-4 8,-2 2,2 3,5 1,8z"/>
   <path class="fil4" d="M4136 7114c-1,2 -5,3 -7,2 -3,-2 -4,-5 -2,-8 2,-3 5,-3 8,-2 2,2 3,5 1,8z"/>
   <path class="fil4" d="M1788 8039c-1,3 -5,4 -7,2 -3,-2 -3,-5 -2,-8 2,-2 5,-3 8,-1 2,1 3,5 1,7z"/>
   <path class="fil4" d="M2253 7842c-2,3 -5,4 -8,2 -3,-2 -3,-5 -2,-7 2,-3 5,-4 8,-2 2,1 3,5 2,7z"/>
   <path class="fil4" d="M1543 7781c-2,3 -5,4 -7,2 -3,-2 -4,-5 -2,-8 1,-2 5,-3 7,-1 3,1 4,5 2,7z"/>
   <path class="fil4" d="M3104 392c-1,2 -5,3 -7,1 -3,-1 -4,-5 -2,-7 2,-3 5,-4 8,-2 2,2 3,5 1,8z"/>
   <path class="fil4" d="M4929 8708c-1,2 -5,3 -7,1 -3,-1 -4,-5 -2,-7 2,-3 5,-4 8,-2 2,2 3,5 1,8z"/>
   <path class="fil4" d="M3772 7466c-2,2 -5,3 -8,1 -2,-1 -3,-5 -1,-7 1,-3 5,-4 7,-2 3,2 4,5 2,8z"/>
   <path class="fil5" d="M6030 3865c-21,0 -37,-17 -37,-38l-1 0c0,21 -16,38 -37,38 21,1 38,18 38,39l0 0c0,-21 16,-38 37,-39z"/>
   <path class="fil4" d="M5253 7246c13,1 24,12 24,26l1 0c0,-14 11,-25 24,-26 -14,0 -24,-11 -24,-25l-1 0c0,14 -11,25 -24,25z"/>
   <path class="fil2" d="M2884 6980c-31,-1 -56,-27 -56,-58l0 0c0,31 -25,57 -56,58 31,1 56,27 56,58l0 0c0,-31 25,-57 56,-58z"/>
   <path class="fil2" d="M1261 2277c2,2 4,3 7,2 2,-2 3,-5 1,-7 -1,-2 -4,-3 -6,-1 -3,1 -3,4 -2,6z"/>
   <path class="fil5" d="M2517 2221c-1,2 -5,3 -7,2 -3,-2 -4,-5 -2,-8 1,-3 5,-3 7,-2 3,2 4,5 2,8z"/>
   <path class="fil3" d="M4777 4147c-2,2 -5,3 -7,2 -3,-2 -4,-5 -2,-8 1,-3 5,-3 7,-2 3,2 4,5 2,8z"/>
   <polygon class="fil6" points="3175,6391 3173,6396 3174,6395 "/>
   <path class="fil2" d="M1505 8978c-2,-2 -5,-3 -7,-2 -3,2 -4,5 -2,8 1,3 5,3 7,2 3,-2 4,-5 2,-8z"/>
   <path class="fil4" d="M554 4785c-2,-3 -5,-3 -8,-2 -2,2 -3,5 -1,8 1,2 5,3 7,1 3,-1 3,-5 2,-7z"/>
   <path class="fil4" d="M2848 4332c-2,-2 -5,-3 -7,-2 -3,2 -4,5 -2,8 1,3 5,3 7,2 3,-2 4,-5 2,-8z"/>
   <path class="fil3" d="M2750 6710c-2,-2 -5,-3 -7,-1 -3,1 -4,5 -2,7 1,3 5,4 7,2 3,-2 4,-5 2,-8z"/>
   <path class="fil5" d="M3496 6004c2,3 5,4 8,2 2,-1 3,-5 2,-7 -2,-3 -5,-4 -8,-2 -3,1 -3,5 -2,7z"/>
   <path class="fil5" d="M3677 6058c1,2 5,3 7,1 3,-1 4,-5 2,-7 -2,-3 -5,-4 -8,-2 -2,2 -3,5 -1,8z"/>
   <path class="fil3" d="M841 5334c2,3 5,3 7,2 3,-2 4,-5 2,-8 -1,-2 -5,-3 -7,-2 -3,2 -4,5 -2,8z"/>
   <path class="fil4" d="M3291 6210c2,2 5,3 8,1 3,-1 3,-5 2,-7 -2,-3 -5,-4 -8,-2 -2,2 -3,5 -2,8z"/>
   <path class="fil3" d="M4997 7014c2,3 5,4 8,2 2,-2 3,-5 1,-8 -1,-2 -4,-3 -7,-1 -3,1 -3,5 -2,7z"/>
   <path class="fil5" d="M4905 5955c2,2 5,3 7,2 3,-2 4,-5 2,-8 -1,-3 -5,-3 -7,-2 -3,2 -4,5 -2,8z"/>
   <path class="fil5" d="M3125 6100c1,2 5,3 7,2 3,-2 3,-5 2,-8 -2,-3 -5,-3 -8,-2 -2,2 -3,5 -1,8z"/>
   <path class="fil5" d="M2600 6199c2,2 5,3 8,2 2,-2 3,-5 1,-8 -1,-3 -5,-3 -7,-2 -3,2 -4,5 -2,8z"/>
   <path class="fil3" d="M3786 6658c1,3 5,4 7,2 3,-1 4,-5 2,-7 -2,-3 -5,-4 -7,-2 -3,1 -4,5 -2,7z"/>
   <path class="fil4" d="M1956 6362c-2,3 -5,4 -8,2 -2,-1 -3,-5 -2,-7 2,-3 5,-4 8,-2 2,1 3,5 2,7z"/>
   <path class="fil3" d="M2798 6250c-2,3 -5,4 -8,2 -2,-2 -3,-5 -1,-8 1,-2 5,-3 7,-1 3,1 3,5 2,7z"/>
   <path class="fil2" d="M4061 6322c-2,3 -5,4 -8,2 -2,-2 -3,-5 -1,-8 1,-2 5,-3 7,-1 3,1 4,5 2,7z"/>
   <path class="fil4" d="M4788 9398c-1,3 -5,3 -7,2 -3,-2 -3,-5 -2,-8 2,-2 5,-3 8,-2 2,2 3,5 1,8z"/>
   <path class="fil2" d="M3939 5412c-1,2 -5,3 -7,1 -3,-1 -4,-5 -2,-7 2,-3 5,-4 8,-2 2,2 3,5 1,8z"/>
   <path class="fil4" d="M1794 4939c-1,2 -5,3 -7,2 -3,-2 -4,-5 -2,-8 2,-3 5,-3 8,-2 2,2 3,5 1,8z"/>
   <path class="fil5" d="M9866 3590c-12,0 -22,-10 -22,-22l0 0c0,12 -10,22 -22,22 12,0 22,10 22,22l0 0c0,-12 10,-22 22,-22z"/>
   <path class="fil2" d="M217 1896c2,3 5,4 8,2 2,-2 3,-5 1,-8 -1,-2 -5,-3 -7,-1 -3,1 -4,5 -2,7z"/>
   <path class="fil4" d="M6630 9594c2,2 5,3 8,1 3,-1 3,-5 2,-7 -2,-3 -5,-3 -8,-2 -2,2 -3,5 -2,8z"/>
   <path class="fil4" d="M1352 6139c2,2 5,3 8,2 2,-2 3,-5 1,-8 -1,-3 -5,-3 -7,-2 -3,2 -4,5 -2,8z"/>
   <path class="fil4" d="M2347 6782c2,3 5,4 8,2 2,-1 3,-5 1,-7 -1,-3 -5,-4 -7,-2 -3,1 -3,5 -2,7z"/>
   <path class="fil3" d="M4092 7423c1,3 5,3 7,2 3,-2 4,-5 2,-8 -2,-2 -5,-3 -7,-2 -3,2 -4,5 -2,8z"/>
   <path class="fil3" d="M1417 6559c1,3 5,4 7,2 3,-2 4,-5 2,-8 -2,-2 -5,-3 -8,-1 -2,1 -3,5 -1,7z"/>
   <path class="fil4" d="M1275 6534c1,2 5,3 7,1 3,-1 3,-5 2,-7 -2,-3 -5,-4 -8,-2 -2,2 -3,5 -1,8z"/>
   <path class="fil4" d="M1372 6794c1,2 5,3 7,2 3,-2 4,-6 2,-8 -1,-3 -5,-3 -7,-2 -3,2 -4,5 -2,8z"/>
   <path class="fil4" d="M4164 4445c2,3 5,3 8,2 2,-2 3,-5 1,-8 -1,-2 -5,-3 -7,-2 -3,2 -4,5 -2,8z"/>
   <path class="fil1" d="M1555 5774c2,0 2,3 0,3 -2,0 -2,-3 0,-3z"/>
   <path class="fil1" d="M1584 5773c4,0 4,5 0,5 -3,0 -3,-5 0,-5z"/>
   <path class="fil1" d="M1545 5991c5,0 5,8 0,8 -4,0 -4,-8 0,-8z"/>
   <path class="fil5" d="M5323 9230c-2,-2 -5,-3 -8,-1 -2,1 -3,5 -2,7 2,3 5,4 8,2 3,-2 3,-5 2,-8z"/>
   <path class="fil3" d="M3796 5960c2,3 5,4 8,2 2,-2 3,-5 1,-8 -1,-2 -5,-3 -7,-1 -3,1 -3,5 -2,7z"/>
   <path class="fil5" d="M3148 5952c1,3 5,4 7,2 3,-2 3,-5 2,-8 -2,-2 -5,-3 -8,-1 -2,1 -3,5 -1,7z"/>
   <path class="fil5" d="M3376 5858c1,3 5,3 7,2 3,-2 4,-5 2,-8 -2,-2 -5,-3 -8,-2 -2,2 -3,6 -1,8z"/>
   <path class="fil2" d="M651 6161c-2,3 -5,4 -8,2 -2,-2 -3,-5 -1,-8 1,-2 5,-3 7,-1 3,1 4,5 2,7z"/>
   <path class="fil4" d="M6564 4015c-1,3 -4,4 -7,2 -3,-2 -3,-5 -2,-8 2,-2 5,-3 8,-1 2,1 3,5 1,7z"/>
   <path class="fil2" d="M4504 435c-1,3 -5,4 -7,2 -3,-2 -4,-5 -2,-8 1,-2 5,-3 7,-1 3,1 4,5 2,7z"/>
   <path class="fil3" d="M1803 8363c-2,3 -5,4 -8,2 -2,-2 -3,-5 -2,-8 2,-2 5,-3 8,-1 3,1 3,5 2,7z"/>
   <path class="fil4" d="M2188 5877c-2,3 -5,4 -8,2 -2,-1 -3,-5 -1,-7 1,-3 4,-4 7,-2 3,1 3,5 2,7z"/>
   <path class="fil4" d="M2464 5855c-2,3 -5,3 -8,2 -2,-2 -3,-5 -2,-8 2,-2 5,-3 8,-2 2,2 3,5 2,8z"/>
   <path class="fil4" d="M4600 310c-1,3 -5,4 -7,2 -3,-1 -4,-5 -2,-7 2,-3 5,-4 7,-2 3,1 4,5 2,7z"/>
   <path class="fil2" d="M898 8742c-1,2 -5,3 -7,2 -3,-2 -4,-5 -2,-8 2,-3 5,-3 8,-2 2,2 3,5 1,8z"/>
   <path class="fil4" d="M4722 7451c-1,2 -5,3 -7,1 -3,-1 -3,-5 -2,-7 2,-3 5,-4 8,-2 2,2 3,5 1,8z"/>
   <path class="fil2" d="M4765 4657c-2,2 -5,3 -8,1 -2,-1 -3,-5 -2,-7 2,-3 5,-4 8,-2 3,2 3,5 2,8z"/>
   <path class="fil5" d="M3535 2641c-5,0 -5,7 0,7 4,0 4,-7 0,-7z"/>
   <polygon class="fil6" points="1905,3041 1907,3045 1906,3044 "/>
   <path class="fil4" d="M1878 3128c2,-3 5,-4 8,-2 3,2 3,5 2,8 -2,2 -5,3 -8,1 -2,-1 -3,-5 -2,-7z"/>
   <path class="fil3" d="M1896 3279c2,-2 5,-3 8,-2 2,2 3,5 2,8 -2,3 -5,3 -8,2 -2,-2 -3,-5 -2,-8z"/>
   <path class="fil5" d="M2190 4273c2,-3 5,-4 8,-2 2,2 3,5 1,8 -1,2 -5,3 -7,1 -3,-1 -3,-5 -2,-7z"/>
   <path class="fil5" d="M1584 2654c-2,2 -5,3 -8,2 -2,-2 -3,-5 -2,-8 2,-3 5,-3 8,-2 3,2 3,5 2,8z"/>
   <path class="fil4" d="M1789 2859c-2,3 -5,3 -8,2 -3,-2 -3,-5 -2,-8 2,-2 5,-3 8,-2 2,2 3,5 2,8z"/>
   <path class="fil5" d="M1932 2602c-1,2 -4,3 -7,1 -3,-1 -3,-5 -2,-7 2,-3 5,-4 8,-2 2,2 3,5 1,8z"/>
   <path class="fil3" d="M1522 2951c-1,2 -5,3 -7,1 -3,-1 -4,-5 -2,-7 1,-3 5,-4 7,-2 3,2 4,5 2,8z"/>
   <path class="fil5" d="M1613 3101c-1,2 -5,3 -7,1 -3,-1 -4,-5 -2,-7 1,-3 5,-4 7,-2 3,2 4,5 2,8z"/>
   <path class="fil5" d="M3124 3012c2,2 5,3 8,2 2,-2 3,-5 2,-8 -2,-3 -5,-3 -8,-2 -2,2 -3,5 -2,8z"/>
   <path class="fil4" d="M2034 328c1,2 5,3 7,1 3,-1 4,-5 2,-7 -1,-3 -5,-4 -7,-2 -3,2 -4,5 -2,8z"/>
   <path class="fil5" d="M3284 2652c1,2 5,3 7,1 3,-1 4,-5 2,-7 -1,-3 -5,-4 -7,-2 -3,2 -4,5 -2,8z"/>
   <path class="fil5" d="M3047 2829c1,2 5,3 7,1 3,-1 4,-5 2,-7 -2,-3 -5,-4 -8,-2 -2,2 -3,5 -1,8z"/>
   <path class="fil2" d="M2787 2659c2,2 5,3 8,1 2,-1 3,-5 1,-7 -1,-3 -5,-3 -7,-2 -3,2 -4,5 -2,8z"/>
   <path class="fil5" d="M3464 3632c2,2 5,3 8,1 2,-1 3,-5 1,-7 -1,-3 -5,-4 -7,-2 -3,2 -4,5 -2,8z"/>
   <path class="fil4" d="M1638 3493c1,3 5,4 7,2 3,-1 4,-5 2,-7 -2,-3 -5,-4 -8,-2 -2,1 -3,5 -1,7z"/>
   <path class="fil5" d="M2086 3269c12,0 21,-10 21,-22l1 0c0,12 9,22 21,22 -12,1 -21,10 -21,23l-1 0c0,-13 -9,-22 -21,-23z"/>
   <path class="fil5" d="M3541 3315c-2,3 -5,3 -8,2 -2,-2 -3,-5 -2,-8 2,-2 5,-3 8,-2 3,2 3,5 2,8z"/>
   <path class="fil5" d="M3428 3101c-2,3 -5,4 -8,2 -2,-1 -3,-5 -1,-7 1,-3 5,-4 7,-2 3,1 3,5 2,7z"/>
   <path class="fil5" d="M3090 3165c-2,2 -5,3 -8,1 -3,-1 -3,-5 -2,-7 2,-3 5,-4 8,-2 2,2 3,5 2,8z"/>
   <path class="fil5" d="M3504 3374c-1,2 -5,3 -7,1 -3,-1 -4,-5 -2,-7 2,-3 5,-4 7,-2 3,2 4,5 2,8z"/>
   <path class="fil5" d="M3220 3248c-2,3 -5,4 -8,2 -2,-2 -3,-5 -1,-8 1,-2 5,-3 7,-1 3,1 4,5 2,7z"/>
   <path class="fil4" d="M1128 1612c-2,3 -5,4 -8,2 -2,-2 -3,-5 -2,-8 2,-2 5,-3 8,-1 2,1 3,5 2,7z"/>
   <path class="fil5" d="M8103 858c19,-1 34,-17 34,-36l1 0c0,19 15,35 34,36 -19,0 -34,16 -34,36l-1 0c0,-20 -15,-36 -34,-36z"/>
   <path class="fil1" d="M1573 3695c2,0 2,3 0,3 -2,0 -2,-3 0,-3z"/>
   <path class="fil1" d="M1602 3694c4,0 4,6 0,6 -3,0 -3,-6 0,-6z"/>
   <path class="fil5" d="M3173 4521c-12,0 -21,-10 -21,-22l-1 0c0,12 -9,22 -21,22 12,1 21,11 21,23l0 0c0,-12 10,-22 22,-23z"/>
   <path class="fil1" d="M602 9350l0 -2c0,-6 4,-11 9,-10 6,0 10,4 10,10l0 2c0,6 -4,11 -10,10 -5,0 -9,-4 -9,-10z"/>
   <path class="fil1" d="M4424 8167c12,0 12,-18 0,-18 -12,0 -12,18 0,18z"/>
   <path class="fil2" d="M1004 5794c1,3 4,3 6,2 2,-2 3,-4 2,-7 -2,-2 -5,-3 -7,-1 -2,1 -3,4 -1,6z"/>
   <path class="fil5" d="M397 7146c12,0 12,-18 0,-18 -12,0 -12,18 0,18z"/>
   <path class="fil2" d="M1978 8650c1,3 4,3 6,2 3,-2 3,-4 2,-7 -1,-2 -4,-3 -7,-1 -2,1 -2,4 -1,6z"/>
   <path class="fil2" d="M3206 8714c1,2 4,3 6,1 2,-1 3,-4 2,-6 -2,-2 -5,-3 -7,-2 -2,2 -3,5 -1,7z"/>
   <path class="fil2" d="M4427 5393c-1,2 -5,3 -7,2 -3,-2 -4,-5 -2,-8 2,-3 5,-3 8,-2 2,2 3,5 1,8z"/>
   <path class="fil1" d="M4297 6651l3 0c5,0 10,-5 10,-10 0,-5 -4,-10 -10,-10l-3 0c-5,0 -10,5 -10,10 1,5 5,10 10,10z"/>
   <path class="fil4" d="M814 3923c-2,2 -5,3 -8,2 -2,-2 -3,-5 -2,-8 2,-3 5,-3 8,-2 2,2 3,5 2,8z"/>
   <path class="fil4" d="M4449 3868c-2,-3 -5,-4 -8,-2 -3,2 -3,5 -2,8 2,2 5,3 8,1 2,-1 3,-5 2,-7z"/>
   <path class="fil5" d="M4436 1939c-12,-1 -21,-11 -21,-23l-1 0c0,12 -9,22 -21,23 12,0 21,10 21,22l1 0c0,-12 9,-22 21,-22z"/>
   <path class="fil5" d="M584 1529c1,3 5,4 7,2 3,-2 4,-5 2,-8 -1,-2 -5,-3 -7,-1 -3,1 -4,5 -2,7z"/>
   <path class="fil1" d="M2912 1830c12,0 12,-18 0,-18 -11,0 -11,18 0,18z"/>
   <path class="fil4" d="M559 2486c14,1 25,12 25,26l0 0c0,-14 11,-25 24,-26 -13,0 -24,-11 -24,-25l0 0c0,14 -11,25 -25,25z"/>
   <path class="fil1" d="M3956 1797l0 -2c0,-7 11,-7 11,0l0 2c0,7 -11,7 -11,0l0 -2c0,-7 11,-7 11,0l0 2c0,7 -11,7 -11,0z"/>
   <path class="fil4" d="M3752 1753c-1,3 -5,4 -7,2 -3,-2 -4,-5 -2,-8 2,-2 5,-3 8,-1 2,1 3,5 1,7z"/>
   <path class="fil2" d="M3890 1562c1,2 4,3 6,2 2,-2 3,-5 2,-7 -2,-2 -5,-3 -7,-1 -2,1 -3,4 -1,6z"/>
   <path class="fil5" d="M3866 2034c-2,2 -5,3 -8,2 -2,-2 -3,-5 -2,-8 2,-3 5,-3 8,-2 2,2 3,5 2,8z"/>
   <path class="fil4" d="M3725 1458c-1,2 -5,3 -7,1 -3,-1 -3,-5 -2,-7 2,-3 5,-4 8,-2 2,2 3,5 1,8z"/>
   <path class="fil5" d="M993 3025c2,3 5,3 8,2 2,-2 3,-5 1,-8 -1,-2 -5,-3 -7,-2 -3,2 -4,6 -2,8z"/>
   <path class="fil4" d="M788 3230c2,3 5,4 8,2 2,-2 3,-5 2,-8 -2,-2 -5,-3 -8,-1 -3,1 -3,5 -2,7z"/>
   <path class="fil5" d="M621 3120c2,3 5,4 8,2 2,-1 3,-5 2,-7 -2,-3 -5,-4 -8,-2 -2,1 -3,5 -2,7z"/>
   <path class="fil5" d="M644 2973c2,3 5,3 8,2 2,-2 3,-5 2,-8 -2,-2 -5,-3 -8,-2 -2,2 -3,5 -2,8z"/>
   <path class="fil5" d="M872 2879c2,2 5,3 8,2 3,-2 3,-6 2,-8 -2,-3 -5,-3 -8,-2 -2,2 -3,5 -2,8z"/>
   <path class="fil1" d="M1509 1783l6 0c5,0 9,-4 9,-9 0,-5 -4,-9 -9,-9l-6 0c-5,0 -9,4 -9,9 0,5 4,9 9,9z"/>
   <path class="fil4" d="M3590 2221c-2,2 -5,3 -8,2 -3,-2 -3,-5 -2,-8 2,-3 5,-3 8,-2 2,2 3,5 2,8z"/>
   <path class="fil5" d="M4352 2983c1,2 4,3 7,2 3,-2 3,-5 2,-8 -2,-3 -5,-3 -8,-2 -2,2 -3,5 -1,8z"/>
   <path class="fil5" d="M2064 1874c1,-2 5,-3 7,-1 3,1 4,5 2,7 -2,3 -5,4 -7,2 -3,-2 -4,-5 -2,-8z"/>
   <path class="fil5" d="M2594 3694c12,0 22,-10 22,-22l0 0c0,12 10,22 22,22 -12,0 -22,10 -22,23l0 0c0,-13 -10,-23 -22,-23z"/>
   <path class="fil4" d="M3209 1529c13,1 24,12 24,26l0 0c0,-14 11,-25 25,-26 -14,0 -25,-11 -25,-25l0 0c0,14 -11,25 -24,25z"/>
   <path class="fil5" d="M4157 2750c2,3 5,4 8,2 2,-2 3,-5 2,-8 -2,-2 -5,-3 -8,-1 -2,1 -3,5 -2,7z"/>
   <path class="fil3" d="M4355 2802c-1,2 -5,3 -7,1 -3,-1 -4,-5 -2,-7 1,-3 5,-4 7,-2 3,2 4,5 2,8z"/>
   <path class="fil4" d="M4050 2735c-1,2 -5,3 -7,1 -3,-1 -4,-5 -2,-7 2,-3 5,-4 8,-2 2,2 3,5 1,8z"/>
   <path class="fil4" d="M1749 2120c-2,3 -5,4 -8,2 -3,-2 -3,-5 -2,-8 2,-2 5,-3 8,-1 2,1 3,5 2,7z"/>
   <path class="fil2" d="M4123 2515c-2,3 -5,3 -8,2 -2,-2 -3,-5 -2,-8 2,-2 5,-3 8,-2 2,2 3,5 2,8z"/>
   <path class="fil4" d="M4643 1549c-2,3 -5,4 -8,2 -2,-2 -3,-5 -1,-8 1,-2 5,-3 7,-1 3,1 4,5 2,7z"/>
   <path class="fil4" d="M4219 2390c-2,3 -5,4 -8,2 -2,-2 -3,-5 -2,-8 2,-2 5,-3 8,-1 3,1 3,5 2,7z"/>
   <path class="fil1" d="M8181 5609c-5,0 -5,8 0,8 6,0 6,-8 0,-8z"/>
   <path class="fil1" d="M8622 4496l-6 0c-8,0 -8,-12 0,-12l6 0c8,0 8,12 0,12z"/>
   <path class="fil2" d="M8557 5529c-2,2 -5,3 -7,2 -2,-2 -3,-5 -1,-7 1,-2 4,-3 6,-1 2,1 3,4 2,6z"/>
   <path class="fil3" d="M7684 5080c-2,-3 -5,-3 -8,-2 -2,2 -3,5 -1,8 1,2 5,3 7,2 3,-2 4,-5 2,-8z"/>
   <path class="fil3" d="M6815 5200c2,3 5,4 7,2 3,-1 4,-5 2,-7 -1,-3 -5,-4 -7,-2 -3,1 -4,5 -2,7z"/>
   <path class="fil3" d="M8350 5502c2,2 5,3 8,1 2,-1 3,-5 2,-7 -2,-3 -5,-4 -8,-2 -3,2 -3,5 -2,8z"/>
   <path class="fil3" d="M6453 5078c2,3 5,3 8,2 2,-2 3,-5 2,-8 -2,-2 -5,-3 -8,-2 -2,2 -3,5 -2,8z"/>
   <path class="fil3" d="M9970 7385c2,-3 5,-4 8,-2 2,1 3,5 1,7 -1,3 -5,4 -7,2 -3,-1 -4,-5 -2,-7z"/>
   <path class="fil4" d="M7967 5456c1,2 5,3 7,1 3,-1 4,-5 2,-7 -1,-3 -5,-4 -7,-2 -3,2 -4,5 -2,8z"/>
   <path class="fil3" d="M7557 5394c1,3 5,3 7,2 3,-2 4,-5 2,-8 -2,-2 -5,-3 -7,-2 -3,2 -4,5 -2,8z"/>
   <path class="fil4" d="M7779 8296c1,3 5,4 8,2 3,-2 4,-6 2,-8 -2,-3 -6,-4 -8,-2 -3,1 -4,5 -2,8z"/>
   <path class="fil1" d="M6622 7439c-1,-1 -2,-2 -2,-3 -3,-2 -7,2 -4,4 0,1 1,2 2,3 3,3 7,-1 4,-4z"/>
   <path class="fil1" d="M7282 3036c-2,1 -4,2 -6,3 -3,1 0,6 3,4 2,-1 4,-2 6,-3 3,-1 0,-6 -3,-4z"/>
   <path class="fil1" d="M7671 3140c-4,0 -4,5 0,5 3,0 3,-5 0,-5z"/>
   <path class="fil1" d="M6293 7378c1,-1 2,-2 3,-3 1,-1 -1,-3 -2,-2 -1,1 -2,2 -3,3 -2,1 0,3 2,2z"/>
   <path class="fil1" d="M6295 7633c-4,0 -4,6 0,6 3,0 3,-6 0,-6z"/>
   <path class="fil1" d="M6289 7700c-4,0 -4,6 0,6 3,0 3,-6 0,-6z"/>
   <path class="fil1" d="M6471 7300c1,-1 2,-1 3,-2 3,-3 -1,-7 -4,-4 -1,1 -2,1 -3,2 -2,3 2,7 4,4z"/>
   <path class="fil1" d="M6411 7409c-4,0 -4,6 0,6 4,0 4,-6 0,-6z"/>
   <path class="fil1" d="M6414 6914l-3 0c-4,0 -4,6 0,6l3 0c3,0 3,-6 0,-6z"/>
   <path class="fil1" d="M6182 446c-3,0 -3,6 0,6 4,0 4,-6 0,-6z"/>
   <path class="fil1" d="M9950 2863l0 -1c0,-8 -11,-8 -11,0l0 1c0,8 11,8 11,0l0 -1c0,-8 -11,-8 -11,0l0 1c0,8 11,8 11,0z"/>
   <path class="fil1" d="M6312 8294c-7,0 -7,11 0,11 7,0 7,-11 0,-11z"/>
   <path class="fil1" d="M6670 6798c-4,0 -4,6 0,6 4,0 4,-6 0,-6z"/>
   <path class="fil1" d="M6748 6670c-3,0 -3,6 0,6 4,0 4,-6 0,-6z"/>
   <path class="fil1" d="M6879 6740c-3,0 -3,6 0,6 4,0 4,-6 0,-6z"/>
   <path class="fil1" d="M6334 490c-4,0 -4,6 0,6 3,0 3,-6 0,-6z"/>
   <path class="fil1" d="M6405 8063c-8,0 -8,12 0,12 8,0 8,-12 0,-12z"/>
   <path class="fil1" d="M6568 8181l0 -3c0,-3 -5,-3 -5,0l0 3c0,4 5,4 5,0z"/>
   <path class="fil1" d="M6382 6781l0 -3c0,-4 -6,-4 -6,0l0 3c0,3 6,3 6,0z"/>
   <path class="fil1" d="M6379 6964l-3 0c-4,0 -4,6 0,6l3 0c4,0 4,-6 0,-6z"/>
   <path class="fil1" d="M6327 6914c-4,0 -4,6 0,6 3,0 3,-6 0,-6z"/>
   <path class="fil1" d="M6315 7060c-4,0 -4,6 0,6 4,0 4,-6 0,-6z"/>
   <path class="fil1" d="M6324 7249c-4,0 -4,6 0,6 3,0 3,-6 0,-6z"/>
   <path class="fil1" d="M7097 6590c0,-1 1,-2 2,-3 3,-2 -1,-6 -4,-4 -1,1 -2,2 -2,3 -3,3 1,7 4,4z"/>
   <path class="fil1" d="M7553 3143c-1,-1 -2,-2 -3,-2 -2,-3 -6,1 -4,4 1,0 2,1 3,2 3,3 7,-1 4,-4z"/>
   <path class="fil1" d="M5401 6679l-3 0c-3,0 -5,2 -5,4 0,3 2,5 5,5l3 0c2,0 4,-2 4,-5 0,-2 -2,-4 -4,-4z"/>
   <path class="fil1" d="M6187 7355l-3 0c-2,0 -4,2 -4,5 0,2 2,4 4,4l3 0c2,0 4,-2 4,-4 0,-3 -2,-5 -4,-5z"/>
   <path class="fil1" d="M6280 8368c-5,0 -5,8 0,8 5,0 5,-8 0,-8z"/>
   <path class="fil1" d="M6362 8598c1,-1 2,-2 3,-3 2,-2 2,-4 0,-6 -2,-2 -4,-2 -6,0 -1,1 -2,2 -3,3 -2,2 -2,4 0,6 2,2 4,2 6,0z"/>
   <path class="fil1" d="M6283 8121c-6,0 -6,8 0,8 5,0 5,-8 0,-8z"/>
   <path class="fil1" d="M6182 8049l0 -3c0,-2 -2,-4 -4,-4 -2,0 -4,2 -4,4l0 3c0,2 2,4 4,4 2,0 4,-1 4,-4z"/>
   <path class="fil1" d="M7639 2972c-6,0 -6,9 0,9 5,0 5,-9 0,-9z"/>
   <path class="fil1" d="M6204 6794c-5,0 -5,8 0,8 6,0 6,-8 0,-8z"/>
   <path class="fil1" d="M6466 6637c-5,0 -5,8 0,8 6,0 6,-8 0,-8z"/>
   <path class="fil1" d="M6629 6559c-1,1 -2,2 -3,3 -1,2 -1,5 0,6 2,2 5,2 6,0 1,-1 2,-2 3,-3 2,-1 2,-4 0,-6 -2,-1 -4,-1 -6,0z"/>
   <path class="fil1" d="M6850 6573c-5,0 -5,8 0,8 6,0 6,-8 0,-8z"/>
   <path class="fil1" d="M7499 2952c-6,0 -6,9 0,9 5,0 5,-9 0,-9z"/>
   <path class="fil1" d="M7272 3154c-1,1 -2,2 -3,3 -2,2 -2,4 0,6 2,2 4,2 6,0l3 -3c1,-2 1,-4 0,-6 -2,-2 -5,-2 -6,0z"/>
   <path class="fil1" d="M6748 7434c-5,0 -5,8 0,8 6,0 6,-8 0,-8z"/>
   <path class="fil1" d="M6124 509c-5,0 -5,8 0,8 6,0 6,-8 0,-8z"/>
   <path class="fil1" d="M6780 7495c-5,0 -5,8 0,8 6,0 6,-8 0,-8z"/>
   <path class="fil1" d="M5873 8818l0 -3c0,-5 -4,-10 -10,-9 -5,0 -10,4 -10,9l0 3c0,6 5,10 10,10 6,0 10,-4 10,-10z"/>
   <path class="fil1" d="M6686 8142c-4,0 -4,6 0,6 4,0 4,-6 0,-6z"/>
   <path class="fil1" d="M6216 533c1,-1 2,-2 3,-3 3,-3 -1,-7 -4,-4 -1,1 -2,2 -3,3 -2,2 2,6 4,4z"/>
   <path class="fil1" d="M6409 7756l0 -3c0,-2 -2,-5 -4,-5 -2,1 -4,2 -4,5l0 3c0,2 2,4 4,4 2,0 4,-2 4,-4z"/>
   <path class="fil1" d="M6621 7772c-5,0 -5,9 0,9 6,0 6,-9 0,-9z"/>
   <path class="fil1" d="M6875 7778c-6,0 -6,9 0,9 5,0 5,-9 0,-9z"/>
   <path class="fil1" d="M6466 7531c-6,0 -6,9 0,9 5,0 5,-9 0,-9z"/>
   <path class="fil1" d="M6793 7918c-5,0 -5,9 0,9 5,0 5,-9 0,-9z"/>
   <path class="fil1" d="M6973 7949c-8,0 -8,12 0,12 7,0 7,-12 0,-12z"/>
   <path class="fil1" d="M6556 7683c-7,0 -7,11 0,11 7,0 7,-11 0,-11z"/>
   <path class="fil1" d="M6543 7900c-7,0 -8,11 0,11 7,0 7,-11 0,-11z"/>
   <path class="fil1" d="M8402 7351c-4,0 -4,-6 0,-6 3,0 3,6 0,6z"/>
   <path class="fil1" d="M8247 7476c-3,0 -3,-6 0,-6 4,0 4,6 0,6z"/>
   <path class="fil1" d="M8242 7409c-4,0 -4,-5 0,-5 3,0 3,5 0,5z"/>
   <path class="fil1" d="M8562 7208c-4,0 -4,-5 0,-5 3,0 3,5 0,5z"/>
   <path class="fil1" d="M8067 7433l0 2c0,4 -6,4 -6,0l0 -2c0,-4 6,-4 6,0z"/>
   <path class="fil1" d="M9786 6526l-6 0c-8,0 -8,-12 0,-12l6 0c8,0 8,12 0,12z"/>
   <path class="fil1" d="M7185 7229c-3,0 -3,-6 0,-6 4,0 4,6 0,6z"/>
   <path class="fil1" d="M7475 6995c-8,0 -8,-12 0,-12 8,0 8,12 0,12z"/>
   <path class="fil1" d="M9078 661c-8,0 -8,-12 0,-12 8,0 8,12 0,12z"/>
   <path class="fil1" d="M8873 543c-8,0 -8,-12 0,-12 8,0 8,12 0,12z"/>
   <path class="fil1" d="M7366 8574c-8,0 -8,-12 0,-12 8,0 8,12 0,12z"/>
   <path class="fil1" d="M8639 7963c1,1 2,2 3,3 3,3 -1,7 -4,4 -1,-1 -2,-2 -3,-3 -2,-3 2,-7 4,-4z"/>
   <path class="fil1" d="M7400 7343c1,1 2,2 3,3 2,3 -2,7 -4,4 -1,-1 -2,-2 -3,-3 -3,-2 1,-6 4,-4z"/>
   <path class="fil1" d="M9751 7657l-6 0c-5,0 -9,-4 -9,-9 0,-5 4,-9 9,-9l6 0c5,0 9,4 9,9 0,5 -4,9 -9,9z"/>
   <path class="fil1" d="M5183 875c-11,0 -11,-18 0,-18 12,0 12,18 0,18z"/>
   <path class="fil1" d="M9299 7189c-7,0 -7,-12 0,-12 8,0 8,12 0,12z"/>
   <path class="fil1" d="M8858 6969c-1,-1 -2,-2 -3,-3 -2,-2 -2,-5 0,-6 2,-2 4,-2 6,0 1,1 2,2 3,3 1,1 1,4 0,6 -2,1 -5,1 -6,0z"/>
   <path class="fil1" d="M7621 6479c-5,0 -5,-8 0,-8 5,0 5,8 0,8z"/>
   <path class="fil1" d="M7831 7504c-5,0 -5,-9 0,-9 6,0 6,9 0,9z"/>
   <path class="fil1" d="M5616 9699c-5,0 -5,-8 0,-8 6,0 6,8 0,8z"/>
   <path class="fil1" d="M5225 2574c-12,0 -12,-19 0,-19 12,0 12,19 0,19z"/>
   <path class="fil1" d="M8710 7893c-11,0 -11,-18 0,-18 12,0 12,18 0,18z"/>
   <path class="fil1" d="M8768 8135c-5,0 -5,-8 0,-8 6,0 6,8 0,8z"/>
   <path class="fil1" d="M8701 7675c-5,0 -5,-8 0,-8 6,0 6,8 0,8z"/>
   <path class="fil1" d="M6468 8371c-6,0 -6,-9 0,-9 5,0 5,9 0,9z"/>
   <path class="fil1" d="M724 725c-12,0 -12,-19 0,-19 13,0 13,19 0,19z"/>
   <path class="fil1" d="M8648 9097l-3 0c-5,0 -10,-5 -10,-10 1,-5 5,-10 10,-10l3 0c5,0 10,5 10,10 0,5 -4,10 -10,10z"/>
   <path class="fil1" d="M5934 7840l0 7c0,7 -12,7 -12,0l0 -7c0,-7 12,-7 12,0z"/>
   <path class="fil1" d="M7289 7874c-8,0 -8,-12 0,-12 7,0 7,12 0,12z"/>
   <path class="fil1" d="M8676 8553c-1,-1 -2,-2 -3,-3 -2,-2 -2,-6 0,-8 2,-2 6,-2 8,0 1,1 2,2 3,3 2,2 2,6 0,8 -2,2 -6,2 -8,0z"/>
   <path class="fil1" d="M9655 8624l-3 0c-3,0 -6,-3 -5,-6 0,-3 2,-6 5,-6l3 0c3,0 6,3 6,6 0,3 -3,6 -6,6z"/>
   <path class="fil2" d="M8293 7180c-1,2 -4,3 -7,1 -2,-1 -2,-4 -1,-6 1,-3 4,-3 6,-2 3,1 3,4 2,7z"/>
   <path class="fil2" d="M7539 7187c-1,2 -4,3 -6,1 -3,-1 -3,-4 -2,-6 2,-2 4,-3 7,-2 2,2 3,5 1,7z"/>
   <path class="fil2" d="M9038 7579c-1,3 -4,3 -6,2 -2,-1 -3,-4 -2,-7 2,-2 5,-2 7,-1 2,1 3,4 1,6z"/>
   <path class="fil2" d="M8103 7176c-1,2 -4,3 -6,1 -3,-1 -3,-4 -2,-6 2,-2 4,-3 7,-2 2,2 3,5 1,7z"/>
   <path class="fil2" d="M9793 8029c-2,3 -5,3 -7,2 -2,-1 -3,-4 -1,-7 1,-2 4,-2 6,-1 2,1 3,4 2,6z"/>
   <path class="fil2" d="M7724 7518c-1,2 -4,3 -6,2 -3,-2 -3,-5 -2,-7 1,-2 4,-3 7,-1 2,1 2,4 1,6z"/>
   <path class="fil2" d="M8042 7560c-1,3 -4,3 -6,2 -2,-1 -3,-4 -2,-7 2,-2 5,-3 7,-1 2,1 3,4 1,6z"/>
   <path class="fil2" d="M8200 7437c-1,2 -4,3 -6,1 -3,-1 -3,-4 -2,-6 2,-2 4,-3 7,-2 2,2 3,5 1,7z"/>
   <path class="fil2" d="M7596 1600c-2,2 -5,3 -7,1 -2,-1 -3,-4 -1,-6 1,-2 4,-3 6,-2 2,2 3,5 2,7z"/>
   <path class="fil2" d="M2913 9829c-1,2 -4,3 -6,2 -2,-2 -3,-5 -2,-7 2,-2 5,-3 7,-1 2,1 3,4 1,6z"/>
   <path class="fil2" d="M9264 8199c-2,2 -5,3 -7,1 -2,-1 -3,-4 -1,-6 1,-2 4,-3 6,-2 2,2 3,5 2,7z"/>
   <path class="fil2" d="M7471 7691c-1,2 -4,3 -6,1 -2,-1 -3,-4 -2,-6 2,-2 5,-3 7,-2 2,2 3,5 1,7z"/>
   <path class="fil2" d="M9039 2542c1,3 5,3 7,2 3,-2 3,-5 2,-8 -2,-2 -5,-3 -8,-2 -2,2 -3,5 -1,8z"/>
   <path class="fil4" d="M7413 7223c1,3 5,4 7,2 3,-1 4,-5 2,-7 -2,-3 -5,-4 -8,-2 -2,1 -3,5 -1,7z"/>
   <path class="fil4" d="M9126 1993c2,3 5,4 8,2 2,-2 3,-5 1,-8 -1,-2 -5,-3 -7,-1 -3,1 -3,5 -2,7z"/>
   <path class="fil2" d="M6478 7097c1,3 5,4 7,2 3,-1 4,-5 2,-7 -2,-3 -5,-4 -8,-2 -2,1 -3,5 -1,7z"/>
   <path class="fil4" d="M5877 7114c2,2 5,3 8,2 3,-2 3,-5 2,-8 -2,-3 -5,-3 -8,-2 -2,2 -3,5 -2,8z"/>
   <path class="fil4" d="M8225 8039c2,3 5,4 8,2 3,-2 3,-5 2,-8 -2,-2 -5,-3 -8,-1 -2,1 -3,5 -2,7z"/>
   <path class="fil4" d="M7761 7842c2,3 5,4 8,2 2,-2 3,-5 2,-7 -2,-3 -5,-4 -8,-2 -3,1 -3,5 -2,7z"/>
   <path class="fil4" d="M9273 553c2,2 5,3 8,2 3,-2 3,-5 2,-8 -2,-3 -5,-3 -8,-2 -2,2 -3,5 -2,8z"/>
   <path class="fil4" d="M8818 619c2,3 5,4 8,2 2,-1 3,-5 2,-7 -2,-3 -5,-4 -8,-2 -2,1 -3,5 -2,7z"/>
   <path class="fil4" d="M8031 6658c2,3 5,4 8,2 2,-2 3,-5 2,-8 -2,-2 -5,-3 -8,-1 -2,1 -3,5 -2,7z"/>
   <path class="fil4" d="M6242 7466c1,2 5,3 7,1 3,-1 4,-5 2,-7 -2,-3 -5,-4 -7,-2 -3,2 -4,5 -2,8z"/>
   <path class="fil5" d="M9475 8362c21,-1 37,-17 37,-38l1 0c0,21 16,37 37,38 -21,1 -37,18 -37,39l-1 0c0,-21 -16,-38 -37,-39z"/>
   <path class="fil4" d="M5616 0c-13,0 -24,12 -24,25l-1 0c0,-13 -11,-25 -24,-25 13,0 24,-12 24,-26l1 0c0,14 11,26 24,26z"/>
   <path class="fil2" d="M8753 2277c-2,2 -5,3 -7,2 -2,-2 -3,-5 -1,-7 1,-2 4,-3 6,-1 2,1 3,4 2,6z"/>
   <path class="fil5" d="M7497 2221c1,2 5,3 7,2 3,-2 4,-5 2,-8 -2,-3 -5,-3 -8,-2 -2,2 -3,5 -1,8z"/>
   <path class="fil3" d="M8324 6294c2,2 5,3 8,1 2,-1 3,-5 2,-7 -2,-3 -5,-4 -8,-2 -2,2 -3,5 -2,8z"/>
   <polygon class="fil6" points="6839,6391 6841,6396 6839,6395 "/>
   <path class="fil2" d="M9709 436c1,-2 5,-3 7,-1 3,1 3,5 2,7 -2,3 -5,4 -8,2 -2,-2 -3,-5 -1,-8z"/>
   <path class="fil4" d="M9460 4785c2,-3 5,-3 7,-2 3,2 4,5 2,8 -1,2 -5,3 -7,1 -3,-1 -4,-5 -2,-7z"/>
   <path class="fil4" d="M7166 4332c1,-2 5,-3 7,-2 3,2 4,5 2,8 -2,3 -5,3 -7,2 -3,-2 -4,-5 -2,-8z"/>
   <path class="fil3" d="M5003 6256c2,-3 5,-4 8,-2 2,2 3,5 1,8 -1,2 -5,3 -7,1 -3,-1 -4,-5 -2,-7z"/>
   <path class="fil5" d="M6518 6004c-2,3 -5,4 -8,2 -3,-1 -3,-5 -2,-7 2,-3 5,-4 8,-2 2,1 3,5 2,7z"/>
   <path class="fil5" d="M6337 6058c-1,2 -5,3 -7,1 -3,-1 -4,-5 -2,-7 2,-3 5,-4 7,-2 3,2 4,5 2,8z"/>
   <path class="fil3" d="M9173 5334c-2,3 -5,3 -8,2 -2,-2 -3,-5 -1,-8 1,-2 5,-3 7,-2 3,2 3,5 2,8z"/>
   <path class="fil4" d="M9266 6674c-1,2 -5,3 -7,2 -3,-2 -4,-5 -2,-8 1,-3 5,-3 7,-2 3,2 4,5 2,8z"/>
   <path class="fil3" d="M7785 6991c-1,2 -4,3 -7,1 -3,-1 -3,-5 -2,-7 2,-3 5,-4 8,-2 2,2 3,5 1,8z"/>
   <path class="fil5" d="M5448 5955c-2,2 -5,3 -8,2 -3,-2 -3,-5 -2,-8 2,-3 5,-3 8,-2 2,2 3,5 2,8z"/>
   <path class="fil5" d="M9494 4326c-2,2 -5,3 -8,1 -2,-1 -3,-5 -1,-7 1,-3 4,-4 7,-2 3,2 3,5 2,8z"/>
   <path class="fil5" d="M7414 6199c-2,2 -5,3 -8,2 -2,-2 -3,-5 -1,-8 1,-3 4,-3 7,-2 3,2 3,5 2,8z"/>
   <path class="fil3" d="M6228 6658c-2,3 -5,4 -8,2 -2,-1 -3,-5 -1,-7 1,-3 5,-4 7,-2 3,1 4,5 2,7z"/>
   <path class="fil4" d="M8058 6362c2,3 5,4 8,2 2,-1 3,-5 1,-7 -1,-3 -4,-4 -7,-2 -3,1 -3,5 -2,7z"/>
   <path class="fil3" d="M2373 9283c1,3 5,4 7,2 3,-2 3,-5 2,-8 -2,-2 -5,-3 -8,-1 -2,1 -3,5 -1,7z"/>
   <path class="fil2" d="M5953 6322c1,3 5,4 7,2 3,-2 4,-5 2,-8 -1,-2 -5,-3 -7,-1 -3,1 -4,5 -2,7z"/>
   <path class="fil4" d="M7521 6183c1,3 5,3 7,2 3,-2 4,-5 2,-8 -2,-2 -5,-3 -8,-1 -2,1 -3,5 -1,7z"/>
   <path class="fil2" d="M6075 5412c1,2 5,3 7,1 3,-1 3,-5 2,-7 -2,-3 -5,-4 -8,-2 -2,2 -3,5 -1,8z"/>
   <path class="fil4" d="M8219 4939c2,2 5,3 8,2 3,-2 3,-5 2,-8 -2,-3 -5,-3 -8,-2 -2,2 -3,5 -2,8z"/>
   <path class="fil5" d="M3710 724c12,0 22,-10 22,-22l0 0c0,12 10,22 22,22 -12,1 -22,11 -22,23l0 0c0,-12 -10,-22 -22,-23z"/>
   <path class="fil2" d="M9797 1896c-2,3 -5,4 -8,2 -2,-2 -3,-5 -1,-8 1,-2 5,-3 7,-1 3,1 3,5 2,7z"/>
   <path class="fil4" d="M8559 6431c-2,2 -5,3 -8,2 -2,-2 -3,-5 -2,-8 2,-3 5,-3 8,-2 3,2 3,5 2,8z"/>
   <path class="fil4" d="M8662 6139c-2,2 -5,3 -8,2 -2,-2 -3,-5 -1,-8 1,-3 5,-3 7,-2 3,2 3,5 2,8z"/>
   <path class="fil4" d="M3516 9490c-1,3 -4,4 -7,2 -3,-2 -3,-5 -2,-8 2,-2 5,-3 8,-1 2,1 3,5 1,7z"/>
   <path class="fil3" d="M5922 7423c-2,3 -5,3 -7,2 -3,-2 -4,-5 -2,-8 1,-2 5,-3 7,-2 3,2 4,5 2,8z"/>
   <path class="fil3" d="M8597 6559c-1,3 -5,4 -7,2 -3,-2 -4,-5 -2,-8 1,-2 5,-3 7,-1 3,1 4,5 2,7z"/>
   <path class="fil4" d="M8739 6534c-1,2 -5,3 -7,1 -3,-1 -4,-5 -2,-7 2,-3 5,-4 7,-2 3,2 4,5 2,8z"/>
   <path class="fil4" d="M8642 6794c-2,2 -5,3 -8,2 -2,-2 -3,-6 -1,-8 1,-3 5,-3 7,-2 3,2 4,5 2,8z"/>
   <path class="fil4" d="M5850 4445c-2,3 -5,3 -8,2 -2,-2 -3,-5 -2,-8 2,-2 5,-3 8,-2 3,2 3,5 2,8z"/>
   <path class="fil1" d="M8459 5774c-2,0 -2,3 0,3 1,0 1,-3 0,-3z"/>
   <path class="fil1" d="M8430 5773c-4,0 -4,5 0,5 3,0 3,-5 0,-5z"/>
   <path class="fil1" d="M8468 5991c-4,0 -4,8 0,8 5,0 5,-8 0,-8z"/>
   <path class="fil5" d="M7096 5582c2,-2 5,-3 8,-2 2,2 3,5 2,8 -2,3 -5,3 -8,2 -3,-2 -3,-5 -2,-8z"/>
   <path class="fil3" d="M6218 5960c-2,3 -5,4 -8,2 -2,-2 -3,-5 -2,-8 2,-2 5,-3 8,-1 3,1 3,5 2,7z"/>
   <path class="fil5" d="M6866 5952c-1,3 -5,4 -7,2 -3,-2 -4,-5 -2,-8 2,-2 5,-3 8,-1 2,1 3,5 1,7z"/>
   <path class="fil5" d="M2990 9227c-2,2 -5,3 -8,2 -2,-2 -3,-5 -2,-8 2,-3 5,-3 8,-2 2,2 3,5 2,8z"/>
   <path class="fil2" d="M9363 6161c2,3 5,4 7,2 3,-2 4,-5 2,-8 -1,-2 -5,-3 -7,-1 -3,1 -4,5 -2,7z"/>
   <path class="fil4" d="M9835 4311c1,2 5,3 7,1 3,-1 3,-5 2,-7 -2,-3 -5,-4 -8,-2 -2,2 -3,5 -1,8z"/>
   <path class="fil2" d="M7448 5964c2,2 5,3 8,1 3,-1 3,-5 2,-7 -2,-3 -5,-4 -8,-2 -2,2 -3,5 -2,8z"/>
   <path class="fil3" d="M8211 8363c2,3 5,4 8,2 2,-2 3,-5 1,-8 -1,-2 -5,-3 -7,-1 -3,1 -3,5 -2,7z"/>
   <path class="fil4" d="M9948 2039c2,3 5,4 8,2 2,-2 3,-5 2,-8 -2,-2 -5,-3 -8,-1 -2,1 -3,5 -2,7z"/>
   <path class="fil4" d="M7550 5855c2,3 5,3 8,2 2,-2 3,-5 1,-8 -1,-2 -5,-3 -7,-2 -3,2 -3,5 -2,8z"/>
   <path class="fil4" d="M7352 5839c2,2 5,3 8,2 2,-2 3,-5 2,-8 -2,-3 -5,-3 -8,-2 -2,2 -3,5 -2,8z"/>
   <path class="fil2" d="M9116 8742c1,2 4,3 7,2 3,-2 3,-5 2,-8 -2,-3 -5,-3 -8,-2 -2,2 -3,5 -1,8z"/>
   <path class="fil4" d="M5207 7620c1,3 5,3 7,2 3,-2 4,-5 2,-8 -2,-2 -5,-3 -8,-2 -2,2 -3,5 -1,8z"/>
   <path class="fil2" d="M5164 4826c2,3 5,3 8,2 3,-2 3,-5 2,-8 -2,-2 -5,-3 -8,-2 -2,2 -3,5 -2,8z"/>
   <path class="fil5" d="M6479 2641c5,0 5,7 0,7 -4,0 -4,-7 0,-7z"/>
   <polygon class="fil6" points="8109,3041 8107,3045 8108,3044 "/>
   <path class="fil4" d="M8135 3128c-1,-3 -5,-4 -7,-2 -3,2 -4,5 -2,8 2,2 5,3 8,1 2,-1 3,-5 1,-7z"/>
   <path class="fil3" d="M8117 3279c-1,-2 -4,-3 -7,-2 -3,2 -3,5 -2,8 2,3 5,3 8,2 2,-2 3,-5 1,-8z"/>
   <path class="fil5" d="M7974 2753c-2,-3 -5,-4 -8,-2 -2,2 -3,5 -2,8 2,2 5,3 8,1 2,-1 3,-5 2,-7z"/>
   <path class="fil5" d="M8430 2654c2,2 5,3 8,2 2,-2 3,-5 1,-8 -1,-3 -5,-3 -7,-2 -3,2 -3,5 -2,8z"/>
   <path class="fil4" d="M8225 2859c2,3 5,3 8,2 2,-2 3,-5 2,-8 -2,-2 -5,-3 -8,-2 -3,2 -3,5 -2,8z"/>
   <path class="fil5" d="M8081 2602c2,2 5,3 8,1 2,-1 3,-5 2,-7 -2,-3 -5,-4 -8,-2 -2,2 -3,5 -2,8z"/>
   <path class="fil3" d="M8492 2951c1,2 5,3 7,1 3,-1 4,-5 2,-7 -2,-3 -5,-4 -8,-2 -2,2 -3,5 -1,8z"/>
   <path class="fil5" d="M8401 3101c1,2 5,3 7,1 3,-1 4,-5 2,-7 -2,-3 -5,-4 -8,-2 -2,2 -3,5 -1,8z"/>
   <path class="fil5" d="M6889 3012c-1,2 -5,3 -7,2 -3,-2 -3,-5 -2,-8 2,-3 5,-3 8,-2 2,2 3,5 1,8z"/>
   <path class="fil4" d="M7790 2648c-1,2 -5,3 -7,1 -3,-1 -4,-5 -2,-7 2,-3 5,-4 7,-2 3,2 4,5 2,8z"/>
   <path class="fil5" d="M6730 2652c-2,2 -5,3 -8,1 -2,-1 -3,-5 -1,-7 1,-3 5,-4 7,-2 3,2 4,5 2,8z"/>
   <path class="fil5" d="M6967 2829c-1,2 -5,3 -7,1 -3,-1 -4,-5 -2,-7 2,-3 5,-4 7,-2 3,2 4,5 2,8z"/>
   <path class="fil2" d="M7227 2659c-2,2 -5,3 -8,1 -2,-1 -3,-5 -1,-7 1,-3 5,-3 7,-2 3,2 3,5 2,8z"/>
   <path class="fil5" d="M6550 3632c-2,2 -5,3 -8,1 -2,-1 -3,-5 -1,-7 1,-3 5,-4 7,-2 3,2 3,5 2,8z"/>
   <path class="fil4" d="M8376 3493c-1,3 -5,4 -7,2 -3,-1 -4,-5 -2,-7 1,-3 5,-4 7,-2 3,1 4,5 2,7z"/>
   <path class="fil5" d="M7928 3269c-12,0 -21,-10 -22,-22l0 0c0,12 -9,22 -21,22 12,1 21,10 21,23l0 0c0,-13 10,-22 22,-23z"/>
   <path class="fil5" d="M6473 3315c2,3 5,3 8,2 2,-2 3,-5 1,-8 -1,-2 -5,-3 -7,-2 -3,2 -4,5 -2,8z"/>
   <path class="fil5" d="M6586 3101c2,3 5,4 7,2 3,-1 4,-5 2,-7 -1,-3 -5,-4 -7,-2 -3,1 -4,5 -2,7z"/>
   <path class="fil5" d="M6924 3165c2,2 5,3 8,1 2,-1 3,-5 2,-7 -2,-3 -5,-4 -8,-2 -3,2 -3,5 -2,8z"/>
   <path class="fil5" d="M6510 3374c1,2 5,3 7,1 3,-1 3,-5 2,-7 -2,-3 -5,-4 -8,-2 -2,2 -3,5 -1,8z"/>
   <path class="fil5" d="M6794 3248c1,3 5,4 7,2 3,-2 4,-5 2,-8 -1,-2 -5,-3 -7,-1 -3,1 -4,5 -2,7z"/>
   <path class="fil4" d="M8886 1612c2,3 5,4 8,2 2,-2 3,-5 1,-8 -1,-2 -4,-3 -7,-1 -3,1 -3,5 -2,7z"/>
   <path class="fil1" d="M8441 3695c-2,0 -2,3 0,3 1,0 1,-3 0,-3z"/>
   <path class="fil1" d="M8411 3694c-3,0 -3,6 0,6 4,0 4,-6 0,-6z"/>
   <path class="fil5" d="M9575 5801c12,0 21,-10 21,-22l0 0c0,12 10,22 22,22 -12,1 -22,11 -22,23l0 0c0,-12 -9,-22 -21,-23z"/>
   <path class="fil1" d="M9210 9643l0 -3c0,-6 -5,-10 -10,-10 -5,0 -10,4 -10,10l0 3c0,5 5,10 10,9 5,0 10,-4 10,-9z"/>
   <path class="fil1" d="M5590 8167c-12,0 -12,-18 0,-18 12,0 12,18 0,18z"/>
   <path class="fil2" d="M9010 5794c-1,3 -4,3 -6,2 -3,-2 -3,-4 -2,-7 2,-2 4,-3 7,-1 2,1 3,4 1,6z"/>
   <path class="fil5" d="M9617 7146c-12,0 -12,-18 0,-18 12,0 12,18 0,18z"/>
   <path class="fil2" d="M8036 8650c-1,3 -4,3 -7,2 -2,-2 -2,-4 -1,-7 1,-2 4,-3 6,-1 3,1 3,4 2,6z"/>
   <path class="fil2" d="M6808 8714c-1,2 -4,3 -6,1 -2,-1 -3,-4 -2,-6 2,-2 5,-3 7,-2 2,2 3,5 1,7z"/>
   <path class="fil2" d="M5586 5223c2,3 5,4 8,2 3,-1 3,-5 2,-7 -2,-3 -5,-4 -8,-2 -2,1 -3,5 -2,7z"/>
   <path class="fil1" d="M5717 6651l-3 0c-5,0 -10,-5 -10,-10 0,-5 4,-10 10,-10l3 0c5,0 10,5 10,10 -1,5 -5,10 -10,10z"/>
   <path class="fil4" d="M9200 3923c2,2 5,3 8,2 2,-2 3,-5 1,-8 -1,-3 -5,-3 -7,-2 -3,2 -3,5 -2,8z"/>
   <path class="fil4" d="M5565 3868c2,-3 5,-4 8,-2 2,2 3,5 2,8 -2,2 -5,3 -8,1 -3,-1 -3,-5 -2,-7z"/>
   <path class="fil5" d="M9430 1529c-2,3 -5,4 -8,2 -2,-2 -3,-5 -1,-8 1,-2 5,-3 7,-1 3,1 4,5 2,7z"/>
   <path class="fil1" d="M7102 1830c-12,0 -12,-18 0,-18 11,0 11,18 0,18z"/>
   <path class="fil4" d="M9455 2486c-14,1 -25,12 -25,26l0 0c0,-14 -11,-25 -25,-26 14,0 25,-11 25,-25l0 0c0,14 11,25 25,25z"/>
   <path class="fil1" d="M6058 1797l0 -2c0,-7 -11,-7 -11,0l0 2c0,7 11,7 11,0l0 -2c0,-7 -11,-7 -11,0l0 2c0,7 11,7 11,0z"/>
   <path class="fil4" d="M6262 1753c1,3 5,4 7,2 3,-2 3,-5 2,-8 -2,-2 -5,-3 -8,-1 -2,1 -3,5 -1,7z"/>
   <path class="fil2" d="M6124 1562c-1,2 -4,3 -6,2 -2,-2 -3,-5 -2,-7 2,-2 5,-3 7,-1 2,1 3,4 1,6z"/>
   <path class="fil5" d="M6148 2034c2,2 5,3 8,2 2,-2 3,-5 1,-8 -1,-3 -4,-3 -7,-2 -3,2 -3,5 -2,8z"/>
   <path class="fil4" d="M6288 1458c2,2 5,3 8,1 2,-1 3,-5 2,-7 -2,-3 -5,-4 -8,-2 -2,2 -3,5 -2,8z"/>
   <path class="fil5" d="M9021 3025c-2,3 -5,3 -8,2 -2,-2 -3,-5 -2,-8 2,-2 5,-3 8,-2 3,2 3,6 2,8z"/>
   <path class="fil4" d="M9226 3230c-2,3 -5,4 -8,2 -3,-2 -3,-5 -2,-8 2,-2 5,-3 8,-1 2,1 3,5 2,7z"/>
   <path class="fil5" d="M9392 3120c-1,3 -4,4 -7,2 -3,-1 -3,-5 -2,-7 2,-3 5,-4 8,-2 2,1 3,5 1,7z"/>
   <path class="fil5" d="M9369 2973c-1,3 -4,3 -7,2 -3,-2 -3,-5 -2,-8 2,-2 5,-3 8,-2 2,2 3,5 1,8z"/>
   <path class="fil5" d="M9141 2879c-1,2 -5,3 -7,2 -3,-2 -4,-6 -2,-8 2,-3 5,-3 8,-2 2,2 3,5 1,8z"/>
   <path class="fil1" d="M8505 1783l-6 0c-5,0 -10,-4 -9,-9 0,-5 4,-9 9,-9l6 0c5,0 9,4 9,9 0,5 -4,9 -9,9z"/>
   <path class="fil4" d="M6424 2221c2,2 5,3 8,2 2,-2 3,-5 2,-8 -2,-3 -5,-3 -8,-2 -3,2 -3,5 -2,8z"/>
   <path class="fil5" d="M5662 2983c-1,2 -5,3 -7,2 -3,-2 -4,-5 -2,-8 2,-3 5,-3 8,-2 2,2 3,5 1,8z"/>
   <path class="fil5" d="M7950 1874c-2,-2 -5,-3 -7,-1 -3,1 -4,5 -2,7 1,3 5,4 7,2 3,-2 4,-5 2,-8z"/>
   <path class="fil5" d="M7420 3694c-12,0 -22,-10 -22,-22l0 0c0,12 -10,22 -22,22 12,0 22,10 22,23l0 0c0,-13 10,-23 22,-23z"/>
   <path class="fil4" d="M6805 1529c-13,1 -24,12 -24,26l-1 0c0,-14 -11,-25 -24,-26 14,0 24,-11 24,-25l1 0c0,14 11,25 24,25z"/>
   <path class="fil5" d="M5857 2750c-2,3 -5,4 -8,2 -3,-2 -3,-5 -2,-8 2,-2 5,-3 8,-1 2,1 3,5 2,7z"/>
   <path class="fil3" d="M5659 2802c1,2 5,3 7,1 3,-1 4,-5 2,-7 -2,-3 -5,-4 -8,-2 -2,2 -3,5 -1,8z"/>
   <path class="fil4" d="M5963 2735c2,2 5,3 8,1 3,-1 3,-5 2,-7 -2,-3 -5,-4 -8,-2 -2,2 -3,5 -2,8z"/>
   <path class="fil4" d="M8265 2120c2,3 5,4 8,2 2,-2 3,-5 2,-8 -2,-2 -5,-3 -8,-1 -2,1 -3,5 -2,7z"/>
   <path class="fil2" d="M5891 2515c2,3 5,3 8,2 2,-2 3,-5 1,-8 -1,-2 -5,-3 -7,-2 -3,2 -3,5 -2,8z"/>
   <path class="fil4" d="M5371 1549c1,3 5,4 7,2 3,-2 4,-5 2,-8 -2,-2 -5,-3 -7,-1 -3,1 -4,5 -2,7z"/>
   <path class="fil4" d="M5795 2390c2,3 5,4 8,2 2,-2 3,-5 1,-8 -1,-2 -5,-3 -7,-1 -3,1 -3,5 -2,7z"/>
   <path class="fil5" d="M9889 5614c-2,3 -5,4 -7,2 -3,-2 -4,-5 -2,-8 1,-2 5,-3 7,-1 3,1 4,5 2,7z"/>
   <path class="fil5" d="M8603 3891c12,0 21,-10 22,-22l0 0c0,12 9,22 21,22 -12,0 -21,10 -21,22l0 0c0,-12 -10,-22 -22,-22z"/>
   <path class="fil4" d="M329 3848c14,0 25,11 25,25l0 0c0,-14 11,-25 25,-25 -14,-1 -25,-12 -25,-26l0 0c0,14 -11,25 -25,26z"/>
  </g>
 </g>
</svg>
