<?xml version="1.0" encoding="UTF-8"?>
<!DOCTYPE svg PUBLIC "-//W3C//DTD SVG 1.1//EN" "http://www.w3.org/Graphics/SVG/1.1/DTD/svg11.dtd">
<!-- Creator: CorelDRAW X7 -->
<svg xmlns="http://www.w3.org/2000/svg" xml:space="preserve" width="100%" height="100%" version="1.1" style="shape-rendering:geometricPrecision; text-rendering:geometricPrecision; image-rendering:optimizeQuality; fill-rule:evenodd; clip-rule:evenodd"
viewBox="0 0 813 813"
 xmlns:xlink="http://www.w3.org/1999/xlink">
 <defs>
  <style type="text/css">
   <![CDATA[
    .fil2 {fill:#CCCCCC;fill-rule:nonzero}
    .fil1 {fill:#E6E6E6;fill-rule:nonzero}
    .fil0 {fill:white;fill-rule:nonzero}
   ]]>
  </style>
 </defs>
 <g id="Layer_x0020_1">
  <metadata id="CorelCorpID_0Corel-Layer"/>
  <g id="_2227612502672">
   <path class="fil0" d="M302 16c217,-58 439,70 497,286 57,215 -71,437 -287,495 -217,58 -440,-70 -498,-284 -58,-217 72,-439 288,-497z"/>
   <path class="fil1" d="M737 642c-54,74 -132,130 -225,155 -217,58 -440,-70 -498,-284 -32,-121 -5,-244 62,-340 0,0 -34,326 197,460 230,131 464,9 464,9l0 0z"/>
   <path class="fil2" d="M221 675l-2 -10c-4,-14 16,-19 19,-6l3 11c4,13 -16,19 -20,5z"/>
   <path class="fil1" d="M667 540c-2,3 -4,6 -5,9 -5,8 -17,1 -12,-7 1,-3 3,-5 5,-9 4,-7 16,0 12,7z"/>
   <path class="fil1" d="M239 107c-7,-22 30,-32 36,-9 6,23 -30,33 -36,9z"/>
   <path class="fil1" d="M498 646c-5,-18 24,-26 29,-8 5,20 -24,27 -29,8z"/>
  </g>
 </g>
</svg>
