<?xml version="1.0" encoding="UTF-8"?>
<!DOCTYPE svg PUBLIC "-//W3C//DTD SVG 1.1//EN" "http://www.w3.org/Graphics/SVG/1.1/DTD/svg11.dtd">
<!-- Creator: CorelDRAW X7 -->
<svg xmlns="http://www.w3.org/2000/svg" xml:space="preserve" width="100%" height="100%" version="1.1" style="shape-rendering:geometricPrecision; text-rendering:geometricPrecision; image-rendering:optimizeQuality; fill-rule:evenodd; clip-rule:evenodd"
viewBox="0 0 33132 22946"
 xmlns:xlink="http://www.w3.org/1999/xlink">
 <defs>
  <style type="text/css">
   <![CDATA[
    .fil0 {fill:none}
    .fil5 {fill:#D2AE6D}
    .fil23 {fill:#7099FF}
    .fil25 {fill:#8480BC}
    .fil24 {fill:#A4DBDD}
    .fil21 {fill:#C0CDF8}
    .fil3 {fill:#E3C07B}
    .fil1 {fill:#FCD5B8}
    .fil2 {fill:#FCE9CA}
    .fil4 {fill:white}
    .fil16 {fill:#D2AE6D;fill-rule:nonzero}
    .fil17 {fill:#B5E1E2;fill-rule:nonzero}
    .fil14 {fill:#79C9F0;fill-rule:nonzero}
    .fil18 {fill:#2195CA;fill-rule:nonzero}
    .fil22 {fill:#2195CA;fill-rule:nonzero}
    .fil19 {fill:#2688C4;fill-rule:nonzero}
    .fil11 {fill:#494599;fill-rule:nonzero}
    .fil6 {fill:#5C56A2;fill-rule:nonzero}
    .fil8 {fill:#79C9F0;fill-rule:nonzero}
    .fil12 {fill:#8480BC;fill-rule:nonzero}
    .fil27 {fill:#D2AE6D;fill-rule:nonzero}
    .fil20 {fill:#E3C07B;fill-rule:nonzero}
    .fil28 {fill:#E3C582;fill-rule:nonzero}
    .fil7 {fill:#E6E9FF;fill-rule:nonzero}
    .fil26 {fill:#F6F7FF;fill-rule:nonzero}
    .fil9 {fill:#FF6600;fill-rule:nonzero}
    .fil10 {fill:#FFCFD3;fill-rule:nonzero}
    .fil13 {fill:white;fill-rule:nonzero}
    .fil15 {fill:white;fill-rule:nonzero}
   ]]>
  </style>
 </defs>
 <g id="Layer_x0020_1">
  <metadata id="CorelCorpID_0Corel-Layer"/>
  <g id="_2565735594752">
   <rect class="fil0" width="33132" height="22946"/>
   <g>
    <circle class="fil1" transform="matrix(0.846356 -0.737138 -0.737138 -0.846356 18296.2 11473)" r="9796"/>
    <circle class="fil2" transform="matrix(0.124906 -0.108788 -0.108788 -0.124906 29329.7 19207)" r="9796"/>
    <circle class="fil2" transform="matrix(0.434163 -0.378136 -0.378136 -0.434163 7819.8 16167.6)" r="9796"/>
    <g>
     <g>
      <circle class="fil3" cx="8847" cy="6537" r="3660"/>
      <path class="fil4" d="M9537 7573l0 690 -2762 0 0 -690 2762 0zm-2762 -2072l0 -691c1381,0 2763,0 4144,0l-691 691c-1151,0 -2302,0 -3453,0zm4144 690c0,691 0,1382 0,2072l-691 0 0 -1381 0 0 -3453 0 0 -691c1381,0 2762,0 4144,0z"/>
     </g>
     <path class="fil5" d="M23301 16031c0,-153 -896,-277 -2003,-277 -1106,0 -2003,124 -2003,277 0,153 897,277 2003,277 1107,0 2003,-124 2003,-277z"/>
     <path class="fil5" d="M10228 15957l-2275 -44 1892 836 2305 -184c240,106 959,184 1810,184 1046,0 1894,-117 1894,-262 0,-69 -192,-131 -505,-178l4406 -352 -9527 0z"/>
     <path class="fil3" d="M10315 19698c0,-72 -422,-131 -944,-131 -521,0 -943,59 -943,131 0,72 422,130 943,130 522,0 944,-58 944,-130z"/>
     <polygon class="fil5" points="23259,18214 16837,17706 16134,17727 17886,18476 "/>
     <polygon class="fil5" points="20782,19530 14360,19022 13657,19043 15408,19792 "/>
     <polygon class="fil3" points="11209,12922 4170,13010 10228,15957 19755,15957 "/>
     <polygon class="fil6" points="10228,15957 10769,15957 10769,6191 10228,6191 "/>
     <polygon class="fil7" points="10466,15957 19755,15957 19755,6191 10466,6191 "/>
     <polygon class="fil8" points="10466,6952 19755,6952 19755,6191 10466,6191 "/>
     <polygon class="fil9" points="9803,18220 9893,17300 10008,16316 9918,16303 9714,17236 9394,17262 9062,16316 8972,16329 9215,17338 9202,18195 "/>
     <path class="fil10" d="M9689 16963c24,88 -14,230 -102,254 -88,24 -193,-78 -217,-167 -24,-88 28,-179 116,-203 88,-24 179,28 203,116z"/>
     <path class="fil11" d="M9571 16912c18,-5 44,-17 53,-34 1,-2 2,-3 2,-5 -39,-28 -90,-40 -140,-26 -88,24 -140,115 -116,203 17,63 76,133 140,159 -1,-17 -6,-35 -10,-52 -19,-70 -39,-139 -61,-208 45,-9 89,-21 132,-37z"/>
     <path class="fil10" d="M9468 17047c-12,-9 -28,-13 -42,-7 -3,1 -6,3 -8,6 -7,6 -9,16 -8,25 2,26 23,48 48,55 7,2 14,4 22,2 7,-1 14,-4 18,-10 15,-22 -12,-59 -30,-71z"/>
     <polygon class="fil6" points="9202,18195 9291,19606 9389,19606 9472,18206 9559,18210 9612,19641 9687,19639 9803,18220 9820,18045 9204,18053 "/>
     <polygon class="fil6" points="9291,19606 9076,19630 9084,19663 9399,19663 9389,19606 "/>
     <polygon class="fil6" points="9612,19641 9612,19681 9907,19692 9907,19655 9687,19639 "/>
     <path class="fil11" d="M9531 17083c54,5 97,-49 150,-56 3,0 7,0 10,1 4,2 6,6 8,10 7,13 14,27 21,40 7,13 14,27 17,42 3,18 1,36 -2,54 -2,14 -5,29 -12,42 -11,23 -33,40 -57,49 -24,8 -51,10 -76,8 -18,-2 -36,-5 -51,-13 -35,-18 -56,-59 -50,-97 1,-10 4,-19 3,-29 -1,-9 -5,-18 -10,-26 -5,-9 -41,-56 -13,-56 8,0 21,14 28,19 11,6 22,10 34,12z"/>
     <path class="fil12" d="M21722 15216l-762 0c-18,0 -34,-10 -41,-26 -7,-16 -4,-35 8,-48l734 -791 64 59 -665 718 662 0 0 88z"/>
     <polygon class="fil6" points="21879,15895 20783,15895 20783,15109 21879,15109 "/>
     <path class="fil12" d="M21722 11965l-762 0c-18,0 -34,-10 -41,-26 -7,-16 -4,-35 8,-48l734 -792 64 60 -665 718 662 0 0 88z"/>
     <path class="fil12" d="M21722 12778l-762 0c-18,0 -34,-10 -41,-27 -7,-16 -4,-34 8,-47l734 -792 64 60 -665 718 662 0 0 88z"/>
     <path class="fil12" d="M21722 13591l-762 0c-18,0 -34,-11 -41,-27 -7,-16 -4,-34 8,-47l734 -792 64 60 -665 718 662 0 0 88z"/>
     <path class="fil12" d="M21722 14404l-762 0c-18,0 -34,-11 -41,-27 -7,-16 -4,-35 8,-47l734 -792 64 60 -665 718 662 0 0 88z"/>
     <path class="fil12" d="M21722 11172l-762 0c-18,0 -34,-11 -41,-27 -7,-16 -4,-34 8,-47l734 -792 64 60 -665 718 662 0 0 88z"/>
     <path class="fil12" d="M21722 10378l-762 0c-18,0 -34,-10 -41,-26 -7,-16 -4,-35 8,-47l734 -792 64 60 -665 717 662 0 0 88z"/>
     <path class="fil12" d="M21722 9585l-762 0c-18,0 -34,-10 -41,-26 -7,-16 -4,-35 8,-48l734 -792 64 60 -665 718 662 0 0 88z"/>
     <path class="fil12" d="M21722 8792l-762 0c-18,0 -34,-10 -41,-27 -7,-16 -4,-34 8,-47l734 -792 64 60 -665 718 662 0 0 88z"/>
     <path class="fil12" d="M21722 7999l-762 0c-18,0 -34,-11 -41,-27 -7,-16 -4,-35 8,-47l734 -792 64 60 -665 718 662 0 0 88z"/>
     <path class="fil12" d="M21722 7205l-762 0c-18,0 -34,-10 -41,-26 -7,-16 -4,-35 8,-48l734 -791 64 59 -665 718 662 0 0 88z"/>
     <polygon class="fil11" points="22253,16100 20409,16100 20409,15755 22253,15755 "/>
     <path class="fil13" d="M11577 6786l2303 0c79,0 144,-65 144,-144l0 -102c0,-79 -65,-143 -144,-143l-2303 0c-79,0 -144,64 -144,143l0 102c0,79 65,144 144,144z"/>
     <polygon class="fil14" points="23257,18082 23259,18214 17981,18284 16837,17706 16836,17574 "/>
     <polygon class="fil14" points="17981,18284 23259,18214 22116,17635 16837,17706 "/>
     <polygon class="fil15" points="17979,18152 23257,18082 22114,17503 16836,17574 "/>
     <polygon class="fil16" points="19205,17644 22105,17605 22019,17561 19119,17600 "/>
     <polygon class="fil16" points="19421,17753 22321,17715 22235,17671 19335,17709 "/>
     <polygon class="fil16" points="19629,17858 22529,17820 22442,17776 19542,17814 "/>
     <polygon class="fil16" points="19828,17959 22728,17920 22641,17876 19741,17915 "/>
     <polygon class="fil17" points="17983,18069 19859,18044 18986,17602 17110,17627 "/>
     <polygon class="fil18" points="20798,19371 20799,19503 15521,19573 14378,18995 14376,18863 "/>
     <polygon class="fil18" points="15521,19573 20799,19503 19656,18925 14378,18995 "/>
     <polygon class="fil15" points="15520,19441 20798,19371 19654,18793 14376,18863 "/>
     <polygon class="fil14" points="16745,18933 19646,18894 19559,18851 16659,18889 "/>
     <polygon class="fil14" points="16962,19042 19862,19004 19775,18960 16875,18999 "/>
     <polygon class="fil14" points="17169,19147 20069,19109 19983,19065 17083,19103 "/>
     <polygon class="fil14" points="17368,19248 20268,19209 20182,19166 17282,19204 "/>
     <polygon class="fil14" points="15523,19358 17399,19333 16526,18891 14650,18916 "/>
     <polygon class="fil8" points="10769,7863 14068,7863 14068,7511 10769,7511 "/>
     <polygon class="fil8" points="10769,9650 14068,9650 14068,8171 10769,8171 "/>
     <path class="fil6" d="M20989 6217l684 0 0 9267 -684 0 0 -9267zm772 -88l-860 0 0 9443 860 0 0 -9443z"/>
     <path class="fil19" d="M21722 6412l-762 0c-18,0 -34,-10 -41,-26 -7,-16 -4,-35 8,-48l734 -792 64 60 -665 718 662 0 0 88z"/>
     <polygon class="fil20" points="21761,6428 20366,6428 20366,5252 21761,5252 "/>
     <polygon class="fil20" points="23857,5927 22461,5927 22461,5251 23857,5251 "/>
     <path class="fil12" d="M18238 4952c-10,0 -18,-7 -21,-16 -4,-12 3,-24 14,-27l3257 -993c5,-2 10,-2 15,0l1543 652c12,5 17,17 12,29 -5,11 -17,16 -29,11l-1536 -648 -3249 991c-2,0 -4,1 -6,1z"/>
     <path class="fil12" d="M20982 5329c-5,0 -10,-1 -16,-3 -22,-9 -34,-34 -25,-57l513 -1349c7,-18 25,-30 44,-28 20,1 36,16 40,35l265 1316c5,24 -11,47 -34,52 -24,4 -47,-11 -52,-35l-235 -1166 -459 1206c-7,18 -23,29 -41,29z"/>
     <path class="fil20" d="M21583 3935c0,49 -39,89 -88,89 -49,0 -89,-40 -89,-89 0,-49 40,-88 89,-88 49,0 88,39 88,88z"/>
     <path class="fil6" d="M23834 5337l-6892 0c-24,0 -44,-19 -44,-44 0,-24 20,-44 44,-44l6892 0c24,0 44,20 44,44 0,25 -20,44 -44,44z"/>
     <path class="fil6" d="M21067 5326c-5,0 -11,-2 -15,-7l-368 -367 -3369 0 -345 345c-9,9 -23,9 -31,0 -9,-8 -9,-22 0,-31l358 -358 3406 0 380 380c9,9 9,23 0,31 -4,5 -10,7 -16,7z"/>
     <path class="fil6" d="M23863 5326c-8,0 -16,-4 -20,-12l-367 -702 -892 0 -346 680c-5,11 -19,15 -29,9 -11,-5 -16,-18 -10,-29l358 -704 945 0 380 726c6,10 2,24 -9,29 -3,2 -7,3 -10,3z"/>
     <path class="fil6" d="M19863 5330c-5,0 -10,-2 -14,-5l-432 -349 0 326c0,13 -10,22 -22,22 -12,0 -22,-9 -22,-22l0 -372c0,-9 5,-16 12,-20 8,-4 17,-3 24,3l467 378c10,8 11,21 4,31 -5,5 -11,8 -17,8z"/>
     <path class="fil6" d="M20280 5330c-5,0 -9,-2 -14,-5l-432 -349 0 326c0,13 -9,22 -22,22 -12,0 -22,-9 -22,-22l0 -372c0,-9 5,-16 13,-20 8,-4 17,-3 23,3l468 378c10,8 11,21 3,31 -4,5 -10,8 -17,8z"/>
     <path class="fil6" d="M20698 5330c-5,0 -10,-2 -14,-5l-432 -349 0 326c0,13 -10,22 -22,22 -12,0 -22,-9 -22,-22l0 -372c0,-9 5,-16 13,-20 7,-4 16,-3 23,3l468 378c9,8 11,21 3,31 -4,5 -11,8 -17,8z"/>
     <path class="fil6" d="M23167 5330c-6,0 -12,-3 -17,-8l-561 -662 0 642c0,13 -9,22 -22,22 -12,0 -22,-9 -22,-22l0 -702c0,-9 6,-17 15,-20 9,-4 18,-1 24,6l600 708c8,9 7,23 -3,31 -4,3 -9,5 -14,5z"/>
     <path class="fil6" d="M23599 5330c-7,0 -14,-3 -19,-10l-427 -647 0 629c0,13 -10,22 -22,22 -12,0 -22,-9 -22,-22l0 -702c0,-10 6,-18 16,-21 9,-3 19,1 24,9l468 708c7,10 4,24 -6,30 -4,3 -8,4 -12,4z"/>
     <path class="fil21" d="M13555 12925l-1320 0 0 132 93 0 -482 2900 45 0 55 -332 866 0 56 332 44 0 -55 -332 117 0 -56 332 45 0 55 -332 867 0 55 332 45 0 -482 -2900 52 0 0 -132zm-1125 132l971 0 -108 647 -755 0 -108 -647zm115 691l741 0 -71 426 -599 0 -71 -426zm78 470l585 0 -71 425 -443 0 -71 -425zm78 469l429 0 -71 425 -287 0 -71 -425zm78 469l273 0 -71 425 -131 0 -71 -425zm558 -1452l108 -647 13 0 108 647 -229 0zm-951 -647l107 647 -228 0 108 -647 13 0zm114 691l71 426 -384 0 71 -426 242 0zm-320 470l398 0 71 425 -540 0 71 -425zm-78 469l554 0 71 425 -696 0 71 -425zm-78 469l710 0 71 425 -852 0 71 -425zm1235 -982l71 -426 243 0 71 426 -385 0zm-7 44l399 0 71 425 -541 0 71 -425zm-78 469l555 0 71 425 -696 0 70 -425zm-78 469l711 0 71 425 -852 0 70 -425z"/>
     <path class="fil21" d="M17983 11435l-2150 0 0 1660 567 0c0,13 3,26 9,37l-9 1 242 1010 -12 856 60 958 153 0 56 -947 87 4 35 943 133 0 76 -932 90 -921 115 -984 -7 -1 15 -24 540 0 0 -1660zm-1070 2216c-243,67 -71,417 102,370 179,-49 131,-434 -102,-370zm-360 -556l746 0c7,19 21,35 40,43l-198 902 -320 26 -316 -900c28,-12 48,-39 48,-71z"/>
     <path class="fil3" d="M18399 16926c0,-72 -423,-130 -944,-130 -521,0 -943,58 -943,130 0,72 422,131 943,131 521,0 944,-59 944,-131z"/>
     <polygon class="fil12" points="16493,13534 18643,13534 18643,11875 16493,11875 "/>
     <polygon class="fil20" points="17890,15464 17980,14544 18095,13560 18005,13547 17801,14480 17481,14506 17149,13560 17059,13573 17302,14583 17290,15439 "/>
     <path class="fil10" d="M17954 13509c0,42 35,77 77,77 42,0 77,-35 77,-77 0,-42 -35,-77 -77,-77 -42,0 -77,35 -77,77z"/>
     <path class="fil10" d="M17059 13535c0,42 35,76 77,76 42,0 77,-34 77,-76 0,-43 -35,-77 -77,-77 -42,0 -77,34 -77,77z"/>
     <path class="fil11" d="M17493 14368c0,-1 -1,-2 -2,-3 -5,-7 -9,-15 -13,-22 -1,-1 -1,-2 -2,-3 -3,-6 -6,-12 -9,-18 -1,-2 -2,-4 -2,-6 -3,-7 -6,-14 -8,-21 -6,-22 -7,-45 -4,-66 2,-14 6,-27 11,-40 11,-26 27,-49 49,-67 6,-4 11,-8 17,-11 4,-3 8,-6 12,-8 10,-5 20,-9 31,-12 0,0 0,0 0,0 12,-3 24,-5 36,-5 3,0 5,0 8,0 10,0 19,1 29,2 1,1 3,1 5,2 10,2 20,5 30,9 1,0 1,1 2,1 44,19 80,57 93,107 25,88 -13,230 -102,254 -41,11 -85,-5 -123,-34 -1,0 -1,0 -1,0 -14,-11 -28,-24 -40,-38 -1,-1 -1,-2 -1,-2 -6,-6 -11,-13 -16,-19z"/>
     <polygon class="fil18" points="17290,15439 17378,16850 17476,16850 17559,15450 17646,15454 17699,16885 17775,16883 17890,15464 17907,15290 17292,15298 "/>
     <polygon class="fil18" points="17378,16850 17163,16874 17171,16907 17486,16907 17476,16850 "/>
     <polygon class="fil18" points="17699,16885 17699,16925 17994,16936 17994,16899 17775,16883 "/>
     <path class="fil21" d="M16016 8471l-1835 170 128 1379 -63 -68 -221 200 -612 303 -100 11 -459 493 8 6 -405 661 -590 -27 -91 253 52 22 63 -166 655 150 399 -312 55 551 -31 828 321 0 17 -62 -220 -29 117 -733 97 -833 11 -8 2 1 4 -6 5 -4 -2 -2 344 -613 300 -130c81,-35 239,-165 363,-279l28 312 3684 -340 -176 -1899 -1585 147 3 -30c0,-69 -51,-126 -117,-136l0 -2089 -43 0 0 2089c-66,10 -117,67 -117,136 0,19 4,38 11,54zm-2342 1622c-78,-202 -385,-133 -355,99 41,321 367,234 367,-36 51,-12 118,-74 -12,-63zm637 -46l2 23 -92 69 90 -92z"/>
     <polygon class="fil16" points="19180,10198 15497,10538 15322,8640 19005,8300 "/>
     <polygon class="fil22" points="17306,8358 17262,8358 17262,5499 17306,5499 "/>
     <path class="fil22" d="M17423 8417c0,76 -62,138 -139,138 -76,0 -138,-62 -138,-138 0,-77 62,-139 138,-139 77,0 139,62 139,139z"/>
     <path class="fil20" d="M17445 5499c0,89 -72,161 -161,161 -89,0 -161,-72 -161,-161 0,-89 72,-162 161,-162 89,0 161,73 161,162z"/>
     <path class="fil6" d="M17774 5330c-5,0 -10,-2 -14,-5l-432 -349 0 326c0,13 -10,22 -22,22 -12,0 -22,-9 -22,-22l0 -372c0,-9 5,-16 13,-20 7,-4 17,-3 23,3l468 378c9,8 11,21 3,31 -4,5 -11,8 -17,8z"/>
     <path class="fil6" d="M18192 5330c-5,0 -10,-2 -14,-5l-432 -349 0 326c0,13 -10,22 -22,22 -12,0 -22,-9 -22,-22l0 -372c0,-9 5,-16 13,-20 7,-4 16,-3 23,3l468 378c9,8 11,21 3,31 -4,5 -11,8 -17,8z"/>
     <path class="fil6" d="M18609 5330c-4,0 -9,-2 -13,-5l-432 -349 0 326c0,13 -10,22 -22,22 -12,0 -22,-9 -22,-22l0 -372c0,-9 5,-16 12,-20 8,-4 17,-3 24,3l467 378c10,8 11,21 4,31 -5,5 -11,8 -18,8z"/>
     <path class="fil6" d="M19027 5330c-5,0 -10,-2 -14,-5l-432 -349 0 326c0,13 -9,22 -22,22 -12,0 -22,-9 -22,-22l0 -372c0,-9 5,-16 13,-20 8,-4 17,-3 23,3l468 378c9,8 11,21 3,31 -4,5 -10,8 -17,8z"/>
     <path class="fil6" d="M19445 5330c-5,0 -10,-2 -14,-5l-432 -349 0 326c0,13 -10,22 -22,22 -12,0 -22,-9 -22,-22l0 -372c0,-9 5,-16 13,-20 7,-4 16,-3 23,3l468 378c9,8 11,21 3,31 -4,5 -11,8 -17,8z"/>
     <polygon class="fil22" points="15386,9951 15166,10151 14439,10511 14759,10593 15240,10263 15463,10035 "/>
     <path class="fil10" d="M14457 10144c-7,102 65,249 167,257 102,8 195,-127 203,-229 7,-102 -69,-191 -171,-198 -102,-8 -191,68 -199,170z"/>
     <polygon class="fil11" points="14047,11154 14140,12096 14109,12924 14430,12924 14448,12863 14228,12833 14345,12100 14451,11189 "/>
     <path class="fil8" d="M15542 9996c-93,87 -426,328 -549,364l-257 75 -283 30 -459 494 461 302 351 -626 299 -129c123,-54 426,-325 509,-430l-72 -80z"/>
     <path class="fil11" d="M14602 10397c-90,-25 -152,-158 -145,-253 8,-102 97,-178 199,-170 6,0 12,2 18,3 4,15 5,31 3,44 -11,51 -48,98 -96,120 0,0 1,226 21,256z"/>
     <path class="fil10" d="M14556 10162c-15,0 -30,6 -42,15 -40,29 -16,92 25,107 13,5 28,6 42,5 12,0 25,-2 34,-10 9,-8 14,-20 14,-31 1,-12 -2,-24 -6,-35 -10,-25 -39,-51 -67,-51z"/>
     <polygon class="fil12" points="13008,11598 13597,11625 14008,10955 14464,11250 13687,11857 13032,11707 12968,11873 12917,11851 "/>
     <polygon class="fil11" points="12857,16497 13441,12983 13398,12976 12814,16490 "/>
     <polygon class="fil11" points="13930,16497 14514,12983 14471,12976 13886,16490 "/>
     <polygon class="fil11" points="13286,13748 14368,13748 14368,13704 13286,13704 "/>
     <polygon class="fil11" points="13209,14218 14291,14218 14291,14174 13209,14174 "/>
     <polygon class="fil11" points="13133,14687 14215,14687 14215,14643 13133,14643 "/>
     <polygon class="fil11" points="13056,15156 14138,15156 14138,15112 13056,15112 "/>
     <polygon class="fil11" points="12979,15625 14061,15625 14061,15581 12979,15581 "/>
     <polygon class="fil11" points="12903,16094 13985,16094 13985,16050 12903,16050 "/>
     <polygon class="fil12" points="15086,16497 15130,16490 14546,12976 14502,12983 "/>
     <polygon class="fil12" points="14014,16497 14057,16490 13473,12976 13430,12983 "/>
     <polygon class="fil12" points="13576,13748 14658,13748 14658,13704 13576,13704 "/>
     <polygon class="fil12" points="13653,14218 14735,14218 14735,14174 13653,14174 "/>
     <polygon class="fil12" points="13729,14687 14811,14687 14811,14643 13729,14643 "/>
     <polygon class="fil12" points="13806,15156 14888,15156 14888,15112 13806,15112 "/>
     <polygon class="fil12" points="13882,15625 14964,15625 14964,15581 13882,15581 "/>
     <polygon class="fil12" points="13959,16094 15041,16094 15041,16050 13959,16050 "/>
     <polygon class="fil12" points="13292,13057 14612,13057 14612,12925 13292,12925 "/>
     <path class="fil10" d="M15542 9914c1,0 31,-16 31,-16l30 48 150 -84 50 56 -212 160 -46 -58 24 -33 -10 -36 -17 -37z"/>
     <path class="fil10" d="M14800 10093c20,-2 40,-4 60,-4 14,0 34,5 32,19 0,7 -6,12 -12,17 -18,15 -38,30 -62,33 -19,2 -40,-5 -54,-19 -13,-13 -21,-33 -15,-49 17,5 34,6 51,3z"/>
     <rect class="fil23" x="16121" y="6191" width="43.9211" height="760.563"/>
     <polygon class="fil24" points="9803,18220 9893,17300 10008,16316 9918,16303 9714,17236 9394,17261 9062,16316 8972,16329 9215,17338 9202,18195 "/>
     <polygon class="fil25" points="9176,16642 9062,16316 8972,16329 9048,16642 "/>
     <polygon class="fil25" points="9918,16303 9844,16642 9969,16642 10008,16316 "/>
     <path class="fil10" d="M9867 16265c0,42 34,76 77,76 42,0 76,-34 76,-76 0,-43 -34,-77 -76,-77 -43,0 -77,34 -77,77z"/>
     <path class="fil10" d="M8972 16290c0,43 35,77 77,77 42,0 77,-34 77,-77 0,-42 -35,-76 -77,-76 -42,0 -77,34 -77,76z"/>
     <polygon class="fil26" points="11344,16270 7649,16270 7649,14071 11344,14071 "/>
     <polygon class="fil16" points="9495,15982 7846,15982 7846,14349 9495,14349 "/>
     <polygon class="fil27" points="11135,14503 9695,14503 9695,14364 11135,14364 "/>
     <polygon class="fil27" points="11135,14842 9695,14842 9695,14703 11135,14703 "/>
     <polygon class="fil27" points="11135,15181 9695,15181 9695,15042 11135,15042 "/>
     <polygon class="fil27" points="11135,15520 9695,15520 9695,15381 11135,15381 "/>
     <polygon class="fil27" points="11135,15859 9695,15859 9695,15720 11135,15720 "/>
    </g>
   </g>
   <path class="fil28" d="M1813 9420c215,7 387,183 389,402l3 0c1,-219 174,-395 388,-402 -215,-8 -388,-185 -388,-405l-3 0c0,220 -173,397 -389,405z"/>
   <path class="fil28" d="M29711 15764c298,10 537,255 539,558l5 0c2,-303 240,-548 538,-558 -299,-10 -539,-256 -539,-561l-4 0c0,305 -240,551 -539,561z"/>
  </g>
 </g>
</svg>
