<?xml version="1.0" encoding="UTF-8"?>
<!DOCTYPE svg PUBLIC "-//W3C//DTD SVG 1.1//EN" "http://www.w3.org/Graphics/SVG/1.1/DTD/svg11.dtd">
<!-- Creator: CorelDRAW X7 -->
<svg xmlns="http://www.w3.org/2000/svg" xml:space="preserve" width="1.9685in" height="0.69452in" version="1.1" style="shape-rendering:geometricPrecision; text-rendering:geometricPrecision; image-rendering:optimizeQuality; fill-rule:evenodd; clip-rule:evenodd"
viewBox="0 0 19685 6945"
 xmlns:xlink="http://www.w3.org/1999/xlink">
 <defs>
  <style type="text/css">
   <![CDATA[
    .fil0 {fill:#DBBB82}
   ]]>
  </style>
 </defs>
 <g id="Layer_x0020_1">
  <metadata id="CorelCorpID_0Corel-Layer"/>
  <path class="fil0" d="M13827 2692c-650,-1615 -2235,-2692 -3984,-2692 -1750,0 -3335,1077 -3985,2692 -29,-1 -175,-1 -219,2 -2118,127 -4103,1031 -5590,2544 -42,43 -59,104 -43,162 15,58 60,104 117,120 3329,952 6522,1426 9720,1425 3197,1 6390,-473 9719,-1425 57,-16 102,-62 117,-120 16,-58 -1,-119 -43,-162 -1487,-1513 -3472,-2417 -5590,-2544 -44,-3 -190,-3 -219,-2z"/>
 </g>
</svg>
