<?xml version="1.0" encoding="UTF-8"?>
<!DOCTYPE svg PUBLIC "-//W3C//DTD SVG 1.1//EN" "http://www.w3.org/Graphics/SVG/1.1/DTD/svg11.dtd">
<!-- Creator: CorelDRAW X7 -->
<svg xmlns="http://www.w3.org/2000/svg" xml:space="preserve" width="1.9685in" height="0.95248in" version="1.1" style="shape-rendering:geometricPrecision; text-rendering:geometricPrecision; image-rendering:optimizeQuality; fill-rule:evenodd; clip-rule:evenodd"
viewBox="0 0 19685 9525"
 xmlns:xlink="http://www.w3.org/1999/xlink">
 <defs>
  <style type="text/css">
   <![CDATA[
    .fil0 {fill:#DBBB82}
   ]]>
  </style>
 </defs>
 <g id="Layer_x0020_1">
  <metadata id="CorelCorpID_0Corel-Layer"/>
  <path class="fil0" d="M9843 0c-2303,0 -4007,1547 -4852,3002 -3105,645 -4991,1866 -4991,3030 0,1687 3955,3493 9842,3493l1 0 0 0c5887,0 9842,-1806 9842,-3493 0,-1164 -1886,-2385 -4991,-3030 -845,-1455 -2549,-3002 -4851,-3002zm0 8072l-1 0c-1938,0 -3241,-595 -3241,-1150 0,-556 1303,-1151 3241,-1151l1 0 0 0c1938,0 3241,595 3241,1151 0,555 -1303,1150 -3241,1150l0 0z"/>
 </g>
</svg>
