<?xml version="1.0" encoding="UTF-8"?>
<!DOCTYPE svg PUBLIC "-//W3C//DTD SVG 1.1//EN" "http://www.w3.org/Graphics/SVG/1.1/DTD/svg11.dtd">
<!-- Creator: CorelDRAW X7 -->
<svg xmlns="http://www.w3.org/2000/svg" xml:space="preserve" width="1.9685in" height="0.67248in" version="1.1" style="shape-rendering:geometricPrecision; text-rendering:geometricPrecision; image-rendering:optimizeQuality; fill-rule:evenodd; clip-rule:evenodd"
viewBox="0 0 19685 6725"
 xmlns:xlink="http://www.w3.org/1999/xlink">
 <defs>
  <style type="text/css">
   <![CDATA[
    .fil0 {fill:#DBBB82}
   ]]>
  </style>
 </defs>
 <g id="Layer_x0020_1">
  <metadata id="CorelCorpID_0Corel-Layer"/>
  <path class="fil0" d="M6269 2585c1139,472 2341,712 3574,712 1232,0 2434,-240 3573,-712 109,-46 221,-83 334,-113 -709,-1493 -2233,-2472 -3907,-2472 -1675,0 -3199,979 -3908,2472 113,30 225,67 334,113zm12676 3073l-18205 0c2981,708 6034,1067 9103,1067 3067,0 6121,-359 9102,-1067zm-5279 -2471c-1218,506 -2505,762 -3823,762 -1319,0 -2606,-256 -3824,-762 -282,-117 -583,-168 -886,-150 -1885,114 -3671,805 -5133,1968l19685 1c-1462,-1164 -3248,-1855 -5134,-1969 -303,-18 -603,33 -885,150z"/>
 </g>
</svg>
