<?xml version="1.0" encoding="UTF-8"?>
<!DOCTYPE svg PUBLIC "-//W3C//DTD SVG 1.1//EN" "http://www.w3.org/Graphics/SVG/1.1/DTD/svg11.dtd">
<!-- Creator: CorelDRAW X7 -->
<svg xmlns="http://www.w3.org/2000/svg" xml:space="preserve" width="1.9685in" height="0.888969in" version="1.1" style="shape-rendering:geometricPrecision; text-rendering:geometricPrecision; image-rendering:optimizeQuality; fill-rule:evenodd; clip-rule:evenodd"
viewBox="0 0 19685 8890"
 xmlns:xlink="http://www.w3.org/1999/xlink">
 <defs>
  <style type="text/css">
   <![CDATA[
    .fil0 {fill:#DBBB82}
   ]]>
  </style>
 </defs>
 <g id="Layer_x0020_1">
  <metadata id="CorelCorpID_0Corel-Layer"/>
  <path class="fil0" d="M13652 3334c0,952 -1905,1428 -3809,1428 -1905,0 -3810,-476 -3810,-1428 0,-410 80,-808 220,-1184 -3847,548 -6253,1933 -6253,3247 0,1687 3955,3493 9843,3493 5887,0 9842,-1806 9842,-3493 0,-1315 -2408,-2700 -6258,-3248 143,378 225,777 225,1185zm-3809 -3334c-1894,0 -3493,1526 -3493,3334 0,612 1567,1111 3493,1111 1925,0 3492,-499 3492,-1111 0,-1776 -1632,-3334 -3492,-3334z"/>
 </g>
</svg>
