<?xml version="1.0" encoding="UTF-8"?>
<!DOCTYPE svg PUBLIC "-//W3C//DTD SVG 1.1//EN" "http://www.w3.org/Graphics/SVG/1.1/DTD/svg11.dtd">
<!-- Creator: CorelDRAW X7 -->
<svg xmlns="http://www.w3.org/2000/svg" xml:space="preserve" width="11.6118in" height="20.6227in" version="1.1" style="shape-rendering:geometricPrecision; text-rendering:geometricPrecision; image-rendering:optimizeQuality; fill-rule:evenodd; clip-rule:evenodd"
viewBox="0 0 116118 206227"
 xmlns:xlink="http://www.w3.org/1999/xlink">
 <defs>
  <style type="text/css">
   <![CDATA[
    .fil0 {fill:#F7F2E6;fill-rule:nonzero}
   ]]>
  </style>
 </defs>
 <g id="Layer_x0020_1">
  <metadata id="CorelCorpID_0Corel-Layer"/>
  <path class="fil0" d="M7594 0l100929 0c2097,0 3996,850 5370,2224 1375,1375 2225,3273 2225,5370l-5 0 0 191040 5 0c0,2094 -852,3992 -2230,5369 -1374,1374 -3272,2224 -5365,2224l-100929 0c-2097,0 -3996,-850 -5370,-2224 -1374,-1374 -2224,-3272 -2224,-5369l5 0 0 -191040 -5 0c0,-2097 850,-3995 2224,-5370 1374,-1374 3273,-2224 5370,-2224zm68395 16519l0 0zm-33441 1006l31022 0c937,0 1792,-384 2419,-1006l5 -6 5 -5c622,-627 1006,-1482 1006,-2418l0 -1210c0,-942 -388,-1801 -1016,-2429 -622,-621 -1477,-1006 -2419,-1006l-31022 0c-941,0 -1796,385 -2418,1006 -628,628 -1017,1487 -1017,2429l10 0 0 1210 -10 0c0,941 389,1801 1017,2428 621,622 1477,1007 2418,1007zm0 -5460l31022 0c451,0 815,365 815,815l0 1210c0,449 -364,815 -815,815l-31022 0c-450,0 -815,-366 -815,-815l0 -1210c0,-450 365,-815 815,-815zm61492 91633l-91962 0 0 -7450 91962 0 0 7450zm-89342 -2620l86722 0 0 -2210 -86722 0 0 2210zm89342 -7450l-91962 0 0 -7450 91962 0 0 7450zm-89342 -2620l86722 0 0 -2210 -86722 0 0 2210zm89342 -10070l-63872 0 0 -7451 63872 0 0 7451zm-61251 -2620l58631 0 0 -2210 -58631 0 0 2210zm33645 -7451l-36266 0 0 -7450 36266 0 0 7450zm-33645 -2620l31025 0 0 -2210 -31025 0 0 2210zm33645 -7450l-36266 0 0 -7450 36266 0 0 7450zm-33645 -2620l31025 0 0 -2210 -31025 0 0 2210zm33645 -7450l-36266 0 0 -7450 36266 0 0 7450zm-33645 -2620l31025 0 0 -2210 -31025 0 0 2210zm-20548 98979l5489 0c781,0 1514,-43 2199,-129 426,-53 834,-123 1223,-209l1197 -3686 3770 -11615c-28,-37 -55,-74 -83,-111 -147,-193 -307,-384 -479,-573l0 -5c-875,-969 -1961,-1699 -3256,-2189 -1337,-505 -2910,-758 -4718,-758l-12492 0 0 30721 5845 0 0 -10136 0 -1310 1305 0zm5489 2620l-4184 0 0 10136 0 1310 -1305 0 -8460 0 -1310 0 0 -1310 0 -33341 0 -1310 1310 0 13802 0c2116,0 3995,310 5639,932 1684,637 3106,1598 4267,2882l3 -2c216,237 423,486 621,747 193,253 377,518 552,796l327 518 -188 582 -3968 12224 -1420 4374 -215 663 -670 192c-715,204 -1477,357 -2284,458 -795,100 -1634,149 -2517,149zm54674 -995l-1522 3849 10049 0 915 0 313 870 1833 5102 6455 0 -10696 -28399 -2957 7478 3340 9350 625 1750 -1858 0 -6497 0zm-4666 4678l2558 -6469 328 -829 890 0 5528 0 -2880 -8063 -166 -464 181 -457 4385 -11087 1246 -3152 1195 3172 12557 33341 667 1771 -1890 0 -9261 0 -915 0 -313 -870 -1833 -5102 -11059 0 -1926 0 708 -1791zm-36447 -11736l-3320 10229 3874 6650 7076 0 6048 -18417 1273 -3877 1219 3893 5761 18401 6953 0 12386 -30721 -6113 0 -8855 20747 -1409 3301 -1042 -3434 -6257 -20614 -4936 0 -6726 20640 -983 3015 -1428 -2831 -3521 -6982zm-5988 9976l4481 -13805 981 -3019 1430 2835 3523 6987 6039 -18531 295 -905 949 0 6850 0 966 0 283 931 5497 18112 7787 -18245 340 -798 862 0 8913 0 1937 0 -725 1796 -13443 33341 -332 824 -881 0 -8794 0 -960 0 -288 -921 -4831 -15429 -5072 15444 -297 906 -946 0 -8771 0 -749 0 -382 -655 -4549 -7808 -294 -503 181 -557zm-4664 -10164c-545,626 -1290,1086 -2234,1380 -837,261 -1835,392 -2992,392l-3172 0 -1310 0 0 -1310 0 -8957 0 -1310 1310 0 3196 0c1077,0 2019,119 2824,356 893,264 1617,675 2172,1234 530,533 928,1156 1192,1870 257,692 386,1448 386,2266 0,810 -110,1552 -329,2224 -229,701 -578,1318 -1047,1852l4 3zm-3012 -1117c468,-146 814,-347 1036,-602l11 -6c227,-257 401,-570 521,-939 130,-400 196,-872 196,-1415 0,-524 -71,-976 -212,-1355 -133,-358 -332,-671 -598,-939 -241,-242 -593,-431 -1057,-568 -551,-163 -1247,-244 -2087,-244l-1886 0 0 6337 1862 0c901,0 1639,-90 2214,-269zm5759 -101441c-1031,0 -1965,-419 -2641,-1095 -676,-675 -1094,-1609 -1094,-2640l5 0c1,-1035 417,-1968 1089,-2641l6 0c675,-675 1607,-1093 2635,-1093l1 0c1030,0 1964,418 2639,1093 673,673 1089,1606 1089,2640l5 0 0 1c0,1027 -418,1959 -1094,2635l0 5c-676,676 -1609,1095 -2640,1095zm-788 -2947c201,202 480,326 788,326 307,0 586,-124 788,-326l2 2c200,-201 324,-481 324,-790l0 -1 5 0c0,-304 -126,-583 -331,-787 -201,-202 -480,-326 -787,-326l-1 0c-310,0 -589,123 -791,323l3 3c-205,205 -332,483 -332,788l5 0c0,308 125,586 327,788zm-7999 2947c-1031,0 -1965,-419 -2641,-1095 -675,-675 -1094,-1609 -1094,-2640 0,-1031 419,-1965 1094,-2641l6 0c675,-675 1607,-1093 2635,-1093l1 0c1031,0 1964,418 2640,1093 672,673 1088,1606 1088,2640l6 0 0 1c0,1027 -419,1959 -1095,2635l0 5c-675,676 -1609,1095 -2640,1095zm-788 -2947c201,202 480,326 788,326 308,0 586,-124 788,-326l3 2c200,-201 323,-481 323,-790l0 -1 6 0c-1,-304 -127,-583 -332,-787 -201,-202 -480,-326 -787,-326l-1 0c-310,0 -589,123 -791,323l3 3c-202,201 -326,480 -326,788 0,308 124,586 326,788zm-7999 2947c-1031,0 -1965,-419 -2640,-1095 -676,-675 -1094,-1609 -1094,-2640 0,-1031 418,-1965 1094,-2641 676,-675 1609,-1093 2640,-1093l1 0c1031,0 1964,418 2640,1093 672,673 1088,1606 1089,2640l5 0 0 1c0,1030 -418,1964 -1094,2640l-3 -2c-679,677 -1612,1097 -2638,1097zm-788 -2947c202,202 480,326 788,326 311,0 590,-122 788,-321l0 -5c202,-202 327,-481 327,-788l0 -1 5 0c0,-304 -127,-583 -332,-787 -201,-202 -479,-326 -787,-326l-1 0c-308,0 -586,124 -788,326 -201,201 -326,480 -326,788 0,308 124,586 326,788zm89016 4237l-63872 0 0 -7450 63872 0 0 7450zm-61251 -2620l58631 0 0 -2210 -58631 0 0 2210zm36694 33290l0 -27590 24557 0 0 27590 -24557 0zm2620 -2620l19317 0 0 -22350 -19317 0 0 22350zm-70025 12691l0 -37661 25042 0 0 37661 -25042 0zm2620 -2620l19802 0 0 -32421 -19802 0 0 32421zm43360 122197c-2093,0 -3989,-849 -5361,-2221 -1372,-1373 -2221,-3268 -2221,-5362 0,-2093 849,-3989 2221,-5361 1372,-1372 3268,-2221 5361,-2221 2094,0 3990,849 5362,2221 1372,1372 2221,3268 2221,5361 0,4187 -3395,7583 -7583,7583zm-3508 -4074c898,898 2138,1454 3508,1454 2741,0 4962,-2223 4962,-4963 0,-1370 -555,-2611 -1453,-3509 -898,-897 -2138,-1453 -3509,-1453 -1370,0 -2611,556 -3509,1454 -898,897 -1453,2138 -1453,3508 0,1371 556,2611 1454,3509zm-48501 -172793l104020 0 0 158933 -104020 0 0 -158933zm101400 2620l-98780 0 0 153692 98780 0 0 -153692zm1074 -23648l-100929 0c-1374,0 -2617,557 -3517,1457 -900,900 -1457,2143 -1457,3517l-5 0 0 191040 5 0c0,1374 557,2617 1456,3517 900,900 2144,1456 3518,1456l100929 0c1377,0 2623,-556 3523,-1456 897,-897 1452,-2140 1452,-3517l5 0 0 -191040 -5 0c0,-1373 -557,-2617 -1457,-3517 -900,-900 -2144,-1457 -3518,-1457z"/>
 </g>
</svg>
