<?xml version="1.0" encoding="UTF-8"?>
<!DOCTYPE svg PUBLIC "-//W3C//DTD SVG 1.1//EN" "http://www.w3.org/Graphics/SVG/1.1/DTD/svg11.dtd">
<!-- Creator: CorelDRAW X7 -->
<svg xmlns="http://www.w3.org/2000/svg" xml:space="preserve" width="17.4328in" height="23.1098in" version="1.1" style="shape-rendering:geometricPrecision; text-rendering:geometricPrecision; image-rendering:optimizeQuality; fill-rule:evenodd; clip-rule:evenodd"
viewBox="0 0 174328 231098"
 xmlns:xlink="http://www.w3.org/1999/xlink">
 <defs>
  <style type="text/css">
   <![CDATA[
    .fil0 {fill:#F7F2E6;fill-rule:nonzero}
   ]]>
  </style>
 </defs>
 <g id="Layer_x0020_1">
  <metadata id="CorelCorpID_0Corel-Layer"/>
  <path class="fil0" d="M83121 1019l87408 50464c1816,1049 3035,2734 3538,4612 503,1877 290,3947 -758,5763l-4 -3 -95520 165445 4 3c-1047,1813 -2734,3031 -4615,3535 -1878,503 -3946,290 -5759,-757l-67415 -38922 0 -3025 68725 39678c1193,689 2550,830 3780,501 1225,-329 2327,-1128 3015,-2320l5 2 95519 -165445 -4 -2c687,-1190 826,-2546 497,-3775 -330,-1230 -1128,-2334 -2318,-3021l-87408 -50464c-1189,-687 -2544,-827 -3774,-497 -1229,329 -2333,1128 -3020,2318l-4 -3 -75013 129926 0 -5220 72753 -126011 -5 -2c1049,-1816 2734,-3036 4611,-3539 1877,-503 3946,-290 5762,759zm50973 48503l0 0zm-29463 -15849l26865 15511c811,468 1744,563 2598,338l7 -2 7 -2c852,-232 1613,-781 2081,-1592l605 -1048c470,-815 564,-1753 334,-2611 -228,-849 -776,-1610 -1592,-2081l-26865 -15511c-815,-470 -1749,-564 -2598,-337 -858,229 -1624,779 -2095,1594l9 5 -605 1048 -9 -5c-471,816 -564,1754 -334,2612 228,849 776,1610 1592,2081zm2730 -4729l26865 15511c390,226 523,724 299,1113l-605 1048c-225,390 -724,524 -1114,299l-26865 -15511c-390,-225 -524,-724 -299,-1114l605 -1048c225,-389 724,-523 1114,-298zm7436 110103l-79641 -45981 3725 -6452 79641 45981 -3725 6452zm-76062 -46940l75103 43361 1105 -1914 -75103 -43361 -1105 1914zm81097 38219l-79641 -45981 3725 -6452 79641 45981 -3725 6452zm-76062 -46940l75103 43361 1105 -1914 -75103 -43361 -1105 1914zm82407 35950l-55314 -31936 3725 -6452 55314 31936 -3725 6452zm-51735 -32895l50776 29316 1105 -1914 -50776 -29316 -1105 1914zm32864 10371l-31408 -18133 3725 -6452 31408 18133 -3725 6452zm-27829 -19092l26870 15513 1105 -1914 -26870 -15513 -1105 1914zm32864 10371l-31408 -18133 3725 -6452 31408 18133 -3725 6452zm-27829 -19092l26870 15513 1105 -1914 -26870 -15513 -1105 1914zm32864 10371l-31407 -18133 3725 -6452 31407 18133 -3725 6452zm-27828 -19092l26869 15513 1105 -1914 -26869 -15513 -1105 1914zm-67285 75445l4754 2745c676,390 1332,719 1969,987 395,167 783,310 1164,431l2879 -2595 9072 -8173c-5,-46 -10,-92 -16,-138 -31,-240 -74,-486 -128,-735l3 -5c-274,-1277 -849,-2451 -1726,-3524 -905,-1106 -2141,-2111 -3707,-3016l-10818 -6245 -15361 26605 5062 2922 5068 -8777 655 -1135 1130 653zm3444 5014l-3624 -2093 -5068 8778 -655 1134 -1130 -652 -7326 -4230 -1135 -655 655 -1135 16671 -28874 655 -1134 1135 655 11952 6900c1832,1058 3305,2267 4418,3628 1139,1393 1891,2936 2254,4629l4 -1c68,314 123,634 164,958 41,315 67,637 80,966l24 612 -454 410 -9548 8602 -3417 3078 -518 466 -676 -169c-721,-180 -1457,-429 -2207,-745 -738,-311 -1489,-687 -2254,-1128zm47847 26475l-3243 2572 8702 5024 793 458 -164 910 -963 5334 5590 3228 4936 -29942 -6300 4998 -1782 9767 -334 1828 -1609 -929 -5626 -3248zm-6380 1718l5450 -4323 698 -554 771 445 4787 2764 1538 -8424 88 -484 385 -306 9341 -7409 2655 -2106 -551 3344 -5796 35153 -308 1867 -1636 -945 -8020 -4630 -793 -458 164 -910 963 -5335 -9577 -5529 -1668 -963 1509 -1197zm-25696 -28388l-7990 7198 30 7697 6128 3538 14445 -12925 3042 -2722 -891 3981 -4211 18816 6021 3477 26088 -20412 -5294 -3057 -18043 13540 -2871 2155 815 -3495 4889 -20981 -4275 -2468 -16145 14511 -2359 2120 179 -3165 442 -7808zm-10174 5646l10783 -9715 2359 -2125 -179 3171 -442 7813 14495 -13029 708 -637 822 474 5932 3426 837 483 -221 948 -4296 18433 15867 -11907 694 -521 746 431 7719 4456 1677 969 -1525 1193 -28313 22153 -700 547 -762 -440 -7616 -4397 -832 -480 211 -942 3531 -15777 -12114 10839 -711 636 -819 -473 -7596 -4385 -649 -375 -3 -758 -35 -9037 -3 -582 435 -392zm1042 -11135c-784,270 -1659,296 -2624,79 -856,-193 -1785,-578 -2787,-1157l-2747 -1586 -1135 -655 655 -1134 4479 -7758 655 -1134 1134 655 2768 1598c933,539 1689,1112 2268,1721 641,674 1063,1393 1264,2154 192,727 225,1465 97,2216 -123,728 -390,1446 -799,2155 -405,702 -870,1289 -1397,1761 -548,493 -1159,854 -1832,1081l1 4zm-2049 -2473c478,108 878,107 1198,-3l12 0c326,-109 633,-293 921,-552 313,-282 606,-658 877,-1128 262,-453 427,-880 495,-1279 64,-377 47,-748 -49,-1112 -87,-330 -298,-670 -631,-1021 -396,-416 -958,-835 -1686,-1255l-1633 -943 -3169 5488 1613 931c780,451 1464,742 2052,874zm55708 -84971c-893,-516 -1493,-1345 -1740,-2268 -247,-923 -143,-1941 373,-2834l4 2c518,-895 1345,-1495 2264,-1742l4 3c923,-247 1939,-143 2829,370l1 1c893,515 1492,1344 1739,2267 246,918 140,1934 -377,2830l5 3 -1 0c-513,890 -1342,1488 -2265,1736l-2 4c-924,248 -1941,143 -2834,-372zm790 -2946c74,275 253,523 520,677 266,154 570,185 845,111l1 3c274,-74 521,-254 676,-523l1 0 4 2c152,-263 182,-568 107,-847 -74,-275 -253,-522 -519,-676l-1 -1c-268,-155 -572,-187 -846,-115l1 4c-280,75 -529,253 -681,516l4 3c-154,267 -185,571 -112,846zm-8400 -1448c-893,-515 -1492,-1344 -1740,-2267 -247,-924 -142,-1941 373,-2834 516,-893 1345,-1493 2268,-1740l4 3c924,-248 1940,-144 2830,370l0 0c893,516 1492,1344 1740,2267 246,919 140,1935 -377,2831l4 2 0 1c-514,890 -1342,1488 -2266,1736l-2 4c-923,247 -1941,143 -2834,-373zm791 -2946c74,276 253,523 519,677 267,154 570,185 846,111l1 4c274,-74 521,-255 676,-523l0 -1 5 3c151,-263 181,-568 106,-848 -74,-275 -252,-522 -519,-676l0 0c-269,-155 -573,-188 -847,-115l1 3c-275,74 -523,253 -676,520 -155,266 -186,570 -112,845zm-8400 -1447c-893,-516 -1493,-1345 -1740,-2268 -248,-923 -143,-1941 373,-2834 515,-893 1344,-1492 2267,-1739 924,-248 1941,-143 2834,373l1 0c892,515 1492,1344 1739,2267 246,919 140,1935 -377,2830l5 3 -1 1c-515,892 -1344,1492 -2268,1740l-1 -4c-926,248 -1944,144 -2832,-369zm790 -2946c74,276 253,523 520,677 269,155 572,188 843,115l2 -4c276,-74 523,-253 677,-519l1 -1 4 2c152,-263 181,-567 107,-847 -74,-275 -253,-522 -519,-676l-1 0c-267,-154 -570,-186 -846,-112 -275,74 -522,253 -676,519 -154,267 -185,571 -112,846zm74972 48178l-55315 -31936 3725 -6452 55315 31935 -3725 6453zm-51736 -32895l50777 29315 1105 -1913 -50777 -29316 -1105 1914zm15133 47177l13796 -23894 21267 12278 -13796 23895 -21267 -12279zm3579 -959l16729 9659 11176 -19357 -16729 -9658 -11176 19356zm-66988 -24022l18830 -32616 21688 12522 -18831 32615 -21687 -12521zm3579 -959l17149 9901 16211 -28077 -17150 -9901 -16210 28077zm-23547 127506c-1813,-1047 -3030,-2730 -3533,-4604 -502,-1875 -289,-3941 757,-5754 1047,-1813 2730,-3030 4604,-3532 1875,-503 3941,-290 5754,757 1813,1047 3030,2730 3533,4604 502,1874 289,3940 -758,5753 -2093,3626 -6730,4870 -10357,2776zm-1002 -5282c328,1226 1125,2328 2312,3013 2373,1370 5408,556 6778,-1817 685,-1187 825,-2539 496,-3765 -328,-1227 -1125,-2328 -2312,-3013 -1187,-685 -2539,-825 -3766,-496 -1226,329 -2327,1125 -3013,2312 -685,1187 -824,2539 -495,3766zm44393 -173894l90084 52010 -79466 137640 -80577 -46522 0 -3025 79618 45967 76846 -133101 -85546 -49390 -70918 122834 0 -5240 69959 -121173z"/>
 </g>
</svg>
