<?xml version="1.0" encoding="UTF-8"?>
<!DOCTYPE svg PUBLIC "-//W3C//DTD SVG 1.1//EN" "http://www.w3.org/Graphics/SVG/1.1/DTD/svg11.dtd">
<!-- Creator: CorelDRAW X7 -->
<svg xmlns="http://www.w3.org/2000/svg" xml:space="preserve" width="13.6476in" height="10.1718in" version="1.1" style="shape-rendering:geometricPrecision; text-rendering:geometricPrecision; image-rendering:optimizeQuality; fill-rule:evenodd; clip-rule:evenodd"
viewBox="0 0 136476 101718"
 xmlns:xlink="http://www.w3.org/1999/xlink">
 <defs>
  <style type="text/css">
   <![CDATA[
    .fil28 {fill:#536896}
    .fil27 {fill:#566B9B}
    .fil20 {fill:#7990C6}
    .fil26 {fill:#7B93C9}
    .fil21 {fill:#8296C9}
    .fil19 {fill:#839ACD}
    .fil9 {fill:#9CAED7}
    .fil32 {fill:#9F9CCB}
    .fil33 {fill:#A6B7DE}
    .fil29 {fill:#B4C3E0}
    .fil8 {fill:#BBB8DA}
    .fil23 {fill:#CED7EB}
    .fil5 {fill:#D2AE6D}
    .fil25 {fill:#D3DBED}
    .fil31 {fill:#D7B77D}
    .fil24 {fill:#DCBF8B}
    .fil3 {fill:#DFC596}
    .fil10 {fill:#E5EAF4}
    .fil2 {fill:#E7D4B0}
    .fil6 {fill:#E7D4B0}
    .fil4 {fill:#EBDBBF}
    .fil1 {fill:#EDDFC4}
    .fil0 {fill:#F6EFE2}
    .fil30 {fill:#FEFEFE}
    .fil22 {fill:white}
    .fil16 {fill:#4B453F;fill-rule:nonzero}
    .fil15 {fill:#536896;fill-rule:nonzero}
    .fil13 {fill:#576074;fill-rule:nonzero}
    .fil14 {fill:#6A82B9;fill-rule:nonzero}
    .fil18 {fill:#7E80BC;fill-rule:nonzero}
    .fil12 {fill:#8480BC;fill-rule:nonzero}
    .fil17 {fill:#9B98C9;fill-rule:nonzero}
    .fil7 {fill:#E7D4B0;fill-rule:nonzero}
    .fil11 {fill:#EDDFC4;fill-rule:nonzero}
   ]]>
  </style>
 </defs>
 <g id="Layer_x0020_1">
  <metadata id="CorelCorpID_0Corel-Layer"/>
  <g id="_1307562087680">
   <path class="fil0" d="M126042 0c5304,19720 -2849,48813 -20960,59574 -17409,10344 -30130,518 -43256,-8924 -5197,-3739 -10387,-5824 -15489,-515 -4155,4325 -4628,13251 -9432,20353 -10356,15310 -31445,12667 -36905,10320l0 -80808 126042 0z"/>
   <path class="fil1" d="M0 88291l0 -88291 46467 0c1622,2883 2975,5463 6018,7144 3945,2179 8676,1266 14409,-45 2847,-651 5744,-1299 8674,-1373 4562,-115 9123,1181 13391,6095l0 0c9985,11496 2665,21029 -5308,22995l0 0c-11296,2784 -14996,-2407 -17936,15574l0 0c-998,6104 -4450,12039 -10092,14897l0 0c-4058,2056 -9043,2325 -13192,459l0 0c-2309,-1038 -4295,-2669 -6491,-3928l0 0c-2195,-1258 -4792,-2155 -7242,-1520l0 0c-2359,611 -4157,2533 -5472,4586l0 0c-3161,4937 -4204,11041 -7820,15707l0 0c-3048,3932 -8006,7201 -13024,7668l0 0c-801,75 -1596,83 -2382,32z"/>
   <path class="fil2" d="M48693 13813c12399,11520 12158,5604 22033,1213l0 0c6970,-3099 17771,-273 16992,13850l0 0c-98,1771 -391,3327 -843,4706l0 0c-1032,546 -2122,962 -3224,1234l0 0c-11204,2761 -14936,-2323 -17865,15141l0 0c-1973,1973 -3172,4573 -2961,8434l0 0c-1729,2894 -4144,5346 -7202,6896l0 0c-4058,2056 -9043,2325 -13192,459l0 0c-2309,-1038 -4295,-2669 -6491,-3928l0 0c-2195,-1258 -4792,-2155 -7242,-1520l0 0c-2359,611 -4157,2533 -5472,4586l0 0c-3161,4937 -4204,11041 -7820,15707l0 0c-3048,3932 -8006,7201 -13024,7668l0 0c-801,75 -1596,83 -2382,32l0 0 0 -65737c3064,1653 5979,3660 9258,4824l0 0c2134,757 4548,1144 6628,249l0 0c2159,-930 3554,-3067 4449,-5241l0 0c894,-2175 1422,-4503 2525,-6579l0 0c1982,-3733 5793,-6375 9942,-7177l0 0c964,-187 1932,-275 2895,-275l0 0c4802,0 9490,2201 12996,5458l0 0z"/>
   <path class="fil3" d="M93567 25106c-1033,5005 -5369,8588 -9916,9710l0 0c-11296,2784 -14996,-2407 -17936,15574l0 0c-998,6104 -4450,12039 -10092,14897l0 0c-4058,2056 -9043,2325 -13192,459l0 0c-2309,-1038 -4295,-2669 -6491,-3928l0 0c-2195,-1258 -4792,-2155 -7242,-1520l0 0c-2359,611 -4157,2533 -5472,4586l0 0c-3161,4937 -4204,11041 -7820,15707l0 0c-3048,3932 -8006,7201 -13024,7668l0 0c-801,75 -1596,83 -2382,32l0 0 0 -33324c1110,-300 2230,-503 3326,-605l0 0c3067,-285 6086,274 9107,833l0 0c2478,458 4958,916 7466,908l0 0c2315,-7 4772,-467 6465,-2046l0 0c1758,-1640 2363,-4178 2474,-6580l0 0c111,-2401 -183,-4823 162,-7202l0 0c620,-4276 3377,-8135 7093,-10338l0 0c5168,-3064 11683,-2805 17083,-492l0 0c15908,6811 13635,1199 21625,-6433l0 0c2323,-2219 5617,-3694 8977,-3694l0 0c3545,0 7163,1643 9789,5788l0 0z"/>
   <g>
    <path class="fil4" d="M55842 48168c0,-5588 -4529,-10117 -10116,-10117 -5587,0 -10117,4529 -10117,10117 0,5587 4530,10116 10117,10116 5587,0 10116,-4529 10116,-10116z"/>
    <path class="fil5" d="M47645 51021l0 1919 -7626 0 0 -1919 7626 0zm-7626 -5707l0 -1919c3787,0 7626,0 11414,0l-1868 1919c-3217,0 -6381,0 -9546,0zm11413 1868c0,1919 0,3839 0,5758l-1867 0 0 -3839 0 0 -9546 0 0 -1919c3787,0 7626,0 11413,0z"/>
   </g>
   <path class="fil0" d="M58611 94063c15658,0 28352,1714 28352,3828 0,2114 -12694,3827 -28352,3827 -15659,0 -31092,-1713 -31092,-3827 0,-2114 15433,-3828 31092,-3828z"/>
   <path class="fil6" d="M39437 97126c3402,0 6159,563 6159,1258 0,695 -2757,1258 -6159,1258 -3402,0 -6160,-563 -6160,-1258 0,-695 2758,-1258 6160,-1258z"/>
   <path class="fil6" d="M65065 96305c10148,0 18375,563 18375,1257 0,1077 -36751,1077 -36751,0 0,-694 8227,-1257 18376,-1257z"/>
   <path class="fil7" d="M96373 75128c-697,-24 -1256,-597 -1261,-1306l-11 0c-4,709 -563,1282 -1262,1306 700,23 1262,601 1262,1315l10 0c0,-714 562,-1292 1262,-1315z"/>
   <path class="fil7" d="M104210 16292c-1526,47 -2750,1301 -2760,2849l-26 0c-11,-1548 -1228,-2802 -2755,-2849 1532,-52 2760,-1312 2760,-2875l21 0c0,1563 1228,2823 2760,2875z"/>
   <polygon class="fil8" points="75804,75572 88393,75572 88393,50112 75804,50112 "/>
   <path class="fil9" d="M50154 97390l29840 0c1170,0 2114,-943 2114,-2113l0 -52790c0,-1171 -944,-2114 -2114,-2114l-29840 0c-1170,0 -2133,943 -2133,2114l0 52790c0,1170 963,2113 2133,2113z"/>
   <path class="fil10" d="M52023 92804l26083 0c1227,0 2209,-1000 2209,-2208l0 -43429c0,-1208 -982,-2208 -2209,-2208l-26083 0c-1208,0 -2209,1000 -2209,2208l0 43429c0,1208 1001,2208 2209,2208z"/>
   <g>
    <path class="fil11" d="M45716 69524c0,0 923,-750 1142,-950 220,-200 352,-138 462,-54 110,84 132,18 285,58 154,39 132,213 220,211 88,-2 491,197 919,338 282,93 462,173 352,327 -110,154 -916,-277 -967,-42 -24,109 -18,62 26,256 43,193 -242,286 -572,337 -329,51 -659,38 -900,87 -242,49 -594,252 -594,252l-417 -747 44 -73z"/>
    <polygon class="fil12" points="38568,69348 42669,71556 45833,69290 46888,70880 43490,73497 41263,73550 38568,72692 "/>
    <path class="fil13" d="M40439 97341c0,0 2901,-575 3057,40 155,615 -1140,1249 -1813,1326 -674,77 -1503,317 -1503,317l-26 198 -1352 101 -124 -954 1761 -1028z"/>
    <path class="fil13" d="M37554 95810c0,0 2527,-532 2663,85 135,617 -993,1232 -1580,1299 -587,67 -1309,295 -1309,295l-26 242 -1179 0 -104 -919 1535 -1002z"/>
    <path class="fil14" d="M35777 80605c-1140,276 -104,7162 -104,7162l-295 2941c-10,106 -12,212 -6,316l353 5931c0,0 1710,291 2383,-710l0 -8075 259 -1440 259 3521c0,0 -155,3277 -207,5375 -52,2097 259,2151 259,2743 0,146 2538,148 2331,-1142 -207,-1290 155,-6925 155,-6925 0,0 415,-2576 622,-4692 207,-2115 52,-6037 52,-6037l-6320 1013 259 19z"/>
    <path class="fil15" d="M40025 97339c-207,-1289 155,-6924 155,-6924 0,0 415,-2577 622,-4692 194,-1982 70,-5552 53,-5992l983 -158c0,0 155,3922 -52,6038 -207,2115 -621,4691 -621,4691 0,0 -363,5635 -156,6925 161,1000 -1330,1223 -2007,1205 584,-150 1123,-471 1023,-1093z"/>
    <path class="fil11" d="M41216 63447l-89 3240c-8,287 -258,545 -563,579l0 0c-302,35 -550,286 -564,570l11 937 -198 4c-809,306 -1556,-8 -2327,-235l0 0 -259 -4202 3989 -893z"/>
    <path class="fil15" d="M41500 62345l0 0c176,219 200,527 61,804l-172 342c-110,219 -309,393 -547,479l-277 99c-437,156 -736,567 -720,988l7 178c11,298 -73,603 -242,876l-126 -491c-47,-183 -227,-296 -433,-272 -216,24 -400,191 -438,394 -57,309 47,606 278,797l46 38 -474 563c-157,186 -393,295 -628,290 -220,-4 -411,-107 -517,-277l-645 -1032c-245,-392 -335,-866 -255,-1349l76 -459c158,-962 960,-1787 1969,-2026l993 -1003c740,-175 836,705 1558,798 197,25 370,119 486,263z"/>
    <path class="fil16" d="M41683 69230l-3849 -1524c-584,-232 -1275,-203 -1900,79 -999,451 -1561,1510 -1296,2444l835 2952c337,1190 384,2468 137,3744l-817 4230 0 0c1475,1398 3726,1850 5908,1187l1603 -487 -311 -6045 -310 -6580z"/>
    <path class="fil17" d="M41683 69230l-3849 -1524c-584,-232 -1275,-203 -1900,79 -999,451 -1561,1510 -1296,2444l155 10926 0 0c1475,1398 3726,1850 5908,1187l1603 -487 -311 -6045 -310 -6580z"/>
    <path class="fil18" d="M39973 71322l1710 -2092 310 6580 311 6045 -1603 487c-191,58 -382,104 -573,145l364 -3828c103,-1081 92,-2155 -32,-3208l-487 -4129z"/>
    <path class="fil17" d="M39805 71840c531,847 1655,2555 2426,3718 419,634 1386,692 2039,125l0 0c512,-446 658,-1137 348,-1646l-2935 -4807 -1708 1645c-283,273 -354,672 -170,965z"/>
   </g>
   <path class="fil19" d="M65065 93324c-721,0 -1304,584 -1304,1304 0,720 583,1304 1304,1304 720,0 1303,-584 1303,-1304 0,-720 -583,-1304 -1303,-1304z"/>
   <path class="fil20" d="M61485 43449l7159 0c283,0 510,-226 510,-509l0 0c0,-284 -227,-510 -510,-510l-7159 0c-283,0 -509,226 -509,510l0 0c0,283 226,509 509,509z"/>
   <path class="fil21" d="M58761 38636l-19 -37 -19 18c0,0 19,19 38,19l0 0zm887 -9776c0,-378 -264,-699 -604,-812l0 57 -491 0 0 -57c-340,113 -604,434 -604,812 0,377 264,698 604,792l0 -56 491 0 0 56c339,-94 604,-415 604,-792zm-10419 19704l8833 -9663c-358,-227 -604,-642 -604,-1114 0,-661 472,-1208 1095,-1321l0 -491 -2095 0 0 -4737 2095 0 0 -1057c-623,-132 -1095,-680 -1095,-1321 0,-661 472,-1208 1095,-1321l0 -27539 491 0 0 27539c623,113 1095,660 1095,1321 0,641 -472,1189 -1095,1321l0 1057 2095 0 0 4737 -2095 0 0 963 -246 0c-471,0 -849,377 -849,849 0,321 189,604 453,736l340 -359 358 416c321,-132 548,-434 548,-793l490 0c0,491 -283,944 -679,1170l8776 9607 -207 189 -8852 -9683c-132,38 -245,57 -378,57 -169,0 -320,-38 -471,-75l-8871 9701 -227 -189 0 0z"/>
   <g>
    <path class="fil1" d="M100866 70013l4023 0c908,0 1645,736 1645,1645l0 509 654 438c168,112 168,295 0,406l-654 438 0 510c0,908 -737,1645 -1645,1645l-4023 0c-909,0 -1645,-737 -1645,-1645l0 -2301c0,-909 736,-1645 1645,-1645z"/>
    <path class="fil22" d="M101916 73996c-121,0 -232,-11 -332,-34 -99,-23 -189,-59 -270,-108 -81,-48 -156,-113 -224,-192 -61,-72 -113,-153 -155,-243 -43,-89 -75,-184 -97,-286 -22,-101 -32,-209 -32,-324 0,-185 27,-351 81,-497 54,-147 131,-272 231,-376 101,-105 218,-184 354,-238 135,-55 279,-82 431,-82 187,0 353,37 498,112 146,74 257,166 335,275 77,109 116,213 116,310 0,53 -19,101 -57,142 -37,40 -83,61 -137,61 -59,0 -104,-15 -134,-43 -29,-28 -63,-76 -99,-146 -61,-114 -132,-199 -215,-256 -82,-56 -183,-84 -303,-84 -192,0 -345,72 -458,218 -114,145 -171,352 -171,620 0,179 25,328 76,447 50,119 121,207 213,266 93,59 200,88 324,88 134,0 247,-33 340,-100 92,-66 162,-164 209,-292 20,-61 45,-111 74,-149 29,-38 77,-57 141,-57 56,0 104,19 143,58 40,39 60,87 60,144 0,73 -18,153 -54,238 -36,85 -93,169 -171,251 -77,83 -176,149 -296,201 -121,51 -261,76 -421,76z"/>
    <path class="fil22" d="M103532 73996c-65,0 -121,-20 -168,-62 -48,-42 -71,-101 -71,-176 0,-64 22,-119 67,-165 46,-46 101,-69 167,-69 66,0 122,23 169,68 46,46 70,101 70,166 0,74 -24,133 -70,175 -47,42 -102,63 -164,63l0 0zm-5 -1273c-64,0 -119,-24 -165,-71 -46,-46 -69,-101 -69,-165 0,-74 23,-131 70,-172 46,-41 103,-61 169,-61 64,0 118,20 164,62 47,41 70,98 70,171 0,59 -26,113 -76,162 -50,49 -104,74 -163,74z"/>
    <path class="fil22" d="M104235 73996c-107,0 -160,-46 -160,-138 0,-24 10,-84 31,-180l438 -1811c24,-96 45,-162 66,-197 21,-36 62,-54 123,-54 52,0 92,13 120,38 28,25 42,60 42,104 0,32 -11,91 -34,177l-439 1810c-15,60 -28,107 -39,141 -11,35 -27,62 -50,81 -22,20 -55,29 -98,29z"/>
   </g>
   <g>
    <path class="fil23" d="M109146 55271l-7717 0c-1743,0 -3156,1413 -3156,3155l0 978 -1255 839c-323,216 -323,564 0,780l1255 839 0 978c0,1742 1413,3155 3156,3155l7717 0c1743,0 3155,-1413 3155,-3155l0 -4414c0,-1742 -1412,-3155 -3155,-3155z"/>
    <path class="fil9" d="M101737 63573c295,0 442,-121 442,-364 0,-105 -25,-189 -75,-253 -50,-64 -113,-101 -190,-111 -92,-15 -157,-29 -195,-44 -38,-15 -71,-47 -98,-97 -28,-49 -45,-120 -55,-215 -8,-94 -13,-241 -13,-439 0,-266 -16,-483 -48,-652 -32,-170 -89,-310 -169,-419 -80,-109 -192,-208 -334,-297 150,-95 265,-200 345,-316 79,-116 132,-258 160,-423 26,-166 42,-378 46,-637 4,-266 13,-444 27,-537 14,-92 44,-154 90,-186 46,-32 128,-56 244,-72 79,-10 142,-47 192,-109 49,-62 73,-147 73,-256 0,-239 -147,-358 -442,-358 -284,0 -510,83 -679,248 -170,166 -258,387 -264,664 -8,448 -14,731 -18,848 -4,118 -19,226 -44,326 -25,99 -68,180 -129,244 -61,63 -165,139 -309,230 -117,74 -175,186 -175,334 0,103 20,177 60,224 40,48 109,101 204,160 95,60 172,123 232,191 59,68 104,170 133,304 13,55 22,175 28,359 6,185 12,430 18,735 2,181 42,341 121,480 78,140 188,248 333,325 142,75 306,114 489,113z"/>
    <path class="fil9" d="M103285 62354c120,0 225,-41 315,-122 89,-82 133,-193 133,-336 0,-125 -44,-230 -133,-317 -90,-88 -198,-132 -324,-132 -127,0 -233,44 -319,132 -87,89 -130,195 -130,317 0,145 45,257 135,337 91,80 198,121 323,121z"/>
    <path class="fil9" d="M105215 62354c121,0 226,-41 315,-122 89,-82 134,-193 134,-336 0,-125 -45,-230 -134,-317 -89,-88 -197,-132 -324,-132 -126,0 -233,44 -319,132 -87,89 -129,195 -129,317 0,145 44,257 135,337 91,80 198,121 322,121z"/>
    <path class="fil9" d="M107146 62354c121,0 225,-41 315,-122 90,-82 134,-193 134,-336 0,-125 -44,-230 -134,-317 -90,-88 -197,-132 -324,-132 -126,0 -233,44 -319,132 -87,89 -130,195 -130,317 0,145 45,257 136,337 90,80 198,121 322,121z"/>
    <path class="fil9" d="M108679 63573c285,0 514,-83 685,-251 172,-168 260,-390 267,-667 6,-293 12,-537 16,-732 5,-195 20,-341 46,-439 25,-96 69,-178 132,-243 63,-65 165,-142 306,-228 114,-70 172,-180 172,-331 0,-106 -22,-186 -65,-238 -44,-52 -109,-105 -197,-158 -89,-53 -164,-114 -227,-184 -62,-69 -109,-170 -141,-302 -16,-66 -30,-433 -42,-1100 -2,-179 -44,-337 -125,-477 -81,-140 -193,-247 -335,-322 -141,-76 -305,-113 -492,-113 -291,0 -436,120 -436,358 0,109 25,194 76,256 51,62 114,99 188,109 89,10 155,23 198,40l100 94c25,47 41,121 49,223 8,101 12,247 12,438 0,197 9,368 27,513 18,146 49,272 93,378 45,107 101,197 169,272 69,74 157,145 265,213 -153,97 -268,201 -346,313 -79,113 -132,247 -160,404 -28,157 -44,373 -48,651 0,186 -4,328 -11,426 -7,97 -22,171 -45,221 -23,50 -57,84 -101,103 -44,17 -111,33 -202,45 -50,6 -95,24 -133,54 -40,30 -72,73 -95,128 -25,55 -36,116 -36,182 0,119 37,209 113,271 75,63 182,94 323,93z"/>
   </g>
   <g>
    <path class="fil2" d="M92676 48486l4594 0c1038,0 1879,842 1879,1879l0 582 747 500c192,128 192,336 0,464l-747 500 0 582c0,1037 -841,1878 -1879,1878l-4594 0c-1038,0 -1879,-841 -1879,-1878l0 -2628c0,-1037 841,-1879 1879,-1879z"/>
    <polygon class="fil0" points="93520,52792 93520,52285 92263,51790 93520,51305 93520,50794 91716,51576 91716,52010 "/>
    <path class="fil0" d="M94838 53138c49,0 86,-11 112,-33 25,-22 44,-53 57,-92 13,-40 27,-93 44,-162l502 -2067c25,-98 38,-166 38,-203 0,-50 -16,-90 -47,-118 -32,-29 -78,-43 -138,-43 -69,0 -116,20 -140,61 -24,40 -49,116 -75,226l-500 2067c-24,110 -36,179 -36,206 0,106 61,158 183,158z"/>
    <polygon class="fil0" points="96724,52796 98528,52010 98528,51580 96724,50802 96724,51305 97985,51793 96724,52288 "/>
   </g>
   <g>
    <path class="fil2" d="M117147 51986c-365,247 -860,151 -1106,-213 -247,-364 -152,-859 212,-1106 364,-247 860,-152 1106,213 247,364 152,859 -212,1106z"/>
    <path class="fil2" d="M119373 56447c-364,247 -859,151 -1106,-213 -246,-364 -151,-859 213,-1106 364,-247 859,-152 1106,213 247,364 152,859 -213,1106z"/>
    <path class="fil2" d="M112970 51894c-244,166 -576,102 -742,-143 -165,-244 -101,-576 143,-741 244,-166 576,-102 742,142 165,245 101,577 -143,742z"/>
    <polygon class="fil2" points="118625,55103 117040,52041 117230,51885 118838,54993 "/>
    <polygon class="fil2" points="112955,51554 112946,51315 115982,51202 115998,51441 "/>
   </g>
   <g>
    <path class="fil2" d="M133493 43553c213,153 508,104 660,-109 152,-212 104,-507 -109,-659 -212,-152 -507,-104 -659,109 -153,212 -104,508 108,659z"/>
    <path class="fil2" d="M132102 46166c212,152 507,104 660,-109 152,-212 103,-507 -109,-659 -212,-153 -508,-104 -660,108 -152,213 -103,508 109,660z"/>
    <path class="fil2" d="M135974 43565c142,102 340,69 442,-73 102,-143 70,-341 -73,-443 -142,-102 -340,-69 -442,73 -102,142 -70,341 73,443z"/>
    <polygon class="fil2" points="132567,45381 133556,43588 133456,43476 132437,45322 "/>
    <polygon class="fil2" points="135988,43363 135997,43221 134207,43106 134212,43251 "/>
   </g>
   <g>
    <path class="fil3" d="M107993 46044c354,0 641,-287 641,-641 0,-354 -287,-641 -641,-641 -354,0 -641,287 -641,641 0,354 287,641 641,641z"/>
    <path class="fil3" d="M105670 46044c354,0 641,-287 641,-641 0,-354 -287,-641 -641,-641 -354,0 -641,287 -641,641 0,354 287,641 641,641z"/>
    <path class="fil3" d="M103347 46044c354,0 641,-287 641,-641 0,-354 -287,-641 -641,-641 -354,0 -641,287 -641,641 0,354 287,641 641,641z"/>
   </g>
   <path class="fil0" d="M124384 70819c0,568 -459,1027 -1026,1027l-4294 0c-567,0 -1026,-459 -1026,-1027l0 -4293c0,-567 459,-1026 1026,-1026l4294 0c567,0 1026,459 1026,1026l0 4293z"/>
   <path class="fil0" d="M127955 72651c0,213 -173,385 -386,385l-1609 0c-213,0 -386,-172 -386,-385l0 -1610c0,-213 173,-385 386,-385l1610 0c212,0 385,172 385,385l0 1610z"/>
   <path class="fil9" d="M112952 69411c-447,0 -811,-364 -811,-812 0,-447 364,-811 811,-811 447,0 811,364 811,811 0,448 -364,812 -811,812zm0 -1313c-276,0 -501,225 -501,501 0,276 225,502 501,502 276,-1 501,-225 501,-502 0,-276 -225,-501 -501,-501z"/>
   <path class="fil2" d="M134979 22797c-657,0 -1191,-534 -1191,-1191 0,-657 534,-1191 1191,-1191 656,0 1190,534 1190,1191 0,656 -534,1191 -1190,1191zm0 -1927c-406,0 -736,330 -736,736 0,405 330,736 736,736 405,0 735,-330 735,-736 0,-406 -330,-736 -735,-736z"/>
   <path class="fil23" d="M88181 83896c-71,0 -142,-26 -195,-81l-707 -706 -706 706c-54,55 -124,81 -195,81 -70,0 -141,-26 -194,-81 -108,-107 -108,-282 0,-390l706 -706 -706 -706c-108,-107 -108,-282 0,-389 53,-54 124,-81 194,-81 71,0 141,27 195,81l706 706 707 -706c53,-54 124,-81 195,-81 70,0 140,27 194,81 108,107 108,282 0,389l-706 706 706 706c108,108 108,283 0,390 -54,55 -124,81 -194,81z"/>
   <path class="fil23" d="M126246 41669l-13006 0c-707,0 -1346,-170 -1753,-543 -1262,-1153 143,-3904 2300,-3498 -499,-3169 1935,-6047 5164,-6047 2599,0 4748,1895 5158,4376 2403,-1894 5759,26 5738,3041 -12,1730 -1522,2671 -3601,2671z"/>
   <path class="fil2" d="M101480 82334l6065 0c192,-158 314,-397 314,-665 0,-476 -386,-862 -862,-862 -55,0 -108,6 -160,15 16,-99 26,-200 26,-304 0,-1081 -877,-1958 -1958,-1958 -972,0 -1776,709 -1929,1637 -223,-175 -503,-281 -808,-281 -722,0 -1307,585 -1307,1307 0,470 248,880 619,1111z"/>
   <path class="fil2" d="M110896 33865c0,213 -172,385 -385,385l-1610 0c-213,0 -385,-172 -385,-385l0 -1610c0,-213 172,-385 385,-385l1610 0c213,0 385,172 385,385l0 1610z"/>
   <g>
    <path class="fil23" d="M103057 40044c-299,-323 -803,-343 -1126,-45 -323,299 -343,803 -44,1126 298,323 802,343 1125,44 323,-298 343,-802 45,-1125z"/>
    <path class="fil23" d="M106240 36206c-299,-323 -803,-343 -1126,-44 -323,298 -343,802 -44,1125 298,323 802,343 1125,45 323,-299 343,-803 45,-1126z"/>
    <path class="fil23" d="M98969 39183c-201,-217 -539,-230 -755,-30 -217,200 -230,538 -30,755 200,217 538,230 755,30 217,-200 230,-538 30,-755z"/>
    <polygon class="fil23" points="105206,37344 102966,39966 103031,40267 105388,37500 "/>
    <polygon class="fil23" points="98876,39510 98813,39742 101664,40520 101727,40289 "/>
   </g>
   <path class="fil2" d="M27860 77255c-656,0 -1190,-534 -1190,-1191 0,-656 534,-1190 1190,-1190 657,0 1191,534 1191,1190 0,657 -534,1191 -1191,1191zm0 -1926c-405,0 -736,330 -736,735 0,406 331,736 736,736 406,0 736,-330 736,-736 0,-405 -330,-735 -736,-735z"/>
   <g>
    <path class="fil23" d="M27084 86611c174,-260 526,-329 786,-155 260,175 330,527 155,787 -174,260 -526,329 -786,155 -260,-175 -330,-527 -155,-787z"/>
    <path class="fil23" d="M24424 84263c175,-260 527,-330 787,-156 260,175 329,527 155,787 -175,260 -527,330 -787,155 -260,-174 -329,-527 -155,-786z"/>
    <path class="fil23" d="M29863 85557c118,-174 354,-221 528,-104 174,117 221,353 104,528 -117,174 -353,221 -528,104 -174,-117 -221,-353 -104,-528z"/>
    <polygon class="fil23" points="27045,86728 25125,85082 25295,84927 27170,86534 "/>
    <polygon class="fil23" points="28080,86840 28009,86624 29953,85751 30046,85959 "/>
   </g>
   <path class="fil19" d="M70346 42343c-329,0 -596,267 -596,597 0,329 267,596 596,596 329,0 596,-267 596,-596 0,-330 -267,-597 -596,-597z"/>
   <g>
    <path class="fil24" d="M23369 45266c0,-3669 -2974,-6643 -6643,-6643 -3669,0 -6643,2974 -6643,6643 0,3669 2974,6643 6643,6643 3669,0 6643,-2974 6643,-6643z"/>
    <path class="fil1" d="M17986 47140l0 1260 -5007 0 0 -1260 5007 0zm-5007 -3748l0 -1260c2486,0 5007,0 7494,0l-1226 1260c-2112,0 -4190,0 -6268,0zm7494 1227c0,1260 0,2521 0,3781l-1226 0 0 -2521 0 0 -6269 0 0 -1260c2487,0 5008,0 7495,0z"/>
   </g>
   <path class="fil25" d="M74363 59098c-1245,14478 -8999,26890 -20034,33706l23777 0c1227,0 2209,-1000 2209,-2208l0 -28620 0 -14809c0,-1208 -982,-2208 -2209,-2208l-4633 0c697,3219 1066,6576 1066,10028 0,1386 -60,2758 -176,4111z"/>
   <g>
    <path class="fil26" d="M61142 86453l215 -663 601 -1852c-45,-73 -98,-142 -157,-206 -308,-342 -760,-513 -1354,-513l-2092 0 0 5052 1282 0 0 -1734 832 0c252,0 476,-28 673,-84zm-1024 -896l-481 0 0 -1357 484 0c291,0 497,60 617,182 121,121 181,283 181,487 0,205 -53,367 -159,488 -116,133 -330,200 -642,200z"/>
    <polygon class="fil27" points="62484,84996 61805,87088 62494,88271 63823,88271 64785,85344 65701,88271 67034,88271 69071,83219 67720,83219 66327,86484 65336,83219 64298,83219 63234,86484 "/>
    <polygon class="fil26" points="68619,86386 68231,87367 70045,87367 70371,88271 71774,88271 69871,83219 69207,84899 69738,86386 "/>
   </g>
   <g>
    <path class="fil28" d="M50985 77554l302 0c37,0 56,-19 56,-56 0,-38 -19,-57 -56,-57l-189 0 0 -189c0,-38 -19,-56 -57,-56 -37,0 -56,18 -56,56l0 302z"/>
    <path class="fil28" d="M77540 77554l491 0c38,0 56,-19 56,-56 0,-38 -18,-57 -56,-57l-491 0c-38,0 -75,19 -75,57 0,37 37,56 75,56zm-1491 0l491 0c38,0 56,-19 56,-56 0,-38 -18,-57 -56,-57l-491 0c-38,0 -57,19 -57,57 0,37 19,56 57,56zm-1491 0l491 0c38,0 75,-19 75,-56 0,-38 -37,-57 -75,-57l-491 0c-38,0 -57,19 -57,57 0,37 19,56 57,56zm-1472 0l491 0c37,0 56,-19 56,-56 0,-38 -19,-57 -56,-57l-491 0c-38,0 -76,19 -76,57 0,37 38,56 76,56zm-1491 0l491 0c37,0 56,-19 56,-56 0,-38 -19,-57 -56,-57l-491 0c-38,0 -57,19 -57,57 0,37 19,56 57,56zm-1491 0l491 0c37,0 75,-19 75,-56 0,-38 -38,-57 -75,-57l-491 0c-38,0 -57,19 -57,57 0,37 19,56 57,56zm-1491 0l509 0c19,0 57,-19 57,-56 0,-38 -38,-57 -57,-57l-509 0c-19,0 -57,19 -57,57 0,37 38,56 57,56zm-1472 0l490 0c38,0 57,-19 57,-56 0,-38 -19,-57 -57,-57l-490 0c-38,0 -76,19 -76,57 0,37 38,56 76,56zm-1491 0l490 0c38,0 57,-19 57,-56 0,-38 -19,-57 -57,-57l-490 0c-38,0 -57,19 -57,57 0,37 19,56 57,56zm-1491 0l490 0c38,0 76,-19 76,-56 0,-38 -38,-57 -76,-57l-490 0c-38,0 -57,19 -57,57 0,37 19,56 57,56zm-1473 0l491 0c38,0 57,-19 57,-56 0,-38 -19,-57 -57,-57l-491 0c-37,0 -75,19 -75,57 0,37 38,56 75,56zm-1491 0l491 0c38,0 57,-19 57,-56 0,-38 -19,-57 -57,-57l-491 0c-37,0 -56,19 -56,57 0,37 19,56 56,56zm-1491 0l491 0c38,0 76,-19 76,-56 0,-38 -38,-57 -76,-57l-491 0c-37,0 -56,19 -56,57 0,37 19,56 56,56zm-1491 0l510 0c19,0 57,-19 57,-56 0,-38 -38,-57 -57,-57l-510 0c-18,0 -56,19 -56,57 0,37 38,56 56,56zm-1472 0l491 0c38,0 57,-19 57,-56 0,-38 -19,-57 -57,-57l-491 0c-38,0 -75,19 -75,57 0,37 37,56 75,56zm-1491 0l491 0c38,0 57,-19 57,-56 0,-38 -19,-57 -57,-57l-491 0c-38,0 -56,19 -56,57 0,37 18,56 56,56zm-1491 0l491 0c38,0 75,-19 75,-56 0,-38 -37,-57 -75,-57l-491 0c-38,0 -56,19 -56,57 0,37 18,56 56,56zm-1472 0l491 0c37,0 56,-19 56,-56 0,-38 -19,-57 -56,-57l-491 0c-38,0 -76,19 -76,57 0,37 38,56 76,56z"/>
    <path class="fil28" d="M79012 77554l321 0 0 -302c0,-38 -38,-56 -56,-56 -38,0 -76,18 -76,56l0 189 -189 0c-19,0 -56,19 -56,57 0,37 37,56 56,56z"/>
    <path class="fil28" d="M79276 72873c19,0 57,-37 57,-56l0 -566c0,-38 -38,-57 -57,-57 -37,0 -75,19 -75,57l0 566c0,19 38,56 75,56zm0 1661c19,0 57,-19 57,-56l0 -567c0,-18 -38,-56 -57,-56 -37,0 -75,38 -75,56l0 567c0,37 38,56 75,56zm0 1661c19,0 57,-19 57,-56l0 -548c0,-37 -38,-75 -57,-75 -37,0 -75,38 -75,75l0 548c0,37 38,56 75,56z"/>
    <path class="fil28" d="M79276 71213c19,0 57,-38 57,-76l0 -302 -321 0c-19,0 -56,19 -56,57 0,37 37,75 56,75l189 0 0 170c0,38 38,76 75,76z"/>
    <path class="fil28" d="M77540 70967l491 0c38,0 56,-38 56,-75 0,-38 -18,-57 -56,-57l-491 0c-38,0 -75,19 -75,57 0,37 37,75 75,75zm-1491 0l491 0c38,0 75,-38 75,-75 0,-38 -37,-57 -75,-57l-491 0c-38,0 -57,19 -57,57 0,37 19,75 57,75zm-1491 0l510 0c18,0 56,-38 56,-75 0,-38 -38,-57 -56,-57l-510 0c-38,0 -57,19 -57,57 0,37 19,75 57,75zm-1472 0l491 0c37,0 56,-38 56,-75 0,-38 -19,-57 -56,-57l-491 0c-38,0 -76,19 -76,57 0,37 38,75 76,75zm-1491 0l491 0c37,0 56,-38 56,-75 0,-38 -19,-57 -56,-57l-491 0c-38,0 -57,19 -57,57 0,37 19,75 57,75zm-1491 0l491 0c37,0 75,-38 75,-75 0,-38 -38,-57 -75,-57l-491 0c-38,0 -57,19 -57,57 0,37 19,75 57,75zm-1491 0l509 0c19,0 57,-38 57,-75 0,-38 -38,-57 -57,-57l-509 0c-19,0 -57,19 -57,57 0,37 38,75 57,75zm-1472 0l490 0c38,0 57,-38 57,-75 0,-38 -19,-57 -57,-57l-490 0c-38,0 -76,19 -76,57 0,37 38,75 76,75zm-1491 0l490 0c38,0 57,-38 57,-75 0,-38 -19,-57 -57,-57l-490 0c-38,0 -57,19 -57,57 0,37 19,75 57,75zm-1491 0l490 0c38,0 76,-38 76,-75 0,-38 -38,-57 -76,-57l-490 0c-38,0 -57,19 -57,57 0,37 19,75 57,75zm-1473 0l491 0c38,0 57,-38 57,-75 0,-38 -19,-57 -57,-57l-491 0c-37,0 -75,19 -75,57 0,37 38,75 75,75zm-1491 0l491 0c38,0 57,-38 57,-75 0,-38 -19,-57 -57,-57l-491 0c-37,0 -56,19 -56,57 0,37 19,75 56,75zm-1491 0l491 0c38,0 76,-38 76,-75 0,-38 -38,-57 -76,-57l-491 0c-37,0 -56,19 -56,57 0,37 19,75 56,75zm-1491 0l510 0c19,0 57,-38 57,-75 0,-38 -38,-57 -57,-57l-510 0c-18,0 -56,19 -56,57 0,37 38,75 56,75zm-1472 0l491 0c38,0 57,-38 57,-75 0,-38 -19,-57 -57,-57l-491 0c-38,0 -75,19 -75,57 0,37 37,75 75,75zm-1491 0l491 0c38,0 57,-38 57,-75 0,-38 -19,-57 -57,-57l-491 0c-38,0 -56,19 -56,57 0,37 18,75 56,75zm-1491 0l510 0c19,0 56,-38 56,-75 0,-38 -37,-57 -56,-57l-510 0c-38,0 -56,19 -56,57 0,37 18,75 56,75zm-1472 0l491 0c37,0 56,-38 56,-75 0,-38 -19,-57 -56,-57l-491 0c-38,0 -76,19 -76,57 0,37 38,75 76,75z"/>
    <path class="fil28" d="M51041 71213c38,0 57,-38 57,-76l0 -170 189 0c37,0 56,-38 56,-75 0,-38 -19,-57 -56,-57l-302 0 0 302c0,38 19,76 56,76z"/>
    <path class="fil28" d="M51041 72873c38,0 57,-37 57,-56l0 -566c0,-38 -19,-57 -57,-57 -37,0 -56,19 -56,57l0 566c0,19 19,56 56,56zm0 1661c38,0 57,-19 57,-56l0 -567c0,-18 -19,-56 -57,-56 -37,0 -56,38 -56,56l0 567c0,37 19,56 56,56zm0 1661c38,0 57,-19 57,-56l0 -548c0,-37 -19,-75 -57,-75 -37,0 -56,38 -56,75l0 548c0,37 19,56 56,56z"/>
   </g>
   <polygon class="fil29" points="55269,67928 80315,67928 80315,61323 55269,61323 "/>
   <path class="fil28" d="M77540 67136l491 0c38,0 56,-19 56,-57 0,-38 -18,-56 -56,-56l-491 0c-38,0 -75,18 -75,56 0,38 37,57 75,57zm-26555 0l302 0c37,0 56,-19 56,-57 0,-38 -19,-56 -56,-56l-189 0 0 -189c0,-38 -19,-57 -57,-57 -37,0 -56,19 -56,57l0 302zm26555 -6587l491 0c38,0 56,-38 56,-76 0,-37 -18,-56 -56,-56l-491 0c-38,0 -75,19 -75,56 0,38 37,76 75,76zm-26499 245c38,0 57,-38 57,-75l0 -170 189 0c37,0 56,-38 56,-76 0,-37 -19,-56 -56,-56l-302 0 0 302c0,37 19,75 56,75zm0 1661c38,0 57,-38 57,-57l0 -566c0,-38 -19,-56 -57,-56 -37,0 -56,18 -56,56l0 566c0,19 19,57 56,57zm27971 4681l321 0 0 -302c0,-38 -38,-57 -56,-57 -38,0 -76,19 -76,57l0 189 -189 0c-19,0 -56,18 -56,56 0,38 37,57 56,57zm-27971 -3020c38,0 57,-19 57,-57l0 -566c0,-19 -19,-56 -57,-56 -37,0 -56,37 -56,56l0 566c0,38 19,57 56,57zm0 1661c38,0 57,-19 57,-57l0 -547c0,-38 -19,-76 -57,-76 -37,0 -56,38 -56,76l0 547c0,38 19,57 56,57zm25008 -5228l491 0c38,0 75,-38 75,-76 0,-37 -37,-56 -75,-56l-491 0c-38,0 -57,19 -57,56 0,38 19,76 57,76zm-1491 0l510 0c18,0 56,-38 56,-76 0,-37 -38,-56 -56,-56l-510 0c-38,0 -57,19 -57,56 0,38 19,76 57,76zm-1472 0l491 0c37,0 56,-38 56,-76 0,-37 -19,-56 -56,-56l-491 0c-38,0 -76,19 -76,56 0,38 38,76 76,76zm-1491 0l491 0c37,0 56,-38 56,-76 0,-37 -19,-56 -56,-56l-491 0c-38,0 -57,19 -57,56 0,38 19,76 57,76zm-1491 0l491 0c37,0 75,-38 75,-76 0,-37 -38,-56 -75,-56l-491 0c-38,0 -57,19 -57,56 0,38 19,76 57,76zm-1491 0l509 0c19,0 57,-38 57,-76 0,-37 -38,-56 -57,-56l-509 0c-19,0 -57,19 -57,56 0,38 38,76 57,76zm-1472 0l490 0c38,0 57,-38 57,-76 0,-37 -19,-56 -57,-56l-490 0c-38,0 -76,19 -76,56 0,38 38,76 76,76zm-1491 0l490 0c38,0 57,-38 57,-76 0,-37 -19,-56 -57,-56l-490 0c-38,0 -57,19 -57,56 0,38 19,76 57,76zm-1491 0l490 0c38,0 76,-38 76,-76 0,-37 -38,-56 -76,-56l-490 0c-38,0 -57,19 -57,56 0,38 19,76 57,76zm-1473 0l491 0c38,0 57,-38 57,-76 0,-37 -19,-56 -57,-56l-491 0c-37,0 -75,19 -75,56 0,38 38,76 75,76zm-1491 0l491 0c38,0 57,-38 57,-76 0,-37 -19,-56 -57,-56l-491 0c-37,0 -56,19 -56,56 0,38 19,76 56,76zm-1491 0l491 0c38,0 76,-38 76,-76 0,-37 -38,-56 -76,-56l-491 0c-37,0 -56,19 -56,56 0,38 19,76 56,76zm-1491 0l510 0c19,0 57,-38 57,-76 0,-37 -38,-56 -57,-56l-510 0c-18,0 -56,19 -56,56 0,38 38,76 56,76zm-1472 0l491 0c38,0 57,-38 57,-76 0,-37 -19,-56 -57,-56l-491 0c-38,0 -75,19 -75,56 0,38 37,76 75,76zm-1491 0l491 0c38,0 56,-38 56,-76 0,-37 -18,-56 -56,-56l-491 0c-38,0 -56,19 -56,56 0,38 18,76 56,76zm-1491 0l510 0c19,0 56,-38 56,-76 0,-37 -37,-56 -56,-56l-510 0c-38,0 -56,19 -56,56 0,38 18,76 56,76zm-1472 0l491 0c37,0 56,-38 56,-76 0,-37 -19,-56 -56,-56l-491 0c-38,0 -76,19 -76,56 0,38 38,76 76,76zm23762 6587l491 0c38,0 56,-19 56,-57 0,-38 -18,-56 -56,-56l-491 0c-38,0 -57,18 -57,56 0,38 19,57 57,57zm-1491 0l491 0c38,0 75,-19 75,-57 0,-38 -37,-56 -75,-56l-491 0c-38,0 -57,18 -57,56 0,38 19,57 57,57zm-1472 0l491 0c37,0 56,-19 56,-57 0,-38 -19,-56 -56,-56l-491 0c-38,0 -76,18 -76,56 0,38 38,57 76,57zm-1491 0l491 0c37,0 56,-19 56,-57 0,-38 -19,-56 -56,-56l-491 0c-38,0 -57,18 -57,56 0,38 19,57 57,57zm-1491 0l491 0c37,0 75,-19 75,-57 0,-38 -38,-56 -75,-56l-491 0c-38,0 -57,18 -57,56 0,38 19,57 57,57zm-1491 0l509 0c19,0 57,-19 57,-57 0,-38 -38,-56 -57,-56l-509 0c-19,0 -57,18 -57,56 0,38 38,57 57,57zm-1472 0l490 0c38,0 57,-19 57,-57 0,-38 -19,-56 -57,-56l-490 0c-38,0 -76,18 -76,56 0,38 38,57 76,57zm-1491 0l490 0c38,0 57,-19 57,-57 0,-38 -19,-56 -57,-56l-490 0c-38,0 -57,18 -57,56 0,38 19,57 57,57zm-1491 0l490 0c38,0 76,-19 76,-57 0,-38 -38,-56 -76,-56l-490 0c-38,0 -57,18 -57,56 0,38 19,57 57,57zm-1473 0l491 0c38,0 57,-19 57,-57 0,-38 -19,-56 -57,-56l-491 0c-37,0 -75,18 -75,56 0,38 38,57 75,57zm-1491 0l491 0c38,0 57,-19 57,-57 0,-38 -19,-56 -57,-56l-491 0c-37,0 -56,18 -56,56 0,38 19,57 56,57zm-1491 0l491 0c38,0 76,-19 76,-57 0,-38 -38,-56 -76,-56l-491 0c-37,0 -56,18 -56,56 0,38 19,57 56,57zm-1491 0l510 0c19,0 57,-19 57,-57 0,-38 -38,-56 -57,-56l-510 0c-18,0 -56,18 -56,56 0,38 38,57 56,57zm-1472 0l491 0c38,0 57,-19 57,-57 0,-38 -19,-56 -57,-56l-491 0c-38,0 -75,18 -75,56 0,38 37,57 75,57zm-1491 0l491 0c38,0 56,-19 56,-57 0,-38 -18,-56 -56,-56l-491 0c-38,0 -56,18 -56,56 0,38 18,57 56,57zm-1491 0l491 0c38,0 75,-19 75,-57 0,-38 -37,-56 -75,-56l-491 0c-38,0 -56,18 -56,56 0,38 18,57 56,57zm-1472 0l491 0c37,0 56,-19 56,-57 0,-38 -19,-56 -56,-56l-491 0c-38,0 -76,18 -76,56 0,38 38,57 76,57z"/>
   <polygon class="fil30" points="56401,66419 84618,66419 84618,59813 56401,59813 "/>
   <polygon class="fil31" points="78899,65003 82674,65003 82674,61228 78899,61228 "/>
   <polygon class="fil31" points="57836,61964 77333,61964 77333,61228 57836,61228 "/>
   <polygon class="fil31" points="57836,65003 77333,65003 77333,64267 57836,64267 "/>
   <g>
    <path class="fil28" d="M50985 56717l302 0c37,0 56,-18 56,-56 0,-38 -19,-57 -56,-57l-189 0 0 -189c0,-37 -19,-56 -57,-56 -37,0 -56,19 -56,56l0 302z"/>
    <path class="fil28" d="M77540 56717l491 0c38,0 56,-18 56,-56 0,-38 -18,-57 -56,-57l-491 0c-38,0 -75,19 -75,57 0,38 37,56 75,56zm-1491 0l491 0c38,0 56,-18 56,-56 0,-38 -18,-57 -56,-57l-491 0c-38,0 -57,19 -57,57 0,38 19,56 57,56zm-1491 0l491 0c38,0 75,-18 75,-56 0,-38 -37,-57 -75,-57l-491 0c-38,0 -57,19 -57,57 0,38 19,56 57,56zm-1472 0l491 0c37,0 56,-18 56,-56 0,-38 -19,-57 -56,-57l-491 0c-38,0 -76,19 -76,57 0,38 38,56 76,56zm-1491 0l491 0c37,0 56,-18 56,-56 0,-38 -19,-57 -56,-57l-491 0c-38,0 -57,19 -57,57 0,38 19,56 57,56zm-1491 0l491 0c37,0 75,-18 75,-56 0,-38 -38,-57 -75,-57l-491 0c-38,0 -57,19 -57,57 0,38 19,56 57,56zm-1491 0l509 0c19,0 57,-18 57,-56 0,-38 -38,-57 -57,-57l-509 0c-19,0 -57,19 -57,57 0,38 38,56 57,56zm-1472 0l490 0c38,0 57,-18 57,-56 0,-38 -19,-57 -57,-57l-490 0c-38,0 -76,19 -76,57 0,38 38,56 76,56zm-1491 0l490 0c38,0 57,-18 57,-56 0,-38 -19,-57 -57,-57l-490 0c-38,0 -57,19 -57,57 0,38 19,56 57,56zm-1491 0l490 0c38,0 76,-18 76,-56 0,-38 -38,-57 -76,-57l-490 0c-38,0 -57,19 -57,57 0,38 19,56 57,56zm-1473 0l491 0c38,0 57,-18 57,-56 0,-38 -19,-57 -57,-57l-491 0c-37,0 -75,19 -75,57 0,38 38,56 75,56zm-1491 0l491 0c38,0 57,-18 57,-56 0,-38 -19,-57 -57,-57l-491 0c-37,0 -56,19 -56,57 0,38 19,56 56,56zm-1491 0l491 0c38,0 76,-18 76,-56 0,-38 -38,-57 -76,-57l-491 0c-37,0 -56,19 -56,57 0,38 19,56 56,56zm-1491 0l510 0c19,0 57,-18 57,-56 0,-38 -38,-57 -57,-57l-510 0c-18,0 -56,19 -56,57 0,38 38,56 56,56zm-1472 0l491 0c38,0 57,-18 57,-56 0,-38 -19,-57 -57,-57l-491 0c-38,0 -75,19 -75,57 0,38 37,56 75,56zm-1491 0l491 0c38,0 57,-18 57,-56 0,-38 -19,-57 -57,-57l-491 0c-38,0 -56,19 -56,57 0,38 18,56 56,56zm-1491 0l491 0c38,0 75,-18 75,-56 0,-38 -37,-57 -75,-57l-491 0c-38,0 -56,19 -56,57 0,38 18,56 56,56zm-1472 0l491 0c37,0 56,-18 56,-56 0,-38 -19,-57 -56,-57l-491 0c-38,0 -76,19 -76,57 0,38 38,56 76,56z"/>
    <path class="fil28" d="M79012 56717l321 0 0 -302c0,-37 -38,-56 -56,-56 -38,0 -76,19 -76,56l0 189 -189 0c-19,0 -56,19 -56,57 0,38 37,56 56,56z"/>
    <path class="fil28" d="M79276 52037c19,0 57,-38 57,-57l0 -566c0,-38 -38,-57 -57,-57 -37,0 -75,19 -75,57l0 566c0,19 38,57 75,57zm0 1661c19,0 57,-19 57,-57l0 -566c0,-19 -38,-57 -57,-57 -37,0 -75,38 -75,57l0 566c0,38 38,57 75,57zm0 1661c19,0 57,-19 57,-57l0 -547c0,-38 -38,-76 -57,-76 -37,0 -75,38 -75,76l0 547c0,38 38,57 75,57z"/>
    <path class="fil28" d="M79276 50376c19,0 57,-38 57,-76l0 -302 -321 0c-19,0 -56,19 -56,57 0,38 37,76 56,76l189 0 0 169c0,38 38,76 75,76z"/>
    <path class="fil28" d="M77540 50131l491 0c38,0 56,-38 56,-76 0,-38 -18,-57 -56,-57l-491 0c-38,0 -75,19 -75,57 0,38 37,76 75,76zm-1491 0l491 0c38,0 75,-38 75,-76 0,-38 -37,-57 -75,-57l-491 0c-38,0 -57,19 -57,57 0,38 19,76 57,76zm-1491 0l510 0c18,0 56,-38 56,-76 0,-38 -38,-57 -56,-57l-510 0c-38,0 -57,19 -57,57 0,38 19,76 57,76zm-1472 0l491 0c37,0 56,-38 56,-76 0,-38 -19,-57 -56,-57l-491 0c-38,0 -76,19 -76,57 0,38 38,76 76,76zm-1491 0l491 0c37,0 56,-38 56,-76 0,-38 -19,-57 -56,-57l-491 0c-38,0 -57,19 -57,57 0,38 19,76 57,76zm-1491 0l491 0c37,0 75,-38 75,-76 0,-38 -38,-57 -75,-57l-491 0c-38,0 -57,19 -57,57 0,38 19,76 57,76zm-1491 0l509 0c19,0 57,-38 57,-76 0,-38 -38,-57 -57,-57l-509 0c-19,0 -57,19 -57,57 0,38 38,76 57,76zm-1472 0l490 0c38,0 57,-38 57,-76 0,-38 -19,-57 -57,-57l-490 0c-38,0 -76,19 -76,57 0,38 38,76 76,76zm-1491 0l490 0c38,0 57,-38 57,-76 0,-38 -19,-57 -57,-57l-490 0c-38,0 -57,19 -57,57 0,38 19,76 57,76zm-1491 0l490 0c38,0 76,-38 76,-76 0,-38 -38,-57 -76,-57l-490 0c-38,0 -57,19 -57,57 0,38 19,76 57,76zm-1473 0l491 0c38,0 57,-38 57,-76 0,-38 -19,-57 -57,-57l-491 0c-37,0 -75,19 -75,57 0,38 38,76 75,76zm-1491 0l491 0c38,0 57,-38 57,-76 0,-38 -19,-57 -57,-57l-491 0c-37,0 -56,19 -56,57 0,38 19,76 56,76zm-1491 0l491 0c38,0 76,-38 76,-76 0,-38 -38,-57 -76,-57l-491 0c-37,0 -56,19 -56,57 0,38 19,76 56,76zm-1491 0l510 0c19,0 57,-38 57,-76 0,-38 -38,-57 -57,-57l-510 0c-18,0 -56,19 -56,57 0,38 38,76 56,76zm-1472 0l491 0c38,0 57,-38 57,-76 0,-38 -19,-57 -57,-57l-491 0c-38,0 -75,19 -75,57 0,38 37,76 75,76zm-1491 0l491 0c38,0 57,-38 57,-76 0,-38 -19,-57 -57,-57l-491 0c-38,0 -56,19 -56,57 0,38 18,76 56,76zm-1491 0l510 0c19,0 56,-38 56,-76 0,-38 -37,-57 -56,-57l-510 0c-38,0 -56,19 -56,57 0,38 18,76 56,76zm-1472 0l491 0c37,0 56,-38 56,-76 0,-38 -19,-57 -56,-57l-491 0c-38,0 -76,19 -76,57 0,38 38,76 76,76z"/>
    <path class="fil28" d="M51041 50376c38,0 57,-38 57,-76l0 -169 189 0c37,0 56,-38 56,-76 0,-38 -19,-57 -56,-57l-302 0 0 302c0,38 19,76 56,76z"/>
    <path class="fil28" d="M51041 52037c38,0 57,-38 57,-57l0 -566c0,-38 -19,-57 -57,-57 -37,0 -56,19 -56,57l0 566c0,19 19,57 56,57zm0 1661c38,0 57,-19 57,-57l0 -566c0,-19 -19,-57 -57,-57 -37,0 -56,38 -56,57l0 566c0,38 19,57 56,57zm0 1661c38,0 57,-19 57,-57l0 -547c0,-38 -19,-76 -57,-76 -37,0 -56,38 -56,76l0 547c0,38 19,57 56,57z"/>
   </g>
   <polygon class="fil29" points="49814,56472 71576,56472 71576,49866 49814,49866 "/>
   <path class="fil30" d="M51041 50376c38,0 57,-38 57,-76l0 -188 189 0c37,0 56,-19 56,-57 0,-38 -19,-57 -56,-57l-302 0 0 302c0,38 19,76 56,76z"/>
   <polygon class="fil30" points="72916,54773 44681,54773 44681,48168 72916,48168 "/>
   <polygon class="fil32" points="50418,53358 46625,53358 46625,49583 50418,49583 "/>
   <polygon class="fil33" points="71482,50319 51966,50319 51966,49583 71482,49583 "/>
   <polygon class="fil33" points="71482,53358 51966,53358 51966,52622 71482,52622 "/>
  </g>
 </g>
</svg>
