<?xml version="1.0" encoding="UTF-8"?>
<!DOCTYPE svg PUBLIC "-//W3C//DTD SVG 1.1//EN" "http://www.w3.org/Graphics/SVG/1.1/DTD/svg11.dtd">
<!-- Creator: CorelDRAW X7 -->
<svg xmlns="http://www.w3.org/2000/svg" xml:space="preserve" width="11.6118in" height="20.6227in" version="1.1" style="shape-rendering:geometricPrecision; text-rendering:geometricPrecision; image-rendering:optimizeQuality; fill-rule:evenodd; clip-rule:evenodd"
viewBox="0 0 116118 206227"
 xmlns:xlink="http://www.w3.org/1999/xlink">
 <defs>
  <style type="text/css">
   <![CDATA[
    .fil0 {fill:#F7F2E6;fill-rule:nonzero}
   ]]>
  </style>
 </defs>
 <g id="Layer_x0020_1">
  <metadata id="CorelCorpID_0Corel-Layer"/>
  <path class="fil0" d="M7594 0l100929 0c2097,0 3996,850 5370,2224 1375,1375 2225,3273 2225,5370l-5 0 0 191040 5 0c0,2094 -852,3992 -2230,5369 -1374,1374 -3272,2224 -5365,2224l-100929 0c-2097,0 -3996,-850 -5370,-2224 -1374,-1374 -2224,-3272 -2224,-5369l5 0 0 -191040 -5 0c0,-2097 850,-3995 2224,-5370 1374,-1374 3273,-2224 5370,-2224zm22839 94354c-555,-559 -1279,-970 -2172,-1233 -805,-238 -1747,-357 -2824,-357l-3196 0 -1310 0 0 1310 0 8957 0 1310 1310 0 3172 0c1157,0 2155,-130 2992,-391 944,-295 1689,-755 2234,-1381l-4 -3c469,-533 818,-1151 1047,-1852 219,-672 329,-1413 329,-2223 0,-819 -129,-1575 -386,-2267 -264,-713 -662,-1337 -1192,-1870zm50191 12841l-328 829 -2558 6470 -708 1791 1926 0 11059 0 1833 5101 313 870 915 0 9261 0 1890 0 -667 -1770 -12557 -33342 -1195 -3172 -1246 3152 -4385 11087 -181 458 166 463 2880 8063 -5528 0 -890 0zm1780 2620l6497 0 1858 0 -625 -1750 -3340 -9350 2957 -7478 10696 28399 -6455 0 -1833 -5102 -313 -870 -915 0 -10049 0 1522 -3849zm-41639 -13906l-981 3020 -4481 13805 -181 556 294 503 4549 7808 382 655 749 0 8771 0 946 0 297 -905 5072 -15445 4831 15429 288 921 960 0 8794 0 881 0 332 -824 13443 -33341 725 -1796 -1937 0 -8913 0 -862 0 -340 798 -7787 18245 -5497 -18112 -283 -931 -966 0 -6850 0 -949 0 -295 906 -6039 18530 -3523 -6987 -1430 -2835zm4047 13830l1428 2831 983 -3015 6726 -20640 4936 0 6257 20615 1042 3434 1409 -3301 8855 -20748 6113 0 -12386 30721 -6953 0 -5761 -18401 -1219 -3893 -1273 3878 -6048 18416 -7076 0 -3874 -6650 3320 -10229 3521 6982zm-12511 -20066c1295,490 2381,1220 3256,2189l0 5c172,189 332,381 479,573l83 111 -3770 11615 -1197 3686c-389,87 -797,156 -1223,210 -685,86 -1418,129 -2199,129l-5489 0 -1305 0 0 1310 0 10135 -5845 0 0 -30721 12492 0c1808,0 3381,253 4718,758zm5188 436c-1161,-1284 -2583,-2245 -4267,-2882 -1644,-621 -3523,-932 -5639,-932l-13802 0 -1310 0 0 1310 0 33341 0 1310 1310 0 8460 0 1305 0 0 -1310 0 -10135 4184 0c883,0 1722,-50 2517,-150 807,-101 1569,-254 2284,-458l670 -192 215 -663 1420 -4374 3968 -12223 188 -582 -327 -519c-175,-278 -359,-543 -552,-796 -198,-260 -405,-509 -621,-747l-3 2zm-8310 7026c141,380 212,832 212,1356 0,543 -66,1014 -196,1415 -120,368 -294,681 -521,939l-11 5c-222,255 -568,456 -1036,602 -575,180 -1313,269 -2214,269l-1862 0 0 -6337 1886 0c840,0 1536,82 2087,244 464,137 816,327 1057,569 266,267 465,580 598,938zm46810 -80616l0 0zm-33441 1006l31022 0c937,0 1792,-384 2419,-1006l5 -6 5 -5c622,-627 1006,-1482 1006,-2418l0 -1210c0,-942 -388,-1801 -1016,-2429 -622,-621 -1477,-1006 -2419,-1006l-31022 0c-941,0 -1796,385 -2418,1006 -628,628 -1017,1487 -1017,2429l10 0 0 1210 -10 0c0,941 389,1801 1017,2428 621,622 1477,1007 2418,1007zm0 -5460l31022 0c451,0 815,365 815,815l0 1210c0,449 -364,815 -815,815l-31022 0c-450,0 -815,-366 -815,-815l0 -1210c0,-450 365,-815 815,-815zm15510 188450c-2093,0 -3989,-849 -5361,-2221 -1372,-1373 -2221,-3268 -2221,-5362 0,-2093 849,-3989 2221,-5361 1372,-1372 3268,-2221 5361,-2221 2094,0 3990,849 5362,2221 1372,1372 2221,3268 2221,5361 0,4187 -3395,7583 -7583,7583zm-3508 -4074c898,898 2138,1454 3508,1454 2741,0 4962,-2223 4962,-4963 0,-1370 -555,-2611 -1453,-3509 -898,-897 -2138,-1453 -3509,-1453 -1370,0 -2611,556 -3509,1454 -898,897 -1453,2138 -1453,3508 0,1371 556,2611 1454,3509zm-48501 -172793l104020 0 0 158933 -104020 0 0 -158933zm101400 2620l-98780 0 0 153692 98780 0 0 -153692zm1074 -23648l-100929 0c-1374,0 -2617,557 -3517,1457 -900,900 -1457,2143 -1457,3517l-5 0 0 191040 5 0c0,1374 557,2617 1456,3517 900,900 2144,1456 3518,1456l100929 0c1377,0 2623,-556 3523,-1456 897,-897 1452,-2140 1452,-3517l5 0 0 -191040 -5 0c0,-1373 -557,-2617 -1457,-3517 -900,-900 -2144,-1457 -3518,-1457z"/>
 </g>
</svg>
