<?xml version="1.0" encoding="UTF-8"?>
<!DOCTYPE svg PUBLIC "-//W3C//DTD SVG 1.1//EN" "http://www.w3.org/Graphics/SVG/1.1/DTD/svg11.dtd">
<!-- Creator: CorelDRAW X7 -->
<svg xmlns="http://www.w3.org/2000/svg" xml:space="preserve" width="6.45669in" height="7.26909in" version="1.1" style="shape-rendering:geometricPrecision; text-rendering:geometricPrecision; image-rendering:optimizeQuality; fill-rule:evenodd; clip-rule:evenodd"
viewBox="0 0 64567 72691"
 xmlns:xlink="http://www.w3.org/1999/xlink">
 <defs>
  <style type="text/css">
   <![CDATA[
    .fil23 {fill:#826C44}
    .fil20 {fill:#8480BC}
    .fil4 {fill:#9F9CCB}
    .fil30 {fill:#A38755}
    .fil19 {fill:#A7B8DB}
    .fil40 {fill:#A98C58}
    .fil34 {fill:#B0BEDF}
    .fil22 {fill:#BB9B61}
    .fil5 {fill:#BBB8DA}
    .fil9 {fill:#C1C0DF}
    .fil38 {fill:#C9AC76}
    .fil8 {fill:#CDCCE5}
    .fil32 {fill:#CED7EB}
    .fil27 {fill:#D7B77D}
    .fil21 {fill:#D7DFEF}
    .fil39 {fill:#DBC49B}
    .fil28 {fill:#DCC08D}
    .fil1 {fill:#DFC596}
    .fil36 {fill:#E1E7F4}
    .fil0 {fill:#E7D4B0}
    .fil35 {fill:#E9D7B7}
    .fil3 {fill:#E9EDF7}
    .fil2 {fill:#EDDFC4}
    .fil31 {fill:#F3E9D8}
    .fil13 {fill:#536896;fill-rule:nonzero}
    .fil16 {fill:#6C87C3;fill-rule:nonzero}
    .fil12 {fill:#7875A3;fill-rule:nonzero}
    .fil18 {fill:#9F9CCB;fill-rule:nonzero}
    .fil14 {fill:#B3C1E0;fill-rule:nonzero}
    .fil26 {fill:#BB9B61;fill-rule:nonzero}
    .fil6 {fill:#D2AE6D;fill-rule:nonzero}
    .fil24 {fill:#D9BF90;fill-rule:nonzero}
    .fil7 {fill:#E1CBA3;fill-rule:nonzero}
    .fil33 {fill:#E6D6B9;fill-rule:nonzero}
    .fil25 {fill:#E7D4B0;fill-rule:nonzero}
    .fil11 {fill:#E8ECF5;fill-rule:nonzero}
    .fil15 {fill:#E9D9BA;fill-rule:nonzero}
    .fil17 {fill:#EFE3CB;fill-rule:nonzero}
    .fil37 {fill:#F5EEE0;fill-rule:nonzero}
    .fil29 {fill:#F6EFE2;fill-rule:nonzero}
    .fil10 {fill:white;fill-rule:nonzero}
   ]]>
  </style>
 </defs>
 <g id="Layer_x0020_1">
  <metadata id="CorelCorpID_0Corel-Layer"/>
  <g id="_1759377462768">
   <g>
    <g>
     <path class="fil0" d="M39414 72691c-3385,-10147 7752,-18138 17129,-18535 3353,-142 6015,-693 8024,-1378l0 -26503c-8575,-1459 -14721,-1126 -18631,3504 -424,502 -909,1621 -1084,2198 -1378,4557 2469,10384 3259,14448 694,3572 -1582,5905 -9422,7034 -8971,1291 -15211,4488 -17556,9369 -1751,3644 -1564,6876 -383,9863l18664 0z"/>
     <path class="fil1" d="M64567 72691l0 -19913c-2009,685 -4671,1093 -8024,1236 -10382,440 -21299,6909 -17373,18677l25397 0z"/>
     <path class="fil2" d="M25354 72691c-1244,-3361 -1156,-6822 391,-9858 543,-1065 1247,-2048 2099,-2942 2728,-2860 6976,-4798 12328,-5569 6365,-916 17207,-1809 13547,-8802 -1616,-3088 -6158,-6103 -7835,-9705 -1056,-2268 -1017,-4718 606,-6649 -3277,2735 -1975,9996 -2609,15463 -826,7126 -4805,7617 -12846,7368 -1500,-46 -3027,-49 -4529,26 -9847,488 -14743,4225 -13558,11017 559,3201 2305,6707 4296,9651l8110 0z"/>
    </g>
    <path class="fil1" d="M64567 43494c-673,-1879 -2088,-3223 -3696,-4303 -3358,-2255 -7557,-3358 -7595,-5770 -63,-3874 6715,-4995 11291,-4723l0 14796z"/>
   </g>
   <g>
    <path class="fil3" d="M55150 26533l0 0zm-7617 -4397c6,-94 19,-182 38,-264 69,-302 220,-520 428,-640 292,-170 696,-146 1142,111 28,17 55,36 84,53 116,-242 281,-425 484,-543 1,-1 1,-1 1,-1 1,0 1,0 1,0 1,-1 1,-1 2,-1 82,-48 170,-85 264,-110 385,-105 860,-24 1374,272 952,550 1767,1684 2117,2833 27,15 54,27 82,43 851,491 1543,1650 1599,2644 477,429 829,1138 827,1734l0 37c-1,352 -124,601 -324,722l-8 5c-207,120 -493,104 -808,-78l-7005 -4045c-625,-360 -1134,-1242 -1132,-1960l0 -37c1,-356 128,-607 332,-725 137,-80 310,-100 502,-50z"/>
    <path class="fil4" d="M49710 20852c0,0 0,0 -1,1 -203,118 -368,301 -484,543 -29,-17 -56,-36 -84,-53 -51,-29 -101,-55 -150,-78 -387,-182 -734,-184 -992,-33l940 -547c260,-151 609,-149 997,36l-226 131zm4698 2448l0 0zm-940 546c-350,-1149 -1165,-2283 -2117,-2833 -514,-296 -989,-377 -1374,-272 -94,25 -182,62 -264,110l223 -130 713 -415c308,-179 703,-208 1145,-64 1257,408 2255,1880 2614,3058l-940 546z"/>
    <path class="fil5" d="M56090 25986l0 0zm-2622 -2140l940 -546c916,478 1623,1663 1682,2686l-941 547c-56,-994 -748,-2153 -1599,-2644 -28,-16 -55,-28 -82,-43z"/>
    <path class="fil4" d="M55149 26533l941 -547c201,182 378,406 516,651 237,421 437,1109 222,1570 -31,65 -69,124 -116,175 -69,74 -133,105 -219,155l-841 489c200,-121 323,-370 324,-722l0 -37c2,-596 -350,-1305 -827,-1734z"/>
    <path class="fil5" d="M47571 21872c-19,82 -32,170 -38,264 -192,-50 -365,-30 -502,50l540 -314z"/>
   </g>
   <path class="fil6" d="M60023 21140c-342,-11 -616,-293 -619,-641l-5 0c-2,348 -277,630 -620,641 344,12 620,295 620,646l4 0c0,-351 277,-634 620,-646z"/>
   <path class="fil7" d="M18229 44022c-532,-18 -958,-455 -961,-996l-9 0c-3,541 -429,978 -962,996 534,17 962,458 962,1002l7 0c0,-544 429,-985 963,-1002z"/>
   <g>
    <path class="fil4" d="M30858 15948l0 -3 -860 491c0,0 1423,1034 1435,1026l0 0c4,-2 29,-78 62,-182l0 0 -22 33170c0,283 171,612 384,734l0 0 12684 7335 35 1785 858 -491 -2 -2c82,-46 135,-153 136,-309l0 0 23 -34641c0,-283 -172,-612 -384,-734l0 0 -14106 -8157c-53,-31 -103,-45 -149,-45l0 0c-34,0 -66,8 -94,23l0 0z"/>
    <path class="fil8" d="M41451 26379l644 372 3486 -2008c-33,-219 -154,-443 -305,-568l0 0 -3825 2204z"/>
    <path class="fil9" d="M30101 16409l-2 0c-136,0 -231,126 -232,337l0 0 -23 34640c0,283 172,612 384,735l0 0 14106 8157c213,122 385,-7 385,-290l0 0 23 -34641c0,-283 -171,-612 -383,-735l0 0 -14107 -8157c-54,-31 -104,-45 -151,-46z"/>
    <path class="fil10" d="M44358 24612l-14106 -8157c-126,-73 -237,-55 -308,30 60,-16 130,-5 206,38l14106 8158c212,122 384,451 384,734l-23 34641c-1,114 -30,202 -77,260 107,-29 179,-146 179,-328l23 -34641c0,-283 -171,-612 -384,-735z"/>
    <polygon class="fil11" points="30165,50547 44389,58772 44416,26831 30192,18606 "/>
    <path class="fil12" d="M35807 21010l2691 1561c78,45 145,59 174,-15 10,-25 15,-55 15,-91 0,-140 -85,-302 -190,-363l-2719 -1572c-8,-5 -16,-15 -24,-12 -86,24 -100,40 -100,169l12 36c0,140 36,226 141,287z"/>
    <path class="fil10" d="M35753 20519c-9,24 -15,55 -15,90 0,140 85,303 190,363l2719 1573c9,5 17,8 25,11 -29,74 -96,99 -175,53l-2719 -1572c-105,-61 -190,-224 -190,-364 0,-128 72,-192 165,-154z"/>
    <path class="fil13" d="M35699 24957c16,-412 33,-827 135,-1226 205,-809 746,-1500 1390,-2030 644,-530 1289,-910 2030,-1294 1241,117 2522,362 3759,510 189,540 372,1159 98,1662 -126,231 -335,404 -539,571 -377,309 -755,619 -1132,928 -519,425 -1059,877 -1309,1500 -255,635 -171,1359 -367,2015 -72,244 -190,484 -392,638 -202,154 -502,199 -710,53 -199,-141 -261,-405 -297,-646 -264,-1789 372,-3670 1379,-5171 -859,414 -1840,734 -2161,1632 -104,293 -133,606 -170,914 -42,345 -96,689 -162,1031 -71,367 -256,817 -629,815 -217,-2 -544,-57 -659,-241 -301,-484 -287,-1092 -264,-1661z"/>
    <path class="fil14" d="M38632 20323c63,-410 209,-806 240,-1219 34,-457 -74,-912 -140,-1366 -76,-525 -96,-1068 44,-1580 139,-512 454,-992 921,-1244 467,-252 1024,-195 1424,154 697,-38 1349,435 1693,1043 344,608 428,1329 434,2027 5,698 -62,1399 10,2094 42,411 123,862 -103,1208 -143,218 -386,350 -629,448 -994,404 -2154,384 -3134,-53 -187,-84 -371,-185 -508,-336 -279,-308 -314,-766 -252,-1176z"/>
    <path class="fil14" d="M40072 16517c-635,-126 -1253,-338 -1831,-628 -290,-147 -573,-314 -812,-535 -787,-727 -971,-1915 -839,-2978 34,-267 147,-594 415,-617 266,-23 436,278 499,537 131,536 133,1139 485,1563 275,332 707,480 1117,613 515,168 1030,336 1545,504 -250,525 -466,1080 -606,1644 0,-48 1,-97 1,-145l26 42z"/>
    <path class="fil14" d="M42297 17671c937,158 1923,210 2816,-113 313,-113 619,-279 821,-545 177,-233 259,-524 337,-808 145,-527 289,-1054 434,-1581 -71,-161 -207,-259 -383,-250 -175,9 -338,98 -478,205 -482,371 -760,987 -1300,1268 -583,305 -1288,131 -1928,-22 -138,-33 -292,-63 -415,8 -121,70 -173,218 -201,355 -113,555 20,1156 356,1612l-59 -129z"/>
    <path class="fil15" d="M36442 11575c-118,-89 -333,-330 -354,-477 118,-13 326,101 418,204 -61,-138 -158,-431 -142,-580 160,17 297,314 358,453 -42,-163 -78,-499 -56,-666 51,-54 136,14 173,78 120,206 183,560 230,793 37,-115 156,-338 272,-371 118,116 -141,971 -222,1093l-206 128c0,0 -53,14 -116,1 -221,-45 -354,-280 -531,-420 -106,-84 -209,-152 -195,-328 70,-2 265,42 371,92z"/>
    <path class="fil15" d="M46132 13434c184,-23 152,396 336,380 105,-10 122,-155 109,-260 -22,-177 -182,-461 -80,-490 257,26 481,207 547,457 65,250 6,520 -111,750 -117,231 -262,400 -430,596 -67,8 -224,-18 -309,-101 -144,-140 -158,-362 -163,-563 -5,-179 -9,-357 -13,-536 -3,-95 19,-221 114,-233z"/>
    <path class="fil15" d="M39890 13688c-166,863 225,1663 873,1788 649,125 1309,-474 1475,-1337 165,-863 -225,-1664 -874,-1789 -648,-124 -1308,474 -1474,1338z"/>
    <path class="fil16" d="M41973 14858c313,-206 608,-469 745,-818 137,-348 78,-794 -216,-1026 49,-106 39,-249 -22,-348 -62,-100 -154,-175 -247,-247 -208,-165 -433,-325 -694,-375 -134,-26 -273,-21 -409,-9 -402,33 -800,121 -1179,259 -218,80 -377,274 -390,506 -10,179 18,353 130,490 127,153 331,217 525,262 550,127 1120,162 1682,103 -106,406 -78,805 56,1203 14,-7 24,-22 26,-38l-7 38z"/>
    <path class="fil17" d="M41926 14573c-89,113 -99,253 -22,313 76,60 210,16 298,-97 89,-113 99,-253 23,-313 -77,-60 -211,-17 -299,97z"/>
    <path class="fil13" d="M38625 28358c-403,216 -659,525 -570,690 88,164 487,123 890,-94 404,-216 660,-525 571,-690 -88,-164 -487,-123 -891,94z"/>
    <path class="fil13" d="M36014 26871c-404,217 -660,526 -571,691 88,164 487,123 890,-94 404,-216 660,-525 571,-690 -88,-164 -487,-123 -890,93z"/>
    <polygon class="fil18" points="42058,9350 41903,10964 42353,9406 "/>
    <polygon class="fil18" points="43425,10173 42247,11287 43611,10410 "/>
    <polygon class="fil18" points="40480,9669 41419,10990 40741,9518 "/>
    <path class="fil19" d="M38306 26929c-22,-1093 260,-2198 730,-3208l-802 -464c-289,217 -523,483 -651,842 -104,293 -133,606 -170,914 -24,198 -53,396 -85,594 71,258 142,515 170,781 47,445 -52,944 -402,1225 -56,45 -120,86 -153,150 -109,215 218,408 455,359 380,-81 656,-424 794,-787 49,-132 85,-268 114,-406z"/>
    <path class="fil19" d="M40131 25578c-173,431 -190,904 -244,1368 180,461 327,931 114,1354 -73,145 -185,271 -233,425 -49,155 -1,361 153,410 112,36 229,-24 331,-81 378,-213 776,-445 981,-828 221,-413 170,-910 170,-1379 0,-548 80,-1096 236,-1622l-905 -523c-252,258 -469,542 -603,876z"/>
    <path class="fil5" d="M39036 23721c204,-439 444,-859 708,-1254 -516,249 -1076,463 -1510,790l802 464z"/>
    <path class="fil4" d="M41440 24078c-241,197 -487,401 -706,624l905 523c159,-538 395,-1053 703,-1522 21,-31 42,-62 63,-93l-231 -134 -734 602z"/>
    <path class="fil20" d="M42265 23402l201 116c133,-194 269,-393 373,-598 -85,81 -176,156 -267,230l-307 252z"/>
    <path class="fil8" d="M42466 23518l-201 -116 -91 74 231 134c20,-31 41,-61 61,-92z"/>
    <path class="fil21" d="M42556 28044c0,10894 -3611,20244 -8760,24261 -85,66 -170,131 -255,194l10848 6273 1 -340 26 -31601 -1228 -710 -644 -372 -43 -25c0,16 1,33 2,49 11,241 21,484 28,727 16,511 25,1026 25,1544z"/>
    <g>
     <path class="fil22" d="M33486 38266c0,-203 0,-406 0,-610 0,-203 0,-406 0,-610 194,113 389,225 583,338 176,102 334,174 471,214 50,-126 101,-252 152,-379 69,-176 140,-352 210,-529 69,-177 141,-352 211,-529 -32,-69 -68,-138 -110,-208 -216,-366 -533,-670 -950,-912 -489,-283 -977,-567 -1465,-850 0,593 0,1186 0,1779 0,592 0,1184 0,1776 299,173 598,346 898,520zm337 -1714c-113,-65 -225,-130 -337,-196 0,-158 0,-317 0,-476 0,-159 0,-319 0,-478 113,66 226,131 340,197 203,118 347,244 431,379 85,134 127,272 127,415 0,144 -36,238 -111,279 -81,47 -232,7 -450,-120z"/>
     <path class="fil23" d="M35481 37118c-80,199 -160,398 -239,597 -79,200 -158,400 -237,599 161,370 322,741 484,1110 310,179 620,359 931,538 112,-277 225,-555 336,-832 112,-278 225,-556 338,-833 106,404 215,811 321,1214 106,404 214,809 321,1213 312,180 623,361 934,541 238,-453 476,-906 714,-1359 238,-453 476,-906 714,-1360 -316,-183 -631,-366 -946,-549 -164,288 -326,576 -489,864 -163,287 -326,575 -488,863 -116,-449 -232,-898 -347,-1347 -116,-450 -232,-898 -347,-1348 -243,-140 -486,-281 -728,-422 -126,310 -250,620 -374,931 -124,310 -248,620 -372,931 -89,-226 -176,-451 -264,-676 -87,-224 -175,-450 -262,-675z"/>
     <path class="fil22" d="M39781 40585c-91,176 -181,353 -272,531 423,244 848,490 1272,735 76,256 152,512 228,767 328,189 656,380 984,569 -223,-718 -446,-1438 -668,-2157 -222,-719 -444,-1439 -666,-2159 -79,152 -157,304 -234,455 -77,151 -155,303 -232,455 62,209 124,420 186,629 62,210 124,420 186,629 -261,-151 -523,-303 -784,-454z"/>
    </g>
   </g>
   <g>
    <path class="fil24" d="M1096 60274c-435,-857 -94,-1904 763,-2339 857,-435 1904,-94 2339,763 435,857 94,1904 -763,2339 -857,435 -1904,94 -2339,-763z"/>
    <path class="fil25" d="M989 60014c-256,-798 98,-1687 870,-2079 857,-435 1904,-94 2339,763 44,85 79,173 107,261 -478,46 -1168,193 -2050,585 -484,215 -906,365 -1266,470z"/>
    <path class="fil24" d="M1253 60528c497,666 1416,898 2182,509 528,-268 860,-769 936,-1314 -297,-26 -769,25 -1497,301 -586,222 -1147,386 -1621,504z"/>
    <path class="fil24" d="M3887 58265c-202,56 -423,121 -666,196 -914,284 -1640,400 -2207,425 146,-398 437,-744 845,-951 693,-352 1511,-196 2028,330z"/>
    <path class="fil26" d="M2584 60766c794,-403 1110,-1372 707,-2166 -211,-415 -577,-700 -993,-819 749,-153 1537,203 1900,917 435,857 94,1904 -763,2339 -582,296 -1251,233 -1757,-106 301,34 616,-17 906,-165z"/>
    <path class="fil25" d="M11 60591c-80,-218 281,-571 904,-938 8,84 22,168 43,252 -338,212 -524,397 -482,509 43,116 320,130 738,60 68,-11 138,-25 212,-40 414,-86 929,-238 1477,-440 465,-172 888,-357 1232,-533 87,-45 169,-89 245,-132 439,-248 691,-469 644,-597 -46,-125 -364,-135 -834,-51 -40,-76 -85,-148 -134,-216 786,-155 1350,-132 1435,99 91,245 -358,703 -1119,1147 -79,46 -161,92 -247,138 -321,171 -687,336 -1082,483 -483,178 -952,306 -1372,386 -73,14 -144,27 -214,38 -788,124 -1361,64 -1446,-165z"/>
   </g>
   <g>
    <polygon class="fil27" points="10104,13240 12638,15449 16165,10438 14251,8770 "/>
    <polygon class="fil22" points="10104,13240 11183,14180 15188,9586 14251,8770 "/>
    <polygon class="fil28" points="15597,7922 14960,8653 16144,9684 16781,8954 "/>
    <polygon class="fil22" points="15597,7922 14960,8653 15363,9004 16000,8273 "/>
    <path class="fil29" d="M11404 13398l419 -455 -417 -363 -436 440 434 378zm687 599l394 -477 -612 -533 -419 455 637 555zm484 422l377 -491 -417 -364 -393 477 433 378zm-707 -1525l419 -455 -398 -347 -436 440 415 362zm659 575l394 -477 -584 -509 -418 455 608 531zm466 405l377 -491 -399 -348 -393 478 415 361zm-661 -1484l419 -455 -380 -331 -435 440 396 346zm631 550l394 -477 -555 -484 -419 455 580 506zm447 390l377 -492 -380 -331 -393 477 396 346zm-613 -1444l419 -455 -362 -315 -436 440 379 330zm602 525l394 -477 -527 -459 -419 455 552 481zm429 374l377 -491 -362 -316 -393 477 378 330zm-567 -1403l419 -455 -343 -299 -436 440 360 314zm574 501l394 -477 -499 -435 -419 455 524 457zm410 357l377 -491 -343 -299 -393 477 359 313zm-520 -1362l419 -455 -325 -283 -435 440 341 298zm546 476l393 -477 -469 -410 -419 455 495 432zm392 342l377 -492 -325 -283 -394 477 342 298zm-474 -1322l419 -455 -306 -267 -436 441 323 281zm518 452l393 -478 -441 -385 -419 455 467 408zm374 325l376 -491 -306 -268 -394 477 324 282zm-4630 2394l-48 -47 470 -474 -314 -274 46 -49 315 275 435 -440 -329 -288 45 -49 331 289 436 -440 -346 -302 46 -49 347 303 436 -440 -363 -316 46 -49 364 317 435 -440 -378 -330 45 -49 380 331 436 -440 -395 -344 46 -49 396 345 436 -440 -412 -358 46 -49 413 360 435 -441 -427 -372 45 -49 430 374 399 -404 48 47 -397 401 305 265 383 -416 49 45 -382 415 439 383 359 -435 51 42 -360 437 305 265 343 -447 53 41 -345 450 289 253 -39 55 -291 -254 -377 491 310 271 -38 55 -313 -273 -377 492 332 289 -39 55 -333 -291 -377 491 353 308 -39 55 -355 -309 -377 491 374 326 -38 55 -376 -328 -377 492 395 344 -39 55 -397 -346 -377 491 417 363 -39 55 -419 -364 -376 491 437 382 -39 55 -439 -384 -406 530 -53 -41 408 -533 -435 -379 -425 515 -51 -43 426 -516 -640 -558 -454 492 -49 -45 453 -491 -436 -379 -472 477z"/>
    <polygon class="fil30" points="15552,9169 11183,14180 11371,14345 15741,9333 "/>
    <polygon class="fil2" points="15646,9251 11277,14263 11372,14345 15741,9333 "/>
    <polygon class="fil27" points="21647,0 24181,2209 19698,6386 17784,4718 "/>
    <polygon class="fil22" points="21647,0 22726,940 18721,5534 17784,4718 "/>
    <polygon class="fil28" points="17128,6166 17765,5436 18948,6468 18311,7198 "/>
    <polygon class="fil22" points="17128,6166 17765,5436 18167,5787 17531,6518 "/>
    <path class="fil29" d="M21547 888l-377 491 417 364 394 -477 -434 -378zm484 422l-393 477 611 533 419 -455 -637 -555zm688 599l-419 455 417 363 435 -440 -433 -378zm-1589 -477l-377 492 398 348 394 -478 -415 -362zm465 406l-393 477 583 509 419 -455 -609 -531zm659 575l-419 455 399 347 435 -440 -415 -362zm-1542 -436l-377 492 380 331 394 -477 -397 -346zm447 390l-393 477 555 484 419 -455 -581 -506zm631 550l-419 455 380 331 436 -440 -397 -346zm-1495 -395l-377 491 361 316 394 -477 -378 -330zm428 374l-393 477 526 459 419 -455 -552 -481zm603 525l-419 455 362 315 435 -440 -378 -330zm-1449 -355l-377 492 344 299 393 -477 -360 -314zm410 358l-393 477 498 435 419 -455 -524 -457zm575 501l-419 455 343 299 436 -440 -360 -314zm-1403 -314l-376 492 325 283 393 -477 -342 -298zm392 342l-393 477 470 410 419 -455 -496 -432zm546 476l-419 455 325 283 436 -440 -342 -298zm-1355 -273l-377 491 307 268 393 -477 -323 -282zm373 325l-393 478 442 385 419 -455 -468 -408zm518 452l-419 455 307 267 435 -441 -323 -281zm1655 -4098l435 379 425 -515 52 43 -426 516 639 558 454 -492 49 45 -452 491 435 379 472 -477 48 47 -469 474 439 384 -49 45 -437 -381 -436 440 418 365 -49 46 -416 -363 -436 440 398 347 -50 45 -395 -344 -435 440 376 328 -49 46 -374 -326 -436 440 355 309 -49 46 -353 -307 -436 440 334 291 -49 46 -332 -289 -435 440 312 272 -49 46 -310 -271 -436 441 291 254 -49 45 -289 -252 -400 404 -47 -47 397 -401 -305 -265 -384 416 -49 -45 382 -415 -439 -383 -358 435 -52 -42 360 -437 -305 -265 -343 447 -53 -41 346 -450 -429 -375 42 -51 428 372 376 -491 -412 -360 42 -52 411 359 377 -492 -396 -345 42 -52 395 344 377 -491 -381 -332 43 -52 378 330 377 -491 -364 -317 43 -52 362 316 377 -492 -348 -303 42 -51 346 301 377 -491 -331 -289 42 -52 330 287 377 -491 -315 -275 42 -51 314 273 406 -530 53 41 -409 533z"/>
    <polygon class="fil30" points="18356,5952 22726,940 22915,1105 18545,6116 "/>
    <polygon class="fil2" points="18451,6034 22820,1022 22915,1105 18545,6116 "/>
    <path class="fil31" d="M14353 2351c745,785 727,2096 -72,3017 -800,921 -2094,1123 -2977,496l3049 -3513z"/>
    <path class="fil32" d="M14353 2351c-201,-174 -1046,472 -1887,1441 -842,970 -1362,1898 -1162,2072 201,174 1046,-471 1888,-1441 841,-970 1361,-1898 1161,-2072z"/>
    <polygon class="fil22" points="13135,4488 12409,3857 12562,3681 13287,4311 "/>
    <path class="fil31" d="M12252 4038c-113,-98 -100,-298 29,-447 129,-148 325,-189 438,-91 113,98 101,299 -28,447 -129,149 -326,190 -439,91z"/>
    <polygon class="fil32" points="16044,5376 14558,7080 15619,8284 17358,9800 19085,7819 17346,6303 "/>
    <polygon class="fil31" points="15477,4466 13589,6632 14757,8005 16704,9703 18900,7184 16952,5486 "/>
    <path class="fil32" d="M20159 8282c-278,-243 -700,-214 -943,65l-1317 1511c-243,278 -214,700 64,943l1058 922c279,242 701,213 943,-65l1317 -1511c243,-278 214,-700 -64,-943l-1058 -922z"/>
    <polygon class="fil31" points="19320,7550 17124,10069 18098,10918 20294,8399 "/>
    <path class="fil32" d="M15693 4388c-74,-64 -189,-54 -256,23l-1905 2185c-68,77 -62,192 12,257 74,65 189,55 257,-23l1904 -2185c68,-77 62,-192 -12,-257z"/>
    <path class="fil33" d="M9569 4403c-6,38 -41,64 -79,58 -38,-6 -64,-42 -58,-79 1,-8 379,-2569 2811,-3521 36,-14 76,3 90,39 14,35 -4,76 -39,89 -2358,923 -2724,3407 -2725,3414z"/>
    <path class="fil33" d="M10476 4142c-6,38 -41,64 -79,58 -38,-6 -63,-41 -58,-79 1,-5 245,-1664 1821,-2280 35,-14 75,4 89,39 14,36 -3,76 -39,90 -1500,587 -1733,2168 -1734,2172z"/>
    <path class="fil33" d="M11370 3774c-6,37 -42,63 -80,56 -38,-7 -63,-43 -56,-80 0,-3 139,-852 1025,-1167 36,-13 75,6 88,42 13,36 -6,75 -42,88 -809,288 -934,1059 -935,1061z"/>
    <path class="fil34" d="M20294 8399l-1098 1259 1427 1245 658 -756c243,-278 214,-700 -64,-943l-923 -805z"/>
    <polygon class="fil34" points="18222,8809 19085,7819 18666,7453 17802,8443 "/>
    <path class="fil34" d="M14730 5765l975 -1120c4,-4 8,-9 11,-13 56,-77 47,-183 -23,-244 -74,-64 -189,-54 -256,23l-976 1120 50 43 219 191z"/>
    <path class="fil35" d="M12756 3849c62,-127 53,-266 -32,-344 -1,-2 -3,-3 -5,-5 -113,-98 -309,-57 -438,91 -7,8 -13,15 -19,23l1 1 203 177 204 177c7,-7 14,-14 21,-22 26,-31 48,-64 65,-98z"/>
    <path class="fil30" d="M12925 3996l-169 -147c-17,34 -39,67 -65,98 -7,8 -14,15 -21,22l159 139 362 315 96 -112 -362 -315z"/>
    <path class="fil34" d="M12756 3849l169 147 362 315c764,-903 1233,-1745 1080,-1944 -5,-6 -10,-11 -14,-16 -180,-156 -879,348 -1629,1154 85,78 94,217 32,344z"/>
    <path class="fil35" d="M14367 2367c152,199 -316,1041 -1080,1944 -31,37 -63,74 -95,112 -1,0 -1,0 -1,0l1087 948c1,-1 2,-2 3,-3 794,-915 817,-2215 86,-3001z"/>
    <path class="fil35" d="M15705 4645l-975 1120 554 483 2518 2195 864 -990 234 -269 -328 -285 -780 -681 -403 -351 -437 -381 -1236 -854c-3,4 -7,9 -11,13z"/>
    <polygon class="fil35" points="19320,7550 18222,8809 19196,9658 20294,8399 "/>
   </g>
   <g>
    <path class="fil36" d="M52711 13441l0 0zm-3684 -2127c3,-45 9,-88 18,-128 33,-145 106,-251 207,-309 141,-82 336,-71 552,54 14,8 27,17 41,26 56,-118 136,-206 234,-263 0,-1 1,-1 1,-1 0,0 0,0 0,0 0,0 0,0 1,0 40,-23 82,-41 128,-54 186,-50 415,-11 664,132 461,266 855,815 1024,1371 13,7 26,12 40,20 411,238 746,798 773,1279 231,207 401,550 400,839l0 18c0,170 -60,290 -156,349l-4 2c-100,58 -239,50 -391,-38l-3388 -1956c-302,-174 -549,-601 -548,-948l0 -18c1,-172 62,-293 160,-351 67,-38 150,-48 244,-24z"/>
    <path class="fil4" d="M50080 10693c0,0 -1,0 -1,1 -98,57 -178,145 -234,263 -14,-9 -27,-18 -41,-26 -24,-14 -48,-27 -72,-38 -187,-88 -355,-89 -480,-16l454 -264c126,-73 295,-72 483,17l-109 63zm2272 1184l0 0zm-455 265c-169,-556 -563,-1105 -1024,-1371 -249,-143 -478,-182 -664,-132 -46,13 -88,31 -128,54l108 -63 345 -201c149,-86 340,-100 554,-31 607,198 1090,909 1264,1479l-455 265z"/>
    <path class="fil5" d="M53165 13177l0 0zm-1268 -1035l455 -265c443,232 785,805 813,1300l-455 264c-27,-481 -362,-1041 -773,-1279 -14,-8 -27,-13 -40,-20z"/>
    <path class="fil4" d="M52710 13441l455 -264c98,87 183,196 250,314 114,204 211,537 107,760 -14,31 -33,60 -56,85 -33,35 -64,50 -106,74l-406 237c96,-59 156,-179 156,-349l0 -18c1,-289 -169,-632 -400,-839z"/>
    <path class="fil5" d="M49045 11186c-9,40 -15,83 -18,128 -94,-24 -177,-14 -244,24l262 -152z"/>
   </g>
   <g>
    <path class="fil3" d="M29870 44903l0 0zm-10039 -5796c8,-123 25,-240 50,-347 91,-397 290,-685 563,-844 385,-224 918,-192 1506,147 37,22 73,48 110,70 153,-319 371,-561 639,-717 1,0 1,0 2,0 0,-1 0,-1 0,-1 1,0 2,-1 2,-1 109,-63 225,-111 349,-145 507,-138 1133,-32 1811,359 1255,725 2329,2220 2790,3734 36,20 72,35 109,57 1120,647 2032,2175 2107,3484 629,566 1092,1500 1090,2286l0 49c-1,463 -164,792 -427,951l-11 6c-272,159 -649,137 -1064,-102l-9234 -5331c-823,-475 -1494,-1638 -1491,-2584l0 -49c1,-469 168,-799 436,-956 182,-105 409,-131 663,-66z"/>
    <path class="fil5" d="M22701 37416c-1,0 -1,0 -2,0 -268,156 -486,398 -639,717 -37,-22 -73,-48 -110,-70 -67,-38 -133,-73 -198,-103 -509,-240 -966,-242 -1308,-44l1240 -720c342,-199 802,-196 1314,47l-297 173zm6191 3226l0 0zm-1239 720c-461,-1514 -1535,-3009 -2790,-3734 -678,-391 -1304,-497 -1811,-359 -124,34 -240,82 -349,145l295 -171 940 -547c406,-235 927,-274 1509,-84 1657,538 2973,2477 3445,4030l-1239 720z"/>
    <path class="fil4" d="M31109 44183l0 0zm-3456 -2821l1239 -720c1208,630 2139,2192 2217,3541l-1240 720c-75,-1309 -987,-2837 -2107,-3484 -37,-22 -73,-37 -109,-57z"/>
    <path class="fil5" d="M29869 44903l1240 -720c265,239 498,535 680,858 312,555 576,1461 292,2069 -40,85 -90,164 -153,231 -90,97 -174,138 -287,204l-1109 644c263,-159 426,-488 427,-951l0 -49c2,-786 -461,-1720 -1090,-2286z"/>
    <path class="fil4" d="M19881 38760c-25,108 -42,224 -50,347 -254,-65 -481,-39 -663,66l713 -413z"/>
   </g>
   <path class="fil37" d="M37030 68057c-813,-27 -1465,-695 -1470,-1523l-13 0c-5,828 -657,1496 -1472,1523 816,27 1472,701 1472,1534l11 0c0,-833 656,-1507 1472,-1534z"/>
   <path class="fil38" d="M45265 59909l-670 384c-7,4 -13,7 -19,11 -46,23 -100,27 -160,9 -26,-7 -54,-19 -82,-35l-1947 -1126 -12159 -7031c-60,-35 -116,-86 -167,-147 -425,-8 -851,-11 -1277,-9l4487 2595 1710 988 6976 4034 2074 1199c163,94 229,29 372,-48l728 -417 -2 -1c82,-46 136,-153 136,-309l0 -97z"/>
   <path class="fil39" d="M42387 59152l-6655 -3849 -1651 -954 -3853 -2228c-60,-35 -116,-86 -167,-147 -425,-8 -851,-11 -1277,-9l4487 2595 1710 988 6976 4034c139,-146 283,-290 430,-430z"/>
   <path class="fil40" d="M44302 60259l-1915 -1107 -6655 -3849 -1651 -954 -3853 -2228c-60,-35 -116,-86 -167,-147 -102,-2 -204,-3 -306,-5 47,55 99,101 154,132l3973 2298 1665 962 6522 3771 211 123 1736 1003c28,16 55,28 81,36 60,17 114,13 160,-10l19 -10 26 -15z"/>
  </g>
 </g>
</svg>
