<?xml version="1.0" encoding="UTF-8"?>
<!DOCTYPE svg PUBLIC "-//W3C//DTD SVG 1.1//EN" "http://www.w3.org/Graphics/SVG/1.1/DTD/svg11.dtd">
<!-- Creator: CorelDRAW X7 -->
<svg xmlns="http://www.w3.org/2000/svg" xml:space="preserve" width="11.7597in" height="13.2394in" version="1.1" style="shape-rendering:geometricPrecision; text-rendering:geometricPrecision; image-rendering:optimizeQuality; fill-rule:evenodd; clip-rule:evenodd"
viewBox="0 0 117597 132394"
 xmlns:xlink="http://www.w3.org/1999/xlink">
 <defs>
  <style type="text/css">
   <![CDATA[
    .fil24 {fill:#826C44}
    .fil21 {fill:#8480BC}
    .fil4 {fill:#9F9CCB}
    .fil20 {fill:#9F9CCB}
    .fil32 {fill:#A38755}
    .fil19 {fill:#A7B8DB}
    .fil42 {fill:#A98C58}
    .fil36 {fill:#B0BEDF}
    .fil29 {fill:#BB9B61}
    .fil23 {fill:#BB9B61}
    .fil5 {fill:#BBB8DA}
    .fil9 {fill:#C1C0DF}
    .fil40 {fill:#C9AC76}
    .fil8 {fill:#CDCCE5}
    .fil34 {fill:#CED7EB}
    .fil28 {fill:#D7B77D}
    .fil22 {fill:#D7DFEF}
    .fil41 {fill:#DBC49B}
    .fil30 {fill:#DCC08D}
    .fil1 {fill:#DFC596}
    .fil38 {fill:#E1E7F4}
    .fil0 {fill:#E7D4B0}
    .fil37 {fill:#E9D7B7}
    .fil3 {fill:#E9EDF7}
    .fil2 {fill:#EDDFC4}
    .fil33 {fill:#F3E9D8}
    .fil13 {fill:#536896;fill-rule:nonzero}
    .fil16 {fill:#6C87C3;fill-rule:nonzero}
    .fil12 {fill:#7875A3;fill-rule:nonzero}
    .fil18 {fill:#9F9CCB;fill-rule:nonzero}
    .fil14 {fill:#B3C1E0;fill-rule:nonzero}
    .fil27 {fill:#BB9B61;fill-rule:nonzero}
    .fil6 {fill:#D2AE6D;fill-rule:nonzero}
    .fil25 {fill:#D9BF90;fill-rule:nonzero}
    .fil7 {fill:#E1CBA3;fill-rule:nonzero}
    .fil35 {fill:#E6D6B9;fill-rule:nonzero}
    .fil26 {fill:#E7D4B0;fill-rule:nonzero}
    .fil11 {fill:#E8ECF5;fill-rule:nonzero}
    .fil15 {fill:#E9D9BA;fill-rule:nonzero}
    .fil17 {fill:#EFE3CB;fill-rule:nonzero}
    .fil39 {fill:#F5EEE0;fill-rule:nonzero}
    .fil31 {fill:#F6EFE2;fill-rule:nonzero}
    .fil10 {fill:white;fill-rule:nonzero}
   ]]>
  </style>
 </defs>
 <g id="Layer_x0020_1">
  <metadata id="CorelCorpID_0Corel-Layer"/>
  <g id="_1307562136768">
   <g>
    <g>
     <path class="fil0" d="M71340 132394c-2489,-7464 -1557,-15093 2902,-21270 511,-708 1061,-1389 1650,-2042 5792,-6429 15292,-10206 27090,-10706 6109,-259 10956,-1002 14615,-2251l0 -48270c-15618,-2656 -26812,-2051 -33932,6382 -773,914 -1657,2952 -1975,4003 -2510,8300 4497,18914 5935,26314 1265,6507 -2881,10756 -17160,12811 -16339,2353 -27704,8175 -31975,17065 -3189,6637 -2848,12524 -697,17964l33547 0z"/>
     <path class="fil1" d="M117597 132394l0 -23312 0 -12957c-3659,1249 -8506,1992 -14615,2251 -11798,500 -21298,4277 -27090,10706 -589,653 -1139,1334 -1650,2042 -4459,6177 -5391,13806 -2902,21270l46257 0z"/>
     <path class="fil2" d="M46179 132394c-2267,-6122 -2107,-12424 711,-17955 989,-1940 2271,-3731 3822,-5357 4969,-5210 12707,-8741 22453,-10144 11594,-1669 31341,-3295 24676,-16031 -2944,-5624 -11218,-11117 -14272,-17676 -1923,-4131 -1852,-8593 1105,-12109 -5970,4980 -3598,18205 -4753,28162 -1505,12978 -8751,13873 -23395,13420 -2734,-84 -5514,-90 -8250,46 -17934,890 -26852,7695 -24693,20066 1017,5831 4197,12215 7825,17578l14771 0z"/>
    </g>
    <path class="fil1" d="M117597 79216c-1226,-3422 -3803,-5870 -6731,-7837 -6115,-4107 -13764,-6116 -13834,-10509 -113,-7055 12230,-9097 20565,-8602l0 26948z"/>
   </g>
   <g>
    <path class="fil3" d="M100445 48325l0 0zm-13872 -8009c12,-171 35,-332 69,-481 126,-548 401,-946 779,-1166 532,-308 1268,-265 2081,204 51,30 101,65 152,97 211,-441 512,-776 883,-991 0,0 1,-1 2,-1 0,0 1,0 1,-1 1,0 2,-1 3,-1 150,-87 311,-154 482,-200 700,-192 1565,-44 2501,496 1735,1002 3219,3067 3856,5160 50,27 100,48 151,78 1548,894 2808,3005 2912,4815 868,781 1509,2073 1506,3158l0 68c-2,640 -227,1095 -590,1314l-15 9c-377,219 -898,190 -1471,-141l-12760 -7367c-1137,-657 -2065,-2264 -2061,-3570l0 -68c2,-648 233,-1105 604,-1321 250,-145 564,-181 915,-91z"/>
    <path class="fil4" d="M90539 37978c-1,0 -2,1 -2,1 -371,215 -672,550 -883,991 -51,-32 -101,-67 -152,-97 -92,-53 -184,-101 -274,-143 -704,-332 -1336,-334 -1807,-61l1712 -995c474,-275 1109,-271 1817,65l-411 239zm8556 4459l0 0zm-1713 995c-637,-2093 -2121,-4158 -3856,-5160 -936,-540 -1801,-688 -2501,-496 -171,46 -332,113 -482,200l407 -237 1299 -755c561,-326 1280,-379 2085,-117 2289,744 4108,3424 4761,5570l-1713 995z"/>
    <path class="fil5" d="M102158 47330l0 0zm-4776 -3898l1713 -995c1668,871 2956,3029 3063,4893l-1713 995c-104,-1810 -1364,-3921 -2912,-4815 -51,-30 -101,-51 -151,-78z"/>
    <path class="fil4" d="M100445 48325l1713 -995c366,330 689,739 940,1185 431,767 796,2019 404,2859 -56,118 -125,226 -212,320 -125,134 -240,190 -398,281l-1531 890c363,-219 588,-674 590,-1314l0 -68c3,-1085 -638,-2377 -1506,-3158z"/>
    <path class="fil5" d="M86642 39835c-34,149 -57,310 -69,481 -351,-90 -665,-54 -915,91l984 -572z"/>
   </g>
   <path class="fil6" d="M109322 38503c-623,-21 -1123,-534 -1128,-1168l-9 0c-4,634 -505,1147 -1130,1168 627,21 1130,538 1130,1176l8 0c0,-638 503,-1155 1129,-1176z"/>
   <path class="fil7" d="M33200 80177c-968,-32 -1744,-827 -1750,-1812l-15 0c-7,985 -783,1780 -1753,1812 972,33 1753,835 1753,1826l13 0c0,-991 780,-1793 1752,-1826z"/>
   <g>
    <path class="fil4" d="M56202 29046l0 -6 -1566 895c0,0 2592,1884 2614,1869l0 0c7,-4 52,-143 113,-332l0 0 -41 60413c0,516 312,1115 699,1338l0 0 23102 13359 64 3251 1563 -895 -4 -2c150,-85 247,-280 247,-564l0 0 43 -63092c0,-515 -313,-1114 -699,-1338l0 0 -25692 -14856c-97,-56 -188,-82 -271,-82l0 0c-63,0 -120,15 -172,42l0 0z"/>
    <path class="fil8" d="M75496 48044l1173 678 6349 -3657c-61,-399 -280,-807 -556,-1034l0 0 -6966 4013z"/>
    <path class="fil9" d="M54824 29886l-4 0c-248,0 -421,229 -422,613l0 0 -42 63092c0,515 312,1114 699,1338l0 0 25692 14856c387,224 700,-13 700,-528l0 0 43 -63092c0,-516 -312,-1114 -699,-1338l0 0 -25693 -14857c-97,-56 -190,-83 -274,-84z"/>
    <path class="fil10" d="M80791 44827l-25693 -14857c-230,-132 -432,-100 -559,55 108,-29 235,-10 373,69l25693 14857c386,223 699,822 699,1338l-43 63092c0,209 -53,369 -140,474 195,-53 326,-266 326,-598l43 -63092c0,-516 -313,-1115 -699,-1338z"/>
    <polygon class="fil11" points="54940,92062 80848,107043 80896,48869 54989,33888 "/>
    <path class="fil12" d="M65216 38265l4900 2844c144,83 265,107 318,-27 18,-45 28,-101 28,-165 0,-255 -155,-552 -346,-662l-4952 -2864c-16,-9 -30,-26 -45,-22 -156,44 -182,74 -182,309l22 66c0,255 65,411 257,521z"/>
    <path class="fil10" d="M65118 37371c-17,45 -27,100 -27,164 0,255 155,552 346,663l4953 2863c15,9 30,14 44,20 -52,135 -175,180 -319,98l-4952 -2864c-192,-111 -346,-407 -346,-662 0,-235 132,-351 301,-282z"/>
    <path class="fil13" d="M65019 45454c30,-750 60,-1506 246,-2233 373,-1472 1359,-2731 2532,-3696 1172,-965 2348,-1659 3697,-2357 2261,212 4593,658 6847,928 343,985 678,2112 178,3028 -230,421 -610,735 -981,1040 -688,562 -1375,1126 -2063,1689 -945,774 -1928,1598 -2383,2732 -465,1157 -312,2476 -668,3671 -133,443 -347,882 -715,1162 -367,281 -914,361 -1292,95 -364,-256 -477,-736 -543,-1176 -480,-3258 678,-6683 2513,-9417 -1565,754 -3352,1337 -3936,2973 -190,532 -242,1102 -311,1663 -76,629 -174,1256 -294,1878 -129,669 -465,1488 -1146,1484 -395,-2 -991,-103 -1199,-438 -548,-881 -524,-1989 -482,-3026z"/>
    <path class="fil14" d="M70362 37015c114,-747 379,-1468 436,-2221 62,-833 -133,-1661 -254,-2488 -139,-956 -175,-1945 79,-2877 253,-932 827,-1808 1678,-2266 850,-459 1865,-355 2593,281 1270,-70 2458,792 3085,1899 627,1108 779,2420 789,3692 9,1272 -113,2549 18,3815 77,747 225,1570 -187,2198 -260,399 -703,639 -1145,818 -1811,735 -3923,699 -5709,-98 -340,-152 -675,-336 -925,-612 -507,-560 -572,-1395 -458,-2141z"/>
    <path class="fil14" d="M72984 30082c-1156,-228 -2281,-614 -3334,-1144 -529,-266 -1045,-571 -1480,-974 -1433,-1324 -1769,-3487 -1527,-5423 61,-487 267,-1082 756,-1124 484,-42 793,506 908,978 239,977 241,2074 883,2846 501,605 1288,875 2035,1118 937,306 1875,611 2813,916 -454,957 -848,1968 -1103,2996 1,-88 1,-177 2,-264l47 75z"/>
    <path class="fil14" d="M77036 32185c1707,287 3502,382 5129,-206 570,-207 1129,-509 1495,-992 324,-426 472,-956 614,-1473 264,-959 527,-1919 791,-2878 -129,-294 -377,-472 -697,-456 -320,17 -617,177 -871,373 -878,677 -1384,1798 -2367,2310 -1063,554 -2347,238 -3512,-41 -252,-60 -532,-115 -756,15 -221,128 -316,396 -367,647 -205,1011 36,2105 649,2936l-108 -235z"/>
    <path class="fil15" d="M66374 21081c-217,-162 -608,-600 -646,-868 215,-24 594,184 762,371 -112,-250 -289,-784 -260,-1056 292,31 542,572 653,824 -76,-296 -142,-908 -102,-1212 92,-98 247,26 315,143 218,374 333,1019 419,1443 67,-209 284,-615 496,-675 213,211 -257,1768 -406,1991l-374 232c0,0 -97,26 -212,2 -403,-81 -645,-510 -967,-765 -193,-152 -380,-275 -356,-598 128,-3 484,78 678,168z"/>
    <path class="fil15" d="M84021 24468c335,-42 277,721 612,691 192,-17 223,-282 199,-473 -40,-322 -332,-839 -146,-893 467,49 876,378 996,833 119,456 11,946 -201,1366 -213,420 -477,728 -784,1085 -122,14 -407,-33 -562,-183 -263,-255 -289,-661 -298,-1026 -8,-325 -16,-650 -24,-975 -4,-174 36,-404 208,-425z"/>
    <path class="fil15" d="M72653 24929c-302,1573 410,3031 1590,3258 1181,227 2383,-864 2686,-2436 301,-1572 -411,-3030 -1591,-3257 -1181,-227 -2383,863 -2685,2435z"/>
    <path class="fil16" d="M76447 27061c570,-375 1106,-855 1356,-1490 250,-634 143,-1447 -394,-1867 90,-194 73,-454 -40,-635 -112,-182 -280,-319 -448,-451 -381,-299 -790,-591 -1265,-683 -244,-46 -497,-37 -745,-16 -733,61 -1457,221 -2147,473 -397,145 -687,499 -711,920 -18,327 33,644 237,892 231,281 602,397 956,478 1001,232 2041,295 3063,187 -192,740 -141,1468 103,2193 25,-14 43,-41 47,-69l-12 68z"/>
    <path class="fil17" d="M76360 26541c-161,206 -179,462 -40,570 139,109 382,31 544,-175 161,-206 180,-462 41,-571 -139,-108 -383,-30 -545,176z"/>
    <path class="fil13" d="M70349 51648c-735,394 -1200,957 -1039,1257 161,300 887,224 1622,-170 735,-394 1201,-956 1039,-1257 -160,-300 -886,-224 -1622,170z"/>
    <path class="fil13" d="M65592 48942c-735,394 -1200,956 -1039,1257 160,299 887,224 1622,-170 735,-395 1200,-957 1039,-1257 -160,-300 -887,-225 -1622,170z"/>
    <polygon class="fil18" points="76601,17029 76320,19968 77139,17132 "/>
    <polygon class="fil18" points="79091,18529 76946,20557 79429,18960 "/>
    <polygon class="fil18" points="73727,17610 75437,20017 74202,17335 "/>
    <path class="fil19" d="M69768 49047c-41,-1992 474,-4003 1330,-5844l-1462 -845c-526,395 -952,881 -1185,1535 -190,532 -242,1102 -311,1663 -43,362 -94,723 -153,1082 129,470 257,939 309,1422 86,812 -95,1720 -732,2231 -102,83 -218,158 -278,274 -200,393 397,744 827,654 694,-146 1196,-771 1446,-1434 91,-240 156,-488 209,-738z"/>
    <path class="fil19" d="M73092 46585c-316,786 -346,1647 -445,2492 328,839 595,1696 207,2467 -132,264 -336,493 -424,774 -88,282 -2,657 279,746 204,65 417,-43 603,-148 689,-387 1414,-810 1787,-1507 401,-752 308,-1659 308,-2512 0,-998 148,-1996 430,-2954l-1647 -952c-460,469 -854,987 -1098,1594z"/>
    <path class="fil5" d="M71098 43203c371,-799 807,-1565 1289,-2283 -939,452 -1959,844 -2751,1438l1462 845z"/>
    <path class="fil20" d="M75475 43853c-439,360 -886,730 -1285,1138l1647 952c290,-980 721,-1918 1282,-2772 37,-57 75,-113 113,-170l-420 -243 -1337 1095z"/>
    <path class="fil21" d="M76978 42622l367 213c241,-355 488,-716 678,-1091 -154,147 -321,284 -485,420l-560 458z"/>
    <path class="fil8" d="M77345 42835l-367 -213 -166 136 420 243c38,-55 75,-111 113,-166z"/>
    <path class="fil22" d="M77507 51078c0,19840 -6575,36870 -15954,44187 -154,120 -309,238 -465,353l19760 11425 0 -620 48 -57554 -2236 -1294 -1173 -678 -80 -46c2,30 3,60 4,90 21,439 38,881 52,1324 30,931 44,1869 44,2813z"/>
    <g>
     <path class="fil23" d="M60989 69694c0,-369 0,-739 0,-1109 0,-371 0,-741 0,-1111 353,204 708,409 1062,614 320,187 608,316 858,390 91,-229 184,-459 276,-690 127,-321 255,-640 382,-963 127,-323 257,-643 386,-964 -59,-126 -125,-252 -201,-380 -394,-665 -971,-1219 -1730,-1660 -891,-516 -1780,-1032 -2669,-1548 0,1080 0,2159 0,3239 0,1078 0,2158 0,3236 545,315 1090,630 1636,946zm613 -3122c-205,-118 -409,-236 -613,-355 0,-289 0,-579 0,-869 0,-288 0,-580 0,-870 206,120 411,240 618,359 370,215 633,444 787,690 154,244 231,496 231,757 0,262 -67,433 -202,508 -149,85 -423,11 -821,-220z"/>
     <path class="fil24" d="M64622 67605c-145,362 -291,724 -435,1086 -144,364 -288,729 -431,1091 293,674 585,1349 880,2022 565,326 1131,654 1696,980 204,-505 410,-1011 613,-1516 204,-506 410,-1012 615,-1517 194,736 391,1476 584,2211 194,737 391,1474 586,2210 567,328 1134,657 1701,985 433,-824 867,-1650 1300,-2476 433,-824 867,-1650 1300,-2476 -575,-334 -1149,-667 -1723,-999 -298,524 -594,1048 -891,1573 -296,522 -592,1047 -889,1571 -210,-818 -421,-1635 -632,-2453 -211,-819 -421,-1635 -632,-2455 -442,-255 -884,-512 -1326,-768 -228,564 -454,1129 -680,1694 -226,566 -452,1131 -678,1696 -161,-411 -320,-821 -480,-1230 -159,-408 -318,-820 -478,-1229z"/>
     <path class="fil23" d="M72454 73918c-166,321 -330,644 -495,967 771,445 1543,893 2316,1340 139,465 278,931 416,1396 596,344 1194,692 1792,1037 -406,-1309 -812,-2620 -1216,-3929 -404,-1309 -810,-2622 -1215,-3932 -142,277 -284,553 -424,829 -141,275 -283,552 -424,827 113,382 226,765 340,1147 113,382 226,764 339,1145 -476,-275 -953,-552 -1429,-827z"/>
    </g>
   </g>
   <g>
    <path class="fil25" d="M1995 109778c-792,-1560 -169,-3468 1391,-4260 1560,-793 3468,-170 4260,1390 793,1561 170,3468 -1390,4261 -1561,792 -3468,170 -4261,-1391z"/>
    <path class="fil26" d="M1801 109306c-465,-1455 179,-3074 1585,-3788 1561,-793 3468,-170 4260,1390 79,156 144,314 195,475 -870,85 -2127,351 -3735,1066 -881,392 -1650,665 -2305,857z"/>
    <path class="fil25" d="M2282 110241c905,1213 2578,1636 3974,928 962,-489 1567,-1401 1705,-2394 -541,-47 -1401,45 -2727,548 -1066,404 -2089,703 -2952,918z"/>
    <path class="fil25" d="M7080 106120c-369,101 -772,220 -1214,357 -1665,516 -2987,728 -4019,774 266,-726 796,-1356 1539,-1733 1262,-641 2751,-356 3694,602z"/>
    <path class="fil27" d="M4707 110675c1445,-734 2021,-2500 1288,-3945 -385,-757 -1053,-1275 -1809,-1492 1363,-280 2800,369 3460,1671 793,1560 170,3467 -1390,4260 -1060,538 -2279,423 -3201,-194 550,62 1122,-31 1652,-300z"/>
    <path class="fil26" d="M20 110355c-146,-396 511,-1038 1646,-1708 14,153 40,306 78,459 -615,387 -953,723 -878,927 78,212 584,237 1346,110 122,-21 251,-45 386,-73 754,-157 1692,-433 2690,-802 846,-313 1616,-649 2243,-970 158,-82 308,-162 447,-241 798,-452 1258,-853 1172,-1087 -84,-227 -662,-246 -1519,-92 -73,-139 -154,-270 -243,-393 1430,-284 2458,-242 2613,179 165,446 -653,1280 -2037,2088 -145,85 -295,169 -451,252 -586,312 -1251,613 -1971,880 -879,325 -1734,558 -2498,704 -133,25 -264,48 -391,68 -1435,226 -2478,117 -2633,-301z"/>
   </g>
   <g>
    <polygon class="fil28" points="18403,24115 23018,28138 29441,19011 25956,15973 "/>
    <polygon class="fil29" points="18403,24115 20367,25827 27662,17460 25956,15973 "/>
    <polygon class="fil30" points="28407,14429 27247,15759 29403,17639 30563,16308 "/>
    <polygon class="fil29" points="28407,14429 27247,15759 27981,16399 29141,15069 "/>
    <path class="fil31" d="M20770 24402l763 -828 -759 -662 -793 802 789 688zm1252 1091l716 -868 -1113 -971 -763 828 1160 1011zm881 769l687 -895 -760 -662 -716 869 789 688zm-1287 -2778l763 -828 -726 -633 -793 802 756 659zm1200 1047l717 -869 -1063 -926 -762 828 1108 967zm848 739l686 -895 -726 -633 -716 869 756 659zm-1203 -2704l763 -828 -692 -604 -793 802 722 630zm1149 1002l717 -869 -1011 -881 -763 828 1057 922zm814 710l687 -895 -693 -604 -716 869 722 630zm-1117 -2630l763 -828 -659 -574 -793 802 689 600zm1097 957l717 -869 -959 -836 -763 828 1005 877zm781 681l686 -895 -659 -575 -716 869 689 601zm-1033 -2555l763 -829 -625 -545 -793 802 655 572zm1046 911l717 -869 -908 -791 -763 829 954 831zm747 652l687 -895 -626 -546 -716 869 655 572zm-947 -2481l763 -829 -592 -516 -793 802 622 543zm994 866l717 -869 -856 -746 -763 829 902 786zm714 623l686 -896 -592 -515 -716 868 622 543zm-863 -2407l763 -829 -558 -486 -793 802 588 513zm943 822l717 -869 -805 -701 -763 828 851 742zm680 593l687 -896 -559 -486 -716 869 588 513zm-8432 4360l-86 -86 855 -864 -571 -497 83 -90 574 501 793 -802 -600 -524 82 -89 604 526 793 -802 -630 -550 83 -89 633 552 793 -802 -660 -575 83 -89 663 577 793 -802 -689 -601 82 -89 693 604 793 -802 -719 -627 83 -89 722 629 793 -802 -749 -653 83 -89 752 655 793 -801 -778 -679 83 -89 781 681 728 -736 86 86 -722 730 555 484 698 -758 90 82 -696 756 799 697 654 -793 94 78 -656 795 555 484 625 -815 96 74 -629 821 526 459 -70 100 -530 -462 -687 895 566 493 -71 100 -569 -496 -686 895 604 526 -71 100 -607 -529 -687 895 643 560 -71 100 -646 -563 -686 895 681 594 -71 100 -684 -597 -687 895 720 627 -70 101 -724 -631 -686 895 758 661 -70 100 -762 -664 -687 895 797 695 -70 100 -801 -698 -740 965 -96 -75 744 -970 -793 -692 -773 938 -94 -77 775 -941 -1165 -1016 -826 897 -89 -82 824 -894 -793 -692 -861 870z"/>
    <polygon class="fil32" points="28325,16699 20367,25827 20711,26127 28669,16999 "/>
    <polygon class="fil2" points="28497,16849 20539,25977 20711,26127 28669,16999 "/>
    <polygon class="fil28" points="39427,0 44041,4023 35876,11630 32391,8592 "/>
    <polygon class="fil29" points="39427,0 41391,1712 34096,10079 32391,8592 "/>
    <polygon class="fil30" points="31195,11231 32355,9900 34511,11780 33351,13110 "/>
    <polygon class="fil29" points="31195,11231 32355,9900 33089,10540 31929,11870 "/>
    <path class="fil31" d="M39244 1617l-686 895 760 662 716 -869 -790 -688zm882 768l-717 869 1114 971 763 -828 -1160 -1012zm1252 1092l-763 828 759 662 793 -802 -789 -688zm-2894 -868l-686 895 725 633 717 -869 -756 -659zm848 739l-717 869 1063 926 763 -828 -1109 -967zm1200 1047l-763 828 726 633 793 -802 -756 -659zm-2809 -794l-686 895 692 604 717 -869 -723 -630zm815 710l-717 869 1011 881 763 -828 -1057 -922zm1149 1001l-763 829 692 603 793 -802 -722 -630zm-2724 -719l-686 895 658 575 717 -869 -689 -601zm781 681l-717 869 959 836 763 -829 -1005 -876zm1097 956l-763 829 659 574 793 -802 -689 -601zm-2638 -645l-687 895 625 545 717 -869 -655 -571zm747 652l-717 868 908 791 763 -828 -954 -831zm1046 911l-763 829 625 545 793 -802 -655 -572zm-2554 -571l-686 895 591 516 717 -869 -622 -542zm714 622l-717 869 856 746 763 -828 -902 -787zm994 867l-763 829 592 515 793 -802 -622 -542zm-2469 -497l-686 895 558 487 717 -869 -589 -513zm681 593l-717 869 804 701 764 -828 -851 -742zm942 822l-763 828 559 487 793 -802 -589 -513zm3015 -7464l793 691 773 -938 94 78 -776 940 1166 1016 826 -896 89 82 -824 894 793 691 860 -869 87 85 -855 865 801 698 -90 83 -797 -695 -793 802 762 665 -89 83 -759 -661 -793 802 724 631 -90 83 -720 -627 -793 802 685 597 -90 83 -681 -594 -793 802 646 564 -89 83 -643 -560 -793 802 607 530 -89 83 -604 -526 -793 801 569 497 -90 83 -565 -493 -793 802 530 463 -90 83 -526 -459 -728 735 -86 -85 722 -730 -555 -484 -699 758 -89 -82 696 -756 -799 -697 -654 793 -94 -78 656 -795 -555 -484 -625 815 -96 -74 629 -821 -782 -682 78 -94 778 679 686 -895 -751 -656 77 -94 749 653 686 -895 -722 -630 77 -94 719 627 687 -895 -693 -604 77 -94 690 601 686 -895 -663 -578 77 -94 660 575 686 -895 -632 -552 77 -94 630 549 686 -895 -603 -526 77 -94 600 523 687 -895 -574 -500 77 -94 571 497 739 -965 97 74 -744 971z"/>
    <polygon class="fil32" points="33433,10840 41391,1712 41735,2012 33777,11140 "/>
    <polygon class="fil2" points="33605,10990 41563,1862 41735,2012 33777,11140 "/>
    <path class="fil33" d="M26141 4282c1358,1430 1325,3817 -131,5495 -1456,1677 -3814,2045 -5421,902l5552 -6397z"/>
    <path class="fil34" d="M26141 4282c-365,-316 -1904,859 -3437,2625 -1533,1767 -2480,3455 -2115,3772 365,317 1904,-858 3437,-2624 1533,-1767 2480,-3455 2115,-3773z"/>
    <polygon class="fil29" points="23924,8173 22601,7025 22880,6704 24201,7851 "/>
    <path class="fil33" d="M22315 7355c-206,-179 -183,-543 52,-814 235,-271 592,-345 799,-166 206,179 183,543 -52,814 -235,270 -593,345 -799,166z"/>
    <polygon class="fil34" points="29220,9791 26515,12895 28448,15088 31615,17849 34761,14240 31594,11479 "/>
    <polygon class="fil33" points="28189,8134 24750,12079 26877,14579 30424,17671 34423,13085 30876,9992 "/>
    <path class="fil34" d="M36716 15084c-506,-442 -1275,-389 -1717,118l-2399 2752c-442,507 -389,1275 117,1717l1927 1680c507,441 1275,389 1717,-118l2399 -2752c442,-507 389,-1276 -117,-1717l-1927 -1680z"/>
    <polygon class="fil33" points="35187,13751 31188,18338 32962,19884 36961,15297 "/>
    <path class="fil34" d="M28582 7993c-135,-118 -344,-100 -467,41l-3469 3980c-123,140 -113,350 22,468 136,117 344,99 467,-42l3470 -3979c122,-141 112,-351 -23,-468z"/>
    <path class="fil35" d="M17428 8019c-10,69 -75,116 -144,105 -68,-10 -115,-75 -105,-144 2,-13 689,-4679 5120,-6413 65,-25 138,7 163,72 25,65 -7,138 -71,163 -4295,1680 -4961,6204 -4963,6217z"/>
    <path class="fil35" d="M19080 7544c-10,69 -75,116 -144,106 -68,-11 -115,-75 -105,-144 2,-9 446,-3030 3316,-4153 65,-25 138,7 163,71 25,65 -7,138 -72,163 -2733,1070 -3156,3949 -3158,3957z"/>
    <path class="fil35" d="M20709 6873c-12,69 -78,115 -146,102 -69,-12 -115,-77 -103,-146 1,-4 253,-1551 1867,-2125 66,-24 138,11 161,76 23,66 -11,138 -77,161 -1473,525 -1701,1928 -1702,1932z"/>
    <path class="fil36" d="M36961 15297l-2000 2294 2600 2266 1199 -1376c442,-507 389,-1276 -117,-1717l-1682 -1467z"/>
    <polygon class="fil36" points="33188,16045 34761,14240 33996,13574 32423,15378 "/>
    <path class="fil36" d="M26827 10499l1778 -2038c7,-8 13,-17 19,-25 102,-140 85,-332 -42,-443 -135,-118 -344,-100 -467,41l-1777 2039 92 80 397 346z"/>
    <path class="fil37" d="M23232 7010c114,-231 98,-484 -57,-627 -3,-3 -6,-6 -9,-8 -207,-179 -564,-105 -799,166 -12,13 -23,27 -34,41l2 1 370 323 371 323c13,-13 25,-26 38,-40 48,-56 88,-117 118,-179z"/>
    <path class="fil32" d="M23541 7278l-309 -268c-30,62 -70,123 -118,179 -13,14 -25,27 -38,40l289 252 659 575 177 -205 -660 -573z"/>
    <path class="fil36" d="M23232 7010l309 268 660 573c1390,-1645 2244,-3178 1966,-3541 -9,-9 -17,-18 -26,-28 -328,-284 -1601,633 -2966,2101 155,143 171,396 57,627z"/>
    <path class="fil37" d="M26167 4310c278,363 -576,1896 -1966,3541 -58,68 -116,136 -175,204 0,0 -1,1 -1,1l1980 1726c2,-2 3,-3 5,-5 1447,-1667 1488,-4034 157,-5467z"/>
    <path class="fil37" d="M28605 8461l-1778 2038 1009 880 4587 3999 1573 -1804 427 -489 -597 -520 -1422 -1240 -733 -640 -795 -693 -2252 -1556c-6,8 -12,17 -19,25z"/>
    <polygon class="fil37" points="35187,13751 33188,16045 34961,17591 36961,15297 "/>
   </g>
   <g>
    <path class="fil38" d="M96003 24480l0 0zm-6710 -3874c6,-82 17,-160 34,-232 61,-265 194,-458 376,-564 258,-149 613,-128 1007,99 25,14 49,31 73,46 103,-213 248,-375 427,-479 1,0 1,0 1,0 0,0 1,-1 1,-1 0,0 1,0 1,0 73,-42 151,-75 233,-97 339,-93 758,-22 1210,240 839,484 1557,1483 1865,2496 24,13 48,23 73,37 749,433 1359,1454 1409,2329 420,378 730,1003 728,1528l0 33c-1,309 -109,529 -285,635l-7 5c-183,106 -435,91 -712,-69l-6172 -3563c-549,-318 -998,-1095 -996,-1727l0 -33c0,-313 112,-534 292,-638 121,-71 273,-88 442,-45z"/>
    <path class="fil4" d="M91211 19476c0,0 0,0 -1,0 -179,104 -324,266 -427,479 -24,-15 -48,-32 -73,-46 -45,-26 -89,-49 -132,-70 -341,-160 -647,-161 -875,-29l829 -481c229,-133 536,-131 878,31l-199 116zm4139 2156l0 0zm-829 482c-308,-1013 -1026,-2012 -1865,-2496 -452,-262 -871,-333 -1210,-240 -82,22 -160,55 -233,97l197 -115 629 -365c271,-158 619,-183 1008,-57 1107,360 1987,1656 2303,2694l-829 482z"/>
    <path class="fil5" d="M96831 23999l0 0zm-2310 -1885l829 -482c807,422 1429,1466 1481,2367l-828 481c-50,-875 -660,-1896 -1409,-2329 -25,-14 -49,-24 -73,-37z"/>
    <path class="fil4" d="M96003 24480l828 -481c178,160 334,357 455,573 209,371 385,977 195,1383 -26,57 -60,110 -102,155 -61,65 -116,92 -192,136l-741 430c176,-106 284,-326 285,-635l0 -33c2,-525 -308,-1150 -728,-1528z"/>
    <path class="fil5" d="M89327 20374c-17,72 -28,150 -34,232 -169,-43 -321,-26 -442,45l476 -277z"/>
   </g>
   <g>
    <path class="fil3" d="M54402 81783l0 0zm-18284 -10556c15,-225 46,-437 91,-633 166,-723 529,-1247 1027,-1537 701,-407 1670,-350 2742,269 68,38 133,86 201,127 278,-582 675,-1022 1163,-1306 1,0 2,-1 3,-1 1,-1 1,-1 2,-1 1,-1 2,-1 3,-2 198,-114 410,-202 636,-264 922,-252 2063,-58 3297,655 2286,1319 4242,4042 5082,6800 65,36 131,64 198,103 2041,1178 3702,3961 3839,6346 1144,1030 1989,2732 1985,4163l0 90c-3,843 -299,1442 -778,1731l-20 12c-496,289 -1183,250 -1939,-186l-16817 -9710c-1499,-865 -2722,-2983 -2717,-4705l0 -90c3,-854 307,-1456 796,-1740 330,-192 744,-239 1206,-121z"/>
    <path class="fil5" d="M41345 68146c-1,0 -2,1 -3,1 -488,284 -885,724 -1163,1306 -68,-41 -133,-89 -201,-127 -121,-71 -242,-133 -360,-189 -928,-437 -1761,-441 -2382,-80l2257 -1311c624,-363 1461,-358 2394,85l-542 315zm11277 5877l0 0zm-2257 1311c-840,-2758 -2796,-5481 -5082,-6800 -1234,-713 -2375,-907 -3297,-655 -226,62 -438,150 -636,264l537 -312 1712 -995c740,-430 1688,-500 2749,-155 3016,981 5413,4513 6274,7342l-2257 1311z"/>
    <path class="fil4" d="M56659 80471l0 0zm-6294 -5137l2257 -1311c2199,1148 3896,3992 4037,6449l-2257 1311c-137,-2385 -1798,-5168 -3839,-6346 -67,-39 -133,-67 -198,-103z"/>
    <path class="fil5" d="M54402 81783l2257 -1312c483,436 908,974 1239,1563 569,1010 1049,2661 532,3768 -72,156 -163,298 -278,421 -166,178 -317,251 -524,372l-2019 1172c479,-289 775,-888 778,-1731l0 -90c4,-1431 -841,-3133 -1985,-4163z"/>
    <path class="fil4" d="M36209 70594c-45,196 -76,408 -91,633 -462,-118 -876,-71 -1206,121l1297 -754z"/>
   </g>
   <path class="fil39" d="M67444 123954c-1481,-49 -2668,-1267 -2678,-2773l-23 0c-10,1506 -1198,2724 -2682,2773 1488,49 2682,1276 2682,2793l19 0c0,-1517 1195,-2744 2682,-2793z"/>
   <path class="fil40" d="M82442 109115l-1221 698c-11,7 -23,14 -34,20 -84,41 -183,49 -291,17 -48,-14 -98,-35 -149,-65l-3546 -2051 -22146 -12805c-109,-63 -212,-156 -304,-268 -774,-13 -1550,-19 -2326,-17l8173 4727 3114 1800 12705 7346 3779 2186c295,170 416,51 676,-89l1326 -758 -4 -3c150,-84 247,-279 248,-563l0 -175z"/>
   <path class="fil41" d="M77201 107734l-12122 -7009 -3007 -1738 -7017 -4058c-109,-63 -212,-156 -304,-268 -774,-13 -1550,-19 -2326,-17l8173 4727 3114 1800 12705 7346c254,-266 516,-527 784,-783z"/>
   <path class="fil42" d="M80688 109751l-3487 -2017 -12122 -7009 -3007 -1738 -7017 -4058c-109,-63 -212,-156 -304,-268 -185,-3 -371,-6 -557,-8 86,100 181,183 280,241l7237 4184 3031 1753 11878 6868 386 223 3161 1828c51,29 101,51 149,65 108,31 207,24 290,-18l35 -19 47 -27z"/>
  </g>
 </g>
</svg>
