<?xml version="1.0" encoding="UTF-8"?>
<!DOCTYPE svg PUBLIC "-//W3C//DTD SVG 1.1//EN" "http://www.w3.org/Graphics/SVG/1.1/DTD/svg11.dtd">
<!-- Creator: CorelDRAW X7 -->
<svg xmlns="http://www.w3.org/2000/svg" xml:space="preserve" width="8.26772in" height="9.30799in" version="1.1" style="shape-rendering:geometricPrecision; text-rendering:geometricPrecision; image-rendering:optimizeQuality; fill-rule:evenodd; clip-rule:evenodd"
viewBox="0 0 82677 93080"
 xmlns:xlink="http://www.w3.org/1999/xlink">
 <defs>
  <style type="text/css">
   <![CDATA[
    .fil23 {fill:#826C44}
    .fil20 {fill:#8480BC}
    .fil4 {fill:#9F9CCB}
    .fil30 {fill:#A38755}
    .fil19 {fill:#A7B8DB}
    .fil40 {fill:#A98C58}
    .fil34 {fill:#B0BEDF}
    .fil22 {fill:#BB9B61}
    .fil5 {fill:#BBB8DA}
    .fil9 {fill:#C1C0DF}
    .fil38 {fill:#C9AC76}
    .fil8 {fill:#CDCCE5}
    .fil32 {fill:#CED7EB}
    .fil27 {fill:#D7B77D}
    .fil21 {fill:#D7DFEF}
    .fil39 {fill:#DBC49B}
    .fil28 {fill:#DCC08D}
    .fil1 {fill:#DFC596}
    .fil36 {fill:#E1E7F4}
    .fil0 {fill:#E7D4B0}
    .fil35 {fill:#E9D7B7}
    .fil3 {fill:#E9EDF7}
    .fil2 {fill:#EDDFC4}
    .fil31 {fill:#F3E9D8}
    .fil13 {fill:#536896;fill-rule:nonzero}
    .fil16 {fill:#6C87C3;fill-rule:nonzero}
    .fil12 {fill:#7875A3;fill-rule:nonzero}
    .fil18 {fill:#9F9CCB;fill-rule:nonzero}
    .fil14 {fill:#B3C1E0;fill-rule:nonzero}
    .fil26 {fill:#BB9B61;fill-rule:nonzero}
    .fil6 {fill:#D2AE6D;fill-rule:nonzero}
    .fil24 {fill:#D9BF90;fill-rule:nonzero}
    .fil7 {fill:#E1CBA3;fill-rule:nonzero}
    .fil33 {fill:#E6D6B9;fill-rule:nonzero}
    .fil25 {fill:#E7D4B0;fill-rule:nonzero}
    .fil11 {fill:#E8ECF5;fill-rule:nonzero}
    .fil15 {fill:#E9D9BA;fill-rule:nonzero}
    .fil17 {fill:#EFE3CB;fill-rule:nonzero}
    .fil37 {fill:#F5EEE0;fill-rule:nonzero}
    .fil29 {fill:#F6EFE2;fill-rule:nonzero}
    .fil10 {fill:white;fill-rule:nonzero}
   ]]>
  </style>
 </defs>
 <g id="Layer_x0020_1">
  <metadata id="CorelCorpID_0Corel-Layer"/>
  <g id="_3027566299408">
   <g>
    <g>
     <path class="fil0" d="M50469 93080c-4334,-12993 9927,-23225 21933,-23734 4295,-182 7703,-887 10275,-1765l0 -33936c-10980,-1868 -18850,-1442 -23856,4486 -543,643 -1165,2076 -1389,2815 -1765,5836 3162,13297 4173,18500 889,4575 -2026,7562 -12064,9007 -11488,1654 -19477,5748 -22480,11997 -2242,4666 -2003,8805 -491,12630l23899 0z"/>
     <path class="fil1" d="M82677 93080l0 -25499c-2572,878 -5980,1401 -10275,1583 -13294,563 -27272,8848 -22246,23916l32521 0z"/>
     <path class="fil2" d="M32466 93080c-1594,-4304 -1481,-8735 500,-12623 695,-1364 1597,-2623 2688,-3767 3493,-3662 8933,-6145 15785,-7131 8151,-1174 22035,-2317 17348,-11271 -2070,-3954 -7886,-7816 -10033,-12427 -1353,-2904 -1303,-6042 776,-8514 -4197,3502 -2530,12800 -3341,19800 -1058,9124 -6153,9754 -16448,9435 -1922,-59 -3877,-63 -5800,32 -12609,626 -18879,5410 -17361,14108 715,4099 2951,8588 5501,12358l10385 0z"/>
    </g>
    <path class="fil1" d="M82677 55693c-862,-2405 -2673,-4127 -4732,-5509 -4300,-2888 -9677,-4301 -9726,-7389 -80,-4960 8598,-6396 14458,-6047l0 18945z"/>
   </g>
   <g>
    <path class="fil3" d="M70618 33975l0 0zm-9752 -5631c8,-120 24,-233 48,-338 89,-385 282,-665 548,-819 374,-217 891,-187 1463,143 36,21 70,46 106,68 149,-310 361,-545 621,-696 1,-1 1,-1 2,-1 0,0 0,-1 0,-1 1,0 2,-1 2,-1 106,-61 219,-108 339,-141 492,-134 1101,-31 1759,350 1219,703 2263,2156 2711,3627 35,19 70,34 106,55 1088,628 1974,2113 2047,3385 610,549 1061,1457 1059,2221l0 47c-1,450 -160,770 -415,924l-10 6c-265,154 -632,134 -1035,-99l-8970 -5179c-800,-462 -1452,-1592 -1449,-2510l0 -48c1,-456 163,-777 424,-928 176,-103 397,-128 644,-65z"/>
    <path class="fil4" d="M63654 26701c-1,0 -1,0 -2,1 -260,151 -472,386 -621,696 -36,-22 -70,-47 -106,-68 -65,-37 -129,-71 -193,-101 -495,-233 -939,-235 -1270,-42l1204 -700c332,-193 779,-190 1277,46l-289 168zm6015 3134l0 0zm-1204 700c-448,-1471 -1492,-2924 -2711,-3627 -658,-381 -1267,-484 -1759,-350 -120,33 -233,80 -339,141l287 -166 913 -531c394,-229 900,-266 1466,-82 1609,523 2888,2407 3347,3915l-1204 700z"/>
    <path class="fil5" d="M71822 33275l0 0zm-3357 -2740l1204 -700c1173,613 2078,2130 2153,3440l-1204 700c-73,-1272 -959,-2757 -2047,-3385 -36,-21 -71,-36 -106,-55z"/>
    <path class="fil4" d="M70618 33975l1204 -700c258,233 485,520 661,834 303,539 560,1419 284,2010 -39,83 -87,159 -148,224 -89,95 -170,134 -280,198l-1077 626c255,-154 414,-474 415,-924l0 -47c2,-764 -449,-1672 -1059,-2221z"/>
    <path class="fil5" d="M60914 28006c-24,105 -40,218 -48,338 -247,-63 -468,-38 -644,65l692 -403z"/>
   </g>
   <path class="fil6" d="M76859 27070c-438,-15 -790,-375 -793,-821l-6 0c-3,446 -355,806 -794,821 440,14 794,378 794,827l5 0c0,-449 354,-813 794,-827z"/>
   <path class="fil7" d="M23341 56369c-680,-23 -1226,-582 -1230,-1274l-11 0c-4,692 -550,1251 -1232,1274 684,23 1232,587 1232,1283l9 0c0,-696 549,-1260 1232,-1283z"/>
   <g>
    <path class="fil4" d="M39513 20421l0 -4 -1101 629c0,0 1822,1324 1838,1314l0 0c5,-3 37,-100 79,-233l0 0 -29 42473c0,363 220,784 492,941l0 0 16242 9392 45 2285 1099 -629 -3 -1c105,-60 174,-197 174,-397l0 0 30 -44357c0,-362 -220,-783 -492,-940l0 0 -18063 -10445c-68,-39 -132,-57 -190,-57l0 0c-44,0 -85,10 -121,29l0 0z"/>
    <path class="fil8" d="M53078 33778l824 476 4464 -2571c-43,-280 -197,-567 -391,-727l0 0 -4897 2822z"/>
    <path class="fil9" d="M38544 21012l-2 0c-175,0 -297,161 -297,431l0 0 -30 44357c0,362 220,783 491,940l0 0 18064 10445c271,157 492,-9 492,-372l0 0 30 -44357c0,-362 -220,-783 -491,-940l0 0 -18064 -10445c-68,-40 -133,-59 -193,-59z"/>
    <path class="fil10" d="M56800 31516l-18063 -10445c-162,-94 -304,-70 -393,38 76,-20 165,-7 262,49l18063 10445c272,157 492,578 492,940l-30 44358c0,146 -38,259 -99,333 138,-37 230,-187 230,-421l30 -44357c0,-362 -220,-783 -492,-940z"/>
    <polygon class="fil11" points="38626,64725 56840,75257 56874,34357 38660,23825 "/>
    <path class="fil12" d="M45850 26903l3446 1999c100,58 186,75 223,-19 13,-32 20,-71 20,-116 0,-180 -109,-388 -244,-466l-3481 -2013c-11,-6 -21,-18 -32,-15 -109,30 -128,51 -128,217l16 46c0,179 46,289 180,367z"/>
    <path class="fil10" d="M45782 26274c-13,32 -19,70 -19,116 -1,179 108,387 243,465l3482 2013c10,7 21,10 31,14 -37,95 -123,127 -224,69l-3482 -2014c-135,-77 -243,-286 -243,-465 0,-165 92,-246 212,-198z"/>
    <path class="fil13" d="M45712 31957c21,-527 42,-1059 173,-1570 262,-1035 955,-1920 1780,-2599 824,-678 1651,-1166 2599,-1657 1589,150 3229,463 4814,653 241,692 476,1484 125,2128 -162,296 -429,517 -690,731 -483,396 -967,792 -1450,1188 -665,545 -1355,1124 -1676,1921 -326,813 -219,1740 -469,2581 -93,311 -244,620 -503,817 -258,197 -642,254 -908,67 -256,-180 -336,-518 -381,-827 -339,-2291 476,-4699 1766,-6621 -1100,530 -2357,940 -2767,2090 -134,374 -171,775 -219,1169 -53,443 -123,884 -207,1321 -91,470 -327,1046 -805,1043 -278,-2 -697,-72 -844,-308 -385,-619 -368,-1398 -338,-2127z"/>
    <path class="fil14" d="M49468 26023c80,-524 267,-1031 307,-1561 43,-585 -94,-1167 -179,-1749 -97,-672 -123,-1367 56,-2023 178,-655 581,-1271 1179,-1593 598,-322 1312,-249 1823,198 894,-49 1729,556 2169,1335 441,778 548,1701 555,2596 6,894 -79,1791 13,2681 54,526 158,1104 -131,1546 -184,280 -495,449 -805,575 -1274,517 -2759,492 -4014,-69 -239,-107 -475,-236 -651,-430 -356,-394 -402,-981 -322,-1506z"/>
    <path class="fil14" d="M51312 21149c-813,-160 -1604,-431 -2345,-804 -371,-187 -734,-402 -1040,-684 -1007,-932 -1244,-2452 -1074,-3814 43,-342 189,-760 532,-790 341,-29 558,356 639,688 167,687 169,1458 620,2001 352,425 906,615 1431,786 659,215 1319,429 1978,644 -320,673 -596,1383 -776,2106 1,-62 1,-124 1,-186l34 53z"/>
    <path class="fil14" d="M54161 22628c1199,201 2462,269 3606,-145 400,-145 793,-358 1051,-698 227,-299 331,-672 431,-1035 186,-674 371,-1349 556,-2024 -91,-206 -265,-331 -490,-320 -225,12 -433,125 -612,262 -617,476 -973,1264 -1665,1624 -746,390 -1649,168 -2468,-28 -177,-43 -375,-81 -532,10 -155,90 -222,279 -258,455 -144,711 26,1480 457,2064l-76 -165z"/>
    <path class="fil15" d="M46664 14821c-152,-114 -427,-422 -454,-610 151,-17 418,130 536,261 -79,-176 -203,-551 -182,-743 205,22 380,402 458,580 -53,-209 -100,-639 -71,-852 64,-70 174,18 221,100 153,263 234,717 294,1015 48,-147 200,-433 349,-475 150,148 -180,1243 -285,1400l-263 163c0,0 -68,18 -149,2 -283,-57 -454,-359 -680,-539 -135,-106 -267,-193 -250,-420 90,-2 340,55 476,118z"/>
    <path class="fil15" d="M59071 17202c236,-29 195,507 431,486 134,-12 157,-198 139,-332 -28,-227 -233,-590 -102,-628 328,34 616,266 700,586 84,320 8,665 -142,960 -149,295 -335,512 -551,763 -85,10 -286,-23 -395,-129 -184,-179 -202,-464 -209,-722 -6,-228 -11,-457 -17,-685 -3,-122 25,-284 146,-299z"/>
    <path class="fil15" d="M51079 17527c-212,1105 288,2130 1118,2290 830,159 1675,-607 1888,-1713 212,-1105 -289,-2130 -1118,-2290 -830,-159 -1676,607 -1888,1713z"/>
    <path class="fil16" d="M53746 19025c401,-263 778,-601 953,-1047 177,-446 101,-1017 -276,-1313 63,-136 51,-319 -28,-446 -79,-128 -198,-225 -316,-317 -267,-210 -555,-416 -889,-480 -172,-33 -349,-26 -524,-12 -515,44 -1024,156 -1509,333 -279,102 -483,350 -500,647 -13,230 24,453 167,627 162,197 423,279 672,336 704,163 1435,207 2153,132 -135,519 -99,1031 72,1541 18,-10 31,-29 34,-49l-9 48z"/>
    <path class="fil17" d="M53685 18660c-113,145 -126,324 -28,401 97,77 269,21 382,-123 114,-145 127,-325 29,-402 -98,-76 -269,-21 -383,124z"/>
    <path class="fil13" d="M49459 36312c-516,277 -844,672 -730,883 113,211 623,158 1140,-119 517,-277 844,-673 731,-884 -113,-211 -624,-158 -1141,120z"/>
    <path class="fil13" d="M46115 34409c-517,277 -844,672 -731,883 113,211 624,158 1141,-119 516,-277 843,-673 730,-884 -113,-211 -623,-158 -1140,120z"/>
    <polygon class="fil18" points="53855,11972 53657,14039 54233,12045 "/>
    <polygon class="fil18" points="55605,13027 54097,14453 55843,13330 "/>
    <polygon class="fil18" points="51834,12381 53036,14073 52168,12188 "/>
    <path class="fil19" d="M49050 34482c-28,-1400 334,-2814 936,-4108l-1028 -594c-370,278 -669,619 -833,1079 -134,374 -171,775 -219,1169 -30,255 -66,508 -107,761 90,330 181,660 217,1000 60,571 -67,1209 -515,1569 -72,58 -153,110 -195,192 -141,276 279,523 581,460 488,-103 841,-542 1017,-1008 64,-169 109,-343 146,-520z"/>
    <path class="fil19" d="M51387 32752c-221,553 -243,1157 -313,1752 231,590 419,1192 147,1734 -94,186 -237,347 -299,545 -62,198 -1,461 196,524 143,46 294,-30 424,-104 485,-272 994,-570 1256,-1060 283,-529 217,-1166 217,-1765 0,-703 104,-1404 303,-2077l-1159 -670c-323,330 -600,694 -772,1121z"/>
    <path class="fil5" d="M49986 30374c261,-561 567,-1100 906,-1605 -660,318 -1378,593 -1934,1011l1028 594z"/>
    <path class="fil4" d="M53063 30831c-309,253 -623,514 -904,800l1159 670c203,-689 507,-1349 901,-1949 26,-40 53,-80 80,-120l-296 -171 -940 770z"/>
    <path class="fil20" d="M54120 29966l258 149c169,-249 343,-503 476,-767 -108,104 -225,200 -341,295l-393 323z"/>
    <path class="fil8" d="M54378 30115l-258 -149 -117 95 296 171c26,-39 52,-78 79,-117z"/>
    <path class="fil21" d="M54492 35911c0,13948 -4623,25921 -11217,31065 -109,85 -217,168 -327,248l13892 8033 1 -436 33 -40464 -1572 -909 -824 -477 -57 -32c1,21 2,42 3,63 15,309 27,619 37,931 20,654 31,1314 31,1978z"/>
    <g>
     <path class="fil22" d="M42879 48999c0,-260 0,-520 0,-780 0,-261 0,-521 0,-781 248,144 497,288 746,432 225,131 428,222 604,274 63,-162 129,-323 194,-485 89,-226 179,-451 268,-678 89,-227 181,-451 271,-677 -41,-89 -88,-177 -141,-267 -277,-468 -683,-857 -1216,-1167 -626,-363 -1251,-726 -1877,-1089 0,759 0,1518 0,2278 0,758 0,1517 0,2275 383,221 766,442 1151,665zm431 -2195c-145,-83 -288,-166 -431,-250 0,-203 0,-407 0,-611 0,-202 0,-407 0,-611 144,84 289,168 434,252 261,151 445,312 553,485 108,172 163,349 163,532 0,185 -47,304 -142,357 -105,60 -298,8 -577,-154z"/>
     <path class="fil23" d="M45433 47530c-102,254 -205,509 -306,764 -101,255 -202,512 -303,767 206,473 411,948 619,1421 397,230 794,460 1192,689 143,-355 288,-711 431,-1065 144,-356 288,-712 432,-1067 136,517 275,1038 411,1554 136,518 275,1037 412,1554 399,230 797,462 1196,692 305,-579 609,-1160 914,-1740 304,-580 609,-1160 914,-1741 -405,-235 -808,-469 -1212,-703 -209,369 -417,738 -626,1106 -208,368 -417,736 -625,1105 -148,-575 -296,-1150 -444,-1725 -149,-575 -297,-1149 -445,-1725 -310,-180 -621,-361 -932,-541 -160,397 -319,794 -478,1192 -159,397 -318,794 -477,1192 -113,-289 -225,-577 -337,-865 -112,-287 -224,-576 -336,-864z"/>
     <path class="fil22" d="M50939 51968c-117,226 -232,453 -348,680 542,313 1085,628 1628,942 98,328 195,655 293,982 419,242 839,486 1260,729 -286,-920 -571,-1842 -855,-2762 -285,-921 -570,-1844 -854,-2765 -100,195 -200,389 -299,583 -99,193 -199,388 -297,582 79,268 159,537 238,806 80,268 159,537 239,805 -335,-193 -670,-388 -1005,-582z"/>
    </g>
   </g>
   <g>
    <path class="fil24" d="M1403 77180c-557,-1097 -119,-2438 978,-2995 1097,-557 2438,-120 2995,977 557,1098 119,2439 -978,2996 -1097,557 -2438,119 -2995,-978z"/>
    <path class="fil25" d="M1266 76848c-327,-1023 126,-2161 1115,-2663 1097,-557 2438,-120 2995,977 55,110 101,221 137,334 -612,60 -1496,247 -2626,749 -620,276 -1160,468 -1621,603z"/>
    <path class="fil24" d="M1605 77505c636,853 1812,1151 2793,653 677,-344 1102,-985 1199,-1684 -381,-32 -985,32 -1917,386 -750,284 -1469,494 -2075,645z"/>
    <path class="fil24" d="M4977 74608c-258,71 -542,155 -853,251 -1170,363 -2100,512 -2826,544 187,-510 560,-953 1083,-1218 887,-451 1934,-251 2596,423z"/>
    <path class="fil26" d="M3309 77811c1016,-516 1421,-1758 906,-2774 -271,-532 -740,-897 -1272,-1049 959,-197 1968,260 2433,1174 557,1098 119,2439 -978,2996 -745,378 -1602,297 -2250,-136 386,43 789,-22 1161,-211z"/>
    <path class="fil25" d="M14 77586c-103,-279 359,-730 1157,-1202 10,108 29,216 55,323 -432,272 -670,509 -617,652 55,149 411,167 946,77 86,-14 177,-31 271,-51 531,-111 1190,-304 1892,-564 594,-220 1136,-456 1577,-682 111,-57 216,-113 314,-169 561,-318 885,-600 824,-764 -59,-160 -466,-173 -1068,-65 -51,-98 -108,-190 -171,-277 1006,-199 1728,-169 1837,126 117,314 -459,901 -1432,1469 -101,59 -207,118 -317,176 -412,220 -879,432 -1386,619 -618,229 -1218,393 -1756,495 -94,18 -185,34 -275,48 -1008,159 -1742,82 -1851,-211z"/>
   </g>
   <g>
    <polygon class="fil27" points="12939,16954 16183,19782 20698,13366 18249,11230 "/>
    <polygon class="fil22" points="12939,16954 14319,18158 19448,12275 18249,11230 "/>
    <polygon class="fil28" points="19972,10144 19156,11079 20672,12401 21487,11466 "/>
    <polygon class="fil22" points="19972,10144 19156,11079 19672,11529 20488,10594 "/>
    <path class="fil29" d="M14602 17156l537 -582 -534 -466 -558 564 555 484zm881 767l503 -610 -783 -683 -536 582 816 711zm619 541l483 -630 -534 -465 -504 611 555 484zm-905 -1953l536 -583 -510 -444 -558 563 532 464zm844 735l504 -610 -747 -651 -536 582 779 679zm596 520l483 -629 -511 -445 -504 611 532 463zm-846 -1901l537 -582 -487 -424 -557 563 507 443zm808 705l504 -611 -711 -620 -536 583 743 648zm573 499l482 -630 -487 -424 -503 611 508 443zm-786 -1849l536 -582 -463 -404 -558 564 485 422zm771 673l504 -611 -674 -588 -537 582 707 617zm549 478l483 -629 -463 -404 -504 611 484 422zm-726 -1796l537 -583 -440 -383 -558 564 461 402zm736 641l503 -611 -638 -556 -536 582 671 585zm525 458l483 -630 -440 -383 -504 611 461 402zm-666 -1745l536 -582 -416 -363 -557 564 437 381zm699 610l504 -611 -602 -525 -537 583 635 553zm502 437l482 -629 -416 -363 -504 611 438 381zm-607 -1692l537 -582 -393 -342 -557 563 413 361zm663 578l504 -611 -566 -493 -536 582 598 522zm478 417l483 -630 -393 -342 -503 611 413 361zm-5928 3065l-61 -60 601 -607 -401 -350 58 -63 404 352 557 -564 -422 -368 59 -63 424 370 558 -564 -443 -386 58 -63 445 388 558 -564 -464 -404 58 -63 466 406 558 -564 -485 -422 58 -63 487 425 558 -564 -506 -441 58 -63 508 443 558 -564 -527 -459 58 -63 529 461 558 -564 -548 -477 59 -63 549 479 512 -517 60 60 -507 514 390 340 491 -533 63 58 -490 531 562 490 460 -557 66 54 -461 559 390 340 439 -573 68 53 -442 577 370 323 -50 70 -372 -325 -483 629 397 347 -49 70 -400 -349 -483 630 425 370 -50 70 -427 -372 -482 629 451 394 -49 70 -454 -396 -483 630 479 417 -50 70 -481 -419 -483 629 506 441 -49 71 -509 -444 -482 629 533 465 -50 71 -536 -467 -482 629 560 488 -49 71 -563 -491 -520 678 -68 -52 523 -682 -557 -486 -544 659 -66 -54 545 -662 -819 -714 -581 631 -63 -58 579 -629 -557 -486 -605 611z"/>
    <polygon class="fil30" points="19914,11740 14319,18158 14561,18369 20156,11951 "/>
    <polygon class="fil2" points="20035,11846 14440,18263 14561,18369 20156,11951 "/>
    <polygon class="fil27" points="27719,0 30963,2828 25222,8177 22773,6041 "/>
    <polygon class="fil22" points="27719,0 29100,1204 23972,7086 22773,6041 "/>
    <polygon class="fil28" points="21932,7896 22747,6961 24263,8282 23448,9217 "/>
    <polygon class="fil22" points="21932,7896 22747,6961 23263,7410 22448,8346 "/>
    <path class="fil29" d="M27591 1137l-483 629 534 466 504 -611 -555 -484zm620 540l-504 611 783 683 536 -583 -815 -711zm880 767l-537 583 534 465 558 -564 -555 -484zm-2035 -610l-482 630 510 445 504 -611 -532 -464zm596 520l-503 611 746 651 537 -583 -780 -679zm844 736l-536 582 510 445 558 -564 -532 -463zm-1974 -558l-483 629 487 425 504 -611 -508 -443zm572 499l-504 611 711 619 536 -582 -743 -648zm808 704l-537 582 487 425 558 -564 -508 -443zm-1915 -506l-483 630 464 403 503 -610 -484 -423zm549 479l-504 611 674 587 537 -582 -707 -616zm771 672l-536 583 463 404 558 -564 -485 -423zm-1855 -453l-482 629 439 383 504 -611 -461 -401zm526 458l-504 611 638 556 536 -583 -670 -584zm735 641l-537 582 440 383 558 -564 -461 -401zm-1795 -402l-483 630 416 362 504 -611 -437 -381zm501 438l-503 610 601 525 537 -582 -635 -553zm699 609l-536 582 416 363 558 -564 -438 -381zm-1735 -350l-483 630 393 342 504 -611 -414 -361zm478 418l-504 610 566 493 536 -582 -598 -521zm663 577l-537 583 393 342 558 -564 -414 -361zm2119 -5247l558 486 543 -660 67 55 -546 661 819 714 581 -630 63 58 -579 628 557 486 605 -611 61 60 -601 608 563 491 -63 58 -560 -488 -558 564 536 467 -63 58 -533 -465 -558 564 509 444 -63 58 -507 -441 -557 564 481 420 -63 59 -479 -418 -557 564 454 396 -63 59 -452 -394 -557 564 427 372 -63 59 -425 -370 -557 563 400 349 -63 59 -398 -347 -557 564 373 325 -63 59 -371 -323 -511 517 -61 -60 508 -513 -391 -340 -491 533 -62 -58 489 -532 -562 -490 -460 558 -66 -55 461 -559 -390 -340 -439 573 -68 -52 443 -577 -550 -479 54 -67 548 478 482 -630 -528 -461 54 -66 526 459 483 -629 -508 -443 55 -66 505 441 483 -630 -487 -424 54 -66 485 422 482 -629 -466 -406 55 -67 463 405 483 -629 -445 -388 54 -67 443 386 483 -629 -425 -370 55 -66 422 368 482 -629 -403 -352 54 -66 402 349 520 -678 67 52 -523 683z"/>
    <polygon class="fil30" points="23505,7621 29100,1204 29342,1415 23747,7832 "/>
    <polygon class="fil2" points="23626,7727 29221,1309 29342,1415 23747,7832 "/>
    <path class="fil31" d="M18378 3011c955,1005 932,2683 -92,3863 -1023,1179 -2681,1438 -3811,634l3903 -4497z"/>
    <path class="fil32" d="M18378 3011c-256,-223 -1338,603 -2416,1845 -1078,1242 -1744,2429 -1487,2652 257,223 1339,-603 2417,-1845 1078,-1242 1743,-2429 1486,-2652z"/>
    <polygon class="fil22" points="16820,5746 15890,4939 16086,4714 17014,5520 "/>
    <path class="fil31" d="M15689 5171c-145,-126 -129,-382 36,-572 165,-191 417,-243 562,-117 145,126 128,382 -37,572 -165,190 -416,243 -561,117z"/>
    <polygon class="fil32" points="20544,6884 18641,9066 20000,10608 22227,12549 24439,10012 22212,8071 "/>
    <polygon class="fil31" points="19819,5719 17401,8493 18896,10250 21390,12424 24201,9199 21707,7025 "/>
    <path class="fil32" d="M25814 10605c-357,-311 -897,-273 -1208,83l-1687 1935c-310,356 -273,896 83,1207l1354 1181c357,310 897,273 1208,-83l1687 -1935c310,-356 273,-897 -83,-1207l-1354 -1181z"/>
    <polygon class="fil31" points="24739,9668 21927,12893 23174,13980 25986,10755 "/>
    <path class="fil32" d="M20095 5619c-95,-83 -242,-70 -328,29l-2440 2798c-86,99 -79,247 16,329 95,83 242,70 328,-29l2440 -2798c86,-99 79,-246 -16,-329z"/>
    <path class="fil33" d="M12253 5638c-7,48 -53,81 -101,74 -48,-8 -82,-53 -74,-101 1,-10 484,-3290 3600,-4509 45,-18 96,5 114,50 18,46 -5,97 -50,115 -3019,1181 -3488,4362 -3489,4371z"/>
    <path class="fil33" d="M13415 5304c-8,49 -53,82 -102,74 -48,-7 -81,-53 -74,-101 1,-6 314,-2130 2332,-2920 45,-17 96,5 114,51 18,45 -5,97 -50,114 -1922,752 -2220,2776 -2220,2782z"/>
    <path class="fil33" d="M14559 4832c-8,48 -54,81 -102,72 -49,-8 -81,-54 -72,-103 0,-3 178,-1090 1312,-1494 46,-16 97,8 113,54 17,46 -8,97 -54,113 -1035,369 -1196,1355 -1197,1358z"/>
    <path class="fil34" d="M25986 10755l-1406 1612 1827 1594 844 -968c310,-356 273,-897 -83,-1207l-1182 -1031z"/>
    <polygon class="fil34" points="23333,11280 24439,10012 23901,9543 22795,10812 "/>
    <path class="fil34" d="M18861 7382l1250 -1434c5,-5 9,-11 14,-17 71,-98 59,-234 -30,-312 -95,-83 -242,-70 -328,29l-1250 1434 64 56 280 244z"/>
    <path class="fil35" d="M16334 4929c80,-163 68,-341 -41,-441 -2,-2 -4,-4 -6,-6 -145,-126 -397,-74 -562,117 -8,9 -16,19 -24,29l2 1 260 226 261 228c9,-10 17,-19 26,-29 34,-39 62,-82 84,-125z"/>
    <path class="fil30" d="M16551 5117l-217 -188c-22,43 -50,86 -84,125 -9,10 -17,19 -26,29l203 177 463 404 124 -144 -463 -403z"/>
    <path class="fil34" d="M16334 4929l217 188 463 403c978,-1157 1578,-2235 1383,-2490 -6,-6 -12,-13 -19,-19 -230,-200 -1125,445 -2085,1477 109,100 121,278 41,441z"/>
    <path class="fil35" d="M18397 3030c195,255 -405,1333 -1383,2490 -40,47 -81,95 -122,143 -1,0 -1,1 -1,1l1392 1214c1,-2 2,-3 3,-4 1018,-1172 1047,-2836 111,-3844z"/>
    <path class="fil35" d="M20111 5948l-1250 1434 709 618 3225 2812 1106 -1269 300 -344 -419 -365 -1000 -872 -516 -450 -559 -487 -1582 -1094c-5,6 -9,12 -14,17z"/>
    <polygon class="fil35" points="24739,9668 23333,11280 24580,12367 25986,10755 "/>
   </g>
   <g>
    <path class="fil36" d="M67495 17211l0 0zm-4717 -2723c4,-59 12,-113 23,-164 43,-186 137,-322 265,-396 181,-105 431,-91 708,69 17,10 34,22 52,33 71,-150 174,-264 300,-337 0,0 0,0 0,0 1,-1 1,-1 1,-1 0,0 0,0 1,0 51,-30 106,-52 164,-68 238,-65 532,-15 850,169 590,340 1095,1043 1312,1754 16,9 33,17 51,27 526,304 955,1022 990,1637 295,266 513,705 512,1074l0 23c0,218 -77,372 -200,447l-5 3c-129,74 -306,64 -501,-48l-4339 -2505c-386,-224 -702,-770 -701,-1214l0 -23c1,-221 80,-376 206,-449 85,-50 192,-62 311,-31z"/>
    <path class="fil4" d="M64126 13693c0,0 0,0 0,0 -126,73 -229,187 -300,337 -18,-11 -35,-23 -52,-33 -32,-18 -63,-34 -93,-49 -240,-112 -454,-113 -615,-20l583 -339c161,-93 377,-92 617,22l-140 82zm2910 1516l0 0zm-582 338c-217,-711 -722,-1414 -1312,-1754 -318,-184 -612,-234 -850,-169 -58,16 -113,38 -164,68l138 -81 442 -256c191,-111 435,-129 709,-40 778,253 1397,1164 1619,1894l-582 338z"/>
    <path class="fil5" d="M68078 16873l0 0zm-1624 -1326l582 -338c567,296 1005,1030 1041,1664l-582 338c-35,-615 -464,-1333 -990,-1637 -18,-10 -35,-18 -51,-27z"/>
    <path class="fil4" d="M67495 17211l583 -338c124,112 234,251 319,403 147,260 271,686 138,972 -19,40 -43,77 -72,109 -43,45 -82,64 -136,95l-520 303c123,-75 200,-229 200,-447l0 -23c1,-369 -217,-808 -512,-1074z"/>
    <path class="fil5" d="M62801 14324c-11,51 -19,105 -23,164 -119,-31 -226,-19 -311,31l334 -195z"/>
   </g>
   <g>
    <path class="fil3" d="M38248 57498l0 0zm-12855 -7422c11,-158 32,-307 64,-445 117,-508 372,-877 722,-1080 492,-286 1174,-246 1928,189 47,27 93,60 141,89 196,-409 475,-718 818,-918 1,0 1,0 2,-1 0,0 0,0 1,0 1,-1 1,-1 2,-2 139,-80 289,-142 447,-185 649,-178 1451,-41 2318,460 1608,928 2983,2842 3573,4781 46,25 92,45 140,72 1435,829 2602,2785 2698,4462 805,724 1399,1921 1396,2927l0 63c-2,593 -210,1014 -547,1217l-14 8c-349,203 -832,176 -1363,-131l-11824 -6826c-1053,-608 -1913,-2097 -1909,-3308l0 -63c1,-601 215,-1024 559,-1224 232,-135 523,-168 848,-85z"/>
    <path class="fil5" d="M29068 47910c-1,1 -1,1 -2,1 -343,200 -622,509 -818,918 -48,-29 -94,-62 -141,-89 -86,-50 -170,-94 -253,-133 -653,-307 -1238,-310 -1675,-56l1587 -922c438,-255 1027,-251 1683,60l-381 221zm7928 4132l0 0zm-1587 922c-590,-1939 -1965,-3853 -3573,-4781 -867,-501 -1669,-638 -2318,-460 -158,43 -308,105 -447,185l378 -219 1204 -700c519,-302 1186,-351 1932,-108 2121,689 3806,3173 4411,5161l-1587 922z"/>
    <path class="fil4" d="M39834 56576l0 0zm-4425 -3612l1587 -922c1546,807 2739,2807 2838,4534l-1587 922c-96,-1677 -1263,-3633 -2698,-4462 -48,-27 -94,-47 -140,-72z"/>
    <path class="fil5" d="M38247 57498l1587 -922c340,306 639,684 872,1098 399,711 737,1871 374,2650 -51,109 -115,209 -196,296 -116,124 -223,176 -369,261l-1419 824c337,-203 545,-624 547,-1217l0 -63c3,-1006 -591,-2203 -1396,-2927z"/>
    <path class="fil4" d="M25457 49631c-32,138 -53,287 -64,445 -325,-83 -616,-50 -848,85l912 -530z"/>
   </g>
   <path class="fil37" d="M47417 87146c-1041,-34 -1876,-890 -1883,-1950l-16 0c-7,1060 -842,1916 -1886,1950 1046,35 1886,898 1886,1964l13 0c0,-1066 840,-1929 1886,-1964z"/>
   <path class="fil38" d="M57961 76713l-858 491c-8,5 -16,10 -24,14 -59,29 -129,35 -205,13 -34,-10 -68,-25 -104,-46l-2494 -1442 -15570 -9003c-76,-44 -148,-109 -213,-188 -544,-9 -1090,-14 -1636,-12l5747 3323 2189 1266 8932 5165 2657 1536c208,120 292,36 475,-62l933 -534 -3 -2c105,-59 174,-196 174,-396l0 -123z"/>
   <path class="fil39" d="M54276 75743l-8522 -4928 -2114 -1222 -4934 -2853c-76,-44 -148,-109 -213,-188 -544,-9 -1090,-14 -1636,-12l5747 3323 2189 1266 8932 5165c179,-187 363,-371 551,-551z"/>
   <path class="fil40" d="M56728 77161l-2452 -1418 -8522 -4928 -2114 -1222 -4934 -2853c-76,-44 -148,-109 -213,-188 -131,-2 -261,-4 -392,-6 60,70 127,129 197,169l5088 2942 2131 1232 8351 4829 271 157 2223 1285c36,21 71,36 104,46 76,22 146,17 205,-13l24 -14 33 -18z"/>
  </g>
 </g>
</svg>
