<?xml version="1.0" encoding="UTF-8"?>
<!DOCTYPE svg PUBLIC "-//W3C//DTD SVG 1.1//EN" "http://www.w3.org/Graphics/SVG/1.1/DTD/svg11.dtd">
<!-- Creator: CorelDRAW X7 -->
<svg xmlns="http://www.w3.org/2000/svg" xml:space="preserve" width="15.9305in" height="10.5295in" version="1.1" style="shape-rendering:geometricPrecision; text-rendering:geometricPrecision; image-rendering:optimizeQuality; fill-rule:evenodd; clip-rule:evenodd"
viewBox="0 0 159305 105295"
 xmlns:xlink="http://www.w3.org/1999/xlink">
 <defs>
  <style type="text/css">
   <![CDATA[
    .fil0 {fill:#F7F2E6;fill-rule:nonzero}
   ]]>
  </style>
 </defs>
 <g id="Layer_x0020_1">
  <metadata id="CorelCorpID_0Corel-Layer"/>
  <path class="fil0" d="M159305 49152c-2871,2833 -6710,4688 -10979,5023l1180 16491c50,721 -493,1346 -1213,1397 -358,25 -692,-96 -944,-312l-24067 -17521 -17495 0 0 9450c0,5677 -2301,10813 -6018,14530 -3720,3720 -8860,6020 -14532,6020l-36840 0 -28570 20815c-583,424 -1398,296 -1822,-286 -189,-259 -268,-564 -247,-860l-4 0 1412 -19716c-5124,-344 -9729,-2559 -13141,-5967 -3724,-3721 -6025,-8859 -6025,-14536l0 -22472c0,-5681 2300,-10825 6023,-14548 3719,-3719 8860,-6020 14545,-6020l54000 0 0 -3037c0,-4861 1970,-9262 5156,-12447 3185,-3186 7586,-5156 12447,-5156l54754 0c4827,0 9199,1939 12380,5078l0 4052c-523,-762 -1115,-1473 -1766,-2124 -2713,-2709 -6464,-4385 -10614,-4385l-54754 0c-4138,0 -7884,1676 -10595,4387 -2710,2711 -4387,6457 -4387,10595l0 3037 8048 0c2506,0 4916,456 7153,1291l101 38 7 2 94 36 14 6 86 33 21 8 79 32 29 11 71 29 36 14 64 26 42 18 107 44 49 21 57 24 42 18 63 27 36 16 70 30 28 13 77 34 21 9 83 38 15 6 90 41 7 4 97 45 1 0 97 45 6 3 90 43 14 7 83 40 20 10 76 37 27 13 69 34 33 17 62 31 40 21 56 28 46 24 49 25 53 28 41 21 60 32 35 18 66 36 101 54 21 12 79 43 200 112 1 0 92 53 6 3 87 50 12 7 80 47 18 11 4 2 95 56 66 39 31 20 98 59 53 32 44 27 47 29 50 32 192 122 27 17 69 44 21 14 75 49 14 9 80 54 95 63 2 1 88 60 4 3 83 56 11 8 77 53 17 12c93,65 186,131 278,198l51 36 41 31 44 32 48 35c91,68 182,136 272,205l20 15 70 55 90 69 8 6 81 65 2 1 83 66 4 4 161 130 16 13 66 54 10517 0c724,0 1311,587 1311,1310 0,724 -587,1311 -1311,1311l-7858 0 31 36 25 30 56 67 7 8 49 59 39 48 16 19 55 67 16 21 38 47 48 60 6 8 54 68 26 32 28 36 53 68 4 5 84 109 18 24 53 70 12 16 40 53 43 57 9 13 154 210 1 0 50 71 30 41 21 30 50 71 9 12 41 59 38 54 12 18 49 71 17 25 78 114 3 6 49 72 24 37 24 35 48 73 4 8 138 212 12 20 74 117 7 11 46 74 20 33 25 41 46 75 1 2 44 72 28 47 61 103 9 16 36 60 34 59 69 121 27 47 42 74 1 2 43 77 23 42 19 34 42 77 6 11 36 66 30 56 11 21 41 78 13 24 28 53 36 70 5 8 40 78 19 37 60 119 2 6 114 231 10 19 28 60 32 65 6 14 38 79 15 33 22 47 37 80c1198,2611 1865,5510 1865,8553l0 10402 17911 0 0 6c267,0 535,81 767,250l22230 16183 -1070 -14964c-6,-54 -10,-109 -10,-165 0,-723 587,-1310 1310,-1310 4150,0 7901,-1676 10614,-4386 651,-651 1243,-1362 1766,-2123l0 4051zm-93706 4046c-723,0 -1310,-587 -1310,-1311 0,-723 587,-1310 1310,-1310l16458 0c724,0 1311,587 1311,1310 0,724 -587,1311 -1311,1311l-16458 0zm-46541 0c-724,0 -1311,-587 -1311,-1311 0,-723 587,-1310 1311,-1310l25945 0c723,0 1310,587 1310,1310 0,724 -587,1311 -1310,1311l-25945 0zm0 13304c-724,0 -1311,-587 -1311,-1311 0,-723 587,-1310 1311,-1310l36872 0c724,0 1311,587 1311,1310 0,724 -587,1311 -1311,1311l-36872 0zm12973 -26609c-724,0 -1311,-586 -1311,-1310 0,-723 587,-1310 1311,-1310l51673 0c723,0 1310,587 1310,1310 0,724 -587,1310 -1310,1310l-51673 0zm71136 13027l0 -11712c0,-2671 -580,-5201 -1620,-7468l-50 -108 -1 -2 -49 -106 -2 -4 -50 -104 -3 -5 -49 -102 -4 -7 -49 -99 -5 -10 -49 -97 -6 -11 -48 -95 -7 -13 -48 -92 -8 -15 -48 -90 -9 -17 -47 -88 -10 -19 -47 -85 -11 -21 -46 -83 -13 -22 -46 -81 -13 -24 -46 -79 -15 -26 -44 -76 -17 -28 -44 -75 -60 -99 -1 -2 -19 -31 -42 -71 -20 -32 -43 -68 -21 -35 -41 -66 -24 -36 -40 -63 -24 -38 -40 -62 -26 -39 -39 -60 -27 -41 -39 -57 -28 -43 -38 -56 -30 -44 -37 -53 -31 -46 -36 -51 -33 -47 -35 -50 -35 -49 -34 -47 -36 -51 -33 -45 -38 -52 -32 -43 -39 -53 -31 -42 -41 -54 -30 -40 -43 -56 -29 -38 -44 -58 -28 -36 -46 -58 -27 -34 -48 -61 -26 -32 -49 -61 -25 -31 -51 -62 -24 -29 -53 -64 -22 -27 -1 -1 -75 -89 -56 -67 -21 -23 -58 -68 -19 -21 -60 -69 -17 -20 -62 -70 -16 -18 -64 -72 -15 -16 -66 -73 -13 -14 -68 -74 -12 -13 -70 -75 -11 -11 -72 -76 -9 -10 -74 -77 -8 -8 -75 -78 -7 -7 -78 -79 -4 -5 -80 -80 -4 -3 -82 -81 -2 -2 -84 -82 0 0 -85 -82 -1 -1 -85 -81 -2 -2 -84 -78 -4 -4 -82 -77 -6 -5 -81 -74 -7 -7 -81 -72 -9 -8 -168 -148c-76,-54 -147,-115 -211,-183l0 -1 -48 -41 -27 -22 -49 -42 -25 -21 -51 -43 -24 -19 -53 -44 -77 -63 -21 -16 -57 -46 -19 -15 -58 -47 -18 -14 -61 -48 -15 -12 -63 -49 -14 -11 -65 -50 -12 -9 -146 -111 -9 -7 -71 -52 -8 -6 -72 -54 -6 -4 -75 -54 -4 -3 -76 -55 -3 -2 -79 -56 0 0 -80 -56 -1 -1 -159 -110 -5 -3 -76 -52 -6 -4 -75 -50 -8 -6 -73 -48 -10 -7 -71 -46 -12 -8 -70 -45 -14 -9 -68 -44 -16 -10 -67 -42 -17 -11 -65 -41 -19 -12 -64 -39 -21 -13 -63 -38 -23 -14 -60 -36 -25 -15 -59 -35 -27 -16 -57 -33 -29 -17 -55 -32 -31 -18 -54 -31 -33 -19 -52 -29 -35 -20 -50 -28 -37 -20 -49 -27 -39 -21 -47 -25 -40 -22 -46 -25 -42 -22 -44 -23 -45 -24 -42 -22 -46 -24 -40 -21 -49 -25 -38 -19 -51 -26 -37 -18 -53 -26 -35 -17 -55 -27 -33 -16 -57 -28 -31 -15 -59 -28 -29 -14 -62 -29 -27 -12 -63 -30 -26 -12 -66 -30 -23 -10 -68 -31 -22 -9 -70 -31 -19 -9 -72 -31 -18 -8 -75 -32 -16 -7 -76 -32 -14 -6 -79 -32 -12 -5 -81 -34 -10 -4 -83 -33 -8 -3 -85 -34 -6 -3 -88 -33 -4 -2 -90 -35 -2 0 -92 -35c-1935,-722 -4037,-1116 -6242,-1116l-9358 0 -55311 0c-4962,0 -9448,2007 -12693,5252 -3248,3248 -5254,7737 -5254,12695l0 22472c0,4960 2003,9443 5247,12684 3245,3241 7733,5245 12700,5245l92 5c721,51 1264,677 1213,1398l-1308 18269 26546 -19342c231,-205 536,-330 869,-330l37257 0c4949,0 9434,-2007 12679,-5252 3243,-3243 5251,-7723 5251,-12677l0 -10760zm45031 -27585c724,0 1311,587 1311,1310 0,724 -587,1311 -1311,1311l-21968 0c-723,0 -1310,-587 -1310,-1311 0,-723 587,-1310 1310,-1310l21968 0zm0 11264c724,0 1311,587 1311,1311 0,723 -587,1310 -1311,1310l-31219 0c-724,0 -1310,-587 -1310,-1310 0,-724 586,-1311 1310,-1311l31219 0zm-10984 -22528c724,0 1311,587 1311,1310 0,724 -587,1311 -1311,1311l-43750 0c-724,0 -1311,-587 -1311,-1311 0,-723 587,-1310 1311,-1310l43750 0z"/>
 </g>
</svg>
