<?xml version="1.0" encoding="UTF-8"?>
<!DOCTYPE svg PUBLIC "-//W3C//DTD SVG 1.1//EN" "http://www.w3.org/Graphics/SVG/1.1/DTD/svg11.dtd">
<!-- Creator: CorelDRAW X7 -->
<svg xmlns="http://www.w3.org/2000/svg" xml:space="preserve" width="0.699803in" height="0.699921in" version="1.1" style="shape-rendering:geometricPrecision; text-rendering:geometricPrecision; image-rendering:optimizeQuality; fill-rule:evenodd; clip-rule:evenodd"
viewBox="0 0 6998 6999"
 xmlns:xlink="http://www.w3.org/1999/xlink">
 <defs>
  <style type="text/css">
   <![CDATA[
    .fil0 {fill:#7C94CA}
   ]]>
  </style>
 </defs>
 <g id="Layer_x0020_1">
  <metadata id="CorelCorpID_0Corel-Layer"/>
  <path class="fil0" d="M0 3500c0,-936 363,-1816 1024,-2476 662,-661 1540,-1026 2475,-1024 935,0 1813,363 2475,1025 661,659 1024,1539 1024,2475 0,934 -363,1814 -1024,2474 -662,661 -1540,1025 -2475,1025 -935,1 -1813,-364 -2475,-1024 -661,-661 -1024,-1541 -1024,-2475zm2542 1913l2870 -2870 -955 -956 -748 749 612 611 -1375 1374 -611 -612 -749 749 956 955 0 0zm-207 -1397l154 153 -443 442 -152 -153 441 -442zm2122 -2122l153 154 -441 441 -154 -153 442 -442 0 0zm-1915 3825l3176 -3178 -1261 -1261 -1056 1056 612 611 -1067 1067 -611 -611 -1055 1055c422,420 841,839 1262,1261l0 0zm4238 -2219c0,-877 -341,-1701 -960,-2321 -621,-620 -1444,-961 -2321,-961 -877,0 -1700,341 -2320,961 -620,621 -961,1444 -961,2321 0,877 341,1699 961,2320 620,619 1443,961 2320,961 877,0 1700,-342 2321,-961 619,-621 960,-1443 960,-2320z"/>
 </g>
</svg>
