<?xml version="1.0" encoding="UTF-8"?>
<!DOCTYPE svg PUBLIC "-//W3C//DTD SVG 1.1//EN" "http://www.w3.org/Graphics/SVG/1.1/DTD/svg11.dtd">
<!-- Creator: CorelDRAW X7 -->
<svg xmlns="http://www.w3.org/2000/svg" xml:space="preserve" width="0.415512in" height="0.415512in" version="1.1" style="shape-rendering:geometricPrecision; text-rendering:geometricPrecision; image-rendering:optimizeQuality; fill-rule:evenodd; clip-rule:evenodd"
viewBox="0 0 4155 4155"
 xmlns:xlink="http://www.w3.org/1999/xlink">
 <defs>
  <style type="text/css">
   <![CDATA[
    .fil1 {fill:#DBBD89}
    .fil0 {fill:white}
   ]]>
  </style>
 </defs>
 <g id="Layer_x0020_1">
  <metadata id="CorelCorpID_0Corel-Layer"/>
  <g id="_2125944083696">
   <g id="_2622977159616">
    <path class="fil0" d="M3865 504l0 3147c0,119 -95,214 -214,214l-3147 0c-119,0 -214,-95 -214,-214l0 -3147c0,-119 95,-214 214,-214l3147 0c119,0 214,95 214,214z"/>
    <path class="fil1" d="M656 0l2843 0c361,0 656,295 656,656l0 2843c0,361 -295,656 -656,656l-2843 0c-361,0 -656,-295 -656,-656l0 -2843c0,-361 295,-656 656,-656zm2843 462l-2843 0c-108,0 -194,86 -194,194l0 2843c0,108 86,194 194,194l2843 0c109,0 194,-85 194,-194l0 -2843c0,-109 -85,-194 -194,-194l0 0z"/>
   </g>
  </g>
 </g>
</svg>
