<?xml version="1.0" encoding="UTF-8"?>
<!DOCTYPE svg PUBLIC "-//W3C//DTD SVG 1.1//EN" "http://www.w3.org/Graphics/SVG/1.1/DTD/svg11.dtd">
<!-- Creator: CorelDRAW X7 -->
<svg xmlns="http://www.w3.org/2000/svg" xml:space="preserve" width="0.699921in" height="0.699921in" version="1.1" style="shape-rendering:geometricPrecision; text-rendering:geometricPrecision; image-rendering:optimizeQuality; fill-rule:evenodd; clip-rule:evenodd"
viewBox="0 0 6999 6999"
 xmlns:xlink="http://www.w3.org/1999/xlink">
 <defs>
  <style type="text/css">
   <![CDATA[
    .fil0 {fill:#7C94CA}
   ]]>
  </style>
 </defs>
 <g id="Layer_x0020_1">
  <metadata id="CorelCorpID_0Corel-Layer"/>
  <path class="fil0" d="M0 3499c1,-1924 1576,-3499 3500,-3499 1920,-3 3502,1579 3500,3499 0,1925 -1575,3499 -3499,3501 -1922,1 -3503,-1580 -3501,-3501zm3685 644c-76,88 -161,159 -256,212 -194,110 -398,105 -588,-11 -99,-61 -178,-155 -240,-281 -62,-127 -92,-266 -92,-417 0,-482 377,-1121 911,-1121 102,0 199,26 292,80 92,53 172,134 238,243l62 -273 313 0 -253 1180c-35,164 -53,255 -53,272 0,32 12,59 36,82 24,23 54,34 87,34 63,0 144,-35 245,-106 273,-191 434,-532 434,-863 0,-195 -50,-378 -150,-547 -224,-379 -682,-559 -1108,-559 -877,0 -1468,663 -1468,1513 0,531 222,986 729,1198 448,188 1117,213 1557,-7 207,-103 362,-229 466,-377l316 0c-60,123 -162,249 -307,377 -145,127 -318,229 -518,303 -419,155 -1018,140 -1443,11 -220,-66 -407,-166 -562,-300 -349,-302 -497,-723 -497,-1178 0,-1019 687,-1795 1743,-1795 551,0 1051,215 1331,708 288,512 205,1130 -188,1563 -213,236 -446,354 -698,354 -223,0 -318,-79 -339,-295zm-853 -475c0,161 39,285 115,374 133,156 296,167 469,75 73,-40 142,-98 208,-175 67,-77 121,-176 163,-294 42,-119 63,-238 63,-358 0,-159 -39,-283 -118,-371 -80,-88 -176,-132 -289,-132 -293,0 -478,301 -554,549 -38,120 -57,231 -57,332zm668 -3451c-1803,2 -3281,1478 -3281,3282 1,1804 1476,3282 3282,3282 1805,0 3280,-1477 3281,-3282 -1,-1803 -1478,-3280 -3282,-3282z"/>
 </g>
</svg>
