<?xml version="1.0" encoding="UTF-8"?>
<!DOCTYPE svg PUBLIC "-//W3C//DTD SVG 1.1//EN" "http://www.w3.org/Graphics/SVG/1.1/DTD/svg11.dtd">
<!-- Creator: CorelDRAW X7 -->
<svg xmlns="http://www.w3.org/2000/svg" xml:space="preserve" width="20.7909in" height="31.3566in" version="1.1" style="shape-rendering:geometricPrecision; text-rendering:geometricPrecision; image-rendering:optimizeQuality; fill-rule:evenodd; clip-rule:evenodd"
viewBox="0 0 207909 313566"
 xmlns:xlink="http://www.w3.org/1999/xlink">
 <defs>
  <style type="text/css">
   <![CDATA[
    .fil5 {fill:#DCC08D}
    .fil2 {fill:#F5ECDE}
    .fil0 {fill:#FBF7F0}
    .fil1 {fill:white}
    .fil3 {fill:black;fill-rule:nonzero}
    .fil4 {fill:#DCC08D;fill-rule:nonzero}
   ]]>
  </style>
 </defs>
 <g id="Layer_x0020_1">
  <metadata id="CorelCorpID_0Corel-Layer"/>
  <g id="_2124397055040">
   <polygon class="fil0" points="0,1786 207870,1786 207870,313566 0,313566 "/>
   <path class="fil0" d="M39 46864c48258,14843 108905,1724 116410,-46864l-66488 0c10382,32584 -23962,40199 -49922,33203l0 13661z"/>
   <path class="fil1" d="M39 54238c25078,10026 50956,13340 78555,6391 19272,-4852 35880,-13508 56728,-20044 26414,-8281 53164,-10220 72587,16579l0 -57164 -115210 0c-2543,22303 -16122,39530 -40951,45192 -16274,3712 -34977,1979 -51709,-2698l0 11744z"/>
   <path class="fil1" d="M39 24264l0 -24264 29603 0c1550,6718 -525,12845 -4588,17392 -5849,6548 -15819,9822 -25015,6872z"/>
   <path class="fil2" d="M25054 17392c-5849,6548 -15819,9822 -25015,6872l-39 31 0 8926 39 -18c25960,6996 60304,-619 49922,-33203l-20319 0c1550,6718 -525,12845 -4588,17392z"/>
   <g>
    <path class="fil3" d="M96610 46103c-166,0 -312,-24 -438,-71 -127,-47 -214,-93 -262,-137 -4,309 -44,565 -119,768 -75,204 -182,368 -323,492 -139,125 -309,213 -508,264 -200,50 -426,76 -679,76 -1075,0 -1612,-511 -1612,-1534l0 -813 763 0 0 784c0,276 73,487 218,634 145,147 358,220 643,220 296,0 515,-62 655,-184 140,-123 210,-332 210,-629l0 -1968 764 0 0 1007c0,127 33,227 102,300 67,72 173,108 321,108 113,0 212,-17 295,-52 83,-34 124,-112 124,-232l0 -1131 764 0 0 1007c0,139 25,242 75,309 51,66 142,99 275,99l373 0 0 -1676 765 0 0 2359 -906 0c-114,0 -211,-8 -293,-23 -81,-15 -150,-37 -208,-65 -58,-29 -106,-61 -143,-99 -38,-37 -70,-78 -97,-120 -99,114 -214,193 -346,239 -132,45 -269,68 -413,68zm4515 -356c0,135 -19,229 -56,279 -38,51 -96,77 -175,77l-249 0c-136,0 -259,-15 -371,-44 -111,-31 -208,-80 -289,-149 -81,-68 -144,-160 -190,-274 -45,-115 -68,-257 -68,-427l0 -3337 771 0 0 3229c0,140 24,228 73,264 49,37 119,55 210,55l113 0c30,0 60,3 88,10 28,7 53,21 76,42 21,22 38,53 50,97 12,43 17,102 17,178zm70 -327c47,0 107,-39 176,-117 70,-78 131,-193 186,-343 87,-226 181,-413 284,-562 104,-148 210,-267 319,-356 109,-89 219,-151 328,-186 110,-36 219,-54 327,-54 154,0 299,30 433,90 134,59 250,142 346,249 96,106 172,234 227,384 55,152 83,316 83,492 0,28 -1,54 -3,77 -2,24 -3,48 -3,72 52,93 131,160 239,197 107,39 207,57 302,57 31,0 60,3 88,10 28,7 52,21 74,42 21,22 38,53 51,97 12,43 18,102 18,178 0,135 -18,229 -56,279 -37,51 -96,77 -175,77 -151,0 -285,-29 -404,-85 -118,-57 -221,-149 -308,-277 -170,290 -462,434 -877,434 -158,0 -317,-24 -477,-72 -160,-48 -329,-129 -507,-243 -102,114 -207,183 -314,207 -107,24 -224,36 -349,36l-315 0c-31,0 -60,-3 -88,-9 -29,-6 -53,-20 -76,-41 -22,-23 -39,-56 -51,-99 -11,-44 -16,-103 -16,-178 0,-135 18,-228 56,-280 37,-51 96,-76 175,-76l307 0zm1956 -419c0,-61 -7,-120 -20,-178 -14,-59 -35,-112 -65,-157 -31,-45 -70,-83 -119,-113 -49,-30 -109,-44 -181,-44 -52,0 -106,12 -160,38 -56,27 -109,69 -159,128 -52,59 -100,135 -146,230 -45,95 -83,213 -114,355 99,61 192,109 281,147 88,38 184,57 287,57 127,0 225,-43 293,-128 68,-84 103,-197 103,-335zm1968 419l0 -1676 776 0 0 2359 -1459 0c-30,0 -60,-3 -88,-9 -28,-6 -53,-20 -76,-41 -21,-23 -38,-56 -50,-99 -12,-44 -17,-103 -17,-178 0,-135 19,-228 56,-280 38,-51 96,-76 175,-76l683 0zm-577 -2700c0,-114 41,-213 124,-297 83,-84 183,-126 299,-126 113,0 212,41 295,124 83,83 125,183 125,299 0,113 -42,212 -125,295 -83,83 -182,124 -295,124 -114,0 -213,-41 -297,-124 -84,-83 -126,-182 -126,-295zm967 0c0,-114 42,-213 125,-297 83,-84 180,-126 295,-126 114,0 212,41 296,124 84,83 126,183 126,299 0,113 -42,212 -125,295 -83,83 -181,124 -297,124 -115,0 -212,-41 -295,-124 -83,-83 -125,-182 -125,-295zm1645 3704c0,-185 10,-344 28,-477 20,-133 59,-248 116,-345 58,-97 136,-180 235,-252 98,-71 224,-138 379,-202 39,-253 106,-464 201,-636 96,-172 203,-311 321,-416 120,-105 243,-180 373,-226 131,-45 251,-68 361,-68 162,0 311,30 446,90 135,59 250,142 344,249 95,106 168,234 222,384 53,152 80,316 80,492 0,356 -88,638 -264,846 -176,208 -441,312 -796,312 -336,0 -684,-118 -1045,-355 -79,38 -136,106 -169,203 -34,98 -51,235 -51,413l0 2020 -781 0 0 -2032zm2376 -1423c0,-128 -38,-241 -113,-342 -75,-101 -182,-150 -318,-150 -118,0 -231,57 -340,172 -110,114 -181,308 -213,579 102,61 209,109 320,147 110,38 205,57 285,57 110,0 201,-43 272,-128 71,-84 107,-197 107,-335zm2998 1102c-53,0 -124,-12 -215,-36 -90,-24 -169,-76 -237,-155 -4,268 -35,492 -93,673 -60,180 -149,326 -267,437 -119,110 -269,190 -450,237 -181,47 -400,73 -654,77l0 -723c162,-4 291,-23 387,-57 94,-34 167,-83 214,-151 46,-66 77,-152 91,-257 14,-105 20,-232 20,-378l0 -1765 764 0 0 1007c0,155 47,261 141,320 93,59 193,88 299,88 30,0 60,3 88,10 28,7 53,21 76,42 22,22 38,53 50,97 12,43 17,102 17,178 0,135 -19,229 -56,279 -38,51 -96,77 -175,77zm1172 -1227c0,205 47,346 142,425 95,80 208,119 342,119l332 0 0 -449c0,-79 -5,-155 -14,-228 -10,-73 -30,-138 -60,-193 -29,-54 -70,-99 -121,-133 -52,-34 -117,-51 -196,-51 -83,0 -151,15 -203,46 -54,29 -97,68 -131,115 -33,48 -57,101 -71,162 -14,61 -20,123 -20,187zm-659 544c-32,-64 -55,-144 -69,-241 -14,-95 -21,-185 -21,-268 0,-154 26,-307 81,-456 53,-150 131,-283 231,-400 101,-116 226,-210 376,-281 150,-72 322,-108 515,-108 226,0 412,40 557,121 146,82 261,184 345,309 84,124 142,262 175,416 32,152 49,299 49,442l0 1149 -2755 0c-31,0 -60,-3 -88,-9 -29,-6 -53,-20 -76,-41 -22,-23 -39,-56 -50,-99 -12,-44 -17,-103 -17,-178 0,-135 18,-228 56,-280 38,-51 96,-76 175,-76l516 0zm668 -2700c0,-114 42,-213 125,-297 83,-84 183,-126 298,-126 114,0 213,41 296,124 83,83 124,183 124,299 0,113 -41,212 -124,295 -83,83 -182,124 -296,124 -113,0 -212,-41 -296,-124 -84,-83 -127,-182 -127,-295z"/>
    <path class="fil0" d="M103974 10948c7201,0 13039,5834 13039,13032 0,7197 -5838,13031 -13039,13031 -7200,0 -13038,-5834 -13038,-13031 0,-7198 5838,-13032 13038,-13032z"/>
    <polygon class="fil4" points="113375,52248 94574,52248 94574,52722 113375,52722 "/>
    <path class="fil5" d="M107191 31354l-3129 -2674 -7010 0 0 -9393 13845 0 0 9393 -3706 0 0 2674zm-3463 -6745l492 0 0 -3959 -492 0 0 3959zm492 991l-492 0 0 1718 492 0 0 -1718zm3461 3572l3706 0 0 -10384 -14826 0 0 10384 7326 0 3794 3260 0 -3260z"/>
   </g>
  </g>
 </g>
</svg>
