<?xml version="1.0" encoding="UTF-8"?>
<!DOCTYPE svg PUBLIC "-//W3C//DTD SVG 1.1//EN" "http://www.w3.org/Graphics/SVG/1.1/DTD/svg11.dtd">
<!-- Creator: CorelDRAW X7 -->
<svg xmlns="http://www.w3.org/2000/svg" xml:space="preserve" width="0.699921in" height="0.699921in" version="1.1" style="shape-rendering:geometricPrecision; text-rendering:geometricPrecision; image-rendering:optimizeQuality; fill-rule:evenodd; clip-rule:evenodd"
viewBox="0 0 6999 6999"
 xmlns:xlink="http://www.w3.org/1999/xlink">
 <defs>
  <style type="text/css">
   <![CDATA[
    .fil0 {fill:#7C94CA}
   ]]>
  </style>
 </defs>
 <g id="Layer_x0020_1">
  <metadata id="CorelCorpID_0Corel-Layer"/>
  <path class="fil0" d="M3499 1584l-1617 1373 0 2101 3235 0 0 -2101 -1618 -1373 0 0 0 0zm-1248 2957l0 -193 562 -693 -498 0 0 -181 781 0 0 167 -584 720 606 0 0 180 -867 0zm1128 0l0 -1067 216 0 0 1067 -216 0zm552 0l0 -1067 346 0c131,0 216,6 256,16 61,16 112,51 153,105 41,53 62,123 62,208 0,65 -12,120 -36,165 -23,45 -53,80 -90,105 -36,25 -74,43 -111,51 -52,10 -126,15 -224,15l-140 0 0 402 -216 0zm216 -886l0 304 118 0c85,0 141,-6 170,-17 28,-11 50,-29 67,-53 16,-24 24,-51 24,-83 0,-39 -11,-71 -34,-96 -23,-26 -52,-42 -87,-48 -25,-5 -77,-7 -154,-7l-104 0zm-2486 1625l0 -2415 1838 -1589 1840 1589 0 2415 -3678 0zm1839 -5280c-1937,0 -3500,1563 -3500,3500 0,1936 1563,3500 3500,3500 1936,0 3500,-1564 3500,-3500 0,-1937 -1564,-3500 -3500,-3500zm0 6783c-1815,0 -3284,-1468 -3284,-3283 0,-1815 1469,-3284 3284,-3284 1815,0 3283,1469 3283,3284 0,1815 -1468,3283 -3283,3283z"/>
 </g>
</svg>
