<?xml version="1.0" encoding="UTF-8"?>
<!DOCTYPE svg PUBLIC "-//W3C//DTD SVG 1.1//EN" "http://www.w3.org/Graphics/SVG/1.1/DTD/svg11.dtd">
<!-- Creator: CorelDRAW X7 -->
<svg xmlns="http://www.w3.org/2000/svg" xml:space="preserve" width="13.257in" height="5.56201in" version="1.1" style="shape-rendering:geometricPrecision; text-rendering:geometricPrecision; image-rendering:optimizeQuality; fill-rule:evenodd; clip-rule:evenodd"
viewBox="0 0 132570 55620"
 xmlns:xlink="http://www.w3.org/1999/xlink">
 <defs>
  <style type="text/css">
   <![CDATA[
    .fil4 {fill:#EAF3DE}
    .fil10 {fill:#5E6D8F}
    .fil5 {fill:#657AA9}
    .fil11 {fill:#BB9B61}
    .fil8 {fill:#C4CFE9}
    .fil3 {fill:#DFC596}
    .fil15 {fill:#E5D5B6}
    .fil2 {fill:#E7D4B0}
    .fil1 {fill:#EFE2C9}
    .fil14 {fill:#F4EEE5}
    .fil0 {fill:#F7F2E7}
    .fil16 {fill:white}
    .fil6 {fill:#7C94CA;fill-rule:nonzero}
    .fil7 {fill:#B6B2D7;fill-rule:nonzero}
    .fil13 {fill:#E7D4B0;fill-rule:nonzero}
    .fil9 {fill:#EEE3CE;fill-rule:nonzero}
    .fil12 {fill:#F7F2E7;fill-rule:nonzero}
   ]]>
  </style>
 </defs>
 <g id="Layer_x0020_1">
  <metadata id="CorelCorpID_0Corel-Layer"/>
  <g id="_3027890395344">
   <g>
    <path class="fil0" d="M115015 0l-115015 0 0 48414c20148,3150 24873,-3642 30909,-8600 4609,-3786 8712,-4649 13336,-4381 7808,451 19533,3158 29112,2821 19362,-679 14994,-10930 11561,-15788 -2449,-3464 -1338,-6097 1155,-7902 5605,-4057 14928,-2755 21419,-2335 3069,198 3563,-11145 7523,-12229z"/>
    <path class="fil1" d="M0 35446c15130,-4008 14823,-11164 36332,-8835 7341,795 24788,4357 31183,-169 6834,-4837 2060,-12183 8369,-14936 1857,-810 4658,-1319 8900,-1387 22941,-368 41704,10995 45351,-10119l-130135 0 0 35446z"/>
    <path class="fil2" d="M0 20133c4509,-1544 8144,-3456 12031,-3955 9573,-1230 26430,5477 40369,4979 15126,-541 12733,-7442 14214,-11332 1197,-3149 5594,-4504 13726,-4196 14012,532 42392,12717 46506,-5629l-70870 0 -55976 0 0 20133z"/>
    <path class="fil3" d="M115015 0l-115015 0 0 15139c3703,-1664 6855,-3351 11354,-3242 16568,402 36320,13863 51213,-3092 2277,-2593 6674,-6547 15526,-5842 11584,923 29634,10809 36922,-2963z"/>
   </g>
   <path class="fil4" d="M83135 34398c0,0 -338,-49 -415,219 -78,268 391,257 391,257l24 -476z"/>
   <polygon class="fil5" points="88217,32211 85861,33786 83049,34321 83011,35016 85873,34900 88653,33802 "/>
   <path class="fil0" d="M40394 49311c0,792 10637,1433 23758,1433 13121,0 23758,-641 23758,-1433 0,-792 -10637,-1434 -23758,-1434 -13121,0 -23758,642 -23758,1434z"/>
   <path class="fil4" d="M44641 30797c0,0 340,-31 402,242 63,272 -404,234 -404,234l2 -476z"/>
   <polygon class="fil5" points="39791,29971 42265,30713 44713,30713 44713,31318 42252,31621 39214,31318 "/>
   <path class="fil6" d="M84498 36186l-1061 0 -8913 0c-561,0 -1122,-81 -1138,-821 -18,-180 20,-368 128,-542 348,-559 571,-1179 568,-1765 -23,-640 -323,-1234 -1033,-1651 -1121,-659 -2659,-235 -3279,909 -169,311 -236,609 -233,900 28,562 310,1096 619,1636 79,140 115,288 114,432 73,929 -761,902 -1378,902l-3739 0 -813 0 1 5234c131,551 781,848 1295,527 1196,-745 2674,-915 3487,466 659,1121 236,2659 -907,3280 -561,305 -1083,278 -1591,106 -337,-113 -671,-294 -1022,-484 -113,-62 -227,-101 -338,-120 -417,-42 -822,232 -924,653l0 3789c10770,-1 19568,-5953 20157,-13451z"/>
   <path class="fil7" d="M63127 45433c177,-200 442,-287 729,-238 115,12 232,47 343,111 338,193 675,376 1017,493 482,160 970,178 1523,-122 1143,-621 1631,-2132 972,-3253 -813,-1382 -2291,-1212 -3487,-467 -392,244 -863,128 -1123,-185 -130,-158 -194,-354 -194,-557l0 -5001 -4650 0c-539,0 -1052,-80 -1227,600 -53,204 -31,431 88,639 480,841 899,1668 389,2608 -621,1144 -2159,1568 -3279,909 -1383,-812 -1213,-2291 -468,-3486 69,-112 110,-231 125,-348 125,-988 -808,-922 -1435,-922l-9675 0c375,4613 3858,8637 8993,11047 37,17 71,42 98,72l9110 8184c208,231 589,44 532,-262l-212 -5285c-36,-195 119,-373 316,-364 429,20 860,30 1295,31l0 -3111c0,-375 -49,-788 220,-1093z"/>
   <path class="fil8" d="M42775 36214l9675 0c627,0 1560,-66 1435,921 -15,118 -56,237 -125,349 -745,1195 -915,2674 468,3486 1120,659 2658,235 3279,-909 510,-940 91,-1767 -389,-2608 -119,-208 -141,-435 -88,-639 175,-680 688,-600 1227,-600l4650 0c0,-1768 -1,-3533 0,-5301 -102,-421 -483,-695 -901,-653 -110,19 -224,58 -338,119 -350,191 -684,372 -1022,484 -508,173 -1029,200 -1591,-105 -1143,-622 -1566,-2159 -907,-3280 814,-1382 2292,-1211 3487,-466 514,321 1164,24 1296,-527l0 -4559 0 -793c-11151,0 -20190,6381 -20190,14252 0,278 12,555 34,829z"/>
   <path class="fil9" d="M132570 12408c-1300,-43 -2343,-1112 -2352,-2436l-20 0c-9,1324 -1052,2393 -2355,2436 1306,44 2355,1121 2355,2453l17 0c0,-1332 1049,-2409 2355,-2453z"/>
   <path class="fil1" d="M29250 42504c0,325 2456,589 5486,589 3031,0 5487,-264 5487,-589 0,-326 -2456,-590 -5487,-590 -3030,0 -5486,264 -5486,590z"/>
   <path class="fil10" d="M42131 29989c0,0 378,111 625,-299 0,0 -513,68 -1141,-389 -628,-458 -1572,233 -1426,1043 147,810 1011,243 1011,243l494 -352 437 -246z"/>
   <path class="fil1" d="M42131 29989c-355,-324 -467,-66 -467,-66l-286 481 -288 -128 -12 -298c-189,-287 -369,119 -369,119l-523 -7 -319 181 104 1226 676 -360 602 297 363 -480 287 155 232 -1120z"/>
   <path class="fil5" d="M35690 36043l-2290 -2596 4772 -3232c550,-372 1237,-481 1874,-296l0 0 38 1669 -950 1342 -3444 3113z"/>
   <path class="fil11" d="M39590 32134c0,0 -3,-223 66,-529l315 39c0,0 15,243 -67,529l-12 258c0,0 18,781 13,1429 -6,648 -351,2791 -351,2791l-406 579 -342 -562c0,0 335,-2423 735,-4151l49 -383z"/>
   <polygon class="fil5" points="32551,41950 32667,42261 33287,42501 31724,42490 31727,42069 "/>
   <polygon class="fil5" points="33228,34144 32505,38992 31636,42099 32432,42406 33776,39173 35351,34144 "/>
   <polygon class="fil5" points="36925,41950 37040,42261 37661,42501 36097,42490 36100,42069 "/>
   <polygon class="fil5" points="33859,35674 35351,37584 36018,42099 37023,42099 36879,37001 35178,33068 "/>
   <path class="fil1" d="M44266 32785c0,0 636,-35 746,334 109,368 -765,309 -765,309l19 -643z"/>
   <polygon class="fil5" points="39453,30936 41849,32313 44440,32758 44429,33455 41530,33221 38663,32578 "/>
   <path class="fil5" d="M33493 33455c0,0 -235,65 -361,1335 -117,1174 1897,-210 1897,-210l0 -858 -732 -414 -804 147z"/>
   <path class="fil12" d="M113411 31889c0,-1493 -1145,-2204 -2414,-2567 -116,-2177 -1552,-3622 -3780,-3622 -2030,0 -3358,1203 -3777,3126 -1556,226 -3052,1040 -3052,2829 0,1544 1394,2801 3109,2801l7065 0c1571,0 2849,-1151 2849,-2567z"/>
   <path class="fil12" d="M114652 26932c104,-1622 2763,-1727 3166,-175 652,80 1278,367 1278,998 0,545 -584,988 -1302,988l-2960 0c-1310,0 -1782,-1425 -182,-1811z"/>
   <path class="fil13" d="M49291 8820c-2133,66 -3842,1819 -3857,3981l-36 0c-15,-2162 -1717,-3915 -3850,-3981 2140,-73 3857,-1833 3857,-4017l29 0c0,2184 1717,3944 3857,4017z"/>
   <g>
    <path class="fil1" d="M103205 21380c0,-3907 -3167,-7074 -7073,-7074 -3907,0 -7074,3167 -7074,7074 0,3906 3167,7073 7074,7073 3906,0 7073,-3167 7073,-7073z"/>
    <g>
     <path class="fil14" d="M92693 15996c-1686,974 -2696,2666 -2867,4464 -26,29 -32,74 -10,112l1 1c-84,1114 155,2263 755,3303l41 69c-677,-3300 787,-6807 3871,-8588l83 -47c-643,115 -1276,341 -1874,686z"/>
     <path class="fil15" d="M99953 17226c1953,3383 794,7708 -2589,9661 -1318,762 -2780,1048 -4188,916 2013,924 4428,893 6492,-298 3382,-1953 4541,-6279 2588,-9661 -1191,-2065 -3267,-3299 -5472,-3505 1285,590 2408,1569 3169,2887z"/>
    </g>
    <path class="fil16" d="M97467 23382l0 1334 -5338 0 0 -1334 5338 0zm-5338 -4004l0 -1336c2669,0 5338,0 8007,0l-1335 1336c-2223,0 -4447,0 -6672,0zm8007 1333c0,1336 0,2671 0,4005l-1335 0 0 -2669 -6672 0 0 -1336c2669,0 5338,0 8007,0z"/>
   </g>
   <path class="fil3" d="M84530 35502c0,-7865 -9050,-14242 -20190,-14251l0 5146c0,72 -9,140 -24,205l0 15c-135,547 -780,841 -1293,522 -1195,-745 -2674,-915 -3486,467 -659,1121 -171,2633 972,3253 553,300 1041,282 1523,122 342,-117 679,-300 1017,-493 111,-64 227,-99 342,-111 439,-75 826,168 925,644l0 10c15,65 24,134 24,206l0 4949 813 0 3739 0c617,0 1451,27 1378,-902 1,-144 -35,-292 -114,-432 -309,-540 -591,-1074 -619,-1636 -3,-291 64,-589 233,-900 620,-1144 2158,-1568 3279,-909 710,417 1010,1011 1033,1651 3,586 -220,1206 -568,1765 -108,174 -146,362 -128,542 16,740 577,821 1138,821l9974 0 9 0c15,-227 23,-455 23,-684z"/>
   <path class="fil1" d="M85334 42504c0,286 2457,519 5487,519 3030,0 5487,-233 5487,-519 0,-287 -2457,-520 -5487,-520 -3030,0 -5487,233 -5487,520z"/>
   <polygon class="fil5" points="92010,35479 89518,38245 90153,42101 89148,42101 87893,37728 90993,33071 "/>
   <path class="fil10" d="M84379 31939c0,0 -367,140 -647,-248 0,0 517,26 1106,-480 589,-507 1586,105 1505,924 -80,820 -988,324 -988,324l-521 -311 -455 -209z"/>
   <path class="fil1" d="M84379 31939c328,-352 461,-104 461,-104l323 457 277 -152 -12 -297c166,-302 377,89 377,89l521 -50 332 155 128 1271 -835 -345 -576 345 -400 -449 -274 177 -322 -1097z"/>
   <path class="fil5" d="M90983 36647l2302 -2741 -5037 -2096c-615,-250 -1310,-213 -1895,100l0 0 310 1640 1208 1116 3112 1981z"/>
   <path class="fil11" d="M87359 33735c0,0 -57,-216 -205,-492l-293 121c0,0 50,238 205,492l81 246c0,0 190,757 368,1380 178,623 1082,2597 1082,2597l545 450 180 -633c0,0 -968,-2245 -1814,-3805l-149 -356z"/>
   <polygon class="fil5" points="94306,41952 94191,42264 93570,42504 95134,42492 95131,42072 "/>
   <polygon class="fil5" points="89246,41952 89131,42264 88511,42504 90074,42492 90071,42072 "/>
   <path class="fil1" d="M83909 37077c0,0 -566,189 -503,504 63,314 731,-6 731,-6l-228 -498z"/>
   <polygon class="fil5" points="87391,32805 86024,35287 83773,37056 84060,37691 86548,36271 88511,34017 "/>
   <path class="fil5" d="M91455 34563l-11 -8 63 -409c0,0 418,-470 1213,-240 795,230 737,1031 737,1031l-920 4225 2684 2939 -796 308 -3604 -2745 634 -5101z"/>
  </g>
 </g>
</svg>
