<?xml version="1.0" encoding="UTF-8"?>
<!DOCTYPE svg PUBLIC "-//W3C//DTD SVG 1.1//EN" "http://www.w3.org/Graphics/SVG/1.1/DTD/svg11.dtd">
<!-- Creator: CorelDRAW X7 -->
<svg xmlns="http://www.w3.org/2000/svg" xml:space="preserve" width="12.3061in" height="5.16307in" version="1.1" style="shape-rendering:geometricPrecision; text-rendering:geometricPrecision; image-rendering:optimizeQuality; fill-rule:evenodd; clip-rule:evenodd"
viewBox="0 0 123061 51631"
 xmlns:xlink="http://www.w3.org/1999/xlink">
 <defs>
  <style type="text/css">
   <![CDATA[
    .fil5 {fill:#EAF3DE}
    .fil11 {fill:#5E6D8F}
    .fil1 {fill:#657AA9}
    .fil12 {fill:#BB9B61}
    .fil9 {fill:#C4CFE9}
    .fil4 {fill:#DFC596}
    .fil16 {fill:#E5D5B6}
    .fil3 {fill:#E7D4B0}
    .fil0 {fill:#EFE2C9}
    .fil15 {fill:#F4EEE5}
    .fil2 {fill:#F7F2E7}
    .fil17 {fill:white}
    .fil6 {fill:#7C94CA;fill-rule:nonzero}
    .fil7 {fill:#BBB8DA;fill-rule:nonzero}
    .fil8 {fill:#DFC596;fill-rule:nonzero}
    .fil14 {fill:#E7D4B0;fill-rule:nonzero}
    .fil10 {fill:#EEE3CE;fill-rule:nonzero}
    .fil13 {fill:#F7F2E7;fill-rule:nonzero}
   ]]>
  </style>
 </defs>
 <g id="Layer_x0020_1">
  <metadata id="CorelCorpID_0Corel-Layer"/>
  <g id="_2124085461712">
   <path class="fil0" d="M79214 39455c0,266 2280,482 5093,482 2813,0 5093,-216 5093,-482 0,-266 -2280,-482 -5093,-482 -2813,0 -5093,216 -5093,482z"/>
   <polygon class="fil1" points="85411,32934 83098,35502 83686,39082 82754,39082 81588,35022 84466,30699 "/>
   <g>
    <path class="fil2" d="M106766 0l-106766 0 0 44941c18703,2925 23089,-3380 28692,-7982 4279,-3515 8088,-4316 12379,-4068 7249,420 18133,2932 27024,2620 17973,-631 13919,-10147 10732,-14656 -2273,-3216 -1242,-5660 1072,-7335 5203,-3766 13858,-2558 19883,-2168 2849,184 3308,-10346 6984,-11352z"/>
    <path class="fil0" d="M0 32904c14044,-3721 13760,-10364 33726,-8201 6815,738 23010,4044 28946,-158 6344,-4490 1912,-11309 7769,-13864 1724,-752 4324,-1225 8262,-1288 21296,-341 38713,10207 42098,-9393l-120801 0 0 32904z"/>
    <path class="fil3" d="M0 18689c4185,-1433 7560,-3208 11168,-3671 8887,-1142 24534,5084 37474,4621 14041,-501 11819,-6908 13194,-10519 1111,-2923 5193,-4181 12741,-3895 13007,494 39352,11805 43171,-5225l-65787 0 -51961 0 0 18689z"/>
    <path class="fil4" d="M106766 0l-106766 0 0 14053c3437,-1544 6363,-3111 10540,-3010 15379,373 33714,12869 47539,-2869 2114,-2408 6196,-6078 14412,-5424 10754,857 27509,10034 34275,-2750z"/>
   </g>
   <path class="fil2" d="M37497 45774c0,735 9874,1331 22054,1331 12180,0 22054,-596 22054,-1331 0,-735 -9874,-1331 -22054,-1331 -12180,0 -22054,596 -22054,1331z"/>
   <path class="fil5" d="M41439 28588c0,0 316,-28 374,224 58,253 -376,218 -376,218l2 -442z"/>
   <polygon class="fil1" points="36937,27821 39234,28510 41506,28510 41506,29072 39221,29353 36401,29072 "/>
   <path class="fil5" d="M77172 31931c0,0 -313,-46 -385,203 -72,249 363,238 363,238l22 -441z"/>
   <polygon class="fil1" points="81889,29901 79703,31363 77092,31859 77057,32505 79714,32397 82295,31378 "/>
   <g>
    <path class="fil6" d="M78437 33591l-985 0 -8273 0c-521,0 -1042,-76 -1056,-763 -17,-166 17,-342 118,-503 323,-518 530,-1094 527,-1638 -21,-594 -299,-1145 -959,-1533 -1040,-611 -2467,-218 -3044,844 -156,288 -218,565 -215,835 26,522 288,1018 574,1519 74,130 106,268 105,402 69,862 -705,837 -1278,837l-3471 0 -755 0 1 4858c122,512 725,787 1202,490 1110,-692 2482,-850 3237,432 612,1040 219,2468 -842,3045 -521,283 -1005,258 -1477,98 -313,-105 -623,-273 -948,-450 -106,-57 -211,-93 -314,-110 -388,-39 -763,215 -858,606l1 3517c9996,-1 18164,-5526 18710,-12486z"/>
    <path class="fil7" d="M58599 42174c164,-185 410,-267 677,-220 107,10 215,43 318,102 314,179 627,349 945,458 447,148 900,166 1413,-113 1061,-576 1514,-1980 902,-3020 -754,-1283 -2126,-1125 -3236,-434 -365,227 -802,120 -1043,-171 -121,-147 -180,-329 -180,-517l0 -4643 -4316 0c-501,0 -977,-74 -1140,558 -48,189 -28,399 82,593 446,780 835,1548 361,2421 -576,1061 -2004,1455 -3044,843 -1283,-754 -1126,-2126 -434,-3236 65,-104 102,-214 116,-323 116,-917 -750,-856 -1332,-856l-8981 0c348,4282 3581,8018 8348,10255 34,16 65,39 91,67l8456 7597c193,214 547,41 495,-244l-198 -4905c-33,-181 111,-347 294,-338 398,18 798,28 1202,28l0 -2887c0,-348 -45,-732 204,-1015z"/>
    <path class="fil8" d="M59725 24303l0 14c-126,507 -725,780 -1200,484 -1110,-692 -2482,-849 -3236,434 -612,1040 -160,2443 902,3020 513,278 966,261 1413,112 318,-108 631,-278 945,-457 103,-59 211,-92 318,-103 406,-70 766,156 857,597l0 10c15,60 23,124 23,191l0 4595 4666 0c471,0 813,-178 817,-729 -9,-112 -42,-226 -104,-334 -298,-523 -571,-1040 -576,-1586 -15,-291 44,-590 214,-902 577,-1061 2004,-1454 3044,-843 683,402 958,979 960,1599 21,562 -188,1164 -524,1703 -88,140 -124,291 -121,438 56,548 388,653 840,653l9482 0c14,-210 22,-422 22,-635 0,-7301 -8379,-13221 -18720,-13229l0 4778c0,66 -8,129 -22,190z"/>
    <path class="fil9" d="M39707 33200l8981 0c582,0 1448,-61 1332,856 -14,109 -51,219 -116,323 -692,1110 -849,2482 434,3236 1040,611 2468,218 3044,-844 474,-872 85,-1640 -361,-2421 -110,-193 -130,-403 -81,-593 162,-631 638,-557 1139,-557l4316 0c0,-1641 -1,-3279 0,-4920 -95,-391 -449,-646 -836,-607 -103,18 -209,54 -314,111 -325,177 -635,345 -949,449 -471,161 -955,185 -1476,-98 -1061,-577 -1454,-2004 -842,-3044 755,-1283 2127,-1125 3236,-433 478,298 1081,22 1203,-489l0 -4232 0 -736c-10351,0 -18742,5923 -18742,13229 0,259 12,515 32,770z"/>
   </g>
   <path class="fil10" d="M123061 11518c-1207,-40 -2175,-1032 -2183,-2261l-19 0c-8,1229 -976,2221 -2186,2261 1213,41 2186,1041 2186,2277l16 0c0,-1236 974,-2236 2186,-2277z"/>
   <path class="fil0" d="M27152 39455c0,302 2280,547 5093,547 2813,0 5093,-245 5093,-547 0,-302 -2280,-547 -5093,-547 -2813,0 -5093,245 -5093,547z"/>
   <path class="fil11" d="M78327 29648c0,0 -341,130 -601,-230 0,0 480,24 1027,-446 547,-470 1472,98 1397,858 -74,761 -917,301 -917,301l-484 -289 -422 -194z"/>
   <path class="fil0" d="M78327 29648c304,-326 427,-97 427,-97l301 425 257 -141 -11 -276c153,-280 350,82 350,82l484 -46 308 144 118 1180 -775 -321 -535 321 -371 -417 -254 165 -299 -1019z"/>
   <path class="fil1" d="M84457 34019l2137 -2545 -4676 -1946c-571,-232 -1215,-198 -1759,93l0 0 288 1523 1122 1035 2888 1840z"/>
   <path class="fil12" d="M81093 31315c0,0 -53,-200 -190,-457l-272 113c0,0 47,221 190,457l75 228c0,0 177,703 342,1281 165,578 1004,2410 1004,2410l507 418 166 -587c0,0 -899,-2085 -1684,-3532l-138 -331z"/>
   <polygon class="fil1" points="87542,38943 87435,39232 86859,39455 88310,39445 88307,39054 "/>
   <polygon class="fil1" points="82845,38943 82738,39232 82162,39455 83613,39445 83610,39054 "/>
   <path class="fil0" d="M77891 34417c0,0 -526,176 -468,468 59,292 679,-5 679,-5l-211 -463z"/>
   <polygon class="fil1" points="81123,30452 79854,32756 77765,34398 78031,34987 80340,33669 82162,31577 "/>
   <path class="fil1" d="M84895 32084l-10 -8 58 -379c0,0 388,-436 1127,-223 738,214 684,957 684,957l-855 3922 2492 2729 -738 285 -3346 -2548 588 -4735z"/>
   <path class="fil11" d="M39110 27838c0,0 350,103 579,-278 0,0 -476,64 -1059,-361 -583,-424 -1459,216 -1323,968 136,752 938,226 938,226l459 -327 406 -228z"/>
   <path class="fil0" d="M39110 27838c-330,-300 -434,-61 -434,-61l-266 447 -267 -120 -11 -276c-176,-267 -343,111 -343,111l-485 -8 -296 169 96 1138 628 -335 558 277 337 -446 267 144 216 -1040z"/>
   <path class="fil1" d="M33130 33458l-2125 -2410 4429 -3000c511,-346 1148,-447 1740,-275l0 0 35 1549 -882 1246 -3197 2890z"/>
   <path class="fil12" d="M36750 29829c0,0 -2,-207 62,-491l292 37c0,0 14,225 -62,491l-11 239c0,0 17,725 12,1326 -5,601 -326,2591 -326,2591l-377 537 -317 -521c0,0 311,-2249 682,-3853l45 -356z"/>
   <polygon class="fil1" points="30217,38941 30324,39230 30900,39453 29448,39442 29451,39052 "/>
   <polygon class="fil1" points="30845,31695 30174,36195 29367,39079 30106,39365 31353,36364 32815,31695 "/>
   <polygon class="fil1" points="34276,38941 34384,39230 34959,39453 33508,39442 33511,39052 "/>
   <polygon class="fil1" points="31430,33115 32815,34888 33435,39079 34368,39079 34234,34347 32655,30697 "/>
   <path class="fil0" d="M41091 30433c0,0 590,-32 692,310 102,342 -709,287 -709,287l17 -597z"/>
   <polygon class="fil1" points="36623,28717 38847,29995 41253,30409 41243,31055 38551,30838 35890,30241 "/>
   <path class="fil1" d="M31091 31055c0,0 -219,61 -336,1240 -108,1090 1762,-195 1762,-195l0 -797 -680 -384 -746 136z"/>
   <path class="fil13" d="M105276 29602c0,-1386 -1063,-2046 -2240,-2383 -108,-2021 -1441,-3363 -3509,-3363 -1885,0 -3118,1118 -3507,2902 -1444,210 -2833,966 -2833,2626 0,1434 1295,2601 2886,2601l6559 0c1458,0 2644,-1069 2644,-2383z"/>
   <path class="fil13" d="M106428 25000c97,-1505 2565,-1603 2939,-162 606,74 1187,340 1187,926 0,506 -542,917 -1209,917l-2748 0c-1216,0 -1654,-1323 -169,-1681z"/>
   <path class="fil14" d="M45756 8188c-1980,61 -3567,1688 -3581,3695l-34 0c-13,-2007 -1593,-3634 -3573,-3695 1987,-68 3580,-1702 3580,-3730l27 0c0,2028 1594,3662 3581,3730z"/>
   <g>
    <path class="fil0" d="M95803 19846c0,-3626 -2940,-6566 -6567,-6566 -3626,0 -6566,2940 -6566,6566 0,3627 2940,6567 6566,6567 3627,0 6567,-2940 6567,-6567z"/>
    <g>
     <path class="fil15" d="M86044 14849c-1564,904 -2502,2475 -2660,4144 -25,26 -30,68 -10,103l1 1c-78,1034 144,2101 701,3066l38 64c-628,-3063 730,-6319 3593,-7971l77 -44c-596,107 -1185,317 -1740,637z"/>
     <path class="fil16" d="M92784 15991c1812,3140 737,7155 -2403,8968 -1224,706 -2581,972 -3888,850 1868,858 4110,829 6026,-277 3140,-1813 4216,-5828 2403,-8968 -1106,-1916 -3033,-3062 -5080,-3253 1193,547 2235,1456 2942,2680z"/>
    </g>
    <path class="fil17" d="M90476 21705l0 1238 -4955 0 0 -1238 4955 0zm-4955 -3717l0 -1240c2478,0 4955,0 7433,0l-1240 1240c-2063,0 -4128,0 -6193,0zm7433 1238c0,1239 0,2479 0,3717l-1240 0 0 -2478 -6193 0 0 -1239c2478,0 4955,0 7433,0z"/>
   </g>
  </g>
 </g>
</svg>
