<?xml version="1.0" encoding="UTF-8"?>
<!DOCTYPE svg PUBLIC "-//W3C//DTD SVG 1.1//EN" "http://www.w3.org/Graphics/SVG/1.1/DTD/svg11.dtd">
<!-- Creator: CorelDRAW X7 -->
<svg xmlns="http://www.w3.org/2000/svg" xml:space="preserve" width="8.63894in" height="4.58512in" version="1.1" style="shape-rendering:geometricPrecision; text-rendering:geometricPrecision; image-rendering:optimizeQuality; fill-rule:evenodd; clip-rule:evenodd"
viewBox="0 0 86389 45851"
 xmlns:xlink="http://www.w3.org/1999/xlink">
 <defs>
  <style type="text/css">
   <![CDATA[
    .fil3 {fill:#536896}
    .fil19 {fill:#9F9CCB}
    .fil17 {fill:#A9A6D0}
    .fil15 {fill:#BBB8DA}
    .fil13 {fill:#CEB486}
    .fil16 {fill:#D3D0E7}
    .fil11 {fill:#DFC9A1}
    .fil2 {fill:#E7D4B0}
    .fil1 {fill:#EFE2C9}
    .fil12 {fill:#F0E8DB}
    .fil0 {fill:#F7F2E7}
    .fil14 {fill:white}
    .fil4 {fill:#7875A3;fill-rule:nonzero}
    .fil8 {fill:#8480BC;fill-rule:nonzero}
    .fil6 {fill:#9F9CCB;fill-rule:nonzero}
    .fil5 {fill:#A9A6D0;fill-rule:nonzero}
    .fil7 {fill:#BBB8DA;fill-rule:nonzero}
    .fil10 {fill:#CEB486;fill-rule:nonzero}
    .fil21 {fill:#DFC9A1;fill-rule:nonzero}
    .fil22 {fill:#E7D4B0;fill-rule:nonzero}
    .fil9 {fill:#EFE2C9;fill-rule:nonzero}
    .fil20 {fill:#F7F2E7;fill-rule:nonzero}
    .fil23 {fill:#F9F4EB;fill-rule:nonzero}
    .fil18 {fill:white;fill-rule:nonzero}
   ]]>
  </style>
 </defs>
 <g id="Layer_x0020_1">
  <metadata id="CorelCorpID_0Corel-Layer"/>
  <g id="_2124085482608">
   <g>
    <path class="fil0" d="M63280 45851l23109 0 0 -35314c-2326,406 -4083,17 -5658,-771 -2169,-1084 -4058,-2524 -5951,-3859 -7787,-5491 -16386,-5616 -20411,4398 -1164,2899 -2241,7538 -4878,9631 -3041,2413 -6955,148 -9684,-1734 -1397,-963 -3734,-2559 -5147,-3171 -2,2735 25772,29100 28620,30820z"/>
    <path class="fil1" d="M86389 24232c-10189,4645 -10504,-10075 -20271,-11723 -11361,-1915 -11949,17300 -26382,5636 -2285,-1847 -4747,-3876 -7519,-4979 -8437,-3356 -15773,3625 -13895,10631 1271,4740 5923,7363 10514,7305 5282,-67 7461,1230 7676,3070 458,3918 -6085,8244 -12099,11679l50861 0c1519,-4268 6228,-4636 11115,-5258l0 -16361z"/>
    <path class="fil2" d="M30191 30974c1995,-302 3713,-199 5149,139 8648,2036 5423,9286 1467,14738l49582 0 0 -8641c-7320,-640 -11287,4538 -14978,-4704 -2213,-5542 -10058,-9777 -17086,-6325 -1452,714 -2632,1714 -3987,2535 -3258,1972 -6098,1810 -8828,-669 -1186,-1077 -2096,-2315 -3011,-3550 -8909,-12031 -25544,-8206 -18850,2177 1789,2776 5799,5019 10542,4300z"/>
    <polygon class="fil3" points="62607,8723 62750,8639 62607,8554 "/>
   </g>
   <path class="fil4" d="M55514 40534c-14,15 -42,15 -56,0 -331,-354 -369,-834 -129,-1105 78,-88 243,-83 316,8 243,305 203,742 -131,1097zm-1537 0c-14,15 -42,15 -56,0 -331,-354 -369,-834 -129,-1105 78,-88 243,-83 316,8 243,305 203,742 -131,1097zm-1537 0c-14,15 -42,15 -56,0 -331,-354 -369,-834 -129,-1105 78,-88 243,-83 316,8 243,305 203,742 -131,1097zm-1537 0c-14,15 -42,15 -56,0 -331,-354 -369,-834 -129,-1105 78,-88 243,-83 316,8 243,305 203,742 -131,1097zm-1537 0c-14,15 -42,15 -56,0 -331,-354 -369,-834 -129,-1105 78,-88 243,-83 316,8 243,305 203,742 -131,1097zm-1537 0c-14,15 -42,15 -56,0 -331,-354 -369,-834 -129,-1105 78,-88 242,-83 316,8 243,305 203,742 -131,1097zm-1537 0c-14,15 -42,15 -56,0 -332,-354 -369,-834 -129,-1105 78,-88 242,-83 316,8 243,305 203,742 -131,1097zm-1537 0c-14,15 -42,15 -57,0 -331,-354 -368,-834 -128,-1105 77,-88 242,-83 316,8 243,305 203,742 -131,1097zm-1537 0c-14,15 -42,15 -57,0 -331,-354 -368,-834 -128,-1105 77,-88 242,-83 316,8 243,305 203,742 -131,1097zm-1538 0c-14,15 -42,15 -56,0 -331,-354 -368,-834 -128,-1105 77,-88 242,-83 315,8 244,305 204,742 -131,1097zm-1537 0c-14,15 -42,15 -56,0 -331,-354 -369,-834 -129,-1105 78,-88 243,-83 316,8 244,305 204,742 -131,1097zm-1537 0c-14,15 -42,15 -56,0 -331,-354 -369,-834 -129,-1105 78,-88 243,-83 316,8 243,305 204,742 -131,1097zm-1537 0c-14,15 -42,15 -56,0 -331,-354 -369,-834 -129,-1105 78,-88 243,-83 316,8 243,305 203,742 -131,1097zm-1537 0c-14,15 -42,15 -56,0 -331,-354 -369,-834 -129,-1105 78,-88 243,-83 316,8 243,305 203,742 -131,1097zm-1537 0c-14,15 -42,15 -56,0 -331,-354 -369,-834 -129,-1105 78,-88 243,-83 316,8 243,305 203,742 -131,1097zm-1537 0c-14,15 -42,15 -56,0 -331,-354 -369,-834 -129,-1105 78,-88 243,-83 316,8 243,305 203,742 -131,1097zm-1537 0c-14,15 -42,15 -56,0 -331,-354 -369,-834 -129,-1105 78,-88 243,-83 316,8 243,305 203,742 -131,1097zm-1537 0c-14,15 -42,15 -56,0 -331,-354 -369,-834 -129,-1105 78,-88 243,-83 316,8 243,305 203,742 -131,1097zm-1537 0c-14,15 -42,15 -56,0 -331,-354 -369,-834 -129,-1105 78,-88 242,-83 316,8 243,305 203,742 -131,1097zm-1537 0c-14,15 -42,15 -56,0 -331,-354 -369,-834 -129,-1105 78,-88 242,-83 316,8 243,305 203,742 -131,1097zm-1537 0c-14,15 -42,15 -57,0 -331,-354 -368,-834 -128,-1105 77,-88 242,-83 316,8 243,305 203,742 -131,1097zm-1537 0c-14,15 -42,15 -57,0 -331,-354 -368,-834 -128,-1105 77,-88 242,-83 316,8 243,305 203,742 -131,1097zm-1538 0c-14,15 -42,15 -56,0 -331,-354 -368,-834 -128,-1105 77,-88 242,-83 316,8 243,305 203,742 -132,1097zm-1537 0c-14,15 -42,15 -56,0 -331,-354 -369,-834 -129,-1105 78,-88 243,-83 316,8 244,305 204,742 -131,1097zm-1537 0c-14,15 -42,15 -56,0 -331,-354 -369,-834 -129,-1105 78,-88 243,-83 316,8 243,305 204,742 -131,1097zm-1537 0c-14,15 -42,15 -56,0 -331,-354 -369,-834 -129,-1105 78,-88 243,-83 316,8 243,305 203,742 -131,1097zm-1537 0c-14,15 -42,15 -56,0 -331,-354 -369,-834 -129,-1105 78,-88 243,-83 316,8 243,305 203,742 -131,1097zm-1537 0c-14,15 -42,15 -56,0 -331,-354 -369,-834 -129,-1105 78,-88 243,-83 316,8 243,305 203,742 -131,1097zm-1537 0c-14,15 -42,15 -56,0 -331,-354 -369,-834 -129,-1105 78,-88 243,-83 316,8 243,305 203,742 -131,1097zm-1537 0c-14,15 -42,15 -56,0 -331,-354 -369,-834 -129,-1105 78,-88 243,-83 316,8 243,305 203,742 -131,1097zm45379 360l0 -89c-238,41 -467,-14 -702,-143 -17,-9 -13,-28 -1,-41 284,-307 345,-654 247,-1024 -23,-87 -66,-177 -128,-251 -167,-199 -381,-188 -516,26 -275,433 -182,845 133,1237 10,12 10,28 -3,38 -186,139 -367,189 -550,167l0 -9c-274,41 -475,-14 -710,-143 -17,-9 -21,-28 -8,-41 284,-307 344,-654 246,-1024 -24,-87 -68,-177 -129,-251 -167,-199 -382,-188 -517,26 -275,433 -184,845 132,1237 9,12 2,28 -10,38 -186,139 -358,189 -559,167l0 -9c-238,41 -467,-14 -701,-143 -17,-9 -13,-28 -1,-41 284,-307 345,-654 247,-1024 -23,-87 -67,-177 -128,-251 -167,-199 -381,-188 -516,26 -275,433 -182,845 133,1237 10,12 9,28 -4,38 -185,139 -366,189 -549,167l0 -9c-275,41 -476,-14 -710,-143 -17,-9 -21,-28 -9,-41 285,-307 345,-654 246,-1024 -23,-87 -67,-177 -128,-251 -167,-199 -382,-188 -518,26 -274,433 -183,845 132,1237 10,12 3,28 -10,38 -186,139 -358,189 -559,167l0 -9c-238,41 -466,-14 -701,-143 -17,-9 -12,-28 0,-41 284,-307 345,-654 247,-1024 -23,-87 -67,-177 -128,-251 -167,-199 -381,-188 -517,26 -274,433 -182,845 134,1237 9,12 9,28 -4,38 -186,139 -367,189 -550,167l0 -9c-275,41 -475,-14 -710,-143 -17,-9 -20,-28 -8,-41 285,-307 345,-654 246,-1024 -23,-87 -67,-177 -129,-251 -167,-199 -382,-188 -517,26 -275,433 -184,845 132,1237 9,12 2,28 -10,38 -186,139 -359,189 -560,167l0 -9c-238,41 -466,-14 -700,-143 -17,-9 -12,-28 0,-41 284,-307 345,-654 247,-1024 -23,-87 -67,-177 -128,-251 -167,-199 -382,-188 -517,26 -275,433 -182,845 133,1237 10,12 9,28 -4,38 -185,139 -367,189 -550,167l0 -9c-275,41 -475,-14 -709,-143 -17,-9 -19,-28 -7,-41 284,-307 344,-654 246,-1024 -23,-87 -67,-177 -128,-251 -167,-199 -381,-188 -517,26 -274,433 -181,845 135,1237 9,12 6,28 -7,38 -185,139 -368,189 -551,167l0 -9c-256,41 -474,-14 -709,-143 -16,-9 -21,-28 -9,-41 284,-307 345,-654 247,-1024 -23,-87 -66,-177 -128,-251 -167,-199 -381,-188 -516,26 -275,433 -183,845 133,1237 9,12 -1,28 -13,38 -186,139 -359,189 -560,167l0 -9c-257,41 -465,-14 -700,-143 -17,-9 -14,-28 -2,-41 285,-307 347,-654 249,-1024 -24,-87 -66,-177 -128,-251 -167,-199 -380,-188 -515,26 -275,433 -181,845 134,1237 10,12 6,28 -6,38 -186,139 -368,189 -552,167l0 -9c-256,41 -474,-14 -708,-143 -17,-9 -21,-28 -9,-41 284,-307 345,-654 247,-1024 -23,-87 -67,-177 -128,-251 -167,-199 -381,-188 -517,26 -274,433 -182,845 133,1237 10,12 0,28 -13,38 -185,139 -359,189 -560,167l0 -9c-256,41 -465,-14 -699,-143 -17,-9 -14,-28 -2,-41 284,-307 347,-654 248,-1024 -23,-87 -65,-177 -127,-251 -167,-199 -380,-188 -516,26 -274,433 -181,845 135,1237 9,12 6,28 -7,38 -186,139 -368,189 -551,167l0 -9c-257,41 -474,-14 -709,-143 -17,-9 -20,-28 -8,-41 284,-307 345,-654 247,-1024 -23,-87 -67,-177 -128,-251 -167,-199 -382,-188 -517,26 -275,433 -183,845 133,1237 9,12 -1,28 -13,38 -186,139 -360,189 -561,167l0 -9c-256,41 -465,-14 -699,-143 -17,-9 -13,-28 -1,-41 284,-307 347,-654 248,-1024 -23,-87 -66,-177 -127,-251 -167,-199 -381,-188 -516,26 -275,433 -181,845 134,1237 10,12 6,28 -6,38 -186,139 -369,189 -552,167l0 -9c-256,41 -474,-14 -708,-143 -17,-9 -20,-28 -8,-41 284,-307 345,-654 247,-1024 -23,-87 -67,-177 -129,-251 -166,-199 -381,-188 -516,26 -275,433 -183,845 132,1237 10,12 0,28 -13,38 -185,139 -360,189 -561,167l0 -9c-256,41 -464,-14 -698,-143 -17,-9 -13,-28 -1,-41 284,-307 346,-654 248,-1024 -23,-87 -66,-177 -127,-251 -167,-199 -381,-188 -516,26 -275,433 -182,845 134,1237 9,12 6,28 -7,38 -186,139 -369,189 -552,167l0 -9c-256,41 -473,-14 -708,-143 -17,-9 -20,-28 -7,-41 284,-307 345,-654 247,-1024 -23,-87 -67,-177 -129,-251 -167,-199 -381,-188 -516,26 -275,433 -183,845 132,1237 9,12 -1,28 -13,38 -186,139 -360,189 -562,167l0 -9c-238,41 -464,-14 -698,-143 -17,-9 -12,-28 0,-41 284,-307 346,-654 248,-1024 -23,-87 -66,-177 -128,-251 -167,-199 -380,-188 -516,26 -274,433 -181,845 134,1237 10,12 6,28 -7,38 -185,139 -387,189 -552,167l0 -9c-256,41 -473,-14 -707,-143 -17,-9 -20,-28 -7,-41 284,-307 345,-654 247,-1024 -24,-87 -67,-177 -129,-251 -167,-199 -381,-188 -517,26 -275,433 -183,845 132,1237 10,12 0,28 -13,38 -185,139 -360,189 -562,167l0 -9c-238,41 -463,-14 -697,-143 -17,-9 -12,-28 0,-41 284,-307 346,-654 248,-1024 -23,-87 -66,-177 -128,-251 -167,-199 -380,-188 -516,26 -275,433 -182,845 134,1237 9,12 6,28 -7,38 -186,139 -351,189 -553,167l0 -9c-256,41 -472,-14 -707,-143 -17,-9 -19,-28 -6,-41 284,-307 345,-654 246,-1024 -23,-87 -66,-177 -128,-251 -167,-199 -382,-188 -517,26 -275,433 -183,845 132,1237 9,12 -1,28 -13,38 -186,139 -361,189 -563,167l0 -9c-237,41 -463,-14 -697,-143 -17,-9 -11,-28 1,-41 284,-307 346,-654 248,-1024 -23,-87 -66,-177 -128,-251 -167,-199 -381,-188 -516,26 -275,433 -182,845 133,1237 10,12 6,28 -6,38 -186,139 -352,189 -554,167l0 -9c-256,41 -472,-14 -706,-143 -17,-9 -19,-28 -7,-41 285,-307 346,-654 247,-1024 -23,-87 -67,-177 -128,-251 -167,-199 -382,-188 -517,26 -275,433 -184,845 131,1237 10,12 0,28 -13,38 -185,139 -361,189 -562,167l0 -9c-238,41 -463,-14 -698,-143 -16,-9 -10,-28 2,-41 284,-307 346,-654 248,-1024 -24,-87 -67,-177 -128,-251 -167,-199 -381,-188 -516,26 -275,433 -182,845 133,1237 9,12 6,28 -7,38 -186,139 -352,189 -554,167l0 -9c-256,41 -471,-14 -706,-143 -16,-9 -17,-28 -5,-41 284,-307 345,-654 247,-1024 -23,-87 -67,-177 -128,-251 -167,-199 -381,-188 -516,26 -275,433 -181,845 135,1237 9,12 2,28 -10,38 -186,139 -371,189 -554,167l0 -9c-256,41 -471,-14 -706,-143 -17,-9 -20,-28 -8,-41 284,-307 346,-654 248,-1024 -23,-87 -66,-177 -128,-251 -166,-199 -380,-188 -516,26 -275,433 -182,845 133,1237 10,12 6,28 -7,38 -185,139 -352,189 -553,167l0 -9c-257,41 -472,-14 -706,-143 -17,-9 -17,-28 -5,-41 284,-307 345,-654 247,-1024 -23,-87 -67,-177 -128,-251 -167,-199 -381,-188 -516,26 -275,433 -181,845 134,1237 10,12 3,28 -10,38 -185,139 -371,189 -554,167l0 -9c-256,41 -471,-14 -705,-143 -17,-9 -20,-28 -8,-41 284,-307 346,-654 248,-1024 -23,-87 -66,-177 -128,-251 -167,-199 -381,-188 -516,26 -275,433 -182,845 133,1237 10,12 6,28 -7,38 -186,139 -353,189 -554,167l0 -9c-257,41 -471,-14 -706,-143 -16,-9 -16,-28 -4,-41 284,-307 345,-654 247,-1024 -24,-87 -67,-177 -129,-251 -166,-199 -380,-188 -515,26 -275,433 -182,845 134,1237 9,12 3,28 -10,38 -186,139 -372,189 -555,167l0 -9c-256,41 -471,-14 -705,-143 -17,-9 -19,-28 -7,-41 284,-307 346,-654 248,-1024 -23,-87 -66,-177 -128,-251 -167,-199 -381,-188 -516,26 -275,433 -183,845 132,1237 10,12 6,28 -7,38 -185,139 -353,189 -554,167l0 -9c-275,41 -471,-14 -705,-143 -17,-9 -17,-28 -4,-41 284,-307 345,-654 246,-1024 -23,-87 -66,-177 -128,-251 -167,-199 -380,-188 -516,26 -275,433 -181,845 134,1237 10,12 3,28 -10,38 -185,139 -372,189 -555,167l0 76c751,-74 1099,71 1538,4l0 -4c769,-74 1080,71 1537,4l0 -4c751,-74 1098,71 1538,4l0 -4c768,-74 1080,71 1537,4l0 -4c751,-74 1080,71 1538,4l0 -4c768,-74 1079,71 1537,4l0 -4c750,-74 1080,71 1537,4l0 -4c769,-74 1080,71 1520,4l0 -4c768,-74 1098,71 1555,4l0 -4c769,-74 1080,71 1519,4l0 -4c769,-74 1099,71 1556,4l0 -4c769,-74 1098,71 1519,4l0 -4c769,-74 1098,71 1556,4l0 -4c769,-74 1098,71 1519,4l0 -4c769,-74 1098,71 1556,4l0 -4c769,-74 1098,71 1519,4l0 -4c769,-74 1098,71 1556,4l0 -4c750,-74 1098,71 1519,4l0 -4c769,-74 1098,71 1556,4l0 -4c750,-74 1098,71 1519,4l0 -4c768,-74 1098,71 1555,4l0 -4c751,-74 1099,71 1520,4l0 -4c768,-74 1098,71 1555,4l0 -4c751,-74 1062,71 1538,4l0 -4c750,-74 1080,71 1519,4l0 -4c769,-74 1098,71 1556,4l0 -4c750,-74 1080,71 1519,4l0 -4c769,-74 1098,71 1556,4l0 -4c750,-74 1079,71 1519,4l0 -4c768,-74 1098,71 1555,4l0 -4c751,-74 1080,71 1520,4z"/>
   <polygon class="fil5" points="57903,32012 55629,32012 55629,30508 57903,30508 "/>
   <polygon class="fil5" points="63032,32012 60759,32012 60759,30508 63032,30508 "/>
   <polygon class="fil6" points="66928,41098 51723,41098 51723,37633 66928,37633 "/>
   <polygon class="fil7" points="63033,32482 59328,32479 55629,32481 51726,37638 59328,37638 66942,37638 "/>
   <polygon class="fil7" points="63032,31679 55629,31679 55629,32500 63032,32500 "/>
   <polygon class="fil5" points="52068,37500 63032,32496 55627,32496 51726,37638 "/>
   <polygon class="fil8" points="51732,41086 66942,37638 51728,37638 51723,41098 "/>
   <path class="fil7" d="M10064 26974c-427,1015 -861,2027 -1295,3039 -204,475 -431,584 -925,450 -247,-67 -494,-135 -755,-207 -187,-51 -382,-105 -590,-163 -175,1123 -268,2241 -279,3346 25,1104 132,2220 321,3340 156,-45 305,-89 449,-131 313,-91 602,-175 891,-257 492,-141 721,-34 931,437 447,1007 894,2013 1334,3023 144,331 58,439 -194,699 -454,470 -972,579 -1525,541 -183,-12 -369,-41 -559,-77 -800,-155 -1653,-272 -2285,-794 -176,-146 -362,-507 -409,-615 -714,-1651 -1113,-3012 -1328,-4802 -54,-451 -87,-890 -99,-1349 6,-458 34,-899 82,-1351 193,-1793 574,-3159 1268,-4819 45,-109 227,-473 400,-620 626,-531 1477,-659 2275,-823 378,-78 744,-123 1092,-73 354,50 689,198 997,509 256,258 343,364 203,697z"/>
   <path class="fil6" d="M10064 26974c-427,1015 -861,2027 -1295,3039 -204,475 -431,584 -925,450 -247,-67 -494,-135 -755,-207 162,-686 646,-2427 1775,-4488 354,50 689,198 997,509 256,258 343,364 203,697z"/>
   <path class="fil6" d="M8812 36828c447,1007 894,2013 1334,3023 144,331 58,439 -194,699 -454,470 -972,579 -1525,541 -412,-810 -1042,-2302 -1437,-4443 313,-91 602,-175 891,-257 492,-141 721,-34 931,437z"/>
   <g>
    <path class="fil9" d="M69405 11457c-1415,-817 -1900,-2627 -1083,-4042l-510 -294c-979,1697 -398,3866 1299,4845l294 -509z"/>
    <path class="fil10" d="M70871 12030l-960 -554c-263,-152 -600,-62 -752,202l-42 73c-153,263 -62,600 201,752l960 554c263,153 601,62 753,-201l42 -73c152,-264 62,-601 -202,-753z"/>
    <path class="fil9" d="M69440 5551l1216 -2107c1315,-2278 4228,-3058 6505,-1743 2278,1315 3058,4227 1743,6505l-1217 2107 906 523 1226 -2123c1604,-2778 652,-6330 -2126,-7934 -2778,-1604 -6330,-652 -7933,2126l-1226 2123 906 523z"/>
    <path class="fil9" d="M80012 11159c20,324 -72,484 -187,683l-222 385 -223 385c-114,199 -206,358 -498,503l-426 151 737 -1276 737 -1276 82 445z"/>
    <path class="fil10" d="M76732 13092l486 281c487,281 1111,114 1392,-373l1166 -2019c281,-488 114,-1111 -373,-1392l-486 -281c-488,-282 -1111,-114 -1393,373l-1165 2019c-282,487 -115,1111 373,1392z"/>
    <path class="fil9" d="M67473 3920c-291,144 -384,304 -498,503l-223 385 -222 385c-115,198 -207,358 -187,683l83 444 736 -1276 737 -1275 -426 151z"/>
    <path class="fil10" d="M67438 7726l-486 -280c-488,-282 -655,-905 -373,-1393l1165 -2018c282,-488 905,-655 1393,-374l486 281c487,282 654,905 373,1392l-1166 2019c-281,488 -905,655 -1392,373z"/>
   </g>
   <g>
    <path class="fil11" d="M31951 20917c0,-2556 -2072,-4628 -4628,-4628 -2556,0 -4628,2072 -4628,4628 0,2556 2072,4628 4628,4628 2556,0 4628,-2072 4628,-4628z"/>
    <g>
     <path class="fil12" d="M25073 17395c-1103,636 -1764,1744 -1875,2920 -18,19 -21,49 -7,73l0 1c-54,729 102,1481 495,2161l26 45c-442,-2159 515,-4454 2533,-5619l54 -30c-420,75 -835,223 -1226,449z"/>
     <path class="fil13" d="M29823 18199c1278,2214 520,5044 -1694,6321 -862,498 -1818,686 -2740,600 1317,604 2897,584 4248,-196 2213,-1278 2971,-4108 1693,-6321 -779,-1350 -2137,-2158 -3580,-2293 841,386 1575,1027 2073,1889z"/>
    </g>
    <path class="fil14" d="M28197 22227l0 872 -3493 0 0 -872 3493 0zm-3493 -2620l0 -874c1746,0 3493,0 5239,0l-874 874c-1454,0 -2909,0 -4365,0zm5239 872c0,874 0,1748 0,2620l-874 0 0 -1746 -4365 0 0 -874c1746,0 3493,0 5239,0z"/>
   </g>
   <g>
    <g>
     <path class="fil15" d="M55136 18744c2610,-4521 1061,-10301 -3459,-12911 -4521,-2610 -10301,-1061 -12911,3459 -2610,4521 -1061,10301 3460,12911 4520,2610 10300,1061 12910,-3459z"/>
     <g>
      <path class="fil16" d="M46569 5491c-2601,1 -4901,1284 -6299,3251 -50,15 -87,64 -87,122l0 2c-841,1233 -1332,2722 -1332,4326l1 107c1422,-4270 5458,-7351 10216,-7351l127 1c-819,-296 -1704,-458 -2626,-458z"/>
      <path class="fil17" d="M54148 11765c0,5219 -4231,9450 -9450,9450 -2034,0 -3916,-645 -5458,-1739 1712,2415 4526,3992 7711,3992 5219,0 9450,-4231 9450,-9450 0,-3185 -1577,-5999 -3992,-7711 1094,1542 1739,3424 1739,5458z"/>
     </g>
    </g>
    <g>
     <path class="fil18" d="M51452 10180c-107,-317 -352,-587 -736,-809 -317,-183 -644,-282 -980,-298 -336,-16 -641,45 -914,181 -274,137 -488,339 -643,606 -173,301 -207,610 -100,927 106,318 355,590 747,816 318,184 641,284 970,302 330,17 633,-45 909,-186 276,-141 489,-341 639,-600 178,-308 214,-621 108,-939z"/>
     <path class="fil18" d="M46305 18679c0,0 -1421,-206 -973,-739l3378 -4025c421,-502 287,-1262 -281,-1589l-1255 -725 -125 -72 -818 -473 -227 242c0,0 801,522 262,1164 -1226,1461 -3463,4126 -3465,4129 -301,358 -397,853 -255,1298 213,665 844,994 1487,1134 214,47 2198,252 2199,245l73 -589z"/>
    </g>
   </g>
   <path class="fil19" d="M56190 34840c0,1087 1454,1967 3248,1967 1793,0 3247,-880 3247,-1967 0,-1086 -1454,-1966 -3247,-1966 -1794,0 -3248,880 -3248,1966z"/>
   <path class="fil8" d="M62577 34624c0,1087 -1454,1967 -3247,1967 -1794,0 -3248,-880 -3248,-1967 0,-1086 1454,-1966 3248,-1966 1793,0 3247,880 3247,1966z"/>
   <path class="fil20" d="M61624 34624c0,768 -1027,1389 -2294,1389 -1267,0 -2294,-621 -2294,-1389 0,-767 1027,-1389 2294,-1389 1267,0 2294,622 2294,1389z"/>
   <g>
    <path class="fil21" d="M76843 18825c-1258,-448 -2647,-353 -4128,280 -1480,634 -2514,1575 -3074,2800 -486,1064 -535,2203 -144,3385 66,199 213,363 404,449 192,86 412,88 605,6l881 -377c352,-151 534,-541 424,-909 -197,-651 -175,-1225 65,-1756 291,-642 869,-1151 1718,-1515 846,-362 1613,-416 2279,-161 663,255 1179,805 1535,1635 489,1144 491,2055 6,2708 -512,687 -1499,1338 -2937,1936l-381 164c-381,162 -558,605 -395,986l1421 3322c79,185 225,327 412,402 186,75 390,72 574,-7l895 -382c72,-31 136,-72 193,-121 242,-208 334,-557 202,-865l-921 -2152c-11,-27 1,-58 27,-70 1647,-758 2769,-1676 3334,-2728 601,-1119 569,-2473 -94,-4024 -661,-1545 -1637,-2556 -2901,-3006z"/>
    <path class="fil21" d="M76883 32596c-410,175 -701,470 -864,877 -163,407 -157,821 19,1231 175,411 471,701 877,864 407,163 822,157 1231,-19 163,-69 307,-158 431,-265 189,-162 334,-367 433,-612 163,-408 157,-822 -19,-1231 -175,-410 -470,-700 -877,-864 -408,-163 -822,-157 -1231,19z"/>
    <path class="fil13" d="M75834 19690c1264,450 2240,1461 2901,3006 664,1551 696,2905 95,4024 -174,324 -400,634 -678,931 771,-543 1336,-1143 1686,-1796 601,-1119 569,-2473 -94,-4024 -661,-1545 -1637,-2556 -2901,-3006 -1258,-448 -2647,-353 -4128,280 -916,392 -1662,903 -2229,1525 365,-247 773,-468 1221,-660 1480,-633 2869,-727 4127,-280z"/>
    <path class="fil13" d="M77421 32889c407,164 703,454 878,863 175,410 181,824 18,1231 -98,246 -243,451 -432,613 -24,20 -48,39 -72,58 111,-23 223,-57 333,-105 163,-69 307,-158 431,-265 189,-162 334,-367 433,-613 163,-407 157,-821 -18,-1230 -176,-410 -471,-700 -878,-864 -408,-163 -822,-157 -1231,19 -132,56 -252,125 -359,207 299,-61 600,-33 897,86z"/>
   </g>
   <path class="fil22" d="M3832 24007c-1056,32 -1902,900 -1909,1970l-18 0c-7,-1070 -849,-1938 -1905,-1970 1059,-36 1909,-907 1909,-1988l14 0c0,1081 850,1952 1909,1988z"/>
   <path class="fil23" d="M65109 20340c-1673,52 -3014,1427 -3026,3124l-28 0c-12,-1697 -1347,-3072 -3021,-3124 1680,-57 3026,-1438 3026,-3152l23 0c0,1714 1347,3095 3026,3152z"/>
  </g>
 </g>
</svg>
