<?xml version="1.0" encoding="UTF-8"?>
<!DOCTYPE svg PUBLIC "-//W3C//DTD SVG 1.1//EN" "http://www.w3.org/Graphics/SVG/1.1/DTD/svg11.dtd">
<!-- Creator: CorelDRAW X7 -->
<svg xmlns="http://www.w3.org/2000/svg" xml:space="preserve" width="0.699803in" height="0.699803in" version="1.1" style="shape-rendering:geometricPrecision; text-rendering:geometricPrecision; image-rendering:optimizeQuality; fill-rule:evenodd; clip-rule:evenodd"
viewBox="0 0 6998 6998"
 xmlns:xlink="http://www.w3.org/1999/xlink">
 <defs>
  <style type="text/css">
   <![CDATA[
    .fil0 {fill:#7C94CA}
   ]]>
  </style>
 </defs>
 <g id="Layer_x0020_1">
  <metadata id="CorelCorpID_0Corel-Layer"/>
  <path class="fil0" d="M3499 6998c934,0 1813,-364 2476,-1027 659,-659 1023,-1538 1023,-2472 0,-934 -364,-1813 -1023,-2476 -663,-659 -1542,-1023 -2476,-1023 -934,0 -1813,364 -2472,1023 -663,663 -1027,1542 -1027,2476 0,934 364,1813 1027,2472 659,663 1538,1027 2472,1027zm0 -3859c298,0 542,-241 542,-543 0,-298 -244,-542 -542,-542 -302,0 -546,244 -546,542 0,302 244,543 546,543zm81 2573c59,-74 1446,-1779 1442,-2895 -4,-903 -686,-1635 -1523,-1635 -841,0 -1523,732 -1523,1635 0,1116 1376,2821 1434,2895l85 104 85 -104 0 0zm1221 -2895c4,887 -1004,2259 -1306,2650 -302,-391 -1302,-1763 -1302,-2650 0,-783 585,-1414 1306,-1414 713,0 1298,631 1302,1414zm-977 -221c0,182 -147,330 -325,330 -182,0 -329,-148 -329,-330 0,-182 147,-325 329,-325 178,0 325,143 325,325zm-2646 -1418c620,-620 1445,-961 2321,-961 876,0 1701,341 2321,961 620,620 961,1445 961,2321 0,876 -341,1701 -961,2321 -620,616 -1445,961 -2321,961 -876,0 -1701,-345 -2321,-961 -616,-620 -957,-1445 -957,-2321 0,-876 341,-1701 957,-2321z"/>
 </g>
</svg>
