<?xml version="1.0" encoding="UTF-8"?>
<!DOCTYPE svg PUBLIC "-//W3C//DTD SVG 1.1//EN" "http://www.w3.org/Graphics/SVG/1.1/DTD/svg11.dtd">
<!-- Creator: CorelDRAW X7 -->
<svg xmlns="http://www.w3.org/2000/svg" xml:space="preserve" width="11.5958in" height="4.86504in" version="1.1" style="shape-rendering:geometricPrecision; text-rendering:geometricPrecision; image-rendering:optimizeQuality; fill-rule:evenodd; clip-rule:evenodd"
viewBox="0 0 115958 48650"
 xmlns:xlink="http://www.w3.org/1999/xlink">
 <defs>
  <style type="text/css">
   <![CDATA[
    .fil4 {fill:#EAF3DE}
    .fil10 {fill:#5E6D8F}
    .fil5 {fill:#657AA9}
    .fil11 {fill:#BB9B61}
    .fil8 {fill:#C4CFE9}
    .fil3 {fill:#DFC596}
    .fil15 {fill:#E5D5B6}
    .fil2 {fill:#E7D4B0}
    .fil1 {fill:#EFE2C9}
    .fil14 {fill:#F4EEE5}
    .fil0 {fill:#F7F2E7}
    .fil16 {fill:white}
    .fil6 {fill:#7C94CA;fill-rule:nonzero}
    .fil7 {fill:#B6B2D7;fill-rule:nonzero}
    .fil13 {fill:#E7D4B0;fill-rule:nonzero}
    .fil9 {fill:#EEE3CE;fill-rule:nonzero}
    .fil12 {fill:#F7F2E7;fill-rule:nonzero}
   ]]>
  </style>
 </defs>
 <g id="Layer_x0020_1">
  <metadata id="CorelCorpID_0Corel-Layer"/>
  <g id="_1759670229264">
   <g>
    <path class="fil0" d="M100603 0l-100603 0 0 42347c17623,2756 21757,-3185 27036,-7522 4032,-3312 7620,-4066 11665,-3832 6830,395 17085,2762 25464,2468 16935,-594 13115,-9561 10112,-13810 -2142,-3030 -1171,-5333 1010,-6912 4903,-3548 13058,-2410 18736,-2043 2684,174 3116,-9748 6580,-10696z"/>
    <path class="fil1" d="M0 31004c13234,-3506 12966,-9765 31780,-7727 6420,695 21681,3810 27275,-149 5977,-4230 1801,-10656 7320,-13064 1624,-708 4074,-1154 7785,-1213 20066,-321 36478,9618 39668,-8851l-113828 0 0 31004z"/>
    <path class="fil2" d="M0 17610c3944,-1350 7123,-3022 10523,-3459 8374,-1076 23118,4790 35311,4355 13230,-473 11137,-6510 12432,-9912 1048,-2755 4894,-3940 12006,-3670 12256,465 37081,11123 40679,-4924l-61990 0 -48961 0 0 17610z"/>
    <path class="fil3" d="M100603 0l-100603 0 0 13242c3239,-1455 5996,-2931 9931,-2836 14492,351 31769,12126 44795,-2704 1993,-2268 5839,-5727 13581,-5111 10133,808 25921,9455 32296,-2591z"/>
   </g>
   <path class="fil4" d="M72717 30088c0,0 -295,-44 -363,191 -67,235 343,225 343,225l20 -416z"/>
   <polygon class="fil5" points="77162,28175 75102,29552 72642,30020 72609,30628 75113,30527 77544,29566 "/>
   <path class="fil0" d="M35332 43132c0,692 9304,1254 20781,1254 11477,0 20781,-562 20781,-1254 0,-693 -9304,-1255 -20781,-1255 -11477,0 -20781,562 -20781,1255z"/>
   <path class="fil4" d="M39047 26938c0,0 297,-27 352,211 55,238 -354,205 -354,205l2 -416z"/>
   <polygon class="fil5" points="34805,26215 36969,26865 39110,26865 39110,27394 36957,27658 34300,27394 "/>
   <path class="fil6" d="M73910 31652l-929 0 -7795 0c-491,0 -982,-71 -996,-719 -16,-157 17,-322 112,-473 305,-489 499,-1032 497,-1544 -20,-560 -283,-1079 -904,-1445 -980,-576 -2325,-205 -2868,795 -148,272 -206,533 -203,787 24,492 271,960 540,1432 70,122 101,252 100,378 65,813 -665,789 -1204,789l-3271 0 -711 0 0 4578c115,482 684,742 1133,461 1046,-652 2339,-801 3050,408 577,980 207,2325 -793,2868 -491,267 -947,244 -1392,93 -295,-99 -587,-257 -894,-424 -99,-54 -198,-87 -295,-104 -365,-37 -720,203 -808,571l0 3314c9420,-1 17116,-5207 17631,-11765z"/>
   <path class="fil7" d="M55217 39740c154,-175 386,-252 637,-208 101,10 203,41 300,96 296,169 590,330 890,432 421,140 848,156 1332,-107 1000,-543 1426,-1865 850,-2845 -711,-1209 -2004,-1061 -3050,-409 -343,214 -755,113 -982,-162 -114,-138 -169,-309 -169,-486l0 -4375 -4068 0c-471,0 -920,-70 -1073,525 -46,179 -28,377 76,559 421,735 787,1459 341,2281 -543,1000 -1888,1371 -2869,795 -1209,-710 -1060,-2003 -409,-3049 61,-98 96,-202 110,-305 109,-864 -707,-806 -1255,-806l-8463 0c328,4035 3374,7555 7866,9663 33,15 62,36 86,63l7968 7158c182,202 515,38 466,-229l-186 -4623c-31,-170 104,-326 277,-318 374,17 752,26 1133,27l0 -2721c0,-328 -44,-689 192,-956z"/>
   <path class="fil8" d="M37415 31676l8463 0c548,0 1364,-58 1255,806 -14,103 -49,207 -110,305 -651,1046 -800,2339 409,3049 981,576 2326,205 2869,-795 446,-822 80,-1546 -341,-2281 -104,-182 -122,-380 -76,-559 153,-595 602,-525 1073,-525l4068 0c0,-1546 -1,-3090 -1,-4636 -89,-369 -422,-608 -788,-572 -97,17 -196,51 -295,105 -307,166 -599,325 -894,423 -445,151 -901,174 -1392,-92 -999,-544 -1370,-1889 -793,-2869 711,-1209 2004,-1060 3050,-408 450,281 1018,21 1133,-461l0 -3988 0 -693c-9753,0 -17660,5581 -17660,12466 0,243 11,485 30,725z"/>
   <path class="fil9" d="M115958 10853c-1137,-37 -2050,-973 -2057,-2130l-18 0c-8,1157 -920,2093 -2060,2130 1143,38 2060,981 2060,2146l15 0c0,-1165 918,-2108 2060,-2146z"/>
   <path class="fil1" d="M25584 37178c0,284 2149,515 4800,515 2650,0 4799,-231 4799,-515 0,-285 -2149,-516 -4799,-516 -2651,0 -4800,231 -4800,516z"/>
   <path class="fil10" d="M36852 26231c0,0 330,97 546,-261 0,0 -449,59 -998,-341 -549,-400 -1375,204 -1247,912 128,709 885,213 885,213l432 -308 382 -215z"/>
   <path class="fil1" d="M36852 26231c-311,-283 -409,-58 -409,-58l-250 421 -252 -112 -10 -260c-166,-252 -323,104 -323,104l-458 -7 -278 159 90 1072 592 -315 526 260 317 -420 252 136 203 -980z"/>
   <path class="fil5" d="M31218 31527l-2003 -2271 4174 -2827c481,-326 1081,-421 1639,-259l0 0 33 1460 -831 1174 -3012 2723z"/>
   <path class="fil11" d="M34629 28107c0,0 -2,-195 58,-463l275 35c0,0 13,212 -58,463l-11 225c0,0 16,683 11,1250 -4,566 -307,2441 -307,2441l-355 506 -299 -491c0,0 294,-2119 643,-3631l43 -335z"/>
   <polygon class="fil5" points="28472,36693 28573,36965 29116,37175 27749,37165 27751,36798 "/>
   <polygon class="fil5" points="29064,29865 28432,34106 27672,36823 28368,37092 29544,34265 30921,29865 "/>
   <polygon class="fil5" points="32298,36693 32399,36965 32941,37175 31574,37165 31576,36798 "/>
   <polygon class="fil5" points="29616,31203 30921,32874 31505,36823 32384,36823 32258,32364 30770,28925 "/>
   <path class="fil1" d="M38719 28677c0,0 556,-31 652,292 96,322 -668,270 -668,270l16 -562z"/>
   <polygon class="fil5" points="34509,27059 36605,28264 38871,28653 38862,29263 36326,29058 33818,28495 "/>
   <path class="fil5" d="M29296 29263c0,0 -206,57 -316,1168 -102,1027 1660,-184 1660,-184l0 -750 -641 -363 -703 129z"/>
   <path class="fil12" d="M99199 27893c0,-1306 -1001,-1928 -2111,-2246 -101,-1903 -1358,-3168 -3306,-3168 -1776,0 -2938,1053 -3304,2735 -1361,197 -2670,909 -2670,2474 0,1351 1220,2450 2720,2450l6180 0c1374,0 2491,-1007 2491,-2245z"/>
   <path class="fil12" d="M100285 23557c91,-1418 2417,-1511 2769,-153 571,70 1119,321 1119,873 0,476 -511,864 -1139,864l-2590 0c-1146,0 -1559,-1246 -159,-1584z"/>
   <path class="fil13" d="M43114 7715c-1865,58 -3360,1591 -3373,3482l-32 0c-13,-1891 -1502,-3424 -3367,-3482 1872,-64 3373,-1604 3373,-3514l26 0c0,1910 1501,3450 3373,3514z"/>
   <g>
    <path class="fil1" d="M90273 18701c0,-3417 -2770,-6187 -6188,-6187 -3417,0 -6187,2770 -6187,6187 0,3417 2770,6187 6187,6187 3418,0 6188,-2770 6188,-6187z"/>
    <g>
     <path class="fil14" d="M81078 13992c-1475,851 -2359,2332 -2508,3904 -23,25 -28,65 -9,98l1 1c-73,974 136,1980 661,2889l35 60c-591,-2886 689,-5954 3386,-7511l73 -41c-562,100 -1116,298 -1639,600z"/>
     <path class="fil15" d="M87428 15068c1708,2959 694,6742 -2264,8450 -1154,666 -2432,917 -3664,801 1761,809 3873,782 5678,-261 2959,-1708 3973,-5492 2265,-8450 -1043,-1806 -2858,-2885 -4787,-3066 1124,517 2106,1373 2772,2526z"/>
    </g>
    <path class="fil16" d="M85254 20452l0 1167 -4670 0 0 -1167 4670 0zm-4670 -3503l0 -1168c2335,0 4670,0 7004,0l-1168 1168c-1944,0 -3890,0 -5836,0zm7004 1167c0,1168 0,2336 0,3503l-1168 0 0 -2335 -5836 0 0 -1168c2335,0 4670,0 7004,0z"/>
   </g>
   <path class="fil3" d="M73938 31054c0,-6880 -7916,-12458 -17660,-12466l0 4502c0,62 -8,122 -21,179l0 13c-119,478 -683,735 -1131,456 -1046,-652 -2339,-800 -3050,409 -576,980 -150,2302 851,2845 483,263 910,247 1331,107 300,-103 594,-263 890,-432 98,-55 199,-86 300,-96 383,-66 722,146 808,563l0 8c14,58 22,118 22,181l0 4329 711 0 3271 0c539,0 1269,24 1204,-789 1,-126 -30,-256 -100,-378 -269,-472 -516,-940 -540,-1432 -3,-254 55,-515 203,-787 543,-1000 1888,-1371 2868,-795 621,366 884,885 904,1445 2,512 -192,1055 -497,1544 -95,151 -128,316 -112,473 14,648 505,719 996,719l8724 0 7 -1c14,-198 21,-397 21,-597z"/>
   <path class="fil1" d="M74641 37178c0,250 2149,454 4799,454 2651,0 4800,-204 4800,-454 0,-251 -2149,-455 -4800,-455 -2650,0 -4799,204 -4799,455z"/>
   <polygon class="fil5" points="80480,31033 78301,33453 78856,36826 77977,36826 76879,33001 79591,28927 "/>
   <path class="fil10" d="M73806 27936c0,0 -322,123 -566,-216 0,0 452,23 967,-420 515,-443 1387,92 1317,809 -71,716 -865,283 -865,283l-455 -272 -398 -184z"/>
   <path class="fil1" d="M73806 27936c287,-307 402,-90 402,-90l284 399 242 -132 -11 -261c145,-263 330,78 330,78l456 -43 290 135 112 1112 -731 -302 -503 302 -350 -393 -240 155 -281 -960z"/>
   <path class="fil5" d="M79582 32055l2014 -2397 -4407 -1834c-538,-219 -1145,-187 -1657,87l0 0 272 1435 1056 976 2722 1733z"/>
   <path class="fil11" d="M76412 29507c0,0 -50,-188 -179,-430l-256 106c0,0 44,209 179,431l71 215c0,0 166,662 322,1207 155,545 946,2271 946,2271l477 394 157 -554c0,0 -847,-1964 -1587,-3328l-130 -312z"/>
   <polygon class="fil5" points="82489,36695 82388,36968 81845,37177 83213,37168 83210,36800 "/>
   <polygon class="fil5" points="78063,36695 77962,36968 77419,37177 78787,37168 78784,36800 "/>
   <path class="fil1" d="M73395 32431c0,0 -496,165 -441,440 55,276 640,-5 640,-5l-199 -435z"/>
   <polygon class="fil5" points="76440,28694 75245,30865 73276,32413 73527,32968 75702,31726 77419,29754 "/>
   <path class="fil5" d="M79995 30232l-10 -7 55 -357c0,0 366,-412 1061,-210 696,201 645,901 645,901l-805 3695 2348 2572 -696 269 -3153 -2401 555 -4462z"/>
  </g>
 </g>
</svg>
