<?xml version="1.0" encoding="UTF-8"?>
<!DOCTYPE svg PUBLIC "-//W3C//DTD SVG 1.1//EN" "http://www.w3.org/Graphics/SVG/1.1/DTD/svg11.dtd">
<!-- Creator: CorelDRAW X7 -->
<svg xmlns="http://www.w3.org/2000/svg" xml:space="preserve" width="9.57984in" height="5.08448in" version="1.1" style="shape-rendering:geometricPrecision; text-rendering:geometricPrecision; image-rendering:optimizeQuality; fill-rule:evenodd; clip-rule:evenodd"
viewBox="0 0 95798 50845"
 xmlns:xlink="http://www.w3.org/1999/xlink">
 <defs>
  <style type="text/css">
   <![CDATA[
    .fil3 {fill:#536896}
    .fil19 {fill:#9F9CCB}
    .fil17 {fill:#A9A6D0}
    .fil15 {fill:#BBB8DA}
    .fil13 {fill:#CEB486}
    .fil16 {fill:#D3D0E7}
    .fil11 {fill:#DFC9A1}
    .fil2 {fill:#E7D4B0}
    .fil1 {fill:#EFE2C9}
    .fil12 {fill:#F0E8DB}
    .fil0 {fill:#F7F2E7}
    .fil14 {fill:white}
    .fil4 {fill:#7875A3;fill-rule:nonzero}
    .fil8 {fill:#8480BC;fill-rule:nonzero}
    .fil6 {fill:#9F9CCB;fill-rule:nonzero}
    .fil5 {fill:#A9A6D0;fill-rule:nonzero}
    .fil7 {fill:#BBB8DA;fill-rule:nonzero}
    .fil10 {fill:#CEB486;fill-rule:nonzero}
    .fil21 {fill:#DFC9A1;fill-rule:nonzero}
    .fil22 {fill:#E7D4B0;fill-rule:nonzero}
    .fil9 {fill:#EFE2C9;fill-rule:nonzero}
    .fil20 {fill:#F7F2E7;fill-rule:nonzero}
    .fil23 {fill:#F9F4EB;fill-rule:nonzero}
    .fil18 {fill:white;fill-rule:nonzero}
   ]]>
  </style>
 </defs>
 <g id="Layer_x0020_1">
  <metadata id="CorelCorpID_0Corel-Layer"/>
  <g id="_1759348582112">
   <g>
    <path class="fil0" d="M70173 50845l25625 0 0 -39161c-2579,451 -4528,19 -6274,-854 -2405,-1202 -4500,-2799 -6600,-4280 -8635,-6089 -18170,-6228 -22633,4878 -1291,3213 -2485,8358 -5410,10679 -3371,2676 -7713,164 -10738,-1922 -1550,-1069 -4141,-2838 -5708,-3517 -2,3033 28579,32269 31738,34177z"/>
    <path class="fil1" d="M95798 26871c-11298,5151 -11648,-11173 -22479,-12999 -12598,-2125 -13251,19184 -29255,6249 -2534,-2048 -5264,-4298 -8338,-5521 -9356,-3722 -17491,4020 -15408,11789 1409,5256 6567,8165 11659,8100 5857,-74 8273,1364 8512,3404 508,4345 -6748,9142 -13417,12952l56400 0c1685,-4733 6907,-5142 12326,-5831l0 -18143z"/>
    <path class="fil2" d="M33480 34348c2211,-335 4116,-222 5709,153 9590,2258 6014,10298 1626,16344l54983 0 0 -9583c-8117,-709 -12517,5033 -16609,-5216 -2455,-6145 -11154,-10842 -18948,-7013 -1610,791 -2917,1900 -4420,2810 -3613,2187 -6762,2008 -9790,-741 -1315,-1195 -2324,-2568 -3339,-3937 -9879,-13341 -28326,-9099 -20903,2414 1984,3078 6431,5565 11691,4769z"/>
    <polygon class="fil3" points="69426,9673 69585,9580 69426,9486 "/>
   </g>
   <path class="fil4" d="M61560 44949c-15,17 -46,16 -62,-1 -367,-392 -409,-925 -143,-1225 87,-97 269,-92 351,10 269,337 225,822 -146,1216zm-1704 0c-16,17 -47,16 -62,-1 -367,-392 -409,-925 -143,-1225 86,-97 269,-92 350,10 270,337 226,822 -145,1216zm-1705 0c-15,17 -46,16 -62,-1 -367,-392 -409,-925 -143,-1225 87,-97 269,-92 351,10 269,337 225,822 -146,1216zm-1704 0c-16,17 -47,16 -62,-1 -367,-392 -409,-925 -143,-1225 86,-97 269,-92 350,10 270,337 226,822 -145,1216zm-1705 0c-15,17 -46,16 -62,-1 -367,-392 -409,-925 -143,-1225 87,-97 269,-92 351,10 269,337 225,822 -146,1216zm-1704 0c-16,17 -47,16 -62,-1 -367,-392 -409,-925 -143,-1225 86,-97 269,-92 350,10 270,337 226,822 -145,1216zm-1704 0c-16,17 -47,16 -63,-1 -367,-392 -409,-925 -142,-1225 86,-97 269,-92 350,10 269,337 225,822 -145,1216zm-1705 0c-15,17 -47,16 -62,-1 -367,-392 -409,-925 -143,-1225 86,-97 269,-92 350,10 270,337 226,822 -145,1216zm-1704 0c-16,17 -47,16 -63,-1 -367,-392 -409,-925 -142,-1225 86,-97 269,-92 350,10 269,337 225,822 -145,1216zm-1705 0c-15,17 -47,16 -62,-1 -367,-392 -409,-925 -143,-1225 86,-97 269,-92 350,10 270,337 226,822 -145,1216zm-1704 0c-16,17 -47,16 -63,-1 -367,-392 -409,-925 -142,-1225 86,-97 269,-92 350,10 269,337 225,822 -145,1216zm-1705 0c-15,17 -47,16 -62,-1 -367,-392 -409,-925 -143,-1225 86,-97 269,-92 350,10 270,337 226,822 -145,1216zm-1704 0c-16,17 -47,16 -63,-1 -367,-392 -409,-925 -142,-1225 86,-97 269,-92 350,10 269,337 225,822 -145,1216zm-1705 0c-15,17 -46,16 -62,-1 -367,-392 -409,-925 -143,-1225 86,-97 269,-92 350,10 270,337 226,822 -145,1216zm-1704 0c-16,17 -47,16 -63,-1 -367,-392 -409,-925 -142,-1225 86,-97 269,-92 350,10 270,337 225,822 -145,1216zm-1705 0c-15,17 -46,16 -62,-1 -367,-392 -409,-925 -143,-1225 86,-97 269,-92 351,10 269,337 225,822 -146,1216zm-1704 0c-16,17 -47,16 -63,-1 -367,-392 -408,-925 -142,-1225 86,-97 269,-92 350,10 270,337 225,822 -145,1216zm-1705 0c-15,17 -46,16 -62,-1 -367,-392 -409,-925 -143,-1225 86,-97 269,-92 351,10 269,337 225,822 -146,1216zm-1704 0c-16,17 -47,16 -63,-1 -367,-392 -408,-925 -142,-1225 86,-97 269,-92 350,10 270,337 225,822 -145,1216zm-1705 0c-15,17 -46,16 -62,-1 -367,-392 -409,-925 -143,-1225 86,-97 269,-92 351,10 269,337 225,822 -146,1216zm-1704 0c-16,17 -47,16 -63,-1 -367,-392 -408,-925 -142,-1225 86,-97 269,-92 350,10 270,337 225,822 -145,1216zm-1705 0c-15,17 -46,16 -62,-1 -367,-392 -409,-925 -143,-1225 86,-97 269,-92 351,10 269,337 225,822 -146,1216zm-1704 0c-16,17 -47,16 -62,-1 -368,-392 -409,-925 -143,-1225 86,-97 269,-92 350,10 270,337 225,822 -145,1216zm-1705 0c-15,17 -46,16 -62,-1 -367,-392 -409,-925 -143,-1225 87,-97 269,-92 351,10 269,337 225,822 -146,1216zm-1704 0c-16,17 -47,16 -62,-1 -368,-392 -409,-925 -143,-1225 86,-97 269,-92 350,10 270,337 225,822 -145,1216zm-1705 0c-15,17 -46,16 -62,-1 -367,-392 -409,-925 -143,-1225 87,-97 269,-92 351,10 269,337 225,822 -146,1216zm-1704 0c-16,17 -47,16 -62,-1 -367,-392 -409,-925 -143,-1225 86,-97 269,-92 350,10 270,337 225,822 -145,1216zm-1705 0c-15,17 -46,16 -62,-1 -367,-392 -409,-925 -143,-1225 87,-97 269,-92 351,10 269,337 225,822 -146,1216zm-1704 0c-16,17 -47,16 -62,-1 -367,-392 -409,-925 -143,-1225 86,-97 269,-92 350,10 270,337 226,822 -145,1216zm-1705 0c-15,17 -46,16 -62,-1 -367,-392 -409,-925 -143,-1225 87,-97 269,-92 351,10 269,337 225,822 -146,1216zm50321 399l0 -99c-264,46 -517,-15 -777,-158 -19,-10 -15,-31 -2,-46 316,-340 383,-725 274,-1136 -25,-96 -73,-196 -142,-278 -185,-221 -422,-208 -572,29 -305,480 -202,937 148,1372 11,13 10,31 -4,41 -206,155 -406,211 -609,187l0 -11c-305,46 -528,-15 -788,-158 -19,-10 -23,-31 -9,-46 315,-340 381,-725 272,-1136 -25,-96 -74,-196 -142,-278 -186,-221 -424,-208 -574,29 -305,480 -203,937 146,1372 11,13 3,31 -11,41 -206,155 -396,211 -619,187l0 -11c-264,46 -518,-15 -778,-158 -18,-10 -14,-31 -1,-46 316,-340 383,-725 274,-1136 -25,-96 -73,-196 -142,-278 -185,-221 -422,-208 -572,29 -305,480 -202,937 148,1372 10,13 10,31 -4,41 -206,155 -407,211 -610,187l0 -11c-304,46 -527,-15 -787,-158 -19,-10 -23,-31 -9,-46 315,-340 382,-725 273,-1136 -26,-96 -75,-196 -143,-278 -186,-221 -424,-208 -574,29 -305,480 -203,937 146,1372 11,13 3,31 -11,41 -206,155 -397,211 -620,187l0 -11c-264,46 -517,-15 -777,-158 -19,-10 -14,-31 -1,-46 316,-340 383,-725 274,-1136 -25,-96 -73,-196 -142,-278 -185,-221 -422,-208 -572,29 -305,480 -202,937 147,1372 11,13 10,31 -4,41 -206,155 -407,211 -610,187l0 -11c-304,46 -527,-15 -787,-158 -18,-10 -22,-31 -8,-46 315,-340 382,-725 273,-1136 -26,-96 -75,-196 -143,-278 -186,-221 -424,-208 -574,29 -305,480 -204,937 146,1372 10,13 3,31 -11,41 -206,155 -398,211 -621,187l0 -11c-264,46 -516,-15 -776,-158 -19,-10 -14,-31 0,-46 315,-340 383,-725 273,-1136 -25,-96 -73,-196 -142,-278 -185,-221 -422,-208 -572,29 -305,480 -202,937 147,1372 11,13 10,31 -4,41 -206,155 -408,211 -611,187l0 -11c-304,46 -526,-15 -786,-158 -19,-10 -21,-31 -8,-46 316,-340 382,-725 273,-1136 -25,-96 -74,-196 -142,-278 -185,-221 -422,-208 -572,29 -305,480 -201,937 149,1372 10,13 6,31 -8,41 -205,155 -407,211 -610,187l0 -11c-285,46 -527,-15 -787,-158 -18,-10 -24,-31 -10,-46 315,-340 383,-725 274,-1136 -26,-96 -74,-196 -142,-278 -185,-221 -423,-208 -573,29 -304,480 -202,937 148,1372 10,13 0,31 -15,41 -205,155 -397,211 -621,187l0 -11c-284,46 -515,-15 -775,-158 -19,-10 -16,-31 -3,-46 316,-340 385,-725 276,-1136 -26,-96 -73,-196 -141,-278 -185,-221 -422,-208 -572,29 -305,480 -201,937 149,1372 11,13 7,31 -7,41 -206,155 -408,211 -611,187l0 -11c-284,46 -526,-15 -786,-158 -19,-10 -24,-31 -10,-46 315,-340 383,-725 274,-1136 -26,-96 -74,-196 -142,-278 -185,-221 -423,-208 -573,29 -304,480 -202,937 148,1372 10,13 -1,31 -15,41 -206,155 -398,211 -621,187l0 -11c-284,46 -516,-15 -776,-158 -18,-10 -15,-31 -1,-46 315,-340 384,-725 275,-1136 -26,-96 -73,-196 -141,-278 -185,-221 -422,-208 -572,29 -305,480 -201,937 149,1372 10,13 7,31 -8,41 -205,155 -408,211 -611,187l0 -11c-284,46 -525,-15 -785,-158 -19,-10 -23,-31 -10,-46 315,-340 383,-725 274,-1136 -25,-96 -74,-196 -142,-278 -185,-221 -423,-208 -573,29 -305,480 -202,937 147,1372 11,13 0,31 -14,41 -206,155 -399,211 -622,187l0 -11c-284,46 -515,-15 -775,-158 -19,-10 -15,-31 -1,-46 315,-340 384,-725 275,-1136 -26,-96 -73,-196 -141,-278 -185,-221 -422,-208 -572,29 -305,480 -201,937 148,1372 11,13 7,31 -7,41 -206,155 -409,211 -612,187l0 -11c-284,46 -525,-15 -785,-158 -18,-10 -22,-31 -9,-46 316,-340 383,-725 274,-1136 -25,-96 -74,-196 -142,-278 -185,-221 -423,-208 -573,29 -305,480 -203,937 147,1372 11,13 -1,31 -15,41 -205,155 -399,211 -622,187l0 -11c-284,46 -514,-15 -774,-158 -19,-10 -15,-31 -1,-46 315,-340 384,-725 275,-1136 -26,-96 -73,-196 -141,-278 -185,-221 -422,-208 -572,29 -305,480 -201,937 148,1372 11,13 7,31 -7,41 -206,155 -410,211 -612,187l0 -11c-285,46 -525,-15 -785,-158 -19,-10 -22,-31 -9,-46 316,-340 383,-725 274,-1136 -25,-96 -74,-196 -142,-278 -185,-221 -423,-208 -573,29 -305,480 -203,937 147,1372 10,13 -1,31 -15,41 -206,155 -399,211 -623,187l0 -11c-263,46 -514,-15 -774,-158 -19,-10 -13,-31 0,-46 315,-340 384,-725 275,-1136 -25,-96 -73,-196 -141,-278 -185,-221 -422,-208 -572,29 -305,480 -202,937 148,1372 10,13 7,31 -8,41 -205,155 -430,211 -612,187l0 -11c-284,46 -525,-15 -784,-158 -19,-10 -22,-31 -9,-46 316,-340 383,-725 274,-1136 -25,-96 -74,-196 -142,-278 -185,-221 -423,-208 -573,29 -305,480 -203,937 146,1372 11,13 0,31 -14,41 -206,155 -400,211 -623,187l0 -11c-264,46 -514,-15 -774,-158 -19,-10 -13,-31 0,-46 316,-340 384,-725 275,-1136 -25,-96 -73,-196 -141,-278 -185,-221 -422,-208 -573,29 -304,480 -201,937 149,1372 10,13 6,31 -8,41 -206,155 -390,211 -613,187l0 -11c-284,46 -524,-15 -784,-158 -19,-10 -21,-31 -7,-46 315,-340 382,-725 273,-1136 -25,-96 -74,-196 -142,-278 -185,-221 -423,-208 -573,29 -305,480 -204,937 146,1372 11,13 -1,31 -15,41 -206,155 -400,211 -623,187l0 -11c-264,46 -514,-15 -774,-158 -18,-10 -12,-31 1,-46 316,-340 384,-725 275,-1136 -25,-96 -73,-196 -141,-278 -185,-221 -423,-208 -573,29 -304,480 -201,937 148,1372 11,13 7,31 -7,41 -206,155 -390,211 -614,187l0 -11c-284,46 -523,-15 -783,-158 -19,-10 -21,-31 -7,-46 315,-340 382,-725 273,-1136 -25,-96 -74,-196 -142,-278 -185,-221 -423,-208 -573,29 -305,480 -204,937 146,1372 10,13 -1,31 -15,41 -206,155 -401,211 -624,187l0 -11c-264,46 -513,-15 -773,-158 -19,-10 -12,-31 1,-46 316,-340 384,-725 275,-1136 -25,-96 -73,-196 -141,-278 -185,-221 -423,-208 -573,29 -304,480 -202,937 148,1372 11,13 6,31 -8,41 -206,155 -390,211 -613,187l0 -11c-285,46 -523,-15 -783,-158 -19,-10 -20,-31 -7,-46 316,-340 383,-725 274,-1136 -25,-96 -73,-196 -142,-278 -185,-221 -421,-208 -572,29 -304,480 -200,937 149,1372 11,13 4,31 -10,41 -206,155 -411,211 -614,187l0 -11c-285,46 -523,-15 -783,-158 -19,-10 -23,-31 -9,-46 315,-340 384,-725 275,-1136 -26,-96 -73,-196 -142,-278 -185,-221 -422,-208 -572,29 -305,480 -202,937 148,1372 10,13 6,31 -8,41 -206,155 -391,211 -614,187l0 -11c-284,46 -523,-15 -783,-158 -18,-10 -19,-31 -6,-46 316,-340 383,-725 274,-1136 -25,-96 -73,-196 -142,-278 -185,-221 -422,-208 -572,29 -304,480 -200,937 149,1372 11,13 4,31 -11,41 -205,155 -411,211 -614,187l0 -11c-284,46 -523,-15 -783,-158 -18,-10 -22,-31 -8,-46 315,-340 384,-725 275,-1136 -26,-96 -73,-196 -142,-278 -185,-221 -422,-208 -572,29 -305,480 -202,937 147,1372 11,13 7,31 -7,41 -206,155 -392,211 -615,187l0 -11c-284,46 -522,-15 -782,-158 -19,-10 -19,-31 -5,-46 315,-340 382,-725 273,-1136 -25,-96 -73,-196 -142,-278 -185,-221 -422,-208 -572,29 -304,480 -201,937 149,1372 11,13 3,31 -11,41 -206,155 -412,211 -615,187l0 -11c-284,46 -522,-15 -782,-158 -19,-10 -21,-31 -8,-46 315,-340 384,-725 275,-1136 -26,-96 -73,-196 -142,-278 -185,-221 -422,-208 -572,29 -305,480 -203,937 147,1372 11,13 6,31 -8,41 -206,155 -391,211 -615,187l0 -11c-304,46 -522,-15 -782,-158 -18,-10 -18,-31 -4,-46 315,-340 382,-725 273,-1136 -25,-96 -73,-196 -142,-278 -185,-221 -422,-208 -572,29 -305,480 -201,937 149,1372 10,13 3,31 -11,41 -206,155 -413,211 -616,187l0 84c832,-83 1218,78 1705,4l0 -4c853,-83 1198,78 1705,4l0 -4c832,-83 1218,78 1705,4l0 -4c852,-83 1197,78 1705,4l0 -4c832,-83 1197,78 1705,4l0 -4c852,-83 1197,78 1705,4l0 -4c832,-83 1197,78 1705,4l0 -4c852,-83 1197,78 1684,4l0 -4c853,-83 1218,78 1725,4l0 -4c853,-83 1198,78 1685,4l0 -4c852,-83 1218,78 1725,4l0 -4c852,-83 1218,78 1685,4l0 -4c852,-83 1217,78 1725,4l0 -4c852,-83 1218,78 1684,4l0 -4c853,-83 1218,78 1726,4l0 -4c852,-83 1217,78 1684,4l0 -4c853,-83 1218,78 1725,4l0 -4c832,-83 1218,78 1685,4l0 -4c852,-83 1218,78 1725,4l0 -4c832,-83 1218,78 1685,4l0 -4c852,-83 1217,78 1725,4l0 -4c832,-83 1218,78 1684,4l0 -4c853,-83 1218,78 1726,4l0 -4c832,-83 1177,78 1704,4l0 -4c833,-83 1198,78 1685,4l0 -4c852,-83 1218,78 1725,4l0 -4c832,-83 1198,78 1685,4l0 -4c852,-83 1218,78 1725,4l0 -4c832,-83 1197,78 1685,4l0 -4c852,-83 1217,78 1725,4l0 -4c832,-83 1197,78 1684,4z"/>
   <polygon class="fil5" points="64209,35498 61688,35498 61688,33831 64209,33831 "/>
   <polygon class="fil5" points="69897,35498 67376,35498 67376,33831 69897,33831 "/>
   <polygon class="fil6" points="74217,45574 57357,45574 57357,41732 74217,41732 "/>
   <polygon class="fil7" points="69898,36019 65790,36016 61688,36019 57359,41737 65790,41737 74233,41737 "/>
   <polygon class="fil7" points="69897,35130 61688,35130 61688,36040 69897,36040 "/>
   <polygon class="fil5" points="57739,41585 69897,36036 61686,36036 57359,41737 "/>
   <polygon class="fil8" points="57366,45560 74233,41737 57361,41737 57357,45574 "/>
   <path class="fil7" d="M11161 29912c-474,1125 -956,2248 -1437,3370 -226,526 -478,648 -1026,499 -274,-75 -547,-150 -837,-230 -208,-57 -424,-117 -654,-180 -194,1244 -297,2485 -309,3710 27,1224 146,2461 356,3704 173,-51 338,-99 498,-145 346,-101 667,-195 988,-286 545,-156 799,-38 1032,485 495,1116 991,2233 1479,3352 160,368 64,487 -215,776 -503,520 -1078,641 -1691,599 -203,-13 -410,-45 -619,-86 -889,-171 -1834,-300 -2535,-880 -195,-161 -401,-562 -453,-682 -792,-1830 -1234,-3340 -1473,-5325 -60,-500 -96,-987 -110,-1495 7,-508 37,-998 91,-1498 214,-1988 637,-3504 1406,-5345 50,-120 251,-524 444,-687 694,-589 1637,-731 2523,-913 419,-86 825,-136 1211,-81 392,56 764,220 1106,565 283,286 380,403 225,773z"/>
   <path class="fil6" d="M11161 29912c-474,1125 -956,2248 -1437,3370 -226,526 -478,648 -1026,499 -274,-75 -547,-150 -837,-230 180,-761 716,-2691 1969,-4977 392,56 764,220 1106,565 283,286 380,403 225,773z"/>
   <path class="fil6" d="M9772 40839c495,1116 991,2233 1479,3352 160,368 64,487 -215,776 -503,520 -1078,641 -1691,599 -457,-898 -1155,-2553 -1593,-4926 346,-101 667,-195 988,-286 545,-156 799,-38 1032,485z"/>
   <g>
    <path class="fil9" d="M76964 12705c-1569,-906 -2107,-2913 -1201,-4482l-565 -327c-1086,1882 -441,4287 1440,5374l326 -565z"/>
    <path class="fil10" d="M78590 13340l-1064 -615c-292,-168 -666,-68 -835,224l-47 81c-168,293 -68,666 224,835l1064 614c292,169 666,69 835,-223l47 -81c169,-292 68,-666 -224,-835z"/>
    <path class="fil9" d="M77003 6156l1349 -2337c1458,-2526 4687,-3391 7213,-1933 2526,1458 3391,4688 1933,7213l-1349 2337 1004 580 1360 -2354c1778,-3081 723,-7020 -2358,-8798 -3080,-1779 -7019,-723 -8798,2357l-1359 2355 1005 580z"/>
    <path class="fil9" d="M88726 12374c23,360 -80,537 -207,757l-246 428 -247 427c-127,220 -229,397 -552,557l-473 168 817 -1415 817 -1415 91 493z"/>
    <path class="fil10" d="M85089 14518l539 311c541,312 1232,127 1544,-414l1292 -2238c312,-541 127,-1232 -413,-1544l-539 -312c-541,-312 -1232,-126 -1544,414l-1293 2239c-312,541 -127,1232 414,1544z"/>
    <path class="fil9" d="M74821 4346c-322,161 -425,338 -552,558l-246 427 -247 427c-127,220 -229,398 -207,758l91 492 817 -1414 817 -1415 -473 167z"/>
    <path class="fil10" d="M74783 8568l-539 -311c-541,-313 -726,-1004 -414,-1545l1293 -2238c312,-541 1003,-726 1544,-414l539 311c540,312 725,1004 413,1544l-1292 2239c-312,541 -1004,726 -1544,414z"/>
   </g>
   <g>
    <path class="fil11" d="M35431 23195c0,-2834 -2298,-5132 -5132,-5132 -2835,0 -5132,2298 -5132,5132 0,2834 2297,5132 5132,5132 2834,0 5132,-2298 5132,-5132z"/>
    <g>
     <path class="fil12" d="M27804 19289c-1223,706 -1956,1934 -2080,3239 -19,21 -23,53 -7,81l0 1c-60,808 113,1642 548,2396l30 50c-491,-2395 571,-4939 2808,-6231l60 -34c-466,83 -925,248 -1359,498z"/>
     <path class="fil13" d="M33071 20181c1417,2455 576,5593 -1878,7010 -956,552 -2017,760 -3039,664 1461,671 3213,648 4710,-216 2455,-1417 3296,-4555 1879,-7010 -865,-1497 -2371,-2393 -3971,-2542 933,428 1747,1138 2299,2094z"/>
    </g>
    <path class="fil14" d="M31268 24648l0 967 -3873 0 0 -967 3873 0zm-3873 -2906l0 -969c1936,0 3873,0 5809,0l-969 969c-1612,0 -3226,0 -4840,0zm5809 968c0,969 0,1938 0,2905l-969 0 0 -1936 -4840 0 0 -969c1936,0 3873,0 5809,0z"/>
   </g>
   <g>
    <g>
     <path class="fil15" d="M61141 20785c2895,-5013 1177,-11423 -3836,-14317 -5013,-2894 -11423,-1176 -14317,3836 -2894,5013 -1176,11423 3836,14317 5013,2895 11423,1177 14317,-3836z"/>
     <g>
      <path class="fil16" d="M51641 6089c-2884,1 -5435,1424 -6985,3605 -56,17 -96,71 -96,135l0 2c-933,1368 -1478,3019 -1478,4798l1 119c1577,-4736 6053,-8152 11330,-8152l140 1c-909,-328 -1889,-508 -2912,-508z"/>
      <path class="fil17" d="M60045 13046c0,5787 -4692,10479 -10479,10479 -2255,0 -4343,-715 -6052,-1927 1898,2677 5019,4426 8551,4426 5787,0 10479,-4692 10479,-10479 0,-3532 -1749,-6653 -4426,-8552 1212,1710 1927,3798 1927,6053z"/>
     </g>
    </g>
    <g>
     <path class="fil18" d="M57056 11289c-118,-352 -390,-651 -816,-897 -352,-203 -714,-314 -1087,-331 -372,-18 -710,49 -1014,201 -304,152 -541,376 -712,672 -193,334 -230,676 -112,1028 118,352 394,654 829,905 352,203 711,315 1076,334 365,20 701,-49 1007,-205 307,-157 543,-378 709,-666 197,-342 237,-689 120,-1041z"/>
     <path class="fil18" d="M51348 20713c0,0 -1575,-229 -1079,-820l3746 -4463c467,-556 318,-1399 -311,-1762l-1392 -803 -138 -80 -908 -524 -252 267c0,0 889,579 291,1291 -1360,1621 -3840,4576 -3843,4579 -333,397 -440,946 -282,1439 237,738 936,1102 1648,1258 238,52 2438,279 2439,271l81 -653z"/>
    </g>
   </g>
   <path class="fil19" d="M62310 38635c0,1204 1612,2181 3601,2181 1989,0 3602,-977 3602,-2181 0,-1205 -1613,-2181 -3602,-2181 -1989,0 -3601,976 -3601,2181z"/>
   <path class="fil8" d="M69393 38395c0,1205 -1612,2181 -3602,2181 -1989,0 -3601,-976 -3601,-2181 0,-1204 1612,-2181 3601,-2181 1990,0 3602,977 3602,2181z"/>
   <path class="fil20" d="M68335 38395c0,851 -1139,1541 -2544,1541 -1404,0 -2543,-690 -2543,-1541 0,-850 1139,-1540 2543,-1540 1405,0 2544,690 2544,1540z"/>
   <g>
    <path class="fil21" d="M85212 20875c-1395,-496 -2935,-392 -4577,311 -1641,702 -2788,1747 -3409,3104 -539,1180 -593,2443 -160,3754 73,221 236,402 449,498 212,96 456,98 670,7l977 -419c391,-167 593,-600 470,-1007 -218,-722 -194,-1359 72,-1947 323,-712 964,-1277 1905,-1680 939,-402 1789,-462 2527,-179 736,283 1308,893 1702,1813 543,1269 545,2279 7,3003 -567,762 -1662,1484 -3256,2147l-423 181c-423,181 -619,671 -438,1094l1576 3684c88,205 250,363 456,446 207,82 433,80 638,-8l991 -424c80,-34 152,-80 215,-133 268,-231 370,-618 223,-961l-1020 -2386c-13,-29 0,-64 29,-77 1827,-840 3071,-1858 3698,-3025 666,-1242 631,-2743 -105,-4463 -733,-1713 -1815,-2834 -3217,-3333z"/>
    <path class="fil21" d="M85256 36146c-454,194 -776,522 -957,973 -181,451 -174,910 20,1365 195,455 522,777 974,957 451,181 910,174 1365,-20 180,-77 339,-175 477,-294 210,-180 371,-407 480,-679 181,-452 174,-911 -20,-1365 -195,-454 -522,-777 -974,-958 -451,-181 -911,-174 -1365,21z"/>
    <path class="fil13" d="M84094 21834c1402,499 2484,1621 3217,3334 736,1720 771,3221 104,4462 -192,359 -443,703 -751,1033 855,-603 1481,-1269 1870,-1992 666,-1241 631,-2743 -105,-4463 -733,-1713 -1815,-2834 -3217,-3333 -1395,-496 -2935,-392 -4577,311 -1016,435 -1843,1001 -2472,1691 405,-275 857,-519 1354,-732 1642,-702 3182,-807 4577,-311z"/>
    <path class="fil13" d="M85853 36471c452,181 779,503 974,957 194,455 201,914 20,1365 -109,273 -270,500 -480,680 -25,22 -52,43 -79,64 123,-25 247,-63 370,-116 180,-77 339,-175 478,-294 209,-180 370,-407 479,-679 181,-452 174,-911 -20,-1366 -194,-453 -522,-776 -974,-957 -451,-181 -911,-174 -1365,21 -146,62 -279,139 -398,229 333,-67 666,-36 995,96z"/>
   </g>
   <path class="fil22" d="M4249 26621c-1170,36 -2108,999 -2116,2185l-20 0c-8,-1186 -942,-2148 -2113,-2185 1175,-40 2117,-1006 2117,-2204l16 0c0,1198 942,2164 2116,2204z"/>
   <path class="fil23" d="M72201 22556c-1856,57 -3343,1582 -3356,3463l-32 0c-13,-1881 -1493,-3406 -3349,-3463 1862,-64 3356,-1596 3356,-3496l25 0c0,1900 1493,3432 3356,3496z"/>
  </g>
 </g>
</svg>
