<?xml version="1.0" encoding="UTF-8"?>
<!DOCTYPE svg PUBLIC "-//W3C//DTD SVG 1.1//EN" "http://www.w3.org/Graphics/SVG/1.1/DTD/svg11.dtd">
<!-- Creator: CorelDRAW X7 -->
<svg xmlns="http://www.w3.org/2000/svg" xml:space="preserve" width="0.977551in" height="0.924016in" version="1.1" style="shape-rendering:geometricPrecision; text-rendering:geometricPrecision; image-rendering:optimizeQuality; fill-rule:evenodd; clip-rule:evenodd"
viewBox="0 0 9776 9240"
 xmlns:xlink="http://www.w3.org/1999/xlink">
 <defs>
  <style type="text/css">
   <![CDATA[
    .fil0 {fill:#E6D2AE;fill-rule:nonzero}
   ]]>
  </style>
 </defs>
 <g id="Layer_x0020_1">
  <metadata id="CorelCorpID_0Corel-Layer"/>
  <g id="_2124397033536">
   <path class="fil0" d="M7812 9240l-5848 0c-541,0 -1032,-220 -1388,-576 -354,-355 -576,-846 -576,-1386l0 -5314c0,-541 222,-1032 576,-1388 356,-356 847,-576 1388,-576l5848 0c540,0 1032,220 1388,576 356,356 575,847 575,1388l0 5314c0,540 -219,1031 -575,1386 -356,356 -848,576 -1388,576zm-5848 -534l5848 0c393,0 750,-161 1009,-420 259,-259 421,-616 421,-1008l0 -5314c0,-393 -162,-751 -421,-1010 -259,-259 -616,-419 -1009,-419l-5848 0c-393,0 -751,160 -1010,419 -259,259 -419,616 -419,1010l0 5314c0,392 160,749 419,1008 259,259 616,420 1010,420z"/>
   <polygon class="fil0" points="1595,3141 4720,6267 4888,6436 5056,6267 8182,3141 7846,2806 4888,5764 1930,2806 "/>
  </g>
 </g>
</svg>
