<?xml version="1.0" encoding="UTF-8"?>
<!DOCTYPE svg PUBLIC "-//W3C//DTD SVG 1.1//EN" "http://www.w3.org/Graphics/SVG/1.1/DTD/svg11.dtd">
<!-- Creator: CorelDRAW X7 -->
<svg xmlns="http://www.w3.org/2000/svg" xml:space="preserve" width="0.763937in" height="0.763937in" version="1.1" style="shape-rendering:geometricPrecision; text-rendering:geometricPrecision; image-rendering:optimizeQuality; fill-rule:evenodd; clip-rule:evenodd"
viewBox="0 0 7639 7639"
 xmlns:xlink="http://www.w3.org/1999/xlink">
 <defs>
  <style type="text/css">
   <![CDATA[
    .fil1 {fill:none}
    .fil0 {fill:#8480BC}
   ]]>
  </style>
 </defs>
 <g id="Layer_x0020_1">
  <metadata id="CorelCorpID_0Corel-Layer"/>
  <g id="_2983138936464">
   <path class="fil0" d="M4022 4521c-83,96 -176,174 -280,232 -212,120 -434,114 -642,-12 -108,-67 -194,-169 -261,-307 -68,-138 -101,-290 -101,-455 0,-526 412,-1223 994,-1223 112,0 217,28 319,87 100,58 188,146 260,265l67 -298 342 0 -276 1288c-38,179 -58,278 -58,297 0,35 13,64 39,89 26,25 59,37 95,37 69,0 157,-38 268,-115 298,-209 473,-581 473,-942 0,-213 -54,-413 -163,-597 -245,-414 -745,-610 -1210,-610 -957,0 -1602,724 -1602,1651 0,580 243,1076 796,1308 489,205 1219,232 1699,-8 226,-113 395,-250 509,-412l345 0c-66,135 -177,272 -336,412 -158,138 -347,250 -565,331 -457,169 -1111,152 -1575,12 -240,-72 -444,-182 -613,-328 -381,-329 -542,-789 -542,-1285 0,-1112 749,-1959 1902,-1959 601,0 1147,234 1452,772 315,559 224,1234 -205,1706 -232,258 -486,386 -761,386 -244,0 -348,-86 -370,-322l0 0zm-931 -518c0,176 42,311 125,408 145,170 323,182 512,82 80,-44 155,-107 227,-191 73,-84 132,-192 178,-321 46,-130 69,-260 69,-390 0,-174 -43,-309 -129,-405 -87,-96 -192,-144 -316,-144 -319,0 -521,328 -604,599 -42,131 -62,252 -62,362l0 0z"/>
   <polygon class="fil1" points="0,0 7639,0 7639,7639 0,7639 "/>
  </g>
 </g>
</svg>
