<?xml version="1.0" encoding="UTF-8"?>
<!DOCTYPE svg PUBLIC "-//W3C//DTD SVG 1.1//EN" "http://www.w3.org/Graphics/SVG/1.1/DTD/svg11.dtd">
<!-- Creator: CorelDRAW X7 -->
<svg xmlns="http://www.w3.org/2000/svg" xml:space="preserve" width="0.653543in" height="0.653543in" version="1.1" style="shape-rendering:geometricPrecision; text-rendering:geometricPrecision; image-rendering:optimizeQuality; fill-rule:evenodd; clip-rule:evenodd"
viewBox="0 0 6535 6535"
 xmlns:xlink="http://www.w3.org/1999/xlink">
 <defs>
  <style type="text/css">
   <![CDATA[
    .fil0 {fill:none}
    .fil1 {fill:#AD915C;fill-rule:nonzero}
   ]]>
  </style>
 </defs>
 <g id="Layer_x0020_1">
  <metadata id="CorelCorpID_0Corel-Layer"/>
  <g id="_1305878308992">
   <rect class="fil0" width="6535" height="6535"/>
   <path class="fil1" d="M3106 5384l-205 0 0 -511c-147,-44 -282,-114 -389,-209 -93,-83 -169,-184 -220,-305 -47,-112 -74,-240 -74,-382l204 0c0,51 5,101 13,146 9,56 25,108 45,157 39,91 96,168 166,230 54,47 116,87 184,118 22,11 46,21 71,30l0 -1343c-129,-37 -254,-86 -367,-156 -66,-41 -123,-90 -170,-146 -116,-134 -172,-303 -177,-474 -4,-169 41,-341 133,-488 45,-73 101,-140 168,-197 114,-97 258,-166 413,-206l0 -497 205 0 0 4233 0 0zm323 -4233l205 0 0 509c151,45 289,114 400,209 100,86 181,191 236,316 50,118 79,251 79,401l-204 0c0,-74 -9,-142 -24,-204 -10,-41 -22,-79 -38,-115 -42,-96 -104,-177 -181,-243 -42,-36 -88,-67 -138,-93 -41,-23 -85,-41 -130,-57l0 1404c127,36 246,83 355,150 49,30 93,64 133,103 41,41 77,85 107,136 91,157 113,350 79,531 -35,185 -129,361 -267,481 -113,99 -254,167 -407,207l0 497 -205 0 0 -4232 0 0zm-528 1950l0 -1242c-106,33 -203,83 -281,150 -49,43 -92,94 -128,149 -70,113 -105,247 -101,376 3,126 44,250 128,347 33,40 74,75 123,105 78,49 166,86 259,115l0 0 0 0zm736 1573c102,-34 195,-83 271,-148 102,-90 173,-223 200,-366 25,-135 10,-277 -56,-391 -20,-34 -44,-65 -72,-92 -28,-27 -62,-53 -98,-76 -66,-40 -139,-72 -215,-98 -11,-4 -22,-8 -33,-11l0 1183 3 -1 0 0z"/>
  </g>
 </g>
</svg>
