<?xml version="1.0" encoding="UTF-8"?>
<!DOCTYPE svg PUBLIC "-//W3C//DTD SVG 1.1//EN" "http://www.w3.org/Graphics/SVG/1.1/DTD/svg11.dtd">
<!-- Creator: CorelDRAW X7 -->
<svg xmlns="http://www.w3.org/2000/svg" xml:space="preserve" width="0.763937in" height="0.763937in" version="1.1" style="shape-rendering:geometricPrecision; text-rendering:geometricPrecision; image-rendering:optimizeQuality; fill-rule:evenodd; clip-rule:evenodd"
viewBox="0 0 7639 7639"
 xmlns:xlink="http://www.w3.org/1999/xlink">
 <defs>
  <style type="text/css">
   <![CDATA[
    .fil1 {fill:none}
    .fil0 {fill:#8480BC}
   ]]>
  </style>
 </defs>
 <g id="Layer_x0020_1">
  <metadata id="CorelCorpID_0Corel-Layer"/>
  <g id="_2983135434736">
   <path class="fil0" d="M3819 1729l-1765 1498 0 2293 3530 0 0 -2293 -1765 -1498 0 0 0 0zm-1362 3227l0 -211 613 -756 -544 0 0 -198 853 0 0 183 -638 785 662 0 0 197 -946 0zm1231 0l0 -1165 235 0 0 1165 -235 0zm602 0l0 -1165 378 0c143,0 235,7 279,18 67,17 122,55 167,114 45,58 68,135 68,227 0,71 -13,131 -40,180 -25,49 -57,88 -98,115 -39,27 -81,47 -121,56 -57,11 -137,16 -244,16l-153 0 0 439 -236 0 0 0zm236 -967l0 332 129 0c92,0 153,-7 185,-19 31,-12 55,-32 73,-58 18,-26 26,-55 26,-90 0,-43 -12,-78 -37,-105 -25,-28 -56,-46 -95,-52 -27,-6 -84,-8 -168,-8l-113 0 0 0zm-2713 1773l0 -2635 2006 -1734 2008 1734 0 2635 -4014 0z"/>
   <polygon class="fil1" points="0,0 7639,0 7639,7639 0,7639 "/>
  </g>
 </g>
</svg>
