<?xml version="1.0" encoding="UTF-8"?>
<!DOCTYPE svg PUBLIC "-//W3C//DTD SVG 1.1//EN" "http://www.w3.org/Graphics/SVG/1.1/DTD/svg11.dtd">
<!-- Creator: CorelDRAW X7 -->
<svg xmlns="http://www.w3.org/2000/svg" xml:space="preserve" width="100%" height="100%" version="1.1" style="shape-rendering:geometricPrecision; text-rendering:geometricPrecision; image-rendering:optimizeQuality; fill-rule:evenodd; clip-rule:evenodd"
viewBox="0 0 2600 2600"
 xmlns:xlink="http://www.w3.org/1999/xlink">
 <defs>
  <style type="text/css">
   <![CDATA[
    .fil0 {fill:none}
    .fil1 {fill:black}
   ]]>
  </style>
 </defs>
 <g id="Layer_x0020_1">
  <metadata id="CorelCorpID_0Corel-Layer"/>
  <g id="_2724853556992">
   <rect class="fil0" width="2600" height="2600"/>
   <path class="fil1" d="M623 809l0 1394 1354 0 0 -1806 -943 0 -411 412zm1089 345l-72 0 -29 -91 -133 0 -27 91 -71 0 128 -404 72 0 132 404zm-122 -159l-46 -150 -45 150 91 0zm-179 968l0 -74 174 -262 -154 0 0 -68 242 0 0 63 -181 273 188 0 0 68 -269 0zm-393 -931l0 835 -178 -178 -40 44 226 230 40 0 226 -230 -40 -42 -178 176 0 -835 -56 0zm0 -539l0 299 -299 0 299 -299zm903 1654l-1242 0 0 -1298 395 0 0 -396 847 0 0 1694z"/>
  </g>
 </g>
</svg>
