<?xml version="1.0" encoding="UTF-8"?>
<!DOCTYPE svg PUBLIC "-//W3C//DTD SVG 1.1//EN" "http://www.w3.org/Graphics/SVG/1.1/DTD/svg11.dtd">
<!-- Creator: CorelDRAW X7 -->
<svg xmlns="http://www.w3.org/2000/svg" xml:space="preserve" width="100%" height="100%" version="1.1" style="shape-rendering:geometricPrecision; text-rendering:geometricPrecision; image-rendering:optimizeQuality; fill-rule:evenodd; clip-rule:evenodd"
viewBox="0 0 2600 2600"
 xmlns:xlink="http://www.w3.org/1999/xlink">
 <defs>
  <style type="text/css">
   <![CDATA[
    .fil1 {fill:none}
    .fil0 {fill:black}
   ]]>
  </style>
 </defs>
 <g id="Layer_x0020_1">
  <metadata id="CorelCorpID_0Corel-Layer"/>
  <g id="_2724846462064">
   <path class="fil0" d="M1300 397c-241,0 -468,94 -639,264 -170,171 -264,398 -264,639 0,241 94,468 264,639 171,170 398,264 639,264 241,0 468,-94 639,-264 170,-171 264,-398 264,-639 0,-241 -94,-468 -264,-639 -171,-170 -398,-264 -639,-264zm240 579c0,132 -108,240 -240,240 -132,0 -240,-108 -240,-240 0,-132 108,-240 240,-240 132,0 240,108 240,240zm-536 0c0,163 132,296 296,296 163,0 296,-133 296,-296 0,-163 -133,-296 -296,-296 -164,0 -296,133 -296,296zm296 353c-265,0 -480,215 -480,480l0 189c-42,-29 -82,-62 -119,-99 -160,-160 -248,-373 -248,-599 0,-226 88,-439 248,-599 160,-160 373,-248 599,-248 226,0 439,88 599,248 160,160 248,373 248,599 0,226 -88,439 -248,599 -37,37 -77,70 -119,99l0 -189c0,-265 -215,-480 -480,-480zm-423 705l0 -225c0,-234 190,-424 423,-424 233,0 423,190 423,424l0 225c-127,73 -272,113 -423,113 -151,0 -296,-40 -423,-113z"/>
   <rect class="fil1" width="2600" height="2600"/>
  </g>
 </g>
</svg>
