<?xml version="1.0" encoding="UTF-8"?>
<!DOCTYPE svg PUBLIC "-//W3C//DTD SVG 1.1//EN" "http://www.w3.org/Graphics/SVG/1.1/DTD/svg11.dtd">
<!-- Creator: CorelDRAW X7 -->
<svg xmlns="http://www.w3.org/2000/svg" xml:space="preserve" width="100%" height="100%" version="1.1" style="shape-rendering:geometricPrecision; text-rendering:geometricPrecision; image-rendering:optimizeQuality; fill-rule:evenodd; clip-rule:evenodd"
viewBox="0 0 2600 2600"
 xmlns:xlink="http://www.w3.org/1999/xlink">
 <defs>
  <style type="text/css">
   <![CDATA[
    .fil0 {fill:none}
    .fil1 {fill:black}
   ]]>
  </style>
 </defs>
 <g id="Layer_x0020_1">
  <metadata id="CorelCorpID_0Corel-Layer"/>
  <g id="_2307334216512">
   <rect class="fil0" width="2600" height="2600"/>
   <path class="fil1" d="M2203 566l-536 0 0 57 480 0c0,103 0,207 0,310l56 0 0 -367zm-677 1157l57 0 0 -846 -57 0 0 846zm-848 0l57 0 0 -846 -57 0 0 846zm509 0l56 0 0 -113 -56 0 0 113zm56 -225l0 -621 -56 0 0 621 56 0zm-226 225l57 0 0 -113 -57 0 0 113zm57 -225l0 -621 -57 0 0 621 57 0zm-226 225l56 0 0 -846 -56 0 0 846zm509 0l56 0 0 -846 -56 0 0 846zm508 0l57 0 0 -846 -57 0 0 846zm-169 0l56 0 0 -113 -56 0 0 113zm56 -225l0 -621 -56 0 0 621 56 0zm395 169l0 310 -480 0 0 57 536 0 0 -367 -56 0zm-1214 -1101l-536 0 0 367 56 0c0,-103 0,-207 0,-310l480 0 0 -57zm-536 1101l0 367 536 0 0 -57 -480 0 0 -310 -56 0z"/>
  </g>
 </g>
</svg>
