<?xml version="1.0" encoding="UTF-8"?>
<!DOCTYPE svg PUBLIC "-//W3C//DTD SVG 1.1//EN" "http://www.w3.org/Graphics/SVG/1.1/DTD/svg11.dtd">
<!-- Creator: CorelDRAW X7 -->
<svg xmlns="http://www.w3.org/2000/svg" xml:space="preserve" width="100%" height="100%" version="1.1" style="shape-rendering:geometricPrecision; text-rendering:geometricPrecision; image-rendering:optimizeQuality; fill-rule:evenodd; clip-rule:evenodd"
viewBox="0 0 26000 26000"
 xmlns:xlink="http://www.w3.org/1999/xlink">
 <defs>
  <style type="text/css">
   <![CDATA[
    .fil0 {fill:none}
    .fil1 {fill:black;fill-rule:nonzero}
   ]]>
  </style>
 </defs>
 <g id="Layer_x0020_1">
  <metadata id="CorelCorpID_0Corel-Layer"/>
  <g id="_2280453051792">
   <rect class="fil0" width="26000" height="26000"/>
   <path class="fil1" d="M6034 14129l6684 0 0 -7902 -4491 0 -2193 7902zm4000 4514l5933 0 0 -565 -5933 0 0 565zm0 -1695l5933 0 0 -565 -5933 0 0 565zm-4089 -2254l0 5079 14110 0 0 -5079 -14110 0zm12256 -9032c805,2905 1612,5809 2419,8714l0 5962 -15240 0 0 0 0 -5962 2419 -8714c3467,0 6935,0 10402,0zm-4918 8467l6684 0 -2193 -7902 -4491 0 0 7902z"/>
  </g>
 </g>
</svg>
