<?xml version="1.0" encoding="UTF-8"?>
<!DOCTYPE svg PUBLIC "-//W3C//DTD SVG 1.1//EN" "http://www.w3.org/Graphics/SVG/1.1/DTD/svg11.dtd">
<!-- Creator: CorelDRAW X7 -->
<svg xmlns="http://www.w3.org/2000/svg" xml:space="preserve" width="100%" height="100%" version="1.1" style="shape-rendering:geometricPrecision; text-rendering:geometricPrecision; image-rendering:optimizeQuality; fill-rule:evenodd; clip-rule:evenodd"
viewBox="0 0 2600 2600"
 xmlns:xlink="http://www.w3.org/1999/xlink">
 <defs>
  <style type="text/css">
   <![CDATA[
    .fil0 {fill:none}
    .fil1 {fill:black}
   ]]>
  </style>
 </defs>
 <g id="Layer_x0020_1">
  <metadata id="CorelCorpID_0Corel-Layer"/>
  <g id="_2724758562448">
   <rect class="fil0" width="2600" height="2600"/>
   <rect class="fil0" width="2600" height="2600"/>
   <path class="fil1" d="M656 2104l-5 0 0 -1608 1298 0 0 1608c-431,0 -862,0 -1293,0zm842 -1213l169 0 0 -85 -169 0 0 85zm225 197l-282 0 0 -338 282 0c0,113 0,225 0,338zm-56 -141l-169 0 0 85 169 0 0 -85zm-734 508l169 0 0 -85 -169 0 0 85zm226 198l-282 0 0 -339 282 0c0,113 0,226 0,339zm-57 -141l-169 0 0 84 169 0 0 -84zm396 -57l169 0 0 -85 -169 0 0 85zm225 198l-282 0 0 -339 282 0c0,113 0,226 0,339zm-56 -141l-169 0 0 84 169 0 0 -84zm-734 -621l169 0 0 -85 -169 0 0 85zm169 56l-169 0 0 85 169 0 0 -85zm367 1101l0 -282 -338 0 0 282c-141,0 -283,0 -424,0l0 -1496 1186 0 0 1496c-141,0 -283,0 -424,0zm-282 0l0 -226 226 0 0 226 -226 0zm-310 -1298c0,113 0,225 0,338l282 0c0,-113 0,-225 0,-338l-282 0z"/>
  </g>
 </g>
</svg>
