<?xml version="1.0" encoding="UTF-8"?>
<!DOCTYPE svg PUBLIC "-//W3C//DTD SVG 1.1//EN" "http://www.w3.org/Graphics/SVG/1.1/DTD/svg11.dtd">
<!-- Creator: CorelDRAW X7 -->
<svg xmlns="http://www.w3.org/2000/svg" xml:space="preserve" width="100%" height="100%" version="1.1" style="shape-rendering:geometricPrecision; text-rendering:geometricPrecision; image-rendering:optimizeQuality; fill-rule:evenodd; clip-rule:evenodd"
viewBox="0 0 26000 26000"
 xmlns:xlink="http://www.w3.org/1999/xlink">
 <defs>
  <style type="text/css">
   <![CDATA[
    .fil0 {fill:none}
    .fil1 {fill:black}
   ]]>
  </style>
 </defs>
 <g id="Layer_x0020_1">
  <metadata id="CorelCorpID_0Corel-Layer"/>
  <g id="_2724830387664">
   <rect class="fil0" width="26000" height="26000"/>
   <path class="fil1" d="M2904 9302l4768 0 4093 -5026c52,-641 590,-1141 1235,-1141 646,0 1185,499 1236,1142l4092 5025 4768 0 0 13121 -20192 0 0 -13121zm3791 6581c0,-340 51,-625 153,-856 75,-170 179,-322 310,-457 131,-135 275,-236 430,-301 208,-88 447,-132 719,-132 491,0 884,153 1179,457 294,306 442,730 442,1274 0,539 -146,960 -439,1265 -292,304 -684,455 -1173,455 -495,0 -890,-151 -1182,-453 -293,-303 -439,-720 -439,-1252zm693 -22c0,378 88,663 262,859 175,194 396,292 664,292 270,0 490,-97 663,-290 172,-194 258,-483 258,-871 0,-382 -84,-667 -252,-855 -168,-188 -390,-282 -669,-282 -277,0 -501,95 -671,285 -170,191 -255,478 -255,862zm3065 1667l0 -3330 1078 0c409,0 675,16 799,49 190,50 350,159 479,327 129,167 193,383 193,649 0,205 -37,376 -111,515 -74,140 -168,249 -282,329 -114,79 -230,131 -348,157 -161,32 -393,48 -696,48l-437 0 0 1256 -675 0zm675 -2768l0 950 366 0c264,0 440,-18 530,-53 88,-36 159,-89 209,-164 51,-75 76,-161 76,-260 0,-122 -35,-222 -106,-302 -72,-78 -161,-128 -270,-148 -80,-15 -241,-23 -483,-23l-322 0zm2428 2768l0 -3330 2465 0 0 562 -1790 0 0 740 1664 0 0 563 -1664 0 0 903 1856 0 0 562 -2531 0zm3103 0l0 -3330 652 0 1371 2232 0 -2232 624 0 0 3330 -674 0 -1350 -2189 0 2189 -623 0zm-2597 -12515c-224,373 -624,603 -1062,603 -434,0 -840,-232 -1061,-603l-3494 4289 9110 0 -3493 -4289zm-1062 -1277c-354,0 -637,285 -637,639 0,353 283,640 637,640 353,0 639,-287 639,-640 0,-353 -286,-639 -639,-639zm-6314 7545l12629 0c0,986 807,1793 1793,1793l0 5577c-986,0 -1793,807 -1793,1794l-12629 0c0,-987 -807,-1794 -1793,-1794l0 -5577c986,0 1793,-807 1793,-1793zm12105 601l-11581 0c-110,419 -329,793 -626,1090 -297,297 -671,516 -1090,626l0 4529c419,110 793,329 1090,626 297,297 516,672 626,1090l11581 0c109,-418 328,-793 625,-1090 298,-297 672,-516 1091,-626l0 -4529c-419,-110 -793,-329 -1091,-626 -297,-297 -516,-671 -625,-1090zm3704 -1978l-18989 0 0 11918 18989 0 0 -11918z"/>
  </g>
 </g>
</svg>
