<?xml version="1.0" encoding="UTF-8"?>
<!DOCTYPE svg PUBLIC "-//W3C//DTD SVG 1.1//EN" "http://www.w3.org/Graphics/SVG/1.1/DTD/svg11.dtd">
<!-- Creator: CorelDRAW X7 -->
<svg xmlns="http://www.w3.org/2000/svg" xml:space="preserve" width="100%" height="100%" version="1.1" style="shape-rendering:geometricPrecision; text-rendering:geometricPrecision; image-rendering:optimizeQuality; fill-rule:evenodd; clip-rule:evenodd"
viewBox="0 0 2600 2600"
 xmlns:xlink="http://www.w3.org/1999/xlink">
 <defs>
  <style type="text/css">
   <![CDATA[
    .fil0 {fill:none}
    .fil1 {fill:black}
   ]]>
  </style>
 </defs>
 <g id="Layer_x0020_1">
  <metadata id="CorelCorpID_0Corel-Layer"/>
  <g id="_2724847839488">
   <rect class="fil0" width="2600" height="2600"/>
   <path class="fil1" d="M707 1097l426 0c4,-19 12,-43 20,-58 9,-18 23,-35 38,-48 29,-26 67,-41 109,-41 42,0 80,15 109,41 15,13 29,30 38,48 8,15 16,39 20,58l426 0 0 -79 -173 0 -48 -144 114 -113 -130 -130 -114 113 -143 -48 0 -172 -198 0 0 172 -143 48 -114 -113 -130 130 113 113 -47 144 -173 0 0 79zm485 0l216 0c-4,-25 -17,-47 -36,-64 -19,-16 -44,-26 -72,-26 -28,0 -53,10 -72,26 -19,17 -32,39 -36,64zm-536 1036l-5 0c0,-391 0,-781 0,-1172l56 0 132 0 24 -71 -88 -89 -40 -40 39 -40 130 -130 40 -40 40 40 89 89 72 -24 0 -132 0 -57 56 0 198 0 56 0 0 57 0 132 72 24 89 -89 40 -40 39 40 131 130 39 40 -40 40 -88 88 24 72 132 0 56 0c0,391 0,781 0,1172 -431,0 -862,0 -1293,0zm51 -980l0 923c141,0 283,0 424,0l0 -338 338 0 0 338c141,0 283,0 424,0l0 -923c-395,0 -791,0 -1186,0l0 0zm480 923l0 -282 226 0 0 282 -226 0zm-310 -734l0 283 282 0 0 -283 -282 0zm56 226l0 -169 169 0 0 169 -169 0zm508 -226l0 283 282 0 0 -283 -282 0zm57 226l0 -169 169 0 0 169 -169 0z"/>
  </g>
 </g>
</svg>
