<?xml version="1.0" encoding="UTF-8"?>
<!DOCTYPE svg PUBLIC "-//W3C//DTD SVG 1.1//EN" "http://www.w3.org/Graphics/SVG/1.1/DTD/svg11.dtd">
<!-- Creator: CorelDRAW X7 -->
<svg xmlns="http://www.w3.org/2000/svg" xml:space="preserve" width="100%" height="100%" version="1.1" style="shape-rendering:geometricPrecision; text-rendering:geometricPrecision; image-rendering:optimizeQuality; fill-rule:evenodd; clip-rule:evenodd"
viewBox="0 0 2600 2600"
 xmlns:xlink="http://www.w3.org/1999/xlink">
 <defs>
  <style type="text/css">
   <![CDATA[
    .fil1 {fill:none}
    .fil0 {fill:black}
   ]]>
  </style>
 </defs>
 <g id="Layer_x0020_1">
  <metadata id="CorelCorpID_0Corel-Layer"/>
  <g id="_2724828447920">
   <path class="fil0" d="M1836 620c65,-13 113,-70 113,-138 0,-78 -63,-142 -141,-142 -78,0 -141,64 -141,142 0,68 48,125 113,138l0 87 -960 0 0 -87c65,-13 113,-70 113,-138 0,-78 -63,-142 -141,-142 -78,0 -141,64 -141,142 0,68 48,125 113,138l0 87 -367 0 0 1411 1806 0 0 -1411 -367 0 0 -87zm-959 -138c0,46 -38,84 -85,84 -47,0 -85,-38 -85,-84 0,-47 38,-85 85,-85 47,0 85,38 85,85zm-424 282l0 169 1694 0 0 -169c-565,0 -1129,0 -1694,0zm678 1185l338 0 0 -339 -338 0 0 339zm56 -282l226 0 0 226 -226 0 0 -226zm-56 -226l338 0 0 -339 -338 0 0 339zm56 -282l226 0 0 226 -226 0 0 -226zm423 790l339 0 0 -339 -339 0 0 339zm0 -508l339 0 0 -339 -339 0 0 339zm57 -282l226 0 0 226 -226 0 0 -226zm-1016 790l339 0 0 -339 -339 0 0 339zm56 -282l226 0 0 226 -226 0 0 -226zm-56 -226l339 0 0 -339 -339 0 0 339zm56 -282l226 0 0 226 -226 0 0 -226zm-254 903l0 -1073 1694 0 0 1073 -1694 0zm1440 -1580c0,46 -38,84 -85,84 -47,0 -85,-38 -85,-84 0,-47 38,-85 85,-85 47,0 85,38 85,85z"/>
   <rect class="fil1" width="2600" height="2600"/>
  </g>
 </g>
</svg>
