<?xml version="1.0" encoding="UTF-8"?>
<!DOCTYPE svg PUBLIC "-//W3C//DTD SVG 1.1//EN" "http://www.w3.org/Graphics/SVG/1.1/DTD/svg11.dtd">
<!-- Creator: CorelDRAW X7 -->
<svg xmlns="http://www.w3.org/2000/svg" xml:space="preserve" width="100%" height="100%" version="1.1" style="shape-rendering:geometricPrecision; text-rendering:geometricPrecision; image-rendering:optimizeQuality; fill-rule:evenodd; clip-rule:evenodd"
viewBox="0 0 2600 2600"
 xmlns:xlink="http://www.w3.org/1999/xlink">
 <defs>
  <style type="text/css">
   <![CDATA[
    .fil0 {fill:none}
    .fil1 {fill:black}
   ]]>
  </style>
 </defs>
 <g id="Layer_x0020_1">
  <metadata id="CorelCorpID_0Corel-Layer"/>
  <g id="_2724830376496">
   <rect class="fil0" width="2600" height="2600"/>
   <path class="fil1" d="M284 961l0 339 169 0 0 170 33 0 130 0 141 521 296 0 -140 -521 39 0 20 0 183 183 639 0 0 -305 183 -122 0 -190 -183 -122 0 -305 -639 0 -183 183 -519 0 0 169 -169 0zm391 509l179 0 125 465 -179 0 -125 -465zm1395 -596l28 49 147 -85 -28 -49 -147 85zm28 465l-28 49 147 85 28 -49 -147 -85zm49 -236l0 56 169 0 0 -56 -169 0zm-1637 310c0,-216 0,-348 0,-565l485 0 183 -183 560 0c0,311 0,621 0,932l-559 0 -184 -184 -485 0zm1284 -431l127 84 0 130 -127 84 0 -298zm-1341 262l-113 0 0 -226 113 0 0 226z"/>
  </g>
 </g>
</svg>
