<?xml version="1.0" encoding="UTF-8"?>
<!DOCTYPE svg PUBLIC "-//W3C//DTD SVG 1.1//EN" "http://www.w3.org/Graphics/SVG/1.1/DTD/svg11.dtd">
<!-- Creator: CorelDRAW X7 -->
<svg xmlns="http://www.w3.org/2000/svg" xml:space="preserve" width="100%" height="100%" version="1.1" style="shape-rendering:geometricPrecision; text-rendering:geometricPrecision; image-rendering:optimizeQuality; fill-rule:evenodd; clip-rule:evenodd"
viewBox="0 0 26000 26000"
 xmlns:xlink="http://www.w3.org/1999/xlink">
 <defs>
  <style type="text/css">
   <![CDATA[
    .fil0 {fill:none}
    .fil1 {fill:black}
   ]]>
  </style>
 </defs>
 <g id="Layer_x0020_1">
  <metadata id="CorelCorpID_0Corel-Layer"/>
  <g id="_2438163539680">
   <rect class="fil0" width="26000" height="26000"/>
   <path class="fil1" d="M13000 12412c1442,0 2615,1173 2615,2615l0 1485 -2615 0 -2615 0 0 -1485c0,-1442 1173,-2615 2615,-2615zm0 9026c1917,-676 3429,-1774 4481,-3107 1130,-1433 1729,-3141 1729,-4888l0 -6963c-1123,134 -2156,19 -3073,-232 -1309,-357 -2379,-991 -3137,-1564 -758,573 -1828,1207 -3137,1564 -917,251 -1950,366 -3073,232l0 6963c0,1747 599,3455 1729,4888 1052,1333 2564,2431 4481,3107zm0 593c4335,-1450 6773,-4936 6773,-8588l0 -7623c-3106,638 -5546,-829 -6773,-1851 -1227,1022 -3667,2489 -6773,1851l0 7623c0,3652 2438,7138 6773,8588zm0 -4977l3157 0 0 -542 0 -1485c0,-871 -354,-1660 -925,-2232 -572,-571 -1361,-925 -2232,-925 -870,0 -1660,354 -2231,925 -572,572 -926,1361 -926,2232l0 1485 0 542 3157 0zm0 -8650c-657,0 -1191,532 -1191,1190 0,657 534,1192 1191,1192 657,0 1192,-535 1192,-1192 0,-658 -535,-1190 -1192,-1190zm0 2924c-956,0 -1733,-778 -1733,-1734 0,-954 779,-1732 1733,-1732 954,0 1734,778 1734,1732 0,956 -778,1734 -1734,1734z"/>
  </g>
 </g>
</svg>
