<?xml version="1.0" encoding="UTF-8"?>
<!DOCTYPE svg PUBLIC "-//W3C//DTD SVG 1.1//EN" "http://www.w3.org/Graphics/SVG/1.1/DTD/svg11.dtd">
<!-- Creator: CorelDRAW X7 -->
<svg xmlns="http://www.w3.org/2000/svg" xml:space="preserve" width="100%" height="100%" version="1.1" style="shape-rendering:geometricPrecision; text-rendering:geometricPrecision; image-rendering:optimizeQuality; fill-rule:evenodd; clip-rule:evenodd"
viewBox="0 0 2600 2600"
 xmlns:xlink="http://www.w3.org/1999/xlink">
 <defs>
  <style type="text/css">
   <![CDATA[
    .fil0 {fill:none}
    .fil1 {fill:black}
   ]]>
  </style>
 </defs>
 <g id="Layer_x0020_1">
  <metadata id="CorelCorpID_0Corel-Layer"/>
  <g id="_2307285066176">
   <rect class="fil0" width="2600" height="2600"/>
   <path class="fil1" d="M1300 397c-241,0 -468,94 -639,264 -170,171 -264,398 -264,639 0,241 94,468 264,639 171,170 398,264 639,264 241,0 468,-94 639,-264 170,-171 264,-398 264,-639 0,-241 -94,-468 -264,-639 -171,-170 -398,-264 -639,-264zm0 423c-169,0 -254,57 -254,170l56 0c0,-53 23,-113 198,-113 120,0 197,66 197,169 0,78 -110,151 -153,172 -5,3 -129,67 -129,251l0 29 57 0 0 -29c0,-148 93,-198 97,-200 8,-4 185,-94 185,-223 0,-133 -104,-226 -254,-226zm-85 790l57 0 0 113 -57 0 0 -113zm684 289c-160,160 -373,248 -599,248 -226,0 -439,-88 -599,-248 -160,-160 -248,-373 -248,-599 0,-226 88,-439 248,-599 160,-160 373,-248 599,-248 226,0 439,88 599,248 160,160 248,373 248,599 0,226 -88,439 -248,599z"/>
  </g>
 </g>
</svg>
