<?xml version="1.0" encoding="UTF-8"?>
<!DOCTYPE svg PUBLIC "-//W3C//DTD SVG 1.1//EN" "http://www.w3.org/Graphics/SVG/1.1/DTD/svg11.dtd">
<!-- Creator: CorelDRAW X7 -->
<svg xmlns="http://www.w3.org/2000/svg" xml:space="preserve" width="100%" height="100%" version="1.1" style="shape-rendering:geometricPrecision; text-rendering:geometricPrecision; image-rendering:optimizeQuality; fill-rule:evenodd; clip-rule:evenodd"
viewBox="0 0 2600 2600"
 xmlns:xlink="http://www.w3.org/1999/xlink">
 <defs>
  <style type="text/css">
   <![CDATA[
    .fil0 {fill:none}
    .fil1 {fill:black}
   ]]>
  </style>
 </defs>
 <g id="Layer_x0020_1">
  <metadata id="CorelCorpID_0Corel-Layer"/>
  <g id="_2724829812656">
   <rect class="fil0" width="2600" height="2600"/>
   <path class="fil1" d="M1300 397c-379,0 -762,77 -762,226l0 1354c0,149 383,226 762,226 379,0 762,-77 762,-226l0 -1354c0,-149 -383,-226 -762,-226zm0 1750c-437,0 -705,-99 -705,-170l0 -360c120,89 413,134 705,134 292,0 585,-45 706,-134l0 360c0,71 -269,170 -706,170zm0 -452c-437,0 -705,-99 -705,-169l0 -361c120,89 413,135 705,135 292,0 585,-46 706,-135l0 361c0,70 -269,169 -706,169zm0 -451c-437,0 -705,-99 -705,-170l0 -360c120,88 413,135 705,135 292,0 585,-47 706,-135l0 360c0,71 -269,170 -706,170zm0 -452c-437,0 -705,-99 -705,-169 0,-71 268,-170 705,-170 437,0 706,99 706,170 0,70 -269,169 -706,169z"/>
  </g>
 </g>
</svg>
