<?xml version="1.0" encoding="UTF-8"?>
<!DOCTYPE svg PUBLIC "-//W3C//DTD SVG 1.1//EN" "http://www.w3.org/Graphics/SVG/1.1/DTD/svg11.dtd">
<!-- Creator: CorelDRAW X7 -->
<svg xmlns="http://www.w3.org/2000/svg" xml:space="preserve" width="100%" height="100%" version="1.1" style="shape-rendering:geometricPrecision; text-rendering:geometricPrecision; image-rendering:optimizeQuality; fill-rule:evenodd; clip-rule:evenodd"
viewBox="0 0 2600 2600"
 xmlns:xlink="http://www.w3.org/1999/xlink">
 <defs>
  <style type="text/css">
   <![CDATA[
    .fil0 {fill:none}
    .fil1 {fill:black}
   ]]>
  </style>
 </defs>
 <g id="Layer_x0020_1">
  <metadata id="CorelCorpID_0Corel-Layer"/>
  <g id="_2307336978160">
   <rect class="fil0" width="2600" height="2600"/>
   <path class="fil1" d="M2062 2203l282 0 0 -1806 -282 0 0 1806zm-1806 -677l0 677 282 0 0 -677c-94,0 -188,0 -282,0zm57 56l169 0 0 565 -169 0 0 -565zm394 -338l0 959 283 0 0 -959c-94,0 -188,0 -283,0zm57 56l169 0 0 847 -169 0 0 -847zm395 -339l0 1242 282 0 0 -1242c-94,0 -188,0 -282,0zm56 57l170 0 0 1129 -170 0 0 -1129zm395 -339l0 1524 283 0 0 -1524c-95,0 -189,0 -283,0zm57 56l169 0 0 1412 -169 0 0 -1412zm451 1412l0 -1694 169 0 0 1694 -169 0z"/>
  </g>
 </g>
</svg>
