<?xml version="1.0" encoding="UTF-8"?>
<!DOCTYPE svg PUBLIC "-//W3C//DTD SVG 1.1//EN" "http://www.w3.org/Graphics/SVG/1.1/DTD/svg11.dtd">
<!-- Creator: CorelDRAW X7 -->
<svg xmlns="http://www.w3.org/2000/svg" xml:space="preserve" width="100%" height="100%" version="1.1" style="shape-rendering:geometricPrecision; text-rendering:geometricPrecision; image-rendering:optimizeQuality; fill-rule:evenodd; clip-rule:evenodd"
viewBox="0 0 2600 2600"
 xmlns:xlink="http://www.w3.org/1999/xlink">
 <defs>
  <style type="text/css">
   <![CDATA[
    .fil0 {fill:none}
    .fil1 {fill:black}
   ]]>
  </style>
 </defs>
 <g id="Layer_x0020_1">
  <metadata id="CorelCorpID_0Corel-Layer"/>
  <g id="_2307282697872">
   <rect class="fil0" width="2600" height="2600"/>
   <path class="fil1" d="M1695 1893l0 -1129 0 -57 57 0 0 57 0 1129 0 56 -57 0 0 -56zm-789 -56l0 56 0 56 -57 0 0 -56 0 -56 57 0zm169 -226l0 282 0 56 -57 0 0 -56 0 -282 57 0zm169 -226l0 508 0 56 -56 0 0 -56 0 -508 56 0zm169 -226l0 734 0 56 -56 0 0 -56 0 -734 56 0zm-790 -350l0 1394 1354 0 0 -1806 -943 0 -411 412zm395 -316l0 299 -299 0 299 -299zm903 1654l-1242 0 0 -1298 395 0 0 -396 847 0 0 1694zm-339 -1215l0 961 0 56 -56 0 0 -56 0 -961 56 0z"/>
  </g>
 </g>
</svg>
