<?xml version="1.0" encoding="UTF-8"?>
<!DOCTYPE svg PUBLIC "-//W3C//DTD SVG 1.1//EN" "http://www.w3.org/Graphics/SVG/1.1/DTD/svg11.dtd">
<!-- Creator: CorelDRAW X7 -->
<svg xmlns="http://www.w3.org/2000/svg" xml:space="preserve" width="100%" height="100%" version="1.1" style="shape-rendering:geometricPrecision; text-rendering:geometricPrecision; image-rendering:optimizeQuality; fill-rule:evenodd; clip-rule:evenodd"
viewBox="0 0 2600 2600"
 xmlns:xlink="http://www.w3.org/1999/xlink">
 <defs>
  <style type="text/css">
   <![CDATA[
    .fil0 {fill:none}
    .fil1 {fill:black}
   ]]>
  </style>
 </defs>
 <g id="Layer_x0020_1">
  <metadata id="CorelCorpID_0Corel-Layer"/>
  <g id="_2307276177840">
   <rect class="fil0" width="2600" height="2600"/>
   <path class="fil1" d="M397 2034l1806 0 0 -1468 -1806 0 0 1468zm451 -367l-113 0 0 -282 113 0 0 282zm56 56c0,-131 0,-263 0,-395 -75,0 -150,0 -226,0 0,132 0,264 0,395 76,0 151,0 226,0zm113 -508c76,0 151,0 226,0l0 508c-75,0 -150,0 -226,0 0,-169 0,-338 0,-508zm170 57l-113 0 0 395 113 0 0 -395zm170 -170c75,0 150,0 226,0l0 621c-76,0 -151,0 -226,0l0 -621zm169 57l-113 0 0 508 113 0 0 -508zm226 -169c0,225 0,451 0,677l113 0 0 -677 -113 0zm-56 -57l226 0c0,264 0,527 0,790 -76,0 -151,0 -226,0 0,-263 0,-526 0,-790zm-1243 1044c0,-451 0,-903 0,-1354l1694 0c0,451 0,903 0,1354l-1694 0z"/>
  </g>
 </g>
</svg>
