<?xml version="1.0" encoding="UTF-8"?>
<!DOCTYPE svg PUBLIC "-//W3C//DTD SVG 1.1//EN" "http://www.w3.org/Graphics/SVG/1.1/DTD/svg11.dtd">
<!-- Creator: CorelDRAW X7 -->
<svg xmlns="http://www.w3.org/2000/svg" xml:space="preserve" width="100%" height="100%" version="1.1" style="shape-rendering:geometricPrecision; text-rendering:geometricPrecision; image-rendering:optimizeQuality; fill-rule:evenodd; clip-rule:evenodd"
viewBox="0 0 2600 2600"
 xmlns:xlink="http://www.w3.org/1999/xlink">
 <defs>
  <style type="text/css">
   <![CDATA[
    .fil1 {fill:none}
    .fil0 {fill:black}
   ]]>
  </style>
 </defs>
 <g id="Layer_x0020_1">
  <metadata id="CorelCorpID_0Corel-Layer"/>
  <g id="_2724831736688">
   <path class="fil0" d="M623 809l0 1394 1354 0 0 -1258 -56 0 0 1202 -1242 0 0 -1298 395 0 0 -396 355 0 0 -56 -395 0 -411 412zm702 280l590 -590 0 251 59 -3 3 -322 -28 -28 -322 3 -2 58 250 1 -590 591 40 39zm-307 -596l0 299 -299 0 299 -299z"/>
   <rect class="fil1" width="2600" height="2600"/>
  </g>
 </g>
</svg>
