<?xml version="1.0" encoding="UTF-8"?>
<!DOCTYPE svg PUBLIC "-//W3C//DTD SVG 1.1//EN" "http://www.w3.org/Graphics/SVG/1.1/DTD/svg11.dtd">
<!-- Creator: CorelDRAW X7 -->
<svg xmlns="http://www.w3.org/2000/svg" xml:space="preserve" width="100%" height="100%" version="1.1" style="shape-rendering:geometricPrecision; text-rendering:geometricPrecision; image-rendering:optimizeQuality; fill-rule:evenodd; clip-rule:evenodd"
viewBox="0 0 2600 2600"
 xmlns:xlink="http://www.w3.org/1999/xlink">
 <defs>
  <style type="text/css">
   <![CDATA[
    .fil0 {fill:none}
    .fil1 {fill:black}
   ]]>
  </style>
 </defs>
 <g id="Layer_x0020_1">
  <metadata id="CorelCorpID_0Corel-Layer"/>
  <g id="_2724831007632">
   <rect class="fil0" width="2600" height="2600"/>
   <path class="fil1" d="M1493 2189l0 -688c278,-278 556,-557 835,-836l84 0 0 -56 -1112 0 -1112 0 0 56 84 0c279,279 557,558 835,836l0 688c129,0 257,0 386,0zm-193 -1524l948 0c-271,271 -541,541 -812,811l0 657c-91,0 -181,0 -272,0l0 -657c-271,-270 -541,-540 -812,-811l948 0z"/>
  </g>
 </g>
</svg>
