<?xml version="1.0" encoding="UTF-8"?>
<!DOCTYPE svg PUBLIC "-//W3C//DTD SVG 1.1//EN" "http://www.w3.org/Graphics/SVG/1.1/DTD/svg11.dtd">
<!-- Creator: CorelDRAW X7 -->
<svg xmlns="http://www.w3.org/2000/svg" xml:space="preserve" width="100%" height="100%" version="1.1" style="shape-rendering:geometricPrecision; text-rendering:geometricPrecision; image-rendering:optimizeQuality; fill-rule:evenodd; clip-rule:evenodd"
viewBox="0 0 2600 2600"
 xmlns:xlink="http://www.w3.org/1999/xlink">
 <defs>
  <style type="text/css">
   <![CDATA[
    .fil0 {fill:none}
    .fil1 {fill:black}
   ]]>
  </style>
 </defs>
 <g id="Layer_x0020_1">
  <metadata id="CorelCorpID_0Corel-Layer"/>
  <g id="_2724844336576">
   <rect class="fil0" width="2600" height="2600"/>
   <path class="fil1" d="M2137 863l-131 786 0 -617 -843 0 -201 -198 -345 0 28 -169 492 0 200 198 800 0zm-1198 28l201 197 809 0 0 847 -1496 0 0 -1044c162,0 324,0 486,0zm-542 -57l0 1157 1609 0 197 -1185 -843 0 -200 -197 -563 0 -38 225 -162 0z"/>
  </g>
 </g>
</svg>
