<?xml version="1.0" encoding="UTF-8"?>
<!DOCTYPE svg PUBLIC "-//W3C//DTD SVG 1.1//EN" "http://www.w3.org/Graphics/SVG/1.1/DTD/svg11.dtd">
<!-- Creator: CorelDRAW X7 -->
<svg xmlns="http://www.w3.org/2000/svg" xml:space="preserve" width="100%" height="100%" version="1.1" style="shape-rendering:geometricPrecision; text-rendering:geometricPrecision; image-rendering:optimizeQuality; fill-rule:evenodd; clip-rule:evenodd"
viewBox="0 0 2600 2600"
 xmlns:xlink="http://www.w3.org/1999/xlink">
 <defs>
  <style type="text/css">
   <![CDATA[
    .fil0 {fill:none}
    .fil1 {fill:black}
   ]]>
  </style>
 </defs>
 <g id="Layer_x0020_1">
  <metadata id="CorelCorpID_0Corel-Layer"/>
  <g id="_2724844339968">
   <rect class="fil0" width="2600" height="2600"/>
   <path class="fil1" d="M558 815l0 -249 1645 0 0 1306 -242 0 0 162 -853 0 -414 355 0 -355 -297 0 0 -1219 161 0zm506 1003l0 -149c0,-78 28,-150 76,-205 -45,-35 -101,-56 -162,-56 -144,0 -261,117 -261,261l0 149 347 0zm115 -393c54,-44 124,-71 200,-71 87,0 166,35 223,92 58,57 93,136 93,223l0 149 0 54c-344,0 -688,0 -1032,0l0 -54 0 -149c0,-87 35,-166 92,-223 57,-57 136,-92 223,-92 76,0 146,27 201,71zm200 -418c66,0 119,53 119,119 0,66 -53,119 -119,119 -65,0 -119,-53 -119,-119 0,-66 54,-119 119,-119zm0 -54c-95,0 -173,78 -173,173 0,95 78,173 173,173 96,0 174,-77 174,-173 0,-95 -78,-173 -174,-173zm-261 865l0 -149c0,-64 23,-122 61,-167 38,45 61,103 61,167l0 149 -122 0zm100 -354c44,-35 100,-56 161,-56 144,0 262,117 262,261l0 149 -347 0 0 -149c0,-78 -29,-150 -76,-205zm-240 -457c66,0 119,53 119,119 0,66 -53,119 -119,119 -65,0 -119,-53 -119,-119 0,-66 54,-119 119,-119zm0 -54c-95,0 -173,78 -173,173 0,95 78,173 173,173 96,0 174,-77 174,-173 0,-95 -78,-173 -174,-173zm983 865l188 0 0 -1198 -1537 0 0 195 1349 0 0 1003zm-1510 -949l1456 0 0 1111 -819 0 -340 292 0 -292 -297 0 0 -1111z"/>
  </g>
 </g>
</svg>
