<?xml version="1.0" encoding="UTF-8"?>
<!DOCTYPE svg PUBLIC "-//W3C//DTD SVG 1.1//EN" "http://www.w3.org/Graphics/SVG/1.1/DTD/svg11.dtd">
<!-- Creator: CorelDRAW X7 -->
<svg xmlns="http://www.w3.org/2000/svg" xml:space="preserve" width="100%" height="100%" version="1.1" style="shape-rendering:geometricPrecision; text-rendering:geometricPrecision; image-rendering:optimizeQuality; fill-rule:evenodd; clip-rule:evenodd"
viewBox="0 0 26000 26000"
 xmlns:xlink="http://www.w3.org/1999/xlink">
 <defs>
  <style type="text/css">
   <![CDATA[
    .fil0 {fill:none}
    .fil1 {fill:black}
   ]]>
  </style>
 </defs>
 <g id="Layer_x0020_1">
  <metadata id="CorelCorpID_0Corel-Layer"/>
  <g id="_2503571425280">
   <rect class="fil0" width="26000" height="26000"/>
   <path class="fil1" d="M17169 13597l-8338 0 132 -793 2555 -1136 633 -5389 -1441 -1152 0 -343 4580 0 0 343 -1441 1152 633 5391 2555 1136 132 791zm-3637 8684l0 -7619 4894 0 -433 -2595 -2524 -1123 -495 -4205 1380 -1105 0 -1915 -6708 0 0 1915 1381 1105 -496 4205 -2524 1123 -384 2304 -49 291 4894 0 0 7619 1064 0z"/>
  </g>
 </g>
</svg>
