<?xml version="1.0" encoding="UTF-8"?>
<!DOCTYPE svg PUBLIC "-//W3C//DTD SVG 1.1//EN" "http://www.w3.org/Graphics/SVG/1.1/DTD/svg11.dtd">
<!-- Creator: CorelDRAW X7 -->
<svg xmlns="http://www.w3.org/2000/svg" xml:space="preserve" width="100%" height="100%" version="1.1" style="shape-rendering:geometricPrecision; text-rendering:geometricPrecision; image-rendering:optimizeQuality; fill-rule:evenodd; clip-rule:evenodd"
viewBox="0 0 26000 26000"
 xmlns:xlink="http://www.w3.org/1999/xlink">
 <defs>
  <style type="text/css">
   <![CDATA[
    .fil0 {fill:none}
    .fil1 {fill:black}
   ]]>
  </style>
 </defs>
 <g id="Layer_x0020_1">
  <metadata id="CorelCorpID_0Corel-Layer"/>
  <g id="_2503530392864">
   <rect class="fil0" width="26000" height="26000"/>
   <path class="fil1" d="M15912 16832l-1280 1792 -3429 -3428 -5387 5387 -399 -399 5388 -5387 -3429 -3429 1792 -1280 2586 994 3543 -2796 -197 -1776 1093 -1093 4390 4390 -1093 1093 -1776 -197 -2796 3543 994 2586zm1554 -6724l1816 203 503 -503 -3593 -3593 -502 503 202 1816 -4041 3192 -2603 -1001 -1001 715 6313 6313 716 -1002 -1001 -2603 3191 -4040z"/>
  </g>
 </g>
</svg>
