<?xml version="1.0" encoding="UTF-8"?>
<!DOCTYPE svg PUBLIC "-//W3C//DTD SVG 1.1//EN" "http://www.w3.org/Graphics/SVG/1.1/DTD/svg11.dtd">
<!-- Creator: CorelDRAW X7 -->
<svg xmlns="http://www.w3.org/2000/svg" xml:space="preserve" width="100%" height="100%" version="1.1" style="shape-rendering:geometricPrecision; text-rendering:geometricPrecision; image-rendering:optimizeQuality; fill-rule:evenodd; clip-rule:evenodd"
viewBox="0 0 2600 2600"
 xmlns:xlink="http://www.w3.org/1999/xlink">
 <defs>
  <style type="text/css">
   <![CDATA[
    .fil0 {fill:none}
    .fil1 {fill:black}
   ]]>
  </style>
 </defs>
 <g id="Layer_x0020_1">
  <metadata id="CorelCorpID_0Corel-Layer"/>
  <g id="_2307449997216">
   <rect class="fil0" width="2600" height="2600"/>
   <path class="fil1" d="M1300 2203c241,0 468,-94 639,-265 170,-170 264,-397 264,-638 0,-241 -94,-468 -264,-639 -171,-170 -398,-264 -639,-264 -241,0 -468,94 -638,264 -171,171 -265,398 -265,639 0,241 94,468 265,638 170,171 397,265 638,265zm0 -996c77,0 140,-62 140,-140 0,-77 -63,-140 -140,-140 -78,0 -141,63 -141,140 0,78 63,140 141,140zm21 664c15,-19 373,-459 372,-747 -1,-233 -177,-422 -393,-422 -217,0 -393,189 -393,422 0,288 355,728 370,747l22 27 22 -27zm315 -747c1,229 -259,583 -337,684 -78,-101 -336,-455 -336,-684 0,-202 151,-365 337,-365 184,0 335,163 336,365zm-252 -57c0,47 -38,85 -84,85 -47,0 -85,-38 -85,-85 0,-47 38,-84 85,-84 46,0 84,37 84,84zm-683 -366c160,-160 373,-248 599,-248 226,0 439,88 599,248 160,160 248,373 248,599 0,226 -88,439 -248,599 -160,159 -373,248 -599,248 -226,0 -439,-89 -599,-248 -159,-160 -247,-373 -247,-599 0,-226 88,-439 247,-599z"/>
  </g>
 </g>
</svg>
