<?xml version="1.0" encoding="UTF-8"?>
<!DOCTYPE svg PUBLIC "-//W3C//DTD SVG 1.1//EN" "http://www.w3.org/Graphics/SVG/1.1/DTD/svg11.dtd">
<!-- Creator: CorelDRAW X7 -->
<svg xmlns="http://www.w3.org/2000/svg" xml:space="preserve" width="100%" height="100%" version="1.1" style="shape-rendering:geometricPrecision; text-rendering:geometricPrecision; image-rendering:optimizeQuality; fill-rule:evenodd; clip-rule:evenodd"
viewBox="0 0 2600 2600"
 xmlns:xlink="http://www.w3.org/1999/xlink">
 <defs>
  <style type="text/css">
   <![CDATA[
    .fil0 {fill:none}
    .fil1 {fill:black}
   ]]>
  </style>
 </defs>
 <g id="Layer_x0020_1">
  <metadata id="CorelCorpID_0Corel-Layer"/>
  <g id="_2307281870848">
   <rect class="fil0" width="2600" height="2600"/>
   <path class="fil1" d="M1864 1131l0 -14 0 -127c0,-5 -5,-396 -423,-469l0 -124 -282 0 0 124c-418,73 -423,464 -423,469l0 70 0 71 0 56 0 706 0 141 -85 0 0 0 0 47 0 9c433,0 865,0 1298,0l0 -56 -85 0 0 -85 0 -56 0 -706 0 -56zm-592 1016l56 0 0 113 -56 0 0 -113zm113 -1633c-27,-3 -55,-4 -85,-4 -30,0 -58,1 -85,4l0 -60 170 0 0 60zm-593 1520l0 -1044c0,-18 6,-424 508,-424 501,0 508,406 508,424l0 1044c-339,0 -677,0 -1016,0z"/>
  </g>
 </g>
</svg>
