<?xml version="1.0" encoding="UTF-8"?>
<!DOCTYPE svg PUBLIC "-//W3C//DTD SVG 1.1//EN" "http://www.w3.org/Graphics/SVG/1.1/DTD/svg11.dtd">
<!-- Creator: CorelDRAW X7 -->
<svg xmlns="http://www.w3.org/2000/svg" xml:space="preserve" width="100%" height="100%" version="1.1" style="shape-rendering:geometricPrecision; text-rendering:geometricPrecision; image-rendering:optimizeQuality; fill-rule:evenodd; clip-rule:evenodd"
viewBox="0 0 2600 2600"
 xmlns:xlink="http://www.w3.org/1999/xlink">
 <defs>
  <style type="text/css">
   <![CDATA[
    .fil0 {fill:none}
    .fil1 {fill:black}
   ]]>
  </style>
 </defs>
 <g id="Layer_x0020_1">
  <metadata id="CorelCorpID_0Corel-Layer"/>
  <g id="_2724842315232">
   <rect class="fil0" width="2600" height="2600"/>
   <path class="fil1" d="M877 877c0,-234 190,-424 423,-424 233,0 423,190 423,424l0 84 57 0 0 -84c0,-265 -215,-480 -480,-480 -265,0 -480,215 -480,480l0 423 -226 0 0 903 1412 0 0 -903 -1129 0 0 -423zm395 985l0 87 56 0 0 -87c65,-13 113,-71 113,-139 0,-77 -63,-141 -141,-141 -78,0 -141,64 -141,141 0,68 48,126 113,139zm28 -223c47,0 85,38 85,84 0,47 -38,85 -85,85 -47,0 -85,-38 -85,-85 0,-46 38,-84 85,-84zm649 508l-1298 0 0 -791 1298 0 0 791z"/>
  </g>
 </g>
</svg>
