<?xml version="1.0" encoding="UTF-8"?>
<!DOCTYPE svg PUBLIC "-//W3C//DTD SVG 1.1//EN" "http://www.w3.org/Graphics/SVG/1.1/DTD/svg11.dtd">
<!-- Creator: CorelDRAW X7 -->
<svg xmlns="http://www.w3.org/2000/svg" xml:space="preserve" width="100%" height="100%" version="1.1" style="shape-rendering:geometricPrecision; text-rendering:geometricPrecision; image-rendering:optimizeQuality; fill-rule:evenodd; clip-rule:evenodd"
viewBox="0 0 26000 26000"
 xmlns:xlink="http://www.w3.org/1999/xlink">
 <defs>
  <style type="text/css">
   <![CDATA[
    .fil0 {fill:none}
    .fil1 {fill:black}
   ]]>
  </style>
 </defs>
 <g id="Layer_x0020_1">
  <metadata id="CorelCorpID_0Corel-Layer"/>
  <g id="_1917746767632">
   <rect class="fil0" width="26000" height="26000"/>
   <path class="fil1" d="M11826 16060c301,-301 716,-487 1174,-487 458,0 873,186 1174,487 301,300 487,716 487,1174 0,396 -140,762 -374,1048 -195,239 -456,423 -754,524l0 1500 -1065 0 0 -1500c-299,-101 -560,-285 -755,-524 -234,-286 -374,-652 -374,-1048 0,-458 186,-874 487,-1174zm-2809 -3309l0 -3983c0,-1099 447,-2094 1168,-2816 721,-721 1717,-1168 2815,-1168 1098,0 2094,447 2815,1168 722,722 1168,1717 1168,2816l0 3983 -7966 0zm3983 -9032c-1392,0 -2654,566 -3568,1480 -914,914 -1480,2177 -1480,3569l0 3983 -2257 0 0 9530 14611 0 0 -9530 -2258 0 0 -3983c0,-1392 -566,-2655 -1480,-3569 -914,-914 -2176,-1480 -3568,-1480z"/>
  </g>
 </g>
</svg>
