<?xml version="1.0" encoding="UTF-8"?>
<!DOCTYPE svg PUBLIC "-//W3C//DTD SVG 1.1//EN" "http://www.w3.org/Graphics/SVG/1.1/DTD/svg11.dtd">
<!-- Creator: CorelDRAW X7 -->
<svg xmlns="http://www.w3.org/2000/svg" xml:space="preserve" width="100%" height="100%" version="1.1" style="shape-rendering:geometricPrecision; text-rendering:geometricPrecision; image-rendering:optimizeQuality; fill-rule:evenodd; clip-rule:evenodd"
viewBox="0 0 26000 26000"
 xmlns:xlink="http://www.w3.org/1999/xlink">
 <defs>
  <style type="text/css">
   <![CDATA[
    .fil0 {fill:none}
    .fil1 {fill:black}
   ]]>
  </style>
 </defs>
 <g id="Layer_x0020_1">
  <metadata id="CorelCorpID_0Corel-Layer"/>
  <g id="_1917743813360">
   <rect class="fil0" width="26000" height="26000"/>
   <path class="fil1" d="M8767 8768c0,-2335 1899,-4234 4233,-4234 2334,0 4233,1899 4233,4234l0 846 565 0 0 -846c0,-2646 -2152,-4799 -4798,-4799 -2646,0 -4798,2153 -4798,4799l0 4233 -2257 0 0 9030 14111 0 0 -9030 -11289 0 0 -4233zm3951 9848l0 1440 565 0 0 -1440c643,-131 1128,-701 1128,-1382 0,-778 -632,-1411 -1411,-1411 -778,0 -1411,633 -1411,1411 0,681 485,1251 1129,1382zm282 -2230c467,0 846,381 846,848 0,466 -379,846 -846,846 -467,0 -846,-380 -846,-846 0,-467 379,-848 846,-848zm6490 5082l-12980 0 0 -7904 12980 0 0 7904z"/>
  </g>
 </g>
</svg>
