<?xml version="1.0" encoding="UTF-8"?>
<!DOCTYPE svg PUBLIC "-//W3C//DTD SVG 1.1//EN" "http://www.w3.org/Graphics/SVG/1.1/DTD/svg11.dtd">
<!-- Creator: CorelDRAW X7 -->
<svg xmlns="http://www.w3.org/2000/svg" xml:space="preserve" width="100%" height="100%" version="1.1" style="shape-rendering:geometricPrecision; text-rendering:geometricPrecision; image-rendering:optimizeQuality; fill-rule:evenodd; clip-rule:evenodd"
viewBox="0 0 26000 26000"
 xmlns:xlink="http://www.w3.org/1999/xlink">
 <defs>
  <style type="text/css">
   <![CDATA[
    .fil0 {fill:none}
    .fil1 {fill:black}
   ]]>
  </style>
 </defs>
 <g id="Layer_x0020_1">
  <metadata id="CorelCorpID_0Corel-Layer"/>
  <g id="_1917748426048">
   <rect class="fil0" width="26000" height="26000"/>
   <path class="fil1" d="M9628 6639l30 12014c6,1852 1526,3372 3378,3378 2222,7 3343,-1894 3337,-3337l-26 -10910 -552 -2 45 10891c34,1157 -915,2793 -2826,2827 -1536,-4 -2821,-1289 -2825,-2825l-30 -12013c-4,-1183 938,-2125 2100,-2101 1183,4 2131,952 2114,2114l47 10654c2,749 -625,1377 -1374,1375 -749,-2 -1380,-634 -1382,-1382l-23 -9614 -552 -1 21 9611c2,1063 872,1934 1936,1935 1064,2 1926,-860 1924,-1924l-24 -10673c-6,-1970 -1767,-2688 -2687,-2686 -1272,-32 -2669,1122 -2631,2669z"/>
  </g>
 </g>
</svg>
