<?xml version="1.0" encoding="UTF-8"?>
<!DOCTYPE svg PUBLIC "-//W3C//DTD SVG 1.1//EN" "http://www.w3.org/Graphics/SVG/1.1/DTD/svg11.dtd">
<!-- Creator: CorelDRAW X7 -->
<svg xmlns="http://www.w3.org/2000/svg" xml:space="preserve" width="100%" height="100%" version="1.1" style="shape-rendering:geometricPrecision; text-rendering:geometricPrecision; image-rendering:optimizeQuality; fill-rule:evenodd; clip-rule:evenodd"
viewBox="0 0 26000 26000"
 xmlns:xlink="http://www.w3.org/1999/xlink">
 <defs>
  <style type="text/css">
   <![CDATA[
    .fil0 {fill:none}
    .fil1 {fill:black}
   ]]>
  </style>
 </defs>
 <g id="Layer_x0020_1">
  <metadata id="CorelCorpID_0Corel-Layer"/>
  <g id="_1917742831184">
   <rect class="fil0" width="26000" height="26000"/>
   <path class="fil1" d="M10542 19750l8474 -8516c1305,-1314 1305,-3464 0,-4778 -1566,-1577 -3703,-1024 -4719,0l-7696 7733 389 392 7669 -7734c793,-842 2622,-1327 3997,0 1083,1089 1083,2907 0,3995l-8473 8516c-834,840 -2166,840 -2971,0 -833,-839 -833,-2179 0,-2989l7500 -7567c529,-531 1416,-531 1944,0 528,531 528,1424 0,1954l-6781 6814 388 391 6782 -6811c751,-753 751,-1984 0,-2737 -751,-753 -1971,-753 -2721,0l-7530 7564c-1389,1397 -651,3151 0,3800 877,922 2681,1094 3748,-27z"/>
  </g>
 </g>
</svg>
