<?xml version="1.0" encoding="UTF-8"?>
<!DOCTYPE svg PUBLIC "-//W3C//DTD SVG 1.1//EN" "http://www.w3.org/Graphics/SVG/1.1/DTD/svg11.dtd">
<!-- Creator: CorelDRAW X7 -->
<svg xmlns="http://www.w3.org/2000/svg" xml:space="preserve" width="100%" height="100%" version="1.1" style="shape-rendering:geometricPrecision; text-rendering:geometricPrecision; image-rendering:optimizeQuality; fill-rule:evenodd; clip-rule:evenodd"
viewBox="0 0 2600 2600"
 xmlns:xlink="http://www.w3.org/1999/xlink">
 <defs>
  <style type="text/css">
   <![CDATA[
    .fil1 {fill:none}
    .fil0 {fill:black}
   ]]>
  </style>
 </defs>
 <g id="Layer_x0020_1">
  <metadata id="CorelCorpID_0Corel-Layer"/>
  <g id="_2307338472576">
   <path class="fil0" d="M1328 1046l-56 0 0 226 -226 0 0 56 226 0 0 226 56 0 0 -226 226 0 0 -56 -226 0 0 -226zm-28 -339c-327,0 -593,266 -593,593 0,327 266,593 593,593 327,0 593,-266 593,-593 0,-327 -266,-593 -593,-593zm0 1129c-296,0 -536,-240 -536,-536 0,-296 240,-536 536,-536 296,0 536,240 536,536 0,296 -240,536 -536,536z"/>
   <rect class="fil1" width="2600" height="2600"/>
  </g>
 </g>
</svg>
