<?xml version="1.0" encoding="UTF-8"?>
<!DOCTYPE svg PUBLIC "-//W3C//DTD SVG 1.1//EN" "http://www.w3.org/Graphics/SVG/1.1/DTD/svg11.dtd">
<!-- Creator: CorelDRAW X7 -->
<svg xmlns="http://www.w3.org/2000/svg" xml:space="preserve" width="100%" height="100%" version="1.1" style="shape-rendering:geometricPrecision; text-rendering:geometricPrecision; image-rendering:optimizeQuality; fill-rule:evenodd; clip-rule:evenodd"
viewBox="0 0 2600 2600"
 xmlns:xlink="http://www.w3.org/1999/xlink">
 <defs>
  <style type="text/css">
   <![CDATA[
    .fil0 {fill:none}
    .fil1 {fill:black}
   ]]>
  </style>
 </defs>
 <g id="Layer_x0020_1">
  <metadata id="CorelCorpID_0Corel-Layer"/>
  <g id="_2307272644048">
   <rect class="fil0" width="2600" height="2600"/>
   <path class="fil1" d="M1607 913l340 1157 54 -16 -100 -342 164 -55 -128 -449 -168 56 -109 -370 -53 16 0 -287c-357,0 -715,0 -1072,0l0 1467 1072 0 0 -1177zm-395 -8l57 0 0 960 -57 0 0 -960zm-338 0l56 0 0 960 -56 0 0 -960zm1025 375l97 341 -111 37 -100 -340 114 -38zm-348 754l-960 0 0 -1355 960 0 0 1355z"/>
  </g>
 </g>
</svg>
