<?xml version="1.0" encoding="UTF-8"?>
<!DOCTYPE svg PUBLIC "-//W3C//DTD SVG 1.1//EN" "http://www.w3.org/Graphics/SVG/1.1/DTD/svg11.dtd">
<!-- Creator: CorelDRAW X7 -->
<svg xmlns="http://www.w3.org/2000/svg" xml:space="preserve" width="100%" height="100%" version="1.1" style="shape-rendering:geometricPrecision; text-rendering:geometricPrecision; image-rendering:optimizeQuality; fill-rule:evenodd; clip-rule:evenodd"
viewBox="0 0 2600 2600"
 xmlns:xlink="http://www.w3.org/1999/xlink">
 <defs>
  <style type="text/css">
   <![CDATA[
    .fil0 {fill:none}
    .fil1 {fill:black}
   ]]>
  </style>
 </defs>
 <g id="Layer_x0020_1">
  <metadata id="CorelCorpID_0Corel-Layer"/>
  <g id="_2307275859136">
   <rect class="fil0" width="2600" height="2600"/>
   <path class="fil1" d="M1300 1752c442,0 729,-249 843,-371 -19,196 -104,377 -244,518 -160,160 -373,248 -599,248 -217,0 -421,-81 -578,-229l223 -223c104,34 223,57 355,57zm903 -443l0 -18c-2,-238 -96,-461 -264,-630 -171,-170 -398,-264 -639,-264 -241,0 -468,94 -638,264 -169,169 -263,392 -265,630l0 18c2,238 96,461 265,630 170,170 397,264 638,264 241,0 468,-94 639,-264 168,-169 262,-392 264,-630zm-60 -90c-73,-78 -218,-209 -430,-292l205 -205c129,137 207,311 225,497zm-488 -314c-104,-34 -223,-57 -355,-57 -442,0 -729,250 -843,371 19,-196 104,-377 244,-518 160,-160 373,-248 599,-248 217,0 421,81 578,229l-223 223zm-1198 476c73,78 218,209 430,292l-205 205c-129,-137 -207,-311 -225,-497zm843 145c124,0 226,-102 226,-226 0,-52 -18,-100 -48,-138l191 -191c262,98 424,274 470,329 -65,77 -360,395 -839,395 -114,0 -217,-18 -309,-46l171 -171c38,30 86,48 138,48zm138 -404c-38,-30 -86,-48 -138,-48 -125,0 -226,101 -226,226 0,52 18,100 48,138l-191 191c-262,-98 -424,-274 -470,-329 65,-77 360,-395 839,-395 114,0 217,18 309,46l-171 171zm-276 276l236 -236c-28,-20 -61,-31 -98,-31 -93,0 -169,76 -169,169 0,36 11,70 31,98zm276 -196l-236 236c28,20 61,31 98,31 93,0 169,-76 169,-169 0,-37 -11,-70 -31,-98z"/>
  </g>
 </g>
</svg>
