<?xml version="1.0" encoding="UTF-8"?>
<!DOCTYPE svg PUBLIC "-//W3C//DTD SVG 1.1//EN" "http://www.w3.org/Graphics/SVG/1.1/DTD/svg11.dtd">
<!-- Creator: CorelDRAW X7 -->
<svg xmlns="http://www.w3.org/2000/svg" xml:space="preserve" width="100%" height="100%" version="1.1" style="shape-rendering:geometricPrecision; text-rendering:geometricPrecision; image-rendering:optimizeQuality; fill-rule:evenodd; clip-rule:evenodd"
viewBox="0 0 2600 2600"
 xmlns:xlink="http://www.w3.org/1999/xlink">
 <defs>
  <style type="text/css">
   <![CDATA[
    .fil0 {fill:none}
    .fil1 {fill:black}
   ]]>
  </style>
 </defs>
 <g id="Layer_x0020_1">
  <metadata id="CorelCorpID_0Corel-Layer"/>
  <g id="_2724832479936">
   <rect class="fil0" width="2600" height="2600"/>
   <path class="fil1" d="M1616 1576c-153,0 -292,-59 -398,-154l-126 126 84 85 -576 576 -209 -209 576 -576 85 84 126 -126c-95,-106 -154,-245 -154,-398 0,-327 266,-593 592,-593 327,0 593,266 593,593 0,326 -266,592 -593,592zm-126 -660c-10,-17 -14,-37 -14,-60 0,-39 14,-72 42,-96 18,-17 46,-27 83,-31l0 -26 33 0 0 26c33,3 58,13 77,29 24,20 39,48 44,84l-57 9c-3,-22 -10,-39 -21,-51 -10,-12 -24,-20 -43,-24l0 161c28,7 47,13 56,17 17,8 31,17 42,28 11,11 20,24 26,39 5,15 8,31 8,49 0,39 -12,71 -36,97 -25,26 -57,39 -96,41l0 57 -33 0 0 -56c-28,-4 -50,-10 -68,-19 -17,-9 -32,-23 -45,-43 -13,-21 -20,-45 -22,-74l56 -11c4,30 12,52 23,67 16,19 34,31 56,33l0 -176c-23,-5 -46,-15 -70,-29 -18,-9 -31,-23 -41,-41zm57 -16c11,13 29,22 54,29l0 -153c-21,3 -38,12 -51,26 -12,14 -19,31 -19,50 0,19 6,35 16,48zm87 95l0 167c22,-3 40,-12 54,-28 14,-16 21,-36 21,-60 0,-21 -5,-37 -15,-49 -10,-12 -30,-22 -60,-30zm-1163 1005l129 129 497 -496 -130 -130 -496 497zm1145 -1552c-295,0 -536,240 -536,536 0,295 241,536 536,536 296,0 536,-241 536,-536 0,-296 -240,-536 -536,-536z"/>
  </g>
 </g>
</svg>
