<?xml version="1.0" encoding="UTF-8"?>
<!DOCTYPE svg PUBLIC "-//W3C//DTD SVG 1.1//EN" "http://www.w3.org/Graphics/SVG/1.1/DTD/svg11.dtd">
<!-- Creator: CorelDRAW X7 -->
<svg xmlns="http://www.w3.org/2000/svg" xml:space="preserve" width="100%" height="100%" version="1.1" style="shape-rendering:geometricPrecision; text-rendering:geometricPrecision; image-rendering:optimizeQuality; fill-rule:evenodd; clip-rule:evenodd"
viewBox="0 0 2600 2600"
 xmlns:xlink="http://www.w3.org/1999/xlink">
 <defs>
  <style type="text/css">
   <![CDATA[
    .fil0 {fill:none}
    .fil1 {fill:black}
   ]]>
  </style>
 </defs>
 <g id="Layer_x0020_1">
  <metadata id="CorelCorpID_0Corel-Layer"/>
  <g id="_2724830577568">
   <rect class="fil0" width="2600" height="2600"/>
   <path class="fil1" d="M1300 397c241,0 468,94 639,265 170,170 264,397 264,638 0,241 -94,468 -264,639 -171,170 -398,264 -639,264 -241,0 -468,-94 -639,-264 -170,-171 -264,-398 -264,-639 0,-241 94,-468 264,-638 171,-171 398,-265 639,-265zm-16 1278l0 -75c-34,-5 -60,-14 -79,-28 -19,-13 -35,-33 -47,-59 -13,-26 -20,-57 -23,-94l61 -14c6,44 16,77 32,98 16,20 35,32 56,34l0 -237c-28,-6 -55,-18 -81,-38 -18,-13 -32,-30 -42,-53 -10,-23 -16,-49 -16,-79 0,-32 6,-60 18,-85 12,-26 27,-45 46,-58 18,-14 43,-22 75,-26l0 -36 36 0 0 36c25,3 47,10 65,22 17,11 32,28 43,49 12,21 20,47 24,78l-63 12c-7,-56 -30,-89 -69,-98l0 214c28,9 46,15 54,19 18,8 34,20 47,34 13,14 24,31 32,52 8,22 12,45 12,72 0,54 -14,97 -42,131 -28,33 -62,51 -103,53l0 76 -36 0zm0 -652c-24,4 -43,15 -57,33 -13,19 -21,42 -21,70 0,49 26,83 78,102l0 -205zm36 514c23,-3 42,-15 58,-36 16,-21 24,-48 24,-82 0,-28 -6,-49 -18,-66 -11,-16 -33,-30 -64,-42l0 226zm-619 362c160,160 373,248 599,248 226,0 439,-88 599,-248 160,-160 248,-373 248,-599 0,-226 -88,-439 -248,-599 -160,-160 -373,-248 -599,-248 -226,0 -439,88 -599,248 -160,160 -248,373 -248,599 0,226 88,439 248,599z"/>
  </g>
 </g>
</svg>
