<?xml version="1.0" encoding="UTF-8"?>
<!DOCTYPE svg PUBLIC "-//W3C//DTD SVG 1.1//EN" "http://www.w3.org/Graphics/SVG/1.1/DTD/svg11.dtd">
<!-- Creator: CorelDRAW X7 -->
<svg xmlns="http://www.w3.org/2000/svg" xml:space="preserve" width="100%" height="100%" version="1.1" style="shape-rendering:geometricPrecision; text-rendering:geometricPrecision; image-rendering:optimizeQuality; fill-rule:evenodd; clip-rule:evenodd"
viewBox="0 0 26000 26000"
 xmlns:xlink="http://www.w3.org/1999/xlink">
 <defs>
  <style type="text/css">
   <![CDATA[
    .fil0 {fill:none}
    .fil1 {fill:black}
   ]]>
  </style>
 </defs>
 <g id="Layer_x0020_1">
  <metadata id="CorelCorpID_0Corel-Layer"/>
  <g id="_2280498024032">
   <rect class="fil0" width="26000" height="26000"/>
   <path class="fil1" d="M16669 10176c0,-497 -89,-936 -250,-1315 -169,-399 -420,-736 -731,-1010 -454,-400 -1051,-673 -1699,-816l0 5906c708,173 1378,384 1922,722 193,120 372,256 531,411 162,158 303,334 418,532 362,626 448,1388 313,2111 -139,740 -513,1444 -1064,1921 -571,494 -1321,804 -2120,935l0 1329 -565 0 0 -1267c-130,7 -260,10 -391,9 -152,-2 -305,-10 -457,-24l0 1282 -564 0 0 -1363c-786,-154 -1519,-478 -2073,-966 -372,-328 -673,-733 -877,-1213 -190,-450 -296,-962 -296,-1536l282 0 283 0c0,497 89,936 250,1315 169,399 420,736 731,1010 454,400 1052,673 1700,816l0 -5894c-1210,-299 -2314,-713 -2872,-1677 -362,-625 -448,-1388 -312,-2111 138,-740 512,-1444 1063,-1921 571,-494 1321,-804 2121,-934l0 -1330 564 0 0 1267c130,-7 261,-10 391,-9 152,2 305,10 457,24l0 -1282 565 0 0 1363c785,154 1518,478 2072,966 372,328 673,733 877,1214 190,449 296,961 296,1535l-182 0 -100 0 -283 0zm-3245 -3231c-153,-16 -307,-24 -462,-26 -129,-1 -257,2 -386,10l0 5695c169,38 338,75 508,112l260 57 80 17 0 -5865zm-1412 54c-666,121 -1284,383 -1752,789 -453,392 -762,979 -878,1598 -113,598 -45,1222 246,1725 432,746 1349,1110 2384,1377l0 -5489zm564 12056c153,16 308,24 462,26 129,1 258,-2 386,-10l0 -5682c-153,-35 -306,-68 -460,-102l-245 -53 -143 -32 0 5853zm1413 -54c665,-121 1283,-383 1752,-789 453,-392 761,-979 878,-1598 112,-598 44,-1222 -247,-1725 -89,-153 -197,-289 -323,-411 -127,-124 -274,-236 -436,-336 -446,-277 -1013,-464 -1624,-619l0 5478z"/>
  </g>
 </g>
</svg>
