<?xml version="1.0" encoding="UTF-8"?>
<!DOCTYPE svg PUBLIC "-//W3C//DTD SVG 1.1//EN" "http://www.w3.org/Graphics/SVG/1.1/DTD/svg11.dtd">
<!-- Creator: CorelDRAW X7 -->
<svg xmlns="http://www.w3.org/2000/svg" xml:space="preserve" width="100%" height="100%" version="1.1" style="shape-rendering:geometricPrecision; text-rendering:geometricPrecision; image-rendering:optimizeQuality; fill-rule:evenodd; clip-rule:evenodd"
viewBox="0 0 26000 26000"
 xmlns:xlink="http://www.w3.org/1999/xlink">
 <defs>
  <style type="text/css">
   <![CDATA[
    .fil0 {fill:none}
    .fil1 {fill:black}
   ]]>
  </style>
 </defs>
 <g id="Layer_x0020_1">
  <metadata id="CorelCorpID_0Corel-Layer"/>
  <g id="_1163568883296">
   <rect class="fil0" width="26000" height="26000"/>
   <path class="fil1" d="M13000 21466c-2261,0 -4388,-881 -5987,-2479 -1599,-1600 -2479,-3726 -2479,-5988 0,-2261 880,-4386 2479,-5986 1599,-1598 3726,-2480 5987,-2480 2261,0 4388,882 5986,2480 1600,1600 2481,3725 2481,5986 0,2262 -881,4388 -2481,5988 -1598,1598 -3725,2479 -5986,2479zm1944 -5060c-991,858 -2879,817 -3855,-42 -441,-389 -716,-953 -716,-1686l-565 0c0,910 349,1617 908,2110 527,463 1252,730 2001,792l0 1433 566 0 0 -1425c756,-41 1492,-290 2029,-756 867,-750 1158,-2153 579,-3153 -186,-321 -447,-565 -757,-758 -1130,-701 -2703,-588 -3723,-1221 -805,-500 -684,-1684 -25,-2247 794,-678 2391,-631 3174,41 352,301 572,746 572,1340l565 0c0,-774 -296,-1362 -771,-1769 -428,-367 -1023,-585 -1643,-645l0 -1433 -566 0 0 1420c-637,36 -1254,239 -1697,618 -955,814 -1037,2452 93,3154 1088,675 2669,567 3723,1221 235,147 432,328 567,562 440,761 199,1875 -459,2444zm4442 -9791c-1706,-1706 -3974,-2646 -6386,-2646 -2413,0 -4680,940 -6386,2646 -1706,1705 -2646,3973 -2646,6384 0,2413 940,4680 2646,6386 1706,1706 3973,2646 6386,2646 2412,0 4680,-940 6386,-2646 1706,-1706 2646,-3973 2646,-6386 0,-2411 -940,-4679 -2646,-6384z"/>
  </g>
 </g>
</svg>
