<?xml version="1.0" encoding="UTF-8"?>
<!DOCTYPE svg PUBLIC "-//W3C//DTD SVG 1.1//EN" "http://www.w3.org/Graphics/SVG/1.1/DTD/svg11.dtd">
<!-- Creator: CorelDRAW X7 -->
<svg xmlns="http://www.w3.org/2000/svg" xml:space="preserve" width="100%" height="100%" version="1.1" style="shape-rendering:geometricPrecision; text-rendering:geometricPrecision; image-rendering:optimizeQuality; fill-rule:evenodd; clip-rule:evenodd"
viewBox="0 0 2600 2600"
 xmlns:xlink="http://www.w3.org/1999/xlink">
 <defs>
  <style type="text/css">
   <![CDATA[
    .fil0 {fill:none}
    .fil1 {fill:black}
   ]]>
  </style>
 </defs>
 <g id="Layer_x0020_1">
  <metadata id="CorelCorpID_0Corel-Layer"/>
  <g id="_2724840519632">
   <rect class="fil0" width="2600" height="2600"/>
   <path class="fil1" d="M2226 802l34 0 0 0 0 0 -14 57 0 0 -184 743 -1263 0c-49,-314 -99,-627 -148,-941l-311 0 0 -56 355 0 31 197 1500 0zm-336 850c95,0 172,77 172,172 0,95 -77,171 -172,171 -94,0 -171,-76 -171,-171 0,-95 77,-172 171,-172zm82 90c-21,-21 -50,-34 -82,-34 -31,0 -60,13 -81,34 -21,21 -34,50 -34,82 0,31 13,60 34,81 21,21 50,34 81,34 32,0 61,-13 82,-34 21,-21 34,-50 34,-81 0,-32 -13,-61 -34,-82zm-1001 -90c95,0 172,77 172,172 0,95 -77,171 -172,171 -95,0 -172,-76 -172,-171 0,-95 77,-172 172,-172zm82 90c-21,-21 -50,-34 -82,-34 -32,0 -61,13 -81,34 -21,21 -34,50 -34,82 0,31 13,60 34,81 20,21 49,34 81,34 32,0 61,-13 82,-34 20,-21 33,-50 33,-81 0,-32 -13,-61 -33,-82zm-318 -883l1453 0 -169 687 -1176 -1 -108 -686z"/>
  </g>
 </g>
</svg>
