<?xml version="1.0" encoding="UTF-8"?>
<!DOCTYPE svg PUBLIC "-//W3C//DTD SVG 1.1//EN" "http://www.w3.org/Graphics/SVG/1.1/DTD/svg11.dtd">
<!-- Creator: CorelDRAW X7 -->
<svg xmlns="http://www.w3.org/2000/svg" xml:space="preserve" width="100%" height="100%" version="1.1" style="shape-rendering:geometricPrecision; text-rendering:geometricPrecision; image-rendering:optimizeQuality; fill-rule:evenodd; clip-rule:evenodd"
viewBox="0 0 26000 26000"
 xmlns:xlink="http://www.w3.org/1999/xlink">
 <defs>
  <style type="text/css">
   <![CDATA[
    .fil0 {fill:none}
    .fil1 {fill:black}
   ]]>
  </style>
 </defs>
 <g id="Layer_x0020_1">
  <metadata id="CorelCorpID_0Corel-Layer"/>
  <g id="_1163844402336">
   <rect class="fil0" width="26000" height="26000"/>
   <path class="fil1" d="M14944 16406c-433,375 -1037,578 -1661,617l0 -4163c560,122 1104,262 1553,540 235,147 432,328 567,562 440,761 199,1875 -459,2444zm-2227 607c-615,-60 -1206,-278 -1628,-649 -441,-389 -716,-953 -716,-1686l-565 0c0,910 349,1617 908,2110 527,463 1252,730 2001,792l0 1433 566 0 0 -1425c756,-41 1492,-290 2029,-756 867,-750 1158,-2153 579,-3153 -186,-321 -447,-565 -757,-758 -550,-342 -1206,-490 -1851,-625l0 -3308c488,57 952,227 1277,506 352,301 572,746 572,1340l565 0c0,-774 -296,-1362 -771,-1769 -428,-367 -1023,-585 -1643,-645l0 -1433 -566 0 0 1420c-637,36 -1254,239 -1697,618 -955,814 -1037,2452 93,3154 470,292 1032,437 1604,561l0 4273zm0 -4838c-477,-109 -929,-241 -1306,-475 -805,-500 -684,-1684 -25,-2247 339,-290 825,-447 1331,-480l0 3202z"/>
  </g>
 </g>
</svg>
