<?xml version="1.0" encoding="UTF-8"?>
<!DOCTYPE svg PUBLIC "-//W3C//DTD SVG 1.1//EN" "http://www.w3.org/Graphics/SVG/1.1/DTD/svg11.dtd">
<!-- Creator: CorelDRAW X7 -->
<svg xmlns="http://www.w3.org/2000/svg" xml:space="preserve" width="100%" height="100%" version="1.1" style="shape-rendering:geometricPrecision; text-rendering:geometricPrecision; image-rendering:optimizeQuality; fill-rule:evenodd; clip-rule:evenodd"
viewBox="0 0 2600 2600"
 xmlns:xlink="http://www.w3.org/1999/xlink">
 <defs>
  <style type="text/css">
   <![CDATA[
    .fil0 {fill:none}
    .fil1 {fill:black}
   ]]>
  </style>
 </defs>
 <g id="Layer_x0020_1">
  <metadata id="CorelCorpID_0Corel-Layer"/>
  <g id="_2307272697136">
   <rect class="fil0" width="2600" height="2600"/>
   <path class="fil1" d="M1046 1458l496 -497 -338 -338 149 -150 20 14c1,0 71,50 160,50 63,0 121,-26 170,-75l20 -20 492 491 -351 350 -282 -282 -496 496 85 85 -576 576 -210 -209 576 -576 85 85zm1089 -525l-412 -412c-56,48 -120,72 -190,72 -77,0 -141,-30 -172,-47l-77 77 580 581 271 -271zm-1540 1145l496 -496 -130 -129 -496 496 130 129z"/>
  </g>
 </g>
</svg>
