<?xml version="1.0" encoding="UTF-8"?>
<!DOCTYPE svg PUBLIC "-//W3C//DTD SVG 1.1//EN" "http://www.w3.org/Graphics/SVG/1.1/DTD/svg11.dtd">
<!-- Creator: CorelDRAW X7 -->
<svg xmlns="http://www.w3.org/2000/svg" xml:space="preserve" width="100%" height="100%" version="1.1" style="shape-rendering:geometricPrecision; text-rendering:geometricPrecision; image-rendering:optimizeQuality; fill-rule:evenodd; clip-rule:evenodd"
viewBox="0 0 26000 26000"
 xmlns:xlink="http://www.w3.org/1999/xlink">
 <defs>
  <style type="text/css">
   <![CDATA[
    .fil0 {fill:none}
    .fil1 {fill:black}
   ]]>
  </style>
 </defs>
 <g id="Layer_x0020_1">
  <metadata id="CorelCorpID_0Corel-Layer"/>
  <g id="_2278934371376">
   <rect class="fil0" width="26000" height="26000"/>
   <path class="fil1" d="M3969 6790l10912 0c97,-204 229,-388 387,-546l2 -3c358,-357 852,-579 1395,-579 542,0 1036,221 1395,579l2 2c158,159 289,344 387,547l3582 0 0 1696 -3581 0c-98,204 -230,390 -388,549 -356,356 -850,577 -1397,577l0 2c-545,0 -1039,-222 -1397,-580 -158,-158 -290,-344 -388,-548l-10911 0 0 -1696zm10740 565l-10175 0 0 566 10175 0c-13,-93 -20,-187 -20,-283 0,-96 7,-190 20,-283zm3912 0c13,93 20,187 20,283 0,96 -7,190 -20,283l2845 0 0 -566 -2845 0zm-3367 283c0,-779 634,-1411 1411,-1411 779,0 1411,632 1411,1411 0,777 -632,1411 -1411,1411 -777,0 -1411,-634 -1411,-1411zm-565 10724c0,-96 7,-190 20,-283l-10175 0 0 566 10175 0c-13,-93 -20,-187 -20,-283zm192 -848c97,-204 229,-388 387,-546l2 -3c358,-357 852,-579 1395,-579 542,0 1036,221 1395,579l2 2c158,159 289,344 387,547l3582 0 0 1696 -3581 0c-98,204 -230,390 -388,549 -356,356 -850,577 -1397,577l0 2c-545,0 -1039,-222 -1397,-580 -158,-158 -290,-344 -388,-548l-10911 0 0 -1696 10912 0zm3740 565c13,93 20,187 20,283 0,96 -7,190 -20,283l2845 0 0 -566 -2845 0zm-3367 283c0,-779 634,-1411 1411,-1411 779,0 1411,632 1411,1411 0,777 -632,1411 -1411,1411 -777,0 -1411,-634 -1411,-1411zm6212 -5645l-10175 0c13,93 20,187 20,283 0,96 -7,190 -20,283l10175 0 0 -566zm-10347 -565l10912 0 0 1696 -10911 0c-98,204 -230,390 -388,549 -358,357 -852,579 -1397,579l0 -2c-547,0 -1041,-221 -1397,-577 -158,-159 -290,-344 -388,-549l-3581 0 0 -1696 3582 0c98,-203 229,-388 387,-547l2 -2c359,-358 853,-579 1395,-579 543,0 1037,222 1395,579l2 3c158,158 290,342 387,546zm-3740 565l-2845 0 0 566 2845 0c-13,-93 -20,-187 -20,-283 0,-96 7,-190 20,-283zm3367 283c0,-778 -634,-1411 -1411,-1411 -778,0 -1411,633 -1411,1411 0,777 632,1411 1411,1411 777,0 1411,-634 1411,-1411z"/>
  </g>
 </g>
</svg>
