<?xml version="1.0" encoding="UTF-8"?>
<!DOCTYPE svg PUBLIC "-//W3C//DTD SVG 1.1//EN" "http://www.w3.org/Graphics/SVG/1.1/DTD/svg11.dtd">
<!-- Creator: CorelDRAW X7 -->
<svg xmlns="http://www.w3.org/2000/svg" xml:space="preserve" width="100%" height="100%" version="1.1" style="shape-rendering:geometricPrecision; text-rendering:geometricPrecision; image-rendering:optimizeQuality; fill-rule:evenodd; clip-rule:evenodd"
viewBox="0 0 2600 2600"
 xmlns:xlink="http://www.w3.org/1999/xlink">
 <defs>
  <style type="text/css">
   <![CDATA[
    .fil0 {fill:none}
    .fil1 {fill:black}
   ]]>
  </style>
 </defs>
 <g id="Layer_x0020_1">
  <metadata id="CorelCorpID_0Corel-Layer"/>
  <g id="_2724754296848">
   <rect class="fil0" width="2600" height="2600"/>
   <path class="fil1" d="M1131 1300c0,-78 -64,-141 -141,-141 -78,0 -141,63 -141,141 0,78 63,141 141,141 77,0 141,-63 141,-141zm733 536c0,-78 -63,-141 -141,-141 -78,0 -141,63 -141,141 0,78 63,141 141,141 78,0 141,-63 141,-141zm-1 -139c29,29 50,68 56,111l228 0 0 56 -228 0c-6,44 -27,82 -56,112 -36,36 -85,58 -140,58l0 0c-54,0 -104,-23 -139,-58 -30,-30 -50,-68 -56,-112l-1075 0 0 -56 1075 0c6,-43 26,-82 56,-111l0 0c36,-36 85,-58 139,-58 55,0 104,22 140,58l0 0zm-1069 -425l-341 0 0 56 341 0c6,43 27,82 56,112 36,35 85,57 140,57l0 1c54,0 104,-23 139,-58 30,-30 50,-69 56,-112l962 0 0 -56 -962 0c-6,-43 -26,-82 -56,-111l0 -1c-36,-35 -85,-58 -139,-58 -55,0 -104,23 -140,58l0 1c-29,29 -50,68 -56,111zm955 -480l398 0 0 -56 -398 0c-6,-44 -26,-82 -56,-112l0 0c-36,-36 -85,-58 -139,-58 -54,0 -104,22 -140,58l0 0c-29,30 -50,69 -56,112l-905 0 0 56 905 0c6,43 27,82 56,111 36,36 85,58 140,58l0 0c54,0 104,-22 139,-58 30,-29 50,-68 56,-111zm-54 -28c0,-78 -64,-141 -141,-141 -78,0 -141,63 -141,141 0,77 63,141 141,141 77,0 141,-63 141,-141z"/>
  </g>
 </g>
</svg>
