<?xml version="1.0" encoding="UTF-8"?>
<!DOCTYPE svg PUBLIC "-//W3C//DTD SVG 1.1//EN" "http://www.w3.org/Graphics/SVG/1.1/DTD/svg11.dtd">
<!-- Creator: CorelDRAW X7 -->
<svg xmlns="http://www.w3.org/2000/svg" xml:space="preserve" width="100%" height="100%" version="1.1" style="shape-rendering:geometricPrecision; text-rendering:geometricPrecision; image-rendering:optimizeQuality; fill-rule:evenodd; clip-rule:evenodd"
viewBox="0 0 2600 2600"
 xmlns:xlink="http://www.w3.org/1999/xlink">
 <defs>
  <style type="text/css">
   <![CDATA[
    .fil1 {fill:none}
    .fil0 {fill:black}
   ]]>
  </style>
 </defs>
 <g id="Layer_x0020_1">
  <metadata id="CorelCorpID_0Corel-Layer"/>
  <g id="_2307283501552">
   <path class="fil0" d="M1836 2203c-202,0 -367,-164 -367,-367 0,-76 24,-147 64,-206l-611 -388c-56,53 -131,86 -215,86 -171,0 -310,-139 -310,-310 0,-171 139,-311 310,-311 117,0 219,65 272,161l519 -208c0,-3 0,-6 0,-9 0,-140 114,-254 254,-254 140,0 254,114 254,254 0,140 -114,254 -254,254 -117,0 -216,-80 -245,-188l-506 202c11,31 17,64 17,99 0,67 -22,130 -59,181l610 387c66,-72 162,-117 267,-117 203,0 367,165 367,367 0,203 -164,367 -367,367zm-84 -1354c109,0 197,-89 197,-198 0,-109 -88,-198 -197,-198 -109,0 -198,89 -198,198 0,109 89,198 198,198zm-1045 -85c-140,0 -254,114 -254,254 0,140 114,254 254,254 140,0 254,-114 254,-254 0,-140 -114,-254 -254,-254zm1129 762c-171,0 -310,139 -310,310 0,171 139,311 310,311 171,0 311,-140 311,-311 0,-171 -140,-310 -311,-310z"/>
   <rect class="fil1" width="2600" height="2600"/>
  </g>
 </g>
</svg>
