<?xml version="1.0" encoding="UTF-8"?>
<!DOCTYPE svg PUBLIC "-//W3C//DTD SVG 1.1//EN" "http://www.w3.org/Graphics/SVG/1.1/DTD/svg11.dtd">
<!-- Creator: CorelDRAW X7 -->
<svg xmlns="http://www.w3.org/2000/svg" xml:space="preserve" width="100%" height="100%" version="1.1" style="shape-rendering:geometricPrecision; text-rendering:geometricPrecision; image-rendering:optimizeQuality; fill-rule:evenodd; clip-rule:evenodd"
viewBox="0 0 2600 2600"
 xmlns:xlink="http://www.w3.org/1999/xlink">
 <defs>
  <style type="text/css">
   <![CDATA[
    .fil0 {fill:none}
    .fil1 {fill:black}
   ]]>
  </style>
 </defs>
 <g id="Layer_x0020_1">
  <metadata id="CorelCorpID_0Corel-Layer"/>
  <g id="_2724844364608">
   <rect class="fil0" width="2600" height="2600"/>
   <path class="fil1" d="M397 1921l480 0 0 372 433 -372 893 0 0 -1242 -1806 0 0 1242zm1166 -549l50 -4c2,20 8,37 17,50 8,13 22,23 40,31 19,8 39,12 62,12 21,0 39,-3 54,-9 16,-6 27,-14 35,-25 8,-10 12,-22 12,-34 0,-13 -4,-24 -11,-33 -8,-10 -20,-18 -37,-24 -11,-4 -35,-11 -72,-20 -37,-9 -63,-17 -78,-25 -19,-10 -33,-23 -43,-38 -9,-15 -14,-32 -14,-50 0,-21 6,-40 17,-58 12,-17 29,-31 51,-40 22,-9 47,-14 74,-14 30,0 57,5 79,15 23,9 41,24 53,42 13,19 19,40 20,64l-51 4c-3,-26 -12,-45 -28,-58 -16,-13 -40,-19 -71,-19 -32,0 -56,6 -70,17 -15,12 -23,27 -23,43 0,15 6,27 16,36 10,9 37,19 81,29 43,10 73,18 89,26 24,11 41,24 52,41 11,16 17,35 17,57 0,22 -6,42 -19,61 -12,19 -29,34 -52,44 -24,11 -49,16 -78,16 -37,0 -67,-5 -92,-16 -25,-11 -44,-27 -58,-48 -14,-22 -21,-46 -22,-73zm-454 130l0 -404 80 0 96 286c9,27 15,47 19,60 5,-15 12,-36 22,-65l97 -281 71 0 0 404 -51 0 0 -338 -118 338 -48 0 -117 -344 0 344 -51 0zm-393 -130l50 -4c3,20 8,37 17,50 9,13 22,23 41,31 18,8 39,12 62,12 20,0 38,-3 54,-9 15,-6 27,-14 34,-25 8,-10 12,-22 12,-34 0,-13 -4,-24 -11,-33 -7,-10 -20,-18 -37,-24 -10,-4 -34,-11 -71,-20 -38,-9 -64,-17 -78,-25 -20,-10 -34,-23 -43,-38 -10,-15 -15,-32 -15,-50 0,-21 6,-40 18,-58 11,-17 28,-31 50,-40 23,-9 47,-14 75,-14 29,0 56,5 79,15 23,9 40,24 53,42 12,19 18,40 19,64l-51 4c-3,-26 -12,-45 -28,-58 -16,-13 -39,-19 -70,-19 -33,0 -56,6 -71,17 -15,12 -22,27 -22,43 0,15 5,27 15,36 11,9 38,19 81,29 43,10 73,18 89,26 24,11 41,24 53,41 11,16 16,35 16,57 0,22 -6,42 -18,61 -12,19 -30,34 -53,44 -23,11 -49,16 -78,16 -36,0 -67,-5 -92,-16 -24,-11 -44,-27 -58,-48 -14,-22 -21,-46 -22,-73zm-263 -636l1694 0 0 1128 -857 0 -357 306 0 -306 -480 0 0 -1128z"/>
  </g>
 </g>
</svg>
