<?xml version="1.0" encoding="UTF-8"?>
<!DOCTYPE svg PUBLIC "-//W3C//DTD SVG 1.1//EN" "http://www.w3.org/Graphics/SVG/1.1/DTD/svg11.dtd">
<!-- Creator: CorelDRAW X7 -->
<svg xmlns="http://www.w3.org/2000/svg" xml:space="preserve" width="100%" height="100%" version="1.1" style="shape-rendering:geometricPrecision; text-rendering:geometricPrecision; image-rendering:optimizeQuality; fill-rule:evenodd; clip-rule:evenodd"
viewBox="0 0 2600 2600"
 xmlns:xlink="http://www.w3.org/1999/xlink">
 <defs>
  <style type="text/css">
   <![CDATA[
    .fil2 {fill:none}
    .fil0 {fill:black}
    .fil1 {fill:#FF9D1F}
   ]]>
  </style>
 </defs>
 <g id="Layer_x0020_1">
  <metadata id="CorelCorpID_0Corel-Layer"/>
  <g id="_2724838226144">
   <g>
    <path class="fil0" d="M1300 358l-246 707 -683 0 557 433 -248 744 620 -465 620 465 -248 -744 557 -433 -683 0 -246 -707zm306 1120l203 611 -509 -382 -509 382 204 -611 -459 -357 558 0 206 -591 206 591 558 0 -458 357z"/>
    <polygon class="fil1" points="1300,530 1094,1121 536,1121 995,1478 791,2089 1300,1707 1809,2089 1606,1478 2064,1121 1506,1121 "/>
   </g>
   <rect class="fil2" width="2600" height="2600"/>
  </g>
 </g>
</svg>
