<?xml version="1.0" encoding="UTF-8"?>
<!DOCTYPE svg PUBLIC "-//W3C//DTD SVG 1.1//EN" "http://www.w3.org/Graphics/SVG/1.1/DTD/svg11.dtd">
<!-- Creator: CorelDRAW X7 -->
<svg xmlns="http://www.w3.org/2000/svg" xml:space="preserve" width="100%" height="100%" version="1.1" style="shape-rendering:geometricPrecision; text-rendering:geometricPrecision; image-rendering:optimizeQuality; fill-rule:evenodd; clip-rule:evenodd"
viewBox="0 0 2600 2600"
 xmlns:xlink="http://www.w3.org/1999/xlink">
 <defs>
  <style type="text/css">
   <![CDATA[
    .fil1 {fill:none}
    .fil0 {fill:black}
   ]]>
  </style>
 </defs>
 <g id="Layer_x0020_1">
  <metadata id="CorelCorpID_0Corel-Layer"/>
  <g id="_2307282253824">
   <path class="fil0" d="M1328 990l-56 0 0 -113 56 0 0 113zm-609 -306l0 249 56 0 0 -310 -28 -28 -310 0 0 56 235 0c-3,3 -7,7 -11,11 -170,170 -264,397 -264,638 0,241 94,468 264,639 171,170 398,264 639,264 124,0 244,-25 355,-72l0 -62c-110,51 -230,78 -355,78 -226,0 -439,-88 -599,-248 -160,-160 -248,-373 -248,-599 0,-226 88,-439 248,-599 6,-6 12,-11 18,-17zm1209 1265l235 0 0 56 -310 0 -28 -28 0 -310 56 0 0 249c6,-6 12,-11 18,-17 160,-160 248,-373 248,-599 0,-226 -88,-439 -248,-599 -160,-160 -373,-248 -599,-248 -125,0 -245,27 -355,78l0 -62c111,-47 231,-72 355,-72 241,0 468,94 639,265 170,170 264,397 264,638 0,241 -94,468 -264,639 -4,3 -8,7 -11,10zm-656 -226l0 -621 56 0 0 621 -56 0z"/>
   <rect class="fil1" width="2600" height="2600"/>
  </g>
 </g>
</svg>
