<?xml version="1.0" encoding="UTF-8"?>
<!DOCTYPE svg PUBLIC "-//W3C//DTD SVG 1.1//EN" "http://www.w3.org/Graphics/SVG/1.1/DTD/svg11.dtd">
<!-- Creator: CorelDRAW X7 -->
<svg xmlns="http://www.w3.org/2000/svg" xml:space="preserve" width="100%" height="100%" version="1.1" style="shape-rendering:geometricPrecision; text-rendering:geometricPrecision; image-rendering:optimizeQuality; fill-rule:evenodd; clip-rule:evenodd"
viewBox="0 0 26000 26000"
 xmlns:xlink="http://www.w3.org/1999/xlink">
 <defs>
  <style type="text/css">
   <![CDATA[
    .fil0 {fill:none}
    .fil1 {fill:black}
   ]]>
  </style>
 </defs>
 <g id="Layer_x0020_1">
  <metadata id="CorelCorpID_0Corel-Layer"/>
  <g id="_2023414517440">
   <rect class="fil0" width="26000" height="26000"/>
   <path class="fil1" d="M6509 9614l3387 0 0 -3388 -3387 0 0 3388zm0 10160l3387 0 0 -3386 -3387 0 0 3386zm9595 0l3387 0 0 -3386 -3387 0 0 3386zm-4797 0l3386 0 0 -3386 -3386 0 0 3386zm564 -2823l2258 0 0 2259 -2258 0 0 -2259zm4798 0l2257 0 0 2259 -2257 0 0 -2259zm-9595 0l2257 0 0 2259 -2257 0 0 -2259zm-565 -2258l3387 0 0 -3386 -3387 0 0 3386zm9595 -5079l3387 0 0 -3388 -3387 0 0 3388zm0 5079l3387 0 0 -3386 -3387 0 0 3386zm-4797 -5079l3386 0 0 -3388 -3386 0 0 3388zm0 5079l3386 0 0 -3386 -3386 0 0 3386zm564 -2822l2258 0 0 2258 -2258 0 0 -2258zm0 -5080l2258 0 0 2257 -2258 0 0 -2257zm4798 5080l2257 0 0 2258 -2257 0 0 -2258zm0 -5080l2257 0 0 2257 -2257 0 0 -2257zm-9595 5080l2257 0 0 2258 -2257 0 0 -2258zm0 -5080l2257 0 0 2257 -2257 0 0 -2257z"/>
  </g>
 </g>
</svg>
