<?xml version="1.0" encoding="UTF-8"?>
<!DOCTYPE svg PUBLIC "-//W3C//DTD SVG 1.1//EN" "http://www.w3.org/Graphics/SVG/1.1/DTD/svg11.dtd">
<!-- Creator: CorelDRAW X7 -->
<svg xmlns="http://www.w3.org/2000/svg" xml:space="preserve" width="100%" height="100%" version="1.1" style="shape-rendering:geometricPrecision; text-rendering:geometricPrecision; image-rendering:optimizeQuality; fill-rule:evenodd; clip-rule:evenodd"
viewBox="0 0 2600 2600"
 xmlns:xlink="http://www.w3.org/1999/xlink">
 <defs>
  <style type="text/css">
   <![CDATA[
    .fil1 {fill:none}
    .fil0 {fill:black}
   ]]>
  </style>
 </defs>
 <g id="Layer_x0020_1">
  <metadata id="CorelCorpID_0Corel-Layer"/>
  <g id="_2724844954592">
   <path class="fil0" d="M1300 395c-242,0 -470,95 -641,266 -171,171 -265,399 -265,641 0,242 94,468 265,639 171,171 399,264 641,264l0 0c500,0 906,-405 906,-905 0,-242 -94,-469 -265,-640 -171,-171 -399,-265 -641,-265zm640 348c-24,35 -90,112 -224,171 -76,-222 -202,-374 -279,-451 175,28 336,110 464,238 14,13 27,28 39,42zm-596 1407c-5,1 -11,1 -16,1l0 -538c140,2 249,25 334,55 -99,287 -286,455 -318,482zm-406 -482c86,-31 196,-53 334,-55l0 538c-5,0 -11,0 -16,-1 -32,-27 -220,-195 -318,-482zm318 -1215c5,0 11,0 16,0l0 538c-140,-3 -249,-26 -334,-55 99,-288 286,-456 318,-483zm406 483c-86,30 -196,52 -334,55l0 -538c5,0 11,0 16,0 32,27 220,195 318,483zm-334 111c144,-2 260,-25 351,-57 25,85 41,180 44,283l-395 0 0 -226zm-56 0l0 226 -395 0c3,-103 19,-198 44,-283 91,32 207,55 351,57zm-451 226l-370 0c6,-177 65,-345 172,-485 34,46 108,123 244,181 -26,91 -44,193 -46,304zm0 57c2,112 20,213 46,304 -136,58 -210,135 -244,181 -107,-140 -166,-308 -172,-485l370 0zm56 0l395 0 0 226c-144,3 -260,25 -351,57 -25,-85 -41,-180 -44,-283zm451 226l0 -226 395 0c-3,103 -19,198 -44,283 -91,-32 -207,-54 -351,-57zm451 -226l370 0c-6,181 -69,349 -172,484 -35,-45 -108,-122 -244,-180 27,-91 44,-192 46,-304zm0 -57c-2,-111 -19,-213 -46,-304 136,-58 210,-135 244,-181 107,140 166,308 172,485l-370 0zm-616 -810c-77,77 -203,229 -279,451 -42,-18 -77,-38 -104,-57 -67,-45 -103,-90 -120,-114 12,-14 25,-29 39,-42 128,-128 289,-210 464,-238zm-503 1397c24,-35 90,-112 224,-171 76,222 202,374 279,451 -175,-28 -336,-110 -464,-237 -14,-14 -27,-28 -39,-43zm640 317l0 3 0 -3zm138 -37c76,-77 202,-229 278,-451 42,18 77,38 104,57 66,45 103,89 120,114 -127,146 -303,248 -502,280z"/>
   <rect class="fil1" width="2600" height="2600"/>
  </g>
 </g>
</svg>
