<?xml version="1.0" encoding="UTF-8"?>
<!DOCTYPE svg PUBLIC "-//W3C//DTD SVG 1.1//EN" "http://www.w3.org/Graphics/SVG/1.1/DTD/svg11.dtd">
<!-- Creator: CorelDRAW X7 -->
<svg xmlns="http://www.w3.org/2000/svg" xml:space="preserve" width="100%" height="100%" version="1.1" style="shape-rendering:geometricPrecision; text-rendering:geometricPrecision; image-rendering:optimizeQuality; fill-rule:evenodd; clip-rule:evenodd"
viewBox="0 0 2600 2600"
 xmlns:xlink="http://www.w3.org/1999/xlink">
 <defs>
  <style type="text/css">
   <![CDATA[
    .fil1 {fill:none}
    .fil0 {fill:black}
   ]]>
  </style>
 </defs>
 <g id="Layer_x0020_1">
  <metadata id="CorelCorpID_0Corel-Layer"/>
  <g id="_2307084941520">
   <path class="fil0" d="M950 2133c-106,-45 -204,-110 -288,-194l-8 -8 -1 0 -7 -9 0 0 -8 -8 0 0 -1 -1c-155,-167 -240,-384 -240,-613 0,-154 38,-302 111,-434l41 42c-62,119 -96,253 -96,392 0,64 7,126 21,187l0 0 2 8 0 2 1 1 1 4 1 6 0 1c35,137 104,264 203,369l119 -119c-115,-126 -178,-287 -178,-459 0,-93 18,-182 53,-265l44 43c-27,70 -41,145 -41,222 0,156 58,304 162,419l120 -120c-73,-83 -113,-188 -113,-299 0,-29 3,-57 8,-85l50 50c-1,12 -1,23 -1,35 0,96 34,187 96,259l121 -120c-31,-40 -48,-88 -48,-139 0,-31 6,-61 18,-88l0 -1 0 0 1 -1 0 -1 0 0 1 -1 0 -1 0 0 1 -1 0 0 0 -2 1 0 0 -1 0 -1 1 -1 0 0 0 -1 1 -1 0 0 0 -1 1 0 0 -1 0 -1 0 0 1 -1 0 -1 1 0 0 0 0 -1 1 -1 0 -1 0 0 0 -1 1 0 0 -1 0 0 1 -1 0 -1 1 0 0 -1 0 0 1 -1 0 -1 0 0 1 -1 0 0 1 -2 1 -1 0 -1 0 0 0 0 1 -1 0 -1 0 0 1 -1 0 0 1 -1 0 0 1 -1 0 -1 1 0 0 0 0 -1 1 -1 0 -1 0 0 1 0 0 -1 1 -1 0 0 0 -1 1 0 0 -1 0 0 1 -1 0 -1 1 0 0 0 1 -1 0 -1 1 -1c5,-7 12,-14 18,-21 43,-42 100,-66 160,-66 51,0 99,17 138,48l121 -121c-72,-62 -163,-96 -259,-96 -106,0 -205,41 -279,116 -7,6 -13,13 -20,20l-40 -40c7,-7 13,-14 20,-20 85,-85 198,-132 319,-132 111,0 216,39 299,112l120 -120c-115,-104 -263,-162 -419,-162 -166,0 -322,65 -439,182 -7,7 -13,13 -19,20l-40 -40c6,-7 12,-13 19,-20 128,-128 298,-198 479,-198 171,0 333,63 459,179l119 -120c-100,-94 -218,-160 -347,-197l-4 -1 0 0c-73,-20 -149,-31 -227,-31 -226,0 -439,89 -599,248 -7,8 -14,15 -21,22l2 -1 -40 -40c6,-7 13,-14 19,-20 138,-138 311,-225 499,-254l0 0c46,-7 93,-11 140,-11 241,0 468,94 639,264l0 1 0 0 1 1 0 0 0 0 0 0 3 3 0 0 2 2 0 0 3 3 0 0 0 1 0 0 1 0 0 1 1 0 0 0 0 0 0 0 1 1 0 0 1 1 0 0 0 1 0 0 1 0 0 0 0 0 0 0 1 1 0 0 0 1 0 0 1 0 0 0 0 0 0 0 0 1 0 0 1 1 0 0 0 0 1 0 0 0 0 1 0 0 1 0 0 0 0 1c-52,52 -91,91 -160,159l-39 40c-94,94 -187,187 -281,281 31,39 48,87 48,138 0,60 -24,117 -66,160 -43,42 -100,66 -160,66 -51,0 -99,-17 -139,-48l-120 121c72,62 163,96 259,96 106,0 205,-41 279,-116 75,-74 116,-173 116,-279 0,-12 0,-23 -1,-35l50 -50c5,28 8,56 8,85 0,121 -47,234 -133,319 -85,86 -198,133 -319,133 -111,0 -216,-40 -299,-113l-120 120c115,105 263,162 419,162 166,0 322,-65 439,-182 117,-117 182,-273 182,-439 0,-77 -14,-152 -41,-222l44 -43c35,83 53,173 53,265 0,181 -70,351 -198,479 -128,128 -298,198 -479,198 -171,0 -333,-63 -459,-178l-119 119c68,64 145,116 228,154l0 0c109,49 227,75 350,75 226,0 439,-88 599,-248 160,-160 248,-373 248,-599 0,-139 -34,-274 -97,-394l1 2 41 -42c73,132 111,280 111,434 0,241 -94,468 -264,639 -171,170 -398,264 -639,264 -122,0 -240,-24 -350,-70l0 0zm212 -735l236 -236c-28,-20 -62,-31 -98,-31 -45,0 -88,17 -120,49 -32,32 -49,75 -49,120 0,36 11,70 31,98zm276 -196l-236 236c28,20 62,31 98,31 45,0 88,-17 120,-49 32,-32 49,-75 49,-120 0,-36 -11,-70 -31,-98z"/>
   <rect class="fil1" width="2600" height="2600"/>
  </g>
 </g>
</svg>
