<?xml version="1.0" encoding="UTF-8"?>
<!DOCTYPE svg PUBLIC "-//W3C//DTD SVG 1.1//EN" "http://www.w3.org/Graphics/SVG/1.1/DTD/svg11.dtd">
<!-- Creator: CorelDRAW X7 -->
<svg xmlns="http://www.w3.org/2000/svg" xml:space="preserve" width="0.77126in" height="0.771299in" version="1.1" style="shape-rendering:geometricPrecision; text-rendering:geometricPrecision; image-rendering:optimizeQuality; fill-rule:evenodd; clip-rule:evenodd"
viewBox="0 0 7713 7713"
 xmlns:xlink="http://www.w3.org/1999/xlink">
 <defs>
  <style type="text/css">
   <![CDATA[
    .fil0 {fill:#D2AE6D}
   ]]>
  </style>
 </defs>
 <g id="Layer_x0020_1">
  <metadata id="CorelCorpID_0Corel-Layer"/>
  <path class="fil0" d="M1127 1128c-726,730 -1127,1699 -1127,2728 0,1030 401,1999 1127,2729 731,726 1700,1128 2729,1128 1030,0 1999,-402 2729,-1128 726,-730 1128,-1699 1128,-2729 0,-1029 -402,-1998 -1128,-2728 -730,-727 -1699,-1128 -2729,-1128 -1029,0 -1998,401 -2729,1128zm4229 4018l-210 211 -1290 -1291 -1289 1291 -210 -211 1290 -1290 -1290 -1291 209 -209 1290 1290 1290 -1290 210 209 -1290 1291 1290 1290zm2118 -1290c0,966 -376,1875 -1060,2559 -683,683 -1593,1059 -2558,1059 -965,0 -1874,-376 -2558,-1059 -683,-684 -1059,-1593 -1059,-2559 0,-965 376,-1874 1059,-2558 684,-683 1593,-1059 2558,-1059 965,0 1875,376 2558,1059 684,684 1060,1593 1060,2558z"/>
 </g>
</svg>
