<?xml version="1.0" encoding="UTF-8"?>
<!DOCTYPE svg PUBLIC "-//W3C//DTD SVG 1.1//EN" "http://www.w3.org/Graphics/SVG/1.1/DTD/svg11.dtd">
<!-- Creator: CorelDRAW X7 -->
<svg xmlns="http://www.w3.org/2000/svg" xml:space="preserve" width="11.7477in" height="9.84551in" version="1.1" style="shape-rendering:geometricPrecision; text-rendering:geometricPrecision; image-rendering:optimizeQuality; fill-rule:evenodd; clip-rule:evenodd"
viewBox="0 0 117477 98455"
 xmlns:xlink="http://www.w3.org/1999/xlink">
 <defs>
  <style type="text/css">
   <![CDATA[
    .fil4 {fill:#DBBE8A}
    .fil3 {fill:#E5D0AA}
    .fil0 {fill:#E5D3B2}
    .fil6 {fill:#EAD9BB}
    .fil2 {fill:#ECDDC2}
    .fil1 {fill:#F3E9D7}
    .fil13 {fill:#FBF7F0}
    .fil8 {fill:#75613D;fill-rule:nonzero}
    .fil7 {fill:#A38755;fill-rule:nonzero}
    .fil12 {fill:#BB9B61;fill-rule:nonzero}
    .fil9 {fill:#D2AE6D;fill-rule:nonzero}
    .fil11 {fill:#DCC08D;fill-rule:nonzero}
    .fil10 {fill:#E6D2AE;fill-rule:nonzero}
    .fil5 {fill:white;fill-rule:nonzero}
   ]]>
  </style>
 </defs>
 <g id="Layer_x0020_1">
  <metadata id="CorelCorpID_0Corel-Layer"/>
  <g id="_2638289427104">
   <path class="fil0" d="M0 87660c865,28 1559,738 1564,1617l14 0c7,-879 700,-1589 1563,-1617 -867,-28 -1563,-746 -1563,-1630l-12 0c0,884 -696,1602 -1566,1630z"/>
   <path class="fil1" d="M117477 84841c-25448,9217 -44208,3621 -52047,-1180 -6844,-4192 -11467,-9625 -13641,-15383 -5179,-13719 2011,-24036 11936,-27379 16780,-5650 38006,19146 53752,-892l0 44834z"/>
   <path class="fil2" d="M76248 98455c400,-1428 697,-2896 886,-4394 995,-7898 -1146,-15712 -6027,-21996 -4884,-6290 -11924,-10296 -19824,-11289 -7900,-994 -15715,1148 -22001,6030 -6290,4885 -10296,11924 -11289,19824 -507,4028 -198,8033 872,11825l1945 0c-1125,-3704 -1468,-7638 -972,-11595 933,-7402 4694,-14004 10587,-18581 5894,-4577 13221,-6586 20621,-5656 7409,931 14010,4689 18589,10585 4577,5894 6582,13216 5650,20625 -198,1581 -526,3126 -975,4622l1938 0zm-39129 -20041l1472 -1143 3426 4411 -1472 1144 -3426 -4412zm5711 7355l1473 -1144 10741 13830 -2361 0 -9853 -12686z"/>
   <path class="fil3" d="M97647 51379l-19528 4103 1972 9387 -4044 2787 3605 17153 28395 -5967 -3604 -17153 -4824 -924 -1972 -9386 0 0zm-5510 7922l0 0c0,0 0,0 0,0zm-5558 35c-312,311 -570,645 -781,1050 -49,76 -92,184 -139,276 -145,326 -267,680 -355,1043 -163,789 -177,1580 -12,2366 27,126 69,249 95,374 166,557 404,1065 734,1537 319,426 741,797 1242,1069 371,201 763,349 1208,436 170,29 341,59 524,70 652,60 1333,16 2056,-136 786,-166 1439,-418 1946,-738 508,-320 936,-705 1256,-1134 333,-447 543,-853 643,-1235l-880 185c-197,469 -562,923 -1068,1325 -353,271 -783,492 -1289,664 -229,81 -493,153 -776,213 -786,165 -1536,191 -2255,47 -326,-63 -626,-164 -901,-303 -330,-161 -622,-379 -876,-654 -469,-509 -784,-1148 -952,-1950 -159,-755 -134,-1499 69,-2247 126,-421 295,-785 535,-1131 177,-250 373,-488 607,-702 472,-411 1017,-706 1636,-885 110,-24 233,-66 343,-89 676,-142 1319,-129 1929,38 385,116 730,274 1019,476 0,0 0,0 0,0 0,0 16,-4 16,-4 158,131 314,246 445,399 382,412 613,889 729,1439 0,0 0,0 3,16 96,456 78,919 -37,1387 -127,486 -353,895 -659,1238 -40,42 -81,83 -109,105 -190,188 -363,306 -504,336 -94,20 -195,8 -272,-41 -76,-50 -124,-122 -143,-216 -10,-48 -16,-309 -17,-785l13 -3138 7 -281 -252 53 -613 129 -14 791c-252,-259 -518,-433 -803,-537 -297,-86 -581,-108 -863,-49 -362,76 -729,285 -1066,635 -340,334 -587,796 -746,1371 -142,572 -175,1120 -66,1639 90,425 263,782 493,1095 249,325 522,531 841,644 304,117 603,136 902,73 252,-52 506,-171 740,-385 222,-194 415,-448 585,-730 56,185 117,320 184,404 89,113 203,187 358,221 158,49 338,44 573,-6 0,0 16,-3 32,-7 610,-144 1135,-534 1561,-1165 50,-76 84,-149 133,-225 509,-862 664,-1764 465,-2708 -138,-660 -424,-1240 -858,-1740 -44,-57 -86,-97 -146,-150 -481,-490 -1042,-816 -1686,-992 -594,-171 -1240,-199 -1911,-108 -110,24 -239,34 -365,61 -1037,218 -1868,639 -2508,1266l0 0zm2065 5295c-273,-205 -456,-528 -548,-968 -60,-283 -63,-611 -38,-961 41,-353 123,-666 246,-938 124,-272 260,-482 426,-631 153,-131 344,-237 548,-280 315,-66 609,4 882,209 269,190 452,513 544,953 70,330 76,673 36,1027 -57,356 -139,669 -285,913 -142,260 -298,457 -479,610 -181,153 -360,239 -533,276 -283,59 -542,-1 -799,-210l0 0zm8307 -12186l2772 13191 -7714 7432 -10037 -3702 -2772 -13192 17751 -3729zm-15991 16559l-3434 -1265 2767 -1911 667 3176 0 0zm-613 14740l-3188 -15173 15072 5551 11562 -11147 3188 15172 -26634 5597 0 0zm22775 -21384l-2634 2541 -668 -3176 3302 635 0 0z"/>
   <g>
    <path class="fil4" d="M117477 63098l0 27483c0,1396 -368,2710 -1012,3850 -8806,316 -16272,-6722 -16272,-15700 0,-9320 8046,-16551 17284,-15633z"/>
    <path class="fil5" d="M103226 78641c0,35 5,72 13,110 8,38 24,72 47,103 23,30 54,55 93,75 39,21 88,31 149,31 37,0 76,-1 114,-4 39,-3 79,-12 120,-26l0 -596 -215 0c-107,0 -188,28 -241,84 -53,56 -80,130 -80,223zm1204 1122c-69,0 -136,-5 -201,-15 -64,-9 -124,-27 -179,-53 -54,-26 -103,-62 -144,-107 -41,-45 -74,-103 -96,-175 -49,11 -99,20 -152,28 -52,8 -104,12 -155,12 -72,0 -156,-11 -251,-33 -95,-21 -185,-61 -270,-119 -84,-58 -156,-137 -215,-240 -59,-102 -89,-234 -89,-394 0,-159 28,-293 84,-402 56,-109 128,-198 216,-268 89,-69 186,-119 294,-149 107,-31 213,-46 317,-46l733 0 0 1293c0,66 9,111 27,135 17,24 57,36 121,36l103 0c23,0 44,2 64,7 21,5 39,15 55,30 17,16 29,39 37,71 8,31 13,75 13,130 0,98 -14,166 -41,203 -28,37 -70,56 -128,56l-143 0zm1792 -803c0,-44 -5,-87 -15,-130 -10,-43 -25,-81 -47,-114 -22,-32 -51,-60 -87,-82 -35,-22 -79,-32 -132,-32 -37,0 -77,9 -116,28 -41,19 -80,50 -116,93 -38,43 -73,98 -106,167 -33,69 -60,156 -83,259 71,44 140,79 205,107 64,28 133,41 208,41 93,0 164,-31 214,-92 50,-62 75,-144 75,-245zm-1425 306c35,0 78,-29 128,-86 51,-57 96,-140 135,-250 64,-164 133,-300 208,-409 75,-108 152,-194 232,-259 79,-65 159,-110 239,-136 80,-26 160,-39 238,-39 112,0 217,22 315,66 98,43 182,103 252,181 71,77 126,171 166,280 40,110 60,229 60,358 0,259 -63,464 -190,616 -126,152 -319,228 -578,228 -115,0 -231,-18 -347,-53 -117,-35 -240,-94 -369,-177 -74,83 -151,133 -229,150 -78,18 -163,27 -254,27l-230 0c-22,0 -44,-2 -64,-6 -21,-5 -39,-15 -55,-31 -16,-16 -28,-40 -37,-72 -8,-31 -12,-74 -12,-129 0,-99 14,-166 41,-204 27,-37 70,-55 127,-55l224 0zm3465 238c0,98 -13,166 -41,203 -27,37 -69,56 -127,56l-181 0c-99,0 -189,-11 -270,-32 -81,-23 -152,-59 -211,-108 -59,-50 -105,-117 -138,-200 -33,-84 -50,-187 -50,-311l0 -2431 562 0 0 2352c0,102 18,166 53,193 36,26 87,40 153,40l82 0c22,0 44,2 64,7 21,5 39,15 56,30 15,16 28,39 36,71 9,31 12,75 12,130zm285 -2205c0,-83 30,-155 90,-216 61,-61 133,-92 218,-92 82,0 154,30 215,90 60,61 90,133 90,218 0,82 -30,154 -90,215 -61,60 -133,90 -215,90 -83,0 -155,-30 -216,-90 -61,-61 -92,-133 -92,-215zm40 1967l0 -1221 565 0 0 1718 -1062 0c-23,0 -44,-2 -64,-6 -21,-5 -39,-15 -56,-31 -16,-16 -28,-40 -36,-72 -9,-31 -13,-74 -13,-129 0,-99 14,-166 41,-204 28,-37 70,-55 128,-55l497 0zm2256 497c-38,0 -90,-9 -156,-27 -67,-17 -124,-54 -173,-112 -3,195 -26,358 -68,490 -44,131 -108,238 -195,318 -86,81 -195,139 -327,173 -133,34 -292,53 -477,56l0 -527c119,-3 212,-16 282,-41 69,-25 121,-61 156,-110 34,-48 56,-111 66,-188 10,-76 15,-168 15,-274l0 -1286 556 0 0 734c0,112 34,190 103,232 68,43 141,65 218,65 22,0 44,2 64,7 21,5 39,15 55,30 16,16 28,39 37,71 8,31 12,75 12,130 0,98 -14,166 -41,203 -27,37 -70,56 -127,56zm-2 0c-23,0 -44,-2 -65,-6 -20,-5 -38,-15 -55,-31 -16,-16 -28,-40 -37,-72 -8,-31 -12,-74 -12,-129 0,-99 14,-166 41,-204 28,-37 70,-55 128,-55l638 0c23,0 44,2 65,7 20,5 38,15 54,30 17,16 29,39 38,71 8,31 12,75 12,130 0,98 -14,166 -41,203 -28,37 -70,56 -128,56l-638 0zm902 -497c98,0 167,-15 206,-46 38,-30 57,-98 57,-203l0 -972 561 0 0 924c0,106 21,182 60,228 40,46 130,69 269,69 23,0 44,2 64,7 20,5 38,15 54,30 15,16 28,39 37,71 9,31 14,75 14,130 0,98 -14,166 -41,203 -28,37 -70,56 -128,56 -83,0 -163,-14 -242,-41 -77,-27 -142,-87 -195,-178 -35,49 -77,88 -125,118 -48,29 -100,51 -154,66 -56,15 -113,24 -172,29 -59,4 -117,6 -175,6l-354 0c-22,0 -43,-2 -64,-6 -20,-5 -38,-15 -55,-31 -16,-16 -28,-40 -37,-72 -8,-31 -12,-74 -12,-129 0,-99 14,-166 41,-204 27,-37 70,-55 127,-55l264 0zm237 1209c0,-82 30,-154 90,-215 61,-60 133,-90 217,-90 83,0 154,30 215,90 60,61 91,133 91,215 0,83 -31,155 -91,215 -61,61 -132,91 -215,91 -83,0 -155,-30 -216,-91 -61,-60 -91,-132 -91,-215zm2459 -1209c-8,-116 -27,-222 -55,-318 -29,-96 -73,-179 -132,-248 -59,-68 -135,-122 -227,-161 -92,-38 -207,-58 -344,-58 -47,0 -120,7 -219,19 -99,13 -199,34 -300,64l0 -502c66,-23 156,-47 270,-73 113,-26 231,-39 351,-39 226,0 415,39 569,116 154,77 278,181 373,311 95,130 163,280 205,451 41,171 62,349 62,534l0 401 -2098 0c-22,0 -44,-2 -64,-6 -21,-5 -39,-15 -55,-31 -16,-16 -28,-40 -37,-72 -9,-31 -12,-74 -12,-129 0,-99 13,-166 41,-204 27,-37 69,-55 127,-55l1545 0zm-1019 -1967c0,-83 30,-155 91,-216 60,-61 133,-92 217,-92 83,0 155,30 215,90 61,61 91,133 91,218 0,82 -30,154 -91,215 -60,60 -132,90 -215,90 -83,0 -155,-30 -216,-90 -61,-61 -92,-133 -92,-215z"/>
   </g>
   <path class="fil6" d="M68930 14981l-1323 2112 704 441 1323 -2112 -704 -441zm-525 -8633l2086 6644 10055 6297 -8438 13474 -19859 -12437 8438 -13474 5317 3330 2401 -3834zm-2664 2689l-5317 -3330 -9328 14894 21267 13319 9328 -14894 -10508 -6581 -2514 -8083 -2928 4675zm1681 9917l-704 -440 -3557 5679 704 441 3557 -5680z"/>
   <g>
    <polygon class="fil7" points="59471,98455 51290,98455 51290,46643 59471,46643 "/>
    <polygon class="fil8" points="59471,63195 51290,64504 51290,46097 59471,46097 "/>
    <path class="fil9" d="M76554 60716l0 -24517c0,-11779 -9478,-21328 -21169,-21328l-9 0c-11692,0 -21170,9549 -21170,21328l0 24517 42348 0z"/>
    <g>
     <path class="fil10" d="M39089 35973c0,-4550 1818,-8676 4767,-11663 2944,-2982 7011,-4828 11520,-4828 4512,0 8582,1846 11526,4827 2951,2987 4770,7114 4770,11664l0 20167 -32583 0 0 -20167zm997 0l0 19170 30589 0 0 -19170c0,-4280 -1709,-8161 -4481,-10967 -2762,-2796 -6581,-4527 -10818,-4527 -4233,0 -8050,1732 -10811,4528 -2771,2806 -4479,6686 -4479,10966z"/>
     <path class="fil11" d="M40155 55072l0 -19231c0,-8519 6759,-15450 15220,-15450 8467,0 15231,6931 15231,15450l0 19231 -30451 0z"/>
     <path class="fil8" d="M57184 28104c0,-984 -792,-1782 -1769,-1782 -976,0 -1769,798 -1769,1782 0,580 276,1602 702,1927l-305 2659 2730 0 -303 -2649c432,-325 714,-1351 714,-1937z"/>
     <polygon class="fil12" points="40240,40763 70491,40763 70491,38913 40240,38913 "/>
     <polygon class="fil9" points="70606,55082 40242,55082 40242,43370 70606,43370 "/>
     <path class="fil7" d="M66432 51749l-21625 0c-763,0 -1387,-625 -1387,-1388l0 -2660c0,-763 624,-1387 1387,-1387l21625 0c763,0 1387,624 1387,1387l0 2660c0,763 -624,1388 -1387,1388z"/>
     <path class="fil7" d="M39906 35841c0,-4335 1724,-8267 4526,-11111 2792,-2834 6653,-4588 10943,-4588 4294,0 8157,1754 10951,4588 2804,2844 4529,6776 4529,11111l0 19482 -30949 0 0 -19482zm498 0l0 18983 29952 0 0 -18983c0,-4201 -1670,-8009 -4385,-10763 -2702,-2741 -6440,-4438 -10596,-4438 -4152,0 -7888,1697 -10589,4438 -2712,2754 -4382,6562 -4382,10763z"/>
    </g>
   </g>
   <path class="fil0" d="M41501 10363c1338,43 2410,1141 2417,2501l22 0c11,-1360 1084,-2458 2418,-2501 -1342,-44 -2418,-1153 -2418,-2519l-18 0c0,1366 -1076,2475 -2421,2519z"/>
   <path class="fil0" d="M84222 91734c2576,84 4640,2197 4654,4815l42 0c21,-2618 2086,-4731 4654,-4815 -2582,-84 -4654,-2219 -4654,-4850l-35 0c0,2631 -2071,4766 -4661,4850z"/>
   <g>
    <path class="fil0" d="M99546 39444c7158,0 13576,-3166 17931,-8175l0 -23395c0,-4331 -3543,-7874 -7874,-7874l-27888 0c-3685,4185 -5921,9677 -5921,15692 0,13118 10634,23752 23752,23752z"/>
    <path class="fil13" d="M86106 8969l22402 0 4484 -4485 -26886 0 0 4485zm17924 13446l-17924 0 0 4478 17924 0 0 -4478zm8962 -8969l-26886 0 0 4485 22402 0 0 8962 4484 0 0 -13447z"/>
   </g>
  </g>
 </g>
</svg>
