<?xml version="1.0" encoding="UTF-8"?>
<!DOCTYPE svg PUBLIC "-//W3C//DTD SVG 1.1//EN" "http://www.w3.org/Graphics/SVG/1.1/DTD/svg11.dtd">
<!-- Creator: CorelDRAW X7 -->
<svg xmlns="http://www.w3.org/2000/svg" xml:space="preserve" width="100%" height="100%" version="1.1" style="shape-rendering:geometricPrecision; text-rendering:geometricPrecision; image-rendering:optimizeQuality; fill-rule:evenodd; clip-rule:evenodd"
viewBox="0 0 2600 2600"
 xmlns:xlink="http://www.w3.org/1999/xlink">
 <defs>
  <style type="text/css">
   <![CDATA[
    .fil1 {fill:none}
    .fil0 {fill:black}
   ]]>
  </style>
 </defs>
 <g id="Layer_x0020_1">
  <metadata id="CorelCorpID_0Corel-Layer"/>
  <g id="_2385226469184">
   <path class="fil0" d="M433 947l0 0zm1665 940l-210 210 40 40 210 -210 -40 -40zm-1130 -226l-97 0 116 -306 -250 250 97 0 -116 305 250 -249zm-367 0l151 0 -21 57 -239 0c-103,0 -196,-42 -263,-109 -68,-68 -109,-161 -109,-264 0,-88 30,-168 81,-232 52,-65 126,-112 210,-131l22 -5 0 -23 0 -4 0 -3c0,-118 48,-225 125,-302 77,-77 184,-125 302,-125 101,0 193,35 266,93 74,59 129,143 150,239l9 37 33 -19c19,-11 41,-20 63,-25 21,-6 44,-9 68,-9 48,0 94,13 133,35 -67,56 -114,136 -128,226l-5 0c-140,0 -254,114 -254,254 0,140 114,254 254,254l415 0c-7,9 -15,18 -24,27 -52,53 -125,86 -206,86l-218 0 -425 0 113 -113 -151 0 179 -475 -531 531zm109 113l-137 361 362 -361 481 0 218 0c96,0 183,-39 246,-102 20,-20 38,-43 53,-67l350 0c60,0 116,-21 159,-56 58,-47 95,-118 95,-198 0,-140 -114,-254 -254,-254 -36,0 -70,7 -101,21 -18,-186 -175,-332 -366,-332 -67,0 -130,19 -184,50 -52,-35 -115,-56 -183,-56 -28,0 -56,3 -82,10 -16,4 -31,9 -45,15 -29,-94 -86,-176 -161,-236 -83,-66 -187,-106 -301,-106 -134,0 -255,54 -342,142 -84,84 -138,200 -141,328 -88,24 -164,76 -220,145 -59,73 -94,166 -94,267 0,119 48,226 126,304 77,77 184,125 303,125l218 0zm-477 363l210 -210 -40 -40 -210 210 40 40zm678 0l210 -210 -40 -40 -210 210 40 40zm339 0l210 -210 -40 -40 -210 210 40 40zm509 -250l-210 210 40 40 210 -210 -40 -40zm524 -338l-834 0c-109,0 -197,-89 -197,-198 0,-109 88,-198 197,-198l43 0 14 0c0,-171 139,-310 310,-310 171,0 309,138 311,307 -60,47 -98,120 -98,201l56 0c0,-109 89,-198 198,-198 109,0 197,89 197,198 0,109 -88,198 -197,198z"/>
   <rect class="fil1" width="2600" height="2600"/>
  </g>
 </g>
</svg>
