<?xml version="1.0" encoding="UTF-8"?>
<!DOCTYPE svg PUBLIC "-//W3C//DTD SVG 1.1//EN" "http://www.w3.org/Graphics/SVG/1.1/DTD/svg11.dtd">
<!-- Creator: CorelDRAW X7 -->
<svg xmlns="http://www.w3.org/2000/svg" xml:space="preserve" width="100%" height="100%" version="1.1" style="shape-rendering:geometricPrecision; text-rendering:geometricPrecision; image-rendering:optimizeQuality; fill-rule:evenodd; clip-rule:evenodd"
viewBox="0 0 2600 2600"
 xmlns:xlink="http://www.w3.org/1999/xlink">
 <defs>
  <style type="text/css">
   <![CDATA[
    .fil0 {fill:none}
    .fil1 {fill:black}
   ]]>
  </style>
 </defs>
 <g id="Layer_x0020_1">
  <metadata id="CorelCorpID_0Corel-Layer"/>
  <g id="_2385231475936">
   <rect class="fil0" width="2600" height="2600"/>
   <path class="fil1" d="M1630 1019c52,-40 117,-63 187,-63 205,0 347,196 306,392 36,-49 94,-82 160,-82 109,0 198,89 198,198 0,109 -89,198 -198,198l-384 0c-45,96 -142,169 -265,169l-1142 0c-312,0 -484,-363 -291,-605 64,-79 136,-114 233,-136l-1 -30c0,-118 48,-225 125,-302 239,-238 645,-118 719,207l8 37 33 -19c101,-56 227,-41 312,36zm303 699c-28,46 -66,85 -112,115 -53,34 -116,54 -187,54l-1142 0c-104,0 -195,-35 -266,-92 -51,-41 -92,-93 -120,-152 -28,-58 -43,-122 -43,-187 0,-91 29,-184 95,-265 36,-46 75,-79 119,-104l0 1c31,-18 64,-31 100,-42 2,-60 15,-118 36,-171 25,-59 61,-112 105,-157l0 0c69,-68 150,-111 234,-130 81,-18 164,-15 243,8 78,23 150,64 209,123 53,53 95,120 119,199 52,-22 108,-29 163,-23 52,6 102,24 146,54 22,-12 44,-22 68,-30 37,-13 76,-20 117,-20 25,0 51,3 75,8 87,19 161,68 213,135 42,54 69,119 78,188 31,-13 65,-20 100,-20 70,0 134,28 180,74 46,46 74,110 74,180 0,70 -28,134 -74,180 -46,46 -110,74 -180,74l-350 0z"/>
  </g>
 </g>
</svg>
