<?xml version="1.0" encoding="UTF-8"?>
<!DOCTYPE svg PUBLIC "-//W3C//DTD SVG 1.1//EN" "http://www.w3.org/Graphics/SVG/1.1/DTD/svg11.dtd">
<!-- Creator: CorelDRAW X7 -->
<svg xmlns="http://www.w3.org/2000/svg" xml:space="preserve" width="100%" height="100%" version="1.1" style="shape-rendering:geometricPrecision; text-rendering:geometricPrecision; image-rendering:optimizeQuality; fill-rule:evenodd; clip-rule:evenodd"
viewBox="0 0 2600 2600"
 xmlns:xlink="http://www.w3.org/1999/xlink">
 <defs>
  <style type="text/css">
   <![CDATA[
    .fil0 {fill:none}
    .fil1 {fill:black}
   ]]>
  </style>
 </defs>
 <g id="Layer_x0020_1">
  <metadata id="CorelCorpID_0Corel-Layer"/>
  <g id="_2385226459392">
   <rect class="fil0" width="2600" height="2600"/>
   <path class="fil1" d="M1961 1546c273,13 507,-176 562,-433 -390,90 -743,-256 -659,-650 -172,40 -313,160 -381,318 -55,-5 -110,3 -161,24 -29,-94 -86,-176 -161,-236 -310,-248 -773,-34 -784,364 -88,24 -164,76 -220,145 -224,279 -24,696 335,696l1142 0c148,0 278,-93 327,-228zm-165 -1002c-22,363 284,665 648,638 -76,187 -261,312 -467,308 29,-160 -55,-319 -203,-383 2,-147 -97,-274 -234,-314 51,-112 143,-201 256,-249zm-1363 403l0 0zm1206 -32c68,68 83,141 77,229 67,25 115,54 158,115 134,192 -4,459 -240,459l-1142 0c-313,0 -485,-363 -291,-605 63,-79 135,-114 232,-136l0 -30c0,-118 48,-225 125,-302 238,-238 645,-118 718,207l9 37 33 -19c105,-59 236,-40 321,45z"/>
  </g>
 </g>
</svg>
