<?xml version="1.0" encoding="UTF-8"?>
<!DOCTYPE svg PUBLIC "-//W3C//DTD SVG 1.1//EN" "http://www.w3.org/Graphics/SVG/1.1/DTD/svg11.dtd">
<!-- Creator: CorelDRAW X7 -->
<svg xmlns="http://www.w3.org/2000/svg" xml:space="preserve" width="100%" height="100%" version="1.1" style="shape-rendering:geometricPrecision; text-rendering:geometricPrecision; image-rendering:optimizeQuality; fill-rule:evenodd; clip-rule:evenodd"
viewBox="0 0 2600 2600"
 xmlns:xlink="http://www.w3.org/1999/xlink">
 <defs>
  <style type="text/css">
   <![CDATA[
    .fil1 {fill:none}
    .fil0 {fill:black}
   ]]>
  </style>
 </defs>
 <g id="Layer_x0020_1">
  <metadata id="CorelCorpID_0Corel-Layer"/>
  <g id="_2385226450400">
   <path class="fil0" d="M1328 420c0,48 0,96 0,145l-56 0c0,-49 0,-97 0,-145l56 0zm-28 237c355,0 643,288 643,643 0,355 -288,643 -643,643 -355,0 -643,-288 -643,-643 0,-355 288,-643 643,-643zm415 228c-106,-106 -253,-171 -415,-171 -162,0 -309,65 -415,171 -106,106 -171,253 -171,415 0,162 65,309 171,415 106,106 253,171 415,171 162,0 309,-65 415,-171 106,-106 171,-253 171,-415 0,-162 -65,-309 -171,-415zm-831 -361c24,41 49,83 73,125l-49 28c-24,-42 -48,-83 -73,-125l49 -28zm-332 311c42,25 83,49 125,73l-28 49c-42,-24 -84,-49 -125,-73l28 -49zm-132 437c48,0 96,0 145,0l0 56c-49,0 -97,0 -145,0l0 -56zm104 444c41,-24 83,-49 125,-73l28 49c-42,24 -83,48 -125,73l-28 -49zm311 332c25,-42 49,-83 73,-125l49 28c-24,42 -49,84 -73,125l-49 -28zm437 132c0,-48 0,-96 0,-145l56 0c0,49 0,97 0,145l-56 0zm444 -104c-24,-41 -49,-83 -73,-125l49 -28c24,42 48,83 73,125l-49 28zm332 -311c-42,-25 -83,-49 -125,-73l28 -49c42,24 84,49 125,73l-28 49zm132 -437c-48,0 -96,0 -145,0l0 -56c49,0 97,0 145,0l0 56zm-104 -444c-41,24 -83,49 -125,73l-28 -49c42,-24 83,-48 125,-73l28 49zm-311 -332c-25,42 -49,83 -73,125l-49 -28c24,-42 49,-84 73,-125l49 28z"/>
   <rect class="fil1" width="2600" height="2600"/>
  </g>
 </g>
</svg>
