<?xml version="1.0" encoding="UTF-8"?>
<!DOCTYPE svg PUBLIC "-//W3C//DTD SVG 1.1//EN" "http://www.w3.org/Graphics/SVG/1.1/DTD/svg11.dtd">
<!-- Creator: CorelDRAW X7 -->
<svg xmlns="http://www.w3.org/2000/svg" xml:space="preserve" width="100%" height="100%" version="1.1" style="shape-rendering:geometricPrecision; text-rendering:geometricPrecision; image-rendering:optimizeQuality; fill-rule:evenodd; clip-rule:evenodd"
viewBox="0 0 2600 2600"
 xmlns:xlink="http://www.w3.org/1999/xlink">
 <defs>
  <style type="text/css">
   <![CDATA[
    .fil0 {fill:none}
    .fil1 {fill:black;fill-rule:nonzero}
   ]]>
  </style>
 </defs>
 <g id="Layer_x0020_1">
  <metadata id="CorelCorpID_0Corel-Layer"/>
  <g id="_2385222269440">
   <rect class="fil0" width="2600" height="2600"/>
   <path class="fil1" d="M2523 1113c-52,248 -272,433 -536,433 -8,0 -17,0 -26,0 -17,48 -45,91 -81,126 -63,63 -150,102 -246,102l-218 0 -481 0 -362 361 137 -361 -218 0c-119,0 -226,-48 -303,-125 -78,-78 -126,-185 -126,-304 0,-101 35,-194 94,-267 56,-69 132,-121 220,-145 3,-128 57,-244 141,-328 87,-88 208,-142 342,-142 114,0 218,40 301,106 75,60 132,142 161,236 14,-6 29,-11 45,-15 26,-7 54,-10 82,-10 11,0 23,0 34,1 68,-158 209,-278 381,-318 -8,37 -12,76 -12,116 0,303 245,548 548,548 42,0 84,-5 123,-14zm-2290 1024l210 -210 -40 -40 -210 210 40 40zm678 0l210 -210 -40 -40 -210 210 40 40zm339 0l210 -210 -40 -40 -210 210 40 40zm509 -250l-210 210 40 40 210 -210 -40 -40zm-768 -169l425 0 218 0c81,0 154,-33 206,-86 53,-53 86,-126 86,-206 0,-62 -19,-120 -52,-167 -34,-49 -82,-86 -138,-107l-20 -8 1 -21 1 -9 0 0 0 0c0,-1 0,-4 0,-9 0,-74 -30,-141 -79,-190 -49,-49 -116,-79 -190,-79 -24,0 -47,3 -68,9 -22,5 -44,14 -63,25l-33 19 -9 -37c-21,-96 -76,-180 -150,-239 -73,-58 -165,-93 -266,-93 -118,0 -225,48 -302,125 -77,77 -125,184 -125,302l0 0 0 3 0 4 0 23 -22 5c-84,19 -158,66 -210,131 -51,64 -81,144 -81,232 0,103 41,196 109,264 67,67 160,109 263,109l239 0 21 -57 -151 0 531 -531 -179 475 151 0 -113 113zm986 -228c3,0 7,0 10,0 117,0 225,-41 309,-109 65,-52 116,-121 148,-199 -15,1 -30,2 -44,2 -167,0 -318,-68 -428,-178 -109,-109 -177,-260 -177,-427 0,-12 0,-23 1,-35 -76,32 -143,84 -194,148 -25,31 -46,64 -62,101 53,15 101,44 139,82 59,59 95,140 95,230l0 2c59,26 110,67 146,120 39,56 62,125 62,199 0,21 -2,43 -5,64zm-1009 171l-97 0 116 -306 -250 250 97 0 -116 305 250 -249z"/>
  </g>
 </g>
</svg>
