<?xml version="1.0" encoding="UTF-8"?>
<!DOCTYPE svg PUBLIC "-//W3C//DTD SVG 1.1//EN" "http://www.w3.org/Graphics/SVG/1.1/DTD/svg11.dtd">
<!-- Creator: CorelDRAW X7 -->
<svg xmlns="http://www.w3.org/2000/svg" xml:space="preserve" width="100%" height="100%" version="1.1" style="shape-rendering:geometricPrecision; text-rendering:geometricPrecision; image-rendering:optimizeQuality; fill-rule:evenodd; clip-rule:evenodd"
viewBox="0 0 2600 2600"
 xmlns:xlink="http://www.w3.org/1999/xlink">
 <defs>
  <style type="text/css">
   <![CDATA[
    .fil1 {fill:none}
    .fil0 {fill:black;fill-rule:nonzero}
   ]]>
  </style>
 </defs>
 <g id="Layer_x0020_1">
  <metadata id="CorelCorpID_0Corel-Layer"/>
  <path class="fil0" d="M1512 1437l101 26c-21,82 -59,145 -113,188 -55,43 -122,65 -200,65 -82,0 -148,-17 -199,-50 -51,-33 -90,-81 -117,-144 -27,-63 -40,-131 -40,-203 0,-79 15,-148 45,-207 30,-58 73,-103 129,-133 55,-31 117,-46 183,-46 76,0 140,19 191,58 52,38 88,92 108,162l-98 24c-18,-55 -43,-96 -77,-121 -33,-25 -75,-37 -126,-37 -58,0 -106,14 -145,41 -39,28 -67,66 -82,113 -16,47 -24,95 -24,145 0,65 9,121 28,169 19,48 48,84 87,108 40,23 82,35 128,35 56,0 104,-16 143,-48 38,-33 65,-81 78,-145zm-661 -496c68,62 160,10 160,-67 0,-83 -101,-125 -160,-66 -39,38 -36,101 0,133zm66 -104c49,0 50,75 0,75 -49,0 -50,-75 0,-75zm383 -313c207,0 402,81 549,227 146,147 227,342 227,549 0,207 -81,402 -227,549 -147,146 -342,227 -549,227 -207,0 -402,-81 -549,-227 -146,-147 -227,-342 -227,-549 0,-207 81,-402 227,-549 147,-146 342,-227 549,-227zm589 187c-158,-157 -367,-244 -589,-244 -222,0 -431,87 -589,244 -157,157 -244,367 -244,589 0,222 87,431 244,589 158,157 367,244 589,244 222,0 431,-87 589,-244 157,-158 244,-367 244,-589 0,-222 -87,-432 -244,-589z"/>
  <rect class="fil1" width="2600" height="2600"/>
 </g>
</svg>
