<?xml version="1.0" encoding="UTF-8"?>
<!DOCTYPE svg PUBLIC "-//W3C//DTD SVG 1.1//EN" "http://www.w3.org/Graphics/SVG/1.1/DTD/svg11.dtd">
<!-- Creator: CorelDRAW X7 -->
<svg xmlns="http://www.w3.org/2000/svg" xml:space="preserve" width="100%" height="100%" version="1.1" style="shape-rendering:geometricPrecision; text-rendering:geometricPrecision; image-rendering:optimizeQuality; fill-rule:evenodd; clip-rule:evenodd"
viewBox="0 0 2600 2600"
 xmlns:xlink="http://www.w3.org/1999/xlink">
 <defs>
  <style type="text/css">
   <![CDATA[
    .fil1 {fill:none}
    .fil0 {fill:black}
   ]]>
  </style>
 </defs>
 <g id="Layer_x0020_1">
  <metadata id="CorelCorpID_0Corel-Layer"/>
  <path class="fil0" d="M1005 837c-10,0 -20,4 -27,11 -6,7 -11,16 -11,26 0,11 5,20 11,27l0 0c7,7 17,11 27,11 10,0 20,-4 27,-11 6,-7 11,-16 11,-27 0,-10 -5,-20 -11,-26l0 0c-7,-7 -17,-11 -27,-11zm128 983l0 -758 511 0 0 89 -411 0 0 236 356 0 0 89 -356 0 0 344 -100 0zm167 -1296c207,0 402,81 549,227 146,147 227,342 227,549 0,207 -81,402 -227,549 -147,146 -342,227 -549,227 -207,0 -402,-81 -549,-227 -146,-147 -227,-342 -227,-549 0,-207 81,-402 227,-549 147,-146 342,-227 549,-227zm589 187c-158,-157 -367,-244 -589,-244 -222,0 -431,87 -589,244 -157,157 -244,367 -244,589 0,222 87,431 244,589 158,157 367,244 589,244 222,0 431,-87 589,-244 157,-158 244,-367 244,-589 0,-222 -87,-432 -244,-589zm-951 97c17,-17 41,-28 67,-28 26,0 49,11 66,28l0 0c17,17 28,40 28,66 0,26 -11,50 -28,67 -17,17 -40,27 -66,27 -26,0 -49,-10 -66,-27l-1 0 0 0c-17,-17 -27,-41 -27,-67 0,-26 10,-49 27,-66z"/>
  <rect class="fil1" width="2600" height="2600"/>
 </g>
</svg>
