<?xml version="1.0" encoding="UTF-8"?>
<!DOCTYPE svg PUBLIC "-//W3C//DTD SVG 1.1//EN" "http://www.w3.org/Graphics/SVG/1.1/DTD/svg11.dtd">
<!-- Creator: CorelDRAW X7 -->
<svg xmlns="http://www.w3.org/2000/svg" xml:space="preserve" width="4.22492in" height="5.26071in" version="1.1" style="shape-rendering:geometricPrecision; text-rendering:geometricPrecision; image-rendering:optimizeQuality; fill-rule:evenodd; clip-rule:evenodd"
viewBox="0 0 42249 52607"
 xmlns:xlink="http://www.w3.org/1999/xlink">
 <defs>
  <style type="text/css">
   <![CDATA[
    .fil9 {fill:#D2AE6D}
    .fil13 {fill:#DEC392}
    .fil4 {fill:#DEE4F2}
    .fil8 {fill:#E9D7B5}
    .fil12 {fill:#EFE1C8}
    .fil7 {fill:#F3E9D8}
    .fil0 {fill:#F4EBDA}
    .fil14 {fill:#F5EDDF}
    .fil2 {fill:#7C94CA;fill-rule:nonzero}
    .fil1 {fill:#95A9D4;fill-rule:nonzero}
    .fil11 {fill:#B3C1E0;fill-rule:nonzero}
    .fil10 {fill:#B99C67;fill-rule:nonzero}
    .fil6 {fill:#DCC495;fill-rule:nonzero}
    .fil5 {fill:#E5CFA8;fill-rule:nonzero}
    .fil3 {fill:white;fill-rule:nonzero}
   ]]>
  </style>
 </defs>
 <g id="Layer_x0020_1">
  <metadata id="CorelCorpID_0Corel-Layer"/>
  <g id="_3027071599376">
   <path class="fil0" d="M0 42715c0,-3505 3891,-6583 9761,-8341 3281,-982 7180,-1552 11364,-1552 11666,0 21124,4429 21124,9893 0,5463 -9458,9892 -21124,9892 -4184,0 -8083,-569 -11364,-1552 -5870,-1757 -9761,-4836 -9761,-8340z"/>
   <path class="fil1" d="M32868 41132c0,86 -5,172 -15,256 -302,2804 -5549,5037 -11978,5037 -2381,0 -4601,-306 -6468,-835 -3234,-917 -5408,-2501 -5520,-4311l0 -10c-2,-45 -4,-91 -4,-137 0,-45 2,-91 4,-136 31,-545 249,-1071 628,-1563 216,-282 486,-554 805,-811 2025,-1656 5993,-2781 10555,-2781 5278,0 9758,1503 11360,3592 412,534 633,1105 633,1699z"/>
   <polygon class="fil1" points="32868,39433 32868,41388 32853,41388 12454,41295 8887,41279 8887,39433 "/>
   <path class="fil2" d="M14407 43741l0 1849c-3234,-917 -5408,-2501 -5520,-4311l0 -10c-2,-45 -4,-91 -4,-137 0,-45 2,-91 4,-136l0 -1563 628 0c216,-282 486,-554 805,-812l646 812 1488 1862 1953 2446z"/>
   <path class="fil3" d="M32868 39286c0,2922 -5369,5291 -11993,5291 -2381,0 -4601,-307 -6468,-836 -3322,-939 -5524,-2584 -5524,-4455 0,-589 218,-1157 621,-1686 1595,-2095 6084,-3606 11371,-3606 6624,0 11993,2369 11993,5292z"/>
   <path class="fil4" d="M15642 43762c6242,0 11304,-1499 11304,-3350 0,-1850 -5062,-3350 -11304,-3350 -2263,0 -4371,196 -6138,538 -403,529 -621,1097 -621,1686 0,1871 2202,3516 5524,4455 405,14 816,21 1235,21z"/>
   <path class="fil5" d="M28341 26116c-1311,1407 -1242,4404 -1223,6666 2,191 2,376 2,555 0,2300 177,6543 -5996,6543 -6171,0 -5645,-5252 -5645,-7354 0,-235 0,-477 2,-718 7,-1916 -5,-3967 -723,-5013l7461 -5210c0,0 7545,3008 6122,4531z"/>
   <path class="fil6" d="M15481 31808c7,-1916 -5,-3967 -723,-5013 0,0 3111,2276 5887,2043 2667,-223 -2295,3404 -5164,2970z"/>
   <path class="fil7" d="M21125 0l0 0c-287,0 -521,234 -521,521l0 4182c0,286 234,521 521,521l0 0c286,0 521,-235 521,-521l0 -4182c0,-287 -235,-521 -521,-521z"/>
   <path class="fil7" d="M12051 2431l0 0c-248,143 -334,464 -191,712l2091 3622c144,248 464,333 712,190l0 0c248,-143 334,-463 191,-711l-2091 -3622c-144,-248 -464,-334 -712,-191z"/>
   <path class="fil7" d="M5409 9073l0 0c-143,249 -58,569 191,712l3621 2091c248,143 569,58 712,-191l0 0c143,-248 57,-568 -191,-711l-3621 -2091c-249,-143 -569,-58 -712,190z"/>
   <path class="fil7" d="M2978 18147l0 0c0,286 234,521 521,521l4182 0c286,0 520,-235 520,-521l0 0c0,-287 -234,-521 -520,-521l-4182 0c-287,0 -521,234 -521,521z"/>
   <path class="fil7" d="M5409 27220l0 0c143,249 463,334 712,191l3621 -2091c248,-143 334,-463 191,-711l0 0c-143,-249 -464,-334 -712,-191l-3621 2091c-249,143 -334,463 -191,711z"/>
   <path class="fil7" d="M36840 27220l0 0c144,-248 58,-568 -190,-711l-3622 -2091c-248,-143 -568,-58 -712,191l0 0c-143,248 -57,568 191,711l3622 2091c248,143 568,58 711,-191z"/>
   <path class="fil7" d="M39272 18147l0 0c0,-287 -235,-521 -521,-521l-4182 0c-287,0 -521,234 -521,521l0 0c0,286 234,521 521,521l4182 0c286,0 521,-235 521,-521z"/>
   <path class="fil7" d="M36840 9073l0 0c-143,-248 -463,-333 -711,-190l-3622 2091c-248,143 -334,463 -191,711l0 0c144,249 464,334 712,191l3622 -2091c248,-143 334,-463 190,-712z"/>
   <path class="fil7" d="M30198 2431l0 0c-248,-143 -568,-57 -712,191l-2091 3622c-143,248 -57,568 191,711l0 0c248,143 569,58 712,-190l2091 -3622c143,-248 57,-569 -191,-712z"/>
   <path class="fil8" d="M21125 7054c6018,0 10898,4879 10898,10898 0,6019 -4880,10898 -10898,10898 -6019,0 -10898,-4879 -10898,-10898 0,-6019 4879,-10898 10898,-10898z"/>
   <path class="fil9" d="M23191 21052l0 2067 -8266 0 0 -2067 8266 0zm-8266 -6200l0 -2067c4133,0 8266,0 12400,0l-2067 2067c-3444,0 -6889,0 -10333,0zm12400 2067c0,2066 0,4133 0,6200l-2067 0 0 -4134 0 0 -10333 0 0 -2066c4133,0 8266,0 12400,0z"/>
   <path class="fil10" d="M23843 24840c-117,0 -261,205 -386,381 -53,76 -103,147 -150,201l0 0c-16,18 -32,34 -48,48 -84,73 -186,109 -289,109 -102,0 -204,-36 -288,-109 -16,-14 -33,-30 -48,-48l0 0c-47,-54 -97,-125 -150,-200 -125,-177 -269,-382 -386,-382 -117,0 -261,205 -386,381 -53,76 -103,147 -150,201l0 0c-15,18 -32,34 -48,48 -84,73 -186,109 -288,109 -102,0 -204,-36 -288,-108 -17,-15 -34,-31 -49,-49 -49,-56 -98,-126 -150,-200 -124,-177 -269,-382 -386,-382 -117,0 -262,206 -387,383 -52,74 -100,143 -148,199 -16,17 -32,33 -49,48 -84,73 -186,109 -288,109 -103,0 -205,-36 -289,-109 -17,-15 -33,-31 -48,-48 -48,-56 -97,-125 -149,-199 -125,-177 -269,-383 -387,-383 -205,0 -400,176 -550,428 -178,298 -289,696 -290,1048l1309 9792 4297 0 1309 -9792c0,-352 -112,-750 -290,-1048 -150,-252 -345,-428 -550,-428zm-560 259c154,-219 333,-472 560,-472 289,0 545,219 733,532 197,331 321,772 321,1161l-1 14 -1324 9895 -12 92 -93 0 -4483 0 -93 0 -12 -92 -1323 -9895 -2 -14c0,-389 124,-830 322,-1161 187,-313 443,-532 732,-532 228,0 407,254 561,473 50,71 96,137 136,183 8,9 17,18 26,26 44,38 97,57 150,57 53,0 106,-19 149,-57 9,-8 18,-17 27,-26 39,-46 86,-112 135,-182 154,-219 334,-474 561,-474 228,0 406,254 560,472 50,71 97,138 137,184 8,10 17,19 27,27 44,37 97,56 149,56 52,0 105,-19 148,-56 10,-8 18,-17 27,-27l0 -1c42,-48 88,-113 137,-183 154,-219 332,-472 560,-472 227,0 406,254 560,472 49,70 95,135 137,183l0 1c8,9 17,18 27,26 43,38 96,57 148,57 53,0 105,-19 149,-56 10,-9 19,-18 27,-27l0 -1c42,-48 88,-113 137,-183z"/>
   <path class="fil1" d="M25534 36972c0,2379 -1166,4076 -4308,4076 -3143,0 -4309,-1697 -4309,-4076 0,-3341 8617,-3341 8617,0z"/>
   <path class="fil11" d="M27048 35349c-37,337 -95,678 -184,1015 -478,1826 -1843,3516 -5740,3516 -3511,0 -4852,-1697 -5359,-3550 -93,-337 -158,-682 -203,-1021 -139,-1069 -83,-2095 -83,-2783 3741,1218 7619,1304 11639,256 2,190 2,376 2,555 0,579 12,1284 -72,2012z"/>
   <path class="fil1" d="M27048 35349c-37,337 -95,678 -184,1015 -1802,477 -3624,717 -5457,717 -1873,0 -3757,-249 -5642,-751 -93,-337 -158,-682 -203,-1021 3862,1109 7717,1121 11486,40z"/>
   <path class="fil12" d="M25258 14852l2067 -2067 -4089 0c-253,625 -325,1345 -176,2067l2198 0z"/>
   <path class="fil12" d="M27325 16919l-3059 0c842,721 1974,999 3025,633 11,-4 23,-8 34,-12l0 -621z"/>
   <path class="fil13" d="M19360 14852l3700 0c-149,-722 -77,-1442 176,-2067l-3629 0c-201,651 -288,1352 -247,2067z"/>
   <path class="fil13" d="M24266 16919l-4424 0c341,809 834,1507 1427,2066l3989 0 0 1488c410,-30 821,-113 1225,-253 297,-104 578,-234 842,-388l0 -2292c-11,4 -23,8 -34,12 -1051,366 -2183,88 -3025,-633z"/>
   <path class="fil14" d="M27325 17540c1615,-584 2420,-2489 1799,-4274 -626,-1797 -2461,-2792 -4098,-2221 -840,292 -1464,938 -1790,1740l4089 0 -2067 2067 -2198 0c33,160 77,320 133,479 224,644 603,1185 1073,1588l3059 0 0 621z"/>
   <path class="fil12" d="M24266 16919c-470,-403 -849,-944 -1073,-1588 -56,-159 -100,-319 -133,-479l-3700 0c32,559 142,1128 338,1690 44,128 93,254 144,377l4424 0z"/>
   <path class="fil12" d="M25258 18985l-3989 0c1100,1037 2542,1594 3989,1488l0 -1488z"/>
   <path class="fil12" d="M27325 17540l0 2292c2138,-1251 3114,-4060 2192,-6708 -1036,-2975 -4073,-4622 -6785,-3678 -1546,538 -2651,1801 -3125,3339l3629 0c326,-802 950,-1448 1790,-1740 1637,-571 3472,424 4098,2221 621,1785 -184,3690 -1799,4274z"/>
  </g>
 </g>
</svg>
