<?xml version="1.0" encoding="UTF-8"?>
<!DOCTYPE svg PUBLIC "-//W3C//DTD SVG 1.1//EN" "http://www.w3.org/Graphics/SVG/1.1/DTD/svg11.dtd">
<!-- Creator: CorelDRAW X7 -->
<svg xmlns="http://www.w3.org/2000/svg" xml:space="preserve" width="3.09606in" height="3.85508in" version="1.1" style="shape-rendering:geometricPrecision; text-rendering:geometricPrecision; image-rendering:optimizeQuality; fill-rule:evenodd; clip-rule:evenodd"
viewBox="0 0 30961 38551"
 xmlns:xlink="http://www.w3.org/1999/xlink">
 <defs>
  <style type="text/css">
   <![CDATA[
    .fil9 {fill:#D2AE6D}
    .fil13 {fill:#DEC392}
    .fil4 {fill:#DEE4F2}
    .fil8 {fill:#E9D7B5}
    .fil12 {fill:#EFE1C8}
    .fil7 {fill:#F3E9D8}
    .fil0 {fill:#F4EBDA}
    .fil14 {fill:#F5EDDF}
    .fil2 {fill:#7C94CA;fill-rule:nonzero}
    .fil1 {fill:#95A9D4;fill-rule:nonzero}
    .fil11 {fill:#B3C1E0;fill-rule:nonzero}
    .fil10 {fill:#B99C67;fill-rule:nonzero}
    .fil6 {fill:#DCC495;fill-rule:nonzero}
    .fil5 {fill:#E5CFA8;fill-rule:nonzero}
    .fil3 {fill:white;fill-rule:nonzero}
   ]]>
  </style>
 </defs>
 <g id="Layer_x0020_1">
  <metadata id="CorelCorpID_0Corel-Layer"/>
  <g id="_1759736019536">
   <path class="fil0" d="M0 31302c0,-2569 2851,-4825 7153,-6112 2404,-720 5262,-1137 8327,-1137 8550,0 15481,3245 15481,7249 0,4003 -6931,7249 -15481,7249 -3065,0 -5923,-417 -8327,-1137 -4302,-1288 -7153,-3544 -7153,-6112z"/>
   <path class="fil1" d="M24086 30142c0,63 -4,126 -11,188 -221,2054 -4066,3691 -8777,3691 -1745,0 -3372,-225 -4740,-613 -2370,-671 -3963,-1832 -4045,-3158l0 -8c-2,-33 -4,-67 -4,-100 0,-33 2,-67 4,-100 22,-399 182,-785 460,-1146 158,-206 356,-405 589,-594 1484,-1213 4393,-2038 7736,-2038 3867,0 7150,1102 8324,2632 302,392 464,811 464,1246z"/>
   <polygon class="fil1" points="24086,28896 24086,30330 24075,30330 9126,30261 6513,30250 6513,28896 "/>
   <path class="fil2" d="M10558 32054l0 1354c-2370,-671 -3963,-1832 -4045,-3158l0 -8c-2,-33 -4,-67 -4,-100 0,-33 2,-67 4,-100l0 -1146 460 0c158,-206 356,-405 589,-594l474 594 1090 1365 1432 1793z"/>
   <path class="fil3" d="M24086 28789c0,2141 -3934,3877 -8788,3877 -1745,0 -3372,-224 -4740,-612 -2435,-688 -4049,-1894 -4049,-3265 0,-432 161,-848 455,-1235 1169,-1536 4459,-2643 8334,-2643 4854,0 8788,1736 8788,3878z"/>
   <path class="fil4" d="M11462 32069c4575,0 8284,-1099 8284,-2455 0,-1356 -3709,-2455 -8284,-2455 -1657,0 -3203,144 -4498,395 -294,387 -455,803 -455,1235 0,1371 1614,2577 4049,3265 296,10 598,15 904,15z"/>
   <path class="fil5" d="M20769 19138c-961,1031 -910,3227 -897,4885 2,139 2,276 2,407 0,1685 129,4794 -4394,4794 -4522,0 -4137,-3848 -4137,-5389 0,-172 0,-349 2,-526 5,-1404 -4,-2907 -530,-3674l5467 -3818c0,0 5529,2205 4487,3321z"/>
   <path class="fil6" d="M11345 23309c5,-1404 -4,-2907 -530,-3674 0,0 2279,1668 4314,1498 1954,-164 -1682,2494 -3784,2176z"/>
   <path class="fil7" d="M15480 0l0 0c-210,0 -381,172 -381,382l0 3064c0,210 171,382 381,382l0 0c210,0 382,-172 382,-382l0 -3064c0,-210 -172,-382 -382,-382z"/>
   <path class="fil7" d="M8831 1782l0 0c-182,105 -244,339 -140,521l1533 2654c105,182 339,245 521,140l0 0c182,-105 245,-340 140,-522l-1532 -2654c-105,-182 -340,-244 -522,-139z"/>
   <path class="fil7" d="M3964 6649l0 0c-105,182 -42,417 139,522l2654 1532c182,105 417,42 522,-140l0 0c105,-182 42,-416 -140,-521l-2654 -1533c-182,-105 -416,-42 -521,140z"/>
   <path class="fil7" d="M2182 13298l0 0c0,210 172,382 382,382l3064 0c210,0 382,-172 382,-382l0 0c0,-210 -172,-382 -382,-382l-3064 0c-210,0 -382,172 -382,382z"/>
   <path class="fil7" d="M3964 19947l0 0c105,182 339,245 521,140l2654 -1532c182,-105 245,-340 140,-522l0 0c-105,-182 -340,-244 -522,-139l-2654 1532c-181,105 -244,339 -139,521z"/>
   <path class="fil7" d="M26997 19947l0 0c105,-182 42,-416 -140,-521l-2654 -1532c-182,-105 -416,-43 -521,139l0 0c-105,182 -42,417 139,522l2654 1532c182,105 417,42 522,-140z"/>
   <path class="fil7" d="M28779 13298l0 0c0,-210 -172,-382 -382,-382l-3065 0c-210,0 -381,172 -381,382l0 0c0,210 171,382 381,382l3065 0c210,0 382,-172 382,-382z"/>
   <path class="fil7" d="M26997 6649l0 0c-105,-182 -340,-245 -522,-140l-2654 1533c-181,105 -244,339 -139,521l0 0c105,182 339,245 521,140l2654 -1532c182,-105 245,-340 140,-522z"/>
   <path class="fil7" d="M22129 1782l0 0c-181,-105 -416,-43 -521,139l-1532 2654c-105,182 -42,417 139,522l0 0c182,105 417,42 522,-140l1532 -2654c105,-182 42,-416 -140,-521z"/>
   <path class="fil8" d="M15480 5169c4411,0 7987,3576 7987,7986 0,4411 -3576,7986 -7987,7986 -4410,0 -7986,-3575 -7986,-7986 0,-4410 3576,-7986 7986,-7986z"/>
   <path class="fil9" d="M16995 15427l0 1515 -6058 0 0 -1515 6058 0zm-6058 -4544l0 -1514c3029,0 6058,0 9087,0l-1515 1514c-2524,0 -5048,0 -7572,0zm9087 1515c0,1515 0,3029 0,4544l-1515 0 0 -3029 0 0 -7572 0 0 -1515c3029,0 6058,0 9087,0z"/>
   <path class="fil10" d="M17472 18203c-85,0 -191,150 -282,279 -39,56 -76,108 -110,148l-1 -1c-11,13 -23,25 -35,36 -61,53 -136,79 -211,79 -75,0 -150,-26 -211,-79 -12,-11 -24,-23 -35,-36l0 1c-35,-40 -72,-92 -111,-147 -91,-130 -197,-280 -283,-280 -85,0 -191,150 -282,279 -39,56 -76,108 -110,148l0 -1c-11,13 -23,25 -36,36 -61,53 -135,79 -210,79 -75,0 -150,-26 -212,-79 -12,-11 -24,-23 -35,-36 -36,-41 -72,-92 -110,-146 -91,-130 -197,-280 -283,-280 -86,0 -192,151 -284,281 -37,54 -73,104 -108,145 -12,13 -23,25 -36,36 -61,53 -136,80 -211,80 -75,0 -150,-27 -212,-81 -12,-10 -24,-22 -35,-35 -35,-41 -71,-92 -109,-146 -92,-129 -198,-280 -284,-280 -150,0 -293,129 -403,314 -130,218 -212,509 -213,767l960 7176 3149 0 959 -7176c0,-258 -82,-549 -213,-767 -110,-185 -252,-314 -403,-314zm-410 190c113,-161 244,-346 410,-346 212,0 400,160 537,390 145,242 236,565 236,850l-1 10 -970 7251 -9 69 -68 0 -3285 0 -68 0 -9 -69 -970 -7251 -1 -10c0,-285 91,-608 235,-850 137,-230 325,-390 537,-390 167,0 298,186 411,347 37,51 71,100 100,133 6,7 12,14 19,20 32,27 71,41 110,41 38,0 77,-14 109,-41 7,-6 14,-13 20,-20 29,-33 63,-81 99,-133 113,-160 244,-347 411,-347 167,0 298,186 410,346 37,52 71,101 101,134 6,7 12,14 19,20 33,28 71,42 110,42 38,0 76,-14 108,-42 7,-6 14,-12 20,-20l0 0c31,-35 64,-83 100,-134 113,-161 244,-346 410,-346 167,0 298,186 411,346 36,51 70,99 100,134l0 0c7,7 13,14 20,20 32,28 71,42 109,42 38,0 77,-14 109,-42 7,-6 14,-13 20,-20l0 0c30,-35 64,-83 100,-134z"/>
   <path class="fil1" d="M18711 27093c0,1744 -854,2987 -3157,2987 -2303,0 -3157,-1243 -3157,-2987 0,-2448 6314,-2448 6314,0z"/>
   <path class="fil11" d="M19821 25904c-27,247 -70,497 -135,744 -350,1338 -1350,2576 -4206,2576 -2573,0 -3556,-1243 -3927,-2601 -68,-247 -116,-500 -149,-748 -102,-784 -61,-1535 -61,-2040 2741,893 5583,956 8529,188 2,139 2,276 2,407 0,424 8,940 -53,1474z"/>
   <path class="fil1" d="M19821 25904c-27,247 -70,497 -135,744 -1320,349 -2656,525 -3998,525 -1374,0 -2754,-182 -4135,-550 -68,-247 -116,-500 -149,-748 2830,812 5655,821 8417,29z"/>
   <path class="fil12" d="M18509 10883l1515 -1514 -2996 0c-186,458 -239,986 -129,1514l1610 0z"/>
   <path class="fil12" d="M20024 12398l-2241 0c616,529 1446,733 2216,464 8,-2 17,-5 25,-8l0 -456z"/>
   <path class="fil13" d="M14187 10883l2712 0c-110,-528 -57,-1056 129,-1514l-2660 0c-147,477 -211,990 -181,1514z"/>
   <path class="fil13" d="M17783 12398l-3242 0c249,593 611,1105 1045,1515l2923 0 0 1090c301,-22 602,-83 898,-186 218,-76 424,-171 617,-284l0 -1679c-8,3 -17,6 -25,8 -770,269 -1600,65 -2216,-464z"/>
   <path class="fil14" d="M20024 12854c1184,-429 1773,-1825 1318,-3133 -458,-1316 -1803,-2045 -3003,-1628 -615,215 -1073,688 -1311,1276l2996 0 -1515 1514 -1610 0c24,118 56,235 97,351 164,472 442,869 787,1164l2241 0 0 456z"/>
   <path class="fil12" d="M17783 12398c-345,-295 -623,-692 -787,-1164 -41,-116 -73,-233 -97,-351l-2712 0c24,411 104,827 248,1239 32,94 68,186 106,276l3242 0z"/>
   <path class="fil12" d="M18509 13913l-2923 0c806,759 1863,1167 2923,1090l0 -1090z"/>
   <path class="fil12" d="M20024 12854l0 1679c1567,-917 2282,-2975 1606,-4916 -759,-2180 -2985,-3387 -4972,-2695 -1132,394 -1943,1320 -2290,2447l2660 0c238,-588 696,-1061 1311,-1276 1200,-417 2545,312 3003,1628 455,1308 -134,2704 -1318,3133z"/>
  </g>
 </g>
</svg>
