<?xml version="1.0" encoding="UTF-8"?>
<!DOCTYPE svg PUBLIC "-//W3C//DTD SVG 1.1//EN" "http://www.w3.org/Graphics/SVG/1.1/DTD/svg11.dtd">
<!-- Creator: CorelDRAW X7 -->
<svg xmlns="http://www.w3.org/2000/svg" xml:space="preserve" width="13.9857in" height="14.7481in" version="1.1" style="shape-rendering:geometricPrecision; text-rendering:geometricPrecision; image-rendering:optimizeQuality; fill-rule:evenodd; clip-rule:evenodd"
viewBox="0 0 139857 147481"
 xmlns:xlink="http://www.w3.org/1999/xlink">
 <defs>
  <style type="text/css">
   <![CDATA[
    .fil41 {fill:#C0BDDB}
    .fil30 {fill:#D2AE6D}
    .fil42 {fill:#D6DDEE}
    .fil34 {fill:#DEC392}
    .fil25 {fill:#DEE4F2}
    .fil29 {fill:#E9D7B5}
    .fil40 {fill:#E9D7B6}
    .fil44 {fill:#E9EDF5}
    .fil43 {fill:#EBEFF6}
    .fil33 {fill:#EFE1C8}
    .fil28 {fill:#F3E9D8}
    .fil21 {fill:#F4EBDA}
    .fil35 {fill:#F5EDDF}
    .fil23 {fill:#7C94CA;fill-rule:nonzero}
    .fil22 {fill:#95A9D4;fill-rule:nonzero}
    .fil7 {fill:#A5A2CE;fill-rule:nonzero}
    .fil32 {fill:#B3C1E0;fill-rule:nonzero}
    .fil38 {fill:#B7C5E4;fill-rule:nonzero}
    .fil31 {fill:#B99C67;fill-rule:nonzero}
    .fil8 {fill:#BBB8DA;fill-rule:nonzero}
    .fil39 {fill:#C0BDDB;fill-rule:nonzero}
    .fil14 {fill:#C4C2DF;fill-rule:nonzero}
    .fil5 {fill:#C4CFE9;fill-rule:nonzero}
    .fil9 {fill:#CFCEE5;fill-rule:nonzero}
    .fil13 {fill:#D2AE6D;fill-rule:nonzero}
    .fil15 {fill:#D7D5E9;fill-rule:nonzero}
    .fil16 {fill:#DBBD89;fill-rule:nonzero}
    .fil27 {fill:#DCC495;fill-rule:nonzero}
    .fil10 {fill:#DCE3F2;fill-rule:nonzero}
    .fil11 {fill:#E0C698;fill-rule:nonzero}
    .fil37 {fill:#E0E6F3;fill-rule:nonzero}
    .fil26 {fill:#E5CFA8;fill-rule:nonzero}
    .fil3 {fill:#E5D0A9;fill-rule:nonzero}
    .fil20 {fill:#E5D5B7;fill-rule:nonzero}
    .fil17 {fill:#E6D1AB;fill-rule:nonzero}
    .fil4 {fill:#EBDBBD;fill-rule:nonzero}
    .fil1 {fill:#EDDEC2;fill-rule:nonzero}
    .fil2 {fill:#EDDFC4;fill-rule:nonzero}
    .fil19 {fill:#EFE2CA;fill-rule:nonzero}
    .fil0 {fill:#F4EBDA;fill-rule:nonzero}
    .fil18 {fill:#FAF4EC;fill-rule:nonzero}
    .fil6 {fill:#FBF7F0;fill-rule:nonzero}
    .fil36 {fill:#FCF9F4;fill-rule:nonzero}
    .fil12 {fill:white;fill-rule:nonzero}
    .fil24 {fill:white;fill-rule:nonzero}
   ]]>
  </style>
 </defs>
 <g id="Layer_x0020_1">
  <metadata id="CorelCorpID_0Corel-Layer"/>
  <g id="_2137073731344">
   <path class="fil0" d="M0 147481c2803,-7601 8993,-13295 15900,-17280 7842,-4530 17657,-4983 24973,-10044 3186,-2202 5723,-5631 5985,-9492 235,-3575 -1446,-6953 -2549,-10366 -1095,-3410 -1490,-7542 882,-10225 2446,-2774 6682,-2798 10379,-2608 6074,314 19578,3758 21857,-4825 1567,-5899 -15754,-8069 -18822,-13352 -3258,-5625 -882,-25309 3318,-30272 4200,-4963 16996,-655 23184,-2642 4688,-1506 12481,389 16683,-2167 4207,-2557 7713,-6942 7618,-11862 -186,-9627 -12527,-13913 -17145,-22346l-23101 0c391,6523 -2045,12645 -9279,15203 -12148,4463 -29013,-4415 -36140,8958 -5378,9880 6499,21693 -3564,30078 -6164,4748 -13092,5912 -20179,6331l0 86911z"/>
   <path class="fil1" d="M0 147481c2803,-7601 8993,-13295 15900,-17280 7842,-4530 17657,-4983 24973,-10044 3186,-2202 5723,-5631 5985,-9492 235,-3575 -1446,-6953 -2549,-10366 -1095,-3410 -1490,-7542 882,-10225 2446,-2774 6682,-2798 10379,-2608 6074,314 19578,3758 21857,-4825 2028,-7631 -18158,-12163 -14717,-26508 2270,-9463 16493,-13885 25307,-16716 4688,-1505 9571,-2653 13773,-5209 4207,-2557 7713,-6942 7618,-11862 -186,-9627 -12527,-13913 -17145,-22346l-10722 0c132,292 263,567 394,823 3078,6006 8599,11359 8367,18108 -257,7565 -7896,12900 -15306,14450 -7411,1550 -15170,617 -22573,2202 -5828,1250 -11863,4745 -13259,10539 -2391,9905 5608,16040 6703,26168 1051,9725 -8529,17595 -18055,19815 -8412,1959 -19603,2534 -27812,5036l0 50340z"/>
   <g>
    <path class="fil0" d="M117750 19019c0,1911 1557,3468 3468,3468 1911,0 3458,-1557 3458,-3468 0,-1911 -1547,-3458 -3458,-3458 -1911,0 -3468,1547 -3468,3458z"/>
    <g>
     <path class="fil2" d="M123888 21213c495,-596 788,-1354 788,-2194 0,-1911 -1547,-3458 -3458,-3458 -1072,0 -2022,486 -2659,1244 0,0 2609,-1001 4216,607 1608,1607 1113,3801 1113,3801z"/>
     <path class="fil2" d="M120627 17109c41,41 81,81 122,122 60,60 60,171 0,232 -71,61 -172,61 -243,0 -40,-40 -71,-81 -111,-111 -61,-71 -61,-182 0,-243 61,-60 172,-60 232,0z"/>
     <path class="fil2" d="M119707 21093c-222,0 -222,-344 0,-344 213,0 213,344 0,344z"/>
     <path class="fil3" d="M121780 18494c-283,0 -283,-455 0,-455 293,0 293,455 0,455z"/>
    </g>
    <g>
     <path class="fil2" d="M122478 19071l-122 0c-141,0 -141,-223 0,-223l122 0c141,0 141,223 0,223z"/>
     <path class="fil3" d="M120132 19545c-505,0 -505,-789 0,-789 506,0 506,789 0,789z"/>
    </g>
   </g>
   <g>
    <path class="fil4" d="M46907 9362c0,-3230 -411,-6368 -1183,-9362l-45724 0 0 45666c2981,762 6106,1168 9326,1168 20708,0 37581,-16764 37581,-37472z"/>
    <g>
     <path class="fil3" d="M0 45666c2981,762 6106,1168 9326,1168 11614,0 21913,-5259 28816,-13477 0,0 -14905,11344 -38142,-975l0 13284z"/>
     <path class="fil3" d="M15728 30060c-438,-438 -877,-876 -1315,-1314 -657,-658 -657,-1863 0,-2520 767,-658 1863,-658 2630,0 438,438 767,876 1205,1205 657,767 657,1972 0,2629 -657,658 -1863,658 -2520,0z"/>
     <path class="fil3" d="M3237 15050c3068,0 3068,4930 0,4930 -3177,0 -3177,-4930 0,-4930z"/>
    </g>
    <path class="fil3" d="M21095 3668c5478,0 5478,8546 0,8546 -5478,0 -5478,-8546 0,-8546z"/>
   </g>
   <g>
    <path class="fil5" d="M43521 52301c1539,4363 6323,6651 10685,5112 4362,-1539 6651,-6323 5112,-10685 -1539,-4362 -6323,-6651 -10685,-5112 -4362,1539 -6651,6323 -5112,10685z"/>
    <path class="fil6" d="M44155 52076c849,2404 2762,4120 5025,4809 673,207 1381,320 2095,334 320,6 644,-9 966,-43 196,-21 388,-50 583,-86 388,-69 773,-173 1158,-309 750,-265 1434,-638 2043,-1087 2636,-1964 3808,-5483 2657,-8743 -400,-1136 -1040,-2115 -1840,-2906 -980,-974 -2205,-1664 -3536,-1998 -311,-81 -630,-139 -951,-181 -694,-85 -1407,-76 -2118,36 -464,72 -925,187 -1381,347 -3083,1088 -5044,3943 -5133,7025 -35,927 105,1875 432,2802z"/>
    <path class="fil7" d="M51549 49881c106,-37 196,-121 236,-236l1358 -3808c71,-202 -34,-424 -236,-496 -201,-71 -425,33 -496,235l-1357 3809c-72,201 33,423 235,496 87,31 178,29 260,0z"/>
    <path class="fil8" d="M49994 50018c277,787 1141,1200 1928,922 787,-277 1200,-1141 923,-1928 -278,-787 -1141,-1200 -1928,-922 -788,277 -1201,1140 -923,1928z"/>
    <path class="fil8" d="M56711 52819c86,-30 161,-90 208,-174 107,-187 42,-424 -145,-530l-5163 -2937c-186,-107 -423,-42 -529,145 -106,186 -41,423 145,529l5163 2938c102,58 219,65 321,29z"/>
   </g>
   <g>
    <path class="fil9" d="M53582 96114l-4126 11080c-224,601 81,1268 681,1491l15184 5655c600,223 1267,-82 1490,-682l4127 -11081c224,-600 -81,-1267 -682,-1491l-15183 -5654c-601,-224 -1267,81 -1491,682z"/>
    <path class="fil10" d="M53852 94105l-4824 10795c-261,585 0,1270 586,1531l14791 6610c586,262 1271,0 1532,-585l4824 -10795c261,-585 0,-1270 -585,-1531l-14793 -6611c-585,-261 -1270,1 -1531,586z"/>
    <path class="fil11" d="M53852 94105l-1070 2395 16909 7556 1070 -2395c261,-585 0,-1270 -585,-1531l-14793 -6611c-585,-261 -1270,1 -1531,586z"/>
    <polygon class="fil12" points="52434,97279 69343,104834 69691,104056 52782,96500 "/>
    <path class="fil13" d="M65427 99548c-313,699 1,1519 700,1832 699,312 1519,-2 1832,-701 312,-699 -1,-1519 -700,-1831 -700,-312 -1520,0 -1832,700z"/>
    <path class="fil13" d="M56453 95538c-313,700 1,1519 700,1832 699,312 1519,-2 1831,-700 314,-700 0,-1520 -699,-1832 -700,-313 -1520,1 -1832,700z"/>
    <path class="fil5" d="M66450 101030c442,118 916,-99 1108,-530l839 -1875c213,-478 -1,-1039 -480,-1253 -486,-215 -1038,2 -1251,480l-838 1875c-215,478 0,1038 478,1252 48,22 96,38 144,51z"/>
    <path class="fil5" d="M57476 97020c442,118 916,-99 1108,-530l838 -1875c214,-478 0,-1039 -479,-1253 -484,-213 -1038,2 -1252,479l-838 1876c-214,478 1,1039 479,1253 48,21 96,37 144,50z"/>
    <polygon class="fil9" points="64524,105965 66168,106700 66793,105303 65147,104568 "/>
    <polygon class="fil9" points="53162,100888 54807,101623 55431,100226 53786,99491 "/>
    <polygon class="fil9" points="56002,102157 57648,102892 58272,101496 56627,100760 "/>
    <polygon class="fil9" points="58843,103427 60488,104162 61112,102765 59467,102030 "/>
    <polygon class="fil9" points="61683,104696 63328,105431 63952,104034 62307,103299 "/>
    <polygon class="fil9" points="63509,108235 65154,108970 65778,107574 64133,106838 "/>
    <polygon class="fil9" points="52148,103158 53793,103893 54417,102496 52772,101761 "/>
    <polygon class="fil9" points="54988,104427 56633,105162 57257,103766 55612,103031 "/>
    <polygon class="fil9" points="57828,105697 59473,106432 60098,105035 58452,104300 "/>
    <polygon class="fil9" points="60669,106966 62314,107701 62938,106304 61293,105569 "/>
    <polygon class="fil9" points="62494,110505 64139,111240 64764,109844 63119,109108 "/>
    <polygon class="fil9" points="51133,105428 52778,106163 53402,104766 51758,104031 "/>
    <polygon class="fil9" points="53973,106697 55619,107433 56243,106036 54598,105301 "/>
    <polygon class="fil9" points="56814,107967 58459,108702 59083,107305 57438,106570 "/>
    <polygon class="fil9" points="59654,109236 61299,109971 61923,108574 60279,107839 "/>
   </g>
   <g>
    <path class="fil14" d="M13550 52838l-9079 4514c-502,250 -708,861 -457,1364l8694 17487c250,502 861,707 1363,457l9079 -4513c266,-132 448,-369 525,-634 64,-237 50,-493 -68,-730l-8694 -17487c-118,-236 -314,-402 -541,-494 -258,-99 -556,-96 -822,36z"/>
    <path class="fil15" d="M14372 52802l-2214 10306c-343,1612 472,3251 1964,3949l9553 4456c64,-237 51,-493 -68,-730l-8694 -17487c-118,-236 -313,-402 -541,-494z"/>
   </g>
   <g>
    <path class="fil16" d="M25919 50590l-1360 5682c-76,315 118,632 433,707l10945 2620c315,75 632,-119 707,-434l1360 -5682c40,-167 3,-334 -86,-467 -81,-116 -199,-204 -347,-240l-10946 -2620c-148,-35 -294,-10 -418,57 -140,77 -248,211 -288,377z"/>
    <path class="fil17" d="M26207 50213l3738 4788c585,748 1611,994 2472,592l5501 -2577c-81,-116 -199,-204 -347,-240l-10946 -2620c-148,-35 -294,-10 -418,57z"/>
   </g>
   <path class="fil18" d="M14771 122301c-2973,97 -5355,2536 -5371,5557l-49 0c-24,-3021 -2407,-5460 -5371,-5557 2980,-97 5371,-2561 5371,-5598l40 0c0,3037 2391,5501 5380,5598z"/>
   <path class="fil19" d="M107201 38026c-1264,41 -2278,1079 -2285,2364l-20 0c-11,-1285 -1024,-2323 -2285,-2364 1267,-42 2285,-1090 2285,-2382l17 0c0,1292 1017,2340 2288,2382z"/>
   <path class="fil19" d="M50944 112745c-920,30 -1659,786 -1664,1722l-15 0c-7,-936 -745,-1692 -1664,-1722 924,-30 1664,-793 1664,-1734l13 0c0,941 741,1704 1666,1734z"/>
   <path class="fil20" d="M139857 25127c-632,21 -1139,540 -1142,1182l-11 0c-5,-642 -512,-1161 -1142,-1182 634,-20 1142,-544 1142,-1190l9 0c0,646 508,1170 1144,1190z"/>
   <g>
    <path class="fil21" d="M71436 95964c0,-4446 4936,-8352 12383,-10581 4163,-1247 9110,-1969 14417,-1969 14802,0 26801,5618 26801,12550 0,6932 -11999,12551 -26801,12551 -5307,0 -10254,-723 -14417,-1969 -7447,-2230 -12383,-6136 -12383,-10582z"/>
    <path class="fil22" d="M113135 93956c0,109 -6,218 -18,325 -383,3557 -7041,6391 -15197,6391 -3021,0 -5838,-389 -8206,-1060 -4103,-1163 -6861,-3173 -7003,-5469l0 -13c-3,-57 -6,-116 -6,-174 0,-57 3,-115 6,-173 38,-691 316,-1358 797,-1983 274,-357 616,-702 1020,-1029 2569,-2101 7605,-3528 13392,-3528 6696,0 12380,1908 14413,4557 522,679 802,1403 802,2156z"/>
    <polygon class="fil22" points="113135,91800 113135,94281 113117,94281 87236,94163 82711,94143 82711,91800 "/>
    <path class="fil23" d="M89714 97266l0 2346c-4103,-1163 -6861,-3172 -7003,-5469l0 -13c-3,-57 -6,-115 -6,-174 0,-57 3,-115 6,-173l0 -1983 797 0c274,-357 616,-702 1020,-1029l820 1029 1888 2363 2478 3103z"/>
    <path class="fil24" d="M113135 91614c0,3708 -6811,6713 -15215,6713 -3021,0 -5838,-389 -8206,-1061 -4215,-1191 -7009,-3279 -7009,-5652 0,-747 278,-1467 788,-2139 2023,-2658 7719,-4575 14427,-4575 8404,0 15215,3006 15215,6714z"/>
    <path class="fil25" d="M91280 97293c7920,0 14342,-1902 14342,-4250 0,-2347 -6422,-4250 -14342,-4250 -2870,0 -5545,249 -7787,682 -510,672 -788,1392 -788,2139 0,2373 2794,4461 7009,5652 513,18 1035,27 1566,27z"/>
    <path class="fil26" d="M107392 74905c-1664,1785 -1576,5587 -1552,8457 3,242 3,478 3,705 0,2918 224,8301 -7607,8301 -7829,0 -7162,-6663 -7162,-9330 0,-298 0,-605 3,-912 9,-2430 -6,-5032 -918,-6359l9466 -6611c0,0 9572,3817 7767,5749z"/>
    <path class="fil27" d="M91077 82126c9,-2430 -6,-5032 -918,-6359 0,0 3947,2888 7469,2592 3384,-283 -2911,4319 -6551,3767z"/>
    <path class="fil28" d="M98237 41772l0 0c-364,0 -661,297 -661,661l0 5306c0,363 297,660 661,660l0 0c363,0 660,-297 660,-660l0 -5306c0,-364 -297,-661 -660,-661z"/>
    <path class="fil28" d="M86725 44856l0 0c-315,182 -424,588 -242,903l2653 4595c182,315 588,424 903,242l0 0c315,-182 423,-588 242,-903l-2653 -4595c-182,-314 -588,-423 -903,-242z"/>
    <path class="fil28" d="M78298 53284l0 0c-182,314 -73,721 242,902l4595 2653c315,182 721,73 903,-242l0 0c181,-315 72,-721 -242,-903l-4595 -2652c-315,-182 -721,-73 -903,242z"/>
    <path class="fil28" d="M75213 64795l0 0c0,364 298,661 661,661l5306 0c364,0 661,-297 661,-661l0 0c0,-363 -297,-661 -661,-661l-5306 0c-363,0 -661,298 -661,661z"/>
    <path class="fil28" d="M78298 76307l0 0c182,314 588,423 903,241l4595 -2652c314,-182 423,-588 242,-903l0 0c-182,-315 -588,-424 -903,-242l-4595 2653c-315,182 -424,588 -242,903z"/>
    <path class="fil28" d="M118175 76307l0 0c182,-315 73,-722 -242,-903l-4595 -2653c-314,-182 -721,-73 -902,242l0 0c-182,315 -73,721 241,903l4595 2652c315,182 721,73 903,-241z"/>
    <path class="fil28" d="M121260 64795l0 0c0,-363 -298,-661 -661,-661l-5306 0c-363,0 -661,298 -661,661l0 0c0,364 298,661 661,661l5306 0c363,0 661,-297 661,-661z"/>
    <path class="fil28" d="M118175 53284l0 0c-182,-315 -588,-424 -903,-242l-4595 2652c-314,182 -423,588 -241,903l0 0c181,315 588,424 902,242l4595 -2653c315,-181 424,-588 242,-902z"/>
    <path class="fil28" d="M109748 44856l0 0c-315,-181 -721,-72 -903,242l-2653 4595c-181,315 -72,721 242,903l0 0c315,182 721,73 903,-242l2653 -4595c182,-315 73,-721 -242,-903z"/>
    <path class="fil29" d="M98237 50721c7636,0 13826,6191 13826,13827 0,7636 -6190,13826 -13826,13826 -7637,0 -13827,-6190 -13827,-13826 0,-7636 6190,-13827 13827,-13827z"/>
    <path class="fil30" d="M100859 68481l0 2622 -10488 0 0 -2622 10488 0zm-10488 -7866l0 -2623c5244,0 10488,0 15732,0l-2622 2623c-4370,0 -8740,0 -13110,0zm15732 2622c0,2622 0,5244 0,7866l-2622 0 0 -5244 0 0 -13110 0 0 -2622c5244,0 10488,0 15732,0z"/>
    <path class="fil31" d="M101685 73287c-148,0 -331,259 -489,483 -67,96 -131,186 -191,255l0 0c-19,22 -40,43 -61,61 -106,92 -236,138 -366,138 -130,0 -259,-46 -365,-138 -21,-18 -42,-39 -61,-61l0 0c-60,-68 -124,-158 -191,-254 -158,-224 -341,-484 -490,-484 -148,0 -331,259 -489,483 -67,96 -131,186 -191,255l0 0c-19,22 -40,43 -61,61 -106,92 -235,138 -365,138 -130,0 -259,-46 -366,-137 -21,-19 -42,-40 -61,-62 -62,-71 -125,-160 -191,-254 -157,-224 -340,-484 -489,-484 -149,0 -333,261 -491,486 -66,93 -127,181 -189,252 -19,22 -39,42 -61,61 -106,92 -236,138 -366,138 -130,0 -260,-46 -366,-138 -22,-19 -42,-39 -61,-61 -62,-71 -124,-159 -189,-253 -158,-224 -342,-485 -491,-485 -261,0 -507,223 -698,543 -226,378 -367,882 -368,1329l1661 12423 5451 0 1662 -12423c-2,-447 -143,-951 -369,-1329 -191,-320 -437,-543 -698,-543zm-710 328c195,-277 422,-599 710,-599 367,0 692,278 930,675 250,420 407,980 407,1473l-1 18 -1679 12553 -16 118 -118 0 -5687 0 -118 0 -16 -118 -1679 -12553 -1 -18c0,-493 157,-1053 407,-1473 238,-397 563,-675 930,-675 289,0 516,323 712,601 62,89 122,173 172,231 11,12 22,24 33,34 56,48 123,72 190,72 67,0 134,-24 190,-72 11,-10 23,-22 33,-34 50,-58 109,-141 172,-230 195,-278 423,-602 712,-602 288,0 515,322 710,600 63,89 123,174 174,232 10,13 22,24 34,34 56,48 123,72 189,72 66,0 133,-24 188,-72 12,-10 23,-21 34,-34l0 0c53,-61 112,-145 174,-233 195,-277 422,-599 710,-599 288,0 515,322 711,600 62,88 121,171 174,232l0 0c10,13 22,24 33,34 56,48 123,72 189,72 67,0 134,-24 189,-72 12,-10 24,-21 34,-34l0 0c53,-61 112,-145 174,-233z"/>
    <path class="fil22" d="M103831 88678c0,3019 -1479,5171 -5466,5171 -3988,0 -5466,-2152 -5466,-5171 0,-4239 10932,-4239 10932,0z"/>
    <path class="fil32" d="M105752 86619c-48,428 -122,861 -233,1289 -608,2316 -2339,4460 -7283,4460 -4455,0 -6157,-2154 -6799,-4504 -118,-428 -201,-865 -257,-1295 -177,-1357 -106,-2658 -106,-3531 4746,1546 9666,1655 14766,324 3,242 3,478 3,705 0,734 15,1629 -91,2552z"/>
    <path class="fil22" d="M105752 86619c-48,428 -122,861 -233,1289 -2287,605 -4599,908 -6924,908 -2377,0 -4766,-315 -7158,-952 -118,-428 -201,-865 -257,-1295 4899,1407 9790,1421 14572,50z"/>
    <path class="fil33" d="M103481 60615l2622 -2623 -5187 0c-322,794 -414,1707 -224,2623l2789 0z"/>
    <path class="fil33" d="M106103 63237l-3880 0c1067,915 2504,1268 3837,804 14,-5 28,-10 43,-15l0 -789z"/>
    <path class="fil34" d="M95998 60615l4694 0c-190,-916 -98,-1829 224,-2623l-4605 0c-254,827 -365,1715 -313,2623z"/>
    <path class="fil34" d="M102223 63237l-5613 0c432,1026 1058,1913 1810,2622l5061 0 0 1887c520,-38 1041,-143 1553,-321 378,-132 734,-297 1069,-493l0 -2906c-15,5 -29,10 -43,15 -1333,464 -2770,111 -3837,-804z"/>
    <path class="fil35" d="M106103 64026c2049,-742 3070,-3159 2282,-5423 -793,-2280 -3122,-3542 -5199,-2819 -1065,371 -1857,1191 -2270,2208l5187 0 -2622 2623 -2789 0c42,202 98,405 168,607 285,817 766,1504 1363,2015l3880 0 0 789z"/>
    <path class="fil33" d="M102223 63237c-597,-511 -1078,-1198 -1363,-2015 -70,-202 -126,-405 -168,-607l-4694 0c40,710 180,1431 428,2144 57,162 118,322 184,478l5613 0z"/>
    <path class="fil33" d="M103481 65859l-5061 0c1395,1315 3224,2021 5061,1887l0 -1887z"/>
    <path class="fil33" d="M106103 64026l0 2906c2713,-1586 3951,-5150 2781,-8510 -1314,-3774 -5168,-5863 -8608,-4666 -1961,683 -3364,2285 -3965,4236l4605 0c413,-1017 1205,-1837 2270,-2208 2077,-723 4406,539 5199,2819 788,2264 -233,4681 -2282,5423z"/>
   </g>
   <g>
    <path class="fil5" d="M57689 78470l-25068 34388c-422,579 -1234,707 -1814,285l-19229 -14018c-579,-423 -707,-1235 -284,-1815l25068 -34387c422,-580 1237,-710 1816,-288l19230 14018c579,422 703,1238 281,1817z"/>
    <path class="fil36" d="M58555 79101l-25069 34388c-422,579 -1234,707 -1814,284l-19229 -14017c-579,-423 -706,-1236 -284,-1815l25067 -34387c423,-580 1238,-710 1817,-288l19230 14018c579,422 704,1237 282,1817z"/>
    <path class="fil37" d="M55544 79146l-9525 13061 -2 5 -7769 10664 -2 4 -3535 4841 -832 1143c-225,314 -668,383 -980,153l-9185 -6697 -7115 -5187c-318,-227 -383,-669 -158,-983l9247 -12686 12417 -17031c218,-300 632,-380 946,-179 14,8 28,16 39,28l2776 2025 6182 4509 7338 5347c318,228 388,672 158,983z"/>
    <path class="fil38" d="M22716 105862l0 0c-545,-398 -665,-1162 -267,-1707 397,-545 1161,-665 1706,-268 546,397 665,1162 267,1707 -397,545 -1161,665 -1706,268z"/>
    <path class="fil38" d="M40608 66515l0 0c-221,-161 -270,-472 -109,-694 162,-222 473,-270 694,-109 222,162 270,472 109,694 -162,222 -472,270 -694,109z"/>
    <path class="fil5" d="M35049 99864l-473 -345 1502 -2060c705,-968 991,-2152 806,-3334l-538 -3433c-171,-1088 576,-2112 1664,-2283l3433 -538c1183,-185 2222,-820 2928,-1787l1501 -2060 473 345 -1502 2060c-797,1093 -1972,1811 -3309,2021l-3434 538c-768,121 -1296,844 -1176,1613l538 3434c210,1336 -113,2675 -911,3769l-1502 2060z"/>
    <path class="fil5" d="M25125 92629l-473 -345 1502 -2060c797,-1093 1973,-1811 3310,-2021l3433 -538c769,-120 1297,-844 1176,-1613l-538 -3433c-210,-1337 114,-2676 911,-3770l1502 -2060 473 345 -1502 2060c-705,968 -991,2152 -806,3334l538 3433c171,1089 -575,2112 -1663,2283l-3434 538c-1182,186 -2222,820 -2927,1787l-1502 2060z"/>
    <path class="fil11" d="M46240 84977c-61,-18 -119,-47 -173,-86l-10531 -7677c-261,-190 -318,-557 -128,-819 190,-261 555,-318 819,-128l10530 7677c261,191 319,557 129,819 -152,207 -414,286 -646,214z"/>
    <path class="fil11" d="M34944 100472c-61,-18 -119,-47 -173,-86l-10531 -7677c-261,-191 -318,-557 -128,-819 191,-261 556,-318 819,-128l10530 7677c261,191 319,557 129,819 -151,207 -414,286 -646,214z"/>
    <path class="fil7" d="M35386 81672l810 5172c38,239 262,402 501,365l5171 -811c386,-60 506,-557 190,-787l-5982 -4360c-315,-231 -751,35 -690,421z"/>
    <path class="fil39" d="M29673 93113l2205 -346c239,-37 464,126 501,365l346 2206c60,385 -376,651 -691,421l-2551 -1860c-315,-229 -195,-725 190,-786z"/>
    <path class="fil39" d="M33445 91951c-154,213 -452,259 -665,104 -212,-155 -258,-452 -104,-664 155,-213 453,-259 665,-105 212,155 259,453 104,665z"/>
    <path class="fil39" d="M34672 90268c-155,213 -453,259 -665,105 -212,-155 -259,-453 -104,-665 154,-213 453,-259 665,-105 212,155 259,453 104,665z"/>
    <path class="fil39" d="M35899 88586c-155,212 -453,258 -665,103 -213,-154 -259,-452 -105,-664 155,-213 453,-259 666,-104 212,155 258,452 104,665z"/>
    <path class="fil40" d="M40551 80870l4976 3627 473 345 67 49c54,39 112,68 173,86 187,58 394,18 547,-109l85 -813c-32,-41 -71,-79 -115,-111l-6065 -4421 -141 1347z"/>
    <path class="fil41" d="M40197 84255l-256 2445 1927 -302c386,-60 506,-557 190,-787l-1861 -1356z"/>
    <path class="fil42" d="M39729 88733l1805 -283c1337,-210 2512,-928 3309,-2021l1157 -1587 -473 -345 -1156 1587c-706,967 -1745,1602 -2928,1787l-1651 259 -63 603z"/>
    <path class="fil43" d="M40692 79523l6065 4421c44,32 83,70 115,111l1176 -11239 -6182 -4509 -1174 11216z"/>
    <path class="fil44" d="M40197 84255l1861 1356c316,230 196,727 -190,787l-1927 302 -149 1430 1651 -259c1183,-185 2222,-820 2928,-1787l1156 -1587 -4976 -3627 -354 3385z"/>
    <path class="fil43" d="M41534 88450l-1805 283 -1481 14143 7769 -10665 2 -4 768 -7339c-153,127 -360,167 -547,109 -61,-18 -119,-47 -173,-86l-67 -49 -1157 1587c-797,1093 -1972,1811 -3309,2021z"/>
    <path class="fil41" d="M36861 87183l521 -4980 -1306 -952c-315,-231 -751,35 -690,421l810 5172c38,239 262,402 501,365l164 -26z"/>
    <path class="fil40" d="M34921 99046l-9451 -6890 -473 -345 -66 -49c-34,-24 -69,-44 -105,-61l-43 403 -26 257 -71 673 10085 7352c54,39 112,68 173,86 183,57 385,19 536,-101l88 -832c-31,-37 -66,-70 -107,-100l-67 -48 -473 -345z"/>
    <path class="fil42" d="M29554 88782l3434 -538c1088,-171 1834,-1194 1663,-2283l-538 -3433c-185,-1182 101,-2366 806,-3334l1157 -1586 -473 -345 -1157 1586c-797,1094 -1121,2433 -911,3770l538 3433c121,769 -407,1493 -1176,1613l-3433 538c-1337,210 -2513,928 -3310,2021l-1157 1587 473 345 1157 -1587c705,-967 1745,-1601 2927,-1787z"/>
    <path class="fil43" d="M29464 88203l3433 -538c769,-120 1297,-844 1176,-1613l-538 -3433c-210,-1337 114,-2676 911,-3770l1157 -1586 -67 -49c-261,-190 -318,-557 -128,-819 190,-261 555,-318 819,-128l1651 1204 1174 -11217c-315,-202 -729,-121 -946,179l-12418 17031 -862 8237c36,17 71,37 105,61l66 49 1157 -1587c797,-1093 1973,-1811 3310,-2021z"/>
    <path class="fil43" d="M34771 100386l-10085 -7352 -972 9286 9185 6698c311,229 755,160 980,-154l832 -1143 769 -7350c-151,120 -353,158 -536,101 -61,-18 -119,-47 -173,-86z"/>
    <path class="fil44" d="M32725 95338c60,385 -376,651 -691,421l-2551 -1860c-315,-229 -195,-725 190,-786l2205 -346c239,-37 464,126 501,365l346 2206zm-7255 -3182l9451 6890 815 -1119 699 -6671 -89 -564c-79,-502 38,-991 293,-1388l222 -2121 -164 26c-239,37 -463,-126 -501,-365l-810 -5172c-61,-386 375,-652 690,-421l1306 952 354 -3385 -1660 -1210 -1157 1586c-705,968 -991,2152 -806,3334l538 3433c171,1089 -575,2112 -1663,2283l-3434 538c-1182,186 -2222,820 -2927,1787l-1157 1587zm7975 -205c-154,213 -452,259 -665,104 -212,-155 -258,-452 -104,-664 155,-213 453,-259 665,-105 212,155 259,453 104,665zm2454 -3365c-155,212 -453,258 -665,103 -213,-154 -259,-452 -105,-664 155,-213 453,-259 666,-104 212,155 258,452 104,665zm-1227 1682c-155,213 -453,259 -665,105 -212,-155 -259,-453 -104,-665 154,-213 453,-259 665,-105 212,155 259,453 104,665z"/>
   </g>
  </g>
 </g>
</svg>
