<?xml version="1.0" encoding="UTF-8"?>
<!DOCTYPE svg PUBLIC "-//W3C//DTD SVG 1.1//EN" "http://www.w3.org/Graphics/SVG/1.1/DTD/svg11.dtd">
<!-- Creator: CorelDRAW X7 -->
<svg xmlns="http://www.w3.org/2000/svg" xml:space="preserve" width="4.60461in" height="3.48646in" version="1.1" style="shape-rendering:geometricPrecision; text-rendering:geometricPrecision; image-rendering:optimizeQuality; fill-rule:evenodd; clip-rule:evenodd"
viewBox="0 0 46046 34865"
 xmlns:xlink="http://www.w3.org/1999/xlink">
 <defs>
  <style type="text/css">
   <![CDATA[
    .fil0 {fill:#F3E9D8}
   ]]>
  </style>
 </defs>
 <g id="Layer_x0020_1">
  <metadata id="CorelCorpID_0Corel-Layer"/>
  <g id="_2897793463536">
   <path class="fil0" d="M23023 0l0 0c-363,0 -661,297 -661,661l0 5306c0,363 298,660 661,660l0 0c364,0 661,-297 661,-660l0 -5306c0,-364 -297,-661 -661,-661z"/>
   <path class="fil0" d="M11511 3085l0 0c-314,181 -423,588 -241,902l2652 4595c182,315 588,424 903,242l0 0c315,-182 424,-588 242,-903l-2653 -4595c-181,-314 -588,-423 -903,-241z"/>
   <path class="fil0" d="M3084 11512l0 0c-181,314 -72,721 242,902l4595 2653c315,182 721,73 903,-242l0 0c182,-315 73,-721 -242,-903l-4595 -2652c-315,-182 -721,-73 -903,242z"/>
   <path class="fil0" d="M0 23023l0 0c0,364 297,661 661,661l5306 0c363,0 660,-297 660,-661l0 0c0,-363 -297,-661 -660,-661l-5306 0c-364,0 -661,298 -661,661z"/>
   <path class="fil0" d="M3084 34535l0 0c182,314 588,423 903,241l4595 -2652c315,-182 424,-588 242,-903l0 0c-182,-315 -588,-424 -903,-242l-4595 2653c-314,182 -423,588 -242,903z"/>
   <path class="fil0" d="M42962 34535l0 0c181,-315 72,-721 -242,-903l-4595 -2653c-315,-182 -721,-73 -903,242l0 0c-182,315 -73,721 242,903l4595 2652c315,182 721,73 903,-241z"/>
   <path class="fil0" d="M46046 23023l0 0c0,-363 -297,-661 -661,-661l-5305 0c-364,0 -661,298 -661,661l0 0c0,364 297,661 661,661l5305 0c364,0 661,-297 661,-661z"/>
   <path class="fil0" d="M42962 11512l0 0c-182,-315 -588,-424 -903,-242l-4595 2652c-315,182 -424,588 -242,903l0 0c182,315 588,424 903,242l4595 -2653c314,-181 423,-588 242,-902z"/>
   <path class="fil0" d="M34535 3085l0 0c-315,-182 -721,-73 -903,241l-2653 4595c-182,315 -73,721 242,903l0 0c315,182 721,73 903,-242l2652 -4595c182,-314 73,-721 -241,-902z"/>
  </g>
 </g>
</svg>
