<?xml version="1.0" encoding="UTF-8"?>
<!DOCTYPE svg PUBLIC "-//W3C//DTD SVG 1.1//EN" "http://www.w3.org/Graphics/SVG/1.1/DTD/svg11.dtd">
<!-- Creator: CorelDRAW X7 -->
<svg xmlns="http://www.w3.org/2000/svg" xml:space="preserve" width="11.5215in" height="24.0177in" version="1.1" style="shape-rendering:geometricPrecision; text-rendering:geometricPrecision; image-rendering:optimizeQuality; fill-rule:evenodd; clip-rule:evenodd"
viewBox="0 0 115215 240177"
 xmlns:xlink="http://www.w3.org/1999/xlink">
 <defs>
  <style type="text/css">
   <![CDATA[
    .fil0 {fill:#FBF7F0}
   ]]>
  </style>
 </defs>
 <g id="Layer_x0020_1">
  <metadata id="CorelCorpID_0Corel-Layer"/>
  <path class="fil0" d="M0 154430c7692,2978 16052,4607 24786,4594l-5 -2616c-8758,14 -17125,-1690 -24781,-4791l0 2813zm20238 -52777c809,1805 2614,3068 4721,3068 2107,0 3911,-1263 4721,-3068l-9442 0zm13408 -13658c0,-4864 -3977,-8798 -8856,-8730 -4696,65 -8530,3892 -8605,8588 -34,2087 665,4008 1856,5527 1408,1794 2142,4027 2142,6309l9464 0 0 -2c0,-2294 756,-4527 2165,-6338 1150,-1478 1834,-3337 1834,-5354zm-8849 -87995l-296 0 -16 0 -312 2 0 0c-109,1 -218,2 -326,3l0 0c-109,1 -219,2 -327,4l0 0c-109,1 -218,4 -328,4l0 0c-5881,101 -11677,768 -17326,1975l0 0c-1974,423 -3930,911 -5866,1464l0 2780c7404,-2215 15200,-3467 23237,-3604l0 0c103,-2 207,-3 309,-5l0 0c103,-1 207,-3 310,-4l0 0c103,0 206,-1 309,-2l0 0c103,-1 206,-1 308,-1l0 0c5814,-19 11541,520 17123,1596l0 0c5583,1076 11020,2687 16250,4811l0 0c5231,2122 10254,4757 15008,7881l0 0c4756,3124 9243,6736 13401,10814l0 0c4232,4148 7991,8648 11251,13435l0 0c3259,4787 6018,9861 8249,15157l0 0c2232,5296 3935,10815 5084,16492l0 0c1149,5677 1743,11512 1756,17441l0 0c10,4935 -379,9802 -1157,14570l0 0c-779,4768 -1946,9438 -3491,13976l0 0c-1545,4539 -3468,8948 -5759,13195l0 0c-2290,4247 -4948,8331 -7962,12222l0 0c-3556,4590 -6717,9468 -9461,14570l0 0c-2744,5100 -5069,10425 -6955,15908l0 0c-1887,5483 -3333,11123 -4317,16856l0 0c-984,5733 -1506,11558 -1543,17410l0 0c-296,608 -1178,2335 -2706,4664l0 0c-1527,2328 -3701,5258 -6583,8273l0 0c-2883,3016 -6473,6114 -10833,8779l0 0c-4358,2667 -9486,4899 -15445,6182l0 0 -129 -66729c9865,-1416 19111,-4611 27432,-9233l0 0c8321,-4622 15717,-10672 21875,-17797l0 0c6160,-7125 11083,-15325 14461,-24249l0 0c3379,-8922 5212,-18568 5191,-28580l0 0 -2620 6c20,9780 -1787,19198 -5116,27900l0 0c-3329,8702 -8178,16687 -14240,23607l0 0c-6062,6919 -13336,12771 -21517,17206l0 0c-8179,4434 -17262,7451 -26943,8701l0 0 -1144 149 140 72183 1540 -284c6936,-1269 12842,-3759 17806,-6794l0 0c4964,-3034 8982,-6611 12141,-10054l0 0c3158,-3444 5457,-6752 6979,-9249l0 0c1522,-2496 2268,-4180 2323,-4373l0 0c21,-5735 519,-11445 1471,-17062l0 0c953,-5620 2360,-11148 4201,-16521l0 0c1841,-5373 4115,-10591 6799,-15591l0 0c2685,-4998 5780,-9777 9265,-14272l0 0c3104,-4008 5842,-8215 8201,-12588l0 0c2359,-4375 4340,-8915 5931,-13589l0 0c1591,-4675 2793,-9484 3594,-14394l0 0c801,-4911 1202,-9922 1191,-15004l0 0c-13,-6105 -625,-12114 -1808,-17961l0 0c-1183,-5846 -2938,-11529 -5235,-16983l0 0c-2299,-5453 -5139,-10678 -8496,-15608l0 0c-3356,-4929 -7228,-9563 -11587,-13836l0 0c-4279,-4195 -8900,-7912 -13796,-11129l0 0c-4897,-3216 -10071,-5930 -15455,-8118l0 0c-5385,-2187 -10982,-3847 -16727,-4956l0 0c-5648,-1090 -11440,-1646 -17314,-1646zm-24797 233889c4189,2277 8986,4301 14448,5825l0 0 1663 463 -135 -71173 -2615 4 127 67699c-5101,-1565 -9581,-3601 -13488,-5861l0 3043zm73625 -204050c3006,2428 5809,5053 8395,7856l0 0c2586,2802 4957,5781 7094,8916l0 0c2139,3134 4045,6422 5704,9845l0 0c1660,3422 3072,6978 4223,10645l2498 -779c-1191,-3792 -2651,-7468 -4366,-11007l0 0c-1715,-3539 -3685,-6939 -5895,-10179l0 0c-2209,-3240 -4658,-6319 -7331,-9216l0 0c-2674,-2896 -5571,-5609 -8677,-8117l0 0 -1645 2036zm-73625 110860c980,483 1975,939 2986,1365l0 0c6699,2826 14059,4383 21776,4370l0 0c7611,-12 14870,-1550 21487,-4324l0 0c6619,-2774 12596,-6782 17641,-11737l0 0c5045,-4955 9160,-10855 12052,-17410l0 0c2893,-6554 4563,-13764 4722,-21336l0 0 9985 -22c-122,7042 -1347,13863 -3537,20271l0 0c-2190,6409 -5344,12403 -9323,17792l0 0c-3978,5389 -8779,10170 -14265,14152l0 0c-5487,3982 -11656,7165 -18370,9355l0 0 813 2488c7086,-2312 13591,-5687 19359,-9917l0 0c5770,-4230 10804,-9314 14951,-15042l0 0c4146,-5728 7404,-12101 9622,-18907l0 0c2218,-6807 3395,-14047 3380,-21511l0 0 -3 -1305 -15222 35 3 1305c7,3468 -319,6860 -947,10147l0 0c-627,3285 -1558,6467 -2760,9512l0 0c-1202,3044 -2677,5952 -4394,8696l0 0c-1717,2742 -3675,5319 -5847,7699l0 0 -7254 -7204c1712,-1916 3256,-3984 4608,-6181l0 0c1353,-2198 2514,-4526 3461,-6958l0 0c946,-2434 1678,-4973 2172,-7596l0 0c494,-2621 749,-5326 743,-8092l0 0c-12,-5953 -1234,-11625 -3433,-16783l0 0c-2200,-5159 -5375,-9804 -9293,-13702l0 0c-3919,-3898 -8579,-7050 -13747,-9224l0 0c-5167,-2173 -10843,-3367 -16793,-3351l0 0c-5949,16 -11618,1241 -16773,3442l0 0c-2759,1177 -5371,2634 -7800,4333l0 3244c179,-138 359,-274 540,-409l0 0c3360,-2499 7119,-4492 11164,-5863l0 0c4044,-1371 8373,-2120 12874,-2132l0 0c5590,-15 10922,1107 15778,3149l0 0c4855,2042 9234,5004 12915,8665l0 0c3681,3663 6664,8027 8731,12872l0 0c2066,4846 3215,10175 3226,15765l0 0c11,5593 -1116,10929 -3163,15785l0 0c-2046,4858 -5013,9236 -8680,12916l0 0c-3668,3680 -8034,6663 -12884,8728l0 0c-4848,2064 -10177,3212 -15769,3221l0 0 6 2617c2953,-5 5838,-309 8625,-882l0 0c2788,-574 5478,-1417 8043,-2501l0 0c2564,-1084 5003,-2409 7287,-3947l0 0c2285,-1538 4414,-3288 6362,-5223l0 0 7242 7198c-2410,2398 -5046,4568 -7874,6475l0 0c-2828,1906 -5848,3549 -9023,4894l0 0c-3176,1345 -6508,2390 -9960,3100l0 0c-3452,712 -7024,1088 -10683,1094l0 0c-7358,13 -14373,-1473 -20760,-4167l0 0c-1362,-574 -2695,-1204 -3997,-1886l0 2927zm0 -14795c2616,1813 5463,3357 8510,4588l0 0 977 -2429c-3454,-1394 -6632,-3217 -9487,-5394l0 3235zm0 -15653c732,911 1513,1780 2340,2604l0 0c2869,2858 6281,5172 10068,6768l0 0c3786,1597 7946,2476 12307,2468l0 0c4363,-9 8521,-904 12303,-2516l0 0c3784,-1612 7191,-3938 10053,-6811l0 0c2862,-2872 5176,-6289 6773,-10078l0 0c1598,-3790 2478,-7952 2469,-12316l0 0c-3,-1488 -111,-2966 -319,-4425l0 0c-208,-1459 -517,-2899 -925,-4310l0 0c-408,-1410 -914,-2791 -1515,-4132l0 0c-601,-1343 -1296,-2647 -2085,-3900l0 0 -2217 1398c725,1149 1363,2344 1914,3574l0 0c552,1231 1016,2497 1389,3790l0 0c375,1294 658,2613 849,3951l0 0c191,1339 289,2695 292,4060l0 0c8,3894 -756,7614 -2145,11012l0 0c-1391,3399 -3407,6478 -5907,9093l0 0c-2498,2615 -5480,4765 -8798,6306l0 0c-3319,1541 -6975,2473 -10825,2652l0 0 -13 -6959c2891,-176 5635,-910 8121,-2096l0 0c2488,-1187 4720,-2825 6590,-4808l0 0c1871,-1983 3378,-4312 4417,-6878l0 0c1040,-2566 1610,-5370 1604,-8306l0 0c-6,-3043 -631,-5943 -1755,-8581l0 0c-1125,-2638 -2748,-5015 -4752,-7009l0 0c-2003,-1995 -4387,-3608 -7029,-4721l0 0c-2644,-1111 -5547,-1725 -8591,-1717l0 0c-3043,8 -5944,635 -8582,1760l0 0c-2637,1126 -5013,2751 -7008,4754l0 0c-1994,2004 -3607,4387 -4721,7029l0 0c-1113,2642 -1726,5544 -1720,8585l0 0c1,842 49,1675 142,2498l0 0c94,824 233,1639 418,2441l0 0c186,802 415,1593 692,2372l0 0c276,778 597,1544 963,2297l0 0 2350 -1149c-322,-661 -605,-1336 -848,-2020l0 0c-243,-686 -446,-1383 -610,-2090l0 0c-163,-706 -285,-1425 -367,-2150l0 0c-83,-726 -125,-1462 -127,-2205l0 0c-4,-2682 536,-5240 1519,-7569l0 0c981,-2330 2403,-4431 4162,-6197l0 0c1758,-1766 3853,-3198 6178,-4189l0 0c2325,-992 4882,-1545 7564,-1551l0 0c2684,-7 5245,533 7575,1514l0 0c2330,980 4430,2402 6196,4160l0 0c1766,1759 3197,3852 4188,6178l0 0c991,2326 1541,4883 1546,7566l0 0c6,2685 -535,5246 -1516,7576l0 0c-983,2331 -2405,4431 -4164,6198l0 0c-1760,1765 -3855,3197 -6181,4188l0 0c-2328,991 -4885,1542 -7570,1547l0 0c-761,2 -1515,-39 -2260,-122l0 0c-745,-84 -1481,-210 -2206,-378l0 0c-726,-167 -1441,-378 -2144,-630l0 0c-704,-252 -1395,-546 -2073,-883l0 0 -1159 2343c671,332 1355,629 2048,890l0 0c692,261 1396,485 2108,673l0 0c714,188 1436,340 2167,456l0 0c731,115 1472,193 2221,235l0 0 12 6953c-3851,-164 -7510,-1081 -10833,-2609l0 0c-3323,-1527 -6311,-3666 -8816,-6268l0 0c-1414,-1469 -2675,-3086 -3757,-4825l0 4509zm0 -35081c1171,-1883 2552,-3624 4109,-5188l0 0c2622,-2634 5745,-4768 9212,-6248l0 0c3468,-1479 7279,-2303 11279,-2314l0 0c1328,-3 2648,84 3952,259l0 0c1304,175 2594,437 3857,786l0 0c1264,348 2504,782 3710,1300l0 0c1206,517 2380,1117 3510,1799l0 0 1348 -2243c-1233,-743 -2511,-1398 -3825,-1962l0 0c-1314,-563 -2666,-1036 -4044,-1416l0 0c-1378,-379 -2782,-666 -4204,-856l0 0c-1423,-191 -2862,-286 -4309,-281l0 0c-3533,9 -6931,600 -10104,1682l0 0c-3173,1082 -6119,2654 -8751,4626l0 0c-2138,1602 -4068,3467 -5740,5548l0 4508zm0 -32031c3053,-1602 6291,-2920 9683,-3912l0 0 -731 -2511c-3115,912 -6106,2086 -8952,3493l0 2930zm24502 -33163c-6377,20 -12674,807 -18767,2301l0 0c-1933,474 -3846,1019 -5735,1632l0 2751c2086,-703 4204,-1318 6348,-1844l0 0c5895,-1444 11989,-2206 18159,-2226l0 0c2134,-6 4259,72 6372,236l0 0c2113,165 4212,415 6296,748l0 0c2084,335 4152,754 6199,1256l0 0c2048,504 4075,1091 6080,1763l0 0c250,82 501,168 751,254l0 0c251,86 501,174 751,264l0 0c250,88 499,179 749,270l0 0c248,91 496,184 744,278l0 0 -3871 8522c-1879,-698 -3796,-1316 -5746,-1852l0 0c-1950,-536 -3931,-987 -5941,-1349l0 0c-2011,-365 -4050,-639 -6112,-822l0 0c-2063,-183 -4149,-272 -6254,-266l0 0c-7882,23 -15498,1379 -22608,3877l0 0c-643,226 -1282,462 -1917,706l0 2802c917,-370 1844,-720 2781,-1049l0 0c6839,-2401 14166,-3706 21749,-3729l0 0c4488,-14 8886,428 13145,1283l0 0c4259,854 8380,2122 12317,3762l0 0c3935,1641 7686,3653 11204,5996l0 0c3519,2342 6806,5016 9813,7978l0 0 -6998 7088c-2567,-2529 -5370,-4805 -8370,-6795l0 0c-2998,-1990 -6192,-3696 -9537,-5084l0 0c-3345,-1388 -6843,-2458 -10449,-3179l0 0c-3608,-722 -7323,-1092 -11106,-1082l0 0 4 2615c6021,-17 11864,980 17340,2848l0 0c5478,1868 10588,4608 15144,8074l0 0c4557,3468 8557,7663 11813,12444l0 0c3257,4779 5768,10143 7347,15947l0 0 2523 -685c-603,-2222 -1338,-4381 -2193,-6472l0 0c-856,-2090 -1831,-4111 -2919,-6056l0 0c-1087,-1944 -2285,-3813 -3584,-5599l0 0c-1300,-1785 -2700,-3487 -4191,-5099l0 0 7010 -7100c2298,2449 4413,5074 6323,7857l0 0c1907,2782 3609,5721 5081,8796l0 0c1472,3076 2712,6287 3698,9614l0 0c987,3328 1719,6771 2172,10308l2598 -336c-799,-6226 -2427,-12171 -4764,-17729l0 0c-2338,-5557 -5384,-10727 -9020,-15406l0 0c-3635,-4679 -7859,-8866 -12552,-12457l0 0c-4693,-3591 -9855,-6586 -15364,-8881l0 0 4949 -10906 -1266 -514c-362,-145 -726,-287 -1092,-427l0 0c-366,-141 -734,-278 -1102,-414l0 0c-369,-135 -738,-266 -1107,-397l0 0c-370,-129 -739,-257 -1108,-381l0 0c-2073,-693 -4169,-1299 -6286,-1820l0 0c-2118,-518 -4256,-952 -6410,-1297l0 0c-2154,-345 -4325,-603 -6508,-773l0 0c-2096,-162 -4204,-245 -6321,-245l0 0c-87,0 -175,0 -262,1l0 0z"/>
 </g>
</svg>
