<?xml version="1.0" encoding="UTF-8"?>
<!DOCTYPE svg PUBLIC "-//W3C//DTD SVG 1.1//EN" "http://www.w3.org/Graphics/SVG/1.1/DTD/svg11.dtd">
<!-- Creator: CorelDRAW X7 -->
<svg xmlns="http://www.w3.org/2000/svg" xml:space="preserve" width="11.0236in" height="11.6245in" version="1.1" style="shape-rendering:geometricPrecision; text-rendering:geometricPrecision; image-rendering:optimizeQuality; fill-rule:evenodd; clip-rule:evenodd"
viewBox="0 0 110236 116245"
 xmlns:xlink="http://www.w3.org/1999/xlink">
 <defs>
  <style type="text/css">
   <![CDATA[
    .fil41 {fill:#C0BDDB}
    .fil30 {fill:#D2AE6D}
    .fil42 {fill:#D6DDEE}
    .fil34 {fill:#DEC392}
    .fil25 {fill:#DEE4F2}
    .fil29 {fill:#E9D7B5}
    .fil40 {fill:#E9D7B6}
    .fil44 {fill:#E9EDF5}
    .fil43 {fill:#EBEFF6}
    .fil33 {fill:#EFE1C8}
    .fil28 {fill:#F3E9D8}
    .fil21 {fill:#F4EBDA}
    .fil35 {fill:#F5EDDF}
    .fil23 {fill:#7C94CA;fill-rule:nonzero}
    .fil22 {fill:#95A9D4;fill-rule:nonzero}
    .fil7 {fill:#A5A2CE;fill-rule:nonzero}
    .fil32 {fill:#B3C1E0;fill-rule:nonzero}
    .fil38 {fill:#B7C5E4;fill-rule:nonzero}
    .fil31 {fill:#B99C67;fill-rule:nonzero}
    .fil8 {fill:#BBB8DA;fill-rule:nonzero}
    .fil39 {fill:#C0BDDB;fill-rule:nonzero}
    .fil14 {fill:#C4C2DF;fill-rule:nonzero}
    .fil5 {fill:#C4CFE9;fill-rule:nonzero}
    .fil9 {fill:#CFCEE5;fill-rule:nonzero}
    .fil13 {fill:#D2AE6D;fill-rule:nonzero}
    .fil15 {fill:#D7D5E9;fill-rule:nonzero}
    .fil16 {fill:#DBBD89;fill-rule:nonzero}
    .fil27 {fill:#DCC495;fill-rule:nonzero}
    .fil10 {fill:#DCE3F2;fill-rule:nonzero}
    .fil11 {fill:#E0C698;fill-rule:nonzero}
    .fil37 {fill:#E0E6F3;fill-rule:nonzero}
    .fil26 {fill:#E5CFA8;fill-rule:nonzero}
    .fil3 {fill:#E5D0A9;fill-rule:nonzero}
    .fil20 {fill:#E5D5B7;fill-rule:nonzero}
    .fil17 {fill:#E6D1AB;fill-rule:nonzero}
    .fil4 {fill:#EBDBBD;fill-rule:nonzero}
    .fil1 {fill:#EDDEC2;fill-rule:nonzero}
    .fil2 {fill:#EDDFC4;fill-rule:nonzero}
    .fil19 {fill:#EFE2CA;fill-rule:nonzero}
    .fil0 {fill:#F4EBDA;fill-rule:nonzero}
    .fil18 {fill:#FAF4EC;fill-rule:nonzero}
    .fil6 {fill:#FBF7F0;fill-rule:nonzero}
    .fil36 {fill:#FCF9F4;fill-rule:nonzero}
    .fil12 {fill:white;fill-rule:nonzero}
    .fil24 {fill:white;fill-rule:nonzero}
   ]]>
  </style>
 </defs>
 <g id="Layer_x0020_1">
  <metadata id="CorelCorpID_0Corel-Layer"/>
  <g id="_3027430505408">
   <path class="fil0" d="M0 116245c2209,-5991 7089,-10479 12532,-13620 6181,-3570 13918,-3928 19685,-7916 2511,-1736 4510,-4439 4717,-7482 185,-2818 -1140,-5480 -2009,-8171 -863,-2687 -1175,-5945 695,-8059 1928,-2187 5267,-2206 8180,-2055 4788,247 15432,2961 17229,-3804 1235,-4649 -12418,-6359 -14836,-10524 -2568,-4433 -695,-19948 2615,-23860 3311,-3912 13396,-517 18274,-2083 3695,-1187 9837,307 13149,-1708 3317,-2015 6080,-5471 6005,-9350 -146,-7588 -9873,-10966 -13513,-17613l-18209 0c308,5142 -1612,9967 -7314,11983 -9575,3518 -22868,-3480 -28486,7061 -4238,7787 5123,17099 -2809,23708 -4858,3742 -10319,4660 -15905,4990l0 68503z"/>
   <path class="fil1" d="M0 116245c2209,-5991 7089,-10478 12532,-13620 6181,-3570 13918,-3928 19685,-7916 2511,-1736 4510,-4439 4717,-7482 185,-2818 -1140,-5480 -2009,-8171 -863,-2687 -1175,-5944 695,-8059 1928,-2187 5267,-2206 8180,-2055 4788,247 15432,2961 17229,-3804 1598,-6015 -14313,-9587 -11601,-20894 1789,-7459 13000,-10944 19948,-13175 3695,-1187 7543,-2091 10855,-4106 3317,-2015 6080,-5471 6005,-9349 -146,-7589 -9873,-10967 -13513,-17614l-8452 0c104,230 208,447 311,649 2426,4733 6778,8953 6595,14272 -203,5964 -6224,10169 -12065,11390 -5841,1222 -11957,486 -17792,1736 -4594,985 -9350,3740 -10451,8307 -1884,7807 4421,12642 5283,20625 829,7666 -6722,13869 -14230,15618 -6631,1545 -15451,1998 -21922,3970l0 39678z"/>
   <g>
    <path class="fil0" d="M92811 14991c0,1506 1228,2734 2734,2734 1506,0 2726,-1228 2726,-2734 0,-1506 -1220,-2725 -2726,-2725 -1506,0 -2734,1219 -2734,2725z"/>
    <g>
     <path class="fil2" d="M97649 16721c390,-471 622,-1068 622,-1730 0,-1506 -1220,-2725 -2726,-2725 -845,0 -1594,382 -2096,980 0,0 2056,-789 3323,478 1267,1267 877,2997 877,2997z"/>
     <path class="fil2" d="M95079 13486c32,32 64,63 96,95 48,48 48,136 0,184 -56,47 -136,47 -191,0 -32,-32 -56,-64 -88,-88 -48,-56 -48,-144 0,-191 48,-48 135,-48 183,0z"/>
     <path class="fil2" d="M94354 16626c-175,0 -175,-271 0,-271 167,0 167,271 0,271z"/>
     <path class="fil3" d="M95988 14577c-223,0 -223,-358 0,-358 231,0 231,358 0,358z"/>
    </g>
    <g>
     <path class="fil2" d="M96538 15032l-96 0c-111,0 -111,-176 0,-176l96 0c111,0 111,176 0,176z"/>
     <path class="fil3" d="M94689 15405c-399,0 -399,-621 0,-621 398,0 398,621 0,621z"/>
    </g>
   </g>
   <g>
    <path class="fil4" d="M36972 7379c0,-2546 -323,-5019 -932,-7379l-36040 0 0 35994c2350,601 4813,921 7351,921 16322,0 29621,-13213 29621,-29536z"/>
    <g>
     <path class="fil3" d="M0 35994c2350,601 4813,921 7351,921 9154,0 17272,-4145 22713,-10623 0,0 -11749,8941 -30064,-768l0 10470z"/>
     <path class="fil3" d="M12397 23694c-346,-346 -691,-691 -1036,-1036 -519,-519 -519,-1469 0,-1987 604,-518 1468,-518 2072,0 346,346 605,691 950,950 518,605 518,1555 0,2073 -518,518 -1468,518 -1986,0z"/>
     <path class="fil3" d="M2552 11862c2418,0 2418,3887 0,3887 -2505,0 -2505,-3887 0,-3887z"/>
    </g>
    <path class="fil3" d="M16627 2891c4318,0 4318,6737 0,6737 -4318,0 -4318,-6737 0,-6737z"/>
   </g>
   <g>
    <path class="fil5" d="M34303 41224c1213,3439 4984,5242 8422,4029 3439,-1213 5243,-4983 4030,-8421 -1213,-3439 -4984,-5243 -8422,-4030 -3439,1213 -5243,4984 -4030,8422z"/>
    <path class="fil6" d="M34803 41046c669,1896 2177,3248 3961,3791 531,163 1089,252 1651,263 252,5 508,-7 762,-33 154,-17 306,-40 459,-68 306,-55 610,-137 913,-244 591,-209 1130,-502 1610,-856 2078,-1548 3002,-4322 2095,-6892 -316,-895 -820,-1667 -1451,-2291 -772,-767 -1738,-1311 -2787,-1574 -245,-64 -496,-110 -749,-143 -547,-67 -1109,-60 -1670,28 -366,57 -729,147 -1088,274 -2431,858 -3976,3108 -4046,5537 -28,731 83,1478 340,2208z"/>
    <path class="fil7" d="M40631 39317c84,-30 154,-96 186,-186l1070 -3002c57,-160 -26,-334 -185,-391 -159,-56 -335,26 -391,185l-1070 3002c-57,159 26,334 185,391 69,25 141,23 205,1z"/>
    <path class="fil8" d="M39405 39424c219,621 900,946 1520,727 621,-218 946,-899 727,-1519 -219,-621 -899,-946 -1519,-728 -621,219 -947,900 -728,1520z"/>
    <path class="fil8" d="M44700 41632c67,-23 126,-71 164,-137 84,-147 33,-334 -114,-417l-4070 -2316c-146,-84 -333,-32 -417,115 -83,146 -33,333 115,417l4069 2316c80,46 173,51 253,22z"/>
   </g>
   <g>
    <path class="fil9" d="M42234 75757l-3253 8734c-176,474 64,999 537,1175l11968 4458c474,176 999,-65 1175,-538l3253 -8734c176,-473 -64,-999 -537,-1175l-11968 -4457c-474,-176 -999,64 -1175,537z"/>
    <path class="fil10" d="M42447 74174l-3803 8509c-205,461 0,1001 462,1207l11659 5210c462,206 1001,0 1207,-461l3802 -8510c206,-460 0,-1000 -461,-1206l-11660 -5210c-461,-206 -1001,0 -1206,461z"/>
    <path class="fil11" d="M42447 74174l-844 1888 13328 5956 843 -1889c206,-460 0,-1000 -461,-1206l-11660 -5210c-461,-206 -1001,0 -1206,461z"/>
    <polygon class="fil12" points="41328,76676 54657,82631 54931,82018 41603,76062 "/>
    <path class="fil13" d="M51570 78464c-247,552 1,1198 552,1444 551,246 1197,-1 1443,-552 247,-551 0,-1197 -551,-1444 -552,-246 -1198,1 -1444,552z"/>
    <path class="fil13" d="M44496 75304c-246,551 1,1197 552,1444 551,246 1198,-2 1444,-552 247,-552 -1,-1198 -552,-1444 -551,-247 -1198,0 -1444,552z"/>
    <path class="fil5" d="M52377 79633c348,92 721,-79 873,-418l661 -1478c168,-377 -1,-819 -378,-987 -383,-170 -819,1 -987,377l-660 1478c-169,377 0,819 377,988 38,16 75,30 114,40z"/>
    <path class="fil5" d="M45303 76472c348,93 722,-78 873,-418l661 -1478c169,-377 0,-819 -377,-987 -382,-168 -819,1 -987,377l-661 1479c-169,376 0,818 377,987 38,17 76,30 114,40z"/>
    <polygon class="fil9" points="50858,83522 52154,84102 52646,83001 51350,82421 "/>
    <polygon class="fil9" points="41903,79521 43199,80100 43691,78999 42395,78420 "/>
    <polygon class="fil9" points="44141,80521 45438,81101 45930,80000 44633,79420 "/>
    <polygon class="fil9" points="46380,81521 47677,82101 48169,81000 46872,80420 "/>
    <polygon class="fil9" points="48619,82522 49916,83101 50408,82000 49111,81421 "/>
    <polygon class="fil9" points="50058,85312 51355,85891 51847,84790 50550,84211 "/>
    <polygon class="fil9" points="41103,81310 42400,81889 42892,80788 41595,80209 "/>
    <polygon class="fil9" points="43342,82310 44638,82890 45131,81789 43834,81209 "/>
    <polygon class="fil9" points="45581,83311 46877,83890 47369,82789 46072,82210 "/>
    <polygon class="fil9" points="47819,84311 49116,84891 49608,83790 48312,83210 "/>
    <polygon class="fil9" points="49259,87101 50555,87680 51047,86579 49751,86000 "/>
    <polygon class="fil9" points="40304,83099 41600,83679 42092,82578 40796,81998 "/>
    <polygon class="fil9" points="42542,84100 43839,84679 44331,83578 43034,82999 "/>
    <polygon class="fil9" points="44781,85100 46078,85680 46570,84579 45273,83999 "/>
    <polygon class="fil9" points="47020,86100 48316,86680 48808,85579 47512,84999 "/>
   </g>
   <g>
    <path class="fil14" d="M10680 41648l-7156 3558c-396,196 -558,678 -360,1074l6852 13784c197,395 679,557 1075,360l7156 -3558c209,-103 353,-290 414,-499 50,-187 40,-389 -54,-576l-6853 -13783c-92,-186 -247,-317 -426,-389 -203,-78 -438,-75 -648,29z"/>
    <path class="fil15" d="M11328 41619l-1745 8123c-271,1270 372,2563 1548,3113l7530 3512c51,-187 40,-389 -53,-576l-6853 -13783c-93,-186 -248,-317 -427,-389z"/>
   </g>
   <g>
    <path class="fil16" d="M20429 39875l-1072 4479c-59,248 94,498 342,557l8627 2065c248,60 498,-93 557,-342l1072 -4479c31,-131 3,-263 -68,-367 -63,-92 -156,-162 -274,-189l-8627 -2065c-117,-28 -232,-9 -330,44 -110,61 -195,166 -227,297z"/>
    <path class="fil17" d="M20656 39578l2947 3774c461,590 1270,783 1948,467l4336 -2031c-64,-92 -157,-161 -274,-189l-8627 -2066c-117,-27 -232,-7 -330,45z"/>
   </g>
   <path class="fil18" d="M11642 96398c-2342,77 -4221,1999 -4233,4380l-38 0c-20,-2381 -1898,-4303 -4234,-4380 2349,-76 4234,-2018 4234,-4412l31 0c0,2394 1885,4336 4240,4412z"/>
   <path class="fil19" d="M84497 29972c-997,33 -1796,850 -1801,1863l-17 0c-8,-1013 -807,-1830 -1801,-1863 1000,-32 1801,-858 1801,-1877l14 0c0,1019 802,1845 1804,1877z"/>
   <path class="fil19" d="M40155 88866c-726,24 -1308,620 -1312,1357l-12 0c-6,-737 -587,-1333 -1311,-1357 727,-23 1311,-625 1311,-1366l10 0c0,741 584,1343 1314,1366z"/>
   <path class="fil20" d="M110236 19806c-498,16 -898,425 -900,931l-8 0c-4,-506 -404,-915 -901,-931 500,-17 901,-430 901,-939l6 0c0,509 401,922 902,939z"/>
   <g>
    <path class="fil21" d="M56306 75640c0,-3505 3891,-6584 9761,-8341 3281,-982 7180,-1552 11364,-1552 11666,0 21124,4429 21124,9893 0,5463 -9458,9892 -21124,9892 -4184,0 -8083,-569 -11364,-1552 -5870,-1757 -9761,-4836 -9761,-8340z"/>
    <path class="fil22" d="M89174 74057c0,86 -5,172 -15,256 -302,2804 -5549,5037 -11978,5037 -2381,0 -4601,-306 -6468,-835 -3234,-917 -5408,-2501 -5520,-4311l0 -10c-2,-45 -4,-91 -4,-137 0,-45 2,-91 4,-136 31,-545 249,-1071 628,-1564 216,-281 486,-553 805,-810 2025,-1657 5994,-2781 10555,-2781 5278,0 9758,1503 11360,3591 412,535 633,1106 633,1700z"/>
    <polygon class="fil22" points="89174,72358 89174,74313 89159,74313 68760,74220 65193,74204 65193,72358 "/>
    <path class="fil23" d="M70713 76666l0 1849c-3234,-917 -5408,-2501 -5520,-4311l0 -10c-2,-45 -4,-91 -4,-137 0,-45 2,-91 4,-136l0 -1563 628 0c216,-282 486,-554 805,-812l646 812 1488 1862 1953 2446z"/>
    <path class="fil24" d="M89174 72211c0,2922 -5369,5291 -11993,5291 -2381,0 -4601,-307 -6468,-836 -3322,-939 -5524,-2584 -5524,-4455 0,-589 218,-1157 621,-1686 1595,-2096 6084,-3606 11371,-3606 6624,0 11993,2369 11993,5292z"/>
    <path class="fil25" d="M71948 76687c6242,0 11304,-1499 11304,-3350 0,-1850 -5062,-3350 -11304,-3350 -2263,0 -4371,196 -6138,538 -403,529 -621,1097 -621,1686 0,1871 2202,3516 5524,4455 405,14 816,21 1235,21z"/>
    <path class="fil26" d="M84647 59041c-1311,1406 -1242,4404 -1223,6666 2,190 2,376 2,555 0,2300 177,6543 -5996,6543 -6171,0 -5645,-5252 -5645,-7354 0,-235 0,-477 2,-718 7,-1916 -5,-3967 -723,-5013l7461 -5210c0,0 7545,3008 6122,4531z"/>
    <path class="fil27" d="M71787 64733c7,-1916 -5,-3967 -723,-5013 0,0 3111,2276 5887,2043 2667,-223 -2295,3404 -5164,2970z"/>
    <path class="fil28" d="M77431 32925l0 0c-287,0 -521,234 -521,521l0 4182c0,286 234,521 521,521l0 0c286,0 521,-235 521,-521l0 -4182c0,-287 -235,-521 -521,-521z"/>
    <path class="fil28" d="M68357 35356l0 0c-248,143 -334,464 -190,712l2091 3621c143,249 463,334 711,191l0 0c248,-143 334,-463 191,-711l-2091 -3622c-143,-248 -464,-334 -712,-191z"/>
    <path class="fil28" d="M61715 41998l0 0c-143,249 -58,569 191,712l3621 2091c248,143 569,57 712,-191l0 0c143,-248 57,-568 -191,-711l-3621 -2091c-249,-144 -569,-58 -712,190z"/>
    <path class="fil28" d="M59284 51072l0 0c0,286 234,521 521,521l4182 0c286,0 521,-235 521,-521l0 0c0,-287 -235,-521 -521,-521l-4182 0c-287,0 -521,234 -521,521z"/>
    <path class="fil28" d="M61715 60145l0 0c143,248 463,334 712,191l3621 -2091c248,-143 334,-463 191,-712l0 0c-143,-248 -464,-334 -712,-190l-3621 2091c-249,143 -334,463 -191,711z"/>
    <path class="fil28" d="M93146 60145l0 0c144,-248 58,-568 -190,-711l-3622 -2091c-248,-144 -568,-58 -712,190l0 0c-143,249 -57,569 191,712l3622 2091c248,143 568,57 711,-191z"/>
    <path class="fil28" d="M95578 51072l0 0c0,-287 -235,-521 -521,-521l-4182 0c-287,0 -521,234 -521,521l0 0c0,286 234,521 521,521l4182 0c286,0 521,-235 521,-521z"/>
    <path class="fil28" d="M93146 41998l0 0c-143,-248 -463,-334 -711,-190l-3622 2091c-248,143 -334,463 -191,711l0 0c144,248 464,334 712,191l3622 -2091c248,-143 334,-463 190,-712z"/>
    <path class="fil28" d="M86504 35356l0 0c-248,-143 -568,-57 -712,191l-2091 3622c-143,248 -57,568 191,711l0 0c248,143 569,58 712,-191l2091 -3621c143,-248 57,-569 -191,-712z"/>
    <path class="fil29" d="M77431 39979c6018,0 10898,4879 10898,10898 0,6019 -4880,10898 -10898,10898 -6019,0 -10898,-4879 -10898,-10898 0,-6019 4879,-10898 10898,-10898z"/>
    <path class="fil30" d="M79497 53977l0 2067 -8266 0 0 -2067 8266 0zm-8266 -6200l0 -2067c4133,0 8266,0 12400,0l-2067 2067c-3444,0 -6889,0 -10333,0zm12400 2067c0,2066 0,4133 0,6200l-2067 0 0 -4134 0 0 -10333 0 0 -2066c4133,0 8266,0 12400,0z"/>
    <path class="fil31" d="M80149 57765c-117,0 -261,205 -385,381 -54,76 -104,147 -151,201l0 0c-15,18 -32,34 -48,48 -84,73 -186,109 -289,109 -102,0 -204,-36 -288,-109 -16,-14 -33,-31 -48,-48l0 0c-47,-54 -97,-125 -150,-200 -125,-177 -269,-382 -386,-382 -117,0 -261,205 -386,381 -53,76 -103,147 -150,201l0 0c-15,18 -32,34 -48,48 -84,73 -186,109 -288,109 -102,0 -204,-36 -288,-108 -17,-15 -34,-31 -49,-49 -49,-56 -98,-126 -150,-200 -124,-177 -269,-382 -386,-382 -117,0 -262,206 -387,383 -51,74 -100,143 -148,199 -16,17 -32,33 -48,48 -85,73 -187,109 -289,109 -103,0 -205,-36 -289,-109 -17,-15 -33,-31 -48,-48 -48,-56 -97,-125 -149,-199 -125,-177 -269,-383 -387,-383 -205,0 -399,176 -550,428 -178,298 -289,696 -290,1048l1309 9792 4297 0 1309 -9792c0,-352 -112,-750 -290,-1048 -150,-252 -345,-428 -550,-428zm-560 259c154,-219 333,-472 560,-472 289,0 545,219 733,532 197,331 321,772 321,1161l-1 14 -1324 9894 -12 93 -93 0 -4483 0 -93 0 -12 -93 -1323 -9894 -2 -14c0,-389 124,-830 322,-1161 187,-313 443,-532 732,-532 228,0 407,254 561,473 50,71 96,137 136,183 8,9 17,18 26,26 44,38 97,57 150,57 53,0 106,-19 149,-57 10,-8 18,-17 27,-26 39,-46 86,-112 135,-182 154,-219 334,-474 561,-474 228,0 406,254 560,472 50,71 97,138 137,184 8,9 18,18 27,27 44,37 97,56 149,56 52,0 105,-19 148,-57 10,-8 19,-16 27,-26l0 -1c42,-48 88,-113 137,-183 154,-219 332,-472 560,-472 227,0 406,254 560,472 49,70 95,135 137,183l0 1c8,9 17,18 27,26 43,38 96,57 148,57 53,0 105,-19 149,-57 10,-8 19,-17 27,-26l0 -1c42,-48 88,-113 137,-183z"/>
    <path class="fil22" d="M81840 69897c0,2379 -1166,4076 -4308,4076 -3143,0 -4309,-1697 -4309,-4076 0,-3341 8617,-3342 8617,0z"/>
    <path class="fil32" d="M83354 68273c-37,338 -95,679 -184,1016 -478,1826 -1843,3516 -5740,3516 -3511,0 -4852,-1697 -5359,-3550 -93,-337 -158,-682 -202,-1021 -140,-1069 -84,-2095 -84,-2783 3741,1218 7619,1304 11639,256 2,190 2,376 2,555 0,579 12,1284 -72,2011z"/>
    <path class="fil22" d="M83354 68273c-37,338 -95,679 -184,1016 -1802,477 -3624,717 -5457,717 -1873,0 -3757,-249 -5642,-751 -93,-337 -158,-682 -202,-1021 3861,1109 7716,1121 11485,39z"/>
    <path class="fil33" d="M81564 47777l2067 -2067 -4089 0c-253,625 -325,1345 -176,2067l2198 0z"/>
    <path class="fil33" d="M83631 49844l-3059 0c842,721 1974,999 3025,633 11,-4 23,-8 34,-12l0 -621z"/>
    <path class="fil34" d="M75666 47777l3700 0c-149,-722 -77,-1442 176,-2067l-3629 0c-200,651 -288,1351 -247,2067z"/>
    <path class="fil34" d="M80572 49844l-4424 0c341,809 834,1507 1427,2066l3989 0 0 1488c410,-30 821,-113 1225,-253 297,-104 578,-234 842,-388l0 -2292c-11,4 -23,8 -34,12 -1051,366 -2183,88 -3025,-633z"/>
    <path class="fil35" d="M83631 50465c1615,-584 2420,-2489 1799,-4274 -626,-1797 -2461,-2792 -4098,-2221 -840,292 -1464,938 -1790,1740l4089 0 -2067 2067 -2198 0c33,160 77,320 133,479 224,644 603,1185 1073,1588l3059 0 0 621z"/>
    <path class="fil33" d="M80572 49844c-470,-403 -849,-944 -1073,-1588 -56,-159 -100,-319 -133,-479l-3700 0c32,559 142,1128 338,1690 44,128 93,254 144,377l4424 0z"/>
    <path class="fil33" d="M81564 51910l-3989 0c1100,1037 2542,1594 3989,1488l0 -1488z"/>
    <path class="fil33" d="M83631 50465l0 2292c2138,-1251 3114,-4060 2192,-6709 -1036,-2974 -4073,-4621 -6785,-3677 -1546,538 -2651,1801 -3125,3339l3629 0c326,-802 950,-1448 1790,-1740 1637,-571 3472,424 4098,2221 621,1785 -184,3690 -1799,4274z"/>
   </g>
   <g>
    <path class="fil5" d="M45471 61851l-19759 27104c-332,457 -973,558 -1430,225l-15156 -11049c-457,-333 -557,-974 -224,-1430l19758 -27105c334,-457 976,-559 1432,-227l15157 11049c457,333 555,976 222,1433z"/>
    <path class="fil36" d="M46153 62348l-19759 27104c-333,457 -973,558 -1430,225l-15156 -11049c-457,-333 -557,-974 -224,-1430l19758 -27105c333,-457 976,-559 1432,-226l15157 11049c457,332 555,975 222,1432z"/>
    <path class="fil37" d="M43780 62384l-7507 10294 -2 4 -6123 8405 -2 4 -2786 3816 -656 900c-178,247 -527,302 -773,121l-7239 -5279 -5609 -4088c-251,-179 -302,-527 -124,-775l7288 -9999 9788 -13424c171,-237 498,-300 745,-141 11,6 22,12 31,22l2188 1596 4873 3554 5784 4215c250,180 305,530 124,775z"/>
    <path class="fil38" d="M17905 83441l0 0c-430,-313 -524,-916 -211,-1345 313,-430 915,-525 1345,-211 430,313 524,915 211,1345 -313,429 -915,524 -1345,211z"/>
    <path class="fil38" d="M32008 52427l0 0c-175,-127 -213,-372 -86,-546 127,-175 372,-213 547,-86 175,127 212,372 85,547 -127,174 -372,213 -546,85z"/>
    <path class="fil5" d="M27626 78713l-373 -272 1184 -1623c556,-763 781,-1696 635,-2628l-424 -2706c-134,-858 454,-1665 1311,-1799l2707 -424c932,-147 1751,-647 2307,-1409l1184 -1624 372 272 -1183 1624c-629,862 -1555,1428 -2609,1593l-2706 424c-606,95 -1022,665 -927,1271l424 2707c166,1053 -90,2109 -719,2970l-1183 1624z"/>
    <path class="fil5" d="M19804 73011l-373 -272 1184 -1624c628,-862 1555,-1427 2608,-1593l2707 -424c606,-95 1022,-665 927,-1271l-425 -2706c-165,-1054 90,-2109 719,-2971l1183 -1624 373 272 -1184 1623c-555,763 -781,1696 -635,2628l425 2706c134,858 -454,1665 -1312,1799l-2706 425c-932,146 -1752,646 -2307,1408l-1184 1624z"/>
    <path class="fil11" d="M36446 66980c-47,-15 -93,-38 -136,-69l-8300 -6050c-206,-150 -251,-439 -101,-646 150,-205 437,-250 645,-101l8300 6051c206,151 251,439 102,646 -120,163 -326,225 -510,169z"/>
    <path class="fil11" d="M27543 79193c-48,-15 -94,-38 -136,-68l-8301 -6051c-206,-150 -251,-439 -101,-645 150,-206 438,-252 646,-101l8300 6051c205,150 251,438 101,645 -119,163 -326,225 -509,169z"/>
    <path class="fil7" d="M27891 64374l639 4077c30,188 206,317 394,287l4077 -638c304,-48 398,-439 150,-621l-4716 -3437c-248,-181 -591,28 -544,332z"/>
    <path class="fil39" d="M23388 73392l1738 -272c189,-30 366,99 395,288l273 1738c47,303 -296,513 -545,332l-2010 -1466c-249,-181 -154,-572 149,-620z"/>
    <path class="fil39" d="M26362 72476c-122,168 -357,205 -524,82 -167,-122 -204,-356 -82,-523 122,-168 357,-204 524,-83 167,122 204,357 82,524z"/>
    <path class="fil39" d="M27329 71150c-123,168 -357,204 -524,82 -168,-122 -204,-357 -83,-524 122,-167 357,-204 525,-82 167,122 204,357 82,524z"/>
    <path class="fil39" d="M28296 69824c-123,167 -357,204 -524,82 -168,-122 -205,-357 -83,-524 122,-168 357,-204 525,-82 167,122 203,356 82,524z"/>
    <path class="fil40" d="M31963 63742l3922 2859 373 272 52 38c43,31 89,54 136,69 148,45 312,14 432,-86l67 -641c-26,-33 -56,-62 -91,-88l-4780 -3484 -111 1061z"/>
    <path class="fil41" d="M31684 66410l-202 1928 1519 -238c304,-48 398,-439 150,-621l-1467 -1069z"/>
    <path class="fil42" d="M31314 69940l1423 -223c1054,-165 1980,-731 2609,-1593l912 -1251 -373 -272 -912 1251c-556,762 -1375,1262 -2307,1408l-1302 205 -50 475z"/>
    <path class="fil43" d="M32074 62681l4780 3484c35,26 65,55 91,88l926 -8859 -4872 -3554 -925 8841z"/>
    <path class="fil44" d="M31684 66410l1467 1069c248,182 154,573 -150,621l-1519 238 -118 1127 1302 -205c932,-146 1751,-646 2307,-1408l912 -1251 -3922 -2859 -279 2668z"/>
    <path class="fil43" d="M32737 69717l-1423 223 -1166 11147 6123 -8405 2 -4 605 -5784c-120,100 -284,131 -432,86 -47,-15 -93,-38 -136,-69l-52 -38 -912 1251c-629,862 -1555,1428 -2609,1593z"/>
    <path class="fil41" d="M29054 68718l411 -3925 -1030 -751c-248,-181 -591,28 -544,332l639 4077c30,188 206,317 394,287l130 -20z"/>
    <path class="fil40" d="M27525 78068l-7449 -5430 -373 -272 -52 -38c-27,-20 -55,-36 -83,-48l-34 317 -21 202 -55 531 7949 5795c42,30 88,53 136,68 145,44 304,15 423,-80l69 -656c-24,-29 -52,-55 -84,-78l-53 -39 -373 -272z"/>
    <path class="fil42" d="M23295 69979l2706 -425c858,-134 1446,-941 1312,-1799l-425 -2706c-146,-932 80,-1865 635,-2628l912 -1250 -373 -272 -911 1251c-629,862 -884,1917 -719,2971l425 2706c95,606 -321,1176 -927,1271l-2707 424c-1053,166 -1980,731 -2608,1593l-912 1251 373 272 912 -1251c555,-762 1375,-1262 2307,-1408z"/>
    <path class="fil43" d="M23223 69522l2707 -424c606,-95 1022,-665 927,-1271l-425 -2706c-165,-1054 90,-2109 719,-2971l911 -1251 -52 -38c-206,-150 -251,-439 -101,-646 150,-205 437,-250 645,-101l1301 949 926 -8841c-248,-159 -575,-96 -746,141l-9788 13424 -679 6493c28,12 56,28 83,48l52 38 912 -1251c628,-862 1555,-1427 2608,-1593z"/>
    <path class="fil43" d="M27407 79125l-7949 -5795 -766 7319 7239 5279c246,181 596,126 773,-121l655 -900 607 -5794c-119,95 -278,124 -423,80 -48,-15 -94,-38 -136,-68z"/>
    <path class="fil44" d="M25794 75146c47,303 -296,513 -545,332l-2010 -1466c-249,-181 -154,-572 149,-620l1738 -272c189,-30 366,99 395,288l273 1738zm-5718 -2508l7449 5430 643 -881 550 -5258 -70 -445c-62,-396 30,-781 231,-1094l175 -1672 -130 20c-188,30 -364,-99 -394,-287l-639 -4077c-47,-304 296,-513 544,-332l1030 751 279 -2668 -1309 -954 -912 1250c-555,763 -781,1696 -635,2628l425 2706c134,858 -454,1665 -1312,1799l-2706 425c-932,146 -1752,646 -2307,1408l-912 1251zm6286 -162c-122,168 -357,205 -524,82 -167,-122 -204,-356 -82,-523 122,-168 357,-204 524,-83 167,122 204,357 82,524zm1934 -2652c-123,167 -357,204 -524,82 -168,-122 -205,-357 -83,-524 122,-168 357,-204 525,-82 167,122 203,356 82,524zm-967 1326c-122,168 -357,204 -524,82 -168,-122 -204,-357 -83,-524 122,-167 357,-204 525,-82 167,122 204,357 82,524z"/>
   </g>
  </g>
 </g>
</svg>
