<?xml version="1.0" encoding="UTF-8"?>
<!DOCTYPE svg PUBLIC "-//W3C//DTD SVG 1.1//EN" "http://www.w3.org/Graphics/SVG/1.1/DTD/svg11.dtd">
<!-- Creator: CorelDRAW X7 -->
<svg xmlns="http://www.w3.org/2000/svg" xml:space="preserve" width="3.62937in" height="2.74803in" version="1.1" style="shape-rendering:geometricPrecision; text-rendering:geometricPrecision; image-rendering:optimizeQuality; fill-rule:evenodd; clip-rule:evenodd"
viewBox="0 0 36294 27480"
 xmlns:xlink="http://www.w3.org/1999/xlink">
 <defs>
  <style type="text/css">
   <![CDATA[
    .fil0 {fill:#F3E9D8}
   ]]>
  </style>
 </defs>
 <g id="Layer_x0020_1">
  <metadata id="CorelCorpID_0Corel-Layer"/>
  <g id="_3027431487920">
   <path class="fil0" d="M18147 0l0 0c-287,0 -521,234 -521,521l0 4182c0,286 234,521 521,521l0 0c286,0 521,-235 521,-521l0 -4182c0,-287 -235,-521 -521,-521z"/>
   <path class="fil0" d="M9073 2431l0 0c-248,143 -333,464 -190,712l2091 3621c143,249 463,334 711,191l0 0c248,-143 334,-463 191,-711l-2091 -3622c-143,-248 -463,-334 -712,-191z"/>
   <path class="fil0" d="M2431 9073l0 0c-143,249 -57,569 191,712l3622 2091c248,143 568,57 711,-191l0 0c143,-248 58,-568 -190,-711l-3622 -2091c-248,-144 -568,-58 -712,190z"/>
   <path class="fil0" d="M0 18147l0 0c0,286 234,521 521,521l4182 0c286,0 521,-235 521,-521l0 0c0,-287 -235,-521 -521,-521l-4182 0c-287,0 -521,234 -521,521z"/>
   <path class="fil0" d="M2431 27220l0 0c144,248 464,334 712,191l3622 -2091c248,-143 333,-464 190,-712l0 0c-143,-248 -463,-334 -711,-190l-3622 2091c-248,143 -334,463 -191,711z"/>
   <path class="fil0" d="M33862 27220l0 0c144,-248 58,-568 -190,-711l-3622 -2091c-248,-144 -568,-58 -711,190l0 0c-144,248 -58,569 190,712l3622 2091c248,143 568,57 711,-191z"/>
   <path class="fil0" d="M36294 18147l0 0c0,-287 -235,-521 -521,-521l-4182 0c-287,0 -521,234 -521,521l0 0c0,286 234,521 521,521l4182 0c286,0 521,-235 521,-521z"/>
   <path class="fil0" d="M33862 9073l0 0c-143,-248 -463,-334 -711,-190l-3622 2091c-248,143 -334,463 -190,711l0 0c143,248 463,334 711,191l3622 -2091c248,-143 334,-463 190,-712z"/>
   <path class="fil0" d="M27220 2431l0 0c-248,-143 -568,-57 -711,191l-2091 3622c-144,248 -58,568 190,711l0 0c248,143 569,58 712,-191l2091 -3621c143,-248 57,-569 -191,-712z"/>
  </g>
 </g>
</svg>
