<?xml version="1.0" encoding="UTF-8"?>
<!DOCTYPE svg PUBLIC "-//W3C//DTD SVG 1.1//EN" "http://www.w3.org/Graphics/SVG/1.1/DTD/svg11.dtd">
<!-- Creator: CorelDRAW X7 -->
<svg xmlns="http://www.w3.org/2000/svg" xml:space="preserve" width="4.22492in" height="4.55528in" version="1.1" style="shape-rendering:geometricPrecision; text-rendering:geometricPrecision; image-rendering:optimizeQuality; fill-rule:evenodd; clip-rule:evenodd"
viewBox="0 0 42249 45553"
 xmlns:xlink="http://www.w3.org/1999/xlink">
 <defs>
  <style type="text/css">
   <![CDATA[
    .fil8 {fill:#D2AE6D}
    .fil12 {fill:#DEC392}
    .fil4 {fill:#DEE4F2}
    .fil7 {fill:#E9D7B5}
    .fil11 {fill:#EFE1C8}
    .fil0 {fill:#F4EBDA}
    .fil13 {fill:#F5EDDF}
    .fil2 {fill:#7C94CA;fill-rule:nonzero}
    .fil1 {fill:#95A9D4;fill-rule:nonzero}
    .fil10 {fill:#B3C1E0;fill-rule:nonzero}
    .fil9 {fill:#B99C67;fill-rule:nonzero}
    .fil6 {fill:#DCC495;fill-rule:nonzero}
    .fil5 {fill:#E5CFA8;fill-rule:nonzero}
    .fil3 {fill:white;fill-rule:nonzero}
   ]]>
  </style>
 </defs>
 <g id="Layer_x0020_1">
  <metadata id="CorelCorpID_0Corel-Layer"/>
  <g id="_3027431486512">
   <path class="fil0" d="M0 35660c0,-3504 3891,-6583 9761,-8340 3281,-982 7180,-1552 11364,-1552 11666,0 21124,4429 21124,9892 0,5464 -9458,9893 -21124,9893 -4184,0 -8083,-570 -11364,-1552 -5870,-1757 -9761,-4836 -9761,-8341z"/>
   <path class="fil1" d="M32867 34078c0,86 -4,172 -14,256 -302,2803 -5549,5037 -11978,5037 -2381,0 -4601,-307 -6468,-836 -3234,-916 -5408,-2500 -5519,-4310l0 -10c-3,-46 -5,-91 -5,-137 0,-45 2,-91 5,-137 30,-544 248,-1070 627,-1563 216,-282 486,-553 805,-811 2025,-1656 5994,-2780 10555,-2780 5278,0 9758,1503 11360,3591 412,535 632,1106 632,1700z"/>
   <polygon class="fil1" points="32867,32378 32867,34334 32853,34334 12454,34241 8888,34225 8888,32378 "/>
   <path class="fil2" d="M14407 36687l0 1848c-3234,-916 -5408,-2500 -5520,-4310l0 -10c-2,-46 -4,-91 -4,-137 0,-45 2,-91 4,-137l0 -1563 628 0c216,-282 486,-553 805,-811l646 811 1488 1863 1953 2446z"/>
   <path class="fil3" d="M32867 32231c0,2923 -5368,5291 -11992,5291 -2381,0 -4601,-306 -6468,-835 -3322,-939 -5524,-2585 -5524,-4456 0,-588 218,-1156 621,-1685 1595,-2096 6084,-3606 11371,-3606 6624,0 11992,2369 11992,5291z"/>
   <path class="fil4" d="M15642 36708c6242,0 11304,-1500 11304,-3350 0,-1850 -5062,-3350 -11304,-3350 -2263,0 -4371,196 -6138,538 -403,529 -621,1097 -621,1685 0,1871 2202,3517 5524,4456 405,14 816,21 1235,21z"/>
   <path class="fil5" d="M28341 19062c-1312,1406 -1242,4403 -1224,6666 3,190 3,376 3,555 0,2300 177,6543 -5996,6543 -6171,0 -5645,-5252 -5645,-7354 0,-235 0,-477 2,-719 7,-1915 -5,-3966 -723,-5012l7461 -5210c0,0 7545,3008 6122,4531z"/>
   <path class="fil6" d="M15481 24753c7,-1916 -5,-3966 -723,-5012 0,0 3111,2276 5887,2043 2667,-223 -2295,3404 -5164,2969z"/>
   <path class="fil7" d="M21125 0c6018,0 10898,4879 10898,10898 0,6019 -4880,10898 -10898,10898 -6019,0 -10898,-4879 -10898,-10898 0,-6019 4879,-10898 10898,-10898z"/>
   <path class="fil8" d="M23191 13998l0 2067 -8266 0 0 -2067 8266 0zm-8266 -6200l0 -2067c4133,0 8266,0 12400,0l-2067 2067c-3444,0 -6889,0 -10333,0zm12400 2066c0,2067 0,4134 0,6201l-2067 0 0 -4134 0 0 -10333 0 0 -2067c4133,0 8266,0 12400,0z"/>
   <path class="fil9" d="M23843 17786c-117,0 -261,205 -386,381 -53,76 -103,147 -150,201l0 0c-16,18 -32,34 -48,48 -84,73 -186,109 -289,109 -102,0 -204,-37 -288,-109 -16,-15 -33,-31 -48,-48l0 0c-47,-54 -97,-125 -150,-200 -125,-177 -269,-382 -386,-382 -117,0 -261,205 -386,381 -53,76 -103,147 -150,201l0 0c-15,17 -32,34 -48,48 -84,73 -186,109 -288,109 -102,0 -204,-36 -288,-109 -17,-14 -34,-30 -49,-48 -49,-56 -98,-126 -150,-200 -124,-177 -269,-382 -386,-382 -117,0 -262,206 -387,383 -52,74 -100,143 -148,199 -16,17 -32,33 -49,48 -84,73 -186,109 -288,109 -103,0 -205,-36 -289,-109 -17,-15 -33,-31 -48,-48 -48,-56 -97,-126 -149,-199 -125,-177 -269,-383 -387,-383 -205,0 -399,176 -550,428 -178,298 -289,696 -290,1048l1309 9792 4297 0 1309 -9792c-1,-352 -112,-750 -290,-1048 -150,-252 -345,-428 -550,-428zm-560 259c154,-219 333,-472 560,-472 289,0 545,219 732,532 198,331 322,772 322,1161l-1 14 -1324 9894 -12 93 -93 0 -4483 0 -93 0 -12 -93 -1323 -9894 -2 -14c0,-389 124,-830 322,-1161 187,-313 443,-532 732,-532 228,0 407,254 561,473 50,71 96,137 136,183 8,9 17,18 26,26 44,38 97,57 150,57 53,0 106,-19 149,-57 10,-8 18,-17 27,-26 39,-46 86,-112 135,-182 154,-219 334,-474 561,-474 228,0 406,253 560,472 50,71 97,137 137,184 8,9 17,18 27,27 44,37 97,56 149,56 52,0 105,-19 148,-57 10,-8 18,-17 27,-26l0 -1c42,-48 88,-114 137,-183 154,-219 332,-472 560,-472 227,0 406,254 560,472 49,70 95,135 137,183l0 1c8,9 17,18 27,26 43,38 96,57 148,57 53,0 105,-19 149,-57 10,-8 19,-17 27,-26l0 -1c42,-48 88,-114 137,-183z"/>
   <path class="fil1" d="M25534 29918c0,2379 -1166,4076 -4308,4076 -3143,0 -4309,-1697 -4309,-4076 0,-3342 8617,-3342 8617,0z"/>
   <path class="fil10" d="M27048 28294c-37,338 -95,679 -184,1016 -479,1826 -1843,3516 -5740,3516 -3511,0 -4852,-1697 -5359,-3551 -93,-336 -158,-681 -202,-1020 -140,-1070 -84,-2095 -84,-2783 3741,1218 7619,1304 11639,256 2,190 2,376 2,555 0,579 12,1284 -72,2011z"/>
   <path class="fil1" d="M27048 28294c-37,338 -95,679 -184,1016 -1802,477 -3624,716 -5457,716 -1873,0 -3757,-248 -5642,-751 -93,-336 -158,-681 -202,-1020 3861,1109 7716,1120 11485,39z"/>
   <path class="fil11" d="M25258 7798l2067 -2067 -4089 0c-253,625 -325,1345 -176,2067l2198 0z"/>
   <path class="fil11" d="M27325 9864l-3059 0c842,722 1974,1000 3025,634 11,-4 23,-8 34,-12l0 -622z"/>
   <path class="fil12" d="M19360 7798l3700 0c-149,-722 -77,-1442 176,-2067l-3629 0c-201,651 -288,1351 -247,2067z"/>
   <path class="fil12" d="M24266 9864l-4424 0c341,810 834,1508 1427,2067l3989 0 0 1488c410,-30 821,-113 1225,-253 297,-104 578,-234 842,-388l0 -2292c-11,4 -23,8 -34,12 -1051,366 -2183,88 -3025,-634z"/>
   <path class="fil13" d="M27325 10486c1615,-584 2420,-2489 1799,-4274 -626,-1797 -2461,-2792 -4098,-2221 -840,292 -1464,938 -1790,1740l4089 0 -2067 2067 -2198 0c33,160 77,320 133,479 224,644 603,1185 1073,1587l3059 0 0 622z"/>
   <path class="fil11" d="M24266 9864c-470,-402 -849,-943 -1073,-1587 -56,-159 -100,-319 -133,-479l-3700 0c32,559 142,1128 338,1690 44,128 93,253 144,376l4424 0z"/>
   <path class="fil11" d="M25258 11931l-3989 0c1100,1037 2542,1594 3989,1488l0 -1488z"/>
   <path class="fil11" d="M27325 10486l0 2292c2138,-1251 3114,-4060 2192,-6709 -1036,-2974 -4073,-4621 -6785,-3677 -1546,538 -2651,1801 -3125,3339l3629 0c326,-802 950,-1448 1790,-1740 1637,-571 3472,424 4098,2221 621,1785 -184,3690 -1799,4274z"/>
  </g>
 </g>
</svg>
