<?xml version="1.0" encoding="UTF-8"?>
<!DOCTYPE svg PUBLIC "-//W3C//DTD SVG 1.1//EN" "http://www.w3.org/Graphics/SVG/1.1/DTD/svg11.dtd">
<!-- Creator: CorelDRAW X7 -->
<svg xmlns="http://www.w3.org/2000/svg" xml:space="preserve" width="3.0961in" height="3.33819in" version="1.1" style="shape-rendering:geometricPrecision; text-rendering:geometricPrecision; image-rendering:optimizeQuality; fill-rule:evenodd; clip-rule:evenodd"
viewBox="0 0 30961 33382"
 xmlns:xlink="http://www.w3.org/1999/xlink">
 <defs>
  <style type="text/css">
   <![CDATA[
    .fil8 {fill:#D2AE6D}
    .fil12 {fill:#DEC392}
    .fil4 {fill:#DEE4F2}
    .fil7 {fill:#E9D7B5}
    .fil11 {fill:#EFE1C8}
    .fil0 {fill:#F4EBDA}
    .fil13 {fill:#F5EDDF}
    .fil2 {fill:#7C94CA;fill-rule:nonzero}
    .fil1 {fill:#95A9D4;fill-rule:nonzero}
    .fil10 {fill:#B3C1E0;fill-rule:nonzero}
    .fil9 {fill:#B99C67;fill-rule:nonzero}
    .fil6 {fill:#DCC495;fill-rule:nonzero}
    .fil5 {fill:#E5CFA8;fill-rule:nonzero}
    .fil3 {fill:white;fill-rule:nonzero}
   ]]>
  </style>
 </defs>
 <g id="Layer_x0020_1">
  <metadata id="CorelCorpID_0Corel-Layer"/>
  <g id="_1759401147232">
   <path class="fil0" d="M0 26133c0,-2569 2851,-4825 7153,-6112 2404,-720 5262,-1138 8327,-1138 8550,0 15481,3246 15481,7250 0,4003 -6931,7249 -15481,7249 -3065,0 -5923,-417 -8327,-1137 -4302,-1288 -7153,-3544 -7153,-6112z"/>
   <path class="fil1" d="M24086 24973c0,63 -3,126 -10,188 -222,2054 -4067,3691 -8778,3691 -1745,0 -3372,-225 -4740,-613 -2370,-671 -3963,-1832 -4045,-3158l0 -8c-2,-33 -4,-67 -4,-100 0,-33 2,-67 4,-100 22,-399 182,-785 460,-1146 158,-206 356,-405 589,-594 1484,-1213 4393,-2038 7736,-2038 3867,0 7151,1102 8325,2632 301,392 463,811 463,1246z"/>
   <polygon class="fil1" points="24086,23727 24086,25161 24076,25161 9126,25092 6513,25081 6513,23727 "/>
   <path class="fil2" d="M10558 26885l0 1354c-2370,-671 -3963,-1832 -4045,-3158l0 -8c-2,-33 -3,-67 -3,-100 0,-33 1,-67 3,-100l0 -1146 460 0c158,-206 356,-405 589,-594l474 594 1090 1365 1432 1793z"/>
   <path class="fil3" d="M24086 23620c0,2141 -3934,3877 -8788,3877 -1745,0 -3372,-224 -4740,-612 -2435,-688 -4049,-1894 -4049,-3265 0,-432 161,-848 455,-1235 1169,-1536 4459,-2643 8334,-2643 4854,0 8788,1736 8788,3878z"/>
   <path class="fil4" d="M11463 26900c4574,0 8283,-1099 8283,-2455 0,-1356 -3709,-2455 -8283,-2455 -1658,0 -3204,144 -4499,395 -294,387 -455,803 -455,1235 0,1371 1614,2577 4049,3265 296,10 598,15 905,15z"/>
   <path class="fil5" d="M20769 13969c-961,1031 -910,3227 -897,4885 2,139 2,276 2,407 0,1685 130,4794 -4394,4794 -4522,0 -4137,-3848 -4137,-5389 0,-172 0,-349 2,-526 5,-1404 -4,-2907 -530,-3674l5467 -3818c0,0 5529,2205 4487,3321z"/>
   <path class="fil6" d="M11345 18140c5,-1404 -4,-2907 -530,-3674 0,0 2280,1668 4314,1498 1954,-164 -1682,2494 -3784,2176z"/>
   <path class="fil7" d="M15481 0c4410,0 7986,3576 7986,7986 0,4411 -3576,7986 -7986,7986 -4411,0 -7987,-3575 -7987,-7986 0,-4410 3576,-7986 7987,-7986z"/>
   <path class="fil8" d="M16995 10258l0 1514 -6058 0 0 -1514 6058 0zm-6058 -4544l0 -1514c3029,0 6058,0 9087,0l-1514 1514c-2525,0 -5049,0 -7573,0zm9087 1515c0,1514 0,3029 0,4543l-1514 0 0 -3029 0 0 -7573 0 0 -1514c3029,0 6058,0 9087,0z"/>
   <path class="fil9" d="M17472 13034c-85,0 -191,150 -282,279 -39,56 -76,108 -110,148l0 -1c-12,13 -23,25 -36,36 -61,53 -136,79 -211,79 -75,0 -150,-26 -211,-79 -12,-11 -24,-23 -35,-36l0 1c-35,-40 -71,-92 -110,-147 -92,-130 -198,-280 -283,-280 -86,0 -192,150 -283,279 -39,56 -75,108 -110,148l0 -1c-11,13 -23,25 -35,36 -62,53 -136,79 -211,79 -75,0 -150,-26 -211,-79 -13,-11 -25,-23 -36,-36 -36,-41 -72,-92 -110,-146 -91,-130 -197,-280 -283,-280 -86,0 -192,151 -283,281 -38,54 -74,104 -109,145 -11,13 -23,25 -36,35 -61,54 -136,81 -211,81 -75,0 -150,-27 -212,-81 -12,-10 -24,-22 -35,-35 -35,-41 -71,-92 -109,-146 -91,-129 -198,-280 -284,-280 -150,0 -292,129 -403,314 -130,218 -212,509 -213,767l960 7176 3149 0 959 -7176c0,-258 -82,-549 -212,-767 -111,-185 -253,-314 -404,-314zm-410 190c113,-161 244,-346 410,-346 212,0 400,160 537,390 145,242 236,565 236,850l-1 10 -970 7251 -9 69 -68 0 -3285 0 -68 0 -9 -69 -970 -7251 -1 -10c0,-285 91,-608 236,-850 137,-230 324,-390 536,-390 167,0 299,186 411,347 37,51 71,100 100,133 6,7 13,14 19,20 32,27 71,41 110,41 39,0 77,-14 109,-41 7,-6 14,-13 20,-20 29,-33 63,-82 99,-133 113,-160 244,-347 411,-347 167,0 298,186 411,346 36,52 70,100 100,134 6,7 13,14 20,20 32,28 70,41 109,41 38,0 77,-13 109,-41 6,-6 13,-13 19,-20l0 0c31,-35 65,-83 101,-134 112,-161 243,-346 410,-346 166,0 297,186 410,346 36,51 70,99 101,134l0 0c6,7 12,14 19,20 32,28 71,41 109,41 38,0 77,-13 109,-41 7,-6 14,-13 20,-20l0 0c31,-35 64,-83 100,-134z"/>
   <path class="fil1" d="M18712 21924c0,1744 -854,2987 -3158,2987 -2303,0 -3157,-1243 -3157,-2987 0,-2448 6315,-2448 6315,0z"/>
   <path class="fil10" d="M19821 20735c-27,247 -70,497 -134,744 -351,1338 -1351,2577 -4207,2577 -2573,0 -3556,-1244 -3927,-2602 -68,-247 -116,-500 -149,-748 -102,-784 -61,-1535 -61,-2040 2742,893 5583,956 8529,188 2,139 2,276 2,407 0,424 9,940 -53,1474z"/>
   <path class="fil1" d="M19821 20735c-27,247 -70,497 -134,744 -1321,349 -2657,525 -3999,525 -1373,0 -2753,-182 -4135,-550 -68,-247 -116,-500 -149,-748 2831,812 5655,821 8417,29z"/>
   <path class="fil11" d="M18510 5714l1514 -1514 -2996 0c-186,458 -239,986 -129,1514l1611 0z"/>
   <path class="fil11" d="M20024 7229l-2241 0c617,528 1446,732 2216,464 9,-3 17,-6 25,-9l0 -455z"/>
   <path class="fil12" d="M14187 5714l2712 0c-110,-528 -57,-1056 129,-1514l-2660 0c-147,477 -210,990 -181,1514z"/>
   <path class="fil12" d="M17783 7229l-3242 0c250,593 611,1105 1045,1514l2924 0 0 1091c300,-22 601,-83 897,-186 218,-76 424,-172 617,-284l0 -1680c-8,3 -16,6 -25,9 -770,268 -1599,64 -2216,-464z"/>
   <path class="fil13" d="M20024 7684c1184,-428 1774,-1824 1318,-3132 -458,-1317 -1803,-2046 -3003,-1628 -615,214 -1072,688 -1311,1276l2996 0 -1514 1514 -1611 0c24,117 56,235 97,351 164,472 442,869 787,1164l2241 0 0 455z"/>
   <path class="fil11" d="M17783 7229c-345,-295 -623,-692 -787,-1164 -41,-116 -73,-234 -97,-351l-2712 0c24,410 105,827 248,1239 33,94 68,186 106,276l3242 0z"/>
   <path class="fil11" d="M18510 8743l-2924 0c806,760 1863,1168 2924,1091l0 -1091z"/>
   <path class="fil11" d="M20024 7684l0 1680c1567,-917 2282,-2975 1606,-4916 -758,-2180 -2984,-3387 -4972,-2695 -1132,394 -1943,1320 -2290,2447l2660 0c239,-588 696,-1062 1311,-1276 1200,-418 2545,311 3003,1628 456,1308 -134,2704 -1318,3132z"/>
  </g>
 </g>
</svg>
