<?xml version="1.0" encoding="UTF-8"?>
<!DOCTYPE svg PUBLIC "-//W3C//DTD SVG 1.1//EN" "http://www.w3.org/Graphics/SVG/1.1/DTD/svg11.dtd">
<!-- Creator: CorelDRAW X7 -->
<svg xmlns="http://www.w3.org/2000/svg" xml:space="preserve" width="8.07819in" height="8.51854in" version="1.1" style="shape-rendering:geometricPrecision; text-rendering:geometricPrecision; image-rendering:optimizeQuality; fill-rule:evenodd; clip-rule:evenodd"
viewBox="0 0 80782 85185"
 xmlns:xlink="http://www.w3.org/1999/xlink">
 <defs>
  <style type="text/css">
   <![CDATA[
    .fil41 {fill:#C0BDDB}
    .fil30 {fill:#D2AE6D}
    .fil42 {fill:#D6DDEE}
    .fil34 {fill:#DEC392}
    .fil25 {fill:#DEE4F2}
    .fil29 {fill:#E9D7B5}
    .fil40 {fill:#E9D7B6}
    .fil44 {fill:#E9EDF5}
    .fil43 {fill:#EBEFF6}
    .fil33 {fill:#EFE1C8}
    .fil28 {fill:#F3E9D8}
    .fil21 {fill:#F4EBDA}
    .fil35 {fill:#F5EDDF}
    .fil23 {fill:#7C94CA;fill-rule:nonzero}
    .fil22 {fill:#95A9D4;fill-rule:nonzero}
    .fil7 {fill:#A5A2CE;fill-rule:nonzero}
    .fil32 {fill:#B3C1E0;fill-rule:nonzero}
    .fil38 {fill:#B7C5E4;fill-rule:nonzero}
    .fil31 {fill:#B99C67;fill-rule:nonzero}
    .fil8 {fill:#BBB8DA;fill-rule:nonzero}
    .fil39 {fill:#C0BDDB;fill-rule:nonzero}
    .fil14 {fill:#C4C2DF;fill-rule:nonzero}
    .fil5 {fill:#C4CFE9;fill-rule:nonzero}
    .fil9 {fill:#CFCEE5;fill-rule:nonzero}
    .fil13 {fill:#D2AE6D;fill-rule:nonzero}
    .fil15 {fill:#D7D5E9;fill-rule:nonzero}
    .fil16 {fill:#DBBD89;fill-rule:nonzero}
    .fil27 {fill:#DCC495;fill-rule:nonzero}
    .fil10 {fill:#DCE3F2;fill-rule:nonzero}
    .fil11 {fill:#E0C698;fill-rule:nonzero}
    .fil37 {fill:#E0E6F3;fill-rule:nonzero}
    .fil26 {fill:#E5CFA8;fill-rule:nonzero}
    .fil3 {fill:#E5D0A9;fill-rule:nonzero}
    .fil20 {fill:#E5D5B7;fill-rule:nonzero}
    .fil17 {fill:#E6D1AB;fill-rule:nonzero}
    .fil4 {fill:#EBDBBD;fill-rule:nonzero}
    .fil1 {fill:#EDDEC2;fill-rule:nonzero}
    .fil2 {fill:#EDDFC4;fill-rule:nonzero}
    .fil19 {fill:#EFE2CA;fill-rule:nonzero}
    .fil0 {fill:#F4EBDA;fill-rule:nonzero}
    .fil18 {fill:#FAF4EC;fill-rule:nonzero}
    .fil6 {fill:#FBF7F0;fill-rule:nonzero}
    .fil36 {fill:#FCF9F4;fill-rule:nonzero}
    .fil12 {fill:white;fill-rule:nonzero}
    .fil24 {fill:white;fill-rule:nonzero}
   ]]>
  </style>
 </defs>
 <g id="Layer_x0020_1">
  <metadata id="CorelCorpID_0Corel-Layer"/>
  <g id="_1759736038832">
   <path class="fil0" d="M0 85185c1619,-4390 5194,-7678 9184,-9980 4529,-2617 10199,-2879 14425,-5802 1840,-1272 3305,-3252 3456,-5482 136,-2065 -835,-4016 -1472,-5988 -632,-1969 -861,-4356 509,-5906 1413,-1602 3860,-1616 5995,-1506 3509,181 11308,2170 12625,-2787 905,-3407 -9100,-4661 -10872,-7713 -1882,-3248 -509,-14618 1917,-17484 2426,-2867 9817,-379 13391,-1527 2708,-869 7209,225 9636,-1251 2430,-1477 4456,-4010 4400,-6852 -107,-5561 -7235,-8036 -9902,-12907l-13344 0c226,3768 -1181,7304 -5359,8781 -7017,2578 -16758,-2550 -20875,5174 -3106,5707 3754,12531 -2058,17374 -3561,2742 -7562,3415 -11656,3657l0 50199z"/>
   <path class="fil1" d="M0 85185c1619,-4390 5194,-7678 9184,-9980 4529,-2617 10199,-2879 14425,-5802 1840,-1272 3305,-3252 3456,-5482 136,-2065 -835,-4016 -1472,-5988 -632,-1969 -861,-4356 509,-5906 1413,-1602 3860,-1616 5995,-1506 3509,181 11308,2170 12625,-2787 1171,-4408 -10488,-7026 -8501,-15312 1312,-5465 9527,-8019 14618,-9654 2708,-870 5528,-1533 7955,-3009 2430,-1477 4456,-4010 4400,-6852 -107,-5560 -7235,-8036 -9902,-12907l-6194 0c76,169 152,327 228,475 1778,3469 4967,6561 4833,10459 -149,4370 -4561,7452 -8841,8347 -4281,895 -8763,356 -13038,1272 -3367,722 -6853,2741 -7659,6087 -1381,5721 3240,9265 3872,15115 607,5617 -4927,10163 -10429,11445 -4858,1132 -11322,1464 -16064,2909l0 29076z"/>
   <g>
    <path class="fil0" d="M68013 10986c0,1103 899,2003 2003,2003 1104,0 1997,-900 1997,-2003 0,-1104 -893,-1998 -1997,-1998 -1104,0 -2003,894 -2003,1998z"/>
    <g>
     <path class="fil2" d="M71558 12253c286,-345 455,-783 455,-1267 0,-1104 -893,-1998 -1997,-1998 -619,0 -1168,281 -1536,719 0,0 1507,-579 2435,350 929,929 643,2196 643,2196z"/>
     <path class="fil2" d="M69675 9882c23,24 47,47 70,70 35,35 35,100 0,135 -41,35 -99,35 -140,0 -24,-24 -41,-47 -64,-64 -35,-41 -35,-106 0,-141 35,-35 99,-35 134,0z"/>
     <path class="fil2" d="M69143 12183c-128,0 -128,-198 0,-198 123,0 123,198 0,198z"/>
     <path class="fil3" d="M70341 10682c-164,0 -164,-262 0,-262 169,0 169,262 0,262z"/>
    </g>
    <g>
     <path class="fil2" d="M70744 11015l-70 0c-82,0 -82,-128 0,-128l70 0c81,0 81,128 0,128z"/>
     <path class="fil3" d="M69389 11289c-292,0 -292,-455 0,-455 292,0 292,455 0,455z"/>
    </g>
   </g>
   <g>
    <path class="fil4" d="M27094 5408c0,-1866 -238,-3678 -683,-5408l-26411 0 0 26377c1722,440 3527,674 5387,674 11961,0 21707,-9682 21707,-21643z"/>
    <g>
     <path class="fil3" d="M0 26377c1722,440 3527,674 5387,674 6708,0 12657,-3037 16644,-7784 0,0 -8609,6552 -22031,-563l0 7673z"/>
     <path class="fil3" d="M9084 17363c-253,-253 -506,-506 -759,-759 -380,-380 -380,-1076 0,-1456 443,-380 1076,-380 1519,0 253,253 443,506 696,696 380,443 380,1139 0,1519 -380,380 -1076,380 -1456,0z"/>
     <path class="fil3" d="M1870 8693c1772,0 1772,2848 0,2848 -1835,0 -1835,-2848 0,-2848z"/>
    </g>
    <path class="fil3" d="M12184 2119c3165,0 3165,4936 0,4936 -3164,0 -3164,-4936 0,-4936z"/>
   </g>
   <g>
    <path class="fil5" d="M25138 30210c889,2519 3652,3841 6171,2952 2520,-889 3842,-3652 2953,-6172 -889,-2519 -3652,-3841 -6172,-2952 -2519,889 -3841,3652 -2952,6172z"/>
    <path class="fil6" d="M25504 30079c490,1389 1595,2380 2902,2778 389,119 798,185 1210,193 185,4 373,-5 559,-25 113,-12 224,-29 336,-49 225,-41 447,-101 669,-179 434,-153 828,-368 1180,-628 1523,-1134 2200,-3167 1535,-5050 -231,-656 -601,-1222 -1063,-1678 -566,-563 -1274,-961 -2042,-1154 -180,-47 -364,-81 -549,-105 -401,-49 -813,-44 -1224,21 -268,41 -534,107 -798,200 -1781,629 -2913,2278 -2964,4058 -21,535 60,1083 249,1618z"/>
    <path class="fil7" d="M29775 28811c61,-21 113,-69 136,-136l784 -2200c42,-116 -19,-244 -136,-286 -116,-41 -245,19 -286,136l-784 2200c-42,116 19,245 136,286 50,18 103,17 150,0z"/>
    <path class="fil8" d="M28876 28891c161,454 660,693 1114,532 455,-160 694,-659 533,-1113 -160,-455 -659,-694 -1113,-533 -455,160 -694,659 -534,1114z"/>
    <path class="fil8" d="M32757 30508c49,-17 92,-51 120,-100 61,-108 24,-245 -84,-306l-2982 -1697c-108,-62 -245,-24 -306,84 -61,108 -24,245 84,306l2982 1697c59,33 127,37 186,16z"/>
   </g>
   <g>
    <path class="fil9" d="M30949 55516l-2383 6400c-129,347 47,732 393,861l8771 3266c346,129 731,-47 861,-394l2383 -6400c129,-347 -47,-732 -394,-861l-8770 -3266c-347,-129 -732,47 -861,394z"/>
    <path class="fil10" d="M31105 54356l-2786 6235c-151,338 0,733 338,884l8544 3818c338,151 734,0 885,-338l2786 -6235c151,-338 0,-734 -338,-885l-8545 -3818c-337,-151 -733,0 -884,339z"/>
    <path class="fil11" d="M31105 54356l-618 1383 9767 4364 618 -1383c151,-338 0,-734 -338,-885l-8545 -3818c-337,-151 -733,0 -884,339z"/>
    <polygon class="fil12" points="30286,56189 40053,60553 40254,60103 30487,55739 "/>
    <path class="fil13" d="M37791 57499c-181,404 0,878 404,1058 404,181 878,-1 1058,-404 181,-404 -1,-878 -404,-1058 -404,-180 -878,0 -1058,404z"/>
    <path class="fil13" d="M32607 55183c-180,404 1,878 405,1058 404,180 877,-1 1058,-404 180,-404 -1,-878 -405,-1058 -404,-181 -877,0 -1058,404z"/>
    <path class="fil5" d="M38382 58355c255,68 529,-57 640,-306l484 -1083c124,-276 0,-600 -277,-723 -281,-124 -600,1 -723,276l-484 1084c-124,276 0,599 277,723 27,12 55,22 83,29z"/>
    <path class="fil5" d="M33198 56039c256,68 529,-57 640,-306l485 -1083c123,-276 -1,-600 -277,-724 -280,-123 -600,1 -723,277l-484 1084c-124,276 0,599 276,723 28,12 55,22 83,29z"/>
    <polygon class="fil9" points="37269,61206 38219,61630 38580,60824 37629,60399 "/>
    <polygon class="fil9" points="30706,58273 31657,58698 32017,57891 31067,57466 "/>
    <polygon class="fil9" points="32347,59006 33297,59431 33658,58624 32708,58200 "/>
    <polygon class="fil9" points="33988,59740 34938,60164 35298,59357 34348,58933 "/>
    <polygon class="fil9" points="35628,60473 36578,60897 36939,60091 35989,59666 "/>
    <polygon class="fil9" points="36683,62517 37633,62942 37994,62135 37044,61710 "/>
    <polygon class="fil9" points="30121,59585 31071,60009 31432,59202 30481,58778 "/>
    <polygon class="fil9" points="31761,60318 32711,60742 33072,59935 32122,59511 "/>
    <polygon class="fil9" points="33402,61051 34352,61475 34713,60669 33762,60244 "/>
    <polygon class="fil9" points="35042,61784 35993,62209 36353,61402 35403,60977 "/>
    <polygon class="fil9" points="36097,63828 37047,64253 37408,63446 36458,63021 "/>
    <polygon class="fil9" points="29535,60896 30485,61320 30845,60514 29895,60089 "/>
    <polygon class="fil9" points="31175,61629 32125,62054 32486,61247 31536,60822 "/>
    <polygon class="fil9" points="32816,62362 33766,62787 34127,61980 33176,61555 "/>
    <polygon class="fil9" points="34456,63095 35407,63520 35767,62713 34817,62288 "/>
   </g>
   <g>
    <path class="fil14" d="M7826 30520l-5243 2607c-291,144 -409,497 -265,788l5022 10100c144,290 497,409 787,264l5244 -2607c154,-76 259,-213 304,-366 37,-137 29,-285 -39,-422l-5022 -10100c-68,-136 -181,-232 -313,-285 -149,-57 -321,-56 -475,21z"/>
    <path class="fil15" d="M8301 30499l-1278 5953c-199,930 272,1877 1134,2281l5518 2573c37,-137 29,-285 -39,-422l-5022 -10100c-68,-137 -181,-232 -313,-285z"/>
   </g>
   <g>
    <path class="fil16" d="M14971 29221l-786 3282c-44,182 69,365 250,408l6322 1514c182,43 365,-69 409,-251l785 -3282c23,-96 2,-193 -49,-270 -47,-67 -115,-118 -201,-138l-6322 -1513c-86,-21 -170,-6 -242,32 -80,45 -143,122 -166,218z"/>
    <path class="fil17" d="M15137 29003l2159 2766c338,432 931,574 1428,342l3178 -1489c-47,-67 -116,-118 -201,-138l-6322 -1514c-86,-20 -170,-5 -242,33z"/>
   </g>
   <path class="fil18" d="M8532 70641c-1717,56 -3094,1465 -3103,3210l-28 0c-14,-1745 -1390,-3154 -3102,-3210 1721,-56 3102,-1479 3102,-3233l23 0c0,1754 1381,3177 3108,3233z"/>
   <path class="fil19" d="M61920 21964c-731,24 -1316,623 -1320,1365l-12 0c-6,-742 -591,-1341 -1320,-1365 733,-24 1320,-629 1320,-1376l10 0c0,747 587,1352 1322,1376z"/>
   <path class="fil19" d="M29426 65122c-532,17 -959,454 -962,994l-8 0c-5,-540 -431,-977 -961,-994 533,-17 961,-458 961,-1002l7 0c0,544 428,985 963,1002z"/>
   <path class="fil20" d="M80782 14514c-365,12 -658,311 -660,682l-6 0c-3,-371 -296,-670 -660,-682 366,-12 660,-315 660,-688l5 0c0,373 294,676 661,688z"/>
   <g>
    <path class="fil21" d="M41261 55429c0,-2568 2852,-4824 7153,-6112 2405,-720 5262,-1137 8328,-1137 8549,0 15480,3246 15480,7249 0,4004 -6931,7250 -15480,7250 -3066,0 -5923,-418 -8328,-1138 -4301,-1287 -7153,-3544 -7153,-6112z"/>
    <path class="fil22" d="M65347 54270c0,63 -3,126 -10,187 -222,2055 -4067,3691 -8778,3691 -1745,0 -3372,-224 -4740,-612 -2370,-671 -3963,-1832 -4045,-3158l0 -8c-1,-33 -3,-67 -3,-100 0,-34 2,-67 3,-100 22,-400 183,-785 460,-1146 159,-206 356,-405 590,-594 1484,-1214 4392,-2038 7735,-2038 3867,0 7151,1102 8325,2632 301,392 463,810 463,1246z"/>
    <polygon class="fil22" points="65347,53024 65347,54457 65337,54457 50388,54389 47774,54377 47774,53024 "/>
    <path class="fil23" d="M51819 56181l0 1355c-2370,-671 -3963,-1832 -4045,-3159l0 -7c-1,-33 -3,-67 -3,-100 0,-34 2,-67 3,-100l0 -1146 460 0c159,-206 356,-405 590,-594l473 594 1091 1365 1431 1792z"/>
    <path class="fil24" d="M65347 52916c0,2142 -3934,3878 -8788,3878 -1745,0 -3372,-225 -4740,-613 -2435,-688 -4048,-1893 -4048,-3265 0,-431 160,-847 455,-1235 1169,-1535 4458,-2642 8333,-2642 4854,0 8788,1736 8788,3877z"/>
    <path class="fil25" d="M52724 56197c4574,0 8284,-1099 8284,-2455 0,-1356 -3710,-2455 -8284,-2455 -1658,0 -3203,144 -4498,394 -295,388 -455,804 -455,1235 0,1372 1613,2577 4048,3265 296,11 598,16 905,16z"/>
    <path class="fil26" d="M62030 43266c-961,1030 -910,3227 -897,4884 2,140 2,276 2,408 0,1685 130,4794 -4394,4794 -4522,0 -4137,-3849 -4137,-5389 0,-172 0,-349 2,-526 5,-1404 -3,-2907 -530,-3674l5468 -3818c0,0 5529,2205 4486,3321z"/>
    <path class="fil27" d="M52606 47436c5,-1404 -3,-2906 -530,-3673 0,0 2280,1668 4314,1498 1955,-164 -1681,2494 -3784,2175z"/>
    <path class="fil28" d="M56742 24128l0 0c-210,0 -382,171 -382,381l0 3065c0,210 172,382 382,382l0 0c210,0 382,-172 382,-382l0 -3065c0,-210 -172,-381 -382,-381z"/>
    <path class="fil28" d="M50093 25909l0 0c-182,105 -245,340 -140,522l1532 2654c105,182 340,244 522,139l0 0c182,-105 244,-339 139,-521l-1532 -2654c-105,-182 -340,-245 -521,-140z"/>
    <path class="fil28" d="M45225 30777l0 0c-105,182 -42,416 140,521l2654 1533c182,104 416,42 521,-140l0 0c105,-182 42,-417 -139,-522l-2654 -1532c-182,-105 -417,-42 -522,140z"/>
    <path class="fil28" d="M43444 37426l0 0c0,210 171,382 381,382l3065 0c210,0 382,-172 382,-382l0 0c0,-210 -172,-382 -382,-382l-3065 0c-210,0 -381,172 -381,382z"/>
    <path class="fil28" d="M45225 44075l0 0c105,182 340,245 522,140l2654 -1533c181,-105 244,-339 139,-521l0 0c-105,-182 -339,-245 -521,-140l-2654 1533c-182,105 -245,339 -140,521z"/>
    <path class="fil28" d="M68258 44075l0 0c105,-182 42,-417 -139,-521l-2654 -1533c-182,-105 -417,-42 -522,140l0 0c-105,182 -42,416 140,521l2654 1533c182,105 416,42 521,-140z"/>
    <path class="fil28" d="M70040 37426l0 0c0,-210 -172,-382 -382,-382l-3064 0c-210,0 -382,172 -382,382l0 0c0,210 172,382 382,382l3064 0c210,0 382,-172 382,-382z"/>
    <path class="fil28" d="M68258 30777l0 0c-105,-182 -339,-245 -521,-140l-2654 1532c-182,105 -245,340 -140,522l0 0c105,182 340,244 522,140l2654 -1533c181,-105 244,-339 139,-521z"/>
    <path class="fil28" d="M63391 25909l0 0c-182,-105 -417,-42 -522,140l-1532 2654c-105,182 -42,416 140,521l0 0c182,105 416,43 521,-139l1533 -2654c105,-182 42,-417 -140,-522z"/>
    <path class="fil29" d="M56742 29297c4410,0 7986,3575 7986,7986 0,4411 -3576,7986 -7986,7986 -4411,0 -7986,-3575 -7986,-7986 0,-4411 3575,-7986 7986,-7986z"/>
    <path class="fil30" d="M58256 39555l0 1514 -6058 0 0 -1514 6058 0zm-6058 -4544l0 -1514c3029,0 6058,0 9087,0l-1514 1514c-2524,0 -5049,0 -7573,0zm9087 1515c0,1514 0,3029 0,4543l-1514 0 0 -3029 0 0 -7573 0 0 -1514c3029,0 6058,0 9087,0z"/>
    <path class="fil31" d="M58734 42331c-86,0 -192,150 -283,279 -39,55 -75,108 -110,147l0 0c-11,13 -23,25 -35,36 -62,53 -137,79 -212,79 -75,0 -150,-27 -211,-80 -12,-10 -24,-22 -35,-35l0 0c-35,-39 -71,-91 -110,-147 -91,-129 -197,-279 -283,-279 -86,0 -191,150 -283,279 -39,55 -75,108 -110,147l0 0c-11,13 -23,25 -35,36 -61,53 -136,79 -211,79 -75,0 -150,-26 -211,-79 -13,-11 -25,-23 -36,-36 -36,-41 -72,-92 -110,-147 -91,-129 -197,-279 -282,-279 -87,0 -193,151 -284,281 -38,53 -74,104 -109,145 -11,13 -23,25 -35,35 -62,54 -137,80 -212,80 -75,0 -150,-26 -211,-80 -13,-10 -25,-22 -36,-35 -35,-41 -71,-92 -109,-146 -91,-129 -197,-280 -283,-280 -151,0 -293,129 -403,313 -131,219 -213,510 -213,768l959 7176 3149 0 960 -7176c-1,-258 -83,-549 -213,-768 -110,-184 -253,-313 -403,-313zm-410 189c112,-160 243,-346 410,-346 212,0 400,161 537,390 144,243 235,566 235,851l-1 10 -970 7251 -9 68 -68 0 -3285 0 -68 0 -9 -68 -970 -7251 -1 -10c0,-285 91,-608 236,-851 137,-229 325,-390 537,-390 167,0 298,187 411,347 36,52 70,100 99,134 6,7 13,14 20,19 32,28 70,42 109,42 39,0 78,-14 110,-42 6,-5 13,-12 19,-19 29,-33 63,-82 99,-133 113,-161 245,-348 412,-348 166,0 297,186 410,347 36,51 71,100 100,134 6,7 13,14 20,20 32,27 71,41 109,41 38,0 77,-14 109,-41 6,-6 13,-13 19,-20l0 0c31,-36 65,-84 101,-135 113,-160 243,-346 410,-346 166,0 298,186 411,347 35,51 69,99 100,134l0 0c6,7 13,14 19,20 32,27 71,41 109,41 39,0 77,-14 110,-41 6,-6 13,-13 19,-20l0 0c31,-36 65,-84 101,-135z"/>
    <path class="fil22" d="M59973 51221c0,1743 -854,2987 -3157,2987 -2303,0 -3157,-1244 -3157,-2987 0,-2449 6314,-2449 6314,0z"/>
    <path class="fil32" d="M61082 50031c-27,247 -69,498 -134,745 -351,1338 -1351,2576 -4207,2576 -2573,0 -3556,-1244 -3927,-2602 -68,-247 -116,-499 -148,-748 -102,-783 -62,-1535 -62,-2039 2742,893 5584,956 8529,187 2,140 2,276 2,408 0,424 9,940 -53,1473z"/>
    <path class="fil22" d="M61082 50031c-27,247 -69,498 -134,745 -1321,349 -2656,525 -3999,525 -1373,0 -2753,-183 -4135,-551 -68,-247 -116,-499 -148,-748 2830,813 5655,822 8416,29z"/>
    <path class="fil33" d="M59771 35011l1514 -1514 -2996 0c-186,458 -238,986 -129,1514l1611 0z"/>
    <path class="fil33" d="M61285 36526l-2241 0c617,528 1446,732 2217,464 8,-3 16,-6 24,-9l0 -455z"/>
    <path class="fil34" d="M55449 35011l2711 0c-109,-528 -57,-1056 129,-1514l-2659 0c-147,477 -211,990 -181,1514z"/>
    <path class="fil34" d="M59044 36526l-3242 0c250,593 611,1105 1046,1514l2923 0 0 1091c300,-22 601,-83 897,-186 218,-76 424,-172 617,-285l0 -1679c-8,3 -16,6 -24,9 -771,268 -1600,64 -2217,-464z"/>
    <path class="fil35" d="M61285 36981c1184,-428 1774,-1824 1319,-3132 -459,-1317 -1804,-2046 -3004,-1628 -615,214 -1072,688 -1311,1276l2996 0 -1514 1514 -1611 0c24,117 57,235 97,351 164,472 443,869 787,1164l2241 0 0 455z"/>
    <path class="fil33" d="M59044 36526c-344,-295 -623,-692 -787,-1164 -40,-116 -73,-234 -97,-351l-2711 0c23,410 104,827 247,1239 33,94 68,186 106,276l3242 0z"/>
    <path class="fil33" d="M59771 38040l-2923 0c805,760 1862,1168 2923,1091l0 -1091z"/>
    <path class="fil33" d="M61285 36981l0 1679c1567,-916 2282,-2974 1607,-4915 -759,-2180 -2985,-3387 -4972,-2695 -1133,394 -1943,1320 -2290,2447l2659 0c239,-588 696,-1062 1311,-1276 1200,-418 2545,311 3004,1628 455,1308 -135,2704 -1319,3132z"/>
   </g>
   <g>
    <path class="fil5" d="M33321 45325l-14479 19862c-244,335 -713,408 -1048,165l-11107 -8097c-334,-244 -408,-714 -164,-1048l14480 -19862c244,-335 714,-411 1049,-167l11107 8097c334,244 406,715 162,1050z"/>
    <path class="fil36" d="M33821 45689l-14479 19862c-244,335 -713,409 -1048,165l-11107 -8097c-334,-244 -408,-713 -164,-1048l14479 -19862c244,-335 715,-410 1050,-166l11107 8096c334,244 406,715 162,1050z"/>
    <path class="fil37" d="M32082 45715l-5501 7544 -2 3 -4487 6159 -1 3 -2042 2796 -480 660c-130,181 -387,222 -567,89l-5305 -3869 -4110 -2995c-183,-132 -221,-387 -91,-568l5341 -7328 7173 -9837c126,-173 365,-220 546,-104 8,5 16,10 22,17l1604 1170 3570 2604 4239 3089c184,131 224,388 91,567z"/>
    <path class="fil38" d="M13121 61146l0 0c-315,-229 -384,-671 -155,-986 230,-315 671,-384 986,-154 315,229 384,671 154,986 -229,314 -670,384 -985,154z"/>
    <path class="fil38" d="M23455 38419l0 0c-127,-93 -156,-273 -62,-401 93,-127 272,-155 400,-62 128,93 156,272 63,400 -93,128 -273,156 -401,63z"/>
    <path class="fil5" d="M20245 57682l-274 -200 868 -1189c407,-559 572,-1243 465,-1926l-310 -1983c-99,-629 332,-1220 960,-1318l1984 -311c683,-107 1283,-474 1691,-1033l867 -1190 273 200 -867 1190c-461,631 -1140,1046 -1912,1167l-1983 311c-444,69 -749,488 -679,931l310 1984c122,772 -65,1545 -526,2177l-867 1190z"/>
    <path class="fil5" d="M14512 53503l-273 -199 868 -1190c460,-632 1139,-1046 1911,-1167l1984 -311c444,-70 748,-488 679,-932l-311 -1983c-121,-772 66,-1546 526,-2177l868 -1190 273 199 -868 1190c-407,559 -572,1243 -465,1926l311 1983c98,628 -333,1219 -961,1318l-1983 311c-683,107 -1284,473 -1691,1032l-868 1190z"/>
    <path class="fil11" d="M26708 49083c-35,-10 -68,-27 -100,-50l-6082 -4434c-151,-110 -184,-322 -74,-473 110,-150 320,-183 473,-74l6082 4434c151,111 184,322 74,473 -87,120 -239,166 -373,124z"/>
    <path class="fil11" d="M20184 58033c-35,-11 -69,-27 -100,-50l-6083 -4434c-151,-110 -184,-322 -74,-473 110,-151 321,-184 473,-74l6082 4434c151,111 185,322 75,473 -88,120 -239,166 -373,124z"/>
    <path class="fil7" d="M20439 47174l468 2987c22,138 151,233 289,211l2987 -468c223,-35 292,-322 110,-455l-3455 -2518c-183,-133 -434,20 -399,243z"/>
    <path class="fil39" d="M17139 53782l1274 -199c138,-22 268,73 289,211l200 1273c34,223 -217,377 -399,244l-1474 -1074c-182,-133 -112,-420 110,-455z"/>
    <path class="fil39" d="M19318 53111c-89,123 -261,150 -384,60 -123,-89 -149,-261 -60,-383 89,-123 261,-150 384,-61 123,89 150,262 60,384z"/>
    <path class="fil39" d="M20027 52139c-90,123 -262,150 -384,61 -123,-90 -150,-262 -61,-384 90,-123 262,-150 385,-61 122,90 149,262 60,384z"/>
    <path class="fil39" d="M20735 51167c-89,123 -261,150 -384,60 -123,-89 -149,-261 -60,-383 89,-123 261,-150 384,-61 123,90 149,261 60,384z"/>
    <path class="fil40" d="M23423 46711l2873 2095 274 199 38 28c32,23 65,40 100,50 109,34 228,10 316,-63l49 -470c-18,-23 -40,-45 -66,-64l-3503 -2553 -81 778z"/>
    <path class="fil41" d="M23218 48666l-148 1412 1113 -174c223,-35 292,-322 110,-455l-1075 -783z"/>
    <path class="fil42" d="M22947 51252l1043 -163c772,-121 1451,-536 1912,-1167l668 -917 -274 -199 -667 916c-408,559 -1008,926 -1691,1033l-954 149 -37 348z"/>
    <path class="fil43" d="M23504 45933l3503 2553c26,19 48,41 66,64l679 -6491 -3570 -2604 -678 6478z"/>
    <path class="fil44" d="M23218 48666l1075 783c182,133 113,420 -110,455l-1113 174 -86 826 954 -149c683,-107 1283,-474 1691,-1033l667 -916 -2873 -2095 -205 1955z"/>
    <path class="fil43" d="M23990 51089l-1043 163 -855 8169 4487 -6159 2 -3 443 -4239c-88,73 -207,97 -316,63 -35,-10 -68,-27 -100,-50l-38 -28 -668 917c-461,631 -1140,1046 -1912,1167z"/>
    <path class="fil41" d="M21291 50357l301 -2876 -754 -550c-183,-133 -434,20 -399,243l468 2987c22,138 151,233 289,211l95 -15z"/>
    <path class="fil40" d="M20171 57209l-5459 -3980 -274 -199 -38 -28c-19,-14 -40,-26 -61,-35l-24 233 -16 148 -40 389 5825 4246c31,23 65,39 100,50 106,33 222,11 310,-58l50 -481c-18,-21 -38,-40 -62,-58l-38 -28 -273 -199z"/>
    <path class="fil42" d="M17071 51281l1983 -311c628,-99 1059,-690 961,-1318l-311 -1983c-107,-683 58,-1367 465,-1926l669 -916 -274 -200 -668 917c-460,631 -647,1405 -526,2177l311 1983c69,444 -235,862 -679,932l-1984 311c-772,121 -1451,535 -1911,1167l-669 916 274 199 668 -916c407,-559 1008,-925 1691,-1032z"/>
    <path class="fil43" d="M17018 50947l1984 -311c444,-70 748,-488 679,-932l-311 -1983c-121,-772 66,-1546 526,-2177l668 -917 -38 -28c-151,-110 -184,-321 -74,-473 110,-150 320,-183 473,-74l953 696 678 -6479c-181,-117 -421,-70 -546,103l-7173 9837 -498 4758c21,9 42,21 61,35l38 28 669 -916c460,-632 1139,-1046 1911,-1167z"/>
    <path class="fil43" d="M20084 57983l-5825 -4246 -562 5363 5306 3869c179,133 436,92 566,-89l480 -660 445 -4245c-88,69 -204,91 -310,58 -35,-11 -69,-27 -100,-50z"/>
    <path class="fil44" d="M18902 55067c34,223 -217,377 -399,244l-1474 -1074c-182,-133 -112,-420 110,-455l1274 -199c138,-22 268,73 289,211l200 1273zm-4190 -1838l5459 3980 470 -646 404 -3853 -51 -326c-46,-290 21,-572 169,-802l128 -1225 -95 15c-138,22 -267,-73 -289,-211l-468 -2987c-35,-223 216,-376 399,-243l754 550 205 -1955 -959 -699 -669 916c-407,559 -572,1243 -465,1926l311 1983c98,628 -333,1219 -961,1318l-1983 311c-683,107 -1284,473 -1691,1032l-668 916zm4606 -118c-89,123 -261,150 -384,60 -123,-89 -149,-261 -60,-383 89,-123 261,-150 384,-61 123,89 150,262 60,384zm1417 -1944c-89,123 -261,150 -384,60 -123,-89 -149,-261 -60,-383 89,-123 261,-150 384,-61 123,90 149,261 60,384zm-708 972c-90,123 -262,150 -384,61 -123,-90 -150,-262 -61,-384 90,-123 262,-150 385,-61 122,90 149,262 60,384z"/>
   </g>
  </g>
 </g>
</svg>
