<?xml version="1.0" encoding="UTF-8"?>
<!DOCTYPE svg PUBLIC "-//W3C//DTD SVG 1.1//EN" "http://www.w3.org/Graphics/SVG/1.1/DTD/svg11.dtd">
<!-- Creator: CorelDRAW X7 -->
<svg xmlns="http://www.w3.org/2000/svg" xml:space="preserve" width="100%" height="100%" version="1.1" style="shape-rendering:geometricPrecision; text-rendering:geometricPrecision; image-rendering:optimizeQuality; fill-rule:evenodd; clip-rule:evenodd"
viewBox="0 0 2600 2600"
 xmlns:xlink="http://www.w3.org/1999/xlink">
 <defs>
  <style type="text/css">
   <![CDATA[
    .fil1 {fill:none}
    .fil0 {fill:black}
   ]]>
  </style>
 </defs>
 <g id="Layer_x0020_1">
  <metadata id="CorelCorpID_0Corel-Layer"/>
  <g id="_2385114111920">
   <path class="fil0" d="M2288 1486c-100,100 -238,162 -390,163l-2 0 -3 0 -568 0 -1177 0 0 -56 1177 0 572 0c137,-1 261,-57 352,-147 90,-91 147,-217 147,-356 0,-138 -57,-264 -147,-355 -91,-91 -217,-147 -356,-147 -138,0 -264,56 -355,147 -91,91 -147,217 -147,355l-56 0c0,-154 62,-294 163,-395 101,-101 241,-163 395,-163 155,0 294,62 395,163 102,101 164,241 164,395 0,155 -62,294 -164,396zm-365 220l-1775 0 0 56 1775 0c35,0 66,14 88,37 23,22 37,54 37,88 0,35 -14,66 -36,88l-1 0c-22,23 -53,37 -88,37 -34,0 -66,-14 -88,-37l-40 40c33,33 78,53 128,53 50,0 95,-20 128,-53l0 0 0 0c33,-33 53,-78 53,-128 0,-50 -20,-95 -53,-128 -32,-33 -78,-53 -128,-53zm246 -340c-73,72 -170,114 -272,114l-572 0 -838 0 0 -57 1410 0c87,0 170,-35 232,-97 62,-63 97,-147 97,-236 0,-88 -35,-172 -97,-235 -63,-63 -147,-97 -236,-97l0 -57c104,0 202,41 276,114 73,73 114,172 114,275 0,104 -41,202 -114,276z"/>
   <rect class="fil1" width="2600" height="2600"/>
  </g>
 </g>
</svg>
