<?xml version="1.0" encoding="UTF-8"?>
<!DOCTYPE svg PUBLIC "-//W3C//DTD SVG 1.1//EN" "http://www.w3.org/Graphics/SVG/1.1/DTD/svg11.dtd">
<!-- Creator: CorelDRAW X7 -->
<svg xmlns="http://www.w3.org/2000/svg" xml:space="preserve" width="100%" height="100%" version="1.1" style="shape-rendering:geometricPrecision; text-rendering:geometricPrecision; image-rendering:optimizeQuality; fill-rule:evenodd; clip-rule:evenodd"
viewBox="0 0 2600 2600"
 xmlns:xlink="http://www.w3.org/1999/xlink">
 <defs>
  <style type="text/css">
   <![CDATA[
    .fil1 {fill:none}
    .fil0 {fill:black}
   ]]>
  </style>
 </defs>
 <g id="Layer_x0020_1">
  <metadata id="CorelCorpID_0Corel-Layer"/>
  <g id="_2385224835904">
   <path class="fil0" d="M1866 1928c-20,-9 -41,-19 -60,-30 -56,-31 -107,-70 -152,-115 -123,-123 -200,-294 -200,-483 0,-189 77,-360 200,-483 45,-45 96,-84 152,-115 19,-11 40,-21 60,-30 -19,-12 -39,-23 -60,-34 -100,-50 -213,-78 -332,-78 -409,0 -740,331 -740,740 0,409 331,740 740,740 119,0 232,-28 332,-78 21,-11 41,-22 60,-34zm-694 -603c0,-51 -41,-93 -93,-93 -51,0 -93,42 -93,93 0,52 42,93 93,93 52,0 93,-41 93,-93zm-67 -26l0 0zm-51 52l0 0zm25 -62c11,0 20,4 26,10 7,7 11,16 11,26 0,10 -4,19 -11,26 -6,7 -15,11 -26,11 -10,0 -19,-4 -25,-11 -7,-7 -11,-16 -11,-26 0,-10 4,-19 10,-26l1 0c6,-6 15,-10 25,-10zm144 -123c78,0 141,-63 141,-141 0,-78 -63,-141 -141,-141 -78,0 -141,63 -141,141 0,78 63,141 141,141zm60 -81l0 0zm-120 0l0 0zm145 -60c0,23 -10,44 -25,60 -15,15 -36,24 -60,24 -23,0 -44,-9 -60,-24 -15,-16 -24,-37 -24,-60 0,-24 9,-45 24,-60 15,-15 37,-25 60,-25 24,0 45,10 60,25l0 0c15,15 25,36 25,60zm437 -353c-209,131 -347,363 -347,628 0,265 138,497 347,628 -83,36 -175,56 -271,56 -189,0 -360,-77 -484,-201 -123,-123 -200,-294 -200,-483 0,-189 77,-360 200,-483 124,-124 295,-201 484,-201 96,0 188,20 271,56z"/>
   <rect class="fil1" width="2600" height="2600"/>
  </g>
 </g>
</svg>
