<?xml version="1.0" encoding="UTF-8"?>
<!DOCTYPE svg PUBLIC "-//W3C//DTD SVG 1.1//EN" "http://www.w3.org/Graphics/SVG/1.1/DTD/svg11.dtd">
<!-- Creator: CorelDRAW X7 -->
<svg xmlns="http://www.w3.org/2000/svg" xml:space="preserve" width="100%" height="100%" version="1.1" style="shape-rendering:geometricPrecision; text-rendering:geometricPrecision; image-rendering:optimizeQuality; fill-rule:evenodd; clip-rule:evenodd"
viewBox="0 0 2600 2600"
 xmlns:xlink="http://www.w3.org/1999/xlink">
 <defs>
  <style type="text/css">
   <![CDATA[
    .fil0 {fill:none}
    .fil1 {fill:black}
   ]]>
  </style>
 </defs>
 <g id="Layer_x0020_1">
  <metadata id="CorelCorpID_0Corel-Layer"/>
  <g id="_2385240846544">
   <rect class="fil0" width="2600" height="2600"/>
   <path class="fil1" d="M443 1960c0,51 -42,93 -93,93 -52,0 -93,-42 -93,-93 0,-51 41,-93 93,-93 51,0 93,42 93,93zm-10 -1013l0 0 0 0 0 3 0 4 0 23 -22 5c-84,19 -158,66 -210,131 -51,64 -81,144 -81,232 0,103 41,196 109,264 67,67 160,109 263,109l368 0 556 0 218 0c81,0 154,-33 206,-86 53,-53 86,-126 86,-206 0,-62 -19,-120 -52,-167 -34,-49 -82,-86 -138,-107l-20 -8 1 -21c0,-4 1,-7 1,-9l0 0c0,-1 0,-4 0,-9 0,-74 -30,-141 -79,-190 -49,-49 -116,-79 -190,-79 -24,0 -47,3 -68,9 -22,5 -44,14 -63,25l-33 19 -9 -37c-21,-96 -76,-180 -150,-239 -73,-58 -165,-93 -266,-93 -118,0 -225,48 -302,125 -77,77 -125,184 -125,302zm349 1097c0,51 -42,93 -93,93 -52,0 -93,-42 -93,-93 0,-52 41,-93 93,-93 51,0 93,41 93,93zm339 -84c0,51 -42,93 -93,93 -52,0 -93,-42 -93,-93 0,-51 41,-93 93,-93 51,0 93,42 93,93zm339 84c0,51 -42,93 -93,93 -52,0 -93,-42 -93,-93 0,-52 41,-93 93,-93 51,0 93,41 93,93zm339 -84c0,51 -42,93 -93,93 -52,0 -93,-42 -93,-93 0,-51 41,-93 93,-93 51,0 93,42 93,93zm24 -1302c226,-61 459,74 519,300 61,225 -73,458 -299,518 -22,6 -44,10 -66,13 -13,70 -48,134 -97,183 -63,63 -150,102 -246,102l-218 0 -556 0 -368 0c-119,0 -226,-48 -303,-125 -78,-78 -126,-185 -126,-304 0,-101 35,-194 94,-267 56,-69 132,-121 220,-145 3,-128 57,-244 141,-328 87,-88 208,-142 342,-142 114,0 218,40 301,106 75,60 132,142 161,236 14,-6 29,-11 45,-15 26,-7 54,-10 82,-10 52,0 101,12 145,34 55,-74 134,-130 229,-156zm-322 17l15 15 15 15 8 8 15 15 7 7 40 -40 -8 -7 -15 -15 -7 -8 -15 -15 -15 -15 -40 40zm610 947l-6 -20 -5 -20 -3 -11 -5 -20 -3 -10 -54 14 2 10 6 21 2 10 6 21 5 20 55 -15zm254 -163l-15 -15 -15 -15 -8 -7 -15 -15 -7 -8 -40 40 7 7 15 15 8 8 15 15 15 15 40 -40zm138 -268l-20 -6 -21 -5 -10 -3 -21 -6 -10 -2 -15 54 11 3 20 5 10 3 21 6 20 5 15 -54zm-15 -302l-20 6 -21 5 -10 3 -20 5 -11 3 15 54 10 -2 21 -6 10 -2 20 -6 21 -5 -15 -55zm-163 -254l-15 15 -15 15 -8 8 -15 15 -7 7 40 40 7 -7 15 -15 8 -8 15 -15 15 -15 -40 -40zm-268 -138l-6 20 -5 21 -3 10 -6 21 -2 10 54 15 3 -11 5 -20 3 -10 6 -21 5 -20 -54 -15zm-302 15l5 20 6 21 3 10 5 20 3 11 54 -15 -2 -10 -6 -21 -3 -10 -5 -20 -6 -21 -54 15zm227 919c16,-2 31,-5 46,-9 98,-26 176,-90 223,-171l0 0c47,-82 63,-181 37,-279 -27,-98 -90,-176 -171,-223l0 0c-82,-47 -181,-63 -279,-37 -81,22 -149,69 -196,131 13,10 25,20 37,32 59,59 95,140 95,230l0 2c59,26 110,67 146,120 39,56 62,125 62,199l0 5zm-302 503l0 0zm52 52l0 0zm10 -26c0,-10 -4,-19 -10,-26 -7,-6 -16,-10 -26,-10 -10,0 -20,4 -26,10 -7,7 -11,16 -11,26 0,10 4,19 11,26l0 0c6,7 16,11 26,11 10,0 19,-5 26,-11 6,-7 10,-16 10,-26zm-401 58l0 0zm52 52l0 0zm10 -26c0,-10 -4,-19 -10,-26 -7,-7 -16,-11 -26,-11 -10,0 -20,4 -26,11 -7,7 -11,16 -11,26 0,10 4,19 11,26l0 0c6,6 16,10 26,10 10,0 19,-4 26,-10 6,-7 10,-16 10,-26zm-401 -110l0 0zm52 52l0 0zm10 -26c0,-10 -4,-19 -10,-26 -7,-6 -16,-10 -26,-10 -10,0 -20,4 -26,10 -7,7 -11,16 -11,26 0,10 4,19 11,26l0 0c6,7 15,11 26,11 10,0 19,-5 26,-11 6,-7 10,-16 10,-26zm-401 58l0 0zm51 52l0 0zm11 -26c0,-10 -4,-19 -11,-26 -6,-7 -15,-11 -25,-11 -11,0 -20,4 -26,11 -7,7 -11,16 -11,26 0,10 4,19 11,26l0 0c6,6 15,10 26,10 10,0 19,-4 26,-10 6,-7 10,-16 10,-26zm-401 -110l0 0zm51 52l0 0zm11 -26c0,-10 -4,-19 -11,-26 -6,-6 -15,-10 -25,-10 -11,0 -20,4 -26,10 -7,7 -11,16 -11,26 0,10 4,19 11,26l0 0c6,7 15,11 26,11 10,0 19,-5 25,-11 7,-7 11,-16 11,-26z"/>
  </g>
 </g>
</svg>
