<?xml version="1.0" encoding="UTF-8"?>
<!DOCTYPE svg PUBLIC "-//W3C//DTD SVG 1.1//EN" "http://www.w3.org/Graphics/SVG/1.1/DTD/svg11.dtd">
<!-- Creator: CorelDRAW X7 -->
<svg xmlns="http://www.w3.org/2000/svg" xml:space="preserve" width="100%" height="100%" version="1.1" style="shape-rendering:geometricPrecision; text-rendering:geometricPrecision; image-rendering:optimizeQuality; fill-rule:evenodd; clip-rule:evenodd"
viewBox="0 0 2600 2600"
 xmlns:xlink="http://www.w3.org/1999/xlink">
 <defs>
  <style type="text/css">
   <![CDATA[
    .fil0 {fill:none}
    .fil1 {fill:black}
   ]]>
  </style>
 </defs>
 <g id="Layer_x0020_1">
  <metadata id="CorelCorpID_0Corel-Layer"/>
  <g id="_2385216872048">
   <rect class="fil0" width="2600" height="2600"/>
   <path class="fil1" d="M433 947l0 0zm10 1013c0,51 -42,93 -93,93 -52,0 -93,-42 -93,-93 0,-51 41,-93 93,-93 51,0 93,42 93,93zm1263 93c-52,0 -93,-42 -93,-93 0,-51 41,-93 93,-93 51,0 93,42 93,93 0,51 -42,93 -93,93zm-37 -93c0,48 73,48 73,0 0,-48 -73,-48 -73,0zm-266 84c0,-48 -73,-48 -73,0 0,48 73,48 73,0zm-129 0c0,-52 41,-93 93,-93 51,0 93,41 93,93 0,51 -42,93 -93,93 -52,0 -93,-42 -93,-93zm-339 -84c0,-51 41,-93 93,-93 51,0 93,42 93,93 0,51 -42,93 -93,93 -52,0 -93,-42 -93,-93zm129 0c0,-48 -73,-48 -73,0 0,48 73,48 73,0zm-468 84c0,-52 41,-93 93,-93 51,0 93,41 93,93 0,51 -42,93 -93,93 -52,0 -93,-42 -93,-93zm129 0c0,-48 -73,-48 -73,0 0,48 73,48 73,0zm-412 -84c0,48 73,48 73,0 0,-48 -73,-48 -73,0zm882 -609c0,140 114,254 254,254l415 0c-7,9 -15,18 -24,27 -52,53 -125,86 -206,86l-218 0 -556 0 -368 0c-103,0 -196,-42 -263,-109 -68,-68 -109,-161 -109,-264 0,-88 30,-168 81,-232 52,-65 126,-112 210,-131l22 -5 0 -23 0 -4 0 -3c0,-118 48,-225 125,-302 77,-77 184,-125 302,-125 101,0 193,35 266,93 74,59 129,143 150,239l9 37 33 -19c19,-11 41,-20 63,-25 21,-6 44,-9 68,-9 48,0 94,13 133,35 -67,56 -114,136 -128,226l-5 0c-140,0 -254,114 -254,254zm-1132 -6c0,119 48,226 126,304 77,77 184,125 303,125l368 0 556 0 218 0c96,0 183,-39 246,-102 20,-20 38,-43 53,-67l350 0c60,0 116,-21 159,-56 58,-47 95,-118 95,-198 0,-140 -114,-254 -254,-254 -36,0 -70,7 -101,21 -18,-186 -175,-332 -366,-332 -67,0 -130,19 -184,50 -52,-35 -115,-56 -183,-56 -28,0 -56,3 -82,10 -16,4 -31,9 -45,15 -29,-94 -86,-176 -161,-236 -83,-66 -187,-106 -301,-106 -134,0 -255,54 -342,142 -84,84 -138,200 -141,328 -88,24 -164,76 -220,145 -59,73 -94,166 -94,267zm2220 204l-834 0c-109,0 -197,-89 -197,-198 0,-109 88,-198 197,-198l43 0 14 0c0,-171 139,-310 310,-310 171,0 309,138 311,307 -60,47 -98,120 -98,201l56 0c0,-109 89,-198 198,-198 109,0 197,89 197,198 0,109 -88,198 -197,198z"/>
  </g>
 </g>
</svg>
