<?xml version="1.0" encoding="UTF-8"?>
<!DOCTYPE svg PUBLIC "-//W3C//DTD SVG 1.1//EN" "http://www.w3.org/Graphics/SVG/1.1/DTD/svg11.dtd">
<!-- Creator: CorelDRAW X7 -->
<svg xmlns="http://www.w3.org/2000/svg" xml:space="preserve" width="100%" height="100%" version="1.1" style="shape-rendering:geometricPrecision; text-rendering:geometricPrecision; image-rendering:optimizeQuality; fill-rule:evenodd; clip-rule:evenodd"
viewBox="0 0 2600 2600"
 xmlns:xlink="http://www.w3.org/1999/xlink">
 <defs>
  <style type="text/css">
   <![CDATA[
    .fil0 {fill:none}
    .fil1 {fill:black}
   ]]>
  </style>
 </defs>
 <g id="Layer_x0020_1">
  <metadata id="CorelCorpID_0Corel-Layer"/>
  <g id="_2385360715712">
   <rect class="fil0" width="2600" height="2600"/>
   <path class="fil1" d="M2523 1113c-53,248 -273,433 -536,433 -9,0 -18,0 -26,-1 -18,48 -46,91 -81,127 -63,63 -150,102 -247,102l-217 0 -556 0 -369 0c-118,0 -225,-48 -303,-126 -77,-77 -125,-184 -125,-303 0,-101 35,-194 94,-267 55,-69 131,-121 219,-145 4,-128 57,-244 141,-328 88,-88 209,-142 342,-142 114,0 219,40 302,106 75,60 132,142 161,236 14,-6 29,-11 44,-15 27,-7 54,-10 82,-10 12,0 23,0 35,1 68,-158 209,-278 380,-318 -8,37 -12,76 -12,116 0,302 246,548 549,548 42,0 83,-5 123,-14zm-547 377c4,0 7,0 11,0 117,0 224,-41 309,-109 64,-53 116,-121 147,-199 -14,1 -29,1 -43,1 -168,0 -319,-67 -428,-177 -110,-109 -177,-260 -177,-427 0,-12 0,-23 1,-35 -77,32 -144,84 -195,148 -24,31 -45,64 -62,101 54,15 101,44 139,82 59,59 96,140 96,230l0 1c59,26 109,68 146,121 39,56 62,125 62,198 0,22 -2,44 -6,65zm-103 -231c-33,-49 -82,-86 -138,-107l-20 -8 2 -21 0 -9 0 0 0 0c0,-1 0,-4 0,-9 0,-74 -30,-141 -78,-190 -49,-49 -116,-79 -191,-79 -23,0 -46,3 -68,9 -22,5 -43,14 -63,25l-33 19 -8 -37c-22,-96 -76,-180 -151,-239 -73,-59 -165,-93 -266,-93 -118,0 -224,47 -302,125 -77,77 -125,184 -125,302l0 0 0 3 0 4 1 23 -23 5c-84,19 -157,66 -209,131 -51,63 -82,144 -82,232 0,103 42,196 109,264 67,67 160,108 263,108l369 0 556 0 217 0c81,0 154,-32 207,-85 53,-53 85,-126 85,-207 0,-61 -19,-119 -52,-166zm-1641 878l210 -210 -40 -40 -210 210 40 40zm339 0l210 -210 -40 -40 -210 210 40 40zm339 0l210 -210 -40 -40 -209 210 39 40zm340 0l209 -210 -40 -40 -209 210 40 40zm508 -250l-209 210 40 40 209 -210 -40 -40z"/>
  </g>
 </g>
</svg>
