<?xml version="1.0" encoding="UTF-8"?>
<!DOCTYPE svg PUBLIC "-//W3C//DTD SVG 1.1//EN" "http://www.w3.org/Graphics/SVG/1.1/DTD/svg11.dtd">
<!-- Creator: CorelDRAW X7 -->
<svg xmlns="http://www.w3.org/2000/svg" xml:space="preserve" width="100%" height="100%" version="1.1" style="shape-rendering:geometricPrecision; text-rendering:geometricPrecision; image-rendering:optimizeQuality; fill-rule:evenodd; clip-rule:evenodd"
viewBox="0 0 76072 76072"
 xmlns:xlink="http://www.w3.org/1999/xlink">
 <defs>
  <style type="text/css">
   <![CDATA[
    .fil3 {fill:none}
    .fil2 {fill:white}
    .fil1 {fill:#CA9C66;fill-rule:nonzero}
    .fil0 {fill:#D2AE6D;fill-rule:nonzero}
   ]]>
  </style>
 </defs>
 <g id="Layer_x0020_1">
  <metadata id="CorelCorpID_0Corel-Layer"/>
  <g id="_2023500175648">
   <g>
    <g>
     <path class="fil0" d="M0 38092c0,-20990 17102,-38092 38092,-38092 20989,0 37980,17102 37980,38092 0,20989 -16991,37980 -37980,37980 -20990,0 -38092,-16991 -38092,-37980z"/>
     <path class="fil1" d="M67410 13993c5442,6552 8662,14881 8662,24099 0,20989 -16991,37980 -37980,37980 -11772,0 -22211,-5331 -29208,-13660 0,0 28652,10995 46310,-6663 17657,-17657 12216,-41756 12216,-41756l0 0z"/>
    </g>
    <path class="fil2" d="M45144 48794l0 7171 -28687 0 0 -7171 28687 0zm-28687 -21516l0 -7171c14343,0 28687,0 43158,0l-7299 7171c-11911,0 -23949,0 -35859,0l0 0zm43158 7172c0,7172 0,14344 0,21515l-7299 0 0 -14343 0 0 -35859 0 0 -7172c14343,0 28687,0 43158,0l0 0z"/>
   </g>
   <rect class="fil3" width="76072" height="76072"/>
  </g>
 </g>
</svg>
