<?xml version="1.0" encoding="UTF-8"?>
<!DOCTYPE svg PUBLIC "-//W3C//DTD SVG 1.1//EN" "http://www.w3.org/Graphics/SVG/1.1/DTD/svg11.dtd">
<!-- Creator: CorelDRAW X7 -->
<svg xmlns="http://www.w3.org/2000/svg" xml:space="preserve" width="100%" height="100%" version="1.1" style="shape-rendering:geometricPrecision; text-rendering:geometricPrecision; image-rendering:optimizeQuality; fill-rule:evenodd; clip-rule:evenodd"
viewBox="0 0 1355 1806"
 xmlns:xlink="http://www.w3.org/1999/xlink">
 <defs>
  <style type="text/css">
   <![CDATA[
    .fil0 {fill:black}
   ]]>
  </style>
 </defs>
 <g id="Layer_x0020_1">
  <metadata id="CorelCorpID_0Corel-Layer"/>
  <path class="fil0" d="M0 412l0 1394 1355 0 0 -1806 -943 0 -412 412zm792 1154l0 -49 170 -259c12,-18 24,-34 35,-48l-186 0 0 -48 237 0 0 48 -185 281 -20 28 211 0 0 47 -262 0zm-24 -808l128 -405 47 0 135 405 -50 0 -38 -123 -140 0 -36 123 -46 0zm95 -166l113 0 -34 -112c-11,-35 -19,-63 -24,-84 -4,26 -10,52 -18,77l-37 119zm-468 43l0 835 -177 -178 -40 45 226 229 39 0 226 -229 -40 -43 -177 176 0 -835 -57 0zm0 -539l0 299 -299 0 299 -299zm903 1654l-1241 0 0 -1298 395 0 0 -395 846 0 0 1693z"/>
 </g>
</svg>
