<?xml version="1.0" encoding="UTF-8"?>
<!DOCTYPE svg PUBLIC "-//W3C//DTD SVG 1.1//EN" "http://www.w3.org/Graphics/SVG/1.1/DTD/svg11.dtd">
<!-- Creator: CorelDRAW X7 -->
<svg xmlns="http://www.w3.org/2000/svg" xml:space="preserve" width="100%" height="100%" version="1.1" style="shape-rendering:geometricPrecision; text-rendering:geometricPrecision; image-rendering:optimizeQuality; fill-rule:evenodd; clip-rule:evenodd"
viewBox="0 0 1038 1806"
 xmlns:xlink="http://www.w3.org/1999/xlink">
 <defs>
  <style type="text/css">
   <![CDATA[
    .fil0 {fill:black}
   ]]>
  </style>
 </defs>
 <g id="Layer_x0020_1">
  <metadata id="CorelCorpID_0Corel-Layer"/>
  <path class="fil0" d="M218 0l0 1710 -178 -178 -40 44 226 230 40 0 226 -230 -40 -42 -178 176 0 -1710 -56 0zm521 1806l0 -49 170 -259c12,-18 24,-35 35,-49l-186 0 0 -47 238 0 0 47 -186 281 -20 29 211 0 0 47 -262 0zm-10 -1402l127 -404 47 0 135 404 -50 0 -38 -122 -140 0 -35 122 -46 0zm94 -166l114 0 -35 -112c-11,-34 -19,-62 -24,-84 -4,26 -10,52 -18,78l-37 118z"/>
 </g>
</svg>
