<?xml version="1.0" encoding="UTF-8"?>
<!DOCTYPE svg PUBLIC "-//W3C//DTD SVG 1.1//EN" "http://www.w3.org/Graphics/SVG/1.1/DTD/svg11.dtd">
<!-- Creator: CorelDRAW X7 -->
<svg xmlns="http://www.w3.org/2000/svg" xml:space="preserve" width="100%" height="100%" version="1.1" style="shape-rendering:geometricPrecision; text-rendering:geometricPrecision; image-rendering:optimizeQuality; fill-rule:evenodd; clip-rule:evenodd"
viewBox="0 0 1355 1806"
 xmlns:xlink="http://www.w3.org/1999/xlink">
 <defs>
  <style type="text/css">
   <![CDATA[
    .fil0 {fill:black}
   ]]>
  </style>
 </defs>
 <g id="Layer_x0020_1">
  <metadata id="CorelCorpID_0Corel-Layer"/>
  <path class="fil0" d="M0 412l0 1394 1355 0 0 -1806 -943 0 -412 412zm1089 346l-72 0 -28 -92 -134 0 -27 92 -71 0 129 -405 71 0 132 405zm-122 -160l-46 -150 -45 150 91 0zm-178 968l0 -73 174 -262 -155 0 0 -69 242 0 0 64 -181 272 189 0 0 68 -269 0zm-394 -931l0 835 -177 -178 -40 45 226 229 39 0 226 -229 -40 -43 -177 176 0 -835 -57 0zm0 -539l0 299 -299 0 299 -299zm903 1654l-1241 0 0 -1298 395 0 0 -395 846 0 0 1693z"/>
 </g>
</svg>
