<?xml version="1.0" encoding="UTF-8"?>
<!DOCTYPE svg PUBLIC "-//W3C//DTD SVG 1.1//EN" "http://www.w3.org/Graphics/SVG/1.1/DTD/svg11.dtd">
<!-- Creator: CorelDRAW X7 -->
<svg xmlns="http://www.w3.org/2000/svg" xml:space="preserve" width="100%" height="100%" version="1.1" style="shape-rendering:geometricPrecision; text-rendering:geometricPrecision; image-rendering:optimizeQuality; fill-rule:evenodd; clip-rule:evenodd"
viewBox="0 0 1062 1806"
 xmlns:xlink="http://www.w3.org/1999/xlink">
 <defs>
  <style type="text/css">
   <![CDATA[
    .fil0 {fill:black}
   ]]>
  </style>
 </defs>
 <g id="Layer_x0020_1">
  <metadata id="CorelCorpID_0Corel-Layer"/>
  <path class="fil0" d="M218 0l0 1710 -178 -178 -40 44 226 230 40 0 226 -230 -40 -42 -178 176 0 -1710 -56 0zm516 1806l0 -74 174 -262 -154 0 0 -68 242 0 0 63 -181 273 188 0 0 68 -269 0zm328 -1402l-73 0 -28 -91 -133 0 -28 91 -71 0 129 -404 71 0 133 404zm-123 -160l-46 -150 -45 150 91 0z"/>
 </g>
</svg>
