<?xml version="1.0" encoding="UTF-8"?>
<!DOCTYPE svg PUBLIC "-//W3C//DTD SVG 1.1//EN" "http://www.w3.org/Graphics/SVG/1.1/DTD/svg11.dtd">
<!-- Creator: CorelDRAW X7 -->
<svg xmlns="http://www.w3.org/2000/svg" xml:space="preserve" width="100%" height="100%" version="1.1" style="shape-rendering:geometricPrecision; text-rendering:geometricPrecision; image-rendering:optimizeQuality; fill-rule:evenodd; clip-rule:evenodd"
viewBox="0 0 960 1806"
 xmlns:xlink="http://www.w3.org/1999/xlink">
 <defs>
  <style type="text/css">
   <![CDATA[
    .fil0 {fill:black}
   ]]>
  </style>
 </defs>
 <g id="Layer_x0020_1">
  <metadata id="CorelCorpID_0Corel-Layer"/>
  <path class="fil0" d="M720 296c0,133 -108,240 -240,240 -132,0 -240,-107 -240,-240 0,-132 108,-239 240,-239 132,0 240,107 240,239zm-663 833c0,-233 189,-423 423,-423l0 0 0 0c233,0 423,190 423,423l0 621 0 56 57 0 0 -677c0,-265 -215,-480 -480,-480l0 0 0 0c-265,0 -480,215 -480,480l0 677 57 0c0,-226 0,-451 0,-677zm423 -536c163,0 296,-133 296,-297 0,-163 -133,-296 -296,-296 -163,0 -296,133 -296,296 0,164 133,297 296,297z"/>
 </g>
</svg>
