<?xml version="1.0" encoding="UTF-8"?>
<!DOCTYPE svg PUBLIC "-//W3C//DTD SVG 1.1//EN" "http://www.w3.org/Graphics/SVG/1.1/DTD/svg11.dtd">
<!-- Creator: CorelDRAW X7 -->
<svg xmlns="http://www.w3.org/2000/svg" xml:space="preserve" width="100%" height="100%" version="1.1" style="shape-rendering:geometricPrecision; text-rendering:geometricPrecision; image-rendering:optimizeQuality; fill-rule:evenodd; clip-rule:evenodd"
viewBox="0 0 1806 1806"
 xmlns:xlink="http://www.w3.org/1999/xlink">
 <defs>
  <style type="text/css">
   <![CDATA[
    .fil0 {fill:black}
   ]]>
  </style>
 </defs>
 <g id="Layer_x0020_1">
  <metadata id="CorelCorpID_0Corel-Layer"/>
  <path class="fil0" d="M903 0c-241,0 -468,94 -638,265 -171,170 -265,397 -265,638 0,241 94,468 265,639 170,170 397,264 638,264 241,0 468,-94 639,-264 170,-171 264,-398 264,-639 0,-241 -94,-468 -264,-638 -171,-171 -398,-265 -639,-265zm240 466c0,132 -108,240 -240,240 -132,0 -240,-108 -240,-240 0,-132 108,-240 240,-240 132,0 240,108 240,240zm-536 0c0,163 133,296 296,296 164,0 297,-133 297,-296 0,-163 -133,-296 -297,-296 -163,0 -296,133 -296,296zm-184 833l0 302c-42,-29 -82,-62 -119,-99 -159,-160 -247,-373 -247,-599 0,-226 88,-439 247,-599 160,-159 373,-247 599,-247 226,0 439,88 599,247 160,160 248,373 248,599 0,226 -88,439 -248,599 -37,37 -77,70 -119,99l0 -302c0,-265 -215,-480 -480,-480 -264,0 -480,215 -480,480zm57 338l0 -338c0,-234 190,-424 423,-424 234,0 423,190 423,424l0 338c-127,74 -272,113 -423,113 -151,0 -296,-39 -423,-113z"/>
 </g>
</svg>
