<?xml version="1.0" encoding="UTF-8"?>
<!DOCTYPE svg PUBLIC "-//W3C//DTD SVG 1.1//EN" "http://www.w3.org/Graphics/SVG/1.1/DTD/svg11.dtd">
<!-- Creator: CorelDRAW X7 -->
<svg xmlns="http://www.w3.org/2000/svg" xml:space="preserve" width="100%" height="100%" version="1.1" style="shape-rendering:geometricPrecision; text-rendering:geometricPrecision; image-rendering:optimizeQuality; fill-rule:evenodd; clip-rule:evenodd"
viewBox="0 0 960 1552"
 xmlns:xlink="http://www.w3.org/1999/xlink">
 <defs>
  <style type="text/css">
   <![CDATA[
    .fil0 {fill:black}
   ]]>
  </style>
 </defs>
 <g id="Layer_x0020_1">
  <metadata id="CorelCorpID_0Corel-Layer"/>
  <path class="fil0" d="M480 57c132,0 240,107 240,239 0,133 -108,240 -240,240 -133,0 -240,-107 -240,-240 0,-132 107,-239 240,-239zm423 1072l0 423 57 0 0 -423c0,-265 -216,-480 -480,-480 -265,0 -480,215 -480,480l0 423 57 0 0 -423c0,-233 189,-423 423,-423 233,0 423,190 423,423zm-423 -1129c-164,0 -296,133 -296,296 0,164 132,297 296,297 163,0 296,-133 296,-297 0,-163 -133,-296 -296,-296z"/>
 </g>
</svg>
