<?xml version="1.0" encoding="UTF-8"?>
<!DOCTYPE svg PUBLIC "-//W3C//DTD SVG 1.1//EN" "http://www.w3.org/Graphics/SVG/1.1/DTD/svg11.dtd">
<!-- Creator: CorelDRAW X7 -->
<svg xmlns="http://www.w3.org/2000/svg" xml:space="preserve" width="100%" height="100%" version="1.1" style="shape-rendering:geometricPrecision; text-rendering:geometricPrecision; image-rendering:optimizeQuality; fill-rule:evenodd; clip-rule:evenodd"
viewBox="0 0 1242 1821"
 xmlns:xlink="http://www.w3.org/1999/xlink">
 <defs>
  <style type="text/css">
   <![CDATA[
    .fil0 {fill:black}
   ]]>
  </style>
 </defs>
 <g id="Layer_x0020_1">
  <metadata id="CorelCorpID_0Corel-Layer"/>
  <path class="fil0" d="M818 621c0,-109 -88,-198 -197,-198 -109,0 -198,89 -198,198 0,109 89,197 198,197 109,0 197,-88 197,-197zm-198 1200l21 -25c25,-29 603,-711 601,-1155 -2,-353 -280,-641 -621,-641 -342,0 -621,288 -621,642 0,443 574,1125 598,1154l22 25zm1 -1765c310,0 563,263 564,586 2,376 -459,962 -565,1092 -106,-130 -564,-716 -564,-1092 0,-323 254,-586 565,-586zm-141 565c0,-78 63,-141 141,-141 78,0 141,63 141,141 0,78 -63,141 -141,141 -78,0 -141,-63 -141,-141z"/>
 </g>
</svg>
