<?xml version="1.0" encoding="UTF-8"?>
<!DOCTYPE svg PUBLIC "-//W3C//DTD SVG 1.1//EN" "http://www.w3.org/Graphics/SVG/1.1/DTD/svg11.dtd">
<!-- Creator: CorelDRAW X7 -->
<svg xmlns="http://www.w3.org/2000/svg" xml:space="preserve" width="100%" height="100%" version="1.1" style="shape-rendering:geometricPrecision; text-rendering:geometricPrecision; image-rendering:optimizeQuality; fill-rule:evenodd; clip-rule:evenodd"
viewBox="0 0 1806 1806"
 xmlns:xlink="http://www.w3.org/1999/xlink">
 <defs>
  <style type="text/css">
   <![CDATA[
    .fil0 {fill:black}
   ]]>
  </style>
 </defs>
 <g id="Layer_x0020_1">
  <metadata id="CorelCorpID_0Corel-Layer"/>
  <path class="fil0" d="M1760 271l-412 412 224 973 -149 150 -412 -786 -412 412 37 262 -112 112 -187 -337 -337 -187 112 -112 262 37 412 -412 -786 -411 150 -150 973 224 412 -411c62,-63 162,-63 225,0 62,62 62,162 0,224zm-40 -40c20,-20 30,-46 30,-72 0,-26 -10,-52 -30,-73 -20,-20 -47,-30 -73,-30 -26,0 -52,10 -72,30l0 0 -434 434 -973 -224 -74 73 786 412 -486 486 -262 -38 -40 40 286 159 159 286 40 -40 -38 -262 486 -486 412 786 74 -73 -225 -974 434 -434z"/>
 </g>
</svg>
