<?xml version="1.0" encoding="UTF-8"?>
<!DOCTYPE svg PUBLIC "-//W3C//DTD SVG 1.1//EN" "http://www.w3.org/Graphics/SVG/1.1/DTD/svg11.dtd">
<!-- Creator: CorelDRAW X7 -->
<svg xmlns="http://www.w3.org/2000/svg" xml:space="preserve" width="100%" height="100%" version="1.1" style="shape-rendering:geometricPrecision; text-rendering:geometricPrecision; image-rendering:optimizeQuality; fill-rule:evenodd; clip-rule:evenodd"
viewBox="0 0 1806 1468"
 xmlns:xlink="http://www.w3.org/1999/xlink">
 <defs>
  <style type="text/css">
   <![CDATA[
    .fil0 {fill:black}
   ]]>
  </style>
 </defs>
 <g id="Layer_x0020_1">
  <metadata id="CorelCorpID_0Corel-Layer"/>
  <path class="fil0" d="M0 1468l1806 0 0 -1468 -1806 0 0 1468zm281 -650l0 339 57 0 0 -339 -57 0zm1187 -451l57 0c0,263 0,527 0,790l-57 0c0,-263 0,-527 0,-790zm-169 113l0 677 56 0 0 -677 -56 0zm-170 56l0 621 57 0 0 -621 -57 0zm-169 57l0 564 56 0 0 -564 -56 0zm-170 56l0 508 57 0 0 -508 -57 0zm-169 56l0 452 56 0 0 -452 -56 0zm-170 57l0 395 57 0 0 -395 -57 0zm-394 649c0,-451 0,-903 0,-1354l1693 0c0,451 0,903 0,1354l-1693 0z"/>
 </g>
</svg>
