<?xml version="1.0" encoding="UTF-8"?>
<!DOCTYPE svg PUBLIC "-//W3C//DTD SVG 1.1//EN" "http://www.w3.org/Graphics/SVG/1.1/DTD/svg11.dtd">
<!-- Creator: CorelDRAW X7 -->
<svg xmlns="http://www.w3.org/2000/svg" xml:space="preserve" width="100%" height="100%" version="1.1" style="shape-rendering:geometricPrecision; text-rendering:geometricPrecision; image-rendering:optimizeQuality; fill-rule:evenodd; clip-rule:evenodd"
viewBox="0 0 1580 1806"
 xmlns:xlink="http://www.w3.org/1999/xlink">
 <defs>
  <style type="text/css">
   <![CDATA[
    .fil0 {fill:black}
   ]]>
  </style>
 </defs>
 <g id="Layer_x0020_1">
  <metadata id="CorelCorpID_0Corel-Layer"/>
  <path class="fil0" d="M1354 1806l0 -1806c76,0 151,0 226,0l0 1806c-75,0 -150,0 -226,0zm57 -1750l0 1694 112 0 0 -1694 -112 0zm-339 283l-113 0 0 1411 113 0 0 -1411zm57 -57l0 1524c-76,0 -151,0 -226,0l0 -1524c75,0 150,0 226,0zm-508 339l-113 0 0 1129 113 0 0 -1129zm56 -57l0 1242c-75,0 -150,0 -226,0l0 -1242c76,0 151,0 226,0zm-508 339l-112 0 0 847 112 0 0 -847zm57 -56l0 959c-76,0 -151,0 -226,0l0 -959c75,0 150,0 226,0z"/>
 </g>
</svg>
