<?xml version="1.0" encoding="UTF-8"?>
<!DOCTYPE svg PUBLIC "-//W3C//DTD SVG 1.1//EN" "http://www.w3.org/Graphics/SVG/1.1/DTD/svg11.dtd">
<!-- Creator: CorelDRAW X7 -->
<svg xmlns="http://www.w3.org/2000/svg" xml:space="preserve" width="100%" height="100%" version="1.1" style="shape-rendering:geometricPrecision; text-rendering:geometricPrecision; image-rendering:optimizeQuality; fill-rule:evenodd; clip-rule:evenodd"
viewBox="0 0 1806 615"
 xmlns:xlink="http://www.w3.org/1999/xlink">
 <defs>
  <style type="text/css">
   <![CDATA[
    .fil0 {fill:black}
   ]]>
  </style>
 </defs>
 <g id="Layer_x0020_1">
  <metadata id="CorelCorpID_0Corel-Layer"/>
  <path class="fil0" d="M1321 56c-14,11 -27,22 -40,34 -56,56 -90,133 -90,218 0,84 34,161 90,217 13,12 26,24 40,34l-1013 0c-139,0 -252,-113 -252,-251 0,-139 113,-252 252,-252l1013 0zm178 559l3 0 0 0 3 0 1 0 2 0 2 0 1 0 3 0 0 0 3 0 1 0 2 0 2 -1 1 0 3 0 0 0 3 0 1 0 0 0 4 -1 1 0 3 0 0 0 3 -1 0 0 3 0 1 0 2 -1 2 0 1 0 3 -1 0 0 3 0 1 0 2 -1 1 0 3 -1 1 0 0 0 3 0 1 -1 2 0 2 0 1 -1 2 0 1 -1 3 0 0 0 3 -1 1 0 1 -1 2 0 1 -1 3 -1 0 0 3 -1 0 0 3 0 1 -1 1 0 3 -1 0 0 3 -1 0 0 3 -1 1 -1 1 0 2 -1 1 -1 3 -1 0 0 3 -1 0 0 2 -1 1 0 2 -1 2 -1 1 0 2 -1 2 -1 1 -1 1 0 1 -1 3 -1 2 -1 1 -1 2 -1 1 0 2 -1 1 -1 1 -1 2 -1 1 0 2 -2 0 0 1 0 3 -1 1 -1 2 -1 1 -1 2 -1 0 0 3 -2 0 0 2 -2 1 0 1 -1 2 -1 1 -1 2 -1 0 0 3 -2 0 -1 0 0 1 0 1 0 0 -1 1 0 0 -1 1 0 0 0 1 -1 1 0 0 -1 0 0 1 0 1 -1 0 0 1 -1 0 0 1 0 0 -1 1 0 0 -1 1 0 0 0 1 -1 0 0 1 -1 1 0 0 -1 0 0 1 -1 1 0 0 -1 1 0 0 0 1 -1 0 0 1 -1 0 0 1 -1 0 0 1 0 0 -1 1 0 1 -1 0 0 0 0 1 -1 0 0 1 -1 0 0 1 -1 0 0 1 -1 1 0 0 -1 0 0 1 0 0 -1 1 0 1 -1 0 0 0 -1 1 0 0 -1 1 0 1 -1 0 0 0 0 1 -1 0 -1 1 0 0 0 1 -1 0 0 1 -1 0 0 1 -1c56,-56 90,-133 90,-217 0,-85 -34,-162 -90,-218l-1 0 0 -1 -1 0 0 -1 -1 0 0 -1 -1 0 0 -1 -1 0 0 -1 0 0 -1 0 -1 -1 0 -1 -1 0 0 0 0 -1 -1 0 -1 -1 0 0 -1 -1 0 0 0 0 -1 -1 -1 -1 0 0 -1 0 0 -1 -1 0 0 -1 -1 0 0 -1 0 0 -1 0 -1 -1 0 0 -1 -1 0 0 -1 -1 0 0 -1 -1 0 0 -1 -1 0 0 -1 0 0 -1 -1 0 -1 -1 0 0 0 0 -1 -1 -1 0 0 -1 -1 0 0 0 -1 -1 0 0 -1 -1 0 0 -1 0 0 -1 -1 0 0 -1 -1 0 -1 -1 0 0 0 0 -1 -1 -1 0 0 -1 -1 0 0 0 -1 -1 0 0 -1 -1 -1 0 0 0 0 -1 -3 -1 0 0 -2 -2 -1 0 -2 -2 -1 0 -1 -1 -2 -1 0 -1 -3 -1 0 0 -2 -2 -1 0 -2 -1 -1 -1 -3 -2 -1 0 0 0 -2 -2 -1 0 -2 -1 -1 -1 -1 0 -2 -2 -1 0 -2 -1 -1 0 -2 -1 -3 -2 -1 -1 -1 0 -1 0 -2 -1 -2 -1 -1 -1 -2 -1 -2 0 -1 -1 -2 -1 0 0 -3 -1 0 0 -3 -1 -1 -1 -2 0 -1 -1 -1 0 -3 -1 0 0 -3 -1 0 -1 -3 0 -1 -1 -1 0 -3 -1 0 0 -3 -1 0 0 -3 -1 -1 0 -2 -1 -1 0 -1 -1 -3 0 0 0 -3 -1 -1 0 -2 -1 -1 0 -2 -1 -2 0 -1 0 -3 -1 0 0 -1 0 -3 -1 -1 0 -2 0 -1 -1 -3 0 0 0 -3 -1 -1 0 -2 0 -2 0 -1 -1 -3 0 0 0 -3 0 0 -1 -3 0 -1 0 -4 0 0 0 -1 -1 -3 0 0 0 -3 0 -1 0 -2 0 -2 0 -1 0 -3 -1 0 0 -3 0 -1 0 -2 0 -2 0 -1 0 -3 0 0 0 -3 0 -1191 0c-66,0 -127,21 -177,56 -15,11 -28,22 -41,34 -55,56 -90,133 -90,218 0,84 35,161 90,217 13,12 26,24 41,34 50,35 111,56 177,56l1191 0zm-693 -443l-136 136 136 135 -40 40 0 0 -135 -136 -136 136 0 0 -39 -40 135 -135 -135 -136 39 -39 0 0 136 135 135 -135 0 0 40 39zm693 -116l0 0c-139,0 -252,113 -252,252l0 0c0,138 113,251 252,251 138,0 251,-113 251,-251 0,-139 -113,-252 -251,-252zm0 503l0 0zm251 -251l0 0z"/>
 </g>
</svg>
