<?xml version="1.0" encoding="UTF-8"?>
<!DOCTYPE svg PUBLIC "-//W3C//DTD SVG 1.1//EN" "http://www.w3.org/Graphics/SVG/1.1/DTD/svg11.dtd">
<!-- Creator: CorelDRAW X7 -->
<svg xmlns="http://www.w3.org/2000/svg" xml:space="preserve" width="100%" height="100%" version="1.1" style="shape-rendering:geometricPrecision; text-rendering:geometricPrecision; image-rendering:optimizeQuality; fill-rule:evenodd; clip-rule:evenodd"
viewBox="0 0 1806 615"
 xmlns:xlink="http://www.w3.org/1999/xlink">
 <defs>
  <style type="text/css">
   <![CDATA[
    .fil0 {fill:black}
   ]]>
  </style>
 </defs>
 <g id="Layer_x0020_1">
  <metadata id="CorelCorpID_0Corel-Layer"/>
  <path class="fil0" d="M1302 172l-311 311 -164 -165 40 -39 0 0 124 124 271 -270 0 0 40 39zm-817 -116c14,11 28,22 40,34 56,56 90,133 90,218 0,84 -34,161 -90,217 -12,12 -26,24 -40,34l1014 0c138,0 251,-113 251,-251 0,-139 -113,-252 -251,-252l-1014 0zm-177 559l-3 0 -1 0 -2 0 -2 0 -2 0 -2 0 -1 0 -3 0 0 0 -3 0 -1 0 -2 0 -2 -1 -1 0 -3 0 0 0 -3 0 -1 0 0 0 -4 -1 -1 0 -2 0 -1 0 -3 -1 0 0 -3 0 -1 0 -2 -1 -2 0 -1 0 -3 -1 0 0 -3 0 0 0 -2 -1 -2 0 -3 -1 -1 0 0 0 -3 0 -1 -1 -2 0 -1 0 -2 -1 -2 0 -1 -1 -3 0 0 0 -2 -1 -1 0 -2 -1 -2 0 -1 -1 -3 -1 0 0 -3 -1 0 0 -2 0 -2 -1 -1 0 -2 -1 -1 0 -3 -1 0 0 -3 -1 0 -1 -2 0 -2 -1 -1 -1 -2 -1 -1 0 -2 -1 -1 0 -2 -1 -1 0 -2 -1 -2 -1 0 0 -3 -1 -2 -1 -1 -1 0 0 -2 -1 -3 -1 -2 -1 0 -1 -3 -1 0 0 -2 -1 -2 -1 -1 -1 -2 -1 -1 0 -2 -2 0 0 0 0 -3 -1 -2 -1 -2 -1 -1 -1 -2 -1 0 0 -2 -2 -1 0 -2 -2 -1 0 -1 -1 -2 -1 -1 -1 -2 -1 0 0 -2 -2 -1 -1 0 0 -1 0 0 0 -1 -1 -1 0 0 -1 0 0 -1 0 -1 -1 0 0 -1 -1 0 0 -1 0 0 -1 -1 0 -1 -1 0 0 0 0 -1 -1 -1 0 0 -1 -1 0 0 0 -1 -1 0 0 -1 -1 -1 0 0 -1 0 0 -1 -1 0 0 -1 -1 -1 0 0 0 0 -1 -1 0 -1 -1 0 0 -1 -1 0 0 0 0 -1 -1 -1 0 0 -1 0 0 -1 0 -1 -1 0 0 -1 -1 0 0 0 -1 -1 0 -1 -1 0 0 -1 -1 0 0 -1 0 0 -1 -1 0 0 -1 -1 0 0 -1 -1 0 0 -1 -1 0 0 -1 0 0 -1 0 -1 -1 0 -1 -1 0 0 0 0 -1 -1 0 0 -1 -1 0 -1 -1c-55,-56 -90,-133 -90,-217 0,-85 35,-162 90,-218l1 0 1 -1 0 0 1 -1 0 0 0 -1 1 0 0 -1 1 0 1 -1 0 0 0 0 1 -1 0 -1 1 0 0 0 1 -1 0 0 1 -1 0 0 1 -1 0 0 1 0 0 -1 1 -1 1 0 0 0 0 -1 1 0 0 -1 1 0 1 -1 0 0 0 0 1 -1 1 0 0 -1 0 0 1 -1 0 0 1 -1 1 0 0 -1 0 0 1 0 1 -1 0 0 1 -1 0 0 0 0 1 -1 1 0 0 -1 1 0 0 0 1 -1 0 0 1 -1 1 0 0 0 0 -1 1 0 1 -1 0 0 1 -1 0 0 1 0 0 -1 1 0 1 -1 0 0 0 0 1 -1 1 0 0 -1 1 0 0 0 1 -1 2 -1 0 0 2 -2 1 0 2 -2 1 0 1 -1 2 -1 1 -1 2 -1 0 0 2 -2 1 0 2 -1 2 -1 3 -2 0 0 0 0 2 -2 1 0 2 -1 1 -1 2 0 2 -2 0 0 3 -1 0 0 2 -1 3 -2 2 -1 0 0 1 0 2 -1 3 -1 0 -1 2 -1 2 0 1 -1 2 -1 1 0 2 -1 1 0 2 -1 1 -1 2 0 2 -1 0 0 3 -1 0 0 3 -1 1 -1 2 0 1 -1 2 0 2 -1 0 0 3 -1 0 0 3 -1 1 0 2 -1 2 0 1 -1 2 0 0 0 3 -1 1 0 2 -1 2 0 1 -1 2 0 1 0 3 -1 0 0 1 0 3 -1 2 0 2 0 0 -1 3 0 0 0 3 -1 1 0 2 0 2 0 1 -1 3 0 0 0 3 0 1 -1 2 0 1 0 4 0 0 0 1 -1 3 0 0 0 3 0 1 0 2 0 2 0 1 0 3 -1 0 0 3 0 1 0 2 0 2 0 2 0 2 0 1 0 3 0 1191 0c65,0 126,21 177,56 14,11 27,22 40,34 56,56 90,133 90,218 0,84 -34,161 -90,217 -13,12 -26,24 -40,34 -51,35 -112,56 -177,56l-1191 0zm0 -559l0 0c138,0 251,113 251,252l0 0c0,138 -113,251 -251,251 -139,0 -252,-113 -252,-251 0,-139 113,-252 252,-252zm0 503l0 0zm-252 -251l0 0z"/>
 </g>
</svg>
