<?xml version="1.0" encoding="UTF-8"?>
<!DOCTYPE svg PUBLIC "-//W3C//DTD SVG 1.1//EN" "http://www.w3.org/Graphics/SVG/1.1/DTD/svg11.dtd">
<!-- Creator: CorelDRAW X7 -->
<svg xmlns="http://www.w3.org/2000/svg" xml:space="preserve" width="100%" height="100%" version="1.1" style="shape-rendering:geometricPrecision; text-rendering:geometricPrecision; image-rendering:optimizeQuality; fill-rule:evenodd; clip-rule:evenodd"
viewBox="0 0 1976 1383"
 xmlns:xlink="http://www.w3.org/1999/xlink">
 <defs>
  <style type="text/css">
   <![CDATA[
    .fil0 {fill:black}
   ]]>
  </style>
 </defs>
 <g id="Layer_x0020_1">
  <metadata id="CorelCorpID_0Corel-Layer"/>
  <path class="fil0" d="M0 355l0 170 0 169 169 0 0 155 97 0 74 0 144 534c99,0 197,0 296,0l-143 -532 930 199 0 -308 183 -122 0 -95 0 -95 -183 -122 0 -308 -935 200 -463 0 0 155 -169 0zm399 494l179 0 129 477 -180 0 -128 -477zm1370 -490l147 -85 -28 -49 -147 85 28 49zm-28 381l147 84 28 -49 -147 -84 -28 49zm65 -187l170 0 0 -56 -170 0 0 56zm-1749 -28l0 -113 112 0 0 113 0 113 -112 0 0 -113zm169 0l0 -268 429 0 855 -181 0 449 0 449 -855 -181 -429 0 0 -268zm1341 0l0 -149 126 84 0 65 0 64 -126 85 0 -149z"/>
 </g>
</svg>
