<?xml version="1.0" encoding="UTF-8"?>
<!DOCTYPE svg PUBLIC "-//W3C//DTD SVG 1.1//EN" "http://www.w3.org/Graphics/SVG/1.1/DTD/svg11.dtd">
<!-- Creator: CorelDRAW X7 -->
<svg xmlns="http://www.w3.org/2000/svg" xml:space="preserve" width="100%" height="100%" version="1.1" style="shape-rendering:geometricPrecision; text-rendering:geometricPrecision; image-rendering:optimizeQuality; fill-rule:evenodd; clip-rule:evenodd"
viewBox="0 0 1976 1383"
 xmlns:xlink="http://www.w3.org/1999/xlink">
 <defs>
  <style type="text/css">
   <![CDATA[
    .fil0 {fill:black}
   ]]>
  </style>
 </defs>
 <g id="Layer_x0020_1">
  <metadata id="CorelCorpID_0Corel-Layer"/>
  <path class="fil0" d="M0 353l0 339 169 0 0 169 113 0 0 522 296 0 0 -522 110 0 183 183 639 0 0 -305 183 -122 0 -190 -183 -122 0 -305 -639 0 -183 183 -519 0 0 170 -169 0zm1730 -88l28 49 147 -85 -29 -49 -146 85zm28 466l-28 49 146 84 29 -49 -147 -84zm48 -237l0 57 170 0 0 -57 -170 0zm-1467 367l183 0 0 465 -183 0 0 -465zm-113 -56c0,-217 0,-349 0,-565l485 0 184 -184 559 0c0,311 0,622 0,932l-559 0 -184 -183 -485 0zm1284 -432l127 85 0 129 -127 84 0 -298zm-1341 262l-112 0 0 -226 112 0 0 226z"/>
 </g>
</svg>
