<?xml version="1.0" encoding="UTF-8"?>
<!DOCTYPE svg PUBLIC "-//W3C//DTD SVG 1.1//EN" "http://www.w3.org/Graphics/SVG/1.1/DTD/svg11.dtd">
<!-- Creator: CorelDRAW X7 -->
<svg xmlns="http://www.w3.org/2000/svg" xml:space="preserve" width="100%" height="100%" version="1.1" style="shape-rendering:geometricPrecision; text-rendering:geometricPrecision; image-rendering:optimizeQuality; fill-rule:evenodd; clip-rule:evenodd"
viewBox="0 0 1666 1666"
 xmlns:xlink="http://www.w3.org/1999/xlink">
 <defs>
  <style type="text/css">
   <![CDATA[
    .fil0 {fill:black}
   ]]>
  </style>
 </defs>
 <g id="Layer_x0020_1">
  <metadata id="CorelCorpID_0Corel-Layer"/>
  <path class="fil0" d="M0 1427l120 120 119 119 120 -119 110 109 327 -326 803 -520 -218 -218 43 -215 -67 -68 -67 -67 -216 43 -218 -217 -519 802 -327 327 110 110 -120 120zm1253 -1249l44 -163 -54 -15 -44 164 54 14zm250 289l163 -43 -14 -55 -164 44 15 54zm-86 -178l120 -119 -40 -40 -120 120 40 39zm-1257 1218l-80 -80 80 -80 80 80 79 80 -79 79 -80 -79zm119 -120l-189 -190 303 -303 477 -733 318 318 317 317 -733 478 -303 302 -190 -189zm949 -948l-106 -106 149 -29 46 45 46 46 -30 149 -105 -105z"/>
 </g>
</svg>
