<?xml version="1.0" encoding="UTF-8"?>
<!DOCTYPE svg PUBLIC "-//W3C//DTD SVG 1.1//EN" "http://www.w3.org/Graphics/SVG/1.1/DTD/svg11.dtd">
<!-- Creator: CorelDRAW X7 -->
<svg xmlns="http://www.w3.org/2000/svg" xml:space="preserve" width="100%" height="100%" version="1.1" style="shape-rendering:geometricPrecision; text-rendering:geometricPrecision; image-rendering:optimizeQuality; fill-rule:evenodd; clip-rule:evenodd"
viewBox="0 0 1806 1806"
 xmlns:xlink="http://www.w3.org/1999/xlink">
 <defs>
  <style type="text/css">
   <![CDATA[
    .fil0 {fill:black}
   ]]>
  </style>
 </defs>
 <g id="Layer_x0020_1">
  <metadata id="CorelCorpID_0Corel-Layer"/>
  <path class="fil0" d="M264 264c-170,171 -264,398 -264,639 0,241 94,468 264,639 171,170 398,264 639,264 241,0 468,-94 639,-264 170,-171 264,-398 264,-639 0,-241 -94,-468 -264,-639 -171,-170 -398,-264 -639,-264 -241,0 -468,94 -639,264zm181 640l318 318 599 -599 -40 -39c-188,188 -371,371 -559,558l-278 -278 -40 40zm1305 -1c0,226 -88,439 -248,599 -160,160 -373,248 -599,248 -226,0 -439,-88 -599,-248 -159,-160 -248,-373 -248,-599 0,-226 89,-439 248,-599 160,-159 373,-248 599,-248 226,0 439,88 599,248 160,160 248,373 248,599z"/>
 </g>
</svg>
