<?xml version="1.0" encoding="UTF-8"?>
<!DOCTYPE svg PUBLIC "-//W3C//DTD SVG 1.1//EN" "http://www.w3.org/Graphics/SVG/1.1/DTD/svg11.dtd">
<!-- Creator: CorelDRAW X7 -->
<svg xmlns="http://www.w3.org/2000/svg" xml:space="preserve" width="100%" height="100%" version="1.1" style="shape-rendering:geometricPrecision; text-rendering:geometricPrecision; image-rendering:optimizeQuality; fill-rule:evenodd; clip-rule:evenodd"
viewBox="0 0 1806 1635"
 xmlns:xlink="http://www.w3.org/1999/xlink">
 <defs>
  <style type="text/css">
   <![CDATA[
    .fil0 {fill:black}
   ]]>
  </style>
 </defs>
 <g id="Layer_x0020_1">
  <metadata id="CorelCorpID_0Corel-Layer"/>
  <path class="fil0" d="M254 957l339 0 0 -338 -339 0 0 338zm56 -844l0 56 0 54 -310 0 0 1412 1806 0 0 -1412c-423,0 -846,0 -1270,0l0 -12 0 -42 0 -56 0 -113 -226 0 0 113zm1440 167l0 169 -1693 0 0 -169c564,0 1128,0 1693,0zm-1383 -223l113 0 0 166 0 3 -113 0 0 -3 0 -166zm-113 1408l339 0 0 -338 -339 0 0 338zm959 -508l339 0 0 -338 -339 0 0 338zm0 508l339 0 0 -338 -339 0 0 338zm-479 -508l338 0 0 -338 -338 0 0 338zm0 508l338 0 0 -338 -338 0 0 338zm56 -282l226 0 0 226 -226 0 0 -226zm0 -508l226 0 0 226 -226 0 0 -226zm480 508l226 0 0 226 -226 0 0 -226zm0 -508l226 0 0 226 -226 0 0 -226zm-960 508l226 0 0 226 -226 0 0 -226zm0 -508l226 0 0 226 -226 0 0 -226zm-253 903l0 -1072 1693 0 0 1072 -1693 0z"/>
 </g>
</svg>
