<?xml version="1.0" encoding="UTF-8"?>
<!DOCTYPE svg PUBLIC "-//W3C//DTD SVG 1.1//EN" "http://www.w3.org/Graphics/SVG/1.1/DTD/svg11.dtd">
<!-- Creator: CorelDRAW X7 -->
<svg xmlns="http://www.w3.org/2000/svg" xml:space="preserve" width="100%" height="100%" version="1.1" style="shape-rendering:geometricPrecision; text-rendering:geometricPrecision; image-rendering:optimizeQuality; fill-rule:evenodd; clip-rule:evenodd"
viewBox="0 0 1298 1609"
 xmlns:xlink="http://www.w3.org/1999/xlink">
 <defs>
  <style type="text/css">
   <![CDATA[
    .fil0 {fill:black}
   ]]>
  </style>
 </defs>
 <g id="Layer_x0020_1">
  <metadata id="CorelCorpID_0Corel-Layer"/>
  <path class="fil0" d="M254 1157l113 0 0 -56 -113 0 0 56zm620 395l-84 0 0 -282 -282 0 0 282 -84 0 -58 0 -179 0 -76 0 -54 0 0 -1496 1185 0 0 1496 -96 0 -117 0 -97 0 -58 0zm-436 57l70 0 282 0 70 0 58 0 111 0 193 0 76 0 0 -1609 -1298 0 0 1609 111 0 50 0 219 0 58 0zm127 -57l0 -226 169 0 0 226 -169 0zm366 -1242l113 0 0 -56 -113 0 0 56zm-225 0l113 0 0 -56 -113 0 0 56zm-226 0l113 0 0 -56 -113 0 0 56zm451 283l113 0 0 -57 -113 0 0 57zm-225 0l113 0 0 -57 -113 0 0 57zm-226 0l113 0 0 -57 -113 0 0 57zm451 282l113 0 0 -57 -113 0 0 57zm-225 0l113 0 0 -57 -113 0 0 57zm-226 0l113 0 0 -57 -113 0 0 57zm451 282l113 0 0 -56 -113 0 0 56zm-225 0l113 0 0 -56 -113 0 0 56zm-226 0l113 0 0 -56 -113 0 0 56zm-226 -847l113 0 0 -56 -113 0 0 56zm0 283l113 0 0 -57 -113 0 0 57zm0 282l113 0 0 -57 -113 0 0 57z"/>
 </g>
</svg>
