<?xml version="1.0" encoding="UTF-8"?>
<!DOCTYPE svg PUBLIC "-//W3C//DTD SVG 1.1//EN" "http://www.w3.org/Graphics/SVG/1.1/DTD/svg11.dtd">
<!-- Creator: CorelDRAW X7 -->
<svg xmlns="http://www.w3.org/2000/svg" xml:space="preserve" width="100%" height="100%" version="1.1" style="shape-rendering:geometricPrecision; text-rendering:geometricPrecision; image-rendering:optimizeQuality; fill-rule:evenodd; clip-rule:evenodd"
viewBox="0 0 1298 1609"
 xmlns:xlink="http://www.w3.org/1999/xlink">
 <defs>
  <style type="text/css">
   <![CDATA[
    .fil0 {fill:black}
   ]]>
  </style>
 </defs>
 <g id="Layer_x0020_1">
  <metadata id="CorelCorpID_0Corel-Layer"/>
  <path class="fil0" d="M6 1609l-6 0 0 -1609 1298 0 0 1609c-178,0 -357,0 -536,0l0 -202 0 -81 -226 0 0 81 0 202c-177,0 -354,0 -530,0zm813 -57c141,0 282,0 423,0l0 -1496 -1185 0 0 1496c141,0 282,0 423,0l0 -282 339 0 0 282zm-593 -734l0 339 282 0 0 -339 -282 0zm56 283l0 -226 170 0 0 226 -170 0zm508 -283l0 339 282 0 0 -339 -282 0zm57 283l0 -226 169 0 0 226 -169 0zm-57 -847l0 339 282 0 0 -339 -282 0zm57 282l0 -226 169 0 0 226 -169 0zm-621 -282l0 339 282 0 0 -339 -282 0zm56 282l0 -226 170 0 0 226 -170 0z"/>
 </g>
</svg>
