<?xml version="1.0" encoding="UTF-8"?>
<!DOCTYPE svg PUBLIC "-//W3C//DTD SVG 1.1//EN" "http://www.w3.org/Graphics/SVG/1.1/DTD/svg11.dtd">
<!-- Creator: CorelDRAW X7 -->
<svg xmlns="http://www.w3.org/2000/svg" xml:space="preserve" width="100%" height="100%" version="1.1" style="shape-rendering:geometricPrecision; text-rendering:geometricPrecision; image-rendering:optimizeQuality; fill-rule:evenodd; clip-rule:evenodd"
viewBox="0 0 1806 1632"
 xmlns:xlink="http://www.w3.org/1999/xlink">
 <defs>
  <style type="text/css">
   <![CDATA[
    .fil0 {fill:black}
   ]]>
  </style>
 </defs>
 <g id="Layer_x0020_1">
  <metadata id="CorelCorpID_0Corel-Layer"/>
  <path class="fil0" d="M566 56l-46 0 -11 0 0 282 -114 0 0 -57 -56 0 0 57 -112 0 0 -57 -57 0 0 57 -113 0 -37 0 -20 0 0 1237 0 57 57 0c564,0 1128,0 1693,0l56 0 0 -57 0 -169 0 -56 0 -956 0 -56 -56 0 -114 0 0 -57 -56 0 0 57 -113 0 0 -57 -56 0 0 57 -114 0 0 -282 -12 0 -45 0 -225 0 0 -56 -56 0 0 56 -112 0 0 -56 -57 0 0 56 -224 0zm534 113l56 0 0 1069 -56 0 0 -1069zm56 1125l0 0 0 281 84 0 0 -1462 -674 0 0 1462 84 0 0 -241 0 0 0 -40 56 0 56 0 57 0 56 0 56 0 56 0 57 0 56 0 56 0zm-506 -56l0 -1069 56 0 0 1069 -56 0zm112 0l0 -1069 57 0 0 1069 -57 0zm113 0l0 -1069 56 0 0 1069 -56 0zm112 0l0 -1069 57 0 0 1069 -57 0zm-564 56l0 -844 -56 0 0 844 56 0zm-225 0l0 -844 -56 0 0 844 56 0zm113 0l0 -844 -56 0 0 844 56 0zm1353 0l0 -844 -56 0 0 844 56 0zm-225 0l0 -844 -56 0 0 844 56 0zm113 0l0 -844 -57 0 0 844 57 0zm-846 56l169 0 0 225 -110 0 -59 0 0 -225zm225 0l169 0 0 225 -59 0 -110 0 0 -225zm-874 56l452 0 0 169 -452 0 0 -169zm452 -56l-452 0 0 -956 452 0 0 956zm788 56l453 0 0 169 -453 0 0 -169zm453 -56l-453 0 0 -956 453 0 0 956z"/>
 </g>
</svg>
