<?xml version="1.0" encoding="UTF-8"?>
<!DOCTYPE svg PUBLIC "-//W3C//DTD SVG 1.1//EN" "http://www.w3.org/Graphics/SVG/1.1/DTD/svg11.dtd">
<!-- Creator: CorelDRAW X7 -->
<svg xmlns="http://www.w3.org/2000/svg" xml:space="preserve" width="100%" height="100%" version="1.1" style="shape-rendering:geometricPrecision; text-rendering:geometricPrecision; image-rendering:optimizeQuality; fill-rule:evenodd; clip-rule:evenodd"
viewBox="0 0 1806 1976"
 xmlns:xlink="http://www.w3.org/1999/xlink">
 <defs>
  <style type="text/css">
   <![CDATA[
    .fil0 {fill:black}
   ]]>
  </style>
 </defs>
 <g id="Layer_x0020_1">
  <metadata id="CorelCorpID_0Corel-Layer"/>
  <path class="fil0" d="M0 1075l0 196 262 0 44 133 -177 177 266 266 177 -177 134 44 0 262 395 0 0 -262 133 -44 177 177 266 -266 -177 -177 44 -133 262 0 0 -196 0 0 0 -2c0,-241 -94,-468 -264,-638 -164,-164 -380,-257 -611,-265l0 -113 142 0 0 -57 -339 0 0 57 141 0 0 113c-231,8 -446,101 -610,265 -171,170 -265,397 -265,638l0 2 0 0zm875 -792l56 0 0 113 -56 0 0 -113zm318 204l56 -98 49 28 -56 98 -49 -28zm269 227l97 -57 29 49 -98 57 -28 -49zm-905 -325l56 97 -48 29 -57 -98 49 -28zm-310 268l98 57 -28 49 -98 -57 28 -49zm684 388l0 -536 -56 0 0 536 -110 0 -57 0 -156 0 -495 0c7,-216 94,-417 247,-571 160,-159 373,-248 599,-248 226,0 439,89 599,248 153,154 240,355 247,571l-518 0 -132 0 -58 0 -110 0zm-874 56l651 0c13,96 96,170 195,170 100,0 182,-74 196,-170l651 0 0 113 -246 0 -69 205 162 162 -186 186 -162 -162 -205 69 0 246 -282 0 0 -246 -205 -69 -162 162 -186 -186 162 -162 -68 -205 -246 0 0 -113zm985 0l-277 0c13,65 70,113 138,113 68,0 125,-48 139,-113z"/>
 </g>
</svg>
