<?xml version="1.0" encoding="UTF-8"?>
<!DOCTYPE svg PUBLIC "-//W3C//DTD SVG 1.1//EN" "http://www.w3.org/Graphics/SVG/1.1/DTD/svg11.dtd">
<!-- Creator: CorelDRAW X7 -->
<svg xmlns="http://www.w3.org/2000/svg" xml:space="preserve" width="100%" height="100%" version="1.1" style="shape-rendering:geometricPrecision; text-rendering:geometricPrecision; image-rendering:optimizeQuality; fill-rule:evenodd; clip-rule:evenodd"
viewBox="0 0 1637 1806"
 xmlns:xlink="http://www.w3.org/1999/xlink">
 <defs>
  <style type="text/css">
   <![CDATA[
    .fil0 {fill:black}
   ]]>
  </style>
 </defs>
 <g id="Layer_x0020_1">
  <metadata id="CorelCorpID_0Corel-Layer"/>
  <g id="_2186844631072">
   <path class="fil0" d="M818 1806c219,0 425,-85 579,-240 155,-154 240,-360 240,-578 0,-219 -85,-424 -240,-579 -148,-148 -342,-232 -550,-239l0 -113 141 0 0 -57 -339 0 0 57 141 0 0 113c-208,7 -402,91 -550,239 -155,155 -240,360 -240,579 0,218 85,424 240,578 154,155 360,240 578,240zm-538 -1357c137,-137 317,-216 510,-223l0 84 57 0 0 -84c193,7 373,86 510,223 137,137 216,318 223,511l-84 0 0 56 84 0c-7,193 -86,373 -223,511 -137,137 -317,215 -510,222l0 -84 -57 0 0 84c-193,-7 -373,-85 -510,-222 -138,-138 -216,-318 -223,-511l84 0 0 -56 -84 0c7,-193 85,-374 223,-511z"/>
   <polygon class="fil0" points="386,595 306,516 346,476 426,556 "/>
   <polygon class="fil0" points="1291,1500 1211,1420 1251,1380 1330,1460 "/>
   <polygon class="fil0" points="1251,595 1211,556 1291,476 1330,516 "/>
   <polygon class="fil0" points="346,1500 306,1460 386,1380 426,1420 "/>
   <path class="fil0" d="M818 1101c63,0 113,-51 113,-113 0,-53 -36,-97 -84,-109l0 -286 -57 0 0 286c-48,12 -84,56 -84,109 0,62 50,113 112,113zm0 -170c32,0 57,26 57,57 0,31 -25,56 -57,56 -31,0 -56,-25 -56,-56 0,-31 25,-57 56,-57z"/>
  </g>
 </g>
</svg>
