<?xml version="1.0" encoding="UTF-8"?>
<!DOCTYPE svg PUBLIC "-//W3C//DTD SVG 1.1//EN" "http://www.w3.org/Graphics/SVG/1.1/DTD/svg11.dtd">
<!-- Creator: CorelDRAW X7 -->
<svg xmlns="http://www.w3.org/2000/svg" xml:space="preserve" width="100%" height="100%" version="1.1" style="shape-rendering:geometricPrecision; text-rendering:geometricPrecision; image-rendering:optimizeQuality; fill-rule:evenodd; clip-rule:evenodd"
viewBox="0 0 1806 1806"
 xmlns:xlink="http://www.w3.org/1999/xlink">
 <defs>
  <style type="text/css">
   <![CDATA[
    .fil0 {fill:black}
   ]]>
  </style>
 </defs>
 <g id="Layer_x0020_1">
  <metadata id="CorelCorpID_0Corel-Layer"/>
  <path class="fil0" d="M1524 0l-1242 0 0 597 -282 118 0 1091 1806 0 0 -1091 -282 -118 0 -597zm-429 755l54 0c-18,44 -47,78 -85,103 -38,24 -84,36 -140,36 -56,0 -104,-11 -143,-33 -39,-22 -69,-55 -91,-97 -21,-43 -32,-94 -32,-154 0,-61 12,-116 35,-165 24,-49 55,-86 94,-110 39,-24 82,-37 131,-37 42,0 80,10 112,30 33,19 58,47 77,84 19,37 28,78 28,125 0,54 -14,103 -42,147 -33,51 -75,77 -126,77 -14,0 -24,-3 -32,-9 -7,-5 -12,-14 -14,-27 -20,24 -43,36 -70,36 -27,0 -50,-12 -69,-35 -19,-23 -28,-55 -28,-95 0,-39 7,-75 22,-110 14,-34 31,-58 51,-73 20,-16 41,-23 64,-23 15,0 29,3 40,10 11,7 20,18 27,32l6 -35 68 0 -38 222c-3,15 -4,24 -4,28 0,5 1,9 3,11 2,3 4,4 7,4 8,0 18,-6 31,-17 17,-16 31,-36 42,-63 11,-27 16,-54 16,-83 0,-35 -7,-66 -22,-94 -15,-28 -35,-50 -60,-64 -24,-14 -54,-21 -89,-21 -42,0 -79,10 -110,30 -31,19 -56,50 -75,90 -19,41 -29,88 -29,140 0,45 9,85 27,119 18,34 43,60 74,78 31,17 69,26 115,26 40,0 75,-7 104,-21 29,-14 53,-35 71,-62zm-275 -127c0,26 4,46 13,58 9,12 20,18 33,18 12,0 22,-4 32,-13 13,-11 23,-30 33,-57 9,-27 13,-54 13,-81 0,-23 -4,-41 -13,-54 -9,-12 -20,-18 -33,-18 -21,0 -38,11 -51,35 -18,33 -27,70 -27,112zm648 -571l0 838 -565 354 -564 -354 0 -838 1129 0zm-1186 803l-193 -121 193 -81 0 202zm-225 890l0 -965 846 531 847 -531 0 965 -1693 0zm1660 -1011l-193 121 0 -202 193 81z"/>
 </g>
</svg>
