<?xml version="1.0" encoding="UTF-8"?>
<!DOCTYPE svg PUBLIC "-//W3C//DTD SVG 1.1//EN" "http://www.w3.org/Graphics/SVG/1.1/DTD/svg11.dtd">
<!-- Creator: CorelDRAW X7 -->
<svg xmlns="http://www.w3.org/2000/svg" xml:space="preserve" width="100%" height="100%" version="1.1" style="shape-rendering:geometricPrecision; text-rendering:geometricPrecision; image-rendering:optimizeQuality; fill-rule:evenodd; clip-rule:evenodd"
viewBox="0 0 1806 1806"
 xmlns:xlink="http://www.w3.org/1999/xlink">
 <defs>
  <style type="text/css">
   <![CDATA[
    .fil0 {fill:black}
   ]]>
  </style>
 </defs>
 <g id="Layer_x0020_1">
  <metadata id="CorelCorpID_0Corel-Layer"/>
  <path class="fil0" d="M1524 0l-1242 0 0 597 -282 118 0 1091 1806 0 0 -1091 -282 -118 0 -597zm-528 710c-13,15 -28,28 -45,37 -17,10 -33,14 -50,14 -18,0 -36,-5 -54,-16 -17,-11 -31,-27 -42,-49 -11,-23 -16,-47 -16,-74 0,-33 8,-66 25,-99 17,-33 38,-58 63,-74 25,-17 49,-25 72,-25 18,0 36,5 52,14 16,10 30,24 42,43l11 -48 55 0 -44 208c-7,29 -10,45 -10,48 0,6 2,11 7,15 4,4 9,6 15,6 11,0 25,-6 43,-19 24,-16 42,-39 56,-66 14,-28 21,-57 21,-86 0,-35 -9,-67 -27,-97 -17,-30 -44,-54 -79,-72 -35,-18 -74,-27 -116,-27 -49,0 -93,12 -133,34 -40,23 -71,55 -93,98 -22,42 -33,87 -33,135 0,51 11,95 33,131 22,37 54,64 95,81 42,18 88,26 139,26 54,0 99,-9 136,-27 37,-18 64,-41 82,-67l56 0c-10,22 -28,44 -54,67 -26,22 -56,40 -92,53 -35,13 -78,20 -127,20 -46,0 -89,-6 -127,-18 -39,-11 -72,-29 -99,-53 -28,-23 -48,-51 -62,-81 -17,-39 -26,-81 -26,-127 0,-50 10,-98 31,-144 25,-55 61,-98 107,-128 47,-30 103,-45 169,-45 52,0 98,11 139,32 41,21 73,52 96,93 21,36 31,75 31,117 0,60 -21,113 -64,159 -37,42 -78,63 -123,63 -14,0 -26,-2 -34,-7 -9,-4 -16,-10 -20,-18 -3,-6 -5,-15 -6,-27zm-150 -84c0,28 6,50 20,66 13,16 29,24 46,24 12,0 24,-4 37,-11 13,-7 25,-17 37,-31 11,-13 21,-31 28,-52 8,-21 11,-42 11,-63 0,-28 -7,-50 -21,-65 -13,-16 -31,-24 -51,-24 -13,0 -25,4 -37,11 -12,6 -23,17 -34,32 -11,15 -20,33 -26,54 -7,22 -10,41 -10,59zm622 -569l0 838 -565 354 -564 -354 0 -838 1129 0zm-1186 803l-193 -121 193 -81 0 202zm-225 890l0 -965 846 531 847 -531 0 965 -1693 0zm1660 -1011l-193 121 0 -202 193 81z"/>
 </g>
</svg>
