<?xml version="1.0" encoding="UTF-8"?>
<!DOCTYPE svg PUBLIC "-//W3C//DTD SVG 1.1//EN" "http://www.w3.org/Graphics/SVG/1.1/DTD/svg11.dtd">
<!-- Creator: CorelDRAW X7 -->
<svg xmlns="http://www.w3.org/2000/svg" xml:space="preserve" width="100%" height="100%" version="1.1" style="shape-rendering:geometricPrecision; text-rendering:geometricPrecision; image-rendering:optimizeQuality; fill-rule:evenodd; clip-rule:evenodd"
viewBox="0 0 1806 1778"
 xmlns:xlink="http://www.w3.org/1999/xlink">
 <defs>
  <style type="text/css">
   <![CDATA[
    .fil0 {fill:black}
   ]]>
  </style>
 </defs>
 <g id="Layer_x0020_1">
  <metadata id="CorelCorpID_0Corel-Layer"/>
  <path class="fil0" d="M1439 279c65,-13 113,-70 113,-138 0,-78 -63,-141 -141,-141 -78,0 -141,63 -141,141 0,68 49,125 113,138l0 88 -960 0 0 -88c65,-13 113,-70 113,-138 0,-78 -63,-141 -141,-141 -78,0 -141,63 -141,141 0,68 48,125 113,138l0 88 -367 0 0 1411 1806 0 0 -1411 -367 0 0 -88zm-959 -138c0,47 -38,85 -85,85 -47,0 -84,-38 -84,-85 0,-47 37,-85 84,-85 47,0 85,38 85,85zm-423 282l0 170 1693 0 0 -170c-565,0 -1129,0 -1693,0zm677 1186l338 0 0 -339 -338 0 0 339zm56 -283l226 0 0 226 -226 0 0 -226zm-56 -225l338 0 0 -339 -338 0 0 339zm56 -283l226 0 0 226 -226 0 0 -226zm423 791l339 0 0 -339 -339 0 0 339zm0 -508l339 0 0 -339 -339 0 0 339zm57 -283l226 0 0 226 -226 0 0 -226zm-1016 791l339 0 0 -339 -339 0 0 339zm56 -283l226 0 0 226 -226 0 0 -226zm-56 -225l339 0 0 -339 -339 0 0 339zm56 -283l226 0 0 226 -226 0 0 -226zm-253 904l0 -1073 1693 0 0 1073 -1693 0zm1439 -1581c0,47 -38,85 -85,85 -47,0 -84,-38 -84,-85 0,-47 37,-85 84,-85 47,0 85,38 85,85z"/>
 </g>
</svg>
