<?xml version="1.0" encoding="UTF-8"?>
<!DOCTYPE svg PUBLIC "-//W3C//DTD SVG 1.1//EN" "http://www.w3.org/Graphics/SVG/1.1/DTD/svg11.dtd">
<!-- Creator: CorelDRAW X7 -->
<svg xmlns="http://www.w3.org/2000/svg" xml:space="preserve" width="100%" height="100%" version="1.1" style="shape-rendering:geometricPrecision; text-rendering:geometricPrecision; image-rendering:optimizeQuality; fill-rule:evenodd; clip-rule:evenodd"
viewBox="0 0 1806 1806"
 xmlns:xlink="http://www.w3.org/1999/xlink">
 <defs>
  <style type="text/css">
   <![CDATA[
    .fil0 {fill:black}
   ]]>
  </style>
 </defs>
 <g id="Layer_x0020_1">
  <metadata id="CorelCorpID_0Corel-Layer"/>
  <path class="fil0" d="M1154 693l590 -591 0 251 59 -3 3 -322 -28 -28 -322 3 -2 58 250 1 -590 591 40 40zm-501 0l-591 -591 0 251 -59 -3 -3 -322 28 -28 322 3 2 58 -250 1 591 591 -40 40zm0 421l-591 590 0 -251 -59 3 -3 322 28 28 322 -3 2 -58 -250 -1 591 -590 -40 -40zm501 0l590 590 0 -251 59 3 3 322 -28 28 -322 -3 -2 -58 250 -1 -590 -590 40 -40z"/>
 </g>
</svg>
