<?xml version="1.0" encoding="UTF-8"?>
<!DOCTYPE svg PUBLIC "-//W3C//DTD SVG 1.1//EN" "http://www.w3.org/Graphics/SVG/1.1/DTD/svg11.dtd">
<!-- Creator: CorelDRAW X7 -->
<svg xmlns="http://www.w3.org/2000/svg" xml:space="preserve" width="100%" height="100%" version="1.1" style="shape-rendering:geometricPrecision; text-rendering:geometricPrecision; image-rendering:optimizeQuality; fill-rule:evenodd; clip-rule:evenodd"
viewBox="0 0 1806 1468"
 xmlns:xlink="http://www.w3.org/1999/xlink">
 <defs>
  <style type="text/css">
   <![CDATA[
    .fil0 {fill:black}
   ]]>
  </style>
 </defs>
 <g id="Layer_x0020_1">
  <metadata id="CorelCorpID_0Corel-Layer"/>
  <path class="fil0" d="M553 875l-491 491 0 -252 -59 3 -3 322 28 29 322 -3 2 -58 -250 -2 491 -490 -40 -40zm0 -282l-491 -491 0 251 -59 -3 -3 -322 28 -28 322 3 2 58 -250 1 491 491 -40 40zm699 -17l477 -477 0 244 58 -3 2 -313 -27 -27 -313 3 -2 56 243 1 -476 477 38 39zm1 299l491 491 0 -252 59 3 3 322 -28 29 -322 -3 -2 -58 250 -2 -490 -490 39 -40z"/>
 </g>
</svg>
