<?xml version="1.0" encoding="UTF-8"?>
<!DOCTYPE svg PUBLIC "-//W3C//DTD SVG 1.1//EN" "http://www.w3.org/Graphics/SVG/1.1/DTD/svg11.dtd">
<!-- Creator: CorelDRAW X7 -->
<svg xmlns="http://www.w3.org/2000/svg" xml:space="preserve" width="100%" height="100%" version="1.1" style="shape-rendering:geometricPrecision; text-rendering:geometricPrecision; image-rendering:optimizeQuality; fill-rule:evenodd; clip-rule:evenodd"
viewBox="0 0 1806 1806"
 xmlns:xlink="http://www.w3.org/1999/xlink">
 <defs>
  <style type="text/css">
   <![CDATA[
    .fil0 {fill:black}
   ]]>
  </style>
 </defs>
 <g id="Layer_x0020_1">
  <metadata id="CorelCorpID_0Corel-Layer"/>
  <path class="fil0" d="M875 931l835 0 -178 178 44 40 230 -226 0 -40 -230 -226 -42 40 176 178 -835 0 0 56zm423 198l0 621 -1241 0 0 -1298 395 0 0 -396 846 0 0 621 57 0 0 -677c-315,0 -629,0 -943,0l-412 412c0,464 0,929 0,1394l1355 0 0 -677 -57 0zm-1202 -734l299 -299 0 299 -299 0z"/>
 </g>
</svg>
