<?xml version="1.0" encoding="UTF-8"?>
<!DOCTYPE svg PUBLIC "-//W3C//DTD SVG 1.1//EN" "http://www.w3.org/Graphics/SVG/1.1/DTD/svg11.dtd">
<!-- Creator: CorelDRAW X7 -->
<svg xmlns="http://www.w3.org/2000/svg" xml:space="preserve" width="100%" height="100%" version="1.1" style="shape-rendering:geometricPrecision; text-rendering:geometricPrecision; image-rendering:optimizeQuality; fill-rule:evenodd; clip-rule:evenodd"
viewBox="0 0 1806 1635"
 xmlns:xlink="http://www.w3.org/1999/xlink">
 <defs>
  <style type="text/css">
   <![CDATA[
    .fil0 {fill:black}
   ]]>
  </style>
 </defs>
 <g id="Layer_x0020_1">
  <metadata id="CorelCorpID_0Corel-Layer"/>
  <path class="fil0" d="M57 1578l0 -674 593 297 0 -289 578 289 0 -289 522 261 0 405c-565,0 -1129,0 -1693,0zm882 -76l0 -173 0 0 -56 0 0 173 56 0zm347 0l0 -173 -57 0 0 173 57 0zm-173 0l0 -173 -57 0 0 173 57 0zm-347 -173l-57 0 0 173 57 0 0 -173zm-174 0l-56 0 0 173 56 0 0 -173zm-173 0l-57 0 0 173 57 0 0 -173zm-173 0l-57 0 0 173 57 0 0 -173zm-246 -517l423 212 57 -1024 284 0 59 935 178 89 57 -764 283 0 59 675 406 203 0 497 -1806 0 0 -823zm711 -755l-178 0 -3 59 185 0 -4 -59zm7 115l-191 0 -4 59 199 0 -4 -59zm7 116l-205 0 -42 764 116 58 0 -289 170 85 -39 -618zm565 29l-179 0 -5 59 189 0 -5 -59zm10 115l-198 0 -4 59 207 0 -5 -59zm10 116l-217 0 -37 504 116 58 0 -289 169 84 -31 -357z"/>
 </g>
</svg>
