<?xml version="1.0" encoding="UTF-8"?>
<!DOCTYPE svg PUBLIC "-//W3C//DTD SVG 1.1//EN" "http://www.w3.org/Graphics/SVG/1.1/DTD/svg11.dtd">
<!-- Creator: CorelDRAW X7 -->
<svg xmlns="http://www.w3.org/2000/svg" xml:space="preserve" width="100%" height="100%" version="1.1" style="shape-rendering:geometricPrecision; text-rendering:geometricPrecision; image-rendering:optimizeQuality; fill-rule:evenodd; clip-rule:evenodd"
viewBox="0 0 2225 1581"
 xmlns:xlink="http://www.w3.org/1999/xlink">
 <defs>
  <style type="text/css">
   <![CDATA[
    .fil0 {fill:black}
   ]]>
  </style>
 </defs>
 <g id="Layer_x0020_1">
  <metadata id="CorelCorpID_0Corel-Layer"/>
  <path class="fil0" d="M1305 1580l0 -687c278,-279 557,-558 835,-836l85 0 0 -57 -1113 0 -1112 0 0 57 85 0c278,278 556,557 835,836l0 687c128,0 257,0 385,0zm-193 -1523l949 0c-271,270 -542,540 -812,811l0 656c-91,0 -182,0 -273,0l0 -656c-270,-271 -541,-541 -812,-811l948 0z"/>
 </g>
</svg>
