<?xml version="1.0" encoding="UTF-8"?>
<!DOCTYPE svg PUBLIC "-//W3C//DTD SVG 1.1//EN" "http://www.w3.org/Graphics/SVG/1.1/DTD/svg11.dtd">
<!-- Creator: CorelDRAW X7 -->
<svg xmlns="http://www.w3.org/2000/svg" xml:space="preserve" width="100%" height="100%" version="1.1" style="shape-rendering:geometricPrecision; text-rendering:geometricPrecision; image-rendering:optimizeQuality; fill-rule:evenodd; clip-rule:evenodd"
viewBox="0 0 1516 1806"
 xmlns:xlink="http://www.w3.org/1999/xlink">
 <defs>
  <style type="text/css">
   <![CDATA[
    .fil0 {fill:black}
   ]]>
  </style>
 </defs>
 <g id="Layer_x0020_1">
  <metadata id="CorelCorpID_0Corel-Layer"/>
  <path class="fil0" d="M758 1750c-48,0 -95,-4 -141,-12l0 -427 0 -82 0 -200 0 -81 -56 -57 -488 -487c26,-35 55,-68 86,-100 160,-159 373,-247 599,-247 226,0 439,88 598,247 32,32 61,65 86,101l-487 486 -56 56 0 81 0 202 0 81 0 427c-46,8 -93,12 -141,12zm-725 -1386c-12,16 -23,31 -33,47l41 41 520 521 0 394 0 360 0 58c18,4 37,7 56,10 46,8 93,11 141,11 48,0 95,-3 141,-11 19,-3 38,-6 56,-10l0 -58 0 -359 0 -82 0 -314 520 -520 41 -41c-11,-16 -22,-31 -33,-47 -26,-35 -55,-68 -87,-99 -170,-171 -397,-265 -638,-265 -241,0 -468,94 -639,265 -31,31 -60,64 -86,99z"/>
 </g>
</svg>
