<?xml version="1.0" encoding="UTF-8"?>
<!DOCTYPE svg PUBLIC "-//W3C//DTD SVG 1.1//EN" "http://www.w3.org/Graphics/SVG/1.1/DTD/svg11.dtd">
<!-- Creator: CorelDRAW X7 -->
<svg xmlns="http://www.w3.org/2000/svg" xml:space="preserve" width="100%" height="100%" version="1.1" style="shape-rendering:geometricPrecision; text-rendering:geometricPrecision; image-rendering:optimizeQuality; fill-rule:evenodd; clip-rule:evenodd"
viewBox="0 0 1806 1806"
 xmlns:xlink="http://www.w3.org/1999/xlink">
 <defs>
  <style type="text/css">
   <![CDATA[
    .fil0 {fill:black}
   ]]>
  </style>
 </defs>
 <g id="Layer_x0020_1">
  <metadata id="CorelCorpID_0Corel-Layer"/>
  <path class="fil0" d="M903 1750l0 0 -6 0 -3 0 -1 0 -1 0 0 0 -9 0 -1 0 -1 0 -2 0 -5 -1 -2 0 -1 0 -1 0 -9 0 -7 -1 -2 0 -2 0 0 0 -2 0 -3 0 -2 0 -2 0 -2 -1 -2 0 -3 0 -2 0 -2 0 -2 0 0 0 -2 -1 -3 0 -2 0 -2 0 0 0 -2 0 -2 -1 -3 0 -2 0 -1 0 -1 0 -2 -1 -5 0 -2 0 -2 -1 0 0 -2 0 -2 0 -3 -1 -4 0 -2 0 -2 -1 -2 0 -5 -1 -2 0 -2 0 -2 -1 -2 0 -3 0 -2 -1 0 -427 0 -82 0 -200 0 -81 -56 -57 -487 -487c26,-35 54,-68 86,-100 142,-142 326,-227 525,-244l10 -1 0 0 10 -1 1 0 10 0 0 0 10 -1 1 0 10 0 0 0 11 0 0 0 10 0 0 0 11 0 0 0 10 0 0 0 11 0 0 0 10 1 1 0 10 0 0 0 10 1 0 0 11 1c198,17 382,102 525,244 31,32 60,65 86,101l-487 486 -57 56 0 81 0 202 0 81 0 427c-8,2 -17,3 -26,4l0 0c-13,2 -27,4 -41,5l0 0 -11 1 0 0c-7,0 -14,0 -20,1l-1 0 -10 0 0 0 -9 1 -2 0 -10 0 0 0 -2 0 -2 0 -7 0zm-78 -1747c-212,18 -408,110 -560,262 -171,170 -265,397 -265,638 0,241 94,468 265,639 123,123 276,206 443,243l1 0 0 0 1 1 1 0 7 1 1 0 1 1 1 0 1 0 8 2 0 0 1 0 9 2 1 0 1 0 1 0 1 0 1 0 3 1 1 0 1 0 1 0 1 1 0 0 1 0 1 0 1 0 1 0 4 1 1 0 1 0 2 1 3 0 0 0 4 1 2 0 2 0 2 1 5 0 2 0 2 1 2 0 5 1 2 0 2 0 2 0 2 1 3 0 2 0 2 0 2 0 2 1 3 0 2 0 2 0 2 1 2 0 2 0 1 0 2 0 2 0 2 0 2 1 5 0 0 0 2 0 2 0 2 0 2 0 1 1 2 0 2 0 2 0 3 0 1 0 1 0 2 0 7 1 1 0 1 0 2 0 5 0 2 0 2 0 0 0 2 0 7 0 2 0 0 0 0 0 11 0 0 0 11 0 9 0 3 0 0 0 2 0c10,0 21,-1 31,-1l0 -1c29,-1 57,-4 85,-9 19,-3 38,-6 57,-10l0 0c166,-37 318,-120 441,-243 170,-171 264,-398 264,-639 0,-177 -50,-347 -145,-492l0 0c-10,-16 -21,-31 -33,-47 -26,-35 -55,-68 -86,-99 -152,-152 -349,-244 -560,-262l-11 -1 0 0c-4,0 -8,0 -11,0l-1 0 -11 -1 0 0 -11 0 0 0 -11 -1 0 0 -11 0 -1 0 -11 0 0 0 -11 0 0 0 -11 0 0 0 -12 1 0 0 -11 0 0 0 -11 1 0 0 -11 0 0 0 -11 1zm677 1499c-112,112 -251,189 -401,225l0 -359 0 -82 0 -314 519 -520c85,134 130,289 130,451 0,226 -88,439 -248,599zm-796 225c-151,-36 -289,-113 -402,-225 -159,-160 -247,-373 -247,-599 0,-162 45,-317 129,-451l0 0 520 521 0 394 0 360 0 0z"/>
 </g>
</svg>
