<?xml version="1.0" encoding="UTF-8"?>
<!DOCTYPE svg PUBLIC "-//W3C//DTD SVG 1.1//EN" "http://www.w3.org/Graphics/SVG/1.1/DTD/svg11.dtd">
<!-- Creator: CorelDRAW X7 -->
<svg xmlns="http://www.w3.org/2000/svg" xml:space="preserve" width="100%" height="100%" version="1.1" style="shape-rendering:geometricPrecision; text-rendering:geometricPrecision; image-rendering:optimizeQuality; fill-rule:evenodd; clip-rule:evenodd"
viewBox="0 0 1298 1806"
 xmlns:xlink="http://www.w3.org/1999/xlink">
 <defs>
  <style type="text/css">
   <![CDATA[
    .fil0 {fill:black}
   ]]>
  </style>
 </defs>
 <g id="Layer_x0020_1">
  <metadata id="CorelCorpID_0Corel-Layer"/>
  <path class="fil0" d="M785 0l28 0 129 0 26 0 330 0 -36 217 -253 113 -219 1476 -141 0 -141 0 -219 -1476 -253 -113 -36 -217 235 0 121 0 129 0 28 0 272 0zm-272 57l-278 0 -168 0 20 121 255 113 222 1459 85 0 85 0 222 -1459 255 -113 21 -121 -264 0 -183 0 -272 0z"/>
 </g>
</svg>
