<?xml version="1.0" encoding="UTF-8"?>
<!DOCTYPE svg PUBLIC "-//W3C//DTD SVG 1.1//EN" "http://www.w3.org/Graphics/SVG/1.1/DTD/svg11.dtd">
<!-- Creator: CorelDRAW X7 -->
<svg xmlns="http://www.w3.org/2000/svg" xml:space="preserve" width="100%" height="100%" version="1.1" style="shape-rendering:geometricPrecision; text-rendering:geometricPrecision; image-rendering:optimizeQuality; fill-rule:evenodd; clip-rule:evenodd"
viewBox="0 0 1813 1809"
 xmlns:xlink="http://www.w3.org/1999/xlink">
 <defs>
  <style type="text/css">
   <![CDATA[
    .fil0 {fill:black}
   ]]>
  </style>
 </defs>
 <g id="Layer_x0020_1">
  <metadata id="CorelCorpID_0Corel-Layer"/>
  <path class="fil0" d="M906 0c-242,0 -469,94 -641,265 -171,172 -265,399 -265,641 0,242 94,468 265,640 172,171 399,263 641,263l0 0c500,0 907,-405 907,-904 0,-242 -95,-469 -266,-640 -171,-172 -399,-265 -641,-265zm641 348c-25,35 -91,112 -225,171 -76,-222 -202,-374 -278,-451 174,28 336,110 463,237 14,14 27,28 40,43zm-597 1407c-5,0 -10,0 -16,0l0 -538c140,3 250,26 335,55 -99,288 -287,456 -319,483zm-406 -483c86,-30 196,-52 334,-55l0 538c-5,0 -10,0 -15,0 -33,-27 -220,-195 -319,-483zm319 -1214c5,-1 10,-1 15,-1l0 538c-139,-2 -249,-25 -334,-55 99,-287 286,-455 319,-482zm406 482c-87,31 -197,53 -335,55l0 -538c6,0 11,0 16,1 32,27 220,195 319,482zm-335 112c145,-3 260,-26 352,-57 24,85 40,180 43,283l-395 0 0 -226zm-56 0l0 226 -394 0c2,-103 18,-198 43,-283 91,31 207,54 351,57zm-451 226l-370 0c6,-177 66,-345 172,-485 34,46 108,123 244,181 -26,91 -43,192 -46,304zm0 57c3,111 20,213 46,304 -136,58 -210,135 -244,181 -106,-140 -166,-308 -172,-485l370 0zm57 0l394 0 0 226c-144,2 -260,25 -351,57 -25,-85 -41,-180 -43,-283zm450 226l0 -226 395 0c-2,103 -19,198 -43,283 -92,-32 -207,-55 -352,-57zm451 -226l370 0c-6,181 -69,348 -172,484 -34,-46 -108,-122 -244,-180 27,-91 44,-193 46,-304zm0 -57c-2,-112 -19,-213 -45,-304 135,-58 209,-135 244,-181 106,140 166,308 171,485l-370 0zm-616 -810c-76,77 -203,229 -279,451 -42,-18 -76,-38 -104,-57 -66,-45 -103,-90 -120,-114 13,-15 26,-29 39,-43 128,-127 289,-209 464,-237zm-503 1397c24,-35 90,-112 224,-171 76,222 203,374 279,451 -175,-28 -336,-110 -464,-238 -13,-13 -26,-28 -39,-42zm640 316l0 3 0 -3zm138 -36c76,-77 202,-229 278,-451 42,18 77,38 105,56 66,45 102,90 119,115 -127,145 -303,247 -502,280z"/>
 </g>
</svg>
