<?xml version="1.0" encoding="UTF-8"?>
<!DOCTYPE svg PUBLIC "-//W3C//DTD SVG 1.1//EN" "http://www.w3.org/Graphics/SVG/1.1/DTD/svg11.dtd">
<!-- Creator: CorelDRAW X7 -->
<svg xmlns="http://www.w3.org/2000/svg" xml:space="preserve" width="100%" height="100%" version="1.1" style="shape-rendering:geometricPrecision; text-rendering:geometricPrecision; image-rendering:optimizeQuality; fill-rule:evenodd; clip-rule:evenodd"
viewBox="0 0 1806 1806"
 xmlns:xlink="http://www.w3.org/1999/xlink">
 <defs>
  <style type="text/css">
   <![CDATA[
    .fil0 {fill:black}
   ]]>
  </style>
 </defs>
 <g id="Layer_x0020_1">
  <metadata id="CorelCorpID_0Corel-Layer"/>
  <g>
   <path class="fil0" d="M1625 460l0 0 5 8 0 1 5 7 0 1c73,125 115,270 115,426 0,127 -28,250 -81,362l0 0 -4 9 0 0 -5 9 0 0 -5 10 0 0 0 0c-40,76 -91,146 -153,209 -40,40 -83,75 -129,106l0 0 -9 6 0 0 -9 5 0 0c-134,85 -289,131 -452,131 -226,0 -439,-88 -598,-248 -113,-112 -189,-250 -225,-401l-1 -1 0 -2 -2 -6 -1 -6 0 0 -1 -4 0 0 -1 -6 -1 -3 -1 -6 0 -3 -1 -4 -1 -2 0 -1 0 -3 -1 -3 0 0 0 -3 -1 -3 0 -3 -1 -7 -1 -3 -1 -6 0 -3c-1,-6 -2,-11 -2,-16l-1 -4 0 -3 -1 -6 0 -3 -1 -7 0 -3 0 -3 -1 -3 0 -4 -1 -9 0 -4 0 -6 0 0 0 -3 -1 -7 0 -3c0,-12 0,-24 0,-36 0,-127 27,-250 80,-362l0 0 5 -9 0 0 4 -9 0 0 5 -9 0 0 0 -1c40,-76 91,-146 154,-209 35,-36 74,-68 115,-96l4 -3 4 -3 4 -3 4 -2 0 -1 5 -2 1 -1 3 -2 5 -4 2 0 8 -5 0 -1c132,-81 284,-124 443,-124 10,0 19,0 28,0l0 -57c-9,0 -18,0 -28,0 -133,0 -261,28 -378,82l-5 3c-5,2 -10,5 -15,7l-5 3c-12,6 -24,12 -35,18l-5 3 -5 3 0 0 -5 3 -5 2 -5 3 -4 3 -1 0c-6,4 -12,8 -18,12l-2 1 -4 2 -4 4 -1 0 -8 5 -2 2 -4 2 -4 3 -9 7 -1 0 -4 3 -5 4 -4 3 -5 3 -4 4 -5 3 0 1 -4 3 -1 0 -4 3 -4 3 0 1 -5 4 0 0 -4 3 0 0 -5 4 -4 4 -5 3 0 1 -3 3 -1 0 -4 4 -4 3 -1 1 -4 4 -3 3 -1 1 -4 3 -1 1 -4 3 -4 4 -3 3 -1 1 -4 4 -3 3 -3 3 -2 3c-3,2 -6,5 -8,8l0 0 -8 8 0 0 -8 8 0 0 -8 8 0 0 0 1c-133,146 -213,330 -230,527l-1 11 0 0 0 11 0 0 -1 11 0 0 0 11 0 0 -1 11 0 1 0 11 0 0 0 11 0 0c0,7 0,13 0,20l0 3 0 0c1,11 1,22 2,32l0 1c1,23 3,45 6,67l0 0c2,11 3,22 5,33l1 1 1 9 0 1 0 0 0 0 2 9 0 2 0 0 3 10 0 1c1,5 2,10 3,15l0 0c38,163 120,313 242,435 82,82 178,147 283,192l0 0 9 4 1 0c44,18 89,33 135,44l0 0c7,2 15,3 22,5l0 0 11 2 0 0 10 2 0 0 1 0 10 2 0 0 1 0c11,2 21,3 32,5l1 0c7,1 14,2 21,3l1 0 10 1 1 0 10 1 1 0 9 1 2 0 1 0 10 0 0 1c11,0 22,1 33,1l1 0 1 0 10 0 0 0 11 0 0 0 0 0 11 0 0 0c4,0 8,0 12,0l0 0 11 0 11 -1 11 -1 0 0 12 0 0 0 11 -1 0 0 11 -1 0 0 11 -1 0 0 11 -2 0 0 11 -1 0 0 11 -2 0 0 11 -1 0 0 11 -2 0 0 11 -2 0 0 11 -2 0 0c3,-1 7,-2 11,-2l0 0 10 -3 0 0 11 -2 0 0c82,-20 161,-51 235,-92l0 0c54,-31 105,-68 153,-110l0 0c5,-5 11,-10 16,-15l0 0c9,-8 17,-15 25,-23l8 -8 0 0 7 -9 1 0 7 -8 0 0 8 -8 0 0 0 0c133,-147 213,-331 230,-527l1 -11 0 -1c0,-3 0,-7 1,-11l0 0 0 -11 0 0 1 -11 0 0 0 -11 0 0 0 -12 0 0 0 -11 0 0 0 -11 0 -1 0 -4 0 -9 0 -4 0 -7 -1 -6 0 -7 0 -4 -1 -9 0 -4 -1 -9 0 -2 0 -1 -1 -12 0 0c-1,-4 -1,-8 -1,-12l-1 -3 -1 -10 0 -1c-17,-132 -62,-256 -133,-367l0 -1 -5 -7 0 -1c-38,-57 -81,-110 -130,-157l235 0 0 -56 -310 0 -28 28 0 310 56 0 0 -249c6,6 12,12 18,17 47,48 88,100 123,156zm177 353c-1,-4 -1,-8 -1,-12l1 12zm-625 324l-246 -246 0 -552 -56 0 0 576 262 262 40 -40zm-1064 -262l113 0 0 56 -113 0 0 -56zm1468 0l112 0 0 56 -112 0 0 -56zm-706 705l56 0 0 113 -56 0 0 -113zm0 -1467l56 0 0 113 -56 0 0 -113z"/>
  </g>
 </g>
</svg>
