<?xml version="1.0" encoding="UTF-8"?>
<!DOCTYPE svg PUBLIC "-//W3C//DTD SVG 1.1//EN" "http://www.w3.org/Graphics/SVG/1.1/DTD/svg11.dtd">
<!-- Creator: CorelDRAW X7 -->
<svg xmlns="http://www.w3.org/2000/svg" xml:space="preserve" width="100%" height="100%" version="1.1" style="shape-rendering:geometricPrecision; text-rendering:geometricPrecision; image-rendering:optimizeQuality; fill-rule:evenodd; clip-rule:evenodd"
viewBox="0 0 1581 1806"
 xmlns:xlink="http://www.w3.org/1999/xlink">
 <defs>
  <style type="text/css">
   <![CDATA[
    .fil0 {fill:black}
   ]]>
  </style>
 </defs>
 <g id="Layer_x0020_1">
  <metadata id="CorelCorpID_0Corel-Layer"/>
  <path class="fil0" d="M1580 1129l-173 -1129 -1234 0 -173 1129 0 677 1580 0 0 -677zm-1241 -847l903 0 0 57 -903 0 0 -57zm-57 282l1016 0 0 57 -1016 0 0 -57zm-56 283l1129 0 0 56 -1129 0 0 -56zm-4 -790l1137 0 164 1072 -451 0 0 28c0,156 -126,282 -282,282 -155,0 -282,-126 -282,-282l0 -28 -451 0 165 -1072zm1302 1693l-1467 0 0 -565 396 0c14,174 160,311 337,311 178,0 323,-137 338,-311l396 0 0 565z"/>
 </g>
</svg>
