<?xml version="1.0" encoding="UTF-8"?>
<!DOCTYPE svg PUBLIC "-//W3C//DTD SVG 1.1//EN" "http://www.w3.org/Graphics/SVG/1.1/DTD/svg11.dtd">
<!-- Creator: CorelDRAW X7 -->
<svg xmlns="http://www.w3.org/2000/svg" xml:space="preserve" width="100%" height="100%" version="1.1" style="shape-rendering:geometricPrecision; text-rendering:geometricPrecision; image-rendering:optimizeQuality; fill-rule:evenodd; clip-rule:evenodd"
viewBox="0 0 1355 1806"
 xmlns:xlink="http://www.w3.org/1999/xlink">
 <defs>
  <style type="text/css">
   <![CDATA[
    .fil0 {fill:black}
   ]]>
  </style>
 </defs>
 <g id="Layer_x0020_1">
  <metadata id="CorelCorpID_0Corel-Layer"/>
  <path class="fil0" d="M0 1806l1355 0 0 -1806 -943 0 -412 412 0 1394zm282 -310l790 0 0 56 -790 0 0 -56zm0 -283l790 0 0 57 -790 0 0 -57zm0 -282l790 0 0 57 -790 0 0 -57zm0 -282l790 0 0 57 -790 0 0 -57zm395 -282l395 0 0 56 -395 0 0 -56zm621 1383l-1241 0 0 -1298 395 0 0 -395 846 0 0 1693zm-1202 -1355l299 -299 0 299 -299 0z"/>
 </g>
</svg>
