<?xml version="1.0" encoding="UTF-8"?>
<!DOCTYPE svg PUBLIC "-//W3C//DTD SVG 1.1//EN" "http://www.w3.org/Graphics/SVG/1.1/DTD/svg11.dtd">
<!-- Creator: CorelDRAW X7 -->
<svg xmlns="http://www.w3.org/2000/svg" xml:space="preserve" width="100%" height="100%" version="1.1" style="shape-rendering:geometricPrecision; text-rendering:geometricPrecision; image-rendering:optimizeQuality; fill-rule:evenodd; clip-rule:evenodd"
viewBox="0 0 1806 1806"
 xmlns:xlink="http://www.w3.org/1999/xlink">
 <defs>
  <style type="text/css">
   <![CDATA[
    .fil0 {fill:black}
   ]]>
  </style>
 </defs>
 <g id="Layer_x0020_1">
  <metadata id="CorelCorpID_0Corel-Layer"/>
  <path class="fil0" d="M903 0c-241,0 -468,94 -638,265 -171,170 -265,397 -265,638 0,241 94,468 265,639 170,170 397,264 638,264 241,0 468,-94 639,-264 170,-171 264,-398 264,-639 0,-241 -94,-468 -264,-638 -171,-171 -398,-265 -639,-265zm0 423c-168,0 -254,57 -254,170l57 0c0,-53 22,-113 197,-113 120,0 198,66 198,169 0,78 -111,151 -154,172 -5,3 -129,67 -129,251l0 29 57 0 0 -29c0,-148 93,-198 97,-200 8,-4 185,-94 185,-223 0,-133 -104,-226 -254,-226zm-85 790l57 0 0 113 -57 0 0 -113zm684 289c-160,160 -373,248 -599,248 -226,0 -439,-88 -599,-248 -159,-160 -247,-373 -247,-599 0,-226 88,-439 247,-599 160,-159 373,-247 599,-247 226,0 439,88 599,247 160,160 248,373 248,599 0,226 -88,439 -248,599z"/>
 </g>
</svg>
