<?xml version="1.0" encoding="UTF-8"?>
<!DOCTYPE svg PUBLIC "-//W3C//DTD SVG 1.1//EN" "http://www.w3.org/Graphics/SVG/1.1/DTD/svg11.dtd">
<!-- Creator: CorelDRAW X7 -->
<svg xmlns="http://www.w3.org/2000/svg" xml:space="preserve" width="100%" height="100%" version="1.1" style="shape-rendering:geometricPrecision; text-rendering:geometricPrecision; image-rendering:optimizeQuality; fill-rule:evenodd; clip-rule:evenodd"
viewBox="0 0 1806 1528"
 xmlns:xlink="http://www.w3.org/1999/xlink">
 <defs>
  <style type="text/css">
   <![CDATA[
    .fil0 {fill:black}
   ]]>
  </style>
 </defs>
 <g id="Layer_x0020_1">
  <metadata id="CorelCorpID_0Corel-Layer"/>
  <path class="fil0" d="M0 0l0 1412 903 116 903 -116 0 -1412 -903 117 -903 -117zm1606 1133l6 56 -537 56 -6 -56 537 -56zm-531 -170l-6 -56 537 -56 6 56 -537 56zm0 -282l-6 -56 537 -56 6 56 -537 56zm0 -282l-6 -56 537 -57 6 56 -537 57zm-874 734l536 56 -6 56 -536 -56 6 -56zm0 -282l536 56 -6 56 -536 -56 6 -56zm0 -283l536 57 -6 56 -536 -56 6 -57zm530 -169l-536 -57 6 -56 536 57 -6 56zm-674 -335l818 106 0 1297 -818 -105 0 -1298zm1693 1298l-819 106 0 -1298 819 -106 0 1298z"/>
 </g>
</svg>
