<?xml version="1.0" encoding="UTF-8"?>
<!DOCTYPE svg PUBLIC "-//W3C//DTD SVG 1.1//EN" "http://www.w3.org/Graphics/SVG/1.1/DTD/svg11.dtd">
<!-- Creator: CorelDRAW X7 -->
<svg xmlns="http://www.w3.org/2000/svg" xml:space="preserve" width="100%" height="100%" version="1.1" style="shape-rendering:geometricPrecision; text-rendering:geometricPrecision; image-rendering:optimizeQuality; fill-rule:evenodd; clip-rule:evenodd"
viewBox="0 0 1806 1806"
 xmlns:xlink="http://www.w3.org/1999/xlink">
 <defs>
  <style type="text/css">
   <![CDATA[
    .fil0 {fill:black}
   ]]>
  </style>
 </defs>
 <g id="Layer_x0020_1">
  <metadata id="CorelCorpID_0Corel-Layer"/>
  <path class="fil0" d="M102 62l250 -1 -2 -58 -322 -3 -28 28 3 322 59 3 0 -251 393 393 40 -40c-131,-131 -262,-262 -393,-393zm1602 0l-250 -1 2 -58 322 -3 28 28 -3 322 -59 3 0 -251 -393 393 -40 -40c131,-131 262,-262 393,-393zm-265 1417l265 265 -250 1 2 58 322 3 28 -28 -3 -322 -59 -3 0 251 -305 -304 0 79zm-1072 -79l-305 304 0 -251 -59 3 -3 322 28 28 322 -3 2 -58 -250 -1 265 -265 0 -79zm536 -1217c132,0 240,108 240,240 0,133 -108,240 -240,240 -132,0 -240,-107 -240,-240 0,-132 108,-240 240,-240zm423 1073l0 367 -846 0 0 -367c0,-233 190,-423 423,-423 234,0 423,190 423,423zm57 423l0 -423c0,-265 -215,-480 -480,-480 -264,0 -480,215 -480,480l0 423c320,0 640,0 960,0zm-480 -1552c-163,0 -296,133 -296,296 0,164 133,297 296,297 163,0 296,-133 296,-297 0,-163 -133,-296 -296,-296z"/>
 </g>
</svg>
