<?xml version="1.0" encoding="UTF-8"?>
<!DOCTYPE svg PUBLIC "-//W3C//DTD SVG 1.1//EN" "http://www.w3.org/Graphics/SVG/1.1/DTD/svg11.dtd">
<!-- Creator: CorelDRAW X7 -->
<svg xmlns="http://www.w3.org/2000/svg" xml:space="preserve" width="100%" height="100%" version="1.1" style="shape-rendering:geometricPrecision; text-rendering:geometricPrecision; image-rendering:optimizeQuality; fill-rule:evenodd; clip-rule:evenodd"
viewBox="0 0 1637 1806"
 xmlns:xlink="http://www.w3.org/1999/xlink">
 <defs>
  <style type="text/css">
   <![CDATA[
    .fil0 {fill:black}
   ]]>
  </style>
 </defs>
 <g id="Layer_x0020_1">
  <metadata id="CorelCorpID_0Corel-Layer"/>
  <path class="fil0" d="M917 296c0,133 108,240 240,240 132,0 240,-107 240,-240 0,-132 -108,-239 -240,-239 -132,0 -240,107 -240,239zm-437 14c-132,0 -240,108 -240,240 0,132 108,240 240,240 132,0 240,-108 240,-240 0,-132 -108,-240 -240,-240zm-423 1073l0 367 620 0 0 -621c0,-39 5,-77 14,-113 -63,-36 -135,-56 -211,-56 -234,0 -423,189 -423,423zm846 367l0 -367c0,-135 -63,-256 -162,-333 -5,26 -8,52 -8,79l0 621 170 0zm-903 56l0 -423c0,-265 215,-480 480,-480 82,0 160,21 228,58 68,-182 243,-312 449,-312l0 0 0 0c265,0 480,215 480,480l0 677c-546,0 -1091,0 -1637,0zm757 -815c122,87 203,230 203,392l0 367 620 0 0 -621c0,-233 -190,-423 -423,-423l0 0 0 0c-185,0 -343,119 -400,285zm-277 -737c163,0 296,133 296,296 0,164 -133,297 -296,297 -164,0 -297,-133 -297,-297 0,-163 133,-296 297,-296zm677 339c-164,0 -297,-133 -297,-297 0,-163 133,-296 297,-296 163,0 296,133 296,296 0,164 -133,297 -296,297z"/>
 </g>
</svg>
