<?xml version="1.0" encoding="UTF-8"?>
<!DOCTYPE svg PUBLIC "-//W3C//DTD SVG 1.1//EN" "http://www.w3.org/Graphics/SVG/1.1/DTD/svg11.dtd">
<!-- Creator: CorelDRAW X7 -->
<svg xmlns="http://www.w3.org/2000/svg" xml:space="preserve" width="100%" height="100%" version="1.1" style="shape-rendering:geometricPrecision; text-rendering:geometricPrecision; image-rendering:optimizeQuality; fill-rule:evenodd; clip-rule:evenodd"
viewBox="0 0 1637 1806"
 xmlns:xlink="http://www.w3.org/1999/xlink">
 <defs>
  <style type="text/css">
   <![CDATA[
    .fil0 {fill:black}
   ]]>
  </style>
 </defs>
 <g id="Layer_x0020_1">
  <metadata id="CorelCorpID_0Corel-Layer"/>
  <path class="fil0" d="M720 296c0,133 -108,240 -240,240 -132,0 -240,-107 -240,-240 0,-132 108,-239 240,-239 132,0 240,107 240,239zm437 14c132,0 240,108 240,240 0,132 -108,240 -240,240 -132,0 -240,-108 -240,-240 0,-132 108,-240 240,-240zm423 1073l0 367 -620 0 0 -621c0,-39 -5,-77 -14,-113 62,-36 134,-56 211,-56 233,0 423,189 423,423zm-846 367l0 -367c0,-135 63,-256 162,-333 5,26 7,52 7,79l0 621 -169 0zm903 56l0 -423c0,-265 -215,-480 -480,-480 -82,0 -160,21 -228,58 -68,-182 -244,-312 -449,-312l0 0 0 0c-265,0 -480,215 -480,480l0 677c546,0 1091,0 1637,0zm-757 -815c-123,87 -203,230 -203,392l0 367 -620 0 0 -621c0,-233 189,-423 423,-423l0 0 0 0c185,0 343,119 400,285zm277 -737c-164,0 -296,133 -296,296 0,164 132,297 296,297 163,0 296,-133 296,-297 0,-163 -133,-296 -296,-296zm-677 339c163,0 296,-133 296,-297 0,-163 -133,-296 -296,-296 -164,0 -297,133 -297,296 0,164 133,297 297,297z"/>
 </g>
</svg>
