<?xml version="1.0" encoding="UTF-8"?>
<!DOCTYPE svg PUBLIC "-//W3C//DTD SVG 1.1//EN" "http://www.w3.org/Graphics/SVG/1.1/DTD/svg11.dtd">
<!-- Creator: CorelDRAW X7 -->
<svg xmlns="http://www.w3.org/2000/svg" xml:space="preserve" width="100%" height="100%" version="1.1" style="shape-rendering:geometricPrecision; text-rendering:geometricPrecision; image-rendering:optimizeQuality; fill-rule:evenodd; clip-rule:evenodd"
viewBox="0 0 1805 1806"
 xmlns:xlink="http://www.w3.org/1999/xlink">
 <defs>
  <style type="text/css">
   <![CDATA[
    .fil0 {fill:black}
   ]]>
  </style>
 </defs>
 <g id="Layer_x0020_1">
  <metadata id="CorelCorpID_0Corel-Layer"/>
  <g id="_2186810143216">
   <path class="fil0" d="M1495 1806l0 0c-68,0 -132,-21 -186,-62l-370 -370c-60,-61 -93,-138 -93,-217 0,-43 9,-85 26,-124 2,-4 3,-8 5,-11l51 24c-2,3 -3,6 -4,9l-26 -11 26 11c-14,33 -21,67 -21,102 -1,64 27,128 76,178l365 365c44,33 96,50 151,50l0 0c68,0 131,-26 179,-74 49,-48 75,-112 75,-180 0,-55 -17,-107 -49,-151l-338 -337 -2 -3c-49,-65 -123,-102 -203,-102l-1 0c-35,0 -69,7 -101,21l-22 -52c39,-17 80,-25 124,-25l0 0c98,0 188,44 247,122l337 338 2 3c41,54 63,119 62,186 0,83 -32,161 -91,220 -58,58 -136,90 -219,90z"/>
   <path class="fil0" d="M882 751c14,-32 21,-67 21,-102 0,-55 -17,-107 -50,-151l-337 -337 -2 -3c-49,-65 -123,-102 -203,-102l-1 0c-67,0 -131,27 -179,75 -48,47 -74,111 -74,179 -1,64 27,127 76,178l365 365c44,33 96,50 151,50l0 0c35,0 69,-7 101,-21l23 52c-39,17 -81,26 -124,26l0 0c-68,0 -132,-22 -187,-63l-369 -370c-60,-61 -93,-138 -93,-217 0,-83 32,-161 91,-219 59,-59 137,-91 219,-91l1 0c98,0 187,45 247,123l337 337 2 3c41,54 62,118 62,186 0,43 -8,85 -26,124l-51 -22z"/>
   <polygon class="fil0" points="629,669 1137,1177 1176,1137 669,629 "/>
  </g>
 </g>
</svg>
