<?xml version="1.0" encoding="UTF-8"?>
<!DOCTYPE svg PUBLIC "-//W3C//DTD SVG 1.1//EN" "http://www.w3.org/Graphics/SVG/1.1/DTD/svg11.dtd">
<!-- Creator: CorelDRAW X7 -->
<svg xmlns="http://www.w3.org/2000/svg" xml:space="preserve" width="100%" height="100%" version="1.1" style="shape-rendering:geometricPrecision; text-rendering:geometricPrecision; image-rendering:optimizeQuality; fill-rule:evenodd; clip-rule:evenodd"
viewBox="0 0 1298 1806"
 xmlns:xlink="http://www.w3.org/1999/xlink">
 <defs>
  <style type="text/css">
   <![CDATA[
    .fil0 {fill:black}
   ]]>
  </style>
 </defs>
 <g id="Layer_x0020_1">
  <metadata id="CorelCorpID_0Corel-Layer"/>
  <path class="fil0" d="M508 0l0 113 -107 0 -21 85 -380 0 0 1608 1298 0 0 -1608 -380 0 -21 -85 -107 0 0 -113 -282 0zm-317 1461l91 91c13,-13 27,-26 40,-40l103 -103 -40 -40 -103 103 -51 -51 -40 40zm0 -282l91 91c13,-13 27,-27 40,-40l103 -103 -40 -40 -103 103 -51 -51 -40 40zm0 -282l91 91c13,-13 27,-27 40,-40l103 -103 -40 -40 -103 103 -51 -51 -40 40zm0 -283l91 92c13,-14 27,-27 40,-40l103 -103 -40 -40 -103 103 -51 -52 -40 40zm261 882l620 0 0 56 -620 0 0 -56zm0 -283l620 0 0 57 -620 0 0 -57zm0 -282l620 0 0 57 -620 0 0 -57zm0 -282l620 0 0 57 -620 0 0 -57zm516 -254l-36 -141 310 0 0 1496 -1185 0 0 -1496 309 0 -35 141 637 0zm-115 -226l42 170 -492 0 42 -170 119 0 0 -112 170 0 0 112 119 0z"/>
 </g>
</svg>
