<?xml version="1.0" encoding="UTF-8"?>
<!DOCTYPE svg PUBLIC "-//W3C//DTD SVG 1.1//EN" "http://www.w3.org/Graphics/SVG/1.1/DTD/svg11.dtd">
<!-- Creator: CorelDRAW X7 -->
<svg xmlns="http://www.w3.org/2000/svg" xml:space="preserve" width="100%" height="100%" version="1.1" style="shape-rendering:geometricPrecision; text-rendering:geometricPrecision; image-rendering:optimizeQuality; fill-rule:evenodd; clip-rule:evenodd"
viewBox="0 0 1355 1806"
 xmlns:xlink="http://www.w3.org/1999/xlink">
 <defs>
  <style type="text/css">
   <![CDATA[
    .fil0 {fill:black}
   ]]>
  </style>
 </defs>
 <g id="Layer_x0020_1">
  <metadata id="CorelCorpID_0Corel-Layer"/>
  <path class="fil0" d="M0 412l0 1394 1355 0 0 -1806 -943 0 -412 412zm247 1049l92 91c13,-13 26,-26 40,-40l103 -103 -40 -40 -103 103 -52 -51 -40 40zm0 -282l92 91c13,-13 26,-27 40,-40l103 -103 -40 -40 -103 103 -52 -51 -40 40zm0 -282l92 91c13,-13 26,-27 40,-40l103 -103 -40 -40 -103 103 -52 -51 -40 40zm0 -283l92 92c13,-14 26,-27 40,-40l103 -103 -40 -40 -103 103 -52 -52 -40 40zm261 882l621 0 0 56 -621 0 0 -56zm0 -283l621 0 0 57 -621 0 0 -57zm0 -282l621 0 0 57 -621 0 0 -57zm0 -282l621 0 0 57 -621 0 0 -57zm-113 -553l0 299 -299 0 299 -299zm903 1654l-1241 0 0 -1298 395 0 0 -395 846 0 0 1693z"/>
 </g>
</svg>
