<?xml version="1.0" encoding="UTF-8"?>
<!DOCTYPE svg PUBLIC "-//W3C//DTD SVG 1.1//EN" "http://www.w3.org/Graphics/SVG/1.1/DTD/svg11.dtd">
<!-- Creator: CorelDRAW X7 -->
<svg xmlns="http://www.w3.org/2000/svg" xml:space="preserve" width="100%" height="100%" version="1.1" style="shape-rendering:geometricPrecision; text-rendering:geometricPrecision; image-rendering:optimizeQuality; fill-rule:evenodd; clip-rule:evenodd"
viewBox="0 0 1298 1355"
 xmlns:xlink="http://www.w3.org/1999/xlink">
 <defs>
  <style type="text/css">
   <![CDATA[
    .fil0 {fill:black}
   ]]>
  </style>
 </defs>
 <g id="Layer_x0020_1">
  <metadata id="CorelCorpID_0Corel-Layer"/>
  <path class="fil0" d="M0 339l339 0 0 -339 -339 0 0 339zm0 1016l339 0 0 -339 -339 0 0 339zm959 0l339 0 0 -339 -339 0 0 339zm-479 0l338 0 0 -339 -338 0 0 339zm56 -282l226 0 0 225 -226 0 0 -225zm480 0l226 0 0 225 -226 0 0 -225zm-960 0l226 0 0 225 -226 0 0 -225zm-56 -226l339 0 0 -339 -339 0 0 339zm959 -508l339 0 0 -339 -339 0 0 339zm0 508l339 0 0 -339 -339 0 0 339zm-479 -508l338 0 0 -339 -338 0 0 339zm0 508l338 0 0 -339 -338 0 0 339zm56 -283l226 0 0 226 -226 0 0 -226zm0 -507l226 0 0 225 -226 0 0 -225zm480 507l226 0 0 226 -226 0 0 -226zm0 -507l226 0 0 225 -226 0 0 -225zm-960 507l226 0 0 226 -226 0 0 -226zm0 -507l226 0 0 225 -226 0 0 -225z"/>
 </g>
</svg>
