<?xml version="1.0" encoding="UTF-8"?>
<!DOCTYPE svg PUBLIC "-//W3C//DTD SVG 1.1//EN" "http://www.w3.org/Graphics/SVG/1.1/DTD/svg11.dtd">
<!-- Creator: CorelDRAW X7 -->
<svg xmlns="http://www.w3.org/2000/svg" xml:space="preserve" width="100%" height="100%" version="1.1" style="shape-rendering:geometricPrecision; text-rendering:geometricPrecision; image-rendering:optimizeQuality; fill-rule:evenodd; clip-rule:evenodd"
viewBox="0 0 960 1806"
 xmlns:xlink="http://www.w3.org/1999/xlink">
 <defs>
  <style type="text/css">
   <![CDATA[
    .fil0 {fill:black}
   ]]>
  </style>
 </defs>
 <g id="Layer_x0020_1">
  <metadata id="CorelCorpID_0Corel-Layer"/>
  <path class="fil0" d="M0 1806l960 0 0 -1806 -960 0 0 1806zm480 -282c-47,0 -85,38 -85,85 0,46 38,84 85,84 46,0 84,-38 84,-84 0,-47 -38,-85 -84,-85zm0 113c-16,0 -28,-13 -28,-28 0,-16 12,-29 28,-29 15,0 28,13 28,29 0,15 -13,28 -28,28zm-113 -1524l226 0 0 56 -226 0 0 -56zm-310 1637l0 -282 846 0 0 282 -846 0zm0 -339l0 -1129 846 0 0 1129 -846 0zm846 -1354l0 169 -846 0 0 -169 846 0z"/>
 </g>
</svg>
