<?xml version="1.0" encoding="UTF-8"?>
<!DOCTYPE svg PUBLIC "-//W3C//DTD SVG 1.1//EN" "http://www.w3.org/Graphics/SVG/1.1/DTD/svg11.dtd">
<!-- Creator: CorelDRAW X7 -->
<svg xmlns="http://www.w3.org/2000/svg" xml:space="preserve" width="100%" height="100%" version="1.1" style="shape-rendering:geometricPrecision; text-rendering:geometricPrecision; image-rendering:optimizeQuality; fill-rule:evenodd; clip-rule:evenodd"
viewBox="0 0 1298 1806"
 xmlns:xlink="http://www.w3.org/1999/xlink">
 <defs>
  <style type="text/css">
   <![CDATA[
    .fil0 {fill:black}
   ]]>
  </style>
 </defs>
 <g id="Layer_x0020_1">
  <metadata id="CorelCorpID_0Corel-Layer"/>
  <path class="fil0" d="M1213 593c0,-5 -5,-396 -423,-469l0 -124 -141 0 -141 0 0 124c-418,73 -423,464 -423,469 0,348 0,696 0,1044l-85 0 0 0 0 47 0 9c179,0 359,0 538,0l0 113 222 0 0 -113c179,0 359,0 538,0l0 -56 -85 0c0,-348 0,-696 0,-1044zm-479 -476c-27,-3 -55,-4 -85,-4 -30,0 -58,1 -85,4l0 -60 85 0 85 0 0 60zm-593 1520l0 -1044c0,-18 6,-424 508,-424 501,0 508,406 508,424l0 1044c-339,0 -677,0 -1016,0zm453 113l0 -57 110 0 0 57 -110 0z"/>
 </g>
</svg>
