<?xml version="1.0" encoding="UTF-8"?>
<!DOCTYPE svg PUBLIC "-//W3C//DTD SVG 1.1//EN" "http://www.w3.org/Graphics/SVG/1.1/DTD/svg11.dtd">
<!-- Creator: CorelDRAW X7 -->
<svg xmlns="http://www.w3.org/2000/svg" xml:space="preserve" width="100%" height="100%" version="1.1" style="shape-rendering:geometricPrecision; text-rendering:geometricPrecision; image-rendering:optimizeQuality; fill-rule:evenodd; clip-rule:evenodd"
viewBox="0 0 1129 1609"
 xmlns:xlink="http://www.w3.org/1999/xlink">
 <defs>
  <style type="text/css">
   <![CDATA[
    .fil0 {fill:black}
   ]]>
  </style>
 </defs>
 <g id="Layer_x0020_1">
  <metadata id="CorelCorpID_0Corel-Layer"/>
  <path class="fil0" d="M1129 734l0 -14 0 -127c0,-5 -5,-396 -424,-469l0 -124 -141 0 -141 0 0 124c-418,73 -423,464 -423,469l0 70 0 71 0 56 0 508 0 141 0 47 0 10 453 0 0 113 111 0 111 0 0 -113 279 0 152 0 23 0 0 -9 0 -48 0 -84 0 -57 0 -508 0 -56zm-480 -617c-27,-3 -55,-4 -85,-4 -29,0 -57,1 -84,4l0 -61 84 0 85 0 0 61zm-593 1322l0 -846c0,-18 6,-424 508,-424 501,0 508,406 508,424l0 846 -397 0 0 0 -111 0 -111 0 0 0 -397 0zm508 113l-54 0 0 -56 54 0 55 0 0 56 -55 0z"/>
 </g>
</svg>
