<?xml version="1.0" encoding="UTF-8"?>
<!DOCTYPE svg PUBLIC "-//W3C//DTD SVG 1.1//EN" "http://www.w3.org/Graphics/SVG/1.1/DTD/svg11.dtd">
<!-- Creator: CorelDRAW X7 -->
<svg xmlns="http://www.w3.org/2000/svg" xml:space="preserve" width="100%" height="100%" version="1.1" style="shape-rendering:geometricPrecision; text-rendering:geometricPrecision; image-rendering:optimizeQuality; fill-rule:evenodd; clip-rule:evenodd"
viewBox="0 0 1806 1813"
 xmlns:xlink="http://www.w3.org/1999/xlink">
 <defs>
  <style type="text/css">
   <![CDATA[
    .fil0 {fill:black}
   ]]>
  </style>
 </defs>
 <g id="Layer_x0020_1">
  <metadata id="CorelCorpID_0Corel-Layer"/>
  <path class="fil0" d="M1213 412l-355 -356 -858 0 0 1694 1213 0 0 -1338zm-987 886l762 0 0 57 -762 0 0 -57zm0 -226l762 0 0 57 -762 0 0 -57zm0 -225l762 0 0 56 -762 0 0 -56zm0 -226l762 0 0 56 -762 0 0 -56zm0 -282l338 0 0 56 -338 0 0 -56zm1580 -339l-282 0 0 1531 141 282 141 -282 0 -1531zm-56 56l0 226 -170 0 0 -226 170 0zm-85 1631l-85 -170 0 -1178 170 0 0 1178 -85 170zm-790 -1534l242 242 -242 0 0 -242zm-818 1540l0 -1580 761 0 0 339 339 0 0 1241 -1100 0z"/>
 </g>
</svg>
