<?xml version="1.0" encoding="UTF-8"?>
<!DOCTYPE svg PUBLIC "-//W3C//DTD SVG 1.1//EN" "http://www.w3.org/Graphics/SVG/1.1/DTD/svg11.dtd">
<!-- Creator: CorelDRAW X7 -->
<svg xmlns="http://www.w3.org/2000/svg" xml:space="preserve" width="100%" height="100%" version="1.1" style="shape-rendering:geometricPrecision; text-rendering:geometricPrecision; image-rendering:optimizeQuality; fill-rule:evenodd; clip-rule:evenodd"
viewBox="0 0 1806 1806"
 xmlns:xlink="http://www.w3.org/1999/xlink">
 <defs>
  <style type="text/css">
   <![CDATA[
    .fil0 {fill:black}
   ]]>
  </style>
 </defs>
 <g id="Layer_x0020_1">
  <metadata id="CorelCorpID_0Corel-Layer"/>
  <path class="fil0" d="M903 677c-60,0 -117,24 -159,66 -7,7 -13,14 -19,22l-1 0 0 1 -1 1 0 0 0 0 -1 1 0 1 0 0 -1 1 -1 0 0 1 0 0 -1 1 0 1 -1 0 0 0 0 1 -1 1 0 1 0 0 -1 0 0 1 -1 1 0 0 0 1 -1 0 0 1 0 0 -1 1 0 1 -1 0 0 1 0 0 -1 1 -1 2 0 0 -1 1 0 0 0 1 -1 1 0 0 0 1 0 0 -1 1 0 1 0 0 -1 1 0 0 -1 1 0 0 0 1 -1 1 0 1 0 0 0 0 -1 1 0 1 0 0 -1 1 0 1 -1 0 0 1 0 0 0 1 -1 1 0 0 -1 2 0 0 0 1 0 0 -1 2 0 0 0 1 -1 0 0 1 0 1 -1 0 0 1 0 1 0 0 -1 1c-11,27 -18,57 -18,88 0,60 24,117 67,160 42,42 99,66 159,66 60,0 117,-24 160,-66 43,-43 66,-100 66,-160 0,-60 -23,-117 -66,-160 -43,-42 -100,-66 -160,-66zm0 -677c241,0 468,94 639,265 170,170 264,397 264,638 0,241 -94,468 -264,639 -171,170 -398,264 -639,264 -241,0 -468,-94 -638,-264 -171,-171 -265,-398 -265,-639 0,-241 94,-468 265,-638 170,-171 397,-265 638,-265zm-599 1502c160,160 373,248 599,248 226,0 439,-88 599,-248 160,-160 248,-373 248,-599 0,-226 -88,-439 -248,-599 -160,-159 -373,-248 -599,-248 -226,0 -439,89 -599,248 -159,160 -247,373 -247,599 0,226 88,439 247,599zm719 -479c-32,32 -75,49 -120,49 -45,0 -88,-17 -120,-49 -31,-32 -49,-75 -49,-120 0,-45 18,-88 49,-120 32,-32 75,-49 120,-49 45,0 88,17 120,49 32,32 50,75 50,120 0,45 -18,88 -50,120z"/>
 </g>
</svg>
