<?xml version="1.0" encoding="UTF-8"?>
<!DOCTYPE svg PUBLIC "-//W3C//DTD SVG 1.1//EN" "http://www.w3.org/Graphics/SVG/1.1/DTD/svg11.dtd">
<!-- Creator: CorelDRAW X7 -->
<svg xmlns="http://www.w3.org/2000/svg" xml:space="preserve" width="100%" height="100%" version="1.1" style="shape-rendering:geometricPrecision; text-rendering:geometricPrecision; image-rendering:optimizeQuality; fill-rule:evenodd; clip-rule:evenodd"
viewBox="0 0 1806 1242"
 xmlns:xlink="http://www.w3.org/1999/xlink">
 <defs>
  <style type="text/css">
   <![CDATA[
    .fil0 {fill:black}
   ]]>
  </style>
 </defs>
 <g id="Layer_x0020_1">
  <metadata id="CorelCorpID_0Corel-Layer"/>
  <g id="_2107307856432">
   <path class="fil0" d="M621 57l0 0c155,0 296,63 399,165 102,103 165,244 165,399l0 0c0,155 -63,296 -165,399 -103,102 -244,165 -399,165l0 0c-155,0 -296,-63 -399,-165 -102,-103 -165,-244 -165,-399l0 0c0,-155 63,-296 165,-399 103,-102 244,-165 399,-165zm0 -57l0 0c342,0 621,279 621,621l0 0c0,341 -279,621 -621,621l0 0c-342,0 -621,-280 -621,-621l0 0c0,-342 279,-621 621,-621z"/>
   <path class="fil0" d="M927 1185l255 0 3 0 4 0c153,-1 293,-64 395,-165 101,-102 165,-242 166,-396l0 -3 0 -3c-1,-154 -65,-294 -166,-396 -101,-101 -241,-164 -394,-165l-5 0 -5 0 -253 0 -48 0 -253 0 -5 0 -5 0c-153,1 -292,64 -394,165 -102,103 -165,244 -165,399 0,155 63,296 165,399 102,101 242,164 396,165l3 0 3 0 255 0 48 0zm-871 -822c62,-135 172,-244 307,-306 79,-37 166,-57 258,-57l9 0 555 0c92,0 180,20 258,57 135,62 245,171 307,306 36,79 56,166 56,258 0,92 -20,179 -56,258 -62,135 -172,244 -307,306 -78,37 -166,57 -258,57l-8 0 -556 0c-92,0 -179,-20 -258,-57 -135,-62 -245,-171 -307,-306 -36,-79 -56,-166 -56,-258 0,-92 20,-179 56,-258z"/>
  </g>
 </g>
</svg>
