<?xml version="1.0" encoding="UTF-8"?>
<!DOCTYPE svg PUBLIC "-//W3C//DTD SVG 1.1//EN" "http://www.w3.org/Graphics/SVG/1.1/DTD/svg11.dtd">
<!-- Creator: CorelDRAW X7 -->
<svg xmlns="http://www.w3.org/2000/svg" xml:space="preserve" width="100%" height="100%" version="1.1" style="shape-rendering:geometricPrecision; text-rendering:geometricPrecision; image-rendering:optimizeQuality; fill-rule:evenodd; clip-rule:evenodd"
viewBox="0 0 1795 1632"
 xmlns:xlink="http://www.w3.org/1999/xlink">
 <defs>
  <style type="text/css">
   <![CDATA[
    .fil0 {fill:black}
   ]]>
  </style>
 </defs>
 <g id="Layer_x0020_1">
  <metadata id="CorelCorpID_0Corel-Layer"/>
  <path class="fil0" d="M113 1463l0 -57 57 0 112 0 57 0 113 0 56 0 113 0 56 0 113 0 57 0 51 0 51 0 56 0 113 0 56 0 113 0 57 0 113 0 56 0 113 0 56 0 0 57 -1569 0zm1626 57l0 55 -841 0 -841 0 0 -55 1682 0zm-1457 -760l-112 0 0 590 112 0 0 -590zm-112 -57l112 0 0 -56 -112 0 0 56zm451 57l-113 0 0 590 113 0 0 -590zm-113 -57l113 0 0 -56 -113 0 0 56zm441 57l-102 0 0 590 51 0 51 0 0 -590zm-102 -57l102 0 0 -56 -51 0 -51 0 0 56zm440 57l-113 0 0 590 113 0 0 -590zm-113 -57l113 0 0 -56 -113 0 0 56zm452 57l-113 0 0 590 113 0 0 -590zm-113 -57l113 0 0 -56 -113 0 0 56zm-615 -113l-637 0 637 -517 636 517 -636 0zm0 -590l-785 638 0 9 0 178 0 525 -56 0 0 56 0 57 -57 0 0 169 898 0 897 0 0 -169 -56 0 0 -57 0 -56 -57 0 0 -538 0 -165 0 -9 -784 -638zm559 647l-113 0 0 703 113 0 0 -703zm-339 0l-113 0 0 703 113 0 0 -703zm-779 0l113 0 0 703 -113 0 0 -703zm338 0l113 0 0 703 -113 0 0 -703z"/>
 </g>
</svg>
