<?xml version="1.0" encoding="UTF-8"?>
<!DOCTYPE svg PUBLIC "-//W3C//DTD SVG 1.1//EN" "http://www.w3.org/Graphics/SVG/1.1/DTD/svg11.dtd">
<!-- Creator: CorelDRAW X7 -->
<svg xmlns="http://www.w3.org/2000/svg" xml:space="preserve" width="100%" height="100%" version="1.1" style="shape-rendering:geometricPrecision; text-rendering:geometricPrecision; image-rendering:optimizeQuality; fill-rule:evenodd; clip-rule:evenodd"
viewBox="0 0 1806 1632"
 xmlns:xlink="http://www.w3.org/1999/xlink">
 <defs>
  <style type="text/css">
   <![CDATA[
    .fil0 {fill:black}
   ]]>
  </style>
 </defs>
 <g id="Layer_x0020_1">
  <metadata id="CorelCorpID_0Corel-Layer"/>
  <path class="fil0" d="M0 490l0 14 0 1071 0 57 57 0 451 0 57 0 676 0 57 0 452 0 56 0 0 -57 0 -1071 0 -30 0 -26 -226 0 0 -193 -648 0 0 -86 169 0 56 0 0 -56 0 -57 0 -56 -56 0 -169 0 -30 0 -26 0 0 255 -2 0 -648 0 0 193 -226 0 0 42zm1636 803l0 57c-94,0 -188,0 -282,0l0 -57c94,0 188,0 282,0zm-507 282l112 0 0 -84 0 -56 57 0 452 0 0 -931 -1693 0 0 931 451 0 57 0 0 56 0 84 113 0 0 -175 0 -219 450 0c0,131 0,263 1,394zm507 -394l0 56c-94,0 -188,0 -282,0l0 -56c94,0 188,0 282,0zm0 -113l0 56c-94,0 -188,0 -282,0l0 -56c94,0 188,0 282,0zm-338 0l0 56c-94,0 -188,0 -282,0l0 -56c94,0 188,0 282,0zm-508 0l0 56c-94,0 -188,0 -282,0l0 -56c94,0 188,0 282,0zm846 -113l0 57c-94,0 -188,0 -282,0l0 -57c94,0 188,0 282,0zm-338 0l0 57c-94,0 -188,0 -282,0l0 -57c94,0 188,0 282,0zm-508 0l0 57c-94,0 -188,0 -282,0l0 -57c94,0 188,0 282,0zm846 -112l0 56c-94,0 -188,0 -282,0l0 -56c94,0 188,0 282,0zm-338 0l0 56c-94,0 -188,0 -282,0l0 -56c94,0 188,0 282,0zm-508 0l0 56c-94,0 -188,0 -282,0l0 -56c94,0 188,0 282,0zm846 -113l0 56c-94,0 -188,0 -282,0l0 -56c94,0 188,0 282,0zm-338 0l0 56c-94,0 -188,0 -282,0l0 -56c94,0 188,0 282,0zm-508 0l0 56c-94,0 -188,0 -282,0l0 -56c94,0 188,0 282,0zm846 -113l0 56c-94,0 -188,0 -282,0l0 -56c94,0 188,0 282,0zm-338 0l0 56c-94,0 -188,0 -282,0l0 -56c94,0 188,0 282,0zm-508 0l0 56c-94,0 -188,0 -282,0l0 -56c94,0 188,0 282,0zm-338 676l0 57c-94,0 -188,0 -282,0l0 -57c94,0 188,0 282,0zm0 -112l0 56c-94,0 -188,0 -282,0l0 -56c94,0 188,0 282,0zm0 -113l0 56c-94,0 -188,0 -282,0l0 -56c94,0 188,0 282,0zm0 -113l0 57c-94,0 -188,0 -282,0l0 -57c94,0 188,0 282,0zm0 -112l0 56c-94,0 -188,0 -282,0l0 -56c94,0 188,0 282,0zm0 -113l0 56c-94,0 -188,0 -282,0l0 -56c94,0 188,0 282,0zm0 -113l0 56c-94,0 -188,0 -282,0l0 -56c94,0 188,0 282,0zm-169 -169l1240 0 0 -137 -1240 0 0 137zm818 -335l0 -57 -169 0 0 57 169 0zm649 1462l-452 0 0 -84 452 0 0 84zm-1693 0l0 -84 451 0 0 84 -451 0zm677 0l0 -338 141 0 0 338 -141 0zm197 0l0 -338 141 0 0 338 -141 0z"/>
 </g>
</svg>
