<?xml version="1.0" encoding="UTF-8"?>
<!DOCTYPE svg PUBLIC "-//W3C//DTD SVG 1.1//EN" "http://www.w3.org/Graphics/SVG/1.1/DTD/svg11.dtd">
<!-- Creator: CorelDRAW X7 -->
<svg xmlns="http://www.w3.org/2000/svg" xml:space="preserve" width="100%" height="100%" version="1.1" style="shape-rendering:geometricPrecision; text-rendering:geometricPrecision; image-rendering:optimizeQuality; fill-rule:evenodd; clip-rule:evenodd"
viewBox="0 0 1806 1632"
 xmlns:xlink="http://www.w3.org/1999/xlink">
 <defs>
  <style type="text/css">
   <![CDATA[
    .fil0 {fill:black}
   ]]>
  </style>
 </defs>
 <g id="Layer_x0020_1">
  <metadata id="CorelCorpID_0Corel-Layer"/>
  <path class="fil0" d="M0 490l0 14 0 1071 0 57c602,0 1204,0 1806,0l0 -1128 0 -30 0 -26 -226 0 0 -193 -648 0 0 -86 169 0 56 0 0 -56 0 -57 0 -56 -56 0 -169 0 -30 0 -26 0 0 255 -2 0 -648 0 0 193 -226 0 0 42zm170 127l56 0 57 0 0 56 -57 0 -56 0 0 -56zm1466 0l-56 0 -57 0 0 56 57 0 56 0 0 -56zm-169 0l-56 0 -57 0 0 56 57 0 56 0 0 -56zm-169 0l-57 0 -56 0 0 56 56 0 57 0 0 -56zm-169 0l-57 0 -56 0 0 56 56 0 57 0 0 -56zm-170 0l-56 0 -56 0 0 56 56 0 56 0 0 -56zm-169 0l-56 0 -56 0 0 56 56 0 56 0 0 -56zm-169 0l-56 0 -57 0 0 56 57 0 56 0 0 -56zm-169 0l-56 0 -57 0 0 56 57 0 56 0 0 -56zm-282 113l56 0 57 0 0 56 -57 0 -56 0 0 -56zm1466 0l-56 0 -57 0 0 56 57 0 56 0 0 -56zm-169 0l-56 0 -57 0 0 56 57 0 56 0 0 -56zm-169 0l-57 0 -56 0 0 56 56 0 57 0 0 -56zm-169 0l-57 0 -56 0 0 56 56 0 57 0 0 -56zm-170 0l-56 0 -56 0 0 56 56 0 56 0 0 -56zm-169 0l-56 0 -56 0 0 56 56 0 56 0 0 -56zm-169 0l-56 0 -57 0 0 56 57 0 56 0 0 -56zm-169 0l-56 0 -57 0 0 56 57 0 56 0 0 -56zm-282 113l56 0 57 0 0 56 -57 0 -56 0 0 -56zm1466 0l-56 0 -57 0 0 56 57 0 56 0 0 -56zm-169 0l-56 0 -57 0 0 56 57 0 56 0 0 -56zm-169 0l-57 0 -56 0 0 56 56 0 57 0 0 -56zm-169 0l-57 0 -56 0 0 56 56 0 57 0 0 -56zm-170 0l-56 0 -56 0 0 56 56 0 56 0 0 -56zm-169 0l-56 0 -56 0 0 56 56 0 56 0 0 -56zm-169 0l-56 0 -57 0 0 56 57 0 56 0 0 -56zm-169 0l-56 0 -57 0 0 56 57 0 56 0 0 -56zm-282 112l56 0 57 0 0 57 -57 0 -56 0 0 -57zm1466 0l-56 0 -57 0 0 57 57 0 56 0 0 -57zm-169 0l-56 0 -57 0 0 57 57 0 56 0 0 -57zm-169 0l-57 0 -56 0 0 57 56 0 57 0 0 -57zm-169 0l-57 0 -56 0 0 57 56 0 57 0 0 -57zm-170 0l-56 0 -56 0 0 57 56 0 56 0 0 -57zm-169 0l-56 0 -56 0 0 57 56 0 56 0 0 -57zm-169 0l-56 0 -57 0 0 57 57 0 56 0 0 -57zm-169 0l-56 0 -57 0 0 57 57 0 56 0 0 -57zm-282 113l56 0 57 0 0 56 -57 0 -56 0 0 -56zm1466 0l-56 0 -57 0 0 56 57 0 56 0 0 -56zm-169 0l-56 0 -57 0 0 56 57 0 56 0 0 -56zm-169 0l-57 0 -56 0 0 56 56 0 57 0 0 -56zm-169 0l-57 0 -56 0 0 56 56 0 57 0 0 -56zm-170 0l-56 0 -56 0 0 56 56 0 56 0 0 -56zm-169 0l-56 0 -56 0 0 56 56 0 56 0 0 -56zm-169 0l-56 0 -57 0 0 56 57 0 56 0 0 -56zm-169 0l-56 0 -57 0 0 56 57 0 56 0 0 -56zm-282 113l56 0 57 0 0 56 -57 0 -56 0 0 -56zm1466 0l-56 0 -57 0 0 56 57 0 56 0 0 -56zm-169 0l-56 0 -57 0 0 56 57 0 56 0 0 -56zm-169 0l-57 0 -56 0 0 56 56 0 57 0 0 -56zm-677 0l-56 0 -57 0 0 56 57 0 56 0 0 -56zm-169 0l-56 0 -57 0 0 56 57 0 56 0 0 -56zm-282 112l56 0 57 0 0 57 -57 0 -56 0 0 -57zm1466 0l-56 0 -57 0 0 57 57 0 56 0 0 -57zm-169 0l-56 0 -57 0 0 57 57 0 56 0 0 -57zm-169 0l-57 0 -56 0 0 57 56 0 57 0 0 -57zm-677 0l-56 0 -57 0 0 57 57 0 56 0 0 -57zm-169 0l-56 0 -57 0 0 57 57 0 56 0 0 -57zm1298 -789c0,357 0,714 0,1071 -207,0 -414,0 -621,0l-1 -394 -450 0 0 394c-207,0 -414,0 -621,0 0,-357 0,-714 0,-1071l1693 0zm-1467 -56l1240 0 0 -137 -1240 0 0 137zm818 -335l0 -57 -169 0 0 57 169 0zm-367 1462l0 -338 141 0 0 338 -141 0zm197 0l0 -338 141 0 0 338 -141 0z"/>
 </g>
</svg>
