<?xml version="1.0" encoding="UTF-8"?>
<!DOCTYPE svg PUBLIC "-//W3C//DTD SVG 1.1//EN" "http://www.w3.org/Graphics/SVG/1.1/DTD/svg11.dtd">
<!-- Creator: CorelDRAW X7 -->
<svg xmlns="http://www.w3.org/2000/svg" xml:space="preserve" width="100%" height="100%" version="1.1" style="shape-rendering:geometricPrecision; text-rendering:geometricPrecision; image-rendering:optimizeQuality; fill-rule:evenodd; clip-rule:evenodd"
viewBox="0 0 1411 1806"
 xmlns:xlink="http://www.w3.org/1999/xlink">
 <defs>
  <style type="text/css">
   <![CDATA[
    .fil0 {fill:black}
   ]]>
  </style>
 </defs>
 <g id="Layer_x0020_1">
  <metadata id="CorelCorpID_0Corel-Layer"/>
  <path class="fil0" d="M282 480c0,-234 190,-423 424,-423 233,0 423,189 423,423l0 84 56 0 0 -84c0,-265 -215,-480 -479,-480 -265,0 -480,215 -480,480l0 423 -226 0 0 903 1411 0 0 -903 -1129 0 0 -423zm395 985l0 87 57 0 0 -87c64,-13 113,-70 113,-138 0,-78 -64,-142 -141,-142 -78,0 -142,64 -142,142 0,68 49,125 113,138zm29 -223c46,0 84,38 84,85 0,46 -38,84 -84,84 -47,0 -85,-38 -85,-84 0,-47 38,-85 85,-85zm649 508l-1298 0 0 -790 1298 0 0 790z"/>
 </g>
</svg>
