<?xml version="1.0" encoding="UTF-8"?>
<!DOCTYPE svg PUBLIC "-//W3C//DTD SVG 1.1//EN" "http://www.w3.org/Graphics/SVG/1.1/DTD/svg11.dtd">
<!-- Creator: CorelDRAW X7 -->
<svg xmlns="http://www.w3.org/2000/svg" xml:space="preserve" width="100%" height="100%" version="1.1" style="shape-rendering:geometricPrecision; text-rendering:geometricPrecision; image-rendering:optimizeQuality; fill-rule:evenodd; clip-rule:evenodd"
viewBox="0 0 1355 1806"
 xmlns:xlink="http://www.w3.org/1999/xlink">
 <defs>
  <style type="text/css">
   <![CDATA[
    .fil0 {fill:black}
   ]]>
  </style>
 </defs>
 <g id="Layer_x0020_1">
  <metadata id="CorelCorpID_0Corel-Layer"/>
  <path class="fil0" d="M0 412l0 1394 1355 0 0 -1806 -943 0 -412 412zm884 693l0 -404 227 0 0 68 -160 0 0 96 139 0 0 69 -139 0 0 171 -67 0zm-335 -404l122 0c31,0 54,4 70,10 16,7 30,19 43,35 13,17 24,38 31,64 8,26 12,58 12,97 0,35 -4,66 -12,91 -8,26 -18,47 -30,62 -12,15 -27,26 -44,34 -17,7 -40,11 -67,11l-125 0 0 -404zm67 68l0 268 50 0c21,0 37,-2 47,-6 9,-4 17,-10 23,-18 6,-9 12,-22 16,-39 4,-18 6,-41 6,-70 0,-30 -2,-53 -6,-71 -5,-17 -11,-31 -20,-41 -9,-9 -19,-16 -32,-19 -9,-2 -27,-4 -54,-4l-30 0zm-375 336l0 -404 107 0c40,0 67,2 79,6 20,6 36,19 49,40 12,20 19,47 19,79 0,29 -6,53 -17,73 -11,20 -25,34 -41,42 -17,8 -45,12 -86,12l-44 0 0 152 -66 0zm66 -336l0 115 38 0c24,0 41,-1 50,-5 9,-3 17,-10 22,-19 6,-9 9,-20 9,-33 0,-14 -3,-25 -9,-34 -6,-10 -13,-16 -22,-19 -8,-3 -27,-5 -55,-5l-33 0zm88 -673l0 299 -299 0 299 -299zm903 1654l-1241 0 0 -1298 395 0 0 -395 846 0 0 1693z"/>
 </g>
</svg>
