<?xml version="1.0" encoding="UTF-8"?>
<!DOCTYPE svg PUBLIC "-//W3C//DTD SVG 1.1//EN" "http://www.w3.org/Graphics/SVG/1.1/DTD/svg11.dtd">
<!-- Creator: CorelDRAW X7 -->
<svg xmlns="http://www.w3.org/2000/svg" xml:space="preserve" width="100%" height="100%" version="1.1" style="shape-rendering:geometricPrecision; text-rendering:geometricPrecision; image-rendering:optimizeQuality; fill-rule:evenodd; clip-rule:evenodd"
viewBox="0 0 1355 1806"
 xmlns:xlink="http://www.w3.org/1999/xlink">
 <defs>
  <style type="text/css">
   <![CDATA[
    .fil0 {fill:black}
   ]]>
  </style>
 </defs>
 <g id="Layer_x0020_1">
  <metadata id="CorelCorpID_0Corel-Layer"/>
  <path class="fil0" d="M0 412l0 1394 1355 0 0 -1806 -943 0 -412 412zm889 693l0 -404 223 0 0 47 -179 0 0 126 155 0 0 48 -155 0 0 183 -44 0zm-338 0l0 -404 114 0c28,0 50,2 64,7 20,7 36,19 50,36 15,17 26,38 33,64 8,26 12,57 12,93 0,46 -6,85 -20,116 -13,32 -30,55 -51,68 -21,13 -49,20 -83,20l-119 0zm44 -47l70 0c28,0 50,-5 65,-14 14,-9 26,-24 33,-45 11,-28 16,-60 16,-99 0,-41 -5,-73 -16,-96 -12,-24 -26,-40 -43,-48 -12,-5 -31,-8 -56,-8l-69 0 0 310zm-352 47l0 -404 124 0c30,0 52,3 66,8 19,7 34,20 45,39 12,18 17,42 17,69 0,36 -9,66 -27,89 -19,23 -51,34 -97,34l-84 0 0 165 -44 0zm44 -212l85 0c27,0 47,-6 59,-18 13,-13 19,-31 19,-56 0,-16 -3,-29 -9,-41 -6,-11 -14,-19 -22,-23 -9,-4 -25,-7 -48,-7l-84 0 0 145zm108 -797l0 299 -299 0 299 -299zm903 1654l-1241 0 0 -1298 395 0 0 -395 846 0 0 1693z"/>
 </g>
</svg>
