<?xml version="1.0" encoding="UTF-8"?>
<!DOCTYPE svg PUBLIC "-//W3C//DTD SVG 1.1//EN" "http://www.w3.org/Graphics/SVG/1.1/DTD/svg11.dtd">
<!-- Creator: CorelDRAW X7 -->
<svg xmlns="http://www.w3.org/2000/svg" xml:space="preserve" width="100%" height="100%" version="1.1" style="shape-rendering:geometricPrecision; text-rendering:geometricPrecision; image-rendering:optimizeQuality; fill-rule:evenodd; clip-rule:evenodd"
viewBox="0 0 1806 1806"
 xmlns:xlink="http://www.w3.org/1999/xlink">
 <defs>
  <style type="text/css">
   <![CDATA[
    .fil0 {fill:black}
   ]]>
  </style>
 </defs>
 <g id="Layer_x0020_1">
  <metadata id="CorelCorpID_0Corel-Layer"/>
  <path class="fil0" d="M903 0c-241,0 -468,94 -638,265 -171,170 -265,397 -265,638 0,241 94,468 265,639 170,170 397,264 638,264 241,0 468,-94 639,-264 170,-171 264,-398 264,-639 0,-241 -94,-468 -264,-638 -171,-171 -398,-265 -639,-265zm452 523c0,162 -158,276 -311,229l-1 58c186,47 368,-94 368,-287 0,-164 -133,-297 -296,-297 -139,0 -256,96 -288,225 18,7 36,16 52,27 21,-111 119,-195 236,-195 132,0 240,107 240,240zm240 832c0,-300 -273,-526 -567,-472 -7,23 -17,44 -28,65 268,-76 538,126 538,407l0 108c-12,13 -24,26 -36,39 -95,94 -207,164 -331,205l0 -98c0,-265 -215,-480 -479,-480 -204,0 -378,127 -448,306 -121,-150 -187,-336 -187,-532 0,-226 88,-439 247,-599 160,-159 373,-247 599,-247 226,0 439,88 599,247 160,160 248,373 248,599 0,178 -55,347 -155,489l0 -37zm-1308 129c54,-173 215,-298 405,-298 233,0 423,190 423,423l0 114c-68,18 -139,27 -212,27 -226,0 -439,-88 -599,-248 -5,-6 -11,-12 -17,-18zm644 -708c0,133 -108,240 -240,240 -132,0 -239,-107 -239,-240 0,-139 117,-248 257,-239l37 6c106,24 185,119 185,233zm-167 -287c-246,-60 -437,186 -346,402 38,90 113,151 208,174l34 6c175,18 328,-119 328,-295 0,-138 -96,-255 -224,-287z"/>
 </g>
</svg>
