<?xml version="1.0" encoding="UTF-8"?>
<!DOCTYPE svg PUBLIC "-//W3C//DTD SVG 1.1//EN" "http://www.w3.org/Graphics/SVG/1.1/DTD/svg11.dtd">
<!-- Creator: CorelDRAW X7 -->
<svg xmlns="http://www.w3.org/2000/svg" xml:space="preserve" width="100%" height="100%" version="1.1" style="shape-rendering:geometricPrecision; text-rendering:geometricPrecision; image-rendering:optimizeQuality; fill-rule:evenodd; clip-rule:evenodd"
viewBox="0 0 1637 1552"
 xmlns:xlink="http://www.w3.org/1999/xlink">
 <defs>
  <style type="text/css">
   <![CDATA[
    .fil0 {fill:black}
   ]]>
  </style>
 </defs>
 <g id="Layer_x0020_1">
  <metadata id="CorelCorpID_0Corel-Layer"/>
  <path class="fil0" d="M1580 1129l0 367 -564 0 0 56 621 0 0 -56 0 -367c0,-265 -215,-480 -480,-480 -112,0 -215,39 -296,103 13,13 26,27 37,42 72,-55 162,-88 259,-88 233,0 423,190 423,423zm-423 -1072c132,0 240,107 240,239 0,133 -108,240 -240,240 -132,0 -240,-107 -240,-240 0,-132 108,-239 240,-239zm0 -57c-164,0 -296,133 -296,296 0,164 132,297 296,297 163,0 296,-133 296,-297 0,-163 -133,-296 -296,-296zm-254 1129l0 367 -846 0 0 -367c0,-233 189,-423 423,-423 120,0 229,50 306,131l0 0c3,3 5,5 7,8l0 0 0 0c2,2 4,4 6,6l1 1 0 0 0 1 6 7 0 0 1 0 5 7 1 1 0 0 0 1c57,72 90,162 90,260zm57 423l0 -423c0,-112 -39,-216 -104,-297l0 0c-2,-3 -4,-5 -6,-8l0 0 -1 -1c-2,-2 -4,-5 -6,-8 -3,-3 -6,-6 -8,-8l0 0 -1 -1c-2,-2 -4,-5 -6,-7l-1 -1 0 0 -1 0c-2,-3 -4,-5 -6,-7l-1 -1 0 0 -1 -1c-86,-86 -206,-140 -338,-140 -265,0 -480,215 -480,480l0 423c320,0 640,0 960,0zm-480 -1495c132,0 240,107 240,239 0,133 -108,240 -240,240 -133,0 -240,-107 -240,-240 0,-132 107,-239 240,-239zm0 -57c-164,0 -297,133 -297,296 0,164 133,297 297,297 163,0 296,-133 296,-297 0,-163 -133,-296 -296,-296z"/>
 </g>
</svg>
