<?xml version="1.0" encoding="UTF-8"?>
<!DOCTYPE svg PUBLIC "-//W3C//DTD SVG 1.1//EN" "http://www.w3.org/Graphics/SVG/1.1/DTD/svg11.dtd">
<!-- Creator: CorelDRAW X7 -->
<svg xmlns="http://www.w3.org/2000/svg" xml:space="preserve" width="100%" height="100%" version="1.1" style="shape-rendering:geometricPrecision; text-rendering:geometricPrecision; image-rendering:optimizeQuality; fill-rule:evenodd; clip-rule:evenodd"
viewBox="0 0 1637 1552"
 xmlns:xlink="http://www.w3.org/1999/xlink">
 <defs>
  <style type="text/css">
   <![CDATA[
    .fil0 {fill:black}
   ]]>
  </style>
 </defs>
 <g id="Layer_x0020_1">
  <metadata id="CorelCorpID_0Corel-Layer"/>
  <path class="fil0" d="M57 1129l0 367 564 0 0 56 -621 0 0 -56 0 -367c0,-265 215,-480 480,-480 112,0 214,39 296,103 -13,13 -26,27 -38,42 -71,-55 -161,-88 -258,-88 -234,0 -423,190 -423,423zm423 -1072c-132,0 -240,107 -240,239 0,133 108,240 240,240 132,0 240,-107 240,-240 0,-132 -108,-239 -240,-239zm0 -57c163,0 296,133 296,296 0,164 -133,297 -296,297 -164,0 -297,-133 -297,-297 0,-163 133,-296 297,-296zm254 1129l0 367 846 0 0 -367c0,-233 -190,-423 -423,-423 -120,0 -229,50 -306,131l-1 0c-2,3 -4,5 -6,8l0 0 0 0c-2,2 -4,4 -6,6l-1 1 0 0 -1 1 -5 7 -1 0 0 0 -6 7 0 1 0 0 -1 1c-56,72 -89,162 -89,260zm-57 423l0 -423c0,-112 39,-216 104,-297l0 0c2,-3 4,-5 6,-8l0 0 0 -1c3,-2 5,-5 7,-8 3,-3 5,-6 8,-8l0 0 1 -1c2,-2 4,-5 6,-7l1 -1 0 0 0 0c3,-3 5,-5 7,-7l1 -1 0 0 0 -1c87,-86 207,-140 339,-140 265,0 480,215 480,480l0 423c-320,0 -640,0 -960,0zm480 -1495c-132,0 -240,107 -240,239 0,133 108,240 240,240 132,0 240,-107 240,-240 0,-132 -108,-239 -240,-239zm0 -57c164,0 296,133 296,296 0,164 -132,297 -296,297 -163,0 -296,-133 -296,-297 0,-163 133,-296 296,-296z"/>
 </g>
</svg>
