<?xml version="1.0" encoding="UTF-8"?>
<!DOCTYPE svg PUBLIC "-//W3C//DTD SVG 1.1//EN" "http://www.w3.org/Graphics/SVG/1.1/DTD/svg11.dtd">
<!-- Creator: CorelDRAW X7 -->
<svg xmlns="http://www.w3.org/2000/svg" xml:space="preserve" width="100%" height="100%" version="1.1" style="shape-rendering:geometricPrecision; text-rendering:geometricPrecision; image-rendering:optimizeQuality; fill-rule:evenodd; clip-rule:evenodd"
viewBox="0 0 1806 1806"
 xmlns:xlink="http://www.w3.org/1999/xlink">
 <defs>
  <style type="text/css">
   <![CDATA[
    .fil0 {fill:black}
   ]]>
  </style>
 </defs>
 <g id="Layer_x0020_1">
  <metadata id="CorelCorpID_0Corel-Layer"/>
  <path class="fil0" d="M391 969c-191,41 -334,211 -334,414l0 367 310 0 0 56 -310 0 -19 0 -38 0 0 -423c0,-243 181,-444 415,-476 -9,20 -17,41 -24,62zm272 -673c0,133 108,240 240,240 25,0 49,-4 71,-11 0,9 0,17 0,25 0,12 0,23 1,34 -23,6 -47,9 -72,9 -163,0 -296,-133 -296,-297 0,-163 133,-296 296,-296 139,0 255,96 288,224 -18,8 -36,17 -52,27 -21,-110 -119,-194 -236,-194 -132,0 -240,107 -240,239zm-240 833c0,-265 216,-480 480,-480 30,0 59,3 87,8 7,23 17,44 28,65 -37,-11 -75,-16 -115,-16 -233,0 -423,190 -423,423l0 621 310 0 0 56 -310 0 -30 0 -27 0 0 -677zm480 254l0 367 847 0 0 -367c0,-234 -190,-423 -424,-423 -233,0 -423,189 -423,423zm-56 423l0 -423c0,-265 215,-480 479,-480 265,0 480,215 480,480l0 423c-320,0 -640,0 -959,0zm425 -1490c-3,1 -7,2 -11,3l0 0 -6 2 0 0c-97,31 -168,122 -168,229 0,130 103,236 233,240l0 0 0 0 0 0 0 0 0 0 0 0 0 0 0 0 1 0 0 0 0 0 0 0 0 0 0 0 5 0 0 0 0 0 0 0 0 0 0 0 0 0c133,0 240,-108 240,-240 0,-132 -107,-240 -240,-240l-5 0 -1 0 -1 0 -4 1 -1 0 0 0 -1 0 -4 0 -1 0 0 0 -6 1 0 0 0 0 0 0 -5 0 -1 0 0 0 -5 1 -1 0 0 0 -6 1 0 0 0 0 -1 0 -5 1 0 0 0 0 -6 1 0 0zm120 523c-2,1 -4,1 -7,2l0 0 -6 1 -1 0 -6 1 0 0 -7 1 -1 0 -6 1 0 0c-11,1 -21,2 -32,2 -163,0 -296,-133 -296,-297 0,-138 96,-255 224,-287l0 0 5 -1 1 -1 0 0 5 -1 1 0 1 0 0 0 6 -1 1 -1 0 0 1 0 6 -1 0 0 1 0 7 -1 0 0 0 0 0 0 6 -1 1 0 1 0 6 0 1 0c2,-1 5,-1 7,-1l0 0c3,0 5,0 7,0l1 0c2,0 5,0 7,0 164,0 297,133 297,296 0,5 0,10 -1,15l0 0 0 7 0 0 0 4 -1 3 0 4 -1 3 0 4 -1 4 0 3 -1 4 0 3 -1 4 -1 3 -1 5 0 2 -1 4 -1 3 -1 4 -1 3 -1 3 -1 4 0 0 -2 6 0 1c-1,2 -2,4 -2,6l0 0 -3 6 0 1 -1 2 -2 4 0 0 -2 6 0 0 -2 3 -1 4 -1 2 -2 4 -2 3 -1 3 -2 4 -2 2 -2 3 -1 3 -2 3 -2 3 -2 3 -2 3 -2 3 -2 3 -1 2 -3 4 -2 2 -2 3 -2 2 0 1 -4 5 0 0 -5 5 0 0 -4 5 0 0 -4 5 -1 0 -2 2 -3 3 -2 2 -2 3 -3 2 -2 3 -4 2 -1 2 -3 3 -3 2 -2 2 -3 2 -3 2 -3 2 -2 2 -4 3 -2 1 -3 3 -3 1 -2 2 -4 2 -2 1 -3 3 -1 0 -5 3 0 0 -6 4 0 0 -6 3 -1 0 -2 1 -4 2 -2 1 -4 2 -2 1 -4 2 -4 1 -2 1 -5 2 -2 1 -4 1 -3 1 -3 2 -3 0 -4 2 -4 1 -2 0 -5 2 -2 0 -4 1 -4 1 0 0zm-1152 -289c0,132 108,240 240,240 3,0 5,0 8,0 -14,17 -28,36 -40,55 -148,-16 -264,-142 -264,-295 0,-163 133,-296 296,-296 25,0 49,3 72,9 -1,11 -2,22 -2,33 0,9 1,17 1,25 -22,-7 -46,-11 -71,-11 -132,0 -240,108 -240,240z"/>
 </g>
</svg>
