<?xml version="1.0" encoding="UTF-8"?>
<!DOCTYPE svg PUBLIC "-//W3C//DTD SVG 1.1//EN" "http://www.w3.org/Graphics/SVG/1.1/DTD/svg11.dtd">
<!-- Creator: CorelDRAW X7 -->
<svg xmlns="http://www.w3.org/2000/svg" xml:space="preserve" width="100%" height="100%" version="1.1" style="shape-rendering:geometricPrecision; text-rendering:geometricPrecision; image-rendering:optimizeQuality; fill-rule:evenodd; clip-rule:evenodd"
viewBox="0 0 1806 1242"
 xmlns:xlink="http://www.w3.org/1999/xlink">
 <defs>
  <style type="text/css">
   <![CDATA[
    .fil0 {fill:black}
   ]]>
  </style>
 </defs>
 <g id="Layer_x0020_1">
  <metadata id="CorelCorpID_0Corel-Layer"/>
  <path class="fil0" d="M0 1242l1806 0 0 -1242 -1806 0 0 1242zm1439 -734c94,0 170,-76 170,-169 0,-94 -76,-170 -170,-170 -93,0 -169,76 -169,170 0,93 76,169 169,169zm0 -282c63,0 113,50 113,113 0,62 -50,113 -113,113 -62,0 -112,-51 -112,-113 0,-63 50,-113 112,-113zm-1382 959l0 -128 619 -539 343 343 171 -227 560 480 0 71 -1693 0zm1693 -1128l0 982 -569 -487 -168 223 -334 -334 -622 541 0 -925 1693 0z"/>
 </g>
</svg>
