<?xml version="1.0" encoding="UTF-8"?>
<!DOCTYPE svg PUBLIC "-//W3C//DTD SVG 1.1//EN" "http://www.w3.org/Graphics/SVG/1.1/DTD/svg11.dtd">
<!-- Creator: CorelDRAW X7 -->
<svg xmlns="http://www.w3.org/2000/svg" xml:space="preserve" width="100%" height="100%" version="1.1" style="shape-rendering:geometricPrecision; text-rendering:geometricPrecision; image-rendering:optimizeQuality; fill-rule:evenodd; clip-rule:evenodd"
viewBox="0 0 1185 1185"
 xmlns:xlink="http://www.w3.org/1999/xlink">
 <defs>
  <style type="text/css">
   <![CDATA[
    .fil0 {fill:black}
   ]]>
  </style>
 </defs>
 <g id="Layer_x0020_1">
  <metadata id="CorelCorpID_0Corel-Layer"/>
  <path class="fil0" d="M621 339l-57 0 0 225 -225 0 0 57 225 0 0 226 57 0 0 -226 226 0 0 -57 -226 0 0 -225zm-28 -339c-327,0 -593,266 -593,593 0,326 266,592 593,592 327,0 592,-266 592,-592 0,-327 -265,-593 -592,-593zm0 1129c-296,0 -536,-241 -536,-536 0,-296 240,-537 536,-537 295,0 536,241 536,537 0,295 -241,536 -536,536z"/>
 </g>
</svg>
