<?xml version="1.0" encoding="UTF-8"?>
<!DOCTYPE svg PUBLIC "-//W3C//DTD SVG 1.1//EN" "http://www.w3.org/Graphics/SVG/1.1/DTD/svg11.dtd">
<!-- Creator: CorelDRAW X7 -->
<svg xmlns="http://www.w3.org/2000/svg" xml:space="preserve" width="100%" height="100%" version="1.1" style="shape-rendering:geometricPrecision; text-rendering:geometricPrecision; image-rendering:optimizeQuality; fill-rule:evenodd; clip-rule:evenodd"
viewBox="0 0 1298 1665"
 xmlns:xlink="http://www.w3.org/1999/xlink">
 <defs>
  <style type="text/css">
   <![CDATA[
    .fil0 {fill:black}
   ]]>
  </style>
 </defs>
 <g id="Layer_x0020_1">
  <metadata id="CorelCorpID_0Corel-Layer"/>
  <path class="fil0" d="M57 629l425 0c4,-18 12,-42 20,-57 10,-19 23,-35 38,-49 30,-25 68,-40 109,-40 42,0 80,15 109,40 16,14 29,30 38,49 9,15 17,39 20,57l426 0 0 -79 -172 0 -48 -143 113 -113 -130 -131 -114 114 -143 -48 0 -173 -198 0 0 173 -143 48 -113 -114 -131 131 114 113 -48 143 -172 0 0 79zm484 0l216 0c-4,-25 -17,-47 -36,-63 -19,-17 -44,-27 -72,-27 -27,0 -53,10 -72,27 -18,16 -32,38 -36,63zm-536 1036l-5 0c0,-390 0,-781 0,-1171l57 0 131 0 24 -72 -88 -88 -40 -40 39 -40 131 -130 40 -40 39 40 89 88 72 -24 0 -132 0 -56 56 0 198 0 56 0 0 56 0 132 72 24 89 -88 40 -40 40 40 130 130 40 40 -40 40 -89 88 24 72 132 0 56 0c0,390 0,781 0,1171 -431,0 -862,0 -1293,0zm52 -979l0 923c141,0 282,0 423,0l0 -339 339 0 0 339c141,0 282,0 423,0l0 -923c-395,0 -790,0 -1185,0l0 0zm479 923l0 -282 226 0 0 282 -226 0zm-310 -734l0 282 282 0 0 -282 -282 0zm56 226l0 -170 170 0 0 170 -170 0zm508 -226l0 282 282 0 0 -282 -282 0zm57 226l0 -170 169 0 0 170 -169 0z"/>
 </g>
</svg>
