<?xml version="1.0" encoding="UTF-8"?>
<!DOCTYPE svg PUBLIC "-//W3C//DTD SVG 1.1//EN" "http://www.w3.org/Graphics/SVG/1.1/DTD/svg11.dtd">
<!-- Creator: CorelDRAW X7 -->
<svg xmlns="http://www.w3.org/2000/svg" xml:space="preserve" width="100%" height="100%" version="1.1" style="shape-rendering:geometricPrecision; text-rendering:geometricPrecision; image-rendering:optimizeQuality; fill-rule:evenodd; clip-rule:evenodd"
viewBox="0 0 1806 1468"
 xmlns:xlink="http://www.w3.org/1999/xlink">
 <defs>
  <style type="text/css">
   <![CDATA[
    .fil0 {fill:black}
   ]]>
  </style>
 </defs>
 <g id="Layer_x0020_1">
  <metadata id="CorelCorpID_0Corel-Layer"/>
  <path class="fil0" d="M0 1468l1806 0 0 -1468 -1806 0 0 1468zm1129 -311l57 0 0 -847 -57 0 0 847zm-848 0l57 0 0 -847 -57 0 0 847zm509 0l57 0 0 -113 -57 0 0 113zm57 -226l0 -621 -57 0 0 621 57 0zm-226 226l56 0 0 -113 -56 0 0 113zm56 -226l0 -621 -56 0 0 621 56 0zm-226 226l57 0 0 -847 -57 0 0 847zm509 0l56 0 0 -847 -56 0 0 847zm508 0l57 0 0 -847 -57 0 0 847zm-169 0l56 0 0 -113 -56 0 0 113zm56 -226l0 -621 -56 0 0 621 56 0zm-1298 480l0 -1009 0 -120 0 -56 0 -169 1693 0 0 169 0 56 0 120 0 1009 -1693 0z"/>
 </g>
</svg>
