<?xml version="1.0" encoding="UTF-8"?>
<!DOCTYPE svg PUBLIC "-//W3C//DTD SVG 1.1//EN" "http://www.w3.org/Graphics/SVG/1.1/DTD/svg11.dtd">
<!-- Creator: CorelDRAW X7 -->
<svg xmlns="http://www.w3.org/2000/svg" xml:space="preserve" width="100%" height="100%" version="1.1" style="shape-rendering:geometricPrecision; text-rendering:geometricPrecision; image-rendering:optimizeQuality; fill-rule:evenodd; clip-rule:evenodd"
viewBox="0 0 1806 1468"
 xmlns:xlink="http://www.w3.org/1999/xlink">
 <defs>
  <style type="text/css">
   <![CDATA[
    .fil0 {fill:black}
   ]]>
  </style>
 </defs>
 <g id="Layer_x0020_1">
  <metadata id="CorelCorpID_0Corel-Layer"/>
  <path class="fil0" d="M0 1468l1806 0 0 -1468 -1806 0 0 1468zm1016 -875l0 508 537 0 0 -508 -130 0c36,-36 59,-86 59,-142 0,-109 -89,-197 -197,-197 -109,0 -198,88 -198,197 0,56 23,106 59,142l-130 0zm269 0l0 0c-78,0 -142,-64 -142,-142 0,-77 64,-141 142,-141 77,0 141,64 141,141 0,78 -64,142 -141,142zm-213 56l425 0 0 395 -425 0 0 -395zm-819 395l650 0 0 57 -650 0 0 -57zm0 -226l650 0 0 57 -650 0 0 -57zm0 -225l650 0 0 56 -650 0 0 -56zm-196 818c0,-451 0,-903 0,-1354l1693 0c0,451 0,903 0,1354l-1693 0z"/>
 </g>
</svg>
