<?xml version="1.0" encoding="UTF-8"?>
<!DOCTYPE svg PUBLIC "-//W3C//DTD SVG 1.1//EN" "http://www.w3.org/Graphics/SVG/1.1/DTD/svg11.dtd">
<!-- Creator: CorelDRAW X7 -->
<svg xmlns="http://www.w3.org/2000/svg" xml:space="preserve" width="100%" height="100%" version="1.1" style="shape-rendering:geometricPrecision; text-rendering:geometricPrecision; image-rendering:optimizeQuality; fill-rule:evenodd; clip-rule:evenodd"
viewBox="0 0 1845 1806"
 xmlns:xlink="http://www.w3.org/1999/xlink">
 <defs>
  <style type="text/css">
   <![CDATA[
    .fil0 {fill:black}
   ]]>
  </style>
 </defs>
 <g id="Layer_x0020_1">
  <metadata id="CorelCorpID_0Corel-Layer"/>
  <path class="fil0" d="M1312 1242l158 0 280 508 -1654 0 279 -508 159 0c-11,-19 -22,-38 -32,-57l-161 0 -341 621 1845 0 -341 -621 -161 0c-10,19 -20,38 -31,57zm-543 -726c0,-43 17,-81 45,-109 28,-28 66,-45 109,-45 42,0 80,17 108,45 28,28 45,66 45,109 0,42 -17,80 -45,108 -28,28 -66,45 -108,45 -43,0 -81,-17 -109,-45 -28,-28 -45,-66 -45,-108zm85 -69c-17,18 -28,42 -28,69 0,26 11,51 28,68 18,18 42,29 69,29 26,0 51,-11 68,-29 18,-17 29,-42 29,-68 0,-27 -11,-51 -29,-69 -17,-17 -42,-28 -68,-28 -27,0 -51,10 -69,28zm69 -447c153,0 293,68 394,178 100,108 162,257 163,422 0,138 -57,301 -134,459 -126,254 -306,497 -380,592l-44 58 -45 -58c-73,-95 -252,-338 -377,-592 -78,-158 -135,-321 -135,-459 0,-164 62,-314 162,-422 101,-110 241,-178 396,-178zm0 57c275,0 499,243 501,543 1,341 -386,867 -502,1017 -116,-150 -500,-676 -500,-1017 0,-300 224,-543 501,-543z"/>
 </g>
</svg>
