<?xml version="1.0" encoding="UTF-8"?>
<!DOCTYPE svg PUBLIC "-//W3C//DTD SVG 1.1//EN" "http://www.w3.org/Graphics/SVG/1.1/DTD/svg11.dtd">
<!-- Creator: CorelDRAW X7 -->
<svg xmlns="http://www.w3.org/2000/svg" xml:space="preserve" width="100%" height="100%" version="1.1" style="shape-rendering:geometricPrecision; text-rendering:geometricPrecision; image-rendering:optimizeQuality; fill-rule:evenodd; clip-rule:evenodd"
viewBox="0 0 1806 2012"
 xmlns:xlink="http://www.w3.org/1999/xlink">
 <defs>
  <style type="text/css">
   <![CDATA[
    .fil0 {fill:black}
   ]]>
  </style>
 </defs>
 <g id="Layer_x0020_1">
  <metadata id="CorelCorpID_0Corel-Layer"/>
  <path class="fil0" d="M918 206l-166 -166 40 -40 219 219 1 40 -220 220 -40 -40 176 -176 1 -1c-478,-14 -872,369 -872,847 0,226 88,439 247,598 160,160 373,248 599,248 226,0 439,-88 599,-248 160,-159 248,-372 248,-598 0,-226 -88,-439 -248,-599 -77,-77 -166,-137 -262,-179l0 -61c111,45 214,113 302,200 170,171 264,398 264,639 0,241 -94,468 -264,638 -171,171 -398,265 -639,265 -241,0 -468,-94 -638,-265 -171,-170 -265,-397 -265,-638 0,-505 413,-911 918,-903z"/>
 </g>
</svg>
