<?xml version="1.0" encoding="UTF-8"?>
<!DOCTYPE svg PUBLIC "-//W3C//DTD SVG 1.1//EN" "http://www.w3.org/Graphics/SVG/1.1/DTD/svg11.dtd">
<!-- Creator: CorelDRAW X7 -->
<svg xmlns="http://www.w3.org/2000/svg" xml:space="preserve" width="100%" height="100%" version="1.1" style="shape-rendering:geometricPrecision; text-rendering:geometricPrecision; image-rendering:optimizeQuality; fill-rule:evenodd; clip-rule:evenodd"
viewBox="0 0 1806 1806"
 xmlns:xlink="http://www.w3.org/1999/xlink">
 <defs>
  <style type="text/css">
   <![CDATA[
    .fil0 {fill:black}
   ]]>
  </style>
 </defs>
 <g id="Layer_x0020_1">
  <metadata id="CorelCorpID_0Corel-Layer"/>
  <path class="fil0" d="M1411 0l-1411 0 0 1806 1806 0 0 -1451 -355 -355 -40 0zm-169 113l-198 0 0 367 198 0 0 -367zm-57 310l-84 0 0 -254 84 0 0 254zm-790 1101l1016 0 0 56 -1016 0 0 -56zm0 -226l1016 0 0 57 -1016 0 0 -57zm0 -226l1016 0 0 57 -1016 0 0 -57zm960 -1015l0 479 -903 0 0 -479 903 0zm-1129 1693l0 -847 1354 0 0 847 -1354 0zm1524 0l-113 0 0 -903 -1468 0 0 903 -112 0 0 -1693 338 0 0 536 1016 0 0 -536 17 0 322 322 0 1371z"/>
 </g>
</svg>
