<?xml version="1.0" encoding="UTF-8"?>
<!DOCTYPE svg PUBLIC "-//W3C//DTD SVG 1.1//EN" "http://www.w3.org/Graphics/SVG/1.1/DTD/svg11.dtd">
<!-- Creator: CorelDRAW X7 -->
<svg xmlns="http://www.w3.org/2000/svg" xml:space="preserve" width="100%" height="100%" version="1.1" style="shape-rendering:geometricPrecision; text-rendering:geometricPrecision; image-rendering:optimizeQuality; fill-rule:evenodd; clip-rule:evenodd"
viewBox="0 0 1806 1806"
 xmlns:xlink="http://www.w3.org/1999/xlink">
 <defs>
  <style type="text/css">
   <![CDATA[
    .fil0 {fill:black}
   ]]>
  </style>
 </defs>
 <g id="Layer_x0020_1">
  <metadata id="CorelCorpID_0Corel-Layer"/>
  <path class="fil0" d="M903 1129c125,0 226,-101 226,-226 0,-124 -101,-226 -226,-226 -124,0 -226,102 -226,226 0,125 102,226 226,226zm0 226c442,0 729,-250 843,-371 -18,196 -104,377 -244,518 -160,160 -373,248 -599,248 -226,0 -439,-88 -599,-248 -140,-141 -225,-322 -244,-518 114,122 401,371 843,371zm903 -443l0 -18c-2,-238 -96,-461 -264,-629 -171,-171 -398,-265 -639,-265 -241,0 -468,94 -638,265 -169,168 -263,391 -265,629l0 18c2,238 96,461 265,630 170,170 397,264 638,264 241,0 468,-94 639,-264 168,-169 262,-392 264,-630zm-60 -90c-114,-121 -401,-370 -843,-370 -442,0 -729,249 -843,370 19,-196 104,-377 244,-518 160,-159 373,-248 599,-248 226,0 439,89 599,248 140,141 226,323 244,518zm-843 -88c93,0 169,76 169,169 0,93 -76,169 -169,169 -93,0 -169,-76 -169,-169 0,-93 76,-169 169,-169zm0 -226c479,0 774,318 839,395 -65,77 -360,395 -839,395 -479,0 -774,-318 -839,-395 65,-77 360,-395 839,-395z"/>
 </g>
</svg>
