<?xml version="1.0" encoding="UTF-8"?>
<!DOCTYPE svg PUBLIC "-//W3C//DTD SVG 1.1//EN" "http://www.w3.org/Graphics/SVG/1.1/DTD/svg11.dtd">
<!-- Creator: CorelDRAW X7 -->
<svg xmlns="http://www.w3.org/2000/svg" xml:space="preserve" width="100%" height="100%" version="1.1" style="shape-rendering:geometricPrecision; text-rendering:geometricPrecision; image-rendering:optimizeQuality; fill-rule:evenodd; clip-rule:evenodd"
viewBox="0 0 1820 903"
 xmlns:xlink="http://www.w3.org/1999/xlink">
 <defs>
  <style type="text/css">
   <![CDATA[
    .fil0 {fill:black}
   ]]>
  </style>
 </defs>
 <g id="Layer_x0020_1">
  <metadata id="CorelCorpID_0Corel-Layer"/>
  <path class="fil0" d="M910 903c572,0 884,-417 898,-435l12 -16 -12 -17c-14,-18 -326,-435 -898,-435 -572,0 -885,417 -898,435l-12 17 12 16c13,18 326,435 898,435zm0 -226c124,0 226,-101 226,-225 0,-125 -102,-226 -226,-226 -125,0 -226,101 -226,226 0,124 101,225 226,225zm0 -395c93,0 169,76 169,170 0,93 -76,169 -169,169 -94,0 -169,-76 -169,-169 0,-94 75,-170 169,-170zm0 -225c479,0 774,317 839,395 -65,77 -360,395 -839,395 -479,0 -774,-318 -839,-395 65,-78 360,-395 839,-395z"/>
 </g>
</svg>
