<?xml version="1.0" encoding="UTF-8"?>
<!DOCTYPE svg PUBLIC "-//W3C//DTD SVG 1.1//EN" "http://www.w3.org/Graphics/SVG/1.1/DTD/svg11.dtd">
<!-- Creator: CorelDRAW X7 -->
<svg xmlns="http://www.w3.org/2000/svg" xml:space="preserve" width="100%" height="100%" version="1.1" style="shape-rendering:geometricPrecision; text-rendering:geometricPrecision; image-rendering:optimizeQuality; fill-rule:evenodd; clip-rule:evenodd"
viewBox="0 0 1919 1391"
 xmlns:xlink="http://www.w3.org/1999/xlink">
 <defs>
  <style type="text/css">
   <![CDATA[
    .fil0 {fill:black}
   ]]>
  </style>
 </defs>
 <g id="Layer_x0020_1">
  <metadata id="CorelCorpID_0Corel-Layer"/>
  <path class="fil0" d="M1886 198l33 0 0 0 0 0 -14 56 0 0 -183 743 -1263 0c-50,-313 -99,-627 -148,-940l-311 0 0 -57 355 0 31 198 1500 0zm-336 849c95,0 172,77 172,172 0,95 -77,172 -172,172 -95,0 -172,-77 -172,-172 0,-95 77,-172 172,-172zm82 91c-21,-21 -50,-34 -82,-34 -32,0 -61,13 -81,34 -21,20 -34,49 -34,81 0,32 13,61 34,82 20,20 49,33 81,33 32,0 61,-13 82,-33 20,-21 33,-50 33,-82 0,-32 -13,-61 -33,-81zm-1001 -91c94,0 171,77 171,172 0,95 -77,172 -171,172 -95,0 -172,-77 -172,-172 0,-95 77,-172 172,-172zm81 91c-21,-21 -50,-34 -81,-34 -32,0 -61,13 -82,34 -21,20 -34,49 -34,81 0,32 13,61 34,82 21,20 50,33 82,33 31,0 60,-13 81,-33 21,-21 34,-50 34,-82 0,-32 -13,-61 -34,-81zm-317 -884l1452 0 -169 687 -1175 0 -108 -687z"/>
 </g>
</svg>
