<?xml version="1.0" encoding="UTF-8"?>
<!DOCTYPE svg PUBLIC "-//W3C//DTD SVG 1.1//EN" "http://www.w3.org/Graphics/SVG/1.1/DTD/svg11.dtd">
<!-- Creator: CorelDRAW X7 -->
<svg xmlns="http://www.w3.org/2000/svg" xml:space="preserve" width="100%" height="100%" version="1.1" style="shape-rendering:geometricPrecision; text-rendering:geometricPrecision; image-rendering:optimizeQuality; fill-rule:evenodd; clip-rule:evenodd"
viewBox="0 0 1298 1882"
 xmlns:xlink="http://www.w3.org/1999/xlink">
 <defs>
  <style type="text/css">
   <![CDATA[
    .fil0 {fill:black}
   ]]>
  </style>
 </defs>
 <g id="Layer_x0020_1">
  <metadata id="CorelCorpID_0Corel-Layer"/>
  <path class="fil0" d="M1298 415l-353 0 0 -145 -1 -4c-9,-67 -40,-127 -88,-175 -58,-59 -136,-91 -219,-91 -83,0 -161,33 -219,91l0 0c-48,48 -79,109 -88,176l0 148 -330 0 0 1467 1298 0 0 -1467zm-410 174c-32,12 -56,43 -56,80 0,46 38,84 85,84 46,0 84,-38 84,-84 0,-37 -23,-68 -56,-80l0 51 -57 0 0 -51zm-71 -20c19,-19 44,-33 71,-39l0 -59 -502 0 0 59c28,6 52,20 72,39 25,26 41,61 41,100 0,39 -16,74 -41,100l0 0c-26,25 -61,41 -100,41 -39,0 -74,-16 -100,-41l0 0c-25,-26 -41,-61 -41,-100 0,-39 16,-74 41,-100 20,-19 44,-33 72,-39l0 -59 -273 0 0 1355 1185 0 0 -1355 -297 0 0 59c27,6 52,20 71,39 26,26 42,61 42,100 0,39 -16,74 -42,100l0 0c-25,25 -61,41 -99,41 -39,0 -74,-16 -100,-41l0 0c-26,-26 -41,-61 -41,-100 0,-39 15,-74 41,-100zm-487 20c-33,12 -57,43 -57,80 0,46 38,84 85,84 47,0 85,-38 85,-84 0,-37 -24,-68 -57,-80l0 51 -56 0 0 -51zm558 -174l-502 0 0 -142c8,-54 33,-103 72,-142l0 0c48,-48 111,-74 179,-74 68,-1 132,26 180,74 38,38 63,87 71,141l0 143z"/>
 </g>
</svg>
