<?xml version="1.0" encoding="UTF-8"?>
<!DOCTYPE svg PUBLIC "-//W3C//DTD SVG 1.1//EN" "http://www.w3.org/Graphics/SVG/1.1/DTD/svg11.dtd">
<!-- Creator: CorelDRAW X7 -->
<svg xmlns="http://www.w3.org/2000/svg" xml:space="preserve" width="100%" height="100%" version="1.1" style="shape-rendering:geometricPrecision; text-rendering:geometricPrecision; image-rendering:optimizeQuality; fill-rule:evenodd; clip-rule:evenodd"
viewBox="0 0 1806 1806"
 xmlns:xlink="http://www.w3.org/1999/xlink">
 <defs>
  <style type="text/css">
   <![CDATA[
    .fil0 {fill:black}
   ]]>
  </style>
 </defs>
 <g id="Layer_x0020_1">
  <metadata id="CorelCorpID_0Corel-Layer"/>
  <path class="fil0" d="M903 0c241,0 468,94 639,265 170,170 264,397 264,638 0,241 -94,468 -264,639 -171,170 -398,264 -639,264 -241,0 -468,-94 -638,-264 -171,-171 -265,-398 -265,-639 0,-241 94,-468 265,-638 170,-171 397,-265 638,-265zm-16 1278l0 -75c-34,-5 -59,-14 -79,-28 -19,-13 -35,-33 -47,-59 -13,-26 -20,-57 -23,-94l61 -14c6,45 16,77 32,98 16,20 35,32 56,35l0 -238c-27,-6 -54,-18 -81,-38 -18,-12 -32,-30 -42,-53 -10,-22 -15,-49 -15,-79 0,-32 5,-60 17,-85 12,-26 27,-45 46,-58 19,-14 44,-22 75,-26l0 -36 36 0 0 36c26,3 47,10 65,22 17,11 32,28 44,49 11,21 19,47 23,78l-63 12c-6,-56 -30,-88 -69,-98l0 214c28,9 46,15 54,19 18,9 34,20 47,34 14,14 24,32 32,53 8,21 12,44 12,71 0,54 -14,97 -42,131 -28,33 -62,51 -103,53l0 76 -36 0zm0 -652c-24,4 -42,15 -56,34 -14,18 -21,41 -21,69 0,49 25,83 77,102l0 -205zm36 515c23,-4 42,-16 58,-37 16,-21 24,-48 24,-82 0,-28 -6,-49 -17,-66 -12,-16 -34,-30 -65,-42l0 227zm-619 361c160,160 373,248 599,248 226,0 439,-88 599,-248 160,-160 248,-373 248,-599 0,-226 -88,-439 -248,-599 -160,-159 -373,-248 -599,-248 -226,0 -439,89 -599,248 -159,160 -247,373 -247,599 0,226 88,439 247,599z"/>
 </g>
</svg>
