<?xml version="1.0" encoding="UTF-8"?>
<!DOCTYPE svg PUBLIC "-//W3C//DTD SVG 1.1//EN" "http://www.w3.org/Graphics/SVG/1.1/DTD/svg11.dtd">
<!-- Creator: CorelDRAW X7 -->
<svg xmlns="http://www.w3.org/2000/svg" xml:space="preserve" width="100%" height="100%" version="1.1" style="shape-rendering:geometricPrecision; text-rendering:geometricPrecision; image-rendering:optimizeQuality; fill-rule:evenodd; clip-rule:evenodd"
viewBox="0 0 1298 1806"
 xmlns:xlink="http://www.w3.org/1999/xlink">
 <defs>
  <style type="text/css">
   <![CDATA[
    .fil0 {fill:black}
   ]]>
  </style>
 </defs>
 <g id="Layer_x0020_1">
  <metadata id="CorelCorpID_0Corel-Layer"/>
  <path class="fil0" d="M1298 339l-341 0 0 -69 -1 -4c-9,-67 -40,-127 -88,-175 -58,-59 -136,-91 -219,-91 -83,0 -161,33 -219,91l-1 0c-47,48 -78,109 -87,176l0 72 -342 0 0 1467 1298 0 0 -1467zm-398 0l-502 0 0 -66c8,-54 33,-103 71,-142l1 0c47,-48 111,-74 179,-74 68,-1 131,26 179,74 39,38 64,87 72,141l0 67zm-558 56l0 169 56 0 0 -169 502 0 0 169 57 0 0 -169 285 0 0 1355 -1185 0 0 -1355 285 0z"/>
 </g>
</svg>
