<?xml version="1.0" encoding="UTF-8"?>
<!DOCTYPE svg PUBLIC "-//W3C//DTD SVG 1.1//EN" "http://www.w3.org/Graphics/SVG/1.1/DTD/svg11.dtd">
<!-- Creator: CorelDRAW X7 -->
<svg xmlns="http://www.w3.org/2000/svg" xml:space="preserve" width="100%" height="100%" version="1.1" style="shape-rendering:geometricPrecision; text-rendering:geometricPrecision; image-rendering:optimizeQuality; fill-rule:evenodd; clip-rule:evenodd"
viewBox="0 0 1818 1818"
 xmlns:xlink="http://www.w3.org/1999/xlink">
 <defs>
  <style type="text/css">
   <![CDATA[
    .fil0 {fill:black}
   ]]>
  </style>
 </defs>
 <g id="Layer_x0020_1">
  <metadata id="CorelCorpID_0Corel-Layer"/>
  <path class="fil0" d="M593 1185c153,0 292,-59 398,-155l126 127 -84 85 576 576 209 -209 -576 -576 -85 84 -127 -126c96,-106 155,-245 155,-398 0,-327 -266,-593 -592,-593 -327,0 -593,266 -593,593 0,326 266,592 593,592zm-23 -447l0 -129c-40,-12 -69,-29 -88,-53 -19,-23 -28,-51 -28,-85 0,-34 10,-62 32,-85 21,-23 49,-37 84,-40l0 -30 46 0 0 30c33,4 59,15 78,34 20,18 32,43 38,74l-79 10c-5,-24 -17,-41 -37,-49l0 121c49,13 83,30 101,52 18,21 27,48 27,82 0,37 -11,69 -34,94 -22,26 -54,42 -94,48l0 58 -46 0 0 -57c-35,-5 -64,-18 -86,-40 -23,-22 -37,-53 -43,-94l81 -9c3,16 9,31 18,42 9,12 19,21 30,26zm0 -325c-12,5 -21,12 -28,22 -7,10 -11,21 -11,32 0,11 3,22 10,31 6,9 16,17 29,23l0 -108zm46 330c15,-3 28,-10 38,-22 9,-11 14,-25 14,-40 0,-14 -4,-26 -12,-36 -8,-10 -22,-17 -40,-23l0 121zm1122 866l-129 129 -497 -496 130 -130 496 497zm-1145 -1553c295,0 536,241 536,537 0,295 -241,536 -536,536 -296,0 -536,-241 -536,-536 0,-296 240,-537 536,-537z"/>
 </g>
</svg>
