<?xml version="1.0" encoding="UTF-8"?>
<!DOCTYPE svg PUBLIC "-//W3C//DTD SVG 1.1//EN" "http://www.w3.org/Graphics/SVG/1.1/DTD/svg11.dtd">
<!-- Creator: CorelDRAW X7 -->
<svg xmlns="http://www.w3.org/2000/svg" xml:space="preserve" width="100%" height="100%" version="1.1" style="shape-rendering:geometricPrecision; text-rendering:geometricPrecision; image-rendering:optimizeQuality; fill-rule:evenodd; clip-rule:evenodd"
viewBox="0 0 1830 1717"
 xmlns:xlink="http://www.w3.org/1999/xlink">
 <defs>
  <style type="text/css">
   <![CDATA[
    .fil0 {fill:black}
   ]]>
  </style>
 </defs>
 <g id="Layer_x0020_1">
  <metadata id="CorelCorpID_0Corel-Layer"/>
  <path class="fil0" d="M1169 1016l-497 -496 339 -339 -150 -150 -19 14c-1,1 -72,50 -160,50 -63,0 -121,-25 -171,-75l-20 -20 -491 491 350 351 283 -282 496 496 -85 85 576 576 210 -210 -577 -576 -84 85zm-1089 -525l412 -412c56,48 120,72 190,72 77,0 141,-29 172,-47l77 77 -581 581 -270 -271zm1540 1146l-496 -496 129 -130 497 496 -130 130z"/>
 </g>
</svg>
