<?xml version="1.0" encoding="UTF-8"?>
<!DOCTYPE svg PUBLIC "-//W3C//DTD SVG 1.1//EN" "http://www.w3.org/Graphics/SVG/1.1/DTD/svg11.dtd">
<!-- Creator: CorelDRAW X7 -->
<svg xmlns="http://www.w3.org/2000/svg" xml:space="preserve" width="100%" height="100%" version="1.1" style="shape-rendering:geometricPrecision; text-rendering:geometricPrecision; image-rendering:optimizeQuality; fill-rule:evenodd; clip-rule:evenodd"
viewBox="0 0 1800 1684"
 xmlns:xlink="http://www.w3.org/1999/xlink">
 <defs>
  <style type="text/css">
   <![CDATA[
    .fil0 {fill:black}
   ]]>
  </style>
 </defs>
 <g id="Layer_x0020_1">
  <metadata id="CorelCorpID_0Corel-Layer"/>
  <path class="fil0" d="M1140 983l-118 -117 214 -210 101 0c142,0 311,-66 311,-381l0 -44 -248 116 -86 -89 109 -251 -43 0c-315,0 -381,170 -381,311l0 101 -210 213 -343 -342 90 -91 -332 -199 -88 88 200 332 90 -90 343 342 -688 698 -5 5 -56 193 84 79 193 -48 705 -693 118 117 -85 85 576 576 209 -209 -576 -576 -84 84zm-953 -887l26 -25 232 139 -118 119 -140 -233zm62 1452l-149 37 -36 -34 43 -146 948 -963 0 -124c0,-158 92,-241 281,-251l-89 204 140 144 203 -94c-12,185 -96,279 -253,279l-124 0 -964 948zm1342 56l-496 -496 129 -129 497 496 -130 129z"/>
 </g>
</svg>
