<?xml version="1.0" encoding="UTF-8"?>
<!DOCTYPE svg PUBLIC "-//W3C//DTD SVG 1.1//EN" "http://www.w3.org/Graphics/SVG/1.1/DTD/svg11.dtd">
<!-- Creator: CorelDRAW X7 -->
<svg xmlns="http://www.w3.org/2000/svg" xml:space="preserve" width="100%" height="100%" version="1.1" style="shape-rendering:geometricPrecision; text-rendering:geometricPrecision; image-rendering:optimizeQuality; fill-rule:evenodd; clip-rule:evenodd"
viewBox="0 0 1806 1806"
 xmlns:xlink="http://www.w3.org/1999/xlink">
 <defs>
  <style type="text/css">
   <![CDATA[
    .fil0 {fill:black}
   ]]>
  </style>
 </defs>
 <g id="Layer_x0020_1">
  <metadata id="CorelCorpID_0Corel-Layer"/>
  <path class="fil0" d="M1500 572l177 -177 -266 -266 -177 177 -133 -44 0 -262 -395 0 0 262 -134 44 -177 -177 -266 266 177 177 -44 134 -262 0 0 395 262 0 44 133 -177 177 266 266 177 -177 134 44 0 262 395 0 0 -262 133 -44 177 177 266 -266 -177 -177 44 -133 262 0 0 -395 -262 0 -44 -134zm-597 134c-109,0 -197,88 -197,197 0,109 88,198 197,198 109,0 198,-89 198,-198 0,-109 -89,-197 -198,-197zm0 338c-78,0 -141,-63 -141,-141 0,-78 63,-141 141,-141 78,0 141,63 141,141 0,78 -63,141 -141,141zm847 0l-246 0 -69 205 162 162 -186 186 -162 -162 -205 69 0 246 -282 0 0 -246 -205 -69 -162 162 -186 -186 162 -162 -68 -205 -246 0 0 -282 246 0 68 -205 -162 -162 186 -186 162 162 205 -68 0 -246 282 0 0 246 205 68 162 -162 186 186 -162 162 69 205 246 0 0 282z"/>
 </g>
</svg>
