<?xml version="1.0" encoding="UTF-8"?>
<!DOCTYPE svg PUBLIC "-//W3C//DTD SVG 1.1//EN" "http://www.w3.org/Graphics/SVG/1.1/DTD/svg11.dtd">
<!-- Creator: CorelDRAW X7 -->
<svg xmlns="http://www.w3.org/2000/svg" xml:space="preserve" width="100%" height="100%" version="1.1" style="shape-rendering:geometricPrecision; text-rendering:geometricPrecision; image-rendering:optimizeQuality; fill-rule:evenodd; clip-rule:evenodd"
viewBox="0 0 1806 1615"
 xmlns:xlink="http://www.w3.org/1999/xlink">
 <defs>
  <style type="text/css">
   <![CDATA[
    .fil0 {fill:black}
   ]]>
  </style>
 </defs>
 <g id="Layer_x0020_1">
  <metadata id="CorelCorpID_0Corel-Layer"/>
  <path class="fil0" d="M0 1243l480 0 0 371 434 -371 892 0 0 -1242 -1806 0 0 1242zm1162 -550l80 -8c5,27 14,46 29,59 14,12 34,18 59,18 26,0 46,-5 59,-16 13,-11 20,-24 20,-39 0,-10 -3,-18 -9,-25 -5,-6 -15,-12 -29,-17 -9,-3 -31,-9 -65,-18 -43,-11 -74,-24 -92,-40 -24,-22 -37,-49 -37,-82 0,-20 6,-40 18,-57 11,-18 28,-32 50,-41 22,-10 48,-15 79,-15 51,0 89,12 115,34 25,23 39,52 40,90l-82 3c-3,-21 -11,-36 -22,-45 -12,-9 -29,-14 -52,-14 -23,0 -42,5 -55,15 -8,6 -13,14 -13,25 0,10 4,18 12,25 11,8 36,17 75,27 40,9 69,19 88,29 19,10 34,24 45,41 10,17 16,39 16,64 0,23 -7,45 -20,65 -12,21 -31,36 -54,45 -24,10 -53,15 -88,15 -51,0 -90,-12 -118,-35 -27,-24 -43,-58 -49,-103zm-450 131l0 -404 123 0 72 275 72 -275 123 0 0 404 -76 0 0 -318 -80 318 -78 0 -80 -318 0 318 -76 0zm-396 -131l79 -8c5,27 14,46 29,59 15,12 34,18 59,18 26,0 46,-5 59,-16 14,-11 20,-24 20,-39 0,-10 -3,-18 -8,-25 -6,-6 -16,-12 -29,-17 -10,-3 -32,-9 -65,-18 -44,-11 -75,-24 -92,-40 -25,-22 -37,-49 -37,-82 0,-20 6,-40 17,-57 12,-18 29,-32 50,-41 22,-10 49,-15 80,-15 50,0 88,12 114,34 25,23 39,52 40,90l-82 3c-3,-21 -11,-36 -22,-45 -11,-9 -28,-14 -51,-14 -24,0 -42,5 -55,15 -9,6 -13,14 -13,25 0,10 4,18 12,25 10,8 35,17 75,27 39,9 68,19 87,29 19,10 34,24 45,41 11,17 16,39 16,64 0,23 -6,45 -19,65 -13,21 -31,36 -55,45 -23,10 -53,15 -88,15 -51,0 -90,-12 -117,-35 -28,-24 -44,-58 -49,-103zm-259 -636l1693 0 0 1129 -857 0 -357 306 0 -306 -479 0 0 -1129z"/>
 </g>
</svg>
