<?xml version="1.0" encoding="UTF-8"?>
<!DOCTYPE svg PUBLIC "-//W3C//DTD SVG 1.1//EN" "http://www.w3.org/Graphics/SVG/1.1/DTD/svg11.dtd">
<!-- Creator: CorelDRAW X7 -->
<svg xmlns="http://www.w3.org/2000/svg" xml:space="preserve" width="100%" height="100%" version="1.1" style="shape-rendering:geometricPrecision; text-rendering:geometricPrecision; image-rendering:optimizeQuality; fill-rule:evenodd; clip-rule:evenodd"
viewBox="0 0 1806 1806"
 xmlns:xlink="http://www.w3.org/1999/xlink">
 <defs>
  <style type="text/css">
   <![CDATA[
    .fil0 {fill:black}
   ]]>
  </style>
 </defs>
 <g id="Layer_x0020_1">
  <metadata id="CorelCorpID_0Corel-Layer"/>
  <path class="fil0" d="M1524 0l-1242 0 0 597 -282 118 0 1091 1806 0 0 -1091 -282 -118 0 -597zm-408 667l65 -8c7,51 31,77 72,77 20,0 36,-5 48,-16 12,-10 17,-23 17,-39 0,-9 -2,-17 -6,-23 -4,-7 -10,-12 -18,-16 -9,-4 -29,-11 -61,-21 -28,-9 -49,-18 -62,-28 -13,-10 -24,-23 -32,-40 -7,-16 -11,-34 -11,-53 0,-22 5,-42 15,-59 10,-18 24,-31 41,-40 18,-9 40,-14 66,-14 39,0 69,11 91,32 22,21 34,52 35,91l-67 3c-3,-21 -10,-36 -19,-45 -10,-9 -24,-13 -42,-13 -18,0 -32,4 -42,11 -10,8 -15,17 -15,28 0,11 5,20 14,28 9,7 29,15 61,24 34,10 58,21 73,31 15,11 26,25 34,42 8,17 12,38 12,62 0,35 -11,64 -32,88 -22,24 -56,36 -102,36 -81,0 -126,-46 -135,-138zm-370 131l0 -404 100 0 60 276 59 -276 101 0 0 404 -62 0 0 -318 -66 318 -64 0 -66 -318 0 318 -62 0zm-325 -131l65 -8c8,51 32,77 73,77 20,0 36,-5 48,-16 11,-10 17,-23 17,-39 0,-9 -2,-17 -6,-23 -4,-7 -10,-12 -19,-16 -8,-4 -28,-11 -60,-21 -28,-9 -49,-18 -62,-28 -14,-10 -24,-23 -32,-40 -8,-16 -12,-34 -12,-53 0,-22 5,-42 15,-59 10,-18 24,-31 42,-40 18,-9 39,-14 65,-14 39,0 70,11 92,32 22,21 33,52 35,91l-68 3c-2,-21 -9,-36 -19,-45 -9,-9 -23,-13 -41,-13 -19,0 -32,4 -42,11 -10,8 -15,17 -15,28 0,11 5,20 14,28 8,7 29,15 61,24 33,10 58,21 72,31 15,11 27,25 35,42 8,17 12,38 12,62 0,35 -11,64 -33,88 -21,24 -55,36 -101,36 -81,0 -126,-46 -136,-138zm1047 -610l0 838 -565 354 -564 -354 0 -838 1129 0zm-1186 803l-193 -121 193 -81 0 202zm-225 890l0 -965 846 531 847 -531 0 965 -1693 0zm1660 -1011l-193 121 0 -202 193 81z"/>
 </g>
</svg>
