<?xml version="1.0" encoding="UTF-8"?>
<!DOCTYPE svg PUBLIC "-//W3C//DTD SVG 1.1//EN" "http://www.w3.org/Graphics/SVG/1.1/DTD/svg11.dtd">
<!-- Creator: CorelDRAW X7 -->
<svg xmlns="http://www.w3.org/2000/svg" xml:space="preserve" width="100%" height="100%" version="1.1" style="shape-rendering:geometricPrecision; text-rendering:geometricPrecision; image-rendering:optimizeQuality; fill-rule:evenodd; clip-rule:evenodd"
viewBox="0 0 1806 1615"
 xmlns:xlink="http://www.w3.org/1999/xlink">
 <defs>
  <style type="text/css">
   <![CDATA[
    .fil0 {fill:black}
   ]]>
  </style>
 </defs>
 <g id="Layer_x0020_1">
  <metadata id="CorelCorpID_0Corel-Layer"/>
  <path class="fil0" d="M0 1243l480 0 0 371 434 -371 892 0 0 -1242 -1806 0 0 1242zm1166 -549l50 -4c2,20 8,37 17,50 8,13 22,23 40,31 19,8 39,12 62,12 21,0 39,-3 54,-9 16,-6 28,-14 35,-25 8,-11 12,-22 12,-35 0,-12 -4,-23 -11,-33 -8,-9 -20,-17 -37,-24 -11,-4 -35,-10 -72,-19 -37,-9 -63,-18 -78,-25 -19,-11 -33,-23 -43,-38 -9,-15 -14,-32 -14,-50 0,-21 6,-40 18,-58 11,-18 28,-31 50,-40 22,-9 47,-14 74,-14 30,0 57,5 80,14 22,10 40,24 52,43 13,19 19,40 20,64l-51 4c-3,-26 -12,-45 -28,-58 -16,-13 -40,-20 -71,-20 -32,0 -56,6 -70,18 -15,12 -23,26 -23,43 0,15 6,26 16,36 11,9 37,19 81,29 43,10 73,18 89,25 24,11 41,25 52,42 11,16 17,35 17,57 0,21 -6,42 -18,61 -13,19 -30,33 -53,44 -23,10 -49,16 -78,16 -37,0 -67,-6 -92,-16 -25,-11 -44,-27 -58,-48 -14,-22 -21,-46 -22,-73zm-454 130l0 -404 80 0 96 286c9,26 15,46 19,60 5,-15 12,-37 22,-65l97 -281 72 0 0 404 -52 0 0 -338 -118 338 -48 0 -117 -344 0 344 -51 0zm-393 -130l50 -4c3,20 8,37 17,50 9,13 22,23 41,31 18,8 39,12 62,12 20,0 38,-3 54,-9 15,-6 27,-14 35,-25 7,-11 11,-22 11,-35 0,-12 -4,-23 -11,-33 -7,-9 -19,-17 -36,-24 -11,-4 -35,-10 -72,-19 -38,-9 -64,-18 -78,-25 -20,-11 -34,-23 -43,-38 -10,-15 -15,-32 -15,-50 0,-21 6,-40 18,-58 11,-18 28,-31 51,-40 22,-9 46,-14 74,-14 30,0 56,5 79,14 23,10 40,24 53,43 12,19 19,40 20,64l-52 4c-3,-26 -12,-45 -28,-58 -16,-13 -39,-20 -70,-20 -33,0 -56,6 -71,18 -15,12 -22,26 -22,43 0,15 5,26 16,36 10,9 37,19 80,29 44,10 73,18 90,25 23,11 40,25 52,42 11,16 16,35 16,57 0,21 -6,42 -18,61 -12,19 -30,33 -53,44 -23,10 -49,16 -78,16 -36,0 -67,-6 -92,-16 -24,-11 -44,-27 -58,-48 -14,-22 -21,-46 -22,-73zm-262 -637l1693 0 0 1129 -857 0 -357 306 0 -306 -479 0 0 -1129z"/>
 </g>
</svg>
