<?xml version="1.0" encoding="UTF-8"?>
<!DOCTYPE svg PUBLIC "-//W3C//DTD SVG 1.1//EN" "http://www.w3.org/Graphics/SVG/1.1/DTD/svg11.dtd">
<!-- Creator: CorelDRAW X7 -->
<svg xmlns="http://www.w3.org/2000/svg" xml:space="preserve" width="100%" height="100%" version="1.1" style="shape-rendering:geometricPrecision; text-rendering:geometricPrecision; image-rendering:optimizeQuality; fill-rule:evenodd; clip-rule:evenodd"
viewBox="0 0 1806 1806"
 xmlns:xlink="http://www.w3.org/1999/xlink">
 <defs>
  <style type="text/css">
   <![CDATA[
    .fil0 {fill:black}
   ]]>
  </style>
 </defs>
 <g id="Layer_x0020_1">
  <metadata id="CorelCorpID_0Corel-Layer"/>
  <path class="fil0" d="M424 668l42 -4c2,22 7,39 15,52 8,12 19,22 33,30 15,7 31,11 49,11 26,0 47,-6 61,-19 14,-13 22,-29 22,-50 0,-12 -3,-22 -8,-31 -6,-9 -13,-16 -24,-22 -11,-5 -33,-13 -69,-24 -31,-9 -53,-18 -66,-28 -14,-9 -24,-21 -31,-35 -8,-15 -11,-31 -11,-49 0,-33 10,-60 31,-80 21,-21 50,-32 86,-32 24,0 46,5 64,15 19,10 33,24 43,42 10,18 16,40 17,64l-42 4c-2,-26 -10,-46 -24,-58 -13,-13 -32,-19 -57,-19 -24,0 -43,5 -56,16 -13,12 -20,26 -20,43 0,17 5,29 14,38 10,9 31,18 65,28 33,8 56,16 69,23 20,10 35,23 46,40 10,17 15,37 15,61 0,23 -6,44 -16,63 -11,19 -26,33 -45,43 -18,10 -41,15 -67,15 -41,0 -74,-12 -98,-37 -24,-25 -37,-58 -38,-100zm1100 -668l-1242 0 0 597 -282 118 0 1091 1806 0 0 -1091 -282 -118 0 -597zm-56 57l0 838 -565 354 -564 -354 0 -838 1129 0zm-1186 803l-193 -121 193 -81 0 202zm-225 890l0 -965 846 531 847 -531 0 965 -1693 0zm1660 -1011l-193 121 0 -202 193 81zm-598 -71l41 -4c2,22 7,39 15,52 8,12 19,22 34,30 14,7 31,11 49,11 26,0 46,-6 60,-19 15,-13 22,-29 22,-50 0,-12 -3,-22 -8,-31 -5,-9 -13,-16 -24,-22 -10,-5 -33,-13 -68,-24 -32,-9 -54,-18 -67,-28 -13,-9 -24,-21 -31,-35 -7,-15 -11,-31 -11,-49 0,-33 10,-60 32,-80 21,-21 49,-32 85,-32 25,0 46,5 65,15 18,10 32,24 43,42 10,18 15,40 16,64l-42 4c-2,-26 -10,-46 -23,-58 -14,-13 -33,-19 -57,-19 -25,0 -44,5 -57,16 -13,12 -20,26 -20,43 0,17 5,29 15,38 9,9 31,18 64,28 33,8 56,16 69,23 20,10 36,23 46,40 10,17 15,37 15,61 0,23 -5,44 -16,63 -11,19 -26,33 -44,43 -19,10 -41,15 -68,15 -41,0 -73,-12 -98,-37 -24,-25 -37,-58 -37,-100zm-373 130l0 -404 66 0 79 286 15 60c4,-15 10,-36 18,-65l79 -281 60 0 0 404 -43 0 0 -340 -96 340 -40 0 -95 -345 0 345 -43 0z"/>
 </g>
</svg>
