<?xml version="1.0" encoding="UTF-8"?>
<!DOCTYPE svg PUBLIC "-//W3C//DTD SVG 1.1//EN" "http://www.w3.org/Graphics/SVG/1.1/DTD/svg11.dtd">
<!-- Creator: CorelDRAW X7 -->
<svg xmlns="http://www.w3.org/2000/svg" xml:space="preserve" width="100%" height="100%" version="1.1" style="shape-rendering:geometricPrecision; text-rendering:geometricPrecision; image-rendering:optimizeQuality; fill-rule:evenodd; clip-rule:evenodd"
viewBox="0 0 1933 1570"
 xmlns:xlink="http://www.w3.org/1999/xlink">
 <defs>
  <style type="text/css">
   <![CDATA[
    .fil0 {fill:black}
   ]]>
  </style>
 </defs>
 <g id="Layer_x0020_1">
  <metadata id="CorelCorpID_0Corel-Layer"/>
  <path class="fil0" d="M1298 1418l306 0 0 95 -306 0 0 -95zm-831 -938c-14,101 -100,178 -204,178 -104,0 -190,-77 -204,-178 136,0 272,0 408,0zm1407 0c-13,101 -100,178 -204,178 -104,0 -190,-77 -204,-178 136,0 272,0 408,0zm-1797 -56l210 -367 1359 0 210 367c-593,0 -1186,0 -1779,0zm1164 363c0,242 0,484 0,726l-1063 0 0 -812c27,9 55,14 85,14 102,0 191,-59 235,-144 43,85 132,144 234,144 102,0 191,-59 235,-144 43,85 132,144 234,144 102,0 191,-59 235,-144 43,85 132,144 234,144 30,0 59,-5 85,-14l0 812 -94 0c0,-242 0,-484 0,-726 -140,0 -280,0 -420,0zm-151 575l-761 0 0 -519 761 0 0 519zm-817 -575c291,0 582,0 873,0 0,210 0,421 0,631 -291,0 -582,0 -873,0 0,-210 0,-421 0,-631zm1331 575l-306 0 0 -519 306 0 0 519zm-668 -882c-13,101 -100,178 -204,178 -104,0 -190,-77 -204,-178l408 0zm469 0c-13,101 -100,178 -204,178 -104,0 -190,-77 -204,-178l408 0zm407 193c84,-54 117,-131 121,-228l-254 -445 -1425 0 -254 445c5,97 37,174 121,228l0 897 1691 0 0 -897z"/>
 </g>
</svg>
