<?xml version="1.0" encoding="UTF-8"?>
<!DOCTYPE svg PUBLIC "-//W3C//DTD SVG 1.1//EN" "http://www.w3.org/Graphics/SVG/1.1/DTD/svg11.dtd">
<!-- Creator: CorelDRAW X7 -->
<svg xmlns="http://www.w3.org/2000/svg" xml:space="preserve" width="100%" height="100%" version="1.1" style="shape-rendering:geometricPrecision; text-rendering:geometricPrecision; image-rendering:optimizeQuality; fill-rule:evenodd; clip-rule:evenodd"
viewBox="0 0 1806 1507"
 xmlns:xlink="http://www.w3.org/1999/xlink">
 <defs>
  <style type="text/css">
   <![CDATA[
    .fil0 {fill:black}
   ]]>
  </style>
 </defs>
 <g id="Layer_x0020_1">
  <metadata id="CorelCorpID_0Corel-Layer"/>
  <path class="fil0" d="M875 556l56 0 0 621 -56 0 0 -621zm-198 677l-620 0 0 -959 141 0 479 0 -175 178 42 40 230 -226 0 -40 -230 -226 -44 40 177 177 -677 0 0 1073 677 0 0 -57zm452 0l178 -177 -45 -40 -229 226 0 40 229 225 42 -40 -175 -177 346 0 331 0 0 -1073 -677 0 0 57 621 0 0 959 -275 0 -346 0zm-254 -903l56 0 0 113 -56 0 0 -113z"/>
 </g>
</svg>
