<?xml version="1.0" encoding="UTF-8"?>
<!DOCTYPE svg PUBLIC "-//W3C//DTD SVG 1.1//EN" "http://www.w3.org/Graphics/SVG/1.1/DTD/svg11.dtd">
<!-- Creator: CorelDRAW X7 -->
<svg xmlns="http://www.w3.org/2000/svg" xml:space="preserve" width="100%" height="100%" version="1.1" style="shape-rendering:geometricPrecision; text-rendering:geometricPrecision; image-rendering:optimizeQuality; fill-rule:evenodd; clip-rule:evenodd"
viewBox="0 0 1298 1609"
 xmlns:xlink="http://www.w3.org/1999/xlink">
 <defs>
  <style type="text/css">
   <![CDATA[
    .fil0 {fill:black}
   ]]>
  </style>
 </defs>
 <g id="Layer_x0020_1">
  <metadata id="CorelCorpID_0Corel-Layer"/>
  <path class="fil0" d="M6 1609l-6 0 0 -1609 423 0 0 56 -366 0 0 1496 366 0 -177 -177 44 -40 230 225c0,17 0,33 0,49 -172,0 -343,0 -514,0zm615 -1002l56 0 0 621 -56 0 0 -621zm0 -226l56 0 0 113 -56 0 0 -113zm158 -381l0 48 229 226 42 -40 -175 -178 367 0 0 1496c-123,0 -245,0 -367,0l0 57c141,0 282,0 423,0l0 -1609c-173,0 -346,0 -519,0z"/>
 </g>
</svg>
