<?xml version="1.0" encoding="UTF-8"?>
<!DOCTYPE svg PUBLIC "-//W3C//DTD SVG 1.1//EN" "http://www.w3.org/Graphics/SVG/1.1/DTD/svg11.dtd">
<!-- Creator: CorelDRAW X7 -->
<svg xmlns="http://www.w3.org/2000/svg" xml:space="preserve" width="100%" height="100%" version="1.1" style="shape-rendering:geometricPrecision; text-rendering:geometricPrecision; image-rendering:optimizeQuality; fill-rule:evenodd; clip-rule:evenodd"
viewBox="0 0 1806 1806"
 xmlns:xlink="http://www.w3.org/1999/xlink">
 <defs>
  <style type="text/css">
   <![CDATA[
    .fil0 {fill:black}
   ]]>
  </style>
 </defs>
 <g id="Layer_x0020_1">
  <metadata id="CorelCorpID_0Corel-Layer"/>
  <path class="fil0" d="M931 593l-56 0 0 -113 56 0 0 113zm-609 -306l0 249 57 0 0 -310 -29 -28 -310 0 0 56 235 0c-3,3 -7,7 -10,11 -171,170 -265,397 -265,638 0,241 94,468 265,639 170,170 397,264 638,264 124,0 245,-25 355,-72l0 -62c-109,51 -230,78 -355,78 -226,0 -439,-88 -599,-248 -159,-160 -247,-373 -247,-599 0,-226 88,-439 247,-599 6,-5 12,-11 18,-17zm1209 1265l235 0 0 57 -310 0 -28 -29 0 -310 56 0 0 249c6,-6 12,-11 18,-17 160,-160 248,-373 248,-599 0,-226 -88,-439 -248,-599 -160,-159 -373,-248 -599,-248 -125,0 -245,27 -355,78l0 -62c111,-47 231,-72 355,-72 241,0 468,94 639,265 170,170 264,397 264,638 0,241 -94,468 -264,639 -4,3 -7,7 -11,10zm-656 -226l0 -621 56 0 0 621 -56 0z"/>
 </g>
</svg>
