<?xml version="1.0" encoding="UTF-8"?>
<!DOCTYPE svg PUBLIC "-//W3C//DTD SVG 1.1//EN" "http://www.w3.org/Graphics/SVG/1.1/DTD/svg11.dtd">
<!-- Creator: CorelDRAW X7 -->
<svg xmlns="http://www.w3.org/2000/svg" xml:space="preserve" width="100%" height="100%" version="1.1" style="shape-rendering:geometricPrecision; text-rendering:geometricPrecision; image-rendering:optimizeQuality; fill-rule:evenodd; clip-rule:evenodd"
viewBox="0 0 1806 1806"
 xmlns:xlink="http://www.w3.org/1999/xlink">
 <defs>
  <style type="text/css">
   <![CDATA[
    .fil0 {fill:black}
   ]]>
  </style>
 </defs>
 <g id="Layer_x0020_1">
  <metadata id="CorelCorpID_0Corel-Layer"/>
  <g id="_2186930193504">
   <path class="fil0" d="M903 0c-241,0 -468,94 -638,265 -171,170 -265,397 -265,638 0,241 94,468 265,639 170,170 397,264 638,264 241,0 468,-94 639,-264 170,-171 264,-398 264,-639 0,-241 -94,-468 -264,-638 -171,-171 -398,-265 -639,-265zm599 1502c-160,160 -373,248 -599,248 -226,0 -439,-88 -599,-248 -159,-160 -247,-373 -247,-599 0,-226 88,-439 247,-599 160,-159 373,-247 599,-247 226,0 439,88 599,247 160,160 248,373 248,599 0,226 -88,439 -248,599z"/>
   <path class="fil0" d="M903 226c-181,0 -351,70 -479,198 -128,128 -198,298 -198,479 0,181 70,351 198,479 128,128 298,198 479,198 181,0 351,-70 479,-198 128,-128 198,-298 198,-479 0,-181 -70,-351 -198,-479 -128,-128 -298,-198 -479,-198zm439 1116c-117,117 -273,182 -439,182 -166,0 -322,-65 -439,-182 -117,-117 -182,-273 -182,-439 0,-166 65,-322 182,-439 117,-117 273,-182 439,-182 166,0 322,65 439,182 117,117 182,273 182,439 0,166 -65,322 -182,439z"/>
   <path class="fil0" d="M903 452c-120,0 -234,47 -319,132 -85,85 -132,198 -132,319 0,121 47,234 132,319 85,86 199,133 319,133 121,0 234,-47 319,-133 86,-85 133,-198 133,-319 0,-121 -47,-234 -133,-319 -85,-85 -198,-132 -319,-132zm279 731c-74,74 -173,115 -279,115 -105,0 -205,-41 -279,-115 -75,-75 -116,-174 -116,-280 0,-105 41,-205 116,-279 74,-75 174,-116 279,-116 106,0 205,41 279,116 75,74 116,174 116,279 0,106 -41,205 -116,280z"/>
   <path class="fil0" d="M903 677c-60,0 -117,24 -160,66 -42,43 -66,100 -66,160 0,60 24,117 66,160 43,42 100,66 160,66 60,0 117,-24 160,-66 42,-43 66,-100 66,-160 0,-60 -24,-117 -66,-160 -43,-42 -100,-66 -160,-66zm120 346c-32,32 -75,49 -120,49 -45,0 -88,-17 -120,-49 -32,-32 -49,-75 -49,-120 0,-45 17,-88 49,-120 32,-32 75,-49 120,-49 45,0 88,17 120,49 32,32 49,75 49,120 1,45 -17,88 -49,120z"/>
  </g>
 </g>
</svg>
