<?xml version="1.0" encoding="UTF-8"?>
<!DOCTYPE svg PUBLIC "-//W3C//DTD SVG 1.1//EN" "http://www.w3.org/Graphics/SVG/1.1/DTD/svg11.dtd">
<!-- Creator: CorelDRAW X7 -->
<svg xmlns="http://www.w3.org/2000/svg" xml:space="preserve" width="100%" height="100%" version="1.1" style="shape-rendering:geometricPrecision; text-rendering:geometricPrecision; image-rendering:optimizeQuality; fill-rule:evenodd; clip-rule:evenodd"
viewBox="0 0 1806 1270"
 xmlns:xlink="http://www.w3.org/1999/xlink">
 <defs>
  <style type="text/css">
   <![CDATA[
    .fil0 {fill:black}
   ]]>
  </style>
 </defs>
 <g id="Layer_x0020_1">
  <metadata id="CorelCorpID_0Corel-Layer"/>
  <path class="fil0" d="M1806 311l0 959c-602,0 -1204,0 -1806,0l0 -959 170 0 0 -141 56 0 0 -170 57 0 0 170 282 0 0 141c413,0 827,0 1241,0zm-1580 705l282 0c0,-263 0,-527 0,-790l-282 0c0,263 0,527 0,790zm-56 -649l-114 0 0 847c565,0 1129,0 1694,0l0 -847 -1185 0 0 706 -395 0 0 -706zm1354 198l113 0 0 -57 -113 0 0 57zm-226 0l113 0 0 -57 -113 0 0 57zm226 282l113 0 0 -57 -113 0 0 57zm-226 0l113 0 0 -57 -113 0 0 57zm226 282l113 0 0 -56 -113 0 0 56zm-226 0l113 0 0 -56 -113 0 0 56zm-226 -564l113 0 0 -57 -113 0 0 57zm0 282l113 0 0 -57 -113 0 0 57zm0 282l113 0 0 -56 -113 0 0 56z"/>
 </g>
</svg>
