<?xml version="1.0" encoding="UTF-8"?>
<!DOCTYPE svg PUBLIC "-//W3C//DTD SVG 1.1//EN" "http://www.w3.org/Graphics/SVG/1.1/DTD/svg11.dtd">
<!-- Creator: CorelDRAW X7 -->
<svg xmlns="http://www.w3.org/2000/svg" xml:space="preserve" width="100%" height="100%" version="1.1" style="shape-rendering:geometricPrecision; text-rendering:geometricPrecision; image-rendering:optimizeQuality; fill-rule:evenodd; clip-rule:evenodd"
viewBox="0 0 1830 1830"
 xmlns:xlink="http://www.w3.org/1999/xlink">
 <defs>
  <style type="text/css">
   <![CDATA[
    .fil0 {fill:black}
   ]]>
  </style>
 </defs>
 <g id="Layer_x0020_1">
  <metadata id="CorelCorpID_0Corel-Layer"/>
  <path class="fil0" d="M189 1318l40 40 254 -254 -40 -40 -254 254zm1641 -798l-1310 1310c-174,-174 -347,-347 -520,-520l435 -435 252 251 439 -439 -251 -252 435 -435c173,173 346,346 520,520zm-520 -440l-355 355 251 252 -519 519 -252 -252 -355 356c146,146 293,293 440,440l1230 -1230c-147,-147 -293,-294 -440,-440zm-246 363l40 40 254 -254 -40 -40 -254 254z"/>
 </g>
</svg>
