<?xml version="1.0" encoding="UTF-8"?>
<!DOCTYPE svg PUBLIC "-//W3C//DTD SVG 1.1//EN" "http://www.w3.org/Graphics/SVG/1.1/DTD/svg11.dtd">
<!-- Creator: CorelDRAW X7 -->
<svg xmlns="http://www.w3.org/2000/svg" xml:space="preserve" width="100%" height="100%" version="1.1" style="shape-rendering:geometricPrecision; text-rendering:geometricPrecision; image-rendering:optimizeQuality; fill-rule:evenodd; clip-rule:evenodd"
viewBox="0 0 1530 1806"
 xmlns:xlink="http://www.w3.org/1999/xlink">
 <defs>
  <style type="text/css">
   <![CDATA[
    .fil0 {fill:black}
   ]]>
  </style>
 </defs>
 <g id="Layer_x0020_1">
  <metadata id="CorelCorpID_0Corel-Layer"/>
  <path class="fil0" d="M1072 629l340 1157 54 -16 -100 -342 164 -55 -128 -450 -168 56 -108 -369 -54 16 0 -287 -66 0 -140 -339 -372 0 -116 145 -258 -4 -57 198 -63 0 0 1467 1072 0 0 -1177zm-395 -8l57 0 0 959 -57 0 0 -959zm-338 0l56 0 0 959 -56 0 0 -959zm1025 375l97 340 -111 38 -100 -340 114 -38zm-843 -939l307 0 117 282 -473 0 -49 -160 98 -122zm-359 141l208 3 43 138 -291 0 40 -141zm854 1552l-959 0 0 -1355 959 0 0 1355z"/>
 </g>
</svg>
