<?xml version="1.0" encoding="UTF-8"?>
<!DOCTYPE svg PUBLIC "-//W3C//DTD SVG 1.1//EN" "http://www.w3.org/Graphics/SVG/1.1/DTD/svg11.dtd">
<!-- Creator: CorelDRAW X7 -->
<svg xmlns="http://www.w3.org/2000/svg" xml:space="preserve" width="100%" height="100%" version="1.1" style="shape-rendering:geometricPrecision; text-rendering:geometricPrecision; image-rendering:optimizeQuality; fill-rule:evenodd; clip-rule:evenodd"
viewBox="0 0 1806 1806"
 xmlns:xlink="http://www.w3.org/1999/xlink">
 <defs>
  <style type="text/css">
   <![CDATA[
    .fil0 {fill:black}
   ]]>
  </style>
 </defs>
 <g id="Layer_x0020_1">
  <metadata id="CorelCorpID_0Corel-Layer"/>
  <path class="fil0" d="M903 1355c442,0 729,-249 843,-371 -19,196 -104,377 -244,518 -160,160 -373,248 -599,248 -217,0 -421,-81 -578,-229l223 -223c104,34 223,57 355,57zm903 -442l0 -19c-2,-238 -96,-461 -264,-629 -171,-171 -398,-265 -639,-265 -241,0 -468,94 -638,265 -169,168 -263,391 -265,629l0 19c2,237 96,460 265,629 170,170 397,264 638,264 241,0 468,-94 639,-264 168,-169 262,-392 264,-629zm-60 -91c-73,-78 -218,-209 -430,-292l205 -205c129,138 207,311 225,497zm-488 -314c-104,-34 -223,-56 -355,-56 -442,0 -729,249 -843,370 19,-195 104,-377 244,-518 160,-159 373,-247 599,-247 217,0 421,81 578,228l-223 223zm-1198 476c73,78 218,209 430,293l-205 204c-129,-137 -207,-311 -225,-497zm843 145c124,0 226,-101 226,-226 0,-52 -18,-100 -48,-138l191 -191c262,98 424,274 470,329 -65,77 -360,395 -839,395 -114,0 -217,-18 -309,-46l171 -171c38,30 86,48 138,48zm138 -404c-38,-30 -86,-48 -138,-48 -125,0 -226,102 -226,226 0,52 18,100 48,139l-191 190c-262,-98 -424,-274 -470,-329 65,-77 360,-395 839,-395 114,0 217,18 309,46l-171 171zm-276 276l236 -236c-28,-20 -61,-31 -98,-31 -93,0 -169,76 -169,169 0,37 11,71 31,98zm276 -196l-236 236c28,20 62,32 98,32 93,0 169,-77 169,-170 0,-36 -11,-70 -31,-98z"/>
 </g>
</svg>
