<?xml version="1.0" encoding="UTF-8"?>
<!DOCTYPE svg PUBLIC "-//W3C//DTD SVG 1.1//EN" "http://www.w3.org/Graphics/SVG/1.1/DTD/svg11.dtd">
<!-- Creator: CorelDRAW X7 -->
<svg xmlns="http://www.w3.org/2000/svg" xml:space="preserve" width="100%" height="100%" version="1.1" style="shape-rendering:geometricPrecision; text-rendering:geometricPrecision; image-rendering:optimizeQuality; fill-rule:evenodd; clip-rule:evenodd"
viewBox="0 0 1877 2005"
 xmlns:xlink="http://www.w3.org/1999/xlink">
 <defs>
  <style type="text/css">
   <![CDATA[
    .fil0 {fill:black}
   ]]>
  </style>
 </defs>
 <g id="Layer_x0020_1">
  <metadata id="CorelCorpID_0Corel-Layer"/>
  <path class="fil0" d="M838 1491c0,60 0,119 0,179 -114,0 -228,0 -342,0 0,-60 0,-119 0,-179 114,0 228,0 342,0zm283 -1106l-13 56c-37,-14 -78,-21 -118,-25l12 -55c40,3 81,11 119,24zm103 264c7,-38 6,-78 -9,-114 -10,-25 -26,-46 -48,-62l13 -60 14 9c33,23 58,54 74,92 17,42 20,90 14,135 -4,27 -12,53 -22,78l-56 -13c9,-21 16,-43 20,-65zm160 312c87,-102 139,-233 139,-377 0,-113 -32,-219 -88,-309 -106,-170 -296,-275 -496,-275 -201,0 -390,105 -497,275 -55,90 -88,196 -88,309 0,144 52,275 139,377l-113 0c-92,0 -187,37 -255,98 -77,70 -125,170 -125,282 0,221 0,443 0,664l1877 0c0,-221 0,-443 0,-664 0,-112 -48,-212 -125,-282 -68,-61 -163,-98 -255,-98l-113 0zm-445 -904c290,0 527,236 527,527 0,290 -237,527 -527,527 -291,0 -528,-237 -528,-527 0,-291 237,-527 528,-527zm0 1111c149,0 286,-57 390,-150l94 0c-120,140 -298,222 -484,222 -186,0 -364,-82 -485,-222l95 0c103,93 240,150 390,150zm875 110l0 0c-16,-80 -61,-150 -124,-197 -37,-26 -74,-44 -117,-54 -21,-5 -43,-8 -65,-9l0 930 0 0 313 0c0,0 0,-556 0,-607 0,-22 -3,-43 -7,-63zm-875 -225c252,0 458,-200 458,-447 0,-118 -48,-213 -138,-276 -163,-114 -478,-114 -641,0 -90,63 -138,158 -138,276 0,247 206,447 459,447zm0 -752c118,0 218,26 288,75 75,53 114,130 114,230 0,215 -181,390 -402,390 -222,0 -402,-175 -402,-390 0,-100 38,-177 113,-230 71,-49 170,-75 289,-75zm28 995c185,-8 360,-89 485,-225l0 877 -485 0 0 -652zm-739 221c0,-80 0,-160 0,-239 -55,0 -110,0 -165,0 29,-145 154,-255 306,-260l0 930 -312 0 0 -431c57,0 114,0 171,0zm325 96l228 0 0 -65 -228 0 0 65zm-496 -153l115 0 0 -126 -115 0c0,3 0,126 0,126zm853 -164c-185,-8 -360,-89 -485,-225l0 877 485 0 0 -652z"/>
 </g>
</svg>
