<?xml version="1.0" encoding="UTF-8"?>
<!DOCTYPE svg PUBLIC "-//W3C//DTD SVG 1.1//EN" "http://www.w3.org/Graphics/SVG/1.1/DTD/svg11.dtd">
<!-- Creator: CorelDRAW X7 -->
<svg xmlns="http://www.w3.org/2000/svg" xml:space="preserve" width="100%" height="100%" version="1.1" style="shape-rendering:geometricPrecision; text-rendering:geometricPrecision; image-rendering:optimizeQuality; fill-rule:evenodd; clip-rule:evenodd"
viewBox="0 0 1877 2005"
 xmlns:xlink="http://www.w3.org/1999/xlink">
 <defs>
  <style type="text/css">
   <![CDATA[
    .fil0 {fill:black}
   ]]>
  </style>
 </defs>
 <g id="Layer_x0020_1">
  <metadata id="CorelCorpID_0Corel-Layer"/>
  <path class="fil0" d="M1268 514c70,171 -74,426 -329,426 -186,0 -346,-145 -346,-334 0,-195 181,-248 346,-248 122,0 277,29 329,156zm-229 977c0,60 0,119 0,179 114,0 228,0 342,0 0,-60 0,-119 0,-179 -114,0 -228,0 -342,0zm-546 -530c-87,-102 -139,-233 -139,-377 0,-113 33,-219 88,-309 107,-170 296,-275 497,-275 200,0 390,105 496,275 56,90 88,196 88,309 0,144 -52,275 -139,377l113 0c92,0 187,37 255,98 77,70 125,170 125,282 0,221 0,443 0,664l-1877 0c0,-221 0,-443 0,-664 0,-112 48,-212 125,-282 68,-61 163,-98 255,-98l113 0zm446 -904c-291,0 -528,236 -528,527 0,290 237,527 528,527 290,0 527,-237 527,-527 0,-291 -237,-527 -527,-527zm0 1111c-150,0 -287,-57 -390,-150l-95 0c121,140 298,222 485,222 186,0 363,-82 484,-222l-94 0c-104,93 -241,150 -390,150zm-876 110l0 0c16,-80 61,-150 125,-197 36,-26 74,-44 117,-54 20,-5 42,-8 64,-9l0 930 0 0 -312 0c-1,0 0,-556 0,-607 0,-22 2,-43 6,-63zm876 -225c-253,0 -459,-200 -459,-447 0,-118 48,-213 138,-276 163,-114 478,-114 641,0 90,63 138,158 138,276 0,247 -206,447 -458,447zm0 -752c-119,0 -218,26 -289,75 -75,53 -113,130 -113,230 0,215 180,390 402,390 221,0 402,-175 402,-390 0,-100 -39,-177 -114,-230 -70,-49 -170,-75 -288,-75zm-29 995c-185,-8 -360,-89 -485,-225l0 877 485 0 0 -652zm739 221c0,-80 0,-160 0,-239 55,0 110,0 165,0 -28,-145 -154,-255 -306,-260l0 930 313 0 0 -431c-58,0 -115,0 -172,0zm-325 96l-228 0 0 -65 228 0 0 65zm497 -153l-116 0 0 -126 115 0c1,3 1,126 1,126zm-854 -164c185,-8 360,-89 485,-225l0 877 -485 0 0 -652zm248 -761c-41,-101 -181,-121 -276,-121 -131,0 -289,33 -289,192 0,272 373,384 530,151 42,-62 65,-150 35,-222z"/>
 </g>
</svg>
