<?xml version="1.0" encoding="UTF-8"?>
<!DOCTYPE svg PUBLIC "-//W3C//DTD SVG 1.1//EN" "http://www.w3.org/Graphics/SVG/1.1/DTD/svg11.dtd">
<!-- Creator: CorelDRAW X7 -->
<svg xmlns="http://www.w3.org/2000/svg" xml:space="preserve" width="100%" height="100%" version="1.1" style="shape-rendering:geometricPrecision; text-rendering:geometricPrecision; image-rendering:optimizeQuality; fill-rule:evenodd; clip-rule:evenodd"
viewBox="0 0 1806 1806"
 xmlns:xlink="http://www.w3.org/1999/xlink">
 <defs>
  <style type="text/css">
   <![CDATA[
    .fil0 {fill:black}
   ]]>
  </style>
 </defs>
 <g id="Layer_x0020_1">
  <metadata id="CorelCorpID_0Corel-Layer"/>
  <path class="fil0" d="M554 1736c-107,-44 -205,-110 -289,-194l-8 -8 0 0 -8 -8 0 0 -8 -9 0 0 -1 -1c-155,-167 -240,-384 -240,-613 0,-154 38,-302 111,-434l41 42c-62,120 -95,253 -95,392 0,64 6,126 20,187l0 0 2 9 0 1 1 2 1 4 1 5 0 1c35,138 104,264 203,369l120 -119c-116,-125 -179,-287 -179,-459 0,-92 18,-182 53,-265l44 43c-27,70 -41,145 -41,222 0,157 58,304 163,419l120 -120c-74,-83 -113,-188 -113,-299 0,-29 2,-57 8,-85l50 50c-1,12 -2,23 -2,35 0,96 34,187 96,259l121 -120c-31,-40 -48,-88 -48,-139 0,-31 6,-61 18,-88l0 -1 1 0 0 -1 0 -1 1 0 0 -1 0 0 0 -1 1 -1 0 0 1 -2 0 0 0 -1 0 0 1 -2 0 0 1 -1 0 -1 0 0 0 0 1 -1 0 -1 1 -1 0 0 0 -1 0 0 1 -1 0 0 0 -1 1 -1 0 -1 0 0 1 0 0 -1 0 -1 1 0 0 -1 0 -1 1 0 0 0 0 -1 1 -1 0 -1 0 0 1 -1 0 0 1 -2 1 -1 0 0 0 0 1 -1 0 -1 1 -1 0 0 0 -1 1 0 0 -1 0 0 1 -1 0 -1 1 0 0 0 0 -1 1 -1 0 -1 0 0 1 0 0 -1 1 -1 0 0 0 -1 1 0 0 -1 1 0 0 -1 1 0 0 -1 0 0 1 -1 0 -1 1 0c6,-8 12,-15 18,-21 43,-43 100,-67 160,-67 51,0 99,17 139,48l120 -120c-72,-63 -163,-97 -259,-97 -105,0 -205,41 -279,116 -7,6 -13,13 -19,20l-40 -40c6,-7 12,-13 19,-20 85,-85 199,-132 319,-132 111,0 216,40 299,113l120 -120c-115,-105 -263,-163 -419,-163 -166,0 -322,65 -439,182 -7,7 -13,14 -19,21l-40 -40c6,-7 12,-14 19,-21 128,-128 298,-198 479,-198 172,0 333,63 459,179l119 -120c-100,-94 -218,-160 -347,-197l-4 -1 0 0c-73,-20 -149,-30 -227,-30 -226,0 -439,88 -599,248 -7,7 -14,14 -21,22l2 -2 -40 -40c6,-7 13,-14 20,-20 137,-137 310,-225 498,-254l0 0c46,-7 93,-11 140,-11 241,0 468,94 639,265l0 0 0 0 1 1 0 0 1 0 0 1 2 2 0 0 3 3 0 0 2 2 0 0 1 1 0 0 1 1 0 0 0 0 0 0 0 1 0 0 1 1 0 0 1 0 0 0 1 1 0 0 0 0 0 0 0 0 0 0 1 1 0 0 0 1 0 0 1 0 0 0 0 0 0 0 0 1 0 0 1 1 0 0 1 0 0 0 0 1 0 0 0 0 1 0 0 1 0 0c-52,52 -91,91 -159,160l-40 40c-94,93 -187,186 -280,280 30,39 47,87 47,138 0,60 -24,117 -66,160 -43,43 -100,66 -160,66 -51,0 -99,-17 -138,-47l-121 120c72,62 163,96 259,96 106,0 205,-41 279,-115 75,-75 116,-174 116,-280 0,-12 0,-23 -1,-35l50 -50c5,28 8,56 8,85 0,121 -47,234 -133,320 -85,85 -198,132 -319,132 -111,0 -216,-40 -299,-113l-119 120c114,105 262,162 418,162 166,0 322,-64 439,-182 117,-117 182,-273 182,-439 0,-77 -14,-152 -41,-221l44 -44c35,83 53,173 53,265 0,181 -70,351 -198,479 -128,128 -298,199 -479,199 -171,0 -333,-64 -458,-179l-120 119c68,64 145,116 229,154l0 0c108,49 227,75 349,75 226,0 439,-88 599,-248 160,-160 248,-373 248,-599 0,-139 -34,-273 -97,-393l1 1 42 -42c72,132 110,280 110,434 0,241 -94,468 -264,639 -171,170 -398,264 -639,264 -122,0 -240,-24 -349,-70l0 0zm211 -735l236 -236c-28,-20 -62,-31 -98,-31 -45,0 -88,18 -120,50 -32,31 -49,74 -49,119 0,36 11,70 31,98zm276 -196l-236 236c28,21 63,31 98,31 45,0 88,-17 120,-49 32,-32 50,-75 49,-120 0,-36 -10,-69 -31,-98z"/>
 </g>
</svg>
