<?xml version="1.0" encoding="UTF-8"?>
<!DOCTYPE svg PUBLIC "-//W3C//DTD SVG 1.1//EN" "http://www.w3.org/Graphics/SVG/1.1/DTD/svg11.dtd">
<!-- Creator: CorelDRAW X7 -->
<svg xmlns="http://www.w3.org/2000/svg" xml:space="preserve" width="100%" height="100%" version="1.1" style="shape-rendering:geometricPrecision; text-rendering:geometricPrecision; image-rendering:optimizeQuality; fill-rule:evenodd; clip-rule:evenodd"
viewBox="0 0 1808 1808"
 xmlns:xlink="http://www.w3.org/1999/xlink">
 <defs>
  <style type="text/css">
   <![CDATA[
    .fil0 {fill:black}
   ]]>
  </style>
 </defs>
 <g id="Layer_x0020_1">
  <metadata id="CorelCorpID_0Corel-Layer"/>
  <path class="fil0" d="M226 0l0 57c396,0 775,153 1058,426l-184 184c-225,-216 -533,-349 -874,-349l0 57c327,0 620,126 835,332l-190 190c-171,-161 -400,-260 -645,-260l0 56c231,0 445,93 606,243l-185 185c-112,-103 -261,-166 -421,-166l0 57c145,0 280,56 382,148l-241 241c-39,-30 -87,-48 -140,-48 -125,0 -227,102 -227,227 0,126 102,228 227,228 126,0 227,-102 227,-228 0,-52 -17,-100 -47,-139l241 -241c91,101 148,234 148,380l56 0c0,-161 -63,-308 -165,-420l185 -184c149,158 242,371 242,604l57 0c0,-248 -100,-475 -260,-644l190 -189c207,216 332,510 332,833l56 0c0,-338 -132,-646 -349,-873l184 -184c25,26 49,53 72,81 229,273 355,620 355,976l57 0c0,-370 -131,-729 -368,-1013 -25,-29 -50,-57 -76,-84l198 -198 -40 -40 -198 198c-291,-283 -677,-443 -1098,-443zm-98 1719l238 -238c20,28 32,63 32,99 0,95 -77,171 -171,171 -37,0 -71,-12 -99,-32zm198 -277l-238 238c-20,-28 -31,-63 -31,-100 0,-94 76,-170 170,-170 37,0 71,12 99,32z"/>
 </g>
</svg>
