<?xml version="1.0" encoding="UTF-8"?>
<!DOCTYPE svg PUBLIC "-//W3C//DTD SVG 1.1//EN" "http://www.w3.org/Graphics/SVG/1.1/DTD/svg11.dtd">
<!-- Creator: CorelDRAW X7 -->
<svg xmlns="http://www.w3.org/2000/svg" xml:space="preserve" width="100%" height="100%" version="1.1" style="shape-rendering:geometricPrecision; text-rendering:geometricPrecision; image-rendering:optimizeQuality; fill-rule:evenodd; clip-rule:evenodd"
viewBox="0 0 1808 1808"
 xmlns:xlink="http://www.w3.org/1999/xlink">
 <defs>
  <style type="text/css">
   <![CDATA[
    .fil0 {fill:black}
   ]]>
  </style>
 </defs>
 <g id="Layer_x0020_1">
  <metadata id="CorelCorpID_0Corel-Layer"/>
  <path class="fil0" d="M226 0l0 57c451,0 880,199 1170,547 229,273 355,620 355,976l57 0c0,-370 -131,-729 -368,-1013 -302,-360 -734,-567 -1214,-567zm228 1580c0,-125 -101,-227 -227,-227 -125,0 -227,102 -227,227 0,126 102,228 227,228 126,0 227,-102 227,-228zm-397 0c0,-94 76,-170 170,-170 94,0 171,76 171,170 0,95 -77,171 -171,171 -94,0 -170,-76 -170,-171zm795 0c0,-344 -288,-625 -626,-625l0 57c310,0 570,255 570,568l56 0zm-626 -943l0 56c480,0 888,398 888,887l57 0c0,-520 -437,-943 -945,-943zm1207 943l56 0c0,-695 -558,-1262 -1263,-1262l0 57c677,0 1207,541 1207,1205z"/>
 </g>
</svg>
