<?xml version="1.0" encoding="UTF-8"?>
<!DOCTYPE svg PUBLIC "-//W3C//DTD SVG 1.1//EN" "http://www.w3.org/Graphics/SVG/1.1/DTD/svg11.dtd">
<!-- Creator: CorelDRAW X7 -->
<svg xmlns="http://www.w3.org/2000/svg" xml:space="preserve" width="100%" height="100%" version="1.1" style="shape-rendering:geometricPrecision; text-rendering:geometricPrecision; image-rendering:optimizeQuality; fill-rule:evenodd; clip-rule:evenodd"
viewBox="0 0 1818 1818"
 xmlns:xlink="http://www.w3.org/1999/xlink">
 <defs>
  <style type="text/css">
   <![CDATA[
    .fil0 {fill:black}
   ]]>
  </style>
 </defs>
 <g id="Layer_x0020_1">
  <metadata id="CorelCorpID_0Corel-Layer"/>
  <path class="fil0" d="M1479 564l-508 0 0 57 508 0 0 -57zm-818 553l126 -126c-96,-106 -155,-245 -155,-398 0,-327 266,-593 593,-593 327,0 593,266 593,593 0,326 -266,592 -593,592 -153,0 -293,-59 -398,-155l-126 127 84 85 -576 576 -209 -209 576 -576 85 84zm1100 -524c0,-296 -240,-537 -536,-537 -295,0 -536,241 -536,537 0,295 241,536 536,536 296,0 536,-241 536,-536zm-1552 1145l497 -496 -130 -130 -496 497 129 129z"/>
 </g>
</svg>
