<?xml version="1.0" encoding="UTF-8"?>
<!DOCTYPE svg PUBLIC "-//W3C//DTD SVG 1.1//EN" "http://www.w3.org/Graphics/SVG/1.1/DTD/svg11.dtd">
<!-- Creator: CorelDRAW X7 -->
<svg xmlns="http://www.w3.org/2000/svg" xml:space="preserve" width="100%" height="100%" version="1.1" style="shape-rendering:geometricPrecision; text-rendering:geometricPrecision; image-rendering:optimizeQuality; fill-rule:evenodd; clip-rule:evenodd"
viewBox="0 0 26000 26000"
 xmlns:xlink="http://www.w3.org/1999/xlink">
 <defs>
  <style type="text/css">
   <![CDATA[
    .fil0 {fill:none}
    .fil1 {fill:white}
   ]]>
  </style>
 </defs>
 <g id="Layer_x0020_1">
  <metadata id="CorelCorpID_0Corel-Layer"/>
  <g id="_1930441235856">
   <rect class="fil0" width="26000" height="26000"/>
   <path class="fil1" d="M17163 10038l-2384 -2398 -5928 0 -14 10720 8326 0 0 -8322zm2223 -3424c1705,1706 2644,3974 2644,6387 1,2411 -938,4680 -2643,6385 -1706,1706 -3974,2644 -6387,2644 -2412,0 -4680,-939 -6386,-2644 -1706,-1706 -2644,-3974 -2644,-6386 0,-2413 938,-4681 2644,-6387 1705,-1705 3974,-2644 6385,-2643 2413,0 4681,938 6387,2644zm-14853 6386c1,2261 882,4387 2481,5986 1599,1599 3725,2480 5985,2480 2263,0 4389,-880 5989,-2480 1599,-1599 2478,-3724 2478,-5986 0,-2261 -879,-4388 -2478,-5987 -1600,-1599 -3727,-2479 -5989,-2480 -2261,1 -4386,881 -5985,2480 -1599,1599 -2480,3725 -2481,5987zm9682 -4796l0 2398 2384 0 0 7194 -7198 0 14 -9592 4800 0zm2165 1834l-1601 0 0 -1600 1601 1600z"/>
  </g>
 </g>
</svg>
