<?xml version="1.0" encoding="UTF-8"?>
<!DOCTYPE svg PUBLIC "-//W3C//DTD SVG 1.1//EN" "http://www.w3.org/Graphics/SVG/1.1/DTD/svg11.dtd">
<!-- Creator: CorelDRAW X7 -->
<svg xmlns="http://www.w3.org/2000/svg" xml:space="preserve" width="100%" height="100%" version="1.1" style="shape-rendering:geometricPrecision; text-rendering:geometricPrecision; image-rendering:optimizeQuality; fill-rule:evenodd; clip-rule:evenodd"
viewBox="0 0 26000 26000"
 xmlns:xlink="http://www.w3.org/1999/xlink">
 <defs>
  <style type="text/css">
   <![CDATA[
    .fil0 {fill:none}
    .fil1 {fill:white}
   ]]>
  </style>
 </defs>
 <g id="Layer_x0020_1">
  <metadata id="CorelCorpID_0Corel-Layer"/>
  <g id="_1930564537920">
   <rect class="fil0" width="26000" height="26000"/>
   <path class="fil1" d="M10038 8837l-2398 2384 0 5928 10720 14 0 -8326 -8322 0zm-3424 -2223c1706,-1705 3974,-2644 6387,-2644 2411,-1 4680,938 6385,2643 1706,1706 2644,3974 2644,6387 0,2412 -939,4680 -2644,6386 -1706,1706 -3974,2644 -6386,2644 -2413,0 -4681,-938 -6387,-2644 -1705,-1705 -2644,-3974 -2643,-6385 0,-2413 938,-4681 2644,-6387zm6386 14853c2261,-1 4387,-882 5986,-2481 1599,-1599 2480,-3725 2480,-5985 0,-2263 -880,-4389 -2480,-5989 -1599,-1599 -3724,-2478 -5986,-2478 -2261,0 -4388,879 -5987,2478 -1599,1600 -2479,3727 -2480,5989 1,2261 881,4386 2480,5985 1599,1599 3725,2480 5987,2481zm-4796 -9682l2398 0 0 -2384 7194 0 0 7198 -9592 -14 0 -4800zm1834 -2165l0 1601 -1600 0 1600 -1601z"/>
  </g>
 </g>
</svg>
