<?xml version="1.0" encoding="UTF-8"?>
<!DOCTYPE svg PUBLIC "-//W3C//DTD SVG 1.1//EN" "http://www.w3.org/Graphics/SVG/1.1/DTD/svg11.dtd">
<!-- Creator: CorelDRAW X7 -->
<svg xmlns="http://www.w3.org/2000/svg" xml:space="preserve" width="100%" height="100%" version="1.1" style="shape-rendering:geometricPrecision; text-rendering:geometricPrecision; image-rendering:optimizeQuality; fill-rule:evenodd; clip-rule:evenodd"
viewBox="0 0 26000 26000"
 xmlns:xlink="http://www.w3.org/1999/xlink">
 <defs>
  <style type="text/css">
   <![CDATA[
    .fil0 {fill:none}
    .fil1 {fill:white}
   ]]>
  </style>
 </defs>
 <g id="Layer_x0020_1">
  <metadata id="CorelCorpID_0Corel-Layer"/>
  <g id="_1928484244416">
   <rect class="fil0" width="26000" height="26000"/>
   <path class="fil1" d="M12718 11908c-485,126 -846,564 -846,1089 0,623 505,1128 1128,1128 208,0 403,-56 570,-155l1877 1876 399 -399 -1875 -1875c100,-169 158,-365 158,-575 0,-525 -361,-963 -846,-1089l0 -4558 -565 0 0 4558zm-6104 -5294c1706,-1705 3974,-2644 6387,-2644 2411,-1 4680,938 6385,2643 1706,1706 2644,3974 2644,6387 0,2412 -939,4680 -2644,6386 -1706,1706 -3974,2644 -6386,2644 -2413,0 -4681,-938 -6387,-2644 -1705,-1705 -2644,-3974 -2643,-6385 0,-2413 938,-4681 2644,-6387zm6670 14848c2155,-71 4170,-944 5702,-2476 1533,-1533 2406,-3550 2475,-5706l-1126 0 1 -564 1125 0c-70,-2156 -943,-4172 -2475,-5704 -1532,-1532 -3549,-2404 -5706,-2473l0 1126 -564 -1 0 -1125c-2155,70 -4171,941 -5703,2473 -1533,1533 -2405,3551 -2475,5708l1129 0 -1 564 -1128 0c71,2155 943,4170 2475,5702 1533,1533 3550,2406 5707,2476l0 -1134 564 1 0 1133zm-6069 -13845l798 798 400 -398 -798 -798 -400 398zm402 11168l798 -798 -398 -400 -798 798 398 400zm11168 -402l-798 -798 -400 398 798 798 400 -398zm-402 -11168l-798 798 398 400 798 -798 -398 -400zm-5383 5216c312,0 565,254 565,566 0,311 -253,565 -565,565 -311,0 -563,-254 -563,-565 0,-312 252,-566 563,-566z"/>
  </g>
 </g>
</svg>
