<?xml version="1.0" encoding="UTF-8"?>
<!DOCTYPE svg PUBLIC "-//W3C//DTD SVG 1.1//EN" "http://www.w3.org/Graphics/SVG/1.1/DTD/svg11.dtd">
<!-- Creator: CorelDRAW X7 -->
<svg xmlns="http://www.w3.org/2000/svg" xml:space="preserve" width="3.47724in" height="0.574685in" version="1.1" style="shape-rendering:geometricPrecision; text-rendering:geometricPrecision; image-rendering:optimizeQuality; fill-rule:evenodd; clip-rule:evenodd"
viewBox="0 0 34772 5747"
 xmlns:xlink="http://www.w3.org/1999/xlink">
 <defs>
  <style type="text/css">
   <![CDATA[
    .fil0 {fill:none}
    .fil2 {fill:#6C87C3}
    .fil1 {fill:#A6B7DE}
    .fil3 {fill:#D2AE6D}
   ]]>
  </style>
 </defs>
 <g id="Layer_x0020_1">
  <metadata id="CorelCorpID_0Corel-Layer"/>
  <g id="_2865568436528">
   <rect class="fil0" width="34772" height="5747"/>
   <g>
    <path class="fil1" d="M22989 4597l-1150 1150c1150,0 2299,0 3448,0l1150 -1150c-1150,0 -2299,0 -3448,0z"/>
    <polygon class="fil1" points="5747,1149 6896,0 0,0 0,1149 "/>
    <polygon class="fil1" points="0,2299 0,3448 3448,3448 4597,2299 "/>
    <polygon class="fil1" points="6896,2299 5747,3448 10344,3448 11494,2299 "/>
    <polygon class="fil1" points="5747,4597 5747,5747 8046,5747 9195,4597 "/>
    <polygon class="fil1" points="10344,4597 9195,5747 12643,5747 12643,4597 "/>
    <path class="fil1" d="M8046 1149l4597 0 1149 -1149c-1531,0 -3065,0 -4597,0l-1149 1149z"/>
    <path class="fil1" d="M13792 2299l-1149 1149 4598 0 1149 -1149c-1532,0 -3065,0 -4598,0z"/>
    <polygon class="fil1" points="17241,0 17241,1149 18391,1149 18391,0 "/>
    <polygon class="fil1" points="19540,2299 18391,3448 21838,3448 21838,2299 "/>
    <path class="fil1" d="M18391 4597c-1149,0 -2299,0 -3448,0l-1149 1150c1531,0 3065,0 4597,0l0 -1150 0 0z"/>
    <path class="fil1" d="M25287 1149l1149 -1149c-1149,0 -2298,0 -3449,0l-1149 1149c1149,0 2299,0 3449,0z"/>
    <path class="fil1" d="M22989 2299l-1150 1149c1150,0 2299,0 3448,0l1150 -1149c-1150,0 -2299,0 -3448,0z"/>
   </g>
   <g>
    <polygon class="fil2" points="4597,2299 3448,3448 3448,5747 4597,5747 "/>
    <polygon class="fil2" points="2299,4597 0,4597 0,5747 2299,5747 "/>
    <polygon class="fil2" points="5747,1149 5747,3448 6896,2299 6896,0 "/>
    <polygon class="fil2" points="18391,3448 18391,5747 19540,4597 19540,3448 "/>
    <polygon class="fil2" points="21838,3448 22989,2299 22989,1149 21838,1149 "/>
    <polygon class="fil2" points="22989,3448 21838,3448 21838,5747 22989,4597 "/>
    <polygon class="fil2" points="13792,2299 13792,0 12643,1149 12643,3448 "/>
    <polygon class="fil2" points="13792,3448 12643,3448 12643,5747 13792,4597 "/>
   </g>
   <path class="fil3" d="M27876 1149l5747 0 1149 -1149 -6897 0 0 1149 1 0 0 0zm4598 3448l-4597 0 0 1150 4597 0 0 -1150zm2298 -2298l-6896 0 0 1149 5747 0 0 2298 1149 0 0 -3448 0 1 0 0z"/>
  </g>
 </g>
</svg>
