<?xml version="1.0" encoding="UTF-8"?>
<!DOCTYPE svg PUBLIC "-//W3C//DTD SVG 1.1//EN" "http://www.w3.org/Graphics/SVG/1.1/DTD/svg11.dtd">
<!-- Creator: CorelDRAW X7 -->
<svg xmlns="http://www.w3.org/2000/svg" xml:space="preserve" width="4.32598in" height="1.04665in" version="1.1" style="shape-rendering:geometricPrecision; text-rendering:geometricPrecision; image-rendering:optimizeQuality; fill-rule:evenodd; clip-rule:evenodd"
viewBox="0 0 43260 10467"
 xmlns:xlink="http://www.w3.org/1999/xlink">
 <defs>
  <style type="text/css">
   <![CDATA[
    .fil0 {fill:#6C87C3}
    .fil1 {fill:#D2AE6D}
    .fil2 {fill:gray;fill-rule:nonzero}
   ]]>
  </style>
 </defs>
 <g id="Layer_x0020_1">
  <metadata id="CorelCorpID_0Corel-Layer"/>
  <g id="_2865611741808">
   <g>
    <path class="fil0" d="M30759 0l0 1150 3160 0 0 3451 -2009 0 -1 -2300 -1150 0 0 3450 3160 0 1150 -1150 0 -3451 -1150 -1150 -3160 0zm-5461 0l0 1150 3160 0 0 4601 1150 0 0 -4601 -1150 -1150 -3160 0zm0 2301l0 3450 1151 0 0 -3450 -1151 0zm12071 3450l-1150 0 0 -5750 1150 0 0 5750zm-13078 -1150l-4598 0 0 1150 3448 0 1150 -1150zm0 -2300l-4598 0 0 1150 3448 0 1150 -1150zm0 -2300l-4598 0 0 1150 3448 0 1150 -1150zm-6898 2300l1150 0 0 -2300 -4597 0 -1 1150 3448 0 0 1150 1150 1150 0 2300 -1150 0 0 -2300 -2297 0 0 2300 -1151 0 0 -3450 3448 0zm21269 -1150l3448 0 0 1150 -3448 0 0 3450 1150 0 0 -2300 2298 0 1150 -1150 0 -2300 -4598 0 0 1150zm-25724 3450l-4598 0 0 1150 3448 0 1150 -1150zm0 -2300l-4598 0 0 1150 3448 0 1150 -1150zm0 -2300l-4598 0 0 1150 3448 0 1150 -1150z"/>
    <path class="fil1" d="M6901 1l-6901 0 0 1150 5751 0 1150 -1150zm-2300 4600l-4601 0 0 1150 4601 0 0 -1150zm2300 -2300l-6901 0 0 1150 5751 0 0 2300 1150 0 0 -3450z"/>
   </g>
   <path class="fil2" d="M1351 8239l-1022 0 0 641 940 0 0 221 -940 0 0 641 1022 0 0 219 -1241 0 0 -1941 1241 0 0 219zm1781 287l257 0 -492 716 492 719 -257 0 -362 -552 -366 552 -256 0 494 -719 -494 -716 256 0 366 554 362 -554zm1039 1941l0 -1863c198,-69 385,-103 563,-103 146,1 270,40 372,116 115,88 173,207 174,358l0 532c0,149 -59,270 -177,360 -105,83 -231,124 -378,122 -135,-4 -250,-26 -343,-68l0 546 -211 0zm211 -757c108,43 224,65 346,65 93,0 172,-23 235,-67 69,-49 102,-114 100,-196l0 -543c2,-81 -30,-145 -97,-193 -63,-42 -141,-64 -232,-64 -165,0 -282,13 -352,38l0 960zm2341 262c-162,0 -282,-42 -362,-125 -78,-82 -119,-197 -120,-343l0 -1484 212 0 0 1484c0,170 90,255 270,255l0 213zm1376 -1271c-95,0 -174,22 -238,65 -70,48 -105,115 -105,201l0 542c0,87 35,154 105,204 66,43 145,64 238,64 92,0 170,-21 234,-64 70,-49 105,-116 104,-204l0 -542c0,-85 -35,-152 -104,-201 -63,-43 -141,-65 -234,-65zm-553 266c0,-152 58,-272 175,-361 103,-77 229,-117 378,-118 148,1 273,41 376,118 117,88 176,208 176,361l0 542c0,152 -59,273 -176,363 -103,78 -228,118 -376,119 -149,-1 -276,-41 -378,-119 -117,-89 -175,-210 -175,-363l0 -542zm2483 -441c59,-13 142,-14 249,-3l0 216c-81,-15 -154,-18 -217,-6 -153,36 -229,121 -229,255l0 973 -212 0 0 -973c0,-122 41,-226 122,-312 74,-77 169,-128 287,-150zm1922 441c0,-81 -35,-146 -103,-193 -64,-45 -142,-67 -235,-67 -96,0 -176,22 -241,67 -66,47 -100,111 -100,193l0 199 679 0 0 -199zm-679 550c0,85 35,152 103,201 62,43 141,65 238,65 163,0 275,-65 332,-194l193 96c-98,208 -273,311 -525,311 -150,0 -276,-38 -378,-115 -117,-90 -176,-211 -177,-364l0 -545c0,-151 59,-272 177,-361 103,-77 229,-116 378,-116 146,0 271,39 376,116 117,88 176,209 176,361l0 387 -893 0 0 158zm3531 444c-164,26 -296,-6 -398,-94 -102,-88 -154,-211 -154,-371l0 -1474 211 0 0 504 297 0 0 209 -297 0 0 761c0,88 30,160 89,214 59,56 144,74 252,54l0 197zm883 -1939l212 0 0 566c91,-41 205,-61 340,-62 146,-2 272,35 377,116 117,90 175,209 175,357l0 962 -214 0 0 -965c0,-81 -33,-145 -100,-192 -63,-43 -142,-68 -235,-69 -124,-1 -239,23 -343,67l0 1159 -212 0 0 -1939zm2937 945c0,-81 -35,-145 -103,-193 -64,-44 -142,-67 -235,-67 -96,0 -176,22 -240,67 -67,47 -101,111 -101,193l0 199 679 0 0 -199zm-679 550c0,84 35,152 103,201 62,43 141,65 238,65 163,0 275,-65 332,-194l193 96c-97,208 -272,311 -525,311 -150,0 -276,-38 -378,-115 -117,-90 -176,-211 -176,-364l0 -545c0,-151 59,-272 176,-361 103,-77 229,-116 378,-116 146,0 272,39 376,116 117,88 176,209 176,361l0 387 -893 0 0 158zm2928 444l0 -1939 656 0c202,0 369,44 501,133 157,105 235,255 235,446l0 782c0,190 -79,338 -235,443 -133,89 -299,135 -501,135l-656 0zm219 -219l437 0c146,0 267,-29 361,-86 103,-63 153,-154 153,-273l0 -782c0,-119 -51,-210 -153,-273 -93,-58 -214,-86 -361,-86l-437 0 0 1500zm2077 -1523c0,-41 16,-76 44,-105 31,-31 67,-45 108,-45 42,0 76,16 105,45 29,30 46,64 46,105 0,42 -16,78 -46,109 -29,29 -64,43 -105,43 -41,0 -78,-14 -108,-43 -29,-30 -44,-67 -44,-109zm263 307l0 1435 -211 0 0 -1435 211 0zm1071 1022c116,155 252,227 408,224 184,-4 275,-71 274,-209 -1,-114 -97,-192 -289,-226 -150,-27 -261,-62 -333,-106 -113,-71 -170,-174 -170,-310 0,-140 58,-247 175,-323 96,-61 210,-92 343,-92 167,0 311,56 431,168l-139 159c-79,-80 -176,-121 -292,-121 -82,0 -151,16 -207,46 -66,35 -100,89 -100,163 0,66 36,117 108,152 41,21 116,41 222,61 306,58 463,202 464,429 2,134 -51,240 -154,315 -86,63 -197,97 -333,100 -242,5 -434,-104 -573,-327l165 -103zm2619 -655c-65,-121 -176,-181 -333,-181 -96,0 -175,24 -237,67 -69,48 -104,111 -104,193l0 537c0,83 35,148 104,196 63,43 142,64 237,64 182,0 296,-75 341,-224l195 95c-43,121 -116,208 -219,264 -94,51 -199,79 -317,79 -147,1 -274,-38 -376,-116 -117,-89 -176,-211 -176,-363l0 -527c0,-151 59,-272 176,-360 102,-78 228,-116 376,-116 236,0 406,92 511,278l-178 114zm1577 -192c-95,0 -175,22 -238,65 -70,48 -106,116 -106,201l0 542c0,86 35,155 106,204 64,43 144,64 238,64 91,0 169,-21 233,-64 71,-48 105,-116 105,-204l0 -542c0,-85 -35,-152 -105,-201 -62,-43 -141,-65 -233,-65zm-554 266c0,-152 59,-272 176,-361 102,-77 229,-118 378,-118 148,0 273,41 376,118 117,88 175,209 175,361l0 542c0,151 -58,274 -175,363 -102,79 -228,119 -376,119 -150,0 -276,-41 -378,-119 -117,-89 -176,-210 -176,-363l0 -542zm2578 732l411 -1173 221 0 -503 1435 -259 0 -505 -1435 224 0 411 1173zm2300 -732c0,-81 -35,-145 -103,-193 -63,-44 -142,-67 -235,-67 -96,0 -176,22 -240,67 -67,47 -101,111 -101,193l0 199 679 0 0 -199zm-679 550c0,84 35,152 103,201 62,43 141,65 238,65 164,0 275,-65 333,-194l192 96c-97,208 -272,311 -525,311 -150,0 -276,-38 -378,-115 -117,-90 -176,-211 -176,-364l0 -545c0,-151 59,-272 176,-361 103,-77 229,-116 378,-116 146,0 272,39 376,116 117,88 176,209 176,361l0 387 -893 0 0 158zm2229 -991c59,-12 143,-14 249,-3l0 216c-80,-15 -153,-20 -216,-6 -153,34 -230,121 -230,255l0 973 -211 0 0 -973c0,-122 41,-227 122,-312 73,-77 169,-127 286,-150zm1104 -307c0,-41 15,-76 44,-105 30,-31 67,-45 108,-45 41,0 75,16 104,45 30,30 46,64 46,105 0,42 -15,78 -46,109 -29,29 -64,43 -104,43 -41,0 -79,-14 -108,-43 -30,-30 -44,-67 -44,-109zm263 307l0 1435 -211 0 0 -1435 211 0zm1876 441c0,-81 -34,-145 -102,-193 -64,-44 -142,-67 -236,-67 -96,0 -176,22 -240,67 -66,47 -100,111 -100,193l0 199 678 0 0 -199zm-678 550c0,84 34,152 103,201 61,43 140,65 237,65 164,0 275,-65 333,-194l193 96c-98,208 -273,311 -526,311 -149,0 -276,-38 -377,-115 -117,-90 -177,-211 -177,-364l0 -545c0,-151 59,-272 177,-361 102,-77 229,-116 377,-116 146,0 272,39 377,116 117,88 175,209 175,361l0 387 -892 0 0 158zm1880 31c115,155 251,227 408,224 184,-4 274,-71 273,-209 -1,-114 -96,-192 -289,-226 -149,-27 -261,-62 -333,-106 -113,-71 -170,-174 -170,-310 0,-140 59,-247 176,-323 95,-61 210,-92 343,-92 167,0 311,56 430,168l-138 159c-80,-80 -177,-121 -292,-121 -83,0 -152,16 -208,46 -66,35 -100,89 -100,163 0,66 36,117 108,152 42,21 116,41 222,61 306,58 463,202 465,429 1,134 -52,240 -154,315 -87,63 -198,97 -333,100 -243,5 -434,-104 -573,-327l165 -103z"/>
  </g>
 </g>
</svg>
