<?xml version="1.0" encoding="UTF-8"?>
<!DOCTYPE svg PUBLIC "-//W3C//DTD SVG 1.1//EN" "http://www.w3.org/Graphics/SVG/1.1/DTD/svg11.dtd">
<!-- Creator: CorelDRAW X7 -->
<svg xmlns="http://www.w3.org/2000/svg" xml:space="preserve" width="3.47716in" height="0.574685in" version="1.1" style="shape-rendering:geometricPrecision; text-rendering:geometricPrecision; image-rendering:optimizeQuality; fill-rule:evenodd; clip-rule:evenodd"
viewBox="0 0 34772 5747"
 xmlns:xlink="http://www.w3.org/1999/xlink">
 <defs>
  <style type="text/css">
   <![CDATA[
    .fil0 {fill:#6C87C3}
    .fil1 {fill:#D2AE6D}
   ]]>
  </style>
 </defs>
 <g id="Layer_x0020_1">
  <metadata id="CorelCorpID_0Corel-Layer"/>
  <g id="_2865414682832">
   <path class="fil0" d="M22988 4598l-1149 1149c1149,0 2298,0 3448,0l1150 -1149c-1150,0 -2299,0 -3449,0l0 -1150 -1150 0 1150 -1149 -1149 1149c1149,0 2298,0 3448,0l1150 -1149c-1150,0 -2299,0 -3449,0l0 -1150 2298 0 1150 -1149c-1150,0 -2299,0 -3449,0l-1149 1149 0 1150 -2299 0 -1148 1149 0 1150c-1149,0 -2299,0 -3449,0l-1149 1149c1532,0 3065,0 4598,0l1148 -1149 0 -1150 2299 0 0 2299 1150 -1149 0 0zm-19540 -1150l0 2299 1149 0 0 -3448 -4598 0 0 1149 3449 0 0 0zm-1150 1150l-2299 0 0 1149 2299 0 0 -1149zm3448 -3449l0 2299 4598 0 1150 -1149 -4598 0 0 -2299 -6897 0 0 1149 5747 0zm8046 1150l0 -2299c-1532,0 -3065,0 -4597,0l-1149 1149 4597 0 0 2299 0 0 0 1150 -2299 0 -1149 1149 3448 0 1149 -1149 0 -1150 -1149 0 1 0 4597 0 1149 -1149c-1533,0 -3066,0 -4598,0zm-8046 2299l0 1149 2300 0 1149 -1149 -3449 0zm11495 -4598l0 1149 1149 0 0 -1149 -1149 0z"/>
   <path class="fil1" d="M27876 1149l5746 0 1149 -1149 -6896 0 0 1149 1 0 0 0zm4598 3448l-4598 0 0 1150 4598 0 0 -1150zm2298 -2298l-6896 0 0 1149 5746 0 0 2298 1149 0 0 -3448 1 1 0 0z"/>
  </g>
 </g>
</svg>
