<?xml version="1.0" encoding="UTF-8"?>
<!DOCTYPE svg PUBLIC "-//W3C//DTD SVG 1.1//EN" "http://www.w3.org/Graphics/SVG/1.1/DTD/svg11.dtd">
<!-- Creator: CorelDRAW X7 -->
<svg xmlns="http://www.w3.org/2000/svg" xml:space="preserve" width="4.98937in" height="0.575118in" version="1.1" style="shape-rendering:geometricPrecision; text-rendering:geometricPrecision; image-rendering:optimizeQuality; fill-rule:evenodd; clip-rule:evenodd"
viewBox="0 0 49894 5751"
 xmlns:xlink="http://www.w3.org/1999/xlink">
 <defs>
  <style type="text/css">
   <![CDATA[
    .fil0 {fill:#6C87C3}
    .fil1 {fill:#D2AE6D}
   ]]>
  </style>
 </defs>
 <g id="Layer_x0020_1">
  <metadata id="CorelCorpID_0Corel-Layer"/>
  <g id="_2865414732048">
   <path class="fil0" d="M35087 0l0 1150 4313 0 0 3451 -3162 0 -1 -2300 -1150 0 0 3450 4313 0 1150 -1150 0 -3451 -1150 -1150 -4313 0zm-6614 0l0 1150 4313 0 0 4601 1150 0 0 -4601 -1150 -1150 -4313 0zm0 2301l0 3450 1151 0 0 -3450 -1151 0zm14376 3450l-1149 0 0 -5750 1149 0 0 5750zm-15241 -1150l-5751 0 0 1150 4601 0 1150 -1150zm0 -2300l-5751 0 0 1150 4601 0 1150 -1150zm0 -2300l-5751 0 0 1150 4601 0 1150 -1150zm-8051 2300l1150 0 0 -2300 -5750 0 -1 1150 4601 0 0 1150 1150 1150 0 2300 -1150 0 0 -2300 -3450 0 0 2300 -1151 0 0 -3450 4601 0zm24586 -1150l4601 0 0 1150 -4601 0 0 3450 1150 0 0 -2300 3451 0 1150 -1150 0 -2300 -5751 0 0 1150zm-30052 3450l-5751 0 0 1150 4601 0 1150 -1150zm0 -2300l-5751 0 0 1150 4601 0 1150 -1150zm0 -2300l-5751 0 0 1150 4601 0 1150 -1150z"/>
   <path class="fil1" d="M6901 1l-6901 0 0 1150 5751 0 1150 -1150zm-2300 4600l-4601 0 0 1150 4601 0 0 -1150zm2300 -2300l-6901 0 0 1150 5751 0 0 2300 1150 0 0 -3450z"/>
  </g>
 </g>
</svg>
