<?xml version="1.0" encoding="UTF-8"?>
<!DOCTYPE svg PUBLIC "-//W3C//DTD SVG 1.1//EN" "http://www.w3.org/Graphics/SVG/1.1/DTD/svg11.dtd">
<!-- Creator: CorelDRAW X7 -->
<svg xmlns="http://www.w3.org/2000/svg" xml:space="preserve" width="3.47724in" height="0.574843in" version="1.1" style="shape-rendering:geometricPrecision; text-rendering:geometricPrecision; image-rendering:optimizeQuality; fill-rule:evenodd; clip-rule:evenodd"
viewBox="0 0 34772 5748"
 xmlns:xlink="http://www.w3.org/1999/xlink">
 <defs>
  <style type="text/css">
   <![CDATA[
    .fil2 {fill:#6C87C3}
    .fil1 {fill:#A6B7DE}
    .fil0 {fill:#D2AE6D}
   ]]>
  </style>
 </defs>
 <g id="Layer_x0020_1">
  <metadata id="CorelCorpID_0Corel-Layer"/>
  <g id="_1978245165360">
   <path class="fil0" d="M27876 1150l5746 0 1149 -1149 -6896 0 1 1149zm4597 3449l-4597 0 0 1149 4597 0 0 -1149zm2299 -2299l-6896 0 0 1149 5746 0 0 2298 1149 0 1 -3447z"/>
   <g>
    <polygon class="fil1" points="17242,1 17242,1150 18391,1150 18391,1 "/>
    <polygon class="fil1" points="26436,2300 25288,3449 21838,3450 22989,2300 "/>
    <polygon class="fil1" points="26436,4599 22989,4599 21838,5748 25288,5748 "/>
    <polygon class="fil1" points="26435,1 25286,1150 21836,1151 22988,1 "/>
    <polygon class="fil1" points="21838,2300 21838,3450 18391,3450 19539,2300 "/>
    <polygon class="fil1" points="18391,2300 17242,3450 12643,3450 13792,2300 "/>
    <polygon class="fil1" points="11495,2300 10346,3450 5748,3450 6896,2300 "/>
    <polygon class="fil1" points="13792,0 12643,1150 8045,1150 9194,0 "/>
    <polygon class="fil1" points="4598,2300 3449,3450 0,3450 0,2300 "/>
    <polygon class="fil1" points="0,1 0,1150 5748,1150 6896,1 "/>
    <polygon class="fil1" points="14943,4599 13792,5748 18391,5748 18391,4599 "/>
    <polygon class="fil1" points="10345,4599 12643,4599 12643,5748 9195,5748 "/>
    <polygon class="fil1" points="5748,4599 9195,4599 8046,5748 5748,5748 "/>
   </g>
   <g>
    <polygon class="fil2" points="4598,2300 3449,3450 3449,5748 4598,5748 "/>
    <polygon class="fil2" points="5748,1150 5748,3450 6896,2300 6896,1 "/>
    <polygon class="fil2" points="18391,3450 18391,5748 19539,4599 19539,3450 "/>
    <polygon class="fil2" points="21838,3450 22989,2300 22989,1150 21838,1150 "/>
    <polygon class="fil2" points="22989,3450 21838,3450 21838,5748 22989,4599 "/>
    <polygon class="fil2" points="13792,2300 13792,1 12643,1150 12643,3450 "/>
    <polygon class="fil2" points="13792,3450 12643,3450 12643,5748 13792,4599 "/>
    <polygon class="fil2" points="2299,4599 0,4599 0,5748 2299,5748 "/>
   </g>
  </g>
 </g>
</svg>
