<?xml version="1.0" encoding="UTF-8"?>
<!DOCTYPE svg PUBLIC "-//W3C//DTD SVG 1.1//EN" "http://www.w3.org/Graphics/SVG/1.1/DTD/svg11.dtd">
<!-- Creator: CorelDRAW X7 -->
<svg xmlns="http://www.w3.org/2000/svg" xml:space="preserve" width="3.47716in" height="1.04461in" version="1.1" style="shape-rendering:geometricPrecision; text-rendering:geometricPrecision; image-rendering:optimizeQuality; fill-rule:evenodd; clip-rule:evenodd"
viewBox="0 0 34772 10446"
 xmlns:xlink="http://www.w3.org/1999/xlink">
 <defs>
  <style type="text/css">
   <![CDATA[
    .fil0 {fill:none}
    .fil2 {fill:#6C87C3}
    .fil4 {fill:#999999}
    .fil1 {fill:#A6B7DE}
    .fil3 {fill:#D2AE6D}
   ]]>
  </style>
 </defs>
 <g id="Layer_x0020_1">
  <metadata id="CorelCorpID_0Corel-Layer"/>
  <g id="_2283326765472">
   <g>
    <rect class="fil0" width="34772" height="5747"/>
    <g>
     <path class="fil1" d="M22988 4597l-1149 1150c1149,0 2298,0 3448,0l1149 -1150c-1149,0 -2298,0 -3448,0z"/>
     <polygon class="fil1" points="5747,1149 6896,0 0,0 0,1149 "/>
     <polygon class="fil1" points="0,2299 0,3448 3448,3448 4597,2299 "/>
     <polygon class="fil1" points="6896,2299 5747,3448 10344,3448 11494,2299 "/>
     <polygon class="fil1" points="5747,4597 5747,5747 8046,5747 9195,4597 "/>
     <polygon class="fil1" points="10344,4597 9195,5747 12643,5747 12643,4597 "/>
     <path class="fil1" d="M8046 1149l4597 0 1149 -1149c-1532,0 -3065,0 -4597,0l-1149 1149z"/>
     <path class="fil1" d="M13792 2299l-1149 1148 4598 0 1149 -1148c-1533,0 -3066,0 -4598,0z"/>
     <polygon class="fil1" points="17241,0 17241,1149 18390,1149 18390,0 "/>
     <polygon class="fil1" points="19539,2299 18390,3448 21838,3448 21838,2299 "/>
     <path class="fil1" d="M18390 4597c-1148,0 -2298,0 -3448,0l-1149 1150c1532,0 3065,0 4597,0l0 -1150 0 0z"/>
     <path class="fil1" d="M25286 1149l1150 -1149c-1150,0 -2299,0 -3449,0l-1149 1149c1149,0 2298,0 3448,0z"/>
     <path class="fil1" d="M22988 2299l-1149 1148c1149,0 2298,0 3448,0l1149 -1148c-1149,0 -2298,0 -3448,0z"/>
    </g>
    <g>
     <polygon class="fil2" points="4597,2299 3448,3448 3448,5747 4597,5747 "/>
     <polygon class="fil2" points="2299,4597 0,4597 0,5747 2299,5747 "/>
     <polygon class="fil2" points="5747,1149 5747,3448 6896,2299 6896,0 "/>
     <polygon class="fil2" points="18390,3448 18390,5747 19539,4597 19539,3448 "/>
     <polygon class="fil2" points="21838,3448 22988,2299 22988,1149 21838,1149 "/>
     <polygon class="fil2" points="22988,3448 21838,3448 21838,5747 22988,4597 "/>
     <polygon class="fil2" points="13792,2299 13792,0 12643,1149 12643,3448 "/>
     <polygon class="fil2" points="13792,3448 12643,3448 12643,5747 13792,4597 "/>
    </g>
    <path class="fil3" d="M27875 1149l5747 0 1149 -1149 -6896 0 0 1149zm4598 3448l-4597 0 0 1150 4597 0 0 -1150zm2299 -2298l-6897 0 0 1148 5747 0 0 2299 1149 0 1 -3447z"/>
   </g>
   <path class="fil4" d="M25574 9652c85,71 205,87 313,87l1374 0c105,0 190,-14 257,-42 111,-47 196,-124 227,-244 30,-120 26,-214 -24,-329 -68,-169 -233,-324 -373,-436 -98,-78 -218,-159 -357,-241l885 -391 0 -244 -1102 485c-55,40 -116,166 -120,232 110,54 217,115 323,182 165,104 360,251 476,410 49,67 74,126 74,178 0,158 -126,190 -260,190l-1350 0c-176,0 -214,-63 -214,-232l0 -1667 -247 0 0 1733c0,120 24,246 118,329zm-24945 294c16,-102 25,-227 25,-376l0 -840 -243 0 0 808c0,104 -3,192 -8,266 -5,73 -21,134 -49,181 -71,122 -227,133 -354,133l0 251c135,0 245,-14 330,-43 186,-59 266,-196 299,-380zm6878 251c0,88 71,159 160,159 89,0 160,-70 160,-159 0,-90 -71,-159 -160,-159 -89,0 -160,70 -160,159zm-4074 -744c30,-120 25,-213 -23,-329 -70,-170 -233,-323 -374,-436 -98,-78 -218,-159 -358,-241l886 -391 0 -244 -1102 485c-54,39 -116,167 -120,232 110,54 217,115 322,182 106,66 199,136 281,205 81,70 146,137 196,205 67,90 128,263 0,329 -50,26 -112,39 -186,39l-1350 0c-90,0 -148,-17 -175,-53 -26,-35 -40,-95 -40,-179l0 -1667 -246 0 0 1733c0,182 60,351 254,396 53,14 112,20 176,20l1375 0c105,0 190,-14 256,-42 113,-47 196,-123 228,-244zm2176 178l0 -282c0,-185 -22,-404 -124,-563 -102,-161 -260,-221 -445,-221 -173,0 -331,64 -442,199 -102,123 -153,284 -153,443 0,155 37,313 161,416 108,90 256,116 393,116 123,0 251,-21 357,-86 0,93 2,192 -47,276 -74,122 -205,164 -340,178 -119,12 -236,12 -356,12l0 250 127 0c205,0 467,-16 637,-144 189,-140 232,-373 232,-594zm-832 -207c-61,-49 -91,-131 -91,-245 0,-89 26,-178 79,-250 64,-85 158,-126 263,-126 111,0 199,44 257,139 60,100 71,234 71,349l0 111c-30,24 -73,46 -131,66 -59,21 -126,30 -203,30 -101,0 -183,-24 -245,-74zm8756 29c30,-120 25,-213 -23,-329 -71,-172 -231,-322 -373,-436 -99,-78 -218,-159 -358,-241l885 -391 0 -244 -1101 485c-56,37 -115,168 -121,232 110,54 217,115 322,182 106,66 199,136 281,205 81,70 147,137 196,205 50,67 74,126 74,178 0,159 -125,190 -260,190l-1303 0c-54,0 -97,-8 -131,-24 -72,-35 -107,-92 -121,-170 -7,-41 -10,-87 -10,-136l0 -579 -248 0 0 690c0,50 -5,90 -16,118 -22,57 -59,86 -119,95 -72,10 -173,11 -239,-18 -77,-34 -115,-89 -131,-170 -7,-41 -11,-87 -11,-136l0 -429 -246 0 0 540c0,62 -9,147 -66,185 -49,35 -137,34 -196,34 -92,0 -200,-13 -261,-90 -22,-28 -36,-63 -42,-104 -7,-41 -10,-87 -10,-136l0 -429 -247 0 0 540c0,70 -9,147 -76,185 -66,36 -202,34 -278,34 -89,0 -222,14 -303,-24 -34,-16 -62,-38 -81,-66 -20,-28 -34,-63 -41,-104 -7,-41 -10,-87 -10,-136l0 -579 -247 0 0 690c0,70 -9,147 -77,185 -65,37 -204,34 -279,34l-1098 0c-97,0 -177,-3 -239,-9 -90,-8 -185,-30 -223,-122 -16,-37 -23,-87 -23,-148l0 -377 -247 0 0 466c0,127 22,260 131,340 123,90 330,100 477,100l1225 0c86,0 161,-2 226,-8 144,-10 288,-42 349,-187 17,56 49,102 97,140 89,68 245,55 357,55 109,0 285,1 386,-38 86,-29 139,-76 174,-160 12,23 26,47 45,72 78,108 240,126 363,126 106,0 195,-12 270,-36 76,-24 131,-77 167,-159 10,21 23,44 41,67 73,102 233,128 350,128 25,0 53,-2 88,-8 74,-9 149,-41 208,-86 32,-26 57,-59 75,-101 17,56 48,102 97,140 48,36 111,55 190,55l1297 0c106,0 190,-14 256,-42 111,-46 198,-124 228,-244zm9028 -1581c88,0 158,-70 158,-159 0,-88 -69,-159 -158,-159 -90,0 -162,70 -162,159 0,90 73,159 162,159zm-43 202c0,-88 -71,-159 -159,-159 -89,0 -160,70 -160,159 0,89 71,160 160,160 88,0 159,-72 159,-160zm71 0c0,89 72,160 161,160 89,0 159,-71 159,-160 0,-89 -70,-159 -159,-159 -89,0 -161,70 -161,159zm-3709 -148c-54,61 -103,152 -103,235l1169 -514 0 -226 -1023 466c-11,7 -26,20 -43,39zm-3500 652c31,-31 47,-68 47,-113 0,-44 -16,-82 -47,-112 -31,-31 -68,-47 -112,-47 -44,0 -82,16 -114,47 -31,30 -47,68 -47,112 0,45 16,82 47,113 32,32 70,47 114,47 44,0 81,-15 112,-47zm703 779l0 -777 -244 0 0 774c0,139 -19,309 -137,401 -115,91 -297,102 -438,102 -194,0 -341,-40 -440,-118 -100,-78 -150,-215 -150,-409l0 -413 -243 0 0 463c0,236 68,415 205,538 138,124 345,186 622,186 261,0 464,-58 608,-175 145,-117 217,-307 217,-572zm736 382l0 -2149 -246 0 0 2149 246 0zm2516 -250l-1300 0c-100,0 -169,-29 -206,-89 -37,-59 -56,-140 -56,-241l0 -429 -244 0 0 808c0,104 -2,192 -7,266 -9,125 -48,235 -173,283 -55,21 -132,32 -230,32l0 250c182,0 406,-19 528,-173 118,-151 123,-423 123,-607 22,40 54,75 99,106 44,29 99,44 166,44l1295 0c202,0 426,-65 483,-286 30,-120 26,-213 -23,-329 -70,-171 -231,-322 -373,-436 -98,-78 -218,-159 -358,-241l885 -391 0 -244 -1101 485c-56,37 -115,168 -121,232 211,104 424,235 603,387 96,82 270,248 270,383 0,75 -24,125 -74,151 -49,26 -111,39 -186,39zm4101 250l0 -1159 -246 0 0 909 -253 0c-133,0 -227,-57 -249,-194 -7,-41 -11,-87 -11,-136l0 -429 -246 0 0 540c0,116 -26,197 -156,213 -35,4 -77,6 -124,6 -67,0 -120,-8 -157,-24 -38,-16 -68,-38 -88,-66 -22,-28 -35,-63 -42,-104 -6,-41 -9,-87 -9,-136l0 -429 -244 0 0 970c0,101 -11,183 -33,248 -47,134 -147,204 -283,231 -154,28 -363,31 -515,-7 -143,-35 -244,-110 -296,-251 -25,-67 -38,-149 -38,-245l0 -413 -244 0 0 465c0,234 69,412 206,535 137,122 345,183 622,183 261,0 463,-58 608,-174 145,-117 217,-307 217,-569l0 -111c23,40 59,75 109,104 120,68 389,46 517,7 78,-24 136,-77 172,-159 16,56 47,102 95,140 47,36 111,55 189,55l499 0zm1560 -108l0 -282c0,-116 -10,-220 -29,-316 -58,-291 -228,-468 -540,-468 -267,0 -474,156 -556,405 -50,145 -57,347 4,489 93,216 290,280 511,280 124,0 250,-22 358,-86 0,168 -12,313 -182,399 -150,75 -393,67 -562,67l0 250 127 0c205,0 467,-16 637,-144 189,-140 232,-373 232,-594zm-252 -229c-89,69 -225,96 -335,96 -214,0 -336,-98 -336,-319 0,-42 6,-85 19,-129 43,-151 166,-247 323,-247 185,0 281,124 312,295 18,104 17,200 17,304z"/>
  </g>
 </g>
</svg>
