<?xml version="1.0" encoding="UTF-8"?>
<!DOCTYPE svg PUBLIC "-//W3C//DTD SVG 1.1//EN" "http://www.w3.org/Graphics/SVG/1.1/DTD/svg11.dtd">
<!-- Creator: CorelDRAW X7 -->
<svg xmlns="http://www.w3.org/2000/svg" xml:space="preserve" width="3.47716in" height="0.574685in" version="1.1" style="shape-rendering:geometricPrecision; text-rendering:geometricPrecision; image-rendering:optimizeQuality; fill-rule:evenodd; clip-rule:evenodd"
viewBox="0 0 34772 5747"
 xmlns:xlink="http://www.w3.org/1999/xlink">
 <defs>
  <style type="text/css">
   <![CDATA[
    .fil0 {fill:#6C87C3}
    .fil1 {fill:#D2AE6D}
   ]]>
  </style>
 </defs>
 <g id="Layer_x0020_1">
  <metadata id="CorelCorpID_0Corel-Layer"/>
  <g id="_2283491525808">
   <path class="fil0" d="M21839 5747l3448 0 1149 -1149 -3448 0 0 -1150 2299 0 1149 -1149 -3448 0 0 -1150 2298 0 1150 -1149 -3449 0 -1149 1149 0 1150 -2299 0 -1149 1149 0 1150c-1148,0 -2298,0 -3448,0l-1149 1149c1532,0 3065,0 4598,0l1148 -1149 0 -1150 2299 0 1 2299zm-18391 0l1149 0 0 -3448 -4597 0 0 1149 3448 0 0 2299zm-1149 -1149l-2299 0 0 1149 2299 0 0 -1149zm3448 -3449l0 2299 4597 0 1150 -1149 -4598 0 0 -2299 -6896 0 0 1149 5747 0zm8045 1150l0 -2299c-1532,0 -3065,0 -4597,0l-1149 1149 4597 0 0 3449 -2299 0 -1149 1149 3448 0 1149 -1149 0 -1150 3449 0 1149 -1149 -4598 0zm-8045 2299l0 1149 2299 0 1149 -1149 -3448 0zm11494 -4598l0 1149 1149 0 0 -1149 -1149 0z"/>
   <path class="fil1" d="M27875 1149l5747 0 1149 -1149 -6896 0 0 1149zm4598 3448l-4597 0 0 1150 4597 0 0 -1150zm2299 -2298l-6897 0 0 1149 5747 0 0 2298 1149 0 1 -3447z"/>
  </g>
 </g>
</svg>
