<?xml version="1.0" encoding="UTF-8"?>
<!DOCTYPE svg PUBLIC "-//W3C//DTD SVG 1.1//EN" "http://www.w3.org/Graphics/SVG/1.1/DTD/svg11.dtd">
<!-- Creator: CorelDRAW X7 -->
<svg xmlns="http://www.w3.org/2000/svg" xml:space="preserve" width="3.47716in" height="1.04461in" version="1.1" style="shape-rendering:geometricPrecision; text-rendering:geometricPrecision; image-rendering:optimizeQuality; fill-rule:evenodd; clip-rule:evenodd"
viewBox="0 0 34772 10446"
 xmlns:xlink="http://www.w3.org/1999/xlink">
 <defs>
  <style type="text/css">
   <![CDATA[
    .fil0 {fill:#6C87C3}
    .fil2 {fill:#999999}
    .fil1 {fill:#D2AE6D}
   ]]>
  </style>
 </defs>
 <g id="Layer_x0020_1">
  <metadata id="CorelCorpID_0Corel-Layer"/>
  <g id="_2865568431568">
   <g>
    <path class="fil0" d="M22988 4598l-1149 1149c1149,0 2298,0 3448,0l1149 -1149c-1149,0 -2298,0 -3448,0l0 -1150 -1150 0 1150 -1149 -1149 1148c1149,0 2298,0 3448,0l1149 -1148c-1149,0 -2298,0 -3448,0l0 -1150 2298 0 1150 -1149c-1150,0 -2299,0 -3449,0l-1149 1149 0 1150 -2299 0 -1149 1149 0 1150c-1148,0 -2298,0 -3448,0l-1149 1149c1532,0 3065,0 4598,0l1148 -1149 0 -1150 2299 0 0 2299 1150 -1149 0 0zm-19540 -1150l0 2299 1149 0 0 -3448 -4597 0 0 1149 3448 0 0 0zm-1149 1150l-2299 0 0 1149 2299 0 0 -1149zm3448 -3449l0 2299 4597 0 1150 -1149 -4598 0 0 -2299 -6896 0 0 1149 5747 0zm8045 1150l0 -2299c-1532,0 -3065,0 -4597,0l-1149 1149 4597 0 0 2298 0 1 0 1150 -2299 0 -1149 1149 3448 0 1149 -1149 0 -1150 -1149 0 1 -1 4597 0 1149 -1148c-1533,0 -3066,0 -4598,0zm-8045 2299l0 1149 2299 0 1149 -1149 -3448 0zm11494 -4598l0 1149 1149 0 0 -1149 -1149 0z"/>
    <path class="fil1" d="M27875 1149l5747 0 1149 -1149 -6896 0 0 1149 0 0 0 0zm4598 3448l-4597 0 0 1150 4597 0 0 -1150zm2299 -2298l-6897 0 0 1148 5747 0 0 2299 1149 0 0 -3448 1 1 0 0z"/>
   </g>
   <path class="fil2" d="M25488 9524c20,53 50,96 87,128 37,32 82,54 135,67 53,14 112,21 177,21l1374 -1c105,0 190,-14 257,-41 66,-28 117,-64 153,-106 36,-42 61,-88 74,-139 12,-50 19,-97 19,-139 0,-60 -14,-123 -43,-190 -27,-68 -72,-137 -133,-210 -61,-72 -141,-148 -240,-226 -98,-78 -218,-159 -357,-241l885 -391 0 -244 -1102 485c-8,6 -19,17 -31,33 -14,16 -26,35 -39,56 -11,21 -23,44 -33,69 -9,25 -15,49 -17,74 110,54 217,115 323,182 105,67 198,136 279,205 82,70 148,138 197,205 49,67 74,126 74,178 0,75 -25,125 -74,151 -49,26 -111,39 -186,39l-1349 0c-91,0 -149,-17 -176,-53 -25,-35 -39,-95 -39,-179l0 -1667 -247 0 0 1733c0,81 10,147 32,201zm-24859 422c16,-102 25,-227 25,-376l0 -840 -243 0 0 808c0,104 -3,192 -8,266 -5,73 -21,134 -49,181 -27,47 -68,81 -124,102 -56,21 -132,32 -230,32l0 250c135,0 245,-14 330,-43 86,-27 153,-73 201,-135 48,-62 80,-144 98,-245zm6925 138c-31,31 -47,68 -47,113 0,44 16,81 47,113 31,31 69,46 113,46 44,0 82,-15 113,-46 30,-32 47,-69 47,-113 0,-45 -17,-82 -47,-113 -31,-31 -69,-46 -113,-46 -43,0 -82,15 -113,46zm-4195 -492c36,-42 60,-88 74,-139 12,-50 19,-97 19,-139 0,-60 -14,-123 -42,-190 -28,-68 -73,-137 -134,-210 -61,-72 -141,-148 -240,-226 -98,-78 -218,-159 -358,-241l886 -391 0 -244 -1102 485c-8,6 -19,17 -32,33 -13,16 -25,35 -37,56 -13,21 -24,44 -33,69 -10,25 -17,49 -18,74 110,54 217,115 322,182 106,67 199,136 281,205 81,70 146,138 196,205 50,67 74,126 74,178 0,75 -24,125 -74,151 -50,26 -112,39 -186,39l-1350 0c-90,0 -148,-17 -175,-53 -26,-35 -40,-95 -40,-179l0 -1667 -246 0 0 1733c0,81 10,147 31,201 21,53 50,96 87,128 39,32 83,54 136,67 53,14 112,21 176,21l1375 -1c105,0 190,-14 256,-41 67,-28 118,-64 154,-106zm2250 39l0 -282c0,-116 -10,-220 -29,-316 -19,-96 -50,-178 -95,-247 -44,-69 -102,-123 -175,-163 -73,-39 -163,-58 -270,-58 -96,0 -181,18 -256,54 -74,36 -136,84 -186,145 -50,60 -89,128 -114,206 -27,78 -39,156 -39,237 0,100 14,184 43,252 30,69 69,123 118,164 49,41 107,71 174,89 68,18 141,27 219,27 86,1 158,-9 216,-27 58,-17 105,-37 141,-59l0 56c0,93 -16,166 -47,220 -33,53 -78,95 -134,123 -58,29 -126,47 -206,55 -79,8 -167,12 -262,12l-94 0 0 250 127 0c134,0 256,-10 364,-30 108,-21 200,-59 273,-114 74,-55 132,-131 172,-226 40,-95 60,-218 60,-368zm-832 -207c-61,-49 -91,-130 -91,-245 0,-42 6,-85 19,-129 13,-44 33,-85 60,-121 28,-37 63,-66 106,-90 43,-24 95,-36 157,-36 61,0 112,12 155,37 42,25 76,59 102,102 26,44 44,95 55,156 11,59 16,124 16,193l0 111c-30,24 -73,46 -131,66 -59,21 -126,30 -203,30 -101,0 -183,-24 -245,-74zm8682 168c37,-42 61,-88 74,-139 12,-50 19,-97 19,-139 0,-60 -14,-123 -42,-190 -28,-68 -72,-137 -133,-210 -62,-72 -142,-148 -240,-226 -99,-78 -218,-159 -358,-241l885 -391 0 -244 -1101 485c-9,6 -20,17 -33,33 -13,16 -25,35 -37,56 -12,21 -23,44 -33,69 -10,25 -16,49 -18,74 110,54 217,115 322,182 106,67 199,136 281,205 81,70 147,138 196,205 50,67 74,126 74,178 0,75 -24,125 -74,151 -49,26 -112,39 -186,39l-1303 0c-54,0 -97,-8 -131,-24 -33,-16 -60,-38 -81,-66 -20,-28 -33,-63 -40,-104 -7,-41 -10,-87 -10,-136l0 -579 -248 0 0 690c0,50 -5,90 -16,118 -12,30 -27,52 -47,67 -21,15 -44,24 -72,28 -28,4 -59,6 -94,6 -59,0 -108,-8 -145,-24 -37,-16 -67,-38 -88,-66 -20,-28 -34,-63 -43,-104 -7,-41 -11,-87 -11,-136l0 -429 -246 0 0 540c0,50 -6,90 -17,118 -10,30 -27,52 -49,67 -22,15 -49,24 -81,28 -33,4 -71,6 -115,6 -69,0 -125,-8 -166,-24 -42,-16 -73,-38 -95,-66 -22,-28 -36,-63 -42,-104 -7,-41 -10,-87 -10,-136l0 -429 -247 0 0 540c0,50 -6,90 -18,118 -12,30 -32,52 -58,67 -28,15 -65,24 -110,28 -45,4 -101,6 -168,6l-106 0 -36 3 -32 -3c-51,0 -94,-8 -129,-24 -34,-16 -62,-38 -81,-66 -20,-28 -34,-63 -41,-104 -7,-41 -10,-87 -10,-136l0 -579 -248 0 0 690c0,50 -5,90 -17,118 -13,30 -33,52 -59,67 -27,15 -64,24 -110,28 -45,4 -103,6 -169,6l-1098 0c-97,0 -177,-3 -239,-9 -62,-5 -111,-18 -147,-37 -36,-19 -61,-47 -76,-85 -16,-37 -23,-87 -23,-148l0 -377 -247 0 0 466c0,81 10,149 30,204 20,55 53,101 101,136 47,34 109,59 187,76 77,16 174,24 290,24l1225 0c86,0 161,-2 226,-8 64,-4 118,-14 164,-28 46,-14 83,-33 113,-58 31,-25 54,-59 72,-101 17,56 49,102 97,140 48,36 111,55 189,55l35 -2 33 2 100 0c88,0 164,-2 227,-8 63,-4 117,-14 159,-30 44,-14 79,-34 106,-59 27,-25 50,-59 68,-101 12,23 26,47 45,72 17,24 42,46 71,65 30,18 69,33 116,44 47,12 106,18 176,18 106,0 195,-13 270,-37 76,-24 131,-77 167,-159 10,21 23,44 41,67 17,24 41,45 70,64 30,18 68,34 113,45 44,13 100,19 167,19 25,0 53,-2 88,-8 33,-4 68,-14 104,-28 37,-14 71,-33 104,-58 32,-25 57,-59 75,-101 17,56 48,102 97,140 48,36 111,55 190,55l1297 0c106,0 190,-14 256,-41 67,-28 118,-64 154,-106zm8988 -1766c31,31 69,46 114,46 44,0 81,-15 112,-46 30,-31 46,-69 46,-113 0,-44 -16,-81 -46,-113 -31,-31 -68,-46 -112,-46 -45,0 -83,15 -114,46 -31,32 -48,69 -48,113 0,44 17,82 48,113zm71 248c0,-44 -16,-82 -47,-113 -30,-31 -68,-46 -112,-46 -44,0 -82,15 -113,46 -32,31 -47,69 -47,113 0,44 15,82 47,113 31,31 69,47 113,47 44,0 82,-16 112,-47 31,-31 47,-69 47,-113zm118 -113c-30,31 -47,69 -47,113 0,44 17,82 47,113 32,31 70,47 114,47 44,0 81,-16 112,-47 31,-31 47,-69 47,-113 0,-44 -16,-82 -47,-113 -31,-31 -68,-46 -112,-46 -44,0 -82,15 -114,46zm-3756 -35c-54,61 -103,152 -103,236l1169 -515 0 -226 -1023 466c-11,7 -26,20 -43,39zm-3500 652c31,-31 47,-68 47,-112 0,-45 -16,-83 -47,-113 -31,-31 -68,-47 -112,-47 -44,0 -82,16 -114,47 -31,30 -47,68 -47,113 0,44 16,81 47,112 32,32 70,47 114,47 44,0 81,-15 112,-47zm703 779l0 -777 -244 0 0 774c0,100 -11,182 -33,248 -22,65 -57,116 -104,153 -47,38 -107,64 -179,79 -73,15 -159,23 -259,23 -194,0 -341,-39 -440,-117 -100,-79 -150,-216 -150,-410l0 -413 -243 0 0 463c0,236 68,415 205,538 138,124 345,186 622,186 261,0 464,-58 608,-175 145,-117 217,-307 217,-572zm736 382l0 -2149 -246 0 0 2149 246 0zm2516 -250l-1300 0c-100,0 -169,-29 -206,-89 -37,-59 -56,-140 -56,-241l0 -429 -244 0 0 808c0,104 -2,192 -7,266 -5,73 -21,134 -49,181 -28,47 -69,81 -124,102 -55,21 -132,32 -230,32l0 250c135,0 245,-14 329,-41 84,-27 151,-71 199,-132 48,-61 80,-142 97,-242 18,-99 26,-221 26,-365 22,40 54,75 99,106 44,29 99,44 166,44l1295 0c104,0 190,-14 256,-41 66,-28 118,-64 154,-106 36,-42 60,-88 73,-139 13,-50 19,-97 19,-139 0,-60 -14,-123 -42,-190 -28,-68 -72,-137 -134,-210 -61,-72 -141,-148 -239,-226 -98,-78 -218,-159 -358,-241l885 -391 0 -244 -1101 485c-56,37 -115,168 -121,232 110,54 218,115 323,182 106,67 199,136 280,205 81,70 147,138 196,205 50,67 74,126 74,178 0,75 -24,125 -74,151 -49,26 -111,39 -186,39zm4101 250l0 -1159 -246 0 0 909 -253 0c-53,0 -97,-8 -131,-24 -33,-16 -59,-38 -78,-66 -19,-28 -33,-63 -40,-104 -7,-41 -11,-87 -11,-136l0 -429 -246 0 0 540c0,50 -6,90 -17,118 -11,30 -29,52 -51,67 -23,15 -53,24 -88,28 -35,4 -77,6 -124,6 -67,0 -120,-8 -157,-24 -38,-16 -68,-38 -88,-66 -22,-28 -35,-63 -42,-104 -6,-41 -9,-87 -9,-136l0 -429 -244 0 0 970c0,101 -11,183 -33,248 -22,63 -57,115 -104,153 -48,38 -107,64 -179,78 -73,13 -159,20 -259,20 -96,0 -181,-8 -256,-27 -74,-18 -136,-48 -185,-88 -49,-41 -86,-95 -111,-163 -25,-67 -38,-149 -38,-245l0 -413 -244 0 0 465c0,234 69,412 206,535 137,122 345,183 622,183 261,0 463,-58 608,-174 145,-117 217,-307 217,-569l0 -111c23,40 59,75 109,104 50,29 124,43 220,43 120,0 219,-12 297,-36 78,-24 136,-77 172,-159 16,56 47,102 95,140 47,36 111,55 189,55l499 0zm1560 -108l0 -282c0,-116 -10,-220 -29,-316 -19,-96 -50,-178 -95,-247 -44,-69 -102,-123 -175,-163 -73,-39 -163,-58 -270,-58 -96,0 -181,18 -256,54 -74,36 -136,84 -186,145 -50,60 -89,128 -114,206 -50,145 -57,347 4,489 30,69 69,123 118,164 49,41 107,71 174,89 68,18 141,27 219,27 86,1 158,-9 216,-27 58,-17 105,-37 142,-59l0 56c0,93 -17,166 -48,220 -33,53 -77,95 -134,123 -58,29 -126,47 -206,55 -79,8 -167,12 -262,12l-94 0 0 250 127 0c134,0 256,-10 364,-30 108,-21 200,-59 273,-114 75,-55 132,-131 172,-226 40,-95 60,-218 60,-368zm-252 -229c-31,24 -74,46 -132,66 -59,21 -126,30 -203,30 -101,0 -183,-24 -245,-74 -61,-49 -91,-130 -91,-245 0,-42 6,-85 19,-129 13,-44 33,-85 60,-121 28,-37 63,-66 106,-90 43,-24 96,-36 157,-36 61,0 112,12 155,37 42,25 76,59 102,102 26,44 44,95 55,156 11,59 17,124 17,193l0 111z"/>
  </g>
 </g>
</svg>
