<?xml version="1.0" encoding="UTF-8"?>
<!DOCTYPE svg PUBLIC "-//W3C//DTD SVG 1.1//EN" "http://www.w3.org/Graphics/SVG/1.1/DTD/svg11.dtd">
<!-- Creator: CorelDRAW X7 -->
<svg xmlns="http://www.w3.org/2000/svg" xml:space="preserve" width="100%" height="100%" version="1.1" style="shape-rendering:geometricPrecision; text-rendering:geometricPrecision; image-rendering:optimizeQuality; fill-rule:evenodd; clip-rule:evenodd"
viewBox="0 0 16256 9144"
 xmlns:xlink="http://www.w3.org/1999/xlink">
 <defs>
  <style type="text/css">
   <![CDATA[
    .fil2 {fill:none}
    .fil0 {fill:#F4DDB5}
    .fil1 {fill:#D2AE6D;fill-rule:nonzero}
    .fil8 {fill:#E0C69A;fill-rule:nonzero}
    .fil4 {fill:#E2C38E;fill-rule:nonzero}
    .fil6 {fill:#E9CEA1;fill-rule:nonzero}
    .fil7 {fill:#E9D2B5;fill-rule:nonzero}
    .fil3 {fill:#EACAA3;fill-rule:nonzero}
    .fil5 {fill:#ECD2AE;fill-rule:nonzero}
   ]]>
  </style>
    <clipPath id="id0">
     <path d="M0 0l16256 0 0 9144 -16256 0 0 -9144z"/>
    </clipPath>
 </defs>
 <g id="Layer_x0020_1">
  <metadata id="CorelCorpID_0Corel-Layer"/>
  <g id="_2354649395824">
   <polygon class="fil0" points="0,0 16256,0 16256,9144 0,9144 "/>
   <g style="clip-path:url(#id0)">
    <g>
     <g>
      <path id="1" class="fil1" d="M10894 8044l5 0c6,0 6,10 0,10l-5 0c-6,0 -6,-10 0,-10z"/>
      <path class="fil1" d="M11222 7193c12,0 12,20 0,20 -13,0 -13,-20 0,-20z"/>
      <path class="fil1" d="M10143 5495c13,0 13,20 0,20 -12,0 -12,-20 0,-20z"/>
      <path class="fil1" d="M13781 5818c13,0 13,19 0,19 -13,0 -13,-19 0,-19z"/>
      <path class="fil1" d="M12280 5646c12,0 12,20 0,20 -13,0 -13,-20 0,-20z"/>
      <path class="fil1" d="M11678 4541c4,-4 7,-7 10,-10 9,-9 23,5 14,14 -3,3 -7,6 -10,10 -9,9 -23,-5 -14,-14z"/>
      <path class="fil1" d="M15111 4427l0 -10c0,-13 20,-13 20,0l0 10c0,12 -20,12 -20,0z"/>
      <path class="fil1" d="M13672 4474c3,10 7,20 10,30 4,12 -15,17 -19,5 -3,-10 -7,-20 -10,-30 -4,-12 15,-17 19,-5z"/>
      <path class="fil1" d="M11760 3220c7,4 14,7 20,10 12,6 2,23 -10,17 -6,-3 -13,-7 -20,-10 -11,-6 -1,-22 10,-17z"/>
      <path class="fil1" d="M10197 7305c-3,-3 -7,-6 -10,-10 -9,-9 5,-22 14,-13 3,3 6,6 10,10 9,9 -5,22 -14,13z"/>
      <path class="fil1" d="M10345 7138l10 0c13,0 13,19 0,19l-10 0c-13,0 -13,-19 0,-19z"/>
      <path class="fil1" d="M10449 7376c-3,-3 -7,-7 -10,-10 -9,-9 5,-23 14,-14 3,3 6,7 10,10 9,9 -5,23 -14,14z"/>
      <path class="fil1" d="M13569 7662c13,0 13,19 0,19 -12,0 -12,-19 0,-19z"/>
      <path class="fil1" d="M13983 4810c12,0 12,20 0,20 -13,0 -13,-20 0,-20z"/>
      <path class="fil1" d="M13630 3591c12,0 12,19 0,19 -13,0 -13,-19 0,-19z"/>
      <path class="fil1" d="M10416 3581c12,0 12,19 0,19 -13,0 -13,-19 0,-19z"/>
      <path class="fil1" d="M10345 2916c13,0 13,19 0,19 -13,0 -13,-19 0,-19z"/>
      <path class="fil1" d="M9801 3510c12,0 12,20 0,20 -13,0 -13,-20 0,-20z"/>
      <path class="fil1" d="M10607 6346c6,0 6,10 0,10 -6,0 -6,-10 0,-10z"/>
      <path class="fil1" d="M11635 6488c6,0 6,9 0,9 -7,0 -7,-9 0,-9z"/>
      <path class="fil1" d="M12517 7137l0 -10c0,-6 9,-6 9,0l0 10c0,7 -9,7 -9,0z"/>
      <path class="fil1" d="M14432 5048c4,-3 7,-7 11,-10 4,-5 11,2 6,7 -3,3 -6,7 -10,10 -4,4 -11,-2 -7,-7z"/>
      <path class="fil1" d="M15323 5077c6,0 6,10 0,10 -7,0 -7,-10 0,-10z"/>
      <path class="fil1" d="M16740 4847c3,-4 7,-7 10,-11 4,-4 11,3 7,7l-10 10c-5,5 -12,-2 -7,-6z"/>
      <path class="fil1" d="M16713 3706c6,0 7,10 0,10 -6,0 -6,-10 0,-10z"/>
      <path class="fil1" d="M15125 2751c3,3 6,6 10,10 4,4 -3,11 -7,7 -4,-4 -7,-7 -10,-10 -5,-5 2,-12 7,-7z"/>
      <path class="fil1" d="M15511 3695c-4,-4 -7,-7 -10,-10 -5,-5 2,-12 7,-7 3,3 6,6 10,10 4,4 -3,11 -7,7z"/>
      <path class="fil1" d="M14688 3797c6,0 6,10 0,10 -6,0 -6,-10 0,-10z"/>
      <path class="fil1" d="M12820 4329c-3,-3 -6,-6 -10,-10 -4,-4 3,-11 7,-7 3,4 7,7 10,11 5,4 -2,11 -7,6z"/>
      <path class="fil1" d="M12058 5228c6,0 6,10 0,10 -6,0 -6,-10 0,-10z"/>
      <path class="fil1" d="M11262 5560c6,0 6,10 0,10 -6,0 -6,-10 0,-10z"/>
      <path class="fil1" d="M11433 5198c7,0 7,10 0,10 -6,0 -6,-10 0,-10z"/>
      <path class="fil1" d="M12814 5213c12,0 12,20 0,20 -13,0 -13,-20 0,-20z"/>
      <path class="fil1" d="M12834 5445c12,0 12,19 0,19 -13,0 -13,-19 0,-19z"/>
      <path class="fil1" d="M12159 5223c12,0 12,20 0,20 -13,0 -13,-20 0,-20z"/>
      <path class="fil1" d="M11222 5707c12,0 12,19 0,19 -13,0 -13,-19 0,-19z"/>
      <path class="fil1" d="M11725 6140c13,0 13,20 0,20 -12,0 -12,-20 0,-20z"/>
      <path class="fil1" d="M12179 6392c12,0 12,20 0,20 -13,0 -13,-20 0,-20z"/>
      <path class="fil1" d="M12159 6805c12,0 12,20 0,20 -13,0 -13,-20 0,-20z"/>
      <path class="fil1" d="M11393 6674l0 -10c0,-13 20,-13 20,0l0 10c0,12 -20,12 -20,0z"/>
      <path class="fil1" d="M10738 6604l10 0c13,0 13,19 0,19l-10 0c-13,0 -13,-19 0,-19z"/>
      <path class="fil1" d="M11668 7805c3,-3 7,-6 10,-10 9,-9 23,5 14,14 -3,4 -7,7 -10,10 -9,9 -23,-5 -14,-14z"/>
      <path class="fil1" d="M13197 8215l0 -10c0,-12 19,-12 19,0l0 10c0,13 -19,13 -19,0z"/>
      <path class="fil1" d="M13428 6442c13,0 13,20 0,20 -12,0 -12,-20 0,-20z"/>
      <path class="fil1" d="M12773 6342c13,0 13,19 0,19 -12,0 -12,-19 0,-19z"/>
      <path class="fil1" d="M10879 5182l0 -10c0,-12 20,-12 20,0l0 10c0,13 -20,13 -20,0z"/>
      <path class="fil1" d="M11222 5022l10 0c12,0 12,19 0,19l-10 0c-13,0 -13,-19 0,-19z"/>
      <path class="fil1" d="M12202 4061c-3,-3 -7,-7 -10,-10 -9,-9 5,-23 14,-14 3,3 7,7 10,10 9,9 -5,23 -14,14z"/>
      <path class="fil1" d="M12411 4437c12,0 12,20 0,20 -13,0 -13,-20 0,-20z"/>
      <path class="fil1" d="M13398 4679c13,0 13,20 0,20 -13,0 -13,-20 0,-20z"/>
      <path class="fil1" d="M13650 5052c13,0 13,19 0,19 -13,0 -13,-19 0,-19z"/>
      <path class="fil1" d="M13439 5364l0 -10c0,-13 19,-13 19,0l0 10c0,12 -19,12 -19,0z"/>
      <path class="fil1" d="M14577 5394c13,0 13,20 0,20 -13,0 -13,-20 0,-20z"/>
      <path class="fil1" d="M14174 3157l0 10c0,13 -20,13 -20,0l0 -10c0,-12 20,-12 20,0z"/>
      <path class="fil1" d="M13529 2664l10 0c13,0 13,19 0,19l-10 0c-13,0 -13,-19 0,-19z"/>
      <path class="fil1" d="M12401 2724l10 0c12,0 12,20 0,20l-10 0c-13,0 -13,-20 0,-20z"/>
      <path class="fil1" d="M12602 3480l10 0c13,0 13,19 0,19l-10 0c-13,0 -13,-19 0,-19z"/>
      <path class="fil1" d="M11272 4004c13,0 13,19 0,19 -13,0 -13,-19 0,-19z"/>
      <path class="fil1" d="M10607 4457c13,0 13,20 0,20 -13,0 -13,-20 0,-20z"/>
      <path class="fil1" d="M10164 6206c19,0 19,29 0,29 -19,0 -19,-29 0,-29z"/>
      <path class="fil1" d="M10975 7057l0 -10c0,-8 7,-15 15,-15 8,0 15,6 15,15l0 10c0,7 -7,15 -15,14 -8,0 -15,-6 -15,-14z"/>
      <path class="fil1" d="M11808 6590c7,-4 14,-7 20,-11 7,-3 16,-1 20,6 4,6 2,16 -5,20 -7,3 -13,7 -20,10 -7,4 -16,2 -20,-5 -4,-7 -2,-17 5,-20z"/>
      <path class="fil1" d="M11000 5813c19,0 19,29 0,29 -19,0 -19,-29 0,-29z"/>
      <path class="fil1" d="M11826 5742c19,0 19,30 0,30 -19,0 -19,-30 0,-30z"/>
      <path class="fil1" d="M13297 7042c19,0 19,29 0,29 -19,0 -19,-29 0,-29z"/>
      <path class="fil1" d="M15262 5168c19,0 19,29 0,29 -19,0 -19,-29 0,-29z"/>
      <path class="fil1" d="M14441 4205l0 -10c0,-8 7,-15 15,-15 8,1 15,7 15,15l0 10c0,8 -7,15 -15,15 -8,-1 -15,-7 -15,-15z"/>
      <path class="fil1" d="M11524 3973l0 -5c0,-25 40,-25 40,0l0 5c0,26 -40,26 -40,0l0 -5c0,-25 40,-25 40,0l0 5c0,26 -40,26 -40,0z"/>
      <path class="fil1" d="M12128 3541c26,0 26,39 0,39 -25,0 -25,-39 0,-39z"/>
      <path class="fil1" d="M14849 3712c25,0 25,39 0,39 -25,0 -25,-39 0,-39z"/>
      <path class="fil1" d="M12753 7501c25,0 25,39 0,39 -25,0 -25,-39 0,-39z"/>
      <path class="fil1" d="M13485 6043c-3,-4 -7,-7 -10,-10 -7,-8 -8,-21 0,-28 8,-7 20,-8 28,0 3,3 6,7 10,10 7,7 7,21 0,28 -8,7 -20,7 -28,0z"/>
      <path class="fil1" d="M10597 2543c12,0 13,19 0,19 -13,0 -13,-19 0,-19z"/>
      <path class="fil1" d="M11101 2583c12,0 12,20 0,20 -13,0 -13,-20 0,-20z"/>
      <path class="fil1" d="M11514 2321c12,0 12,20 0,20 -13,0 -13,-20 0,-20z"/>
      <path class="fil1" d="M11242 1878c12,0 12,19 0,19 -13,0 -13,-19 0,-19z"/>
      <path class="fil1" d="M10788 2120c13,0 13,19 0,19 -12,0 -12,-19 0,-19z"/>
      <path class="fil1" d="M10929 2392c13,0 13,19 0,19 -12,0 -12,-19 0,-19z"/>
      <path class="fil1" d="M10788 2613c13,0 13,20 0,20 -12,0 -12,-20 0,-20z"/>
      <path class="fil1" d="M9871 2724c13,0 13,20 0,20 -12,0 -12,-20 0,-20z"/>
      <path class="fil1" d="M9750 4095c13,0 13,19 0,19 -12,0 -12,-19 0,-19z"/>
      <path class="fil1" d="M10002 4246c13,0 13,19 0,19 -12,0 -12,-19 0,-19z"/>
      <path class="fil1" d="M10204 4357c13,0 13,19 0,19 -13,0 -13,-19 0,-19z"/>
      <path class="fil1" d="M10083 4608c13,0 13,20 0,20 -13,0 -13,-20 0,-20z"/>
      <path class="fil1" d="M10295 4981c12,0 12,20 0,20 -13,0 -13,-20 0,-20z"/>
      <path class="fil1" d="M16149 4336l10 0c13,0 13,20 0,20l-10 0c-13,0 -13,-20 0,-20z"/>
      <path class="fil1" d="M16250 4709c12,0 12,20 0,20 -13,0 -13,-20 0,-20z"/>
      <path class="fil1" d="M16240 5253c12,0 12,20 0,20 -13,0 -13,-20 0,-20z"/>
      <path class="fil1" d="M16492 6069c12,0 12,20 0,20 -13,0 -13,-20 0,-20z"/>
      <path class="fil1" d="M16411 6553c13,0 13,20 0,20 -13,0 -13,-20 0,-20z"/>
      <path class="fil1" d="M12229 7641l10 0c13,0 13,20 0,20l-10 0c-12,0 -12,-20 0,-20z"/>
      <path class="fil1" d="M11141 7682c13,0 13,19 0,19 -13,0 -13,-19 0,-19z"/>
      <path class="fil1" d="M11215 7967c3,-4 6,-7 10,-10 9,-9 23,5 14,13 -4,4 -7,7 -10,11 -9,8 -23,-5 -14,-14z"/>
      <path class="fil1" d="M10103 7853c13,0 13,20 0,20 -12,0 -12,-20 0,-20z"/>
      <path class="fil1" d="M10627 7692c13,0 13,19 0,19 -12,0 -12,-19 0,-19z"/>
      <path class="fil1" d="M11806 7158c13,0 13,19 0,19 -13,0 -13,-19 0,-19z"/>
      <path class="fil1" d="M11836 7440c13,0 13,19 0,19 -12,0 -12,-19 0,-19z"/>
      <path class="fil1" d="M13288 7329l0 -10c0,-13 19,-13 19,0l0 10c0,12 -19,12 -19,0z"/>
      <path class="fil1" d="M13680 7127c13,0 13,20 0,20 -12,0 -12,-20 0,-20z"/>
      <path class="fil1" d="M13710 3168c13,0 13,19 0,19 -12,0 -12,-19 0,-19z"/>
      <path class="fil1" d="M13398 3117c13,0 13,20 0,20 -13,0 -13,-20 0,-20z"/>
      <path class="fil1" d="M12673 2533c12,0 12,19 0,19 -13,0 -13,-19 0,-19z"/>
      <path class="fil1" d="M12512 2260l0 -10c0,-12 19,-12 19,0l0 10c0,13 -19,13 -19,0z"/>
      <path class="fil1" d="M12394 2388c-4,-3 -7,-7 -10,-10 -9,-9 4,-23 13,-14 4,4 7,7 10,10 9,9 -4,23 -13,14z"/>
      <path class="fil1" d="M12451 2492c13,0 13,20 0,20 -13,0 -13,-20 0,-20z"/>
      <path class="fil1" d="M12179 2522l0 -10c0,-12 20,-12 20,0l0 10c0,13 -20,13 -20,0z"/>
      <path class="fil1" d="M12196 2687c3,3 7,6 10,10 9,9 -5,23 -14,14 -3,-4 -7,-7 -10,-10 -9,-9 5,-23 14,-14z"/>
      <path class="fil1" d="M12521 2895l11 0c12,0 12,20 0,20l-11 0c-12,0 -12,-20 0,-20z"/>
      <path class="fil1" d="M12703 2724c12,0 12,20 0,20 -13,0 -13,-20 0,-20z"/>
      <path class="fil1" d="M13831 2311c13,0 13,20 0,20 -12,0 -12,-20 0,-20z"/>
      <path class="fil1" d="M14164 2502c12,0 13,20 0,20 -13,0 -13,-20 0,-20z"/>
      <path class="fil1" d="M14355 2754c13,0 13,20 0,20 -12,0 -12,-20 0,-20z"/>
      <path class="fil1" d="M12743 3228c13,0 13,20 0,20 -12,0 -12,-20 0,-20z"/>
      <path class="fil1" d="M12955 3550c12,0 12,20 0,20 -13,0 -13,-20 0,-20z"/>
      <path class="fil1" d="M12713 3883c13,0 13,20 0,20 -13,0 -13,-20 0,-20z"/>
      <path class="fil1" d="M11457 3527c-4,-4 -7,-7 -11,-10 -8,-9 5,-23 14,-14 4,3 7,7 10,10 9,9 -5,23 -13,14z"/>
      <path class="fil1" d="M10929 3168c13,0 13,19 0,19 -12,0 -12,-19 0,-19z"/>
      <path class="fil1" d="M10822 3594c3,-4 6,-7 10,-10 9,-9 23,4 14,13 -4,4 -7,7 -10,10 -9,9 -23,-4 -14,-13z"/>
      <path class="fil1" d="M10808 3893c13,0 13,20 0,20 -12,0 -12,-20 0,-20z"/>
      <path class="fil1" d="M16326 3087c6,4 13,7 20,10 11,6 1,23 -10,17 -7,-3 -13,-7 -20,-10 -11,-6 -2,-23 10,-17z"/>
      <path class="fil1" d="M15968 3470l10 0c12,0 12,19 0,19l-10 0c-13,0 -13,-19 0,-19z"/>
      <path class="fil1" d="M15655 3137l0 -10c0,-13 20,-13 20,0l0 10c0,13 -20,13 -20,0z"/>
      <path class="fil1" d="M15131 3329c13,0 13,19 0,19 -12,0 -12,-19 0,-19z"/>
      <path class="fil1" d="M16048 3974c13,0 13,19 0,19 -12,0 -12,-19 0,-19z"/>
      <path class="fil1" d="M15404 4205l0 -10c0,-13 19,-13 19,0l0 10c0,13 -19,13 -19,0z"/>
      <path class="fil1" d="M15161 4810c13,0 13,20 0,20 -12,0 -12,-20 0,-20z"/>
      <path class="fil1" d="M15837 5304c12,0 12,19 0,19 -13,0 -13,-19 0,-19z"/>
      <path class="fil1" d="M15749 5673c-3,-3 -7,-7 -10,-10 -9,-9 5,-23 14,-14 3,4 7,7 10,10 9,9 -5,23 -14,14z"/>
      <path class="fil1" d="M12471 6855c13,0 13,20 0,20 -13,0 -13,-20 0,-20z"/>
      <path class="fil1" d="M12723 6674c13,0 13,20 0,20 -13,0 -13,-20 0,-20z"/>
      <path class="fil1" d="M10376 6160l0 -10c0,-13 19,-13 19,0l0 10c0,12 -19,13 -19,0z"/>
      <path class="fil1" d="M10375 5838c13,0 13,19 0,19 -12,0 -12,-19 0,-19z"/>
      <path class="fil1" d="M10919 6110c13,0 13,19 0,19 -12,0 -12,-19 0,-19z"/>
      <path class="fil1" d="M10399 6509c-4,-3 -7,-6 -11,-10 -8,-9 5,-22 14,-14 4,4 7,7 10,11 9,8 -5,22 -13,13z"/>
      <path class="fil1" d="M10063 6553c12,0 12,20 0,20 -13,0 -13,-20 0,-20z"/>
      <path class="fil1" d="M16703 5808c13,0 13,19 0,19 -12,0 -13,-19 0,-19z"/>
      <path class="fil1" d="M16824 6473c13,0 13,19 0,19 -13,0 -13,-19 0,-19z"/>
      <path class="fil1" d="M9791 6206c19,0 19,29 0,29 -19,0 -19,-29 0,-29z"/>
      <path class="fil1" d="M9867 6764l0 -10c0,-7 7,-15 14,-14 8,0 15,6 15,14l0 10c0,8 -7,16 -15,15 -7,0 -14,-6 -14,-15z"/>
      <path class="fil1" d="M9761 4966c18,0 18,30 0,30 -19,0 -19,-30 0,-30z"/>
      <path class="fil1" d="M9579 5480c19,0 19,30 0,30 -19,0 -19,-30 0,-30z"/>
      <path class="fil1" d="M10335 5138c19,0 19,29 0,29 -19,0 -19,-29 0,-29z"/>
      <path class="fil1" d="M10476 5490c19,0 19,30 0,30 -19,0 -19,-30 0,-30z"/>
      <path class="fil1" d="M11172 5243c3,3 6,6 10,10 5,5 5,15 0,20 -6,6 -16,6 -21,0 -3,-3 -7,-6 -10,-10 -6,-5 -6,-15 0,-20 5,-6 15,-6 21,0z"/>
      <path class="fil1" d="M10859 5561c19,0 19,29 0,29 -19,0 -19,-29 0,-29z"/>
      <path class="fil1" d="M11252 6165l10 0c8,0 15,7 15,15 -1,8 -7,15 -15,15l-10 0c-8,0 -15,-7 -15,-15 1,-8 7,-15 15,-15z"/>
      <path class="fil1" d="M11343 5893c18,0 18,30 0,30 -19,0 -19,-30 0,-30z"/>
      <path class="fil1" d="M12199 6085c19,0 19,29 0,29 -19,0 -19,-29 0,-29z"/>
      <path class="fil1" d="M11776 4150l10 0c8,0 15,7 15,15 -1,8 -7,14 -15,14l-10 0c-8,0 -15,-6 -15,-14 0,-8 7,-15 15,-15z"/>
      <path class="fil1" d="M13186 4251l11 0c7,0 15,7 14,15 0,8 -6,14 -14,14l-11 0c-7,0 -15,-7 -14,-14 0,-8 6,-15 14,-15z"/>
      <path class="fil1" d="M13881 4105c-3,-4 -6,-7 -10,-10 -5,-6 -5,-16 0,-21 6,-6 16,-6 21,0 3,3 7,7 10,10 6,5 6,15 0,21 -5,5 -15,5 -21,0z"/>
      <path class="fil1" d="M14577 4644c19,0 19,29 0,29 -19,0 -19,-29 0,-29z"/>
      <path class="fil1" d="M14804 4971l0 -10c0,-8 7,-15 15,-15 8,0 15,7 15,15l0 10c0,8 -7,15 -15,15 -8,-1 -15,-7 -15,-15z"/>
      <path class="fil1" d="M16310 5037c19,0 19,29 0,29 -19,0 -19,-29 0,-29z"/>
      <path class="fil1" d="M16441 3892c4,4 7,7 11,10 5,6 5,16 0,21 -6,6 -16,6 -21,0 -4,-3 -7,-6 -10,-10 -6,-5 -6,-15 0,-21 5,-5 15,-5 20,0z"/>
      <path class="fil1" d="M15413 2911c19,0 19,29 0,29 -19,0 -19,-29 0,-29z"/>
      <path class="fil1" d="M14849 2326l10 0c8,0 15,7 15,15 -1,8 -7,15 -15,15l-10 0c-8,0 -15,-7 -15,-15 1,-8 7,-15 15,-15z"/>
      <path class="fil1" d="M14295 2125c19,0 19,29 0,29 -19,0 -19,-29 0,-29z"/>
      <path class="fil1" d="M13620 1913l10 0c8,0 15,7 15,15 -1,8 -7,15 -15,15l-10 0c-8,0 -15,-7 -15,-15 0,-8 7,-15 15,-15z"/>
      <path class="fil1" d="M13529 2236c19,0 19,29 0,29 -19,0 -19,-29 0,-29z"/>
      <path class="fil1" d="M13358 2326c19,0 19,30 0,30 -19,0 -19,-30 0,-30z"/>
      <path class="fil1" d="M13771 7586c19,0 19,29 0,29 -19,0 -19,-29 0,-29z"/>
      <path class="fil1" d="M13267 7737c19,0 19,30 0,30 -19,0 -19,-30 0,-30z"/>
      <path class="fil1" d="M12864 7757c19,0 19,30 0,30 -19,0 -19,-30 0,-30z"/>
      <path class="fil1" d="M12461 7379c4,3 7,7 10,10 6,5 6,15 0,21 -5,5 -15,5 -20,0 -4,-4 -7,-7 -10,-10 -6,-6 -6,-16 0,-21 5,-6 15,-6 20,0z"/>
      <path class="fil1" d="M12773 7248c-3,-3 -7,-6 -10,-10 -6,-5 -6,-15 0,-20 6,-6 15,-6 21,0 3,3 6,6 10,10 5,5 5,15 0,20 -6,6 -15,6 -21,0z"/>
      <path class="fil1" d="M13076 7113c19,0 19,29 0,29 -19,0 -19,-29 0,-29z"/>
      <path class="fil1" d="M12854 6901c19,0 19,29 0,29 -19,0 -19,-29 0,-29z"/>
      <path class="fil1" d="M13202 6654l0 -10c0,-8 7,-15 15,-15 8,0 14,6 14,15l0 10c0,7 -6,15 -14,14 -8,0 -15,-6 -15,-14z"/>
      <path class="fil1" d="M13559 6760c19,0 19,29 0,29 -19,0 -19,-29 0,-29z"/>
      <path class="fil1" d="M13519 6901c19,0 19,29 0,29 -19,0 -19,-29 0,-29z"/>
      <path class="fil1" d="M13781 6533c-4,-3 -7,-7 -10,-10 -6,-6 -6,-15 0,-21 5,-5 15,-5 20,0 4,4 7,7 10,10 6,6 6,15 0,21 -5,6 -15,6 -20,0z"/>
      <path class="fil1" d="M11655 2760c19,0 19,29 0,29 -19,0 -19,-29 0,-29z"/>
      <path class="fil1" d="M11786 2457c19,0 19,30 0,30 -19,0 -19,-30 0,-30z"/>
      <path class="fil1" d="M12043 2240l0 -10c0,-8 7,-15 15,-15 8,1 15,7 15,15l0 10c0,8 -7,15 -15,15 -8,0 -15,-7 -15,-15z"/>
      <path class="fil1" d="M10395 2377c19,0 19,29 0,29 -19,0 -19,-29 0,-29z"/>
      <path class="fil1" d="M10143 2528c19,0 19,29 0,29 -18,0 -18,-29 0,-29z"/>
      <path class="fil1" d="M10002 3142c19,0 19,30 0,30 -19,0 -19,-30 0,-30z"/>
      <path class="fil1" d="M10536 3217c3,-3 7,-6 10,-10 6,-5 15,-5 21,0 6,6 6,15 0,21 -3,3 -7,7 -10,10 -6,6 -15,6 -21,0 -6,-6 -6,-15 0,-21z"/>
      <path class="fil1" d="M10526 3001c19,0 19,30 0,30 -19,0 -19,-30 0,-30z"/>
      <path class="fil1" d="M10274 3223c19,0 19,29 0,29 -18,0 -18,-29 0,-29z"/>
      <path class="fil1" d="M10133 3959c19,0 19,29 0,29 -19,0 -19,-29 0,-29z"/>
      <path class="fil1" d="M10557 4160c18,0 19,30 0,30 -19,0 -19,-30 0,-30z"/>
      <path class="fil1" d="M14658 3112l10 0c7,0 15,7 14,15 0,8 -6,15 -14,15l-10 0c-8,0 -15,-7 -15,-15 0,-8 6,-15 15,-15z"/>
      <path class="fil1" d="M14889 2860c19,0 19,30 0,30 -19,0 -19,-30 0,-30z"/>
      <path class="fil1" d="M15232 2880c19,0 19,30 0,30 -19,0 -19,-30 0,-30z"/>
      <path class="fil1" d="M15423 3173c19,0 19,29 0,29 -18,0 -19,-29 0,-29z"/>
      <path class="fil1" d="M10657 5858c26,0 26,39 0,39 -25,0 -25,-39 0,-39z"/>
      <path class="fil1" d="M10870 6442l0 -10c0,-10 9,-20 19,-20 11,1 20,9 20,20l0 10c0,10 -9,20 -20,20 -11,-1 -19,-9 -19,-20z"/>
      <path class="fil1" d="M11222 6795c25,0 25,39 0,39 -26,0 -26,-39 0,-39z"/>
      <path class="fil1" d="M15051 5354c25,0 25,40 0,40 -26,0 -26,-40 0,-40z"/>
      <path class="fil1" d="M14714 3516c4,-3 7,-7 10,-10 8,-7 21,-8 28,0 7,8 8,20 0,28 -3,3 -7,6 -10,10 -7,7 -21,8 -28,0 -7,-8 -7,-20 0,-28z"/>
      <path class="fil1" d="M14335 3645c6,3 13,7 20,10 9,5 12,18 7,27 -6,9 -17,12 -27,7 -7,-3 -14,-7 -20,-10 -9,-5 -13,-18 -7,-27 6,-9 17,-12 27,-7z"/>
      <path class="fil1" d="M9317 4992c25,0 25,39 0,39 -25,0 -25,-39 0,-39z"/>
      <path class="fil1" d="M9539 6009c25,0 25,39 0,39 -25,0 -25,-39 0,-39z"/>
      <path class="fil1" d="M9801 7092c19,0 19,30 0,30 -19,0 -19,-30 0,-30z"/>
      <path class="fil1" d="M10385 7566c19,0 19,29 0,29 -19,0 -19,-29 0,-29z"/>
      <path class="fil1" d="M12084 7228l0 -10c0,-8 6,-15 14,-15 8,1 15,7 15,15l0 10c0,8 -7,15 -15,15 -8,-1 -14,-7 -14,-15z"/>
      <path class="fil1" d="M12502 5968c3,3 6,7 10,10 5,6 5,15 0,21 -6,6 -15,6 -21,0 -3,-3 -7,-7 -10,-10 -6,-6 -6,-15 0,-21 5,-5 15,-5 21,0z"/>
      <path class="fil1" d="M13210 5706c0,10 15,16 19,6 1,-2 2,-5 2,-7 0,0 0,1 0,1 1,8 -7,15 -14,15 -9,0 -14,-6 -15,-15 -1,-10 9,-18 19,-18 10,0 19,8 19,18 -1,8 -7,15 -15,15 -8,-1 -15,-7 -15,-15z"/>
      <path class="fil1" d="M13710 5460c19,0 19,29 0,29 -18,0 -18,-29 0,-29z"/>
      <path class="fil1" d="M14255 5117c18,0 19,30 0,30 -19,0 -19,-30 0,-30z"/>
      <path class="fil1" d="M14315 5500c19,0 19,30 0,30 -19,0 -19,-30 0,-30z"/>
      <path class="fil1" d="M12179 1964c19,0 19,29 0,29 -19,0 -19,-29 0,-29z"/>
      <path class="fil1" d="M12611 1838c-3,-3 -7,-6 -10,-9 -6,-6 -6,-16 0,-21 6,-6 15,-6 20,0 4,3 7,6 11,9 6,6 5,16 0,21 -6,6 -15,5 -21,0z"/>
      <path class="fil1" d="M12783 2044c19,0 19,30 0,30 -18,0 -18,-30 0,-30z"/>
      <path class="fil1" d="M13197 2014c18,0 19,29 0,29 -19,0 -19,-29 0,-29z"/>
      <path class="fil1" d="M13126 2306c19,0 19,30 0,30 -19,0 -19,-30 0,-30z"/>
      <path class="fil1" d="M12753 2185c19,0 19,30 0,30 -19,0 -19,-30 0,-30z"/>
      <path class="fil1" d="M12219 1762c19,0 19,29 0,29 -19,0 -19,-29 0,-29z"/>
      <path class="fil1" d="M11655 1494c4,4 7,7 10,10 6,6 6,16 0,21 -5,6 -15,6 -20,0 -4,-3 -7,-7 -11,-10 -5,-6 -5,-15 0,-21 6,-5 16,-5 21,0z"/>
      <path class="fil1" d="M9982 1732c19,0 19,29 0,29 -19,0 -19,-29 0,-29z"/>
      <path class="fil1" d="M10889 1540c19,0 19,30 0,30 -19,0 -19,-30 0,-30z"/>
      <path class="fil1" d="M9609 2236c19,0 19,29 0,29 -18,0 -19,-29 0,-29z"/>
      <path class="fil1" d="M11010 2931c19,0 19,29 0,29 -19,0 -19,-29 0,-29z"/>
      <path class="fil1" d="M11332 3011c19,0 19,30 0,30 -18,0 -18,-30 0,-30z"/>
      <path class="fil1" d="M15202 3626c19,0 19,30 0,30 -19,0 -19,-30 0,-30z"/>
      <path class="fil1" d="M15303 3888c18,0 18,29 0,29 -19,0 -19,-29 0,-29z"/>
      <path class="fil1" d="M15957 3727c19,0 19,29 0,29 -18,0 -18,-29 0,-29z"/>
      <path class="fil1" d="M15776 3727c19,0 19,29 0,29 -19,0 -19,-29 0,-29z"/>
      <path class="fil1" d="M14255 4604c18,0 19,29 0,29 -19,0 -19,-29 0,-29z"/>
      <path class="fil1" d="M11796 3630c4,4 7,7 10,11 6,5 6,15 0,20 -5,6 -15,6 -20,0l-10 -10c-6,-5 -6,-15 0,-21 5,-5 15,-5 20,0z"/>
      <path class="fil1" d="M11242 4523c19,0 19,29 0,29 -19,0 -19,-29 0,-29z"/>
      <path class="fil1" d="M10808 4674c19,0 19,29 0,29 -18,0 -18,-29 0,-29z"/>
      <path class="fil1" d="M14335 5470c19,0 19,29 0,29 -19,0 -19,-29 0,-29z"/>
      <path class="fil1" d="M14834 5666l0 -10c0,-8 7,-15 15,-15 8,1 15,7 15,15l0 10c0,8 -7,15 -15,15 -8,-1 -15,-7 -15,-15z"/>
      <path class="fil1" d="M13681 8024c3,3 6,6 10,10 5,5 5,15 0,21 -6,5 -16,5 -21,0 -4,-4 -7,-7 -10,-11 -6,-5 -6,-15 0,-20 5,-6 15,-6 21,0z"/>
      <path class="fil1" d="M11534 8060c19,0 19,29 0,29 -19,0 -19,-29 0,-29z"/>
      <path class="fil1" d="M11373 7697c19,0 19,29 0,29 -19,0 -19,-29 0,-29z"/>
      <path class="fil1" d="M10778 7334l10 0c8,0 15,7 15,15 0,8 -6,15 -15,15l-10 0c-7,0 -15,-7 -14,-15 0,-8 6,-15 14,-15z"/>
      <path class="fil1" d="M9947 7470l0 -10c0,-8 7,-15 15,-15 8,0 15,7 15,15l0 10c0,7 -7,15 -15,14 -8,0 -15,-6 -15,-14z"/>
      <path class="fil1" d="M9619 7123c19,0 19,29 0,29 -18,0 -18,-29 0,-29z"/>
      <path class="fil1" d="M15323 2427c19,0 19,29 0,29 -19,0 -19,-29 0,-29z"/>
      <path class="fil1" d="M15655 2629c19,0 19,29 0,29 -19,0 -19,-29 0,-29z"/>
      <path class="fil1" d="M14889 4100c19,0 19,29 0,29 -19,0 -19,-29 0,-29z"/>
      <path class="fil1" d="M15141 4150c19,0 19,29 0,29 -19,0 -19,-29 0,-29z"/>
      <path class="fil1" d="M15403 4654c19,0 19,29 0,29 -19,0 -19,-29 0,-29z"/>
      <path class="fil1" d="M15756 4986c19,0 19,30 0,30 -19,0 -19,-30 0,-30z"/>
      <path class="fil1" d="M15585 5097c19,0 19,30 0,30 -19,0 -19,-30 0,-30z"/>
      <path class="fil1" d="M15605 5329c19,0 19,29 0,29 -19,0 -19,-29 0,-29z"/>
      <path class="fil1" d="M11131 4735c19,0 19,29 0,29 -19,0 -19,-29 0,-29z"/>
      <path class="fil1" d="M10859 4886c19,0 19,29 0,29 -19,0 -19,-29 0,-29z"/>
      <path class="fil1" d="M10496 4916l10 0c8,0 15,7 15,15 0,8 -7,14 -15,14l-10 0c-8,0 -15,-6 -15,-14 1,-8 7,-15 15,-15z"/>
      <path class="fil1" d="M10939 4433l11 0c12,0 25,11 24,24 -1,13 -11,24 -24,24l-11 0c-12,0 -25,-11 -24,-24 1,-13 11,-24 24,-24z"/>
      <path class="fil1" d="M10335 6740c31,0 31,49 0,49 -32,0 -32,-49 0,-49z"/>
      <path class="fil1" d="M10623 3510l0 -10c0,-18 16,-35 34,-35 19,1 35,16 35,35l0 10c0,18 -16,35 -35,34 -18,-1 -34,-15 -34,-34z"/>
      <path class="fil1" d="M12542 5884c44,0 44,68 0,68 -44,0 -45,-68 0,-68z"/>
      <path class="fil1" d="M9932 5884c44,0 44,68 0,68 -44,0 -44,-68 0,-68z"/>
      <path class="fil1" d="M15671 3383c-3,-3 -6,-7 -10,-10 -13,-13 -13,-36 0,-49 14,-12 35,-13 49,0 3,4 6,7 10,10 12,13 13,36 0,49 -14,12 -35,13 -49,0z"/>
      <path class="fil1" d="M14043 2176c44,0 44,68 0,68 -44,0 -44,-68 0,-68z"/>
      <path class="fil1" d="M12270 3163c44,0 44,69 0,69 -45,0 -45,-69 0,-69z"/>
      <path class="fil1" d="M14234 5622l11 0c17,0 35,16 34,34 -1,19 -15,34 -34,34l-11 0c-17,0 -35,-15 -34,-34 1,-18 15,-34 34,-34z"/>
      <path class="fil1" d="M11107 6452l0 -10c0,-18 16,-35 34,-34 19,1 34,15 34,34l0 10c0,18 -15,35 -34,34 -19,0 -34,-15 -34,-34z"/>
      <path class="fil1" d="M12128 7043c45,0 45,68 0,68 -44,0 -44,-68 0,-68z"/>
      <path class="fil1" d="M10684 5361c-3,3 -6,6 -10,10 -9,9 -22,-5 -13,-14 3,-3 6,-7 10,-10 9,-9 22,5 13,14z"/>
      <path class="fil1" d="M10678 5183c12,0 12,19 0,19 -13,0 -13,-19 0,-19z"/>
      <path class="fil1" d="M12864 2402l10 0c13,0 13,19 0,19l-10 0c-13,0 -13,-19 0,-19z"/>
      <path class="fil1" d="M9892 4367c12,0 12,19 0,19 -13,0 -13,-19 0,-19z"/>
      <path class="fil1" d="M10489 4756c-3,-3 -7,-7 -10,-10 -9,-9 5,-23 14,-14 3,4 7,7 10,10 9,9 -5,23 -14,14z"/>
      <path class="fil1" d="M13610 4185c12,0 12,20 0,20 -13,0 -13,-20 0,-20z"/>
      <path class="fil1" d="M13845 3960c-4,-3 -7,-7 -10,-10 -9,-9 4,-23 13,-14 4,4 7,7 10,10 9,9 -4,23 -13,14z"/>
      <path class="fil1" d="M13418 3822c13,0 13,20 0,20 -12,0 -12,-20 0,-20z"/>
      <path class="fil1" d="M13358 3429l0 -10c0,-12 20,-12 20,0l0 10c0,13 -20,13 -20,0z"/>
      <path class="fil1" d="M14839 4780l10 0c13,0 13,19 0,19l-10 0c-13,0 -13,-19 0,-19z"/>
      <path class="fil1" d="M15081 5052c12,0 12,19 0,19 -13,0 -13,-19 0,-19z"/>
      <path class="fil1" d="M12350 6997c13,0 13,19 0,19 -12,0 -12,-19 0,-19z"/>
      <path class="fil1" d="M12501 6986c13,0 13,20 0,20 -12,0 -12,-20 0,-20z"/>
      <path class="fil1" d="M12612 7077l10 0c13,0 13,20 0,20l-10 0c-12,0 -12,-20 0,-20z"/>
      <path class="fil1" d="M12562 7188c12,0 12,20 0,20 -13,0 -13,-20 0,-20z"/>
      <path class="fil1" d="M12370 7198c13,0 13,20 0,20 -12,0 -12,-20 0,-20z"/>
      <path class="fil1" d="M10990 6614c12,0 12,19 0,19 -13,0 -13,-19 0,-19z"/>
      <path class="fil1" d="M10798 6452c13,0 13,20 0,20 -12,0 -12,-20 0,-20z"/>
      <path class="fil1" d="M10849 6593c12,0 12,20 0,20 -13,0 -13,-20 0,-20z"/>
      <path class="fil1" d="M10950 6513c12,0 12,19 0,19 -13,0 -13,-19 0,-19z"/>
      <path class="fil1" d="M10441 6612c-7,3 -14,6 -21,10 -11,5 -21,-11 -9,-17 6,-3 13,-7 20,-10 11,-6 21,11 10,17z"/>
      <path class="fil1" d="M10194 6533c12,0 12,20 0,20 -13,0 -13,-20 0,-20z"/>
      <path class="fil1" d="M10053 5964c19,0 19,29 0,29 -19,0 -19,-29 0,-29z"/>
      <path class="fil1" d="M10063 5833c19,0 19,29 0,29 -19,0 -19,-29 0,-29z"/>
      <path class="fil1" d="M9861 6019c3,-4 7,-7 10,-11 6,-5 15,-5 21,0 5,6 5,16 0,21 -3,4 -7,7 -10,10 -6,6 -15,6 -21,0 -6,-5 -6,-15 0,-20z"/>
      <path class="fil1" d="M15816 3243c19,0 19,30 0,30 -18,0 -19,-30 0,-30z"/>
      <path class="fil1" d="M15837 3334c18,0 18,29 0,29 -19,0 -19,-29 0,-29z"/>
      <path class="fil1" d="M15957 3243c19,0 19,30 0,30 -18,0 -18,-30 0,-30z"/>
      <path class="fil1" d="M15786 3122c19,0 19,30 0,30 -19,0 -19,-30 0,-30z"/>
      <path class="fil1" d="M15927 3173c19,0 19,29 0,29 -19,0 -19,-29 0,-29z"/>
      <path class="fil1" d="M10179 4528l0 -11c0,-7 7,-15 15,-14 8,0 15,6 15,14l0 11c0,7 -7,15 -15,14 -8,0 -15,-6 -15,-14z"/>
      <path class="fil1" d="M10083 4382c19,0 19,29 0,29 -19,0 -19,-29 0,-29z"/>
      <path class="fil1" d="M10023 4493c18,0 18,29 0,29 -19,0 -19,-29 0,-29z"/>
      <path class="fil1" d="M10174 4604c19,0 19,29 0,29 -19,0 -19,-29 0,-29z"/>
      <path class="fil1" d="M10133 4462c19,0 19,30 0,30 -19,0 -19,-30 0,-30z"/>
      <path class="fil1" d="M9937 4608l0 -5c0,-19 30,-19 30,0l0 5c0,19 -30,19 -30,0l0 -5c0,-19 30,-19 30,0l0 5c0,19 -30,19 -30,0z"/>
      <path class="fil1" d="M10002 4649c26,0 26,39 0,39 -25,0 -25,-39 0,-39z"/>
      <path class="fil1" d="M10123 4508c26,0 26,39 0,39 -25,0 -25,-39 0,-39z"/>
      <path class="fil1" d="M15272 5062c25,0 26,39 0,39 -25,0 -25,-39 0,-39z"/>
      <path class="fil1" d="M11000 5717c25,0 25,39 0,39 -25,0 -25,-39 0,-39z"/>
      <path class="fil1" d="M12018 6996l0 -10c0,-12 20,-12 20,0l0 10c0,13 -20,13 -20,0z"/>
      <path class="fil1" d="M12048 7107c12,0 12,20 0,20 -13,0 -13,-20 0,-20z"/>
      <path class="fil1" d="M16139 4044c12,0 12,20 0,20 -13,0 -13,-20 0,-20z"/>
      <path class="fil1" d="M16189 4125c13,0 13,19 0,19 -12,0 -12,-19 0,-19z"/>
      <path class="fil1" d="M16230 4034l0 -10c0,-13 19,-13 19,0l0 10c0,12 -19,12 -19,0z"/>
      <path class="fil1" d="M16300 4115c25,0 25,39 0,39 -25,0 -25,-39 0,-39z"/>
      <path class="fil1" d="M16078 4044c26,0 26,40 0,40 -25,0 -25,-40 0,-40z"/>
      <path class="fil1" d="M12673 7128c25,0 25,39 0,39 -26,0 -26,-39 0,-39z"/>
      <path class="fil1" d="M12401 7097l0 -6c0,-25 39,-25 39,0l0 6c0,25 -39,25 -39,0l0 -6c0,-25 39,-25 39,0l0 6c0,25 -39,25 -39,0z"/>
      <path class="fil1" d="M13418 7682c25,0 25,39 0,39 -25,0 -25,-39 0,-39z"/>
      <path class="fil1" d="M13499 7803c25,0 25,39 0,39 -25,0 -25,-39 0,-39z"/>
      <path class="fil1" d="M11615 2170c25,0 25,39 0,39 -26,0 -26,-39 0,-39z"/>
      <path class="fil1" d="M11477 2176c4,3 7,7 10,10 8,7 8,21 0,28 -7,7 -20,7 -27,0 -4,-4 -7,-7 -10,-10 -8,-8 -8,-21 0,-28 7,-7 20,-8 27,0z"/>
      <path class="fil1" d="M11504 2049l10 0c10,0 20,9 19,20 0,11 -8,20 -19,20l-10 0c-10,0 -20,-10 -20,-20 1,-11 9,-20 20,-20z"/>
      <path class="fil1" d="M10426 7208c25,0 25,40 0,40 -26,0 -26,-40 0,-40z"/>
      <path class="fil1" d="M10305 7319c25,0 25,39 0,39 -26,0 -26,-39 0,-39z"/>
      <path class="fil1" d="M9992 7299c26,0 26,39 0,39 -25,0 -25,-39 0,-39z"/>
      <path class="fil1" d="M10154 7540l0 -10c0,-10 9,-20 20,-19 10,0 19,8 19,19l0 10c0,11 -9,20 -19,20 -11,-1 -20,-9 -20,-20z"/>
      <path class="fil1" d="M11343 6936c12,0 12,20 0,20 -13,0 -13,-20 0,-20z"/>
      <path class="fil1" d="M11383 7077c12,0 12,20 0,20 -13,0 -13,-20 0,-20z"/>
      <path class="fil1" d="M11494 7127c12,0 12,20 0,20 -13,0 -13,-20 0,-20z"/>
      <path class="fil1" d="M11413 7248c13,0 13,20 0,20 -13,0 -13,-20 0,-20z"/>
     </g>
    </g>
   </g>
   <polygon class="fil2" points="0,0 16256,0 16256,9144 0,9144 "/>
   <path class="fil1" d="M2694 1184l5 0c8,0 8,-11 0,-11l-5 0c-7,0 -7,11 0,11z"/>
   <path class="fil1" d="M3065 2148c14,0 14,-22 0,-22 -15,0 -15,22 0,22z"/>
   <path class="fil1" d="M1844 4071c14,0 14,-22 0,-22 -15,0 -15,22 0,22z"/>
   <path class="fil1" d="M5963 3706c14,0 14,-23 0,-23 -14,0 -14,23 0,23z"/>
   <path class="fil1" d="M4263 3900c14,0 14,-23 0,-23 -14,0 -14,23 0,23z"/>
   <path class="fil1" d="M3582 5152c3,3 7,7 11,11 10,10 26,-6 16,-16 -4,-3 -8,-7 -12,-11 -10,-10 -25,6 -15,16z"/>
   <path class="fil1" d="M7470 5281l0 11c0,14 22,14 22,0l0 -11c0,-15 -22,-15 -22,0z"/>
   <path class="fil1" d="M5839 5227c4,-11 8,-22 12,-34 4,-13 -17,-19 -21,-6 -4,12 -8,23 -12,35 -4,13 17,19 21,5z"/>
   <path class="fil1" d="M3674 6647c8,-4 16,-7 23,-11 13,-7 2,-26 -11,-19 -8,3 -15,7 -23,11 -12,6 -1,26 11,19z"/>
   <path class="fil1" d="M1904 2021c-4,3 -7,7 -11,11 -10,10 5,26 15,16 4,-4 8,-8 12,-12 10,-10 -6,-26 -16,-15z"/>
   <path class="fil1" d="M2072 2211l11 0c14,0 14,-22 0,-22l-11 0c-14,0 -15,22 0,22z"/>
   <path class="fil1" d="M2189 1941c-3,4 -7,7 -11,11 -10,10 6,26 16,16 4,-4 7,-8 11,-12 10,-10 -5,-25 -16,-15z"/>
   <path class="fil1" d="M5723 1617c15,0 15,-22 0,-22 -14,0 -14,22 0,22z"/>
   <path class="fil1" d="M6191 4847c15,0 15,-22 0,-22 -14,0 -14,22 0,22z"/>
   <path class="fil1" d="M5792 6228c14,0 14,-23 0,-23 -14,0 -14,23 0,23z"/>
   <path class="fil1" d="M2152 6239c14,0 14,-22 0,-22 -15,0 -15,22 0,22z"/>
   <path class="fil1" d="M2072 6992c14,0 14,-22 0,-22 -14,0 -15,22 0,22z"/>
   <path class="fil1" d="M1456 6319c14,0 14,-22 0,-22 -15,0 -15,22 0,22z"/>
   <path class="fil1" d="M2368 3107c8,0 8,-11 0,-11 -7,0 -7,11 0,11z"/>
   <path class="fil1" d="M3532 2947c8,0 8,-11 0,-11 -7,0 -7,11 0,11z"/>
   <path class="fil1" d="M4531 2211l0 11c0,8 11,8 11,0l0 -11c0,-7 -11,-7 -11,0z"/>
   <path class="fil1" d="M6701 4577c4,4 8,8 11,12 5,5 13,-3 8,-8 -4,-4 -7,-8 -11,-12 -5,-5 -13,3 -8,8z"/>
   <path class="fil1" d="M7709 4545c7,0 7,-12 0,-12 -7,0 -7,12 0,12z"/>
   <path class="fil1" d="M9314 4805c4,4 8,8 12,12 5,5 12,-3 7,-8l-11 -11c-5,-6 -13,2 -8,7z"/>
   <path class="fil1" d="M9284 6096c7,0 7,-11 0,-11 -7,0 -7,11 0,11z"/>
   <path class="fil1" d="M7485 7179c4,-4 7,-8 11,-11 5,-6 -3,-13 -8,-8 -3,4 -7,7 -11,11 -5,5 3,13 8,8z"/>
   <path class="fil1" d="M7922 6110c-4,4 -8,7 -11,11 -5,5 2,13 7,8 4,-4 8,-8 12,-11 5,-5 -3,-13 -8,-8z"/>
   <path class="fil1" d="M6990 5994c7,0 7,-11 0,-11 -7,0 -7,11 0,11z"/>
   <path class="fil1" d="M4875 5391c-4,4 -8,8 -11,11 -5,5 2,13 8,8 3,-4 7,-7 11,-11 5,-5 -3,-13 -8,-8z"/>
   <path class="fil1" d="M4012 4373c7,0 7,-11 0,-11 -7,0 -7,11 0,11z"/>
   <path class="fil1" d="M3110 3997c7,0 7,-11 0,-11 -7,0 -7,11 0,11z"/>
   <path class="fil1" d="M3304 4408c7,0 7,-12 0,-12 -7,0 -7,12 0,12z"/>
   <path class="fil1" d="M4868 4390c14,0 14,-22 0,-22 -15,0 -15,22 0,22z"/>
   <path class="fil1" d="M4890 4128c15,0 15,-22 0,-22 -14,0 -14,22 0,22z"/>
   <path class="fil1" d="M4126 4379c14,0 14,-22 0,-22 -14,0 -14,22 0,22z"/>
   <path class="fil1" d="M3065 3831c14,0 14,-22 0,-22 -15,0 -15,22 0,22z"/>
   <path class="fil1" d="M3635 3340c14,0 14,-22 0,-22 -14,0 -14,22 0,22z"/>
   <path class="fil1" d="M4149 3055c14,0 14,-22 0,-22 -15,0 -15,22 0,22z"/>
   <path class="fil1" d="M4126 2587c14,0 14,-22 0,-22 -14,0 -14,22 0,22z"/>
   <path class="fil1" d="M3259 2736l0 11c0,15 22,15 22,0l0 -11c0,-14 -22,-14 -22,0z"/>
   <path class="fil1" d="M2517 2816l11 0c15,0 15,-23 0,-23l-11 0c-14,0 -14,23 0,23z"/>
   <path class="fil1" d="M3570 1454c4,4 8,8 12,12 10,10 25,-6 15,-16 -3,-4 -7,-8 -11,-11 -10,-11 -26,5 -16,15z"/>
   <path class="fil1" d="M5302 990l0 11c0,15 22,15 22,0l0 -11c0,-14 -22,-14 -22,0z"/>
   <path class="fil1" d="M5564 2998c14,0 14,-22 0,-22 -15,0 -15,22 0,22z"/>
   <path class="fil1" d="M4822 3112c14,0 14,-22 0,-22 -14,0 -14,22 0,22z"/>
   <path class="fil1" d="M2677 4425l0 11c0,15 22,15 22,0l0 -11c0,-14 -22,-14 -22,0z"/>
   <path class="fil1" d="M3065 4607l11 0c14,0 14,-22 0,-22l-11 0c-15,0 -15,22 0,22z"/>
   <path class="fil1" d="M4175 5695c-4,4 -8,8 -11,12 -10,10 5,25 15,15 4,-4 8,-7 12,-11 10,-10 -6,-26 -16,-16z"/>
   <path class="fil1" d="M4411 5269c14,0 14,-22 0,-22 -14,0 -14,22 0,22z"/>
   <path class="fil1" d="M5529 4995c15,0 15,-22 0,-22 -14,0 -14,22 0,22z"/>
   <path class="fil1" d="M5815 4573c14,0 14,-22 0,-22 -14,0 -15,22 0,22z"/>
   <path class="fil1" d="M5575 4219l0 12c0,14 23,14 23,0l0 -12c0,-14 -23,-14 -23,0z"/>
   <path class="fil1" d="M6865 4185c14,0 14,-22 0,-22 -15,0 -15,22 0,22z"/>
   <path class="fil1" d="M6408 6719l0 -12c0,-14 -22,-14 -22,0l0 12c0,14 22,14 22,0z"/>
   <path class="fil1" d="M5678 7277l11 0c15,0 15,-22 0,-22l-11 0c-14,0 -14,22 0,22z"/>
   <path class="fil1" d="M4400 7209l11 0c14,0 14,-22 0,-22l-11 0c-15,0 -15,22 0,22z"/>
   <path class="fil1" d="M4628 6353l11 0c15,0 15,-22 0,-22l-11 0c-14,0 -14,22 0,22z"/>
   <path class="fil1" d="M3122 5760c14,0 14,-22 0,-22 -15,0 -15,22 0,22z"/>
   <path class="fil1" d="M2368 5246c15,0 15,-22 0,-22 -14,0 -14,22 0,22z"/>
   <path class="fil1" d="M1866 3266c22,0 22,-33 0,-33 -21,0 -21,33 0,33z"/>
   <path class="fil1" d="M2785 2302l0 12c0,8 8,17 17,16 9,0 17,-7 17,-16l0 -12c0,-8 -8,-17 -17,-16 -9,0 -17,7 -17,16z"/>
   <path class="fil1" d="M3729 2831c8,4 15,8 23,12 8,4 18,2 22,-6 5,-8 3,-19 -5,-23 -8,-4 -16,-8 -23,-11 -8,-4 -18,-3 -23,6 -4,7 -2,18 6,22z"/>
   <path class="fil1" d="M2814 3711c21,0 21,-33 0,-33 -22,0 -22,33 0,33z"/>
   <path class="fil1" d="M3749 3791c22,0 22,-33 0,-33 -21,0 -21,33 0,33z"/>
   <path class="fil1" d="M5415 2319c22,0 22,-33 0,-33 -21,0 -21,33 0,33z"/>
   <path class="fil1" d="M7641 4441c21,0 21,-33 0,-33 -22,0 -22,33 0,33z"/>
   <path class="fil1" d="M6711 5532l0 11c0,9 8,17 17,17 9,-1 16,-7 16,-17l0 -11c0,-9 -7,-17 -16,-17 -9,1 -17,7 -17,17z"/>
   <path class="fil1" d="M3408 5794l0 7c0,28 44,28 44,0l0 -7c0,-28 -44,-28 -44,0l0 7c0,28 44,28 44,0l0 -7c0,-28 -44,-28 -44,0z"/>
   <path class="fil1" d="M4092 6284c28,0 28,-44 0,-44 -29,0 -29,44 0,44z"/>
   <path class="fil1" d="M7173 6090c28,0 28,-44 0,-44 -29,0 -29,44 0,44z"/>
   <path class="fil1" d="M4799 1800c29,0 29,-45 0,-45 -28,0 -28,45 0,45z"/>
   <path class="fil1" d="M5628 3451c-4,3 -8,7 -11,11 -9,8 -9,23 0,31 8,9 22,9 31,0 4,-3 7,-7 11,-11 8,-8 9,-23 0,-31 -9,-9 -22,-9 -31,0z"/>
   <path class="fil1" d="M2357 7414c14,0 14,-22 0,-22 -14,0 -14,22 0,22z"/>
   <path class="fil1" d="M2928 7369c14,0 14,-22 0,-22 -15,0 -15,22 0,22z"/>
   <path class="fil1" d="M3396 7665c14,0 14,-22 0,-22 -15,0 -15,22 0,22z"/>
   <path class="fil1" d="M3087 8168c15,0 15,-23 0,-23 -14,0 -14,23 0,23z"/>
   <path class="fil1" d="M2574 7894c14,0 14,-23 0,-23 -14,0 -14,23 0,23z"/>
   <path class="fil1" d="M2734 7586c14,0 14,-23 0,-23 -15,0 -15,23 0,23z"/>
   <path class="fil1" d="M2574 7334c14,0 14,-22 0,-22 -14,0 -14,22 0,22z"/>
   <path class="fil1" d="M1535 7209c15,0 15,-22 0,-22 -14,0 -14,22 0,22z"/>
   <path class="fil1" d="M1399 5657c14,0 14,-22 0,-22 -15,0 -15,22 0,22z"/>
   <path class="fil1" d="M1684 5486c14,0 14,-22 0,-22 -14,0 -15,22 0,22z"/>
   <path class="fil1" d="M1912 5360c14,0 14,-22 0,-22 -14,0 -14,22 0,22z"/>
   <path class="fil1" d="M1775 5075c14,0 14,-22 0,-22 -14,0 -14,22 0,22z"/>
   <path class="fil1" d="M2015 4653c14,0 14,-22 0,-22 -15,0 -15,22 0,22z"/>
   <path class="fil1" d="M8645 5383l11 0c15,0 15,-22 0,-22l-11 0c-14,0 -14,22 0,22z"/>
   <path class="fil1" d="M8759 4961c14,0 14,-22 0,-22 -14,0 -14,22 0,22z"/>
   <path class="fil1" d="M8748 4345c14,0 14,-23 0,-23 -15,0 -15,23 0,23z"/>
   <path class="fil1" d="M9033 3420c14,0 14,-22 0,-22 -14,0 -14,22 0,22z"/>
   <path class="fil1" d="M8942 2873c14,0 14,-23 0,-23 -15,0 -15,23 0,23z"/>
   <path class="fil1" d="M4206 1640l11 0c14,0 14,-22 0,-22l-11 0c-15,0 -15,22 0,22z"/>
   <path class="fil1" d="M2973 1594c15,0 15,-22 0,-22 -14,0 -14,22 0,22z"/>
   <path class="fil1" d="M3057 1272c4,4 7,7 11,11 10,10 26,-5 16,-16 -4,-3 -8,-7 -12,-11 -10,-10 -25,6 -15,16z"/>
   <path class="fil1" d="M1798 1400c14,0 14,-22 0,-22 -14,0 -14,22 0,22z"/>
   <path class="fil1" d="M2391 1583c15,0 15,-22 0,-22 -14,0 -14,22 0,22z"/>
   <path class="fil1" d="M3726 2188c15,0 15,-22 0,-22 -14,0 -14,22 0,22z"/>
   <path class="fil1" d="M3761 1868c14,0 14,-22 0,-22 -15,0 -15,22 0,22z"/>
   <path class="fil1" d="M5404 1994l0 12c0,14 22,14 22,0l0 -12c0,-14 -22,-14 -22,0z"/>
   <path class="fil1" d="M5849 2222c14,0 14,-22 0,-22 -14,0 -14,22 0,22z"/>
   <path class="fil1" d="M5883 6707c15,0 15,-22 0,-22 -14,0 -14,22 0,22z"/>
   <path class="fil1" d="M5529 6764c15,0 15,-22 0,-22 -14,0 -14,22 0,22z"/>
   <path class="fil1" d="M4708 7426c14,0 14,-22 0,-22 -14,0 -14,22 0,22z"/>
   <path class="fil1" d="M4526 7734l0 12c0,14 22,14 22,0l0 -12c0,-14 -22,-14 -22,0z"/>
   <path class="fil1" d="M4392 7589c-4,4 -8,8 -12,12 -10,10 6,26 16,16 4,-4 8,-8 12,-12 10,-10 -6,-26 -16,-16z"/>
   <path class="fil1" d="M4457 7471c14,0 14,-22 0,-22 -14,0 -14,22 0,22z"/>
   <path class="fil1" d="M4149 7438l0 11c0,14 22,14 22,0l0 -11c0,-15 -22,-15 -22,0z"/>
   <path class="fil1" d="M4168 7251c4,-3 8,-7 11,-11 10,-10 -5,-26 -15,-16 -4,4 -8,8 -12,12 -10,10 6,25 16,15z"/>
   <path class="fil1" d="M4537 7015l11 0c14,0 14,-22 0,-22l-11 0c-15,0 -15,22 0,22z"/>
   <path class="fil1" d="M4742 7209c14,0 14,-22 0,-22 -14,0 -14,22 0,22z"/>
   <path class="fil1" d="M6020 7677c14,0 14,-22 0,-22 -14,0 -14,22 0,22z"/>
   <path class="fil1" d="M6397 7460c14,0 14,-22 0,-22 -15,0 -15,22 0,22z"/>
   <path class="fil1" d="M6614 7175c14,0 14,-22 0,-22 -15,0 -15,22 0,22z"/>
   <path class="fil1" d="M4788 6638c14,0 14,-22 0,-22 -15,0 -15,22 0,22z"/>
   <path class="fil1" d="M5027 6273c15,0 15,-22 0,-22 -14,0 -14,22 0,22z"/>
   <path class="fil1" d="M4753 5897c15,0 15,-23 0,-23 -14,0 -14,23 0,23z"/>
   <path class="fil1" d="M3331 6300c-4,4 -8,8 -12,11 -10,10 6,26 16,16 4,-4 8,-8 11,-11 10,-10 -5,-26 -15,-16z"/>
   <path class="fil1" d="M2734 6707c14,0 14,-22 0,-22 -15,0 -15,22 0,22z"/>
   <path class="fil1" d="M2612 6224c4,4 7,8 11,12 10,10 26,-6 16,-16 -4,-4 -8,-8 -12,-11 -10,-10 -25,5 -15,15z"/>
   <path class="fil1" d="M2597 5885c14,0 14,-22 0,-22 -15,0 -15,22 0,22z"/>
   <path class="fil1" d="M8845 6798c8,-4 15,-8 23,-12 13,-6 1,-25 -11,-19 -8,4 -16,8 -23,12 -13,6 -2,25 11,19z"/>
   <path class="fil1" d="M8439 6364l12 0c14,0 14,-22 0,-22l-12 0c-14,0 -14,22 0,22z"/>
   <path class="fil1" d="M8086 6741l0 12c0,14 22,14 22,0l0 -12c0,-14 -22,-14 -22,0z"/>
   <path class="fil1" d="M7492 6524c15,0 15,-22 0,-22 -14,0 -14,22 0,22z"/>
   <path class="fil1" d="M8531 5794c14,0 14,-22 0,-22 -15,0 -15,22 0,22z"/>
   <path class="fil1" d="M7801 5532l0 11c0,14 22,14 22,0l0 -11c0,-14 -22,-15 -22,0z"/>
   <path class="fil1" d="M7527 4847c14,0 14,-22 0,-22 -15,0 -15,22 0,22z"/>
   <path class="fil1" d="M8291 4288c14,0 14,-23 0,-23 -14,0 -14,23 0,23z"/>
   <path class="fil1" d="M8192 3869c-4,4 -8,8 -11,12 -11,10 5,25 15,15 4,-3 8,-7 12,-11 10,-10 -6,-26 -16,-16z"/>
   <path class="fil1" d="M4480 2530c14,0 14,-22 0,-22 -15,0 -15,22 0,22z"/>
   <path class="fil1" d="M4765 2736c14,0 14,-23 0,-23 -14,0 -14,23 0,23z"/>
   <path class="fil1" d="M2106 3318l0 11c0,15 23,15 23,0l0 -11c0,-14 -23,-14 -23,0z"/>
   <path class="fil1" d="M2106 3683c14,0 14,-22 0,-22 -14,0 -14,22 0,22z"/>
   <path class="fil1" d="M2722 3375c15,0 15,-23 0,-23 -14,0 -14,23 0,23z"/>
   <path class="fil1" d="M2132 2922c-3,4 -7,8 -11,12 -10,10 6,25 16,15 3,-4 7,-7 11,-11 10,-10 -5,-26 -16,-16z"/>
   <path class="fil1" d="M1752 2873c15,0 15,-23 0,-23 -14,0 -14,23 0,23z"/>
   <path class="fil1" d="M9272 3717c15,0 15,-22 0,-22 -14,0 -14,22 0,22z"/>
   <path class="fil1" d="M9409 2964c15,0 15,-22 0,-22 -14,0 -14,22 0,22z"/>
   <path class="fil1" d="M1444 3266c22,0 22,-33 0,-33 -21,0 -21,33 0,33z"/>
   <path class="fil1" d="M1530 2633l0 12c0,8 8,17 17,16 9,0 16,-7 16,-16l0 -12c0,-8 -7,-17 -16,-16 -9,0 -17,7 -17,16z"/>
   <path class="fil1" d="M1410 4670c21,0 21,-34 0,-34 -21,0 -22,34 0,34z"/>
   <path class="fil1" d="M1205 4088c21,0 21,-34 0,-34 -22,0 -22,34 0,34z"/>
   <path class="fil1" d="M2060 4476c22,0 22,-34 0,-34 -21,0 -21,34 0,34z"/>
   <path class="fil1" d="M2220 4076c22,0 22,-33 0,-33 -21,0 -21,33 0,33z"/>
   <path class="fil1" d="M3008 4357c4,-4 7,-8 11,-12 7,-6 7,-17 0,-23 -6,-7 -17,-7 -23,0 -4,4 -8,7 -12,11 -6,7 -6,17 0,24 7,6 18,6 24,0z"/>
   <path class="fil1" d="M2654 3996c21,0 21,-33 0,-33 -22,0 -22,33 0,33z"/>
   <path class="fil1" d="M3099 3312l11 0c9,0 17,-8 17,-17 -1,-9 -7,-17 -17,-17l-11 0c-9,0 -17,8 -17,17 1,9 7,17 17,17z"/>
   <path class="fil1" d="M3202 3620c21,0 21,-33 0,-33 -22,0 -22,33 0,33z"/>
   <path class="fil1" d="M4172 3403c21,0 21,-33 0,-33 -22,0 -22,33 0,33z"/>
   <path class="fil1" d="M3692 5594l12 0c8,0 17,-8 16,-17 0,-9 -7,-16 -16,-16l-12 0c-8,0 -17,7 -16,16 0,9 7,17 16,17z"/>
   <path class="fil1" d="M5290 5480l11 0c9,0 17,-8 17,-17 -1,-9 -7,-16 -17,-16l-11 0c-9,0 -17,7 -17,16 1,9 8,17 17,17z"/>
   <path class="fil1" d="M6077 5646c-4,3 -8,7 -12,11 -6,6 -6,17 0,23 7,7 18,7 24,0 4,-3 8,-7 11,-11 7,-6 7,-17 0,-23 -6,-7 -17,-7 -23,0z"/>
   <path class="fil1" d="M6865 5035c21,0 21,-33 0,-33 -22,0 -22,33 0,33z"/>
   <path class="fil1" d="M7122 4665l0 11c0,9 8,17 17,17 9,-1 16,-8 16,-17l0 -11c0,-9 -8,-18 -16,-17 -10,0 -17,7 -17,17z"/>
   <path class="fil1" d="M8827 4590c22,0 22,-33 0,-33 -21,0 -21,33 0,33z"/>
   <path class="fil1" d="M8976 5886c4,-4 8,-8 12,-12 6,-6 6,-17 0,-23 -7,-6 -18,-6 -24,0 -4,4 -8,8 -11,11 -7,7 -7,18 0,24 6,6 17,6 23,0z"/>
   <path class="fil1" d="M7812 6998c21,0 21,-34 0,-34 -22,0 -22,34 0,34z"/>
   <path class="fil1" d="M7173 7660l11 0c9,0 17,-8 17,-17 -1,-9 -8,-17 -17,-17l-11 0c-9,0 -17,8 -17,17 1,9 7,17 17,17z"/>
   <path class="fil1" d="M6545 7888c22,0 22,-33 0,-33 -21,0 -21,33 0,33z"/>
   <path class="fil1" d="M5781 8127l11 0c9,0 17,-7 17,-16 -1,-9 -8,-17 -17,-17l-11 0c-9,0 -17,8 -17,17 0,9 7,16 17,16z"/>
   <path class="fil1" d="M5678 7762c21,0 21,-33 0,-33 -22,0 -22,33 0,33z"/>
   <path class="fil1" d="M5484 7660c21,0 21,-34 0,-34 -22,0 -22,34 0,34z"/>
   <path class="fil1" d="M5952 1703c21,0 21,-34 0,-34 -22,0 -22,34 0,34z"/>
   <path class="fil1" d="M5381 1532c22,0 22,-34 0,-34 -21,0 -21,34 0,34z"/>
   <path class="fil1" d="M4925 1509c21,0 21,-34 0,-34 -22,0 -22,34 0,34z"/>
   <path class="fil1" d="M4469 1937c3,-3 7,-7 11,-11 6,-6 6,-17 0,-23 -6,-7 -17,-7 -24,0 -3,3 -7,7 -11,11 -6,6 -6,17 0,23 6,7 17,7 24,0z"/>
   <path class="fil1" d="M4822 2085c-4,4 -8,8 -12,12 -6,6 -6,17 0,23 7,6 17,6 24,0 4,-4 7,-8 11,-11 6,-7 6,-18 0,-24 -6,-6 -17,-6 -23,0z"/>
   <path class="fil1" d="M5164 2239c22,0 22,-33 0,-33 -21,0 -21,33 0,33z"/>
   <path class="fil1" d="M4913 2479c22,0 22,-34 0,-34 -21,0 -21,34 0,34z"/>
   <path class="fil1" d="M5307 2759l0 11c0,9 8,17 17,17 9,-1 17,-7 17,-17l0 -11c0,-9 -8,-17 -17,-17 -9,1 -17,7 -17,17z"/>
   <path class="fil1" d="M5712 2638c21,0 22,-33 0,-33 -21,0 -21,33 0,33z"/>
   <path class="fil1" d="M5666 2479c22,0 22,-34 0,-34 -21,0 -21,34 0,34z"/>
   <path class="fil1" d="M5963 2895c-4,4 -8,8 -12,12 -6,6 -6,17 0,23 7,7 18,7 24,0 4,-4 7,-7 11,-11 7,-6 7,-17 0,-24 -6,-6 -17,-6 -23,0z"/>
   <path class="fil1" d="M3555 7169c22,0 22,-33 0,-33 -21,0 -21,33 0,33z"/>
   <path class="fil1" d="M3704 7511c21,0 21,-33 0,-33 -22,0 -22,33 0,33z"/>
   <path class="fil1" d="M3995 7757l0 11c0,9 8,17 17,17 9,0 16,-7 16,-17l0 -11c0,-9 -7,-17 -16,-17 -9,1 -17,8 -17,17z"/>
   <path class="fil1" d="M2129 7602c21,0 21,-33 0,-33 -22,0 -22,33 0,33z"/>
   <path class="fil1" d="M1844 7431c21,0 21,-33 0,-33 -22,0 -22,33 0,33z"/>
   <path class="fil1" d="M1684 6735c21,0 21,-33 0,-33 -22,0 -22,33 0,33z"/>
   <path class="fil1" d="M2288 6650c4,4 8,8 12,12 6,6 17,6 23,0 7,-7 7,-17 0,-24 -4,-3 -7,-7 -11,-11 -7,-6 -17,-6 -24,0 -6,6 -6,17 0,23z"/>
   <path class="fil1" d="M2277 6895c22,0 22,-33 0,-33 -21,0 -21,33 0,33z"/>
   <path class="fil1" d="M1992 6644c21,0 21,-33 0,-33 -21,0 -22,33 0,33z"/>
   <path class="fil1" d="M1832 5811c22,0 22,-33 0,-33 -21,0 -21,33 0,33z"/>
   <path class="fil1" d="M2311 5583c22,0 22,-34 0,-34 -21,0 -21,34 0,34z"/>
   <path class="fil1" d="M6956 6769l11 0c9,0 17,-7 17,-16 0,-9 -7,-17 -17,-17l-11 0c-9,0 -17,8 -17,17 1,9 8,16 17,16z"/>
   <path class="fil1" d="M7218 7055c22,0 22,-34 0,-34 -21,0 -21,34 0,34z"/>
   <path class="fil1" d="M7606 7032c22,0 22,-33 0,-33 -21,0 -21,33 0,33z"/>
   <path class="fil1" d="M7823 6701c22,0 22,-33 0,-33 -21,0 -21,33 0,33z"/>
   <path class="fil1" d="M2426 3660c28,0 28,-45 0,-45 -29,0 -29,45 0,45z"/>
   <path class="fil1" d="M2666 2998l0 12c0,11 10,23 22,22 12,-1 22,-10 22,-22l0 -12c0,-11 -10,-22 -22,-22 -12,1 -22,10 -22,22z"/>
   <path class="fil1" d="M3065 2598c28,0 28,-44 0,-44 -29,0 -29,44 0,44z"/>
   <path class="fil1" d="M7401 4230c29,0 29,-44 0,-44 -29,0 -29,44 0,44z"/>
   <path class="fil1" d="M7020 6312c4,4 8,8 12,11 8,9 23,9 31,0 8,-8 9,-22 0,-31 -4,-4 -8,-8 -12,-11 -8,-9 -23,-9 -31,0 -8,9 -9,22 0,31z"/>
   <path class="fil1" d="M6590 6166c8,-4 15,-8 23,-11 10,-6 14,-21 8,-31 -7,-10 -19,-13 -31,-8 -7,4 -15,8 -22,12 -11,5 -15,20 -8,30 6,11 19,14 30,8z"/>
   <path class="fil1" d="M908 4641c28,0 28,-44 0,-44 -29,0 -29,44 0,44z"/>
   <path class="fil1" d="M1159 3488c28,0 28,-44 0,-44 -29,0 -29,44 0,44z"/>
   <path class="fil1" d="M1456 2262c21,0 21,-33 0,-33 -22,0 -22,33 0,33z"/>
   <path class="fil1" d="M2117 1726c22,0 22,-34 0,-34 -21,0 -21,34 0,34z"/>
   <path class="fil1" d="M4041 2108l0 12c0,8 7,17 16,16 9,0 17,-7 17,-16l0 -12c0,-8 -8,-17 -17,-16 -9,0 -16,7 -16,16z"/>
   <path class="fil1" d="M4514 3535c4,-4 8,-7 12,-11 6,-7 6,-17 0,-24 -7,-6 -18,-6 -24,0 -4,4 -8,8 -11,12 -7,6 -7,17 0,23 6,6 17,6 23,0z"/>
   <path class="fil1" d="M5317 3832c-1,-11 17,-19 22,-7 0,3 1,5 2,8 0,0 0,-1 0,-2 1,-8 -9,-17 -17,-16 -10,0 -15,7 -16,16 -2,12 10,21 21,21 11,0 22,-8 21,-20 0,-9 -7,-17 -17,-17 -8,1 -17,8 -16,17z"/>
   <path class="fil1" d="M5883 4111c22,0 22,-34 0,-34 -21,0 -21,34 0,34z"/>
   <path class="fil1" d="M6499 4499c22,0 22,-34 0,-34 -21,0 -21,34 0,34z"/>
   <path class="fil1" d="M6568 4065c21,0 21,-33 0,-33 -21,0 -22,33 0,33z"/>
   <path class="fil1" d="M4149 8070c21,0 21,-33 0,-33 -22,0 -22,33 0,33z"/>
   <path class="fil1" d="M4638 8212c-4,4 -8,8 -12,11 -6,6 -6,18 0,24 7,6 17,6 24,0 4,-4 8,-7 12,-11 7,-6 6,-17 0,-24 -7,-6 -17,-6 -24,0z"/>
   <path class="fil1" d="M4833 7979c22,0 22,-33 0,-33 -21,0 -21,33 0,33z"/>
   <path class="fil1" d="M5301 8013c22,0 22,-33 0,-33 -21,0 -21,33 0,33z"/>
   <path class="fil1" d="M5221 7682c22,0 22,-33 0,-33 -21,0 -21,33 0,33z"/>
   <path class="fil1" d="M4799 7819c22,0 22,-33 0,-33 -21,0 -21,33 0,33z"/>
   <path class="fil1" d="M4194 8299c22,0 22,-34 0,-34 -21,0 -21,34 0,34z"/>
   <path class="fil1" d="M3556 8602c3,-4 7,-8 11,-12 6,-6 6,-17 0,-23 -6,-6 -17,-6 -23,0 -4,4 -8,8 -12,11 -6,7 -6,17 0,24 6,6 17,6 24,0z"/>
   <path class="fil1" d="M1661 8333c21,0 21,-33 0,-33 -21,0 -21,33 0,33z"/>
   <path class="fil1" d="M2688 8550c21,0 21,-34 0,-34 -21,0 -21,34 0,34z"/>
   <path class="fil1" d="M1239 7762c21,0 21,-33 0,-33 -22,0 -22,33 0,33z"/>
   <path class="fil1" d="M2825 6975c21,0 21,-33 0,-33 -21,0 -21,33 0,33z"/>
   <path class="fil1" d="M3190 6884c22,0 22,-34 0,-34 -21,0 -21,34 0,34z"/>
   <path class="fil1" d="M7572 6187c22,0 22,-33 0,-33 -21,0 -21,33 0,33z"/>
   <path class="fil1" d="M7686 5891c22,0 22,-34 0,-34 -21,0 -21,34 0,34z"/>
   <path class="fil1" d="M8428 6073c21,0 21,-33 0,-33 -21,0 -21,33 0,33z"/>
   <path class="fil1" d="M8223 6073c21,0 21,-33 0,-33 -22,0 -22,33 0,33z"/>
   <path class="fil1" d="M6499 5081c22,0 22,-34 0,-34 -21,0 -21,34 0,34z"/>
   <path class="fil1" d="M3715 6183c4,-4 8,-8 12,-12 6,-6 6,-17 0,-23 -7,-7 -17,-7 -24,0l-11 11c-6,6 -6,17 0,24 6,6 17,6 23,0z"/>
   <path class="fil1" d="M3087 5172c22,0 22,-33 0,-33 -21,0 -21,33 0,33z"/>
   <path class="fil1" d="M2597 5001c21,0 21,-34 0,-34 -22,0 -22,34 0,34z"/>
   <path class="fil1" d="M6591 4099c21,0 21,-33 0,-33 -22,0 -22,33 0,33z"/>
   <path class="fil1" d="M7156 3877l0 12c0,8 8,17 17,16 9,0 16,-7 16,-16l0 -12c0,-9 -7,-17 -16,-17 -9,1 -17,8 -17,17z"/>
   <path class="fil1" d="M5849 1207c4,-4 8,-7 12,-11 6,-7 6,-17 0,-24 -7,-6 -17,-6 -24,0 -4,4 -7,8 -11,12 -7,6 -7,17 0,23 6,7 17,7 23,0z"/>
   <path class="fil1" d="M3418 1166c22,0 22,-33 0,-33 -21,0 -21,33 0,33z"/>
   <path class="fil1" d="M3236 1577c21,0 21,-33 0,-33 -22,0 -22,33 0,33z"/>
   <path class="fil1" d="M2562 1988l12 0c9,0 17,-8 17,-17 -1,-9 -8,-16 -17,-16l-12 0c-8,0 -17,7 -16,16 0,9 7,17 16,17z"/>
   <path class="fil1" d="M1622 1834l0 12c0,9 7,17 16,16 9,0 17,-7 17,-16l0 -12c0,-8 -8,-17 -17,-16 -9,0 -16,7 -16,16z"/>
   <path class="fil1" d="M1250 2228c22,0 22,-34 0,-34 -21,0 -21,34 0,34z"/>
   <path class="fil1" d="M7709 7545c21,0 22,-33 0,-33 -21,0 -21,33 0,33z"/>
   <path class="fil1" d="M8086 7317c21,0 21,-33 0,-33 -22,0 -22,33 0,33z"/>
   <path class="fil1" d="M7218 5651c22,0 22,-33 0,-33 -21,0 -21,33 0,33z"/>
   <path class="fil1" d="M7504 5594c21,0 21,-33 0,-33 -22,0 -22,33 0,33z"/>
   <path class="fil1" d="M7800 5023c22,0 22,-33 0,-33 -21,0 -21,33 0,33z"/>
   <path class="fil1" d="M8200 4647c21,0 21,-33 0,-33 -22,0 -22,33 0,33z"/>
   <path class="fil1" d="M8006 4521c21,0 21,-33 0,-33 -22,0 -22,33 0,33z"/>
   <path class="fil1" d="M8029 4259c21,0 21,-33 0,-33 -22,0 -22,33 0,33z"/>
   <path class="fil1" d="M2962 4932c21,0 21,-33 0,-33 -22,0 -22,33 0,33z"/>
   <path class="fil1" d="M2654 4761c21,0 21,-33 0,-33 -22,0 -22,33 0,33z"/>
   <path class="fil1" d="M2243 4727l11 0c9,0 17,-8 17,-17 0,-9 -7,-16 -17,-16l-11 0c-9,0 -17,7 -17,16 1,9 8,17 17,17z"/>
   <path class="fil1" d="M2745 5274l11 0c15,0 29,-13 28,-28 0,-15 -12,-27 -28,-27l-11 0c-14,0 -28,13 -28,27 1,16 13,28 28,28z"/>
   <path class="fil1" d="M2060 2661c36,0 36,-55 0,-55 -35,0 -35,55 0,55z"/>
   <path class="fil1" d="M2387 6319l0 12c0,20 18,39 39,38 21,-1 38,-17 38,-38l0 -12c0,-20 -17,-40 -38,-39 -21,1 -39,17 -39,39z"/>
   <path class="fil1" d="M4560 3631c49,0 50,-78 0,-78 -50,0 -51,78 0,78z"/>
   <path class="fil1" d="M1604 3631c50,0 50,-78 0,-78 -50,0 -50,78 0,78z"/>
   <path class="fil1" d="M8104 6463c-4,4 -8,8 -12,11 -14,15 -15,41 0,55 16,14 40,16 55,0 4,-4 8,-7 12,-11 14,-15 15,-41 0,-55 -16,-14 -40,-15 -55,0z"/>
   <path class="fil1" d="M6260 7830c50,0 50,-78 0,-78 -50,0 -50,78 0,78z"/>
   <path class="fil1" d="M4251 6712c50,0 50,-78 0,-78 -50,0 -50,78 0,78z"/>
   <path class="fil1" d="M6477 3927l11 0c20,0 40,-18 39,-38 -1,-22 -17,-39 -39,-39l-11 0c-21,0 -40,18 -39,39 1,21 17,38 39,38z"/>
   <path class="fil1" d="M2934 2987l0 11c0,21 18,40 39,39 21,-1 39,-17 39,-39l0 -11c0,-20 -18,-40 -39,-39 -21,1 -39,17 -39,39z"/>
   <path class="fil1" d="M4092 2318c50,0 50,-77 0,-77 -50,0 -50,77 0,77z"/>
   <path class="fil1" d="M2456 4223c-4,-4 -7,-8 -11,-11 -10,-10 -26,5 -16,15 4,4 8,8 12,12 10,10 25,-6 15,-16z"/>
   <path class="fil1" d="M2448 4425c15,0 15,-23 0,-23 -14,0 -14,23 0,23z"/>
   <path class="fil1" d="M4925 7574l11 0c14,0 14,-22 0,-22l-11 0c-15,0 -15,22 0,22z"/>
   <path class="fil1" d="M1558 5349c15,0 15,-22 0,-22 -14,0 -14,22 0,22z"/>
   <path class="fil1" d="M2235 4908c-4,4 -7,7 -11,11 -10,10 5,26 15,16 4,-4 8,-8 12,-12 10,-10 -6,-25 -16,-15z"/>
   <path class="fil1" d="M5769 5554c14,0 14,-22 0,-22 -14,0 -14,22 0,22z"/>
   <path class="fil1" d="M6035 5809c-4,4 -7,8 -11,12 -10,10 5,25 15,15 4,-3 8,-7 12,-11 10,-10 -6,-26 -16,-16z"/>
   <path class="fil1" d="M5552 5965c15,0 15,-22 0,-22 -14,0 -14,22 0,22z"/>
   <path class="fil1" d="M5484 6410l0 12c0,14 22,14 22,0l0 -12c0,-14 -22,-14 -22,0z"/>
   <path class="fil1" d="M7161 4881l12 0c14,0 14,-22 0,-22l-12 0c-14,0 -14,22 0,22z"/>
   <path class="fil1" d="M7435 4573c14,0 15,-22 0,-22 -14,0 -14,22 0,22z"/>
   <path class="fil1" d="M4343 2370c14,0 14,-22 0,-22 -15,0 -15,22 0,22z"/>
   <path class="fil1" d="M4514 2382c14,0 14,-22 0,-22 -14,0 -14,22 0,22z"/>
   <path class="fil1" d="M4639 2279l12 0c14,0 14,-22 0,-22l-12 0c-14,0 -14,22 0,22z"/>
   <path class="fil1" d="M4582 2154c15,0 15,-23 0,-23 -14,0 -14,23 0,23z"/>
   <path class="fil1" d="M4366 2142c14,0 14,-22 0,-22 -15,0 -15,22 0,22z"/>
   <path class="fil1" d="M2802 2804c14,0 14,-22 0,-22 -14,0 -14,22 0,22z"/>
   <path class="fil1" d="M2585 2987c15,0 15,-22 0,-22 -14,0 -14,22 0,22z"/>
   <path class="fil1" d="M2642 2827c15,0 15,-22 0,-22 -14,0 -14,22 0,22z"/>
   <path class="fil1" d="M2756 2918c15,0 15,-22 0,-22 -14,0 -14,22 0,22z"/>
   <path class="fil1" d="M2180 2806c-8,-4 -15,-7 -23,-11 -12,-7 -24,13 -11,19 8,4 15,8 23,11 13,7 24,-12 11,-19z"/>
   <path class="fil1" d="M1901 2895c14,0 14,-22 0,-22 -15,0 -15,22 0,22z"/>
   <path class="fil1" d="M1741 3540c21,0 21,-33 0,-33 -22,0 -22,33 0,33z"/>
   <path class="fil1" d="M1752 3688c22,0 22,-33 0,-33 -21,0 -21,33 0,33z"/>
   <path class="fil1" d="M1524 3478c3,4 7,8 11,11 6,7 17,7 24,0 6,-6 6,-17 0,-23 -4,-4 -8,-8 -12,-11 -6,-7 -17,-7 -23,0 -7,6 -7,17 0,23z"/>
   <path class="fil1" d="M8268 6621c22,0 22,-33 0,-33 -21,0 -21,33 0,33z"/>
   <path class="fil1" d="M8291 6518c21,0 22,-33 0,-33 -21,0 -21,33 0,33z"/>
   <path class="fil1" d="M8428 6621c21,0 21,-33 0,-33 -21,0 -21,33 0,33z"/>
   <path class="fil1" d="M8234 6758c21,0 21,-33 0,-33 -21,0 -21,33 0,33z"/>
   <path class="fil1" d="M8394 6701c21,0 21,-33 0,-33 -22,0 -22,33 0,33z"/>
   <path class="fil1" d="M1884 5167l0 11c0,9 8,17 17,17 9,-1 16,-8 16,-17l0 -11c0,-9 -7,-17 -16,-17 -9,0 -17,7 -17,17z"/>
   <path class="fil1" d="M1775 5332c21,0 22,-34 0,-34 -21,0 -21,34 0,34z"/>
   <path class="fil1" d="M1707 5206c21,0 21,-33 0,-33 -22,0 -22,33 0,33z"/>
   <path class="fil1" d="M1878 5081c21,0 21,-34 0,-34 -22,0 -22,34 0,34z"/>
   <path class="fil1" d="M1832 5240c22,0 22,-33 0,-33 -21,0 -21,33 0,33z"/>
   <path class="fil1" d="M1610 5075l0 7c0,21 33,21 33,0l0 -7c0,-21 -33,-21 -33,0l0 7c0,21 33,21 33,0l0 -7c0,-21 -33,-21 -33,0z"/>
   <path class="fil1" d="M1684 5029c28,0 28,-44 0,-44 -29,0 -29,44 0,44z"/>
   <path class="fil1" d="M1821 5189c28,0 28,-45 0,-45 -29,0 -29,45 0,45z"/>
   <path class="fil1" d="M7652 4561c29,0 29,-44 0,-44 -29,0 -29,44 0,44z"/>
   <path class="fil1" d="M2814 3819c28,0 28,-44 0,-44 -29,0 -29,44 0,44z"/>
   <path class="fil1" d="M3966 2371l0 11c0,14 23,14 23,0l0 -11c0,-14 -23,-15 -23,0z"/>
   <path class="fil1" d="M4000 2245c15,0 15,-22 0,-22 -14,0 -14,22 0,22z"/>
   <path class="fil1" d="M8633 5714c15,0 15,-22 0,-22 -14,0 -14,22 0,22z"/>
   <path class="fil1" d="M8690 5623c15,0 15,-22 0,-22 -14,0 -14,22 0,22z"/>
   <path class="fil1" d="M8736 5726l0 11c0,14 23,14 23,0l0 -11c0,-14 -23,-15 -23,0z"/>
   <path class="fil1" d="M8816 5634c29,0 29,-45 0,-45 -29,0 -29,45 0,45z"/>
   <path class="fil1" d="M8565 5714c28,0 29,-45 0,-45 -29,0 -29,45 0,45z"/>
   <path class="fil1" d="M4708 2222c28,0 28,-45 0,-45 -29,0 -29,45 0,45z"/>
   <path class="fil1" d="M4400 2257l0 6c0,28 45,29 45,0l0 -6c0,-29 -45,-29 -45,0l0 6c0,28 45,29 45,0l0 -6c0,-29 -45,-29 -45,0z"/>
   <path class="fil1" d="M5552 1594c29,0 29,-44 0,-44 -28,0 -28,44 0,44z"/>
   <path class="fil1" d="M5644 1457c28,0 28,-44 0,-44 -29,0 -29,44 0,44z"/>
   <path class="fil1" d="M3510 7836c28,0 28,-44 0,-44 -29,0 -29,44 0,44z"/>
   <path class="fil1" d="M3354 7830c4,-4 8,-8 12,-12 8,-8 8,-23 0,-31 -9,-8 -23,-9 -32,0 -4,4 -7,8 -11,11 -8,9 -9,24 0,32 9,8 22,9 31,0z"/>
   <path class="fil1" d="M3384 7973l12 0c11,0 22,-10 22,-22 -1,-12 -10,-22 -22,-22l-12 0c-11,0 -23,10 -22,22 0,12 10,22 22,22z"/>
   <path class="fil1" d="M2163 2130c29,0 29,-44 0,-44 -28,0 -29,44 0,44z"/>
   <path class="fil1" d="M2026 2005c29,0 29,-44 0,-44 -28,0 -28,44 0,44z"/>
   <path class="fil1" d="M1672 2028c29,0 29,-45 0,-45 -28,0 -28,45 0,45z"/>
   <path class="fil1" d="M1856 1755l0 11c0,12 10,23 22,22 12,0 22,-10 22,-22l0 -11c0,-12 -10,-23 -22,-23 -12,1 -22,10 -22,23z"/>
   <path class="fil1" d="M3202 2439c14,0 14,-22 0,-22 -15,0 -15,22 0,22z"/>
   <path class="fil1" d="M3247 2279c14,0 14,-22 0,-22 -14,0 -14,22 0,22z"/>
   <path class="fil1" d="M3373 2222c14,0 14,-22 0,-22 -15,0 -15,22 0,22z"/>
   <path class="fil1" d="M3281 2085c15,0 15,-22 0,-22 -14,0 -14,22 0,22z"/>
   <g>
    <path class="fil3" d="M8057 2971c0,-536 434,-970 970,-970 536,0 970,434 970,970 0,536 -434,970 -970,970 -536,0 -970,-434 -970,-970z"/>
    <path class="fil4" d="M9777 2356c138,167 220,382 220,615 0,536 -434,970 -970,970 -299,0 -567,-135 -745,-348 0,0 733,281 1184,-169 450,-451 311,-1068 311,-1068z"/>
   </g>
   <g>
    <path class="fil5" d="M6830 1840c0,189 -153,343 -342,343 -189,0 -342,-154 -342,-343 0,-189 153,-342 342,-342 189,0 342,153 342,342z"/>
    <path class="fil6" d="M6224 2057c-49,-59 -78,-134 -78,-217 0,-189 153,-342 342,-342 106,0 200,48 263,123 0,0 -259,-99 -418,60 -159,159 -109,376 -109,376z"/>
   </g>
   <g>
    <path class="fil7" d="M4054 7241c0,-136 -109,-245 -245,-245 -135,0 -244,109 -244,245 0,135 109,244 244,244 136,0 245,-109 245,-244z"/>
    <path class="fil8" d="M3620 7085c-34,43 -55,97 -55,156 0,135 109,244 244,244 76,0 143,-34 188,-87 0,0 -185,70 -298,-43 -114,-114 -79,-270 -79,-270z"/>
   </g>
   <g>
    <path class="fil7" d="M13375 6603c0,120 -97,217 -217,217 -119,0 -216,-97 -216,-217 0,-120 97,-217 216,-217 120,0 217,97 217,217z"/>
    <path class="fil8" d="M12991 6741c-31,-38 -49,-86 -49,-138 0,-120 97,-217 216,-217 67,0 127,30 167,78 0,0 -164,-63 -265,38 -100,101 -69,239 -69,239z"/>
   </g>
  </g>
 </g>
</svg>
