<?xml version="1.0" encoding="UTF-8"?>
<!DOCTYPE svg PUBLIC "-//W3C//DTD SVG 1.1//EN" "http://www.w3.org/Graphics/SVG/1.1/DTD/svg11.dtd">
<!-- Creator: CorelDRAW X7 -->
<svg xmlns="http://www.w3.org/2000/svg" xml:space="preserve" width="100%" height="100%" version="1.1" style="shape-rendering:geometricPrecision; text-rendering:geometricPrecision; image-rendering:optimizeQuality; fill-rule:evenodd; clip-rule:evenodd"
viewBox="0 0 685 685"
 xmlns:xlink="http://www.w3.org/1999/xlink">
 <defs>
  <style type="text/css">
   <![CDATA[
    .fil1 {fill:#D2AE6D;fill-rule:nonzero}
    .fil0 {fill:#DBBB83;fill-rule:nonzero}
    .fil2 {fill:#F4DDB5;fill-rule:nonzero}
   ]]>
  </style>
 </defs>
 <g id="Layer_x0020_1">
  <metadata id="CorelCorpID_0Corel-Layer"/>
  <g id="_2425989898016">
   <path class="fil0" d="M685 342c0,189 -154,343 -343,343 -189,0 -342,-154 -342,-343 0,-189 153,-342 342,-342 189,0 343,153 343,342z"/>
   <path class="fil1" d="M78 559c-49,-59 -78,-134 -78,-217 0,-189 153,-342 342,-342 106,0 200,48 263,123 0,0 -258,-99 -417,60 -159,159 -110,376 -110,376z"/>
   <path class="fil1" d="M400 153c-4,4 -8,8 -12,12 -6,6 -6,17 0,23 7,6 17,6 24,0 4,-4 7,-8 11,-11 6,-7 6,-18 0,-24 -6,-6 -17,-6 -23,0z"/>
   <path class="fil1" d="M491 547c22,0 22,-34 0,-34 -21,0 -21,34 0,34z"/>
   <path class="fil2" d="M217 347l12 0c14,0 14,-22 0,-22l-12 0c-14,0 -14,22 0,22z"/>
   <path class="fil1" d="M286 290c28,0 28,-45 0,-45 -29,0 -29,45 0,45z"/>
   <path class="fil2" d="M449 394c50,0 50,-78 0,-78 -50,0 -50,78 0,78z"/>
  </g>
 </g>
</svg>
