<?xml version="1.0" encoding="UTF-8"?>
<!DOCTYPE svg PUBLIC "-//W3C//DTD SVG 1.1//EN" "http://www.w3.org/Graphics/SVG/1.1/DTD/svg11.dtd">
<!-- Creator: CorelDRAW X7 -->
<svg xmlns="http://www.w3.org/2000/svg" xml:space="preserve" width="100%" height="100%" version="1.1" style="shape-rendering:geometricPrecision; text-rendering:geometricPrecision; image-rendering:optimizeQuality; fill-rule:evenodd; clip-rule:evenodd"
viewBox="0 0 4530 6451"
 xmlns:xlink="http://www.w3.org/1999/xlink">
 <defs>
  <style type="text/css">
   <![CDATA[
    .fil1 {fill:#D2AE6D}
    .fil5 {fill:#E9C795}
    .fil3 {fill:#D2AE6D;fill-rule:nonzero}
    .fil0 {fill:#E0BD92;fill-rule:nonzero}
    .fil2 {fill:#E9C795;fill-rule:nonzero}
    .fil4 {fill:#E9C795;fill-rule:nonzero}
   ]]>
  </style>
 </defs>
 <g id="Layer_x0020_1">
  <metadata id="CorelCorpID_0Corel-Layer"/>
  <g id="_2425974225744">
   <path class="fil0" d="M0 599c0,-202 10,-402 29,-599l4501 0 0 6451c-2605,-671 -4530,-3037 -4530,-5852l0 0z"/>
   <path class="fil1" d="M4530 5875c-2028,-484 -3750,-2005 -4392,-4146 -30,-100 -57,-199 -82,-299 336,2441 2129,4417 4474,5021l0 -576 0 0z"/>
   <path class="fil2" d="M1330 3779c26,0 26,39 0,39 -25,0 -25,-39 0,-39z"/>
   <path class="fil2" d="M2112 4809c25,0 25,39 0,39 -25,0 -25,-39 0,-39z"/>
   <path class="fil0" d="M1281 4121l0 -20c0,-16 13,-30 29,-30 16,1 30,13 30,30l0 20c0,15 -14,30 -30,29 -16,-1 -29,-13 -29,-29z"/>
   <path class="fil0" d="M1089 3830c38,0 38,58 0,58 -38,0 -38,-58 0,-58z"/>
   <path class="fil3" d="M1494 3339c38,0 38,59 0,59 -37,0 -37,-59 0,-59z"/>
   <path class="fil2" d="M757 3221c50,0 50,79 0,79 -50,0 -50,-79 0,-79z"/>
   <path class="fil3" d="M3385 4427l0 -10c0,-13 20,-13 20,0l0 10c0,12 -20,12 -20,0z"/>
   <path class="fil2" d="M1946 4474c3,10 7,20 10,30 4,12 -15,17 -19,5 -3,-10 -7,-20 -10,-30 -4,-12 15,-17 19,-5z"/>
   <path class="fil2" d="M2257 4810c12,0 12,20 0,20 -13,0 -13,-20 0,-20z"/>
   <path class="fil3" d="M1904 3591c12,0 12,19 0,19 -13,0 -13,-19 0,-19z"/>
   <path class="fil3" d="M2706 5048c4,-3 7,-7 11,-10 4,-5 11,2 6,7 -3,3 -6,7 -10,10 -4,4 -11,-2 -7,-7l0 0z"/>
   <path class="fil3" d="M3597 5077c6,0 6,10 0,10 -7,0 -7,-10 0,-10z"/>
   <path class="fil3" d="M3399 2751c3,3 6,6 10,10 4,4 -3,11 -7,7 -4,-4 -7,-7 -10,-10 -5,-5 2,-12 7,-7z"/>
   <path class="fil3" d="M3785 3695c-4,-4 -7,-7 -10,-10 -5,-5 2,-12 6,-7 4,3 7,6 11,10 4,4 -3,11 -7,7l0 0z"/>
   <path class="fil3" d="M2962 3797c6,0 6,10 0,10 -6,0 -6,-10 0,-10z"/>
   <path class="fil2" d="M1672 4679c13,0 13,20 0,20 -13,0 -13,-20 0,-20z"/>
   <path class="fil0" d="M2851 5394c13,0 13,20 0,20 -13,0 -13,-20 0,-20z"/>
   <path class="fil3" d="M2448 3157l0 10c0,13 -20,13 -20,0l0 -10c0,-12 20,-12 20,0z"/>
   <path class="fil3" d="M1803 2664l10 0c13,0 13,19 0,19l-10 0c-13,0 -13,-19 0,-19z"/>
   <path class="fil3" d="M675 2724l10 0c12,0 12,20 0,20l-10 0c-13,0 -13,-20 0,-20z"/>
   <path class="fil2" d="M876 3480l10 0c13,0 13,19 0,19l-10 0c-13,0 -13,-19 0,-19z"/>
   <path class="fil3" d="M3536 5168c19,0 19,29 0,29 -19,0 -19,-29 0,-29z"/>
   <path class="fil3" d="M2715 4205l0 -10c0,-8 7,-15 15,-15 8,1 15,7 15,15l0 10c0,8 -7,15 -15,15 -8,-1 -15,-7 -15,-15z"/>
   <path class="fil3" d="M3123 3712c25,0 25,39 0,39 -25,0 -25,-39 0,-39z"/>
   <path class="fil3" d="M1984 3168c13,0 13,19 0,19 -12,0 -12,-19 0,-19z"/>
   <path class="fil3" d="M1672 3117c13,0 13,20 0,20 -13,0 -13,-20 0,-20z"/>
   <path class="fil3" d="M947 2533c12,0 12,19 0,19 -13,0 -13,-19 0,-19z"/>
   <path class="fil3" d="M786 2260l0 -10c0,-12 19,-12 19,0l0 10c0,13 -19,13 -19,0z"/>
   <path class="fil3" d="M668 2388c-4,-3 -7,-7 -10,-10 -9,-9 4,-23 13,-14 4,4 7,7 10,10 9,9 -4,23 -13,14z"/>
   <path class="fil3" d="M725 2492c13,0 13,20 0,20 -13,0 -13,-20 0,-20z"/>
   <path class="fil3" d="M453 2522l0 -10c0,-12 20,-12 20,0l0 10c0,13 -20,13 -20,0z"/>
   <path class="fil4" d="M470 2687c3,3 7,6 10,10 9,9 -5,23 -14,14 -3,-4 -7,-7 -10,-10 -9,-9 5,-23 14,-14z"/>
   <path class="fil3" d="M795 2895l11 0c12,0 12,20 0,20l-11 0c-12,0 -12,-20 0,-20z"/>
   <path class="fil3" d="M977 2724c12,0 12,20 0,20 -13,0 -13,-20 0,-20z"/>
   <path class="fil3" d="M2105 2311c13,0 13,20 0,20 -12,0 -12,-20 0,-20z"/>
   <path class="fil3" d="M2438 2502c12,0 13,20 0,20 -13,0 -13,-20 0,-20z"/>
   <path class="fil3" d="M2629 2754c13,0 13,20 0,20 -12,0 -12,-20 0,-20z"/>
   <path class="fil3" d="M1017 3228c13,0 13,20 0,20 -12,0 -12,-20 0,-20z"/>
   <path class="fil3" d="M1229 3550c12,0 12,20 0,20 -13,0 -13,-20 0,-20z"/>
   <path class="fil2" d="M975 3688c13,0 13,20 0,20 -13,0 -13,-20 0,-20z"/>
   <path class="fil3" d="M4242 3470l10 0c12,0 12,19 0,19l-10 0c-13,0 -13,-19 0,-19z"/>
   <path class="fil3" d="M3929 3137l0 -10c0,-13 20,-13 20,0l0 10c0,13 -20,13 -20,0z"/>
   <path class="fil3" d="M3405 3329c13,0 13,19 0,19 -12,0 -12,-19 0,-19z"/>
   <path class="fil3" d="M4322 3974c13,0 13,19 0,19 -12,0 -12,-19 0,-19z"/>
   <path class="fil3" d="M3678 4205l0 -10c0,-13 19,-13 19,0l0 10c0,13 -19,13 -19,0z"/>
   <path class="fil3" d="M3435 4810c13,0 13,20 0,20 -12,0 -12,-20 0,-20z"/>
   <path class="fil3" d="M4111 5304c12,0 12,19 0,19 -13,0 -13,-19 0,-19z"/>
   <path class="fil3" d="M4023 5673c-3,-3 -7,-7 -10,-10 -9,-9 5,-23 14,-14 3,4 6,7 10,10 9,9 -5,23 -14,14z"/>
   <path class="fil2" d="M1460 4251l11 0c7,0 15,7 14,15 0,8 -6,14 -14,14l-11 0c-7,0 -15,-7 -14,-14 0,-8 6,-15 14,-15z"/>
   <path class="fil3" d="M2155 4105c-3,-4 -6,-7 -10,-10 -5,-6 -5,-16 0,-21 6,-6 16,-6 21,0 3,3 7,7 10,10 6,5 6,15 0,21 -5,5 -15,5 -21,0z"/>
   <path class="fil3" d="M2851 4644c19,0 19,29 0,29 -19,0 -19,-29 0,-29z"/>
   <path class="fil3" d="M3078 4971l0 -10c0,-8 7,-15 15,-15 8,0 15,7 15,15l0 10c0,8 -7,15 -15,15 -8,-1 -15,-7 -15,-15z"/>
   <path class="fil3" d="M3687 2911c19,0 19,29 0,29 -19,0 -19,-29 0,-29z"/>
   <path class="fil3" d="M3123 2326l10 0c8,0 15,7 15,15 -1,8 -7,15 -15,15l-10 0c-8,0 -15,-7 -15,-15 1,-8 7,-15 15,-15z"/>
   <path class="fil3" d="M2569 2125c19,0 19,29 0,29 -19,0 -19,-29 0,-29z"/>
   <path class="fil3" d="M1894 1913l10 0c8,0 15,7 15,15 -1,8 -7,15 -15,15l-10 0c-8,0 -15,-7 -15,-15 0,-8 7,-15 15,-15z"/>
   <path class="fil3" d="M1803 2236c19,0 19,29 0,29 -19,0 -19,-29 0,-29z"/>
   <path class="fil3" d="M1632 2326c19,0 19,30 0,30 -19,0 -19,-30 0,-30z"/>
   <path class="fil3" d="M2932 3112l10 0c7,0 15,7 14,15 0,8 -6,15 -14,15l-10 0c-8,0 -15,-7 -15,-15 0,-8 6,-15 15,-15z"/>
   <path class="fil3" d="M3163 2860c19,0 19,30 0,30 -19,0 -19,-30 0,-30z"/>
   <path class="fil3" d="M3506 2880c19,0 19,30 0,30 -19,0 -19,-30 0,-30z"/>
   <path class="fil3" d="M3697 3173c19,0 19,29 0,29 -18,0 -19,-29 0,-29z"/>
   <path class="fil3" d="M3325 5354c25,0 25,40 0,40 -26,0 -26,-40 0,-40z"/>
   <path class="fil3" d="M2988 3516c4,-3 7,-7 10,-10 8,-7 21,-8 28,0 7,8 8,20 0,28 -3,3 -7,6 -10,10 -7,7 -21,8 -28,0 -7,-8 -7,-20 0,-28z"/>
   <path class="fil3" d="M2609 3645c6,3 13,7 20,10 9,5 12,18 7,27 -6,9 -17,12 -27,7 -7,-3 -14,-7 -20,-10 -9,-5 -13,-18 -7,-27 6,-9 17,-12 27,-7z"/>
   <path class="fil2" d="M2529 5117c18,0 19,30 0,30 -19,0 -19,-30 0,-30z"/>
   <path class="fil3" d="M453 1964c19,0 19,29 0,29 -19,0 -19,-29 0,-29z"/>
   <path class="fil3" d="M885 1838c-3,-3 -7,-6 -10,-9 -6,-6 -6,-16 0,-21 6,-6 15,-6 20,0 4,3 7,6 11,9 6,6 5,16 0,21 -6,6 -15,5 -21,0l0 0z"/>
   <path class="fil3" d="M1057 2044c19,0 19,30 0,30 -18,0 -19,-30 0,-30z"/>
   <path class="fil3" d="M1471 2014c18,0 18,29 0,29 -19,0 -19,-29 0,-29z"/>
   <path class="fil3" d="M1400 2306c19,0 19,30 0,30 -19,0 -19,-30 0,-30z"/>
   <path class="fil3" d="M1027 2185c19,0 19,30 0,30 -19,0 -19,-30 0,-30z"/>
   <path class="fil3" d="M493 1762c19,0 19,29 0,29 -19,0 -19,-29 0,-29z"/>
   <path class="fil3" d="M3476 3626c19,0 19,30 0,30 -19,0 -19,-30 0,-30z"/>
   <path class="fil3" d="M3577 3888c18,0 18,29 0,29 -19,0 -19,-29 0,-29z"/>
   <path class="fil3" d="M4231 3727c19,0 19,29 0,29 -18,0 -18,-29 0,-29z"/>
   <path class="fil3" d="M4050 3727c19,0 19,29 0,29 -19,0 -19,-29 0,-29z"/>
   <path class="fil3" d="M2529 4604c18,0 19,29 0,29 -19,0 -19,-29 0,-29z"/>
   <path class="fil0" d="M2987 5586l0 -10c0,-8 7,-15 15,-15 8,1 15,7 15,15l0 10c0,8 -7,15 -15,15 -8,-1 -15,-7 -15,-15z"/>
   <path class="fil3" d="M3597 2427c19,0 19,29 0,29 -19,0 -19,-29 0,-29z"/>
   <path class="fil3" d="M3929 2629c19,0 19,29 0,29 -19,0 -19,-29 0,-29z"/>
   <path class="fil3" d="M3163 4100c19,0 19,29 0,29 -19,0 -19,-29 0,-29z"/>
   <path class="fil3" d="M3415 4150c19,0 19,29 0,29 -19,0 -19,-29 0,-29z"/>
   <path class="fil3" d="M3677 4654c19,0 19,29 0,29 -19,0 -19,-29 0,-29z"/>
   <path class="fil3" d="M4030 4986c19,0 19,30 0,30 -19,0 -19,-30 0,-30z"/>
   <path class="fil3" d="M3859 5097c19,0 19,30 0,30 -19,0 -19,-30 0,-30z"/>
   <path class="fil3" d="M3879 5329c19,0 19,29 0,29 -19,0 -19,-29 0,-29z"/>
   <path class="fil3" d="M3945 3383c-3,-3 -6,-7 -10,-10 -13,-13 -13,-36 0,-49 14,-12 35,-13 49,0 3,4 6,7 10,10 12,13 13,36 0,49 -14,12 -35,13 -49,0z"/>
   <path class="fil2" d="M2317 2176c44,0 44,68 0,68 -44,0 -44,-68 0,-68z"/>
   <path class="fil3" d="M1138 2402l10 0c13,0 13,19 0,19l-10 0c-13,0 -13,-19 0,-19z"/>
   <path class="fil3" d="M1884 4185c12,0 12,20 0,20 -13,0 -13,-20 0,-20z"/>
   <path class="fil3" d="M2119 3960c-4,-3 -7,-7 -10,-10 -9,-9 4,-23 13,-14 4,4 7,7 10,10 9,9 -4,23 -13,14z"/>
   <path class="fil3" d="M1692 3822c13,0 13,20 0,20 -12,0 -12,-20 0,-20z"/>
   <path class="fil3" d="M1632 3429l0 -10c0,-12 20,-12 20,0l0 10c0,13 -20,13 -20,0z"/>
   <path class="fil3" d="M3113 4780l10 0c13,0 13,19 0,19l-10 0c-13,0 -13,-19 0,-19z"/>
   <path class="fil3" d="M3355 5052c12,0 12,19 0,19 -13,0 -13,-19 0,-19z"/>
   <path class="fil3" d="M4090 3243c19,0 19,30 0,30 -19,0 -19,-30 0,-30z"/>
   <path class="fil3" d="M4111 3334c18,0 18,29 0,29 -19,0 -19,-29 0,-29z"/>
   <path class="fil3" d="M4231 3243c19,0 19,30 0,30 -18,0 -18,-30 0,-30z"/>
   <path class="fil3" d="M4060 3122c19,0 19,30 0,30 -19,0 -19,-30 0,-30z"/>
   <path class="fil3" d="M4201 3173c19,0 19,29 0,29 -19,0 -19,-29 0,-29z"/>
   <path class="fil3" d="M3546 5062c25,0 26,39 0,39 -25,0 -25,-39 0,-39z"/>
   <path class="fil3" d="M4413 4044c12,0 12,20 0,20 -13,0 -13,-20 0,-20z"/>
   <path class="fil3" d="M4352 4044c26,0 26,40 0,40 -25,0 -25,-40 0,-40z"/>
   <path class="fil5" d="M1201 589c-244,95 -350,428 -238,743 112,316 401,495 645,400 244,-95 350,-428 238,-744 -113,-315 -401,-494 -645,-399z"/>
   <path class="fil1" d="M1655 1082c-102,-285 -347,-458 -573,-418 34,-32 74,-58 119,-75 244,-95 532,84 645,399 112,316 6,649 -238,744 -24,9 -48,15 -72,19 156,-142 211,-411 119,-669z"/>
   <g>
    <path class="fil5" d="M2828 4102c-52,128 38,288 199,359 161,70 334,24 385,-104 51,-127 -38,-288 -199,-358 -162,-71 -334,-24 -385,103z"/>
    <path class="fil1" d="M3180 4106c-146,-64 -300,-32 -367,69 1,-25 5,-49 15,-73 51,-127 223,-174 385,-103 161,70 250,231 199,358 -5,13 -11,24 -18,35 1,-111 -82,-229 -214,-286z"/>
    <path class="fil5" d="M3402 4692c-54,83 -13,209 92,281 105,71 233,62 287,-22 53,-83 12,-209 -93,-280 -105,-72 -233,-63 -286,21z"/>
    <path class="fil1" d="M3650 4742c-94,-65 -208,-63 -268,-1 3,-17 10,-34 19,-49 54,-84 182,-93 287,-21 105,71 146,197 93,280 -6,8 -12,16 -18,22 16,-78 -27,-173 -113,-231z"/>
   </g>
   <path class="fil3" d="M4048 117c27,0 27,-43 0,-43 -29,0 -29,43 0,43z"/>
   <path class="fil3" d="M1673 3858c27,0 27,-43 0,-43 -29,0 -29,43 0,43z"/>
   <path class="fil3" d="M2116 239l22 0c27,0 27,-42 0,-42l-22 0c-27,0 -29,42 0,42z"/>
   <path class="fil3" d="M2692 1982c16,0 16,-21 0,-21 -14,0 -14,21 0,21z"/>
   <path class="fil3" d="M4136 3714c13,0 13,-21 0,-21 -14,0 -14,21 0,21z"/>
   <path class="fil3" d="M4048 3391c27,0 27,-43 0,-43 -29,0 -29,43 0,43z"/>
   <path class="fil3" d="M4425 1261l0 21c0,29 43,29 43,0l0 -21c0,-27 -43,-27 -43,0z"/>
   <path class="fil3" d="M2982 1416l21 0c30,0 30,-44 0,-44l-21 0c-27,0 -27,44 0,44z"/>
   <path class="fil3" d="M3293 4546l0 22c0,29 43,29 43,0l0 -22c0,-27 -43,-27 -43,0z"/>
   <path class="fil3" d="M4048 4900l21 0c28,0 28,-42 0,-42l-21 0c-29,0 -29,42 0,42z"/>
   <path class="fil3" d="M1716 2292c42,0 42,-64 0,-64 -41,0 -41,64 0,64z"/>
   <path class="fil3" d="M3503 416l0 24c0,15 16,33 33,31 18,0 33,-14 33,-31l0 -24c0,-15 -15,-33 -33,-31 -17,0 -33,14 -33,31z"/>
   <path class="fil3" d="M3560 3157c41,0 41,-64 0,-64 -43,0 -43,64 0,64z"/>
   <path class="fil2" d="M2005 4990c28,0 28,-43 0,-43 -29,0 -29,43 0,43z"/>
   <path class="fil3" d="M2182 2393l0 21c0,29 45,29 45,0l0 -21c0,-27 -45,-27 -45,0z"/>
   <path class="fil3" d="M2182 3103c28,0 28,-43 0,-43 -27,0 -27,43 0,43z"/>
   <path class="fil3" d="M3381 2504c29,0 29,-45 0,-45 -27,0 -27,45 0,45z"/>
   <path class="fil3" d="M2233 1623c-6,7 -14,15 -21,23 -20,19 11,49 31,29 6,-8 13,-14 21,-21 20,-20 -10,-51 -31,-31z"/>
   <path class="fil3" d="M1494 1527c29,0 29,-45 0,-45 -27,0 -27,45 0,45z"/>
   <path class="fil3" d="M895 2292c42,0 42,-64 0,-64 -41,0 -41,64 0,64z"/>
   <path class="fil3" d="M1062 1060l0 24c0,15 15,33 33,31 17,0 31,-14 31,-31l0 -24c0,-15 -14,-33 -31,-31 -18,0 -33,14 -33,31z"/>
   <path class="fil2" d="M2093 4646c43,0 43,-66 0,-66 -41,0 -41,66 0,66z"/>
   <path class="fil3" d="M2404 3867c43,0 43,-64 0,-64 -41,0 -41,64 0,64z"/>
   <path class="fil3" d="M3937 4414c8,-8 14,-15 21,-23 14,-12 14,-33 0,-45 -11,-13 -33,-13 -44,0 -8,8 -16,14 -24,22 -11,13 -11,33 0,46 14,12 33,12 47,0z"/>
   <path class="fil2" d="M3248 3712c41,0 41,-64 0,-64 -42,0 -42,64 0,64z"/>
   <path class="fil3" d="M4114 2381l22 0c17,0 33,-15 33,-33 -2,-17 -14,-33 -33,-33l-22 0c-17,0 -33,16 -33,33 2,18 14,33 33,33z"/>
   <path class="fil3" d="M4314 2980c41,0 41,-64 0,-64 -42,0 -42,64 0,64z"/>
   <path class="fil3" d="M2805 3058c54,0 54,-87 0,-87 -56,0 -56,87 0,87z"/>
   <path class="fil3" d="M3272 1770l0 24c0,21 19,44 43,43 23,-2 42,-20 42,-43l0 -24c0,-21 -19,-42 -42,-42 -24,2 -43,19 -43,42z"/>
   <path class="fil3" d="M4048 992c55,0 55,-85 0,-85 -56,0 -56,85 0,85z"/>
   <path class="fil3" d="M918 339c41,0 41,-65 0,-65 -43,0 -43,65 0,65z"/>
   <path class="fil0" d="M4091 6000c43,0 43,-65 0,-65 -41,0 -41,65 0,65z"/>
   <path class="fil0" d="M3138 5667c40,0 40,-66 0,-66 -43,0 -43,66 0,66z"/>
   <path class="fil2" d="M517 273c43,0 43,-67 0,-67 -41,0 -41,67 0,67z"/>
   <path class="fil2" d="M3848 5533c40,0 40,-64 0,-64 -43,0 -43,64 0,64z"/>
   <path class="fil2" d="M3248 5200c41,0 41,-64 0,-64 -42,0 -42,64 0,64z"/>
   <path class="fil2" d="M2449 5134l21 0c18,0 33,-16 33,-33 0,-18 -13,-31 -33,-31l-21 0c-18,0 -33,13 -33,31 2,17 15,33 33,33z"/>
   <path class="fil3" d="M2093 1115c70,0 70,-107 0,-107 -68,0 -68,107 0,107z"/>
   <path class="fil2" d="M1206 3002c97,0 97,-152 0,-152 -97,0 -97,152 0,152z"/>
   <path class="fil2" d="M3793 1749l0 21c0,41 35,78 76,76 41,-2 76,-33 76,-76l0 -21c0,-39 -35,-78 -76,-76 -41,2 -76,33 -76,76z"/>
   <path class="fil3" d="M2987 4221c-7,-8 -13,-16 -21,-21 -19,-20 -51,9 -31,29 8,8 15,15 23,23 20,20 49,-12 29,-31z"/>
   <path class="fil3" d="M2848 4546c29,0 29,-44 0,-44 -27,0 -27,44 0,44z"/>
   <path class="fil3" d="M3536 1393c28,0 28,-43 0,-43 -27,0 -27,43 0,43z"/>
   <path class="fil3" d="M3114 1749c29,0 29,-43 0,-43 -27,0 -27,43 0,43z"/>
   <path class="fil3" d="M3225 1438c29,0 29,-43 0,-43 -27,0 -27,43 0,43z"/>
   <path class="fil3" d="M3447 1615c29,0 29,-43 0,-43 -27,0 -27,43 0,43z"/>
   <path class="fil3" d="M2326 1397c-15,-8 -29,-14 -44,-21 -24,-14 -47,25 -22,37 16,7 29,15 45,21 25,14 47,-23 21,-37z"/>
   <path class="fil3" d="M1784 1570c27,0 27,-43 0,-43 -30,0 -30,43 0,43z"/>
   <path class="fil3" d="M1472 2825c41,0 41,-64 0,-64 -42,0 -42,64 0,64z"/>
   <path class="fil3" d="M1494 3113c43,0 43,-64 0,-64 -41,0 -41,64 0,64z"/>
   <path class="fil3" d="M1050 2704c6,8 14,16 22,22 11,13 33,13 46,0 12,-12 12,-33 0,-45 -8,-8 -15,-16 -23,-21 -12,-14 -33,-14 -45,0 -13,11 -13,33 0,44z"/>
   <path class="fil3" d="M3560 3368c54,0 54,-86 0,-86 -57,0 -57,86 0,86z"/>
   <path class="fil3" d="M4314 683c28,0 28,-43 0,-43 -29,0 -29,43 0,43z"/>
   <path class="fil3" d="M4402 372c27,0 27,-43 0,-43 -27,0 -27,43 0,43z"/>
  </g>
 </g>
</svg>
