<?xml version="1.0" encoding="UTF-8"?>
<!DOCTYPE svg PUBLIC "-//W3C//DTD SVG 1.1//EN" "http://www.w3.org/Graphics/SVG/1.1/DTD/svg11.dtd">
<!-- Creator: CorelDRAW X7 -->
<svg xmlns="http://www.w3.org/2000/svg" xml:space="preserve" width="100%" height="100%" version="1.1" style="shape-rendering:geometricPrecision; text-rendering:geometricPrecision; image-rendering:optimizeQuality; fill-rule:evenodd; clip-rule:evenodd"
viewBox="0 0 24723 20656"
 xmlns:xlink="http://www.w3.org/1999/xlink">
 <defs>
  <style type="text/css">
   <![CDATA[
    .fil23 {fill:#C7B8CC}
    .fil11 {fill:#6560A9}
    .fil19 {fill:#575197}
    .fil15 {fill:#686AA2}
    .fil22 {fill:#7173B3}
    .fil16 {fill:#758BCE}
    .fil9 {fill:#B6B9FF}
    .fil20 {fill:#BDC0FF}
    .fil12 {fill:#CACEFF}
    .fil18 {fill:#CFD0E4}
    .fil14 {fill:#DCE1FF}
    .fil13 {fill:#E2CCDE}
    .fil21 {fill:#E3E3F4}
    .fil10 {fill:#E6E9FF}
    .fil8 {fill:#EAD2DA}
    .fil7 {fill:#ECECFF}
    .fil0 {fill:#F5F9FF}
    .fil17 {fill:white}
    .fil4 {fill:#DABA76;fill-rule:nonzero}
    .fil3 {fill:#8480BC;fill-rule:nonzero}
    .fil5 {fill:#686AA2;fill-rule:nonzero}
    .fil1 {fill:#9999FF;fill-rule:nonzero}
    .fil6 {fill:#ECECFF;fill-rule:nonzero}
    .fil2 {fill:white;fill-rule:nonzero}
   ]]>
  </style>
 </defs>
 <g id="Layer_x0020_1">
  <metadata id="CorelCorpID_0Corel-Layer"/>
  <g id="_2098974130800">
   <g>
    <g id="_2186930193504">
     <path class="fil0" d="M13312 886c-1412,-1017 -3325,-1165 -5383,-409 -2057,743 -4016,2303 -5512,4380 -1496,2076 -2354,4429 -2414,6624 -59,2183 688,3951 2100,4968 1412,1017 3326,1165 5383,422 2057,-756 4017,-2316 5513,-4393 1496,-2076 2354,-4429 2413,-6612 59,-2195 -687,-3963 -2100,-4980zm-5812 15471c-1931,704 -3725,563 -5049,-391 -1324,-953 -2026,-2611 -1971,-4665 62,-2050 868,-4256 2271,-6204 1402,-1947 3240,-3412 5165,-4119 1924,-695 3718,-555 5043,399 1324,954 2026,2611 1976,4657 -55,2054 -862,4260 -2264,6208 -1403,1948 -3241,3412 -5171,4115z"/>
     <path class="fil0" d="M11910 2833c-1061,-763 -2491,-878 -4036,-315 -1544,563 -3010,1733 -4133,3292 -1123,1560 -1768,3320 -1813,4964 -44,1643 517,2964 1578,3727 1060,764 2491,878 4035,316 1545,-563 3010,-1733 4134,-3292 1123,-1560 1768,-3321 1812,-4964 45,-1643 -517,-2964 -1577,-3728zm-4355 11470c-1411,515 -2729,416 -3702,-284 -972,-701 -1483,-1919 -1442,-3421 40,-1502 628,-3121 1658,-4551 1030,-1431 2380,-2501 3791,-3015 1412,-515 2729,-417 3702,284 973,701 1483,1919 1443,3421 -41,1502 -628,3121 -1658,4551 -1031,1431 -2380,2501 -3792,3015z"/>
     <path class="fil0" d="M10507 4781c-703,-506 -1663,-583 -2688,-209 -1026,374 -2003,1149 -2754,2192 -751,1043 -1177,2215 -1206,3306 -36,1100 340,1986 1043,2492 709,511 1663,583 2695,201 1032,-370 2008,-1145 2759,-2188 751,-1043 1177,-2215 1201,-3310 29,-1091 -341,-1973 -1050,-2484zm-2902 7477c-893,325 -1728,261 -2349,-187 -615,-443 -947,-1218 -921,-2168 26,-963 400,-1989 1058,-2903 652,-904 1513,-1593 2412,-1914 899,-334 1739,-266 2354,178 622,447 947,1218 915,2177 -20,954 -400,1989 -1052,2893 -658,914 -1512,1594 -2417,1924z"/>
     <path class="fil0" d="M9111 6720c-352,-253 -835,-287 -1348,-107 -513,194 -1007,584 -1379,1101 -373,517 -586,1109 -607,1657 -9,543 177,991 528,1244 352,253 835,287 1347,106 513,-193 1008,-583 1380,-1100 372,-517 586,-1109 606,-1657 9,-543 -176,-991 -527,-1244zm-1445 3488c-386,141 -743,106 -1007,-84 -264,-190 -410,-518 -399,-929 11,-411 178,-853 458,-1241 279,-388 645,-686 1031,-827 387,-141 744,-106 1008,84 263,190 410,518 399,929 -11,411 -179,853 -458,1241 -273,392 -646,686 -1032,827z"/>
    </g>
   </g>
   <path class="fil1" d="M23069 18613l4 -55c-91,-6 -186,-9 -279,-8l0 56c92,-1 185,1 275,7zm-875 57c88,-18 179,-33 271,-43l-6 -55c-94,11 -187,25 -277,44l12 54zm1471 42l15 -53c-88,-24 -180,-45 -274,-61l-9 54c92,16 182,37 268,60zm-2042 148c78,-38 164,-73 253,-103l-18 -53c-91,31 -179,67 -260,107l25 49zm2595 87l29 -48c-76,-47 -160,-90 -250,-129l-22 51c88,38 169,80 243,126zm-3066 274c51,-67 116,-130 192,-190l-34 -43c-80,62 -148,129 -202,199l44 34zm3470 149l50 -23c-36,-82 -90,-161 -160,-235l-41 38c66,70 117,144 151,220zm-3600 513l50 -24c-40,-83 -61,-168 -61,-255 0,-32 3,-65 9,-97l-55 -9c-6,35 -9,71 -9,106 0,95 22,189 66,279zm3600 72c55,-86 88,-177 101,-268l-55 -8c-12,84 -43,167 -93,246l47 30zm-3165 366l29 -47c-82,-50 -156,-104 -218,-161l-38 41c66,60 142,116 227,167zm2700 40c87,-47 167,-99 236,-155l-35 -43c-66,53 -143,104 -227,149l26 49zm-2130 195l15 -54c-91,-24 -179,-53 -261,-85l-20 52c84,33 174,62 266,87zm1553 19c93,-22 183,-48 269,-78l-19 -53c-83,30 -172,56 -263,77l13 54zm-945 77l3 -55c-92,-6 -184,-15 -273,-29l-9 55c91,14 185,23 279,29zm335 4c94,-4 188,-11 279,-22l-7 -55c-89,11 -181,18 -274,21l2 56z"/>
   <path class="fil1" d="M14983 13468l5 -55c-92,-7 -186,-12 -279,-13l-1 55c92,2 185,6 275,13zm-880 17c90,-10 183,-18 274,-23l-3 -56c-93,5 -186,13 -278,24l7 55zm1480 72l12 -54c-89,-20 -181,-38 -274,-52l-9 55c92,14 183,31 271,51zm-2075 43c87,-24 177,-45 268,-64l-11 -54c-92,18 -184,40 -272,64l15 54zm2652 139l21 -52c-84,-35 -172,-67 -262,-96l-17 52c89,29 175,61 258,96zm-3218 73c80,-40 164,-77 252,-110l-20 -52c-89,34 -175,72 -256,112l24 50zm3741 223l34 -44c-71,-54 -150,-107 -234,-155l-28 48c82,47 159,98 228,151zm-4237 114c63,-60 134,-118 213,-172l-32 -45c-81,55 -154,115 -219,177l38 40zm4621 336l50 -24c-38,-81 -91,-161 -155,-238l-42 36c61,73 111,149 147,226zm-4931 161c21,-83 56,-166 105,-246l-48 -29c-51,85 -89,173 -111,262l54 13zm5033 428c23,-79 36,-160 36,-241 0,-14 -1,-28 -2,-42l-55 3c1,13 1,26 1,39 0,75 -11,151 -33,225l53 16zm-5063 40l53 -19c-31,-86 -46,-174 -46,-262l-56 0c0,94 17,189 49,281zm4718 471c73,-66 137,-136 190,-208l-45 -33c-50,69 -112,136 -183,200l38 41zm-4355 28l37 -42c-73,-63 -136,-128 -189,-196l-44 35c55,70 121,138 196,203zm3838 309c87,-42 170,-87 246,-135l-29 -47c-75,47 -156,91 -241,132l24 50zm-3315 17l23 -50c-86,-40 -168,-83 -243,-128l-28 48c77,46 160,90 248,130zm2737 191c91,-24 181,-51 267,-81l-18 -52c-85,29 -173,56 -263,80l14 53zm-2157 11l14 -54c-90,-23 -179,-49 -264,-77l-18 52c86,29 177,55 268,79zm1553 99c93,-10 186,-23 276,-39l-9 -54c-89,15 -181,28 -273,38l6 55zm-947 4l5 -55c-92,-9 -184,-21 -273,-36l-9 55c90,15 183,27 277,36zm453 23c54,0 107,-1 160,-3l-2 -56c-91,3 -184,4 -276,1l-1 56c39,1 79,1 119,2z"/>
   <path class="fil1" d="M21253 9917l4 -55c-92,-7 -185,-11 -279,-13l-1 56c93,1 185,5 276,12zm-881 17c90,-10 183,-18 275,-23l-3 -56c-93,6 -187,14 -278,24l6 55zm1480 72l12 -54c-89,-20 -182,-37 -274,-52l-9 55c92,14 183,31 271,51zm-2075 43c87,-24 177,-45 268,-63l-10 -55c-93,19 -184,40 -272,64l14 54zm2652 139l21 -51c-83,-36 -172,-68 -262,-97l-17 53c89,28 176,60 258,95zm-3217 73c79,-39 164,-76 251,-110l-19 -52c-90,34 -176,72 -257,112l25 50zm3740 224l34 -44c-71,-55 -150,-107 -234,-156l-28 48c83,48 159,98 228,152zm-4236 113c62,-60 134,-117 212,-171l-32 -46c-80,56 -154,115 -219,177l39 40zm4621 336l50 -24c-39,-81 -91,-161 -155,-237l-43 35c61,73 111,149 148,226zm-4932 161c21,-83 56,-166 105,-246l-47 -29c-52,85 -89,173 -111,262l53 13zm5033 428c24,-79 36,-160 36,-241 0,-14 0,-28 -1,-42l-56 3c1,13 1,26 1,39 0,76 -11,151 -33,225l53 16zm-5062 40l52 -19c-30,-86 -46,-174 -46,-262l-55 0c0,95 16,189 49,281zm4717 472c73,-67 137,-137 190,-209l-45 -33c-50,69 -112,137 -182,201l37 41zm-4354 27l36 -42c-72,-62 -136,-128 -189,-195l-44 34c56,70 122,139 197,203zm3838 309c87,-41 169,-87 246,-134l-30 -47c-74,46 -155,90 -240,131l24 50zm-3316 17l23 -50c-86,-39 -167,-82 -243,-128l-28 48c77,46 160,90 248,130zm2737 192c92,-24 182,-52 268,-82l-18 -52c-85,29 -174,56 -264,80l14 54zm-2156 10l13 -54c-90,-23 -179,-49 -264,-77l-17 52c86,29 176,56 268,79zm1552 99c94,-10 187,-23 277,-38l-10 -55c-89,16 -180,28 -273,38l6 55zm-947 5l5 -56c-92,-9 -184,-21 -273,-35l-9 54c90,15 184,27 277,37zm453 22c54,0 107,-1 160,-3l-2 -55c-91,3 -184,3 -275,1l-2 55c40,1 79,2 119,2z"/>
   <path class="fil1" d="M8992 16852l4 -55c-92,-7 -186,-11 -279,-13l-1 56c92,1 185,5 276,12zm-881 18c90,-11 183,-19 274,-24l-3 -55c-93,5 -186,13 -278,23l7 56zm1480 71l12 -54c-89,-20 -181,-37 -274,-52l-9 55c92,14 183,32 271,51zm-2075 43c87,-24 177,-45 268,-63l-11 -55c-92,19 -184,40 -272,64l15 54zm2652 139l21 -51c-84,-35 -172,-68 -262,-97l-17 53c89,28 175,60 258,95zm-3218 73c80,-39 164,-76 252,-110l-20 -52c-89,34 -175,72 -256,112l24 50zm3741 224l34 -44c-71,-55 -150,-107 -234,-156l-28 48c82,48 159,99 228,152zm-4237 113c63,-60 134,-117 213,-171l-32 -46c-81,56 -154,115 -219,177l38 40zm4621 336l51 -24c-39,-81 -92,-161 -156,-237l-42 35c61,73 111,149 147,226zm-4931 161c21,-83 56,-166 105,-246l-48 -29c-51,85 -89,173 -111,262l54 13zm5033 428c24,-79 36,-160 36,-241 0,-14 -1,-28 -1,-42l-56 3c1,13 1,26 1,39 0,76 -11,151 -33,225l53 16zm-5063 40l53 -19c-31,-86 -46,-174 -46,-262l-56 0c0,95 17,189 49,281zm4718 472c73,-67 137,-137 190,-209l-45 -33c-50,69 -112,137 -183,201l38 41zm-4355 27l37 -42c-73,-62 -136,-128 -189,-195l-44 34c56,70 122,139 196,203zm3838 309c87,-41 170,-87 246,-134l-29 -47c-74,46 -155,90 -240,131l23 50zm-3315 18l23 -51c-86,-39 -168,-82 -243,-127l-28 47c77,46 160,90 248,131zm2737 191c91,-24 181,-52 268,-82l-19 -52c-85,29 -173,56 -263,80l14 54zm-2156 10l13 -54c-90,-23 -179,-49 -264,-77l-18 53c87,28 177,55 269,78zm1552 100c93,-11 186,-24 277,-39l-10 -55c-89,16 -181,28 -273,38l6 56zm-947 4l5 -56c-92,-9 -184,-21 -273,-35l-9 54c90,15 183,27 277,37zm453 22c54,0 107,-1 160,-3l-2 -55c-91,3 -184,3 -276,1l-1 55c39,1 79,2 119,2z"/>
   <path class="fil1" d="M10656 10916l4 -55c-91,-7 -185,-12 -278,-13l-1 55c92,2 185,6 275,13zm-881 17c91,-11 183,-18 275,-24l-3 -55c-93,5 -187,13 -278,24l6 55zm1480 72l12 -54c-89,-20 -181,-38 -274,-52l-8 55c91,14 182,31 270,51zm-2075 42c87,-23 178,-45 269,-63l-11 -54c-93,18 -184,40 -272,64l14 53zm2652 139l22 -51c-84,-35 -172,-67 -263,-96l-17 52c89,29 176,61 258,95zm-3217 74c79,-40 164,-77 252,-110l-20 -52c-90,34 -176,72 -257,112l25 50zm3740 223l34 -44c-71,-54 -149,-107 -234,-155l-28 48c83,47 159,98 228,151zm-4236 114c62,-60 134,-118 212,-172l-32 -45c-80,55 -154,115 -219,176l39 41zm4621 336l50 -24c-39,-82 -91,-161 -155,-238l-43 36c61,73 111,149 148,226zm-4931 161c20,-84 56,-167 104,-247l-47 -28c-52,84 -89,173 -111,261l54 14zm5032 428c24,-79 36,-160 36,-241 0,-14 0,-28 -1,-42l-55 3c0,12 1,26 1,39 0,75 -12,151 -34,225l53 16zm-5062 39l52 -18c-30,-86 -46,-174 -46,-262l-55 0c0,94 16,189 49,280zm4717 472c74,-66 138,-136 190,-208l-44 -33c-51,69 -112,136 -183,200l37 41zm-4354 28l36 -42c-72,-63 -136,-128 -189,-196l-43 35c55,70 121,138 196,203zm3838 309c87,-42 170,-87 246,-135l-29 -47c-75,47 -156,91 -241,132l24 50zm-3316 17l23 -50c-85,-40 -167,-83 -242,-128l-29 48c77,46 160,90 248,130zm2737 191c92,-24 182,-51 268,-81l-18 -53c-85,30 -174,57 -264,81l14 53zm-2156 10l14 -53c-91,-23 -180,-49 -265,-77l-17 52c86,29 176,55 268,78zm1553 100c93,-10 186,-23 276,-39l-10 -54c-88,15 -180,28 -272,38l6 55zm-948 4l5 -55c-92,-9 -184,-21 -273,-36l-9 55c91,15 184,27 277,36zm453 22c54,0 107,-1 160,-2l-1 -56c-92,3 -185,4 -276,1l-2 56c40,1 79,1 119,1z"/>
   <path class="fil1" d="M16426 7365l4 -55c-91,-7 -185,-12 -278,-13l-1 55c92,2 185,6 275,13zm-881 17c91,-10 183,-18 275,-23l-3 -56c-93,5 -187,13 -278,24l6 55zm1480 72l13 -54c-90,-20 -182,-38 -275,-52l-8 55c91,14 182,31 270,51zm-2075 43c87,-24 177,-45 268,-63l-10 -55c-93,19 -184,40 -272,64l14 54zm2652 139l22 -51c-84,-36 -172,-68 -263,-97l-17 53c89,28 176,60 258,95zm-3217 73c79,-40 164,-77 252,-110l-20 -52c-90,34 -176,72 -257,112l25 50zm3740 223l34 -44c-71,-54 -150,-106 -234,-155l-28 48c83,47 159,98 228,151zm-4236 114c62,-60 134,-117 212,-171l-31 -46c-81,55 -155,115 -220,177l39 40zm4621 336l50 -24c-39,-81 -91,-161 -155,-237l-42 35c60,73 110,149 147,226zm-4931 161c20,-83 55,-166 104,-246l-47 -29c-52,85 -89,173 -111,262l54 13zm5032 428c24,-79 36,-160 36,-241 0,-14 0,-28 -1,-42l-55 3c0,13 1,26 1,39 0,75 -12,151 -34,225l53 16zm-5062 40l52 -19c-30,-86 -46,-174 -46,-262l-55 0c0,94 16,189 49,281zm4717 472c73,-67 138,-137 190,-209l-44 -33c-51,69 -112,137 -183,200l37 42zm-4354 27l36 -42c-72,-62 -136,-128 -189,-195l-43 34c55,70 121,138 196,203zm3838 309c87,-42 170,-87 246,-134l-30 -48c-74,47 -155,91 -240,132l24 50zm-3316 17l23 -50c-85,-40 -167,-83 -242,-128l-29 48c77,46 161,90 248,130zm2738 191c91,-24 181,-51 267,-81l-18 -52c-85,29 -173,56 -264,80l15 53zm-2157 11l14 -54c-91,-23 -180,-49 -265,-77l-17 52c86,29 176,56 268,79zm1552 99c93,-10 186,-23 277,-39l-10 -54c-89,15 -181,28 -273,38l6 55zm-947 5l6 -56c-92,-9 -184,-21 -274,-36l-9 55c91,15 184,27 277,37zm453 22c54,0 108,-1 160,-3l-2 -56c-91,3 -184,4 -275,2l-2 55c40,1 80,2 119,2z"/>
   <path class="fil2" d="M8496 13050l0 -269 78 46 0 268 -1 0c1,46 17,79 43,94l-78 -45c-26,-15 -42,-48 -43,-95l1 1z"/>
   <path class="fil3" d="M13998 5202l1499 -844c20,-11 38,-13 54,-7 2,1 3,1 5,2 2,1 4,1 5,2 2,0 4,1 6,2 2,0 4,1 5,1 2,1 4,2 6,2 1,1 3,1 5,2 2,1 4,1 5,2 2,0 4,1 6,2 2,0 3,1 5,1 2,1 4,2 6,2 1,1 3,1 5,2 2,1 4,1 5,2 2,0 4,1 6,2 2,0 3,1 5,1 2,1 4,1 5,2 2,1 4,1 6,2 2,0 4,1 5,2 2,0 4,1 6,2 2,0 3,1 5,1 2,1 4,1 5,2 2,1 4,1 6,2 2,0 3,1 5,2 2,0 4,1 6,2 1,0 3,1 5,1 2,1 4,1 5,2 2,1 4,1 6,2 2,0 3,1 5,2 2,0 4,1 6,2 1,0 3,1 5,1 2,1 4,1 5,2 35,10 59,58 59,130l0 1363c0,102 -48,213 -107,248l-213 127 0 417 -5 -5 0 3 -6 -5 0 3 -5 -5 0 3 -5 -4 0 3 -6 -5 0 3 -5 -5 0 3 -6 -5 0 3 -5 -5 0 3 -5 -4 0 3 -6 -5 0 3 -5 -5 0 3 -6 -5 0 3 -5 -5 0 3 -5 -4 0 3 -6 -5 0 3 -5 -5 0 3 -5 -5 0 3 -6 -5 0 3 -5 -4 0 3 -6 -5 0 3 -5 -5 0 3 -5 -5 0 3 -6 -5 0 3 -5 -4 0 3 -6 -5 0 3 -5 -5 0 3 -5 -5 0 3 -6 -5 0 3 -5 -4 0 3 -6 -5 0 3 -5 -5 0 3 -176 -158 -981 514c-19,11 -37,13 -53,7 -2,-1 -4,-2 -5,-2 -2,-1 -4,-1 -6,-2 -107,-43 -172,-41 -172,-180l0 -1364c0,-101 48,-212 107,-247z"/>
   <path class="fil4" d="M14127 5257l1537 -843c59,-35 107,19 107,121l0 1363c0,102 -48,213 -107,248l-213 127 0 417 -280 -252 -1044 552c-59,35 -107,-19 -107,-121l0 -1364c0,-102 48,-213 107,-248z"/>
   <path class="fil2" d="M15204 5587c0,53 25,82 56,63 31,-18 56,-76 56,-130 0,-53 -25,-82 -56,-63 -31,18 -56,76 -56,130z"/>
   <path class="fil2" d="M14870 5784c0,54 26,82 57,64 31,-18 56,-77 56,-130 0,-54 -25,-82 -56,-64 -31,19 -57,77 -57,130z"/>
   <path class="fil2" d="M14537 5982c0,53 25,82 57,63 31,-18 56,-76 56,-130 0,-53 -25,-82 -56,-63 -32,18 -57,76 -57,130z"/>
   <path class="fil3" d="M8449 8340l1500 -844c19,-11 38,-13 53,-7 2,1 4,1 6,2 2,1 3,1 5,2 2,0 4,1 5,2 2,0 4,1 6,1 2,1 3,2 5,2 2,1 4,1 6,2 2,1 3,1 5,2 2,0 4,1 5,2 2,0 4,1 6,1 2,1 3,1 5,2 2,1 4,1 6,2 1,0 3,1 5,2 2,0 4,1 5,2 2,0 4,1 6,1 2,1 3,1 5,2 2,1 4,1 6,2 1,0 3,1 5,2 2,0 4,1 5,2 2,0 4,1 6,1 2,1 3,1 5,2 2,1 4,1 5,2 2,0 4,1 6,2 2,0 3,1 5,2 2,0 4,1 6,1 1,1 3,1 5,2 2,1 4,1 5,2 2,0 4,1 6,2 2,0 3,1 5,2 2,0 4,1 6,1 1,1 3,1 5,2 35,10 59,58 59,130l0 1363c0,102 -48,213 -107,248l-213 126 0 418 -6 -5 0 3 -5 -5 0 3 -5 -5 0 3 -6 -5 0 3 -5 -4 0 3 -6 -5 0 3 -5 -5 0 3 -5 -5 0 3 -6 -5 0 4 -5 -5 0 3 -6 -5 0 3 -5 -5 0 3 -5 -5 0 3 -6 -4 0 3 -5 -5 0 3 -5 -5 0 3 -6 -5 0 3 -5 -5 0 3 -6 -4 0 3 -5 -5 0 3 -5 -5 0 3 -6 -5 0 3 -5 -5 0 3 -6 -4 0 3 -5 -5 0 3 -5 -5 0 3 -6 -5 0 3 -5 -5 0 3 -6 -4 0 3 -5 -5 0 3 -5 -5 0 3 -176 -158 -981 514c-19,11 -38,13 -53,7 -2,-1 -4,-2 -6,-2 -2,-1 -3,-1 -5,-2 -107,-43 -173,-41 -173,-180l0 -1364c0,-101 48,-212 107,-247z"/>
   <path class="fil4" d="M8579 8395l1537 -843c59,-35 107,19 107,121l0 1363c0,102 -48,213 -107,248l-213 127 0 417 -280 -252 -1044 552c-59,35 -107,-19 -107,-121l0 -1364c0,-102 48,-213 107,-248z"/>
   <path class="fil2" d="M9655 8725c0,53 25,82 56,63 32,-18 57,-76 57,-130 0,-53 -25,-82 -57,-63 -31,18 -56,76 -56,130z"/>
   <path class="fil2" d="M9322 8922c0,54 25,82 56,64 31,-19 57,-77 57,-130 0,-54 -26,-82 -57,-64 -31,19 -56,77 -56,130z"/>
   <path class="fil2" d="M8989 9120c0,53 25,82 56,63 31,-18 56,-76 56,-130 0,-53 -25,-82 -56,-63 -31,18 -56,76 -56,130z"/>
   <path class="fil3" d="M19600 6969l1500 -843c20,-12 38,-14 54,-7 1,0 3,1 5,1 2,1 3,1 5,2 2,1 4,1 6,2 1,1 3,1 5,2 2,0 4,1 5,2 2,0 4,1 6,1 2,1 3,1 5,2 2,1 4,1 6,2 1,0 3,1 5,2 2,0 4,1 5,2 2,0 4,1 6,1 2,1 3,1 5,2 2,1 4,1 6,2 1,0 3,1 5,2 2,0 4,1 5,2 2,0 4,1 6,1 2,1 3,1 5,2 2,1 4,1 5,2 2,0 4,1 6,2 2,0 3,1 5,2 2,0 4,1 6,1 1,1 3,1 5,2 2,1 4,1 5,2 2,0 4,1 6,2 2,0 3,1 5,2 2,0 4,1 6,1 1,1 3,1 5,2 2,1 4,1 5,2 2,0 4,1 6,2 2,0 3,1 5,1 35,10 59,58 59,130l0 1364c0,102 -48,212 -107,248l-213 126 0 417 -6 -5 0 3 -5 -5 0 4 -5 -5 0 3 -6 -5 0 3 -5 -5 0 3 -5 -5 0 3 -6 -5 0 4 -5 -5 0 3 -6 -5 0 3 -5 -5 0 3 -5 -5 0 3 -6 -5 0 4 -5 -5 0 3 -6 -5 0 3 -5 -5 0 3 -5 -5 0 3 -6 -5 0 4 -5 -5 0 3 -5 -5 0 3 -6 -5 0 3 -5 -5 0 3 -6 -4 0 3 -5 -5 0 3 -5 -5 0 3 -6 -5 0 3 -5 -5 0 3 -6 -4 0 3 -5 -5 0 3 -5 -5 0 3 -6 -5 0 3 -5 -5 0 3 -176 -158 -981 514c-19,12 -37,13 -53,7 -2,-1 -4,-1 -6,-2 -1,0 -3,-1 -5,-2 -107,-43 -173,-41 -173,-180l0 -1363c0,-102 48,-213 107,-248z"/>
   <path class="fil4" d="M19730 7025l1537 -844c59,-35 107,19 107,121l0 1364c0,102 -48,213 -107,248l-213 126 0 417 -280 -251 -1044 551c-59,35 -107,-19 -107,-121l0 -1364c0,-101 48,-212 107,-247z"/>
   <path class="fil2" d="M20806 7354c0,54 26,82 57,64 31,-19 56,-77 56,-130 0,-54 -25,-82 -56,-64 -31,19 -57,77 -57,130z"/>
   <path class="fil2" d="M20473 7552c0,53 25,82 56,63 32,-18 57,-76 57,-130 0,-53 -25,-82 -57,-63 -31,18 -56,76 -56,130z"/>
   <path class="fil2" d="M20140 7749c0,54 25,82 56,64 31,-19 57,-77 57,-130 0,-54 -26,-82 -57,-64 -31,18 -56,77 -56,130z"/>
   <path class="fil3" d="M13609 10242l1499 -843c20,-12 38,-13 54,-7 1,0 3,1 5,2 2,0 4,1 5,2 2,0 4,1 6,1 2,1 3,1 5,2 2,1 4,1 5,2 2,0 4,1 6,2 2,0 4,1 5,2 2,0 4,1 6,1 2,1 3,1 5,2 2,1 4,1 5,2 2,0 4,1 6,2 2,0 3,1 5,2 2,0 4,1 6,1 1,1 3,1 5,2 2,1 4,1 5,2 2,0 4,1 6,2 2,0 3,1 5,2 2,0 4,1 6,1 1,1 3,1 5,2 2,1 4,1 5,2 2,0 4,1 6,2 2,0 3,1 5,1 2,1 4,2 5,2 2,1 4,1 6,2 2,1 3,1 5,2 2,0 4,1 6,2 1,0 3,1 5,1 2,1 4,2 5,2 2,1 4,1 6,2 2,1 3,1 5,2 35,9 59,57 59,129l0 1364c0,102 -48,213 -107,248l-213 126 0 417 -5 -4 0 3 -6 -5 0 3 -5 -5 0 3 -6 -5 0 3 -5 -5 0 3 -5 -4 0 3 -6 -5 0 3 -5 -5 0 3 -6 -5 0 3 -5 -5 0 4 -5 -5 0 3 -6 -5 0 3 -5 -5 0 3 -5 -5 0 3 -6 -5 0 4 -5 -5 0 3 -6 -5 0 3 -5 -5 0 3 -5 -5 0 3 -6 -5 0 4 -5 -5 0 3 -6 -5 0 3 -5 -5 0 3 -5 -5 0 3 -6 -5 0 4 -5 -5 0 3 -5 -5 0 3 -6 -5 0 3 -5 -5 0 3 -6 -4 0 3 -5 -5 0 3 -176 -158 -981 513c-19,12 -37,14 -53,7 -2,0 -4,-1 -6,-1 -1,-1 -3,-2 -5,-2 -107,-43 -172,-42 -172,-180l0 -1364c0,-102 47,-213 107,-248z"/>
   <path class="fil4" d="M13738 10298l1537 -843c59,-35 107,19 107,120l0 1364c0,102 -48,213 -107,248l-213 126 0 417 -280 -251 -1044 551c-59,35 -107,-19 -107,-120l0 -1364c0,-102 48,-213 107,-248z"/>
   <path class="fil2" d="M14814 10628c0,53 26,82 57,63 31,-18 56,-76 56,-130 0,-54 -25,-82 -56,-64 -31,19 -57,77 -57,131z"/>
   <path class="fil2" d="M14481 10825c0,54 25,82 57,64 31,-19 56,-77 56,-131 0,-53 -25,-82 -56,-63 -32,18 -57,77 -57,130z"/>
   <path class="fil2" d="M14148 11023c0,53 25,82 56,63 31,-18 57,-77 57,-130 0,-54 -26,-82 -57,-64 -31,19 -56,77 -56,131z"/>
   <path class="fil3" d="M7229 13610l1499 -843c20,-12 38,-13 54,-7 2,0 3,1 5,2 2,0 4,1 6,1 1,1 3,2 5,2 2,1 4,1 5,2 2,1 4,1 6,2 2,0 3,1 5,2 2,0 4,1 5,1 2,1 4,2 6,2 2,1 3,1 5,2 2,1 4,1 6,2 1,0 3,1 5,2 2,0 4,1 5,1 2,1 4,2 6,2 2,1 3,1 5,2 2,1 4,1 6,2 1,0 3,1 5,2 2,0 4,1 5,1 2,1 4,1 6,2 2,1 3,1 5,2 2,0 4,1 6,2 1,0 3,1 5,2 2,0 3,1 5,1 2,1 4,1 6,2 1,1 3,1 5,2 2,0 4,1 5,2 2,0 4,1 6,2 2,0 3,1 5,1 2,1 4,1 6,2 1,1 3,1 5,2 2,0 4,1 5,2 35,9 59,57 59,129l0 1364c0,102 -48,213 -107,248l-213 126 0 417 -5 -4 0 3 -6 -5 0 3 -5 -5 0 3 -5 -5 0 3 -6 -5 0 3 -5 -4 0 3 -6 -5 0 3 -5 -5 0 3 -5 -5 0 3 -6 -5 0 3 -5 -4 0 3 -6 -5 0 3 -5 -5 0 3 -5 -5 0 3 -6 -5 0 3 -5 -4 0 3 -5 -5 0 3 -6 -5 0 3 -5 -5 0 3 -6 -5 0 3 -5 -4 0 3 -5 -5 0 3 -6 -5 0 3 -5 -5 0 3 -6 -5 0 3 -5 -4 0 3 -5 -5 0 3 -6 -5 0 3 -5 -5 0 3 -5 -5 0 4 -6 -5 0 3 -176 -158 -981 513c-19,12 -37,14 -53,7 -2,0 -4,-1 -5,-2 -2,0 -4,-1 -6,-1 -107,-43 -172,-42 -172,-180l0 -1364c0,-102 48,-213 107,-248z"/>
   <path class="fil4" d="M7358 13666l1537 -844c59,-35 107,20 107,121l0 1364c0,102 -48,213 -107,248l-213 126 0 417 -280 -251 -1044 551c-59,35 -107,-19 -107,-121l0 -1363c0,-102 48,-213 107,-248z"/>
   <path class="fil2" d="M8435 13996c0,53 25,82 56,63 31,-18 56,-77 56,-130 0,-54 -25,-82 -56,-64 -31,19 -56,77 -56,131z"/>
   <path class="fil2" d="M8101 14193c0,54 26,82 57,64 31,-19 56,-77 56,-131 0,-53 -25,-82 -56,-63 -31,18 -57,77 -57,130z"/>
   <path class="fil2" d="M7768 14390c0,54 25,82 57,64 31,-18 56,-77 56,-130 0,-54 -25,-82 -56,-64 -32,19 -57,77 -57,130z"/>
   <path class="fil1" d="M10900 13895l46 -31 -154 -231 -46 31 154 231zm338 507l46 -30 -154 -231 -46 31 154 230zm339 508l46 -30 -154 -231 -46 30 154 231zm338 508l46 -31 -154 -231 -46 31 154 231zm339 508l46 -31 -154 -231 -46 31 154 231zm4279 109l30 -47 -219 -139 -30 47 219 139zm516 326l29 -47 -234 -148 -30 47 235 148zm-4457 73l46 -31 -154 -231 -46 31 154 231zm4972 254l30 -47 -234 -149 -30 47 234 149zm-4633 253l46 -30 -154 -231 -46 31 154 230zm5149 73l30 -47 -235 -148 -30 47 235 148zm515 327l30 -47 -234 -149 -30 47 234 149zm-5243 23l12 -54 -141 -30 -61 -92 -47 30 75 112 162 34zm597 127l12 -54 -272 -58 -11 55 271 57zm597 127l12 -54 -272 -58 -11 54 271 58zm4565 49l30 -47 -235 -148 -29 47 234 148zm-3968 78l12 -55 -272 -57 -11 54 271 58zm597 126l11 -54 -271 -57 -11 54 271 57zm3887 123l29 -47 -234 -149 -30 47 235 149zm-3290 4l11 -54 -271 -58 -11 55 271 57zm597 127l12 -54 -272 -58 -11 54 271 58zm597 127l12 -55 -272 -57 -11 54 271 58zm2611 68l30 -47 -235 -148 -29 47 234 148zm-2014 58l11 -54 -271 -57 -11 54 271 57zm597 127l11 -54 -271 -58 -11 55 271 57zm597 127l11 -54 -271 -58 -11 54 271 58zm1336 15l29 -47 -234 -148 -30 46 235 149zm-739 112l11 -55 -271 -57 -11 54 271 58zm597 127l11 -55 -271 -57 -11 54 271 58zm657 87l30 -47 -234 -148 -30 47 234 148zm-60 39l11 -54 -271 -58 -12 55 272 57z"/>
   <path class="fil1" d="M17204 10310l53 -17 -85 -264 -53 17 85 264zm186 581l53 -17 -85 -264 -53 17 85 264zm186 581l53 -17 -85 -264 -53 17 85 264zm186 582l53 -17 -85 -264 -53 16 85 265zm186 581l53 -17 -85 -264 -53 17 85 264zm255 557l49 -25 -129 -246 -49 26 129 245zm284 540l49 -25 -129 -246 -49 26 129 245zm285 540l49 -26 -129 -245 -49 26 129 245zm284 540l49 -26 -129 -245 -49 26 129 245zm285 540l49 -26 -130 -245 -49 26 130 245zm284 540l49 -26 -129 -245 -49 26 129 245zm285 540l49 -26 -130 -245 -49 26 130 245zm284 540l49 -26 -129 -245 -49 26 129 245zm284 540l50 -26 -130 -245 -49 26 129 245zm285 540l49 -26 -129 -245 -49 26 129 245zm284 540l49 -26 -129 -245 -49 26 129 245zm154 462l103 -1 16 -25 11 -17 -79 -150 -49 26 58 111 -61 0 1 56zm-610 6l277 -3 0 -55 -278 3 1 55zm-611 7l278 -3 -1 -56 -277 3 0 56zm-610 6l278 -3 -1 -55 -277 2 0 56zm-610 6l277 -3 0 -55 -278 3 1 55zm-610 7l277 -3 0 -56 -278 3 1 56zm-611 6l278 -3 -1 -55 -277 2 0 56zm-610 6l278 -3 -1 -55 -277 3 0 55zm-610 6l277 -2 0 -56 -278 3 1 55zm-610 7l277 -3 0 -56 -278 3 1 56zm-611 6l278 -3 -1 -55 -277 3 0 55zm-610 7l278 -3 -1 -56 -277 3 0 56zm-610 6l277 -3 0 -56 -278 3 1 56zm-610 6l277 -3 -1 -55 -277 3 1 55zm-611 6l278 -2 -1 -56 -277 3 0 55zm-610 7l278 -3 -1 -56 -277 3 0 56zm-610 6l277 -3 0 -55 -278 3 1 55zm-610 6l277 -2 -1 -56 -277 3 1 55z"/>
   <path class="fil1" d="M21503 12984l8 -277 -56 -2 -7 278 55 1zm-16 610l8 -277 -56 -2 -7 278 55 1zm-16 610l8 -277 -56 -2 -7 278 55 1zm-16 610l7 -277 -55 -2 -7 278 55 1zm-16 610l7 -277 -55 -2 -7 278 55 1zm-16 610l7 -277 -55 -1 -7 277 55 1zm-16 610l7 -277 -55 -1 -7 277 55 1zm-16 610l7 -277 -55 -1 -8 277 56 1zm-16 611l7 -278 -55 -1 -8 277 56 2zm-16 610l7 -278 -55 -1 -8 277 56 2zm-15 556l6 -224 -55 -1 -6 224 55 1z"/>
   <path class="fil5" d="M20464 12707l1669 -938c21,-13 42,-15 59,-8 2,1 4,1 6,2 2,1 4,1 6,2 2,1 4,1 6,2 2,1 4,1 6,2 2,1 4,1 6,2 2,1 4,1 6,2 2,1 4,1 6,2 2,1 4,1 6,2 2,1 4,1 6,2 2,1 4,1 6,2 2,1 4,1 6,2 2,1 4,1 6,2 2,1 4,1 6,2 2,1 4,1 6,2 2,1 4,1 6,2 2,1 4,1 6,2 2,1 4,1 6,2 2,1 4,1 6,2 2,1 4,1 6,2 2,1 4,1 6,2 2,1 4,1 6,2 2,1 4,1 6,2 2,1 4,1 6,2 2,1 4,1 6,2 2,1 4,1 6,2 2,1 4,1 6,2 2,1 4,1 6,2 2,1 4,1 6,2 2,1 4,1 6,2 2,1 4,1 6,2 39,11 66,64 66,144l0 1518c0,113 -54,236 -120,275l-237 141 0 464 -6 -5 0 3 -6 -5 0 3 -6 -5 0 3 -6 -5 0 3 -6 -5 0 3 -6 -5 0 3 -6 -5 0 3 -6 -5 0 3 -6 -5 0 3 -6 -5 0 3 -6 -5 0 3 -6 -5 0 3 -6 -5 0 3 -6 -5 0 3 -6 -5 0 3 -6 -5 0 3 -6 -5 0 3 -6 -5 0 3 -6 -5 0 3 -6 -5 0 3 -6 -5 0 3 -6 -5 0 3 -6 -5 0 3 -6 -5 0 3 -6 -5 0 3 -6 -5 0 3 -6 -5 0 3 -6 -5 0 3 -6 -5 0 3 -6 -5 0 3 -6 -5 0 3 -195 -176 -1092 572c-21,13 -42,14 -59,7 -2,0 -4,-1 -6,-2 -2,0 -4,-1 -6,-2 -119,-48 -192,-45 -192,-200l0 -1517c0,-113 53,-237 119,-276z"/>
   <path class="fil1" d="M20608 12769l1710 -938c66,-39 120,21 120,134l0 1518c0,113 -54,236 -120,275l-237 141 0 464 -311 -280 -1162 614c-65,39 -119,-22 -119,-135l0 -1517c0,-113 54,-237 119,-276z"/>
   <path class="fil2" d="M21806 13136c0,60 28,91 62,71 35,-21 63,-86 63,-145 0,-60 -28,-91 -63,-71 -34,21 -62,85 -62,145z"/>
   <path class="fil2" d="M21435 13356c0,59 28,91 63,70 34,-20 62,-85 62,-144 0,-60 -28,-92 -62,-71 -35,20 -63,85 -63,145z"/>
   <path class="fil2" d="M21064 13575c0,60 28,92 63,71 35,-20 63,-85 63,-145 0,-59 -28,-91 -63,-70 -35,20 -63,85 -63,144z"/>
   <polygon class="fil6" points="22878,15079 22885,14937 22424,15058 22367,15207 "/>
   <g>
    <path class="fil6" d="M21999 19504c1,27 -18,49 -43,50 -24,1 -45,-20 -45,-47 -1,-27 18,-49 43,-50 24,0 45,21 45,47z"/>
    <path class="fil6" d="M22074 18218c1,36 29,65 62,64 33,-1 59,-31 58,-67 -1,-36 -29,-65 -62,-64 -33,1 -59,31 -58,67z"/>
    <path class="fil6" d="M22392 14942c1,35 -24,64 -56,65 -32,1 -59,-26 -60,-61 -1,-36 24,-65 56,-66 32,0 59,27 60,62z"/>
    <path class="fil7" d="M23094 15495c15,0 28,-12 28,-28 0,-15 -13,-28 -28,-28 -15,0 -28,13 -28,28 0,15 12,28 28,28z"/>
    <path class="fil8" d="M22210 14970l1230 8c149,1 269,123 268,271l-11 1888c-1,149 -123,269 -272,268l-1230 -7c-149,-1 -269,-123 -268,-272l12 -1888c0,-148 123,-269 271,-268z"/>
    <path class="fil9" d="M22239 15051l1171 7c120,1 218,100 217,220l-11 1829c-1,120 -100,218 -220,217l-1171 -7c-120,-1 -218,-100 -217,-220l11 -1829c1,-120 100,-218 220,-217z"/>
    <path class="fil10" d="M22334 16611c-12,89 -131,375 -159,515 -25,125 -168,1426 -36,1474 53,20 524,105 551,17 105,-343 -11,-1150 136,-1152 110,-2 70,464 90,837 6,116 18,223 42,305 26,89 497,9 551,-10 111,-38 -9,-1363 -28,-1463 -26,-140 -142,-427 -152,-517l-498 63 -497 -69z"/>
    <path class="fil11" d="M22897 17626c5,43 7,92 9,146l628 -53c-4,-50 -7,-98 -11,-145l-626 52z"/>
    <path class="fil11" d="M22125 17559c-4,47 -9,96 -13,145l633 61c2,-53 5,-103 10,-145l-630 -61z"/>
    <path class="fil10" d="M22509 15406c-11,18 -347,83 -370,100 -22,17 -47,363 -32,403 15,40 28,339 57,439 29,100 38,239 23,369 -16,129 -36,199 -2,259 34,59 497,139 638,148l0 0c141,-7 606,-82 640,-140 7,-12 24,-890 92,-1066 15,-39 -5,-386 -28,-403 -22,-18 -357,-87 -368,-105l-325 21 -325 -25z"/>
    <path class="fil12" d="M23550 16114c-86,309 -69,952 -76,963 -9,16 -51,34 -110,50 -28,3 -64,13 -101,25 -24,5 -49,11 -74,16 82,-49 204,-131 217,-199 22,-109 30,-261 6,-397 -23,-136 30,-500 59,-510 28,-10 61,43 79,52z"/>
    <path class="fil12" d="M22121 16012c11,108 23,268 43,336 29,100 38,239 23,369 -16,129 -36,199 -2,259 9,16 51,34 110,52 28,2 64,13 100,26 24,5 49,11 74,16 -81,-50 -202,-133 -215,-202 -20,-108 -27,-261 -1,-397 27,-135 -43,-452 -93,-469 -7,-3 -20,1 -39,10z"/>
    <path class="fil13" d="M22405 15318c-15,100 -91,111 -180,162 0,0 71,217 207,271 67,26 237,36 407,36 169,2 339,-5 407,-31 136,-53 210,-268 210,-268 -88,-53 -164,-65 -178,-165l-436 -20 -437 15z"/>
    <path class="fil14" d="M23365 15171c34,-32 87,-84 92,-112 9,-42 -4,-272 -18,-308 -13,-31 -99,-91 -122,-110 -94,-219 -289,-317 -483,-326 -198,7 -398,106 -493,335 -35,25 -93,69 -103,94 -15,35 -30,265 -23,307 5,25 46,69 78,101 154,471 885,503 1072,19z"/>
    <path class="fil15" d="M22836 15483c300,2 547,-242 549,-542 1,-300 -242,-547 -542,-549 -301,-1 -547,242 -549,542 -2,301 241,547 542,549z"/>
    <path class="fil16" d="M22843 14392c164,1 312,75 411,192 20,56 30,118 30,181 -2,302 -248,544 -549,542 -165,-1 -312,-75 -411,-191 -20,-57 -30,-118 -30,-182 2,-301 247,-544 549,-542z"/>
    <path class="fil17" d="M22828 14450c120,1 228,48 309,125 -70,-35 -150,-54 -233,-55 -260,-1 -479,181 -532,426 -1,-15 -2,-29 -2,-44 2,-251 206,-453 458,-452z"/>
    <path class="fil10" d="M22225 15540c-29,12 -58,-47 -86,-34 -400,186 -619,450 -619,450 -80,115 4,465 119,447 118,-51 90,-44 493,-274 113,-72 127,-304 93,-589z"/>
    <path class="fil12" d="M21530 16302c28,64 66,108 109,101 118,-51 90,-44 493,-274 27,-17 47,-42 64,-75 -12,-29 -25,-48 -36,-52 -50,-18 -450,299 -531,315 -30,6 -65,3 -99,-15z"/>
    <path class="fil10" d="M21653 16396c-459,244 -364,-776 -362,-972 1,-91 144,-66 312,-92 0,0 245,927 50,1064z"/>
    <path class="fil12" d="M21653 16396c-459,244 -364,-776 -362,-972 0,-18 6,-32 17,-42 28,-14 47,-23 48,-23l0 0c0,1 -7,446 37,686 44,241 155,288 236,272 17,-3 48,-20 87,-44 -11,57 -31,101 -63,123z"/>
    <path class="fil9" d="M22473 15831l691 4c88,1 160,74 160,162l-5 703c0,88 -60,160 -148,159l-704 -4c-88,0 -160,-73 -160,-161l5 -704c0,-88 73,-160 161,-159z"/>
    <path class="fil12" d="M22451 15845l691 5c88,0 160,73 160,161l-5 703c0,76 -44,108 -118,108l-691 -5c-88,0 -160,-73 -159,-161l4 -703c1,-27 7,-52 19,-73 27,-22 62,-35 99,-35z"/>
    <polygon class="fil9" points="22485,16437 22694,16438 22697,15953 22488,15952 "/>
    <polygon class="fil9" points="22900,16300 23153,16301 23154,16167 22901,16165 "/>
    <polygon class="fil9" points="23013,16062 23148,16063 23149,15943 23014,15942 "/>
    <path class="fil9" d="M23033 16628c77,0 140,-62 141,-139 0,-77 -62,-140 -139,-141 -77,0 -140,62 -140,139 -1,77 61,140 138,141z"/>
    <path class="fil11" d="M22334 16470c-1,0 -42,44 -184,243 -122,170 -247,270 -329,301 -42,15 -79,14 -106,-2 -33,-19 -48,-54 -40,-103 11,-68 156,-221 298,-381 26,-26 42,80 1,117 -126,141 -189,225 -198,277 3,-1 6,-2 10,-3 66,-25 173,-113 281,-265 150,-210 265,-292 265,-293l2 109z"/>
    <path class="fil11" d="M22329 16087c-36,-32 -140,-139 -183,-189 -94,-111 -201,-253 -246,-375 -43,-114 -35,-211 79,-254 16,-6 41,24 14,39 -85,32 -90,109 -55,201 43,116 147,254 239,363 43,50 130,126 156,161 -1,9 -1,38 -4,54z"/>
    <path class="fil11" d="M23206 16839c214,273 371,101 436,-97 35,-66 111,-47 64,49 -121,320 -381,333 -596,59 -11,-27 77,-44 96,-11z"/>
    <path class="fil12" d="M22404 17889c141,1 258,91 285,211 17,1 34,3 51,4 36,-1 17,203 -5,196l-87 -7c-52,73 -144,121 -248,120 -120,-1 -223,-66 -267,-159 -16,-1 -33,-3 -49,-4 -39,-2 -28,-208 6,-206 4,0 19,1 43,4 45,-94 149,-160 271,-159z"/>
    <path class="fil12" d="M23233 17893c107,0 201,52 251,129 51,-6 63,-7 66,-7 30,-3 38,251 5,251l-59 1c-47,89 -149,150 -266,149 -99,0 -186,-44 -238,-112 -25,2 -51,4 -76,6 -25,3 -35,-214 -7,-216l39 -7c33,-112 149,-195 285,-194z"/>
    <path class="fil18" d="M23417 17952c27,20 49,43 67,70 51,-6 63,-9 66,-7 2,2 5,251 5,251l-59 1c-19,35 -46,66 -79,90 1,-128 1,-288 0,-405z"/>
    <path class="fil9" d="M22342 17979l149 14c26,3 46,26 43,53l-22 230c-2,26 -26,46 -52,43l-150 -14c-26,-3 -46,-26 -43,-53l22 -230c2,-26 26,-46 53,-43z"/>
    <path class="fil9" d="M23321 17981l-149 12c-27,3 -46,26 -44,53l19 230c2,26 26,46 52,44l149 -12c27,-3 47,-26 44,-53l-19 -230c-2,-26 -25,-46 -52,-44z"/>
    <path class="fil12" d="M22539 17400l231 135c6,-21 13,-38 21,-50 -30,-20 -74,-50 -125,-84 -38,-26 -79,-53 -122,-82 -139,-94 -291,-195 -358,-237 -5,16 -8,30 -11,44 -2,10 -5,30 -8,56l232 136 140 82z"/>
    <path class="fil12" d="M23033 17403l-166 91c7,13 13,30 17,50l293 -140 165 -80 153 -73c-4,-42 -8,-75 -11,-96l-306 168 -145 80z"/>
    <path class="fil11" d="M22723 18445l-635 -33c1,22 3,43 5,61l622 32c3,-19 6,-39 8,-60z"/>
    <path class="fil11" d="M22928 18454c3,21 6,41 9,60l611 -42c2,-19 3,-39 4,-61l-624 43z"/>
    <path class="fil19" d="M23416 18481l132 -9c2,-19 3,-39 4,-61l-135 9c0,22 -1,43 -1,61z"/>
    <path class="fil12" d="M23013 16834l-2 316c0,31 -32,56 -71,56l-173 -1c-39,0 -71,-26 -71,-57l2 -316 315 2z"/>
    <path class="fil20" d="M22167 17182l84 50c1,-16 1,-29 2,-39 0,-26 8,-43 21,-53 -36,-24 -67,-44 -88,-58 -5,16 -8,30 -11,44 -2,11 -5,30 -8,56z"/>
    <path class="fil19" d="M22192 18418l-104 -6c1,22 3,43 5,62l103 5c-1,-18 -2,-39 -4,-61z"/>
    <path class="fil21" d="M22194 18479l-101 -5c3,30 8,56 14,76 4,0 39,3 91,6 -1,-20 -2,-46 -4,-77z"/>
    <path class="fil22" d="M21248 15370c10,21 116,75 203,68 86,-8 152,-106 152,-106 0,0 -7,-83 -60,-180 -54,-97 -90,-169 -108,-158 -19,11 -4,151 -4,151 0,0 -104,-95 -182,-144 -79,-50 -92,-61 -112,-43 -20,18 11,51 11,51 0,0 -80,-43 -102,-23 -23,20 20,68 20,68 0,0 -52,-26 -71,4 -19,29 54,71 54,71 0,0 -45,-14 -47,17 -2,34 211,194 246,224z"/>
    <path class="fil11" d="M21002 15146c-2,34 211,194 246,224 4,8 21,21 47,33 41,20 102,39 156,35 86,-8 152,-106 152,-106 0,0 0,-2 -1,-5 -3,2 -7,5 -10,7 -45,29 -121,69 -193,62 -119,-11 -255,-134 -394,-260 -2,3 -3,6 -3,10z"/>
    <path class="fil10" d="M23448 15548c29,12 59,-46 86,-33 398,191 614,457 614,457 78,116 -10,465 -125,446 -118,-53 -89,-45 -490,-280 -111,-73 -123,-306 -85,-590z"/>
    <path class="fil12" d="M24133 16318c-28,64 -67,107 -110,100 -118,-53 -89,-45 -490,-280 -26,-17 -46,-43 -62,-76 12,-29 25,-48 36,-52 50,-17 447,305 527,322 30,7 65,4 99,-14z"/>
    <path class="fil10" d="M24009 16411c456,249 374,-771 374,-968 0,-91 -143,-67 -311,-95 0,0 -256,923 -63,1063z"/>
    <path class="fil12" d="M24009 16411c456,249 374,-771 374,-968 0,-18 -6,-31 -16,-42 -29,-14 -47,-23 -48,-23l0 0c0,0 1,445 -46,685 -46,240 -158,286 -239,269 -17,-3 -48,-20 -87,-45 11,57 30,101 62,124z"/>
    <path class="fil22" d="M24427 15390c-10,21 -118,74 -204,65 -86,-9 -151,-107 -151,-107 0,0 8,-83 63,-180 55,-96 92,-168 110,-157 19,12 2,151 2,151 0,0 105,-93 184,-141 79,-49 92,-60 112,-42 20,19 -12,51 -12,51 0,0 81,-42 103,-22 22,21 -21,68 -21,68 0,0 52,-25 71,5 19,29 -55,70 -55,70 0,0 45,-13 47,18 1,34 -214,191 -249,221z"/>
    <path class="fil11" d="M24676 15168c1,35 -214,192 -249,222 -4,8 -22,20 -47,33 -42,19 -103,37 -157,32 -86,-9 -151,-107 -151,-107 0,0 1,-2 1,-6 3,3 7,5 11,7 44,30 119,71 191,65 119,-9 258,-131 398,-255 1,3 2,6 3,9z"/>
    <path class="fil19" d="M22014 16075c-21,14 -44,29 -67,44l43 92c7,-5 15,-9 23,-14 17,-9 35,-19 53,-30l-50 -93c-1,0 -1,0 -2,1z"/>
    <path class="fil11" d="M21947 16119c23,-15 46,-30 67,-44 1,-1 1,-1 2,-1l-2 -3 -80 -148 -122 -226c-16,12 -31,23 -46,34l167 359 14 29z"/>
    <path class="fil19" d="M23703 16120c-18,-13 -36,-25 -53,-36l-28 85 -6 18c2,1 4,2 6,3 24,15 47,28 68,40l13 -39 18 -59c-6,-4 -12,-8 -18,-12z"/>
    <path class="fil11" d="M23650 16084c17,11 35,23 53,36 6,4 12,8 18,12l136 -423c-21,-16 -43,-31 -65,-46l-88 260 -54 161z"/>
    <polygon class="fil9" points="22484,16623 22794,16625 22795,16531 22485,16529 "/>
    <polygon class="fil9" points="22845,16061 22979,16061 22980,15942 22846,15941 "/>
    <path class="fil13" d="M22696 18592c17,4 -569,-41 -585,-41 -17,1 17,609 17,609 21,67 -272,203 -270,317 2,99 158,128 256,125 97,-2 244,-92 326,-142 83,-50 115,-64 121,-97 6,-33 -4,-185 -4,-185l139 -586z"/>
    <path class="fil23" d="M21942 19504c-34,-74 188,-275 241,-286 52,-11 215,-33 202,-32 -12,2 -175,1 -198,-49 -22,-50 -51,-512 14,-522 65,-9 311,-35 311,-35 -167,-12 -391,-29 -401,-29 -1,0 -2,2 -2,4 -12,53 19,605 19,605 21,67 -272,203 -270,317 2,99 158,128 256,125 10,0 22,-1 33,-3 0,0 -172,-22 -205,-95z"/>
    <path class="fil13" d="M22954 18593c-17,3 569,-35 585,-34 17,1 -24,609 -24,609 -22,66 269,205 265,320 -3,99 -159,125 -257,122 -98,-3 -243,-95 -325,-146 -81,-52 -114,-66 -119,-99 -6,-33 7,-185 7,-185l-132 -587z"/>
    <path class="fil23" d="M23696 19513c35,-73 -185,-277 -237,-289 -52,-11 -215,-35 -202,-34 12,2 175,3 198,-46 23,-50 58,-512 -7,-522 -65,-10 -311,-39 -311,-39 168,-11 392,-25 402,-24 1,0 2,1 2,4 11,53 -26,605 -26,605 -22,66 269,205 265,320 -3,99 -159,125 -257,122 -10,0 -22,-2 -33,-4 0,0 172,-19 206,-93z"/>
   </g>
  </g>
 </g>
</svg>
