<?xml version="1.0" encoding="UTF-8"?>
<!DOCTYPE svg PUBLIC "-//W3C//DTD SVG 1.1//EN" "http://www.w3.org/Graphics/SVG/1.1/DTD/svg11.dtd">
<!-- Creator: CorelDRAW X7 -->
<svg xmlns="http://www.w3.org/2000/svg" xml:space="preserve" width="100%" height="100%" version="1.1" style="shape-rendering:geometricPrecision; text-rendering:geometricPrecision; image-rendering:optimizeQuality; fill-rule:evenodd; clip-rule:evenodd"
viewBox="0 0 489 489"
 xmlns:xlink="http://www.w3.org/1999/xlink">
 <defs>
  <style type="text/css">
   <![CDATA[
    .fil2 {fill:#D2AE6D;fill-rule:nonzero}
    .fil1 {fill:#DABA7F;fill-rule:nonzero}
    .fil0 {fill:#E1C292;fill-rule:nonzero}
    .fil3 {fill:#F4DDB5;fill-rule:nonzero}
   ]]>
  </style>
 </defs>
 <g id="Layer_x0020_1">
  <metadata id="CorelCorpID_0Corel-Layer"/>
  <g id="_2425988439968">
   <path class="fil0" d="M489 245c0,-136 -109,-245 -245,-245 -135,0 -244,109 -244,245 0,135 109,244 244,244 136,0 245,-109 245,-244z"/>
   <path class="fil1" d="M55 89c-34,43 -55,97 -55,156 0,135 109,244 244,244 76,0 143,-34 188,-87 0,0 -185,70 -298,-43 -114,-114 -79,-270 -79,-270z"/>
   <path class="fil2" d="M382 154c21,0 21,-33 0,-33 -22,0 -22,33 0,33z"/>
   <path class="fil2" d="M393 302c22,0 22,-33 0,-33 -21,0 -21,33 0,33z"/>
   <path class="fil3" d="M165 92c3,4 7,8 11,11 6,7 17,7 24,0 6,-6 6,-17 0,-23 -4,-4 -8,-8 -12,-11 -6,-7 -17,-7 -23,0 -7,6 -7,17 0,23z"/>
  </g>
 </g>
</svg>
