<?xml version="1.0" encoding="UTF-8"?>
<!DOCTYPE svg PUBLIC "-//W3C//DTD SVG 1.1//EN" "http://www.w3.org/Graphics/SVG/1.1/DTD/svg11.dtd">
<!-- Creator: CorelDRAW X7 -->
<svg xmlns="http://www.w3.org/2000/svg" xml:space="preserve" width="100%" height="100%" version="1.1" style="shape-rendering:geometricPrecision; text-rendering:geometricPrecision; image-rendering:optimizeQuality; fill-rule:evenodd; clip-rule:evenodd"
viewBox="0 0 77 77"
 xmlns:xlink="http://www.w3.org/1999/xlink">
 <defs>
  <style type="text/css">
   <![CDATA[
    .fil1 {fill:#D2AE6D;fill-rule:nonzero}
    .fil0 {fill:#DFB990;fill-rule:nonzero}
   ]]>
  </style>
 </defs>
 <g id="Layer_x0020_1">
  <metadata id="CorelCorpID_0Corel-Layer"/>
  <g id="_2098606762080">
   <path class="fil0" d="M77 39c0,-22 -17,-39 -38,-39 -22,0 -39,17 -39,39 0,21 17,38 39,38 21,0 38,-17 38,-38z"/>
   <path class="fil1" d="M9 14c-6,7 -9,15 -9,25 0,21 17,38 39,38 12,0 22,-5 29,-14 0,0 -29,12 -47,-6 -18,-18 -12,-43 -12,-43z"/>
  </g>
 </g>
</svg>
