<?xml version="1.0" encoding="UTF-8"?>
<!DOCTYPE svg PUBLIC "-//W3C//DTD SVG 1.1//EN" "http://www.w3.org/Graphics/SVG/1.1/DTD/svg11.dtd">
<!-- Creator: CorelDRAW X7 -->
<svg xmlns="http://www.w3.org/2000/svg" xml:space="preserve" width="3.22835in" height="3.22835in" version="1.1" style="shape-rendering:geometricPrecision; text-rendering:geometricPrecision; image-rendering:optimizeQuality; fill-rule:evenodd; clip-rule:evenodd"
viewBox="0 0 32283 32283"
 xmlns:xlink="http://www.w3.org/1999/xlink">
 <defs>
  <style type="text/css">
   <![CDATA[
    .fil3 {fill:#D9C49C}
    .fil2 {fill:#FBF7F2}
    .fil1 {fill:#EDDFC4;fill-rule:nonzero}
    .fil0 {fill:#F6EFE2;fill-rule:nonzero}
   ]]>
  </style>
 </defs>
 <g id="Layer_x0020_1">
  <metadata id="CorelCorpID_0Corel-Layer"/>
  <g id="_2638289414400">
   <path class="fil0" d="M16142 32283c-8961,0 -16142,-7210 -16142,-16141 0,-8931 7181,-16142 16142,-16142 8960,0 16141,7211 16141,16142 0,8931 -7181,16141 -16141,16141z"/>
   <path class="fil1" d="M17697 24591c1383,0 1383,-2183 0,-2183 -1450,0 -1450,2183 0,2183z"/>
   <path class="fil2" d="M12465 4616c1472,1279 1451,3725 -46,5464 -1498,1739 -3906,2112 -5378,833 -1473,-1278 -1452,-3724 46,-5463 1497,-1739 3905,-2112 5378,-834z"/>
   <path class="fil1" d="M25022 8672c-682,-912 -1801,-1486 -2518,-308 -346,569 -120,1109 420,1532 1676,1310 2802,-283 2098,-1224z"/>
   <path class="fil1" d="M5155 11734c-577,0 -577,-1186 0,-1186 605,0 605,1186 0,1186z"/>
   <path class="fil3" d="M30088 15546c0,8449 -6679,15271 -15011,15271 -8333,0 -15011,-6822 -15011,-15271 0,-534 26,-1062 78,-1582 -95,712 -144,1439 -144,2178 0,8931 7181,16141 16142,16141 8960,0 16141,-7210 16141,-16141 0,-8931 -7181,-16142 -16141,-16142 -1876,0 -3674,316 -5344,898 1354,-406 2790,-624 4279,-624 8332,0 15011,6822 15011,15272z"/>
  </g>
 </g>
</svg>
