<?xml version="1.0" encoding="UTF-8"?>
<!DOCTYPE svg PUBLIC "-//W3C//DTD SVG 1.1//EN" "http://www.w3.org/Graphics/SVG/1.1/DTD/svg11.dtd">
<!-- Creator: CorelDRAW X7 -->
<svg xmlns="http://www.w3.org/2000/svg" xml:space="preserve" width="1.9685in" height="1.9685in" version="1.1" style="shape-rendering:geometricPrecision; text-rendering:geometricPrecision; image-rendering:optimizeQuality; fill-rule:evenodd; clip-rule:evenodd"
viewBox="0 0 19685 19685"
 xmlns:xlink="http://www.w3.org/1999/xlink">
 <defs>
  <style type="text/css">
   <![CDATA[
    .fil1 {fill:none}
    .fil0 {fill:black}
   ]]>
  </style>
 </defs>
 <g id="Layer_x0020_1">
  <metadata id="CorelCorpID_0Corel-Layer"/>
  <g id="_2125125583872">
   <path class="fil0" d="M9843 11196l-2209 -2215 -246 246 2455 2461 2454 -2461 -246 -246 -2208 2215zm-3931 -5284c-1046,1052 -1624,2448 -1624,3931 0,1482 578,2878 1624,3930 1052,1046 2448,1624 3931,1624 1482,0 2878,-578 3930,-1624 1046,-1052 1624,-2448 1624,-3930 0,-1483 -578,-2879 -1624,-3931 -1052,-1046 -2448,-1624 -3930,-1624 -1483,0 -2879,578 -3931,1624zm9141 3931c0,1390 -541,2700 -1526,3684 -984,985 -2294,1526 -3684,1526 -1391,0 -2701,-541 -3685,-1526 -985,-984 -1526,-2294 -1526,-3684 0,-1391 541,-2701 1526,-3685 984,-985 2294,-1526 3685,-1526 1390,0 2700,541 3684,1526 985,984 1526,2294 1526,3685z"/>
   <rect class="fil1" width="19685" height="19685"/>
  </g>
 </g>
</svg>
