<?xml version="1.0" encoding="UTF-8"?>
<!DOCTYPE svg PUBLIC "-//W3C//DTD SVG 1.1//EN" "http://www.w3.org/Graphics/SVG/1.1/DTD/svg11.dtd">
<!-- Creator: CorelDRAW X7 -->
<svg xmlns="http://www.w3.org/2000/svg" xml:space="preserve" width="1.9685in" height="1.9685in" version="1.1" style="shape-rendering:geometricPrecision; text-rendering:geometricPrecision; image-rendering:optimizeQuality; fill-rule:evenodd; clip-rule:evenodd"
viewBox="0 0 19685 19685"
 xmlns:xlink="http://www.w3.org/1999/xlink">
 <defs>
  <style type="text/css">
   <![CDATA[
    .fil0 {fill:none}
    .fil1 {fill:black}
   ]]>
  </style>
 </defs>
 <g id="Layer_x0020_1">
  <metadata id="CorelCorpID_0Corel-Layer"/>
  <g id="_2136902366432">
   <rect class="fil0" width="19685" height="19685"/>
   <g>
    <path class="fil1" d="M4988 6564c0,1179 914,2149 2071,2237l0 6563 344 0 0 -863 1553 0 0 -345 -1553 0 0 -1035 1036 0 0 -345 -1036 0 0 -3975c1157,-89 2071,-1058 2071,-2237 0,-1237 -1006,-2243 -2243,-2243 -1237,0 -2243,1006 -2243,2243zm4141 0c0,1046 -851,1898 -1898,1898 -1047,0 -1898,-852 -1898,-1898 0,-1047 851,-1899 1898,-1899 1047,0 1898,852 1898,1899z"/>
    <path class="fil1" d="M14697 13121c0,-1179 -914,-2149 -2071,-2237l0 -6563 -344 0 0 863 -1553 0 0 345 1553 0 0 1035 -1036 0 0 345 1036 0 0 3975c-1157,89 -2071,1058 -2071,2237 0,1237 1007,2243 2243,2243 1237,0 2243,-1006 2243,-2243zm-4141 0c0,-1046 851,-1898 1899,-1898 1046,0 1897,852 1897,1898 0,1047 -851,1899 -1897,1899 -1048,0 -1899,-852 -1899,-1899z"/>
   </g>
  </g>
 </g>
</svg>
