<?xml version="1.0" encoding="UTF-8"?>
<!DOCTYPE svg PUBLIC "-//W3C//DTD SVG 1.1//EN" "http://www.w3.org/Graphics/SVG/1.1/DTD/svg11.dtd">
<!-- Creator: CorelDRAW X7 -->
<svg xmlns="http://www.w3.org/2000/svg" xml:space="preserve" width="1.9685in" height="1.9685in" version="1.1" style="shape-rendering:geometricPrecision; text-rendering:geometricPrecision; image-rendering:optimizeQuality; fill-rule:evenodd; clip-rule:evenodd"
viewBox="0 0 19685 19685"
 xmlns:xlink="http://www.w3.org/1999/xlink">
 <defs>
  <style type="text/css">
   <![CDATA[
    .fil1 {fill:none}
    .fil0 {fill:black}
   ]]>
  </style>
 </defs>
 <g id="Layer_x0020_1">
  <metadata id="CorelCorpID_0Corel-Layer"/>
  <g id="_2136898339952">
   <path class="fil0" d="M9843 4288c1482,0 2878,578 3930,1630 1046,1046 1624,2442 1624,3925 0,1482 -578,2878 -1624,3930 -1052,1046 -2448,1624 -3930,1624 -1483,0 -2879,-578 -3931,-1624 -1046,-1052 -1624,-2448 -1624,-3930 0,-1483 578,-2879 1624,-3925 1052,-1052 2448,-1630 3931,-1630zm0 6022c195,0 373,79 501,208l0 0c128,129 208,306 208,501 0,196 -80,373 -208,502 -128,128 -306,208 -501,208 -196,0 -374,-80 -502,-208 -128,-129 -208,-306 -208,-502 0,-195 80,-372 208,-501l0 0c128,-129 306,-208 502,-208zm258 451l-1 0c-65,-66 -157,-106 -257,-106 -101,0 -192,40 -258,106l-1 0c-66,66 -106,157 -106,258 0,101 41,192 107,258 66,66 157,107 258,107 100,0 192,-41 257,-107 66,-66 107,-157 107,-258 0,-101 -40,-192 -106,-258zm-2276 -938l4035 0 0 2393 -4035 0 0 -2393zm386 -344l-730 0 0 3081 4723 0 0 -3081 -730 0 0 -1066c0,-450 -183,-858 -478,-1154 -296,-295 -704,-478 -1153,-478 -450,0 -858,183 -1154,478 -295,296 -478,704 -478,1154l0 1066zm2919 0l-2575 0 0 -1066c0,-355 144,-677 378,-910 233,-233 555,-378 910,-378 354,0 676,145 910,378 233,233 377,555 377,910l0 1066zm-4972 4048c984,985 2294,1526 3685,1526 1390,0 2700,-541 3684,-1526 985,-984 1526,-2294 1526,-3684 0,-1391 -541,-2701 -1526,-3685 -984,-985 -2294,-1526 -3684,-1526 -1391,0 -2701,541 -3685,1526 -985,984 -1526,2294 -1526,3685 0,1390 541,2700 1526,3684z"/>
   <rect class="fil1" width="19685" height="19685"/>
  </g>
 </g>
</svg>
