<?xml version="1.0" encoding="UTF-8"?>
<!DOCTYPE svg PUBLIC "-//W3C//DTD SVG 1.1//EN" "http://www.w3.org/Graphics/SVG/1.1/DTD/svg11.dtd">
<!-- Creator: CorelDRAW X7 -->
<svg xmlns="http://www.w3.org/2000/svg" xml:space="preserve" width="1.9685in" height="1.9685in" version="1.1" style="shape-rendering:geometricPrecision; text-rendering:geometricPrecision; image-rendering:optimizeQuality; fill-rule:evenodd; clip-rule:evenodd"
viewBox="0 0 19685 19685"
 xmlns:xlink="http://www.w3.org/1999/xlink">
 <defs>
  <style type="text/css">
   <![CDATA[
    .fil1 {fill:none}
    .fil0 {fill:black}
   ]]>
  </style>
 </defs>
 <g id="Layer_x0020_1">
  <metadata id="CorelCorpID_0Corel-Layer"/>
  <g id="_1885453343744">
   <path class="fil0" d="M4731 7456l2897 0 0 4773 -2897 0 0 -4773zm4767 6305l2725 0 0 -511 3070 0 0 1366 -3070 0 0 -517 -3063 0 0 -2042 0 -387 0 -1655 -1194 0 0 338 0 2215 -3574 0 0 -5451 3574 0 0 2553 1194 0 0 -1654 0 -388 0 -2042 3063 0 0 -517 3070 0 0 1366 -3070 0 0 -511 -2725 0 0 1704 2725 0 0 -511 3070 0 0 1360 -3070 0 0 -511 -2725 0 0 50 0 1654 2725 0 0 -510 3070 0 0 1365 -3070 0 0 -510 -2725 0 0 1655 0 49 2725 0 0 -511 3070 0 0 1360 -3070 0 0 -511 -2725 0 0 1704 0 0zm3070 -7665l0 -683 2386 0 0 683 -2386 0zm0 7493l0 683 2386 0 0 -683 -2386 0zm0 -3408l0 -677 2386 0 0 677 -2386 0zm0 1365l2386 0 0 683 -2386 0 0 -683zm2386 -3407l-2386 0 0 -683 2386 0 0 683z"/>
   <rect class="fil1" width="19685" height="19685"/>
  </g>
 </g>
</svg>
