<?xml version="1.0" encoding="UTF-8"?>
<!DOCTYPE svg PUBLIC "-//W3C//DTD SVG 1.1//EN" "http://www.w3.org/Graphics/SVG/1.1/DTD/svg11.dtd">
<!-- Creator: CorelDRAW X7 -->
<svg xmlns="http://www.w3.org/2000/svg" xml:space="preserve" width="1.9685in" height="1.9685in" version="1.1" style="shape-rendering:geometricPrecision; text-rendering:geometricPrecision; image-rendering:optimizeQuality; fill-rule:evenodd; clip-rule:evenodd"
viewBox="0 0 19685 19685"
 xmlns:xlink="http://www.w3.org/1999/xlink">
 <defs>
  <style type="text/css">
   <![CDATA[
    .fil0 {fill:none}
    .fil1 {fill:black}
   ]]>
  </style>
 </defs>
 <g id="Layer_x0020_1">
  <metadata id="CorelCorpID_0Corel-Layer"/>
  <g id="_2622973074096">
   <rect class="fil0" width="19685" height="19685"/>
   <path class="fil1" d="M9843 15397c1482,0 2878,-578 3930,-1630 1046,-1046 1624,-2442 1624,-3924 0,-1483 -578,-2879 -1624,-3931 -1052,-1046 -2448,-1624 -3930,-1624 -1483,0 -2879,578 -3931,1624 -1046,1052 -1624,2448 -1624,3931 0,1482 578,2878 1624,3924 1052,1052 2448,1630 3931,1630zm2778 -3441l-5557 0c94,124 198,242 310,355 661,661 1534,1021 2469,1021 934,0 1807,-360 2468,-1021 112,-113 216,-231 310,-355zm-5789 -344l6022 0c128,-218 232,-448 309,-688l-6641 0c77,240 181,470 310,688zm-754 -1032c144,743 505,1426 1053,1974 725,726 1686,1123 2712,1123 1025,0 1986,-397 2711,-1123 548,-548 909,-1231 1053,-1974l-7529 0zm6753 -3065c486,0 881,395 881,881 0,487 -395,881 -881,881 -487,0 -882,-394 -882,-881 0,-486 396,-881 882,-881zm-5976 0c-487,0 -882,395 -882,881 0,487 395,881 882,881 486,0 881,-394 881,-881 0,-486 -396,-881 -881,-881zm0 344c296,0 537,241 537,537 0,297 -241,537 -537,537 -297,0 -538,-240 -538,-537 0,-296 241,-537 538,-537zm5976 0c-297,0 -538,241 -538,537 0,297 241,537 538,537 296,0 537,-240 537,-537 0,-296 -241,-537 -537,-537zm-6673 -1701c984,-985 2294,-1526 3685,-1526 1390,0 2700,541 3684,1526 985,984 1526,2294 1526,3685 0,1390 -541,2700 -1526,3684 -984,985 -2294,1526 -3684,1526 -1391,0 -2701,-541 -3685,-1526 -985,-984 -1526,-2294 -1526,-3684 0,-1391 541,-2701 1526,-3685z"/>
  </g>
 </g>
</svg>
