<?xml version="1.0" encoding="UTF-8"?>
<!DOCTYPE svg PUBLIC "-//W3C//DTD SVG 1.1//EN" "http://www.w3.org/Graphics/SVG/1.1/DTD/svg11.dtd">
<!-- Creator: CorelDRAW X7 -->
<svg xmlns="http://www.w3.org/2000/svg" xml:space="preserve" width="1.9685in" height="1.9685in" version="1.1" style="shape-rendering:geometricPrecision; text-rendering:geometricPrecision; image-rendering:optimizeQuality; fill-rule:evenodd; clip-rule:evenodd"
viewBox="0 0 19685 19685"
 xmlns:xlink="http://www.w3.org/1999/xlink">
 <defs>
  <style type="text/css">
   <![CDATA[
    .fil1 {fill:none}
    .fil0 {fill:black}
   ]]>
  </style>
 </defs>
 <g id="Layer_x0020_1">
  <metadata id="CorelCorpID_0Corel-Layer"/>
  <g id="_2623018314096">
   <path class="fil0" d="M9843 4288c1482,0 2878,578 3930,1630 1046,1046 1624,2442 1624,3925 0,1482 -578,2878 -1624,3930 -1052,1046 -2448,1624 -3930,1624 -1483,0 -2879,-578 -3931,-1624 -1046,-1052 -1624,-2448 -1624,-3930 0,-1483 578,-2879 1624,-3925 1052,-1052 2448,-1630 3931,-1630zm2988 4989c486,0 881,-395 881,-881 0,-487 -395,-881 -881,-881 -487,0 -882,394 -882,881 0,486 396,881 882,881zm-5976 0c-487,0 -882,-395 -882,-881 0,-487 395,-881 882,-881 486,0 881,394 881,881 0,486 -396,881 -881,881zm0 -344c296,0 537,-240 537,-537 0,-297 -241,-537 -537,-537 -297,0 -538,240 -538,537 0,296 241,537 538,537zm5976 0c-297,0 -538,-240 -538,-537 0,-297 241,-537 538,-537 296,0 537,240 537,537 0,296 -241,537 -537,537zm-5336 3367c116,-373 322,-714 609,-1001 468,-467 1078,-719 1739,-719 660,0 1270,252 1738,719 287,287 493,628 609,1001l1065 0c-138,-651 -461,-1248 -944,-1731 -661,-661 -1534,-1022 -2468,-1022 -935,0 -1808,361 -2469,1022 -483,483 -806,1080 -944,1731l1065 0zm-610 -344c155,-424 402,-813 733,-1144 596,-596 1381,-921 2225,-921 843,0 1628,325 2224,921 331,331 578,720 733,1144l-370 0c-138,-332 -342,-636 -606,-900 -532,-532 -1229,-820 -1981,-820 -753,0 -1450,288 -1982,820 -264,264 -468,568 -606,900l-370 0zm-727 1571c984,985 2294,1526 3685,1526 1390,0 2700,-541 3684,-1526 985,-984 1526,-2294 1526,-3684 0,-1391 -541,-2701 -1526,-3685 -984,-985 -2294,-1526 -3684,-1526 -1391,0 -2701,541 -3685,1526 -985,984 -1526,2294 -1526,3685 0,1390 541,2700 1526,3684z"/>
   <rect class="fil1" width="19685" height="19685"/>
  </g>
 </g>
</svg>
