<?xml version="1.0" encoding="UTF-8"?>
<!DOCTYPE svg PUBLIC "-//W3C//DTD SVG 1.1//EN" "http://www.w3.org/Graphics/SVG/1.1/DTD/svg11.dtd">
<!-- Creator: CorelDRAW X7 -->
<svg xmlns="http://www.w3.org/2000/svg" xml:space="preserve" width="1.9685in" height="1.9685in" version="1.1" style="shape-rendering:geometricPrecision; text-rendering:geometricPrecision; image-rendering:optimizeQuality; fill-rule:evenodd; clip-rule:evenodd"
viewBox="0 0 19685 19685"
 xmlns:xlink="http://www.w3.org/1999/xlink">
 <defs>
  <style type="text/css">
   <![CDATA[
    .fil0 {fill:none}
    .fil1 {fill:black}
   ]]>
  </style>
 </defs>
 <g id="Layer_x0020_1">
  <metadata id="CorelCorpID_0Corel-Layer"/>
  <g id="_1790881487584">
   <polygon class="fil0" points="0,0 19685,0 19685,19685 0,19685 "/>
   <path class="fil1" d="M4288 6272l2737 0c-70,-90 -132,-192 -187,-323 -144,-350 -144,-745 0,-1095 220,-532 738,-883 1321,-883 365,0 731,140 1011,419l673 671 672 -671c280,-279 646,-419 1011,-419 583,0 1101,351 1321,883 143,349 144,744 0,1095 -55,131 -117,233 -187,323l2737 0 0 3377 -689 0 0 6065 -9731 0 0 -6065 -689 0 0 -3377zm3205 0l1139 0 967 -967 -672 -672c-423,-423 -1113,-423 -1536,0 -420,421 -421,1116 0,1537l102 102zm1626 0l3073 0 102 -102c421,-421 421,-1116 0,-1537 -423,-423 -1113,-423 -1536,0l-1639 1639zm896 3377l0 2688 4349 0 0 -2688 -4349 0zm0 3033l0 2688 4349 0 0 -2688 -4349 0zm-345 2688l0 -2688 -4349 0 0 2688 4349 0zm0 -3033l0 -2688 -4349 0 0 2688 4349 0zm5383 -5720l-10421 0 0 2688 10421 0 0 -2688z"/>
  </g>
 </g>
</svg>
