<?xml version="1.0" encoding="UTF-8"?>
<!DOCTYPE svg PUBLIC "-//W3C//DTD SVG 1.1//EN" "http://www.w3.org/Graphics/SVG/1.1/DTD/svg11.dtd">
<!-- Creator: CorelDRAW X7 -->
<svg xmlns="http://www.w3.org/2000/svg" xml:space="preserve" width="1.9685in" height="1.9685in" version="1.1" style="shape-rendering:geometricPrecision; text-rendering:geometricPrecision; image-rendering:optimizeQuality; fill-rule:evenodd; clip-rule:evenodd"
viewBox="0 0 19685 19685"
 xmlns:xlink="http://www.w3.org/1999/xlink">
 <defs>
  <style type="text/css">
   <![CDATA[
    .fil0 {fill:none}
    .fil1 {fill:black}
   ]]>
  </style>
 </defs>
 <g id="Layer_x0020_1">
  <metadata id="CorelCorpID_0Corel-Layer"/>
  <g id="_1790823242016">
   <polygon class="fil0" points="0,0 19685,0 19685,19685 0,19685 "/>
   <path class="fil1" d="M4288 5928l2737 0c-70,-91 -132,-192 -187,-324 -144,-349 -144,-745 0,-1094 220,-533 738,-883 1321,-883 365,0 731,139 1011,418l673 672 672 -672c280,-279 646,-418 1011,-418 583,0 1101,350 1321,883 143,348 144,744 0,1094 -55,132 -117,233 -187,324l2737 0 0 3377 -689 0 0 6065 -9731 0 0 -6065 -689 0 0 -3377zm3205 0l1139 0 967 -968 -672 -671c-423,-424 -1113,-424 -1536,0 -420,420 -421,1116 0,1536l102 103zm1626 0l3073 0 102 -103c421,-420 421,-1116 0,-1536 -423,-424 -1113,-424 -1536,0l-1639 1639zm896 3377l0 2688 4349 0 0 -2688 -4349 0zm0 3032l0 2688 4349 0 0 -2688 -4349 0zm-345 2688l0 -2688 -4349 0 0 2688 4349 0zm0 -3032l0 -2688 -4349 0 0 2688 4349 0zm5383 -5721l-10421 0 0 2688 10421 0 0 -2688z"/>
  </g>
 </g>
</svg>
