<?xml version="1.0" encoding="UTF-8"?>
<!DOCTYPE svg PUBLIC "-//W3C//DTD SVG 1.1//EN" "http://www.w3.org/Graphics/SVG/1.1/DTD/svg11.dtd">
<!-- Creator: CorelDRAW X7 -->
<svg xmlns="http://www.w3.org/2000/svg" xml:space="preserve" width="1.9685in" height="1.9685in" version="1.1" style="shape-rendering:geometricPrecision; text-rendering:geometricPrecision; image-rendering:optimizeQuality; fill-rule:evenodd; clip-rule:evenodd"
viewBox="0 0 19685 19685"
 xmlns:xlink="http://www.w3.org/1999/xlink">
 <defs>
  <style type="text/css">
   <![CDATA[
    .fil0 {fill:none}
    .fil1 {fill:black}
   ]]>
  </style>
 </defs>
 <g id="Layer_x0020_1">
  <metadata id="CorelCorpID_0Corel-Layer"/>
  <g id="_2982906175328">
   <polygon class="fil0" points="0,0 19685,0 19685,19685 0,19685 "/>
   <path class="fil1" d="M9842 4287c-3073,-3 -5554,2485 -5554,5556 0,3069 2483,5555 5554,5555 3070,0 5558,-2483 5555,-5555 0,-3074 -2482,-5556 -5555,-5556zm-2534 4706l0 3292 5069 0 0 -3292 -2535 -2153 -2534 2153zm1754 1235l1561 0 0 1711 -346 0 0 -1365 -869 0 0 1365 -346 0 0 -1711zm780 -3871l2883 2492 0 3784 -5765 0 0 -3784 2882 -2492zm0 8695c-2879,-3 -5208,-2329 -5208,-5209 0,-2880 2328,-5210 5208,-5210 2881,0 5208,2329 5211,5210 -3,2881 -2331,5206 -5211,5209z"/>
  </g>
 </g>
</svg>
