<?xml version="1.0" encoding="UTF-8"?>
<!DOCTYPE svg PUBLIC "-//W3C//DTD SVG 1.1//EN" "http://www.w3.org/Graphics/SVG/1.1/DTD/svg11.dtd">
<!-- Creator: CorelDRAW X7 -->
<svg xmlns="http://www.w3.org/2000/svg" xml:space="preserve" width="1.9685in" height="1.9685in" version="1.1" style="shape-rendering:geometricPrecision; text-rendering:geometricPrecision; image-rendering:optimizeQuality; fill-rule:evenodd; clip-rule:evenodd"
viewBox="0 0 19685 19685"
 xmlns:xlink="http://www.w3.org/1999/xlink">
 <defs>
  <style type="text/css">
   <![CDATA[
    .fil0 {fill:none}
    .fil1 {fill:black;fill-rule:nonzero}
   ]]>
  </style>
 </defs>
 <g id="Layer_x0020_1">
  <metadata id="CorelCorpID_0Corel-Layer"/>
  <g id="_2136524978192">
   <polygon class="fil0" points="0,0 19685,0 19685,19685 0,19685 "/>
   <path class="fil1" d="M7350 11152l0 -2619 348 0 0 2619 -348 0zm6063 -3483l972 -972 -1399 -1397 -1049 1047 -1045 -346 0 -1572 -2094 0 0 1572 -1052 345 -1048 -1046 -1397 1398 1048 1048 -348 1052 -1572 0 0 2094 1571 0 348 1046 -1048 1048 1397 1399 1048 -1048 1053 345 0 1574 2094 0 0 -1574 1046 -345 1048 1047 1398 -1398 -1047 -1048 346 -1046 1573 0 0 -2094 -1574 0 -345 -1053 76 -76zm1345 -847l-1020 1020 199 604 1671 0 0 2798 -1671 0 -198 598 1143 1144 -1896 1896 -1144 -1143 -598 198 0 1671 -2798 0 0 -1671 -604 -199 -1144 1144 -1895 -1897 1144 -1143 -199 -598 -1671 0 0 -2798 1670 0 200 -605 -1144 -1143 1894 -1895 1144 1142 605 -198 0 -1670 2798 0 0 1670 599 198 1143 -1141 1896 1894 -124 124zm-6469 3055c0,-434 117,-774 350,-1020 234,-245 535,-368 905,-368 242,0 459,58 654,173 194,115 342,276 444,483 101,206 153,440 153,702 0,265 -54,503 -161,712 -108,210 -259,368 -456,475 -197,108 -409,162 -636,162 -247,0 -467,-60 -662,-179 -194,-118 -341,-281 -441,-487 -100,-205 -150,-423 -150,-653zm358 6c0,316 85,564 255,745 169,181 382,272 638,272 261,0 475,-92 644,-275 168,-182 252,-442 252,-779 0,-213 -36,-399 -108,-557 -72,-159 -177,-282 -316,-369 -138,-87 -294,-131 -467,-131 -245,0 -456,84 -632,252 -177,169 -266,449 -266,842zm3172 1269l0 -2312 -863 0 0 -307 2074 0 0 307 -863 0 0 2312 -348 0z"/>
  </g>
 </g>
</svg>
