<?xml version="1.0" encoding="UTF-8"?>
<!DOCTYPE svg PUBLIC "-//W3C//DTD SVG 1.1//EN" "http://www.w3.org/Graphics/SVG/1.1/DTD/svg11.dtd">
<!-- Creator: CorelDRAW X7 -->
<svg xmlns="http://www.w3.org/2000/svg" xml:space="preserve" width="1.9685in" height="1.9685in" version="1.1" style="shape-rendering:geometricPrecision; text-rendering:geometricPrecision; image-rendering:optimizeQuality; fill-rule:evenodd; clip-rule:evenodd"
viewBox="0 0 19685 19685"
 xmlns:xlink="http://www.w3.org/1999/xlink">
 <defs>
  <style type="text/css">
   <![CDATA[
    .fil0 {fill:none}
    .fil1 {fill:black;fill-rule:nonzero}
   ]]>
  </style>
 </defs>
 <g id="Layer_x0020_1">
  <metadata id="CorelCorpID_0Corel-Layer"/>
  <g id="_2136527656336">
   <polygon class="fil0" points="0,0 19685,0 19685,19685 0,19685 "/>
   <path class="fil1" d="M7012 11152l0 -2619 347 0 0 2619 -347 0zm2831 -6864c-3074,0 -5555,2481 -5555,5555 0,3073 2481,5554 5555,5554 3073,0 5554,-2481 5554,-5554 0,-3074 -2481,-5555 -5554,-5555zm0 10765c-2881,0 -5211,-2330 -5211,-5210 0,-2881 2330,-5211 5211,-5211 2880,0 5210,2330 5210,5211 0,2880 -2330,5210 -5210,5210zm-1557 -5176c0,-434 117,-774 351,-1020 233,-245 534,-368 904,-368 242,0 459,58 654,173 194,115 342,276 444,483 102,206 153,440 153,702 0,265 -54,503 -161,712 -107,210 -259,368 -456,475 -196,108 -409,162 -636,162 -247,0 -467,-60 -662,-179 -193,-118 -341,-281 -441,-487 -100,-205 -150,-423 -150,-653zm358 6c0,316 85,564 255,745 169,181 382,272 638,272 261,0 475,-92 644,-275 168,-183 252,-442 252,-779 0,-213 -36,-399 -108,-557 -72,-159 -177,-282 -315,-369 -139,-87 -295,-131 -467,-131 -246,0 -457,84 -633,252 -177,169 -266,449 -266,842zm3334 1269l0 -2312 -863 0 0 -307 2074 0 0 307 -863 0 0 2312 -348 0z"/>
  </g>
 </g>
</svg>
