<?xml version="1.0" encoding="UTF-8"?>
<!DOCTYPE svg PUBLIC "-//W3C//DTD SVG 1.1//EN" "http://www.w3.org/Graphics/SVG/1.1/DTD/svg11.dtd">
<!-- Creator: CorelDRAW X7 -->
<svg xmlns="http://www.w3.org/2000/svg" xml:space="preserve" width="1.9685in" height="1.9685in" version="1.1" style="shape-rendering:geometricPrecision; text-rendering:geometricPrecision; image-rendering:optimizeQuality; fill-rule:evenodd; clip-rule:evenodd"
viewBox="0 0 19685 19685"
 xmlns:xlink="http://www.w3.org/1999/xlink">
 <defs>
  <style type="text/css">
   <![CDATA[
    .fil1 {fill:none}
    .fil0 {fill:black}
   ]]>
  </style>
 </defs>
 <g id="Layer_x0020_1">
  <metadata id="CorelCorpID_0Corel-Layer"/>
  <g id="_1885453294496">
   <path class="fil0" d="M9843 4288c1482,0 2878,578 3930,1630 1046,1046 1624,2442 1624,3925 0,1482 -578,2878 -1624,3930 -1052,1046 -2448,1624 -3930,1624 -1483,0 -2879,-578 -3931,-1624 -1046,-1052 -1624,-2448 -1624,-3930 0,-1483 578,-2879 1624,-3925 1052,-1052 2448,-1630 3931,-1630zm2602 7468l-5205 0 0 -351 5205 0 0 351zm-5205 -3827l0 351 5205 0 0 -351 -5205 0zm0 1741l0 345 5205 0 0 -345 -5205 0zm-1082 3857c984,985 2294,1526 3685,1526 1390,0 2700,-541 3684,-1526 985,-984 1526,-2294 1526,-3684 0,-1391 -541,-2701 -1526,-3685 -984,-985 -2294,-1526 -3684,-1526 -1391,0 -2701,541 -3685,1526 -985,984 -1526,2294 -1526,3685 0,1390 541,2700 1526,3684z"/>
   <rect class="fil1" width="19685" height="19685"/>
  </g>
 </g>
</svg>
