<?xml version="1.0" encoding="UTF-8"?>
<!DOCTYPE svg PUBLIC "-//W3C//DTD SVG 1.1//EN" "http://www.w3.org/Graphics/SVG/1.1/DTD/svg11.dtd">
<!-- Creator: CorelDRAW X7 -->
<svg xmlns="http://www.w3.org/2000/svg" xml:space="preserve" width="1.9685in" height="1.9685in" version="1.1" style="shape-rendering:geometricPrecision; text-rendering:geometricPrecision; image-rendering:optimizeQuality; fill-rule:evenodd; clip-rule:evenodd"
viewBox="0 0 19685 19685"
 xmlns:xlink="http://www.w3.org/1999/xlink">
 <defs>
  <style type="text/css">
   <![CDATA[
    .fil0 {fill:none}
    .fil1 {fill:black}
   ]]>
  </style>
 </defs>
 <g id="Layer_x0020_1">
  <metadata id="CorelCorpID_0Corel-Layer"/>
  <g id="_2001316037600">
   <polygon class="fil0" points="0,0 19685,0 19685,19685 0,19685 "/>
   <path class="fil1" d="M7464 12106c-427,0 -775,348 -775,775 0,427 348,775 775,775 427,0 775,-348 775,-775 0,-132 -33,-256 -91,-365l4456 -3858 -65 901 345 0 111 -1545 -1524 122 0 333 902 -65 -4450 3852c-129,-94 -288,-150 -459,-150zm2551 -6776l0 535 5727 0 0 1206 -345 0 0 7782 -11109 0 0 -7782 -345 0 0 -1206 5727 0 0 -536c-350,-80 -603,-393 -603,-755 0,-427 348,-775 776,-775 427,0 775,347 775,775 0,362 -251,676 -603,756zm-172 -1187c-239,0 -431,192 -431,431 0,238 192,430 431,430 237,0 430,-193 430,-430 0,-239 -192,-431 -430,-431zm-5555 2067l0 517 11109 0 0 -517 -11109 0zm344 8298l10421 0 0 -7437 -10421 0 0 7437zm2832 -1197c-239,0 -431,-192 -431,-430 0,-239 192,-431 431,-431 239,0 431,192 431,431 0,238 -192,430 -431,430zm5532 -2879l-407 352 407 352 -225 260 -444 -385 -445 385 -225 -260 407 -352 -407 -352 225 -260 445 385 444 -385 225 260zm-2418 -2128l-407 353 407 352 -225 260 -444 -385 -445 385 -225 -260 407 -352 -407 -353 225 -259 445 385 444 -385 225 259zm-2418 0l-407 353 407 352 -225 260 -444 -385 -445 385 -225 -260 407 -352 -407 -353 225 -259 445 385 444 -385 225 259zm0 2128l-407 352 407 352 -225 260 -444 -385 -445 385 -225 -260 407 -352 -407 -352 225 -260 445 385 444 -385 225 260zm2418 2096l-407 353 407 352 -225 260 -444 -385 -445 385 -225 -260 407 -352 -407 -353 225 -259 445 385 444 -385 225 259zm2418 0l-407 353 407 352 -225 260 -444 -385 -445 385 -225 -260 407 -352 -407 -353 225 -259 445 385 444 -385 225 259z"/>
  </g>
 </g>
</svg>
