<?xml version="1.0" encoding="UTF-8"?>
<!DOCTYPE svg PUBLIC "-//W3C//DTD SVG 1.1//EN" "http://www.w3.org/Graphics/SVG/1.1/DTD/svg11.dtd">
<!-- Creator: CorelDRAW X7 -->
<svg xmlns="http://www.w3.org/2000/svg" xml:space="preserve" width="1.9685in" height="1.9685in" version="1.1" style="shape-rendering:geometricPrecision; text-rendering:geometricPrecision; image-rendering:optimizeQuality; fill-rule:evenodd; clip-rule:evenodd"
viewBox="0 0 19685 19685"
 xmlns:xlink="http://www.w3.org/1999/xlink">
 <defs>
  <style type="text/css">
   <![CDATA[
    .fil0 {fill:none}
    .fil1 {fill:black}
   ]]>
  </style>
 </defs>
 <g id="Layer_x0020_1">
  <metadata id="CorelCorpID_0Corel-Layer"/>
  <g id="_2001316053984">
   <polygon class="fil0" points="0,0 19685,0 19685,19685 0,19685 "/>
   <path class="fil1" d="M9843 7645c1198,0 2169,972 2169,2170 0,1198 -971,2170 -2169,2170 -1199,0 -2170,-972 -2170,-2170 0,-1198 971,-2170 2170,-2170zm-5555 6061l0 -7438 -345 0 0 -1205 11799 0 0 1205 -345 0 0 7438 -3084 0 2983 2983 -487 0 -2983 -2983 -3967 0 -2983 2983 -487 0 2983 -2983 -3084 0zm344 -345l10421 0 0 -7093 -10421 0 0 7093zm-344 -7437l11109 0 0 -517 -11109 0 0 517zm4521 4752l1378 0 0 -345 -1378 0 0 345zm0 -1378l1722 0 345 -344 -2067 0 0 344zm0 689l1722 0 0 689 345 0 0 -1033 -2067 0 0 344zm1034 -1997c1008,0 1825,817 1825,1825 0,1008 -817,1825 -1825,1825 -1009,0 -1826,-817 -1826,-1825 0,-1008 817,-1825 1826,-1825z"/>
  </g>
 </g>
</svg>
