<?xml version="1.0" encoding="UTF-8"?>
<!DOCTYPE svg PUBLIC "-//W3C//DTD SVG 1.1//EN" "http://www.w3.org/Graphics/SVG/1.1/DTD/svg11.dtd">
<!-- Creator: CorelDRAW X7 -->
<svg xmlns="http://www.w3.org/2000/svg" xml:space="preserve" width="1.9685in" height="1.9685in" version="1.1" style="shape-rendering:geometricPrecision; text-rendering:geometricPrecision; image-rendering:optimizeQuality; fill-rule:evenodd; clip-rule:evenodd"
viewBox="0 0 19685 19685"
 xmlns:xlink="http://www.w3.org/1999/xlink">
 <defs>
  <style type="text/css">
   <![CDATA[
    .fil0 {fill:none}
    .fil1 {fill:black}
   ]]>
  </style>
 </defs>
 <g id="Layer_x0020_1">
  <metadata id="CorelCorpID_0Corel-Layer"/>
  <g id="_1473997733808">
   <polygon class="fil0" points="0,0 19685,0 19685,19685 0,19685 "/>
   <path class="fil1" d="M9843 4288c1482,0 2878,578 3930,1630 1046,1046 1624,2442 1624,3925 0,1482 -578,2878 -1624,3930 -1052,1046 -2448,1624 -3930,1624 -1483,0 -2879,-578 -3931,-1624 -1046,-1052 -1624,-2448 -1624,-3930 0,-1483 578,-2879 1624,-3925 1052,-1052 2448,-1630 3931,-1630zm-506 8214c0,-177 -147,-324 -324,-324 -178,0 -328,143 -328,324 0,186 146,324 328,324 181,0 324,-142 324,-324zm1922 0c0,178 143,324 324,324 186,0 324,-135 324,-324 0,-181 -142,-324 -324,-324 -177,0 -324,147 -324,324zm2073 -4300l-807 3281 -4701 0c-290,-1826 -355,-2146 -641,-3972l-1162 0 0 -332 1456 0 169 1023 5686 0zm-5632 343l5192 0 -637 2595 -4138 0 -417 -2595zm3212 3957c0,371 297,668 671,668 378,0 672,-293 672,-668 0,-374 -297,-671 -672,-671 -366,0 -671,301 -671,671zm-1228 0c0,-370 -305,-671 -671,-671 -367,0 -676,297 -676,671 0,375 305,668 676,668 374,0 671,-297 671,-668zm-3526 1025c984,985 2294,1526 3685,1526 1390,0 2700,-541 3684,-1526 985,-984 1526,-2294 1526,-3684 0,-1391 -541,-2701 -1526,-3685 -984,-985 -2294,-1526 -3684,-1526 -1391,0 -2701,541 -3685,1526 -985,984 -1526,2294 -1526,3685 0,1390 541,2700 1526,3684z"/>
  </g>
 </g>
</svg>
