<?xml version="1.0" encoding="UTF-8"?>
<!DOCTYPE svg PUBLIC "-//W3C//DTD SVG 1.1//EN" "http://www.w3.org/Graphics/SVG/1.1/DTD/svg11.dtd">
<!-- Creator: CorelDRAW X7 -->
<svg xmlns="http://www.w3.org/2000/svg" xml:space="preserve" width="1.9685in" height="1.9685in" version="1.1" style="shape-rendering:geometricPrecision; text-rendering:geometricPrecision; image-rendering:optimizeQuality; fill-rule:evenodd; clip-rule:evenodd"
viewBox="0 0 19685 19685"
 xmlns:xlink="http://www.w3.org/1999/xlink">
 <defs>
  <style type="text/css">
   <![CDATA[
    .fil0 {fill:none}
    .fil1 {fill:black}
   ]]>
  </style>
 </defs>
 <g id="Layer_x0020_1">
  <metadata id="CorelCorpID_0Corel-Layer"/>
  <g id="_2125128648928">
   <rect class="fil0" transform="matrix(5.0932E-014 -1.92308 1.92308 5.0932E-014 0.0754978 19685)" width="10236" height="10236"/>
   <path class="fil1" d="M9669 12691l0 -5033 -1888 1888 -246 -246 2308 -2308 2309 2308 -246 246 -1890 -1888 0 5033 -347 0zm173 2707c-1484,0 -2880,-576 -3930,-1627 -1048,-1050 -1627,-2444 -1625,-3928 0,-1485 577,-2879 1627,-3929 1048,-1050 2444,-1627 3928,-1627 1485,0 2881,577 3929,1627 1051,1050 1627,2444 1627,3929 2,1484 -576,2878 -1625,3928 -1050,1051 -2446,1627 -3931,1627zm0 -10765c-1392,0 -2700,542 -3684,1525 -983,984 -1525,2292 -1525,3685 0,1392 542,2700 1525,3682 984,985 2292,1527 3684,1527 1393,0 2701,-542 3685,-1527 983,-982 1525,-2290 1525,-3682 0,-1393 -542,-2701 -1525,-3685 -984,-983 -2292,-1525 -3685,-1525z"/>
  </g>
 </g>
</svg>
