<?xml version="1.0" encoding="UTF-8"?>
<!DOCTYPE svg PUBLIC "-//W3C//DTD SVG 1.1//EN" "http://www.w3.org/Graphics/SVG/1.1/DTD/svg11.dtd">
<!-- Creator: CorelDRAW X7 -->
<svg xmlns="http://www.w3.org/2000/svg" xml:space="preserve" width="1.9685in" height="1.9685in" version="1.1" style="shape-rendering:geometricPrecision; text-rendering:geometricPrecision; image-rendering:optimizeQuality; fill-rule:evenodd; clip-rule:evenodd"
viewBox="0 0 19685 19685"
 xmlns:xlink="http://www.w3.org/1999/xlink">
 <defs>
  <style type="text/css">
   <![CDATA[
    .fil0 {fill:none}
    .fil1 {fill:black;fill-rule:nonzero}
   ]]>
  </style>
 </defs>
 <g id="Layer_x0020_1">
  <metadata id="CorelCorpID_0Corel-Layer"/>
  <g id="_1883863140448">
   <rect class="fil0" width="19685" height="19685"/>
   <path class="fil1" d="M9842 7325c-669,0 -1276,271 -1717,712 -440,440 -713,1048 -713,1719 0,552 184,1060 494,1467 319,420 769,731 1288,875l127 37 0 131 0 475 1043 0 0 -475 0 -131 126 -37c520,-144 970,-455 1289,-875 309,-407 494,-915 494,-1467 0,-671 -273,-1279 -713,-1719 -439,-441 -1047,-712 -1718,-712l0 0zm2824 5498l246 -244 -614 -613 -244 246 612 611 0 0zm-5891 -244l244 244 614 -611 -246 -246 -612 613 0 0zm-1098 -2998l0 348 865 0 0 -348 -865 0zm1342 -2894l-244 246 612 611 246 -244 -614 -613 0 0zm2997 -1098l-347 0 0 867 347 0 0 -867zm2896 1344l-246 -246 -612 613 244 244 614 -611 0 0zm-6998 -1019c-1050,1050 -1627,2444 -1627,3928 0,1485 577,2881 1627,3931 1050,1048 2444,1627 3928,1625 1485,0 2879,-577 3929,-1627 1050,-1048 1627,-2444 1627,-3929 2,-1484 -577,-2878 -1625,-3928 -1050,-1050 -2446,-1627 -3931,-1627 -1484,0 -2878,577 -3928,1627zm9138 3928c0,1393 -542,2701 -1525,3685 -984,983 -2292,1525 -3685,1525 -1392,0 -2700,-542 -3682,-1525 -985,-984 -1527,-2292 -1527,-3685 2,-1390 542,-2700 1527,-3682 982,-985 2292,-1527 3682,-1527 1393,0 2701,542 3685,1527 983,982 1525,2290 1525,3682zm-6190 -1067c261,-261 611,-408 980,-408l0 -348c-461,0 -900,183 -1226,510 -326,327 -508,764 -508,1227l346 0c0,-371 146,-719 408,-981l0 0zm4281 806l865 0 0 348 -865 0 0 -348zm-3822 3506l0 661 1043 0 0 -661 -1043 0zm-1442 -5296c504,-502 1198,-814 1963,-814 766,0 1462,312 1964,814 504,503 815,1198 815,1965 0,629 -211,1211 -567,1679 -336,442 -804,781 -1342,959l0 1529 0 173 -175 0 -1389 0 -173 0 0 -173 0 -1529c-540,-178 -1008,-517 -1344,-959 -356,-467 -567,-1050 -567,-1679 0,-767 311,-1462 815,-1965l0 0z"/>
  </g>
 </g>
</svg>
