<?xml version="1.0" encoding="UTF-8"?>
<!DOCTYPE svg PUBLIC "-//W3C//DTD SVG 1.1//EN" "http://www.w3.org/Graphics/SVG/1.1/DTD/svg11.dtd">
<!-- Creator: CorelDRAW X7 -->
<svg xmlns="http://www.w3.org/2000/svg" xml:space="preserve" width="1.9685in" height="1.9685in" version="1.1" style="shape-rendering:geometricPrecision; text-rendering:geometricPrecision; image-rendering:optimizeQuality; fill-rule:evenodd; clip-rule:evenodd"
viewBox="0 0 19685 19685"
 xmlns:xlink="http://www.w3.org/1999/xlink">
 <defs>
  <style type="text/css">
   <![CDATA[
    .fil0 {fill:none}
    .fil1 {fill:black}
   ]]>
  </style>
 </defs>
 <g id="Layer_x0020_1">
  <metadata id="CorelCorpID_0Corel-Layer"/>
  <g id="_1885453299104">
   <rect class="fil0" width="19685" height="19685"/>
   <path class="fil1" d="M9843 4288c-1483,0 -2879,578 -3931,1624 -1046,1052 -1624,2448 -1624,3931 0,1482 578,2878 1624,3930 1052,1046 2448,1624 3931,1624 1482,0 2878,-578 3930,-1624 1046,-1052 1624,-2448 1624,-3930 0,-1483 -578,-2879 -1624,-3931 -1052,-1046 -2448,-1624 -3930,-1624zm1476 3561c0,812 -664,1477 -1476,1477 -812,0 -1477,-665 -1477,-1477 0,-812 665,-1476 1477,-1476 812,0 1476,664 1476,1476zm-3297 0c0,1003 812,1821 1821,1821 1002,0 1820,-818 1820,-1821 0,-1002 -818,-1820 -1820,-1820 -1009,0 -1821,818 -1821,1820zm1821 2172c-1631,0 -2953,1323 -2953,2953l0 1162c-259,-178 -505,-381 -732,-609 -985,-984 -1526,-2294 -1526,-3685 0,-1390 541,-2700 1526,-3684 984,-985 2294,-1526 3685,-1526 1390,0 2700,541 3684,1526 985,984 1526,2294 1526,3684 0,1391 -541,2701 -1526,3685 -227,228 -473,431 -732,609l0 -1162c0,-1630 -1322,-2953 -2952,-2953zm-2603 4337l0 -1384c0,-1440 1169,-2609 2603,-2609 1433,0 2602,1169 2602,2609l0 1384c-782,449 -1674,695 -2602,695 -929,0 -1821,-246 -2603,-695z"/>
  </g>
 </g>
</svg>
