<?xml version="1.0" encoding="UTF-8"?>
<!DOCTYPE svg PUBLIC "-//W3C//DTD SVG 1.1//EN" "http://www.w3.org/Graphics/SVG/1.1/DTD/svg11.dtd">
<!-- Creator: CorelDRAW X7 -->
<svg xmlns="http://www.w3.org/2000/svg" xml:space="preserve" width="100%" height="100%" version="1.1" style="shape-rendering:geometricPrecision; text-rendering:geometricPrecision; image-rendering:optimizeQuality; fill-rule:evenodd; clip-rule:evenodd"
viewBox="0 0 433 433"
 xmlns:xlink="http://www.w3.org/1999/xlink">
 <defs>
  <style type="text/css">
   <![CDATA[
    .fil0 {fill:#D2AE6D;fill-rule:nonzero}
    .fil2 {fill:#DABA7F;fill-rule:nonzero}
    .fil1 {fill:#E1C292;fill-rule:nonzero}
    .fil3 {fill:#F4DDB5;fill-rule:nonzero}
   ]]>
  </style>
 </defs>
 <g id="Layer_x0020_1">
  <metadata id="CorelCorpID_0Corel-Layer"/>
  <g id="_2425970697712">
   <path class="fil0" d="M260 268l0 -10c0,-8 7,-15 15,-15 8,0 14,6 14,15l0 10c0,7 -6,15 -14,14 -8,0 -15,-6 -15,-14z"/>
   <path class="fil1" d="M433 217c0,120 -97,217 -217,217 -119,0 -216,-97 -216,-217 0,-120 97,-218 216,-218 120,0 217,98 217,218z"/>
   <path class="fil2" d="M49 355c-31,-38 -49,-86 -49,-138 0,-120 97,-218 216,-218 67,0 127,31 167,79 0,0 -164,-63 -265,38 -100,101 -69,239 -69,239z"/>
   <path class="fil0" d="M202 120l10 0c13,0 13,19 0,19l-10 0c-13,0 -13,-19 0,-19z"/>
   <path class="fil0" d="M306 358c-3,-3 -7,-7 -10,-10 -9,-9 5,-23 14,-14 3,3 6,7 10,10 9,9 -5,23 -14,14z"/>
   <path class="fil0" d="M283 190c25,0 25,40 0,40 -26,0 -26,-40 0,-40z"/>
   <path class="fil3" d="M162 301c25,0 25,39 0,39 -26,0 -26,-39 0,-39z"/>
  </g>
 </g>
</svg>
