<?xml version="1.0" encoding="UTF-8"?>
<!DOCTYPE svg PUBLIC "-//W3C//DTD SVG 1.1//EN" "http://www.w3.org/Graphics/SVG/1.1/DTD/svg11.dtd">
<!-- Creator: CorelDRAW X7 -->
<svg xmlns="http://www.w3.org/2000/svg" xml:space="preserve" width="100%" height="100%" version="1.1" style="shape-rendering:geometricPrecision; text-rendering:geometricPrecision; image-rendering:optimizeQuality; fill-rule:evenodd; clip-rule:evenodd"
viewBox="0 0 2709 1524"
 xmlns:xlink="http://www.w3.org/1999/xlink">
 <defs>
  <style type="text/css">
   <![CDATA[
    .fil13 {fill:#D2AE6D}
    .fil1 {fill:#D2AE6D}
    .fil0 {fill:#FCE9CA}
    .fil14 {fill:white}
    .fil11 {fill:#E4F4F9;fill-rule:nonzero}
    .fil12 {fill:#B5E4FA;fill-rule:nonzero}
    .fil10 {fill:#A4DBDD;fill-rule:nonzero}
    .fil4 {fill:#92BBD0;fill-rule:nonzero}
    .fil15 {fill:#79C9F0;fill-rule:nonzero}
    .fil2 {fill:#8480BC;fill-rule:nonzero}
    .fil17 {fill:#6DABDD;fill-rule:nonzero}
    .fil8 {fill:#2195CA;fill-rule:nonzero}
    .fil3 {fill:#5C56A2;fill-rule:nonzero}
    .fil6 {fill:#4A458F;fill-rule:nonzero}
    .fil5 {fill:#D2AE6D;fill-rule:nonzero}
    .fil7 {fill:#DFB990;fill-rule:nonzero}
    .fil9 {fill:#F0F0F1;fill-rule:nonzero}
    .fil16 {fill:white;fill-rule:nonzero}
   ]]>
  </style>
 </defs>
 <g id="Layer_x0020_1">
  <metadata id="CorelCorpID_0Corel-Layer"/>
  <g id="_2098580253184">
   <rect class="fil0" x="1185" width="1524" height="1247"/>
   <rect class="fil1" x="1267" y="750" width="226" height="421"/>
   <path class="fil2" d="M2444 408c-74,193 -175,357 -302,489 -101,106 -219,190 -350,251 -214,100 -392,103 -413,103 -1,0 -2,0 -2,0l1 -68 0 -68c2,0 166,0 362,-93 262,-124 456,-347 577,-662l63 24 64 24z"/>
   <path class="fil3" d="M2380 384c-309,808 -1002,799 -1002,799l0 -68c2,0 166,0 362,-93 262,-124 456,-347 577,-662l63 24z"/>
   <polygon class="fil2" points="2420,264 2283,374 2460,436 "/>
   <polygon class="fil3" points="2283,374 2384,369 2420,264 "/>
   <path class="fil4" d="M1848 1129c4,-3 37,16 39,16 3,0 7,-44 7,-44 0,0 -7,-3 -4,-6 2,-3 23,-13 23,-13 0,0 -5,14 -16,20 0,0 9,45 1,54 -8,8 -79,-9 -50,-27z"/>
   <path class="fil5" d="M1867 1121c-5,5 -15,6 -15,6l3 16c0,0 9,-7 20,-6l-8 -16z"/>
   <path class="fil6" d="M1785 1178c0,0 81,-12 85,-6 4,7 -21,69 -21,69l16 6 -28 0 8 -51c0,0 -53,24 -65,6 -13,-19 5,-24 5,-24z"/>
   <path class="fil4" d="M1794 1192l0 0c2,3 40,45 36,53 -4,8 -89,-6 -89,-6l8 8c-34,0 -22,-21 -22,-21l59 2c0,0 -14,-9 -29,-22 0,0 -15,-17 2,-36 5,-6 13,-12 25,-18 54,-25 66,-33 74,-23 9,10 -21,55 -64,63z"/>
   <path class="fil7" d="M1876 1104c8,-4 20,-2 23,6 4,11 -5,16 -2,19 0,1 3,4 3,4l-4 1 -2 4c0,0 -9,-5 -10,0 -2,6 7,4 7,4 0,0 0,8 -5,8 -4,-1 -37,-32 -10,-46z"/>
   <path class="fil8" d="M1880 1124l3 -1c0,0 0,-3 3,-4 4,-2 6,-5 5,-9l9 3c0,0 4,0 6,-4 0,0 -6,0 -8,-4 -2,-4 -16,-11 -24,-1 0,0 -11,1 -9,17l5 4 3 0c0,0 -2,-4 2,-6 4,-2 5,5 5,5z"/>
   <path class="fil9" d="M1850 1125l8 -4c0,0 4,10 4,19l-8 8c0,0 -1,-15 -4,-23z"/>
   <path class="fil5" d="M1854 1115l6 -3c0,0 11,-11 13,-11l3 1c0,0 1,-3 3,-2l-13 19 -10 2c0,0 -9,-1 -2,-6z"/>
   <path class="fil10" d="M1866 1119c0,0 -9,69 -19,68 -26,-1 -18,-61 -5,-60 14,1 -1,36 -1,36l16 -42 9 -2z"/>
   <path class="fil10" d="M1841 1163c0,0 -4,6 -3,13 0,0 -6,-25 9,-28 0,0 -4,13 -6,15z"/>
   <path class="fil3" d="M1830 1245c-4,8 -89,-6 -89,-6l8 8c-34,0 -22,-21 -22,-21l59 2c0,0 -14,-9 -29,-22 0,0 -15,-17 2,-36 0,0 10,18 35,22l0 0c2,3 40,45 36,53z"/>
   <path class="fil5" d="M2082 992c0,0 -12,7 -10,19l-17 0c0,0 5,-10 5,-16 0,0 19,-4 22,-3z"/>
   <path class="fil10" d="M2036 1015c0,0 -24,43 -26,41 -3,-2 2,-34 2,-34l-9 6c0,0 -14,44 4,48 18,4 23,-19 33,-28l-4 -33z"/>
   <path class="fil4" d="M2036 1015c11,-9 48,-15 56,-9 5,4 -24,93 -24,93 0,0 -40,13 -43,1 -3,-11 3,-78 11,-85z"/>
   <path class="fil6" d="M2068 1099c0,0 37,72 39,83 2,11 -19,61 -19,61l11 4 -28 0c0,0 18,-49 13,-61 -5,-13 -30,-53 -38,-52 -8,1 -15,0 -19,5 -4,6 -35,48 -35,53 0,5 6,55 6,55l-25 0 14 -7c0,0 -11,-44 -12,-58 -1,-13 50,-82 50,-82l43 -1z"/>
   <path class="fil10" d="M2049 1009l4 3 8 -7 5 7 11 -8c0,0 -12,-7 -28,5z"/>
   <path class="fil5" d="M2003 1028c0,0 -7,0 -5,-5 2,-4 8,-6 8,-6 0,0 10,-9 13,-8 2,1 0,2 -1,4 -2,2 -4,5 -6,9 -2,3 -9,6 -9,6z"/>
   <path class="fil7" d="M2086 970c13,8 2,25 -16,29 -18,4 -16,-11 -14,-16 2,-4 13,-26 30,-13z"/>
   <path class="fil5" d="M2086 989c0,0 4,1 4,3 0,2 -10,6 -11,3 -2,-3 7,-6 7,-6z"/>
   <path class="fil8" d="M2081 978c0,0 -1,5 2,8 0,0 -3,6 -4,6l0 1c0,0 7,-4 9,-3 0,0 5,-4 5,-10l1 4c0,0 1,-3 -1,-6 0,0 3,-8 -1,-11l0 3c0,0 -10,-10 -19,-9 -8,2 -13,16 -13,16l5 -6c0,0 10,5 15,3 0,0 -2,1 -5,1 0,0 3,2 6,0 0,0 -1,3 -1,5l1 -2z"/>
   <path class="fil10" d="M2088 1005c0,0 29,-20 30,-30 0,-9 -15,-31 -15,-31l5 -5c0,0 19,21 20,38 1,18 -41,57 -41,57 0,0 -2,-20 1,-29z"/>
   <path class="fil5" d="M2103 945c0,0 -7,1 -6,-3 2,-5 7,-8 7,-8 0,0 9,-10 12,-10 2,1 0,2 -1,4 -1,3 -3,6 -4,10 -2,3 -8,7 -8,7z"/>
   <path class="fil4" d="M2209 964c0,0 -32,-21 -36,-32 -5,-10 -21,-35 -21,-35 0,0 8,-12 5,-16 0,0 -16,14 -15,17 1,3 5,3 5,3 0,0 9,31 17,41 8,10 40,43 40,43l5 -21z"/>
   <path class="fil5" d="M2215 953c-2,7 1,16 1,16l-14 5c0,0 1,-11 -4,-21l17 0z"/>
   <path class="fil7" d="M2226 938c0,-9 -7,-18 -15,-17 -12,1 -12,11 -16,10 -1,0 -5,-1 -5,-1l1 4 -2 4c0,0 6,5 4,8l-5 -6c0,0 -6,6 -3,10 2,3 40,18 41,-12z"/>
   <path class="fil8" d="M2207 943l-1 -3c0,0 2,-1 2,-5 0,-3 2,-6 6,-7l-7 -7c0,0 3,-2 8,-2 7,1 17,10 17,20 -1,7 -1,11 -16,16l-6 -3 -1 -2c0,0 4,0 4,-4 0,-5 -6,-3 -6,-3z"/>
   <path class="fil6" d="M2239 1247c0,0 -18,4 -30,2 0,0 14,-8 15,-9 -4,1 -27,-65 -29,-73 -3,-16 -3,-32 -3,-48 1,-13 1,-26 2,-40l0 0 0 0c11,-1 22,-5 29,-11 0,8 1,15 1,21 -1,29 -9,72 -9,72 0,0 6,50 24,86z"/>
   <path class="fil4" d="M2223 1045c0,3 -1,6 -1,9 0,1 0,1 0,2 0,4 2,8 2,11 -6,6 -18,11 -30,12 -2,0 -3,-1 -3,-3 1,-4 2,-8 2,-12 0,-5 0,-10 -1,-15 -1,-7 -1,-14 -1,-20 0,-13 2,-25 4,-37 5,-28 22,-27 22,-27 11,13 15,25 6,80z"/>
   <path class="fil10" d="M2219 965l-3 -5 -16 7 1 16c0,0 5,-16 18,-18z"/>
   <path class="fil5" d="M2134 912c0,0 -7,2 -6,-3 1,-4 7,-8 7,-8 0,0 7,-11 10,-11 2,0 0,2 0,4 -1,3 -3,6 -4,10 -1,4 -7,8 -7,8z"/>
   <path class="fil10" d="M2140 906l35 39c0,0 52,23 44,35 -10,16 -54,-24 -54,-24 -16,-18 -32,-42 -32,-42l7 -8z"/>
   <path class="fil4" d="M2325 988c0,0 -23,44 -15,51 9,7 46,-30 46,-30 0,0 -11,-26 -31,-21z"/>
   <path class="fil6" d="M2319 815c0,0 -22,92 -21,102 0,10 38,77 38,77l-14 12 31 -8c0,0 -32,-83 -31,-91 1,-8 26,-80 26,-80l-32 -13 3 1z"/>
   <path class="fil5" d="M2342 976c3,6 12,11 12,11l-8 14c0,0 -6,-10 -17,-13l13 -12z"/>
   <path class="fil4" d="M2358 1155c1,9 24,82 24,82l-23 12 36 0 -13 -89c0,0 13,-27 24,-46 0,0 14,-14 14,-32 0,-5 -3,-9 -8,-15 -2,-4 -5,-8 -7,-12 -10,-19 -28,-76 -57,-69 -13,3 10,59 37,98 0,1 1,1 1,2l0 0c-3,2 -28,61 -28,69z"/>
   <path class="fil5" d="M2328 957c-10,-1 -20,5 -20,13 -1,12 10,14 8,18 0,0 -2,4 -2,4l5 0 3 3c0,0 6,-8 9,-3 4,5 -5,6 -5,6 0,0 3,8 7,6 4,-2 25,-42 -5,-47z"/>
   <path class="fil8" d="M2330 977l-3 0c0,0 -1,-2 -4,-3 -4,0 -7,-2 -7,-6l-8 6c0,0 -4,1 -7,-2 0,0 6,-2 6,-6 0,-5 12,-16 23,-10 0,0 10,-2 13,14l-3 5 -2 1c0,0 0,-4 -5,-5 -4,0 -3,6 -3,6z"/>
   <path class="fil9" d="M2357 985l-6 -6c0,0 -8,8 -11,17l6 10c0,0 5,-14 11,-21z"/>
   <path class="fil6" d="M2382 1237l-23 12 36 0 -13 -89c0,0 13,-27 24,-46 0,0 14,-14 14,-32 0,-5 -3,-9 -8,-15 -6,5 -17,13 -27,17 0,1 1,1 1,2l0 0c-3,2 -28,61 -28,69 1,9 24,82 24,82z"/>
   <path class="fil10" d="M2338 1001c0,0 -13,46 -4,48 25,8 38,-51 26,-55 -14,-3 -12,34 -12,34l0 -24 -10 -3z"/>
   <path class="fil10" d="M2348 1028c0,0 2,7 -1,14 0,0 14,-22 1,-30 0,0 -1,14 0,16z"/>
   <path class="fil3" d="M2351 797c0,0 9,16 8,41 -1,24 -12,68 -12,68l15 82 -20 13 6 -18c0,0 -26,-77 -23,-93 10,-57 -6,-73 -6,-73l32 -20z"/>
   <path class="fil5" d="M2336 693c0,0 -9,10 -4,21l-16 6c0,0 2,-12 -1,-17 0,0 17,-10 21,-10z"/>
   <path class="fil10" d="M2299 730c0,0 -17,50 -20,50 -10,-2 -30,-4 -30,-4l-7 7c0,0 15,8 33,10 18,2 21,-22 30,-31l-6 -32z"/>
   <path class="fil4" d="M2299 730c7,-13 41,-30 50,-26 6,2 7,95 7,95 0,0 -34,25 -40,15 -6,-10 -22,-76 -17,-84z"/>
   <path class="fil10" d="M2310 720l5 1 5 -9 7 6 8 -12c0,0 -14,-2 -25,14z"/>
   <path class="fil5" d="M2250 781c0,0 1,-7 -4,-6 -5,1 -8,7 -8,7 0,0 -10,9 -9,12 0,2 1,0 3,-1 3,-1 6,-3 10,-4 4,-2 8,-8 8,-8z"/>
   <path class="fil7" d="M2333 670c14,5 9,24 -7,34 -16,9 -18,-6 -18,-11 1,-5 4,-29 25,-23z"/>
   <path class="fil5" d="M2338 689c0,0 5,0 5,2 0,1 -8,8 -10,6 -2,-2 5,-8 5,-8z"/>
   <path class="fil10" d="M2345 703c0,0 22,-28 19,-37 -3,-9 -24,-25 -24,-25l3 -7c0,0 25,14 31,31 7,16 -20,67 -20,67 0,0 -9,-19 -9,-29z"/>
   <path class="fil5" d="M2341 642c0,0 -7,3 -7,-1 0,-5 4,-10 4,-10 0,0 5,-12 8,-13 2,0 1,1 1,4 0,2 -1,6 -1,10 -1,4 -5,10 -5,10z"/>
   <path class="fil8" d="M2322 674c2,0 1,10 3,11 3,1 6,2 6,2l0 9c0,0 6,-7 10,-7 0,0 4,-12 -3,-16 0,0 1,-8 -7,-8 -7,-1 -23,3 -23,14l2 5c0,0 4,-9 7,-8 3,0 5,-2 5,-2z"/>
   <path class="fil7" d="M2338 1001c0,0 -1,-13 2,-15 4,-3 5,-4 8,-3 2,1 4,9 4,9l5 0c0,0 1,4 -4,4 -4,0 -7,8 -7,8 0,0 -4,2 -8,-3z"/>
   <polygon class="fil11" points="2709,1247 2709,1524 1185,1524 1185,1247 "/>
   <polygon class="fil12" points="0,1524 1224,1524 1377,1247 0,1247 "/>
   <path class="fil12" d="M2453 1418c6,-4 12,-14 -9,-38 -33,-38 -205,-133 -205,-133l-30 0 139 97 18 27c-50,-24 -110,-47 -184,-67l-69 -33 -14 -24 -28 0 15 14 -57 0 -31 -14 -25 0 40 14 2 7c-54,-9 -114,-16 -179,-21l-459 0 -43 78c0,0 845,-36 995,199l243 0c0,0 -30,-49 -119,-106z"/>
   <polygon class="fil12" points="2683,1524 2395,1247 2364,1247 2510,1382 2610,1524 "/>
   <g>
    <circle class="fil13" cx="1707" cy="488" r="129"/>
    <path class="fil14" d="M1731 525l0 24 -97 0 0 -24 97 0zm-97 -73l0 -25c49,0 97,0 146,0l-24 25c-41,0 -81,0 -122,0zm146 24c0,24 0,49 0,73l-24 0 0 -49 0 0 -122 0 0 -24c49,0 97,0 146,0z"/>
   </g>
   <circle class="fil13" cx="1401" cy="280" r="184"/>
   <polygon class="fil15" points="1378,1247 0,1247 0,0 1378,0 "/>
   <path class="fil16" d="M1244 208c0,8 6,12 12,12 3,0 6,-1 8,-3l0 -11 -9 0 0 5 4 0 0 4c0,0 -1,0 -2,0 -5,0 -7,-2 -7,-7 0,-5 3,-8 6,-8 2,0 3,1 5,2l3 -4c-2,-1 -4,-3 -8,-3 -6,0 -12,5 -12,13zm35 12c6,0 10,-5 10,-12 0,-8 -4,-13 -10,-13 -7,0 -11,5 -11,13 0,7 4,12 11,12zm0 -5c-4,0 -6,-3 -6,-7 0,-5 2,-8 6,-8 3,0 5,3 5,8 0,4 -2,7 -5,7zm19 -5l1 -2c1,-3 1,-6 2,-8l0 0c1,2 1,5 2,8l1 2 -6 0zm8 10l6 0 -8 -24 -6 0 -8 24 6 0 1 -6 8 0 1 6zm8 0l15 0 0 -5 -9 0 0 -19 -6 0 0 24z"/>
   <polygon class="fil16" points="1378,210 1340,210 1340,201 1378,201 "/>
   <polygon class="fil16" points="1378,251 1359,251 1359,241 1378,241 "/>
   <polygon class="fil16" points="1378,291 1340,291 1340,282 1378,282 "/>
   <polygon class="fil16" points="1378,331 1359,331 1359,322 1378,322 "/>
   <polygon class="fil16" points="1378,371 1340,371 1340,362 1378,362 "/>
   <polygon class="fil16" points="1378,411 1359,411 1359,402 1378,402 "/>
   <polygon class="fil16" points="1378,451 1340,451 1340,442 1378,442 "/>
   <polygon class="fil16" points="1378,491 1359,491 1359,482 1378,482 "/>
   <polygon class="fil16" points="1378,531 1340,531 1340,522 1378,522 "/>
   <polygon class="fil16" points="1378,572 1359,572 1359,562 1378,562 "/>
   <polygon class="fil16" points="1378,612 1340,612 1340,603 1378,603 "/>
   <polygon class="fil16" points="1378,652 1359,652 1359,643 1378,643 "/>
   <polygon class="fil16" points="1378,692 1340,692 1340,683 1378,683 "/>
   <polygon class="fil16" points="1378,732 1359,732 1359,723 1378,723 "/>
   <polygon class="fil16" points="1378,772 1340,772 1340,763 1378,763 "/>
   <polygon class="fil16" points="1378,812 1359,812 1359,803 1378,803 "/>
   <polygon class="fil16" points="1378,852 1340,852 1340,843 1378,843 "/>
   <polygon class="fil16" points="1378,893 1359,893 1359,883 1378,883 "/>
   <polygon class="fil16" points="1378,933 1340,933 1340,924 1378,924 "/>
   <polygon class="fil16" points="1378,973 1359,973 1359,964 1378,964 "/>
   <polygon class="fil16" points="1378,1013 1340,1013 1340,1004 1378,1004 "/>
   <polygon class="fil16" points="1378,1053 1359,1053 1359,1044 1378,1044 "/>
   <polygon class="fil16" points="1378,1093 1340,1093 1340,1084 1378,1084 "/>
   <polygon class="fil16" points="1378,1133 1359,1133 1359,1124 1378,1124 "/>
   <polygon class="fil16" points="1378,1174 1340,1174 1340,1164 1378,1164 "/>
   <polygon class="fil16" points="1378,1214 1359,1214 1359,1204 1378,1204 "/>
   <path class="fil17" d="M928 1017c-26,0 -47,-10 -63,-31 -14,-19 -21,-42 -20,-69 0,-20 4,-39 14,-56 11,-18 26,-31 45,-40l19 38c-24,12 -36,32 -36,59 0,15 3,28 10,39 8,12 18,18 31,18l98 0c13,0 23,-6 31,-18 6,-11 10,-24 10,-39 0,-28 -12,-47 -35,-59l17 -38c20,9 35,22 45,41 10,17 15,35 15,56 0,27 -6,49 -20,68 -16,21 -37,31 -63,31l-98 0zm179 -476l0 52 -101 78 0 31 101 0 0 43 -260 0 0 -101c0,-27 6,-48 19,-64 13,-17 34,-26 62,-27 45,0 71,23 77,69l102 -81zm-138 103c0,-32 -14,-48 -41,-48 -26,0 -39,16 -38,48l0 58 79 0 0 -58zm138 -218l0 43 -260 0 0 -48 169 -71 -169 -73 0 -47 260 0 0 42 -119 0 -71 -8 0 4 61 22 93 43 0 33 -93 43 -62 21 0 4 72 -8 119 0z"/>
  </g>
 </g>
</svg>
