<?xml version="1.0" encoding="UTF-8"?>
<!DOCTYPE svg PUBLIC "-//W3C//DTD SVG 1.1//EN" "http://www.w3.org/Graphics/SVG/1.1/DTD/svg11.dtd">
<!-- Creator: CorelDRAW X7 -->
<svg xmlns="http://www.w3.org/2000/svg" xml:space="preserve" width="100%" height="100%" version="1.1" style="shape-rendering:geometricPrecision; text-rendering:geometricPrecision; image-rendering:optimizeQuality; fill-rule:evenodd; clip-rule:evenodd"
viewBox="0 0 4087 1524"
 xmlns:xlink="http://www.w3.org/1999/xlink">
 <defs>
  <style type="text/css">
   <![CDATA[
    .fil13 {fill:#D2AE6D}
    .fil18 {fill:#74B5E3}
    .fil1 {fill:#D2AE6D}
    .fil0 {fill:#FCE9CA}
    .fil14 {fill:white}
    .fil11 {fill:#E4F4F9;fill-rule:nonzero}
    .fil12 {fill:#B5E4FA;fill-rule:nonzero}
    .fil10 {fill:#A4DBDD;fill-rule:nonzero}
    .fil4 {fill:#92BBD0;fill-rule:nonzero}
    .fil15 {fill:#79C9F0;fill-rule:nonzero}
    .fil2 {fill:#8480BC;fill-rule:nonzero}
    .fil17 {fill:#6DABDD;fill-rule:nonzero}
    .fil8 {fill:#2195CA;fill-rule:nonzero}
    .fil3 {fill:#5C56A2;fill-rule:nonzero}
    .fil6 {fill:#4A458F;fill-rule:nonzero}
    .fil5 {fill:#D2AE6D;fill-rule:nonzero}
    .fil7 {fill:#DFB990;fill-rule:nonzero}
    .fil9 {fill:#F0F0F1;fill-rule:nonzero}
    .fil16 {fill:white;fill-rule:nonzero}
   ]]>
  </style>
 </defs>
 <g id="Layer_x0020_1">
  <metadata id="CorelCorpID_0Corel-Layer"/>
  <g id="_1697552385872">
   <rect class="fil0" x="2563" width="1524" height="1247"/>
   <rect class="fil1" x="2645" y="750" width="226" height="421"/>
   <path class="fil2" d="M3822 408c-74,193 -176,357 -302,489 -102,106 -220,190 -351,251 -214,100 -391,103 -413,103 -1,0 -1,0 -2,0l1 -68 1 -68c1,0 165,0 362,-93 262,-124 456,-347 576,-662l64 24 64 24z"/>
   <path class="fil3" d="M3758 384c-309,808 -1003,799 -1003,799l1 -68c1,0 165,0 362,-93 262,-124 456,-347 576,-662l64 24z"/>
   <polygon class="fil2" points="3798,264 3660,374 3837,436 "/>
   <polygon class="fil3" points="3660,374 3761,369 3798,264 "/>
   <path class="fil4" d="M3225 1129c4,-3 38,16 40,16 3,0 6,-44 6,-44 0,0 -6,-3 -4,-6 3,-3 24,-13 24,-13 0,0 -5,14 -16,20 0,0 9,45 1,54 -8,8 -79,-9 -51,-27z"/>
   <path class="fil5" d="M3244 1121c-4,5 -14,6 -14,6l2 16c0,0 9,-7 21,-6l-9 -16z"/>
   <path class="fil6" d="M3162 1178c0,0 81,-12 85,-6 4,7 -21,69 -21,69l17 6 -28 0 8 -51c0,0 -53,24 -66,6 -12,-19 5,-24 5,-24z"/>
   <path class="fil4" d="M3172 1192l0 0c2,3 39,45 36,53 -4,8 -89,-6 -89,-6l8 8c-34,0 -22,-21 -22,-21l59 2c0,0 -14,-9 -29,-22 0,0 -16,-17 1,-36 5,-6 13,-12 26,-18 53,-25 66,-33 74,-23 8,10 -21,55 -64,63z"/>
   <path class="fil7" d="M3253 1104c9,-4 20,-2 23,6 5,11 -4,16 -2,19 1,1 4,4 4,4l-5 1 -2 4c0,0 -8,-5 -10,0 -1,6 7,4 7,4 0,0 0,8 -4,8 -4,-1 -37,-32 -11,-46z"/>
   <path class="fil8" d="M3258 1124l2 -1c0,0 1,-3 4,-4 4,-2 5,-5 4,-9l10 3c0,0 4,0 5,-4 0,0 -6,0 -7,-4 -2,-4 -17,-11 -25,-1 0,0 -10,1 -8,17l5 4 2 0c0,0 -2,-4 3,-6 4,-2 5,5 5,5z"/>
   <path class="fil9" d="M3228 1125l7 -4c0,0 5,10 5,19l-9 8c0,0 0,-15 -3,-23z"/>
   <path class="fil5" d="M3231 1115l7 -3c0,0 11,-11 13,-11l2 1c0,0 2,-3 4,-2l-14 19 -9 2c0,0 -10,-1 -3,-6z"/>
   <path class="fil10" d="M3243 1119c0,0 -9,69 -19,68 -26,-1 -17,-61 -4,-60 14,1 -1,36 -1,36l16 -42 8 -2z"/>
   <path class="fil10" d="M3219 1163c0,0 -5,6 -4,13 0,0 -6,-25 10,-28 0,0 -4,13 -6,15z"/>
   <path class="fil3" d="M3208 1245c-4,8 -89,-6 -89,-6l8 8c-34,0 -22,-21 -22,-21l59 2c0,0 -14,-9 -29,-22 0,0 -16,-17 1,-36 0,0 11,18 36,22l0 0c2,3 39,45 36,53z"/>
   <path class="fil5" d="M3460 992c0,0 -12,7 -11,19l-16 0c0,0 5,-10 4,-16 0,0 20,-4 23,-3z"/>
   <path class="fil10" d="M3413 1015c0,0 -23,43 -26,41 -2,-2 2,-34 2,-34l-9 6c0,0 -14,44 4,48 18,4 24,-19 34,-28l-5 -33z"/>
   <path class="fil4" d="M3413 1015c11,-9 48,-15 56,-9 5,4 -23,93 -23,93 0,0 -41,13 -43,1 -3,-11 2,-78 10,-85z"/>
   <path class="fil6" d="M3446 1099c0,0 37,72 39,83 2,11 -20,61 -20,61l11 4 -27 0c0,0 18,-49 13,-61 -5,-13 -30,-53 -38,-52 -9,1 -16,0 -20,5 -3,6 -35,48 -35,53 0,5 7,55 7,55l-26 0 14 -7c0,0 -11,-44 -11,-58 -1,-13 50,-82 50,-82l43 -1z"/>
   <path class="fil10" d="M3427 1009l4 3 8 -7 4 7 12 -8c0,0 -13,-7 -28,5z"/>
   <path class="fil5" d="M3380 1028c0,0 -7,0 -5,-5 2,-4 9,-6 9,-6 0,0 10,-9 12,-8 3,1 1,2 -1,4 -1,2 -4,5 -6,9 -2,3 -9,6 -9,6z"/>
   <path class="fil7" d="M3464 970c12,8 2,25 -16,29 -19,4 -16,-11 -14,-16 2,-4 13,-26 30,-13z"/>
   <path class="fil5" d="M3463 989c0,0 5,1 5,3 -1,2 -10,6 -12,3 -1,-3 7,-6 7,-6z"/>
   <path class="fil8" d="M3459 978c0,0 -2,5 1,8 0,0 -2,6 -4,6l0 1c0,0 7,-4 9,-3 0,0 5,-4 6,-10l1 4c0,0 1,-3 -2,-6 0,0 3,-8 -1,-11l0 3c0,0 -10,-10 -18,-9 -8,2 -14,16 -14,16l5 -6c0,0 10,5 15,3 0,0 -2,1 -4,1 0,0 3,2 5,0 0,0 -1,3 -1,5l2 -2z"/>
   <path class="fil10" d="M3465 1005c0,0 30,-20 30,-30 0,-9 -15,-31 -15,-31l5 -5c0,0 19,21 21,38 1,18 -41,57 -41,57 0,0 -2,-20 0,-29z"/>
   <path class="fil5" d="M3481 945c0,0 -8,1 -6,-3 1,-5 7,-8 7,-8 0,0 9,-10 11,-10 3,1 1,2 0,4 -1,3 -3,6 -5,10 -1,3 -7,7 -7,7z"/>
   <path class="fil4" d="M3587 964c0,0 -32,-21 -37,-32 -4,-10 -20,-35 -20,-35 0,0 7,-12 5,-16 0,0 -17,14 -16,17 2,3 5,3 5,3 0,0 10,31 18,41 8,10 40,43 40,43l5 -21z"/>
   <path class="fil5" d="M3593 953c-2,7 1,16 1,16l-15 5c0,0 2,-11 -3,-21l17 0z"/>
   <path class="fil7" d="M3603 938c1,-9 -7,-18 -15,-17 -11,1 -12,11 -15,10 -1,0 -5,-1 -5,-1l1 4 -3 4c0,0 7,5 4,8l-4 -6c0,0 -6,6 -4,10 2,3 41,18 41,-12z"/>
   <path class="fil8" d="M3584 943l0 -3c0,0 2,-1 2,-5 0,-3 2,-6 6,-7l-7 -7c0,0 3,-2 7,-2 8,1 18,10 17,20 0,7 -1,11 -16,16l-5 -3 -1 -2c0,0 4,0 4,-4 0,-5 -7,-3 -7,-3z"/>
   <path class="fil6" d="M3617 1247c0,0 -19,4 -31,2 0,0 14,-8 15,-9 -3,1 -27,-65 -28,-73 -4,-16 -3,-32 -3,-48 0,-13 1,-26 1,-40l0 0 0 0c12,-1 23,-5 29,-11 1,8 1,15 1,21 0,29 -9,72 -9,72 0,0 6,50 25,86z"/>
   <path class="fil4" d="M3601 1045c-1,3 -1,6 -1,9 0,1 0,1 0,2 0,4 2,8 2,11 -6,6 -18,11 -31,12 -1,0 -3,-1 -2,-3 0,-4 2,-8 2,-12 0,-5 -1,-10 -1,-15 -1,-7 -2,-14 -2,-20 0,-13 2,-25 5,-37 5,-28 22,-27 22,-27 11,13 14,25 6,80z"/>
   <path class="fil10" d="M3596 965l-2 -5 -16 7 1 16c0,0 5,-16 17,-18z"/>
   <path class="fil5" d="M3512 912c0,0 -7,2 -6,-3 1,-4 6,-8 6,-8 0,0 8,-11 10,-11 3,0 1,2 0,4 0,3 -2,6 -3,10 -1,4 -7,8 -7,8z"/>
   <path class="fil10" d="M3518 906l34 39c0,0 52,23 45,35 -10,16 -55,-24 -55,-24 -16,-18 -31,-42 -31,-42l7 -8z"/>
   <path class="fil4" d="M3702 988c0,0 -23,44 -14,51 8,7 46,-30 46,-30 0,0 -11,-26 -32,-21z"/>
   <path class="fil6" d="M3697 815c0,0 -22,92 -22,102 1,10 38,77 38,77l-13 12 31 -8c0,0 -32,-83 -31,-91 1,-8 26,-80 26,-80l-32 -13 3 1z"/>
   <path class="fil5" d="M3720 976c3,6 12,11 12,11l-8 14c0,0 -6,-10 -17,-13l13 -12z"/>
   <path class="fil4" d="M3736 1155c1,9 23,82 23,82l-22 12 35 0 -13 -89c0,0 13,-27 24,-46 0,0 15,-14 15,-32 0,-5 -4,-9 -8,-15 -2,-4 -5,-8 -8,-12 -9,-19 -27,-76 -57,-69 -12,3 11,59 37,98 1,1 1,1 2,2l0 0c-3,2 -29,61 -28,69z"/>
   <path class="fil5" d="M3706 957c-10,-1 -20,5 -21,13 0,12 11,14 9,18 0,0 -2,4 -2,4l4 0 4 3c0,0 6,-8 9,-3 3,5 -5,6 -5,6 0,0 3,8 7,6 3,-2 24,-42 -5,-47z"/>
   <path class="fil8" d="M3708 977l-3 0c0,0 -1,-2 -5,-3 -4,0 -7,-2 -6,-6l-9 6c0,0 -4,1 -6,-2 0,0 5,-2 6,-6 0,-5 11,-16 22,-10 0,0 11,-2 14,14l-3 5 -3 1c0,0 1,-4 -4,-5 -5,0 -3,6 -3,6z"/>
   <path class="fil9" d="M3734 985l-5 -6c0,0 -8,8 -11,17l5 10c0,0 6,-14 11,-21z"/>
   <path class="fil6" d="M3759 1237l-22 12 35 0 -13 -89c0,0 13,-27 24,-46 0,0 15,-14 15,-32 0,-5 -4,-9 -8,-15 -7,5 -17,13 -28,17 1,1 1,1 2,2l0 0c-3,2 -29,61 -28,69 1,9 23,82 23,82z"/>
   <path class="fil10" d="M3715 1001c0,0 -13,46 -3,48 25,8 38,-51 25,-55 -14,-3 -12,34 -12,34l0 -24 -10 -3z"/>
   <path class="fil10" d="M3725 1028c0,0 3,7 -1,14 0,0 15,-22 1,-30 0,0 0,14 0,16z"/>
   <path class="fil3" d="M3729 797c0,0 9,16 8,41 -1,24 -12,68 -12,68l15 82 -21 13 6 -18c0,0 -25,-77 -23,-93 10,-57 -5,-73 -5,-73l32 -20z"/>
   <path class="fil5" d="M3713 693c0,0 -9,10 -4,21l-15 6c0,0 1,-12 -1,-17 0,0 17,-10 20,-10z"/>
   <path class="fil10" d="M3676 730c0,0 -17,50 -19,50 -10,-2 -31,-4 -31,-4l-7 7c0,0 15,8 33,10 19,2 22,-22 31,-31l-7 -32z"/>
   <path class="fil4" d="M3676 730c8,-13 41,-30 51,-26 6,2 7,95 7,95 0,0 -34,25 -40,15 -7,-10 -23,-76 -18,-84z"/>
   <path class="fil10" d="M3688 720l4 1 5 -9 7 6 8 -12c0,0 -14,-2 -24,14z"/>
   <path class="fil5" d="M3627 781c0,0 1,-7 -3,-6 -5,1 -8,7 -8,7 0,0 -10,9 -10,12 0,2 2,0 4,-1 3,-1 6,-3 10,-4 3,-2 7,-8 7,-8z"/>
   <path class="fil7" d="M3710 670c15,5 10,24 -6,34 -16,9 -18,-6 -18,-11 0,-5 4,-29 24,-23z"/>
   <path class="fil5" d="M3715 689c0,0 5,0 6,2 0,1 -8,8 -10,6 -2,-2 4,-8 4,-8z"/>
   <path class="fil10" d="M3723 703c0,0 21,-28 18,-37 -2,-9 -24,-25 -24,-25l3 -7c0,0 25,14 32,31 7,16 -20,67 -20,67 0,0 -9,-19 -9,-29z"/>
   <path class="fil5" d="M3718 642c0,0 -6,3 -7,-1 0,-5 5,-10 5,-10 0,0 5,-12 8,-13 2,0 0,1 0,4 0,2 -1,6 -1,10 0,4 -5,10 -5,10z"/>
   <path class="fil8" d="M3700 674c2,0 1,10 3,11 3,1 6,2 6,2l0 9c0,0 6,-7 10,-7 0,0 3,-12 -3,-16 0,0 0,-8 -7,-8 -7,-1 -23,3 -23,14l2 5c0,0 3,-9 6,-8 3,0 6,-2 6,-2z"/>
   <path class="fil7" d="M3715 1001c0,0 -1,-13 3,-15 3,-3 5,-4 7,-3 3,1 4,9 4,9l5 0c0,0 1,4 -3,4 -5,0 -8,8 -8,8 0,0 -3,2 -8,-3z"/>
   <polygon class="fil11" points="4087,1247 4087,1524 2563,1524 2563,1247 "/>
   <path class="fil12" d="M2602 1524l152 -277c-918,0 -1835,0 -2753,0l-1 277c867,0 1735,0 2602,0z"/>
   <path class="fil12" d="M3830 1418c7,-4 12,-14 -8,-38 -34,-38 -205,-133 -205,-133l-31 0 139 97 18 27c-49,-24 -110,-47 -183,-67l-69 -33 -15 -24 -27 0 15 14 -58 0 -30 -14 -26 0 40 14 3 7c-55,-9 -115,-16 -180,-21l-459 0 -43 78c0,0 846,-36 996,199l242 0c0,0 -29,-49 -119,-106z"/>
   <polygon class="fil12" points="4060,1524 3772,1247 3742,1247 3888,1382 3988,1524 "/>
   <g>
    <circle class="fil13" transform="matrix(-7.69202E-015 -0.290434 -0.290435 7.69205E-015 3084.57 488.092)" r="443"/>
    <path class="fil14" d="M3024 488l0 73 24 0 0 -73 -24 0zm97 73l24 0c0,-49 0,-97 0,-146l-24 0c0,41 0,105 0,146zm-49 -121l0 0 0 0 0 10 0 111 25 0 0 -121 -25 0z"/>
   </g>
   <circle class="fil13" cx="2779" cy="280" r="184"/>
   <polygon class="fil15" points="2755,1247 1378,1247 0,1247 0,0 1378,0 2755,0 "/>
   <g>
    <path class="fil16" d="M2622 208c0,8 5,12 12,12 3,0 6,-1 8,-3l0 -11 -9 0 0 5 4 0 0 4c-1,0 -2,0 -3,0 -4,0 -6,-2 -6,-7 0,-5 2,-8 6,-8 2,0 3,1 4,2l3 -4c-1,-1 -4,-3 -7,-3 -7,0 -12,5 -12,13zm34 12c7,0 11,-5 11,-12 0,-8 -4,-13 -11,-13 -6,0 -11,5 -11,13 0,7 5,12 11,12zm0 -5c-3,0 -5,-3 -5,-7 0,-5 2,-8 5,-8 3,0 5,3 5,8 0,4 -2,7 -5,7zm20 -5l1 -2c0,-3 1,-6 2,-8l0 0c0,2 1,5 2,8l0 2 -5 0zm8 10l5 0 -7 -24 -6 0 -8 24 5 0 2 -6 7 0 2 6zm8 0l15 0 0 -5 -10 0 0 -19 -5 0 0 24z"/>
    <polygon class="fil16" points="2755,210 2718,210 2718,201 2755,201 "/>
    <polygon class="fil16" points="2755,251 2737,251 2737,241 2755,241 "/>
    <polygon class="fil16" points="2755,291 2718,291 2718,282 2755,282 "/>
    <polygon class="fil16" points="2755,331 2737,331 2737,322 2755,322 "/>
    <polygon class="fil16" points="2755,371 2718,371 2718,362 2755,362 "/>
    <polygon class="fil16" points="2755,411 2737,411 2737,402 2755,402 "/>
    <polygon class="fil16" points="2755,451 2718,451 2718,442 2755,442 "/>
    <polygon class="fil16" points="2755,491 2737,491 2737,482 2755,482 "/>
    <polygon class="fil16" points="2755,531 2718,531 2718,522 2755,522 "/>
    <polygon class="fil16" points="2755,572 2737,572 2737,562 2755,562 "/>
    <polygon class="fil16" points="2755,612 2718,612 2718,603 2755,603 "/>
    <polygon class="fil16" points="2755,652 2737,652 2737,643 2755,643 "/>
    <polygon class="fil16" points="2755,692 2718,692 2718,683 2755,683 "/>
    <polygon class="fil16" points="2755,732 2737,732 2737,723 2755,723 "/>
    <polygon class="fil16" points="2755,772 2718,772 2718,763 2755,763 "/>
    <polygon class="fil16" points="2755,812 2737,812 2737,803 2755,803 "/>
    <polygon class="fil16" points="2755,852 2718,852 2718,843 2755,843 "/>
    <polygon class="fil16" points="2755,893 2737,893 2737,883 2755,883 "/>
    <polygon class="fil16" points="2755,933 2718,933 2718,924 2755,924 "/>
    <polygon class="fil16" points="2755,973 2737,973 2737,964 2755,964 "/>
    <polygon class="fil16" points="2755,1013 2718,1013 2718,1004 2755,1004 "/>
    <polygon class="fil16" points="2755,1053 2737,1053 2737,1044 2755,1044 "/>
    <polygon class="fil16" points="2755,1093 2718,1093 2718,1084 2755,1084 "/>
    <polygon class="fil16" points="2755,1133 2737,1133 2737,1124 2755,1124 "/>
    <polygon class="fil16" points="2755,1174 2718,1174 2718,1164 2755,1164 "/>
    <polygon class="fil16" points="2755,1214 2737,1214 2737,1204 2755,1204 "/>
   </g>
   <path class="fil17" d="M2306 1017c-26,0 -47,-10 -63,-31 -14,-19 -21,-42 -21,-69 0,-20 5,-39 15,-56 11,-18 25,-31 44,-40l19 38c-23,12 -35,32 -35,59 0,15 3,28 10,39 8,12 18,18 31,18l97 0c13,0 24,-6 31,-18 7,-11 10,-24 11,-39 0,-28 -12,-47 -36,-59l18 -38c19,9 34,22 45,41 10,17 15,35 15,56 0,27 -7,49 -21,68 -15,21 -36,31 -63,31l-97 0zm179 -476l0 52 -101 78 0 31 101 0 0 43 -260 0 0 -101c0,-27 6,-48 18,-64 14,-17 35,-26 62,-27 45,0 71,23 78,69l102 -81zm-138 103c0,-32 -14,-48 -42,-48 -26,0 -38,16 -38,48l0 58 80 0 0 -58zm138 -218l0 43 -260 0 0 -48 169 -71 -169 -73 0 -47 260 0 0 42 -120 0 -70 -8 0 4 61 22 93 43 0 33 -93 43 -62 21 0 4 72 -8 119 0z"/>
   <path class="fil18" d="M1102 196c236,0 428,191 428,427 0,237 -192,428 -428,428 -236,0 -428,-191 -428,-428 0,-236 192,-427 428,-427zm81 548l0 81 -323 0 0 -81 323 0zm-323 -242l0 -80c161,0 323,0 484,0l-81 80c-134,0 -269,0 -403,0zm484 81c0,81 0,161 0,242l-81 0 0 -161 0 0 -403 0 0 -81c161,0 323,0 484,0z"/>
  </g>
 </g>
</svg>
