<?xml version="1.0" encoding="UTF-8"?>
<!DOCTYPE svg PUBLIC "-//W3C//DTD SVG 1.1//EN" "http://www.w3.org/Graphics/SVG/1.1/DTD/svg11.dtd">
<!-- Creator: CorelDRAW X7 -->
<svg xmlns="http://www.w3.org/2000/svg" xml:space="preserve" width="100%" height="100%" version="1.1" style="shape-rendering:geometricPrecision; text-rendering:geometricPrecision; image-rendering:optimizeQuality; fill-rule:evenodd; clip-rule:evenodd"
viewBox="0 0 154 154"
 xmlns:xlink="http://www.w3.org/1999/xlink">
 <defs>
  <style type="text/css">
   <![CDATA[
    .fil0 {fill:#8480BC}
    .fil1 {fill:#FEFEFE}
   ]]>
  </style>
 </defs>
 <g id="Layer_x0020_1">
  <metadata id="CorelCorpID_0Corel-Layer"/>
  <g id="_2524399189696">
   <g id="_2516806988912">
   </g>
   <g id="_2516806989200">
   </g>
   <g id="_2516806989296">
   </g>
   <g id="_2516806988880">
   </g>
   <g id="_2516806988400">
   </g>
   <g id="_2516806988048">
   </g>
   <g id="_2516806987152">
   </g>
   <g id="_2516806987632">
   </g>
   <g id="_2516806987664">
   </g>
   <g id="_2516806985872">
   </g>
   <g id="_2516806986448">
   </g>
   <g id="_2516806986032">
   </g>
   <g id="_2516806987216">
   </g>
   <g id="_2516806984880">
   </g>
   <g id="_2516806985168">
   </g>
   <g id="_2516806984208">
    <path class="fil0" d="M154 77c0,43 -34,77 -77,77 -42,0 -77,-34 -77,-77 0,-42 35,-77 77,-77 43,0 77,35 77,77z"/>
    <path class="fil1" d="M58 40c-15,-10 -21,-8 -21,-8 -5,11 -2,19 -1,21 -5,5 -8,12 -8,20 0,30 18,37 35,38 -2,2 -4,6 -5,11 -4,2 -15,5 -22,-7 0,0 -4,-7 -12,-8 0,0 -8,0 -1,5 0,0 5,2 9,11 0,0 4,15 26,11 0,6 0,11 0,13 0,2 -1,3 -3,4 7,2 14,3 22,3 8,0 15,-1 22,-3 -2,0 -3,-2 -3,-4 0,-3 0,-11 0,-21 0,-7 -2,-12 -5,-15 17,-1 35,-8 35,-38 0,-8 -3,-15 -8,-20 1,-2 4,-10 -1,-21 0,0 -6,-2 -21,8 -6,-2 -12,-3 -19,-3 -7,0 -13,1 -19,3l0 0z"/>
   </g>
  </g>
 </g>
</svg>
