<?xml version="1.0" encoding="UTF-8"?>
<!DOCTYPE svg PUBLIC "-//W3C//DTD SVG 1.1//EN" "http://www.w3.org/Graphics/SVG/1.1/DTD/svg11.dtd">
<!-- Creator: CorelDRAW X7 -->
<svg xmlns="http://www.w3.org/2000/svg" xml:space="preserve" width="100%" height="100%" version="1.1" style="shape-rendering:geometricPrecision; text-rendering:geometricPrecision; image-rendering:optimizeQuality; fill-rule:evenodd; clip-rule:evenodd"
viewBox="0 0 154 154"
 xmlns:xlink="http://www.w3.org/1999/xlink">
 <defs>
  <style type="text/css">
   <![CDATA[
    .fil0 {fill:#8480BC}
    .fil1 {fill:white}
   ]]>
  </style>
 </defs>
 <g id="Layer_x0020_1">
  <metadata id="CorelCorpID_0Corel-Layer"/>
  <g id="_2098955189264">
   <path class="fil0" d="M154 77c0,43 -34,77 -77,77 -42,0 -77,-34 -77,-77 0,-42 35,-77 77,-77 43,0 77,35 77,77z"/>
   <path class="fil1" d="M123 83l0 32 -18 0 0 -30c0,-7 -3,-12 -10,-12 -5,0 -8,3 -9,7 -1,1 -1,2 -1,4l0 31 -18 0c0,0 0,-50 0,-55l18 0 0 7c0,1 0,1 0,1l0 0 0 -1c3,-3 7,-9 17,-9 12,0 21,8 21,25zm-75 -50c-7,0 -11,4 -11,10 0,5 4,9 10,9l0 0c7,0 11,-4 11,-9 0,-6 -4,-10 -10,-10zm-10 82l19 0 0 -55 -19 0 0 55z"/>
  </g>
 </g>
</svg>
