<?xml version="1.0" encoding="UTF-8"?>
<!DOCTYPE svg PUBLIC "-//W3C//DTD SVG 1.1//EN" "http://www.w3.org/Graphics/SVG/1.1/DTD/svg11.dtd">
<!-- Creator: CorelDRAW X7 -->
<svg xmlns="http://www.w3.org/2000/svg" xml:space="preserve" width="100%" height="100%" version="1.1" style="shape-rendering:geometricPrecision; text-rendering:geometricPrecision; image-rendering:optimizeQuality; fill-rule:evenodd; clip-rule:evenodd"
viewBox="0 0 1863 970"
 xmlns:xlink="http://www.w3.org/1999/xlink">
 <defs>
  <style type="text/css">
   <![CDATA[
    .fil0 {fill:black}
    .fil1 {fill:black;fill-rule:nonzero}
   ]]>
  </style>
 </defs>
 <g id="Layer_x0020_1">
  <metadata id="CorelCorpID_0Corel-Layer"/>
  <g id="_1882189474512">
   <path class="fil0" d="M1738 846l-1457 0 0 25 1482 0 0 -591 -25 0 0 566zm-1613 -156l0 -566 1457 0 0 -25 -1483 0 0 591 26 0z"/>
   <path class="fil0" d="M143 747l0 87c0,86 27,131 82,136l0 -47c-20,-8 -30,-26 -30,-54l30 0 0 -122 -82 0z"/>
   <path class="fil0" d="M0 747l0 87c0,86 27,131 81,136l0 -47c-19,-8 -29,-26 -29,-54l29 0 0 -122 -81 0z"/>
   <path class="fil0" d="M1720 224l0 -88c0,-86 -28,-131 -82,-136l0 47c20,8 30,26 30,55l-30 0 0 122 82 0z"/>
   <path class="fil0" d="M1863 224l0 -88c0,-86 -27,-131 -82,-136l0 47c20,8 30,26 30,55l-30 0 0 122 82 0z"/>
   <path class="fil1" d="M343 308l-44 0c-3,0 -6,0 -8,0 -1,-1 -3,-1 -4,-2 -1,-1 -2,-2 -2,-3 -1,-2 -1,-3 -1,-5l0 -11 6 0 0 9c0,1 0,2 0,3 1,1 1,2 2,2 1,1 2,1 4,1 1,0 3,0 5,0l36 0 0 -21 6 0 0 27zm437 394l0 -51 -6 0 0 51 6 0zm-261 -6l4 0c1,0 2,0 3,0 1,0 2,0 2,-1 1,0 1,0 2,-1 0,-1 0,-2 0,-3l0 -17 6 0 0 14c0,2 0,3 0,4 0,1 1,1 1,2 1,1 1,1 2,2 1,0 2,0 3,0 2,0 3,1 3,3 0,1 0,2 0,3 -1,0 -2,0 -3,0 -2,0 -3,0 -4,-1 -1,-1 -2,-2 -3,-3 -1,2 -2,3 -4,3 -2,1 -4,1 -7,1l-5 0 -1 0 0 0 0 0c-2,0 -3,0 -5,-1 -1,-1 -2,-2 -4,-4 0,1 -1,2 -2,3 -1,1 -2,1 -3,2 -1,0 -2,0 -3,0 -1,0 -2,0 -3,0l-11 0 0 -6 13 0c2,0 3,0 4,0 1,-1 2,-2 2,-3 0,-1 0,-1 -1,-2 0,-1 -1,-2 -2,-3l-7 -12 5 -3 9 14c1,2 2,3 3,4 0,2 1,2 2,3 0,1 1,1 2,2 0,0 1,0 1,0l0 0 0 0 1 0zm5 17c0,-1 1,-2 1,-2 1,-1 2,-2 3,-2 1,0 2,1 3,2 1,0 1,1 1,2 0,1 -1,2 -1,3 -1,1 -2,1 -3,1 -1,0 -2,0 -3,-1 0,-1 -1,-2 -1,-3zm10 0c0,-1 0,-2 1,-2 1,-1 1,-2 3,-2 1,0 1,1 2,2 1,0 1,1 1,2 0,1 0,2 -1,3 -1,1 -1,1 -2,1 -2,0 -2,0 -3,-1 -1,-1 -1,-2 -1,-3zm8 -11c-2,0 -3,-1 -3,-3 0,-1 1,-2 1,-2 0,0 1,-1 2,-1l12 0c-1,0 -1,-1 -2,-3 0,-1 0,-2 0,-4 0,-3 0,-5 2,-7 1,-2 3,-4 5,-5 -1,0 -2,0 -3,0 -1,0 -2,0 -3,0l0 -5c5,0 10,0 14,1 4,0 8,2 11,4 3,2 5,4 7,8 1,3 2,7 2,12l0 5 -45 0zm21 -6c1,0 2,0 2,0 1,-1 1,-2 2,-2 0,-1 1,-2 1,-3 0,-1 0,-1 0,-2 0,-1 0,-2 0,-3 -1,-1 -1,-2 -1,-3 -1,-1 -1,-1 -2,-2 -1,0 -2,0 -3,0 -1,0 -3,0 -3,2 -1,1 -2,3 -2,6 0,1 0,2 0,2 1,1 1,2 1,3 1,1 1,1 2,2 0,0 1,0 2,0l1 0zm18 0c0,-5 -1,-9 -3,-12 -3,-2 -5,-4 -9,-6 1,1 1,2 2,3 0,1 1,1 1,2 1,1 1,2 1,3 0,1 0,2 0,2 0,2 0,4 0,5 -1,1 -1,3 -2,3l10 0zm20 -45l0 51 -5 0 0 -51 5 0zm36 51c0,3 0,6 -2,8 -1,2 -2,3 -4,4 -2,2 -4,2 -6,3 -3,0 -6,1 -9,1l-3 0 0 -6 3 0c2,0 4,-1 6,-1 2,0 3,0 5,-1 1,-1 2,-2 3,-3 1,-1 1,-3 1,-5l-8 0c-2,0 -4,0 -5,0 -2,-1 -3,-1 -5,-2 -1,-1 -2,-3 -3,-4 0,-2 -1,-4 -1,-6 0,-2 1,-4 1,-6 1,-2 2,-4 3,-5 1,-2 3,-3 5,-4 1,-1 3,-1 6,-1 2,0 4,0 6,1 2,1 3,3 4,4 1,2 2,4 3,6 0,2 0,5 0,8l0 3 6 0c2,0 2,1 2,3 0,1 0,2 0,3 -1,0 -1,0 -2,0l-6 0zm-22 -13c0,3 1,4 2,6 2,1 4,1 7,1l7 0 0 -4c0,-4 0,-7 -1,-9 -2,-2 -4,-3 -7,-3 -1,0 -2,0 -3,1 -1,0 -2,1 -3,2 -1,1 -1,2 -1,3 -1,1 -1,2 -1,3zm57 7c0,-3 -1,-5 -2,-7 0,-3 -1,-4 -3,-6 -1,-1 -3,-2 -5,-3 -2,0 -4,-1 -6,-1 -1,0 -3,1 -4,1 -2,0 -3,0 -4,1l0 -6c1,0 2,-1 4,-1 1,0 3,-1 5,-1 4,0 7,1 10,2 2,2 4,3 6,5 2,3 3,5 4,8 1,3 1,6 1,9l0 5 -35 0c-2,0 -3,-1 -3,-3 0,-1 0,-2 0,-2 1,0 2,-1 3,-1l29 0zm-18 -34c0,-1 0,-2 1,-3 1,0 1,-1 3,-1 1,0 2,1 2,1 1,1 1,2 1,3 0,1 0,2 -1,3 0,1 -1,1 -2,1 -2,0 -2,0 -3,-1 -1,-1 -1,-2 -1,-3zm49 21c0,2 0,4 2,5 1,2 3,2 6,2 1,0 2,0 3,0 1,0 3,-1 4,-1l0 -13 -7 0c-2,0 -4,1 -6,2 -1,1 -2,3 -2,5zm7 13c-1,0 -2,0 -4,0 -1,0 -3,-1 -4,-2 -2,-1 -3,-2 -4,-4 -1,-1 -1,-3 -1,-6 0,-3 0,-5 1,-7 1,-1 2,-3 4,-4 1,-1 3,-2 5,-2 1,-1 3,-1 5,-1l12 0 0 21c0,2 0,3 0,4 1,1 3,1 5,1l1 0c2,0 3,1 3,3 0,1 0,2 0,3 -1,0 -2,0 -3,0l-2 0c-1,0 -3,0 -4,0 -1,0 -2,-1 -3,-1 -1,-1 -1,-1 -2,-2 -1,-1 -1,-2 -1,-4 -1,0 -3,1 -4,1 -1,0 -2,0 -4,0zm50 0c0,-3 -1,-5 -2,-7 0,-3 -2,-4 -3,-6 -1,-1 -3,-2 -5,-3 -2,0 -4,-1 -6,-1 -1,0 -3,1 -4,1 -2,0 -3,0 -4,1l0 -6c1,0 2,-1 4,-1 1,0 3,-1 5,-1 4,0 7,1 9,2 3,2 5,3 7,5 2,3 3,5 4,8 0,3 1,6 1,9l0 5 -36 0c-1,0 -2,-1 -2,-3 0,-1 0,-2 0,-2 1,0 1,-1 2,-1l30 0zm-14 17c0,-1 0,-2 1,-2 1,-1 1,-2 2,-2 2,0 2,1 3,2 1,0 1,1 1,2 0,1 0,2 -1,3 -1,1 -1,1 -3,1 -1,0 -1,0 -2,-1 -1,-1 -1,-2 -1,-3zm70 -11c0,3 -1,6 -2,8 -1,2 -2,3 -4,4 -2,2 -4,2 -6,3 -3,0 -6,1 -9,1l-3 0 0 -6 2 0c3,0 5,-1 7,-1 2,0 3,0 5,-1 1,-1 2,-2 3,-3 1,-1 1,-3 1,-5l-8 0c-2,0 -4,0 -5,0 -2,-1 -4,-1 -5,-2 -1,-1 -2,-3 -3,-4 0,-2 -1,-4 -1,-6 0,-2 0,-4 1,-6 1,-2 2,-4 3,-5 1,-2 3,-3 5,-4 1,-1 3,-1 6,-1 2,0 4,0 6,1 2,1 3,3 4,4 1,2 2,4 3,6 0,2 0,5 0,8l0 3 5 0c2,0 3,1 3,3 0,1 0,2 0,3 -1,0 -2,0 -3,0l-5 0zm-22 -13c0,3 1,4 2,6 2,1 4,1 6,1l8 0 0 -4c0,-4 0,-7 -2,-9 -1,-2 -3,-3 -6,-3 -1,0 -2,0 -3,1 -2,0 -2,1 -3,2 -1,1 -1,2 -2,3 0,1 0,2 0,3zm27 13c-2,0 -3,-1 -3,-3 0,-1 1,-2 1,-2 1,0 1,-1 2,-1l3 0c1,0 2,0 2,0 1,0 1,0 2,-1 1,0 1,-1 2,-2 1,-1 1,-2 2,-3 1,-3 2,-6 3,-8 1,-2 3,-3 4,-4 1,-1 3,-2 4,-2 1,-1 3,-1 4,-1 2,0 3,1 5,1 2,1 3,2 4,3 1,2 2,3 3,5 0,2 1,4 1,6 0,4 -1,7 -3,10 -2,2 -5,3 -10,3 -2,0 -4,0 -7,-1 -2,-1 -4,-2 -7,-4 0,1 -1,2 -2,2 0,1 -1,1 -2,2 0,0 -1,0 -2,0 -1,0 -2,0 -2,0l-4 0zm33 -12c0,-2 -1,-3 -1,-4 0,-1 -1,-2 -1,-2 -1,-1 -2,-2 -2,-2 -1,-1 -2,-1 -3,-1 -3,0 -4,1 -6,3 -2,2 -3,5 -5,9 2,1 4,2 5,3 2,1 4,1 6,1 2,0 4,0 5,-2 1,-1 2,-3 2,-5zm-98 -256l10 0 1 0 0 0 2 0c2,0 3,0 4,0 1,-1 2,-1 3,-1 0,0 1,-1 1,-2 0,0 1,-1 1,-3l0 -13 6 0 0 11c0,1 0,2 0,3 0,1 0,2 1,3 0,0 1,1 2,1 1,1 3,1 4,1 1,0 2,0 3,0 1,-1 1,-1 2,-1 0,0 1,-1 1,-2 0,0 1,-1 1,-3l0 -13 5 0 0 11c0,1 1,2 1,3 0,1 0,2 1,3 0,0 1,1 2,1 1,1 2,1 3,1 1,0 2,0 3,0 0,-1 1,-1 1,-1 1,0 1,-1 2,-2 0,0 0,-1 0,-3l0 -16 6 0 0 14c0,1 0,2 0,3 0,1 1,2 1,3 1,0 1,1 2,1 1,1 2,1 3,1 2,0 3,1 3,3 0,1 0,2 -1,2 0,1 -1,1 -2,1 -2,0 -3,-1 -4,-2 -2,-1 -2,-2 -3,-3 0,1 -1,2 -1,2 -1,1 -2,2 -3,2 -1,0 -2,0 -3,1 0,0 -1,0 -2,0 -1,0 -3,0 -4,-1 -1,0 -2,0 -2,-1 -1,0 -2,-1 -2,-1 -1,-1 -1,-1 -1,-2 -1,2 -2,3 -4,4 -2,0 -4,1 -7,1 -1,0 -3,0 -4,-1 -1,0 -2,0 -3,-1 0,0 -1,-1 -1,-1 -1,-1 -1,-1 -2,-2 0,1 -1,2 -1,2 -1,1 -2,1 -3,2 -1,0 -2,0 -4,1 -1,0 -3,0 -5,0l-2 0 0 0 -1 0 -10 0 0 0 0 0 0 0 0 0 -1 0 0 0c-1,0 -3,-1 -4,-2 -1,-1 -2,-2 -2,-3 -1,1 -1,2 -2,2 -1,1 -2,2 -3,2 -1,0 -2,0 -4,1 -1,0 -3,0 -5,0l-30 0c-2,0 -5,0 -7,-1 -2,0 -3,-1 -4,-2 -1,-1 -2,-2 -3,-3 0,-1 0,-3 0,-5l0 -11 6 0 0 9c0,1 0,3 0,4 1,0 1,1 2,2 1,0 2,0 4,1 1,0 3,0 5,0l27 0c1,0 3,0 4,0 1,-1 2,-1 3,-1 0,0 1,-1 1,-2 0,0 0,-1 0,-3l0 -16 6 0 0 14c0,1 1,2 1,3 0,1 0,2 1,3 0,0 1,1 2,1 0,1 1,1 3,1l0 0 0 0 0 0 0 0 0 0zm72 6c-2,0 -3,-1 -3,-3 0,-1 1,-2 1,-3 1,0 1,0 2,0l18 0c1,0 3,-1 4,-1 1,-1 2,-2 2,-4 0,-1 -1,-3 -2,-4 -1,-2 -3,-3 -5,-5 -2,-2 -4,-3 -6,-5 -3,-2 -6,-3 -8,-4 0,-1 0,-2 0,-2 1,-1 1,-1 1,-2 0,0 1,-1 1,-1 0,-1 1,-1 1,-1l26 -12 0 6 -21 10c3,2 6,4 9,5 2,2 4,4 5,6 2,2 3,3 4,5 0,2 1,3 1,5 0,1 0,2 -1,3 0,1 -1,2 -2,3 0,1 -2,2 -3,3 -2,0 -4,1 -6,1l-18 0zm-479 131c-2,0 -3,0 -5,-1 -1,-1 -2,-2 -2,-4 0,1 -1,2 -2,3 0,0 -1,1 -2,1 -2,1 -3,1 -4,1 -2,0 -4,0 -6,0l-29 0c-3,0 -6,0 -8,-1 -1,0 -3,-1 -4,-1 -1,-1 -2,-2 -2,-4 -1,-1 -1,-3 -1,-5l0 -11 6 0 0 9c0,2 0,3 0,4 1,1 1,1 2,2 1,0 2,1 4,1 1,0 3,0 5,0l27 0c2,0 3,0 4,0 1,0 2,0 3,-1 0,0 1,-1 1,-1 0,-1 1,-2 1,-3l0 -17 6 0 0 14c0,1 0,2 0,3 0,1 0,2 1,3 0,1 1,1 2,1 1,1 2,1 3,1 2,0 3,1 3,3 0,1 0,2 -1,2 0,1 -1,1 -2,1zm-44 -36c0,-1 0,-2 1,-3 1,0 2,-1 3,-1 1,0 2,1 2,1 1,1 2,2 2,3 0,1 -1,2 -2,3 0,1 -1,1 -2,1 -1,0 -2,0 -3,-1 -1,-1 -1,-2 -1,-3zm9 0c0,-1 1,-2 1,-3 1,0 2,-1 3,-1 1,0 2,1 3,1 1,1 1,2 1,3 0,1 0,2 -1,3 -1,1 -2,1 -3,1 -1,0 -2,0 -3,-1 0,-1 -1,-2 -1,-3zm35 36c-2,0 -3,-1 -3,-3 0,-1 0,-2 1,-2 0,-1 1,-1 2,-1l10 0 1 0 0 0 10 0 0 0 1 0 10 0 0 0 0 0 11 0 0 0 0 0 11 0 0 0 0 0c22,0 6,0 28,0 2,0 3,0 4,0 1,0 2,0 3,-1 0,0 1,-1 1,-1 0,-1 1,-2 1,-3l0 -13 5 0 0 10c0,1 1,2 1,3 0,1 0,2 1,3 0,1 1,1 2,1 1,1 2,1 4,1 1,0 2,0 3,0 1,0 1,0 2,-1 0,0 1,-1 1,-1 0,-1 0,-2 0,-3l0 -13 6 0 0 10c0,1 0,2 1,3 0,1 0,2 1,3 0,1 1,1 2,1 1,1 2,1 3,1 1,0 2,0 3,0 0,0 1,0 1,-1 1,0 1,-1 1,-1 1,-1 1,-2 1,-3l0 -17 6 0 0 14c0,1 0,2 0,3 0,1 1,2 1,3 0,1 1,1 2,1 1,1 2,1 3,1 2,0 3,1 3,3 0,1 0,2 -1,2 0,1 -1,1 -2,1 -2,0 -3,0 -4,-1 -2,-1 -2,-2 -3,-4 0,1 -1,2 -2,3 0,0 -1,1 -2,1 -1,1 -2,1 -3,1 0,0 -1,0 -2,0 -1,0 -3,0 -4,0 -1,-1 -2,-1 -3,-2 0,0 -1,0 -1,-1 -1,-1 -1,-1 -1,-2 -1,2 -2,4 -4,4 -2,1 -4,1 -7,1 -1,0 -3,0 -4,0 -1,-1 -2,-1 -3,-1 -1,-1 -1,-1 -2,-2 0,-1 0,-1 -1,-2 0,1 -1,2 -1,3 -1,0 -2,1 -3,1 -1,1 -2,1 -4,1 -1,0 -3,0 -5,0 -22,0 -6,0 -28,0l0 0 0 0 -11 0 0 0 0 0 -11 0 0 0 0 0 -10 0 -1 0 0 0 -10 0 0 0 -1 0 -10 0zm141 0c-2,0 -3,-1 -3,-3 0,-1 0,-2 1,-2 0,-1 1,-1 2,-1l29 0c3,0 5,0 6,-1 1,-1 2,-2 2,-4 0,-1 -1,-2 -2,-4 -1,-2 -3,-3 -4,-5 -2,-2 -5,-3 -7,-5 -3,-1 -5,-3 -8,-4 0,-1 0,-1 0,-2 0,-1 0,-1 0,-2 1,0 1,-1 1,-1 0,-1 1,-1 1,-1l27 -12 0 6 -21 10c5,3 9,5 12,8 3,3 5,6 6,9 1,2 1,3 2,4 0,1 1,2 1,3 1,0 2,1 2,1 1,0 2,0 3,0 2,0 3,1 3,3 0,1 -1,2 -1,2 0,1 -1,1 -2,1 -1,0 -2,0 -3,0 -1,0 -2,0 -2,-1 -1,0 -2,-1 -2,-2 -1,0 -2,-1 -2,-3l-1 0c-1,3 -2,4 -4,5 -2,1 -5,1 -8,1l-28 0zm52 -6c2,0 30,0 31,0 1,0 2,0 2,-1 1,0 2,-1 2,-1 0,-1 0,-2 0,-3l0 -13 6 0 0 10c0,1 0,2 0,3 1,1 1,2 1,3 1,1 2,1 3,1 1,1 2,1 4,1 1,0 2,0 3,0 0,0 1,0 2,-1 0,0 0,-1 1,-1 0,-1 0,-2 0,-3l0 -13 6 0 0 10c0,1 0,2 0,3 1,1 1,2 1,3 1,1 1,1 2,1 1,1 2,1 3,1l6 0 0 -22 6 0 0 28 -12 0c-2,0 -3,0 -4,-1 -1,-1 -2,-2 -2,-4 -1,2 -3,4 -5,4 -1,1 -4,1 -6,1 -2,0 -3,0 -4,0 -2,-1 -2,-1 -3,-1 -1,-1 -1,-1 -2,-2 0,-1 -1,-1 -1,-2 0,1 -1,2 -2,3 0,0 -1,1 -2,1 -1,1 -2,1 -4,1 -1,0 -30,0 -32,0l-2 0c-2,0 -3,-1 -3,-3 0,-1 0,-2 1,-2 0,-1 1,-1 2,-1l2 0zm49 -34c0,-1 0,-2 1,-3 1,-1 2,-1 3,-1 1,0 2,0 3,1 0,1 1,2 1,3 0,1 -1,2 -1,3 -1,0 -2,1 -3,1 -1,0 -2,-1 -3,-1 -1,-1 -1,-2 -1,-3zm9 0c0,-1 1,-2 2,-3 0,-1 1,-1 2,-1 1,0 2,0 3,1 1,1 1,2 1,3 0,1 0,2 -1,3 -1,0 -2,1 -3,1 -1,0 -2,-1 -2,-1 -1,-1 -2,-2 -2,-3zm-4 -9c0,-1 0,-2 1,-3 1,0 2,-1 3,-1 1,0 2,1 2,1 1,1 2,2 2,3 0,1 -1,2 -2,3 0,1 -1,1 -2,1 -1,0 -2,0 -3,-1 -1,-1 -1,-2 -1,-3zm66 46c0,1 0,2 0,2 -1,1 -2,1 -3,1l-2 0c-1,0 -3,0 -4,0 -1,-1 -2,-1 -3,-2 -1,-1 -2,-2 -2,-3 -1,-1 -1,-3 -1,-5l0 -42 6 0 0 40c0,2 0,4 1,5 1,1 2,1 4,1l1 0c2,0 3,1 3,3zm-3 3c-2,0 -3,-1 -3,-3 0,-1 1,-2 1,-2 1,-1 1,-1 2,-1l18 0 0 -22 6 0 0 28 -24 0zm16 11c0,-1 0,-2 1,-3 0,-1 1,-1 2,-1 1,0 2,0 3,1 1,1 1,2 1,3 0,1 0,2 -1,3 -1,0 -2,1 -3,1 -1,0 -2,-1 -2,-1 -1,-1 -1,-2 -1,-3zm38 -11l-8 0 0 -7c0,-3 1,-5 2,-7 1,-2 3,-4 6,-5l0 4c-1,0 -1,1 -2,1 0,1 -1,1 -1,2 -1,1 -1,1 -1,2 0,1 0,1 0,2l4 0 0 8zm43 0c-2,0 -3,0 -5,-1 -1,-1 -2,-2 -4,-5 0,2 -1,3 -2,4 -1,0 -2,1 -3,1 -1,1 -2,1 -3,1 -1,0 -2,0 -3,0l-11 0 0 -6 13 0c2,0 3,0 4,-1 1,0 2,-1 2,-2 0,-1 0,-2 -1,-3 0,-1 -1,-2 -2,-3l-7 -11 5 -4 9 15c1,1 2,3 3,4 0,1 1,2 2,3 0,1 1,1 1,1 1,1 2,1 2,1 2,0 3,1 3,3 0,1 0,2 0,2 -1,1 -2,1 -3,1zm0 0c-2,0 -3,-1 -3,-3 0,-1 1,-2 1,-2 1,-1 1,-1 2,-1l5 0c1,0 2,0 3,0 1,0 2,0 2,-1 1,0 1,-1 2,-1 0,-1 0,-2 0,-3l0 -17 6 0 0 14c0,1 0,2 0,3 0,1 1,2 1,3 1,1 1,1 2,1 1,1 2,1 3,1 2,0 3,1 3,3 0,1 0,2 -1,2 0,1 -1,1 -2,1 -2,0 -3,0 -4,-1 -1,-1 -2,-2 -3,-4 -1,2 -2,4 -4,4 -2,1 -4,1 -7,1l-6 0zm6 11c0,-1 1,-2 1,-3 1,0 2,-1 3,-1 1,0 2,1 3,1 0,1 1,2 1,3 0,1 -1,2 -1,3 -1,0 -2,1 -3,1 -1,0 -2,-1 -3,-1 0,-1 -1,-2 -1,-3zm10 0c0,-1 0,-2 1,-3 0,0 1,-1 2,-1 2,0 2,1 3,1 1,1 1,2 1,3 0,1 0,2 -1,3 -1,0 -1,1 -3,1 -1,0 -2,-1 -2,-1 -1,-1 -1,-2 -1,-3zm8 -11c-2,0 -3,-1 -3,-3 0,-1 1,-2 1,-2 0,-1 1,-1 2,-1l5 0c1,0 2,0 3,0 1,0 2,0 2,-1 1,0 1,-1 1,-1 1,-1 1,-2 1,-3l0 -17 6 0 0 14c0,1 0,2 0,3 0,1 1,2 1,3 0,1 1,1 2,1 1,1 2,1 3,1 2,0 3,1 3,3 0,1 0,2 -1,2 0,1 -1,1 -2,1 -2,0 -3,0 -4,-1 -2,-1 -2,-2 -3,-4 -1,2 -2,4 -4,4 -2,1 -4,1 -7,1l-6 0zm11 -40c0,-1 1,-2 1,-3 1,-1 2,-1 3,-1 1,0 2,0 3,1 0,1 1,2 1,3 0,1 -1,2 -1,3 -1,0 -2,1 -3,1 -1,0 -2,-1 -3,-1 0,-1 -1,-2 -1,-3zm13 40c-2,0 -3,-1 -3,-3 0,-1 0,-2 1,-2 0,-1 1,-1 2,-1l16 0c3,0 5,0 6,-1 1,-1 2,-2 2,-4 0,-1 -1,-2 -2,-4 -1,-2 -2,-3 -4,-5 -2,-2 -4,-3 -7,-5 -2,-1 -5,-3 -8,-4 0,-1 0,-1 0,-2 0,-1 1,-1 1,-2 0,0 0,-1 1,-1 0,-1 0,-1 0,-1l27 -12 0 6 -21 10c5,3 9,5 12,8 3,3 5,6 6,9 1,2 1,3 2,4 1,1 1,2 2,3 0,0 1,1 2,1 0,0 1,0 2,0 2,0 3,1 3,3 0,1 0,2 -1,2 0,1 -1,1 -2,1 -1,0 -2,0 -3,0 -1,0 -1,0 -2,-1 -1,0 -1,-1 -2,-2 -1,0 -1,-1 -2,-3l0 0c-1,3 -3,4 -5,5 -2,1 -5,1 -8,1l-15 0zm47 -40c0,-1 1,-2 1,-3 1,-1 2,-1 3,-1 1,0 2,0 3,1 1,1 1,2 1,3 0,1 0,2 -1,3 -1,0 -2,1 -3,1 -1,0 -2,-1 -3,-1 0,-1 -1,-2 -1,-3zm-10 40c-2,0 -3,-1 -3,-3 0,-1 0,-2 1,-2 0,-1 1,-1 2,-1l11 0 0 -22 6 0 0 28 -17 0zm-543 119l-6 0 0 -39 6 0 0 39zm-7 9c0,-1 0,-2 1,-3 1,-1 2,-1 3,-1 1,0 2,0 3,1 1,1 1,2 1,3 0,1 0,2 -1,3 -1,1 -2,1 -3,1 -1,0 -2,0 -3,-1 -1,-1 -1,-2 -1,-3zm48 3c-2,0 -4,0 -5,-1 -2,-1 -3,-2 -4,-4 -1,1 -2,2 -2,3 -1,1 -2,1 -3,2 -1,0 -2,0 -4,0 -1,0 -2,0 -3,0l-11 0 0 -6 13 0c2,0 3,0 5,0 1,-1 1,-2 1,-3 0,-1 0,-1 -1,-2 0,-1 -1,-2 -1,-3l-8 -12 6 -3 8 14c1,2 2,3 3,4 1,2 1,2 2,3 1,1 1,1 2,2 0,0 1,0 2,0 2,0 3,1 3,3 0,1 -1,2 -1,3 -1,0 -1,0 -2,0zm0 0c-2,0 -3,-1 -3,-3 0,-1 0,-2 0,-2 1,0 2,-1 3,-1l10 0 0 0 1 0 10 0 0 0 0 0 11 0 0 0 0 0 11 0c14,0 12,0 27,0l0 0 0 0 2 0c2,0 3,0 5,0 1,0 2,0 2,-1 1,0 1,0 2,-1 0,-1 0,-2 0,-3l0 -13 6 0 0 10c0,2 0,3 0,4 0,1 1,1 1,2 1,1 2,1 3,2 1,0 2,0 4,0 1,0 2,0 2,0 1,0 2,0 2,-1 1,0 1,0 2,-1 0,-1 0,-2 0,-3l0 -13 6 0 0 10c0,2 0,3 0,4 0,1 1,2 1,2 1,1 1,1 2,2 1,0 2,0 3,0l6 0 0 -22 6 0 0 28 -12 0c-2,0 -3,0 -4,-1 -2,-1 -2,-2 -3,-3 -1,2 -2,3 -4,3 -2,1 -4,1 -6,1 -2,0 -4,0 -5,0 -1,0 -2,-1 -2,-1 -1,-1 -2,-1 -2,-2 0,0 -1,-1 -1,-1 -1,1 -1,1 -2,2 0,1 -1,1 -2,1 -1,1 -3,1 -4,1 -2,0 -4,0 -6,0l-2 0 0 0 0 0c-15,0 -13,0 -27,0l-11 0 0 0 0 0 -11 0 0 0 0 0 -10 0 -1 0 0 0 -10 0zm95 -40c0,-1 0,-2 1,-3 1,0 2,-1 3,-1 1,0 2,1 2,1 1,1 2,2 2,3 0,1 -1,2 -2,3 0,1 -1,1 -2,1 -1,0 -2,0 -3,-1 -1,-1 -1,-2 -1,-3zm9 0c0,-1 1,-2 1,-3 1,0 2,-1 3,-1 1,0 2,1 3,1 1,1 1,2 1,3 0,1 0,2 -1,3 -1,1 -2,1 -3,1 -1,0 -2,0 -3,-1 0,-1 -1,-2 -1,-3zm-4 -8c0,-2 0,-2 1,-3 1,-1 2,-1 3,-1 1,0 2,0 2,1 1,1 1,1 1,3 0,1 0,1 -1,2 0,1 -1,1 -2,1 -1,0 -2,0 -3,-1 -1,-1 -1,-1 -1,-2zm-134 -382c0,-1 0,-1 1,-2 1,-1 2,-1 3,-1 1,0 2,0 3,1 0,1 1,1 1,2 0,2 -1,2 -1,3 -1,1 -2,1 -3,1 -1,0 -2,0 -3,-1 -1,-1 -1,-1 -1,-3zm9 0c0,-1 1,-1 2,-2 0,-1 1,-1 2,-1 1,0 2,0 3,1 1,1 1,1 1,2 0,2 0,2 -1,3 -1,1 -2,1 -3,1 -1,0 -2,0 -2,-1 -1,-1 -2,-1 -2,-3zm54 33c0,2 0,2 -1,3 0,0 -1,0 -2,0l-2 0c-1,0 -3,0 -4,0 -1,0 -2,-1 -3,-2 -1,0 -2,-1 -2,-3 -1,-1 -1,-3 -1,-5l0 -41 6 0 0 40c0,2 0,3 1,4 0,1 2,1 4,1l1 0c2,0 3,1 3,3zm-3 3c-2,0 -3,-1 -3,-2 0,-2 0,-2 1,-3 0,0 1,-1 2,-1l41 0c1,0 2,0 3,0 1,0 2,0 2,0 1,-1 1,-1 1,-2 1,-1 1,-2 1,-3l0 -16 6 0 0 13c0,2 0,3 0,4 0,1 1,2 1,2 1,1 1,1 2,2 1,0 2,0 3,0 2,0 3,1 3,3 0,2 0,2 -1,3 0,0 -1,0 -2,0 -2,0 -3,0 -4,-1 -2,-1 -2,-2 -3,-3 -1,2 -2,3 -4,4 -2,0 -4,0 -7,0l-42 0zm42 11c0,-1 0,-2 1,-2 1,-1 2,-1 3,-1 1,0 2,0 3,1 0,0 1,1 1,2 0,1 -1,2 -1,3 -1,1 -2,1 -3,1 -1,0 -2,0 -3,-1 -1,-1 -1,-2 -1,-3zm9 0c0,-1 1,-2 2,-2 0,-1 1,-1 2,-1 1,0 2,0 3,1 1,0 1,1 1,2 0,1 0,2 -1,3 -1,1 -2,1 -3,1 -1,0 -2,0 -2,-1 -1,-1 -2,-2 -2,-3zm9 -11c-2,0 -3,-1 -3,-2 0,-2 0,-2 1,-3 0,0 1,-1 2,-1l11 0 0 -21 6 0 0 27 -17 0zm3 11c0,-1 0,-2 1,-2 1,-1 2,-1 3,-1 1,0 2,0 3,1 0,0 1,1 1,2 0,1 -1,2 -1,3 -1,1 -2,1 -3,1 -1,0 -2,0 -3,-1 -1,-1 -1,-2 -1,-3zm10 0c0,-1 0,-2 1,-2 0,-1 1,-1 2,-1 2,0 2,0 3,1 1,0 1,1 1,2 0,1 0,2 -1,3 -1,1 -1,1 -3,1 -1,0 -2,0 -2,-1 -1,-1 -1,-2 -1,-3zm32 -11c-1,0 -3,0 -4,-1 -1,0 -2,-1 -2,-2 0,3 0,6 -1,9 0,2 -1,4 -2,5 -1,2 -3,3 -5,4 -2,0 -5,1 -8,1l0 -6c2,0 4,-1 6,-1 1,-1 2,-2 3,-3 0,-1 1,-2 1,-4 0,-2 0,-4 0,-6l0 -20 6 0 0 10c0,3 0,5 1,6 1,2 3,2 5,2 2,0 3,1 3,3 0,2 0,2 -1,3 0,0 -1,0 -2,0zm-13 -40c0,-1 0,-2 1,-2 1,-1 2,-2 3,-2 1,0 2,1 3,2 0,0 1,1 1,2 0,1 -1,2 -1,3 -1,1 -2,1 -3,1 -1,0 -2,0 -3,-1 -1,-1 -1,-2 -1,-3zm93 34c0,-3 0,-5 -1,-7 -1,-3 -2,-4 -3,-6 -2,-1 -3,-2 -5,-3 -2,0 -4,0 -6,0 -2,0 -3,0 -5,0 -1,0 -3,1 -4,1l0 -6c1,0 3,-1 4,-1 2,0 4,-1 5,-1 4,0 7,1 10,2 3,2 5,3 7,5 1,3 2,5 3,8 1,3 1,6 1,9l0 5 -86 0c-2,0 -3,-1 -3,-2 0,-2 0,-3 1,-3 0,0 1,-1 2,-1l80 0zm-14 17c0,-1 1,-2 1,-2 1,-1 2,-1 3,-1 1,0 2,0 3,1 1,0 1,1 1,2 0,1 0,2 -1,3 -1,1 -2,1 -3,1 -1,0 -2,0 -3,-1 0,-1 -1,-2 -1,-3zm61 -14c0,2 -1,2 -1,3 0,0 -1,0 -2,0l-2 0c-2,0 -3,0 -4,0 -2,0 -3,-1 -4,-2 -1,0 -1,-1 -2,-3 0,-1 -1,-3 -1,-5l0 -41 6 0 0 40c0,2 1,3 1,4 1,1 2,1 5,1l1 0c2,0 3,1 3,3zm42 3c-2,0 -4,0 -5,-1 -2,0 -3,-2 -4,-3l0 0c0,1 -2,3 -4,4 -1,1 -4,1 -6,1 -3,0 -5,0 -7,-1 -2,-1 -5,-2 -7,-4 -1,1 -2,2 -2,3 -1,0 -2,1 -2,1 -1,0 -2,0 -3,0 0,0 -1,0 -2,0l-3 0c-2,0 -3,-1 -3,-2 0,-2 0,-2 1,-3 0,0 1,-1 2,-1l3 0c0,0 1,0 2,0 0,0 1,0 1,-1 1,0 2,-1 2,-2 1,-1 2,-2 2,-3 1,-3 2,-6 4,-8 1,-2 2,-3 3,-4 2,-1 3,-2 4,-2 2,-1 3,-1 4,-1 2,0 4,1 5,1 2,1 3,2 4,3 2,2 2,3 3,5 1,2 1,4 1,6 0,0 0,0 0,1 0,0 0,0 0,1 0,1 1,2 2,3 1,1 3,1 5,1 1,0 2,1 2,3 0,2 0,2 0,3 -1,0 -1,0 -2,0zm-13 -12c0,-1 0,-2 0,-4 -1,-1 -1,-1 -2,-2 0,-1 -1,-2 -2,-2 -1,-1 -2,-1 -3,-1 -2,0 -4,1 -6,3 -1,2 -3,5 -5,9 2,2 4,2 6,3 2,1 3,1 5,1 2,0 4,0 5,-1 1,-2 2,-4 2,-6zm13 12c-2,0 -3,-1 -3,-2 0,-2 0,-3 0,-3 1,0 1,-1 3,-1l10 0 0 0 0 0c33,0 -22,0 10,0l0 0 0 0 11 0 0 0 0 0 10 0 1 0 0 0 10 0 0 0 1 0 10 0 0 0 0 0 11 0 0 0 0 0 2 0c2,0 3,0 4,0 2,0 2,0 3,0 1,-1 1,-1 2,-2 0,-1 0,-2 0,-3l0 -13 6 0 0 10c0,2 0,3 0,4 0,1 1,2 1,2 1,1 2,1 2,2 1,0 3,0 4,0 2,0 2,0 3,0 1,0 2,0 2,0 1,-1 1,-1 1,-2 1,-1 1,-2 1,-3l0 -13 6 0 0 10c0,2 0,3 0,4 0,1 1,2 1,2 1,1 1,1 2,2 1,0 2,0 3,0l6 0 0 -21 6 0 0 27 -12 0c-2,0 -3,0 -4,-1 -2,-1 -2,-2 -3,-3 -1,2 -2,3 -4,4 -2,0 -4,0 -7,0 -1,0 -3,0 -4,0 -1,0 -2,-1 -2,-1 -1,0 -2,-1 -2,-2 -1,0 -1,-1 -1,-1 -1,1 -1,1 -2,2 0,1 -1,1 -2,2 -1,0 -3,0 -4,0 -2,0 -4,0 -6,0l-2 0 0 0 0 0 -11 0 0 0 0 0 -10 0 -1 0 0 0 -10 0 0 0 -1 0 -10 0 0 0 0 0 -11 0 0 0 0 0c-32,0 23,0 -10,0l0 0 0 0 -10 0zm99 -40c0,-1 0,-2 1,-2 1,-1 2,-2 3,-2 1,0 2,1 2,2 1,0 1,1 1,2 0,1 0,2 -1,3 0,1 -1,1 -2,1 -1,0 -2,0 -3,-1 -1,-1 -1,-2 -1,-3zm9 0c0,-1 1,-2 1,-2 1,-1 2,-2 3,-2 1,0 2,1 3,2 1,0 1,1 1,2 0,1 0,2 -1,3 -1,1 -2,1 -3,1 -1,0 -2,0 -3,-1 0,-1 -1,-2 -1,-3zm-4 -8c0,-1 0,-2 1,-3 1,-1 1,-1 3,-1 1,0 1,0 2,1 1,1 1,2 1,3 0,1 0,2 -1,2 -1,1 -1,1 -2,1 -2,0 -2,0 -3,-1 -1,0 -1,-1 -1,-2zm69 48c-1,0 -3,0 -4,-1 -1,0 -2,-1 -2,-2 0,3 0,6 -1,9 0,2 -1,4 -2,5 -1,2 -3,3 -5,4 -2,0 -5,1 -8,1l0 -6c2,0 4,-1 6,-1 1,-1 2,-1 3,-3 0,-1 1,-2 1,-4 0,-2 0,-4 0,-6l0 -20 6 0 0 10c0,3 0,5 1,6 1,2 3,2 5,2 2,0 3,1 3,3 0,2 0,2 -1,3 0,0 -1,0 -2,0zm0 0c-2,0 -3,-1 -3,-2 0,-2 0,-2 1,-3 0,0 1,-1 2,-1l18 0c1,0 3,0 4,-1 1,0 2,-1 2,-3 0,-1 -1,-3 -2,-4 -1,-2 -3,-4 -5,-5 -2,-2 -4,-4 -7,-5 -2,-2 -5,-3 -7,-5 0,0 0,-1 0,-2 0,0 1,-1 1,-1 0,-1 1,-1 1,-2 0,0 0,0 1,0l26 -12 0 6 -21 9c3,2 6,4 8,6 3,2 5,4 6,6 2,1 3,3 4,5 0,1 1,3 1,4 0,1 -1,2 -1,4 0,1 -1,2 -2,3 -1,1 -2,2 -3,2 -2,1 -4,1 -7,1l-17 0zm4 -38c0,0 0,-1 0,-2 1,0 1,-1 1,-2 1,0 1,-1 2,-1 0,-1 0,-1 1,-1l24 -11 0 5 -28 12zm42 -13l0 51 -6 0 0 -51 6 0zm-559 183c-3,0 -6,0 -8,-1 -1,0 -3,-1 -4,-2 -1,-1 -2,-2 -2,-3 -1,-1 -1,-3 -1,-5l0 -11 6 0 0 9c0,1 0,3 0,4 1,0 1,1 2,2 1,0 2,0 4,1 1,0 3,0 5,0l30 0c1,0 3,-1 4,-1 1,-1 2,-2 2,-4 0,-1 -1,-3 -2,-4 -1,-2 -3,-3 -5,-5 -2,-2 -4,-3 -6,-5 -3,-2 -6,-3 -8,-4 0,-1 0,-2 0,-2 0,-1 1,-1 1,-2 0,0 0,-1 1,-1 0,-1 0,-1 1,-1l26 -12 0 6 -21 10c3,2 6,4 8,5 3,2 5,4 6,6 2,2 3,3 3,5 1,2 2,3 2,5 0,1 -1,2 -1,3 0,1 -1,2 -2,3 -1,1 -2,2 -3,3 -2,0 -4,1 -7,1l-31 0zm59 -25l6 0 0 21c0,3 0,6 0,9 -1,2 -1,4 -3,6 -1,1 -2,2 -4,3 -3,1 -5,1 -8,1l0 -6c2,0 4,0 5,-1 1,0 2,-1 3,-2 1,-1 1,-3 1,-5 0,-1 0,-4 0,-6l0 -20zm40 17c0,2 0,4 -2,5 -2,2 -4,3 -7,3l-17 0 0 -6 17 0c1,0 2,-1 3,-1 0,-1 0,-1 0,-2 0,0 0,-1 0,-1 0,-1 -1,-2 -1,-3 -1,-1 -2,-3 -4,-5 -1,-2 -3,-5 -6,-8l6 -4c2,3 4,6 5,9 2,2 3,4 4,5 1,2 1,3 2,4 0,2 0,3 0,4zm29 -44l0 52 -6 0 0 -52 6 0zm16 27l6 0 0 21c0,3 -1,6 -1,9 0,2 -1,4 -2,6 -1,1 -3,2 -5,3 -2,1 -5,1 -8,1l0 -6c2,0 4,0 5,-1 2,0 3,-1 3,-2 1,-1 1,-3 2,-5 0,-1 0,-4 0,-6l0 -20zm25 5l6 0 0 10c0,5 1,8 4,10 2,2 6,3 10,3 3,0 5,-1 7,-1 1,0 3,-1 4,-2 1,-1 2,-2 2,-4 1,-1 1,-3 1,-6l0 -18 6 0 0 19c0,6 -2,11 -5,13 -4,3 -9,5 -15,5 -7,0 -12,-2 -15,-5 -3,-3 -5,-7 -5,-13l0 -11zm16 -11c0,-1 1,-2 2,-3 0,0 1,-1 2,-1 1,0 2,1 3,1 1,1 1,2 1,3 0,1 0,2 -1,3 -1,1 -2,1 -3,1 -1,0 -2,0 -2,-1 -1,-1 -2,-2 -2,-3zm49 28c0,1 0,2 0,2 -1,1 -1,1 -2,1l-2 0c-2,0 -3,0 -5,-1 -1,0 -2,-1 -3,-1 -1,-1 -1,-2 -2,-3 -1,-2 -1,-3 -1,-5l0 -42 6 0 0 40c0,2 1,4 1,4 1,1 2,2 4,2l2 0c1,0 2,1 2,3zm-2 3c-2,0 -3,-1 -3,-3 0,-1 0,-2 0,-3 1,0 2,0 3,0l11 0 0 -22 6 0 0 28 -17 0zm4 -40c0,-1 1,-2 2,-3 0,-1 1,-1 2,-1 1,0 2,0 3,1 1,1 1,2 1,3 0,1 0,2 -1,2 -1,1 -2,1 -3,1 -1,0 -2,0 -2,-1 -1,0 -2,-1 -2,-2zm10 0c0,-1 0,-2 1,-3 1,-1 2,-1 3,-1 1,0 2,0 2,1 1,1 2,2 2,3 0,1 -1,2 -2,2 0,1 -1,1 -2,1 -1,0 -2,0 -3,-1 -1,0 -1,-1 -1,-2zm18 15l6 0 0 21c0,3 0,6 0,9 -1,2 -2,4 -3,6 -1,1 -3,2 -5,3 -2,1 -4,1 -8,1l0 -6c3,0 5,0 6,-1 1,0 2,-1 3,-2 1,-1 1,-3 1,-5 0,-1 0,-4 0,-6l0 -20zm32 22c0,1 -1,2 -1,2 -1,1 -1,1 -2,1l-2 0c-2,0 -3,0 -5,-1 -1,0 -2,-1 -3,-1 -1,-1 -1,-2 -2,-3 0,-2 -1,-3 -1,-5l0 -42 6 0 0 40c0,2 1,4 1,4 1,1 2,2 4,2l2 0c2,0 3,1 3,3zm-3 3c-2,0 -3,-1 -3,-3 0,-1 0,-2 0,-3 1,0 2,0 3,0l17 0c2,0 3,-1 4,-1 2,-1 2,-2 2,-4 0,-1 0,-3 -2,-4 -1,-2 -2,-3 -4,-5 -2,-2 -4,-3 -7,-5 -3,-2 -5,-3 -8,-4 0,-1 0,-2 1,-2 0,-1 0,-1 0,-2 1,0 1,-1 1,-1 1,-1 1,-1 1,-1l27 -12 0 6 -22 10c4,2 7,4 9,5 2,2 4,4 6,6 1,2 2,3 3,5 1,2 1,3 1,5 0,1 0,2 0,3 -1,1 -1,2 -2,3 -1,1 -2,2 -4,3 -2,0 -4,1 -6,1l-17 0zm65 0c-2,0 -3,0 -5,-1 -2,0 -3,-1 -4,-2 -2,-1 -2,-2 -3,-4 -1,-2 -1,-4 -1,-6 0,-2 0,-4 1,-6 0,-2 1,-3 2,-5 2,-1 3,-2 5,-3 2,-1 4,-2 6,-2 3,0 5,1 7,2 1,1 3,2 4,4 1,1 2,3 2,6 1,2 1,5 1,7l0 7c0,4 -1,7 -2,9 -1,2 -2,4 -4,5 -1,2 -4,3 -6,3 -3,1 -6,1 -9,1l-3 0 0 -6 2 0c2,0 5,0 6,0 2,-1 4,-1 5,-2 2,0 3,-1 4,-3 0,-1 1,-3 1,-5l0 -1c-1,0 -2,1 -4,1 -1,1 -3,1 -5,1zm-7 -14c0,3 0,5 2,6 1,1 3,2 6,2 2,0 3,0 5,-1 1,0 2,-1 3,-1l0 -3c0,-2 0,-3 -1,-5 0,-1 0,-2 -1,-3 -1,-2 -1,-2 -2,-3 -1,-1 -3,-1 -4,-1 -2,0 -3,0 -4,1 -1,1 -2,1 -2,2 -1,1 -2,2 -2,3 0,1 0,2 0,3zm67 25c0,-1 0,-2 1,-3 0,-1 1,-1 2,-1 1,0 2,0 3,1 1,1 1,2 1,3 0,1 0,2 -1,3 -1,0 -2,1 -3,1 -1,0 -2,-1 -2,-1 -1,-1 -1,-2 -1,-3z"/>
   <path class="fil1" d="M1051 658c-1,6 -2,11 -6,14 -3,3 -8,5 -14,5 -3,0 -6,-1 -9,-2 -2,-1 -4,-2 -6,-4 -1,-1 -3,-3 -3,-5 -1,-3 -2,-5 -2,-8l0 -11 6 0 0 10c0,9 5,14 14,14 5,0 8,-1 11,-3 2,-2 3,-6 3,-11l0 -50 6 0 0 45 5 0c2,0 3,1 3,3 0,1 0,2 -1,3 0,0 -1,0 -2,0l-5 0zm17 -316c-9,0 -16,-1 -22,-2 -5,-1 -10,-3 -14,-6 -3,-3 -6,-6 -7,-11 -2,-4 -2,-9 -2,-15l0 -36 28 0 0 32c0,3 0,5 1,7 1,1 2,3 4,4 2,1 4,1 8,2 3,0 7,0 12,0l69 0c-1,-2 -2,-5 -2,-9 -1,-3 -1,-7 -1,-10 0,-5 1,-11 3,-17 2,-5 5,-10 8,-14 4,-4 9,-8 14,-11 6,-2 12,-4 19,-4 8,0 15,2 20,5 6,3 10,7 13,11 3,5 6,10 7,16 1,5 2,11 2,16l0 17 17 0c1,0 2,0 3,0 1,1 2,1 3,2 1,1 1,2 2,3 0,2 0,4 0,7 0,5 0,8 -2,10 -1,2 -3,3 -6,3l-177 0zm101 -45c0,7 2,13 6,16 3,2 7,4 12,4l12 0 0 -17c0,-2 0,-5 0,-8 0,-3 -1,-5 -2,-7 -1,-2 -3,-4 -5,-5 -2,-1 -4,-2 -7,-2 -3,0 -5,1 -8,2 -2,1 -3,2 -4,4 -1,2 -2,4 -3,6 0,2 -1,5 -1,7zm0 -79c0,-4 1,-8 4,-11 4,-3 7,-5 11,-5 5,0 8,2 11,5 3,3 5,6 5,11 0,4 -2,8 -5,11 -3,3 -6,4 -11,4 -4,0 -7,-1 -10,-4 -4,-3 -5,-7 -5,-11zm76 124c-1,0 -2,0 -3,0 -2,-1 -2,-1 -3,-2 -1,-1 -2,-2 -2,-3 -1,-2 -1,-4 -1,-7 0,-5 1,-8 2,-10 2,-2 4,-3 7,-3l32 0 0 0 0 0 0 0 0 0 0 0 32 0 0 0 0 0 1 0 0 0 0 0 31 0 1 0 0 0 0 0 0 0 0 0 32 0 0 0 0 0 0 0 0 0 0 0 32 0 0 0 0 0 0 0 1 0 0 0 31 0 1 0 0 0 0 0 0 0 0 0 32 0c1,0 2,0 3,0 1,1 2,1 3,2 1,1 1,2 2,3 0,2 0,4 0,7 0,5 0,8 -2,10 -1,2 -3,3 -6,3l-32 0 0 0 0 0 0 0 -1 0 0 0 -31 0 -1 0 0 0 0 0 0 0 0 0 -32 0 0 0 0 0 0 0 0 0 0 0 -32 0 0 0 0 0 0 0 0 0 -1 0 -31 0 0 0 -1 0 0 0 0 0 0 0 -32 0 0 0 0 0 0 0 0 0 0 0 -32 0zm304 -25c0,-6 -1,-11 -3,-16 -1,-5 -3,-9 -6,-13 -3,-3 -7,-6 -12,-8 -4,-2 -10,-3 -17,-3 -3,0 -6,1 -11,1 -5,1 -10,2 -15,4l0 -26c3,-1 7,-2 13,-3 6,-2 12,-2 18,-2 11,0 21,2 29,5 7,4 14,10 19,16 4,7 8,14 10,23 2,8 3,17 3,27l0 20 -106 0c-1,0 -2,0 -3,0 -1,-1 -2,-1 -3,-2 -1,-1 -1,-2 -2,-3 0,-2 -1,-4 -1,-7 0,-5 1,-8 3,-10 1,-2 3,-3 6,-3l78 0zm-20 61c0,-4 1,-8 4,-11 3,-3 7,-4 11,-4 4,0 8,1 11,4 3,3 5,7 5,11 0,4 -2,8 -5,11 -3,3 -7,5 -11,5 -4,0 -8,-2 -11,-5 -3,-3 -4,-7 -4,-11zm-361 143c-6,0 -12,-1 -16,-3 -5,-1 -8,-3 -10,-5 0,12 -2,21 -4,28 -3,8 -7,14 -12,19 -5,4 -12,7 -19,9 -7,2 -16,3 -25,3 -40,0 -59,-19 -59,-56l0 -30 28 0 0 29c0,10 2,17 8,23 5,5 13,8 23,8 11,0 19,-2 25,-7 5,-4 7,-12 7,-23l0 -72 28 0 0 37c0,4 2,8 4,11 3,2 7,4 12,4 4,0 8,-1 11,-2 3,-1 4,-4 4,-9l0 -41 29 0 0 37c0,5 1,9 2,11 2,3 6,4 11,4l13 0 0 -62 28 0 0 87 -33 0c-4,0 -8,0 -11,-1 -3,-1 -5,-1 -7,-2 -3,-1 -4,-3 -6,-4 -1,-1 -2,-3 -3,-4 -4,4 -8,7 -13,8 -5,2 -10,3 -15,3zm194 -13c0,10 -1,19 -4,26 -2,7 -7,13 -12,18 -6,5 -13,9 -22,11 -9,2 -19,3 -32,3l-6 0 0 -26 5 0c8,0 14,-1 20,-2 5,-1 9,-2 12,-4 3,-2 6,-4 7,-7 1,-2 2,-5 3,-8 -5,1 -10,2 -16,2 -6,0 -12,-1 -17,-2 -5,-2 -9,-4 -13,-7 -4,-4 -7,-8 -9,-13 -2,-5 -3,-11 -3,-19 0,-5 1,-11 3,-17 2,-6 5,-11 8,-15 4,-5 9,-8 14,-11 6,-3 12,-4 20,-4 8,0 14,2 20,4 5,3 9,7 13,12 3,5 5,11 7,18 1,7 2,14 2,23l0 18zm-59 -30c0,7 1,12 4,15 3,2 7,4 12,4 6,0 11,-2 15,-4l0 -10c0,-8 -1,-13 -4,-18 -2,-4 -6,-6 -11,-6 -6,0 -10,1 -12,5 -3,4 -4,8 -4,14zm144 43c-2,0 -5,-1 -8,-1 -4,-1 -6,-3 -9,-6 0,10 -1,18 -3,25 -3,6 -6,12 -10,16 -5,4 -10,7 -17,8 -6,2 -15,3 -24,3l0 -26c6,-1 11,-1 14,-3 4,-1 7,-3 8,-5 2,-2 3,-6 4,-9 0,-4 0,-9 0,-14l0 -65 28 0 0 37c0,5 2,9 6,12 3,2 7,3 11,3 1,0 2,0 3,0 1,0 2,1 3,2 1,0 1,2 2,3 0,2 0,4 0,7 0,5 0,8 -2,10 -1,2 -3,3 -6,3zm-46 -117c0,-4 1,-8 4,-11 3,-3 7,-5 11,-5 5,0 8,2 11,5 3,3 5,7 5,11 0,4 -2,8 -5,11 -3,3 -6,4 -11,4 -4,0 -7,-1 -11,-4 -3,-3 -4,-7 -4,-11zm46 117c-2,0 -3,0 -4,0 -1,-1 -2,-1 -2,-2 -1,-1 -2,-2 -2,-4 -1,-1 -1,-3 -1,-6 0,-5 1,-9 2,-10 2,-2 4,-3 7,-3l32 0 0 0 0 0 0 0 0 0 0 0 32 0c1,0 2,0 3,0 1,0 2,1 3,2 1,0 2,2 2,3 0,2 1,4 1,7 0,5 -1,8 -2,10 -2,2 -4,3 -7,3l-32 0 0 0 0 0 0 0 0 0 0 0 -32 0zm132 77l-53 8 0 -11 53 -7 0 10zm-43 -102l0 -62 29 0 0 87 -54 0c-1,0 -2,0 -3,0 -1,-1 -2,-1 -3,-2 -1,-1 -1,-2 -2,-4 0,-1 0,-3 0,-6 0,-5 0,-9 2,-10 1,-2 3,-3 6,-3l25 0zm-3 61c0,-4 1,-8 4,-11 3,-3 7,-5 11,-5 5,0 8,2 11,5 3,3 5,7 5,11 0,4 -2,8 -5,11 -3,3 -6,4 -11,4 -4,0 -8,-1 -11,-4 -3,-3 -4,-7 -4,-11zm-328 188l10 0c1,0 1,0 2,0 0,0 0,0 0,0 1,1 1,1 1,2 0,0 0,1 0,2 0,1 0,2 0,3 -1,1 -2,1 -3,1l-10 0 0 0 -11 0c0,0 -1,0 -1,0 0,0 0,0 -1,-1 0,0 0,0 0,-1 -1,0 -1,-1 -1,-2 0,-2 1,-3 1,-3 1,-1 1,-1 2,-1l11 0 0 0zm38 -5c0,-1 0,-2 0,-2 -1,-1 -1,-2 -1,-2 -1,-1 -1,-1 -2,-2 0,0 -1,0 -2,0 0,0 -1,0 -2,0 0,1 -1,1 -2,2 0,1 -1,1 -1,3 -1,1 -1,2 -2,4 1,1 2,1 4,2 1,0 2,0 3,0 2,0 3,0 4,-1 0,-1 1,-3 1,-4zm-24 5c1,0 1,-1 2,-2 1,-1 2,-2 3,-4 1,-2 2,-5 3,-7 1,-1 3,-3 4,-4 1,-1 2,-2 4,-2 1,-1 2,-1 4,-1 2,0 3,1 5,1 2,1 3,2 4,3 1,2 2,3 3,5 1,2 1,4 1,6 0,4 -1,8 -3,10 -2,3 -6,4 -10,4 -2,0 -4,0 -6,-1 -2,-1 -4,-2 -6,-3 -1,1 -2,2 -4,3 -1,0 -2,0 -4,0l-4 0c0,0 0,0 -1,0 0,0 0,0 -1,-1 0,0 0,0 0,-1 0,0 0,-1 0,-2 0,-2 0,-3 0,-3 1,-1 1,-1 2,-1l4 0zm50 -43l0 51 -9 0 0 -51 9 0zm-17 -9c1,-2 2,-2 4,-3 1,0 2,-1 3,-1 1,0 2,1 3,1 1,1 2,1 3,2 1,0 2,1 3,1 1,0 2,0 3,0 1,0 2,0 2,-1 1,0 1,-1 1,-2l4 2c-1,2 -2,3 -3,5 -1,1 -2,1 -4,1 -1,0 -3,0 -4,0 -1,-1 -2,-1 -3,-2 -1,0 -2,0 -3,-1 -1,0 -2,0 -3,0 -1,0 -1,0 -2,0 0,0 -1,1 -2,1l-2 -3zm107 60c-2,0 -3,0 -5,-1 -1,0 -2,-1 -3,-3 -1,1 -1,2 -2,2 -1,1 -2,1 -3,1 0,1 -1,1 -2,1 -1,0 -2,0 -3,0l-32 0c-3,0 -5,0 -7,-1 -2,0 -3,-1 -4,-2 -2,0 -2,-2 -3,-3 0,-1 -1,-3 -1,-5l0 -12 10 0 0 10c0,1 0,2 0,3 0,0 1,1 1,1 1,0 2,1 3,1 1,0 2,0 4,0l27 0c2,0 3,0 4,-1 0,0 1,-2 1,-3l0 -16 9 0 0 15c0,2 0,3 1,4 1,0 2,1 5,1 0,0 0,0 1,0 0,0 0,0 1,0 0,1 0,1 0,2 0,0 0,1 0,2 0,1 0,2 0,3 -1,1 -1,1 -2,1zm-47 -37c0,-1 1,-2 2,-3 1,-1 2,-2 4,-2 1,0 2,1 3,2 1,1 2,2 2,3 0,2 -1,3 -2,4 -1,1 -2,1 -3,1 -2,0 -3,0 -4,-1 -1,-1 -2,-2 -2,-4zm12 0c0,-1 1,-2 2,-3 1,-1 2,-2 3,-2 2,0 3,1 4,2 1,1 1,2 1,3 0,2 0,3 -1,4 -1,1 -2,1 -4,1 -1,0 -2,0 -3,-1 -1,-1 -2,-2 -2,-4zm35 37c-1,0 -1,0 -1,0 -1,0 -1,0 -1,-1 -1,0 -1,0 -1,-1 0,0 0,-1 0,-2 0,-2 0,-3 0,-3 1,-1 2,-1 3,-1l10 0c1,0 1,0 1,0 1,0 1,0 1,0 0,1 1,1 1,2 0,0 0,1 0,2 0,1 0,2 -1,3 0,1 -1,1 -2,1l-10 0zm10 0c0,0 -1,0 -1,0 0,0 -1,0 -1,-1 0,0 0,0 0,-1 -1,0 -1,-1 -1,-2 0,-2 1,-3 1,-3 1,-1 1,-1 2,-1l11 0c0,0 1,0 1,0 0,0 1,0 1,0 0,1 0,1 0,2 1,0 1,1 1,2 0,1 -1,2 -1,3 -1,1 -1,1 -2,1l-11 0zm11 0c-1,0 -1,0 -1,0 -1,0 -1,0 -1,-1 0,0 -1,0 -1,-1 0,0 0,-1 0,-2 0,-2 0,-3 1,-3 0,-1 1,-1 2,-1l10 0c1,0 1,0 1,0 1,0 1,0 1,0 1,1 1,1 1,2 0,0 0,1 0,2 0,1 0,2 0,3 -1,1 -2,1 -3,1l-10 0zm27 -8c1,0 2,0 3,-1 1,0 1,-1 1,-2 0,-1 0,-2 -1,-4 -1,-1 -3,-3 -5,-4 -1,-2 -3,-4 -6,-5 -2,-2 -4,-3 -6,-4 0,-2 0,-3 1,-4 0,-1 1,-2 1,-3 1,0 1,-1 2,-1 0,0 0,-1 1,-1l25 -11 0 10 -17 7 0 0c3,2 5,4 7,5 2,2 3,4 4,6 2,2 2,3 3,5 0,1 0,3 0,4 0,1 0,2 0,4 0,1 -1,2 -2,3 -1,1 -2,2 -4,3 -1,1 -4,1 -6,1l-18 0c0,0 0,0 -1,0 0,0 0,0 -1,-1 0,0 0,0 0,-1 0,0 0,-1 0,-2 0,-2 0,-3 0,-3 1,-1 1,-1 2,-1l17 0zm42 8c-1,0 -2,0 -3,0 -1,-1 -2,-1 -3,-2 0,3 0,6 -1,8 -1,2 -2,4 -3,5 -1,1 -3,2 -5,3 -3,1 -5,1 -8,1l0 -9c2,0 3,0 4,0 1,-1 2,-1 3,-2 0,-1 1,-2 1,-3 0,-2 0,-3 0,-5l0 -21 9 0 0 12c0,2 1,3 2,4 1,0 3,1 4,1 0,0 1,0 1,0 0,0 1,0 1,0 0,1 0,1 0,2 1,0 1,1 1,2 0,1 -1,2 -1,3 -1,1 -1,1 -2,1zm0 0c-1,0 -1,0 -1,0 -1,0 -1,0 -1,-1 0,0 -1,0 -1,-1 0,0 0,-1 0,-2 0,-2 0,-3 1,-3 0,-1 1,-1 2,-1l10 0 0 0 11 0 0 0 10 0 1 0 10 0 0 0 11 0 0 0 10 0 0 0 11 0 0 0 3 0c1,0 2,0 3,0 0,0 1,0 1,-1 1,0 1,0 1,-1 0,0 1,-1 1,-2l0 -13 9 0 0 12c0,1 0,3 1,3 1,1 2,2 4,2 1,0 2,0 3,-1 1,0 2,-1 2,-3l0 -13 9 0 0 12c0,3 2,5 4,5l5 0 0 -20 9 0 0 28 -11 0c-2,0 -4,0 -5,-1 -2,0 -3,-1 -4,-3 0,1 -1,2 -2,2 -1,1 -2,1 -3,2 0,0 -1,0 -2,0 -1,0 -2,0 -3,0 -2,0 -4,0 -6,-1 -1,-1 -3,-2 -3,-3 -1,2 -3,3 -5,3 -2,1 -5,1 -8,1l-3 0 0 0 -10 0 -1 0 -10 0 0 0 -11 0 0 0 -10 0 0 0 -11 0 0 0 -10 0 -1 0 -10 0zm95 -41c0,-1 1,-2 2,-3 1,-1 2,-2 3,-2 2,0 3,1 4,2 1,1 1,2 1,3 0,2 0,3 -1,4 -1,1 -2,1 -4,1 -1,0 -2,0 -3,-1 -1,-1 -2,-2 -2,-4zm12 0c0,-1 0,-2 1,-3 2,-1 3,-2 4,-2 1,0 3,1 4,2 1,1 1,2 1,3 0,2 0,3 -1,4 -1,1 -3,1 -4,1 -1,0 -2,0 -4,-1 -1,-1 -1,-2 -1,-4zm-6 -10c0,-2 1,-3 2,-4 1,-1 2,-1 3,-1 2,0 3,0 4,1 1,1 2,2 2,4 0,1 -1,2 -2,3 -1,1 -2,2 -4,2 -1,0 -2,-1 -3,-2 -1,-1 -2,-2 -2,-3zm-494 -44c-2,0 -3,-1 -3,-3 0,-1 1,-2 1,-2 1,0 1,-1 2,-1l3 0c1,0 1,0 2,0 1,0 1,0 2,-1 0,0 1,-1 2,-2 0,-1 1,-2 1,-3 1,-3 3,-6 4,-8 1,-1 2,-3 4,-4 1,-1 2,-2 3,-2 2,0 3,0 4,0 2,0 4,0 5,1 2,0 3,1 4,2 2,2 2,3 3,5 1,2 1,4 1,6 0,4 -1,7 -3,10 -2,2 -5,3 -9,3 -2,0 -5,0 -7,-1 -2,-1 -5,-2 -7,-4 -1,1 -1,2 -2,2 -1,1 -1,1 -2,2 -1,0 -1,0 -2,0 -1,0 -2,0 -3,0l-3 0zm32 -12c0,-1 0,-2 0,-3 -1,-1 -1,-2 -2,-3 0,-1 -1,-2 -2,-2 -1,0 -2,-1 -3,-1 -2,0 -4,1 -5,3 -2,2 -4,5 -5,9 2,1 3,2 5,3 2,1 4,1 5,1 2,0 4,0 5,-2 1,-1 2,-3 2,-5zm30 9c0,1 -1,2 -1,3 -1,0 -1,0 -2,0l-2 0c-2,0 -3,0 -4,0 -2,-1 -3,-1 -4,-2 0,-1 -1,-2 -2,-3 0,-1 0,-3 0,-5l0 -41 5 0 0 40c0,2 1,3 1,4 1,1 2,1 5,1l1 0c2,0 3,1 3,3zm-3 3c-2,0 -3,-1 -3,-3 0,-1 0,-2 1,-2 0,0 1,-1 2,-1l9 0c-1,-1 -2,-2 -3,-3 0,-2 0,-3 0,-5 0,-3 0,-5 1,-6 1,-2 2,-4 4,-5 1,-1 3,-2 5,-3 1,0 3,0 5,0 2,0 3,0 5,0 1,0 2,0 2,0l0 7c-1,0 -2,-1 -3,-1 -1,0 -2,0 -4,0 -3,0 -5,0 -7,2 -2,1 -2,3 -2,6 0,2 0,4 2,6 1,2 4,2 7,2l10 0 0 6 -31 0zm70 0c-1,0 -3,0 -4,-1 -1,0 -2,-1 -2,-2 0,3 0,6 -1,8 0,3 -1,5 -2,6 -1,2 -3,3 -5,3 -2,1 -4,1 -8,1l0 -6c3,0 5,0 6,0 1,-1 2,-2 3,-3 1,-1 1,-2 1,-4 0,-2 0,-4 0,-7l0 -19 6 0 0 10c0,3 0,5 1,6 1,2 3,2 5,2 2,0 3,1 3,3 0,1 0,2 -1,3 0,0 -1,0 -2,0zm0 0c-2,0 -3,-1 -3,-3 0,-1 1,-2 1,-2 0,0 1,-1 2,-1l11 0 0 -21 6 0 0 27 -17 0zm3 11c0,-1 1,-2 1,-3 1,0 2,-1 3,-1 1,0 2,1 3,1 0,1 1,2 1,3 0,1 -1,2 -1,3 -1,0 -2,1 -3,1 -1,0 -2,0 -3,-1 0,-1 -1,-2 -1,-3zm9 0c0,-1 1,-2 2,-3 0,0 1,-1 2,-1 1,0 2,1 3,1 1,1 1,2 1,3 0,1 0,2 -1,3 -1,1 -2,1 -3,1 -1,0 -2,0 -2,-1 -1,-1 -2,-2 -2,-3zm44 -11c-2,0 -4,0 -5,-1 -1,-1 -3,-2 -4,-4 -1,1 -1,2 -2,3 -1,1 -2,1 -3,1 -1,1 -2,1 -3,1 -1,0 -3,0 -4,0l-11 0 0 -6 13 0c2,0 4,0 5,0 1,-1 2,-2 2,-3 0,0 -1,-1 -1,-2 -1,-1 -1,-2 -2,-3l-8 -11 6 -4 9 14c0,2 1,3 2,4 1,2 1,2 2,3 1,1 1,1 2,2 1,0 1,0 2,0 2,0 3,1 3,3 0,1 -1,2 -1,3 0,0 -1,0 -2,0zm0 0c-2,0 -3,-1 -3,-3 0,-1 0,-2 1,-2 0,0 1,-1 2,-1l3 0c0,0 1,0 2,0 0,0 1,0 1,-1 1,0 2,-1 2,-2 1,-1 1,-2 2,-3 1,-3 2,-6 3,-8 2,-1 3,-3 4,-4 1,-1 3,-2 4,-2 1,0 3,0 4,0 2,0 3,0 5,1 1,0 3,1 4,2 1,2 2,3 3,5 0,2 1,4 1,6 0,4 -1,7 -3,10 -2,2 -5,3 -10,3 -2,0 -4,0 -6,-1 -3,-1 -5,-2 -7,-4 -1,1 -2,2 -2,2 -1,1 -2,1 -2,2 -1,0 -2,0 -3,0 0,0 -1,0 -2,0l-3 0zm32 -12c0,-1 -1,-2 -1,-3 0,-1 -1,-2 -1,-3 -1,-1 -2,-2 -2,-2 -1,0 -2,-1 -3,-1 -2,0 -4,1 -6,3 -2,2 -3,5 -5,9 2,1 4,2 6,3 1,1 3,1 5,1 2,0 4,0 5,-2 1,-1 2,-3 2,-5zm37 12c-1,0 -3,0 -5,0 -1,-1 -3,-2 -4,-2 -1,-1 -2,-3 -3,-4 0,-2 -1,-4 -1,-6 0,-2 1,-4 1,-6 1,-2 2,-3 3,-5 1,-1 3,-2 4,-3 2,-1 4,-2 6,-2 3,0 5,1 7,2 2,1 3,2 4,4 1,1 2,3 2,5 1,3 1,5 1,8l0 7c0,3 -1,6 -1,8 -1,3 -3,5 -5,6 -1,1 -4,2 -6,3 -3,0 -6,0 -9,0l-3 0 0 -6 2 0c3,0 5,0 7,0 2,0 3,-1 5,-1 1,-1 2,-2 3,-3 1,-1 1,-3 1,-5l0 -2c-1,1 -2,1 -3,2 -2,0 -4,0 -6,0zm-7 -13c0,3 1,5 2,6 2,1 4,2 6,2 2,0 3,-1 5,-1 1,-1 2,-1 3,-2l0 -2c0,-2 0,-4 0,-5 -1,-1 -1,-3 -2,-4 0,-1 -1,-2 -2,-2 -1,-1 -2,-1 -4,-1 -1,0 -3,0 -4,1 -1,0 -1,1 -2,2 -1,1 -1,2 -2,3 0,1 0,2 0,3zm122 13c-2,0 -3,0 -5,-1 -1,-1 -1,-2 -2,-3 0,1 -1,1 -2,2 0,1 -1,1 -2,1 -1,1 -2,1 -3,1 0,0 -1,0 -2,0 -1,0 -3,0 -4,0 -1,0 -2,-1 -2,-1 -1,-1 -2,-1 -2,-2 0,0 -1,-1 -1,-1 -1,2 -2,3 -4,3 -2,1 -4,1 -6,1 -3,0 -5,0 -6,-1 -2,0 -2,-1 -3,-2l0 2c0,7 -2,11 -5,14 -4,3 -8,4 -15,4 -6,0 -11,-1 -14,-4 -4,-3 -5,-7 -5,-13l0 -11 5 0 0 10c0,2 1,4 1,6 1,1 2,3 3,3 1,1 3,2 4,3 2,0 4,0 6,0 3,0 5,0 7,0 1,-1 3,-1 4,-2 1,-1 2,-2 2,-4 1,-1 1,-3 1,-6l0 -23 6 0 0 10c0,2 0,3 0,4 0,1 1,2 1,2 1,1 2,1 3,2 1,0 2,0 4,0 1,0 2,0 2,0 1,0 2,0 2,0 1,-1 1,-1 1,-2 1,-1 1,-2 1,-3l0 -13 6 0 0 10c0,2 0,3 0,4 0,1 0,2 1,2 0,1 1,1 2,2 1,0 2,0 4,0 0,0 1,0 2,0 0,0 1,0 1,0 1,-1 1,-1 1,-2 1,-1 1,-2 1,-3l0 -16 6 0 0 13c0,2 0,3 0,4 0,1 0,2 1,2 0,1 1,1 2,2 1,0 2,0 3,0 2,0 3,1 3,3 0,1 0,2 -1,3 0,0 -1,0 -2,0zm0 0c-2,0 -3,-1 -3,-3 0,-1 0,-2 1,-2 0,0 1,-1 2,-1l10 0 1 0 0 0 10 0 0 0 0 0 3 0c1,0 3,0 4,0 1,0 2,0 2,0 1,-1 1,-1 2,-2 0,-1 0,-2 0,-3l0 -13 6 0 0 10c0,2 0,3 0,4 0,1 1,2 1,2 1,1 2,1 3,2 0,0 2,0 3,0 1,0 2,0 3,0 1,0 2,0 2,0 1,-1 1,-1 1,-2 1,-1 1,-2 1,-3l0 -13 6 0 0 10c0,2 0,3 0,4 0,1 0,2 1,2 0,1 1,1 2,2 1,0 2,0 3,0l6 0 0 -21 6 0 0 27 -12 0c-2,0 -4,0 -5,-1 -1,-1 -2,-2 -2,-3 -1,2 -2,3 -4,3 -2,1 -4,1 -7,1 -1,0 -3,0 -4,0 -1,0 -2,-1 -2,-1 -1,-1 -2,-1 -2,-2 0,0 -1,-1 -1,-1 0,1 -1,1 -2,2 0,1 -1,1 -2,1 -1,1 -3,1 -4,1 -1,0 -3,0 -5,0l-3 0 0 0 0 0 -10 0 0 0 -1 0 -10 0zm111 0c0,3 -1,6 -2,8 -1,1 -2,3 -4,4 -2,1 -4,2 -6,3 -3,0 -6,0 -9,0l-3 0 0 -6 3 0c2,0 4,0 6,0 2,0 3,-1 5,-1 1,-1 2,-2 3,-3 1,-1 1,-3 1,-5l-8 0c-2,0 -4,0 -5,0 -2,-1 -3,-2 -5,-2 -1,-1 -2,-3 -3,-4 0,-2 -1,-4 -1,-6 0,-2 1,-4 1,-6 1,-2 2,-3 3,-5 1,-1 3,-2 5,-3 1,-1 3,-2 6,-2 2,0 4,1 6,2 2,1 3,2 4,3 1,2 2,4 2,6 1,3 1,5 1,8l0 3 5 0c2,0 3,1 3,3 0,1 0,2 -1,3 0,0 -1,0 -2,0l-5 0zm-22 -13c0,3 1,4 2,6 2,1 4,1 6,1l8 0 0 -4c0,-4 0,-7 -2,-9 -1,-2 -3,-3 -6,-3 -1,0 -2,0 -3,1 -1,0 -2,1 -3,2 0,1 -1,2 -1,3 -1,1 -1,2 -1,3zm27 13c-2,0 -3,-1 -3,-3 0,-1 1,-2 1,-2 0,0 1,-1 2,-1l3 0c1,0 1,0 2,0 1,0 1,0 2,-1 0,0 1,-1 2,-2 0,-1 1,-2 1,-3 1,-3 3,-6 4,-8 1,-1 2,-3 4,-4 1,-1 2,-2 3,-2 2,0 3,0 4,0 2,0 4,0 5,1 2,0 3,1 4,2 1,2 2,3 3,5 1,2 1,4 1,6 0,4 -1,7 -3,10 -2,2 -5,3 -9,3 -2,0 -5,0 -7,-1 -2,-1 -5,-2 -7,-4 -1,1 -1,2 -2,2 -1,1 -1,1 -2,2 -1,0 -2,0 -2,0 -1,0 -2,0 -3,0l-3 0zm32 -12c0,-1 0,-2 0,-3 -1,-1 -1,-2 -2,-3 0,-1 -1,-2 -2,-2 -1,0 -2,-1 -3,-1 -2,0 -4,1 -6,3 -1,2 -3,5 -4,9 1,1 3,2 5,3 2,1 3,1 5,1 2,0 4,0 5,-2 1,-1 2,-3 2,-5zm-522 97c0,4 -1,7 -2,10 -1,2 -2,4 -4,6 -1,1 -3,2 -6,3 -2,1 -5,1 -8,1 -13,0 -20,-6 -20,-18l0 -12 10 0 0 11c0,3 0,6 2,8 2,2 4,2 8,2 4,0 6,0 8,-2 2,-1 2,-4 2,-7l0 -20 10 0 0 18zm-25 -22c0,-1 1,-2 2,-3 1,-1 2,-2 3,-2 2,0 3,1 4,2 1,1 1,2 1,3 0,2 0,3 -1,4 -1,1 -2,1 -4,1 -1,0 -2,0 -3,-1 -1,-1 -2,-2 -2,-4zm59 28c0,3 0,6 -1,8 -1,3 -2,5 -4,6 -2,2 -4,3 -7,4 -3,1 -6,1 -10,1l-3 0 0 -9 2 0c3,0 5,0 6,0 2,-1 4,-1 5,-2 1,0 1,-1 2,-2 0,-1 1,-2 1,-3 -2,1 -3,1 -6,1 -1,0 -3,0 -5,-1 -2,0 -3,-1 -4,-2 -1,-1 -2,-2 -3,-4 -1,-2 -1,-4 -1,-6 0,-2 0,-4 1,-6 0,-2 1,-3 3,-5 1,-1 2,-3 4,-3 2,-1 4,-2 6,-2 3,0 5,1 7,2 2,0 3,2 4,3 1,2 2,4 3,6 0,3 0,5 0,8l0 6zm-19 -10c0,2 0,4 1,5 1,1 3,1 4,1 2,0 4,0 5,-1l0 -3c0,-3 0,-5 -1,-6 -1,-2 -2,-2 -4,-2 -2,0 -3,0 -4,1 -1,2 -1,3 -1,5zm33 -11l9 0 0 21c0,3 0,6 -1,9 0,2 -1,4 -3,6 -1,1 -3,2 -5,3 -2,1 -5,1 -9,1l0 -9c2,0 3,0 5,0 1,-1 2,-1 2,-2 1,-1 1,-2 1,-3 0,-2 1,-3 1,-5l0 -21zm-1 -16c0,-1 0,-2 1,-3 1,-1 3,-2 4,-2 1,0 3,1 4,2 1,1 1,2 1,3 0,2 0,3 -1,4 -1,1 -3,1 -4,1 -1,0 -3,0 -4,-1 -1,-1 -1,-2 -1,-4zm35 37c0,1 0,2 0,3 -1,1 -1,1 -2,1l-3 0c-2,0 -4,0 -5,0 -1,-1 -2,-1 -3,-2 -1,-1 -2,-2 -3,-4 0,-1 -1,-3 -1,-5l0 -40 10 0 0 39c0,2 0,3 1,3 0,1 1,1 2,1l2 0c0,0 0,0 1,0 0,0 0,0 1,0 0,1 0,1 0,2 0,0 0,1 0,2zm-2 4c-1,0 -1,0 -2,0 0,0 0,0 0,-1 -1,0 -1,0 -1,-1 0,0 0,-1 0,-2 0,-2 0,-3 0,-3 1,-1 2,-1 3,-1l10 0c1,0 1,0 1,0 1,0 1,0 1,0 0,1 1,1 1,2 0,0 0,1 0,2 0,1 0,2 -1,3 0,1 -1,1 -2,1l-10 0zm10 0c0,0 -1,0 -1,0 0,0 -1,0 -1,-1 0,0 0,0 0,-1 -1,0 -1,-1 -1,-2 0,-2 1,-3 1,-3 0,-1 1,-1 2,-1l11 0c0,0 0,0 1,0 0,0 0,0 1,0 0,1 0,1 0,2 0,0 1,1 1,2 0,1 -1,2 -1,3 -1,1 -1,1 -2,1l-11 0zm11 0c-1,0 -1,0 -1,0 -1,0 -1,0 -1,-1 0,0 -1,0 -1,-1 0,0 0,-1 0,-2 0,-2 0,-3 1,-3 0,-1 1,-1 2,-1l10 0c1,0 1,0 1,0 1,0 1,0 1,0 1,1 1,1 1,2 0,0 0,1 0,2 0,1 0,2 -1,3 0,1 -1,1 -2,1l-10 0zm10 0c0,0 0,0 -1,0 0,0 0,0 -1,-1 0,0 0,0 0,-1 0,0 0,-1 0,-2 0,-2 0,-3 0,-3 1,-1 1,-1 2,-1l11 0c0,0 1,0 1,0 0,0 1,0 1,0 0,1 0,1 1,2 0,0 0,1 0,2 0,1 0,2 -1,3 0,1 -1,1 -2,1l-11 0zm11 0c0,0 -1,0 -1,0 0,0 -1,0 -1,-1 0,0 0,0 -1,-1 0,0 0,-1 0,-2 0,-2 0,-3 1,-3 0,-1 1,-1 2,-1l11 0c0,0 0,0 1,0 0,0 0,0 1,0 0,1 0,1 0,2 0,0 0,1 0,2 0,1 0,2 0,3 -1,1 -1,1 -2,1l-11 0zm11 0c-1,0 -1,0 -1,0 -1,0 -1,0 -1,-1 -1,0 -1,0 -1,-1 0,0 0,-1 0,-2 0,-2 0,-3 0,-3 1,-1 2,-1 3,-1l10 0c1,0 1,0 1,0 1,0 1,0 1,0 0,1 1,1 1,2 0,0 0,1 0,2 0,1 0,2 -1,3 0,1 -1,1 -2,1l-10 0z"/>
  </g>
 </g>
</svg>
