<?xml version="1.0" encoding="UTF-8"?>
<!DOCTYPE svg PUBLIC "-//W3C//DTD SVG 1.1//EN" "http://www.w3.org/Graphics/SVG/1.1/DTD/svg11.dtd">
<!-- Creator: CorelDRAW X7 -->
<svg xmlns="http://www.w3.org/2000/svg" xml:space="preserve" width="100%" height="100%" version="1.1" style="shape-rendering:geometricPrecision; text-rendering:geometricPrecision; image-rendering:optimizeQuality; fill-rule:evenodd; clip-rule:evenodd"
viewBox="0 0 89822 109888"
 xmlns:xlink="http://www.w3.org/1999/xlink">
 <defs>
  <style type="text/css">
   <![CDATA[
    .fil5 {fill:#5C56A2}
    .fil3 {fill:#8480BC}
    .fil4 {fill:#8480BC;fill-rule:nonzero}
    .fil1 {fill:#9999FF;fill-rule:nonzero}
    .fil0 {fill:#D2AE6D;fill-rule:nonzero}
    .fil2 {fill:#D2AE6D;fill-rule:nonzero}
    .fil6 {fill:#F2D394;fill-rule:nonzero}
   ]]>
  </style>
 </defs>
 <g id="Layer_x0020_1">
  <metadata id="CorelCorpID_0Corel-Layer"/>
  <g id="_2514766404736">
   <path class="fil0" d="M79458 48340c-398,0 -398,558 0,558 399,0 399,-558 0,-558z"/>
   <path class="fil1" d="M3981 107768c160,-159 399,-239 638,-79 239,79 239,398 159,558 -159,239 -398,318 -637,159 -160,-159 -240,-399 -160,-638z"/>
   <path class="fil1" d="M73858 39175c80,160 399,239 558,160 239,-160 239,-399 159,-638 -159,-239 -398,-239 -637,-159 -160,159 -239,398 -80,637z"/>
   <path class="fil1" d="M46782 77908c160,239 399,319 638,160 159,-160 239,-399 80,-638 -80,-159 -399,-239 -558,-80 -239,80 -319,399 -160,558z"/>
   <path class="fil2" d="M58259 35031c159,239 398,319 637,159 239,-159 239,-398 160,-637 -160,-160 -399,-239 -638,-80 -159,80 -239,399 -159,558z"/>
   <path class="fil2" d="M6463 40502c160,239 399,239 638,159 159,-159 239,-398 79,-637 -79,-160 -398,-240 -557,-160 -240,160 -319,399 -160,638z"/>
   <path class="fil1" d="M28292 39255c80,239 399,239 558,159 239,-159 319,-398 160,-637 -80,-160 -399,-239 -558,-160 -239,160 -319,399 -160,638z"/>
   <path class="fil2" d="M3985 63642c79,160 398,239 558,160 239,-160 239,-399 159,-638 -159,-239 -398,-239 -638,-159 -159,159 -239,398 -79,637z"/>
   <path class="fil2" d="M13366 12508c160,160 399,240 638,80 159,-80 239,-398 80,-558 -80,-239 -399,-319 -558,-159 -239,159 -319,398 -160,637z"/>
   <path class="fil2" d="M50050 44834c159,159 398,239 637,159 240,-159 240,-398 160,-637 -160,-239 -399,-239 -638,-160 -159,160 -239,399 -159,638z"/>
   <path class="fil1" d="M14027 51210c159,159 398,239 637,159 160,-159 239,-398 80,-638 -80,-239 -399,-239 -558,-159 -239,159 -239,399 -159,638z"/>
   <path class="fil2" d="M32676 36067c159,239 398,239 637,160 160,-160 240,-399 80,-638 -80,-159 -398,-239 -558,-159 -239,159 -239,398 -159,637z"/>
   <path class="fil1" d="M86711 83328c-160,239 -399,318 -638,159 -239,-80 -239,-398 -159,-558 159,-239 398,-319 637,-159 160,79 239,398 160,558z"/>
   <path class="fil2" d="M19841 109681c-80,239 -319,239 -558,159 -239,-159 -239,-398 -159,-637 159,-160 398,-239 637,-160 160,160 239,399 80,638z"/>
   <path class="fil2" d="M81530 105483c-79,240 -398,240 -558,160 -239,-160 -318,-399 -159,-638 80,-159 398,-239 558,-79 239,79 319,398 159,557z"/>
   <path class="fil2" d="M89739 93609c-159,239 -398,239 -638,159 -159,-159 -239,-399 -79,-638 79,-159 398,-239 558,-159 239,159 318,398 159,638z"/>
   <g>
    <path class="fil3" d="M19938 59243c478,-2311 2709,-5339 7411,-5339 4623,0 6775,3267 7253,5339l-14664 0zm1355 -7172l956 -479 956 2072c1116,-478 2471,-797 4065,-797 1674,0 2949,319 3985,877l1036 -2152 877 479 -1036 2151c637,399 1036,797 1434,1116 1435,1514 2072,3268 2152,4384l80 557 -17056 0 0 -557c160,-1754 1276,-4065 3587,-5500l-1036 -2151 0 0zm7571 5020c0,558 478,1037 1036,1037 558,0 1036,-479 1036,-1037 0,-557 -478,-1036 -1036,-1036 -558,0 -1036,479 -1036,1036zm-5340 0c0,558 478,1037 1036,1037 638,0 1116,-479 1116,-1037 0,-557 -478,-1036 -1116,-1036 -558,0 -1036,479 -1036,1036zm-3666 5340l14824 0 0 13230 -2152 0 0 5818c0,637 -478,1116 -1036,1116 -558,0 -1036,-479 -1036,-1116l0 -5818 -6376 0 0 5818c0,637 -478,1116 -1036,1116 -638,0 -1116,-479 -1116,-1116l0 -5818 -2072 0 0 -13230 0 0zm-1116 -1116l0 15382 2152 0 0 4782c0,1195 956,2152 2152,2152 1116,0 2072,-957 2072,-2152l0 -4782 4224 0 0 4782c0,1195 956,2152 2152,2152 1195,0 2151,-957 2151,-2152l0 -4782 2073 0 0 -15382 -16976 0 0 0zm-3666 1116c877,0 1594,638 1594,1594l0 7412c0,877 -717,1594 -1594,1594 -956,0 -1594,-718 -1594,-1594l0 -7412c0,-956 638,-1594 1594,-1594zm-2710 1594l0 7412c0,1514 1196,2630 2710,2630 1435,0 2630,-1116 2630,-2630l0 -7412c0,-1514 -1195,-2710 -2630,-2710 -1514,0 -2710,1196 -2710,2710zm27097 -1594c877,0 1594,638 1594,1594l0 7412c0,877 -717,1594 -1594,1594 -876,0 -1593,-718 -1593,-1594l0 -7412c0,-956 717,-1594 1593,-1594zm-2630 1594l0 7412c0,1514 1116,2630 2630,2630 1515,0 2630,-1116 2630,-2630l0 -7412c0,-1514 -1115,-2710 -2630,-2710 -1514,0 -2630,1196 -2630,2710z"/>
    <path class="fil3" d="M80162 73031c-478,-717 -877,-1435 -1116,-2232 -239,-797 -398,-1673 -398,-2550 0,-797 159,-1594 398,-2311 239,-717 558,-1435 1036,-2152 239,-319 558,-717 957,-1116 159,-239 398,-398 557,-558l-239 -239c-318,-318 -558,-558 -876,-717 -479,-398 -1036,-638 -1594,-797 -558,-159 -1116,-239 -1754,-239 -398,0 -876,0 -1354,80 -479,159 -1037,318 -1594,478 -638,239 -1196,398 -1674,478 -558,159 -956,239 -1355,239 -239,0 -637,-80 -1195,-159 -399,-160 -957,-239 -1674,-478l0 0c-638,-160 -1195,-319 -1674,-399 -478,-80 -956,-80 -1354,-80 -877,0 -1754,160 -2471,558 -797,319 -1435,957 -2072,1754 -638,797 -1116,1673 -1355,2789 -399,1036 -558,2231 -558,3586 0,1435 239,2869 717,4304 399,1514 1036,3029 1913,4622 877,1515 1753,2630 2630,3348 717,637 1435,956 2152,956 239,0 558,0 877,-80 318,-79 717,-239 1195,-478l0 0c558,-239 1116,-398 1594,-478l0 0c558,-159 1036,-239 1514,-239 399,0 957,80 1514,239 479,80 1036,239 1594,478 558,160 1036,319 1435,399 319,79 637,159 877,159 557,0 1195,-239 1753,-717 717,-558 1514,-1435 2231,-2550l0 0c479,-718 957,-1515 1276,-2232l0 0c239,-398 398,-877 637,-1355 -398,-159 -637,-319 -956,-558 -558,-478 -1116,-1036 -1594,-1753l0 0zm-6296 -15780c398,-399 637,-717 956,-1116 239,-398 399,-717 558,-1116 159,-398 319,-797 399,-1195 0,-160 79,-319 79,-478 -558,159 -956,398 -1355,637 -717,399 -1195,877 -1594,1435l0 0c-398,558 -717,1195 -956,1912 -80,319 -159,718 -239,1116 239,0 398,-79 558,-79 239,-80 478,-240 797,-399 239,-239 558,-478 797,-717l0 0 0 0zm717 717c797,-797 1355,-1673 1753,-2630 399,-877 558,-1753 558,-2550l0 -160c0,-79 0,-159 0,-159 0,-80 -79,-159 -79,-239 0,-80 0,-159 0,-239 -2232,558 -3826,1434 -4703,2789 -956,1355 -1434,2949 -1514,4862 877,-80 1514,-239 1993,-319 637,-239 1355,-717 1992,-1355l0 0zm6376 14505c-877,-1275 -1275,-2630 -1275,-4224 0,-1355 398,-2710 1195,-3825 478,-638 1196,-1435 2152,-2232 -638,-797 -1275,-1435 -1913,-1913 -1195,-797 -2550,-1195 -3985,-1195 -956,0 -1992,239 -3267,637 -1275,399 -2152,638 -2710,638 -398,0 -1275,-159 -2550,-558 -1355,-398 -2471,-558 -3348,-558 -2151,0 -3905,877 -5339,2710 -1355,1833 -2072,4144 -2072,7013 0,3029 876,6137 2709,9405 1913,3267 3746,4861 5659,4861 637,0 1434,-239 2470,-637 1037,-399 1913,-638 2710,-638 797,0 1753,239 2790,638 1115,398 1992,557 2630,557 1593,0 3187,-1195 4781,-3666 1116,-1514 1833,-3108 2312,-4702 -1116,-319 -2073,-1116 -2949,-2311l0 0z"/>
   </g>
   <path class="fil0" d="M79458 48340c-398,0 -398,558 0,558 399,0 399,-558 0,-558z"/>
   <path class="fil4" d="M66727 270c-159,-239 -398,-319 -638,-160 -159,160 -239,399 -159,638 159,159 399,239 638,80 159,-80 239,-399 159,-558z"/>
   <rect class="fil5" y="44754" width="422" height="57435"/>
   <path class="fil4" d="M18251 98789c0,637 -80,1116 -240,1514 -159,399 -398,717 -717,956 -239,240 -637,399 -1036,479 -398,159 -877,159 -1355,159 -2231,0 -3347,-1036 -3347,-3108l0 -1993 1594 0 0 1913c0,558 159,957 398,1275 319,319 718,479 1355,479 638,0 1116,-160 1355,-399 319,-239 478,-717 478,-1275l0 -8687 1514 0 0 7332 957 0c80,0 159,0 239,0 0,0 80,0 159,80 0,79 80,79 80,159 0,160 0,239 0,399 0,318 0,478 -80,558 -79,159 -239,159 -398,159l-957 0 1 0zm956 0c0,0 -80,0 -159,0 -80,0 -80,-80 -160,-80 0,-80 -80,-159 -80,-239 0,-80 -79,-159 -79,-319 0,-319 79,-478 159,-637 80,-80 160,-160 319,-160l1992 0 0 -3427 1594 0 0 4862 -3586 0 0 0zm159 2072c0,-239 80,-398 239,-638 160,-159 399,-239 638,-239 239,0 399,80 638,239 159,240 239,399 239,638 0,239 -80,478 -239,638 -239,159 -399,239 -638,239 -239,0 -478,-80 -638,-239 -159,-160 -239,-399 -239,-638zm1993 0c0,-239 79,-398 239,-638 159,-159 398,-239 637,-239 240,0 399,80 638,239 159,240 239,399 239,638 0,239 -80,478 -239,638 -239,159 -398,239 -638,239 -239,0 -478,-80 -637,-239 -160,-160 -239,-399 -239,-638zm5738 -2789c0,318 0,478 -80,558 -79,159 -239,159 -398,159l-478 0c-319,0 -558,0 -797,-80 -240,-79 -399,-159 -558,-319 -239,-79 -319,-318 -399,-557 -159,-240 -159,-479 -159,-877l0 -6854 1594 0 0 6615c0,319 0,478 159,558 80,79 239,159 399,159l239 0c79,0 159,0 159,0 80,0 159,0 159,80 80,79 80,79 160,159 0,160 0,239 0,399l0 0zm956 -638l0 -3507 1594 0 0 4862 -3028 0c-80,0 -160,0 -160,0 -79,0 -159,0 -159,-80 -80,-80 -80,-80 -159,-239 0,-80 0,-159 0,-319 0,-319 0,-478 79,-558 80,-159 239,-159 399,-159l1434 0 0 0zm-239 3427c0,-239 80,-478 239,-638 160,-159 399,-239 638,-239 239,0 398,80 638,239 159,160 239,399 239,638 0,159 -80,399 -239,558 -240,159 -399,239 -638,239 -239,0 -478,-80 -638,-239 -159,-159 -239,-399 -239,-558zm7651 -2072c-79,877 -478,1514 -1036,1992 -637,399 -1594,558 -2789,558l-399 0 0 -1514 319 0c399,0 717,0 1036,0 319,-80 558,-159 717,-239 160,-80 319,-239 399,-319 80,-159 159,-319 159,-478l-717 0c-398,0 -717,0 -1036,-80 -319,-80 -558,-239 -797,-398 -159,-239 -399,-479 -478,-718 -160,-318 -160,-637 -160,-1036 0,-319 0,-637 160,-956 79,-319 239,-638 478,-877 159,-239 478,-478 797,-637 239,-160 638,-160 1036,-160 478,0 797,0 1116,160 319,159 558,398 717,717 239,239 319,558 399,956 79,399 159,797 159,1275l0 399 877 0c79,0 159,0 159,0 80,0 160,0 160,80 79,79 79,79 159,159 0,159 0,239 0,399 0,318 0,478 -80,557 -79,160 -239,160 -398,160l-957 0 0 0zm-3267 -2391c0,398 79,638 239,797 159,159 398,239 717,239l797 0 0 -797c0,-319 -80,-638 -159,-956 -160,-239 -399,-399 -718,-399 -318,0 -558,160 -637,319 -160,239 -239,478 -239,797zm8926 159c0,-159 -80,-239 -80,-398 0,-80 -80,-239 -159,-319 0,-80 -80,-159 -239,-239 -80,-80 -240,-80 -319,-80 -160,0 -239,0 -399,80 -79,80 -159,159 -319,239 -79,159 -159,319 -239,478 -159,239 -239,478 -239,718 160,159 399,239 558,318 160,80 399,160 558,160 319,0 478,-80 638,-319 159,-159 239,-399 239,-638zm-4065 877c80,0 239,-80 399,-239 79,-159 239,-399 318,-717 240,-479 399,-877 638,-1196 159,-319 399,-558 638,-717 239,-160 478,-319 637,-399 239,-79 478,-79 718,-79 318,0 637,79 876,159 319,159 558,319 718,558 239,159 398,478 478,717 79,319 159,718 159,1036 0,718 -159,1355 -558,1754 -319,398 -876,637 -1594,637 -318,0 -637,0 -1036,-159 -319,-80 -637,-239 -1036,-478 -159,239 -398,398 -637,398 -240,80 -479,80 -718,80l-637 0c-80,0 -160,0 -160,0 -79,0 -159,0 -159,-80 -80,-80 -80,-80 -80,-239 -80,-80 -80,-159 -80,-319 0,-319 80,-478 160,-558 0,-159 159,-159 319,-159l637 0 0 0zm20562 1355c-239,0 -478,0 -717,-80 -239,-80 -478,-239 -638,-558 -80,160 -159,319 -319,399 -159,79 -239,79 -398,159 -160,80 -319,80 -478,80 -239,0 -399,0 -558,0l-5340 0c-478,0 -877,0 -1195,-80 -319,-80 -638,-159 -797,-319 -160,-159 -319,-398 -399,-637 -80,-239 -159,-558 -159,-877l0 -1992 1594 0 0 1753c0,159 0,319 79,398 80,80 80,160 239,240 80,79 239,79 399,79 159,80 398,80 717,80l4623 0c318,0 478,-80 557,-159 160,-80 160,-319 160,-558l0 -2790 1594 0 0 2630c0,319 79,558 239,638 80,159 398,239 797,239 0,0 80,0 159,0 80,0 80,0 160,80 0,79 79,79 79,159 0,159 0,239 0,399 0,318 0,478 -79,557 -80,160 -160,160 -319,160l0 0zm-6774 3825c0,-239 79,-398 239,-558 159,-239 398,-318 637,-318 240,0 399,79 558,318 160,160 239,319 239,558 0,239 -79,479 -239,638 -159,159 -318,239 -558,239 -239,0 -478,-80 -637,-239 -160,-159 -239,-399 -239,-638zm-1036 -1753c0,-239 79,-398 239,-638 239,-159 398,-239 637,-239 240,0 479,80 638,239 159,240 239,399 239,638 0,239 -80,478 -239,638 -159,159 -398,239 -638,239 -239,0 -398,-80 -637,-239 -160,-160 -239,-399 -239,-638zm1992 0c0,-239 80,-398 239,-638 160,-159 399,-239 638,-239 239,0 478,80 637,239 160,240 240,399 240,638 0,239 -80,478 -240,638 -159,159 -398,239 -637,239 -239,0 -399,-80 -638,-239 -159,-160 -239,-399 -239,-638zm5738 -2072c0,0 -79,0 -159,0 -80,0 -80,-80 -159,-80 0,-80 -80,-159 -80,-239 0,-80 -80,-159 -80,-319 0,-319 80,-478 160,-637 79,-80 159,-80 398,-80l1913 -80 0 -3427 1594 0 0 4862 -3587 0 0 0zm160 2072c0,-239 79,-398 239,-638 239,-159 398,-239 637,-239 240,0 399,80 638,239 159,240 239,399 239,638 0,239 -80,478 -239,638 -239,159 -398,239 -638,239 -239,0 -398,-80 -637,-239 -160,-160 -239,-399 -239,-638zm1992 0c0,-239 80,-398 239,-638 160,-159 399,-239 638,-239 239,0 478,80 637,239 160,240 240,399 240,638 0,239 -80,478 -240,638 -159,159 -398,239 -637,239 -239,0 -478,-80 -638,-239 -159,-160 -239,-399 -239,-638zm7811 -2072c-240,0 -399,0 -558,0 -160,0 -319,-80 -479,-160 -79,0 -159,-79 -318,-159 -80,-80 -239,-159 -319,-239 -239,239 -478,398 -797,478 -239,80 -558,80 -877,80l-2072 0 0 -1355 2391 0c159,0 319,-80 398,-159 160,0 160,-80 160,-160 0,-80 0,-239 -80,-319 -80,-159 -239,-398 -478,-637l-1116 -1674 1514 -956 1435 2470c159,319 319,479 398,718 160,159 240,318 319,398 80,80 160,160 239,239 80,0 160,80 239,80 80,0 160,0 240,0 79,0 79,0 159,80 0,79 80,79 80,159 0,159 0,239 0,399 0,318 0,478 -80,557 -80,160 -159,160 -399,160l1 0zm1354 -6934c0,-239 80,-478 239,-637 160,-160 399,-239 638,-239 239,0 399,79 558,239 159,159 239,398 239,637 0,239 -80,399 -239,558 -159,239 -319,319 -558,319 -239,0 -478,-80 -638,-319 -159,-159 -239,-319 -239,-558zm80 5579l0 -3507 1594 0 0 4862 -3029 0c0,0 -79,0 -159,0 -80,0 -80,0 -159,-80 0,-80 -80,-80 -80,-239 0,-80 -80,-159 -80,-319 0,-319 80,-478 160,-558 79,-159 159,-159 318,-159l1435 0 0 0zm6376 1355c-80,0 -239,0 -399,-80 -239,0 -398,-159 -478,-319 -80,558 -80,1036 -239,1435 -80,319 -319,638 -558,877 -239,239 -558,398 -877,478 -398,80 -876,159 -1354,159l0 -1514c318,0 557,0 797,-80 159,-79 318,-159 398,-318 80,-160 159,-319 239,-558 0,-160 0,-479 0,-718l0 -3666 1594 0 0 2072c0,319 80,558 239,638 239,159 399,239 638,239 79,0 159,0 159,0 80,0 160,0 160,80 79,79 79,79 159,159 0,160 0,239 0,399 0,318 0,478 -80,558 -79,159 -239,159 -398,159l0 0zm478 -1355c239,0 399,0 478,-80 80,0 239,0 319,0 80,-79 80,-159 159,-239 0,-79 0,-159 0,-319l0 -2311 1594 0 0 2072c0,239 80,479 239,638 80,159 319,239 638,239 239,0 399,-80 558,-159 239,-80 319,-239 319,-479l0 -2311 1594 0 0 2072c0,558 239,877 717,877l717 0 0 -3507 1594 0 0 4862 -1833 0c-478,0 -797,0 -1036,-160 -159,-79 -398,-239 -558,-478 -80,160 -239,319 -398,399 -80,79 -239,159 -399,159 -159,80 -319,80 -398,80 -160,0 -319,0 -479,0 -398,0 -717,-80 -1036,-160 -239,-159 -478,-318 -558,-478 -239,319 -557,478 -876,558 -319,80 -797,80 -1355,80l-478 0c-80,0 -80,0 -160,0 -79,0 -159,0 -159,-80 -80,-80 -80,-80 -80,-239 -80,-80 -80,-159 -80,-319 0,-319 80,-478 160,-558 80,-159 159,-159 319,-159l478 0 0 0z"/>
   <rect class="fil3" x="17693" y="97354" width="3444" height="1419"/>
   <rect class="fil3" x="26061" y="97434" width="3374" height="1408"/>
   <rect class="fil3" x="35226" y="97434" width="1805" height="1408"/>
   <polygon class="fil3" points="59534,97354 57541,97434 57143,98709 59534,98709 "/>
   <rect class="fil3" x="75075" y="97434" width="576" height="158"/>
   <path class="fil6" d="M15329 26954c-1912,0 -3347,-1594 -3347,-3427l-80 0c0,1833 -1514,3427 -3347,3427 1833,80 3347,1594 3347,3507l0 0c80,-1913 1515,-3427 3427,-3507z"/>
   <path class="fil0" d="M73211 12383c957,0 1674,-797 1674,-1753l80 0c0,956 717,1753 1673,1753 -956,80 -1673,877 -1673,1833l-80 0c0,-956 -717,-1753 -1674,-1833z"/>
   <path class="fil4" d="M47827 31855c-956,0 -1674,-797 -1674,-1753l-79 0c0,956 -718,1753 -1674,1753 956,0 1674,797 1674,1754l79 0c0,-957 718,-1754 1674,-1754z"/>
   <path class="fil1" d="M9405 641c-159,239 -399,319 -638,159 -239,-79 -239,-398 -159,-558 159,-239 398,-318 638,-159 159,80 239,399 159,558z"/>
   <path class="fil2" d="M39704 14331c159,239 398,319 638,159 239,-159 239,-398 159,-637 -159,-160 -399,-240 -638,-80 -159,80 -239,398 -159,558z"/>
   <path class="fil1" d="M83876 641c-159,239 -398,319 -637,159 -239,-79 -239,-398 -160,-558 160,-239 399,-318 638,-159 159,80 239,399 159,558z"/>
  </g>
 </g>
</svg>
