<?xml version="1.0" encoding="UTF-8"?>
<!DOCTYPE svg PUBLIC "-//W3C//DTD SVG 1.1//EN" "http://www.w3.org/Graphics/SVG/1.1/DTD/svg11.dtd">
<!-- Creator: CorelDRAW X7 -->
<svg xmlns="http://www.w3.org/2000/svg" xml:space="preserve" width="100%" height="100%" version="1.1" style="shape-rendering:geometricPrecision; text-rendering:geometricPrecision; image-rendering:optimizeQuality; fill-rule:evenodd; clip-rule:evenodd"
viewBox="0 0 162560 33867"
 xmlns:xlink="http://www.w3.org/1999/xlink">
 <defs>
  <style type="text/css">
   <![CDATA[
    .fil3 {fill:#FDDFD1}
    .fil15 {fill:#F7D8C4}
    .fil22 {fill:#D2AE6D}
    .fil30 {fill:#D89F60}
    .fil1 {fill:#F2D6C0}
    .fil0 {fill:#DFB778}
    .fil4 {fill:#8DA0D1}
    .fil2 {fill:#835086}
    .fil6 {fill:#6C87C3}
    .fil5 {fill:#686AA2}
    .fil31 {fill:black}
    .fil14 {fill:#DABA76}
    .fil19 {fill:#F0F5FF}
    .fil16 {fill:#FF6600}
    .fil20 {fill:white}
    .fil23 {fill:white}
    .fil8 {fill:#FDDFD1;fill-rule:nonzero}
    .fil9 {fill:#FCD9C8;fill-rule:nonzero}
    .fil25 {fill:#D2AE6D;fill-rule:nonzero}
    .fil10 {fill:#DABA76;fill-rule:nonzero}
    .fil21 {fill:#8DA0D1;fill-rule:nonzero}
    .fil11 {fill:#6C87C3;fill-rule:nonzero}
    .fil12 {fill:#686AA2;fill-rule:nonzero}
    .fil29 {fill:#282828;fill-rule:nonzero}
    .fil26 {fill:#D2AE6D;fill-rule:nonzero}
    .fil18 {fill:#D6E4FF;fill-rule:nonzero}
    .fil24 {fill:#E2C89A;fill-rule:nonzero}
    .fil13 {fill:#EBF2FF;fill-rule:nonzero}
    .fil27 {fill:#F4DDB5;fill-rule:nonzero}
    .fil28 {fill:#F6E3C3;fill-rule:nonzero}
    .fil7 {fill:white;fill-rule:nonzero}
    .fil17 {fill:white;fill-rule:nonzero}
   ]]>
  </style>
 </defs>
 <g id="Layer_x0020_1">
  <metadata id="CorelCorpID_0Corel-Layer"/>
  <g id="_2565978925936">
   <polygon class="fil0" points="0,33867 162560,33867 162560,0 0,0 "/>
   <path class="fil1" d="M17916 6440c0,0 3689,1103 3607,-1238 0,0 -54,-1707 -2190,-707 0,0 -77,-2319 -1923,-2151 -1846,169 -2487,452 -2487,452 0,0 59,-657 -703,-1029 -1136,-555 -2870,-65 -2870,-65 0,0 -1209,311 -1060,1258 171,1101 658,790 2165,816 0,0 4389,4209 5461,2664z"/>
   <path class="fil2" d="M18556 33867c133,-815 238,-1649 316,-2495 313,-3429 174,-7026 -414,-10690 -589,-3664 -1592,-7179 -2981,-10448 -668,-1571 -1424,-3075 -2247,-4472 -815,-1382 -1702,-2670 -2638,-3829 -556,-689 -1132,-1335 -1723,-1933l-8869 0 0 33620 729 247 17827 0z"/>
   <path class="fil3" d="M18591 33867c153,-1006 264,-2050 331,-3117 197,-3118 28,-6393 -502,-9735 -530,-3343 -1389,-6555 -2554,-9546 -560,-1438 -1189,-2816 -1871,-4097 -674,-1268 -1405,-2451 -2173,-3517 -768,-1066 -1579,-2023 -2410,-2844 -366,-363 -737,-700 -1113,-1011l-8299 0 0 33867 18591 0z"/>
   <path class="fil4" d="M6066 13494c2317,-214 4787,3300 5505,7832 718,4532 -582,8393 -2900,8606 -2316,213 -4786,-3300 -5504,-7832 -718,-4532 582,-8393 2899,-8606z"/>
   <path class="fil5" d="M4406 0c5501,1884 10998,10381 12670,20926 750,4732 621,9199 -177,12941l2314 0c107,-715 193,-1444 259,-2182 304,-3429 157,-7025 -436,-10688 -593,-3664 -1597,-7179 -2984,-10447 -667,-1570 -1421,-3074 -2241,-4470 -813,-1382 -1697,-2670 -2629,-3828 -654,-813 -1335,-1567 -2035,-2252l-4741 0zm-4406 20l51 -20 -51 0 0 20z"/>
   <path class="fil6" d="M4997 8369c3749,-345 7745,5341 8908,12675 897,5658 -152,10669 -2399,12823l3302 0c579,-1731 935,-3715 1059,-5898 129,-2275 -2,-4667 -388,-7107 -387,-2440 -1007,-4785 -1843,-6972 -807,-2111 -1780,-3983 -2892,-5565 -1112,-1582 -2307,-2794 -3552,-3604 -1290,-838 -2577,-1205 -3825,-1090 -1244,115 -2377,703 -3367,1747l0 12139c185,-5091 2100,-8881 4997,-9148zm-4997 23832c292,580 598,1136 918,1666l5060 0c-2586,-1972 -4846,-6354 -5673,-11570 -170,-1070 -269,-2116 -305,-3124l0 13028z"/>
   <path class="fil6" d="M7571 20886c0,0 2245,6804 2788,8029l596 -1049c0,0 -2235,-5341 -3384,-6980z"/>
   <path class="fil4" d="M10359 28915c0,0 1343,3267 1871,4102 0,0 515,-726 627,-1063 0,0 -1575,-3431 -1900,-3947l-598 908z"/>
   <path class="fil7" d="M54726 2594c35,57 110,75 167,39 57,-36 74,-112 39,-169 -35,-58 -110,-75 -167,-39 -57,36 -74,111 -39,169z"/>
   <path class="fil8" d="M69944 3223c36,57 111,74 168,39 56,-36 74,-112 38,-169 -35,-58 -110,-75 -167,-39 -57,35 -74,111 -39,169z"/>
   <path class="fil8" d="M58053 11385c36,57 111,75 167,39 57,-36 75,-111 39,-169 -35,-57 -110,-75 -167,-39 -57,36 -74,111 -39,169z"/>
   <path class="fil8" d="M59040 8479c36,58 111,75 168,39 57,-35 74,-111 38,-168 -35,-58 -110,-76 -167,-40 -57,36 -74,112 -39,169z"/>
   <path class="fil8" d="M54884 6333c35,57 110,75 167,39 57,-36 74,-112 39,-169 -36,-58 -111,-75 -168,-39 -57,36 -74,111 -38,169z"/>
   <path class="fil8" d="M48833 1448c36,58 110,75 167,40 57,-36 75,-112 39,-169 -35,-58 -110,-75 -167,-40 -57,36 -74,112 -39,169z"/>
   <path class="fil8" d="M18052 10005c35,57 110,75 167,39 57,-36 74,-111 39,-169 -36,-57 -111,-75 -168,-39 -57,36 -74,111 -38,169z"/>
   <path class="fil7" d="M15861 8839c35,58 110,75 167,39 57,-35 74,-111 39,-169 -36,-57 -111,-75 -168,-39 -56,36 -74,112 -38,169z"/>
   <path class="fil8" d="M25314 4608c35,57 110,75 167,39 57,-36 74,-111 39,-169 -36,-57 -110,-75 -167,-39 -57,36 -75,112 -39,169z"/>
   <path class="fil7" d="M32075 4536c35,58 110,75 167,40 57,-36 74,-112 39,-169 -36,-58 -111,-75 -168,-40 -57,36 -74,112 -38,169z"/>
   <path class="fil8" d="M37914 4844c35,57 110,75 167,39 57,-36 74,-111 39,-169 -36,-57 -111,-75 -168,-39 -57,36 -74,111 -38,169z"/>
   <path class="fil8" d="M40465 2621c36,58 111,75 168,39 57,-36 74,-111 39,-169 -36,-57 -111,-75 -168,-39 -57,36 -74,112 -39,169z"/>
   <path class="fil8" d="M47281 8813c36,58 111,75 168,39 56,-35 74,-111 38,-168 -35,-58 -110,-76 -167,-40 -57,36 -74,112 -39,169z"/>
   <path class="fil8" d="M96213 3101c36,57 111,75 168,39 57,-36 74,-112 39,-169 -36,-58 -111,-75 -168,-39 -57,36 -74,111 -39,169z"/>
   <path class="fil7" d="M28031 10728c35,57 110,75 167,39 57,-36 74,-111 39,-169 -36,-57 -111,-75 -167,-39 -57,36 -75,111 -39,169z"/>
   <path class="fil8" d="M81406 13027c35,58 110,75 167,40 57,-36 74,-112 39,-169 -35,-58 -110,-75 -167,-39 -57,35 -74,111 -39,168z"/>
   <path class="fil8" d="M37264 12011c35,58 110,75 167,40 57,-36 74,-112 39,-169 -36,-58 -110,-76 -167,-40 -57,36 -75,112 -39,169z"/>
   <path class="fil8" d="M42292 11733c36,57 111,75 168,39 57,-36 74,-112 38,-169 -35,-58 -110,-75 -167,-39 -57,35 -74,111 -39,169z"/>
   <path class="fil8" d="M47826 14023c36,58 111,75 167,40 57,-36 75,-112 39,-169 -35,-58 -110,-76 -167,-40 -57,36 -74,112 -39,169z"/>
   <path class="fil8" d="M34335 2124c35,58 110,75 167,39 57,-35 74,-111 39,-169 -35,-57 -110,-75 -167,-39 -57,36 -75,112 -39,169z"/>
   <path class="fil8" d="M29940 1763c36,58 111,75 167,39 57,-35 75,-111 39,-169 -35,-57 -110,-75 -167,-39 -57,36 -74,112 -39,169z"/>
   <path class="fil8" d="M25006 2390c36,58 111,75 167,40 57,-36 75,-112 39,-169 -35,-58 -110,-75 -167,-39 -57,35 -74,111 -39,168z"/>
   <path class="fil8" d="M44628 8304c35,57 110,75 167,39 57,-36 74,-111 39,-169 -36,-57 -110,-75 -167,-39 -57,36 -75,111 -39,169z"/>
   <path class="fil7" d="M48404 6490c35,58 110,75 167,40 57,-36 74,-112 39,-169 -36,-58 -111,-75 -168,-39 -57,35 -74,111 -38,168z"/>
   <path class="fil7" d="M50885 10823c36,58 111,75 168,39 57,-36 74,-111 38,-169 -35,-57 -110,-75 -167,-39 -57,36 -74,112 -39,169z"/>
   <path class="fil8" d="M46091 30658c35,57 110,75 167,39 57,-36 74,-112 39,-169 -36,-58 -110,-75 -167,-39 -57,36 -75,111 -39,169z"/>
   <path class="fil8" d="M42434 5841c36,57 111,75 168,39 57,-36 74,-112 38,-169 -35,-58 -110,-75 -167,-39 -57,35 -74,111 -39,169z"/>
   <path class="fil7" d="M36494 5949c36,58 111,75 167,40 57,-36 75,-112 39,-169 -35,-58 -110,-75 -167,-39 -57,35 -74,111 -39,168z"/>
   <path class="fil8" d="M29444 8282c35,57 110,75 167,39 57,-36 74,-112 39,-169 -36,-58 -111,-75 -167,-39 -57,35 -75,111 -39,169z"/>
   <path class="fil8" d="M20029 30841c36,57 111,75 168,39 57,-36 74,-111 38,-169 -35,-57 -110,-75 -167,-39 -57,36 -74,111 -39,169z"/>
   <path class="fil8" d="M22043 26024c35,57 110,75 167,39 57,-36 75,-111 39,-169 -36,-57 -110,-75 -167,-39 -57,36 -75,111 -39,169z"/>
   <path class="fil8" d="M36301 26650c36,58 111,75 168,39 57,-35 74,-111 38,-169 -35,-57 -110,-75 -167,-39 -57,36 -74,112 -39,169z"/>
   <path class="fil8" d="M60721 23202c35,57 110,75 167,39 57,-36 74,-112 39,-169 -36,-58 -111,-75 -168,-39 -57,35 -74,111 -38,169z"/>
   <path class="fil8" d="M64904 24532c36,57 111,75 168,39 57,-36 74,-111 38,-169 -35,-57 -110,-75 -167,-39 -57,36 -74,112 -39,169z"/>
   <path class="fil8" d="M45392 27829c35,57 110,75 167,39 57,-36 74,-112 39,-169 -35,-58 -110,-75 -167,-39 -57,35 -75,111 -39,169z"/>
   <path class="fil8" d="M24614 27299c35,58 110,75 167,39 57,-36 75,-111 39,-169 -36,-57 -110,-75 -167,-39 -57,36 -75,112 -39,169z"/>
   <path class="fil7" d="M20645 29870c36,57 111,75 168,39 57,-36 74,-112 38,-169 -35,-57 -110,-75 -167,-39 -57,36 -74,111 -39,169z"/>
   <path class="fil8" d="M80524 19378c35,57 110,74 167,39 57,-36 74,-112 39,-169 -35,-58 -110,-75 -167,-39 -57,35 -74,111 -39,169z"/>
   <path class="fil8" d="M26540 7599c35,57 110,75 167,39 57,-36 74,-112 39,-169 -36,-58 -110,-75 -167,-39 -57,36 -75,111 -39,169z"/>
   <path class="fil8" d="M66593 16099c35,57 110,75 167,39 57,-36 74,-111 39,-169 -36,-57 -110,-75 -167,-39 -57,36 -75,111 -39,169z"/>
   <path class="fil7" d="M22153 4814c35,58 110,75 167,40 57,-36 74,-112 39,-169 -36,-58 -111,-76 -167,-40 -57,36 -75,112 -39,169z"/>
   <path class="fil8" d="M22237 30475c36,58 111,75 168,39 57,-35 74,-111 38,-169 -35,-57 -110,-75 -167,-39 -57,36 -74,112 -39,169z"/>
   <path class="fil8" d="M27137 31432c36,57 110,75 167,39 57,-36 75,-111 39,-169 -35,-57 -110,-75 -167,-39 -57,36 -74,112 -39,169z"/>
   <path class="fil7" d="M46793 28147c36,58 111,75 168,39 56,-36 74,-111 38,-169 -35,-57 -110,-75 -167,-39 -57,36 -74,112 -39,169z"/>
   <path class="fil8" d="M51698 31333c35,57 110,75 167,39 57,-36 74,-111 39,-169 -36,-57 -111,-75 -168,-39 -56,36 -74,112 -38,169z"/>
   <path class="fil8" d="M55725 32096c35,57 110,75 167,39 57,-36 74,-112 39,-169 -36,-58 -111,-75 -167,-39 -57,36 -75,111 -39,169z"/>
   <path class="fil8" d="M41593 30454c36,57 110,75 167,39 57,-36 75,-112 39,-169 -35,-58 -110,-75 -167,-39 -57,36 -74,111 -39,169z"/>
   <g>
    <path class="fil9" d="M34211 14654l244 2047 381 2025c0,0 1598,-183 3224,-908l-538 -275c0,0 1006,-269 2547,-1721 -1904,-913 -2944,-862 -2944,-862l431 -426c-1766,-194 -3345,120 -3345,120z"/>
    <path class="fil10" d="M34293 15341l162 1360 253 1345c0,0 1062,-122 2142,-603l-358 -183c0,0 669,-179 1693,-1143 -1265,-606 -1956,-573 -1956,-573l286 -283c-1174,-129 -2222,80 -2222,80z"/>
    <polygon class="fil11" points="34369,14155 35136,19153 34540,19246 33773,14248 "/>
    <path class="fil12" d="M30324 20757c0,0 2575,3101 6773,1733 392,-128 394,-692 -2,-812 -1093,-332 -2558,-1058 -3062,-2615l-3709 1694z"/>
    <path class="fil12" d="M29302 14097c0,0 1525,-3743 5936,-3722 412,2 583,540 242,775 -943,650 -2122,1790 -2135,3428l-4043 -481z"/>
    <path class="fil13" d="M33782 14019c-1449,-250 -7375,-22 -13023,861 -6389,999 -13331,5132 -13194,6025 138,893 7994,2713 14383,1714 6027,-943 11364,-2476 12670,-3157l-836 -5443z"/>
    <path class="fil12" d="M13917 22676c403,-904 559,-1864 411,-2828 -148,-964 -585,-1832 -1240,-2571 -3162,1428 -5475,3017 -5524,3583 -1,16 -1,31 1,45 2,15 7,29 13,43 216,526 2898,1334 6339,1728z"/>
    <path class="fil11" d="M22907 16253c-1205,188 -2029,1327 -1843,2543 186,1216 1314,2050 2518,1861 1204,-188 2029,-1327 1843,-2543 -187,-1217 -1314,-2050 -2518,-1861z"/>
    <path class="fil11" d="M26977 16549c-707,110 -1190,778 -1081,1491 109,713 771,1202 1477,1091 706,-110 1190,-778 1080,-1491 -109,-713 -770,-1202 -1476,-1091z"/>
    <path class="fil14" d="M27324 18811c531,-83 895,-585 812,-1122l0 0c-82,-536 -579,-904 -1110,-820l0 0c-532,83 -896,585 -813,1121l0 0c35,228 145,426 300,571l0 0c211,197 505,298 811,250l0 0z"/>
    <path class="fil12" d="M34084 15979c1662,-260 3061,-130 3126,290 64,421 -1231,973 -2893,1233 -1662,260 -3061,130 -3126,-291 -64,-420 1231,-972 2893,-1232z"/>
   </g>
   <path class="fil15" d="M60524 28852c0,0 1333,-2153 -765,-2395 -1769,-204 -2605,131 -2605,131 0,0 1371,-1954 -80,-2444 -1452,-491 -5176,668 -5176,668 0,0 486,-1635 -1234,-1316 -1720,318 -2957,1362 -2891,1834 0,0 -720,1837 4239,1489 0,0 164,3372 5324,2080 0,0 1734,2160 3188,-47z"/>
   <path class="fil8" d="M37865 32586c35,57 110,75 167,39 57,-36 74,-111 39,-169 -36,-57 -110,-75 -167,-39 -57,36 -74,111 -39,169z"/>
   <path class="fil8" d="M32113 29170c36,57 111,75 168,39 56,-36 74,-111 38,-169 -35,-57 -110,-75 -167,-39 -57,36 -74,112 -39,169z"/>
   <path class="fil8" d="M40038 24892c36,58 111,75 168,39 57,-36 74,-111 38,-169 -35,-57 -110,-75 -167,-39 -57,36 -74,112 -39,169z"/>
   <path class="fil8" d="M32148 32759c35,58 110,75 167,39 57,-36 75,-111 39,-169 -35,-57 -110,-75 -167,-39 -57,36 -74,112 -39,169z"/>
   <path class="fil7" d="M34190 33274c35,58 110,75 167,39 57,-36 74,-111 39,-169 -35,-57 -110,-75 -167,-39 -57,36 -74,112 -39,169z"/>
   <path class="fil7" d="M29234 28279c36,58 111,75 168,39 56,-35 74,-111 38,-169 -35,-57 -110,-75 -167,-39 -57,36 -74,112 -39,169z"/>
   <path class="fil8" d="M41950 27364c35,58 110,75 167,39 57,-36 74,-111 39,-169 -36,-57 -111,-75 -167,-39 -57,36 -75,112 -39,169z"/>
   <polygon class="fil16" points="15679,22404 15687,22379 15690,22405 "/>
   <polygon class="fil16" points="14705,21013 14705,21012 14705,21013 "/>
   <path class="fil8" d="M65619 11440c36,57 110,75 167,39 57,-36 75,-111 39,-169 -35,-57 -110,-75 -167,-39 -57,36 -74,112 -39,169z"/>
   <path class="fil8" d="M51723 19393c36,57 111,75 168,39 57,-36 74,-111 38,-169 -35,-57 -110,-75 -167,-39 -57,36 -74,111 -39,169z"/>
   <path class="fil7" d="M74174 20524c35,57 110,75 167,39 57,-36 74,-111 39,-169 -35,-57 -110,-75 -167,-39 -57,36 -74,112 -39,169z"/>
   <path class="fil7" d="M55606 14531c36,57 111,75 167,39 57,-36 75,-111 39,-169 -35,-57 -110,-75 -167,-39 -57,36 -74,111 -39,169z"/>
   <path class="fil8" d="M62044 30610c35,57 110,75 167,39 57,-36 74,-111 39,-169 -36,-57 -111,-75 -168,-39 -57,36 -74,111 -38,169z"/>
   <path class="fil8" d="M32845 23769c36,58 111,75 168,39 57,-35 74,-111 38,-168 -35,-58 -110,-76 -167,-40 -57,36 -74,112 -39,169z"/>
   <path class="fil8" d="M43485 21333c35,58 110,75 167,39 57,-35 74,-111 39,-169 -36,-57 -110,-75 -167,-39 -57,36 -74,112 -39,169z"/>
   <path class="fil8" d="M47644 23798c35,57 110,75 167,39 57,-36 74,-111 39,-169 -36,-57 -110,-75 -167,-39 -57,36 -75,111 -39,169z"/>
   <path class="fil8" d="M58826 18625c36,57 111,75 168,39 57,-36 74,-112 38,-169 -35,-57 -110,-75 -167,-39 -57,36 -74,111 -39,169z"/>
   <path class="fil8" d="M53926 20289c36,57 111,75 168,39 57,-36 74,-112 38,-169 -35,-58 -110,-75 -167,-39 -57,36 -74,111 -39,169z"/>
   <path class="fil8" d="M46024 19180c35,57 110,75 167,39 57,-36 74,-112 39,-169 -35,-58 -110,-75 -167,-39 -57,36 -75,111 -39,169z"/>
   <path class="fil8" d="M76987 31235c35,57 110,75 167,39 57,-36 74,-112 39,-169 -35,-57 -110,-75 -167,-39 -57,36 -74,111 -39,169z"/>
   <path class="fil7" d="M46890 20418c35,58 110,75 167,39 57,-35 74,-111 39,-168 -36,-58 -111,-75 -168,-40 -57,36 -74,112 -38,169z"/>
   <path class="fil8" d="M39682 19062c36,58 111,75 168,39 56,-35 74,-111 38,-168 -35,-58 -110,-76 -167,-40 -57,36 -74,112 -39,169z"/>
   <path class="fil8" d="M27087 23558c36,57 110,75 167,39 57,-36 75,-112 39,-169 -35,-58 -110,-75 -167,-39 -57,35 -74,111 -39,169z"/>
   <path class="fil8" d="M25619 30591c-267,9 -481,228 -483,499l-4 0c-2,-271 -216,-490 -483,-499 268,-9 483,-230 483,-503l4 0c0,273 215,494 483,503z"/>
   <path class="fil17" d="M39004 8209c322,-11 580,-275 582,-603l5 0c2,328 260,592 582,603 -323,10 -582,277 -582,606l-5 0c0,-329 -259,-596 -582,-606z"/>
   <path class="fil8" d="M66812 4963c-651,22 -1172,556 -1177,1218l-10 0c-4,-662 -526,-1196 -1177,-1218 654,-22 1177,-560 1178,-1226l8 0c1,666 525,1204 1178,1226z"/>
   <g>
    <g>
     <path class="fil18" d="M23633 8880c0,0 459,-283 687,-59 228,224 224,1445 224,1445l-997 -1041 86 -345z"/>
     <path class="fil19" d="M21840 9845c0,0 -734,199 -1013,363 -280,163 -781,649 -983,869 0,0 7,486 404,529 0,0 778,-557 1042,-608 265,-51 644,-136 644,-136l186 -932 -280 -85z"/>
     <path class="fil20" d="M19844 11077c0,0 -470,126 -559,246 -89,121 272,2 272,2 0,0 -401,267 -357,344 44,77 448,-204 448,-204 0,0 -418,256 -374,333 44,77 435,-186 435,-186 0,0 -269,279 -238,353 32,76 381,-222 381,-222 0,0 26,124 30,259 4,135 231,-21 366,-396l-404 -529z"/>
     <path class="fil11" d="M20302 11682c-22,13 -51,16 -76,5 -434,-188 -455,-587 -455,-604 -2,-47 34,-87 81,-89 47,-2 86,34 88,82 1,13 20,310 353,453 43,19 63,69 44,113 -7,17 -20,31 -35,40z"/>
     <path class="fil4" d="M20675 10311c0,0 246,524 432,757 0,0 77,53 183,-70 0,0 -13,-506 -267,-884 0,0 -204,2 -348,197z"/>
     <path class="fil21" d="M21962 10859l-56 5c-47,-556 90,-856 95,-868l52 24c-2,3 -136,300 -91,839z"/>
     <path class="fil20" d="M22048 9952c0,0 -477,1122 448,2168 0,0 -514,779 -588,1085 -74,305 179,1241 179,1241 0,0 -22,27 -51,71 40,42 145,118 374,126 130,5 300,-13 520,-70 23,-35 43,-71 61,-106 0,0 -126,-794 -198,-1037l569 -526 33 78c48,135 108,277 181,414 0,0 274,479 799,766 0,0 8,32 25,85 50,-2 156,-12 276,-65l80 -40c124,-72 263,-199 355,-424 -18,-30 -37,-60 -58,-89 0,0 -490,-364 -595,-588l-105 -1250c0,0 139,-321 -179,-866l-732 -1399 -1394 426z"/>
     <path class="fil5" d="M22484 10857c53,92 22,209 -69,262 -91,53 -207,22 -260,-70 -53,-92 -21,-209 70,-262 91,-53 207,-22 259,70z"/>
     <path class="fil11" d="M24676 14182l-5 3 -2 1 -4 1 -4 2 -1 1 -6 2 0 0 -5 2 -3 1 -3 1 -4 2 -2 0 -5 2 0 0 -5 2 -3 1 -3 1 -4 2 -1 0 -5 2 -1 0 -5 2 -2 0 -3 1 -4 2 -1 0 -6 1 0 1 -5 1 -2 1 -3 0 -4 2 -1 0 -5 1 -1 1 -4 1 -3 1 -2 0 -4 1 -1 0 -5 2 -1 0 -3 1 -4 0 -2 1 -4 1 0 0 -5 1 -1 0 -4 1 -3 1 -1 0 -5 1 -4 1 -2 0 -3 1 -3 0 -1 0 -4 1 -1 0 -4 1 -2 0 -2 1 -3 0 -1 1 -4 0 -1 0 -3 1 -2 0 -2 0 -3 1 -1 0 -4 0 -1 1 -3 0 -2 0 -2 0 -3 1 -1 0 -3 0 -1 0 -3 1 -2 0 -1 0 -3 0 -1 0 -3 1 -1 0 -1 0 -1 0 -2 0 -2 0 -2 1 -1 0 -3 0 -1 0 -2 0 -2 0 -1 0 -2 0 -1 0 -2 1 -1 0 -2 0 -2 0 -1 0 -2 0 -3 0 0 0 -2 0c-16,1 -25,0 -29,0 -47,-2 -83,-42 -81,-89 2,-48 42,-84 89,-82 18,1 428,10 594,-475 16,-44 64,-68 108,-53 44,16 68,65 53,109l-23 61 -4 10 -1 1 -4 10 -4 10 -1 1 -4 9 -1 2 -4 8 -1 3 -3 7 -2 3 -3 7 -2 4 -3 5 -3 5 -2 4 -3 6 -2 3 -3 7 -1 3 -4 7 -1 2 -5 7 0 1 -5 9 -1 0 -5 9 0 0 -5 8 -1 1 -4 7 -2 2 -4 7 -1 2 -4 6 -2 3 -3 5 -6 7 -3 5 -2 3 -4 5 -2 3 -4 5 -1 2 -5 6 -1 1 -5 7 0 0 -6 8 0 0 -6 7 0 0 -5 6 -2 2 -4 5 -2 2 -4 5 -2 2 -4 4 -2 3 -3 4 -4 3 -2 3 -4 4 -2 2 -4 5 -2 1 -5 5 -1 1 -5 6 -1 0 -6 6 0 0 -6 6 0 0 -5 5 -1 1 -5 4 -2 2 -5 4 -2 2 -3 3 -3 2 -3 3 -3 3 -3 2 -4 3 -2 2 -4 4 -2 1 -5 4 -1 1 -5 4 -1 1 -6 4 0 0 -6 4 -1 1 -5 4 -1 0 -5 4 -1 1 -5 3 -2 2 -4 2 -2 2 -4 2 -3 2 -3 2 -3 3 -3 1 -4 3 -2 1 -4 3 -2 1 -5 2 -1 1 -5 3 0 1 -6 3 -80 40z"/>
     <path class="fil4" d="M24519 13120c-124,356 -660,668 -751,559 -94,-74 -153,-202 -153,-202 254,-449 822,-485 822,-485 0,0 59,30 82,128z"/>
     <path class="fil21" d="M24395 11865c-15,9 -33,13 -51,11 -32,-3 -768,-71 -1075,584 -20,43 -70,61 -113,41 -42,-21 -60,-72 -40,-115 359,-766 1237,-681 1245,-680 47,5 81,47 76,94 -3,28 -19,52 -42,65z"/>
     <path class="fil11" d="M23033 14541c-6,3 -12,6 -19,8l-84 24 -10 2 -10 3 -2 0 -8 2 -10 3 -16 3 -4 2 -10 2 -10 2 -8 2 -2 1 -9 2 -19 4 -2 0 -8 2 -9 2 -10 2 -5 1 -4 1 -9 1 -9 2 -8 2 -1 0 -9 1 -9 2 -9 1 -2 1 -6 1 -9 1 -8 2 -6 1 -12 2 -8 1 -8 1 0 0 -8 1 -9 1 -8 1 -2 0 -6 1 -8 1 -8 1 -5 1 -3 0 -7 1 -8 0 -8 1 0 0 -7 1 -8 0 -7 1 -3 1 -5 0 -7 0 -7 1 -6 0 -2 0 -7 1 -7 0 -7 0 0 0 -7 1 -7 0 -7 0 -3 0 -3 0 -7 0 -7 1 -5 0 -1 0 -7 0 -6 0 -7 0 -1 0 -5 0 -6 -1 -7 0 -3 0 -3 0 -6 0 -21 -1 -10 -1 0 0 -10 0 -9 -1 -1 0 -10 -1 -7 -1 -3 0 -9 -1 -6 -1 -3 0 -9 -2 -5 0 -5 -1 -8 -1 -4 -1 -5 -1 -8 -1 -3 -1 -5 -1 -8 -1 -2 -1 -6 -1 -8 -2 -1 0 -7 -2 -7 -2 0 0 -7 -2 -7 -1 -1 -1 -7 -1 -5 -2 -2 -1 -6 -2 -5 -1 -2 -1 -6 -2 -4 -1 -2 -1 -6 -3 -3 -1 -3 -1 -6 -2 -3 -1 -3 -1 -6 -3 -1 0 -4 -2 -5 -3 -1 0 -4 -2 -5 -3 -1 0 -4 -2 -5 -2 -4 -3 -5 -2 0 -1 -4 -2 -4 -2 -1 0 -4 -3 -3 -2 -1 0 -4 -3 -2 -1 -1 -1 -4 -3 -2 -1 -1 -1 -4 -3 -1 -1 -2 -1 -3 -2 -1 -1 -2 -2 -3 -2 -1 0 -2 -3 -3 -2 0 0 -3 -2 -2 -2 -3 -2 -2 -2 0 0 -2 -2 -2 -2 0 0 -2 -3 -2 -1 0 -1 -19 -23c-27,-39 -16,-92 22,-118 37,-27 89,-17 116,20 8,8 170,176 812,-11 45,-14 92,13 105,58 12,39 -6,79 -39,98z"/>
     <path class="fil4" d="M21990 12989c0,0 608,178 803,441 196,262 -891,65 -891,65 0,0 -147,-251 88,-506z"/>
     <path class="fil21" d="M23260 12448c-31,18 -72,15 -100,-12 -325,-305 -631,-236 -643,-233 -46,11 -92,-17 -103,-63 -11,-45 16,-92 62,-103 16,-4 404,-98 799,274 34,32 36,86 5,121 -7,6 -13,12 -20,16z"/>
     <polygon class="fil21" points="23389,12894 23336,12914 23128,12367 23181,12346 "/>
     <path class="fil20" d="M23574 8212c342,598 132,1366 -467,1715 -600,350 -1363,149 -1705,-449 -342,-597 -133,-1366 467,-1715 600,-350 1363,-149 1705,449z"/>
     <path class="fil5" d="M23211 9754c-63,60 -135,113 -213,159 -558,326 -1268,138 -1587,-418 -145,-255 -184,-543 -128,-812l4 -13c10,-42 57,-62 94,-40 154,93 575,212 1406,-421 50,-38 121,-27 157,25 164,236 545,879 310,1478l-43 42z"/>
     <path class="fil20" d="M25363 11715c0,0 255,635 238,784 -18,150 -198,-188 -198,-188 0,0 107,473 23,498 -85,25 -185,-460 -185,-460 0,0 128,477 44,502 -84,25 -189,-438 -189,-438 0,0 5,389 -69,422 -74,32 -124,-427 -124,-427 0,0 -103,72 -198,167 -95,96 -153,-175 5,-542l653 -318z"/>
     <path class="fil19" d="M23679 9388c0,0 -566,274 -430,788 0,0 320,383 925,749 0,0 139,124 256,409 118,285 252,698 252,698 0,0 325,61 681,-317 0,0 -62,-774 -436,-1309 -373,-535 -1248,-1018 -1248,-1018z"/>
     <path class="fil11" d="M25157 12049c-183,106 -370,99 -473,66 -44,-14 -69,-62 -55,-107 14,-45 61,-70 106,-57 14,5 336,96 555,-280 24,-40 76,-54 116,-30 41,24 54,76 30,117 -82,140 -180,233 -279,291z"/>
     <path class="fil4" d="M24310 11100c0,0 678,-410 617,-694 0,0 105,96 207,382 0,0 -304,354 -764,416 0,0 -34,9 -60,-104z"/>
     <path class="fil21" d="M23353 10328c-6,3 -11,6 -18,8 -58,22 -123,-9 -145,-67 -200,-550 204,-886 446,-986 58,-24 124,3 148,62 24,58 -4,125 -61,149 -51,22 -492,224 -321,696 19,52 -2,111 -49,138z"/>
    </g>
    <path class="fil20" d="M21890 15109c104,257 751,-88 1040,-536 -220,57 -390,75 -520,70 -229,-8 -334,-84 -374,-126 -32,48 -73,116 -107,194 -55,124 -91,272 -39,398z"/>
    <path class="fil20" d="M24953 15034c260,85 410,-298 351,-745 -24,-189 -87,-389 -193,-571 -92,225 -231,352 -355,424l-80 40c-120,53 -226,63 -276,65 12,37 28,85 48,137 87,231 255,568 505,650z"/>
   </g>
   <g>
    <circle class="fil22" cx="23244" cy="18455" r="1693"/>
    <path class="fil23" d="M23564 18934l0 320 -1278 0 0 -320 1278 0zm-1278 -958l0 -320c639,0 1278,0 1917,0l-320 320c-532,0 -1065,0 -1597,0zm1917 319c0,320 0,639 0,959l-320 0 0 -639 0 0 -1597 0 0 -320c639,0 1278,0 1917,0z"/>
   </g>
   <path class="fil5" d="M12857 31954c0,0 144,327 848,1913l-1046 0 -429 -850 627 -1063z"/>
   <path class="fil17" d="M87768 27711c462,-16 832,-395 834,-863l8 0c3,468 373,847 834,863 -463,15 -834,397 -835,868l-6 0c0,-471 -371,-853 -835,-868z"/>
   <path class="fil7" d="M148432 6966c36,-58 111,-75 168,-39 57,36 74,111 38,169 -35,57 -110,75 -167,39 -57,-36 -74,-112 -39,-169z"/>
   <path class="fil8" d="M150438 28999c-57,36 -74,111 -39,168 36,57 112,74 169,38 58,-35 75,-110 39,-167 -35,-57 -111,-74 -169,-39z"/>
   <path class="fil8" d="M96875 21410c-57,35 -75,110 -39,167 36,57 112,74 169,39 58,-35 75,-110 39,-167 -35,-57 -111,-74 -169,-39z"/>
   <path class="fil8" d="M99781 22397c-57,36 -75,111 -39,167 36,57 111,75 169,39 57,-35 75,-110 39,-167 -36,-57 -112,-74 -169,-39z"/>
   <path class="fil8" d="M114421 28951c-58,35 -75,110 -39,167 35,57 111,74 168,39 58,-36 76,-111 40,-167 -36,-57 -112,-75 -169,-39z"/>
   <path class="fil8" d="M142539 8111c36,-57 111,-75 168,-39 57,36 74,112 38,169 -35,57 -110,75 -167,39 -57,-36 -74,-111 -39,-169z"/>
   <path class="fil8" d="M138821 31674c-58,35 -75,110 -39,167 35,57 111,74 168,39 58,-36 76,-111 40,-167 -36,-57 -112,-75 -169,-39z"/>
   <path class="fil8" d="M120771 15193c-58,35 -75,110 -39,167 35,57 111,74 168,39 58,-36 76,-111 40,-168 -36,-57 -112,-74 -169,-38z"/>
   <path class="fil8" d="M152238 22378c-57,35 -75,110 -39,167 36,57 111,74 169,39 57,-35 75,-110 39,-167 -36,-57 -111,-74 -169,-39z"/>
   <path class="fil7" d="M124046 3409c-58,35 -75,110 -40,167 36,57 112,74 169,39 58,-36 76,-111 40,-168 -36,-57 -112,-74 -169,-38z"/>
   <path class="fil7" d="M72416 11671c-57,36 -75,111 -39,167 36,57 112,75 169,39 57,-35 75,-110 39,-167 -36,-57 -111,-74 -169,-39z"/>
   <path class="fil8" d="M92201 17103c-57,36 -75,111 -39,168 36,56 112,74 169,38 58,-35 75,-110 39,-167 -35,-57 -111,-74 -169,-39z"/>
   <path class="fil8" d="M111959 5541c-58,35 -75,110 -39,167 35,57 111,74 169,39 57,-36 74,-111 39,-168 -36,-57 -112,-74 -169,-38z"/>
   <path class="fil7" d="M96958 29127c-57,36 -75,111 -39,167 36,57 112,75 169,39 57,-35 75,-110 39,-167 -36,-57 -111,-74 -169,-39z"/>
   <path class="fil8" d="M86927 6842c-57,35 -75,110 -39,167 36,57 111,74 169,39 57,-36 75,-111 39,-168 -36,-56 -111,-74 -169,-38z"/>
   <path class="fil8" d="M89635 22183c-57,36 -74,111 -39,167 36,57 112,75 169,39 58,-35 75,-110 39,-167 -35,-57 -111,-74 -169,-39z"/>
   <path class="fil8" d="M87972 17283c-58,36 -75,111 -39,168 35,56 111,74 168,38 58,-35 76,-110 40,-167 -36,-57 -112,-74 -169,-39z"/>
   <path class="fil8" d="M104719 3639c-57,35 -75,110 -39,167 36,57 112,74 169,39 58,-35 75,-110 39,-167 -36,-57 -111,-75 -169,-39z"/>
   <path class="fil8" d="M89672 11725c-58,36 -75,111 -39,168 35,57 111,74 169,38 57,-35 75,-110 39,-167 -36,-57 -112,-74 -169,-39z"/>
   <path class="fil7" d="M71226 25959c-58,35 -75,110 -40,167 36,57 112,74 169,39 58,-36 75,-111 40,-168 -36,-57 -112,-74 -169,-38z"/>
   <path class="fil8" d="M78977 4504c35,58 110,75 167,40 57,-36 74,-112 39,-169 -36,-58 -110,-75 -167,-40 -57,36 -75,112 -39,169z"/>
   <g>
    <g id="_2425988439968">
     <path class="fil24" d="M67067 22197c0,-1205 965,-2170 2169,-2170 1196,0 2161,965 2161,2170 0,1195 -965,2160 -2161,2160 -1204,0 -2169,-965 -2169,-2160z"/>
     <path class="fil25" d="M70910 20815c301,381 487,859 487,1382 0,1195 -965,2160 -2161,2160 -673,0 -1266,-301 -1664,-770 0,0 1638,620 2638,-381 1010,-1009 700,-2391 700,-2391l0 0z"/>
     <path class="fil26" d="M68014 21391c-186,0 -186,-292 0,-292 195,0 195,292 0,292z"/>
     <path class="fil26" d="M67917 22701c-195,0 -195,-292 0,-292 186,0 186,292 0,292z"/>
     <path class="fil27" d="M69936 20842c-27,35 -62,71 -97,97 -54,62 -151,62 -213,0 -53,-53 -53,-150 0,-203 35,-36 71,-71 106,-98 53,-62 151,-62 204,0 62,53 62,151 0,204l0 0z"/>
    </g>
   </g>
   <g>
    <g id="_2425989898016">
     <path class="fil24" d="M152967 14190c597,-1035 1927,-1391 2962,-794 1035,598 1385,1924 788,2959 -597,1034 -1918,1388 -2953,791 -1035,-597 -1394,-1922 -797,-2956z"/>
     <path class="fil25" d="M156976 14920c82,478 3,980 -259,1435 -597,1034 -1918,1388 -2953,791 -580,-335 -943,-895 -1051,-1504 0,0 1099,1357 2472,989 1373,-368 1791,-1711 1791,-1711l0 0z"/>
     <path class="fil26" d="M153930 16125c34,-9 69,-18 104,-28 51,-13 86,-74 72,-125 -19,-55 -74,-87 -131,-76 -35,9 -64,21 -95,25 -55,19 -90,80 -76,131 14,52 74,87 126,73l0 0z"/>
     <path class="fil26" d="M154677 13681c-120,-70 -228,116 -107,186 115,66 222,-120 107,-186z"/>
     <path class="fil27" d="M155545 15642l-66 -38c-77,-45 -146,76 -69,120l65 38c77,44 147,-76 70,-120z"/>
     <path class="fil26" d="M154987 15736c-153,-89 -296,157 -142,246 158,92 301,-155 142,-246z"/>
     <path class="fil28" d="M154423 14651c-273,-158 -520,269 -246,427 274,158 520,-269 246,-427z"/>
    </g>
   </g>
   <g>
    <path class="fil29" d="M119281 15636c-74,0 -149,-12 -224,-37 -75,-24 -136,-78 -183,-160 -32,45 -69,79 -111,106 -42,26 -88,47 -137,60 -50,13 -101,21 -154,25 -53,4 -105,6 -157,6l-1703 0c-152,0 -280,-11 -384,-33 -104,-22 -187,-58 -248,-107 -62,-49 -106,-113 -132,-190 -26,-78 -39,-172 -39,-283l0 -641 504 0 0 572c0,52 7,92 20,122 14,30 37,54 70,71 33,18 79,29 136,35 56,5 129,7 217,7l1478 0c88,0 150,-13 185,-40 34,-28 51,-89 51,-183l0 -874 501 0 0 830c0,96 20,165 60,205 41,42 124,62 250,62 20,0 40,2 58,7 19,4 35,13 50,27 14,14 25,35 33,63 7,29 11,68 11,117 0,88 -13,150 -37,183 -25,33 -63,50 -115,50zm-2146 1214c0,-74 27,-139 82,-193 54,-54 119,-81 194,-81 75,0 139,27 194,81 54,54 81,119 81,193 0,75 -27,139 -81,194 -55,54 -119,81 -194,81 -74,0 -139,-27 -194,-81 -55,-55 -82,-119 -82,-194zm-316 -562c0,-74 27,-139 81,-193 54,-55 119,-82 193,-82 75,0 139,27 194,82 54,54 81,119 81,193 0,74 -27,139 -81,193 -55,55 -119,82 -194,82 -74,0 -139,-27 -193,-82 -54,-54 -81,-119 -81,-193zm631 0c0,-74 27,-139 81,-193 54,-55 119,-82 195,-82 75,0 139,27 194,82 54,54 81,119 81,193 0,74 -27,139 -81,193 -55,55 -119,82 -194,82 -75,0 -139,-27 -194,-82 -55,-54 -82,-119 -82,-193zm1829 -652c-20,0 -39,-2 -57,-6 -19,-4 -35,-13 -50,-29 -14,-16 -25,-38 -33,-66 -8,-29 -11,-68 -11,-117 0,-88 12,-149 37,-183 24,-33 63,-49 114,-49l614 0 0 -1094 507 0 0 1544 -1121 0zm44 652c0,-74 27,-139 81,-193 54,-55 119,-82 193,-82 75,0 139,27 194,82 54,54 81,119 81,193 0,74 -27,139 -81,193 -55,55 -119,82 -194,82 -74,0 -139,-27 -193,-82 -54,-54 -81,-119 -81,-193zm631 0c0,-74 27,-139 81,-193 54,-55 120,-82 195,-82 75,0 139,27 194,82 54,54 81,119 81,193 0,74 -27,139 -81,193 -55,55 -119,82 -194,82 -74,0 -139,-27 -194,-82 -55,-54 -82,-119 -82,-193zm2489 -652c-75,0 -139,-4 -192,-11 -53,-8 -98,-19 -137,-35 -38,-16 -75,-36 -109,-61 -34,-25 -69,-53 -104,-86 -74,86 -155,139 -242,161 -88,21 -181,32 -283,32l-674 0 0 -447 767 0c62,0 108,-9 138,-28 31,-19 46,-42 46,-69 0,-29 -13,-64 -37,-104 -25,-42 -71,-110 -138,-206l-353 -523 461 -295 466 788c49,83 92,153 128,210 37,57 69,102 99,135 29,34 57,57 83,71 26,14 53,21 81,21 20,0 39,2 58,7 19,4 36,13 50,27 13,14 24,35 31,63 8,29 12,68 12,117 0,88 -12,150 -37,183 -24,33 -62,50 -114,50zm410 -2214c0,-75 28,-139 82,-194 54,-55 119,-83 195,-83 74,0 139,27 193,81 55,55 82,120 82,196 0,74 -27,139 -82,193 -54,54 -119,82 -193,82 -74,0 -139,-28 -194,-82 -55,-54 -83,-119 -83,-193zm37 1767l0 -1097 508 0 0 1544 -955 0c-20,0 -40,-2 -58,-6 -18,-4 -35,-13 -49,-27 -15,-15 -26,-36 -33,-64 -8,-29 -11,-68 -11,-117 0,-88 12,-149 36,-183 25,-33 63,-50 115,-50l447 0zm2027 447c-35,0 -81,-8 -141,-24 -59,-15 -111,-49 -155,-101 -3,176 -23,322 -61,441 -39,117 -97,213 -175,285 -77,73 -176,125 -294,156 -119,31 -262,47 -428,50l0 -473c106,-3 190,-15 253,-38 62,-22 109,-54 140,-98 30,-43 50,-100 59,-169 10,-68 13,-151 13,-247l0 -1155 501 0 0 659c0,101 30,171 92,209 61,39 126,58 196,58 20,0 39,2 57,7 19,4 35,13 50,27 14,14 25,35 33,63 8,29 11,68 11,117 0,88 -12,150 -37,183 -25,33 -63,50 -114,50zm157 -447c57,0 104,-1 141,-3 37,-3 68,-11 91,-23 23,-13 40,-32 51,-56 11,-25 16,-59 16,-104l0 -740 497 0 0 659c0,83 22,148 67,196 44,47 115,71 211,71 75,0 139,-11 192,-34 54,-23 80,-73 80,-152l0 -740 504 0 0 659c0,178 77,267 230,267l240 0 0 -1097 504 0 0 1544 -593 0c-138,0 -241,-16 -312,-48 -70,-33 -128,-83 -177,-153 -39,50 -81,87 -125,114 -44,26 -90,46 -136,60 -47,13 -93,21 -137,23 -45,3 -88,4 -130,4 -131,0 -242,-21 -332,-65 -89,-42 -153,-87 -191,-136 -69,91 -160,147 -272,169 -112,21 -254,32 -427,32l-151 0c-20,0 -40,-2 -58,-6 -19,-4 -35,-13 -50,-27 -14,-15 -25,-36 -33,-64 -7,-29 -11,-68 -11,-117 0,-88 13,-149 37,-183 25,-33 63,-50 115,-50l159 0zm4133 657c0,-121 7,-225 19,-312 13,-87 38,-162 75,-226 39,-63 90,-117 154,-165 64,-46 147,-90 249,-132 25,-166 69,-304 131,-416 63,-113 132,-203 210,-273 78,-68 159,-117 244,-147 86,-30 165,-45 236,-45 106,0 204,20 292,59 89,39 164,93 226,163 62,69 110,153 144,252 35,99 53,206 53,322 0,232 -58,417 -173,553 -115,136 -288,204 -521,204 -220,0 -447,-77 -683,-232 -52,25 -90,69 -112,133 -22,64 -33,154 -33,270l0 1322 -511 0 0 -1330zm1555 -931c0,-84 -25,-158 -74,-224 -49,-66 -119,-98 -208,-98 -77,0 -151,37 -222,112 -72,75 -119,202 -140,380 67,39 137,71 210,95 72,26 134,38 186,38 72,0 132,-28 178,-84 47,-55 70,-129 70,-219zm1404 -2048l0 2769 -501 0 0 -2769 501 0zm1808 1396l504 0 0 1155c0,186 -14,344 -42,474 -29,130 -79,235 -149,315 -71,80 -169,139 -295,177 -125,36 -286,56 -480,59l0 -473c104,-3 187,-15 249,-38 63,-22 110,-54 141,-98 31,-43 50,-100 59,-169 9,-68 13,-151 13,-247l0 -1155zm1470 -1396l0 2769 -500 0 0 -2769 500 0zm-934 -497c74,-71 141,-119 201,-143 59,-25 115,-36 166,-36 52,0 112,12 181,37 69,24 132,51 188,80 57,29 112,51 163,66 52,15 97,23 133,23 50,0 90,-19 120,-56 31,-37 53,-77 66,-118l201 89c-44,116 -95,205 -152,265 -57,60 -135,91 -235,91 -72,0 -139,-9 -202,-29 -62,-18 -123,-42 -182,-71 -57,-26 -111,-48 -163,-68 -52,-19 -100,-29 -144,-29 -37,0 -71,5 -102,17 -31,11 -70,34 -116,68l-123 -186zm4830 3266c6,23 10,49 13,77 4,29 6,62 6,101 0,106 -20,203 -59,291 -40,88 -110,164 -212,229 -101,65 -236,116 -407,152 -170,36 -386,53 -648,53 -253,0 -462,-24 -626,-71 -165,-48 -295,-114 -393,-198 -97,-84 -165,-183 -204,-295 -38,-112 -57,-234 -57,-365l0 -644 504 0 0 627c0,167 61,289 183,366 122,77 322,115 601,115 181,0 326,-10 436,-31 110,-20 195,-45 256,-76 62,-31 102,-64 121,-98 18,-34 28,-63 28,-89 0,-67 -67,-124 -200,-170 -133,-47 -312,-99 -537,-156l0 -462c171,54 334,101 489,139 155,39 295,58 419,58l485 0c20,0 39,2 58,7 19,4 35,13 50,27 13,14 24,35 31,63 8,29 12,68 12,117 0,88 -12,150 -37,183 -24,33 -63,50 -114,50l-198 0zm357 -447c57,0 104,-1 141,-3 37,-3 68,-11 91,-23 23,-13 40,-32 51,-56 11,-25 16,-59 16,-104l0 -740 497 0 0 659c0,83 22,148 67,196 44,47 115,71 211,71 75,0 139,-11 192,-34 54,-23 80,-73 80,-152l0 -740 504 0 0 659c0,178 77,267 230,267l240 0 0 -1097 504 0 0 1544 -593 0c-138,0 -241,-16 -312,-48 -70,-33 -128,-83 -177,-153 -39,50 -81,87 -125,114 -44,26 -90,46 -136,60 -47,13 -93,21 -137,23 -45,3 -88,4 -130,4 -131,0 -242,-21 -332,-65 -89,-42 -153,-87 -191,-136 -69,91 -160,147 -272,169 -112,21 -254,32 -427,32l-151 0c-20,0 -40,-2 -58,-6 -19,-4 -35,-13 -50,-27 -14,-15 -25,-36 -33,-64 -7,-29 -11,-68 -11,-117 0,-88 13,-149 37,-183 25,-33 63,-50 115,-50l159 0zm-25047 6025c-86,0 -157,-19 -214,-57 -57,-39 -99,-84 -127,-136 0,185 -11,343 -33,471 -22,128 -64,232 -126,311 -62,78 -147,135 -256,170 -108,35 -249,52 -424,52l0 -322c126,0 225,-14 297,-41 71,-27 124,-71 160,-132 35,-60 56,-138 62,-232 7,-95 9,-209 9,-343l0 -1040 315 0 0 551c0,131 24,236 72,312 48,76 136,114 265,114 104,0 155,52 155,155 0,65 -12,109 -37,132 -24,24 -64,35 -118,35zm-2 0c-103,0 -155,-51 -155,-155 0,-65 12,-109 37,-132 24,-23 64,-35 118,-35l259 0c62,0 116,-2 159,-7 45,-6 82,-18 112,-37 29,-20 51,-48 66,-86 14,-37 22,-88 22,-152l0 -889 318 0 0 745c0,64 4,123 13,176 9,53 26,98 52,134 26,35 61,64 104,85 44,21 100,31 168,31 104,0 155,52 155,155 0,65 -12,109 -36,132 -25,24 -64,35 -119,35 -101,0 -182,-24 -244,-72 -62,-48 -104,-107 -126,-180 -46,106 -119,175 -218,206 -99,31 -221,46 -367,46l-318 0zm307 585c0,-57 20,-104 60,-144 40,-40 89,-60 146,-60 57,0 105,20 145,60 40,40 60,87 60,144 0,57 -20,106 -60,146 -40,41 -88,61 -145,61 -57,0 -106,-20 -146,-61 -40,-40 -60,-89 -60,-146zm503 0c0,-57 21,-104 61,-144 41,-40 89,-60 146,-60 56,0 105,20 145,60 39,40 59,87 59,144 0,57 -20,106 -59,146 -40,41 -89,61 -145,61 -57,0 -105,-20 -146,-61 -40,-40 -61,-89 -61,-146zm598 -907c86,0 158,-2 216,-7 59,-6 106,-18 142,-37 35,-20 60,-48 76,-86 14,-37 22,-88 22,-152l0 -695 318 0 0 551c0,64 5,123 13,176 8,53 26,98 54,134 29,35 70,64 123,85 53,21 124,31 214,31 57,0 106,-2 148,-7 41,-6 76,-18 104,-37 29,-20 50,-48 64,-86 14,-37 21,-88 21,-152l0 -695 318 0 0 551c0,64 5,123 15,176 9,53 27,98 54,134 28,35 65,64 113,85 48,21 111,31 187,31 45,0 85,-2 121,-7 36,-6 67,-18 93,-37 26,-20 46,-48 61,-86 14,-37 21,-88 21,-152l0 -889 318 0 0 745c0,64 5,123 14,176 9,53 25,98 51,134 27,35 61,64 105,85 43,21 99,31 168,31 103,0 155,52 155,155 0,65 -13,109 -37,132 -25,24 -64,35 -118,35 -101,0 -183,-24 -245,-72 -62,-48 -103,-107 -125,-180 -23,54 -55,98 -97,130 -41,32 -86,58 -132,76 -47,18 -92,31 -135,37 -44,6 -82,9 -113,9 -86,0 -158,-8 -216,-24 -58,-15 -106,-35 -145,-59 -38,-24 -69,-51 -91,-82 -22,-30 -39,-59 -52,-87 -47,106 -118,175 -215,206 -97,31 -212,46 -348,46 -91,0 -166,-7 -227,-22 -60,-14 -110,-33 -149,-57 -38,-24 -69,-52 -92,-84 -24,-31 -43,-62 -59,-93 -22,55 -51,98 -86,130 -36,33 -81,58 -137,78 -55,20 -124,33 -205,39 -82,6 -179,9 -293,9l-129 0c-103,0 -155,-51 -155,-155 0,-65 12,-109 37,-132 25,-23 64,-35 118,-35l137 0zm3155 322c-103,0 -155,-51 -155,-155 0,-65 13,-109 37,-132 25,-23 64,-35 118,-35l160 0c31,0 64,-4 97,-11 34,-7 67,-24 100,-50 34,-26 67,-62 99,-107 32,-46 63,-107 92,-184 59,-166 122,-299 188,-402 65,-102 132,-181 201,-236 69,-56 139,-93 210,-111 72,-19 142,-28 212,-28 96,0 185,19 269,56 85,37 157,91 218,159 60,69 108,151 143,244 34,95 51,200 51,318 0,225 -53,402 -159,531 -106,130 -271,194 -496,194 -124,0 -247,-20 -370,-62 -124,-42 -250,-112 -382,-211 -34,52 -68,93 -103,123 -35,29 -72,51 -111,66 -39,15 -79,24 -120,27 -41,4 -85,6 -132,6l-167 0zm1718 -686c0,-56 -7,-112 -24,-167 -16,-55 -41,-103 -74,-144 -33,-41 -72,-74 -118,-99 -47,-24 -100,-37 -163,-37 -108,0 -208,48 -299,145 -90,95 -176,263 -255,503 95,62 190,112 285,150 94,38 190,57 289,57 108,0 195,-31 261,-93 65,-62 98,-167 98,-315zm2145 -613l314 0 0 1081c0,192 -11,353 -33,485 -22,130 -64,236 -126,316 -62,80 -148,138 -258,174 -110,36 -251,54 -426,54l0 -322c126,0 225,-14 297,-41 71,-27 125,-71 160,-132 35,-60 56,-138 62,-232 7,-95 10,-209 10,-343l0 -1040zm2129 873c0,124 -43,226 -128,306 -85,80 -209,120 -372,120l-928 0 0 -322 901 0c89,0 144,-13 167,-40 23,-28 34,-58 34,-92 0,-25 -5,-53 -15,-81 -10,-29 -35,-74 -76,-138 -40,-64 -99,-152 -175,-264 -77,-113 -181,-265 -312,-459l299 -187c104,178 194,328 269,450 76,121 139,225 188,310 49,86 86,159 111,220 25,61 37,120 37,177zm2349 259c0,65 -12,109 -37,132 -24,24 -64,35 -118,35l-101 0c-84,0 -159,-8 -227,-26 -69,-16 -126,-46 -175,-86 -47,-42 -85,-97 -112,-165 -27,-69 -41,-155 -41,-259l0 -2233 318 0 0 2148c0,109 18,185 51,231 35,46 110,68 226,68l61 0c103,0 155,52 155,155zm2231 167c-98,0 -183,-19 -257,-57 -72,-39 -130,-105 -175,-199l0 -7c-49,98 -121,175 -214,231 -95,56 -213,83 -355,83 -124,0 -248,-20 -371,-62 -123,-42 -250,-112 -381,-211 -35,52 -69,93 -104,123 -35,29 -71,51 -111,66 -39,15 -79,24 -120,27 -41,4 -85,6 -131,6l-167 0c-104,0 -155,-51 -155,-155 0,-65 12,-109 36,-132 25,-23 64,-35 119,-35l159 0c31,0 64,-4 97,-11 34,-7 68,-24 101,-50 33,-26 66,-62 99,-107 31,-46 62,-107 91,-184 59,-166 122,-299 188,-402 65,-102 132,-181 202,-236 68,-56 139,-93 210,-111 71,-19 141,-28 211,-28 96,0 186,19 270,56 84,37 156,91 217,159 60,69 108,151 143,244 34,95 52,200 52,318 0,17 -1,35 -2,52 -2,17 -2,33 -2,48 26,84 63,146 113,189 50,42 129,63 237,63 104,0 155,52 154,155 0,65 -12,109 -36,132 -24,24 -64,35 -118,35zm-668 -686c0,-56 -8,-112 -25,-167 -16,-55 -41,-103 -74,-144 -33,-41 -72,-74 -118,-99 -47,-24 -100,-37 -162,-37 -109,0 -208,48 -300,145 -90,95 -175,263 -255,503 96,62 191,112 285,150 94,38 190,57 289,57 109,0 195,-31 261,-93 66,-62 99,-167 99,-315zm803 364c86,0 158,-2 216,-7 59,-6 106,-18 142,-37 35,-20 60,-48 76,-86 14,-37 22,-88 22,-152l0 -699 318 0 0 555c0,64 5,123 13,176 8,53 26,98 54,134 29,35 69,64 121,85 51,21 123,31 212,31 57,0 106,-2 150,-7 42,-6 78,-18 106,-37 29,-20 50,-48 64,-86 14,-37 21,-88 21,-152l0 -695 318 0 0 551c0,64 5,123 15,176 9,53 26,98 51,134 24,35 58,64 102,85 44,21 99,31 167,31l326 0 0 -1171 317 0 0 1493 -643 0c-101,0 -181,-24 -243,-72 -61,-48 -102,-107 -122,-180 -47,106 -120,175 -218,206 -98,31 -217,46 -356,46 -91,0 -166,-7 -223,-22 -58,-14 -107,-33 -146,-57 -38,-24 -68,-52 -90,-84 -22,-31 -41,-62 -57,-93 -22,55 -51,98 -86,130 -36,33 -81,58 -137,78 -55,20 -124,33 -205,39 -82,6 -179,9 -293,9l-129 0c-103,0 -155,-51 -155,-155 0,-65 12,-109 37,-132 25,-23 64,-35 118,-35l137 0zm1190 -1824c0,-57 20,-105 61,-144 40,-41 88,-61 145,-61 57,0 106,20 145,61 40,39 60,87 60,144 0,57 -20,106 -60,146 -39,41 -88,61 -145,61 -57,0 -105,-20 -145,-61 -41,-40 -61,-89 -61,-146zm504 0c0,-57 20,-105 60,-144 41,-41 90,-61 147,-61 56,0 104,20 144,61 40,39 60,87 60,144 0,57 -20,106 -60,146 -40,41 -88,61 -144,61 -57,0 -106,-20 -147,-61 -40,-40 -60,-89 -60,-146zm-245 -464c0,-57 21,-105 61,-146 41,-40 89,-60 146,-60 57,0 105,20 145,60 39,41 59,89 59,146 0,57 -20,105 -59,145 -40,39 -88,59 -145,59 -57,0 -105,-20 -146,-59 -40,-40 -61,-88 -61,-145zm3444 1377c-65,0 -124,15 -179,45 -54,30 -101,69 -139,118 -40,49 -70,106 -92,170 -21,65 -32,133 -32,205 0,69 12,130 34,181 23,51 55,93 95,125 41,32 87,55 140,69 53,14 109,21 169,21 54,0 108,-6 161,-17 53,-12 100,-32 142,-61 41,-30 75,-69 100,-117 26,-48 38,-110 38,-184 0,-86 -12,-162 -36,-229 -24,-67 -56,-125 -97,-174 -40,-50 -86,-87 -139,-113 -53,-26 -108,-39 -165,-39zm-733 571c0,-105 16,-209 50,-313 33,-105 83,-200 147,-286 66,-85 144,-153 235,-206 92,-54 196,-81 312,-81 101,0 195,20 281,61 87,39 163,97 230,173 65,77 118,170 155,278 37,108 56,233 56,374 0,85 -14,168 -41,249 -27,81 -71,153 -132,217 -60,64 -138,115 -232,156 -96,39 -209,59 -340,59 -109,0 -207,-14 -294,-41 -88,-27 -164,-69 -228,-126 -64,-56 -113,-127 -147,-213 -35,-85 -52,-186 -52,-301zm2248 -2107l0 2769 -319 0 0 -2769 319 0zm1477 2769c-86,0 -157,-19 -214,-57 -57,-39 -99,-84 -127,-136 0,185 -11,343 -33,471 -22,128 -64,232 -126,311 -62,78 -147,135 -256,170 -109,35 -249,52 -424,52l0 -322c126,0 225,-14 297,-41 71,-27 124,-71 159,-132 36,-60 57,-138 63,-232 7,-95 9,-209 9,-343l0 -1040 315 0 0 551c0,131 24,236 72,312 48,76 136,114 265,114 103,0 155,52 155,155 0,65 -12,109 -37,132 -24,24 -64,35 -118,35zm2384 0c-98,0 -183,-19 -256,-57 -73,-39 -131,-105 -176,-199l0 -7c-49,98 -120,175 -214,231 -95,56 -213,83 -355,83 -124,0 -248,-20 -371,-62 -123,-42 -250,-112 -381,-211 -34,52 -69,93 -104,123 -34,29 -71,51 -111,66 -39,15 -79,24 -120,27 -41,4 -85,6 -131,6l-167 0c-103,0 -155,-51 -155,-155 0,-65 12,-109 37,-132 24,-23 64,-35 118,-35l159 0c32,0 64,-4 98,-11 33,-7 67,-24 100,-50 33,-26 66,-62 99,-107 31,-46 62,-107 92,-184 58,-166 121,-299 187,-402 65,-102 133,-181 202,-236 68,-56 139,-93 210,-111 71,-19 142,-28 211,-28 96,0 186,19 270,56 84,37 156,91 217,159 60,69 108,151 143,244 34,95 52,200 52,318 0,17 -1,35 -2,52 -1,17 -2,33 -2,48 26,84 63,146 113,189 50,42 129,63 237,63 104,0 156,52 154,155 0,65 -12,109 -36,132 -24,24 -63,35 -118,35zm-668 -686c0,-56 -8,-112 -25,-167 -16,-55 -40,-103 -73,-144 -33,-41 -73,-74 -119,-99 -46,-24 -100,-37 -162,-37 -109,0 -208,48 -299,145 -91,95 -176,263 -256,503 96,62 191,112 285,150 94,38 190,57 289,57 109,0 196,-31 262,-93 65,-62 98,-167 98,-315zm666 686c-103,0 -155,-51 -155,-155 0,-65 13,-109 37,-132 25,-23 64,-35 118,-35l618 0c-25,-37 -50,-88 -74,-155 -24,-67 -36,-150 -36,-248 0,-134 32,-260 94,-378 62,-118 158,-201 287,-247 -52,0 -104,0 -155,2 -52,1 -105,3 -159,5l0 -289c281,-16 534,-3 758,39 224,40 413,115 566,222 154,107 271,251 353,431 81,180 122,398 122,656l0 284 -2374 0zm1090 -322c54,0 99,-13 136,-40 37,-28 66,-61 86,-101 21,-40 35,-84 43,-132 7,-47 11,-92 11,-134 0,-57 -5,-112 -15,-165 -10,-53 -27,-100 -50,-142 -24,-42 -53,-74 -90,-97 -37,-22 -81,-34 -133,-34 -91,0 -161,42 -211,124 -50,83 -75,190 -75,322 0,46 4,93 13,140 9,47 25,89 47,125 22,38 50,69 85,94 35,24 79,38 133,40l20 0zm958 0c0,-276 -56,-490 -169,-640 -112,-150 -265,-255 -458,-315 45,35 80,75 108,120 28,45 51,92 69,139 19,48 31,95 37,143 6,48 10,93 10,134 0,99 -9,183 -27,251 -17,68 -39,124 -63,168l493 0zm-36419 4267l-314 0 0 -2076 314 0 0 2076zm-383 500c-1,-64 21,-118 65,-162 44,-44 98,-67 163,-67 64,0 118,23 163,67 44,44 65,98 65,162 0,64 -21,119 -65,163 -45,44 -99,66 -163,66 -65,0 -119,-22 -163,-66 -44,-44 -66,-99 -65,-163zm1949 186c-86,0 -157,-19 -214,-57 -56,-39 -99,-85 -126,-136 0,185 -11,342 -33,470 -23,128 -64,233 -126,311 -62,79 -148,136 -256,170 -109,35 -250,53 -425,53l0 -322c127,0 225,-14 297,-41 71,-27 124,-71 160,-132 35,-60 56,-138 63,-233 6,-95 9,-208 9,-342l0 -1041 315 0 0 552c0,131 23,235 71,312 48,76 137,114 265,114 104,0 156,52 156,155 0,65 -13,109 -37,132 -25,23 -64,35 -119,35zm-706 -2146c0,-57 20,-105 61,-145 40,-40 89,-60 146,-60 57,0 104,20 144,60 40,40 60,88 60,145 0,57 -20,106 -60,146 -40,40 -87,60 -144,60 -57,0 -106,-20 -146,-60 -41,-40 -61,-89 -61,-146zm704 2146c-103,0 -155,-52 -155,-155 0,-65 13,-109 37,-132 25,-23 64,-35 118,-35l260 0c62,0 115,-3 159,-8 44,-5 81,-17 111,-37 30,-19 52,-47 66,-85 15,-37 22,-88 22,-152l0 -889 318 0 0 745c0,64 5,123 14,176 8,53 25,97 51,134 26,35 61,64 104,85 44,21 100,31 169,31 103,0 155,52 155,155 0,65 -13,109 -37,132 -25,23 -64,35 -118,35 -101,0 -183,-24 -245,-72 -62,-48 -103,-108 -125,-180 -47,106 -120,174 -219,205 -99,32 -221,47 -366,47l-319 0zm307 585c0,-57 20,-105 61,-145 40,-39 88,-59 145,-59 57,0 106,20 145,59 40,40 60,88 60,145 0,57 -20,106 -60,146 -39,40 -88,61 -145,61 -57,0 -105,-21 -145,-61 -41,-40 -61,-89 -61,-146zm504 0c0,-57 20,-105 60,-145 41,-39 90,-59 146,-59 57,0 105,20 145,59 40,40 60,88 60,145 0,57 -20,106 -60,146 -40,40 -88,61 -145,61 -56,0 -105,-21 -146,-61 -40,-40 -60,-89 -60,-146zm461 -585c-104,0 -156,-52 -156,-155 0,-65 13,-109 37,-132 25,-23 64,-35 119,-35l869 0c142,0 245,-23 307,-68 62,-46 93,-106 93,-180 0,-69 -29,-148 -86,-235 -57,-87 -135,-175 -236,-264 -101,-90 -220,-177 -355,-263 -136,-87 -283,-165 -441,-235 2,-31 8,-64 17,-97 9,-33 20,-64 31,-93 13,-28 25,-52 37,-72 13,-19 24,-32 34,-37l1451 -625 0 323 -1140 503c274,140 492,289 653,447 162,158 270,315 324,474 32,90 62,163 90,216 29,54 59,97 91,128 33,32 68,53 106,63 37,10 81,15 128,15 104,0 156,52 156,155 0,65 -13,109 -37,132 -25,23 -64,35 -119,35 -54,0 -104,-3 -148,-10 -45,-5 -88,-19 -126,-40 -40,-21 -77,-51 -111,-91 -35,-40 -68,-94 -99,-162l-16 0c-49,121 -132,202 -248,242 -116,41 -258,61 -426,61l-799 0zm214 -2033c0,-36 6,-73 20,-112 14,-38 31,-74 51,-106 19,-33 40,-61 62,-86 22,-24 40,-41 56,-49l1318 -601 0 292 -1507 662zm2298 -113c0,-57 21,-105 61,-145 41,-40 89,-60 146,-60 57,0 105,20 145,60 39,40 59,88 59,145 0,57 -20,106 -59,146 -40,40 -88,60 -145,60 -57,0 -105,-20 -146,-60 -40,-40 -61,-89 -61,-146zm-542 2146c-104,0 -156,-52 -156,-155 0,-65 13,-109 37,-132 25,-23 64,-35 119,-35l604 0 0 -1171 318 0 0 1493 -922 0zm1774 -2769l0 2769 -318 0 0 -2769 318 0zm3902 2769c-101,0 -183,-24 -245,-72 -61,-48 -103,-108 -125,-180 -22,54 -53,98 -91,130 -39,32 -88,57 -146,75 -59,19 -130,31 -213,37 -82,6 -179,10 -291,10l-1577 0c-150,0 -276,-10 -375,-31 -100,-21 -180,-54 -241,-99 -60,-45 -104,-103 -130,-174 -25,-71 -38,-159 -38,-262l0 -601 318 0 0 485c0,79 10,143 29,191 20,48 53,85 99,110 46,24 109,40 189,47 80,8 183,12 308,12l1415 0c86,0 159,-3 218,-8 59,-5 106,-17 141,-37 34,-19 60,-47 76,-85 15,-37 23,-88 23,-152l0 -889 319 0 0 745c0,64 4,123 13,176 9,53 26,98 52,134 26,35 61,64 105,85 44,21 100,31 167,31 103,0 155,52 155,155 0,65 -12,109 -37,132 -25,23 -64,35 -118,35zm-2351 -1921c0,-57 20,-105 61,-145 40,-39 88,-60 145,-60 57,0 105,21 145,60 40,40 60,88 60,145 0,57 -20,105 -60,146 -40,40 -88,60 -145,60 -57,0 -105,-20 -145,-60 -41,-41 -61,-89 -61,-146zm503 0c0,-57 21,-105 61,-145 41,-40 89,-60 146,-60 57,0 105,20 145,60 40,40 60,88 60,145 0,57 -20,106 -60,146 -40,40 -88,60 -145,60 -57,0 -105,-20 -146,-60 -40,-40 -61,-89 -61,-146zm1846 1921c-104,0 -156,-52 -156,-155 0,-65 13,-109 37,-132 25,-23 64,-35 119,-35l441 0c-29,-54 -54,-114 -74,-180 -21,-65 -30,-141 -30,-227 0,-101 16,-201 50,-300 33,-98 83,-185 148,-261 65,-75 144,-137 239,-185 93,-48 203,-73 328,-73 143,0 259,26 350,78 90,52 162,118 214,198 53,80 90,168 110,265 20,97 31,192 31,286l0 399 295 0c104,0 155,52 155,155 0,65 -12,109 -36,132 -25,23 -65,35 -119,35l-2102 0zm640 -780c0,157 46,273 139,348 93,73 207,110 342,110l372 0 0 -389c0,-61 -7,-124 -18,-187 -11,-63 -32,-120 -63,-170 -31,-50 -74,-92 -128,-124 -55,-32 -123,-49 -207,-49 -69,0 -131,13 -185,37 -54,25 -100,58 -138,99 -37,41 -65,90 -85,147 -19,56 -29,116 -29,178zm251 -1366c0,-57 21,-105 61,-145 41,-40 89,-60 146,-60 57,0 105,20 145,60 39,40 59,88 59,145 0,57 -20,106 -59,146 -40,40 -88,60 -145,60 -57,0 -105,-20 -146,-60 -40,-40 -61,-89 -61,-146zm1211 2146c-103,0 -155,-52 -155,-155 0,-65 12,-109 37,-132 24,-23 64,-35 118,-35l870 0c142,0 245,-23 306,-68 62,-46 93,-106 93,-180 0,-69 -28,-148 -85,-235 -57,-87 -136,-175 -237,-264 -100,-90 -219,-177 -355,-263 -135,-87 -282,-165 -440,-235 2,-31 8,-64 17,-97 9,-33 19,-64 31,-93 12,-28 24,-52 37,-72 12,-20 24,-32 34,-37l1451 -625 0 323 -1141 503c275,140 493,289 654,447 162,158 269,316 324,474 31,90 62,163 90,216 28,54 59,97 91,128 32,32 67,53 106,63 37,9 80,15 128,15 104,0 155,52 155,155 0,65 -12,109 -37,132 -24,23 -64,35 -118,35 -54,0 -104,-4 -149,-10 -45,-6 -87,-19 -126,-40 -39,-21 -76,-52 -110,-91 -35,-40 -68,-94 -100,-162l-15 0c-49,121 -132,202 -248,242 -116,41 -259,61 -427,61l-799 0zm214 -2033c0,-36 7,-73 21,-112 14,-38 31,-74 50,-106 20,-32 41,-61 62,-86 22,-24 41,-42 57,-49l1318 -601 0 292 -1508 662zm1897 1711c86,0 158,-3 216,-8 59,-5 106,-17 142,-37 35,-19 60,-47 75,-85 15,-37 23,-88 23,-152l0 -699 318 0 0 555c0,64 4,123 12,176 9,53 27,98 55,134 29,35 69,64 121,85 51,21 122,31 212,31 57,0 106,-3 150,-8 42,-5 78,-17 106,-37 29,-19 50,-48 64,-85 14,-37 21,-88 21,-152l0 -696 318 0 0 552c0,64 5,123 14,176 10,53 27,98 51,134 25,35 59,64 103,85 43,21 99,31 167,31l326 0 0 -1171 317 0 0 1493 -643 0c-101,0 -182,-24 -243,-72 -62,-48 -102,-108 -122,-180 -47,106 -120,174 -218,205 -98,31 -217,47 -356,47 -91,0 -166,-8 -223,-22 -58,-15 -107,-33 -146,-57 -38,-24 -68,-52 -90,-84 -22,-32 -41,-63 -57,-93 -22,54 -51,98 -86,130 -36,32 -81,58 -137,78 -55,19 -124,32 -205,38 -82,6 -179,10 -293,10l-129 0c-103,0 -155,-52 -155,-155 0,-65 12,-109 37,-132 24,-23 64,-35 118,-35l137 0zm1190 -1824c0,-57 20,-105 61,-145 40,-39 88,-60 145,-60 57,0 105,21 145,60 40,40 60,88 60,145 0,57 -20,105 -60,146 -40,40 -88,60 -145,60 -57,0 -105,-20 -145,-60 -41,-41 -61,-89 -61,-146zm504 0c0,-57 20,-105 60,-145 41,-40 90,-60 146,-60 57,0 105,20 145,60 40,40 60,88 60,145 0,57 -20,106 -60,146 -40,40 -88,60 -145,60 -56,0 -105,-20 -146,-60 -40,-40 -60,-89 -60,-146zm-245 -464c0,-57 21,-106 61,-146 40,-41 89,-60 146,-60 57,0 105,19 145,60 40,40 59,89 59,146 0,57 -19,105 -59,145 -40,39 -88,59 -145,59 -57,0 -106,-20 -146,-59 -40,-40 -61,-88 -61,-145zm2866 2506c0,101 16,193 49,277 32,84 86,157 163,217 76,61 177,108 303,142 125,33 281,49 467,49 134,0 262,-9 385,-29 124,-19 232,-47 327,-83 95,-36 170,-80 225,-133 56,-53 84,-114 84,-181 0,-59 -20,-109 -59,-149 -39,-41 -113,-88 -222,-142 -77,-40 -149,-80 -215,-121 -66,-40 -123,-86 -170,-137 -48,-51 -86,-107 -115,-170 -29,-64 -43,-138 -43,-224 0,-98 17,-198 53,-298 35,-100 88,-192 159,-273 70,-81 159,-147 265,-198 106,-50 232,-75 377,-75 86,0 162,9 227,29 66,19 104,31 114,36l0 326c-52,-15 -108,-27 -168,-38 -61,-11 -121,-17 -181,-17 -86,0 -161,14 -227,41 -66,27 -120,63 -163,107 -43,44 -75,94 -97,148 -21,54 -32,108 -32,163 0,51 10,96 29,134 19,36 45,71 78,102 34,31 73,59 117,85 44,26 92,53 144,82 89,49 162,95 222,136 59,41 106,81 141,120 35,39 60,78 75,119 16,39 24,82 24,129 0,108 -24,213 -74,315 -49,101 -128,190 -237,267 -108,78 -249,141 -420,188 -172,48 -380,71 -623,71 -244,0 -448,-23 -614,-71 -165,-47 -299,-113 -399,-198 -100,-85 -172,-184 -216,-299 -45,-115 -67,-241 -67,-377l0 -580 314 0 0 510zm3618 -63c0,65 -12,109 -37,132 -24,23 -64,35 -118,35l-101 0c-83,0 -159,-8 -227,-26 -68,-17 -126,-46 -174,-86 -48,-42 -86,-97 -113,-165 -27,-70 -40,-155 -40,-259l0 -2233 318 0 0 2148c0,108 17,185 51,231 34,45 109,68 225,68l61 0c104,0 155,52 155,155zm-155 167c-103,0 -155,-52 -155,-155 0,-65 12,-109 37,-132 24,-23 64,-35 118,-35l618 0c-26,-37 -50,-89 -74,-155 -24,-67 -36,-150 -36,-248 0,-134 31,-260 93,-379 63,-117 159,-200 288,-247 -52,0 -104,1 -156,2 -51,2 -104,4 -159,6l0 -289c282,-16 534,-3 759,38 224,41 413,115 566,223 153,107 271,251 352,430 82,181 123,399 123,657l0 284 -2374 0zm1090 -322c54,0 99,-14 136,-41 36,-27 65,-60 86,-100 21,-40 35,-84 43,-132 7,-48 11,-92 11,-134 0,-57 -6,-112 -15,-165 -11,-53 -27,-100 -51,-142 -23,-42 -53,-74 -90,-97 -36,-22 -80,-34 -132,-34 -91,0 -162,41 -211,124 -50,83 -75,190 -75,322 0,46 4,93 13,140 9,46 25,88 47,125 22,38 50,69 85,93 34,25 79,38 133,41l20 0zm958 0c0,-277 -56,-490 -169,-640 -112,-151 -265,-255 -458,-315 44,34 80,74 108,120 27,45 51,92 69,139 19,48 31,95 37,143 6,48 9,93 9,134 0,99 -9,182 -26,250 -18,69 -39,125 -63,169l493 0zm2063 -104c0,123 -43,226 -128,306 -85,80 -210,120 -373,120l-927 0 0 -322 901 0c89,0 144,-14 167,-41 22,-27 34,-57 34,-91 0,-26 -5,-53 -15,-81 -10,-29 -35,-75 -76,-139 -40,-63 -99,-151 -175,-263 -77,-113 -181,-266 -312,-459l299 -187c104,177 194,327 269,450 76,121 139,225 188,310 49,85 86,158 111,220 25,61 37,120 37,177zm741 -874l314 0 0 1082c0,192 -11,353 -33,484 -23,131 -64,236 -126,317 -62,80 -148,138 -258,174 -110,36 -251,54 -426,54l0 -322c126,0 225,-14 297,-41 71,-27 125,-71 159,-132 36,-60 57,-138 63,-233 7,-95 10,-208 10,-342l0 -1041zm1447 1300c-101,0 -195,-12 -281,-35 -87,-23 -162,-61 -226,-114 -63,-53 -114,-124 -151,-212 -38,-88 -56,-196 -56,-325 0,-103 16,-205 50,-304 33,-101 83,-189 147,-267 64,-77 144,-139 240,-186 96,-47 206,-71 330,-71 138,0 253,26 348,76 93,51 169,120 226,210 57,89 98,195 122,318 25,123 37,258 37,406l0 364c0,194 -26,353 -78,476 -51,122 -125,219 -221,290 -95,72 -212,120 -352,146 -139,26 -296,39 -469,39l-163 0 0 -322 120 0c123,0 236,-5 339,-16 102,-9 190,-33 264,-70 74,-36 131,-89 173,-159 40,-69 61,-163 61,-282l0 -74c-46,29 -107,55 -182,78 -75,22 -167,34 -278,34zm-404 -721c0,147 40,252 119,316 79,63 184,95 315,95 98,0 185,-13 261,-40 75,-26 131,-53 169,-84l0 -144c0,-88 -7,-171 -21,-249 -14,-77 -37,-144 -71,-200 -33,-55 -77,-99 -132,-132 -54,-31 -120,-47 -198,-47 -80,0 -147,15 -203,46 -56,31 -101,69 -136,117 -35,46 -62,98 -78,155 -16,57 -25,112 -25,167zm2504 554c0,65 -12,109 -36,132 -25,23 -64,35 -119,35l-101 0c-83,0 -159,-8 -227,-26 -68,-17 -126,-46 -174,-86 -48,-42 -85,-97 -113,-165 -27,-70 -40,-155 -40,-259l0 -2233 318 0 0 2148c0,108 17,185 51,231 34,45 109,68 225,68l61 0c104,0 155,52 155,155zm-155 167c-103,0 -155,-52 -155,-155 0,-65 12,-109 37,-132 25,-23 64,-35 118,-35l260 0c62,0 115,-3 159,-8 44,-5 81,-17 111,-37 30,-19 51,-47 66,-85 15,-37 22,-88 22,-152l0 -889 318 0 0 745c0,64 4,123 13,176 9,53 26,97 52,134 26,35 61,64 104,85 44,21 100,31 168,31 104,0 155,52 155,155 0,65 -12,109 -36,132 -25,23 -64,35 -119,35 -101,0 -182,-24 -244,-72 -62,-48 -104,-108 -126,-180 -46,106 -119,174 -218,205 -99,32 -221,47 -367,47l-318 0zm307 -2146c0,-57 20,-105 60,-145 41,-40 89,-60 146,-60 57,0 105,20 145,60 40,40 60,88 60,145 0,57 -20,106 -60,146 -40,40 -88,60 -145,60 -57,0 -105,-20 -146,-60 -40,-40 -60,-89 -60,-146zm503 0c0,-57 21,-105 61,-145 41,-40 89,-60 146,-60 57,0 105,20 145,60 40,40 60,88 60,145 0,57 -20,106 -60,146 -40,40 -88,60 -145,60 -57,0 -105,-20 -146,-60 -40,-40 -61,-89 -61,-146zm598 1824c86,0 158,-3 216,-8 59,-5 106,-17 142,-37 35,-19 60,-47 76,-85 14,-37 22,-88 22,-152l0 -699 318 0 0 555c0,64 5,123 13,176 8,53 26,97 55,134 28,35 68,64 120,85 52,21 123,31 212,31 57,0 107,-3 150,-8 43,-5 78,-17 107,-37 28,-19 49,-47 63,-85 14,-37 21,-88 21,-152l0 -696 318 0 0 552c0,64 5,123 15,176 9,53 26,97 51,134 24,35 59,64 102,85 44,21 99,31 167,31l326 0 0 -1171 317 0 0 1493 -643 0c-101,0 -181,-24 -243,-72 -61,-48 -102,-108 -122,-180 -47,106 -120,174 -218,205 -98,32 -217,47 -356,47 -91,0 -166,-7 -223,-22 -58,-14 -107,-34 -146,-57 -38,-24 -68,-52 -90,-84 -22,-32 -41,-63 -56,-93 -23,54 -52,98 -87,130 -36,32 -81,58 -136,78 -56,20 -125,33 -206,38 -82,7 -179,10 -293,10l-129 0c-103,0 -155,-52 -155,-155 0,-65 12,-109 37,-132 25,-23 64,-35 118,-35l137 0zm4626 -104c0,123 -43,226 -128,306 -86,80 -210,120 -373,120l-927 0 0 -322 901 0c88,0 144,-14 167,-41 22,-27 34,-57 34,-91 0,-26 -5,-53 -16,-81 -9,-29 -34,-75 -75,-139 -40,-63 -99,-151 -175,-263 -77,-113 -181,-266 -312,-459l299 -187c104,177 194,327 269,450 76,121 139,225 188,310 49,85 86,158 111,220 25,61 37,120 37,177z"/>
    <circle class="fil30" cx="104515" cy="12879" r="7481"/>
    <rect class="fil31" x="145300" y="12565" width="52.8819" height="13815.9"/>
    <path class="fil23" d="M105927 14996l0 1412 -5646 0 0 -1412 5646 0zm-5646 -4235l0 -1411c2823,0 5646,0 8469,0l-1411 1411c-2353,0 -4706,0 -7058,0zm8469 1412c0,1412 0,2823 0,4235l-1411 0 0 -2823 0 0 -7058 0 0 -1412c2823,0 5646,0 8469,0z"/>
   </g>
  </g>
 </g>
</svg>
