<?xml version="1.0" encoding="UTF-8"?>
<!DOCTYPE svg PUBLIC "-//W3C//DTD SVG 1.1//EN" "http://www.w3.org/Graphics/SVG/1.1/DTD/svg11.dtd">
<!-- Creator: CorelDRAW X7 -->
<svg xmlns="http://www.w3.org/2000/svg" xml:space="preserve" width="100%" height="100%" version="1.1" style="shape-rendering:geometricPrecision; text-rendering:geometricPrecision; image-rendering:optimizeQuality; fill-rule:evenodd; clip-rule:evenodd"
viewBox="0 0 186270 97010"
 xmlns:xlink="http://www.w3.org/1999/xlink">
 <defs>
  <style type="text/css">
   <![CDATA[
    .fil0 {fill:black}
    .fil1 {fill:black;fill-rule:nonzero}
   ]]>
  </style>
 </defs>
 <g id="Layer_x0020_1">
  <metadata id="CorelCorpID_0Corel-Layer"/>
  <g id="_2565988484496">
   <path class="fil0" d="M173766 84561l-145672 0 0 2549 148227 0 0 -59109 -2555 0 0 56560zm-161262 -15552l0 -56560 145671 0 0 -2549 -148226 0 0 59109 2555 0z"/>
   <path class="fil0" d="M14315 74658l0 8712c0,8612 2713,13160 8136,13642l0 -4675c-1959,-822 -2938,-2649 -2938,-5481l2938 0 0 -12198 -8136 0z"/>
   <path class="fil0" d="M2 74658l0 8712c0,8612 2712,13160 8136,13642l0 -4675c-1959,-822 -2939,-2649 -2939,-5481l2939 0 0 -12198 -8136 0z"/>
   <path class="fil0" d="M171955 22351l0 -8712c0,-8612 -2713,-13159 -8137,-13641l0 4675c1960,822 2940,2649 2940,5482l-2940 0 0 12196 8137 0z"/>
   <path class="fil0" d="M186269 22351l0 -8712c0,-8612 -2713,-13159 -8137,-13641l0 4675c1960,822 2940,2649 2940,5482l-2940 0 0 12196 8137 0z"/>
   <path class="fil1" d="M34260 30844l-4410 0c-281,0 -516,-19 -704,-57 -187,-40 -338,-101 -451,-186 -114,-84 -195,-192 -243,-326 -48,-133 -73,-297 -73,-490l0 -1125 597 0 0 907c0,150 18,269 56,358 36,90 98,159 183,205 87,47 206,76 356,90 151,14 344,21 578,21l3514 0 0 -2190 597 0 0 2793zm43750 39392l0 -5183 -596 0 0 5183 596 0zm-26150 -603l468 0c116,0 216,-4 298,-15 84,-9 154,-34 209,-69 54,-35 98,-90 124,-159 26,-68 41,-165 41,-286l0 -1662 597 0 0 1393c0,119 9,232 25,330 15,98 49,184 97,251 47,65 115,120 196,159 81,38 186,58 315,58 194,0 291,96 291,291 0,120 -25,204 -69,246 -45,43 -121,66 -222,66 -190,0 -342,-46 -459,-135 -116,-91 -194,-202 -235,-338 -88,199 -227,328 -410,385 -186,57 -417,88 -687,88l-578 0 -19 0 -18 0 -1 0c-192,-2 -352,-43 -483,-125 -135,-82 -271,-230 -408,-443 -55,130 -125,236 -209,313 -82,76 -178,135 -282,171 -104,36 -215,60 -330,69 -116,9 -234,15 -349,15l-1108 0 0 -603 1304 0c203,0 361,-26 469,-76 109,-50 162,-125 162,-222 0,-91 -24,-185 -72,-276 -48,-91 -108,-192 -179,-299l-774 -1137 561 -350 874 1445c98,160 181,300 255,416 71,116 142,210 207,282 65,70 131,126 190,162 54,33 111,51 172,55l6 0 13 0 18 0zm556 1697c0,-106 39,-196 114,-270 75,-73 167,-111 274,-111 106,0 197,37 271,111 75,75 112,164 112,270 0,107 -38,199 -112,274 -73,74 -165,114 -271,114 -107,0 -199,-40 -274,-114 -75,-75 -114,-167 -114,-274zm946 0c0,-106 38,-195 113,-270 77,-74 167,-111 275,-111 105,0 197,37 271,111 74,74 111,164 111,270 0,107 -37,199 -111,274 -74,75 -166,114 -271,114 -108,0 -198,-39 -275,-114 -75,-76 -113,-167 -113,-274zm864 -1094c-190,0 -291,-97 -291,-290 0,-122 24,-205 69,-247 45,-43 120,-66 222,-66l1158 0c-47,-69 -92,-166 -138,-290 -44,-126 -68,-281 -68,-464 0,-251 60,-487 176,-708 118,-220 297,-376 539,-463 -97,0 -194,2 -291,4 -97,2 -197,6 -299,10l0 -541c528,-30 1003,-4 1423,72 420,75 776,216 1063,417 286,199 510,469 661,805 152,336 229,749 229,1229l0 532 -4453 0zm2044 -603c101,0 188,-26 256,-76 67,-50 123,-115 161,-188 38,-74 67,-158 80,-247 13,-88 21,-172 21,-252 0,-106 -11,-209 -28,-307 -18,-99 -52,-190 -95,-267 -42,-76 -100,-138 -169,-180 -69,-42 -151,-65 -248,-65 -171,0 -305,80 -396,233 -93,154 -140,356 -140,602 0,86 8,174 24,262 18,87 47,166 88,235 41,69 96,129 160,174 63,45 147,72 249,76l37 0zm1797 0c0,-518 -105,-917 -317,-1198 -210,-282 -497,-477 -859,-589 84,64 151,141 202,224 52,83 97,173 130,260 34,89 58,180 69,268 11,90 19,174 19,251 0,185 -18,341 -51,468 -31,129 -72,233 -117,316l924 0zm2079 -4580l0 5183 -596 0 0 -5183 596 0zm3587 5183c-19,295 -82,540 -185,733 -103,194 -247,350 -427,464 -180,117 -395,200 -643,247 -248,48 -529,73 -832,73l-306 0 0 -603 225 0c222,0 430,-11 621,-33 192,-20 358,-64 496,-130 138,-65 247,-159 327,-276 79,-118 121,-277 126,-475l-821 0c-197,0 -382,-23 -548,-66 -166,-43 -314,-115 -438,-214 -122,-98 -220,-229 -292,-388 -70,-160 -104,-358 -104,-595 0,-197 33,-393 97,-580 65,-189 162,-358 285,-502 124,-144 276,-263 452,-353 175,-90 378,-135 605,-135 251,0 465,45 640,135 174,90 318,218 427,381 108,163 188,364 236,596 47,232 73,493 73,778l0 340 512 0c193,0 290,96 290,291 0,120 -23,203 -69,246 -46,43 -121,66 -221,66l-526 0zm-2218 -1322c0,244 71,427 213,544 142,117 352,175 629,175l778 0 0 -479c0,-363 -61,-653 -180,-860 -120,-211 -330,-316 -626,-316 -139,0 -261,30 -363,84 -100,54 -186,128 -252,217 -66,89 -116,190 -149,301 -33,111 -50,221 -50,334zm5656 719c0,-310 -41,-572 -122,-783 -80,-211 -193,-387 -334,-520 -139,-133 -307,-230 -496,-290 -189,-60 -388,-91 -596,-91 -140,0 -289,15 -447,40 -155,25 -287,53 -388,84l0 -581c98,-28 227,-62 384,-97 159,-36 336,-56 525,-56 370,0 688,64 953,189 263,123 484,296 653,512 169,215 295,468 376,754 78,287 118,593 118,910l0 532 -3543 0c-192,0 -290,-97 -290,-290 0,-122 22,-204 69,-247 45,-44 119,-66 221,-66l2917 0zm-1805 -3413c0,-107 39,-198 115,-272 76,-74 167,-112 274,-112 106,0 196,38 271,112 75,74 112,165 112,272 0,106 -37,198 -112,272 -75,77 -165,114 -271,114 -107,0 -198,-37 -274,-114 -76,-74 -115,-166 -115,-272zm4905 2119c0,204 63,369 193,494 128,127 334,191 613,191 106,0 222,-13 347,-35 123,-25 235,-57 332,-96l0 -1291 -641 0c-229,0 -430,58 -596,175 -166,117 -248,305 -248,562zm756 1301c-116,0 -251,-17 -403,-51 -151,-33 -299,-97 -437,-185 -138,-88 -258,-215 -354,-377 -96,-163 -145,-375 -145,-634 0,-262 46,-483 138,-658 92,-175 212,-320 357,-431 144,-111 308,-191 484,-239 176,-48 351,-73 528,-73l1158 0 0 2081c0,201 32,348 93,432 63,85 204,128 423,128l173 0c194,0 291,96 291,291 0,120 -24,204 -69,246 -46,43 -122,66 -222,66l-246 0c-122,0 -247,-12 -360,-32 -115,-20 -218,-61 -308,-117 -89,-56 -167,-132 -229,-222 -61,-89 -103,-210 -123,-357 -106,39 -228,71 -360,95 -132,25 -263,37 -389,37zm4932 -7c0,-310 -41,-571 -122,-783 -81,-212 -194,-387 -334,-520 -139,-133 -307,-230 -496,-290 -189,-60 -388,-91 -596,-91 -141,0 -289,15 -447,40 -156,25 -288,53 -389,84l0 -581c98,-28 227,-62 385,-97 159,-36 335,-56 525,-56 369,0 688,64 953,189 263,123 484,296 653,512 169,215 295,468 375,754 79,287 119,593 119,910l0 532 -3543 0c-192,0 -291,-97 -291,-290 0,-122 24,-205 69,-247 45,-43 120,-66 222,-66l2917 0zm-1397 1690c0,-106 37,-196 114,-270 75,-75 167,-111 273,-111 106,0 198,37 272,111 74,73 112,164 112,270 0,107 -38,199 -112,274 -74,74 -166,112 -272,112 -106,0 -199,-38 -273,-112 -76,-75 -114,-167 -114,-274zm7055 -1087c-19,295 -81,539 -185,733 -104,195 -247,350 -427,464 -180,117 -394,199 -643,247 -249,49 -527,73 -832,73l-306 0 0 -603 225 0c222,0 430,-11 621,-33 192,-20 357,-63 496,-130 139,-66 247,-159 328,-276 78,-118 120,-277 125,-475l-821 0c-199,0 -382,-22 -548,-66 -167,-43 -313,-114 -438,-214 -123,-99 -220,-229 -292,-388 -70,-160 -104,-358 -104,-595 0,-197 32,-392 97,-580 66,-190 161,-357 285,-502 125,-145 275,-262 452,-353 176,-91 378,-135 605,-135 251,0 464,44 640,135 175,91 317,217 427,381 109,164 187,363 236,596 48,233 73,491 73,778l0 340 512 0c193,0 290,96 290,291 0,120 -22,203 -69,246 -46,44 -119,66 -221,66l-526 0zm-2218 -1322c0,244 71,427 214,544 141,117 351,175 628,175l778 0 0 -479c0,-363 -61,-651 -180,-860 -122,-211 -330,-316 -626,-316 -139,0 -261,28 -363,84 -102,54 -186,127 -252,217 -67,89 -116,190 -149,301 -33,111 -50,221 -50,334zm2739 1322c-193,0 -290,-97 -290,-290 0,-122 22,-204 69,-247 45,-44 119,-66 221,-66l298 0c60,0 121,-7 184,-22 63,-13 126,-44 188,-92 63,-49 125,-117 185,-202 60,-84 118,-200 173,-344 110,-309 228,-559 351,-751 123,-191 249,-338 379,-442 129,-104 261,-173 394,-209 134,-33 266,-50 397,-50 179,0 348,34 505,103 158,70 294,170 408,298 113,129 203,282 268,458 65,177 97,373 97,593 0,422 -99,753 -298,995 -199,242 -510,363 -931,363 -233,0 -464,-39 -695,-117 -231,-77 -469,-208 -715,-393 -64,97 -128,173 -194,228 -65,56 -134,97 -209,125 -73,27 -148,43 -226,50 -76,8 -158,12 -246,12l-313 0zm3224 -1284c0,-105 -15,-210 -47,-313 -30,-103 -76,-193 -138,-271 -62,-76 -136,-138 -222,-183 -88,-46 -189,-69 -305,-69 -203,0 -390,90 -561,270 -170,179 -330,494 -480,942 181,116 358,209 535,280 177,71 357,106 543,106 203,0 366,-58 490,-173 123,-116 185,-312 185,-589zm-9766 -25580l1037 0 18 0 18 0 238 0c162,0 297,-4 407,-15 110,-9 199,-32 266,-69 65,-36 112,-89 141,-159 28,-69 42,-165 42,-286l0 -1301 597 0 0 1032c0,121 9,231 23,330 17,99 51,183 103,251 54,66 130,119 230,159 99,39 234,58 401,58 107,0 199,-4 278,-15 77,-9 143,-32 197,-69 52,-36 93,-89 118,-159 27,-69 41,-165 41,-286l0 -1301 596 0 0 1032c0,121 9,231 27,330 18,99 52,183 103,251 50,66 122,119 211,159 90,39 208,58 352,58 84,0 159,-4 226,-15 67,-9 126,-32 174,-69 49,-36 86,-89 114,-159 26,-69 40,-165 40,-286l0 -1662 597 0 0 1393c0,121 8,231 25,330 17,99 49,183 98,251 49,66 113,119 196,159 81,39 185,58 314,58 194,0 291,97 291,291 0,120 -23,203 -69,246 -46,44 -121,66 -222,66 -189,0 -342,-46 -459,-135 -116,-91 -194,-202 -234,-338 -43,102 -103,184 -181,244 -78,61 -162,107 -249,141 -88,34 -172,59 -254,69 -82,13 -152,19 -212,19 -160,0 -296,-15 -405,-46 -108,-28 -200,-65 -272,-111 -71,-44 -129,-95 -170,-152 -42,-56 -73,-111 -98,-164 -88,199 -222,328 -402,385 -183,59 -399,88 -653,88 -171,0 -314,-14 -427,-41 -112,-27 -206,-63 -279,-108 -72,-45 -129,-97 -174,-156 -43,-59 -79,-117 -109,-175 -42,102 -97,183 -162,244 -67,60 -152,109 -256,145 -104,37 -233,62 -386,72 -152,13 -336,19 -549,19l-223 0 -19 0 -17 0 -1037 0 -19 0 -3 0 -15 0 -3 0 -14 -1 -3 0c-173,-6 -314,-49 -420,-134 -116,-91 -195,-202 -234,-338 -44,102 -101,184 -173,244 -73,61 -164,107 -274,141 -110,34 -242,59 -398,69 -155,13 -337,19 -546,19l-2960 0c-280,0 -516,-20 -703,-58 -187,-40 -339,-101 -451,-185 -114,-84 -195,-192 -243,-326 -49,-134 -74,-298 -74,-491l0 -1125 598 0 0 908c0,149 17,268 55,358 36,89 98,158 184,205 86,46 205,76 356,89 150,15 343,22 577,22l2654 0c161,0 298,-4 408,-15 112,-9 201,-32 267,-69 64,-36 111,-89 141,-159 30,-69 44,-165 44,-286l0 -1662 597 0 0 1393c0,121 8,231 25,330 17,99 50,183 98,251 49,66 115,119 197,159 79,37 175,56 290,58l1 0 10 0 9 0 3 0 18 0zm7231 603c-194,0 -290,-97 -290,-290 0,-122 22,-204 69,-247 45,-44 119,-66 221,-66l1738 0c180,0 330,-31 449,-94 121,-62 179,-184 179,-363 0,-126 -58,-269 -179,-431 -119,-162 -278,-326 -473,-495 -197,-167 -423,-332 -678,-494 -255,-161 -514,-308 -780,-437 5,-60 20,-119 42,-179 25,-61 52,-116 81,-168 29,-50 60,-96 91,-134 31,-39 56,-65 77,-80l2663 -1170 0 590 -2140 942c338,199 627,392 865,581 238,189 431,371 580,546 147,175 256,344 323,505 68,163 101,315 101,459 0,102 -16,214 -46,335 -32,122 -89,234 -178,335 -88,102 -211,187 -371,254 -160,67 -366,101 -620,101l-1724 0zm-47935 13130c-189,0 -342,-45 -458,-135 -115,-90 -195,-201 -234,-337 -43,102 -101,183 -172,244 -73,61 -164,107 -275,141 -110,34 -242,58 -398,69 -154,12 -337,18 -545,18l-2960 0c-281,0 -516,-19 -704,-57 -187,-41 -338,-101 -451,-186 -114,-84 -195,-192 -243,-326 -48,-133 -73,-297 -73,-491l0 -1124 597 0 0 907c0,150 18,269 56,358 36,90 98,159 183,205 87,46 206,76 356,90 151,14 344,21 578,21l2653 0c161,0 299,-4 409,-14 111,-9 200,-33 266,-69 64,-36 111,-90 141,-160 30,-68 45,-164 45,-286l0 -1661 597 0 0 1393c0,120 7,230 25,329 16,100 49,183 98,251 48,66 114,120 197,160 83,39 187,57 312,57 194,0 291,97 291,291 0,121 -23,203 -69,246 -46,45 -120,66 -222,66zm-4410 -3595c0,-106 38,-197 114,-270 76,-75 166,-113 273,-113 107,0 198,38 272,113 75,73 112,164 112,270 0,107 -37,198 -112,273 -74,76 -165,113 -272,113 -107,0 -197,-37 -273,-113 -76,-75 -114,-166 -114,-273zm945 0c0,-106 39,-197 114,-270 76,-75 167,-113 274,-113 106,0 196,38 272,113 74,73 111,164 111,270 0,107 -37,198 -111,273 -76,76 -166,113 -272,113 -107,0 -198,-37 -274,-113 -75,-75 -114,-166 -114,-273zm3462 3595c-194,0 -291,-96 -291,-290 0,-121 23,-204 69,-247 46,-43 120,-66 222,-66l1058 0 19 0 17 0 1041 0 19 0 17 0 1041 0 18 0 18 0 1041 0 18 0 18 0 1040 0 19 0 17 0c2233,0 571,0 2804,0 162,0 298,-5 407,-14 109,-8 200,-34 266,-69 64,-35 113,-91 141,-160 27,-67 42,-164 42,-286l0 -1300 598 0 0 1032c0,118 8,230 22,329 17,100 51,183 103,251 54,66 131,121 230,160 98,38 235,57 402,57 106,0 200,-5 277,-14 76,-8 144,-34 197,-69 52,-35 93,-92 119,-160 25,-68 40,-164 40,-286l0 -1300 596 0 0 1032c0,118 10,231 27,329 17,99 53,184 103,251 50,65 122,121 211,160 89,39 208,57 352,57 84,0 160,-5 226,-14 66,-8 127,-34 174,-69 48,-35 87,-91 114,-160 26,-67 40,-164 40,-286l0 -1661 597 0 0 1393c0,118 9,231 25,329 17,99 50,184 98,251 48,65 114,121 196,160 80,38 186,57 314,57 194,0 291,97 291,291 0,121 -22,203 -69,246 -46,45 -120,66 -222,66 -189,0 -343,-46 -458,-135 -116,-89 -194,-201 -235,-337 -43,102 -104,184 -181,244 -76,60 -162,107 -249,141 -87,34 -173,59 -253,69 -82,11 -153,18 -213,18 -160,0 -296,-16 -405,-45 -105,-29 -200,-67 -271,-111 -71,-43 -130,-97 -171,-152 -41,-56 -73,-112 -98,-164 -87,199 -222,328 -402,385 -181,57 -399,87 -653,87 -171,0 -314,-14 -427,-41 -111,-26 -207,-64 -279,-108 -70,-43 -129,-97 -174,-155 -43,-60 -79,-118 -109,-175 -42,102 -97,183 -162,244 -67,59 -152,109 -256,145 -104,36 -234,62 -385,72 -152,11 -337,18 -550,18 -2228,0 -561,0 -2789,0l-18 0 -18 0 -1040 0 -19 0 -17 0 -1041 0 -19 0 -17 0 -1041 0 -18 0 -18 0 -1041 0 -18 0 -18 0 -1059 0zm14126 0c-190,0 -291,-96 -291,-290 0,-121 23,-205 69,-247 44,-42 119,-66 222,-66l2890 0c266,0 460,-43 575,-127 115,-85 174,-198 174,-337 0,-129 -54,-275 -160,-439 -106,-163 -255,-329 -443,-495 -189,-167 -413,-331 -667,-493 -253,-161 -530,-306 -827,-437 5,-60 17,-120 33,-183 16,-61 36,-121 58,-173 23,-54 46,-98 69,-136 25,-36 45,-60 65,-69l2722 -1170 0 604 -2140 943c514,262 924,540 1226,835 303,295 507,591 608,887 59,170 116,306 169,406 53,99 110,181 171,239 60,60 127,98 197,116 71,19 152,29 241,29 194,0 292,97 292,291 0,121 -25,203 -69,246 -46,44 -121,66 -223,66 -101,0 -195,-6 -278,-18 -85,-11 -164,-36 -236,-76 -75,-38 -145,-96 -209,-169 -65,-74 -127,-176 -186,-305l-29 0c-92,229 -248,380 -464,454 -219,77 -488,114 -801,114l-2758 0zm5217 -603c162,0 2933,-5 3042,-14 110,-9 200,-33 267,-69 65,-36 112,-90 141,-160 28,-68 42,-164 42,-286l0 -1307 597 0 0 1039c0,120 9,230 23,329 17,100 51,183 103,251 54,66 129,120 226,160 97,39 230,57 398,57 106,0 200,-4 282,-14 79,-9 146,-33 200,-69 52,-36 93,-90 118,-160 27,-68 41,-164 41,-286l0 -1300 596 0 0 1032c0,120 9,230 27,329 18,100 49,183 96,251 46,66 110,120 191,160 83,39 187,57 314,57l612 0 0 -2190 594 0 0 2793 -1206 0c-189,0 -340,-45 -456,-135 -114,-90 -192,-201 -229,-337 -88,199 -225,327 -408,385 -185,58 -408,87 -669,87 -170,0 -310,-13 -418,-41 -110,-27 -201,-63 -274,-108 -71,-44 -128,-97 -169,-155 -41,-60 -76,-118 -106,-175 -42,102 -97,183 -162,244 -67,59 -152,109 -256,145 -104,37 -234,61 -386,72 -152,11 -2973,18 -3185,18l-242 0c-193,0 -291,-96 -291,-290 0,-121 24,-204 70,-247 45,-42 119,-66 221,-66l256 0zm4869 -3412c0,-107 38,-198 115,-272 75,-74 166,-112 272,-112 107,0 198,38 272,112 75,74 113,165 113,272 0,106 -38,197 -113,271 -74,77 -165,114 -272,114 -106,0 -197,-37 -272,-114 -77,-74 -115,-165 -115,-271zm945 0c0,-107 39,-198 114,-272 77,-74 167,-112 275,-112 105,0 196,38 271,112 74,74 111,165 111,272 0,106 -37,197 -111,271 -75,77 -166,114 -271,114 -108,0 -198,-37 -275,-114 -75,-74 -114,-165 -114,-271zm-458 -870c0,-106 38,-196 113,-273 77,-75 168,-113 275,-113 107,0 197,38 271,113 74,77 112,167 112,273 0,107 -38,197 -112,272 -74,74 -164,111 -271,111 -107,0 -198,-37 -275,-111 -75,-75 -113,-165 -113,-272zm6636 4573c0,121 -23,203 -69,246 -46,45 -120,66 -222,66l-189 0c-156,0 -299,-15 -426,-48 -129,-32 -236,-87 -328,-163 -89,-77 -160,-180 -210,-308 -52,-129 -76,-290 -76,-484l0 -4179 596 0 0 4020c0,202 33,346 96,432 65,85 205,127 424,127l113 0c194,0 291,97 291,291zm-291 312c-192,0 -291,-96 -291,-290 0,-121 23,-204 69,-247 46,-43 120,-66 222,-66l1731 0 0 -2190 596 0 0 2793 -2327 0zm1519 1081c0,-106 37,-198 114,-271 75,-75 168,-111 273,-111 107,0 198,36 273,111 72,72 112,165 112,271 0,107 -39,197 -112,273 -75,75 -166,112 -273,112 -105,0 -198,-38 -273,-112 -76,-76 -114,-166 -114,-273zm3873 -1081l-806 0 0 -733c0,-277 63,-517 187,-716 125,-201 330,-343 612,-422l0 361c-83,28 -154,72 -208,126 -55,56 -101,117 -136,183 -34,64 -58,134 -69,203 -12,69 -16,134 -11,194l431 0 0 804zm4312 0c-199,0 -366,-41 -501,-124 -135,-83 -271,-231 -408,-444 -55,131 -124,236 -209,313 -83,77 -178,136 -282,172 -104,36 -214,59 -330,69 -117,9 -232,14 -349,14l-1108 0 0 -603 1304 0c203,0 360,-24 469,-76 110,-50 162,-124 162,-221 0,-92 -23,-184 -72,-277 -48,-92 -108,-191 -179,-298l-774 -1137 561 -351 874 1446c97,161 181,299 255,415 71,117 141,209 207,282 66,71 130,126 190,163 61,37 123,54 190,54 194,0 291,97 291,291 0,121 -22,203 -69,246 -45,45 -119,66 -222,66zm0 0c-193,0 -290,-96 -290,-290 0,-121 22,-204 69,-247 45,-43 119,-66 221,-66l487 0c116,0 216,-4 298,-14 84,-9 153,-33 209,-69 55,-36 97,-90 124,-160 27,-68 41,-164 41,-286l0 -1661 597 0 0 1393c0,120 8,230 25,329 16,100 48,183 97,251 48,66 114,120 196,160 82,39 186,57 315,57 194,0 291,97 291,291 0,121 -24,203 -69,246 -46,45 -121,66 -222,66 -190,0 -342,-45 -459,-135 -116,-90 -194,-201 -235,-337 -88,199 -225,327 -410,385 -186,58 -415,87 -687,87l-598 0zm575 1095c0,-106 38,-196 114,-271 76,-74 167,-111 274,-111 106,0 197,37 271,111 75,75 112,165 112,271 0,107 -37,197 -112,274 -74,75 -165,114 -271,114 -107,0 -198,-39 -274,-114 -76,-77 -114,-167 -114,-274zm946 0c0,-106 38,-196 113,-271 77,-74 167,-111 275,-111 105,0 196,37 271,111 74,75 111,165 111,271 0,107 -37,197 -111,274 -75,75 -166,114 -271,114 -108,0 -198,-39 -275,-114 -75,-77 -113,-167 -113,-274zm864 -1095c-194,0 -291,-96 -291,-290 0,-121 23,-204 69,-247 46,-43 120,-66 222,-66l487 0c115,0 215,-4 298,-14 84,-9 153,-33 208,-69 56,-36 97,-90 124,-160 28,-68 41,-164 41,-286l0 -1661 598 0 0 1393c0,120 8,230 24,329 17,100 49,183 97,251 49,66 115,120 196,160 83,39 187,57 316,57 194,0 291,97 291,291 0,121 -24,203 -69,246 -47,45 -121,66 -222,66 -190,0 -343,-45 -459,-135 -117,-90 -194,-201 -235,-337 -88,199 -225,327 -411,385 -185,58 -414,87 -687,87l-597 0zm1090 -4015c0,-107 39,-198 115,-272 76,-74 167,-112 274,-112 106,0 196,38 271,112 75,74 112,165 112,272 0,106 -37,197 -112,271 -75,77 -165,114 -271,114 -107,0 -198,-37 -274,-114 -76,-74 -115,-165 -115,-271zm1295 4015c-194,0 -291,-96 -291,-290 0,-121 23,-204 69,-247 45,-43 120,-66 222,-66l1631 0c266,0 459,-42 575,-127 116,-86 174,-198 174,-337 0,-129 -52,-275 -160,-439 -106,-164 -254,-328 -443,-495 -190,-167 -413,-330 -666,-493 -255,-161 -531,-306 -828,-437 5,-60 16,-120 33,-183 16,-62 36,-120 58,-173 24,-54 46,-98 69,-136 25,-36 46,-60 65,-69l2722 -1170 0 604 -2140 943c515,262 923,540 1226,835 303,296 507,591 608,887 60,170 115,306 169,406 53,100 110,181 171,239 60,60 126,98 197,116 71,20 152,29 241,29 194,0 292,97 292,291 0,121 -23,203 -69,246 -46,45 -120,66 -223,66 -101,0 -195,-6 -278,-18 -85,-11 -164,-36 -236,-76 -75,-38 -144,-96 -209,-169 -65,-75 -126,-176 -186,-305l-29 0c-92,229 -248,380 -464,454 -219,77 -486,114 -801,114l-1499 0zm4713 -4015c0,-107 38,-198 114,-272 76,-74 167,-112 274,-112 106,0 196,38 271,112 75,74 113,165 113,272 0,106 -38,197 -113,271 -75,77 -165,114 -271,114 -107,0 -198,-37 -274,-114 -76,-74 -114,-165 -114,-271zm-1018 4015c-194,0 -291,-96 -291,-290 0,-121 23,-204 69,-247 46,-43 120,-66 222,-66l1135 0 0 -2190 596 0 0 2793 -1731 0zm-54312 11847l-590 0 0 -3885 590 0 0 3885zm-719 936c-2,-120 39,-222 122,-305 82,-82 184,-124 305,-124 122,0 223,42 306,124 83,83 124,185 124,305 0,120 -41,222 -124,306 -83,82 -184,123 -306,123 -121,0 -223,-41 -305,-123 -83,-84 -124,-186 -122,-306zm4799 348c-199,0 -366,-41 -501,-125 -135,-82 -272,-230 -409,-443 -54,130 -124,235 -208,313 -84,77 -179,135 -283,171 -104,36 -213,59 -330,69 -116,10 -232,15 -348,15l-1108 0 0 -603 1304 0c203,0 360,-25 469,-76 109,-51 162,-125 162,-222 0,-91 -24,-184 -72,-276 -49,-93 -109,-192 -180,-299l-773 -1137 561 -350 873 1445c97,162 182,300 255,416 71,116 141,209 207,282 66,71 130,125 190,162 61,37 124,55 191,55 194,0 291,96 291,291 0,120 -23,203 -69,246 -46,44 -120,66 -222,66zm0 0c-194,0 -291,-97 -291,-290 0,-122 23,-204 69,-247 46,-44 120,-66 222,-66l1058 0 19 0 17 0 1041 0 19 0 17 0 1041 0 18 0 18 0 1041 0c1436,0 1280,0 2716,0l18 0 18 0 238 0c162,0 297,-4 406,-15 111,-9 200,-34 266,-69 64,-35 114,-90 142,-159 27,-68 42,-165 42,-286l0 -1308 597 0 0 1039c0,119 9,232 23,330 15,98 50,183 103,251 54,66 130,120 226,159 96,38 230,58 398,58 106,0 200,-6 282,-15 77,-9 147,-34 200,-69 51,-35 93,-89 118,-159 27,-69 41,-165 41,-286l0 -1301 596 0 0 1032c0,119 9,231 27,330 18,99 49,185 95,251 45,66 111,121 192,159 81,39 187,58 314,58l611 0 0 -2191 595 0 0 2794 -1206 0c-187,0 -343,-46 -456,-135 -115,-89 -192,-202 -229,-338 -88,199 -227,328 -408,385 -185,57 -408,88 -669,88 -170,0 -310,-14 -419,-41 -109,-27 -201,-64 -273,-108 -70,-44 -129,-98 -169,-156 -40,-59 -76,-117 -106,-175 -43,102 -97,183 -162,244 -67,60 -153,110 -256,145 -103,36 -233,62 -386,72 -152,13 -338,19 -549,19l-223 0 -19 0 -17 0c-1436,0 -1280,0 -2716,0l-1041 0 -19 0 -17 0 -1041 0 -18 0 -18 0 -1041 0 -18 0 -18 0 -1059 0zm9512 -4016c0,-107 38,-198 114,-272 76,-74 167,-112 273,-112 107,0 199,39 272,112 74,73 112,165 112,272 0,106 -37,198 -112,272 -74,77 -165,114 -272,114 -106,0 -197,-37 -273,-114 -76,-74 -114,-166 -114,-272zm945 0c0,-107 40,-199 114,-272 76,-73 167,-112 275,-112 105,0 197,39 271,112 73,73 111,165 111,272 0,106 -38,199 -111,272 -74,76 -166,114 -271,114 -108,0 -199,-38 -275,-114 -74,-73 -114,-166 -114,-272zm-458 -869c0,-106 38,-197 113,-273 77,-75 168,-113 275,-113 107,0 198,39 271,113 73,75 112,167 112,273 0,107 -39,197 -112,271 -73,73 -164,111 -271,111 -107,0 -198,-37 -275,-111 -75,-75 -113,-164 -113,-271zm-13366 -38102c0,-106 39,-197 115,-270 75,-75 166,-113 272,-113 108,0 198,38 273,113 75,73 112,164 112,270 0,107 -37,198 -112,273 -75,76 -165,113 -273,113 -106,0 -197,-37 -272,-113 -76,-75 -115,-166 -115,-273zm945 0c0,-106 39,-197 115,-270 76,-75 167,-113 274,-113 105,0 196,38 271,113 75,73 112,164 112,270 0,107 -37,198 -112,273 -75,76 -166,113 -271,113 -107,0 -198,-37 -274,-113 -76,-75 -115,-166 -115,-273zm5349 3284c0,120 -23,202 -69,245 -45,45 -120,66 -222,66l-189 0c-156,0 -299,-15 -425,-48 -129,-32 -237,-87 -328,-163 -90,-77 -160,-180 -211,-308 -51,-129 -76,-290 -76,-484l0 -4179 596 0 0 4020c0,202 33,346 96,432 65,85 205,127 424,127l113 0c194,0 291,97 291,292zm-291 311c-192,0 -291,-96 -291,-290 0,-121 23,-204 69,-247 46,-43 120,-66 222,-66l4109 0c116,0 216,-5 298,-14 83,-9 153,-34 208,-69 55,-36 97,-90 124,-159 27,-69 41,-165 41,-286l0 -1662 598 0 0 1393c0,119 8,231 24,329 16,100 49,184 97,251 48,66 115,121 196,160 82,39 187,57 316,57 194,0 291,97 291,292 0,120 -25,202 -69,245 -47,44 -121,66 -222,66 -190,0 -343,-45 -459,-135 -116,-90 -194,-201 -235,-337 -88,199 -226,327 -411,385 -185,57 -415,87 -687,87l-4219 0zm4197 1095c0,-106 38,-196 114,-271 74,-74 166,-111 274,-111 106,0 198,37 271,111 75,75 112,165 112,271 0,107 -38,198 -112,274 -74,74 -165,114 -271,114 -108,0 -199,-39 -274,-114 -76,-76 -114,-167 -114,-274zm945 0c0,-106 39,-195 114,-271 76,-74 167,-111 274,-111 106,0 196,37 272,111 74,76 111,165 111,271 0,107 -37,198 -111,274 -76,75 -166,114 -272,114 -107,0 -199,-39 -274,-114 -75,-75 -114,-167 -114,-274zm865 -1095c-192,0 -291,-96 -291,-290 0,-121 24,-204 69,-247 45,-42 120,-66 222,-66l1134 0 0 -2190 596 0 0 2793 -1730 0zm298 1095c0,-106 38,-196 114,-271 75,-74 166,-111 273,-111 107,0 199,37 272,111 75,75 112,165 112,271 0,107 -38,198 -112,274 -74,74 -165,114 -272,114 -107,0 -198,-39 -273,-114 -76,-75 -114,-167 -114,-274zm945 0c0,-106 39,-195 114,-271 76,-74 167,-111 274,-111 106,0 196,37 272,111 74,76 111,165 111,271 0,107 -37,198 -111,274 -76,75 -166,114 -272,114 -107,0 -199,-39 -274,-114 -75,-75 -114,-167 -114,-274zm3259 -1095c-161,0 -294,-36 -401,-108 -107,-72 -186,-157 -238,-254 0,348 -20,642 -61,882 -43,239 -122,434 -238,581 -116,147 -277,254 -479,318 -204,65 -469,99 -797,99l0 -603c238,0 423,-26 557,-76 133,-50 234,-134 300,-247 66,-112 107,-259 118,-435 12,-177 17,-391 17,-642l0 -1947 591 0 0 1032c0,245 45,440 134,583 89,142 256,214 497,214 195,0 292,97 292,292 0,120 -25,202 -69,245 -47,44 -121,66 -223,66zm-1325 -4015c0,-107 39,-199 114,-272 75,-74 167,-112 273,-112 108,0 198,38 273,112 74,73 111,165 111,272 0,106 -38,197 -111,271 -76,76 -165,114 -273,114 -106,0 -197,-38 -273,-114 -74,-74 -114,-165 -114,-271zm9332 3412c0,-309 -42,-572 -122,-783 -81,-211 -193,-385 -334,-519 -141,-134 -309,-231 -496,-290 -189,-59 -388,-92 -597,-92 -140,0 -289,14 -446,40 -157,25 -288,54 -389,85l0 -582c98,-28 227,-61 385,-96 159,-36 335,-56 525,-56 369,0 688,64 953,188 263,124 483,297 653,513 169,215 295,468 375,754 78,287 119,592 119,909l0 532 -8636 0c-192,0 -291,-96 -291,-290 0,-121 24,-205 69,-247 44,-42 120,-66 222,-66l8010 0zm-1397 1691c0,-106 37,-197 114,-271 75,-75 167,-111 273,-111 106,0 197,36 272,111 74,74 112,165 112,271 0,107 -39,198 -112,273 -74,75 -166,113 -272,113 -106,0 -198,-38 -273,-113 -76,-76 -114,-166 -114,-273zm6043 -1399c0,120 -23,202 -69,245 -45,45 -122,66 -222,66l-189 0c-154,0 -300,-16 -426,-48 -126,-32 -236,-87 -328,-163 -89,-77 -160,-181 -210,-308 -51,-128 -76,-290 -76,-484l0 -4179 596 0 0 4020c0,200 33,346 96,432 65,85 205,127 424,127l113 0c194,0 291,97 291,292zm4186 311c-184,0 -345,-37 -481,-108 -135,-71 -246,-195 -329,-371l0 -14c-92,185 -227,329 -402,433 -178,103 -400,156 -667,156 -233,0 -465,-40 -695,-117 -230,-76 -469,-208 -716,-393 -64,96 -129,173 -194,228 -64,55 -134,99 -208,125 -71,26 -149,44 -226,50 -75,6 -161,11 -246,11l-313 0c-192,0 -291,-96 -291,-290 0,-121 23,-204 69,-247 46,-43 120,-66 222,-66l298 0c60,0 121,-7 184,-21 63,-14 127,-45 188,-93 61,-47 125,-117 185,-202 59,-83 118,-199 172,-343 111,-310 229,-560 352,-751 123,-191 250,-340 379,-443 128,-103 261,-172 394,-209 134,-32 266,-50 397,-50 179,0 348,36 505,104 157,69 294,170 408,297 113,130 204,283 268,458 64,176 97,374 97,594 0,33 -1,66 -3,99 -4,30 -5,61 -5,89 49,155 120,274 213,353 93,78 241,118 445,118 195,0 289,97 289,292 0,118 -25,202 -68,245 -45,43 -119,66 -221,66zm-1254 -1284c0,-105 -16,-210 -46,-313 -30,-100 -77,-193 -138,-270 -61,-75 -137,-139 -222,-183 -87,-46 -189,-69 -305,-69 -204,0 -391,90 -561,269 -170,178 -331,494 -480,943 180,116 358,209 535,280 177,71 357,106 543,106 203,0 366,-58 490,-173 122,-116 184,-312 184,-590zm1250 1284c-190,0 -291,-96 -291,-290 0,-121 24,-205 70,-247 44,-42 119,-66 221,-66l1059 0 18 0 18 0c3218,0 -2278,0 940,0l18 0 18 0 1040 0 19 0 17 0 1041 0 19 0 17 0 1041 0 18 0 18 0 1041 0 18 0 18 0 1040 0 19 0 18 0 238 0c162,0 297,-4 406,-14 111,-9 199,-33 266,-69 65,-36 113,-89 142,-159 27,-69 42,-165 42,-286l0 -1308 597 0 0 1039c0,120 8,230 23,329 16,100 50,183 103,251 54,66 129,120 226,160 97,39 230,57 398,57 106,0 200,-4 281,-14 80,-9 147,-33 201,-69 52,-36 92,-89 118,-159 27,-69 40,-165 40,-286l0 -1301 597 0 0 1032c0,120 9,230 26,329 19,100 50,183 96,251 47,66 111,120 192,160 83,39 187,57 314,57l611 0 0 -2190 594 0 0 2793 -1205 0c-189,0 -341,-45 -456,-135 -115,-90 -192,-201 -229,-337 -88,199 -225,327 -409,385 -184,58 -407,87 -668,87 -170,0 -310,-13 -419,-41 -109,-27 -200,-63 -273,-108 -71,-44 -128,-97 -169,-155 -41,-60 -76,-118 -106,-175 -43,102 -97,183 -162,244 -67,59 -152,109 -256,145 -104,37 -233,61 -386,72 -153,12 -336,18 -550,18l-222 0 -19 0 -17 0 -1041 0 -19 0 -17 0 -1041 0 -19 0 -17 0 -1041 0 -18 0 -18 0 -1041 0 -18 0 -18 0 -1040 0 -19 0 -17 0c-3218,0 2278,0 -940,0l-19 0 -17 0 -1060 0zm9926 -4015c0,-107 38,-198 114,-272 76,-74 166,-112 273,-112 107,0 198,38 272,112 75,74 112,165 112,272 0,106 -37,197 -112,271 -74,77 -165,114 -272,114 -107,0 -197,-37 -273,-114 -76,-74 -114,-165 -114,-271zm945 0c0,-107 39,-198 114,-272 76,-74 167,-112 274,-112 106,0 196,38 272,112 74,74 111,165 111,272 0,106 -37,197 -111,271 -76,77 -166,114 -272,114 -107,0 -198,-37 -274,-114 -75,-74 -114,-165 -114,-271zm-458 -870c0,-106 38,-196 113,-272 76,-76 168,-114 274,-114 108,0 197,38 272,114 74,76 112,166 112,272 0,107 -38,197 -112,272 -75,74 -164,111 -272,111 -106,0 -198,-37 -274,-111 -75,-75 -113,-165 -113,-272zm6953 4885c-161,0 -294,-36 -401,-108 -106,-72 -186,-157 -237,-254 0,348 -21,642 -62,882 -42,239 -121,434 -237,581 -117,148 -277,254 -480,318 -204,66 -468,99 -796,99l0 -603c237,0 422,-26 557,-76 133,-51 233,-133 299,-247 67,-112 106,-259 119,-435 11,-178 16,-391 16,-642l0 -1947 591 0 0 1032c0,246 44,440 134,583 90,143 256,214 497,214 195,0 292,97 292,292 0,120 -24,202 -69,245 -46,45 -121,66 -223,66zm-3 0c-194,0 -291,-96 -291,-290 0,-121 23,-204 69,-247 46,-43 120,-66 222,-66l1738 0c180,0 330,-31 449,-93 120,-62 179,-184 179,-363 0,-126 -59,-269 -179,-432 -119,-161 -278,-326 -474,-494 -197,-167 -422,-333 -677,-494 -255,-162 -514,-309 -780,-438 5,-59 20,-119 42,-179 25,-60 52,-116 81,-167 29,-51 60,-96 91,-134 30,-39 56,-66 77,-80l2663 -1170 0 589 -2140 943c338,198 627,392 865,580 237,189 431,372 580,546 147,175 256,344 323,506 68,162 101,314 101,459 0,101 -16,214 -46,335 -32,121 -89,233 -178,334 -88,102 -212,188 -371,254 -160,67 -367,101 -620,101l-1724 0zm387 -3803c0,-68 12,-138 39,-211 25,-71 57,-138 95,-199 36,-61 74,-113 116,-159 41,-47 76,-78 106,-94l2473 -1124 0 546 -2829 1241zm4218 -1379l0 5182 -596 0 0 -5182 596 0zm-55968 18313c-281,0 -516,-20 -704,-58 -187,-40 -338,-101 -451,-185 -114,-84 -195,-192 -243,-326 -48,-134 -73,-298 -73,-491l0 -1125 597 0 0 908c0,149 18,268 56,358 36,89 98,158 183,205 87,46 206,76 356,89 151,15 344,22 578,22l2903 0c180,0 329,-31 448,-94 117,-62 177,-184 177,-363 0,-126 -60,-269 -177,-431 -119,-162 -277,-326 -474,-495 -196,-167 -422,-332 -676,-494 -255,-161 -516,-308 -783,-437 4,-60 18,-119 44,-179 25,-61 51,-116 79,-168 29,-50 59,-96 91,-134 32,-39 58,-65 77,-80l2664 -1170 0 590 -2141 942c338,199 627,392 864,581 239,189 432,371 580,546 148,175 255,344 324,505 69,163 104,315 104,459 0,102 -16,214 -49,335 -31,122 -91,234 -179,335 -87,102 -211,187 -372,254 -160,67 -365,101 -615,101l-3188 0zm5995 -2433l590 0 0 2025c0,359 -21,661 -62,907 -42,244 -121,441 -237,591 -117,150 -278,259 -484,325 -206,68 -471,102 -799,102l0 -603c236,0 422,-25 557,-76 133,-50 234,-132 299,-247 67,-112 106,-259 118,-435 12,-178 18,-391 18,-642l0 -1947zm3994 1635c0,232 -80,422 -241,572 -160,151 -393,226 -698,226l-1740 0 0 -603 1691 0c166,0 270,-25 312,-76 42,-51 65,-107 65,-172 0,-47 -10,-98 -30,-151 -17,-53 -65,-139 -141,-259 -75,-119 -186,-284 -329,-493 -144,-211 -338,-496 -585,-859l562 -350c194,332 362,613 505,841 142,229 259,422 351,582 92,159 161,296 209,411 46,115 69,225 69,331zm2897 -4385l0 5183 -596 0 0 -5183 596 0zm1543 2750l590 0 0 2025c0,359 -21,661 -62,907 -42,244 -121,441 -237,591 -117,150 -278,259 -484,325 -206,68 -471,102 -799,102l0 -603c236,0 421,-25 557,-76 133,-50 234,-132 299,-247 67,-112 106,-259 117,-435 13,-178 19,-391 19,-642l0 -1947zm2534 451l590 0 0 993c0,469 120,800 361,989 240,188 594,283 1063,283 242,0 451,-18 626,-55 175,-36 319,-100 434,-189 114,-90 198,-213 250,-371 54,-157 81,-356 81,-597l0 -1865 590 0 0 1872c0,639 -176,1098 -524,1380 -350,279 -840,421 -1471,421 -670,0 -1171,-149 -1503,-447 -331,-297 -497,-730 -497,-1298l0 -1116zm1636 -1090c0,-106 39,-198 114,-271 77,-75 167,-113 275,-113 106,0 196,38 271,113 74,73 111,165 111,271 0,107 -37,197 -111,272 -75,76 -165,113 -271,113 -108,0 -198,-37 -275,-113 -75,-75 -114,-165 -114,-272zm4895 2760c0,120 -23,203 -69,246 -46,44 -120,66 -222,66l-189 0c-157,0 -299,-16 -426,-49 -129,-31 -236,-86 -328,-162 -89,-77 -160,-180 -210,-309 -52,-128 -76,-290 -76,-483l0 -4180 596 0 0 4020c0,203 33,347 96,432 65,86 205,128 423,128l114 0c194,0 291,97 291,291zm-291 312c-194,0 -291,-97 -291,-290 0,-122 23,-204 69,-247 46,-44 120,-66 222,-66l1134 0 0 -2191 597 0 0 2794 -1731 0zm488 -4016c0,-107 37,-197 113,-272 76,-74 166,-112 274,-112 106,0 198,38 271,112 75,75 113,165 113,272 0,106 -38,198 -113,272 -73,77 -165,114 -271,114 -108,0 -198,-37 -274,-114 -76,-74 -113,-166 -113,-272zm945 0c0,-107 38,-197 113,-272 76,-74 168,-112 274,-112 106,0 197,38 273,112 73,75 111,165 111,272 0,106 -38,198 -111,272 -76,77 -167,114 -273,114 -106,0 -198,-37 -274,-114 -75,-74 -113,-166 -113,-272zm1841 1583l590 0 0 2025c0,359 -21,661 -62,907 -43,244 -121,441 -238,591 -116,150 -277,259 -483,325 -207,68 -472,102 -800,102l0 -603c237,0 422,-25 557,-76 133,-50 234,-132 299,-247 68,-112 107,-259 118,-435 12,-178 19,-391 19,-642l0 -1947zm3126 2121c0,120 -23,203 -69,246 -46,44 -120,66 -222,66l-189 0c-157,0 -299,-16 -426,-49 -129,-31 -236,-86 -328,-162 -90,-77 -160,-180 -210,-309 -52,-128 -76,-290 -76,-483l0 -4180 596 0 0 4020c0,203 33,347 96,432 65,86 205,128 423,128l114 0c194,0 291,97 291,291zm-291 312c-194,0 -291,-97 -291,-290 0,-122 23,-204 69,-247 46,-44 120,-66 222,-66l1738 0c179,0 330,-31 448,-94 121,-62 180,-184 180,-363 0,-126 -59,-269 -180,-431 -118,-162 -277,-326 -473,-495 -197,-167 -423,-332 -678,-494 -254,-161 -513,-308 -779,-437 5,-60 19,-119 42,-179 25,-61 52,-116 80,-168 29,-50 60,-96 91,-134 31,-39 57,-65 78,-80l2663 -1170 0 590 -2141 942c339,199 628,392 866,581 237,189 431,371 579,546 148,175 256,344 323,505 68,163 101,315 101,459 0,102 -15,214 -45,335 -32,122 -90,234 -178,335 -88,102 -212,187 -372,254 -160,67 -366,101 -620,101l-1723 0zm6554 0c-189,0 -365,-22 -528,-66 -163,-43 -303,-114 -422,-214 -120,-99 -214,-231 -285,-395 -70,-165 -104,-367 -104,-609 0,-194 31,-384 94,-570 62,-188 154,-353 275,-498 121,-145 271,-262 451,-349 181,-89 386,-132 618,-132 259,0 476,48 653,142 176,94 318,225 424,392 108,167 184,366 230,595 46,231 69,485 69,761l0 680c0,365 -48,661 -145,890 -98,230 -236,411 -416,544 -178,134 -399,225 -661,273 -260,49 -554,73 -879,73l-306 0 0 -603 225 0c232,0 443,-9 635,-28 193,-19 358,-62 496,-131 139,-69 247,-169 324,-297 77,-131 116,-307 116,-529l0 -138c-88,53 -201,103 -342,145 -140,42 -313,64 -522,64zm-757 -1350c0,276 75,472 222,591 148,119 346,178 592,178 185,0 347,-24 489,-74 140,-48 247,-100 318,-157l0 -270c0,-164 -14,-321 -39,-466 -27,-145 -71,-269 -133,-373 -63,-105 -146,-187 -248,-247 -102,-60 -226,-90 -372,-90 -150,0 -277,29 -381,87 -104,57 -190,129 -256,218 -66,87 -115,184 -146,290 -30,107 -46,211 -46,313zm6695 2452c0,-106 37,-197 114,-271 75,-75 168,-111 273,-111 106,0 198,36 273,111 74,74 112,165 112,271 0,107 -38,197 -112,273 -75,75 -167,113 -273,113 -105,0 -198,-38 -273,-113 -77,-76 -114,-166 -114,-273zm33414 20750c-20,606 -200,1064 -535,1369 -337,306 -815,462 -1432,462 -323,0 -610,-46 -856,-136 -246,-90 -453,-219 -617,-382 -162,-164 -290,-360 -373,-587 -82,-223 -125,-476 -125,-753l0 -1104 582 0 0 981c0,926 468,1395 1404,1395 482,0 833,-105 1048,-312 214,-207 322,-550 322,-1027l0 -5014 582 0 0 4514 560 0c191,0 286,95 286,287 0,119 -23,200 -68,242 -44,43 -121,65 -218,65l-560 0zm1737 -31624c-857,0 -1583,-63 -2165,-186 -581,-123 -1046,-328 -1393,-603 -348,-276 -601,-631 -754,-1067 -152,-435 -229,-965 -229,-1589l0 -3597 2834 0 0 3212c0,289 40,521 114,686 74,167 207,303 393,400 188,97 443,164 763,192 320,29 728,43 1226,43l6918 0c-113,-235 -199,-530 -252,-886 -51,-351 -79,-682 -79,-986 0,-566 101,-1127 298,-1673 199,-553 486,-1043 855,-1471 368,-427 827,-772 1375,-1035 546,-262 1176,-395 1885,-395 834,0 1517,150 2053,447 537,298 960,676 1272,1132 313,457 534,966 660,1528 124,558 185,1101 185,1626l0 1713c10360,0 20721,0 31081,0l0 2509c-15680,0 -31360,0 -47040,0zm10127 -4509c0,752 179,1271 527,1561 352,293 768,439 1245,439l1243 0 0 -1651c0,-290 -16,-571 -50,-839 -34,-268 -107,-506 -219,-708 -110,-200 -261,-365 -447,-489 -187,-125 -437,-186 -742,-186 -292,0 -539,57 -747,167 -206,110 -367,252 -479,425 -113,174 -199,370 -252,596 -52,220 -79,449 -79,685zm-45 -7923c0,-418 154,-780 459,-1089 306,-309 674,-465 1099,-465 418,0 783,153 1088,458 304,304 459,671 459,1096 0,417 -154,781 -459,1085 -305,305 -670,458 -1088,458 -418,0 -782,-153 -1092,-458 -309,-304 -466,-668 -466,-1085zm26952 9923l13 0 14 0 10 0 10 0 12 0 3199 0c112,0 222,12 324,37 100,25 197,76 276,152 84,79 148,196 189,355 41,160 62,378 62,658 0,494 -70,838 -207,1024 -139,187 -354,283 -644,283l-3205 0 -13 0 -13 0 -11 0 -10 0 -11 0c-21927,0 -21929,-2509 5,-2509zm11070 0c-40,-584 -135,-1117 -280,-1601 -145,-484 -368,-904 -666,-1252 -297,-345 -681,-618 -1146,-813 -465,-193 -1048,-290 -1743,-290 -236,0 -605,32 -1103,95 -502,63 -1007,170 -1521,319l0 -2530c335,-117 790,-237 1365,-367 574,-130 1168,-199 1779,-199 1140,0 2096,197 2874,587 778,390 1408,914 1886,1568 477,655 828,1413 1036,2276 209,859 314,1759 314,2694l0 2022 -10607 0c-111,0 -222,-13 -324,-33 -104,-22 -198,-70 -280,-153 -82,-81 -143,-202 -186,-363 -43,-158 -62,-377 -62,-653 0,-497 71,-839 208,-1027 139,-188 353,-280 644,-280l7812 0zm-2057 6124c0,-418 155,-783 458,-1085 304,-303 669,-458 1100,-458 417,0 778,153 1084,458 305,304 458,667 458,1085 0,417 -155,782 -458,1085 -304,303 -667,457 -1084,457 -423,0 -788,-154 -1096,-457 -307,-303 -462,-668 -462,-1085zm-36070 14268c-612,0 -1150,-87 -1615,-261 -466,-174 -786,-342 -964,-504 -15,1136 -160,2076 -438,2823 -276,748 -672,1351 -1189,1808 -514,458 -1139,781 -1874,969 -735,185 -1568,280 -2500,280 -3959,0 -5938,-1877 -5938,-5637l0 -2987 2813 0 0 2882c0,1012 269,1789 800,2330 535,537 1321,806 2369,806 1091,0 1899,-226 2413,-675 516,-451 774,-1220 774,-2313l0 -7230 2813 0 0 3702c0,465 124,831 375,1100 247,265 640,399 1182,399 419,0 783,-65 1088,-192 306,-127 458,-410 458,-853l0 -4156 2813 0 0 3702c0,508 92,886 277,1133 185,243 524,366 1011,366l1376 0 0 -6159 2816 0 0 8667 -3337 0c-418,0 -778,-28 -1077,-83 -298,-59 -552,-138 -767,-240 -214,-105 -390,-225 -528,-363 -138,-138 -258,-286 -357,-442 -363,421 -789,711 -1273,878 -487,167 -993,250 -1521,250zm19422 -1306c0,1012 -131,1887 -388,2620 -259,734 -670,1340 -1231,1819 -563,479 -1284,831 -2165,1056 -880,228 -1939,342 -3176,342l-673 0 0 -2658 502 0c789,0 1448,-55 1980,-155 527,-102 949,-244 1262,-425 312,-181 542,-396 688,-651 145,-250 233,-529 258,-834 -433,127 -965,192 -1597,192 -583,0 -1128,-73 -1638,-218 -505,-145 -946,-380 -1317,-708 -367,-326 -662,-747 -884,-1266 -218,-516 -331,-1136 -331,-1858 0,-582 98,-1158 294,-1725 197,-566 481,-1074 852,-1523 374,-451 837,-810 1393,-1076 553,-264 1194,-399 1918,-399 804,0 1478,138 2019,411 546,271 979,660 1307,1164 327,501 563,1097 710,1787 145,686 217,1444 217,2275l0 1830zm-5916 -3013c0,741 146,1238 437,1495 291,258 695,389 1204,389 583,0 1063,-102 1441,-309l0 -1063c0,-737 -109,-1325 -327,-1764 -215,-439 -608,-660 -1176,-660 -571,0 -974,188 -1215,562 -244,377 -364,828 -364,1350zm14380 4319c-193,0 -455,-43 -790,-134 -334,-87 -626,-276 -874,-566 -14,983 -131,1807 -345,2472 -218,661 -546,1198 -982,1604 -437,407 -990,701 -1655,872 -671,173 -1474,268 -2410,283l0 -2658c597,-14 1070,-83 1424,-210 348,-123 614,-306 789,-551 171,-244 283,-560 335,-948 50,-385 72,-850 72,-1387l0 -6486 2817 0 0 3702c0,567 171,959 516,1173 346,217 713,326 1103,326 112,0 222,11 324,37 105,25 196,76 279,152 81,80 143,196 186,355 43,161 62,378 62,658 0,494 -69,838 -207,1023 -139,189 -353,283 -644,283zm-4589 -11694c0,-418 154,-780 459,-1088 306,-308 673,-465 1099,-465 418,0 782,152 1088,457 305,305 458,671 458,1096 0,418 -153,782 -458,1086 -305,304 -670,458 -1088,458 -419,0 -783,-155 -1091,-458 -309,-305 -467,-668 -467,-1086zm4578 11694c-113,0 -222,-11 -324,-33 -105,-21 -196,-72 -281,-152 -79,-83 -141,-203 -185,-363 -44,-159 -62,-378 -62,-653 0,-497 70,-839 208,-1027 138,-189 353,-280 644,-280l3204 0 14 0 13 0 10 0 11 0 11 0 3199 0c113,0 222,11 324,37 101,25 196,76 277,152 83,80 145,196 188,355 41,161 62,378 62,658 0,494 -69,838 -207,1023 -138,189 -353,283 -644,283l-3204 0 -14 0 -13 0 -10 0 -11 0 -11 0 -3199 0zm13235 7731l-5248 744 0 -1041 5248 -744 0 1041zm-4258 -10239l0 -6159 2860 0 0 8667 -5375 0c-112,0 -221,-11 -323,-33 -106,-21 -196,-72 -281,-152 -79,-83 -141,-203 -186,-363 -43,-159 -62,-378 -62,-653 0,-497 71,-839 209,-1027 138,-189 353,-280 643,-280l2515 0zm-357 6102c0,-417 153,-781 459,-1085 305,-306 669,-458 1099,-458 418,0 778,152 1084,458 306,304 458,668 458,1085 0,417 -152,780 -458,1085 -306,305 -666,458 -1084,458 -422,0 -786,-153 -1096,-458 -309,-305 -462,-668 -462,-1085zm-32795 18799l1061 0c38,0 73,4 107,12 33,8 64,25 90,51 28,25 48,64 62,116 14,53 21,124 21,216 0,163 -23,275 -68,336 -45,62 -116,93 -212,93l-1043 0 -18 0 -1062 0c-36,0 -73,-4 -106,-11 -35,-7 -64,-23 -92,-49 -26,-28 -47,-67 -61,-120 -14,-52 -20,-124 -20,-214 0,-163 22,-276 68,-338 46,-62 116,-92 211,-92l1044 0 18 0zm3800 -506c0,-73 -8,-145 -23,-215 -18,-72 -44,-135 -80,-190 -36,-54 -84,-100 -144,-136 -59,-35 -132,-53 -219,-53 -63,0 -128,15 -194,46 -67,33 -131,83 -192,154 -62,71 -121,164 -176,278 -55,114 -100,258 -139,429 120,73 234,131 341,177 106,46 222,69 347,69 154,0 273,-51 355,-154 82,-103 124,-239 124,-405zm-2367 506c57,0 129,-48 213,-142 85,-93 158,-232 224,-414 106,-273 221,-498 345,-678 125,-179 253,-322 386,-429 132,-108 265,-183 397,-225 133,-44 265,-65 395,-65 187,0 362,35 524,108 163,72 303,172 419,300 117,128 209,283 275,465 66,182 100,380 100,594 0,429 -105,769 -315,1020 -211,252 -530,378 -960,378 -192,0 -384,-29 -577,-88 -195,-58 -399,-156 -614,-293 -123,137 -251,220 -381,249 -129,30 -270,44 -422,44l-381 0c-36,0 -73,-4 -107,-11 -34,-7 -64,-23 -91,-49 -27,-28 -47,-67 -61,-120 -14,-52 -20,-124 -20,-214 0,-163 22,-276 68,-338 45,-62 116,-92 211,-92l372 0zm4992 -4284l0 5108 -926 0 0 -5108 926 0zm-1728 -916c138,-132 261,-221 371,-264 110,-46 212,-67 308,-67 95,0 207,22 335,68 126,45 242,95 348,149 105,53 205,94 301,122 95,27 178,41 245,41 92,0 167,-34 223,-102 56,-69 97,-142 121,-218l371 163c-82,215 -175,378 -280,490 -105,111 -250,167 -435,167 -132,0 -257,-16 -373,-53 -115,-34 -228,-78 -337,-131 -105,-47 -206,-89 -302,-125 -95,-36 -185,-55 -266,-55 -68,0 -130,11 -188,32 -57,21 -129,63 -215,126l-227 -343zm10680 6024c-137,0 -276,-22 -414,-68 -139,-45 -251,-144 -339,-296 -58,83 -126,147 -204,196 -78,49 -163,86 -254,112 -92,23 -186,38 -284,45 -98,7 -195,11 -291,11l-3148 0c-283,0 -520,-20 -712,-60 -191,-41 -345,-108 -458,-198 -114,-91 -196,-208 -243,-351 -48,-143 -73,-317 -73,-522l0 -1182 932 0 0 1055c0,95 13,170 37,226 25,55 68,98 129,131 62,32 146,54 251,63 105,10 239,14 403,14l2732 0c163,0 277,-24 341,-75 64,-50 96,-163 96,-338l0 -1610 926 0 0 1531c0,177 37,302 111,377 75,77 230,115 462,115 38,0 74,4 107,12 35,8 64,25 92,51 26,25 46,64 61,116 14,53 20,124 20,216 0,163 -22,275 -68,336 -45,62 -116,93 -212,93zm-4613 -3677c0,-137 50,-255 150,-357 101,-101 222,-153 361,-153 139,0 258,50 358,150 101,101 151,221 151,360 0,138 -50,257 -151,357 -100,101 -219,150 -358,150 -137,0 -257,-49 -359,-150 -100,-100 -152,-219 -152,-357zm1170 0c0,-137 51,-255 151,-357 100,-101 219,-153 357,-153 138,0 258,50 359,150 102,101 152,221 152,360 0,138 -50,257 -151,357 -100,101 -219,150 -360,150 -138,0 -257,-49 -357,-150 -100,-100 -151,-219 -151,-357zm3440 3677c-36,0 -73,-4 -106,-11 -35,-7 -64,-23 -92,-49 -26,-28 -47,-67 -61,-120 -14,-52 -20,-124 -20,-214 0,-163 22,-276 68,-338 46,-62 116,-92 211,-92l1062 0c37,0 73,4 107,12 33,8 64,25 90,51 27,25 48,64 62,116 13,53 20,124 20,216 0,163 -22,275 -68,336 -44,62 -116,93 -211,93l-1062 0zm1062 0c-37,0 -73,-4 -107,-11 -35,-7 -64,-23 -91,-49 -27,-28 -47,-67 -61,-120 -15,-52 -21,-124 -21,-214 0,-163 23,-276 68,-338 46,-62 116,-92 212,-92l1061 0c38,0 73,4 107,12 33,8 64,25 90,51 28,25 48,64 62,116 14,53 21,124 21,216 0,163 -23,275 -68,336 -45,62 -116,93 -212,93l-1061 0zm1061 0c-36,0 -73,-4 -107,-11 -34,-7 -64,-23 -91,-49 -27,-28 -47,-67 -61,-120 -14,-52 -20,-124 -20,-214 0,-163 22,-276 68,-338 45,-62 116,-92 211,-92l1062 0c37,0 73,4 106,12 34,8 64,25 91,51 27,25 48,64 62,116 13,53 20,124 20,216 0,163 -22,275 -68,336 -45,62 -116,93 -211,93l-1062 0zm2732 -824c101,0 197,-20 288,-59 91,-39 136,-124 136,-248 0,-87 -54,-202 -161,-346 -108,-144 -250,-298 -427,-462 -178,-163 -379,-324 -603,-484 -224,-160 -451,-299 -682,-417 32,-159 71,-289 118,-392 47,-102 95,-184 142,-246 48,-61 95,-108 141,-140 44,-31 82,-54 110,-68l2503 -1100 0 957 -1694 703 0 21c286,186 524,369 711,551 186,182 336,359 449,529 112,172 190,334 233,489 42,155 64,301 64,436 0,114 -16,234 -48,363 -31,128 -92,248 -181,358 -91,111 -218,202 -384,273 -166,71 -382,106 -648,106l-1737 0c-37,0 -74,-4 -107,-11 -35,-7 -64,-23 -92,-49 -26,-28 -46,-67 -61,-120 -14,-52 -20,-124 -20,-214 0,-163 22,-276 68,-338 46,-62 116,-92 212,-92l1670 0zm4169 824c-64,0 -149,-14 -260,-44 -110,-29 -206,-90 -287,-186 -4,324 -43,595 -114,813 -71,217 -179,393 -322,527 -143,133 -325,230 -544,286 -219,57 -484,88 -792,93l0 -873c196,-5 352,-27 468,-69 115,-41 202,-100 259,-181 57,-81 94,-184 111,-312 16,-127 23,-279 23,-455l0 -2132 925 0 0 1217c0,186 57,314 170,385 114,71 235,107 363,107 37,0 72,4 106,12 34,8 65,25 92,51 27,25 47,64 61,116 15,53 21,124 21,216 0,163 -24,275 -68,336 -46,62 -116,93 -212,93zm-4 0c-37,0 -73,-4 -107,-11 -34,-7 -64,-23 -91,-49 -27,-28 -47,-67 -61,-120 -14,-52 -21,-124 -21,-214 0,-163 23,-276 69,-338 45,-62 115,-92 211,-92l1044 0 17 0 1045 0 17 0 1044 0 17 0 1044 0 18 0 1044 0 17 0 1044 0 17 0 1044 0 18 0 293 0c106,0 194,-2 262,-7 69,-4 125,-18 167,-42 44,-23 75,-58 95,-103 20,-46 31,-109 31,-191l0 -1366 918 0 0 1217c0,152 40,273 124,361 82,87 213,131 390,131 138,0 256,-21 356,-63 99,-42 148,-135 148,-280l0 -1366 931 0 0 1217c0,328 143,492 424,492l446 0 0 -2023 931 0 0 2847 -1096 0c-255,0 -446,-29 -576,-89 -130,-60 -238,-153 -328,-282 -72,93 -149,162 -231,210 -81,49 -166,86 -252,112 -86,23 -172,37 -254,42 -83,5 -163,7 -240,7 -243,0 -447,-39 -613,-119 -166,-78 -283,-162 -355,-252 -127,169 -294,272 -501,312 -207,39 -471,59 -791,59l-262 0 -17 0c-2117,0 -4234,0 -6351,0l-18 0 -1061 0zm9551 -4085c0,-136 51,-256 152,-358 99,-101 220,-152 361,-152 137,0 257,50 357,150 100,101 151,222 151,360 0,137 -51,257 -151,357 -100,101 -220,151 -357,151 -139,0 -257,-50 -359,-151 -102,-100 -154,-220 -154,-357zm1172 0c0,-136 49,-256 150,-358 101,-101 219,-152 358,-152 137,0 256,50 358,150 101,101 152,222 152,360 0,137 -51,257 -151,357 -100,101 -220,151 -359,151 -139,0 -257,-50 -358,-151 -101,-100 -150,-220 -150,-357zm-569 -1037c0,-137 50,-257 151,-358 100,-101 221,-152 361,-152 138,0 257,50 357,150 101,100 151,220 151,360 0,137 -50,257 -151,357 -100,99 -219,150 -357,150 -138,0 -257,-51 -358,-150 -102,-100 -154,-220 -154,-357zm-49402 -4354c-185,0 -287,-95 -287,-286 0,-119 24,-201 68,-243 44,-41 118,-65 219,-65l293 0c59,0 120,-9 181,-21 60,-12 125,-46 185,-92 60,-46 126,-115 183,-198 58,-81 119,-198 170,-339 109,-303 227,-553 347,-740 120,-187 247,-335 373,-436 126,-101 257,-173 388,-206 132,-34 263,-50 392,-50 177,0 344,36 498,102 154,67 292,169 402,294 110,125 202,278 264,451 63,172 95,368 95,585 0,416 -97,742 -293,981 -197,238 -503,358 -917,358 -230,0 -459,-41 -686,-116 -225,-75 -462,-205 -705,-387 -63,95 -128,171 -191,225 -63,53 -133,97 -206,122 -70,26 -148,44 -222,50 -75,5 -160,11 -243,11l-308 0zm3177 -1265c0,-104 -17,-208 -46,-309 -29,-99 -76,-191 -136,-266 -59,-74 -136,-138 -219,-181 -84,-44 -186,-68 -301,-68 -200,0 -386,89 -553,266 -167,174 -325,487 -473,929 178,114 355,207 528,276 173,68 352,104 535,104 200,0 363,-58 483,-170 120,-113 182,-307 182,-581zm2952 958c0,119 -23,200 -68,242 -45,43 -121,65 -219,65l-186 0c-151,0 -296,-17 -420,-47 -125,-31 -234,-87 -323,-161 -87,-74 -158,-179 -207,-304 -49,-126 -76,-286 -76,-476l0 -4120 588 0 0 3962c0,197 34,344 95,426 62,83 202,126 417,126l112 0c191,0 287,95 287,287zm-287 307c-185,0 -286,-95 -286,-286 0,-119 24,-201 68,-243 43,-41 118,-65 218,-65l883 0c-87,-90 -160,-208 -216,-350 -56,-143 -85,-307 -85,-488 0,-247 47,-461 140,-643 94,-181 216,-332 366,-451 151,-119 319,-208 501,-264 182,-54 368,-85 555,-85 168,0 317,10 440,28 124,17 213,39 264,63l0 638c-91,-27 -190,-54 -294,-75 -104,-21 -236,-33 -388,-33 -302,0 -543,75 -718,222 -175,146 -264,351 -264,607 0,242 77,443 226,598 150,153 384,233 699,233l1048 0 0 594 -3157 0zm7054 0c-159,0 -292,-36 -396,-106 -103,-69 -183,-155 -234,-251 0,343 -20,634 -61,869 -40,236 -121,429 -233,573 -114,144 -275,252 -473,314 -200,63 -462,97 -785,97l0 -594c234,0 418,-26 549,-75 130,-48 231,-133 295,-244 64,-109 107,-256 117,-429 10,-173 16,-385 16,-632l0 -1919 583 0 0 1017c0,239 43,434 132,575 88,141 252,211 490,211 192,0 287,95 287,287 0,119 -25,201 -68,242 -44,42 -119,65 -219,65zm-3 0c-185,0 -287,-95 -287,-286 0,-119 24,-201 68,-243 44,-41 118,-65 219,-65l1118 0 0 -2159 588 0 0 2753 -1706 0zm294 1079c0,-104 38,-194 112,-266 73,-72 164,-110 269,-110 105,0 195,37 268,110 74,74 111,162 111,266 0,106 -39,196 -111,270 -72,72 -163,113 -268,113 -105,0 -194,-39 -269,-113 -75,-75 -112,-164 -112,-270zm931 0c0,-104 38,-193 113,-266 74,-73 164,-110 270,-110 104,0 194,37 267,110 74,73 110,162 110,266 0,106 -36,196 -110,270 -73,74 -163,113 -267,113 -106,0 -196,-39 -270,-113 -75,-74 -113,-164 -113,-270zm4338 -1079c-196,0 -362,-42 -494,-122 -131,-80 -268,-228 -403,-437 -54,128 -124,233 -205,308 -82,74 -176,134 -279,169 -103,36 -211,60 -325,68 -113,8 -232,14 -344,14l-1092 0 0 -594 1285 0c201,0 356,-26 463,-75 106,-49 160,-123 160,-218 0,-90 -25,-182 -72,-273 -46,-91 -106,-189 -177,-294l-762 -1121 553 -345 861 1424c96,157 181,297 251,410 69,113 141,208 205,278 63,69 129,126 187,160 58,36 122,54 188,54 191,0 286,95 286,287 0,119 -23,200 -68,242 -44,43 -118,65 -218,65zm0 0c-185,0 -287,-95 -287,-286 0,-119 24,-201 68,-243 44,-41 118,-65 219,-65l294 0c59,0 120,-9 181,-21 59,-12 125,-46 185,-92 60,-46 125,-115 183,-198 57,-81 118,-198 169,-339 109,-303 227,-553 347,-740 120,-187 247,-335 373,-436 126,-101 257,-173 388,-206 132,-34 263,-50 392,-50 177,0 344,36 498,102 155,67 292,169 402,294 110,125 202,278 264,451 63,172 95,368 95,585 0,416 -97,742 -293,981 -197,238 -503,358 -917,358 -230,0 -459,-41 -686,-116 -225,-75 -462,-205 -705,-387 -63,95 -128,171 -191,225 -63,53 -133,97 -206,122 -70,26 -148,44 -222,50 -74,5 -160,11 -243,11l-308 0zm3177 -1265c0,-104 -17,-208 -46,-309 -28,-99 -76,-191 -136,-266 -59,-74 -135,-138 -219,-181 -84,-44 -186,-68 -301,-68 -200,0 -386,89 -553,266 -167,174 -325,487 -473,929 178,114 355,207 528,276 173,68 352,104 535,104 200,0 363,-58 483,-170 120,-113 182,-307 182,-581zm3783 1265c-187,0 -361,-23 -521,-65 -158,-41 -300,-114 -417,-211 -116,-96 -212,-228 -280,-389 -68,-160 -103,-362 -103,-600 0,-191 33,-380 93,-562 61,-183 153,-348 271,-491 118,-143 269,-259 444,-344 178,-85 382,-130 610,-130 255,0 471,48 644,140 172,91 313,222 418,387 104,164 183,361 226,586 44,226 68,481 68,750l0 671c0,356 -48,653 -143,877 -94,225 -235,406 -410,535 -174,131 -395,224 -651,270 -255,46 -549,72 -866,72l-302 0 0 -594 221 0c229,0 437,-10 626,-28 190,-19 353,-61 489,-129 137,-68 246,-168 320,-293 74,-127 114,-303 114,-522l0 -136c-87,53 -199,102 -337,143 -138,42 -309,63 -514,63zm-747 -1330c0,272 75,467 219,583 143,116 341,175 584,175 182,0 342,-26 481,-73 137,-46 243,-99 314,-155l0 -266c0,-162 -15,-318 -39,-459 -24,-142 -71,-267 -131,-368 -61,-101 -144,-185 -244,-243 -101,-59 -223,-89 -367,-89 -148,0 -273,29 -375,86 -103,56 -188,129 -252,215 -63,85 -115,181 -145,285 -29,105 -45,208 -45,309zm12196 1330c-186,0 -336,-44 -448,-133 -112,-88 -187,-198 -228,-332 -43,100 -102,181 -179,240 -77,59 -160,107 -244,139 -83,32 -170,59 -249,68 -80,10 -153,18 -210,18 -160,0 -293,-16 -398,-44 -104,-28 -197,-67 -268,-110 -71,-42 -130,-95 -170,-150 -40,-54 -73,-109 -96,-161 -86,196 -218,323 -391,379 -172,56 -372,86 -593,86 -293,0 -507,-35 -638,-102 -132,-67 -227,-151 -280,-248l0 263c0,621 -173,1076 -516,1353 -344,277 -828,415 -1450,415 -660,0 -1156,-146 -1481,-436 -326,-289 -490,-716 -490,-1272l0 -1104 581 0 0 981c0,224 32,424 90,583 59,160 149,292 264,387 115,95 265,169 441,210 176,41 381,64 609,64 238,0 447,-18 617,-49 171,-31 314,-94 427,-185 113,-90 197,-216 247,-365 51,-151 80,-350 80,-589l0 -2303 581 0 0 1017c0,116 9,229 26,325 16,97 53,182 105,247 51,64 132,120 237,157 103,38 246,57 423,57 91,0 175,-6 248,-14 70,-8 133,-33 181,-68 48,-36 88,-89 113,-157 25,-66 40,-163 40,-282l0 -1282 585 0 0 1017c0,116 10,227 30,325 19,97 55,182 104,247 48,64 123,120 213,157 88,38 208,57 350,57 77,0 149,-6 215,-14 65,-8 123,-35 168,-68 45,-35 82,-89 109,-157 26,-68 40,-163 40,-282l0 -1638 588 0 0 1373c0,116 10,227 25,325 16,97 48,182 93,247 43,64 110,120 190,157 77,38 183,57 309,57 191,0 287,95 287,287 0,119 -24,200 -68,242 -45,43 -118,65 -219,65zm4 0c-185,0 -287,-95 -287,-286 0,-119 25,-201 69,-243 43,-41 117,-65 218,-65l1043 0 18 0 18 0 1026 0 18 0 17 0 235 0c160,0 293,-5 401,-14 107,-9 198,-34 262,-68 63,-34 113,-89 139,-157 27,-66 42,-163 42,-282l0 -1289 588 0 0 1024c0,116 10,229 23,325 14,97 51,182 101,247 51,64 129,120 223,157 94,38 227,57 393,57 104,0 198,-6 277,-14 76,-8 146,-34 197,-68 51,-34 92,-89 117,-157 26,-68 40,-163 40,-282l0 -1282 587 0 0 1017c0,116 11,229 27,325 16,97 50,182 94,247 44,64 109,119 190,157 80,39 184,57 309,57l602 0 0 -2159 586 0 0 2753 -1188 0c-183,0 -337,-44 -450,-133 -113,-88 -189,-198 -225,-332 -87,196 -224,323 -403,379 -181,56 -402,86 -659,86 -168,0 -306,-14 -413,-40 -106,-27 -199,-63 -269,-107 -69,-41 -128,-96 -167,-153 -39,-57 -75,-115 -104,-172 -42,100 -97,182 -160,240 -64,58 -152,109 -252,143 -102,35 -232,62 -380,71 -150,10 -335,18 -542,18l-220 0 -18 0 -17 0 -1026 0 -19 0 -17 0 -1044 0zm11108 0c-18,291 -79,532 -182,723 -103,192 -245,346 -421,458 -176,112 -389,198 -633,243 -244,47 -523,72 -821,72l-302 0 0 -594 222 0c220,0 425,-13 613,-33 187,-19 352,-63 488,-128 136,-65 246,-158 323,-272 76,-115 119,-273 124,-469l-809 0c-193,0 -377,-22 -541,-65 -164,-42 -309,-114 -431,-211 -120,-96 -219,-226 -288,-382 -68,-155 -102,-353 -102,-586 0,-195 32,-388 95,-572 63,-187 160,-354 281,-495 121,-142 271,-258 445,-348 174,-89 373,-133 597,-133 247,0 457,44 630,133 173,90 315,215 421,376 107,160 186,360 233,588 46,228 72,486 72,766l0 335 504 0c192,0 287,95 287,287 0,119 -24,201 -68,242 -45,42 -121,65 -219,65l-518 0zm-2186 -1303c0,242 72,422 211,537 138,113 346,172 619,172l767 0 0 -472c0,-358 -61,-643 -178,-847 -118,-207 -325,-312 -617,-312 -137,0 -258,30 -358,82 -98,53 -184,128 -248,214 -64,88 -115,188 -147,298 -33,109 -49,218 -49,328zm2700 1303c-185,0 -286,-95 -286,-286 0,-119 24,-201 68,-243 43,-41 118,-65 218,-65l294 0c59,0 120,-9 181,-21 60,-12 125,-46 185,-92 60,-46 125,-115 183,-198 58,-81 119,-198 170,-339 109,-303 227,-553 347,-740 120,-187 247,-335 373,-436 126,-101 257,-173 388,-206 131,-34 262,-50 391,-50 177,0 345,36 499,102 154,67 291,169 401,294 111,125 202,278 264,451 64,172 96,368 96,585 0,416 -98,742 -294,981 -196,238 -502,358 -917,358 -230,0 -458,-41 -685,-116 -226,-75 -463,-205 -706,-387 -63,95 -128,171 -191,225 -63,53 -133,97 -205,122 -70,26 -148,44 -223,50 -74,5 -159,11 -243,11l-308 0zm3177 -1265c0,-104 -16,-208 -45,-309 -29,-99 -77,-191 -137,-266 -59,-74 -135,-138 -218,-181 -85,-44 -186,-68 -301,-68 -200,0 -386,89 -553,266 -167,174 -326,487 -473,929 178,114 355,207 528,276 173,68 351,104 534,104 201,0 363,-58 483,-170 120,-113 182,-307 182,-581zm-52236 9777c0,377 -45,691 -137,939 -90,250 -220,451 -390,603 -169,154 -377,262 -623,328 -246,64 -523,97 -829,97 -1300,0 -1951,-618 -1951,-1855l0 -1121 924 0 0 1086c0,333 84,588 249,765 166,177 435,265 805,265 351,0 611,-74 780,-222 170,-147 255,-400 255,-759l0 -1925 925 0 -8 1799zm-2447 -2198c0,-137 51,-255 152,-357 99,-101 220,-153 361,-153 137,0 257,50 357,150 100,101 151,221 151,360 0,138 -51,257 -151,357 -100,101 -220,150 -357,150 -138,0 -257,-49 -359,-150 -102,-100 -154,-219 -154,-357zm5925 2733c0,333 -43,620 -128,861 -85,241 -220,441 -404,598 -185,157 -422,273 -711,347 -290,75 -637,112 -1044,112l-222 0 0 -873 166 0c259,0 476,-18 650,-52 173,-33 312,-80 414,-139 104,-59 179,-130 227,-214 48,-82 76,-174 84,-273 -142,41 -316,62 -524,62 -191,0 -371,-24 -538,-72 -167,-47 -311,-124 -433,-232 -121,-107 -218,-245 -291,-416 -71,-169 -109,-373 -109,-610 0,-192 33,-381 97,-567 65,-186 159,-353 281,-501 123,-148 274,-266 457,-353 182,-87 393,-131 630,-131 265,0 485,45 664,134 179,90 322,218 429,383 108,165 185,360 233,588 48,225 72,474 72,747l0 601zm-1945 -989c0,242 48,406 145,490 95,86 228,128 395,128 191,0 349,-33 473,-101l0 -350c0,-241 -36,-435 -107,-579 -71,-144 -200,-217 -386,-217 -188,0 -320,62 -400,184 -80,124 -120,272 -120,445zm3261 -1115l932 0 0 2132c0,342 -26,633 -78,873 -53,240 -146,434 -276,581 -131,148 -312,257 -545,326 -231,68 -528,105 -887,110l0 -873c192,-5 345,-27 460,-69 116,-41 203,-100 260,-181 58,-81 93,-184 110,-312 17,-127 24,-279 24,-455l0 -2132zm-72 -1552c0,-136 50,-256 151,-358 100,-101 221,-152 361,-152 137,0 257,50 357,150 101,101 151,222 151,360 0,137 -50,257 -151,357 -100,101 -220,151 -357,151 -137,0 -257,-50 -359,-151 -101,-100 -153,-220 -153,-357zm3557 3656c0,163 -22,275 -68,336 -45,62 -116,93 -212,93l-301 0c-163,0 -313,-18 -448,-53 -135,-37 -252,-97 -351,-179 -97,-82 -174,-194 -228,-331 -56,-139 -84,-311 -84,-516l0 -4029 933 0 0 3900c0,167 30,273 89,318 59,44 144,66 254,66l136 0c38,0 74,4 107,12 35,8 64,25 92,51 26,25 46,64 61,116 15,53 20,124 20,216zm-287 429c-36,0 -73,-4 -107,-11 -34,-7 -64,-23 -91,-49 -26,-28 -47,-67 -61,-120 -14,-52 -20,-124 -20,-214 0,-163 22,-276 68,-338 45,-62 116,-92 211,-92l1062 0c37,0 73,4 106,12 34,8 64,25 91,51 27,25 48,64 62,116 13,53 20,124 20,216 0,163 -22,275 -68,336 -45,62 -116,93 -211,93l-1062 0zm1062 0c-37,0 -74,-4 -107,-11 -35,-7 -64,-23 -92,-49 -26,-28 -46,-67 -61,-120 -14,-52 -20,-124 -20,-214 0,-163 22,-276 68,-338 46,-62 116,-92 212,-92l1061 0c38,0 73,4 107,12 33,8 64,25 90,51 28,25 48,64 62,116 13,53 21,124 21,216 0,163 -23,275 -69,336 -44,62 -115,93 -211,93l-1061 0zm1061 0c-37,0 -73,-4 -107,-11 -34,-7 -64,-23 -91,-49 -27,-28 -47,-67 -61,-120 -15,-52 -21,-124 -21,-214 0,-163 23,-276 68,-338 46,-62 116,-92 212,-92l1061 0c38,0 74,4 107,12 34,8 64,25 91,51 27,25 47,64 62,116 13,53 20,124 20,216 0,163 -22,275 -68,336 -45,62 -116,93 -212,93l-1061 0zm1061 0c-36,0 -73,-4 -106,-11 -35,-7 -64,-23 -92,-49 -26,-28 -47,-67 -61,-120 -14,-52 -20,-124 -20,-214 0,-163 22,-276 68,-338 46,-62 116,-92 211,-92l1062 0c37,0 73,4 106,12 34,8 64,25 91,51 27,25 48,64 62,116 13,53 20,124 20,216 0,163 -22,275 -68,336 -45,62 -116,93 -211,93l-1062 0zm1062 0c-37,0 -74,-4 -107,-11 -35,-7 -64,-23 -92,-49 -26,-28 -46,-67 -61,-120 -14,-52 -20,-124 -20,-214 0,-163 22,-276 68,-338 46,-62 116,-92 212,-92l1061 0c38,0 73,4 107,12 33,8 64,25 90,51 28,25 48,64 62,116 14,53 21,124 21,216 0,163 -23,275 -68,336 -45,62 -116,93 -212,93l-1061 0zm1061 0c-37,0 -73,-4 -107,-11 -34,-7 -64,-23 -91,-49 -27,-28 -47,-67 -61,-120 -14,-52 -21,-124 -21,-214 0,-163 23,-276 69,-338 45,-62 115,-92 211,-92l1061 0c38,0 74,4 107,12 34,8 64,25 91,51 27,25 47,64 62,116 13,53 20,124 20,216 0,163 -22,275 -68,336 -45,62 -116,93 -212,93l-1061 0z"/>
  </g>
 </g>
</svg>
