<?xml version="1.0" encoding="UTF-8"?>
<!DOCTYPE svg PUBLIC "-//W3C//DTD SVG 1.1//EN" "http://www.w3.org/Graphics/SVG/1.1/DTD/svg11.dtd">
<!-- Creator: CorelDRAW X7 -->
<svg xmlns="http://www.w3.org/2000/svg" xml:space="preserve" width="100%" height="100%" version="1.1" style="shape-rendering:geometricPrecision; text-rendering:geometricPrecision; image-rendering:optimizeQuality; fill-rule:evenodd; clip-rule:evenodd"
viewBox="0 0 33132 22946"
 xmlns:xlink="http://www.w3.org/1999/xlink">
 <defs>
  <style type="text/css">
   <![CDATA[
    .fil0 {fill:none}
    .fil25 {fill:#DABA76}
    .fil21 {fill:#D5B682}
    .fil27 {fill:#E6ADAD}
    .fil26 {fill:#D097A9}
    .fil28 {fill:#C086A6}
    .fil20 {fill:#A6B7DE}
    .fil3 {fill:#C1C6FF}
    .fil2 {fill:#DADAFF}
    .fil24 {fill:#E4BD79}
    .fil1 {fill:#E7E7FF}
    .fil23 {fill:#FCD682}
    .fil12 {fill:#FDE7DB;fill-rule:nonzero}
    .fil4 {fill:#FDDFD1;fill-rule:nonzero}
    .fil11 {fill:#FCD9C8;fill-rule:nonzero}
    .fil19 {fill:#D2AE6D;fill-rule:nonzero}
    .fil18 {fill:#E3C582;fill-rule:nonzero}
    .fil16 {fill:#E4BD79;fill-rule:nonzero}
    .fil10 {fill:#EBB3A9;fill-rule:nonzero}
    .fil9 {fill:#EAAEA4;fill-rule:nonzero}
    .fil15 {fill:#C9A374;fill-rule:nonzero}
    .fil14 {fill:#EABCB9;fill-rule:nonzero}
    .fil13 {fill:#E6ADAD;fill-rule:nonzero}
    .fil8 {fill:#A5A5FF;fill-rule:nonzero}
    .fil29 {fill:#C6C6FF;fill-rule:nonzero}
    .fil6 {fill:#F2D394;fill-rule:nonzero}
    .fil22 {fill:#F4CD7D;fill-rule:nonzero}
    .fil17 {fill:#FCD682;fill-rule:nonzero}
    .fil5 {fill:white;fill-rule:nonzero}
    .fil7 {fill:white;fill-rule:nonzero}
   ]]>
  </style>
 </defs>
 <g id="Layer_x0020_1">
  <metadata id="CorelCorpID_0Corel-Layer"/>
  <g id="_1529503321680">
   <rect class="fil0" width="33132" height="22946"/>
   <g>
    <g>
     <circle class="fil1" transform="matrix(-0.272794 -0.237592 0.237592 -0.272795 24006.9 16463)" r="9796"/>
     <circle class="fil2" transform="matrix(-0.205637 -0.1791 0.1791 -0.205637 24664.8 17036)" r="9796"/>
    </g>
    <circle class="fil2" transform="matrix(0.817563 0.712061 -0.712061 0.817564 11587.2 12277.4)" r="9796"/>
    <circle class="fil3" transform="matrix(0.616292 0.536763 -0.536763 0.616292 9615.6 10560.2)" r="9796"/>
    <path class="fil4" d="M4060 11695c6,-52 -16,-106 -46,-149 -32,-43 -70,-80 -111,-112 -42,-31 -85,-58 -131,-83 -45,-25 -91,-46 -139,-64 -48,-19 -96,-35 -146,-50 -49,-14 -100,-25 -152,-33 -52,-8 -105,-14 -163,-13 -29,1 -60,3 -94,10 -19,5 -23,5 -42,11 -16,4 -29,9 -43,14 -55,20 -108,47 -158,84 -50,37 -102,83 -136,167 -15,42 -23,98 -9,150 14,53 43,94 72,123 28,30 61,51 82,64 36,21 68,34 108,44 40,9 86,11 132,0 46,-10 88,-33 120,-61 66,-57 98,-127 112,-193 14,-68 13,-135 -3,-201 -15,-65 -51,-129 -102,-177l5 5c-56,-59 -121,-103 -189,-130 -35,-13 -69,-24 -104,-31 -35,-8 -69,-14 -104,-16 -35,-2 -69,-2 -103,0 -34,3 -68,7 -101,15 -66,14 -129,38 -184,75l-1 1c-4,2 -5,7 -2,10 2,3 5,4 9,3 58,-22 120,-34 182,-37 62,-4 124,1 185,13 61,12 121,31 176,59 54,28 104,66 143,114l0 0 0 0c31,34 52,77 61,123 9,46 7,93 -4,138 -12,45 -35,87 -69,116 -35,29 -81,38 -125,27 -21,-5 -43,-15 -62,-26 -21,-12 -40,-24 -56,-41 -16,-15 -28,-34 -34,-54 -5,-21 -3,-43 4,-63 15,-42 48,-78 84,-107 37,-30 79,-54 122,-72 22,-9 44,-17 67,-23 23,-6 46,-10 70,-11 47,-4 95,-2 143,3 96,9 191,29 283,56 92,28 183,63 265,112 41,24 81,52 113,87 32,34 57,77 60,124 0,4 3,7 7,7 4,0 7,-3 7,-7l1 -1z"/>
    <path class="fil4" d="M8323 11973c19,-30 58,-39 87,-20 30,19 39,58 20,88 -18,30 -57,39 -87,20 -29,-18 -38,-58 -20,-88z"/>
    <path class="fil4" d="M12071 11852c19,-30 58,-39 87,-21 30,19 39,58 21,88 -19,30 -58,40 -87,21 -30,-19 -39,-58 -21,-88z"/>
    <path class="fil5" d="M14802 11010c19,-30 58,-39 87,-21 30,19 39,58 20,88 -18,30 -57,39 -87,21 -29,-19 -38,-58 -20,-88z"/>
    <path class="fil4" d="M10402 3629c19,-30 58,-39 87,-20 30,19 39,58 20,88 -18,30 -57,39 -87,20 -29,-18 -38,-58 -20,-88z"/>
    <path class="fil4" d="M11741 2965c19,-30 58,-39 87,-20 30,18 39,58 21,88 -19,30 -58,39 -88,20 -29,-19 -38,-58 -20,-88z"/>
    <path class="fil6" d="M12442 10450c19,-30 58,-39 87,-20 30,18 39,58 21,88 -19,30 -58,39 -88,20 -29,-19 -38,-58 -20,-88z"/>
    <path class="fil7" d="M18325 13944c-229,-8 -413,-196 -414,-429l-4 0c-1,233 -185,421 -414,429 230,7 414,197 415,431l3 0c0,-234 184,-424 414,-431z"/>
    <path class="fil8" d="M3831 14780c0,308 1380,557 3083,557 1703,0 3083,-249 3083,-557 0,-307 -1380,-556 -3083,-556 -1703,0 -3083,249 -3083,556z"/>
    <polygon class="fil9" points="6055,14534 6055,14534 6155,13583 5571,13565 5648,14521 "/>
    <polygon class="fil10" points="9123,14510 9123,14510 9233,13280 8648,13262 8716,14497 "/>
    <polygon class="fil11" points="5422,14780 5422,14780 5579,13299 4669,13271 4788,14761 "/>
    <polygon class="fil11" points="8515,14780 8515,14780 8672,13299 7761,13271 7881,14761 "/>
    <path class="fil12" d="M3510 11054c-155,1656 1220,3138 3071,3311 1851,173 3476,-1030 3631,-2685 154,-1657 -1221,-3139 -3071,-3312 -1851,-172 -3477,1030 -3631,2686z"/>
    <path class="fil13" d="M7784 8807c0,0 -901,-318 -1989,-15l17 260c0,0 884,-295 1964,18l8 -263z"/>
    <path class="fil11" d="M9735 10015c0,0 396,-994 127,-1084 -269,-90 -815,255 -815,255l688 829z"/>
    <path class="fil14" d="M8133 10254c0,0 381,-872 207,-959 -174,-87 -766,141 -1029,275 0,0 673,244 822,684z"/>
    <path class="fil15" d="M9418 10767c-2,70 54,129 124,131 71,3 130,-53 132,-123l8 -256c2,-70 -54,-129 -124,-131 -71,-3 -130,53 -132,123l-8 256z"/>
    <path class="fil15" d="M8554 11045c-2,70 53,129 124,131 70,3 129,-53 131,-123l8 -256c2,-70 -53,-129 -123,-131 -71,-3 -130,53 -132,123l-8 256z"/>
    <path class="fil14" d="M8702 11948c-14,439 135,800 861,878 384,41 511,-226 524,-665 14,-439 685,-976 -312,-1007 -709,-22 -1060,355 -1073,794z"/>
    <path class="fil11" d="M9080 12003c-15,480 334,880 779,894 446,14 819,-364 834,-844 15,-480 -334,-881 -780,-894 -445,-14 -818,364 -833,844z"/>
    <path class="fil14" d="M10296 11939c-17,-68 -86,-110 -154,-93 -68,17 -110,85 -93,153 17,68 85,110 153,94 69,-17 110,-86 94,-154z"/>
    <path class="fil14" d="M9806 12059c-16,-68 -85,-110 -153,-93 -68,16 -110,85 -93,153 16,68 85,110 153,93 68,-17 110,-85 93,-153z"/>
    <path class="fil16" d="M7549 8344c0,-432 -350,-782 -782,-782 -432,0 -782,350 -782,782 0,432 350,782 782,782 432,0 782,-350 782,-782z"/>
    <path class="fil17" d="M7440 8287c0,-432 -350,-782 -782,-782 -432,0 -782,350 -782,782 0,432 350,782 782,782 432,0 782,-350 782,-782z"/>
    <path class="fil18" d="M6429 8479l200 3 0 34c-1,35 1,58 6,69 4,11 14,17 29,17 12,0 22,-4 28,-14 6,-9 9,-23 10,-42 0,-31 -6,-53 -18,-66 -12,-13 -48,-38 -107,-76 -50,-31 -85,-55 -103,-72 -18,-17 -33,-40 -45,-70 -13,-31 -18,-68 -18,-113 2,-71 20,-127 55,-167 35,-40 87,-64 156,-73l2 -75 92 1 -2 78c54,7 100,28 140,65 39,36 58,99 57,189l-1 39 -201 -4 1 -49c1,-54 0,-87 -4,-101 -4,-13 -14,-19 -30,-20 -13,0 -24,4 -30,13 -7,9 -11,23 -11,41 -1,45 2,77 8,96 6,20 27,41 63,65 61,39 102,68 123,87 22,18 41,44 56,77 16,33 23,70 22,111 -1,60 -19,107 -53,140 -35,34 -86,54 -154,61l-1 64 -92 -2 1 -64c-62,-9 -108,-30 -138,-65 -30,-34 -45,-80 -44,-140 0,-8 1,-20 3,-37z"/>
    <path class="fil19" d="M6429 8448l200 4 0 33c-1,36 1,59 6,70 4,11 14,17 29,17 12,0 22,-5 28,-14 6,-9 9,-23 10,-42 0,-32 -6,-54 -18,-66 -12,-13 -48,-38 -107,-76 -50,-31 -85,-56 -103,-72 -18,-17 -33,-41 -45,-71 -13,-30 -18,-67 -18,-112 2,-71 20,-127 55,-167 35,-40 87,-65 156,-73l2 -75 92 1 -2 78c54,6 100,28 140,64 39,37 58,100 57,189l-1 40 -201 -4 1 -49c1,-54 0,-88 -4,-101 -4,-13 -14,-20 -30,-20 -13,0 -24,4 -30,13 -7,9 -11,23 -11,41 -1,44 2,77 8,96 6,20 27,41 63,65 61,39 102,68 123,86 22,19 41,45 56,78 16,33 23,70 22,111 -1,60 -19,107 -53,140 -35,34 -86,54 -154,61l-1 64 -92 -2 1 -64c-62,-9 -108,-31 -138,-65 -30,-34 -45,-81 -44,-140 0,-8 1,-21 3,-38z"/>
    <polygon class="fil20" points="7523,5408 7549,5463 7530,5451 "/>
    <path class="fil16" d="M5895 4842c0,-432 350,-782 782,-782 432,0 782,350 782,782 0,432 -350,782 -782,782 -432,0 -782,-350 -782,-782z"/>
    <path class="fil17" d="M6005 4785c0,-432 350,-782 782,-782 432,0 782,350 782,782 0,432 -350,782 -782,782 -432,0 -782,-350 -782,-782z"/>
    <path class="fil18" d="M6551 4968l201 3 -1 33c0,36 2,59 6,70 4,11 14,17 30,17 12,0 21,-5 27,-14 7,-9 10,-23 10,-42 1,-32 -5,-54 -17,-66 -12,-13 -48,-38 -107,-76 -51,-31 -85,-56 -103,-72 -19,-17 -34,-41 -46,-71 -12,-30 -18,-67 -17,-112 1,-71 19,-127 54,-167 36,-40 88,-65 157,-73l1 -75 92 1 -1 78c53,6 100,28 139,64 40,37 59,100 57,189l-1 40 -200 -4 1 -49c1,-54 -1,-88 -5,-101 -4,-13 -14,-20 -29,-20 -14,0 -24,4 -31,13 -7,9 -10,23 -11,41 0,44 2,77 8,96 6,20 27,41 64,65 60,39 101,68 123,86 22,19 40,45 56,78 15,33 22,70 22,111 -1,60 -19,107 -54,140 -34,34 -85,54 -153,61l-1 64 -93 -2 1 -64c-61,-9 -107,-31 -138,-65 -30,-34 -44,-81 -43,-140 0,-8 1,-21 2,-37z"/>
    <path class="fil19" d="M6551 4937l201 4 -1 33c0,35 2,59 6,70 4,11 14,16 30,17 12,0 21,-5 27,-14 7,-9 10,-23 10,-42 1,-32 -5,-54 -17,-67 -12,-13 -48,-38 -107,-75 -51,-32 -85,-56 -103,-73 -19,-16 -34,-40 -46,-70 -12,-30 -18,-68 -17,-112 1,-72 19,-127 54,-167 36,-41 88,-65 157,-73l1 -76 92 2 -1 78c53,6 100,28 139,64 40,37 59,100 57,189l-1 39 -200 -3 1 -49c1,-54 -1,-88 -5,-101 -4,-13 -14,-20 -29,-20 -14,0 -24,4 -31,13 -7,9 -10,22 -11,40 0,45 2,77 8,97 6,19 27,41 64,64 60,40 101,69 123,87 22,19 40,44 56,77 15,33 22,71 22,112 -1,60 -19,107 -54,140 -34,34 -85,54 -153,60l-1 64 -93 -1 1 -64c-61,-9 -107,-31 -138,-65 -30,-34 -44,-81 -43,-140 0,-8 1,-21 2,-38z"/>
    <path class="fil12" d="M7803 9075c0,0 -948,-352 -2040,-10l36 467 2004 -457z"/>
    <path class="fil8" d="M12803 14943l0 -200c0,0 -1,0 -2,-1 -33,-187 -470,-335 -1004,-335 -545,0 -988,154 -1006,346l0 0c0,0 0,1 0,3 0,3 -1,6 -1,9 0,2 1,5 1,7 0,47 -1,168 -1,214 0,23 44,256 968,300l69 2c1078,-29 976,-345 976,-345z"/>
    <polygon class="fil21" points="11864,14704 11878,14631 11880,14690 "/>
    <path class="fil4" d="M11490 14785c-19,-30 -58,-40 -87,-21 -30,19 -39,58 -20,88 18,30 57,39 87,21 29,-19 38,-59 20,-88z"/>
    <path class="fil16" d="M11735 14321c402,0 1068,160 1068,160l0 199c0,0 102,317 -976,346l-69 -2c-924,-44 -968,-277 -968,-300 0,-58 1,-233 1,-233 0,0 596,-170 998,-170l-54 0z"/>
    <path class="fil17" d="M12803 14503c0,197 -451,357 -1006,357 -556,0 -1007,-160 -1007,-357 0,-198 451,-358 1007,-358 555,0 1006,160 1006,358z"/>
    <path class="fil18" d="M12125 14524l-171 -75 25 -12c27,-12 42,-21 47,-27 4,-5 0,-10 -13,-16 -10,-4 -21,-6 -33,-4 -12,1 -25,4 -39,11 -23,11 -35,20 -34,29 0,9 11,31 33,66 19,31 30,54 33,68 3,13 -1,29 -14,46 -13,17 -38,35 -75,54 -61,30 -124,46 -190,49 -66,2 -132,-10 -199,-36l-68 32 -75 -40 70 -33c-38,-24 -56,-51 -56,-81 1,-30 40,-61 115,-93l32 -14 157 75 -40 19c-46,20 -73,34 -80,41 -8,7 -6,14 7,20 11,6 23,8 37,7 13,-1 27,-5 42,-12 39,-18 63,-32 74,-42 11,-9 10,-26 -1,-49 -18,-37 -28,-62 -31,-76 -3,-14 2,-30 15,-46 13,-17 36,-32 67,-45 45,-19 92,-29 143,-29 51,1 106,11 166,30l45 -20 76 31 -46 21c46,24 71,47 73,70 3,23 -18,46 -62,68 -6,3 -16,7 -30,13z"/>
    <path class="fil19" d="M12125 14494l-171 -76 25 -11c27,-13 42,-21 47,-27 4,-5 0,-11 -13,-16 -10,-4 -21,-6 -33,-5 -12,1 -25,5 -39,12 -23,10 -35,20 -34,29 0,9 11,31 33,66 19,31 30,54 33,67 3,14 -1,29 -14,47 -13,17 -38,35 -75,53 -61,31 -124,47 -190,49 -66,3 -132,-9 -199,-35l-68 32 -75 -41 70 -32c-38,-24 -56,-52 -56,-82 1,-29 40,-60 115,-92l32 -14 157 75 -40 19c-46,20 -73,34 -80,41 -8,7 -6,13 7,20 11,5 23,8 37,7 13,-1 27,-5 42,-12 39,-18 63,-32 74,-42 11,-10 10,-26 -1,-49 -18,-37 -28,-62 -31,-76 -3,-15 2,-30 15,-47 13,-16 36,-31 67,-44 45,-20 92,-29 143,-29 51,0 106,10 166,30l45 -20 76 30 -46 21c46,24 71,48 73,71 3,23 -18,45 -62,67 -6,3 -16,8 -30,14z"/>
    <path class="fil8" d="M17083 18342c0,0 -1,-1 -2,-1 -1,-190 -407,-409 -934,-499 -499,-85 -935,-24 -1033,134 -156,-35 -341,-55 -539,-55 -545,0 -988,153 -1006,345 0,0 0,0 0,0l0 3c0,3 0,6 0,9 0,3 0,5 0,8 0,47 0,167 0,213 0,23 43,256 967,300l70 3c611,-17 843,-126 929,-217 113,39 253,78 427,116l67 14c1068,152 1020,-177 1020,-177l34 -196z"/>
    <path class="fil16" d="M14392 17874c402,0 1068,160 1068,160l0 200c0,0 103,316 -975,346l-69 -3c-925,-43 -968,-276 -968,-299 0,-59 0,-233 0,-233 0,0 596,-171 998,-171l-54 0z"/>
    <path class="fil22" d="M15460 18056c0,197 -450,357 -1006,357 -556,0 -1006,-160 -1006,-357 0,-197 450,-357 1006,-357 556,0 1006,160 1006,357z"/>
    <path class="fil18" d="M14782 18078l-170 -76 25 -11c26,-13 41,-22 46,-27 4,-5 0,-11 -13,-16 -10,-4 -21,-6 -32,-5 -12,1 -25,5 -39,11 -24,11 -36,21 -35,30 1,9 11,30 33,66 19,31 30,53 34,67 3,14 -2,29 -15,46 -13,18 -38,36 -75,54 -61,30 -124,47 -190,49 -66,2 -132,-10 -198,-36l-69 33 -75 -41 70 -32c-38,-24 -56,-52 -55,-82 0,-29 39,-60 114,-92l32 -14 158 75 -41 18c-45,21 -72,35 -80,42 -8,7 -6,13 7,20 11,5 23,8 37,7 13,-1 27,-5 43,-12 38,-18 62,-32 73,-42 11,-10 10,-26 -1,-49 -18,-37 -28,-62 -31,-77 -3,-14 2,-29 16,-46 13,-16 35,-31 66,-45 45,-19 92,-28 143,-28 51,0 106,10 166,30l45 -21 76 31 -45 21c46,24 70,48 72,71 3,23 -18,45 -62,67 -6,3 -16,8 -30,14z"/>
    <path class="fil19" d="M14782 18047l-170 -75 25 -12c26,-12 41,-21 46,-26 4,-6 0,-11 -13,-16 -10,-5 -21,-6 -32,-5 -12,1 -25,5 -39,11 -24,11 -36,21 -35,30 1,8 11,30 33,66 19,31 30,53 34,67 3,14 -2,29 -15,46 -13,18 -38,36 -75,54 -61,30 -124,47 -190,49 -66,2 -132,-10 -198,-36l-69 32 -75 -40 70 -32c-38,-25 -56,-52 -55,-82 0,-29 39,-60 114,-93l32 -14 158 76 -41 18c-45,21 -72,35 -80,42 -8,6 -6,13 7,19 11,6 23,8 37,7 13,0 27,-4 43,-12 38,-17 62,-31 73,-41 11,-10 10,-26 -1,-49 -18,-37 -28,-62 -31,-77 -3,-14 2,-29 16,-46 13,-16 35,-31 66,-45 45,-19 92,-28 143,-28 51,0 106,10 166,30l45 -21 76 31 -45 21c46,24 70,48 72,70 3,24 -18,46 -62,68 -6,3 -16,7 -30,13z"/>
    <path class="fil16" d="M15936 17783c396,67 1026,337 1026,337l-34 197c0,0 48,329 -1020,177l-67 -14c-904,-199 -908,-436 -904,-458 10,-58 40,-230 40,-230 0,0 616,-68 1012,0l-53 -9z"/>
    <path class="fil17" d="M16958 18141c-33,195 -504,277 -1052,183 -548,-93 -965,-326 -932,-521 33,-194 504,-276 1052,-183 548,93 965,327 932,521z"/>
    <path class="fil18" d="M16291 18049l-156 -103 27 -7c28,-8 45,-14 50,-19 5,-4 2,-10 -9,-18 -9,-5 -20,-9 -32,-10 -12,-1 -25,1 -40,5 -25,6 -38,14 -39,23 -1,9 6,32 21,71 14,33 21,57 22,71 1,15 -7,29 -22,44 -16,15 -44,28 -83,40 -65,20 -130,25 -195,17 -66,-9 -129,-32 -190,-69l-73 20 -68 -52 75 -20c-33,-31 -47,-61 -41,-90 6,-29 49,-53 128,-72l35 -9 142 101 -43 11c-48,13 -77,22 -86,28 -9,5 -8,12 4,21 10,7 22,11 35,13 13,1 28,-1 44,-5 41,-11 67,-21 79,-29 13,-8 15,-24 8,-48 -12,-40 -18,-66 -18,-81 -1,-14 7,-29 23,-43 16,-14 40,-25 73,-33 47,-11 96,-13 146,-4 50,9 103,28 159,58l48 -13 69 43 -48 13c41,32 61,59 60,82 -2,23 -26,42 -73,56 -7,2 -17,5 -32,8z"/>
    <path class="fil19" d="M16291 18019l-156 -103 27 -7c28,-8 45,-14 50,-19 5,-4 2,-10 -9,-18 -9,-6 -20,-9 -32,-10 -12,-1 -25,1 -40,4 -25,7 -38,15 -39,24 -1,8 6,32 21,70 14,34 21,58 22,72 1,14 -7,29 -22,43 -16,15 -44,29 -83,41 -65,20 -130,25 -195,16 -66,-8 -129,-32 -190,-68l-73 20 -68 -52 75 -20c-33,-31 -47,-61 -41,-90 6,-29 49,-53 128,-72l35 -9 142 101 -43 11c-48,13 -77,22 -86,27 -9,6 -8,13 4,21 10,8 22,12 35,13 13,2 28,0 44,-4 41,-11 67,-21 79,-29 13,-8 15,-24 8,-48 -12,-40 -18,-67 -18,-81 -1,-15 7,-29 23,-43 16,-14 40,-25 73,-33 47,-12 96,-13 146,-4 50,9 103,28 159,57l48 -12 69 43 -48 13c41,31 61,59 60,81 -2,24 -26,42 -73,57 -7,2 -17,4 -32,8z"/>
    <path class="fil7" d="M2655 13409c-18,30 -57,39 -87,20 -29,-18 -38,-58 -20,-88 19,-30 58,-39 87,-20 30,18 39,58 20,88z"/>
    <path class="fil6" d="M9058 3460c-18,30 -57,40 -87,21 -30,-19 -39,-58 -20,-88 18,-30 57,-39 87,-21 30,19 39,59 20,88z"/>
    <path class="fil4" d="M5507 5577c-18,30 -57,39 -87,20 -30,-19 -39,-58 -20,-88 18,-30 57,-39 87,-20 30,18 39,58 20,88z"/>
    <path class="fil7" d="M4146 7451c-19,30 -58,39 -87,20 -30,-19 -39,-58 -21,-88 19,-30 58,-39 87,-20 30,18 39,58 21,88z"/>
    <path class="fil6" d="M11890 5123c18,30 57,39 87,20 29,-19 38,-58 20,-88 -19,-30 -58,-39 -87,-20 -30,18 -39,58 -20,88z"/>
    <path class="fil5" d="M12474 5030c18,30 58,39 87,20 30,-18 39,-58 20,-88 -18,-30 -57,-39 -87,-20 -29,19 -38,58 -20,88z"/>
    <path class="fil4" d="M15417 4347c19,29 58,39 87,20 30,-19 39,-58 21,-88 -19,-30 -58,-39 -88,-20 -29,18 -38,58 -20,88z"/>
    <path class="fil4" d="M17283 5698c19,30 58,40 88,21 29,-19 38,-58 20,-88 -19,-30 -58,-39 -87,-20 -30,18 -39,58 -21,87z"/>
    <path class="fil6" d="M13210 3756c19,30 58,39 87,20 30,-19 39,-58 20,-88 -18,-30 -57,-39 -87,-20 -29,18 -38,58 -20,88z"/>
    <path class="fil4" d="M11395 6177c19,30 58,39 87,20 30,-19 39,-58 21,-88 -19,-30 -58,-39 -88,-20 -29,18 -38,58 -20,88z"/>
    <path class="fil5" d="M19220 7220c19,30 58,39 87,21 30,-19 39,-58 21,-88 -19,-30 -58,-39 -87,-21 -30,19 -39,58 -21,88z"/>
    <path class="fil7" d="M11654 8674c167,-6 302,-144 303,-314l3 0c1,170 135,308 303,314 -169,5 -304,144 -304,315l-2 0c0,-171 -135,-310 -303,-315z"/>
    <path class="fil6" d="M27750 7104c-450,-15 -811,-385 -814,-843l-7 0c-3,458 -364,828 -815,843 452,15 815,388 815,849l6 0c0,-461 363,-834 815,-849z"/>
    <circle class="fil23" cx="20191" cy="7103" r="4729"/>
    <path class="fil24" d="M21083 8441l0 893 -3569 0 0 -893 3569 0zm-3569 -2677l0 -892c1784,0 3569,0 5354,0l-892 892c-1488,0 -2975,0 -4462,0zm5354 892c0,893 0,1785 0,2678l-892 0 0 -1785 0 0 -4462 0 0 -893c1784,0 3569,0 5354,0z"/>
    <path class="fil4" d="M28625 3834c-18,30 -57,39 -87,20 -29,-18 -38,-58 -20,-88 19,-29 58,-39 87,-20 30,19 39,58 20,88z"/>
    <path class="fil4" d="M16099 17593c-19,30 -58,39 -87,20 -30,-19 -39,-58 -21,-88 19,-30 58,-39 88,-20 29,18 38,58 20,88z"/>
    <path class="fil5" d="M23995 11843c-18,30 -57,39 -87,20 -29,-18 -38,-58 -20,-88 19,-30 58,-39 87,-20 30,18 39,58 20,88z"/>
    <path class="fil4" d="M23572 12520c-18,30 -57,39 -87,21 -30,-19 -39,-59 -20,-88 18,-30 57,-40 87,-21 30,19 39,58 20,88z"/>
    <path class="fil4" d="M8644 7089c-18,30 -57,39 -87,21 -29,-19 -38,-58 -20,-88 18,-30 57,-39 87,-21 30,19 39,58 20,88z"/>
    <path class="fil25" d="M15462 7103c0,-2546 2011,-4622 4531,-4726 -66,-2 -132,-4 -198,-4 -2612,0 -4730,2118 -4730,4730 0,2611 2118,4729 4730,4729 66,0 132,-1 198,-4 -2520,-104 -4531,-2180 -4531,-4725z"/>
    <path class="fil25" d="M19986 11828l7 0c-2,0 -4,0 -7,0zm-4525 -4725c0,-2546 2012,-4622 4532,-4726l-7 0 -185 -4 -6 0c-2612,0 -4730,2118 -4730,4730 0,2612 2118,4729 4730,4729 64,0 128,-1 192,-4 -2517,-107 -4526,-2182 -4526,-4725z"/>
    <path class="fil26" d="M6019 8738c-58,-82 -101,-176 -124,-277 -8,-37 -14,-75 -17,-114 -2,21 -2,41 -2,61 0,19 0,38 2,57 7,103 34,199 77,287l64 -14z"/>
    <path class="fil27" d="M7501 8734c31,-84 48,-174 48,-269 0,-12 0,-24 -1,-36 -1,0 -2,-1 -4,-1 -11,107 -44,207 -94,296l51 10z"/>
    <path class="fil28" d="M6248 8953c-90,-55 -168,-129 -229,-215l-64 14c41,84 97,159 164,223 44,-8 87,-15 129,-22z"/>
    <path class="fil28" d="M7450 8724c-48,87 -113,164 -189,226 37,6 72,11 106,17 57,-69 103,-147 134,-233l-51 -10z"/>
    <path class="fil29" d="M16630 16318c0,396 1779,717 3974,717 2195,0 3975,-321 3975,-717 0,-396 -1780,-717 -3975,-717 -2195,0 -3974,321 -3974,717z"/>
    <path class="fil17" d="M32166 12907c-292,9 -526,249 -528,545l-5 0c-2,-296 -235,-536 -527,-545 293,-10 528,-251 528,-550l4 0c0,299 235,540 528,550z"/>
    <path class="fil16" d="M5895 887c0,-432 350,-782 782,-782 432,0 782,350 782,782 0,432 -350,782 -782,782 -432,0 -782,-350 -782,-782z"/>
    <path class="fil17" d="M6005 830c0,-432 350,-782 782,-782 432,0 782,350 782,782 0,432 -350,782 -782,782 -432,0 -782,-350 -782,-782z"/>
    <path class="fil18" d="M6551 1012l201 4 -1 33c0,36 2,59 6,70 4,11 14,16 30,17 12,0 21,-5 27,-14 7,-9 10,-23 10,-42 1,-32 -5,-54 -17,-67 -12,-12 -48,-37 -107,-75 -51,-32 -85,-56 -103,-72 -19,-17 -34,-41 -46,-71 -12,-30 -18,-67 -17,-112 1,-71 19,-127 54,-167 36,-40 88,-65 157,-73l1 -75 92 1 -1 78c53,6 100,28 139,64 40,37 59,100 57,189l-1 39 -200 -3 1 -49c1,-54 -1,-88 -5,-101 -4,-13 -14,-20 -29,-20 -14,0 -24,4 -31,13 -7,9 -10,23 -11,40 0,45 2,78 8,97 6,20 27,41 64,65 60,39 101,68 123,86 22,19 40,44 56,78 15,33 22,70 22,111 -1,60 -19,107 -54,140 -34,34 -85,54 -153,61l-1 64 -93 -2 1 -64c-61,-9 -107,-31 -138,-65 -30,-34 -44,-81 -43,-140 0,-8 1,-21 2,-38z"/>
    <path class="fil19" d="M6551 982l201 4 -1 33c0,35 2,59 6,70 4,11 14,16 30,17 12,0 21,-5 27,-14 7,-9 10,-24 10,-42 1,-32 -5,-54 -17,-67 -12,-13 -48,-38 -107,-75 -51,-32 -85,-56 -103,-73 -19,-16 -34,-40 -46,-70 -12,-30 -18,-68 -17,-112 1,-72 19,-127 54,-168 36,-40 88,-64 157,-72l1 -76 92 2 -1 78c53,6 100,28 139,64 40,37 59,100 57,189l-1 39 -200 -3 1 -49c1,-54 -1,-88 -5,-101 -4,-13 -14,-20 -29,-20 -14,0 -24,4 -31,13 -7,9 -10,22 -11,40 0,45 2,77 8,97 6,19 27,41 64,64 60,40 101,69 123,87 22,19 40,44 56,77 15,33 22,71 22,112 -1,60 -19,106 -54,140 -34,33 -85,54 -153,60l-1 64 -93 -1 1 -64c-61,-9 -107,-31 -138,-65 -30,-34 -44,-81 -43,-140 0,-8 1,-21 2,-38z"/>
   </g>
  </g>
 </g>
</svg>
