<?xml version="1.0" encoding="UTF-8"?>
<!DOCTYPE svg PUBLIC "-//W3C//DTD SVG 1.1//EN" "http://www.w3.org/Graphics/SVG/1.1/DTD/svg11.dtd">
<!-- Creator: CorelDRAW X7 -->
<svg xmlns="http://www.w3.org/2000/svg" xml:space="preserve" width="100%" height="100%" version="1.1" style="shape-rendering:geometricPrecision; text-rendering:geometricPrecision; image-rendering:optimizeQuality; fill-rule:evenodd; clip-rule:evenodd"
viewBox="0 0 331320 229460"
 xmlns:xlink="http://www.w3.org/1999/xlink">
 <defs>
  <style type="text/css">
   <![CDATA[
    .str0 {stroke:#9999FF;stroke-width:762}
    .fil0 {fill:none}
    .fil11 {fill:none;fill-rule:nonzero}
    .fil28 {fill:#D2AE6D}
    .fil27 {fill:#A6B7DE}
    .fil26 {fill:#6C87C3}
    .fil12 {fill:black}
    .fil20 {fill:#5C56A2}
    .fil23 {fill:#666666}
    .fil21 {fill:gray}
    .fil19 {fill:#B3B3B3}
    .fil8 {fill:#B49493}
    .fil30 {fill:#C0C0FF}
    .fil1 {fill:#D2D2FF}
    .fil2 {fill:#DADAFF}
    .fil3 {fill:#E7E7FF}
    .fil7 {fill:#F6E3C3}
    .fil6 {fill:#FAFAFF}
    .fil15 {fill:#FBF8F6}
    .fil14 {fill:#FBFBF6}
    .fil22 {fill:white}
    .fil9 {fill:white}
    .fil29 {fill:#FDDFD1;fill-rule:nonzero}
    .fil13 {fill:black;fill-rule:nonzero}
    .fil16 {fill:black;fill-rule:nonzero}
    .fil17 {fill:gray;fill-rule:nonzero}
    .fil24 {fill:#999999;fill-rule:nonzero}
    .fil10 {fill:#9999FF;fill-rule:nonzero}
    .fil18 {fill:#B3B3B3;fill-rule:nonzero}
    .fil4 {fill:#F2D394;fill-rule:nonzero}
    .fil5 {fill:#FAFAFF;fill-rule:nonzero}
    .fil31 {fill:#FCD682;fill-rule:nonzero}
    .fil25 {fill:white;fill-rule:nonzero}
   ]]>
  </style>
 </defs>
 <g id="Layer_x0020_1">
  <metadata id="CorelCorpID_0Corel-Layer"/>
  <g id="_1529497723616">
   <rect class="fil0" width="331320" height="229460"/>
   <g>
    <circle class="fil1" transform="matrix(0.789502 -0.687622 -0.687621 -0.789503 224821 103041)" r="97958"/>
    <circle class="fil2" transform="matrix(0.595139 -0.51834 -0.51834 -0.59514 199572 103041)" r="97958"/>
    <g>
     <circle class="fil3" transform="matrix(0.285267 -0.248455 -0.248454 -0.285267 56884.4 169235)" r="97958"/>
     <circle class="fil2" transform="matrix(0.215038 -0.187289 -0.187289 -0.215039 50005 175226)" r="97958"/>
    </g>
    <path class="fil4" d="M90121 195277c4711,-157 8488,-4026 8520,-8815l75 0c31,4789 3806,8658 8520,8815 -4732,158 -8524,4057 -8526,8873l-63 0c-3,-4816 -3796,-8715 -8526,-8873z"/>
    <path class="fil5" d="M306464 176896c27029,11916 17933,52084 -10956,52084l-60382 0 -28736 0c-18466,0 -33437,-14975 -33437,-33440 0,-14998 10016,-28190 24457,-32208 583,-20387 17303,-36624 37706,-36624 16581,0 31227,10847 36068,26688 16606,-7017 35483,5374 35280,23500z"/>
    <path class="fil3" d="M306464 176896c27029,11916 17933,52084 -10956,52084l-89118 0c-18466,0 -33437,-14975 -33437,-33440 0,-14998 10016,-28190 24457,-32208 583,-20387 17303,-36624 37706,-36624 16581,0 31227,10847 36068,26688 16606,-7017 35483,5374 35280,23500zm9899 17859c-1652,-5342 -5545,-10151 -12032,-13011l-3189 -1406 40 -3483c31,-2824 -520,-5468 -1521,-7841 -1533,-3627 -4162,-6677 -7418,-8847l7 -10c-3260,-2167 -7104,-3426 -11061,-3470 -2631,-28 -5330,469 -7954,1577l-5390 2277 -1715 -5612c-2077,-6798 -6272,-12535 -11730,-16574 -5434,-4019 -12144,-6344 -19284,-6344 -8782,0 -16762,3485 -22600,9155 -5851,5684 -9574,13557 -9824,22311l-112 3903 -3762 1048c-6077,1689 -11224,5309 -14846,10081 -3614,4758 -5716,10696 -5716,17031 0,7769 3150,14805 8240,19896 5091,5091 12125,8241 19894,8241l89118 0c7002,0 12529,-2886 16238,-7177 2524,-2920 4247,-6511 5056,-10307 807,-3793 697,-7760 -439,-11438z"/>
    <path class="fil6" d="M78615 79544c0,-7660 -3625,-14491 -9252,-18867 146,-15982 13202,-28933 29217,-28933 16108,0 29218,13097 29218,29201l1318 0 4000 0c10258,0 18596,8354 18596,18599 0,10245 -8338,18598 -18596,18598l-78417 0c-10258,0 -18596,-8353 -18596,-18598 0,-10245 8338,-18599 18596,-18599 10259,0 18597,8354 18597,18599l5319 0z"/>
    <path class="fil3" d="M133115 55644c13189,0 23916,10723 23916,23900 0,13176 -10727,23899 -23916,23899l-78416 0c-5677,0 -10899,-1987 -15005,-5301 -5432,-4386 -8911,-11094 -8911,-18598 0,-13177 10727,-23900 23916,-23900 3382,0 6601,705 9521,1975 1678,-17481 16446,-31193 34360,-31193 17236,0 31570,12690 34130,29218l405 0zm-5317 5302c0,-16105 -13110,-29202 -29218,-29202 -16015,0 -29071,12951 -29217,28933 5627,4376 9252,11207 9252,18867l-5319 0c0,-10245 -8339,-18598 -18597,-18598 -10258,0 -18597,8353 -18597,18598 0,10245 8339,18598 18597,18598l78416 0c10259,0 18597,-8353 18597,-18598 0,-10245 -8338,-18598 -18597,-18598l-3999 0 -1318 0z"/>
    <path class="fil3" d="M215512 178082l0 27306 0 5053c0,5090 -5297,10694 -8256,14052 -46,52 -91,103 -138,154l14005 0c669,-970 1616,-4590 1616,-6520l0 -12527 0 -29691 0 -46947c-2521,666 -4939,1587 -7227,2733l0 46387z"/>
    <g>
     <polygon class="fil7" points="126616,42623 126616,190735 209792,190735 209792,42623 "/>
     <rect class="fil8" x="174555" y="46335" width="31455" height="12093" rx="249" ry="249"/>
     <rect class="fil8" x="129761" y="62438" width="76143" height="101047" rx="1043" ry="1043"/>
     <g>
      <path class="fil9" d="M121108 210441l0 -183755c0,-8378 6045,-15237 13430,-15237l67332 0c7385,0 13430,6859 13430,15237l0 183755c0,8379 -6045,15238 -13430,15238l-67332 0c-7385,0 -13430,-6859 -13430,-15238zm5271 -168055l83650 0 0 148585 -83650 0 0 -148585z"/>
      <path class="fil10" d="M120872 210441l0 -183755c0,-4247 1536,-8113 4005,-10916 2478,-2812 5900,-4558 9662,-4558l67331 0c3762,0 7184,1746 9661,4558 2470,2803 4005,6669 4005,10916l0 183755c0,4248 -1535,8113 -4005,10917 -2477,2812 -5899,4558 -9661,4558l-67331 0c-3762,0 -7184,-1746 -9662,-4558 -2469,-2804 -4005,-6669 -4005,-10917zm474 -183755l0 183755c0,4130 1491,7887 3886,10606 2389,2711 5686,4395 9307,4395l67331 0c3621,0 6918,-1684 9306,-4395 2396,-2719 3887,-6476 3887,-10606l0 -183755c0,-4130 -1491,-7886 -3887,-10606 -2388,-2710 -5685,-4394 -9306,-4394l-67331 0c-3621,0 -6918,1684 -9307,4394 -2395,2720 -3886,6476 -3886,10606zm5034 15464l83886 0 0 149058 -84123 0 0 -149058 237 0zm83412 474l-83175 0 0 148110 83175 0 0 -148110z"/>
      <path class="fil9" d="M201870 225679c7385,0 13430,-6859 13430,-15238l0 -183755c0,-8378 -6045,-15237 -13430,-15237l-67332 0c-7385,0 -13430,6859 -13430,15237l0 183755c0,8379 6045,15238 13430,15238l67332 0zm-81662 -15238l0 -183755c0,-8942 6449,-16259 14330,-16259l67332 0c7882,0 14330,7317 14330,16259l0 183755c0,8943 -6448,16259 -14330,16259l-67332 0c-7881,0 -14330,-7316 -14330,-16259z"/>
      <path class="fil10" d="M201870 225442c3621,0 6918,-1684 9306,-4395 2396,-2719 3887,-6476 3887,-10606l0 -183755c0,-4130 -1491,-7886 -3887,-10606 -2388,-2710 -5685,-4394 -9306,-4394l-67331 0c-3621,0 -6918,1684 -9307,4394 -2395,2720 -3886,6476 -3886,10606l0 183755c0,4130 1491,7887 3886,10606 2389,2711 5686,4395 9307,4395l67331 0zm9661 -4084c-2477,2812 -5899,4558 -9661,4558l-67331 0c-3762,0 -7184,-1746 -9662,-4558 -2469,-2804 -4005,-6669 -4005,-10917l0 -183755c0,-4247 1536,-8113 4005,-10916 2478,-2812 5900,-4558 9662,-4558l67331 0c3762,0 7184,1746 9661,4558 2470,2803 4005,6669 4005,10916l0 183755c0,4248 -1535,8113 -4005,10917zm-91560 -10917l0 -183755c0,-4527 1635,-8649 4269,-11637 2641,-2996 6288,-4858 10299,-4858l67331 0c4010,0 7657,1862 10298,4858 2633,2988 4268,7110 4268,11637l0 183755c0,4528 -1635,8653 -4268,11638 -2641,2996 -6288,4858 -10298,4858l-67331 0c-4012,0 -7659,-1862 -10300,-4858 -2633,-2985 -4268,-7110 -4268,-11638zm474 -183755l0 183755c0,4412 1590,8425 4149,11327 2552,2896 6074,4695 9945,4695l67331 0c3870,0 7392,-1799 9943,-4695 2559,-2902 4150,-6915 4150,-11327l0 -183755c0,-4411 -1591,-8423 -4150,-11327 -2551,-2896 -6073,-4694 -9943,-4694l-67331 0c-3870,0 -7392,1798 -9943,4694 -2561,2905 -4151,6916 -4151,11327z"/>
      <path class="fil9" d="M201870 226700c7882,0 14330,-7316 14330,-16259l0 -183755c0,-8942 -6448,-16259 -14330,-16259l-67332 0c-7881,0 -14330,7317 -14330,16259l0 183755c0,8943 6449,16259 14330,16259l67332 0zm-83462 -16258l0 -183756c0,-10066 7258,-18301 16130,-18301l67332 0c8872,0 16131,8235 16131,18301l0 183756c0,10066 -7259,18301 -16131,18301l-67332 0c-8872,0 -16130,-8235 -16130,-18301z"/>
      <path class="fil10" d="M201870 226463c3870,0 7392,-1799 9943,-4695 2559,-2902 4150,-6915 4150,-11327l0 -183755c0,-4411 -1591,-8423 -4150,-11327 -2551,-2896 -6073,-4694 -9943,-4694l-67331 0c-3870,0 -7392,1798 -9943,4694 -2561,2905 -4151,6916 -4151,11327l0 183755c0,4412 1590,8425 4149,11327 2552,2896 6074,4695 9945,4695l67331 0zm10298 -4384c-2641,2996 -6288,4858 -10298,4858l-67331 0c-4012,0 -7659,-1862 -10300,-4858 -2633,-2985 -4268,-7110 -4268,-11638l0 -183755c0,-4527 1635,-8649 4269,-11637 2641,-2996 6288,-4858 10299,-4858l67331 0c4010,0 7657,1862 10298,4858 2633,2988 4268,7110 4268,11637l0 183755c0,4528 -1635,8653 -4268,11638zm-93997 -11638l0 -183755c0,-5090 1838,-9723 4797,-13081 2967,-3365 7066,-5457 11571,-5457l67331 0c4505,0 8604,2092 11570,5457 2960,3358 4798,7991 4798,13081l0 183755c0,5091 -1838,9724 -4798,13081 -2966,3366 -7064,5458 -11570,5458l-67331 0c-4507,0 -8604,-2092 -11571,-5458 -2959,-3357 -4797,-7990 -4797,-13081zm474 -183755l0 183755c0,4974 1793,9496 4678,12771 2878,3265 6850,5294 11216,5294l67331 0c4366,0 8338,-2029 11215,-5294 2886,-3275 4679,-7797 4679,-12771l0 -183755c0,-4973 -1793,-9495 -4679,-12770 -2879,-3265 -6851,-5295 -11215,-5295l-67331 0c-4365,0 -8337,2030 -11216,5295 -2885,3275 -4678,7797 -4678,12770z"/>
      <path class="fil9" d="M168204 199194c5101,0 9237,4136 9237,9238 0,5101 -4136,9237 -9237,9237 -5101,0 -9237,-4136 -9237,-9237 0,-5102 4136,-9238 9237,-9238z"/>
      <path class="fil10" d="M168204 198958c2615,0 4986,1061 6699,2775 1713,1715 2775,4085 2775,6699 0,2615 -1062,4986 -2775,6699 -1716,1713 -4086,2774 -6699,2774 -2614,0 -4984,-1061 -6698,-2774 -1714,-1716 -2776,-4086 -2776,-6699 0,-2614 1062,-4984 2775,-6698 1715,-1715 4085,-2776 6699,-2776zm6364 3109c-1626,-1627 -3878,-2636 -6364,-2636 -2485,0 -4738,1009 -6365,2634 -1626,1629 -2636,3882 -2636,6367 0,2484 1010,4737 2634,6364 1629,1627 3882,2636 6367,2636 2486,0 4737,-1008 6364,-2634 1627,-1628 2636,-3880 2636,-6366 0,-2487 -1009,-4738 -2636,-6365z"/>
      <path class="fil9" d="M169866 203978c1537,0 2792,1255 2792,2792l0 3323c0,1538 -1255,2792 -2792,2792l-3323 0c-1538,0 -2792,-1254 -2792,-2792l0 -3323c0,-1537 1254,-2792 2792,-2792l3323 0zm0 1051l-3323 0c-958,0 -1742,783 -1742,1741l0 3323c0,958 784,1742 1742,1742l3323 0c958,0 1741,-784 1741,-1742l0 -3323c0,-958 -783,-1741 -1741,-1741z"/>
      <path class="fil10" d="M169866 203742c832,0 1592,343 2138,889 547,547 891,1308 891,2139l0 3323c0,831 -344,1592 -890,2138 -547,547 -1307,890 -2139,890l-3323 0c-832,0 -1593,-343 -2139,-889 -547,-547 -890,-1308 -890,-2139l0 -3323c0,-831 343,-1592 889,-2138 547,-547 1308,-890 2140,-890l3323 0zm1805 1222c-460,-462 -1101,-749 -1805,-749l-3323 0c-704,0 -1345,287 -1806,749 -463,462 -750,1103 -750,1806l0 3323c0,704 287,1344 749,1805 462,463 1103,750 1807,750l3323 0c704,0 1345,-287 1805,-749 463,-462 750,-1102 750,-1806l0 -3323c0,-703 -287,-1344 -750,-1806zm-1805 301l-3323 0c-415,0 -793,170 -1062,441 -273,274 -442,651 -442,1064l0 3323c0,414 168,793 439,1064 274,271 651,441 1065,441l3323 0c413,0 791,-170 1063,-442 271,-270 441,-649 441,-1063l0 -3323c0,-413 -170,-790 -442,-1063 -270,-272 -647,-442 -1062,-442zm-3323 -473l3323 0c542,0 1038,225 1395,582 359,357 583,853 583,1396l0 3323c0,542 -225,1038 -581,1396 -357,359 -854,583 -1397,583l-3323 0c-544,0 -1040,-224 -1398,-582 -355,-359 -580,-855 -580,-1397l0 -3323c0,-543 224,-1039 582,-1397 356,-356 853,-581 1396,-581z"/>
      <g>
       <path class="fil9" d="M175274 23485l-14139 0c-1290,0 -2343,1054 -2343,2343l0 3c0,1289 1053,2343 2343,2343l14139 0c1289,0 2343,-1054 2343,-2343l0 -3c0,-1289 -1054,-2343 -2343,-2343z"/>
       <path id="1" class="fil11 str0" d="M175274 23485l-14139 0c-1290,0 -2343,1054 -2343,2343l0 3c0,1289 1053,2343 2343,2343l14139 0c1289,0 2343,-1054 2343,-2343l0 -3c0,-1289 -1054,-2343 -2343,-2343z"/>
      </g>
      <g>
       <g>
        <path class="fil12" d="M175273 24385l-14138 0c-795,0 -1444,649 -1444,1444l0 0c0,795 649,1444 1444,1444l14138 0c795,0 1444,-649 1444,-1444l0 0c0,-795 -649,-1444 -1444,-1444z"/>
        <path id="1" class="fil13" d="M161135 24621l0 -472 14138 0 0 472 -14138 0zm-1680 1208l0 0 2 -85 6 -86 11 -84 15 -83 19 -82 22 -78 27 -79 30 -76 34 -75 37 -72 41 -70 43 -69 49 -67 48 -61 53 -61 56 -59 59 -56 61 -53 61 -48 67 -49 69 -43 70 -41 72 -37 75 -34 76 -30 79 -27 78 -22 82 -19 83 -15 84 -11 86 -6 85 -2 0 472 -63 2 -60 4 -60 9 -59 9 -58 15 -58 16 -55 19 -56 22 -53 24 -52 27 -52 29 -47 31 -47 33 -47 38 -45 37 -41 40 -40 41 -37 45 -38 47 -33 47 -31 47 -29 52 -27 52 -24 53 -22 56 -19 55 -16 58 -15 58 -9 59 -9 60 -4 60 -2 63 0 0 -472 0zm236 0l0 0 0 0 0 0 236 0 -236 0zm1444 1680l0 0 -85 -2 -86 -6 -84 -11 -83 -15 -82 -19 -78 -22 -79 -27 -76 -30 -75 -34 -72 -37 -70 -41 -69 -43 -67 -49 -61 -48 -61 -53 -59 -56 -56 -59 -53 -61 -48 -61 -49 -67 -43 -69 -41 -70 -37 -72 -34 -75 -30 -76 -27 -79 -22 -78 -19 -82 -15 -83 -11 -84 -6 -86 -2 -85 472 0 2 63 4 60 9 60 9 59 15 58 16 58 19 55 22 56 24 53 27 52 29 52 31 47 33 47 38 47 37 45 40 41 41 40 45 37 47 38 47 33 47 31 52 29 52 27 53 24 56 22 55 19 58 16 58 15 59 9 60 9 60 4 63 2 0 0 0 472zm14138 -472l0 472 -14138 0 0 -472 14138 0zm1680 -1208l0 0 -2 85 -6 86 -11 84 -15 83 -19 82 -22 78 -27 79 -30 76 -34 75 -37 72 -41 70 -43 69 -49 67 -48 61 -53 61 -56 59 -59 56 -61 53 -61 48 -67 49 -69 43 -70 41 -72 37 -75 34 -76 30 -79 27 -78 22 -82 19 -83 15 -84 11 -86 6 -85 2 0 -472 63 -2 60 -4 60 -9 59 -9 58 -15 58 -16 55 -19 56 -22 53 -24 52 -27 52 -29 47 -31 47 -33 47 -38 45 -37 41 -40 40 -41 37 -45 38 -47 33 -47 31 -47 29 -52 27 -52 24 -53 22 -56 19 -55 16 -58 15 -58 9 -59 9 -60 4 -60 2 -63 0 0 472 0zm-236 0l0 0 0 0 0 0 -236 0 236 0zm-1444 -1680l0 0 85 2 86 6 84 11 83 15 82 19 78 22 79 27 76 30 75 34 72 37 70 41 69 43 67 49 61 48 61 53 59 56 56 59 53 61 48 61 49 67 43 69 41 70 37 72 34 75 30 76 27 79 22 78 19 82 15 83 11 84 6 86 2 85 -472 0 -2 -63 -4 -60 -9 -60 -9 -59 -15 -58 -16 -58 -19 -55 -22 -56 -24 -53 -27 -52 -29 -52 -31 -47 -33 -47 -38 -47 -37 -45 -40 -41 -41 -40 -45 -37 -47 -38 -47 -33 -47 -31 -52 -29 -52 -27 -53 -24 -56 -22 -55 -19 -58 -16 -58 -15 -59 -9 -60 -9 -60 -4 -63 -2 0 0 0 -472z"/>
       </g>
      </g>
      <path class="fil9" d="M151276 23485c-1295,0 -2345,1050 -2345,2345 0,1294 1050,2344 2345,2344 1295,0 2345,-1050 2345,-2344 0,-1295 -1050,-2345 -2345,-2345z"/>
      <path class="fil10" d="M151276 23722c-583,0 -1112,237 -1491,616 -380,380 -617,909 -617,1492 0,581 237,1110 617,1490 381,381 910,617 1491,617 583,0 1112,-238 1491,-617 379,-379 617,-907 617,-1490 0,-582 -237,-1111 -617,-1491 -380,-380 -909,-617 -1491,-617zm-1825 284c469,-468 1115,-758 1825,-758 712,0 1358,290 1825,757 466,465 757,1113 757,1825 0,710 -291,1356 -757,1823 -468,467 -1114,758 -1825,758 -712,0 -1359,-291 -1825,-756 -467,-468 -756,-1114 -756,-1825 0,-711 289,-1357 756,-1824z"/>
      <path class="fil9" d="M151276 24645c-654,0 -1184,531 -1184,1185 0,654 530,1184 1184,1184 654,0 1184,-530 1184,-1184 0,-654 -530,-1185 -1184,-1185z"/>
      <path class="fil10" d="M151276 24882c-263,0 -501,107 -670,277 -171,169 -277,407 -277,671 0,260 106,498 277,669 169,171 407,278 670,278 261,0 499,-107 670,-278 171,-171 277,-409 277,-669 0,-264 -106,-502 -276,-670 -172,-171 -410,-278 -671,-278zm-1004 -55c257,-257 615,-418 1004,-418 391,0 747,160 1004,417 255,255 417,613 417,1004 0,390 -160,747 -417,1004 -257,256 -613,417 -1004,417 -391,0 -749,-162 -1004,-419 -256,-255 -417,-612 -417,-1002 0,-390 162,-748 417,-1003z"/>
      <path class="fil9" d="M161136 24385c-795,0 -1444,650 -1444,1444 0,795 649,1444 1444,1444l14137 0c795,0 1444,-649 1444,-1444 0,-794 -649,-1444 -1444,-1444l-14137 0z"/>
      <path class="fil10" d="M161136 24622c-331,0 -635,135 -854,354 -218,218 -354,522 -354,854 0,331 136,634 354,852 219,219 523,354 854,354l14136 0c332,0 636,-135 854,-354 219,-218 354,-521 354,-852 0,-332 -137,-636 -355,-854 -218,-219 -521,-354 -853,-354l-14136 0zm-1188 20c304,-304 726,-494 1188,-494l14136 0c462,0 883,190 1187,494 304,303 495,726 495,1188 0,461 -190,883 -493,1186 -304,304 -727,494 -1189,494l-14136 0c-462,0 -884,-190 -1188,-494 -304,-303 -493,-725 -493,-1186 0,-462 189,-885 493,-1188z"/>
      <path class="fil9" d="M158791 25830c0,1290 1054,2344 2344,2344l14138 0c1290,0 2344,-1054 2344,-2345 0,-1289 -1054,-2344 -2344,-2344l-14138 0c-1290,0 -2344,1055 -2344,2345zm16482 1443l-14137 0c-795,0 -1444,-649 -1444,-1444 0,-794 649,-1444 1444,-1444l14137 0c795,0 1444,650 1444,1444 0,795 -649,1444 -1444,1444z"/>
      <path class="fil10" d="M159027 25830c0,579 238,1107 618,1488 381,380 911,619 1490,619l14137 0c579,0 1110,-238 1490,-618 380,-380 618,-910 618,-1489 0,-579 -238,-1110 -618,-1490 -380,-380 -911,-618 -1490,-618l-14137 0c-579,0 -1109,238 -1490,618 -380,380 -618,911 -618,1490zm284 1822c-467,-467 -758,-1113 -758,-1822 0,-710 291,-1357 758,-1824 467,-467 1115,-758 1824,-758l14137 0c710,0 1357,291 1824,758 467,467 758,1114 758,1824 0,709 -291,1356 -758,1823 -467,467 -1114,758 -1824,758l-14137 0c-709,0 -1358,-293 -1824,-759zm15961 -142l-14136 0c-462,0 -884,-190 -1188,-494 -304,-303 -493,-725 -493,-1186 0,-462 189,-885 493,-1188 304,-304 726,-494 1188,-494l14136 0c462,0 883,190 1187,494 304,303 495,726 495,1188 0,461 -190,883 -493,1186 -304,304 -727,494 -1189,494zm-14136 -474l14136 0c332,0 636,-135 854,-354 219,-218 354,-521 354,-852 0,-332 -137,-636 -355,-854 -218,-219 -521,-354 -853,-354l-14136 0c-331,0 -635,135 -854,354 -218,218 -354,522 -354,854 0,331 136,634 354,852 219,219 523,354 854,354z"/>
     </g>
     <rect class="fil14" x="174863" y="46106" width="31455" height="12093" rx="249" ry="249"/>
     <rect class="fil15" x="130093" y="62029" width="76143" height="101047" rx="1043" ry="1043"/>
     <path class="fil16" d="M166144 155485c0,57 -21,104 -62,141 -41,38 -92,56 -150,56 -159,0 -239,-66 -239,-197 0,-123 74,-185 220,-185 154,0 231,62 231,185zm-646 0c0,57 -21,104 -62,141 -42,38 -92,56 -149,56 -160,0 -240,-66 -240,-197 0,-123 73,-185 218,-185 156,0 233,62 233,185zm1827 1615c-266,0 -444,-43 -533,-130 -115,87 -223,130 -325,130l-1769 0c-140,0 -256,-57 -349,-172 -88,-107 -131,-232 -131,-375l0 -508 336 0 0 461c0,96 19,163 56,201 37,38 103,57 196,57l1562 0c94,0 158,-19 194,-57 35,-38 52,-105 52,-201l0 -461 341 0 0 461c0,172 123,258 370,258l0 336zm2912 0c-131,-3 -218,-11 -261,-24 -87,-24 -154,-75 -198,-155 -104,145 -233,217 -388,217 -157,0 -311,-74 -461,-221 -131,147 -294,221 -490,221 -181,0 -331,-79 -449,-236 -74,96 -198,157 -375,181 -78,11 -224,17 -437,17l0 -336 282 0c123,0 209,-16 258,-47 63,-41 95,-122 95,-244l0 -428 328 0 0 499c0,79 29,143 86,194 58,50 126,75 204,75 154,0 230,-70 230,-209l0 -559 329 0 0 496c0,78 29,144 88,196 56,51 123,76 203,76 158,0 236,-70 236,-209l0 -559 329 0 0 515c0,79 40,137 121,174 23,11 113,21 270,30l0 336zm1077 -547c0,146 -43,271 -129,377 -91,113 -208,170 -350,170l-717 0 0 -336 612 0c93,0 158,-19 194,-57 36,-38 54,-105 54,-201l0 -461 336 0 0 508zm-57 1189c0,57 -21,105 -63,143 -42,37 -92,56 -151,56 -62,0 -116,-17 -160,-50 -49,-38 -73,-88 -73,-149 0,-125 71,-187 213,-187 156,0 234,62 234,187zm-642 0c0,57 -21,105 -63,143 -42,37 -92,56 -151,56 -62,0 -116,-17 -160,-50 -49,-38 -73,-88 -73,-149 0,-125 71,-187 213,-187 156,0 234,62 234,187zm2262 -701c0,248 -77,460 -231,635 -160,181 -363,272 -608,272l-448 0 -54 -343 379 0c162,0 301,-39 417,-116 134,-90 201,-213 201,-368l0 -1076 344 0 0 996z"/>
     <path class="fil17" d="M193891 129094c0,148 -85,222 -254,222 -162,0 -243,-74 -243,-222 0,-137 87,-206 262,-206 156,0 235,69 235,206zm0 789c0,149 -86,224 -257,224 -67,0 -123,-20 -168,-61 -45,-42 -68,-95 -68,-163 0,-136 86,-204 260,-204 155,0 233,68 233,204zm2948 224c-181,0 -306,-53 -377,-159 0,281 -69,514 -207,700 -154,205 -368,307 -641,307l-519 0c-230,0 -424,-87 -580,-263 -151,-168 -226,-370 -226,-602l0 -702 329 0 0 739c0,144 55,263 164,358 104,90 230,134 376,134l435 0c145,0 268,-45 368,-136 106,-93 159,-212 159,-356l0 -2172 336 0 0 1581c0,154 128,232 383,235l0 336zm1382 0c-137,1 -240,-4 -309,-17 -53,-21 -110,-59 -169,-114 -107,88 -214,131 -319,131l-725 0 0 -336 620 0c93,0 158,-19 194,-57 36,-38 54,-105 54,-201l0 -461 336 0 0 461c0,111 26,184 79,218 40,26 119,40 239,40l0 336zm-299 640c0,57 -20,104 -61,141 -42,38 -91,56 -148,56 -64,0 -118,-17 -163,-52 -50,-38 -75,-86 -75,-145 0,-123 72,-185 216,-185 154,0 231,62 231,185zm-642 0c0,57 -20,104 -61,141 -42,38 -91,56 -148,56 -64,0 -118,-17 -163,-52 -50,-38 -75,-86 -75,-145 0,-123 72,-185 215,-185 155,0 232,62 232,185zm2612 -640c-111,0 -191,-10 -241,-30 -64,-27 -122,-82 -173,-164 -96,160 -250,240 -463,240 -79,0 -160,-24 -245,-71 -86,-47 -150,-104 -193,-169 -25,126 -195,191 -510,194l0 -336c186,0 296,-19 329,-56 17,-19 26,-105 26,-258 0,-204 48,-367 144,-488 106,-136 259,-204 458,-204 182,0 325,72 430,217 93,128 142,286 146,475 1,71 2,117 3,137 8,80 37,131 90,152 24,11 91,20 199,25l0 336zm-598 -660c0,-235 -94,-353 -283,-353 -196,0 -294,125 -294,375 0,232 98,348 294,348 189,0 283,-123 283,-370zm1679 113c0,146 -43,271 -129,377 -91,113 -208,170 -350,170l-717 0 0 -336 612 0c93,0 158,-19 194,-57 36,-38 54,-105 54,-201l0 -461 336 0 0 508zm-57 1189c0,57 -21,105 -63,143 -42,37 -92,56 -151,56 -62,0 -116,-17 -160,-50 -49,-38 -73,-88 -73,-149 0,-125 71,-187 213,-187 156,0 234,62 234,187zm-642 0c0,57 -21,105 -63,143 -42,37 -92,56 -151,56 -62,0 -116,-17 -160,-50 -49,-38 -73,-88 -73,-149 0,-125 71,-187 213,-187 156,0 234,62 234,187zm1532 -642l-328 0 0 -2152 328 0 0 2152zm-17459 -14404c0,148 -85,222 -254,222 -162,0 -243,-74 -243,-222 0,-137 87,-206 262,-206 156,0 235,69 235,206zm0 789c0,149 -86,224 -257,224 -67,0 -123,-20 -168,-61 -45,-42 -68,-95 -68,-163 0,-136 86,-204 260,-204 155,0 233,68 233,204zm4293 -315c0,157 -37,287 -110,392 -83,121 -198,181 -348,181 -152,0 -310,-76 -472,-229 -108,153 -240,229 -396,229 -121,0 -248,-45 -379,-135 0,267 -70,489 -213,664 -152,191 -359,285 -619,285l-512 0c-243,0 -443,-85 -601,-255 -153,-166 -229,-370 -229,-614l0 -698 328 0 0 713c0,156 52,282 155,378 99,94 228,140 385,140l436 0c157,0 284,-47 383,-142 98,-94 147,-220 147,-376l0 -1049 336 0 0 499c0,78 30,141 88,193 58,51 126,76 204,76 155,0 232,-70 232,-209l0 -559 329 0 0 496c0,77 28,142 86,194 56,52 125,78 204,78 158,0 237,-70 237,-209l0 -559 329 0 0 516zm1113 539c-284,0 -484,-55 -599,-164 -77,-71 -116,-188 -116,-349l0 -1589 336 0 0 1441c0,156 27,251 79,286 32,21 132,34 300,39l0 336zm1668 0c-111,0 -191,-10 -241,-30 -64,-27 -122,-82 -173,-164 -96,160 -250,240 -463,240 -79,0 -160,-24 -245,-71 -86,-47 -150,-104 -193,-169 -25,126 -195,191 -510,194l0 -336c186,0 296,-19 329,-56 17,-19 26,-105 26,-258 0,-204 48,-367 144,-488 106,-136 259,-204 458,-204 182,0 325,72 430,217 93,128 142,286 146,475 1,71 2,117 3,137 8,80 37,131 90,152 24,11 91,20 199,25l0 336zm-598 -660c0,-235 -94,-353 -283,-353 -196,0 -294,125 -294,375 0,232 98,348 294,348 189,0 283,-123 283,-370zm1874 -936c0,57 -21,105 -62,143 -42,39 -93,58 -151,58 -65,0 -120,-17 -165,-50 -49,-39 -73,-90 -73,-151 0,-123 73,-185 217,-185 156,0 234,62 234,185zm-642 0c0,57 -21,105 -62,143 -43,39 -93,58 -151,58 -65,0 -120,-17 -165,-50 -49,-39 -73,-90 -73,-151 0,-123 73,-185 217,-185 156,0 234,62 234,185zm447 1049c0,146 -43,271 -129,377 -91,113 -208,170 -350,170l-717 0 0 -336 612 0c93,0 158,-19 194,-57 36,-38 54,-105 54,-201l0 -460 336 0 0 507zm2423 -22c0,175 -66,320 -199,437 -129,114 -281,170 -458,170 -183,0 -333,-62 -451,-188 -117,-125 -176,-280 -176,-465 0,-191 128,-416 385,-671l-98 -107 226 -228 614 636c105,108 157,247 157,416zm-332 -21c0,-69 -18,-122 -55,-160l-270 -286c-199,192 -298,344 -298,456 0,87 32,158 96,214 65,55 141,83 229,83 88,0 160,-28 215,-86 55,-58 83,-132 83,-221zm1857 531c0,248 -77,460 -231,635 -160,181 -363,272 -608,272l-448 0 -54 -343 379 0c162,0 301,-39 417,-116 134,-90 201,-213 201,-368l0 -1076 344 0 0 996zm1143 59c-284,0 -484,-55 -599,-164 -77,-71 -116,-188 -116,-349l0 -1589 336 0 0 1441c0,156 27,251 79,286 32,21 132,34 300,39l0 336zm1668 0c-111,0 -191,-10 -241,-30 -64,-27 -122,-82 -173,-164 -96,160 -250,240 -463,240 -79,0 -160,-24 -245,-71 -86,-47 -150,-104 -193,-169 -25,126 -195,191 -510,194l0 -336c186,0 296,-19 329,-56 17,-19 26,-105 26,-258 0,-204 48,-367 144,-488 106,-136 259,-204 458,-204 182,0 325,72 430,217 93,128 142,286 146,475 1,71 2,117 3,137 8,80 37,131 90,152 24,11 91,20 199,25l0 336zm-598 -660c0,-235 -94,-353 -283,-353 -196,0 -294,125 -294,375 0,232 98,348 294,348 189,0 283,-123 283,-370zm2291 -1307c0,60 -21,109 -63,147 -43,39 -93,58 -151,58 -63,0 -117,-18 -163,-56 -49,-39 -74,-89 -74,-149 0,-120 71,-181 214,-181 158,0 237,61 237,181zm328 472c0,60 -21,109 -62,148 -42,39 -93,59 -153,59 -62,0 -117,-19 -164,-58 -48,-38 -72,-88 -72,-149 0,-119 71,-179 212,-179 160,0 239,60 239,179zm-649 0c0,57 -21,106 -63,146 -41,41 -91,61 -148,61 -63,0 -118,-19 -164,-58 -46,-38 -69,-88 -69,-149 0,-119 72,-179 214,-179 153,0 230,60 230,179zm1173 956c0,162 -38,294 -112,398 -83,117 -203,175 -358,175 -178,0 -332,-76 -463,-229 -129,153 -265,229 -409,229 -161,0 -314,-90 -456,-271 -151,158 -298,237 -442,237l-428 0 0 -336 405 0c156,0 233,-82 233,-246l0 -473 329 0 0 496c0,81 28,146 82,197 54,50 122,75 202,75 158,0 236,-70 236,-209l0 -559 329 0 0 496c0,79 28,144 84,196 55,51 124,76 204,76 157,0 235,-70 235,-209l0 -559 329 0 0 516zm-16722 -13865c0,148 -85,222 -254,222 -162,0 -243,-74 -243,-222 0,-137 87,-206 262,-206 156,0 235,69 235,206zm0 789c0,149 -86,224 -257,224 -67,0 -123,-20 -168,-61 -45,-42 -68,-95 -68,-163 0,-136 86,-204 260,-204 155,0 233,68 233,204zm2712 224l-311 0 15 164c0,195 -74,360 -221,493 -145,127 -316,191 -513,191l-517 0c-265,0 -473,-96 -625,-291 -138,-177 -207,-402 -207,-675l0 -601 337 0 0 730c0,160 56,285 168,376 103,84 237,125 400,125l432 0c119,0 218,-32 295,-95 82,-69 123,-162 123,-281 0,-72 -103,-116 -308,-132 -38,-4 -168,-6 -391,-6l-30 -334 1353 0 0 336zm1182 -2537l-1174 420 -15 -128 1179 -423 10 131zm201 2091c0,143 -55,255 -166,336 -98,73 -221,110 -367,110l-980 0 0 -336 981 0c128,0 192,-42 192,-127 0,-46 -20,-91 -62,-135l-893 -929 -64 -376 1241 -447 47 338 -884 334 862 954c62,69 93,162 93,278zm1923 7c0,135 -50,243 -152,325 -93,76 -208,114 -345,114l-1043 0 -46 -336 1070 0c125,0 187,-44 187,-132 0,-44 -18,-85 -54,-121l-757 -803 226 -229 755 802c106,111 159,237 159,380zm777 439l-328 0 0 -2152 328 0 0 2152zm2087 0l-222 0c0,246 -83,449 -248,609 -165,160 -370,239 -618,239l-433 0 -47 -336 424 0c159,0 292,-46 397,-138 106,-92 162,-217 168,-375 -277,0 -480,-38 -611,-114 -170,-99 -255,-277 -255,-535 0,-281 67,-477 203,-591 78,-67 211,-101 397,-101 267,0 446,111 537,332 52,130 81,354 86,674l222 0 0 336zm-568 -336l0 -319c0,-93 -22,-173 -67,-241 -51,-75 -121,-113 -210,-113 -107,0 -180,36 -217,108 -26,53 -39,139 -39,259 0,142 59,232 177,272 63,22 182,34 356,34zm1167 -1246c0,66 -23,122 -68,168 -45,46 -101,69 -165,69 -171,0 -256,-79 -256,-237 0,-133 81,-199 242,-199 165,0 247,66 247,199zm329 1035c0,144 -45,270 -135,377 -94,113 -211,170 -351,170l-550 0 0 -336c351,0 548,-7 587,-21 75,-27 112,-128 112,-302 0,-44 0,-109 -2,-198 -2,-88 -3,-154 -3,-197l342 0 0 507zm1067 547c-284,0 -484,-55 -599,-164 -77,-71 -116,-188 -116,-349l0 -1589 336 0 0 1441c0,156 27,251 79,286 32,21 132,34 300,39l0 336zm1142 -1942c0,63 -23,118 -68,164 -46,47 -101,70 -164,70 -169,0 -253,-78 -253,-234 0,-135 82,-202 244,-202 161,0 241,67 241,202zm648 1293l-769 438c-181,103 -370,168 -568,193 -98,12 -299,18 -602,18l0 -336c434,0 740,-42 920,-126 13,-7 94,-50 242,-128 92,-50 229,-126 411,-229 -44,-92 -116,-151 -217,-175 -43,-10 -142,-15 -296,-15l-588 0 -47 -333 829 0c457,0 685,231 685,693zm2087 97c0,170 -57,305 -171,407 -114,102 -256,153 -426,153 -173,0 -314,-60 -422,-177 -106,-114 -159,-259 -159,-434l0 -410c-38,-2 -61,-4 -69,-4 -87,0 -160,34 -220,102 -59,69 -89,147 -89,233l0 1530 -329 0 0 -1488c0,-215 57,-384 170,-507 117,-130 283,-195 497,-195l681 0c223,0 375,82 456,244 54,111 81,293 81,546zm-329 -71c0,-180 -18,-287 -54,-321 -40,-38 -196,-61 -466,-69l0 466c0,65 31,118 93,160 55,39 116,58 183,58 162,0 244,-98 244,-294zm1395 623c-284,0 -484,-55 -599,-164 -77,-71 -116,-188 -116,-349l0 -1589 336 0 0 1441c0,156 27,251 79,286 32,21 132,34 300,39l0 336zm573 -1582c0,66 -23,122 -68,168 -45,46 -101,69 -165,69 -171,0 -256,-79 -256,-237 0,-133 81,-199 242,-199 165,0 247,66 247,199zm329 1035c0,144 -45,270 -135,377 -94,113 -211,170 -351,170l-550 0 0 -336c351,0 548,-7 587,-21 75,-27 112,-128 112,-302 0,-44 0,-109 -2,-198 -2,-88 -3,-154 -3,-197l342 0 0 507zm-4247 -13857c0,148 -85,222 -254,222 -162,0 -243,-74 -243,-222 0,-137 87,-206 262,-206 156,0 235,69 235,206zm0 789c0,149 -86,224 -257,224 -67,0 -123,-20 -168,-61 -45,-42 -68,-95 -68,-163 0,-136 86,-204 260,-204 155,0 233,68 233,204zm2279 -328c0,170 -57,305 -171,407 -114,102 -256,153 -426,153 -173,0 -314,-60 -422,-177 -106,-114 -159,-259 -159,-434l0 -410c-38,-2 -61,-4 -69,-4 -87,0 -160,34 -220,102 -59,69 -89,147 -89,233l0 1530 -329 0 0 -1488c0,-215 57,-384 170,-507 117,-130 283,-195 497,-195l681 0c223,0 375,82 456,244 54,111 81,293 81,546zm-329 -71c0,-180 -18,-287 -54,-321 -40,-38 -196,-61 -466,-69l0 466c0,65 31,118 93,160 55,39 116,58 183,58 162,0 244,-98 244,-294zm1395 623c-284,0 -484,-55 -599,-164 -77,-71 -116,-188 -116,-349l0 -1589 336 0 0 1441c0,156 27,251 79,286 32,21 132,34 300,39l0 336zm573 -1582c0,66 -23,122 -68,168 -45,46 -101,69 -165,69 -171,0 -256,-79 -256,-237 0,-133 81,-199 242,-199 165,0 247,66 247,199zm329 1035c0,144 -45,270 -135,377 -94,113 -211,170 -351,170l-550 0 0 -336c351,0 548,-7 587,-21 75,-27 112,-128 112,-302 0,-44 0,-109 -2,-198 -2,-88 -3,-154 -3,-197l342 0 0 507zm-35634 52938c0,63 -22,117 -68,161 -45,45 -100,67 -164,67 -166,0 -249,-76 -249,-228 0,-133 80,-200 238,-200 163,0 243,67 243,200zm952 1079c0,263 -74,477 -224,644 -156,173 -363,259 -621,259l-517 0c-231,0 -424,-87 -581,-263 -152,-168 -228,-370 -228,-602l0 -702 329 0 0 739c0,142 55,260 166,356 106,91 231,136 376,136l433 0c146,0 271,-46 375,-138 104,-92 156,-210 156,-354l0 -1074 336 0 0 999zm1593 -1912c0,66 -22,122 -67,167 -44,46 -100,69 -165,69 -172,0 -257,-79 -257,-236 0,-136 82,-204 246,-204 162,0 243,68 243,204zm16 1909c0,246 -77,457 -232,633 -162,182 -365,273 -609,273l-445 0 -56 -343 378 0c162,0 302,-39 420,-116 133,-90 200,-213 200,-368l0 -1075 344 0 0 996zm10685 -381c0,135 -50,243 -152,325 -93,76 -208,114 -345,114l-1043 0 -46 -336 1070 0c125,0 187,-44 187,-132 0,-44 -18,-85 -54,-121l-757 -803 226 -229 755 802c106,111 159,237 159,380zm1844 439c-170,0 -290,-53 -361,-159 0,281 -70,514 -209,700 -153,205 -367,307 -641,307l-436 0 -54 -336 463 0c145,0 269,-45 372,-136 108,-94 163,-214 163,-356l0 -1075 336 0 0 484c0,151 122,230 367,235l0 336zm1402 -631c0,193 -48,351 -143,474 -105,135 -251,203 -439,203 -143,0 -269,-42 -378,-126 -108,47 -298,74 -569,80l0 -336c191,0 303,-19 335,-56 10,-12 17,-98 21,-258 11,-461 211,-692 601,-692 187,0 332,75 436,224 91,131 136,293 136,487zm-294 -20c0,-241 -96,-362 -288,-362 -196,0 -293,125 -293,375 0,232 97,348 293,348 192,0 288,-121 288,-361zm8521 -362c0,148 -85,222 -254,222 -162,0 -243,-74 -243,-222 0,-137 87,-206 262,-206 156,0 235,69 235,206zm0 789c0,149 -86,224 -257,224 -67,0 -123,-20 -168,-61 -45,-42 -68,-95 -68,-163 0,-136 86,-204 260,-204 155,0 233,68 233,204zm2328 -1391c0,57 -21,104 -62,141 -41,38 -92,56 -150,56 -159,0 -239,-66 -239,-197 0,-123 74,-185 220,-185 154,0 231,62 231,185zm-646 0c0,57 -21,104 -62,141 -42,38 -92,56 -149,56 -160,0 -240,-66 -240,-197 0,-123 73,-185 218,-185 156,0 233,62 233,185zm1827 1615c-266,0 -444,-43 -533,-130 -115,87 -223,130 -325,130l-1769 0c-140,0 -256,-57 -349,-172 -88,-107 -131,-232 -131,-375l0 -508 336 0 0 461c0,96 19,163 56,201 37,38 103,57 196,57l1562 0c94,0 158,-19 194,-57 35,-38 52,-105 52,-201l0 -461 341 0 0 461c0,172 123,258 370,258l0 336zm1390 0c-137,1 -240,-4 -309,-17 -53,-21 -110,-59 -169,-114 -107,88 -214,131 -319,131l-725 0 0 -336 620 0c93,0 158,-19 194,-57 36,-38 54,-105 54,-201l0 -461 336 0 0 461c0,111 26,184 79,218 40,26 119,40 239,40l0 336zm-299 640c0,57 -20,104 -61,141 -42,38 -91,56 -148,56 -64,0 -118,-17 -163,-52 -50,-38 -75,-86 -75,-145 0,-123 72,-185 216,-185 154,0 231,62 231,185zm-642 0c0,57 -20,104 -61,141 -42,38 -91,56 -148,56 -64,0 -118,-17 -163,-52 -50,-38 -75,-86 -75,-145 0,-123 72,-185 215,-185 155,0 232,62 232,185zm3842 -640c-131,-3 -218,-11 -261,-24 -87,-24 -154,-75 -198,-155 -104,145 -233,217 -388,217 -157,0 -311,-74 -461,-221 -131,147 -294,221 -490,221 -181,0 -331,-79 -449,-236 -74,96 -198,157 -375,181 -78,11 -224,17 -437,17l0 -336 282 0c123,0 209,-16 258,-47 63,-41 95,-122 95,-244l0 -428 328 0 0 499c0,79 29,143 86,194 58,50 126,75 204,75 154,0 230,-70 230,-209l0 -559 329 0 0 496c0,78 29,144 88,196 56,51 123,76 203,76 158,0 236,-70 236,-209l0 -559 329 0 0 515c0,79 40,137 121,174 23,11 113,21 270,30l0 336zm588 -1582c0,66 -23,122 -68,168 -45,46 -101,69 -165,69 -171,0 -256,-79 -256,-237 0,-133 81,-199 242,-199 165,0 247,66 247,199zm729 1582l-110 0c-211,0 -367,-43 -466,-130 -112,87 -220,130 -323,130l-552 0 0 -336c347,0 543,-9 587,-25 74,-26 112,-125 112,-298 0,-44 0,-110 0,-198 0,-88 0,-155 0,-198l336 0 0 461c0,165 139,251 416,258l0 336zm1798 -651l-768 439c-180,104 -369,168 -567,193 -99,13 -299,19 -602,19l0 -336c434,0 740,-42 919,-127 14,-6 95,-49 243,-127 92,-50 229,-126 411,-229 -44,-92 -116,-151 -217,-175 -43,-10 -142,-15 -296,-15l-588 0 -47 -333 828 0c456,0 684,230 684,691zm-1207 1252c0,65 -23,121 -67,167 -44,46 -98,69 -164,69 -72,0 -131,-20 -178,-60 -51,-43 -77,-99 -77,-170 0,-139 82,-210 244,-210 161,0 242,69 242,204z"/>
     <path class="fil18" d="M172057 139612c738,0 1407,301 1891,784 484,485 785,1156 785,1892 0,738 -301,1407 -784,1891 -485,484 -1154,785 -1892,785 -736,0 -1407,-301 -1891,-784 -484,-485 -785,-1154 -785,-1892 0,-736 301,-1407 784,-1891 485,-484 1156,-785 1892,-785zm1355 1322c-347,-345 -827,-560 -1355,-560 -528,0 -1008,215 -1354,559 -345,347 -560,827 -560,1355 0,528 215,1008 559,1354 347,345 827,560 1355,560 528,0 1008,-215 1354,-559 345,-347 560,-827 560,-1355 0,-528 -215,-1008 -559,-1354z"/>
     <path class="fil18" d="M185988 139612c738,0 1407,301 1891,784 484,485 785,1156 785,1892 0,738 -301,1407 -784,1891 -485,484 -1154,785 -1892,785 -736,0 -1407,-301 -1891,-784 -484,-485 -785,-1154 -785,-1892 0,-736 301,-1407 784,-1891 485,-484 1156,-785 1892,-785zm1355 1322c-347,-345 -827,-560 -1355,-560 -528,0 -1008,215 -1354,559 -345,347 -560,827 -560,1355 0,528 215,1008 559,1354 347,345 827,560 1355,560 528,0 1008,-215 1354,-559 345,-347 560,-827 560,-1355 0,-528 -215,-1008 -559,-1354z"/>
     <circle class="fil19" cx="185988" cy="142288" r="1379"/>
     <rect class="fil20" x="179067" y="152264" width="22739" height="7561" rx="589" ry="472"/>
     <rect class="fil21" x="134213" y="91434" width="67837" height="261"/>
     <rect class="fil21" x="134213" y="104825" width="67837" height="261"/>
     <rect class="fil21" x="134213" y="118216" width="67837" height="261"/>
     <rect class="fil21" x="134213" y="131607" width="67837" height="261"/>
     <path class="fil21" d="M136406 127377l-198 0 0 798 -798 0 0 198 798 0 0 798 198 0 0 -798 798 0 0 -198 -798 0 0 -798zm-99 -1197c-1155,0 -2094,939 -2094,2094 0,1155 939,2094 2094,2094 1155,0 2094,-939 2094,-2094 0,-1155 -939,-2094 -2094,-2094zm0 3986c-1045,0 -1892,-847 -1892,-1892 0,-1045 847,-1892 1892,-1892 1045,0 1892,847 1892,1892 0,1045 -847,1892 -1892,1892z"/>
     <path class="fil21" d="M136406 113986l-198 0 0 798 -798 0 0 198 798 0 0 798 198 0 0 -798 798 0 0 -198 -798 0 0 -798zm-99 -1197c-1155,0 -2094,939 -2094,2094 0,1155 939,2094 2094,2094 1155,0 2094,-939 2094,-2094 0,-1155 -939,-2094 -2094,-2094zm0 3986c-1045,0 -1892,-847 -1892,-1892 0,-1045 847,-1892 1892,-1892 1045,0 1892,847 1892,1892 0,1045 -847,1892 -1892,1892z"/>
     <g>
      <path class="fil20" d="M200114 47895c-1136,0 -2206,443 -3013,1245 -801,806 -1245,1876 -1245,3013 0,1136 443,2207 1245,3013 807,802 1877,1245 3013,1245 1137,0 2207,-443 3014,-1245 801,-806 1245,-1877 1245,-3013 0,-1137 -443,-2207 -1245,-3013 -807,-802 -1877,-1245 -3014,-1245z"/>
      <path class="fil22" d="M200246 51554c0,627 -509,1131 -1131,1131 -623,0 -1132,-509 -1132,-1131 0,-656 556,-1175 1217,-1127l169 28c500,113 878,561 878,1099l-1 0zm-792 -1354c-1155,-283 -2056,877 -1627,1896 179,424 533,712 981,821l160 28c825,85 1547,-561 1547,-1391 0,-651 -453,-1203 -1061,-1354l0 0z"/>
      <path class="fil22" d="M201378 55482c0,-1250 -1014,-2264 -2263,-2264 -958,0 -1778,599 -2108,1443 66,80 132,156 203,231 250,-815 1009,-1405 1905,-1405 1103,0 1999,891 1999,1995l0 538c89,-24 179,-48 264,-76l0 -462 0 0z"/>
      <path class="fil22" d="M200572 52365c1263,-359 2537,594 2537,1919l0 509c94,-108 184,-221 264,-334l0 -175c0,-1414 -1283,-2480 -2669,-2226 -38,109 -80,208 -132,307l0 0z"/>
      <path class="fil22" d="M200775 51714c877,217 1735,-448 1735,-1358 0,-769 -627,-1396 -1396,-1396 -655,0 -1207,453 -1358,1061 85,33 165,75 245,123 100,-519 562,-915 1113,-915 623,0 1127,504 1127,1127 0,768 -745,1306 -1466,1080l0 278z"/>
     </g>
     <rect class="fil19" x="193980" y="48071" width="113" height="7965"/>
     <path class="fil16" d="M182829 52257c0,238 -69,426 -207,565 -139,138 -327,207 -565,207l-1187 0c-249,0 -401,-77 -457,-231 0,355 -90,658 -272,911 -206,283 -479,425 -819,425l-670 0c-315,0 -576,-119 -783,-359 -198,-229 -297,-503 -297,-821l0 -861 438 0 0 963c0,164 73,311 219,440 141,127 294,190 459,190l608 0c172,0 326,-61 462,-185 142,-126 214,-275 214,-445l0 -1400 448 0 0 649c0,184 136,279 408,286 129,-330 281,-610 460,-838 244,-314 501,-471 768,-471 233,0 424,108 571,326 23,34 49,78 80,133 12,33 41,117 88,253 22,64 34,152 34,263zm-428 -69c0,-87 -24,-184 -72,-289 -57,-123 -121,-184 -194,-184 -143,0 -310,112 -498,335 -150,178 -266,358 -350,541l836 0c185,0 278,-134 278,-403zm1787 841c-370,0 -630,-71 -780,-214 -101,-92 -151,-244 -151,-455l0 -2069 438 0 0 1878c0,202 34,326 102,371 42,28 172,45 391,51l0 438zm1388 -2600c0,85 -29,157 -88,216 -58,59 -130,89 -215,89 -95,0 -173,-28 -235,-84 -62,-55 -94,-129 -94,-221 0,-172 105,-257 314,-257 212,0 318,85 318,257zm1096 2600c-412,-10 -639,-105 -683,-287 -19,-73 -38,-148 -56,-226 -421,250 -726,398 -914,445 -173,46 -515,68 -1026,68l0 -438c565,0 964,-55 1198,-165 49,-22 333,-176 852,-464 -57,-118 -151,-194 -282,-228 -53,-13 -183,-19 -387,-19l-766 0 -60 -433 1079 0c595,0 892,300 892,902l-406 223c0,123 186,184 559,184l0 438zm2202 -2562c0,78 -27,142 -82,192 -56,50 -121,75 -197,75 -81,0 -152,-24 -211,-73 -65,-51 -97,-116 -97,-194 0,-157 92,-236 278,-236 206,0 309,79 309,236zm428 615c0,78 -27,142 -81,193 -55,51 -121,76 -199,76 -82,0 -153,-24 -214,-75 -63,-50 -93,-115 -93,-194 0,-155 92,-233 275,-233 208,0 312,78 312,233zm-846 0c0,74 -28,137 -82,191 -53,52 -118,78 -192,78 -83,0 -154,-24 -214,-75 -60,-50 -90,-115 -90,-194 0,-155 93,-233 279,-233 199,0 299,78 299,233zm1528 1245c0,211 -49,383 -146,518 -108,152 -264,229 -466,229 -232,0 -433,-100 -603,-299 -168,199 -346,299 -532,299 -211,0 -409,-118 -595,-354 -196,206 -388,309 -576,309l-557 0 0 -438 527 0c204,0 305,-106 305,-319l0 -617 428 0 0 646c0,105 36,190 106,256 71,65 159,99 264,99 205,0 307,-92 307,-273l0 -728 428 0 0 646c0,103 36,188 109,255 73,66 162,100 267,100 204,0 306,-92 306,-273l0 -728 428 0 0 672zm1063 702l-428 0 0 -2803 428 0 0 2803z"/>
     <path class="fil23" d="M196707 68660c-1362,0 -2643,531 -3609,1491 -960,966 -1491,2247 -1491,3609 0,1361 531,2642 1491,3608 966,960 2247,1491 3609,1491 1361,0 2642,-531 3608,-1491 960,-966 1491,-2247 1491,-3608 0,-1362 -531,-2643 -1491,-3609 -966,-960 -2247,-1491 -3608,-1491zm1355 3269c0,746 -610,1356 -1355,1356 -746,0 -1356,-610 -1356,-1356 0,-745 610,-1355 1356,-1355 745,0 1355,610 1355,1355zm-3027 0c0,921 745,1672 1672,1672 920,0 1671,-751 1671,-1672 0,-920 -751,-1671 -1671,-1671 -927,0 -1672,751 -1672,1671zm1672 1994c-1497,0 -2711,1214 -2711,2711l0 1067c-237,-164 -463,-350 -672,-559 -904,-904 -1401,-2107 -1401,-3383 0,-1276 497,-2479 1401,-3383 903,-903 2106,-1400 3383,-1400 1276,0 2479,497 3382,1400 904,904 1401,2107 1401,3383 0,1276 -497,2479 -1401,3383 -209,209 -434,395 -672,559l0 -1067c0,-1497 -1214,-2711 -2710,-2711zm-2389 3981l0 -1270c0,-1322 1073,-2395 2389,-2395 1315,0 2388,1073 2388,2395l0 1270c-717,412 -1536,638 -2388,638 -853,0 -1672,-226 -2389,-638z"/>
     <path class="fil24" d="M171256 77428l-153 0c-126,0 -268,-77 -425,-231 -101,154 -249,231 -446,231l-1042 0 -46 -336 1068 0c123,0 184,-42 184,-127 0,-47 -18,-89 -52,-125l-755 -805 227 -228 1010 1071c88,93 148,149 181,167 56,31 139,47 249,47l0 336zm1037 -547c0,146 -43,271 -129,377 -91,113 -208,170 -350,170l-717 0 0 -336 612 0c93,0 158,-19 194,-57 36,-38 54,-105 54,-201l0 -461 336 0 0 508zm-57 1189c0,57 -21,105 -63,143 -42,37 -92,56 -151,56 -62,0 -116,-17 -160,-50 -49,-38 -73,-88 -73,-149 0,-125 71,-187 213,-187 156,0 234,62 234,187zm-642 0c0,57 -21,105 -63,143 -42,37 -92,56 -151,56 -62,0 -116,-17 -160,-50 -49,-38 -73,-88 -73,-149 0,-125 71,-187 213,-187 156,0 234,62 234,187zm3117 -642l-153 0c-126,0 -268,-77 -425,-231 -101,154 -249,231 -446,231l-1042 0 -46 -336 1068 0c123,0 184,-42 184,-127 0,-47 -18,-89 -52,-125l-755 -805 227 -228 1010 1071c88,93 148,149 181,167 56,31 139,47 249,47l0 336zm1763 -651l-768 439c-180,104 -369,168 -567,193 -99,13 -299,19 -602,19l0 -336c434,0 740,-42 919,-127 14,-6 95,-49 243,-127 92,-50 229,-126 411,-229 -44,-92 -116,-151 -217,-175 -43,-10 -142,-15 -296,-15l-588 0 -47 -333 828 0c456,0 684,230 684,691zm-1207 1252c0,65 -23,121 -67,167 -44,46 -98,69 -164,69 -72,0 -131,-20 -178,-60 -51,-43 -77,-99 -77,-170 0,-139 82,-210 244,-210 161,0 242,69 242,204zm3907 -1040c0,135 -50,243 -152,325 -93,76 -208,114 -345,114l-1043 0 -46 -336 1070 0c125,0 187,-44 187,-132 0,-44 -18,-85 -54,-121l-757 -803 226 -229 755 802c106,111 159,237 159,380zm1844 439c-170,0 -290,-53 -361,-159 0,281 -70,514 -209,700 -153,205 -367,307 -641,307l-436 0 -54 -336 463 0c145,0 269,-45 372,-136 108,-94 163,-214 163,-356l0 -1075 336 0 0 484c0,151 122,230 367,235l0 336zm1016 -2048c0,64 -23,119 -69,164 -47,46 -102,69 -167,69 -164,0 -246,-78 -246,-233 0,-133 79,-199 237,-199 163,0 245,66 245,199zm424 1518c8,144 -45,270 -158,377 -111,102 -239,153 -385,153l-1009 0 0 -336 1012 0c123,0 185,-83 185,-249 -175,-1 -372,-12 -593,-32 -186,-68 -279,-221 -279,-458 0,-163 51,-295 154,-395 102,-100 235,-151 398,-151 134,0 255,36 367,107 178,112 274,300 288,564l20 420zm-374 -372c-9,-250 -114,-375 -316,-375 -149,0 -223,60 -223,180 0,96 28,156 84,178 23,10 93,16 209,17l246 0zm3534 -713c0,57 -21,104 -62,141 -41,38 -92,56 -150,56 -159,0 -239,-66 -239,-197 0,-123 74,-185 220,-185 154,0 231,62 231,185zm-646 0c0,57 -21,104 -62,141 -42,38 -92,56 -149,56 -160,0 -240,-66 -240,-197 0,-123 73,-185 218,-185 156,0 233,62 233,185zm1827 1615c-266,0 -444,-43 -533,-130 -115,87 -223,130 -325,130l-1769 0c-140,0 -256,-57 -349,-172 -88,-107 -131,-232 -131,-375l0 -508 336 0 0 461c0,96 19,163 56,201 37,38 103,57 196,57l1562 0c94,0 158,-19 194,-57 35,-38 52,-105 52,-201l0 -461 341 0 0 461c0,172 123,258 370,258l0 336zm1319 0l-104 0c-190,0 -336,-43 -435,-130 -112,87 -219,130 -321,130l-552 0 0 -336c347,0 543,-9 587,-25 74,-26 112,-126 112,-300 0,-44 0,-109 0,-197 0,-88 0,-154 0,-197l340 0 0 461c0,110 38,182 112,218 45,22 132,35 261,40l0 336zm-793 608c0,66 -23,121 -68,166 -44,45 -100,67 -165,67 -169,0 -253,-78 -253,-233 0,-133 81,-199 241,-199 163,0 245,66 245,199zm1721 -2573c0,60 -21,110 -63,149 -43,39 -94,58 -153,58 -65,0 -120,-18 -165,-54 -49,-39 -74,-90 -74,-153 0,-124 72,-187 216,-187 159,0 239,63 239,187zm325 473c0,57 -22,107 -65,147 -43,40 -93,61 -151,61 -63,0 -118,-19 -164,-56 -50,-40 -75,-91 -75,-152 0,-124 73,-186 219,-186 157,0 236,62 236,186zm-646 0c0,57 -21,107 -63,147 -43,40 -93,61 -150,61 -63,0 -118,-19 -164,-56 -49,-40 -74,-91 -74,-152 0,-124 72,-186 218,-186 155,0 233,62 233,186zm462 945c0,146 -43,271 -129,377 -91,113 -208,170 -350,170l-717 0 0 -336 612 0c93,0 158,-19 194,-57 36,-38 54,-105 54,-201l0 -460 336 0 0 507z"/>
     <path class="fil16" d="M166574 71685l-338 0 17 179c0,211 -81,390 -241,535 -157,138 -343,208 -557,208l-562 0c-288,0 -514,-105 -679,-316 -150,-193 -225,-438 -225,-734l0 -653 366 0 0 793c0,174 61,310 182,409 113,91 258,136 436,136l468 0c130,0 237,-35 321,-104 89,-74 133,-176 133,-305 0,-78 -111,-127 -334,-144 -41,-4 -182,-6 -424,-6l-33 -363 1470 0 0 365zm1346 -2158c0,63 -22,115 -66,155 -44,39 -98,59 -161,59 -170,0 -255,-71 -255,-214 0,-134 77,-201 233,-201 166,0 249,67 249,201zm-694 0c0,63 -23,115 -68,155 -45,39 -100,59 -164,59 -169,0 -254,-71 -254,-214 0,-134 78,-201 232,-201 170,0 254,67 254,201zm1126 2158c-27,-7 -99,-11 -215,-12l-361 -6c-126,-1 -241,-27 -346,-78 -112,64 -459,96 -1039,96l0 -365 540 0c-133,-151 -199,-311 -199,-483 0,-190 62,-340 186,-450 120,-106 276,-160 469,-160 181,0 329,65 441,193 111,122 166,274 166,458 0,169 -43,316 -130,442l488 0 0 365zm-690 -781c0,-81 -30,-155 -88,-223 -59,-67 -129,-101 -209,-101 -80,0 -147,27 -204,81 -56,53 -84,119 -84,197 0,149 121,277 366,383 146,-110 219,-222 219,-337zm2164 781c-149,1 -260,-5 -335,-18 -58,-24 -120,-64 -184,-124 -116,95 -232,142 -347,142l-787 0 0 -365 674 0c101,0 171,-21 210,-62 39,-42 59,-114 59,-218l0 -501 365 0 0 501c0,120 29,199 86,237 44,28 130,43 259,43l0 365zm-324 695c0,62 -22,113 -67,154 -45,40 -98,61 -161,61 -69,0 -128,-19 -177,-57 -54,-41 -81,-94 -81,-158 0,-134 78,-201 234,-201 168,0 252,67 252,201zm-698 0c0,62 -22,113 -67,154 -45,40 -98,61 -160,61 -70,0 -128,-19 -178,-57 -54,-41 -81,-94 -81,-158 0,-134 79,-201 234,-201 169,0 252,67 252,201zm2351 -2853c0,63 -22,115 -66,155 -44,39 -98,59 -161,59 -170,0 -255,-71 -255,-214 0,-134 77,-201 233,-201 166,0 249,67 249,201zm-694 0c0,63 -23,115 -68,155 -45,39 -100,59 -164,59 -169,0 -254,-71 -254,-214 0,-134 78,-201 232,-201 170,0 254,67 254,201zm1126 2158c-27,-7 -99,-11 -215,-12l-361 -6c-126,-1 -241,-27 -346,-78 -112,64 -459,96 -1039,96l0 -365 540 0c-133,-151 -199,-311 -199,-483 0,-190 62,-340 186,-450 120,-106 276,-160 469,-160 181,0 329,65 441,193 111,122 166,274 166,458 0,169 -43,316 -130,442l488 0 0 365zm-690 -781c0,-81 -30,-155 -88,-223 -59,-67 -129,-101 -209,-101 -80,0 -147,27 -204,81 -56,53 -84,119 -84,197 0,149 121,277 366,383 146,-110 219,-222 219,-337zm2614 76l-836 476c-186,107 -391,176 -616,204 -92,12 -310,20 -655,25l0 -365 292 0c267,0 515,-52 743,-156 40,-18 264,-141 675,-369 -40,-90 -122,-152 -248,-186 -33,-8 -349,-16 -949,-24l-51 -358 901 0c493,0 741,251 744,753zm2933 228c0,146 -55,264 -165,353 -101,82 -227,124 -375,124l-1133 0 -51 -365 1163 0c136,0 203,-48 203,-143 0,-49 -19,-93 -58,-132l-823 -872 245 -249 821 871c115,120 173,258 173,413zm845 477l-357 0 0 -2338 357 0 0 2338zm2325 0c-184,0 -315,-57 -392,-172 0,305 -76,558 -228,760 -166,223 -398,334 -696,334l-474 0 -58 -365 503 0c157,0 292,-50 404,-149 118,-102 177,-231 177,-387l0 -1167 365 0 0 525c0,165 133,250 399,256l0 365zm1104 -2225c0,70 -25,129 -75,178 -51,49 -111,74 -182,74 -178,0 -266,-84 -266,-252 0,-145 86,-217 257,-217 177,0 266,72 266,217zm461 1649c8,157 -49,294 -172,410 -121,111 -260,166 -418,166l-1096 0 0 -365 1099 0c134,0 201,-90 201,-270 -190,-2 -404,-14 -645,-35 -201,-75 -302,-240 -302,-498 0,-177 55,-320 167,-430 110,-108 255,-163 432,-163 146,0 278,39 399,116 193,122 298,326 313,612l22 457zm-407 -404c-10,-271 -124,-407 -343,-407 -162,0 -243,65 -243,195 0,105 31,169 92,193 25,11 102,18 227,19l267 0zm1395 980l-357 0 0 -2338 357 0 0 2338zm3558 -599c0,184 -62,330 -185,441 -124,111 -279,166 -463,166 -189,0 -341,-64 -459,-192 -115,-124 -172,-281 -172,-471l0 -446c-42,-2 -67,-4 -75,-4 -95,0 -175,37 -239,111 -65,75 -97,159 -97,253l0 1663 -357 0 0 -1618c0,-234 61,-417 184,-551 127,-140 307,-211 540,-211l740 0c243,0 408,89 496,265 58,121 87,319 87,594zm-357 -78c0,-196 -19,-312 -58,-349 -45,-41 -213,-66 -507,-75l0 507c0,70 33,128 100,174 61,42 127,63 200,63 176,0 265,-107 265,-320zm2405 677c-184,0 -315,-57 -392,-172 0,305 -76,558 -228,760 -166,223 -398,334 -696,334l-474 0 -58 -365 503 0c157,0 292,-50 404,-149 118,-102 177,-231 177,-387l0 -1167 365 0 0 525c0,165 133,250 399,256l0 365zm1104 -2225c0,70 -25,129 -75,178 -51,49 -111,74 -182,74 -178,0 -266,-84 -266,-252 0,-145 86,-217 257,-217 177,0 266,72 266,217zm461 1649c8,157 -49,294 -172,410 -121,111 -260,166 -418,166l-1096 0 0 -365 1099 0c134,0 201,-90 201,-270 -190,-2 -404,-14 -645,-35 -201,-75 -302,-240 -302,-498 0,-177 55,-320 167,-430 110,-108 255,-163 432,-163 146,0 278,39 399,116 193,122 298,326 313,612l22 457zm-407 -404c-10,-271 -124,-407 -343,-407 -162,0 -243,65 -243,195 0,105 31,169 92,193 25,11 102,18 227,19l267 0z"/>
     <path class="fil25" d="M189523 155485c0,57 -21,104 -62,141 -41,38 -92,56 -150,56 -159,0 -239,-66 -239,-197 0,-123 74,-185 220,-185 154,0 231,62 231,185zm-646 0c0,57 -21,104 -62,141 -42,38 -92,56 -149,56 -160,0 -240,-66 -240,-197 0,-123 73,-185 218,-185 156,0 233,62 233,185zm1827 1615c-266,0 -444,-43 -533,-130 -115,87 -223,130 -325,130l-1769 0c-140,0 -256,-57 -349,-172 -88,-107 -131,-232 -131,-375l0 -508 336 0 0 461c0,96 19,163 56,201 37,38 103,57 196,57l1562 0c94,0 158,-19 194,-57 35,-38 52,-105 52,-201l0 -461 341 0 0 461c0,172 123,258 370,258l0 336zm1319 0l-104 0c-190,0 -336,-43 -435,-130 -112,87 -219,130 -321,130l-552 0 0 -336c347,0 543,-9 587,-25 74,-26 112,-126 112,-300 0,-44 0,-109 0,-197 0,-88 0,-154 0,-197l340 0 0 461c0,110 38,182 112,218 45,22 132,35 261,40l0 336zm-793 608c0,66 -23,121 -68,166 -44,45 -100,67 -165,67 -169,0 -253,-78 -253,-233 0,-133 81,-199 241,-199 163,0 245,66 245,199zm1721 -2573c0,60 -21,110 -63,149 -43,39 -94,58 -153,58 -65,0 -120,-18 -165,-54 -49,-39 -74,-90 -74,-153 0,-124 72,-187 216,-187 159,0 239,63 239,187zm325 473c0,57 -22,107 -65,147 -43,40 -93,61 -151,61 -63,0 -118,-19 -164,-56 -50,-40 -75,-91 -75,-152 0,-124 73,-186 219,-186 157,0 236,62 236,186zm-646 0c0,57 -21,107 -63,147 -43,40 -93,61 -150,61 -63,0 -118,-19 -164,-56 -49,-40 -74,-91 -74,-152 0,-124 72,-186 218,-186 155,0 233,62 233,186zm462 945c0,146 -43,271 -129,377 -91,113 -208,170 -350,170l-717 0 0 -336 612 0c93,0 158,-19 194,-57 36,-38 54,-105 54,-201l0 -460 336 0 0 507z"/>
     <g>
      <polygon class="fil26" points="134080,50092 134080,50092 134080,50092 135409,48764 135409,50092 135409,50092 135409,51421 135409,52750 134080,52750 134080,51421 "/>
      <polygon class="fil27" points="160658,46106 159329,46106 158000,46106 156671,46106 155342,47435 156671,47435 158000,47435 159329,47435 "/>
      <polygon class="fil27" points="156671,48764 155342,50093 156671,50093 158000,50093 159329,50093 160658,48764 159329,48764 158000,48764 "/>
      <polygon class="fil26" points="155342,51421 155342,52750 156671,51421 156671,50093 155342,50093 156671,48764 156671,47435 155342,47435 155342,48764 155342,50093 "/>
      <path class="fil27" d="M158000 51421l-1329 0 0 1329 1329 0 1329 0 1329 -1329 -1329 0 -1329 0zm-2658 1329l1329 0 0 -1329 -1329 1329z"/>
      <polygon class="fil27" points="155342,48764 154014,48764 152685,48764 151356,50093 152685,50093 154014,50093 155342,50093 "/>
      <polygon class="fil26" points="152685,50093 151356,50093 151356,51421 151356,52750 152685,51421 "/>
      <polygon class="fil27" points="151356,51421 150027,51421 148698,51421 147369,51421 146040,52750 147369,52750 148698,52750 150027,52750 151356,52750 "/>
      <rect class="fil27" x="148698" y="46106" width="1329" height="1329"/>
      <polygon class="fil26" points="144711,51421 144711,52750 146040,51421 146040,50093 144711,50093 "/>
      <polygon class="fil27" points="143382,51421 142053,51421 142053,52750 143382,52750 144711,52750 144711,51421 "/>
      <polygon class="fil27" points="146040,50093 144711,50093 146040,48764 147369,48764 148698,48764 150027,48764 151356,48764 150027,50093 148698,50093 147369,50093 "/>
      <polygon class="fil27" points="139396,52750 140724,52750 140724,51421 139396,51421 138067,51421 136738,51421 136738,52750 138067,52750 "/>
      <polygon class="fil27" points="139396,48764 140724,48764 142053,48764 143382,48764 142053,50093 140724,50093 139396,50093 138067,50093 136738,50093 138067,48764 "/>
      <polygon class="fil27" points="136738,46106 135409,46106 134080,46106 132751,46106 131422,46106 130093,46106 130093,47435 131422,47435 132751,47435 134080,47435 135409,47435 136738,47435 138067,46106 "/>
      <polygon class="fil26" points="131422,51421 132751,51421 132751,52750 131422,52750 130093,52750 130093,51421 "/>
      <polygon class="fil27" points="130093,50092 131422,50092 132751,50092 134080,50092 135409,48764 134080,48764 132751,48764 131422,48764 130093,48764 "/>
      <polygon class="fil27" points="140724,46106 142053,46106 143382,46106 144711,46106 146040,46106 144711,47435 143382,47435 142053,47435 "/>
      <polygon class="fil26" points="144711,50093 144711,48764 144711,48764 144711,47435 146040,46106 146040,47435 146040,48764 146040,48764 "/>
      <polygon class="fil26" points="138067,48764 136738,50093 136738,48764 136738,47435 138067,46106 138067,47435 "/>
      <path class="fil28" d="M167638 51421l0 1329 -5315 0 0 -1329 5315 0zm-5315 -3986l0 -1329c2658,0 5315,0 7973,0l-1329 1329c-2215,0 -4429,0 -6644,0zm7973 1329c0,1328 0,2657 0,3986l-1329 0 0 -2658 0 0 -6644 0 0 -1328c2658,0 5315,0 7973,0z"/>
     </g>
     <g>
      <circle class="fil28" cx="137945" cy="176844" r="7852"/>
      <path class="fil9" d="M139426 179066l0 1481 -5926 0 0 -1481 5926 0zm-5926 -4445l0 -1481c2963,0 5926,0 8889,0l-1481 1481c-2470,0 -4939,0 -7408,0zm8889 1482c0,1481 0,2963 0,4444l-1481 0 0 -2963 0 0 -7408 0 0 -1481c2963,0 5926,0 8889,0z"/>
     </g>
    </g>
    <path class="fil29" d="M234549 119767c-314,-508 -978,-663 -1481,-346 -505,317 -658,987 -344,1496 314,509 978,666 1482,347 504,-317 657,-987 343,-1497z"/>
    <path class="fil25" d="M299823 130395c193,313 601,409 911,214 310,-195 404,-608 211,-920 -193,-314 -601,-410 -911,-214 -310,195 -405,607 -211,920z"/>
    <path class="fil4" d="M232867 26364c193,313 601,408 911,213 310,-195 404,-607 211,-920 -193,-313 -601,-409 -911,-213 -310,195 -404,607 -211,920z"/>
    <path class="fil25" d="M266413 28469c319,517 992,674 1504,352 512,-322 668,-1002 348,-1519 -318,-517 -992,-676 -1504,-352 -512,322 -667,1003 -348,1519z"/>
    <path class="fil29" d="M283979 68253c282,458 879,597 1332,312 454,-285 591,-888 309,-1346 -283,-457 -879,-596 -1332,-311 -454,285 -591,887 -309,1345z"/>
    <path class="fil25" d="M243328 69687c193,313 601,408 911,213 310,-195 404,-607 211,-920 -193,-313 -601,-409 -911,-213 -310,195 -404,607 -211,920z"/>
    <path class="fil30" d="M218238 28011l0 102451c808,-327 1630,-627 2464,-900 1773,-734 3612,-1336 5507,-1794l0 -93786 0 -3533 0 -4770c0,-5090 -1838,-9724 -4797,-13082 -2967,-3365 -7066,-5457 -11570,-5457l-21451 0c-853,324 -1701,660 -2548,1008l16027 0c4505,0 8603,2091 11570,5457 2959,3358 4798,7991 4798,13081l0 1325z"/>
    <path class="fil31" d="M3938 49701c3051,102 5497,2607 5517,5707l49 0c20,-3100 2464,-5605 5516,-5707 -3064,-102 -5519,-2627 -5520,-5745l-41 0c-2,3118 -2458,5643 -5521,5745z"/>
   </g>
  </g>
 </g>
</svg>
