<?xml version="1.0" encoding="UTF-8"?>
<!DOCTYPE svg PUBLIC "-//W3C//DTD SVG 1.1//EN" "http://www.w3.org/Graphics/SVG/1.1/DTD/svg11.dtd">
<!-- Creator: CorelDRAW X7 -->
<svg xmlns="http://www.w3.org/2000/svg" xml:space="preserve" width="100%" height="100%" version="1.1" style="shape-rendering:geometricPrecision; text-rendering:geometricPrecision; image-rendering:optimizeQuality; fill-rule:evenodd; clip-rule:evenodd"
viewBox="0 0 33132 22946"
 xmlns:xlink="http://www.w3.org/1999/xlink">
 <defs>
  <style type="text/css">
   <![CDATA[
    .fil0 {fill:none}
    .fil5 {fill:#D2AE6D}
    .fil22 {fill:#7099FF}
    .fil24 {fill:#8480BC}
    .fil23 {fill:#A4DBDD}
    .fil20 {fill:#C0CDF8}
    .fil3 {fill:#E3C07B}
    .fil1 {fill:#FCE9CA}
    .fil2 {fill:#FCF1DC}
    .fil4 {fill:white}
    .fil15 {fill:#D2AE6D;fill-rule:nonzero}
    .fil16 {fill:#B5E1E2;fill-rule:nonzero}
    .fil13 {fill:#79C9F0;fill-rule:nonzero}
    .fil17 {fill:#2195CA;fill-rule:nonzero}
    .fil21 {fill:#2195CA;fill-rule:nonzero}
    .fil18 {fill:#2688C4;fill-rule:nonzero}
    .fil10 {fill:#494599;fill-rule:nonzero}
    .fil6 {fill:#5C56A2;fill-rule:nonzero}
    .fil8 {fill:#79C9F0;fill-rule:nonzero}
    .fil11 {fill:#8480BC;fill-rule:nonzero}
    .fil26 {fill:#D2AE6D;fill-rule:nonzero}
    .fil19 {fill:#E3C07B;fill-rule:nonzero}
    .fil7 {fill:#E6E9FF;fill-rule:nonzero}
    .fil25 {fill:#F6F7FF;fill-rule:nonzero}
    .fil9 {fill:#FFCFD3;fill-rule:nonzero}
    .fil12 {fill:white;fill-rule:nonzero}
    .fil14 {fill:white;fill-rule:nonzero}
   ]]>
  </style>
 </defs>
 <g id="Layer_x0020_1">
  <metadata id="CorelCorpID_0Corel-Layer"/>
  <g id="_2565888808320">
   <rect class="fil0" width="33132" height="22946"/>
   <g>
    <circle class="fil1" transform="matrix(-0.846356 -0.737138 0.737138 -0.846356 13772.8 11473)" r="9796"/>
    <circle class="fil2" transform="matrix(-0.171941 -0.149753 0.149753 -0.171941 28120.3 17835.9)" r="9796"/>
    <g>
     <g>
      <circle class="fil3" cx="23336" cy="6537" r="3660"/>
      <path class="fil4" d="M24027 7573l0 690 -2762 0 0 -690 2762 0zm-2762 -2072l0 -691c1381,0 2762,0 4143,0l-691 691c-1150,0 -2301,0 -3452,0zm4143 690c0,691 0,1382 0,2072l-691 0 0 -1381 0 0 -3452 0 0 -691c1381,0 2762,0 4143,0z"/>
     </g>
     <path class="fil3" d="M8882 16031c0,-153 897,-277 2003,-277 1106,0 2003,124 2003,277 0,153 -897,277 -2003,277 -1106,0 -2003,-124 -2003,-277z"/>
     <path class="fil3" d="M21955 15957l2275 -44 -1892 836 -2305 -184c-240,106 -959,184 -1810,184 -1046,0 -1894,-117 -1894,-262 0,-69 192,-131 505,-178l-4406 -352 9527 0z"/>
     <path class="fil3" d="M21868 19698c0,-72 423,-131 944,-131 521,0 943,59 943,131 0,72 -422,130 -943,130 -521,0 -944,-58 -944,-130z"/>
     <polygon class="fil5" points="8924,18214 15346,17706 16049,17727 14297,18476 "/>
     <polygon class="fil5" points="11401,19530 17823,19022 18526,19043 16775,19792 "/>
     <polygon class="fil3" points="20974,12922 28013,13010 21955,15957 12428,15957 "/>
     <polygon class="fil6" points="21955,15957 21414,15957 21414,6191 21955,6191 "/>
     <polygon class="fil7" points="21717,15957 12428,15957 12428,6191 21717,6191 "/>
     <polygon class="fil8" points="21717,6952 12428,6952 12428,6191 21717,6191 "/>
     <path class="fil9" d="M22494 16963c-24,88 14,230 102,254 88,24 193,-78 217,-167 24,-88 -28,-179 -116,-203 -88,-24 -179,28 -203,116z"/>
     <path class="fil10" d="M22612 16912c-18,-5 -44,-17 -53,-34 -1,-2 -2,-3 -2,-5 39,-28 90,-40 140,-26 88,24 140,115 116,203 -17,63 -76,133 -140,159 2,-17 6,-35 10,-52 19,-70 39,-139 61,-208 -45,-9 -89,-21 -132,-37z"/>
     <path class="fil9" d="M22715 17047c12,-9 28,-13 42,-7 3,1 6,3 8,6 7,6 9,16 8,25 -2,26 -23,48 -48,55 -7,2 -14,4 -21,2 -8,-1 -15,-4 -19,-10 -15,-22 13,-59 30,-71z"/>
     <polygon class="fil6" points="22981,18195 22892,19606 22794,19606 22712,18206 22624,18210 22571,19641 22496,19639 22380,18220 22363,18045 22979,18053 "/>
     <polygon class="fil6" points="22892,19606 23107,19630 23099,19663 22785,19663 22794,19606 "/>
     <polygon class="fil6" points="22571,19641 22571,19681 22276,19692 22276,19655 22496,19639 "/>
     <path class="fil10" d="M22652 17083c-54,5 -96,-49 -150,-56 -3,0 -7,0 -10,1 -4,2 -6,6 -8,10 -7,13 -14,27 -21,40 -7,13 -14,27 -17,42 -3,18 -1,36 2,54 2,14 5,29 12,42 11,23 33,40 57,49 24,8 51,10 76,8 18,-2 36,-5 51,-13 35,-18 56,-59 50,-97 -1,-10 -4,-19 -3,-29 1,-9 6,-18 10,-26 5,-9 41,-56 13,-56 -8,0 -20,14 -28,19 -10,6 -22,10 -34,12z"/>
     <path class="fil11" d="M10461 15216l762 0c18,0 34,-10 41,-26 7,-16 4,-35 -8,-48l-733 -791 -65 59 665 718 -662 0 0 88z"/>
     <polygon class="fil6" points="10304,15895 11400,15895 11400,15109 10304,15109 "/>
     <path class="fil11" d="M10461 11965l762 0c18,0 34,-10 41,-26 7,-16 4,-35 -8,-48l-733 -792 -65 60 665 718 -662 0 0 88z"/>
     <path class="fil11" d="M10461 12778l762 0c18,0 34,-10 41,-27 7,-16 4,-34 -8,-47l-733 -792 -65 60 665 718 -662 0 0 88z"/>
     <path class="fil11" d="M10461 13591l762 0c18,0 34,-11 41,-27 7,-16 4,-34 -8,-47l-733 -792 -65 60 665 718 -662 0 0 88z"/>
     <path class="fil11" d="M10461 14404l762 0c18,0 34,-11 41,-27 7,-16 4,-35 -8,-47l-733 -792 -65 60 665 718 -662 0 0 88z"/>
     <path class="fil11" d="M10461 11172l762 0c18,0 34,-11 41,-27 7,-16 4,-34 -8,-47l-733 -792 -65 60 665 718 -662 0 0 88z"/>
     <path class="fil11" d="M10461 10378l762 0c18,0 34,-10 41,-26 7,-16 4,-35 -8,-47l-733 -792 -65 60 665 717 -662 0 0 88z"/>
     <path class="fil11" d="M10461 9585l762 0c18,0 34,-10 41,-26 7,-16 4,-35 -8,-48l-733 -792 -65 60 665 718 -662 0 0 88z"/>
     <path class="fil11" d="M10461 8792l762 0c18,0 34,-10 41,-27 7,-16 4,-34 -8,-47l-733 -792 -65 60 665 718 -662 0 0 88z"/>
     <path class="fil11" d="M10461 7999l762 0c18,0 34,-11 41,-27 7,-16 4,-35 -8,-47l-733 -792 -65 60 665 718 -662 0 0 88z"/>
     <path class="fil11" d="M10461 7205l762 0c18,0 34,-10 41,-26 7,-16 4,-35 -8,-48l-733 -791 -65 59 665 718 -662 0 0 88z"/>
     <polygon class="fil10" points="9930,16100 11774,16100 11774,15755 9930,15755 "/>
     <path class="fil12" d="M20606 6786l-2303 0c-79,0 -144,-65 -144,-144l0 -102c0,-79 65,-143 144,-143l2303 0c79,0 144,64 144,143l0 102c0,79 -65,144 -144,144z"/>
     <polygon class="fil13" points="8926,18082 8924,18214 14202,18284 15346,17706 15347,17574 "/>
     <polygon class="fil13" points="14202,18284 8924,18214 10067,17635 15346,17706 "/>
     <polygon class="fil14" points="14204,18152 8926,18082 10069,17503 15347,17574 "/>
     <polygon class="fil15" points="12978,17644 10078,17605 10164,17561 13064,17600 "/>
     <polygon class="fil15" points="12762,17753 9862,17715 9948,17671 12848,17709 "/>
     <polygon class="fil15" points="12554,17858 9654,17820 9741,17776 12641,17814 "/>
     <polygon class="fil15" points="12356,17959 9455,17920 9542,17876 12442,17915 "/>
     <polygon class="fil16" points="14200,18069 12324,18044 13198,17602 15073,17627 "/>
     <polygon class="fil17" points="11385,19371 11384,19503 16662,19573 17805,18995 17807,18863 "/>
     <polygon class="fil17" points="16662,19573 11384,19503 12527,18925 17805,18995 "/>
     <polygon class="fil14" points="16664,19441 11385,19371 12529,18793 17807,18863 "/>
     <polygon class="fil13" points="15438,18933 12537,18894 12624,18851 15524,18889 "/>
     <polygon class="fil13" points="15221,19042 12321,19004 12408,18960 15308,18999 "/>
     <polygon class="fil13" points="15014,19147 12114,19109 12200,19065 15100,19103 "/>
     <polygon class="fil13" points="14815,19248 11915,19209 12001,19166 14902,19204 "/>
     <polygon class="fil13" points="16660,19358 14784,19333 15657,18891 17533,18916 "/>
     <polygon class="fil8" points="21414,7863 18115,7863 18115,7511 21414,7511 "/>
     <polygon class="fil8" points="21414,9650 18115,9650 18115,8171 21414,8171 "/>
     <path class="fil6" d="M11194 6217l-684 0 0 9267 684 0 0 -9267zm-772 -88l860 0 0 9443 -860 0 0 -9443z"/>
     <path class="fil18" d="M10461 6412l762 0c18,0 34,-10 41,-26 7,-16 4,-35 -8,-48l-733 -792 -65 60 665 718 -662 0 0 88z"/>
     <polygon class="fil19" points="10422,6428 11817,6428 11817,5252 10422,5252 "/>
     <polygon class="fil19" points="8326,5927 9722,5927 9722,5251 8326,5251 "/>
     <path class="fil11" d="M13945 4952c10,0 19,-7 21,-16 4,-12 -3,-24 -14,-27l-3257 -993c-5,-2 -10,-2 -15,0l-1543 652c-12,5 -17,17 -12,29 5,11 18,16 29,11l1536 -648 3249 991c2,0 4,1 6,1z"/>
     <path class="fil11" d="M11201 5329c5,0 11,-1 16,-3 22,-9 34,-34 25,-57l-513 -1349c-7,-18 -25,-30 -44,-28 -20,1 -36,16 -40,35l-265 1316c-5,24 11,47 34,52 24,4 48,-11 52,-35l235 -1166 459 1206c7,18 23,29 41,29z"/>
     <path class="fil19" d="M10600 3935c0,49 39,89 88,89 49,0 89,-40 89,-89 0,-49 -40,-88 -89,-88 -49,0 -88,39 -88,88z"/>
     <path class="fil6" d="M8350 5337l6891 0c24,0 44,-19 44,-44 0,-24 -20,-44 -44,-44l-6891 0c-25,0 -44,20 -44,44 0,25 19,44 44,44z"/>
     <path class="fil6" d="M11116 5326c5,0 11,-2 15,-7l368 -367 3369 0 345 345c9,9 23,9 31,0 9,-8 9,-22 0,-31l-358 -358 -3406 0 -380 380c-8,9 -8,23 0,31 4,5 10,7 16,7z"/>
     <path class="fil6" d="M8320 5326c8,0 16,-4 20,-12l367 -702 892 0 346 680c6,11 19,15 30,9 10,-5 15,-18 9,-29l-358 -704 -945 0 -380 726c-6,10 -2,24 9,29 3,2 7,3 10,3z"/>
     <path class="fil6" d="M12321 5330c4,0 9,-2 13,-5l432 -349 0 326c0,13 10,22 22,22 12,0 22,-9 22,-22l0 -372c0,-9 -5,-16 -12,-20 -8,-4 -17,-3 -24,3l-467 378c-10,8 -11,21 -4,31 5,5 11,8 18,8z"/>
     <path class="fil6" d="M11903 5330c5,0 10,-2 14,-5l432 -349 0 326c0,13 9,22 22,22 12,0 22,-9 22,-22l0 -372c0,-9 -5,-16 -13,-20 -7,-4 -17,-3 -23,3l-468 378c-9,8 -11,21 -3,31 4,5 10,8 17,8z"/>
     <path class="fil6" d="M11485 5330c5,0 10,-2 14,-5l432 -349 0 326c0,13 10,22 22,22 12,0 22,-9 22,-22l0 -372c0,-9 -5,-16 -13,-20 -7,-4 -16,-3 -23,3l-468 378c-9,8 -11,21 -3,31 4,5 11,8 17,8z"/>
     <path class="fil6" d="M9016 5330c6,0 12,-3 17,-8l561 -662 0 642c0,13 10,22 22,22 12,0 22,-9 22,-22l0 -702c0,-9 -6,-17 -15,-20 -8,-4 -18,-1 -24,6l-600 708c-8,9 -7,23 3,31 4,3 9,5 14,5z"/>
     <path class="fil6" d="M8584 5330c7,0 14,-3 19,-10l427 -647 0 629c0,13 10,22 22,22 12,0 22,-9 22,-22l0 -702c0,-10 -6,-18 -15,-21 -10,-3 -20,1 -25,9l-468 708c-7,10 -4,24 6,30 4,3 8,4 12,4z"/>
     <path class="fil20" d="M18628 12925l1320 0 0 132 -93 0 482 2900 -44 0 -56 -332 -866 0 -56 332 -44 0 55 -332 -116 0 55 332 -45 0 -55 -332 -867 0 -55 332 -45 0 483 -2900 -53 0 0 -132zm1125 132l-970 0 107 647 755 0 108 -647zm-115 691l-740 0 70 426 599 0 71 -426zm-78 470l-585 0 71 425 443 0 71 -425zm-78 469l-428 0 70 425 287 0 71 -425zm-78 469l-272 0 70 425 131 0 71 -425zm-558 -1452l-108 -647 -13 0 -107 647 228 0zm952 -647l-108 647 228 0 -108 -647 -12 0zm-115 691l-71 426 384 0 -71 -426 -242 0zm320 470l-398 0 -71 425 540 0 -71 -425zm78 469l-554 0 -71 425 696 0 -71 -425zm78 469l-710 0 -71 425 852 0 -71 -425zm-1235 -982l-71 -426 -243 0 -71 426 385 0zm7 44l-399 0 -70 425 540 0 -71 -425zm78 469l-555 0 -70 425 696 0 -71 -425zm78 469l-711 0 -70 425 852 0 -71 -425z"/>
     <path class="fil20" d="M14200 11435l2150 0 0 1660 -567 0c0,13 -3,26 -9,37l9 1 -242 1010 13 856 -61 958 -153 0 -56 -947 -87 4 -35 943 -133 0 -76 -932 -90 -921 -115 -984 7 -1 -15 -24 -540 0 0 -1660zm1070 2216c243,67 71,417 -101,370 -180,-49 -132,-434 101,-370zm360 -556l-746 0c-7,19 -21,35 -40,43l198 902 320 26 316 -900c-28,-12 -48,-39 -48,-71z"/>
     <path class="fil3" d="M13784 16926c0,-72 423,-130 944,-130 521,0 944,58 944,130 0,72 -423,131 -944,131 -521,0 -944,-59 -944,-131z"/>
     <polygon class="fil11" points="15690,13534 13540,13534 13540,11875 15690,11875 "/>
     <polygon class="fil19" points="14293,15464 14203,14544 14088,13560 14178,13547 14382,14480 14702,14506 15034,13560 15124,13573 14881,14583 14894,15439 "/>
     <path class="fil9" d="M14229 13509c0,42 -34,77 -77,77 -42,0 -76,-35 -76,-77 0,-42 34,-77 76,-77 43,0 77,35 77,77z"/>
     <path class="fil9" d="M15124 13535c0,42 -35,76 -77,76 -42,0 -77,-34 -77,-76 0,-43 35,-77 77,-77 42,0 77,34 77,77z"/>
     <path class="fil10" d="M14690 14368c0,-1 1,-2 2,-3 5,-7 9,-15 13,-22 1,-1 1,-2 2,-3 3,-6 6,-12 9,-18 1,-2 2,-4 3,-6 2,-7 5,-14 7,-21 6,-22 7,-45 4,-66 -1,-14 -6,-27 -11,-40 -10,-26 -27,-49 -49,-67 -5,-4 -11,-8 -17,-11 -4,-3 -7,-6 -12,-8 -9,-5 -20,-9 -31,-12 0,0 0,0 0,0 -12,-3 -24,-5 -36,-5 -3,0 -5,0 -8,0 -9,0 -19,1 -28,2 -2,1 -4,1 -6,2 -10,2 -20,5 -30,9 -1,0 -1,1 -2,1 -44,19 -80,57 -93,107 -25,88 14,230 102,254 41,11 85,-5 124,-34 0,0 0,0 0,0 14,-11 28,-24 40,-38 1,-1 1,-2 2,-2 5,-6 10,-13 15,-19z"/>
     <polygon class="fil17" points="14894,15439 14805,16850 14707,16850 14624,15450 14537,15454 14484,16885 14408,16883 14293,15464 14276,15290 14891,15298 "/>
     <polygon class="fil17" points="14805,16850 15020,16874 15012,16907 14697,16907 14707,16850 "/>
     <polygon class="fil17" points="14484,16885 14484,16925 14189,16936 14189,16899 14408,16883 "/>
     <path class="fil20" d="M16167 8471l1835 170 -127 1379 62 -68 221 200 612 303 100 11 460 493 -9 6 405 661 590 -27 91 253 -52 22 -63 -166 -655 150 -399 -312 -55 551 31 828 -321 0 -17 -62 220 -29 -117 -733 -97 -833 -11 -8 -2 1 -4 -6 -5 -4 2 -2 -344 -613 -299 -130c-81,-35 -240,-165 -363,-279l-29 312 -3683 -340 175 -1899 1585 147 -3 -30c0,-69 51,-126 117,-136l0 -2089 44 0 0 2089c66,10 116,67 116,136 0,19 -4,38 -11,54zm2342 1622c78,-202 385,-133 356,99 -41,321 -368,234 -368,-36 -51,-12 -117,-74 12,-63zm-637 -46l-2 23 92 69 -90 -92z"/>
     <polygon class="fil15" points="13003,10198 16686,10538 16862,8640 13178,8300 "/>
     <polygon class="fil21" points="14877,8358 14921,8358 14921,5499 14877,5499 "/>
     <path class="fil21" d="M14761 8417c0,76 62,138 138,138 76,0 139,-62 139,-138 0,-77 -63,-139 -139,-139 -76,0 -138,62 -138,139z"/>
     <path class="fil19" d="M14738 5499c0,89 72,161 161,161 89,0 161,-72 161,-161 0,-89 -72,-162 -161,-162 -89,0 -161,73 -161,162z"/>
     <path class="fil6" d="M14409 5330c5,0 10,-2 14,-5l432 -349 0 326c0,13 10,22 22,22 12,0 22,-9 22,-22l0 -372c0,-9 -5,-16 -13,-20 -7,-4 -16,-3 -23,3l-468 378c-9,8 -11,21 -3,31 4,5 11,8 17,8z"/>
     <path class="fil6" d="M13991 5330c5,0 10,-2 14,-5l432 -349 0 326c0,13 10,22 22,22 12,0 22,-9 22,-22l0 -372c0,-9 -5,-16 -12,-20 -8,-4 -17,-3 -24,3l-468 378c-9,8 -10,21 -3,31 5,5 11,8 17,8z"/>
     <path class="fil6" d="M13574 5330c4,0 9,-2 13,-5l432 -349 0 326c0,13 10,22 22,22 13,0 22,-9 22,-22l0 -372c0,-9 -4,-16 -12,-20 -8,-4 -17,-3 -23,3l-468 378c-10,8 -11,21 -3,31 4,5 10,8 17,8z"/>
     <path class="fil6" d="M13156 5330c5,0 10,-2 14,-5l432 -349 0 326c0,13 10,22 22,22 12,0 22,-9 22,-22l0 -372c0,-9 -5,-16 -13,-20 -7,-4 -16,-3 -23,3l-468 378c-9,8 -11,21 -3,31 4,5 11,8 17,8z"/>
     <path class="fil6" d="M12738 5330c5,0 10,-2 14,-5l432 -349 0 326c0,13 10,22 22,22 12,0 22,-9 22,-22l0 -372c0,-9 -5,-16 -13,-20 -7,-4 -16,-3 -23,3l-468 378c-9,8 -11,21 -3,31 4,5 11,8 17,8z"/>
     <polygon class="fil21" points="16797,9951 17017,10151 17744,10511 17424,10593 16943,10263 16720,10035 "/>
     <path class="fil9" d="M17726 10144c7,102 -65,249 -167,257 -102,8 -195,-127 -203,-229 -7,-102 69,-191 171,-198 102,-8 191,68 199,170z"/>
     <polygon class="fil10" points="18136,11154 18043,12096 18074,12924 17753,12924 17736,12863 17956,12833 17838,12100 17732,11189 "/>
     <path class="fil8" d="M16641 9996c94,87 427,328 549,364l257 75 283 30 459 494 -461 302 -351 -626 -299 -129c-123,-54 -426,-325 -509,-430l72 -80z"/>
     <path class="fil10" d="M17581 10397c90,-25 152,-158 145,-253 -8,-102 -97,-178 -199,-170 -6,0 -12,2 -18,3 -4,15 -5,31 -2,44 10,51 47,98 95,120 0,0 -1,226 -21,256z"/>
     <path class="fil9" d="M17627 10162c15,0 30,6 42,15 40,29 16,92 -25,107 -13,5 -27,6 -41,5 -13,0 -25,-2 -35,-10 -9,-8 -14,-20 -14,-31 -1,-12 2,-24 6,-35 10,-25 39,-51 67,-51z"/>
     <polygon class="fil11" points="19176,11598 18586,11625 18175,10955 17719,11250 18496,11857 19151,11707 19215,11873 19266,11851 "/>
     <polygon class="fil10" points="19326,16497 18742,12983 18785,12976 19369,16490 "/>
     <polygon class="fil10" points="18253,16497 17669,12983 17713,12976 18297,16490 "/>
     <polygon class="fil10" points="18897,13748 17815,13748 17815,13704 18897,13704 "/>
     <polygon class="fil10" points="18974,14218 17892,14218 17892,14174 18974,14174 "/>
     <polygon class="fil10" points="19051,14687 17969,14687 17969,14643 19051,14643 "/>
     <polygon class="fil10" points="19127,15156 18045,15156 18045,15112 19127,15112 "/>
     <polygon class="fil10" points="19204,15625 18122,15625 18122,15581 19204,15581 "/>
     <polygon class="fil10" points="19280,16094 18198,16094 18198,16050 19280,16050 "/>
     <polygon class="fil11" points="17097,16497 17053,16490 17637,12976 17681,12983 "/>
     <polygon class="fil11" points="18169,16497 18126,16490 18710,12976 18753,12983 "/>
     <polygon class="fil11" points="18607,13748 17525,13748 17525,13704 18607,13704 "/>
     <polygon class="fil11" points="18530,14218 17448,14218 17448,14174 18530,14174 "/>
     <polygon class="fil11" points="18454,14687 17372,14687 17372,14643 18454,14643 "/>
     <polygon class="fil11" points="18377,15156 17295,15156 17295,15112 18377,15112 "/>
     <polygon class="fil11" points="18301,15625 17219,15625 17219,15581 18301,15581 "/>
     <polygon class="fil11" points="18224,16094 17142,16094 17142,16050 18224,16050 "/>
     <polygon class="fil11" points="18891,13057 17572,13057 17572,12925 18891,12925 "/>
     <path class="fil9" d="M16641 9914c0,0 -31,-16 -31,-16l-30 48 -150 -84 -50 56 212 160 46 -58 -24 -33 10 -36 17 -37z"/>
     <path class="fil9" d="M17383 10093c-20,-2 -40,-4 -60,-4 -14,0 -33,5 -32,19 0,7 6,12 12,17 18,15 38,30 62,33 20,2 40,-5 54,-19 13,-13 21,-33 15,-49 -17,5 -34,6 -51,3z"/>
     <rect class="fil22" x="16018" y="6191" width="43.9211" height="760.563"/>
     <polygon class="fil23" points="22380,18220 22291,17300 22176,16316 22265,16303 22470,17236 22789,17261 23121,16316 23211,16329 22968,17338 22981,18195 "/>
     <polygon class="fil24" points="23007,16642 23121,16316 23211,16329 23136,16642 "/>
     <polygon class="fil24" points="22265,16303 22339,16642 22214,16642 22176,16316 "/>
     <path class="fil9" d="M22316 16265c0,42 -34,76 -77,76 -42,0 -76,-34 -76,-76 0,-43 34,-77 76,-77 43,0 77,34 77,77z"/>
     <path class="fil9" d="M23211 16290c0,43 -35,77 -77,77 -42,0 -77,-34 -77,-77 0,-42 35,-76 77,-76 42,0 77,34 77,76z"/>
     <polygon class="fil25" points="20839,16270 24534,16270 24534,14071 20839,14071 "/>
     <polygon class="fil15" points="22688,15982 24337,15982 24337,14349 22688,14349 "/>
     <polygon class="fil26" points="21048,14503 22488,14503 22488,14364 21048,14364 "/>
     <polygon class="fil26" points="21048,14842 22488,14842 22488,14703 21048,14703 "/>
     <polygon class="fil26" points="21048,15181 22488,15181 22488,15042 21048,15042 "/>
     <polygon class="fil26" points="21048,15520 22488,15520 22488,15381 21048,15381 "/>
     <polygon class="fil26" points="21048,15859 22488,15859 22488,15720 21048,15720 "/>
    </g>
   </g>
  </g>
 </g>
</svg>
