<?xml version="1.0" encoding="UTF-8"?>
<!DOCTYPE svg PUBLIC "-//W3C//DTD SVG 1.1//EN" "http://www.w3.org/Graphics/SVG/1.1/DTD/svg11.dtd">
<!-- Creator: CorelDRAW X7 -->
<svg xmlns="http://www.w3.org/2000/svg" xml:space="preserve" width="100%" height="100%" version="1.1" style="shape-rendering:geometricPrecision; text-rendering:geometricPrecision; image-rendering:optimizeQuality; fill-rule:evenodd; clip-rule:evenodd"
viewBox="0 0 33132 22946"
 xmlns:xlink="http://www.w3.org/1999/xlink">
 <defs>
  <style type="text/css">
   <![CDATA[
    .fil0 {fill:none}
    .fil4 {fill:#D2AE6D}
    .fil21 {fill:#7099FF}
    .fil23 {fill:#8480BC}
    .fil22 {fill:#A4DBDD}
    .fil19 {fill:#C0CDF8}
    .fil2 {fill:#E3C07B}
    .fil1 {fill:#FCE9CA}
    .fil3 {fill:white}
    .fil14 {fill:#D2AE6D;fill-rule:nonzero}
    .fil15 {fill:#B5E1E2;fill-rule:nonzero}
    .fil12 {fill:#79C9F0;fill-rule:nonzero}
    .fil16 {fill:#2195CA;fill-rule:nonzero}
    .fil20 {fill:#2195CA;fill-rule:nonzero}
    .fil17 {fill:#2688C4;fill-rule:nonzero}
    .fil9 {fill:#494599;fill-rule:nonzero}
    .fil5 {fill:#5C56A2;fill-rule:nonzero}
    .fil7 {fill:#79C9F0;fill-rule:nonzero}
    .fil10 {fill:#8480BC;fill-rule:nonzero}
    .fil25 {fill:#D2AE6D;fill-rule:nonzero}
    .fil18 {fill:#E3C07B;fill-rule:nonzero}
    .fil6 {fill:#E6E9FF;fill-rule:nonzero}
    .fil24 {fill:#F6F7FF;fill-rule:nonzero}
    .fil8 {fill:#FFCFD3;fill-rule:nonzero}
    .fil11 {fill:white;fill-rule:nonzero}
    .fil13 {fill:white;fill-rule:nonzero}
   ]]>
  </style>
 </defs>
 <g id="Layer_x0020_1">
  <metadata id="CorelCorpID_0Corel-Layer"/>
  <g id="_2566013073184">
   <rect class="fil0" width="33132" height="22946"/>
   <rect class="fil0" width="33132" height="22946"/>
   <g>
    <circle class="fil1" transform="matrix(0.846356 -0.737138 -0.737138 -0.846356 18867 11473)" r="9796"/>
    <circle class="fil1" transform="matrix(0.131457 -0.114493 -0.114493 -0.131457 4978 17807.5)" r="9796"/>
    <g>
     <g>
      <circle class="fil2" cx="9304" cy="6537" r="3660"/>
      <path class="fil3" d="M9994 7573l0 690 -2762 0 0 -690 2762 0zm-2762 -2072l0 -691c1381,0 2762,0 4143,0l-690 691c-1151,0 -2302,0 -3453,0zm4143 690c0,691 0,1382 0,2072l-690 0 0 -1381 0 0 -3453 0 0 -691c1381,0 2762,0 4143,0z"/>
     </g>
     <path class="fil2" d="M23758 16031c0,-153 -897,-277 -2003,-277 -1106,0 -2003,124 -2003,277 0,153 897,277 2003,277 1106,0 2003,-124 2003,-277z"/>
     <path class="fil2" d="M10685 15957l-2275 -44 1892 836 2305 -184c239,106 959,184 1810,184 1046,0 1894,-117 1894,-262 0,-69 -192,-131 -505,-178l4406 -352 -9527 0z"/>
     <path class="fil2" d="M10772 19698c0,-72 -423,-131 -944,-131 -521,0 -943,59 -943,131 0,72 422,130 943,130 521,0 944,-58 944,-130z"/>
     <polygon class="fil4" points="23716,18214 17294,17706 16591,17727 18342,18476 "/>
     <polygon class="fil4" points="21239,19530 14817,19022 14113,19043 15865,19792 "/>
     <polygon class="fil2" points="11665,12922 4627,13010 10685,15957 20212,15957 "/>
     <polygon class="fil5" points="10685,15957 11226,15957 11226,6191 10685,6191 "/>
     <polygon class="fil6" points="10923,15957 20212,15957 20212,6191 10923,6191 "/>
     <polygon class="fil7" points="10923,6952 20212,6952 20212,6191 10923,6191 "/>
     <path class="fil8" d="M10146 16963c24,88 -14,230 -102,254 -88,24 -193,-78 -217,-167 -24,-88 28,-179 116,-203 88,-24 179,28 203,116z"/>
     <path class="fil9" d="M10028 16912c18,-5 44,-17 53,-34 1,-2 1,-3 2,-5 -39,-28 -90,-40 -140,-26 -88,24 -140,115 -116,203 17,63 75,133 140,159 -2,-17 -6,-35 -11,-52 -18,-70 -38,-139 -60,-208 45,-9 89,-21 132,-37z"/>
     <path class="fil8" d="M9925 17047c-12,-9 -28,-13 -42,-7 -3,1 -6,3 -8,6 -7,6 -9,16 -8,25 2,26 23,48 48,55 7,2 14,4 21,2 8,-1 15,-4 19,-10 15,-22 -13,-59 -30,-71z"/>
     <polygon class="fil5" points="9659,18195 9748,19606 9845,19606 9928,18206 10016,18210 10069,19641 10144,19639 10260,18220 10277,18045 9661,18053 "/>
     <polygon class="fil5" points="9748,19606 9533,19630 9541,19663 9855,19663 9845,19606 "/>
     <polygon class="fil5" points="10069,19641 10069,19681 10364,19692 10364,19655 10144,19639 "/>
     <path class="fil9" d="M9988 17083c54,5 96,-49 150,-56 3,0 7,0 10,1 4,2 6,6 8,10 7,13 14,27 21,40 6,13 13,27 16,42 4,18 2,36 -1,54 -3,14 -5,29 -12,42 -11,23 -33,40 -57,49 -25,8 -51,10 -77,8 -17,-2 -35,-5 -50,-13 -35,-18 -56,-59 -50,-97 1,-10 4,-19 3,-29 -1,-9 -6,-18 -10,-26 -6,-9 -41,-56 -13,-56 8,0 20,14 28,19 10,6 22,10 34,12z"/>
     <path class="fil10" d="M22179 15216l-763 0c-17,0 -33,-10 -40,-26 -7,-16 -4,-35 8,-48l733 -791 65 59 -665 718 662 0 0 88z"/>
     <polygon class="fil5" points="22336,15895 21240,15895 21240,15109 22336,15109 "/>
     <path class="fil10" d="M22179 11965l-763 0c-17,0 -33,-10 -40,-26 -7,-16 -4,-35 8,-48l733 -792 65 60 -665 718 662 0 0 88z"/>
     <path class="fil10" d="M22179 12778l-763 0c-17,0 -33,-10 -40,-27 -7,-16 -4,-34 8,-47l733 -792 65 60 -665 718 662 0 0 88z"/>
     <path class="fil10" d="M22179 13591l-763 0c-17,0 -33,-11 -40,-27 -7,-16 -4,-34 8,-47l733 -792 65 60 -665 718 662 0 0 88z"/>
     <path class="fil10" d="M22179 14404l-763 0c-17,0 -33,-11 -40,-27 -7,-16 -4,-35 8,-47l733 -792 65 60 -665 718 662 0 0 88z"/>
     <path class="fil10" d="M22179 11172l-763 0c-17,0 -33,-11 -40,-27 -7,-16 -4,-34 8,-47l733 -792 65 60 -665 718 662 0 0 88z"/>
     <path class="fil10" d="M22179 10378l-763 0c-17,0 -33,-10 -40,-26 -7,-16 -4,-35 8,-47l733 -792 65 60 -665 717 662 0 0 88z"/>
     <path class="fil10" d="M22179 9585l-763 0c-17,0 -33,-10 -40,-26 -7,-16 -4,-35 8,-48l733 -792 65 60 -665 718 662 0 0 88z"/>
     <path class="fil10" d="M22179 8792l-763 0c-17,0 -33,-10 -40,-27 -7,-16 -4,-34 8,-47l733 -792 65 60 -665 718 662 0 0 88z"/>
     <path class="fil10" d="M22179 7999l-763 0c-17,0 -33,-11 -40,-27 -7,-16 -4,-35 8,-47l733 -792 65 60 -665 718 662 0 0 88z"/>
     <path class="fil10" d="M22179 7205l-763 0c-17,0 -33,-10 -40,-26 -7,-16 -4,-35 8,-48l733 -791 65 59 -665 718 662 0 0 88z"/>
     <polygon class="fil9" points="22710,16100 20866,16100 20866,15755 22710,15755 "/>
     <path class="fil11" d="M12034 6786l2303 0c79,0 144,-65 144,-144l0 -102c0,-79 -65,-143 -144,-143l-2303 0c-79,0 -144,64 -144,143l0 102c0,79 65,144 144,144z"/>
     <polygon class="fil12" points="23714,18082 23716,18214 18438,18284 17294,17706 17292,17574 "/>
     <polygon class="fil12" points="18438,18284 23716,18214 22572,17635 17294,17706 "/>
     <polygon class="fil13" points="18436,18152 23714,18082 22571,17503 17292,17574 "/>
     <polygon class="fil14" points="19662,17644 22562,17605 22476,17561 19575,17600 "/>
     <polygon class="fil14" points="19878,17753 22778,17715 22692,17671 19792,17709 "/>
     <polygon class="fil14" points="20086,17858 22986,17820 22899,17776 19999,17814 "/>
     <polygon class="fil14" points="20284,17959 23185,17920 23098,17876 20198,17915 "/>
     <polygon class="fil15" points="18440,18069 20316,18044 19442,17602 17566,17627 "/>
     <polygon class="fil16" points="21255,19371 21256,19503 15978,19573 14835,18995 14833,18863 "/>
     <polygon class="fil16" points="15978,19573 21256,19503 20113,18925 14835,18995 "/>
     <polygon class="fil13" points="15976,19441 21255,19371 20111,18793 14833,18863 "/>
     <polygon class="fil12" points="17202,18933 20103,18894 20016,18851 17116,18889 "/>
     <polygon class="fil12" points="17418,19042 20319,19004 20232,18960 17332,18999 "/>
     <polygon class="fil12" points="17626,19147 20526,19109 20440,19065 17539,19103 "/>
     <polygon class="fil12" points="17825,19248 20725,19209 20639,19166 17738,19204 "/>
     <polygon class="fil12" points="15980,19358 17856,19333 16983,18891 15107,18916 "/>
     <polygon class="fil7" points="11226,7863 14525,7863 14525,7511 11226,7511 "/>
     <polygon class="fil7" points="11226,9650 14525,9650 14525,8171 11226,8171 "/>
     <path class="fil5" d="M21445 6217l685 0 0 9267 -685 0 0 -9267zm773 -88l-861 0 0 9443 861 0 0 -9443z"/>
     <path class="fil17" d="M22179 6412l-763 0c-17,0 -33,-10 -40,-26 -7,-16 -4,-35 8,-48l733 -792 65 60 -665 718 662 0 0 88z"/>
     <polygon class="fil18" points="22218,6428 20823,6428 20823,5252 22218,5252 "/>
     <polygon class="fil18" points="24314,5927 22918,5927 22918,5251 24314,5251 "/>
     <path class="fil10" d="M18695 4952c-10,0 -19,-7 -21,-16 -4,-12 3,-24 14,-27l3257 -993c5,-2 10,-2 15,0l1543 652c11,5 17,17 12,29 -5,11 -18,16 -29,11l-1536 -648 -3249 991c-2,0 -4,1 -6,1z"/>
     <path class="fil10" d="M21439 5329c-5,0 -11,-1 -16,-3 -23,-9 -34,-34 -25,-57l513 -1349c6,-18 25,-30 44,-28 20,1 36,16 40,35l265 1316c5,24 -11,47 -35,52 -23,4 -47,-11 -51,-35l-235 -1166 -459 1206c-7,18 -23,29 -41,29z"/>
     <path class="fil18" d="M22040 3935c0,49 -39,89 -88,89 -49,0 -89,-40 -89,-89 0,-49 40,-88 89,-88 49,0 88,39 88,88z"/>
     <path class="fil5" d="M24290 5337l-6891 0c-25,0 -44,-19 -44,-44 0,-24 19,-44 44,-44l6891 0c25,0 44,20 44,44 0,25 -19,44 -44,44z"/>
     <path class="fil5" d="M21524 5326c-5,0 -11,-2 -15,-7l-368 -367 -3369 0 -345 345c-9,9 -23,9 -31,0 -9,-8 -9,-22 0,-31l358 -358 3405 0 381 380c8,9 8,23 0,31 -5,5 -10,7 -16,7z"/>
     <path class="fil5" d="M24320 5326c-8,0 -16,-4 -20,-12l-368 -702 -891 0 -346 680c-6,11 -19,15 -30,9 -11,-5 -15,-18 -9,-29l358 -704 945 0 380 726c6,10 2,24 -9,29 -3,2 -7,3 -10,3z"/>
     <path class="fil5" d="M20319 5330c-4,0 -9,-2 -13,-5l-432 -349 0 326c0,13 -10,22 -22,22 -13,0 -22,-9 -22,-22l0 -372c0,-9 4,-16 12,-20 8,-4 17,-3 23,3l468 378c10,8 11,21 3,31 -4,5 -10,8 -17,8z"/>
     <path class="fil5" d="M20737 5330c-5,0 -10,-2 -14,-5l-432 -349 0 326c0,13 -10,22 -22,22 -12,0 -22,-9 -22,-22l0 -372c0,-9 5,-16 13,-20 7,-4 16,-3 23,3l468 378c9,8 11,21 3,31 -4,5 -11,8 -17,8z"/>
     <path class="fil5" d="M21155 5330c-5,0 -10,-2 -14,-5l-432 -349 0 326c0,13 -10,22 -22,22 -12,0 -22,-9 -22,-22l0 -372c0,-9 5,-16 12,-20 8,-4 17,-3 24,3l468 378c9,8 10,21 3,31 -4,5 -11,8 -17,8z"/>
     <path class="fil5" d="M23624 5330c-6,0 -12,-3 -17,-8l-561 -662 0 642c0,13 -10,22 -22,22 -12,0 -22,-9 -22,-22l0 -702c0,-9 6,-17 15,-20 8,-4 18,-1 24,6l600 708c8,9 6,23 -3,31 -4,3 -9,5 -14,5z"/>
     <path class="fil5" d="M24056 5330c-8,0 -15,-3 -19,-10l-427 -647 0 629c0,13 -10,22 -22,22 -12,0 -22,-9 -22,-22l0 -702c0,-10 6,-18 15,-21 10,-3 20,1 25,9l468 708c7,10 4,24 -6,30 -4,3 -8,4 -12,4z"/>
     <path class="fil19" d="M14012 12925l-1320 0 0 132 93 0 -482 2900 44 0 56 -332 866 0 55 332 45 0 -55 -332 116 0 -55 332 45 0 55 -332 867 0 55 332 44 0 -482 -2900 53 0 0 -132zm-1125 132l970 0 -107 647 -755 0 -108 -647zm115 691l740 0 -70 426 -599 0 -71 -426zm78 470l584 0 -70 425 -444 0 -70 -425zm78 469l428 0 -70 425 -287 0 -71 -425zm78 469l272 0 -70 425 -132 0 -70 -425zm558 -1452l108 -647 13 0 107 647 -228 0zm-952 -647l108 647 -228 0 107 -647 13 0zm115 691l71 426 -384 0 70 -426 243 0zm-321 470l399 0 71 425 -540 0 70 -425zm-78 469l555 0 71 425 -696 0 70 -425zm-77 469l710 0 71 425 -852 0 71 -425zm1235 -982l71 -426 243 0 70 426 -384 0zm-7 44l399 0 70 425 -540 0 71 -425zm-78 469l555 0 70 425 -696 0 71 -425zm-78 469l711 0 70 425 -852 0 71 -425z"/>
     <path class="fil19" d="M18440 11435l-2150 0 0 1660 566 0c0,13 4,26 10,37l-10 1 243 1010 -13 856 61 958 153 0 56 -947 87 4 35 943 133 0 76 -932 90 -921 115 -984 -7 -1 15 -24 540 0 0 -1660zm-1070 2216c-243,67 -71,417 101,370 180,-49 132,-434 -101,-370zm-360 -556l746 0c7,19 21,35 39,43l-197 902 -320 26 -316 -900c28,-12 48,-39 48,-71z"/>
     <path class="fil2" d="M18855 16926c0,-72 -422,-130 -943,-130 -521,0 -944,58 -944,130 0,72 423,131 944,131 521,0 943,-59 943,-131z"/>
     <polygon class="fil10" points="16950,13534 19100,13534 19100,11875 16950,11875 "/>
     <polygon class="fil18" points="18347,15464 18437,14544 18552,13560 18462,13547 18258,14480 17938,14506 17606,13560 17516,13573 17759,14583 17746,15439 "/>
     <path class="fil8" d="M18411 13509c0,42 34,77 77,77 42,0 76,-35 76,-77 0,-42 -34,-77 -76,-77 -43,0 -77,35 -77,77z"/>
     <path class="fil8" d="M17516 13535c0,42 35,76 77,76 42,0 77,-34 77,-76 0,-43 -35,-77 -77,-77 -42,0 -77,34 -77,77z"/>
     <path class="fil9" d="M17950 14368c0,-1 -1,-2 -2,-3 -5,-7 -9,-15 -14,-22 0,-1 -1,-2 -1,-3 -3,-6 -6,-12 -9,-18 -1,-2 -2,-4 -3,-6 -3,-7 -5,-14 -7,-21 -6,-22 -7,-45 -5,-66 2,-14 7,-27 12,-40 10,-26 27,-49 49,-67 5,-4 11,-8 17,-11 4,-3 7,-6 12,-8 9,-5 20,-9 31,-12 0,0 0,0 0,0 12,-3 24,-5 36,-5 3,0 5,0 8,0 9,0 19,1 28,2 2,1 4,1 6,2 10,2 20,5 30,9 1,0 1,1 2,1 44,19 80,57 93,107 24,88 -14,230 -102,254 -41,11 -85,-5 -124,-34 0,0 0,0 0,0 -14,-11 -28,-24 -40,-38 -1,-1 -1,-2 -2,-2 -5,-6 -10,-13 -15,-19z"/>
     <polygon class="fil16" points="17746,15439 17835,16850 17933,16850 18016,15450 18103,15454 18156,16885 18231,16883 18347,15464 18364,15290 17748,15298 "/>
     <polygon class="fil16" points="17835,16850 17620,16874 17628,16907 17942,16907 17933,16850 "/>
     <polygon class="fil16" points="18156,16885 18156,16925 18451,16936 18451,16899 18231,16883 "/>
     <path class="fil19" d="M16473 8471l-1835 170 127 1379 -62 -68 -221 200 -612 303 -101 11 -459 493 9 6 -405 661 -590 -27 -91 253 51 22 64 -166 655 150 399 -312 55 551 -31 828 321 0 17 -62 -220 -29 117 -733 97 -833 11 -8 2 1 4 -6 5 -4 -2 -2 344 -613 299 -130c81,-35 240,-165 363,-279l29 312 3683 -340 -175 -1899 -1586 147 4 -30c0,-69 -51,-126 -117,-136l0 -2089 -44 0 0 2089c-66,10 -116,67 -116,136 0,19 4,38 11,54zm-2342 1622c-78,-202 -385,-133 -356,99 41,321 367,234 367,-36 52,-12 118,-74 -11,-63zm637 -46l2 23 -92 69 90 -92z"/>
     <polygon class="fil14" points="19637,10198 15954,10538 15778,8640 19462,8300 "/>
     <polygon class="fil20" points="17763,8358 17719,8358 17719,5499 17763,5499 "/>
     <path class="fil20" d="M17879 8417c0,76 -62,138 -138,138 -77,0 -139,-62 -139,-138 0,-77 62,-139 139,-139 76,0 138,62 138,139z"/>
     <path class="fil18" d="M17902 5499c0,89 -72,161 -161,161 -89,0 -161,-72 -161,-161 0,-89 72,-162 161,-162 89,0 161,73 161,162z"/>
     <path class="fil5" d="M18231 5330c-5,0 -10,-2 -14,-5l-432 -349 0 326c0,13 -10,22 -22,22 -12,0 -22,-9 -22,-22l0 -372c0,-9 5,-16 13,-20 7,-4 16,-3 23,3l468 378c9,8 11,21 3,31 -4,5 -11,8 -17,8z"/>
     <path class="fil5" d="M18649 5330c-5,0 -10,-2 -14,-5l-432 -349 0 326c0,13 -10,22 -22,22 -12,0 -22,-9 -22,-22l0 -372c0,-9 5,-16 12,-20 8,-4 17,-3 24,3l467 378c10,8 11,21 4,31 -5,5 -11,8 -17,8z"/>
     <path class="fil5" d="M19066 5330c-5,0 -9,-2 -14,-5l-432 -349 0 326c0,13 -9,22 -22,22 -12,0 -22,-9 -22,-22l0 -372c0,-9 5,-16 13,-20 8,-4 17,-3 23,3l468 378c10,8 11,21 3,31 -4,5 -10,8 -17,8z"/>
     <path class="fil5" d="M19484 5330c-5,0 -10,-2 -14,-5l-432 -349 0 326c0,13 -10,22 -22,22 -12,0 -22,-9 -22,-22l0 -372c0,-9 5,-16 13,-20 7,-4 16,-3 23,3l468 378c9,8 11,21 3,31 -4,5 -11,8 -17,8z"/>
     <path class="fil5" d="M19902 5330c-5,0 -10,-2 -14,-5l-432 -349 0 326c0,13 -10,22 -22,22 -12,0 -22,-9 -22,-22l0 -372c0,-9 5,-16 12,-20 8,-4 17,-3 24,3l468 378c9,8 10,21 3,31 -5,5 -11,8 -17,8z"/>
     <polygon class="fil20" points="15843,9951 15623,10151 14896,10511 15216,10593 15697,10263 15920,10035 "/>
     <path class="fil8" d="M14914 10144c-8,102 65,249 167,257 102,8 195,-127 202,-229 8,-102 -68,-191 -170,-198 -102,-8 -191,68 -199,170z"/>
     <polygon class="fil9" points="14504,11154 14597,12096 14566,12924 14887,12924 14904,12863 14684,12833 14802,12100 14908,11189 "/>
     <path class="fil7" d="M15999 9996c-94,87 -427,328 -549,364l-257 75 -283 30 -459 494 461 302 351 -626 299 -129c123,-54 426,-325 509,-430l-72 -80z"/>
     <path class="fil9" d="M15059 10397c-90,-25 -152,-158 -145,-253 8,-102 97,-178 199,-170 6,0 11,2 17,3 5,15 6,31 3,44 -10,51 -47,98 -95,120 0,0 0,226 21,256z"/>
     <path class="fil8" d="M15013 10162c-15,0 -30,6 -43,15 -39,29 -15,92 26,107 13,5 27,6 41,5 13,0 25,-2 35,-10 9,-8 14,-20 14,-31 1,-12 -2,-24 -6,-35 -10,-25 -39,-51 -67,-51z"/>
     <polygon class="fil10" points="13464,11598 14054,11625 14465,10955 14921,11250 14144,11857 13489,11707 13425,11873 13374,11851 "/>
     <polygon class="fil9" points="13314,16497 13898,12983 13855,12976 13271,16490 "/>
     <polygon class="fil9" points="14387,16497 14971,12983 14927,12976 14343,16490 "/>
     <polygon class="fil9" points="13743,13748 14825,13748 14825,13704 13743,13704 "/>
     <polygon class="fil9" points="13666,14218 14748,14218 14748,14174 13666,14174 "/>
     <polygon class="fil9" points="13589,14687 14671,14687 14671,14643 13589,14643 "/>
     <polygon class="fil9" points="13513,15156 14595,15156 14595,15112 13513,15112 "/>
     <polygon class="fil9" points="13436,15625 14518,15625 14518,15581 13436,15581 "/>
     <polygon class="fil9" points="13359,16094 14442,16094 14442,16050 13359,16050 "/>
     <polygon class="fil10" points="15543,16497 15587,16490 15003,12976 14959,12983 "/>
     <polygon class="fil10" points="14471,16497 14514,16490 13930,12976 13887,12983 "/>
     <polygon class="fil10" points="14033,13748 15115,13748 15115,13704 14033,13704 "/>
     <polygon class="fil10" points="14109,14218 15191,14218 15191,14174 14109,14174 "/>
     <polygon class="fil10" points="14186,14687 15268,14687 15268,14643 14186,14643 "/>
     <polygon class="fil10" points="14263,15156 15345,15156 15345,15112 14263,15112 "/>
     <polygon class="fil10" points="14339,15625 15421,15625 15421,15581 14339,15581 "/>
     <polygon class="fil10" points="14416,16094 15498,16094 15498,16050 14416,16050 "/>
     <polygon class="fil10" points="13749,13057 15068,13057 15068,12925 13749,12925 "/>
     <path class="fil8" d="M15999 9914c0,0 31,-16 31,-16l30 48 150 -84 50 56 -212 160 -46 -58 24 -33 -10 -36 -17 -37z"/>
     <path class="fil8" d="M15257 10093c20,-2 40,-4 60,-4 14,0 33,5 32,19 -1,7 -7,12 -12,17 -19,15 -38,30 -62,33 -20,2 -40,-5 -54,-19 -13,-13 -22,-33 -15,-49 17,5 34,6 51,3z"/>
     <rect class="fil21" x="16578" y="6191" width="43.9211" height="760.563"/>
     <polygon class="fil22" points="10260,18220 10349,17300 10464,16316 10375,16303 10170,17236 9851,17261 9519,16316 9429,16329 9672,17338 9659,18195 "/>
     <polygon class="fil23" points="9633,16642 9519,16316 9429,16329 9504,16642 "/>
     <polygon class="fil23" points="10375,16303 10301,16642 10426,16642 10464,16316 "/>
     <path class="fil8" d="M10324 16265c0,42 34,76 76,76 43,0 77,-34 77,-76 0,-43 -34,-77 -77,-77 -42,0 -76,34 -76,77z"/>
     <path class="fil8" d="M9429 16290c0,43 34,77 77,77 42,0 76,-34 76,-77 0,-42 -34,-76 -76,-76 -43,0 -77,34 -77,76z"/>
     <polygon class="fil24" points="11801,16270 8106,16270 8106,14071 11801,14071 "/>
     <polygon class="fil14" points="9952,15982 8303,15982 8303,14349 9952,14349 "/>
     <polygon class="fil25" points="11591,14503 10152,14503 10152,14364 11591,14364 "/>
     <polygon class="fil25" points="11591,14842 10152,14842 10152,14703 11591,14703 "/>
     <polygon class="fil25" points="11591,15181 10152,15181 10152,15042 11591,15042 "/>
     <polygon class="fil25" points="11591,15520 10152,15520 10152,15381 11591,15381 "/>
     <polygon class="fil25" points="11591,15859 10152,15859 10152,15720 11591,15720 "/>
    </g>
   </g>
  </g>
 </g>
</svg>
