<?xml version="1.0" encoding="UTF-8"?>
<!DOCTYPE svg PUBLIC "-//W3C//DTD SVG 1.1//EN" "http://www.w3.org/Graphics/SVG/1.1/DTD/svg11.dtd">
<!-- Creator: CorelDRAW X7 -->
<svg xmlns="http://www.w3.org/2000/svg" xml:space="preserve" width="14.1601in" height="10.9865in" version="1.1" style="shape-rendering:geometricPrecision; text-rendering:geometricPrecision; image-rendering:optimizeQuality; fill-rule:evenodd; clip-rule:evenodd"
viewBox="0 0 141601 109865"
 xmlns:xlink="http://www.w3.org/1999/xlink">
 <defs>
  <style type="text/css">
   <![CDATA[
    .fil23 {fill:#536896}
    .fil24 {fill:#7B93C9}
    .fil19 {fill:#8480BC}
    .fil16 {fill:#9F9CCB}
    .fil25 {fill:#AFBEE1}
    .fil14 {fill:#BBB8DA}
    .fil21 {fill:#BFA36F}
    .fil18 {fill:#D2AE6D}
    .fil20 {fill:#D7B67C}
    .fil26 {fill:#D7BF93}
    .fil27 {fill:#E2CBA3}
    .fil12 {fill:#E4CFA9}
    .fil28 {fill:#E7D5B4}
    .fil15 {fill:#E9EDF7}
    .fil13 {fill:#EDDFC4}
    .fil0 {fill:#F7F1E5}
    .fil22 {fill:#F9FAFC}
    .fil10 {fill:#7B93C9;fill-rule:nonzero}
    .fil2 {fill:#8480BC;fill-rule:nonzero}
    .fil9 {fill:#9DB0D9;fill-rule:nonzero}
    .fil3 {fill:#9F9CCB;fill-rule:nonzero}
    .fil5 {fill:#A38755;fill-rule:nonzero}
    .fil11 {fill:#AFBEE1;fill-rule:nonzero}
    .fil1 {fill:#BBB8DA;fill-rule:nonzero}
    .fil6 {fill:#D2AE6D;fill-rule:nonzero}
    .fil4 {fill:#D7B67C;fill-rule:nonzero}
    .fil7 {fill:#DFC596;fill-rule:nonzero}
    .fil33 {fill:#E0C99F;fill-rule:nonzero}
    .fil30 {fill:#E4CFAA;fill-rule:nonzero}
    .fil34 {fill:#E9EDF7;fill-rule:nonzero}
    .fil29 {fill:#EBDBBE;fill-rule:nonzero}
    .fil32 {fill:#EDDFC4;fill-rule:nonzero}
    .fil8 {fill:#EFF2FA;fill-rule:nonzero}
    .fil31 {fill:#F2E8D4;fill-rule:nonzero}
    .fil17 {fill:#F9FAFC;fill-rule:nonzero}
   ]]>
  </style>
 </defs>
 <g id="Layer_x0020_1">
  <metadata id="CorelCorpID_0Corel-Layer"/>
  <g id="_2463001320816">
   <path class="fil0" d="M113421 85232c8676,3004 18589,3112 28180,579l0 8733 0 6538c-8355,3904 -18426,7364 -27602,8452 -18980,2251 -29421,-7047 -30786,-25747 -208,-2853 -200,-5752 -71,-8602 21,-446 39,-885 56,-1317 2687,416 5530,455 8467,182 1620,-150 3270,-396 4938,-725 2385,3103 5268,5763 8598,7921 2496,1618 5243,2955 8220,3986z"/>
   <g>
    <path class="fil1" d="M42331 49978l3 1231c1,507 335,1013 999,1399 1339,778 3517,778 4864,0 678,-391 1016,-905 1015,-1418l-4 -1231c2,513 -337,1026 -1014,1418 -1348,778 -3525,778 -4864,0 -665,-387 -998,-893 -999,-1399z"/>
    <path class="fil2" d="M43346 48559c-1348,778 -1354,2040 -16,2817 1339,779 3516,779 4864,0 1347,-777 1354,-2038 15,-2816 -1338,-778 -3517,-778 -4863,-1z"/>
    <path class="fil3" d="M42331 48405l3 1232c1,506 335,1012 999,1398 1339,779 3517,779 4864,1 678,-392 1016,-905 1015,-1418l-4 -1231c2,513 -337,1026 -1014,1417 -1348,778 -3525,778 -4864,0 -665,-386 -998,-892 -999,-1399z"/>
    <path class="fil2" d="M43346 46987c-1348,778 -1354,2040 -16,2817 1339,778 3516,778 4864,0 1347,-777 1354,-2039 15,-2816 -1338,-778 -3517,-779 -4863,-1z"/>
    <path class="fil1" d="M42331 46833l3 1231c1,507 335,1013 999,1399 1339,778 3517,778 4864,0 678,-391 1016,-905 1015,-1417l-4 -1232c2,513 -337,1027 -1014,1418 -1348,778 -3525,778 -4864,0 -665,-386 -998,-892 -999,-1399z"/>
    <path class="fil2" d="M43346 45414c-1348,779 -1354,2040 -16,2818 1339,778 3516,778 4864,0 1347,-778 1354,-2039 15,-2817 -1338,-777 -3517,-778 -4863,-1z"/>
    <path class="fil3" d="M42331 45261l3 1231c1,507 335,1013 999,1399 1339,778 3517,778 4864,0 678,-391 1016,-905 1015,-1418l-4 -1231c2,513 -337,1026 -1014,1418 -1348,778 -3525,778 -4864,0 -665,-387 -998,-893 -999,-1399z"/>
    <path class="fil2" d="M43346 43842c-1348,778 -1354,2040 -16,2817 1339,779 3516,779 4864,0 1347,-777 1354,-2038 15,-2816 -1338,-778 -3517,-778 -4863,-1z"/>
    <path class="fil1" d="M42331 43688l3 1232c1,506 335,1012 999,1398 1339,779 3517,779 4864,0 678,-391 1016,-904 1015,-1417l-4 -1232c2,513 -337,1027 -1014,1418 -1348,778 -3525,778 -4864,0 -665,-386 -998,-892 -999,-1399z"/>
    <path class="fil2" d="M43346 42270c-1348,778 -1354,2040 -16,2817 1339,778 3516,778 4864,0 1347,-777 1354,-2039 15,-2816 -1338,-778 -3517,-779 -4863,-1z"/>
    <path class="fil3" d="M42331 42116l3 1231c1,507 335,1013 999,1399 1339,778 3517,778 4864,0 678,-391 1016,-905 1015,-1417l-4 -1232c2,513 -337,1027 -1014,1418 -1348,778 -3525,778 -4864,0 -665,-386 -998,-893 -999,-1399z"/>
    <path class="fil2" d="M43346 40697c-1348,779 -1354,2040 -16,2818 1339,778 3516,778 4864,0 1347,-778 1354,-2039 15,-2817 -1338,-777 -3517,-778 -4863,-1z"/>
    <path class="fil1" d="M42331 40543l3 1232c1,506 335,1013 999,1399 1339,778 3517,778 4864,0 678,-391 1016,-905 1015,-1418l-4 -1231c2,513 -337,1026 -1014,1418 -1348,778 -3525,778 -4864,0 -665,-387 -998,-893 -999,-1400z"/>
    <path class="fil2" d="M43346 39125c-1348,778 -1354,2040 -16,2817 1339,779 3516,779 4864,0 1347,-777 1354,-2038 15,-2816 -1338,-778 -3517,-779 -4863,-1z"/>
    <path class="fil3" d="M42331 38971l3 1231c1,507 335,1013 999,1399 1339,779 3517,779 4864,0 678,-391 1016,-904 1015,-1417l-4 -1231c2,512 -337,1026 -1014,1417 -1348,778 -3525,778 -4864,0 -665,-386 -998,-892 -999,-1399z"/>
    <path class="fil1" d="M43346 37553c-1348,778 -1354,2040 -16,2817 1339,778 3516,778 4864,0 1347,-777 1354,-2039 15,-2817 -1338,-777 -3517,-778 -4863,0z"/>
    <path class="fil4" d="M48353 53514l4 1231c1,507 334,1013 999,1399 1339,779 3516,779 4864,0 678,-391 1016,-904 1015,-1417l-4 -1232c1,513 -337,1027 -1014,1418 -1348,778 -3526,778 -4865,0 -664,-386 -997,-892 -999,-1399z"/>
    <path class="fil5" d="M49368 52095c-1347,779 -1353,2040 -15,2818 1338,778 3516,778 4864,0 1346,-778 1353,-2039 14,-2817 -1337,-777 -3516,-778 -4863,-1z"/>
    <path class="fil6" d="M48353 51942l4 1231c1,507 334,1013 999,1399 1339,778 3516,778 4864,0 678,-391 1016,-905 1015,-1418l-4 -1231c1,513 -337,1026 -1014,1418 -1348,778 -3526,778 -4865,0 -664,-387 -997,-893 -999,-1399z"/>
    <path class="fil5" d="M49368 50523c-1347,778 -1353,2040 -15,2818 1338,778 3516,778 4864,0 1346,-778 1353,-2039 14,-2817 -1337,-778 -3516,-778 -4863,-1z"/>
    <path class="fil4" d="M48353 50369l4 1232c1,506 334,1012 999,1398 1339,779 3516,779 4864,0 678,-390 1016,-904 1015,-1417l-4 -1231c1,512 -337,1026 -1014,1418 -1348,777 -3526,777 -4865,0 -664,-387 -997,-893 -999,-1400z"/>
    <path class="fil5" d="M49368 48951c-1347,778 -1353,2040 -15,2817 1338,779 3516,779 4864,0 1346,-777 1353,-2039 14,-2816 -1337,-778 -3516,-779 -4863,-1z"/>
    <path class="fil6" d="M48353 48797l4 1231c1,507 334,1013 999,1399 1339,778 3516,778 4864,0 678,-391 1016,-904 1015,-1417l-4 -1232c1,513 -337,1027 -1014,1418 -1348,778 -3526,778 -4865,0 -664,-386 -997,-892 -999,-1399z"/>
    <path class="fil5" d="M49368 47378c-1347,779 -1353,2040 -15,2818 1338,778 3516,778 4864,0 1346,-778 1353,-2039 14,-2817 -1337,-777 -3516,-778 -4863,-1z"/>
    <path class="fil4" d="M48353 47225l4 1231c1,507 334,1013 999,1399 1339,778 3516,778 4864,0 678,-391 1016,-905 1015,-1418l-4 -1231c1,513 -337,1026 -1014,1418 -1348,778 -3526,778 -4865,0 -664,-387 -997,-893 -999,-1399z"/>
    <path class="fil5" d="M49368 45806c-1347,778 -1353,2040 -15,2818 1338,778 3516,778 4864,0 1346,-778 1353,-2039 14,-2817 -1337,-778 -3516,-778 -4863,-1z"/>
    <path class="fil6" d="M48353 45652l4 1232c1,506 334,1012 999,1398 1339,779 3516,779 4864,0 678,-391 1016,-904 1015,-1417l-4 -1231c1,512 -337,1026 -1014,1417 -1348,778 -3526,778 -4865,0 -664,-386 -997,-892 -999,-1399z"/>
    <path class="fil7" d="M49368 44234c-1347,778 -1353,2040 -15,2817 1338,778 3516,778 4864,0 1346,-777 1353,-2039 14,-2816 -1337,-778 -3516,-779 -4863,-1z"/>
   </g>
   <g>
    <polygon class="fil8" points="32371,57543 28972,55567 37910,50407 54286,59924 41929,67058 28952,59517 "/>
    <polygon class="fil9" points="41929,67058 41931,67715 54287,60581 54286,59924 "/>
    <path class="fil10" d="M32181 56655l1003 582 2566 -1481 951 553 -2566 1481 834 485 2566 -1482 1038 604 -2566 1481 832 484 2566 -1482 1015 590 -8 1524 -2035 1174c-54,31 -54,81 -1,112l1903 1105 -829 479 966 561 2120 -1224 -966 -562 -1101 636 -1809 -1051 1941 -1120 2795 1 9 -1620 1964 -1134 1809 1051 -964 557 966 561 963 -557 1413 822 -963 556 966 561 2118 -1222 -966 -562 -964 557 -1413 -822 964 -556 -966 -561 -964 556 -1902 -1105c-54,-31 -139,-31 -192,0l-2059 1188 -2583 0 -1038 -603 2540 -1467 -832 -484 -2540 1467 -1039 -603 2540 -1467 -834 -485 -2540 1467 -951 -553 2540 -1467 -1002 -582 -5295 3057z"/>
    <polygon class="fil11" points="28972,55567 28952,59517 32371,57543 "/>
    <polygon class="fil11" points="28952,59516 28954,60174 41931,67715 41929,67058 "/>
   </g>
   <g>
    <path class="fil12" d="M141601 15652c-3419,817 -7649,2848 -13371,6509 -2009,1285 -4200,2770 -6605,4474 -12191,8635 -27091,10987 -38883,6130 -960,-395 -1888,-833 -2784,-1311 -11828,-6318 -14370,-19616 -17560,-31454l-54745 0c-11115,12048 -10347,27794 3776,33043 17209,1518 22875,-6109 35814,-9479 8294,-2160 14147,1260 18057,14840 4475,15539 12996,25748 24854,28625 22414,5439 36633,-10407 51447,-21147l0 -30230z"/>
    <path class="fil13" d="M141601 15652l0 -15652 -79203 0c4013,14894 3440,26523 20097,33381 11793,4858 26939,1889 39130,-6746 5603,-3970 13461,-9427 19976,-10983z"/>
    <path class="fil13" d="M141601 36270c-3757,2255 -8345,5917 -14328,11441 -3700,3415 -7799,6165 -12083,8186 -8426,3975 -17563,5128 -25761,2969 -2594,-683 -5020,-1672 -7258,-2947 -7166,-4082 -12407,-11095 -15076,-20364 -2891,-10038 -6833,-15921 -12051,-17988 -1670,-661 -3438,-908 -5278,-836 -12949,512 -17943,15670 -38337,16312 15077,5605 35867,-4286 45888,1735 6933,4166 5573,12317 5919,20954 198,4965 1399,9354 3390,13029 14297,26387 56577,3465 74975,-12452l0 -20039z"/>
   </g>
   <g>
    <g>
     <path class="fil14" d="M130259 36684l0 6 0 5c0,119 -7,233 -13,346l0 0 -114 -64c-3,55 -3,110 -7,164l0 0 -113 -64c-3,54 -4,110 -7,164l0 0 -114 -64c-2,54 -3,110 -6,163l0 0 -114 -64c-2,55 -3,110 -6,164l0 0 -114 -64c-2,54 -3,110 -6,164l0 0 -114 -64c-3,54 -3,110 -7,163l0 0 -114 -63c-2,54 -3,109 -6,163l0 0 -114 -64c-2,54 -3,110 -6,164l0 0 -114 -64c-2,54 -3,110 -6,164l0 0 -17201 -9638c-8,-124 -14,-249 -14,-372l0 0c0,-1175 359,-2037 937,-2477l0 0c38,-35 79,-68 120,-99l0 0c39,-36 79,-69 120,-100l0 0c39,-36 79,-68 120,-100l0 0c39,-35 80,-68 121,-99l0 0c38,-36 79,-69 120,-100l0 0c38,-35 79,-68 120,-100l0 0c39,-35 79,-68 120,-100l0 0c39,-35 79,-68 120,-99l0 0c557,-509 1351,-587 2236,-121l0 0c241,-530 561,-951 945,-1254l0 0c39,-34 79,-67 120,-99l0 0c39,-35 79,-68 120,-100l0 0c39,-34 79,-67 120,-99l0 0c39,-35 80,-68 120,-100l0 0c40,-35 80,-68 121,-100l0 0c39,-34 79,-67 120,-99l0 0c39,-35 79,-68 120,-100l0 0c39,-35 80,-68 120,-100l0 0c477,-422 1061,-647 1718,-647l0 0c583,0 1224,178 1896,554l0 0c2234,1252 4120,4305 4727,7382l0 0c131,54 264,116 399,191l0 0c1950,1093 3530,4102 3530,6721z"/>
     <path class="fil15" d="M120521 23287c2234,1252 4120,4306 4727,7382 131,54 264,116 399,192 1950,1092 3530,4101 3530,6720 0,67 -2,131 -4,195l-3 -1c-2,52 -3,106 -6,158 0,1 0,2 0,3 0,1 0,2 0,2l-17201 -9636c-8,-125 -14,-250 -14,-373 0,-1175 358,-2037 937,-2477 2,-1 4,-3 6,-5 565,-426 1338,-451 2192,27 206,115 407,257 602,417 83,-508 218,-963 397,-1357 241,-529 561,-951 945,-1254 5,-4 11,-9 16,-14 892,-691 2120,-739 3477,21z"/>
    </g>
    <g>
     <path class="fil16" d="M105668 14340l0 -11c0,-726 222,-1259 580,-1532l0 0c24,-22 48,-42 74,-61l0 0c24,-22 49,-43 75,-62l0 0c23,-22 48,-42 74,-62l0 0c24,-22 49,-42 74,-61l0 0c24,-22 49,-43 75,-62l0 0c24,-22 49,-42 74,-62l0 0c24,-22 49,-42 74,-61l0 0c24,-22 49,-43 75,-62l0 0c344,-315 835,-363 1383,-75l0 0c149,-327 347,-588 584,-775l0 0c25,-22 49,-42 74,-62l0 0c25,-21 50,-42 75,-62l0 0c24,-21 49,-41 74,-61l0 0c24,-22 50,-42 75,-62l0 0c24,-21 49,-42 74,-61l0 0c24,-22 49,-42 74,-62l0 0c25,-22 50,-42 75,-62l0 0c24,-21 49,-42 74,-61l0 0c295,-262 657,-401 1063,-401 361,0 757,110 1173,343l0 0c1382,774 2549,2663 2924,4567l0 0c81,33 164,72 248,118l0 0c1206,676 2184,2538 2184,4158l0 0c0,76 -5,149 -9,222l0 0 -70 -40c-2,33 -2,68 -4,101l0 0 -71 -40c-1,34 -2,69 -4,102l0 0 -70 -40c-2,34 -2,68 -4,101l0 0 -71 -39c-1,33 -2,68 -3,101l0 0 -71 -39c-1,33 -2,68 -4,101l0 0 -70 -40c-2,34 -2,68 -4,101l0 0 -71 -39c-1,33 -2,68 -4,101l0 0 -70 -39c-2,33 -2,68 -4,101l0 0 -70 -40c-2,34 -2,68 -4,102l0 0 -10642 -5963c-5,-74 -8,-147 -9,-220z"/>
     <path class="fil17" d="M116319 20522c4,-72 8,-144 8,-221 0,-1620 -978,-3482 -2184,-4158 -84,-46 -166,-85 -247,-118 -375,-1904 -1542,-3792 -2925,-4567 -1478,-828 -2710,-107 -2991,1611 -121,-99 -245,-187 -372,-258 -1072,-600 -1940,80 -1940,1518 0,77 4,154 9,231l10642 5962z"/>
    </g>
    <g>
     <path class="fil14" d="M126848 11155l0 -6c0,-452 138,-782 360,-951l0 0c15,-14 30,-27 46,-39l0 0c15,-13 30,-26 46,-38l0 0c15,-14 31,-26 46,-38l0 0c15,-14 31,-26 47,-39l0 0c15,-13 30,-26 46,-38l0 0c15,-13 30,-26 46,-38l0 0c15,-14 30,-26 46,-38l0 0c15,-14 30,-27 46,-39l0 0c214,-195 519,-225 859,-46l0 0c92,-203 215,-365 363,-481l0 0c15,-14 30,-26 46,-39l0 0c15,-13 30,-26 46,-38l0 0c15,-13 31,-26 46,-38l0 0c15,-14 31,-26 47,-39l0 0c15,-13 30,-25 46,-38l0 0c15,-13 30,-26 46,-38l0 0c15,-14 30,-26 46,-39l0 0c15,-13 31,-26 46,-38l0 0c183,-162 408,-248 660,-248 224,0 470,68 728,213l0 0c858,480 1583,1653 1816,2835l0 0c50,20 101,44 153,73l0 0c749,420 1356,1576 1356,2582l0 0c0,47 -2,92 -5,137l0 0 -44 -25c-1,21 -1,43 -2,63l0 0 -44 -24c-1,21 -1,42 -2,63l0 0 -44 -25c-1,21 -1,42 -3,63l0 0 -43 -25c-1,21 -2,43 -3,63l0 0 -44 -24c-1,21 -1,42 -2,62l0 0 -44 -24c-1,21 -1,42 -2,63l0 0 -44 -25c-1,21 -1,42 -2,63l0 0 -44 -24c-1,20 -1,42 -3,62l0 0 -43 -24c-1,21 -2,42 -3,63l0 0 -6606 -3702c-3,-46 -6,-91 -6,-137z"/>
     <path class="fil17" d="M133460 14994c3,-45 6,-90 6,-138 0,-1006 -608,-2161 -1356,-2581 -52,-29 -103,-53 -154,-74 -233,-1181 -957,-2354 -1815,-2835 -918,-514 -1683,-66 -1858,1000 -75,-61 -152,-116 -231,-160 -665,-372 -1204,50 -1204,943 0,47 3,95 5,143l6607 3702z"/>
    </g>
   </g>
   <g>
    <g>
     <path class="fil18" d="M61388 44365c-325,187 -325,491 -4,678 160,93 371,139 582,139 158,0 316,-26 454,-78 47,-18 91,-38 133,-62 2,-1 4,-3 6,-4 317,-186 317,-487 -2,-672 -321,-187 -846,-188 -1169,-1zm584 -208c242,0 485,53 669,160 365,212 363,557 1,770 -2,1 -4,2 -6,3 -41,24 -85,45 -132,64 -369,147 -878,127 -1204,-63 -367,-213 -365,-561 4,-775 184,-106 426,-159 668,-159z"/>
     <path class="fil18" d="M61179 44243c-439,254 -441,667 -5,921 218,126 504,189 791,189 234,0 468,-42 666,-126 45,-19 89,-40 130,-64 2,-1 4,-2 5,-3 433,-254 434,-664 0,-916 -436,-253 -1149,-253 -1587,-1zm1537 1034c-488,214 -1185,191 -1626,-65 -483,-281 -480,-736 6,-1017 242,-140 560,-210 877,-210 318,0 636,70 877,211 480,279 481,733 1,1013 -2,1 -3,2 -5,3 -41,24 -85,46 -130,65z"/>
     <path class="fil18" d="M61000 44140c-540,312 -543,819 -8,1130 268,156 621,234 974,234 300,0 600,-56 850,-169 44,-20 88,-42 129,-66 1,0 3,-1 5,-2 534,-312 535,-817 1,-1127 -535,-312 -1412,-312 -1951,0zm1899 1244c-590,271 -1450,249 -1990,-65 -582,-338 -579,-889 8,-1228 293,-169 677,-253 1061,-253 383,0 766,84 1057,253 580,337 579,886 -2,1224 -2,1 -3,2 -5,3 -41,24 -84,46 -129,66z"/>
     <path class="fil18" d="M59179 45502c133,0 267,-25 379,-75 20,-9 40,-19 58,-30 25,-14 46,-29 66,-44 173,-140 152,-335 -63,-460 -240,-139 -631,-140 -872,-1 -242,140 -242,367 -3,506 120,70 277,104 435,104zm503 -645c249,145 269,373 63,532 -20,16 -42,31 -67,45 -18,10 -38,20 -58,30 -277,128 -683,119 -938,-30 -274,-159 -273,-419 3,-578 137,-79 317,-119 498,-119 181,0 362,40 499,120z"/>
     <path class="fil18" d="M59178 45630c190,0 381,-37 536,-112 20,-9 39,-19 58,-30 24,-14 46,-29 67,-44 258,-190 237,-467 -64,-641 -325,-190 -857,-190 -1183,-1 -328,189 -330,497 -4,686 162,95 376,142 590,142zm599 -75c-365,178 -911,168 -1252,-30 -360,-210 -359,-550 4,-759 181,-104 418,-157 655,-157 237,0 474,53 654,157 335,195 357,505 64,715 -20,15 -43,30 -67,44 -19,10 -38,21 -58,30z"/>
     <path class="fil18" d="M59178 45742c240,0 480,-48 673,-144 20,-10 39,-20 58,-31 24,-13 46,-28 67,-43 334,-233 313,-581 -63,-800 -399,-232 -1053,-232 -1455,0 -403,233 -405,612 -6,844 200,116 463,174 726,174zm736 -108c-441,222 -1109,212 -1524,-30 -435,-252 -432,-663 6,-916 218,-126 505,-189 791,-189 286,0 572,63 789,189 410,239 431,619 63,873 -21,14 -44,29 -68,43 -19,10 -38,21 -57,30z"/>
     <path class="fil18" d="M61824 48345c25,-14 47,-30 67,-46 171,-139 150,-333 -65,-458 -239,-139 -631,-140 -872,-1 -242,140 -242,367 -3,506 120,70 277,104 435,104 135,0 269,-25 381,-76 20,-9 39,-18 57,-29zm-932 -541c137,-79 318,-119 498,-119 181,0 362,40 499,120 249,145 270,372 65,531 -21,16 -43,31 -68,45 -18,11 -37,21 -56,30 -278,129 -685,120 -941,-29 -274,-159 -273,-419 3,-578z"/>
     <path class="fil18" d="M62048 48391c256,-190 235,-466 -65,-640 -326,-190 -857,-190 -1184,-1 -328,189 -330,497 -4,686 162,95 376,142 590,142 191,0 382,-38 538,-113 19,-9 38,-19 56,-29 25,-15 48,-30 69,-45zm-2 -677c334,195 356,504 65,714 -21,15 -44,30 -69,45 -18,10 -36,20 -56,29 -365,179 -912,169 -1254,-29 -360,-210 -358,-550 5,-759 180,-105 417,-157 654,-157 237,0 474,53 655,157z"/>
     <path class="fil18" d="M62185 48471c332,-233 311,-581 -64,-799 -400,-232 -1054,-232 -1456,0 -403,233 -405,612 -6,844 200,116 463,174 727,174 240,0 481,-48 674,-145 19,-9 38,-19 56,-30 25,-14 48,-28 69,-44zm-1 -835c409,238 430,618 64,872 -22,15 -45,29 -70,44 -18,10 -37,20 -56,30 -440,222 -1109,212 -1525,-30 -434,-252 -432,-663 6,-916 219,-126 505,-189 791,-189 287,0 572,63 790,189z"/>
     <path class="fil18" d="M69933 62916c265,0 530,-59 733,-176 348,-201 398,-510 149,-741l105 -64c308,266 256,631 -149,865 -463,267 -1212,268 -1671,1 -459,-266 -457,-702 5,-969 230,-132 533,-199 835,-199 280,0 559,57 781,171l-102 62c-404,-205 -1022,-196 -1409,27 -406,234 -407,615 -5,848 200,116 464,175 728,175z"/>
     <path class="fil18" d="M69932 63129c359,0 720,-79 995,-238 495,-285 545,-734 149,-1051l104 -63c456,351 407,856 -147,1176 -608,351 -1593,350 -2195,0 -604,-351 -601,-921 7,-1272 303,-175 700,-262 1096,-262 371,0 742,76 1035,229l-102 62c-549,-284 -1397,-273 -1925,32 -550,317 -553,833 -6,1150 271,158 630,237 989,237z"/>
     <path class="fil18" d="M69933 63318c442,0 885,-98 1224,-293 624,-361 673,-932 145,-1323l103 -63c588,426 539,1052 -144,1446 -734,424 -1923,424 -2651,1 -727,-422 -723,-1111 11,-1535 366,-211 846,-317 1326,-317 449,0 898,93 1252,278l-102 62c-674,-351 -1720,-339 -2372,38 -676,390 -679,1025 -10,1414 335,194 776,292 1218,292z"/>
     <path class="fil18" d="M70345 59563c-462,267 -1211,268 -1671,1 -459,-267 -457,-702 6,-969 230,-133 532,-199 834,-199 273,0 546,54 765,162l-106 60c-404,-194 -1008,-182 -1389,37 -406,235 -406,615 -5,848 201,117 464,175 728,175 265,0 531,-59 734,-176 355,-205 400,-522 133,-754l107 -62c323,267 276,639 -136,877z"/>
     <path class="fil18" d="M69506 59892c360,0 720,-80 995,-238 499,-289 546,-742 139,-1060l107 -61c464,352 418,861 -139,1182 -609,351 -1594,350 -2196,0 -604,-351 -601,-921 7,-1271 303,-175 700,-263 1097,-263 367,0 734,75 1026,225l-105 61c-550,-279 -1389,-266 -1914,37 -549,317 -552,833 -6,1151 272,158 630,237 989,237z"/>
     <path class="fil18" d="M69507 60080c443,0 886,-98 1224,-293 626,-361 674,-934 141,-1326l106 -61c590,426 541,1052 -143,1448 -734,423 -1923,423 -2650,1 -728,-423 -724,-1112 10,-1536 366,-211 847,-317 1326,-317 449,0 897,93 1251,278l-105 60c-674,-349 -1717,-335 -2368,40 -675,390 -679,1025 -9,1414 334,195 775,292 1217,292z"/>
     <path class="fil18" d="M89000 66537c331,192 872,192 1207,-1 308,-178 333,-459 74,-653l87 -50c307,222 280,548 -75,753 -382,220 -1001,221 -1380,1 -379,-221 -377,-580 4,-801 356,-205 922,-218 1304,-39l-87 51c-334,-152 -821,-140 -1130,38 -336,194 -336,508 -4,701z"/>
     <path class="fil18" d="M88783 66662c450,261 1185,261 1639,-1 427,-247 453,-640 77,-903l87 -51c424,291 399,730 -76,1005 -502,290 -1316,289 -1814,0 -499,-290 -496,-761 6,-1051 476,-275 1235,-288 1737,-39l-87 50c-454,-221 -1136,-208 -1564,39 -454,262 -456,689 -5,951z"/>
     <path class="fil18" d="M88595 66772c553,321 1459,321 2017,-1 532,-307 558,-800 77,-1123l87 -50c529,351 502,888 -78,1223 -607,350 -1588,350 -2189,1 -601,-349 -598,-918 8,-1268 580,-335 1507,-349 2111,-42l-86 50c-557,-279 -1407,-265 -1939,42 -558,322 -561,846 -8,1168z"/>
     <path class="fil18" d="M88861 71803c632,-365 675,-946 126,-1338l105 -61c607,426 564,1061 -127,1459 -734,424 -1923,424 -2650,1 -728,-422 -724,-1111 11,-1535 724,-418 1895,-423 2625,-13l-105 60c-672,-375 -1750,-371 -2416,14 -676,390 -680,1025 -10,1414 669,389 1765,389 2441,-1z"/>
     <path class="fil18" d="M88862 70538c480,352 439,868 -124,1193 -608,351 -1594,350 -2196,0 -604,-351 -601,-921 7,-1272 599,-346 1567,-350 2173,-11l-105 61c-547,-305 -1423,-302 -1963,11 -550,317 -553,833 -7,1150 544,317 1435,317 1985,-1 504,-291 546,-752 125,-1070l105 -61z"/>
     <path class="fil18" d="M88598 70691c337,268 294,647 -123,887 -462,267 -1211,268 -1671,2 -459,-267 -456,-703 6,-969 454,-262 1190,-266 1650,-11l-104 61c-403,-222 -1045,-219 -1442,10 -406,234 -406,615 -5,848 402,233 1056,233 1462,-1 360,-208 401,-532 121,-765l106 -62z"/>
     <path class="fil18" d="M102022 72975c402,234 1056,234 1462,-1 404,-233 406,-612 5,-845 -359,-209 -922,-232 -1326,-68l-106 -61c462,-197 1120,-174 1537,68 459,267 455,701 -6,967 -462,267 -1211,268 -1671,1 -439,-256 -456,-665 -51,-934l105 60c-349,236 -331,591 51,813z"/>
     <path class="fil18" d="M101760 73127c544,316 1435,316 1985,-2 547,-316 550,-832 6,-1148 -504,-293 -1302,-315 -1853,-68l-106 -61c610,-281 1501,-258 2064,69 602,349 601,920 -5,1270 -608,351 -1594,350 -2196,0 -584,-339 -600,-883 -51,-1236l105 61c-492,319 -475,809 51,1115z"/>
     <path class="fil18" d="M101533 73260c669,389 1765,389 2441,-1 674,-389 678,-1024 8,-1413 -628,-365 -1633,-388 -2311,-67l-105 -61c737,-354 1834,-332 2521,67 728,423 724,1112 -9,1535 -734,423 -1923,423 -2650,1 -707,-411 -723,-1073 -50,-1499l105 60c-616,392 -599,1001 50,1378z"/>
     <path class="fil18" d="M111791 71485c401,233 1055,233 1461,-2 404,-233 406,-612 5,-845 -382,-222 -995,-234 -1401,-33l-105 -61c463,-233 1171,-222 1611,33 459,267 455,701 -6,967 -462,267 -1211,268 -1670,1 -417,-242 -454,-623 -112,-891l106 61c-286,235 -248,561 111,770z"/>
     <path class="fil18" d="M111528 71636c545,316 1435,316 1985,-1 547,-316 551,-832 6,-1149 -527,-306 -1375,-317 -1926,-32l-105 -61c609,-318 1551,-307 2136,33 602,350 601,921 -5,1270 -608,352 -1593,350 -2196,0 -561,-326 -598,-841 -113,-1193l106 60c-428,319 -391,780 112,1073z"/>
     <path class="fil18" d="M111301 71769c670,389 1765,389 2441,-1 674,-389 678,-1024 8,-1413 -651,-378 -1705,-389 -2382,-31l-105 -60c736,-392 1883,-381 2592,31 728,422 724,1111 -8,1534 -735,424 -1923,424 -2651,1 -684,-398 -721,-1031 -112,-1458l105 61c-552,393 -515,972 112,1336z"/>
     <path class="fil18" d="M106908 66068c379,220 376,579 -4,798 -382,221 -1001,222 -1381,1 -370,-215 -377,-563 -21,-785l87 50c-310,195 -302,498 21,685 332,193 872,193 1207,-1 334,-192 336,-505 4,-698 -277,-161 -701,-188 -1028,-80l-89 -51c376,-135 879,-108 1204,81z"/>
     <path class="fil18" d="M107033 66941c452,-261 454,-687 5,-948 -398,-231 -1016,-258 -1467,-83l-88 -51c500,-203 1196,-175 1641,84 498,289 497,760 -4,1049 -502,290 -1316,289 -1813,0 -490,-284 -496,-743 -21,-1034l87 50c-428,263 -422,677 21,934 449,262 1184,262 1639,-1z"/>
     <path class="fil18" d="M107222 67052c557,-322 560,-846 7,-1167 -501,-291 -1289,-319 -1847,-84l-87 -50c606,-263 1472,-235 2021,84 600,349 597,918 -8,1267 -278,160 -635,247 -999,261l-785 -150 -95 -55c551,211 1305,176 1793,-106z"/>
     <path class="fil18" d="M105187 65901c-466,284 -519,713 -157,1027l-271 -156c-189,-309 -75,-668 341,-921l87 50z"/>
    </g>
    <g>
     <path class="fil19" d="M61845 44446l5 0c319,0 605,226 386,404l0 0c-16,13 -34,26 -55,38l0 0c-24,13 -48,25 -73,35l0 0c-404,159 -942,-178 -557,-401l0 0c92,-53 194,-75 294,-76z"/>
     <path class="fil19" d="M60360 46601c-17,15 -39,31 -64,45l0 0c-19,11 -39,21 -60,30l0 0c-406,171 -960,-172 -570,-396l0 0c93,-54 197,-77 298,-77l0 0c316,0 599,221 396,398l0 0z"/>
     <path class="fil19" d="M61369 47835l5 0c314,0 596,218 398,395l0 0c-18,16 -40,32 -67,47l0 0c-18,11 -37,20 -56,28l0 0c-407,175 -965,-168 -573,-394l0 0c91,-53 193,-75 293,-76z"/>
     <path class="fil19" d="M68380 48436l-127 73 -6145 -3586c25,-10 49,-22 73,-35l0 0c21,-12 39,-25 55,-38l0 0 6144 3586z"/>
     <path class="fil19" d="M61322 46307l3570 669 2987 1749 -127 74 -2956 -1733 -3570 -668 -2043 -1189c13,-6 25,-13 38,-20l0 0c33,-19 59,-38 79,-58l0 0 2022 1176z"/>
     <path class="fil19" d="M61036 46995l3682 551 2581 1514 -127 73 -2547 -1494 -3682 -551 -707 -412c21,-9 41,-19 60,-30l0 0c25,-14 47,-30 64,-45l0 0 676 394z"/>
     <path class="fil19" d="M65145 49437c-14,11 -30,21 -48,32l0 0c-27,15 -55,28 -83,39l0 0c-404,149 -928,-185 -547,-405l0 0c93,-54 197,-76 298,-76l0 0c324,0 613,231 380,410l0 0z"/>
     <path class="fil19" d="M66071 49990l-126 73 -931 -555c28,-11 56,-24 83,-39l0 0c18,-11 34,-21 48,-32l926 553z"/>
     <path class="fil19" d="M65422 50365l-127 73 -3646 -2133c19,-8 38,-17 56,-28l0 0c27,-15 49,-31 67,-47l0 0 3650 2135z"/>
     <polygon class="fil19" points="68253,48509 68253,37344 68380,37344 68380,48436 "/>
     <polygon class="fil19" points="67752,48799 67752,37633 67879,37633 67879,48725 "/>
     <polygon class="fil19" points="67172,49134 67172,37969 67299,37969 67299,49061 "/>
     <polygon class="fil19" points="66071,33975 66071,49990 65945,50063 65945,33975 "/>
     <polygon class="fil19" points="65295,50438 65295,34350 65422,34350 65422,50365 "/>
     <path class="fil19" d="M59576 45255c-20,20 -46,40 -78,59l0 0c-13,7 -26,13 -39,20l0 0c-407,192 -987,-158 -591,-386l0 0c93,-54 197,-76 298,-76l0 0c308,0 584,208 410,383l0 0z"/>
     <path class="fil19" d="M96787 61999c7,1 14,2 21,3l0 0c449,86 446,852 -20,787l0 0c-424,-60 -468,-706 -128,-786l0 0c23,-5 47,-8 73,-8l0 0c17,0 35,1 54,4l0 0z"/>
     <path class="fil19" d="M94971 64844l4 0 3 0c17,0 34,2 52,4l0 0c15,2 31,5 45,9l0 0c424,109 412,845 -44,781l0 0c-436,-61 -470,-740 -101,-791l0 0c13,-2 27,-3 41,-3z"/>
     <path class="fil19" d="M95045 56894l1 246 29 7717c-14,-4 -30,-7 -45,-9l0 0c-37,-5 -70,-5 -100,-1l0 0 -30 -7973 145 20z"/>
     <path class="fil19" d="M95022 44295l23 12575 1744 2886 -2 2243c-47,-7 -89,-5 -127,4l-19 -2219 -1595 -2644 -1 -246 -145 -20 -24 -12599 146 20z"/>
     <path class="fil19" d="M93995 44151l40 22623c-37,-19 -79,-33 -146,-42l0 0 -40 -22602 146 21z"/>
     <path class="fil19" d="M91592 55702c15,0 30,1 46,4l0 0c36,5 69,14 100,27l0 0c369,155 337,824 -99,763l0 0c-451,-64 -472,-794 -56,-794l0 0c3,0 6,0 9,0l0 0z"/>
     <path class="fil19" d="M91721 46668l17 9065c-31,-13 -64,-22 -100,-27l0 0c-16,-3 -31,-4 -46,-4l0 0 -17 -9054 146 20z"/>
     <path class="fil19" d="M92995 44010l22 12148 -1575 1399 7 7652c-15,-4 -31,-7 -48,-9l0 0c-36,-6 -69,-6 -99,-1l0 0 -8 -7730 1578 -1398 -23 -12081 146 20z"/>
     <path class="fil19" d="M91450 65208l-1406 812c-19,-16 -41,-31 -67,-46l0 0c-26,-15 -53,-28 -80,-39l1407 -812 146 85z"/>
     <path class="fil19" d="M89897 65935c27,11 54,24 80,39l0 0c26,15 48,30 67,46l0 0c154,129 83,279 -83,374l0 0c-185,107 -488,145 -724,8l0 0c-237,-138 -170,-314 15,-421l0 0c102,-58 237,-96 379,-96l0 0c89,0 180,15 266,50l0 0z"/>
     <path class="fil19" d="M93043 65815l-5692 3294c-20,-17 -43,-33 -70,-49l0 0c-25,-14 -50,-27 -76,-37l5692 -3293 146 85z"/>
     <path class="fil19" d="M94035 66769l-1491 860 -1124 2491 -808 473c-17,-13 -37,-26 -59,-39l0 0c-29,-18 -60,-32 -91,-44l0 0 769 -452 1126 -2491 1531 -884 147 86z"/>
     <path class="fil19" d="M90206 70465l4 0c84,0 170,14 252,45l0 0c31,12 62,26 91,44l0 0c22,13 42,26 59,39l0 0c164,130 94,284 -74,380l0 0c-185,107 -487,145 -724,7l0 0c-237,-137 -171,-313 14,-419l0 0c101,-59 237,-96 378,-96z"/>
     <path class="fil19" d="M93626 66154l-1972 1137 -1361 2417 -2375 1378c-12,-9 -26,-18 -40,-26l0 0c-38,-22 -78,-40 -118,-53l0 0 2350 -1364 1361 -2416 2008 -1159 147 86z"/>
     <path class="fil19" d="M93004 43192l39 22623c-37,-19 -78,-33 -145,-41l0 0 -40 -22603 146 21z"/>
     <path class="fil19" d="M93586 43528l40 22623c-37,-19 -79,-32 -146,-41l0 0 -40 -22602 146 20z"/>
     <path class="fil19" d="M87401 68852c31,12 62,26 92,43l0 0c22,13 41,26 58,40l0 0c165,130 94,284 -73,380l0 0c-185,107 -488,145 -725,7l0 0c-237,-137 -170,-313 15,-420l0 0c101,-58 236,-96 378,-96l0 0c85,0 172,14 255,46l0 0z"/>
     <path class="fil19" d="M87923 70829c31,12 62,26 92,43l0 0c22,13 41,26 58,40l0 0c164,130 94,283 -74,380l0 0c-184,107 -487,145 -724,7l0 0c-237,-138 -170,-313 15,-420l0 0c100,-58 236,-96 377,-96l0 0c86,0 173,14 256,46l0 0z"/>
     <path class="fil19" d="M89108 53772l0 233 14 2334c-16,-4 -32,-7 -48,-10l0 0c-31,-4 -59,-4 -85,-1l0 0 -15 -2575 134 19z"/>
     <path class="fil19" d="M90153 59379c17,2 33,5 49,10l0 0c378,105 363,765 -47,707l0 0c-397,-55 -428,-679 -87,-719l0 0c12,-1 24,-2 36,-2l0 0c16,0 32,1 49,4l0 0z"/>
     <path class="fil19" d="M89083 40299l25 13450 1077 1852 -32 3778c-30,-5 -59,-5 -85,-2l0 0 -16 -3750 -944 -1622 0 -233 -134 -19 -25 -13472 134 18z"/>
     <path class="fil19" d="M87209 54464c17,3 33,6 48,10l0 0c379,105 364,765 -47,708l0 0c-396,-56 -427,-679 -86,-719l0 0c12,-2 24,-2 36,-2l0 0c16,0 32,1 49,3l0 0z"/>
     <path class="fil19" d="M88439 40209l21 11182 -1215 1259 12 1824c-15,-4 -31,-7 -48,-10l0 0c-30,-4 -59,-4 -85,-1l0 0 -13 -1889 1215 -1258 -21 -11126 134 19z"/>
     <path class="fil19" d="M89021 56326l4 0 3 0c15,0 30,1 46,3l0 0c16,3 32,6 48,10l0 0c378,105 363,765 -47,708l0 0c-397,-56 -426,-678 -86,-719l0 0c10,-2 21,-2 32,-2z"/>
     <path class="fil19" d="M73428 56988l-3275 1887c-21,-15 -44,-31 -70,-46l0 0c-50,-28 -101,-51 -154,-70l3286 -1893 213 122z"/>
     <path class="fil19" d="M69582 58702l6 0c114,0 230,18 341,57l0 0c53,19 104,42 154,70l0 0c26,15 49,31 70,46l0 0c536,396 -470,949 -1128,570l0 0c-531,-307 -19,-743 557,-743z"/>
     <polygon class="fil19" points="73215,56866 73215,37206 73428,37206 73428,56988 "/>
     <polygon class="fil19" points="75706,58781 75706,39121 75919,39121 75919,58904 "/>
     <path class="fil19" d="M70094 61927l6 0c110,1 223,17 331,54l0 0c56,19 111,43 163,74l0 0c23,13 45,27 64,41l0 0c551,395 -458,955 -1120,573l0 0c-530,-306 -19,-742 556,-742z"/>
     <path class="fil19" d="M75919 58905l-1431 857 239 3093 -1463 831c-19,-13 -40,-27 -63,-40l0 0c-53,-31 -108,-55 -164,-74l0 0 1384 -785 -220 -2855 -3543 2164c-19,-14 -41,-28 -64,-41l0 0c-52,-31 -107,-55 -163,-74l3751 -2292 -4 -37 1526 -871 215 124z"/>
     <path class="fil19" d="M72846 63437l5 0c111,1 224,17 332,54l0 0c56,19 110,43 163,74l0 0c23,13 44,27 63,41l0 0c552,395 -457,955 -1120,573l0 0c-530,-306 -18,-742 557,-742z"/>
     <path class="fil19" d="M74613 37877l16 8767c-10,-2 -20,-4 -30,-5l0 0c-37,-6 -71,-5 -102,1l0 0 -16 -8782 132 19z"/>
     <path class="fil19" d="M74599 46639c10,1 20,3 30,5l0 0c397,90 389,771 -29,712l0 0c-391,-55 -425,-658 -103,-716l0 0c17,-3 34,-5 53,-5l0 0c15,0 32,1 49,4l0 0z"/>
     <path class="fil19" d="M74381 54263l2 0 1 0c15,0 31,1 47,4l0 0c30,4 58,12 84,22l0 0c341,134 315,749 -83,694l0 0c-410,-58 -429,-720 -51,-720z"/>
     <path class="fil19" d="M73360 37701l19 10090 1113 2165 23 4333c-26,-10 -54,-18 -132,-26l0 0 -22 -4285 -1115 -2165 -19 -10131 133 19z"/>
     <path class="fil19" d="M72498 55292c13,0 27,1 41,3l0 0c33,5 63,13 91,25l0 0c334,141 305,747 -90,691l0 0c-410,-58 -428,-719 -51,-719l0 0c3,0 6,0 9,0l0 0z"/>
     <path class="fil19" d="M72597 37593l33 17727c-28,-12 -58,-20 -91,-25l0 0c-14,-2 -28,-3 -41,-3l0 0 -33 -17717 132 18z"/>
     <path class="fil19" d="M71451 44633c10,0 20,1 30,3l0 0c37,5 71,15 102,29l0 0c323,149 290,743 -100,688l0 0c-410,-57 -429,-721 -51,-721l0 0c6,0 13,0 19,1l0 0z"/>
     <path class="fil19" d="M71569 37449l14 7216c-31,-14 -65,-24 -102,-29l0 0c-10,-2 -20,-3 -30,-3l0 0 -13 -7202 131 18z"/>
     <path class="fil19" d="M70735 50801l0 233 14 2334c-15,-4 -31,-7 -48,-10l0 0c-31,-4 -59,-4 -85,-1l0 0 -14 -2575 133 19z"/>
     <path class="fil19" d="M71781 56408c16,2 32,6 48,10l0 0c378,105 363,765 -47,707l0 0c-397,-55 -427,-679 -87,-719l0 0c12,-1 24,-2 36,-2l0 0c16,0 33,1 50,4l0 0z"/>
     <path class="fil19" d="M70710 37328l25 13451 1078 1851 -32 3778c-31,-5 -59,-5 -86,-2l0 0 -16 -3750 -944 -1622 0 -233 -133 -19 -25 -13472 133 18z"/>
     <path class="fil19" d="M68784 51490l4 0 3 0c15,0 30,1 45,3l0 0c17,2 33,6 48,10l0 0c379,105 364,766 -46,708l0 0c-397,-56 -428,-679 -87,-719l0 0c11,-1 22,-2 33,-2z"/>
     <path class="fil19" d="M70066 37238l21 11182 -1215 1260 12 1823c-15,-4 -31,-8 -48,-10l0 0c-30,-4 -59,-4 -85,-1l0 0 -12 -1888 1214 -1260 -20 -11125 133 19z"/>
     <path class="fil19" d="M70701 53358c17,3 33,6 48,10l0 0c378,106 364,766 -47,708l0 0c-397,-56 -426,-678 -86,-719l0 0c11,-2 23,-2 36,-2l0 0c15,0 32,1 49,3l0 0z"/>
     <path class="fil19" d="M105958 66133c-46,16 -90,36 -133,61l0 0c-23,13 -43,26 -61,39l0 0 -2965 -1708 184 -106 2975 1714z"/>
     <path class="fil19" d="M106739 66725c-568,328 -1438,-150 -975,-492l0 0c18,-13 38,-26 61,-39l0 0c43,-25 87,-45 133,-61l0 0c97,-34 199,-50 299,-50l0 0c498,0 940,378 482,642l0 0z"/>
     <path class="fil19" d="M105524 67213l3409 649 2202 1259c-19,9 -37,19 -56,29l0 0c-47,28 -84,56 -113,85l0 0 -2174 -1242 -3409 -647 -3736 -2156 185 -106 3692 2129z"/>
     <polygon class="fil19" points="102799,64525 102799,49304 102983,49304 102983,64419 "/>
     <polygon class="fil19" points="101831,49974 101831,65089 101647,65195 101647,49974 "/>
     <polygon class="fil19" points="100688,65747 100688,50526 100872,50526 100872,65641 "/>
     <polygon class="fil19" points="99649,51229 99649,66344 99465,66450 99465,51229 "/>
     <polygon class="fil19" points="98204,67178 98204,51956 98388,51956 98388,67071 "/>
     <path class="fil19" d="M111994 69682c-544,314 -1362,-110 -1028,-447l0 0c29,-29 66,-57 113,-85l0 0c19,-10 37,-20 56,-29l0 0c120,-56 250,-81 376,-81l0 0c498,0 941,377 483,642l0 0z"/>
     <path class="fil19" d="M106194 70112c-55,17 -109,40 -160,69l0 0c-15,9 -29,18 -41,26l0 0 -6528 -3757 184 -106 6545 3768z"/>
     <path class="fil19" d="M105024 68035l3593 705 3664 2110c-42,15 -83,34 -122,57l0 0c-26,14 -48,29 -68,45l-3615 -2081 -3593 -705 -4194 -2422 183 -106 4152 2397z"/>
     <path class="fil19" d="M106946 70712c-577,333 -1459,-162 -953,-505l0 0c12,-8 26,-17 41,-26l0 0c51,-29 105,-52 160,-69l0 0c89,-28 181,-41 271,-41l0 0c497,0 939,377 481,641l0 0z"/>
     <path class="fil19" d="M105105 70873l5 0c497,0 939,376 481,641l0 0c-573,330 -1444,-154 -968,-495l0 0c17,-12 35,-24 55,-36l0 0c45,-26 93,-47 141,-63l0 0c93,-32 191,-46 286,-47z"/>
     <path class="fil19" d="M99845 67901l-4 33 4978 2986c-48,16 -96,37 -141,63l0 0c-20,12 -38,24 -55,36l0 0 -4798 -2876 -190 2466 2933 1685c-49,16 -96,37 -141,63l0 0c-20,12 -38,24 -55,35l-3002 -1723 207 -2672 -1373 -819 186 -107 1455 830z"/>
     <path class="fil19" d="M112982 71327c-572,331 -1444,-153 -967,-495l0 0c16,-12 35,-24 55,-35l0 0c45,-26 92,-47 141,-64l0 0c94,-32 193,-46 290,-46l0 0c497,0 939,376 481,640l0 0z"/>
     <path class="fil19" d="M103214 72818c-573,330 -1444,-153 -968,-495l0 0c17,-12 35,-24 55,-36l0 0c46,-26 93,-47 141,-63l0 0c95,-32 194,-47 291,-47l0 0c497,0 939,377 481,641l0 0z"/>
     <path class="fil19" d="M69143 46938l4 0 3 0c17,0 33,1 51,4l0 0c7,1 14,2 21,3l0 0c451,86 445,852 -20,787l0 0c-425,-60 -468,-706 -128,-786l0 0c22,-5 45,-8 69,-8z"/>
     <path class="fil19" d="M69202 36361l-1 10581c-47,-7 -89,-5 -127,4l0 0 -20 -10606 148 21z"/>
     <path class="fil19" d="M103950 61677c15,0 30,1 46,3l0 0c36,5 69,15 100,27l0 0c369,155 337,825 -99,763l0 0c-451,-63 -472,-794 -56,-794l0 0c3,0 6,0 9,1l0 0z"/>
     <path class="fil19" d="M104079 52643l17 9064c-31,-12 -64,-22 -100,-27l0 0c-16,-2 -31,-3 -46,-3l0 0 -17 -9054 146 20z"/>
    </g>
    <g>
     <polygon class="fil20" points="95146,18963 98343,20809 99932,24913 98325,27171 95128,25326 93538,21221 "/>
     <polygon class="fil20" points="103449,33578 105057,31320 108254,33166 109842,37269 108236,39528 105039,37682 "/>
     <path class="fil21" d="M100173 18603l-1578 2217 1560 4028 3137 1811 1578 -2216 -1560 -4029 -3137 -1811zm3179 8208l-3257 -1880 -1618 -4180 15 -20 1622 -2280 3256 1880 1619 4180 -15 22 -1622 2278z"/>
     <path class="fil21" d="M98473 27356l1622 -2280 3256 1880 1619 4181 -15 20 -1622 2280 -3256 -1880 -1619 -4180 15 -21zm1681 -2129l-1578 2218 1561 4027 3137 1811 1578 -2215 -1561 -4030 -3137 -1811z"/>
     <polygon class="fil20" points="114447,58509 116055,56251 119252,58097 120840,62200 119234,64459 116037,62613 "/>
     <path class="fil21" d="M114350 51742l-3257 -1880 -1618 -4180 15 -20 1622 -2280 3256 1880 1619 4180 -15 21 -1622 2279zm-3197 -1963l3137 1811 1578 -2216 -1560 -4029 -3137 -1811 -1578 2217 1560 4028z"/>
     <path class="fil21" d="M111152 50158l-1578 2218 1561 4027 3137 1811 1578 -2215 -1561 -4030 -3137 -1811zm-1681 2128l1622 -2280 3256 1880 1619 4182 -15 19 -1622 2280 -3256 -1880 -1619 -4179 15 -22z"/>
     <path class="fil20" d="M65570 23922l777 2008 -1835 1067c-5,3 -10,5 -15,9 -1,0 -2,1 -3,1 -644,374 -1144,994 -1449,1830l-690 -398 -1590 -4104 1608 -2259 3197 1846z"/>
     <path class="fil21" d="M67399 21716l-1578 2217 728 1880 -75 43 -771 -1991 15 -20 1622 -2280 3257 1880 665 1719c-21,23 -43,48 -64,72l-661 -1708 -3138 -1812z"/>
     <path class="fil21" d="M57551 28536l-1622 2280 -3257 -1880 -1618 -4179 15 -22 1622 -2279 3256 1881 1619 4179 -15 20zm-1682 2128l1578 -2216 -1560 -4029 -3137 -1811 -1578 2217 1560 4028 3137 1811z"/>
     <polygon class="fil20" points="110432,64020 107235,62174 105645,58070 107253,55812 110450,57658 112039,61761 "/>
     <polygon class="fil20" points="109323,52102 106126,50256 104536,46152 106144,43894 109341,45740 110930,49844 "/>
     <polygon class="fil20" points="101041,36830 99434,39089 96237,37243 94647,33139 96255,30881 99452,32727 "/>
     <path class="fil21" d="M85524 19495l-1578 2217 1560 4028 3137 1811 1578 -2216 -1560 -4029 -3137 -1811zm4800 5928l-1622 2280 -3256 -1880 -1619 -4180 15 -21 1622 -2279 3257 1880 1618 4180 -15 20z"/>
    </g>
    <g>
     <path class="fil14" d="M71793 25607l1446 834 -2973 1728 -1445 -835c-1684,-972 -3219,-1059 -4328,-414l2973 -1728c468,-272 1011,-414 1610,-414l0 0c820,0 1744,267 2717,829l0 0z"/>
     <path class="fil14" d="M92783 25372c5754,3323 10401,11374 10382,17983l0 0c0,127 -4,252 -8,375l0 0 -2972 1727c4,-123 7,-248 7,-374l0 0c19,-6610 -4628,-14661 -10382,-17983l0 0c-2329,-1346 -4594,-30 -6333,454l-1851 458 -1292 662 -437 -2305 3523 -588 1951 -1134c796,-462 1720,-703 2739,-703 1406,0 2994,459 4673,1428l0 0z"/>
     <path class="fil16" d="M107062 48030c1102,1904 1779,4050 1775,5972l0 0c-5,1913 -686,3262 -1782,3898l0 0 -2973 1727c1096,-635 1777,-1985 1781,-3897l0 0c5,-1923 -674,-4069 -1773,-5972l0 0c-1014,-1758 -2386,-3309 -3905,-4301l0 0 2972 -1727c1520,989 2891,2543 3905,4300l0 0z"/>
     <path class="fil16" d="M78938 23194l4482 2587 -1021 594c368,-214 766,-382 1188,-498l0 0 250 144 -2975 1728 -4897 -2827c-1572,-908 -3003,-988 -4037,-388l2974 -1728c436,-253 942,-385 1501,-385 764,0 1626,248 2535,773l0 0z"/>
     <path class="fil22" d="M75965 24922l4898 2827c1832,-2426 5156,-2837 8946,-649l0 0c5754,3322 10401,11373 10383,17983l0 0c-1,126 -3,251 -7,374l0 0c1519,991 2890,2543 3905,4300l0 0c1100,1904 1779,4051 1774,5973l0 0c-11,3850 -2760,5416 -6110,3482l0 0 -30972 -17882c-1675,-967 -3196,-2632 -4296,-4538l0 0c-1101,-1906 -1780,-4051 -1774,-5976l0 0c11,-3847 2759,-5415 6109,-3481l0 0 1445 834c8,-2545 1299,-4020 3164,-4020l0 0c765,0 1627,248 2535,773l0 0z"/>
    </g>
    <g>
     <polygon class="fil23" points="77710,50406 77044,50794 74628,49399 75295,49012 "/>
     <polygon class="fil23" points="87748,56201 87081,56589 84801,55272 85467,54885 "/>
     <polygon class="fil24" points="85467,54885 84801,55272 84818,48970 85485,48582 "/>
     <polygon class="fil23" points="85485,48582 84818,48970 77061,44491 77728,44104 "/>
     <polygon class="fil25" points="84818,48970 84801,55272 87081,56589 80835,59938 74628,49399 77044,50794 77061,44491 "/>
     <polygon class="fil24" points="85486,48323 84819,48710 84824,46910 85491,46522 "/>
     <polygon class="fil23" points="85491,46522 84824,46910 77067,42431 77734,42044 "/>
     <polygon class="fil25" points="84824,46910 84819,48710 77062,44232 77067,42431 "/>
     <polygon class="fil24" points="85492,46275 84825,46663 84828,45395 85495,45008 "/>
     <polygon class="fil23" points="85495,45008 84828,45395 77071,40917 77738,40529 "/>
     <polygon class="fil25" points="84828,45395 84825,46663 77068,42184 77071,40917 "/>
    </g>
   </g>
   <g>
    <path class="fil13" d="M27503 16220c0,-4844 -3927,-8771 -8772,-8771 -4844,0 -8771,3927 -8771,8771 0,4845 3927,8772 8771,8772 4845,0 8772,-3927 8772,-8772zm-7118 2483l0 1654 -6620 0 0 -1654 6620 0zm-6620 -4966l0 -1656c3310,0 6622,0 9932,0l-1656 1656c-2759,0 -5517,0 -8276,0l0 0zm9932 1654c0,1656 0,3312 0,4966l-1656 0 0 -3310 0 0 -8276 0 0 -1656c3310,0 6620,0 9932,0l0 0z"/>
    <path class="fil26" d="M13872 15668c0,4589 3525,8355 8014,8739 -979,378 -2043,585 -3155,585 -4844,0 -8771,-3927 -8771,-8772 0,-4844 3927,-8771 8771,-8771 255,0 508,11 757,32 -3285,1267 -5616,4455 -5616,8187z"/>
    <path class="fil20" d="M13765 12081l9932 0 -1656 1656 -8276 0 0 -1656zm0 6622l6620 0 0 1654 -6620 0 0 -1654zm0 -3312l9932 0 0 4966 -1656 0 0 -3310 -8276 0 0 -1656z"/>
   </g>
   <path class="fil27" d="M30251 43376c-926,30 -1667,789 -1672,1730l-16 0c-7,-941 -749,-1700 -1672,-1730 928,-30 1672,-798 1672,-1743l13 0c0,945 744,1713 1675,1743z"/>
   <path class="fil28" d="M101702 78656c14925,-4292 30517,-14230 39899,-22347l0 29502c-13489,3563 -28943,2071 -39899,-7155z"/>
   <path class="fil0" d="M130350 78092c-1454,47 -2620,1240 -2627,2717l-24 0c-12,-1477 -1177,-2670 -2627,-2717 1458,-48 2627,-1253 2627,-2738l20 0c0,1485 1169,2690 2631,2738z"/>
   <g>
    <path class="fil29" d="M108411 93720c0,-2303 -1867,-4170 -4170,-4170 -2303,0 -4170,1867 -4170,4170 0,2303 1867,4170 4170,4170 2303,0 4170,-1867 4170,-4170z"/>
    <path class="fil30" d="M108319 92849c-400,-1885 -2074,-3299 -4078,-3299 -2303,0 -4170,1867 -4170,4170 0,528 98,1033 277,1498 667,-190 1673,-526 3172,-1084 2198,-820 3713,-1186 4799,-1285z"/>
    <path class="fil31" d="M104241 97890c1694,0 3152,-1010 3804,-2461 -638,-22 -1351,-85 -2106,-217 -1859,-324 -3760,595 -4835,1255 764,872 1886,1423 3137,1423z"/>
    <path class="fil32" d="M100103 93200c1332,-150 2745,-507 4038,-1224 1150,-638 2063,-1105 2782,-1448 -725,-610 -1660,-978 -2682,-978 -2127,0 -3882,1593 -4138,3650z"/>
    <path class="fil33" d="M105984 96538c-2110,0 -3820,-1710 -3820,-3820 0,-1305 655,-2457 1653,-3146 -2104,212 -3746,1988 -3746,4148 0,2303 1867,4170 4170,4170 1385,0 2613,-676 3371,-1715 -494,233 -1046,363 -1628,363z"/>
   </g>
   <g>
    <g>
     <path class="fil16" d="M69082 99795l0 5 0 6c0,119 -7,233 -13,346l0 0 -114 -64c-3,55 -3,110 -7,164l0 0 -114 -64c-2,54 -3,110 -6,164l0 0 -114 -64c-2,54 -3,110 -6,163l0 0 -114 -64c-2,55 -3,110 -6,164l0 0 -114 -64c-3,54 -3,110 -6,163l0 0 -114 -63c-3,54 -4,110 -7,163l0 0 -114 -63c-2,54 -3,109 -6,163l0 0 -114 -64c-2,54 -3,110 -6,164l0 0 -114 -64c-2,54 -3,110 -6,163l0 0 -17201 -9637c-8,-125 -14,-249 -14,-373l0 0c0,-1174 359,-2036 937,-2476l0 0c38,-35 79,-68 120,-99l0 0c39,-36 79,-69 120,-100l0 0c39,-36 79,-69 120,-100l0 0c39,-35 79,-68 120,-99l0 0c39,-36 80,-69 121,-100l0 0c38,-36 79,-69 120,-100l0 0c39,-35 79,-68 120,-100l0 0c39,-35 79,-68 120,-99l0 0c556,-509 1351,-587 2236,-122l0 0c241,-529 561,-950 945,-1253l0 0c39,-34 79,-67 120,-99l0 0c39,-35 79,-68 120,-100l0 0c39,-34 79,-67 120,-99l0 0c39,-35 80,-68 120,-100l0 0c40,-35 80,-68 120,-100l0 0c40,-35 80,-67 121,-99l0 0c39,-35 79,-68 120,-100l0 0c39,-35 79,-68 120,-100l0 0c477,-422 1061,-647 1718,-647l0 0c583,0 1224,178 1896,554l0 0c2234,1252 4120,4305 4727,7382l0 0c131,54 264,116 399,191l0 0c1950,1093 3530,4101 3530,6721z"/>
     <path class="fil15" d="M59344 86398c2234,1252 4120,4305 4727,7382 131,54 264,116 399,191 1950,1093 3530,4102 3530,6721 0,66 -2,131 -4,195l-3 -1c-2,52 -3,106 -6,158 0,1 0,2 0,3 0,1 0,2 0,2l-17201 -9637c-8,-125 -14,-249 -14,-373 0,-1174 358,-2036 937,-2476 2,-2 3,-3 5,-5 566,-427 1339,-451 2192,27 207,115 408,256 603,417 83,-509 218,-963 397,-1358 241,-529 561,-950 945,-1253 5,-5 11,-9 16,-14 892,-691 2120,-739 3477,21z"/>
    </g>
    <g>
     <path class="fil14" d="M53241 73451l0 -11c0,-727 222,-1259 579,-1532l0 0c25,-22 49,-42 75,-61l0 0c24,-22 49,-43 74,-62l0 0c24,-22 49,-42 75,-62l0 0c24,-22 49,-42 74,-61l0 0c24,-23 49,-43 74,-62l0 0c24,-22 50,-42 75,-62l0 0c24,-22 49,-42 74,-61l0 0c24,-22 49,-43 75,-62l0 0c344,-315 835,-363 1383,-75l0 0c149,-327 347,-588 584,-775l0 0c24,-22 49,-42 74,-62l0 0c25,-22 50,-42 75,-62l0 0c24,-21 49,-41 74,-61l0 0c24,-22 49,-42 75,-62l0 0c24,-21 49,-42 74,-62l0 0c24,-21 49,-41 74,-61l0 0c25,-22 50,-42 75,-62l0 0c24,-22 49,-42 74,-62l0 0c295,-261 657,-400 1063,-400 361,0 757,110 1173,343l0 0c1382,774 2549,2663 2924,4567l0 0c81,33 163,71 248,118l0 0c1206,676 2184,2538 2184,4158l0 0c0,76 -5,149 -9,221l0 0 -70 -39c-2,33 -2,68 -4,101l0 0 -71 -40c-1,34 -2,69 -4,102l0 0 -70 -40c-2,34 -2,68 -4,101l0 0 -71 -39c-1,33 -2,68 -3,101l0 0 -71 -40c-2,34 -2,69 -4,102l0 0 -70 -40c-2,34 -2,68 -4,101l0 0 -71 -39c-1,33 -2,68 -4,101l0 0 -70 -40c-2,34 -2,69 -4,102l0 0 -70 -40c-2,34 -2,68 -4,101l0 0 -10642 -5962c-5,-74 -8,-147 -9,-220z"/>
     <path class="fil34" d="M63892 79633c4,-72 8,-145 8,-221 0,-1620 -978,-3482 -2184,-4158 -84,-46 -166,-85 -247,-118 -375,-1904 -1542,-3793 -2925,-4567 -1478,-828 -2710,-107 -2991,1611 -121,-99 -245,-187 -373,-258 -1071,-600 -1939,80 -1939,1518 0,76 4,154 9,231l10642 5962z"/>
    </g>
   </g>
  </g>
 </g>
</svg>
