<?xml version="1.0" encoding="UTF-8"?>
<!DOCTYPE svg PUBLIC "-//W3C//DTD SVG 1.1//EN" "http://www.w3.org/Graphics/SVG/1.1/DTD/svg11.dtd">
<!-- Creator: CorelDRAW X7 -->
<svg xmlns="http://www.w3.org/2000/svg" xml:space="preserve" width="14.1601in" height="10.9865in" version="1.1" style="shape-rendering:geometricPrecision; text-rendering:geometricPrecision; image-rendering:optimizeQuality; fill-rule:evenodd; clip-rule:evenodd"
viewBox="0 0 141601 109865"
 xmlns:xlink="http://www.w3.org/1999/xlink">
 <defs>
  <style type="text/css">
   <![CDATA[
    .fil1 {fill:#E4CFA9}
    .fil3 {fill:#E7D5B4}
    .fil2 {fill:#EDDFC4}
    .fil0 {fill:#F7F1E5}
   ]]>
  </style>
 </defs>
 <g id="Layer_x0020_1">
  <metadata id="CorelCorpID_0Corel-Layer"/>
  <g id="_2456923807536">
   <path class="fil0" d="M113421 85232c8676,3004 18589,3112 28180,579l0 8733 0 6538c-8355,3904 -18426,7364 -27602,8452 -18980,2251 -29421,-7047 -30786,-25747 -208,-2853 -200,-5752 -71,-8602 21,-446 39,-885 56,-1317 2687,416 5530,455 8467,182 1620,-150 3270,-396 4938,-725 2385,3103 5268,5763 8598,7921 2496,1618 5243,2955 8220,3986z"/>
   <g>
    <path class="fil1" d="M141601 15652c-3419,817 -7649,2848 -13371,6509 -2009,1285 -4200,2770 -6605,4474 -12191,8635 -27091,10987 -38883,6130 -960,-395 -1888,-833 -2784,-1311 -11828,-6318 -14370,-19616 -17560,-31454l-54745 0c-11115,12048 -10347,27794 3776,33043 17209,1518 22875,-6109 35814,-9479 8294,-2160 14147,1260 18057,14840 4475,15539 12996,25748 24854,28625 22414,5439 36633,-10407 51447,-21147l0 -30230z"/>
    <path class="fil2" d="M141601 15652l0 -15652 -79203 0c4013,14894 3440,26523 20097,33381 11793,4858 26939,1889 39130,-6746 5603,-3970 13461,-9427 19976,-10983z"/>
    <path class="fil2" d="M141601 36270c-3757,2255 -8345,5917 -14328,11441 -3700,3415 -7799,6165 -12083,8186 -8426,3975 -17563,5128 -25761,2969 -2594,-683 -5020,-1672 -7258,-2947 -7166,-4082 -12407,-11095 -15076,-20364 -2891,-10038 -6833,-15921 -12051,-17988 -1670,-661 -3438,-908 -5278,-836 -12949,512 -17943,15670 -38337,16312 15077,5605 35867,-4286 45888,1735 6933,4166 5573,12317 5919,20954 198,4965 1399,9354 3390,13029 14297,26387 56577,3465 74975,-12452l0 -20039z"/>
   </g>
   <path class="fil3" d="M101702 78656c14925,-4292 30517,-14230 39899,-22347l0 29502c-13489,3563 -28943,2071 -39899,-7155z"/>
  </g>
 </g>
</svg>
