<?xml version="1.0" encoding="UTF-8"?>
<!DOCTYPE svg PUBLIC "-//W3C//DTD SVG 1.1//EN" "http://www.w3.org/Graphics/SVG/1.1/DTD/svg11.dtd">
<!-- Creator: CorelDRAW X7 -->
<svg xmlns="http://www.w3.org/2000/svg" xml:space="preserve" width="16.3126in" height="20.3607in" version="1.1" style="shape-rendering:geometricPrecision; text-rendering:geometricPrecision; image-rendering:optimizeQuality; fill-rule:evenodd; clip-rule:evenodd"
viewBox="0 0 163126 203607"
 xmlns:xlink="http://www.w3.org/1999/xlink">
 <defs>
  <style type="text/css">
   <![CDATA[
    .fil0 {fill:#F7F2E6}
   ]]>
  </style>
 </defs>
 <g id="Layer_x0020_1">
  <metadata id="CorelCorpID_0Corel-Layer"/>
  <path class="fil0" d="M32577 100206l101875 -13 1220 -81c13927,-962 24835,-13088 24835,-27604 1,-15271 -11941,-27694 -26618,-27694l-1302 0 -293 -1289c-51,-11842 -9344,-21473 -20714,-21473 -3014,0 -5950,689 -8732,2036l-1201 583 -559 -1215c-5844,-12658 -18308,-20839 -31757,-20839 -18153,0 -33231,14152 -35067,32919l-113 1177 -1180 9c-16734,89 -30350,14328 -30350,31732 0,16775 12614,30680 28724,31658l1232 94zm19762 16430c1825,0 3309,1480 3309,3307 0,1822 -1484,3305 -3309,3305 -1824,0 -3309,-1483 -3309,-3305 0,-1827 1485,-3307 3309,-3307zm85160 16354l-32003 0 0 10790c2831,692 4935,3247 4935,6290 1,3565 -2902,6469 -6476,6469 -3568,0 -6472,-2904 -6472,-6469 0,-3206 2336,-5870 5391,-6385l0 -23346 -20001 0 0 19732 0 31456 25047 0c628,-3726 3877,-6571 7772,-6571 4350,0 7887,3535 7887,7885 0,4340 -3537,7881 -7887,7881 -3898,0 -7149,-2854 -7773,-6578l-25046 0 0 16050c3107,613 5460,3360 5460,6647 0,3732 -3039,6766 -6771,6766 -3730,0 -6764,-3034 -6764,-6766 1,-3288 2351,-6036 5458,-6648l0 -17352 0 -31458 -28700 0 0 15300c3725,625 6574,3867 6574,7765 1,4349 -3540,7887 -7884,7887 -4345,0 -7883,-3538 -7883,-7887 0,-3899 2849,-7141 6574,-7766l0 -15299 -23327 0c-602,2740 -3047,4796 -5965,4796 -3364,0 -6107,-2738 -6107,-6108 1,-3364 2743,-6107 6107,-6107 2918,0 5364,2059 5965,4798l24636 0 30010 0 0 -18423 -22002 0c-204,3084 -2779,5528 -5915,5528 -3270,0 -5926,-2656 -5926,-5924 0,-3272 2656,-5929 5926,-5929 2483,0 4615,1534 5496,3706l22421 0 0 -14896 -50298 0 0 -199c-16895,-1670 -29958,-16445 -29958,-34171 0,-18434 14153,-33591 31788,-34327 2462,-19539 18407,-34127 37543,-34127 14044,0 27083,8275 33570,21189 2781,-1164 5698,-1752 8679,-1752 12386,0 22582,10099 23295,22773 15668,537 28251,13925 28251,30298 1,15459 -11349,28449 -26055,30103l1 113 -1311 100 -52888 0 0 14896 22623 0 0 12650 32002 0c625,-3728 3873,-6574 7774,-6574 4347,0 7883,3534 7883,7883 0,4344 -3536,7884 -7883,7884 -3900,0 -7147,-2850 -7773,-6573zm-117854 3595c-1924,0 -3489,1562 -3489,3486 0,1928 1565,3491 3489,3491 1924,0 3492,-1563 3492,-3491 0,-1924 -1568,-3486 -3492,-3486zm30601 22603c-2901,0 -5259,2361 -5259,5260 0,2906 2358,5265 5259,5265 2904,0 5265,-2359 5265,-5265 0,-2899 -2361,-5260 -5265,-5260zm53709 -12972c-2120,0 -3850,1724 -3850,3854 0,2123 1729,3850 3850,3850 2125,0 3855,-1727 3855,-3850 0,-2130 -1730,-3854 -3855,-3854zm41317 -19800c-2903,0 -5266,2362 -5266,5263 0,2903 2363,5265 5266,5265 2905,0 5267,-2362 5267,-5265 0,-2901 -2362,-5263 -5267,-5263zm-29580 41159c-2900,0 -5261,2365 -5261,5266 1,2895 2361,5260 5261,5260 2908,0 5268,-2365 5268,-5260 0,-2901 -2361,-5266 -5268,-5266zm-34130 25110c-2288,0 -4148,1865 -4148,4156 0,2288 1860,4148 4148,4148 2289,0 4151,-1860 4151,-4148 0,-2291 -1863,-4156 -4151,-4156zm45315 -154541c-518,0 -1007,-307 -1214,-818 -2506,-6143 -8212,-10111 -14530,-10111 -724,0 -1309,-587 -1309,-1314 1,-718 585,-1305 1309,-1305 7391,0 14044,4610 16953,11737 273,673 -45,1435 -718,1709 -157,70 -326,102 -491,102zm28519 29419c-591,0 -1121,-397 -1271,-987 -2008,-7881 -7905,-14054 -15379,-16118 -702,-192 -1110,-914 -918,-1610 192,-697 920,-1110 1612,-916 8383,2310 14982,9207 17222,17996 178,698 -247,1416 -947,1589 -105,32 -216,46 -319,46zm-61181 -46806c-398,0 -795,-183 -1056,-533 -5713,-7778 -14398,-12238 -23832,-12238 -720,0 -1309,-587 -1309,-1312 0,-722 588,-1305 1309,-1305 10275,0 19732,4846 25946,13305 427,580 303,1404 -279,1830 -233,172 -504,253 -779,253z"/>
 </g>
</svg>
