<?xml version="1.0" encoding="UTF-8"?>
<!DOCTYPE svg PUBLIC "-//W3C//DTD SVG 1.1//EN" "http://www.w3.org/Graphics/SVG/1.1/DTD/svg11.dtd">
<!-- Creator: CorelDRAW X7 -->
<svg xmlns="http://www.w3.org/2000/svg" xml:space="preserve" width="2.86212in" height="4.59524in" version="1.1" style="shape-rendering:geometricPrecision; text-rendering:geometricPrecision; image-rendering:optimizeQuality; fill-rule:evenodd; clip-rule:evenodd"
viewBox="0 0 28621 45952"
 xmlns:xlink="http://www.w3.org/1999/xlink">
 <defs>
  <style type="text/css">
   <![CDATA[
    .fil2 {fill:#FEFEFE}
    .fil3 {fill:#E6D2AE}
    .fil0 {fill:black;fill-rule:nonzero}
    .fil1 {fill:#E6D2AE;fill-rule:nonzero}
   ]]>
  </style>
 </defs>
 <g id="Layer_x0020_1">
  <metadata id="CorelCorpID_0Corel-Layer"/>
  <g id="_2188885804832">
   <path class="fil0" d="M2461 37215c35,46 81,84 140,114 58,32 133,47 224,47 57,0 115,-2 173,-7 58,-4 118,-17 180,-38l0 -899 -324 0c-161,0 -282,43 -363,127 -149,158 -164,481 -30,656zm1724 1371c-104,0 -205,-8 -303,-23 -97,-14 -187,-41 -270,-80 -82,-39 -155,-93 -216,-161 -63,-68 -112,-156 -146,-263 -73,16 -149,30 -228,42 -78,12 -157,18 -235,18 -710,0 -1242,-441 -1242,-1185 0,-823 592,-1303 1372,-1303l1105 0 0 1948c0,99 13,168 40,203 27,36 87,55 183,55l156 0c33,0 66,3 96,10 31,8 59,23 83,46 25,24 43,59 56,106 12,48 18,113 18,196 0,148 -20,251 -61,306 -42,57 -105,85 -192,85l-216 0zm216 0c-34,0 -66,-3 -97,-10 -31,-6 -58,-22 -83,-45 -24,-25 -42,-61 -55,-109 -14,-48 -19,-113 -19,-195 0,-149 21,-251 62,-307 41,-56 105,-83 192,-83l963 0c33,0 66,3 96,10 31,8 59,23 83,46 24,24 43,59 56,106 12,48 18,113 18,196 0,148 -20,251 -61,306 -42,57 -106,85 -192,85l-963 0zm963 0c-34,0 -67,-3 -97,-10 -31,-6 -58,-23 -83,-49 -24,-27 -43,-64 -56,-111 -13,-48 -18,-113 -18,-196 0,-148 21,-250 62,-306 41,-56 105,-84 192,-84l1029 0 0 -1833 851 0 0 2589 -1880 0zm72 1093c0,-125 46,-233 137,-324 91,-91 199,-137 324,-137 125,0 233,46 324,137 91,91 137,199 137,324 0,124 -46,233 -137,324 -91,91 -199,137 -324,137 -125,0 -233,-46 -324,-137 -91,-91 -137,-200 -137,-324zm1059 0c0,-125 45,-233 136,-324 91,-91 201,-137 328,-137 124,0 233,46 324,137 91,91 136,199 136,324 0,124 -45,233 -136,324 -91,91 -200,137 -324,137 -125,0 -235,-46 -327,-137 -92,-91 -137,-200 -137,-324zm3055 -1484c0,148 -21,251 -62,306 -41,57 -105,85 -192,85l-273 0c-148,0 -284,-16 -407,-49 -122,-34 -228,-88 -317,-163 -89,-74 -159,-175 -208,-301 -50,-126 -75,-282 -75,-468l0 -3663 846 0 0 3544c0,153 27,250 80,290 54,40 131,61 231,61l123 0c34,0 66,3 97,10 31,8 58,23 83,46 24,24 43,59 56,106 13,48 18,113 18,196zm-260 391c-34,0 -66,-3 -97,-10 -31,-6 -58,-22 -83,-45 -24,-25 -42,-61 -55,-109 -14,-48 -19,-113 -19,-195 0,-149 21,-251 62,-307 41,-56 105,-83 192,-83l963 0c33,0 66,3 96,10 31,8 59,23 83,46 24,24 43,59 56,106 12,48 18,113 18,196 0,148 -20,251 -61,306 -42,57 -106,85 -192,85l-963 0zm963 0c-34,0 -67,-3 -97,-10 -31,-6 -58,-23 -83,-49 -24,-27 -43,-64 -56,-111 -13,-48 -18,-113 -18,-196 0,-148 21,-250 62,-306 41,-56 105,-84 192,-84l1029 0 0 -1833 851 0 0 2589 -1880 0zm645 2036c0,-125 45,-233 136,-324 91,-91 199,-137 325,-137 124,0 233,46 325,137 92,91 138,199 138,324 0,125 -46,233 -137,324 -91,91 -200,137 -326,137 -126,0 -234,-46 -325,-137 -91,-91 -136,-199 -136,-324zm-534 -943c0,-125 46,-233 137,-324 90,-91 198,-137 323,-137 126,0 234,46 326,137 93,91 138,199 138,324 0,124 -45,233 -137,324 -91,91 -199,137 -327,137 -125,0 -233,-46 -323,-137 -91,-91 -137,-200 -137,-324zm1061 0c0,-125 45,-233 136,-324 91,-91 200,-137 325,-137 124,0 233,46 324,137 91,91 136,199 136,324 0,124 -45,233 -136,324 -91,91 -200,137 -324,137 -125,0 -234,-46 -325,-137 -91,-91 -136,-200 -136,-324zm2910 -2784c0,54 6,109 18,166 13,57 37,109 72,154 34,46 81,84 140,114 58,32 133,47 224,47 57,0 115,-2 173,-7 58,-4 118,-17 179,-38l0 -899 -324 0c-160,0 -282,43 -362,127 -80,85 -120,197 -120,336zm1814 1691c-104,0 -205,-8 -303,-23 -97,-14 -187,-41 -270,-80 -82,-39 -155,-93 -217,-161 -62,-68 -111,-156 -145,-263 -74,16 -149,30 -229,42 -78,12 -156,18 -234,18 -717,0 -1242,-440 -1242,-1185 0,-588 317,-1073 894,-1235 162,-45 321,-68 478,-68l1105 0 0 1948c0,99 13,168 40,203 26,36 87,55 182,55l157 0c33,0 66,3 96,10 30,8 59,23 83,46 24,24 43,59 56,106 12,48 18,113 18,196 0,148 -20,251 -62,306 -41,57 -105,85 -191,85l-216 0zm2544 -749c-12,-175 -41,-334 -84,-479 -43,-145 -108,-270 -195,-374 -87,-103 -201,-184 -342,-243 -379,-154 -919,-71 -1304,37l0 -755c541,-188 1240,-256 1767,-10 228,106 413,249 557,431 143,183 248,395 314,636 67,242 104,493 113,757l423 0c33,0 66,3 96,10 32,8 59,23 83,46 25,24 43,59 56,106 12,48 18,113 18,196 0,148 -20,251 -61,306 -42,57 -106,85 -192,85l-3577 0c-34,0 -67,-3 -97,-10 -31,-6 -58,-22 -83,-45 -24,-25 -43,-61 -56,-109 -13,-48 -18,-113 -18,-195 0,-149 20,-251 62,-307 41,-56 105,-83 192,-83l2328 0zm-1536 -2965c0,-125 46,-233 137,-325 91,-92 200,-139 327,-139 125,0 233,46 325,137 91,91 136,200 136,327 0,125 -45,233 -136,324 -92,91 -200,137 -325,137 -124,0 -233,-46 -325,-137 -92,-91 -139,-199 -139,-324zm3013 2965c96,0 175,-3 237,-7 63,-4 114,-17 153,-38 39,-22 67,-53 83,-94 18,-41 26,-99 26,-174l0 -1241 842 0 0 1106c0,139 38,248 112,328 151,158 489,142 676,62 89,-38 133,-122 133,-255l0 -1241 842 0 0 1106c0,152 33,264 100,338 129,142 468,136 627,49 74,-40 112,-130 112,-270l0 -1509 838 0 0 1392c0,160 33,275 97,343 65,70 204,105 418,105 34,0 66,3 97,10 30,8 57,23 81,46 23,24 41,59 55,106 14,48 21,113 21,196 0,148 -21,251 -62,306 -41,57 -105,85 -192,85 -125,0 -248,-23 -371,-68 -121,-46 -221,-138 -299,-278 -62,82 -126,146 -193,192 -66,45 -134,80 -205,105 -69,24 -139,38 -208,42 -68,5 -136,7 -202,7 -78,0 -160,-7 -247,-20 -87,-12 -172,-31 -257,-58 -85,-26 -160,-61 -228,-104 -66,-45 -120,-96 -160,-155 -134,148 -268,241 -405,279 -136,38 -286,58 -446,58 -426,0 -732,-113 -919,-337 -116,152 -268,247 -454,283 -185,35 -424,54 -715,54l-215 0c-34,0 -66,-3 -97,-10 -31,-6 -58,-22 -83,-45 -24,-25 -43,-61 -56,-109 -13,-48 -18,-113 -18,-195 0,-149 21,-251 62,-307 41,-56 105,-83 192,-83l228 0zm5981 -2965c0,-125 46,-233 137,-325 91,-92 201,-139 327,-139 125,0 234,46 325,137 91,91 136,200 136,327 0,125 -45,233 -136,324 -91,91 -200,137 -325,137 -124,0 -233,-46 -325,-137 -92,-91 -139,-199 -139,-324zm61 2965l0 -1840 852 0 0 2589 -1601 0c-34,0 -66,-3 -97,-10 -31,-6 -58,-22 -83,-45 -24,-25 -42,-61 -55,-109 -13,-48 -19,-113 -19,-195 0,-149 21,-251 62,-307 41,-56 105,-83 192,-83l749 0z"/>
   <polygon class="fil1" points="25070,45952 3551,45952 3551,45410 25070,45410 "/>
   <path class="fil2" d="M14311 0c7903,0 14310,6404 14310,14304 0,7899 -6407,14303 -14310,14303 -7904,0 -14311,-6404 -14311,-14303 0,-7900 6407,-14304 14311,-14304z"/>
   <path class="fil3" d="M9214 14313c0,-2812 2280,-5092 5092,-5092 2811,0 5092,2280 5092,5092 0,1360 -531,2637 -1493,3599 -962,962 -2238,1492 -3599,1492 -1361,0 -2638,-530 -3600,-1492 -961,-962 -1492,-2239 -1492,-3599zm5097 -2910c987,1 1612,621 1836,1547 1101,-206 2052,418 2052,1563 0,903 -734,1633 -1636,1633l-4505 0c-902,0 -1636,-730 -1636,-1633 0,-1145 951,-1769 2052,-1563 224,-926 849,-1546 1837,-1547zm271 -5547l0 2283c-92,-4 -184,-6 -276,-6 -90,0 -178,2 -267,6l0 -2283c-468,-118 -805,-534 -805,-1044 0,-598 479,-1076 1077,-1076 598,0 1076,478 1076,1076 0,510 -337,926 -805,1044zm0 2827l0 3c2982,144 5358,2608 5358,5627 0,914 -217,1794 -626,2584l1 1c-83,160 -174,316 -272,468l-2 -1c-215,332 -466,644 -753,930 -1063,1064 -2478,1652 -3982,1652 -1505,0 -2919,-588 -3983,-1652 -288,-288 -542,-603 -758,-938l-2 1c-98,-152 -189,-309 -271,-469l1 -1c-406,-787 -621,-1665 -621,-2575 0,-3022 2380,-5489 5367,-5628l0 -2c88,-4 177,-6 267,-6 92,0 184,2 276,6zm5204 8487l1986 1146c336,-349 866,-434 1308,-178 519,299 694,952 394,1470 -299,519 -952,693 -1470,394 -441,-254 -633,-752 -502,-1215l-1988 -1149c98,-152 189,-308 272,-468zm-10694 460l-1977 1141c139,468 -52,974 -498,1231 -518,299 -1171,124 -1470,-394 -299,-518 -125,-1171 394,-1470 438,-253 961,-173 1297,167l1982 -1144c84,160 174,316 272,469zm-3463 1700c-147,-255 -60,-565 190,-710 262,-151 562,-67 710,190 148,257 72,559 -190,710 -251,144 -563,64 -710,-190zm17363 0c-147,254 -459,334 -709,190 -263,-151 -339,-453 -190,-710 148,-257 447,-341 709,-190 250,145 337,455 190,710zm-8681 -15037c294,0 519,231 519,519 0,303 -222,520 -519,520 -297,0 -520,-217 -520,-520 0,-288 226,-519 520,-519z"/>
  </g>
 </g>
</svg>
