<?xml version="1.0" encoding="UTF-8"?>
<!DOCTYPE svg PUBLIC "-//W3C//DTD SVG 1.1//EN" "http://www.w3.org/Graphics/SVG/1.1/DTD/svg11.dtd">
<!-- Creator: CorelDRAW X7 -->
<svg xmlns="http://www.w3.org/2000/svg" xml:space="preserve" width="9.31154in" height="5.8022in" version="1.1" style="shape-rendering:geometricPrecision; text-rendering:geometricPrecision; image-rendering:optimizeQuality; fill-rule:evenodd; clip-rule:evenodd"
viewBox="0 0 93115 58022"
 xmlns:xlink="http://www.w3.org/1999/xlink">
 <defs>
  <style type="text/css">
   <![CDATA[
    .fil3 {fill:#E2CBA1}
    .fil2 {fill:#EBDCBF}
    .fil1 {fill:#F2E8D3}
    .fil0 {fill:#F9F4EB}
    .fil5 {fill:#EBDCBF;fill-rule:nonzero}
    .fil4 {fill:#EEE3CE;fill-rule:nonzero}
    .fil6 {fill:#F2E8D3;fill-rule:nonzero}
   ]]>
  </style>
 </defs>
 <g id="Layer_x0020_1">
  <metadata id="CorelCorpID_0Corel-Layer"/>
  <g id="_3027626823536">
   <g>
    <path class="fil0" d="M31476 0l-31476 0 0 46918c3169,-540 5562,-22 7707,1024 2954,1440 5527,3353 8106,5128 10606,7295 22319,7461 27800,-5844 1586,-3851 3053,-10015 6645,-12795 4141,-3206 9473,-196 13189,2303 1904,1281 5087,3400 7012,4214 2,-3634 -35103,-38663 -38983,-40948z"/>
    <path class="fil1" d="M0 28723c13878,-6171 14308,13386 27611,15575 15474,2545 16276,-22985 35934,-7487 3112,2453 6466,5149 10241,6614 11492,4459 21484,-4816 18926,-14125 -1731,-6296 -8067,-9782 -14321,-9704l-1 0c-604,22 -1220,77 -1845,169 -2717,402 -5057,266 -7012,-184 -11779,-2705 -7388,-12338 -1998,-19581l-52395 0c-2070,5671 -8484,6160 -15140,6986l0 21737z"/>
    <path class="fil2" d="M12585 0c-2733,2963 -7534,3530 -12585,4144l0 12457c10522,-89 12696,-4095 19301,7564 2716,4794 6247,8450 10260,9364 10992,2505 18303,-9182 25377,-8906 3264,128 6054,2681 8430,5438 3142,3645 6854,7430 11074,9475 6465,3132 16562,807 18369,-6537l-39370 -20061 -21965 -12938 -18891 0z"/>
    <path class="fil3" d="M76545 19765c-2717,402 -5057,266 -7012,-184 -11779,-2705 -7388,-12338 -1998,-19581l-67535 0 0 11481c9971,850 15374,-6029 20401,6249 3015,7363 13701,12990 23273,8403 1977,-948 3584,-2277 5430,-3367 4438,-2621 8305,-2405 12024,888 1615,1431 2856,3076 4101,4717 12135,15984 34793,10902 25675,-2892 -2208,-3342 -6900,-6103 -12569,-5881l-2 0c-195,8 -391,19 -588,34l-2 0c-98,7 -197,16 -296,25l-1 0c-198,18 -398,40 -598,66l-2 1c-100,13 -200,27 -301,41z"/>
   </g>
   <path class="fil4" d="M78948 13891c-1003,-33 -1807,-857 -1813,-1877l-16 0c-7,1020 -811,1844 -1815,1877 1007,34 1815,865 1815,1891l14 0c0,-1026 808,-1857 1815,-1891z"/>
   <path class="fil5" d="M8063 40340c-1309,40 -2358,1116 -2367,2443l-22 0c-9,-1327 -1054,-2403 -2363,-2443 1314,-45 2367,-1125 2367,-2466l18 0c0,1341 1053,2421 2367,2466z"/>
   <path class="fil1" d="M67936 15517c-624,-5205 8288,-10953 16479,-15517l-16880 0c-5390,7243 -9781,16876 1998,19581 1955,450 4295,586 7012,184 625,-92 1241,-147 1845,-169 -7194,89 -10161,-1635 -10454,-4079z"/>
   <path class="fil6" d="M68691 49621c-714,22 -1286,609 -1291,1332l-12 0c-5,-723 -574,-1310 -1288,-1332 716,-24 1291,-613 1291,-1344l9 0c0,731 575,1320 1291,1344z"/>
  </g>
 </g>
</svg>
