<?xml version="1.0" encoding="UTF-8"?>
<!DOCTYPE svg PUBLIC "-//W3C//DTD SVG 1.1//EN" "http://www.w3.org/Graphics/SVG/1.1/DTD/svg11.dtd">
<!-- Creator: CorelDRAW X7 -->
<svg xmlns="http://www.w3.org/2000/svg" xml:space="preserve" width="13.4681in" height="13.4291in" version="1.1" style="shape-rendering:geometricPrecision; text-rendering:geometricPrecision; image-rendering:optimizeQuality; fill-rule:evenodd; clip-rule:evenodd"
viewBox="0 0 134681 134291"
 xmlns:xlink="http://www.w3.org/1999/xlink">
 <defs>
  <style type="text/css">
   <![CDATA[
    .fil0 {fill:#F7F2E6;fill-rule:nonzero}
   ]]>
  </style>
 </defs>
 <g id="Layer_x0020_1">
  <metadata id="CorelCorpID_0Corel-Layer"/>
  <path class="fil0" d="M62930 45695c0,271 -219,490 -490,490l-53130 0c-270,0 -489,-219 -489,-490l0 -36925c0,-270 219,-489 489,-489l53130 0c271,0 490,219 490,489l0 36925zm-36020 -7198l17930 0 0 -11375 -17930 0 0 11375zm8965 -8902c-721,0 -1305,583 -1305,1305l0 3819c0,722 584,1306 1305,1306 722,0 1306,-584 1306,-1306l0 -3819c0,-722 -584,-1305 -1306,-1305zm-5969 -5334l11936 0 0 -3175c0,-3289 -2676,-5118 -5967,-5118 -3292,0 -5969,1829 -5969,5118l0 3175zm-2611 250l0 -3425c0,-4730 3849,-7729 8580,-7729 4730,0 8578,2999 8578,7729l0 3425 1693 0c722,0 1306,584 1306,1305l0 13987c0,721 -584,1305 -1306,1305l-20541 0c-722,0 -1306,-584 -1306,-1305l0 -13987c0,-721 584,-1305 1306,-1305l1690 0zm62545 84270l17930 0 0 -11376 -17930 0 0 11376zm8965 -8903c-721,0 -1305,584 -1305,1306l0 3819c0,721 584,1305 1305,1305 722,0 1306,-584 1306,-1305l0 -3819c0,-722 -584,-1306 -1306,-1306zm-5969 -5334l11936 0 0 -3174c0,-3289 -2676,-5118 -5967,-5118 -3292,0 -5969,1829 -5969,5118l0 3174zm-2611 250l0 -3424c0,-4730 3849,-7729 8580,-7729 4730,0 8578,2999 8578,7729l0 3424 1693 0c722,0 1306,584 1306,1306l0 13986c0,722 -584,1306 -1306,1306l-20541 0c-722,0 -1306,-584 -1306,-1306l0 -13986c0,-722 584,-1306 1306,-1306l1690 0zm-66454 -24850l-2609 0 0 19350 2609 0 0 -19350zm14024 35692l19351 0 0 -2609 -19351 0 0 2609zm-15328 5655c-3838,0 -6959,-3122 -6959,-6959 0,-3835 3121,-6956 6959,-6956 3835,0 6957,3121 6957,6956 0,3837 -3122,6959 -6957,6959zm0 -16524c-5276,0 -9568,4291 -9568,9565 0,5277 4292,9567 9568,9567 5274,0 9566,-4290 9566,-9567 0,-5274 -4292,-9565 -9566,-9565zm86835 -27928l2609 0 0 -19350 -2609 0 0 19350zm-14024 -35693l-19352 0 0 2609 19352 0 0 -2609zm15328 8261c-3837,0 -6958,-3121 -6958,-6956 0,-3837 3121,-6959 6958,-6959 3836,0 6958,3122 6958,6959 0,3835 -3122,6956 -6958,6956zm9567 -6956c0,-5277 -4292,-9568 -9567,-9568 -5275,0 -9567,4291 -9567,9568 0,5274 4292,9565 9567,9565 5275,0 9567,-4291 9567,-9565zm5687 83528c0,270 -219,489 -489,489l-53131 0c-270,0 -489,-219 -489,-489l0 -36926c0,-270 219,-489 489,-489l53131 0c270,0 489,219 489,489l0 36926zm-489 -40024l-53131 0c-1708,0 -3098,1389 -3098,3098l0 36926c0,1710 1390,3098 3098,3098l53131 0c1708,0 3098,-1388 3098,-3098l0 -36926c0,-1709 -1390,-3098 -3098,-3098zm6701 43025c0,1743 -1417,3160 -3157,3160l-60218 0c-1742,0 -3158,-1417 -3158,-3160l0 -42930c0,-1741 1416,-3158 3158,-3158l60218 0c1740,0 3157,1417 3157,3158l0 42930zm-25255 12702l-16113 0 0 -6933 16113 0 0 6933zm22098 -61399l-60218 0c-3180,0 -5767,2587 -5767,5767l0 42930c0,3180 2587,5769 5767,5769l19398 0 0 6933 -5389 0 0 2609 32342 0 0 -2609 -5621 0 0 -6933 19488 0c3180,0 5766,-2589 5766,-5769l0 -42930c0,-3180 -2586,-5767 -5766,-5767zm-126306 -21586l0 -42931c0,-1740 1417,-3157 3158,-3157l60216 0c1742,0 3159,1417 3159,3157l0 42931c0,1743 -1417,3159 -3159,3159l-60216 0c-1741,0 -3158,-1416 -3158,-3159zm41278 12701l-16113 0 0 -6933 16113 0 0 6933zm-18722 0l-5389 0 0 2610 32342 0 0 -2610 -5621 0 0 -6933 19486 0c3181,0 5768,-2588 5768,-5768l0 -42931c0,-3180 -2587,-5766 -5768,-5766l-60216 0c-3180,0 -5767,2586 -5767,5766l0 42931c0,3180 2587,5768 5767,5768l19398 0 0 6933zm37275 -55726l-53130 0c-1708,0 -3098,1388 -3098,3098l0 36925c0,1710 1390,3099 3098,3099l53130 0c1709,0 3099,-1389 3099,-3099l0 -36925c0,-1710 -1390,-3098 -3099,-3098z"/>
 </g>
</svg>
