<?xml version="1.0" encoding="UTF-8"?>
<!DOCTYPE svg PUBLIC "-//W3C//DTD SVG 1.1//EN" "http://www.w3.org/Graphics/SVG/1.1/DTD/svg11.dtd">
<!-- Creator: CorelDRAW X7 -->
<svg xmlns="http://www.w3.org/2000/svg" xml:space="preserve" width="100%" height="100%" version="1.1" style="shape-rendering:geometricPrecision; text-rendering:geometricPrecision; image-rendering:optimizeQuality; fill-rule:evenodd; clip-rule:evenodd"
viewBox="0 0 21675 4233"
 xmlns:xlink="http://www.w3.org/1999/xlink">
 <defs>
  <style type="text/css">
   <![CDATA[
    .fil1 {fill:#FEFEFE;fill-rule:nonzero}
    .fil0 {fill:#DABA76;fill-rule:nonzero}
   ]]>
  </style>
 </defs>
 <g id="Layer_x0020_1">
  <metadata id="CorelCorpID_0Corel-Layer"/>
  <g id="_2330787077568">
   <polygon class="fil0" points="21666,4233 8,4233 8,0 21666,0 "/>
   <path class="fil1" d="M8235 2341c19,0 38,-4 56,-12 18,-7 27,-24 27,-49 0,-17 -10,-39 -32,-68 -21,-28 -49,-59 -84,-91 -35,-32 -74,-64 -119,-95 -44,-32 -88,-59 -133,-83 6,-31 14,-57 23,-77 9,-20 18,-36 27,-48 10,-12 19,-22 28,-28 9,-6 16,-11 22,-13l492 -217 0 188 -333 139 0 4c57,37 103,73 140,109 37,36 66,71 88,104 22,34 38,66 46,97 9,30 13,59 13,85 0,23 -3,47 -9,72 -7,25 -19,49 -37,71 -18,22 -43,40 -75,54 -32,13 -75,21 -128,21l-598 0c-55,0 -102,-4 -140,-12 -38,-8 -68,-22 -90,-39 -23,-18 -39,-41 -48,-70 -9,-28 -14,-62 -14,-103l0 -233 183 0 0 208c0,19 3,34 7,45 5,11 14,19 26,26 12,6 29,10 49,12 21,2 47,3 79,3l534 0zm636 -845l0 1008 -182 0 0 -1008 182 0zm554 1008c-13,0 -30,-3 -51,-9 -22,-6 -41,-18 -57,-37 -1,64 -8,117 -22,160 -14,43 -35,78 -64,104 -28,27 -64,46 -107,57 -43,11 -95,17 -155,18l0 -172c38,-1 69,-6 92,-14 22,-8 39,-19 51,-35 11,-16 18,-37 21,-62 4,-25 5,-55 5,-90l0 -420 182 0 0 240c0,37 11,62 33,76 23,14 47,21 72,21 7,0 14,1 21,2 6,2 12,5 18,10 5,5 9,13 12,23 3,11 4,25 4,43 0,32 -5,54 -14,66 -9,12 -22,19 -41,19zm85 -163c32,0 55,-5 67,-15 13,-10 19,-32 19,-66l0 -318 184 0 0 302c0,35 6,60 19,74 13,16 43,23 88,23 7,0 14,1 21,2 7,2 13,5 18,10 5,5 9,13 12,23 3,11 4,25 4,43 0,32 -4,54 -13,66 -9,12 -23,19 -42,19 -27,0 -53,-5 -79,-14 -25,-9 -46,-28 -64,-58 -11,16 -25,29 -41,38 -15,10 -32,17 -50,22 -18,5 -37,8 -56,9 -19,2 -38,3 -57,3l-116 0c-7,0 -14,-1 -21,-3 -7,-1 -13,-4 -18,-9 -5,-6 -9,-14 -12,-24 -3,-10 -4,-24 -4,-42 0,-33 4,-55 13,-67 9,-12 23,-18 42,-18l86 0zm-49 -643c0,-27 9,-51 29,-71 20,-19 44,-30 71,-30 27,0 51,10 70,30 20,20 30,44 30,71 0,27 -10,51 -30,70 -19,20 -43,30 -70,30 -27,0 -50,-10 -70,-30 -20,-19 -30,-43 -30,-70zm230 0c0,-27 10,-51 29,-71 20,-19 43,-30 71,-30 27,0 50,10 70,30 20,20 30,44 30,71 0,27 -10,51 -30,70 -19,20 -43,30 -70,30 -28,0 -51,-10 -71,-30 -19,-19 -29,-43 -29,-70zm253 643c21,0 38,0 52,-1 13,-1 24,-4 33,-9 8,-4 14,-11 18,-20 4,-9 6,-21 6,-38l0 -269 181 0 0 240c0,30 8,54 24,71 17,17 42,26 77,26 27,0 51,-4 70,-12 20,-9 29,-27 29,-56l0 -269 183 0 0 240c0,65 28,97 84,97l87 0 0 -399 184 0 0 562 -216 0c-50,0 -88,-6 -113,-18 -26,-12 -47,-30 -65,-56 -14,19 -29,32 -45,42 -16,9 -33,17 -50,22 -17,4 -34,7 -50,8 -16,1 -32,2 -47,2 -48,0 -88,-8 -121,-24 -32,-15 -55,-32 -69,-50 -25,34 -58,54 -99,62 -41,8 -92,12 -156,12l-55 0c-7,0 -14,-1 -20,-3 -7,-1 -13,-4 -19,-9 -5,-6 -9,-14 -12,-24 -2,-10 -4,-24 -4,-42 0,-33 5,-55 14,-67 9,-12 23,-18 41,-18l58 0zm360 -643c0,-27 10,-51 30,-71 19,-19 43,-30 71,-30 27,0 50,10 70,30 20,20 30,44 30,71 0,27 -10,51 -30,70 -20,20 -43,30 -70,30 -27,0 -51,-10 -71,-30 -20,-19 -30,-43 -30,-70zm230 0c0,-27 10,-51 30,-71 20,-19 43,-30 70,-30 27,0 51,10 71,30 20,20 30,44 30,71 0,27 -10,51 -30,70 -20,20 -43,30 -71,30 -27,0 -50,-10 -70,-30 -20,-19 -30,-43 -30,-70zm-112 -205c0,-27 10,-50 30,-70 20,-20 44,-30 71,-30 27,0 51,10 70,29 20,20 30,44 30,71 0,27 -10,51 -30,71 -19,20 -43,29 -70,29 -27,0 -50,-9 -70,-29 -20,-20 -31,-44 -31,-71zm900 3l0 1008 -182 0 0 -1008 182 0zm1045 830c0,24 -4,47 -12,69 -8,21 -20,40 -36,56 -16,16 -36,29 -62,38 -25,10 -55,15 -90,15l-342 0 0 -163 277 0c21,0 38,-2 51,-6 12,-4 18,-12 18,-24 0,-5 0,-11 -2,-16 -1,-6 -5,-13 -10,-23 -6,-10 -14,-23 -25,-39 -11,-16 -25,-38 -43,-64l-112 -166c28,-19 55,-37 82,-55 27,-17 56,-35 85,-53l122 199c34,54 58,99 75,135 16,35 24,68 24,97zm474 93c0,32 -5,54 -14,66 -8,12 -22,19 -41,19l-59 0c-33,0 -62,-4 -89,-11 -26,-7 -49,-19 -69,-35 -19,-17 -34,-38 -45,-66 -10,-27 -16,-61 -16,-101l0 -795 184 0 0 769c0,33 5,54 17,63 12,9 28,13 50,13l27 0c7,0 14,1 21,2 7,2 12,5 18,10 5,5 9,13 12,23 3,11 4,25 4,43zm448 -78c-2,-38 -8,-72 -18,-104 -9,-31 -23,-58 -42,-81 -19,-22 -44,-40 -74,-52 -31,-13 -69,-19 -113,-19 -16,0 -39,2 -71,6 -32,4 -65,11 -99,20l0 -163c22,-8 51,-16 89,-24 37,-9 76,-13 114,-13 71,0 131,11 180,34 50,24 90,55 121,94 31,40 54,86 68,138 15,52 23,107 25,164l91 0c8,0 15,1 21,2 7,2 13,5 18,10 6,5 10,13 12,23 3,11 4,25 4,43 0,32 -4,54 -13,66 -9,12 -23,19 -42,19l-776 0c-7,0 -14,-1 -20,-3 -7,-1 -13,-4 -19,-9 -5,-6 -9,-14 -12,-24 -2,-10 -4,-24 -4,-42 0,-33 5,-55 14,-67 9,-12 23,-18 41,-18l505 0zm-283 397c0,-27 10,-51 29,-71 20,-19 44,-29 71,-29 27,0 51,10 71,29 19,20 29,44 29,71 0,27 -10,50 -29,70 -20,20 -44,30 -71,30 -27,0 -50,-10 -70,-30 -20,-20 -30,-43 -30,-70zm554 -234c-7,0 -14,-1 -21,-3 -6,-1 -12,-5 -18,-10 -5,-6 -9,-14 -12,-24 -3,-11 -4,-25 -4,-43 0,-32 5,-54 14,-66 9,-12 23,-18 41,-18l224 0 0 -398 184 0 0 562 -408 0zm16 237c0,-27 10,-51 30,-71 19,-19 43,-29 70,-29 27,0 51,10 70,29 20,20 30,44 30,71 0,27 -10,50 -30,70 -19,20 -43,30 -70,30 -27,0 -51,-10 -70,-30 -20,-20 -30,-43 -30,-70zm230 0c0,-27 10,-51 29,-71 20,-19 44,-29 71,-29 27,0 51,10 71,29 19,20 29,44 29,71 0,27 -10,50 -29,70 -20,20 -44,30 -71,30 -27,0 -50,-10 -70,-30 -20,-20 -30,-43 -30,-70zm512 -1245l0 1008 -182 0 0 -1008 182 0z"/>
  </g>
 </g>
</svg>
