<?xml version="1.0" encoding="UTF-8"?>
<!DOCTYPE svg PUBLIC "-//W3C//DTD SVG 1.1//EN" "http://www.w3.org/Graphics/SVG/1.1/DTD/svg11.dtd">
<!-- Creator: CorelDRAW X7 -->
<svg xmlns="http://www.w3.org/2000/svg" xml:space="preserve" width="100%" height="100%" version="1.1" style="shape-rendering:geometricPrecision; text-rendering:geometricPrecision; image-rendering:optimizeQuality; fill-rule:evenodd; clip-rule:evenodd"
viewBox="0 0 21675 13039"
 xmlns:xlink="http://www.w3.org/1999/xlink">
 <defs>
  <style type="text/css">
   <![CDATA[
    .fil2 {fill:#FEFEFE}
    .fil3 {fill:#8DA0D1}
    .fil1 {fill:#FEFEFE;fill-rule:nonzero}
    .fil0 {fill:#8DA0D1;fill-rule:nonzero}
   ]]>
  </style>
 </defs>
 <g id="Layer_x0020_1">
  <metadata id="CorelCorpID_0Corel-Layer"/>
  <g id="_2330787071968">
   <polygon class="fil0" points="21666,12275 11721,12275 10837,13033 9954,12275 8,12275 8,5 21666,5 "/>
   <path class="fil1" d="M5661 10220c0,55 8,106 26,152 18,46 47,85 89,118 42,33 97,59 165,77 69,18 154,27 255,27 73,0 143,-5 210,-16 68,-10 127,-25 179,-45 51,-20 92,-44 123,-73 30,-29 45,-61 45,-98 0,-33 -10,-60 -32,-82 -21,-22 -62,-48 -121,-77 -42,-22 -81,-44 -117,-66 -36,-22 -67,-47 -93,-75 -26,-28 -47,-58 -63,-93 -16,-34 -23,-75 -23,-122 0,-54 9,-108 29,-163 19,-54 48,-104 86,-148 39,-45 87,-81 145,-108 58,-28 126,-42 206,-42 47,0 88,6 124,16 36,11 56,18 62,20l0 178c-29,-8 -59,-15 -92,-21 -33,-6 -66,-9 -98,-9 -47,0 -89,8 -124,22 -36,15 -66,35 -89,59 -24,24 -41,51 -53,80 -12,30 -18,60 -18,89 0,29 6,53 16,73 10,20 24,39 43,56 18,17 39,33 63,47 25,14 51,29 79,44 48,27 89,52 121,75 32,22 58,44 77,65 19,21 33,43 41,65 9,21 13,45 13,70 0,60 -13,117 -40,172 -27,55 -70,104 -129,146 -60,42 -136,77 -230,102 -94,27 -207,39 -340,39 -133,0 -244,-12 -335,-39 -90,-25 -163,-61 -217,-108 -55,-46 -95,-100 -119,-163 -24,-63 -36,-131 -36,-206l0 -316 172 0 0 278zm1705 -1454l0 1511 -174 0 0 -1511 174 0zm323 958c0,60 19,108 57,144 37,37 97,56 178,56 31,0 65,-4 101,-11 36,-7 68,-16 97,-27l0 -377 -187 0c-67,0 -125,17 -173,51 -49,35 -73,89 -73,164zm221 380c-34,0 -73,-5 -118,-16 -44,-9 -87,-27 -127,-53 -40,-26 -74,-63 -103,-110 -28,-48 -42,-110 -42,-185 0,-77 14,-141 40,-192 27,-51 62,-93 104,-126 42,-32 89,-55 141,-69 51,-15 102,-22 153,-22l337 0 0 607c0,59 9,101 27,126 19,25 60,37 123,37l51 0c56,0 84,29 84,85 0,35 -6,59 -20,72 -13,13 -35,19 -64,19l-72 0c-36,0 -71,-3 -104,-9 -34,-6 -64,-18 -90,-34 -26,-17 -48,-38 -67,-65 -18,-26 -30,-61 -35,-104 -31,11 -66,21 -105,28 -39,7 -77,11 -113,11zm935 -253c0,86 25,150 76,190 50,40 113,60 186,60l203 0 0 -212c0,-33 -3,-67 -9,-102 -6,-34 -18,-65 -35,-93 -17,-27 -40,-50 -70,-67 -29,-18 -67,-27 -112,-27 -38,0 -72,7 -102,20 -29,14 -54,32 -75,54 -20,22 -35,49 -46,80 -11,31 -16,63 -16,97zm-349 426c-57,0 -85,-28 -85,-85 0,-35 7,-59 20,-71 13,-13 35,-20 65,-20l241 0c-16,-29 -30,-62 -41,-98 -11,-36 -16,-77 -16,-124 0,-55 9,-109 27,-163 18,-54 45,-101 81,-143 35,-41 78,-75 130,-101 51,-26 111,-39 179,-39 78,0 142,14 191,42 49,28 88,64 117,108 29,44 49,92 60,145 11,52 17,104 17,155l0 394 -986 0zm490 -1171c0,-31 12,-57 33,-79 23,-22 49,-33 80,-33 31,0 57,11 79,33 22,22 33,48 33,79 0,31 -11,58 -33,80 -22,22 -48,33 -79,33 -31,0 -57,-11 -80,-33 -21,-22 -33,-49 -33,-80zm1281 1171c-47,0 -86,-10 -117,-31 -31,-21 -54,-46 -69,-74 0,101 -6,187 -18,256 -12,70 -35,127 -69,170 -34,43 -80,74 -140,93 -59,19 -136,29 -231,29l0 -176c69,0 123,-8 162,-22 39,-15 68,-39 87,-72 19,-33 31,-76 34,-127 4,-52 5,-114 5,-187l0 -568 172 0 0 301c0,72 13,128 39,170 26,42 75,62 145,62 56,0 85,29 85,85 0,35 -7,59 -21,72 -13,13 -35,19 -64,19zm847 -176c0,-90 -11,-166 -35,-228 -24,-62 -57,-112 -97,-151 -41,-39 -90,-68 -145,-85 -55,-18 -113,-27 -173,-27 -41,0 -84,4 -130,12 -46,7 -84,16 -113,25l0 -170c28,-8 66,-18 112,-28 46,-11 97,-16 153,-16 107,0 199,18 276,55 77,36 141,86 191,149 49,63 85,136 109,220 23,84 34,172 34,265l0 155 -1030 0c-57,0 -85,-28 -85,-85 0,-35 7,-59 20,-71 14,-13 35,-20 65,-20l848 0zm787 -377c0,60 19,108 56,144 38,37 97,56 179,56 31,0 64,-4 100,-11 36,-7 69,-16 97,-27l0 -377 -186 0c-68,0 -125,17 -174,51 -48,35 -72,89 -72,164zm220 380c-34,0 -73,-5 -117,-16 -45,-9 -87,-27 -127,-53 -41,-26 -75,-63 -103,-110 -28,-48 -42,-110 -42,-185 0,-77 13,-141 40,-192 27,-51 61,-93 104,-126 42,-32 89,-55 140,-69 51,-15 103,-22 154,-22l337 0 0 607c0,59 9,101 27,126 18,25 59,37 123,37l50 0c56,0 85,29 85,85 0,35 -7,59 -20,72 -14,13 -35,19 -65,19l-71 0c-37,0 -72,-3 -105,-9 -34,-6 -63,-18 -90,-34 -26,-17 -48,-38 -66,-65 -18,-26 -30,-61 -36,-104 -31,11 -66,21 -105,28 -38,7 -76,11 -113,11zm586 173c-56,0 -85,-28 -85,-85 0,-35 7,-59 20,-71 14,-13 35,-20 65,-20l848 0c0,-90 -11,-166 -35,-228 -24,-62 -56,-112 -97,-151 -41,-39 -89,-68 -144,-85 -55,-18 -113,-27 -174,-27 -41,0 -84,4 -130,12 -46,7 -83,16 -113,25l0 -170c28,-8 66,-18 112,-28 47,-11 97,-16 153,-16 106,0 197,17 273,53 75,34 138,83 189,144 50,62 87,133 111,214 23,81 36,167 38,257l131 0c56,0 84,29 84,85 0,35 -6,59 -20,72 -13,13 -35,19 -64,19l-1162 0zm324 -1171c0,-31 11,-57 33,-79 22,-22 48,-33 79,-33 31,0 58,11 79,33 22,22 33,48 33,79 0,31 -11,58 -33,80 -21,22 -48,33 -79,33 -31,0 -57,-11 -79,-33 -22,-22 -33,-49 -33,-80zm914 995c47,0 87,-1 118,-4 33,-3 58,-9 78,-20 19,-10 33,-26 41,-46 8,-21 12,-48 12,-84l0 -379 174 0 0 301c0,35 2,67 7,96 4,29 14,53 30,73 15,19 37,35 66,47 29,11 68,16 117,16 31,0 58,-1 81,-4 22,-3 41,-9 57,-20 16,-10 27,-26 35,-46 7,-21 11,-48 11,-84l0 -379 174 0 0 301c0,35 2,67 8,96 5,29 15,53 30,73 14,19 35,35 61,47 26,11 60,16 102,16 25,0 46,-1 66,-4 20,-3 37,-9 51,-20 14,-10 25,-26 33,-46 8,-21 11,-48 11,-84l0 -484 174 0 0 406c0,35 2,67 7,96 5,29 15,53 29,73 14,19 33,35 57,47 23,11 54,16 91,16 57,0 85,29 85,85 0,35 -7,59 -20,72 -14,13 -35,19 -65,19 -55,0 -99,-13 -133,-39 -34,-26 -57,-59 -68,-98 -13,29 -30,53 -53,70 -23,18 -47,32 -73,42 -25,10 -50,17 -73,20 -24,3 -45,5 -62,5 -47,0 -86,-4 -118,-13 -31,-8 -58,-19 -79,-32 -21,-13 -37,-28 -49,-45 -13,-16 -22,-32 -29,-47 -25,57 -64,95 -117,112 -53,17 -116,25 -190,25 -49,0 -91,-4 -124,-12 -33,-8 -60,-18 -81,-31 -21,-13 -38,-28 -50,-46 -13,-17 -24,-34 -32,-51 -13,30 -28,54 -48,71 -19,18 -44,32 -74,43 -30,11 -68,18 -112,21 -45,3 -98,5 -160,5l-70 0c-57,0 -85,-28 -85,-85 0,-35 7,-59 20,-71 14,-13 35,-20 65,-20l74 0zm2016 -995c0,-31 11,-57 33,-79 23,-22 49,-33 80,-33 31,0 57,11 79,33 22,22 32,48 32,79 0,31 -10,58 -32,80 -22,22 -48,33 -79,33 -31,0 -57,-11 -80,-33 -22,-22 -33,-49 -33,-80zm-296 1171c-56,0 -85,-28 -85,-85 0,-35 7,-59 21,-71 13,-13 34,-20 64,-20l330 0 0 -638 174 0 0 814 -504 0z"/>
   <circle class="fil2" cx="10837" cy="4578" r="3434"/>
   <path class="fil3" d="M9656 4577c0,-652 529,-1180 1180,-1180 652,0 1180,528 1180,1180 0,315 -123,611 -346,834 -223,223 -518,346 -834,346 -315,0 -611,-123 -834,-346 -223,-223 -346,-519 -346,-834zm1244 -1960l0 656c435,21 813,254 1035,598l569 -329c-30,-107 14,-223 116,-282 120,-69 272,-28 341,92 69,120 29,271 -91,340 -103,60 -225,40 -303,-41l-569 329c92,179 144,382 144,597 0,212 -50,416 -145,599l570 328c77,-80 200,-100 303,-41 120,70 160,221 91,341 -69,120 -221,161 -341,91 -102,-59 -146,-174 -116,-282l-570 -329c-50,77 -108,149 -175,216 -232,232 -536,366 -861,381l0 657c110,27 189,124 189,243 0,138 -111,249 -250,249 -138,0 -249,-111 -249,-249 0,-118 77,-214 184,-242l0 -658c-325,-16 -627,-150 -859,-381 -67,-67 -125,-140 -176,-218l-567 328c32,108 -12,226 -116,285 -120,70 -271,29 -340,-91 -70,-120 -29,-271 91,-341 101,-58 223,-40 301,39l568 -329c-94,-182 -144,-385 -144,-596 0,-216 53,-420 146,-599l-567 -328c-78,82 -201,102 -304,42 -120,-69 -161,-220 -91,-340 69,-120 220,-161 340,-92 102,59 147,174 117,281l568 328c222,-344 601,-576 1035,-597l0 -655c-108,-27 -186,-124 -186,-242 0,-139 111,-250 249,-250 139,0 250,111 250,250 0,118 -78,215 -187,242zm-2075 799c34,-59 107,-77 165,-44 61,35 78,105 44,165 -35,59 -104,79 -165,44 -58,-34 -78,-106 -44,-165zm0 2323c-34,-59 -14,-131 44,-164 61,-35 130,-16 165,44 34,60 17,129 -44,165 -58,33 -131,14 -165,-45zm2012 1162c-68,0 -120,-53 -120,-120 0,-71 52,-121 120,-121 69,0 121,50 121,121 0,67 -53,120 -121,120zm2012 -1162c-34,59 -106,78 -164,45 -61,-36 -79,-105 -44,-165 34,-60 103,-79 164,-44 58,33 78,105 44,164zm0 -2323c34,59 14,131 -44,165 -61,35 -130,15 -164,-44 -35,-60 -17,-130 44,-165 58,-33 130,-15 164,44zm-2012 -1162c68,0 121,54 121,121 0,70 -52,120 -121,120 -68,0 -120,-50 -120,-120 0,-67 52,-121 120,-121z"/>
  </g>
 </g>
</svg>
