<?xml version="1.0" encoding="UTF-8"?>
<!DOCTYPE svg PUBLIC "-//W3C//DTD SVG 1.1//EN" "http://www.w3.org/Graphics/SVG/1.1/DTD/svg11.dtd">
<!-- Creator: CorelDRAW X7 -->
<svg xmlns="http://www.w3.org/2000/svg" xml:space="preserve" width="100%" height="100%" version="1.1" style="shape-rendering:geometricPrecision; text-rendering:geometricPrecision; image-rendering:optimizeQuality; fill-rule:evenodd; clip-rule:evenodd"
viewBox="0 0 21675 13039"
 xmlns:xlink="http://www.w3.org/1999/xlink">
 <defs>
  <style type="text/css">
   <![CDATA[
    .fil1 {fill:#FEFEFE}
    .fil2 {fill:#8DA0D1}
    .fil0 {fill:#8DA0D1;fill-rule:nonzero}
   ]]>
  </style>
 </defs>
 <g id="Layer_x0020_1">
  <metadata id="CorelCorpID_0Corel-Layer"/>
  <g id="_2330787098496">
   <polygon class="fil0" points="21666,12275 11721,12275 10837,13033 9954,12275 8,12275 8,5 21666,5 "/>
   <circle class="fil1" cx="10837" cy="4578" r="3434"/>
   <path class="fil2" d="M9656 4577c0,-652 529,-1180 1180,-1180 652,0 1180,528 1180,1180 0,315 -123,611 -346,834 -223,223 -518,346 -834,346 -315,0 -611,-123 -834,-346 -223,-223 -346,-519 -346,-834zm1244 -1960l0 656c435,21 813,254 1035,598l569 -329c-30,-107 14,-223 116,-282 120,-69 272,-28 341,92 69,120 29,271 -91,340 -103,60 -225,40 -303,-41l-569 329c92,179 144,382 144,597 0,212 -50,416 -145,599l570 328c77,-80 200,-100 303,-41 120,70 160,221 91,341 -69,120 -221,161 -341,91 -102,-59 -146,-174 -116,-282l-570 -329c-50,77 -108,149 -175,216 -232,232 -536,366 -861,381l0 657c110,27 189,124 189,243 0,138 -111,249 -250,249 -138,0 -249,-111 -249,-249 0,-118 77,-214 184,-242l0 -658c-325,-16 -627,-150 -859,-381 -67,-67 -125,-140 -176,-218l-567 328c32,108 -12,226 -116,285 -120,70 -271,29 -340,-91 -70,-120 -29,-271 91,-341 101,-58 223,-40 301,39l568 -329c-94,-182 -144,-385 -144,-596 0,-216 53,-420 146,-599l-567 -328c-78,82 -201,102 -304,42 -120,-69 -161,-220 -91,-340 69,-120 220,-161 340,-92 102,59 147,174 117,281l568 328c222,-344 601,-576 1035,-597l0 -655c-108,-27 -186,-124 -186,-242 0,-139 111,-250 249,-250 139,0 250,111 250,250 0,118 -78,215 -187,242zm-2075 799c34,-59 107,-77 165,-44 61,35 78,105 44,165 -35,59 -104,79 -165,44 -58,-34 -78,-106 -44,-165zm0 2323c-34,-59 -14,-131 44,-164 61,-35 130,-16 165,44 34,60 17,129 -44,165 -58,33 -131,14 -165,-45zm2012 1162c-68,0 -120,-53 -120,-120 0,-71 52,-121 120,-121 69,0 121,50 121,121 0,67 -53,120 -121,120zm2012 -1162c-34,59 -106,78 -164,45 -61,-36 -79,-105 -44,-165 34,-60 103,-79 164,-44 58,33 78,105 44,164zm0 -2323c34,59 14,131 -44,165 -61,35 -130,15 -164,-44 -35,-60 -17,-130 44,-165 58,-33 130,-15 164,44zm-2012 -1162c68,0 121,54 121,121 0,70 -52,120 -121,120 -68,0 -120,-50 -120,-120 0,-67 52,-121 120,-121z"/>
  </g>
 </g>
</svg>
