<?xml version="1.0" encoding="UTF-8"?>
<!DOCTYPE svg PUBLIC "-//W3C//DTD SVG 1.1//EN" "http://www.w3.org/Graphics/SVG/1.1/DTD/svg11.dtd">
<!-- Creator: CorelDRAW X7 -->
<svg xmlns="http://www.w3.org/2000/svg" xml:space="preserve" width="2.57917in" height="0.753575in" version="1.1" style="shape-rendering:geometricPrecision; text-rendering:geometricPrecision; image-rendering:optimizeQuality; fill-rule:evenodd; clip-rule:evenodd"
viewBox="0 0 25792 7536"
 xmlns:xlink="http://www.w3.org/1999/xlink">
 <defs>
  <style type="text/css">
   <![CDATA[
    .fil0 {fill:none}
    .fil2 {fill:#6C87C3}
    .fil1 {fill:#A6B7DE}
    .fil3 {fill:#D2AE6D}
    .fil4 {fill:gray;fill-rule:nonzero}
   ]]>
  </style>
 </defs>
 <g id="Layer_x0020_1">
  <metadata id="CorelCorpID_0Corel-Layer"/>
  <g id="_2596399145584">
   <rect class="fil0" width="25792" height="4262"/>
   <path class="fil1" d="M17051 3410l-852 852c852,0 1705,0 2557,0l853 -852c-853,0 -1705,0 -2558,0z"/>
   <polygon class="fil1" points="4262,852 5115,0 0,0 0,852 "/>
   <polygon class="fil1" points="0,1705 0,2558 2558,2558 3410,1705 "/>
   <polygon class="fil1" points="5115,1705 4262,2558 7673,2558 8526,1705 "/>
   <polygon class="fil1" points="4262,3410 4262,4262 5968,4262 6820,3410 "/>
   <polygon class="fil1" points="7673,3410 6820,4262 9378,4262 9378,3410 "/>
   <path class="fil1" d="M5968 852l3410 0 852 -852c-1136,0 -2273,0 -3410,0l-852 852z"/>
   <path class="fil1" d="M10230 1705l-852 852 3410 0 852 -852c-1136,0 -2273,0 -3410,0z"/>
   <polygon class="fil1" points="12788,0 12788,852 13641,852 13641,0 "/>
   <polygon class="fil1" points="14493,1705 13641,2558 16198,2558 16198,1705 "/>
   <path class="fil1" d="M13641 3410c-852,0 -1705,0 -2558,0l-852 852c1136,0 2274,0 3410,0l0 -852z"/>
   <path class="fil1" d="M18756 852l852 -852c-852,0 -1704,0 -2557,0l-853 852c853,0 1705,0 2558,0z"/>
   <path class="fil1" d="M17051 1705l-852 852c852,0 1705,0 2557,0l853 -852c-853,0 -1705,0 -2558,0z"/>
   <polygon class="fil2" points="3410,1705 2558,2558 2558,4262 3410,4262 "/>
   <polygon class="fil2" points="1705,3410 0,3410 0,4262 1705,4262 "/>
   <polygon class="fil2" points="4262,852 4262,2558 5115,1705 5115,0 "/>
   <polygon class="fil2" points="13641,2558 13641,4262 14493,3410 14493,2558 "/>
   <polygon class="fil2" points="16198,2558 17051,1705 17051,852 16198,852 "/>
   <polygon class="fil2" points="17051,2558 16198,2558 16198,4262 17051,3410 "/>
   <polygon class="fil2" points="10230,1705 10230,0 9378,852 9378,2558 "/>
   <polygon class="fil2" points="10230,2558 9378,2558 9378,4262 10230,3410 "/>
   <path class="fil3" d="M20676 852l4263 0 852 -852 -5115 0 0 852 0 0zm3411 2558l-3410 0 0 852 3410 0 0 -852zm1705 -1705l-5116 0 0 852 4263 0 0 1705 852 0 0 -2558 1 1z"/>
   <path class="fil4" d="M664 6872c0,204 -46,362 -139,474 -93,112 -218,168 -377,168 -43,0 -92,-6 -148,-16l18 -126c33,6 70,10 110,10 137,0 240,-49 308,-146 68,-98 102,-216 102,-356 0,-116 -23,-269 -70,-459l134 -38c42,175 62,338 62,489zm765 46l0 148 -57 0c-150,0 -255,-41 -315,-122 -59,-82 -89,-204 -89,-367l0 -948 134 -12 0 940c0,134 23,227 69,281 46,53 124,80 234,80l24 0zm0 148c-14,0 -25,-7 -33,-21 -9,-14 -13,-31 -13,-51 0,-22 4,-40 13,-54 8,-15 19,-22 33,-22l514 0 0 148 -514 0zm514 0c-14,0 -25,-7 -33,-21 -9,-14 -13,-31 -13,-51 0,-22 4,-40 13,-54 8,-15 19,-22 33,-22l42 0c258,0 469,-30 632,-88 -9,-125 -66,-241 -171,-350 -105,-108 -245,-192 -419,-251l0 -172c236,-190 511,-333 826,-428l0 142c-257,72 -493,192 -708,358 193,78 340,177 441,299 101,122 151,256 151,402 0,44 -2,78 -6,104 -168,88 -414,132 -736,132l-52 0zm1910 -142c84,0 164,-12 240,-34 -2,-136 -29,-251 -79,-346 -50,-94 -118,-141 -205,-141 -77,0 -136,31 -178,91 -41,61 -62,128 -62,202 0,76 21,133 62,171 42,38 116,57 222,57zm-220 598c-68,0 -139,-10 -214,-28l20 -124c55,12 118,18 190,18 82,0 153,-12 213,-35 61,-24 108,-55 140,-93 33,-39 58,-78 74,-118 17,-40 28,-83 31,-128 -81,28 -174,42 -278,42 -130,0 -222,-30 -276,-90 -53,-60 -80,-144 -80,-250 0,-129 34,-235 100,-320 67,-84 154,-127 262,-127 122,0 219,57 290,171 73,114 109,267 109,458 0,198 -49,352 -148,461 -98,108 -242,163 -433,163zm3143 -456c-176,0 -312,-44 -410,-132 -116,102 -364,154 -744,154 -131,0 -241,-10 -329,-30 -89,-20 -156,-49 -202,-87 -46,-38 -78,-80 -96,-125 -18,-46 -27,-99 -27,-161 0,-112 23,-234 70,-366l116 26c-34,118 -50,216 -50,294 0,49 7,89 21,122 14,34 40,65 78,94 38,28 95,50 171,64 76,14 171,21 284,21 116,0 216,-5 300,-15 84,-10 151,-23 201,-39 50,-16 90,-38 119,-64 30,-27 49,-54 58,-81 10,-26 14,-57 14,-94l0 -260 128 -12 0 278c0,64 -10,121 -30,169 83,64 202,96 356,96l14 0 0 148 -42 0zm-1086 224l116 104 -98 110 -118 -98 100 -116zm2359 -220c-135,0 -225,-48 -270,-144 -28,49 -76,87 -143,113 -68,26 -137,39 -207,39 -135,0 -240,-32 -317,-94 -63,54 -153,82 -270,82l-24 0c-13,0 -24,-7 -33,-21 -8,-14 -13,-31 -13,-51 0,-22 5,-40 13,-54 9,-15 20,-22 33,-22l58 0c75,0 131,-16 167,-48 37,-32 59,-94 66,-185l12 -166 122 -10 -12 192c-4,63 -15,116 -32,159 62,42 142,64 238,64 78,0 146,-18 203,-53 56,-36 85,-88 85,-157l0 -233 122 -8 0 235c0,141 70,212 210,212 151,0 226,-72 226,-216l0 -251 122 -12 0 250c0,53 -5,96 -14,133 76,62 187,94 332,94l18 0 0 148 -36 0c-143,0 -266,-38 -370,-114 -57,78 -153,118 -286,118zm692 -4c-13,0 -24,-7 -33,-21 -9,-14 -13,-31 -13,-51 0,-22 4,-40 13,-54 9,-15 20,-22 33,-22l514 0 0 148 -514 0zm514 0c-13,0 -24,-7 -33,-21 -8,-14 -13,-31 -13,-51 0,-22 5,-40 13,-54 9,-15 20,-22 33,-22l42 0c259,0 470,-30 633,-88 -10,-125 -67,-241 -172,-350 -104,-108 -244,-192 -419,-251l0 -172c236,-190 512,-333 827,-428l0 142c-258,72 -494,192 -709,358 194,78 341,177 441,299 101,122 152,256 152,402 0,44 -2,78 -6,104 -168,88 -414,132 -737,132l-52 0zm2131 -847l116 104 -98 110 -118 -98 100 -116zm522 196c56,198 84,361 84,491 0,181 -58,324 -175,428 -116,104 -284,156 -503,156 -173,0 -306,-41 -398,-123 -92,-82 -138,-197 -138,-345 0,-158 38,-314 114,-469l110 46c-60,131 -90,259 -90,385 0,113 35,201 104,265 69,63 177,95 322,95 161,0 289,-37 382,-111 94,-74 140,-173 140,-297 0,-143 -27,-303 -82,-481l130 -40zm522 651l-132 0 0 -1437 132 -12 0 1449zm310 448c-42,0 -92,-6 -148,-16l18 -126c34,6 70,10 110,10 141,0 245,-49 314,-146 68,-98 103,-216 103,-356 0,-103 -28,-257 -82,-461l126 -36c37,162 65,270 84,325 40,140 141,210 304,210l54 0 0 148 -72 0c-134,0 -232,-43 -296,-128 -10,182 -60,324 -152,425 -92,100 -213,151 -363,151zm787 -448c-13,0 -24,-7 -33,-21 -9,-14 -13,-31 -13,-51 0,-22 4,-40 13,-54 9,-15 20,-22 33,-22l410 0 0 148 -410 0zm650 -1237l0 -104c129,-83 290,-159 482,-228l0 100c-188,71 -349,148 -482,232zm-240 1237c-13,0 -24,-7 -33,-21 -9,-14 -13,-31 -13,-51 0,-22 4,-40 13,-54 9,-15 20,-22 33,-22l40 0c259,0 470,-30 634,-90 -10,-124 -68,-240 -171,-348 -103,-107 -242,-190 -415,-249l0 -168c235,-186 509,-328 822,-424l0 140c-254,72 -489,190 -704,354 192,78 338,177 438,298 100,122 150,255 150,401 0,42 -2,76 -6,102 -80,40 -186,72 -319,96 -133,24 -274,36 -423,36l-46 0zm2893 -1229l104 94 -88 100 -108 -88 92 -106zm144 208l108 96 -92 102 -110 -90 94 -108zm-268 8l108 96 -92 102 -110 -90 94 -108zm-1106 1483c-174,0 -307,-41 -399,-123 -92,-82 -138,-197 -138,-345 0,-156 38,-313 114,-471l110 46c-60,131 -90,260 -90,387 0,112 35,199 104,263 70,63 177,95 323,95 161,0 288,-37 382,-111 93,-74 140,-173 140,-295 0,-143 -28,-303 -82,-481l130 -42c48,171 75,309 82,415 58,33 132,50 220,50 79,0 146,-18 202,-53 56,-36 84,-88 84,-157l0 -239 124 -12 0 245c0,141 69,212 206,212 79,0 150,-18 214,-54 3,-32 4,-56 4,-72 0,-106 -18,-231 -54,-375l128 -30c31,126 46,241 46,347 0,97 -11,178 -32,244 -107,58 -213,88 -318,88 -132,0 -220,-48 -264,-142 -28,49 -76,87 -143,113 -67,26 -137,39 -207,39 -79,0 -150,-12 -214,-34 -20,153 -88,273 -202,361 -115,87 -272,131 -470,131zm2526 -612c84,0 165,-12 240,-34 -2,-136 -29,-251 -79,-346 -50,-94 -118,-141 -205,-141 -77,0 -136,31 -178,91 -41,61 -62,128 -62,202 0,76 21,133 62,171 42,38 116,57 222,57zm-220 598c-68,0 -139,-10 -214,-28l20 -124c55,12 118,18 190,18 82,0 153,-12 213,-35 61,-24 108,-55 140,-93 33,-39 58,-78 74,-118 17,-40 27,-83 32,-128 -82,28 -175,42 -279,42 -130,0 -222,-30 -276,-90 -53,-60 -80,-144 -80,-250 0,-129 34,-235 100,-320 67,-84 154,-127 262,-127 122,0 218,57 290,171 73,114 109,267 109,458 0,198 -49,352 -147,461 -99,108 -243,163 -434,163zm1345 -604l0 148 -56 0c-151,0 -256,-41 -315,-122 -60,-82 -89,-204 -89,-367l0 -948 134 -12 0 940c0,134 23,227 69,281 46,53 123,80 233,80l24 0zm0 148c-14,0 -25,-7 -33,-21 -9,-14 -13,-31 -13,-51 0,-22 4,-40 13,-54 8,-15 19,-22 33,-22l514 0 0 148 -514 0zm514 0c-13,0 -24,-7 -33,-21 -9,-14 -13,-31 -13,-51 0,-22 4,-40 13,-54 9,-15 20,-22 33,-22l42 0c259,0 469,-30 632,-88 -9,-125 -66,-241 -171,-350 -105,-108 -244,-192 -419,-251l0 -172c236,-190 512,-333 826,-428l0 142c-257,72 -493,192 -708,358 193,78 341,177 441,299 101,122 151,256 151,402 0,44 -2,78 -6,104 -168,88 -413,132 -736,132l-52 0z"/>
  </g>
 </g>
</svg>
