<?xml version="1.0" encoding="UTF-8"?>
<!DOCTYPE svg PUBLIC "-//W3C//DTD SVG 1.1//EN" "http://www.w3.org/Graphics/SVG/1.1/DTD/svg11.dtd">
<!-- Creator: CorelDRAW X7 -->
<svg xmlns="http://www.w3.org/2000/svg" xml:space="preserve" width="8.37638in" height="3.31063in" version="1.1" style="shape-rendering:geometricPrecision; text-rendering:geometricPrecision; image-rendering:optimizeQuality; fill-rule:evenodd; clip-rule:evenodd"
viewBox="0 0 837638 331063"
 xmlns:xlink="http://www.w3.org/1999/xlink">
 <defs>
  <style type="text/css">
   <![CDATA[
    .fil0 {fill:#D2AE6D}
    .fil2 {fill:black}
    .fil1 {fill:white}
   ]]>
  </style>
 </defs>
 <g id="Layer_x0020_1">
  <metadata id="CorelCorpID_0Corel-Layer"/>
  <g id="_2596533684352">
   <g>
    <ellipse class="fil0" cx="161918" cy="165531" rx="161918" ry="161917"/>
    <path class="fil1" d="M192470 211359l0 30554 -122208 0 0 -30554 122208 0zm-122208 -91659l0 -30553c61104,0 122209,0 183313,0l-30552 30553c-50920,0 -101841,0 -152761,0zm183313 30553c0,30553 0,61106 0,91660l-30552 0 0 -61107 0 0 -152761 0 0 -30553c61104,0 122209,0 183313,0z"/>
   </g>
   <path class="fil2" d="M543617 55093l-39 0 -31 0 -44 0 -26 0 -48 0 -22 0 -53 -4 -13 0c-1387,-31 -2788,-272 -4189,-727 -1493,-490 -2700,-1558 -3642,-3191 -626,888 -1361,1580 -2197,2110 -849,525 -1751,923 -2740,1195 -977,258 -1992,429 -3047,503 -1050,75 -2101,114 -3125,114l-35386 0c-3034,0 -5590,-219 -7656,-657 -2057,-433 -3703,-1164 -4924,-2136 -1230,-980 -2115,-2237 -2627,-3781 -512,-1537 -770,-3419 -770,-5634l0 -12747 10019 0 0 11386c0,1024 136,1842 399,2429 263,591 735,1072 1392,1414 661,350 1571,582 2700,683 1130,100 2570,153 4334,153l30895 0c1764,0 2990,-267 3681,-810 683,-534 1029,-1760 1029,-3637l0 -17378 9954 0 0 16515c0,1904 398,3266 1199,4076 788,800 2386,1212 4793,1234l48 0 18 0 31 0 48 0 39 0 74 0 75 0 10449 0c240,-48 503,-75 783,-75l12208 0 0 -21750 10094 0 0 30715 -22206 0 -48 0 -48 0 -74 0 -75 0 -11136 0 -48 0 -48 0zm-154220 -39483l-2311 0 0 315452 2311 0 0 -315452zm441999 278942l5437 0 0 18708c0,3322 -193,6106 -569,8378 -394,2259 -1108,4080 -2184,5467 -1073,1388 -2561,2395 -4461,3008 -1900,625 -4351,941 -7371,941l0 -5573c2184,0 3895,-232 5134,-705 1230,-468 2158,-1230 2762,-2280 617,-1037 972,-2390 1086,-4023 109,-1645 166,-3616 166,-5927l0 -17994zm-14226 -25419l0 47896 -5502 0 0 -47896 5502 0zm-61050 42328l15973 0c1655,0 3042,-293 4137,-876 1107,-568 1654,-1698 1654,-3353 0,-1164 -547,-2482 -1654,-3983 -1095,-1497 -2561,-3016 -4373,-4570 -1808,-1545 -3892,-3077 -6238,-4565 -2350,-1497 -4741,-2850 -7192,-4049 44,-547 180,-1095 390,-1655 227,-560 472,-1072 739,-1541 268,-473 548,-884 841,-1243 280,-359 525,-604 713,-739l24548 -10812 0 5445 -19728 8711c3121,1834 5782,3624 7975,5371 2193,1742 3979,3431 5345,5042 1365,1620 2359,3174 2976,4675 626,1497 937,2907 937,4237 0,942 -144,1979 -424,3100 -289,1129 -828,2157 -1642,3094 -805,941 -1948,1725 -3423,2351 -1475,613 -3379,928 -5717,928l-15832 0 -57 0 -31 0 -52 0 -31 0 -132 -5 -30 0c-1633,-39 -2955,-450 -3983,-1239 -1073,-835 -1790,-1864 -2158,-3116 -403,937 -950,1685 -1677,2246 -718,560 -1488,998 -2294,1308 -805,316 -1588,539 -2337,640 -762,109 -1410,166 -1957,166 -1479,0 -2731,-136 -3738,-416 -993,-267 -1834,-613 -2504,-1029 -661,-411 -1186,-880 -1567,-1405 -389,-529 -678,-1033 -906,-1510 -801,1834 -2044,3016 -3712,3554 -1676,539 -3677,806 -6014,806 -1576,0 -2885,-123 -3939,-381 -1038,-245 -1900,-582 -2570,-994 -661,-415 -1195,-897 -1598,-1444 -403,-547 -740,-1086 -1007,-1611 -394,941 -897,1690 -1501,2250 -613,560 -1396,1007 -2359,1339 -963,351 -2145,574 -3554,675 -1410,109 -3100,166 -5069,166l-2102 0 -87 0 -35 0 -83 0 -54624 0c-2596,0 -4763,-180 -6487,-539 -1721,-367 -3121,-928 -4159,-1711 -1050,-771 -1803,-1777 -2250,-3007 -446,-1239 -669,-2749 -669,-4540l0 -10387 5502 0 0 8387c0,1374 166,2482 516,3309 333,828 902,1466 1699,1891 792,425 1891,705 3274,827 1388,132 3165,202 5327,202l23261 0c-503,-941 -928,-1983 -1278,-3112 -346,-1138 -525,-2447 -525,-3936 0,-1742 293,-3466 875,-5178 569,-1698 1431,-3208 2547,-4517 1130,-1309 2504,-2381 4128,-3209 1633,-827 3511,-1252 5655,-1252 2465,0 4474,447 6041,1353 1567,893 2806,2035 3725,3423 915,1383 1554,2906 1913,4583 355,1668 534,3309 534,4933l0 6912 4990 0 88 0 35 0 83 0 2241 0c1489,0 2740,-48 3747,-136 1016,-87 1834,-302 2447,-639 604,-332 1042,-827 1309,-1475 258,-635 394,-1519 394,-2639l0 -12020 5502 0 0 9537c0,1108 79,2124 210,3043 149,914 460,1689 950,2315 495,613 1199,1108 2114,1475 920,359 2158,539 3703,539 985,0 1834,-48 2561,-136 718,-87 1322,-302 1812,-639 490,-332 862,-827 1095,-1475 245,-635 372,-1519 372,-2639l0 -12020 5502 0 0 9537c0,1108 74,2124 245,3043 166,914 482,1689 950,2315 468,613 1116,1108 1943,1475 832,359 1913,539 3244,539 775,0 1466,-48 2084,-136 626,-87 1159,-302 1606,-639 451,-332 797,-827 1055,-1475 245,-635 368,-1519 368,-2639l0 -15365 5502 0 0 12882c0,1108 79,2124 236,3043 153,914 447,1689 893,2315 460,613 1051,1108 1812,1475 736,355 1681,534 2841,539l57 0 31 0 52 0zm-33779 -31547c0,-985 346,-1825 1050,-2508 692,-692 1533,-1037 2517,-1037 985,0 1821,345 2504,1037 696,683 1042,1523 1042,2508 0,980 -346,1821 -1042,2512 -683,705 -1519,1055 -2504,1055 -984,0 -1825,-350 -2517,-1055 -704,-691 -1050,-1532 -1050,-2512zm8711 0c0,-985 359,-1825 1050,-2508 705,-692 1545,-1037 2530,-1037 972,0 1808,345 2504,1037 683,683 1029,1523 1029,2508 0,980 -346,1821 -1029,2512 -696,705 -1532,1055 -2504,1055 -985,0 -1825,-350 -2530,-1055 -691,-691 -1050,-1532 -1050,-2512zm-4229 -8033c0,-984 359,-1820 1051,-2525 704,-696 1545,-1042 2530,-1042 985,0 1812,346 2503,1042 684,705 1029,1541 1029,2525 0,986 -345,1813 -1029,2504 -691,683 -1518,1029 -2503,1029 -985,0 -1826,-346 -2530,-1029 -692,-691 -1051,-1518 -1051,-2504zm-52952 31648c0,2732 797,4732 2408,6019 1611,1274 3576,1913 5914,1913l6421 0 0 -6724c0,-1059 -101,-2144 -293,-3243 -202,-1081 -569,-2066 -1095,-2942 -538,-871 -1273,-1584 -2215,-2145 -941,-560 -2135,-840 -3576,-840 -1199,0 -2272,214 -3213,639 -936,425 -1733,994 -2390,1712 -652,704 -1142,1554 -1466,2538 -337,972 -495,2001 -495,3073zm4811 -23615c0,-985 359,-1825 1051,-2508 704,-692 1545,-1037 2530,-1037 980,0 1807,345 2504,1037 682,683 1028,1523 1028,2508 0,980 -346,1821 -1028,2512 -697,705 -1524,1055 -2504,1055 -985,0 -1826,-350 -2530,-1055 -692,-691 -1051,-1532 -1051,-2512zm-98633 31547l15911 0c1655,0 3043,-293 4137,-876 1107,-568 1655,-1698 1655,-3353 0,-1164 -548,-2482 -1655,-3983 -1094,-1497 -2561,-3016 -4373,-4570 -1808,-1545 -3891,-3077 -6238,-4565 -2350,-1497 -4740,-2850 -7192,-4049 44,-547 180,-1095 390,-1655 228,-560 473,-1072 740,-1541 267,-473 547,-884 840,-1243 280,-359 526,-604 714,-739l24548 -10812 0 5445 -19729 8711c3121,1834 5783,3624 7975,5371 2194,1742 3980,3431 5345,5042 1366,1620 2360,3174 2977,4675 626,1497 936,2907 936,4237 0,942 -144,1979 -424,3100 -289,1129 -827,2157 -1641,3094 -806,941 -1948,1725 -3424,2351 -1475,613 -3379,928 -5716,928l-15771 0 -88 0 -31 0 -52 0 -31 0 -48 0 -35 -5 -44 0 -35 0 -48 0 -31 -4c-1580,-57 -2867,-464 -3869,-1235 -1077,-835 -1790,-1864 -2172,-3116 -805,1834 -2070,3016 -3777,3554 -1712,539 -3826,806 -6343,806l-5383 0 -88 0 -31 0 -52 0 -31 0 -48 0 -35 -5 -44 0 -35 0 -48 0 -31 -4c-1580,-57 -2867,-464 -3869,-1235 -1077,-835 -1790,-1864 -2172,-3116 -805,1834 -2070,3016 -3777,3554 -1712,539 -3826,806 -6343,806l-5414 0 -88 0 -83 0 -9761 0 -88 0 -83 0 -9761 0 -88 0 -83 0 -5 0 -157 -5 -9 0c-1720,-35 -3173,-411 -4364,-1146 -1252,-762 -2504,-2128 -3769,-4093 -503,1208 -1138,2167 -1921,2884 -771,714 -1646,1252 -2605,1589 -963,333 -1969,548 -3042,635 -1077,92 -2136,136 -3213,136l-10221 0 0 -5568 12025 0c1877,0 3322,-237 4324,-705 1007,-473 1502,-1151 1502,-2049 0,-849 -224,-1698 -670,-2560 -451,-849 -998,-1769 -1659,-2749l-7135 -10514 5178 -3244 8055 13364c892,1488 1676,2762 2346,3839 661,1072 1309,1935 1913,2604 617,661 1199,1165 1755,1510 525,311 1068,482 1641,504l26 0 31 0 57 0 83 0 9762 0 87 0 83 0 9762 0 87 0 83 0 4399 0c1077,0 1992,-48 2754,-136 770,-87 1409,-302 1922,-639 516,-332 897,-827 1142,-1475 258,-635 381,-1519 381,-2639l0 -15365 5502 0 0 12882c0,1108 79,2124 232,3043 149,914 451,1689 897,2315 447,613 1051,1108 1799,1475 727,342 1633,521 2741,539l48 0 8 0 53 0 26 0 31 0 83 0 4369 0c1076,0 1991,-48 2753,-136 770,-87 1409,-302 1922,-639 516,-332 897,-827 1142,-1475 258,-635 381,-1519 381,-2639l0 -15365 5502 0 0 12882c0,1108 79,2124 232,3043 149,914 451,1689 897,2315 447,613 1051,1108 1799,1475 727,342 1633,521 2741,539l48 0 8 0 53 0 26 0 31 0 83 0zm-12046 -31547c0,-985 359,-1825 1050,-2508 705,-692 1545,-1037 2526,-1037 985,0 1812,345 2508,1037 679,683 1029,1523 1029,2508 0,980 -350,1821 -1029,2512 -696,705 -1523,1055 -2508,1055 -981,0 -1821,-350 -2526,-1055 -691,-691 -1050,-1532 -1050,-2512zm-26741 47235c0,-985 346,-1812 1051,-2504 696,-683 1531,-1028 2517,-1028 985,0 1820,345 2503,1028 696,692 1042,1519 1042,2504 0,985 -346,1825 -1042,2530 -683,692 -1518,1051 -2503,1051 -986,0 -1821,-359 -2517,-1051 -705,-705 -1051,-1545 -1051,-2530zm8711 0c0,-985 359,-1812 1050,-2504 705,-683 1546,-1028 2531,-1028 971,0 1812,345 2503,1028 683,692 1029,1519 1029,2504 0,985 -346,1825 -1029,2530 -691,692 -1532,1051 -2503,1051 -985,0 -1826,-359 -2531,-1051 -691,-705 -1050,-1545 -1050,-2530zm-71494 -21987l-5432 0 0 -35907 5432 0 0 35907zm-6618 8658c-22,-1120 358,-2057 1116,-2819 761,-761 1703,-1151 2819,-1151 1120,0 2048,390 2819,1151 761,762 1142,1699 1142,2819 0,1108 -381,2045 -1142,2819 -771,757 -1699,1138 -2819,1138 -1116,0 -2058,-381 -2819,-1138 -758,-774 -1138,-1711 -1116,-2819zm364967 -124787l0 47896 -5502 0 0 -47896 5502 0zm-20306 25419l5437 0 0 18708c0,3323 -193,6107 -569,8378 -394,2259 -1108,4080 -2184,5468 -1073,1387 -2561,2394 -4461,3007 -1900,626 -4351,941 -7371,941l0 -5573c2184,0 3896,-231 5134,-704 1230,-468 2158,-1230 2762,-2281 617,-1037 972,-2390 1086,-4022 109,-1646 166,-3616 166,-5927l0 -17995zm-827 -14638c0,-984 359,-1825 1050,-2508 705,-691 1546,-1037 2531,-1037 984,0 1812,346 2503,1037 683,683 1029,1524 1029,2508 0,981 -346,1821 -1029,2513 -691,704 -1519,1055 -2503,1055 -985,0 -1826,-351 -2531,-1055 -691,-692 -1050,-1532 -1050,-2513zm-59575 31547l15973 0c1655,0 3042,-293 4137,-875 1107,-569 1654,-1699 1654,-3353 0,-1164 -547,-2482 -1654,-3983 -1095,-1498 -2561,-3017 -4373,-4570 -1808,-1546 -3892,-3078 -6238,-4566 -2350,-1497 -4741,-2849 -7192,-4049 44,-547 180,-1094 390,-1654 227,-561 472,-1073 739,-1541 268,-473 548,-885 841,-1243 280,-359 525,-605 713,-740l24548 -10812 0 5445 -19728 8711c3121,1834 5782,3625 7975,5371 2193,1742 3979,3432 5345,5042 1365,1620 2359,3174 2976,4676 626,1497 937,2906 937,4237 0,941 -144,1978 -424,3099 -289,1129 -828,2158 -1642,3094 -805,942 -1948,1725 -3423,2351 -1475,613 -3379,928 -5717,928l-15832 0 -57 0 -31 0 -52 0 -31 0 -132 -4 -30 0c-1633,-40 -2955,-451 -3983,-1239 -1073,-836 -1790,-1865 -2158,-3117 -403,937 -950,1686 -1677,2246 -718,560 -1488,998 -2294,1309 -805,315 -1588,538 -2337,639 -762,109 -1410,166 -1957,166 -1479,0 -2731,-136 -3738,-416 -993,-267 -1834,-613 -2504,-1028 -661,-412 -1186,-880 -1567,-1405 -389,-530 -678,-1034 -906,-1511 -801,1835 -2044,3016 -3712,3555 -1676,538 -3677,805 -6014,805 -1576,0 -2885,-122 -3939,-381 -1038,-245 -1900,-582 -2570,-993 -661,-416 -1195,-898 -1598,-1445 -403,-547 -740,-1086 -1007,-1611 -394,942 -897,1690 -1501,2250 -613,560 -1396,1007 -2359,1340 -963,350 -2145,573 -3554,674 -1410,109 -3100,166 -5069,166l-2106 0 -88 0 -30 0 -53 0 -30 0 -48 0 -36 -4 -43 0 -35 0 -48 0 -31 -5c-1580,-57 -2867,-464 -3870,-1234 -1063,-836 -1790,-1865 -2158,-3117 -394,937 -928,1686 -1589,2246 -669,560 -1510,998 -2529,1309 -1016,315 -2237,538 -3669,639 -1431,109 -3107,166 -5029,166l-27288 0c-2596,0 -4762,-179 -6487,-538 -1720,-368 -3121,-928 -4159,-1712 -1050,-770 -1803,-1777 -2250,-3007 -446,-1239 -669,-2749 -669,-4539l0 -10387 5502 0 0 8386c0,1375 166,2482 517,3310 332,827 901,1466 1698,1891 792,424 1891,704 3274,827 1387,131 3165,201 5327,201l24465 0c1488,0 2753,-48 3769,-135 1033,-88 1847,-302 2451,-639 591,-333 1029,-828 1309,-1476 266,-634 402,-1518 402,-2639l0 -15365 5511 0 0 12883c0,1107 70,2123 224,3042 157,915 459,1690 906,2316 451,613 1055,1107 1812,1475 740,341 1641,521 2723,538l43 0 9 0 57 0 22 0 30 0 84 0 2245 0c1489,0 2740,-48 3747,-135 1016,-88 1834,-302 2447,-639 604,-333 1042,-828 1309,-1476 258,-634 394,-1518 394,-2639l0 -12020 5502 0 0 9538c0,1107 79,2123 210,3042 149,915 460,1690 950,2316 495,613 1199,1107 2114,1475 920,359 2158,538 3703,538 985,0 1834,-48 2561,-135 718,-88 1322,-302 1812,-639 490,-333 862,-828 1095,-1476 245,-634 372,-1518 372,-2639l0 -12020 5502 0 0 9538c0,1107 74,2123 245,3042 166,915 482,1690 950,2316 468,613 1116,1107 1943,1475 832,359 1913,538 3244,538 775,0 1466,-48 2084,-135 626,-88 1159,-302 1606,-639 451,-333 797,-828 1055,-1476 245,-634 368,-1518 368,-2639l0 -15365 5502 0 0 12883c0,1107 79,2123 236,3042 153,915 447,1690 893,2316 460,613 1051,1107 1812,1475 736,355 1681,534 2841,538l57 0 31 0 52 0zm-93139 15754c0,-980 345,-1821 1050,-2504 692,-691 1541,-1028 2517,-1028 981,0 1821,337 2513,1028 683,683 1028,1524 1028,2504 0,985 -345,1825 -1028,2530 -692,692 -1532,1038 -2513,1038 -976,0 -1825,-346 -2517,-1038 -705,-705 -1050,-1545 -1050,-2530zm-60144 -10186c-1746,0 -3366,-201 -4867,-604 -1498,-403 -2793,-1064 -3901,-1979 -1098,-919 -1969,-2136 -2617,-3659 -648,-1519 -963,-3388 -963,-5625 0,-1786 280,-3545 862,-5266 582,-1733 1432,-3265 2539,-4609 1116,-1339 2504,-2412 4158,-3217 1668,-818 3568,-1221 5704,-1221 2381,0 4386,437 6019,1308 1619,872 2928,2080 3913,3625 985,1541 1690,3375 2114,5502 425,2136 635,4473 635,7035l0 6285c0,3366 -447,6106 -1340,8229 -897,2115 -2171,3791 -3825,5021 -1646,1243 -3681,2079 -6094,2526 -2407,451 -5112,674 -8111,674l-2819 0 0 -5573 2071 0c2136,0 4093,-87 5861,-266 1777,-167 3301,-569 4574,-1209 1274,-634 2268,-1554 2986,-2749 705,-1207 1063,-2831 1063,-4889l0 -1274c-805,504 -1856,950 -3143,1344 -1300,390 -2897,591 -4819,591zm-6981 -12479c0,2547 682,4372 2048,5467 1366,1094 3187,1646 5458,1646 1699,0 3196,-224 4505,-683 1300,-447 2271,-928 2932,-1454l0 -2495c0,-1518 -122,-2963 -358,-4307 -246,-1339 -648,-2491 -1231,-3454 -582,-963 -1343,-1724 -2280,-2280 -941,-547 -2084,-827 -3436,-827 -1375,0 -2548,267 -3511,805 -963,525 -1742,1195 -2359,2009 -604,806 -1064,1703 -1344,2688 -276,980 -424,1943 -424,2885zm-58761 6911l15942 0c1654,0 3042,-293 4136,-875 1108,-569 1655,-1699 1655,-3353 0,-1164 -547,-2482 -1655,-3983 -1094,-1498 -2560,-3017 -4373,-4570 -1807,-1546 -3891,-3078 -6237,-4566 -2351,-1497 -4741,-2849 -7192,-4049 44,-547 179,-1094 390,-1654 227,-561 472,-1073 739,-1541 267,-473 548,-885 841,-1243 280,-359 525,-605 713,-740l24548 -10812 0 5445 -19728 8711c3121,1834 5782,3625 7975,5371 2193,1742 3979,3432 5345,5042 1365,1620 2359,3174 2976,4676 626,1497 937,2906 937,4237 0,941 -144,1978 -425,3099 -288,1129 -827,2158 -1641,3094 -806,942 -1948,1725 -3423,2351 -1475,613 -3379,928 -5717,928l-15802 0 -87 0 -83 0 -1659 0c-1445,0 -2754,-144 -3927,-446 -1186,-294 -2180,-797 -3020,-1502 -827,-713 -1475,-1663 -1948,-2850 -468,-1194 -705,-2683 -705,-4473l0 -38625 5502 0 0 37150c0,1878 302,3208 885,3992 595,792 1891,1186 3904,1186l963 0 88 0 83 0zm-26229 -16909l5437 0 0 18708c0,3323 -193,6107 -569,8378 -394,2259 -1108,4080 -2184,5468 -1073,1387 -2561,2394 -4461,3007 -1900,626 -4351,941 -7371,941l0 -5573c2184,0 3895,-231 5134,-704 1230,-468 2158,-1230 2763,-2281 616,-1037 971,-2390 1085,-4022 109,-1646 166,-3616 166,-5927l0 -17995zm-30098 16909l10374 0 0 -20254 5502 0 0 25822 -15872 0 -87 0 -83 0 -1659 0c-1445,0 -2753,-144 -3926,-446 -1187,-294 -2180,-797 -3021,-1502 -827,-713 -1475,-1663 -1948,-2850 -468,-1194 -704,-2683 -704,-4473l0 -38625 5502 0 0 37150c0,1878 302,3208 884,3992 595,792 1891,1186 3905,1186l963 0 87 0 83 0zm4412 -31547c0,-984 346,-1825 1051,-2508 696,-691 1532,-1037 2517,-1037 985,0 1821,346 2504,1037 696,683 1042,1524 1042,2508 0,981 -346,1821 -1042,2513 -683,704 -1519,1055 -2504,1055 -985,0 -1821,-351 -2517,-1055 -705,-692 -1051,-1532 -1051,-2513zm8711 0c0,-984 359,-1825 1051,-2508 704,-691 1545,-1037 2530,-1037 972,0 1812,346 2504,1037 683,683 1028,1524 1028,2508 0,981 -345,1821 -1028,2513 -692,704 -1532,1055 -2504,1055 -985,0 -1826,-351 -2530,-1055 -692,-692 -1051,-1532 -1051,-2513zm-70745 18796l5436 0 0 9184c0,4337 1108,7389 3331,9135 2215,1747 5481,2618 9810,2618 2223,0 4145,-167 5769,-504 1611,-337 2942,-928 3992,-1755 1051,-827 1821,-1970 2316,-3423 490,-1453 735,-3287 735,-5524l0 -17234 5437 0 0 17300c0,5904 -1611,10142 -4833,12750 -3217,2592 -7739,3901 -13552,3901 -6172,0 -10790,-1375 -13858,-4137 -3051,-2749 -4583,-6741 -4583,-11989l0 -10322zm15084 -10076c0,-985 359,-1821 1055,-2504 704,-692 1541,-1042 2526,-1042 984,0 1812,350 2503,1042 683,683 1029,1519 1029,2504 0,985 -346,1825 -1029,2517 -691,705 -1519,1050 -2503,1050 -985,0 -1822,-345 -2526,-1050 -696,-692 -1055,-1532 -1055,-2517zm378550 -88819c0,-985 346,-1826 1051,-2509 691,-691 1532,-1037 2517,-1037 985,0 1821,346 2504,1037 696,683 1042,1524 1042,2509 0,980 -346,1820 -1042,2512 -683,705 -1519,1055 -2504,1055 -985,0 -1826,-350 -2517,-1055 -705,-692 -1051,-1532 -1051,-2512zm8711 0c0,-985 359,-1826 1051,-2509 704,-691 1545,-1037 2530,-1037 972,0 1812,346 2504,1037 683,683 1028,1524 1028,2509 0,980 -345,1820 -1028,2512 -692,705 -1532,1055 -2504,1055 -985,0 -1826,-350 -2530,-1055 -692,-692 -1051,-1532 -1051,-2512zm-8041 23615c0,2731 806,4732 2417,6019 1597,1273 3567,1912 5904,1912l6431 0 0 -6723c0,-1059 -101,-2145 -302,-3244 -189,-1081 -561,-2066 -1095,-2941 -538,-871 -1278,-1584 -2215,-2145 -941,-560 -2127,-840 -3567,-840 -1199,0 -2272,214 -3209,639 -941,424 -1733,993 -2385,1712 -635,704 -1130,1553 -1462,2538 -346,972 -517,2000 -517,3073zm-11070 13500l-359 -13 -411 13c-1742,0 -3143,-416 -4203,-1244 -1063,-836 -1768,-1864 -2114,-3116 -805,1834 -2105,3016 -3869,3554 -1768,539 -4041,806 -6811,806l-4632 0 -87 0 -35 0 -44 0 -39 0 -39 0 -44 -5 -35 0 -44 0 -35 0c-1572,-35 -2942,-368 -4123,-989 -1257,-674 -2259,-1812 -3034,-3436l0 -123c-849,1703 -2088,3034 -3712,3992 -1632,963 -3677,1445 -6141,1445 -2145,0 -4281,-359 -6404,-1086 -2136,-713 -4329,-1921 -6601,-3633 -591,893 -1186,1598 -1790,2114 -604,512 -1239,893 -1922,1151 -670,246 -1366,403 -2079,469 -705,65 -1467,101 -2272,101l-2766 0 -88 0 -30 0 -40 0 -44 0 -26 0 -57 -5 -9 0 -70 0 -65 0 -13 -4c-1323,-49 -2443,-377 -3345,-985 -985,-674 -1711,-1458 -2193,-2351 0,3209 -192,5927 -569,8142 -394,2215 -1107,4014 -2184,5380 -1072,1365 -2548,2346 -4426,2941 -1877,604 -4315,906 -7336,906l0 -5572c2180,0 3891,-232 5130,-705 1230,-468 2150,-1230 2762,-2280 618,-1038 977,-2390 1086,-4023 114,-1646 158,-3616 158,-5927l0 -17995 5445 0 0 9538c0,2272 416,4071 1243,5389 801,1282 2267,1943 4377,1982l88 0 13 0 75 0 30 0 83 0 2635 0c552,0 1108,-69 1690,-201 582,-122 1164,-416 1733,-862 582,-446 1152,-1072 1712,-1856 547,-784 1085,-1847 1589,-3178 1015,-2863 2101,-5178 3243,-6942 1130,-1769 2294,-3135 3489,-4093 1186,-963 2403,-1602 3633,-1926 1230,-311 2452,-468 3660,-468 1654,0 3208,324 4661,963 1454,647 2706,1562 3756,2748 1042,1200 1869,2605 2473,4229 596,1633 893,3454 893,5489 0,302 -8,604 -30,906 -23,293 -36,574 -36,828 447,1444 1099,2530 1957,3265 836,700 2141,1072 3931,1098l53 0 35 0 52 0 35 0 83 0 5249 0c818,0 1531,-48 2149,-135 626,-88 1151,-302 1576,-639 424,-333 761,-828 993,-1475 250,-635 372,-1519 372,-2640l0 -37439 5503 0 0 34957c0,2272 455,4071 1374,5389 915,1322 2394,1982 4417,1982l363 14 407 -14 7639 0c-504,-941 -928,-1982 -1288,-3112 -345,-1138 -512,-2447 -512,-3935 0,-1742 276,-3467 858,-5178 582,-1699 1432,-3209 2561,-4517 1121,-1309 2495,-2382 4128,-3209 1624,-827 3523,-1252 5682,-1252 2472,0 4482,447 6049,1353 1554,893 2797,2035 3712,3423 919,1383 1554,2906 1904,4583 346,1667 525,3309 525,4933l0 12480 -31258 0zm-34051 -11867c0,-972 -131,-1944 -424,-2894 -281,-954 -705,-1781 -1274,-2495 -569,-704 -1252,-1274 -2049,-1698 -805,-429 -1733,-639 -2806,-639 -1877,0 -3602,827 -5178,2495 -1567,1655 -3042,4561 -4417,8711 1655,1072 3301,1935 4934,2582 1619,661 3287,985 4999,985 1877,0 3375,-538 4517,-1598 1129,-1077 1698,-2889 1698,-5449zm-68171 11867c-1747,0 -3366,-202 -4868,-604 -1497,-403 -2792,-1064 -3900,-1979 -1099,-919 -1970,-2136 -2618,-3660 -647,-1518 -963,-3387 -963,-5624 0,-1786 281,-3546 863,-5266 582,-1734 1431,-3266 2539,-4610 1116,-1339 2504,-2411 4158,-3217 1668,-818 3568,-1221 5703,-1221 2382,0 4387,438 6019,1309 1620,871 2929,2079 3914,3624 984,1541 1689,3375 2114,5502 424,2136 635,4474 635,7035l0 6285c0,3366 -447,6107 -1340,8230 -897,2114 -2171,3790 -3826,5020 -1645,1244 -3681,2080 -6093,2526 -2407,451 -5112,674 -8111,674l-2819 0 0 -5572 2070 0c2137,0 4093,-88 5862,-267 1777,-166 3300,-569 4574,-1208 1274,-635 2268,-1554 2985,-2749 705,-1208 1064,-2832 1064,-4889l0 -1274c-805,503 -1856,949 -3143,1344 -1300,389 -2897,591 -4819,591zm-6982 -12480c0,2548 683,4373 2048,5467 1366,1094 3187,1646 5459,1646 1698,0 3195,-223 4504,-683 1300,-447 2272,-928 2933,-1453l0 -2495c0,-1519 -123,-2963 -359,-4308 -245,-1339 -648,-2490 -1230,-3453 -582,-963 -1344,-1725 -2281,-2281 -941,-547 -2083,-827 -3436,-827 -1374,0 -2547,267 -3510,806 -963,525 -1743,1194 -2360,2009 -604,805 -1063,1702 -1344,2687 -275,981 -424,1944 -424,2885zm-52243 6911l10598 0c-438,-639 -862,-1531 -1274,-2683 -416,-1164 -626,-2595 -626,-4298 0,-2311 547,-4496 1619,-6540 1086,-2035 2741,-3467 4964,-4272 -893,0 -1786,13 -2683,35 -893,22 -1812,53 -2749,101l0 -5012c4863,-267 9236,-44 13119,669 3878,705 7143,1992 9796,3848 2648,1856 4684,4338 6093,7450 1410,3121 2114,6899 2114,11350l0 4921 -40966 0 -88 0 -83 0 -1659 0c-1445,0 -2753,-145 -3927,-447 -1186,-293 -2179,-797 -3020,-1502 -827,-713 -1475,-1663 -1948,-2849 -468,-1195 -704,-2683 -704,-4474l0 -38625 5502 0 0 37150c0,1878 302,3209 884,3992 595,793 1891,1186 3905,1186l963 0 87 0 83 0zm18761 0c941,0 1721,-236 2360,-704 626,-473 1129,-1051 1488,-1733 359,-696 604,-1454 735,-2281 123,-832 193,-1602 193,-2329 0,-985 -92,-1934 -259,-2849 -179,-920 -468,-1734 -870,-2460 -403,-718 -920,-1279 -1554,-1668 -639,-390 -1401,-591 -2294,-591 -1576,0 -2797,713 -3660,2145 -857,1431 -1282,3287 -1282,5559 0,805 66,1611 223,2425 158,805 425,1532 806,2171 381,648 871,1186 1475,1611 591,424 1365,656 2302,704l337 0zm16573 0c0,-4788 -972,-8478 -2920,-11074 -1943,-2604 -4583,-4417 -7927,-5445 770,595 1387,1287 1869,2070 477,784 880,1589 1195,2403 324,828 538,1646 639,2474 109,835 166,1610 166,2324 0,1711 -158,3156 -459,4329 -302,1186 -670,2158 -1086,2919l8523 0zm-95311 3769c0,1742 280,3345 836,4798 560,1453 1501,2705 2819,3747 1322,1050 3064,1864 5244,2447 2171,582 4867,862 8076,862 2315,0 4539,-171 6667,-503 2136,-337 4013,-819 5646,-1445 1642,-626 2942,-1388 3900,-2302 963,-919 1445,-1957 1445,-3121 0,-1029 -337,-1891 -1020,-2583 -670,-704 -1957,-1519 -3834,-2460 -1331,-683 -2570,-1374 -3713,-2079 -1151,-705 -2135,-1502 -2954,-2372 -814,-885 -1475,-1856 -1979,-2951 -503,-1099 -748,-2385 -748,-3869 0,-1703 302,-3423 919,-5157 604,-1733 1519,-3309 2749,-4718 1221,-1410 2753,-2552 4587,-3424 1834,-870 4001,-1308 6518,-1308 1488,0 2797,166 3927,503 1138,337 1799,547 1965,639l0 5634c-893,-254 -1865,-482 -2906,-670 -1051,-188 -2093,-280 -3122,-280 -1484,0 -2792,236 -3922,704 -1142,469 -2083,1086 -2819,1857 -748,761 -1308,1610 -1676,2551 -372,937 -560,1878 -560,2815 0,898 166,1668 490,2316 337,639 783,1230 1366,1768 582,538 1252,1029 2013,1475 771,447 1598,920 2495,1423 1532,849 2806,1632 3835,2346 1015,705 1834,1401 2438,2079 604,674 1037,1357 1309,2049 267,683 411,1431 411,2237 0,1877 -425,3690 -1287,5445 -849,1747 -2210,3287 -4093,4631 -1877,1340 -4302,2425 -7266,3243 -2976,828 -6566,1231 -10781,1231 -4215,0 -7752,-403 -10615,-1231 -2862,-818 -5165,-1956 -6898,-3422 -1734,-1467 -2986,-3187 -3748,-5179 -770,-1991 -1151,-4158 -1151,-6517l0 -10024 5437 0 0 8815zm-44639 -3769l10374 0 0 -20253 5502 0 0 25822 -15872 0 -88 0 -83 0 -1659 0c-1444,0 -2753,-145 -3926,-447 -1186,-293 -2180,-797 -3021,-1502 -827,-713 -1475,-1663 -1948,-2849 -468,-1195 -704,-2683 -704,-4474l0 -38625 5502 0 0 37150c0,1878 302,3209 884,3992 596,793 1891,1186 3905,1186l963 0 87 0 84 0zm4412 -31546c0,-985 346,-1826 1051,-2509 695,-691 1531,-1037 2516,-1037 985,0 1821,346 2504,1037 696,683 1042,1524 1042,2509 0,980 -346,1820 -1042,2512 -683,705 -1519,1055 -2504,1055 -985,0 -1821,-350 -2516,-1055 -705,-692 -1051,-1532 -1051,-2512zm8711 0c0,-985 358,-1826 1050,-2509 705,-691 1545,-1037 2530,-1037 972,0 1812,346 2504,1037 683,683 1029,1524 1029,2509 0,980 -346,1820 -1029,2512 -692,705 -1532,1055 -2504,1055 -985,0 -1825,-350 -2530,-1055 -692,-692 -1050,-1532 -1050,-2512zm-39352 14637l5436 0 0 18709c0,3322 -192,6106 -568,8378 -395,2258 -1108,4080 -2185,5467 -1072,1388 -2560,2394 -4460,3007 -1900,626 -4351,941 -7372,941l0 -5572c2185,0 3896,-232 5135,-705 1230,-468 2158,-1230 2762,-2280 617,-1038 972,-2390 1086,-4023 109,-1646 166,-3616 166,-5927l0 -17995zm-827 -14637c0,-985 359,-1826 1050,-2509 705,-691 1545,-1037 2530,-1037 985,0 1813,346 2504,1037 683,683 1029,1524 1029,2509 0,980 -346,1820 -1029,2512 -691,705 -1519,1055 -2504,1055 -985,0 -1825,-350 -2530,-1055 -691,-692 -1050,-1532 -1050,-2512zm-24728 15789c-1116,0 -2144,258 -3085,770 -942,516 -1747,1199 -2417,2048 -683,850 -1208,1834 -1575,2942 -368,1116 -561,2289 -561,3545 0,1195 201,2237 596,3130 389,885 936,1598 1632,2158 705,560 1510,950 2425,1195 919,237 1891,359 2920,359 937,0 1869,-101 2784,-289 919,-201 1733,-560 2460,-1064 718,-516 1295,-1186 1733,-2022 438,-832 661,-1891 661,-3178 0,-1488 -214,-2805 -626,-3957 -416,-1164 -976,-2171 -1676,-3020 -696,-849 -1502,-1501 -2417,-1948 -919,-446 -1868,-669 -2854,-669zm-12681 9861c0,-1798 289,-3598 872,-5410 573,-1812 1431,-3458 2552,-4933 1129,-1475 2481,-2661 4057,-3576 1589,-933 3388,-1388 5393,-1388 1755,0 3375,346 4863,1038 1497,682 2819,1689 3970,3011 1143,1318 2045,2928 2684,4798 648,1877 972,4036 972,6460 0,1480 -233,2920 -705,4316 -469,1401 -1230,2653 -2281,3760 -1050,1095 -2394,1992 -4027,2684 -1641,682 -3598,1029 -5870,1029 -1878,0 -3576,-237 -5086,-705 -1524,-469 -2832,-1195 -3940,-2180 -1103,-972 -1956,-2202 -2547,-3682 -604,-1475 -907,-3217 -907,-5222zm-4687 -36432l0 47897 -5503 0 0 -47897 5503 0zm-54056 46097c0,1742 281,3345 837,4798 560,1453 1501,2705 2819,3747 1322,1050 3064,1864 5244,2447 2171,582 4867,862 8076,862 2315,0 4539,-171 6666,-503 2136,-337 4014,-819 5647,-1445 1641,-626 2941,-1388 3900,-2302 963,-919 1445,-1957 1445,-3121 0,-1029 -337,-1891 -1021,-2583 -669,-704 -1956,-1519 -3834,-2460 -1331,-683 -2569,-1374 -3712,-2079 -1151,-705 -2136,-1502 -2954,-2372 -815,-885 -1476,-1856 -1979,-2951 -503,-1099 -749,-2385 -749,-3869 0,-1703 302,-3423 920,-5157 604,-1733 1519,-3309 2749,-4718 1221,-1410 2753,-2552 4587,-3424 1834,-870 4001,-1308 6518,-1308 1488,0 2797,166 3926,503 1138,337 1799,547 1965,639l0 5634c-892,-254 -1864,-482 -2906,-670 -1051,-188 -2092,-280 -3121,-280 -1484,0 -2793,236 -3922,704 -1142,469 -2084,1086 -2819,1857 -748,761 -1309,1610 -1676,2551 -372,937 -561,1878 -561,2815 0,898 166,1668 490,2316 337,639 784,1230 1366,1768 583,538 1252,1029 2014,1475 770,447 1598,920 2495,1423 1532,849 2806,1632 3835,2346 1015,705 1833,1401 2437,2079 605,674 1038,1357 1309,2049 267,683 412,1431 412,2237 0,1877 -425,3690 -1287,5445 -849,1747 -2211,3287 -4093,4631 -1878,1340 -4303,2425 -7266,3243 -2977,828 -6566,1231 -10781,1231 -4216,0 -7753,-403 -10615,-1231 -2863,-818 -5165,-1956 -6899,-3422 -1733,-1467 -2985,-3187 -3747,-5179 -770,-1991 -1151,-4158 -1151,-6517l0 -10024 5436 0 0 8815zm409709 -108827l0 -21825 10107 0 0 30715 -18827 0 -48 0 -48 0 -75 0 -74 0 -75 0 -3015 0c-1765,0 -3371,-193 -4824,-578 -1454,-398 -2714,-1042 -3769,-1930 -1055,-889 -1878,-2084 -2469,-3576 -595,-1493 -888,-3345 -888,-5555l0 -43453 10032 0 0 42048c0,1816 320,2959 950,3436 644,477 1559,718 2740,718l1248 0 48 0 48 0 48 0 75 0 74 0 74 0 8668 0zm-1261 21623c0,-1479 538,-2766 1619,-3843 1082,-1081 2364,-1624 3883,-1624 1480,0 2754,543 3835,1624 1081,1077 1619,2364 1619,3843 0,1480 -538,2767 -1619,3848 -1081,1081 -2355,1620 -3835,1620 -1492,0 -2779,-539 -3869,-1620 -1095,-1081 -1633,-2368 -1633,-3848zm-109603 -21623c1130,0 2071,-22 2802,-75 748,-52 1353,-206 1816,-450 465,-259 797,-631 1016,-1121 219,-486 319,-1169 319,-2057l0 -14726 9880 0 0 13119c0,1646 438,2946 1339,3896 889,941 2290,1414 4194,1414 1493,0 2762,-228 3830,-679 1068,-451 1598,-1453 1598,-3024l0 -14726 10019 0 0 13119c0,3537 1532,5310 4566,5310l4784 0 0 -21825 10020 0 0 30715 -11793 0c-2740,0 -4797,-319 -6202,-963 -1388,-643 -2557,-1650 -3524,-3038 -770,989 -1607,1738 -2482,2263 -875,530 -1786,928 -2714,1200 -928,254 -1838,411 -2727,459 -902,53 -1751,79 -2587,79 -2609,0 -4810,-424 -6596,-1287 -1777,-849 -3051,-1747 -3808,-2714 -1375,1812 -3178,2933 -5402,3358 -2224,424 -5056,643 -8501,643l-2915 0 -48 0 -48 0 -75 0 -74 0 -11175 0 -48 0 -49 0 -74 0 -75 0 -11135 0 -48 0 -48 0 -31 0 -9 0 -26 0 -31 0 -17 0 -18 0 -66 -4 -34 0 -31 0 -4 -5 -35 0 -35 0 0 -4 -35 0 -36 0 -4 -4 -35 0 -35 0 0 -5 -114 -9 -30 0 -9 -4 -276 -31 0 -4 -127 -17 -13 0 -26 -9 -35 -5 -5 0 -4 0 -44 -9 -22 -4 -22 -4c-459,-75 -980,-193 -1584,-359 -1182,-307 -2211,-976 -3086,-2005 -53,3484 -464,6404 -1221,8759 -771,2342 -1931,4246 -3472,5686 -1545,1440 -3501,2482 -5852,3086 -2368,617 -5209,950 -8518,1002l0 -9415c2110,-48 3782,-293 5029,-744 1235,-438 2176,-1081 2793,-1957 604,-862 1002,-1978 1182,-3357 179,-1362 258,-3007 258,-4912l0 -22985 9954 0 0 13119c0,2005 609,3397 1830,4154 1168,736 2403,1125 3712,1156l48 0 8 0 40 0 22 0 26 0 40 0 74 0 74 0 11088 0 48 0 48 0 48 0 75 0 74 0 11127 0 48 0 49 0 48 0 74 0 75 0 3015 0zm-67011 -35163c0,-1479 538,-2766 1620,-3860 1081,-1095 2381,-1647 3887,-1647 1479,0 2761,539 3843,1620 1081,1081 1619,2381 1619,3887 0,1480 -538,2762 -1619,3843 -1082,1082 -2364,1620 -3843,1620 -1480,0 -2767,-538 -3861,-1620 -1095,-1081 -1646,-2363 -1646,-3843zm722 35163l0 -21825 10107 0 0 30715 -18901 0 -48 0 -48 0 -75 0 -74 0 -11175 0 -48 0 -48 0 -75 0 -74 0 -11175 0 -49 0 -48 0 -70 0 -4 0 -66 0 -9 0 -56 0c-1397,-13 -2596,-87 -3599,-232 -1054,-140 -1969,-372 -2740,-696 -761,-306 -1479,-705 -2162,-1208 -683,-486 -1374,-1055 -2071,-1712 -1479,1712 -3085,2780 -4823,3205 -1738,424 -3603,643 -5621,643l-13416 0 0 -8890 15268 0c1221,0 2149,-193 2753,-565 604,-385 902,-836 902,-1361 0,-583 -245,-1274 -735,-2084 -491,-823 -1401,-2188 -2741,-4093l-7034 -10404 9184 -5879 9275 15679c976,1660 1825,3051 2543,4181 723,1133 1366,2031 1957,2687 591,670 1147,1147 1659,1419 486,262 989,402 1501,420l9 0 44 0 4 0 48 0 40 0 35 0 39 0 35 0 11127 0 48 0 48 0 49 0 74 0 75 0 11126 0 49 0 48 0 48 0 74 0 75 0 8741 0zm-93805 21855c0,-1479 539,-2766 1620,-3847 1081,-1077 2368,-1620 3848,-1620 1479,0 2766,543 3843,1620 1081,1081 1623,2368 1623,3847 0,1480 -542,2767 -1623,3848 -1077,1077 -2364,1620 -3843,1620 -1480,0 -2767,-543 -3848,-1620 -1081,-1081 -1620,-2368 -1620,-3848zm12554 0c0,-1479 539,-2766 1620,-3847 1081,-1077 2381,-1620 3887,-1620 1475,0 2762,543 3843,1620 1081,1081 1620,2368 1620,3847 0,1480 -539,2767 -1620,3848 -1081,1077 -2368,1620 -3843,1620 -1480,0 -2780,-543 -3874,-1620 -1094,-1081 -1633,-2368 -1633,-3848zm-67488 11193c0,-1479 538,-2766 1619,-3847 1081,-1082 2368,-1620 3874,-1620 1488,0 2762,538 3843,1620 1081,1081 1620,2368 1620,3847 0,1475 -539,2762 -1620,3843 -1081,1082 -2355,1620 -3843,1620 -1480,0 -2767,-538 -3861,-1620 -1094,-1081 -1632,-2368 -1632,-3843zm-6304 -11193c0,-1479 539,-2766 1620,-3847 1081,-1077 2368,-1620 3847,-1620 1480,0 2767,543 3844,1620 1081,1081 1624,2368 1624,3847 0,1480 -543,2767 -1624,3848 -1077,1077 -2364,1620 -3844,1620 -1479,0 -2766,-543 -3847,-1620 -1081,-1081 -1620,-2368 -1620,-3848zm12554 0c0,-1479 539,-2766 1620,-3847 1081,-1077 2368,-1620 3887,-1620 1479,0 2762,543 3843,1620 1081,1081 1624,2368 1624,3847 0,1480 -543,2767 -1624,3848 -1081,1077 -2364,1620 -3843,1620 -1493,0 -2780,-543 -3874,-1620 -1094,-1081 -1633,-2368 -1633,-3848z"/>
  </g>
 </g>
</svg>
