<?xml version="1.0" encoding="UTF-8"?>
<!DOCTYPE svg PUBLIC "-//W3C//DTD SVG 1.1//EN" "http://www.w3.org/Graphics/SVG/1.1/DTD/svg11.dtd">
<!-- Creator: CorelDRAW X7 -->
<svg xmlns="http://www.w3.org/2000/svg" xml:space="preserve" width="0.849055in" height="0.849055in" version="1.1" style="shape-rendering:geometricPrecision; text-rendering:geometricPrecision; image-rendering:optimizeQuality; fill-rule:evenodd; clip-rule:evenodd"
viewBox="0 0 8491 8491"
 xmlns:xlink="http://www.w3.org/1999/xlink">
 <defs>
  <style type="text/css">
   <![CDATA[
    .fil0 {fill:#75613D}
    .fil1 {fill:white}
   ]]>
  </style>
 </defs>
 <g id="Layer_x0020_1">
  <metadata id="CorelCorpID_0Corel-Layer"/>
  <g id="_2598438598256">
   <path class="fil0" d="M8491 4245c0,2345 -1901,4246 -4246,4246 -2344,0 -4245,-1901 -4245,-4246 0,-2344 1901,-4245 4245,-4245 2345,0 4246,1901 4246,4245z"/>
   <path class="fil1" d="M6846 3051c-182,81 -378,135 -583,160 209,-126 370,-325 446,-562 -196,116 -413,201 -644,247 -185,-198 -449,-321 -741,-321 -561,0 -1015,455 -1015,1015 0,79 9,157 26,231 -843,-42 -1591,-446 -2091,-1060 -88,150 -137,324 -137,510 0,352 179,663 451,845 -167,-6 -323,-51 -460,-128 0,5 0,9 0,13 0,492 350,902 814,995 -85,23 -175,36 -267,36 -65,0 -129,-6 -191,-18 129,403 504,696 948,704 -347,273 -785,435 -1260,435 -82,0 -163,-5 -242,-14 449,287 982,456 1555,456 1866,0 2887,-1547 2887,-2888 0,-44 -1,-87 -3,-131 199,-143 371,-322 507,-525z"/>
  </g>
 </g>
</svg>
