<?xml version="1.0" encoding="UTF-8"?>
<!DOCTYPE svg PUBLIC "-//W3C//DTD SVG 1.1//EN" "http://www.w3.org/Graphics/SVG/1.1/DTD/svg11.dtd">
<!-- Creator: CorelDRAW X7 -->
<svg xmlns="http://www.w3.org/2000/svg" xml:space="preserve" width="27.1654in" height="18.2663in" version="1.1" style="shape-rendering:geometricPrecision; text-rendering:geometricPrecision; image-rendering:optimizeQuality; fill-rule:evenodd; clip-rule:evenodd"
viewBox="0 0 271654 182663"
 xmlns:xlink="http://www.w3.org/1999/xlink">
 <defs>
  <style type="text/css">
   <![CDATA[
    .fil1 {fill:#EDDFC4}
    .fil2 {fill:#F3E9D8}
    .fil0 {fill:#F6EFE2}
    .fil3 {fill:#F8F2E8}
   ]]>
  </style>
 </defs>
 <g id="Layer_x0020_1">
  <metadata id="CorelCorpID_0Corel-Layer"/>
  <g id="_2596399157008">
   <path class="fil0" d="M271654 54590c-44193,23355 -113252,8832 -114111,-54590l8854 0c8121,38356 63094,58021 105257,48744l0 5846z"/>
   <path class="fil0" d="M271654 133745c-99254,-46523 -170405,111508 -271654,19671l0 -97255c24188,41894 57270,59592 93479,63624 67858,7558 121119,-21601 178175,8114l0 5846z"/>
   <path class="fil1" d="M271654 128940c-26508,-13805 -52359,-11774 -79246,-6399 -31858,6368 -64109,14589 -94398,13095 -47422,-2340 -80980,-30985 -98010,-73809l0 -61827 157543 0c5525,54755 68585,69183 114111,54494l0 74446z"/>
   <path class="fil2" d="M125716 38134c4929,11542 -6725,20188 -20181,22678 -27499,5090 -43638,-27963 -36578,-37202 6780,-8873 47796,-6460 56759,14524z"/>
   <path class="fil3" d="M240313 135731c5150,6796 -175,15218 -7753,19837 -15486,9440 -31446,-9582 -28983,-17411 2365,-7519 27371,-14780 36736,-2426z"/>
   <path class="fil3" d="M198731 147759c2388,0 4323,1700 4323,3796 0,2096 -1935,3796 -4323,3796 -2387,0 -4323,-1700 -4323,-3796 0,-2096 1936,-3796 4323,-3796z"/>
  </g>
 </g>
</svg>
