<?xml version="1.0" encoding="UTF-8"?>
<!DOCTYPE svg PUBLIC "-//W3C//DTD SVG 1.1//EN" "http://www.w3.org/Graphics/SVG/1.1/DTD/svg11.dtd">
<!-- Creator: CorelDRAW X7 -->
<svg xmlns="http://www.w3.org/2000/svg" xml:space="preserve" width="27.1654in" height="22.1236in" version="1.1" style="shape-rendering:geometricPrecision; text-rendering:geometricPrecision; image-rendering:optimizeQuality; fill-rule:evenodd; clip-rule:evenodd"
viewBox="0 0 271654 221236"
 xmlns:xlink="http://www.w3.org/1999/xlink">
 <defs>
  <style type="text/css">
   <![CDATA[
    .fil2 {fill:#EDDFC4}
    .fil1 {fill:#F6EFE2}
    .fil0 {fill:white}
   ]]>
  </style>
 </defs>
 <g id="Layer_x0020_1">
  <metadata id="CorelCorpID_0Corel-Layer"/>
  <g id="_2598087394720">
   <path class="fil0" d="M271654 133745c-99254,-46522 -170405,111509 -271654,19671l0 67820 271654 0 0 -87491z"/>
   <path class="fil1" d="M166397 0c8121,38356 63094,58021 105257,48744l0 85001c-99254,-46522 -170405,111509 -271654,19671l0 -153416 166397 0z"/>
   <path class="fil2" d="M0 61828c17030,42823 50588,71468 98010,73808 30289,1495 62540,-6727 94398,-13095 26887,-5375 52738,-7406 79246,6399l0 -74350 0 -96c-45526,14689 -108586,261 -114111,-54494l-157543 0 0 56161 0 5667z"/>
  </g>
 </g>
</svg>
