<?xml version="1.0" encoding="UTF-8"?>
<!DOCTYPE svg PUBLIC "-//W3C//DTD SVG 1.1//EN" "http://www.w3.org/Graphics/SVG/1.1/DTD/svg11.dtd">
<!-- Creator: CorelDRAW X7 -->
<svg xmlns="http://www.w3.org/2000/svg" xml:space="preserve" width="0.638189in" height="0.638189in" version="1.1" style="shape-rendering:geometricPrecision; text-rendering:geometricPrecision; image-rendering:optimizeQuality; fill-rule:evenodd; clip-rule:evenodd"
viewBox="0 0 6382 6382"
 xmlns:xlink="http://www.w3.org/1999/xlink">
 <defs>
  <style type="text/css">
   <![CDATA[
    .fil0 {fill:black}
   ]]>
  </style>
 </defs>
 <g id="Layer_x0020_1">
  <metadata id="CorelCorpID_0Corel-Layer"/>
  <path class="fil0" d="M934 934c-603,603 -934,1404 -934,2257 0,853 331,1654 934,2258 603,602 1404,934 2257,933 853,0 1653,-331 2256,-935 604,-602 935,-1403 935,-2256 1,-853 -331,-1654 -933,-2257 -603,-603 -1405,-934 -2258,-934 -853,0 -1654,331 -2257,934zm920 1687c0,719 600,1304 1340,1304 734,0 1333,-585 1333,-1304 0,-344 -139,-621 -402,-804 -474,-332 -1394,-332 -1869,0 -261,183 -402,460 -402,804l0 0zm1340 1139c-649,0 -1174,-513 -1174,-1139 0,-292 111,-516 329,-669 207,-144 495,-219 845,-219 344,0 635,75 839,219 218,153 332,377 332,669 0,626 -528,1139 -1171,1139l0 0zm0 334c-850,0 -1541,-693 -1541,-1537 0,-847 691,-1535 1541,-1535 844,0 1534,688 1534,1535 0,844 -690,1537 -1534,1537zm-1706 -1537c0,420 151,801 404,1100l-329 0c-267,0 -545,108 -742,286 -158,144 -274,330 -330,542 -191,-398 -292,-838 -292,-1294 0,-799 311,-1551 877,-2115 564,-566 1316,-877 2115,-877 800,0 1551,311 2116,877 565,564 876,1315 876,2115 0,456 -100,896 -293,1296 -55,-214 -171,-400 -329,-544 -197,-178 -475,-286 -742,-286l-329 0c253,-299 404,-680 404,-1100 0,-329 -93,-637 -256,-900 -308,-495 -862,-801 -1444,-801 -588,0 -1138,306 -1450,801 -160,263 -256,571 -256,900l0 0zm-864 2174c8,-126 31,-249 92,-375 64,-130 158,-247 270,-335 7,-5 12,-11 18,-14l5 -3c146,-111 327,-175 522,-180l3 0 0 1860c-163,-110 -317,-234 -458,-377 -176,-175 -327,-369 -452,-576l0 0zm1070 1052l0 -1197 0 -608 0 -154 84 0 141 0 136 0c283,251 650,413 1054,434l0 1924c-505,-13 -988,-151 -1415,-399zm1582 399l0 -1924c401,-21 769,-181 1054,-434l137 0 137 0 84 0 0 154 0 570 0 1235c-427,248 -908,386 -1412,399l0 0zm1575 -500l0 -1858c64,2 128,11 189,26 126,29 233,81 341,157 184,137 314,340 361,573 9,47 17,95 19,146 -125,209 -277,404 -454,581 -141,142 -294,266 -456,375l0 0z"/>
 </g>
</svg>
