<?xml version="1.0" encoding="UTF-8"?>
<!DOCTYPE svg PUBLIC "-//W3C//DTD SVG 1.1//EN" "http://www.w3.org/Graphics/SVG/1.1/DTD/svg11.dtd">
<!-- Creator: CorelDRAW X7 -->
<svg xmlns="http://www.w3.org/2000/svg" xml:space="preserve" width="2.91886in" height="0.924134in" version="1.1" style="shape-rendering:geometricPrecision; text-rendering:geometricPrecision; image-rendering:optimizeQuality; fill-rule:evenodd; clip-rule:evenodd"
viewBox="0 0 29189 9241"
 xmlns:xlink="http://www.w3.org/1999/xlink">
 <defs>
  <style type="text/css">
   <![CDATA[
    .fil3 {fill:#3D3220}
    .fil1 {fill:#AD915C}
    .fil0 {fill:white}
    .fil2 {fill:white;fill-rule:nonzero}
   ]]>
  </style>
 </defs>
 <g id="Layer_x0020_1">
  <metadata id="CorelCorpID_0Corel-Layer"/>
  <g id="_2598443101040">
   <rect class="fil0" width="29189" height="9241" rx="2831" ry="4621"/>
   <rect class="fil1" width="29189" height="9241" rx="2831" ry="4621"/>
   <path class="fil0" d="M23026 4703l0 0 0 -165 0 0 0 -19 2960 0 -1110 -1111 144 -145 1358 1358 -1358 1358 -144 -144 1111 -1113 -2961 0 0 -19zm-1593 -82c0,-873 340,-1695 957,-2312 618,-617 1438,-957 2311,-956 874,0 1694,339 2311,957 618,616 957,1438 957,2311 0,873 -339,1694 -957,2311 -617,617 -1437,957 -2311,957 -873,1 -1693,-340 -2311,-956 -617,-618 -957,-1439 -957,-2312zm6333 0c0,-819 -319,-1588 -897,-2167 -580,-578 -1349,-897 -2168,-897 -819,0 -1588,319 -2166,897 -579,579 -898,1348 -898,2167 0,819 319,1588 898,2167 578,578 1347,897 2166,897 819,0 1588,-319 2168,-897 578,-579 897,-1348 897,-2167z"/>
   <path class="fil2" d="M3016 6157c-68,0 -135,-8 -199,-25 -64,-16 -124,-39 -181,-69 -56,-31 -109,-68 -157,-112 -48,-44 -90,-94 -125,-149 -42,-67 -73,-143 -96,-225 -23,-83 -34,-169 -34,-258 0,-57 4,-113 11,-166 7,-54 18,-109 33,-165 15,-56 35,-115 60,-177 24,-61 54,-128 89,-202l292 139c-31,63 -57,119 -78,170 -21,50 -37,97 -50,142 -13,44 -22,87 -28,128 -6,41 -9,84 -9,129 0,59 8,115 23,169 14,54 34,103 61,146 41,62 96,111 164,147 68,37 142,55 224,55l264 0c91,0 166,-9 223,-28 58,-19 102,-46 134,-81 33,-35 54,-77 66,-126 12,-50 17,-104 17,-164l0 -872 323 0 0 872c0,241 -63,422 -191,542 -127,120 -318,180 -572,180l-264 0zm-27 -1696l234 -236 238 239 -236 236 -236 -239zm2033 999c-95,0 -177,-6 -245,-18 -68,-11 -126,-29 -172,-52 -47,-22 -84,-52 -113,-87 -28,-36 -49,-77 -64,-125 -14,-47 -24,-101 -29,-161 -4,-60 -7,-126 -7,-199l0 -1228 323 0 0 1228c0,69 2,125 7,166 5,41 17,74 38,96 20,23 51,38 91,46 42,7 98,11 171,11l0 323zm1615 0l-39 0c-76,0 -142,-7 -198,-22 -56,-14 -107,-34 -151,-60 -46,-25 -87,-56 -125,-91 -37,-36 -75,-76 -114,-120 -21,54 -54,100 -99,138 -46,38 -97,69 -156,92 -58,24 -121,40 -187,50 -67,10 -132,15 -197,13l-405 0 0 -323 423 0c57,0 109,-3 158,-10 48,-6 90,-17 126,-32 35,-16 63,-36 84,-61 21,-24 32,-55 35,-91 0,-38 -16,-85 -47,-142 -32,-57 -73,-120 -123,-190 -51,-71 -108,-145 -172,-223 -63,-78 -127,-158 -192,-238l55 -263 1125 -546 132 296 -984 455c81,109 162,217 243,325 81,107 162,216 243,324 48,64 91,119 131,168 40,49 80,91 120,124 40,34 82,60 126,77 44,18 94,27 149,27l39 0 0 323zm-1312 -1964l988 -430 68 146 -1073 467 17 -183zm2229 875c2,6 6,20 11,42 6,23 12,50 19,83 7,32 14,68 21,108 8,40 15,80 21,120 6,40 12,79 16,117 4,38 6,72 6,100 0,89 -15,167 -45,232 -29,65 -68,118 -115,161 -48,42 -101,74 -160,94 -59,21 -119,32 -178,32l-559 0 0 -323 568 0c10,0 25,-1 45,-5 19,-3 39,-11 58,-24 19,-12 36,-32 51,-58 15,-27 22,-63 22,-109 0,-19 -2,-42 -4,-69 -3,-27 -8,-57 -13,-88 -5,-31 -11,-63 -17,-95 -7,-33 -13,-63 -19,-92 -6,-29 -12,-55 -18,-79 -6,-24 -11,-42 -14,-55l304 -92zm-157 1795l-218 -220 215 -223 223 223 -220 220zm-544 2l-217 -221 213 -223 223 223 -219 221zm1433 -708l-322 0 0 -1870 322 0 0 1870zm1089 -79c-6,119 -27,226 -66,322 -39,95 -93,177 -161,244 -69,67 -151,118 -248,155 -97,36 -206,54 -328,54l-160 0 0 -323 160 0c83,0 155,-9 216,-26 60,-17 109,-45 148,-83 39,-38 68,-87 87,-148 19,-61 29,-135 29,-223l0 -789 323 0 0 817zm1950 469c78,0 146,-5 204,-15 57,-10 105,-27 142,-52 37,-24 65,-57 83,-99 19,-42 29,-94 29,-157 -11,-4 -31,-8 -57,-15 -27,-8 -58,-16 -94,-25 -35,-10 -74,-20 -116,-31 -42,-11 -85,-23 -128,-35 -43,-11 -86,-23 -127,-33 -43,-11 -81,-21 -116,-29 -23,-58 -40,-113 -50,-167 -11,-54 -17,-107 -17,-159 0,-99 19,-192 55,-279 36,-88 88,-165 155,-230 68,-65 150,-117 247,-155 97,-38 207,-57 329,-57 43,0 86,4 129,11 43,7 91,17 146,32l-82 311c-41,-12 -76,-21 -106,-26 -31,-6 -62,-9 -93,-9 -65,0 -126,10 -181,28 -56,19 -105,46 -145,81 -42,36 -74,79 -98,130 -24,51 -36,109 -36,173 0,6 0,11 0,17 0,5 1,11 2,16l455 117c83,21 143,56 180,105 37,50 56,111 56,185 0,120 -14,223 -42,310 -27,87 -72,159 -132,216 -62,56 -141,98 -238,125 -97,28 -215,41 -354,41l-274 0c-71,0 -139,-8 -204,-24 -64,-17 -126,-40 -183,-71 -57,-31 -109,-68 -156,-112 -48,-43 -90,-93 -126,-148 -86,-138 -128,-300 -128,-486 0,-57 4,-114 11,-170 8,-56 21,-114 37,-173 17,-59 39,-121 64,-186 27,-65 57,-135 94,-210l288 139c-31,64 -56,122 -77,175 -22,54 -39,103 -54,151 -14,47 -24,92 -31,136 -6,44 -10,87 -10,132 0,125 28,231 84,319 39,65 93,116 162,150 69,35 145,53 229,53l274 0zm2075 -390l-49 0c-36,0 -69,-3 -100,-7 -32,-4 -63,-16 -93,-36 -11,111 -36,212 -77,303 -41,91 -95,169 -163,233 -67,64 -149,114 -243,150 -94,35 -200,53 -317,53l-162 0 0 -323 162 0c82,0 154,-9 215,-26 60,-17 110,-45 149,-83 39,-38 68,-87 87,-148 19,-61 28,-135 28,-223l0 -789 323 0 0 388c0,39 9,71 25,96 17,24 37,42 59,56 22,13 43,22 64,26 21,5 35,7 43,7l49 0 0 323zm669 -1089c2,6 5,20 11,42 5,23 12,50 19,83 7,32 14,68 21,108 8,40 14,80 21,120 6,40 11,79 16,117 3,38 5,72 5,100 0,89 -14,167 -44,232 -29,65 -68,118 -115,161 -48,42 -101,74 -160,94 -60,21 -119,32 -178,32l-346 0 0 -323 355 0c10,0 25,-1 44,-5 20,-3 39,-11 58,-24 20,-12 37,-32 52,-58 14,-27 22,-63 22,-109 0,-19 -2,-42 -5,-69 -3,-27 -7,-57 -12,-88 -5,-31 -11,-63 -18,-95 -6,-33 -13,-63 -18,-92 -6,-29 -13,-55 -18,-79 -7,-24 -11,-42 -15,-55l305 -92zm-558 1541l233 -236 239 239 -237 236 -235 -239zm1616 -531c-5,119 -27,226 -66,322 -39,95 -93,177 -161,244 -68,67 -151,118 -248,155 -97,36 -206,54 -328,54l-160 0 0 -323 160 0c83,0 155,-9 216,-26 60,-17 110,-45 149,-83 39,-38 68,-87 87,-148 19,-61 28,-135 28,-223l0 -789 323 0 0 817zm958 79c-95,0 -177,-6 -245,-18 -68,-11 -126,-29 -172,-52 -47,-22 -84,-52 -112,-87 -28,-36 -50,-77 -65,-125 -14,-47 -24,-101 -29,-161 -4,-60 -7,-126 -7,-199l0 -1228 323 0 0 1228c0,69 3,125 7,166 5,41 17,74 38,96 20,23 51,38 92,46 41,7 97,11 170,11l0 323zm-57 0l0 -323 758 0c14,0 33,-1 57,-2 25,-1 48,-5 72,-10 23,-6 43,-14 60,-25 17,-11 25,-26 25,-45 0,-37 -13,-82 -42,-135 -28,-53 -64,-109 -108,-168 -44,-60 -94,-120 -149,-181 -54,-61 -109,-119 -163,-172 -54,-54 -105,-102 -152,-144 -48,-41 -86,-72 -114,-93l26 -293 1128 -516 118 283 -950 419c34,31 70,68 112,108 40,41 83,84 126,129 43,45 86,93 129,141 43,49 83,98 121,147 37,49 70,97 100,143 29,47 52,91 68,133 15,36 26,71 32,105 6,33 9,64 9,92 0,34 -4,64 -10,90 -6,26 -14,48 -21,67 -11,23 -27,49 -48,79 -22,29 -52,56 -90,81 -39,25 -87,46 -145,64 -59,17 -130,26 -212,26l-737 0z"/>
   <rect class="fil3" x="19489" y="1338" width="134" height="6566"/>
   <rect class="fil0" x="19355" y="1338" width="134" height="6566"/>
  </g>
 </g>
</svg>
