<?xml version="1.0" encoding="UTF-8"?>
<!DOCTYPE svg PUBLIC "-//W3C//DTD SVG 1.1//EN" "http://www.w3.org/Graphics/SVG/1.1/DTD/svg11.dtd">
<!-- Creator: CorelDRAW X7 -->
<svg xmlns="http://www.w3.org/2000/svg" xml:space="preserve" width="4.33004in" height="3.81031in" version="1.1" style="shape-rendering:geometricPrecision; text-rendering:geometricPrecision; image-rendering:optimizeQuality; fill-rule:evenodd; clip-rule:evenodd"
viewBox="0 0 43300 38103"
 xmlns:xlink="http://www.w3.org/1999/xlink">
 <defs>
  <style type="text/css">
   <![CDATA[
    .fil3 {fill:none}
    .fil2 {fill:#BB9B61}
    .fil0 {fill:#E1E7F3}
    .fil1 {fill:#F5F7FA}
   ]]>
  </style>
 </defs>
 <g id="Layer_x0020_1">
  <metadata id="CorelCorpID_0Corel-Layer"/>
  <g id="_2598287807120">
   <g>
    <path class="fil0" d="M10140 7622c-6752,4967 -5460,15344 -908,22713 9301,15061 29475,1713 30326,-7036 818,-8403 -17141,-24708 -29418,-15677z"/>
    <path class="fil1" d="M33160 6696c6753,4967 5460,15344 909,22713 -9302,15061 -29476,1713 -30327,-7037 -817,-8402 17141,-24707 29418,-15676z"/>
    <path class="fil2" d="M21508 11196c2377,0 4616,927 6303,2614 1677,1677 2604,3916 2604,6293 0,2378 -927,4617 -2604,6304 -1687,1677 -3926,2604 -6303,2604 -2378,0 -4617,-927 -6294,-2604 -1687,-1687 -2614,-3926 -2614,-6304 0,-2377 927,-4616 2614,-6293 1677,-1687 3916,-2614 6294,-2614zm-3715 19501l-550 0 0 -331 550 0 0 331zm-881 0l-1155 0 0 -331 1155 0 0 331zm881 -771l-550 0 0 -330 550 0 0 330zm-881 0l-715 0 0 -330 715 0 0 330zm-6636 -7704l-1816 0 0 -330 1816 0 0 330zm1156 0l-770 0 0 -330 770 0 0 330zm-1156 1871l-550 0 0 -330 550 0 0 330zm1156 0l-770 0 0 -330 770 0 0 330zm-1156 -936l-3081 0 0 -330 3081 0 0 330zm1156 0l-770 0 0 -330 770 0 0 330zm20811 -7264l1761 0 0 330 -1761 0 0 -330zm-1155 0l715 0 0 330 -715 0 0 -330zm1155 -1871l496 0 0 330 -496 0 0 -330zm-1155 0l715 0 0 330 -715 0 0 -330zm1155 936l3027 0 0 330 -3027 0 0 -330zm-1155 0l715 0 0 330 -715 0 0 -330zm-3587 -4788l495 0 0 330 -495 0 0 -330zm-1266 0l495 0 0 330 -495 0 0 -330zm1046 330l0 606 -331 0 0 -606 331 0zm0 -990l0 550 -331 0 0 -550 331 0zm-15707 7319l551 0 0 330 -551 0 0 -330zm-1265 0l550 0 0 330 -550 0 0 -330zm1045 330l0 605 -330 0 0 -605 330 0zm0 -936l0 496 -330 0 0 -496 330 0zm15244 12933l0 495 -330 0 0 -495 330 0zm0 935l0 606 -330 0 0 -606 330 0zm-1046 -330l551 0 0 330 -551 0 0 -330zm1266 0l495 0 0 330 -495 0 0 -330zm5668 -9025l551 0 0 330 -551 0 0 -330zm-1265 0l550 0 0 330 -550 0 0 -330zm1045 330l0 606 -330 0 0 -606 330 0zm0 -990l0 550 -330 0 0 -550 330 0zm-18711 7154l551 0 0 330 -551 0 0 -330zm-1265 0l550 0 0 330 -550 0 0 -330zm1100 330l0 605 -330 0 0 -605 330 0zm0 -936l0 496 -330 0 0 -496 330 0zm3062 -6999l0 5777 2406 0 0 -5777c-802,0 -1604,0 -2406,0zm487 478l1441 0 0 4821 -1441 0 0 -4821zm3361 -2884l0 8183 2415 0 0 -8183c-802,0 -1613,0 -2415,0zm487 478l1442 0 0 7227 -1442 0 0 -7227zm3370 -2892l0 10597 2406 0 0 -10597c-802,0 -1604,0 -2406,0zm478 486l1450 0 0 9633 -1450 0 0 -9633zm-9036 10721c1578,1578 3679,2446 5909,2446 2229,0 4330,-868 5908,-2446 1579,-1578 2447,-3679 2447,-5909 0,-2229 -868,-4330 -2447,-5909 -1578,-1568 -3679,-2446 -5908,-2446 -2230,0 -4331,878 -5909,2446 -1569,1579 -2437,3680 -2437,5909 0,2230 868,4331 2437,5909z"/>
   </g>
   <rect class="fil3" width="43300" height="38103"/>
  </g>
 </g>
</svg>
