<?xml version="1.0" encoding="UTF-8"?>
<!DOCTYPE svg PUBLIC "-//W3C//DTD SVG 1.1//EN" "http://www.w3.org/Graphics/SVG/1.1/DTD/svg11.dtd">
<!-- Creator: CorelDRAW X7 -->
<svg xmlns="http://www.w3.org/2000/svg" xml:space="preserve" width="27.1654in" height="9.30004in" version="1.1" style="shape-rendering:geometricPrecision; text-rendering:geometricPrecision; image-rendering:optimizeQuality; fill-rule:evenodd; clip-rule:evenodd"
viewBox="0 0 271654 93000"
 xmlns:xlink="http://www.w3.org/1999/xlink">
 <defs>
  <style type="text/css">
   <![CDATA[
    .fil11 {fill:black}
    .fil14 {fill:#5E6D8F}
    .fil3 {fill:#6C87C3}
    .fil4 {fill:#7C94CA}
    .fil26 {fill:#8480BC}
    .fil25 {fill:#8DA0D1}
    .fil13 {fill:#A6B7DE}
    .fil27 {fill:#CFD8ED}
    .fil10 {fill:#D2AE6D}
    .fil22 {fill:#DABA76}
    .fil1 {fill:#DCC08D}
    .fil31 {fill:#E1E7F4}
    .fil5 {fill:#E5CBA4}
    .fil28 {fill:#E5CFAA}
    .fil0 {fill:#E6D2AE}
    .fil2 {fill:#F6EFE2}
    .fil23 {fill:#FF6600}
    .fil12 {fill:white}
    .fil30 {fill:white}
    .fil9 {fill:black;fill-rule:nonzero}
    .fil20 {fill:#6C87C3;fill-rule:nonzero}
    .fil18 {fill:#7C94CA;fill-rule:nonzero}
    .fil21 {fill:#8DA0D1;fill-rule:nonzero}
    .fil17 {fill:#A9B9DB;fill-rule:nonzero}
    .fil7 {fill:#D2AE6D;fill-rule:nonzero}
    .fil8 {fill:#D7B77D;fill-rule:nonzero}
    .fil24 {fill:#E1E7F4;fill-rule:nonzero}
    .fil6 {fill:#E6D2AE;fill-rule:nonzero}
    .fil15 {fill:#EDDFC4;fill-rule:nonzero}
    .fil19 {fill:#EFF2F8;fill-rule:nonzero}
    .fil16 {fill:#FBF7F0;fill-rule:nonzero}
    .fil29 {fill:white;fill-rule:nonzero}
   ]]>
  </style>
 </defs>
 <g id="Layer_x0020_1">
  <metadata id="CorelCorpID_0Corel-Layer"/>
  <g id="_2596533713024">
   <path class="fil0" d="M271654 67032c-88247,-4439 -172377,2671 -254406,4618 12039,328 23195,3108 34657,4853 10465,1594 16819,3509 24553,5601 55958,15143 76368,12751 131168,3454 11066,-1877 22346,-3410 34156,-3622 11480,-205 22761,494 29872,2875l0 -17779z"/>
   <path class="fil1" d="M0 7902l0 67756c23326,-1666 43849,-1100 64573,2845 116361,22151 130174,-14048 207081,-10179l0 -56872c-42010,-13960 -84486,-16011 -126915,-1395 -16542,5698 -31498,11608 -45389,11367 -37387,-647 -58628,-20998 -99350,-13522z"/>
   <path class="fil2" d="M12603 33332c4813,-445 9945,6856 11437,16271 1491,9416 -1210,17437 -6025,17880 -4812,442 -9944,-6856 -11435,-16272 -1492,-9415 1209,-17437 6023,-17879zm-2221 -10648l0 0zm1241 52325c4449,-173 8808,-252 13100,-226 4098,-4863 5917,-14721 4166,-25766 -2417,-15236 -10719,-27050 -18507,-26333 -6019,555 -9998,8429 -10382,19006l0 3440c75,2094 280,4268 634,6491 1632,10297 5953,19029 10989,23388z"/>
   <path class="fil3" d="M11785 6439c10506,5511 20485,22109 23691,42333 1519,9582 1303,18641 -244,26292 1154,56 2305,120 3452,193 427,27 853,56 1279,85 201,-1384 364,-2793 491,-4217 632,-7124 327,-14595 -905,-22205 -1232,-7612 -3318,-14915 -6200,-21705 -1386,-3261 -2952,-6386 -4656,-9286 -981,-1668 -2011,-3269 -3082,-4790 -773,-1098 -1568,-2154 -2380,-3163 -200,-249 -402,-496 -605,-740 -861,-1035 -1743,-2021 -2643,-2952 -541,-14 -1085,-23 -1633,-27 -2135,-17 -4321,41 -6565,182z"/>
   <path class="fil2" d="M35476 48772c-3206,-20224 -13185,-36822 -23691,-42333 -3754,236 -7670,707 -11785,1463l0 8568c2057,-2169 4411,-3390 6995,-3629 2593,-239 5267,523 7947,2264 2586,1683 5069,4201 7379,7488 2311,3286 4332,7176 6009,11561 1737,4544 3025,9416 3829,14485 802,5070 1074,10039 806,14765 -240,4219 -897,8080 -1955,11493 1413,43 2820,99 4222,167 1547,-7651 1763,-16710 244,-26292z"/>
   <path class="fil4" d="M10382 22684l0 0zm-10382 19006c384,-10577 4363,-18451 10382,-19006 7788,-717 16090,11097 18507,26333 1751,11045 -68,20903 -4166,25766 2111,12 4206,50 6287,114 1058,-3413 1715,-7274 1955,-11493 268,-4726 -4,-9695 -806,-14765 -804,-5069 -2092,-9941 -3829,-14485 -1677,-4385 -3698,-8275 -6009,-11561 -2310,-3287 -4793,-5805 -7379,-7488 -2680,-1741 -5354,-2503 -7947,-2264 -2584,239 -4938,1460 -6995,3629l0 25220z"/>
   <path class="fil4" d="M1831 75531c3317,-221 6578,-396 9792,-522 -5036,-4359 -9357,-13091 -10989,-23388 -354,-2223 -559,-4397 -634,-6491l0 27067 0 3461c612,-44 1223,-86 1831,-127z"/>
   <path class="fil5" d="M77486 74098c0,0 11092,3317 10846,-3722 0,0 -163,-5133 -6585,-2126 0,0 -232,-6973 -5782,-6468 -5551,509 -7478,1359 -7478,1359 0,0 177,-1975 -2114,-3093 -3415,-1669 -8629,-196 -8629,-196 0,0 -3635,935 -3187,3783 514,3310 1978,2375 6509,2453 0,0 13197,12656 16420,8010l0 0z"/>
   <g>
    <g id="_2425988439968">
     <path class="fil6" d="M161870 81389c0,3364 -2694,6058 -6055,6058 -3339,0 -6034,-2694 -6034,-6058 0,-3337 2695,-6031 6034,-6031 3361,0 6055,2694 6055,6031z"/>
     <path class="fil7" d="M151141 85247c-840,-1064 -1359,-2398 -1359,-3858 0,-3337 2694,-6031 6033,-6031 1879,0 3534,841 4645,2150 0,0 -4573,-1731 -7365,1064 -2819,2817 -1954,6675 -1954,6675l0 0 0 0z"/>
     <path class="fil8" d="M159226 83639c519,0 519,815 0,815 -544,0 -544,-815 0,-815z"/>
     <path class="fil8" d="M159497 79981c544,0 544,816 0,816 -519,0 -519,-816 0,-816z"/>
     <path class="fil8" d="M153860 85171c76,-97 173,-198 271,-270 151,-173 422,-173 595,0 148,148 148,418 0,566 -98,101 -198,199 -296,274 -148,173 -422,173 -570,0 -173,-148 -173,-422 0,-570l0 0 0 0z"/>
    </g>
   </g>
   <g>
    <g id="_2425989898016">
     <path class="fil6" d="M254793 52957c998,-1729 3220,-2324 4950,-1326 1730,999 2315,3215 1317,4944 -998,1728 -3205,2320 -4935,1322 -1729,-998 -2329,-3212 -1332,-4940z"/>
     <path class="fil7" d="M261493 54177c137,799 5,1638 -433,2398 -998,1728 -3205,2320 -4935,1322 -969,-560 -1576,-1496 -1756,-2513 0,0 1836,2267 4131,1652 2294,-614 2993,-2859 2993,-2859l0 0z"/>
     <path class="fil7" d="M256403 56191c56,-15 115,-30 173,-47 86,-22 144,-123 121,-209 -32,-92 -124,-145 -219,-127 -59,15 -107,35 -159,42 -92,32 -150,134 -127,219 23,87 124,145 211,122l0 0z"/>
     <path class="fil7" d="M257651 52107c-201,-117 -381,194 -179,311 192,110 371,-201 179,-311z"/>
     <path class="fil7" d="M259101 55384l-110 -64c-129,-75 -244,127 -115,201l108 63c129,74 246,-127 117,-200z"/>
     <path class="fil7" d="M258169 55541c-256,-149 -495,262 -237,411 264,154 503,-259 237,-411z"/>
     <path class="fil7" d="M257226 53728c-456,-264 -869,449 -411,713 458,264 869,-449 411,-713z"/>
    </g>
   </g>
   <g>
    <path class="fil9" d="M204085 36849c-123,0 -249,-20 -374,-62 -125,-40 -227,-130 -306,-267 -53,75 -115,132 -185,177 -70,43 -147,78 -229,100 -84,22 -169,35 -257,42 -89,6 -176,10 -263,10l-2846 0c-254,0 -468,-19 -641,-55 -174,-37 -313,-97 -415,-179 -103,-82 -177,-189 -220,-318 -44,-130 -66,-287 -66,-473l0 -1071 843 0 0 956c0,87 11,154 33,204 23,50 62,90 117,119 55,30 132,48 227,58 94,8 216,12 363,12l2470 0c147,0 251,-22 309,-67 57,-47 85,-149 85,-306l0 -1460 837 0 0 1387c0,160 34,275 101,342 68,70 207,104 417,104 34,0 67,3 97,11 32,7 59,22 84,46 23,23 42,58 55,105 12,48 18,113 18,195 0,147 -21,251 -61,306 -42,55 -106,84 -192,84l-1 0zm-3586 2028c0,-123 45,-232 137,-322 91,-90 199,-135 325,-135 125,0 232,45 324,135 90,90 135,199 135,322 0,126 -45,233 -135,325 -92,90 -199,135 -324,135 -124,0 -233,-45 -325,-135 -92,-92 -137,-199 -137,-325zm-528 -939c0,-123 45,-232 136,-322 90,-92 198,-137 322,-137 125,0 232,45 324,137 91,90 136,199 136,322 0,124 -45,233 -136,323 -92,92 -199,137 -324,137 -124,0 -232,-45 -322,-137 -91,-90 -136,-199 -136,-323zm1055 0c0,-123 45,-232 135,-322 90,-92 199,-137 326,-137 125,0 232,45 324,137 90,90 135,199 135,322 0,124 -45,233 -135,323 -92,92 -199,137 -324,137 -125,0 -232,-45 -324,-137 -92,-90 -137,-199 -137,-323zm3056 -1089c-33,0 -65,-4 -95,-10 -32,-7 -59,-22 -84,-49 -23,-26 -41,-63 -55,-110 -13,-49 -18,-114 -18,-196 0,-147 20,-249 62,-305 40,-56 105,-82 190,-82l1026 0 0 -1828 847 0 0 2580 -1873 0 0 0zm74 1089c0,-123 45,-232 135,-322 90,-92 199,-137 323,-137 125,0 232,45 324,137 90,90 135,199 135,322 0,124 -45,233 -135,323 -92,92 -199,137 -324,137 -124,0 -233,-45 -323,-137 -90,-90 -135,-199 -135,-323zm1054 0c0,-123 45,-232 135,-322 91,-92 201,-137 326,-137 126,0 233,45 325,137 90,90 135,199 135,322 0,124 -45,233 -135,323 -92,92 -199,137 -325,137 -123,0 -232,-45 -324,-137 -92,-90 -137,-199 -137,-323zm4159 -1089c-125,0 -232,-7 -320,-19 -89,-13 -164,-31 -229,-58 -64,-27 -126,-60 -182,-102 -57,-42 -116,-89 -174,-144 -124,144 -259,233 -405,269 -147,35 -302,54 -473,54l-1126 0 0 -747 1282 0c103,0 180,-15 230,-47 52,-32 77,-70 77,-115 0,-49 -21,-107 -61,-174 -42,-70 -119,-184 -231,-344l-590 -874 770 -493 779 1316c82,139 154,256 214,351 62,96 115,171 165,226 49,57 96,95 139,119 44,23 89,35 136,35 33,0 65,3 96,11 32,7 61,22 84,46 22,23 40,58 52,105 13,48 20,113 20,195 0,147 -20,251 -62,306 -40,55 -104,84 -190,84l-1 0zm686 -3700c0,-125 46,-232 137,-324 90,-92 199,-139 326,-139 123,0 232,45 322,135 92,92 137,201 137,328 0,124 -45,232 -137,322 -90,91 -199,138 -322,138 -124,0 -233,-47 -325,-138 -92,-90 -138,-198 -138,-322l0 0zm61 2953l0 -1833 849 0 0 2580 -1596 0c-33,0 -66,-4 -96,-10 -31,-7 -59,-22 -82,-45 -25,-25 -44,-61 -55,-107 -14,-49 -19,-114 -19,-196 0,-147 20,-249 60,-306 42,-55 106,-83 192,-83l747 0 0 0zm3388 747c-59,0 -136,-14 -236,-40 -98,-25 -185,-82 -259,-169 -5,294 -38,538 -102,737 -65,195 -162,356 -292,476 -129,122 -294,209 -492,261 -198,52 -437,78 -715,83l0 -790c177,-5 318,-25 423,-64 104,-36 182,-90 234,-163 50,-72 84,-168 99,-283 16,-113 21,-252 21,-413l0 -1930 837 0 0 1102c0,168 51,285 154,349 102,65 211,97 328,97 33,0 65,3 95,11 32,7 58,22 84,46 23,23 41,58 55,105 13,48 18,113 18,195 0,147 -20,251 -62,306 -42,55 -105,84 -190,84l0 0zm262 -747c95,0 174,-2 236,-5 62,-5 113,-19 152,-39 38,-21 67,-53 85,-93 18,-42 27,-99 27,-174l0 -1237 830 0 0 1102c0,138 37,247 112,327 74,79 193,119 353,119 125,0 232,-19 321,-57 90,-38 134,-122 134,-254l0 -1237 842 0 0 1102c0,297 128,446 384,446l401 0 0 -1833 842 0 0 2580 -991 0c-230,0 -402,-27 -521,-80 -117,-56 -214,-139 -296,-256 -65,83 -135,145 -209,190 -73,44 -150,77 -227,101 -78,21 -155,35 -229,38 -75,5 -147,7 -217,7 -219,0 -404,-35 -555,-109 -149,-70 -256,-145 -319,-227 -115,152 -267,246 -455,282 -187,35 -424,54 -713,54l-252 0c-34,0 -67,-4 -97,-10 -32,-7 -59,-22 -84,-45 -23,-25 -42,-61 -55,-107 -12,-49 -18,-114 -18,-196 0,-147 21,-249 61,-306 42,-55 106,-83 193,-83l265 0 0 0zm6907 1098c0,-203 11,-376 32,-522 21,-145 63,-270 125,-377 65,-106 150,-196 257,-276 107,-77 246,-151 416,-221 42,-277 116,-508 219,-695 105,-189 221,-339 351,-456 131,-114 266,-196 408,-246 144,-50 276,-75 394,-75 177,0 341,33 488,99 149,65 274,155 378,272 104,115 184,256 241,421 58,166 88,344 88,538 0,388 -97,697 -289,924 -192,228 -481,341 -871,341 -367,0 -747,-128 -1141,-387 -87,41 -150,115 -187,222 -37,107 -55,257 -55,451l0 2209 -854 0 0 -2222 0 0zm2598 -1556c0,-140 -41,-264 -123,-374 -82,-111 -199,-164 -348,-164 -129,0 -252,62 -371,187 -120,125 -199,338 -234,635 112,65 229,119 351,159 120,43 224,63 311,63 120,0 221,-47 297,-140 79,-92 117,-216 117,-366l0 0zm2347 -3423l0 4628 -838 0 0 -4628 838 0zm3021 2333l842 0 0 1930c0,311 -23,575 -70,793 -49,217 -132,392 -249,526 -119,134 -282,232 -493,296 -209,60 -478,93 -802,98l0 -790c174,-5 312,-25 416,-64 105,-36 184,-90 236,-163 51,-72 83,-168 98,-283 15,-113 22,-252 22,-413l0 -1930 0 0zm2456 -2333l0 4628 -835 0 0 -4628 835 0zm-1560 -830c123,-119 235,-199 336,-239 98,-42 192,-60 277,-60 87,0 187,20 302,62 116,40 221,85 315,133 95,49 187,86 272,111 87,25 162,38 222,38 84,0 151,-32 201,-94 52,-61 88,-128 110,-197l336 149c-74,194 -159,343 -254,443 -95,100 -226,152 -393,152 -120,0 -232,-15 -337,-49 -104,-30 -206,-70 -304,-118 -96,-44 -186,-80 -273,-114 -87,-32 -167,-48 -241,-48 -61,0 -118,8 -170,28 -52,18 -117,57 -194,114l-205 -311 0 0zm8071 5458c10,38 17,82 22,128 6,49 10,104 10,169 0,177 -34,339 -99,486 -67,148 -184,275 -354,383 -169,109 -394,194 -680,254 -284,60 -645,89 -1083,89 -423,0 -772,-40 -1046,-119 -276,-80 -493,-190 -657,-331 -162,-140 -276,-306 -341,-493 -63,-187 -95,-391 -95,-610l0 -1076 842 0 0 1048c0,279 102,483 306,612 204,128 538,192 1004,192 303,0 545,-17 729,-52 184,-34 326,-75 428,-127 103,-52 170,-107 202,-164 30,-57 47,-105 47,-149 0,-112 -112,-207 -335,-284 -222,-78 -521,-165 -897,-260l0 -773c286,91 558,169 817,233 259,65 493,97 700,97l811 0c33,0 65,3 97,11 32,7 58,22 83,46 22,23 41,58 52,105 14,48 20,113 20,195 0,147 -20,251 -62,306 -40,55 -105,84 -190,84l-331 0 0 0zm597 -747c95,0 173,-2 235,-5 62,-5 114,-19 152,-39 39,-21 67,-53 86,-93 18,-42 26,-99 26,-174l0 -1237 831 0 0 1102c0,138 37,247 112,327 73,79 192,119 352,119 126,0 233,-19 321,-57 91,-38 134,-122 134,-254l0 -1237 842 0 0 1102c0,297 129,446 385,446l401 0 0 -1833 842 0 0 2580 -991 0c-231,0 -403,-27 -521,-80 -117,-56 -214,-139 -296,-256 -65,83 -136,145 -209,190 -74,44 -151,77 -227,101 -79,21 -156,35 -229,38 -76,5 -147,7 -218,7 -218,0 -404,-35 -554,-109 -149,-70 -256,-145 -320,-227 -115,152 -267,246 -454,282 -187,35 -425,54 -714,54l-252 0c-33,0 -67,-4 -97,-10 -32,-7 -58,-22 -83,-45 -24,-25 -42,-61 -56,-107 -11,-49 -18,-114 -18,-196 0,-147 22,-249 62,-306 42,-55 105,-83 192,-83l266 0 0 0zm-41856 10068c-144,0 -263,-32 -358,-95 -95,-65 -165,-140 -212,-227 0,309 -19,573 -55,787 -37,214 -107,387 -211,519 -104,131 -246,226 -428,285 -180,58 -416,86 -708,86l0 -538c210,0 376,-23 496,-68 119,-45 207,-119 267,-221 59,-100 94,-230 104,-387 12,-159 15,-350 15,-574l0 -1738 526 0 0 921c0,219 41,395 121,522 80,127 227,190 443,190 173,0 259,87 259,259 0,109 -20,182 -62,221 -40,40 -107,58 -197,58l0 0zm-4 0c-172,0 -259,-85 -259,-259 0,-108 20,-182 62,-220 40,-39 107,-59 197,-59l433 0c104,0 194,-3 266,-12 75,-10 137,-30 187,-61 48,-34 85,-81 110,-144 24,-62 37,-147 37,-254l0 -1486 531 0 0 1245c0,107 7,206 22,294 15,89 44,164 87,224 44,59 102,107 174,142 73,35 167,52 281,52 173,0 259,87 259,259 0,109 -20,182 -61,221 -41,40 -107,58 -198,58 -169,0 -305,-40 -408,-120 -104,-80 -174,-179 -211,-301 -77,177 -199,293 -364,344 -165,52 -369,77 -613,77l-532 0 0 0zm513 978c0,-96 34,-174 101,-241 66,-67 148,-100 244,-100 95,0 175,33 242,100 67,67 100,145 100,241 0,95 -33,177 -100,244 -67,68 -147,102 -242,102 -96,0 -178,-34 -244,-102 -67,-67 -101,-149 -101,-244zm841 0c0,-96 35,-174 102,-241 68,-67 149,-100 244,-100 93,0 175,33 242,100 65,67 99,145 99,241 0,95 -34,177 -99,244 -67,68 -149,102 -242,102 -95,0 -176,-34 -244,-102 -67,-67 -102,-149 -102,-244zm999 -1516c144,0 264,-3 361,-12 99,-10 177,-30 237,-61 59,-34 101,-81 127,-144 24,-62 37,-147 37,-254l0 -1162 532 0 0 921c0,107 8,206 21,294 14,89 44,164 91,224 48,59 117,107 205,142 89,35 207,52 358,52 95,0 177,-3 247,-12 69,-10 127,-30 174,-61 48,-34 83,-81 107,-144 23,-62 35,-147 35,-254l0 -1162 531 0 0 921c0,107 9,206 25,294 15,89 45,164 91,224 46,59 108,107 188,142 81,35 186,52 313,52 75,0 142,-3 202,-12 60,-10 112,-30 156,-61 43,-34 76,-81 101,-144 24,-62 36,-147 36,-254l0 -1486 531 0 0 1245c0,107 8,206 23,294 15,89 42,164 86,224 45,59 101,107 175,142 72,35 165,52 281,52 172,0 259,87 259,259 0,109 -22,182 -62,221 -42,40 -107,58 -197,58 -169,0 -306,-40 -410,-120 -103,-80 -172,-179 -209,-301 -38,90 -91,164 -162,217 -68,54 -143,97 -220,127 -79,31 -154,52 -226,62 -73,10 -137,15 -189,15 -143,0 -264,-13 -361,-40 -96,-25 -177,-58 -242,-98 -63,-41 -115,-86 -152,-137 -37,-51 -65,-99 -87,-146 -78,177 -197,293 -359,344 -162,52 -354,77 -582,77 -152,0 -277,-11 -379,-36 -100,-24 -184,-56 -249,-96 -64,-40 -115,-87 -154,-140 -40,-52 -72,-104 -98,-155 -37,91 -86,163 -144,217 -60,55 -135,97 -229,130 -92,34 -207,55 -343,65 -137,10 -299,15 -489,15l-216 0c-172,0 -259,-85 -259,-259 0,-108 20,-182 62,-220 42,-39 107,-59 197,-59l229 0 0 0zm5273 538c-173,0 -260,-85 -260,-259 0,-108 22,-182 62,-220 42,-39 107,-59 198,-59l267 0c52,0 107,-7 162,-18 57,-12 112,-40 167,-84 57,-43 112,-104 166,-179 53,-77 105,-179 153,-307 99,-278 204,-500 314,-672 109,-170 221,-302 336,-394 116,-94 233,-156 351,-186 121,-32 238,-47 355,-47 160,0 309,32 449,94 142,62 262,152 364,266 101,115 181,252 239,407 57,159 86,335 86,532 0,376 -89,672 -266,887 -177,218 -453,324 -829,324 -207,0 -413,-33 -618,-103 -207,-70 -418,-187 -639,-353 -56,87 -113,156 -172,206 -58,48 -120,85 -185,110 -65,25 -132,40 -201,45 -68,7 -142,10 -220,10l-279 0 0 0zm2870 -1146c0,-94 -11,-187 -40,-279 -26,-92 -68,-172 -123,-241 -55,-68 -121,-124 -198,-165 -78,-40 -167,-62 -272,-62 -180,0 -348,80 -500,242 -150,159 -294,440 -426,841 159,103 318,187 477,250 157,64 317,96 482,96 181,0 326,-52 437,-156 108,-103 163,-279 163,-526l0 0zm3585 -1025l525 0 0 1807c0,321 -19,590 -55,810 -37,218 -107,395 -211,528 -104,134 -247,231 -431,291 -184,60 -420,90 -712,90l0 -538c211,0 376,-23 496,-68 119,-45 209,-119 268,-221 58,-100 93,-230 103,-387 12,-159 17,-350 17,-574l0 -1738 0 0zm3558 1459c0,207 -72,378 -214,512 -142,133 -349,200 -622,200l-1551 0 0 -538 1506 0c149,0 241,-22 279,-67 39,-47 57,-97 57,-154 0,-41 -8,-88 -25,-135 -17,-48 -59,-124 -127,-231 -67,-106 -166,-254 -293,-441 -128,-189 -302,-443 -521,-767l500 -312c173,297 324,548 449,752 127,202 232,376 314,518 82,144 144,266 186,367 42,102 62,201 62,296l0 0zm3925 433c0,109 -20,182 -62,221 -40,40 -107,58 -197,58l-169 0c-140,0 -265,-13 -379,-43 -115,-27 -211,-77 -292,-144 -79,-70 -142,-162 -188,-276 -45,-115 -68,-259 -68,-433l0 -3731 531 0 0 3589c0,183 30,310 86,386 58,77 183,114 377,114l102 0c172,0 259,87 259,259l0 0zm3728 279c-163,0 -305,-32 -429,-95 -120,-65 -217,-176 -293,-333l0 -11c-81,163 -202,292 -357,386 -159,93 -356,138 -593,138 -208,0 -415,-33 -620,-103 -206,-70 -418,-187 -637,-353 -59,87 -115,156 -174,206 -58,48 -118,85 -185,110 -65,25 -132,40 -201,45 -68,7 -142,10 -219,10l-279 0c-174,0 -259,-85 -259,-259 0,-108 20,-182 60,-220 42,-39 107,-59 199,-59l266 0c52,0 107,-7 162,-18 57,-12 114,-40 169,-84 55,-43 110,-104 165,-179 52,-77 104,-179 152,-307 99,-278 204,-500 314,-672 109,-170 221,-302 338,-394 114,-94 232,-156 351,-186 119,-32 236,-47 353,-47 160,0 310,32 451,94 140,62 260,152 362,266 101,115 181,252 239,407 57,159 87,335 87,532 0,28 -1,58 -3,87 -3,28 -3,55 -3,80 43,140 105,244 188,316 84,70 216,105 396,105 174,0 259,87 258,259 0,109 -20,182 -60,221 -40,40 -107,58 -198,58l0 0zm-1116 -1146c0,-94 -13,-187 -42,-279 -26,-92 -68,-172 -123,-241 -56,-68 -121,-124 -198,-165 -78,-40 -167,-62 -270,-62 -182,0 -348,80 -502,242 -150,159 -292,440 -426,841 161,103 319,187 476,250 158,64 318,96 483,96 183,0 326,-52 437,-156 110,-103 165,-279 165,-526l0 0zm1342 608c144,0 264,-3 361,-12 98,-10 177,-30 237,-61 59,-34 100,-81 127,-144 24,-62 37,-147 37,-254l0 -1168 531 0 0 927c0,107 9,206 22,294 13,89 44,164 90,224 49,59 116,107 203,142 85,35 205,52 354,52 95,0 177,-3 251,-12 70,-10 130,-30 177,-61 48,-34 83,-81 107,-144 23,-62 35,-147 35,-254l0 -1162 531 0 0 921c0,107 8,206 25,294 15,89 44,164 85,224 41,59 97,107 171,142 73,35 165,52 279,52l545 0 0 -1957 529 0 0 2495 -1074 0c-169,0 -303,-40 -406,-120 -102,-80 -171,-179 -204,-301 -79,177 -201,293 -364,344 -164,52 -363,77 -595,77 -152,0 -278,-11 -373,-37 -97,-23 -179,-55 -244,-95 -63,-40 -114,-87 -150,-140 -37,-52 -69,-104 -96,-156 -36,92 -85,164 -143,218 -60,55 -136,97 -229,130 -92,34 -207,55 -343,65 -137,10 -299,15 -489,15l-216 0c-172,0 -259,-85 -259,-259 0,-108 20,-182 62,-220 42,-39 107,-59 197,-59l229 0 0 0zm1989 -3048c0,-95 33,-175 101,-241 67,-68 148,-102 243,-102 95,0 177,34 242,102 67,66 100,146 100,241 0,95 -33,177 -100,244 -65,68 -147,102 -242,102 -95,0 -176,-34 -243,-102 -68,-67 -101,-149 -101,-244zm842 0c0,-95 33,-175 100,-241 69,-68 150,-102 246,-102 93,0 173,34 240,102 67,66 101,146 101,241 0,95 -34,177 -101,244 -67,68 -147,102 -240,102 -96,0 -177,-34 -246,-102 -67,-67 -100,-149 -100,-244zm-410 -775c0,-96 35,-176 102,-244 69,-67 149,-101 244,-101 96,0 176,34 243,101 65,68 98,148 98,244 0,95 -33,175 -98,242 -67,65 -147,98 -243,98 -95,0 -175,-33 -244,-98 -67,-67 -102,-147 -102,-242zm5756 2301c-109,0 -208,25 -299,75 -91,50 -169,115 -233,197 -67,82 -117,177 -154,284 -35,109 -53,222 -53,343 0,115 20,217 57,302 38,85 92,156 159,209 68,54 145,92 234,115 88,24 182,36 282,36 90,0 180,-11 269,-29 89,-20 167,-53 237,-102 69,-50 126,-115 167,-195 44,-81 64,-184 64,-308 0,-144 -20,-271 -60,-383 -40,-111 -94,-208 -162,-290 -67,-84 -144,-146 -233,-189 -88,-44 -180,-65 -275,-65l0 0zm-1225 954c0,-176 26,-349 83,-523 55,-176 139,-334 246,-478 110,-142 241,-256 393,-344 153,-91 327,-136 521,-136 169,0 326,34 470,102 145,65 272,162 384,289 109,129 197,284 259,465 62,180 94,389 94,625 0,142 -24,281 -69,416 -45,135 -119,256 -221,363 -100,107 -230,192 -387,260 -161,65 -349,99 -568,99 -183,0 -346,-24 -492,-69 -147,-45 -274,-115 -381,-210 -107,-94 -189,-212 -245,-356 -59,-142 -87,-311 -87,-503zm3756 -3521l0 4627 -533 0 0 -4627 533 0zm2469 4627c-144,0 -263,-32 -358,-95 -95,-65 -165,-140 -212,-227 0,309 -19,573 -55,787 -37,214 -107,387 -211,519 -104,131 -246,226 -428,285 -182,58 -416,86 -708,86l0 -538c210,0 376,-23 496,-68 119,-45 207,-119 266,-221 60,-100 95,-230 105,-387 12,-159 15,-350 15,-574l0 -1738 526 0 0 921c0,219 40,395 121,522 80,127 227,190 443,190 172,0 259,87 259,259 0,109 -21,182 -62,221 -40,40 -107,58 -197,58l0 0zm3983 0c-163,0 -305,-32 -427,-95 -122,-65 -219,-176 -294,-333l0 -11c-82,163 -201,292 -358,386 -159,93 -356,138 -593,138 -207,0 -415,-33 -620,-103 -206,-70 -418,-187 -637,-353 -57,87 -115,156 -174,206 -57,48 -118,85 -185,110 -65,25 -132,40 -201,45 -68,7 -142,10 -219,10l-279 0c-172,0 -259,-85 -259,-259 0,-108 20,-182 62,-220 40,-39 107,-59 197,-59l266 0c54,0 107,-7 164,-18 55,-12 112,-40 167,-84 55,-43 110,-104 165,-179 52,-77 104,-179 154,-307 97,-278 202,-500 313,-672 108,-170 222,-302 337,-394 114,-94 232,-156 351,-186 119,-32 237,-47 353,-47 160,0 311,32 451,94 140,62 261,152 363,266 100,115 180,252 238,407 57,159 87,335 87,532 0,28 -1,58 -3,87 -2,28 -3,55 -3,80 43,140 105,244 189,316 83,70 215,105 396,105 173,0 260,87 257,259 0,109 -20,182 -60,221 -40,40 -105,58 -197,58l-1 0zm-1116 -1146c0,-94 -13,-187 -42,-279 -26,-92 -66,-172 -122,-241 -55,-68 -122,-124 -198,-165 -77,-40 -168,-62 -271,-62 -182,0 -348,80 -500,242 -152,159 -294,440 -428,841 161,103 320,187 477,250 157,64 317,96 483,96 182,0 327,-52 437,-156 109,-103 164,-279 164,-526l0 0zm1113 1146c-172,0 -259,-85 -259,-259 0,-108 22,-182 62,-220 42,-39 107,-59 197,-59l1033 0c-42,-62 -84,-147 -124,-259 -40,-112 -60,-251 -60,-414 0,-224 54,-435 157,-632 104,-197 264,-336 480,-413 -87,0 -174,0 -259,3 -87,2 -176,5 -266,9l0 -483c470,-27 892,-5 1267,65 374,67 690,192 946,371 257,179 452,419 589,720 136,301 204,665 204,1096l0 475 -3967 0 0 0zm1822 -538c90,0 165,-22 227,-67 62,-47 110,-102 144,-169 35,-66 58,-140 71,-220 12,-79 19,-154 19,-224 0,-95 -9,-187 -25,-276 -17,-88 -45,-167 -84,-237 -40,-70 -88,-124 -150,-162 -62,-37 -136,-57 -222,-57 -153,0 -269,70 -353,207 -84,139 -125,318 -125,538 0,77 6,156 21,234 15,79 42,149 79,209 37,64 83,115 142,157 58,40 132,64 222,67l34 0 0 0zm1601 0c0,-461 -94,-819 -283,-1069 -187,-251 -443,-427 -765,-527 75,59 133,125 180,201 47,75 85,153 116,232 31,80 51,159 61,239 10,80 17,155 17,224 0,165 -15,306 -45,419 -28,114 -65,208 -105,281l824 0 0 0zm-60860 7131l-525 0 0 -3470 525 0 0 3470zm-640 835c-2,-107 35,-197 108,-271 74,-73 164,-112 273,-112 107,0 197,39 272,112 74,74 109,164 109,271 0,107 -35,199 -109,273 -75,73 -165,110 -272,110 -109,0 -199,-37 -273,-110 -73,-74 -110,-166 -108,-273zm3257 311c-144,0 -263,-32 -358,-95 -93,-65 -165,-142 -210,-228 0,310 -19,572 -56,786 -38,214 -107,389 -210,520 -104,132 -247,227 -428,284 -182,58 -418,88 -710,88l0 -538c212,0 376,-23 496,-68 119,-45 207,-119 268,-221 58,-100 93,-231 105,-389 10,-159 15,-348 15,-572l0 -1739 526 0 0 922c0,219 39,393 119,521 80,127 229,191 443,191 174,0 260,87 260,259 0,109 -21,182 -61,221 -42,38 -107,58 -199,58l0 0zm-1180 -3586c0,-95 33,-176 102,-242 67,-67 149,-101 244,-101 95,0 174,34 240,101 67,66 101,147 101,242 0,95 -34,177 -101,244 -66,67 -145,100 -240,100 -95,0 -177,-33 -244,-100 -69,-67 -102,-149 -102,-244zm1176 3586c-172,0 -259,-87 -259,-259 0,-109 22,-182 62,-221 42,-38 107,-58 197,-58l435 0c104,0 192,-5 266,-14 73,-8 135,-28 185,-61 50,-32 87,-79 110,-142 25,-62 37,-147 37,-254l0 -1486 532 0 0 1245c0,107 8,206 23,294 13,89 42,162 85,224 44,59 102,107 174,142 73,35 167,52 282,52 172,0 259,87 259,259 0,109 -21,182 -61,220 -42,39 -107,59 -198,59 -168,0 -305,-40 -409,-120 -104,-81 -172,-181 -209,-301 -79,177 -201,291 -366,342 -165,54 -369,79 -612,79l-533 0 0 0zm513 978c0,-96 34,-176 102,-243 67,-65 147,-98 243,-98 95,0 177,33 242,98 67,67 100,147 100,243 0,95 -33,177 -100,244 -65,66 -147,101 -242,101 -96,0 -176,-35 -243,-101 -68,-67 -102,-149 -102,-244zm843 0c0,-96 33,-176 100,-243 68,-65 150,-98 244,-98 95,0 175,33 242,98 67,67 101,147 101,243 0,95 -34,177 -101,244 -67,66 -147,101 -242,101 -94,0 -176,-35 -244,-101 -67,-67 -100,-149 -100,-244zm770 -978c-174,0 -261,-87 -261,-259 0,-109 22,-182 62,-221 42,-38 107,-58 199,-58l1452 0c237,0 410,-39 513,-114 104,-77 156,-177 156,-301 0,-115 -49,-247 -144,-392 -95,-146 -226,-293 -394,-441 -169,-151 -368,-296 -594,-440 -227,-145 -473,-276 -737,-393 4,-51 14,-107 29,-162 15,-55 33,-107 52,-155 21,-47 41,-87 61,-120 22,-32 40,-54 57,-62l2425 -1045 0 540 -1905 841c458,234 822,483 1091,747 271,264 451,526 542,792 53,150 103,272 150,361 48,90 99,162 152,214 55,53 114,88 177,105 62,16 136,25 214,25 174,0 261,87 261,259 0,109 -22,182 -62,220 -42,39 -107,59 -199,59 -90,0 -174,-5 -247,-17 -75,-8 -147,-31 -211,-67 -67,-35 -128,-85 -185,-152 -59,-67 -114,-157 -166,-270l-26 0c-82,202 -221,337 -415,404 -194,69 -431,102 -712,102l-1335 0zm358 -3397c0,-61 10,-122 33,-188 23,-63 52,-123 85,-177 32,-55 67,-102 104,-143 37,-40 67,-69 94,-82l2202 -1005 0 488 -2518 1107 0 0zm3840 -189c0,-95 35,-176 102,-242 68,-67 149,-101 244,-101 95,0 175,34 242,101 65,66 99,147 99,242 0,95 -34,177 -99,244 -67,67 -147,100 -242,100 -95,0 -176,-33 -244,-100 -67,-67 -102,-149 -102,-244zm-906 3586c-174,0 -261,-87 -261,-259 0,-109 22,-182 62,-221 42,-38 107,-58 199,-58l1009 0 0 -1957 532 0 0 2495 -1541 0 0 0zm2965 -4627l0 4627 -532 0 0 -4627 532 0zm6520 4627c-169,0 -306,-40 -409,-120 -102,-81 -172,-181 -209,-301 -37,90 -89,164 -152,217 -65,54 -147,95 -244,125 -99,32 -217,52 -356,62 -137,10 -299,17 -486,17l-2636 0c-250,0 -461,-17 -626,-52 -167,-35 -301,-90 -403,-165 -100,-76 -174,-172 -217,-291 -42,-119 -64,-266 -64,-438l0 -1004 532 0 0 810c0,132 16,239 48,319 34,81 89,142 166,184 76,40 182,67 315,79 134,13 306,20 515,20l2365 0c143,0 265,-5 364,-14 99,-8 177,-28 236,-61 56,-32 100,-79 127,-142 25,-62 38,-148 38,-254l0 -1486 533 0 0 1245c0,107 7,205 22,294 15,89 43,164 87,224 43,58 102,107 175,142 74,35 167,52 279,52 172,0 259,87 259,259 0,108 -20,182 -62,220 -41,39 -107,59 -197,59l0 0zm-3928 -3210c0,-95 33,-176 101,-243 67,-65 147,-100 243,-100 95,0 175,35 242,100 67,67 100,148 100,243 0,95 -33,175 -100,244 -67,67 -147,100 -242,100 -95,0 -176,-33 -243,-100 -68,-69 -101,-149 -101,-244zm840 0c0,-95 35,-176 102,-243 68,-66 149,-100 244,-100 95,0 175,34 242,100 67,67 101,148 101,243 0,95 -34,177 -101,244 -67,67 -147,100 -242,100 -95,0 -176,-33 -244,-100 -67,-67 -102,-149 -102,-244zm3085 3210c-174,0 -261,-87 -261,-259 0,-109 22,-182 62,-221 42,-38 107,-58 199,-58l737 0c-49,-90 -90,-191 -124,-301 -35,-109 -50,-236 -50,-379 0,-169 27,-336 84,-502 55,-163 138,-309 247,-436 109,-125 241,-229 399,-309 156,-80 340,-122 548,-122 239,0 433,44 585,130 151,87 271,198 358,331 89,134 150,281 184,443 33,162 52,321 52,478l0 667 493 0c173,0 259,87 259,259 0,109 -20,182 -61,221 -41,38 -108,58 -198,58l-3513 0 0 0zm1069 -1303c0,262 77,456 233,581 155,122 346,184 571,184l622 0 0 -650c0,-102 -12,-207 -30,-313 -19,-105 -54,-200 -105,-284 -52,-83 -124,-153 -214,-207 -92,-53 -206,-82 -346,-82 -116,0 -219,22 -309,62 -91,42 -168,97 -231,165 -62,69 -109,151 -142,246 -32,94 -49,194 -49,298zm420 -2283c0,-95 35,-176 102,-242 68,-67 149,-101 244,-101 95,0 175,34 242,101 65,66 99,147 99,242 0,95 -34,177 -99,244 -67,67 -147,100 -242,100 -95,0 -176,-33 -244,-100 -67,-67 -102,-149 -102,-244zm2024 3586c-173,0 -259,-87 -259,-259 0,-109 20,-182 61,-221 40,-38 107,-58 198,-58l1453 0c238,0 410,-39 512,-114 103,-77 155,-177 155,-301 0,-115 -47,-247 -142,-392 -95,-146 -227,-293 -396,-441 -167,-151 -366,-296 -593,-440 -226,-145 -471,-276 -735,-393 3,-51 13,-107 28,-162 15,-55 32,-107 52,-155 20,-47 40,-87 62,-120 20,-34 40,-54 56,-62l2425 -1045 0 540 -1907 841c460,234 824,483 1093,747 271,264 450,528 542,792 52,150 103,272 150,361 47,90 99,162 152,214 54,53 112,88 177,105 62,15 134,25 214,25 174,0 259,87 259,259 0,109 -20,182 -62,220 -40,39 -106,59 -197,59 -90,0 -174,-7 -249,-17 -75,-10 -145,-31 -210,-67 -65,-35 -127,-86 -184,-152 -59,-67 -114,-157 -167,-270l-25 0c-82,202 -221,337 -415,404 -194,69 -433,102 -713,102l-1335 0 0 0zm357 -3397c0,-61 12,-122 35,-188 24,-63 52,-123 84,-177 33,-53 68,-102 103,-143 37,-40 69,-71 96,-82l2202 -1005 0 488 -2520 1107zm3170 2859c144,0 264,-5 361,-13 99,-9 177,-29 237,-62 59,-32 101,-79 126,-142 25,-62 38,-147 38,-254l0 -1168 532 0 0 927c0,107 6,206 20,294 15,89 45,164 92,224 48,59 115,107 202,142 85,35 204,52 354,52 95,0 177,-5 251,-14 70,-8 130,-28 177,-61 48,-32 83,-81 107,-142 23,-62 35,-147 35,-254l0 -1163 531 0 0 922c0,107 9,206 24,294 16,89 45,164 85,224 42,59 99,107 172,142 72,35 166,52 279,52l545 0 0 -1957 530 0 0 2495 -1075 0c-169,0 -304,-40 -406,-120 -104,-81 -170,-181 -204,-301 -78,177 -200,291 -364,342 -164,52 -363,79 -595,79 -152,0 -277,-13 -373,-37 -97,-25 -178,-55 -244,-95 -63,-40 -113,-87 -150,-140 -37,-54 -69,-106 -95,-156 -37,90 -85,164 -144,217 -60,54 -135,97 -229,131 -92,32 -207,53 -342,63 -137,10 -300,17 -490,17l-216 0c-172,0 -259,-87 -259,-259 0,-109 20,-182 62,-221 40,-38 107,-58 197,-58l229 0zm1989 -3048c0,-95 33,-176 102,-242 67,-66 147,-101 242,-101 95,0 176,35 242,101 67,66 101,147 101,242 0,95 -34,175 -101,244 -66,67 -147,100 -242,100 -95,0 -175,-33 -242,-100 -69,-69 -102,-149 -102,-244zm842 0c0,-95 34,-176 100,-242 69,-67 151,-101 244,-101 96,0 176,34 243,101 67,66 100,147 100,242 0,95 -33,177 -100,244 -67,67 -147,100 -243,100 -93,0 -175,-33 -244,-100 -66,-67 -100,-149 -100,-244zm-409 -776c0,-95 35,-177 102,-244 66,-68 148,-100 244,-100 95,0 175,32 242,100 67,67 98,149 98,244 0,96 -31,176 -98,243 -67,65 -147,98 -242,98 -96,0 -178,-33 -244,-98 -67,-67 -102,-147 -102,-243zm4789 4188c0,169 27,323 82,463 53,140 144,262 272,363 127,102 296,180 507,237 209,55 469,82 780,82 224,0 438,-15 643,-49 208,-31 388,-78 547,-138 159,-60 284,-134 376,-222 93,-89 140,-191 140,-303 0,-99 -33,-182 -98,-249 -65,-68 -189,-147 -371,-237 -129,-67 -249,-134 -360,-202 -110,-67 -205,-144 -284,-229 -80,-86 -143,-179 -192,-284 -48,-107 -72,-231 -72,-375 0,-164 29,-331 89,-498 58,-167 147,-321 266,-456 117,-135 265,-246 442,-331 178,-83 388,-125 630,-125 144,0 271,15 380,48 110,32 174,52 190,60l0 545c-87,-25 -180,-45 -281,-63 -101,-19 -202,-29 -302,-29 -144,0 -269,24 -379,69 -111,45 -201,105 -273,179 -72,73 -125,157 -162,247 -35,90 -53,180 -53,272 0,86 16,161 48,224 32,60 75,119 131,171 56,51 122,98 195,142 74,43 154,88 241,137 148,82 270,159 371,227 98,69 177,135 235,201 59,65 101,130 126,198 26,66 40,138 40,216 0,181 -40,356 -124,526 -82,169 -214,318 -396,447 -180,130 -416,235 -702,314 -287,80 -635,118 -1041,118 -408,0 -749,-38 -1026,-118 -276,-79 -500,-189 -667,-331 -167,-142 -287,-308 -361,-500 -75,-192 -112,-402 -112,-630l0 -969 525 0 0 852 0 0zm6046 -105c0,109 -20,182 -62,221 -40,38 -107,58 -197,58l-169 0c-138,0 -265,-13 -379,-43 -114,-29 -211,-77 -291,-144 -80,-70 -144,-162 -189,-276 -45,-117 -67,-259 -67,-433l0 -3731 532 0 0 3589c0,181 28,309 85,386 57,75 182,114 376,114l102 0c174,0 259,87 259,259zm-259 279c-172,0 -259,-87 -259,-259 0,-109 20,-182 62,-221 40,-38 107,-58 197,-58l1033 0c-44,-62 -84,-149 -124,-259 -40,-112 -60,-251 -60,-415 0,-224 52,-434 155,-633 106,-195 266,-334 482,-413 -87,0 -174,2 -261,4 -85,3 -174,6 -266,10l0 -483c471,-27 893,-5 1269,63 374,69 690,192 945,373 256,179 453,419 589,718 137,303 205,667 205,1098l0 475 -3967 0 0 0zm1822 -538c90,0 165,-23 227,-69 60,-45 108,-100 144,-167 35,-67 58,-140 71,-220 12,-81 19,-154 19,-224 0,-95 -10,-187 -25,-276 -19,-89 -45,-167 -86,-237 -38,-70 -88,-124 -150,-162 -60,-37 -134,-57 -221,-57 -152,0 -270,68 -352,207 -84,139 -125,318 -125,538 0,77 6,156 21,234 15,77 42,147 79,209 37,63 83,115 142,155 57,42 132,64 222,69l34 0 0 0zm1600 0c0,-463 -93,-819 -282,-1070 -187,-252 -443,-426 -765,-526 73,57 133,124 180,201 45,75 85,153 115,232 32,80 52,159 62,239 10,80 15,155 15,224 0,165 -15,304 -43,418 -30,115 -65,208 -105,282l823 0 0 0zm3448 -174c0,206 -72,378 -214,511 -142,134 -351,201 -623,201l-1549 0 0 -538 1505 0c149,0 241,-24 279,-69 37,-45 57,-95 57,-152 0,-43 -8,-88 -25,-135 -17,-49 -58,-125 -127,-232 -67,-106 -165,-253 -292,-440 -129,-189 -303,-444 -522,-767l500 -312c174,295 324,546 449,752 127,202 233,376 315,518 81,142 143,264 185,367 42,102 62,201 62,296l0 0zm1238 -1460l525 0 0 1808c0,321 -18,590 -55,809 -39,218 -107,394 -211,529 -103,134 -247,231 -431,291 -184,60 -419,90 -712,90l0 -538c211,0 376,-23 496,-68 119,-45 209,-119 266,-221 60,-100 95,-231 105,-389 12,-159 17,-348 17,-572l0 -1739 0 0zm2418 2172c-169,0 -326,-20 -469,-59 -146,-38 -271,-101 -378,-190 -105,-89 -190,-207 -252,-354 -64,-147 -94,-328 -94,-543 0,-173 27,-343 84,-508 55,-169 138,-316 245,-447 107,-128 241,-232 401,-310 161,-79 345,-119 552,-119 230,0 423,43 581,127 156,85 283,200 378,351 95,149 164,326 204,531 42,206 62,431 62,679l0 608c0,324 -44,590 -131,795 -85,204 -209,366 -369,485 -159,120 -354,201 -588,244 -232,43 -495,65 -784,65l-272 0 0 -538 200 0c206,0 395,-8 567,-27 170,-15 317,-55 441,-117 124,-60 219,-148 289,-265 67,-116 102,-273 102,-472l0 -123c-77,48 -179,92 -304,130 -126,37 -279,57 -465,57l0 0zm-675 -1205c0,246 67,421 199,528 132,105 307,159 526,159 164,0 310,-22 437,-67 125,-43 218,-88 282,-140l0 -241c0,-147 -12,-286 -35,-416 -24,-129 -62,-241 -119,-334 -55,-92 -128,-166 -220,-221 -91,-52 -201,-78 -331,-78 -134,0 -246,25 -340,77 -93,51 -168,115 -227,195 -58,77 -103,164 -130,259 -27,95 -42,187 -42,279l0 0zm4185 926c0,109 -20,182 -61,221 -41,38 -107,58 -198,58l-169 0c-139,0 -266,-13 -380,-43 -113,-29 -210,-77 -290,-144 -81,-70 -142,-162 -189,-276 -45,-117 -67,-259 -67,-433l0 -3731 531 0 0 3589c0,181 29,309 86,386 56,75 182,114 376,114l102 0c173,0 259,87 259,259zm-259 279c-173,0 -259,-87 -259,-259 0,-109 20,-182 61,-221 42,-38 107,-58 198,-58l434 0c104,0 192,-5 266,-14 73,-8 135,-28 185,-61 50,-32 85,-79 111,-142 25,-62 36,-147 36,-254l0 -1486 532 0 0 1245c0,107 6,206 21,294 15,89 44,162 87,224 44,59 102,107 174,142 74,35 167,52 281,52 174,0 259,87 259,259 0,109 -20,182 -60,220 -42,39 -107,59 -199,59 -169,0 -304,-40 -408,-120 -104,-81 -174,-181 -210,-301 -77,177 -199,291 -365,342 -165,54 -369,79 -613,79l-531 0 0 0zm513 -3586c0,-95 33,-176 100,-242 68,-67 149,-101 244,-101 95,0 175,34 242,101 67,66 100,147 100,242 0,95 -33,177 -100,244 -67,67 -147,100 -242,100 -95,0 -176,-33 -244,-100 -67,-67 -100,-149 -100,-244zm840 0c0,-95 35,-176 102,-242 69,-67 149,-101 244,-101 95,0 176,34 242,101 67,66 101,147 101,242 0,95 -34,177 -101,244 -66,67 -147,100 -242,100 -95,0 -175,-33 -244,-100 -67,-67 -102,-149 -102,-244zm999 3048c144,0 264,-5 361,-13 99,-9 178,-29 238,-62 58,-32 100,-79 127,-142 23,-62 36,-147 36,-254l0 -1168 532 0 0 927c0,107 8,206 22,294 13,89 43,162 92,224 46,59 113,107 200,142 87,35 206,52 354,52 96,0 179,-5 251,-14 72,-8 130,-28 179,-61 47,-32 82,-79 105,-142 24,-62 35,-147 35,-254l0 -1163 532 0 0 922c0,107 8,206 25,294 15,89 43,162 85,224 40,59 99,107 170,142 74,35 166,52 279,52l545 0 0 -1957 530 0 0 2495 -1075 0c-168,0 -302,-40 -406,-120 -102,-81 -170,-181 -204,-301 -78,177 -200,291 -364,342 -164,54 -362,79 -595,79 -152,0 -277,-12 -372,-37 -97,-23 -179,-57 -244,-95 -64,-40 -114,-87 -151,-140 -37,-54 -68,-106 -93,-156 -39,90 -87,164 -146,217 -60,54 -135,97 -227,131 -94,33 -209,55 -344,63 -137,12 -299,17 -490,17l-215 0c-173,0 -259,-87 -259,-259 0,-109 20,-182 61,-221 42,-38 107,-58 198,-58l228 0zm7731 -174c0,206 -72,378 -214,511 -144,134 -351,201 -623,201l-1549 0 0 -538 1505 0c147,0 241,-24 279,-69 37,-45 57,-95 57,-152 0,-43 -8,-88 -27,-135 -15,-49 -56,-125 -125,-232 -67,-106 -165,-253 -292,-440 -129,-189 -303,-444 -522,-767l500 -312c174,295 324,546 450,752 127,202 232,376 314,518 82,142 143,264 185,367 42,102 62,201 62,296z"/>
    <circle class="fil10" cx="179410" cy="32242" r="12501"/>
    <rect class="fil11" x="247566" y="31717" width="88.3858" height="23087.7"/>
    <path class="fil12" d="M181770 35779l0 2360 -9435 0 0 -2360 9435 0zm-9435 -7077l0 -2358c4717,0 9435,0 14152,0l-2358 2358c-3932,0 -7864,0 -11794,0zm14152 2360c0,2359 0,4717 0,7077l-2358 0 0 -4718 0 0 -11794 0 0 -2359c4717,0 9435,0 14152,0l0 0z"/>
   </g>
   <path class="fil13" d="M12603 33332c-4814,442 -7515,8464 -6023,17879 1491,9416 6623,16714 11435,16272 4815,-443 7516,-8464 6025,-17880 -1492,-9415 -6624,-16716 -11437,-16271z"/>
   <path class="fil3" d="M15729 48689c1775,5379 3674,11258 5648,16940 577,-659 1082,-1475 1508,-2422 -2858,-6245 -5977,-12837 -7156,-14518z"/>
   <path class="fil10" d="M22885 63207c-426,947 -931,1763 -1508,2422 1095,3151 2213,6242 3346,9154 740,-878 1405,-1918 1988,-3098 -1023,-2296 -2392,-5343 -3826,-8478z"/>
   <path class="fil14" d="M26711 71685c-583,1180 -1248,2220 -1988,3098 1132,6 2259,20 3383,42 -307,-694 -791,-1786 -1395,-3140z"/>
   <g>
    <g>
     <path class="fil15" d="M71061 35613l507 4253 792 4207c0,0 3320,-380 6698,-1887l-1118 -571c0,0 2090,-559 5292,-3575 -3956,-1897 -6117,-1791 -6117,-1791l896 -885c-3669,-403 -6950,249 -6950,249l0 0z"/>
     <path class="fil16" d="M71231 37040l337 2826 526 2794c0,0 2206,-253 4450,-1253l-744 -380c0,0 1390,-372 3517,-2375 -2628,-1259 -4063,-1190 -4063,-1190l594 -588c-2439,-268 -4617,166 -4617,166z"/>
     <polygon class="fil17" points="71389,34576 72983,44960 71745,45153 70151,34769 "/>
     <path class="fil18" d="M62986 48292c0,0 5349,6443 14071,3601 814,-266 819,-1438 -4,-1687 -2271,-690 -5315,-2198 -6362,-5433l-7705 3519z"/>
     <path class="fil18" d="M60862 34456c0,0 3169,-7777 12333,-7733 856,4 1211,1122 503,1610 -1959,1351 -4409,3719 -4436,7122l-8400 -999z"/>
     <path class="fil19" d="M70170 34294c-3011,-520 -15322,-46 -27056,1788 -13274,2076 -27696,10663 -27412,12518 287,1855 16608,5636 29882,3561 12521,-1959 23609,-5144 26323,-6559l-1737 -11308 0 0z"/>
     <path class="fil20" d="M28899 52279c837,-1878 1161,-3872 854,-5875 -308,-2003 -1216,-3806 -2576,-5342 -6570,2967 -11375,6268 -11477,7444 -2,34 -2,65 2,94 4,31 15,60 27,89 449,1093 6021,2772 13170,3590l0 0z"/>
     <path class="fil21" d="M47576 38935c-2503,391 -4215,2757 -3829,5283 387,2527 2730,4259 5232,3867 2501,-391 4215,-2757 3829,-5284 -389,-2528 -2730,-4259 -5232,-3866z"/>
     <path class="fil21" d="M56032 39550c-1469,228 -2472,1616 -2246,3098 227,1481 1602,2497 3069,2266 1467,-228 2472,-1616 2244,-3097 -227,-1482 -1600,-2498 -3067,-2267l0 0z"/>
     <path class="fil22" d="M56753 44249c1103,-172 1859,-1215 1687,-2331l0 0c-170,-1113 -1203,-1878 -2306,-1703l0 0c-1105,172 -1862,1215 -1689,2329l0 0c73,473 301,885 623,1186l0 0c438,409 1049,619 1685,519l0 0 0 0z"/>
     <path class="fil18" d="M70797 38366c3453,-540 6360,-270 6495,602 133,875 -2558,2022 -6011,2562 -3453,540 -6359,270 -6494,-605 -133,-872 2557,-2019 6010,-2559z"/>
    </g>
    <polygon class="fil23" points="32560,51714 32576,51662 32583,51716 "/>
    <polygon class="fil23" points="30536,48824 30536,48822 "/>
    <g>
     <g>
      <path class="fil24" d="M49085 23617c0,0 953,-588 1427,-123 474,466 465,3003 465,3003l-2071 -2163 179 -717 0 0z"/>
      <path class="fil12" d="M45360 25622c0,0 -1525,413 -2105,754 -582,339 -1623,1348 -2042,1805 0,0 14,1010 839,1099 0,0 1616,-1157 2165,-1263 550,-106 1338,-282 1338,-282l386 -1937 -581 -176 0 0z"/>
      <path class="fil12" d="M41213 28181c0,0 -977,262 -1162,512 -185,251 565,4 565,4 0,0 -833,554 -741,714 91,160 931,-423 931,-423 0,0 -869,531 -777,691 91,160 903,-386 903,-386 0,0 -559,580 -494,733 66,158 791,-461 791,-461 0,0 54,258 63,538 8,281 480,-43 760,-823l-839 -1099 0 0z"/>
      <path class="fil20" d="M42164 29438c-45,27 -106,34 -158,11 -901,-391 -945,-1220 -945,-1255 -4,-98 71,-181 168,-185 98,-4 179,71 183,170 2,27 42,644 734,942 89,39 130,143 91,234 -15,36 -42,65 -73,83l0 0z"/>
      <path class="fil25" d="M42939 26590c0,0 511,1089 898,1573 0,0 160,110 380,-146 0,0 -27,-1051 -555,-1836 0,0 -424,4 -723,409l0 0z"/>
      <path class="fil21" d="M45613 27729l-116 10c-98,-1155 187,-1778 197,-1803l108 50c-4,6 -283,623 -189,1743l0 0z"/>
      <path class="fil12" d="M45792 25844c0,0 -991,2331 930,4504 0,0 -1067,1619 -1221,2255 -154,633 372,2578 372,2578 0,0 -46,56 -106,147 83,88 301,246 777,262 270,10 623,-27 1080,-145 48,-73 89,-148 127,-221 0,0 -262,-1649 -411,-2154l1182 -1093 68 162c100,281 225,576 376,860 0,0 570,996 1660,1592 0,0 17,66 52,176 104,-4 324,-24 574,-135l166 -83c257,-149 546,-413 737,-881 -37,-62 -76,-124 -120,-184 0,0 -1018,-757 -1236,-1222l-218 -2597c0,0 288,-667 -372,-1799l-1521 -2907 -2896 885 0 0z"/>
      <path class="fil3" d="M46698 27724c110,192 45,435 -144,545 -189,110 -430,45 -540,-146 -110,-191 -44,-434 145,-544 190,-110 430,-46 538,145l1 0z"/>
      <path class="fil20" d="M51252 34632l-11 7 -4 2 -8 2 -9 4 -2 2 -12 4 0 0 -11 4 -6 2 -6 2 -8 4 -4 0 -11 5 0 0 -10 4 -6 2 -7 2 -8 4 -2 0 -10 4 -2 0 -11 4 -4 0 -6 2 -9 5 -2 0 -12 2 0 2 -10 2 -5 2 -6 0 -8 4 -2 0 -11 2 -2 2 -8 2 -6 2 -4 0 -9 2 -2 0 -10 4 -2 0 -6 2 -9 0 -4 3 -8 2 0 0 -11 2 -2 0 -8 2 -6 2 -2 0 -11 2 -8 2 -4 0 -6 2 -6 0 -3 0 -8 2 -2 0 -8 2 -4 0 -5 2 -6 0 -2 2 -8 0 -2 0 -6 2 -5 0 -4 0 -6 2 -2 0 -8 0 -2 2 -7 0 -4 0 -4 0 -6 2 -2 0 -6 0 -2 0 -7 2 -4 0 -2 0 -6 0 -2 0 -6 2 -2 0 -3 0 -2 0 -4 0 -4 0 -4 3 -2 0 -6 0 -2 0 -5 0 -4 0 -2 0 -4 0 -2 0 -4 2 -2 0 -4 0 -4 0 -3 0 -4 0 -6 0 0 0 -4 0c-33,2 -52,0 -60,0 -98,-5 -173,-88 -169,-185 5,-100 88,-175 185,-171 38,2 890,21 1234,-987 34,-91 133,-141 225,-110 91,34 141,135 110,227l-48 126 -8 21 -2 2 -9 21 -8 21 -2 2 -8 19 -2 4 -9 16 -2 7 -6 14 -4 6 -6 15 -4 8 -7 11 -6 10 -4 8 -6 13 -4 6 -7 15 -2 6 -8 14 -2 4 -10 15 0 2 -11 19 -2 0 -10 18 0 0 -11 17 -2 2 -8 15 -4 4 -8 14 -3 4 -8 13 -4 6 -6 11 -13 14 -6 10 -4 7 -8 10 -5 6 -8 11 -2 4 -10 12 -2 2 -11 15 0 0 -12 17 0 0 -13 14 0 0 -10 13 -4 4 -9 10 -4 4 -8 11 -4 4 -9 8 -4 6 -6 9 -8 6 -4 6 -9 8 -4 5 -8 10 -4 2 -11 10 -2 2 -10 13 -2 0 -13 12 0 0 -12 13 0 0 -11 10 -2 2 -10 9 -4 4 -11 8 -4 4 -6 6 -6 5 -6 6 -7 6 -6 4 -8 6 -4 5 -9 8 -4 2 -10 8 -2 2 -11 9 -2 2 -12 8 0 0 -13 8 -2 2 -10 9 -2 0 -10 8 -3 2 -10 6 -4 4 -8 5 -5 4 -8 4 -6 4 -6 4 -6 7 -7 2 -8 6 -4 2 -8 6 -5 2 -10 4 -2 2 -10 7 0 2 -13 6 -166 83 -1 1z"/>
      <path class="fil25" d="M50925 32426c-257,740 -1371,1388 -1560,1161 -195,-153 -318,-419 -318,-419 528,-933 1708,-1008 1708,-1008 0,0 123,62 170,266l0 0z"/>
      <path class="fil21" d="M50668 29819c-31,18 -69,27 -106,22 -67,-6 -1596,-147 -2234,1214 -41,89 -145,126 -234,85 -88,-44 -125,-150 -83,-239 745,-1591 2570,-1415 2586,-1413 98,11 168,98 158,196 -6,58 -39,108 -87,135z"/>
      <path class="fil20" d="M47838 35378c-12,6 -25,13 -39,17l-175 50 -21 4 -20 6 -4 0 -17 4 -21 6 -33 7 -8 4 -21 4 -21 4 -17 4 -4 2 -18 4 -40 9 -4 0 -17 4 -18 4 -21 4 -11 2 -8 2 -19 2 -18 5 -17 4 -2 0 -19 2 -18 4 -19 2 -4 2 -13 2 -18 2 -17 4 -12 2 -25 5 -17 2 -17 2 0 0 -16 2 -19 2 -17 2 -4 0 -12 2 -17 2 -17 2 -10 2 -6 0 -15 2 -16 0 -17 2 0 0 -15 2 -16 0 -15 2 -6 2 -10 0 -15 0 -14 2 -13 0 -4 0 -15 3 -14 0 -15 0 0 0 -14 2 -15 0 -14 0 -6 0 -7 0 -14 0 -15 2 -10 0 -2 0 -15 0 -12 0 -15 0 -2 0 -10 0 -13 -2 -14 0 -6 0 -7 0 -12 0 -44 -2 -20 -3 0 0 -21 0 -19 -2 -2 0 -21 -2 -14 -2 -7 0 -18 -2 -13 -2 -6 0 -19 -4 -10 0 -10 -2 -17 -2 -8 -2 -11 -2 -16 -2 -7 -2 -10 -2 -17 -2 -4 -2 -12 -3 -17 -4 -2 0 -14 -4 -15 -4 0 0 -14 -4 -15 -2 -2 -2 -15 -2 -10 -5 -4 -2 -13 -4 -10 -2 -4 -2 -13 -4 -8 -2 -4 -2 -13 -6 -6 -2 -6 -2 -13 -5 -6 -2 -6 -2 -12 -6 -2 0 -9 -4 -10 -6 -2 0 -9 -4 -10 -7 -2 0 -8 -4 -11 -4 -8 -6 -10 -4 0 -2 -9 -5 -8 -4 -2 0 -8 -6 -7 -4 -2 0 -8 -6 -4 -2 -2 -2 -9 -7 -4 -2 -2 -2 -8 -6 -2 -2 -4 -2 -7 -4 -2 -2 -4 -4 -6 -5 -2 0 -4 -6 -6 -4 0 0 -7 -4 -4 -4 -6 -5 -4 -4 0 0 -4 -4 -4 -4 0 0 -5 -6 -4 -2 0 -2 -39 -48c-56,-81 -33,-191 45,-245 77,-56 185,-36 241,41 17,17 354,366 1687,-23 94,-29 192,27 219,121 25,81 -13,164 -81,204l-1 -1z"/>
      <path class="fil25" d="M45671 32154c0,0 1263,370 1669,916 407,544 -1852,135 -1852,135 0,0 -305,-521 183,-1051z"/>
      <path class="fil21" d="M48310 31030c-65,37 -150,31 -208,-25 -675,-634 -1311,-490 -1336,-484 -96,23 -191,-35 -214,-131 -23,-94 33,-191 129,-214 33,-8 839,-204 1660,569 70,67 75,179 10,252 -14,12 -27,24 -41,33l0 0z"/>
      <polygon class="fil21" points="48578,31956 48468,31998 48035,30862 48146,30818 "/>
      <path class="fil12" d="M48962 22229c711,1243 274,2838 -970,3563 -1247,727 -2832,310 -3542,-933 -711,-1240 -277,-2838 970,-3563 1246,-727 2832,-309 3542,933z"/>
      <path class="fil26" d="M48208 25433c-131,125 -281,235 -443,330 -1159,677 -2634,287 -3297,-868 -301,-530 -382,-1128 -266,-1687l9 -27c20,-87 118,-129 195,-83 320,193 1195,440 2921,-875 104,-79 251,-56 326,52 341,490 1132,1826 644,3071l-89 87z"/>
      <path class="fil12" d="M52679 29507c0,0 530,1319 494,1629 -37,311 -411,-391 -411,-391 0,0 222,983 48,1035 -177,52 -385,-956 -385,-956 0,0 266,991 92,1043 -175,52 -393,-910 -393,-910 0,0 11,808 -143,877 -154,66 -258,-887 -258,-887 0,0 -214,149 -411,347 -197,199 -318,-364 10,-1126l1357 -661 0 0z"/>
      <path class="fil12" d="M49180 24672c0,0 -1176,570 -893,1638 0,0 665,795 1922,1556 0,0 288,257 531,849 246,593 524,1451 524,1451 0,0 675,126 1415,-659 0,0 -129,-1608 -906,-2720 -775,-1111 -2593,-2115 -2593,-2115l0 0z"/>
      <path class="fil20" d="M52251 30201c-380,220 -769,206 -983,137 -91,-29 -143,-129 -114,-222 29,-94 127,-146 220,-119 29,11 698,200 1153,-581 50,-84 158,-113 241,-63 85,50 112,158 62,243 -170,291 -374,484 -579,605l0 0z"/>
      <path class="fil25" d="M50491 28229c0,0 1409,-852 1282,-1442 0,0 218,200 430,794 0,0 -632,736 -1587,864 0,0 -71,19 -125,-216l0 0z"/>
      <path class="fil20" d="M48503 26625c-13,7 -23,13 -37,17 -121,46 -256,-19 -302,-139 -415,-1143 424,-1841 927,-2049 120,-50 257,7 307,129 50,121 -8,260 -126,310 -106,45 -1023,465 -667,1446 39,108 -4,230 -102,286z"/>
     </g>
     <path class="fil27" d="M45463 36558c216,534 1561,-183 2161,-1113 -457,118 -810,155 -1080,145 -476,-17 -694,-174 -777,-262 -67,100 -152,241 -223,403 -114,258 -189,565 -81,827l0 0z"/>
     <path class="fil27" d="M51827 36402c540,177 852,-619 729,-1547 -50,-393 -180,-809 -401,-1187 -191,468 -480,732 -737,881l-166 83c-250,110 -470,131 -574,135 25,77 58,177 100,285 181,480 530,1180 1049,1350l0 0z"/>
    </g>
    <g>
     <circle class="fil10" cx="48276" cy="43510" r="3517"/>
     <path class="fil12" d="M48941 44505l0 665 -2655 0 0 -665 2655 0zm-2655 -1990l0 -665c1328,0 2655,0 3983,0l-665 665c-1105,0 -2213,0 -3318,0zm3983 662c0,665 0,1328 0,1993l-665 0 0 -1328 0 0 -3318 0 0 -665c1328,0 2655,0 3983,0z"/>
    </g>
   </g>
   <path class="fil28" d="M148631 54765c0,0 4908,-7927 -2816,-8818 -6514,-751 -9592,482 -9592,482 0,0 5048,-7195 -295,-8999 -5346,-1808 -19058,2460 -19058,2460 0,0 1790,-6020 -4543,-4846 -6334,1171 -10888,5015 -10645,6753 0,0 -2651,6764 15608,5483 0,0 604,12415 19603,7658 0,0 6385,7953 11738,-173l0 0z"/>
   <path class="fil29" d="M115829 79036c-1088,37 -1959,929 -1967,2035l-17 0c-7,-1106 -879,-1998 -1967,-2035 1093,-37 1967,-936 1969,-2049l13 0c2,1113 877,2012 1969,2049z"/>
   <path class="fil29" d="M224120 11692c772,-27 1390,-660 1393,-1443l14 0c5,783 623,1416 1393,1443 -773,25 -1393,663 -1395,1450l-10 0c0,-787 -620,-1425 -1395,-1450l0 0z"/>
   <path class="fil29" d="M34258 19053c538,-18 969,-459 972,-1007l9 0c3,548 434,989 972,1007 -540,17 -972,463 -972,1013l-9 0c0,-550 -433,-996 -972,-1013z"/>
   <path class="fil29" d="M130494 22223c99,122 278,141 401,43 120,-99 140,-281 41,-403 -98,-125 -277,-143 -399,-44 -123,98 -141,279 -43,404l0 0z"/>
   <path class="fil29" d="M106855 29892c100,124 279,143 401,43 123,-97 141,-279 41,-401 -97,-125 -277,-146 -399,-46 -122,100 -140,281 -43,404l0 0z"/>
   <path class="fil29" d="M96594 26077c98,122 277,143 399,43 123,-100 141,-281 43,-404 -100,-124 -279,-142 -401,-43 -122,100 -141,279 -41,404l0 0z"/>
   <path class="fil29" d="M62047 21514c100,125 279,143 401,44 123,-100 141,-279 43,-404 -99,-122 -279,-143 -401,-43 -122,99 -140,281 -43,403z"/>
   <path class="fil29" d="M79628 33981c100,124 279,143 401,43 121,-97 141,-279 41,-401 -97,-125 -277,-146 -399,-46 -122,100 -140,281 -43,404l0 0z"/>
   <path class="fil29" d="M191708 6923c100,123 279,143 402,44 122,-100 140,-281 43,-404 -100,-125 -279,-143 -402,-43 -122,99 -140,278 -43,403z"/>
   <path class="fil29" d="M156684 34323c97,124 276,143 399,45 122,-99 140,-281 43,-403 -98,-125 -277,-143 -399,-44 -123,98 -141,279 -43,402l0 0z"/>
   <path class="fil29" d="M138162 88372c100,122 279,143 401,43 123,-100 141,-281 41,-403 -98,-125 -277,-144 -399,-44 -122,98 -141,279 -43,404l0 0z"/>
   <path class="fil29" d="M82362 45932c100,125 279,143 399,46 123,-100 143,-281 43,-404 -97,-125 -277,-145 -399,-45 -122,99 -140,281 -43,403z"/>
   <path class="fil29" d="M37351 22486c100,125 279,143 399,44 123,-98 143,-279 43,-404 -97,-122 -276,-143 -399,-43 -122,99 -140,281 -43,403z"/>
   <path class="fil29" d="M138639 76516c100,124 279,143 399,46 122,-100 143,-282 43,-404 -98,-125 -277,-143 -399,-44 -123,98 -141,279 -43,402l0 0z"/>
   <path class="fil29" d="M73321 33545c97,123 276,144 399,44 122,-100 140,-279 43,-404 -100,-122 -277,-143 -399,-43 -123,100 -143,279 -43,403z"/>
   <path class="fil29" d="M81583 28267c97,125 276,143 399,46 122,-100 140,-281 43,-404 -100,-124 -279,-143 -401,-43 -123,97 -141,279 -41,401l0 0z"/>
   <path class="fil29" d="M88568 37635c100,125 279,143 401,44 123,-100 141,-279 41,-404 -97,-122 -277,-143 -399,-43 -122,99 -140,281 -43,403l0 0z"/>
   <path class="fil29" d="M62714 26085c99,122 279,143 401,43 122,-100 140,-281 41,-403 -98,-125 -277,-143 -399,-44 -123,98 -141,279 -43,404l0 0z"/>
   <path class="fil29" d="M176857 80051c100,125 279,143 401,44 123,-98 141,-279 41,-404 -98,-122 -277,-143 -399,-43 -122,100 -141,281 -43,403l0 0z"/>
   <path class="fil29" d="M114909 63626c97,122 276,143 399,43 122,-99 140,-281 43,-403 -100,-125 -279,-143 -402,-44 -122,98 -140,279 -40,404l0 0z"/>
   <path class="fil29" d="M125002 65537c100,123 279,143 402,44 122,-100 140,-279 40,-404 -97,-122 -276,-143 -399,-43 -122,100 -140,281 -43,403l0 0z"/>
   <path class="fil29" d="M159842 49162c97,122 276,141 399,43 122,-99 140,-281 43,-403 -98,-125 -277,-143 -399,-44 -123,98 -141,279 -43,404z"/>
   <path class="fil29" d="M163529 64111c98,123 277,143 399,44 123,-100 141,-281 43,-404 -100,-124 -276,-143 -399,-43 -122,99 -142,279 -43,403z"/>
   <path class="fil29" d="M83941 79039c100,125 279,143 402,43 120,-99 140,-278 40,-403 -97,-122 -276,-143 -399,-43 -122,99 -140,281 -43,403l0 0z"/>
   <path class="fil29" d="M221513 77328c98,123 277,143 399,44 122,-100 141,-279 43,-404 -100,-122 -279,-143 -401,-43 -120,99 -141,281 -41,403l0 0z"/>
   <path class="fil29" d="M105942 81219c97,122 277,143 399,43 122,-100 140,-281 43,-403 -100,-125 -279,-143 -399,-44 -122,100 -143,279 -43,404z"/>
   <path class="fil29" d="M99269 71696c100,122 277,143 399,44 122,-100 143,-282 43,-404 -98,-125 -277,-143 -399,-43 -122,99 -141,278 -43,403z"/>
   <path class="fil29" d="M40744 13925c99,122 279,143 401,43 120,-99 141,-279 41,-403 -98,-123 -277,-144 -399,-44 -123,100 -141,281 -43,404l0 0z"/>
   <path class="fil29" d="M67330 73380c100,124 279,142 401,43 122,-100 141,-279 41,-404 -98,-122 -277,-143 -399,-43 -123,100 -141,281 -43,404l0 0z"/>
   <path class="fil29" d="M46226 61433c98,125 277,143 399,44 122,-100 141,-279 43,-404 -98,-123 -277,-143 -399,-44 -122,100 -140,282 -43,404z"/>
   <path class="fil29" d="M261858 79885c98,125 277,143 399,43 123,-99 141,-279 43,-403 -99,-123 -279,-143 -399,-44 -122,100 -142,281 -43,404z"/>
   <polygon class="fil30" points="10032,74462 10044,74401 10058,74461 "/>
   <polygon class="fil30" points="7377,71504 7377,71502 "/>
   <path class="fil29" d="M122975 34918c100,122 277,143 399,43 122,-99 143,-279 43,-403 -97,-123 -277,-144 -399,-44 -122,100 -140,281 -43,404z"/>
   <path class="fil29" d="M92929 57311c100,122 279,143 402,43 122,-99 140,-278 40,-403 -97,-123 -276,-143 -398,-44 -123,100 -141,279 -43,404l-1 0z"/>
   <path class="fil29" d="M96381 47876c99,123 279,143 399,44 122,-100 143,-279 43,-404 -98,-122 -277,-143 -399,-43 -123,99 -141,278 -43,403z"/>
   <path class="fil29" d="M120070 80465c97,123 276,143 399,44 122,-100 140,-279 43,-404 -100,-122 -279,-143 -402,-43 -122,99 -140,278 -40,403l0 0z"/>
   <path class="fil29" d="M50301 72797c100,125 279,143 401,43 123,-97 141,-279 41,-401 -98,-125 -277,-145 -399,-46 -122,100 -141,281 -43,404l0 0z"/>
   <path class="fil29" d="M109216 53525c100,123 279,143 402,44 122,-100 140,-281 40,-404 -97,-122 -276,-143 -399,-43 -122,99 -140,278 -43,403l0 0z"/>
   <path class="fil29" d="M98300 58772c100,122 279,143 402,43 122,-99 140,-281 40,-403 -97,-125 -276,-143 -399,-44 -122,100 -140,279 -43,404l0 0z"/>
   <path class="fil29" d="M79628 58422c98,122 277,143 399,43 123,-99 141,-281 43,-403 -97,-125 -276,-144 -399,-44 -122,100 -143,279 -43,404z"/>
   <path class="fil29" d="M81989 61054c98,125 277,143 399,44 123,-98 141,-279 43,-402 -100,-124 -279,-143 -401,-45 -122,99 -141,281 -41,403l0 0z"/>
   <path class="fil29" d="M173870 51663c-123,98 -143,277 -44,399 100,122 281,141 404,43 125,-98 143,-277 43,-399 -97,-122 -278,-140 -403,-43z"/>
   <path class="fil29" d="M187238 63453c-122,100 -143,279 -44,399 100,123 279,143 404,43 123,-97 143,-276 43,-399 -99,-122 -281,-140 -403,-43z"/>
   <path class="fil29" d="M241296 61854c-125,98 -143,277 -44,399 98,122 279,141 402,43 124,-100 145,-279 46,-399 -100,-122 -282,-143 -404,-43l0 0z"/>
   <path class="fil29" d="M252174 28099c-125,98 -144,277 -44,399 98,123 279,141 401,43 125,-100 146,-279 46,-401 -100,-122 -281,-141 -403,-41l0 0z"/>
   <path class="fil29" d="M138832 33540c-122,99 -143,279 -43,399 100,122 281,142 403,42 123,-97 144,-276 44,-398 -100,-123 -279,-141 -404,-43z"/>
   <path class="fil29" d="M228980 8156c-125,98 -143,277 -43,399 97,123 279,141 403,43 123,-100 141,-279 44,-401 -100,-122 -281,-141 -404,-41l0 0z"/>
   <path class="fil29" d="M200772 67183c-123,99 -143,279 -44,399 100,122 282,142 404,43 122,-98 143,-277 43,-399 -99,-122 -278,-141 -403,-43z"/>
   <path class="fil29" d="M171187 18231c-123,98 -143,277 -43,399 99,123 278,141 403,43 122,-99 143,-279 43,-401 -99,-120 -278,-141 -403,-41l0 0z"/>
   <path class="fil29" d="M211623 5777c-123,97 -143,277 -44,399 100,122 281,140 404,43 125,-98 143,-277 44,-399 -100,-122 -279,-143 -404,-43z"/>
   <path class="fil29" d="M140093 67072c-125,97 -143,277 -46,399 100,122 281,140 404,43 124,-100 143,-279 45,-402 -99,-122 -281,-140 -403,-40l0 0z"/>
   <path class="fil29" d="M152057 15039c98,125 277,143 399,46 123,-100 141,-281 43,-404 -100,-124 -276,-143 -399,-46 -122,100 -143,282 -43,404z"/>
   <path class="fil29" d="M201480 24801c98,123 277,144 399,44 123,-100 141,-281 43,-404 -97,-125 -276,-143 -399,-43 -122,97 -142,279 -43,403z"/>
   <path class="fil12" d="M45306 24457c-166,-571 -113,-1157 115,-1665 -189,-58 -322,-141 -413,-217 -13,11 -24,24 -32,41l-14 24c-243,517 -303,1118 -133,1703 239,811 868,1399 1625,1619 80,15 162,26 244,33 -651,-265 -1178,-812 -1392,-1538z"/>
   <path class="fil31" d="M47992 25792c-664,388 -1424,450 -2097,236 -32,-10 -65,-21 -97,-33 -18,-6 -36,-13 -54,-20 -89,268 -266,927 -189,1758 0,0 0,1 0,1 0,0 0,0 0,1 69,740 340,1618 1052,2479 21,-18 46,-31 74,-38 31,-8 734,-178 1495,426 819,-1269 2406,-1116 2421,-1114 10,1 19,3 28,5 43,-266 48,-832 -416,-1627 -797,-482 -1356,-979 -1658,-1277 -14,14 -30,26 -48,36 -13,7 -23,13 -37,17 -121,46 -256,-19 -302,-139 -100,-277 -127,-528 -103,-752 -23,14 -46,28 -69,41zm-1294 1932c110,192 45,435 -144,545 -189,110 -430,45 -540,-146 -110,-191 -44,-434 145,-544 190,-110 430,-46 539,145z"/>
  </g>
 </g>
</svg>
