<?xml version="1.0" encoding="UTF-8"?>
<!DOCTYPE svg PUBLIC "-//W3C//DTD SVG 1.1//EN" "http://www.w3.org/Graphics/SVG/1.1/DTD/svg11.dtd">
<!-- Creator: CorelDRAW X7 -->
<svg xmlns="http://www.w3.org/2000/svg" xml:space="preserve" width="2.67846in" height="4.86933in" version="1.1" style="shape-rendering:geometricPrecision; text-rendering:geometricPrecision; image-rendering:optimizeQuality; fill-rule:evenodd; clip-rule:evenodd"
viewBox="0 0 26785 48693"
 xmlns:xlink="http://www.w3.org/1999/xlink">
 <defs>
  <style type="text/css">
   <![CDATA[
    .fil0 {fill:#D7B77D}
    .fil1 {fill:white;fill-rule:nonzero}
   ]]>
  </style>
 </defs>
 <g id="Layer_x0020_1">
  <metadata id="CorelCorpID_0Corel-Layer"/>
  <g id="_2596526565888">
   <path class="fil0" d="M24347 0c823,0 1636,41 2438,121l0 48451c-802,80 -1615,121 -2438,121 -13447,0 -24347,-10900 -24347,-24346 0,-13447 10900,-24347 24347,-24347z"/>
   <path class="fil1" d="M5524 25669c0,119 -17,203 -50,248 -34,46 -86,68 -156,68l-222 0c-120,0 -230,-13 -329,-39 -100,-27 -186,-71 -258,-132 -72,-61 -129,-143 -169,-245 -41,-102 -61,-228 -61,-380l0 -2971 686 0 0 2875c0,124 22,203 65,235 44,33 107,50 188,50l100 0c27,0 54,2 78,8 26,7 48,19 68,37 19,20 34,48 45,87 10,38 15,91 15,159zm423 -291c-50,-139 -75,-273 -75,-405 0,-169 30,-327 90,-476 61,-149 144,-268 252,-360 -56,4 -114,6 -173,8 -60,2 -120,6 -179,13l0 -479c101,-14 202,-24 302,-31 101,-7 200,-10 298,-10 658,0 1163,158 1515,474 353,316 529,777 529,1383l0 490 -3193 0c-27,0 -54,-2 -78,-8 -26,-5 -48,-17 -68,-36 -20,-21 -35,-50 -45,-88 -11,-39 -15,-92 -15,-159 0,-120 17,-203 50,-249 34,-45 85,-67 156,-67l634 0zm1420 -485c0,105 -8,197 -25,277 -16,80 -36,149 -61,208l565 0c0,-321 -60,-569 -179,-747 -119,-178 -295,-305 -527,-383 81,102 139,214 174,335 35,123 53,225 53,310zm-740 458c40,0 72,-17 98,-50 26,-33 46,-74 60,-121 15,-47 25,-97 30,-149 5,-53 8,-99 8,-138 0,-54 -3,-108 -10,-164 -7,-56 -20,-107 -37,-155 -19,-47 -41,-87 -68,-118 -27,-32 -60,-48 -101,-48 -35,0 -65,15 -92,44 -27,29 -49,68 -67,116 -18,48 -31,101 -40,161 -9,59 -13,117 -13,174 0,43 3,91 10,143 7,53 20,101 38,147 18,46 41,83 71,113 29,30 66,45 113,45zm5662 634c7,31 13,66 18,105 5,39 8,85 8,137 0,145 -28,277 -81,396 -55,120 -150,224 -288,312 -137,88 -322,157 -554,206 -231,49 -525,73 -881,73 -345,0 -629,-32 -853,-97 -223,-66 -401,-155 -534,-270 -132,-114 -224,-248 -277,-401 -52,-152 -78,-318 -78,-497l0 -876 685 0 0 853c0,228 84,395 249,498 166,105 439,157 818,157 246,0 443,-14 593,-41 149,-28 266,-63 349,-105 84,-42 138,-86 164,-133 25,-46 38,-86 38,-120 0,-92 -90,-169 -271,-233 -182,-63 -425,-133 -731,-211l0 -629c232,74 454,137 665,189 211,53 401,80 570,80l659 0c28,0 54,2 80,8 26,7 48,19 67,37 19,20 34,48 43,87 11,38 16,91 16,159 0,119 -16,203 -50,248 -33,46 -85,68 -156,68l-268 0zm1497 -607c74,0 145,-15 212,-44 67,-29 101,-91 101,-183 0,-64 -40,-149 -119,-255 -79,-107 -184,-220 -314,-341 -131,-120 -279,-239 -444,-357 -165,-118 -332,-220 -502,-308 24,-117 53,-213 87,-288 35,-76 70,-137 105,-182 35,-45 69,-80 103,-103 33,-23 61,-40 81,-51l1843 -811 0 706 -1248 518 0 16c211,137 386,273 524,406 137,135 247,265 329,391 83,126 140,246 172,360 32,115 48,222 48,322 0,84 -12,173 -36,268 -23,94 -67,182 -133,264 -66,81 -160,148 -283,201 -122,52 -280,78 -476,78l-1279 0c-27,0 -53,-2 -78,-8 -25,-5 -47,-17 -68,-36 -19,-21 -34,-50 -44,-88 -11,-39 -15,-92 -15,-159 0,-120 16,-203 50,-249 33,-45 85,-67 155,-67l1229 0zm-1039 -2317c22,-427 174,-713 460,-859l1666 -755 0 675 -2126 939zm4106 2924c-46,0 -109,-10 -190,-32 -81,-21 -152,-67 -212,-137 -3,238 -31,438 -83,599 -53,160 -132,290 -238,388 -105,99 -239,170 -400,212 -162,42 -356,65 -582,68l0 -644c144,-3 258,-20 344,-51 84,-30 148,-74 191,-133 41,-59 68,-136 81,-230 12,-93 17,-206 17,-336l0 -1572 681 0 0 897c0,137 41,232 125,284 84,53 172,80 266,80 28,0 54,2 79,8 25,7 47,19 67,37 20,20 35,48 45,87 11,38 15,91 15,159 0,119 -16,203 -50,248 -33,46 -85,68 -156,68zm-1542 -2711c0,-102 37,-190 111,-264 74,-75 163,-113 266,-113 101,0 189,37 263,111 74,74 111,163 111,266 0,101 -37,189 -111,262 -74,74 -162,111 -263,111 -101,0 -189,-37 -264,-111 -75,-73 -113,-161 -113,-262zm862 0c0,-102 37,-190 110,-264 74,-75 161,-113 263,-113 102,0 190,37 264,111 75,74 112,163 112,266 0,101 -37,189 -111,262 -74,74 -162,111 -265,111 -102,0 -189,-37 -263,-111 -73,-73 -110,-161 -110,-262zm-418 -766c0,-101 37,-189 111,-264 74,-74 162,-112 265,-112 101,0 189,37 263,111 74,73 111,162 111,265 0,101 -37,189 -111,263 -74,74 -162,111 -263,111 -101,0 -189,-37 -264,-111 -74,-74 -112,-162 -112,-263zm1096 3477c-27,0 -54,-2 -78,-8 -26,-5 -48,-18 -68,-39 -20,-22 -34,-52 -45,-91 -11,-38 -15,-91 -15,-158 0,-121 17,-203 50,-249 34,-45 85,-68 156,-68l835 0 0 -1487 690 0 0 2100 -1525 0zm59 887c0,-101 37,-189 111,-263 73,-74 161,-111 263,-111 101,0 189,37 263,111 74,74 110,162 110,263 0,101 -36,189 -110,263 -74,74 -162,111 -263,111 -102,0 -190,-37 -263,-111 -74,-74 -111,-162 -111,-263zm858 0c0,-101 37,-189 111,-263 74,-74 163,-111 266,-111 101,0 189,37 263,111 74,74 111,162 111,263 0,101 -37,189 -111,263 -74,74 -162,111 -263,111 -101,0 -190,-37 -265,-111 -75,-74 -112,-162 -112,-263zm3155 -1203c0,245 -32,457 -95,635 -62,177 -161,324 -297,441 -136,116 -310,201 -523,255 -213,56 -469,83 -768,83l-163 0 0 -644 122 0c190,0 350,-13 478,-38 128,-24 230,-58 305,-102 76,-44 131,-96 167,-158 35,-61 56,-128 62,-202 -105,31 -233,46 -386,46 -141,0 -273,-17 -396,-52 -122,-36 -229,-93 -318,-172 -89,-79 -161,-181 -214,-307 -53,-125 -80,-275 -80,-450 0,-141 24,-281 71,-418 48,-137 116,-260 206,-370 90,-109 202,-196 337,-260 133,-64 288,-97 463,-97 195,0 357,34 489,100 131,66 236,160 315,282 79,121 137,266 172,433 35,166 53,350 53,551l0 444zm-1431 -730c0,179 36,300 106,362 70,63 168,94 291,94 141,0 257,-24 348,-75l0 -257c0,-179 -26,-321 -79,-428 -52,-106 -147,-160 -284,-160 -138,0 -236,46 -294,136 -59,92 -88,201 -88,328z"/>
  </g>
 </g>
</svg>
