<?xml version="1.0" encoding="UTF-8"?>
<!DOCTYPE svg PUBLIC "-//W3C//DTD SVG 1.1//EN" "http://www.w3.org/Graphics/SVG/1.1/DTD/svg11.dtd">
<!-- Creator: CorelDRAW X7 -->
<svg xmlns="http://www.w3.org/2000/svg" xml:space="preserve" width="2.22748in" height="2.19681in" version="1.1" style="shape-rendering:geometricPrecision; text-rendering:geometricPrecision; image-rendering:optimizeQuality; fill-rule:evenodd; clip-rule:evenodd"
viewBox="0 0 22275 21968"
 xmlns:xlink="http://www.w3.org/1999/xlink">
 <defs>
  <style type="text/css">
   <![CDATA[
    .fil3 {fill:#A38755}
    .fil0 {fill:#BFCBE5}
    .fil1 {fill:#E9EDF6}
    .fil2 {fill:#F5F7FA}
   ]]>
  </style>
 </defs>
 <g id="Layer_x0020_1">
  <metadata id="CorelCorpID_0Corel-Layer"/>
  <g id="_2596533684992">
   <circle class="fil0" cx="11599" cy="11292" r="10675"/>
   <circle class="fil1" transform="matrix(1.31414 -0.231719 0.231719 1.31414 10677.2 10677.5)" r="8000"/>
   <circle class="fil2" transform="matrix(0.870252 -0.153449 0.153449 0.870251 11154.8 13364.9)" r="8000"/>
   <path class="fil3" d="M14996 15143l1619 0 0 388 -2135 0 -194 -193 0 -2136 388 0 0 1713c41,-39 81,-79 121,-119 1101,-1100 1707,-2563 1707,-4119 0,-1556 -606,-3018 -1707,-4118 -1099,-1100 -2562,-1707 -4118,-1707 -858,0 -1688,185 -2444,535l0 -425c762,-327 1590,-498 2444,-498 1659,0 3220,647 4393,1821 1174,1172 1821,2733 1821,4392 0,1660 -647,3220 -1821,4393 -24,25 -49,49 -74,73zm-8315 -8704l0 1714 387 0 0 -2136 -194 -193 -2135 0 0 387 1619 0c-25,25 -50,49 -74,74 -1174,1172 -1820,2733 -1820,4392 0,1660 646,3220 1820,4393 1174,1174 2733,1821 4393,1821 854,0 1682,-172 2445,-498l0 -426c-757,350 -1586,535 -2445,535 -1556,0 -3018,-606 -4119,-1706 -1100,-1100 -1706,-2563 -1706,-4119 0,-1556 606,-3018 1706,-4118 40,-41 81,-81 123,-120zm5881 5849l-1691 -1690 0 -3803 -388 0 0 3963 1804 1805 275 -275zm-7322 -1804l777 0 0 387 -777 0 0 -387zm10098 0l776 0 0 387 -776 0 0 -387zm-4855 4854l388 0 0 776 -388 0 0 -776zm0 -10097l388 0 0 776 -388 0 0 -776z"/>
  </g>
 </g>
</svg>
