<?xml version="1.0" encoding="UTF-8"?>
<!DOCTYPE svg PUBLIC "-//W3C//DTD SVG 1.1//EN" "http://www.w3.org/Graphics/SVG/1.1/DTD/svg11.dtd">
<!-- Creator: CorelDRAW X7 -->
<svg xmlns="http://www.w3.org/2000/svg" xml:space="preserve" width="22.7667in" height="9.54969in" version="1.1" style="shape-rendering:geometricPrecision; text-rendering:geometricPrecision; image-rendering:optimizeQuality; fill-rule:evenodd; clip-rule:evenodd"
viewBox="0 0 227667 95497"
 xmlns:xlink="http://www.w3.org/1999/xlink">
 <defs>
  <style type="text/css">
   <![CDATA[
    .fil0 {fill:none}
    .fil20 {fill:none;fill-rule:nonzero}
    .fil11 {fill:#75613D}
    .fil8 {fill:#927C53}
    .fil1 {fill:#A38755}
    .fil3 {fill:#AB9162}
    .fil10 {fill:#BB9B61}
    .fil2 {fill:#D2AE6D}
    .fil12 {fill:#D7B77D}
    .fil23 {fill:#EEE0C6}
    .fil4 {fill:#FBF9F4}
    .fil9 {fill:white}
    .fil19 {fill:#75613D;fill-rule:nonzero}
    .fil16 {fill:#8B7A5B;fill-rule:nonzero}
    .fil6 {fill:#A38755;fill-rule:nonzero}
    .fil5 {fill:#BB9B61;fill-rule:nonzero}
    .fil7 {fill:#D2AE6D;fill-rule:nonzero}
    .fil14 {fill:#DBBE8A;fill-rule:nonzero}
    .fil13 {fill:#EDDFC4;fill-rule:nonzero}
    .fil15 {fill:#FBF9F4;fill-rule:nonzero}
    .fil22 {fill:#707070;fill-rule:nonzero;fill-opacity:0.007843}
    .fil21 {fill:white;fill-rule:nonzero;fill-opacity:0.007843}
    .fil18 {fill:url(#id0)}
    .fil17 {fill:url(#id1)}
   ]]>
  </style>
  <linearGradient id="id0" gradientUnits="userSpaceOnUse" x1="106285" y1="14093.3" x2="113039" y2="14093.3">
   <stop offset="0" style="stop-opacity:1; stop-color:#D7C1A3"/>
   <stop offset="0.160784" style="stop-opacity:1; stop-color:#D7C1A3"/>
   <stop offset="0.380392" style="stop-opacity:1; stop-color:#D7C5AA"/>
   <stop offset="0.470588" style="stop-opacity:1; stop-color:#D7C4A7"/>
   <stop offset="0.701961" style="stop-opacity:1; stop-color:#D5BF9C"/>
   <stop offset="0.901961" style="stop-opacity:1; stop-color:#D6B67E"/>
   <stop offset="1" style="stop-opacity:1; stop-color:#D6B67E"/>
  </linearGradient>
  <linearGradient id="id1" gradientUnits="userSpaceOnUse" x1="106089" y1="14095" x2="113045" y2="14095">
   <stop offset="0" style="stop-opacity:1; stop-color:#D1AE70"/>
   <stop offset="0.839216" style="stop-opacity:1; stop-color:#D1B27E"/>
   <stop offset="0.301961" style="stop-opacity:1; stop-color:#D1AE70"/>
   <stop offset="0.501961" style="stop-opacity:1; stop-color:#D0B484"/>
   <stop offset="0.8" style="stop-opacity:1; stop-color:#D0B68D"/>
   <stop offset="1" style="stop-opacity:1; stop-color:#D0B68D"/>
  </linearGradient>
 </defs>
 <g id="Layer_x0020_1">
  <metadata id="CorelCorpID_0Corel-Layer"/>
  <g id="_2598378809488">
   <rect class="fil0" width="227667" height="95497"/>
   <g>
    <path class="fil1" d="M216332 77303c251,0 457,209 457,460 0,252 -206,457 -457,457 -253,0 -458,-205 -458,-457 0,-251 205,-460 458,-460zm-1067 8653c-2359,1405 -6264,2567 -9516,2868 -5291,489 -10805,-279 -11576,-4413 -378,-2039 551,-4199 1783,-5541l0 -718c-2218,1945 -3421,4406 -2729,7315 885,3730 5617,5844 12840,5142 2857,-279 6598,-1198 9198,-2625l0 -2028zm-1815 -8745l0 6176c0,725 352,1354 1387,1454l0 -7630 -1387 0zm-3113 2163c-1446,0 -2547,1012 -2547,2801 0,2093 1261,2812 2578,2812 1006,0 1577,-327 2122,-864l-850 -811c-352,349 -654,518 -1262,518 -781,0 -1219,-518 -1219,-1222l3491 0 0 -496c0,-1553 -847,-2738 -2313,-2738zm-1046 1708c152,-329 516,-571 986,-570 705,0 972,570 999,1159l-2117 0c11,-241 42,-392 132,-589zm-4260 -3097l0 5357c0,770 476,1551 1597,1551l813 0 0 -1147 -559 0c-328,0 -477,-175 -477,-491l0 -2679 1036 0 0 -1110 -1036 0 0 -1481 -1374 0zm-5488 1481l0 5434 1377 0 0 -4324 1137 0c404,0 572,200 572,523l0 3801 1373 0 0 -3808c0,-773 -411,-1624 -1618,-1624l-2841 -2zm-1221 0l-1389 0 -1 4035c0,727 353,1356 1390,1456l0 -5491zm-1389 -751l1386 0 0 -1317 -1386 0 0 1317zm21445 -213c331,1866 -720,3811 -2598,4930l0 1463c2260,-827 4578,-3509 3905,-6791 -1257,-6128 -13151,-6516 -20817,-1848l0 515c7658,-3936 18520,-3913 19510,1731zm-2067 -969c90,0 129,21 129,88l0 11c0,63 -39,93 -129,93l-86 -2 0 -190 86 0zm0 309l140 237c4,8 12,14 22,14l102 0c17,0 23,-11 23,-20 0,-6 -4,-13 -5,-18l-145 -246c76,-25 126,-78 126,-177l0 -11c0,-160 -103,-211 -274,-211 -48,0 -137,3 -170,8 -29,4 -42,19 -42,53l0 596c0,12 11,26 23,26l93 0c16,0 25,-14 25,-26l0 -236 63 0c5,0 17,6 19,11zm21 473c303,0 553,-248 553,-552 0,-303 -250,-552 -553,-552 -308,0 -552,249 -552,552 0,304 244,552 552,552z"/>
    <g>
     <g>
      <polygon class="fil2" points="160126,4911 160126,4911 160126,4911 150283,8420 151784,21435 160126,26055 160126,26055 160126,26055 168467,21435 169968,8420 "/>
      <polygon class="fil3" points="160126,4911 160126,7257 160126,7247 160126,17956 160126,17956 160126,26055 160126,26055 168467,21435 169968,8420 "/>
      <path class="fil4" d="M160126 7247l-6153 13797 0 0 2294 0 0 0 1237 -3087 5222 -1 1237 3087 0 1 2294 0 0 0 -6131 -13797 0 0 0 0 0 0 0 0zm1797 8806l-3594 0 1797 -4324 1797 4324z"/>
     </g>
    </g>
    <g id="_1597016869696">
     <g>
      <path class="fil5" d="M195751 15498c0,-5886 4796,-10682 10682,-10682 5887,0 10651,4796 10651,10682 0,5886 -4764,10651 -10651,10651 -5886,0 -10682,-4765 -10682,-10651z"/>
      <path class="fil6" d="M214655 8740c1526,1838 2429,4173 2429,6758 0,5886 -4764,10651 -10651,10651 -3301,0 -6228,-1495 -8191,-3830 0,0 8036,3083 12987,-1869 4952,-4952 3426,-11710 3426,-11710l0 0z"/>
      <path class="fil7" d="M198317 10083c0,-2024 1649,-3674 3673,-3674 2025,0 3663,1650 3663,3674 0,2024 -1639,3663 -3663,3663 -2024,0 -3673,-1639 -3673,-3663z"/>
     </g>
     <g>
      <polygon class="fil4" points="209831,9225 204142,9225 203004,9225 203004,10363 204142,10363 208693,10363 209831,9225 "/>
      <polygon class="fil4" points="209831,11500 204142,11500 203004,11500 203004,12638 204142,12638 208693,12638 208693,13776 208693,14914 209831,14914 209831,13776 "/>
      <polygon class="fil4" points="207556,13775 204142,13775 203004,13775 203004,14914 207556,14914 207556,13776 "/>
      <polygon class="fil4" points="209831,16052 203004,16052 203004,17190 208693,17190 "/>
      <polygon class="fil4" points="203004,18327 209831,18327 208693,19465 204142,19465 204142,21741 203004,21741 "/>
     </g>
    </g>
    <g>
     <g>
      <circle class="fil8" cx="67541" cy="80014" r="10667"/>
      <path class="fil9" d="M60479 79196l190 0 0 527 11 0c20,-80 55,-156 105,-228 50,-72 111,-135 183,-189 72,-53 152,-95 241,-125 89,-30 182,-45 279,-45 123,0 231,16 321,47 90,32 167,74 231,126 63,52 114,110 150,176 37,65 62,131 76,198l10 0c77,-181 180,-317 308,-409 129,-92 299,-138 510,-138 117,0 225,17 324,52 98,36 184,89 256,161 72,72 128,163 168,274 40,110 60,241 60,391l0 1762 -191 0 0 -1767c0,-164 -25,-293 -75,-386 -50,-94 -110,-165 -178,-214 -69,-48 -137,-78 -206,-90 -69,-12 -121,-18 -158,-18 -117,0 -225,21 -324,61 -99,40 -184,100 -256,180 -72,81 -128,180 -168,299 -40,119 -60,255 -60,409l0 1526 -191 0 0 -1767c0,-160 -24,-288 -73,-384 -48,-95 -105,-166 -170,-213 -66,-47 -133,-77 -201,-90 -69,-14 -123,-21 -163,-21 -91,0 -184,19 -281,56 -97,36 -186,93 -266,170 -81,77 -146,176 -196,296 -50,121 -76,263 -76,427l0 1526 -190 0 0 -2580zm3870 1290c0,-184 26,-357 78,-519 52,-163 128,-306 228,-430 100,-123 224,-221 371,-293 148,-72 317,-108 508,-108 190,0 359,36 506,108 148,72 272,170 372,293 100,124 176,267 228,430 52,162 78,335 78,519 0,184 -26,358 -78,522 -52,164 -128,307 -228,429 -100,122 -224,219 -372,291 -147,72 -316,108 -506,108 -191,0 -360,-36 -508,-108 -147,-72 -271,-169 -371,-291 -100,-122 -176,-265 -228,-429 -52,-164 -78,-338 -78,-522l0 0zm191 0c0,154 21,302 65,444 43,143 107,269 191,379 83,111 187,199 311,264 124,65 266,98 427,98 160,0 302,-33 426,-98 124,-65 228,-153 311,-264 84,-110 148,-236 191,-379 44,-142 65,-290 65,-444 0,-154 -21,-302 -65,-444 -43,-142 -107,-269 -191,-379 -83,-111 -187,-198 -311,-264 -124,-65 -266,-98 -426,-98 -161,0 -303,33 -427,98 -124,66 -228,153 -311,264 -84,110 -148,237 -191,379 -44,142 -65,290 -65,444l0 0zm4567 -492c-10,-114 -39,-214 -87,-301 -49,-87 -112,-159 -189,-216 -77,-57 -166,-100 -268,-130 -102,-31 -212,-46 -329,-46 -161,0 -303,33 -427,98 -123,66 -227,153 -311,261 -84,109 -147,233 -191,372 -43,139 -65,282 -65,429 0,174 20,335 60,482 41,147 102,275 186,384 84,109 188,193 311,253 124,61 270,91 437,91 120,0 232,-20 334,-61 102,-40 192,-95 271,-165 79,-70 143,-155 193,-254 50,-98 84,-206 101,-323l190 0c-20,153 -62,291 -125,411 -64,121 -144,222 -241,304 -97,82 -208,145 -331,188 -124,44 -255,65 -392,65 -211,0 -391,-37 -540,-113 -148,-75 -271,-176 -366,-303 -95,-127 -166,-274 -211,-440 -45,-165 -68,-338 -68,-519 0,-181 26,-351 78,-512 52,-161 128,-301 229,-422 100,-120 224,-216 371,-286 147,-70 316,-105 507,-105 141,0 272,17 394,52 122,36 231,88 326,159 96,70 174,159 234,268 60,109 97,235 110,379l-191 0zm854 -1802l0 1556 10 0c33,-97 81,-183 143,-258 62,-76 134,-140 216,-194 82,-53 171,-93 268,-120 97,-27 196,-40 296,-40 151,0 279,18 384,55 106,37 192,85 259,146 67,60 120,128 158,203 39,75 66,151 83,228 17,77 27,152 30,224 3,72 5,134 5,188l0 1596 -191 0 0 -1631c0,-64 -5,-144 -15,-241 -10,-97 -39,-190 -88,-279 -48,-89 -122,-165 -220,-228 -99,-64 -236,-96 -410,-96 -147,0 -277,27 -391,81 -114,53 -211,128 -291,223 -81,95 -142,209 -183,341 -42,133 -63,277 -63,435l0 1395 -191 0 0 -3584 191 0zm4126 3072l-10 0c-30,77 -74,150 -131,218 -57,69 -126,130 -208,184 -82,53 -175,95 -279,125 -103,30 -217,45 -341,45 -274,0 -487,-59 -637,-178 -151,-119 -226,-302 -226,-550 0,-150 30,-273 90,-368 60,-96 136,-171 229,-226 92,-56 194,-95 306,-118 112,-24 220,-40 323,-50l297 -26c137,-10 245,-26 323,-47 79,-22 138,-52 179,-91 40,-38 65,-87 75,-148 10,-60 15,-135 15,-226 0,-70 -13,-135 -40,-195 -27,-61 -69,-114 -126,-161 -57,-47 -130,-84 -221,-110 -90,-27 -200,-41 -331,-41 -231,0 -417,57 -560,171 -142,114 -220,286 -233,517l-191 0c14,-284 105,-498 274,-640 169,-142 409,-213 720,-213 311,0 538,61 680,183 143,122 214,282 214,479l0 1501c0,37 1,74 2,111 2,36 8,70 18,100 10,30 26,54 50,73 23,18 57,27 100,27 34,0 81,-5 141,-15l0 161c-50,13 -102,20 -156,20 -77,0 -138,-10 -183,-30 -45,-20 -79,-47 -103,-80 -23,-34 -39,-73 -48,-118 -8,-45 -12,-95 -12,-148l0 -136zm0 -954c-47,57 -118,96 -213,116 -96,20 -202,35 -319,45l-321 30c-94,10 -188,24 -282,43 -93,18 -178,49 -253,93 -75,43 -136,103 -183,178 -47,75 -70,173 -70,293 0,191 60,333 180,425 121,92 286,138 497,138 218,0 390,-40 517,-118 127,-79 224,-169 291,-271 67,-102 110,-201 128,-296 19,-96 28,-160 28,-194l0 -482z"/>
     </g>
    </g>
    <g>
     <g>
      <path class="fil1" d="M21249 58415c5891,0 10667,-4776 10667,-10667 0,-5891 -4776,-10666 -10667,-10666 -5891,0 -10666,4775 -10666,10666 0,5891 4775,10667 10666,10667l0 0zm0 -1600c-5007,0 -9066,-4059 -9066,-9067 0,-5007 4059,-9066 9066,-9066 5008,0 9067,4059 9067,9066 0,5008 -4059,9067 -9067,9067l0 0z"/>
      <path class="fil2" d="M21249 56282c4713,0 8534,-3821 8534,-8534 0,-4712 -3821,-8533 -8534,-8533 -4713,0 -8533,3821 -8533,8533 0,4713 3820,8534 8533,8534l0 0zm0 -16534c-294,0 -533,240 -533,537l0 6930 -3735 0c-294,0 -532,237 -532,533 0,295 243,534 531,534l4803 0 0 -8000c0,-295 -237,-534 -534,-534l0 0z"/>
     </g>
    </g>
    <g>
     <path class="fil10" d="M152300 49160l429 -1322 1199 -3696c-91,-145 -195,-282 -313,-411 -615,-682 -1516,-1022 -2703,-1022l-4172 0 0 10079 2557 0 0 -3460 1660 0c503,0 950,-56 1343,-168zm-2044 -1788l-959 0 0 -2708 966 0c580,0 990,121 1231,364 241,242 361,566 361,972 0,409 -106,733 -318,973 -231,266 -659,399 -1281,399z"/>
     <polygon class="fil8" points="154977,46254 153622,50428 154998,52788 157649,52788 159567,46947 161396,52788 164055,52788 168119,42709 165424,42709 162644,49222 160667,42709 158596,42709 156474,49222 "/>
     <polygon class="fil10" points="167216,49027 166443,50983 170063,50983 170712,52788 173511,52788 169715,42709 168390,46060 169449,49027 "/>
    </g>
    <path class="fil1" d="M108932 79881l384 4026c100,250 1982,866 4463,866 2483,0 4365,-616 4464,-867l551 -4786 -132 122c-159,147 -308,274 -448,380 -140,106 -278,188 -411,246 -134,58 -277,87 -430,87 -143,0 -253,-31 -332,-94 -78,-62 -117,-148 -117,-258l0 -25c0,-7 1,-17 3,-28 7,-67 37,-144 88,-231 50,-87 112,-177 183,-271 72,-94 148,-189 229,-284 81,-96 156,-187 225,-273 68,-86 125,-165 170,-236 46,-71 68,-129 68,-174 0,-27 -9,-48 -28,-64 -19,-15 -50,-23 -93,-23 -75,0 -153,20 -233,59 -80,39 -159,91 -238,157 -78,66 -154,141 -228,226 -75,84 -144,173 -209,264 -65,92 -125,184 -178,276 -54,93 -100,178 -137,256l-48 104 -68 150 -78 173 -75 167 -60 140 -39 86c-9,20 -25,58 -46,114l-75 195 -89 236 -88 234 -72 195c-20,55 -34,93 -39,113 -19,58 -41,113 -67,164 -25,52 -54,97 -87,136 -33,39 -71,70 -113,93 -43,24 -90,36 -143,36 -68,0 -124,-17 -168,-49 -44,-32 -66,-94 -66,-186 0,-44 5,-90 17,-137 11,-47 25,-93 42,-139 17,-46 34,-90 52,-133l50 -126c101,-223 205,-447 310,-671 106,-224 207,-446 304,-666l59 -136 -18 17c-122,119 -244,223 -366,313 -121,91 -242,163 -361,216 -120,54 -236,80 -349,80 -77,0 -142,-12 -194,-36 -52,-25 -93,-58 -124,-101 -31,-42 -53,-92 -66,-150 -5,-20 -8,-41 -11,-61 -33,25 -66,50 -100,74 -116,83 -231,149 -344,199 -113,50 -215,75 -305,75 -91,0 -164,-30 -221,-90 -56,-60 -84,-163 -84,-308 0,-102 15,-222 45,-358 -49,87 -110,175 -184,265 -73,89 -157,170 -251,244 -95,73 -200,133 -317,179 -116,46 -244,68 -381,68 -62,0 -122,-7 -179,-23 -58,-16 -108,-42 -152,-80 -43,-38 -78,-89 -104,-152 -26,-64 -40,-144 -40,-240l12 -102c7,-66 31,-169 72,-311 40,-142 103,-325 187,-550 85,-226 205,-499 359,-820 40,-85 86,-146 137,-183 52,-36 108,-55 168,-55 27,0 54,4 82,12 29,8 55,20 79,37 25,16 45,38 60,63 15,26 22,55 22,89 0,22 -2,44 -8,63 -10,39 -30,88 -61,149l-109 211 -131 256c-46,92 -89,186 -128,285 -40,98 -74,198 -102,299 -28,102 -44,200 -48,296 0,40 9,77 28,111 19,33 50,50 93,50 123,0 239,-40 351,-121 111,-80 213,-180 308,-299 94,-119 179,-248 255,-385 76,-137 140,-262 191,-376 36,-76 67,-158 94,-245 28,-87 57,-167 89,-241 33,-73 69,-134 111,-184 41,-49 93,-73 155,-73 68,0 121,26 161,77 40,51 59,112 59,184 0,40 -12,95 -38,166 -25,70 -57,150 -96,240l-126 290c-45,102 -87,207 -125,313 -39,106 -71,209 -96,311 -26,101 -38,196 -38,283 0,80 41,120 124,120 58,0 131,-20 217,-60 87,-40 178,-97 273,-169l71 -57c27,-109 58,-211 94,-303 66,-174 133,-347 201,-518l186 -472 856 -2158c34,-87 80,-149 137,-185 58,-35 116,-53 174,-53 58,0 111,19 160,57 48,38 72,99 72,184 0,40 -8,82 -24,127 -16,45 -37,93 -61,144 -47,105 -103,233 -168,385 -65,151 -135,316 -209,495 -75,178 -151,364 -229,557l-229 564c-74,183 -144,356 -209,520l-168 427c-21,51 -41,111 -61,179 -20,68 -29,129 -29,182 0,34 5,60 17,80 11,21 32,31 64,31 40,0 89,-14 149,-42 59,-28 123,-65 192,-111 69,-45 140,-98 215,-157 74,-59 148,-120 221,-184 74,-64 144,-127 211,-191 67,-63 126,-122 179,-175 13,-13 27,-22 44,-29 31,-95 61,-188 86,-279l62 -171c27,-73 57,-146 91,-217 34,-72 72,-134 114,-186 42,-52 88,-79 137,-79 75,0 130,18 164,52 34,35 51,85 51,152 0,14 -2,35 -6,64l-14 92c-6,32 -12,63 -18,92 -7,29 -13,50 -19,64 70,-76 145,-151 226,-226 81,-75 165,-143 252,-203 86,-60 175,-109 265,-147 91,-38 181,-57 272,-57 62,0 123,9 184,27 62,18 116,44 164,79 48,34 88,78 118,130 30,53 45,113 45,182 0,92 -23,190 -69,293 -47,104 -104,208 -174,313 -70,105 -145,207 -226,306 -81,100 -157,190 -228,271l-178 208c-47,57 -73,95 -74,115 0,27 8,49 25,66 17,16 45,25 85,25 32,0 79,-18 141,-54 62,-36 149,-98 261,-186 112,-88 255,-206 427,-354 118,-102 256,-223 412,-361l747 -6920c-120,67 -245,109 -319,133 -309,102 -745,193 -1297,270 -1114,156 -2592,241 -4163,241 -1570,0 -3048,-85 -4162,-241 -552,-77 -988,-168 -1297,-270 -74,-24 -199,-66 -319,-132l690 6351c32,-110 68,-219 107,-328 81,-223 175,-441 281,-654 107,-213 223,-414 348,-604 125,-190 258,-364 400,-524 141,-159 286,-296 435,-411 148,-115 299,-205 450,-270 152,-64 302,-97 451,-97 171,0 337,47 497,141 160,94 310,245 449,455 32,47 52,94 61,142 8,48 13,93 13,136 0,100 -24,179 -72,237 -48,58 -105,87 -171,87 -61,0 -117,-31 -168,-95 -52,-64 -110,-155 -174,-273 -61,-107 -127,-184 -199,-232 -73,-48 -151,-72 -236,-72 -132,0 -273,54 -423,164 -149,109 -298,253 -444,433 -147,180 -288,385 -423,616 -134,231 -254,467 -357,709 -104,242 -186,481 -247,716 -62,235 -92,447 -92,634 0,63 4,127 12,193 9,65 25,125 49,179 23,53 55,97 96,132 40,34 91,52 154,52 69,0 148,-24 237,-71 88,-46 180,-108 275,-184 95,-75 191,-161 287,-257 96,-96 186,-193 268,-291 83,-99 157,-193 221,-283 64,-90 112,-169 144,-236l263 -786c32,-85 73,-145 125,-181 52,-36 105,-54 160,-54 26,0 53,5 79,14 26,9 50,23 71,42 20,19 37,43 49,73 12,30 18,65 18,106 0,107 -9,207 -28,301 -19,94 -43,185 -72,274 -29,89 -62,179 -97,269 -36,91 -71,185 -105,283 -7,11 -21,46 -41,106l-72 222c-28,89 -59,189 -92,300l-101 338 -101 338 -86 299 -63 224 -31 107c-10,36 -25,76 -46,119 -20,44 -45,85 -73,124 -28,39 -59,71 -93,97 -34,25 -69,38 -105,38 -60,0 -104,-20 -131,-60 -28,-40 -41,-114 -41,-221l0 -46c0,-16 1,-33 3,-51 1,-35 16,-102 42,-201 26,-98 58,-209 95,-332 36,-124 76,-252 118,-385l115 -357c-100,112 -208,223 -325,333 -117,111 -237,210 -359,298 -122,88 -246,160 -370,216 -124,56 -244,84 -359,84 -132,0 -245,-29 -340,-87 -17,-11 -34,-23 -50,-34zm5993 -8620l-9 34c-4,6 -5,11 -5,17 0,67 250,122 559,122 309,0 560,-55 560,-122l10 -42c79,31 125,68 125,109 0,104 -311,189 -695,189 -384,0 -695,-85 -695,-189 0,-45 56,-85 150,-118zm1328 -853l508 -2059 2906 -3069 3 -3c61,-69 -64,-285 -271,-469 -207,-185 -431,-247 -500,-177l-2 1 -3101 3263 -637 2462c-427,-14 -872,-21 -1329,-21 -3230,0 -5849,361 -5849,807 0,445 2619,807 5849,807 3230,0 5849,-362 5849,-807 0,-326 -1405,-607 -3426,-735zm-2474 14634c-1517,0 -2690,-228 -3254,-364 -385,-93 -695,-189 -930,-288l752 1285 294 4014c0,451 1430,815 3193,815 1764,0 3194,-364 3194,-815l233 -4058 711 -1245c-236,100 -548,198 -939,292 -564,136 -1736,364 -3254,364z"/>
    <g>
     <path class="fil1" d="M66344 13761c-208,-7 -381,156 -388,364 -1,8 -1,16 0,24l0 1868c-902,-723 -2219,-580 -2943,322 -299,371 -461,834 -461,1311 -20,1155 901,2108 2056,2128 1156,19 2109,-901 2128,-2057 1,-23 1,-47 0,-71l0 -3499c3,-105 -38,-206 -114,-279 -74,-72 -174,-112 -278,-109l0 -2zm17149 3087c-332,-777 -1094,-1282 -1939,-1287 -1155,0 -2092,936 -2092,2091 0,0 0,1 0,1 0,1156 936,2093 2092,2093 502,0 988,-180 1368,-508 5,-5 14,-12 15,-14 34,-28 64,-60 89,-97 125,-180 80,-429 -101,-555 -151,-98 -351,-80 -482,44 -13,11 -50,45 -56,50l-5 5c-111,95 -239,169 -376,220 -145,51 -298,76 -452,74 -141,1 -282,-22 -417,-67 -131,-43 -254,-107 -366,-188 -111,-82 -209,-180 -290,-292 -82,-114 -145,-241 -186,-375l2958 0c104,2 205,-38 278,-111 77,-72 118,-173 114,-278 3,-275 -49,-549 -153,-805l1 -1zm3631 -1031c-76,-71 -166,-125 -264,-158 -112,-40 -228,-67 -347,-81 -117,-14 -235,-21 -353,-22 -239,0 -477,41 -702,123 -221,80 -427,196 -610,343l0 -78c-9,-215 -190,-383 -406,-375 -204,8 -367,171 -376,375l0 3408c9,215 191,384 407,375 203,-8 367,-171 375,-375l0 -1704c-1,-176 34,-350 102,-512 66,-155 161,-297 280,-416 120,-119 261,-214 417,-280 162,-69 336,-104 512,-103 175,-1 349,30 512,94 51,24 107,38 164,40 53,1 105,-9 153,-29 46,-20 88,-49 122,-85 35,-35 64,-76 84,-122 22,-48 32,-100 32,-153 4,-98 -34,-193 -105,-261l3 -4zm-14243 903c121,-119 263,-215 419,-281 162,-69 336,-103 512,-102 156,-1 310,26 456,82 145,58 280,141 399,244 72,57 162,88 254,86 106,5 208,-35 282,-110 73,-74 113,-175 110,-280 2,-114 -48,-222 -134,-295 -375,-335 -862,-517 -1364,-508 -1156,0 -2093,936 -2093,2092 -3,1154 931,2092 2085,2095 503,1 991,-180 1372,-509 78,-75 122,-179 122,-288 7,-207 -156,-381 -364,-388 -8,-1 -17,-1 -25,0 -89,0 -175,29 -247,81 -116,103 -250,185 -395,241 -146,55 -300,82 -456,81 -176,1 -350,-34 -512,-102 -156,-67 -298,-162 -418,-281 -513,-509 -515,-1338 -6,-1851 2,-2 4,-4 6,-6l-3 -1zm-2168 -552c-818,-816 -2143,-816 -2960,2 -391,392 -612,924 -612,1478 -19,1155 901,2108 2057,2128 1155,20 2108,-901 2128,-2057 0,-23 0,-47 0,-71 0,-275 -53,-548 -155,-803 -106,-254 -262,-484 -458,-677l0 0zm-271 1984c-66,155 -162,296 -280,417 -120,120 -261,216 -417,284 -328,139 -699,139 -1027,0 -313,-134 -562,-385 -693,-699 -138,-325 -138,-692 0,-1016 132,-313 381,-562 693,-694 328,-139 699,-139 1027,0 156,68 297,164 417,284 118,121 214,262 280,417 137,324 137,689 0,1012l0 -5zm-4589 2c-134,314 -384,565 -697,701 -328,139 -699,139 -1027,0 -313,-135 -562,-385 -693,-699 -138,-325 -138,-692 0,-1016 131,-313 380,-562 693,-696 328,-139 699,-139 1027,0 313,136 563,387 697,701 137,323 137,689 0,1012l0 -3zm-11884 -7753l0 1426 1425 0 0 -1426 -1425 0zm31657 9156l0 -312 133 0c33,0 57,3 72,9 16,5 28,15 37,30 9,14 13,30 13,49 0,23 -7,42 -20,58 -14,15 -34,24 -62,28 14,8 25,17 34,26 9,10 21,27 36,51l37 61 -75 0 -45 -68c-16,-24 -27,-40 -33,-46 -6,-6 -12,-11 -19,-13 -7,-2 -17,-3 -32,-3l-12 0 0 130 -64 0zm133 -471c87,0 166,35 223,92l0 0c57,57 93,136 93,223 0,87 -36,166 -93,223 -57,57 -136,92 -223,92 -87,0 -165,-35 -223,-92l0 0c-57,-57 -92,-136 -92,-223 0,-87 35,-166 92,-223l0 0 1 0c57,-57 135,-92 222,-92zm183 133c-47,-47 -111,-76 -183,-76 -71,0 -135,29 -182,76l0 0c-47,46 -76,111 -76,182 0,71 29,136 76,182l0 1c47,46 111,75 182,75 72,0 136,-29 183,-76 46,-46 75,-111 75,-182 0,-71 -29,-136 -75,-182l0 0zm-252 158l46 0c30,0 49,-1 56,-4 8,-2 14,-7 18,-13 4,-6 6,-14 6,-23 0,-11 -2,-19 -8,-26 -6,-6 -13,-10 -24,-12 -5,-1 -20,-1 -45,-1l-49 0 0 79zm-5396 -2111c40,-135 102,-262 183,-376 81,-112 180,-210 292,-291 113,-81 238,-145 370,-189 134,-44 274,-67 415,-67 140,0 279,23 412,67 264,88 493,256 657,480 84,114 148,241 189,376l-2518 0zm6830 -1449l0 0 0 0zm-14243 903l0 0 0 0zm6482 -776c0,-51 -10,-102 -31,-149 -21,-45 -50,-87 -85,-122 -34,-36 -76,-65 -122,-84 -48,-20 -100,-31 -153,-30 -74,-1 -147,21 -209,61l-2234 1453 0 -2918c2,-105 -39,-205 -114,-278 -72,-76 -172,-118 -276,-116 -215,-1 -391,172 -392,387 0,2 0,3 0,5l0 5193c-1,104 40,204 114,276 72,76 173,118 278,116 104,2 204,-40 275,-116 74,-72 115,-172 114,-276l0 -1347 456 -298 1726 1938c70,68 164,104 261,101 53,1 105,-10 153,-30 46,-19 88,-48 122,-83 36,-37 65,-79 85,-126 21,-47 32,-98 31,-149 1,-101 -38,-199 -108,-273l-1605 -1808 1565 -1016c101,-70 158,-188 149,-311zm-8921 2208l0 0 0 0zm-4589 2l0 0 0 0zm-14005 -4499l0 -1426 -1426 0 0 1426 1426 0zm1792 0l0 -1426 -1426 0 0 1426 1426 0zm329 0l1425 0 0 -1426 -1425 0 0 1426zm1425 1791l0 -1426 -1425 0 0 1426 1425 0zm329 -1426l0 1426 1426 0 0 -1426 -1426 0zm-5045 3431c-225,0 -408,183 -408,408 0,226 183,408 408,408 226,0 409,-182 409,-408 0,-225 -183,-408 -409,-408zm-585 -2005l0 -1426 -1426 0 0 1426 1426 0zm1755 0l0 -1426 -1426 0 0 1426 1426 0zm366 0l1426 0 0 -1426 -1426 0 0 1426zm5155 402l-9469 0c-192,1149 264,2630 1117,3451 902,867 2151,1265 3489,1265 3291,0 5996,-1425 7276,-4496 640,27 1360,-92 1808,-591 148,-165 262,-359 385,-579 -614,-369 -1150,-483 -1864,-293 -80,-636 -442,-1028 -887,-1400l-210 -172c-120,151 -221,292 -300,434 -337,608 -288,1448 117,2016 -301,219 -774,344 -1462,365zm-6691 1274c407,0 737,330 737,737 0,407 -330,737 -737,737 -407,0 -737,-330 -737,-737 0,-407 330,-737 737,-737z"/>
    </g>
    <g>
     <circle class="fil2" cx="128895" cy="45954" r="2048"/>
     <path class="fil9" d="M127502 45681c-151,0 -273,122 -273,273 0,151 122,273 273,273 151,0 274,-122 274,-273 0,-151 -123,-273 -274,-273zm1952 1242c-130,76 -175,243 -100,374 76,130 243,175 374,100 131,-76 175,-243 100,-374 -76,-130 -243,-175 -374,-100zm-1358 -969c0,-270 134,-509 340,-653l-200 -335c-239,160 -417,404 -491,690 86,71 141,178 141,298 0,120 -55,227 -141,298 74,286 252,530 491,690l200 -335c-206,-144 -340,-383 -340,-653zm799 -799c417,0 759,320 795,728l390 -6c-19,-301 -151,-571 -353,-770 -104,39 -224,33 -328,-27 -104,-60 -169,-161 -187,-271 -101,-28 -207,-43 -317,-43 -189,0 -368,45 -527,123l190 341c103,-48 217,-75 337,-75zm0 1598c-120,0 -234,-27 -337,-75l-190 341c159,78 338,123 527,123 110,0 216,-15 317,-43 18,-110 83,-211 187,-272 104,-59 224,-65 328,-26 202,-199 334,-469 353,-770l-390 -6c-36,408 -378,728 -795,728zm559 -1768c131,75 298,30 374,-100 75,-131 31,-298 -100,-374 -131,-75 -298,-30 -374,100 -75,131 -30,298 100,374z"/>
     <path class="fil1" d="M100820 51327c-208,53 -483,108 -824,166 -341,59 -736,88 -1185,88 -390,0 -718,-57 -985,-171 -267,-113 -481,-274 -643,-482 -163,-208 -280,-454 -352,-737 -71,-282 -107,-596 -107,-941l0 -2847 907 0 0 2652c0,618 98,1060 293,1327 195,266 523,399 985,399 97,0 198,-3 302,-9 104,-7 201,-15 293,-25 90,-9 173,-19 248,-29 75,-10 129,-21 161,-34l0 -4281 907 0 0 4924 0 0zm25188 0c-208,53 -482,108 -824,166 -341,59 -736,88 -1185,88 -390,0 -718,-57 -984,-171 -267,-113 -482,-274 -644,-482 -163,-208 -280,-454 -351,-737 -72,-282 -107,-596 -107,-941l0 -2847 907 0 0 2652c0,618 97,1060 292,1327 195,266 523,399 985,399 98,0 198,-3 302,-9 104,-7 202,-15 293,-25 91,-9 174,-19 249,-29 74,-10 128,-21 160,-34l0 -4281 907 0 0 4924zm-6855 -4924l1921 0 0 761 -1921 0 0 2340c0,253 19,463 58,629 39,166 98,296 176,390 78,94 176,161 293,200 117,39 253,58 409,58 280,0 501,-30 663,-92 163,-62 273,-106 332,-132l195 741c-91,46 -252,104 -483,176 -231,71 -492,107 -785,107 -345,0 -629,-44 -853,-132 -225,-87 -405,-219 -541,-394 -137,-176 -233,-392 -288,-649 -55,-257 -83,-554 -83,-892l0 -4525 907 -156 0 1570 0 0zm-6192 146c208,-52 484,-107 829,-166 344,-58 741,-87 1189,-87 403,0 738,57 1005,170 266,114 479,273 638,478 160,205 272,450 337,736 65,286 97,602 97,946l0 2848 -907 0 0 -2653c0,-312 -21,-578 -63,-799 -42,-221 -112,-400 -210,-537 -97,-136 -227,-235 -390,-297 -162,-62 -364,-93 -604,-93 -98,0 -199,4 -303,10 -104,7 -203,15 -297,24 -94,10 -179,22 -253,35 -75,13 -129,22 -161,29l0 4281 -907 0 0 -4925zm-1307 4778c-208,53 -483,108 -824,166 -341,59 -736,88 -1185,88 -390,0 -718,-57 -985,-171 -266,-113 -481,-274 -643,-482 -163,-208 -280,-454 -351,-737 -72,-282 -108,-596 -108,-941l0 -2847 907 0 0 2652c0,618 98,1060 293,1327 195,266 523,399 985,399 97,0 198,-3 302,-9 104,-7 201,-15 293,-25 90,-9 173,-19 248,-29 75,-10 129,-21 161,-34l0 -4281 907 0 0 4924 0 0zm-8620 -4700c110,-71 277,-146 502,-224 224,-78 483,-117 775,-117 364,0 688,65 970,195 283,130 522,312 717,546 195,234 343,514 444,839 101,325 151,682 151,1072 0,410 -60,779 -180,1107 -121,329 -291,606 -512,834 -222,228 -488,403 -800,527 -312,123 -663,185 -1053,185 -423,0 -797,-29 -1122,-88 -325,-58 -591,-117 -799,-175l0 -7266 907 -156 0 2721zm0 4057c91,26 219,50 385,73 166,23 372,34 619,34 488,0 878,-161 1170,-482 293,-322 439,-779 439,-1371 0,-260 -26,-503 -78,-731 -52,-228 -136,-424 -253,-590 -117,-166 -269,-296 -454,-390 -185,-94 -408,-142 -668,-142 -247,0 -475,43 -683,127 -208,85 -367,173 -477,264l0 3208z"/>
    </g>
    <g>
     <path class="fil1" d="M6879 74426l28740 0 0 9580 -14370 0 0 1597 -6386 0 0 -1597 -7984 0 0 -9580zm1597 7983l3193 0 0 -4790 1597 0 0 4790 1597 0 0 -6386 -6387 0 0 6386zm7983 -6386l0 7983 3194 0 0 -1597 3193 0 0 -6386 -6387 0zm3194 1596l1596 0 0 3194 -1596 0 0 -3194zm4790 -1596l0 6386 3193 0 0 -4790 1597 0 0 4790 1596 0 0 -4790 1597 0 0 4790 1597 0 0 -6386 -9580 0z"/>
     <polygon class="fil4" points="8476,82409 11669,82409 11669,77619 13266,77619 13266,82409 14863,82409 14863,76023 8476,76023 "/>
     <path class="fil4" d="M16459 76023l0 7983 3194 0 0 -1597 3193 0 0 -6386 -6387 0zm4790 4790l-1596 0 0 -3194 1596 0 0 3194z"/>
     <polygon class="fil4" points="24443,76023 24443,82409 27636,82409 27636,77619 29233,77619 29233,82409 30829,82409 30829,77619 32426,77619 32426,82409 34023,82409 34023,76023 "/>
    </g>
    <g>
     <path class="fil2" d="M79868 47184c637,387 947,1048 947,1862 0,846 -261,1378 -645,1725 -375,339 -759,411 -1151,411 -302,0 -645,-56 -816,-193 -106,-73 -155,-242 -163,-339 -17,-113 -17,-1048 -17,-1717 0,-653 0,-1757 17,-1902 0,-32 49,-97 73,-113 90,-40 245,-48 400,-48 531,0 996,88 1355,314zm-751 -677c-857,0 -1175,24 -1632,24 -245,0 -772,-24 -911,-24 -41,48 -167,266 -150,314 204,24 351,49 457,73 212,48 318,113 343,362 16,299 8,1242 8,1726 0,677 8,1273 -16,1773 -17,266 -52,342 -200,403 -88,36 -140,43 -329,65 -58,6 -151,258 -118,322l10 0c702,8 1542,24 2032,24 923,0 1567,-209 2065,-580 498,-355 996,-984 996,-2072 0,-766 -277,-1394 -800,-1846 -432,-371 -1036,-564 -1755,-564z"/>
     <path class="fil2" d="M82969 47232c8,291 0,879 0,1750 0,636 0,1531 -17,1781 -24,290 -48,353 -243,402 -139,40 -240,50 -371,58 -48,40 -158,298 -101,322 547,-8 1531,32 1899,32 481,0 955,-56 1338,-225 629,-274 1062,-710 1062,-1403 0,-709 -531,-1080 -1135,-1233 -24,-8 -24,-25 0,-33 424,-177 751,-548 751,-1007 0,-935 -865,-1161 -1494,-1161 -506,0 -930,16 -1453,16 -555,0 -772,-24 -845,-24 -41,32 -167,274 -126,314 163,24 367,49 490,73 155,40 236,113 245,338zm775 1371c0,-524 8,-1282 16,-1572 0,-40 41,-121 74,-129 106,-16 245,-16 294,-16 726,0 1216,266 1216,967 0,306 -123,588 -384,717 -98,49 -277,89 -588,89 -220,0 -481,-8 -587,-16 -17,0 -41,-24 -41,-40zm49 419c73,-16 375,-8 416,-8 955,0 1478,403 1478,1112 0,742 -498,1056 -1061,1056 -205,0 -498,-16 -629,-88 -122,-57 -220,-250 -237,-387 -24,-323 -16,-1137 -16,-1645 0,-16 24,-32 49,-40z"/>
     <path class="fil11" d="M75831 49843c0,-963 -654,-1635 -1590,-1635 -364,0 -766,119 -1103,326 -475,318 -715,778 -715,1365 0,841 437,1739 1663,1739 341,0 752,-157 989,-302 494,-322 756,-839 756,-1493zm-1876 -1292c690,0 1153,626 1153,1558 0,486 -110,833 -319,1003 -136,118 -299,175 -499,175 -679,0 -1153,-660 -1153,-1606 0,-505 144,-849 428,-1021 103,-70 242,-109 390,-109z"/>
     <path class="fil11" d="M69947 50598l0 0zm842 -325c253,-191 488,-450 488,-1043 0,-53 -29,-244 -46,-309l-5 -13c-8,-20 -14,-36 -4,-51l31 -11c1,1 61,19 190,32l36 2c125,0 257,-57 314,-136 72,-99 97,-238 91,-332 -7,-91 -21,-131 -27,-144 -104,102 -226,190 -505,190 -189,0 -324,-22 -467,-74 -262,-98 -452,-168 -789,-176l-19 0c-328,0 -833,191 -1034,350 -294,210 -463,541 -463,906 0,565 252,937 753,1105 14,7 24,21 27,38 3,17 -2,34 -14,45 -74,64 -209,144 -328,214 -80,47 -156,93 -204,126 -61,44 -52,87 -42,132l3 18c31,115 133,327 471,457 15,3 26,16 26,33 0,15 -9,28 -21,32 -411,282 -588,445 -665,532 -130,148 -145,303 -145,363 0,208 118,510 382,713 271,208 588,301 1028,301 338,0 651,-70 959,-215 634,-306 1013,-807 1013,-1339 0,-356 -206,-653 -537,-773 -241,-82 -752,-117 -1162,-146l-201 -14c-310,-23 -375,-154 -375,-260 0,-127 143,-195 198,-211l8 0 95 -8 98 -9c318,-33 600,-143 842,-325zm-153 -793c0,275 -90,536 -228,662 -91,101 -275,146 -377,146 -592,0 -802,-544 -802,-1010 0,-461 245,-759 622,-759 492,0 785,359 785,961zm-1140 2299c61,-35 165,-76 307,-76 442,0 803,43 1020,122 280,103 417,285 417,557 0,390 -329,784 -1062,784 -373,0 -656,-87 -866,-265 -173,-146 -254,-311 -254,-519 0,-220 138,-412 438,-603z"/>
     <path class="fil11" d="M67299 49597c0,-387 -65,-725 -228,-967 -196,-274 -474,-436 -833,-436 -318,0 -743,218 -1094,516 -8,8 -62,59 -60,-20 1,-79 13,-241 20,-342 8,-102 -53,-150 -53,-150 -229,113 -872,266 -1110,291 -174,33 -218,200 -33,257l3 1c194,59 324,121 422,185 73,56 65,137 65,202 8,540 8,1370 -16,1821 -9,178 -58,242 -188,274l12 -4c-98,24 -180,41 -302,57 -41,40 -41,274 0,322 81,0 498,-24 840,-24 474,0 719,24 841,24 49,-56 65,-274 33,-322 -139,-8 -237,-24 -335,-49 -130,-32 -163,-96 -171,-241 -17,-379 -17,-1185 -17,-1734 0,-153 41,-225 90,-266 459,-392 1315,-334 1396,379 33,307 24,919 24,1451 0,291 -24,363 -130,395 -49,25 -180,49 -335,65 -49,48 -32,274 0,322 213,0 457,-24 816,-24 450,0 735,24 849,24 49,-56 66,-266 33,-322 -179,-24 -310,-49 -465,-121 -25,-16 -57,-89 -57,-113 -17,-250 -17,-975 -17,-1451z"/>
     <path class="fil11" d="M61256 48551l0 0zm-818 1130c0,-505 144,-849 427,-1021 104,-70 242,-109 391,-109 690,0 1153,626 1153,1558 0,486 -111,833 -319,1003 -136,118 -299,175 -499,175 -679,0 -1153,-660 -1153,-1606zm2693 162c0,-963 -653,-1635 -1589,-1635 -364,0 -767,119 -1104,326 -474,318 -715,778 -715,1365 0,841 437,1739 1664,1739 341,0 752,-157 989,-302 494,-323 755,-839 755,-1493z"/>
     <path class="fil11" d="M58641 50374c2,-285 5,-589 5,-830 0,-836 -399,-1336 -1068,-1336 -282,0 -704,193 -1131,516 -9,14 -26,23 -44,23 -18,0 -35,-9 -47,-28 -211,-344 -484,-511 -835,-511 -213,0 -628,129 -1091,492 -12,12 -27,18 -42,18 -31,0 -61,-25 -61,-52 0,-92 8,-184 15,-265l6 -79c5,-61 -18,-99 -32,-116 -243,112 -863,259 -1100,284 -89,17 -132,68 -134,109 -2,42 36,78 104,98 179,54 320,115 433,190 78,59 77,143 76,205l0 17c9,573 7,1388 -17,1823 -8,185 -62,262 -207,298 -86,23 -159,40 -313,64 -11,13 -23,50 -25,109 -3,77 11,141 25,163 83,-1 166,-5 262,-9 142,-7 320,-16 575,-16 217,0 407,9 560,16 100,4 187,8 258,9 28,-55 39,-229 22,-273l-131 -23c-72,-11 -133,-22 -168,-32 -162,-37 -192,-140 -200,-225 -13,-280 -11,-926 -9,-1445l1 -427c0,-66 29,-137 67,-166 230,-172 512,-279 735,-279 380,0 616,210 703,626 51,258 32,1292 9,1651 -9,153 -54,220 -175,257 -71,18 -146,31 -231,46l-98 18c-13,15 -26,63 -26,131 0,74 14,125 24,141 70,-1 192,-4 322,-7 159,-5 340,-9 451,-9 366,0 619,7 866,15 6,-6 18,-25 28,-69 19,-79 18,-172 4,-203 -98,-15 -164,-31 -229,-47l-107 -25c-77,-30 -172,-68 -172,-225 -6,-231 -4,-536 -2,-860l2 -471c0,-265 0,-441 -32,-591l-1 -5c0,-21 10,-53 27,-69 272,-207 558,-280 734,-280 477,0 695,338 737,627 45,278 19,1451 16,1585 -8,187 -49,251 -190,298 -78,23 -141,39 -271,63 -20,38 -14,216 2,271 222,-14 454,-23 898,-23 221,0 412,10 550,17 77,4 138,7 182,8 27,-39 56,-225 42,-273l-7 -1c-178,-31 -319,-55 -417,-103 -79,-22 -132,-130 -132,-170 0,-162 2,-395 4,-645z"/>
     <path class="fil1" d="M49921 51516c698,-643 2040,-2263 1586,-4916 -583,-2567 -1959,-3411 -2107,-3734 -163,-228 -327,-632 -327,-632l0 5c58,221 87,1095 103,2078 23,1375 18,2962 28,3262 32,1076 -1,2111 -63,2908 12,587 97,1215 388,1348 0,0 6,-3 16,-11 46,-32 182,-130 364,-297 4,-3 8,-7 12,-11z"/>
     <path class="fil2" d="M49141 50487c62,-797 95,-1832 63,-2908 -10,-300 -5,-1887 -28,-3262 -16,-983 -45,-1857 -103,-2078 -3,-15 -7,-26 -11,-35 -17,226 -26,315 -242,545 -333,260 -2045,1694 -2184,4611 -130,2721 1970,4343 2253,4548 20,15 31,22 31,22 81,-185 163,-715 221,-1443z"/>
     <path class="fil12" d="M49529 51835c-291,-133 -376,-761 -388,-1348 -58,728 -140,1258 -221,1443 0,0 -11,-7 -31,-22 203,473 182,1282 182,1282l298 99c0,0 -61,-786 23,-1165 26,-115 84,-216 153,-300 -10,8 -16,11 -16,11z"/>
     <path class="fil2" d="M87810 50608c126,0 166,34 166,136 0,101 -42,140 -154,140l-138 0 0 -276 126 0zm-222 -87l0 797 96 0 0 -351 131 0 163 351 105 0 -169 -361c103,-22 158,-96 158,-213 0,-145 -73,-223 -248,-223l-236 0z"/>
     <path class="fil2" d="M87824 50346c322,0 570,251 570,575 0,317 -255,572 -572,572 -319,0 -574,-255 -574,-572 0,-322 255,-575 576,-575zm-632 574c0,354 276,630 630,630 354,0 631,-280 631,-639 0,-344 -282,-622 -629,-622 -356,0 -632,275 -632,631z"/>
    </g>
    <g>
     <g>
      <polygon class="fil1" points="197559,47748 197559,56607 206418,56607 215276,56607 215276,47748 215276,38890 206418,38890 197559,38890 "/>
      <path class="fil4" d="M201477 47807l-5 726 1153 0 1153 0 0 3276 0 3276 815 0 816 0 0 -3276 0 -3276 1153 0 1153 0 0 -712c0,-393 -9,-722 -20,-731 -9,-11 -1412,-17 -3113,-14l-3096 8 -9 723z"/>
      <path class="fil4" d="M211855 47064c450,112 793,312 1108,638 163,175 405,492 425,568 5,23 -765,540 -1232,830 -17,11 -85,-62 -160,-174 -228,-332 -467,-476 -833,-501 -537,-37 -883,245 -880,714 0,138 20,220 76,332 118,245 337,391 1026,689 1269,546 1811,906 2149,1417 377,571 461,1482 205,2160 -281,737 -979,1237 -1960,1403 -304,54 -1024,45 -1350,-14 -711,-126 -1386,-478 -1802,-939 -164,-180 -481,-650 -462,-683 9,-12 82,-57 164,-104 78,-45 376,-217 658,-380l509 -295 106 157c149,228 476,540 673,644 565,298 1341,256 1723,-87 163,-149 231,-304 231,-531 0,-206 -25,-296 -132,-450 -138,-197 -419,-363 -1218,-709 -914,-394 -1308,-638 -1667,-1026 -209,-225 -405,-585 -487,-886 -67,-251 -84,-878 -31,-1131 188,-883 855,-1499 1817,-1681 312,-60 1037,-37 1344,39z"/>
     </g>
    </g>
    <g>
     <path class="fil6" d="M160346 81640l-8442 8443c276,287 663,467 1095,469l14462 0c492,-2 926,-234 1204,-594l-8319 -8318z"/>
     <path class="fil13" d="M162882 79027l-2324 2324 8294 8293c84,-189 131,-397 131,-618l0 -9077c-137,197 -272,393 -402,584 -231,371 -491,769 -718,1162 -684,1184 -1160,2341 -1336,4018 -47,141 -153,232 -271,232 -105,0 -203,-74 -256,-194 0,-1 0,-2 0,-3 -172,-1696 -651,-2861 -1340,-4053 -228,-393 -487,-791 -718,-1162 -331,-485 -678,-990 -1059,-1505 0,-1 -1,-1 -1,-1l0 0z"/>
     <path class="fil14" d="M162241 78027l-10762 10763 0 236c0,845 680,1526 1525,1526l296 0 10388 -10388c-256,-372 -519,-749 -805,-1136 -92,-141 -188,-281 -288,-420 -87,-146 -180,-293 -277,-439 -24,-47 -51,-95 -77,-142z"/>
     <path class="fil15" d="M162056 81795l-1791 1792 6965 6965 232 0c843,-3 1521,-682 1521,-1526l0 -304 -6927 -6927z"/>
     <path class="fil3" d="M162882 79027l0 0zm-11403 -4454l0 14216 10762 -10762c26,47 53,95 77,142 97,146 190,293 277,439 100,139 196,278 287,419 0,0 1,0 1,1 8,10 15,20 23,31 372,504 712,999 1036,1474 231,371 490,769 718,1162 687,1190 1166,2352 1339,4043l199 199c19,5 38,8 58,8 118,0 224,-91 271,-232 176,-1677 652,-2834 1335,-4018 228,-393 488,-791 719,-1162 130,-191 265,-387 402,-584l0 -5376c0,-843 -683,-1526 -1526,-1526l-14453 0c-842,0 -1525,683 -1525,1526z"/>
     <path class="fil15" d="M156925 76409c0,1 1,2 1,2l0 0 -1 -2zm-1290 -1648c-1361,0 -2463,1122 -2463,2507 0,1384 1102,2506 2463,2506 886,0 1400,-279 1845,-732 446,-454 609,-1140 609,-1832 0,-106 -7,-211 -19,-314l-961 0 -183 0 -1261 0 0 886 1412 0c-57,221 -154,422 -307,578 -275,279 -591,451 -1137,451 -837,0 -1517,-691 -1517,-1543 0,-853 680,-1544 1517,-1544 408,0 763,119 1044,377l694 -694c-1,0 -1,0 -2,-1 -462,-444 -1054,-645 -1734,-645l0 0z"/>
     <g>
      <path class="fil7" d="M166277 70622c2699,0 4887,2089 4887,4665 -2,804 -193,1594 -610,2293 -125,205 -242,410 -346,614 -97,146 -190,293 -277,439 -100,139 -196,279 -288,419 -381,516 -728,1021 -1059,1506 -231,371 -490,769 -718,1162 -689,1192 -1167,2357 -1340,4052 0,2 0,3 0,4 -53,120 -151,194 -256,194 -118,0 -224,-91 -271,-232 -176,-1677 -652,-2834 -1335,-4018 -228,-393 -488,-791 -719,-1162 -331,-485 -677,-990 -1059,-1506 -92,-140 -188,-280 -288,-419 -87,-146 -179,-293 -277,-439 -104,-204 -221,-409 -346,-614 -415,-699 -583,-1489 -584,-2293 0,-2576 2188,-4665 4886,-4665z"/>
      <path class="fil16" d="M166277 73666c-937,0 -1697,726 -1697,1621 0,895 760,1620 1697,1620 938,0 1698,-725 1698,-1620 0,-895 -760,-1621 -1698,-1621z"/>
     </g>
    </g>
    <g>
     <g>
      <g>
       <path class="fil10" d="M113646 25462c-107,0 -214,-28 -308,-82l-983 -582c-146,-82 -75,-111 -26,-128 195,-68 235,-84 444,-202 22,-13 50,-8 73,5l755 448c27,14 66,14 91,0l2943 -1699c27,-16 45,-47 45,-80l0 -3396c0,-34 -18,-64 -46,-81l-2941 -1697c-28,-16 -64,-16 -91,0l-2941 1697c-29,16 -47,48 -47,80l0 3397c0,32 18,63 46,78l806 466c437,219 705,-39 705,-298l0 -3352c0,-48 37,-85 85,-85l373 0c46,0 85,37 85,85l0 3353c0,584 -319,919 -872,919 -170,0 -304,0 -678,-184l-773 -445c-190,-111 -308,-317 -308,-537l0 -3397c0,-221 118,-427 308,-536l2947 -1699c186,-106 433,-106 618,0l2943 1700c190,110 308,315 308,536l0 3396c0,221 -118,426 -308,537l-2943 1699c-94,55 -201,83 -310,83l0 1zm0 0l0 0 0 0z"/>
      </g>
      <g>
       <path class="fil10" d="M114556 23122c-1288,0 -1558,-591 -1558,-1087 0,-47 38,-85 85,-85l380 0c42,0 78,31 84,72 58,388 229,583 1007,583 621,0 884,-140 884,-469 0,-189 -75,-330 -1038,-424 -806,-80 -1304,-257 -1304,-902 0,-594 501,-947 1340,-947 942,0 1409,327 1468,1030 2,24 -7,47 -23,65 -16,17 -39,27 -63,27l-382 0c-40,0 -74,-28 -82,-66 -93,-407 -315,-538 -920,-538 -677,0 -756,236 -756,413 0,214 93,277 1007,398 904,120 1334,289 1334,925 0,641 -535,1009 -1468,1009l5 -4zm3580 -3598l99 0c81,0 96,-57 96,-90 0,-87 -59,-87 -93,-87l-101 0 -1 177zm-120 -279l219 0c75,0 222,0 222,168 0,117 -75,142 -120,156 88,6 94,64 105,145 6,51 16,138 34,168l-135 0c-4,-30 -25,-192 -25,-201 -8,-36 -21,-53 -66,-53l-111 0 0 255 -123 0 0 -638zm-263 317c0,264 213,478 474,478 264,0 477,-219 477,-478 0,-264 -216,-474 -477,-474 -258,0 -475,207 -475,473l1 1zm1042 2c0,312 -255,567 -567,567 -309,0 -567,-252 -567,-567 0,-322 264,-568 567,-568 306,0 567,247 567,568l0 0zm0 0l0 0 0 0z"/>
      </g>
      <path class="fil8" d="M104533 12174c0,-136 -72,-260 -189,-328l-3120 -1795c-53,-31 -112,-47 -171,-49l-33 0c-60,2 -119,18 -172,49l-3120 1795c-117,68 -189,193 -189,328l7 4836c0,67 35,129 93,163 58,35 130,35 188,0l1855 -1063c117,-69 188,-193 188,-327l0 -2259c0,-135 72,-259 188,-326l790 -455c59,-34 123,-51 189,-51 64,0 130,17 187,51l789 455c117,67 189,191 189,326l0 2259c0,134 72,258 189,327l1854 1062c58,34 130,34 188,0 58,-34 94,-96 94,-163l6 -4835zm14724 2518c0,33 -18,64 -47,81l-1072 618c-29,17 -65,17 -94,0l-1072 -618c-29,-17 -47,-48 -47,-81l0 -1238c0,-34 18,-65 46,-82l1071 -618c30,-17 66,-17 95,0l1072 618c30,17 47,48 47,82l1 1238zm289 -9165c-58,-33 -129,-32 -187,2 -58,34 -93,96 -93,163l0 4788c0,47 -25,91 -66,114 -40,24 -91,24 -132,0l-781 -450c-117,-67 -260,-67 -377,0l-3121 1802c-117,67 -189,191 -189,325l0 3604c0,135 72,259 189,327l3121 1802c117,67 260,67 377,0l3121 -1803c117,-68 189,-192 189,-327l0 -8981c0,-137 -74,-263 -194,-330l-1857 -1036zm10395 7895c116,-68 187,-192 187,-326l0 -874c0,-134 -72,-258 -188,-326l-3101 -1800c-117,-68 -261,-68 -378,0l-3121 1801c-117,68 -188,192 -188,327l0 3602c0,135 73,261 190,328l3101 1767c114,66 254,66 369,2l1876 -1042c59,-33 96,-96 96,-164 0,-67 -36,-131 -95,-164l-3139 -1802c-59,-33 -95,-96 -95,-163l0 -1130c0,-67 35,-129 94,-163l977 -564c58,-33 129,-33 188,0l977 564c58,33 94,96 94,163l0 888c0,67 37,130 95,164 58,33 130,33 188,-1l1873 -1087zm0 0z"/>
      <path class="fil10" d="M126604 13253c22,-13 50,-13 72,0l599 346c23,13 36,36 36,62l0 692c0,26 -13,50 -36,63l-599 345c-22,13 -50,13 -72,0l-598 -345c-23,-13 -37,-37 -37,-63l0 -692c0,-26 13,-49 36,-62l599 -346zm0 0z"/>
      <path class="fil17" d="M109380 10186l-3104 1791c-116,67 -187,191 -187,325l0 3585c0,134 71,258 187,325l3104 1792c116,67 259,67 375,0l3103 -1792c116,-67 187,-191 187,-325l0 -3585c0,-134 -71,-258 -187,-325l-3103 -1791c-59,-34 -123,-50 -188,-50 -65,0 -130,16 -188,50l1 0zm0 0l0 0 0 0z"/>
      <path class="fil2" d="M106165 16115c30,38 67,71 111,97l2662 1537 444 255c66,39 142,55 216,49 25,-2 49,-6 74,-13l3273 -5994c-25,-27 -54,-50 -87,-69l-2032 -1174 -1075 -618c-30,-17 -63,-30 -97,-39l-3489 5969z"/>
      <path class="fil18" d="M113039 15962l0 -9 -3401 -5809c-23,-5 -47,-7 -71,-8l-1 0 -6 0 -1 0 0 0 -1 0c-9,0 -18,1 -26,2l-2 0c-52,5 -103,21 -150,48l-3095 1786 3337 6078c47,-6 92,-22 134,-46l3103 -1792c94,-55 159,-146 180,-250zm-3509 -5824l0 0 0 0z"/>
     </g>
     <path class="fil10" d="M106276 16212l2709 1564 397 228c65,38 139,54 211,50 10,-1 20,-2 29,-4l-2222 -4047 -1235 2112c30,38 67,71 111,97z"/>
     <path class="fil10" d="M111885 13987l1153 1974c5,-24 7,-49 7,-74l0 -3585c0,-96 -36,-187 -100,-256l-1060 1941z"/>
    </g>
    <g>
     <g id="_2598378811600">
      <path class="fil1" d="M13223 21536l0 2731 408 0 0 -2731 -408 0zm21015 1869c0,-525 -369,-919 -887,-919 -517,0 -886,394 -886,919 0,524 369,918 886,918 518,0 887,-394 887,-918zm-887 -623c289,0 564,229 564,623 0,394 -275,623 -564,623 -288,0 -562,-229 -562,-623 0,-394 274,-623 562,-623zm1148 -240l0 1725 323 0 0 -943c0,-317 225,-503 447,-503 70,0 127,6 172,24l124 -303c-67,-28 -138,-42 -243,-42 -180,0 -429,127 -500,324l-14 0 0 -282 -309 0zm1242 0l0 1725 323 0 0 -954c0,-264 176,-531 440,-531 246,0 384,119 384,478l0 1007 323 0 0 -954c0,-264 176,-531 440,-531 247,0 384,119 384,478l0 1007 324 0 0 -1056c0,-426 -194,-725 -616,-725 -268,0 -479,138 -602,331 -88,-204 -267,-331 -545,-331 -204,0 -433,130 -532,296l-14 0 0 -240 -309 0zm-4462 0l0 296 324 0 0 1429 324 0 0 -1429 450 0 0 -296 -451 0 0 -218c0,-200 127,-295 289,-295 60,0 106,7 148,28l112 -278c-73,-32 -151,-46 -260,-46 -362,0 -612,229 -612,581l0 228 -324 0zm-162 296l0 -296 -422 0 0 -527 -324 0 0 527 -302 0 0 296 302 0 0 904c0,352 194,553 556,553 109,0 187,-14 261,-46l-113 -278c-46,21 -88,28 -148,28 -151,0 -232,-88 -232,-281l0 -880 422 0zm-1981 -352c-433,0 -640,260 -700,419l296 127c59,-162 232,-250 411,-250 243,0 451,158 451,419l0 49c-67,-39 -236,-106 -468,-106 -405,0 -757,211 -757,602 0,359 292,577 644,577 296,0 472,-151 567,-295l14 0 0 239 309 0 0 -1042c0,-486 -344,-739 -767,-739zm46 926c275,0 412,112 412,112 0,282 -271,504 -528,504 -169,0 -359,-92 -359,-275 0,-158 134,-341 475,-341zm-1414 -1665l0 2520 323 0 0 -2520 -323 0zm-560 750c0,200 -162,440 -450,440l-542 0 0 -880 542 0c288,0 450,239 450,440zm-1316 -750l0 2520 324 0 0 -1021 535 0c419,0 788,-309 788,-749 0,-440 -369,-750 -788,-750l-859 0zm-1192 1658c0,394 -261,623 -550,623 -288,0 -548,-236 -548,-623 0,-387 260,-623 548,-623 289,0 550,229 550,623zm-1422 0c0,527 383,918 820,918 274,0 489,-137 587,-295l15 0 0 239 309 0 0 -2520 -324 0 0 795 15 240 -15 0c-98,-158 -313,-296 -587,-296 -437,0 -820,391 -820,919zm-1787 193c0,426 214,725 657,725 236,0 451,-137 546,-295l14 0 0 239 310 0 0 -1725 -324 0 0 951c0,263 -173,535 -454,535 -246,0 -426,-124 -426,-483l0 -1003 -323 0 0 1056zm-2020 -193c0,524 369,918 886,918 518,0 887,-394 887,-918 0,-525 -369,-919 -887,-919 -517,0 -886,394 -886,919zm1450 0c0,394 -275,623 -564,623 -288,0 -563,-229 -563,-623 0,-394 275,-623 563,-623 289,0 564,229 564,623zm-2017 -1658l0 2520 324 0 0 -2520 -324 0zm-253 2125l-225 -225c-190,218 -457,366 -774,366 -532,0 -979,-387 -979,-1006 0,-619 447,-1006 979,-1006 288,0 524,102 700,320l225 -218c-225,-261 -545,-412 -925,-412 -743,0 -1309,566 -1309,1316 0,750 566,1316 1309,1316 422,0 777,-187 999,-451zm-12041 46c261,-260 341,-626 341,-922 0,-91 -7,-175 -21,-246l-1326 0 0 394 943 0c-28,222 -102,384 -215,496 -137,138 -352,289 -728,289 -581,0 -1035,-468 -1035,-1049 0,-580 454,-1048 1035,-1048 313,0 542,123 711,281l278 -278c-236,-225 -549,-397 -989,-397 -796,0 -1464,647 -1464,1442 0,795 668,1443 1464,1443 429,0 753,-141 1006,-405zm1414 -1453c-514,0 -933,391 -933,929 0,535 419,929 933,929 513,0 932,-394 932,-929 0,-538 -419,-929 -932,-929zm-525 929c0,-334 243,-563 525,-563 281,0 524,229 524,563 0,331 -243,563 -524,563 -282,0 -525,-232 -525,-563zm2559 -929c-514,0 -933,391 -933,929 0,535 419,929 933,929 513,0 932,-394 932,-929 0,-538 -419,-929 -932,-929zm-524 929c0,-334 242,-563 524,-563 281,0 524,229 524,563 0,331 -243,563 -524,563 -282,0 -524,-232 -524,-563zm2518 -929c-465,0 -891,408 -891,933 0,520 426,925 891,925 221,0 397,-98 489,-211l14 0 0 134c0,355 -190,545 -496,545 -250,0 -405,-179 -469,-331l-355 148c102,246 373,549 824,549 478,0 883,-282 883,-968l0 -1668 -387 0 0 152 -14 0c-92,-109 -268,-208 -489,-208zm35 366c278,0 496,239 496,567 0,323 -218,559 -496,559 -282,0 -518,-236 -518,-559 0,-328 236,-567 518,-567zm2617 -366c-478,0 -876,377 -876,929 0,521 395,929 922,929 426,0 672,-260 774,-412l-316 -211c-106,155 -250,257 -458,257 -207,0 -355,-95 -450,-282l1242 -513 -42 -106c-78,-207 -313,-591 -796,-591zm-471 901c-10,-359 278,-542 486,-542 162,0 299,81 345,197l-831 345z"/>
      <path id="path22" class="fil7" d="M23529 16354l-1516 2636 -3972 0c-355,0 -682,-189 -858,-497l-3213 -5602c-175,-305 -175,-679 0,-984l1223 -2131 1509 2623 2275 3955 4552 0z"/>
      <path id="path26" class="fil6" d="M28537 12891l-3213 5602c-176,308 -503,497 -857,497l-2454 0 1516 -2636 2277 -3955 -2277 -3954 3022 0 1986 3462c175,305 175,679 0,984z"/>
      <path id="path30" class="fil19" d="M26551 8445l-7574 0 -2275 3954 -1509 -2623 1990 -3471c176,-307 503,-497 858,-497l6426 0c354,0 681,190 857,497l1227 2140z"/>
      <path id="path64" class="fil20" d="M16702 12399l2275 -3954 7574 0 -47 -83m-7527 0l-2275 3955"/>
      <path id="path80" class="fil21" d="M13970 11990l1223 -2132 1509 2624 2275 3954 4504 0 48 -82 0 0 -4552 0 -2275 -3955 -1509 -2623 -1223 2131c-87,152 -129,320 -129,489l0 4c0,14 0,27 1,40 6,-155 48,-310 128,-450z"/>
      <path id="path96" class="fil22" d="M22060 18908l-4019 0c-355,0 -682,-190 -858,-497l-3213 -5602c-80,-140 -122,-295 -128,-451 -8,184 33,368 128,533l3213 5602c176,308 503,497 858,497l3972 0 47 -82z"/>
      <path class="fil4" d="M18977 8445l-2275 3954 2276 3955 4551 0 2276 -3955 -2276 -3954 -4552 0zm300 3954c0,-1092 885,-1977 1977,-1977 1092,0 1977,885 1977,1977 0,1092 -885,1977 -1977,1977 -1092,0 -1977,-885 -1977,-1977z"/>
     </g>
     <path class="fil23" d="M21254 14376c1092,0 1977,-885 1977,-1977 0,-1092 -885,-1977 -1977,-1977 -1092,0 -1977,885 -1977,1977 0,1092 885,1977 1977,1977z"/>
    </g>
   </g>
  </g>
 </g>
</svg>
