<?xml version="1.0" encoding="UTF-8"?>
<!DOCTYPE svg PUBLIC "-//W3C//DTD SVG 1.1//EN" "http://www.w3.org/Graphics/SVG/1.1/DTD/svg11.dtd">
<!-- Creator: CorelDRAW X7 -->
<svg xmlns="http://www.w3.org/2000/svg" xml:space="preserve" width="7.7948in" height="10.8645in" version="1.1" style="shape-rendering:geometricPrecision; text-rendering:geometricPrecision; image-rendering:optimizeQuality; fill-rule:evenodd; clip-rule:evenodd"
viewBox="0 0 77948 108645"
 xmlns:xlink="http://www.w3.org/1999/xlink">
 <defs>
  <style type="text/css">
   <![CDATA[
    .fil1 {fill:#BB9B61}
    .fil4 {fill:#D7B77D}
    .fil2 {fill:#BB9B61;fill-rule:nonzero}
    .fil0 {fill:#D7B77D;fill-rule:nonzero}
    .fil3 {fill:#D7B77D;fill-rule:nonzero}
   ]]>
  </style>
 </defs>
 <g id="Layer_x0020_1">
  <metadata id="CorelCorpID_0Corel-Layer"/>
  <g id="_2596386944672">
   <path class="fil0" d="M77947 10088c0,-3402 -172,-6770 -499,-10088l-77448 0 0 108645c44824,-11301 77948,-51148 77948,-98557l-1 0z"/>
   <g>
    <g>
     <path class="fil1" d="M0 98944c34896,-8152 64527,-33768 75574,-69825 516,-1685 980,-3352 1411,-5036 -5782,41110 -36634,74389 -76984,84562l0 -9701 -1 0z"/>
     <path class="fil2" d="M52232 56233c-649,0 -651,988 0,988 650,0 651,-988 0,-988z"/>
     <path class="fil2" d="M19701 74557l0 -169c0,-219 -344,-219 -344,0l0 169c0,202 344,202 344,0z"/>
     <path class="fil2" d="M45184 60477c-206,0 -206,321 0,321 224,0 224,-321 0,-321z"/>
     <path class="fil2" d="M31385 85015c-70,-50 -121,-118 -189,-168 -69,-84 -189,33 -104,118 52,50 104,118 173,169 69,67 189,-34 121,-119l-1 0z"/>
     <path class="fil2" d="M16053 85504c-103,0 -103,169 0,169 121,0 121,-169 0,-169z"/>
     <path class="fil2" d="M19460 46330c-51,51 -103,101 -172,169 -69,68 51,185 121,118 69,-67 120,-118 172,-168 86,-84 -34,-202 -121,-119z"/>
     <path class="fil2" d="M12819 62229c69,-68 120,-119 172,-169 86,-84 -34,-202 -103,-118 -69,50 -121,101 -189,168 -69,68 51,185 121,119l-1 0z"/>
     <path class="fil2" d="M26979 63946c-103,0 -103,169 0,169 104,0 104,-169 0,-169z"/>
     <path class="fil2" d="M35824 53168l0 169c0,219 344,219 344,0l0 -169c0,-202 -344,-202 -344,0z"/>
     <path class="fil2" d="M46923 44865l-173 0c-224,0 -224,321 0,321l173 0c224,0 224,-321 0,-321z"/>
     <path class="fil2" d="M66332 45876l-172 0c-207,0 -207,336 0,336l172 0c224,0 224,-336 0,-336z"/>
     <path class="fil2" d="M17103 87036c-327,0 -327,488 0,488 327,0 327,-488 0,-488z"/>
     <path class="fil2" d="M31230 70818l0 -169c0,-134 -121,-253 -258,-253 -138,18 -258,119 -258,253l0 169c0,134 120,252 258,252 137,-17 258,-118 258,-252z"/>
     <path class="fil2" d="M24209 62516c-430,0 -430,656 0,656 431,0 431,-656 0,-656z"/>
     <path class="fil2" d="M43808 53353c-224,0 -224,321 0,321 206,0 206,-321 0,-321z"/>
     <path class="fil2" d="M49176 52494c-224,0 -224,337 0,337 224,0 224,-337 0,-337z"/>
     <path class="fil2" d="M61651 42659c-206,0 -206,321 0,321 224,0 224,-321 0,-321z"/>
     <path class="fil2" d="M64422 38061l0 -168c0,-202 -327,-202 -327,0l0 168c0,220 327,220 327,0z"/>
     <path class="fil2" d="M66452 40217c69,-51 121,-118 172,-169 155,-151 -69,-387 -224,-235 -69,67 -120,118 -172,168 -155,152 69,387 224,236z"/>
     <path class="fil2" d="M65471 41969c-224,0 -224,337 0,337 224,0 224,-337 0,-337z"/>
     <path class="fil2" d="M70152 42474l0 -168c0,-203 -344,-203 -344,0l0 168c0,220 344,220 344,0z"/>
     <path class="fil2" d="M64267 48756l-188 0c-207,0 -207,336 0,336l188 0c207,0 207,-336 0,-336z"/>
     <path class="fil2" d="M61135 45876c-206,0 -206,336 0,336 224,0 224,-336 0,-336z"/>
     <path class="fil2" d="M41725 38920c-224,0 -224,337 0,337 207,0 207,-337 0,-337z"/>
     <path class="fil2" d="M35995 42137c-206,0 -224,336 0,336 225,0 225,-336 0,-336z"/>
     <path class="fil2" d="M32709 46381c-224,0 -224,336 0,336 207,0 207,-336 0,-336z"/>
     <path class="fil2" d="M60447 54364c-224,0 -224,336 0,336 207,0 207,-336 0,-336z"/>
     <path class="fil2" d="M56799 59787c-207,0 -207,337 0,337 224,0 224,-337 0,-337z"/>
     <path class="fil2" d="M4955 58439l-173 0c-206,0 -206,321 0,321l173 0c224,0 224,-321 0,-321z"/>
     <path class="fil2" d="M10341 52831l0 -169c0,-219 -344,-219 -344,0l0 169c0,219 344,219 344,0z"/>
     <path class="fil2" d="M19357 56065c-224,0 -224,320 0,320 206,0 206,-320 0,-320z"/>
     <path class="fil2" d="M3578 66927c-224,0 -224,321 0,321 207,0 207,-321 0,-321z"/>
     <path class="fil2" d="M14659 70818l0 -169c0,-219 -327,-219 -327,0l0 169c0,219 327,219 327,0z"/>
     <path class="fil2" d="M18841 81008c-224,0 -224,336 0,336 206,0 206,-336 0,-336z"/>
     <path class="fil2" d="M7208 89327c-206,0 -206,320 0,320 224,0 224,-320 0,-320z"/>
     <path class="fil2" d="M8723 95542c52,-51 121,-119 172,-169 155,-152 -85,-387 -240,-236 -52,68 -103,119 -173,169 -154,152 86,387 241,236z"/>
     <path class="fil2" d="M40865 69134c52,-67 104,-118 173,-168 86,-101 86,-270 0,-354 -103,-101 -276,-101 -362,0 -51,50 -120,118 -172,169 -103,84 -103,252 0,353 86,84 258,84 361,0z"/>
     <path class="fil2" d="M28889 78212c-327,0 -327,488 0,488 328,0 328,-488 0,-488z"/>
     <path class="fil2" d="M24984 83719l0 -169c0,-134 -121,-253 -258,-253 -138,0 -259,119 -259,253l0 169c0,134 121,252 259,252 137,-17 258,-118 258,-252z"/>
     <path class="fil2" d="M14504 49025c-327,0 -327,488 0,488 328,0 328,-488 0,-488z"/>
     <path class="fil2" d="M24209 39173l-172 0c-137,0 -258,118 -258,253 17,134 121,252 258,252l172 0c138,0 258,-118 258,-252 -17,-135 -120,-253 -258,-253z"/>
     <path class="fil2" d="M33742 35788c-328,0 -328,488 0,488 327,0 327,-488 0,-488z"/>
     <path class="fil2" d="M45356 32218l-172 0c-137,0 -258,118 -258,252 18,135 121,253 258,253l172 0c138,0 259,-118 259,-253 0,-134 -121,-252 -259,-252z"/>
     <path class="fil2" d="M46923 37657c-328,0 -328,488 0,488 327,0 327,-488 0,-488z"/>
     <path class="fil2" d="M49865 39173c-327,0 -327,505 0,505 327,0 327,-505 0,-505z"/>
     <path class="fil2" d="M27496 52411l-173 0c-121,0 -258,118 -240,252 0,135 103,253 240,253l173 0c137,0 258,-118 258,-253 0,-134 -104,-252 -258,-252z"/>
     <path class="fil2" d="M23521 48166c-328,0 -328,506 0,506 327,0 327,-506 0,-506z"/>
     <path class="fil2" d="M17619 48503c-327,0 -327,505 0,505 328,0 328,-505 0,-505z"/>
     <path class="fil2" d="M14332 53437c-327,0 -327,488 0,488 310,0 327,-488 0,-488z"/>
     <path class="fil2" d="M20733 90169c-430,0 -430,674 0,674 447,0 447,-674 0,-674z"/>
     <path class="fil2" d="M26532 59214c-69,-50 -121,-118 -172,-168 -137,-119 -361,-135 -482,0 -121,134 -138,336 0,471 51,51 121,101 172,169 121,118 361,135 482,0 121,-134 121,-336 0,-472z"/>
     <path class="fil2" d="M33054 61387c-103,50 -224,118 -344,169 -155,83 -206,303 -121,454 104,152 293,202 465,119 121,-51 241,-119 344,-169 155,-84 224,-303 121,-455 -104,-152 -293,-202 -465,-118z"/>
     <path class="fil2" d="M70152 33077c-327,0 -327,488 0,488 328,0 328,-488 0,-488z"/>
     <path class="fil2" d="M62719 30955c51,-51 121,-101 172,-152 103,-101 103,-270 0,-354 -103,-101 -258,-101 -344,0 -69,51 -120,101 -189,152 -103,101 -85,270 0,354 104,101 259,84 362,0l-1 0z"/>
     <path class="fil2" d="M59759 34424c-327,0 -327,505 0,505 310,0 327,-505 0,-505z"/>
     <path class="fil2" d="M52635 33918c-310,0 -310,488 0,488 327,0 327,-488 0,-488z"/>
     <path class="fil2" d="M53856 38837c-327,0 -327,505 0,505 328,0 328,-505 0,-505z"/>
     <path class="fil2" d="M60275 36798c-327,0 -327,506 0,506 327,0 327,-506 0,-506z"/>
     <path class="fil2" d="M69464 29674c-328,0 -328,488 0,488 327,0 327,-488 0,-488z"/>
     <path class="fil2" d="M18136 61066c-328,0 -328,506 0,506 327,0 327,-506 0,-506z"/>
     <path class="fil2" d="M16397 65479c-310,0 -310,488 0,488 327,0 327,-488 0,-488z"/>
     <path class="fil2" d="M5144 62768c-328,0 -328,488 0,488 309,0 309,-488 0,-488z"/>
     <path class="fil2" d="M8258 62768c-327,0 -327,488 0,488 328,0 328,-488 0,-488z"/>
     <path class="fil2" d="M34430 77538c-309,0 -327,488 0,488 328,0 328,-488 0,-488z"/>
     <path class="fil2" d="M16053 40874c-327,0 -327,488 0,488 327,0 327,-488 0,-488z"/>
     <path class="fil2" d="M10341 44276c-328,0 -328,488 0,488 327,0 327,-488 0,-488z"/>
     <path class="fil2" d="M23521 69049c-328,0 -328,489 0,489 327,0 327,-489 0,-489z"/>
     <path class="fil2" d="M19184 69892c-327,0 -327,488 0,488 328,0 328,-488 0,-488z"/>
     <path class="fil2" d="M14677 78380c-327,0 -327,488 0,488 327,0 327,-488 0,-488z"/>
     <path class="fil2" d="M8602 83971c-327,0 -327,506 0,506 327,0 327,-506 0,-506z"/>
     <path class="fil2" d="M11545 85841c-328,0 -328,505 0,505 327,0 327,-505 0,-505z"/>
     <path class="fil2" d="M11201 89749c-328,0 -328,488 0,488 327,0 327,-488 0,-488z"/>
     <path class="fil2" d="M10065 56974c52,-51 103,-118 172,-169 225,-219 225,-606 0,-825 -240,-202 -601,-220 -843,0 -52,67 -103,118 -172,168 -207,220 -224,607 0,826 240,202 602,219 843,0z"/>
     <path class="fil2" d="M58365 40453l-172 0c-224,0 -224,321 0,321l172 0c224,0 224,-321 0,-321z"/>
     <path class="fil2" d="M45529 70481c-207,0 -207,337 0,337 224,0 224,-337 0,-337z"/>
     <path class="fil2" d="M41485 66692c69,-51 121,-118 172,-169 155,-151 -69,-387 -224,-235 -69,67 -121,118 -172,168 -155,152 69,388 224,236z"/>
     <path class="fil2" d="M48833 64368c-224,0 -224,336 0,336 206,0 206,-336 0,-336z"/>
     <path class="fil2" d="M49865 57749l0 -169c0,-202 -344,-202 -344,0l0 169c0,219 344,219 344,0z"/>
     <path class="fil2" d="M24382 80502l-173 0c-224,0 -224,321 0,321l173 0c224,0 224,-321 0,-321z"/>
     <path class="fil2" d="M20217 85083c-207,0 -207,320 0,320 224,0 224,-320 0,-320z"/>
     <path class="fil2" d="M7570 54616c-328,0 -328,506 0,506 327,0 327,-506 0,-506z"/>
     <path class="fil2" d="M7208 56149c-309,0 -309,488 0,488 328,0 328,-488 0,-488z"/>
     <path class="fil2" d="M5144 54616c-328,0 -328,506 0,506 309,0 309,-506 0,-506z"/>
     <path class="fil2" d="M8086 52578c-327,0 -327,506 0,506 327,0 327,-506 0,-506z"/>
     <path class="fil2" d="M5660 53437c-328,0 -328,488 0,488 327,0 327,-488 0,-488z"/>
     <path class="fil2" d="M16931 85252c-431,0 -447,657 0,657 430,0 430,-657 0,-657z"/>
     <path class="fil2" d="M2012 68107c-206,0 -206,336 0,336 224,0 224,-336 0,-336z"/>
     <path class="fil2" d="M3062 68107c-447,0 -447,674 0,674 431,0 431,-674 0,-674z"/>
     <path class="fil1" d="M49477 18225c1748,-4800 5969,-7709 9861,-7050 -601,-533 -1287,-962 -2053,-1255 -4194,-1600 -9164,1410 -11098,6725 -1935,5314 -103,10920 4092,12521 405,155 820,254 1238,324 -2685,-2387 -3622,-6922 -2040,-11265z"/>
     <path class="fil1" d="M23233 69146c2509,-1071 5167,-533 6309,1164 -7,-418 -86,-829 -247,-1222 -882,-2149 -3849,-2931 -6627,-1745 -2777,1187 -4314,3890 -3431,6040 85,208 195,400 318,581 -31,-1866 1408,-3849 3678,-4818z"/>
     <path class="fil1" d="M15137 79861c1627,-1090 3582,-1062 4625,-12 -63,-294 -176,-575 -344,-832 -921,-1404 -3128,-1564 -4930,-357 -1801,1207 -2515,3323 -1593,4728 89,136 193,256 305,369 -279,-1316 465,-2910 1937,-3896z"/>
     <path class="fil2" d="M8294 1967c-468,0 -468,-721 0,-721 502,0 502,721 0,721z"/>
     <path class="fil2" d="M49166 64971c-468,0 -468,-721 0,-721 502,0 502,721 0,721z"/>
     <path class="fil2" d="M41534 4031l-368 0c-468,0 -468,-721 0,-721l368 0c468,0 502,721 0,721z"/>
     <path class="fil2" d="M31626 33387c-267,0 -267,-360 0,-360 235,0 235,360 0,360z"/>
     <path class="fil2" d="M6787 62548c-235,0 -235,-360 0,-360 235,0 235,360 0,360z"/>
     <path class="fil2" d="M8294 57108c-468,0 -468,-721 0,-721 502,0 502,721 0,721z"/>
     <path class="fil2" d="M1800 21232l0 360c0,491 -737,491 -737,0l0 -360c0,-458 737,-458 737,0z"/>
     <path class="fil2" d="M26637 23853l-367 0c-503,0 -503,-753 0,-753l367 0c468,0 468,753 0,753z"/>
     <path class="fil2" d="M21283 76570l0 359c0,492 -738,492 -738,0l0 -359c0,-458 738,-458 738,0z"/>
     <path class="fil2" d="M8294 82532l-368 0c-468,0 -468,-721 0,-721l368 0c502,0 502,721 0,721z"/>
     <path class="fil2" d="M48429 38596c-737,0 -737,-1081 0,-1081 703,0 703,1081 0,1081z"/>
     <path class="fil2" d="M17667 7013l0 394c0,261 -267,556 -568,524 -301,0 -569,-230 -569,-524l0 -394c0,-261 268,-556 569,-524 301,0 568,230 568,524z"/>
     <path class="fil2" d="M16695 53177c-703,0 -703,-1082 0,-1082 737,0 737,1082 0,1082z"/>
     <path class="fil2" d="M40395 40300l0 360c0,492 -769,492 -769,0l0 -360c0,-458 769,-458 769,0z"/>
     <path class="fil2" d="M40395 52259c-468,0 -468,-722 0,-722 468,0 468,722 0,722z"/>
     <path class="fil2" d="M19776 42168c-502,0 -502,-753 0,-753 468,0 468,753 0,753z"/>
     <path class="fil2" d="M39525 27326c101,132 235,262 368,393 335,329 -201,820 -536,492 -101,-132 -235,-230 -368,-360 -335,-328 167,-851 536,-525z"/>
     <path class="fil2" d="M52245 25720c-502,0 -502,-753 0,-753 468,0 468,753 0,753z"/>
     <path class="fil2" d="M62554 38596c-737,0 -737,-1081 0,-1081 703,0 703,1081 0,1081z"/>
     <path class="fil2" d="M59676 17857l0 393c0,261 -267,556 -568,525 -301,0 -536,-230 -536,-525l0 -393c0,-262 235,-557 536,-525 301,0 568,230 568,525z"/>
     <path class="fil2" d="M36579 65135c-737,0 -737,-1082 0,-1082 703,0 703,1082 0,1082z"/>
     <path class="fil2" d="M10202 74342c-135,-131 -235,-261 -368,-393 -235,-196 -235,-556 0,-753 201,-230 569,-230 770,0 134,132 267,230 401,360 201,230 201,556 0,786 -235,197 -568,197 -803,0z"/>
     <path class="fil2" d="M7155 40104l-368 0c-301,0 -568,-262 -568,-556 34,-295 235,-557 568,-557l368 0c301,0 568,262 568,557 -34,294 -235,556 -568,556z"/>
     <path class="fil2" d="M3708 50194c-703,0 -703,-1081 0,-1081 738,0 738,1081 0,1081z"/>
     <path class="fil2" d="M29684 51506c-938,0 -938,-1475 0,-1475 970,0 970,1475 0,1475z"/>
     <path class="fil2" d="M21650 29817l0 393c0,360 -335,753 -737,721 -402,-33 -737,-328 -737,-721l0 -393c0,-360 335,-722 737,-722 402,34 737,329 737,722z"/>
     <path class="fil2" d="M8294 16711c-938,0 -938,-1441 0,-1441 970,0 970,1441 0,1441z"/>
     <path class="fil2" d="M62153 5702c-703,0 -703,-1081 0,-1081 737,0 737,1081 0,1081z"/>
     <path class="fil2" d="M41936 18775c-1206,0 -1206,-1803 0,-1803 1170,0 1170,1803 0,1803z"/>
     <path class="fil2" d="M26544 71087c135,-132 235,-262 368,-360 335,-328 870,163 536,492 -134,131 -267,261 -401,393 -336,328 -838,-197 -503,-525z"/>
     <path class="fil2" d="M28947 76570c-502,0 -502,-753 0,-753 468,0 468,753 0,753z"/>
     <path class="fil2" d="M17097 23459c-468,0 -468,-721 0,-721 468,0 468,721 0,721z"/>
     <path class="fil2" d="M24361 29455c-502,0 -502,-721 0,-721 468,0 468,721 0,721z"/>
     <path class="fil2" d="M22453 24214c-502,0 -502,-721 0,-721 468,0 468,721 0,721z"/>
     <path class="fil2" d="M18637 27194c-502,0 -502,-721 0,-721 468,0 468,721 0,721z"/>
     <path class="fil2" d="M37919 23526c267,-132 502,-230 769,-360 402,-230 803,427 367,624 -267,131 -502,261 -769,359 -436,230 -803,-393 -367,-623z"/>
     <path class="fil2" d="M47258 26441c-468,0 -468,-721 0,-721 502,0 502,721 0,721z"/>
     <path class="fil2" d="M52613 47574c-703,0 -703,-1081 0,-1081 737,0 737,1081 0,1081z"/>
     <path class="fil2" d="M52245 52424c-737,0 -737,-1082 0,-1082 703,0 703,1082 0,1082z"/>
     <path class="fil2" d="M59877 45543c-100,132 -235,262 -367,360 -201,230 -569,230 -804,0 -201,-197 -201,-556 0,-753 135,-132 267,-261 402,-360 201,-230 568,-230 769,0 235,197 235,557 0,753z"/>
     <path class="fil2" d="M16695 56715c-938,0 -938,-1441 0,-1441 970,0 970,1441 0,1441z"/>
     <path class="fil2" d="M3708 11501c-468,0 -468,-721 0,-721 503,0 503,721 0,721z"/>
     <path class="fil2" d="M2202 6261c-468,0 -468,-722 0,-722 468,0 468,722 0,722z"/>
    </g>
    <g>
     <path class="fil3" d="M55906 69399l0 -339c0,-259 -232,-506 -505,-494 -273,12 -504,217 -504,494l0 339c0,258 232,506 504,494 274,-12 505,-217 505,-494z"/>
     <path class="fil3" d="M59211 64498c-649,0 -651,988 0,988 650,0 651,-988 0,-988z"/>
     <path class="fil3" d="M28889 90843c-224,0 -224,336 0,336 224,0 224,-336 0,-336z"/>
     <path class="fil3" d="M26556 94075l0 -169c0,-134 -121,-252 -259,-252 -137,17 -258,118 -258,252l0 169c0,134 121,252 258,252 138,-17 259,-118 259,-252z"/>
     <path class="fil3" d="M7557 101044c-737,0 -737,-1081 0,-1081 703,0 703,1081 0,1081z"/>
     <path class="fil3" d="M23960 95441c-703,0 -703,-1114 0,-1114 737,0 737,1114 0,1114z"/>
     <path class="fil3" d="M55055 63645c-433,0 -434,659 0,659 433,0 434,-659 0,-659z"/>
     <path class="fil3" d="M41611 80995c-433,0 -434,659 0,659 433,0 434,-659 0,-659z"/>
     <path class="fil3" d="M64921 54251c-866,0 -868,1318 0,1318 866,0 868,-1318 0,-1318z"/>
     <path class="fil3" d="M44461 75349c-51,169 -120,336 -172,505 -69,202 258,286 327,84 52,-169 121,-337 173,-505 69,-202 -258,-286 -328,-84z"/>
     <path class="fil3" d="M39110 81008c-206,0 -206,336 0,336 224,0 224,-336 0,-336z"/>
     <path class="fil3" d="M49176 78801c-224,0 -224,336 0,336 224,0 224,-336 0,-336z"/>
     <path class="fil3" d="M62874 58608l-173 0c-224,0 -224,320 0,320l173 0c224,0 224,-320 0,-320z"/>
     <path class="fil3" d="M69859 45252c-52,51 -121,101 -172,169 -155,151 85,387 240,235 52,-67 121,-118 173,-168 154,-152 -86,-387 -241,-236z"/>
     <path class="fil3" d="M61166 62117c-224,0 -224,337 0,337 224,0 224,-337 0,-337z"/>
     <path class="fil3" d="M52824 71593l-189 0c-121,0 -258,118 -241,253 0,134 104,235 241,235l189 0c121,0 258,-118 240,-235 0,-135 -103,-253 -240,-253z"/>
     <path class="fil3" d="M34430 86177c-309,0 -327,506 0,506 328,0 328,-506 0,-506z"/>
     <path class="fil3" d="M38078 36647c-757,0 -757,1145 0,1145 757,0 757,-1145 0,-1145z"/>
     <path class="fil4" d="M57946 10216c3721,1913 5261,7199 3430,12225 -1911,5252 -6786,8254 -10950,6779 359,124 724,209 1091,270 -2685,-2387 -3621,-6922 -2041,-11265 1749,-4800 5970,-7709 9862,-7050 -423,-375 -887,-698 -1392,-959zm-7863 18872c-2124,-890 -3614,-2826 -4279,-5220 665,2394 2155,4330 4279,5220zm-4279 -5220c-161,-580 -273,-1188 -334,-1814 61,626 173,1233 334,1814zm-334 -1814c-54,-547 -68,-1109 -41,-1680 -27,571 -13,1133 41,1680zm-8 -2170c22,-247 51,-494 88,-743 -37,249 -66,496 -88,743zm173 -1241c127,-665 310,-1334 551,-1998 182,-498 390,-976 622,-1432 -232,456 -440,934 -621,1432 -242,664 -425,1333 -552,1998zm1537 -4097c85,-145 172,-287 262,-426 -90,139 -177,281 -262,426zm537 -835c94,-134 191,-265 289,-394 -98,129 -195,260 -289,394z"/>
     <g>
      <path class="fil4" d="M29422 69461c575,2081 -940,4549 -3559,5667 -2739,1170 -5663,426 -6589,-1658 79,175 175,338 281,495 -31,-1867 1408,-3850 3678,-4819 55,-23 109,-46 164,-68 15,-8 32,-14 49,-19 2445,-953 4986,-398 6096,1251 -5,-287 -44,-571 -120,-849zm-10262 3719c-22,-68 -43,-137 -61,-206l0 0c-9,-35 -18,-69 -26,-104l0 0c-16,-70 -29,-139 -41,-209l128 519zm-128 -520c-17,-105 -29,-211 -36,-317 7,106 19,212 36,317zm-42 -424c-30,-783 203,-1590 650,-2336 -447,746 -679,1553 -650,2336zm650 -2336c122,-204 259,-403 412,-595 -153,192 -290,391 -412,595zm412 -595c102,-129 210,-255 324,-377 -114,122 -222,248 -324,377z"/>
     </g>
     <path class="fil4" d="M19590 79329c642,1390 -93,3295 -1766,4416 -1779,1192 -3955,1051 -4895,-307 81,116 173,221 271,319 -279,-1316 465,-2910 1937,-3896 1627,-1090 3582,-1062 4625,-12 -38,-180 -95,-353 -172,-520zm-6848 3790c-44,-92 -83,-186 -116,-283 33,97 72,191 116,283zm-178 -503c-29,-120 -49,-242 -60,-365 11,123 31,245 60,365zm-56 -927c5,-50 11,-100 19,-150 -8,50 -14,100 -19,150z"/>
     <path class="fil3" d="M43442 84040c-468,0 -468,-722 0,-722 502,0 502,722 0,722z"/>
     <path class="fil3" d="M41936 78241c-737,0 -737,-1115 0,-1115 703,0 703,1115 0,1115z"/>
     <path class="fil3" d="M22052 62514c-703,0 -703,-1081 0,-1081 737,0 737,1081 0,1081z"/>
     <path class="fil3" d="M69050 4590c-737,0 -737,-1115 0,-1115 703,0 703,1115 0,1115z"/>
     <path class="fil3" d="M11742 93181c-703,0 -703,-1081 0,-1081 737,0 737,1081 0,1081z"/>
     <path class="fil3" d="M22052 87578c-703,0 -703,-1081 0,-1081 737,0 737,1081 0,1081z"/>
     <path class="fil3" d="M35810 86464l-368 0c-301,0 -568,-262 -568,-557 0,-295 235,-525 568,-525l368 0c301,0 568,230 568,525 -34,295 -267,557 -568,557z"/>
     <path class="fil3" d="M57200 50556c-1673,0 -1673,-2555 0,-2555 1673,0 1673,2555 0,2555z"/>
     <path class="fil3" d="M12678 29455l0 360c0,688 -602,1311 -1305,1278 -703,-34 -1306,-557 -1306,-1278l0 -360c0,-655 603,-1311 1306,-1278 703,34 1305,557 1305,1278z"/>
    </g>
   </g>
  </g>
 </g>
</svg>
