<?xml version="1.0" encoding="UTF-8"?>
<!DOCTYPE svg PUBLIC "-//W3C//DTD SVG 1.1//EN" "http://www.w3.org/Graphics/SVG/1.1/DTD/svg11.dtd">
<!-- Creator: CorelDRAW X7 -->
<svg xmlns="http://www.w3.org/2000/svg" xml:space="preserve" width="4.24984in" height="3.09654in" version="1.1" style="shape-rendering:geometricPrecision; text-rendering:geometricPrecision; image-rendering:optimizeQuality; fill-rule:evenodd; clip-rule:evenodd"
viewBox="0 0 42498 30965"
 xmlns:xlink="http://www.w3.org/1999/xlink">
 <defs>
  <style type="text/css">
   <![CDATA[
    .fil0 {fill:none}
    .fil2 {fill:#927C53}
    .fil1 {fill:#BB9B61}
    .fil4 {fill:#D2AE6D}
    .fil5 {fill:url(#id0)}
    .fil3 {fill:url(#id1)}
   ]]>
  </style>
  <linearGradient id="id0" gradientUnits="userSpaceOnUse" x1="13700.7" y1="14093.3" x2="20454.8" y2="14093.3">
   <stop offset="0" style="stop-opacity:1; stop-color:#D7C1A3"/>
   <stop offset="0.160784" style="stop-opacity:1; stop-color:#D7C1A3"/>
   <stop offset="0.380392" style="stop-opacity:1; stop-color:#D7C5AA"/>
   <stop offset="0.470588" style="stop-opacity:1; stop-color:#D7C4A7"/>
   <stop offset="0.701961" style="stop-opacity:1; stop-color:#D5BF9C"/>
   <stop offset="0.901961" style="stop-opacity:1; stop-color:#D6B67E"/>
   <stop offset="1" style="stop-opacity:1; stop-color:#D6B67E"/>
  </linearGradient>
  <linearGradient id="id1" gradientUnits="userSpaceOnUse" x1="13504.3" y1="14095.1" x2="20461.2" y2="14095.1">
   <stop offset="0" style="stop-opacity:1; stop-color:#D1AE70"/>
   <stop offset="0.839216" style="stop-opacity:1; stop-color:#D1B27E"/>
   <stop offset="0.301961" style="stop-opacity:1; stop-color:#D1AE70"/>
   <stop offset="0.501961" style="stop-opacity:1; stop-color:#D0B484"/>
   <stop offset="0.8" style="stop-opacity:1; stop-color:#D0B68D"/>
   <stop offset="1" style="stop-opacity:1; stop-color:#D0B68D"/>
  </linearGradient>
 </defs>
 <g id="Layer_x0020_1">
  <metadata id="CorelCorpID_0Corel-Layer"/>
  <g id="_2596466034960">
   <rect class="fil0" width="42498" height="30965"/>
   <g>
    <g>
     <g>
      <path class="fil1" d="M21062 25462c-107,0 -214,-28 -308,-82l-983 -582c-147,-82 -75,-111 -27,-128 196,-68 236,-84 445,-202 21,-13 50,-8 73,5l754 448c28,14 66,14 92,0l2943 -1699c27,-16 45,-47 45,-80l0 -3396c0,-34 -18,-64 -46,-81l-2942 -1697c-27,-16 -63,-16 -90,0l-2942 1697c-28,16 -46,48 -46,80l0 3397c0,32 17,63 45,78l806 466c438,219 705,-39 705,-298l0 -3352c0,-48 38,-85 86,-85l373 0c46,0 84,37 84,85l0 3353c0,584 -318,919 -871,919 -170,0 -304,0 -679,-184l-772 -445c-191,-111 -308,-317 -308,-537l0 -3397c0,-221 117,-427 308,-536l2946 -1699c187,-106 434,-106 619,0l2942 1700c190,110 309,315 309,536l0 3396c0,221 -119,426 -309,537l-2942 1699c-94,55 -201,83 -310,83l0 1zm0 0l0 0 0 0z"/>
     </g>
     <g>
      <path class="fil1" d="M21971 23122c-1287,0 -1557,-591 -1557,-1087 0,-47 38,-85 85,-85l380 0c42,0 77,31 84,72 57,388 228,583 1007,583 620,0 884,-140 884,-469 0,-189 -75,-330 -1039,-424 -806,-80 -1304,-257 -1304,-902 0,-594 501,-947 1340,-947 943,0 1410,327 1469,1030 2,24 -7,48 -23,65 -16,17 -39,27 -63,27l-382 0c-40,0 -75,-28 -83,-66 -92,-407 -314,-538 -919,-538 -677,0 -756,236 -756,413 0,214 93,277 1006,398 905,120 1334,289 1334,925 0,641 -534,1009 -1467,1009l4 -4zm3581 -3598l98 0c82,0 97,-57 97,-90 0,-87 -60,-87 -93,-87l-102 0 0 177zm-120 -279l218 0c76,0 223,0 223,168 0,118 -75,142 -120,157 88,5 93,63 105,144 6,51 16,138 33,168l-134 0c-4,-30 -25,-192 -25,-201 -9,-36 -21,-53 -66,-53l-111 0 0 255 -123 0 0 -638zm-263 317c0,264 213,478 474,478 264,0 477,-219 477,-478 0,-264 -216,-474 -478,-474 -257,0 -474,207 -474,473l1 1zm1042 2c0,312 -256,567 -567,567 -310,0 -567,-252 -567,-567 0,-322 263,-568 567,-568 306,0 566,247 566,568l1 0zm0 0l0 0 0 0z"/>
     </g>
     <path class="fil2" d="M11949 12174c0,-136 -72,-260 -189,-328l-3120 -1795c-53,-31 -112,-47 -172,-49l-32 0c-60,2 -119,18 -172,49l-3120 1795c-117,68 -189,193 -189,328l7 4836c0,67 34,130 93,163 58,35 130,35 187,0l1855 -1063c117,-69 189,-193 189,-327l0 -2259c0,-135 71,-259 188,-326l790 -455c58,-34 123,-51 188,-51 65,0 131,17 188,51l789 455c117,67 189,191 189,326l0 2259c0,134 72,258 189,327l1854 1062c58,34 130,34 188,0 57,-34 94,-96 94,-163l6 -4835zm14724 2518c0,33 -18,64 -48,81l-1071 618c-29,17 -65,17 -94,0l-1072 -618c-30,-17 -47,-48 -47,-81l0 -1238c0,-34 17,-65 46,-82l1071 -618c30,-17 66,-17 95,0l1072 618c30,17 47,48 47,82l1 1238zm289 -9165c-58,-33 -130,-32 -187,2 -58,34 -93,96 -93,163l0 4788c0,47 -25,91 -66,114 -41,24 -91,24 -132,0l-782 -450c-116,-67 -259,-67 -376,0l-3122 1802c-116,67 -188,191 -188,325l0 3604c0,135 72,259 188,327l3122 1802c116,67 260,67 377,0l3121 -1803c117,-68 189,-192 189,-327l0 -8981c0,-137 -75,-263 -194,-330l-1857 -1036zm10394 7895c116,-68 188,-192 188,-326l0 -874c0,-134 -72,-258 -188,-326l-3101 -1800c-118,-68 -261,-68 -378,0l-3121 1801c-117,68 -189,192 -189,327l0 3602c0,136 73,261 191,328l3100 1767c114,66 254,66 370,2l1876 -1042c59,-33 96,-96 96,-164 0,-67 -36,-131 -95,-164l-3140 -1802c-59,-33 -95,-96 -95,-163l0 -1130c0,-67 36,-129 95,-163l976 -564c59,-33 130,-33 188,0l978 564c58,33 94,96 94,163l0 888c0,67 36,130 95,164 58,33 130,33 188,-1l1872 -1087zm0 0z"/>
     <path class="fil1" d="M34020 13253c22,-13 50,-13 72,0l599 346c22,13 36,36 36,62l0 692c0,26 -14,50 -36,63l-599 345c-22,13 -50,13 -72,0l-599 -345c-22,-13 -36,-37 -36,-63l0 -692c0,-26 13,-49 36,-62l599 -346zm0 0z"/>
     <path class="fil3" d="M16795 10186l-3103 1791c-116,67 -188,191 -188,325l0 3585c0,134 72,258 188,325l3104 1792c116,67 259,67 375,0l3103 -1792c116,-67 187,-191 187,-325l0 -3585c0,-134 -71,-258 -188,-325l-3103 -1791c-58,-34 -123,-50 -187,-50 -65,0 -130,16 -188,50l0 0zm0 0l0 0 0 0z"/>
     <path class="fil4" d="M13581 16115c30,38 67,72 111,97l2662 1537 444 255c66,39 141,55 216,49 24,-2 49,-6 73,-13l3274 -5994c-25,-27 -55,-50 -87,-69l-2033 -1174 -1074 -618c-30,-17 -63,-30 -97,-39l-3489 5969z"/>
     <path class="fil5" d="M20455 15962l0 -9 -3401 -5809c-23,-5 -47,-7 -71,-8l-1 0 -7 0 0 0 -1 0 0 0c-9,0 -18,1 -27,2l-2 0c-52,5 -103,21 -149,48l-3095 1786 3337 6078c46,-6 92,-22 133,-46l3104 -1792c94,-55 159,-146 180,-250zm-3510 -5824l0 0 0 0z"/>
    </g>
    <path class="fil1" d="M13692 16212l2709 1564 397 228c65,38 138,54 211,50 10,-1 19,-2 29,-4l-2222 -4047 -1235 2112c30,38 67,72 111,97z"/>
    <path class="fil1" d="M19301 13987l1153 1974c5,-24 7,-49 7,-74l0 -3585c0,-96 -37,-187 -100,-256l-1060 1941z"/>
   </g>
  </g>
 </g>
</svg>
