<?xml version="1.0" encoding="UTF-8"?>
<!DOCTYPE svg PUBLIC "-//W3C//DTD SVG 1.1//EN" "http://www.w3.org/Graphics/SVG/1.1/DTD/svg11.dtd">
<!-- Creator: CorelDRAW X7 -->
<svg xmlns="http://www.w3.org/2000/svg" xml:space="preserve" width="4.24984in" height="3.09654in" version="1.1" style="shape-rendering:geometricPrecision; text-rendering:geometricPrecision; image-rendering:optimizeQuality; fill-rule:evenodd; clip-rule:evenodd"
viewBox="0 0 42498 30965"
 xmlns:xlink="http://www.w3.org/1999/xlink">
 <defs>
  <style type="text/css">
   <![CDATA[
    .fil0 {fill:none}
    .fil5 {fill:none;fill-rule:nonzero}
    .fil1 {fill:#A38755}
    .fil9 {fill:#EEE0C6}
    .fil8 {fill:#FBF9F4}
    .fil4 {fill:#75613D;fill-rule:nonzero}
    .fil3 {fill:#A38755;fill-rule:nonzero}
    .fil2 {fill:#D2AE6D;fill-rule:nonzero}
    .fil7 {fill:#707070;fill-rule:nonzero;fill-opacity:0.007843}
    .fil6 {fill:white;fill-rule:nonzero;fill-opacity:0.007843}
   ]]>
  </style>
 </defs>
 <g id="Layer_x0020_1">
  <metadata id="CorelCorpID_0Corel-Layer"/>
  <g id="_2596362996656">
   <rect class="fil0" width="42498" height="30965"/>
   <g>
    <g>
     <path class="fil1" d="M13223 21536l0 2731 408 0 0 -2731 -408 0zm21015 1869c0,-525 -369,-919 -887,-919 -517,0 -886,394 -886,919 0,524 369,918 886,918 518,0 887,-394 887,-918zm-887 -623c289,0 564,229 564,623 0,394 -275,623 -564,623 -288,0 -562,-229 -562,-623 0,-394 274,-623 562,-623zm1148 -240l0 1725 323 0 0 -943c0,-317 225,-503 447,-503 70,0 127,6 172,24l124 -303c-67,-28 -138,-42 -243,-42 -180,0 -429,127 -500,324l-14 0 0 -282 -309 0zm1241 0l0 1725 324 0 0 -954c0,-264 176,-531 440,-531 246,0 384,119 384,478l0 1007 323 0 0 -954c0,-264 176,-531 440,-531 247,0 384,119 384,478l0 1007 323 0 0 -1056c0,-426 -193,-725 -615,-725 -268,0 -479,138 -602,331 -88,-204 -267,-331 -545,-331 -204,0 -433,130 -532,296l-14 0 0 -240 -310 0zm-4461 0l0 296 324 0 0 1429 324 0 0 -1429 450 0 0 -296 -451 0 0 -218c0,-200 127,-295 289,-295 60,0 106,7 148,28l112 -278c-74,-32 -151,-46 -260,-46 -362,0 -612,229 -612,581l0 228 -324 0zm-162 296l0 -296 -422 0 0 -527 -324 0 0 527 -302 0 0 296 302 0 0 904c0,352 194,553 556,553 109,0 187,-14 260,-46l-112 -278c-46,21 -88,28 -148,28 -151,0 -232,-88 -232,-281l0 -880 422 0zm-1981 -352c-433,0 -640,260 -700,419l296 127c59,-162 232,-250 411,-250 243,0 451,158 451,419l0 49c-67,-39 -236,-106 -468,-106 -405,0 -757,211 -757,602 0,359 292,577 644,577 296,0 472,-151 567,-295l14 0 0 239 309 0 0 -1042c0,-486 -344,-739 -767,-739zm46 926c275,0 412,112 412,112 0,282 -271,504 -528,504 -169,0 -359,-92 -359,-275 0,-158 134,-341 475,-341zm-1414 -1665l0 2520 323 0 0 -2520 -323 0zm-560 750c0,200 -162,440 -450,440l-542 0 0 -880 542 0c288,0 450,239 450,440zm-1316 -750l0 2520 324 0 0 -1021 535 0c419,0 788,-309 788,-749 0,-440 -369,-750 -788,-750l-859 0zm-1192 1658c0,394 -261,623 -550,623 -288,0 -548,-236 -548,-623 0,-387 260,-623 548,-623 289,0 550,229 550,623zm-1422 0c0,527 383,918 820,918 274,0 489,-137 587,-295l15 0 0 239 309 0 0 -2520 -324 0 0 795 15 240 -15 0c-98,-158 -313,-296 -587,-296 -437,0 -820,391 -820,919zm-1788 193c0,426 215,725 658,725 236,0 451,-137 546,-295l14 0 0 239 310 0 0 -1725 -324 0 0 951c0,263 -173,535 -454,535 -246,0 -426,-124 -426,-483l0 -1003 -324 0 0 1056zm-2019 -193c0,524 369,918 886,918 518,0 887,-394 887,-918 0,-525 -369,-919 -887,-919 -517,0 -886,394 -886,919zm1450 0c0,394 -275,623 -564,623 -288,0 -563,-229 -563,-623 0,-394 275,-623 563,-623 289,0 564,229 564,623zm-2017 -1658l0 2520 324 0 0 -2520 -324 0zm-253 2126l-225 -226c-190,219 -457,367 -774,367 -532,0 -979,-388 -979,-1007 0,-619 447,-1006 979,-1006 288,0 524,102 700,320l225 -218c-225,-261 -545,-412 -925,-412 -743,0 -1309,566 -1309,1316 0,750 566,1316 1309,1316 422,0 777,-187 999,-450zm-12041 45c261,-260 341,-626 341,-921 0,-92 -7,-176 -21,-247l-1326 0 0 394 943 0c-28,222 -102,384 -215,496 -137,138 -352,289 -728,289 -581,0 -1035,-468 -1035,-1049 0,-580 454,-1048 1035,-1048 313,0 542,123 711,281l278 -278c-236,-225 -549,-397 -989,-397 -796,0 -1464,647 -1464,1442 0,796 668,1443 1464,1443 429,0 753,-141 1006,-405zm1414 -1453c-514,0 -933,391 -933,929 0,535 419,929 933,929 513,0 932,-394 932,-929 0,-538 -419,-929 -932,-929zm-525 929c0,-334 243,-563 525,-563 281,0 524,229 524,563 0,331 -243,563 -524,563 -282,0 -525,-232 -525,-563zm2559 -929c-514,0 -933,391 -933,929 0,535 419,929 933,929 513,0 932,-394 932,-929 0,-538 -419,-929 -932,-929zm-524 929c0,-334 242,-563 524,-563 281,0 524,229 524,563 0,331 -243,563 -524,563 -282,0 -524,-232 -524,-563zm2518 -929c-465,0 -891,408 -891,933 0,520 426,925 891,925 221,0 397,-98 489,-211l14 0 0 134c0,355 -190,545 -496,545 -250,0 -405,-179 -469,-331l-355 148c102,246 373,549 824,549 478,0 883,-282 883,-968l0 -1668 -387 0 0 152 -14 0c-92,-109 -268,-208 -489,-208zm35 366c278,0 496,239 496,567 0,323 -218,559 -496,559 -282,0 -518,-236 -518,-559 0,-328 236,-567 518,-567zm2617 -366c-478,0 -876,377 -876,929 0,521 394,929 922,929 426,0 672,-260 774,-412l-316 -211c-106,155 -250,257 -458,257 -207,0 -355,-95 -450,-281l1242 -514 -42 -106c-78,-207 -313,-591 -796,-591zm-471 901c-11,-359 278,-542 486,-542 162,0 299,81 345,197l-831 345z"/>
     <path id="path22" class="fil2" d="M23529 16354l-1516 2636 -3972 0c-355,0 -682,-189 -858,-497l-3213 -5602c-175,-305 -175,-679 0,-984l1223 -2131 1509 2623 2275 3955 4552 0z"/>
     <path id="path26" class="fil3" d="M28537 12891l-3213 5602c-176,308 -503,497 -857,497l-2454 0 1516 -2636 2277 -3955 -2277 -3954 3022 0 1986 3462c175,305 175,679 0,984z"/>
     <path id="path30" class="fil4" d="M26551 8445l-7574 0 -2275 3954 -1509 -2623 1990 -3471c176,-307 503,-497 858,-497l6426 0c354,0 681,190 857,497l1227 2140z"/>
     <path id="path64" class="fil5" d="M16702 12399l2275 -3954 7574 0 -47 -83m-7527 0l-2275 3955"/>
     <path id="path80" class="fil6" d="M13970 11990l1223 -2132 1509 2624 2275 3954 4504 0 48 -82 0 0 -4552 0 -2275 -3955 -1509 -2623 -1223 2131c-87,152 -129,320 -129,489l0 4c0,14 0,27 0,40 7,-155 49,-310 129,-450z"/>
     <path id="path96" class="fil7" d="M22060 18908l-4019 0c-355,0 -682,-190 -858,-497l-3213 -5602c-80,-140 -122,-295 -128,-451 -8,184 33,368 128,533l3213 5602c176,308 503,497 858,497l3972 0 47 -82z"/>
     <path class="fil8" d="M18977 8445l-2275 3954 2276 3955 4551 0 2276 -3955 -2276 -3954 -4552 0zm300 3954c0,-1092 885,-1977 1977,-1977 1092,0 1977,885 1977,1977 0,1092 -885,1978 -1977,1978 -1092,0 -1977,-886 -1977,-1978z"/>
    </g>
    <path class="fil9" d="M21254 14377c1092,0 1977,-886 1977,-1978 0,-1092 -885,-1977 -1977,-1977 -1092,0 -1977,885 -1977,1977 0,1092 885,1978 1977,1978z"/>
   </g>
  </g>
 </g>
</svg>
