<?xml version="1.0" encoding="UTF-8"?>
<!DOCTYPE svg PUBLIC "-//W3C//DTD SVG 1.1//EN" "http://www.w3.org/Graphics/SVG/1.1/DTD/svg11.dtd">
<!-- Creator: CorelDRAW X7 -->
<svg xmlns="http://www.w3.org/2000/svg" xml:space="preserve" width="4.24984in" height="3.09654in" version="1.1" style="shape-rendering:geometricPrecision; text-rendering:geometricPrecision; image-rendering:optimizeQuality; fill-rule:evenodd; clip-rule:evenodd"
viewBox="0 0 42498 30965"
 xmlns:xlink="http://www.w3.org/1999/xlink">
 <defs>
  <style type="text/css">
   <![CDATA[
    .fil0 {fill:none}
    .fil1 {fill:#A38755}
    .fil2 {fill:#FBF9F4}
   ]]>
  </style>
 </defs>
 <g id="Layer_x0020_1">
  <metadata id="CorelCorpID_0Corel-Layer"/>
  <g id="_2596513381616">
   <rect class="fil0" width="42498" height="30965"/>
   <g>
    <g>
     <polygon class="fil1" points="12391,15483 12391,24341 21249,24341 30107,24341 30107,15483 30107,6624 21249,6624 12391,6624 "/>
     <path class="fil2" d="M16309 15541l-6 726 1153 0 1153 0 0 3276 0 3276 816 0 815 0 0 -3276 0 -3276 1153 0 1153 0 0 -711c0,-394 -8,-723 -20,-732 -8,-11 -1411,-16 -3113,-14l-3096 9 -8 722z"/>
     <path class="fil2" d="M26686 14798c450,113 793,312 1108,639 164,174 405,492 425,568 6,22 -765,539 -1232,829 -17,11 -84,-62 -160,-174 -228,-332 -467,-475 -832,-501 -537,-36 -883,245 -881,715 0,137 20,219 76,331 118,245 338,391 1027,689 1268,546 1811,906 2148,1418 377,571 461,1482 206,2159 -282,737 -979,1238 -1961,1404 -303,53 -1023,45 -1349,-14 -712,-127 -1387,-478 -1803,-940 -163,-180 -481,-649 -461,-683 8,-11 81,-56 163,-104 79,-45 377,-217 658,-380l509 -295 107 157c149,228 475,540 672,644 565,299 1341,256 1724,-87 163,-149 230,-303 230,-531 0,-206 -25,-295 -132,-450 -138,-197 -419,-363 -1217,-709 -914,-394 -1308,-638 -1668,-1026 -208,-225 -405,-585 -487,-886 -67,-250 -84,-877 -30,-1131 188,-883 854,-1498 1816,-1681 312,-59 1038,-37 1344,39z"/>
    </g>
   </g>
  </g>
 </g>
</svg>
