<?xml version="1.0" encoding="UTF-8"?>
<!DOCTYPE svg PUBLIC "-//W3C//DTD SVG 1.1//EN" "http://www.w3.org/Graphics/SVG/1.1/DTD/svg11.dtd">
<!-- Creator: CorelDRAW X7 -->
<svg xmlns="http://www.w3.org/2000/svg" xml:space="preserve" width="4.24984in" height="3.09654in" version="1.1" style="shape-rendering:geometricPrecision; text-rendering:geometricPrecision; image-rendering:optimizeQuality; fill-rule:evenodd; clip-rule:evenodd"
viewBox="0 0 42498 30965"
 xmlns:xlink="http://www.w3.org/1999/xlink">
 <defs>
  <style type="text/css">
   <![CDATA[
    .fil0 {fill:none}
    .fil1 {fill:#A38755}
    .fil2 {fill:#D2AE6D}
   ]]>
  </style>
 </defs>
 <g id="Layer_x0020_1">
  <metadata id="CorelCorpID_0Corel-Layer"/>
  <g id="_2596363001328">
   <rect class="fil0" width="42498" height="30965"/>
   <g>
    <g>
     <path class="fil1" d="M21249 26149c5891,0 10667,-4775 10667,-10666 0,-5891 -4776,-10667 -10667,-10667 -5891,0 -10666,4776 -10666,10667 0,5891 4775,10666 10666,10666l0 0zm0 -1600c-5007,0 -9066,-4059 -9066,-9066 0,-5008 4059,-9067 9066,-9067 5008,0 9067,4059 9067,9067 0,5007 -4059,9066 -9067,9066l0 0z"/>
     <path class="fil2" d="M21249 24016c4713,0 8534,-3820 8534,-8533 0,-4713 -3821,-8534 -8534,-8534 -4713,0 -8533,3821 -8533,8534 0,4713 3820,8533 8533,8533l0 0zm0 -16533c-294,0 -533,240 -533,537l0 6929 -3735 0c-294,0 -532,237 -532,534 0,294 243,533 531,533l4803 0 0 -8000c0,-294 -237,-533 -534,-533l0 0z"/>
    </g>
   </g>
  </g>
 </g>
</svg>
