<?xml version="1.0" encoding="UTF-8"?>
<!DOCTYPE svg PUBLIC "-//W3C//DTD SVG 1.1//EN" "http://www.w3.org/Graphics/SVG/1.1/DTD/svg11.dtd">
<!-- Creator: CorelDRAW X7 -->
<svg xmlns="http://www.w3.org/2000/svg" xml:space="preserve" width="4.24984in" height="3.09654in" version="1.1" style="shape-rendering:geometricPrecision; text-rendering:geometricPrecision; image-rendering:optimizeQuality; fill-rule:evenodd; clip-rule:evenodd"
viewBox="0 0 42498 30965"
 xmlns:xlink="http://www.w3.org/1999/xlink">
 <defs>
  <style type="text/css">
   <![CDATA[
    .fil0 {fill:none}
    .fil5 {fill:#AB9162}
    .fil7 {fill:#8B7A5B;fill-rule:nonzero}
    .fil1 {fill:#A38755;fill-rule:nonzero}
    .fil6 {fill:#D2AE6D;fill-rule:nonzero}
    .fil3 {fill:#DBBE8A;fill-rule:nonzero}
    .fil2 {fill:#EDDFC4;fill-rule:nonzero}
    .fil4 {fill:#FBF9F4;fill-rule:nonzero}
   ]]>
  </style>
 </defs>
 <g id="Layer_x0020_1">
  <metadata id="CorelCorpID_0Corel-Layer"/>
  <g id="_2598338813040">
   <rect class="fil0" width="42498" height="30965"/>
   <g>
    <path class="fil1" d="M21470 17108l-8443 8443c276,288 664,468 1096,469l14462 0c491,-1 925,-234 1203,-594l-8318 -8318z"/>
    <path class="fil2" d="M24006 14495l-2324 2324 8294 8294c83,-189 130,-398 130,-619l0 -9077c-136,197 -271,393 -402,584 -231,372 -490,769 -718,1163 -683,1184 -1160,2341 -1335,4017 -47,141 -154,233 -271,233 -106,0 -203,-74 -256,-194 0,-1 0,-3 0,-4 -173,-1696 -652,-2860 -1340,-4052 -228,-394 -487,-791 -718,-1163 -331,-485 -678,-990 -1060,-1505 0,0 0,-1 0,-1l0 0z"/>
    <path class="fil3" d="M23365 13495l-10763 10763 0 236c0,846 681,1526 1526,1526l296 0 10388 -10388c-256,-371 -519,-749 -806,-1136 -91,-140 -187,-280 -288,-419 -87,-147 -179,-293 -276,-439 -24,-48 -51,-95 -77,-143z"/>
    <path class="fil4" d="M23180 17264l-1792 1791 6965 6965 232 0c844,-2 1522,-682 1522,-1526l0 -304 -6927 -6926z"/>
    <path class="fil5" d="M24006 14495l0 0zm-11404 -4453l0 14216 10763 -10763c25,48 53,95 77,143 97,146 189,292 277,439 99,138 195,278 287,418 0,0 0,1 0,1 8,10 16,21 24,31 372,505 711,999 1036,1474 231,372 490,769 718,1163 687,1190 1165,2352 1339,4042l199 199c19,6 38,9 58,9 117,-1 223,-92 271,-233 175,-1676 652,-2834 1335,-4017 228,-394 487,-791 718,-1163 131,-191 266,-387 403,-584l0 -5375c0,-843 -683,-1526 -1526,-1526l-14453 0c-843,0 -1526,683 -1526,1526z"/>
    <path class="fil4" d="M18049 11878c0,1 0,1 1,2l0 -1 -1 -1zm-1290 -1648c-1361,0 -2464,1122 -2464,2506 0,1385 1103,2507 2464,2507 886,0 1399,-279 1845,-733 446,-453 608,-1139 608,-1831 0,-106 -7,-211 -19,-315l-960 0 -183 0 -1262 0 0 886 1413 0c-57,221 -155,423 -308,579 -274,279 -591,451 -1136,451 -838,0 -1517,-691 -1517,-1544 0,-852 679,-1543 1517,-1543 407,0 762,118 1044,376l693 -693c0,0 -1,-1 -1,-1 -463,-444 -1054,-645 -1734,-645l0 0z"/>
    <g>
     <path class="fil6" d="M27401 6091c2699,0 4886,2088 4886,4664 -2,804 -193,1594 -609,2294 -126,205 -242,410 -347,614 -97,146 -189,292 -276,439 -100,138 -196,278 -288,419 -382,515 -729,1020 -1060,1505 -230,372 -490,769 -718,1162 -688,1193 -1167,2357 -1339,4053 -1,1 -1,2 -1,3 -53,120 -150,194 -256,195 -117,-1 -223,-92 -270,-233 -176,-1676 -652,-2834 -1336,-4018 -228,-393 -487,-790 -718,-1162 -331,-485 -678,-990 -1059,-1505 -92,-141 -188,-281 -288,-419 -88,-147 -180,-293 -277,-439 -104,-204 -221,-409 -347,-614 -415,-700 -582,-1490 -583,-2294 0,-2576 2188,-4664 4886,-4664z"/>
     <path class="fil7" d="M27401 9135c-937,0 -1697,725 -1697,1620 0,895 760,1621 1697,1621 938,0 1698,-726 1698,-1621 0,-895 -760,-1620 -1698,-1620z"/>
    </g>
   </g>
  </g>
 </g>
</svg>
