<?xml version="1.0" encoding="UTF-8"?>
<!DOCTYPE svg PUBLIC "-//W3C//DTD SVG 1.1//EN" "http://www.w3.org/Graphics/SVG/1.1/DTD/svg11.dtd">
<!-- Creator: CorelDRAW X7 -->
<svg xmlns="http://www.w3.org/2000/svg" xml:space="preserve" width="11.0778in" height="7.50634in" version="1.1" style="shape-rendering:geometricPrecision; text-rendering:geometricPrecision; image-rendering:optimizeQuality; fill-rule:evenodd; clip-rule:evenodd"
viewBox="0 0 110778 75063"
 xmlns:xlink="http://www.w3.org/1999/xlink">
 <defs>
  <style type="text/css">
   <![CDATA[
    .fil19 {fill:#A6B7DE}
    .fil30 {fill:#BB9B61}
    .fil2 {fill:#CBD5EB}
    .fil22 {fill:#D5B682}
    .fil28 {fill:#DABA76}
    .fil27 {fill:#DBBB82}
    .fil0 {fill:#E0E6F3}
    .fil26 {fill:#EED5AB}
    .fil29 {fill:#F5E1CD}
    .fil9 {fill:#AFBEE1;fill-rule:nonzero}
    .fil23 {fill:#B0BFE1;fill-rule:nonzero}
    .fil13 {fill:#BB9B61;fill-rule:nonzero}
    .fil1 {fill:#D1D9ED;fill-rule:nonzero}
    .fil17 {fill:#D2AE6D;fill-rule:nonzero}
    .fil14 {fill:#D2B184;fill-rule:nonzero}
    .fil18 {fill:#D7B77D;fill-rule:nonzero}
    .fil15 {fill:#DBBB82;fill-rule:nonzero}
    .fil21 {fill:#E3C582;fill-rule:nonzero}
    .fil31 {fill:#E3D1B2;fill-rule:nonzero}
    .fil24 {fill:#E4BD79;fill-rule:nonzero}
    .fil10 {fill:#E7C7B3;fill-rule:nonzero}
    .fil16 {fill:#EED5AB;fill-rule:nonzero}
    .fil25 {fill:#EEE3CE;fill-rule:nonzero}
    .fil20 {fill:#F3E0C2;fill-rule:nonzero}
    .fil8 {fill:#F5EEE0;fill-rule:nonzero}
    .fil11 {fill:#F7E7D7;fill-rule:nonzero}
    .fil3 {fill:#F9EBDF;fill-rule:nonzero}
    .fil5 {fill:#FBF7F0;fill-rule:nonzero}
    .fil4 {fill:#FDDFD1;fill-rule:nonzero}
    .fil12 {fill:#FDF1EA;fill-rule:nonzero}
    .fil6 {fill:white;fill-rule:nonzero}
    .fil7 {fill:white;fill-rule:nonzero}
   ]]>
  </style>
 </defs>
 <g id="Layer_x0020_1">
  <metadata id="CorelCorpID_0Corel-Layer"/>
  <g id="_2598353506496">
   <path class="fil0" d="M27354 10054c-7171,2880 -13640,3555 -19692,9121 -6590,6060 -8845,14965 -7089,25494 2042,12242 10030,23970 21598,28147 9631,3477 21703,2890 34626,-1558 3692,-1271 7405,-2405 11257,-2888 4395,-551 6314,1912 13920,2333 6860,379 13989,-3792 16114,-9586 2214,-6036 -2305,-13665 -8413,-14609 -2064,-319 -3661,582 -6500,824 -3892,331 -3276,-5618 -3548,-8113 -987,-9061 -4915,-17953 -11417,-24474 -12466,-12505 -25094,-11024 -40856,-4691z"/>
   <path class="fil1" d="M55036 57868c0,1960 6960,3549 15547,3549 8588,0 15551,-1589 15551,-3549 0,-1961 -6963,-3550 -15551,-3550 -8587,0 -15547,1589 -15547,3550z"/>
   <path class="fil2" d="M36924 18811c-3178,-321 -6444,-1228 -10435,-1826 -6019,-902 -11899,-921 -16351,3296 -15211,14407 -871,50785 32662,43644 8232,-1753 14416,-6001 17944,-11865 5582,-9278 4993,-25106 -4910,-30778 -5596,-3205 -12668,-1843 -18910,-2471z"/>
   <path class="fil3" d="M13069 41796c21,-181 -55,-369 -159,-518 -112,-149 -244,-278 -386,-389 -146,-108 -296,-202 -456,-289 -156,-87 -316,-160 -483,-222 -167,-66 -334,-122 -508,-174 -170,-49 -347,-87 -528,-115 -181,-28 -365,-49 -567,-45 -100,3 -208,10 -326,35 -66,17 -80,17 -146,38 -56,14 -101,31 -150,49 -191,69 -375,163 -549,292 -174,128 -355,288 -473,580 -52,146 -80,341 -31,522 48,184 149,326 250,427 97,104 212,177 285,223 125,73 237,118 376,153 139,31 299,38 458,0 160,-35 306,-115 418,-212 229,-199 340,-442 389,-671 49,-237 45,-470 -10,-699 -53,-226 -178,-449 -355,-615l17 17c-194,-205 -420,-358 -657,-452 -121,-45 -240,-83 -361,-108 -122,-28 -240,-48 -362,-55 -121,-7 -240,-7 -358,0 -118,10 -236,24 -351,52 -229,48 -448,132 -640,260l-3 4c-14,7 -18,24 -7,35 7,10 17,14 31,10 202,-76 417,-118 633,-128 215,-14 431,3 643,45 212,41 421,107 612,205 188,97 361,229 497,396l0 0 0 0c108,118 181,268 212,428 31,160 24,323 -14,479 -42,157 -121,303 -240,404 -121,101 -281,132 -434,94 -73,-18 -150,-53 -216,-91 -73,-42 -139,-83 -194,-142 -56,-53 -98,-119 -119,-188 -17,-73 -10,-150 14,-219 52,-146 167,-271 292,-372 129,-104 275,-188 424,-250 77,-32 153,-59 233,-80 80,-21 160,-35 244,-39 163,-13 330,-7 497,11 333,31 664,101 984,195 319,97 636,219 921,389 142,83 281,181 393,302 111,119 198,268 208,431 0,14 11,25 25,25 14,0 24,-11 24,-25l3 -3 0 0z"/>
   <path class="fil4" d="M27889 42762c67,-104 202,-135 303,-69 104,66 135,202 69,306 -62,104 -198,135 -302,69 -101,-62 -132,-201 -70,-306z"/>
   <path class="fil5" d="M40919 42342c66,-105 202,-136 303,-73 104,66 135,201 73,306 -66,104 -202,139 -303,73 -104,-66 -135,-202 -73,-306z"/>
   <path class="fil6" d="M50413 39415c66,-105 202,-136 303,-73 104,66 135,201 69,306 -62,104 -198,135 -302,73 -101,-66 -132,-202 -70,-306z"/>
   <path class="fil7" d="M33538 17147c66,-104 202,-135 303,-69 104,66 135,202 69,306 -62,104 -198,135 -302,69 -101,-62 -132,-201 -70,-306z"/>
   <path class="fil6" d="M52301 9367c66,-105 201,-136 302,-70 104,63 136,202 73,306 -66,104 -202,136 -306,70 -101,-66 -132,-202 -69,-306l0 0z"/>
   <path class="fil8" d="M42209 37468c66,-104 202,-136 302,-70 105,63 136,202 73,306 -66,105 -201,136 -306,70 -100,-66 -132,-202 -69,-306l0 0z"/>
   <path class="fil6" d="M66346 50233c-796,-28 -1436,-682 -1439,-1492l-14 0c-3,810 -643,1464 -1439,1492 799,24 1439,684 1443,1498l10 0c0,-814 640,-1474 1439,-1498z"/>
   <path class="fil9" d="M12273 52032c0,1232 4798,2229 10718,2229 5921,0 10718,-997 10718,-2229 0,-1229 -4797,-2225 -10718,-2225 -5920,0 -10718,996 -10718,2225z"/>
   <polygon class="fil10" points="20005,51666 20005,51666 20353,48359 18322,48297 18590,51620 "/>
   <polygon class="fil10" points="30671,51582 30671,51582 31053,47306 29019,47244 29256,51537 "/>
   <polygon class="fil11" points="17804,52521 17804,52521 18350,47372 15187,47275 15600,52455 "/>
   <polygon class="fil11" points="28557,52521 28557,52521 29103,47372 25936,47275 26353,52455 "/>
   <path class="fil12" d="M11157 39568c-538,5757 4242,10909 10677,11510 6434,601 12084,-3581 12622,-9334 536,-5761 -4244,-10913 -10676,-11514 -6435,-598 -12087,3581 -12623,9338l0 0z"/>
   <path class="fil10" d="M26016 31756c0,0 -3133,-1105 -6915,-52l59 904c0,0 3073,-1026 6828,62l28 -914 0 0z"/>
   <path class="fil11" d="M32798 35956c0,0 1377,-3456 442,-3769 -935,-313 -2834,887 -2834,887l2392 2882z"/>
   <path class="fil10" d="M27229 36786c0,0 1324,-3031 720,-3333 -605,-303 -2663,490 -3578,956 0,0 2340,848 2858,2377z"/>
   <path class="fil13" d="M31696 38570c-7,243 188,448 431,455 247,11 452,-184 459,-427l28 -890c7,-244 -188,-449 -431,-456 -247,-10 -452,185 -459,428l-28 890z"/>
   <path class="fil13" d="M28693 39536c-7,244 184,449 431,456 243,10 448,-185 455,-428l28 -890c7,-243 -184,-448 -428,-455 -247,-11 -452,184 -459,427l-27 890z"/>
   <path class="fil10" d="M29207 42676c-49,1526 469,2781 2993,3052 1335,142 1777,-786 1822,-2312 49,-1526 2381,-3393 -1085,-3501 -2465,-76 -3685,1234 -3730,2761z"/>
   <path class="fil11" d="M30521 42867c-52,1668 1161,3059 2708,3108 1551,48 2847,-1266 2900,-2934 52,-1669 -1162,-3063 -2712,-3108 -1547,-49 -2844,1265 -2896,2934z"/>
   <path class="fil14" d="M34748 42644c-59,-236 -299,-382 -535,-323 -236,59 -382,295 -323,532 59,236 295,382 532,327 240,-60 382,-299 326,-536l0 0z"/>
   <path class="fil14" d="M33045 43061c-56,-236 -295,-382 -532,-323 -236,56 -382,296 -323,532 55,236 295,382 532,323 236,-59 382,-295 323,-532z"/>
   <path class="fil15" d="M25199 30146c0,-1501 -1217,-2718 -2719,-2718 -1502,0 -2718,1217 -2718,2718 0,1502 1216,2719 2718,2719 1502,0 2719,-1217 2719,-2719z"/>
   <path class="fil16" d="M24820 29948c0,-1502 -1217,-2718 -2719,-2718 -1502,0 -2718,1216 -2718,2718 0,1502 1216,2719 2718,2719 1502,0 2719,-1217 2719,-2719z"/>
   <path class="fil17" d="M21305 30616l695 10 0 118c-3,122 4,202 21,240 14,39 49,59 101,59 42,0 77,-14 97,-48 21,-32 32,-80 35,-146 0,-108 -21,-185 -62,-230 -42,-45 -167,-132 -372,-264 -174,-108 -296,-191 -358,-250 -63,-59 -115,-139 -157,-244 -45,-107 -62,-236 -62,-392 6,-247 69,-442 191,-581 121,-139 302,-223 542,-254l7 -261 320 4 -7 271c188,24 348,97 487,226 135,125 201,344 198,657l-4 136 -699 -14 4 -171c3,-187 0,-302 -14,-351 -14,-45 -49,-66 -104,-69 -45,0 -84,14 -105,45 -24,31 -38,80 -38,143 -3,156 7,267 28,333 21,70 94,143 219,226 212,136 355,237 428,303 76,62 142,153 194,267 56,115 80,244 77,386 -4,209 -66,372 -184,487 -122,118 -299,188 -536,212l-3 223 -320 -7 3 -223c-215,-31 -375,-104 -479,-226 -105,-118 -157,-278 -153,-487 0,-27 3,-69 10,-128l0 0z"/>
   <path class="fil18" d="M21305 30508l695 14 0 115c-3,125 4,205 21,243 14,38 49,59 101,59 42,0 77,-17 97,-49 21,-31 32,-80 35,-146 0,-111 -21,-187 -62,-229 -42,-45 -167,-132 -372,-264 -174,-108 -296,-195 -358,-251 -63,-59 -115,-142 -157,-246 -45,-105 -62,-233 -62,-390 6,-247 69,-441 191,-580 121,-139 302,-226 542,-254l7 -261 320 4 -7 271c188,21 348,97 487,222 135,129 201,348 198,657l-4 139 -699 -13 4 -171c3,-188 0,-306 -14,-351 -14,-45 -49,-69 -104,-69 -45,0 -84,13 -105,45 -24,31 -38,80 -38,142 -3,153 7,268 28,334 21,70 94,143 219,226 212,136 355,236 428,299 76,66 142,156 194,271 56,115 80,243 77,386 -4,209 -66,372 -184,487 -122,118 -299,187 -536,212l-3 222 -320 -7 3 -222c-215,-32 -375,-108 -479,-226 -105,-118 -157,-282 -153,-487 0,-28 3,-73 10,-132l0 0z"/>
   <polygon class="fil19" points="25108,19940 25199,20131 25133,20089 "/>
   <path class="fil15" d="M19449 17972c0,-1502 1216,-2719 2718,-2719 1502,0 2719,1217 2719,2719 0,1502 -1217,2719 -2719,2719 -1502,0 -2718,-1217 -2718,-2719z"/>
   <path class="fil20" d="M19831 17774c0,-1502 1217,-2719 2719,-2719 1501,0 2718,1217 2718,2719 0,1502 -1217,2718 -2718,2718 -1502,0 -2719,-1216 -2719,-2718z"/>
   <path class="fil21" d="M21729 18410l699 10 -3 115c0,125 6,205 20,244 14,38 49,59 105,59 41,0 73,-18 94,-49 24,-31 34,-80 34,-146 4,-111 -17,-188 -59,-229 -41,-46 -167,-133 -372,-265 -177,-107 -295,-194 -358,-250 -66,-59 -118,-143 -160,-247 -41,-104 -62,-233 -59,-389 4,-247 66,-442 188,-581 125,-139 306,-226 546,-254l3 -260 320 3 -3 271c184,21 347,98 483,223 139,129 205,348 198,657l-4 139 -695 -14 4 -170c3,-188 -4,-306 -18,-351 -14,-46 -48,-70 -101,-70 -48,0 -83,14 -107,45 -25,32 -35,80 -39,143 0,153 7,267 28,334 21,69 94,142 223,226 208,135 351,236 427,298 77,67 139,157 195,272 52,114 76,243 76,386 -3,208 -66,371 -187,486 -118,118 -296,188 -532,212l-4 223 -323 -7 4 -223c-213,-31 -372,-107 -480,-226 -105,-118 -153,-281 -150,-486 0,-28 4,-73 7,-129l0 0z"/>
   <path class="fil18" d="M21729 18302l699 14 -3 115c0,122 6,205 20,243 14,39 49,56 105,59 41,0 73,-17 94,-48 24,-32 34,-80 34,-146 4,-112 -17,-188 -59,-233 -41,-45 -167,-132 -372,-261 -177,-111 -295,-195 -358,-254 -66,-55 -118,-139 -160,-243 -41,-104 -62,-237 -59,-389 4,-251 66,-442 188,-581 125,-143 306,-226 546,-254l3 -264 320 7 -3 271c184,21 347,97 483,223 139,128 205,347 198,657l-4 135 -695 -10 4 -171c3,-187 -4,-306 -18,-351 -14,-45 -48,-69 -101,-69 -48,0 -83,14 -107,45 -25,31 -35,76 -39,139 0,156 7,268 28,337 21,66 94,143 223,223 208,139 351,240 427,302 77,66 139,153 195,268 52,115 76,247 76,389 -3,209 -66,372 -187,487 -118,118 -296,188 -532,209l-4 222 -323 -3 4 -223c-213,-31 -372,-108 -480,-226 -105,-118 -153,-282 -150,-487 0,-27 4,-73 7,-132l0 0z"/>
   <path class="fil12" d="M26082 32688c0,0 -3296,-1224 -7092,-35l125 1623 6967 -1588 0 0z"/>
   <path class="fil9" d="M43464 53087l0 -695c0,0 -4,0 -7,-3 -115,-650 -1634,-1165 -3490,-1165 -1895,0 -3435,535 -3498,1203l0 0c0,0 0,3 0,10 0,11 -3,21 -3,32 0,7 3,17 3,24 0,163 -3,584 -3,744 0,80 153,890 3365,1043l240 7c3747,-101 3393,-1200 3393,-1200l0 0z"/>
   <polygon class="fil22" points="40199,52257 40248,52003 40255,52208 "/>
   <path class="fil4" d="M38899 52538c-66,-104 -201,-139 -302,-73 -104,66 -136,202 -70,306 63,104 199,136 303,73 101,-66 132,-205 69,-306z"/>
   <path class="fil15" d="M39751 50925c1398,0 3713,556 3713,556l0 692c0,0 354,1102 -3393,1203l-240 -7c-3212,-153 -3365,-963 -3365,-1043 0,-202 3,-810 3,-810 0,0 2072,-591 3470,-591l-188 0 0 0z"/>
   <path class="fil16" d="M43464 51558c0,685 -1568,1241 -3497,1241 -1933,0 -3501,-556 -3501,-1241 0,-689 1568,-1245 3501,-1245 1929,0 3497,556 3497,1245z"/>
   <path class="fil17" d="M41107 51631l-595 -261 87 -42c94,-41 146,-73 164,-94 14,-17 0,-34 -46,-55 -34,-14 -73,-21 -114,-14 -42,3 -87,14 -136,38 -80,38 -121,70 -118,101 0,31 38,108 115,229 66,108 104,188 114,237 11,45 -3,101 -48,160 -45,59 -132,121 -261,188 -212,104 -431,159 -660,170 -230,7 -459,-35 -692,-125l-237 111 -260 -139 243 -115c-132,-83 -195,-177 -195,-281 4,-105 139,-212 400,-324l111 -48 546 260 -139 66c-160,70 -254,119 -278,143 -28,24 -21,49 24,69 38,21 80,28 129,25 45,-4 94,-18 146,-42 135,-62 219,-111 257,-146 38,-31 35,-90 -3,-170 -63,-129 -98,-216 -108,-265 -11,-48 7,-104 52,-159 45,-60 125,-112 233,-157 156,-66 320,-101 497,-101 177,4 369,39 577,105l157 -70 264 108 -160 73c160,83 247,163 254,243 10,80 -63,160 -216,237 -21,10 -55,24 -104,45l0 0z"/>
   <path class="fil15" d="M41107 51526l-595 -264 87 -38c94,-45 146,-73 164,-94 14,-17 0,-38 -46,-55 -34,-14 -73,-21 -114,-18 -42,4 -87,18 -136,42 -80,35 -121,69 -118,101 0,31 38,107 115,229 66,108 104,188 114,233 11,49 -3,101 -48,163 -45,60 -132,122 -261,185 -212,107 -431,163 -660,170 -230,11 -459,-31 -692,-122l-237 112 -260 -143 243 -111c-132,-84 -195,-181 -195,-285 4,-101 139,-209 400,-320l111 -49 546 261 -139 66c-160,70 -254,118 -278,143 -28,24 -21,45 24,69 38,18 80,28 129,24 45,-3 94,-17 146,-41 135,-63 219,-111 257,-146 38,-35 35,-91 -3,-171 -63,-128 -98,-215 -108,-264 -11,-52 7,-104 52,-163 45,-56 125,-108 233,-153 156,-70 320,-101 497,-101 177,0 369,35 577,104l157 -69 264 104 -160 73c160,83 247,167 254,247 10,80 -63,156 -216,233 -21,10 -55,28 -104,48l0 0z"/>
   <path class="fil23" d="M58343 64904c0,0 -3,-4 -7,-4 -3,-660 -1415,-1422 -3247,-1734 -1735,-296 -3250,-84 -3591,465 -542,-121 -1186,-191 -1874,-191 -1895,0 -3435,532 -3497,1200 0,0 0,0 0,0l0 10c0,10 0,21 0,31 0,11 0,18 0,28 0,164 0,581 0,741 0,80 149,890 3362,1043l243 10c2124,-59 2930,-438 3229,-754 393,135 880,271 1485,403l233 49c3713,528 3546,-616 3546,-616l118 -681z"/>
   <path class="fil15" d="M48988 63277c1397,0 3713,556 3713,556l0 695c0,0 358,1099 -3390,1203l-240 -10c-3215,-150 -3365,-960 -3365,-1040 0,-205 0,-810 0,-810 0,0 2072,-594 3470,-594l-188 0 0 0z"/>
   <path class="fil20" d="M52701 63910c0,684 -1565,1241 -3498,1241 -1932,0 -3497,-557 -3497,-1241 0,-685 1565,-1242 3497,-1242 1933,0 3498,557 3498,1242z"/>
   <path class="fil17" d="M50344 63986l-591 -264 87 -38c90,-46 142,-77 160,-94 13,-18 0,-39 -46,-56 -34,-14 -73,-21 -111,-17 -42,3 -87,17 -135,38 -84,38 -126,73 -122,104 3,32 38,105 115,230 66,107 104,184 118,233 10,48 -7,100 -52,160 -46,62 -132,125 -261,187 -212,105 -431,164 -661,171 -229,7 -459,-35 -688,-126l-240 115 -261 -142 244 -112c-132,-83 -195,-180 -191,-285 0,-100 135,-208 396,-319l111 -49 549 261 -142 62c-157,73 -250,122 -278,146 -28,24 -21,45 24,70 38,17 80,28 129,24 45,-3 94,-17 149,-42 132,-62 216,-111 254,-146 38,-34 35,-90 -3,-170 -63,-129 -98,-216 -108,-268 -11,-48 7,-101 55,-160 46,-55 122,-107 230,-156 156,-66 320,-97 497,-97 177,0 368,34 577,104l157 -73 264 108 -157 73c160,83 244,166 251,246 10,80 -63,157 -216,233 -21,11 -56,28 -104,49l0 0z"/>
   <path class="fil15" d="M50344 63878l-591 -260 87 -42c90,-42 142,-73 160,-91 13,-20 0,-38 -46,-55 -34,-18 -73,-21 -111,-18 -42,4 -87,18 -135,39 -84,38 -126,73 -122,104 3,28 38,104 115,229 66,108 104,185 118,233 10,49 -7,101 -52,160 -46,63 -132,125 -261,188 -212,104 -431,163 -661,170 -229,7 -459,-34 -688,-125l-240 111 -261 -139 244 -111c-132,-87 -195,-181 -191,-285 0,-101 135,-209 396,-323l111 -49 549 264 -142 63c-157,73 -250,122 -278,146 -28,21 -21,45 24,66 38,21 80,28 129,24 45,0 94,-14 149,-41 132,-60 216,-108 254,-143 38,-35 35,-90 -3,-170 -63,-129 -98,-216 -108,-268 -11,-49 7,-101 55,-160 46,-56 122,-108 230,-156 156,-66 320,-98 497,-98 177,0 368,35 577,105l157 -73 264 107 -157 73c160,84 244,167 251,244 10,83 -63,160 -216,236 -21,11 -56,24 -104,45l0 0z"/>
   <path class="fil24" d="M54356 62960c1376,233 3566,1172 3566,1172l-118 685c0,0 167,1144 -3546,615l-233 -48c-3142,-692 -3156,-1516 -3142,-1593 34,-201 139,-799 139,-799 0,0 2141,-237 3518,0l-184 -31 0 -1z"/>
   <path class="fil16" d="M57908 64205c-114,678 -1752,963 -3657,636 -1905,-323 -3355,-1133 -3240,-1811 115,-674 1752,-959 3657,-636 1906,323 3355,1137 3240,1811z"/>
   <path class="fil17" d="M55590 63885l-543 -358 94 -24c98,-28 157,-49 174,-66 17,-14 7,-35 -31,-63 -32,-17 -70,-31 -112,-35 -41,-3 -86,4 -139,18 -86,21 -132,48 -135,80 -4,31 21,111 73,247 49,114 73,198 76,246 4,53 -24,101 -76,153 -56,52 -153,98 -289,139 -226,70 -452,87 -678,59 -229,-31 -448,-111 -660,-239l-254 69 -236 -181 260 -69c-114,-108 -163,-212 -142,-313 21,-101 170,-184 445,-250l122 -32 493 351 -149 39c-167,45 -268,76 -299,97 -32,17 -28,42 14,73 34,24 76,38 121,45 46,4 98,-3 153,-17 143,-38 233,-73 275,-101 45,-28 52,-83 28,-167 -42,-139 -63,-229 -63,-281 -3,-49 24,-101 80,-150 56,-49 139,-87 254,-115 163,-38 334,-45 507,-14 174,32 359,98 553,202l167 -45 240 149 -167 46c143,111 212,205 209,285 -7,80 -91,146 -254,194 -24,7 -59,18 -111,28l0 0z"/>
   <path class="fil15" d="M55590 63781l-543 -358 94 -24c98,-28 157,-49 174,-67 17,-13 7,-34 -31,-62 -32,-21 -70,-31 -112,-35 -41,-3 -86,4 -139,14 -86,24 -132,52 -135,83 -4,28 21,112 73,244 49,118 73,201 76,250 4,49 -24,101 -76,150 -56,52 -153,100 -289,142 -226,70 -452,87 -678,56 -229,-28 -448,-112 -660,-237l-254 70 -236 -181 260 -69c-114,-108 -163,-213 -142,-313 21,-101 170,-185 445,-251l122 -31 493 351 -149 38c-167,46 -268,77 -299,94 -32,21 -28,46 14,73 34,28 76,42 121,46 46,6 98,0 153,-14 143,-39 233,-73 275,-101 45,-28 52,-84 28,-167 -42,-139 -63,-233 -63,-282 -3,-52 24,-100 80,-149 56,-49 139,-87 254,-115 163,-42 334,-45 507,-14 174,32 359,98 553,198l167 -41 240 149 -167 45c143,108 212,205 209,282 -7,83 -91,146 -254,198 -24,7 -59,14 -111,28l0 0z"/>
   <path class="fil6" d="M4065 45219c-63,104 -198,136 -302,69 -101,-62 -132,-201 -70,-305 66,-105 202,-136 303,-70 104,63 135,202 69,306z"/>
   <path class="fil7" d="M30530 11697c-75,126 -240,168 -366,88 -126,-80 -164,-244 -84,-370 76,-126 240,-164 366,-88 126,80 164,248 84,370z"/>
   <path class="fil8" d="M12198 21311c-62,104 -198,136 -302,70 -105,-67 -136,-202 -70,-306 63,-105 198,-136 303,-70 104,63 135,202 69,306z"/>
   <path class="fil6" d="M11158 34061c-66,104 -201,136 -302,70 -105,-67 -136,-202 -73,-306 66,-105 201,-136 302,-70 104,63 136,202 73,306z"/>
   <path class="fil6" d="M43507 16728c63,104 202,135 303,69 104,-62 135,-201 69,-306 -62,-104 -198,-135 -302,-69 -101,66 -132,201 -70,306z"/>
   <path class="fil4" d="M59038 20948c66,104 202,139 306,73 101,-66 132,-202 70,-306 -66,-104 -202,-136 -303,-70 -104,63 -135,202 -73,303l0 0z"/>
   <path class="fil6" d="M44097 25373c66,105 202,136 303,70 104,-66 135,-202 73,-306 -66,-104 -202,-136 -306,-70 -101,63 -132,202 -70,306l0 0z"/>
   <path class="fil6" d="M65772 26239c66,104 202,136 303,73 104,-66 135,-202 73,-306 -67,-104 -202,-136 -303,-73 -104,66 -135,202 -73,306z"/>
   <path class="fil6" d="M36539 27548c580,-21 1049,-501 1053,-1092l10 0c4,591 470,1071 1054,1092 -588,17 -1057,501 -1057,1095l-7 0c0,-594 -469,-1078 -1053,-1095z"/>
   <path class="fil25" d="M94093 24836c-1565,-52 -2820,-1339 -2830,-2931l-24 0c-11,1592 -1266,2879 -2834,2931 1572,52 2834,1349 2834,2951l20 0c0,-1602 1262,-2899 2834,-2951z"/>
   <circle class="fil26" cx="69148" cy="25832" r="16440"/>
   <path class="fil27" d="M72249 30484l0 3104 -12408 0 0 -3104 12408 0zm-12408 -9307l0 -3101c6202,0 12408,0 18613,0l-3101 3101c-5173,0 -10342,0 -15512,0zm18613 3101c0,3105 0,6206 0,9310l-3101 0 0 -6205 0 0 -15512 0 0 -3105c6202,0 12408,0 18613,0l0 0z"/>
   <path class="fil6" d="M82372 42310c-63,105 -198,136 -302,70 -101,-63 -132,-202 -70,-306 66,-104 202,-135 303,-69 104,62 135,201 69,305z"/>
   <path class="fil8" d="M29005 25784c-62,104 -198,135 -302,73 -101,-67 -132,-202 -70,-306 63,-105 199,-136 303,-73 104,66 135,201 69,306z"/>
   <path class="fil28" d="M52708 25832c0,-8851 6991,-16068 15751,-16429 -229,-7 -458,-14 -688,-14 -9080,0 -16443,7363 -16443,16443 0,9077 7363,16440 16443,16440 230,0 459,-3 688,-14 -8760,-361 -15751,-7578 -15751,-16426l0 0z"/>
   <path class="fil27" d="M68435 42258l24 0c-7,0 -13,0 -24,0zm-15731 -16426c0,-8851 6995,-16068 15755,-16429l-24 0 -643 -14 -21 0c-9080,0 -16443,7363 -16443,16443 0,9081 7363,16440 16443,16440 223,0 445,-3 668,-14 -8751,-372 -15735,-7585 -15735,-16426l0 0z"/>
   <path class="fil29" d="M19880 31516c-202,-285 -351,-612 -431,-963 -28,-128 -49,-261 -59,-396 -7,73 -7,142 -7,212 0,66 0,132 7,198 24,358 118,692 267,998l223 -49 0 0z"/>
   <path class="fil29" d="M25032 31502c108,-292 167,-605 167,-935 0,-42 0,-83 -4,-125 -3,0 -7,-3 -14,-3 -38,371 -153,719 -326,1029l177 34 0 0z"/>
   <path class="fil30" d="M20676 32264c-313,-192 -584,-449 -796,-748l-223 49c143,292 337,553 570,775 153,-28 303,-52 449,-76l0 0z"/>
   <path class="fil30" d="M24855 31468c-167,302 -393,570 -658,785 129,21 251,38 369,59 198,-240 358,-511 466,-810l-177 -35 0 1z"/>
   <path class="fil31" d="M110778 46009c-1015,32 -1829,866 -1836,1895l-17 0c-7,-1029 -817,-1863 -1832,-1895 1019,-34 1836,-872 1836,-1912l13 0c0,1040 817,1878 1836,1912z"/>
   <path class="fil15" d="M19449 2917c0,-1502 1216,-2719 2718,-2719 1502,0 2719,1217 2719,2719 0,1502 -1217,2718 -2719,2718 -1502,0 -2718,-1216 -2718,-2718z"/>
   <path class="fil16" d="M19831 2719c0,-1502 1217,-2719 2719,-2719 1501,0 2718,1217 2718,2719 0,1501 -1217,2718 -2718,2718 -1502,0 -2719,-1217 -2719,-2718z"/>
   <path class="fil21" d="M21729 3351l699 14 -3 115c0,125 6,205 20,243 14,39 49,56 105,59 41,0 73,-17 94,-48 24,-32 34,-80 34,-146 4,-112 -17,-188 -59,-233 -41,-42 -167,-129 -372,-261 -177,-111 -295,-195 -358,-250 -66,-59 -118,-143 -160,-247 -41,-104 -62,-233 -59,-389 4,-247 66,-442 188,-581 125,-139 306,-226 546,-254l3 -260 320 3 -3 271c184,21 347,97 483,223 139,128 205,347 198,657l-4 135 -695 -10 4 -171c3,-187 -4,-305 -18,-351 -14,-45 -48,-69 -101,-69 -48,0 -83,14 -107,45 -25,31 -35,80 -39,139 0,157 7,271 28,337 21,70 94,143 223,226 208,136 351,237 427,299 77,66 139,153 195,271 52,115 76,244 76,386 -3,209 -66,372 -187,487 -118,118 -296,188 -532,212l-4 223 -323 -7 4 -223c-213,-31 -372,-108 -480,-226 -105,-118 -153,-281 -150,-487 0,-27 4,-73 7,-132l0 0z"/>
   <path class="fil18" d="M21729 3247l699 14 -3 115c0,121 6,205 20,243 14,38 49,56 105,59 41,0 73,-17 94,-49 24,-31 34,-83 34,-146 4,-111 -17,-187 -59,-232 -41,-46 -167,-133 -372,-261 -177,-111 -295,-195 -358,-254 -66,-56 -118,-139 -160,-243 -41,-105 -62,-237 -59,-390 4,-250 66,-441 188,-584 125,-139 306,-222 546,-250l3 -264 320 7 -3 271c184,21 347,97 483,222 139,129 205,348 198,657l-4 136 -695 -10 4 -171c3,-188 -4,-306 -18,-351 -14,-45 -48,-69 -101,-69 -48,0 -83,13 -107,45 -25,31 -35,76 -39,139 0,156 7,268 28,337 21,66 94,143 223,223 208,139 351,239 427,302 77,66 139,153 195,268 52,114 76,246 76,389 -3,209 -66,369 -187,487 -118,114 -296,187 -532,208l-4 223 -323 -4 4 -222c-213,-31 -372,-108 -480,-226 -105,-118 -153,-282 -150,-487 0,-28 4,-73 7,-132l0 0z"/>
   <path class="fil7" d="M33620 69036c66,104 202,136 302,70 105,-67 136,-202 73,-306 -66,-105 -201,-136 -306,-70 -100,63 -132,202 -69,306l0 0z"/>
   <path class="fil6" d="M48391 71581c-66,104 -201,135 -302,69 -105,-66 -136,-201 -73,-306 66,-104 201,-135 302,-69 105,63 136,202 73,306z"/>
   <path class="fil0" d="M84950 39784c-424,3711 2357,3023 4566,3005 4407,-36 5047,743 8921,2271 3804,1501 7618,22 8124,-4349 607,-5248 -4282,-9687 -9903,-9985 -4979,-263 -11132,4001 -11708,9058z"/>
  </g>
 </g>
</svg>
