<?xml version="1.0" encoding="UTF-8"?>
<!DOCTYPE svg PUBLIC "-//W3C//DTD SVG 1.1//EN" "http://www.w3.org/Graphics/SVG/1.1/DTD/svg11.dtd">
<!-- Creator: CorelDRAW X7 -->
<svg xmlns="http://www.w3.org/2000/svg" xml:space="preserve" width="10.8422in" height="8.34272in" version="1.1" style="shape-rendering:geometricPrecision; text-rendering:geometricPrecision; image-rendering:optimizeQuality; fill-rule:evenodd; clip-rule:evenodd"
viewBox="0 0 108422 83427"
 xmlns:xlink="http://www.w3.org/1999/xlink">
 <defs>
  <style type="text/css">
   <![CDATA[
    .fil26 {fill:none}
    .fil29 {fill:black}
    .fil22 {fill:#666666}
    .fil28 {fill:#6C87C3}
    .fil20 {fill:gray}
    .fil19 {fill:#8480BC}
    .fil27 {fill:#A6B7DE}
    .fil18 {fill:#B3B3B3}
    .fil7 {fill:#B7C5E4}
    .fil14 {fill:#BBB8DA}
    .fil1 {fill:#CBD5EB}
    .fil25 {fill:#D2AE6D}
    .fil30 {fill:#D4DCEF}
    .fil11 {fill:#DCC08D}
    .fil2 {fill:#E0E6F3}
    .fil5 {fill:#E9EDF7}
    .fil0 {fill:#EDF1F8}
    .fil4 {fill:#F9FBFB}
    .fil10 {fill:#FCF1DC}
    .fil15 {fill:#FDFCF9}
    .fil12 {fill:white}
    .fil21 {fill:black;fill-rule:nonzero}
    .fil16 {fill:gray;fill-rule:nonzero}
    .fil23 {fill:#999999;fill-rule:nonzero}
    .fil17 {fill:#B3B3B3;fill-rule:nonzero}
    .fil13 {fill:#BBB8DA;fill-rule:nonzero}
    .fil8 {fill:#CBD5EB;fill-rule:nonzero}
    .fil3 {fill:#E0E6F3;fill-rule:nonzero}
    .fil9 {fill:#F9FBFB;fill-rule:nonzero}
    .fil24 {fill:white;fill-rule:nonzero}
    .fil6 {fill:white;fill-rule:nonzero}
   ]]>
  </style>
 </defs>
 <g id="Layer_x0020_1">
  <metadata id="CorelCorpID_0Corel-Layer"/>
  <g id="_2596362990704">
   <path class="fil0" d="M62766 59818c-2922,-800 8529,5950 6619,7544 -415,347 -870,659 -1480,809 -1674,414 -4207,206 -5758,850 -1333,553 -1977,1871 -1752,3058 626,3306 8179,7211 12832,8736 1983,650 4140,1203 6236,1478 8268,1084 13456,-4170 9450,-8331 -3675,-3818 -7592,-6128 -6900,-10906 270,-1867 1530,-3061 3416,-6004 2660,-4150 1573,-9856 -7123,-12858 -2236,-773 -5046,-1214 -8499,-1220 -6217,-12 -8652,4034 -8621,2356 23,-1261 2802,14823 1580,14488z"/>
   <path class="fil1" d="M7364 25283c1469,6307 1487,9077 -1392,15029 -1745,3610 -3897,6635 -4379,10435 -1230,9687 2870,16476 9309,20868 6882,4694 14153,6678 21242,6404 37852,-1465 49880,-51371 19967,-71473l0 0c-2536,-1704 -5372,-3193 -8519,-4421 -16945,-6611 -41040,2505 -36228,23158z"/>
   <path class="fil2" d="M22624 65468c11193,9749 30670,3022 40419,-8171 9749,-11193 8578,-28170 -2615,-37919 -6943,-6047 -10875,1018 -15435,-3079 -1279,-1148 -4862,-1824 -8510,-1700 -19849,675 -30940,35992 -13859,50869z"/>
   <path class="fil0" d="M97262 72311c1795,-233 2934,-1198 3437,-3396 110,-478 251,-936 525,-1291 752,-976 2154,-1648 2769,-2805 528,-994 450,-2488 -44,-3558 -1378,-2979 -6600,-4151 -9538,-4022 -2664,116 -5602,929 -7077,3338 -1305,2130 -1090,4957 618,7387 2045,2910 5911,4788 9310,4347z"/>
   <path class="fil3" d="M108422 69652c-1397,-47 -2517,-1194 -2526,-2614l-23 0c-9,1420 -1128,2567 -2526,2614 1403,47 2528,1203 2528,2631l19 0c1,-1428 1126,-2584 2528,-2631z"/>
   <path class="fil4" d="M84826 31477c0,-2663 1260,-5038 3216,-6559 -50,-5556 -4589,-10059 -10157,-10059 -5600,0 -10157,4553 -10157,10152l-458 0 -1391 0c-3566,0 -6465,2904 -6465,6466 0,3561 2899,6465 6465,6465l27261 0c3566,0 6465,-2904 6465,-6465 0,-3562 -2899,-6466 -6465,-6466 -3566,0 -6465,2904 -6465,6466l-1849 0 0 0z"/>
   <path class="fil5" d="M65879 23168c-4585,0 -8314,3728 -8314,8309 0,4580 3729,8308 8314,8308l27261 0c1974,0 3789,-691 5217,-1843 1888,-1525 3097,-3857 3097,-6465 0,-4581 -3729,-8309 -8314,-8309 -1176,0 -2295,245 -3310,687 -583,-6078 -5717,-10844 -11945,-10844 -5992,0 -10975,4411 -11865,10157l-141 0 0 0zm1849 1843c0,-5599 4557,-10152 10157,-10152 5568,0 10107,4503 10157,10059 -1956,1521 -3216,3896 -3216,6559l1849 0c0,-3562 2899,-6466 6465,-6466 3566,0 6465,2904 6465,6466 0,3561 -2899,6465 -6465,6465l-27261 0c-3566,0 -6465,-2904 -6465,-6465 0,-3562 2899,-6466 6465,-6466l1391 0 458 0 0 0z"/>
   <path class="fil6" d="M30575 45433c123,-199 385,-260 583,-136 198,125 258,389 135,589 -124,200 -385,262 -583,137 -199,-125 -259,-389 -135,-590z"/>
   <path class="fil6" d="M7738 51345c-67,109 -209,142 -317,74 -107,-68 -140,-211 -73,-320 67,-109 209,-142 317,-74 108,68 141,211 73,320z"/>
   <path class="fil6" d="M10064 20519c-68,109 -209,142 -317,74 -108,-68 -141,-211 -73,-320 67,-109 208,-142 316,-74 108,68 141,211 74,320z"/>
   <path class="fil6" d="M28215 4974c-98,160 -306,208 -463,109 -158,-99 -205,-309 -107,-468 98,-159 305,-207 463,-108 157,99 205,308 107,467z"/>
   <path class="fil6" d="M17437 40348c-80,130 -248,169 -376,88 -129,-80 -167,-250 -88,-380 80,-129 249,-169 377,-88 128,81 167,251 87,380z"/>
   <path class="fil7" d="M36287 13562l0 35948c-281,-114 -567,-218 -857,-313 -616,-255 -1255,-464 -1914,-624l0 -32936 0 -1228 0 -1658c0,-1770 639,-3381 1668,-4548 1031,-1170 2456,-1897 4022,-1897l12544 0c176,116 351,233 524,350l-10297 0c-1566,0 -2991,727 -4022,1897 -1029,1168 -1668,2778 -1668,4548l0 461 0 0z"/>
   <path class="fil8" d="M8189 6174c-977,32 -1760,834 -1767,1827l-15 0c-7,-993 -789,-1795 -1766,-1827 981,-33 1767,-842 1767,-1840l13 0c1,998 787,1807 1768,1840z"/>
   <path class="fil6" d="M24876 18035c-632,22 -1139,541 -1143,1183l-10 0c-4,-642 -511,-1161 -1144,-1183 635,-21 1144,-544 1145,-1190l8 0c0,646 510,1169 1144,1190z"/>
   <path class="fil9" d="M5616 65320c-9397,4143 -6234,18107 3809,18107l20991 0 9990 0c6419,0 11624,-5206 11624,-11625 0,-5214 -3482,-9800 -8502,-11197 -203,-7087 -6016,-12732 -13109,-12732 -5764,0 -10855,3771 -12538,9278 -5773,-2440 -12336,1868 -12265,8169z"/>
   <path class="fil5" d="M5616 65320c-9397,4143 -6234,18107 3809,18107l30981 0c6419,0 11624,-5206 11624,-11625 0,-5214 -3482,-9800 -8502,-11197 -203,-7087 -6016,-12732 -13109,-12732 -5764,0 -10855,3771 -12538,9278 -5773,-2440 -12336,1868 -12265,8169zm-3442 6209c575,-1857 1928,-3529 4183,-4523l1109 -489 -14 -1211c-11,-982 181,-1901 529,-2726 533,-1261 1447,-2321 2579,-3075l-3 -4c1134,-753 2470,-1191 3845,-1206 915,-10 1853,163 2766,548l1873 792 597 -1951c722,-2364 2180,-4358 4077,-5762 1890,-1397 4222,-2206 6704,-2206 3053,0 5828,1212 7857,3183 2034,1976 3328,4713 3415,7756l39 1357 1308 365c2113,587 3902,1845 5161,3504 1257,1654 1987,3719 1987,5921 0,2701 -1095,5147 -2864,6917 -1770,1769 -4215,2865 -6916,2865l-30981 0c-2435,0 -4356,-1004 -5645,-2496 -878,-1015 -1477,-2263 -1758,-3583 -281,-1318 -242,-2697 152,-3976z"/>
   <g>
    <polygon class="fil10" points="39223,18641 39223,70131 68139,70131 68139,18641 "/>
    <path class="fil11" d="M55975 19932l10762 0c48,0 87,39 87,86l0 4031c0,48 -39,87 -87,87l-10762 0c-47,0 -86,-39 -86,-87l0 -4031c0,-47 39,-86 86,-86l0 0z"/>
    <path class="fil11" d="M40679 25530l25746 0c200,0 362,162 362,362l0 34404c0,200 -162,362 -362,362l-25746 0c-200,0 -362,-162 -362,-362l0 -34404c0,-200 162,-362 362,-362l0 0z"/>
    <path class="fil12" d="M70054 76982l0 -63881c0,-2913 -2102,-5297 -4669,-5297l-23408 0c-2567,0 -4669,2384 -4669,5297l0 63881c0,2913 2102,5297 4669,5297l23408 0c2567,0 4669,-2384 4669,-5297zm-1833 -58423l-29080 0 0 51654 29080 0 0 -51654z"/>
    <path class="fil13" d="M70136 76982l0 -63881c0,-1477 -534,-2821 -1393,-3795 -861,-978 -2051,-1585 -3359,-1585l-23407 0c-1308,0 -2497,607 -3358,1585 -859,975 -1393,2318 -1393,3795l0 63881c0,1477 534,2821 1393,3795 861,978 2050,1585 3358,1585l23407 0c1308,0 2498,-607 3359,-1585 859,-974 1393,-2318 1393,-3795zm-165 -63881l0 63881c0,1436 -519,2742 -1351,3687 -831,943 -1977,1528 -3236,1528l-23407 0c-1259,0 -2405,-585 -3235,-1528 -833,-945 -1351,-2251 -1351,-3687l0 -63881c0,-1436 518,-2742 1351,-3687 830,-942 1976,-1528 3235,-1528l23407 0c1259,0 2405,586 3236,1528 832,945 1351,2251 1351,3687zm-1750 5376l-29163 0 0 51819 29245 0 0 -51819 -82 0zm-28998 165l28915 0 0 51489 -28915 0 0 -51489z"/>
    <path class="fil12" d="M41977 82279c-2567,0 -4669,-2384 -4669,-5297l0 -63881c0,-2913 2102,-5297 4669,-5297l23408 0c2567,0 4669,2384 4669,5297l0 63881c0,2913 -2102,5297 -4669,5297l-23408 0zm28389 -5297l0 -63881c0,-3109 -2242,-5652 -4981,-5652l-23408 0c-2740,0 -4982,2543 -4982,5652l0 63881c0,3109 2242,5652 4982,5652l23408 0c2739,0 4981,-2543 4981,-5652z"/>
    <path class="fil12" d="M41977 82634c-2740,0 -4982,-2543 -4982,-5652l0 -63881c0,-3109 2242,-5652 4982,-5652l23408 0c2739,0 4981,2543 4981,5652l0 63881c0,3109 -2242,5652 -4981,5652l-23408 0zm29015 -5652l0 -63881c0,-3499 -2523,-6362 -5607,-6362l-23408 0c-3084,0 -5608,2863 -5608,6362l0 63881c0,3500 2524,6363 5608,6363l23408 0c3084,0 5607,-2863 5607,-6363z"/>
    <path class="fil12" d="M53681 73072c1773,0 3211,1438 3211,3212 0,1773 -1438,3211 -3211,3211 -1773,0 -3211,-1438 -3211,-3211 0,-1774 1438,-3212 3211,-3212z"/>
    <path class="fil13" d="M53681 72990c909,0 1733,369 2329,965 595,596 965,1420 965,2329 0,909 -370,1733 -965,2329 -597,595 -1421,964 -2329,964 -909,0 -1733,-369 -2328,-964 -596,-597 -966,-1421 -966,-2329 0,-909 370,-1733 965,-2329 596,-596 1420,-965 2329,-965l0 0zm2212 1081c-565,-566 -1348,-916 -2212,-916 -864,0 -1647,350 -2213,915 -565,567 -916,1350 -916,2214 0,863 351,1646 916,2212 566,566 1349,916 2213,916 864,0 1647,-350 2212,-915 566,-566 917,-1349 917,-2213 0,-865 -351,-1647 -917,-2213z"/>
    <path class="fil12" d="M54259 74735c534,0 970,437 970,971l0 1155c0,535 -436,971 -970,971l-1155 0c-535,0 -971,-436 -971,-971l0 -1155c0,-534 436,-971 971,-971l1155 0zm0 366l-1155 0c-333,0 -606,272 -606,605l0 1155c0,333 273,606 606,606l1155 0c333,0 605,-273 605,-606l0 -1155c0,-333 -272,-605 -605,-605z"/>
    <path class="fil13" d="M54259 74653c289,0 553,119 743,309 190,190 310,455 310,744l0 1155c0,289 -120,554 -310,743 -190,191 -454,310 -743,310l-1155 0c-290,0 -554,-119 -744,-309 -190,-190 -309,-455 -309,-744l0 -1155c0,-289 119,-554 309,-743 190,-191 454,-310 744,-310l1155 0 0 0zm627 425c-160,-161 -382,-260 -627,-260l-1155 0c-245,0 -468,99 -628,260 -161,161 -261,383 -261,628l0 1155c0,245 100,467 260,628 161,161 384,260 629,260l1155 0c245,0 467,-99 627,-260 161,-161 261,-383 261,-628l0 -1155c0,-245 -100,-467 -261,-628l0 0zm-627 105l-1155 0c-145,0 -276,59 -370,153 -95,95 -153,226 -153,370l0 1155c0,144 58,276 152,370 96,94 227,153 371,153l1155 0c143,0 275,-59 369,-153 95,-94 154,-226 154,-370l0 -1155c0,-144 -59,-275 -154,-370 -94,-94 -225,-153 -369,-153zm-1155 -165l1155 0c188,0 361,78 485,203 125,124 202,296 202,485l0 1155c0,189 -78,361 -202,485 -124,125 -296,203 -485,203l-1155 0c-190,0 -362,-78 -486,-202 -124,-125 -202,-297 -202,-486l0 -1155c0,-189 78,-361 202,-486 124,-124 297,-202 486,-202l0 0z"/>
    <g>
     <path class="fil12" d="M47796 11988c-450,0 -815,365 -815,815 0,450 365,815 815,815 450,0 815,-365 815,-815 0,-450 -365,-815 -815,-815z"/>
     <path class="fil13" d="M47796 12071c-203,0 -387,82 -518,214 -132,132 -215,316 -215,518 0,202 83,386 215,518 132,133 316,215 518,215 203,0 387,-83 518,-215 132,-131 215,-315 215,-518 0,-202 -83,-386 -215,-518 -132,-132 -316,-214 -518,-214zm-634 98c163,-162 387,-263 634,-263 248,0 472,101 635,263 162,162 263,387 263,634 0,247 -101,472 -263,634 -163,162 -388,264 -635,264 -247,0 -472,-102 -634,-263 -163,-163 -263,-387 -263,-635 0,-247 100,-471 263,-634z"/>
     <path class="fil12" d="M47796 12391c-227,0 -412,185 -412,412 0,228 185,412 412,412 227,0 412,-184 412,-412 0,-227 -185,-412 -412,-412z"/>
     <path class="fil13" d="M47796 12474c-91,0 -174,37 -233,96 -59,59 -96,142 -96,233 0,91 37,173 96,233 59,59 142,97 233,97 91,0 174,-38 233,-97 59,-60 96,-142 96,-233 0,-91 -37,-174 -96,-233 -59,-59 -142,-96 -233,-96zm-349 -19c89,-90 214,-146 349,-146 136,0 260,56 349,145 89,89 145,213 145,349 0,136 -56,260 -145,349 -89,89 -213,145 -349,145 -136,0 -260,-56 -349,-145 -89,-89 -145,-213 -145,-349 0,-135 56,-260 145,-348z"/>
     <path class="fil14" d="M50409 12803c0,449 366,815 815,815l4914 0c449,0 815,-366 815,-815 0,-448 -366,-815 -815,-815l-4914 0c-449,0 -815,367 -815,815zm5729 502l-4914 0c-277,0 -502,-226 -502,-502 0,-276 225,-502 502,-502l4914 0c277,0 502,226 502,502 0,276 -225,502 -502,502z"/>
    </g>
    <path class="fil15" d="M56083 19852l10762 0c47,0 86,39 86,87l0 4031c0,47 -39,86 -87,86l-10761 0c-48,0 -87,-39 -87,-86l0 -4031c0,-48 39,-87 87,-87z"/>
    <path class="fil15" d="M40795 25388l25745 0c200,0 363,162 363,362l0 34403c0,201 -163,363 -363,363l-25745 0c-201,0 -363,-162 -363,-363l0 -34403c0,-200 162,-362 363,-362z"/>
    <path class="fil16" d="M62611 48702c0,52 -30,78 -88,78 -57,0 -85,-26 -85,-78 0,-47 30,-71 91,-71 54,0 82,24 82,71l0 0zm0 275c0,51 -30,78 -89,78 -24,0 -43,-7 -59,-22 -15,-14 -23,-33 -23,-56 0,-48 29,-71 90,-71 54,0 81,23 81,71zm1025 78c-63,0 -107,-19 -131,-56 0,98 -24,179 -72,244 -54,71 -128,106 -223,106l-181 0c-79,0 -147,-30 -201,-91 -53,-59 -79,-129 -79,-209l0 -244 115 0 0 256c0,51 19,92 57,125 36,31 80,47 130,47l152 0c50,0 93,-16 128,-48 36,-32 55,-73 55,-124l0 -755 117 0 0 550c0,54 44,81 133,82l0 117 0 0zm480 0c-47,0 -83,-2 -107,-6 -19,-8 -38,-21 -59,-40 -37,31 -74,46 -111,46l-252 0 0 -117 216 0c32,0 55,-7 67,-20 13,-13 19,-37 19,-70l0 -160 117 0 0 160c0,39 9,64 27,76 14,9 41,14 83,14l0 117 0 0zm-104 222c0,20 -7,36 -21,49 -15,13 -32,19 -51,19 -23,0 -41,-5 -57,-18 -17,-13 -26,-29 -26,-50 0,-43 25,-64 75,-64 54,0 80,21 80,64l0 0zm-223 0c0,20 -7,36 -21,49 -15,13 -32,19 -52,19 -22,0 -41,-5 -56,-18 -18,-13 -26,-29 -26,-50 0,-43 25,-64 74,-64 54,0 81,21 81,64l0 0zm908 -222c-38,0 -66,-4 -84,-11 -22,-9 -42,-28 -60,-57 -33,56 -87,84 -161,84 -27,0 -55,-9 -85,-25 -30,-17 -52,-36 -67,-59 -9,44 -68,66 -177,67l0 -116c64,0 103,-7 114,-20 6,-6 9,-36 9,-89 0,-71 17,-128 50,-170 37,-47 90,-71 159,-71 64,0 113,25 150,75 32,45 49,100 51,166 0,24 0,40 1,47 2,28 13,46 31,53 8,4 32,7 69,9l0 117zm-208 -230c0,-82 -32,-123 -98,-123 -68,0 -102,44 -102,131 0,80 34,121 102,121 66,0 98,-43 98,-129l0 0zm584 39c0,51 -15,95 -45,131 -32,40 -72,59 -122,59l-249 0 0 -116 213 0c32,0 55,-7 67,-20 13,-13 19,-37 19,-70l0 -160 117 0 0 176 0 0zm-20 414c0,20 -7,36 -22,49 -14,13 -32,20 -52,20 -22,0 -41,-6 -56,-18 -17,-13 -25,-30 -25,-51 0,-44 24,-65 74,-65 54,0 81,21 81,65zm-223 0c0,20 -7,36 -22,49 -15,13 -32,20 -52,20 -22,0 -41,-6 -56,-18 -17,-13 -25,-30 -25,-51 0,-44 24,-65 74,-65 54,0 81,21 81,65zm533 -223l-114 0 0 -749 114 0 0 749zm-6070 -5008c0,52 -30,77 -88,77 -57,0 -85,-25 -85,-77 0,-48 30,-72 91,-72 55,0 82,24 82,72l0 0zm0 274c0,52 -30,78 -89,78 -24,0 -43,-7 -59,-21 -15,-15 -23,-33 -23,-57 0,-47 30,-71 90,-71 54,0 81,24 81,71zm1492 -109c0,54 -12,100 -38,136 -29,42 -69,63 -121,63 -53,0 -108,-26 -164,-80 -37,54 -83,80 -138,80 -42,0 -86,-16 -131,-47 0,93 -25,170 -74,231 -53,66 -125,99 -216,99l-178 0c-84,0 -154,-30 -208,-89 -54,-57 -80,-128 -80,-213l0 -243 114 0 0 248c0,54 18,98 54,132 34,32 79,48 134,48l151 0c55,0 99,-16 133,-49 34,-33 52,-77 52,-131l0 -365 116 0 0 174c0,27 11,49 31,67 20,18 44,26 71,26 54,0 81,-24 81,-72l0 -195 114 0 0 173c0,27 10,49 30,67 19,18 43,27 71,27 55,0 82,-24 82,-72l0 -195 114 0 0 180 0 0zm387 187c-98,0 -168,-19 -208,-57 -27,-24 -40,-65 -40,-121l0 -552 117 0 0 500c0,55 9,88 27,100 11,7 46,12 104,13l0 117 0 0zm580 0c-38,0 -66,-3 -84,-10 -22,-10 -42,-29 -60,-57 -33,55 -87,83 -161,83 -27,0 -55,-8 -85,-24 -30,-17 -52,-37 -67,-59 -9,44 -68,66 -177,67l0 -117c64,0 103,-6 114,-19 6,-7 9,-37 9,-90 0,-71 17,-127 50,-169 37,-48 90,-71 160,-71 63,0 112,25 149,75 32,45 49,100 51,165 0,25 0,41 1,48 3,28 13,45 31,53 8,4 32,7 69,8l0 117zm-208 -229c0,-82 -32,-123 -98,-123 -68,0 -102,44 -102,130 0,81 34,121 102,121 66,0 98,-42 98,-128l0 0zm652 -326c0,20 -7,37 -22,50 -14,14 -32,20 -52,20 -23,0 -42,-6 -58,-17 -17,-14 -25,-31 -25,-53 0,-42 25,-64 75,-64 55,0 82,22 82,64zm-223 0c0,20 -8,37 -22,50 -15,14 -32,20 -52,20 -23,0 -42,-6 -58,-17 -17,-14 -25,-31 -25,-53 0,-42 25,-64 75,-64 55,0 82,22 82,64zm155 365c0,51 -15,94 -45,131 -31,39 -72,59 -121,59l-250 0 0 -117 213 0c32,0 55,-6 67,-19 13,-14 19,-37 19,-70l0 -160 117 0 0 176 0 0zm842 -8c0,61 -23,112 -69,152 -45,40 -97,59 -159,59 -64,0 -116,-21 -157,-65 -40,-43 -61,-97 -61,-162 0,-66 45,-144 134,-233l-34 -37 78 -79 214 221c36,37 54,86 54,144l0 0zm-115 -7c0,-24 -6,-42 -19,-55l-94 -100c-69,67 -104,120 -104,159 0,30 12,55 34,74 22,19 49,29 79,29 31,0 56,-10 75,-30 19,-20 29,-46 29,-77l0 0zm646 185c0,86 -27,160 -81,220 -55,63 -126,95 -211,95l-156 0 -19 -119 132 0c56,0 105,-14 145,-41 47,-31 70,-74 70,-127l0 -375 120 0 0 347 0 0zm397 20c-99,0 -168,-19 -208,-57 -27,-24 -41,-65 -41,-121l0 -552 117 0 0 500c0,55 10,88 28,100 11,7 45,12 104,13l0 117 0 0zm580 0c-39,0 -67,-3 -84,-10 -22,-10 -42,-29 -60,-57 -34,55 -87,83 -161,83 -28,0 -56,-8 -85,-24 -30,-17 -52,-37 -67,-59 -9,44 -68,66 -178,67l0 -117c65,0 103,-6 115,-19 6,-7 9,-37 9,-90 0,-71 16,-127 50,-169 37,-48 90,-71 159,-71 63,0 113,25 150,75 32,45 49,100 50,165 1,25 1,41 1,48 3,28 13,45 32,53 8,4 31,7 69,8l0 117zm-208 -229c0,-82 -33,-123 -99,-123 -68,0 -102,44 -102,130 0,81 34,121 102,121 66,0 99,-42 99,-128l0 0zm796 -455c0,21 -7,38 -22,52 -15,13 -32,20 -52,20 -22,0 -41,-7 -57,-20 -17,-13 -25,-31 -25,-52 0,-41 24,-62 74,-62 55,0 82,21 82,62zm114 164c0,21 -7,38 -21,52 -15,13 -33,20 -53,20 -22,0 -41,-6 -57,-20 -17,-13 -25,-30 -25,-52 0,-41 24,-62 73,-62 56,0 83,21 83,62l0 0zm-225 0c0,20 -8,37 -22,51 -14,15 -32,21 -52,21 -22,0 -41,-6 -57,-20 -16,-13 -24,-30 -24,-52 0,-41 25,-62 75,-62 53,0 80,21 80,62l0 0zm408 333c0,56 -14,102 -39,138 -29,41 -71,61 -125,61 -62,0 -115,-26 -161,-80 -45,54 -92,80 -142,80 -56,0 -109,-31 -159,-94 -52,55 -103,82 -153,82l-149 0 0 -117 141 0c54,0 81,-28 81,-85l0 -165 114 0 0 173c0,28 10,51 29,68 18,18 42,26 70,26 55,0 82,-24 82,-72l0 -195 114 0 0 173c0,27 10,50 30,68 19,18 43,26 70,26 55,0 82,-24 82,-72l0 -195 115 0 0 180 0 0zm-5814 -4820c0,51 -29,77 -88,77 -56,0 -85,-26 -85,-77 0,-48 31,-72 92,-72 54,0 81,24 81,72l0 0zm0 274c0,52 -30,78 -89,78 -23,0 -43,-7 -59,-21 -15,-15 -23,-33 -23,-57 0,-47 30,-71 90,-71 54,0 81,24 81,71zm943 78l-108 0 5 57c0,68 -26,125 -77,171 -50,44 -110,67 -178,67l-180 0c-92,0 -164,-34 -217,-101 -48,-62 -72,-140 -72,-235l0 -209 117 0 0 254c0,55 20,99 59,131 35,29 82,43 139,43l150 0c41,0 76,-11 102,-33 29,-24 43,-56 43,-98 0,-25 -36,-40 -107,-46 -13,-1 -58,-2 -136,-2l-10 -116 470 0 0 117zm411 -882l-408 146 -5 -45 409 -147 4 46 0 0zm70 727c0,50 -19,89 -58,117 -34,25 -77,38 -127,38l-341 0 0 -117 341 0c44,0 67,-14 67,-44 0,-16 -7,-32 -22,-47l-310 -323 -23 -131 432 -155 16 118 -307 116 300 331c21,24 32,57 32,97l0 0zm668 2c0,47 -17,85 -52,113 -33,27 -73,40 -120,40l-363 0 -16 -117 372 0c43,0 65,-15 65,-46 0,-15 -6,-29 -19,-42l-263 -279 79 -80 262 279c37,39 55,83 55,132l0 0zm270 153l-114 0 0 -748 114 0 0 748zm726 0l-77 0c0,85 -29,156 -86,212 -58,55 -129,83 -215,83l-151 0 -16 -117 147 0c56,0 102,-16 138,-48 37,-32 57,-75 59,-130 -97,0 -167,-14 -213,-40 -59,-34 -88,-96 -88,-186 0,-98 23,-166 70,-205 27,-24 74,-36 138,-36 93,0 155,39 187,116 18,45 28,123 30,234l77 0 0 117 0 0zm-197 -117l0 -111c0,-32 -8,-60 -24,-84 -17,-26 -42,-39 -73,-39 -37,0 -62,13 -75,38 -9,18 -14,48 -14,90 0,49 21,80 62,94 22,8 63,12 124,12l0 0zm405 -433c0,23 -8,42 -23,58 -16,16 -36,24 -58,24 -59,0 -89,-27 -89,-82 0,-46 28,-69 84,-69 58,0 86,23 86,69l0 0zm115 360c0,50 -16,94 -47,131 -33,39 -74,59 -122,59l-192 0 0 -117c122,0 191,-2 205,-7 26,-10 38,-45 38,-105 0,-15 0,-38 0,-69 -1,-31 -1,-54 -1,-68l119 0 0 176zm371 190c-99,0 -169,-19 -209,-57 -26,-25 -40,-65 -40,-121l0 -553 117 0 0 501c0,54 9,87 27,100 11,7 46,11 105,13l0 117 0 0zm397 -675c0,22 -8,41 -24,57 -16,16 -35,24 -57,24 -59,0 -88,-27 -88,-81 0,-47 28,-70 85,-70 56,0 84,23 84,70zm225 449l-268 153c-62,35 -128,58 -197,67 -34,4 -104,6 -209,6l0 -117c151,0 257,-14 320,-44 4,-2 32,-17 84,-44 32,-18 79,-44 143,-80 -16,-32 -41,-52 -76,-61 -15,-3 -49,-5 -103,-5l-204 0 -17 -116 289 0c159,0 238,81 238,241l0 0zm725 34c0,59 -19,106 -59,142 -40,35 -89,53 -148,53 -60,0 -109,-21 -147,-62 -37,-39 -55,-90 -55,-151l0 -142c-13,-1 -21,-2 -24,-2 -30,0 -56,12 -77,36 -20,24 -31,51 -31,81l0 532 -114 0 0 -518c0,-74 20,-133 59,-176 41,-45 99,-68 173,-68l237 0c77,0 130,29 158,85 19,39 28,102 28,190l0 0zm-114 -25c0,-62 -6,-99 -19,-111 -14,-13 -68,-21 -162,-24l0 162c0,22 11,41 33,55 19,14 40,21 63,21 56,0 85,-34 85,-103l0 0zm485 217c-99,0 -168,-19 -208,-57 -27,-25 -41,-65 -41,-121l0 -553 117 0 0 501c0,54 10,87 28,100 11,7 46,11 104,13l0 117 0 0zm199 -550c0,23 -8,42 -24,58 -15,16 -35,24 -57,24 -59,0 -89,-27 -89,-82 0,-46 28,-69 84,-69 58,0 86,23 86,69l0 0zm115 360c0,50 -16,94 -47,131 -33,39 -74,59 -122,59l-192 0 0 -117c122,0 191,-2 204,-7 27,-10 39,-45 39,-105 0,-15 0,-38 0,-69 -1,-31 -1,-54 -1,-68l119 0 0 176zm-1477 -4818c0,52 -29,78 -88,78 -57,0 -85,-26 -85,-78 0,-47 31,-71 91,-71 55,0 82,24 82,71l0 0zm0 275c0,52 -30,78 -89,78 -24,0 -43,-7 -59,-22 -15,-14 -23,-33 -23,-56 0,-47 30,-71 90,-71 54,0 81,24 81,71zm792 -114c0,59 -19,106 -59,141 -40,36 -89,53 -148,53 -60,0 -109,-20 -147,-61 -37,-40 -55,-90 -55,-151l0 -143c-13,0 -21,-1 -24,-1 -30,0 -56,12 -77,36 -20,24 -31,51 -31,81l0 531 -114 0 0 -517c0,-75 20,-133 59,-176 41,-45 99,-68 173,-68l237 0c77,0 130,29 158,85 19,39 28,102 28,190l0 0zm-114 -25c0,-63 -6,-100 -19,-112 -14,-13 -68,-21 -162,-24l0 163c0,22 11,40 33,55 19,14 40,20 63,20 56,0 85,-34 85,-102l0 0zm485 217c-99,0 -168,-19 -208,-57 -27,-25 -41,-66 -41,-122l0 -552 117 0 0 501c0,54 10,87 28,99 11,8 46,12 104,14l0 117 0 0zm199 -550c0,23 -8,42 -24,58 -15,16 -35,24 -57,24 -59,0 -89,-27 -89,-82 0,-47 28,-70 84,-70 58,0 86,23 86,70l0 0zm115 360c0,50 -16,93 -47,131 -33,39 -74,59 -122,59l-192 0 0 -117c122,0 191,-3 204,-7 27,-10 39,-45 39,-105 0,-16 0,-38 0,-69 -1,-31 -1,-54 -1,-69l119 0 0 177zm-12585 18403c0,22 -8,41 -24,56 -15,16 -35,23 -57,23 -58,0 -86,-26 -86,-79 0,-46 27,-69 82,-69 57,0 85,23 85,69l0 0zm331 375c0,92 -26,166 -78,224 -54,60 -126,90 -216,90l-180 0c-80,0 -147,-30 -202,-91 -53,-59 -79,-129 -79,-210l0 -244 114 0 0 257c0,50 19,91 58,124 37,32 80,47 131,47l150 0c51,0 95,-16 131,-48 36,-32 54,-73 54,-123l0 -373 117 0 0 347zm554 -665c0,23 -8,43 -24,59 -15,15 -35,23 -57,23 -60,0 -89,-27 -89,-82 0,-47 28,-70 85,-70 56,0 85,23 85,70l0 0zm5 664c0,86 -27,159 -81,220 -56,63 -126,95 -211,95l-155 0 -19 -119 131 0c56,0 105,-14 146,-41 46,-31 70,-74 70,-127l0 -374 119 0 0 346 0 0zm3715 -132c0,47 -18,84 -53,113 -33,26 -73,39 -120,39l-363 0 -16 -117 372 0c44,0 65,-15 65,-45 0,-16 -6,-30 -19,-43l-263 -279 79 -79 262 279c37,38 56,82 56,132l0 0zm641 152c-59,0 -101,-18 -126,-55 0,98 -24,179 -72,243 -54,72 -128,107 -223,107l-152 0 -19 -117 161 0c51,0 94,-15 130,-47 37,-33 56,-74 56,-124l0 -374 117 0 0 169c0,52 43,80 128,81l0 117 0 0zm487 -219c0,67 -17,122 -50,165 -36,47 -87,70 -152,70 -50,0 -94,-14 -132,-44 -37,17 -103,26 -197,28l0 -117c66,0 105,-6 116,-19 3,-4 6,-34 7,-90 4,-160 74,-240 209,-240 65,0 116,26 152,78 31,45 47,101 47,169l0 0zm-102 -7c0,-84 -33,-126 -100,-126 -68,0 -102,44 -102,130 0,81 34,121 102,121 67,0 100,-42 100,-125zm3159 -126c0,52 -30,77 -88,77 -57,0 -85,-25 -85,-77 0,-48 30,-72 91,-72 55,0 82,24 82,72l0 0zm0 274c0,52 -30,78 -89,78 -24,0 -43,-7 -59,-21 -15,-15 -23,-33 -23,-57 0,-47 29,-71 90,-71 54,0 81,24 81,71zm809 -483c0,20 -7,36 -21,49 -15,13 -32,19 -52,19 -56,0 -83,-23 -83,-68 0,-43 25,-65 76,-65 54,0 80,22 80,65l0 0zm-224 0c0,20 -8,36 -22,49 -14,13 -32,19 -52,19 -55,0 -83,-23 -83,-68 0,-43 25,-65 76,-65 54,0 81,22 81,65l0 0zm635 561c-93,0 -154,-15 -185,-45 -40,30 -78,45 -113,45l-615 0c-49,0 -89,-20 -122,-60 -30,-37 -45,-80 -45,-130l0 -177 117 0 0 161c0,33 6,56 19,70 13,13 36,19 68,19l543 0c33,0 55,-6 68,-19 12,-14 18,-37 18,-70l0 -161 118 0 0 161c0,60 43,89 129,89l0 117 0 0zm483 0c-48,1 -83,-1 -107,-6 -19,-7 -39,-20 -59,-39 -37,30 -74,45 -111,45l-252 0 0 -117 216 0c32,0 54,-6 67,-19 12,-14 19,-37 19,-70l0 -161 117 0 0 161c0,38 9,64 27,76 14,9 41,13 83,13l0 117 0 0zm-104 223c0,20 -7,36 -21,49 -15,13 -32,19 -52,19 -22,0 -40,-6 -56,-18 -18,-13 -26,-30 -26,-50 0,-43 25,-65 75,-65 53,0 80,22 80,65l0 0zm-223 0c0,20 -7,36 -21,49 -15,13 -32,19 -52,19 -22,0 -41,-6 -56,-18 -18,-13 -26,-30 -26,-50 0,-43 25,-65 74,-65 54,0 81,22 81,65l0 0zm1336 -223c-46,-1 -76,-4 -91,-8 -30,-8 -54,-26 -69,-54 -36,50 -81,75 -135,75 -54,0 -108,-25 -160,-76 -46,51 -102,76 -170,76 -63,0 -116,-27 -157,-82 -25,34 -68,55 -130,63 -27,4 -78,6 -152,6l0 -117 98 0c43,0 73,-5 90,-16 22,-14 33,-42 33,-85l0 -149 114 0 0 174c0,27 10,50 30,67 20,18 44,26 71,26 53,0 80,-24 80,-72l0 -195 114 0 0 173c0,27 10,50 31,68 19,18 42,26 70,26 55,0 82,-24 82,-72l0 -195 115 0 0 180c0,27 14,47 42,60 8,4 39,7 94,10l0 117 0 0zm204 -550c0,23 -8,43 -24,59 -15,16 -35,24 -57,24 -59,0 -89,-28 -89,-83 0,-46 28,-69 84,-69 58,0 86,23 86,69l0 0zm253 550l-38 0c-73,0 -127,-15 -162,-45 -39,30 -76,45 -112,45l-192 0 0 -117c121,0 189,-3 204,-8 26,-9 39,-44 39,-104 0,-15 0,-38 0,-69 0,-30 0,-54 0,-69l117 0 0 161c0,57 48,87 144,89l0 117 0 0zm626 -226l-267 153c-63,36 -129,58 -198,67 -34,4 -104,6 -209,6l0 -117c151,0 257,-14 320,-44 5,-2 33,-17 84,-44 32,-17 80,-44 143,-79 -15,-32 -40,-53 -75,-61 -15,-4 -50,-6 -103,-6l-205 0 -16 -115 288 0c158,0 238,80 238,240l0 0zm-420 435c0,23 -8,42 -23,58 -16,16 -34,24 -57,24 -25,0 -46,-7 -62,-21 -18,-15 -27,-34 -27,-59 0,-48 28,-73 85,-73 56,0 84,24 84,71z"/>
    <path class="fil17" d="M55020 52359c257,0 490,105 658,272 168,169 273,402 273,658 0,257 -105,489 -273,658 -168,168 -401,272 -657,272 -256,0 -490,-104 -658,-272 -168,-169 -273,-401 -273,-658 0,-256 105,-489 273,-657 168,-168 402,-273 657,-273zm472 459c-121,-119 -288,-194 -472,-194 -183,0 -350,75 -470,194 -120,121 -195,288 -195,471 0,184 75,351 194,471 121,120 288,195 472,195 183,0 350,-75 470,-195 120,-120 195,-287 195,-471 0,-183 -75,-350 -194,-471z"/>
    <path class="fil17" d="M59864 52359c256,0 489,105 657,272 168,169 273,402 273,658 0,257 -105,489 -273,658 -168,168 -401,272 -657,272 -256,0 -490,-104 -658,-272 -168,-169 -273,-401 -273,-658 0,-256 105,-489 273,-657 168,-168 402,-273 658,-273zm471 459c-121,-119 -288,-194 -471,-194 -184,0 -351,75 -471,194 -120,121 -195,288 -195,471 0,184 75,351 194,471 121,120 288,195 472,195 183,0 350,-75 470,-195 120,-120 195,-287 195,-471 0,-183 -75,-350 -194,-471z"/>
    <path class="fil18" d="M60343 53289c0,-265 -215,-479 -479,-479 -265,0 -480,214 -480,479 0,265 215,480 480,480 264,0 479,-215 479,-480z"/>
    <path class="fil19" d="M57662 56757l7496 0c113,0 205,74 205,164l0 2301c0,90 -92,164 -205,164l-7496 0c-113,0 -205,-74 -205,-164l0 -2301c0,-90 92,-164 205,-164l0 0z"/>
    <polygon class="fil20" points="41864,35701 65447,35701 65447,35610 41864,35610 "/>
    <polygon class="fil20" points="41864,40356 65447,40356 65447,40265 41864,40265 "/>
    <polygon class="fil20" points="41864,45011 65447,45011 65447,44921 41864,44921 "/>
    <polygon class="fil20" points="41864,49667 65447,49667 65447,49576 41864,49576 "/>
    <path class="fil20" d="M42627 48105l-69 0 0 278 -278 0 0 69 278 0 0 277 69 0 0 -277 277 0 0 -69 -277 0 0 -278zm-35 -416c-401,0 -728,327 -728,728 0,402 327,728 728,728 402,0 728,-326 728,-728 0,-401 -326,-728 -728,-728zm0 1386c-363,0 -657,-294 -657,-658 0,-363 294,-657 657,-657 364,0 658,294 658,657 0,364 -294,658 -658,658z"/>
    <path class="fil20" d="M42627 43450l-69 0 0 278 -278 0 0 68 278 0 0 278 69 0 0 -278 277 0 0 -68 -277 0 0 -278zm-35 -416c-401,0 -728,326 -728,728 0,402 327,728 728,728 402,0 728,-326 728,-728 0,-402 -326,-728 -728,-728zm0 1386c-363,0 -657,-295 -657,-658 0,-363 294,-658 657,-658 364,0 658,295 658,658 0,363 -294,658 -658,658z"/>
    <g>
     <path class="fil19" d="M64774 20474c-395,0 -767,154 -1047,433 -279,280 -433,652 -433,1047 0,395 154,768 433,1048 280,279 652,433 1047,433 396,0 768,-154 1048,-433 279,-280 433,-653 433,-1048 0,-395 -154,-767 -433,-1047 -280,-279 -652,-433 -1048,-433z"/>
     <path class="fil12" d="M64820 21746c0,218 -177,393 -393,393 -217,0 -394,-177 -394,-393 0,-228 194,-408 424,-392l58 10c174,39 306,195 306,382l-1 0zm-275 -471c-402,-98 -715,305 -566,660 62,147 186,247 341,285l56 10c287,29 538,-195 538,-484 0,-226 -158,-418 -369,-471l0 0 0 0z"/>
     <path class="fil12" d="M65214 23112c0,-435 -353,-787 -787,-787 -333,0 -618,208 -733,501 23,28 46,54 71,81 87,-284 351,-489 662,-489 383,0 695,310 695,694l0 187c31,-9 62,-17 92,-27l0 -160 0 0 0 0z"/>
     <path class="fil12" d="M64934 22028c439,-125 882,207 882,667l0 177c32,-37 63,-77 91,-116l0 -61c0,-491 -446,-862 -928,-774 -13,38 -27,73 -45,107l0 0z"/>
     <path class="fil12" d="M65004 21802c305,75 603,-156 603,-472 0,-268 -218,-486 -485,-486 -228,0 -420,158 -472,369 29,12 57,26 85,43 35,-180 195,-318 387,-318 217,0 392,175 392,392 0,267 -259,454 -510,375l0 97 0 0z"/>
    </g>
    <polygon class="fil18" points="62642,23304 62681,23304 62681,20535 62642,20535 "/>
    <path class="fil21" d="M58765 21991c0,82 -24,148 -72,196 -48,48 -113,72 -196,72l-413 0c-86,0 -139,-27 -159,-80 0,123 -31,228 -94,316 -72,99 -167,148 -285,148l-233 0c-109,0 -200,-41 -272,-125 -69,-79 -103,-175 -103,-285l0 -299 152 0 0 334c0,57 25,108 76,153 49,44 102,66 160,66l211 0c60,0 113,-21 161,-64 49,-44 74,-96 74,-155l0 -486 156 0 0 225c0,64 47,97 142,100 45,-115 97,-212 160,-292 84,-109 174,-163 267,-163 81,0 147,37 198,113 8,12 17,27 28,46 4,12 14,41 31,88 7,22 11,53 11,92l0 0zm-149 -24c0,-31 -8,-64 -25,-101 -19,-43 -42,-64 -67,-64 -50,0 -108,39 -173,117 -52,61 -93,124 -122,188l291 0c64,0 97,-47 97,-140l-1 0zm622 292c-129,0 -219,-25 -271,-75 -36,-32 -53,-84 -53,-158l0 -719 152 0 0 653c0,70 12,113 36,129 14,10 60,15 136,18l0 152 0 0zm482 -904c0,30 -10,55 -30,75 -21,21 -46,31 -75,31 -33,0 -60,-10 -82,-29 -21,-19 -32,-45 -32,-77 0,-60 36,-89 109,-89 73,0 110,29 110,89l0 0zm381 904c-143,-4 -222,-37 -237,-100 -7,-25 -13,-51 -20,-78 -146,86 -252,138 -317,154 -61,16 -179,24 -357,24l0 -152c196,0 335,-20 416,-58 17,-7 116,-61 297,-161 -20,-41 -53,-68 -98,-79 -19,-5 -64,-7 -135,-7l-266 0 -21 -150 375 0c207,0 310,104 310,313l-141 78c0,42 65,64 194,64l0 152 0 0zm766 -891c0,27 -10,50 -29,67 -19,17 -42,26 -68,26 -28,0 -53,-8 -74,-25 -22,-18 -33,-41 -33,-68 0,-54 32,-82 96,-82 72,0 108,28 108,82l0 0zm149 214c0,27 -10,49 -29,67 -19,18 -42,27 -69,27 -28,0 -53,-9 -74,-27 -22,-17 -33,-40 -33,-67 0,-54 33,-81 96,-81 72,0 109,27 109,81zm-295 0c0,26 -9,48 -28,66 -18,18 -41,28 -67,28 -29,0 -53,-9 -74,-27 -21,-17 -31,-40 -31,-67 0,-54 32,-81 97,-81 69,0 103,27 103,81l0 0zm532 433c0,73 -17,133 -51,180 -38,53 -92,80 -162,80 -81,0 -151,-35 -210,-104 -58,69 -120,104 -185,104 -73,0 -142,-41 -206,-124 -69,72 -135,108 -201,108l-193 0 0 -152 183 0c71,0 106,-37 106,-111l0 -215 149 0 0 225c0,36 12,66 36,89 25,22 56,34 92,34 72,0 107,-32 107,-95l0 -253 149 0 0 225c0,36 12,65 38,88 25,23 56,35 92,35 71,0 107,-32 107,-95l0 -253 149 0 0 234 0 0zm369 244l-149 0 0 -975 149 0 0 975z"/>
    <path class="fil22" d="M63590 27693c-474,0 -919,184 -1255,518 -334,336 -518,781 -518,1255 0,473 184,918 518,1254 336,334 781,519 1255,519 473,0 918,-185 1254,-519 334,-336 519,-781 519,-1254 0,-474 -185,-919 -519,-1255 -336,-334 -781,-518 -1254,-518zm471 1136c0,260 -212,472 -471,472 -259,0 -472,-212 -472,-472 0,-259 213,-471 472,-471 259,0 471,212 471,471zm-1052 0c0,321 259,582 581,582 320,0 581,-261 581,-582 0,-320 -261,-581 -581,-581 -322,0 -581,261 -581,581zm581 694c-521,0 -943,422 -943,942l0 371c-82,-57 -161,-122 -233,-194 -314,-315 -487,-733 -487,-1176 0,-444 173,-862 487,-1177 314,-313 732,-486 1176,-486 443,0 862,173 1176,486 314,315 487,733 487,1177 0,443 -173,861 -487,1176 -73,72 -151,137 -234,194l0 -371c0,-520 -422,-942 -942,-942zm-831 1383l0 -441c0,-460 373,-833 831,-833 457,0 830,373 830,833l0 441c-249,144 -534,222 -830,222 -297,0 -581,-78 -831,-222z"/>
    <path class="fil23" d="M54742 30741l-53 0c-44,0 -93,-27 -148,-80 -35,53 -86,80 -155,80l-362 0 -16 -117 371 0c43,0 64,-14 64,-44 0,-16 -6,-31 -18,-43l-262 -280 78 -80 352 373c30,32 51,52 62,58 20,11 49,16 87,16l0 117 0 0zm361 -190c0,51 -15,94 -45,131 -32,39 -73,59 -122,59l-249 0 0 -117 212 0c33,0 55,-6 68,-20 12,-13 19,-36 19,-69l0 -161 117 0 0 177 0 0zm-20 413c0,20 -8,37 -22,50 -15,13 -32,19 -53,19 -21,0 -40,-6 -55,-17 -17,-13 -26,-31 -26,-52 0,-43 25,-65 74,-65 55,0 82,22 82,65zm-223 0c0,20 -8,37 -22,50 -15,13 -32,19 -53,19 -21,0 -40,-6 -56,-17 -17,-13 -25,-31 -25,-52 0,-43 25,-65 74,-65 54,0 82,22 82,65zm1083 -223l-53 0c-44,0 -93,-27 -148,-80 -35,53 -86,80 -155,80l-362 0 -16 -117 371 0c43,0 64,-14 64,-44 0,-16 -6,-31 -18,-43l-262 -280 79 -80 351 373c30,32 51,52 63,58 19,11 48,16 86,16l0 117 0 0zm613 -226l-267 152c-63,37 -128,59 -197,67 -34,5 -104,7 -209,7l0 -117c151,0 257,-14 319,-44 5,-2 33,-17 85,-44 32,-17 79,-44 142,-80 -15,-32 -40,-52 -75,-61 -15,-3 -49,-5 -103,-5l-204 0 -17 -116 288 0c159,0 238,80 238,241l0 0zm-420 435c0,23 -8,42 -23,58 -15,16 -34,24 -57,24 -25,0 -45,-7 -62,-21 -18,-15 -27,-34 -27,-59 0,-48 29,-73 85,-73 56,0 84,24 84,71zm1359 -362c0,47 -18,85 -53,113 -33,27 -73,40 -120,40l-363 0 -16 -117 372 0c44,0 65,-15 65,-46 0,-15 -6,-29 -19,-42l-263 -279 79 -80 262 279c37,39 56,83 56,132l0 0zm641 153c-59,0 -101,-18 -126,-55 0,97 -24,178 -72,243 -54,71 -128,107 -223,107l-152 0 -19 -117 161 0c51,0 94,-16 130,-47 37,-33 56,-75 56,-124l0 -374 117 0 0 169c0,52 43,79 128,81l0 117 0 0zm353 -712c0,22 -8,41 -24,57 -16,16 -36,24 -58,24 -57,0 -86,-27 -86,-81 0,-46 28,-69 83,-69 56,0 85,23 85,69zm147 528c3,50 -15,94 -55,131 -38,35 -83,53 -133,53l-351 0 0 -117 352 0c42,0 64,-29 64,-86 -61,-1 -129,-5 -206,-11 -65,-24 -97,-77 -97,-160 0,-56 18,-102 53,-137 36,-35 82,-53 139,-53 46,0 88,13 127,38 62,39 96,104 100,196l7 146 0 0zm-130 -130c-3,-86 -39,-130 -110,-130 -51,0 -77,21 -77,63 0,33 10,54 29,62 8,3 32,5 73,5l85 0zm1229 -247c0,19 -7,36 -22,49 -14,13 -32,19 -52,19 -55,0 -83,-23 -83,-68 0,-43 26,-65 77,-65 53,0 80,22 80,65l0 0zm-225 0c0,19 -7,36 -21,49 -15,13 -32,19 -52,19 -56,0 -83,-23 -83,-68 0,-43 25,-65 75,-65 55,0 81,22 81,65l0 0zm635 561c-92,0 -154,-15 -185,-45 -40,30 -77,45 -113,45l-615 0c-48,0 -89,-20 -121,-60 -31,-37 -46,-80 -46,-130l0 -177 117 0 0 161c0,33 7,56 20,69 12,14 35,20 68,20l543 0c32,0 55,-6 67,-20 12,-13 18,-36 18,-69l0 -161 119 0 0 161c0,59 43,89 128,89l0 117 0 0zm459 0l-36 0c-66,0 -117,-15 -151,-45 -39,30 -77,45 -112,45l-192 0 0 -117c121,0 189,-3 204,-8 26,-10 39,-44 39,-105 0,-15 0,-38 0,-68 0,-31 0,-54 0,-69l118 0 0 161c0,38 14,63 39,75 16,8 46,12 91,14l0 117 0 0zm-276 211c0,23 -8,42 -23,58 -16,16 -35,23 -58,23 -58,0 -88,-27 -88,-81 0,-46 29,-69 84,-69 57,0 85,23 85,69zm599 -894c0,21 -8,38 -22,52 -15,13 -33,20 -54,20 -22,0 -41,-6 -57,-19 -17,-13 -26,-31 -26,-53 0,-43 25,-65 76,-65 55,0 83,22 83,65zm113 164c0,20 -8,38 -23,51 -15,14 -32,22 -53,22 -21,0 -41,-7 -57,-20 -17,-14 -26,-31 -26,-53 0,-43 26,-64 77,-64 54,0 82,21 82,64l0 0zm-225 0c0,20 -7,38 -22,51 -15,14 -32,22 -52,22 -22,0 -41,-7 -57,-20 -17,-14 -26,-31 -26,-53 0,-43 25,-64 76,-64 54,0 81,21 81,64l0 0zm161 329c0,51 -15,94 -45,131 -32,39 -73,59 -122,59l-249 0 0 -117 213 0c32,0 54,-6 67,-20 13,-13 19,-36 19,-69l0 -160 117 0 0 176 0 0z"/>
    <path class="fil21" d="M53114 28745l-117 0 6 62c0,73 -28,135 -84,186 -55,48 -119,72 -194,72l-195 0c-100,0 -179,-36 -236,-110 -52,-67 -78,-152 -78,-255l0 -227 127 0 0 276c0,60 21,107 63,142 39,32 90,47 152,47l162 0c46,0 83,-12 112,-36 31,-26 46,-61 46,-106 0,-27 -38,-44 -116,-50 -14,-1 -63,-2 -147,-2l-12 -126 511 0 0 127 0 0zm468 -751c0,22 -7,40 -23,54 -15,14 -34,21 -56,21 -59,0 -88,-25 -88,-75 0,-46 26,-70 81,-70 57,0 86,24 86,70l0 0zm-241 0c0,22 -8,40 -24,54 -15,14 -34,21 -57,21 -58,0 -88,-25 -88,-75 0,-46 27,-70 81,-70 59,0 88,24 88,70l0 0zm391 751c-9,-3 -34,-4 -74,-5l-126 -2c-44,0 -84,-9 -120,-27 -39,22 -160,34 -361,34l0 -127 187 0c-46,-53 -69,-108 -69,-168 0,-66 22,-119 65,-157 42,-37 96,-55 163,-55 63,0 114,22 153,67 39,42 58,95 58,159 0,59 -15,110 -45,154l169 0 0 126 0 1zm-239 -272c0,-28 -11,-54 -31,-78 -21,-23 -45,-35 -73,-35 -28,0 -51,10 -71,29 -19,18 -29,41 -29,68 0,52 42,96 127,133 51,-38 77,-77 77,-117l0 0zm752 272c-52,0 -91,-2 -117,-7 -20,-8 -41,-22 -64,-43 -40,33 -80,50 -120,50l-274 0 0 -127 235 0c35,0 59,-8 73,-22 13,-15 20,-40 20,-76l0 -174 127 0 0 174c0,42 10,69 30,83 15,9 45,15 90,15l0 127 0 0zm-113 241c0,22 -7,39 -23,54 -16,14 -34,21 -56,21 -24,0 -44,-7 -62,-20 -18,-14 -28,-33 -28,-55 0,-46 27,-70 82,-70 58,0 87,24 87,70zm-242 0c0,22 -8,39 -24,54 -15,14 -34,21 -55,21 -25,0 -45,-7 -62,-20 -19,-14 -28,-33 -28,-55 0,-46 27,-70 81,-70 59,0 88,24 88,70zm817 -992c0,22 -8,40 -23,54 -15,14 -34,21 -56,21 -59,0 -89,-25 -89,-75 0,-46 27,-70 81,-70 58,0 87,24 87,70l0 0zm-241 0c0,22 -8,40 -24,54 -16,14 -35,21 -57,21 -59,0 -88,-25 -88,-75 0,-46 27,-70 80,-70 59,0 89,24 89,70l0 0zm391 751c-9,-3 -34,-4 -75,-5l-125 -2c-44,0 -84,-9 -120,-27 -39,22 -160,34 -362,34l0 -127 188 0c-46,-53 -69,-108 -69,-168 0,-66 21,-119 65,-157 41,-37 96,-55 163,-55 63,0 114,22 153,67 39,42 58,95 58,159 0,59 -15,110 -46,154l170 0 0 126 0 1zm-240 -272c0,-28 -10,-54 -30,-78 -21,-23 -45,-35 -73,-35 -28,0 -51,10 -71,29 -19,18 -29,41 -29,68 0,52 42,96 127,133 51,-38 76,-77 76,-117l0 0zm909 26l-291 166c-64,37 -136,61 -214,71 -32,4 -108,7 -228,9l0 -127 102 0c93,0 179,-18 258,-55 14,-6 92,-49 235,-128 -14,-31 -42,-53 -86,-65 -12,-2 -122,-5 -330,-8l-18 -124 313 0c172,0 258,87 259,261l0 0zm1020 80c0,50 -20,91 -58,122 -35,29 -79,44 -130,44l-394 0 -18 -127 405 0c47,0 70,-17 70,-50 0,-17 -6,-32 -20,-46l-286 -303 85 -87 285 303c40,42 61,90 61,144l0 0zm293 166l-124 0 0 -813 124 0 0 813zm809 0c-64,0 -110,-20 -137,-60 0,106 -26,194 -79,264 -58,77 -138,116 -242,116l-165 0 -20 -127 175 0c55,0 102,-17 140,-52 41,-35 62,-80 62,-134l0 -406 127 0 0 183c0,57 46,87 139,89l0 127 0 0zm383 -774c0,24 -8,45 -26,62 -17,17 -38,26 -63,26 -62,0 -92,-30 -92,-88 0,-50 29,-75 89,-75 61,0 92,25 92,75zm161 573c2,55 -17,102 -60,143 -42,38 -91,58 -145,58l-381 0 0 -127 382 0c46,0 69,-32 69,-94 -66,-1 -140,-5 -224,-12 -70,-26 -105,-84 -105,-174 0,-61 19,-111 58,-149 39,-38 89,-57 151,-57 50,0 96,14 138,41 67,42 104,113 109,212l8 159zm-142 -140c-3,-94 -43,-142 -119,-142 -56,0 -85,23 -85,68 0,37 11,59 32,67 9,4 36,6 79,7l93 0 0 0zm485 341l-124 0 0 -813 124 0 0 813zm1237 -209c0,64 -21,115 -64,154 -43,38 -97,57 -161,57 -66,0 -119,-22 -160,-66 -40,-44 -60,-98 -60,-164l0 -155c-14,-1 -23,-2 -26,-2 -33,0 -60,13 -83,39 -22,26 -33,55 -33,88l0 578 -125 0 0 -562c0,-82 22,-145 64,-192 45,-49 107,-73 188,-73l257 0c85,0 142,31 173,92 20,42 30,111 30,206l0 0zm-124 -27c0,-68 -7,-108 -20,-121 -16,-14 -74,-23 -176,-26l0 176c0,24 11,45 34,61 22,14 44,21 70,21 61,0 92,-37 92,-111l0 0zm836 236c-64,0 -109,-20 -136,-60 0,106 -27,194 -79,264 -58,77 -139,116 -242,116l-165 0 -20 -127 174 0c55,0 102,-17 141,-52 41,-35 61,-80 61,-134l0 -406 127 0 0 183c0,57 47,87 139,89l0 127 0 0zm384 -774c0,24 -9,45 -26,62 -18,17 -39,26 -63,26 -62,0 -93,-30 -93,-88 0,-50 30,-75 89,-75 62,0 93,25 93,75zm160 573c3,55 -17,102 -60,143 -42,38 -90,58 -145,58l-381 0 0 -127 382 0c47,0 70,-32 70,-94 -66,-1 -141,-5 -224,-12 -70,-26 -105,-84 -105,-174 0,-61 19,-111 58,-149 38,-38 88,-57 150,-57 51,0 97,14 139,41 67,42 103,113 108,212l8 159zm-141 -140c-4,-94 -43,-142 -120,-142 -56,0 -84,23 -84,68 0,37 11,59 32,67 9,4 35,6 79,7l93 0 0 0z"/>
    <path class="fil24" d="M61092 57877c0,20 -7,36 -21,49 -14,13 -32,19 -52,19 -56,0 -83,-22 -83,-68 0,-43 25,-64 76,-64 54,0 80,21 80,64l0 0zm-224 0c0,20 -7,36 -22,49 -14,13 -32,19 -52,19 -55,0 -83,-22 -83,-68 0,-43 25,-64 76,-64 54,0 81,21 81,64l0 0zm635 561c-92,0 -154,-14 -185,-45 -40,31 -78,45 -113,45l-615 0c-49,0 -89,-19 -122,-59 -30,-38 -45,-81 -45,-131l0 -176 117 0 0 160c0,33 6,57 19,70 13,13 36,20 68,20l543 0c33,0 55,-7 68,-20 12,-13 18,-37 18,-70l0 -160 118 0 0 160c0,60 43,90 129,90l0 116 0 0zm459 0l-37 0c-66,0 -116,-14 -151,-45 -39,31 -76,45 -111,45l-192 0 0 -116c120,0 188,-3 204,-9 25,-9 39,-44 39,-104 0,-16 0,-38 0,-69 0,-30 0,-53 0,-68l118 0 0 160c0,38 13,63 39,76 15,7 46,12 91,14l0 116 0 0zm-276 212c0,23 -8,42 -24,58 -15,15 -35,23 -57,23 -59,0 -88,-27 -88,-81 0,-46 28,-69 84,-69 56,0 85,23 85,69zm598 -895c0,21 -7,39 -22,52 -15,14 -32,20 -53,20 -23,0 -42,-6 -57,-18 -17,-14 -26,-32 -26,-54 0,-43 25,-65 75,-65 55,0 83,22 83,65zm113 165c0,20 -8,37 -22,51 -15,14 -33,21 -53,21 -22,0 -41,-7 -57,-19 -17,-14 -26,-32 -26,-53 0,-43 25,-65 76,-65 55,0 82,22 82,65l0 0zm-224 0c0,20 -8,37 -22,51 -15,14 -33,21 -52,21 -22,0 -42,-7 -58,-19 -17,-14 -25,-32 -25,-53 0,-43 25,-65 76,-65 53,0 81,22 81,65l0 0zm160 328c0,51 -15,95 -45,131 -31,40 -72,59 -121,59l-250 0 0 -116 213 0c32,0 55,-7 68,-20 12,-13 18,-37 18,-70l0 -160 117 0 0 176 0 0z"/>
    <g>
     <path class="fil25" d="M45891 65302c0,-1507 -1222,-2729 -2729,-2729 -1508,0 -2730,1222 -2730,2729 0,1508 1222,2730 2730,2730 1507,0 2729,-1222 2729,-2730z"/>
     <path class="fil12" d="M43677 66075l0 515 -2061 0 0 -515 2061 0zm-2061 -1546l0 -514c1030,0 2061,0 3091,0l-515 514c-859,0 -1717,0 -2576,0zm3091 516c0,515 0,1030 0,1545l-515 0 0 -1030 0 0 -2576 0 0 -515c1030,0 2061,0 3091,0z"/>
    </g>
    <g id="_1596973574176">
     <polygon class="fil26" points="40432,22162 54408,22162 54408,19852 40432,19852 "/>
     <g>
      <g>
       <path class="fil27" d="M49672 21700l-462 462c462,0 924,0 1386,0l462 -462c-462,0 -924,0 -1386,0z"/>
       <polygon class="fil27" points="42742,20314 43204,19852 40432,19852 40432,20314 "/>
       <polygon class="fil27" points="40432,20776 40432,21238 41818,21238 42280,20776 "/>
       <polygon class="fil27" points="43204,20776 42742,21238 44590,21238 45052,20776 "/>
       <polygon class="fil27" points="42742,21700 42742,22162 43666,22162 44128,21700 "/>
       <polygon class="fil27" points="44590,21700 44128,22162 45514,22162 45514,21700 "/>
       <path class="fil27" d="M43666 20314l1848 0 462 -462c-616,0 -1232,0 -1848,0l-462 462z"/>
       <path class="fil27" d="M45976 20776l-462 462 1848 0 462 -462c-616,0 -1232,0 -1848,0z"/>
       <polygon class="fil27" points="47362,19852 47362,20314 47824,20314 47824,19852 "/>
       <polygon class="fil27" points="48286,20776 47824,21238 49210,21238 49210,20776 "/>
       <path class="fil27" d="M47824 21700c-462,0 -924,0 -1386,0l-462 462c616,0 1232,0 1848,0l0 -462z"/>
       <path class="fil27" d="M50596 20314l462 -462c-462,0 -924,0 -1386,0l-462 462c462,0 923,0 1386,0z"/>
       <path class="fil27" d="M49672 20776l-462 462c462,0 924,0 1386,0l462 -462c-462,0 -924,0 -1386,0z"/>
      </g>
      <g>
       <polygon class="fil28" points="42280,20776 41818,21238 41818,22162 42280,22162 "/>
       <polygon class="fil28" points="41356,21700 40432,21700 40432,22162 41356,22162 "/>
       <polygon class="fil28" points="42742,20314 42742,21238 43204,20776 43204,19852 "/>
       <polygon class="fil28" points="47824,21238 47824,22162 48286,21700 48286,21238 "/>
       <polygon class="fil28" points="49210,21238 49672,20776 49672,20314 49210,20314 "/>
       <polygon class="fil28" points="49672,21238 49210,21238 49210,22162 49672,21700 "/>
       <polygon class="fil28" points="45976,20776 45976,19852 45514,20314 45514,21238 "/>
       <polygon class="fil28" points="45976,21238 45514,21238 45514,22162 45976,21700 "/>
      </g>
      <path class="fil25" d="M51636 20314l2310 0 462 -462 -2772 0 0 462 0 0zm1849 1386l-1848 0 0 462 1848 0 0 -462zm923 -924l-2772 0 0 462 2310 0 0 924 462 0 0 -1386 0 0z"/>
     </g>
    </g>
    <path class="fil29" d="M50859 58748c-30,0 -59,-4 -86,-11 -28,-7 -54,-17 -78,-30 -25,-13 -47,-29 -68,-48 -21,-19 -39,-41 -54,-64 -18,-30 -32,-62 -42,-97 -9,-36 -14,-73 -14,-112 0,-25 1,-49 4,-72 3,-23 8,-47 15,-71 6,-24 15,-49 25,-76 11,-26 24,-56 39,-87l126 60c-13,27 -24,51 -33,73 -10,22 -17,42 -22,61 -6,19 -10,38 -12,56 -3,17 -4,36 -4,55 0,26 3,50 10,73 6,24 15,45 26,63 18,27 41,48 71,64 29,16 61,24 97,24l113 0c40,0 72,-5 97,-13 25,-8 44,-20 58,-35 14,-15 23,-33 28,-54 5,-22 7,-45 7,-71l0 -376 140 0 0 376c0,104 -28,182 -83,234 -55,52 -137,78 -247,78l-113 0zm-12 -732l101 -102 103 103 -102 102 -102 -103zm790 431c-14,0 -28,0 -42,-2 -14,-1 -28,-3 -42,-6 -14,-3 -29,-6 -44,-10 -15,-4 -30,-8 -47,-13l-66 -20 40 -134c33,11 66,21 101,29 35,9 68,15 99,17 30,3 57,1 80,-4 22,-5 37,-15 45,-32 3,-5 3,-11 1,-19 -2,-8 -6,-16 -12,-25l-209 -304 118 -76 38 58c0,1 0,2 2,4 1,2 4,6 7,11 4,6 10,15 17,26 8,11 17,25 29,43 12,18 27,40 44,67 17,26 38,57 63,94 18,29 30,58 34,89 5,30 1,60 -11,87 -6,15 -15,29 -26,41 -10,13 -22,24 -37,34 -26,18 -58,30 -95,37 -32,6 -61,8 -87,8zm772 0l-22 0c-15,0 -30,-1 -43,-3 -14,-2 -27,-7 -40,-16 -5,48 -16,92 -33,131 -18,39 -41,73 -70,101 -30,28 -65,49 -105,64 -41,16 -87,23 -137,23l-70 0 0 -139 70 0c35,0 66,-4 93,-11 26,-8 47,-20 64,-36 17,-16 29,-38 37,-64 9,-26 13,-58 13,-96l0 -341 139 0 0 168c0,17 4,31 11,41 7,10 16,18 25,24 9,6 19,10 28,12 9,2 15,3 18,3l22 0 0 139zm-86 0l0 -139 327 0c6,0 14,-1 25,-1 10,-1 21,-2 31,-5 10,-2 18,-6 26,-10 7,-5 10,-11 10,-20 0,-16 -5,-35 -18,-58 -12,-23 -27,-47 -46,-73 -19,-25 -41,-51 -65,-78 -23,-26 -47,-51 -70,-74 -23,-23 -45,-44 -66,-62 -20,-18 -37,-31 -49,-40l11 -127 487 -222 51 122 -410 180c15,14 30,30 48,47 18,18 36,37 55,56 18,20 37,40 55,61 19,21 36,42 53,63 16,21 30,42 43,62 13,20 22,39 29,57 7,16 11,31 14,45 3,15 4,28 4,40 0,15 -2,28 -4,39 -3,12 -6,21 -10,29 -4,10 -11,21 -20,34 -10,13 -23,24 -39,35 -17,11 -38,20 -63,28 -25,7 -56,11 -91,11l-318 0zm1302 0c-27,0 -53,-5 -78,-14 -25,-9 -46,-23 -65,-41 -8,-7 -16,-16 -24,-26 -8,-10 -15,-22 -21,-35 -6,-14 -12,-30 -16,-47 -4,-18 -6,-37 -6,-59 0,-18 2,-39 6,-60 3,-22 8,-43 12,-62 5,-20 9,-36 13,-51 4,-14 7,-23 8,-26l67 21 66 21c-4,10 -7,22 -11,36 -3,14 -7,29 -10,43 -4,15 -7,29 -9,43 -2,14 -3,26 -3,36 0,18 2,32 7,43 5,11 12,20 19,25 7,6 15,10 24,12 8,2 16,3 22,3l332 -1c45,0 85,0 119,-1 35,-1 64,-3 88,-6 24,-3 43,-8 57,-14 15,-7 24,-16 28,-27 2,-7 2,-16 -2,-26 -4,-10 -10,-22 -19,-34 -8,-12 -19,-26 -31,-40 -12,-14 -26,-29 -40,-45 -34,-36 -65,-66 -94,-92 -28,-26 -52,-47 -72,-64 -20,-16 -36,-29 -47,-37 -12,-8 -18,-12 -18,-12l10 -150 504 -225 56 128 -424 185c27,19 55,44 87,73 31,29 65,63 102,105 15,17 30,34 44,50 14,17 27,34 38,52 11,18 19,36 26,55 6,19 10,40 10,61 0,4 0,8 0,12 0,5 -1,8 -1,12 -7,42 -21,75 -43,99 -21,24 -50,42 -86,54 -35,12 -78,19 -127,22 -49,2 -104,4 -165,4l-333 0zm1235 0c-41,0 -77,-3 -106,-8 -30,-5 -54,-12 -75,-22 -20,-10 -36,-23 -48,-38 -12,-15 -21,-33 -28,-54 -6,-20 -10,-43 -12,-69 -2,-26 -3,-55 -3,-86l0 -530 139 0 0 530c0,30 1,54 3,72 2,17 8,31 16,41 9,10 22,17 40,20 18,3 42,5 74,5l0 139zm392 -470c0,3 2,9 5,18 2,10 5,22 8,36 3,14 6,29 9,47 3,17 6,34 9,51 2,18 5,35 7,51 1,16 2,31 2,43 0,38 -6,72 -19,100 -13,28 -29,51 -50,70 -20,18 -43,32 -69,40 -25,9 -51,14 -77,14l-241 0 0 -139 245 0c4,0 11,-1 19,-2 9,-2 17,-5 25,-11 9,-5 16,-14 23,-25 6,-12 9,-27 9,-47 0,-8 -1,-18 -2,-30 -1,-12 -3,-24 -5,-38 -2,-13 -5,-27 -8,-41 -2,-14 -5,-27 -8,-39 -2,-13 -5,-24 -8,-35 -2,-10 -4,-18 -6,-23l132 -40zm-390 654l95 -95 96 96 -96 95 -95 -96zm234 1l96 -95 95 96 -95 95 -96 -96zm-112 157l89 -89 89 90 -88 88 -90 -89z"/>
    <path class="fil19" d="M41977 83262c-1281,0 -2464,-502 -3404,-1341 -119,-107 -235,-220 -347,-337 -50,-53 -99,-107 -148,-162 -1003,-1139 -1626,-2711 -1626,-4440l0 -1767 0 -9442 0 -14312 0 -2120 0 -95 0 -35725 0 -420c0,-1729 623,-3301 1626,-4440 1001,-1135 2382,-1840 3899,-1840l5966 0 17441 0c1518,0 2899,705 3900,1840 1002,1139 1626,2711 1626,4440l0 2148 0 2389 0 20304 0 1843 0 37197c0,1729 -624,3301 -1626,4440 -1001,1135 -2382,1840 -3900,1840l-23017 0 -390 0zm29098 -6280l0 -37197 0 -1843 0 -20456 0 -2353 0 -2032c0,-1770 -639,-3380 -1668,-4548 -1032,-1169 -2456,-1897 -4023,-1897l-11877 0 -1233 0 -4725 0 -5572 0c-1566,0 -2991,728 -4022,1897 -1029,1168 -1668,2778 -1668,4548l0 461 0 35616 0 78 0 2102 0 14374 0 9494 0 1756c0,1770 639,3381 1668,4548 16,18 32,36 48,54 106,117 215,229 329,337 839,796 1883,1326 3025,1468 204,25 411,38 620,38l23407 0c1567,0 2991,-727 4023,-1897 1029,-1167 1668,-2778 1668,-4548z"/>
    <path class="fil13" d="M41977 82197c-1259,0 -2405,-585 -3235,-1528 -833,-945 -1351,-2251 -1351,-3687l0 -63881c0,-1436 518,-2742 1351,-3687 830,-942 1976,-1528 3235,-1528l23407 0c1259,0 2405,586 3236,1528 832,945 1351,2251 1351,3687l0 63881c0,1436 -519,2742 -1351,3687 -831,943 -1977,1528 -3236,1528l-23407 0zm-3358 -1420c861,978 2050,1585 3358,1585l23407 0c1308,0 2498,-607 3359,-1585 859,-974 1393,-2318 1393,-3795l0 -63881c0,-1477 -534,-2821 -1393,-3795 -861,-978 -2051,-1585 -3359,-1585l-23407 0c-1308,0 -2497,607 -3358,1585 -859,975 -1393,2318 -1393,3795l0 63881c0,1477 534,2821 1393,3795zm31830 -3795l0 -63881c0,-1574 -569,-3007 -1484,-4046 -918,-1041 -2186,-1688 -3581,-1688l-23407 0c-1394,0 -2662,647 -3580,1688 -915,1039 -1484,2472 -1484,4046l0 63881c0,1574 569,3008 1484,4046 918,1041 2186,1689 3580,1689l23407 0c1395,0 2663,-648 3581,-1689 915,-1038 1484,-2472 1484,-4046zm-165 -63881l0 63881c0,1534 -553,2929 -1442,3938 -888,1007 -2112,1632 -3458,1632l-23407 0c-1345,0 -2570,-625 -3456,-1632 -890,-1009 -1443,-2404 -1443,-3938l0 -63881c0,-1534 553,-2928 1443,-3938 886,-1007 2111,-1632 3456,-1632l23407 0c1346,0 2570,625 3457,1632 890,1010 1443,2404 1443,3938l0 0z"/>
   </g>
   <path class="fil30" d="M36287 49256c-507,-253 -1029,-474 -1565,-660l0 8496 0 13042 0 7164c0,181 6,361 17,541 83,1320 468,2611 1138,3745 249,420 537,818 863,1188 61,69 123,137 186,204 150,157 305,307 467,451l3013 0c320,0 637,-13 951,-38 -1142,-142 -2186,-672 -3025,-1468 -114,-108 -223,-220 -329,-337l-48 -54c-898,-1019 -1499,-2375 -1637,-3880 -21,-220 -31,-442 -31,-668l0 -1756 0 -5057 0 -16085 0 -2929 0 -1899z"/>
  </g>
 </g>
</svg>
