<?xml version="1.0" encoding="UTF-8"?>
<!DOCTYPE svg PUBLIC "-//W3C//DTD SVG 1.1//EN" "http://www.w3.org/Graphics/SVG/1.1/DTD/svg11.dtd">
<!-- Creator: CorelDRAW X7 -->
<svg xmlns="http://www.w3.org/2000/svg" xml:space="preserve" width="3.41102in" height="1.07992in" version="1.1" style="shape-rendering:geometricPrecision; text-rendering:geometricPrecision; image-rendering:optimizeQuality; fill-rule:evenodd; clip-rule:evenodd"
viewBox="0 0 34110 10799"
 xmlns:xlink="http://www.w3.org/1999/xlink">
 <defs>
  <style type="text/css">
   <![CDATA[
    .fil0 {fill:#D2AE6D}
    .fil3 {fill:#F2ECE1}
    .fil1 {fill:white}
    .fil2 {fill:#D2AE6D;fill-rule:nonzero}
   ]]>
  </style>
 </defs>
 <g id="Layer_x0020_1">
  <metadata id="CorelCorpID_0Corel-Layer"/>
  <g id="_2596466010480">
   <rect class="fil0" width="34110" height="10799" rx="3308" ry="5400"/>
   <rect class="fil1" x="239" y="239" width="33632" height="10321" rx="5161" ry="5161"/>
   <path class="fil0" d="M28866 9218c1020,0 1979,-398 2701,-1119 721,-721 1118,-1680 1118,-2699 0,-1020 -397,-1979 -1118,-2700 -722,-722 -1681,-1119 -2701,-1119 -1020,0 -1978,397 -2700,1119 -721,721 -1118,1680 -1118,2700 0,1019 397,1978 1118,2699 722,721 1680,1119 2700,1119zm-119 -5608l239 0 0 477 -239 0 0 -477zm0 954l239 0 0 2626 -239 0 0 -2626zm-2412 -1696c676,-676 1576,-1048 2531,-1048 956,0 1856,372 2531,1048 677,677 1049,1575 1049,2532 0,956 -372,1854 -1049,2531 -675,676 -1575,1049 -2531,1049 -955,0 -1855,-373 -2531,-1049 -676,-677 -1048,-1575 -1048,-2531 0,-957 372,-1855 1048,-2532z"/>
   <path class="fil2" d="M3724 6146c-39,0 -76,-2 -114,-6 -37,-4 -75,-10 -114,-17 -38,-7 -77,-16 -117,-26 -41,-11 -83,-23 -128,-36l-180 -54 109 -364c88,30 179,57 274,80 94,24 183,39 266,46 84,7 156,3 217,-10 61,-14 102,-43 123,-87 8,-14 8,-32 3,-53 -6,-22 -17,-44 -33,-67l-565 -824 318 -206 103 159c0,1 2,4 5,9 4,5 11,16 22,32 10,16 25,39 45,69 20,30 46,68 78,117 33,49 72,108 119,180 47,71 103,156 169,255 51,78 83,158 95,241 11,83 1,162 -32,236 -17,41 -40,78 -68,112 -29,34 -63,64 -101,90 -72,49 -158,83 -259,101 -85,15 -163,23 -235,23zm988 -3l0 -377 650 0c117,0 212,-10 283,-30 72,-20 127,-52 167,-98 39,-45 65,-105 79,-180 13,-75 19,-167 19,-277l0 -1222 376 0 0 1258 0 311c0,35 6,68 17,96 11,30 26,55 46,77 20,21 43,37 71,48 28,12 59,18 92,18l77 0 0 377 -77 0c-100,0 -187,-18 -261,-56 -74,-39 -139,-92 -195,-162 -75,70 -170,123 -284,161 -113,37 -251,56 -410,56l-650 0zm174 -626l-99 -1498 375 -45 100 1543 -376 0zm1641 627l0 -377 887 0c16,0 38,-1 66,-2 29,-2 56,-6 84,-12 27,-7 50,-16 70,-29 20,-13 30,-30 30,-52 0,-44 -17,-96 -50,-158 -33,-62 -75,-127 -126,-197 -52,-70 -109,-140 -174,-211 -64,-72 -128,-139 -190,-202 -64,-63 -123,-118 -179,-167 -55,-49 -100,-85 -133,-109l30 -342 1319 -604 138 331 -1110 489c39,37 82,80 130,127 48,48 97,98 148,151 50,53 100,108 150,165 50,57 97,114 142,171 43,57 82,113 117,168 34,54 61,106 80,154 17,43 29,84 36,123 8,40 11,75 11,108 0,40 -4,75 -11,105 -8,31 -16,57 -25,78 -12,27 -31,58 -56,92 -26,35 -61,67 -106,96 -45,29 -101,54 -169,74 -69,20 -151,30 -248,30l-861 0zm5920 -1047l0 444c0,36 5,66 16,91 11,24 24,45 41,62 17,17 35,29 55,39 21,10 40,17 60,22 18,5 36,8 50,10 15,1 26,2 33,2l94 0 0 377 -94 0c-35,0 -71,-2 -110,-6 -39,-5 -78,-12 -117,-23 -39,-11 -76,-25 -113,-43 -36,-19 -68,-41 -97,-67 -110,92 -259,138 -448,139l-1748 0c-75,0 -146,-12 -213,-37 -66,-26 -126,-63 -177,-111 -20,-19 -41,-43 -63,-70 -22,-27 -41,-59 -59,-97 -16,-37 -31,-80 -42,-126 -11,-47 -16,-100 -16,-159 0,-50 5,-105 15,-164 10,-59 21,-115 34,-167 12,-53 24,-99 36,-137 11,-38 18,-62 21,-71l180 58 179 56c-9,27 -19,59 -29,97 -10,38 -20,77 -29,118 -9,40 -16,79 -22,117 -7,37 -10,69 -10,96 0,49 7,88 21,118 14,29 30,52 50,68 20,16 41,26 64,31 23,5 44,8 62,8l1735 0c56,0 103,-6 143,-16 39,-11 68,-26 87,-47 24,-26 35,-63 35,-113l0 -499 376 0zm-2024 1542l258 -257 258 260 -258 258 -258 -261zm632 3l261 -258 257 262 -257 257 -261 -261zm-301 425l239 -240 242 242 -239 240 -242 -242zm3102 -2195c2,7 6,24 13,50 6,26 14,58 22,96 8,38 16,80 25,126 9,47 16,94 24,140 7,48 14,93 19,138 4,44 6,83 6,116 0,104 -17,195 -51,271 -35,76 -80,139 -135,188 -56,50 -118,87 -187,111 -70,24 -139,36 -208,36l-654 0 0 -377 664 0c12,0 30,-1 52,-5 23,-4 46,-13 68,-28 23,-15 43,-38 60,-69 17,-31 26,-73 26,-127 0,-22 -2,-49 -5,-81 -4,-31 -9,-66 -15,-102 -6,-36 -13,-73 -20,-111 -8,-38 -15,-74 -22,-108 -7,-34 -14,-64 -21,-92 -7,-28 -13,-50 -17,-65l356 -107zm-184 2098l-255 -257 252 -261 260 261 -257 257zm-635 2l-255 -258 250 -261 261 261 -256 258zm2868 -828l-123 0c-135,0 -263,-58 -385,-177 -33,40 -73,72 -119,98 -46,26 -95,46 -148,61 -52,15 -105,26 -160,32 -54,6 -105,9 -155,9 -38,0 -77,-2 -116,-6 -40,-5 -84,-13 -134,-23 -50,-11 -108,-25 -173,-43 -64,-18 -141,-40 -231,-67l109 -362c61,24 125,45 191,64 65,19 129,34 192,46 63,11 123,18 181,22 57,4 108,3 154,-4 46,-6 84,-17 116,-33 32,-17 53,-40 64,-68 5,-12 8,-23 8,-32 0,-10 -3,-22 -9,-35 -5,-13 -14,-29 -26,-48 -12,-18 -28,-42 -47,-73l-538 -756 318 -205 541 820c30,44 60,90 92,138 33,47 65,91 98,130 32,39 63,70 94,96 30,25 57,38 83,38l123 0 0 378zm792 -1272c2,7 7,24 13,50 6,26 14,58 22,96 8,38 17,80 25,126 9,47 17,94 24,140 8,48 14,93 19,138 4,44 6,83 6,116 0,104 -17,195 -51,271 -35,76 -80,139 -135,188 -56,50 -118,87 -187,111 -69,24 -139,36 -208,36l-404 0 0 -377 414 0c12,0 30,-1 52,-5 23,-4 46,-13 68,-28 23,-15 43,-38 60,-69 17,-31 26,-73 26,-127 0,-22 -2,-49 -5,-81 -4,-31 -9,-66 -15,-102 -6,-36 -12,-73 -20,-111 -7,-38 -15,-74 -22,-108 -7,-34 -14,-64 -21,-92 -7,-28 -13,-50 -17,-65l356 -107zm-641 -608l273 -276 279 279 -276 276 -276 -279zm2134 1880l-58 0c-42,0 -81,-2 -117,-7 -38,-5 -74,-19 -109,-43 -12,130 -42,249 -89,355 -48,106 -111,197 -191,272 -79,75 -174,133 -284,175 -110,41 -233,62 -371,62l-189 0 0 -377 189 0c97,0 181,-10 252,-30 71,-21 128,-53 174,-98 45,-44 79,-102 102,-173 22,-71 33,-158 33,-260l0 -923 377 0 0 454c0,46 10,83 30,112 20,28 42,50 68,65 25,16 50,26 75,31 24,5 41,8 50,8l58 0 0 377zm922 -3c-185,0 -331,-48 -439,-144 -56,52 -117,89 -185,112 -68,24 -137,35 -209,35l-341 0 0 -377 341 0c12,0 30,-2 52,-6 23,-4 46,-14 69,-29 22,-16 42,-39 59,-70 17,-31 26,-74 26,-128l0 -6 0 -431 377 0 0 431c0,83 20,143 59,181 39,38 103,57 191,57 13,0 30,-3 53,-7 22,-5 45,-15 68,-31 23,-16 42,-40 59,-72 18,-32 27,-75 27,-128l0 -431 375 0 0 431c0,83 20,144 60,183 40,38 105,58 195,58 13,0 31,-3 53,-8 23,-6 45,-17 68,-34 22,-16 41,-41 57,-72 17,-31 25,-74 25,-127 0,-22 -2,-49 -6,-81 -3,-31 -7,-64 -13,-99 -6,-35 -12,-70 -19,-106 -7,-36 -14,-70 -22,-102 -6,-32 -13,-62 -20,-88 -6,-26 -12,-47 -16,-62l356 -117c2,7 7,24 13,49 6,25 13,56 21,94 9,37 18,78 27,124 9,46 17,91 25,137 8,46 14,91 19,135 5,44 8,82 8,116 0,103 -18,193 -51,270 -34,78 -78,141 -133,193 -55,51 -116,89 -185,114 -69,25 -137,38 -207,39 -188,0 -337,-49 -446,-148 -56,51 -117,88 -184,111 -67,23 -136,34 -207,34z"/>
   <rect class="fil3" x="22775" y="1563" width="313" height="7674"/>
   <rect class="fil0" x="22618" y="1563" width="156" height="7674"/>
  </g>
 </g>
</svg>
