<?xml version="1.0" encoding="UTF-8"?>
<!DOCTYPE svg PUBLIC "-//W3C//DTD SVG 1.1//EN" "http://www.w3.org/Graphics/SVG/1.1/DTD/svg11.dtd">
<!-- Creator: CorelDRAW X7 -->
<svg xmlns="http://www.w3.org/2000/svg" xml:space="preserve" width="27.1654in" height="11.7226in" version="1.1" style="shape-rendering:geometricPrecision; text-rendering:geometricPrecision; image-rendering:optimizeQuality; fill-rule:evenodd; clip-rule:evenodd"
viewBox="0 0 271654 117226"
 xmlns:xlink="http://www.w3.org/1999/xlink">
 <defs>
  <style type="text/css">
   <![CDATA[
    .fil6 {fill:#DBBE8A}
    .fil4 {fill:#E5D0AA}
    .fil1 {fill:#E5D3B2}
    .fil8 {fill:#EAD9BB}
    .fil3 {fill:#ECDDC2}
    .fil2 {fill:#F3E9D7}
    .fil0 {fill:#FBF7F0}
    .fil10 {fill:#75613D;fill-rule:nonzero}
    .fil9 {fill:#A38755;fill-rule:nonzero}
    .fil14 {fill:#BB9B61;fill-rule:nonzero}
    .fil11 {fill:#D2AE6D;fill-rule:nonzero}
    .fil13 {fill:#DCC08D;fill-rule:nonzero}
    .fil12 {fill:#E6D2AE;fill-rule:nonzero}
    .fil5 {fill:#E9DCC5;fill-rule:nonzero}
    .fil7 {fill:white;fill-rule:nonzero}
   ]]>
  </style>
 </defs>
 <g id="Layer_x0020_1">
  <metadata id="CorelCorpID_0Corel-Layer"/>
  <g id="_2596521409888">
   <rect class="fil0" width="271654" height="117226"/>
   <path class="fil1" d="M138807 76067c1031,33 1856,879 1862,1926l17 0c8,-1047 834,-1893 1861,-1926 -1033,-34 -1861,-888 -1861,-1940l-14 0c0,1052 -829,1906 -1865,1940z"/>
   <path class="fil1" d="M186866 39811c1408,-662 3098,-91 3824,1312l23 -11c-707,-1414 -177,-3117 1182,-3867 -1412,664 -3112,84 -3834,-1331l-19 9c722,1416 193,3132 -1176,3888z"/>
   <path class="fil2" d="M271654 101016c-30299,10975 -52637,4311 -61970,-1405 -8149,-4990 -13653,-11459 -16242,-18316 -6166,-16334 2394,-28618 14212,-32598 19978,-6728 45251,22796 64000,-1062l0 53381z"/>
   <path class="fil3" d="M223110 117226c211,-991 381,-1996 509,-3013 1185,-9404 -1364,-18708 -7176,-26190 -5816,-7489 -14197,-12259 -23603,-13441 -9407,-1183 -18711,1366 -26196,7180 -7489,5816 -12259,14197 -13442,23604 -505,4017 -329,8014 491,11860l2274 0c-858,-3748 -1060,-7658 -567,-11587 1111,-8813 5588,-16674 12605,-22124 7017,-5449 15742,-7842 24553,-6734 8822,1109 16680,5583 22132,12603 5450,7017 7837,15736 6728,24558 -139,1110 -332,2206 -577,3284l2269 0zm-47135 -21643l1753 -1362 4079 5253 -1753 1362 -4079 -5253zm6800 8756l1754 -1361 11065 14248 -2811 0 -10008 -12887z"/>
   <path class="fil4" d="M248043 61175l-23251 4885 2349 11176 -4815 3318 4291 20424 33809 -7104 -4292 -20424 -5743 -1099 -2348 -11176 0 0zm-6560 9431l0 0c0,0 0,0 0,0zm-6618 42c-372,371 -679,768 -930,1251 -59,91 -110,219 -165,328 -173,388 -319,810 -423,1242 -194,940 -211,1882 -14,2818 31,150 81,295 113,445 198,662 481,1267 873,1830 380,507 883,948 1479,1272 442,240 909,416 1439,519 202,36 405,71 623,84 777,71 1587,19 2448,-162 936,-197 1714,-497 2318,-878 604,-381 1114,-840 1495,-1350 396,-533 647,-1016 766,-1471l-1048 220c-235,558 -669,1099 -1272,1577 -421,323 -932,587 -1534,792 -273,96 -587,182 -924,252 -936,197 -1829,228 -2686,57 -387,-75 -745,-196 -1073,-361 -392,-192 -739,-451 -1043,-778 -557,-606 -932,-1368 -1133,-2323 -189,-898 -160,-1784 83,-2675 149,-501 351,-934 636,-1346 211,-298 445,-582 723,-836 562,-490 1212,-841 1949,-1055 131,-27 276,-77 408,-105 805,-169 1570,-154 2296,45 459,139 870,326 1214,566 0,0 0,0 0,0 0,0 18,-4 18,-4 189,156 375,293 530,476 455,490 731,1058 868,1713 0,0 0,0 4,19 114,543 93,1094 -44,1651 -152,579 -421,1066 -784,1475 -49,49 -97,98 -131,125 -226,223 -431,364 -600,399 -112,24 -232,10 -323,-49 -90,-59 -147,-145 -171,-257 -12,-56 -19,-368 -20,-934l16 -3737 8 -334 -300 63 -730 153 -17 942c-299,-308 -616,-515 -955,-640 -354,-101 -692,-128 -1029,-57 -430,90 -867,338 -1268,755 -405,398 -700,949 -888,1633 -170,681 -209,1334 -79,1952 106,505 313,931 587,1303 296,388 621,632 1001,767 362,139 719,162 1074,87 300,-63 602,-204 881,-458 264,-232 494,-534 697,-870 66,221 139,381 219,482 106,134 242,223 426,262 188,58 402,52 683,-7 0,0 18,-4 37,-7 726,-173 1352,-636 1859,-1388 59,-90 99,-177 159,-268 605,-1026 790,-2101 553,-3224 -165,-786 -505,-1477 -1021,-2072 -54,-67 -103,-116 -175,-179 -572,-583 -1240,-971 -2007,-1181 -707,-203 -1477,-237 -2275,-128 -131,28 -285,41 -434,72 -1236,260 -2225,761 -2987,1507l0 0zm2459 6305c-325,-244 -543,-628 -653,-1153 -71,-337 -75,-727 -45,-1143 48,-421 146,-793 293,-1117 147,-325 310,-574 507,-752 182,-156 410,-282 653,-333 374,-78 724,4 1049,249 321,226 539,610 649,1134 83,393 90,802 42,1223 -67,424 -165,797 -339,1087 -169,310 -354,544 -570,726 -216,182 -429,286 -635,329 -337,71 -645,-1 -951,-250l0 0zm9891 -14510l3300 15707 -9185 8849 -11950 -4408 -3301 -15707 21136 -4441zm-19040 19717l-4089 -1506 3294 -2276 795 3782 0 0zm-730 17550l-3796 -18065 17945 6608 13767 -13272 3796 18065 -31712 6664 0 0zm27118 -25460l-3137 3024 -795 -3781 3932 757 0 0z"/>
   <path class="fil5" d="M155735 47706c1406,733 2386,1969 2830,3376 443,1408 351,2984 -384,4395 -605,1160 -1549,2025 -2646,2542 -1130,532 -2417,694 -3666,428l-307 -62 -143 275 -520 998 -2191 -1142 521 -998 143 -275 -227 -216c-933,-871 -1538,-2019 -1749,-3250 -204,-1196 -36,-2465 568,-3625 735,-1410 1975,-2388 3383,-2831 1404,-446 2978,-350 4388,385l0 0zm-11955 8463l-250 -783 1961 -618 244 785 -1955 616 0 0zm12646 5938l-780 246 -620 -1957 787 -248 613 1959 0 0zm5592 -5098l-381 732 -1819 -948 381 -732 1819 948zm349 -7553l244 785 -1955 616 -250 -783 1961 -618 0 0zm-5094 -5589l728 379 -950 1823 -728 -379 950 -1823zm-7559 -347l787 -248 613 1959 -780 246 -620 -1957 0 0zm15823 5523c1057,3357 742,6919 -884,10039 -1626,3120 -4367,5422 -7724,6478 -3355,1053 -6919,742 -10037,-888 -3120,-1626 -5418,-4365 -6474,-7722 -1059,-3353 -742,-6919 884,-10039 1622,-3122 4365,-5418 7718,-6477 3357,-1056 6923,-740 10043,887 3120,1626 5418,4365 6474,7722zm-23508 -1753c-1525,2926 -1817,6269 -830,9414 992,3144 3147,5716 6073,7241 2926,1525 6268,1817 9409,828 3148,-990 5720,-3145 7245,-6071 1519,-2924 1818,-6268 825,-9411 -987,-3146 -3145,-5720 -6067,-7243 -2926,-1525 -6269,-1817 -9416,-827 -3142,989 -5714,3143 -7239,6069zm14179 4538c-263,-836 -839,-1527 -1615,-1931l381 -732c970,506 1692,1370 2021,2415 325,1043 230,2161 -277,3135l-728 -379c407,-780 481,-1672 218,-2508l0 0zm-9879 -2996l-1819 -947 -381 731 1819 948 381 -732zm4191 11553l-725 1391 -2191 -1142 725 -1390 2191 1141zm8831 -9550c-509,-1607 -1627,-3022 -3235,-3860 -1608,-839 -3413,-946 -5017,-441 -1611,507 -3026,1624 -3867,3237 -688,1321 -882,2778 -646,4150 223,1298 834,2521 1770,3486l-1675 3213 -189 364 367 192 2918 1520 364 190 190 -364 1674 -3213c1332,217 2684,17 3876,-544 1260,-592 2342,-1585 3031,-2907 841,-1612 946,-3413 439,-5023l0 0z"/>
   <path class="fil6" d="M269781 75035c632,0 1256,32 1873,93l0 37227c-617,61 -1241,93 -1873,93 -10332,0 -18707,-8375 -18707,-18706 0,-10332 8375,-18707 18707,-18707z"/>
   <path class="fil7" d="M254686 93634c0,42 5,86 15,132 10,44 29,85 56,121 28,36 65,66 111,90 46,25 105,37 177,37 45,0 91,-2 136,-5 47,-4 94,-14 143,-30l0 -710 -257 0c-126,0 -222,33 -286,100 -63,67 -95,155 -95,265zm1433 1336c-82,0 -161,-6 -239,-18 -77,-11 -148,-32 -213,-63 -65,-31 -122,-74 -171,-127 -50,-54 -88,-123 -115,-208 -58,13 -118,24 -181,33 -61,10 -123,14 -185,14 -85,0 -185,-13 -298,-39 -113,-25 -220,-73 -321,-142 -101,-68 -187,-164 -257,-286 -70,-122 -106,-278 -106,-469 0,-189 34,-348 101,-479 66,-129 152,-235 257,-318 105,-83 221,-142 349,-178 128,-36 254,-54 378,-54l873 0 0 1538c0,79 10,133 32,161 20,29 68,43 144,43l123 0c27,0 52,3 76,9 24,6 46,18 65,36 20,19 35,46 45,84 9,37 14,89 14,155 0,116 -16,198 -48,241 -33,45 -83,67 -152,67l-171 0zm2134 -956c0,-52 -6,-104 -17,-154 -12,-52 -31,-97 -57,-136 -26,-39 -61,-72 -104,-98 -42,-26 -94,-39 -156,-39 -45,0 -92,12 -139,34 -48,23 -94,60 -138,110 -45,52 -87,118 -126,200 -39,82 -72,185 -99,308 85,53 167,95 244,127 76,34 159,50 248,50 111,0 196,-37 255,-111 59,-73 89,-171 89,-291zm-1697 364c42,0 93,-34 153,-102 61,-67 114,-167 161,-297 75,-196 158,-358 247,-488 90,-128 181,-231 276,-308 95,-77 190,-131 285,-162 95,-31 190,-46 283,-46 134,0 259,26 376,78 116,51 216,123 300,216 84,91 149,203 197,333 48,131 72,273 72,427 0,308 -76,552 -227,733 -150,181 -379,271 -688,271 -137,0 -275,-21 -413,-63 -139,-42 -286,-112 -440,-211 -88,99 -179,159 -272,179 -93,22 -194,32 -303,32l-273 0c-27,0 -52,-2 -76,-8 -25,-5 -47,-17 -66,-36 -19,-19 -34,-48 -44,-85 -10,-38 -14,-89 -14,-154 0,-118 16,-198 48,-243 33,-44 83,-66 152,-66l266 0zm4126 284c0,116 -16,198 -48,241 -33,45 -84,67 -152,67l-216 0c-117,0 -224,-13 -321,-38 -97,-27 -181,-70 -251,-129 -70,-59 -125,-139 -165,-238 -39,-99 -59,-223 -59,-370l0 -2894 668 0 0 2800c0,121 22,197 64,229 43,32 103,48 182,48l98 0c27,0 52,3 76,9 25,6 46,18 66,36 19,19 34,46 44,84 10,37 14,89 14,155zm339 -2626c0,-99 36,-184 108,-257 72,-73 158,-110 259,-110 98,0 184,36 256,108 72,72 108,159 108,259 0,98 -36,184 -108,256 -72,72 -158,108 -256,108 -99,0 -185,-36 -258,-108 -72,-72 -109,-158 -109,-256zm48 2342l0 -1454 673 0 0 2046 -1265 0c-27,0 -52,-2 -76,-8 -25,-5 -47,-17 -66,-36 -19,-19 -34,-48 -44,-85 -10,-38 -15,-89 -15,-154 0,-118 17,-198 49,-243 33,-44 83,-66 152,-66l592 0zm2686 592c-46,0 -107,-10 -186,-32 -79,-20 -148,-65 -206,-133 -3,232 -31,426 -81,583 -52,156 -129,283 -232,379 -102,96 -233,165 -389,205 -158,42 -347,64 -568,67l0 -627c141,-3 252,-20 335,-50 83,-29 145,-71 186,-130 41,-57 67,-132 79,-223 12,-91 17,-201 17,-328l0 -1531 663 0 0 874c0,134 41,226 122,277 81,51 168,77 260,77 26,0 52,3 76,9 25,6 46,18 66,36 19,19 33,46 44,84 10,37 14,89 14,155 0,116 -16,198 -49,241 -32,45 -83,67 -151,67zm-3 0c-27,0 -52,-2 -76,-8 -25,-5 -46,-17 -66,-36 -19,-19 -34,-48 -44,-85 -10,-38 -14,-89 -14,-154 0,-118 16,-198 48,-243 33,-44 84,-66 152,-66l761 0c26,0 52,3 76,9 24,6 46,18 65,36 20,19 34,46 45,84 9,37 14,89 14,155 0,116 -16,198 -49,241 -32,45 -83,67 -151,67l-761 0zm1074 -592c118,0 199,-18 245,-54 47,-36 69,-117 69,-242l0 -1158 668 0 0 1100c0,127 24,218 71,272 48,55 154,82 321,82 26,0 52,3 76,9 24,6 45,18 64,36 18,19 33,46 44,84 11,37 16,89 16,155 0,116 -16,198 -49,241 -32,45 -83,67 -151,67 -99,0 -195,-16 -288,-49 -93,-32 -170,-103 -232,-212 -42,59 -92,105 -149,140 -58,35 -120,62 -185,80 -66,17 -133,28 -204,33 -70,6 -139,8 -208,8l-421 0c-27,0 -52,-2 -76,-8 -25,-5 -47,-17 -66,-36 -19,-19 -34,-48 -44,-85 -10,-38 -15,-89 -15,-154 0,-118 17,-198 49,-243 33,-44 83,-66 152,-66l313 0zm282 1440c0,-98 36,-184 108,-256 72,-72 158,-108 259,-108 98,0 183,36 255,108 72,72 108,158 108,256 0,99 -36,184 -108,256 -72,72 -157,108 -255,108 -99,0 -185,-36 -258,-108 -73,-72 -109,-157 -109,-256zm2928 -1440c-9,-138 -31,-264 -65,-378 -35,-114 -87,-213 -157,-295 -71,-82 -160,-146 -270,-192 -110,-46 -247,-69 -411,-69 -55,0 -142,8 -259,23 -118,15 -237,40 -358,75l0 -597c79,-28 186,-56 321,-87 135,-31 275,-47 419,-47 268,0 493,46 677,139 183,92 331,215 444,370 113,154 194,333 244,537 49,203 73,415 73,636l0 477 -2497 0c-26,0 -52,-2 -76,-8 -25,-5 -46,-17 -66,-36 -19,-19 -34,-48 -44,-85 -10,-38 -14,-89 -14,-154 0,-118 16,-198 48,-243 33,-44 84,-66 152,-66l1839 0zm-1213 -2342c0,-99 36,-184 108,-257 72,-73 159,-110 259,-110 99,0 184,36 256,108 72,72 108,159 108,259 0,98 -36,184 -108,256 -72,72 -157,108 -256,108 -99,0 -184,-36 -257,-108 -73,-72 -110,-158 -110,-256z"/>
   <path class="fil8" d="M213183 18223l-1575 2515 837 525 1576 -2515 -838 -525zm-626 -10278l2484 7910 11972 7498 -10047 16042 -23645 -14808 10047 -16042 6330 3964 2859 -4564zm-3172 3201l-6330 -3964 -11106 17733 25321 15858 11106 -17733 -12511 -7836 -2994 -9625 -3486 5567zm2001 11808l-837 -525 -4236 6763 838 525 4235 -6763z"/>
   <path class="fil1" d="M250304 46964c8523,0 16165,-3770 21350,-9733l0 -37095c-40,-45 -80,-91 -120,-136l-42460 0c-4388,4983 -7050,11522 -7050,18684 0,15618 12661,28280 28280,28280zm5339 -14944l-21341 0 0 -5331 21341 0 0 5331zm5332 -10671l-26673 0 0 -5339 32012 0 0 16010 -5339 0 0 -10671zm0 -10671l-26673 0 0 -5339 32012 0 -5339 5339z"/>
   <path class="fil0" d="M205178 63658c3183,1269 4810,4846 3645,8126l52 19c1210,-3264 4747,-4975 7998,-3919 -3192,-1272 -4819,-4879 -3629,-8170l-44 -16c-1189,3291 -4745,5025 -8022,3960z"/>
   <g>
    <polygon class="fil9" points="201174,117226 191433,117226 191433,55536 201174,55536 "/>
    <polygon class="fil10" points="201174,75244 191433,76802 191433,54886 201174,54886 "/>
    <path class="fil11" d="M221514 72291l0 -29190c0,-14025 -11285,-25395 -25205,-25395l-11 0c-13921,0 -25206,11370 -25206,25395l0 29190 50422 0z"/>
    <g>
     <path class="fil12" d="M176905 42832c0,-5418 2166,-10331 5677,-13887 3505,-3550 8348,-5748 13716,-5748 5372,0 10218,2197 13724,5746 3513,3557 5679,8471 5679,13889l0 24011 -38796 0 0 -24011zm1187 0l0 22824 36422 0 0 -22824c0,-5097 -2035,-9717 -5336,-13059 -3288,-3328 -7835,-5389 -12880,-5389 -5040,0 -9585,2061 -12872,5391 -3299,3341 -5334,7961 -5334,13057z"/>
     <path class="fil13" d="M178175 65572l0 -22898c0,-10143 8048,-18396 18122,-18396 10082,0 18134,8253 18134,18396l0 22898 -36256 0z"/>
     <path class="fil10" d="M198451 33463c0,-1172 -943,-2122 -2106,-2122 -1163,0 -2106,950 -2106,2122 0,690 328,1906 835,2293l-363 3167 3251 0 -361 -3154c514,-388 850,-1609 850,-2306z"/>
     <polygon class="fil14" points="178276,48535 214294,48535 214294,46332 178276,46332 "/>
     <polygon class="fil11" points="214432,65584 178278,65584 178278,51639 214432,51639 "/>
     <path class="fil9" d="M209462 61615l-25747 0c-909,0 -1653,-744 -1653,-1652l0 -3167c0,-909 744,-1652 1653,-1652l25747 0c908,0 1652,743 1652,1652l0 3167c0,908 -744,1652 -1652,1652z"/>
     <path class="fil9" d="M177879 42674c0,-5162 2052,-9843 5389,-13229 3324,-3374 7921,-5463 13029,-5463 5113,0 9713,2089 13039,5463 3338,3386 5392,8067 5392,13229l0 23196 -36849 0 0 -23196zm593 0l0 22603 35663 0 0 -22603c0,-5002 -1989,-9536 -5221,-12814 -3218,-3264 -7669,-5285 -12617,-5285 -4944,0 -9392,2021 -12607,5285 -3230,3279 -5218,7812 -5218,12814z"/>
    </g>
   </g>
   <path class="fil1" d="M181193 12338c1593,52 2869,1359 2878,2978l26 0c13,-1619 1290,-2926 2878,-2978 -1597,-52 -2878,-1372 -2878,-2999l-22 0c0,1627 -1281,2947 -2882,2999z"/>
   <path class="fil1" d="M232059 109223c3066,100 5525,2617 5541,5733l50 0c25,-3116 2483,-5633 5541,-5733 -3074,-100 -5541,-2641 -5541,-5775l-41 0c0,3134 -2467,5675 -5550,5775z"/>
  </g>
 </g>
</svg>
