<?xml version="1.0" encoding="UTF-8"?>
<!DOCTYPE svg PUBLIC "-//W3C//DTD SVG 1.1//EN" "http://www.w3.org/Graphics/SVG/1.1/DTD/svg11.dtd">
<!-- Creator: CorelDRAW X7 -->
<svg xmlns="http://www.w3.org/2000/svg" xml:space="preserve" width="6.06772in" height="15.495in" version="1.1" style="shape-rendering:geometricPrecision; text-rendering:geometricPrecision; image-rendering:optimizeQuality; fill-rule:evenodd; clip-rule:evenodd"
viewBox="0 0 60677 154950"
 xmlns:xlink="http://www.w3.org/1999/xlink">
 <defs>
  <style type="text/css">
   <![CDATA[
    .fil11 {fill:#7C94CA}
    .fil10 {fill:#9DAFD7}
    .fil5 {fill:#C4CFE9}
    .fil9 {fill:#5A6786;fill-rule:nonzero}
    .fil6 {fill:#5E6D8F;fill-rule:nonzero}
    .fil4 {fill:#657AA9;fill-rule:nonzero}
    .fil0 {fill:#7C94CA;fill-rule:nonzero}
    .fil3 {fill:#9DAFD7;fill-rule:nonzero}
    .fil8 {fill:#B4C2E2;fill-rule:nonzero}
    .fil7 {fill:#B7C4E3;fill-rule:nonzero}
    .fil1 {fill:#C4CFE9;fill-rule:nonzero}
    .fil2 {fill:white;fill-rule:nonzero}
   ]]>
  </style>
 </defs>
 <g id="Layer_x0020_1">
  <metadata id="CorelCorpID_0Corel-Layer"/>
  <g id="_2596526598496">
   <g>
    <path class="fil0" d="M30372 126083c0,0 359,-1174 458,-2190 100,-1015 578,-2509 817,-3166 239,-657 1613,-2569 1871,-3664l-1652 -5456 -4301 11948c0,0 1433,776 1991,1314 557,537 816,1214 816,1214z"/>
    <path class="fil0" d="M23338 128821c0,0 -1392,39 -2225,-895 -1289,-1445 -1996,-4245 0,-5571l5396 1757 -3171 4709z"/>
    <path class="fil1" d="M38548 104687c0,2495 -2022,4517 -4517,4517 -2495,0 -4517,-2022 -4517,-4517 0,-2495 2022,-4517 4517,-4517 2495,0 4517,2022 4517,4517z"/>
    <path class="fil2" d="M36132 108687c1436,-756 2416,-2264 2416,-4000 0,-1298 -547,-2468 -1424,-3292 0,0 1505,2035 1074,3960 -458,2043 -2066,3332 -2066,3332z"/>
    <path class="fil3" d="M36236 103085c0,0 558,-349 1106,-916 547,-568 487,-866 468,-986 -20,-119 -1703,-1443 -2758,-1832 -1056,-388 -3156,-667 -4620,379 -1463,1045 -1882,3166 -2001,3927 0,0 1777,583 3390,1658 1613,1075 2912,2748 2912,2748l329 -642 134 -2763 1040 -1573z"/>
    <path class="fil2" d="M30432 99730c1464,-1046 3564,-767 4620,-379 1055,389 2738,1713 2758,1832 20,120 79,418 -468,986 0,0 385,-534 94,-994 -291,-460 -2804,-2341 -4978,-2088 -1808,211 -2026,643 -2026,643z"/>
    <path class="fil1" d="M35117 104634l198 -1665 -95 -465c-575,178 -992,714 -992,1347 0,430 192,814 494,1073l395 -290z"/>
    <path class="fil4" d="M36580 103851c0,520 -421,941 -941,941 -519,0 -941,-421 -941,-941 0,-519 422,-940 941,-940 520,0 941,421 941,940z"/>
    <path class="fil0" d="M36266 103851c0,347 -280,628 -627,628 -346,0 -627,-281 -627,-628 0,-346 281,-627 627,-627 347,0 627,281 627,627z"/>
    <path class="fil4" d="M34482 105275c-414,-336 -677,-849 -677,-1424 0,-789 498,-1462 1198,-1721l216 374c-574,178 -991,714 -991,1347 0,430 192,814 494,1073l-240 351z"/>
    <path class="fil5" d="M33387 99713c-53,274 -313,453 -582,401 -269,-52 -444,-316 -391,-589 53,-273 314,-453 582,-400 269,52 444,315 391,588zm-429 2c24,-17 41,-43 48,-75 6,-32 -1,-65 -17,-89 -15,-23 -38,-39 -66,-45 -29,-5 -57,1 -78,16 -24,17 -43,44 -49,75l0 2c-6,33 1,64 17,89 15,22 37,39 64,44 29,5 58,-2 81,-17z"/>
    <path class="fil0" d="M27669 104703l762 -1046c0,0 5107,1618 7034,5287 0,0 -5660,-2793 -7796,-4241z"/>
    <path class="fil3" d="M28595 105285c0,0 2808,702 4047,1538 1240,837 2942,2121 3107,2464 164,344 164,583 164,583l-2395 -363 -1214 -1424 -4217 -1304 508 -1494z"/>
    <polygon class="fil0" points="26818,106420 27550,104658 28102,104867 27415,106569 "/>
    <polygon class="fil1" points="28102,104867 28595,105285 28087,106779 27415,106569 "/>
    <path class="fil1" d="M32654 105157c18,127 -70,244 -197,262 -127,19 -244,-69 -263,-196 -18,-127 70,-245 197,-263 127,-18 245,70 263,197z"/>
    <path class="fil6" d="M34921 104450c18,127 -70,245 -197,263 -127,18 -244,-70 -262,-197 -18,-127 70,-245 196,-263 127,-18 245,70 263,197z"/>
    <path class="fil0" d="M34638 104621c291,96 639,289 733,598 243,795 -636,883 -1131,749 -616,-168 -1209,-515 -1726,-884 -156,-112 -335,126 -179,239 686,490 1801,1228 2685,980 472,-133 787,-694 643,-1169 -121,-397 -537,-666 -913,-790 -182,-60 -295,217 -112,277z"/>
    <path class="fil1" d="M30372 126083c0,0 1165,946 807,6293 -359,5346 -60,4331 -239,5257 -179,925 -568,1015 -627,1523 -60,508 -628,1463 -1285,2150 -657,687 -3435,2778 -3942,3077 -508,298 -1255,746 -1464,985 -209,239 -896,-29 -896,-29 0,0 -343,-284 -388,-807 -45,-523 -404,-672 -523,-896 -119,-224 -60,-597 -224,-777 -164,-179 -971,-522 -1105,-836 -135,-313 -239,-418 -418,-478 -179,-59 -404,-119 -523,-358 -119,-239 -179,-105 -433,-135 -254,-29 -358,-14 -553,-253 -194,-239 -253,-150 -463,-135 -209,15 -298,538 -298,538 0,0 -150,-164 -194,-314 -45,-149 0,-313 89,-388 90,-75 135,-45 224,-164 90,-120 478,-344 792,-329 313,15 702,-194 911,-478 209,-284 403,-358 657,-567 254,-209 313,-657 642,-777 329,-119 553,-538 881,-657 329,-119 627,-478 687,-762 60,-283 553,-702 956,-806 0,0 -15,-2375 164,-2703 179,-329 493,-612 508,-822 15,-209 -344,-925 -344,-1702 0,-777 135,-1045 -15,-1314 -149,-269 -462,-359 -477,-986 -15,-627 -452,-1609 1209,-3539 1748,-2031 3973,-1300 4705,-866 731,433 1179,2055 1179,2055z"/>
    <path class="fil0" d="M19545 141187c-119,-239 -179,-105 -433,-135 -254,-29 -358,-14 -553,-253 -194,-239 -253,-150 -463,-135 -209,15 -298,538 -298,538 0,0 -150,-164 -194,-314 -45,-149 0,-313 89,-388 90,-75 135,-45 224,-164 90,-120 478,-344 792,-329 313,15 702,-194 911,-478 209,-284 403,-358 657,-567 254,-209 313,-657 642,-777 329,-119 553,-538 881,-657 329,-119 627,-478 687,-762 60,-283 553,-702 956,-806 0,0 -15,-2375 164,-2703 179,-329 493,-613 508,-822 15,-209 -344,-925 -344,-1702 0,-777 135,-1045 -15,-1314 -133,-240 -397,-337 -463,-801 0,0 270,741 822,741 552,0 654,723 302,1075 -353,353 -20,418 205,1285 225,866 -130,965 -281,1617 -151,653 152,733 76,1166 -76,433 -526,354 -377,802 150,447 299,1352 -89,1352 -389,0 -1165,319 -1165,588 0,269 -448,1016 -866,1016 -419,0 -777,507 -1076,1224 -298,717 -674,325 -977,628 -303,303 -322,1075 -322,1075z"/>
    <path class="fil4" d="M17828 141396l-30 -194c0,0 -135,-418 45,-598 179,-179 2792,-29 4166,2031 1374,2061 866,2748 866,2748l-597 224c0,0 -657,209 -1254,-343 -598,-553 -3196,-3868 -3196,-3868z"/>
    <path class="fil1" d="M12153 146040c0,0 433,-433 1135,-567 701,-134 1030,-493 1209,-657 179,-164 314,-209 568,-418 254,-209 1404,-1195 1747,-1718 344,-522 627,-1165 1120,-1344 493,-179 2136,1001 2838,2300 702,1299 537,1269 537,1553l179 329c0,0 508,-239 717,-344 0,0 150,254 75,433 0,0 -2180,956 -2897,1449 -717,493 -2703,1822 -2808,2613 -104,792 164,1539 284,1852 119,314 537,1315 358,1987 -179,672 -269,1164 -836,1433 0,0 -553,-30 -1269,-1359 -717,-1329 -971,-2315 -1195,-3151 -224,-836 -284,-1075 -807,-1687 -522,-613 -403,-687 -358,-986 45,-299 418,-822 418,-822l-1015 -896z"/>
    <path class="fil0" d="M13168 146936l-1015 -896c0,0 433,-433 1135,-567 701,-134 1030,-493 1209,-657 179,-164 314,-209 568,-418 254,-209 1404,-1195 1747,-1718 344,-522 627,-1165 1120,-1344 291,-106 982,262 1644,848 0,0 -1694,377 -1990,1303 -296,926 -3223,1911 -3522,2688 -299,776 -896,761 -896,761z"/>
    <path class="fil4" d="M10570 147131c0,0 -105,881 388,1672 493,792 1120,1270 1254,1807 135,538 -30,1404 523,2240 553,837 1628,2226 3569,2091l-3853 -6750 -746 -821 -1135 -239z"/>
    <path class="fil3" d="M10570 147131l418 -747 1165 -344c0,0 851,404 1075,747 224,344 -179,747 -224,941 -45,194 -179,388 60,672 239,284 657,806 761,1060 105,254 1061,2375 1061,2375 0,0 343,-284 716,-105 374,180 598,1076 762,1120 164,45 717,-761 717,-761 0,0 373,941 104,1747 -268,807 -582,1016 -806,1105 -224,90 -1195,-687 -2315,-2837 -1120,-2151 -1135,-2659 -1434,-3122 -298,-462 -418,-1000 -1030,-1448l-1030 -403z"/>
    <path class="fil7" d="M11107 140127c0,0 583,224 792,224 209,0 269,-195 448,-165 179,30 970,-239 1239,-418 269,-179 583,-358 762,-433 179,-75 687,-299 836,-403 150,-105 299,-388 598,-508 298,-119 731,-418 970,-687 239,-269 478,-911 777,-1150 299,-239 567,-358 687,-597 119,-239 194,-523 373,-613 179,-89 403,-268 448,-403 45,-134 165,15 553,-433 388,-448 403,-941 732,-1344 328,-403 343,-388 477,-791 135,-404 374,-404 434,-628 59,-224 388,-537 418,-881 30,-343 597,-508 657,-746 60,-239 1030,-1330 1030,-1330 0,0 -2927,-552 -3046,-3240 -109,-2444 780,-3213 821,-3226l-2195 -762c0,0 -254,777 -299,1090 -45,314 -254,553 -433,658 -179,104 -567,955 -642,1239 -75,284 -1046,1195 -1344,2001 -299,807 -75,986 -403,1195 -329,209 -643,388 -971,747 -329,358 -822,776 -1046,1015 -224,239 -597,359 -716,687 -120,329 -75,433 -180,687 -104,254 -224,807 -149,1001 0,0 -75,119 -60,239 15,119 -448,224 -463,358 -15,134 -164,359 -388,388 -224,30 -777,-59 -941,165 -164,224 -149,328 -269,373 -119,45 -179,179 -179,269 0,89 -403,209 -627,403 -224,194 -164,493 -493,553 -328,59 -597,194 -791,478l2583 4988z"/>
    <path class="fil0" d="M9586 137189l-1062 -2050c194,-284 463,-419 791,-478 329,-60 269,-359 493,-553 224,-194 627,-314 627,-403 0,-90 60,-224 179,-269 120,-45 105,-149 269,-373 164,-224 717,-135 941,-165 224,-29 373,-254 388,-388 15,-134 478,-239 463,-358 -15,-120 60,-239 60,-239 -75,-194 45,-747 149,-1001 105,-254 60,-358 180,-687 119,-328 492,-448 716,-687 224,-239 717,-657 1046,-1015 328,-359 642,-538 971,-747 328,-209 104,-388 403,-1195 298,-806 1269,-1717 1344,-2001 75,-284 463,-1135 642,-1239 179,-105 388,-344 433,-658 45,-313 299,-1090 299,-1090l923 320c0,0 187,1114 -341,1642 -527,527 -1314,606 -1314,1353 0,747 -35,2127 -600,2318 -565,192 -923,1398 -923,1930 0,532 -784,469 -1298,983 -197,197 -58,903 -325,1353 -259,436 -741,138 -842,376 -232,545 -169,1152 -555,1254 -897,239 -1432,415 -1908,890 -476,476 -392,816 -717,1141 -326,326 -1432,1256 -1432,2036z"/>
    <path class="fil4" d="M8150 136468c0,0 -164,-867 374,-1329 537,-463 2314,313 3390,1836 1075,1524 716,2509 388,2793 -329,284 -896,105 -896,105l-3256 -3405z"/>
    <path class="fil1" d="M2625 147599c0,0 647,-130 1045,-389 398,-259 627,-617 667,-876 40,-259 339,-1264 518,-1573 179,-308 398,-368 537,-478 140,-109 737,-727 857,-956 119,-229 1065,-975 1981,-1622 916,-648 2738,-1374 3385,-1952 647,-577 -219,-2021 -886,-2638 -667,-618 -1444,-946 -1912,-986 -468,-40 -746,418 -985,856 -239,438 -1812,2111 -2410,2738 -597,628 -2897,2708 -2897,2708l100 5168z"/>
    <path class="fil0" d="M4985 144157l-2460 -1726c0,0 2300,-2080 2897,-2708 598,-627 2171,-2300 2410,-2738 239,-438 517,-896 985,-856 468,40 1245,369 1912,986 0,0 -1024,199 -2429,1175 -3316,2301 -3315,5867 -3315,5867z"/>
    <path class="fil4" d="M2177 143049c0,0 159,-757 876,-857 716,-99 1752,677 1931,1315 179,637 -139,955 -398,1075 -259,119 -687,338 -767,508 -79,169 -288,507 -358,1055 -70,548 -120,1085 -448,1304 -329,219 -598,179 -827,10 -228,-169 -1752,-1662 -1931,-1862 -179,-199 -282,-552 -249,-955 30,-369 169,-618 687,-996 631,-461 906,-249 1484,-597z"/>
    <path class="fil3" d="M15189 110233c0,0 -418,-278 -537,-458 -120,-179 -377,-239 -517,-239 -139,0 -280,-59 -355,224 -17,68 -99,170 -99,170 0,0 -204,104 -354,144 -149,40 -338,289 -398,587 0,0 -318,90 -368,259 -50,170 -30,677 -30,677 0,0 -269,130 -259,349 10,219 30,737 139,826 110,90 130,219 309,140 179,-80 309,-259 339,-369 30,-109 30,-199 30,-199 0,0 517,289 1105,528l995 -2639z"/>
    <path class="fil8" d="M14144 112015c38,-496 199,-925 508,-1294 308,-368 766,-637 1115,-637 348,0 408,40 488,-50 79,-89 388,-328 627,-368 239,-40 279,-40 368,-90 90,-50 518,-239 767,-209 249,30 2558,-1712 4520,-2111l-3126 6781c0,0 -1086,288 -1494,159 -408,-130 -826,69 -1015,0 -189,-70 -518,-209 -618,-199 -99,10 -716,149 -1085,-20 -368,-169 -1155,-677 -1055,-1962z"/>
    <path class="fil0" d="M20660 111327l-1249 2710c0,0 -1086,288 -1494,159 -408,-130 -826,70 -1015,0 -190,-70 -518,-209 -618,-199 -99,10 -716,149 -1085,-20 -368,-169 -1155,-677 -1055,-1962 0,0 199,1260 1045,1402 847,142 398,-246 1026,-246 627,0 219,464 871,464 652,0 929,-464 1418,-464 489,0 2156,-1844 2156,-1844z"/>
    <path class="fil4" d="M26509 124112c0,0 -1035,-398 -796,-2569 239,-2170 1513,-5595 2310,-7646 796,-2051 2389,-5057 4281,-5814 0,0 -6153,-1892 -6611,-2031 -458,-140 -1991,-379 -2688,557 -697,936 -2270,3803 -2947,5596 -677,1792 -2151,6033 -2031,7487 119,1453 677,1832 1174,1991 498,159 7308,2429 7308,2429z"/>
    <path class="fil3" d="M30595 107557c977,301 1709,526 1709,526 -1892,756 -3485,3763 -4281,5814 -797,2051 -2071,5476 -2310,7647 -239,2170 796,2568 796,2568 0,0 -805,-268 -1881,-627 0,0 -349,-329 -647,-1623 -299,-1294 537,-3863 836,-4679 299,-817 -379,-1076 -637,-1175 -259,-100 -2390,-757 -2967,-936 -578,-179 -757,60 -976,438 -219,378 -896,1792 -1135,3106 -239,1315 745,3279 745,3279 -336,-111 -568,-187 -645,-212 -498,-159 -1056,-538 -1175,-1991 -120,-1454 1354,-5695 2031,-7487 677,-1792 2250,-4660 2947,-5596 697,-936 2230,-697 2688,-557 56,17 198,60 403,123 0,0 -1180,554 -1439,892 -258,339 -477,717 0,916 478,199 3007,936 3326,1056 318,119 757,278 1195,-319 438,-597 1417,-1163 1417,-1163z"/>
    <path class="fil4" d="M26509 124112c0,0 -1035,-398 -796,-2569 239,-2170 1513,-5595 2310,-7646 796,-2051 2389,-5057 4281,-5814l936 1354 -5675 14118 -1056 557z"/>
    <polygon class="fil9" points="27565,123555 28580,122878 33996,109955 32304,108083 33240,109437 "/>
    <path class="fil4" d="M26440 112439c-194,1161 -1297,1944 -2463,1748 -1166,-195 -1954,-1295 -1759,-2456 194,-1161 1297,-1943 2463,-1748 1166,195 1954,1295 1759,2456z"/>
    <path class="fil0" d="M25795 112238c-153,912 -1020,1528 -1936,1374 -917,-154 -1536,-1018 -1383,-1930 153,-913 1020,-1528 1936,-1375 917,154 1536,1018 1383,1931z"/>
    <path class="fil1" d="M32284 107376c0,280 -227,508 -508,508 -280,0 -508,-228 -508,-508 0,-280 228,-508 508,-508 281,0 508,228 508,508z"/>
    <path class="fil0" d="M29157 113923c-363,-99 -727,-292 -998,-555 -678,-658 -305,-1576 113,-2273 491,-816 1131,-1603 1768,-2312 392,-436 1053,-827 1567,-869 570,-48 575,-944 0,-897 -802,67 -1587,483 -2134,1063 -824,873 -1706,1941 -2227,3027 -427,890 -553,1917 120,2720 388,463 971,802 1553,960 557,152 795,-713 238,-864z"/>
    <path class="fil6" d="M24607 111676c-91,543 -606,909 -1151,818 -545,-92 -914,-606 -823,-1148 91,-543 607,-909 1152,-818 545,92 913,606 822,1148z"/>
    <path class="fil4" d="M43166 124908c0,0 139,867 538,1185 398,319 617,-119 567,-388 -50,-269 -50,-518 -50,-518l-499 -279 -556 0z"/>
    <path class="fil3" d="M40906 124640c0,0 2768,229 3455,717 0,0 308,607 378,985 70,379 229,369 358,319 130,-50 329,-169 289,-737 -40,-567 -20,-468 -20,-468 0,0 70,777 279,936 209,159 548,50 597,-747 0,0 359,438 488,438 130,0 329,-159 259,-637 -70,-478 -378,-946 -378,-946 0,0 617,140 756,120 140,-20 229,-269 80,-478 -149,-209 -1205,-826 -1453,-936 -249,-109 -668,-99 -926,-199 -259,-100 -1494,-269 -1753,-239 -259,30 -916,-378 -916,-378 0,0 -846,946 -1493,2250z"/>
    <path class="fil1" d="M33807 109407c1500,-428 2659,673 3136,1920 478,1246 -110,2199 150,2459 259,260 245,1132 269,1721 14,366 179,620 313,695 135,75 314,254 344,448 30,194 30,597 403,806 373,210 478,299 552,568 75,269 45,493 284,687 239,194 426,217 530,411 105,194 53,343 232,418 179,75 239,112 351,239 112,127 15,239 157,284 142,44 425,156 500,373 75,216 -97,381 187,552 283,172 425,-59 784,314 358,373 485,799 410,1292 -74,493 -552,1232 -1053,1695 -500,463 -866,537 -1448,500 -583,-37 -792,-373 -836,-485 -45,-112 -135,-277 -322,-426 -186,-149 -388,-276 -463,-381 -74,-104 -306,-246 -515,-388 -209,-142 -971,-642 -1441,-1135 -470,-493 -657,-821 -911,-1075 -254,-254 -694,-642 -1000,-1075 -307,-433 -837,-770 -971,-1083 -135,-314 -90,-926 -314,-1314 -224,-389 -806,-1464 -985,-2674 -180,-1209 -350,-2431 149,-3868 373,-1075 1090,-1359 1508,-1478z"/>
    <path class="fil0" d="M41356 124289c-500,463 -866,537 -1448,500 -583,-37 -792,-373 -836,-485 -45,-112 -135,-277 -322,-426 -186,-149 -388,-276 -462,-381 -75,-104 -307,-246 -516,-388 -209,-142 -970,-642 -1441,-1135 -470,-493 -657,-821 -911,-1075 -254,-254 -694,-642 -1001,-1075 -306,-434 -836,-770 -970,-1083 -135,-314 -90,-926 -314,-1314 -224,-389 -806,-1464 -986,-2674 -179,-1209 -349,-2431 150,-3868 373,-1075 1090,-1359 1508,-1478 0,0 -1015,1062 -866,1920 149,858 721,1585 376,2506 -346,920 -92,1971 202,2264 293,294 608,1230 608,1869 0,640 379,786 885,1291 506,506 413,1064 887,1537 474,474 1109,484 1731,1107 623,623 313,1186 918,1365 606,179 879,-19 1286,388 406,407 1522,635 1522,635z"/>
    <path class="fil5" d="M29573 103428c-53,273 -314,452 -583,400 -268,-52 -443,-316 -390,-589 52,-273 313,-452 582,-400 269,52 444,315 391,589zm-429 1c23,-17 41,-43 47,-74 6,-33 -1,-66 -17,-90 -15,-22 -38,-39 -65,-44 -29,-6 -57,1 -79,15 -24,17 -42,44 -48,76l-1 2c-6,32 1,64 17,88 15,22 38,39 65,44 29,6 58,-1 81,-17z"/>
    <path class="fil4" d="M29374 103475c295,-474 218,-1065 -9,-1546 -99,-207 -288,-417 -322,-648 -70,-457 508,-834 850,-1034 848,-496 1982,-585 2928,-338 382,100 497,-502 117,-601 -1050,-275 -2288,-160 -3243,351 -586,313 -1355,891 -1269,1644 76,664 838,1195 399,1900 -209,335 342,604 549,272z"/>
    <path class="fil10" d="M3361 141669c-580,534 -836,762 -836,762l6 5c127,-117 297,-213 522,-244 716,-99 1752,677 1931,1314 17,60 29,116 38,170 30,193 11,352 -37,481 -82,222 -251,356 -399,425 -259,119 -687,338 -767,508 -79,169 -288,507 -358,1055 -70,547 -120,1085 -448,1304 -68,46 -134,80 -197,104 223,-58 592,-172 854,-343 398,-259 627,-617 667,-876 40,-259 339,-1264 518,-1573 179,-309 222,-608 361,-718 116,-91 193,-215 233,-358 293,-1029 -1315,-2726 -2088,-2016z"/>
   </g>
   <g>
    <path class="fil11" d="M20247 92679c5500,-1768 6610,-4487 5640,-7506 -929,-2889 -3937,-5906 -6567,-8544 -1445,-1449 -2770,-2778 -3491,-3828 -776,-1132 -1385,-2370 -1704,-3777 -320,-1416 -354,-3018 22,-4877 1652,-8155 12337,-14268 20118,-18720 1084,-620 2111,-1208 3111,-1801 4298,-2550 8560,-5316 12256,-8511 3733,-3229 6876,-6888 8880,-11192 787,-1690 1387,-3643 1753,-5721 715,-4050 543,-8601 -859,-12639 -703,-2026 -1714,-3922 -3073,-5563l-1223 0c1448,1662 2512,3614 3239,5708 1375,3961 1542,8434 840,12417 -360,2039 -948,3953 -1719,5609 -1975,4242 -5079,7854 -8767,11043 -3669,3173 -7911,5925 -12190,8464 -978,581 -2014,1173 -3107,1798 -7854,4494 -18640,10665 -20332,19021 -390,1924 -354,3588 -20,5062 333,1469 965,2757 1770,3930 743,1084 2083,2427 3543,3892 2595,2603 5563,5579 6459,8366 890,2770 -172,5280 -5352,6944 -454,146 -958,287 -1495,436 -1304,363 -2813,783 -4210,1459 -729,353 -1440,797 -2035,1313 -621,539 -1111,1153 -1348,1814 -226,629 -220,1316 129,2038 147,304 355,616 631,934 711,818 1790,1233 2876,1650 1028,395 2062,792 2897,1533 1010,897 1483,2122 1942,3312l142 365c918,2338 2777,3945 5239,4591 36,10 69,23 100,40 4,-14 9,-28 12,-43 125,-474 -158,-960 -633,-1085 -944,-248 -1672,-696 -2248,-1299 -600,-628 -1052,-1435 -1417,-2366l-143 -364c-479,-1240 -972,-2517 -2061,-3484 -892,-793 -1967,-1206 -3034,-1616 -1034,-397 -2060,-791 -2698,-1526 -249,-288 -436,-567 -566,-836 -293,-604 -299,-1174 -112,-1694 209,-582 653,-1134 1220,-1626 564,-489 1241,-912 1937,-1249 1363,-660 2850,-1073 4135,-1431 542,-151 1050,-292 1513,-441z"/>
    <path class="fil5" d="M18861 106743c-459,-1190 -932,-2415 -1942,-3312 -835,-741 -1869,-1138 -2897,-1533 -1086,-417 -2165,-832 -2876,-1650 -276,-318 -484,-630 -631,-934 -349,-722 -355,-1409 -129,-2038 237,-661 727,-1275 1348,-1814 595,-516 1306,-960 2035,-1313 1397,-676 2906,-1096 4210,-1459 537,-149 1041,-290 1495,-436 5180,-1664 6242,-4174 5352,-6944 -896,-2787 -3864,-5763 -6459,-8366 -1460,-1465 -2800,-2808 -3543,-3892 -805,-1173 -1437,-2461 -1770,-3930 -334,-1474 -370,-3138 20,-5062 1692,-8356 12478,-14527 20332,-19021 1093,-625 2129,-1217 3107,-1798 4279,-2539 8521,-5291 12190,-8464 3688,-3189 6792,-6801 8767,-11043 771,-1656 1359,-3570 1719,-5609 702,-3983 535,-8456 -840,-12417 -727,-2094 -1791,-4046 -3239,-5708l-1203 0c1770,1698 3018,3823 3823,6140 1296,3734 1450,7970 782,11756 -339,1923 -891,3723 -1614,5275 -1890,4059 -4875,7528 -8428,10601 -3591,3106 -7772,5816 -11998,8323 -910,540 -1971,1148 -3091,1788 -8073,4619 -19159,10962 -20972,19916 -430,2123 -388,3969 -16,5614 375,1654 1078,3090 1969,4389 811,1182 2192,2568 3699,4079 2490,2498 5338,5355 6135,7835 653,2030 -266,3915 -4492,5273 -428,137 -919,274 -1443,420 -1361,378 -2935,816 -4434,1542 -826,400 -1639,909 -2326,1506 -782,679 -1408,1477 -1729,2371 -343,956 -339,1989 182,3064 197,406 468,816 823,1225 927,1068 2163,1542 3408,2021 908,349 1822,700 2485,1288 774,687 1187,1757 1588,2796 91,235 109,285 142,370 445,1133 1012,2134 1786,2944 799,836 1799,1456 3083,1793 460,121 931,-141 1073,-590 -31,-17 -64,-30 -100,-40 -2462,-646 -4321,-2253 -5239,-4591l-142 -365z"/>
   </g>
  </g>
 </g>
</svg>
