<?xml version="1.0" encoding="UTF-8"?>
<!DOCTYPE svg PUBLIC "-//W3C//DTD SVG 1.1//EN" "http://www.w3.org/Graphics/SVG/1.1/DTD/svg11.dtd">
<!-- Creator: CorelDRAW X7 -->
<svg xmlns="http://www.w3.org/2000/svg" xml:space="preserve" width="3.11654in" height="0.604409in" version="1.1" style="shape-rendering:geometricPrecision; text-rendering:geometricPrecision; image-rendering:optimizeQuality; fill-rule:evenodd; clip-rule:evenodd"
viewBox="0 0 31165 6044"
 xmlns:xlink="http://www.w3.org/1999/xlink">
 <defs>
  <style type="text/css">
   <![CDATA[
    .fil0 {fill:#A38755}
    .fil1 {fill:white}
    .fil2 {fill:#A38755;fill-rule:nonzero}
   ]]>
  </style>
 </defs>
 <g id="Layer_x0020_1">
  <metadata id="CorelCorpID_0Corel-Layer"/>
  <g id="_2555805892416">
   <g>
    <path class="fil0" d="M3022 0l25121 0c1662,0 3022,1360 3022,3022l0 0c0,1662 -1360,3022 -3022,3022l-25121 0c-1662,0 -3022,-1360 -3022,-3022l0 0c0,-1662 1360,-3022 3022,-3022zm25121 331l-25121 0c-740,0 -1413,303 -1901,790 -487,488 -790,1161 -790,1901 0,740 303,1413 790,1901 488,488 1161,790 1901,790l25121 0c740,0 1413,-302 1901,-790 488,-488 791,-1161 791,-1901 0,-740 -303,-1413 -791,-1901 -488,-487 -1161,-790 -1901,-790z"/>
    <path class="fil1" d="M28143 331l-25121 0c-740,0 -1413,303 -1901,790 -487,488 -790,1161 -790,1901 0,740 303,1413 790,1901 488,488 1161,790 1901,790l25121 0c740,0 1413,-302 1901,-790 488,-488 791,-1161 791,-1901 0,-740 -303,-1413 -791,-1901 -488,-487 -1161,-790 -1901,-790z"/>
   </g>
   <path class="fil2" d="M9667 3338c0,162 -20,295 -58,402 -39,107 -95,193 -167,258 -72,65 -161,112 -266,140 -105,27 -223,42 -353,42 -555,0 -833,-265 -833,-794l0 -479 395 0 0 464c0,143 35,252 106,327 71,76 185,114 343,114 150,0 261,-32 333,-95 72,-63 109,-171 109,-325l0 -823 394 0 -3 769zm-1044 -939c0,-59 22,-110 65,-153 42,-44 94,-66 154,-66 58,0 109,22 152,65 43,43 64,94 64,154 0,58 -21,109 -64,152 -43,43 -94,65 -152,65 -59,0 -110,-22 -153,-65 -44,-43 -66,-94 -66,-152zm2136 1168c0,69 -10,118 -29,144 -20,26 -50,40 -91,40l-128 0c-70,0 -134,-8 -191,-23 -58,-16 -108,-42 -150,-77 -42,-35 -74,-82 -98,-141 -23,-60 -35,-133 -35,-221l0 -1723 398 0 0 1668c0,72 13,117 38,136 25,19 61,28 108,28l58 0c16,0 31,2 46,5 14,4 27,11 39,22 11,11 20,27 26,50 6,22 9,53 9,92zm551 -169c70,0 119,-10 149,-32 29,-21 44,-55 44,-102 0,-39 -15,-85 -45,-140 -30,-53 -76,-112 -138,-175 -63,-63 -143,-129 -243,-197 -100,-68 -220,-138 -362,-207 8,-66 18,-119 28,-159 11,-40 22,-73 33,-98 13,-25 25,-43 39,-56 13,-11 27,-21 41,-29l1135 -493 0 416 -684 294 0 11c155,98 278,205 367,323 89,118 157,241 204,369 33,92 73,161 121,206 49,46 114,69 194,69 16,0 31,2 46,5 14,4 27,11 38,22 12,11 21,27 27,50 6,22 9,53 9,92 0,69 -10,118 -29,144 -20,26 -50,40 -91,40 -35,0 -70,-2 -107,-5 -36,-3 -72,-11 -108,-24 -36,-14 -70,-33 -104,-58 -33,-26 -65,-61 -96,-106 -35,45 -71,80 -108,106 -37,25 -77,44 -119,58 -43,13 -89,21 -137,24 -47,3 -98,5 -153,5l-625 0c-16,0 -31,-2 -45,-5 -15,-3 -28,-10 -39,-21 -12,-12 -20,-29 -26,-51 -7,-23 -9,-53 -9,-92 0,-70 10,-118 29,-144 19,-27 49,-40 90,-40l674 0zm-558 -1343c13,-247 101,-413 267,-498l966 -437 0 391 -1233 544zm1441 1696c-16,0 -31,-2 -45,-5 -15,-3 -28,-11 -39,-23 -12,-13 -20,-30 -26,-52 -7,-23 -9,-53 -9,-92 0,-70 10,-118 29,-144 19,-26 49,-40 90,-40l484 0 0 -862 401 0 0 1218 -885 0zm34 514c0,-59 22,-110 65,-153 42,-43 94,-64 152,-64 59,0 110,21 153,64 42,43 64,94 64,153 0,58 -22,109 -64,152 -43,43 -94,65 -153,65 -58,0 -110,-22 -152,-65 -43,-43 -65,-94 -65,-152zm498 0c0,-59 22,-110 64,-153 43,-43 95,-64 154,-64 59,0 110,21 153,64 43,43 64,94 64,153 0,58 -21,109 -64,152 -43,43 -94,65 -153,65 -58,0 -110,-22 -153,-65 -43,-43 -65,-94 -65,-152zm1110 -2699l0 2185 -394 0 0 -2185 394 0zm577 1102l397 0 0 911c0,146 -11,271 -33,373 -23,103 -62,186 -117,249 -57,63 -134,110 -233,139 -99,29 -225,45 -378,47l0 -373c81,-2 146,-12 196,-30 49,-17 86,-43 111,-77 24,-34 39,-79 46,-133 8,-54 11,-120 11,-195l0 -911zm1829 1028c0,56 9,109 29,157 20,48 52,90 98,124 45,34 107,61 184,81 76,19 172,29 286,29 143,0 258,-10 347,-31 89,-20 158,-45 208,-74 50,-30 84,-62 102,-97 19,-35 28,-66 28,-94 0,-31 -12,-56 -36,-74 -23,-18 -61,-42 -114,-71 -58,-31 -114,-63 -167,-95 -52,-32 -97,-69 -135,-111 -37,-42 -67,-89 -90,-141 -22,-51 -34,-113 -34,-185 0,-79 15,-160 44,-240 29,-81 71,-154 127,-219 55,-66 126,-119 212,-159 86,-41 186,-62 300,-62 76,0 143,9 201,25 58,17 102,30 129,40l0 358c-71,-16 -133,-26 -185,-32 -51,-6 -92,-8 -121,-8 -53,0 -99,8 -137,23 -39,16 -71,36 -97,60 -25,24 -44,52 -56,81 -12,30 -18,60 -18,90 0,47 21,87 63,119 42,33 93,64 154,93 74,35 134,68 181,101 46,32 84,65 111,100 28,33 47,69 58,106 12,37 18,78 18,120 0,86 -18,174 -53,264 -35,90 -94,171 -179,244 -85,72 -197,131 -336,177 -140,46 -315,68 -525,68 -185,0 -341,-19 -468,-56 -127,-38 -229,-91 -308,-158 -78,-67 -134,-146 -168,-237 -34,-90 -51,-190 -51,-298l0 -492 398 0 0 474zm2861 55c-27,0 -64,-6 -111,-19 -46,-12 -87,-39 -122,-80 -2,139 -18,254 -48,348 -31,92 -77,168 -138,225 -61,57 -139,98 -232,122 -94,25 -207,38 -338,40l0 -373c84,-2 150,-12 200,-30 49,-17 86,-43 110,-77 24,-34 40,-79 47,-133 7,-54 10,-120 10,-195l0 -911 395 0 0 520c0,79 24,134 73,164 48,31 100,46 154,46 16,0 31,2 46,5 14,4 27,11 39,22 11,11 20,27 26,50 6,22 8,53 8,92 0,69 -9,118 -29,144 -19,26 -49,40 -90,40zm351 -353l0 -865 401 0 0 1218 -753 0c-16,0 -32,-2 -46,-5 -15,-3 -27,-10 -39,-21 -11,-12 -20,-29 -26,-51 -6,-23 -9,-53 -9,-92 0,-70 10,-118 29,-144 20,-27 50,-40 91,-40l352 0zm-50 858c0,-59 21,-110 64,-153 43,-43 94,-64 154,-64 59,0 109,21 152,64 43,43 65,94 65,153 0,58 -22,109 -65,152 -43,43 -93,64 -152,64 -59,0 -110,-21 -153,-64 -44,-43 -65,-94 -65,-152zm1027 -1588l398 0 0 911c0,146 -11,271 -34,373 -22,103 -61,186 -117,249 -56,63 -133,110 -233,139 -99,29 -225,45 -378,47l0 -373c82,-2 147,-12 196,-30 50,-17 87,-43 111,-77 24,-34 40,-79 47,-133 7,-54 10,-120 10,-195l0 -911zm1487 899c0,69 -10,118 -29,144 -20,26 -50,40 -91,40l-128 0c-70,0 -134,-8 -191,-23 -58,-16 -108,-42 -150,-77 -42,-35 -74,-82 -98,-141 -23,-60 -35,-133 -35,-221l0 -1723 398 0 0 1668c0,72 13,117 38,136 25,19 61,28 108,28l58 0c16,0 32,2 46,5 15,4 27,11 39,22 11,11 20,27 26,50 6,22 9,53 9,92zm590 -169c43,0 84,-8 123,-25 39,-17 58,-53 58,-106 0,-37 -23,-86 -69,-148 -46,-62 -107,-128 -182,-198 -76,-69 -162,-138 -257,-207 -96,-68 -193,-127 -291,-178 13,-68 30,-123 50,-167 20,-44 40,-79 61,-106 20,-26 40,-46 60,-60 19,-13 35,-23 46,-29l1069 -470 0 409 -723 301 0 9c122,79 224,158 303,235 80,78 144,154 191,227 48,73 82,143 100,209 18,66 27,128 27,186 0,49 -6,101 -20,156 -13,54 -39,105 -77,153 -39,47 -93,86 -164,116 -71,30 -163,46 -277,46l-741 0c-15,0 -31,-2 -45,-5 -15,-3 -28,-10 -39,-21 -11,-12 -20,-29 -26,-51 -6,-23 -9,-53 -9,-92 0,-70 10,-118 29,-144 19,-27 50,-40 90,-40l713 0z"/>
  </g>
 </g>
</svg>
