<?xml version="1.0" encoding="UTF-8"?>
<!DOCTYPE svg PUBLIC "-//W3C//DTD SVG 1.1//EN" "http://www.w3.org/Graphics/SVG/1.1/DTD/svg11.dtd">
<!-- Creator: CorelDRAW X7 -->
<svg xmlns="http://www.w3.org/2000/svg" xml:space="preserve" width="100%" height="100%" version="1.1" style="shape-rendering:geometricPrecision; text-rendering:geometricPrecision; image-rendering:optimizeQuality; fill-rule:evenodd; clip-rule:evenodd"
viewBox="0 0 121280 20583"
 xmlns:xlink="http://www.w3.org/1999/xlink">
 <defs>
  <style type="text/css">
   <![CDATA[
    .fil3 {fill:none}
    .fil1 {fill:#D2AE6D}
    .fil0 {fill:#E6D2AE}
    .fil2 {fill:white;fill-rule:nonzero}
   ]]>
  </style>
 </defs>
 <g id="Layer_x0020_1">
  <metadata id="CorelCorpID_0Corel-Layer"/>
  <g id="_1597015999328">
   <g>
    <polygon class="fil0" points="20053,3967 23270,750 750,750 750,3967 "/>
    <polygon class="fil0" points="12121,11900 15337,8683 750,8683 750,11900 "/>
    <polygon class="fil1" points="7933,19833 7933,16616 750,16616 750,19833 "/>
    <polygon class="fil1" points="15866,19833 15866,9212 12650,12429 12650,19833 "/>
    <polygon class="fil1" points="23800,8153 23800,1280 20583,4497 20583,11370 "/>
    <polygon class="fil0" points="21113,11900 35919,11900 39136,8683 24330,8683 "/>
    <polygon class="fil0" points="27986,19833 31203,16616 20583,16616 20583,19833 "/>
    <polygon class="fil0" points="43854,3967 47070,750 32263,750 29046,3967 "/>
    <polygon class="fil0" points="44912,11900 59719,11900 62936,8683 48128,8683 "/>
    <polygon class="fil1" points="47599,8154 47599,1279 44383,4496 44383,11371 45681,10073 "/>
    <polygon class="fil1" points="47599,16087 47599,12650 44383,12650 44383,19304 "/>
    <polygon class="fil0" points="43633,19833 43633,16616 36228,16616 33012,19833 "/>
    <polygon class="fil0" points="68182,11900 75365,11900 75365,8683 67961,8683 64745,11900 "/>
    <polygon class="fil0" points="63466,3967 63466,750 60249,750 60249,3967 "/>
    <polygon class="fil0" points="63466,19833 63466,16616 52096,16616 48879,19833 "/>
    <polygon class="fil1" points="67432,16087 67432,12650 64216,12650 64216,19304 "/>
    <polygon class="fil0" points="76645,11900 80082,11900 87485,11900 90702,8683 79862,8683 "/>
    <polygon class="fil0" points="80082,3967 87485,3967 90702,750 79862,750 76645,3967 "/>
    <polygon class="fil1" points="76115,11370 79332,8153 79332,4717 76115,4717 76115,7933 "/>
    <polygon class="fil1" points="76115,19303 79332,16086 79332,12650 76115,12650 "/>
    <polygon class="fil0" points="79862,16616 76645,19833 87485,19833 90702,16616 "/>
    <polygon class="fil1" points="96950,8683 96950,11900 116783,11900 116783,19833 120000,19833 120000,8683 "/>
    <polygon class="fil1" points="96950,3967 116253,3967 119470,750 96950,750 "/>
    <polygon class="fil1" points="96950,16616 96950,19833 112067,19833 112067,16616 "/>
    <path class="fil2" d="M79862 16616l-3217 3217 10840 0 3217 -3217 -10840 0zm-64525 -7933l-14587 0 0 3217 11371 0 3216 -3217zm5246 -4186l0 6873 3217 -3217 0 -6873 -3217 3217zm-750 220l-19833 0 0 -4717 24550 0 0 7933 16396 0 -4717 4717 -16396 0 0 -7933zm-11900 11899l-7183 0 0 3217 7183 0 0 -3217zm-7558 -750l8308 0 0 4717 -8683 0 0 -4717 375 0zm15491 -6654l-3216 3217 0 7404 3216 0 0 -10621zm-15866 3063l0 -4342 16616 0 0 12650 -4716 0 0 -7933 -11900 0 0 -375zm20583 4341l0 3217 7403 0 3217 -3217 -10620 0zm-750 -750l13180 0 -4717 4717 -8463 0 0 -4717zm4497 -7183l-3217 3217 14806 0 3217 -3217 -14806 0zm-4277 -4716l3217 -3217 -22520 0 0 3217 19303 0zm76897 0l19303 0 3217 -3217 -22520 0 0 3217zm19458 750l-20208 0 0 -4717 25080 0 -4717 4717 -155 0zm-4341 11899l-15117 0 0 3217 15117 0 0 -3217zm750 -750l0 4717 -16617 0 0 -4717 16617 0zm7183 -7183l-23050 0 0 3217 19833 0 0 7933 3217 0 0 -11150zm750 -750l0 12650 -4717 0 0 -7933 -19833 0 0 -4717 24550 0zm-76367 4717l0 6654 3216 -3217 0 -3437 -3216 0zm3966 0l0 3745 -4187 4188 -12958 0 4716 -4717 7713 0 0 -11149 -16397 0 4717 -4717 16396 0 0 7933 16397 0 -4717 4717 -11680 0zm-750 -4496l0 -6875 -3216 3217 0 6875 1298 -1298 1918 -1919zm529 529l-3216 3217 14807 0 3217 -3217 -14808 0 0 0zm27987 3967l0 6653 3217 -3217 0 -3436 -3217 0zm3967 0l0 3216 12430 0 -4717 4717 -12430 0 0 -7933 -7183 0 0 3745 -4187 4188 -16926 0 4717 -4717 11680 0 0 -3745 4187 -4188 7712 0 0 -3746 4187 -4187 12960 0 -640 640 -4077 4077 -7713 0 0 3216 12430 0 -4717 4717 -7713 0zm-750 -4497l0 -3436 -3217 0 0 3216 0 3437 3217 -3217zm-15116 4497l0 6654 3216 -3217 0 -3437 -3216 0zm15646 -3967l-3217 3217 3437 0 7403 0 3217 -3217 -10840 0zm7623 -4716l3217 -3217 -10840 0 -3217 3217 3437 0 7403 0zm-24019 12649l-11370 0 -3217 3217 14587 0 0 -3217zm4495 -7933l-3216 3217 3437 0 7183 0 0 -3217 -7404 0zm-7712 -7933l0 3217 3217 0 0 -3217 -3217 0zm-750 3592l0 -4342 4717 0 0 4717 -4717 0 0 -375zm-30453 -375l14808 0 3216 -3217 -14807 0 -3217 3217zm7182 12649l-3216 3217 10621 0 0 -3217 -7405 0z"/>
   </g>
   <rect class="fil3" x="640" y="375" width="120000" height="19833"/>
  </g>
 </g>
</svg>
