<?xml version="1.0" encoding="UTF-8"?>
<!DOCTYPE svg PUBLIC "-//W3C//DTD SVG 1.1//EN" "http://www.w3.org/Graphics/SVG/1.1/DTD/svg11.dtd">
<!-- Creator: CorelDRAW X7 -->
<svg xmlns="http://www.w3.org/2000/svg" xml:space="preserve" width="100%" height="100%" version="1.1" style="shape-rendering:geometricPrecision; text-rendering:geometricPrecision; image-rendering:optimizeQuality; fill-rule:evenodd; clip-rule:evenodd"
viewBox="0 0 120000 19833"
 xmlns:xlink="http://www.w3.org/1999/xlink">
 <defs>
  <style type="text/css">
   <![CDATA[
    .fil1 {fill:none}
    .fil0 {fill:#8480BC}
   ]]>
  </style>
 </defs>
 <g id="Layer_x0020_1">
  <metadata id="CorelCorpID_0Corel-Layer"/>
  <g id="_1596959673136">
   <path class="fil0" d="M11900 11900l0 7933 3966 0 0 -11900 -15866 0 0 3967 11900 0zm11900 -11900l-23800 0 0 3967 19833 0 0 7933 15866 0 3967 -3967 -15866 0 0 -7933zm39666 15866c-3967,0 -7933,0 -11900,0l-3967 3967c5289,0 10578,0 15867,0l3966 -3967 0 -3966 7933 0 0 7933c3967,0 7933,0 11900,0l3967 -3967c-3967,0 -7933,0 -11900,0l0 -3966 7933 0 3967 -3967c-3967,0 -7933,0 -11900,0l0 -3966 7933 0 3967 -3967c-3967,0 -7933,0 -11900,0l-3967 3967 0 3966 -7933 0 -3966 3967 0 3966zm-3967 -15866l0 3967 3967 0 0 -3967 -3967 0zm-11900 11900l11900 0 3967 -3967c-5289,0 -10578,0 -15867,0l0 -7933 0 0 0 0 -15866 0 -3967 3967 15867 0 0 11899 -7934 0 -3966 3967 11900 0 0 0 3966 -3967 0 -3966zm-27766 3966l0 3967 7933 0 3967 -3967 -11900 0zm-11900 0l-7933 0 0 3967 7933 0 0 -3967zm88267 -11899l19833 0 3967 -3967 -23800 0 0 3967zm15867 11899l-15867 0 0 3967 15867 0 0 -3967zm7933 -7933l-23800 0 0 3967 19833 0 0 7933 3967 0 0 -11900z"/>
   <rect class="fil1" width="120000" height="19833"/>
  </g>
 </g>
</svg>
