<?xml version="1.0" encoding="UTF-8"?>
<!DOCTYPE svg PUBLIC "-//W3C//DTD SVG 1.1//EN" "http://www.w3.org/Graphics/SVG/1.1/DTD/svg11.dtd">
<!-- Creator: CorelDRAW X7 -->
<svg xmlns="http://www.w3.org/2000/svg" xml:space="preserve" width="100%" height="100%" version="1.1" style="shape-rendering:geometricPrecision; text-rendering:geometricPrecision; image-rendering:optimizeQuality; fill-rule:evenodd; clip-rule:evenodd"
viewBox="0 0 119500 19333"
 xmlns:xlink="http://www.w3.org/1999/xlink">
 <defs>
  <style type="text/css">
   <![CDATA[
    .fil0 {fill:white}
   ]]>
  </style>
 </defs>
 <g id="Layer_x0020_1">
  <metadata id="CorelCorpID_0Corel-Layer"/>
  <path class="fil0" d="M7433 19333l0 -3467 -7433 0 0 3467 7433 0zm104134 -3467l-15367 0 0 3467 15367 0 0 -3467zm-15367 -4466l19833 0 0 7933 3467 0 0 -11400 -23300 0 0 3467zm-5822 4466l-11192 0 -3467 3467 11193 0 3466 -3467zm-11046 -12399l7580 0 3466 -3467 -11192 0 -3467 3467 3613 0zm-500 8433l-3467 0 0 7079 3467 -3466 0 -3613zm-3467 -854l3467 -3466 0 -3613 -3467 0 0 3466 0 3613zm3821 -3113l-3467 3467 3613 0 7580 0 3466 -3467 -11192 0zm-12254 3967l-3466 0 0 3466 0 3613 3466 -3466 0 -3613zm-3113 -500l3613 0 7433 0 0 -3467 -7579 0 -3467 3467zm-853 4466l-11547 0 -3466 3467 15013 0 0 -3467zm-7434 -15866l0 3467 3467 0 0 -3467 -3467 0zm-19979 3467l7726 0 3467 -3467 -11297 0 -3363 0 3467 3467zm8080 7579l3466 -3466 0 -7226 -3466 3466 0 3863 0 3363zm353 354l3613 0 11546 0 3467 -3467 -15159 0 -3467 3467zm-353 500l0 3466 0 3613 3466 -3466 0 -3613 -3466 0zm-7934 3966l0 3467 7434 0 0 -3467 -3717 0 -3717 0zm-4466 0l-11400 0 0 3467 11400 0 0 -3467zm-7580 -7933l-3466 3467 15159 0 3466 -3467 -15159 0zm-3820 -4113l0 7226 3467 -3466 0 -7226 -3467 3466zm-7933 7933l0 7580 3466 0 0 -11046 -3466 3466zm84300 -8286l19480 0 3466 -3467 -22946 0 0 3467zm-96200 0l19479 0 3467 -3467 -22946 0 0 3467zm0 7933l11546 0 3467 -3467 -15013 0 0 3467z"/>
 </g>
</svg>
