<?xml version="1.0" encoding="UTF-8"?>
<!DOCTYPE svg PUBLIC "-//W3C//DTD SVG 1.1//EN" "http://www.w3.org/Graphics/SVG/1.1/DTD/svg11.dtd">
<!-- Creator: CorelDRAW X7 -->
<svg xmlns="http://www.w3.org/2000/svg" xml:space="preserve" width="100%" height="100%" version="1.1" style="shape-rendering:geometricPrecision; text-rendering:geometricPrecision; image-rendering:optimizeQuality; fill-rule:evenodd; clip-rule:evenodd"
viewBox="0 0 120000 19833"
 xmlns:xlink="http://www.w3.org/1999/xlink">
 <defs>
  <style type="text/css">
   <![CDATA[
    .fil0 {fill:#F6F8FB}
    .fil1 {fill:white}
   ]]>
  </style>
 </defs>
 <g id="Layer_x0020_1">
  <metadata id="CorelCorpID_0Corel-Layer"/>
  <g id="_2142566842064">
   <polygon class="fil0" points="11900,11900 11900,11900 11900,11900 15866,7933 15866,11900 15866,11900 15866,15866 15866,19833 11900,19833 11900,15866 "/>
   <polygon class="fil1" points="91232,0 87265,0 83299,0 79332,0 75365,3967 79332,3967 83299,3967 87265,3967 "/>
   <polygon class="fil1" points="79332,7933 75365,11900 79332,11900 83299,11900 87265,11900 91232,7933 87265,7933 83299,7933 "/>
   <polygon class="fil0" points="75365,15866 75365,19833 79332,15866 79332,11900 75365,11900 79332,7933 79332,3967 75365,3967 75365,7933 75365,11900 "/>
   <path class="fil1" d="M83299 15866l-3967 0 0 3967 3967 0 3966 0 3967 -3967 -3967 0 -3966 0zm-7934 3967l3967 0 0 -3967 -3967 3967z"/>
   <polygon class="fil1" points="75365,7933 71399,7933 67432,7933 63466,11900 67432,11900 71399,11900 75365,11900 "/>
   <polygon class="fil0" points="67432,11900 63466,11900 63466,15866 63466,19833 67432,15866 "/>
   <polygon class="fil1" points="63466,15866 59499,15866 55532,15866 51566,15866 47599,19833 51566,19833 55532,19833 59499,19833 63466,19833 "/>
   <rect class="fil1" x="55532" width="3967" height="3967"/>
   <polygon class="fil0" points="43633,15866 43633,19833 47599,15866 47599,11900 43633,11900 "/>
   <polygon class="fil1" points="39666,15866 35699,15866 35699,19833 39666,19833 43633,19833 43633,15866 "/>
   <polygon class="fil1" points="47599,11900 43633,11900 47599,7933 51566,7933 55532,7933 59499,7933 63466,7933 59499,11900 55532,11900 51566,11900 "/>
   <polygon class="fil1" points="27766,19833 31733,19833 31733,15866 27766,15866 23800,15866 19833,15866 19833,19833 23800,19833 "/>
   <polygon class="fil1" points="27766,7933 31733,7933 35699,7933 39666,7933 35699,11900 31733,11900 27766,11900 23800,11900 19833,11900 23800,7933 "/>
   <polygon class="fil1" points="19833,0 15866,0 11900,0 7933,0 3967,0 0,0 0,3967 3967,3967 7933,3967 11900,3967 15866,3967 19833,3967 23800,0 "/>
   <polygon class="fil0" points="3967,15866 7933,15866 7933,19833 3967,19833 0,19833 0,15866 "/>
   <polygon class="fil1" points="0,11900 3967,11900 7933,11900 11900,11900 15866,7933 11900,7933 7933,7933 3967,7933 0,7933 "/>
   <polygon class="fil1" points="31733,0 35699,0 39666,0 43633,0 47599,0 43633,3967 39666,3967 35699,3967 "/>
   <polygon class="fil0" points="43633,11900 43633,7933 43633,7933 43633,3967 47599,0 47599,3967 47599,7933 47599,7933 "/>
   <polygon class="fil0" points="23800,7933 19833,11900 19833,7933 19833,3967 23800,0 23800,3967 "/>
   <path class="fil0" d="M112067 15866l0 3967 -15867 0 0 -3967 15867 0zm-15867 -11899l0 -3967c7934,0 15867,0 23800,0l-3967 3967c-6611,0 -13222,0 -19833,0zm23800 3966c0,3967 0,7933 0,11900l-3967 0 0 -7933 0 0 -19833 0 0 -3967c7934,0 15867,0 23800,0z"/>
  </g>
 </g>
</svg>
