<?xml version="1.0" encoding="UTF-8"?>
<!DOCTYPE svg PUBLIC "-//W3C//DTD SVG 1.1//EN" "http://www.w3.org/Graphics/SVG/1.1/DTD/svg11.dtd">
<!-- Creator: CorelDRAW X7 -->
<svg xmlns="http://www.w3.org/2000/svg" xml:space="preserve" width="3.41102in" height="1.07992in" version="1.1" style="shape-rendering:geometricPrecision; text-rendering:geometricPrecision; image-rendering:optimizeQuality; fill-rule:evenodd; clip-rule:evenodd"
viewBox="0 0 34110 10799"
 xmlns:xlink="http://www.w3.org/1999/xlink">
 <defs>
  <style type="text/css">
   <![CDATA[
    .fil0 {fill:#D2AE6D}
    .fil2 {fill:#665535}
    .fil3 {fill:white}
    .fil4 {fill:white}
    .fil1 {fill:white;fill-rule:nonzero}
   ]]>
  </style>
 </defs>
 <g id="Layer_x0020_1">
  <metadata id="CorelCorpID_0Corel-Layer"/>
  <g id="_1743765470944">
   <path class="fil0" d="M5399 0l23312 0c2969,0 5399,2430 5399,5399l0 1c0,2969 -2430,5399 -5399,5399l-23312 0c-2969,0 -5399,-2430 -5399,-5399l0 -1c0,-2969 2430,-5399 5399,-5399z"/>
   <path class="fil1" d="M3746 6146c-39,0 -77,-2 -114,-6 -37,-4 -75,-10 -114,-17 -38,-7 -78,-16 -118,-26 -40,-11 -82,-22 -127,-36l-180 -54 108 -364c89,30 180,57 274,80 95,24 184,39 267,46 83,7 156,3 217,-10 61,-14 102,-43 123,-87 7,-14 8,-32 2,-53 -5,-22 -16,-44 -33,-67l-565 -824 319 -206 103 159c0,1 2,4 5,9 3,5 11,16 21,32 11,16 26,39 46,69 19,30 45,69 78,117 32,49 72,108 118,180 48,71 104,156 170,255 51,78 83,158 94,241 12,83 1,162 -31,236 -17,41 -40,78 -69,112 -29,34 -62,64 -100,90 -72,49 -159,83 -260,101 -84,15 -162,23 -234,23zm988 -3l0 -377 650 0c117,0 211,-10 283,-30 72,-20 127,-52 167,-98 39,-45 65,-105 78,-180 13,-75 20,-167 20,-277l0 -1221 376 0 0 1257 0 311c0,35 6,68 17,97 11,29 26,55 46,76 19,21 43,37 71,49 28,11 58,17 92,17l77 0 0 378 -77 0c-100,0 -187,-19 -261,-57 -74,-38 -139,-92 -196,-162 -75,70 -169,124 -283,161 -114,38 -251,56 -410,56l-650 0zm174 -626l-99 -1498 375 -44 100 1542 -376 0zm1641 628l0 -378 886 0c16,0 39,-1 67,-2 28,-2 56,-5 83,-12 27,-7 51,-16 71,-29 19,-13 29,-30 29,-52 0,-44 -16,-96 -49,-158 -33,-62 -75,-127 -126,-197 -52,-70 -110,-140 -174,-211 -64,-71 -128,-139 -191,-201 -63,-64 -123,-119 -178,-168 -56,-48 -100,-85 -133,-109l30 -342 1318 -604 138 331 -1109 489c39,38 81,80 130,128 48,47 97,97 148,150 50,53 100,109 150,165 50,57 97,115 141,171 44,58 83,114 117,168 35,54 62,106 80,154 18,43 30,84 37,123 7,40 11,75 11,108 0,40 -4,76 -11,106 -8,30 -17,56 -25,77 -13,28 -32,58 -57,93 -25,34 -60,66 -105,95 -45,29 -102,54 -170,74 -68,21 -151,31 -247,31l-861 0zm5920 -1048l0 444c0,36 5,66 16,91 10,24 24,45 41,62 16,17 35,29 55,39 20,10 40,17 59,22 19,5 36,8 51,10 14,1 25,2 33,2l93 0 0 378 -93 0c-35,0 -72,-3 -110,-7 -39,-5 -78,-12 -117,-23 -39,-10 -77,-25 -113,-43 -37,-19 -69,-41 -97,-67 -110,92 -260,138 -448,140l-1749 0c-75,0 -145,-13 -212,-38 -67,-26 -126,-62 -177,-111 -21,-19 -41,-43 -64,-70 -21,-27 -41,-59 -58,-96 -17,-38 -31,-80 -42,-127 -11,-47 -17,-100 -17,-158 0,-51 5,-106 15,-165 11,-59 22,-115 35,-167 12,-53 24,-98 35,-137 11,-38 19,-62 21,-71l181 58 178 56c-9,27 -18,60 -28,97 -11,39 -20,77 -29,118 -9,41 -17,79 -23,117 -6,37 -9,69 -9,96 0,49 7,88 20,118 14,30 31,52 50,68 20,16 41,26 65,31 23,5 44,8 62,8l1735 0c56,0 103,-6 142,-16 40,-11 69,-26 88,-46 23,-27 35,-64 35,-114l0 -499 376 0zm-2024 1543l257 -258 258 260 -258 258 -257 -260zm632 2l260 -257 258 261 -258 257 -260 -261zm-302 425l240 -240 242 243 -240 239 -242 -242zm3102 -2195c3,7 7,24 14,50 6,26 14,58 21,96 9,38 17,80 25,127 9,46 17,93 25,140 7,47 13,92 18,137 5,44 7,83 7,116 0,104 -17,195 -52,271 -34,76 -79,139 -135,188 -55,50 -118,87 -186,111 -70,24 -139,37 -209,37l-653 0 0 -378 664 0c11,0 29,-1 52,-5 23,-4 46,-13 68,-28 23,-15 43,-38 60,-69 17,-31 26,-73 26,-127 0,-22 -2,-49 -6,-81 -3,-31 -8,-66 -14,-102 -6,-36 -13,-73 -21,-111 -7,-38 -15,-74 -21,-108 -8,-34 -15,-64 -21,-92 -8,-28 -13,-49 -17,-64l355 -108zm-183 2098l-255 -257 251 -261 261 261 -257 257zm-635 2l-255 -258 250 -261 261 261 -256 258zm2867 -827l-122 0c-135,0 -263,-59 -385,-178 -34,40 -73,72 -119,98 -46,26 -95,46 -148,61 -52,15 -106,26 -160,32 -54,6 -106,9 -155,9 -38,0 -77,-2 -117,-6 -39,-5 -84,-13 -134,-23 -50,-11 -107,-25 -172,-43 -64,-18 -142,-40 -232,-67l109 -362c62,24 126,45 191,64 66,19 130,34 193,46 62,11 122,19 180,22 57,4 109,3 155,-3 45,-7 84,-18 115,-34 32,-17 54,-40 65,-68 5,-12 7,-23 7,-32 0,-10 -2,-21 -8,-35 -5,-13 -14,-29 -27,-48 -12,-18 -27,-42 -46,-73l-538 -756 318 -204 541 819c29,44 60,91 92,138 32,48 65,91 97,130 33,39 64,70 94,96 30,25 58,38 84,38l122 0 0 379zm793 -1273c2,7 6,24 13,50 6,26 14,58 22,96 8,38 16,80 25,127 8,46 16,93 24,140 7,47 13,92 18,137 5,44 7,83 7,116 0,104 -17,195 -52,271 -34,76 -79,139 -135,188 -55,50 -117,87 -186,111 -70,24 -139,37 -209,37l-403 0 0 -378 414 0c12,0 29,-1 52,-5 23,-4 46,-13 68,-28 23,-15 43,-38 60,-69 17,-31 26,-73 26,-127 0,-22 -2,-49 -6,-81 -3,-31 -8,-66 -14,-102 -6,-36 -13,-73 -21,-111 -7,-38 -15,-74 -21,-108 -7,-34 -15,-64 -21,-92 -8,-28 -13,-49 -17,-64l356 -108zm-641 -608l273 -275 279 278 -276 276 -276 -279zm2133 1881l-57 0c-42,0 -81,-3 -118,-8 -37,-5 -73,-19 -108,-42 -12,130 -42,248 -89,354 -48,106 -112,197 -191,272 -79,75 -174,134 -284,175 -110,41 -234,62 -371,62l-189 0 0 -377 189 0c97,0 181,-10 252,-30 70,-21 128,-53 174,-98 45,-44 79,-102 101,-173 22,-71 34,-158 34,-260l0 -923 377 0 0 454c0,46 10,84 29,112 20,28 43,50 69,65 25,16 50,27 75,32 24,5 41,7 50,7l57 0 0 378zm923 -4c-185,0 -332,-48 -439,-144 -56,52 -118,89 -185,113 -68,23 -138,35 -209,35l-341 0 0 -378 341 0c12,0 29,-2 52,-6 23,-4 46,-14 68,-29 23,-16 43,-39 60,-70 17,-31 26,-74 26,-128l0 -6 0 -431 377 0 0 431c0,83 20,143 58,181 39,38 103,57 192,57 12,0 30,-3 52,-7 23,-4 46,-15 69,-31 22,-16 42,-40 59,-72 17,-32 26,-75 26,-128l0 -431 376 0 0 431c0,83 20,144 60,183 40,39 104,58 194,58 14,0 31,-3 54,-8 23,-6 45,-17 67,-34 23,-16 42,-41 58,-72 16,-31 25,-74 25,-127 0,-22 -2,-49 -6,-81 -3,-31 -8,-64 -13,-99 -6,-35 -13,-70 -19,-106 -7,-36 -15,-70 -22,-102 -7,-32 -14,-61 -20,-88 -7,-26 -12,-47 -16,-62l356 -116c2,6 6,23 12,48 6,25 14,57 22,94 9,37 18,79 27,124 9,46 17,91 25,137 7,46 14,91 19,135 5,44 7,83 7,116 0,103 -17,193 -51,270 -34,78 -78,142 -132,193 -55,51 -116,89 -185,114 -69,25 -138,38 -208,40 -188,0 -336,-50 -445,-149 -56,51 -117,89 -184,111 -67,23 -136,34 -207,34z"/>
   <polygon class="fil2" points="22931,1563 22775,1563 22775,9236 22931,9236 "/>
   <polygon class="fil3" points="22618,1563 22775,1563 22775,9236 22618,9236 "/>
   <path class="fil4" d="M26738 6529l0 0zm4829 -3830c-721,-721 -1680,-1118 -2701,-1118 -1020,-1 -1979,396 -2700,1118 -722,721 -1118,1680 -1118,2701 0,1020 397,1979 1118,2700 722,722 1680,1119 2700,1119 1021,0 1980,-397 2702,-1119 721,-721 1118,-1680 1117,-2700 0,-1021 -396,-1979 -1118,-2701zm-2701 6282c-956,-1 -1855,-374 -2532,-1049 -675,-677 -1048,-1576 -1048,-2532 0,-956 373,-1857 1048,-2532 677,-677 1576,-1049 2532,-1049 956,0 1857,372 2532,1049 677,675 1049,1576 1050,2532 -1,957 -373,1855 -1050,2532 -675,675 -1574,1048 -2532,1049zm2128 -2452l0 0zm-2128 -2524c654,0 991,462 1080,1055 665,-203 1315,97 1315,826 0,502 -406,908 -909,908l-2971 0c-502,0 -908,-406 -908,-908 0,-729 649,-1029 1314,-826 89,-593 427,-1055 1079,-1055l0 0zm1486 3027c154,0 302,-31 438,-87 141,-58 268,-144 373,-249 105,-105 190,-232 248,-372 106,-255 114,-545 35,-808 -77,-250 -227,-440 -425,-569 -192,-124 -425,-188 -674,-188 -71,0 -143,6 -217,17 -171,-612 -609,-1009 -1264,-1009 -654,0 -1092,397 -1262,1009 -74,-11 -147,-17 -218,-17 -248,0 -482,64 -673,188 -199,129 -349,319 -426,569 -79,263 -71,553 35,808 58,140 142,267 248,372 105,105 232,191 373,249 136,56 284,87 438,87l2971 0z"/>
  </g>
 </g>
</svg>
