<?xml version="1.0" encoding="UTF-8"?>
<!DOCTYPE svg PUBLIC "-//W3C//DTD SVG 1.1//EN" "http://www.w3.org/Graphics/SVG/1.1/DTD/svg11.dtd">
<!-- Creator: CorelDRAW X7 -->
<svg xmlns="http://www.w3.org/2000/svg" xml:space="preserve" width="20.051in" height="14.2149in" version="1.1" style="shape-rendering:geometricPrecision; text-rendering:geometricPrecision; image-rendering:optimizeQuality; fill-rule:evenodd; clip-rule:evenodd"
viewBox="0 0 200510 142149"
 xmlns:xlink="http://www.w3.org/1999/xlink">
 <defs>
  <style type="text/css">
   <![CDATA[
    .fil0 {fill:#FBF7F0}
   ]]>
  </style>
 </defs>
 <g id="Layer_x0020_1">
  <metadata id="CorelCorpID_0Corel-Layer"/>
  <path class="fil0" d="M138835 47309c711,482 1550,715 2384,684 819,-30 1634,-311 2324,-857l5 0 5695 -4513c573,653 1152,1275 1736,1866 832,839 1656,1597 2471,2272 1361,1126 2732,2057 4112,2789 1392,738 2789,1271 4187,1593 2430,562 4913,465 7429,-284 2456,-731 4938,-2086 7428,-4059 2469,-1956 4386,-4080 5741,-6356 1381,-2317 2174,-4776 2372,-7363 156,-2054 -35,-4100 -570,-6129 -531,-2016 -1397,-4002 -2595,-5948 -276,-449 -583,-912 -919,-1391 -323,-459 -665,-917 -1028,-1374 -1146,-1446 -2370,-2723 -3669,-3828 -1303,-1109 -2669,-2030 -4094,-2760 -899,-461 -1804,-842 -2712,-1143 -916,-302 -1864,-534 -2845,-696 -2224,-365 -4409,-304 -6541,180 -2126,483 -4187,1382 -6167,2694 -266,175 -512,389 -736,633 -221,242 -411,507 -563,787 -112,207 -204,415 -275,622 -70,204 -124,423 -160,655 -88,550 -58,1106 80,1632 138,528 385,1029 731,1466l0 5 2123 2678c631,796 1510,1290 2447,1451 935,161 1927,-11 2788,-549 905,-566 1787,-949 2658,-1151 849,-198 1694,-227 2546,-90 1056,170 2078,580 3061,1227 1016,669 1999,1600 2939,2786 929,1172 1595,2334 1994,3476 386,1103 526,2196 418,3269 -107,1054 -461,2070 -1058,3042 -621,1010 -1503,1970 -2641,2872 -1601,1269 -3096,2094 -4473,2473 -1275,350 -2459,314 -3542,-111 -1275,-500 -2647,-1396 -4106,-2681 -1517,-1336 -3103,-3067 -4746,-5184l-11 -16 -918 -1159c-683,-861 -1652,-1364 -2666,-1481 -1012,-117 -2070,152 -2933,836l-10095 8001 2 2c-417,332 -757,733 -1007,1182 -254,456 -417,957 -478,1481 -61,528 -17,1052 124,1549 141,496 382,966 714,1385l2153 2717 3 -2c135,170 271,318 407,444 141,132 301,257 476,376zm-3478 7641c444,-791 723,-1666 834,-2618 108,-942 35,-1855 -218,-2731 -253,-877 -679,-1694 -1275,-2447 -600,-757 -1297,-1358 -2085,-1801 -791,-444 -1666,-722 -2617,-832 -941,-110 -1853,-37 -2730,216 -877,253 -1695,679 -2449,1276 -758,601 -1359,1298 -1801,2086 -445,792 -723,1666 -832,2616 -106,911 -41,1794 191,2644 233,851 628,1647 1184,2383l2 -2 115 149 0 5c233,294 484,566 751,817 262,246 547,474 855,682 462,313 952,564 1469,752 518,189 1062,316 1628,382 941,109 1853,36 2730,-216 871,-252 1688,-678 2443,-1276l5 0c757,-600 1358,-1297 1800,-2085zm-1766 -2915c-70,602 -243,1148 -517,1635 -275,491 -657,931 -1144,1317l2 3c-489,387 -1004,658 -1540,813 -532,153 -1105,195 -1716,124 -371,-43 -716,-123 -1035,-239 -322,-117 -621,-269 -895,-454 -176,-120 -352,-262 -528,-427 -171,-161 -336,-341 -494,-541l-3 2 -74 -97 0 -5c-361,-478 -612,-977 -753,-1493 -142,-516 -179,-1071 -110,-1661 69,-601 241,-1146 514,-1633 276,-491 658,-931 1147,-1319 492,-389 1005,-662 1537,-815 532,-153 1106,-195 1717,-124 601,69 1147,242 1634,515 491,275 931,658 1318,1146 389,490 661,1004 814,1536 154,532 196,1106 126,1717zm43101 47825c-533,-90 -1077,-72 -1628,56 -552,128 -1052,353 -1495,673 -442,318 -815,719 -1116,1201 -301,484 -498,997 -589,1532 -91,536 -72,1081 56,1633l1 0c124,530 338,1013 640,1445 300,428 681,795 1140,1097l0 5 34 22 20 10 34 22 5 5c183,113 376,215 579,303 195,85 403,156 621,212 320,83 647,125 980,127 331,2 658,-35 980,-109 553,-129 1052,-353 1496,-673 442,-318 815,-719 1115,-1201 301,-484 498,-996 589,-1532 90,-532 72,-1076 -56,-1628l0 -5c-128,-548 -353,-1046 -673,-1491 -319,-442 -720,-815 -1201,-1115 -484,-301 -996,-498 -1532,-589zm-1598 2847c155,-111 340,-192 554,-242 215,-50 420,-58 614,-25 192,32 385,109 580,231 196,122 351,262 464,418 111,154 192,341 243,559l1 0c49,213 57,417 24,611 -32,191 -109,385 -230,579 -123,197 -263,352 -420,464 -155,112 -340,193 -553,243 -140,32 -269,48 -387,47 -116,0 -232,-15 -345,-44 -66,-17 -140,-44 -222,-79 -74,-33 -154,-76 -241,-130l-1 2 -9 -6 2 -2 -34 -21 -2 3c-179,-118 -323,-255 -432,-410 -105,-151 -183,-331 -231,-538l0 -6c-50,-213 -58,-417 -25,-609 32,-191 109,-385 231,-580 122,-197 262,-352 419,-465zm5336 -12691l-3428 5501c-186,297 -309,627 -366,973 -56,339 -46,686 33,1027 80,345 225,665 426,945 203,285 459,527 757,713l1481 922c112,70 232,133 361,188 112,48 241,90 382,127 553,142 1132,100 1648,-106 507,-203 956,-562 1266,-1059l1613 -2588c211,110 420,215 629,315 559,268 1097,496 1615,684 883,320 1733,540 2550,659 840,122 1647,139 2416,49 1361,-159 2625,-667 3784,-1516 1109,-813 2112,-1936 3001,-3361 882,-1416 1460,-2821 1732,-4205 280,-1422 234,-2820 -139,-4182 -295,-1078 -762,-2081 -1395,-3005 -628,-916 -1419,-1757 -2368,-2518 -234,-188 -469,-365 -705,-531 -242,-171 -492,-337 -749,-497 -827,-516 -1662,-933 -2502,-1250 -846,-321 -1697,-537 -2551,-649 -526,-69 -1052,-97 -1577,-85 -524,13 -1046,67 -1564,161 -1209,221 -2314,649 -3307,1281l0 5c-990,630 -1871,1457 -2634,2477 -139,186 -248,374 -326,561l4 2c-84,199 -143,408 -176,621 -23,148 -33,296 -31,444 2,159 16,310 43,452 69,366 212,709 417,1008 206,302 474,561 788,757l1460 910c575,358 1237,472 1860,363 619,-109 1203,-441 1625,-975 284,-359 585,-641 906,-848 298,-192 616,-319 956,-382 440,-82 905,-63 1391,56 526,128 1085,376 1674,742 577,360 1035,749 1370,1164 310,384 520,793 627,1225 105,426 109,873 11,1338 -106,503 -334,1035 -682,1594 -499,800 -1007,1382 -1521,1742 -428,301 -866,445 -1309,432 -613,-19 -1341,-196 -2178,-529 -902,-359 -1911,-893 -3019,-1599l-10 -10 -631 -393c-621,-387 -1340,-486 -2000,-333 -665,155 -1271,561 -1658,1183zm-1207 6883l3428 -5501c6,-9 13,-14 20,-16 12,-3 25,-1 35,5l631 393 2 -2c1243,791 2394,1397 3447,1816 1121,446 2147,685 3069,713 1014,31 1975,-271 2875,-902 815,-572 1566,-1406 2247,-2500 508,-815 849,-1632 1020,-2444 179,-850 169,-1683 -31,-2494 -201,-810 -578,-1557 -1129,-2238 -525,-650 -1202,-1234 -2026,-1748 -817,-509 -1632,-863 -2440,-1060 -847,-206 -1675,-235 -2477,-86 -687,128 -1316,376 -1897,750 -558,359 -1069,835 -1541,1432 -5,6 -15,10 -29,12 -9,2 -19,0 -27,-4l-1460 -910 -10 -10c-4,-6 -7,-11 -8,-15 -1,-9 -2,5 -2,-2 0,-6 0,-10 1,-13l2 -10 5 0c6,-13 -7,1 -1,-7 574,-767 1224,-1382 1946,-1842l2 4c720,-458 1511,-767 2366,-923 386,-70 774,-110 1164,-119 389,-10 781,12 1178,64 645,84 1302,253 1968,505 672,254 1353,596 2042,1025 218,136 426,275 626,415 206,146 396,288 571,429 748,599 1365,1252 1846,1955 476,694 822,1434 1037,2217 262,959 291,1959 88,2994 -211,1072 -673,2183 -1384,3325 -712,1141 -1489,2021 -2325,2634 -787,576 -1634,919 -2536,1025 -549,64 -1133,51 -1751,-39 -643,-93 -1320,-269 -2028,-526 -457,-166 -917,-360 -1379,-582 -474,-227 -963,-488 -1467,-784 -330,-194 -706,-238 -1045,-153l-5 0c-340,85 -651,298 -852,620l-2220 3563c-5,7 -11,13 -18,15 -10,4 -21,6 -30,4 -11,-3 10,1 -4,-5 -4,-2 4,1 -2,-3l-1481 -923 -10 -6 -6 -14c-3,-10 -3,-18 -2,-24l7 -10zm-29695 -12707l-13401 0 0 3347 13401 0 0 -3347zm-13401 -10053l16748 0 3353 -3352 -20101 0 0 3352zm0 6700l16748 0 0 6700 3353 0 0 -10052 -20101 0 0 3352zm16155 52508c-528,-291 -1111,-471 -1744,-540 -630,-67 -1236,-14 -1814,158 -580,172 -1120,459 -1617,859 -499,403 -895,870 -1185,1397 -291,528 -472,1111 -540,1744 -67,629 -15,1235 157,1813 173,580 460,1121 860,1617 403,500 870,896 1397,1186 529,292 1112,472 1744,540 609,65 1195,18 1756,-140 562,-159 1089,-426 1575,-799l10 -5 38 -29 10 -10 36 -29 5 -5c198,-160 378,-327 540,-503 165,-178 315,-369 450,-573 205,-307 369,-635 493,-984 120,-340 201,-701 243,-1081 67,-629 14,-1235 -158,-1813 -172,-580 -459,-1121 -859,-1618 -403,-499 -869,-895 -1397,-1185zm-1259 2293c229,126 435,303 619,530 185,231 315,470 389,717 73,248 95,515 65,799 -19,171 -56,334 -110,488 -52,145 -120,283 -206,411 -55,83 -120,165 -195,246 -76,82 -158,159 -247,231l0 0 -25 20 -2 -2 -37 29 2 2c-221,168 -450,285 -686,352 -241,68 -499,87 -774,58 -280,-30 -535,-108 -761,-232 -228,-126 -435,-303 -619,-531 -186,-231 -316,-470 -389,-717 -74,-248 -95,-515 -65,-800 30,-280 108,-535 233,-761 125,-229 303,-435 530,-619 230,-185 470,-315 716,-388 248,-74 516,-96 800,-66 281,31 536,109 762,233zm-7483 -29844c-1443,-844 -2972,-1323 -4576,-1432 -1274,-87 -2536,40 -3779,379 -1218,331 -2429,873 -3626,1624 -309,194 -589,381 -840,560 -283,202 -559,412 -829,630 -883,712 -1655,1462 -2313,2249 -666,795 -1222,1638 -1669,2528 -277,550 -506,1109 -688,1676 -183,568 -322,1155 -416,1758 -216,1385 -168,2738 141,4050 309,1312 874,2580 1693,3793l2 -1c137,202 291,380 459,531 167,151 361,285 575,399 142,76 293,140 451,193 171,56 330,96 474,118 397,60 799,35 1179,-68 381,-103 743,-285 1057,-539l1565 -1261c572,-462 925,-1101 1036,-1780 111,-675 -20,-1392 -415,-2013 -304,-476 -510,-939 -620,-1394 -101,-420 -117,-848 -50,-1290 83,-548 291,-1079 622,-1590 359,-556 863,-1097 1508,-1617 641,-516 1270,-885 1881,-1104 571,-205 1136,-283 1690,-232 535,50 1058,229 1564,534 544,328 1064,800 1559,1413 706,877 1165,1688 1375,2428 180,635 170,1219 -32,1746 -267,699 -755,1456 -1458,2268 -756,873 -1742,1791 -2954,2747l-10 5 -677 546c-620,500 -979,1204 -1058,1938 -78,732 122,1495 621,2113l4752 5898c240,297 534,541 865,722 331,180 694,295 1073,336 380,41 759,6 1119,-100 359,-105 697,-281 995,-521l1587 -1279c119,-97 227,-198 323,-302l-3 -3c109,-119 199,-234 273,-344 342,-514 504,-1121 477,-1725 -27,-594 -235,-1183 -633,-1677l-2366 -2936c259,-238 503,-473 734,-705 495,-498 949,-1001 1360,-1506 687,-844 1249,-1684 1682,-2518 445,-855 766,-1725 962,-2605 339,-1525 267,-3075 -213,-4641 -462,-1508 -1302,-3020 -2515,-4525 -1204,-1494 -2512,-2654 -3914,-3474zm-4750 1178c1201,82 2347,441 3429,1074 1124,657 2192,1612 3198,2859 1005,1247 1691,2469 2054,3656 347,1129 401,2235 162,3310 -141,634 -387,1288 -736,1960 -362,695 -824,1388 -1385,2078 -354,434 -749,871 -1187,1312 -458,460 -939,905 -1442,1333l-5 0c-290,248 -456,595 -489,956 -31,352 68,718 306,1012l3078 3820c38,46 57,100 60,152 2,58 -14,118 -47,168l-20 30 -5 0 -26 26 -1587 1279c-30,24 -62,41 -94,50 -31,9 -67,12 -105,8 -39,-4 -73,-14 -101,-29 -26,-15 -52,-37 -77,-67l-4752 -5897c-47,-58 -65,-130 -58,-199 8,-68 40,-133 96,-178l677 -546 -1 -1c1346,-1064 2449,-2092 3303,-3079 909,-1049 1554,-2067 1929,-3045 407,-1064 441,-2195 103,-3384 -307,-1084 -927,-2206 -1856,-3360 -693,-860 -1443,-1533 -2244,-2017 -838,-505 -1734,-804 -2681,-892 -934,-86 -1871,40 -2806,375 -895,321 -1776,830 -2638,1524 -861,695 -1550,1441 -2061,2231 -540,836 -882,1713 -1021,2624 -117,765 -83,1526 102,2293 177,733 495,1457 957,2183 36,57 48,125 37,190 -10,62 -42,121 -94,163l-1565 1261c-28,22 -60,38 -96,48 -37,10 -76,12 -114,6 -33,-5 -41,-4 -44,-6 -12,-3 -26,-10 -41,-18 -13,-6 -31,-20 -54,-41 -20,-18 -34,-33 -41,-43l0 -6c-641,-949 -1079,-1926 -1314,-2923 -235,-997 -272,-2018 -110,-3057 71,-457 179,-910 323,-1358 145,-451 323,-887 535,-1308 346,-689 793,-1362 1341,-2016 553,-661 1202,-1292 1944,-1891 240,-192 475,-372 707,-537 262,-188 498,-348 707,-479 957,-600 1935,-1036 2930,-1307 969,-264 1943,-363 2919,-297zm-7024 -13400c3688,3688 8782,5969 14409,5969 5627,0 10721,-2281 14409,-5969 3688,-3687 5969,-8782 5969,-14408 0,-5627 -2281,-10722 -5969,-14409 -3688,-3688 -8782,-5969 -14409,-5969 -5627,0 -10721,2281 -14409,5969 -3687,3687 -5968,8782 -5968,14409 0,5626 2281,10721 5968,14408zm14409 3349c-9807,0 -17757,-7951 -17757,-17757 0,-9807 7950,-17758 17757,-17758 9807,0 17757,7951 17757,17758 0,9806 -7950,17757 -17757,17757zm-42394 6404l-4135 0 -3990 0 -30051 0 -1311 0 0 1310 0 6358 0 1311 1311 0 14907 0 6296 0 16973 0 1310 0 0 -1311 0 -6358 0 -1310 -1310 0zm-36866 2621l25313 0 4358 0 5884 0 0 3737 -11112 0 -5197 0 -19246 0 0 -3737zm38176 -15355l-1310 0 -30293 0 -7883 0 -1311 0 0 1310 0 329 0 4144 0 1894 0 930 0 380 1311 0 34162 0 3620 0 394 0 1310 0 0 -1310 0 -637 0 -4224 0 -1506 0 -1310zm-2621 2620l0 3456 0 291 -253 0 -32843 0 -2459 0 0 -1734 0 -2013 4101 0 3583 0 27871 0zm2621 -7668l0 -6368 0 -1310 -1310 0 -37299 0 -877 0 -1311 0 0 1310 0 6368 0 1310 602 0 709 0 38176 0 1310 0 0 -1310zm-2621 -5057l0 3747 -35555 0 0 -3747 35555 0zm13856 -21015c0,5148 -685,10136 -1967,14879 -1627,-2478 -3549,-4743 -5712,-6747 -6454,-5977 -15055,-9624 -24378,-9624 -400,0 -875,10 -1423,32 -528,20 -1003,47 -1418,80 -4267,334 -8305,1402 -11998,3071l1461 -8279c90,-511 134,-1016 134,-1511 0,-2078 -754,-4017 -2020,-5526 -1267,-1509 -3046,-2590 -5096,-2951 -492,-87 -997,-133 -1511,-133l-17635 0 -1035 0 -239 1014 -529 2239 -355 1503 1548 99c14,1 5170,282 4415,4560l-3826 21685 -2681 15188c-320,1815 -157,3665 428,5370 585,1710 1593,3275 2960,4515 1091,991 2261,1693 3483,2163 1141,5628 3603,10777 7035,15119 -14303,-870 -27178,-7028 -36695,-16545 -10288,-10288 -16651,-24501 -16651,-40201 0,-15699 6363,-29913 16651,-40201 10288,-10288 24502,-16652 40201,-16652 15700,0 29913,6364 40201,16652 10288,10288 16652,24502 16652,40201zm-146 17979c1797,-5672 2766,-11712 2766,-17979 0,-16423 -6657,-31291 -17419,-42054 -10763,-10762 -25631,-17419 -42054,-17419 -16423,0 -31291,6657 -42054,17419 -10762,10763 -17419,25631 -17419,42054 0,16423 6657,31291 17419,42054 10515,10514 24948,17110 40922,17409 476,493 967,974 1470,1440 6450,5973 15051,9620 24380,9620l0 5 3 0c401,0 875,-10 1421,-32 523,-20 997,-47 1416,-80 2274,-178 4515,-570 6709,-1171 2088,-572 4117,-1330 6072,-2271 2377,1707 5999,4004 10436,5849 3255,1355 6954,2473 10935,2951l2955 356 -1742 -2418c-1375,-1909 -3842,-5621 -5769,-10088 -1209,-2805 -2198,-5894 -2547,-8984 2278,-3372 3941,-7024 4962,-10851 1036,-3885 1408,-7945 1085,-12069 -384,-4928 -1770,-9573 -3947,-13741zm-53891 -37782c2618,0 5291,-607 7462,-1710l-1 -2c2180,-1109 4037,-2737 5331,-4723 1242,-1906 1966,-4132 1966,-6538 0,-1717 -369,-3198 -1018,-4455 -949,-1838 -2470,-3154 -4295,-4004 -1755,-817 -3789,-1201 -5848,-1201 -2618,0 -5308,625 -7524,1769 -2225,1148 -4097,2762 -5393,4745 -1235,1891 -1947,4106 -1947,6562 0,1653 352,3083 971,4303 945,1859 2494,3188 4356,4046 1787,824 3857,1208 5940,1208zm6274 -4044c-1807,919 -4054,1424 -6274,1424 -1730,0 -3421,-307 -4845,-963 -1348,-621 -2458,-1562 -3117,-2859 -437,-859 -685,-1893 -685,-3115 0,-1925 555,-3655 1518,-5129 1046,-1601 2574,-2913 4400,-3855 1844,-952 4105,-1471 6326,-1471 1695,0 3347,305 4742,955 1325,617 2417,1548 3077,2827 460,890 722,1971 722,3257 0,1884 -566,3626 -1536,5115 -1041,1596 -2546,2912 -4323,3814l-5 0zm-252 16809l-1802 10214c-3667,2081 -6922,4783 -9631,7950 -5994,7008 -9321,16294 -8549,26187 30,384 66,767 108,1148 -423,-264 -833,-573 -1227,-931 -1037,-941 -1801,-2126 -2244,-3420 -444,-1296 -568,-2702 -325,-4081l2680 -15188 3827 -21684c847,-4801 -2476,-6587 -4783,-7245l16033 0c366,0 721,31 1061,91 1423,251 2659,1002 3539,2051 881,1050 1406,2400 1406,3847 0,351 -30,706 -93,1061zm-9447 19863c2036,-2380 4404,-4477 7039,-6213 954,-629 1944,-1211 2966,-1742 3854,-2003 8163,-3282 12759,-3640l5 0c489,-39 924,-65 1306,-80 372,-15 817,-22 1330,-22 8651,0 16627,3380 22607,8918 2553,2364 4742,5122 6466,8178 593,1050 1130,2135 1608,3252 1390,3246 2280,6757 2567,10439 300,3839 -43,7609 -1004,11209 -959,3597 -2537,7033 -4705,10207l-5 11c-137,203 -237,426 -295,656 -58,232 -76,476 -49,723l0 0c362,3461 1441,6872 2763,9937 1353,3137 2968,5928 4322,8032 -2609,-544 -5061,-1353 -7293,-2282 -4390,-1827 -7923,-4100 -10164,-5730l2 -3c-181,-133 -378,-232 -582,-299 -214,-69 -431,-104 -643,-104 -149,0 -306,19 -467,56 -155,36 -307,89 -451,161 -1907,939 -3876,1686 -5892,2238 -2013,552 -4092,912 -6223,1079l-5 0c-487,38 -926,65 -1314,80 -371,15 -812,22 -1318,22l-3 0 0 5c-8423,0 -16209,-3209 -22137,-8495 -159,-142 -316,-285 -472,-429 -735,-680 -1439,-1393 -2111,-2136 -3674,-4063 -6376,-9032 -7707,-14535 -217,-901 -398,-1817 -541,-2745 -124,-809 -219,-1627 -284,-2455 -716,-9181 2368,-17796 7925,-24293zm22564 -14205l0 0zm80905 -9498c-1173,-271 -2358,-725 -3553,-1359 -1209,-641 -2431,-1473 -3661,-2491 -772,-639 -1534,-1339 -2287,-2099 -755,-763 -1519,-1606 -2291,-2528 -261,-311 -626,-490 -1003,-527l-5 0c-371,-37 -759,65 -1075,316l-6538 5182 2 2c-236,186 -515,282 -795,292 -293,11 -585,-69 -828,-234 -47,-31 -100,-75 -159,-130 -60,-55 -108,-106 -144,-151l0 -5 -2153 -2717c-112,-141 -194,-302 -243,-474 -48,-170 -63,-351 -42,-535 22,-186 76,-358 160,-509 87,-156 204,-294 345,-406l6 0 10095 -8000c293,-233 658,-325 1008,-284 348,40 681,213 915,509l919 1159 1 -1c1756,2261 3451,4110 5073,5538 1685,1484 3317,2538 4884,3152 1615,634 3346,697 5180,193 1731,-476 3540,-1458 5415,-2944 1383,-1096 2467,-2282 3244,-3547 801,-1303 1279,-2692 1427,-4158 146,-1454 -38,-2919 -551,-4385 -499,-1426 -1304,-2844 -2414,-4243 -1104,-1394 -2292,-2509 -3553,-3339 -1296,-853 -2661,-1397 -4084,-1626 -1197,-192 -2374,-154 -3549,120 -1153,268 -2297,760 -3447,1479 -299,186 -642,246 -966,191 -321,-55 -622,-226 -839,-499l-2123 -2679 -3 2c-117,-148 -200,-319 -248,-500 -48,-185 -59,-378 -29,-567 11,-69 31,-145 58,-226 28,-81 58,-152 91,-212 55,-102 121,-195 195,-276 68,-75 154,-146 254,-213 1719,-1139 3489,-1915 5297,-2325 1803,-410 3656,-460 5548,-149 821,135 1637,336 2446,604 817,270 1598,596 2344,978 1249,640 2448,1449 3592,2423 1147,975 2251,2133 3311,3469 328,415 640,832 936,1252 282,401 557,820 826,1257 1069,1737 1837,3487 2299,5243 458,1740 622,3499 488,5269 -167,2182 -837,4259 -2003,6216 -1191,1999 -2903,3887 -5128,5650 -2222,1761 -4409,2962 -6547,3598 -2078,619 -4116,701 -6098,244z"/>
 </g>
</svg>
