<?xml version="1.0" encoding="UTF-8"?>
<!DOCTYPE svg PUBLIC "-//W3C//DTD SVG 1.1//EN" "http://www.w3.org/Graphics/SVG/1.1/DTD/svg11.dtd">
<!-- Creator: CorelDRAW X7 -->
<svg xmlns="http://www.w3.org/2000/svg" xml:space="preserve" width="2.91886in" height="0.924134in" version="1.1" style="shape-rendering:geometricPrecision; text-rendering:geometricPrecision; image-rendering:optimizeQuality; fill-rule:evenodd; clip-rule:evenodd"
viewBox="0 0 29189 9241"
 xmlns:xlink="http://www.w3.org/1999/xlink">
 <defs>
  <style type="text/css">
   <![CDATA[
    .fil1 {fill:#7C94CA}
    .fil2 {fill:#DFE5F2}
    .fil0 {fill:white}
    .fil3 {fill:#7C94CA;fill-rule:nonzero}
   ]]>
  </style>
 </defs>
 <g id="Layer_x0020_1">
  <metadata id="CorelCorpID_0Corel-Layer"/>
  <g id="_2555813742784">
   <path class="fil0" d="M24568 0l-19947 0c-2542,0 -4621,2079 -4621,4620l0 1c0,2541 2079,4620 4621,4620l19947 0c2541,0 4621,-2079 4621,-4620l0 -1c0,-2541 -2080,-4620 -4621,-4620z"/>
   <path class="fil1" d="M24568 203l-19947 0c-1215,0 -2319,497 -3120,1298 -801,801 -1298,1905 -1298,3120l0 0c0,1215 497,2319 1298,3119 801,801 1905,1298 3120,1298l19947 0c1214,0 2319,-497 3120,-1298 800,-800 1297,-1904 1297,-3119l0 0c0,-1215 -497,-2319 -1297,-3120 -801,-801 -1906,-1298 -3120,-1298zm0 -203l-19947 0c-2542,0 -4621,2079 -4621,4621l0 0c0,2541 2079,4620 4621,4620l19947 0c2541,0 4621,-2079 4621,-4620l0 0c0,-2542 -2080,-4621 -4621,-4621z"/>
   <polygon class="fil2" points="19756,1338 19489,1338 19489,7904 19756,7904 "/>
   <polygon class="fil1" points="19355,1338 19489,1338 19489,7904 19355,7904 "/>
   <path class="fil3" d="M24540 6737l-205 0 0 -511c-147,-44 -282,-114 -389,-209 -93,-83 -169,-184 -220,-305 -47,-112 -74,-240 -74,-382l204 0c0,51 5,101 13,146 9,56 25,108 45,157 39,91 96,168 166,230 54,47 116,87 184,118 22,11 46,21 71,30l0 -1343c-129,-37 -254,-86 -367,-156 -66,-41 -123,-90 -170,-146 -116,-134 -172,-303 -177,-474 -4,-169 41,-341 133,-488 45,-73 101,-140 168,-197 114,-97 258,-166 413,-206l0 -497 205 0 0 4233zm323 -4233l205 0 0 509c151,45 289,114 400,209 100,86 181,191 236,316 50,118 79,251 79,401l-204 0c0,-74 -9,-142 -24,-204 -10,-41 -22,-79 -38,-115 -42,-96 -104,-177 -181,-243 -42,-36 -88,-67 -138,-93 -41,-23 -85,-41 -130,-57l0 1404c127,36 246,83 355,150 49,30 93,64 133,103 41,41 77,85 107,136 91,157 113,350 79,531 -35,185 -129,361 -267,481 -113,99 -254,167 -407,207l0 498 -205 0 0 -4233zm-528 1950l0 -1242c-106,33 -203,83 -281,150 -49,43 -92,94 -128,149 -70,113 -105,247 -101,376 3,126 44,250 128,347 33,40 74,75 123,105 78,49 166,86 259,115l0 0zm736 1573c102,-34 195,-83 271,-148 102,-90 173,-223 200,-366 25,-135 10,-277 -56,-391 -20,-34 -44,-65 -72,-92 -28,-27 -62,-53 -98,-76 -66,-40 -139,-72 -215,-98 -11,-4 -22,-8 -33,-11l0 1183 3 -1zm-370 -4674c874,0 1694,340 2311,958 618,616 957,1438 957,2310 0,873 -339,1693 -957,2311 -617,616 -1437,957 -2311,957 -873,0 -1693,-341 -2311,-957 -616,-618 -956,-1438 -956,-2311 0,-872 340,-1694 956,-2310 618,-618 1438,-958 2311,-958zm-2166 5434c579,579 1349,897 2166,897 819,0 1588,-318 2166,-897 580,-579 899,-1348 899,-2166 0,-819 -319,-1587 -899,-2166 -578,-578 -1347,-898 -2166,-898 -817,0 -1587,320 -2166,898 -579,579 -897,1347 -897,2166 0,818 318,1587 897,2166z"/>
  </g>
 </g>
</svg>
