<?xml version="1.0" encoding="UTF-8"?>
<!DOCTYPE svg PUBLIC "-//W3C//DTD SVG 1.1//EN" "http://www.w3.org/Graphics/SVG/1.1/DTD/svg11.dtd">
<!-- Creator: CorelDRAW X7 -->
<svg xmlns="http://www.w3.org/2000/svg" xml:space="preserve" width="3.41102in" height="1.07992in" version="1.1" style="shape-rendering:geometricPrecision; text-rendering:geometricPrecision; image-rendering:optimizeQuality; fill-rule:evenodd; clip-rule:evenodd"
viewBox="0 0 34110 10799"
 xmlns:xlink="http://www.w3.org/1999/xlink">
 <defs>
  <style type="text/css">
   <![CDATA[
    .fil0 {fill:#D2AE6D}
    .fil3 {fill:#665535}
    .fil1 {fill:white}
    .fil2 {fill:white;fill-rule:nonzero}
   ]]>
  </style>
 </defs>
 <g id="Layer_x0020_1">
  <metadata id="CorelCorpID_0Corel-Layer"/>
  <g id="_1743152150096">
   <path class="fil0" d="M5399 0l23312 0c2969,0 5399,2430 5399,5399l0 1c0,2969 -2430,5399 -5399,5399l-23312 0c-2969,0 -5399,-2430 -5399,-5399l0 -1c0,-2969 2430,-5399 5399,-5399z"/>
   <path class="fil1" d="M31567 2700c-721,-721 -1680,-1118 -2701,-1118 -1020,-1 -1980,396 -2700,1118 -722,721 -1119,1680 -1119,2700 0,1021 398,1980 1119,2701 721,722 1680,1118 2700,1118 1021,0 1980,-396 2702,-1118 721,-721 1118,-1680 1117,-2701 0,-1020 -396,-1978 -1118,-2700zm-2599 700l696 1132 1291 312 189 46 -126 147 -862 1011 103 1326 15 193 -179 -74 -1229 -507 -1229 507 -179 74 15 -193 103 -1326 -862 -1011 -125 -147 188 -46 1292 -312 696 -1132 101 -166 102 166zm518 1299l-620 -1009 -620 1009 -25 41 -48 12 -1152 278 768 901 32 38 -3 49 -92 1181 1095 -452 45 -19 45 19 1095 452 -91 -1181 -4 -49 32 -38 768 -901 -1151 -278 -48 -12 -26 -41zm-620 4283c-956,-1 -1855,-374 -2532,-1050 -675,-676 -1048,-1575 -1048,-2532 0,-956 373,-1856 1048,-2531 677,-677 1576,-1049 2532,-1049 956,0 1856,372 2532,1049 677,675 1048,1575 1050,2531 -2,958 -373,1856 -1050,2532 -676,676 -1575,1049 -2532,1050z"/>
   <path class="fil2" d="M6199 6168c-111,0 -207,-7 -286,-21 -80,-13 -147,-34 -202,-60 -54,-27 -98,-61 -131,-103 -33,-41 -58,-90 -75,-145 -17,-56 -28,-118 -34,-188 -5,-71 -8,-148 -8,-233l0 -1435 377 0 0 1435c0,80 3,145 8,194 6,48 20,86 44,112 24,27 60,45 107,54 49,8 115,13 200,13l0 377zm589 -377c20,0 36,5 46,15 11,11 16,25 16,42l0 259c0,22 -5,38 -16,47 -10,9 -26,14 -46,14l-633 0c-22,0 -38,-5 -47,-14 -9,-9 -14,-25 -14,-47l0 -259c0,-17 5,-31 14,-42 9,-10 25,-15 47,-15l633 0zm628 0c20,0 35,5 46,15 10,11 15,25 15,42l0 259c0,22 -5,38 -15,47 -11,9 -26,14 -46,14l-634 0c-22,0 -38,-5 -47,-14 -9,-9 -14,-25 -14,-47l0 -259c0,-17 5,-31 14,-42 9,-10 25,-15 47,-15l634 0zm1431 -1279c66,86 132,175 200,264 29,38 59,77 90,119 32,42 64,83 97,127 33,42 65,85 97,127 31,43 61,83 90,122 63,83 103,175 122,275 19,99 11,198 -22,296 -20,61 -49,116 -88,167 -39,50 -86,94 -142,130 -55,37 -119,64 -191,85 -72,20 -151,30 -236,30 -73,0 -148,-7 -226,-22 -78,-15 -157,-42 -238,-83 -18,-7 -36,-16 -53,-23 -15,-8 -31,-15 -47,-23 -16,-7 -29,-14 -41,-20 -97,29 -204,51 -322,64 -118,14 -248,21 -390,21l-171 0 0 -377 171 0c29,0 54,0 75,0 22,1 42,1 62,1 20,0 39,0 59,-1 20,-2 42,-4 66,-7 -26,-30 -50,-60 -70,-88 -21,-29 -38,-59 -53,-91 -15,-32 -26,-66 -34,-102 -7,-36 -11,-75 -11,-119 0,-82 16,-158 48,-228 32,-70 75,-130 132,-179 56,-50 121,-88 197,-116 75,-28 156,-42 243,-42 98,0 185,20 261,59 76,39 140,88 192,146 53,60 92,124 119,192 26,69 40,133 40,193 0,48 -5,93 -15,133 -9,40 -22,79 -40,114 -17,36 -38,70 -64,103 -25,32 -53,64 -84,95 31,10 63,19 97,28 33,9 65,13 97,13 31,0 64,-2 98,-7 35,-4 67,-14 98,-27 31,-14 58,-33 82,-57 24,-24 41,-56 54,-95 11,-38 6,-82 -13,-135 -20,-51 -51,-110 -94,-176 -43,-66 -96,-138 -160,-217 -64,-80 -133,-167 -209,-260l-158 -195 285 -214zm-849 872c0,38 6,71 18,100 12,28 30,55 53,79 24,24 53,48 88,71 35,22 75,47 122,72 31,-15 62,-33 91,-52 29,-19 54,-41 76,-65 22,-23 40,-50 52,-79 14,-29 20,-62 20,-97 0,-42 -9,-80 -27,-112 -18,-32 -40,-59 -67,-80 -26,-22 -54,-37 -84,-47 -29,-10 -56,-15 -79,-15 -35,0 -68,5 -99,18 -33,12 -60,29 -85,49 -24,21 -43,45 -57,72 -14,28 -22,56 -22,86zm3998 784c23,33 42,70 57,110 15,39 23,75 23,108 0,94 -26,179 -78,255 -51,76 -121,141 -209,195 -87,53 -190,95 -306,124 -117,29 -241,44 -372,44l-388 0c-83,0 -162,-10 -238,-28 -76,-20 -147,-48 -214,-83 -67,-36 -128,-80 -183,-131 -56,-50 -105,-109 -147,-173 -100,-162 -150,-351 -150,-568 0,-67 4,-133 11,-199 8,-65 21,-133 38,-202 18,-69 41,-142 70,-217 29,-75 64,-156 107,-244l336 162c-35,75 -65,143 -88,205 -23,61 -42,119 -57,175 -14,55 -25,107 -31,158 -6,52 -9,103 -9,154 0,146 33,271 97,373 47,77 110,136 191,176 80,41 169,62 267,62l388 0c76,0 147,-7 215,-21 67,-15 127,-34 178,-60 52,-25 94,-54 127,-87 32,-33 50,-68 56,-107 -30,-31 -67,-57 -112,-79 -45,-22 -96,-40 -153,-54 -57,-15 -119,-27 -185,-34 -66,-8 -135,-13 -206,-16l10 -375 1374 0 0 377 -419 0zm1001 -377c20,0 36,5 46,15 11,11 16,25 16,42l0 259c0,22 -5,38 -16,47 -10,9 -26,14 -46,14l-633 0c-22,0 -38,-5 -47,-14 -9,-9 -14,-25 -14,-47l0 -259c0,-17 5,-31 14,-42 9,-10 25,-15 47,-15l633 0zm-29 377l0 -377 886 0c17,0 39,-2 67,-3 28,-1 56,-5 83,-12 28,-7 51,-16 71,-29 19,-13 29,-30 29,-52 0,-43 -16,-96 -49,-158 -33,-61 -75,-127 -126,-196 -52,-70 -110,-140 -174,-212 -64,-71 -128,-138 -191,-201 -63,-64 -122,-119 -178,-168 -55,-48 -100,-84 -133,-109l30 -342 1319 -603 137 330 -1109 490c39,37 82,79 130,127 48,47 97,98 148,150 50,53 100,109 150,165 50,58 97,115 141,171 44,58 83,114 118,168 34,55 61,106 80,155 17,42 29,83 36,122 8,40 11,75 11,108 0,40 -4,76 -11,106 -8,30 -16,56 -25,78 -12,27 -31,57 -56,92 -26,34 -61,66 -106,95 -45,29 -102,54 -169,74 -69,21 -151,31 -248,31l-861 0zm331 -2309l1155 -502 79 170 -1254 547 20 -215zm2774 2309l-58 0c-42,0 -81,-3 -117,-8 -37,-5 -74,-19 -109,-42 -12,130 -42,248 -89,354 -48,106 -111,197 -191,272 -78,75 -173,134 -283,175 -110,42 -234,62 -372,62l-189 0 0 -377 189 0c97,0 181,-10 252,-30 71,-21 128,-53 174,-97 46,-45 79,-103 102,-174 22,-71 33,-157 33,-260l0 -922 377 0 0 453c0,46 10,84 30,112 20,28 42,50 68,66 26,15 51,26 75,31 24,5 41,8 50,8l58 0 0 377zm-679 -1664l-257 262 -258 -258 258 -261 257 257zm650 -5l-254 257 -266 -254 262 -261 258 258zm-335 -428l-242 243 -239 -240 242 -242 239 239zm1442 824c2,7 7,24 13,50 6,26 14,58 22,96 8,38 17,80 25,127 9,46 17,93 24,140 8,47 14,93 19,137 4,44 6,83 6,117 0,104 -17,194 -51,270 -35,76 -80,139 -135,189 -56,49 -118,86 -187,110 -69,25 -139,37 -208,37l-654 0 0 -377 664 0c12,0 30,-2 53,-6 22,-3 45,-13 67,-28 23,-15 43,-38 60,-69 18,-31 26,-73 26,-126 0,-23 -2,-50 -5,-81 -3,-32 -8,-67 -15,-103 -6,-36 -12,-73 -20,-111 -7,-38 -15,-74 -22,-108 -7,-33 -14,-64 -21,-92 -7,-28 -13,-49 -17,-64l356 -108zm-184 2098l-254 -257 251 -260 260 260 -257 257zm-635 2l-254 -258 250 -260 260 260 -256 258zm1308 -391c82,0 153,-3 217,-8 63,-6 119,-14 168,-24 49,-11 92,-25 129,-41 36,-17 69,-37 96,-60 42,-34 74,-74 96,-120 22,-45 34,-107 39,-183l-233 0c-51,0 -103,-4 -155,-12 -53,-8 -103,-22 -152,-42 -48,-20 -94,-45 -137,-77 -43,-31 -80,-70 -112,-115 -32,-46 -57,-101 -76,-163 -18,-63 -28,-135 -28,-216 0,-69 6,-131 18,-185 13,-54 28,-102 47,-144 18,-41 39,-77 62,-108 24,-30 46,-58 67,-80 61,-62 129,-108 206,-141 77,-33 160,-49 248,-49 111,0 205,19 283,57 79,38 142,90 192,156 50,67 87,146 110,238 24,91 35,190 35,297l0 538c0,151 -22,277 -68,380 -45,102 -114,190 -207,264 -47,37 -97,68 -152,95 -54,27 -115,49 -183,67 -68,19 -143,32 -227,40 -83,9 -177,13 -283,13l0 -377zm500 -1391c-85,0 -153,27 -204,80 -51,54 -76,138 -76,250 0,45 9,83 27,114 17,31 40,57 68,77 28,19 59,34 93,43 35,9 69,14 104,14l233 0 0 -207c0,-57 -5,-106 -14,-147 -9,-41 -21,-75 -36,-103 -14,-27 -31,-48 -50,-65 -18,-16 -36,-28 -54,-36 -18,-8 -35,-14 -51,-16 -16,-3 -29,-4 -40,-4z"/>
   <g>
    <polygon class="fil3" points="22931,1563 22774,1563 22774,9237 22931,9237 "/>
    <polygon class="fil1" points="22618,1563 22774,1563 22774,9237 22618,9237 "/>
   </g>
  </g>
 </g>
</svg>
