<?xml version="1.0" encoding="UTF-8"?>
<!DOCTYPE svg PUBLIC "-//W3C//DTD SVG 1.1//EN" "http://www.w3.org/Graphics/SVG/1.1/DTD/svg11.dtd">
<!-- Creator: CorelDRAW X7 -->
<svg xmlns="http://www.w3.org/2000/svg" xml:space="preserve" width="3.41102in" height="1.07992in" version="1.1" style="shape-rendering:geometricPrecision; text-rendering:geometricPrecision; image-rendering:optimizeQuality; fill-rule:evenodd; clip-rule:evenodd"
viewBox="0 0 34110 10799"
 xmlns:xlink="http://www.w3.org/1999/xlink">
 <defs>
  <style type="text/css">
   <![CDATA[
    .fil0 {fill:#D2AE6D}
    .fil2 {fill:#665535}
    .fil3 {fill:white}
    .fil4 {fill:white}
    .fil1 {fill:white;fill-rule:nonzero}
   ]]>
  </style>
 </defs>
 <g id="Layer_x0020_1">
  <metadata id="CorelCorpID_0Corel-Layer"/>
  <g id="_1743168357504">
   <path class="fil0" d="M5399 0l23312 0c2969,0 5399,2430 5399,5399l0 1c0,2969 -2430,5399 -5399,5399l-23312 0c-2969,0 -5399,-2430 -5399,-5399l0 -1c0,-2969 2430,-5399 5399,-5399z"/>
   <path class="fil1" d="M3536 6982c-72,0 -141,-7 -206,-24 -66,-16 -127,-40 -185,-71 -57,-31 -111,-69 -159,-113 -48,-44 -91,-94 -127,-151 -15,-24 -31,-52 -46,-85 -16,-33 -30,-70 -42,-112 -12,-41 -22,-87 -31,-138 -7,-50 -12,-105 -12,-165 0,-49 3,-100 8,-152 5,-52 14,-108 29,-166 14,-58 34,-122 59,-190 25,-68 58,-144 98,-228l341 162c-30,63 -55,120 -76,172 -21,52 -37,101 -49,147 -13,46 -21,90 -27,131 -6,42 -8,83 -8,126 0,57 6,111 19,161 12,50 31,95 56,136l-1 -2c38,55 90,99 153,133 65,35 133,52 206,52l69 0c107,0 193,-11 260,-33 68,-22 120,-54 158,-94 38,-41 64,-90 77,-147 14,-58 21,-122 21,-193l0 -2178 373 0 0 2178c0,561 -296,842 -889,844l-69 0zm2118 -837c-111,0 -206,-7 -286,-21 -80,-13 -147,-34 -201,-61 -55,-26 -99,-61 -132,-102 -32,-41 -57,-90 -75,-145 -17,-56 -28,-119 -33,-189 -6,-70 -9,-147 -9,-232l0 -1435 377 0 0 1435c0,80 3,145 9,193 5,49 20,87 44,113 23,27 59,45 107,54 48,8 114,12 199,12l0 378zm-87 0l0 -378 886 0c16,0 38,-1 66,-2 29,-2 56,-5 84,-12 27,-7 50,-16 70,-29 20,-13 30,-30 30,-52 0,-44 -16,-96 -50,-158 -33,-62 -75,-127 -126,-197 -52,-70 -109,-140 -174,-211 -64,-71 -128,-139 -190,-201 -64,-64 -123,-119 -179,-168 -55,-48 -100,-85 -133,-109l31 -342 1318 -604 138 331 -1110 489c39,38 82,80 130,128 48,47 97,97 148,150 50,53 101,109 151,165 50,57 96,115 141,171 44,58 82,114 117,168 34,54 61,106 80,154 17,43 29,84 37,123 7,40 10,75 10,108 0,40 -4,76 -11,106 -8,30 -16,56 -25,77 -12,28 -31,58 -56,93 -26,34 -61,66 -106,95 -45,29 -101,54 -169,74 -68,21 -151,31 -248,31l-860 0zm2021 436c81,0 152,-3 216,-9 63,-5 119,-13 168,-24 49,-10 92,-24 129,-41 37,-16 69,-36 96,-60 42,-34 74,-74 96,-119 22,-46 35,-107 39,-183l-233 0c-51,0 -102,-4 -155,-13 -52,-7 -103,-21 -151,-41 -49,-20 -95,-45 -138,-77 -42,-31 -80,-70 -112,-116 -31,-46 -57,-100 -75,-162 -19,-63 -29,-135 -29,-216 0,-69 6,-132 19,-185 12,-54 27,-102 46,-144 19,-41 39,-77 63,-108 23,-31 45,-58 66,-81 61,-61 130,-107 206,-140 77,-33 160,-49 249,-49 110,0 204,19 282,57 79,37 143,90 193,156 50,67 86,146 110,238 23,91 35,190 35,297l0 206 257 0 0 378 -259 0c-4,138 -28,255 -73,350 -45,95 -112,177 -201,248 -47,37 -97,68 -152,95 -54,27 -115,49 -183,67 -68,18 -143,32 -227,40 -83,9 -177,13 -282,13l0 -377zm500 -1391c-86,0 -154,27 -205,80 -50,54 -75,137 -75,250 0,45 9,82 26,114 18,31 40,57 68,77 28,19 59,34 93,42 35,10 69,14 104,14l233 0 0 -206c0,-58 -5,-106 -14,-148 -9,-41 -21,-75 -35,-102 -15,-27 -32,-49 -50,-65 -19,-16 -37,-28 -55,-36 -18,-8 -35,-14 -51,-16 -16,-3 -29,-4 -39,-4zm753 577c101,0 180,-6 237,-18 57,-12 97,-30 121,-53 16,-14 27,-36 35,-66 7,-30 11,-70 11,-120l0 -1550 376 0 0 1550c0,36 -2,74 -5,113 -3,40 -11,79 -22,120 -11,40 -28,80 -49,119 -21,39 -49,75 -85,110 -31,29 -66,55 -105,76 -40,22 -85,40 -135,54 -50,14 -106,25 -169,32 -62,7 -132,11 -210,11l0 -378zm4670 -670l0 444c0,36 6,66 16,91 11,24 25,45 42,62 16,17 35,29 55,39 20,10 40,17 59,22 19,5 36,8 51,10 14,1 25,2 32,2l94 0 0 378 -94 0c-34,0 -71,-3 -110,-7 -39,-5 -77,-12 -116,-23 -39,-10 -77,-25 -113,-43 -37,-19 -69,-41 -97,-67 -110,92 -260,138 -449,140l-1748 0c-75,0 -146,-13 -212,-38 -67,-26 -126,-62 -177,-111 -21,-19 -42,-43 -64,-70 -21,-27 -41,-59 -58,-96 -17,-38 -31,-80 -42,-127 -11,-47 -17,-100 -17,-158 0,-51 5,-106 15,-165 11,-59 22,-115 34,-167 13,-53 25,-98 36,-137 11,-38 18,-62 21,-71l181 58 178 56c-9,27 -18,60 -28,97 -11,39 -20,77 -29,118 -10,41 -17,79 -23,117 -6,37 -9,69 -9,96 0,49 7,88 20,118 14,30 31,52 50,68 20,16 41,26 65,31 23,5 43,8 62,8l1735 0c55,0 103,-6 142,-16 39,-11 69,-26 88,-46 23,-27 35,-64 35,-114l0 -499 375 0zm-2024 1543l258 -258 258 260 -258 258 -258 -260zm633 2l260 -257 257 261 -257 257 -260 -261zm-302 425l239 -240 243 243 -240 239 -242 -242zm3081 -2195c2,7 7,24 13,50 7,26 14,58 22,96 8,38 17,80 25,127 9,46 17,93 25,140 7,47 13,92 18,137 4,44 7,83 7,116 0,104 -18,195 -52,271 -35,76 -80,139 -135,188 -56,50 -118,87 -187,111 -69,24 -139,37 -208,37l-653 0 0 -378 663 0c12,0 30,-1 53,-5 22,-4 45,-13 67,-28 23,-15 43,-38 60,-69 18,-31 27,-73 27,-127 0,-22 -3,-49 -6,-81 -3,-31 -8,-66 -14,-102 -7,-36 -13,-73 -21,-111 -7,-38 -15,-74 -22,-108 -7,-34 -14,-64 -21,-92 -7,-28 -13,-49 -16,-64l355 -108zm-184 2098l-254 -257 251 -261 260 261 -257 257zm-635 2l-254 -258 250 -261 260 261 -256 258zm2847 -827l-123 0c-134,0 -263,-59 -385,-178 -33,40 -73,72 -119,98 -46,26 -95,46 -148,61 -52,15 -105,26 -160,32 -53,6 -105,9 -155,9 -38,0 -77,-2 -116,-6 -40,-5 -84,-13 -134,-23 -50,-11 -108,-25 -172,-43 -65,-18 -142,-40 -232,-67l109 -362c62,24 125,45 191,64 66,19 129,34 192,46 63,11 123,19 181,22 57,4 109,3 154,-3 46,-7 84,-18 116,-34 32,-17 53,-40 64,-68 5,-12 8,-23 8,-32 0,-10 -3,-21 -8,-35 -6,-13 -15,-29 -27,-48 -12,-18 -28,-42 -47,-73l-537 -756 317 -204 541 819c30,44 60,91 93,138 32,48 65,91 97,130 32,39 63,70 94,96 30,25 58,38 83,38l123 0 0 379zm771 -1273c2,7 7,24 13,50 6,26 14,58 22,96 8,38 17,80 25,127 9,46 17,93 24,140 8,47 14,92 19,137 4,44 6,83 6,116 0,104 -17,195 -51,271 -35,76 -80,139 -135,188 -56,50 -118,87 -187,111 -69,24 -139,37 -208,37l-404 0 0 -378 414 0c12,0 30,-1 53,-5 22,-4 45,-13 67,-28 23,-15 43,-38 60,-69 18,-31 26,-73 26,-127 0,-22 -2,-49 -5,-81 -3,-31 -8,-66 -15,-102 -6,-36 -12,-73 -20,-111 -7,-38 -15,-74 -22,-108 -7,-34 -14,-64 -21,-92 -7,-28 -13,-49 -17,-64l356 -108zm-641 -608l273 -275 279 278 -276 276 -276 -279zm2113 1881l-58 0c-42,0 -81,-3 -117,-8 -38,-5 -74,-19 -109,-42 -12,130 -42,248 -89,354 -48,106 -111,197 -191,272 -79,75 -174,134 -284,175 -110,41 -233,62 -371,62l-189 0 0 -377 189 0c97,0 181,-10 252,-30 71,-21 128,-53 174,-98 45,-44 79,-102 102,-173 22,-71 33,-158 33,-260l0 -923 377 0 0 454c0,46 10,84 30,112 20,28 42,50 68,65 25,16 50,27 75,32 24,5 41,7 50,7l58 0 0 378zm901 -4c-185,0 -331,-48 -439,-144 -56,52 -117,89 -185,113 -68,23 -137,35 -209,35l-341 0 0 -378 341 0c12,0 29,-2 52,-6 23,-4 46,-14 69,-29 22,-16 42,-39 59,-70 17,-31 26,-74 26,-128l0 -6 0 -431 377 0 0 431c0,83 20,143 59,181 39,38 102,57 191,57 13,0 30,-3 53,-7 22,-4 45,-15 68,-31 23,-16 42,-40 59,-72 18,-32 26,-75 26,-128l0 -431 376 0 0 431c0,83 20,144 60,183 40,39 104,58 194,58 14,0 32,-3 54,-8 23,-6 45,-17 68,-34 22,-16 41,-41 57,-72 16,-31 25,-74 25,-127 0,-22 -2,-49 -6,-81 -3,-31 -8,-64 -13,-99 -6,-35 -12,-70 -19,-106 -7,-36 -14,-70 -22,-102 -6,-32 -14,-61 -20,-88 -6,-26 -12,-47 -16,-62l356 -116c2,6 6,23 13,48 6,25 13,57 21,94 9,37 18,79 27,124 9,46 17,91 25,137 8,46 14,91 19,135 5,44 8,83 8,116 0,103 -18,193 -52,270 -33,78 -77,142 -132,193 -55,51 -116,89 -185,114 -69,25 -138,38 -208,40 -187,0 -336,-50 -445,-149 -56,51 -117,89 -184,111 -67,23 -136,34 -207,34z"/>
   <polygon class="fil2" points="23243,1563 23087,1563 23087,9236 23243,9236 "/>
   <polygon class="fil3" points="22931,1563 23087,1563 23087,9236 22931,9236 "/>
   <path class="fil4" d="M31567 2699c-721,-721 -1680,-1118 -2701,-1118 -1020,-1 -1979,396 -2700,1118 -722,721 -1118,1680 -1118,2701 0,1020 397,1979 1118,2700 722,722 1680,1119 2700,1119 1021,0 1980,-397 2702,-1119 721,-721 1118,-1680 1117,-2700 0,-1021 -396,-1979 -1118,-2701zm-2701 637l-1742 1480 0 2263 3485 0 0 -2263 -1743 -1480zm-536 2329l1073 0 0 1176 -238 0 0 -938 -597 0 0 938 -238 0 0 -1176zm536 -2661l1982 1713 0 2601 -3963 0 0 -2601 1981 -1713zm0 5977c-956,-1 -1855,-374 -2532,-1049 -675,-677 -1048,-1576 -1048,-2532 0,-956 373,-1857 1048,-2532 677,-677 1576,-1049 2532,-1049 956,0 1857,372 2532,1049 677,675 1049,1576 1050,2532 -1,957 -373,1855 -1050,2532 -675,675 -1574,1048 -2532,1049z"/>
  </g>
 </g>
</svg>
