<?xml version="1.0" encoding="UTF-8"?>
<!DOCTYPE svg PUBLIC "-//W3C//DTD SVG 1.1//EN" "http://www.w3.org/Graphics/SVG/1.1/DTD/svg11.dtd">
<!-- Creator: CorelDRAW X7 -->
<svg xmlns="http://www.w3.org/2000/svg" xml:space="preserve" width="100%" height="100%" version="1.1" style="shape-rendering:geometricPrecision; text-rendering:geometricPrecision; image-rendering:optimizeQuality; fill-rule:evenodd; clip-rule:evenodd"
viewBox="0 0 23114 40979"
 xmlns:xlink="http://www.w3.org/1999/xlink">
 <defs>
  <style type="text/css">
   <![CDATA[
    .fil1 {fill:#A6B7DE}
    .fil11 {fill:#5C56A2}
    .fil10 {fill:#BDADFF}
    .fil14 {fill:#D4D4D6}
    .fil13 {fill:#D6D5D7}
    .fil6 {fill:#FCE9CA}
    .fil8 {fill:white}
    .fil2 {fill:#FEFEFE;fill-rule:nonzero}
    .fil9 {fill:#BDADFF;fill-rule:nonzero}
    .fil5 {fill:#D2AE6D;fill-rule:nonzero}
    .fil12 {fill:#F1D59E;fill-rule:nonzero}
    .fil3 {fill:#F2D394;fill-rule:nonzero}
    .fil7 {fill:#FCE9CA;fill-rule:nonzero}
    .fil4 {fill:white;fill-rule:nonzero}
    .fil0 {fill:white;fill-rule:nonzero}
   ]]>
  </style>
 </defs>
 <g id="Layer_x0020_1">
  <metadata id="CorelCorpID_0Corel-Layer"/>
  <g id="_2717354070096">
   <g>
    <path class="fil0" d="M21853 456c-47,0 -47,73 0,73 47,0 47,-73 0,-73z"/>
    <polygon class="fil1" points="5557,4455 5580,4503 5563,4493 "/>
    <path class="fil2" d="M5292 5325c16,-26 50,-34 76,-17 25,16 33,50 17,76 -16,25 -50,33 -75,17 -26,-16 -34,-50 -18,-76z"/>
    <path class="fil3" d="M5471 6840c16,-26 50,-33 75,-17 26,16 34,50 18,76 -16,26 -50,34 -75,17 -26,-16 -34,-50 -18,-76z"/>
    <path class="fil0" d="M6909 1575c16,-26 50,-34 76,-18 25,16 33,51 17,76 -16,26 -50,34 -75,18 -26,-16 -34,-50 -18,-76z"/>
    <path class="fil0" d="M2345 586c-16,26 -50,34 -75,18 -26,-16 -34,-50 -18,-76 16,-26 50,-34 75,-18 26,17 34,51 18,76z"/>
    <path class="fil2" d="M4393 2639c-16,26 -50,34 -75,17 -26,-16 -34,-50 -18,-76 16,-25 50,-33 76,-17 25,16 33,50 17,76z"/>
    <path class="fil0" d="M5832 65c-16,26 -49,34 -75,18 -25,-16 -33,-50 -17,-76 16,-26 49,-34 75,-18 26,16 33,50 17,76z"/>
    <path class="fil3" d="M1729 3555c-16,26 -50,34 -75,17 -26,-16 -34,-50 -18,-76 16,-25 50,-33 76,-17 25,16 33,50 17,76z"/>
    <path class="fil0" d="M2639 5055c-16,26 -49,34 -75,18 -25,-16 -33,-50 -17,-76 16,-26 49,-34 75,-18 26,16 33,50 17,76z"/>
    <path class="fil0" d="M17752 4167c16,26 49,34 75,18 26,-17 33,-51 17,-76 -16,-26 -49,-34 -75,-18 -25,16 -33,50 -17,76z"/>
    <path class="fil2" d="M8744 524c16,26 50,34 75,18 26,-16 34,-50 18,-76 -16,-26 -50,-34 -76,-18 -25,16 -33,50 -17,76z"/>
    <path class="fil0" d="M19346 564c16,26 50,34 76,18 25,-16 33,-50 17,-76 -16,-26 -50,-34 -75,-18 -26,16 -34,50 -18,76z"/>
    <path class="fil0" d="M16974 2335c16,26 50,33 75,17 26,-16 34,-50 18,-76 -16,-26 -50,-34 -75,-17 -26,16 -34,50 -18,76z"/>
    <path class="fil4" d="M14378 635c16,26 50,34 75,18 26,-16 34,-50 18,-76 -16,-26 -50,-34 -76,-18 -25,17 -33,51 -17,76z"/>
    <path class="fil0" d="M21148 10364c16,26 50,33 75,17 26,-16 34,-50 18,-76 -16,-26 -50,-34 -76,-17 -25,16 -33,50 -17,76z"/>
    <path class="fil2" d="M2885 8982c16,26 50,34 75,18 26,-16 34,-50 18,-76 -16,-26 -50,-34 -76,-18 -25,16 -33,50 -17,76z"/>
    <path class="fil0" d="M7365 6740c120,-4 215,-102 216,-223l2 0c1,121 97,219 216,223 -120,4 -216,103 -216,225l-2 0c0,-122 -96,-221 -216,-225z"/>
    <path class="fil0" d="M21915 7199c-16,26 -49,33 -75,17 -25,-16 -33,-50 -17,-76 16,-26 49,-34 75,-17 26,16 33,50 17,76z"/>
    <path class="fil0" d="M20787 5062c-16,26 -50,34 -76,18 -25,-16 -33,-50 -17,-76 16,-26 50,-34 75,-18 26,16 34,50 18,76z"/>
    <path class="fil0" d="M17403 5695c-16,26 -49,34 -75,18 -26,-16 -33,-50 -17,-76 16,-26 49,-34 75,-18 25,16 33,50 17,76z"/>
    <path class="fil0" d="M21550 7784c-16,26 -50,34 -75,17 -26,-16 -34,-50 -18,-76 16,-25 50,-33 75,-17 26,16 34,50 18,76z"/>
    <path class="fil0" d="M18707 6531c-16,26 -49,34 -75,18 -26,-16 -33,-50 -17,-76 15,-26 49,-34 75,-18 25,16 33,50 17,76z"/>
    <path class="fil2" d="M2569 7402c-16,25 -49,33 -75,17 -26,-16 -33,-50 -18,-76 16,-26 50,-34 76,-17 25,16 33,50 17,76z"/>
    <path class="fil0" d="M20901 2644c192,-7 345,-164 347,-359l3 0c1,195 155,352 347,359 -193,6 -347,165 -348,361l-2 0c0,-196 -155,-355 -347,-361z"/>
    <path class="fil5" d="M2240 11002c19,0 19,29 0,29 -18,0 -18,-29 0,-29z"/>
    <path class="fil5" d="M2531 10988c37,0 37,57 0,57 -36,0 -36,-57 0,-57z"/>
   </g>
   <g>
    <g>
     <path class="fil6" d="M14708 28550c0,-17 -14,-31 -31,-31 -17,0 -31,14 -31,31 0,17 14,31 31,31 17,0 31,-14 31,-31z"/>
     <path class="fil6" d="M19080 25776c0,-26 -21,-47 -47,-47 -26,0 -47,21 -47,47 0,26 21,47 47,47 26,0 47,-21 47,-47z"/>
     <path class="fil6" d="M19541 28099c0,-26 -21,-47 -47,-47 -26,0 -47,21 -47,47 0,25 21,47 47,47 26,0 47,-22 47,-47z"/>
     <path class="fil6" d="M5123 28282c0,-26 -21,-47 -47,-47 -26,0 -47,21 -47,47 0,26 21,47 47,47 26,0 47,-21 47,-47z"/>
     <path class="fil6" d="M1743 30523c0,-26 -21,-47 -47,-47 -26,0 -47,21 -47,47 0,26 21,47 47,47 26,0 47,-21 47,-47z"/>
     <path class="fil6" d="M20672 28895c0,-39 -32,-71 -72,-71 -39,0 -72,32 -72,71 0,40 33,72 72,72 40,0 72,-32 72,-72z"/>
     <path class="fil6" d="M4966 28970c0,-40 -32,-72 -72,-72 -39,0 -71,32 -71,72 0,39 32,71 71,71 40,0 72,-32 72,-71z"/>
     <path class="fil6" d="M8127 29213c0,-40 -32,-72 -71,-72 -40,0 -72,32 -72,72 0,39 32,71 72,71 39,0 71,-32 71,-71z"/>
     <path class="fil6" d="M20475 30042c0,-40 -32,-72 -72,-72 -39,0 -71,32 -71,72 0,40 32,72 71,72 40,0 72,-32 72,-72z"/>
     <path class="fil6" d="M4487 20424c0,-25 -22,-46 -47,-46 -26,0 -47,21 -47,46 0,26 21,47 47,47 25,0 47,-21 47,-47z"/>
     <path class="fil6" d="M3399 20102c0,-39 -32,-71 -72,-71 -39,0 -71,32 -71,71 0,40 32,72 71,72 40,0 72,-32 72,-72z"/>
     <path class="fil6" d="M10480 26599c0,-26 -21,-47 -47,-47 -26,0 -47,21 -47,47 0,26 21,47 47,47 26,0 47,-21 47,-47z"/>
     <path class="fil6" d="M15398 23136c0,-26 -21,-47 -47,-47 -26,0 -47,21 -47,47 0,26 21,47 47,47 26,0 47,-21 47,-47z"/>
     <path class="fil6" d="M13547 18610c0,-19 -15,-34 -34,-34 -20,0 -35,15 -35,34 0,20 15,35 35,35 19,0 34,-15 34,-35z"/>
     <path class="fil6" d="M4663 31713c0,-26 -21,-47 -47,-47 -26,0 -47,21 -47,47 0,26 21,47 47,47 26,0 47,-21 47,-47z"/>
     <path class="fil6" d="M3984 31346c0,-17 -14,-31 -31,-31 -17,0 -31,14 -31,31 0,17 14,31 31,31 17,0 31,-14 31,-31z"/>
     <g>
      <path class="fil7" d="M16007 35704c0,0 -5,226 123,262 128,36 565,-218 565,-218l-581 -146 -107 102z"/>
      <path class="fil8" d="M15979 34855c0,0 -82,-308 -82,-443 0,-135 69,-417 106,-536 0,0 176,-98 275,37 0,0 -37,397 0,503 36,107 85,262 85,262l-295 261 -89 -84z"/>
      <path class="fil6" d="M16003 33876c0,0 -53,-197 -28,-254 24,-57 57,98 57,98 0,0 12,-200 49,-200 37,0 20,205 20,205 0,0 5,-205 41,-205 37,0 25,196 25,196 0,0 44,-155 77,-159 34,-4 0,184 0,184 0,0 50,-16 99,-43 49,-27 41,88 -65,215l-275 -37z"/>
      <path class="fil9" d="M16313 33913c0,-11 -5,-22 -14,-29 -158,-118 -306,-43 -312,-39 -18,9 -24,30 -15,48 9,17 30,23 48,15 5,-3 115,-58 236,33 16,12 38,9 50,-7 5,-6 7,-14 7,-21z"/>
      <path class="fil10" d="M15902 34336c0,0 240,-20 362,0 0,0 35,16 14,80 0,0 -185,101 -374,87 0,0 -42,-75 -2,-167z"/>
      <path class="fil9" d="M16368 34689l-10 -22c-209,99 -288,210 -291,215l19 14c1,-2 79,-112 282,-207z"/>
      <path class="fil8" d="M16060 34908c0,0 304,-406 873,-287 0,0 172,-348 266,-438 94,-90 483,-192 483,-192 0,0 74,-193 196,-209 123,-17 127,340 0,532 0,0 -311,119 -413,143l-70 316 35 -5c59,-10 122,-18 186,-20 0,0 230,0 443,131 0,0 307,-86 434,29 126,114 -172,356 -484,327 0,0 -233,-102 -335,-94l-471 221c0,0 -86,117 -348,115l-656 24 -139 -593z"/>
      <path class="fil11" d="M16477 34879c44,0 79,-36 79,-80 0,-44 -35,-80 -79,-80 -44,0 -80,36 -80,80 0,44 36,80 80,80z"/>
      <path class="fil9" d="M18131 35021c0,-13 -1,-26 -2,-37 -8,-73 -39,-122 -41,-124 -10,-17 -32,-21 -49,-11 -16,11 -21,33 -10,49 4,7 93,153 -46,314 -13,15 -12,37 3,50 15,13 37,11 50,-3 76,-88 95,-173 95,-238z"/>
      <path class="fil10" d="M17715 35147c102,-118 101,-378 43,-388 -46,-19 -104,-14 -104,-14 -108,186 -2,399 -2,399 0,0 23,15 63,3z"/>
      <path class="fil9" d="M17238 35362c0,-7 -2,-14 -6,-21 -8,-10 -186,-263 -16,-510 11,-16 7,-38 -9,-49 -16,-12 -38,-8 -49,9 -200,288 14,589 16,592 12,16 34,19 50,8 9,-7 14,-18 14,-29z"/>
      <path class="fil9" d="M17914 34314c0,-3 0,-6 -1,-8 -82,-331 -214,-350 -229,-351 -19,-1 -36,14 -38,33 -1,19 13,36 32,38 5,1 99,25 166,297 5,19 24,30 43,26 16,-4 27,-19 27,-35z"/>
      <path class="fil10" d="M17139 34258c0,0 191,183 326,199 135,17 -163,-336 -163,-336 0,0 -121,-2 -163,137z"/>
      <path class="fil9" d="M17210 34830c0,-15 -10,-29 -25,-34 -178,-54 -217,-179 -218,-185 -6,-18 -25,-29 -44,-24 -19,6 -30,25 -25,44 2,7 50,167 266,233 19,6 39,-5 44,-24 2,-3 2,-7 2,-10z"/>
      <polygon class="fil9" points="17397,34784 17393,34761 17153,34799 17157,34822 "/>
      <path class="fil8" d="M15755 35822c286,0 518,-235 518,-525 0,-290 -232,-525 -518,-525 -286,0 -518,235 -518,525 0,290 232,525 518,525z"/>
      <path class="fil11" d="M16233 35371c8,-36 12,-73 12,-111 0,-269 -215,-488 -482,-488 -122,0 -233,46 -318,122l-4 4c-13,12 -10,33 5,42 66,37 197,165 144,597 -3,26 15,49 42,52 118,10 429,15 595,-194l6 -24z"/>
      <path class="fil6" d="M17387 35744c0,0 281,-39 331,-76 50,-38 -109,-33 -109,-33 0,0 193,-59 184,-95 -9,-35 -204,28 -204,28 0,0 198,-52 189,-87 -8,-36 -196,22 -196,22 0,0 141,-79 137,-112 -4,-34 -179,43 -179,43 0,0 4,-53 18,-107 15,-54 -95,-19 -193,115l22 302z"/>
      <path class="fil8" d="M16200 35616c0,0 -21,-262 192,-319 0,0 205,37 463,180 0,0 74,24 200,8 127,-16 303,-53 303,-53 0,0 91,105 29,312 0,0 -291,138 -561,114 -270,-25 -626,-242 -626,-242z"/>
      <path class="fil9" d="M17464 35600c0,-88 -42,-154 -75,-185 -15,-13 -37,-12 -50,2 -14,15 -13,37 2,51 4,4 104,101 15,259 -9,17 -3,39 14,48 17,10 38,4 48,-13 33,-59 46,-113 46,-162z"/>
      <path class="fil10" d="M16946 35490c0,0 -5,331 -120,368 0,0 56,18 180,-5 0,0 64,-183 -10,-363 0,0 -4,-14 -50,0z"/>
      <path class="fil9" d="M16469 35303c0,-3 -1,-5 -1,-8 -5,-26 -29,-43 -55,-39 -239,42 -275,258 -260,366 3,26 27,44 53,41 26,-3 44,-27 41,-53 -3,-23 -23,-225 182,-260 23,-4 40,-24 40,-47z"/>
     </g>
     <path class="fil6" d="M7723 32851c17,0 31,-14 31,-31 0,-17 -14,-31 -31,-31 -17,0 -31,14 -31,31 0,17 14,31 31,31z"/>
     <path class="fil6" d="M10497 37223c25,0 46,-21 46,-47 0,-25 -21,-46 -46,-46 -26,0 -47,21 -47,46 0,26 21,47 47,47z"/>
     <path class="fil6" d="M8174 37684c26,0 47,-21 47,-47 0,-25 -21,-46 -47,-46 -26,0 -47,21 -47,46 0,26 21,47 47,47z"/>
     <path class="fil6" d="M16832 38714c40,0 72,-32 72,-72 0,-39 -32,-71 -72,-71 -39,0 -72,32 -72,71 0,40 33,72 72,72z"/>
     <path class="fil6" d="M7026 37937c39,0 71,-32 71,-72 0,-39 -32,-71 -71,-71 -40,0 -72,32 -72,71 0,40 32,72 72,72z"/>
     <path class="fil6" d="M9674 28623c26,0 47,-21 47,-47 0,-26 -21,-47 -47,-47 -26,0 -47,21 -47,47 0,26 21,47 47,47z"/>
     <path class="fil6" d="M13137 33542c25,0 46,-21 46,-47 0,-26 -21,-47 -46,-47 -26,0 -47,21 -47,47 0,26 21,47 47,47z"/>
     <path class="fil6" d="M17662 31691c20,0 35,-16 35,-35 0,-19 -15,-35 -35,-35 -19,0 -35,16 -35,35 0,19 16,35 35,35z"/>
     <g>
      <image x="16206" y="30999" width="76.5" height="76.5" xlink:href="forget-password-objects_Images\forget-password-objects_ImgID1.png"/>
     </g>
     <path class="fil12" d="M16074 29135c-21,0 -39,17 -39,39 0,21 18,39 39,39 22,0 39,-18 39,-39 0,-22 -17,-39 -39,-39z"/>
     <path class="fil6" d="M23129 36412c0,-39 -32,-71 -71,-71 -40,0 -72,32 -72,71 0,40 32,72 72,72 39,0 71,-32 71,-72z"/>
     <path class="fil6" d="M21883 14651c0,-39 -32,-71 -72,-71 -39,0 -71,32 -71,71 0,40 32,72 71,72 40,0 72,-32 72,-72z"/>
     <path class="fil6" d="M128 35096c0,40 -32,72 -72,72 -39,0 -72,-32 -72,-72 0,-39 33,-71 72,-71 40,0 72,32 72,71z"/>
     <path class="fil6" d="M12460 19325c0,40 -32,72 -71,72 -40,0 -72,-32 -72,-72 0,-39 32,-71 72,-71 39,0 71,32 71,71z"/>
     <path class="fil6" d="M13309 12608c0,-26 -21,-47 -47,-47 -26,0 -47,21 -47,47 0,26 21,47 47,47 26,0 47,-21 47,-47z"/>
     <path class="fil6" d="M9929 14849c0,-26 -21,-47 -47,-47 -26,0 -47,21 -47,47 0,26 21,47 47,47 26,0 47,-21 47,-47z"/>
     <path class="fil6" d="M1262 26486c0,-39 -32,-71 -71,-71 -40,0 -72,32 -72,71 0,40 32,72 72,72 39,0 71,-32 71,-72z"/>
     <path class="fil6" d="M12170 15672c0,-17 -14,-31 -31,-31 -18,0 -32,14 -32,31 0,17 14,31 32,31 17,0 31,-14 31,-31z"/>
     <path class="fil6" d="M21853 26852c26,0 47,-21 47,-47 0,-26 -21,-47 -47,-47 -26,0 -47,21 -47,47 0,26 21,47 47,47z"/>
     <path class="fil6" d="M9315 34898c0,40 -32,72 -72,72 -39,0 -71,-32 -71,-72 0,-39 32,-71 71,-71 40,0 72,32 72,71z"/>
     <path class="fil13" d="M12678 30927c99,105 215,258 223,401 10,160 98,304 225,414l-81 114c-174,-68 -322,-215 -332,-390 -11,-173 -250,-366 -250,-366 45,1 131,-80 215,-173z"/>
     <path class="fil8" d="M12901 31328c-8,-143 -124,-296 -223,-401 -76,-82 -142,-135 -142,-135 153,5 630,-643 630,-643 141,63 329,297 338,584 5,176 143,316 248,399l-145 110 145 143 -363 513c-96,-37 -186,-90 -263,-156 -127,-110 -215,-254 -225,-414z"/>
     <polygon class="fil14" points="13752,31385 13607,31242 13752,31132 13752,31258 "/>
    </g>
    <path class="fil4" d="M16526 37589c-681,1084 -2240,1687 -3627,1402 -1469,-302 -1831,770 -2122,2007l69 0c292,-1239 634,-2230 2039,-1941 1413,290 3003,-325 3698,-1432 401,-640 424,-1316 73,-1932l-79 0c358,603 343,1268 -51,1896z"/>
   </g>
  </g>
 </g>
</svg>
