<?xml version="1.0" encoding="UTF-8"?>
<!DOCTYPE svg PUBLIC "-//W3C//DTD SVG 1.1//EN" "http://www.w3.org/Graphics/SVG/1.1/DTD/svg11.dtd">
<!-- Creator: CorelDRAW X7 -->
<svg xmlns="http://www.w3.org/2000/svg" xml:space="preserve" width="100%" height="100%" version="1.1" style="shape-rendering:geometricPrecision; text-rendering:geometricPrecision; image-rendering:optimizeQuality; fill-rule:evenodd; clip-rule:evenodd"
viewBox="0 0 2709 4945"
 xmlns:xlink="http://www.w3.org/1999/xlink">
 <defs>
  <style type="text/css">
   <![CDATA[
    .fil0 {fill:#8DA0D1}
    .fil6 {fill:#5C56A2}
    .fil5 {fill:#BDADFF}
    .fil9 {fill:#D4D4D6}
    .fil8 {fill:#D6D5D7}
    .fil1 {fill:#FCE9CA}
    .fil3 {fill:white}
    .fil4 {fill:#BDADFF;fill-rule:nonzero}
    .fil7 {fill:#F1D59E;fill-rule:nonzero}
    .fil2 {fill:#FCE9CA;fill-rule:nonzero}
    .fil10 {fill:white;fill-rule:nonzero}
   ]]>
  </style>
 </defs>
 <g id="Layer_x0020_1">
  <metadata id="CorelCorpID_0Corel-Layer"/>
  <g id="_2717344149024">
   <g>
    <rect class="fil0" width="2709" height="4945"/>
    <g>
     <path class="fil1" d="M1635 3698c0,-2 -2,-3 -3,-3 -2,0 -4,1 -4,3 0,2 2,3 4,3 1,0 3,-1 3,-3z"/>
     <path class="fil1" d="M2072 3421c0,-3 -2,-5 -5,-5 -2,0 -5,2 -5,5 0,2 3,4 5,4 3,0 5,-2 5,-4z"/>
     <path class="fil1" d="M2118 3653c0,-3 -2,-5 -5,-5 -2,0 -4,2 -4,5 0,2 2,5 4,5 3,0 5,-3 5,-5z"/>
     <path class="fil1" d="M676 3671c0,-2 -2,-5 -4,-5 -3,0 -5,3 -5,5 0,3 2,5 5,5 2,0 4,-2 4,-5z"/>
     <path class="fil1" d="M338 3895c0,-2 -2,-4 -5,-4 -2,0 -4,2 -4,4 0,3 2,5 4,5 3,0 5,-2 5,-5z"/>
     <path class="fil1" d="M2231 3732c0,-3 -3,-7 -7,-7 -4,0 -7,4 -7,7 0,4 3,8 7,8 4,0 7,-4 7,-8z"/>
     <path class="fil1" d="M660 3740c0,-4 -3,-7 -7,-7 -4,0 -7,3 -7,7 0,4 3,7 7,7 4,0 7,-3 7,-7z"/>
     <path class="fil1" d="M977 3764c0,-4 -4,-7 -8,-7 -3,0 -7,3 -7,7 0,4 4,7 7,7 4,0 8,-3 8,-7z"/>
     <path class="fil1" d="M2211 3847c0,-4 -3,-7 -7,-7 -4,0 -7,3 -7,7 0,4 3,7 7,7 4,0 7,-3 7,-7z"/>
     <path class="fil1" d="M613 2885c0,-2 -3,-4 -5,-4 -3,0 -5,2 -5,4 0,3 2,5 5,5 2,0 5,-2 5,-5z"/>
     <path class="fil1" d="M504 2853c0,-4 -3,-7 -7,-7 -4,0 -8,3 -8,7 0,4 4,7 8,7 4,0 7,-3 7,-7z"/>
     <path class="fil1" d="M1212 3503c0,-3 -2,-5 -5,-5 -2,0 -5,2 -5,5 0,2 3,5 5,5 3,0 5,-3 5,-5z"/>
     <path class="fil1" d="M1704 3157c0,-3 -2,-5 -5,-5 -3,0 -5,2 -5,5 0,2 2,4 5,4 3,0 5,-2 5,-4z"/>
     <path class="fil1" d="M1519 2704c0,-2 -2,-3 -4,-3 -2,0 -3,1 -3,3 0,2 1,3 3,3 2,0 4,-1 4,-3z"/>
     <path class="fil1" d="M630 4014c0,-2 -2,-4 -5,-4 -2,0 -4,2 -4,4 0,3 2,5 4,5 3,0 5,-2 5,-5z"/>
     <path class="fil1" d="M562 3978c0,-2 -1,-4 -3,-4 -2,0 -3,2 -3,4 0,1 1,3 3,3 2,0 3,-2 3,-3z"/>
     <g>
      <path class="fil2" d="M1765 4413c0,0 -1,23 12,27 13,3 56,-22 56,-22l-58 -15 -10 10z"/>
      <path class="fil3" d="M1762 4328c0,0 -8,-30 -8,-44 0,-13 7,-42 10,-53 0,0 18,-10 28,3 0,0 -4,40 0,51 3,10 8,26 8,26l-29 26 -9 -9z"/>
      <path class="fil1" d="M1764 4231c0,0 -5,-20 -3,-26 3,-6 6,10 6,10 0,0 1,-20 5,-20 4,0 2,20 2,20 0,0 0,-20 4,-20 4,0 3,20 3,20 0,0 4,-16 7,-16 4,-1 0,18 0,18 0,0 5,-2 10,-4 5,-3 4,9 -6,21l-28 -3z"/>
      <path class="fil4" d="M1795 4234c0,-1 0,-2 -1,-3 -16,-11 -31,-4 -31,-4 -2,1 -3,3 -2,5 1,2 3,3 5,2 0,-1 11,-6 24,3 1,1 3,1 4,-1 1,0 1,-1 1,-2z"/>
      <path class="fil5" d="M1754 4277c0,0 24,-2 36,0 0,0 4,1 2,8 0,0 -19,10 -38,8 0,0 -4,-7 0,-16z"/>
      <path class="fil4" d="M1801 4312l-1 -2c-21,10 -29,21 -29,21l1 2c1,-1 8,-12 29,-21z"/>
      <path class="fil3" d="M1770 4334c0,0 30,-41 87,-29 0,0 17,-35 27,-44 9,-9 48,-19 48,-19 0,0 7,-19 20,-21 12,-2 12,34 0,53 0,0 -31,12 -42,15l-7 31 4 0c6,-1 12,-2 19,-2 0,0 22,0 44,13 0,0 30,-9 43,3 13,11 -17,35 -48,32 0,0 -24,-10 -34,-9l-47 22c0,0 -8,12 -35,12l-65 2 -14 -59z"/>
      <path class="fil6" d="M1812 4331c4,0 8,-4 8,-8 0,-5 -4,-8 -8,-8 -5,0 -8,3 -8,8 0,4 3,8 8,8z"/>
      <path class="fil4" d="M1977 4345c0,-1 0,-3 0,-4 -1,-7 -4,-12 -4,-12 -1,-2 -4,-2 -5,-1 -2,1 -2,3 -1,5 0,0 9,15 -5,31 -1,2 -1,4 1,5 1,1 3,1 5,0 7,-9 9,-17 9,-24z"/>
      <path class="fil5" d="M1935 4358c11,-12 11,-38 5,-39 -5,-2 -11,-2 -11,-2 -11,19 0,40 0,40 0,0 2,2 6,1z"/>
      <path class="fil4" d="M1888 4379c0,-1 0,-1 -1,-2 -1,-1 -19,-26 -1,-51 1,-2 0,-4 -1,-5 -2,-1 -4,-1 -5,1 -20,29 1,59 1,59 1,2 4,2 5,1 1,-1 2,-2 2,-3z"/>
      <path class="fil4" d="M1955 4274c0,0 0,0 0,0 -8,-34 -21,-35 -23,-36 -2,0 -3,2 -3,4 -1,2 1,3 3,4 0,0 10,2 16,29 1,2 3,3 5,3 1,-1 2,-2 2,-4z"/>
      <path class="fil5" d="M1878 4269c0,0 19,18 32,20 14,1 -16,-34 -16,-34 0,0 -12,0 -16,14z"/>
      <path class="fil4" d="M1885 4326c0,-2 -1,-3 -3,-3 -17,-6 -21,-18 -21,-19 -1,-2 -3,-3 -5,-2 -2,0 -3,2 -2,4 0,1 5,17 26,23 2,1 4,0 5,-2 0,0 0,-1 0,-1z"/>
      <polygon class="fil4" points="1904,4321 1903,4319 1879,4323 1880,4325 "/>
      <path class="fil3" d="M1739 4425c29,0 52,-23 52,-52 0,-29 -23,-53 -52,-53 -28,0 -51,24 -51,53 0,29 23,52 51,52z"/>
      <path class="fil6" d="M1787 4380c1,-4 1,-7 1,-11 0,-27 -21,-49 -48,-49 -12,0 -23,5 -32,12l0 1c-1,1 -1,3 1,4 6,4 19,16 14,60 0,2 1,5 4,5 12,1 43,1 60,-20l0 -2z"/>
      <path class="fil1" d="M1903 4417c0,0 28,-4 33,-7 5,-4 -11,-4 -11,-4 0,0 19,-5 18,-9 -1,-4 -20,3 -20,3 0,0 20,-5 19,-9 -1,-4 -20,2 -20,2 0,0 14,-8 14,-11 -1,-3 -18,4 -18,4 0,0 0,-5 2,-10 1,-6 -10,-2 -20,11l3 30z"/>
      <path class="fil3" d="M1784 4405c0,0 -2,-27 19,-32 0,0 21,3 46,18 0,0 8,2 20,0 13,-1 31,-5 31,-5 0,0 9,11 3,31 0,0 -29,14 -56,12 -28,-3 -63,-24 -63,-24z"/>
      <path class="fil4" d="M1910 4403c0,-9 -4,-15 -7,-19 -2,-1 -4,-1 -5,1 -2,1 -1,3 0,5 0,0 10,10 2,26 -1,1 -1,4 1,4 2,1 4,1 5,-1 3,-6 4,-11 4,-16z"/>
      <path class="fil5" d="M1858 4392c0,0 0,33 -11,37 0,0 5,2 18,-1 0,0 6,-18 -2,-36 0,0 0,-1 -5,0z"/>
      <path class="fil4" d="M1811 4373c0,0 0,0 0,-1 -1,-2 -3,-4 -6,-3 -24,4 -27,25 -26,36 1,3 3,5 5,4 3,0 5,-2 5,-5 -1,-2 -3,-23 18,-26 2,0 4,-2 4,-5z"/>
     </g>
     <path class="fil1" d="M936 4128c2,0 3,-1 3,-3 0,-2 -1,-3 -3,-3 -2,0 -3,1 -3,3 0,2 1,3 3,3z"/>
     <path class="fil1" d="M1214 4565c2,0 4,-2 4,-4 0,-3 -2,-5 -4,-5 -3,0 -5,2 -5,5 0,2 2,4 5,4z"/>
     <path class="fil1" d="M981 4611c3,0 5,-2 5,-4 0,-3 -2,-5 -5,-5 -2,0 -4,2 -4,5 0,2 2,4 4,4z"/>
     <path class="fil1" d="M1847 4714c4,0 7,-3 7,-7 0,-4 -3,-7 -7,-7 -4,0 -7,3 -7,7 0,4 3,7 7,7z"/>
     <path class="fil1" d="M866 4637c4,0 8,-4 8,-8 0,-3 -4,-7 -8,-7 -4,0 -7,4 -7,7 0,4 3,8 7,8z"/>
     <path class="fil1" d="M1131 3705c3,0 5,-2 5,-4 0,-3 -2,-5 -5,-5 -2,0 -4,2 -4,5 0,2 2,4 4,4z"/>
     <path class="fil1" d="M1478 4197c2,0 4,-2 4,-5 0,-2 -2,-4 -4,-4 -3,0 -5,2 -5,4 0,3 2,5 5,5z"/>
     <path class="fil1" d="M1930 4012c2,0 4,-2 4,-3 0,-2 -2,-4 -4,-4 -2,0 -3,2 -3,4 0,1 1,3 3,3z"/>
     <g>
      <image x="1784" y="3943" width="7.65" height="7.65" xlink:href="forget-password-back-1_Images\forget-password-back-1_ImgID1.png"/>
     </g>
     <path class="fil7" d="M1771 3756c-2,0 -4,2 -4,4 0,2 2,4 4,4 2,0 4,-2 4,-4 0,-2 -2,-4 -4,-4z"/>
     <path class="fil1" d="M2477 4484c0,-4 -3,-7 -7,-7 -4,0 -7,3 -7,7 0,4 3,7 7,7 4,0 7,-3 7,-7z"/>
     <path class="fil1" d="M2352 2308c0,-4 -3,-7 -7,-7 -4,0 -7,3 -7,7 0,4 3,7 7,7 4,0 7,-3 7,-7z"/>
     <path class="fil1" d="M177 4353c0,4 -4,7 -7,7 -4,0 -8,-3 -8,-7 0,-4 4,-8 8,-8 3,0 7,4 7,8z"/>
     <path class="fil1" d="M1410 2775c0,4 -3,8 -7,8 -4,0 -7,-4 -7,-8 0,-3 3,-7 7,-7 4,0 7,4 7,7z"/>
     <path class="fil1" d="M1495 2104c0,-3 -2,-5 -5,-5 -3,0 -5,2 -5,5 0,2 2,4 5,4 3,0 5,-2 5,-4z"/>
     <path class="fil1" d="M1157 2328c0,-3 -2,-5 -5,-5 -3,0 -5,2 -5,5 0,2 2,5 5,5 3,0 5,-3 5,-5z"/>
     <path class="fil1" d="M290 3492c0,-4 -3,-8 -7,-8 -4,0 -7,4 -7,8 0,4 3,7 7,7 4,0 7,-3 7,-7z"/>
     <path class="fil1" d="M1381 2410c0,-2 -2,-3 -3,-3 -2,0 -3,1 -3,3 0,2 1,3 3,3 1,0 3,-1 3,-3z"/>
     <path class="fil1" d="M2349 3528c3,0 5,-2 5,-5 0,-2 -2,-4 -5,-4 -2,0 -5,2 -5,4 0,3 3,5 5,5z"/>
     <path class="fil1" d="M1095 4333c0,4 -3,7 -7,7 -4,0 -7,-3 -7,-7 0,-4 3,-7 7,-7 4,0 7,3 7,7z"/>
     <path class="fil8" d="M1432 3936c10,10 21,25 22,40 1,16 10,30 23,41l-9 12c-17,-7 -32,-22 -33,-39 -1,-18 -25,-37 -25,-37 5,0 13,-8 22,-17z"/>
     <path class="fil3" d="M1454 3976c-1,-15 -12,-30 -22,-40 -8,-9 -15,-14 -15,-14 16,1 63,-64 63,-64 15,6 33,30 34,58 1,18 15,32 25,40l-14 11 14 14 -36 52c-10,-4 -19,-9 -26,-16 -13,-11 -22,-25 -23,-41z"/>
     <polygon class="fil9" points="1539,3981 1525,3967 1539,3956 1539,3969 "/>
    </g>
   </g>
   <path class="fil10" d="M1816 4602c-68,108 -224,169 -362,140 -147,-30 -183,77 -212,201l7 0c29,-124 63,-223 203,-194 142,29 301,-33 370,-144 40,-64 43,-131 7,-193l-7 0c35,61 34,127 -6,190z"/>
  </g>
 </g>
</svg>
