<?xml version="1.0" encoding="UTF-8"?>
<!DOCTYPE svg PUBLIC "-//W3C//DTD SVG 1.1//EN" "http://www.w3.org/Graphics/SVG/1.1/DTD/svg11.dtd">
<!-- Creator: CorelDRAW X7 -->
<svg xmlns="http://www.w3.org/2000/svg" xml:space="preserve" width="100%" height="100%" version="1.1" style="shape-rendering:geometricPrecision; text-rendering:geometricPrecision; image-rendering:optimizeQuality; fill-rule:evenodd; clip-rule:evenodd"
viewBox="0 0 27093 66548"
 xmlns:xlink="http://www.w3.org/1999/xlink">
 <defs>
  <style type="text/css">
   <![CDATA[
    .fil19 {fill:none}
    .fil13 {fill:#D0A667}
    .fil18 {fill:#A6B7DE}
    .fil0 {fill:#8480BC}
    .fil14 {fill:#E3C582}
    .fil15 {fill:white}
    .fil12 {fill:#FEFEFE;fill-rule:nonzero}
    .fil16 {fill:#DBBB83;fill-rule:nonzero}
    .fil17 {fill:#D0A667;fill-rule:nonzero}
    .fil9 {fill:#8EA0D1;fill-rule:nonzero}
    .fil5 {fill:#8DA0D1;fill-rule:nonzero}
    .fil2 {fill:#8480BC;fill-rule:nonzero}
    .fil4 {fill:#5C56A2;fill-rule:nonzero}
    .fil10 {fill:#D2AE6D;fill-rule:nonzero}
    .fil7 {fill:#D4D4D6;fill-rule:nonzero}
    .fil6 {fill:#D6D5D7;fill-rule:nonzero}
    .fil1 {fill:#E0E4EE;fill-rule:nonzero}
    .fil11 {fill:#F2D394;fill-rule:nonzero}
    .fil3 {fill:white;fill-rule:nonzero}
    .fil8 {fill:white;fill-rule:nonzero}
   ]]>
  </style>
   <clipPath id="id0">
    <path d="M0 14l27093 0 0 66520 -27093 0 0 -66520z"/>
   </clipPath>
 </defs>
 <g id="Layer_x0020_1">
  <metadata id="CorelCorpID_0Corel-Layer"/>
  <polygon class="fil0" points="0,14 27093,14 27093,66534 0,66534 "/>
  <g style="clip-path:url(#id0)">
   <g id="_2717389520464">
    <g>
     <path id="1" class="fil1" d="M12748 49467c1251,498 2390,-461 2390,-461l43 70c184,-193 422,-327 658,-391 35,-10 71,-18 107,-13 36,4 72,24 93,59 24,41 25,97 10,144 -14,46 -42,85 -71,120 -59,69 -128,124 -203,163 -32,16 -139,57 -117,129 14,44 68,44 104,27 36,-16 65,-50 101,-67 74,-35 171,13 103,139 -18,34 -46,57 -75,77 -115,81 -216,169 -333,215l2 3c0,0 -1591,1332 -2903,655 -556,-288 -136,-959 91,-869z"/>
     <path class="fil2" d="M15005 49047l399 718c26,46 83,62 129,37 46,-26 62,-83 37,-129l-400 -718c-25,-46 -83,-63 -129,-37 -45,25 -62,83 -36,129z"/>
     <path class="fil3" d="M8021 51866c8,-135 124,-237 258,-229l423 25c1,0 2,0 4,0 4,-1 7,-1 12,-1 712,91 1321,-19 1800,-187 40,-348 190,-717 468,-1078 625,-812 1172,-1106 1661,-1099l-26 -20c-30,-23 -36,-67 -13,-97l107 -138c23,-30 67,-36 97,-12l29 22c-69,-348 6,-724 240,-1027 422,-547 1201,-657 1756,-252 10,6 19,13 29,20 556,429 660,1229 231,1785 -133,173 -302,302 -488,385 -141,63 -292,99 -445,108l30 23c15,11 24,27 26,44 3,18 -1,38 -13,53l-90 117c128,284 153,620 23,1021 -94,292 -270,619 -547,988 -14,18 -28,37 -42,55 -345,448 -753,709 -1161,800 -177,440 -459,1007 -902,1675 271,275 338,706 136,1056l-1363 -788c-116,-67 -156,-216 -89,-333l207 -357c33,-57 88,-93 148,-106 298,-480 537,-943 722,-1343 -46,-29 -91,-60 -135,-94 -117,-90 -218,-192 -303,-304 -500,128 -1152,228 -1972,232 -106,395 -477,675 -901,650l-11 -1 94 -1593z"/>
     <path class="fil4" d="M13562 51222l-350 454c-89,115 -67,282 48,371l302 232c273,-364 447,-687 540,-975l-169 -130c-116,-89 -282,-68 -371,48z"/>
     <path class="fil2" d="M11531 51506l1597 1231c48,37 117,28 154,-20 37,-48 28,-117 -20,-154l-1597 -1231 -134 174z"/>
     <path class="fil2" d="M10489 54449l977 501c55,28 122,7 150,-48 28,-55 6,-122 -48,-150l-977 -501c-55,-28 -122,-6 -150,48 -28,55 -6,122 48,150z"/>
     <path class="fil2" d="M8742 51712l141 1089c8,61 64,104 125,96 61,-8 104,-64 96,-125l-141 -1088c-8,-61 -64,-104 -125,-96 -61,7 -104,63 -96,124z"/>
     <path class="fil4" d="M14551 49963c186,-83 354,-212 487,-385 34,-44 65,-90 92,-137 20,-34 38,-68 54,-103 14,-30 27,-61 39,-92 30,-80 51,-163 64,-246 70,-445 -98,-912 -480,-1207 -10,-7 -18,-14 -28,-20 -60,58 -116,120 -169,188 -54,70 -102,143 -143,218 -39,70 -72,141 -99,213 -13,32 -24,65 -34,97 -13,40 -24,81 -33,122 -109,462 -20,955 250,1352z"/>
     <path class="fil5" d="M13007 49179l-12 15 1225 944c-2,-17 -11,-33 -26,-44l-1187 -915z"/>
     <path class="fil1" d="M13083 50295c1525,498 2914,-462 2914,-462l53 71c225,-193 515,-327 802,-392 43,-9 87,-17 131,-13 44,5 88,24 113,60 29,41 30,97 13,143 -18,47 -51,86 -87,121 -72,68 -156,124 -247,162 -40,17 -170,57 -143,130 16,44 83,44 127,27 44,-17 79,-51 123,-67 90,-35 209,13 126,139 -22,34 -57,57 -92,77 -141,81 -264,169 -406,215l2 2c0,0 -1941,1333 -3540,655 -678,-287 -166,-959 111,-868z"/>
     <path class="fil2" d="M15902 49936l399 718c26,46 84,62 130,37 45,-26 62,-84 36,-129l-399 -719c-26,-45 -84,-62 -129,-36 -46,25 -63,83 -37,129z"/>
     <path class="fil2" d="M14368 48392l855 854c30,-80 51,-163 64,-246l-820 -821c-39,70 -72,141 -99,213z"/>
     <path class="fil2" d="M14301 48611l829 830c20,-34 38,-68 54,-103l-850 -849c-13,40 -24,81 -33,122z"/>
     <path class="fil6" d="M18515 48476l-7 135c118,90 277,249 283,448 10,318 219,578 375,648 0,0 530,-719 700,-714 0,0 -389,-313 -406,-595 -17,-283 -258,-523 -541,-632l-404 569 0 141z"/>
     <path class="fil3" d="M17771 48736l-12 197c174,133 406,365 416,656 14,467 319,847 548,949 0,0 776,-1051 1025,-1044 0,0 -570,-459 -595,-871 -25,-415 -377,-766 -791,-926l-591 834 0 205z"/>
     <path class="fil7" d="M17771 48531l-12 402c86,-37 156,-85 293,-179 -153,-41 -188,-95 -281,-223z"/>
     <path class="fil8" d="M-4409 54427c1557,212 2808,132 3842,-133 1031,-264 1848,-714 2541,-1240 583,-444 1157,-959 1728,-1471 2436,-2187 4808,-4316 7894,-956l-124 114c-2973,-3237 -5284,-1163 -7657,967 -571,512 -1146,1028 -1739,1480 -708,539 -1545,999 -2602,1270 -1054,270 -2326,352 -3905,136l22 -167z"/>
     <path class="fil9" d="M10473 51969l275 211c210,162 512,123 674,-87l1596 -2072c233,-302 177,-736 -126,-968 -302,-233 -736,-177 -969,125l-1550 2013c-187,242 -142,591 100,778z"/>
     <path class="fil10" d="M6472 34776c54,0 54,85 0,85 -55,0 -55,-85 0,-85z"/>
     <path class="fil3" d="M2718 33982c13,22 43,29 65,15 22,-14 29,-43 15,-65 -14,-22 -43,-29 -65,-15 -22,14 -29,43 -15,65z"/>
     <path class="fil11" d="M11446 29490c16,-26 49,-34 75,-18 26,16 33,50 18,76 -16,26 -50,34 -76,18 -25,-16 -33,-50 -17,-76z"/>
     <path class="fil8" d="M18912 33672c-233,-8 -419,-199 -421,-435l-3 0c-2,236 -188,427 -421,435 234,8 421,200 421,438l3 0c0,-238 187,-430 421,-438z"/>
     <path class="fil11" d="M4782 33706c-16,25 -50,33 -75,17 -26,-16 -34,-50 -18,-76 16,-26 50,-34 76,-18 25,17 33,51 17,77z"/>
     <path class="fil12" d="M15475 30210c-16,26 -50,34 -75,17 -26,-16 -34,-50 -18,-76 16,-25 50,-33 75,-17 26,16 34,50 18,76z"/>
     <path class="fil11" d="M23751 29470c-16,26 -50,34 -75,18 -26,-16 -34,-50 -18,-76 16,-26 50,-34 76,-18 25,16 33,50 17,76z"/>
     <path class="fil11" d="M22363 34066c-16,-26 -50,-34 -76,-18 -25,16 -33,50 -17,76 16,26 50,34 75,18 26,-16 34,-50 18,-76z"/>
     <path class="fil12" d="M8616 33247c-16,26 -49,33 -75,17 -26,-16 -33,-50 -17,-76 16,-26 49,-33 75,-17 25,16 33,50 17,76z"/>
     <path class="fil11" d="M12717 32629c-16,26 -49,34 -75,18 -26,-16 -33,-50 -17,-76 15,-26 49,-34 75,-18 25,17 33,51 17,76z"/>
     <path class="fil12" d="M6110 62159c-18,28 -55,37 -83,19 -28,-17 -37,-55 -19,-83 17,-29 54,-37 82,-20 29,18 37,56 20,84z"/>
     <path class="fil8" d="M22061 53080c9,-10 19,-19 29,-29 25,-26 65,14 40,40 -10,10 -20,19 -29,29 -26,26 -66,-14 -40,-40z"/>
     <path class="fil10" d="M21496 48114c19,9 39,19 58,29 33,16 4,65 -28,49 -20,-10 -39,-20 -59,-30 -32,-16 -3,-65 29,-48z"/>
     <path class="fil10" d="M5090 47000c36,0 36,56 0,56 -37,0 -37,-56 0,-56z"/>
     <path class="fil10" d="M25359 52470c-10,-10 -20,-20 -30,-29 -12,-13 8,-33 20,-20 10,9 20,19 30,29 12,13 -8,33 -20,20z"/>
     <path class="fil10" d="M25339 55021c37,0 37,57 0,57 -36,0 -36,-57 0,-57z"/>
     <path class="fil10" d="M25398 55690c36,0 36,57 0,57 -37,0 -37,-57 0,-57z"/>
     <path class="fil10" d="M23574 51694c-10,-9 -20,-19 -29,-29 -26,-26 14,-66 40,-40 9,10 19,20 29,29 25,26 -15,66 -40,40z"/>
     <path class="fil10" d="M24176 52781c36,0 36,56 0,56 -37,0 -37,-56 0,-56z"/>
     <path class="fil10" d="M24147 47834l29 0c36,0 36,57 0,57l-29 0c-37,0 -37,-57 0,-57z"/>
     <path class="fil10" d="M18967 52839c37,0 37,56 0,56 -36,0 -36,-56 0,-56z"/>
     <path class="fil10" d="M5781 43922l0 -16c0,-73 113,-73 113,0l0 16c0,73 -113,73 -113,0l0 -16c0,-73 113,-73 113,0l0 16c0,73 -113,73 -113,0z"/>
     <path class="fil10" d="M25165 61627c73,0 73,113 0,113 -73,0 -73,-113 0,-113z"/>
     <path class="fil10" d="M21586 46670c36,0 36,57 0,57 -36,0 -36,-57 0,-57z"/>
     <path class="fil10" d="M20800 45390c37,0 37,57 0,57 -36,0 -36,-57 0,-57z"/>
     <path class="fil10" d="M19491 46088c36,0 36,57 0,57 -36,0 -36,-57 0,-57z"/>
     <path class="fil10" d="M17454 53275c37,0 37,57 0,57 -36,0 -36,-57 0,-57z"/>
     <path class="fil10" d="M24236 59323c78,0 78,120 0,120 -78,0 -78,-120 0,-120z"/>
     <path class="fil10" d="M22602 60502l0 -30c0,-36 57,-36 57,0l0 30c0,36 -57,36 -57,0z"/>
     <path class="fil10" d="M24467 46495l0 -29c0,-36 57,-37 57,0l0 29c0,36 -57,36 -57,0z"/>
     <path class="fil10" d="M24496 48329l29 0c36,0 36,56 0,56l-29 0c-37,0 -37,-56 0,-56z"/>
     <path class="fil10" d="M25019 47834c37,0 37,57 0,57 -36,0 -36,-57 0,-57z"/>
     <path class="fil10" d="M25136 49289c36,0 36,57 0,57 -37,0 -37,-57 0,-57z"/>
     <path class="fil10" d="M25049 51180c36,0 36,57 0,57 -37,0 -37,-57 0,-57z"/>
     <path class="fil10" d="M19587 50345c10,-10 20,-19 29,-29 26,-26 66,14 40,40 -9,9 -19,19 -29,29 -25,26 -65,-14 -40,-40z"/>
     <path class="fil10" d="M22342 51952l30 0c22,0 43,19 42,42 -1,23 -19,43 -42,43l-30 0c-22,0 -43,-20 -42,-43 1,-23 19,-42 42,-42z"/>
     <path class="fil10" d="M26416 52243l29 0c22,0 44,19 43,42 -1,23 -19,43 -43,43l-29 0c-22,0 -43,-20 -42,-43 1,-23 18,-42 42,-42z"/>
     <path class="fil10" d="M25485 62369c55,0 55,84 0,84 -55,0 -55,-84 0,-84z"/>
     <path class="fil10" d="M24665 64669c-10,-10 -19,-20 -29,-29 -16,-17 -16,-44 0,-60 16,-17 44,-17 60,0 10,9 19,19 29,29 16,16 16,44 0,60 -16,16 -44,16 -60,0z"/>
     <path class="fil10" d="M25456 59895c54,0 55,85 0,85 -55,0 -55,-85 0,-85z"/>
     <path class="fil10" d="M26461 59181l0 -29c0,-22 19,-43 42,-42 23,1 43,18 43,42l0 29c0,22 -20,44 -43,43 -23,-1 -42,-19 -42,-43z"/>
     <path class="fil10" d="M26241 46627c55,0 55,85 0,85 -54,0 -54,-85 0,-85z"/>
     <path class="fil10" d="M23623 45056c54,0 54,85 0,85 -55,0 -55,-85 0,-85z"/>
     <path class="fil10" d="M21994 44283c10,9 20,19 29,29 17,16 17,44 0,60 -16,16 -43,16 -60,0 -9,-10 -19,-20 -29,-29 -16,-17 -16,-44 0,-60 16,-17 44,-17 60,0z"/>
     <path class="fil10" d="M16761 47114c55,0 55,85 0,85 -54,0 -54,-85 0,-85z"/>
     <path class="fil10" d="M22402 50451c9,10 19,20 29,29 16,17 16,44 0,60 -17,17 -44,17 -60,0l-29 -29c-17,-16 -17,-44 0,-60 16,-16 43,-16 60,0z"/>
     <path class="fil10" d="M20800 53028c55,0 55,85 0,85 -54,0 -54,-85 0,-85z"/>
     <path class="fil10" d="M19549 53465c55,0 55,85 0,85 -54,0 -54,-85 0,-85z"/>
     <path class="fil10" d="M20480 53640c55,0 55,84 0,84 -54,0 -54,-84 0,-84z"/>
     <path class="fil10" d="M22152 58782l0 -29c0,-52 45,-101 99,-99 53,3 99,44 99,99l0 29c0,52 -46,102 -99,99 -54,-2 -99,-43 -99,-99z"/>
     <path class="fil10" d="M21424 60114c36,0 36,57 0,57 -37,0 -37,-57 0,-57z"/>
     <path class="fil10" d="M18627 53702c-10,-10 -19,-19 -29,-29 -26,-26 14,-66 40,-40 10,10 19,19 29,29 26,26 -14,66 -40,40z"/>
     <path class="fil10" d="M24194 56246l0 -29c0,-22 20,-43 43,-42 23,1 42,18 42,42l0 29c0,22 -19,44 -42,43 -23,-1 -43,-19 -43,-43z"/>
     <path class="fil10" d="M22074 56412c55,0 55,85 0,85 -54,0 -54,-85 0,-85z"/>
     <path class="fil10" d="M19539 56470c55,0 55,85 0,85 -54,0 -54,-85 0,-85z"/>
     <path class="fil10" d="M23630 54001c54,0 54,85 0,85 -55,0 -55,-85 0,-85z"/>
     <path class="fil8" d="M20355 57870c54,0 54,85 0,85 -55,0 -55,-85 0,-85z"/>
     <path class="fil10" d="M18557 58184c73,0 73,113 0,113 -72,0 -72,-113 0,-113z"/>
     <path class="fil8" d="M22726 55518c73,0 73,113 0,113 -73,0 -73,-113 0,-113z"/>
     <path class="fil10" d="M22857 57689c73,0 73,113 0,113 -73,0 -73,-113 0,-113z"/>
     <path class="fil10" d="M4269 52200c37,0 37,-57 0,-57 -36,0 -36,57 0,57z"/>
     <path class="fil10" d="M5812 53451c36,0 36,-56 0,-56 -37,0 -37,56 0,56z"/>
     <path class="fil10" d="M5870 52782c36,0 36,-57 0,-57 -37,0 -37,57 0,57z"/>
     <path class="fil10" d="M2669 50774c37,0 37,-56 0,-56 -36,0 -36,56 0,56z"/>
     <path class="fil10" d="M5601 55157l0 29c0,36 57,37 57,0l0 -29c0,-36 -57,-36 -57,0z"/>
     <path class="fil10" d="M3667 55412l62 0c78,0 78,-121 0,-121l-62 0c-77,0 -78,121 0,121z"/>
     <path class="fil10" d="M16158 56229c37,0 37,-57 0,-57 -36,0 -36,57 0,57z"/>
     <path class="fil10" d="M11989 41940c78,0 78,-121 0,-121 -77,0 -78,121 0,121z"/>
     <path class="fil10" d="M5531 57586c77,0 77,-121 0,-121 -78,0 -78,121 0,121z"/>
     <path class="fil10" d="M7581 56405c77,0 77,-120 0,-120 -78,0 -78,120 0,120z"/>
     <path class="fil10" d="M8083 50203c78,0 78,-121 0,-121 -78,0 -78,121 0,121z"/>
     <path class="fil10" d="M1893 58320c-10,10 -20,20 -29,29 -26,26 14,66 40,40 9,-9 19,-19 29,-29 25,-26 -15,-66 -40,-40z"/>
     <path class="fil10" d="M4226 60038l62 0c48,0 93,-41 91,-90 -2,-49 -40,-91 -91,-91l-62 0c-47,0 -92,42 -90,91 2,49 39,90 90,90z"/>
     <path class="fil10" d="M3667 58051c117,0 117,-181 0,-181 -116,0 -117,181 0,181z"/>
     <path class="fil10" d="M4911 51270c9,-9 19,-19 29,-29 16,-16 16,-43 0,-60 -17,-16 -44,-16 -60,0 -10,10 -20,20 -29,30 -17,16 -17,43 0,59 16,17 43,17 60,0z"/>
     <path class="fil10" d="M12075 43484c55,0 55,-85 0,-85 -54,0 -55,85 0,85z"/>
     <path class="fil8" d="M1617 59417c117,0 117,-181 0,-181 -116,0 -116,181 0,181z"/>
     <path class="fil10" d="M1182 57616c117,0 117,-181 0,-181 -116,0 -116,181 0,181z"/>
     <path class="fil10" d="M603 60041c55,0 55,-85 0,-85 -54,0 -54,85 0,85z"/>
     <path class="fil10" d="M1272 55444c55,0 55,-85 0,-85 -54,0 -54,85 0,85z"/>
     <path class="fil10" d="M23607 62396c54,0 54,-85 0,-85 -55,0 -55,85 0,85z"/>
     <path class="fil10" d="M9404 63457l29 0c51,0 101,-46 99,-99 -3,-54 -44,-99 -99,-99l-29 0c-52,0 -102,45 -99,99 2,53 43,99 99,99z"/>
     <path class="fil10" d="M2613 50692l0 63c0,77 121,77 121,0l0 -63c0,-77 -121,-77 -121,0z"/>
     <path class="fil8" d="M20066 46405c78,0 78,-121 0,-121 -78,0 -78,121 0,121z"/>
     <path class="fil10" d="M1525 64217c10,-10 20,-19 29,-29 21,-21 23,-59 0,-80 -22,-21 -57,-22 -80,0 -9,10 -19,19 -29,29 -21,21 -22,59 0,80 23,21 58,22 80,0z"/>
     <path class="fil10" d="M1107 61861l29 0c30,0 58,-26 57,-56 -2,-31 -25,-57 -57,-57l-29 0c-29,0 -58,26 -56,57 1,30 25,56 56,56z"/>
     <g>
      <circle class="fil13" cx="14771" cy="61284" r="3850"/>
      <g>
       <path class="fil14" d="M14756 57435c-391,0 -768,59 -1124,167 483,275 1449,374 1673,404 404,54 842,74 1188,-140 4,-3 9,-7 14,-10 -525,-268 -1120,-421 -1751,-421z"/>
       <path class="fil14" d="M18604 61338c-1109,-280 -2283,-303 -3401,-59 -607,133 -1195,341 -1799,490 -758,187 -1541,278 -2322,272 -33,-1 -67,-2 -101,-3 153,770 535,1457 1073,1987 922,-327 1808,-755 2635,-1277 724,-456 1448,-999 2300,-1077 529,-48 1049,90 1572,198 27,-173 41,-351 43,-531z"/>
       <path class="fil14" d="M18400 62524c-522,-77 -1455,382 -1684,576 -203,172 -375,383 -596,535 -279,192 -617,276 -946,361 -663,171 -1321,361 -1974,569 -82,27 -172,63 -213,138 530,274 1131,431 1769,431 447,0 875,-77 1274,-217 399,-570 638,-1309 1270,-1577 107,-45 482,-99 822,-187 111,-199 204,-410 278,-629z"/>
       <path class="fil15" d="M15483 62374l0 726 -2906 0 0 -726 2906 0zm-2906 -2179l0 -727c1453,0 2906,0 4358,0l-726 727c-1211,0 -2421,0 -3632,0zm4358 726c0,726 0,1453 0,2179l-726 0 0 -1453 0 0 -3632 0 0 -726c1453,0 2906,0 4358,0z"/>
      </g>
     </g>
     <path class="fil3" d="M10156 47476c14,23 43,29 65,16 22,-14 29,-43 15,-66 -13,-22 -43,-28 -65,-15 -22,14 -29,43 -15,65z"/>
     <path class="fil3" d="M10554 45346c14,22 43,29 65,15 22,-14 29,-43 15,-65 -14,-22 -43,-29 -65,-15 -22,14 -29,43 -15,65z"/>
     <path class="fil3" d="M7861 54294c14,22 43,28 65,15 22,-14 29,-43 15,-65 -14,-23 -43,-29 -65,-16 -22,14 -29,43 -15,66z"/>
     <path class="fil3" d="M6283 53059c14,23 43,29 65,16 22,-14 29,-43 15,-66 -14,-22 -43,-28 -65,-15 -22,14 -29,43 -15,65z"/>
     <path class="fil3" d="M2925 48433c14,22 43,29 65,15 22,-14 29,-43 15,-65 -13,-22 -43,-29 -65,-15 -22,14 -29,43 -15,65z"/>
     <path class="fil3" d="M13375 56009c14,22 43,29 65,15 22,-13 29,-43 15,-65 -13,-22 -43,-29 -65,-15 -22,14 -29,43 -15,65z"/>
     <path class="fil3" d="M4399 53779c14,22 43,29 65,15 22,-14 29,-43 15,-65 -14,-22 -43,-29 -65,-15 -22,14 -29,43 -15,65z"/>
     <path class="fil3" d="M16954 51287c-16,25 -50,33 -75,17 -26,-16 -34,-50 -18,-76 16,-26 50,-34 76,-17 25,16 33,50 17,76z"/>
     <path class="fil12" d="M24776 57268c-16,26 -50,34 -75,18 -26,-16 -34,-50 -18,-76 16,-26 50,-34 76,-18 25,17 33,51 17,76z"/>
     <path class="fil3" d="M23507 49664c-16,26 -49,34 -75,17 -26,-16 -33,-50 -17,-76 16,-25 49,-33 75,-17 26,16 33,50 17,76z"/>
     <path class="fil12" d="M19859 54821c-16,26 -49,34 -75,17 -26,-16 -33,-50 -17,-76 16,-25 49,-33 75,-17 25,16 33,50 17,76z"/>
     <path class="fil12" d="M6030 59081c-16,26 -49,34 -75,18 -26,-17 -33,-51 -17,-76 16,-26 49,-34 75,-18 26,16 33,50 17,76z"/>
     <path class="fil12" d="M3496 62545c-16,26 -50,34 -75,18 -26,-16 -34,-50 -18,-76 16,-26 50,-34 75,-18 26,16 34,50 18,76z"/>
     <path class="fil12" d="M6391 56481c-16,26 -50,33 -75,17 -26,-16 -34,-50 -18,-76 16,-26 50,-33 76,-17 25,16 33,50 17,76z"/>
     <path class="fil12" d="M8128 57168c-16,26 -49,34 -75,18 -26,-16 -33,-50 -18,-76 16,-26 50,-34 76,-18 25,16 33,50 17,76z"/>
     <path class="fil12" d="M7971 45271c-16,26 -50,34 -75,18 -26,-17 -34,-51 -18,-76 16,-26 50,-34 76,-18 25,16 33,50 17,76z"/>
     <path class="fil12" d="M25867 53346c-16,26 -50,34 -76,18 -25,-17 -33,-51 -17,-76 16,-26 50,-34 75,-18 26,16 34,50 18,76z"/>
     <path class="fil8" d="M8229 59803c-205,-7 -370,-176 -371,-385l-4 0c-1,209 -166,378 -371,385 206,7 372,177 372,387l2 0c1,-210 166,-380 372,-387z"/>
     <path class="fil12" d="M24411 60645c136,4 245,116 246,254l2 0c1,-138 110,-250 246,-254 -137,-5 -246,-117 -246,-256l-2 0c0,139 -110,251 -246,256z"/>
     <path class="fil3" d="M9344 43359c14,23 43,29 65,15 22,-13 29,-42 15,-65 -13,-22 -43,-29 -65,-15 -22,14 -29,43 -15,65z"/>
     <g>
      <path class="fil16" d="M22494 54588c0,-343 278,-621 621,-621 343,0 622,278 622,621 0,343 -279,621 -622,621 -343,0 -621,-278 -621,-621z"/>
      <path class="fil17" d="M23596 54194c88,107 141,245 141,394 0,343 -278,621 -622,621 -191,0 -362,-86 -476,-222 0,0 469,179 757,-109 289,-289 200,-684 200,-684z"/>
     </g>
     <path class="fil11" d="M5041 41626c-16,26 -49,33 -75,17 -26,-16 -33,-50 -17,-76 16,-26 49,-34 75,-17 25,16 33,50 17,76z"/>
     <polygon class="fil18" points="19897,42603 19875,42650 19891,42640 "/>
     <path class="fil3" d="M13609 46277c-16,-26 -50,-33 -75,-17 -26,16 -34,50 -18,76 16,26 50,33 75,17 26,-16 34,-50 18,-76z"/>
     <path class="fil12" d="M17410 39901c-16,-26 -50,-33 -75,-17 -26,16 -34,50 -18,76 16,26 50,34 76,17 25,-16 33,-50 17,-76z"/>
     <path class="fil12" d="M16253 39327c-16,-25 -50,-33 -75,-17 -26,16 -34,50 -18,76 16,26 50,34 76,17 25,-16 33,-50 17,-76z"/>
     <path class="fil11" d="M16145 44851c-16,-26 -50,-34 -75,-18 -26,16 -34,50 -18,76 16,26 50,34 75,18 26,-16 34,-50 18,-76z"/>
     <path class="fil8" d="M23110 38734c16,26 49,34 75,18 25,-17 33,-51 17,-76 -16,-26 -49,-34 -75,-18 -26,16 -33,50 -17,76z"/>
     <path class="fil8" d="M24913 39266c16,26 50,34 75,18 26,-17 34,-51 18,-76 -16,-26 -50,-34 -75,-18 -26,16 -34,50 -18,76z"/>
     <path class="fil11" d="M6958 46999c15,25 49,33 75,17 25,-16 33,-50 17,-76 -16,-26 -49,-34 -75,-17 -26,16 -33,50 -17,76z"/>
     <path class="fil12" d="M21061 40786c16,26 50,34 76,18 25,-16 33,-50 17,-76 -16,-26 -50,-34 -75,-18 -26,16 -34,51 -18,76z"/>
     <path class="fil11" d="M24623 41709c16,26 50,34 76,18 25,-16 33,-50 17,-76 -16,-26 -50,-34 -75,-18 -26,16 -34,50 -18,76z"/>
     <path class="fil8" d="M22815 43203c16,26 50,33 75,17 26,-16 34,-50 18,-76 -16,-26 -50,-33 -76,-17 -25,16 -33,50 -17,76z"/>
     <path class="fil8" d="M19392 39687c16,26 50,34 76,18 25,-16 33,-50 17,-76 -16,-26 -50,-34 -75,-18 -26,17 -34,51 -18,76z"/>
     <path class="fil8" d="M14147 40678c16,26 50,34 75,18 26,-16 34,-50 18,-76 -16,-26 -50,-34 -76,-18 -25,16 -33,50 -17,76z"/>
     <path class="fil11" d="M26005 45274c16,26 49,34 75,18 26,-16 33,-50 17,-76 -16,-26 -49,-34 -75,-18 -26,16 -33,50 -17,76z"/>
     <path class="fil12" d="M7703 42314c-16,26 -50,34 -76,18 -25,-16 -33,-50 -17,-76 16,-26 50,-34 75,-18 26,17 34,51 18,76z"/>
     <path class="fil11" d="M16125 41192c-16,25 -50,33 -75,17 -26,-16 -34,-50 -18,-76 16,-26 50,-34 76,-17 25,16 33,50 17,76z"/>
     <path class="fil3" d="M15620 41111c-16,26 -50,34 -75,18 -26,-16 -34,-50 -18,-76 16,-26 50,-34 76,-18 25,17 33,51 17,76z"/>
     <path class="fil12" d="M13077 40521c-16,26 -49,34 -75,18 -26,-17 -33,-51 -17,-76 16,-26 49,-34 75,-18 26,16 33,50 17,76z"/>
     <path class="fil3" d="M8408 40981c-16,26 -49,34 -75,18 -26,-16 -33,-50 -17,-76 16,-26 49,-34 75,-18 26,17 33,51 17,76z"/>
     <path class="fil12" d="M16552 42102c-16,26 -50,34 -75,18 -26,-16 -34,-51 -18,-76 16,-26 50,-34 76,-18 25,16 33,50 17,76z"/>
     <path class="fil8" d="M20091 42649c-119,-4 -215,-101 -215,-223l-2 0c-1,122 -97,219 -216,223 120,4 216,103 216,225l2 0c0,-122 96,-221 215,-225z"/>
     <path class="fil3" d="M2977 45189c16,26 49,34 75,18 26,-16 33,-50 17,-76 -16,-26 -49,-34 -75,-18 -25,16 -33,50 -17,76z"/>
     <path class="fil12" d="M2697 42998c16,26 50,34 76,18 25,-17 33,-51 17,-76 -16,-26 -50,-34 -75,-18 -26,16 -34,50 -18,76z"/>
     <path class="fil12" d="M1667 40078c16,26 49,34 75,18 26,-16 33,-50 18,-76 -16,-26 -50,-34 -76,-18 -25,16 -33,50 -17,76z"/>
     <path class="fil11" d="M3342 45774c16,26 50,34 75,18 26,-16 34,-50 18,-76 -16,-26 -50,-34 -75,-18 -26,16 -34,50 -18,76z"/>
     <path class="fil11" d="M2313 44282c16,26 50,34 76,18 25,-16 33,-50 17,-76 -16,-26 -50,-34 -75,-18 -26,17 -34,51 -18,76z"/>
     <path class="fil12" d="M893 44026c16,26 50,34 75,18 26,-16 34,-50 18,-76 -16,-26 -50,-34 -76,-18 -25,16 -33,50 -17,76z"/>
     <path class="fil12" d="M1865 46627c16,26 50,34 75,18 26,-16 34,-50 18,-76 -16,-26 -50,-34 -75,-18 -26,16 -34,50 -18,76z"/>
     <path class="fil12" d="M22885 45549c16,26 50,34 75,18 26,-16 34,-50 18,-76 -16,-26 -50,-34 -75,-18 -26,16 -34,50 -18,76z"/>
     <path class="fil10" d="M3699 36430c18,0 18,28 0,28 -18,0 -18,-28 0,-28z"/>
     <path class="fil10" d="M3990 36416c36,0 36,56 0,56 -37,0 -37,-56 0,-56z"/>
     <path class="fil10" d="M3602 38603c47,0 47,73 0,73 -47,0 -47,-73 0,-73z"/>
     <path class="fil8" d="M19622 38213c16,26 50,33 75,17 26,-16 34,-50 18,-76 -16,-26 -50,-34 -76,-17 -25,16 -33,50 -17,76z"/>
     <path class="fil8" d="M21904 37271c16,25 49,33 75,17 26,-16 33,-50 17,-76 -16,-26 -49,-34 -75,-17 -26,16 -33,50 -17,76z"/>
     <path class="fil3" d="M3607 37451c-16,26 -49,34 -75,18 -26,-16 -33,-51 -17,-76 15,-26 49,-34 75,-18 25,16 33,50 17,76z"/>
     <path class="fil12" d="M16843 38357c-16,26 -50,34 -76,18 -25,-16 -33,-50 -17,-76 16,-26 50,-34 75,-18 26,17 34,51 18,76z"/>
     <path class="fil3" d="M13800 38325c-16,26 -49,34 -75,18 -25,-16 -33,-50 -17,-76 16,-26 49,-34 75,-18 26,16 33,50 17,76z"/>
     <path class="fil11" d="M11173 38464c-16,25 -50,33 -75,17 -26,-16 -34,-50 -18,-76 16,-26 50,-34 75,-17 26,16 34,50 18,76z"/>
     <path class="fil12" d="M10024 37463c-15,26 -49,34 -75,18 -25,-16 -33,-50 -17,-76 16,-26 49,-34 75,-18 26,16 33,51 17,76z"/>
     <path class="fil12" d="M14761 37077c-16,26 -50,34 -75,18 -26,-16 -34,-50 -18,-76 16,-26 50,-34 75,-18 26,16 34,50 18,76z"/>
     <path class="fil3" d="M7288 38162c-16,25 -49,33 -75,17 -26,-16 -33,-50 -17,-76 15,-26 49,-34 75,-17 25,16 33,50 17,76z"/>
     <path class="fil12" d="M25287 36425c-16,26 -49,34 -75,18 -25,-16 -33,-51 -17,-76 16,-26 49,-34 75,-18 26,16 33,50 17,76z"/>
     <path class="fil3" d="M9472 37063c-16,26 -50,34 -76,18 -25,-16 -33,-51 -17,-76 16,-26 50,-34 75,-18 26,16 34,50 18,76z"/>
     <path class="fil8" d="M20663 64357l0 -29c0,-52 46,-101 99,-99 54,3 99,44 99,99l0 29c0,52 -46,102 -99,99 -54,-2 -99,-43 -99,-99z"/>
     <path class="fil12" d="M16075 54046c16,26 50,34 75,18 26,-16 34,-50 18,-76 -16,-26 -50,-34 -75,-18 -26,16 -34,50 -18,76z"/>
     <path class="fil12" d="M6795 64776c-17,28 -54,37 -82,19 -29,-18 -37,-55 -20,-83 18,-29 55,-38 83,-20 28,18 37,55 19,84z"/>
    </g>
   </g>
  </g>
  <polygon class="fil19" points="0,14 27093,14 27093,66534 0,66534 "/>
 </g>
</svg>
