<?xml version="1.0" encoding="UTF-8"?>
<!DOCTYPE svg PUBLIC "-//W3C//DTD SVG 1.1//EN" "http://www.w3.org/Graphics/SVG/1.1/DTD/svg11.dtd">
<!-- Creator: CorelDRAW X7 -->
<svg xmlns="http://www.w3.org/2000/svg" xml:space="preserve" width="100%" height="100%" version="1.1" style="shape-rendering:geometricPrecision; text-rendering:geometricPrecision; image-rendering:optimizeQuality; fill-rule:evenodd; clip-rule:evenodd"
viewBox="0 0 30988 35729"
 xmlns:xlink="http://www.w3.org/1999/xlink">
 <defs>
  <style type="text/css">
   <![CDATA[
    .fil12 {fill:#D0A667}
    .fil17 {fill:#A6B7DE}
    .fil13 {fill:#E3C582}
    .fil14 {fill:white}
    .fil11 {fill:#FEFEFE;fill-rule:nonzero}
    .fil15 {fill:#DBBB83;fill-rule:nonzero}
    .fil16 {fill:#D0A667;fill-rule:nonzero}
    .fil8 {fill:#8EA0D1;fill-rule:nonzero}
    .fil4 {fill:#8DA0D1;fill-rule:nonzero}
    .fil1 {fill:#8480BC;fill-rule:nonzero}
    .fil3 {fill:#5C56A2;fill-rule:nonzero}
    .fil9 {fill:#D2AE6D;fill-rule:nonzero}
    .fil6 {fill:#D4D4D6;fill-rule:nonzero}
    .fil5 {fill:#D6D5D7;fill-rule:nonzero}
    .fil0 {fill:#E0E4EE;fill-rule:nonzero}
    .fil10 {fill:#F2D394;fill-rule:nonzero}
    .fil2 {fill:white;fill-rule:nonzero}
    .fil7 {fill:white;fill-rule:nonzero}
   ]]>
  </style>
 </defs>
 <g id="Layer_x0020_1">
  <metadata id="CorelCorpID_0Corel-Layer"/>
  <g id="_2717348302832">
   <path class="fil0" d="M17185 20072c1250,498 2389,-461 2389,-461l44 70c184,-193 422,-327 657,-392 36,-9 72,-17 108,-13 36,5 72,24 93,60 23,41 24,97 10,144 -14,46 -42,85 -72,120 -58,68 -127,124 -202,162 -33,17 -139,57 -117,130 13,44 68,44 104,27 36,-17 65,-50 101,-67 74,-35 171,13 103,139 -18,34 -47,57 -75,77 -116,81 -217,169 -333,215l2 2c0,0 -1592,1333 -2903,656 -556,-288 -136,-960 91,-869z"/>
   <path class="fil1" d="M19441 19652l400 718c25,46 83,62 129,37 46,-26 62,-84 37,-129l-400 -719c-25,-45 -83,-62 -129,-36 -46,25 -62,83 -37,129z"/>
   <path class="fil2" d="M12458 22470c8,-134 123,-236 258,-229l422 26c2,0 3,0 4,0 4,-1 8,-2 12,-1 713,90 1322,-20 1801,-187 39,-349 189,-717 467,-1079 626,-811 1173,-1105 1662,-1098l-26 -20c-30,-23 -36,-67 -13,-97l107 -138c23,-31 66,-36 97,-13l29 23c-70,-348 6,-724 239,-1027 422,-547 1202,-657 1757,-253 10,7 19,14 28,21 557,429 660,1229 231,1785 -132,173 -301,302 -487,385 -141,63 -292,99 -445,108l30 23c14,11 23,27 26,44 3,18 -2,37 -14,53l-89 117c128,284 152,619 23,1021 -94,292 -270,619 -547,987 -14,19 -28,37 -42,56 -346,448 -753,709 -1161,800 -178,440 -459,1007 -902,1675 271,274 338,705 135,1055l-1362 -787c-117,-67 -157,-216 -89,-333l206 -357c33,-57 88,-94 149,-106 297,-480 536,-943 721,-1344 -46,-28 -91,-59 -134,-93 -117,-90 -218,-192 -303,-305 -500,129 -1152,229 -1973,233 -105,395 -477,675 -901,650l-11 -1 95 -1594z"/>
   <path class="fil3" d="M17999 21827l-350 454c-89,115 -68,281 48,371l301 232c274,-364 448,-687 540,-975l-168 -130c-116,-90 -282,-68 -371,48z"/>
   <path class="fil1" d="M15967 22111l1598 1231c48,37 117,28 154,-20 37,-48 28,-117 -20,-154l-1598 -1231 -134 174z"/>
   <path class="fil1" d="M14926 25054l977 501c54,28 121,6 149,-48 29,-55 7,-122 -48,-150l-976 -501c-55,-28 -122,-7 -150,48 -28,55 -7,122 48,150z"/>
   <path class="fil1" d="M13179 22317l141 1089c8,61 64,104 125,96 61,-8 104,-64 96,-125l-141 -1089c-8,-61 -64,-104 -125,-96 -61,8 -104,64 -96,125z"/>
   <path class="fil3" d="M18988 20568c185,-83 354,-212 487,-385 34,-44 65,-90 92,-138 20,-33 38,-67 53,-102 15,-30 28,-61 39,-92 31,-80 52,-163 65,-247 70,-444 -99,-912 -480,-1206 -10,-7 -19,-14 -29,-20 -59,58 -116,120 -168,188 -55,70 -102,143 -143,218 -39,69 -72,140 -100,212 -12,33 -23,65 -33,98 -13,40 -25,81 -34,122 -109,462 -20,955 251,1352z"/>
   <path class="fil4" d="M17443 19784l-11 15 1225 944c-3,-17 -12,-33 -26,-44l-1188 -915z"/>
   <path class="fil0" d="M17520 20900c1525,497 2913,-462 2913,-462l54 70c224,-193 514,-326 802,-391 43,-10 87,-18 130,-13 44,5 88,24 114,60 29,41 30,96 12,143 -17,47 -51,86 -87,120 -71,69 -155,125 -247,163 -40,17 -170,57 -143,130 17,44 83,44 127,27 44,-17 80,-51 124,-68 90,-34 208,14 125,140 -22,33 -57,57 -92,77 -141,81 -264,169 -405,214l2 3c0,0 -1941,1333 -3540,655 -679,-287 -167,-959 111,-868z"/>
   <path class="fil1" d="M20339 20541l399 718c26,45 83,62 129,36 46,-25 62,-83 37,-129l-400 -718c-25,-45 -83,-62 -129,-36 -45,25 -62,83 -36,129z"/>
   <path class="fil1" d="M18804 18996l855 855c31,-80 52,-163 65,-247l-820 -820c-39,69 -72,140 -100,212z"/>
   <path class="fil1" d="M18737 19216l830 829c20,-33 38,-67 53,-102l-849 -849c-13,40 -25,81 -34,122z"/>
   <path class="fil5" d="M22952 19081l-8 134c119,91 278,249 284,448 10,319 218,579 375,649 0,0 529,-719 699,-714 0,0 -389,-313 -406,-595 -17,-283 -257,-523 -540,-632l-404 569 0 141z"/>
   <path class="fil2" d="M22207 19341l-11 197c173,133 406,365 415,656 15,466 320,847 549,949 0,0 775,-1052 1024,-1045 0,0 -570,-458 -594,-870 -25,-415 -377,-766 -792,-926l-591 833 0 206z"/>
   <path class="fil6" d="M22207 19135l-11 403c85,-37 156,-85 292,-179 -152,-41 -187,-95 -281,-224z"/>
   <path class="fil7" d="M28 25032c1557,212 2807,132 3841,-133 1031,-264 1849,-714 2541,-1241 583,-443 1158,-958 1728,-1471 2437,-2186 4809,-4316 7895,-955l-125 114c-2972,-3237 -5283,-1163 -7657,967 -570,512 -1145,1028 -1738,1479 -708,540 -1546,999 -2602,1270 -1054,271 -2326,353 -3905,137l22 -167z"/>
   <path class="fil8" d="M14910 22574l274 211c211,162 512,123 674,-87l1596 -2072c233,-302 177,-736 -125,-969 -302,-233 -736,-176 -969,126l-1551 2012c-187,243 -142,592 101,779z"/>
   <path class="fil9" d="M10908 5381c55,0 55,84 0,84 -54,0 -54,-84 0,-84z"/>
   <path class="fil2" d="M7154 4587c14,22 43,29 65,15 22,-14 29,-43 15,-65 -13,-22 -43,-29 -65,-15 -22,14 -29,43 -15,65z"/>
   <path class="fil10" d="M15882 95c16,-26 50,-34 76,-18 25,16 33,50 17,76 -16,26 -50,34 -75,18 -26,-17 -34,-51 -18,-76z"/>
   <path class="fil7" d="M23348 4277c-232,-8 -419,-199 -420,-435l-4 0c-1,236 -188,427 -420,435 233,8 420,200 420,438l4 0c0,-238 187,-430 420,-438z"/>
   <path class="fil10" d="M9219 4310c-16,26 -50,34 -76,18 -25,-16 -33,-50 -17,-76 16,-26 50,-34 75,-18 26,16 34,50 18,76z"/>
   <path class="fil11" d="M19911 815c-15,25 -49,33 -75,17 -25,-16 -33,-50 -17,-76 16,-26 49,-34 75,-17 26,16 33,50 17,76z"/>
   <path class="fil10" d="M28188 75c-16,26 -50,34 -76,18 -25,-17 -33,-51 -17,-76 16,-26 50,-34 75,-18 26,16 34,50 18,76z"/>
   <path class="fil10" d="M26799 4671c-16,-26 -49,-34 -75,-18 -26,16 -33,50 -17,76 16,26 49,34 75,18 26,-16 33,-50 17,-76z"/>
   <path class="fil11" d="M13053 3852c-16,25 -50,33 -75,17 -26,-16 -34,-50 -18,-76 16,-26 50,-34 75,-17 26,16 34,50 18,76z"/>
   <path class="fil10" d="M17154 3234c-16,26 -50,34 -75,18 -26,-16 -34,-50 -18,-76 16,-26 50,-34 75,-18 26,16 34,50 18,76z"/>
   <path class="fil11" d="M10546 32764c-17,28 -54,37 -82,19 -29,-18 -37,-55 -20,-83 18,-29 55,-38 83,-20 28,18 37,55 19,84z"/>
   <path class="fil7" d="M26497 23685c10,-10 20,-20 29,-29 26,-26 66,14 40,40 -9,9 -19,19 -29,29 -26,26 -66,-14 -40,-40z"/>
   <path class="fil9" d="M25933 18718c19,10 38,20 58,30 32,16 4,65 -29,48 -19,-9 -39,-19 -58,-29 -32,-16 -4,-65 29,-49z"/>
   <path class="fil9" d="M9526 17605c37,0 37,56 0,56 -36,0 -36,-56 0,-56z"/>
   <path class="fil9" d="M29795 23075c-10,-10 -19,-20 -29,-29 -13,-13 7,-33 20,-20 10,9 19,19 29,29 13,13 -7,33 -20,20z"/>
   <path class="fil9" d="M29776 25626c36,0 37,57 0,57 -36,0 -36,-57 0,-57z"/>
   <path class="fil9" d="M29834 26295c37,0 37,57 0,57 -36,0 -36,-57 0,-57z"/>
   <path class="fil9" d="M28010 22299c-9,-10 -19,-19 -29,-29 -26,-26 14,-66 40,-40 10,10 20,19 29,29 26,26 -14,66 -40,40z"/>
   <path class="fil9" d="M28612 23386c37,0 37,56 0,56 -36,0 -36,-56 0,-56z"/>
   <path class="fil9" d="M28583 18439l29 0c37,0 37,57 0,57l-29 0c-36,0 -36,-57 0,-57z"/>
   <path class="fil9" d="M23404 23444c36,0 36,56 0,56 -37,0 -37,-56 0,-56z"/>
   <path class="fil9" d="M10218 14527l0 -16c0,-73 113,-73 113,0l0 16c0,73 -113,73 -113,0l0 -16c0,-73 113,-73 113,0l0 16c0,73 -113,73 -113,0z"/>
   <path class="fil9" d="M29601 32232c73,0 73,113 0,113 -72,0 -72,-113 0,-113z"/>
   <path class="fil9" d="M26023 17275c36,0 36,57 0,57 -37,0 -37,-57 0,-57z"/>
   <path class="fil9" d="M25237 15995c36,0 36,56 0,56 -36,0 -36,-56 0,-56z"/>
   <path class="fil9" d="M23928 16693c36,0 36,57 0,57 -37,0 -37,-57 0,-57z"/>
   <path class="fil9" d="M21891 23880c36,0 36,57 0,57 -37,0 -37,-57 0,-57z"/>
   <path class="fil9" d="M28673 29927c77,0 77,121 0,121 -78,0 -78,-121 0,-121z"/>
   <path class="fil9" d="M27039 31106l0 -29c0,-36 56,-36 56,0l0 29c0,37 -56,37 -56,0z"/>
   <path class="fil9" d="M28904 17100l0 -29c0,-37 57,-37 57,0l0 29c0,36 -57,36 -57,0z"/>
   <path class="fil9" d="M28932 18934l29 0c37,0 37,56 0,56l-29 0c-36,0 -36,-56 0,-56z"/>
   <path class="fil9" d="M29456 18439c36,0 36,57 0,57 -36,0 -36,-57 0,-57z"/>
   <path class="fil9" d="M29572 19894c37,0 37,56 0,56 -36,0 -36,-56 0,-56z"/>
   <path class="fil9" d="M29485 21785c36,0 37,57 0,57 -36,0 -36,-57 0,-57z"/>
   <path class="fil9" d="M24024 20950c10,-10 19,-20 29,-29 26,-26 66,14 40,40 -10,9 -19,19 -29,29 -26,25 -66,-15 -40,-40z"/>
   <path class="fil9" d="M26779 22557l29 0c22,0 44,19 43,42 -1,23 -19,43 -43,43l-29 0c-22,0 -43,-20 -42,-43 1,-23 18,-42 42,-42z"/>
   <path class="fil9" d="M30853 22848l29 0c22,0 43,19 42,42 -1,23 -18,42 -42,42l-29 0c-23,0 -44,-19 -43,-42 1,-23 19,-42 43,-42z"/>
   <path class="fil9" d="M29922 32973c54,0 54,85 0,85 -55,0 -55,-85 0,-85z"/>
   <path class="fil9" d="M29102 35274c-10,-10 -20,-20 -29,-30 -17,-16 -17,-43 0,-60 16,-16 43,-16 60,0 9,10 19,20 29,30 16,16 16,43 0,60 -17,16 -44,16 -60,0z"/>
   <path class="fil9" d="M29892 30500c55,0 55,85 0,85 -54,0 -54,-85 0,-85z"/>
   <path class="fil9" d="M30898 29786l0 -29c0,-22 19,-43 42,-42 23,1 42,18 42,42l0 29c0,22 -19,43 -42,42 -23,-1 -42,-18 -42,-42z"/>
   <path class="fil9" d="M30678 17232c55,0 55,85 0,85 -54,0 -55,-85 0,-85z"/>
   <path class="fil9" d="M28059 15661c55,0 55,85 0,85 -54,0 -54,-85 0,-85z"/>
   <path class="fil9" d="M26431 14888c10,9 19,19 29,29 16,16 16,43 0,60 -16,16 -44,16 -60,0 -10,-10 -19,-20 -29,-30 -16,-16 -16,-43 0,-59 16,-17 44,-17 60,0z"/>
   <path class="fil9" d="M21198 17719c54,0 55,85 0,85 -55,0 -55,-85 0,-85z"/>
   <path class="fil9" d="M26838 21056c10,10 20,19 29,29 16,16 16,44 0,60 -16,16 -43,16 -60,0l-29 -29c-16,-16 -16,-44 0,-60 16,-16 44,-16 60,0z"/>
   <path class="fil9" d="M25237 23633c55,0 55,85 0,85 -55,0 -55,-85 0,-85z"/>
   <path class="fil9" d="M23986 24070c54,0 54,85 0,85 -55,0 -55,-85 0,-85z"/>
   <path class="fil9" d="M24917 24244c54,0 55,85 0,85 -55,0 -55,-85 0,-85z"/>
   <path class="fil9" d="M26588 29387l0 -29c0,-52 46,-101 99,-99 54,2 99,43 99,99l0 29c0,52 -45,101 -99,99 -53,-2 -99,-44 -99,-99z"/>
   <path class="fil9" d="M25860 30719c37,0 37,57 0,57 -36,0 -36,-57 0,-57z"/>
   <path class="fil9" d="M23064 24307c-10,-10 -20,-20 -29,-29 -26,-26 14,-66 40,-40 9,9 19,19 29,29 26,26 -14,66 -40,40z"/>
   <path class="fil9" d="M28631 26851l0 -29c0,-22 20,-44 42,-43 23,2 43,19 43,43l0 29c0,22 -20,43 -43,42 -23,-1 -42,-18 -42,-42z"/>
   <path class="fil9" d="M26511 27017c55,0 55,84 0,84 -55,0 -55,-84 0,-84z"/>
   <path class="fil9" d="M23976 27075c55,0 55,85 0,85 -55,0 -55,-85 0,-85z"/>
   <path class="fil9" d="M28066 24606c55,0 55,84 0,84 -54,0 -55,-84 0,-84z"/>
   <path class="fil7" d="M24791 28475c55,0 55,85 0,85 -54,0 -54,-85 0,-85z"/>
   <path class="fil9" d="M22994 28789c73,0 73,113 0,113 -73,0 -73,-113 0,-113z"/>
   <path class="fil7" d="M27163 26123c72,0 73,113 0,113 -73,0 -73,-113 0,-113z"/>
   <path class="fil9" d="M27294 28294c72,0 73,113 0,113 -73,0 -73,-113 0,-113z"/>
   <path class="fil9" d="M8706 22805c36,0 37,-57 0,-57 -36,0 -36,57 0,57z"/>
   <path class="fil9" d="M10248 24056c37,0 37,-57 0,-57 -36,0 -36,57 0,57z"/>
   <path class="fil9" d="M10306 23387c37,0 37,-57 0,-57 -36,0 -36,57 0,57z"/>
   <path class="fil9" d="M7106 21379c36,0 36,-57 0,-57 -37,0 -37,57 0,57z"/>
   <path class="fil9" d="M10038 25762l0 29c0,36 56,36 56,0l0 -29c0,-37 -56,-37 -56,0z"/>
   <path class="fil9" d="M8104 26016l62 0c78,0 78,-120 0,-120l-62 0c-78,0 -78,120 0,120z"/>
   <path class="fil9" d="M20595 26833c36,0 36,-56 0,-56 -37,0 -37,56 0,56z"/>
   <path class="fil9" d="M16426 12545c78,0 78,-121 0,-121 -78,0 -78,121 0,121z"/>
   <path class="fil9" d="M9967 28190c78,0 78,-120 0,-120 -77,0 -78,120 0,120z"/>
   <path class="fil9" d="M12017 27010c78,0 78,-121 0,-121 -78,0 -78,121 0,121z"/>
   <path class="fil9" d="M12520 20808c77,0 77,-121 0,-121 -78,0 -78,121 0,121z"/>
   <path class="fil9" d="M6329 28925c-9,10 -19,19 -29,29 -26,26 14,66 40,40 10,-10 20,-19 29,-29 26,-26 -14,-66 -40,-40z"/>
   <path class="fil9" d="M8663 30643l62 0c47,0 93,-41 90,-90 -2,-49 -39,-91 -90,-91l-62 0c-48,0 -93,42 -91,91 2,49 40,90 91,90z"/>
   <path class="fil9" d="M8104 28655c116,0 117,-181 0,-181 -117,0 -117,181 0,181z"/>
   <path class="fil9" d="M9347 21875c10,-9 19,-19 29,-29 16,-16 16,-44 0,-60 -16,-16 -44,-16 -60,0 -9,10 -19,20 -29,29 -16,17 -16,44 0,60 16,17 44,17 60,0z"/>
   <path class="fil9" d="M16512 14089c54,0 54,-85 0,-85 -55,0 -55,85 0,85z"/>
   <path class="fil7" d="M6054 30022c116,0 117,-181 0,-181 -117,0 -117,181 0,181z"/>
   <path class="fil9" d="M5619 28221c117,0 117,-181 0,-181 -116,0 -117,181 0,181z"/>
   <path class="fil9" d="M5040 30646c54,0 55,-85 0,-85 -55,0 -55,85 0,85z"/>
   <path class="fil9" d="M5709 26049c55,0 55,-85 0,-85 -54,0 -55,85 0,85z"/>
   <path class="fil9" d="M28043 33001c55,0 55,-85 0,-85 -54,0 -54,85 0,85z"/>
   <path class="fil9" d="M13840 34061l29 0c52,0 102,-45 99,-99 -2,-53 -43,-99 -99,-99l-29 0c-52,0 -101,46 -99,99 3,54 44,99 99,99z"/>
   <path class="fil9" d="M7050 21297l0 62c0,78 120,78 120,0l0 -62c0,-77 -120,-78 -120,0z"/>
   <path class="fil7" d="M24503 17009c77,0 77,-120 0,-120 -78,0 -78,120 0,120z"/>
   <path class="fil9" d="M5962 34822c9,-10 19,-20 29,-29 21,-21 22,-60 0,-80 -23,-21 -58,-23 -80,0 -10,9 -20,19 -29,29 -21,21 -23,59 0,80 22,20 57,22 80,0z"/>
   <path class="fil9" d="M5544 32466l29 0c29,0 58,-26 56,-56 -1,-31 -24,-57 -56,-57l-29 0c-30,0 -58,26 -57,57 2,30 25,56 57,56z"/>
   <g>
    <circle class="fil12" cx="19208" cy="31889" r="3850"/>
    <g>
     <path class="fil13" d="M19193 28040c-391,0 -769,58 -1124,167 482,275 1449,374 1673,404 403,54 841,73 1187,-140 5,-3 10,-7 15,-10 -526,-269 -1120,-421 -1751,-421z"/>
     <path class="fil13" d="M23041 31943c-1109,-281 -2283,-303 -3401,-59 -607,132 -1196,341 -1799,490 -759,187 -1541,277 -2322,271 -33,0 -67,-1 -101,-3 153,770 535,1457 1073,1988 921,-327 1807,-756 2635,-1277 723,-456 1448,-999 2300,-1077 529,-48 1048,90 1572,198 26,-174 40,-351 43,-531z"/>
     <path class="fil13" d="M22837 33129c-522,-77 -1455,382 -1684,575 -204,173 -376,384 -596,536 -280,192 -617,276 -946,361 -663,171 -1321,360 -1974,569 -83,26 -173,63 -213,137 530,275 1131,431 1769,431 446,0 875,-77 1273,-216 400,-571 639,-1309 1271,-1577 107,-46 482,-99 821,-187 111,-200 204,-410 279,-629z"/>
     <path class="fil14" d="M19919 32979l0 726 -2905 0 0 -726 2905 0zm-2905 -2180l0 -726c1452,0 2905,0 4358,0l-726 726c-1211,0 -2422,0 -3632,0zm4358 727c0,726 0,1453 0,2179l-726 0 0 -1453 0 0 -3632 0 0 -726c1452,0 2905,0 4358,0z"/>
    </g>
   </g>
   <path class="fil2" d="M14593 18081c14,22 43,29 65,15 22,-13 29,-43 15,-65 -14,-22 -43,-29 -65,-15 -22,14 -29,43 -15,65z"/>
   <path class="fil2" d="M14991 15951c13,22 43,29 65,15 22,-14 29,-43 15,-65 -14,-22 -43,-29 -65,-15 -22,13 -29,43 -15,65z"/>
   <path class="fil2" d="M12298 24898c13,23 43,29 65,15 22,-13 29,-42 15,-65 -14,-22 -43,-29 -65,-15 -22,14 -29,43 -15,65z"/>
   <path class="fil2" d="M10719 23664c14,22 43,29 66,15 22,-13 28,-43 15,-65 -14,-22 -43,-29 -65,-15 -23,14 -29,43 -16,65z"/>
   <path class="fil2" d="M7362 19038c14,22 43,29 65,15 22,-14 29,-43 15,-65 -14,-22 -43,-29 -65,-15 -22,13 -29,43 -15,65z"/>
   <path class="fil2" d="M17812 26614c14,22 43,29 65,15 22,-14 29,-43 15,-65 -14,-22 -43,-29 -65,-15 -22,14 -29,43 -15,65z"/>
   <path class="fil2" d="M8836 24384c13,22 43,29 65,15 22,-14 29,-43 15,-65 -14,-22 -43,-29 -65,-15 -23,13 -29,43 -15,65z"/>
   <path class="fil2" d="M21391 21891c-16,26 -50,34 -76,18 -25,-16 -33,-50 -17,-76 16,-26 50,-34 75,-18 26,17 34,51 18,76z"/>
   <path class="fil11" d="M29213 27873c-16,26 -50,34 -76,18 -25,-16 -33,-50 -17,-76 16,-26 50,-34 75,-18 26,16 34,50 18,76z"/>
   <path class="fil2" d="M27944 20269c-16,26 -50,33 -75,17 -26,-16 -34,-50 -18,-76 16,-26 50,-34 76,-17 25,16 33,50 17,76z"/>
   <path class="fil11" d="M24296 25426c-16,26 -50,33 -75,17 -26,-16 -34,-50 -18,-76 16,-26 50,-34 75,-17 26,16 34,50 18,76z"/>
   <path class="fil11" d="M10467 29686c-16,26 -50,34 -75,17 -26,-16 -34,-50 -18,-76 16,-25 50,-33 76,-17 25,16 33,50 17,76z"/>
   <path class="fil11" d="M7932 33150c-15,26 -49,34 -75,18 -25,-16 -33,-50 -17,-76 16,-26 49,-34 75,-18 26,16 33,50 17,76z"/>
   <path class="fil11" d="M10828 27086c-16,25 -50,33 -76,17 -25,-16 -33,-50 -17,-76 16,-26 50,-34 75,-17 26,16 34,50 18,76z"/>
   <path class="fil11" d="M12565 27773c-16,26 -50,34 -75,18 -26,-17 -34,-51 -18,-76 16,-26 50,-34 75,-18 26,16 34,50 18,76z"/>
   <path class="fil11" d="M12408 15876c-16,26 -50,34 -76,17 -25,-16 -33,-50 -17,-76 16,-25 50,-33 75,-17 26,16 34,50 18,76z"/>
   <path class="fil11" d="M30303 23951c-16,26 -49,33 -75,17 -26,-16 -33,-50 -17,-76 16,-26 49,-33 75,-17 26,16 33,50 17,76z"/>
   <path class="fil7" d="M12666 30408c-206,-7 -370,-176 -372,-385l-3 0c-1,209 -166,378 -372,385 207,6 372,177 372,387l3 0c0,-210 166,-381 372,-387z"/>
   <path class="fil11" d="M28847 31250c137,4 246,116 246,254l3 0c1,-138 110,-250 246,-254 -137,-5 -246,-117 -247,-257l-1 0c0,140 -110,252 -247,257z"/>
   <path class="fil2" d="M13781 13964c14,22 43,29 65,15 22,-13 29,-43 15,-65 -14,-22 -43,-29 -65,-15 -22,14 -29,43 -15,65z"/>
   <g>
    <path class="fil15" d="M26931 25193c0,-343 278,-621 621,-621 343,0 621,278 621,621 0,343 -278,621 -621,621 -343,0 -621,-278 -621,-621z"/>
    <path class="fil16" d="M28032 24799c88,107 141,244 141,394 0,343 -278,621 -621,621 -191,0 -363,-86 -477,-223 0,0 469,180 758,-108 288,-289 199,-684 199,-684z"/>
   </g>
   <path class="fil10" d="M9478 12230c-16,26 -50,34 -75,18 -26,-16 -34,-50 -18,-76 16,-26 50,-34 75,-18 26,17 34,51 18,76z"/>
   <polygon class="fil17" points="24334,13208 24311,13255 24328,13245 "/>
   <path class="fil2" d="M18045 16882c-16,-26 -49,-34 -75,-18 -26,17 -33,51 -17,76 16,26 49,34 75,18 26,-16 33,-50 17,-76z"/>
   <path class="fil11" d="M21847 10506c-16,-26 -50,-34 -76,-17 -25,16 -33,50 -17,76 16,25 50,33 75,17 26,-16 34,-50 18,-76z"/>
   <path class="fil11" d="M20690 9932c-16,-26 -50,-33 -76,-17 -25,16 -33,50 -17,76 16,26 50,33 75,17 26,-16 34,-50 18,-76z"/>
   <path class="fil10" d="M20581 15456c-15,-26 -49,-34 -75,-18 -25,16 -33,50 -17,76 16,26 49,34 75,18 26,-16 33,-50 17,-76z"/>
   <path class="fil7" d="M27546 9339c16,26 50,34 75,17 26,-16 34,-50 18,-76 -16,-25 -50,-33 -75,-17 -26,16 -34,50 -18,76z"/>
   <path class="fil7" d="M29350 9871c16,26 49,33 75,17 26,-16 33,-50 17,-76 -16,-26 -49,-33 -75,-17 -25,16 -33,50 -17,76z"/>
   <path class="fil10" d="M11394 17603c16,26 50,34 75,18 26,-16 34,-50 18,-76 -16,-26 -50,-34 -75,-18 -26,17 -34,51 -18,76z"/>
   <path class="fil11" d="M25498 11391c16,26 50,34 75,18 26,-16 34,-50 18,-76 -16,-26 -50,-34 -76,-18 -25,16 -33,50 -17,76z"/>
   <path class="fil10" d="M29060 12314c16,26 50,34 75,18 26,-16 34,-51 18,-76 -16,-26 -50,-34 -76,-18 -25,16 -33,50 -17,76z"/>
   <path class="fil7" d="M27252 13807c16,26 49,34 75,18 25,-16 33,-50 17,-76 -16,-26 -49,-34 -75,-18 -26,17 -33,51 -17,76z"/>
   <path class="fil7" d="M23829 10292c16,26 50,34 75,18 26,-16 34,-50 18,-76 -16,-26 -50,-34 -76,-18 -25,16 -33,50 -17,76z"/>
   <path class="fil7" d="M18584 11283c16,26 49,34 75,18 25,-16 33,-50 17,-76 -16,-26 -49,-34 -75,-18 -26,16 -33,50 -17,76z"/>
   <path class="fil10" d="M30441 15879c16,26 50,34 76,18 25,-16 33,-51 17,-76 -16,-26 -50,-34 -75,-18 -26,16 -34,50 -18,76z"/>
   <path class="fil11" d="M12139 12919c-16,26 -49,34 -75,18 -26,-16 -33,-50 -17,-76 16,-26 49,-34 75,-18 25,16 33,50 17,76z"/>
   <path class="fil10" d="M20562 11796c-16,26 -50,34 -76,18 -25,-16 -33,-50 -17,-76 16,-26 50,-34 75,-18 26,16 34,50 18,76z"/>
   <path class="fil2" d="M20057 11716c-16,26 -50,34 -76,18 -25,-16 -33,-50 -17,-76 16,-26 50,-34 75,-18 26,16 34,50 18,76z"/>
   <path class="fil11" d="M17514 11126c-16,26 -50,33 -75,17 -26,-16 -34,-50 -18,-76 16,-25 50,-33 76,-17 25,16 33,50 17,76z"/>
   <path class="fil2" d="M12845 11586c-16,26 -50,34 -75,18 -26,-16 -34,-50 -18,-76 16,-26 50,-34 76,-18 25,16 33,50 17,76z"/>
   <path class="fil11" d="M20989 12707c-16,26 -50,34 -76,17 -25,-16 -33,-50 -17,-76 16,-25 50,-33 75,-17 26,16 34,50 18,76z"/>
   <path class="fil7" d="M24528 13254c-119,-4 -215,-102 -216,-223l-2 0c0,121 -96,219 -215,223 119,4 216,103 216,225l1 0c0,-122 96,-221 216,-225z"/>
   <path class="fil2" d="M7413 15794c16,26 50,34 76,17 25,-16 33,-50 17,-76 -16,-25 -50,-33 -75,-17 -26,16 -34,50 -18,76z"/>
   <path class="fil11" d="M7134 13603c16,26 50,33 75,17 26,-16 34,-50 18,-76 -16,-26 -50,-33 -76,-17 -25,16 -33,50 -17,76z"/>
   <path class="fil11" d="M6103 10683c16,26 50,34 76,18 25,-16 33,-50 17,-76 -16,-26 -50,-34 -75,-18 -26,16 -34,50 -18,76z"/>
   <path class="fil10" d="M7779 16379c16,26 49,34 75,18 26,-16 33,-50 18,-76 -16,-26 -50,-34 -76,-18 -25,16 -33,50 -17,76z"/>
   <path class="fil10" d="M6750 14887c16,26 50,34 75,18 26,-16 34,-50 18,-76 -16,-26 -50,-34 -76,-18 -25,16 -33,50 -17,76z"/>
   <path class="fil11" d="M5330 14631c15,26 49,34 75,17 25,-16 33,-50 17,-76 -16,-25 -49,-33 -75,-17 -26,16 -33,50 -17,76z"/>
   <path class="fil11" d="M6302 17232c16,26 49,34 75,18 26,-17 33,-51 17,-76 -15,-26 -49,-34 -75,-18 -25,16 -33,50 -17,76z"/>
   <path class="fil11" d="M27322 16154c16,26 49,34 75,17 26,-16 33,-50 18,-76 -16,-25 -50,-33 -76,-17 -25,16 -33,50 -17,76z"/>
   <path class="fil9" d="M8135 7035c19,0 19,28 0,28 -18,0 -18,-28 0,-28z"/>
   <path class="fil9" d="M8426 7021c37,0 37,56 0,56 -36,0 -36,-56 0,-56z"/>
   <path class="fil9" d="M8038 9208c47,0 47,73 0,73 -47,0 -47,-73 0,-73z"/>
   <path class="fil7" d="M24059 8817c16,26 49,34 75,18 25,-16 33,-50 17,-76 -16,-26 -49,-34 -75,-18 -26,17 -33,51 -17,76z"/>
   <path class="fil7" d="M26340 7875c16,26 50,34 75,18 26,-16 34,-50 18,-76 -16,-26 -50,-34 -75,-18 -26,16 -34,51 -18,76z"/>
   <path class="fil2" d="M8044 8056c-16,26 -50,34 -75,17 -26,-16 -34,-50 -18,-76 16,-25 50,-33 75,-17 26,16 34,50 18,76z"/>
   <path class="fil11" d="M21279 8962c-16,26 -49,34 -75,18 -26,-16 -33,-50 -17,-76 16,-26 49,-34 75,-18 25,16 33,50 17,76z"/>
   <path class="fil2" d="M18237 8930c-16,26 -50,34 -75,18 -26,-16 -34,-51 -18,-76 16,-26 50,-34 76,-18 25,16 33,50 17,76z"/>
   <path class="fil10" d="M15609 9068c-16,26 -49,34 -75,18 -25,-16 -33,-50 -17,-76 16,-26 49,-34 75,-18 26,16 33,51 17,76z"/>
   <path class="fil11" d="M14461 8068c-16,26 -50,34 -75,18 -26,-16 -34,-50 -18,-76 16,-26 50,-34 76,-18 25,16 33,50 17,76z"/>
   <path class="fil11" d="M19197 7682c-16,26 -49,34 -75,18 -25,-16 -33,-50 -17,-76 16,-26 49,-34 75,-18 26,16 33,50 17,76z"/>
   <path class="fil2" d="M11725 8766c-16,26 -50,34 -75,18 -26,-16 -34,-50 -18,-76 16,-26 50,-34 75,-18 26,16 34,51 18,76z"/>
   <path class="fil11" d="M29724 7030c-16,26 -50,34 -75,17 -26,-16 -34,-50 -18,-76 16,-25 50,-33 76,-17 25,16 33,50 17,76z"/>
   <path class="fil2" d="M13908 7668c-16,26 -49,34 -75,17 -26,-16 -33,-50 -18,-76 16,-25 50,-33 76,-17 25,16 33,50 17,76z"/>
   <path class="fil7" d="M25100 34962l0 -29c0,-52 45,-101 99,-99 53,2 99,44 99,99l0 29c0,52 -46,101 -99,99 -54,-2 -99,-43 -99,-99z"/>
   <path class="fil11" d="M20512 24651c16,26 49,34 75,18 26,-16 33,-50 17,-76 -15,-26 -49,-34 -75,-18 -25,16 -33,50 -17,76z"/>
   <path class="fil11" d="M11232 35380c-18,29 -55,37 -83,20 -28,-18 -37,-55 -19,-84 18,-28 55,-37 83,-19 28,18 36,55 19,83z"/>
  </g>
 </g>
</svg>
