<?xml version="1.0" encoding="UTF-8"?>
<!DOCTYPE svg PUBLIC "-//W3C//DTD SVG 1.1//EN" "http://www.w3.org/Graphics/SVG/1.1/DTD/svg11.dtd">
<!-- Creator: CorelDRAW X7 -->
<svg xmlns="http://www.w3.org/2000/svg" xml:space="preserve" width="100%" height="100%" version="1.1" style="shape-rendering:geometricPrecision; text-rendering:geometricPrecision; image-rendering:optimizeQuality; fill-rule:evenodd; clip-rule:evenodd"
viewBox="0 0 20413 15107"
 xmlns:xlink="http://www.w3.org/1999/xlink">
 <defs>
  <style type="text/css">
   <![CDATA[
    .fil2 {fill:#D0A667}
    .fil1 {fill:#8EA0D1}
    .fil0 {fill:#E3C582}
    .fil4 {fill:white}
    .fil3 {fill:white}
    .fil5 {fill:#DBBB83;fill-rule:nonzero}
    .fil6 {fill:#D0A667;fill-rule:nonzero}
   ]]>
  </style>
 </defs>
 <g id="Layer_x0020_1">
  <metadata id="CorelCorpID_0Corel-Layer"/>
  <g id="_2724831560880">
   <path class="fil0" d="M12945 11893c-48,363 -612,589 -1259,504 -648,-86 -1134,-450 -1086,-814 48,-363 612,-589 1260,-504 647,85 1133,450 1085,814z"/>
   <path class="fil0" d="M6846 9310c184,362 -328,992 -1144,1406 -815,414 -1626,456 -1810,93 -184,-362 328,-992 1144,-1406 816,-414 1626,-456 1810,-93z"/>
   <path class="fil1" d="M5141 9719c737,-374 1468,-444 1738,-187 10,-81 1,-156 -33,-222 -184,-363 -994,-321 -1810,93 -816,414 -1328,1044 -1144,1406 18,35 43,65 72,93 47,-363 511,-845 1177,-1183z"/>
   <path class="fil1" d="M11860 11079c-648,-85 -1212,140 -1260,504 -3,27 -3,53 -1,79 140,-293 648,-463 1223,-387 601,79 1062,398 1087,734 18,-37 31,-76 36,-116 48,-364 -438,-729 -1085,-814z"/>
   <circle class="fil2" cx="11403" cy="4758" r="3302"/>
   <path class="fil0" d="M8128 4347c980,139 2626,-561 3154,-663 1073,-208 2176,40 3269,76 -76,-239 -178,-466 -303,-678 -402,16 -826,-53 -1232,-65 -771,-23 -1537,180 -2306,133 -356,-21 -1156,-333 -1884,-455 -372,464 -621,1031 -698,1652z"/>
   <path class="fil0" d="M11403 1456c-335,0 -659,50 -964,143 414,237 1243,321 1435,347 346,46 722,63 1019,-120 4,-3 8,-6 12,-8 -451,-231 -961,-362 -1502,-362z"/>
   <path class="fil0" d="M14704 4804c-951,-241 -1958,-260 -2917,-51 -521,114 -1026,293 -1543,421 -651,160 -1322,238 -1992,233 -29,-1 -57,-2 -87,-3 131,660 459,1250 921,1705 790,-281 1550,-648 2260,-1095 620,-391 1242,-857 1973,-924 453,-42 899,77 1348,170 23,-149 35,-302 37,-456z"/>
   <path class="fil0" d="M14529 5821c-448,-66 -1248,328 -1444,494 -175,148 -323,329 -512,459 -239,165 -529,237 -811,310 -569,146 -1133,309 -1693,488 -71,23 -148,54 -183,118 455,236 970,370 1517,370 383,0 751,-66 1093,-186 342,-489 547,-1123 1089,-1353 92,-39 414,-85 705,-160 95,-171 175,-352 239,-540z"/>
   <path class="fil3" d="M12026 5692l0 624 -2492 0 0 -624 2492 0zm-2492 -1869l0 -623c1246,0 2492,0 3739,0l-624 623c-1038,0 -2076,0 -3115,0zm3739 623c0,623 0,1246 0,1870l-624 0 0 -1247 0 0 -3115 0 0 -623c1246,0 2492,0 3739,0z"/>
   <path class="fil4" d="M0 15107l20413 0c-127,-682 -321,-1341 -575,-1969l12 -5c212,-85 316,-326 231,-538l-512 -1282c-85,-212 -326,-316 -538,-231l-242 97c-491,-719 -1069,-1373 -1720,-1947 -241,-211 -491,-412 -750,-601 -1201,-876 -2597,-1501 -4110,-1796 -255,-50 -512,-90 -773,-121 -249,-30 -500,-50 -753,-61 -158,-8 -317,-11 -476,-11 -1037,0 -2038,152 -2982,434 -226,68 -449,143 -668,225l-75 -104c-133,-185 -392,-228 -577,-95l-912 655 -777 558 -31 22c-117,84 -177,219 -172,353 -744,554 -1412,1206 -1984,1936l-159 -84c-203,-107 -453,-30 -559,173l-987 1872c-107,202 -30,453 173,559l62 33c-246,616 -434,1261 -559,1928zm10599 -3445c-2,-26 -2,-52 1,-79 48,-364 612,-589 1260,-504 647,85 1133,450 1085,814 -5,40 -17,79 -35,117 -140,293 -649,463 -1224,387 -601,-79 -1062,-398 -1087,-735zm-3720 -2130c-46,363 -510,845 -1177,1184 -815,414 -1626,456 -1810,93 -184,-362 328,-992 1144,-1406 816,-414 1626,-456 1810,-93 34,66 44,141 33,222z"/>
   <g>
    <path class="fil5" d="M16614 621c0,-343 278,-621 621,-621 343,0 621,278 621,621 0,343 -278,621 -621,621 -343,0 -621,-278 -621,-621z"/>
    <path class="fil6" d="M17715 227c89,107 141,245 141,394 0,343 -278,621 -621,621 -191,0 -363,-86 -476,-222 0,0 469,179 757,-109 289,-289 199,-684 199,-684z"/>
   </g>
  </g>
 </g>
</svg>
