<?xml version="1.0" encoding="UTF-8"?>
<!DOCTYPE svg PUBLIC "-//W3C//DTD SVG 1.1//EN" "http://www.w3.org/Graphics/SVG/1.1/DTD/svg11.dtd">
<!-- Creator: CorelDRAW X7 -->
<svg xmlns="http://www.w3.org/2000/svg" xml:space="preserve" width="100%" height="100%" version="1.1" style="shape-rendering:geometricPrecision; text-rendering:geometricPrecision; image-rendering:optimizeQuality; fill-rule:evenodd; clip-rule:evenodd"
viewBox="0 0 7745 10849"
 xmlns:xlink="http://www.w3.org/1999/xlink">
 <defs>
  <style type="text/css">
   <![CDATA[
    .fil5 {fill:#5C56A2}
    .fil4 {fill:#BDADFF}
    .fil7 {fill:#D4D4D6}
    .fil6 {fill:#D6D5D7}
    .fil2 {fill:#FCE9CA}
    .fil1 {fill:white}
    .fil3 {fill:#BDADFF;fill-rule:nonzero}
    .fil0 {fill:#FCE9CA;fill-rule:nonzero}
    .fil8 {fill:white;fill-rule:nonzero}
   ]]>
  </style>
 </defs>
 <g id="Layer_x0020_1">
  <metadata id="CorelCorpID_0Corel-Layer"/>
  <g id="_2724830888000">
   <path class="fil0" d="M5230 5555c0,0 -5,226 123,262 128,36 565,-218 565,-218l-582 -146 -106 102z"/>
   <path class="fil1" d="M5201 4706c0,0 -82,-308 -82,-443 0,-135 70,-417 107,-536 0,0 176,-98 274,37 0,0 -37,397 0,503 37,107 86,262 86,262l-296 260 -89 -83z"/>
   <path class="fil2" d="M5226 3727c0,0 -53,-197 -29,-254 25,-57 58,98 58,98 0,0 12,-200 49,-200 37,0 20,204 20,204 0,0 4,-204 41,-204 37,0 25,196 25,196 0,0 43,-155 77,-159 33,-5 0,184 0,184 0,0 50,-17 99,-43 49,-27 41,88 -66,215l-274 -37z"/>
   <path class="fil3" d="M5536 3764c0,-11 -5,-22 -14,-29 -159,-118 -306,-43 -313,-40 -17,10 -24,31 -15,48 10,18 31,24 48,15 5,-2 116,-57 237,34 16,12 38,9 50,-7 4,-6 7,-14 7,-21z"/>
   <path class="fil4" d="M5125 4187c0,0 240,-20 362,0 0,0 35,16 13,80 0,0 -184,101 -373,87 0,0 -42,-75 -2,-167z"/>
   <path class="fil3" d="M5591 4540l-10 -22c-209,98 -289,210 -292,215l20 13c0,-1 79,-111 282,-206z"/>
   <path class="fil1" d="M5283 4759c0,0 303,-406 872,-287 0,0 172,-348 266,-438 95,-90 484,-192 484,-192 0,0 73,-193 196,-209 123,-17 127,340 0,532 0,0 -311,119 -413,143l-70 316 35 -5c58,-10 122,-18 186,-20 0,0 229,0 442,131 0,0 307,-86 434,29 127,114 -172,356 -483,327 0,0 -233,-102 -336,-94l-470 221c0,0 -86,117 -348,115l-656 24 -139 -593z"/>
   <path class="fil5" d="M5699 4729c44,0 80,-35 80,-79 0,-44 -36,-80 -80,-80 -44,0 -79,36 -79,80 0,44 35,79 79,79z"/>
   <path class="fil3" d="M7354 4872c0,-13 -1,-26 -2,-37 -9,-73 -40,-122 -41,-124 -10,-17 -32,-21 -49,-11 -16,11 -21,33 -11,49 5,7 94,153 -46,314 -13,15 -11,37 4,50 15,13 37,11 50,-4 75,-87 95,-172 95,-237z"/>
   <path class="fil4" d="M6938 4998c101,-118 101,-378 43,-388 -46,-19 -104,-14 -104,-14 -108,186 -3,399 -3,399 0,0 23,15 64,3z"/>
   <path class="fil3" d="M6461 5213c0,-7 -2,-14 -7,-21 -7,-10 -186,-263 -15,-510 11,-16 7,-38 -9,-50 -16,-11 -38,-7 -49,9 -200,289 14,590 16,593 11,16 34,19 49,8 10,-7 15,-18 15,-29z"/>
   <path class="fil3" d="M7137 4165c0,-3 -1,-6 -1,-9 -82,-330 -214,-349 -229,-350 -20,-1 -36,14 -38,33 -2,19 13,36 32,38 4,1 99,25 166,297 4,19 24,30 43,25 16,-4 27,-18 27,-34z"/>
   <path class="fil4" d="M6361 4109c0,0 191,183 327,199 135,17 -164,-337 -164,-337 0,0 -120,-1 -163,138z"/>
   <path class="fil3" d="M6433 4681c0,-15 -10,-29 -25,-34 -178,-55 -217,-180 -219,-185 -5,-19 -25,-29 -44,-24 -18,6 -29,25 -24,44 2,6 50,167 266,233 19,6 38,-5 44,-24 1,-3 2,-7 2,-10z"/>
   <polygon class="fil3" points="6620,4635 6616,4612 6376,4650 6380,4673 "/>
   <path class="fil1" d="M4978 5673c286,0 518,-235 518,-525 0,-290 -232,-525 -518,-525 -286,0 -518,235 -518,525 0,290 232,525 518,525z"/>
   <path class="fil5" d="M5456 5222c8,-36 12,-73 12,-111 0,-270 -216,-488 -482,-488 -122,0 -233,46 -318,121l-4 5c-13,12 -10,33 5,42 66,36 197,165 143,597 -3,26 16,49 42,52 119,10 430,15 595,-194l7 -24z"/>
   <path class="fil2" d="M6610 5595c0,0 281,-39 331,-76 50,-38 -109,-33 -109,-33 0,0 192,-59 184,-95 -9,-36 -204,28 -204,28 0,0 198,-52 189,-87 -8,-36 -197,22 -197,22 0,0 141,-79 138,-113 -4,-33 -180,44 -180,44 0,0 5,-53 19,-107 14,-54 -95,-19 -194,114l23 303z"/>
   <path class="fil1" d="M5422 5467c0,0 -20,-262 193,-319 0,0 205,36 463,180 0,0 73,24 200,8 127,-16 303,-53 303,-53 0,0 90,105 29,312 0,0 -291,138 -561,114 -270,-25 -627,-242 -627,-242z"/>
   <path class="fil3" d="M6686 5451c0,-88 -41,-154 -75,-185 -14,-13 -36,-12 -50,2 -13,15 -12,37 2,50 5,5 105,102 16,260 -10,17 -4,39 13,48 17,10 39,4 49,-13 33,-59 45,-114 45,-162z"/>
   <path class="fil4" d="M6169 5341c0,0 -5,331 -120,368 0,0 56,18 180,-5 0,0 64,-183 -10,-363 0,0 -4,-14 -50,0z"/>
   <path class="fil3" d="M5691 5154c0,-3 0,-5 0,-8 -5,-26 -29,-43 -55,-39 -239,42 -275,258 -260,366 3,26 27,44 53,41 26,-4 44,-27 40,-53 -3,-23 -22,-225 183,-260 23,-4 39,-24 39,-47z"/>
   <path class="fil6" d="M1901 777c99,106 215,259 223,402 10,159 98,304 225,413l-81 115c-174,-68 -322,-215 -333,-390 -10,-173 -250,-366 -250,-366 46,1 132,-80 216,-174z"/>
   <path class="fil1" d="M2124 1179c-8,-143 -124,-296 -223,-402 -77,-81 -143,-134 -143,-134 154,4 631,-643 631,-643 141,63 328,297 337,584 6,176 143,316 249,399l-146 109 146 144 -364 513c-95,-37 -186,-91 -262,-157 -127,-109 -215,-254 -225,-413z"/>
   <polygon class="fil7" points="2975,1236 2829,1092 2975,983 2975,1109 "/>
   <path class="fil8" d="M5748 7440c-680,1084 -2240,1687 -3626,1402 -1469,-302 -1832,770 -2122,2007l69 0c291,-1240 633,-2230 2039,-1941 1413,290 3002,-326 3697,-1432 402,-640 425,-1316 73,-1932l-79 0c359,603 344,1268 -51,1896z"/>
  </g>
 </g>
</svg>
