<?xml version="1.0" encoding="UTF-8"?>
<!DOCTYPE svg PUBLIC "-//W3C//DTD SVG 1.1//EN" "http://www.w3.org/Graphics/SVG/1.1/DTD/svg11.dtd">
<!-- Creator: CorelDRAW X7 -->
<svg xmlns="http://www.w3.org/2000/svg" xml:space="preserve" width="100%" height="100%" version="1.1" style="shape-rendering:geometricPrecision; text-rendering:geometricPrecision; image-rendering:optimizeQuality; fill-rule:evenodd; clip-rule:evenodd"
viewBox="0 0 27093 66548"
 xmlns:xlink="http://www.w3.org/1999/xlink">
 <defs>
  <style type="text/css">
   <![CDATA[
    .fil7 {fill:#D0A667}
    .fil13 {fill:#A6B7DE}
    .fil6 {fill:#8EA0D1}
    .fil0 {fill:#8480BC}
    .fil5 {fill:#E3C582}
    .fil10 {fill:white}
    .fil8 {fill:white}
    .fil4 {fill:#FEFEFE;fill-rule:nonzero}
    .fil11 {fill:#DBBB83;fill-rule:nonzero}
    .fil12 {fill:#D0A667;fill-rule:nonzero}
    .fil1 {fill:#D2AE6D;fill-rule:nonzero}
    .fil3 {fill:#F2D394;fill-rule:nonzero}
    .fil2 {fill:white;fill-rule:nonzero}
    .fil9 {fill:white;fill-rule:nonzero}
   ]]>
  </style>
 </defs>
 <g id="Layer_x0020_1">
  <metadata id="CorelCorpID_0Corel-Layer"/>
  <g id="_2717348280784">
   <rect class="fil0" y="14" width="27093" height="66520"/>
   <path class="fil1" d="M6472 34776c54,0 54,85 0,85 -55,0 -55,-85 0,-85z"/>
   <path class="fil1" d="M14964 34243l63 0c77,0 77,-121 0,-121l-63 0c-77,0 -77,121 0,121z"/>
   <path class="fil2" d="M2718 33982c13,22 43,29 65,15 22,-14 29,-43 15,-65 -14,-22 -43,-29 -65,-15 -22,14 -29,43 -15,65z"/>
   <path class="fil3" d="M11446 29490c16,-26 49,-34 75,-18 26,16 33,50 18,76 -16,26 -50,34 -76,18 -25,-16 -33,-50 -17,-76z"/>
   <path class="fil3" d="M20136 30694c-16,26 -50,34 -75,18 -26,-16 -34,-50 -18,-76 16,-26 50,-34 75,-18 26,17 34,51 18,76z"/>
   <path class="fil3" d="M4782 33705c-16,26 -50,34 -75,18 -26,-16 -34,-50 -18,-76 16,-26 50,-34 76,-18 25,17 33,51 17,76z"/>
   <path class="fil3" d="M23751 29470c-16,26 -50,34 -75,18 -26,-16 -34,-50 -18,-76 16,-26 50,-34 76,-18 25,16 33,50 17,76z"/>
   <path class="fil3" d="M22363 34066c-16,-26 -50,-34 -76,-18 -25,16 -33,50 -17,76 16,26 50,34 75,18 26,-16 34,-50 18,-76z"/>
   <path class="fil4" d="M8616 33247c-16,25 -49,33 -75,17 -26,-16 -33,-50 -17,-76 16,-26 49,-34 75,-17 25,16 33,50 17,76z"/>
   <path class="fil3" d="M12717 32629c-16,26 -49,34 -75,18 -26,-16 -33,-50 -17,-76 15,-26 49,-34 75,-18 25,16 33,50 17,76z"/>
   <path class="fil5" d="M16285 63319c-48,364 -612,590 -1259,505 -648,-86 -1134,-450 -1086,-814 48,-364 612,-589 1260,-504 647,85 1133,449 1085,813z"/>
   <path class="fil5" d="M10186 60736c184,363 -328,993 -1143,1407 -816,414 -1627,456 -1811,93 -184,-363 328,-992 1144,-1406 816,-414 1626,-456 1810,-94z"/>
   <path class="fil6" d="M8481 61145c737,-374 1468,-443 1738,-186 11,-81 1,-156 -33,-223 -184,-362 -994,-320 -1810,94 -816,414 -1328,1043 -1144,1406 18,35 44,65 73,93 46,-363 510,-845 1176,-1184z"/>
   <path class="fil6" d="M15200 62506c-648,-86 -1212,140 -1260,504 -3,27 -3,53 -1,79 141,-293 649,-463 1223,-387 601,79 1062,398 1087,734 18,-37 31,-76 36,-117 48,-364 -438,-728 -1085,-813z"/>
   <path class="fil4" d="M10498 61649c-17,29 -54,37 -82,20 -28,-18 -37,-55 -19,-84 17,-28 54,-37 82,-19 28,18 37,55 19,83z"/>
   <path class="fil1" d="M22061 53080c9,-10 19,-19 29,-29 25,-26 65,14 40,40 -10,9 -20,19 -29,29 -26,26 -66,-14 -40,-40z"/>
   <path class="fil1" d="M22297 49267c20,9 39,19 58,29 33,16 4,65 -28,49 -20,-10 -39,-20 -58,-30 -33,-16 -4,-65 28,-48z"/>
   <path class="fil1" d="M18414 50307c37,0 37,57 0,57 -36,0 -36,-57 0,-57z"/>
   <path class="fil1" d="M25359 52470c-10,-10 -20,-20 -30,-29 -12,-13 8,-33 20,-20 10,9 20,19 30,29 12,13 -8,33 -20,20z"/>
   <path class="fil1" d="M25339 55021c37,0 37,57 0,57 -36,0 -36,-57 0,-57z"/>
   <path class="fil1" d="M25398 55690c36,0 36,57 0,57 -37,0 -37,-57 0,-57z"/>
   <path class="fil1" d="M23574 51694c-10,-10 -20,-19 -29,-29 -26,-26 14,-66 40,-40 9,10 19,19 29,29 25,26 -15,66 -40,40z"/>
   <path class="fil1" d="M24176 52781c36,0 36,56 0,56 -37,0 -37,-56 0,-56z"/>
   <path class="fil1" d="M24147 47834l29 0c36,0 36,57 0,57l-29 0c-37,0 -37,-57 0,-57z"/>
   <path class="fil1" d="M18967 52839c37,0 37,56 0,56 -36,0 -36,-56 0,-56z"/>
   <path class="fil1" d="M10007 45705l0 -16c0,-73 113,-73 113,0l0 16c0,73 -113,73 -113,0l0 -16c0,-73 113,-73 113,0l0 16c0,73 -113,73 -113,0z"/>
   <path class="fil1" d="M25165 61627c73,0 73,113 0,113 -73,0 -73,-113 0,-113z"/>
   <path class="fil1" d="M21586 46670c36,0 36,57 0,57 -36,0 -36,-57 0,-57z"/>
   <path class="fil1" d="M20800 45390c37,0 37,57 0,57 -36,0 -36,-57 0,-57z"/>
   <path class="fil1" d="M19491 46088c36,0 36,57 0,57 -36,0 -36,-57 0,-57z"/>
   <path class="fil1" d="M17454 53275c37,0 37,57 0,57 -36,0 -36,-57 0,-57z"/>
   <path class="fil1" d="M24236 59323c78,0 78,120 0,120 -78,0 -78,-120 0,-120z"/>
   <path class="fil1" d="M22602 60501l0 -29c0,-36 57,-36 57,0l0 29c0,37 -57,37 -57,0z"/>
   <path class="fil1" d="M24467 46495l0 -29c0,-37 57,-37 57,0l0 29c0,36 -57,36 -57,0z"/>
   <path class="fil1" d="M24496 48329l29 0c36,0 36,56 0,56l-29 0c-37,0 -37,-56 0,-56z"/>
   <path class="fil1" d="M25019 47834c37,0 37,57 0,57 -36,0 -36,-57 0,-57z"/>
   <path class="fil1" d="M25136 49289c36,0 36,57 0,57 -37,0 -37,-57 0,-57z"/>
   <path class="fil1" d="M25049 51180c36,0 36,57 0,57 -37,0 -37,-57 0,-57z"/>
   <path class="fil1" d="M17320 44590c-10,-9 -20,-19 -29,-29 -26,-25 14,-65 40,-40 9,10 19,20 29,30 25,25 -15,65 -40,39z"/>
   <path class="fil1" d="M19587 50345c10,-10 20,-20 29,-29 26,-26 66,14 40,40 -9,9 -19,19 -29,29 -25,26 -65,-14 -40,-40z"/>
   <path class="fil1" d="M22342 51952l30 0c22,0 43,19 42,42 -1,23 -19,43 -42,43l-30 0c-22,0 -43,-20 -42,-43 1,-23 19,-42 42,-42z"/>
   <path class="fil1" d="M26416 52243l29 0c22,0 44,19 43,42 -1,23 -19,43 -43,43l-29 0c-22,0 -43,-20 -42,-43 1,-23 18,-42 42,-42z"/>
   <path class="fil1" d="M25485 62369c55,0 55,84 0,84 -55,0 -55,-84 0,-84z"/>
   <path class="fil1" d="M24665 64669c-10,-10 -19,-20 -29,-29 -16,-17 -16,-44 0,-60 16,-17 44,-17 60,0 10,9 19,19 29,29 16,16 16,43 0,60 -16,16 -44,16 -60,0z"/>
   <path class="fil1" d="M25456 59895c54,0 55,85 0,85 -55,0 -55,-85 0,-85z"/>
   <path class="fil1" d="M26461 59181l0 -29c0,-22 19,-43 42,-42 23,1 43,18 43,42l0 29c0,22 -20,44 -43,43 -23,-1 -42,-19 -42,-43z"/>
   <path class="fil1" d="M18734 48635c55,0 55,85 0,85 -54,0 -54,-85 0,-85z"/>
   <path class="fil1" d="M26241 46627c55,0 55,85 0,85 -54,0 -54,-85 0,-85z"/>
   <path class="fil1" d="M23623 45056c54,0 54,85 0,85 -55,0 -55,-85 0,-85z"/>
   <path class="fil1" d="M21994 44283c10,9 20,19 29,29 17,16 17,44 0,60 -16,16 -43,16 -60,0 -9,-10 -19,-20 -29,-29 -16,-17 -16,-44 0,-60 16,-17 44,-17 60,0z"/>
   <path class="fil1" d="M19782 44416c55,0 55,85 0,85 -55,0 -55,-85 0,-85z"/>
   <path class="fil1" d="M20131 48431c55,0 55,85 0,85 -54,0 -55,-85 0,-85z"/>
   <path class="fil1" d="M22402 50451c9,10 19,20 29,29 16,16 16,44 0,60 -17,16 -44,16 -60,0l-29 -29c-17,-16 -17,-44 0,-60 16,-16 43,-16 60,0z"/>
   <path class="fil1" d="M20800 53028c55,0 55,85 0,85 -54,0 -54,-85 0,-85z"/>
   <path class="fil1" d="M19549 53465c55,0 55,85 0,85 -54,0 -54,-85 0,-85z"/>
   <path class="fil1" d="M20480 53639c55,0 55,85 0,85 -54,0 -54,-85 0,-85z"/>
   <path class="fil1" d="M22152 58782l0 -29c0,-52 45,-101 99,-99 53,2 99,44 99,99l0 29c0,52 -46,101 -99,99 -54,-2 -99,-43 -99,-99z"/>
   <path class="fil1" d="M21424 60114c36,0 36,57 0,57 -37,0 -37,-57 0,-57z"/>
   <path class="fil1" d="M18627 53702c-10,-10 -19,-20 -29,-29 -26,-26 14,-66 40,-40 10,9 19,19 29,29 26,26 -14,66 -40,40z"/>
   <path class="fil1" d="M24194 56246l0 -29c0,-22 20,-43 43,-42 23,1 42,18 42,42l0 29c0,22 -19,44 -42,43 -23,-2 -43,-19 -43,-43z"/>
   <path class="fil1" d="M22074 56412c55,0 55,84 0,84 -54,0 -54,-84 0,-84z"/>
   <path class="fil1" d="M19539 56470c55,0 55,85 0,85 -54,0 -54,-85 0,-85z"/>
   <path class="fil1" d="M23630 54001c54,0 54,85 0,85 -55,0 -55,-85 0,-85z"/>
   <path class="fil1" d="M20355 57870c54,0 54,85 0,85 -55,0 -55,-85 0,-85z"/>
   <path class="fil1" d="M18557 58184c73,0 73,113 0,113 -72,0 -72,-113 0,-113z"/>
   <path class="fil1" d="M22726 55518c73,0 73,113 0,113 -73,0 -73,-113 0,-113z"/>
   <path class="fil1" d="M22857 57689c73,0 73,113 0,113 -73,0 -73,-113 0,-113z"/>
   <path class="fil1" d="M4269 52200c37,0 37,-57 0,-57 -36,0 -36,57 0,57z"/>
   <path class="fil1" d="M5812 53451c36,0 36,-57 0,-57 -37,0 -37,57 0,57z"/>
   <path class="fil1" d="M5870 52782c36,0 36,-57 0,-57 -37,0 -37,57 0,57z"/>
   <path class="fil1" d="M2669 50774c37,0 37,-57 0,-57 -36,0 -36,57 0,57z"/>
   <path class="fil1" d="M7616 53015l0 29c0,37 57,37 57,0l0 -29c0,-36 -57,-36 -57,0z"/>
   <path class="fil1" d="M3667 55411l62 0c78,0 78,-120 0,-120l-62 0c-77,0 -78,120 0,120z"/>
   <path class="fil1" d="M16432 50978c36,0 36,-57 0,-57 -36,0 -36,57 0,57z"/>
   <path class="fil1" d="M13537 48636c77,0 78,-121 0,-121 -78,0 -78,121 0,121z"/>
   <path class="fil1" d="M5531 57586c77,0 77,-121 0,-121 -78,0 -78,121 0,121z"/>
   <path class="fil1" d="M7581 56405c77,0 77,-120 0,-120 -78,0 -78,120 0,120z"/>
   <path class="fil1" d="M8761 54852c77,0 78,-120 0,-120 -78,0 -78,120 0,120z"/>
   <path class="fil1" d="M1893 58320c-10,10 -20,19 -29,29 -26,26 14,66 40,40 9,-10 19,-19 29,-29 25,-26 -15,-66 -40,-40z"/>
   <path class="fil1" d="M14288 52122c-10,10 -19,20 -29,30 -26,25 14,65 40,39 10,-9 19,-19 29,-29 26,-25 -14,-65 -40,-40z"/>
   <path class="fil1" d="M4226 60038l62 0c48,0 93,-41 91,-90 -2,-49 -40,-91 -91,-91l-62 0c-47,0 -92,42 -90,91 2,49 39,90 90,90z"/>
   <path class="fil1" d="M3667 58051c117,0 117,-182 0,-182 -116,0 -117,182 0,182z"/>
   <path class="fil1" d="M12271 53043c73,0 73,-113 0,-113 -73,0 -73,113 0,113z"/>
   <path class="fil1" d="M4911 51270c9,-9 19,-19 29,-29 16,-16 16,-44 0,-60 -17,-16 -44,-16 -60,0 -10,10 -20,20 -29,29 -17,17 -17,44 0,60 16,17 43,17 60,0z"/>
   <path class="fil1" d="M12075 43484c55,0 55,-85 0,-85 -54,0 -55,85 0,85z"/>
   <path class="fil1" d="M9972 53727c55,0 55,-85 0,-85 -54,0 -54,85 0,85z"/>
   <path class="fil1" d="M10147 52621c55,0 55,-85 0,-85 -54,0 -55,85 0,85z"/>
   <path class="fil1" d="M1617 59417c117,0 117,-181 0,-181 -116,0 -116,181 0,181z"/>
   <path class="fil1" d="M1182 57616c117,0 117,-181 0,-181 -116,0 -116,181 0,181z"/>
   <path class="fil1" d="M603 60041c55,0 55,-85 0,-85 -54,0 -54,85 0,85z"/>
   <path class="fil1" d="M1272 55444c55,0 55,-85 0,-85 -54,0 -54,85 0,85z"/>
   <path class="fil1" d="M23607 62396c54,0 54,-85 0,-85 -55,0 -55,85 0,85z"/>
   <path class="fil1" d="M4708 45712c127,0 127,-198 0,-198 -128,0 -128,198 0,198z"/>
   <path class="fil1" d="M6296 55717l29 0c52,0 101,-45 99,-99 -3,-53 -44,-99 -99,-99l-29 0c-52,0 -102,46 -99,99 2,54 43,99 99,99z"/>
   <path class="fil1" d="M2613 50692l0 62c0,78 121,78 121,0l0 -62c0,-77 -121,-78 -121,0z"/>
   <path class="fil1" d="M20066 46404c78,0 78,-120 0,-120 -78,0 -78,120 0,120z"/>
   <path class="fil1" d="M1525 64217c10,-10 20,-20 29,-29 21,-21 23,-60 0,-80 -22,-21 -57,-23 -80,0 -9,9 -19,19 -29,29 -21,21 -22,59 0,80 23,21 58,22 80,0z"/>
   <path class="fil1" d="M1107 61861l29 0c30,0 58,-26 57,-56 -2,-31 -25,-57 -57,-57l-29 0c-29,0 -58,26 -56,57 1,30 25,56 56,56z"/>
   <circle class="fil7" cx="14743" cy="56185" r="3302"/>
   <path class="fil5" d="M11468 55774c980,139 2626,-561 3154,-663 1073,-208 2176,40 3269,76 -75,-239 -178,-466 -303,-679 -402,17 -826,-53 -1232,-65 -771,-22 -1537,180 -2306,134 -356,-22 -1156,-333 -1883,-456 -373,465 -622,1032 -699,1653z"/>
   <path class="fil5" d="M14743 52883c-335,0 -659,50 -964,143 414,236 1243,321 1435,347 346,46 722,63 1019,-120 4,-3 8,-6 12,-9 -451,-230 -961,-361 -1502,-361z"/>
   <path class="fil5" d="M18044 56231c-951,-241 -1958,-260 -2917,-51 -521,114 -1026,293 -1543,420 -651,161 -1322,239 -1992,233 -28,0 -57,-1 -87,-2 132,660 459,1250 921,1704 790,-280 1550,-648 2260,-1095 621,-391 1242,-856 1973,-923 453,-42 899,77 1348,169 23,-148 35,-301 37,-455z"/>
   <path class="fil5" d="M17869 57248c-448,-66 -1248,328 -1444,494 -175,148 -323,329 -512,459 -239,165 -529,237 -811,309 -569,147 -1133,310 -1693,489 -71,22 -148,54 -183,118 455,235 970,369 1517,369 383,0 751,-66 1093,-185 342,-490 547,-1123 1089,-1353 92,-39 414,-85 705,-161 95,-171 175,-351 239,-539z"/>
   <path class="fil8" d="M15366 57119l0 623 -2492 0 0 -623 2492 0zm-2492 -1869l0 -623c1246,0 2492,0 3739,0l-623 623c-1039,0 -2077,0 -3116,0zm3739 623c0,623 0,1246 0,1869l-623 0 0 -1246 0 0 -3116 0 0 -623c1246,0 2492,0 3739,0z"/>
   <path class="fil2" d="M5355 50486c14,22 43,29 65,15 22,-14 29,-43 15,-65 -14,-22 -43,-29 -65,-15 -22,14 -29,43 -15,65z"/>
   <path class="fil2" d="M12893 50557c14,22 43,29 65,15 23,-13 29,-43 16,-65 -14,-22 -43,-29 -66,-15 -22,14 -28,43 -15,65z"/>
   <path class="fil2" d="M4717 47657c14,22 43,29 65,15 22,-14 29,-43 15,-65 -13,-22 -43,-29 -65,-15 -22,14 -29,43 -15,65z"/>
   <path class="fil2" d="M7253 50449c14,22 43,28 65,15 23,-14 29,-43 16,-65 -14,-23 -43,-29 -66,-16 -22,14 -28,43 -15,66z"/>
   <path class="fil2" d="M11856 52282c13,22 42,29 65,15 22,-14 29,-43 15,-65 -14,-22 -43,-29 -65,-15 -23,14 -29,43 -15,65z"/>
   <path class="fil2" d="M11044 53870c14,23 43,29 66,15 22,-13 28,-42 15,-65 -14,-22 -43,-28 -65,-15 -23,14 -29,43 -16,65z"/>
   <path class="fil2" d="M7861 54293c14,23 43,29 65,16 22,-14 29,-43 15,-66 -14,-22 -43,-28 -65,-15 -22,14 -29,43 -15,65z"/>
   <path class="fil2" d="M6283 53059c14,23 43,29 65,15 22,-13 29,-42 15,-65 -14,-22 -43,-29 -65,-15 -22,14 -29,43 -15,65z"/>
   <path class="fil2" d="M9444 51242c14,22 43,29 65,15 22,-14 29,-43 15,-65 -14,-22 -43,-29 -65,-15 -22,14 -29,43 -15,65z"/>
   <path class="fil2" d="M11535 50806c14,22 43,28 65,15 22,-14 29,-43 15,-65 -14,-23 -43,-29 -65,-15 -22,13 -29,42 -15,65z"/>
   <path class="fil2" d="M10622 53075c14,22 43,29 65,15 22,-14 29,-43 15,-65 -14,-22 -43,-29 -65,-15 -22,14 -29,43 -15,65z"/>
   <path class="fil2" d="M4399 53779c14,22 43,29 65,15 22,-14 29,-43 15,-65 -14,-22 -43,-29 -65,-15 -22,14 -29,43 -15,65z"/>
   <path class="fil2" d="M16954 51287c-16,25 -50,33 -75,17 -26,-16 -34,-50 -18,-76 16,-26 50,-34 76,-17 25,16 33,50 17,76z"/>
   <path class="fil4" d="M14158 50924c-16,26 -49,34 -75,18 -26,-16 -33,-50 -17,-76 16,-26 49,-34 75,-18 25,17 33,51 17,76z"/>
   <path class="fil4" d="M24776 57268c-16,26 -50,34 -75,18 -26,-16 -34,-50 -18,-76 16,-26 50,-34 76,-18 25,16 33,50 17,76z"/>
   <path class="fil2" d="M23507 49664c-16,26 -49,34 -75,17 -26,-16 -33,-50 -17,-76 16,-25 49,-33 75,-17 26,16 33,50 17,76z"/>
   <path class="fil4" d="M19859 54821c-16,26 -49,34 -75,17 -26,-16 -33,-50 -17,-76 16,-25 49,-33 75,-17 25,16 33,50 17,76z"/>
   <path class="fil4" d="M6030 59081c-16,26 -49,34 -75,18 -26,-17 -33,-51 -17,-77 16,-25 49,-33 75,-17 26,16 33,50 17,76z"/>
   <path class="fil4" d="M10672 57113c-16,26 -50,34 -75,18 -26,-16 -34,-50 -18,-76 16,-26 50,-34 76,-18 25,16 33,50 17,76z"/>
   <path class="fil4" d="M3577 56502c-16,26 -49,34 -75,18 -26,-16 -33,-50 -17,-76 15,-26 49,-34 75,-18 25,16 33,50 17,76z"/>
   <path class="fil4" d="M8128 57168c-16,26 -49,34 -75,18 -26,-16 -33,-50 -18,-76 16,-26 50,-34 76,-18 25,16 33,50 17,76z"/>
   <path class="fil4" d="M7971 45271c-16,26 -50,34 -75,18 -26,-17 -34,-51 -18,-76 16,-26 50,-34 76,-18 25,16 33,50 17,76z"/>
   <path class="fil4" d="M25867 53346c-16,26 -50,34 -76,17 -25,-16 -33,-50 -17,-76 16,-25 50,-33 75,-17 26,16 34,50 18,76z"/>
   <path class="fil9" d="M2697 53638c-206,-7 -370,-176 -372,-385l-3 0c-1,209 -166,378 -371,385 206,6 371,177 371,387l3 0c0,-210 166,-381 372,-387z"/>
   <path class="fil4" d="M24411 60645c136,4 245,116 246,254l2 0c1,-138 110,-250 246,-254 -137,-5 -246,-117 -246,-256l-2 0c0,139 -110,251 -246,256z"/>
   <path class="fil2" d="M16990 48488c-310,-10 -559,-265 -561,-581l-5 0c-2,316 -251,571 -561,581 311,10 561,267 561,585l5 0c0,-318 250,-575 561,-585z"/>
   <path class="fil10" d="M3340 66534l20413 0c-127,-682 -321,-1341 -575,-1969l12 -5c212,-85 316,-326 231,-538l-512 -1282c-85,-212 -326,-316 -538,-231l-242 97c-491,-719 -1069,-1373 -1720,-1947 -241,-212 -491,-412 -750,-602 -1201,-875 -2597,-1500 -4110,-1796 -255,-49 -512,-90 -773,-120 -248,-30 -500,-50 -753,-62 -158,-7 -317,-10 -476,-10 -1037,0 -2037,151 -2982,434 -226,68 -449,143 -668,225l-75 -104c-133,-186 -392,-228 -577,-95l-911 655 -777 558 -31 22c-118,84 -178,219 -173,353 -744,554 -1412,1206 -1984,1936l-159 -85c-202,-106 -453,-29 -559,174l-987 1872c-107,202 -30,452 173,559l62 33c-246,616 -434,1261 -559,1928zm10599 -3445c-2,-26 -2,-52 1,-79 48,-364 612,-590 1260,-504 647,85 1133,449 1085,813 -5,41 -17,80 -35,117 -140,294 -649,463 -1224,388 -601,-80 -1062,-398 -1087,-735zm-3719 -2130c-47,363 -511,845 -1178,1184 -815,414 -1626,456 -1809,93 -185,-363 327,-992 1143,-1406 816,-414 1626,-456 1810,-93 34,66 44,141 34,222z"/>
   <path class="fil2" d="M9344 43359c14,22 43,29 65,15 22,-13 29,-43 15,-65 -13,-22 -43,-29 -65,-15 -22,14 -29,43 -15,65z"/>
   <g>
    <path class="fil11" d="M19954 52048c0,-343 278,-621 621,-621 343,0 622,278 622,621 0,343 -279,621 -622,621 -343,0 -621,-278 -621,-621z"/>
    <path class="fil12" d="M21056 51654c88,107 141,244 141,394 0,343 -279,621 -622,621 -191,0 -362,-86 -476,-223 0,0 469,180 757,-108 289,-289 200,-684 200,-684z"/>
   </g>
   <path class="fil9" d="M9105 48076c-16,25 -50,33 -76,17 -25,-16 -33,-50 -17,-76 16,-26 50,-34 75,-17 26,16 34,50 18,76z"/>
   <path class="fil3" d="M5041 41626c-16,25 -49,33 -75,17 -26,-16 -33,-50 -17,-76 16,-26 49,-34 75,-17 25,16 33,50 17,76z"/>
   <polygon class="fil13" points="19897,42603 19875,42650 19891,42640 "/>
   <path class="fil2" d="M13609 46277c-16,-26 -50,-34 -75,-17 -26,16 -34,50 -18,76 16,25 50,33 75,17 26,-16 34,-50 18,-76z"/>
   <path class="fil4" d="M17410 39901c-16,-26 -50,-34 -75,-17 -26,16 -34,50 -18,76 16,25 50,33 76,17 25,-16 33,-50 17,-76z"/>
   <path class="fil4" d="M16253 39327c-16,-26 -50,-33 -75,-17 -26,16 -34,50 -18,76 16,26 50,34 76,17 25,-16 33,-50 17,-76z"/>
   <path class="fil3" d="M15647 45794c-15,-26 -49,-34 -75,-18 -25,16 -33,50 -17,76 16,26 49,34 75,18 26,-16 33,-50 17,-76z"/>
   <path class="fil9" d="M23110 38734c16,26 49,34 75,17 25,-16 33,-50 17,-76 -16,-25 -49,-33 -75,-17 -26,16 -33,50 -17,76z"/>
   <path class="fil9" d="M24913 39266c16,26 50,34 75,17 26,-16 34,-50 18,-76 -16,-25 -50,-33 -75,-17 -26,16 -34,50 -18,76z"/>
   <path class="fil3" d="M6958 46999c15,25 49,33 75,17 25,-16 33,-50 17,-76 -16,-26 -49,-34 -75,-17 -26,16 -33,50 -17,76z"/>
   <path class="fil4" d="M21061 40786c16,26 50,34 76,18 25,-16 33,-50 17,-76 -16,-26 -50,-34 -75,-18 -26,16 -34,50 -18,76z"/>
   <path class="fil3" d="M10430 48595c16,26 50,34 75,18 26,-16 34,-50 18,-76 -16,-26 -50,-34 -75,-18 -26,16 -34,50 -18,76z"/>
   <path class="fil9" d="M22815 43203c16,25 50,33 75,17 26,-16 34,-50 18,-76 -16,-26 -50,-34 -76,-17 -25,16 -33,50 -17,76z"/>
   <path class="fil9" d="M19392 39687c16,26 50,34 76,18 25,-16 33,-50 17,-76 -16,-26 -50,-34 -75,-18 -26,16 -34,50 -18,76z"/>
   <path class="fil9" d="M14147 40678c16,26 50,34 75,18 26,-16 34,-50 18,-76 -16,-26 -50,-34 -76,-18 -25,16 -33,50 -17,76z"/>
   <path class="fil3" d="M26005 45274c16,26 49,34 75,18 26,-16 33,-50 17,-76 -16,-26 -49,-34 -75,-18 -26,16 -33,50 -17,76z"/>
   <path class="fil4" d="M7703 42314c-16,26 -50,34 -76,18 -25,-16 -33,-50 -17,-76 16,-26 50,-34 75,-18 26,16 34,51 18,76z"/>
   <path class="fil3" d="M16125 41191c-16,26 -50,34 -75,18 -26,-16 -34,-50 -18,-76 16,-26 50,-34 76,-18 25,17 33,51 17,76z"/>
   <path class="fil2" d="M15620 41111c-16,26 -50,34 -75,18 -26,-16 -34,-50 -18,-76 16,-26 50,-34 76,-18 25,16 33,50 17,76z"/>
   <path class="fil4" d="M13077 40521c-16,26 -49,34 -75,17 -26,-16 -33,-50 -17,-76 16,-25 49,-33 75,-17 26,16 33,50 17,76z"/>
   <path class="fil2" d="M8408 40981c-16,26 -49,34 -75,18 -26,-16 -33,-50 -17,-76 16,-26 49,-34 75,-18 26,16 33,51 17,76z"/>
   <path class="fil4" d="M16552 42102c-16,26 -50,34 -75,18 -26,-17 -34,-51 -18,-76 16,-26 50,-34 76,-18 25,16 33,50 17,76z"/>
   <path class="fil9" d="M15766 43452c-120,-4 -215,-101 -216,-223l-2 0c-1,122 -97,219 -216,223 120,4 216,103 216,225l2 0c0,-122 96,-221 216,-225z"/>
   <path class="fil2" d="M2977 45189c16,26 49,34 75,18 26,-17 33,-51 17,-76 -16,-26 -49,-34 -75,-18 -25,16 -33,50 -17,76z"/>
   <path class="fil4" d="M2697 42998c16,26 50,34 76,17 25,-16 33,-50 17,-76 -16,-25 -50,-33 -75,-17 -26,16 -34,50 -18,76z"/>
   <path class="fil4" d="M1667 40078c16,26 49,34 75,18 26,-16 33,-50 18,-76 -16,-26 -50,-34 -76,-18 -25,16 -33,50 -17,76z"/>
   <path class="fil4" d="M11618 46514c16,26 50,34 76,17 25,-16 33,-50 17,-76 -16,-25 -50,-33 -75,-17 -26,16 -34,50 -18,76z"/>
   <path class="fil3" d="M3342 45774c16,26 50,34 75,18 26,-16 34,-50 18,-76 -16,-26 -50,-34 -75,-18 -26,16 -34,50 -18,76z"/>
   <path class="fil3" d="M2313 44282c16,26 50,34 76,18 25,-16 33,-50 17,-76 -16,-26 -50,-34 -75,-18 -26,16 -34,51 -18,76z"/>
   <path class="fil4" d="M893 44026c16,26 50,34 75,18 26,-17 34,-51 18,-76 -16,-26 -50,-34 -76,-18 -25,16 -33,50 -17,76z"/>
   <path class="fil4" d="M1865 46627c16,26 50,34 75,18 26,-16 34,-50 18,-76 -16,-26 -50,-34 -75,-18 -26,16 -34,50 -18,76z"/>
   <path class="fil4" d="M22885 45549c16,26 50,34 75,18 26,-17 34,-51 18,-76 -16,-26 -50,-34 -75,-18 -26,16 -34,50 -18,76z"/>
   <path class="fil1" d="M3699 36430c18,0 18,28 0,28 -18,0 -18,-28 0,-28z"/>
   <path class="fil1" d="M3990 36416c36,0 36,56 0,56 -37,0 -37,-56 0,-56z"/>
   <path class="fil1" d="M3602 38603c47,0 47,73 0,73 -47,0 -47,-73 0,-73z"/>
   <path class="fil9" d="M17323 37898c-16,-26 -50,-34 -76,-18 -25,17 -33,51 -17,76 16,26 49,34 75,18 26,-16 33,-50 18,-76z"/>
   <path class="fil3" d="M26108 38291c16,26 49,34 75,18 26,-16 33,-50 17,-76 -16,-26 -49,-34 -75,-18 -26,17 -33,51 -17,76z"/>
   <path class="fil9" d="M19622 38213c16,25 50,33 75,17 26,-16 34,-50 18,-76 -16,-26 -50,-34 -76,-17 -25,16 -33,50 -17,76z"/>
   <path class="fil9" d="M21904 37270c16,26 49,34 75,18 26,-16 33,-50 17,-76 -16,-26 -49,-34 -75,-18 -26,17 -33,51 -17,76z"/>
   <path class="fil2" d="M3607 37451c-16,26 -49,34 -75,18 -26,-17 -33,-51 -17,-76 15,-26 49,-34 75,-18 25,16 33,50 17,76z"/>
   <path class="fil4" d="M16843 38357c-16,26 -50,34 -76,18 -25,-16 -33,-50 -17,-76 16,-26 50,-34 75,-18 26,16 34,50 18,76z"/>
   <path class="fil2" d="M13800 38325c-16,26 -49,34 -75,18 -25,-16 -33,-50 -17,-76 16,-26 49,-34 75,-18 26,16 33,50 17,76z"/>
   <path class="fil3" d="M11173 38463c-16,26 -50,34 -75,18 -26,-16 -34,-50 -18,-76 16,-26 50,-34 75,-18 26,17 34,51 18,76z"/>
   <path class="fil4" d="M10024 37463c-15,26 -49,34 -75,18 -25,-16 -33,-50 -17,-76 16,-26 49,-34 75,-18 26,16 33,50 17,76z"/>
   <path class="fil4" d="M12783 37240c-16,25 -49,33 -75,17 -26,-16 -33,-50 -17,-76 15,-26 49,-34 75,-17 25,16 33,50 17,76z"/>
   <path class="fil4" d="M14761 37077c-16,26 -50,34 -75,18 -26,-16 -34,-50 -18,-76 16,-26 50,-34 75,-18 26,16 34,50 18,76z"/>
   <path class="fil2" d="M7288 38161c-16,26 -49,34 -75,18 -26,-16 -33,-50 -17,-76 15,-26 49,-34 75,-18 25,17 33,51 17,76z"/>
   <path class="fil4" d="M25287 36425c-16,26 -49,34 -75,18 -25,-17 -33,-51 -17,-76 16,-26 49,-34 75,-18 26,16 33,50 17,76z"/>
   <path class="fil2" d="M9472 37063c-16,26 -50,34 -76,18 -25,-17 -33,-51 -17,-76 16,-26 50,-34 75,-18 26,16 34,50 18,76z"/>
  </g>
 </g>
</svg>
