<?xml version="1.0" encoding="UTF-8"?>
<!DOCTYPE svg PUBLIC "-//W3C//DTD SVG 1.1//EN" "http://www.w3.org/Graphics/SVG/1.1/DTD/svg11.dtd">
<!-- Creator: CorelDRAW X7 -->
<svg xmlns="http://www.w3.org/2000/svg" xml:space="preserve" width="19.2757in" height="12.1824in" version="1.1" style="shape-rendering:geometricPrecision; text-rendering:geometricPrecision; image-rendering:optimizeQuality; fill-rule:evenodd; clip-rule:evenodd"
viewBox="0 0 192757 121824"
 xmlns:xlink="http://www.w3.org/1999/xlink">
 <defs>
  <style type="text/css">
   <![CDATA[
    .fil0 {fill:#F7F2E6}
   ]]>
  </style>
 </defs>
 <g id="Layer_x0020_1">
  <metadata id="CorelCorpID_0Corel-Layer"/>
  <path class="fil0" d="M53462 86862c-5911,-3704 -10308,-7985 -13192,-12543 -2721,-4299 -4088,-8837 -4100,-13351 -12,-4529 1328,-9075 4020,-13373 2842,-4537 7197,-8811 13069,-12528 11826,-7484 27454,-11234 43105,-11247 15652,-13 31264,3710 43057,11174 5797,3668 10127,7901 12993,12407 2773,4360 4164,8965 4173,13537 9,4585 -1363,9191 -4117,13543 -2821,4457 -7101,8653 -12846,12307 -5749,3656 -12413,6416 -19547,8281 -7488,1957 -15488,2936 -23495,2936l0 -10c-8007,0 -15995,-969 -23463,-2906 -7172,-1860 -13872,-4603 -19657,-8227zm20673 -14310c-3334,-1939 -5690,-4182 -7075,-6540 -977,-1662 -1468,-3380 -1473,-5076 -4,-1699 479,-3421 1450,-5090 1370,-2355 3699,-4596 6994,-6532 6106,-3587 14207,-5385 22340,-5392 8134,-6 16227,1778 22314,5355 3270,1921 5596,4149 6982,6497 999,1692 1500,3436 1503,5154 3,1730 -491,3477 -1481,5162 -1360,2316 -3658,4521 -6901,6436 -2955,1744 -6390,3064 -10075,3958 -3868,939 -8031,1408 -12227,1408 -4188,0 -8349,-466 -12219,-1398 -3688,-888 -7141,-2202 -10132,-3942zm-1311 2262c-13084,-7611 -13136,-20100 -113,-27752l0 0c13023,-7652 34306,-7669 47295,-37l0 0c12988,7632 13039,20121 112,27753l0 0c-6474,3822 -15045,5735 -23632,5735l0 0c-8557,0 -17130,-1899 -23662,-5699zm11052 -20568c-6880,3683 -6854,9694 59,13357l0 0c6913,3663 18157,3656 24985,-17l0 0c6829,-3674 6802,-9684 -60,-13357l0 0c-3425,-1833 -7942,-2750 -12463,-2750l0 0c-4536,0 -9076,923 -12521,2767l0 0zm-1228 -2303c-2673,1430 -4528,3217 -5556,5158 -649,1225 -972,2512 -969,3821 3,1311 334,2602 992,3830 1044,1951 2915,3741 5602,5165 3830,2029 8809,3042 13743,3039 4941,-4 9905,-1026 13699,-3067 2619,-1409 4449,-3175 5480,-5101 666,-1243 997,-2546 995,-3866 -2,-1331 -336,-2637 -1003,-3877 -1036,-1925 -2886,-3697 -5542,-5119 -1894,-1013 -4062,-1774 -6364,-2282 -2375,-524 -4868,-786 -7328,-786 -2467,0 -4971,264 -7355,791 -2313,511 -4492,1275 -6394,2294zm-52852 49963c-9255,-5799 -16149,-12517 -20682,-19680 -4316,-6819 -6484,-14035 -6504,-21228 -19,-7209 2107,-14434 6382,-21257 4471,-7137 11298,-13847 20487,-19662 18369,-11624 42614,-17450 66878,-17470 24265,-20 48485,5763 66803,17356 9078,5745 15869,12387 20371,19467 4396,6914 6602,14233 6616,21520 14,7299 -2162,14619 -6530,21522 -4438,7013 -11150,13601 -20140,19319 -8939,5684 -19300,9976 -30390,12874 -11574,3025 -23968,4538 -36398,4538l0 10c-12363,1 -24736,-1505 -36347,-4516 -11132,-2887 -21543,-7152 -30546,-12793zm-1382 2211c-37757,-23656 -37904,-62468 -327,-86249l0 0c37577,-23781 98986,-23832 136465,-114l0 0c37479,23718 37626,62531 327,86250l0 0c-18681,11879 -43413,17821 -68190,17821l0 0c-24692,1 -49429,-5900 -68275,-17708zm14295 -75863c-29530,18043 -29415,47490 258,65438l0 0c29672,17949 77933,17910 107244,-86l0 0c29313,-17994 29197,-47443 -257,-65439l0 0c-14699,-8981 -34088,-13470 -53491,-13471l0 0c-19474,-1 -38961,4520 -53754,13558l0 0zm-1361 -2231c-8303,5072 -14389,11041 -18256,17434 -3393,5610 -5081,11551 -5065,17516 16,5968 1737,11909 5161,17515 3918,6412 10063,12387 18427,17446 15243,9220 35214,13821 55109,13805 19898,-16 39782,-4651 54849,-13901 8136,-4995 14129,-10867 17976,-17164 3466,-5673 5193,-11688 5182,-17726 -12,-6044 -1759,-12061 -5241,-17734 -3893,-6342 -9954,-12256 -18175,-17278 -7441,-4547 -16023,-7973 -25180,-10279 -9452,-2381 -19554,-3571 -29672,-3571 -10154,-1 -20298,1197 -29796,3593 -9202,2321 -17831,5769 -25319,10344zm10733 63050c-24611,-15419 -24707,-40717 -214,-56217l0 0c24492,-15500 64518,-15533 88946,-73l0 0c24428,15459 24525,40756 214,56216l0 0c-12177,7742 -28296,11616 -44445,11616 -16095,0 -32218,-3846 -44501,-11542zm13059 -45888c-17189,9794 -17122,25778 149,35521l0 0c17272,9741 45362,9721 62425,-47l0 0c17060,-9769 16993,-25752 -151,-35521l0 0c-8556,-4875 -19842,-7311 -31136,-7312l0 0c-11335,0 -22677,2453 -31287,7359l0 0zm-1290 -2272c-5511,3139 -9417,6925 -11712,10994 -1646,2917 -2464,5969 -2456,9034 7,3079 840,6133 2495,9039 2319,4070 6266,7858 11833,10998 9036,5097 20837,7639 32571,7631 11752,-9 23509,-2569 32433,-7678 5412,-3099 9266,-6833 11556,-10852 1676,-2942 2511,-6032 2505,-9144 -5,-3123 -849,-6218 -2532,-9157 -2308,-4032 -6208,-7788 -11690,-10912 -4424,-2521 -9511,-4417 -14929,-5689 -5567,-1307 -11524,-1961 -17497,-1961l0 -11c-5966,0 -11946,662 -17568,1984 -5444,1280 -10559,3188 -15009,5724z"/>
 </g>
</svg>
