<?xml version="1.0" encoding="UTF-8"?>
<!DOCTYPE svg PUBLIC "-//W3C//DTD SVG 1.1//EN" "http://www.w3.org/Graphics/SVG/1.1/DTD/svg11.dtd">
<!-- Creator: CorelDRAW X7 -->
<svg xmlns="http://www.w3.org/2000/svg" xml:space="preserve" width="3.34189in" height="3.34189in" version="1.1" style="shape-rendering:geometricPrecision; text-rendering:geometricPrecision; image-rendering:optimizeQuality; fill-rule:evenodd; clip-rule:evenodd"
viewBox="0 0 33419 33419"
 xmlns:xlink="http://www.w3.org/1999/xlink">
 <defs>
  <style type="text/css">
   <![CDATA[
    .fil0 {fill:#EFE3CB}
   ]]>
  </style>
 </defs>
 <g id="Layer_x0020_1">
  <metadata id="CorelCorpID_0Corel-Layer"/>
  <path class="fil0" d="M33419 16709c0,-9228 -7481,-16709 -16710,-16709 -9228,0 -16709,7481 -16709,16709 0,9229 7481,16710 16709,16710 9229,0 16710,-7481 16710,-16710zm-13559 4730l0 3150 -12610 0 0 -3150 12610 0zm-12610 -12614c6305,0 12614,0 18919,0l-3155 3155 -15764 0 0 -3155zm18919 6305c0,3155 0,6309 0,9459l-3155 0 0 -6304 -15764 0 0 -3155c6305,0 12610,0 18919,0l0 0z"/>
 </g>
</svg>
