<?xml version="1.0" encoding="UTF-8"?>
<!DOCTYPE svg PUBLIC "-//W3C//DTD SVG 1.1//EN" "http://www.w3.org/Graphics/SVG/1.1/DTD/svg11.dtd">
<!-- Creator: CorelDRAW X7 -->
<svg xmlns="http://www.w3.org/2000/svg" xml:space="preserve" width="6.57441in" height="5.12394in" version="1.1" style="shape-rendering:geometricPrecision; text-rendering:geometricPrecision; image-rendering:optimizeQuality; fill-rule:evenodd; clip-rule:evenodd"
viewBox="0 0 65744 51239"
 xmlns:xlink="http://www.w3.org/1999/xlink">
 <defs>
  <style type="text/css">
   <![CDATA[
    .fil46 {fill:#657AA9}
    .fil20 {fill:#7C94CA}
    .fil44 {fill:#899FCF}
    .fil40 {fill:#8C89C1}
    .fil57 {fill:#9B98C9}
    .fil33 {fill:#A5A2CE}
    .fil45 {fill:#A5B7DB}
    .fil34 {fill:#AABADC}
    .fil37 {fill:#AEBEDE}
    .fil68 {fill:#BB9B61}
    .fil61 {fill:#BBB8DA}
    .fil2 {fill:#BDBBDB}
    .fil47 {fill:#C1C0DF}
    .fil29 {fill:#C7A76C}
    .fil1 {fill:#CECBE4}
    .fil6 {fill:#D6BB8A}
    .fil28 {fill:#D7B67C}
    .fil66 {fill:#D7B77D}
    .fil48 {fill:#D8DBEE}
    .fil32 {fill:#D9D7EA}
    .fil70 {fill:#DFC596}
    .fil64 {fill:#E0E6F3}
    .fil71 {fill:#E3CCA2}
    .fil72 {fill:#EBDABB}
    .fil35 {fill:#EBEFF7}
    .fil59 {fill:#EED5AB}
    .fil63 {fill:#EFF2F9}
    .fil69 {fill:#F1E5CF}
    .fil54 {fill:#F8F9FC}
    .fil38 {fill:#FBFCFE}
    .fil65 {fill:white}
    .fil17 {fill:#657AA9;fill-rule:nonzero}
    .fil53 {fill:#6D81AF;fill-rule:nonzero}
    .fil39 {fill:#7084B0;fill-rule:nonzero}
    .fil24 {fill:#7C94CA;fill-rule:nonzero}
    .fil18 {fill:#899FCF;fill-rule:nonzero}
    .fil42 {fill:#8C89C1;fill-rule:nonzero}
    .fil55 {fill:#8CA0CD;fill-rule:nonzero}
    .fil50 {fill:#93A7D4;fill-rule:nonzero}
    .fil31 {fill:#9B98C9;fill-rule:nonzero}
    .fil9 {fill:#A38755;fill-rule:nonzero}
    .fil52 {fill:#A58D63;fill-rule:nonzero}
    .fil22 {fill:#A5B7DB;fill-rule:nonzero}
    .fil36 {fill:#AABADC;fill-rule:nonzero}
    .fil43 {fill:#ABBBE0;fill-rule:nonzero}
    .fil11 {fill:#B3C1E0;fill-rule:nonzero}
    .fil19 {fill:#B7C4E3;fill-rule:nonzero}
    .fil51 {fill:#B7C4E3;fill-rule:nonzero}
    .fil21 {fill:#B8C5E2;fill-rule:nonzero}
    .fil41 {fill:#BEBCDC;fill-rule:nonzero}
    .fil26 {fill:#C7A76C;fill-rule:nonzero}
    .fil4 {fill:#D4B47A;fill-rule:nonzero}
    .fil49 {fill:#D4B887;fill-rule:nonzero}
    .fil67 {fill:#D6BB8A;fill-rule:nonzero}
    .fil27 {fill:#D7B67C;fill-rule:nonzero}
    .fil12 {fill:#D7B77D;fill-rule:nonzero}
    .fil62 {fill:#D8DBEE;fill-rule:nonzero}
    .fil58 {fill:#D9D7EA;fill-rule:nonzero}
    .fil7 {fill:#DBBE8A;fill-rule:nonzero}
    .fil56 {fill:#DFC596;fill-rule:nonzero}
    .fil25 {fill:#E2CBA1;fill-rule:nonzero}
    .fil10 {fill:#E3CDA4;fill-rule:nonzero}
    .fil23 {fill:#E4E9F4;fill-rule:nonzero}
    .fil3 {fill:#E6D1AB;fill-rule:nonzero}
    .fil16 {fill:#E6D2AE;fill-rule:nonzero}
    .fil30 {fill:#E9D1A9;fill-rule:nonzero}
    .fil0 {fill:#E9E7F2;fill-rule:nonzero}
    .fil14 {fill:#F1E5CF;fill-rule:nonzero}
    .fil5 {fill:#F4E3C8;fill-rule:nonzero}
    .fil15 {fill:#FBF7F0;fill-rule:nonzero}
    .fil13 {fill:#FBFCFE;fill-rule:nonzero}
    .fil60 {fill:#FCE9CA;fill-rule:nonzero}
    .fil8 {fill:white;fill-rule:nonzero}
   ]]>
  </style>
 </defs>
 <g id="Layer_x0020_1">
  <metadata id="CorelCorpID_0Corel-Layer"/>
  <g id="_1759415182192">
   <g>
    <g>
     <polygon class="fil0" points="26766,10131 46300,21343 46341,37743 26766,26506 "/>
     <g>
      <path class="fil1" d="M32564 22799l3797 2192 -16 5484 -3796 -2192 15 -5484zm4208 7923l16 -5485 7963 4597 -16 5485 -7963 -4597zm8037 -1689l-12242 -7068 1 -621 12242 7067 -1 622zm3 -1143l-12242 -7068 2 -622 12241 7068 -1 622zm3 -1143l-12242 -7068 2 -623 12242 7068 -2 623zm3 -1145l-12242 -7067 2 -622 12242 7068 -2 621zm3 -1143l-12241 -7067 1 -622 12242 7067 -2 622zm-12925 -8085l-33 11513 -4187 -2417 33 -11514 4187 2418zm13987 20591l39 -13474 -19156 -11062 0 13499 19117 11037z"/>
      <polygon class="fil2" points="40646,28844 40640,30868 41620,30420 "/>
     </g>
    </g>
    <g>
     <path class="fil3" d="M36681 30295l-2418 -1395c-101,-59 -159,-132 -172,-204l0 9207c-19,91 40,193 172,269l2418 1396c110,63 250,97 385,100l0 -9272c-135,-3 -275,-37 -385,-101z"/>
     <path class="fil4" d="M36067 40219l0 -6010 0 0 0 0c-12,56 -51,107 -121,147l-2521 1456c-88,51 -209,74 -334,71l0 6074c125,3 246,-20 334,-71l2521 -1455c96,-56 135,-133 121,-212z"/>
     <g>
      <path class="fil5" d="M39922 28870l-2521 1455c-184,106 -508,93 -720,-29l-2418 -1396c-212,-123 -235,-310 -52,-416l2522 -1456c183,-106 507,-92 720,30l2417 1396c213,123 236,310 52,416z"/>
      <path class="fil4" d="M40042 37930l0 -9207 0 0 0 0c-11,55 -51,107 -120,147l-2521 1455c-88,51 -209,74 -335,71l0 9272c126,3 247,-19 335,-70l2521 -1456c96,-55 135,-133 120,-212z"/>
      <path class="fil5" d="M35946 34356l-2521 1456c-184,106 -508,93 -720,-30l-2418 -1396c-212,-122 -235,-309 -51,-415l2521 -1456c184,-106 507,-93 720,30l2417 1396c213,122 236,309 52,415z"/>
      <path class="fil3" d="M32705 35782l-2418 -1396c-101,-58 -159,-131 -172,-203l0 6009c-19,91 40,192 172,269l2418 1396c110,63 250,97 386,100l0 -6074c-136,-4 -276,-37 -386,-101z"/>
      <path class="fil5" d="M32058 38910l-2521 1456c-184,106 -508,92 -720,-30l-2418 -1396c-212,-123 -235,-310 -51,-416l2521 -1455c183,-106 507,-93 720,30l2417 1395c213,123 236,310 52,416z"/>
      <path class="fil4" d="M32179 42464l0 -3701c0,0 0,0 0,0l0 0c-12,55 -52,107 -121,147l-2521 1456c-88,51 -209,73 -334,70l0 3766c125,3 246,-19 334,-70l2521 -1456c96,-55 135,-133 121,-212z"/>
      <path class="fil3" d="M28817 40336l-2418 -1396c-101,-59 -159,-132 -172,-204l0 3701c-19,91 40,193 172,269l2418 1396c110,63 250,97 386,100l0 -3766c-136,-3 -276,-37 -386,-100z"/>
      <polygon class="fil6" points="30981,37902 30246,37478 28132,38698 28867,39123 "/>
      <polygon class="fil6" points="32234,35073 32969,35497 35779,33874 35044,33450 "/>
      <polygon class="fil6" points="36812,28745 37547,29169 39328,28141 38593,27717 "/>
     </g>
    </g>
    <g>
     <polygon class="fil7" points="8459,29211 14137,32489 14137,32021 8459,28745 "/>
     <polygon class="fil8" points="8459,28745 15759,24529 21436,27807 14137,32021 "/>
     <polygon class="fil9" points="14137,32489 21436,28275 21436,27807 14137,32021 "/>
     <polygon class="fil7" points="8459,27327 14137,30604 14137,30136 8459,26860 "/>
     <polygon class="fil10" points="21436,25922 14137,30136 8459,26860 15759,22644 "/>
     <polygon class="fil9" points="14137,30604 21436,26390 21436,25922 14137,30136 "/>
     <path class="fil11" d="M8459 27327l0 0c-422,250 -515,822 -194,1193l194 225 5678 3276 7299 -4214 0 -1417 -7299 4214 -5678 -3277z"/>
     <path class="fil12" d="M8330 26936l129 -76 0 467c-422,250 -515,822 -194,1193l194 225 0 467 -399 -428c-523,-560 -391,-1461 270,-1848z"/>
     <polygon class="fil13" points="11298,27105 16160,24277 18591,25698 13749,28500 "/>
    </g>
    <g>
     <path class="fil8" d="M22369 19016c2,1 4,2 6,4 29,20 58,42 87,65 3,3 6,6 10,9 27,22 55,46 81,71 5,4 9,8 13,12 23,22 45,44 67,67 6,6 12,12 18,19 17,18 33,36 49,55 11,13 23,26 34,40 5,5 9,11 13,16 48,59 93,121 136,185 0,1 0,2 1,3 42,64 81,132 116,200 3,5 6,10 8,15 8,15 15,30 22,45 11,23 23,47 33,70 4,9 7,17 11,25 12,30 24,59 35,88 3,7 5,14 8,21 12,35 24,69 35,104 1,5 3,10 4,15 11,35 20,71 29,106 0,4 1,8 2,11 9,38 16,76 22,114 0,1 0,1 0,1 7,38 11,76 14,113 0,3 1,6 1,9 3,38 4,75 4,111 0,37 -2,71 -5,105 0,3 0,6 -1,9 -1,17 -4,32 -7,48 -18,-7 -36,-14 -55,-22 -2,-1 -4,-2 -6,-3 -31,-15 -63,-31 -95,-49 -32,-19 -64,-40 -96,-62 -2,-1 -4,-2 -5,-4 -30,-20 -59,-42 -88,-65 -3,-3 -6,-6 -10,-9 -28,-22 -55,-46 -82,-71 -4,-4 -8,-8 -12,-12 -23,-21 -45,-44 -67,-67 -6,-6 -13,-13 -19,-19 -16,-18 -32,-36 -48,-55 -12,-13 -23,-26 -35,-40 -4,-5 -8,-11 -13,-17 -48,-59 -93,-120 -135,-185 -1,-1 -1,-2 -2,-3 -38,-58 -72,-118 -104,-179 -11,-20 -22,-39 -31,-59 -7,-13 -13,-26 -19,-39 -21,-44 -41,-89 -59,-134 -1,-3 -2,-6 -3,-8 -19,-50 -36,-100 -52,-150 -1,-3 -2,-7 -3,-11 -16,-53 -30,-107 -40,-160 -1,-3 -1,-5 -2,-8 -11,-55 -19,-110 -25,-164 0,0 0,0 0,-1 -4,-45 -6,-90 -6,-134 0,-36 2,-71 5,-105 0,-3 1,-6 1,-9 2,-17 5,-32 7,-48 19,7 37,14 56,22 2,1 4,2 6,3 31,15 63,31 95,50 32,18 64,39 96,61zm-162 -487c-14,8 -27,16 -41,24l-242 141c-21,12 -42,25 -63,37l-271 157c0,0 0,0 0,0 -29,17 -55,38 -80,61 -7,6 -13,12 -18,18 -24,24 -47,51 -67,82 0,0 0,1 -1,1 -13,20 -25,42 -36,65 0,1 -1,2 -1,3 -1,2 -2,5 -3,7 -7,15 -13,30 -19,45 -3,8 -5,16 -8,24 -1,5 -3,9 -4,14 -2,4 -3,8 -5,13 -4,15 -9,32 -12,49 -2,6 -3,12 -4,18 -1,4 -2,7 -2,11 -1,6 -3,12 -4,18 -2,15 -5,30 -7,45 -1,9 -2,18 -2,27 -1,3 -1,6 -1,9 -1,3 -1,7 -1,11 -2,14 -3,29 -3,45 -1,15 -1,30 -1,46l0 3c0,14 0,29 0,43 1,15 1,31 2,46 1,15 3,30 4,45 0,0 0,0 0,1 0,0 0,0 0,0 0,0 0,1 0,1 2,16 3,31 5,47 2,16 5,32 7,49 3,16 6,32 9,49 1,6 2,12 3,18 1,2 2,5 2,8 2,8 3,17 5,26 4,17 8,35 13,52 5,19 10,38 15,57 2,8 5,17 7,25 1,1 1,3 2,5 0,2 1,4 2,6 2,8 5,16 7,25 7,21 14,42 22,64 7,20 15,40 23,60 1,3 2,6 3,8 0,2 1,4 2,6 11,29 23,58 36,86 6,14 14,28 20,42 4,8 6,15 10,22 3,6 6,12 9,17 5,10 9,20 14,29 5,11 12,20 17,30 13,25 25,50 39,74 21,36 43,71 66,106 0,1 1,2 1,3 42,64 88,126 136,185 2,3 4,7 7,10 2,2 4,4 6,7 11,13 23,26 35,40 13,15 25,31 39,45 3,3 6,6 9,9 6,7 12,13 18,20 12,11 23,23 34,35 11,11 22,21 33,31 4,5 9,9 13,13 3,2 5,5 8,7 16,15 33,30 50,44 8,7 16,13 24,20 3,3 6,6 10,8 3,3 7,7 11,10 14,11 29,22 44,33 11,8 21,16 32,23 2,1 4,3 5,4 2,1 4,2 5,3 14,10 28,19 41,28 14,8 28,17 41,25 3,1 7,3 10,5 10,6 20,12 30,17 13,7 26,14 39,21 9,4 17,7 26,11 2,1 4,2 6,3 2,1 5,3 7,4 13,6 26,11 39,16 12,5 25,10 38,14 2,1 5,2 7,3 2,0 4,1 6,2 8,3 17,5 26,8 13,4 26,8 39,11 6,2 13,3 19,4 3,1 5,2 8,2 4,1 8,2 12,3 15,3 28,5 42,7 9,1 17,1 26,2 3,1 6,1 9,1 2,0 5,1 8,1 15,1 30,2 45,2 7,0 13,-1 19,-1 5,-1 10,-1 15,-1 5,0 11,0 16,-1 19,-2 37,-4 55,-8 0,0 1,0 1,0 4,-1 8,-3 12,-3 18,-5 37,-9 54,-15 1,-1 3,-2 4,-2 26,-10 50,-21 74,-34l0 0 0 0 0 0 0 0 792 -461c29,-17 56,-38 81,-61 6,-6 12,-12 18,-18 24,-24 47,-51 66,-82 1,0 1,-1 1,-1 13,-21 26,-42 36,-66 1,0 1,-1 1,-2 2,-2 2,-5 4,-7 6,-15 13,-29 18,-45 3,-8 6,-16 8,-24 2,-4 3,-9 5,-14 1,-4 3,-8 4,-13 5,-15 9,-32 13,-48 1,-6 2,-12 4,-18 0,-4 1,-8 2,-12 1,-6 2,-11 3,-17 3,-15 5,-31 7,-46 1,-9 2,-17 3,-26 0,-3 1,-6 1,-9 0,-4 1,-8 1,-11 1,-15 2,-30 3,-45 0,-16 1,-31 1,-47l0 -2c0,-15 0,-29 -1,-44 0,-15 -1,-31 -2,-46 0,-7 -1,-14 -2,-21 0,-3 0,-6 0,-9 -1,-6 -1,-11 -2,-17 -1,-16 -3,-31 -5,-47 -2,-16 -4,-32 -7,-49 0,0 0,0 0,-1 0,0 0,0 0,0 -3,-16 -5,-32 -8,-48 -4,-17 -7,-34 -11,-52 -1,-5 -2,-9 -3,-14 -1,-4 -2,-8 -3,-12 -2,-9 -4,-18 -6,-27 -5,-19 -10,-38 -16,-57 -2,-7 -4,-14 -6,-22 -2,-5 -3,-10 -5,-15 -2,-7 -4,-15 -7,-23 -7,-21 -14,-43 -21,-64 -2,-5 -5,-11 -6,-16 -3,-7 -6,-15 -9,-22 -4,-12 -9,-24 -13,-36 -7,-17 -15,-34 -22,-51 -3,-9 -7,-17 -10,-25 -2,-4 -3,-7 -5,-11 -9,-20 -19,-40 -29,-60 -7,-15 -14,-30 -21,-44 -1,-2 -2,-4 -3,-6 -1,-3 -3,-6 -5,-9 -36,-69 -74,-136 -116,-201 -1,-1 -1,-1 -2,-2 -42,-65 -88,-126 -135,-185 -3,-4 -5,-8 -8,-11 -2,-2 -4,-4 -5,-6 -11,-14 -23,-27 -35,-40 -13,-15 -26,-31 -39,-46 -3,-3 -6,-6 -9,-9 -6,-6 -12,-12 -18,-19 -12,-12 -23,-24 -35,-35 -10,-11 -21,-21 -32,-32 -5,-4 -9,-8 -13,-12 -3,-2 -5,-5 -8,-8 -17,-15 -33,-29 -50,-44 -8,-6 -16,-13 -24,-19 -3,-3 -6,-6 -10,-8 -4,-3 -7,-7 -11,-10 -15,-11 -29,-22 -44,-33 -11,-8 -21,-15 -32,-23 -2,-1 -4,-3 -6,-4 -1,-1 -3,-2 -4,-3 -14,-10 -28,-19 -41,-28 -14,-8 -27,-16 -41,-24 -3,-2 -6,-4 -10,-6 -10,-6 -20,-12 -30,-17 -13,-7 -26,-14 -39,-20 -9,-5 -17,-8 -26,-12 -2,-1 -4,-2 -6,-3 -2,-1 -5,-3 -7,-4 -13,-6 -26,-11 -39,-16 -13,-5 -25,-10 -38,-15 -3,0 -5,-1 -7,-2 -2,0 -4,-1 -6,-2 -8,-3 -17,-6 -26,-8 -13,-4 -26,-8 -39,-11 -7,-2 -13,-3 -19,-4 -3,-1 -6,-1 -8,-2 -4,-1 -9,-2 -13,-3 -14,-3 -28,-5 -42,-7 -8,-1 -17,-2 -25,-2 -3,-1 -6,-1 -9,-1 -3,0 -6,-1 -8,-1 -16,-1 -31,-2 -45,-2 -7,1 -13,1 -20,1 -5,1 -10,1 -15,1 -5,0 -10,0 -15,1 -19,1 -37,4 -55,8 -1,0 -1,0 -1,0 -4,1 -8,2 -12,3 -19,5 -37,9 -54,15 -2,1 -3,2 -4,2 -26,9 -50,21 -74,34 0,0 0,0 0,0l0 0 -176 102z"/>
     <path class="fil8" d="M22486 17788c4,2 8,5 12,8 64,45 128,93 190,143 8,6 15,13 23,19 60,49 119,101 177,155 10,9 19,18 28,27 50,47 98,96 146,146 13,13 27,27 40,41 36,39 71,79 105,119 26,29 51,58 76,87 37,45 72,92 108,139 19,25 40,50 59,76 44,60 86,122 128,185 9,13 19,26 28,40 50,76 98,154 144,234 13,23 25,47 38,71 32,56 63,113 93,170 16,32 30,65 46,97 25,51 50,102 72,154 9,18 16,36 23,55 27,63 53,126 77,190 6,16 12,32 18,47 27,75 53,150 76,226 3,11 6,22 10,33 22,77 43,154 61,231 2,8 4,16 6,24 19,83 35,166 48,248 0,1 1,2 1,3 13,82 23,164 30,246 0,6 1,13 1,20 6,81 10,162 10,241 0,80 -4,156 -11,230 -1,6 -1,13 -2,20 -7,67 -16,132 -29,195 -1,8 -3,16 -5,24 -12,61 -27,119 -45,174 -3,11 -6,21 -10,31 -17,52 -36,102 -58,149 -2,5 -4,11 -7,16 -25,54 -53,105 -84,153 -4,6 -8,11 -12,17 -2,3 -4,5 -6,8 -1,0 -2,0 -4,0 -21,2 -43,3 -66,3 -12,1 -24,1 -37,1 -18,0 -35,-1 -53,-2 -15,0 -29,-1 -44,-2 -15,-1 -30,-3 -45,-5 -16,-1 -33,-3 -49,-6 -14,-2 -29,-4 -43,-7 -18,-3 -35,-6 -53,-10 -13,-2 -25,-5 -37,-8 -19,-4 -39,-9 -58,-14 -12,-3 -25,-7 -37,-10 -21,-6 -42,-13 -64,-20 -10,-4 -20,-7 -30,-10 -31,-11 -63,-23 -95,-35 0,0 -1,-1 -1,-1 -31,-12 -63,-26 -95,-41 -10,-4 -20,-9 -30,-14 -23,-11 -46,-22 -69,-33 -11,-6 -23,-12 -34,-18 -30,-16 -61,-32 -91,-50 -71,-41 -141,-86 -210,-133 -4,-3 -8,-6 -12,-9 -64,-45 -128,-93 -190,-143 -8,-6 -15,-12 -22,-18 -61,-50 -120,-102 -178,-156 -10,-8 -19,-18 -28,-26 -50,-47 -98,-96 -146,-146 -13,-14 -27,-28 -40,-42 -36,-38 -70,-79 -105,-119 -25,-29 -51,-58 -76,-88 -37,-44 -72,-90 -107,-136 -20,-26 -41,-51 -60,-78 -43,-58 -83,-117 -123,-177 -11,-16 -23,-32 -33,-48 -50,-76 -98,-154 -144,-234 -13,-22 -25,-45 -37,-68 -32,-57 -64,-115 -94,-173 -16,-32 -31,-64 -46,-96 -25,-52 -50,-103 -73,-155 -8,-18 -15,-36 -23,-54 -27,-63 -53,-127 -77,-191 -6,-16 -12,-31 -18,-47 -27,-75 -52,-150 -75,-225 -3,-11 -7,-22 -10,-33 -23,-78 -43,-155 -62,-232 -2,-8 -3,-16 -5,-24 -19,-83 -36,-165 -49,-247 0,-1 0,-2 0,-3 -13,-83 -23,-165 -30,-246 -1,-7 -1,-13 -2,-20 -6,-81 -9,-162 -9,-242 0,-79 4,-156 11,-229 0,-7 1,-13 2,-20 6,-67 16,-132 28,-195 2,-8 3,-17 5,-25 13,-60 28,-118 45,-174 3,-10 7,-20 10,-30 18,-52 37,-102 59,-150 2,-5 4,-11 6,-16 26,-54 54,-104 84,-152 4,-6 9,-12 13,-18 2,-3 4,-5 6,-8 1,0 3,0 4,0 22,-2 44,-3 66,-3 12,0 25,-1 37,-1 18,0 36,1 54,2 14,1 28,1 43,2 15,2 30,3 45,5 16,2 33,4 50,6 14,2 28,4 42,7 18,3 35,6 54,10 12,2 24,5 36,8 19,5 39,9 58,14 13,4 25,7 37,11 21,6 43,12 64,19 10,4 20,7 30,10 31,11 63,23 94,35 1,0 1,0 1,1 32,12 64,26 96,41 10,4 20,9 30,14 23,11 46,22 69,34 11,5 23,11 34,17 30,16 61,33 92,50 70,41 140,86 209,134zm-292 -879c-18,0 -36,-1 -53,-1 -5,0 -10,-1 -15,-1 -8,0 -15,1 -23,1 -22,1 -44,2 -66,3 -6,1 -13,1 -19,1 -5,1 -10,2 -15,2 -33,4 -66,8 -98,15 -2,0 -5,0 -8,1 0,0 -1,0 -1,0 -46,9 -90,22 -133,37 -4,1 -8,2 -12,3 -3,1 -6,3 -9,4 -19,7 -37,14 -56,22 -8,4 -17,8 -26,12 -27,12 -53,26 -78,40l0 0 0 0 0 0 -162 94c-27,16 -54,32 -81,47l-198 116c-31,17 -61,35 -92,53l-167 97 0 0 -93 54c-42,25 -82,53 -121,84 -11,9 -22,19 -34,29 -27,24 -53,49 -78,76 -11,12 -22,23 -32,35 -29,34 -56,70 -81,107 -4,7 -9,12 -13,19 -1,1 -2,2 -3,4 -29,45 -55,92 -79,143 -1,1 -1,3 -2,5 -3,5 -5,11 -7,16 -14,32 -29,64 -41,98 -6,16 -12,34 -17,51 -4,10 -7,21 -11,31 -2,9 -6,18 -9,28 -10,34 -19,70 -27,106 -3,13 -6,27 -8,40 -2,8 -4,16 -5,25 -3,12 -6,25 -8,38 -6,32 -11,65 -15,100 -2,18 -4,37 -6,57 0,6 -1,13 -2,19 -1,8 -2,16 -2,24 -3,32 -5,65 -6,99 -2,33 -3,67 -3,101 0,2 0,4 0,6 0,31 1,62 1,94 1,34 3,67 5,101 1,15 3,31 4,46 0,7 1,14 1,20 1,12 2,24 3,36 4,34 7,68 12,102 4,36 9,71 15,106 0,1 0,2 0,2 0,1 0,2 1,3 5,34 11,68 17,102 7,38 15,76 24,113 2,11 5,22 7,33 2,8 4,16 6,24 4,19 9,39 14,59 10,41 21,82 33,124 4,16 10,32 14,48 4,11 7,22 10,33 6,17 10,33 16,50 14,47 30,93 46,140 5,12 10,24 14,36 6,15 12,31 18,47 10,26 19,52 29,79 15,37 32,75 48,112 7,18 15,36 22,54 4,7 6,14 10,22 20,45 42,89 64,133 15,32 29,64 45,95 2,4 4,8 6,12 28,55 58,109 89,163 12,22 24,45 36,67 46,79 94,157 144,234 11,15 22,30 32,46 41,60 81,121 124,179 20,26 40,51 60,77 32,41 62,83 95,123 4,5 8,9 12,14 25,30 51,58 76,88 29,32 56,66 86,98 6,7 13,14 19,21 14,14 27,27 40,41 25,26 49,52 74,77 24,24 48,46 73,69 9,9 18,18 27,27 6,5 11,11 17,16 36,33 72,65 109,96 17,15 35,29 52,43 8,6 15,12 22,18 9,7 17,14 25,21 32,25 63,49 95,73 24,17 47,33 71,50 4,2 8,5 12,8 3,3 6,5 10,8 30,20 59,40 90,59 29,19 59,37 88,54 7,4 14,8 21,12 22,13 44,26 66,38 9,4 17,8 26,12 11,6 22,13 34,18 9,5 17,10 26,14 14,7 28,13 42,20 10,4 20,9 30,14 4,2 9,4 13,6 28,12 55,24 83,35 0,0 0,0 1,0l0 0c28,12 56,22 84,32 4,1 7,2 11,4 10,3 20,6 30,9 14,5 28,10 43,14 7,3 14,4 20,6 13,4 25,7 37,10 10,3 20,6 29,8 10,3 20,5 29,7 13,3 25,5 37,8 7,1 13,3 20,4 11,3 22,4 34,6 14,2 28,5 42,7 5,1 10,2 15,2 12,2 23,3 35,4 15,2 30,3 45,5 4,0 9,0 13,1 10,1 20,0 30,1 18,1 36,1 53,2 5,0 10,0 15,0 8,0 15,-1 23,-1 22,0 44,-1 66,-3 6,-1 13,0 20,-1 5,-1 9,-2 14,-2 33,-4 66,-8 98,-14 3,-1 5,-1 8,-2 1,0 1,0 1,0 46,-9 90,-22 133,-36 4,-2 8,-2 12,-4 3,-1 6,-2 9,-3 19,-7 37,-15 55,-23 9,-4 18,-7 27,-11 27,-13 53,-26 78,-41l0 0 0 0 314 -182 479 -278 0 0 0 0c42,-25 82,-54 121,-85 11,-9 22,-19 33,-29 28,-24 54,-49 79,-76 11,-11 21,-23 32,-35 29,-34 56,-69 81,-107 4,-6 9,-12 13,-18 1,-1 2,-3 3,-4 28,-45 55,-92 78,-143 1,-2 2,-4 3,-5 2,-6 4,-11 7,-17 14,-31 28,-63 41,-97 6,-17 11,-34 17,-52 3,-10 7,-20 10,-30 3,-10 6,-18 9,-28 10,-34 20,-70 28,-107 3,-12 5,-26 8,-39 2,-8 3,-17 5,-25 2,-13 5,-25 8,-38 5,-32 10,-66 14,-100 3,-18 4,-38 6,-57 1,-7 2,-13 2,-20 1,-8 2,-15 3,-23 3,-33 5,-66 6,-99 1,-33 2,-67 2,-101 0,-2 0,-4 0,-6 0,-32 0,-63 -1,-94 -1,-34 -3,-68 -5,-102 -1,-15 -2,-30 -3,-46 -1,-6 -1,-13 -2,-20 -1,-12 -2,-24 -3,-36 -3,-34 -7,-68 -11,-102 -5,-35 -10,-71 -15,-106 -1,-1 -1,-1 -1,-2 0,-1 0,-2 0,-2 -6,-35 -11,-69 -18,-103 -7,-38 -15,-76 -23,-113 -2,-11 -5,-22 -7,-32 -2,-8 -4,-16 -6,-24 -5,-20 -9,-40 -14,-60 -11,-41 -22,-83 -33,-124 -5,-16 -10,-32 -15,-48 -3,-11 -7,-22 -10,-33 -5,-17 -10,-34 -15,-51 -15,-46 -31,-93 -47,-139 -4,-12 -9,-23 -13,-35 -6,-16 -12,-32 -18,-48 -10,-26 -20,-53 -30,-79 -15,-37 -31,-74 -47,-111 -8,-18 -15,-37 -23,-55 -3,-7 -6,-15 -10,-22 -19,-45 -41,-88 -63,-132 -15,-32 -30,-64 -46,-96 -2,-4 -4,-9 -6,-13 -27,-53 -57,-106 -86,-158 -13,-24 -25,-48 -39,-71 -46,-79 -94,-157 -144,-234 -9,-14 -18,-27 -27,-40 -42,-63 -85,-125 -129,-185 -19,-26 -39,-51 -59,-77 -32,-41 -63,-83 -96,-124 -3,-4 -8,-8 -12,-13 -24,-30 -50,-58 -75,-87 -29,-33 -57,-68 -86,-100 -6,-6 -13,-13 -19,-20 -13,-14 -27,-27 -40,-41 -25,-26 -49,-52 -75,-77 -23,-24 -47,-46 -71,-69 -10,-9 -19,-18 -28,-26 -6,-6 -12,-12 -18,-17 -35,-33 -72,-65 -108,-96 -17,-15 -35,-29 -52,-43 -7,-6 -15,-12 -22,-18 -9,-7 -17,-14 -25,-21 -32,-25 -63,-49 -96,-73 -23,-17 -46,-33 -69,-49 -4,-3 -8,-6 -12,-9 -4,-2 -7,-5 -11,-8 -30,-20 -59,-40 -89,-59 -30,-18 -59,-37 -89,-54 -7,-4 -14,-8 -21,-12 -22,-13 -44,-25 -66,-37 -9,-5 -17,-9 -25,-13 -12,-6 -23,-12 -34,-18 -9,-4 -18,-9 -27,-14 -14,-7 -28,-13 -42,-19 -10,-5 -20,-10 -30,-15 -4,-2 -8,-4 -13,-6 -28,-12 -55,-24 -83,-35 0,0 -1,0 -1,0 -28,-12 -56,-22 -83,-32 -4,-1 -8,-2 -11,-3 -10,-4 -20,-7 -31,-10 -14,-5 -28,-10 -42,-14 -7,-2 -14,-4 -21,-6 -13,-4 -25,-7 -37,-10 -10,-3 -19,-6 -29,-8 -9,-2 -19,-4 -29,-7 -12,-2 -25,-5 -37,-8 -6,-1 -13,-3 -19,-4 -12,-2 -23,-4 -35,-6 -14,-2 -28,-5 -42,-7 -5,0 -10,-1 -15,-2 -11,-2 -23,-2 -34,-4 -16,-1 -31,-3 -46,-4 -4,-1 -9,-1 -13,-2 -10,0 -20,0 -30,-1z"/>
     <path class="fil9" d="M22437 16410c4,2 8,5 12,7 52,33 103,67 154,102 18,13 35,25 53,38 34,24 67,48 100,73 23,16 45,34 67,51 29,22 59,45 87,68 25,20 50,41 75,61 26,22 53,44 79,67 31,27 63,55 94,83 22,20 45,40 67,61 45,42 90,85 134,128 12,11 23,22 34,33 63,62 124,127 185,192 13,15 26,29 39,43 81,90 161,181 239,276 10,12 20,24 29,37 78,95 154,193 227,293 7,9 13,18 20,27 76,105 149,211 220,319 2,4 4,7 6,10 71,109 140,221 206,334 3,6 7,12 10,18 64,110 125,223 184,336 6,12 12,24 18,35 57,111 110,223 161,336 8,16 15,33 23,49 38,86 74,172 108,258 9,20 16,41 24,61 22,57 44,113 64,170 11,30 21,60 31,90 14,38 27,77 40,116 10,33 21,65 31,98 11,34 21,69 31,103 10,35 20,70 30,104 8,31 16,62 24,92 10,38 19,75 28,112 6,26 13,53 19,78 9,41 17,82 26,122 4,23 9,47 14,70 11,56 21,112 30,168 1,6 2,12 3,18 10,61 18,123 26,185 2,17 4,35 6,52 5,44 9,88 13,132 2,21 3,42 5,63 3,41 5,83 7,124 1,20 2,39 3,59 2,59 4,117 4,175 -1,61 -2,120 -5,179 -1,16 -2,33 -3,49 -2,40 -5,80 -9,119 -2,23 -4,45 -7,68 -3,33 -7,66 -11,98 -4,24 -7,48 -11,71 -5,30 -10,60 -15,89 -5,26 -10,52 -16,77 -5,27 -11,53 -18,79 -7,30 -15,59 -23,88 -6,23 -13,46 -20,69 -10,35 -22,69 -34,103 -6,18 -13,37 -19,55 -22,57 -45,112 -70,165 -39,82 -82,160 -128,233 -34,51 -69,100 -106,147 -9,11 -18,22 -27,33 -22,27 -46,51 -70,76 -8,2 -16,4 -24,6 -10,2 -19,5 -29,7 -6,1 -11,2 -17,3 -50,10 -101,17 -152,22 -18,2 -36,3 -54,5 -33,2 -67,4 -102,5 -20,0 -39,1 -59,1 -27,-1 -55,-2 -82,-3 -23,-1 -45,-2 -68,-4 -23,-2 -47,-5 -70,-7 -26,-3 -52,-6 -78,-9 -21,-3 -44,-7 -65,-11 -28,-5 -56,-10 -84,-16 -19,-4 -38,-8 -58,-13 -29,-6 -60,-14 -90,-22 -19,-5 -38,-10 -57,-16 -33,-9 -67,-20 -100,-31 -15,-5 -31,-10 -46,-15 -50,-17 -99,-35 -149,-55 0,0 0,0 0,0 -50,-20 -100,-42 -150,-64 -15,-7 -31,-15 -47,-23 -35,-16 -71,-34 -106,-52 -18,-9 -36,-18 -54,-27 -47,-25 -94,-51 -142,-79 -53,-30 -105,-62 -157,-95 -4,-2 -8,-4 -12,-7 -52,-33 -103,-67 -154,-102 -17,-12 -35,-25 -53,-38 -33,-24 -67,-48 -100,-73 -23,-16 -45,-34 -67,-51 -29,-22 -58,-45 -87,-68 -25,-20 -50,-41 -75,-61 -26,-22 -53,-44 -79,-67 -31,-27 -63,-55 -94,-83 -22,-20 -45,-40 -67,-61 -45,-42 -91,-85 -135,-129 -11,-11 -22,-21 -33,-32 -63,-62 -124,-127 -185,-192 -13,-15 -26,-29 -39,-43 -82,-90 -162,-182 -239,-276 -10,-12 -20,-25 -30,-37 -77,-95 -153,-193 -226,-293 -7,-9 -13,-18 -20,-27 -76,-105 -149,-211 -220,-319 -2,-4 -4,-7 -6,-10 -72,-110 -140,-221 -206,-334 -3,-6 -7,-12 -10,-17 -65,-111 -126,-224 -184,-337 -6,-12 -12,-23 -18,-35 -57,-111 -110,-223 -161,-335 -8,-17 -15,-33 -23,-50 -37,-85 -74,-171 -108,-257 -9,-21 -16,-42 -24,-62 -22,-57 -43,-113 -64,-170 -11,-29 -21,-59 -31,-89 -14,-38 -27,-77 -39,-116 -11,-33 -22,-66 -32,-98 -10,-35 -21,-69 -31,-103 -10,-35 -20,-70 -29,-105 -9,-30 -17,-61 -25,-91 -10,-38 -19,-75 -28,-113 -6,-26 -12,-52 -18,-78 -10,-40 -18,-81 -26,-121 -5,-24 -10,-47 -15,-70 -10,-56 -20,-112 -29,-168 -1,-6 -3,-12 -4,-18 -9,-62 -18,-123 -25,-185 -3,-17 -4,-35 -6,-52 -5,-44 -10,-88 -14,-132 -1,-21 -3,-42 -5,-63 -3,-41 -5,-83 -7,-124 -1,-20 -2,-39 -3,-59 -2,-59 -3,-117 -3,-175 0,-61 2,-120 4,-179 1,-16 2,-32 3,-49 3,-40 5,-80 9,-120 2,-22 4,-44 7,-67 3,-33 7,-66 12,-98 3,-24 6,-48 10,-71 5,-30 10,-60 16,-89 4,-26 10,-52 15,-78 6,-26 12,-52 18,-77 7,-31 15,-60 23,-90 6,-23 13,-46 20,-68 11,-35 22,-69 34,-103 7,-18 13,-37 20,-55 21,-57 44,-112 69,-165 20,-42 40,-82 61,-121 1,0 1,-1 2,-2 21,-38 43,-74 66,-110 33,-52 69,-101 106,-147 8,-12 18,-23 27,-34 22,-26 46,-51 69,-76 8,-2 16,-4 24,-6 10,-2 20,-5 30,-7 5,-1 11,-2 16,-3 50,-9 101,-16 153,-22 18,-2 35,-3 53,-5 34,-2 68,-4 103,-4 19,-1 39,-1 58,-1 27,0 55,1 83,3 23,1 45,1 68,3 23,2 46,5 70,7 26,3 51,6 77,10 22,3 44,7 66,11 28,4 56,9 84,15 19,4 38,8 57,13 30,7 60,14 90,22 19,5 38,11 58,16 32,10 66,20 99,31 16,5 31,10 47,15 49,17 98,35 148,55 0,0 0,0 0,0 50,20 100,42 150,65 16,7 31,14 47,22 35,16 71,34 107,52 17,9 35,18 53,27 47,25 95,51 142,79 53,30 105,62 157,95zm4949 5489c0,-12 -1,-25 -2,-37 -1,-27 -2,-53 -3,-79 -2,-31 -3,-62 -5,-93 -1,-24 -4,-48 -5,-72 -3,-28 -5,-56 -7,-84 -2,-18 -3,-37 -4,-55 -4,-40 -9,-80 -14,-119 -2,-24 -5,-47 -7,-70 -1,-8 -2,-16 -3,-24 -9,-72 -20,-146 -31,-219 -1,-1 -1,-2 -1,-3 -1,-8 -3,-15 -4,-23 -10,-65 -21,-130 -34,-195 -2,-10 -4,-19 -6,-29 -6,-31 -12,-62 -19,-92 -7,-38 -14,-76 -23,-113 -3,-17 -7,-33 -11,-49 -8,-35 -16,-69 -25,-104 -6,-29 -13,-57 -20,-86 -5,-21 -11,-42 -17,-63 -10,-41 -21,-81 -32,-122 -7,-24 -13,-48 -20,-72 -6,-22 -13,-44 -20,-66 -13,-46 -27,-92 -41,-138 -7,-22 -14,-45 -21,-68 -6,-21 -14,-41 -21,-62 -16,-51 -34,-103 -52,-154 -8,-24 -16,-49 -24,-73 -6,-15 -12,-31 -17,-46 -28,-75 -56,-151 -85,-225 -9,-22 -16,-43 -24,-65 -3,-5 -5,-11 -8,-17 -46,-115 -94,-229 -144,-342 -5,-10 -8,-20 -13,-30 -15,-34 -31,-68 -47,-102 -18,-38 -35,-77 -53,-115 -23,-48 -47,-96 -70,-144 -19,-37 -37,-74 -56,-111 -4,-9 -8,-17 -12,-26 -21,-41 -44,-82 -65,-123 -19,-34 -36,-69 -55,-103 -29,-53 -58,-105 -88,-158 -17,-30 -34,-60 -51,-90 -37,-64 -75,-128 -114,-191 -11,-18 -21,-36 -32,-54 -50,-80 -100,-160 -152,-239 -15,-24 -31,-46 -46,-69 -37,-56 -74,-112 -112,-167 -21,-30 -42,-59 -63,-89 -34,-47 -67,-95 -102,-141 -23,-32 -47,-64 -71,-95 -33,-44 -65,-87 -99,-130 -25,-33 -51,-64 -76,-96 -25,-31 -49,-63 -75,-94 -8,-10 -16,-19 -24,-29 -28,-33 -55,-66 -83,-99 -33,-38 -66,-77 -99,-115 -28,-33 -57,-64 -86,-96 -22,-25 -44,-50 -66,-75 -9,-9 -17,-17 -26,-26 -80,-87 -162,-173 -245,-256 -2,-2 -4,-4 -6,-6 -13,-12 -26,-24 -38,-37 -60,-58 -120,-115 -180,-171 -8,-8 -16,-16 -24,-23 -21,-20 -43,-38 -64,-57 -42,-38 -84,-75 -126,-111 -12,-11 -23,-21 -35,-31 -23,-20 -46,-38 -70,-57 -33,-28 -65,-55 -98,-82 -13,-10 -25,-20 -37,-30 -26,-21 -53,-40 -80,-61 -29,-22 -58,-45 -88,-68 -10,-7 -20,-15 -29,-22 -35,-25 -70,-50 -105,-74 -23,-17 -47,-34 -70,-50 -6,-4 -11,-8 -17,-12 -61,-42 -123,-83 -185,-123 -1,0 -1,0 -2,-1 -6,-4 -12,-7 -18,-11 -55,-34 -109,-68 -164,-100 -14,-9 -28,-17 -43,-25 -46,-27 -91,-52 -137,-77 -17,-9 -35,-18 -52,-27 -24,-12 -47,-25 -71,-37 -18,-9 -36,-19 -54,-28 -29,-14 -58,-27 -87,-41 -21,-10 -42,-20 -63,-29 -8,-4 -17,-9 -26,-12 -57,-26 -115,-51 -172,-74 -1,0 -1,0 -2,0 -58,-24 -116,-45 -173,-66 -8,-2 -15,-4 -23,-7 -21,-7 -42,-14 -63,-21 -29,-9 -58,-19 -87,-28 -15,-5 -29,-8 -44,-12 -26,-8 -51,-15 -76,-21 -20,-6 -40,-12 -59,-17 -21,-5 -41,-8 -61,-13 -26,-6 -51,-12 -76,-17 -14,-3 -27,-6 -41,-9 -24,-5 -47,-8 -70,-12 -30,-5 -59,-10 -88,-14 -10,-2 -21,-4 -31,-5 -24,-3 -48,-5 -72,-7 -31,-4 -62,-8 -93,-10 -9,-1 -18,-2 -28,-3 -21,-1 -41,-1 -62,-2 -37,-2 -73,-3 -110,-3 -10,-1 -21,-2 -31,-2 -16,0 -31,2 -47,3 -46,1 -91,3 -136,6 -13,1 -28,1 -41,2 -19,2 -37,4 -56,7 -14,1 -28,3 -42,5 -51,6 -102,14 -151,24 -2,1 -3,1 -5,1 -14,3 -27,7 -40,10 -41,9 -82,19 -123,30 -19,5 -38,12 -57,18 -26,8 -52,16 -78,24 -6,3 -12,6 -18,8 -39,14 -77,30 -115,47 -18,8 -37,15 -55,23 -55,26 -109,54 -162,84l-792 461c52,-31 106,-58 161,-84 18,-9 37,-16 55,-24 38,-16 76,-32 115,-46 32,-12 64,-22 96,-32 19,-6 38,-13 58,-18 40,-12 81,-21 122,-31 14,-3 27,-6 41,-9 51,-10 103,-19 155,-26 14,-2 29,-3 43,-5 32,-3 64,-6 97,-8 44,-4 90,-6 136,-7 26,0 51,-1 78,-1 36,0 73,2 110,4 29,1 59,2 89,5 31,2 63,6 94,9 34,4 68,7 102,12 29,5 59,10 88,15 37,6 74,13 111,21 25,5 51,11 76,16 40,10 80,20 120,30 25,7 51,14 76,21 44,13 88,27 132,41 21,7 42,14 63,21 65,22 130,46 196,72 0,0 0,1 1,1 0,0 0,0 0,0 66,26 132,55 199,85 20,10 41,20 62,30 47,22 94,45 142,69 23,12 47,24 71,37 62,33 125,67 189,103 69,40 138,82 206,126 6,3 12,7 18,11 69,43 137,89 204,135 24,17 47,34 71,50 44,32 89,64 133,97 30,22 59,45 89,68 39,30 77,60 116,91 33,26 66,54 99,81 35,29 70,58 104,88 43,37 84,74 126,111 29,27 59,53 88,80 61,56 121,114 180,172 15,14 30,28 44,43 83,83 165,168 246,255 31,34 61,67 92,101 28,32 57,64 86,96 33,39 66,77 98,116 28,33 56,65 83,99 14,16 27,33 41,50 -6,-7 -12,-15 -18,-21 -7,-7 -13,-13 -20,-20 -60,-66 -122,-130 -184,-193 -2,-1 -3,-3 -5,-4 -9,-9 -19,-18 -28,-28 -45,-43 -90,-87 -136,-129 -6,-6 -12,-12 -18,-17 -16,-15 -32,-29 -48,-43 -32,-28 -63,-56 -95,-84 -9,-7 -17,-16 -26,-23 -18,-15 -35,-29 -53,-43 -24,-21 -49,-41 -74,-61 -9,-8 -18,-15 -27,-23 -20,-16 -40,-30 -61,-46 -22,-17 -44,-34 -66,-51 -7,-5 -15,-11 -22,-17 -26,-19 -52,-37 -78,-55 -18,-13 -36,-26 -54,-38 -4,-3 -8,-6 -12,-9 -46,-32 -93,-63 -139,-92 -1,-1 -2,-1 -2,-2 -4,-2 -8,-4 -12,-7 -42,-26 -83,-52 -125,-76 -11,-6 -21,-13 -32,-19 -35,-20 -69,-39 -104,-58 -13,-7 -26,-13 -39,-20 -17,-9 -35,-19 -53,-28 -13,-7 -27,-14 -41,-21 -22,-11 -44,-21 -66,-31 -15,-7 -31,-15 -46,-22 -7,-3 -13,-6 -20,-9 -43,-20 -87,-38 -130,-55l0 0c0,0 0,0 0,-1 -44,-17 -88,-34 -132,-49 -5,-2 -11,-3 -16,-5 -16,-6 -32,-10 -47,-16 -23,-7 -45,-15 -67,-21 -11,-4 -22,-6 -33,-10 -19,-5 -38,-10 -57,-15 -15,-4 -30,-9 -44,-13 -16,-3 -31,-6 -47,-10 -19,-4 -38,-9 -57,-12 -10,-2 -20,-5 -30,-7 -18,-4 -36,-6 -53,-9 -22,-4 -44,-8 -66,-11 -8,-1 -16,-3 -23,-4 -19,-2 -37,-3 -55,-5 -23,-3 -47,-6 -70,-7 -7,-1 -14,-2 -20,-2 -16,-2 -32,-1 -47,-2 -28,-1 -56,-3 -83,-3 -8,0 -16,-1 -23,0 -12,0 -24,1 -36,1 -34,1 -68,2 -102,5 -10,1 -21,1 -31,1 -8,1 -15,3 -22,4 -52,5 -103,12 -153,22 -4,1 -9,1 -13,2 -1,0 -2,0 -3,0 -11,3 -20,5 -30,8 -32,7 -63,14 -93,22 -15,4 -29,9 -43,14 -20,6 -39,12 -59,18 -4,2 -9,4 -14,6 -29,11 -57,23 -86,35 -14,6 -28,12 -41,18 -42,19 -83,40 -122,63l0 0 0 0 0 0 0 0 0 0 -332 193 -461 268 0 0 0 0 0 0 0 0c-49,29 -97,61 -143,95 -11,9 -22,17 -33,25 -45,36 -89,73 -131,114 -3,2 -6,6 -9,9 -39,38 -76,80 -112,123 -9,11 -18,22 -27,33 -37,47 -73,96 -106,148 -1,1 -2,2 -3,4 -22,34 -43,70 -63,106 0,1 -1,1 -1,2 -21,37 -40,75 -59,115 -1,1 -1,3 -2,5 -25,53 -48,109 -70,166 -2,4 -4,9 -6,14 -5,13 -9,27 -13,40 -12,34 -24,68 -35,104 -3,9 -6,18 -9,27 -4,13 -7,27 -10,41 -9,29 -16,59 -24,89 -3,12 -6,24 -9,36 -3,14 -5,28 -8,42 -6,25 -11,51 -16,78 -3,13 -6,26 -8,40 -3,16 -5,32 -7,48 -4,24 -8,47 -11,71 -2,12 -4,24 -5,36 -3,21 -5,42 -7,63 -2,22 -5,44 -7,67 -1,9 -2,18 -3,27 -2,30 -4,62 -5,93 -1,16 -2,32 -3,49 -1,4 -1,8 -1,12 -2,51 -3,104 -4,157 0,3 0,7 0,10 0,48 1,97 2,146 0,10 1,19 1,28 1,20 2,40 3,60 1,23 2,46 4,70 1,18 3,36 4,54 1,21 3,42 5,63 1,14 2,28 3,42 3,29 7,59 10,89 2,18 4,35 6,53 1,6 1,11 2,17 7,55 15,110 24,165 0,1 0,2 0,3 1,6 2,12 3,17 8,49 16,98 25,147 2,7 3,14 5,22 4,23 9,46 14,70 6,28 11,56 17,84 3,12 6,25 9,37 6,26 12,52 19,78 5,22 9,43 15,65 4,16 8,31 12,47 8,31 17,62 25,92 5,18 9,36 15,54 4,17 10,34 15,50 10,35 20,69 31,103 5,17 10,35 15,52 5,16 11,31 16,47 13,38 26,77 39,116 6,18 12,36 19,54 4,12 8,23 13,35 20,57 41,113 63,169 7,17 12,33 19,49 1,4 3,9 5,13 35,86 71,172 109,258 3,7 6,14 9,21 4,10 9,19 13,28 51,113 105,225 161,336 2,3 4,7 6,11 4,8 8,15 12,23 59,114 120,226 184,337 3,6 7,11 10,17 66,113 135,225 206,335 2,3 4,6 6,9 71,109 145,215 220,319 7,9 14,19 20,28 74,100 149,197 227,293 6,8 12,16 18,23 4,5 8,9 11,14 78,94 158,186 239,275 7,8 13,16 20,23 6,7 13,13 19,20 61,66 123,130 185,192 2,2 3,3 4,5 10,9 20,18 29,27 45,44 90,88 136,130 6,6 12,12 18,17 16,15 32,29 48,43 32,28 63,56 95,84 9,7 17,16 26,23 17,15 35,29 53,43 24,21 49,42 74,62 9,7 18,15 27,22 20,16 40,30 60,46 23,17 45,34 67,51 8,5 15,11 22,17 26,19 52,37 79,56 17,12 35,25 53,38 4,2 8,5 12,8 46,32 93,63 140,93 0,0 1,0 1,1 5,2 9,5 13,7 41,26 82,52 124,76 11,7 22,13 32,19 35,20 69,39 104,58 13,7 26,13 39,20 18,10 35,19 53,28 14,7 28,14 41,21 22,11 44,21 66,31 15,7 31,15 47,22 6,3 13,6 19,9 44,20 87,38 130,55 0,1 0,1 0,1l0 0c45,17 88,34 132,49 6,2 11,4 17,6 16,5 31,10 47,15 22,7 44,15 66,22 11,3 22,6 33,9 19,5 39,11 58,16 14,4 29,8 44,12 15,4 31,6 46,10 19,5 38,9 57,13 10,2 21,5 31,6 18,4 35,6 53,9 22,4 44,8 66,11 8,1 15,3 23,4 18,2 36,4 54,6 24,2 47,5 70,7 7,0 14,1 21,2 16,1 31,1 47,1 28,2 55,3 83,3 7,0 15,1 23,1 12,0 24,-2 35,-2 35,-1 69,-2 103,-5 10,0 21,0 31,-1 8,-1 15,-3 22,-3 52,-6 103,-13 153,-23 4,0 8,0 13,-1 1,-1 2,-1 3,-1 10,-2 20,-5 30,-7 31,-7 62,-14 92,-23 15,-4 30,-9 44,-14 20,-6 39,-11 58,-18 5,-2 10,-4 14,-6 30,-10 58,-23 86,-35 14,-6 28,-11 42,-17 42,-20 82,-41 122,-64l0 0c0,0 0,0 0,0l792 -460c50,-29 97,-62 143,-96 12,-8 23,-17 34,-25 45,-35 89,-73 131,-113 3,-3 5,-6 8,-9 39,-39 76,-80 112,-123 9,-11 19,-22 27,-34 38,-46 73,-95 106,-147 1,-2 2,-3 3,-4 22,-35 44,-71 64,-108 0,0 0,0 0,0 21,-37 41,-76 59,-115 1,-2 2,-4 2,-6 25,-53 48,-108 70,-165 2,-5 4,-9 6,-14 5,-13 9,-27 14,-41 12,-33 23,-68 34,-103 3,-9 6,-18 9,-27 4,-14 7,-28 11,-41 8,-29 16,-59 23,-89 3,-13 7,-24 9,-37 3,-13 6,-27 9,-41 5,-26 10,-52 15,-78 3,-13 6,-26 8,-40 3,-16 5,-32 8,-48 3,-24 7,-47 10,-71 2,-13 4,-24 5,-36 3,-21 5,-42 7,-63 2,-22 5,-44 7,-67 1,-9 2,-18 3,-27 2,-30 4,-62 5,-92 1,-17 3,-33 4,-50 0,-4 0,-8 0,-12 2,-51 4,-104 4,-157 0,-3 0,-6 0,-10 0,-48 0,-97 -2,-146 0,-10 -1,-19 -1,-28 -1,-20 -2,-40 -3,-60 -1,-23 -2,-46 -3,-70 -1,-18 -3,-36 -5,-54 -1,-21 -3,-42 -5,-63 -1,-14 -2,-28 -3,-42 -3,-29 -6,-59 -10,-89 -2,-18 -4,-35 -6,-53 -1,-6 -1,-12 -2,-17 -7,-55 -15,-110 -23,-166 0,0 -1,-1 -1,-2 -1,-6 -2,-12 -3,-18 -8,-48 -16,-97 -25,-146 -2,-7 -3,-15 -5,-22 -4,-23 -9,-46 -14,-69 -6,-29 -11,-57 -17,-86 -3,-12 -6,-24 -9,-36 -6,-26 -12,-52 -18,-78 -5,-22 -10,-43 -16,-65 -4,-16 -8,-32 -12,-48 -8,-30 -17,-61 -25,-91 -5,-18 -9,-36 -14,-54 -5,-17 -11,-34 -16,-51 -10,-34 -20,-68 -31,-103 -5,-17 -10,-34 -15,-51 -2,-7 -5,-14 -7,-20 26,67 52,134 76,201 14,40 28,80 42,119 18,52 35,103 52,155 14,43 28,87 41,130 15,46 28,91 42,137 13,46 26,92 39,139 11,40 22,81 33,121 13,50 25,100 37,150 8,34 17,69 24,104 13,53 24,107 35,161 6,31 13,62 19,93 14,74 28,149 40,224 1,7 2,15 4,22 13,83 24,165 34,247 3,23 5,46 8,69 6,59 12,117 17,175 3,28 5,56 7,83 4,56 7,111 10,166 1,26 3,52 4,78 3,78 4,156 4,233 0,80 -2,159 -6,237 -1,22 -2,44 -4,66 -3,53 -6,106 -11,158 -3,30 -6,60 -9,90 -5,44 -10,88 -16,131 -4,31 -9,63 -14,94 -6,40 -13,79 -20,117 -7,35 -14,70 -21,104 -8,35 -16,69 -24,103 -10,40 -20,80 -31,119 -8,30 -17,60 -26,90 -14,47 -30,93 -45,138 -9,24 -17,49 -26,72 -29,76 -60,149 -93,220 -26,55 -53,108 -81,160 0,0 0,0 0,0 -29,52 -60,103 -91,152 -6,10 -13,19 -20,29 -24,36 -49,72 -74,106 -10,14 -21,27 -31,41 -24,31 -49,61 -75,91 -9,11 -19,23 -29,34 -35,39 -70,77 -107,113 -6,5 -11,9 -16,14 -33,31 -66,61 -100,89 -12,10 -25,20 -37,30 -29,24 -59,46 -89,67 -12,9 -25,19 -37,27 -42,29 -84,56 -128,82 0,0 0,0 0,0l0 0 0 0 792 -461c44,-25 87,-53 128,-81 13,-9 25,-18 38,-27 30,-22 59,-44 88,-67 13,-10 25,-20 38,-30 34,-29 67,-58 99,-89 5,-5 11,-10 16,-15 37,-36 73,-74 108,-113 10,-11 19,-22 29,-34 25,-29 50,-60 74,-91 11,-13 21,-27 32,-41 25,-34 50,-70 74,-106 6,-10 13,-19 19,-29 2,-3 4,-5 6,-9 59,-92 114,-191 164,-295 1,-3 1,-5 3,-8 33,-70 63,-144 92,-219 3,-7 6,-13 8,-19 7,-18 12,-36 18,-54 16,-45 31,-91 46,-137 3,-13 8,-24 12,-37 5,-17 9,-36 14,-54 11,-39 21,-78 31,-118 4,-17 8,-32 12,-49 4,-18 7,-37 11,-55 8,-34 15,-68 21,-103 3,-18 8,-35 11,-53 3,-21 6,-44 9,-65 5,-31 10,-62 14,-94 3,-16 6,-32 8,-48 3,-27 5,-56 8,-83 3,-30 7,-59 9,-89 1,-13 3,-24 4,-36 4,-40 5,-81 8,-122 1,-23 3,-44 4,-67 0,-5 1,-10 1,-15 3,-69 4,-139 5,-210 0,-4 0,-8 0,-12 0,-65 -1,-130 -3,-195z"/>
     <path class="fil14" d="M22267 21158c529,306 959,60 961,-548 2,-609 -426,-1350 -955,-1655 -530,-306 -961,-61 -962,548 -2,608 426,1349 956,1655zm10 -3504c1154,667 2087,2283 2083,3609 -4,1327 -943,1862 -2097,1195 -1154,-666 -2088,-2282 -2084,-3608 4,-1327 943,-1862 2098,-1196z"/>
     <path class="fil15" d="M22273 18955c529,305 957,1046 955,1655 -1,608 -432,854 -961,548 -530,-306 -958,-1047 -956,-1655 1,-609 432,-854 962,-548z"/>
     <path class="fil12" d="M22259 23798c1799,1038 3262,206 3268,-1861 5,-2067 -1448,-4584 -3247,-5622 -1798,-1039 -3261,-205 -3267,1862 -6,2066 1448,4583 3246,5621zm25 -8713c2389,1380 4320,4724 4312,7470 -7,2745 -1951,3852 -4340,2472 -2390,-1379 -4320,-4723 -4313,-7468 8,-2746 1952,-3853 4341,-2474z"/>
     <path class="fil16" d="M22263 22458c1154,667 2093,132 2097,-1195 4,-1326 -929,-2942 -2083,-3609 -1155,-666 -2094,-131 -2098,1196 -4,1326 930,2942 2084,3608zm17 -6143c1799,1038 3252,3555 3246,5622 -5,2067 -1468,2899 -3267,1861 -1798,-1038 -3252,-3555 -3246,-5621 6,-2067 1469,-2901 3267,-1862z"/>
    </g>
    <g>
     <polygon class="fil17" points="15897,23766 15711,23658 22194,19915 22380,20023 "/>
     <g>
      <polygon class="fil18" points="14769,23772 14583,23664 15711,23658 15897,23766 "/>
      <polygon class="fil17" points="13280,26243 13094,26136 13833,24903 14019,25011 "/>
      <polygon class="fil17" points="13380,25219 13194,25111 13853,24731 14038,24838 "/>
      <polygon class="fil18" points="13380,25379 13195,25272 13194,25111 13380,25219 "/>
      <polygon class="fil17" points="13276,24634 13091,24526 14583,23664 14769,23772 "/>
     </g>
     <polygon class="fil19" points="14769,23772 15897,23766 16136,23628 22380,20023 22380,20183 16136,23788 15897,23926 14680,25435 13280,26243 14019,25011 13380,25379 13380,25219 14039,24838 13276,24634 "/>
    </g>
    <g>
     <path class="fil20" d="M23098 2473l-2 0 -2 0c-26,0 -50,5 -74,14l0 0c-7,2 -14,5 -21,8l0 0c-8,2 -15,4 -22,7l0 0c-7,2 -15,4 -22,7l0 0c-7,2 -14,4 -21,7l0 0c-8,2 -15,5 -22,8l0 0c-7,2 -15,4 -22,7l0 0c-7,2 -14,4 -21,7l0 0c-8,2 -15,4 -22,7l0 0c-7,2 -15,5 -22,7l0 0c-7,2 -14,5 -22,8l0 0c-7,2 -14,4 -21,7l0 0c-8,2 -15,4 -22,7l0 0c-7,2 -14,5 -21,7l0 0c-8,2 -15,5 -22,7l0 0c-8,3 -15,5 -22,8l0 0c-7,2 -14,4 -21,7l0 0c-8,2 -15,4 -22,7l0 0c-8,2 -15,5 -22,7l0 0c-7,3 -14,5 -22,8l0 0c-7,2 -14,4 -21,7l0 0c-8,2 -15,4 -22,7l0 0c-7,2 -15,5 -22,7l0 0c-7,2 -14,5 -21,8l0 0c-8,2 -15,4 -22,7l0 0c-7,2 -15,4 -22,7l0 0c-7,2 -14,4 -21,7l0 0c-8,2 -15,5 -22,7l0 0c-8,3 -15,5 -22,8l0 0c-7,2 -14,4 -21,7l0 0c-8,2 -15,4 -22,7l0 0c-141,39 -238,232 -238,522l0 0 0 5490c0,410 193,856 431,997l0 0 859 509 0 1679 21 -19 0 12 22 -19 0 12 22 -20 0 13 21 -20 0 12 22 -19 0 12 22 -19 0 12 21 -20 0 13 22 -20 0 13 22 -20 0 12 21 -19 0 12 22 -19 0 12 22 -20 0 12 21 -19 0 12 22 -19 0 12 22 -19 0 12 22 -20 0 13 21 -20 0 12 22 -19 0 12 22 -19 0 12 21 -20 0 13 22 -20 0 13 22 -20 0 12 21 -19 0 12 22 -20 0 13 22 -20 0 12 21 -19 0 12 22 -19 0 12 22 -19 0 12 21 -20 0 13 22 -20 0 13 22 -20 0 12 709 -637 3947 2069c79,46 152,53 215,28l0 0c8,-3 15,-5 22,-8l0 0c7,-2 15,-4 22,-7l0 0c432,-173 694,-166 694,-724l0 0 0 -5490c0,-410 -193,-856 -431,-997l0 0 -6037 -3396c-48,-28 -94,-42 -137,-42z"/>
     <path class="fil21" d="M28750 6135l-6187 -3396c-238,-141 -431,77 -431,487l0 5490c0,410 193,856 431,997l858 509 0 1679 1127 -1012 4202 2220c238,141 431,-77 431,-487l0 -5490c0,-410 -193,-856 -431,-997z"/>
     <path class="fil8" d="M24418 7462c0,215 -102,330 -227,256 -125,-75 -226,-309 -226,-525 0,-215 101,-329 226,-255 125,74 227,308 227,524z"/>
     <path class="fil8" d="M25759 8257c0,215 -101,330 -226,256 -125,-75 -227,-309 -227,-525 0,-215 102,-330 227,-255 125,74 226,308 226,524z"/>
     <path class="fil8" d="M27100 9052c0,215 -101,329 -226,255 -125,-74 -227,-308 -227,-524 0,-215 102,-330 227,-256 125,75 226,309 226,525z"/>
    </g>
    <g>
     <path class="fil22" d="M33854 4785l-6037 -3395c-78,-47 -151,-53 -215,-28 -7,2 -14,5 -21,7 -8,2 -15,5 -22,8 -7,2 -14,4 -22,7 -7,2 -14,4 -21,7 -8,2 -15,4 -22,7 -7,2 -15,5 -22,7 -7,2 -14,5 -21,8 -8,2 -15,4 -22,7 -7,2 -15,4 -22,7 -7,2 -14,5 -21,7 -8,2 -15,5 -22,8 -8,2 -15,4 -22,7 -7,2 -14,4 -21,7 -8,2 -15,4 -22,7 -8,2 -15,5 -22,8 -7,2 -14,4 -22,7 -7,2 -14,4 -21,7 -8,2 -15,4 -22,7 -7,2 -14,5 -22,7 -7,2 -14,5 -21,8 -8,2 -15,4 -22,7 -7,2 -15,4 -22,7 -7,2 -14,5 -21,7 -8,2 -15,5 -22,8 -7,2 -15,4 -22,7 -7,2 -14,4 -21,7 -8,2 -15,4 -22,7 -8,2 -15,5 -22,8 -7,1 -14,4 -21,7 -8,2 -15,4 -22,7 -141,39 -238,232 -238,522l0 5489c0,410 193,857 431,998l859 509 0 1679 21 -19 0 12 22 -20 0 13 22 -20 0 12 21 -19 0 12 22 -19 0 12 22 -20 0 13 21 -20 0 12 22 -19 0 12 22 -19 0 12 21 -20 0 13 22 -20 0 13 22 -20 0 12 21 -19 0 12 22 -19 0 12 22 -20 0 13 21 -20 0 12 22 -19 0 12 22 -19 0 12 22 -20 0 13 21 -20 0 12 22 -19 0 12 22 -19 0 12 21 -19 0 12 22 -20 0 13 22 -20 0 12 21 -19 0 12 22 -19 0 12 22 -20 0 13 21 -20 0 12 22 -19 0 12 22 -19 0 12 708 -637 3948 2069c79,46 152,53 215,27 8,-2 15,-4 22,-7 7,-2 15,-4 22,-7 432,-174 694,-166 694,-724l0 -5490c0,-410 -193,-856 -431,-998z"/>
     <path class="fil23" d="M33332 5010l-6187 -3396c-238,-141 -431,77 -431,487l0 5489c0,410 193,857 431,998l858 509 0 1679 1127 -1012 4202 2220c238,141 431,-77 431,-487l0 -5490c0,-410 -193,-856 -431,-997z"/>
     <path class="fil24" d="M29000 6337c0,215 -102,329 -227,255 -125,-74 -226,-308 -226,-524 0,-215 101,-330 226,-256 125,74 227,309 227,525z"/>
     <path class="fil24" d="M30341 7131c0,216 -101,330 -226,256 -126,-74 -227,-309 -227,-524 0,-215 101,-330 227,-256 125,75 226,309 226,524z"/>
     <path class="fil24" d="M31682 7926c0,216 -101,330 -226,256 -125,-74 -227,-309 -227,-524 0,-215 102,-330 227,-256 125,74 226,309 226,524z"/>
    </g>
    <g>
     <polygon class="fil25" points="45869,20388 45861,23183 44341,22305 44349,19510 "/>
     <polygon class="fil26" points="45869,20388 46876,19803 46868,22597 45861,23183 "/>
     <polygon class="fil27" points="44348,19510 45355,18925 46876,19803 45869,20388 "/>
     <polygon class="fil25" points="48208,19055 48193,24529 46672,23651 46688,18177 "/>
     <polygon class="fil26" points="48208,19055 49215,18470 49200,23944 48193,24529 "/>
     <polygon class="fil27" points="46688,18177 47695,17592 49215,18470 48208,19055 "/>
     <polygon class="fil25" points="50543,19120 50524,25875 49003,24996 49022,18242 "/>
     <polygon class="fil26" points="50543,19120 51550,18535 51530,25289 50524,25875 "/>
     <polygon class="fil27" points="49022,18242 50029,17657 51550,18535 50543,19120 "/>
     <polygon class="fil28" points="51360,10231 52881,11109 53887,10524 52367,9646 "/>
     <polygon class="fil25" points="52881,11109 52855,27221 51334,26343 51360,10231 "/>
     <polygon class="fil29" points="52881,11109 52855,27221 53862,26635 53887,10524 "/>
    </g>
    <g>
     <path class="fil6" d="M45972 8485l-4 0 -2 0c-15,0 -30,1 -44,2 -1,0 -2,0 -3,0l0 0c-2,0 -3,1 -5,1l0 0c-14,1 -28,3 -40,6l0 0c-10,2 -19,5 -28,7l0 0c-6,2 -11,3 -16,5l0 0c-4,1 -7,1 -10,2l0 0c-20,7 -39,16 -57,26l0 0 -661 384c21,-12 43,-21 67,-29l0 0c5,-1 11,-2 16,-4l0 0c22,-6 44,-11 68,-13l0 0c2,0 4,-1 6,-1l0 0c28,-3 58,-3 89,-1l0 0c1,0 2,0 4,0l0 0c32,2 65,7 101,14l0 0c1,0 2,0 3,0l0 0c34,7 70,17 107,28l0 0c3,1 6,2 9,3l0 0c36,11 74,25 112,41l0 0c4,1 8,3 11,4l0 0c39,17 80,35 121,55l0 0c2,1 4,2 5,3l0 0c44,22 88,46 134,72l0 0c29,17 55,36 83,53l0 0 -550 320c-20,12 -37,29 -51,50l0 0c-5,7 -9,15 -13,23l0 0c-3,7 -6,15 -9,23l0 0c-3,7 -5,14 -8,22l0 0c0,2 -1,4 -1,6l0 0c0,1 -1,2 -1,3l0 0c-1,5 -3,10 -4,15l0 0c-2,9 -3,17 -5,26l0 0c-2,10 -3,20 -4,30l0 0c-1,7 -2,14 -3,22l0 0c0,1 0,3 0,5l0 0c-1,3 -1,6 -1,9l0 0c-1,14 -2,29 -3,44l0 0c-1,18 -1,37 -1,57l0 0c0,1 0,2 0,3l0 0 -2 588c0,20 0,40 1,59l0 0c1,17 1,33 2,48l0 0c1,5 1,10 2,15l0 0c0,2 0,5 0,7l0 0c0,6 1,12 1,17l0 0c1,11 2,22 4,32l0 0c1,10 2,20 4,29l0 0c1,9 3,18 4,26l0 0c1,3 2,7 2,10l0 0c0,1 1,1 1,2l0 0c1,4 1,8 2,12l0 0c2,7 3,14 5,22l0 0c2,6 4,13 6,20l0 0c1,6 3,12 5,18l0 0c2,6 4,12 6,18l0 0c1,6 3,11 5,16l0 0c1,1 1,3 2,4l0 0c0,0 0,1 0,1l0 0c1,3 2,7 4,10l0 0c2,5 4,10 6,15l0 0c2,5 4,9 6,14l0 0c2,4 4,9 6,14l0 0c2,5 5,9 7,14l0 0c3,7 7,13 10,20l0 0c4,6 7,13 11,19l0 0c0,0 0,0 0,0l0 0c0,0 0,0 0,0l0 0c6,11 13,22 20,32l0 0c7,11 14,21 22,32l0 0c5,7 10,14 16,21l0 0c4,5 9,11 14,17l0 0c0,0 1,1 1,1l0 0c0,1 0,1 0,1l0 0c5,5 9,10 13,15l0 0c6,6 11,12 17,19l0 0c6,6 12,13 19,19l0 0c7,7 14,14 21,21l0 0c8,8 17,16 25,23l0 0c1,1 3,2 4,4l0 0c0,0 1,1 2,1l0 0c8,7 16,14 24,21l0 0c11,9 22,19 34,28l0 0c12,10 26,20 39,30l0 0c9,6 18,13 27,19l0 0c3,2 5,3 8,5l0 0c4,3 9,6 13,10l0 0c18,12 37,25 57,38l0 0c23,14 46,28 71,43l0 0c6,3 12,7 18,10l0 0c18,11 36,21 53,30l0 0c20,11 39,21 58,30l0 0c16,8 31,15 47,22l0 0c0,0 1,1 2,1l0 0c0,0 1,0 1,1l0 0c13,5 25,10 36,15l0 0c12,5 24,9 35,13l0 0c10,4 20,7 29,10l0 0c9,2 18,5 27,7l0 0c0,0 1,0 1,0l0 0c0,0 0,0 0,0l0 0c8,2 16,4 23,6l0 0c8,1 15,2 22,3l0 0c8,1 15,2 21,2l0 0c7,1 14,1 21,1l0 0c4,0 8,0 12,0l0 0c0,-1 1,-1 2,-1l0 0c1,0 3,0 5,0l0 0c8,0 14,-2 21,-3l0 0c8,-2 16,-4 23,-6l0 0c9,-3 17,-7 24,-11l0 0 570 -331 -2 491c0,51 -4,97 -11,139l0 0c0,1 0,1 0,2l0 0c-8,40 -19,77 -33,109l0 0c0,1 -1,3 -2,5l0 0c-12,27 -27,50 -44,71l0 0c-6,7 -11,14 -16,20l0 0c-20,21 -41,40 -66,55l0 0c0,0 0,0 0,0l0 0c0,0 0,0 0,0l0 0 660 -384c25,-15 46,-34 66,-55l0 0c6,-6 11,-13 16,-19l0 0c6,-9 14,-15 19,-24l0 0c8,-12 15,-25 22,-39l0 0c1,-3 2,-6 4,-9l0 0c1,-2 1,-3 2,-5l0 0c2,-6 5,-12 8,-19l0 0c4,-10 7,-21 11,-32l0 0c2,-10 5,-20 8,-31l0 0c2,-9 3,-18 5,-27l0 0c0,-1 0,-1 0,-2l0 0c0,-1 1,-2 1,-3l0 0c2,-10 3,-20 5,-31l0 0c1,-11 2,-22 3,-33l0 0c1,-11 2,-22 2,-34l0 0c1,-12 1,-23 1,-35l0 0 0 -3 3 -1030c0,-10 0,-20 -1,-31l0 0c0,-11 -1,-22 -1,-33l0 0c-1,-11 -2,-22 -3,-33l0 0c-1,-10 -2,-21 -3,-32l0 0c-2,-10 -3,-21 -5,-31l0 0c-2,-11 -3,-22 -5,-32l0 0c0,0 0,0 0,-1l0 0 0 0c-2,-10 -4,-21 -7,-31l0 0c-2,-11 -5,-21 -7,-32l0 0c-3,-10 -6,-21 -9,-32l0 0c-2,-10 -5,-21 -9,-31l0 0c-3,-10 -6,-20 -10,-30l0 0c-3,-10 -6,-21 -10,-31l0 0c-1,-2 -2,-4 -2,-6l0 0c-1,-1 -1,-1 -1,-2l0 0c-3,-7 -5,-14 -8,-21l0 0c-4,-10 -8,-19 -12,-29l0 0c-3,-9 -8,-19 -12,-29l0 0c-4,-10 -9,-20 -14,-31l0 0c-5,-10 -10,-20 -15,-30l0 0c-7,-14 -14,-28 -21,-41l0 0c-2,-3 -3,-6 -5,-8l0 0c0,-2 -1,-3 -2,-4l0 0c-7,-13 -14,-26 -21,-39l0 0c-18,-30 -37,-60 -57,-90l0 0c-12,-18 -24,-35 -37,-52l0 0c-2,-3 -3,-5 -5,-8l0 0c-2,-3 -4,-6 -7,-9l0 0c-11,-15 -23,-30 -34,-46l0 0c-12,-14 -23,-28 -35,-43l0 0c-12,-13 -24,-27 -36,-41l0 0c-11,-13 -22,-25 -33,-37l0 0c-1,-1 -2,-2 -2,-3l0 0c-2,-1 -3,-3 -5,-4l0 0c-13,-15 -28,-30 -43,-45l0 0c-16,-16 -32,-32 -48,-48l0 0c-18,-17 -36,-34 -55,-51l0 0c-7,-6 -14,-12 -20,-18l0 0c-3,-2 -6,-5 -9,-8l0 0c-10,-8 -20,-17 -31,-26l0 0c-21,-18 -42,-35 -64,-53l0 0c-23,-17 -46,-35 -69,-52l0 0c-9,-7 -18,-13 -26,-19l0 0c-4,-3 -9,-6 -13,-9l0 0c-11,-8 -23,-16 -35,-25l0 0c-25,-17 -51,-34 -78,-51l0 0c-27,-18 -55,-35 -84,-51l0 0c-6,-4 -13,-8 -19,-12l0 0c-22,-12 -43,-24 -64,-36l0 0c-24,-13 -47,-24 -70,-36l0 0c-2,-1 -3,-2 -5,-2l0 0c-1,-1 -2,-1 -3,-2l0 0c-24,-12 -48,-23 -72,-34l0 0c-15,-7 -31,-13 -46,-20l0 0c-4,-1 -8,-3 -12,-4l0 0c-2,-1 -5,-3 -8,-4l0 0c-21,-8 -42,-16 -62,-23l0 0c-14,-5 -28,-10 -41,-14l0 0c-3,-1 -6,-2 -9,-3l0 0c-3,0 -5,-1 -7,-2l0 0c-18,-6 -37,-11 -54,-15l0 0c-16,-4 -32,-7 -47,-10l0 0c-1,-1 -2,-1 -3,-1l0 0c0,0 -1,0 -2,-1l0 0c-17,-3 -33,-6 -49,-8l0 0c-16,-2 -32,-4 -48,-5l0 0c0,0 -1,0 -2,0l0 0c-1,0 -2,0 -4,0l0 0c-12,-1 -24,-1 -36,-1zm799 2476c-1,0 -1,-1 -2,-1l0 0c-47,-21 -101,-49 -159,-83l0 0c-59,-34 -112,-67 -160,-101l0 0c-2,-1 -5,-3 -7,-5l0 0c-47,-32 -88,-65 -125,-98l0 0c0,0 -1,-1 -2,-1l0 0c-37,-34 -70,-67 -98,-101l0 0c0,0 0,0 -1,0l0 0c-28,-35 -52,-69 -72,-103l0 0c0,-1 0,-1 0,-1l0 0c-21,-34 -37,-70 -50,-106l0 0c-1,0 -1,0 -1,-1l0 0c-13,-35 -23,-72 -31,-110l0 0c0,0 0,-1 0,-2l0 0c-8,-37 -12,-75 -16,-114l0 0c0,-2 0,-4 0,-6l0 0c-3,-40 -4,-81 -4,-123l0 0 1 -587c0,-41 2,-79 5,-114l0 0c0,-2 1,-4 1,-5l0 0c3,-34 8,-66 16,-93l0 0c0,-1 0,-2 0,-3l0 0c4,-13 10,-22 14,-33l0 0c31,20 63,38 92,59l0 0c4,3 8,6 12,9l0 0c67,48 130,98 190,150l0 0c3,3 6,5 9,8l0 0c61,54 118,109 171,166l0 0c1,1 1,2 2,2l0 0c53,58 101,117 145,177l0 0c2,3 4,5 6,8l0 0c43,59 81,119 114,180l0 0c1,2 2,3 3,5l0 0c34,62 63,126 87,189l0 0c0,1 0,1 0,2l0 0c24,64 42,129 54,193l0 0 0 0c12,65 18,129 18,193l0 0 -1 505c-25,0 -52,-2 -83,-10l0 0 -1 0c-37,-9 -80,-24 -127,-45l0 0z"/>
     <path class="fil6" d="M50360 15166l0 -6 -1 -25 0 0c0,-11 0,-22 -1,-33l0 0c-1,-11 -2,-21 -3,-32l0 0c-1,-11 -2,-21 -3,-32l0 0c-1,-11 -3,-21 -5,-32l0 0c-1,-10 -3,-21 -5,-32l0 0c0,0 0,0 0,0l0 0c0,0 0,0 0,-1l0 0c-2,-10 -4,-20 -7,-30l0 0c-2,-11 -4,-21 -7,-32l0 0c-3,-10 -5,-21 -8,-31l0 0c-3,-11 -6,-21 -9,-32l0 0c-3,-10 -7,-20 -10,-30l0 0c-3,-10 -7,-20 -11,-31l0 0c-1,-2 -1,-4 -2,-6l0 0c0,-1 -1,-2 -1,-2l0 0c-2,-7 -5,-14 -8,-21l0 0c-3,-9 -7,-19 -11,-28l0 0c-4,-10 -8,-20 -13,-29l0 0c-4,-10 -9,-21 -14,-31l0 0c-5,-10 -10,-21 -15,-31l0 0c-7,-14 -14,-28 -21,-41l0 0c-1,-3 -3,-6 -5,-8l0 0c0,-2 -1,-3 -2,-5l0 0c-7,-12 -13,-24 -21,-36l0 0c-17,-31 -37,-62 -57,-92l0 0c-12,-18 -24,-35 -37,-52l0 0c-1,-3 -3,-5 -5,-8l0 0c-2,-3 -4,-6 -6,-9l0 0c-12,-15 -23,-30 -35,-45l0 0c-12,-15 -23,-29 -35,-43l0 0c-12,-14 -23,-28 -36,-42l0 0c-11,-12 -22,-25 -33,-37l0 0c-1,-1 -2,-2 -2,-2l0 0c-2,-2 -3,-3 -4,-5l0 0c-14,-15 -29,-30 -43,-45l0 0c-16,-16 -32,-32 -49,-48l0 0c-18,-17 -36,-34 -55,-51l0 0c-6,-6 -13,-11 -20,-17l0 0c-3,-3 -6,-6 -9,-9l0 0c-10,-8 -20,-17 -30,-26l0 0c-21,-17 -43,-35 -65,-52l0 0c-23,-18 -46,-36 -69,-53l0 0c-9,-6 -18,-12 -26,-18l0 0c-4,-4 -8,-6 -12,-9l0 0c-12,-9 -24,-17 -36,-25l0 0c-25,-18 -51,-35 -78,-52l0 0c-27,-17 -55,-34 -83,-51l0 0c-7,-4 -13,-8 -20,-11l0 0c-22,-13 -43,-25 -64,-37l0 0c-24,-12 -47,-24 -69,-35l0 0c-2,-1 -4,-2 -7,-4l0 0c-1,0 -1,0 -2,-1l0 0c-25,-12 -49,-23 -72,-34l0 0c-16,-7 -31,-13 -46,-19l0 0c-4,-2 -8,-4 -12,-5l0 0c-3,-2 -6,-3 -9,-4l0 0c-21,-8 -41,-16 -61,-23l0 0c-14,-5 -28,-10 -42,-14l0 0c-3,-1 -6,-2 -9,-3l0 0c-2,0 -4,-1 -7,-2l0 0c-18,-6 -36,-11 -54,-15l0 0c-16,-4 -31,-7 -46,-10l0 0c-1,-1 -2,-1 -3,-1l0 0c-1,0 -2,-1 -3,-1l0 0c-16,-3 -33,-6 -49,-8l0 0c-16,-2 -32,-4 -47,-5l0 0c-1,0 -2,0 -2,0l0 0c-2,0 -3,0 -4,0l0 0c-11,-1 -23,-1 -33,-1l-4 0 -8 0c-14,0 -28,1 -42,2l0 0c-1,0 -1,0 -2,0l0 0c-2,0 -4,1 -5,1l0 0c-14,1 -28,3 -41,6l0 0c-10,2 -19,5 -28,7l0 0c-5,2 -11,3 -16,4l0 0c-3,1 -6,2 -9,3l0 0c-21,7 -40,16 -57,26l0 0 -661 384c21,-12 43,-21 67,-29l0 0c5,-1 10,-3 16,-4l0 0c21,-6 44,-11 68,-13l0 0c2,0 3,-1 5,-1l0 0c28,-3 58,-3 90,-1l0 0c1,0 2,0 3,0l0 0c32,2 66,7 101,14l0 0c1,0 3,0 4,0l0 0c34,7 70,17 107,28l0 0c3,1 6,2 8,3l0 0c37,11 74,25 113,41l0 0c4,1 7,3 11,4l0 0c39,17 79,35 121,55l0 0c2,1 4,3 6,4l0 0c44,21 88,45 133,71l0 0c29,17 55,36 83,53l0 0 -550 320c-20,12 -37,29 -51,50l0 0c0,0 0,0 0,0l0 0c-5,7 -9,15 -13,23l0 0c-3,8 -6,15 -9,23l0 0c-3,7 -5,14 -8,22l0 0c0,2 -1,4 -1,6l0 0c0,1 -1,2 -1,2l0 0c-1,6 -3,11 -4,16l0 0c-2,8 -3,17 -5,26l0 0c-2,10 -3,20 -4,30l0 0c-1,7 -2,14 -3,21l0 0c0,2 0,4 0,5l0 0c0,4 -1,6 -1,10l0 0c-1,14 -2,28 -3,43l0 0c0,18 -1,37 -1,57l0 0c0,1 0,2 0,3l0 0 -2 589c0,20 1,40 1,59l0 0c1,16 1,32 2,48l0 0c1,5 1,10 2,15l0 0c0,2 0,4 0,7l0 0c1,5 1,11 1,17l0 0c1,11 3,21 4,32l0 0c1,10 3,19 4,29l0 0c1,9 3,17 4,26l0 0c1,3 2,6 2,9l0 0c1,1 1,2 1,3l0 0c1,4 1,7 2,11l0 0c2,8 3,15 5,22l0 0c2,7 4,14 6,20l0 0c1,7 3,13 5,19l0 0c2,6 4,12 6,18l0 0c1,5 3,11 5,16l0 0c1,1 1,2 2,4l0 0c0,0 0,0 0,1l0 0c1,3 3,7 4,10l0 0c2,5 4,10 6,15l0 0c2,5 4,9 6,14l0 0c2,4 4,9 6,14l0 0c2,5 5,10 7,14l0 0c4,7 7,13 10,20l0 0c4,6 7,12 11,19l0 0c0,0 0,0 0,0l0 0c0,0 0,0 0,0l0 0c7,11 14,22 21,33l0 0c7,10 14,21 21,31l0 0c5,7 11,14 16,21l0 0c5,6 10,12 14,17l0 0c1,1 1,1 1,1l0 0c0,0 0,1 0,1l0 0c5,5 9,10 14,15l0 0c5,7 11,13 17,19l0 0c6,7 12,13 18,19l0 0c7,8 15,15 22,22l0 0c8,8 16,15 25,23l0 0c1,1 2,2 3,3l0 0c1,0 1,1 2,1l0 0c8,7 16,15 25,22l0 0c11,9 22,18 34,28l0 0c12,9 25,19 39,30l0 0c9,6 18,12 27,18l0 0c2,2 4,4 7,5l0 0c5,4 9,7 14,10l0 0c18,13 37,25 57,38l0 0c22,14 46,29 70,43l0 0c6,4 12,7 18,10l0 0c19,11 36,21 53,30l0 0c20,11 39,21 57,30l0 0c16,8 32,15 47,22l0 0c1,0 2,1 3,1l0 0c0,0 1,1 1,1l0 0c13,5 24,10 36,15l0 0c12,5 23,9 34,13l0 0c10,3 20,7 30,9l0 0c9,3 18,6 26,8l0 0c1,0 1,0 2,0l0 0c0,0 0,0 0,0l0 0c8,2 15,4 22,5l0 0c8,2 16,3 23,4l0 0c7,1 14,2 21,2l0 0c7,1 14,1 20,1l0 0c4,0 8,-1 13,-1l0 0c0,0 1,0 1,0l0 0c2,0 4,0 6,0l0 0c7,-1 14,-2 21,-3l0 0c8,-2 16,-4 23,-7l0 0c9,-2 17,-6 24,-11l0 0 570 -331 -2 493c0,50 -4,96 -11,138l0 0c0,1 0,1 0,2l0 0c-8,41 -19,77 -33,109l0 0c0,2 -1,3 -2,5l0 0c-12,27 -27,50 -44,72l0 0c-5,6 -11,13 -16,19l0 0c-20,21 -41,41 -66,55l0 0 660 -384c25,-14 46,-33 66,-55l0 0c6,-6 11,-13 16,-19l0 0c7,-8 14,-15 19,-24l0 0c8,-12 15,-25 22,-39l0 0c1,-3 2,-6 4,-9l0 0c1,-1 1,-3 2,-5l0 0c2,-6 5,-12 8,-18l0 0c4,-11 7,-22 11,-33l0 0c3,-10 5,-20 8,-31l0 0c2,-9 3,-18 5,-27l0 0c0,0 0,-1 0,-1l0 0c1,-1 1,-3 1,-4l0 0c2,-10 3,-20 5,-31l0 0c1,-11 2,-22 3,-33l0 0c1,-11 2,-22 2,-34l0 0c1,-11 1,-23 1,-35l0 0c0,-1 0,-2 0,-2l0 0 3 -1032zm-873 835c-1,0 -1,0 -2,-1l0 0c-48,-21 -100,-48 -159,-82l0 0c-59,-34 -112,-68 -160,-101l0 0c-2,-2 -5,-4 -7,-5l0 0c-46,-33 -88,-66 -125,-99l0 0c0,0 -1,-1 -1,-1l0 0c-38,-34 -71,-67 -99,-101l0 0c0,0 0,0 0,-1l0 0c-29,-34 -53,-68 -73,-103l0 0c0,0 0,0 0,0l0 0c-21,-35 -37,-70 -50,-106l0 0c0,0 -1,-1 -1,-1l0 0c-13,-36 -23,-72 -31,-110l0 0c0,-1 0,-2 0,-2l0 0c-7,-37 -12,-75 -15,-114l0 0c-1,-2 -1,-4 -1,-7l0 0c-3,-39 -4,-80 -4,-122l0 0 2 -588c0,-41 1,-79 5,-113l0 0c0,-2 0,-4 0,-6l0 0c3,-34 8,-65 16,-92l0 0c0,-1 0,-2 1,-3l0 0c3,-13 9,-22 13,-32l0 0c31,19 63,38 92,59l0 0c4,2 8,5 12,8l0 0c67,48 130,98 190,150l0 0c3,3 6,6 9,8l0 0c61,54 118,109 171,166l0 0c1,1 1,2 2,3l0 0c53,57 102,116 145,176l0 0c2,3 4,5 6,8l0 0c43,59 81,119 115,180l0 0c1,2 1,3 2,4l0 0c34,63 63,126 87,190l0 0c0,0 0,1 0,2l0 0c24,64 42,128 54,192l0 0c0,1 0,1 0,1l0 0c12,64 19,128 18,192l0 0 -1 506c-25,0 -52,-2 -83,-10l0 0c-1,0 -1,0 -1,0l0 0c-37,-9 -80,-24 -127,-45l0 0z"/>
     <path class="fil6" d="M49737 11683l0 -2 0 -7 0 -10 0 0c-1,-6 -1,-11 -1,-17l0 0c-1,-6 -1,-12 -2,-18l0 0c0,0 0,0 0,0l0 0c0,-1 0,-1 0,-1l0 0c-1,-7 -1,-14 -2,-20l0 0c-1,-7 -2,-14 -3,-21l0 0c-1,-8 -3,-16 -4,-24l0 0c0,0 0,-1 0,-1l0 0c-2,-8 -4,-16 -5,-24l0 0c-2,-10 -5,-20 -7,-29l0 0c-1,-4 -2,-8 -3,-12l0 0c-1,-2 -1,-4 -2,-7l0 0c-1,-3 -2,-7 -3,-11l0 0c-3,-12 -7,-23 -10,-34l0 0c-2,-5 -3,-10 -5,-15l0 0c-1,-3 -2,-6 -3,-9l0 0c-1,-4 -2,-8 -3,-12l0 0c-5,-13 -9,-25 -14,-38l0 0c-1,-2 -2,-5 -3,-8l0 0c-1,-4 -3,-8 -4,-12l0 0c-3,-7 -5,-14 -8,-20l0 0c-4,-10 -8,-19 -11,-29l0 0c-2,-3 -3,-7 -5,-10l0 0c0,-2 -1,-3 -1,-4l0 0c-7,-15 -13,-31 -19,-45l0 0c-1,-2 -2,-3 -2,-4l0 0c-3,-7 -6,-13 -9,-20l0 0c-4,-8 -8,-16 -11,-24l0 0c-2,-3 -2,-4 -3,-7l0 0c-6,-11 -11,-21 -16,-31l0 0c-2,-5 -4,-10 -6,-14l0 0c-1,-1 -1,-2 -2,-3l0 0c-10,-19 -18,-35 -25,-48l0 0c0,0 -1,-2 -1,-2l0 0c-1,-3 -2,-3 -3,-6l0 0c-6,-11 -10,-20 -12,-22l0 0 -661 383c2,3 7,13 13,23l0 0c1,3 2,5 4,8l0 0c7,13 15,29 25,48l0 0c2,5 5,11 8,17l0 0c5,10 10,20 15,31l0 0c5,11 10,21 15,32l0 0c3,6 5,12 8,18l0 0c8,17 15,35 23,54l0 0c1,3 3,6 4,10l0 0c7,16 13,32 19,49l0 0c2,4 3,8 5,12l0 0c7,19 13,38 20,58l0 0c1,3 2,6 3,9l0 0c6,20 12,40 18,61l0 0c0,2 1,4 1,6l0 0c6,22 11,43 15,65l0 0c0,0 0,0 0,0l0 0 0 0c4,23 8,45 10,67l0 0 0 0c2,21 3,42 2,62l0 0c0,0 0,1 0,1l0 0c-1,20 -3,39 -6,57l0 0c0,1 -1,1 -1,2l0 0c-3,17 -8,34 -15,49l0 0c0,1 -1,2 -1,2l0 0c-5,11 -12,20 -19,30l0 0c-13,18 -28,35 -49,47l0 0 -3326 2124 660 -384 3326 -2124c21,-12 36,-29 50,-47l0 0c1,-2 4,-3 5,-6l0 0c4,-6 8,-13 12,-20l0 0c0,-1 1,-2 1,-3l0 0c1,-1 1,-2 1,-3l0 0c2,-4 4,-8 5,-12l0 0c2,-5 4,-10 6,-16l0 0c1,-4 2,-9 4,-14l0 0c0,-3 0,-5 1,-7l0 0c0,-1 0,-1 0,-2l0 0c1,-2 1,-4 2,-7l0 0c0,-5 1,-10 2,-15l0 0c0,-5 1,-10 2,-15l0 0c0,-5 0,-10 0,-15l0 0c1,-1 1,-3 1,-4l0 0c0,-1 0,-1 0,-2l0 0 0 -8z"/>
     <path class="fil30" d="M49234 16085l2 -589c1,-331 -104,-605 -566,-872 -483,-279 -569,-115 -570,216l-2 589c-1,348 84,593 567,872 462,267 568,131 569,-216zm-563 -1955c624,360 1030,910 1028,1420l-3 1032c-1,527 -409,573 -1032,213 -625,-360 -1030,-875 -1028,-1403l3 -1031c1,-511 408,-591 1032,-231z"/>
     <path class="fil30" d="M45382 10389c-1,349 84,593 567,872 462,267 568,133 569,-217l2 -587c1,-333 -104,-607 -566,-873 -484,-279 -569,-115 -570,217l-2 588zm1598 1152c-1,528 -409,574 -1032,214 -624,-360 -1030,-875 -1028,-1404l3 -1029c1,-512 409,-592 1032,-232 624,360 1030,910 1028,1421l-3 1030z"/>
     <path class="fil30" d="M48868 11445c19,34 370,666 117,818l-3326 2124c-19,-34 -370,-666 -117,-818l3326 -2124z"/>
    </g>
    <g>
     <path class="fil31" d="M45117 42338c87,50 97,126 23,169l-2485 1444c-74,44 -206,38 -293,-12l-47 -27c-87,-50 -96,-127 -22,-170l2485 -1444c74,-43 205,-37 292,13l47 27z"/>
     <path class="fil32" d="M45192 39787l-4955 2879c-663,385 -660,1016 8,1402l0 0 887 511c667,385 1756,385 2418,0l0 0 2789 -1620 1159 1113 639 -2158 368 -214c663,-385 660,-1016 -7,-1401l0 0 -887 -512c-334,-193 -773,-289 -1212,-289l0 0c-438,0 -876,96 -1207,289zm-3787 3599c-100,-57 -110,-145 -25,-194l0 0 4724 -2745c85,-49 236,-43 335,14l0 0c99,57 111,145 26,195l0 0 -4724 2745c-38,22 -90,33 -145,33l0 0c-67,0 -137,-16 -191,-48zm957 553l-47 -27c-87,-50 -96,-127 -22,-170l0 0 2485 -1444c74,-43 205,-37 292,13l0 0 47 27c87,50 97,126 23,169l0 0 -2485 1444c-33,20 -79,30 -127,30l0 0c-58,0 -119,-14 -166,-42l0 0z"/>
     <path class="fil31" d="M46439 40461c99,57 111,145 26,195l-4724 2745c-85,49 -237,43 -336,-14 -100,-58 -110,-146 -25,-195l4724 -2745c85,-49 236,-43 335,14z"/>
     <path class="fil33" d="M48996 41054c-2,18 -3,36 -6,55l0 0c-3,14 -7,29 -11,43l0 0c-5,18 -9,35 -15,52l0 0c-5,14 -11,28 -17,42l0 0c-8,18 -16,36 -25,53l0 0c-7,13 -16,26 -24,39l0 0c-12,20 -25,39 -39,59l0 0c-9,12 -19,23 -28,35l0 0c-22,26 -47,52 -73,78l0 0c-9,9 -18,18 -27,27l0 0c-16,14 -34,28 -52,42l0 0c-16,13 -31,26 -48,39l0 0c-19,13 -40,26 -60,40l0 0c-22,14 -42,28 -66,42l0 0 -368 214 -639 2158 -1159 -1113 -2789 1620c-50,30 -104,56 -159,81l0 0c-17,7 -33,14 -50,21l0 0c-42,18 -87,35 -132,50l0 0c-17,6 -33,12 -50,17l0 0c-29,9 -58,17 -88,25l0 0c-22,7 -45,13 -68,19l0 0c-30,7 -62,13 -93,19l0 0c-22,5 -43,10 -65,14l0 0c-65,11 -130,20 -196,27l0 0c-19,2 -39,3 -59,5l0 0c-39,3 -79,6 -118,8l0 0c-25,1 -49,1 -74,2l0 0c-31,0 -63,1 -95,0l0 0c-26,0 -52,-1 -78,-2l0 0c-29,-1 -58,-3 -88,-5l0 0c-26,-1 -52,-4 -78,-6l0 0c-29,-3 -58,-6 -87,-10l0 0c-25,-3 -51,-7 -76,-11l0 0c-30,-4 -61,-10 -91,-16l0 0c-24,-4 -48,-9 -71,-14l0 0c-36,-8 -72,-17 -107,-26l0 0c-19,-5 -39,-10 -58,-15l0 0c-63,-19 -124,-39 -183,-62l0 0c-29,-12 -57,-24 -85,-36l0 0c-15,-7 -30,-13 -44,-20l0 0c-43,-20 -85,-42 -125,-65l0 0 -887 -511c-336,-195 -504,-451 -503,-707l0 0 -2 814c-1,256 167,512 503,706l0 0 887 512c40,23 81,44 124,65l0 0c15,7 29,12 44,19l0 0c25,11 50,23 76,33l0 0c3,1 7,2 10,3l0 0c59,23 120,44 183,62l0 0c4,1 9,3 14,5l0 0c14,4 29,7 44,11l0 0c35,9 71,18 107,26l0 0c9,2 18,4 27,6l0 0c14,3 29,5 44,8l0 0c30,6 60,11 91,16l0 0c12,2 23,4 35,6l0 0c14,2 27,3 41,4l0 0c29,4 58,7 87,10l0 0c13,1 26,4 39,5l0 0c13,1 26,1 39,2l0 0c29,2 59,3 88,4l0 0c14,1 29,2 43,3l0 0c6,0 13,0 19,0l0 0c5,0 11,0 16,0l0 0c32,0 63,0 95,-1l0 0c7,0 14,0 20,0l0 0c9,0 18,0 27,0l0 0c9,0 18,-2 27,-2l0 0c39,-2 78,-5 118,-8l0 0c15,-1 30,-1 46,-3l0 0c4,0 9,-1 13,-2l0 0c66,-7 131,-16 195,-27l0 0c4,-1 7,-1 11,-1l0 0c18,-4 36,-8 55,-12l0 0c31,-7 62,-13 93,-20l0 0c23,-6 45,-12 68,-18l0 0c29,-8 59,-16 87,-25l0 0c7,-2 14,-4 20,-6l0 0c11,-3 21,-8 31,-12l0 0c45,-15 89,-32 132,-50l0 0c17,-6 33,-13 49,-20l0 0c55,-25 109,-52 160,-81l0 0 2789 -1621 1159 1114 639 -2159 368 -214c7,-4 14,-8 21,-12l0 0c16,-10 30,-20 45,-30l0 0c20,-13 41,-26 60,-40l0 0c17,-12 32,-25 48,-38l0 0c17,-14 35,-28 51,-43l0 0c3,-2 7,-5 10,-8l0 0c7,-6 12,-13 18,-19l0 0c26,-25 50,-51 72,-78l0 0c5,-5 11,-11 16,-17l0 0c5,-6 8,-12 12,-18l0 0c15,-19 28,-39 40,-59l0 0c5,-8 12,-16 17,-25l0 0c2,-4 4,-9 6,-13l0 0c10,-18 17,-36 25,-54l0 0c5,-10 11,-20 15,-30l0 0c1,-4 2,-8 3,-12l0 0c6,-17 10,-34 15,-51l0 0c3,-12 7,-23 9,-34l0 0c1,-3 1,-7 1,-10l0 0c4,-18 5,-36 7,-55l0 0c1,-11 3,-23 4,-34l0 0c0,-5 0,-10 0,-15l0 0 2 -814c0,17 -2,33 -4,50l0 0z"/>
    </g>
    <g>
     <path class="fil34" d="M39646 46450l0 -1 -2 653 0 0c0,7 0,14 0,21l0 0c-1,10 -3,20 -4,31l0 0c-2,29 -5,57 -10,86l0 0c-1,6 -1,12 -2,19l0 0c-2,9 -6,19 -8,28l0 0c-6,26 -14,53 -23,79l0 0c-3,8 -4,17 -7,26l0 0c-3,7 -7,14 -10,21l0 0c-11,28 -25,55 -39,83l0 0c-5,10 -9,20 -14,30l0 0c-3,6 -7,11 -11,17l0 0c-4,7 -9,15 -13,22l0 0c-19,29 -38,58 -60,86l0 0c-3,4 -5,8 -8,12l0 0c-1,1 -2,3 -3,4l0 0c-24,31 -51,61 -79,90l0 0c-8,9 -17,17 -25,25l0 0c-14,14 -28,29 -43,43l0 0c-10,9 -21,18 -31,26l0 0c-9,9 -18,17 -28,25l0 0c-34,29 -70,57 -110,85l0 0c-26,21 -56,41 -87,60l0 0c-3,2 -5,4 -9,6l0 0c-5,4 -12,7 -18,11l-4998 2904 0 0c-43,25 -88,48 -135,68l0 0c-15,7 -33,13 -49,19l0 0c-32,13 -64,26 -97,37l0 0c-1,0 -2,0 -3,1l0 0c-44,14 -89,26 -135,37l0 0c-13,3 -27,5 -40,8l0 0c-20,4 -40,9 -60,13l0 0c-24,4 -49,8 -73,12l0 0c-60,14 -120,26 -181,37l0 0c-5,1 -10,3 -15,4l0 0c-7,1 -15,1 -22,3l0 0c-92,16 -186,29 -280,39l0 0c-1,0 -1,0 -2,0l0 0c-2,0 -4,0 -6,0l0 0c-75,8 -150,12 -226,15l0 0c-10,1 -20,2 -30,2l0 0c-4,1 -9,1 -14,1l0 0c-4,0 -9,-1 -13,0l0 0c-69,1 -139,2 -209,1l0 0c-1,0 -2,0 -3,0l0 0c-1,0 -2,0 -3,0l0 0c-1,0 -1,0 -1,-1l0 0c-70,-1 -140,-5 -209,-11l0 0c-7,0 -15,0 -23,-1l0 0c-12,-1 -24,-3 -36,-4l0 0c-52,-5 -105,-11 -157,-18l0 0c-12,-1 -25,-2 -37,-4l0 0c-6,0 -12,-2 -18,-3l0 0c-70,-10 -139,-22 -207,-36l0 0c-3,0 -6,-1 -9,-1l0 0c-7,-2 -14,-4 -22,-6l0 0c-66,-14 -132,-30 -196,-48l0 0c-10,-2 -20,-4 -30,-7l0 0c-5,-2 -10,-4 -15,-5l0 0c-85,-25 -167,-53 -247,-84l0 0c-7,-2 -15,-4 -22,-7l0 0c-9,-4 -18,-8 -27,-12l0 0c-38,-15 -76,-32 -113,-49l0 0c-17,-7 -34,-15 -50,-23l0 0c-53,-25 -104,-52 -154,-81l0 0c-466,-269 -699,-622 -698,-975l1 -140 0 0c-72,-45 -127,-96 -163,-151l0 0c-39,-57 -58,-117 -58,-178l1 -488 0 0c-166,-216 -249,-447 -249,-678l2 -653 0 0c0,188 55,377 165,557l0 0c67,108 153,213 259,313l-1 594 0 0c17,13 36,26 56,38l0 265 0 0c50,308 279,608 687,843l0 0c49,29 101,55 153,81l0 0c17,8 34,16 52,23l0 0c36,17 74,34 112,49l0 0c16,7 32,13 49,19l0 0c80,31 162,59 247,84l0 0c15,4 30,8 45,12l0 0c64,18 130,34 196,48l0 0c10,2 20,5 31,7l0 0c68,14 137,26 207,36l0 0c18,3 37,5 55,7l0 0c52,7 104,13 157,18l0 0c20,2 39,4 59,5l0 0c69,5 139,10 208,11l0 0c3,0 6,0 9,0l0 0c69,2 139,1 208,-1l0 0c19,0 38,-1 57,-2l0 0c75,-3 151,-7 226,-15l0 0c2,0 5,0 8,0l0 0c94,-10 188,-23 280,-39l0 0c12,-3 24,-4 37,-7l0 0c61,-11 121,-23 181,-37l0 0c45,-7 89,-16 132,-25l0 0c14,-3 28,-5 41,-9l0 0c47,-11 93,-23 138,-37l0 0c33,-11 64,-24 95,-36l0 0c17,-7 35,-13 51,-20l0 0c47,-20 92,-43 135,-68l4998 -2904 0 0c10,-6 18,-12 27,-17l0 0c31,-20 61,-39 87,-60l0 0c39,-28 76,-56 110,-86l0 0c10,-8 19,-16 28,-23l0 0c26,-23 51,-47 74,-70l0 0c8,-8 17,-16 25,-25l0 0c29,-31 57,-62 82,-94l0 0c3,-4 5,-8 8,-12l0 0c22,-28 41,-57 59,-86l0 0c5,-7 10,-15 14,-22l0 0c9,-16 17,-31 25,-47l0 0c14,-28 28,-55 39,-84l0 0c6,-15 12,-31 17,-46l0 0c9,-27 16,-53 23,-79l0 0c3,-16 7,-31 10,-47l0 0c5,-29 8,-58 10,-86l0 0c1,-17 4,-34 4,-51z"/>
     <path class="fil35" d="M35851 45345c-784,-312 -1863,-267 -2556,136l0 0c-231,134 -392,293 -487,463l0 0c-825,-51 -1680,107 -2310,474l0 0c-947,550 -1079,1391 -403,2027l0 0c-252,187 -233,456 55,632l0 0c-67,396 162,805 687,1108l0 0c699,404 1721,503 2577,299l0 0c218,-32 422,-96 592,-195l0 0 4998 -2904c42,-25 80,-50 114,-77l0 0c758,-538 699,-1334 -171,-1836l0 0c-464,-267 -1070,-401 -1676,-401l0 0c-500,0 -1001,91 -1420,274l0 0z"/>
     <path class="fil36" d="M33022 47559c-9,-45 -4,-91 18,-137 26,-56 75,-106 139,-147 7,-4 14,-9 21,-13 3,-2 7,-4 11,-6 7,-4 14,-7 22,-11 7,-4 15,-8 23,-11 4,-2 8,-4 12,-5 16,-7 32,-14 49,-20 5,-1 9,-3 13,-4 9,-3 18,-6 26,-8 5,-2 9,-3 14,-4 9,-3 18,-5 27,-7 5,-1 9,-3 14,-4 6,-1 13,-2 20,-4 7,-1 15,-3 22,-4 10,-2 19,-4 29,-5 13,-2 26,-4 39,-5 7,-1 13,-2 20,-2 10,-1 20,-2 30,-3 15,-1 30,-1 45,-2 11,0 21,0 31,0 51,1 103,5 155,13 94,14 176,40 244,74 12,6 23,12 34,18 7,4 14,9 20,13 7,4 13,8 20,13 16,11 30,23 44,35 5,5 10,9 15,14 8,8 15,16 21,23 4,5 9,11 12,16 2,3 4,5 6,8 4,5 7,11 10,16 5,8 10,17 14,25 2,6 4,11 6,17 20,54 19,111 -8,168 -22,48 -60,91 -110,128 -6,4 -13,9 -19,13 -20,13 -41,25 -64,37 -8,4 -15,7 -23,11 -4,2 -8,3 -12,5 -12,5 -24,10 -37,15 -142,52 -321,71 -497,44 -84,-13 -160,-36 -224,-65 -27,-12 -53,-26 -76,-41 -7,-5 -15,-10 -22,-15 -18,-13 -35,-27 -50,-41 -14,-14 -27,-29 -39,-45 -2,-2 -3,-5 -5,-7 -4,-6 -8,-11 -11,-17 -3,-5 -6,-11 -9,-16 -5,-11 -10,-23 -14,-34 -1,-4 -2,-7 -3,-11 -1,-4 -2,-8 -3,-12zm1267 -941l-417 -65c-54,-9 -109,18 -123,48l-65 139 -1 0c-129,-1 -280,7 -417,30l-125 -125c-28,-27 -89,-37 -137,-21l-374 124c-48,16 -64,51 -37,79l124 124 1 0c-102,55 -184,108 -257,190l-240 -37c-53,-9 -114,11 -128,42l-113 240c-14,31 27,51 81,60l239 37 2 0c-11,92 9,167 49,246l-219 78c-48,16 -64,51 -36,79l215 216c27,28 89,37 137,21l216 -71 2 0c95,58 191,107 333,149l-65 138c-14,31 16,54 69,62l417 65c54,9 92,-3 107,-34l64 -139 1 0c159,6 285,-6 422,-29l130 125c27,28 89,37 136,21l375 -125c48,-15 65,-52 37,-79l-122 -126 1 -4c101,-55 187,-116 260,-198l240 38c53,8 97,2 111,-28l113 -241c15,-31 -11,-65 -64,-73l-240 -38 -1 0c11,-92 -13,-159 -52,-239l214 -69c48,-16 64,-51 37,-79l-216 -216c-27,-28 -89,-38 -137,-22l-217 71 -5 0c-95,-59 -196,-107 -338,-150l65 -138c14,-31 1,-68 -52,-76z"/>
     <path class="fil36" d="M35948 47431c-24,-24 -40,-51 -46,-81 -8,-37 0,-72 20,-105 2,-3 5,-6 7,-10 1,-2 3,-3 4,-5 3,-3 5,-6 8,-10 3,-3 6,-6 9,-9 1,-2 3,-3 5,-5 6,-6 13,-12 20,-18 2,-1 4,-3 6,-4 4,-3 8,-6 12,-8 2,-2 4,-3 6,-5 4,-2 9,-5 13,-7 2,-2 4,-3 7,-4 3,-2 6,-4 9,-5 4,-2 8,-4 12,-6 4,-2 9,-5 14,-7 7,-3 14,-6 21,-8 4,-2 7,-3 11,-4 5,-2 10,-4 16,-6 8,-2 17,-5 26,-7 6,-2 11,-3 17,-4 30,-7 62,-12 96,-14 60,-5 118,-1 172,10 9,1 18,3 27,5 6,2 11,3 17,5 6,1 11,3 17,5 14,4 27,9 40,14 5,2 10,4 15,6 7,4 14,7 21,11 5,2 9,5 14,7 2,1 4,3 6,4 5,3 9,5 13,8 6,4 12,8 18,13 4,2 7,5 11,8 34,29 56,63 64,99 7,31 2,61 -11,89 -2,4 -4,7 -6,11 -6,10 -13,20 -22,30 -3,3 -6,6 -9,9 -1,2 -3,3 -4,5 -5,5 -10,9 -16,14 -61,50 -157,85 -270,94 -54,4 -107,1 -157,-7 -21,-4 -41,-8 -61,-14 -6,-2 -13,-4 -19,-6 -16,-5 -31,-10 -46,-16 -14,-7 -28,-14 -40,-21 -3,-1 -5,-2 -7,-4 -4,-2 -9,-5 -13,-8 -4,-2 -8,-5 -12,-8 -8,-6 -15,-12 -22,-18 -2,-2 -4,-4 -6,-6 -3,-2 -5,-4 -7,-7zm348 -720l-269 20c-34,2 -56,25 -51,45l19 89 0 1c-75,17 -160,42 -230,74l-124 -55c-27,-12 -67,-9 -88,6l-166 124c-22,16 -17,38 11,51l123 55 0 0c-36,45 -62,87 -71,145l-154 11c-35,3 -62,22 -58,42l34 155c4,20 37,26 71,24l155 -11 1 0c32,54 74,95 129,136l-94 75c-21,16 -17,38 11,51l214 95c27,13 67,10 88,-6l96 -71 1 0c79,21 155,35 255,40l20 90c4,20 31,29 65,26l269 -19c34,-3 52,-15 47,-35l-19 -89 0 -1c95,-18 163,-42 233,-74l127 55c27,12 67,9 88,-7l166 -124c21,-16 16,-39 -11,-51l-123 -56 -1 -3c36,-45 61,-93 70,-150l154 -12c35,-2 58,-11 53,-31l-33 -155c-5,-20 -33,-37 -68,-34l-154 11 -1 0c-32,-55 -73,-91 -129,-131l96 -70c21,-16 16,-38 -11,-51l-214 -96c-28,-12 -68,-9 -89,7l-96 71 -3 0c-79,-21 -158,-35 -258,-40l-20 -90c-4,-19 -27,-39 -61,-37z"/>
    </g>
    <g>
     <path class="fil37" d="M23362 28493l-6546 3779c-341,197 -510,541 -509,884l0 0 0 5 0 5 0 5 0 4 0 5 0 5 0 4 0 5 0 5 0 5 0 4 0 5 0 5 0 5 0 4 0 5 0 5 0 4 0 5 0 5 0 5 0 4 0 5 0 5 0 5 0 4 0 5 0 5 0 4 0 5 0 5 0 5 0 4 0 5 0 5 0 5 0 4 0 5 0 5 0 4 0 5 0 5 0 5 0 4 0 5 0 5 0 5 0 4 0 5 0 5 0 4 0 5 0 5 0 5 0 4 0 5 0 5 0 4 0 5 0 5 0 5 0 4 0 5 0 5 0 5 0 4 0 5 0 5 0 5 0 4 0 5 0 5 0 4 0 5 0 5 0 5 0 4 0 5 0 5 0 4 0 5 0 5 0 5 0 4 0 5 0 5 0 5 0 4 0 5 0 5 0 4 0 5 0 5 0 5 0 4 0 5 0 5 0 4 0 5 0 5c-1,344 168,688 509,884l0 0 4106 2371c315,182 703,182 1018,0l0 0 6546 -3779c341,-197 510,-541 509,-884l0 0 0 -5 0 -5 0 -5 0 -4 0 -5 0 -5 0 -5 0 -4 0 -5 0 -5 0 -4 0 -5 0 -5 0 -5 0 -4 0 -5 0 -5 0 -5 0 -4 0 -5 0 -5 0 -5 0 -4 0 -5 0 -5 0 -4 0 -5 0 -5 0 -5 0 -4 0 -5 0 -5 0 -5 0 -4 0 -5 0 -5 0 -4 0 -5 0 -5 0 -5 0 -4 0 -5 0 -5 0 -4 0 -5 0 -5 0 -5 0 -4 0 -5 0 -5 0 -5 0 -4 0 -5 0 -5 0 -4 0 -5 0 -5 0 -5 0 -4 0 -5 0 -5 0 -4 0 -5 0 -5 0 -5 0 -4 0 -5 0 -5 0 -5 0 -4 0 -5 0 -5 0 -5 0 -4 0 -5 0 -5 0 -4 0 -5 0 -5 0 -5 0 -4 0 -5 0 -5 0 -4 0 -5 0 -5 0 -5 0 -4 0 -5 0 -5 0 -5 0 -4 0 -5 0 -5 0 -4 0 -5 0 -5 0 -5 0 -4 0 -5c1,-344 -168,-688 -509,-884l0 0 -4106 -2371c-158,-91 -333,-137 -509,-137 -176,0 -352,46 -509,137l0 0z"/>
     <path class="fil38" d="M23362 28493l-6546 3779c-679,392 -679,1372 0,1764l0 0 4106 2371c315,182 703,182 1018,0l0 0 6546 -3780c679,-392 679,-1371 0,-1763l0 0 -4106 -2371c-158,-91 -333,-137 -509,-137 -176,0 -352,46 -509,137l0 0z"/>
     <path class="fil39" d="M24135 29596l-6376 3681c-116,67 -99,190 37,268l2474 1428c134,78 273,128 420,125 82,-2 159,-22 234,-57 23,-11 46,-24 77,-42l6195 -3577c116,-66 99,-189 -37,-268l-2662 -1537c-103,-59 -254,-83 -362,-21zm-3311 5590c-46,9 -97,13 -151,13 -138,0 -272,-32 -368,-87l-2663 -1537c-169,-98 -185,-242 -37,-327l6377 -3682c120,-69 199,-94 287,-98 112,-4 231,33 382,120l2662 1537c169,98 186,241 37,327l-6376 3681c-41,24 -92,42 -150,53z"/>
     <path class="fil40" d="M25161 32121l-3079 1778c-44,26 -39,71 12,100l0 0c51,29 129,33 173,7l0 0 3080 -1778c44,-26 38,-70 -13,-100l0 0c-28,-16 -64,-24 -98,-24l0 0c-28,0 -55,5 -75,17l0 0z"/>
     <polygon class="fil39" points="22035,33181 20390,33075 20400,33020 21941,33118 21993,31861 23568,31690 23633,30708 23729,30710 23662,31737 22088,31908 "/>
     <polygon class="fil41" points="24028,30776 23700,30417 23326,30761 "/>
     <path class="fil42" d="M20623 32916c125,73 125,190 0,263 -126,72 -330,72 -455,0 -126,-73 -126,-190 0,-263 125,-72 329,-72 455,0z"/>
     <path class="fil41" d="M22216 33018c125,73 125,190 0,263 -126,72 -330,72 -455,0 -126,-73 -126,-190 0,-263 125,-72 329,-72 455,0z"/>
     <path class="fil12" d="M22268 31753c126,73 126,190 0,263 -125,73 -329,73 -455,0 -125,-73 -125,-190 0,-263 126,-72 330,-72 455,0z"/>
     <path class="fil43" d="M23843 31582c125,73 125,190 0,263 -126,72 -330,72 -455,0 -126,-73 -126,-190 0,-263 125,-72 329,-72 455,0z"/>
     <polygon class="fil43" points="21379,33917 20301,34539 19676,34179 20755,33556 "/>
     <polygon class="fil43" points="26265,31096 25186,31719 24562,31358 25640,30735 "/>
    </g>
    <g>
     <path class="fil44" d="M39225 21177l599 40 -2157 5714 -1403 -3231 -3361 9865 -1880 -2595 -337 941 -1286 3603 0 0c-1336,3762 -1280,3780 -1323,3962l0 0 790 -354 2199 -6251 0 0 1903 2626 3221 -9454 1357 3126 2984 -7906 599 40 -34 -2498 -1871 2372z"/>
     <path class="fil45" d="M30016 31537c-6,18 -650,1815 -1285,3603l0 0 -1323 3962 0 0 669 374c43,-182 -13,-200 1323,-3962l0 0 1286 -3603 0 0 336 -937 -668 -378 -338 941z"/>
     <path class="fil45" d="M38536 20830l512 296 -1815 4807 434 998 2157 -5714 -599 -40 1871 -2372 -669 -374 -1891 2399zm-1303 5103l0 0 -969 -2233 969 2233z"/>
     <path class="fil45" d="M32361 32817l542 748 3361 -9865 -669 -374 -3234 9491zm0 0l0 0 -1338 -1847 1338 1847z"/>
     <path class="fil46" d="M30935 33239l1365 1884 1 -4 668 378 -1903 -2626c-52,148 -110,308 -131,368zm0 0l0 0c-13,35 -11,30 0,0l0 0z"/>
     <polygon class="fil46" points="35967,26697 36878,28795 37547,29169 36190,26043 "/>
    </g>
    <g>
     <path class="fil47" d="M8160 38344c0,8 -1,17 0,26l0 0c10,426 273,833 801,1138l0 0 10069 5813c1190,687 3268,601 4642,-192l0 0c776,-448 1161,-1026 1135,-1568l0 0 0 -990c-13,519 -396,1063 -1135,1490l0 0c-1374,793 -3452,879 -4642,192l0 0 -10069 -5813c-518,-299 -781,-695 -801,-1113l0 1017zm16647 4227c0,-17 0,-35 0,-52l0 0 0 52z"/>
     <path class="fil48" d="M9294 35760c-1374,793 -1523,1993 -333,2680l0 0 10069 5813c1190,687 3268,601 4642,-192l0 0c1374,-793 1523,-1993 333,-2680l0 0 -10069 -5813c-539,-312 -1260,-464 -2016,-464l0 0c-912,0 -1874,222 -2626,656l0 0z"/>
     <path class="fil49" d="M20549 41666l-1627 1199c1046,472 2554,419 3492,-122 395,-228 654,-523 741,-841l-2606 -236z"/>
     <path class="fil50" d="M20549 41666l-324 -1512c-583,41 -1126,194 -1542,434 -1024,591 -1024,1564 0,2155 75,43 155,84 239,122l1627 -1199z"/>
     <path class="fil51" d="M20549 41666l2606 236c131,-481 -145,-970 -741,-1314 -574,-331 -1383,-492 -2189,-434l324 1512z"/>
     <path class="fil52" d="M22414 42743c395,-228 654,-523 741,-841l0 857c-87,319 -346,613 -741,841 -938,542 -2446,595 -3492,122l0 -857c1046,472 2554,419 3492,-122z"/>
     <path class="fil53" d="M18683 42743c75,43 155,84 239,122l0 857c-84,-38 -164,-78 -239,-122 -515,-297 -770,-691 -767,-1084l0 -830c0,-4 0,-9 0,-14 3,389 258,777 767,1071z"/>
     <path class="fil54" d="M13533 37764l-351 203c-315,182 -350,458 -76,615l0 0 3326 1921c273,158 751,138 1066,-44l0 0 351 -203c315,-182 350,-458 76,-615l0 0 -3326 -1921c-124,-71 -289,-106 -463,-106l0 0c-209,0 -430,51 -603,150l0 0z"/>
     <polygon class="fil55" points="11092,37764 11526,38014 13841,36678 13407,36427 "/>
     <polygon class="fil55" points="10319,37317 10753,37568 12176,36747 11742,36496 "/>
     <polygon class="fil55" points="9546,36871 9981,37122 11866,36034 11432,35783 "/>
    </g>
    <g>
     <path class="fil29" d="M37882 42209l-1945 0 0 887c0,145 95,290 285,400l0 0c381,220 1001,220 1378,0l0 0c188,-110 282,-255 282,-400l0 0 0 -887z"/>
     <path class="fil56" d="M36222 41809c-381,220 -381,580 0,800 381,219 1001,219 1378,0 376,-220 376,-580 0,-800 -377,-220 -997,-220 -1378,0z"/>
    </g>
    <g>
     <g>
      <path class="fil57" d="M24952 45064l0 1201c0,145 96,290 286,400l0 0c380,220 1000,220 1376,0l0 0c188,-110 283,-255 283,-400l0 0 0 -1201 -1945 0z"/>
      <path class="fil58" d="M25238 44665c-381,220 -381,579 0,799 380,220 1000,220 1376,0 377,-220 377,-579 0,-799 -376,-220 -996,-220 -1376,0z"/>
     </g>
     <g>
      <path class="fil59" d="M28400 48306l0 -2195 -1944 0 0 2195c0,145 95,290 285,399l0 0c381,220 1000,220 1376,1l0 0c189,-110 283,-255 283,-400z"/>
      <path class="fil60" d="M26741 45692c-380,219 -380,579 0,798 381,220 1000,220 1376,1 377,-220 377,-580 0,-799 -376,-220 -995,-220 -1376,0z"/>
     </g>
    </g>
    <g>
     <path class="fil61" d="M2617 24216l0 4 0 4c1,86 6,168 10,250l0 0 83 -46c2,39 2,80 4,118l0 0 83 -46c2,39 2,80 4,118l0 0 83 -46c1,39 2,80 4,118l0 0 83 -46c1,40 2,80 4,119l0 0 82 -47c2,40 3,80 5,118l0 0 82 -46c2,40 2,80 5,119l0 0 82 -46c2,39 2,79 5,118l0 0 82 -46c2,39 2,79 5,118l0 0 82 -46c2,39 2,79 4,118l0 0 12432 -6965c5,-90 10,-181 10,-270l0 0c0,-849 -259,-1471 -677,-1789l0 0c-28,-26 -57,-50 -87,-72l0 0c-28,-26 -57,-50 -87,-72l0 0c-28,-26 -57,-50 -87,-72l0 0c-28,-26 -57,-50 -87,-72l0 0c-28,-26 -57,-50 -86,-73l0 0c-28,-25 -58,-49 -87,-72l0 0c-28,-25 -58,-49 -87,-72l0 0c-28,-25 -57,-49 -87,-72l0 0c-402,-367 -976,-424 -1616,-87l0 0c-174,-383 -405,-687 -683,-906l0 0c-28,-25 -57,-49 -86,-72l0 0c-29,-25 -58,-49 -87,-72l0 0c-29,-25 -58,-49 -87,-72l0 0c-29,-25 -58,-49 -87,-72l0 0c-28,-25 -57,-49 -87,-72l0 0c-28,-25 -57,-49 -87,-72l0 0c-28,-25 -57,-49 -87,-72l0 0c-28,-25 -57,-49 -86,-72l0 0c-345,-305 -767,-468 -1242,-468l0 0c-422,0 -885,129 -1370,401l0 0c-1615,905 -2978,3111 -3416,5335l0 0c-95,38 -191,83 -289,138l0 0c-1409,789 -2552,2964 -2552,4857z"/>
     <path class="fil48" d="M9656 14534c-1615,905 -2978,3111 -3416,5335 -95,39 -191,84 -289,138 -1409,790 -2552,2964 -2552,4857 0,49 2,95 4,142l2 -1c1,37 2,76 4,114 0,0 0,1 0,2 0,1 0,1 0,2l12432 -6965c5,-90 10,-181 10,-270 0,-849 -259,-1472 -677,-1789 -1,-2 -3,-3 -4,-4 -409,-308 -968,-326 -1584,19 -150,84 -295,186 -436,302 -60,-368 -157,-696 -287,-981 -174,-383 -405,-687 -683,-906 -4,-3 -8,-7 -12,-10 -644,-500 -1532,-534 -2512,15z"/>
    </g>
    <g>
     <path class="fil61" d="M20390 8068l0 -8c0,-526 -160,-911 -419,-1107l0 0c-17,-16 -35,-31 -53,-45l0 0c-18,-16 -36,-31 -54,-45l0 0c-17,-15 -36,-30 -54,-44l0 0c-17,-16 -35,-31 -54,-45l0 0c-17,-16 -35,-30 -53,-44l0 0c-18,-16 -36,-31 -54,-45l0 0c-18,-16 -36,-30 -54,-44l0 0c-17,-16 -35,-31 -54,-45l0 0c-248,-228 -604,-262 -1000,-54l0 0c-107,-237 -250,-425 -422,-560l0 0c-17,-16 -35,-31 -53,-45l0 0c-18,-16 -36,-30 -54,-45l0 0c-18,-15 -36,-30 -54,-44l0 0c-17,-16 -35,-30 -54,-45l0 0c-17,-15 -35,-30 -53,-44l0 0c-18,-16 -36,-30 -54,-45l0 0c-18,-15 -36,-30 -54,-45l0 0c-17,-15 -35,-30 -54,-44l0 0c-213,-189 -474,-289 -768,-289 -261,0 -547,79 -847,248l0 0c-999,559 -1843,1924 -2114,3300l0 0c-59,24 -118,52 -179,86l0 0c-871,488 -1578,1834 -1578,3005l0 0c0,55 3,107 6,160l0 0 51 -29c1,24 1,49 3,73l0 0 51 -28c1,24 1,49 2,73l0 0 52 -29c1,24 1,49 2,73l0 0 51 -28c1,24 2,49 3,73l0 0 51 -29c1,25 1,50 3,73l0 0 51 -28c1,24 1,49 3,73l0 0 51 -29c1,25 1,50 2,73l0 0 51 -28c1,24 2,49 3,73l0 0 51 -28c1,24 1,49 3,73l0 0 7691 -4309c3,-54 6,-107 6,-159z"/>
     <path class="fil62" d="M12693 12536c-3,-53 -6,-105 -6,-160 0,-1171 706,-2517 1578,-3005 61,-34 120,-62 179,-86 271,-1375 1114,-2741 2113,-3300 1069,-599 1959,-77 2162,1164 88,-72 177,-135 270,-187 774,-433 1401,58 1401,1098 0,55 -3,111 -6,167l-7691 4309z"/>
    </g>
    <g>
     <polygon class="fil63" points="43556,27185 43537,34044 53344,39706 53363,32847 "/>
     <polygon class="fil44" points="43556,27185 44109,26861 53893,32539 53363,32847 "/>
     <polygon class="fil34" points="53344,39706 53873,39398 53893,32539 53363,32847 "/>
     <path class="fil64" d="M43537 34044l4787 -597 5020 6259c0,0 -9807,-5662 -9807,-5662z"/>
     <path class="fil65" d="M53363 32847l-4929 1804 -4878 -7466c0,0 9807,5662 9807,5662z"/>
    </g>
    <path class="fil22" d="M48777 33498c24,-249 -88,-488 -305,-613 -278,-161 -488,13 -489,337 0,249 131,476 332,592 251,145 434,1 462,-316zm1206 534c1,23 1,46 1,69 -1,480 -165,706 -376,758 -127,31 -272,-2 -409,-81 -150,-86 -265,-199 -348,-326 -62,-95 -105,-198 -130,-302 -139,122 -332,146 -551,29 -8,-4 -15,-8 -23,-13 -250,-144 -448,-395 -556,-684 -38,-100 -64,-204 -79,-310 -8,-61 -13,-123 -12,-185 1,-609 420,-871 869,-611 251,145 418,383 511,615l46 -231 465 308c-130,686 -201,971 -202,1131 0,42 6,83 18,121 4,16 10,31 16,46 29,68 74,126 133,170 13,10 27,19 42,28 198,114 398,3 421,-471 1,-28 2,-56 2,-86 2,-761 -541,-1684 -1283,-2113 -744,-429 -1360,-136 -1452,626 -7,64 -11,130 -11,199 -1,261 54,537 153,807 218,596 649,1162 1168,1461 318,184 566,237 829,207l77 183c-278,43 -566,-20 -913,-221 -569,-328 -1049,-954 -1296,-1613 -114,-306 -178,-618 -178,-911 1,-118 11,-227 31,-327 146,-763 813,-1038 1600,-584 801,463 1407,1494 1437,2311z"/>
    <path class="fil35" d="M14137 30604l-5678 -3278c-422,251 -515,823 -194,1194l194 225 5678 3276 0 -1417z"/>
    <g>
     <path class="fil9" d="M6966 31931c-981,-567 -1784,-1958 -1784,-3091 0,-1134 802,-1598 1783,-1031 980,566 1783,1957 1784,3091 1,1134 -802,1597 -1783,1031zm162 -5412c-785,-454 -1500,-500 -2023,-211l-1 0 -22 12c0,0 -1,1 -2,1l-696 395 127 207c-180,331 -281,759 -281,1272 0,181 13,366 37,554 0,0 0,1 0,1 27,1278 1507,4777 2331,6629l-179 1594 718 -407c0,0 1691,-2136 2514,-3591 73,-106 136,-224 189,-354 1,-2 2,-4 3,-5 15,-30 25,-61 34,-93 98,-279 152,-606 152,-979 -1,-1842 -1306,-4104 -2901,-5025z"/>
     <path class="fil66" d="M3512 28602c0,181 13,366 38,554l0 0c0,0 0,0 0,1l0 0c37,1772 2869,7816 2869,7816l0 0c0,0 1691,-2136 2514,-3592l0 0c73,-106 137,-224 190,-354l0 0c1,-1 2,-3 3,-5l0 0c14,-30 25,-61 34,-93l0 0c98,-279 152,-606 152,-978l0 0c-2,-1843 -1307,-4104 -2901,-5025l0 0c-462,-267 -899,-393 -1288,-393l0 0c-953,0 -1611,759 -1611,2069zm2737 3735c-982,-566 -1785,-1957 -1785,-3091l0 0c0,-1134 803,-1597 1783,-1031l0 0c981,567 1784,1958 1785,3091l0 0c0,806 -405,1273 -991,1273l0 0c-239,0 -508,-78 -792,-242l0 0z"/>
    </g>
    <g>
     <path class="fil6" d="M40656 14879l1 0 1 0c8,-1 16,-1 25,-2l0 0c25,0 49,-1 74,-3l0 0c7,0 15,0 22,-1l0 0c5,-1 10,-2 16,-2l0 0c37,-4 75,-10 111,-16l0 0c3,-1 6,-1 9,-2l0 0c0,0 1,0 1,0l0 0c51,-11 101,-25 149,-41l0 0c5,-2 9,-3 14,-4l0 0c3,-1 6,-3 10,-4l0 0c21,-8 42,-17 62,-26l0 0c10,-4 20,-8 30,-12l0 0c30,-14 59,-29 88,-46l0 0 913 -531c-28,17 -58,32 -88,46l0 0c-9,5 -19,8 -29,13l0 0c-21,8 -41,17 -63,25l0 0c-7,3 -15,5 -23,8l0 0c-49,16 -98,30 -149,41l0 0c-4,1 -7,1 -11,2l0 0c-36,7 -73,12 -110,16l0 0c-13,1 -26,2 -39,3l0 0c-24,2 -49,3 -74,3l0 0c-14,1 -28,1 -42,1l0 0c-20,0 -40,-1 -60,-2l0 0c-16,-1 -32,-1 -49,-2l0 0c-16,-2 -33,-4 -51,-6l0 0c-18,-2 -36,-4 -55,-6l0 0c-16,-3 -32,-6 -48,-8l0 0c-20,-4 -40,-7 -60,-12l0 0c-14,-2 -28,-5 -41,-9l0 0c-22,-5 -44,-10 -66,-16l0 0c-13,-4 -27,-7 -41,-11l0 0c-24,-7 -48,-15 -72,-23l0 0c-11,-3 -22,-7 -34,-11l0 0c-35,-12 -71,-25 -107,-39l0 0c0,0 0,-1 -1,-1l0 0c-35,-14 -71,-29 -107,-46l0 0c-11,-5 -23,-11 -34,-16l0 0c-25,-12 -51,-24 -77,-38l0 0c-13,-6 -25,-13 -38,-19l0 0c-34,-18 -69,-37 -103,-57l0 0c-80,-46 -158,-96 -236,-149l0 0c-4,-4 -9,-7 -14,-10l0 0c-72,-51 -143,-104 -212,-161l0 0c-8,-6 -16,-12 -24,-19l0 0c-68,-55 -135,-114 -200,-174l0 0c-8,-8 -15,-15 -23,-22l0 0c-67,-63 -132,-128 -195,-195l0 0c-6,-6 -11,-11 -16,-17l0 0c-68,-72 -134,-147 -199,-225l0 0c0,0 -1,-1 -2,-2l0 0c-66,-79 -130,-161 -192,-245l0 0c0,-1 0,-1 -1,-2l0 0c-56,-76 -110,-155 -163,-234l0 0c-32,-49 -63,-100 -94,-150l0 0c-26,-43 -53,-85 -78,-128l0 0c-12,-20 -23,-41 -35,-62l0 0c-41,-72 -81,-145 -118,-218l0 0c-4,-8 -8,-16 -13,-25l0 0c-45,-89 -88,-180 -128,-272l0 0c-2,-4 -4,-9 -6,-14l0 0c-39,-90 -75,-180 -109,-271l0 0c-2,-6 -5,-12 -7,-18l0 0c-34,-93 -65,-186 -94,-280l0 0c-1,-5 -3,-11 -4,-16l0 0c-27,-90 -51,-180 -72,-270l0 0c-2,-8 -4,-17 -6,-25l0 0c-21,-93 -40,-186 -54,-278l0 0c-1,-1 -1,-2 -1,-4l0 0c-15,-92 -26,-185 -34,-276l0 0c0,-8 -1,-15 -1,-23l0 0c-8,-91 -11,-182 -11,-271l0 0c0,-89 4,-175 12,-258l0 0c1,-7 2,-15 2,-22l0 0c8,-76 19,-149 32,-219l0 0c2,-10 4,-19 6,-29l0 0c14,-67 31,-132 50,-195l0 0c4,-11 8,-23 12,-34l0 0c19,-59 41,-115 65,-168l0 0c3,-6 5,-13 8,-19l0 0c29,-60 60,-117 95,-171l0 0c4,-7 9,-13 14,-20l0 0c28,-43 59,-83 91,-120l0 0c12,-14 24,-27 36,-40l0 0c28,-30 58,-59 88,-85l0 0c13,-11 26,-23 39,-33l0 0c43,-35 88,-67 136,-95l0 0 -914 531c-48,28 -93,60 -136,95l0 0c-13,10 -26,21 -38,32l0 0c-31,27 -60,56 -88,86l0 0c-12,13 -25,26 -36,39l0 0c-33,38 -63,78 -92,121l0 0c-4,7 -9,13 -14,20l0 0c-1,2 -2,3 -3,5l0 0c-32,50 -62,104 -89,161l0 0c-1,1 -2,4 -2,5l0 0c-3,6 -5,13 -8,19l0 0c-16,35 -32,71 -46,109l0 0c-7,19 -13,39 -20,59l0 0c-4,11 -8,22 -11,34l0 0c-3,10 -7,20 -10,31l0 0c-12,39 -22,79 -32,120l0 0c-3,14 -6,30 -9,44l0 0c-2,10 -3,19 -5,28l0 0c-3,15 -6,29 -9,43l0 0c-6,37 -12,74 -17,112l0 0c-2,21 -4,43 -6,65l0 0c-1,7 -2,14 -3,22l0 0c0,9 -2,18 -2,27l0 0c-3,36 -6,73 -7,110l0 0c-2,38 -3,75 -3,114l0 0c0,2 0,4 0,7l0 0c0,35 1,70 2,106l0 0c1,37 3,75 5,113l0 0c1,18 3,35 4,52l0 0c1,8 1,15 2,23l0 0c1,13 2,26 3,40l0 0c4,38 8,76 13,115l0 0c5,39 10,78 17,118l0 0c0,1 0,2 0,3l0 0c0,2 1,3 1,4l0 0c6,37 12,74 19,111l0 0c8,41 16,82 25,123l0 0c3,15 7,29 10,43l0 0c2,9 4,18 6,26l0 0c4,18 8,36 13,54l0 0c10,42 21,83 33,125l0 0c8,30 17,61 26,91l0 0c2,5 3,11 5,16l0 0c2,6 3,11 5,17l0 0c12,40 25,81 39,121l0 0c13,40 27,80 41,120l0 0c3,8 6,15 9,22l0 0c2,6 4,12 6,18l0 0c10,25 19,50 29,75l0 0c14,38 30,76 46,114l0 0c11,28 23,55 35,82l0 0c2,5 4,10 6,14l0 0c2,6 4,11 7,16l0 0c16,38 33,76 51,114l0 0c20,41 40,83 60,124l0 0c3,6 7,12 10,18l0 0c4,8 8,16 12,25l0 0c17,32 34,65 51,98l0 0c22,40 45,80 68,120l0 0c11,21 22,41 34,62l0 0c5,8 9,16 14,24l0 0c21,35 43,69 65,104l0 0c31,50 61,100 94,150l0 0c5,8 10,16 15,24l0 0c48,72 98,142 148,211l0 0c1,0 1,0 1,1l0 0c0,0 0,0 0,0l0 0c34,46 69,92 104,137l0 0c29,36 58,72 88,108l0 0c0,1 1,1 2,2l0 0c0,1 0,1 1,2l0 0c30,36 60,71 91,106l0 0c30,34 60,68 91,101l0 0c5,6 10,11 15,16l0 0c6,6 11,11 16,17l0 0c22,23 43,46 65,68l0 0c33,33 66,66 99,98l0 0c10,10 21,19 31,29l0 0c8,7 16,14 23,21l0 0c17,16 33,31 49,46l0 0c35,31 70,61 105,91l0 0c15,13 31,25 46,38l0 0c8,6 16,13 24,19l0 0c11,10 23,19 34,28l0 0c35,27 69,54 104,79l0 0c25,19 50,36 75,54l0 0c5,3 9,6 14,10l0 0c4,3 8,6 13,9l0 0c33,22 66,44 100,66l0 0c33,21 66,41 99,61l0 0c8,4 15,9 23,13l0 0c25,14 50,28 75,42l0 0c9,5 19,9 28,15l0 0c13,6 26,13 38,20l0 0c11,5 20,10 30,15l0 0c16,8 32,15 47,22l0 0c12,5 23,11 35,16l0 0c4,2 9,5 13,7l0 0c32,14 63,27 94,39l0 0c0,0 0,1 1,1l0 0c32,12 63,24 95,35l0 0c4,2 8,3 12,4l0 0c11,4 22,8 34,11l0 0c16,6 32,11 48,16l0 0c8,3 15,4 23,7l0 0c14,4 28,7 42,11l0 0c10,3 21,6 32,9l0 0c11,3 22,5 33,7l0 0c14,3 28,7 41,9l0 0c8,2 15,4 22,5l0 0c13,3 26,4 39,7l0 0c16,2 31,5 47,7l0 0c6,1 12,3 17,3l0 0c13,2 26,3 39,4l0 0c17,2 34,4 51,6l0 0c5,0 10,1 15,1l0 0c11,1 22,1 34,1l0 0c20,1 40,2 59,2l0 0c5,0 10,1 16,1zm-1802 -6418l-1 0 1 0c0,0 0,0 0,0l0 0z"/>
     <path class="fil6" d="M44472 13620l0 -1 0 0 0 -1 0 0 0 0 0 -1 0 0 0 0 0 -1 0 0 0 0 0 -1 0 0 0 0 0 -1 0 0 0 0 0 -1 0 0 0 0 0 -1 0 0 0 0 0 -1 0 0 0 -1 0 0 0 0 0 -1 0 0 0 0 0 -1 -1604 -926 -914 531 1604 926c0,73 -2,145 -5,215l0 0c-1,20 -3,39 -4,59l0 0c-3,48 -6,96 -11,143l0 0c-2,28 -5,54 -8,81l0 0c-4,40 -9,80 -15,119l0 0c-3,29 -7,57 -12,85l0 0c-6,36 -12,71 -19,107l0 0c-6,31 -12,62 -18,93l0 0c-7,32 -15,63 -22,94l0 0c-9,36 -18,71 -28,107l0 0c-8,27 -16,55 -24,82l0 0c-13,42 -26,82 -41,122l0 0c-8,23 -16,46 -24,69l0 0c-27,69 -54,136 -85,201l0 0c-24,50 -49,99 -75,146l0 0c-7,13 -15,25 -22,37l0 0c-19,33 -39,66 -59,98l0 0c-41,64 -84,123 -129,180l0 0c-11,14 -22,27 -33,40l0 0c-43,51 -87,101 -134,148l0 0c-5,5 -10,10 -15,15l0 0c-51,50 -105,95 -160,138l0 0c-13,11 -27,21 -40,31l0 0c-57,41 -115,82 -176,117l914 -531c61,-35 119,-75 176,-117l0 0c13,-10 26,-20 40,-31l0 0c55,-43 109,-88 160,-138l0 0c5,-5 9,-10 14,-15l0 0c47,-47 92,-97 135,-148l0 0c11,-13 22,-26 32,-40l0 0c46,-57 89,-116 129,-180l0 0c2,-2 4,-5 6,-7l0 0c19,-30 36,-60 54,-91l0 0c7,-12 15,-24 22,-37l0 0c25,-46 50,-94 73,-143l0 0c1,-1 1,-2 2,-3l0 0c30,-65 58,-132 84,-201l0 0c3,-7 6,-14 9,-21l0 0c6,-16 11,-32 16,-48l0 0c14,-40 28,-80 40,-122l0 0c4,-12 9,-24 13,-37l0 0c4,-15 7,-30 12,-45l0 0c9,-35 19,-71 27,-107l0 0c4,-16 9,-32 13,-48l0 0c3,-15 6,-31 9,-46l0 0c7,-31 13,-62 19,-93l0 0c3,-18 7,-35 11,-53l0 0c2,-18 5,-36 7,-54l0 0c5,-28 9,-56 13,-85l0 0c2,-16 5,-31 7,-47l0 0c3,-24 5,-48 8,-72l0 0c3,-27 6,-53 8,-80l0 0c1,-12 3,-24 4,-36l0 0c3,-35 4,-72 6,-108l0 0c2,-20 3,-39 4,-59l0 0c0,-5 1,-11 1,-16l0 0c3,-62 4,-124 5,-187z"/>
     <path class="fil6" d="M38763 6246l-2 0 -3 0c-14,0 -27,2 -41,2l0 0c-43,1 -85,3 -127,6l0 0c-11,1 -23,1 -35,2l0 0c-10,1 -19,3 -29,4l0 0c-60,6 -120,15 -179,26l0 0c-7,1 -14,2 -21,3l0 0c-3,1 -5,1 -8,2l0 0c-16,3 -31,8 -48,11l0 0c-34,8 -68,16 -101,25l0 0c-19,6 -37,12 -56,18l0 0c-22,7 -45,13 -67,21l0 0c-6,2 -12,5 -18,8l0 0c-36,13 -71,27 -105,42l0 0c-17,8 -35,14 -51,22l0 0c-51,24 -101,50 -149,78l0 0 -914 531c48,-29 98,-54 149,-78l0 0c17,-8 34,-14 51,-22l0 0c35,-15 70,-29 105,-43l0 0c28,-10 57,-19 85,-28l0 0c19,-6 37,-12 57,-18l0 0c33,-9 67,-17 101,-25l0 0c16,-3 32,-8 48,-11l0 0c9,-2 19,-3 29,-5l0 0c58,-11 118,-20 179,-26l0 0c21,-2 42,-4 63,-6l0 0c42,-3 85,-5 127,-6l0 0c23,0 45,-1 68,-1l0 0c35,0 69,2 104,3l0 0c27,2 53,2 79,4l0 0c28,2 56,6 85,9l0 0c31,3 62,7 94,11l0 0c26,4 52,8 78,13l0 0c34,6 68,12 102,18l0 0c23,5 46,10 69,16l0 0c36,8 73,17 110,27l0 0c23,6 46,12 69,19l0 0c39,11 78,23 118,36l0 0c19,6 39,12 59,19l0 0c51,18 103,37 156,58l0 0c7,3 15,5 23,8l0 0c60,24 120,50 180,78l0 0c18,8 36,16 53,25l0 0c44,20 88,42 132,64l0 0c21,10 42,21 63,32l0 0c57,30 114,61 172,95l0 0c37,21 74,44 112,67l0 0c24,15 49,30 74,46l0 0c30,19 61,39 91,59l0 0c26,17 52,34 79,52l0 0c28,19 57,40 86,61l0 0c28,19 56,39 83,59l0 0c53,39 106,78 158,119l0 0 -282 1655 913 -531 282 -1655c-48,-38 -96,-75 -145,-110l0 0c-4,-3 -8,-6 -12,-9l0 0c-28,-20 -56,-40 -84,-60l0 0c-25,-17 -49,-35 -73,-52l0 0c-4,-3 -9,-5 -13,-8l0 0c-26,-18 -52,-35 -78,-52l0 0c-26,-17 -51,-34 -76,-50l0 0c-5,-3 -10,-6 -15,-9l0 0c-25,-16 -50,-31 -75,-46l0 0c-25,-15 -50,-31 -74,-45l0 0c-13,-8 -25,-15 -38,-22l0 0c-41,-24 -82,-47 -123,-69l0 0c-17,-9 -33,-17 -49,-26l0 0c-21,-11 -42,-21 -62,-32l0 0c-16,-8 -32,-17 -48,-25l0 0c-28,-14 -56,-26 -84,-39l0 0c-18,-9 -36,-17 -53,-25l0 0c-7,-3 -14,-7 -21,-10l0 0c-52,-23 -104,-45 -156,-66l0 0c-1,0 -2,-1 -3,-2l0 0c-8,-3 -16,-5 -23,-8l0 0c-44,-17 -88,-34 -131,-49l0 0c-9,-3 -17,-6 -25,-9l0 0c-20,-6 -40,-13 -60,-19l0 0c-24,-8 -48,-16 -72,-24l0 0c-16,-4 -31,-8 -46,-12l0 0c-23,-7 -46,-13 -69,-19l0 0c-16,-4 -32,-10 -47,-13l0 0c-21,-6 -42,-10 -63,-14l0 0c-23,-6 -45,-11 -68,-15l0 0c-10,-2 -21,-5 -31,-7l0 0c-24,-5 -47,-8 -71,-12l0 0c-26,-4 -53,-9 -78,-13l0 0c-8,-1 -16,-3 -24,-4l0 0c-24,-3 -47,-4 -71,-7l0 0c-28,-3 -56,-7 -84,-9l0 0c-7,0 -14,-1 -20,-2l0 0c-20,-1 -39,-1 -59,-2l0 0c-35,-1 -70,-3 -104,-3l0 0c-7,0 -15,-1 -22,-1z"/>
     <path class="fil67" d="M42975 11413c7,17 14,35 21,52 39,99 77,197 113,296 4,12 8,25 13,37 32,92 63,184 92,276 5,16 11,32 16,49 30,97 58,194 84,290 6,22 12,44 17,65 25,94 48,187 68,280 2,6 3,13 5,19 21,97 39,194 56,291 4,21 8,41 11,62 17,99 32,198 43,295l914 -530c-1,-13 -3,-25 -5,-37 -8,-66 -17,-132 -28,-198 -3,-20 -7,-41 -10,-61 -4,-21 -7,-41 -11,-62 -5,-26 -9,-52 -14,-79 -13,-68 -26,-137 -42,-206 0,-2 -1,-4 -1,-6 -1,-6 -3,-12 -4,-18 -14,-62 -28,-124 -43,-186 -8,-32 -17,-63 -25,-95 -6,-21 -11,-43 -17,-64 -5,-18 -9,-35 -14,-53 -20,-70 -40,-140 -61,-211 -3,-9 -7,-18 -9,-27 -6,-17 -11,-33 -16,-49 -14,-44 -27,-87 -42,-131 -16,-48 -33,-96 -51,-145 -4,-12 -8,-25 -13,-37 -2,-6 -4,-13 -6,-19 -24,-65 -48,-130 -74,-195 -10,-27 -21,-54 -32,-82 -7,-17 -14,-35 -22,-52 -7,-19 -14,-37 -22,-56 -26,-62 -52,-125 -80,-187 -7,-15 -14,-31 -21,-46 -8,-17 -16,-34 -23,-51 -14,-31 -28,-62 -43,-93 -31,-67 -63,-133 -96,-199 -1,-3 -3,-7 -5,-10 -37,-75 -75,-148 -114,-222 -9,-18 -20,-35 -29,-52 -30,-55 -60,-109 -91,-163 -20,-37 -40,-73 -60,-109 -11,-18 -23,-36 -33,-54 -25,-42 -50,-84 -76,-125 -36,-59 -72,-117 -109,-175 -27,-41 -53,-82 -80,-123 -18,-27 -36,-54 -53,-81 -17,-25 -35,-49 -53,-73 -39,-57 -78,-112 -118,-168 -18,-24 -35,-50 -53,-74 -22,-30 -44,-58 -66,-87 -21,-27 -41,-53 -61,-79 -13,-17 -26,-34 -39,-51 -50,-63 -100,-126 -151,-187 -2,-2 -4,-5 -6,-7 -6,-7 -11,-13 -17,-20 -42,-50 -85,-100 -128,-149 -22,-25 -44,-49 -65,-73 -17,-18 -33,-36 -49,-54 -13,-14 -26,-29 -40,-44 -53,-57 -107,-114 -161,-169 -7,-7 -13,-13 -20,-20l-913 531c74,76 148,154 221,233 16,18 32,36 48,54 65,73 130,146 193,222 6,7 12,13 17,20 67,80 132,162 196,244 21,27 41,53 61,80 40,53 80,107 119,161 40,56 80,111 119,168 35,51 70,102 105,154 27,41 54,82 80,123 37,58 74,116 110,175 25,41 50,83 75,124 32,54 63,109 93,163 31,55 62,109 91,164 49,90 98,181 144,274 50,100 97,201 143,302 8,17 16,34 23,51 43,96 85,192 124,289z"/>
     <path class="fil30" d="M39617 7313c229,132 458,287 683,463l-282 1655c-132,-102 -268,-195 -407,-275 -1297,-750 -2353,-147 -2357,1344 -4,1491 1044,3307 2342,4056 1299,750 2354,148 2358,-1343l1604 926c-7,2493 -1798,3513 -3967,2261 -2169,-1252 -3948,-4334 -3941,-6826 7,-2493 1798,-3514 3967,-2261z"/>
     <path class="fil30" d="M41013 8412c655,663 1232,1477 1672,2359 439,880 726,1797 829,2654l-1585 -636c-127,-1049 -707,-2189 -1487,-2980l571 -1397z"/>
     <polygon class="fil68" points="41213,7245 40300,7776 40018,9431 40777,8990 41013,8412 41015,8411 "/>
     <polygon class="fil68" points="43514,13425 42375,12968 41954,13213 43558,14139 44472,13608 43834,13240 "/>
    </g>
    <path class="fil69" d="M61268 30378c1233,40 2221,1052 2228,2305l20 0c10,-1253 999,-2265 2228,-2305 -1236,-40 -2228,-1062 -2228,-2322l-17 0c0,1260 -991,2282 -2231,2322z"/>
    <path class="fil70" d="M260 31927c558,-18 1005,-476 1008,-1043l9 0c5,567 452,1025 1009,1043 -560,18 -1009,481 -1009,1051l-7 0c0,-570 -449,-1033 -1010,-1051z"/>
    <path class="fil71" d="M49999 3884c468,15 843,399 845,874l8 0c4,-475 379,-859 845,-874 -469,-15 -845,-403 -845,-881l-6 0c0,478 -377,866 -847,881z"/>
    <g>
     <path class="fil61" d="M5083 5766l0 -5c0,-326 -100,-565 -260,-687l0 0c-11,-10 -22,-19 -33,-28l0 0c-11,-10 -22,-19 -34,-28l0 0c-11,-9 -22,-19 -33,-27l0 0c-11,-10 -22,-19 -34,-28l0 0c-10,-10 -22,-19 -33,-28l0 0c-11,-9 -22,-19 -33,-27l0 0c-11,-10 -22,-19 -34,-28l0 0c-11,-10 -22,-19 -33,-28l0 0c-155,-141 -375,-163 -621,-33l0 0c-66,-147 -155,-264 -262,-348l0 0c-11,-10 -22,-19 -33,-28l0 0c-11,-9 -22,-19 -34,-27l0 0c-11,-10 -22,-19 -33,-28l0 0c-11,-10 -22,-19 -33,-28l0 0c-11,-9 -22,-19 -34,-27l0 0c-11,-10 -22,-19 -33,-28l0 0c-11,-10 -22,-19 -34,-28l0 0c-10,-10 -22,-19 -33,-28l0 0c-132,-117 -294,-179 -477,-179 -162,0 -340,49 -526,154l0 0c-620,347 -1144,1195 -1312,2049l0 0c-37,15 -73,32 -111,53l0 0c-541,303 -980,1138 -980,1866l0 0c0,34 2,66 4,99l0 0 31 -18c1,15 1,31 2,46l0 0 32 -18c0,15 1,30 1,45l0 0 32 -17c1,14 1,30 2,45l0 0 31 -18c1,15 1,31 2,46l0 0 32 -18c1,15 1,30 2,45l0 0 31 -18c1,15 1,31 2,46l0 0 32 -18c0,15 0,31 1,45l0 0 32 -17c1,15 1,30 2,45l0 0 31 -18c1,16 1,31 2,46l0 0 4775 -2675c2,-33 4,-66 4,-99z"/>
     <path class="fil62" d="M304 8540c-2,-33 -4,-65 -4,-99 0,-727 439,-1563 980,-1866 38,-21 75,-38 111,-53 169,-854 692,-1702 1312,-2049 664,-372 1217,-48 1343,722 54,-44 110,-83 167,-115 480,-269 870,36 870,681 0,34 -2,69 -4,104l-4775 2675z"/>
    </g>
   </g>
   <g>
    <path class="fil72" d="M56320 2516c0,-1143 714,-2118 1719,-2506 1375,117 2453,1270 2453,2675 0,1142 -713,2118 -1719,2506 -1374,-117 -2453,-1270 -2453,-2675z"/>
    <path class="fil71" d="M56320 2516c0,1405 1079,2558 2453,2675 -299,116 -625,179 -966,179 -1482,0 -2685,-1202 -2685,-2685 0,-1483 1203,-2685 2685,-2685 79,0 156,3 232,10 -1005,388 -1719,1363 -1719,2506z"/>
   </g>
  </g>
 </g>
</svg>
