<?xml version="1.0" encoding="UTF-8"?>
<!DOCTYPE svg PUBLIC "-//W3C//DTD SVG 1.1//EN" "http://www.w3.org/Graphics/SVG/1.1/DTD/svg11.dtd">
<!-- Creator: CorelDRAW X7 -->
<svg xmlns="http://www.w3.org/2000/svg" xml:space="preserve" width="27.1654in" height="11.6363in" version="1.1" style="shape-rendering:geometricPrecision; text-rendering:geometricPrecision; image-rendering:optimizeQuality; fill-rule:evenodd; clip-rule:evenodd"
viewBox="0 0 271654 116363"
 xmlns:xlink="http://www.w3.org/1999/xlink">
 <defs>
  <style type="text/css">
   <![CDATA[
    .fil37 {fill:none}
    .fil65 {fill:#576074}
    .fil64 {fill:#5E6D8F}
    .fil36 {fill:#6C7AA8}
    .fil23 {fill:#6C87C3}
    .fil33 {fill:#7875A3}
    .fil30 {fill:#7F96CB}
    .fil24 {fill:#8480BC}
    .fil45 {fill:#889ECE}
    .fil50 {fill:#8C9AC6}
    .fil58 {fill:#94A1CB}
    .fil18 {fill:#95A9D4}
    .fil99 {fill:#99A8D5}
    .fil60 {fill:#99ACD6}
    .fil62 {fill:#9BACD6}
    .fil35 {fill:#9DAFD7}
    .fil41 {fill:#9DAFD8}
    .fil31 {fill:#9EB0D8}
    .fil46 {fill:#9FB1D7}
    .fil53 {fill:#A0B2D8}
    .fil98 {fill:#A2AFD7}
    .fil17 {fill:#A38755}
    .fil57 {fill:#A5B5DC}
    .fil106 {fill:#A6B2D8}
    .fil56 {fill:#A7B7DC}
    .fil43 {fill:#A7B8DD}
    .fil100 {fill:#AAB6DC}
    .fil27 {fill:#AABADC}
    .fil51 {fill:#ABBBDF}
    .fil34 {fill:#ACBBDE}
    .fil39 {fill:#AFBDE0}
    .fil55 {fill:#B0BFE0}
    .fil105 {fill:#B3BEDE}
    .fil63 {fill:#B4C2E2}
    .fil107 {fill:#B5BEDE}
    .fil38 {fill:#B7C5E4}
    .fil21 {fill:#B8C5E3}
    .fil52 {fill:#B8C6E2}
    .fil104 {fill:#B9C2E0}
    .fil69 {fill:#BB9B61}
    .fil101 {fill:#BDC6E4}
    .fil40 {fill:#BDC9E6}
    .fil16 {fill:#C3A571}
    .fil108 {fill:#C3CBE5}
    .fil42 {fill:#C5D0E9}
    .fil54 {fill:#C7D1E8}
    .fil109 {fill:#CBD1E7}
    .fil20 {fill:#CCD7EB}
    .fil25 {fill:#CFD8ED}
    .fil22 {fill:#D0D9ED}
    .fil59 {fill:#D0DAED}
    .fil68 {fill:#D2AE6D}
    .fil67 {fill:#D4DDF2}
    .fil29 {fill:#D5DDF0}
    .fil71 {fill:#D9BC89}
    .fil48 {fill:#DDE3F2}
    .fil26 {fill:#E1E7F4}
    .fil83 {fill:#E3CCA2}
    .fil19 {fill:#E6EBF6}
    .fil44 {fill:#E9EDF7}
    .fil82 {fill:#EBDABB}
    .fil103 {fill:#EBECF5}
    .fil49 {fill:#EBEFF7}
    .fil102 {fill:#EFF0F7}
    .fil66 {fill:#EFF2FA}
    .fil28 {fill:#F3F5FB}
    .fil61 {fill:#F4F6FB}
    .fil0 {fill:#F7F0E3}
    .fil70 {fill:#FBFBFB}
    .fil32 {fill:white}
    .fil47 {fill:white}
    .fil87 {fill:#98A2D1;fill-rule:nonzero}
    .fil91 {fill:#9AA7D3;fill-rule:nonzero}
    .fil15 {fill:#AD915C;fill-rule:nonzero}
    .fil80 {fill:#AFBDE0;fill-rule:nonzero}
    .fil96 {fill:#B2BCDE;fill-rule:nonzero}
    .fil90 {fill:#B9C2E0;fill-rule:nonzero}
    .fil13 {fill:#BB9B61;fill-rule:nonzero}
    .fil78 {fill:#BDC9E6;fill-rule:nonzero}
    .fil94 {fill:#C2C8E4;fill-rule:nonzero}
    .fil89 {fill:#C3CBE5;fill-rule:nonzero}
    .fil76 {fill:#C5D0E9;fill-rule:nonzero}
    .fil12 {fill:#CAA96F;fill-rule:nonzero}
    .fil97 {fill:#CBD0E7;fill-rule:nonzero}
    .fil75 {fill:#CFD8ED;fill-rule:nonzero}
    .fil81 {fill:#D0D9ED;fill-rule:nonzero}
    .fil95 {fill:#D1D6EB;fill-rule:nonzero}
    .fil9 {fill:#D2AE6D;fill-rule:nonzero}
    .fil7 {fill:#D2B278;fill-rule:nonzero}
    .fil92 {fill:#D6DAED;fill-rule:nonzero}
    .fil11 {fill:#D7B67C;fill-rule:nonzero}
    .fil6 {fill:#D7B77D;fill-rule:nonzero}
    .fil14 {fill:#D8BE8F;fill-rule:nonzero}
    .fil3 {fill:#D9BC89;fill-rule:nonzero}
    .fil8 {fill:#DCC08D;fill-rule:nonzero}
    .fil88 {fill:#DDE0F0;fill-rule:nonzero}
    .fil73 {fill:#DDE4F2;fill-rule:nonzero}
    .fil4 {fill:#DFC79C;fill-rule:nonzero}
    .fil79 {fill:#E0E6F3;fill-rule:nonzero}
    .fil10 {fill:#E3CCA2;fill-rule:nonzero}
    .fil85 {fill:#E3D1B2;fill-rule:nonzero}
    .fil86 {fill:#E5CFAA;fill-rule:nonzero}
    .fil5 {fill:#E6D1AB;fill-rule:nonzero}
    .fil2 {fill:#EBDABF;fill-rule:nonzero}
    .fil77 {fill:#ECEFF8;fill-rule:nonzero}
    .fil84 {fill:#EDE1CB;fill-rule:nonzero}
    .fil93 {fill:#EFF0F7;fill-rule:nonzero}
    .fil1 {fill:#F2E6D1;fill-rule:nonzero}
    .fil72 {fill:#F5DBC7;fill-rule:nonzero}
    .fil74 {fill:#F5F7FB;fill-rule:nonzero}
   ]]>
  </style>
 </defs>
 <g id="Layer_x0020_1">
  <metadata id="CorelCorpID_0Corel-Layer"/>
  <g id="_2137108025760">
   <g>
    <path class="fil0" d="M0 116363l0 -93444c15427,1420 28818,-13212 47622,-18538 9652,-2733 31735,-3018 37855,6420 3242,4999 -488,7634 -2215,11444 -4212,9295 7835,9776 17202,5993 11521,-4653 27461,-18991 41570,-18322 3406,162 6949,1425 10154,3779 24162,17736 56454,27709 81524,5716 5248,-4604 10877,-9486 21426,-12556 4674,-1361 10042,-1859 16516,-981l0 110489 -271654 0z"/>
    <path class="fil1" d="M271654 20460c-38883,44580 -66809,378 -104281,12417 -5995,1927 -11202,4576 -16076,7529 -20608,12486 -35066,25982 -59852,25243 -42326,-1262 -62694,-36234 -91445,-17836l0 -11286c21907,-10486 46450,15097 71615,14975 20722,-101 36753,-9726 52743,-19495 32331,-19753 42761,-23643 80954,-10900 24899,8307 47333,17061 66342,-12967l0 12320zm0 43788c-39446,23877 -49962,-9879 -83466,20892l-71123 -6262c9242,-8285 62186,-52420 112636,-24615 20283,11179 34886,2821 41953,-3380l0 13365z"/>
    <g>
     <path class="fil2" d="M0 73764c0,0 134386,-14106 271654,0l0 42599 -271654 0 0 -42599z"/>
     <polygon class="fil3" points="0,64979 50851,63295 67669,76672 0,79293 "/>
     <polygon class="fil4" points="134846,72108 149234,64751 185549,64500 204220,72730 "/>
     <path class="fil5" d="M0 77953c0,0 134386,-14105 271654,0l0 38410 -271654 0 0 -38410z"/>
     <path class="fil6" d="M178033 81912c-1972,-471 -1399,-2135 741,-2151 10102,-73 27625,-853 52822,-4234 19047,-2555 31788,-4370 40058,-5597l0 25286c-16698,-265 -48472,-2528 -93621,-13304z"/>
     <path class="fil7" d="M0 98599c0,0 20906,-1158 55611,-8653 34705,-7496 76281,-13397 111782,-7239 31595,5481 65722,15896 104261,16250l0 7603c-13534,820 -30378,632 -48725,-1680 -62616,-7889 -98273,14588 -166264,6845 -29676,-3379 -46794,-4462 -56665,-4610l0 -8516z"/>
     <polygon class="fil3" points="209042,72108 219623,63295 271654,64248 271654,79446 "/>
     <polygon class="fil4" points="15418,77227 28343,69714 85034,68098 96862,74561 "/>
     <path class="fil8" d="M18501 61784c-7022,212 -13359,579 -18501,1027l0 1427c16519,-1409 42871,-1730 49597,-105 6011,-1810 -9422,-3006 -31096,-2349z"/>
     <path class="fil9" d="M0 66973c16501,427 42835,-804 49597,-2840 -6725,-1625 -33077,-1305 -49597,105l0 2735z"/>
     <path class="fil10" d="M167352 62848c-12069,84 -20743,1342 -17449,2521 4990,-1853 30001,-2018 34981,-235 3301,-1226 -5419,-2371 -17532,-2286z"/>
     <path class="fil11" d="M149903 65369c4982,1784 29995,1617 34980,-235 -4982,-1784 -29994,-1617 -34980,235z"/>
     <path class="fil8" d="M271654 61912c-5416,-385 -12278,-647 -19868,-710 -20733,-173 -35992,1229 -31468,2857 5664,-1947 34429,-2198 51336,-1037l0 -1110z"/>
     <path class="fil9" d="M271654 63022c-16909,-1163 -45675,-909 -51336,1037 5680,2044 34435,2759 51336,1873l0 -2910z"/>
     <polygon class="fil5" points="195161,74374 201546,68862 251179,70139 258030,79006 "/>
     <path class="fil6" d="M21969 73419c0,0 27364,5043 65311,5672 3212,54 3677,2650 549,3064 -45523,6035 -79052,6429 -87829,6417l0 -13526c23520,-2298 20693,-1627 21969,-1627z"/>
     <path class="fil12" d="M217733 110138c244,-140 384,-287 397,-440 118,-1418 -10070,-2841 -22755,-3179 -12685,-337 -23064,538 -23182,1955 -16,185 149,371 468,554 4578,-2631 40042,-1775 45072,1110z"/>
     <path class="fil11" d="M217733 110138c-5030,-2885 -40494,-3741 -45072,-1110 5031,2886 40495,3740 45072,1110z"/>
     <path class="fil13" d="M96360 108476c3316,-1743 -5447,-3330 -17492,-3173 -11480,149 -20051,1816 -17542,3445 5146,-2705 31006,-2886 35034,-272z"/>
     <path class="fil9" d="M96360 108476c-4027,-2614 -29887,-2434 -35034,272 4026,2613 29886,2434 35034,-272z"/>
     <path class="fil14" d="M174431 113957c-5124,-1116 -14485,-2084 -22205,-2084 -6863,0 -13988,1113 -18507,2339 -3046,827 -4652,1541 -5141,2151l50590 0c669,-700 -615,-1508 -4737,-2406z"/>
     <polygon class="fil13" points="0,104199 38586,101146 61243,106817 77505,116363 0,116363 "/>
     <path class="fil13" d="M41340 89029c3768,-2314 -10142,-3166 -28331,-1747 -4777,372 -9186,849 -13009,1380l0 1517c14631,-2020 36040,-2998 41340,-1150z"/>
     <path class="fil9" d="M41340 89029c-5305,-1849 -26711,-870 -41340,1150l0 4088c15100,-208 37027,-2590 41340,-5238z"/>
     <path class="fil10" d="M84265 68676c4348,-1378 -9219,-2189 -27787,-1626 -18417,558 -31711,2162 -27413,3272 7007,-2222 48237,-3444 55200,-1646z"/>
     <path class="fil11" d="M84265 68676c-6970,-1800 -48205,-572 -55200,1646 6969,1801 48204,573 55200,-1646z"/>
     <path class="fil10" d="M250289 70702c4354,-1091 -7334,-2585 -23790,-3003 -16562,-420 -28477,491 -24089,1809 6697,-1678 41175,-820 47879,1194z"/>
     <path class="fil11" d="M250289 70702c-6692,-2011 -41167,-2875 -47879,-1194 6692,2011 41166,2875 47879,1194z"/>
     <path class="fil13" d="M188540 78198c-7617,0 -13156,1070 -11067,2150 3147,-1627 18984,-1628 22133,0 2088,-1079 -3441,-2150 -11066,-2150z"/>
     <path class="fil9" d="M177473 80348c3147,1627 18983,1628 22133,0 -3147,-1627 -18984,-1628 -22133,0z"/>
     <path class="fil13" d="M271654 87240c-4932,-768 -11600,-1424 -19093,-1797 -18406,-914 -32224,348 -28095,2565 5306,-2345 32740,-1574 47188,643l0 -1411z"/>
     <path class="fil9" d="M271654 88651c-14445,-2216 -41873,-2992 -47188,-643 5311,2852 32742,4701 47188,3863l0 -3220z"/>
     <polygon class="fil9" points="0,70864 22025,72008 32345,79886 0,83337 "/>
     <polygon class="fil9" points="232366,79006 271654,81574 271654,71684 245043,73934 "/>
     <path class="fil9" d="M48748 83641c0,-516 -2558,-934 -5715,-934 -3156,0 -5715,418 -5715,934 0,515 2559,933 5715,933 3157,0 5715,-418 5715,-933z"/>
     <path class="fil9" d="M222929 78198c0,-515 -2559,-934 -5715,-934 -3157,0 -5715,419 -5715,934 0,516 2558,934 5715,934 3156,0 5715,-418 5715,-934z"/>
     <path class="fil9" d="M67041 103946c0,-515 -2559,-933 -5715,-933 -3157,0 -5715,418 -5715,933 0,516 2558,934 5715,934 3156,0 5715,-418 5715,-934z"/>
     <path class="fil9" d="M183913 76742c61,-625 -2992,-1230 -6820,-1351 -3829,-121 -6982,289 -7044,914 -62,625 2992,1230 6821,1351 3828,121 6981,-289 7043,-914z"/>
     <path class="fil9" d="M271654 93927c-1446,-210 -3352,-338 -5440,-338 -4520,0 -8184,599 -8184,1337 0,738 3664,1337 8184,1337 2088,0 3994,-128 5440,-338l0 -1998z"/>
     <polygon class="fil15" points="0,111799 29448,109990 42480,116363 0,116363 "/>
    </g>
    <g>
     <path class="fil16" d="M76156 101543c22061,0 39946,-1367 39946,-3053 0,-1687 -17885,-3054 -39946,-3054 -22061,0 -39945,1367 -39945,3054 0,1686 17884,3053 39945,3053z"/>
     <path class="fil17" d="M69016 99982c14144,0 25610,-529 25610,-1182 0,-653 -11466,-1182 -25610,-1182 -14144,0 -25610,529 -25610,1182 0,653 11466,1182 25610,1182z"/>
     <g>
      <path class="fil18" d="M59366 92756l0 -15621c-559,-1424 -523,-3055 -584,-4026 -151,1115 -199,1645 -963,3204l0 145 727 0 0 16298 -727 0 0 726 1547 0 0 -726z"/>
      <path class="fil19" d="M51061 98132l0 -8037 6758 -13782 0 16217 -6758 5602zm-961 -4540l324 -660 637 -1299 0 -1538 -1343 2738 0 1538 382 -779z"/>
      <path class="fil20" d="M51061 98132c0,393 -9,541 -73,609 -63,68 -180,59 -564,59l0 -5868 637 -1299 0 6499z"/>
      <polygon class="fil21" points="50100,93592 50100,98800 50424,98800 50424,92932 "/>
      <path class="fil22" d="M58019 45691l0 20729c-12,2530 -92,4257 -200,5604 -184,2285 -619,3660 -2174,7338 -1558,3689 -3609,8549 -4264,10081l6438 -13130c764,-1559 812,-2089 963,-3204 103,1638 -50,5233 2825,6467l-162 -37773c-5,-3711 -13,-7195 420,-10907 371,-3103 1318,-9487 2626,-12302 263,-566 583,-1059 891,-1075 323,-17 610,387 877,705 5,-9 -932,-1954 -1614,-1687 -265,104 -720,703 -907,944 -964,1246 -1310,2164 -1937,3533 -597,1316 -1451,3753 -2111,6031 -746,2578 -1248,5354 -1495,8104 -298,3338 -176,7143 -176,10542z"/>
      <polygon class="fil23" points="71220,93665 59366,93665 59366,92756 71220,92756 "/>
      <path class="fil24" d="M66218 18165c-1618,2488 -1733,7484 -1733,7484l5316 0c-282,-1620 -1546,-4781 -2401,-6160 -615,-991 -1092,-1277 -1182,-1324z"/>
      <path class="fil25" d="M67325 19777c723,1300 1693,3978 2125,5872l351 0c-282,-1620 -1546,-4781 -2401,-6160 -615,-991 -1092,-1277 -1182,-1324 -27,40 -53,81 -78,123 161,109 628,486 1185,1489z"/>
      <path class="fil26" d="M61492 54216l41 10913 0 8 53 14361c-11,-4 -23,-9 -35,-13l17 13271 9652 0 658 0 0 -29258c0,0 64,-4111 96,-9282 41,-6763 27,-15339 -257,-18911 -502,-6304 -1916,-9656 -1916,-9656l-351 0 -4965 0c0,0 111,-4835 1655,-7361 24,-40 49,-79 74,-118 -254,-308 -527,-667 -832,-651 -308,16 -628,509 -891,1075 -165,356 -325,768 -478,1224 -688,2046 -1251,4961 -1651,7497 -215,1370 -383,2630 -497,3581 -433,3712 -425,7196 -420,10907l47 12413z"/>
      <path class="fil18" d="M71476 28903c-27,-337 -76,-790 -163,-1295 -322,-1861 -978,-2718 -2036,-3870 245,722 434,1395 524,1911 0,0 446,1058 926,3101 13,11 26,22 39,33l189 164c221,197 399,346 431,337 91,-25 101,-242 90,-381z"/>
      <polygon class="fil25" points="57819,76375 58546,76375 58546,92756 57819,92756 "/>
      <path class="fil27" d="M59366 77135l0 15621 2202 0 -17 -13271 35 13c-1171,-503 -1836,-1384 -2220,-2363z"/>
      <polygon class="fil23" points="66637,97501 66637,93665 65181,93665 66371,96799 "/>
      <path class="fil28" d="M76174 91062l-389 5090 285 0 544 1099 192 1549 1215 0 0 -5533c-1738,-4848 -3505,-9835 -5453,-14648 -181,-448 -908,-2489 -1088,-2758 -149,-222 -308,-324 -439,-309 -129,15 -282,137 -275,375l62 2061 904 1417 4442 11657z"/>
      <path class="fil20" d="M76800 93558c-60,-697 -155,-1392 -306,-2081 -71,664 -136,1363 -188,2081l494 0z"/>
      <path class="fil29" d="M71878 79351c-417,-1028 -1050,-3279 -1050,-2575l4 15979c129,69 337,158 440,252 634,582 1425,1382 2188,2179 1435,1497 2768,2982 2768,2982 111,-213 112,-3906 156,-4517 51,-719 39,-1510 110,-2174 -3,-11 -5,-23 -8,-35 -33,-148 -70,-308 -112,-480 -290,-1184 -2813,-7473 -4496,-11611z"/>
      <path class="fil30" d="M58546 92756l-727 0 0 187 955 0 0 -16307 0 -800 -729 0c-67,148 -142,306 -226,477l0 145 0 137c67,-68 141,-112 219,-137 111,-35 231,-32 353,0 52,13 104,31 155,54l0 16244z"/>
      <path class="fil31" d="M59492 77430c-560,-1424 -649,-3350 -710,-4321 -151,1115 -199,1645 -963,3204l0 282c507,-516 1436,317 1673,835z"/>
      <path class="fil32" d="M69450 25649c501,1596 1153,4157 1559,7632 416,3559 746,12129 954,18889 6,201 13,401 18,599 31,-6494 0,-14143 -264,-17464 -220,-2763 -616,-4959 -990,-6555 -480,-2043 -926,-3101 -926,-3101l-351 0z"/>
      <path class="fil33" d="M65030 41301l-893 0 0 659 893 0 0 -659zm6453 0l-342 0 0 659 342 0 0 -659zm-889 0c-151,0 -302,0 -453,0 0,220 0,439 0,659 151,0 302,0 453,0 0,-220 0,-439 0,-659zm-1061 0c-187,0 -375,0 -562,0 0,220 0,439 0,659 187,0 375,0 562,0 0,-220 0,-439 0,-659zm-1370 0c-224,0 -449,0 -673,0 0,220 0,439 0,659 224,0 449,0 673,0 0,-220 0,-439 0,-659zm-1541 0c-261,0 -522,0 -783,0 0,220 0,439 0,659 261,0 522,0 783,0 0,-220 0,-439 0,-659zm4861 -2799l-342 0 0 659 342 0 0 -659zm-870 0c-151,0 -301,0 -452,0 0,220 0,439 0,659 151,0 301,0 452,0 0,-220 0,-439 0,-659zm-1090 0c-187,0 -375,0 -562,0 0,220 0,439 0,659 187,0 375,0 562,0 0,-220 0,-439 0,-659zm-1356 0c-224,0 -449,0 -673,0 0,220 0,439 0,659 224,0 449,0 673,0 0,-220 0,-439 0,-659zm-1536 0c-261,0 -522,0 -784,0 0,220 0,439 0,659 262,0 523,0 784,0 0,-220 0,-439 0,-659zm4658 -2806l-342 0 0 658 342 0 0 -658zm-687 0c-151,0 -302,0 -453,0 0,219 0,439 0,658 151,0 302,0 453,0 0,-219 0,-439 0,-658zm-1145 0c-188,0 -375,0 -563,0 0,219 0,439 0,658 188,0 375,0 563,0 0,-219 0,-439 0,-658zm-1345 0c-224,0 -448,0 -673,0 0,219 0,439 0,658 225,0 449,0 673,0 0,-219 0,-439 0,-658zm-1481 0c-261,0 -523,0 -784,0 0,219 0,439 0,658 261,0 523,0 784,0 0,-219 0,-439 0,-658zm-364 -8311c-229,0 -458,0 -687,0 0,219 0,439 0,659 229,0 458,0 687,0 0,-220 0,-440 0,-659zm3778 0l-313 0 0 659 313 0 0 -659zm-638 0c-160,0 -320,0 -480,0 0,219 0,439 0,659 160,0 320,0 480,0 0,-220 0,-440 0,-659zm-913 0c-194,0 -389,0 -583,0 0,219 0,439 0,659 194,0 389,0 583,0 0,-220 0,-440 0,-659zm-1063 0c-229,0 -458,0 -687,0 0,219 0,439 0,659 229,0 458,0 687,0 0,-220 0,-440 0,-659zm3189 2728l-317 0 0 659 317 0 0 -659zm-656 0c-144,0 -289,0 -433,0 0,220 0,439 0,659 144,0 289,0 433,0 0,-220 0,-439 0,-659zm-990 0c-183,0 -365,0 -548,0 0,220 0,439 0,659 183,0 365,0 548,0 0,-220 0,-439 0,-659zm-1129 0c-221,0 -442,0 -663,0 0,220 0,439 0,659 221,0 442,0 663,0 0,-220 0,-439 0,-659zm-1411 0c-260,0 -519,0 -779,0 0,220 0,439 0,659 260,0 519,0 779,0 0,-220 0,-439 0,-659zm4633 2807l-342 0 0 659 342 0 0 -659zm-732 0c-160,0 -320,0 -480,0 0,220 0,439 0,659 160,0 320,0 480,0 0,-220 0,-439 0,-659zm-1115 0c-194,0 -389,0 -583,0 0,220 0,439 0,659 194,0 389,0 583,0 0,-220 0,-439 0,-659zm-1220 0c-229,0 -458,0 -686,0 0,220 0,439 0,659 228,0 457,0 686,0 0,-220 0,-439 0,-659zm-1457 0c-264,0 -527,0 -791,0 0,220 0,439 0,659 264,0 527,0 791,0 0,-220 0,-439 0,-659zm-1422 -5535l-894 0 0 659 894 0 0 -659zm-77 2728l-894 0 0 659 894 0 0 -659zm-88 2807l-894 0 0 659 894 0 0 -659zm27 2776l-894 0 0 658 894 0 0 -658zm47 2806l-893 0 0 659 893 0 0 -659z"/>
      <path class="fil34" d="M61209 30970c-480,3758 -471,7285 -466,11042l152 37110c209,141 438,267 691,376l-141 -37695c-5,-3711 -13,-7195 420,-10907 114,-951 282,-2211 497,-3581 -179,-12 -360,-9 -541,10 -19,2 -38,4 -58,7 -240,1392 -427,2672 -554,3638z"/>
      <path class="fil35" d="M64013 19818c154,-456 313,-868 478,-1224 263,-566 583,-1059 891,-1075 19,-1 37,-1 55,1 -105,-62 -213,-99 -325,-93 -343,16 -697,515 -989,1088 -281,552 -547,1238 -796,2010 41,-43 82,-85 122,-127 212,-220 402,-415 564,-580z"/>
      <path class="fil36" d="M65513 25649c43,-940 271,-4353 1360,-6589 -348,-480 -618,-694 -733,-772 -1544,2526 -1655,7361 -1655,7361l1028 0z"/>
      <path class="fil37" d="M67504 43928l-3262 0c-431,0 -784,352 -784,784l0 3167c0,431 353,784 784,784l3262 0c431,0 784,-353 784,-784l0 -3167c0,-432 -353,-784 -784,-784z"/>
      <path class="fil38" d="M64536 48328l3024 0c155,0 296,-63 399,-166 102,-102 166,-243 166,-398l0 -2937c0,-155 -64,-296 -166,-399 -103,-102 -244,-166 -399,-166l-3024 0c-155,0 -296,64 -399,166 -102,103 -166,244 -166,399l0 2937c0,155 64,296 166,398 103,103 244,166 399,166zm0 163l3024 0c400,0 727,-328 727,-727l0 -2937c0,-400 -327,-727 -727,-727l-3024 0c-400,0 -727,327 -727,727l0 2937c0,399 327,727 727,727z"/>
      <path class="fil25" d="M63220 51870l-47 -12413c-7,-5883 15,-12409 1188,-18201 299,-1478 710,-2815 1331,-3634 -83,-56 -168,-94 -255,-102 -18,-2 -36,-2 -55,-1 -308,16 -628,509 -891,1075 -165,356 -324,768 -478,1224 -688,2046 -1251,4961 -1651,7497 -215,1370 -383,2630 -497,3581 -433,3712 -425,7196 -420,10907l106 37682 17 13271 1726 0 -33 -29964 -41 -10922z"/>
      <path class="fil39" d="M59947 35106c305,0 600,184 879,527 65,-1537 181,-3079 383,-4663 127,-966 314,-2246 554,-3638 -803,100 -1623,518 -2497,1306 -516,2111 -874,4319 -1071,6511 -78,873 -127,1777 -157,2698 528,-1718 1190,-2741 1909,-2741z"/>
      <path class="fil40" d="M60826 35633c-279,-343 -574,-527 -879,-527 -719,0 -1381,1023 -1909,2741 -79,2389 -29,4887 -20,7224 462,-2634 1127,-4286 1866,-4286 302,0 591,274 858,778 -2,-2014 0,-3967 84,-5930z"/>
      <path class="fil41" d="M60826 35633c-84,1963 -86,3916 -84,5930 259,486 498,1186 710,2058l-7 -1818c-2,-1703 -5,-3359 35,-5010 -205,-486 -424,-877 -654,-1160z"/>
      <path class="fil42" d="M60742 41563c-267,-504 -556,-778 -858,-778 -739,0 -1404,1652 -1866,4286 1,208 1,415 1,620l0 5622c381,-2782 943,-4542 1571,-4542 439,0 847,863 1182,2335l-29 -7094c0,-150 0,-300 -1,-449z"/>
      <path class="fil43" d="M60772 49106l0 1c315,1381 566,3298 721,5541l0 -2 -41 -11025c-212,-872 -451,-1572 -710,-2058l1 449 29 7094z"/>
      <path class="fil18" d="M62632 25696c473,-2679 1106,-5481 1859,-7102 263,-566 583,-1059 891,-1075 323,-17 610,387 877,705 5,-9 -932,-1954 -1614,-1687 -265,104 -720,703 -907,944 -964,1246 -1310,2164 -1937,3533 -480,1058 -1126,2840 -1704,4682l2535 0z"/>
      <path class="fil18" d="M61694 27739c-207,1234 -371,2360 -485,3231 -202,1584 -318,3126 -383,4663 230,283 449,674 654,1160 46,-1947 151,-3889 385,-5897 103,-863 251,-1980 439,-3203 19,-125 38,-251 58,-378 -179,-12 -360,-9 -541,10 -993,114 -1827,657 -2555,1313 -33,136 -66,273 -98,410 879,-753 1710,-1176 2526,-1309l0 0z"/>
      <path class="fil44" d="M66794 92756l2239 0 1799 0 -4 -15980c-35,-327 -71,-643 -34,-843 88,-473 393,-510 686,-72 71,105 225,484 398,932l0 -13295c0,0 59,-3759 91,-8611 -735,-2899 -1606,-4577 -2540,-4577 -2632,0 -4765,13320 -4765,29751 0,4541 163,8844 454,12695l1676 0z"/>
      <polygon class="fil45" points="67406,93665 67406,97501 66637,97501 66371,96799 66371,98002 67892,98002 67892,93665 "/>
      <polygon class="fil46" points="66637,97501 67406,97501 67406,93665 66637,93665 "/>
      <path class="fil28" d="M67257 92756l2239 0c108,-2793 170,-6031 170,-9482 0,-10533 -577,-19071 -1290,-19071 -712,0 -1290,8538 -1290,19071 0,3451 62,6689 171,9482z"/>
      <path class="fil47" d="M67942 92756l778 0c37,-1574 59,-3398 59,-5342 0,-5934 -201,-10745 -448,-10745 -248,0 -448,4811 -448,10745 0,1944 21,3768 59,5342z"/>
      <path class="fil48" d="M60432 63570c-105,-6346 -473,-11032 -912,-11032 -438,0 -807,4686 -912,11032 105,6345 474,11032 912,11032 439,0 807,-4687 912,-11032z"/>
      <path class="fil49" d="M59953 63570c-50,-3182 -225,-5531 -433,-5531 -208,0 -383,2349 -433,5531 50,3182 225,5531 433,5531 208,0 383,-2349 433,-5531z"/>
      <path class="fil50" d="M62632 25696c473,-2679 1106,-5481 1859,-7102 263,-566 583,-1059 891,-1075 323,-17 610,387 877,705 1,-3 -85,-186 -224,-430 -328,-341 -695,-598 -975,-455 -253,130 -645,771 -807,1030 -834,1336 -1087,2285 -1573,3710 -291,862 -639,2178 -964,3617l916 0z"/>
      <path class="fil51" d="M61821 27325c181,-19 362,-22 541,-10 400,-2536 963,-5451 1651,-7497 -162,165 -352,360 -564,580 -662,1817 -1215,4473 -1628,6927z"/>
      <path class="fil52" d="M58681 27481c-71,508 -104,962 -120,1300 -7,139 10,356 102,378 32,8 205,-147 420,-352 61,-58 122,-115 183,-169 895,-807 1733,-1226 2555,-1313 413,-2454 966,-5110 1628,-6927 -754,784 -1512,1590 -2231,2421 -1395,1613 -2227,2432 -2537,4662z"/>
      <path class="fil53" d="M63890 20198c40,-128 81,-253 122,-375 -162,165 -353,361 -565,580 -754,784 -1511,1590 -2231,2421 -1395,1613 -2227,2433 -2537,4662 -70,508 -104,963 -120,1301 -5,98 3,237 40,316 23,-316 59,-684 114,-1079 356,-2564 1313,-3506 2917,-5361 730,-844 1494,-1665 2260,-2465z"/>
      <polygon class="fil45" points="70250,93665 62473,93665 62473,92756 70250,92756 "/>
      <polygon class="fil46" points="69494,93665 64835,93665 64835,92756 69494,92756 "/>
      <polygon class="fil54" points="68846,93665 66794,93665 66794,92756 68846,92756 "/>
      <path class="fil21" d="M58207 63859l112 -14341c-109,534 -210,1136 -300,1795l0 15107c-9,1774 -50,3154 -112,4285 197,-2956 282,-4652 300,-6846z"/>
      <path class="fil55" d="M58019 51313c90,-659 191,-1261 300,-1795l25 -3276c0,-869 -8,-1765 -15,-2673 -111,455 -216,957 -311,1502 1,208 1,415 1,620l0 5622z"/>
      <path class="fil56" d="M58018 45071c95,-545 200,-1047 311,-1502 -17,-2282 -28,-4639 113,-6839 -142,329 -277,703 -404,1117 -79,2389 -29,4887 -20,7224z"/>
      <path class="fil57" d="M58038 37847c127,-414 262,-788 404,-1117 22,-348 48,-691 79,-1030 214,-2396 623,-4813 1219,-7100 -189,134 -379,283 -572,448 -463,1986 -789,4051 -973,6101 -78,873 -127,1777 -157,2698z"/>
      <path class="fil58" d="M61668 22307c205,-555 423,-1109 654,-1638 846,-1945 1960,-3556 2594,-3805 289,-113 632,210 933,621 -334,-522 -811,-1102 -1204,-948 -265,104 -720,703 -907,944 -964,1246 -1310,2164 -1937,3533 -245,538 -532,1265 -832,2091 81,-93 164,-188 249,-286 149,-172 299,-342 450,-512z"/>
      <path class="fil28" d="M76800 93558l-494 0c-99,1385 -149,2844 -105,4265l27 345 275 0 0 632 373 0c0,0 0,-3037 -32,-4624 -12,-206 -26,-412 -44,-618z"/>
      <path class="fil59" d="M76800 93558l-297 0 0 4610 0 632 373 0c0,0 0,-3037 -32,-4624 -12,-206 -26,-412 -44,-618z"/>
      <path class="fil60" d="M61551 79483c-239,-106 -457,-227 -656,-361 -2,-2 -4,-3 -6,-5l0 13639 692 0 -30 -13273z"/>
      <polygon class="fil61" points="50100,98800 50100,96196 50100,93592 50100,92833 49718,92833 49718,94371 49718,96196 49718,98800 "/>
      <path class="fil53" d="M57904 92756l0 -16232c-30,20 -58,43 -85,71l0 15935 0 226 85 0z"/>
      <polygon class="fil30" points="57819,76313 57819,76595 51476,89248 "/>
      <path class="fil62" d="M57923 76375c60,-131 141,-316 229,-539 269,-683 607,-1730 630,-2727 -150,1115 -199,1645 -963,3204l0 145 0 137c0,0 25,-49 66,-137 12,-25 25,-52 38,-83z"/>
      <path class="fil63" d="M58774 76636c232,153 445,369 589,574 1,2 2,3 3,4 52,75 95,148 126,216 -1,0 -1,0 -1,0 -28,-72 -55,-146 -81,-220 -487,-1397 -570,-3179 -628,-4101 -12,516 -108,1046 -236,1531l0 1196 0 539 0 83 0 54c77,33 154,75 228,124z"/>
      <path class="fil47" d="M67986 44827l0 2937c0,208 -89,396 -230,529 77,-29 146,-74 203,-131 102,-102 166,-243 166,-398l0 -2937c0,-155 -64,-296 -166,-399 -57,-57 -126,-102 -203,-130 141,132 230,321 230,529z"/>
      <path class="fil41" d="M63809 47764l0 -2937c0,-177 64,-340 171,-466 -30,20 -57,42 -82,67 -102,103 -166,244 -166,399l0 2937c0,155 64,296 166,398 25,25 52,48 82,68 -107,-126 -171,-289 -171,-466z"/>
      <polygon class="fil20" points="51061,90095 49718,92833 50100,92833 50100,93059 50362,93059 50424,92932 51061,91633 "/>
      <polygon class="fil31" points="50100,93592 51061,91633 51061,90864 50100,92833 "/>
      <path class="fil64" d="M64870 25649c23,-1289 195,-4996 1372,-7284 -41,-34 -76,-59 -102,-77 -1544,2526 -1655,7361 -1655,7361l385 0z"/>
      <path class="fil64" d="M69416 25504l-3899 0c-2,51 -3,100 -4,145l3937 0c-8,-41 -28,-114 -34,-145z"/>
      <path class="fil65" d="M64873 25504l-81 0 -302 0c-1,95 -5,145 -5,145l306 0 79 0 643 0c1,-45 2,-98 7,-145l-647 0z"/>
      <path class="fil47" d="M68142 20903c-78,38 -148,92 -206,156 147,344 294,715 438,1100 19,1 38,2 57,2 85,0 165,-16 240,-44 -172,-421 -351,-833 -529,-1214z"/>
      <path class="fil66" d="M67936 21059c58,-64 128,-118 206,-156 -88,-189 -176,-371 -262,-543 -71,34 -138,75 -200,121 84,181 170,375 256,578z"/>
      <path class="fil66" d="M68671 22117c-75,28 -155,44 -240,44 -19,0 -38,-1 -57,-2 74,195 146,394 217,595 105,-13 206,-39 302,-77 -72,-187 -147,-375 -222,-560z"/>
      <path class="fil67" d="M67680 20481c62,-46 129,-87 200,-121 -65,-129 -129,-253 -192,-370 -67,33 -131,70 -192,111 60,119 122,246 184,380z"/>
      <path class="fil67" d="M68893 22677c-96,38 -197,64 -302,77 46,133 93,267 138,401 107,-20 211,-49 311,-88 -48,-129 -97,-260 -147,-390z"/>
     </g>
    </g>
    <g>
     <path class="fil68" d="M118759 85929c10488,0 18989,-521 18989,-1164 0,-643 -8501,-1164 -18989,-1164 -10487,0 -18989,521 -18989,1164 0,643 8502,1164 18989,1164z"/>
     <path class="fil69" d="M115385 85422c6724,0 12174,-252 12174,-562 0,-311 -5450,-562 -12174,-562 -6724,0 -12175,251 -12175,562 0,310 5451,562 12175,562z"/>
     <g>
      <path class="fil18" d="M110797 81986l0 -7425c-266,-677 -248,-1453 -277,-1914 -72,530 -95,782 -458,1523l0 69 346 0 0 7747 -346 0 0 346 735 0 0 -346z"/>
      <path class="fil19" d="M106849 84542l0 -3820 3213 -6552 0 7709 -3213 2663zm-457 -2158l154 -314 303 -617 0 -731 -638 1301 0 731 181 -370z"/>
      <path class="fil20" d="M106849 84542c0,187 -4,257 -34,290 -30,32 -86,28 -269,28l0 -2790 303 -617 0 3089z"/>
      <polygon class="fil21" points="106392,82384 106392,84860 106546,84860 106546,82070 "/>
      <path class="fil22" d="M110157 59613l0 9854c-6,1203 -44,2024 -95,2664 -88,1086 -295,1740 -1033,3488 -741,1754 -1716,4064 -2028,4792l3061 -6241c363,-741 386,-993 458,-1523 48,778 -24,2488 1343,3074l-77 -17957c-3,-1764 -6,-3420 199,-5184 177,-1476 627,-4510 1249,-5848 125,-270 277,-504 423,-512 154,-8 290,184 417,336 2,-5 -443,-929 -767,-802 -126,49 -343,334 -431,448 -459,593 -623,1029 -921,1680 -284,625 -690,1784 -1004,2867 -354,1226 -593,2545 -710,3853 -142,1586 -84,3395 -84,5011z"/>
      <polygon class="fil23" points="116432,82419 110797,82419 110797,81986 116432,81986 "/>
      <path class="fil24" d="M114054 46528c-769,1182 -823,3557 -823,3557l2527 0c-134,-770 -735,-2273 -1142,-2928 -292,-471 -519,-607 -562,-629z"/>
      <path class="fil25" d="M114581 47294c343,618 804,1891 1010,2791l167 0c-134,-770 -735,-2273 -1142,-2928 -292,-471 -519,-607 -562,-629 -12,19 -24,38 -37,58 77,52 299,231 564,708z"/>
      <path class="fil26" d="M111808 63665l19 5188 0 4 26 6827c-6,-2 -11,-4 -17,-6l8 6308 4588 0 313 0 0 -13908c0,0 31,-1954 46,-4413 19,-3214 13,-7292 -123,-8989 -238,-2997 -910,-4591 -910,-4591l-167 0 -2360 0c0,0 53,-2298 786,-3499 12,-19 24,-38 36,-56 -121,-146 -251,-317 -396,-310 -146,8 -298,242 -423,512 -79,169 -155,365 -228,581 -327,973 -595,2359 -784,3564 -103,652 -183,1250 -237,1703 -205,1764 -202,3420 -199,5184l22 5901z"/>
      <path class="fil18" d="M116554 51632c-13,-160 -36,-375 -78,-615 -152,-885 -464,-1292 -967,-1840 116,343 206,663 249,908 0,0 212,503 440,1475 6,5 12,10 19,15l89 78c106,94 190,165 205,161 44,-13 48,-116 43,-182z"/>
      <polygon class="fil25" points="110062,74199 110408,74199 110408,81986 110062,81986 "/>
      <path class="fil27" d="M110797 74561l0 7425 1047 0 -8 -6308 17 6c-557,-239 -873,-658 -1056,-1123z"/>
      <polygon class="fil23" points="114254,84242 114254,82419 113562,82419 114127,83908 "/>
      <path class="fil28" d="M118787 81181l-185 2420 136 0 259 522 91 737 577 0 0 -2631c-826,-2304 -1666,-4675 -2592,-6963 -86,-213 -431,-1183 -517,-1311 -71,-106 -146,-154 -209,-147 -61,7 -134,65 -130,178l29 980 430 673 2111 5542z"/>
      <path class="fil20" d="M119085 82368c-28,-332 -74,-662 -145,-989 -34,315 -65,647 -90,989l235 0z"/>
      <path class="fil29" d="M116745 75614c-198,-489 -499,-1559 -499,-1224l2 7596c61,33 160,75 209,120 301,276 678,657 1040,1036 682,711 1316,1417 1316,1417 53,-101 53,-1857 74,-2147 24,-342 19,-718 53,-1033 -2,-6 -3,-12 -4,-17 -16,-71 -33,-147 -53,-228 -138,-563 -1338,-3553 -2138,-5520z"/>
      <path class="fil30" d="M110408 81986l-346 0 0 89 454 0 0 -7752 0 -380 -347 0c-32,70 -67,146 -107,227l0 69 0 65c32,-32 67,-54 104,-65 53,-17 110,-15 168,0 24,6 49,15 74,25l0 7722z"/>
      <path class="fil31" d="M110857 74701c-266,-677 -308,-1593 -337,-2054 -72,530 -95,782 -458,1523l0 134c241,-245 682,151 795,397z"/>
      <path class="fil70" d="M115591 50085c238,759 548,1977 741,3629 198,1691 355,5765 454,8979 3,95 6,190 8,284 15,-3086 0,-6723 -126,-8301 -104,-1314 -292,-2358 -470,-3116 -228,-972 -440,-1475 -440,-1475l-167 0z"/>
      <path class="fil33" d="M113490 57526l-425 0 0 313 425 0 0 -313zm3068 0l-163 0 0 313 163 0 0 -313zm-423 0c-72,0 -144,0 -215,0 0,104 0,209 0,313 71,0 143,0 215,0 0,-104 0,-209 0,-313zm-504 0c-90,0 -179,0 -268,0 0,104 0,209 0,313 89,0 178,0 268,0 0,-104 0,-209 0,-313zm-652 0c-106,0 -213,0 -320,0 0,104 0,209 0,313 107,0 214,0 320,0 0,-104 0,-209 0,-313zm-732 0c-124,0 -248,0 -373,0 0,104 0,209 0,313 125,0 249,0 373,0 0,-104 0,-209 0,-313zm2311 -1331l-163 0 0 314 163 0 0 -314zm-414 0c-72,0 -143,0 -215,0 0,105 0,209 0,314 72,0 143,0 215,0 0,-105 0,-209 0,-314zm-518 0c-89,0 -178,0 -268,0 0,105 0,209 0,314 90,0 179,0 268,0 0,-105 0,-209 0,-314zm-645 0c-107,0 -213,0 -320,0 0,105 0,209 0,314 107,0 213,0 320,0 0,-105 0,-209 0,-314zm-730 0c-124,0 -248,0 -373,0 0,105 0,209 0,314 125,0 249,0 373,0 0,-105 0,-209 0,-314zm2214 -1334l-162 0 0 313 162 0 0 -313zm-327 0c-71,0 -143,0 -215,0 0,105 0,209 0,313 72,0 144,0 215,0 0,-104 0,-208 0,-313zm-544 0c-89,0 -178,0 -267,0 0,105 0,209 0,313 89,0 178,0 267,0 0,-104 0,-208 0,-313zm-639 0c-106,0 -213,0 -320,0 0,105 0,209 0,313 107,0 214,0 320,0 0,-104 0,-208 0,-313zm-704 0c-124,0 -249,0 -373,0 0,105 0,209 0,313 124,0 249,0 373,0 0,-104 0,-208 0,-313zm-173 -3950c-109,0 -218,0 -327,0 0,104 0,208 0,313 109,0 218,0 327,0 0,-105 0,-209 0,-313zm1796 0l-149 0 0 313 149 0 0 -313zm-304 0c-76,0 -152,0 -228,0 0,104 0,208 0,313 76,0 152,0 228,0 0,-105 0,-209 0,-313zm-434 0c-92,0 -184,0 -277,0 0,104 0,208 0,313 93,0 185,0 277,0 0,-105 0,-209 0,-313zm-505 0c-109,0 -217,0 -326,0 0,104 0,208 0,313 109,0 217,0 326,0 0,-105 0,-209 0,-313zm1516 1297l-150 0 0 313 150 0 0 -313zm-312 0c-68,0 -137,0 -205,0 0,104 0,208 0,313 68,0 137,0 205,0 0,-105 0,-209 0,-313zm-470 0c-87,0 -174,0 -261,0 0,104 0,208 0,313 87,0 174,0 261,0 0,-105 0,-209 0,-313zm-537 0c-105,0 -210,0 -315,0 0,104 0,208 0,313 105,0 210,0 315,0 0,-105 0,-209 0,-313zm-671 0c-123,0 -247,0 -370,0 0,104 0,208 0,313 123,0 247,0 370,0 0,-105 0,-209 0,-313zm2203 1334l-163 0 0 313 163 0 0 -313zm-348 0c-76,0 -152,0 -228,0 0,104 0,209 0,313 76,0 152,0 228,0 0,-104 0,-209 0,-313zm-530 0c-93,0 -185,0 -278,0 0,104 0,209 0,313 93,0 185,0 278,0 0,-104 0,-209 0,-313zm-580 0c-109,0 -218,0 -327,0 0,104 0,209 0,313 109,0 218,0 327,0 0,-104 0,-209 0,-313zm-693 0c-125,0 -251,0 -376,0 0,104 0,209 0,313 125,0 251,0 376,0 0,-104 0,-209 0,-313zm-676 -2631l-425 0 0 313 425 0 0 -313zm-37 1297l-425 0 0 313 425 0 0 -313zm-41 1334l-425 0 0 313 425 0 0 -313zm12 1319l-424 0 0 313 424 0 0 -313zm23 1334l-425 0 0 314 425 0 0 -314z"/>
      <path class="fil34" d="M111674 52615c-229,1786 -225,3463 -222,5249l72 17641c99,67 208,127 329,179l-67 -17920c-3,-1764 -6,-3420 199,-5184 54,-453 134,-1051 237,-1703 -86,-6 -171,-4 -257,5 -10,1 -19,2 -28,3 -114,662 -203,1271 -263,1730z"/>
      <path class="fil35" d="M113006 47313c73,-216 149,-412 228,-581 125,-270 277,-504 423,-512 9,0 18,0 26,1 -50,-30 -101,-47 -154,-44 -163,7 -332,245 -470,517 -134,262 -260,589 -379,955 20,-20 39,-40 58,-60 101,-104 192,-197 268,-276z"/>
      <path class="fil36" d="M113719 50085c21,-446 129,-2069 647,-3132 -166,-228 -294,-330 -349,-367 -733,1201 -786,3499 -786,3499l488 0z"/>
      <path class="fil37" d="M114666 58774l-1551 0c-205,0 -372,168 -372,373l0 1506c0,205 167,373 372,373l1551 0c205,0 373,-168 373,-373l0 -1506c0,-205 -168,-373 -373,-373z"/>
      <path class="fil38" d="M113255 60867l1437 0c74,0 141,-31 190,-79 49,-49 79,-116 79,-190l0 -1396c0,-74 -30,-141 -79,-189 -49,-49 -116,-79 -190,-79l-1437 0c-74,0 -141,30 -190,79 -48,48 -78,115 -78,189l0 1396c0,74 30,141 78,190 49,48 116,79 190,79zm0 77l1437 0c191,0 346,-156 346,-346l0 -1396c0,-190 -155,-346 -346,-346l-1437 0c-190,0 -346,156 -346,346l0 1396c0,190 156,346 346,346z"/>
      <path class="fil25" d="M112629 62550l-22 -5900c-3,-2797 7,-5900 565,-8653 142,-703 337,-1338 632,-1727 -39,-27 -79,-45 -121,-49 -8,-1 -17,-1 -26,-1 -146,8 -298,242 -423,512 -79,169 -155,365 -228,581 -327,973 -595,2359 -784,3564 -103,652 -183,1250 -237,1702 -205,1765 -202,3421 -199,5185l50 17914 8 6308 820 0 -15 -14244 -20 -5192z"/>
      <path class="fil39" d="M111074 54581c145,0 285,87 417,250 31,-730 86,-1463 183,-2216 60,-459 149,-1068 263,-1730 -382,48 -772,247 -1187,621 -245,1004 -416,2054 -509,3096 -37,414 -61,844 -75,1282 251,-817 566,-1303 908,-1303z"/>
      <path class="fil40" d="M111491 54831c-132,-163 -272,-250 -417,-250 -342,0 -657,486 -908,1303 -37,1136 -14,2323 -10,3434 220,-1252 536,-2037 888,-2037 143,0 280,130 408,369 -2,-957 -1,-1885 39,-2819z"/>
      <path class="fil41" d="M111491 54831c-40,934 -41,1862 -39,2819 123,231 236,564 337,979l-3 -865c-1,-809 -3,-1596 16,-2381 -97,-231 -201,-417 -311,-552z"/>
      <path class="fil42" d="M111452 57650c-128,-239 -265,-369 -408,-369 -352,0 -668,785 -888,2037 1,99 1,197 1,295l0 2672c181,-1322 448,-2159 747,-2159 209,0 402,410 562,1110l-14 -3372c0,-71 0,-143 0,-214z"/>
      <path class="fil43" d="M111466 61236l0 1c149,656 269,1567 343,2634l0 -1 -20 -5241c-101,-415 -214,-748 -337,-979l0 214 14 3372z"/>
      <path class="fil18" d="M112350 50108c225,-1274 526,-2606 884,-3376 125,-270 277,-504 423,-512 154,-8 290,184 417,336 2,-5 -443,-929 -767,-802 -126,49 -343,334 -431,448 -459,593 -623,1029 -921,1680 -229,503 -536,1350 -810,2226l1205 0z"/>
      <path class="fil18" d="M111904 51079c-99,586 -176,1122 -230,1536 -97,753 -152,1486 -183,2216 110,135 214,321 311,552 22,-926 72,-1849 183,-2803 49,-411 120,-942 209,-1523 9,-59 18,-119 28,-180 -86,-6 -171,-4 -257,5 -473,54 -869,312 -1215,624 -16,65 -32,130 -47,195 418,-358 813,-559 1201,-622l0 0z"/>
      <path class="fil44" d="M114328 81986l1065 0 855 0 -2 -7596c-17,-155 -34,-306 -16,-401 42,-225 186,-242 326,-34 34,50 107,230 189,443l0 -6320c0,0 28,-1787 44,-4094 -350,-1378 -764,-2175 -1208,-2175 -1251,0 -2265,6332 -2265,14142 0,2159 77,4205 216,6035l796 0z"/>
      <polygon class="fil45" points="114619,82419 114619,84242 114254,84242 114127,83908 114127,84480 114850,84480 114850,82419 "/>
      <polygon class="fil46" points="114254,84242 114619,84242 114619,82419 114254,82419 "/>
      <path class="fil28" d="M114548 81986l1065 0c51,-1327 81,-2866 81,-4507 0,-5007 -275,-9066 -613,-9066 -339,0 -614,4059 -614,9066 0,1641 30,3180 81,4507z"/>
      <path class="fil47" d="M114874 81986l370 0c18,-748 28,-1615 28,-2539 0,-2821 -95,-5108 -213,-5108 -118,0 -213,2287 -213,5108 0,924 10,1791 28,2539z"/>
      <path class="fil48" d="M111304 68112c-50,-3016 -225,-5244 -433,-5244 -209,0 -384,2228 -434,5244 50,3017 225,5244 434,5244 208,0 383,-2227 433,-5244z"/>
      <path class="fil49" d="M111076 68112c-23,-1512 -107,-2629 -205,-2629 -99,0 -183,1117 -206,2629 23,1512 107,2630 206,2630 98,0 182,-1118 205,-2630z"/>
      <path class="fil50" d="M112350 50108c225,-1274 526,-2606 884,-3376 125,-270 277,-504 423,-512 154,-8 290,184 417,336 1,-2 -40,-89 -107,-205 -155,-162 -330,-284 -463,-216 -120,62 -307,367 -384,490 -396,635 -516,1086 -747,1763 -139,410 -304,1036 -458,1720l435 0z"/>
      <path class="fil51" d="M111965 50882c86,-9 171,-11 257,-5 189,-1205 457,-2591 784,-3564 -76,79 -167,172 -268,276 -314,864 -577,2126 -773,3293z"/>
      <path class="fil52" d="M110472 50956c-34,242 -50,458 -58,618 -3,66 5,169 49,180 16,4 98,-70 200,-167 29,-28 58,-55 87,-81 425,-383 824,-583 1215,-624 196,-1167 459,-2429 773,-3293 -358,373 -718,756 -1060,1151 -663,767 -1059,1156 -1206,2216z"/>
      <path class="fil53" d="M112948 47494c19,-61 38,-120 58,-178 -77,78 -168,171 -269,276 -358,372 -718,755 -1060,1151 -663,766 -1059,1156 -1206,2216 -34,241 -50,457 -57,618 -3,47 1,113 19,150 11,-150 28,-325 54,-513 169,-1218 624,-1667 1387,-2548 347,-401 710,-792 1074,-1172z"/>
      <polygon class="fil45" points="115971,82419 112274,82419 112274,81986 115971,81986 "/>
      <polygon class="fil46" points="115612,82419 113397,82419 113397,81986 115612,81986 "/>
      <polygon class="fil54" points="115304,82419 114328,82419 114328,81986 115304,81986 "/>
      <path class="fil21" d="M110246 68249l53 -6817c-51,254 -99,540 -142,853l0 7182c-4,843 -24,1499 -53,2037 94,-1405 134,-2212 142,-3255z"/>
      <path class="fil55" d="M110157 62285c43,-313 91,-599 142,-853l13 -1557c0,-414 -4,-839 -8,-1271 -53,216 -102,455 -148,714 1,99 1,197 1,295l0 2672z"/>
      <path class="fil56" d="M110156 59318c46,-259 95,-498 148,-714 -8,-1085 -13,-2205 54,-3251 -67,156 -132,334 -192,531 -37,1136 -14,2323 -10,3434z"/>
      <path class="fil57" d="M110166 55884c60,-197 125,-375 192,-531 11,-165 23,-329 37,-490 102,-1139 297,-2287 580,-3375 -90,64 -180,135 -272,213 -220,944 -375,1926 -462,2901 -37,414 -61,844 -75,1282z"/>
      <path class="fil58" d="M111892 48497c97,-264 201,-527 310,-779 403,-925 932,-1691 1234,-1809 137,-53 300,100 443,295 -159,-248 -385,-523 -572,-450 -126,49 -343,334 -431,448 -459,593 -623,1029 -921,1680 -117,256 -253,601 -395,994 38,-44 77,-89 118,-136 70,-82 142,-163 214,-243z"/>
      <path class="fil28" d="M119085 82368l-235 0c-47,658 -71,1351 -50,2027l13 164 131 0 0 301 177 0c0,0 0,-1444 -15,-2199 -6,-98 -13,-195 -21,-293z"/>
      <path class="fil59" d="M119085 82368l-141 0 0 2191 0 301 177 0c0,0 0,-1444 -15,-2199 -6,-98 -13,-195 -21,-293z"/>
      <path class="fil60" d="M111836 75677c-114,-50 -217,-108 -312,-172 -1,-1 -2,-1 -3,-2l0 6483 329 0 -14 -6309z"/>
      <polygon class="fil61" points="106392,84860 106392,83622 106392,82384 106392,82023 106211,82023 106211,82754 106211,83622 106211,84860 "/>
      <path class="fil53" d="M110102 81986l0 -7716c-14,9 -27,21 -40,34l0 7575 0 107 40 0z"/>
      <polygon class="fil30" points="110062,74170 110062,74304 107047,80319 "/>
      <path class="fil62" d="M110111 74199c29,-62 67,-150 109,-256 128,-325 289,-822 300,-1296 -72,530 -95,782 -458,1523l0 69 0 65c0,0 12,-23 31,-65 6,-12 12,-25 18,-40z"/>
      <path class="fil63" d="M110516 74323c110,73 211,176 280,273 0,1 1,2 1,2 25,36 45,71 60,103 0,0 0,0 0,0 -14,-35 -26,-69 -39,-105 -231,-664 -271,-1511 -298,-1949 -6,245 -52,497 -112,727l0 569 0 256 0 40 0 25c36,16 73,36 108,59z"/>
      <path class="fil47" d="M114895 59202l0 1396c0,99 -42,189 -109,252 36,-14 69,-35 96,-62 49,-49 79,-116 79,-190l0 -1396c0,-74 -30,-141 -79,-189 -27,-28 -60,-49 -96,-63 67,64 109,153 109,252z"/>
      <path class="fil41" d="M112909 60598l0 -1396c0,-84 31,-162 81,-222 -13,10 -26,21 -38,33 -49,48 -79,115 -79,189l0 1396c0,74 30,141 79,190 12,12 25,22 38,32 -50,-60 -81,-138 -81,-222z"/>
      <polygon class="fil20" points="106849,80722 106211,82023 106392,82023 106392,82130 106517,82130 106546,82070 106849,81453 "/>
      <polygon class="fil31" points="106392,82384 106849,81453 106849,81087 106392,82023 "/>
      <path class="fil64" d="M113414 50085c11,-613 93,-2375 652,-3462 -20,-17 -36,-28 -49,-37 -733,1201 -786,3499 -786,3499l183 0z"/>
      <path class="fil64" d="M115575 50017l-1854 0c0,24 -1,47 -2,68l1872 0c-4,-19 -13,-54 -16,-68z"/>
      <path class="fil65" d="M113415 50017l-38 0 -144 0c-1,45 -2,68 -2,68l145 0 38 0 305 0c1,-21 2,-46 4,-68l-308 0z"/>
      <path class="fil47" d="M114969 47829c-37,18 -70,44 -98,74 70,164 140,340 209,523 9,1 18,1 27,1 40,0 78,-7 113,-21 -81,-200 -166,-395 -251,-577z"/>
      <path class="fil44" d="M114871 47903c28,-30 61,-56 98,-74 -42,-90 -83,-176 -125,-258 -33,16 -65,36 -95,58 41,86 81,178 122,274z"/>
      <path class="fil44" d="M115220 48406c-35,14 -73,21 -113,21 -9,0 -18,0 -27,-1 34,93 69,188 102,283 51,-6 99,-18 144,-36 -34,-90 -70,-179 -106,-267z"/>
      <path class="fil67" d="M114749 47629c30,-22 62,-42 95,-58 -30,-61 -61,-120 -91,-176 -31,16 -62,33 -91,53 29,57 58,117 87,181z"/>
      <path class="fil67" d="M115326 48673c-45,18 -93,30 -144,36 23,63 45,127 66,191 51,-10 101,-24 148,-42 -23,-62 -46,-123 -70,-185z"/>
     </g>
    </g>
    <g>
     <g>
      <path class="fil69" d="M187476 73829c1950,0 3530,-95 3530,-212 0,-116 -1580,-211 -3530,-211 -1950,0 -3531,95 -3531,211 0,117 1581,212 3531,212z"/>
      <g>
       <path class="fil18" d="M185718 73008l0 -1574c-57,-143 -53,-308 -59,-406 -15,113 -20,166 -97,323l0 15 73 0 0 1642 -73 0 0 73 156 0 0 -73z"/>
       <path class="fil19" d="M184881 73550l0 -810 681 -1389 0 1635 -681 564zm-97 -457l33 -67 64 -131 0 -155 -135 276 0 155 38 -78z"/>
       <path class="fil20" d="M184881 73550c0,40 -1,54 -7,61 -7,7 -19,6 -57,6l0 -591 64 -131 0 655z"/>
       <polygon class="fil21" points="184784,73093 184784,73617 184817,73617 184817,73026 "/>
       <path class="fil22" d="M185582 68266l0 2088c-1,255 -9,429 -20,565 -19,230 -63,369 -219,740 -157,371 -364,861 -430,1015l649 -1323c77,-157 82,-210 97,-323 10,166 -5,528 285,652l-17 -3806c0,-374 -1,-725 43,-1099 37,-313 132,-956 264,-1240 27,-57 59,-107 90,-108 33,-2 62,39 88,71 1,-1 -94,-197 -162,-170 -27,10 -73,70 -92,95 -97,125 -132,218 -195,356 -60,132 -146,378 -213,607 -75,260 -125,540 -150,817 -30,337 -18,720 -18,1063z"/>
       <polygon class="fil23" points="186912,73100 185718,73100 185718,73008 186912,73008 "/>
       <path class="fil24" d="M186408 65492c-163,250 -174,754 -174,754l535 0c-28,-163 -155,-482 -242,-621 -62,-100 -110,-129 -119,-133z"/>
       <path class="fil25" d="M186520 65654c73,131 170,401 214,592l35 0c-28,-163 -155,-482 -242,-621 -62,-100 -110,-129 -119,-133 -2,4 -5,8 -8,12 17,11 64,49 120,150z"/>
       <path class="fil26" d="M185932 69125l4 1099 0 1 6 1447c-2,0 -3,-1 -4,-1l2 1337 972 0 67 0 0 -2948c0,0 6,-414 9,-935 4,-682 3,-1546 -26,-1906 -50,-635 -193,-973 -193,-973l-35 0 -500 0c0,0 11,-487 166,-742 3,-4 5,-8 8,-12 -26,-31 -53,-67 -84,-65 -31,1 -63,51 -90,108 -16,36 -32,77 -48,123 -69,206 -126,500 -166,756 -22,138 -39,265 -50,361 -44,374 -43,725 -43,1099l5 1251z"/>
       <path class="fil18" d="M186938 66574c-3,-34 -8,-80 -16,-131 -33,-187 -99,-274 -205,-390 24,73 43,141 52,193 0,0 45,106 94,312 1,1 2,3 4,4l19 16c22,20 40,35 43,34 9,-2 10,-24 9,-38z"/>
       <polygon class="fil25" points="185562,71358 185635,71358 185635,73008 185562,73008 "/>
       <path class="fil27" d="M185718 71434l0 1574 222 0 -2 -1337 4 1c-118,-50 -186,-139 -224,-238z"/>
       <polygon class="fil23" points="186451,73486 186451,73100 186304,73100 186424,73416 "/>
       <path class="fil28" d="M187412 72838l-40 513 29 0 55 110 19 156 123 0 0 -557c-175,-489 -354,-991 -550,-1476 -18,-45 -91,-251 -109,-278 -15,-23 -31,-33 -45,-31 -13,1 -28,13 -27,37l6 208 91 143 448 1175z"/>
       <path class="fil20" d="M187475 73089c-6,-70 -16,-140 -31,-210 -7,67 -14,138 -19,210l50 0z"/>
       <path class="fil29" d="M186979 71657c-42,-103 -106,-330 -106,-259l0 1610c13,7 34,16 45,26 63,58 143,139 220,219 145,151 279,301 279,301 11,-22 11,-394 16,-456 5,-72 4,-152 11,-219 0,-1 -1,-2 -1,-3 -3,-15 -7,-31 -11,-48 -29,-120 -284,-754 -453,-1171z"/>
       <path class="fil30" d="M185635 73008l-73 0 0 19 96 0 0 -1643 0 -81 -73 0c-7,15 -15,31 -23,48l0 15 0 14c7,-7 14,-12 22,-14 11,-4 23,-3 36,0 5,1 10,3 15,5l0 1637z"/>
       <path class="fil31" d="M185730 71464c-56,-144 -65,-338 -71,-436 -15,113 -20,166 -97,323l0 29c51,-52 145,32 168,84z"/>
       <path class="fil70" d="M186734 66246c50,161 116,419 157,769 42,359 75,1222 96,1903 1,21 1,41 2,61 3,-655 0,-1425 -27,-1760 -22,-279 -62,-500 -99,-661 -49,-206 -94,-312 -94,-312l-35 0z"/>
       <path class="fil33" d="M186289 67823l-90 0 0 66 90 0 0 -66zm650 0l-35 0 0 66 35 0 0 -66zm-90 0c-15,0 -30,0 -45,0 0,22 0,44 0,66 15,0 30,0 45,0 0,-22 0,-44 0,-66zm-107 0c-19,0 -37,0 -56,0 0,22 0,44 0,66 19,0 37,0 56,0 0,-22 0,-44 0,-66zm-138 0c-22,0 -45,0 -68,0 0,22 0,44 0,66 23,0 46,0 68,0 0,-22 0,-44 0,-66zm-155 0c-26,0 -53,0 -79,0 0,22 0,44 0,66 26,0 53,0 79,0 0,-22 0,-44 0,-66zm490 -282l-35 0 0 66 35 0 0 -66zm-88 0c-15,0 -30,0 -45,0 0,22 0,44 0,66 15,0 30,0 45,0 0,-22 0,-44 0,-66zm-110 0c-19,0 -37,0 -56,0 0,22 0,44 0,66 19,0 37,0 56,0 0,-22 0,-44 0,-66zm-136 0c-23,0 -46,0 -68,0 0,22 0,44 0,66 22,0 45,0 68,0 0,-22 0,-44 0,-66zm-155 0c-26,0 -53,0 -79,0 0,22 0,44 0,66 26,0 53,0 79,0 0,-22 0,-44 0,-66zm469 -283l-34 0 0 67 34 0 0 -67zm-69 0c-15,0 -30,0 -46,0 0,22 0,44 0,67 16,0 31,0 46,0 0,-23 0,-45 0,-67zm-115 0c-19,0 -38,0 -57,0 0,22 0,44 0,67 19,0 38,0 57,0 0,-23 0,-45 0,-67zm-136 0c-22,0 -45,0 -68,0 0,22 0,44 0,67 23,0 46,0 68,0 0,-23 0,-45 0,-67zm-149 0c-26,0 -53,0 -79,0 0,22 0,44 0,67 26,0 53,0 79,0 0,-23 0,-45 0,-67zm-37 -837c-23,0 -46,0 -69,0 0,22 0,44 0,66 23,0 46,0 69,0 0,-22 0,-44 0,-66zm381 0l-32 0 0 66 32 0 0 -66zm-64 0c-17,0 -33,0 -49,0 0,22 0,44 0,66 16,0 32,0 49,0 0,-22 0,-44 0,-66zm-92 0c-20,0 -40,0 -59,0 0,22 0,44 0,66 19,0 39,0 59,0 0,-22 0,-44 0,-66zm-107 0c-24,0 -47,0 -70,0 0,22 0,44 0,66 23,0 46,0 70,0 0,-22 0,-44 0,-66zm321 275l-32 0 0 66 32 0 0 -66zm-66 0c-15,0 -29,0 -44,0 0,22 0,44 0,66 15,0 29,0 44,0 0,-22 0,-44 0,-66zm-100 0c-18,0 -37,0 -55,0 0,22 0,44 0,66 18,0 37,0 55,0 0,-22 0,-44 0,-66zm-114 0c-22,0 -44,0 -67,0 0,22 0,44 0,66 23,0 45,0 67,0 0,-22 0,-44 0,-66zm-142 0c-26,0 -52,0 -78,0 0,22 0,44 0,66 26,0 52,0 78,0 0,-22 0,-44 0,-66zm467 283l-35 0 0 66 35 0 0 -66zm-74 0c-16,0 -32,0 -48,0 0,22 0,44 0,66 16,0 32,0 48,0 0,-22 0,-44 0,-66zm-112 0c-20,0 -39,0 -59,0 0,22 0,44 0,66 20,0 39,0 59,0 0,-22 0,-44 0,-66zm-123 0c-23,0 -46,0 -69,0 0,22 0,44 0,66 23,0 46,0 69,0 0,-22 0,-44 0,-66zm-147 0c-27,0 -53,0 -80,0 0,22 0,44 0,66 27,0 53,0 80,0 0,-22 0,-44 0,-66zm-143 -558l-90 0 0 66 90 0 0 -66zm-8 275l-90 0 0 66 90 0 0 -66zm-9 283l-90 0 0 66 90 0 0 -66zm3 279l-90 0 0 67 90 0 0 -67zm5 283l-90 0 0 66 90 0 0 -66z"/>
       <path class="fil34" d="M185904 66782c-49,379 -48,734 -47,1113l15 3739c21,15 44,27 70,38l-15 -3798c0,-374 -1,-725 43,-1099 11,-96 28,-223 50,-361 -18,-2 -37,-1 -55,1 -2,0 -4,0 -6,0 -24,141 -43,270 -55,367z"/>
       <path class="fil35" d="M186186 65658c16,-46 32,-87 48,-123 27,-57 59,-107 90,-108 2,-1 4,-1 6,0 -11,-7 -22,-10 -33,-10 -35,2 -70,52 -100,110 -28,56 -55,125 -80,202 4,-4 8,-8 12,-12 22,-22 41,-42 57,-59z"/>
       <path class="fil36" d="M186337 66246c5,-95 28,-439 137,-664 -35,-49 -62,-70 -74,-78 -155,255 -166,742 -166,742l103 0z"/>
       <path class="fil37" d="M186538 68088l-329 0c-43,0 -79,35 -79,79l0 319c0,43 36,79 79,79l329 0c43,0 79,-36 79,-79l0 -319c0,-44 -36,-79 -79,-79z"/>
       <path class="fil38" d="M186239 68531l305 0c15,0 29,-6 40,-16 10,-11 16,-25 16,-41l0 -296c0,-15 -6,-29 -16,-40 -11,-10 -25,-17 -40,-17l-305 0c-16,0 -30,7 -40,17 -11,11 -17,25 -17,40l0 296c0,16 6,30 17,41 10,10 24,16 40,16zm0 17l305 0c40,0 73,-33 73,-74l0 -296c0,-40 -33,-73 -73,-73l-305 0c-40,0 -73,33 -73,73l0 296c0,41 33,74 73,74z"/>
       <path class="fil25" d="M186106 68888l-5 -1251c0,-593 2,-1250 120,-1834 30,-149 72,-284 134,-366 -8,-6 -17,-10 -25,-10 -2,-1 -4,-1 -6,0 -31,1 -63,51 -90,108 -16,36 -32,77 -48,123 -69,206 -126,500 -166,756 -22,138 -39,265 -50,361 -44,374 -43,725 -43,1099l11 3797 2 1337 174 0 -4 -3019 -4 -1101z"/>
       <path class="fil39" d="M185776 67199c31,0 61,18 89,53 6,-155 18,-310 39,-470 12,-97 31,-226 55,-367 -81,10 -163,53 -251,132 -52,213 -88,435 -108,656 -8,88 -13,179 -16,272 53,-173 120,-276 192,-276z"/>
       <path class="fil40" d="M185865 67252c-28,-35 -58,-53 -89,-53 -72,0 -139,103 -192,276 -8,241 -3,493 -2,728 46,-265 114,-432 188,-432 30,0 59,28 86,78 0,-203 0,-399 9,-597z"/>
       <path class="fil41" d="M185865 67252c-9,198 -9,394 -9,597 27,49 51,120 72,208l-1 -183c0,-172 0,-339 4,-505 -21,-49 -43,-89 -66,-117z"/>
       <path class="fil42" d="M185856 67849c-27,-50 -56,-78 -86,-78 -74,0 -142,167 -188,432 0,21 0,42 0,63l0 566c38,-280 95,-458 158,-458 45,0 86,87 119,236l-2 -715c0,-15 -1,-30 -1,-46z"/>
       <path class="fil43" d="M185859 68610l0 0c32,139 57,332 73,558l0 0 -4 -1111c-21,-88 -45,-159 -72,-208l1 46 2 715z"/>
       <path class="fil18" d="M186047 66251c48,-270 111,-553 187,-716 27,-57 59,-107 90,-108 33,-2 62,39 88,71 1,-1 -94,-197 -162,-170 -27,10 -73,70 -92,95 -97,125 -132,218 -195,356 -48,106 -113,286 -172,472l256 0z"/>
       <path class="fil18" d="M185952 66456c-21,125 -37,238 -48,326 -21,160 -33,315 -39,470 23,28 45,68 66,117 4,-196 15,-392 39,-594 10,-87 25,-200 44,-323 2,-13 4,-26 6,-38 -18,-2 -37,-1 -55,1 -100,11 -184,66 -257,132 -4,14 -7,28 -10,41 88,-76 172,-118 254,-132l0 0z"/>
       <path class="fil44" d="M186466 73008l226 0 181 0 0 -1610c-4,-33 -7,-65 -4,-85 9,-48 40,-51 70,-7 7,10 22,48 40,94l0 -1340c0,0 6,-379 9,-868 -74,-292 -162,-461 -256,-461 -265,0 -480,1342 -480,2998 0,458 16,891 45,1279l169 0z"/>
       <polygon class="fil45" points="186528,73100 186528,73486 186451,73486 186424,73416 186424,73537 186577,73537 186577,73100 "/>
       <polygon class="fil46" points="186451,73486 186528,73486 186528,73100 186451,73100 "/>
       <path class="fil28" d="M186513 73008l226 0c11,-281 17,-607 17,-955 0,-1062 -58,-1922 -130,-1922 -72,0 -130,860 -130,1922 0,348 6,674 17,955z"/>
       <path class="fil47" d="M186582 73008l78 0c4,-158 6,-342 6,-538 0,-598 -20,-1083 -45,-1083 -25,0 -45,485 -45,1083 0,196 2,380 6,538z"/>
       <path class="fil48" d="M185825 70067c-10,-639 -48,-1112 -92,-1112 -44,0 -81,473 -92,1112 11,640 48,1112 92,1112 44,0 82,-472 92,-1112z"/>
       <path class="fil49" d="M185777 70067c-5,-320 -23,-557 -44,-557 -21,0 -38,237 -43,557 5,321 22,558 43,558 21,0 39,-237 44,-558z"/>
       <path class="fil50" d="M186047 66251c48,-270 111,-553 187,-716 27,-57 59,-107 90,-108 33,-2 62,39 88,71 1,-1 -8,-19 -22,-44 -33,-34 -70,-60 -98,-46 -26,14 -65,78 -82,104 -84,135 -109,230 -158,374 -30,87 -65,220 -97,365l92 0z"/>
       <path class="fil51" d="M185965 66415c18,-2 37,-3 55,-1 40,-256 97,-550 166,-756 -16,17 -35,37 -57,59 -66,183 -122,450 -164,698z"/>
       <path class="fil52" d="M185649 66430c-7,52 -11,97 -12,131 -1,14 1,36 10,39 3,0 21,-15 42,-36 6,-6 13,-11 19,-17 90,-81 174,-124 257,-132 42,-248 98,-515 164,-698 -76,79 -152,160 -225,244 -140,162 -224,245 -255,469z"/>
       <path class="fil53" d="M186174 65696c4,-12 8,-25 12,-37 -16,16 -36,36 -57,58 -76,79 -152,160 -225,244 -140,163 -224,245 -255,470 -8,51 -11,97 -13,131 0,10 1,24 5,32 2,-32 5,-69 11,-109 36,-258 132,-353 294,-540 74,-85 151,-168 228,-249z"/>
       <polygon class="fil45" points="186815,73100 186031,73100 186031,73008 186815,73008 "/>
       <polygon class="fil46" points="186738,73100 186269,73100 186269,73008 186738,73008 "/>
       <polygon class="fil54" points="186673,73100 186466,73100 186466,73008 186673,73008 "/>
       <path class="fil21" d="M185601 70096l11 -1445c-11,54 -21,115 -30,181l0 1522c-1,179 -5,318 -11,432 20,-298 28,-469 30,-690z"/>
       <path class="fil55" d="M185582 68832c9,-66 19,-127 30,-181l3 -330c0,-88 -1,-178 -2,-269 -11,45 -21,96 -31,151 0,21 0,42 0,63l0 566z"/>
       <path class="fil56" d="M185582 68203c10,-55 20,-106 31,-151 -1,-230 -3,-468 12,-690 -15,34 -28,71 -41,113 -8,241 -3,493 -2,728z"/>
       <path class="fil57" d="M185584 67475c13,-42 26,-79 41,-113 2,-35 5,-69 8,-103 21,-242 62,-485 122,-716 -19,14 -38,29 -57,45 -47,201 -80,409 -98,615 -8,88 -13,179 -16,272z"/>
       <path class="fil58" d="M185950 65909c20,-56 42,-112 66,-165 85,-196 197,-358 261,-383 29,-12 64,21 94,62 -34,-52 -82,-111 -121,-95 -27,10 -73,70 -92,95 -97,125 -132,218 -195,356 -24,54 -53,127 -84,210 9,-9 17,-18 25,-28 15,-18 31,-35 46,-52z"/>
       <path class="fil28" d="M187475 73089l-50 0c-10,140 -15,287 -11,430l3 35 28 0 0 63 37 0c0,0 0,-306 -3,-466 -1,-20 -3,-41 -4,-62z"/>
       <path class="fil59" d="M187475 73089l-30 0 0 465 0 63 37 0c0,0 0,-306 -3,-466 -1,-20 -3,-41 -4,-62z"/>
       <path class="fil60" d="M185938 71671c-24,-11 -46,-23 -66,-37 0,0 -1,0 -1,0l0 1374 70 0 -3 -1337z"/>
       <polygon class="fil61" points="184784,73617 184784,73355 184784,73093 184784,73016 184746,73016 184746,73171 184746,73355 184746,73617 "/>
       <path class="fil53" d="M185570 73008l0 -1635c-3,2 -5,4 -8,7l0 1606 0 22 8 0z"/>
       <polygon class="fil30" points="185562,71351 185562,71380 184923,72655 "/>
       <path class="fil62" d="M185572 71358c6,-14 15,-32 23,-55 28,-69 62,-174 64,-275 -15,113 -20,166 -97,323l0 15 0 14c0,0 2,-5 7,-14 1,-3 2,-5 3,-8z"/>
       <path class="fil63" d="M185658 71384c23,15 45,37 59,58 1,0 1,0 1,0 5,8 9,15 12,22 0,0 0,0 0,0 -2,-7 -5,-15 -8,-22 -49,-141 -57,-321 -63,-414 -1,52 -11,106 -24,155l0 120 0 55 0 8 0 5c8,4 16,8 23,13z"/>
       <path class="fil47" d="M186586 68178l0 296c0,21 -8,40 -23,54 8,-3 15,-8 21,-13 10,-11 16,-25 16,-41l0 -296c0,-15 -6,-29 -16,-40 -6,-6 -13,-10 -21,-13 15,13 23,32 23,53z"/>
       <path class="fil41" d="M186166 68474l0 -296c0,-17 6,-34 17,-47 -3,2 -6,5 -9,7 -10,11 -16,25 -16,40l0 296c0,16 6,30 16,41 3,2 6,4 9,6 -11,-12 -17,-29 -17,-47z"/>
       <polygon class="fil20" points="184881,72740 184746,73016 184784,73016 184784,73039 184810,73039 184817,73026 184881,72895 "/>
       <polygon class="fil31" points="184784,73093 184881,72895 184881,72818 184784,73016 "/>
       <path class="fil64" d="M186272 66246c3,-130 20,-504 139,-734 -4,-4 -8,-6 -11,-8 -155,255 -166,742 -166,742l38 0z"/>
       <path class="fil64" d="M186731 66231l-393 0c-1,5 -1,10 -1,15l397 0c-1,-4 -3,-12 -3,-15z"/>
       <path class="fil65" d="M186273 66231l-8 0 -31 0c0,10 0,15 0,15l30 0 8 0 65 0c0,-5 0,-10 1,-15l-65 0z"/>
       <path class="fil47" d="M186602 65768c-8,3 -15,9 -21,15 15,35 30,72 45,111 1,0 3,0 5,0 9,0 17,-1 24,-4 -17,-43 -35,-84 -53,-122z"/>
       <path class="fil44" d="M186581 65783c6,-6 13,-12 21,-15 -9,-19 -18,-38 -26,-55 -7,3 -14,7 -20,12 8,18 17,38 25,58z"/>
       <path class="fil44" d="M186655 65890c-7,3 -15,4 -24,4 -2,0 -4,0 -5,0 7,20 14,40 21,60 11,-1 21,-4 31,-8 -7,-19 -15,-37 -23,-56z"/>
       <path class="fil67" d="M186556 65725c6,-5 13,-9 20,-12 -7,-13 -13,-26 -20,-37 -6,3 -13,7 -19,11 6,12 12,25 19,38z"/>
       <path class="fil67" d="M186678 65946c-10,4 -20,7 -31,8 5,14 10,27 14,40 11,-1 22,-4 32,-8 -5,-13 -10,-27 -15,-40z"/>
      </g>
     </g>
     <path class="fil71" d="M155135 71385c12588,0 22792,821 22792,1833 0,1013 -10204,1833 -22792,1833 -12587,0 -22791,-820 -22791,-1833 0,-1012 10204,-1833 22791,-1833z"/>
     <path class="fil68" d="M162510 74602c12588,0 22792,821 22792,1833 0,1013 -10204,1833 -22792,1833 -12587,0 -22791,-820 -22791,-1833 0,-1012 10204,-1833 22791,-1833z"/>
     <path class="fil69" d="M152593 72178c8748,0 15839,268 15839,597 0,330 -7091,597 -15839,597 -8747,0 -15838,-267 -15838,-597 0,-329 7091,-597 15838,-597z"/>
     <path class="fil69" d="M163163 75666c8390,0 15191,335 15191,750 0,414 -6801,750 -15191,750 -8390,0 -15191,-336 -15191,-750 0,-415 6801,-750 15191,-750z"/>
     <g>
      <path class="fil72" d="M170540 74750c-133,0 -240,99 -240,221 0,122 107,221 240,221 132,0 239,-99 239,-221 0,-122 -107,-221 -239,-221z"/>
      <polygon class="fil73" points="171274,77456 166085,77456 165325,76777 170513,76777 "/>
      <polygon class="fil73" points="176831,77456 171642,77456 170881,76777 176070,76777 "/>
      <polygon class="fil74" points="171696,78374 166507,78374 165746,77695 170935,77695 "/>
      <polygon class="fil74" points="177252,78374 172064,78374 171303,77695 176492,77695 "/>
      <polygon class="fil75" points="178851,76248 153961,76248 153961,75934 178851,75934 "/>
      <path class="fil74" d="M164254 74811c0,0 20,-2132 -2262,-2132 -2282,0 -2261,2132 -2261,2132l0 122 4523 0 0 -122z"/>
      <polygon class="fil76" points="159731,74933 159731,75934 161992,75934 164254,75934 164254,74933 "/>
      <path class="fil74" d="M160546 75463c0,-108 -96,-196 -213,-196 -118,0 -214,88 -214,196 0,109 96,197 214,197 117,0 213,-88 213,-197z"/>
      <path class="fil74" d="M161652 75463c0,-108 -95,-196 -213,-196 -118,0 -213,88 -213,196 0,109 95,197 213,197 118,0 213,-88 213,-197z"/>
      <path class="fil74" d="M162758 75463c0,-108 -95,-196 -213,-196 -117,0 -213,88 -213,196 0,109 96,197 213,197 118,0 213,-88 213,-197z"/>
      <path class="fil74" d="M163865 75463c0,-108 -96,-196 -213,-196 -118,0 -213,88 -213,196 0,109 95,197 213,197 117,0 213,-88 213,-197z"/>
      <path class="fil74" d="M159183 74811c0,0 20,-2132 -2262,-2132 -2282,0 -2262,2132 -2262,2132l0 122 4524 0 0 -122z"/>
      <polygon class="fil76" points="154660,74933 154660,75934 156921,75934 159183,75934 159183,74933 "/>
      <path class="fil74" d="M155475 75463c0,-108 -96,-196 -213,-196 -118,0 -214,88 -214,196 0,109 96,197 214,197 117,0 213,-88 213,-197z"/>
      <path class="fil74" d="M156581 75463c0,-108 -95,-196 -213,-196 -118,0 -213,88 -213,196 0,109 95,197 213,197 118,0 213,-88 213,-197z"/>
      <path class="fil74" d="M157687 75463c0,-108 -95,-196 -213,-196 -117,0 -213,88 -213,196 0,109 96,197 213,197 118,0 213,-88 213,-197z"/>
      <path class="fil74" d="M158794 75463c0,-108 -96,-196 -213,-196 -118,0 -213,88 -213,196 0,109 95,197 213,197 117,0 213,-88 213,-197z"/>
      <path class="fil74" d="M176188 69743l0 0c-1085,0 -1965,812 -1965,1812l0 4379 3929 0 0 -4379c0,-1000 -880,-1812 -1964,-1812z"/>
      <polygon class="fil77" points="178152,73015 174223,73015 174223,72584 178152,72584 "/>
      <polygon class="fil77" points="178152,74237 174223,74237 174223,73806 178152,73806 "/>
      <path class="fil73" d="M176188 74524l0 0c249,0 451,186 451,416l0 994 -903 0 0 -994c0,-230 202,-416 452,-416z"/>
      <path class="fil73" d="M175363 75032c0,-191 -168,-346 -375,-346 -207,0 -375,155 -375,346 0,191 168,346 375,346 207,0 375,-155 375,-346z"/>
      <path class="fil73" d="M177763 75032c0,-191 -168,-346 -375,-346 -208,0 -376,155 -376,346 0,191 168,346 376,346 207,0 375,-155 375,-346z"/>
      <path class="fil74" d="M173125 75431c0,0 34,-3663 -3886,-3663 -3921,0 -3887,3663 -3887,3663l0 209 7773 0 0 -209z"/>
      <polygon class="fil78" points="173125,75934 165352,75934 165352,75640 173125,75640 "/>
      <path class="fil73" d="M166533 75229c0,-109 -96,-197 -213,-197 -118,0 -214,88 -214,197 0,108 96,196 214,196 117,0 213,-88 213,-196z"/>
      <path class="fil73" d="M167678 75229c0,-109 -95,-197 -213,-197 -117,0 -213,88 -213,197 0,108 96,196 213,196 118,0 213,-88 213,-196z"/>
      <path class="fil73" d="M168824 75229c0,-109 -95,-197 -213,-197 -118,0 -213,88 -213,197 0,108 95,196 213,196 118,0 213,-88 213,-196z"/>
      <path class="fil73" d="M169970 75229c0,-109 -95,-197 -213,-197 -118,0 -213,88 -213,197 0,108 95,196 213,196 118,0 213,-88 213,-196z"/>
      <path class="fil73" d="M171116 75229c0,-109 -95,-197 -213,-197 -118,0 -213,88 -213,197 0,108 95,196 213,196 118,0 213,-88 213,-196z"/>
      <path class="fil73" d="M172262 75229c0,-109 -96,-197 -213,-197 -118,0 -213,88 -213,197 0,108 95,196 213,196 117,0 213,-88 213,-196z"/>
      <polygon class="fil75" points="146361,73545 141172,73545 140411,72866 145600,72866 "/>
      <polygon class="fil75" points="151917,73545 146729,73545 145968,72866 151156,72866 "/>
      <polygon class="fil79" points="146782,74542 141594,74542 140833,73863 146022,73863 "/>
      <polygon class="fil79" points="152339,74542 147150,74542 146390,73863 151578,73863 "/>
      <path class="fil77" d="M157494 71500c0,0 47,-4963 -5265,-4963 -5312,0 -5265,4963 -5265,4963l0 283 10530 0 0 -283z"/>
      <polygon class="fil75" points="157494,72181 146964,72181 146964,71783 157494,71783 "/>
      <path class="fil80" d="M148563 71225c0,-147 -130,-266 -289,-266 -160,0 -289,119 -289,266 0,147 129,267 289,267 159,0 289,-120 289,-267z"/>
      <path class="fil80" d="M150115 71225c0,-147 -129,-266 -289,-266 -159,0 -288,119 -288,266 0,147 129,267 288,267 160,0 289,-120 289,-267z"/>
      <path class="fil80" d="M151668 71225c0,-147 -130,-266 -289,-266 -160,0 -289,119 -289,266 0,147 129,267 289,267 159,0 289,-120 289,-267z"/>
      <path class="fil80" d="M153220 71225c0,-147 -129,-266 -289,-266 -159,0 -288,119 -288,266 0,147 129,267 288,267 160,0 289,-120 289,-267z"/>
      <path class="fil80" d="M154773 71225c0,-147 -130,-266 -289,-266 -160,0 -289,119 -289,266 0,147 129,267 289,267 159,0 289,-120 289,-267z"/>
      <path class="fil80" d="M156325 71225c0,-147 -129,-266 -289,-266 -159,0 -288,119 -288,266 0,147 129,267 288,267 160,0 289,-120 289,-267z"/>
      <path class="fil74" d="M166266 71942l-6836 0c-741,0 -1347,-559 -1347,-1243 0,-683 606,-1242 1347,-1242l6836 0c741,0 1347,559 1347,1242 0,684 -606,1243 -1347,1243z"/>
      <polygon class="fil75" points="159291,72205 166406,72205 166406,71942 159291,71942 "/>
      <polygon class="fil81" points="161816,69336 160260,69336 160260,71942 161816,71942 "/>
      <polygon class="fil81" points="165436,69336 163881,69336 163881,71942 165436,71942 "/>
      <polygon class="fil78" points="163019,71942 162692,71942 162692,69456 163019,69456 "/>
      <path class="fil74" d="M145028 71942l-6836 0c-741,0 -1347,-559 -1347,-1243 0,-683 606,-1242 1347,-1242l6836 0c741,0 1347,559 1347,1242 0,684 -606,1243 -1347,1243z"/>
      <polygon class="fil81" points="138052,72205 145167,72205 145167,71942 138052,71942 "/>
      <polygon class="fil81" points="140577,69336 139022,69336 139022,71942 140577,71942 "/>
      <polygon class="fil81" points="144198,69336 142642,69336 142642,71942 144198,71942 "/>
      <polygon class="fil78" points="141781,71942 141453,71942 141453,69456 141781,69456 "/>
     </g>
    </g>
    <g>
     <path class="fil82" d="M201690 32334c0,-1890 -1181,-3505 -2844,-4146 -2274,194 -4059,2101 -4059,4425 0,1890 1181,3504 2844,4146 2274,-194 4059,-2102 4059,-4425z"/>
     <path class="fil83" d="M201690 32334c0,2323 -1785,4231 -4059,4425 496,191 1035,296 1598,296 2453,0 4442,-1989 4442,-4442 0,-2453 -1989,-4442 -4442,-4442 -129,0 -257,6 -383,17 1663,641 2844,2256 2844,4146z"/>
    </g>
    <g>
     <path class="fil82" d="M47284 45726c0,-915 -572,-1697 -1378,-2008 -1101,94 -1965,1018 -1965,2143 0,915 572,1697 1377,2008 1101,-94 1966,-1018 1966,-2143z"/>
     <path class="fil83" d="M47284 45726c0,1125 -865,2049 -1966,2143 240,92 501,143 774,143 1188,0 2151,-963 2151,-2151 0,-1188 -963,-2151 -2151,-2151 -63,0 -124,3 -186,8 806,311 1378,1093 1378,2008z"/>
    </g>
    <polygon class="fil15" points="62246,116363 50173,115155 47931,109892 31136,107592 0,112686 0,116363 "/>
    <g>
     <path class="fil84" d="M15635 54208c-862,-29 -1554,-738 -1560,-1616l-13 0c-6,878 -698,1587 -1562,1616 866,28 1562,743 1562,1627l12 0c0,-884 695,-1599 1561,-1627z"/>
     <path class="fil9" d="M127107 54388c-333,-11 -600,-285 -602,-624l-6 0c-2,339 -269,613 -603,624 335,11 603,288 603,629l5 0c0,-341 269,-618 603,-629z"/>
     <path class="fil85" d="M173783 56341c-351,11 -633,300 -635,656l-6 0c-3,-356 -283,-645 -634,-656 352,-12 635,-302 635,-662l5 0c0,360 283,650 635,662z"/>
     <path class="fil9" d="M207857 51901c66,-104 201,-135 302,-73 105,66 136,202 73,306 -66,104 -201,139 -302,73 -104,-66 -136,-202 -73,-306z"/>
     <path class="fil9" d="M222905 45294c66,-105 202,-136 303,-73 104,66 135,201 69,305 -62,105 -198,136 -302,73 -101,-66 -132,-201 -70,-305z"/>
     <path class="fil9" d="M224793 15246c66,-105 201,-136 302,-70 104,63 136,202 73,306 -66,104 -202,136 -306,70 -101,-66 -132,-202 -69,-306l0 0z"/>
     <path class="fil9" d="M214701 43347c66,-105 202,-136 302,-70 105,63 136,202 73,306 -66,104 -201,136 -306,70 -100,-66 -132,-202 -69,-306l0 0z"/>
     <path class="fil9" d="M183325 17935c63,105 202,136 303,70 104,-63 135,-202 69,-306 -62,-104 -198,-135 -302,-69 -101,66 -132,201 -70,305z"/>
     <path class="fil9" d="M231530 26827c66,104 202,139 306,73 101,-66 132,-202 70,-306 -66,-105 -202,-136 -303,-70 -104,63 -135,202 -73,303l0 0z"/>
     <path class="fil9" d="M216589 31252c66,105 202,136 303,70 104,-66 135,-202 73,-306 -66,-104 -202,-136 -306,-70 -101,63 -132,202 -70,306l0 0z"/>
     <path class="fil86" d="M209031 33427c580,-21 1049,-501 1053,-1092l10 0c4,591 470,1071 1054,1092 -588,17 -1057,500 -1057,1095l-7 0c0,-595 -469,-1078 -1053,-1095z"/>
     <path class="fil9" d="M99953 32859c66,-104 202,-135 303,-73 104,66 135,202 73,306 -67,104 -202,139 -303,73 -104,-66 -135,-202 -73,-306z"/>
     <path class="fil9" d="M74531 53583c66,-104 202,-135 303,-73 104,66 135,202 69,306 -62,105 -198,136 -302,73 -101,-66 -132,-201 -70,-306z"/>
     <path class="fil9" d="M128064 20050c66,-104 202,-136 302,-70 105,63 136,202 73,306 -66,105 -201,136 -305,70 -101,-66 -133,-202 -70,-306l0 0z"/>
     <path class="fil9" d="M115856 40856c66,-105 201,-136 302,-70 105,63 136,202 73,306 -66,104 -201,136 -306,70 -100,-66 -132,-202 -69,-306l0 0z"/>
     <path class="fil9" d="M112874 19481c63,105 202,136 303,70 104,-63 135,-202 69,-306 -62,-104 -198,-135 -302,-69 -101,66 -132,201 -70,305z"/>
     <path class="fil9" d="M102028 50754c66,104 202,139 306,73 101,-66 132,-202 70,-306 -66,-105 -202,-136 -303,-70 -104,63 -135,202 -73,303l0 0z"/>
     <path class="fil9" d="M34532 28257c66,104 201,136 302,70 104,-66 136,-202 73,-306 -66,-105 -202,-136 -306,-70 -101,63 -132,202 -69,306l0 0z"/>
     <path class="fil9" d="M249839 17786c66,-104 202,-135 302,-73 105,66 136,202 73,306 -66,104 -201,139 -302,73 -104,-66 -136,-202 -73,-306z"/>
     <path class="fil9" d="M130373 32443c66,-105 202,-136 303,-74 104,67 135,202 69,306 -62,105 -198,136 -302,73 -101,-66 -132,-201 -70,-305z"/>
     <path class="fil9" d="M158870 9314c66,-105 202,-136 302,-70 105,63 136,202 73,306 -66,104 -201,136 -305,70 -101,-66 -133,-202 -70,-306l0 0z"/>
     <path class="fil9" d="M181926 42370c66,-105 201,-136 302,-70 105,63 136,202 73,306 -66,104 -201,135 -306,69 -100,-66 -132,-201 -69,-305l0 0z"/>
     <path class="fil9" d="M146416 24898c63,104 202,136 302,70 105,-63 136,-202 70,-306 -63,-105 -198,-136 -303,-70 -100,66 -132,202 -69,306z"/>
     <path class="fil9" d="M161947 29118c66,105 202,139 306,73 101,-66 132,-201 69,-306 -66,-104 -201,-135 -302,-69 -104,63 -136,202 -73,302l0 0z"/>
     <path class="fil9" d="M147006 33544c66,104 202,136 302,70 105,-67 136,-202 73,-306 -66,-105 -201,-136 -306,-70 -100,63 -132,202 -69,306l0 0z"/>
     <path class="fil9" d="M254661 45599c341,-12 617,-294 619,-641l6 0c2,347 276,629 619,641 -345,11 -621,295 -621,644l-4 0c0,-349 -276,-633 -619,-644z"/>
     <path class="fil9" d="M78521 40442c66,-104 201,-136 302,-73 104,66 136,202 73,306 -66,104 -202,139 -302,73 -105,-66 -136,-202 -73,-306z"/>
     <path class="fil9" d="M88510 41502c66,-104 201,-135 302,-73 104,66 136,202 70,306 -63,104 -198,136 -303,73 -101,-66 -132,-202 -69,-306z"/>
     <path class="fil9" d="M89902 7467c66,-104 202,-136 302,-70 105,63 136,202 73,306 -66,105 -201,136 -306,70 -100,-66 -132,-202 -69,-306l0 0z"/>
     <path class="fil9" d="M58114 23769c66,-104 202,-135 303,-69 104,62 135,201 73,305 -66,105 -202,136 -306,70 -101,-66 -132,-202 -70,-306l0 0z"/>
     <path class="fil9" d="M49740 341c63,104 202,135 302,69 105,-63 136,-202 70,-306 -63,-104 -198,-135 -302,-69 -101,66 -133,201 -70,306z"/>
     <path class="fil9" d="M13167 37077c66,104 202,139 306,73 101,-66 132,-202 70,-306 -66,-105 -202,-136 -303,-70 -104,63 -135,202 -73,303l0 0z"/>
     <path class="fil9" d="M91106 20953c66,104 202,136 303,69 104,-66 135,-201 73,-306 -66,-104 -202,-135 -306,-69 -101,63 -132,202 -70,306l0 0z"/>
     <path class="fil11" d="M39727 17575c580,-21 1050,-500 1053,-1091l11 0c3,591 469,1070 1053,1091 -587,18 -1057,501 -1057,1095l-7 0c0,-594 -469,-1077 -1053,-1095z"/>
     <path class="fil10" d="M198378 31946c66,104 201,135 302,69 104,-66 136,-201 73,-306 -66,-104 -202,-135 -306,-69 -101,62 -132,201 -69,306l0 0z"/>
     <path class="fil10" d="M196684 33074c54,-169 163,-220 245,-113 84,101 110,327 59,495 -53,169 -163,220 -248,113 -81,-107 -107,-327 -56,-495l0 0z"/>
     <path class="fil11" d="M202116 33816c109,-171 332,-223 497,-114 172,103 223,332 120,503 -108,171 -331,223 -502,114 -166,-108 -218,-331 -115,-503l0 0z"/>
     <path class="fil10" d="M198245 34183c67,104 202,135 303,69 104,-66 136,-201 73,-306 -66,-104 -202,-135 -306,-69 -101,62 -132,201 -70,306l0 0z"/>
     <path class="fil4" d="M199087 30824c158,250 482,325 724,167 250,-158 324,-483 175,-733 -159,-250 -483,-324 -733,-166 -241,150 -316,483 -166,732l0 0z"/>
    </g>
    <path class="fil11" d="M198336 116363c19935,-6667 59231,-7578 73318,-4467l0 4467 -73318 0z"/>
   </g>
   <g>
    <g>
     <path class="fil87" d="M216238 116363l0 -19314c0,-2334 1892,-4226 4226,-4226l35107 0c2334,0 4226,1892 4226,4226l0 19314 -43559 0z"/>
     <path class="fil88" d="M209601 116363l3621 -11109c858,-2632 2802,-4769 5341,-5873l2364 -1027c2037,-886 4236,-1343 6457,-1343l10633 0 10634 0c2221,0 4419,457 6457,1343l2364 1027c2539,1104 4483,3241 5341,5873l3621 11109 -56833 0z"/>
     <polygon class="fil89" points="228386,100242 247649,100242 247649,82482 228386,82482 "/>
     <polygon class="fil90" points="231988,100242 247649,100242 247649,82482 231988,82482 "/>
     <path class="fil91" d="M224299 87529l27437 0c1184,0 2143,-959 2143,-2143l0 -4073c0,-1183 -959,-2143 -2143,-2143l-27437 0c-1184,0 -2143,960 -2143,2143l0 4073c0,1184 959,2143 2143,2143z"/>
     <path class="fil92" d="M238017 68830c8020,0 14520,6501 14520,14520 0,8019 -6500,14520 -14520,14520 -8019,0 -14520,-6501 -14520,-14520 0,-8019 6501,-14520 14520,-14520z"/>
     <path class="fil93" d="M223497 83350c0,-8019 6501,-14520 14520,-14520 4472,0 8472,2021 11135,5200 1106,5506 -475,11443 -4743,15711 -4268,4269 -10206,5849 -15711,4744 -3179,-2664 -5201,-6663 -5201,-11135z"/>
     <path class="fil94" d="M238017 69819c7473,0 13531,6058 13531,13531 0,7473 -6058,13531 -13531,13531 -7472,0 -13531,-6058 -13531,-13531 0,-7473 6059,-13531 13531,-13531z"/>
     <path class="fil95" d="M224486 83350c0,-7473 6059,-13531 13531,-13531 4803,0 9021,2502 11423,6274 385,4889 -1292,9909 -5031,13648 -3739,3740 -8760,5416 -13648,5031 -3772,-2402 -6275,-6619 -6275,-11422z"/>
     <path class="fil96" d="M238017 73381c7079,0 12817,4463 12817,9969 0,5506 -5738,9969 -12817,9969 -7078,0 -12816,-4463 -12816,-9969 0,-5506 5738,-9969 12816,-9969z"/>
     <path class="fil97" d="M251742 97309c-3449,3629 -8323,5892 -13725,5892 -5402,0 -10275,-2263 -13724,-5892 1016,-197 2051,-298 3091,-298l1002 0c2678,2028 6014,3231 9631,3231 3618,0 6954,-1203 9632,-3231l1002 0c1040,0 2075,101 3091,298z"/>
     <polygon class="fil93" points="246502,116363 246502,109233 229533,109233 229533,116363 "/>
     <polygon class="fil94" points="254174,116363 255196,111465 255215,116363 "/>
     <polygon class="fil94" points="220744,116363 220527,110761 221821,116363 "/>
    </g>
    <path class="fil98" d="M238017 77673c5648,0 10486,1452 12514,3514 -1270,-4466 -6390,-7806 -12514,-7806 -6123,0 -11243,3340 -12513,7806 2027,-2062 6866,-3514 12513,-3514z"/>
    <path class="fil99" d="M244448 83757c861,3040 -2541,5762 -7598,6079 -5057,317 -9854,-1890 -10715,-4931 -860,-3040 2541,-5762 7598,-6079 5058,-318 9855,1890 10715,4931z"/>
    <path class="fil100" d="M238931 84688c334,2149 -2226,3752 -5719,3582 -3492,-170 -6594,-2050 -6929,-4199 -334,-2149 2226,-3753 5719,-3582 3492,170 6595,2050 6929,4199z"/>
    <path class="fil101" d="M234171 83627c174,1274 -1160,2225 -2981,2124 -1821,-101 -3438,-1215 -3612,-2489 -174,-1274 1161,-2225 2981,-2124 1821,101 3438,1216 3612,2489z"/>
    <path class="fil102" d="M232074 82866c101,737 -671,1287 -1723,1228 -1053,-58 -1988,-703 -2089,-1439 -101,-737 671,-1287 1724,-1229 1053,59 1988,703 2088,1440z"/>
    <path class="fil103" d="M248846 111611c2715,-5812 3529,-11082 3765,-14108 10,-134 20,-264 28,-389 842,213 1668,495 2469,843l893 388 -1446 -219 -1106 -168c-51,574 -122,1215 -219,1915l4611 700c91,-293 179,-590 265,-888 33,-115 65,-230 97,-345 268,144 527,300 779,468 -32,111 -64,222 -96,333 -1972,6739 -5396,12422 -5396,12422l-4644 -952zm4278 -11031c-82,520 -181,1082 -301,1681l4229 642c195,-531 385,-1079 569,-1641l-4497 -682zm-1664 6814c-169,508 -351,1027 -549,1554l3280 498c234,-461 487,-972 749,-1524l-3480 -528zm222 -689l3574 542 223 -489c143,-319 291,-656 442,-1008l-3789 -575c-136,496 -286,1007 -450,1530zm634 -2225l3891 591c196,-473 394,-969 590,-1485l-4121 -625c-106,487 -225,994 -360,1519zm-1668 5150c-175,444 -360,892 -558,1345l2959 607c193,-343 469,-841 796,-1466l-3197 -486z"/>
    <path class="fil103" d="M223424 97503c236,3026 1050,8296 3765,14108l-4644 952c0,0 -3424,-5683 -5396,-12422 -32,-111 -64,-222 -96,-333 252,-168 511,-324 779,-468 32,115 64,230 97,345 86,298 174,595 265,888l4611 -700c-97,-700 -168,-1341 -219,-1915l-1106 168 -1446 219 893 -388c801,-348 1627,-630 2469,-843 8,125 17,255 28,389zm-212 4758c-120,-599 -219,-1161 -301,-1681l-4497 682c183,562 374,1110 568,1641l4230 -642zm-3384 2810l3891 -591c-135,-525 -254,-1032 -360,-1519l-4121 625c196,516 394,1012 590,1485zm4525 1634c-164,-523 -314,-1034 -450,-1530l-3789 575c150,352 299,689 442,1008l223 489 3574 -542zm222 689l-3480 528c262,552 515,1063 749,1524l3280 -498c-198,-527 -380,-1046 -549,-1554zm812 2236l-3197 486c327,625 602,1123 796,1466l2958 -607c-197,-453 -382,-901 -557,-1345z"/>
    <path class="fil104" d="M252823 102261c120,-599 219,-1161 301,-1681l4497 682c-184,562 -374,1110 -569,1641l-4229 -642z"/>
    <path class="fil105" d="M252676 102961l4121 625c-196,516 -394,1012 -590,1485l-3891 -591c135,-525 254,-1032 360,-1519z"/>
    <path class="fil106" d="M252132 105175l3789 575c-151,352 -299,689 -442,1008l-223 489 -3574 -542c164,-523 314,-1034 450,-1530z"/>
    <path class="fil107" d="M251460 107394l3480 528c-262,552 -515,1063 -749,1524l-3280 -498c198,-527 380,-1046 549,-1554z"/>
    <path class="fil108" d="M250648 109630l3197 486c-327,625 -603,1123 -796,1466l-2959 -607c198,-453 383,-901 558,-1345z"/>
    <path class="fil108" d="M225387 109630c175,444 360,892 557,1345l-2958 607c-194,-343 -469,-841 -796,-1466l3197 -486z"/>
    <path class="fil107" d="M225124 108948l-3280 498c-234,-461 -487,-972 -749,-1524l3480 -528c169,508 351,1027 549,1554z"/>
    <path class="fil106" d="M224353 106705l-3574 542 -223 -489c-143,-319 -292,-656 -442,-1008l3789 -575c136,496 286,1007 450,1530z"/>
    <path class="fil105" d="M223719 104480l-3891 591c-196,-473 -394,-969 -590,-1485l4121 -625c106,487 225,994 360,1519z"/>
    <path class="fil104" d="M223212 102261l-4230 642c-194,-531 -385,-1079 -568,-1641l4497 -682c82,520 181,1082 301,1681z"/>
    <path class="fil108" d="M222805 99873l-4611 700c-91,-293 -179,-590 -265,-888l-97 -345c237,-128 481,-247 731,-355l1471 -640 1446 -219 1106 -168c51,574 122,1215 219,1915z"/>
    <path class="fil108" d="M253230 99873c97,-700 168,-1341 219,-1915l1106 168 1446 219 1471 640c250,108 494,227 731,355l-97 345c-86,298 -174,595 -265,888l-4611 -700z"/>
    <g>
     <path class="fil106" d="M240316 114300l983 0c657,0 1189,-533 1189,-1189l0 195c0,679 -550,1230 -1230,1230l-877 0 -4301 0 -1161 0c-680,0 -1230,-551 -1230,-1230l0 -195c0,656 532,1189 1188,1189l1267 0 4172 0z"/>
     <path class="fil109" d="M242488 113111c0,656 -532,1189 -1189,1189l-983 0 -4172 0 -1267 0c-656,0 -1188,-533 -1188,-1189l0 -940 0 -42c0,-656 532,-1188 1188,-1188l1758 0 3190 0 1433 0 41 0c657,0 1189,532 1189,1188l0 42 0 940z"/>
     <path class="fil106" d="M244223 113432c-392,0 -710,-317 -710,-709 0,-10 1,-20 1,-29 15,349 327,628 709,628 382,0 694,-279 709,-628 0,9 0,19 0,29 0,392 -317,709 -709,709z"/>
     <path class="fil109" d="M244223 113322c-382,0 -694,-279 -709,-628 0,-9 -1,-18 -1,-27 0,-361 318,-654 710,-654 392,0 709,293 709,654 0,9 0,18 0,27 -15,349 -327,628 -709,628z"/>
     <path class="fil106" d="M232522 112723c0,392 -318,709 -710,709 -392,0 -710,-317 -710,-709 0,-10 1,-20 1,-29 15,349 327,628 709,628 382,0 694,-279 709,-628 1,9 1,19 1,29z"/>
     <path class="fil109" d="M232521 112694c-15,349 -327,628 -709,628 -382,0 -694,-279 -709,-628 0,-9 -1,-18 -1,-27 0,-361 318,-654 710,-654 392,0 710,293 710,654 0,9 0,18 -1,27z"/>
    </g>
   </g>
  </g>
 </g>
</svg>
