<?xml version="1.0" encoding="UTF-8"?>
<!DOCTYPE svg PUBLIC "-//W3C//DTD SVG 1.1//EN" "http://www.w3.org/Graphics/SVG/1.1/DTD/svg11.dtd">
<!-- Creator: CorelDRAW X7 -->
<svg xmlns="http://www.w3.org/2000/svg" xml:space="preserve" width="12.0266in" height="5.77339in" version="1.1" style="shape-rendering:geometricPrecision; text-rendering:geometricPrecision; image-rendering:optimizeQuality; fill-rule:evenodd; clip-rule:evenodd"
viewBox="0 0 120266 57734"
 xmlns:xlink="http://www.w3.org/1999/xlink">
 <defs>
  <style type="text/css">
   <![CDATA[
    .fil49 {fill:#657AA9}
    .fil23 {fill:#7C94CA}
    .fil47 {fill:#899FCF}
    .fil43 {fill:#8C89C1}
    .fil60 {fill:#9B98C9}
    .fil36 {fill:#A5A2CE}
    .fil48 {fill:#A5B7DB}
    .fil37 {fill:#AABADC}
    .fil40 {fill:#AEBEDE}
    .fil71 {fill:#BB9B61}
    .fil64 {fill:#BBB8DA}
    .fil5 {fill:#BDBBDB}
    .fil50 {fill:#C1C0DF}
    .fil32 {fill:#C7A76C}
    .fil4 {fill:#CECBE4}
    .fil9 {fill:#D6BB8A}
    .fil31 {fill:#D7B67C}
    .fil69 {fill:#D7B77D}
    .fil51 {fill:#D8DBEE}
    .fil35 {fill:#D9D7EA}
    .fil73 {fill:#DFC596}
    .fil67 {fill:#E0E6F3}
    .fil74 {fill:#E3CCA2}
    .fil75 {fill:#EBDABB}
    .fil38 {fill:#EBEFF7}
    .fil62 {fill:#EED5AB}
    .fil0 {fill:#EFE3CB}
    .fil66 {fill:#EFF2F9}
    .fil72 {fill:#F1E5CF}
    .fil2 {fill:#F7F2E6}
    .fil1 {fill:#F7F2E7}
    .fil57 {fill:#F8F9FC}
    .fil41 {fill:#FBFCFE}
    .fil68 {fill:white}
    .fil20 {fill:#657AA9;fill-rule:nonzero}
    .fil56 {fill:#6D81AF;fill-rule:nonzero}
    .fil42 {fill:#7084B0;fill-rule:nonzero}
    .fil27 {fill:#7C94CA;fill-rule:nonzero}
    .fil21 {fill:#899FCF;fill-rule:nonzero}
    .fil45 {fill:#8C89C1;fill-rule:nonzero}
    .fil58 {fill:#8CA0CD;fill-rule:nonzero}
    .fil53 {fill:#93A7D4;fill-rule:nonzero}
    .fil34 {fill:#9B98C9;fill-rule:nonzero}
    .fil12 {fill:#A38755;fill-rule:nonzero}
    .fil55 {fill:#A58D63;fill-rule:nonzero}
    .fil25 {fill:#A5B7DB;fill-rule:nonzero}
    .fil39 {fill:#AABADC;fill-rule:nonzero}
    .fil46 {fill:#ABBBE0;fill-rule:nonzero}
    .fil14 {fill:#B3C1E0;fill-rule:nonzero}
    .fil22 {fill:#B7C4E3;fill-rule:nonzero}
    .fil54 {fill:#B7C4E3;fill-rule:nonzero}
    .fil24 {fill:#B8C5E2;fill-rule:nonzero}
    .fil44 {fill:#BEBCDC;fill-rule:nonzero}
    .fil29 {fill:#C7A76C;fill-rule:nonzero}
    .fil7 {fill:#D4B47A;fill-rule:nonzero}
    .fil52 {fill:#D4B887;fill-rule:nonzero}
    .fil70 {fill:#D6BB8A;fill-rule:nonzero}
    .fil30 {fill:#D7B67C;fill-rule:nonzero}
    .fil15 {fill:#D7B77D;fill-rule:nonzero}
    .fil65 {fill:#D8DBEE;fill-rule:nonzero}
    .fil61 {fill:#D9D7EA;fill-rule:nonzero}
    .fil10 {fill:#DBBE8A;fill-rule:nonzero}
    .fil59 {fill:#DFC596;fill-rule:nonzero}
    .fil28 {fill:#E2CBA1;fill-rule:nonzero}
    .fil13 {fill:#E3CDA4;fill-rule:nonzero}
    .fil26 {fill:#E4E9F4;fill-rule:nonzero}
    .fil6 {fill:#E6D1AB;fill-rule:nonzero}
    .fil19 {fill:#E6D2AE;fill-rule:nonzero}
    .fil33 {fill:#E9D1A9;fill-rule:nonzero}
    .fil3 {fill:#E9E7F2;fill-rule:nonzero}
    .fil17 {fill:#F1E5CF;fill-rule:nonzero}
    .fil8 {fill:#F4E3C8;fill-rule:nonzero}
    .fil18 {fill:#FBF7F0;fill-rule:nonzero}
    .fil16 {fill:#FBFCFE;fill-rule:nonzero}
    .fil63 {fill:#FCE9CA;fill-rule:nonzero}
    .fil11 {fill:white;fill-rule:nonzero}
   ]]>
  </style>
 </defs>
 <g id="Layer_x0020_1">
  <metadata id="CorelCorpID_0Corel-Layer"/>
  <g id="_1759339392112">
   <g>
    <g>
     <path class="fil0" d="M0 25524c8699,4156 18676,4464 26223,761 631,-310 1239,-643 1822,-1001 5735,-3511 9104,-9270 9550,-16423 231,-3704 894,-6643 2008,-8861l43061 0c2369,9469 1829,16255 -5693,20572 -816,469 -2634,1005 -3572,1197 -7404,1522 -16872,-2726 -23474,-3598 -5804,-767 -9595,1747 -11428,10404 -2099,9906 -7293,16796 -15223,19385 -8984,2934 -16427,941 -23274,-2337l0 -20099z"/>
     <path class="fil1" d="M0 0l28045 0 11558 0c-1114,2218 -1777,5157 -2008,8861 -446,7153 -3815,12912 -9550,16423 -583,358 -1191,691 -1822,1001 -7547,3703 -17524,3395 -26223,-761l0 -25524z"/>
     <path class="fil1" d="M0 40535c1770,923 3604,1679 5468,2262 6007,1879 12326,1965 17798,70 1731,-599 3328,-1376 4779,-2317 4647,-3012 7797,-7704 9049,-13612 1489,-7029 2939,-19001 14300,-14960 5018,1785 9918,6801 15769,8652 3685,1166 7666,1123 10802,-669 -4443,3619 -16241,2181 -25123,2881 -11576,912 -12375,5305 -11971,14184 75,1657 80,3343 -41,5001 -794,10873 -6864,16280 -17900,14971 -8283,-982 -17821,-5289 -22930,-8723l0 -7740z"/>
    </g>
    <path class="fil2" d="M54687 0c3053,743 5236,2306 6991,4081 3664,3708 5456,8344 9375,8387 6294,69 8116,-7415 7673,-12468l-24039 0z"/>
   </g>
   <path class="fil0" d="M120266 27051c0,-9228 -7481,-16709 -16709,-16709 -9229,0 -16710,7481 -16710,16709 0,9229 7481,16710 16710,16710 9228,0 16709,-7481 16709,-16710zm-13559 4730l0 3150 -12610 0 0 -3150 12610 0zm-12610 -12614c6305,0 12614,0 18919,0l-3154 3155 -15765 0 0 -3155zm18919 6305c0,3154 0,6309 0,9459l-3154 0 0 -6305 -15765 0 0 -3154c6305,0 12610,0 18919,0l0 0z"/>
   <g>
    <g>
     <g>
      <polygon class="fil3" points="35941,16625 55475,27838 55516,44237 35941,33000 "/>
      <g>
       <path class="fil4" d="M41740 29293l3796 2192 -16 5485 -3796 -2192 16 -5485zm4207 7923l16 -5484 7963 4597 -16 5484 -7963 -4597zm8037 -1688l-12242 -7068 2 -622 12241 7068 -1 622zm3 -1144l-12242 -7067 2 -622 12242 7068 -2 621zm3 -1143l-12242 -7067 2 -623 12242 7067 -2 623zm3 -1144l-12241 -7068 1 -621 12242 7067 -2 622zm4 -1143l-12242 -7068 2 -622 12241 7068 -1 622zm-12926 -8086l-33 11514 -4187 -2417 33 -11514 4187 2417zm13988 20591l38 -13473 -19156 -11063 0 13499 19118 11037z"/>
       <polygon class="fil5" points="49821,35339 49816,37363 50795,36914 "/>
      </g>
     </g>
     <g>
      <path class="fil6" d="M45856 36790l-2418 -1396c-101,-58 -159,-131 -172,-203l0 9207c-19,91 40,192 172,268l2418 1396c110,64 250,97 386,101l0 -9273c-136,-3 -276,-36 -386,-100z"/>
      <path class="fil7" d="M45242 46713l0 -6009 0 0 0 0c-11,55 -51,107 -121,147l-2521 1455c-88,51 -209,74 -334,71l0 6075c125,3 246,-20 334,-71l2521 -1456c96,-55 135,-133 121,-212z"/>
      <g>
       <path class="fil8" d="M49097 35364l-2521 1456c-184,106 -508,92 -720,-30l-2418 -1396c-212,-122 -235,-309 -51,-416l2521 -1455c183,-106 508,-93 720,30l2417 1396c213,122 236,309 52,415z"/>
       <path class="fil7" d="M49218 44424l0 -9207 0 0 0 0c-12,56 -51,107 -121,147l-2521 1456c-88,51 -209,73 -334,70l0 9273c125,3 246,-20 334,-71l2521 -1456c96,-55 135,-133 121,-212z"/>
       <path class="fil8" d="M45121 40851l-2521 1455c-184,107 -508,93 -720,-29l-2417 -1396c-213,-123 -236,-310 -52,-416l2521 -1456c184,-106 508,-92 720,30l2418 1396c212,123 235,310 51,416z"/>
       <path class="fil6" d="M41880 42277l-2417 -1396c-102,-59 -159,-132 -173,-204l0 6010c-18,91 40,192 173,268l2417 1396c110,64 251,97 386,100l0 -6074c-135,-3 -276,-37 -386,-100z"/>
       <path class="fil8" d="M41233 45405l-2521 1455c-184,106 -508,93 -720,-30l-2417 -1396c-213,-122 -236,-309 -52,-415l2521 -1456c184,-106 508,-92 720,30l2418 1396c212,122 235,309 51,416z"/>
       <path class="fil7" d="M41354 48958l0 -3700c0,-1 0,-1 0,-1l0 0c-12,56 -51,107 -121,148l-2521 1455c-88,51 -209,74 -334,71l0 3766c125,3 246,-20 334,-71l2521 -1455c96,-56 135,-134 121,-213z"/>
       <path class="fil6" d="M37992 46830l-2418 -1396c-101,-58 -158,-131 -172,-203l0 3701c-18,91 40,192 172,268l2418 1396c110,64 251,97 386,101l0 -3766c-135,-4 -276,-37 -386,-101z"/>
       <polygon class="fil9" points="40156,44397 39421,43972 37307,45193 38042,45617 "/>
       <polygon class="fil9" points="41409,41567 42144,41991 44955,40369 44220,39944 "/>
       <polygon class="fil9" points="45988,35239 46723,35663 48503,34635 47768,34211 "/>
      </g>
     </g>
     <g>
      <polygon class="fil10" points="17635,35706 23312,38984 23312,38516 17635,35239 "/>
      <polygon class="fil11" points="17635,35239 24934,31024 30611,34302 23312,38516 "/>
      <polygon class="fil12" points="23312,38984 30611,34770 30611,34302 23312,38516 "/>
      <polygon class="fil10" points="17635,33821 23312,37099 23312,36631 17635,33355 "/>
      <polygon class="fil13" points="30611,32417 23312,36630 17635,33354 24934,29139 "/>
      <polygon class="fil12" points="23312,37099 30611,32885 30611,32417 23312,36631 "/>
      <path class="fil14" d="M17635 33821l0 0c-422,251 -515,822 -194,1194l194 224 5677 3277 7299 -4214 0 -1417 -7299 4214 -5677 -3278z"/>
      <path class="fil15" d="M17505 33430l130 -76 0 467c-422,251 -515,822 -194,1194l194 224 0 467 -399 -428c-523,-560 -392,-1460 269,-1848z"/>
      <polygon class="fil16" points="20473,33599 25335,30771 27766,32193 22925,34994 "/>
     </g>
     <g>
      <path class="fil11" d="M31544 25510c2,2 4,3 6,4 29,21 58,43 87,66 3,3 7,5 10,8 28,23 55,47 82,71 4,4 8,9 12,13 23,21 45,44 67,67 6,6 13,12 19,19 16,17 32,36 48,54 12,14 23,27 35,40 4,6 8,11 12,17 48,59 94,120 136,185 0,1 1,2 1,2 42,65 81,132 117,201 2,5 5,10 8,15 7,14 14,30 21,44 11,24 23,47 33,71 4,8 7,17 11,25 12,29 24,58 35,87 3,8 6,15 8,22 13,34 24,69 35,103 1,5 3,11 4,16 11,35 20,71 29,106 1,4 1,7 2,11 9,38 17,76 23,114 0,0 0,0 0,1 6,38 10,75 13,113 1,3 1,6 1,9 3,37 5,74 5,111 0,36 -2,71 -5,105 -1,3 -1,6 -1,9 -2,16 -5,32 -7,47 -19,-7 -37,-13 -55,-22 -2,-1 -4,-2 -7,-3 -31,-14 -62,-30 -94,-49 -33,-19 -65,-39 -97,-61 -2,-1 -3,-3 -5,-4 -30,-21 -59,-42 -87,-66 -4,-2 -7,-5 -11,-8 -27,-23 -55,-47 -81,-71 -5,-4 -9,-8 -13,-12 -23,-22 -45,-44 -67,-67 -6,-7 -12,-13 -18,-20 -17,-17 -33,-36 -48,-54 -12,-13 -24,-27 -35,-40 -5,-6 -9,-12 -14,-17 -47,-59 -93,-121 -135,-185 0,-1 -1,-2 -2,-3 -37,-58 -71,-119 -104,-180 -10,-20 -21,-39 -31,-59 -6,-13 -13,-25 -19,-38 -21,-45 -41,-90 -59,-135 -1,-2 -1,-5 -2,-8 -20,-49 -37,-99 -52,-149 -2,-4 -3,-8 -4,-11 -16,-54 -29,-107 -40,-161 -1,-2 -1,-5 -2,-7 -11,-55 -19,-110 -24,-164 0,0 0,-1 0,-1 -4,-45 -7,-90 -7,-134 1,-36 2,-71 5,-105 1,-3 1,-6 1,-9 2,-17 5,-32 7,-48 19,7 37,13 56,22 2,1 4,2 6,3 32,14 63,31 95,49 33,19 65,39 96,61zm-162 -486c-13,8 -27,16 -41,24l-242 141c-21,12 -42,24 -63,36l-270 157c0,0 0,0 0,0 -29,17 -56,39 -81,62 -6,5 -12,11 -18,17 -24,25 -47,52 -66,82 -1,1 -1,1 -1,2 -14,20 -26,42 -37,65 0,1 0,2 -1,3 -1,2 -2,5 -3,7 -6,15 -13,29 -19,45 -2,7 -5,16 -7,24 -2,4 -4,9 -5,14 -2,4 -3,8 -4,12 -5,16 -9,32 -13,49 -2,6 -3,12 -4,18 -1,4 -1,8 -2,12 -1,6 -3,11 -4,17 -2,15 -4,30 -6,46 -1,9 -2,18 -3,26 0,3 -1,6 -1,9 0,4 -1,7 -1,11 -1,15 -2,30 -3,45 -1,16 -1,31 -1,47l0 3c0,14 0,28 0,43 1,15 2,31 3,46 1,15 2,30 3,44 0,1 0,1 0,1 0,0 0,0 0,1 0,0 0,0 0,1 2,15 4,31 6,47 2,16 4,32 7,48 2,17 5,33 8,49 1,6 3,12 4,18 0,3 1,5 1,8 2,9 4,17 6,26 4,18 8,35 12,53 5,19 10,38 15,57 3,8 5,16 8,24 0,2 1,4 1,6 1,2 1,4 2,5 3,9 5,17 7,25 7,21 15,43 22,64 7,20 15,41 23,61 1,3 2,5 3,8 1,2 1,4 2,6 12,28 24,57 36,86 7,14 14,28 21,42 3,7 6,15 9,22 3,5 7,11 9,17 5,10 9,20 14,29 6,10 12,20 18,30 13,24 25,49 39,73 20,36 42,72 65,106 0,1 1,2 2,3 42,65 87,126 135,185 2,4 5,7 7,11 2,2 4,4 6,6 11,14 23,27 35,41 13,15 26,30 39,45 3,3 6,6 9,9 6,7 12,13 18,19 12,12 23,24 34,35 11,11 22,22 33,32 5,4 9,8 13,12 3,3 5,5 8,8 17,15 33,30 50,44 8,7 16,13 24,20 3,2 7,5 10,8 4,3 8,6 11,9 15,12 29,23 44,34 11,8 22,15 32,23 2,1 4,2 6,4 1,1 3,2 5,3 13,9 27,18 41,27 13,9 27,17 40,25 4,2 7,4 10,6 10,6 20,11 30,17 14,7 27,14 40,20 8,4 17,8 25,12 2,1 4,2 6,3 3,1 5,2 7,3 13,6 26,12 39,17 13,5 26,10 38,14 3,1 5,2 7,2 2,1 4,2 6,2 9,3 17,6 26,9 13,4 26,7 39,11 7,1 13,2 19,4 3,0 6,1 8,2 4,0 9,2 13,2 14,3 28,5 42,7 8,1 17,2 25,3 3,0 6,0 9,1 3,0 5,0 8,1 15,1 30,1 45,1 7,0 13,-1 20,-1 5,0 10,0 15,0 5,-1 10,-1 15,-1 19,-2 37,-5 55,-8 1,0 1,0 1,-1 4,0 8,-2 12,-3 19,-4 37,-9 54,-15 2,0 3,-1 4,-2 26,-9 51,-20 74,-34l0 0 0 0 0 0 0 0 792 -460c30,-17 56,-39 81,-62 6,-5 12,-11 18,-17 24,-25 47,-51 67,-82 0,-1 0,-1 1,-1 13,-21 25,-43 36,-66 0,-1 0,-2 1,-2 1,-3 2,-5 3,-7 6,-15 13,-30 19,-46 2,-7 5,-15 7,-23 2,-5 4,-9 5,-14 2,-5 3,-9 4,-13 5,-16 9,-32 13,-49 2,-6 3,-12 4,-18 1,-4 1,-7 2,-11 1,-6 3,-12 4,-18 2,-15 5,-30 6,-46 1,-8 2,-17 3,-25 0,-4 1,-7 1,-10 0,-3 1,-7 1,-11 1,-14 2,-29 3,-45 1,-15 1,-30 1,-46l0 -3c0,-14 0,-29 0,-43 -1,-16 -2,-31 -3,-47 0,-7 -1,-14 -1,-21 -1,-3 -1,-6 -1,-9 0,-5 -1,-11 -1,-16 -2,-16 -4,-32 -6,-47 -2,-17 -4,-33 -6,-49 -1,0 -1,-1 -1,-1 0,0 0,-1 0,-1 -2,-16 -5,-31 -8,-47 -3,-17 -7,-35 -11,-52 -1,-5 -2,-10 -3,-15 -1,-3 -2,-7 -3,-11 -2,-9 -4,-18 -6,-27 -5,-19 -10,-38 -15,-57 -2,-7 -5,-15 -7,-22 -1,-5 -3,-10 -5,-15 -2,-8 -4,-16 -7,-23 -6,-22 -14,-43 -21,-64 -2,-6 -4,-11 -6,-16 -3,-8 -6,-15 -8,-22 -5,-12 -9,-25 -14,-37 -7,-17 -14,-34 -22,-51 -3,-8 -7,-16 -10,-25 -2,-3 -3,-7 -5,-10 -9,-20 -19,-40 -28,-60 -7,-15 -14,-30 -22,-45 -1,-2 -2,-4 -2,-6 -2,-3 -4,-5 -6,-9 -35,-68 -74,-135 -116,-200 -1,-1 -1,-2 -2,-3 -42,-64 -87,-126 -135,-185 -3,-3 -5,-7 -8,-10 -1,-2 -3,-4 -5,-6 -11,-14 -23,-27 -34,-40 -14,-15 -26,-31 -40,-46 -3,-3 -6,-6 -9,-9 -6,-6 -12,-13 -18,-19 -11,-12 -23,-24 -34,-36 -11,-10 -22,-21 -33,-31 -4,-4 -8,-8 -13,-12 -2,-3 -5,-5 -8,-8 -16,-15 -33,-30 -50,-44 -8,-7 -15,-13 -23,-19 -4,-3 -7,-6 -11,-9 -3,-3 -7,-6 -11,-9 -14,-12 -29,-23 -44,-34 -10,-7 -21,-15 -32,-22 -2,-2 -3,-3 -5,-4 -2,-1 -3,-3 -5,-4 -14,-9 -27,-18 -41,-27 -14,-8 -27,-17 -41,-25 -3,-2 -6,-4 -9,-5 -10,-6 -21,-12 -31,-18 -13,-7 -26,-13 -39,-20 -9,-4 -17,-8 -25,-12 -2,-1 -4,-2 -6,-3 -3,-1 -5,-2 -8,-3 -13,-6 -26,-11 -38,-16 -13,-6 -26,-10 -39,-15 -2,-1 -4,-1 -7,-2 -1,-1 -3,-1 -5,-2 -9,-3 -18,-6 -27,-8 -13,-5 -26,-8 -39,-11 -6,-2 -13,-3 -19,-5 -3,0 -5,-1 -8,-1 -4,-1 -8,-2 -12,-3 -15,-3 -29,-5 -42,-7 -9,-1 -17,-2 -26,-3 -3,0 -6,0 -9,-1 -2,0 -5,0 -8,-1 -15,-1 -30,-1 -45,-1 -7,0 -13,1 -19,1 -5,0 -10,0 -15,1 -5,0 -11,0 -16,0 -19,2 -37,5 -55,8 -1,1 -1,1 -1,1 -4,0 -8,2 -12,3 -18,4 -37,9 -54,15 -2,0 -3,1 -4,2 -26,9 -50,20 -73,33 0,0 -1,1 -1,1l0 0 -176 102z"/>
      <path class="fil11" d="M31661 24282c4,3 8,6 12,9 65,45 128,93 191,143 7,6 14,12 22,18 60,50 119,101 178,156 9,8 18,17 28,26 49,47 98,96 146,146 13,14 26,28 39,41 36,39 71,80 106,120 25,29 51,57 75,87 37,45 73,92 108,138 20,26 40,50 59,76 44,61 87,123 129,185 8,14 18,27 27,40 50,77 98,155 144,234 13,24 26,48 39,71 31,57 63,113 92,171 16,32 31,64 46,97 25,51 50,102 73,153 8,19 15,37 23,55 27,63 53,127 77,191 5,16 12,31 17,47 28,75 53,150 76,225 3,11 6,22 10,33 23,78 43,155 61,232 2,8 4,16 6,24 19,83 36,165 49,248 0,1 0,1 0,2 13,83 23,165 30,246 0,7 1,14 1,20 7,82 10,163 10,242 0,80 -4,156 -11,229 0,7 -1,14 -2,20 -7,68 -16,133 -28,195 -2,8 -4,17 -5,25 -13,60 -28,118 -45,174 -3,10 -7,20 -10,30 -18,52 -37,102 -58,149 -3,6 -5,12 -7,17 -26,54 -54,105 -84,152 -4,6 -9,12 -13,18 -2,3 -4,5 -6,8 -1,0 -2,0 -3,0 -22,2 -44,2 -66,3 -13,0 -25,1 -38,1 -17,0 -35,-1 -53,-2 -14,-1 -29,-1 -43,-2 -15,-2 -30,-3 -45,-5 -17,-2 -33,-4 -50,-6 -14,-2 -28,-5 -42,-7 -18,-3 -36,-6 -54,-10 -12,-3 -25,-5 -37,-8 -19,-5 -38,-9 -58,-15 -12,-3 -24,-6 -37,-10 -21,-6 -42,-13 -63,-20 -10,-3 -20,-6 -30,-10 -32,-10 -64,-22 -96,-35 0,0 0,0 -1,0 -31,-13 -63,-27 -95,-41 -10,-5 -20,-10 -30,-14 -23,-11 -45,-22 -68,-34 -12,-6 -23,-11 -35,-17 -30,-17 -60,-33 -91,-51 -71,-41 -141,-85 -210,-133 -4,-3 -8,-6 -12,-8 -64,-45 -127,-93 -190,-144 -7,-6 -15,-12 -22,-18 -60,-49 -120,-101 -178,-155 -9,-9 -18,-18 -28,-27 -49,-47 -98,-96 -146,-146 -13,-14 -27,-27 -40,-41 -36,-39 -70,-79 -105,-119 -25,-30 -51,-58 -76,-88 -36,-44 -71,-90 -107,-136 -19,-26 -40,-52 -60,-78 -42,-58 -83,-118 -123,-177 -11,-17 -22,-32 -33,-48 -50,-77 -98,-155 -144,-234 -13,-23 -24,-46 -37,-68 -32,-58 -64,-115 -94,-174 -16,-31 -30,-64 -46,-96 -25,-51 -50,-102 -73,-154 -8,-18 -15,-36 -22,-54 -27,-63 -53,-127 -77,-191 -6,-16 -12,-32 -18,-48 -27,-74 -53,-149 -76,-225 -3,-11 -6,-22 -10,-33 -23,-77 -43,-154 -61,-231 -2,-8 -4,-16 -6,-24 -19,-83 -35,-166 -49,-248 0,-1 0,-2 0,-2 -13,-83 -23,-165 -30,-247 0,-6 -1,-13 -1,-19 -7,-82 -10,-163 -10,-242 0,-80 4,-156 11,-230 1,-6 1,-13 2,-19 7,-68 16,-133 28,-195 2,-9 4,-17 5,-25 13,-61 28,-119 45,-174 4,-10 7,-20 10,-31 18,-52 37,-102 59,-149 2,-5 4,-11 7,-16 25,-54 53,-105 84,-152 4,-7 8,-12 13,-18 1,-3 4,-5 5,-8 2,0 3,0 4,0 22,-2 44,-3 66,-4 13,0 25,0 38,0 17,0 35,1 53,2 14,0 29,1 43,2 15,1 30,3 45,5 17,1 33,3 50,6 14,2 28,4 42,7 18,3 36,6 54,10 12,2 24,5 37,8 19,4 38,9 58,14 12,3 24,7 36,10 22,6 43,13 64,20 10,3 20,6 30,10 32,11 63,22 95,35 0,0 0,0 1,0 31,13 63,27 96,41 10,5 20,10 30,15 22,10 45,21 68,33 12,6 23,12 34,18 31,16 61,32 92,50 71,41 141,86 209,133zm-292 -878c-17,-1 -35,-2 -53,-2 -5,0 -10,0 -15,0 -7,0 -15,1 -22,1 -23,0 -45,1 -66,3 -7,0 -14,0 -20,1 -5,0 -10,2 -14,2 -34,3 -66,8 -98,14 -3,1 -6,1 -9,1 0,0 -1,1 -1,1 -46,9 -90,22 -133,36 -4,2 -8,2 -12,4 -3,1 -6,2 -9,3 -19,7 -37,15 -55,23 -9,4 -18,7 -27,11 -27,13 -53,26 -78,41l0 0 0 0 0 0 -162 94c-26,15 -53,31 -81,47l-198 115c-31,18 -61,36 -91,53l-168 98 0 0 -93 54c-42,24 -82,53 -120,84 -12,9 -23,19 -34,29 -27,24 -54,49 -79,76 -11,11 -22,23 -32,35 -29,34 -56,69 -81,107 -4,6 -9,12 -13,18 -1,2 -2,3 -3,4 -28,45 -55,93 -79,143 -1,2 -1,4 -2,5 -2,6 -4,11 -7,17 -14,31 -28,63 -41,97 -6,17 -11,35 -17,52 -3,10 -7,20 -10,31 -3,9 -7,18 -9,27 -11,35 -20,70 -28,107 -3,13 -5,26 -8,39 -2,9 -3,17 -5,25 -3,13 -6,25 -8,38 -5,33 -10,66 -15,100 -2,19 -4,38 -6,57 0,7 -1,13 -2,20 0,8 -1,16 -2,24 -3,32 -5,65 -6,98 -2,33 -2,67 -2,101 0,2 -1,4 -1,6 0,32 1,63 2,95 1,33 2,67 4,101 1,15 3,31 4,46 1,7 1,13 2,20 1,12 1,24 3,35 3,35 7,69 11,103 4,35 9,71 15,106 0,1 0,1 0,2 1,1 1,2 1,3 5,34 11,68 18,102 7,37 15,75 23,113 2,11 5,22 7,32 2,8 4,16 6,24 5,20 9,40 14,59 10,41 21,83 33,124 5,17 10,33 15,49 3,11 6,22 10,33 5,17 10,33 15,50 15,46 30,93 47,139 4,12 9,24 13,36 6,16 12,31 18,47 10,27 19,53 30,79 15,38 31,75 47,113 8,18 15,36 23,53 3,7 6,15 9,22 20,45 43,89 64,134 15,32 30,63 46,95 2,4 3,8 5,12 28,55 59,108 89,162 12,22 24,45 37,67 46,80 94,158 144,235 10,15 21,30 31,45 41,61 82,121 125,180 19,26 40,51 60,77 31,41 62,83 94,122 4,5 9,10 12,15 25,30 51,58 76,87 29,33 57,67 86,99 6,7 13,13 20,20 13,14 26,28 40,42 24,26 49,52 73,77 24,23 49,46 73,69 9,9 18,18 27,26 6,6 12,11 18,17 35,33 72,65 108,96 18,15 35,29 52,43 8,6 15,12 23,18 8,7 16,14 24,20 32,25 64,50 96,73 23,18 46,34 70,50 4,3 8,6 12,9 3,2 7,5 10,7 30,21 60,40 90,59 29,19 59,37 89,55 7,4 13,8 20,12 23,13 45,25 67,37 8,5 16,9 25,13 11,6 23,12 34,18 9,4 18,9 26,13 15,7 28,14 43,20 10,5 20,10 30,14 4,2 8,5 12,6 28,13 56,25 83,35 0,1 1,1 1,1l0 0c28,11 56,22 84,32 4,1 7,2 11,3 10,4 20,7 30,10 14,5 29,10 43,14 7,2 14,4 21,6 12,3 25,7 37,10 9,2 19,5 28,8 10,2 20,4 30,6 12,3 24,6 36,9 7,1 13,3 20,4 11,2 23,4 34,5 14,3 28,5 43,8 4,0 10,1 14,2 12,1 24,2 35,3 15,2 30,4 45,5 5,0 9,1 13,1 11,1 20,1 31,1 17,1 35,2 53,2 5,0 10,1 15,1 7,0 15,-1 22,-1 22,-1 44,-2 66,-3 7,-1 14,-1 20,-1 5,-1 9,-2 14,-3 33,-3 66,-8 98,-14 3,0 6,0 8,-1 1,0 1,0 2,0 45,-9 89,-22 132,-37 4,-1 8,-2 12,-3 3,-1 6,-3 9,-4 19,-7 38,-14 56,-22 8,-4 18,-8 26,-12 27,-12 53,-25 78,-40l0 0 1 0 313 -183 479 -278 0 0 0 0c42,-24 82,-53 121,-84 11,-9 22,-19 34,-29 27,-24 53,-49 78,-76 11,-12 22,-23 32,-35 29,-34 56,-70 82,-108 4,-6 8,-11 12,-17 1,-2 2,-3 3,-4 29,-45 55,-93 79,-143 1,-2 1,-4 2,-6 3,-5 5,-11 7,-16 14,-32 28,-64 41,-97 6,-17 11,-35 17,-52 4,-10 7,-20 10,-31 3,-9 7,-18 9,-27 11,-35 20,-70 28,-107 3,-13 5,-26 8,-39 2,-9 4,-17 5,-25 3,-13 6,-25 8,-38 5,-33 10,-66 15,-100 2,-19 4,-38 6,-58 0,-6 1,-13 2,-19 0,-8 1,-16 2,-24 3,-32 5,-65 6,-98 2,-34 2,-67 3,-101 0,-3 0,-5 0,-7 0,-31 -1,-62 -2,-94 -1,-33 -2,-67 -5,-101 0,-15 -2,-31 -3,-46 -1,-7 -1,-14 -2,-20 -1,-12 -1,-24 -3,-36 -3,-34 -7,-68 -11,-103 -4,-35 -10,-70 -15,-106 0,0 0,-1 0,-1 -1,-1 -1,-2 -1,-3 -5,-34 -11,-68 -18,-102 -7,-38 -14,-76 -23,-114 -2,-10 -5,-21 -7,-32 -2,-8 -4,-16 -6,-24 -5,-20 -9,-39 -14,-59 -10,-42 -21,-83 -33,-124 -5,-16 -10,-32 -15,-48 -3,-11 -6,-22 -10,-33 -5,-17 -9,-34 -15,-51 -15,-46 -30,-93 -47,-139 -4,-12 -9,-24 -13,-36 -6,-15 -12,-31 -18,-47 -10,-26 -19,-53 -30,-80 -15,-37 -31,-73 -47,-110 -7,-19 -15,-37 -23,-55 -3,-8 -6,-15 -9,-23 -20,-44 -42,-87 -63,-131 -16,-32 -30,-65 -46,-97 -3,-4 -4,-8 -7,-12 -27,-54 -57,-106 -86,-159 -13,-23 -25,-47 -39,-70 -46,-80 -93,-158 -143,-234 -9,-14 -19,-27 -28,-41 -42,-62 -84,-124 -129,-184 -19,-27 -39,-51 -59,-77 -31,-42 -63,-84 -95,-124 -4,-5 -8,-9 -12,-14 -25,-29 -51,-58 -76,-87 -29,-33 -56,-67 -86,-99 -6,-7 -13,-13 -19,-20 -13,-14 -27,-27 -40,-41 -25,-26 -49,-53 -74,-78 -24,-23 -48,-46 -72,-68 -9,-9 -18,-18 -28,-27 -6,-5 -11,-11 -17,-17 -36,-33 -72,-65 -109,-96 -17,-14 -34,-28 -52,-42 -7,-6 -14,-13 -22,-19 -8,-6 -16,-13 -25,-20 -31,-25 -63,-49 -95,-73 -23,-17 -47,-34 -70,-50 -4,-3 -8,-6 -12,-8 -4,-3 -7,-5 -11,-8 -29,-20 -59,-40 -89,-59 -30,-19 -59,-37 -89,-54 -7,-5 -14,-9 -21,-13 -22,-12 -44,-25 -66,-37 -8,-4 -17,-8 -25,-13 -12,-6 -23,-12 -34,-17 -9,-5 -18,-10 -27,-14 -14,-7 -28,-13 -42,-20 -10,-5 -20,-10 -30,-14 -4,-2 -8,-4 -12,-6 -28,-12 -56,-24 -84,-35 0,-1 0,-1 -1,-1 -28,-11 -56,-21 -83,-31 -4,-1 -7,-2 -11,-4 -10,-3 -20,-6 -30,-10 -14,-4 -29,-9 -43,-14 -7,-2 -14,-3 -21,-5 -12,-4 -25,-7 -37,-11 -9,-2 -19,-5 -28,-7 -10,-3 -20,-5 -30,-7 -12,-3 -24,-5 -37,-8 -6,-1 -13,-3 -19,-4 -12,-3 -23,-4 -34,-6 -14,-2 -29,-5 -43,-7 -5,-1 -10,-2 -15,-3 -11,-1 -23,-2 -34,-3 -15,-2 -30,-4 -45,-5 -5,0 -9,-1 -14,-1 -10,-1 -20,0 -30,-1z"/>
      <path class="fil12" d="M31612 22904c4,3 9,5 13,8 51,32 102,67 153,102 18,12 36,25 53,38 34,24 67,48 101,72 22,17 44,34 66,51 30,23 59,46 88,69 25,20 49,40 74,61 26,22 53,44 79,66 32,28 63,56 94,84 23,20 45,40 67,60 46,42 90,85 135,129 11,11 22,22 34,33 62,62 123,127 184,192 13,14 26,29 39,43 82,89 162,181 239,275 10,13 20,25 30,37 77,96 153,193 226,293 7,9 13,19 20,28 76,104 150,211 220,319 3,3 4,6 6,9 72,110 140,222 206,335 4,6 7,11 11,17 64,111 125,223 183,337 6,11 13,23 19,35 56,111 110,223 160,335 8,17 16,33 23,50 38,85 74,171 109,257 8,21 15,42 23,62 22,57 44,113 64,170 11,29 21,59 32,89 13,39 26,78 39,116 11,33 21,66 31,99 11,34 21,68 31,103 10,34 20,69 30,104 8,30 17,61 24,92 10,37 19,75 28,112 7,26 13,52 19,78 9,41 18,81 26,122 5,23 10,46 14,69 11,56 21,113 30,169 1,5 2,11 3,17 10,62 18,124 26,185 2,18 4,35 6,53 5,44 9,88 13,131 2,21 4,42 5,63 3,42 6,83 8,124 1,20 2,40 2,60 2,58 4,117 4,175 -1,60 -2,120 -5,178 -1,17 -2,33 -3,50 -2,40 -5,80 -8,119 -2,23 -5,45 -7,67 -4,33 -8,66 -12,99 -3,24 -7,47 -11,71 -5,30 -10,59 -15,88 -5,27 -10,52 -16,78 -5,26 -11,52 -17,78 -8,30 -15,60 -24,89 -6,23 -12,46 -19,68 -11,35 -23,70 -35,103 -6,19 -12,38 -19,55 -22,57 -45,113 -70,166 -39,82 -81,159 -128,232 -33,52 -69,101 -106,147 -9,12 -18,23 -27,34 -22,26 -46,51 -69,76 -8,2 -16,4 -24,6 -10,2 -20,5 -30,7 -6,1 -11,1 -16,3 -50,9 -101,16 -153,22 -18,2 -35,3 -53,4 -34,3 -68,4 -103,5 -19,1 -39,1 -58,1 -28,0 -55,-1 -83,-3 -23,-1 -45,-1 -68,-3 -23,-2 -47,-5 -70,-7 -26,-3 -51,-6 -77,-10 -22,-3 -44,-7 -66,-11 -28,-5 -56,-9 -84,-15 -19,-4 -38,-9 -57,-13 -30,-7 -60,-14 -90,-22 -20,-6 -39,-11 -58,-16 -33,-10 -66,-20 -100,-31 -15,-5 -31,-10 -46,-15 -49,-17 -99,-35 -149,-55 0,0 0,-1 0,-1 -50,-19 -99,-41 -149,-64 -16,-7 -32,-15 -47,-22 -36,-17 -71,-34 -107,-52 -18,-9 -35,-18 -53,-28 -48,-25 -95,-50 -143,-78 -53,-30 -105,-62 -157,-95 -4,-3 -8,-5 -12,-7 -51,-33 -103,-67 -153,-103 -18,-12 -36,-25 -53,-37 -34,-24 -68,-48 -101,-73 -22,-17 -45,-34 -67,-51 -29,-23 -58,-45 -87,-68 -25,-20 -50,-41 -74,-62 -27,-22 -53,-44 -79,-66 -32,-28 -64,-56 -95,-84 -22,-20 -44,-40 -66,-60 -46,-42 -91,-86 -136,-130 -11,-10 -22,-21 -33,-31 -63,-63 -124,-127 -185,-193 -13,-14 -26,-28 -39,-43 -81,-89 -161,-181 -239,-275 -10,-13 -19,-25 -29,-37 -78,-96 -154,-193 -227,-293 -7,-9 -13,-19 -20,-28 -76,-104 -149,-210 -220,-319 -2,-3 -4,-6 -6,-9 -71,-110 -140,-222 -206,-335 -3,-6 -7,-11 -10,-17 -64,-111 -125,-223 -184,-337 -6,-11 -12,-23 -18,-34 -57,-111 -110,-223 -161,-336 -7,-16 -15,-33 -22,-49 -38,-86 -75,-172 -109,-258 -8,-20 -16,-41 -24,-61 -22,-57 -43,-113 -64,-170 -10,-30 -21,-59 -31,-89 -13,-39 -26,-78 -39,-116 -11,-33 -21,-66 -31,-99 -11,-34 -21,-68 -31,-102 -11,-35 -21,-70 -30,-105 -9,-31 -17,-61 -25,-92 -9,-37 -19,-75 -28,-112 -6,-26 -12,-52 -18,-78 -9,-41 -18,-81 -26,-122 -5,-23 -10,-46 -14,-69 -11,-56 -21,-113 -30,-169 -1,-5 -2,-11 -3,-17 -10,-62 -19,-124 -26,-185 -2,-18 -4,-35 -6,-53 -5,-44 -9,-87 -13,-131 -2,-21 -4,-42 -5,-63 -3,-42 -6,-83 -8,-124 -1,-20 -2,-40 -3,-60 -2,-58 -3,-117 -3,-174 0,-61 2,-121 5,-179 0,-17 2,-33 3,-49 2,-41 5,-81 8,-120 2,-23 5,-45 7,-67 4,-33 7,-66 12,-99 3,-24 7,-47 10,-71 5,-30 10,-59 16,-88 5,-27 10,-52 15,-78 6,-26 12,-52 18,-78 8,-30 15,-60 23,-89 7,-23 13,-46 20,-68 11,-35 23,-70 34,-103 7,-19 13,-38 20,-55 22,-57 45,-113 70,-166 19,-41 39,-81 61,-120 0,-1 1,-1 1,-2 21,-38 43,-75 66,-110 33,-52 69,-101 106,-148 9,-11 18,-22 27,-33 22,-27 46,-51 69,-76 8,-2 16,-4 24,-6 10,-2 20,-5 30,-7 6,-1 11,-2 17,-3 50,-10 101,-17 152,-22 18,-2 36,-3 53,-5 34,-2 68,-4 103,-5 20,0 39,-1 59,-1 27,1 55,2 82,3 23,1 45,2 68,4 23,2 47,4 70,7 26,3 51,6 77,9 22,4 44,7 66,11 28,5 56,10 84,16 19,4 38,8 57,12 30,7 60,15 91,23 19,5 38,10 57,16 33,9 66,20 99,31 16,5 32,10 47,15 49,17 99,35 148,55 0,0 1,0 1,0 49,20 99,41 149,64 16,7 31,15 47,22 35,17 71,34 107,53 18,9 35,18 53,27 47,25 95,51 143,78 52,31 105,62 156,95zm4949 5490c0,-13 -1,-25 -1,-38 -1,-26 -3,-52 -4,-79 -2,-31 -2,-61 -4,-93 -2,-23 -4,-48 -6,-71 -2,-28 -4,-56 -7,-84 -1,-19 -2,-37 -4,-56 -4,-39 -9,-79 -14,-119 -2,-23 -4,-46 -7,-69 -1,-8 -2,-16 -3,-24 -9,-73 -20,-146 -31,-219 0,-1 0,-2 -1,-4 -1,-7 -2,-15 -4,-22 -10,-65 -21,-130 -33,-195 -2,-10 -5,-20 -6,-29 -6,-31 -13,-62 -19,-93 -8,-38 -15,-75 -23,-113 -4,-16 -8,-32 -12,-48 -8,-35 -16,-70 -24,-104 -7,-29 -13,-58 -21,-87 -5,-21 -11,-42 -17,-63 -10,-40 -21,-81 -32,-121 -7,-24 -13,-48 -19,-72 -7,-22 -14,-45 -20,-67 -14,-45 -28,-91 -42,-137 -7,-23 -13,-46 -21,-69 -6,-20 -14,-41 -20,-61 -17,-52 -35,-103 -52,-155 -9,-24 -16,-48 -25,-72 -5,-16 -12,-31 -17,-47 -27,-75 -56,-150 -85,-225 -8,-21 -16,-43 -24,-64 -2,-6 -5,-12 -7,-17 -46,-115 -95,-229 -145,-343 -4,-10 -8,-19 -12,-29 -16,-34 -32,-68 -48,-102 -17,-39 -35,-77 -53,-116 -23,-48 -46,-95 -70,-143 -18,-37 -37,-75 -55,-112 -5,-8 -9,-17 -13,-25 -21,-41 -43,-82 -65,-123 -18,-35 -36,-69 -54,-103 -29,-53 -59,-106 -89,-158 -17,-30 -33,-61 -51,-91 -37,-64 -75,-127 -113,-190 -11,-18 -22,-36 -33,-54 -49,-81 -100,-161 -152,-240 -15,-23 -30,-46 -46,-69 -37,-55 -74,-111 -112,-167 -21,-29 -42,-59 -63,-88 -34,-48 -67,-95 -102,-142 -23,-32 -47,-63 -71,-94 -32,-44 -65,-88 -99,-131 -25,-32 -50,-64 -76,-96 -25,-31 -49,-62 -74,-93 -8,-10 -17,-20 -25,-29 -27,-34 -55,-66 -83,-99 -33,-39 -65,-78 -99,-116 -28,-32 -57,-64 -86,-96 -22,-24 -44,-50 -66,-74 -8,-9 -17,-18 -25,-27 -81,-87 -163,-172 -246,-255 -2,-2 -4,-4 -6,-6 -12,-13 -25,-24 -38,-37 -60,-58 -119,-115 -180,-172 -8,-7 -16,-15 -24,-23 -21,-19 -43,-37 -64,-56 -42,-38 -84,-75 -126,-112 -12,-10 -23,-21 -35,-31 -23,-19 -46,-38 -69,-57 -33,-27 -66,-55 -99,-81 -12,-10 -24,-20 -36,-30 -27,-21 -54,-41 -80,-61 -30,-23 -59,-46 -89,-68 -10,-7 -19,-15 -29,-22 -35,-26 -70,-50 -105,-75 -23,-16 -46,-33 -70,-50 -6,-4 -11,-8 -16,-11 -62,-43 -124,-83 -186,-123 0,0 -1,-1 -2,-1 -6,-4 -12,-8 -18,-12 -54,-34 -109,-67 -164,-100 -14,-8 -28,-16 -42,-24 -46,-27 -92,-53 -138,-77 -17,-10 -34,-18 -52,-27 -23,-13 -47,-25 -70,-37 -19,-9 -37,-19 -55,-28 -29,-15 -58,-28 -87,-41 -21,-10 -42,-20 -63,-30 -8,-4 -17,-8 -25,-12 -58,-26 -116,-50 -173,-73 0,0 -1,0 -1,-1 -59,-23 -117,-45 -174,-65 -7,-3 -15,-5 -22,-7 -21,-8 -42,-14 -63,-21 -30,-9 -59,-20 -88,-29 -15,-4 -29,-7 -44,-12 -25,-7 -51,-14 -76,-21 -20,-5 -40,-11 -59,-16 -21,-5 -40,-9 -61,-13 -25,-6 -51,-12 -76,-17 -13,-3 -27,-7 -40,-9 -24,-5 -47,-8 -71,-12 -29,-5 -59,-10 -88,-14 -10,-2 -21,-4 -31,-6 -24,-3 -47,-4 -71,-7 -31,-3 -63,-7 -94,-9 -9,-1 -18,-3 -27,-3 -21,-2 -42,-1 -62,-2 -37,-2 -74,-4 -111,-4 -10,0 -20,-1 -30,-1 -16,0 -31,2 -47,2 -46,1 -92,3 -137,7 -13,1 -27,1 -41,2 -19,1 -37,4 -55,6 -15,2 -29,3 -43,5 -51,7 -101,15 -151,25 -2,0 -3,1 -5,1 -13,3 -26,7 -40,10 -41,9 -82,18 -122,30 -20,5 -39,12 -58,18 -26,8 -52,15 -77,24 -7,2 -13,5 -19,8 -39,14 -77,30 -115,46 -18,8 -37,15 -55,24 -55,26 -109,53 -162,84l-792 461c52,-31 106,-59 162,-85 18,-8 36,-15 55,-23 37,-16 75,-32 114,-47 32,-11 64,-21 96,-32 20,-6 39,-12 58,-18 40,-11 81,-21 123,-30 13,-3 26,-7 40,-10 51,-10 103,-18 156,-25 14,-2 28,-4 42,-5 32,-4 64,-6 97,-9 45,-3 90,-5 136,-6 26,-1 52,-1 78,-1 36,0 73,2 110,3 30,2 60,3 90,5 31,3 62,6 93,10 34,4 68,7 103,12 29,4 58,9 87,15 37,6 74,12 111,20 26,5 51,11 77,17 39,9 79,19 119,30 26,7 51,14 77,21 43,13 87,26 131,41 21,7 42,13 63,20 65,23 130,47 196,73 1,0 1,0 1,0 0,0 0,1 1,1 65,26 131,55 198,85 21,9 42,20 62,29 47,22 95,46 142,70 24,12 47,24 71,36 63,33 126,67 189,104 69,40 138,82 207,125 6,4 12,8 18,11 68,44 136,89 203,136 24,16 47,33 71,50 45,32 89,64 133,97 30,22 60,45 89,68 39,29 78,60 116,90 33,27 66,54 99,82 35,29 70,58 105,88 42,36 84,74 125,111 30,26 59,53 89,80 60,56 120,113 179,172 15,14 30,28 45,42 83,83 164,169 245,256 31,33 61,67 92,101 29,32 57,64 86,96 33,38 66,77 99,115 27,33 55,66 83,99 13,17 27,34 40,50 -6,-6 -12,-14 -18,-21 -6,-7 -13,-13 -19,-20 -61,-65 -122,-130 -185,-192 -1,-1 -3,-3 -4,-4 -10,-10 -20,-19 -29,-28 -45,-44 -90,-87 -135,-129 -7,-6 -13,-12 -19,-18 -16,-14 -32,-28 -48,-42 -31,-29 -63,-57 -95,-84 -8,-8 -17,-16 -26,-24 -17,-14 -35,-28 -52,-43 -25,-20 -50,-41 -75,-61 -9,-7 -18,-15 -27,-22 -20,-16 -40,-31 -60,-46 -22,-17 -44,-34 -67,-51 -7,-6 -14,-12 -22,-17 -26,-19 -52,-37 -78,-56 -18,-12 -36,-25 -53,-38 -5,-3 -9,-6 -13,-9 -46,-31 -93,-62 -139,-92 -1,0 -1,0 -2,-1 -4,-2 -8,-5 -12,-7 -41,-26 -83,-52 -125,-77 -10,-6 -21,-12 -32,-18 -34,-20 -69,-40 -103,-58 -13,-7 -26,-14 -39,-20 -18,-10 -36,-19 -53,-28 -14,-7 -28,-15 -42,-21 -22,-11 -43,-21 -65,-31 -16,-8 -32,-15 -47,-22 -6,-3 -13,-7 -19,-9 -44,-20 -88,-38 -131,-56l0 0c0,0 0,0 0,0 -44,-18 -88,-34 -131,-49 -6,-2 -11,-4 -17,-6 -16,-5 -31,-10 -47,-15 -22,-7 -45,-15 -67,-22 -11,-3 -22,-6 -33,-9 -19,-5 -38,-11 -57,-16 -15,-4 -29,-8 -44,-12 -16,-4 -31,-7 -46,-10 -19,-5 -38,-9 -57,-13 -10,-2 -21,-5 -31,-7 -18,-3 -35,-5 -53,-8 -22,-4 -44,-8 -66,-11 -8,-1 -16,-3 -23,-4 -18,-3 -36,-4 -54,-6 -24,-2 -47,-5 -70,-7 -7,0 -14,-1 -21,-2 -16,-1 -31,-1 -47,-1 -28,-2 -56,-3 -83,-3 -8,0 -15,-1 -23,-1 -12,0 -24,1 -36,2 -34,0 -68,2 -102,5 -10,0 -21,0 -31,1 -7,1 -15,3 -22,3 -52,6 -103,13 -153,22 -4,1 -8,1 -13,2 -1,0 -2,1 -3,1 -10,2 -20,5 -30,7 -31,7 -62,14 -93,23 -14,4 -29,9 -43,14 -19,6 -39,11 -58,18 -5,2 -10,4 -14,6 -30,10 -58,22 -87,35 -13,6 -28,11 -41,18 -42,19 -82,40 -122,63l0 0 0 0 0 0 0 0 0 0 -332 193 -461 267 1 0 0 0 -1 0 0 1c-49,28 -96,61 -143,95 -11,8 -22,17 -33,25 -45,35 -89,73 -131,113 -3,3 -5,6 -8,9 -39,39 -77,80 -112,124 -10,11 -19,21 -28,33 -37,47 -72,95 -106,147 -1,2 -2,3 -3,5 -21,34 -42,69 -63,106 0,0 0,1 -1,1 -20,38 -40,76 -59,115 0,2 -1,4 -2,6 -25,53 -48,108 -70,165 -1,5 -4,9 -5,14 -5,13 -9,28 -14,41 -12,34 -24,68 -34,103 -3,10 -7,18 -9,28 -4,13 -7,27 -11,40 -8,30 -16,59 -23,90 -3,12 -7,24 -10,36 -3,14 -5,28 -8,41 -6,26 -11,52 -16,78 -2,14 -5,27 -8,41 -3,15 -5,32 -7,48 -4,23 -7,47 -11,71 -1,12 -4,24 -5,36 -3,20 -4,42 -6,63 -3,22 -5,44 -7,67 -1,9 -3,18 -3,27 -3,30 -4,61 -6,92 -1,17 -2,33 -3,49 0,4 -1,8 -1,12 -2,52 -3,105 -3,158 0,3 0,6 0,9 -1,49 0,98 2,147 0,9 0,19 1,28 0,20 2,40 3,59 1,24 1,47 3,71 1,17 3,35 4,53 2,21 3,42 5,64 1,13 2,27 4,41 2,30 6,60 10,90 1,17 3,35 5,52 1,6 2,12 2,18 7,55 15,110 24,165 0,1 0,2 0,3 1,5 2,11 3,17 8,49 16,97 26,146 1,8 3,15 4,22 5,24 10,47 14,70 6,28 12,57 18,85 2,12 6,24 8,36 6,26 13,53 19,79 5,21 10,43 15,65 4,15 9,31 13,47 8,31 16,61 24,92 5,18 10,36 15,54 5,16 10,33 15,50 10,34 20,68 31,103 5,17 10,34 16,52 5,15 10,31 15,46 13,39 26,78 39,116 7,19 12,37 19,55 4,11 9,23 13,35 20,56 42,113 64,169 6,16 11,32 18,48 2,5 4,9 5,14 35,86 71,172 109,257 3,8 6,15 9,22 4,9 9,18 14,28 50,112 104,224 160,335 2,4 4,8 6,12 4,8 9,15 12,23 59,113 120,226 184,337 4,5 7,11 10,17 66,113 135,225 206,334 2,3 4,7 6,10 71,108 145,214 221,319 6,9 13,18 20,27 73,100 149,198 226,293 6,8 12,16 18,24 4,5 8,9 12,13 77,95 157,186 239,276 6,7 13,15 19,23 7,7 13,13 20,20 60,65 122,130 184,192 2,2 3,3 5,4 9,10 19,18 28,28 45,44 90,87 136,130 6,5 12,11 18,17 16,15 32,28 48,42 32,29 63,57 95,85 9,7 18,15 27,23 17,14 35,28 52,43 25,20 49,41 74,61 10,7 18,15 27,22 20,16 41,31 61,46 22,18 44,35 67,52 7,5 14,11 21,16 26,20 53,38 79,56 18,13 35,26 53,38 4,3 8,6 12,9 47,32 93,62 140,92 1,0 1,1 2,1 4,3 8,5 12,8 41,26 83,51 124,76 11,6 22,12 33,19 34,20 69,39 103,58 13,7 26,13 39,20 18,9 36,18 53,27 14,7 28,15 42,22 22,11 43,20 65,31 16,7 32,15 47,22 7,3 13,6 20,9 43,19 86,38 129,55 0,0 1,0 1,0l0 0c44,18 88,34 131,50 6,2 12,3 17,5 16,6 31,10 47,15 22,8 45,16 67,22 11,4 22,6 32,9 20,6 39,11 58,16 15,4 30,9 44,12 16,4 31,7 46,11 19,4 38,8 57,12 10,3 21,5 31,7 18,4 35,6 53,9 22,4 44,8 66,11 8,1 16,3 23,4 19,2 36,3 54,5 24,3 47,6 71,7 7,1 14,2 20,2 16,2 32,1 47,2 28,1 56,2 83,3 8,0 16,0 23,0 12,0 24,-1 36,-1 34,-1 68,-2 102,-5 10,-1 21,-1 31,-2 8,0 15,-2 22,-3 52,-5 103,-12 153,-22 4,-1 9,-1 13,-2 1,0 2,0 3,-1 10,-2 20,-4 30,-7 31,-7 62,-14 93,-22 14,-5 29,-10 44,-14 19,-6 39,-12 57,-18 5,-2 10,-4 14,-6 30,-11 58,-23 87,-35 14,-6 28,-12 41,-18 42,-19 83,-40 122,-63l0 0c0,0 0,0 0,0l793 -461c49,-29 96,-61 143,-95 11,-9 22,-17 33,-26 45,-35 89,-72 131,-113 3,-2 5,-6 8,-9 39,-38 77,-80 113,-123 9,-11 18,-22 27,-33 37,-47 72,-96 106,-148 0,-1 2,-2 3,-4 22,-34 43,-70 63,-107 0,0 1,-1 1,-1 20,-37 40,-75 58,-114 1,-2 2,-4 3,-6 25,-53 48,-108 69,-165 2,-5 5,-10 6,-15 5,-13 9,-27 14,-40 12,-34 23,-68 34,-103 3,-10 7,-18 9,-28 4,-13 7,-27 11,-40 8,-30 16,-60 23,-90 3,-12 7,-24 10,-36 3,-14 5,-28 8,-41 5,-26 11,-52 16,-78 2,-14 5,-27 8,-40 2,-16 4,-33 7,-49 4,-23 7,-47 10,-71 2,-12 4,-24 6,-36 2,-20 4,-42 6,-62 3,-23 5,-45 7,-68 1,-9 2,-17 3,-27 3,-30 4,-61 6,-92 1,-16 2,-33 3,-49 0,-4 0,-8 1,-12 2,-52 3,-104 3,-158 0,-3 0,-6 0,-9 0,-49 0,-98 -2,-147 0,-9 -1,-19 -1,-28 -1,-20 -2,-39 -3,-59 -1,-24 -2,-47 -3,-70 -1,-18 -3,-36 -4,-54 -2,-21 -4,-42 -5,-64 -2,-13 -2,-27 -4,-41 -3,-30 -6,-59 -10,-89 -2,-18 -3,-35 -6,-53 0,-6 -1,-12 -2,-18 -7,-55 -14,-110 -23,-165 0,-1 0,-2 0,-2 -1,-6 -3,-12 -3,-18 -8,-49 -17,-97 -26,-146 -1,-8 -3,-15 -4,-22 -5,-24 -10,-47 -15,-70 -5,-28 -11,-56 -17,-85 -3,-12 -6,-24 -9,-36 -5,-26 -12,-53 -18,-78 -5,-22 -10,-44 -15,-66 -4,-15 -9,-31 -13,-47 -8,-31 -16,-61 -25,-91 -5,-18 -9,-37 -14,-55 -5,-17 -10,-33 -15,-50 -10,-34 -21,-69 -31,-103 -6,-17 -10,-35 -16,-52 -2,-6 -5,-13 -7,-20 26,67 52,134 76,202 14,40 28,79 42,119 18,51 35,103 52,154 14,44 28,87 42,131 14,45 28,91 41,137 13,46 27,92 39,138 12,41 22,81 33,122 13,50 25,100 37,149 8,35 17,70 25,104 12,54 23,108 34,162 6,31 13,61 19,92 14,75 28,150 40,224 1,8 3,15 4,23 13,82 24,164 34,246 3,23 5,47 8,70 7,58 13,116 18,174 2,28 4,56 6,84 4,55 8,110 10,165 2,26 3,53 4,79 3,78 5,155 4,232 0,81 -2,160 -5,238 -1,22 -3,43 -5,65 -3,54 -6,107 -11,159 -2,30 -6,59 -9,89 -5,44 -10,88 -16,131 -4,32 -9,63 -14,94 -6,40 -13,79 -20,118 -7,35 -14,69 -21,103 -7,35 -15,70 -24,104 -9,40 -20,79 -30,118 -9,31 -17,61 -27,91 -14,47 -29,92 -45,137 -9,25 -17,49 -26,73 -29,76 -59,149 -93,219 -26,55 -52,109 -81,160 0,0 0,0 0,1 -29,52 -59,102 -91,151 -6,10 -13,20 -20,30 -24,36 -48,71 -74,105 -10,14 -20,28 -31,41 -24,31 -49,62 -74,91 -10,12 -20,23 -29,34 -35,39 -71,77 -108,113 -5,5 -11,10 -16,15 -32,30 -66,60 -100,89 -12,10 -24,20 -37,30 -29,23 -58,46 -88,67 -13,9 -25,18 -38,27 -42,28 -84,56 -128,81 0,0 0,0 0,0l0 0 0 0 792 -460c44,-26 87,-53 129,-82 12,-8 25,-17 37,-26 30,-22 60,-44 89,-68 12,-10 25,-20 37,-30 34,-28 67,-58 99,-89 6,-5 11,-9 16,-15 37,-35 73,-73 108,-112 10,-11 19,-23 29,-34 25,-30 50,-60 75,-91 10,-14 21,-27 31,-41 25,-35 50,-70 74,-106 7,-10 13,-19 20,-29 2,-3 4,-6 6,-9 59,-93 113,-191 163,-296 1,-2 2,-5 3,-7 33,-71 64,-144 92,-220 3,-6 6,-12 9,-19 6,-17 11,-36 17,-54 16,-45 32,-90 46,-137 4,-12 8,-24 12,-36 5,-18 9,-37 14,-54 11,-39 21,-79 31,-119 4,-16 9,-32 12,-48 5,-18 8,-37 12,-55 7,-34 14,-69 20,-104 4,-18 8,-35 11,-53 4,-21 6,-43 10,-64 5,-31 9,-63 14,-94 2,-17 5,-32 7,-49 3,-27 6,-55 9,-82 3,-30 6,-60 9,-90 1,-12 2,-24 3,-36 4,-40 6,-81 8,-122 1,-22 3,-43 4,-66 0,-5 1,-10 1,-16 3,-68 5,-138 5,-209 0,-4 0,-8 0,-12 0,-65 -1,-130 -3,-195z"/>
      <path class="fil17" d="M31442 27653c529,305 960,60 962,-548 1,-609 -427,-1350 -956,-1656 -530,-306 -960,-60 -962,549 -2,608 426,1349 956,1655zm10 -3504c1154,667 2087,2282 2083,3609 -4,1327 -942,1861 -2097,1195 -1154,-667 -2087,-2282 -2083,-3609 3,-1326 942,-1862 2097,-1195z"/>
      <path class="fil18" d="M31448 25449c529,306 957,1047 956,1656 -2,608 -433,853 -962,548 -530,-306 -958,-1047 -956,-1655 2,-609 432,-855 962,-549z"/>
      <path class="fil15" d="M31434 30293c1799,1038 3262,205 3268,-1861 6,-2067 -1448,-4584 -3246,-5623 -1799,-1038 -3262,-204 -3267,1862 -6,2067 1447,4583 3245,5622zm25 -8713c2390,1380 4320,4724 4312,7469 -7,2746 -1951,3852 -4340,2473 -2389,-1380 -4320,-4723 -4312,-7468 7,-2746 1951,-3853 4340,-2474z"/>
      <path class="fil19" d="M31438 28953c1155,666 2093,132 2097,-1195 4,-1327 -929,-2942 -2083,-3609 -1155,-666 -2094,-131 -2098,1195 -3,1327 930,2942 2084,3609zm18 -6144c1798,1039 3252,3556 3246,5623 -6,2066 -1469,2899 -3268,1861 -1798,-1039 -3251,-3555 -3245,-5622 5,-2066 1468,-2900 3267,-1862z"/>
     </g>
     <g>
      <polygon class="fil20" points="25072,30260 24886,30152 31369,26409 31555,26517 "/>
      <g>
       <polygon class="fil21" points="23944,30267 23759,30159 24886,30152 25072,30260 "/>
       <polygon class="fil20" points="22455,32738 22270,32630 23009,31398 23194,31505 "/>
       <polygon class="fil20" points="22555,31713 22370,31606 23028,31225 23214,31333 "/>
       <polygon class="fil21" points="22556,31874 22370,31766 22370,31606 22555,31713 "/>
       <polygon class="fil20" points="22452,31128 22266,31021 23759,30159 23944,30267 "/>
      </g>
      <polygon class="fil22" points="23944,30267 25072,30260 25311,30122 31555,26517 31555,26678 25311,30283 25072,30421 23856,31930 22455,32738 23194,31505 22556,31874 22555,31713 23214,31333 22451,31128 "/>
     </g>
     <g>
      <path class="fil23" d="M32274 8967l-3 0 -2 0c-26,1 -50,6 -73,15l0 0c-8,2 -15,4 -22,7l0 0c-7,2 -14,5 -22,7l0 0c-7,3 -14,5 -21,8l0 0c-8,2 -15,4 -22,7l0 0c-8,2 -15,4 -22,7l0 0c-7,2 -14,4 -21,7l0 0c-8,2 -15,5 -22,8l0 0c-7,2 -15,4 -22,7l0 0c-7,2 -14,4 -21,7l0 0c-8,2 -15,4 -22,7l0 0c-7,2 -15,5 -22,8l0 0c-7,2 -14,4 -22,7l0 0c-7,2 -14,4 -21,7l0 0c-8,2 -15,5 -22,7l0 0c-7,2 -14,5 -21,7l0 0c-8,2 -15,5 -22,8l0 0c-8,2 -15,4 -22,7l0 0c-7,2 -14,4 -22,7l0 0c-7,2 -14,4 -21,7l0 0c-8,2 -15,5 -22,8l0 0c-7,2 -15,4 -22,7l0 0c-7,2 -14,4 -21,7l0 0c-8,2 -15,4 -22,7l0 0c-7,2 -15,5 -22,8l0 0c-7,1 -14,4 -21,7l0 0c-8,2 -15,4 -22,7l0 0c-7,2 -15,4 -22,7l0 0c-7,2 -14,5 -22,7l0 0c-7,2 -14,5 -21,8l0 0c-8,2 -15,4 -22,7l0 0c-141,39 -237,232 -237,522l0 0 0 5489c0,410 193,857 431,998l0 0 858 508 0 1680 22 -20 0 13 21 -20 0 12 22 -19 0 12 22 -19 0 12 21 -19 0 12 22 -20 0 13 22 -20 0 12 21 -19 0 12 22 -19 0 12 22 -20 0 13 21 -20 0 12 22 -19 0 12 22 -19 0 12 21 -20 0 13 22 -20 0 12 22 -19 0 12 22 -19 0 12 21 -19 0 12 22 -20 0 13 21 -20 0 12 22 -19 0 12 22 -19 0 12 21 -20 0 13 22 -20 0 12 22 -19 0 12 22 -19 0 12 21 -20 0 13 22 -20 0 13 22 -20 0 12 21 -19 0 12 22 -19 0 12 709 -637 3947 2068c79,47 152,54 216,28l0 0c7,-2 14,-4 21,-7l0 0c7,-2 15,-4 22,-7l0 0c432,-174 694,-166 694,-724l0 0 0 -5490c0,-410 -192,-856 -430,-998l0 0 -6037 -3395c-48,-29 -94,-42 -137,-43z"/>
      <path class="fil24" d="M37926 12629l-6188 -3395c-237,-141 -430,77 -430,487l0 5489c0,410 193,857 430,998l859 508 0 1680 1126 -1012 4203 2219c238,141 430,-76 430,-486l0 -5490c0,-410 -192,-856 -430,-998z"/>
      <path class="fil11" d="M33593 13956c0,216 -101,330 -226,256 -125,-74 -227,-309 -227,-524 0,-215 102,-330 227,-256 125,74 226,309 226,524z"/>
      <path class="fil11" d="M34934 14751c0,216 -101,330 -226,256 -125,-74 -227,-309 -227,-524 0,-215 102,-330 227,-256 125,74 226,309 226,524z"/>
      <path class="fil11" d="M36276 15546c0,216 -102,330 -227,256 -125,-74 -226,-309 -226,-524 0,-215 101,-330 226,-256 125,74 227,309 227,524z"/>
     </g>
     <g>
      <path class="fil25" d="M43030 11280l-6037 -3395c-79,-47 -152,-54 -215,-28 -8,2 -15,4 -22,7 -7,2 -15,4 -22,7 -7,2 -14,5 -21,8 -8,1 -15,4 -22,7 -7,2 -15,4 -22,7 -7,2 -14,4 -21,7 -8,2 -15,5 -22,7 -7,3 -15,5 -22,8 -7,2 -14,4 -21,7 -8,2 -15,4 -22,7 -8,2 -15,4 -22,7 -7,2 -14,5 -21,8 -8,2 -15,4 -22,7 -8,2 -15,4 -22,7 -7,2 -15,4 -22,7 -7,2 -14,5 -21,7 -8,2 -15,5 -22,8 -7,2 -15,4 -22,7 -7,2 -14,4 -21,7 -8,2 -15,5 -22,7 -7,2 -15,5 -22,8 -7,2 -14,4 -21,7 -8,2 -15,4 -22,7 -7,2 -15,4 -22,7 -7,2 -14,5 -21,8 -8,2 -15,4 -22,7 -8,2 -15,4 -22,7 -7,2 -14,4 -21,7 -8,2 -15,5 -22,7 -8,3 -15,5 -22,8 -141,38 -237,231 -237,521l0 5490c0,410 193,857 430,998l859 508 0 1680 21 -20 0 13 22 -20 0 12 22 -19 0 12 22 -19 0 12 21 -20 0 13 22 -20 0 12 22 -19 0 12 21 -19 0 12 22 -20 0 13 22 -20 0 12 21 -19 0 12 22 -19 0 12 22 -19 0 12 21 -20 0 13 22 -20 0 12 22 -19 0 12 21 -19 0 12 22 -20 0 13 22 -20 0 12 22 -19 0 12 21 -19 0 12 22 -20 0 13 22 -20 0 12 21 -19 0 12 22 -19 0 12 22 -19 0 12 21 -20 0 13 22 -20 0 12 22 -19 0 12 21 -19 0 12 22 -20 0 13 709 -637 3948 2068c78,47 151,53 215,28 7,-2 14,-4 21,-7 8,-2 15,-5 22,-7 432,-174 695,-167 695,-725l0 -5489c0,-410 -193,-857 -431,-998z"/>
      <path class="fil26" d="M42508 11504l-6188 -3395c-237,-141 -430,77 -430,486l0 5490c0,410 193,857 430,998l859 508 0 1680 1126 -1012 4203 2219c237,141 430,-77 430,-487l0 -5489c0,-410 -193,-857 -430,-998z"/>
      <path class="fil27" d="M38175 12831c0,216 -101,330 -226,256 -125,-74 -227,-309 -227,-524 0,-215 102,-330 227,-256 125,74 226,309 226,524z"/>
      <path class="fil27" d="M39516 13626c0,215 -101,330 -226,256 -125,-74 -227,-309 -227,-524 0,-216 102,-330 227,-256 125,74 226,309 226,524z"/>
      <path class="fil27" d="M40858 14421c0,215 -102,330 -227,256 -125,-74 -226,-309 -226,-524 0,-216 101,-330 226,-256 125,74 227,309 227,524z"/>
     </g>
     <g>
      <polygon class="fil28" points="55044,26883 55036,29677 53516,28799 53524,26005 "/>
      <polygon class="fil29" points="55044,26883 56051,26298 56043,29092 55036,29677 "/>
      <polygon class="fil30" points="53524,26005 54531,25420 56051,26298 55044,26883 "/>
      <polygon class="fil28" points="57384,25550 57368,31023 55847,30145 55863,24672 "/>
      <polygon class="fil29" points="57384,25550 58390,24965 58375,30438 57368,31023 "/>
      <polygon class="fil30" points="55863,24672 56870,24087 58390,24965 57383,25550 "/>
      <polygon class="fil28" points="59718,25615 59699,32369 58178,31491 58197,24737 "/>
      <polygon class="fil29" points="59718,25615 60725,25029 60706,31784 59699,32369 "/>
      <polygon class="fil30" points="58197,24737 59204,24151 60725,25029 59718,25615 "/>
      <polygon class="fil31" points="60535,16726 62056,17604 63063,17019 61542,16141 "/>
      <polygon class="fil28" points="62056,17604 62030,33715 60510,32837 60535,16726 "/>
      <polygon class="fil32" points="62056,17604 62030,33715 63037,33130 63063,17019 "/>
     </g>
     <g>
      <path class="fil9" d="M55147 14979l-4 0 -2 0c-15,1 -30,1 -44,3 -1,0 -2,0 -3,0l0 0c-1,0 -3,0 -5,1l0 0c-14,1 -27,3 -40,5l0 0c-10,2 -19,5 -28,8l0 0c-6,1 -11,3 -16,4l0 0c-3,1 -7,2 -10,3l0 0c-20,7 -39,16 -57,26l0 0 -661 384c21,-12 44,-21 67,-29l0 0c5,-1 11,-3 16,-4l0 0c22,-6 45,-11 69,-14l0 0c1,0 3,0 5,0l0 0c28,-3 58,-3 89,-1l0 0c1,0 2,0 4,0l0 0c32,2 66,6 101,13l0 0c1,1 2,1 3,1l0 0c34,7 70,16 107,28l0 0c3,1 6,2 9,3l0 0c36,11 74,24 112,40l0 0c4,2 8,3 11,5l0 0c39,16 80,34 121,55l0 0c2,1 4,2 5,3l0 0c44,21 89,45 135,72l0 0c28,16 54,36 82,53l0 0 -550 320c-20,12 -37,28 -51,50l0 0c-4,7 -9,15 -13,23l0 0c-3,7 -6,14 -9,22l0 0c-3,8 -5,15 -7,23l0 0c-1,1 -1,3 -2,5l0 0c0,1 0,2 -1,3l0 0c-1,5 -2,10 -4,16l0 0c-1,8 -3,17 -5,26l0 0c-2,10 -3,20 -4,30l0 0c-1,7 -2,14 -3,21l0 0c0,2 0,4 0,6l0 0c0,3 -1,6 -1,9l0 0c-1,14 -2,28 -3,43l0 0c0,19 -1,38 -1,58l0 0c0,1 0,2 0,3l0 0 -1 587c-1,21 0,40 0,60l0 0c1,16 1,32 2,48l0 0c1,5 1,10 2,15l0 0c0,2 0,4 0,6l0 0c1,6 1,12 2,18l0 0c0,11 2,21 3,32l0 0c1,10 2,19 4,29l0 0c1,9 3,17 5,26l0 0c0,3 1,6 1,9l0 0c1,1 1,2 1,3l0 0c1,4 1,8 2,11l0 0c2,8 4,15 5,22l0 0c2,7 4,14 6,20l0 0c1,7 3,13 5,19l0 0c2,6 4,12 6,18l0 0c2,5 3,10 5,15l0 0c1,2 1,3 2,5l0 0c0,0 0,0 0,1l0 0c1,3 3,6 4,10l0 0c2,5 4,10 6,15l0 0c2,4 4,9 6,14l0 0c2,4 4,9 6,13l0 0c2,5 5,10 7,15l0 0c3,7 7,13 10,19l0 0c4,7 7,13 11,20l0 0c0,0 0,0 0,0l0 0c0,0 0,0 0,0l0 0c7,11 13,21 20,32l0 0c7,10 14,21 22,31l0 0c5,7 10,14 16,21l0 0c4,6 9,12 14,18l0 0c0,0 1,1 1,1l0 0c0,0 1,0 1,0l0 0c4,5 8,11 12,16l0 0c6,6 11,12 17,18l0 0c6,7 12,13 19,20l0 0c7,7 14,14 22,21l0 0c7,8 16,15 24,23l0 0c1,1 3,2 4,3l0 0c1,1 1,1 2,2l0 0c8,7 16,14 24,21l0 0c11,9 22,18 34,28l0 0c13,9 26,20 39,30l0 0c9,6 18,12 28,19l0 0c2,2 4,3 7,5l0 0c4,3 9,6 13,9l0 0c18,13 37,25 57,38l0 0c23,14 47,29 71,43l0 0c6,4 12,7 18,11l0 0c19,10 36,20 54,30l0 0c19,10 38,20 57,29l0 0c16,9 32,16 47,23l0 0c0,0 1,0 2,1l0 0c0,0 1,0 1,0l0 0c13,6 25,11 37,16l0 0c11,4 23,9 34,13l0 0c10,3 20,6 29,9l0 0c9,3 19,6 27,8l0 0c1,0 1,0 1,0l0 0c0,0 0,0 0,0l0 0c8,2 16,4 23,5l0 0c8,2 15,3 23,4l0 0c7,1 14,1 20,2l0 0c8,1 14,1 21,1l0 0c4,0 8,-1 12,-1l0 0c0,0 1,0 2,0l0 0c2,0 4,0 5,0l0 0c8,-1 15,-2 21,-3l0 0c8,-2 16,-4 23,-7l0 0c9,-3 17,-6 24,-11l0 0 570 -331 -1 492c-1,50 -5,97 -12,139l0 0c0,0 0,1 0,1l0 0c-8,41 -19,77 -33,109l0 0c0,2 -1,4 -2,5l0 0c-12,28 -27,50 -44,72l0 0c-5,7 -11,14 -16,20l0 0c-20,21 -41,40 -66,54l0 0c0,0 0,0 0,0l0 0c0,0 0,0 0,0l0 0 660 -384c25,-14 47,-33 66,-54l0 0c6,-6 11,-13 16,-20l0 0c7,-8 14,-15 20,-24l0 0c7,-12 14,-25 21,-38l0 0c1,-3 3,-7 4,-10l0 0c1,-1 1,-3 2,-4l0 0c3,-7 5,-13 8,-19l0 0c4,-11 7,-21 11,-33l0 0c3,-10 5,-20 8,-30l0 0c2,-9 3,-18 5,-27l0 0c0,-1 0,-2 1,-2l0 0c0,-1 0,-2 0,-3l0 0c2,-10 3,-21 5,-32l0 0c1,-10 2,-21 3,-32l0 0c1,-11 2,-23 2,-34l0 0c1,-12 1,-24 1,-36l0 0 0 -2 3 -1030c0,-10 0,-21 0,-31l0 0c-1,-11 -1,-22 -2,-33l0 0c-1,-11 -2,-22 -3,-33l0 0c-1,-11 -2,-21 -3,-32l0 0c-1,-10 -3,-21 -5,-32l0 0c-1,-10 -3,-21 -5,-31l0 0c0,-1 0,-1 0,-1l0 0 0 0c-2,-11 -4,-21 -7,-31l0 0c-2,-11 -4,-22 -7,-32l0 0c-3,-11 -5,-21 -8,-32l0 0c-3,-10 -6,-21 -10,-31l0 0c-3,-10 -6,-21 -9,-31l0 0c-4,-10 -7,-20 -11,-30l0 0c-1,-2 -2,-4 -2,-6l0 0c0,-1 -1,-1 -1,-2l0 0c-2,-7 -5,-14 -8,-21l0 0c-4,-10 -7,-19 -11,-29l0 0c-4,-10 -9,-19 -13,-29l0 0c-4,-10 -9,-21 -14,-31l0 0c-5,-10 -10,-20 -15,-31l0 0c-7,-13 -14,-27 -21,-41l0 0c-1,-2 -3,-5 -5,-8l0 0c0,-1 -1,-2 -2,-4l0 0c-7,-13 -14,-25 -21,-38l0 0c-18,-30 -37,-60 -57,-90l0 0c-12,-18 -24,-35 -37,-52l0 0c-1,-3 -3,-6 -5,-8l0 0c-2,-3 -4,-6 -6,-9l0 0c-12,-15 -23,-31 -35,-46l0 0c-12,-14 -23,-29 -35,-43l0 0c-12,-14 -24,-28 -36,-41l0 0c-11,-13 -22,-25 -33,-38l0 0c-1,0 -2,-1 -2,-2l0 0c-2,-1 -3,-3 -4,-4l0 0c-14,-16 -29,-31 -43,-45l0 0c-16,-17 -33,-33 -49,-48l0 0c-18,-17 -36,-35 -55,-51l0 0c-6,-6 -13,-12 -20,-18l0 0c-3,-3 -6,-5 -9,-8l0 0c-10,-9 -20,-18 -30,-26l0 0c-22,-18 -43,-36 -65,-53l0 0c-23,-18 -46,-35 -69,-53l0 0c-9,-6 -18,-12 -26,-18l0 0c-4,-3 -8,-6 -13,-9l0 0c-11,-8 -23,-17 -35,-25l0 0c-25,-18 -51,-35 -78,-51l0 0c-27,-18 -55,-35 -83,-52l0 0c-7,-4 -13,-7 -20,-11l0 0c-22,-13 -43,-24 -64,-36l0 0c-24,-13 -47,-25 -70,-36l0 0c-2,-1 -3,-2 -5,-3l0 0c-1,0 -2,-1 -3,-1l0 0c-24,-12 -48,-24 -72,-34l0 0c-15,-7 -31,-13 -46,-20l0 0c-4,-1 -8,-3 -11,-5l0 0c-3,-1 -6,-2 -9,-3l0 0c-21,-9 -41,-16 -62,-24l0 0c-14,-5 -27,-9 -41,-13l0 0c-3,-1 -6,-2 -9,-3l0 0c-2,-1 -5,-2 -7,-2l0 0c-18,-6 -37,-11 -54,-15l0 0c-16,-4 -32,-8 -47,-11l0 0c-1,0 -2,0 -2,0l0 0c-1,0 -2,-1 -3,-1l0 0c-16,-3 -33,-6 -49,-8l0 0c-16,-2 -32,-4 -48,-5l0 0c0,0 -1,0 -2,0l0 0c-1,0 -2,0 -3,0l0 0c-13,-1 -25,-1 -37,-2zm799 2476c-1,0 -1,0 -1,0l0 0c-48,-22 -101,-49 -160,-83l0 0c-59,-34 -112,-68 -160,-101l0 0c-2,-2 -5,-3 -7,-5l0 0c-46,-33 -88,-65 -125,-98l0 0c0,-1 -1,-1 -2,-2l0 0c-37,-33 -70,-67 -98,-100l0 0c0,0 0,-1 0,-1l0 0c-29,-34 -53,-68 -73,-103l0 0c0,0 0,0 0,0l0 0c-21,-35 -37,-70 -50,-106l0 0c0,0 -1,-1 -1,-1l0 0c-13,-36 -23,-72 -31,-110l0 0c0,-1 0,-2 0,-3l0 0c-7,-36 -12,-74 -15,-113l0 0c-1,-3 -1,-5 -1,-7l0 0c-3,-39 -4,-80 -4,-123l0 0 2 -587c0,-40 1,-78 5,-113l0 0c0,-2 0,-4 0,-6l0 0c3,-34 8,-65 16,-93l0 0c0,-1 0,-1 1,-2l0 0c3,-13 9,-22 13,-33l0 0c31,20 63,38 92,59l0 0c4,3 8,6 12,9l0 0c67,48 131,98 190,150l0 0c3,2 6,5 9,8l0 0c61,53 118,109 171,166l0 0c1,1 1,1 2,2l0 0c53,57 101,116 145,177l0 0c2,2 4,5 6,7l0 0c43,60 81,120 115,181l0 0c1,1 1,3 2,4l0 0c34,63 63,126 87,190l0 0c0,0 0,1 0,1l0 0c24,65 42,129 54,194l0 0 0 0c12,65 19,129 18,193l0 0 -1 505c-25,0 -52,-2 -83,-10l0 0 -1 0c-37,-9 -80,-24 -127,-46l0 0z"/>
      <path class="fil9" d="M59535 21661l0 -6 0 -25 0 0c-1,-11 -1,-22 -2,-33l0 0c-1,-11 -1,-22 -2,-33l0 0c-2,-10 -3,-21 -4,-31l0 0c-1,-11 -3,-22 -5,-32l0 0c-1,-11 -3,-21 -5,-32l0 0c0,0 0,0 0,0l0 0c0,-1 0,-1 0,-1l0 0c-2,-10 -4,-20 -6,-31l0 0c-3,-10 -5,-21 -8,-31l0 0c-2,-11 -5,-21 -8,-32l0 0c-3,-10 -6,-21 -9,-31l0 0c-3,-10 -7,-20 -10,-31l0 0c-3,-10 -7,-20 -10,-30l0 0c-1,-2 -2,-4 -3,-7l0 0c0,0 -1,-1 -1,-1l0 0c-2,-7 -5,-14 -8,-21l0 0c-3,-10 -7,-19 -11,-29l0 0c-4,-9 -8,-19 -12,-28l0 0c-5,-11 -10,-21 -15,-31l0 0c-4,-11 -9,-21 -15,-32l0 0c-6,-13 -13,-27 -21,-41l0 0c-1,-2 -3,-5 -4,-8l0 0c-1,-1 -2,-3 -3,-4l0 0c-7,-12 -13,-25 -20,-37l0 0c-18,-30 -37,-61 -58,-91l0 0c-12,-18 -24,-35 -37,-52l0 0c-1,-3 -3,-5 -5,-8l0 0c-2,-3 -4,-6 -6,-9l0 0c-11,-15 -23,-30 -35,-46l0 0c-11,-14 -23,-28 -35,-43l0 0c-11,-14 -23,-27 -35,-41l0 0c-11,-13 -23,-25 -34,-37l0 0c-1,-1 -2,-2 -2,-3l0 0c-2,-1 -3,-3 -4,-4l0 0c-14,-15 -28,-30 -43,-45l0 0c-16,-16 -32,-32 -49,-48l0 0c-18,-17 -36,-34 -54,-51l0 0c-7,-6 -14,-12 -21,-18l0 0c-3,-2 -6,-5 -9,-8l0 0c-10,-9 -20,-18 -30,-26l0 0c-21,-18 -43,-35 -65,-53l0 0c-22,-18 -46,-35 -69,-52l0 0c-8,-7 -17,-13 -26,-19l0 0c-4,-3 -8,-6 -12,-9l0 0c-12,-8 -24,-16 -35,-25l0 0c-26,-17 -52,-34 -79,-51l0 0c-27,-18 -55,-35 -83,-51l0 0c-7,-4 -13,-8 -20,-12l0 0c-22,-12 -43,-24 -64,-36l0 0c-23,-12 -46,-24 -69,-35l0 0c-2,-2 -4,-3 -7,-4l0 0c0,0 -1,-1 -2,-1l0 0c-25,-12 -49,-24 -72,-34l0 0c-16,-7 -31,-13 -46,-20l0 0c-4,-1 -8,-3 -12,-5l0 0c-3,-1 -6,-2 -8,-3l0 0c-22,-9 -42,-16 -62,-24l0 0c-14,-5 -28,-9 -42,-13l0 0c-3,-1 -6,-2 -8,-3l0 0c-3,-1 -5,-2 -8,-3l0 0c-18,-5 -36,-10 -54,-15l0 0c-15,-3 -31,-7 -46,-10l0 0c-1,0 -2,0 -3,-1l0 0c-1,0 -2,0 -2,0l0 0c-17,-3 -34,-6 -50,-8l0 0c-16,-2 -32,-4 -47,-5l0 0c-1,0 -2,0 -2,0l0 0c-1,0 -3,0 -4,0l0 0c-11,-1 -22,-2 -33,-2l-4 0 -7 0c-15,0 -29,1 -43,2l0 0c-1,1 -1,1 -2,1l0 0c-2,0 -4,0 -5,1l0 0c-14,1 -28,3 -41,5l0 0c-10,2 -18,5 -28,8l0 0c-5,1 -10,2 -16,4l0 0c-3,1 -6,2 -9,3l0 0c-20,7 -40,16 -57,26l0 0 -661 384c21,-12 43,-21 67,-29l0 0c5,-2 11,-3 16,-4l0 0c22,-6 44,-11 68,-14l0 0c2,0 4,0 5,-1l0 0c28,-2 58,-2 90,-1l0 0c1,0 2,0 3,1l0 0c32,2 66,6 101,13l0 0c1,0 3,1 4,1l0 0c34,7 70,16 107,28l0 0c3,1 6,2 9,3l0 0c36,11 73,25 112,40l0 0c4,2 7,4 11,5l0 0c39,16 80,34 121,55l0 0c2,1 4,2 7,3l0 0c43,22 87,46 132,72l0 0c29,17 55,36 83,53l0 0 -550 320c-20,12 -37,29 -51,50l0 0c0,0 0,0 0,0l0 0c-4,7 -9,15 -13,23l0 0c-3,7 -6,15 -9,22l0 0c-3,8 -5,15 -7,23l0 0c-1,1 -1,3 -2,5l0 0c0,1 0,2 -1,3l0 0c-1,5 -2,10 -4,16l0 0c-2,8 -3,17 -5,26l0 0c-2,10 -3,19 -4,30l0 0c-1,6 -2,14 -2,21l0 0c-1,2 -1,3 -1,5l0 0c0,3 -1,6 -1,9l0 0c-1,14 -2,29 -2,44l0 0c-1,18 -2,37 -2,56l0 0c0,2 0,3 0,4l0 0 -1 588c0,21 0,40 0,60l0 0c1,16 1,32 3,48l0 0c0,5 0,10 1,15l0 0c0,2 0,4 0,6l0 0c1,6 1,12 1,17l0 0c1,11 3,22 4,32l0 0c1,10 3,20 4,30l0 0c2,8 3,17 5,25l0 0c0,4 1,7 2,10l0 0c0,1 0,2 0,3l0 0c1,3 2,7 2,11l0 0c2,7 4,14 6,22l0 0c1,7 3,13 5,20l0 0c2,6 3,12 5,19l0 0c2,6 4,12 6,18l0 0c2,5 3,10 5,15l0 0c1,2 1,3 2,4l0 0c0,1 0,1 0,1l0 0c1,4 3,7 4,10l0 0c2,6 4,11 6,16l0 0c2,4 4,9 6,13l0 0c2,5 4,10 6,14l0 0c3,5 5,10 8,15l0 0c3,7 6,13 9,19l0 0c4,7 8,13 11,19l0 0c0,0 0,0 0,0l0 0c0,1 0,1 0,1l0 0c7,11 14,22 21,33l0 0c7,10 14,20 21,30l0 0c5,8 11,15 16,22l0 0c5,5 10,11 14,17l0 0c1,0 1,1 1,1l0 0c0,0 1,0 1,0l0 0c4,6 8,11 13,16l0 0c5,6 11,13 17,19l0 0c6,6 12,13 18,19l0 0c7,7 15,14 22,22l0 0c8,7 16,15 25,23l0 0c1,0 2,1 3,2l0 0c1,1 1,1 2,2l0 0c8,7 16,14 25,22l0 0c11,9 22,18 34,27l0 0c12,10 26,20 39,30l0 0c9,6 18,13 27,19l0 0c2,2 4,4 7,5l0 0c5,4 9,7 14,10l0 0c18,12 37,25 57,38l0 0c22,14 46,28 71,43l0 0c6,3 11,7 17,10l0 0c19,11 36,20 53,30l0 0c20,11 39,20 57,29l0 0c16,8 32,16 47,23l0 0c1,0 2,0 3,1l0 0c0,0 1,0 2,0l0 0c12,6 24,11 35,15l0 0c12,5 23,10 34,13l0 0c10,4 20,7 30,10l0 0c9,3 18,5 27,8l0 0c0,0 1,0 1,0l0 0c0,0 0,0 0,0l0 0c8,2 15,3 23,5l0 0c7,2 15,3 22,4l0 0c7,1 14,1 21,2l0 0c7,0 14,1 20,1l0 0c5,0 9,-1 13,-1l0 0c0,0 1,0 2,0l0 0c1,0 3,0 5,0l0 0c7,-1 14,-2 21,-3l0 0c8,-2 16,-4 23,-7l0 0c9,-3 17,-7 24,-11l0 0 570 -331 -1 492c0,51 -4,97 -12,139l0 0c0,0 0,1 0,2l0 0c-8,40 -18,76 -32,109l0 0c-1,1 -2,3 -3,5l0 0c-12,27 -27,50 -44,71l0 0c-5,7 -10,14 -16,20l0 0c-20,21 -41,40 -66,54l0 0 660 -383c25,-15 47,-34 66,-55l0 0c6,-6 11,-13 16,-20l0 0c7,-8 14,-14 20,-23l0 0c7,-13 14,-25 21,-39l0 0c1,-3 3,-6 4,-9l0 0c1,-2 1,-3 2,-5l0 0c3,-6 5,-12 8,-19l0 0c4,-10 8,-21 11,-32l0 0c3,-10 5,-21 8,-31l0 0c2,-9 4,-18 5,-27l0 0c0,-1 1,-1 1,-2l0 0c0,-1 0,-2 0,-3l0 0c2,-10 4,-20 5,-31l0 0c1,-11 2,-22 3,-33l0 0c1,-11 2,-23 2,-34l0 0c1,-12 1,-24 1,-36l0 0c0,0 0,-1 0,-2l0 0 3 -1031zm-873 835c-1,-1 -1,-1 -2,-1l0 0c-47,-21 -100,-49 -159,-83l0 0c-59,-34 -112,-67 -160,-101l0 0c-2,-1 -4,-3 -7,-5l0 0c-46,-33 -88,-65 -125,-98l0 0c0,0 -1,-1 -1,-1l0 0c-38,-34 -71,-68 -99,-101l0 0c0,-1 0,-1 0,-1l0 0c-29,-34 -53,-68 -73,-103l0 0c0,0 0,0 0,0l0 0c-20,-35 -37,-70 -50,-106l0 0c0,-1 0,-1 -1,-1l0 0c-13,-36 -23,-73 -30,-110l0 0c-1,-1 -1,-2 -1,-3l0 0c-7,-37 -12,-75 -15,-114l0 0c0,-2 -1,-4 -1,-6l0 0c-3,-39 -4,-80 -4,-122l0 0 2 -589c0,-40 1,-78 5,-113l0 0c0,-2 0,-3 0,-5l0 0c3,-34 8,-65 16,-93l0 0c0,-1 0,-2 1,-3l0 0c3,-12 9,-21 13,-32l0 0c31,20 63,38 92,59l0 0c4,3 8,6 13,9l0 0c66,48 130,98 189,150l0 0c3,3 6,5 9,8l0 0c61,53 118,109 171,166l0 0c1,1 2,2 2,2l0 0c53,58 102,117 146,177l0 0c2,2 3,5 5,7l0 0c43,60 81,120 115,181l0 0c1,1 1,3 2,4l0 0c34,63 63,126 87,189l0 0c0,1 0,2 0,2l0 0c24,64 42,129 54,193l0 0c0,0 0,0 0,0l0 0c13,65 19,129 19,193l0 0 -2 506c-25,0 -52,-2 -83,-10l0 0c0,0 -1,0 -1,0l0 0c-37,-9 -80,-24 -127,-45l0 0z"/>
      <path class="fil9" d="M58912 18177l0 -2 0 -6 0 -10 0 0c0,-6 -1,-12 -1,-18l0 0c0,-5 -1,-11 -2,-17l0 0c0,0 0,-1 0,-1l0 0c0,0 0,0 0,-1l0 0c0,-6 -1,-13 -2,-20l0 0c-1,-7 -2,-13 -3,-21l0 0c-1,-7 -3,-16 -4,-24l0 0c0,0 0,0 0,0l0 0c-2,-8 -3,-17 -5,-25l0 0c-2,-9 -5,-19 -7,-29l0 0c-1,-4 -2,-7 -3,-11l0 0c-1,-2 -1,-5 -2,-7l0 0c-1,-4 -2,-8 -3,-12l0 0c-3,-11 -6,-22 -10,-34l0 0c-1,-5 -3,-9 -4,-14l0 0c-2,-3 -2,-6 -3,-9l0 0c-2,-4 -3,-8 -4,-12l0 0c-5,-13 -9,-26 -14,-38l0 0c-1,-3 -2,-6 -3,-8l0 0c-1,-4 -3,-8 -4,-12l0 0c-3,-7 -5,-14 -8,-21l0 0c-4,-9 -7,-19 -11,-28l0 0c-2,-4 -3,-7 -5,-11l0 0c0,-1 0,-2 -1,-3l0 0c-6,-16 -13,-31 -19,-46l0 0c-1,-1 -2,-2 -2,-4l0 0c-3,-6 -6,-12 -9,-19l0 0c-4,-8 -8,-17 -11,-25l0 0c-1,-2 -2,-4 -3,-6l0 0c-6,-11 -11,-21 -16,-32l0 0c-2,-4 -4,-9 -6,-13l0 0c-1,-1 -1,-2 -2,-3l0 0c-9,-20 -18,-35 -25,-48l0 0c0,-1 -1,-2 -1,-3l0 0c-1,-3 -1,-3 -3,-5l0 0c-6,-11 -10,-20 -12,-23l0 0 -660 384c1,3 6,12 12,23l0 0c1,2 3,5 4,8l0 0c7,12 15,29 25,48l0 0c2,5 5,11 8,16l0 0c5,10 10,21 15,32l0 0c5,10 10,21 15,32l0 0c3,6 5,12 8,18l0 0c8,17 15,35 23,53l0 0c1,4 3,7 4,11l0 0c7,16 13,32 19,48l0 0c2,4 3,8 5,13l0 0c7,19 14,38 20,58l0 0c1,3 2,6 3,9l0 0c6,20 12,40 18,60l0 0c0,2 1,5 1,7l0 0c6,21 11,43 15,65l0 0c0,0 0,0 0,0l0 0 0 0c5,22 8,44 10,66l0 0 0 0c2,22 3,42 2,62l0 0c0,1 0,2 0,2l0 0c0,20 -2,39 -6,56l0 0c0,1 0,2 0,3l0 0c-4,17 -9,33 -16,49l0 0c0,0 -1,1 -1,2l0 0c-5,11 -12,20 -19,29l0 0c-13,19 -28,35 -49,48l0 0 -3326 2123 660 -384 3326 -2123c21,-13 37,-29 50,-48l0 0c1,-1 4,-3 5,-5l0 0c5,-6 8,-13 12,-20l0 0c0,-1 1,-2 1,-4l0 0c1,0 1,-1 1,-2l0 0c2,-4 4,-8 6,-12l0 0c1,-5 3,-10 5,-16l0 0c1,-5 3,-10 4,-15l0 0c0,-2 1,-4 1,-6l0 0c0,-1 0,-2 1,-2l0 0c0,-3 0,-5 1,-7l0 0c1,-5 1,-10 2,-15l0 0c1,-5 1,-10 2,-15l0 0c0,-5 0,-10 1,-15l0 0c0,-2 0,-3 0,-5l0 0c0,0 0,-1 0,-1l0 0 0 -9z"/>
      <path class="fil33" d="M58409 22579l2 -588c1,-332 -104,-606 -566,-872 -483,-279 -569,-115 -570,216l-1 588c-1,348 83,594 567,873 461,267 567,131 568,-217zm-562 -1954c623,360 1029,910 1028,1420l-3 1031c-2,528 -410,574 -1033,214 -625,-361 -1029,-876 -1028,-1404l3 -1031c1,-510 408,-591 1033,-230z"/>
      <path class="fil33" d="M54557 16883c-1,349 84,594 567,873 462,267 568,132 569,-217l2 -587c1,-333 -104,-607 -566,-874 -483,-279 -569,-115 -570,218l-2 587zm1598 1153c-1,528 -409,574 -1032,214 -624,-360 -1030,-876 -1028,-1404l3 -1030c1,-511 409,-591 1033,-231 623,360 1029,909 1027,1421l-3 1030z"/>
      <path class="fil33" d="M58044 17940c18,33 369,665 116,818l-3326 2123c-19,-33 -370,-665 -117,-818l3327 -2123z"/>
     </g>
     <g>
      <path class="fil34" d="M54292 48833c87,50 97,126 23,169l-2485 1444c-74,43 -206,38 -293,-12l-47 -28c-87,-49 -96,-126 -22,-169l2485 -1444c74,-43 206,-37 292,12l47 28z"/>
      <path class="fil35" d="M54367 46281l-4955 2880c-663,385 -659,1015 9,1401l0 0 886 512c667,385 1756,385 2419,0l0 0 2788 -1621 1160 1114 639 -2159 368 -214c662,-385 659,-1015 -8,-1401l0 0 -887 -511c-334,-193 -773,-290 -1212,-290l0 0c-438,0 -876,97 -1207,289zm-3787 3600c-99,-57 -110,-145 -25,-194l0 0 4724 -2745c85,-50 236,-44 335,13l0 0c100,58 111,146 26,195l0 0 -4724 2745c-38,23 -90,34 -145,34l0 0c-66,0 -137,-17 -191,-48zm957 553l-47 -27c-87,-50 -96,-127 -22,-170l0 0 2485 -1444c74,-43 206,-38 292,12l0 0 47 28c87,50 97,126 23,169l0 0 -2485 1444c-33,19 -79,29 -127,29l0 0c-58,0 -119,-14 -166,-41l0 0z"/>
      <path class="fil34" d="M55614 46955c100,58 111,146 26,195l-4724 2745c-85,50 -237,43 -336,-14 -99,-57 -110,-145 -25,-194l4724 -2745c85,-50 236,-44 335,13z"/>
      <path class="fil36" d="M58171 47549c-1,18 -3,36 -6,54l0 0c-3,15 -7,29 -11,44l0 0c-4,17 -9,34 -15,51l0 0c-5,14 -11,28 -17,42l0 0c-8,18 -16,36 -25,54l0 0c-7,13 -16,25 -23,38l0 0c-13,20 -26,40 -40,59l0 0c-9,12 -19,24 -28,35l0 0c-22,27 -47,53 -73,78l0 0c-9,9 -17,19 -27,27l0 0c-16,15 -34,29 -52,43l0 0c-16,13 -31,26 -48,38l0 0c-19,14 -40,27 -60,40l0 0c-21,14 -42,29 -65,42l0 0 -368 214 -639 2159 -1160 -1114 -2788 1621c-51,29 -105,56 -160,81l0 0c-16,7 -33,14 -49,21l0 0c-43,18 -87,34 -132,50l0 0c-17,5 -34,11 -51,17l0 0c-29,9 -58,17 -88,25l0 0c-22,6 -44,12 -67,18l0 0c-31,7 -62,14 -94,20l0 0c-22,4 -43,9 -65,13l0 0c-64,12 -130,20 -195,27l0 0c-20,2 -40,4 -60,5l0 0c-39,4 -78,6 -118,8l0 0c-24,1 -49,2 -73,2l0 0c-32,1 -64,1 -96,1l0 0c-26,-1 -51,-1 -77,-3l0 0c-30,-1 -59,-2 -88,-4l0 0c-27,-2 -53,-4 -79,-7l0 0c-29,-2 -58,-6 -86,-9l0 0c-26,-4 -51,-7 -77,-11l0 0c-30,-5 -61,-10 -91,-16l0 0c-24,-5 -47,-9 -71,-14l0 0c-36,-8 -71,-17 -107,-26l0 0c-19,-6 -39,-10 -58,-16l0 0c-62,-18 -124,-39 -183,-62l0 0c-29,-11 -57,-23 -85,-36l0 0c-15,-6 -30,-12 -44,-19l0 0c-43,-21 -85,-42 -125,-65l0 0 -886 -512c-337,-194 -505,-450 -504,-706l0 0 -2 813c-1,256 167,512 503,706l0 0 887 512c40,23 82,45 125,65l0 0c14,7 29,13 43,19l0 0c25,11 50,23 76,33l0 0c3,2 7,2 10,4l0 0c59,23 120,43 183,61l0 0c5,2 9,4 14,5l0 0c14,4 29,7 44,11l0 0c35,9 71,18 107,26l0 0c9,2 18,5 27,7l0 0c15,3 29,5 44,7l0 0c30,6 60,12 91,16l0 0c12,2 23,5 35,6l0 0c14,2 28,3 41,5l0 0c29,4 58,7 87,10l0 0c13,1 26,3 40,4l0 0c12,1 25,1 38,2l0 0c30,2 59,4 88,5l0 0c15,0 29,2 43,2l0 0c7,0 13,0 19,0l0 0c6,0 11,0 16,0l0 0c32,0 64,0 95,0l0 0c7,-1 14,0 21,0l0 0c8,0 17,0 26,-1l0 0c9,0 18,-1 27,-1l0 0c39,-2 79,-5 118,-8l0 0c15,-2 31,-2 46,-3l0 0c4,-1 9,-2 13,-2l0 0c66,-7 131,-16 195,-27l0 0c4,-1 7,-1 11,-2l0 0c18,-3 36,-8 55,-12l0 0c31,-6 63,-12 93,-20l0 0c23,-5 46,-12 68,-18l0 0c30,-8 59,-16 88,-25l0 0c6,-2 13,-3 20,-5l0 0c10,-4 20,-9 30,-12l0 0c45,-15 90,-32 133,-50l0 0c16,-7 32,-14 48,-21l0 0c56,-25 110,-51 160,-81l0 0 2789 -1620 1159 1113 639 -2158 368 -214c7,-4 14,-8 21,-12l0 0c16,-10 30,-21 45,-31l0 0c20,-13 41,-26 60,-39l0 0c17,-13 32,-26 48,-39l0 0c18,-14 35,-28 51,-42l0 0c3,-3 7,-5 10,-8l0 0c7,-6 12,-13 18,-19l0 0c26,-26 51,-52 72,-78l0 0c5,-6 12,-11 16,-17l0 0c5,-6 8,-12 12,-18l0 0c15,-20 28,-40 40,-60l0 0c5,-8 12,-16 17,-24l0 0c3,-5 4,-9 6,-14l0 0c10,-18 18,-36 25,-53l0 0c5,-11 11,-21 15,-31l0 0c1,-4 2,-7 3,-11l0 0c6,-17 10,-35 15,-52l0 0c3,-11 7,-22 9,-34l0 0c1,-3 1,-6 2,-9l0 0c3,-19 4,-37 6,-55l0 0c1,-12 4,-23 4,-35l0 0c0,-5 0,-10 0,-15l0 0 2 -813c0,16 -2,33 -4,50l0 0z"/>
     </g>
     <g>
      <path class="fil37" d="M48821 52945l0 -2 -2 653 0 0c0,7 0,14 0,21l0 0c-1,11 -3,21 -4,31l0 0c-2,29 -5,58 -10,86l0 0c-1,7 -1,13 -2,19l0 0c-2,10 -6,19 -8,29l0 0c-6,26 -14,52 -22,78l0 0c-4,9 -5,18 -8,26l0 0c-3,7 -7,14 -10,21l0 0c-11,28 -24,56 -39,84l0 0c-5,10 -8,20 -14,29l0 0c-3,6 -7,12 -10,17l0 0c-5,8 -10,15 -14,23l0 0c-18,29 -38,58 -59,86l0 0c-3,4 -6,8 -9,11l0 0c-1,2 -2,3 -3,5l0 0c-24,30 -51,60 -79,90l0 0c-8,8 -16,16 -25,25l0 0c-14,14 -28,28 -43,43l0 0c-10,9 -20,17 -31,26l0 0c-9,8 -18,16 -27,24l0 0c-35,29 -71,58 -111,86l0 0c-26,20 -55,40 -86,59l0 0c-4,2 -6,4 -9,6l0 0c-6,4 -12,8 -18,11l-4998 2905 0 0c-43,24 -89,47 -136,68l0 0c-15,7 -32,12 -48,18l0 0c-33,13 -64,26 -98,37l0 0c-1,0 -2,1 -3,1l0 0c-44,14 -89,26 -134,37l0 0c-14,3 -27,6 -41,9l0 0c-20,4 -40,9 -60,12l0 0c-24,5 -48,9 -73,12l0 0c-59,14 -120,27 -181,38l0 0c-5,1 -10,2 -15,3l0 0c-7,1 -14,2 -22,3l0 0c-92,16 -186,30 -280,39l0 0c-1,0 -1,0 -1,0l0 0c-3,1 -5,1 -7,1l0 0c-75,7 -150,12 -226,15l0 0c-10,0 -19,1 -29,2l0 0c-5,0 -10,0 -15,0l0 0c-4,0 -8,0 -13,0l0 0c-69,2 -139,3 -208,1l0 0c-1,0 -2,0 -4,0l0 0c-1,0 -2,0 -3,0l0 0c0,0 -1,0 -1,0l0 0c-70,-2 -139,-6 -209,-11l0 0c-7,-1 -15,-1 -23,-2l0 0c-12,-1 -24,-2 -36,-4l0 0c-52,-4 -105,-10 -157,-17l0 0c-12,-2 -24,-3 -36,-4l0 0c-7,-1 -13,-3 -19,-3l0 0c-70,-11 -139,-22 -207,-36l0 0c-3,-1 -6,-1 -9,-2l0 0c-7,-1 -14,-4 -21,-5l0 0c-67,-14 -132,-31 -197,-48l0 0c-10,-3 -20,-5 -30,-8l0 0c-5,-1 -9,-3 -14,-5l0 0c-85,-24 -168,-52 -248,-83l0 0c-7,-3 -15,-5 -22,-7l0 0c-9,-4 -17,-8 -27,-12l0 0c-38,-16 -75,-32 -112,-49l0 0c-17,-8 -35,-15 -51,-24l0 0c-53,-25 -104,-52 -154,-80l0 0c-466,-269 -698,-623 -697,-976l0 -139 0 0c-72,-46 -126,-97 -163,-151l0 0c-39,-57 -58,-118 -58,-178l2 -489 0 0c-166,-215 -250,-446 -249,-678l2 -653 0 0c-1,189 54,378 165,558l0 0c66,108 152,213 258,312l-1 594 0 0c17,13 36,26 57,39l-1 264 0 0c50,308 279,608 687,844l0 0c50,28 101,55 154,80l0 0c16,8 34,16 51,24l0 0c37,17 74,33 112,49l0 0c16,6 33,12 49,19l0 0c80,31 163,59 247,83l0 0c15,4 30,8 45,12l0 0c64,18 130,34 196,49l0 0c11,2 21,4 31,6l0 0c68,14 137,26 207,36l0 0c18,3 37,5 56,8l0 0c51,7 104,12 156,17l0 0c20,2 40,4 59,6l0 0c70,5 139,9 209,11l0 0c2,0 5,0 8,0l0 0c70,1 139,1 208,-1l0 0c19,-1 38,-1 57,-2l0 0c76,-3 151,-8 226,-15l0 0c3,-1 5,-1 8,-1l0 0c94,-9 188,-23 280,-39l0 0c12,-2 25,-4 37,-6l0 0c61,-11 121,-24 181,-38l0 0c45,-6 89,-15 133,-24l0 0c13,-3 27,-6 40,-9l0 0c47,-11 93,-24 138,-38l0 0c33,-11 64,-23 95,-36l0 0c17,-7 35,-12 51,-19l0 0c47,-21 93,-44 135,-68l4998 -2905 0 0c10,-6 19,-11 27,-17l0 0c31,-19 61,-39 87,-59l0 0c40,-28 76,-57 111,-86l0 0c9,-8 18,-16 27,-24l0 0c26,-23 51,-46 74,-70l0 0c9,-8 17,-16 25,-24l0 0c30,-31 57,-63 82,-95l0 0c3,-4 6,-7 8,-11l0 0c22,-29 42,-57 60,-86l0 0c4,-8 9,-15 14,-23l0 0c9,-15 16,-31 24,-46l0 0c14,-28 28,-56 39,-84l0 0c6,-16 12,-31 17,-47l0 0c9,-26 17,-52 23,-79l0 0c4,-15 7,-31 10,-47l0 0c5,-28 8,-57 10,-86l0 0c1,-17 4,-33 4,-50z"/>
      <path class="fil38" d="M45026 51840c-784,-312 -1862,-267 -2556,136l0 0c-230,134 -392,293 -486,462l0 0c-826,-50 -1680,108 -2310,474l0 0c-947,550 -1080,1392 -404,2027l0 0c-252,188 -233,457 56,633l0 0c-67,395 162,805 686,1108l0 0c699,403 1721,502 2577,298l0 0c218,-31 423,-96 592,-194l0 0 4998 -2905c42,-24 80,-50 114,-76l0 0c758,-539 699,-1334 -171,-1836l0 0c-464,-268 -1070,-402 -1675,-402l0 0c-501,0 -1002,92 -1421,275l0 0z"/>
      <path class="fil39" d="M42197 54053c-9,-44 -4,-90 18,-136 26,-57 75,-107 139,-148 7,-4 14,-8 21,-12 4,-2 7,-4 11,-6 7,-4 15,-8 22,-12 8,-4 15,-7 23,-11 4,-2 8,-3 12,-5 16,-7 33,-13 50,-19 4,-2 8,-3 13,-5 8,-3 17,-5 26,-8 4,-1 9,-2 13,-4 9,-2 18,-5 27,-7 5,-1 9,-2 14,-3 7,-2 13,-3 20,-4 7,-2 15,-3 22,-5 10,-2 19,-3 29,-5 13,-2 26,-3 39,-5 7,0 13,-1 20,-2 10,-1 20,-2 30,-2 15,-1 30,-2 46,-2 10,0 20,-1 30,0 52,0 104,4 156,12 93,15 175,41 244,75 11,6 22,12 33,18 7,4 14,8 20,12 7,5 14,9 20,13 16,11 31,23 44,35 5,5 10,10 15,15 8,7 15,15 21,23 5,5 9,10 13,15 2,3 3,6 5,8 4,6 7,11 11,17 5,8 9,16 13,24 2,6 5,12 7,17 20,54 18,112 -9,168 -22,48 -60,91 -110,128 -6,4 -13,9 -19,13 -20,14 -41,26 -64,37 -7,4 -15,8 -23,11 -4,2 -8,4 -12,5 -12,6 -24,11 -37,15 -142,53 -321,72 -497,44 -84,-13 -159,-35 -223,-64 -28,-13 -53,-27 -76,-42 -8,-5 -16,-10 -23,-15 -18,-13 -35,-26 -49,-41 -15,-14 -28,-29 -39,-44 -2,-3 -4,-5 -6,-8 -4,-5 -7,-11 -10,-16 -4,-6 -7,-11 -10,-17 -5,-11 -10,-22 -13,-34 -2,-3 -3,-7 -4,-11 -1,-4 -2,-8 -3,-12zm1267 -941l-417 -65c-53,-8 -109,18 -123,49l-65 138 0 1c-129,-1 -281,7 -418,30l-125 -125c-27,-28 -88,-37 -136,-21l-375 124c-48,16 -64,51 -37,78l124 124 1 1c-102,54 -184,107 -257,190l-240 -38c-53,-8 -113,11 -128,42l-113 241c-14,30 28,51 81,59l240 37 1 1c-11,92 9,167 49,246l-218 77c-48,16 -65,52 -37,79l215 216c28,28 89,38 137,22l216 -72 2 0c95,59 191,107 334,149l-65 139c-15,31 15,53 69,62l416 65c54,8 92,-4 107,-35l65 -138 0 -1c159,6 285,-6 422,-29l130 125c28,28 89,37 137,21l374 -124c48,-16 65,-52 38,-80l-123 -126 1 -4c101,-54 187,-115 261,-197l239 37c54,8 97,3 112,-28l112 -241c15,-30 -10,-65 -64,-73l-239 -37 -1 0c10,-93 -13,-160 -53,-239l214 -70c48,-16 64,-51 37,-79l-215 -216c-28,-28 -90,-37 -138,-21l-217 71 -5 -1c-94,-58 -196,-107 -338,-149l65 -139c15,-30 1,-67 -52,-76z"/>
      <path class="fil39" d="M45123 53926c-23,-25 -39,-52 -46,-81 -8,-37 0,-73 21,-105 2,-4 4,-7 6,-10 2,-2 3,-4 4,-5 3,-4 6,-7 8,-10 3,-3 6,-7 9,-10 2,-1 3,-3 5,-4 6,-7 13,-13 21,-18 2,-2 3,-3 5,-5 4,-3 8,-5 12,-8 2,-1 4,-3 6,-4 5,-3 9,-5 13,-8 2,-1 5,-3 7,-4 3,-2 6,-3 10,-5 3,-2 7,-4 11,-6 5,-2 10,-4 15,-6 6,-3 13,-6 20,-9 4,-1 7,-2 11,-4 5,-2 11,-3 16,-5 9,-3 17,-5 26,-8 6,-1 12,-3 18,-4 30,-7 61,-11 95,-14 60,-4 119,-1 173,10 8,2 17,4 26,6 6,1 11,3 17,4 6,2 11,3 17,5 14,4 27,9 40,14 5,2 10,5 15,7 7,3 14,7 21,10 5,2 9,5 14,8 2,1 4,2 7,3 4,3 8,6 12,8 6,4 12,9 18,13 4,3 7,6 11,9 34,28 56,62 64,99 7,30 3,61 -11,89 -2,3 -4,7 -6,10 -6,11 -13,21 -22,30 -2,4 -5,7 -8,10 -2,1 -4,3 -5,4 -5,5 -10,10 -16,14 -61,50 -157,86 -270,94 -54,4 -107,1 -156,-7 -21,-3 -42,-8 -62,-13 -6,-2 -12,-4 -19,-6 -16,-5 -31,-11 -45,-17 -15,-6 -28,-13 -41,-20 -2,-2 -5,-3 -7,-4 -4,-3 -8,-6 -13,-8 -4,-3 -8,-6 -12,-9 -7,-5 -15,-11 -22,-17 -2,-2 -4,-4 -6,-6 -2,-3 -5,-5 -7,-7zm348 -720l-269 19c-34,3 -56,26 -51,46l19 89 0 0c-75,17 -160,43 -230,75l-124 -55c-27,-13 -67,-10 -88,6l-166 123c-21,16 -16,39 11,51l123 55 0 0c-36,46 -62,88 -71,146l-154 11c-35,2 -62,22 -57,42l33 155c5,20 37,26 72,23l154 -11 1 0c32,55 74,96 130,136l-95 75c-21,16 -16,39 11,51l214 96c27,12 67,9 88,-6l96 -71 2 -1c79,21 154,36 254,41l20 89c4,20 31,29 65,27l269 -20c34,-2 52,-15 48,-34l-20 -90 0 0c95,-18 163,-43 233,-75l127 55c28,12 67,9 88,-7l166 -123c22,-16 17,-39 -11,-52l-123 -56 -1 -2c36,-46 61,-93 70,-151l154 -11c35,-3 58,-12 54,-32l-34 -155c-4,-20 -33,-36 -67,-34l-155 12 -1 0c-31,-55 -73,-91 -128,-132l95 -70c22,-15 17,-38 -11,-50l-214 -96c-27,-13 -67,-10 -89,6l-96 71 -3 1c-79,-21 -158,-36 -258,-41l-19 -89c-5,-20 -28,-40 -62,-37z"/>
     </g>
     <g>
      <path class="fil40" d="M32537 34987l-6546 3780c-340,196 -510,540 -509,884l0 0 0 5 0 4 0 5 0 5 0 5 0 4 0 5 0 5 0 4 0 5 0 5 0 5 0 4 0 5 0 5 0 5 0 4 0 5 0 5 0 4 0 5 0 5 0 5 0 4 0 5 0 5 0 5 0 4 0 5 0 5 0 4 0 5 0 5 0 5 0 4 0 5 0 5 0 5 0 4 0 5 0 5 0 4 0 5 0 5 0 5 0 4 0 5 0 5 0 5 0 4 0 5 0 5 0 4 0 5 0 5 0 5 0 4 0 5 0 5 0 5 0 4 0 5 0 5 0 4 0 5 0 5 0 5 0 4 0 5 0 5 0 4 0 5 0 5 0 5 0 4 0 5 0 5 0 4 0 5 0 5 0 5 0 4 0 5 0 5 0 5 0 4 0 5 0 5 0 5 0 4 0 5 0 5 0 4 0 5 0 5 0 5 0 4 0 5 0 5 0 5c-1,343 169,687 509,884l0 0 4106 2371c316,181 704,181 1019,0l0 0 6546 -3780c340,-196 509,-540 509,-884l0 0 0 -5 0 -4 0 -5 0 -5 0 -5 0 -4 0 -5 0 -5 0 -5 0 -4 0 -5 0 -5 0 -4 0 -5 0 -5 0 -5 0 -4 0 -5 0 -5 0 -5 0 -4 0 -5 0 -5 0 -4 0 -5 0 -5 0 -5 0 -4 0 -5 0 -5 0 -5 0 -4 0 -5 0 -5 0 -4 0 -5 0 -5 0 -5 0 -4 0 -5 0 -5 0 -4 0 -5 0 -5 0 -5 0 -4 0 -5 0 -5 0 -5 0 -4 0 -5 0 -5 0 -5 0 -4 0 -5 0 -5 0 -4 0 -5 0 -5 0 -4 0 -5 0 -5 0 -5 0 -4 0 -5 0 -5 0 -5 0 -4 0 -5 0 -5 0 -5 0 -4 0 -5 0 -5 0 -4 0 -5 0 -5 0 -5 0 -4 0 -5 0 -5 0 -4 0 -5 0 -5 0 -5 0 -4 0 -5 0 -5 0 -5 0 -4 0 -5 0 -5 0 -5 0 -4 0 -5 0 -5 0 -4 0 -5 0 -5 0 -5c0,-343 -169,-687 -509,-884l0 0 -4107 -2371c-157,-91 -333,-136 -509,-136 -176,0 -351,45 -509,136l0 0z"/>
      <path class="fil41" d="M32537 34987l-6546 3780c-679,392 -679,1371 0,1763l0 0 4106 2371c316,182 704,182 1019,0l0 0 6546 -3779c679,-392 679,-1372 0,-1764l0 0 -4107 -2371c-157,-91 -333,-136 -509,-136 -176,0 -351,45 -509,136l0 0z"/>
      <path class="fil42" d="M33311 36090l-6377 3682c-115,67 -98,189 37,268l2474 1428c134,77 273,128 420,124 83,-2 159,-21 234,-56 24,-11 46,-24 77,-42l6196 -3577c115,-67 98,-190 -37,-268l-2663 -1537c-103,-60 -254,-83 -361,-22zm-3311 5590c-47,9 -98,14 -151,14 -138,0 -273,-32 -369,-88l-2662 -1537c-169,-98 -186,-241 -37,-327l6376 -3681c120,-70 199,-95 287,-98 112,-4 231,32 382,119l2662 1537c169,98 186,242 37,327l-6376 3682c-41,23 -92,41 -149,52z"/>
      <path class="fil43" d="M34337 38616l-3080 1778c-44,25 -39,70 12,99l0 0c51,30 129,33 173,8l0 0 3080 -1779c44,-25 38,-70 -13,-99l0 0c-27,-16 -63,-25 -97,-25l0 0c-28,0 -55,6 -75,18l0 0z"/>
      <polygon class="fil42" points="31210,39675 29565,39570 29576,39514 31116,39613 31169,38356 32744,38185 32808,37203 32904,37205 32837,38231 31263,38402 "/>
      <polygon class="fil44" points="33204,37271 32875,36912 32501,37255 "/>
      <path class="fil45" d="M29798 39411c125,72 125,190 0,262 -126,73 -329,73 -455,0 -126,-72 -126,-190 0,-262 126,-73 329,-73 455,0z"/>
      <path class="fil44" d="M31391 39513c125,72 125,190 0,262 -126,73 -330,73 -455,0 -126,-72 -126,-190 0,-262 125,-73 329,-73 455,0z"/>
      <path class="fil15" d="M31444 38248c125,72 125,190 0,262 -126,73 -330,73 -455,0 -126,-72 -126,-190 0,-262 125,-73 329,-73 455,0z"/>
      <path class="fil46" d="M33018 38077c126,72 126,190 0,262 -126,73 -329,73 -455,0 -126,-72 -126,-190 0,-262 126,-73 329,-73 455,0z"/>
      <polygon class="fil46" points="30555,40411 29476,41034 28851,40673 29930,40051 "/>
      <polygon class="fil46" points="35440,37591 34362,38213 33737,37853 34816,37230 "/>
     </g>
     <g>
      <path class="fil47" d="M48400 27672l599 39 -2157 5715 -1403 -3231 -3361 9865 -1880 -2595 -337 941 -1286 3603 0 0c-1336,3762 -1280,3779 -1323,3961l0 0 790 -353 2200 -6252 0 0 1902 2626 3221 -9454 1358 3126 2983 -7905 599 40 -33 -2498 -1872 2372z"/>
      <path class="fil48" d="M39192 38032c-7,17 -651,1814 -1286,3602l0 0 -1323 3962 0 0 669 374c43,-182 -13,-199 1323,-3961l0 0 1286 -3603 0 0 336 -938 -668 -377 -337 941z"/>
      <path class="fil48" d="M47711 27325l512 295 -1814 4807 433 999 2157 -5715 -599 -39 1872 -2372 -670 -374 -1891 2399zm-1302 5102l0 0 -970 -2232 970 2232z"/>
      <path class="fil48" d="M41536 39312l542 748 3361 -9865 -669 -374 -3234 9491zm0 0l0 0 -1338 -1847 1338 1847z"/>
      <path class="fil49" d="M40110 39733l1365 1884 1 -3 668 377 -1902 -2626c-53,148 -111,309 -132,368zm0 0l0 0c-12,35 -11,30 0,0l0 0z"/>
      <polygon class="fil49" points="45142,33191 46053,35289 46723,35663 45365,32538 "/>
     </g>
     <g>
      <path class="fil50" d="M17335 44838c0,9 0,17 0,26l0 0c10,427 273,833 801,1139l0 0 10069 5813c1190,687 3268,600 4642,-193l0 0c776,-448 1161,-1025 1135,-1567l0 0 0 -991c-12,519 -396,1064 -1135,1490l0 0c-1374,794 -3452,880 -4642,193l0 0 -10069 -5813c-517,-299 -781,-696 -801,-1113l0 1016zm16647 4227c0,-17 0,-34 0,-51l0 0 0 51z"/>
      <path class="fil51" d="M18470 42255c-1374,793 -1523,1993 -334,2680l0 0 10069 5813c1190,687 3268,601 4642,-193l0 0c1374,-793 1523,-1993 333,-2680l0 0 -10068 -5813c-539,-311 -1261,-464 -2016,-464l0 0c-913,0 -1875,223 -2626,657l0 0z"/>
      <path class="fil52" d="M29724 48160l-1626 1200c1045,472 2553,419 3491,-123 395,-228 655,-522 741,-841l-2606 -236z"/>
      <path class="fil53" d="M29724 48160l-323 -1512c-584,42 -1127,195 -1543,435 -1023,591 -1023,1563 0,2154 76,44 156,84 240,123l1626 -1200z"/>
      <path class="fil54" d="M29724 48160l2606 236c131,-480 -145,-969 -741,-1313 -574,-332 -1382,-492 -2188,-435l323 1512z"/>
      <path class="fil55" d="M31589 49237c395,-228 655,-522 741,-841l0 858c-86,318 -346,613 -741,841 -938,541 -2446,594 -3491,122l0 -858c1045,473 2553,420 3491,-122z"/>
      <path class="fil56" d="M27858 49237c76,44 156,84 240,123l0 857c-84,-38 -164,-79 -240,-122 -514,-298 -770,-691 -767,-1084l0 -830c0,-5 0,-9 0,-14 3,388 259,776 767,1070z"/>
      <path class="fil57" d="M22709 44259l-351 202c-316,183 -350,458 -77,616l0 0 3326 1920c274,158 751,138 1066,-44l0 0 351 -203c316,-182 350,-457 77,-615l0 0 -3326 -1921c-124,-71 -290,-106 -464,-106l0 0c-209,0 -430,51 -602,151l0 0z"/>
      <polygon class="fil58" points="20267,44258 20701,44509 23016,43172 22582,42922 "/>
      <polygon class="fil58" points="19494,43812 19929,44063 21351,43241 20917,42991 "/>
      <polygon class="fil58" points="18722,43366 19156,43617 21041,42528 20607,42277 "/>
     </g>
     <g>
      <path class="fil32" d="M47057 48703l-1945 0 0 888c0,144 95,289 286,399l0 0c380,220 1000,220 1377,0l0 0c188,-110 282,-255 282,-399l0 0 0 -888z"/>
      <path class="fil59" d="M45398 48303c-381,220 -381,580 0,800 380,220 1000,220 1377,0 377,-220 377,-580 0,-800 -377,-219 -997,-219 -1377,0z"/>
     </g>
     <g>
      <g>
       <path class="fil60" d="M34128 51559l0 1201c0,145 95,289 285,399l0 0c381,220 1000,220 1376,0l0 0c189,-109 283,-254 283,-399l0 0 0 -1201 -1944 0z"/>
       <path class="fil61" d="M34413 51159c-380,220 -380,580 0,799 381,220 1000,220 1376,0 377,-219 377,-579 0,-799 -376,-219 -995,-219 -1376,0z"/>
      </g>
      <g>
       <path class="fil62" d="M37575 54800l0 -2194 -1944 0 0 2194c0,145 95,290 285,400l0 0c381,220 1000,220 1377,0l0 0c188,-110 282,-255 282,-400z"/>
       <path class="fil63" d="M35916 52186c-380,220 -380,579 0,799 381,220 1000,220 1377,0 376,-220 376,-579 0,-799 -377,-220 -996,-220 -1377,0z"/>
      </g>
     </g>
     <g>
      <path class="fil64" d="M11793 30711l0 4 0 4c0,86 5,168 10,250l0 0 82 -46c2,39 2,79 5,118l0 0 82 -46c2,39 2,79 5,118l0 0 82 -46c2,39 2,79 4,118l0 0 83 -46c2,39 2,79 4,118l0 0 83 -46c1,39 2,80 4,118l0 0 83 -46c1,39 2,80 4,118l0 0 82 -46c2,39 3,79 5,118l0 0 82 -46c2,39 3,80 5,118l0 0 82 -46c2,39 3,80 5,118l0 0 12431 -6965c6,-90 10,-180 10,-269l0 0c0,-849 -259,-1472 -677,-1790l0 0c-28,-25 -57,-49 -87,-72l0 0c-28,-25 -57,-49 -86,-72l0 0c-29,-25 -58,-49 -87,-72l0 0c-28,-25 -58,-49 -87,-72l0 0c-28,-26 -57,-49 -87,-72l0 0c-28,-25 -57,-49 -87,-72l0 0c-28,-26 -57,-49 -87,-72l0 0c-28,-26 -57,-49 -87,-72l0 0c-402,-368 -976,-424 -1616,-88l0 0c-173,-382 -405,-687 -682,-905l0 0c-28,-25 -58,-49 -87,-72l0 0c-28,-25 -57,-49 -87,-72l0 0c-28,-25 -57,-49 -87,-72l0 0c-28,-25 -57,-49 -87,-72l0 0c-28,-25 -57,-49 -87,-72l0 0c-28,-25 -57,-49 -86,-72l0 0c-29,-26 -58,-49 -87,-72l0 0c-29,-26 -58,-49 -87,-73l0 0c-345,-305 -767,-468 -1241,-468l0 0c-422,0 -885,129 -1371,401l0 0c-1614,905 -2978,3112 -3416,5335l0 0c-95,39 -191,84 -289,139l0 0c-1409,789 -2551,2964 -2551,4857z"/>
      <path class="fil51" d="M18831 21029c-1615,904 -2978,3111 -3416,5335 -95,38 -191,83 -289,138 -1409,789 -2551,2964 -2551,4857 0,48 1,95 3,141l2 -1c2,38 3,77 4,114 1,1 1,2 1,3 0,0 0,1 0,1l12431 -6964c6,-91 10,-181 10,-270 0,-849 -259,-1472 -677,-1790 -1,-1 -3,-2 -4,-4 -408,-308 -967,-325 -1584,20 -149,83 -295,185 -435,301 -61,-367 -158,-695 -288,-981 -173,-382 -405,-687 -682,-905 -4,-4 -8,-7 -12,-11 -645,-499 -1532,-534 -2513,16z"/>
     </g>
     <g>
      <path class="fil64" d="M29565 14562l0 -8c0,-525 -160,-910 -418,-1107l0 0c-18,-16 -36,-30 -54,-44l0 0c-17,-16 -35,-31 -54,-45l0 0c-17,-16 -35,-30 -54,-44l0 0c-17,-16 -35,-31 -53,-45l0 0c-18,-16 -36,-31 -54,-45l0 0c-17,-15 -36,-30 -54,-44l0 0c-17,-16 -35,-31 -54,-45l0 0c-17,-16 -35,-30 -53,-44l0 0c-249,-228 -604,-263 -1000,-55l0 0c-108,-236 -251,-425 -422,-560l0 0c-18,-15 -36,-30 -54,-44l0 0c-18,-16 -35,-31 -54,-45l0 0c-17,-15 -35,-30 -53,-45l0 0c-18,-15 -36,-30 -54,-44l0 0c-18,-15 -36,-30 -54,-45l0 0c-18,-15 -35,-30 -54,-44l0 0c-17,-16 -35,-30 -53,-45l0 0c-18,-15 -36,-30 -54,-44l0 0c-213,-189 -475,-290 -768,-290 -261,0 -548,80 -848,248l0 0c-999,560 -1842,1925 -2114,3301l0 0c-58,24 -118,52 -178,85l0 0c-872,489 -1579,1834 -1579,3005l0 0c0,55 3,108 6,160l0 0 51 -28c1,24 2,49 3,73l0 0 51 -29c1,24 1,49 3,73l0 0 51 -28c1,24 1,49 3,73l0 0 51 -29c1,25 1,50 2,74l0 0 51 -29c1,24 2,49 3,73l0 0 51 -29c1,25 1,50 3,74l0 0 51 -29c1,24 1,49 3,73l0 0 51 -28c1,24 1,49 2,73l0 0 51 -29c1,24 2,49 3,73l0 0 7691 -4309c4,-53 6,-106 6,-159z"/>
      <path class="fil65" d="M21868 19030c-3,-52 -6,-104 -6,-160 0,-1171 707,-2516 1579,-3004 60,-34 119,-62 178,-86 271,-1376 1115,-2741 2114,-3301 1068,-598 1959,-77 2162,1164 87,-71 177,-134 269,-186 774,-434 1401,58 1401,1098 0,55 -2,110 -6,166l-7691 4309z"/>
     </g>
     <g>
      <polygon class="fil66" points="52731,33679 52712,40538 62519,46201 62538,39341 "/>
      <polygon class="fil47" points="52731,33679 53284,33356 63068,39034 62538,39341 "/>
      <polygon class="fil37" points="62519,46201 63048,45893 63068,39034 62538,39341 "/>
      <path class="fil67" d="M52712 40538l4787 -597 5020 6260c0,0 -9807,-5662 -9807,-5663z"/>
      <path class="fil68" d="M62538 39341l-4929 1805 -4878 -7467c0,0 9807,5662 9807,5662z"/>
     </g>
     <path class="fil25" d="M57952 39992c24,-249 -88,-488 -304,-613 -279,-161 -489,13 -489,337 -1,249 130,476 331,593 252,145 434,0 462,-317zm1206 535c1,23 2,46 2,68 -2,480 -166,707 -377,758 -127,31 -272,-1 -409,-80 -150,-87 -265,-200 -348,-326 -62,-96 -105,-198 -130,-303 -139,123 -332,147 -551,30 -7,-4 -15,-9 -23,-13 -250,-144 -448,-396 -556,-684 -37,-100 -64,-205 -79,-310 -8,-62 -12,-124 -12,-186 2,-608 420,-870 869,-611 252,145 418,384 511,615l47 -230 464 307c-130,686 -201,971 -202,1131 0,42 6,83 18,122 4,15 10,31 16,46 29,67 74,126 133,169 13,11 27,20 42,29 198,114 399,3 421,-471 2,-28 2,-57 3,-87 2,-760 -542,-1683 -1284,-2112 -744,-429 -1360,-136 -1451,626 -8,63 -12,129 -12,199 -1,260 54,537 153,807 218,596 650,1161 1168,1461 318,183 566,237 829,207l77 182c-278,44 -565,-19 -913,-220 -569,-329 -1049,-955 -1296,-1614 -114,-305 -178,-618 -177,-911 0,-117 10,-226 30,-327 146,-762 814,-1037 1600,-583 801,463 1407,1494 1437,2311z"/>
     <path class="fil38" d="M23312 37099l-5677 -3278c-422,251 -515,822 -194,1194l194 224 5677 3277 0 -1417z"/>
     <g>
      <path class="fil12" d="M16141 38425c-981,-566 -1784,-1957 -1784,-3091 0,-1133 802,-1597 1783,-1031 981,567 1784,1958 1784,3091 1,1134 -801,1598 -1783,1031zm163 -5411c-786,-454 -1501,-500 -2024,-211l0 -1 -22 13c-1,0 -2,0 -2,1l-696 394 126 207c-180,332 -281,760 -281,1273 0,181 13,366 37,554 0,0 0,0 0,1 27,1278 1507,4776 2331,6629l-178 1593 717 -406c0,0 1691,-2136 2514,-3592 73,-106 137,-224 190,-354 0,-1 1,-3 2,-5 15,-30 26,-61 34,-93 99,-278 152,-606 152,-978 -1,-1843 -1306,-4104 -2900,-5025z"/>
      <path class="fil69" d="M12688 35096c0,181 13,367 37,554l0 0c0,1 0,1 0,1l0 0c37,1773 2870,7816 2870,7816l0 0c0,0 1691,-2136 2514,-3591l0 0c73,-106 136,-224 189,-354l0 0c1,-2 2,-4 3,-5l0 0c15,-30 25,-61 34,-93l0 0c98,-279 152,-606 152,-979l0 0c-1,-1842 -1306,-4104 -2901,-5025l0 0c-461,-266 -899,-393 -1287,-393l0 0c-953,0 -1611,760 -1611,2069zm2736 3736c-981,-567 -1784,-1958 -1784,-3091l0 0c0,-1134 802,-1598 1783,-1031l0 0c980,566 1783,1957 1784,3091l0 0c1,805 -404,1273 -991,1273l0 0c-239,0 -508,-78 -792,-242l0 0z"/>
     </g>
     <g>
      <path class="fil9" d="M49831 21373l1 0 1 0c9,0 16,-1 25,-1l0 0c25,0 49,-1 74,-3l0 0c7,-1 15,-1 22,-1l0 0c6,-1 11,-2 16,-3l0 0c38,-4 75,-9 111,-16l0 0c3,0 6,-1 9,-1l0 0c0,0 1,0 1,-1l0 0c52,-10 101,-24 150,-41l0 0c4,-1 9,-2 13,-3l0 0c3,-2 7,-3 10,-4l0 0c21,-8 42,-17 62,-26l0 0c10,-4 20,-8 30,-13l0 0c30,-14 59,-29 88,-45l0 0 914 -531c-29,16 -58,32 -88,46l0 0c-10,4 -20,8 -30,12l0 0c-20,9 -41,18 -63,26l0 0c-7,3 -15,5 -23,7l0 0c-48,17 -98,31 -149,42l0 0c-4,0 -7,1 -11,1l0 0c-36,7 -73,12 -110,16l0 0c-13,2 -26,3 -39,4l0 0c-24,2 -49,3 -74,3l0 0c-14,0 -28,1 -42,1l0 0c-20,0 -40,-1 -60,-2l0 0c-16,-1 -32,-1 -49,-3l0 0c-16,-1 -33,-3 -50,-5l0 0c-19,-2 -37,-4 -56,-7l0 0c-16,-2 -32,-5 -48,-8l0 0c-20,-3 -40,-7 -60,-11l0 0c-14,-3 -27,-6 -41,-9l0 0c-22,-5 -44,-10 -66,-16l0 0c-13,-4 -27,-8 -41,-12l0 0c-24,-7 -48,-14 -72,-22l0 0c-11,-4 -22,-7 -34,-11l0 0c-35,-12 -71,-25 -107,-40l0 0c0,0 0,0 0,0l0 0c-36,-14 -72,-30 -108,-46l0 0c-11,-5 -22,-11 -34,-16l0 0c-25,-12 -51,-25 -77,-38l0 0c-13,-6 -25,-13 -38,-20l0 0c-34,-18 -69,-36 -103,-56l0 0c-80,-46 -158,-96 -235,-150l0 0c-5,-3 -10,-6 -14,-10l0 0c-72,-50 -143,-104 -213,-160l0 0c-8,-6 -16,-13 -24,-19l0 0c-68,-56 -134,-114 -200,-175l0 0c-7,-7 -15,-14 -23,-22l0 0c-66,-62 -131,-127 -195,-194l0 0c-5,-6 -11,-11 -16,-17l0 0c-68,-73 -134,-148 -199,-225l0 0c0,-1 -1,-2 -1,-2l0 0c-66,-80 -130,-162 -192,-246l0 0c-1,0 -1,-1 -2,-1l0 0c-56,-77 -110,-155 -162,-235l0 0c-33,-49 -63,-99 -95,-150l0 0c-26,-42 -53,-84 -78,-128l0 0c-12,-20 -23,-41 -34,-61l0 0c-41,-72 -81,-145 -119,-219l0 0c-4,-8 -8,-16 -12,-24l0 0c-46,-90 -88,-180 -129,-272l0 0c-2,-5 -4,-10 -6,-14l0 0c-39,-90 -75,-180 -109,-271l0 0c-2,-6 -4,-12 -7,-18l0 0c-34,-93 -65,-186 -93,-280l0 0c-2,-5 -4,-11 -5,-17l0 0c-27,-89 -51,-179 -72,-269l0 0c-2,-9 -4,-17 -6,-26l0 0c-21,-93 -40,-185 -54,-277l0 0c-1,-1 -1,-3 -1,-4l0 0c-15,-93 -26,-185 -33,-277l0 0c-1,-7 -2,-15 -2,-22l0 0c-7,-91 -11,-182 -11,-272l0 0c0,-89 5,-174 12,-257l0 0c1,-8 2,-15 3,-23l0 0c7,-76 18,-149 31,-219l0 0c2,-9 4,-19 6,-28l0 0c14,-68 31,-133 51,-195l0 0c3,-12 7,-23 11,-35l0 0c20,-58 41,-114 66,-168l0 0c2,-5 5,-12 7,-18l0 0c29,-61 60,-118 95,-171l0 0c4,-7 9,-13 14,-20l0 0c29,-43 59,-83 91,-121l0 0c12,-13 24,-26 37,-39l0 0c28,-31 57,-59 88,-86l0 0c12,-11 25,-22 38,-33l0 0c43,-34 88,-66 136,-94l0 0 -914 531c-47,27 -92,60 -136,94l0 0c-13,11 -25,22 -38,33l0 0c-30,27 -60,55 -88,85l0 0c-12,14 -24,26 -36,40l0 0c-32,38 -63,78 -91,121l0 0c-5,7 -10,13 -15,20l0 0c-1,1 -2,3 -3,4l0 0c-32,51 -62,104 -89,161l0 0c-1,2 -1,4 -2,6l0 0c-3,6 -5,12 -8,18l0 0c-16,36 -32,72 -46,110l0 0c-7,19 -13,39 -19,58l0 0c-4,12 -8,23 -12,35l0 0c-3,10 -7,20 -10,31l0 0c-12,39 -22,79 -32,120l0 0c-3,14 -5,29 -8,44l0 0c-2,9 -4,19 -6,28l0 0c-3,14 -6,28 -9,43l0 0c-6,36 -12,74 -16,112l0 0c-3,21 -5,43 -7,64l0 0c-1,8 -2,15 -2,23l0 0c-1,9 -2,17 -3,26l0 0c-3,36 -5,73 -7,111l0 0c-2,37 -2,75 -3,114l0 0c0,2 0,4 0,6l0 0c0,35 1,71 2,106l0 0c1,38 3,76 5,114l0 0c1,17 3,35 4,52l0 0c1,7 1,15 2,23l0 0c1,13 2,26 3,39l0 0c4,38 8,77 13,116l0 0c5,39 11,78 17,117l0 0c0,2 0,3 0,4l0 0c1,1 1,3 1,4l0 0c6,37 12,74 19,111l0 0c8,41 16,82 25,123l0 0c3,14 7,29 10,43l0 0c2,9 4,17 6,26l0 0c5,18 9,36 13,54l0 0c10,41 21,83 33,125l0 0c8,30 17,60 26,90l0 0c2,6 3,11 5,17l0 0c2,6 3,11 5,16l0 0c12,41 25,82 39,122l0 0c13,40 27,80 42,120l0 0c2,7 5,14 8,22l0 0c2,6 4,12 7,18l0 0c9,25 18,50 28,75l0 0c15,38 30,76 46,114l0 0c11,27 23,55 35,82l0 0c2,4 4,9 6,14l0 0c2,5 4,11 7,16l0 0c16,38 34,76 51,113l0 0c20,42 40,83 60,124l0 0c3,7 7,13 10,19l0 0c4,8 8,16 13,24l0 0c16,33 33,66 50,98l0 0c22,41 45,81 68,121l0 0c11,20 22,41 34,61l0 0c5,8 9,17 14,25l0 0c21,35 43,68 65,103l0 0c31,51 61,101 94,150l0 0c5,8 10,16 15,24l0 0c48,72 98,143 149,212l0 0c0,0 0,0 0,0l0 0c0,0 0,0 0,0l0 0c34,47 69,92 105,137l0 0c28,37 57,73 87,108l0 0c0,1 1,2 2,3l0 0c0,0 1,1 1,1l0 0c30,36 60,72 91,107l0 0c30,34 60,68 91,101l0 0c5,5 10,11 15,16l0 0c6,6 11,11 16,16l0 0c22,23 43,46 65,69l0 0c33,33 66,66 99,98l0 0c11,9 21,19 31,29l0 0c8,7 16,14 24,21l0 0c16,15 32,31 49,46l0 0c34,31 69,61 104,91l0 0c15,13 31,25 46,38l0 0c8,6 16,12 24,19l0 0c11,9 23,19 35,28l0 0c34,27 68,53 103,79l0 0c25,18 50,36 75,53l0 0c5,4 9,7 14,10l0 0c4,3 9,7 13,9l0 0c33,23 66,45 100,66l0 0c33,21 66,42 99,61l0 0c8,5 16,9 23,14l0 0c25,14 50,28 75,42l0 0c10,5 19,9 28,14l0 0c13,7 26,14 39,20l0 0c10,5 20,11 29,15l0 0c16,8 32,15 47,23l0 0c12,5 23,11 35,16l0 0c4,2 9,4 14,6l0 0c31,14 62,27 93,40l0 0c0,0 0,0 1,0l0 0c32,13 63,25 95,36l0 0c4,1 8,2 12,4l0 0c11,4 22,7 34,11l0 0c16,5 32,11 48,16l0 0c8,2 16,4 23,6l0 0c14,4 28,8 42,12l0 0c11,3 21,6 32,9l0 0c11,2 22,4 33,7l0 0c14,3 28,6 41,9l0 0c8,2 15,4 22,5l0 0c13,2 26,4 39,6l0 0c16,3 32,6 47,8l0 0c6,1 12,2 17,3l0 0c13,2 26,3 39,4l0 0c17,2 34,4 51,5l0 0c5,0 10,1 15,2l0 0c11,1 22,0 34,1l0 0c20,1 40,2 59,2l0 0c6,0 11,0 16,0zm-1802 -6417l0 0 0 0c0,0 0,0 0,0l0 0z"/>
      <path class="fil9" d="M53647 20114l0 0 0 -1 0 0 0 0 0 -1 0 0 0 0 0 -1 0 0 0 0 0 -1 0 0 0 0 0 -1 0 0 0 0 0 -1 0 0 0 0 0 -1 0 0 0 -1 0 0 0 0 0 -1 0 0 0 0 0 -1 0 0 0 0 0 -1 0 0 -1604 -926 -914 531 1604 926c0,73 -2,144 -5,215l0 0c-1,20 -3,39 -4,58l0 0c-3,49 -6,97 -10,144l0 0c-3,27 -6,54 -9,81l0 0c-4,40 -9,80 -14,119l0 0c-4,28 -8,56 -13,84l0 0c-6,36 -12,72 -19,107l0 0c-5,32 -12,63 -18,94l0 0c-7,32 -15,63 -22,94l0 0c-9,36 -18,71 -28,106l0 0c-7,28 -16,55 -24,83l0 0c-13,41 -26,81 -40,121l0 0c-8,23 -16,47 -25,69l0 0c-26,70 -54,137 -85,201l0 0c-24,51 -49,100 -75,147l0 0c-7,13 -14,24 -22,37l0 0c-19,33 -39,66 -59,98l0 0c-41,63 -84,123 -129,180l0 0c-11,13 -21,26 -33,39l0 0c-42,52 -87,102 -134,148l0 0c-5,5 -10,11 -15,15l0 0c-51,50 -104,96 -160,139l0 0c-13,10 -26,20 -40,30l0 0c-57,42 -115,82 -176,118l914 -532c61,-35 119,-75 176,-117l0 0c13,-10 27,-20 40,-30l0 0c55,-43 109,-89 160,-139l0 0c5,-4 10,-10 15,-15l0 0c46,-46 91,-96 134,-148l0 0c11,-13 22,-26 32,-39l0 0c46,-57 89,-117 130,-180l0 0c1,-3 4,-5 5,-8l0 0c19,-29 36,-60 54,-90l0 0c7,-13 15,-24 22,-37l0 0c26,-46 50,-94 74,-144l0 0c0,-1 0,-2 1,-3l0 0c30,-64 58,-131 85,-200l0 0c2,-8 6,-14 8,-21l0 0c6,-16 11,-33 16,-49l0 0c14,-39 28,-80 41,-121l0 0c4,-13 8,-24 12,-37l0 0c4,-15 8,-31 12,-46l0 0c10,-35 19,-70 28,-106l0 0c3,-16 8,-32 12,-48l0 0c4,-15 6,-31 9,-46l0 0c7,-31 13,-62 19,-94l0 0c3,-17 8,-35 11,-52l0 0c3,-18 5,-37 8,-55l0 0c4,-28 8,-56 12,-84l0 0c3,-16 5,-31 7,-48l0 0c3,-23 5,-47 8,-71l0 0c3,-27 6,-54 8,-81l0 0c1,-12 3,-23 4,-35l0 0c3,-36 5,-72 7,-108l0 0c1,-20 2,-39 3,-59l0 0c1,-6 1,-11 1,-16l0 0c3,-62 4,-124 5,-188z"/>
      <path class="fil9" d="M47938 12741l-2 0 -3 0c-14,0 -27,2 -41,2l0 0c-43,1 -85,3 -127,6l0 0c-11,1 -23,1 -35,2l0 0c-10,0 -19,3 -29,4l0 0c-60,6 -120,15 -178,26l0 0c-8,1 -15,1 -22,3l0 0c-3,0 -5,1 -7,2l0 0c-17,3 -32,7 -48,11l0 0c-34,8 -68,16 -102,25l0 0c-19,5 -37,12 -56,18l0 0c-22,7 -45,13 -66,21l0 0c-7,2 -12,5 -19,7l0 0c-36,13 -70,28 -105,43l0 0c-17,8 -34,14 -51,22l0 0c-51,24 -101,49 -149,77l0 0 -914 531c49,-28 98,-53 149,-77l0 0c17,-8 34,-15 51,-22l0 0c35,-15 70,-30 106,-43l0 0c27,-10 56,-19 84,-28l0 0c19,-6 38,-13 57,-18l0 0c33,-9 67,-17 101,-25l0 0c16,-4 32,-8 48,-12l0 0c10,-2 19,-3 29,-4l0 0c58,-12 118,-20 179,-26l0 0c21,-3 42,-5 64,-6l0 0c41,-3 84,-5 126,-6l0 0c23,-1 46,-2 69,-1l0 0c34,0 69,1 104,3l0 0c26,1 52,2 79,4l0 0c27,2 56,5 84,8l0 0c31,4 62,7 94,12l0 0c26,3 52,8 79,13l0 0c34,5 67,11 102,18l0 0c22,5 45,10 68,15l0 0c36,9 73,17 110,27l0 0c23,6 46,13 69,19l0 0c39,12 78,24 118,36l0 0c20,7 39,13 59,20l0 0c52,18 104,37 156,57l0 0c8,3 15,6 23,9l0 0c60,24 120,50 180,77l0 0c18,8 36,17 53,25l0 0c44,21 88,42 132,65l0 0c21,10 42,21 63,32l0 0c57,30 114,61 172,94l0 0c37,22 74,45 112,68l0 0c25,15 49,30 74,45l0 0c31,19 61,40 92,60l0 0c26,17 52,34 78,51l0 0c29,20 57,41 86,61l0 0c28,20 56,39 84,60l0 0c52,38 105,77 157,118l0 0 -282 1656 913 -531 283 -1656c-48,-37 -97,-74 -145,-110l0 0c-5,-3 -8,-5 -12,-8l0 0c-29,-21 -57,-40 -85,-60l0 0c-24,-17 -49,-35 -73,-52l0 0c-4,-3 -8,-5 -13,-8l0 0c-26,-18 -52,-35 -78,-52l0 0c-25,-17 -51,-34 -76,-50l0 0c-5,-3 -10,-7 -15,-10l0 0c-25,-15 -50,-30 -75,-45l0 0c-24,-15 -49,-31 -74,-46l0 0c-13,-7 -25,-14 -38,-22l0 0c-41,-24 -82,-47 -123,-69l0 0c-16,-8 -32,-16 -49,-25l0 0c-21,-11 -41,-22 -62,-32l0 0c-16,-8 -32,-17 -48,-25l0 0c-28,-14 -56,-26 -84,-40l0 0c-18,-8 -36,-17 -53,-25l0 0c-7,-3 -14,-6 -20,-9l0 0c-53,-24 -105,-46 -156,-66l0 0c-2,-1 -3,-1 -4,-2l0 0c-8,-3 -16,-5 -23,-9l0 0c-44,-17 -88,-34 -131,-49l0 0c-9,-3 -17,-5 -25,-8l0 0c-20,-7 -40,-13 -60,-19l0 0c-24,-8 -48,-17 -72,-24l0 0c-15,-5 -30,-8 -45,-13l0 0c-23,-6 -47,-13 -69,-18l0 0c-16,-5 -33,-10 -48,-14l0 0c-21,-5 -42,-9 -63,-14l0 0c-22,-5 -45,-10 -68,-15l0 0c-10,-2 -21,-5 -31,-7l0 0c-24,-4 -47,-7 -71,-11l0 0c-26,-5 -52,-10 -78,-13l0 0c-8,-1 -16,-3 -24,-4l0 0c-24,-3 -47,-5 -71,-7l0 0c-28,-3 -56,-7 -84,-9l0 0c-6,0 -13,-2 -20,-2l0 0c-20,-1 -39,-1 -59,-2l0 0c-35,-2 -70,-3 -104,-3l0 0c-7,0 -15,-1 -22,-1z"/>
      <path class="fil70" d="M52150 17907c7,18 14,35 21,53 40,98 78,197 113,296 5,12 9,24 13,37 32,92 63,183 92,275 6,17 11,33 16,49 30,97 58,194 84,291 6,22 12,43 17,65 25,94 48,187 68,280 2,6 3,12 5,18 21,98 40,195 57,291 3,21 7,42 10,63 17,99 32,197 44,295l913 -531c-1,-12 -3,-24 -4,-37 -9,-65 -18,-131 -29,-197 -3,-20 -7,-41 -10,-61 -3,-21 -7,-42 -11,-62 -4,-27 -9,-53 -13,-79 -13,-69 -27,-138 -42,-207 -1,-2 -1,-4 -2,-6 -1,-6 -3,-12 -4,-17 -14,-62 -28,-124 -43,-187 -8,-31 -17,-63 -25,-94 -6,-22 -11,-43 -17,-65 -5,-17 -9,-35 -14,-52 -19,-70 -40,-141 -61,-211 -3,-9 -6,-18 -9,-28 -5,-16 -11,-32 -16,-49 -14,-43 -27,-87 -42,-130 -16,-48 -33,-97 -50,-145 -5,-13 -9,-25 -13,-37 -3,-7 -5,-13 -7,-19 -24,-65 -48,-131 -73,-196 -11,-27 -22,-54 -33,-81 -7,-17 -14,-35 -21,-53 -8,-18 -15,-37 -23,-55 -26,-62 -52,-125 -80,-187 -7,-16 -14,-31 -21,-46 -8,-17 -15,-34 -23,-51 -14,-31 -28,-63 -43,-94 -31,-66 -63,-132 -95,-198 -2,-4 -4,-7 -6,-10 -37,-75 -75,-149 -114,-222 -9,-18 -19,-35 -29,-53 -30,-54 -60,-109 -91,-163 -20,-36 -40,-73 -60,-109 -11,-18 -22,-36 -33,-54 -25,-42 -50,-83 -76,-124 -36,-59 -72,-118 -109,-175 -27,-41 -53,-82 -80,-123 -18,-27 -35,-55 -53,-81 -17,-25 -35,-49 -52,-74 -39,-56 -79,-112 -119,-167 -18,-25 -35,-50 -53,-75 -22,-29 -44,-57 -66,-86 -20,-27 -41,-54 -61,-80 -13,-17 -25,-34 -39,-50 -49,-64 -100,-126 -151,-188 -2,-2 -4,-4 -6,-6 -6,-7 -11,-14 -17,-20 -42,-51 -85,-101 -128,-150 -21,-24 -43,-48 -65,-72 -16,-18 -32,-36 -49,-54 -13,-15 -26,-30 -40,-44 -53,-58 -107,-114 -161,-170 -7,-6 -13,-13 -20,-19l-913 531c75,75 148,153 221,233 16,18 32,36 48,54 66,72 130,146 194,222 5,6 11,13 16,20 67,79 132,161 197,244 20,26 40,53 60,79 41,54 80,108 119,162 41,55 80,111 119,167 35,51 71,103 105,154 27,41 54,83 81,124 37,58 73,116 109,174 25,42 51,83 75,125 32,54 63,109 94,163 30,54 61,108 91,163 49,91 97,182 143,274 50,101 97,201 143,303 8,16 16,33 24,51 43,96 84,192 123,288z"/>
      <path class="fil33" d="M48792 13807c229,133 458,288 683,463l-282 1656c-132,-102 -267,-196 -406,-276 -1298,-749 -2353,-147 -2358,1344 -4,1491 1045,3307 2342,4057 1299,749 2354,148 2358,-1343l1604 926c-7,2492 -1798,3513 -3967,2261 -2169,-1253 -3948,-4334 -3941,-6827 8,-2492 1798,-3513 3967,-2261z"/>
      <path class="fil33" d="M50188 14907c655,663 1233,1477 1672,2359 439,880 726,1797 830,2654l-1586 -636c-126,-1050 -707,-2190 -1487,-2980l571 -1397z"/>
      <polygon class="fil71" points="50389,13739 49475,14270 49193,15926 49952,15485 50188,14907 50190,14906 "/>
      <polygon class="fil71" points="52690,19920 51551,19463 51129,19708 52733,20634 53647,20103 53009,19735 "/>
     </g>
     <path class="fil72" d="M70443 36873c1233,40 2221,1052 2228,2305l20 0c10,-1253 999,-2265 2228,-2305 -1236,-40 -2228,-1062 -2228,-2322l-17 0c0,1260 -991,2282 -2231,2322z"/>
     <path class="fil73" d="M9435 38422c558,-18 1006,-476 1009,-1043l9 0c4,567 452,1025 1008,1043 -559,18 -1008,481 -1008,1051l-8 0c0,-570 -449,-1033 -1010,-1051z"/>
     <path class="fil74" d="M59174 10379c468,15 843,399 845,874l8 0c4,-475 379,-859 845,-874 -469,-16 -845,-403 -845,-881l-6 0c0,478 -376,865 -847,881z"/>
     <g>
      <path class="fil64" d="M14258 12261l0 -5c0,-326 -99,-565 -260,-688l0 0c-11,-9 -22,-19 -33,-27l0 0c-11,-10 -22,-19 -34,-28l0 0c-10,-10 -21,-19 -33,-28l0 0c-11,-9 -22,-19 -33,-27l0 0c-11,-10 -22,-19 -34,-28l0 0c-10,-10 -22,-19 -33,-28l0 0c-11,-9 -22,-19 -33,-27l0 0c-11,-10 -22,-19 -34,-28l0 0c-154,-141 -375,-163 -620,-34l0 0c-67,-147 -156,-264 -263,-347l0 0c-10,-10 -22,-19 -33,-28l0 0c-11,-10 -22,-19 -33,-28l0 0c-11,-9 -22,-19 -34,-28l0 0c-10,-9 -22,-18 -33,-27l0 0c-11,-10 -22,-19 -33,-28l0 0c-11,-9 -22,-19 -34,-27l0 0c-11,-10 -22,-19 -33,-28l0 0c-11,-10 -22,-19 -34,-28l0 0c-132,-117 -294,-180 -476,-180 -162,0 -340,50 -527,154l0 0c-620,348 -1143,1195 -1312,2049l0 0c-36,15 -73,33 -111,54l0 0c-541,303 -980,1138 -980,1865l0 0c0,34 2,67 4,100l0 0 32 -18c0,15 1,30 2,45l0 0 31 -18c1,16 1,31 2,46l0 0 32 -18c0,15 0,31 1,46l0 0 32 -18c1,15 1,30 2,45l0 0 31 -18c1,16 1,31 2,46l0 0 32 -18c0,15 0,31 1,46l0 0 32 -18c1,15 1,30 2,45l0 0 31 -18c1,15 1,31 2,46l0 0 32 -18c0,15 1,31 1,46l0 0 4775 -2676c2,-33 4,-66 4,-98z"/>
      <path class="fil65" d="M9479 15035c-1,-33 -3,-65 -3,-100 0,-727 438,-1562 980,-1865 37,-21 74,-39 111,-53 168,-855 692,-1702 1312,-2050 663,-371 1216,-47 1342,723 54,-44 110,-84 167,-116 481,-269 870,36 870,682 0,34 -2,69 -4,103l-4775 2676z"/>
     </g>
    </g>
    <g>
     <path class="fil75" d="M65495 9011c0,-1143 714,-2119 1719,-2506 1375,117 2454,1270 2454,2675 0,1142 -714,2118 -1720,2506 -1374,-118 -2453,-1271 -2453,-2675z"/>
     <path class="fil74" d="M65495 9011c0,1404 1079,2557 2453,2675 -299,115 -625,179 -965,179 -1483,0 -2685,-1202 -2685,-2685 0,-1483 1202,-2685 2685,-2685 78,0 155,3 231,10 -1005,387 -1719,1363 -1719,2506z"/>
    </g>
   </g>
  </g>
 </g>
</svg>
