<?xml version="1.0" encoding="UTF-8"?>
<!DOCTYPE svg PUBLIC "-//W3C//DTD SVG 1.1//EN" "http://www.w3.org/Graphics/SVG/1.1/DTD/svg11.dtd">
<!-- Creator: CorelDRAW X7 -->
<svg xmlns="http://www.w3.org/2000/svg" xml:space="preserve" width="2.99496in" height="2.99496in" version="1.1" style="shape-rendering:geometricPrecision; text-rendering:geometricPrecision; image-rendering:optimizeQuality; fill-rule:evenodd; clip-rule:evenodd"
viewBox="0 0 29950 29950"
 xmlns:xlink="http://www.w3.org/1999/xlink">
 <defs>
  <style type="text/css">
   <![CDATA[
    .fil1 {fill:white}
    .fil0 {fill:#9F9CCB;fill-rule:nonzero}
   ]]>
  </style>
 </defs>
 <g id="Layer_x0020_1">
  <metadata id="CorelCorpID_0Corel-Layer"/>
  <g id="_2902029471552">
   <path class="fil0" d="M29950 14997c0,-8264 -6734,-14997 -14997,-14997 -8263,0 -14953,6733 -14953,14997 0,8263 6690,14953 14953,14953 8263,0 14997,-6690 14997,-14953z"/>
   <path class="fil1" d="M17773 19210l0 2824 -11294 0 0 -2824 11294 0zm-11294 -8470l0 -2824c5647,0 11294,0 16991,0l-2873 2824c-4706,0 -9412,0 -14118,0zm16991 2823c0,2824 0,5647 0,8471l-2874 0 0 -5647 -14117 0 0 -2824c5647,0 11294,0 16991,0l0 0z"/>
  </g>
 </g>
</svg>
