<?xml version="1.0" encoding="UTF-8"?>
<!DOCTYPE svg PUBLIC "-//W3C//DTD SVG 1.1//EN" "http://www.w3.org/Graphics/SVG/1.1/DTD/svg11.dtd">
<!-- Creator: CorelDRAW X7 -->
<svg xmlns="http://www.w3.org/2000/svg" xml:space="preserve" width="18.3716in" height="9.07098in" version="1.1" style="shape-rendering:geometricPrecision; text-rendering:geometricPrecision; image-rendering:optimizeQuality; fill-rule:evenodd; clip-rule:evenodd"
viewBox="0 0 183716 90710"
 xmlns:xlink="http://www.w3.org/1999/xlink">
 <defs>
  <style type="text/css">
   <![CDATA[
    .fil30 {fill:#FFC632}
    .fil25 {fill:#FAAB30}
    .fil26 {fill:#F79333}
    .fil23 {fill:#2F2718}
    .fil15 {fill:#6168A8}
    .fil33 {fill:#657AA9}
    .fil34 {fill:#7C94CA}
    .fil35 {fill:#95A9D4}
    .fil20 {fill:#A38755}
    .fil36 {fill:#B8C5E2}
    .fil31 {fill:#BB9B61}
    .fil24 {fill:#D2AE6D}
    .fil37 {fill:#D6BB8A}
    .fil27 {fill:#DCBB79}
    .fil8 {fill:#E7D3AD}
    .fil1 {fill:#E9D1A9}
    .fil9 {fill:#ECD6B2}
    .fil28 {fill:#EDD7B2}
    .fil2 {fill:#EDDFC4}
    .fil29 {fill:#F2E2C7}
    .fil21 {fill:#F5EEE0}
    .fil0 {fill:#F6EFE2}
    .fil22 {fill:#4A458F;fill-rule:nonzero}
    .fil12 {fill:#576074;fill-rule:nonzero}
    .fil19 {fill:#5D4D30;fill-rule:nonzero}
    .fil11 {fill:#657AA9;fill-rule:nonzero}
    .fil14 {fill:#6C87C3;fill-rule:nonzero}
    .fil10 {fill:#899FCF;fill-rule:nonzero}
    .fil13 {fill:#AABADC;fill-rule:nonzero}
    .fil32 {fill:#B0BEDF;fill-rule:nonzero}
    .fil6 {fill:#BB9B61;fill-rule:nonzero}
    .fil40 {fill:#C19C00;fill-rule:nonzero}
    .fil7 {fill:#D2AE6D;fill-rule:nonzero}
    .fil38 {fill:#D6BB8A;fill-rule:nonzero}
    .fil18 {fill:#D7B77D;fill-rule:nonzero}
    .fil4 {fill:#DFC596;fill-rule:nonzero}
    .fil3 {fill:#EDDFC4;fill-rule:nonzero}
    .fil39 {fill:#EFE3CC;fill-rule:nonzero}
    .fil17 {fill:#F5EEE0;fill-rule:nonzero}
    .fil5 {fill:#F6EFE2;fill-rule:nonzero}
    .fil16 {fill:white;fill-rule:nonzero}
   ]]>
  </style>
 </defs>
 <g id="Layer_x0020_1">
  <metadata id="CorelCorpID_0Corel-Layer"/>
  <g id="_2313595264160">
   <g>
    <path class="fil0" d="M183716 46559c0,-11687 -9474,-21161 -21161,-21161 -11687,0 -21161,9474 -21161,21161 0,11687 9474,21161 21161,21161 11687,0 21161,-9474 21161,-21161z"/>
    <path class="fil1" d="M166546 52546l0 3996 -15970 0 0 -3996 15970 0zm-15970 -11979l0 -3991c7983,0 15970,0 23958,0l-3992 3991c-6658,0 -13312,0 -19966,0zm23958 15975l-3992 0 0 -7987 -19966 0 0 -3996 23958 0c0,3994 0,7989 0,11983z"/>
    <path class="fil2" d="M161638 67702l31 0c-9,0 -18,0 -31,0zm-20248 -21143c0,-11392 9003,-20682 20279,-21147l-31 0 -828 -18 -27 0c-11688,0 -21165,9477 -21165,21165 0,11688 9477,21161 21165,21161 286,0 573,-5 859,-18 -11263,-479 -20252,-9764 -20252,-21143l0 0z"/>
   </g>
   <path class="fil2" d="M45981 33108c3107,2917 8531,1325 11713,-645 3417,-2115 6062,-5682 6351,-9772 532,-7534 -8609,-7567 -13414,-5023 -4316,2285 -7138,6867 -6389,11812 28,182 61,362 99,540 247,1158 777,2278 1640,3088z"/>
   <g>
    <path class="fil3" d="M113455 81092c0,6790 -30088,8915 -35623,9249 -13811,833 -27779,242 -41355,-1642 -10317,-1432 -19355,-3789 -19355,-7607 0,-5263 21565,-9529 48167,-9529 26601,0 48166,4266 48166,9529z"/>
    <path class="fil4" d="M104880 81801c0,8913 -66634,8054 -66634,0 0,-3588 12348,-6497 31663,-6497 19314,0 34971,2909 34971,6497z"/>
    <path class="fil5" d="M20410 75187c-3282,-1601 -5561,-3979 -4482,-7390 445,-1407 1513,-2959 3555,-4412 1323,-1336 1989,-2673 1737,-5013 -410,-3815 -1732,-5522 -1974,-8551 -845,-10565 11672,-15452 20307,-13894 5551,1002 9373,3626 13541,3332 9789,-689 12992,-13972 18076,-20676 2186,-2883 4635,-5190 7425,-6909 6223,-3835 16181,-5002 24138,-2521 8587,2677 12493,8536 12449,15374 -59,9039 -6846,14165 -6565,22358 246,7145 6262,7433 5817,16501 -365,7444 -5613,11692 -12520,13015 -12907,2473 -69083,4846 -81504,-1214z"/>
    <path class="fil3" d="M27344 42684c8101,-5523 15738,-130 11349,5313 -2723,3376 -9410,5482 -13322,3483 -1410,-720 -2238,-2041 -1728,-4242 379,-1631 1820,-3272 3701,-4554z"/>
    <path class="fil6" d="M44657 81714c0,-689 785,-1247 1754,-1247 968,0 1753,558 1753,1247l-3507 0z"/>
    <path class="fil6" d="M83770 83512c0,-688 785,-1247 1754,-1247 968,0 1753,559 1753,1247l-3507 0z"/>
    <path class="fil7" d="M24002 81721c0,-609 695,-1104 1552,-1104 857,0 1552,495 1552,1104l-3104 0z"/>
    <path class="fil6" d="M33990 82273c0,-393 448,-711 1001,-711 552,0 999,318 999,711l-2000 0z"/>
    <path class="fil6" d="M89847 80012c0,-1010 1152,-1829 2573,-1829 1421,0 2573,819 2573,1829l-5146 0z"/>
    <path class="fil7" d="M57803 84364c0,-1010 1152,-1829 2573,-1829 1421,0 2573,819 2573,1829l-5146 0z"/>
    <path class="fil7" d="M71052 84095c0,-505 576,-915 1286,-915 711,0 1287,410 1287,915l-2573 0z"/>
    <path class="fil7" d="M99082 82128c0,-646 737,-1170 1646,-1170 909,0 1646,524 1646,1170l-3292 0z"/>
    <path class="fil7" d="M35678 82270c0,-782 893,-1417 1993,-1417 1101,0 1994,635 1994,1417l-3987 0z"/>
    <path class="fil6" d="M62207 84364c0,-505 576,-915 1286,-915 711,0 1287,410 1287,915l-2573 0z"/>
    <path class="fil5" d="M107737 25081c245,1774 1165,2550 2039,2374 1489,-299 1794,-2276 1708,-4123 -124,-2636 -1013,-5343 -2938,-7224 -1690,-1650 -4440,-1173 -4182,965 176,1469 1654,2673 2401,3958 670,1153 691,2012 972,4050z"/>
    <path class="fil8" d="M113129 43121c1215,40 2189,1036 2195,2271l20 0c10,-1235 983,-2231 2195,-2271 -1218,-39 -2195,-1046 -2195,-2287l-17 0c0,1241 -976,2248 -2198,2287z"/>
    <path class="fil9" d="M12068 76606c943,30 1699,804 1704,1763l15 0c8,-959 764,-1733 1705,-1763 -946,-31 -1705,-813 -1705,-1776l-12 0c0,963 -759,1745 -1707,1776z"/>
    <g>
     <path class="fil3" d="M0 9551c573,-255 1155,-490 1745,-704 6923,-2510 14893,-2225 21084,-6216 1187,-766 2265,-1663 3287,-2631l28421 0c-7186,831 -13671,1294 -16843,5680 -1655,2288 -1822,4495 -1982,6700 -561,7716 -3476,9373 -10976,10504 -2005,303 -3817,519 -5652,1184 -8154,2959 -10357,7951 -10446,13675 -249,16019 8483,25082 -8638,39517l0 -67709z"/>
     <path class="fil5" d="M34379 0c-4135,2694 -5762,6117 -8342,10181 -5853,9220 -15395,12793 -26037,10167l0 -20348 34379 0z"/>
    </g>
    <g>
     <polygon class="fil10" points="104296,44996 79918,44996 84744,49822 67253,67314 80347,80408 97839,62917 104296,69374 "/>
     <polygon class="fil11" points="78950,78999 78249,78298 97839,58708 101320,62189 101320,47972 87103,47972 88953,49822 69363,69413 68662,68711 87551,49822 84708,46980 102312,46980 102312,64584 97839,60111 "/>
     <polygon class="fil12" points="71122,49819 84217,62913 80347,80409 67252,67314 "/>
     <polygon class="fil11" points="66722,80409 53628,67314 71123,49819 84218,62913 "/>
     <polygon class="fil10" points="55740,69427 55039,68725 72535,51229 73236,51931 "/>
     <polygon class="fil10" points="65327,79014 64626,78312 82122,60816 82823,61518 "/>
     <polygon class="fil12" points="60120,49819 73215,62913 66722,80409 53628,67314 "/>
     <polygon class="fil10" points="50902,85226 37808,72131 60120,49819 73215,62913 "/>
     <polygon class="fil11" points="50902,82420 40614,72131 61516,51230 62217,51931 42017,72131 50902,81017 71103,60817 71804,61518 "/>
     <path class="fil11" d="M41315 72131l2589 -2578c682,684 1065,1612 1065,2578 0,985 -398,1929 -1103,2616l-2551 -2616z"/>
     <path class="fil11" d="M50905 81721l-2608 -2558c687,-701 1627,-1095 2608,-1095 981,0 1922,395 2609,1095l-2609 2558z"/>
     <path class="fil13" d="M60987 68181c-1694,1694 -4440,1694 -6134,0 -1694,-1694 -1694,-4441 0,-6134 1694,-1694 4440,-1694 6134,0 1694,1693 1694,4440 0,6134z"/>
    </g>
    <g>
     <path class="fil14" d="M93535 33697c0,0 3357,3016 3698,4115 342,1099 -1998,6346 -1998,6346l1464 838 -2729 0c0,0 665,-4201 1148,-5678 -934,-488 -3285,-2549 -3285,-2549l-1424 4682 -242 5251 -2156 968 1143 -1568c0,0 -676,-3813 -965,-4902 -289,-1089 210,-5214 346,-6527 137,-1312 4102,-1406 5000,-976z"/>
     <path class="fil15" d="M88535 34673c-117,1132 -504,4352 -424,5917 130,-2806 2571,-6084 2571,-6084 -427,88 -1300,-54 -1996,-191 -84,108 -137,227 -151,358z"/>
     <path class="fil15" d="M95591 39014l-3758 -2245c0,0 2351,2060 3285,2548 -406,1243 -940,4408 -1101,5386 545,8 1118,15 1362,12 292,-3 394,-144 330,-285l-474 -272c-601,-98 -827,-530 -827,-530l1183 -4614z"/>
     <path class="fil16" d="M93054 23564c-23,156 -509,4240 -509,4240 0,0 905,321 1206,-200 300,-521 1,-4170 1,-4170l-698 130z"/>
     <path class="fil17" d="M93794 24009c-24,-349 -42,-576 -42,-576l-698 131c-10,66 -102,834 -205,1698l320 -656 625 -597z"/>
     <path class="fil16" d="M90060 26526l626 1223c0,0 11,612 -650,700 -661,89 -816,-281 -816,-281l-65 -1528c0,0 603,-245 905,-114z"/>
     <path class="fil18" d="M90094 27593c513,-165 1132,-282 1848,-275 1268,-95 2416,-281 2416,-281 0,0 609,826 569,1843 0,0 -1169,914 -2375,1102 -73,584 439,3128 983,3715 -291,591 -3194,1582 -5000,976 -356,-532 -338,-2978 -283,-4608 38,-1127 767,-2128 1842,-2472z"/>
     <path class="fil17" d="M89156 26640l45 1082c585,-119 1011,-899 1011,-899l0 0 -152 -297c-301,-130 -904,114 -904,114z"/>
     <path class="fil19" d="M95235 44158c0,0 -813,78 -1131,25 -84,493 -134,813 -134,813l2729 0 -1464 -838z"/>
     <path class="fil19" d="M90209 45793c-363,269 -1055,309 -1055,309l-1143 1568 2156 -968 42 -909z"/>
     <polygon class="fil15" points="90409,41451 91833,36769 90008,40927 90221,45515 "/>
     <path class="fil20" d="M92552 29982l-1500 109c0,0 1094,3128 2483,3606 -544,-587 -1056,-3131 -983,-3715z"/>
     <path class="fil21" d="M89156 26640l45 1082c585,-119 1011,-898 1011,-898l-152 -298c-301,-130 -904,114 -904,114z"/>
     <path class="fil21" d="M93752 23433l-698 131c-10,66 -102,834 -206,1698l321 -656 625 -597c-23,-349 -42,-576 -42,-576z"/>
     <path class="fil22" d="M90333 41488c-19,-3 -32,-19 -31,-38 0,0 2,-54 8,-151 1,-21 19,-37 40,-36 23,2 37,19 36,41 -6,95 -8,149 -8,149 -2,21 -19,37 -40,36 -2,0 -3,0 -5,-1zm4065 2599l-1 0c-21,-5 -33,-25 -29,-46l33 -146c4,-21 23,-30 45,-29 21,4 33,25 29,45l-33 147c-4,20 -24,32 -44,29zm-2194 -7786c-3,0 -6,-1 -9,-3 -103,-46 -196,-81 -275,-101 -20,-6 -32,-27 -27,-47 5,-20 25,-33 46,-27 84,22 180,58 288,106 18,9 27,31 18,50 -7,16 -24,25 -41,22zm526 288c-4,-1 -9,-3 -13,-5 -89,-56 -175,-106 -257,-152 -18,-10 -25,-33 -15,-51 10,-18 33,-26 52,-15 83,46 170,98 260,154 18,10 23,34 12,52 -8,13 -24,19 -39,17zm-1309 -182c-6,-1 -11,-4 -16,-7 -17,-13 -20,-36 -8,-53 56,-75 115,-140 174,-193 15,-13 31,-23 48,-31 19,-9 42,-1 51,18 9,19 0,41 -18,50 -12,6 -22,12 -30,20 -56,49 -111,110 -164,181 -9,12 -24,17 -37,15zm1807 517c-5,-1 -10,-3 -15,-6 -83,-60 -165,-117 -245,-172 -18,-11 -22,-35 -11,-52 12,-18 36,-22 53,-11 81,55 164,113 247,173 17,12 21,36 9,53 -9,12 -24,17 -38,15zm479 362c-6,-1 -12,-3 -17,-7 -79,-63 -158,-124 -236,-184 -17,-13 -20,-36 -8,-53 13,-17 36,-20 53,-7 79,60 159,121 238,184 16,13 19,37 6,53 -9,12 -23,16 -36,14zm-2576 -356c-3,0 -6,-1 -8,-2 -20,-9 -29,-31 -20,-50 42,-99 87,-191 131,-273 10,-19 33,-25 52,-15 18,10 25,33 15,51 -44,81 -87,170 -128,267 -8,16 -25,25 -42,22zm3038 740c-7,-1 -13,-4 -19,-8 -74,-66 -151,-130 -228,-195 -16,-13 -18,-37 -4,-53 13,-16 36,-18 53,-5 77,65 154,130 229,195 16,14 18,38 4,54 -9,10 -23,14 -35,12zm443 405c-7,-2 -14,-5 -19,-11 -71,-67 -144,-135 -219,-204 -16,-14 -17,-38 -3,-53 14,-16 38,-16 54,-3 75,69 149,138 220,206 15,14 15,38 1,54 -9,9 -22,13 -34,11zm-3683 -581c-2,0 -3,0 -5,-1 -20,-6 -31,-27 -25,-47 31,-101 62,-198 94,-286 7,-20 29,-30 48,-24 20,8 30,29 23,49 -31,88 -62,183 -92,283 -6,19 -25,30 -43,26zm4102 1010c-8,-2 -15,-6 -21,-12 -64,-71 -133,-144 -205,-218 -15,-15 -14,-38 1,-53 15,-15 39,-15 53,1 73,74 142,148 207,219 14,16 13,39 -3,54 -9,8 -21,11 -32,9zm-4255 -430l-2 -1c-21,-4 -33,-25 -29,-45 23,-99 47,-197 72,-292 6,-20 26,-33 47,-27 20,5 32,26 27,46 -26,95 -49,192 -72,290 -4,20 -24,32 -43,29zm4628 900c-10,-2 -20,-8 -26,-17 -47,-73 -105,-153 -174,-239 -14,-16 -11,-40 5,-53 17,-13 41,-11 54,6 70,87 131,170 179,245 12,17 7,41 -11,52 -8,6 -18,7 -27,6zm-4750 -313l0 0c-21,-4 -34,-23 -31,-44 18,-99 38,-197 58,-295 4,-21 23,-34 44,-30l1 0c20,4 34,25 29,45 -20,98 -39,195 -57,294 -4,20 -24,34 -44,30zm4730 887l-1 0c-21,-4 -34,-24 -30,-45 23,-113 42,-212 57,-294 4,-21 24,-34 44,-31l0 0c21,4 35,24 31,45 -15,82 -35,181 -57,295 -4,20 -24,34 -44,30zm-4828 -296c-20,-3 -34,-22 -31,-43 15,-98 30,-197 47,-296 3,-21 23,-35 44,-32 19,7 34,23 31,44 -17,99 -32,198 -47,296 -3,20 -22,35 -43,32l-1 -1zm4707 884l-1 0c-21,-5 -34,-25 -30,-45l61 -294c5,-20 24,-33 44,-30l1 0c21,5 34,25 30,45l-61 295c-5,19 -24,32 -44,29zm-4787 -290c-19,-3 -33,-21 -31,-41 12,-98 25,-197 38,-298 3,-21 22,-36 43,-33l1 1c21,3 34,22 32,42 -14,101 -27,200 -38,297 -3,21 -22,35 -43,33l-2 -1zm4662 877l-1 0c-21,-4 -34,-25 -29,-45l63 -294c4,-20 25,-35 44,-29 21,5 34,25 30,45l-63 294c-4,20 -24,33 -44,29zm-4726 -280c-19,-4 -33,-22 -31,-41 9,-96 19,-196 30,-299 3,-21 21,-36 42,-34 21,1 36,21 34,42 -12,103 -22,203 -31,298 -2,21 -20,36 -41,34 -1,0 -2,0 -3,0zm4600 867l-2 0c-20,-5 -33,-25 -29,-45l64 -294c4,-20 23,-32 43,-29l2 0c20,5 33,25 29,46l-64 293c-4,20 -23,33 -43,29zm-4651 -270c-19,-3 -33,-21 -31,-40 6,-89 14,-190 24,-299 1,-21 19,-37 40,-35 22,0 37,20 35,41 -9,109 -17,210 -23,298 -2,21 -20,37 -41,36 -2,-1 -3,-1 -4,-1zm4523 856l-2 0c-20,-4 -33,-24 -29,-45l64 -293c5,-21 21,-33 45,-29 21,5 34,25 30,45l-65 293c-4,20 -23,33 -43,29zm-129 587l-2 -1c-20,-4 -33,-25 -29,-45l65 -293c5,-20 24,-31 45,-29 21,5 34,25 29,45l-64 294c-5,19 -24,32 -44,29zm-130 586l-1 0c-21,-5 -34,-25 -29,-46l65 -292c4,-21 21,-31 45,-29 21,4 33,25 29,45l-65 293c-5,20 -24,32 -44,29zm-130 586l-2 0c-20,-5 -33,-25 -28,-45l65 -293c4,-21 24,-34 45,-29 20,4 33,24 29,45l-66 293c-4,20 -23,33 -43,29z"/>
     <path class="fil19" d="M91493 23943l5030 -3244c0,0 776,1055 677,1733l-5418 1907c0,0 -285,106 -289,-396z"/>
     <path class="fil23" d="M95505 21999c-266,152 -744,374 -699,648 41,255 -2521,1268 -3251,1594 86,147 227,98 227,98l5418 -1907c99,-678 -677,-1733 -677,-1733 0,0 163,1424 -286,1609 -364,-25 -466,-462 -732,-309z"/>
     <path class="fil16" d="M94358 27037l643 -207 186 -2831 -706 -610 437 -182c0,0 -154,-548 -120,-843 33,-296 214,-390 707,-259 265,116 564,990 386,1526 -177,536 214,3734 323,4243 108,509 -1287,1006 -1287,1006 0,0 -674,174 -981,-518 -306,-692 412,-1325 412,-1325z"/>
     <path class="fil16" d="M90032 24406c0,0 1083,1053 1023,1512 -60,459 -547,936 -1799,1222 -443,-15 -1074,-1259 -1094,-1533 -133,-1788 1368,-1447 1870,-1201z"/>
     <path class="fil19" d="M88922 25186c0,0 1628,-459 1694,-1315 65,-857 -1339,-1132 -1910,-801 -243,141 -349,352 -475,589 -140,267 -340,375 -594,549 -81,56 -164,113 -234,182 -493,486 82,1936 481,2329 549,541 1344,356 1271,-79 -72,-435 -668,-1299 -233,-1454z"/>
    </g>
    <g>
     <path class="fil24" d="M116619 80675c-283,859 -1465,1506 -2881,1506 -1414,0 -2596,-647 -2878,-1506 -42,-123 -64,-251 -66,-381l0 778c0,1052 1319,1905 2944,1905 1628,0 2945,-853 2945,-1905l0 -795c0,137 -21,270 -64,398z"/>
     <path class="fil25" d="M114468 80103c-148,-35 -286,-12 -421,40 47,28 95,57 142,85 83,-16 169,-16 258,6 102,25 357,115 397,265 128,-230 -246,-364 -376,-396z"/>
     <path class="fil25" d="M115047 80743c18,11 36,22 54,33 15,-20 30,-41 42,-63 41,-71 58,-140 54,-204 -6,25 -18,48 -33,73 -33,58 -74,111 -117,161z"/>
     <path class="fil26" d="M114447 80234c-89,-22 -175,-22 -258,-6 196,118 392,236 588,354 12,-14 27,-27 38,-40 12,-15 24,-30 29,-43 -40,-150 -295,-240 -397,-265z"/>
     <path class="fil25" d="M113727 80308c-343,192 -712,394 -1097,180 -226,-124 -398,-326 -393,-554 -90,278 102,536 371,686 386,213 755,11 1097,-181 224,134 451,271 676,407 46,-20 89,-43 132,-66 -263,-158 -525,-316 -786,-472z"/>
     <path class="fil27" d="M112216 79410l0 -25 212 -141 59 -40c78,47 153,91 229,138 113,-60 233,-110 349,-155l337 183 14 6c-3,4 -9,7 -14,11l0 104 0 22c-19,10 -46,22 -63,28 -58,22 -117,45 -177,68 191,115 378,230 568,343 316,-155 625,-238 995,-89 253,102 583,345 472,646 4,64 -13,133 -54,204 -12,22 -27,43 -42,63 48,30 98,60 148,90 0,0 2,2 4,3 1,0 3,0 3,2l-3 2 -9 126 0 10 -286 183c-58,-35 -116,-70 -172,-103 -155,108 -330,191 -504,261l-353 -189 0 -132 0 -10c32,-7 62,-22 85,-29 115,-39 244,-86 367,-144 -225,-136 -452,-273 -676,-407 -342,192 -711,394 -1097,181 -269,-150 -461,-408 -371,-686l0 -2c2,-88 30,-180 93,-273 9,-11 17,-23 25,-33 -34,-22 -71,-42 -106,-63 -22,-14 -23,-14 -33,-32l0 -121zm1522 2458c510,0 984,-99 1377,-272 655,-286 1085,-770 1085,-1319 0,-879 -1102,-1590 -2462,-1590 -551,0 -1060,118 -1471,316 -600,289 -989,753 -989,1274 0,878 1102,1591 2460,1591z"/>
     <path class="fil25" d="M112585 79993c23,-55 66,-108 126,-153 193,115 384,232 577,346 38,-16 78,-38 119,-62 2,-1 6,-3 9,-4 -228,-137 -456,-274 -683,-411 -108,80 -158,186 -148,284z"/>
     <path class="fil28" d="M114980 81060c-59,-35 -116,-70 -173,-103 -154,108 -329,191 -504,261l-239 -121 -135 -68 0 132 353 189c174,-70 349,-153 504,-261 56,33 114,68 172,103l286 -183 0 -10 9 -126 -108 74 -165 113z"/>
     <path class="fil26" d="M112585 79993c11,107 96,203 259,245 171,43 303,15 444,-52 -193,-114 -384,-231 -577,-346 -60,45 -103,98 -126,153z"/>
     <path class="fil29" d="M112267 79003c411,-198 920,-316 1471,-316 1360,0 2462,711 2462,1590 0,549 -430,1033 -1085,1319 -393,173 -867,272 -1377,272 -1358,0 -2460,-713 -2460,-1591 0,-521 389,-985 989,-1274zm1471 3178c1416,0 2598,-647 2881,-1506 43,-128 64,-261 64,-398 0,-1052 -1317,-1902 -2945,-1902 -1625,0 -2944,850 -2944,1902 0,6 0,12 0,17 2,130 24,258 66,381 282,859 1464,1506 2878,1506z"/>
     <path class="fil30" d="M114844 80499c-5,13 -17,28 -29,43 -11,13 -26,26 -38,40 -196,-118 -392,-236 -588,-354 -47,-28 -95,-57 -142,-85 135,-52 273,-75 421,-40 130,32 504,166 376,396zm-1437 -375c-41,24 -81,46 -119,62 -141,67 -273,95 -444,52 -163,-42 -248,-138 -259,-245 -10,-98 40,-204 148,-284 227,137 455,274 683,411 -3,1 -7,3 -9,4zm-1095 -667c43,25 85,51 128,76 -30,28 -58,60 -85,93 -8,10 -16,22 -25,33 -63,93 -91,185 -93,273l0 2c-5,228 167,430 393,554 385,214 754,12 1097,-180 261,156 523,314 786,472 -43,23 -86,46 -132,66 -123,58 -252,105 -367,144 -23,7 -53,22 -85,29l0 10 135 68 239 121c175,-70 350,-153 504,-261 57,33 114,68 173,103l165 -113 108 -74 3 -2c0,-2 -2,-2 -3,-2 -2,-1 -4,-3 -4,-3 -50,-30 -100,-60 -148,-90 -18,-11 -36,-22 -55,-33 44,-50 85,-103 118,-161 15,-25 27,-48 33,-73 111,-301 -219,-544 -472,-646 -370,-149 -679,-66 -995,89 -190,-113 -377,-228 -568,-343 -40,-25 -82,-48 -122,-73 84,-36 168,-68 249,-99 26,-9 49,-19 72,-27 16,-7 30,-13 41,-23 5,-4 11,-7 14,-11l-14 -6 -337 -183c-116,45 -236,95 -349,155 -76,-47 -151,-91 -229,-138l-59 40 -212 141 0 25c16,8 40,13 55,21 13,9 28,17 41,26z"/>
     <path class="fil25" d="M112249 79563c35,21 72,41 106,63 27,-33 55,-65 85,-93 -43,-25 -85,-51 -128,-76 -13,-9 -28,-17 -41,-26 -15,-8 -39,-13 -55,-21l0 121c10,18 11,18 33,32z"/>
     <path class="fil25" d="M113290 79437c-82,31 -166,63 -250,99 40,25 82,48 122,73 60,-23 119,-46 177,-68 17,-6 44,-18 63,-28l0 -22 0 -104c-11,10 -25,16 -41,23 -23,8 -46,18 -71,27z"/>
     <path class="fil31" d="M117724 78993c-282,859 -1464,1506 -2880,1506 -1415,0 -2597,-647 -2879,-1506 -41,-123 -63,-251 -65,-381l0 778c0,1052 1318,1905 2944,1905 1627,0 2945,-853 2945,-1905l0 -794c0,136 -22,269 -65,397z"/>
     <path class="fil28" d="M115573 78421c-148,-35 -286,-12 -420,40 46,28 95,56 141,85 83,-15 169,-15 257,6 104,25 358,115 398,265 128,-230 -246,-364 -376,-396z"/>
     <path class="fil28" d="M116151 79061c19,11 37,21 55,33 15,-20 30,-42 42,-63 42,-71 58,-140 55,-204 -7,24 -18,48 -33,73 -34,58 -75,111 -119,161z"/>
     <path class="fil27" d="M115551 78552c-88,-21 -174,-21 -257,-6 196,117 392,235 588,354 12,-13 27,-27 39,-40 11,-15 23,-30 28,-43 -40,-150 -294,-240 -398,-265z"/>
     <path class="fil28" d="M114832 78626c-342,192 -712,394 -1097,181 -226,-125 -397,-328 -392,-556 -90,280 101,537 370,687 386,213 755,11 1097,-181 225,134 451,271 677,407 45,-20 88,-43 131,-67 -262,-157 -525,-316 -786,-471z"/>
     <path class="fil27" d="M113321 77728l0 -25 213 -141 58 -41c78,48 153,92 230,139 113,-60 232,-110 348,-155l338 183 13 7c-3,3 -8,6 -13,10l0 105 0 21c-20,10 -47,22 -63,28 -59,22 -118,45 -178,68 191,115 379,230 568,343 316,-155 625,-238 996,-88 252,101 582,344 472,645 3,64 -13,133 -55,204 -12,21 -27,43 -42,63 49,30 99,60 148,90 1,0 2,2 4,3 2,0 3,0 3,2l-3 1 -8 127 0 10 -287 183c-57,-35 -116,-70 -172,-104 -155,109 -329,192 -504,261l-352 -189 0 -131 0 -10c31,-7 61,-22 84,-28 115,-40 245,-87 368,-145 -226,-136 -452,-273 -677,-407 -342,192 -711,394 -1097,181 -269,-150 -460,-407 -370,-687l0 -1c1,-88 29,-180 93,-273 8,-12 16,-23 25,-33 -35,-22 -72,-42 -107,-63 -21,-14 -23,-14 -33,-32l0 -121zm1523 2458c510,0 984,-99 1376,-273 654,-285 1085,-769 1085,-1317 0,-880 -1102,-1591 -2461,-1591 -552,0 -1061,118 -1472,315 -600,290 -988,754 -988,1276 0,877 1102,1590 2460,1590z"/>
     <path class="fil28" d="M113690 78311c23,-55 66,-108 126,-153 193,115 384,232 577,346 38,-16 78,-38 120,-62 2,-1 5,-3 8,-4 -227,-137 -455,-275 -683,-411 -108,80 -158,186 -148,284z"/>
     <path class="fil28" d="M116085 79378c-58,-35 -116,-69 -173,-103 -154,108 -329,191 -503,261l-240 -121 -134 -68 0 131 352 189c175,-69 349,-152 504,-261 56,34 115,69 172,104l287 -183 0 -10 8 -127 -108 75 -165 113z"/>
     <path class="fil27" d="M113690 78311c12,107 96,203 259,245 171,43 303,14 444,-52 -193,-114 -384,-231 -577,-346 -60,45 -103,98 -126,153z"/>
     <path class="fil28" d="M113372 77320c411,-197 920,-315 1472,-315 1359,0 2461,711 2461,1591 0,548 -431,1032 -1085,1317 -392,174 -866,273 -1376,273 -1358,0 -2460,-713 -2460,-1590 0,-522 388,-986 988,-1276zm1472 3179c1416,0 2598,-647 2880,-1506 43,-128 65,-261 65,-397 0,-1052 -1318,-1904 -2945,-1904 -1626,0 -2944,852 -2944,1904 0,4 0,11 0,16 2,130 23,258 65,381 282,859 1464,1506 2879,1506z"/>
     <path class="fil31" d="M115949 78817c-5,13 -17,28 -28,43 -12,13 -27,27 -39,40 -196,-119 -392,-237 -588,-354 -46,-29 -95,-57 -141,-85 134,-52 272,-75 420,-40 130,32 504,166 376,396zm-1436 -375c-42,24 -82,46 -120,62 -141,66 -273,95 -444,52 -163,-42 -247,-138 -259,-245 -10,-98 40,-204 148,-284 228,136 456,274 683,411 -3,1 -6,3 -8,4zm-1096 -668c44,25 85,52 128,77 -29,28 -58,59 -84,93 -9,10 -17,21 -25,33 -64,93 -92,185 -93,273l0 1c-5,228 166,431 392,556 385,213 755,11 1097,-181 261,155 524,314 786,471 -43,24 -86,47 -131,67 -123,58 -253,105 -368,145 -23,6 -53,21 -84,28l0 10 134 68 240 121c174,-70 349,-153 503,-261 57,34 115,68 173,103l165 -113 108 -75 3 -1c0,-2 -2,-2 -3,-2 -2,-1 -4,-3 -4,-3 -49,-30 -99,-60 -148,-90 -18,-12 -36,-22 -55,-33 44,-50 85,-103 119,-161 15,-25 26,-49 33,-73 110,-301 -220,-544 -472,-645 -371,-150 -680,-67 -996,88 -189,-113 -377,-228 -568,-343 -40,-25 -82,-48 -122,-73 83,-36 168,-68 250,-100 24,-7 48,-18 71,-26 17,-7 30,-14 42,-23 5,-4 10,-7 13,-10l-13 -7 -338 -183c-116,45 -236,95 -348,155 -77,-47 -152,-91 -230,-139l-58 41 -213 141 0 25c17,8 40,13 55,21 13,9 28,17 41,25z"/>
     <path class="fil28" d="M113354 77881c35,21 72,41 107,63 26,-34 55,-65 84,-93 -43,-25 -84,-52 -128,-77 -13,-8 -28,-16 -41,-25 -15,-8 -38,-13 -55,-21l0 121c10,18 12,18 33,32z"/>
     <path class="fil28" d="M114395 77754c-82,32 -167,64 -250,100 40,25 82,48 122,73 60,-23 119,-46 178,-68 16,-6 43,-18 63,-28l0 -21 0 -105c-12,9 -25,16 -42,23 -23,8 -47,19 -71,26z"/>
    </g>
    <path class="fil32" d="M127502 82158l46 -214 959 -4479c-1930,-1502 -3100,-420 -5476,-420 -2376,0 -6150,-1547 -6033,420l959 4479 45 214c768,2045 8732,2045 9500,0z"/>
    <path class="fil33" d="M122752 76192c2737,0 5734,-884 6115,-2115 -1443,-2701 -10523,-2572 -12230,0 341,1202 3379,2115 6115,2115z"/>
    <path class="fil34" d="M129809 73049c0,-1735 -3159,-3142 -7057,-3142 -3897,0 -7057,1407 -7057,3142 0,463 225,903 629,1299 1110,-1088 3570,-1844 6428,-1844 2858,0 5319,756 6429,1844 403,-396 628,-836 628,-1299z"/>
    <path class="fil35" d="M115695 75646c0,1736 3160,3143 7057,3143 3898,0 7057,-1407 7057,-3143l0 -2597c0,-463 -364,822 -768,1217 -1110,1088 -3448,1740 -6306,1740 -2858,0 -5214,-611 -6324,-1699 -403,-396 -471,-824 -716,-1258l0 2597z"/>
    <path class="fil36" d="M129419 72970c0,1532 -2985,2774 -6667,2774 -3682,0 -6667,-1242 -6667,-2774 0,-1532 2985,-2773 6667,-2773 3682,0 6667,1241 6667,2773zm-6667 -3063c-3897,0 -7057,1407 -7057,3142 0,1736 3160,3143 7057,3143 3898,0 7057,-1407 7057,-3143 0,-1735 -3159,-3142 -7057,-3142z"/>
    <polygon class="fil37" points="123013,74367 122488,74367 122488,63862 123013,63862 "/>
    <g>
     <path class="fil38" d="M123198 72990c454,-913 1310,-1897 2086,-2516 1171,-934 2829,-1655 4973,-1137 0,0 -637,1198 -1814,2257 -1499,1357 -3286,1957 -5245,1396z"/>
     <path class="fil38" d="M122270 73153c-3010,0 -5881,-1814 -6560,-4812 0,0 3154,88 5122,2045l0 0c763,757 1251,1711 1438,2767z"/>
    </g>
    <g>
     <polygon class="fil39" points="129420,61554 127058,61554 127058,60719 129420,60719 "/>
     <polygon class="fil39" points="127171,56124 127762,56717 126091,58386 125500,57795 "/>
     <polygon class="fil39" points="127762,65557 127171,66147 125500,64477 126091,63886 "/>
     <polygon class="fil39" points="123169,56829 122333,56829 122333,54468 123169,54468 "/>
     <polygon class="fil39" points="118331,56124 120000,57795 119409,58386 117740,56717 "/>
     <polygon class="fil39" points="120000,64477 118331,66147 117740,65557 119409,63886 "/>
     <polygon class="fil39" points="118444,61554 116082,61554 116082,60719 118444,60719 "/>
     <g>
      <path class="fil40" d="M123647 60586c-295,-445 -1411,-303 -1536,260 -100,452 644,541 918,637 330,115 701,351 457,769 -319,544 -1053,533 -1304,-36 -28,-65 -250,8 -227,60 282,639 1126,633 1582,177 268,-267 359,-688 13,-927 -185,-127 -436,-169 -645,-236 -151,-48 -350,-85 -466,-198 -427,-417 671,-913 981,-446 41,64 253,-21 227,-60z"/>
      <path class="fil40" d="M122748 59939c38,1091 37,2182 0,3274 -4,102 225,61 228,-25 38,-1104 37,-2206 -1,-3310 -3,-83 -231,-35 -227,61z"/>
     </g>
    </g>
    <g>
     <path class="fil31" d="M136806 81389c-282,860 -1464,1506 -2881,1506 -1414,0 -2596,-646 -2878,-1506 -42,-123 -63,-251 -65,-380l0 778c0,1052 1318,1905 2943,1905 1628,0 2946,-853 2946,-1905l0 -795c0,136 -22,269 -65,397z"/>
     <path class="fil28" d="M134655 80818c-148,-35 -286,-12 -421,40 48,28 95,56 142,85 83,-16 170,-16 258,6 103,25 357,115 397,264 128,-229 -246,-364 -376,-395z"/>
     <path class="fil28" d="M135234 81458c18,11 36,21 55,33 15,-20 29,-42 41,-63 42,-72 58,-140 55,-205 -7,25 -18,48 -33,73 -34,59 -75,112 -118,162z"/>
     <path class="fil27" d="M134634 80949c-88,-22 -175,-22 -258,-6 196,117 392,236 588,353 12,-13 27,-26 39,-40 12,-15 23,-30 28,-43 -40,-149 -294,-239 -397,-264z"/>
     <path class="fil28" d="M133914 81022c-342,193 -711,394 -1097,181 -226,-124 -398,-327 -392,-555 -90,279 101,537 370,687 386,212 755,11 1097,-182 225,135 451,271 677,408 45,-20 88,-44 131,-67 -263,-158 -525,-315 -786,-472z"/>
     <path class="fil27" d="M132403 80125l0 -25 213 -142 58 -40c78,47 153,92 229,138 113,-59 233,-109 350,-154l337 182 13 7c-3,4 -9,7 -13,10l0 105 0 22c-20,10 -47,21 -64,28 -57,22 -117,45 -177,68 191,115 379,230 568,343 316,-155 625,-238 996,-88 252,101 582,343 472,644 3,65 -13,133 -55,205 -12,21 -26,43 -41,63 48,30 97,60 147,89 0,0 2,2 3,4 2,0 4,0 4,2l-4 1 -7 126 0 11 -286 183c-59,-36 -117,-70 -173,-104 -155,109 -329,192 -504,261l-352 -189 0 -132 0 -9c31,-7 61,-22 84,-29 115,-40 245,-86 368,-144 -226,-137 -452,-273 -677,-408 -342,193 -711,394 -1097,182 -269,-150 -460,-408 -370,-687l0 -2c1,-87 29,-179 93,-272 8,-12 16,-23 24,-33 -34,-22 -71,-42 -106,-63 -21,-14 -23,-14 -33,-32l0 -121zm1522 2458c511,0 984,-100 1377,-272 655,-287 1085,-770 1085,-1319 0,-879 -1102,-1590 -2462,-1590 -552,0 -1060,118 -1471,315 -599,290 -988,753 -988,1275 0,878 1101,1591 2459,1591z"/>
     <path class="fil28" d="M132772 80708c23,-55 67,-108 126,-153 193,115 384,231 577,346 38,-17 78,-38 119,-62 2,-2 6,-3 9,-5 -228,-136 -455,-274 -683,-410 -108,80 -158,186 -148,284z"/>
     <path class="fil28" d="M135167 81775c-58,-35 -116,-70 -173,-103 -154,108 -329,191 -503,261l-240 -121 -134 -69 0 132 352 189c175,-69 349,-152 504,-261 56,34 114,68 173,104l286 -183 0 -11 7 -126 -107 75 -165 113z"/>
     <path class="fil27" d="M132772 80708c11,107 97,203 259,244 172,44 303,15 444,-51 -193,-115 -384,-231 -577,-346 -59,45 -103,98 -126,153z"/>
     <path class="fil28" d="M132454 79717c411,-197 919,-315 1471,-315 1360,0 2462,711 2462,1590 0,549 -430,1032 -1085,1319 -393,172 -866,272 -1377,272 -1358,0 -2459,-713 -2459,-1591 0,-522 389,-985 988,-1275zm1471 3178c1417,0 2599,-646 2881,-1506 43,-128 65,-261 65,-397 0,-1052 -1318,-1903 -2946,-1903 -1625,0 -2943,851 -2943,1903 0,5 0,12 0,17 2,129 23,257 65,380 282,860 1464,1506 2878,1506z"/>
     <path class="fil31" d="M135031 81213c-5,13 -16,28 -28,43 -12,14 -27,27 -39,40 -196,-117 -392,-235 -588,-353 -47,-29 -95,-57 -142,-85 135,-52 273,-75 421,-40 130,31 504,166 376,395zm-1436 -374c-42,24 -82,45 -120,62 -141,66 -272,95 -444,51 -162,-41 -248,-137 -259,-244 -10,-98 40,-204 148,-284 228,136 455,274 683,410 -3,2 -7,3 -8,5zm-1096 -668c43,25 85,52 128,77 -30,28 -58,60 -85,93 -8,10 -16,21 -24,33 -64,93 -92,185 -93,272l0 2c-6,228 166,431 392,555 386,213 755,12 1097,-181 261,157 523,314 786,472 -43,23 -86,47 -131,67 -123,58 -253,105 -368,144 -23,7 -53,22 -84,29l0 9 134 69 240 121c174,-70 349,-153 503,-261 57,33 115,68 173,103l165 -113 107 -75 4 -1c0,-2 -2,-2 -4,-2 -1,-2 -3,-4 -3,-4 -50,-29 -99,-59 -147,-89 -19,-12 -37,-22 -55,-33 43,-50 84,-103 118,-162 15,-25 26,-48 33,-73 110,-301 -220,-543 -472,-644 -371,-150 -680,-67 -996,88 -189,-113 -377,-228 -568,-343 -40,-25 -82,-48 -121,-73 83,-37 167,-68 249,-100 25,-8 48,-18 71,-26 17,-7 30,-14 42,-24 5,-3 10,-6 13,-10l-13 -7 -337 -182c-117,45 -237,95 -350,154 -76,-46 -151,-91 -229,-138l-58 40 -213 142 0 25c16,8 40,13 55,21 13,8 28,17 41,25z"/>
     <path class="fil28" d="M132436 80278c35,21 72,41 106,63 27,-33 55,-65 85,-93 -43,-25 -85,-52 -128,-77 -13,-8 -28,-17 -41,-25 -15,-8 -39,-13 -55,-21l0 121c10,18 12,18 33,32z"/>
     <path class="fil28" d="M133477 80151c-82,32 -166,63 -249,100 39,25 81,48 121,73 60,-23 120,-46 177,-68 17,-7 44,-18 64,-28l0 -22 0 -105c-12,10 -25,17 -42,24 -23,8 -46,18 -71,26z"/>
     <path class="fil31" d="M139378 79217c-283,859 -1465,1506 -2881,1506 -1415,0 -2596,-647 -2879,-1506 -42,-123 -63,-251 -65,-380l0 777c0,1053 1318,1905 2944,1905 1627,0 2945,-852 2945,-1905l0 -794c0,136 -22,269 -64,397z"/>
     <path class="fil28" d="M137227 78645c-148,-34 -286,-11 -421,40 47,29 95,57 141,85 83,-15 170,-15 258,7 103,25 357,115 397,264 128,-229 -246,-364 -375,-396z"/>
     <path class="fil28" d="M137805 79285c19,12 36,22 55,34 15,-20 30,-42 41,-63 42,-72 59,-140 56,-205 -7,25 -19,48 -34,73 -33,58 -75,111 -118,161z"/>
     <path class="fil27" d="M137205 78777c-88,-22 -175,-22 -258,-7 197,118 392,236 589,354 12,-13 26,-26 38,-40 12,-15 24,-30 28,-43 -40,-149 -294,-239 -397,-264z"/>
     <path class="fil28" d="M136485 78850c-342,193 -711,394 -1097,181 -226,-124 -397,-327 -392,-555 -90,279 101,537 370,687 386,212 755,11 1098,-182 224,135 450,271 676,408 45,-20 88,-44 132,-67 -263,-158 -526,-316 -787,-472z"/>
     <path class="fil27" d="M134975 77952l0 -25 212 -141 58 -40c78,47 153,92 230,138 112,-60 232,-110 349,-154l337 182 14 7c-4,4 -9,7 -14,10l0 105 0 21c-20,10 -47,22 -63,29 -58,21 -118,44 -178,68 191,114 379,229 569,342 315,-154 625,-238 995,-88 253,101 582,344 473,645 3,65 -14,133 -56,205 -11,21 -26,43 -41,63 48,30 98,59 148,89 0,0 1,2 3,4 2,0 3,0 3,1l-3 2 -8 126 0 11 -286 182c-58,-35 -117,-69 -173,-103 -154,108 -329,191 -504,261l-352 -189 0 -132 0 -10c31,-7 61,-21 85,-28 114,-40 244,-86 367,-144 -226,-137 -452,-273 -676,-408 -343,193 -712,394 -1098,182 -269,-150 -460,-408 -370,-687l0 -2c2,-88 30,-180 93,-272 8,-12 17,-24 25,-34 -35,-21 -71,-41 -107,-63 -21,-13 -22,-13 -33,-31l1 -122zm1522 2459c510,0 984,-100 1376,-273 655,-286 1086,-769 1086,-1318 0,-880 -1102,-1591 -2462,-1591 -552,0 -1061,118 -1471,316 -600,289 -989,753 -989,1275 0,878 1102,1591 2460,1591z"/>
     <path class="fil25" d="M135344 78536c22,-55 66,-108 126,-153 193,115 384,231 576,346 39,-17 79,-39 120,-62 2,-2 5,-3 9,-5 -229,-136 -456,-274 -684,-411 -107,80 -157,187 -147,285z"/>
     <path class="fil28" d="M137738 79603c-58,-35 -116,-70 -172,-103 -155,108 -329,191 -504,261l-239 -122 -135 -68 0 132 352 189c175,-70 350,-153 504,-261 56,33 115,68 173,103l286 -182 0 -11 8 -126 -108 75 -165 113z"/>
     <path class="fil26" d="M135344 78536c11,106 96,203 259,244 171,43 302,15 443,-51 -192,-115 -383,-231 -576,-346 -60,45 -104,98 -126,153z"/>
     <path class="fil28" d="M135026 77545c410,-198 919,-316 1471,-316 1360,0 2462,711 2462,1591 0,549 -431,1032 -1086,1318 -392,173 -866,273 -1376,273 -1358,0 -2460,-713 -2460,-1591 0,-522 389,-986 989,-1275zm1471 3178c1416,0 2598,-647 2881,-1506 42,-128 64,-261 64,-397 0,-1052 -1318,-1903 -2945,-1903 -1626,0 -2944,851 -2944,1903 0,5 0,12 0,17 2,129 23,257 65,380 283,859 1464,1506 2879,1506z"/>
     <path class="fil31" d="M137602 79041c-4,13 -16,28 -28,43 -12,14 -26,27 -38,40 -197,-118 -392,-236 -589,-354 -46,-29 -94,-56 -141,-85 135,-51 273,-74 421,-40 129,32 503,167 375,396zm-1436 -374c-41,23 -81,45 -120,62 -141,66 -272,94 -443,51 -163,-41 -248,-138 -259,-244 -10,-98 40,-205 147,-285 228,137 455,275 684,411 -4,2 -7,3 -9,5zm-1095 -668c43,25 84,52 128,76 -30,29 -58,60 -85,93 -8,10 -17,22 -25,34 -63,92 -91,184 -93,272l0 2c-5,228 166,431 392,555 386,213 755,12 1097,-181 261,156 524,314 787,472 -44,23 -87,47 -132,67 -123,58 -253,104 -367,144 -24,7 -54,21 -85,28l0 10 135 68 239 122c175,-70 349,-153 504,-261 56,33 114,68 172,103l165 -113 108 -75 4 -2c0,-1 -2,-1 -4,-1 -2,-2 -3,-4 -3,-4 -50,-30 -100,-59 -148,-89 -19,-12 -36,-22 -55,-33 43,-51 85,-103 118,-162 15,-25 27,-48 34,-73 109,-301 -220,-544 -473,-645 -370,-150 -680,-66 -995,88 -190,-113 -378,-228 -569,-342 -40,-25 -82,-48 -121,-73 83,-37 168,-68 249,-100 25,-8 48,-18 71,-27 17,-6 30,-13 42,-23 5,-3 10,-6 14,-10l-14 -7 -337 -182c-117,44 -237,94 -349,154 -77,-46 -152,-91 -230,-138l-58 40 -212 141 0 25c16,9 40,14 54,22 14,8 28,17 42,25z"/>
     <path class="fil25" d="M135007 78105c36,22 72,42 107,63 27,-33 55,-64 85,-93 -44,-24 -85,-51 -128,-76 -14,-8 -28,-17 -42,-25 -14,-8 -38,-13 -55,-22l1 122c10,18 11,18 32,31z"/>
     <path class="fil25" d="M136048 77979c-81,31 -166,63 -249,100 39,25 81,48 121,73 60,-24 120,-47 178,-68 16,-7 43,-19 63,-29l0 -21 0 -105c-12,10 -25,17 -42,23 -23,9 -46,19 -71,27z"/>
     <path class="fil31" d="M137573 77276c-283,859 -1465,1506 -2881,1506 -1414,-1 -2596,-647 -2879,-1506 -41,-124 -62,-251 -64,-381l0 778c0,1052 1318,1905 2943,1905 1627,0 2946,-853 2946,-1905l0 -795c0,137 -22,270 -65,398z"/>
     <path class="fil28" d="M135422 76704c-148,-35 -286,-12 -421,40 47,28 95,56 142,85 83,-15 170,-15 257,6 104,25 358,115 398,265 128,-230 -246,-364 -376,-396z"/>
     <path class="fil28" d="M136000 77344c19,11 37,22 56,33 14,-20 29,-41 41,-63 41,-71 58,-140 55,-204 -7,24 -18,47 -34,73 -33,58 -74,111 -118,161z"/>
     <path class="fil27" d="M135400 76835c-87,-21 -174,-21 -257,-6 196,118 392,236 588,354 12,-14 27,-27 38,-40 12,-15 24,-30 29,-43 -40,-150 -294,-240 -398,-265z"/>
     <path class="fil28" d="M134681 76908c-343,193 -711,395 -1097,182 -226,-125 -398,-328 -393,-555 -89,279 102,536 371,686 385,212 755,12 1097,-181 225,134 451,270 676,407 46,-20 89,-43 132,-66 -263,-158 -525,-316 -786,-473z"/>
     <path class="fil27" d="M133170 76011l0 -25 213 -141 58 -40c78,46 153,91 229,138 113,-60 233,-110 349,-155l338 183 13 7c-3,3 -9,6 -13,9l0 105 0 22c-21,10 -47,22 -63,28 -59,22 -119,45 -179,68 191,115 380,230 569,343 316,-155 625,-238 996,-88 252,101 581,344 472,645 3,64 -14,133 -55,204 -12,22 -27,43 -41,63 48,30 97,60 147,90 0,0 2,1 3,3 2,0 4,0 4,2l-4 2 -8 126 0 10 -285 183c-59,-35 -117,-70 -173,-104 -155,109 -329,192 -504,262l-352 -190 0 -131 0 -10c31,-7 61,-22 84,-29 115,-39 245,-86 367,-144 -225,-137 -451,-273 -676,-407 -342,193 -712,394 -1097,181 -269,-150 -460,-407 -371,-686l0 -2c2,-88 30,-180 93,-273 9,-12 17,-23 25,-33 -34,-21 -71,-41 -106,-63 -21,-14 -23,-14 -33,-32l0 -121zm1522 2459c511,0 984,-100 1377,-273 655,-287 1085,-770 1085,-1318 0,-880 -1102,-1591 -2462,-1591 -552,0 -1060,118 -1471,316 -599,289 -989,753 -989,1275 0,877 1102,1591 2460,1591z"/>
     <path class="fil28" d="M133539 76594c23,-55 66,-108 126,-153 193,115 384,231 577,346 38,-17 78,-38 119,-61 2,-2 6,-4 9,-5 -228,-137 -456,-275 -683,-411 -108,80 -158,186 -148,284z"/>
     <path class="fil28" d="M135934 77661c-58,-34 -116,-70 -173,-103 -154,108 -329,191 -503,261l-240 -121 -134 -68 0 131 352 190c175,-70 349,-153 504,-262 56,34 114,69 173,104l285 -183 0 -10 8 -126 -108 74 -164 113z"/>
     <path class="fil27" d="M133539 76594c12,107 96,203 259,245 172,43 303,15 444,-52 -193,-115 -384,-231 -577,-346 -60,45 -103,98 -126,153z"/>
     <path class="fil28" d="M133221 75604c411,-198 919,-316 1471,-316 1360,0 2462,711 2462,1591 0,548 -430,1031 -1085,1318 -393,173 -866,273 -1377,273 -1358,0 -2460,-714 -2460,-1591 0,-522 389,-986 989,-1275zm1471 3177c1416,0 2598,-646 2881,-1505 43,-128 65,-261 65,-397 0,-1053 -1319,-1904 -2946,-1904 -1625,0 -2943,851 -2943,1904 0,4 0,11 0,16 2,130 23,257 64,381 283,859 1465,1506 2879,1505z"/>
     <path class="fil31" d="M135798 77100c-5,13 -17,28 -29,43 -11,13 -26,26 -38,40 -196,-118 -392,-236 -588,-354 -47,-29 -95,-57 -142,-85 135,-52 273,-75 421,-40 130,32 504,166 376,396zm-1437 -375c-41,24 -81,45 -119,62 -141,67 -272,95 -444,52 -163,-42 -247,-138 -259,-245 -10,-98 40,-204 148,-284 227,136 455,274 683,411 -3,1 -7,3 -9,4zm-1095 -667c43,24 85,51 128,76 -30,28 -58,60 -85,93 -8,10 -16,21 -25,33 -63,93 -91,185 -93,273l0 2c-5,227 167,430 393,555 386,213 754,11 1097,-181 261,156 523,314 786,472 -43,23 -86,46 -132,66 -122,58 -252,105 -367,144 -23,7 -53,22 -84,29l0 10 134 68 240 121c174,-70 349,-152 503,-261 57,33 115,69 173,103l164 -113 108 -74 4 -2c0,-2 -2,-2 -4,-2 -1,-2 -3,-3 -3,-3 -50,-30 -99,-60 -147,-90 -19,-11 -37,-22 -56,-33 44,-50 85,-103 118,-161 16,-26 27,-49 34,-73 109,-301 -220,-544 -472,-645 -371,-150 -680,-67 -996,88 -189,-113 -378,-228 -569,-343 -39,-24 -81,-48 -121,-73 83,-36 168,-68 250,-100 25,-8 48,-18 71,-26 17,-7 30,-13 42,-24 4,-3 10,-6 13,-9l-13 -7 -338 -183c-116,45 -236,95 -349,155 -76,-47 -151,-92 -229,-138l-58 40 -213 141 0 25c16,8 40,13 55,22 13,8 28,16 41,25z"/>
     <path class="fil28" d="M133203 76164c35,22 72,42 106,63 27,-33 55,-65 85,-93 -43,-25 -85,-52 -128,-76 -13,-9 -28,-17 -41,-25 -15,-9 -39,-14 -55,-22l0 121c10,18 12,18 33,32z"/>
     <path class="fil28" d="M134244 76037c-82,32 -167,64 -250,100 40,25 82,49 121,73 61,-23 120,-46 179,-68 16,-6 42,-18 63,-28l0 -22 0 -105c-12,11 -25,17 -42,24 -23,8 -46,18 -71,26z"/>
    </g>
    <g>
     <path class="fil31" d="M130272 84250c-258,783 -1335,1372 -2626,1372 -1290,0 -2368,-589 -2625,-1372 -38,-112 -58,-229 -59,-348l0 710c0,959 1202,1736 2684,1736 1483,0 2685,-777 2685,-1736l0 -724c0,124 -20,245 -59,362z"/>
     <path class="fil28" d="M128311 83729c-135,-32 -261,-11 -384,36 43,25 87,51 129,77 76,-13 155,-13 235,6 94,23 326,105 362,241 117,-209 -224,-332 -342,-360z"/>
     <path class="fil28" d="M128838 84312c17,10 33,19 50,30 14,-18 27,-38 38,-57 38,-66 53,-128 50,-187 -6,23 -17,44 -30,67 -31,53 -69,101 -108,147z"/>
     <path class="fil27" d="M128291 83848c-80,-19 -159,-19 -235,-6 179,108 358,215 537,323 10,-12 24,-24 34,-37 11,-13 22,-27 26,-39 -36,-136 -268,-218 -362,-241z"/>
     <path class="fil28" d="M127635 83915c-312,175 -649,359 -1000,165 -206,-114 -362,-299 -358,-506 -82,255 93,489 338,626 352,194 688,10 1000,-165 205,122 411,247 617,371 41,-18 80,-40 120,-61 -240,-144 -479,-288 -717,-430z"/>
     <path class="fil27" d="M126257 83096l0 -22 194 -129 53 -36c72,42 140,83 210,126 103,-55 212,-101 318,-141l307 166 13 6c-3,3 -8,6 -13,10l0 95 0 20c-18,8 -42,19 -57,25 -53,20 -108,41 -162,62 174,105 345,210 518,312 288,-140 569,-216 908,-80 230,92 530,314 430,588 3,59 -12,121 -50,187 -11,19 -24,39 -38,57 44,28 89,55 135,82 0,0 1,2 3,3 1,0 3,0 3,2l-3 1 -8 115 0 9 -260 167c-53,-32 -106,-64 -158,-94 -141,99 -300,174 -459,238l-321 -173 0 -120 0 -9c29,-6 56,-19 77,-25 104,-37 223,-79 335,-132 -206,-124 -412,-249 -617,-371 -312,175 -648,359 -1000,165 -245,-137 -420,-371 -338,-626l0 -2c1,-80 27,-163 85,-248 8,-11 15,-21 23,-31 -32,-19 -65,-37 -97,-57 -20,-12 -21,-12 -31,-29l0 -111zm1389 2242c465,0 897,-91 1254,-249 597,-260 990,-701 990,-1201 0,-802 -1005,-1450 -2244,-1450 -503,0 -967,107 -1342,288 -547,263 -901,686 -901,1162 0,800 1004,1450 2243,1450z"/>
     <path class="fil28" d="M126594 83629c21,-51 60,-99 115,-140 176,105 350,211 526,315 35,-15 71,-34 109,-56 1,-1 5,-3 8,-5 -208,-123 -416,-249 -623,-374 -99,73 -144,170 -135,260z"/>
     <path class="fil28" d="M128777 84601c-53,-32 -106,-63 -157,-93 -141,98 -300,174 -459,237l-219 -110 -122 -63 0 120 321 173c159,-64 318,-139 459,-238 52,30 105,62 158,94l260 -167 0 -9 8 -115 -99 68 -150 103z"/>
     <path class="fil27" d="M126594 83629c10,96 88,184 236,222 156,40 276,14 405,-47 -176,-104 -350,-210 -526,-315 -55,41 -94,89 -115,140z"/>
     <path class="fil28" d="M126304 82726c375,-181 839,-288 1342,-288 1239,0 2244,648 2244,1450 0,500 -393,941 -990,1201 -357,158 -789,249 -1254,249 -1239,0 -2243,-650 -2243,-1450 0,-476 354,-899 901,-1162zm1342 2896c1291,0 2368,-589 2626,-1372 39,-117 59,-238 59,-362 0,-960 -1202,-1735 -2685,-1735 -1482,0 -2684,775 -2684,1735 0,4 0,10 0,14 1,119 21,236 59,348 257,783 1335,1372 2625,1372z"/>
     <path class="fil31" d="M128653 84089c-4,12 -15,26 -26,39 -10,13 -24,25 -34,37 -179,-108 -358,-215 -537,-323 -42,-26 -86,-52 -129,-77 123,-47 249,-68 384,-36 118,28 459,151 342,360zm-1309 -341c-38,22 -74,41 -109,56 -129,61 -249,87 -405,47 -148,-38 -226,-126 -236,-222 -9,-90 36,-187 135,-260 207,125 415,251 623,374 -3,2 -7,4 -8,5zm-999 -609c40,23 78,47 117,70 -27,26 -53,54 -77,84 -8,10 -15,20 -23,31 -58,85 -84,168 -85,248l0 2c-4,207 152,392 358,506 351,194 688,10 1000,-165 238,142 477,286 717,430 -40,21 -79,43 -120,61 -112,53 -231,95 -335,132 -21,6 -48,19 -77,25l0 9 122 63 219 110c159,-63 318,-139 459,-237 51,30 104,61 157,93l150 -103 99 -68 3 -1c0,-2 -2,-2 -3,-2 -2,-1 -3,-3 -3,-3 -46,-27 -91,-54 -135,-82 -17,-11 -33,-20 -50,-30 39,-46 77,-94 108,-147 13,-23 24,-44 30,-67 100,-274 -200,-496 -430,-588 -339,-136 -620,-60 -908,80 -173,-102 -344,-207 -518,-312 -37,-22 -75,-43 -111,-66 76,-33 153,-63 227,-91 23,-8 44,-17 65,-25 16,-5 28,-11 38,-20 5,-4 10,-7 13,-10l-13 -6 -307 -166c-106,40 -215,86 -318,141 -70,-43 -138,-84 -210,-126l-53 36 -194 129 0 22c16,8 37,13 51,20 12,8 25,15 37,23z"/>
     <path class="fil28" d="M126288 83236c32,20 65,38 97,57 24,-30 50,-58 77,-84 -39,-23 -77,-47 -117,-70 -12,-8 -25,-15 -37,-23 -14,-7 -35,-12 -51,-20l0 111c10,17 11,17 31,29z"/>
     <path class="fil28" d="M127236 83121c-74,28 -151,58 -227,91 36,23 74,44 111,66 54,-21 109,-42 162,-62 15,-6 39,-17 57,-25l0 -20 0 -95c-10,9 -22,15 -38,20 -21,8 -42,17 -65,25z"/>
    </g>
    <g>
     <path class="fil31" d="M153067 85212c-258,783 -1336,1372 -2627,1372 -1289,0 -2367,-589 -2624,-1372 -38,-112 -58,-230 -59,-348l0 710c0,959 1201,1736 2683,1736 1484,0 2685,-777 2685,-1736l0 -725c0,125 -19,246 -58,363z"/>
     <path class="fil28" d="M151106 84690c-135,-32 -261,-11 -384,37 43,25 87,51 129,77 76,-14 155,-14 235,6 94,23 326,104 362,241 117,-209 -224,-332 -342,-361z"/>
     <path class="fil28" d="M151633 85273c16,11 33,20 50,31 13,-18 27,-38 38,-58 38,-65 53,-127 50,-186 -6,22 -17,44 -30,66 -31,54 -69,102 -108,147z"/>
     <path class="fil27" d="M151086 84810c-80,-20 -159,-20 -235,-6 179,107 358,215 536,322 11,-12 25,-24 35,-36 11,-14 21,-27 26,-39 -36,-137 -268,-218 -362,-241z"/>
     <path class="fil28" d="M150430 84877c-313,175 -649,359 -1000,165 -206,-114 -363,-299 -358,-506 -82,254 92,489 338,625 351,194 688,11 1000,-164 205,122 411,246 617,370 41,-17 80,-39 120,-60 -240,-144 -479,-288 -717,-430z"/>
     <path class="fil27" d="M149052 84058l0 -23 194 -128 53 -37c72,43 140,84 210,126 103,-55 212,-100 318,-141l307 167 12 6c-3,3 -7,6 -12,9l0 96 0 19c-18,9 -42,20 -57,26 -53,20 -108,41 -162,62 174,105 345,209 518,312 288,-141 569,-216 908,-80 230,92 530,313 430,588 3,59 -12,121 -50,186 -11,20 -25,40 -38,58 44,27 89,54 135,82 0,0 1,1 3,3 1,0 3,0 3,1l-3 2 -8 115 0 9 -260 167c-53,-32 -106,-64 -158,-94 -141,99 -300,174 -459,238l-321 -173 0 -120 0 -9c28,-6 56,-20 77,-26 104,-36 222,-78 335,-132 -206,-124 -412,-248 -617,-370 -312,175 -649,358 -1000,164 -246,-136 -420,-371 -338,-625l0 -2c1,-80 27,-163 85,-249 7,-10 15,-21 22,-30 -31,-20 -65,-38 -97,-57 -19,-12 -21,-12 -30,-29l0 -111zm1388 2241c466,0 897,-90 1255,-248 597,-261 990,-701 990,-1202 0,-801 -1005,-1450 -2245,-1450 -503,0 -967,108 -1341,288 -547,264 -901,686 -901,1162 0,800 1004,1450 2242,1450z"/>
     <path class="fil28" d="M149389 84590c21,-50 60,-99 115,-139 176,104 350,210 526,315 35,-15 71,-35 109,-56 1,-2 4,-3 7,-5 -207,-124 -415,-250 -622,-374 -99,73 -144,170 -135,259z"/>
     <path class="fil28" d="M151572 85563c-53,-32 -106,-64 -157,-94 -141,99 -300,174 -460,238l-218 -111 -122 -62 0 120 321 173c159,-64 318,-139 459,-238 52,30 105,62 158,94l260 -167 0 -9 8 -115 -99 68 -150 103z"/>
     <path class="fil27" d="M149389 84590c10,97 88,185 236,223 156,39 276,14 405,-47 -176,-105 -350,-211 -526,-315 -55,40 -94,89 -115,139z"/>
     <path class="fil28" d="M149099 83687c374,-180 838,-288 1341,-288 1240,0 2245,649 2245,1450 0,501 -393,941 -990,1202 -358,158 -789,248 -1255,248 -1238,0 -2242,-650 -2242,-1450 0,-476 354,-898 901,-1162zm1341 2897c1291,0 2369,-589 2627,-1372 39,-117 58,-238 58,-363 0,-959 -1201,-1735 -2685,-1735 -1482,0 -2683,776 -2683,1735 0,5 0,11 0,15 1,118 21,236 59,348 257,783 1335,1372 2624,1372z"/>
     <path class="fil31" d="M151448 85051c-5,12 -15,25 -26,39 -10,12 -24,24 -35,36 -178,-107 -357,-215 -536,-322 -42,-26 -86,-52 -129,-77 123,-48 249,-69 384,-37 118,29 459,152 342,361zm-1309 -341c-38,21 -74,41 -109,56 -129,61 -249,86 -405,47 -148,-38 -226,-126 -236,-223 -9,-89 36,-186 135,-259 207,124 415,250 622,374 -3,2 -6,3 -7,5zm-999 -609c39,22 77,47 117,70 -27,25 -53,54 -78,84 -7,9 -15,20 -22,30 -58,86 -84,169 -85,249l0 2c-5,207 152,392 358,506 351,194 687,10 1000,-165 238,142 477,286 717,430 -40,21 -79,43 -120,60 -113,54 -231,96 -335,132 -21,6 -49,20 -77,26l0 9 122 62 218 111c160,-64 319,-139 460,-238 51,30 104,62 157,94l150 -103 99 -68 3 -2c0,-1 -2,-1 -3,-1 -2,-2 -3,-3 -3,-3 -46,-28 -91,-55 -135,-82 -17,-11 -34,-20 -50,-31 39,-45 77,-93 108,-147 13,-22 24,-44 30,-66 100,-275 -200,-496 -430,-588 -339,-136 -620,-61 -908,80 -173,-103 -344,-207 -518,-312 -37,-23 -75,-44 -111,-67 76,-33 153,-62 227,-91 23,-7 44,-16 65,-24 16,-6 28,-12 38,-21 5,-3 9,-6 12,-9l-12 -6 -307 -167c-106,41 -215,86 -318,141 -70,-42 -138,-83 -210,-126l-53 37 -194 128 0 23c15,8 37,13 50,20 12,8 26,15 38,23z"/>
     <path class="fil28" d="M149082 84198c32,19 66,37 97,57 25,-30 51,-59 78,-84 -40,-23 -78,-48 -117,-70 -12,-8 -26,-15 -38,-23 -13,-7 -35,-12 -50,-20l0 111c9,17 11,17 30,29z"/>
     <path class="fil28" d="M150031 84082c-74,29 -151,58 -227,91 36,23 74,44 111,67 54,-21 109,-42 162,-62 15,-6 39,-17 57,-26l0 -19 0 -96c-10,9 -22,15 -38,21 -21,8 -42,17 -65,24z"/>
    </g>
    <g>
     <path class="fil31" d="M124204 64307c-965,201 -2220,-562 -2992,-1899 -772,-1336 -805,-2805 -148,-3540 93,-107 541,-341 663,-413l-161 55c-748,291 -1432,723 -1641,1557 -195,777 -22,1810 535,2775 707,1224 1818,1968 2743,1929 550,-22 1102,-368 1529,-696l98 -77c-129,74 -481,280 -626,309z"/>
     <path class="fil28" d="M123572 61964c-48,-159 -145,-276 -268,-376 0,60 -1,121 -2,180 59,70 106,152 134,247 32,111 86,400 -33,519 286,-4 209,-431 169,-570z"/>
     <path class="fil28" d="M123283 62859c-1,23 -1,46 -2,70 27,3 56,5 82,5 91,0 164,-21 223,-60 -26,7 -55,9 -87,9 -73,0 -146,-11 -216,-24z"/>
     <path class="fil27" d="M123436 62015c-28,-95 -75,-177 -134,-247 -5,250 -9,499 -14,749 19,3 40,10 59,14 20,3 41,6 56,3 119,-119 65,-408 33,-519z"/>
     <path class="fil28" d="M122974 61375c-368,-218 -760,-457 -769,-937 -6,-281 93,-554 310,-673 -312,67 -451,388 -446,724 10,480 401,719 769,938 -4,285 -10,573 -15,860 43,32 89,60 134,88 6,-334 12,-668 17,-1000z"/>
     <path class="fil27" d="M122998 59459l24 -14 249 124 70 33c-2,100 -3,195 -6,292 119,74 231,160 337,246l11 418 1 16c-5,-1 -11,-4 -17,-7l-99 57 -20 12c-20,-14 -46,-32 -61,-44 -52,-43 -107,-87 -161,-131 -5,243 -11,483 -14,723 318,214 565,461 626,893 42,293 -7,737 -352,797 -59,39 -132,60 -223,60 -26,0 -55,-2 -82,-5 -2,62 -3,125 -4,189 0,0 -1,2 -2,5 1,1 2,3 1,3l-4 -2 -123 61 -10 6 -328 -170c1,-74 2,-149 3,-220 -187,-87 -360,-207 -521,-333l-13 -436 124 -72 9 -5c24,26 54,46 73,64 100,87 214,184 337,268 5,-287 11,-575 15,-860 -368,-219 -759,-458 -769,-938 -5,-336 134,-657 446,-724l2 -1c84,-47 186,-70 308,-61 16,2 31,3 46,5 1,-44 0,-89 1,-134 0,-28 0,-29 11,-49l115 -66zm-1491 2778c278,482 630,875 1007,1151 628,463 1319,606 1837,307 830,-480 901,-1908 160,-3192 -301,-521 -690,-938 -1100,-1217 -601,-409 -1251,-524 -1743,-239 -829,478 -902,1908 -161,3190z"/>
     <path class="fil28" d="M122648 60126c65,-8 139,3 214,36 -4,244 -9,488 -12,733 36,27 78,53 123,79 2,1 6,3 10,5 3,-289 10,-579 15,-869 -135,-58 -263,-47 -350,16z"/>
     <path class="fil28" d="M122947 62969c1,-74 2,-148 2,-219 -186,-87 -359,-207 -520,-334l-16 -292 -9 -164 -124 72 13 436c161,126 334,246 521,333 -1,71 -2,146 -3,220l328 170 10 -6 123 -61 -129 -61 -196 -94z"/>
     <path class="fil27" d="M122648 60126c-94,68 -139,201 -89,378 52,185 151,294 291,391 3,-245 8,-489 12,-733 -75,-33 -149,-44 -214,-36z"/>
     <path class="fil28" d="M123411 59286c410,279 799,696 1100,1217 741,1284 670,2712 -160,3192 -518,299 -1209,156 -1837,-307 -377,-276 -729,-669 -1007,-1151 -741,-1282 -668,-2712 161,-3190 492,-285 1142,-170 1743,239zm-2199 3122c772,1337 2027,2100 2992,1899 145,-29 282,-81 411,-156 993,-573 1078,-2282 191,-3819 -886,-1535 -2409,-2316 -3402,-1742 -5,3 -11,6 -16,9 -121,72 -231,162 -324,269 -657,735 -624,2204 148,3540z"/>
     <path class="fil31" d="M123403 62534c-15,3 -36,0 -56,-3 -19,-4 -40,-11 -59,-14 5,-250 9,-499 14,-749 1,-59 2,-120 2,-180 123,100 220,217 268,376 40,140 117,566 -169,570zm-430 -1560c-45,-26 -87,-52 -123,-79 -140,-97 -239,-206 -291,-391 -50,-177 -5,-310 89,-378 87,-63 215,-74 350,-16 -5,290 -12,580 -15,869 -4,-2 -8,-4 -10,-5zm34 -1398c0,54 -3,107 -3,162 -43,-13 -88,-22 -133,-30 -15,-2 -30,-3 -46,-5 -122,-9 -224,14 -308,61l-2 1c-217,119 -316,392 -310,673 9,480 401,719 769,937 -5,332 -11,666 -17,1000 -45,-28 -91,-56 -134,-88 -123,-84 -237,-181 -337,-268 -19,-18 -49,-38 -73,-64l-9 5 9 164 16 292c161,127 334,247 520,334 0,71 -1,145 -2,219l196 94 129 61 4 2c1,0 0,-2 -1,-3 1,-3 2,-5 2,-5 1,-64 2,-127 4,-189 1,-24 1,-47 2,-70 70,13 143,24 216,24 32,0 61,-2 87,-9 345,-60 394,-504 352,-797 -61,-432 -308,-679 -626,-893 3,-240 9,-480 14,-723 1,-51 0,-103 2,-155 80,59 156,122 231,181 21,20 43,36 64,53 15,13 28,22 44,27 6,3 12,6 17,7l-1 -16 -11 -418c-106,-86 -218,-172 -337,-246 3,-97 4,-192 6,-292l-70 -33 -249 -124 -24 14c1,20 9,45 10,64 -1,17 -1,35 -1,53z"/>
     <path class="fil28" d="M122872 59574c-1,45 0,90 -1,134 45,8 90,17 133,30 0,-55 3,-108 3,-162 0,-18 0,-36 1,-53 -1,-19 -9,-44 -10,-64l-115 66c-11,20 -11,21 -11,49z"/>
     <path class="fil28" d="M123559 60487c-75,-59 -151,-122 -231,-181 -2,52 -1,104 -2,155 54,44 109,88 161,131 15,12 41,30 61,44l20 -12 99 -57c-16,-5 -29,-14 -44,-27 -21,-17 -43,-33 -64,-53z"/>
    </g>
    <g>
     <path class="fil31" d="M12902 82790c-282,859 -1464,1506 -2880,1506 -1415,0 -2596,-647 -2879,-1506 -41,-123 -63,-252 -65,-381l0 778c0,1052 1318,1905 2944,1905 1627,0 2945,-853 2945,-1905l0 -795c0,137 -21,270 -65,398z"/>
     <path class="fil28" d="M10751 82218c-147,-35 -285,-12 -420,40 47,28 95,56 141,85 83,-15 170,-15 258,6 103,25 357,115 397,264 128,-229 -246,-363 -376,-395z"/>
     <path class="fil28" d="M11330 82858c18,11 37,21 55,33 15,-20 30,-42 41,-63 42,-72 59,-140 55,-205 -6,25 -18,49 -32,74 -34,58 -76,111 -119,161z"/>
     <path class="fil27" d="M10730 82349c-88,-21 -175,-21 -258,-6 196,117 393,235 589,354 11,-14 26,-27 38,-41 11,-14 23,-29 28,-43 -40,-149 -294,-239 -397,-264z"/>
     <path class="fil28" d="M10010 82422c-342,193 -711,394 -1097,182 -226,-125 -397,-328 -392,-556 -90,280 101,537 371,687 385,212 755,11 1097,-181 224,134 450,271 676,407 45,-20 88,-43 132,-67 -263,-157 -526,-316 -787,-472z"/>
     <path class="fil27" d="M8499 81525l0 -25 213 -142 58 -40c79,47 153,92 230,138 113,-59 233,-109 349,-154l337 183 13 6c-3,4 -8,7 -13,11l0 104 0 22c-20,10 -46,21 -63,28 -58,21 -118,45 -178,68 192,114 379,230 569,343 316,-155 625,-238 995,-88 253,101 582,343 472,644 4,65 -13,133 -55,205 -11,21 -26,43 -41,63 48,30 98,60 148,90 0,0 2,2 3,3 2,0 3,0 3,2l-3 1 -8 127 0 10 -286 182c-58,-34 -116,-69 -173,-103 -154,108 -329,192 -503,261l-353 -189 0 -131 0 -10c32,-7 62,-22 85,-29 115,-39 244,-86 367,-144 -226,-136 -452,-273 -676,-407 -342,192 -712,393 -1097,181 -270,-150 -461,-407 -371,-687l0 -1c2,-89 30,-180 93,-273 8,-12 17,-23 25,-33 -35,-22 -72,-42 -106,-64 -22,-13 -24,-13 -34,-31l0 -121zm1523 2458c510,0 984,-99 1376,-273 655,-285 1085,-769 1085,-1318 1,-879 -1102,-1590 -2461,-1590 -552,0 -1060,118 -1471,315 -600,290 -989,754 -989,1275 0,878 1102,1591 2460,1591z"/>
     <path class="fil28" d="M8868 82108c24,-55 67,-108 127,-153 192,115 383,232 576,346 39,-17 79,-38 120,-62 2,-1 5,-3 8,-5 -227,-136 -455,-274 -683,-410 -108,80 -158,186 -148,284z"/>
     <path class="fil28" d="M11264 83175c-59,-35 -117,-70 -173,-103 -155,108 -329,191 -504,261l-239 -121 -135 -68 0 131 353 189c174,-69 349,-153 503,-261 57,34 115,69 173,103l286 -182 0 -10 8 -127 -108 75 -164 113z"/>
     <path class="fil27" d="M8868 82108c12,106 97,203 260,244 171,44 302,15 443,-51 -193,-114 -384,-231 -576,-346 -60,45 -103,98 -127,153z"/>
     <path class="fil28" d="M8551 81117c411,-197 919,-315 1471,-315 1359,0 2461,711 2461,1590 1,549 -430,1033 -1085,1318 -392,174 -866,273 -1376,273 -1358,0 -2460,-713 -2460,-1591 0,-521 389,-985 989,-1275zm1471 3179c1416,0 2598,-647 2880,-1506 44,-128 65,-261 65,-398 0,-1052 -1318,-1903 -2945,-1903 -1626,0 -2944,851 -2944,1903 0,5 0,12 0,17 2,129 24,258 65,381 283,859 1464,1506 2879,1506z"/>
     <path class="fil31" d="M11127 82613c-5,14 -17,29 -28,43 -12,14 -27,27 -38,41 -196,-119 -393,-237 -589,-354 -46,-29 -94,-57 -141,-85 135,-52 273,-75 420,-40 130,32 504,166 376,395zm-1436 -374c-41,24 -81,45 -120,62 -141,66 -272,95 -443,51 -163,-41 -248,-138 -260,-244 -10,-98 40,-204 148,-284 228,136 456,274 683,410 -3,2 -6,4 -8,5zm-1095 -668c43,25 85,52 128,76 -30,29 -58,60 -85,94 -8,10 -17,21 -25,33 -63,93 -91,184 -93,273l0 1c-5,228 166,431 392,556 386,212 755,11 1097,-182 261,156 524,315 787,472 -44,24 -87,47 -132,67 -123,58 -252,105 -367,144 -23,7 -53,22 -85,29l0 10 135 68 239 121c175,-70 349,-153 504,-261 56,33 114,68 173,103l164 -113 108 -75 3 -1c0,-2 -1,-2 -3,-2 -1,-1 -3,-3 -3,-3 -50,-30 -100,-60 -148,-90 -18,-12 -37,-22 -55,-33 43,-50 85,-103 119,-161 14,-25 26,-49 32,-74 110,-301 -219,-543 -472,-644 -370,-150 -680,-67 -995,88 -190,-113 -378,-229 -569,-343 -40,-25 -81,-48 -121,-73 83,-36 167,-68 249,-100 25,-8 48,-18 71,-26 17,-7 30,-14 42,-23 5,-4 10,-7 13,-11l-13 -6 -337 -183c-116,45 -236,95 -349,154 -77,-46 -151,-91 -230,-138l-58 40 -213 142 0 25c17,8 40,13 55,21 13,9 29,17 42,25z"/>
     <path class="fil28" d="M8533 81677c34,22 71,42 106,64 27,-34 55,-65 85,-94 -43,-24 -85,-51 -128,-76 -13,-8 -29,-16 -42,-25 -15,-8 -38,-13 -55,-21l0 121c10,18 12,18 34,31z"/>
     <path class="fil28" d="M9573 81551c-82,32 -166,64 -249,100 40,25 81,48 121,73 60,-23 120,-47 178,-68 17,-7 43,-18 63,-28l0 -22 0 -104c-12,9 -25,16 -42,23 -23,8 -46,18 -71,26z"/>
    </g>
    <path class="fil12" d="M54325 61518c-960,960 -1489,2238 -1489,3596 0,1357 529,2635 1489,3595 960,960 2237,1488 3595,1489 1358,-1 2635,-530 3595,-1490 961,-960 1489,-2236 1489,-3595 0,-1359 -528,-2634 -1489,-3594 -960,-960 -2236,-1490 -3595,-1490 -1359,0 -2635,529 -3595,1489zm4464 -1093c943,173 1808,626 2501,1319 899,899 1396,2095 1397,3368 1,1274 -496,2470 -1397,3371 -900,900 -2096,1397 -3370,1397 -187,0 -373,-11 -556,-33 475,-3140 951,-6281 1425,-9422zm-703 2526c-261,-168 -551,-244 -862,-220 -227,16 -454,93 -669,211l-561 -561 -225 225 515 515c-131,97 -262,222 -363,350l-508 -508 -226 225 547 547c-349,587 -311,1286 196,1765 192,183 440,307 715,328 326,24 643,-104 923,-259l106 106 -624 4127c-942,-173 -1808,-626 -2500,-1318 -902,-902 -1397,-2096 -1397,-3371 1,-1273 495,-2471 1395,-3371 901,-901 2099,-1395 3373,-1396 186,0 372,11 555,32l-390 2573zm-28 4441c410,164 842,96 1224,-109l563 563 226 -226 -515 -515c131,-97 261,-221 363,-349l508 508 225 -225 -548 -548c284,-491 312,-1018 -16,-1500 -408,-593 -1000,-646 -1614,-342l-89 574 1308 1308c-103,132 -228,250 -364,349l-1037 -1037 -59 391 813 812c-322,134 -615,177 -938,20l-50 326zm-232 -2728l-62 413 -144 92 -1474 -1473c102,-130 231,-251 363,-350l1317 1318zm-1860 -697l1367 1367c-199,103 -434,195 -663,178 -199,-15 -379,-106 -523,-242 -372,-352 -414,-859 -181,-1303zm3860 1204c239,351 231,713 47,1083l-2 4 -1302 -1302c490,-238 919,-278 1257,215zm-1940 -898l-1096 -1096c146,-71 296,-117 459,-131 295,-20 558,70 784,259l-147 968z"/>
   </g>
  </g>
 </g>
</svg>
