<?xml version="1.0" encoding="UTF-8"?>
<!DOCTYPE svg PUBLIC "-//W3C//DTD SVG 1.1//EN" "http://www.w3.org/Graphics/SVG/1.1/DTD/svg11.dtd">
<!-- Creator: CorelDRAW X7 -->
<svg xmlns="http://www.w3.org/2000/svg" xml:space="preserve" width="13.037in" height="15.9185in" version="1.1" style="shape-rendering:geometricPrecision; text-rendering:geometricPrecision; image-rendering:optimizeQuality; fill-rule:evenodd; clip-rule:evenodd"
viewBox="0 0 130370 159185"
 xmlns:xlink="http://www.w3.org/1999/xlink">
 <defs>
  <style type="text/css">
   <![CDATA[
    .fil0 {fill:#F7F2E6;fill-rule:nonzero}
   ]]>
  </style>
 </defs>
 <g id="Layer_x0020_1">
  <metadata id="CorelCorpID_0Corel-Layer"/>
  <path class="fil0" d="M9719 2616c-3915,0 -7103,3191 -7103,7111l0 139755c0,3907 3188,7087 7103,7087l110944 0c3910,0 7089,-3180 7089,-7087l0 -139755c0,-3920 -3179,-7111 -7089,-7111l-110944 0zm22263 36867l3261 -3260 0 -9736 -3261 -3261 -4879 0 -3261 3261 0 9736 3261 3260 4879 0zm-4788 -3169l0 -9918 4720 0 0 9918 -4720 0zm13224 3169l0 -3260 -3351 0 0 3260 3351 0zm9964 0l3260 -3260 0 -9736 -3260 -3261 -4879 0 -3261 3261 0 9736 3261 3260 4879 0zm-4788 -3169l0 -9918 4720 0 0 9918 -4720 0zm18012 3169l3261 -3260 0 -9736 -3261 -3261 -4879 0 -3261 3261 0 9736 3261 3260 4879 0zm-4788 -3169l0 -9918 4720 0 0 9918 -4720 0zm18012 3169l3261 -3260 0 -9736 -3261 -3261 -4879 0 -3260 3261 0 9736 3260 3260 4879 0zm-4788 -3169l0 -9918 4720 0 0 9918 -4720 0zm18013 3169l3260 -3260 0 -9736 -3260 -3261 -4880 0 -3260 3261 0 9736 3260 3260 4880 0zm-4788 -3169l0 -9918 4719 0 0 9918 -4719 0zm18012 3169l3260 -3260 0 -9736 -3260 -3261 -4879 0 -3261 3261 0 9736 3261 3260 4879 0zm-4788 -3169l0 -9918 4720 0 0 9918 -4720 0zm-19350 90427c-4012,0 -7273,3258 -7273,7262 0,4019 3261,7288 7273,7288 4013,0 7274,-3269 7274,-7288 0,-4004 -3261,-7262 -7274,-7262zm0 17166c-5454,0 -9891,-4443 -9891,-9904 0,-5447 4437,-9878 9891,-9878 5455,0 9893,4431 9893,9878 0,5461 -4438,9904 -9893,9904zm-28080 -17166c-4012,0 -7274,3258 -7274,7262 0,4019 3262,7288 7274,7288 4012,0 7274,-3269 7274,-7288 0,-4004 -3262,-7262 -7274,-7262zm0 17166c-5455,0 -9892,-4443 -9892,-9904 0,-5447 4437,-9878 9892,-9878 5455,0 9892,4431 9892,9878 0,5461 -4437,9904 -9892,9904zm-28079 -17166c-4012,0 -7276,3258 -7276,7262 0,4019 3264,7288 7276,7288 4006,0 7264,-3269 7264,-7288 0,-4004 -3258,-7262 -7264,-7262zm0 17166c-5453,0 -9890,-4443 -9890,-9904 0,-5447 4437,-9878 9890,-9878 5449,0 9880,4431 9880,9878 0,5461 -4431,9904 -9880,9904zm84244 -40290c-3441,0 -7274,7606 -7274,18520 0,10912 3833,18516 7274,18516 3440,0 7274,-7604 7274,-18516 0,-10914 -3834,-18520 -7274,-18520zm0 39652c-5548,0 -9892,-9282 -9892,-21132 0,-11852 4344,-21136 9892,-21136 5547,0 9892,9284 9892,21136 0,11850 -4345,21132 -9892,21132zm-28085 -39652c-4012,0 -7273,3270 -7273,7288 0,4004 3261,7262 7273,7262 4013,0 7274,-3258 7274,-7262 0,-4018 -3261,-7288 -7274,-7288zm0 17166c-5454,0 -9891,-4431 -9891,-9878 0,-5461 4437,-9904 9891,-9904 5455,0 9893,4443 9893,9904 0,5447 -4438,9878 -9893,9878zm-28080 -17166c-4012,0 -7274,3270 -7274,7288 0,4004 3262,7262 7274,7262 4012,0 7274,-3258 7274,-7262 0,-4018 -3262,-7288 -7274,-7288zm0 17166c-5455,0 -9892,-4431 -9892,-9878 0,-5461 4437,-9904 9892,-9904 5455,0 9892,4443 9892,9904 0,5447 -4437,9878 -9892,9878zm-28079 -17166c-4012,0 -7276,3270 -7276,7288 0,4004 3264,7262 7276,7262 4006,0 7264,-3258 7264,-7262 0,-4018 -3258,-7288 -7264,-7288zm0 17166c-5453,0 -9890,-4431 -9890,-9878 0,-5461 4437,-9904 9890,-9904 5449,0 9880,4443 9880,9904 0,5447 -4431,9878 -9880,9878zm84244 -40265c-4013,0 -7274,3267 -7274,7282 0,4008 3261,7268 7274,7268 4012,0 7274,-3260 7274,-7268 0,-4015 -3262,-7282 -7274,-7282zm0 17165c-5455,0 -9892,-4432 -9892,-9883 0,-5457 4437,-9898 9892,-9898 5454,0 9892,4441 9892,9898 0,5451 -4438,9883 -9892,9883zm-28085 -17165c-4012,0 -7273,3267 -7273,7282 0,4008 3261,7268 7273,7268 4013,0 7274,-3260 7274,-7268 0,-4015 -3261,-7282 -7274,-7282zm0 17165c-5454,0 -9891,-4432 -9891,-9883 0,-5457 4437,-9898 9891,-9898 5455,0 9893,4441 9893,9898 0,5451 -4438,9883 -9893,9883zm-28080 -17165c-4012,0 -7274,3267 -7274,7282 0,4008 3262,7268 7274,7268 4012,0 7274,-3260 7274,-7268 0,-4015 -3262,-7282 -7274,-7282zm0 17165c-5455,0 -9892,-4432 -9892,-9883 0,-5457 4437,-9898 9892,-9898 5455,0 9892,4441 9892,9898 0,5451 -4437,9883 -9892,9883zm-28079 -17165c-4012,0 -7276,3267 -7276,7282 0,4008 3264,7268 7276,7268 4006,0 7264,-3260 7264,-7268 0,-4015 -3258,-7282 -7264,-7282zm0 17165c-5453,0 -9890,-4432 -9890,-9883 0,-5457 4437,-9898 9890,-9898 5449,0 9880,4441 9880,9898 0,5451 -4431,9883 -9880,9883zm84244 -40270c-4013,0 -7274,3260 -7274,7266 0,4016 3261,7284 7274,7284 4012,0 7274,-3268 7274,-7284 0,-4006 -3262,-7266 -7274,-7266zm0 17166c-5455,0 -9892,-4441 -9892,-9900 0,-5449 4437,-9882 9892,-9882 5454,0 9892,4433 9892,9882 0,5459 -4438,9900 -9892,9900zm-28085 -17166c-4012,0 -7273,3260 -7273,7266 0,4016 3261,7284 7273,7284 4013,0 7274,-3268 7274,-7284 0,-4006 -3261,-7266 -7274,-7266zm0 17166c-5454,0 -9891,-4441 -9891,-9900 0,-5449 4437,-9882 9891,-9882 5455,0 9893,4433 9893,9882 0,5459 -4438,9900 -9893,9900zm-28080 -17166c-4012,0 -7274,3260 -7274,7266 0,4016 3262,7284 7274,7284 4012,0 7274,-3268 7274,-7284 0,-4006 -3262,-7266 -7274,-7266zm0 17166c-5455,0 -9892,-4441 -9892,-9900 0,-5449 4437,-9882 9892,-9882 5455,0 9892,4433 9892,9882 0,5459 -4437,9900 -9892,9900zm-28079 -17166c-4012,0 -7276,3260 -7276,7266 0,4016 3264,7284 7276,7284 4006,0 7264,-3268 7264,-7284 0,-4006 -3258,-7266 -7264,-7266zm0 17166c-5453,0 -9890,-4441 -9890,-9900 0,-5449 4437,-9882 9890,-9882 5449,0 9880,4433 9880,9882 0,5459 -4431,9900 -9880,9900zm-7275 -28683l98968 0 0 -29082 -98968 0 0 29082zm100275 2616l-101583 0c-722,0 -1308,-586 -1308,-1308l0 -31698c0,-723 586,-1308 1308,-1308l101583 0c723,0 1308,585 1308,1308l0 31698c0,722 -585,1308 -1308,1308zm4681 110673l-110944 0c-5358,0 -9719,-4353 -9719,-9703l0 -139755c0,-5362 4361,-9727 9719,-9727l110944 0c5353,0 9707,4365 9707,9727l0 139755c0,5350 -4354,9703 -9707,9703z"/>
 </g>
</svg>
