<?xml version="1.0" encoding="UTF-8"?>
<!DOCTYPE svg PUBLIC "-//W3C//DTD SVG 1.1//EN" "http://www.w3.org/Graphics/SVG/1.1/DTD/svg11.dtd">
<!-- Creator: CorelDRAW X7 -->
<svg xmlns="http://www.w3.org/2000/svg" xml:space="preserve" width="18.538in" height="19.5928in" version="1.1" style="shape-rendering:geometricPrecision; text-rendering:geometricPrecision; image-rendering:optimizeQuality; fill-rule:evenodd; clip-rule:evenodd"
viewBox="0 0 185380 195928"
 xmlns:xlink="http://www.w3.org/1999/xlink">
 <defs>
  <style type="text/css">
   <![CDATA[
    .fil0 {fill:#F7F2E6;fill-rule:nonzero}
   ]]>
  </style>
 </defs>
 <g id="Layer_x0020_1">
  <metadata id="CorelCorpID_0Corel-Layer"/>
  <path class="fil0" d="M83146 3564c-3391,-1957 -7747,-787 -9707,2608l-69877 121031c-1954,3384 -783,7731 2608,9689l96080 55472c3386,1954 7729,791 9683,-2593l69877 -121031c1960,-3395 802,-7749 -2584,-9704l-96080 -55472zm847 43060l4453 -1193 4868 -8432 -1193 -4454 -4226 -2439 -4453 1193 -4868 8431 1193 4454 4226 2440zm-2562 -5139l4959 -8589 4087 2360 -4959 8589 -4087 -2360zm9868 9357l1630 -2824 -2903 -1675 -1630 2823 2903 1676zm8628 4982l4454 -1194 4868 -8431 -1193 -4454 -4226 -2439 -4454 1193 -4868 8431 1194 4454 4225 2440zm-2562 -5139l4960 -8589 4087 2360 -4959 8589 -4088 -2360zm14015 11751l4454 -1193 4868 -8432 -1194 -4454 -4225 -2439 -4454 1193 -4868 8431 1193 4454 4226 2440zm-2562 -5139l4959 -8589 4087 2360 -4959 8589 -4087 -2360zm14015 11751l4453 -1193 4868 -8432 -1193 -4454 -4226 -2439 -4454 1193 -4868 8432 1194 4453 4226 2440zm-2562 -5139l4959 -8589 4087 2360 -4959 8589 -4087 -2360zm14014 11751l4454 -1193 4868 -8432 -1194 -4454 -4225 -2439 -4454 1193 -4868 8432 1193 4454 4226 2439zm-2562 -5138l4959 -8590 4088 2360 -4960 8589 -4087 -2359zm14015 11750l4453 -1193 4868 -8431 -1193 -4454 -4226 -2440 -4454 1193 -4867 8432 1193 4454 4226 2439zm-2562 -5138l4959 -8590 4087 2360 -4959 8590 -4087 -2360zm-61971 68637c-3475,-2006 -7928,-816 -9930,2653 -2010,3480 -820,7942 2655,9948 3475,2006 7934,805 9943,-2675 2003,-3468 807,-7920 -2668,-9926zm-8583 14866c-4724,-2727 -6345,-8793 -3615,-13522 2724,-4718 8782,-6336 13506,-3609 4724,2727 6351,8783 3628,13500 -2731,4730 -8795,6359 -13519,3631zm-15735 -28906c-3475,-2006 -7929,-816 -9931,2652 -2009,3480 -819,7943 2656,9949 3474,2006 7934,805 9943,-2675 2003,-3468 806,-7920 -2668,-9926zm-8583 14866c-4724,-2728 -6346,-8794 -3615,-13523 2723,-4717 8781,-6336 13506,-3608 4724,2727 6351,8783 3628,13500 -2731,4730 -8795,6359 -13519,3631zm-15735 -28906c-3474,-2006 -7930,-817 -9932,2652 -2009,3480 -817,7943 2657,9949 3470,2003 7926,801 9935,-2679 2003,-3468 810,-7918 -2660,-9922zm-8583 14866c-4722,-2726 -6343,-8792 -3613,-13521 2724,-4718 8782,-6336 13504,-3610 4719,2724 6341,8777 3618,13495 -2731,4729 -8790,6361 -13509,3636zm93103 7230c-2980,-1721 -10103,2950 -15560,12402 -5456,9450 -5938,17952 -2958,19672 2980,1721 10101,-2948 15557,-12398 5458,-9452 5941,-17956 2961,-19676zm-19826 34340c-4804,-2774 -3926,-12985 1999,-23247 5926,-10264 14331,-16132 19135,-13358 4804,2773 3924,12986 -2002,23250 -5925,10262 -14328,16128 -19132,13355zm-4496 -48382c-3475,-2006 -7934,-805 -9943,2675 -2002,3467 -807,7919 2668,9925 3475,2007 7928,816 9930,-2651 2010,-3480 820,-7943 -2655,-9949zm-8583 14866c-4724,-2727 -6351,-8783 -3628,-13500 2731,-4730 8795,-6359 13519,-3632 4724,2728 6345,8794 3615,13524 -2724,4717 -8782,6336 -13506,3608zm-15735 -28906c-3475,-2006 -7935,-805 -9944,2675 -2002,3467 -806,7919 2669,9925 3475,2006 7928,816 9930,-2651 2010,-3480 820,-7943 -2655,-9949zm-8583 14866c-4724,-2727 -6351,-8784 -3628,-13501 2731,-4729 8795,-6358 13519,-3631 4724,2728 6345,8794 3615,13524 -2724,4717 -8782,6336 -13506,3608zm-15734 -28906c-3475,-2006 -7937,-806 -9946,2674 -2002,3468 -804,7921 2671,9927 3469,2003 7919,811 9922,-2657 2009,-3480 822,-7941 -2647,-9944zm-8584 14866c-4722,-2726 -6349,-8782 -3626,-13499 2731,-4730 8795,-6359 13517,-3632 4719,2724 6336,8787 3605,13517 -2723,4717 -8777,6339 -13496,3614zm93090 7252c-3475,-2007 -7933,-807 -9940,2669 -2004,3471 -810,7925 2665,9931 3475,2006 7930,814 9934,-2657 2007,-3476 816,-7937 -2659,-9943zm-8582 14866c-4725,-2728 -6351,-8785 -3625,-13506 2728,-4726 8791,-6353 13515,-3626 4724,2728 6346,8792 3618,13518 -2726,4721 -8785,6341 -13508,3614zm-15740 -28909c-3474,-2006 -7932,-806 -9940,2670 -2004,3471 -809,7925 2665,9931 3476,2006 7930,814 9934,-2657 2007,-3477 817,-7937 -2659,-9944zm-8582 14866c-4724,-2727 -6351,-8784 -3625,-13505 2729,-4726 8792,-6353 13515,-3626 4725,2728 6347,8792 3618,13518 -2725,4721 -8784,6341 -13508,3613zm-15736 -28906c-3474,-2006 -7933,-807 -9940,2670 -2004,3471 -809,7925 2666,9931 3474,2006 7929,814 9933,-2657 2007,-3477 816,-7937 -2659,-9944zm-8582 14866c-4725,-2727 -6351,-8784 -3625,-13505 2728,-4726 8791,-6353 13515,-3626 4725,2728 6347,8792 3618,13518 -2725,4721 -8784,6341 -13508,3613zm-15735 -28905c-3475,-2006 -7935,-808 -9942,2668 -2004,3471 -808,7926 2667,9932 3470,2004 7921,810 9925,-2662 2007,-3476 820,-7935 -2650,-9938zm-8583 14866c-4722,-2727 -6349,-8784 -3623,-13505 2728,-4726 8791,-6353 13514,-3627 4719,2725 6336,8787 3607,13512 -2725,4721 -8779,6344 -13498,3620zm93093 7247c-3475,-2007 -7930,-814 -9933,2655 -2008,3478 -817,7939 2658,9945 3474,2006 7933,807 9941,-2671 2003,-3469 808,-7923 -2666,-9929zm-8583 14866c-4724,-2728 -6347,-8793 -3617,-13520 2725,-4719 8784,-6340 13508,-3612 4724,2727 6350,8785 3625,13504 -2729,4727 -8792,6355 -13516,3628zm-15739 -28909c-3475,-2006 -7929,-813 -9932,2656 -2008,3478 -818,7939 2657,9945 3475,2006 7933,807 9942,-2671 2002,-3470 808,-7923 -2667,-9930zm-8583 14866c-4724,-2727 -6346,-8792 -3616,-13519 2724,-4719 8783,-6340 13507,-3612 4724,2727 6350,8785 3626,13504 -2730,4727 -8793,6355 -13517,3627zm-15735 -28906c-3475,-2006 -7930,-814 -9933,2655 -2008,3479 -817,7940 2658,9946 3474,2006 7933,807 9942,-2671 2002,-3470 807,-7924 -2667,-9930zm-8583 14866c-4724,-2727 -6347,-8792 -3617,-13520 2725,-4718 8784,-6339 13508,-3611 4724,2727 6350,8785 3626,13504 -2730,4727 -8793,6355 -13517,3627zm-15735 -28905c-3474,-2006 -7931,-815 -9934,2654 -2008,3478 -815,7940 2659,9946 3470,2003 7925,802 9934,-2676 2003,-3469 811,-7921 -2659,-9924zm-8583 14866c-4722,-2727 -6344,-8791 -3614,-13519 2724,-4719 8783,-6340 13505,-3613 4719,2724 6340,8779 3616,13498 -2730,4728 -8788,6358 -13507,3634zm8042 -28478l85708 49484 14541 -25186 -85708 -49484 -14541 25186zm85533 52403l-87974 -50792c-626,-361 -840,-1161 -479,-1786l15849 -27452c361,-626 1161,-839 1787,-478l87974 50791c625,362 840,1161 478,1787l-15849 27451c-361,626 -1161,840 -1786,479zm-51283 98186l-96080 -55472c-4641,-2679 -6241,-8629 -3566,-13263l69877 -121031c2682,-4644 8640,-6243 13281,-3564l96080 55472c4636,2676 6224,8633 3543,13277l-69877 121031c-2675,4634 -8623,6226 -13258,3550z"/>
 </g>
</svg>
