<?xml version="1.0" encoding="UTF-8"?>
<!DOCTYPE svg PUBLIC "-//W3C//DTD SVG 1.1//EN" "http://www.w3.org/Graphics/SVG/1.1/DTD/svg11.dtd">
<!-- Creator: CorelDRAW X7 -->
<svg xmlns="http://www.w3.org/2000/svg" xml:space="preserve" width="21.3945in" height="10.5635in" version="1.1" style="shape-rendering:geometricPrecision; text-rendering:geometricPrecision; image-rendering:optimizeQuality; fill-rule:evenodd; clip-rule:evenodd"
viewBox="0 0 213945 105635"
 xmlns:xlink="http://www.w3.org/1999/xlink">
 <defs>
  <style type="text/css">
   <![CDATA[
    .fil30 {fill:#FFC632}
    .fil25 {fill:#FAAB30}
    .fil26 {fill:#F79333}
    .fil23 {fill:#2F2718}
    .fil15 {fill:#6168A8}
    .fil33 {fill:#657AA9}
    .fil34 {fill:#7C94CA}
    .fil35 {fill:#95A9D4}
    .fil20 {fill:#A38755}
    .fil36 {fill:#B8C5E2}
    .fil31 {fill:#BB9B61}
    .fil24 {fill:#D2AE6D}
    .fil37 {fill:#D6BB8A}
    .fil27 {fill:#DCBB79}
    .fil1 {fill:#DCC08D}
    .fil9 {fill:#E7D3AD}
    .fil2 {fill:#ECD6B2}
    .fil28 {fill:#EDD7B2}
    .fil29 {fill:#F2E2C7}
    .fil0 {fill:#F4E3C8}
    .fil21 {fill:#F5EEE0}
    .fil22 {fill:#4A458F;fill-rule:nonzero}
    .fil12 {fill:#576074;fill-rule:nonzero}
    .fil19 {fill:#5D4D30;fill-rule:nonzero}
    .fil11 {fill:#657AA9;fill-rule:nonzero}
    .fil14 {fill:#6C87C3;fill-rule:nonzero}
    .fil10 {fill:#899FCF;fill-rule:nonzero}
    .fil13 {fill:#A0B2D8;fill-rule:nonzero}
    .fil32 {fill:#B0BEDF;fill-rule:nonzero}
    .fil7 {fill:#BB9B61;fill-rule:nonzero}
    .fil39 {fill:#C19C00;fill-rule:nonzero}
    .fil4 {fill:#D6BB8A;fill-rule:nonzero}
    .fil18 {fill:#D7B77D;fill-rule:nonzero}
    .fil6 {fill:#E9D1A9;fill-rule:nonzero}
    .fil3 {fill:#ECD6B2;fill-rule:nonzero}
    .fil38 {fill:#EFE3CC;fill-rule:nonzero}
    .fil5 {fill:#F4E3C8;fill-rule:nonzero}
    .fil17 {fill:#F5EEE0;fill-rule:nonzero}
    .fil8 {fill:#F6EFE2;fill-rule:nonzero}
    .fil16 {fill:white;fill-rule:nonzero}
   ]]>
  </style>
 </defs>
 <g id="Layer_x0020_1">
  <metadata id="CorelCorpID_0Corel-Layer"/>
  <g id="_2136904594336">
   <g>
    <path class="fil0" d="M213945 54220c0,-13610 -11033,-24643 -24643,-24643 -13609,0 -24642,11033 -24642,24643 0,13610 11033,24642 24642,24642 13610,0 24643,-11032 24643,-24642z"/>
    <path class="fil1" d="M193951 61192l0 4653 -18598 0 0 -4653 18598 0zm-18598 -13950l0 -4648c9296,0 18597,0 27899,0l-4648 4648c-7754,0 -15503,0 -23251,0zm27899 18603l-4648 0 0 -9301 -23251 0 0 -4653 27899 0c0,4651 0,9303 0,13954z"/>
    <path class="fil2" d="M188234 78841l37 0c-11,0 -21,0 -37,0zm-23579 -24621c0,-13267 10484,-24085 23616,-24627l-37 0 -964 -21 -31 0c-13611,0 -24648,11037 -24648,24648 0,13611 11037,24642 24648,24642 333,0 667,-5 1000,-21 -13116,-557 -23584,-11370 -23584,-24621l0 0z"/>
   </g>
   <path class="fil0" d="M53546 38555c3619,3397 9935,1544 13641,-750 3979,-2464 7060,-6617 7396,-11381 620,-8773 -10026,-8812 -15621,-5849 -5026,2661 -8313,7997 -7440,13756 32,211 70,421 115,629 287,1348 905,2652 1909,3595z"/>
   <g>
    <path class="fil3" d="M132123 94435c0,7908 -35038,10382 -41484,10771 -16084,970 -32351,282 -48160,-1912 -12014,-1668 -22540,-4412 -22540,-8859 0,-6129 25113,-11097 56092,-11097 30979,0 56092,4968 56092,11097z"/>
    <path class="fil4" d="M122138 95260c0,10381 -77598,9380 -77598,0 0,-4178 14379,-7565 36871,-7565 22493,0 40727,3387 40727,7565z"/>
    <path class="fil5" d="M23768 87558c-3822,-1865 -6476,-4633 -5219,-8606 517,-1638 1762,-3445 4139,-5137 1541,-1556 2317,-3113 2024,-5839 -478,-4442 -2017,-6429 -2299,-9957 -984,-12304 13592,-17995 23648,-16180 6465,1166 10915,4222 15770,3880 11399,-802 15129,-16271 21050,-24079 2546,-3357 5397,-6044 8646,-8046 7248,-4465 18844,-5825 28110,-2935 10000,3117 14549,9941 14497,17904 -68,10527 -7972,16496 -7644,26036 286,8321 7292,8657 6774,19217 -425,8669 -6537,13615 -14581,15157 -15030,2879 -80450,5642 -94915,-1415z"/>
    <path class="fil6" d="M31843 49708c9434,-6432 18328,-153 13216,6187 -3170,3931 -10958,6383 -15513,4056 -1642,-839 -2607,-2377 -2012,-4941 441,-1898 2119,-3810 4309,-5302z"/>
    <path class="fil7" d="M52005 95160c0,-802 914,-1453 2042,-1453 1128,0 2042,651 2042,1453l-4084 0z"/>
    <path class="fil7" d="M97554 97254c0,-802 914,-1452 2042,-1452 1128,0 2042,650 2042,1452l-4084 0z"/>
    <path class="fil7" d="M27951 95168c0,-710 809,-1286 1807,-1286 998,0 1808,576 1808,1286l-3615 0z"/>
    <path class="fil7" d="M39583 95810c0,-457 522,-828 1165,-828 643,0 1164,371 1164,828l-2329 0z"/>
    <path class="fil7" d="M104630 93178c0,-1177 1342,-2131 2997,-2131 1654,0 2996,954 2996,2131l-5993 0z"/>
    <path class="fil7" d="M67314 98246c0,-1177 1341,-2131 2996,-2131 1655,0 2996,954 2996,2131l-5992 0z"/>
    <path class="fil7" d="M82743 97932c0,-588 670,-1065 1498,-1065 827,0 1498,477 1498,1065l-2996 0z"/>
    <path class="fil7" d="M115386 95641c0,-752 858,-1362 1916,-1362 1058,0 1916,610 1916,1362l-3832 0z"/>
    <path class="fil7" d="M41549 95807c0,-911 1039,-1650 2321,-1650 1282,0 2321,739 2321,1650l-4642 0z"/>
    <path class="fil7" d="M72443 98246c0,-589 670,-1066 1498,-1066 827,0 1498,477 1498,1066l-2996 0z"/>
    <path class="fil8" d="M125465 29208c284,2066 1356,2970 2374,2765 1733,-348 2089,-2651 1989,-4802 -144,-3070 -1179,-6223 -3422,-8413 -1968,-1921 -5170,-1366 -4870,1125 206,1710 1927,3112 2796,4609 780,1343 805,2343 1133,4716z"/>
    <path class="fil9" d="M131744 50216c1414,47 2548,1207 2556,2645l23 0c12,-1438 1145,-2598 2556,-2645 -1418,-46 -2556,-1218 -2556,-2663l-19 0c0,1445 -1138,2617 -2560,2663z"/>
    <path class="fil2" d="M14053 89211c1099,35 1979,937 1985,2053l18 0c9,-1116 889,-2018 1985,-2053 -1102,-36 -1985,-947 -1985,-2069l-15 0c0,1122 -883,2033 -1988,2069z"/>
    <g>
     <path class="fil5" d="M0 11123c667,-297 1345,-571 2032,-820 8062,-2923 17343,-2592 24553,-7239 1383,-892 2638,-1937 3828,-3064l33098 0c-8369,968 -15921,1507 -19615,6614 -1927,2665 -2121,5235 -2308,7802 -653,8987 -4048,10917 -12782,12234 -2335,352 -4445,603 -6582,1379 -9496,3445 -12062,9258 -12165,15925 -289,18654 9879,29209 -10059,46019l0 -78850z"/>
     <path class="fil8" d="M40035 0c-4815,3137 -6709,7123 -9714,11856 -6816,10737 -17928,14899 -30321,11840l0 -23696 40035 0z"/>
    </g>
    <g>
     <polygon class="fil10" points="121457,52400 93068,52400 98689,58020 78319,78390 93567,93639 113937,73269 121457,80789 "/>
     <polygon class="fil11" points="91941,91998 91124,91182 113937,68368 117991,72422 117991,55866 101435,55866 103590,58020 80776,80834 79959,80017 101956,58020 98646,54710 119146,54710 119146,75211 113937,70001 "/>
     <polygon class="fil12" points="82825,58016 98074,73265 93568,93639 78318,78390 "/>
     <polygon class="fil11" points="77701,93639 62452,78390 82826,58016 98075,73265 "/>
     <polygon class="fil10" points="64912,80850 64095,80033 84470,59659 85286,60476 "/>
     <polygon class="fil10" points="76076,92015 75260,91198 95634,70823 96451,71640 "/>
     <polygon class="fil12" points="70013,58016 85262,73265 77701,93639 62452,78390 "/>
     <polygon class="fil10" points="59278,99249 44029,84000 70013,58016 85262,73265 "/>
     <polygon class="fil11" points="59278,95981 47296,84000 71638,59659 72455,60476 48930,84000 59278,94348 82802,70823 83619,71640 "/>
     <path class="fil11" d="M48113 84000l3015 -3003c794,797 1240,1878 1240,3003 0,1147 -463,2246 -1284,3046l-2971 -3046z"/>
     <path class="fil11" d="M59281 95168l-3037 -2980c800,-815 1895,-1275 3037,-1275 1142,0 2238,460 3038,1276l-3038 2979z"/>
     <path class="fil13" d="M71022 79399c-1973,1973 -5171,1973 -7143,0 -1973,-1972 -1973,-5171 0,-7143 1972,-1972 5170,-1972 7143,0 1973,1972 1973,5171 0,7143z"/>
    </g>
    <g>
     <path class="fil14" d="M108926 39242c0,0 3909,3511 4306,4792 398,1279 -2327,7390 -2327,7390l1705 976 -3178 0c0,0 775,-4892 1337,-6613 -1087,-568 -3826,-2968 -3826,-2968l-1658 5452 -282 6115 -2511 1127 1332 -1825c0,0 -787,-4441 -1124,-5709 -337,-1268 244,-6072 403,-7601 159,-1528 4777,-1638 5823,-1136z"/>
     <path class="fil15" d="M103103 40379c-137,1317 -587,5068 -493,6890 150,-3268 2993,-7086 2993,-7086 -497,104 -1513,-62 -2324,-221 -98,125 -160,263 -176,417z"/>
     <path class="fil15" d="M111320 45434l-4377 -2614c0,0 2739,2399 3826,2967 -472,1447 -1095,5133 -1282,6271 634,10 1302,18 1586,15 340,-4 459,-168 385,-333l-553 -316c-700,-115 -962,-618 -962,-618l1377 -5372z"/>
     <path class="fil16" d="M108365 27442c-26,181 -592,4937 -592,4937 0,0 1054,373 1404,-233 349,-607 1,-4857 1,-4857l-813 153z"/>
     <path class="fil17" d="M109227 27960c-27,-406 -49,-671 -49,-671l-813 153c-11,77 -119,970 -239,1976l373 -763 728 -695z"/>
     <path class="fil16" d="M104879 30891l729 1423c0,0 13,713 -757,816 -770,104 -950,-328 -950,-328l-76 -1779c0,0 703,-284 1054,-132z"/>
     <path class="fil18" d="M104918 32133c598,-192 1319,-328 2153,-320 1476,-111 2813,-328 2813,-328 0,0 709,962 663,2147 0,0 -1362,1064 -2766,1283 -85,680 511,3643 1145,4326 -339,688 -3720,1843 -5823,1137 -415,-620 -394,-3468 -330,-5366 45,-1313 893,-2478 2145,-2879z"/>
     <path class="fil17" d="M103825 31023l54 1260c681,-138 1177,-1046 1177,-1046l0 0 -177 -346c-351,-152 -1054,132 -1054,132z"/>
     <path class="fil19" d="M110905 51424c0,0 -946,91 -1317,28 -97,575 -156,948 -156,948l3178 0 -1705 -976z"/>
     <path class="fil19" d="M105052 53328c-422,313 -1228,360 -1228,360l-1332 1825 2511 -1127 49 -1058z"/>
     <polygon class="fil15" points="105285,48272 106943,42820 104818,47661 105067,53005 "/>
     <path class="fil20" d="M107781 34915l-1747 127c0,0 1274,3643 2892,4200 -634,-684 -1230,-3647 -1145,-4327z"/>
     <path class="fil21" d="M103825 31023l54 1260c681,-138 1177,-1046 1177,-1046l-177 -346c-351,-152 -1054,132 -1054,132z"/>
     <path class="fil21" d="M109178 27289l-813 153c-11,77 -119,970 -239,1976l373 -763 728 -695c-27,-407 -49,-671 -49,-671z"/>
     <path class="fil22" d="M105197 48315c-22,-4 -38,-23 -37,-45 0,0 3,-63 10,-176 1,-24 22,-43 47,-41 26,1 42,22 41,47 -7,111 -9,173 -9,173 -2,25 -22,43 -46,43 -2,-1 -4,0 -6,-1zm4734 3026l-2 0c-24,-6 -38,-29 -33,-53l38 -171c5,-24 27,-34 53,-33 23,5 38,29 33,52l-38 171c-5,23 -28,38 -51,34zm-2555 -9067c-4,-1 -7,-1 -11,-3 -120,-54 -228,-94 -320,-119 -24,-6 -38,-30 -32,-53 7,-24 30,-39 54,-32 98,26 210,67 335,123 22,11 32,37 22,59 -9,19 -29,29 -48,25zm613 335c-6,-1 -11,-3 -16,-6 -104,-64 -204,-123 -299,-176 -21,-12 -29,-38 -18,-60 12,-21 39,-30 60,-17 97,53 199,114 304,179 20,12 26,39 14,60 -10,16 -28,23 -45,20zm-1526 -212c-6,-1 -13,-4 -18,-8 -20,-15 -24,-42 -9,-61 65,-88 134,-164 203,-225 17,-15 35,-27 56,-37 22,-10 48,0 58,22 11,22 1,48 -21,58 -13,7 -25,14 -35,23 -64,57 -129,129 -190,211 -11,14 -28,20 -44,17zm2106 602c-7,-1 -13,-3 -18,-7 -97,-69 -192,-136 -286,-199 -21,-14 -26,-41 -12,-62 13,-20 41,-25 61,-12 95,64 191,131 288,201 20,14 25,42 10,62 -10,14 -27,20 -43,17zm557 422c-7,-1 -14,-4 -20,-9 -92,-72 -183,-144 -275,-213 -20,-15 -23,-43 -9,-62 15,-20 42,-23 62,-9 92,70 185,142 277,215 19,16 22,43 7,62 -11,14 -27,19 -42,16zm-3000 -414c-3,-1 -7,-2 -10,-3 -22,-10 -33,-36 -23,-58 50,-115 101,-222 153,-318 12,-22 39,-29 60,-18 21,12 30,39 18,60 -51,94 -102,198 -150,311 -8,19 -28,29 -48,26zm3537 862c-7,-2 -15,-5 -21,-11 -87,-76 -176,-151 -266,-226 -18,-15 -20,-43 -5,-62 15,-19 43,-21 62,-5 90,75 179,151 267,226 18,17 20,44 4,63 -10,12 -26,17 -41,15zm517 470c-9,-1 -16,-5 -23,-11 -82,-79 -167,-159 -255,-238 -18,-16 -19,-45 -2,-63 16,-17 44,-18 62,-2 88,80 173,160 256,239 18,17 18,45 1,63 -10,11 -25,15 -39,12zm-4290 -675c-1,-1 -3,-1 -5,-2 -23,-7 -36,-31 -29,-54 36,-118 73,-231 109,-334 8,-23 35,-35 57,-27 23,8 34,33 27,56 -37,102 -73,214 -109,330 -6,22 -28,35 -50,31zm4778 1175c-9,-1 -18,-6 -25,-14 -74,-82 -154,-167 -238,-253 -18,-17 -17,-45 0,-62 18,-17 46,-17 63,1 85,86 165,172 241,255 16,18 15,46 -3,63 -11,9 -25,13 -38,10zm-4956 -501l-2 0c-24,-5 -39,-29 -33,-53 26,-115 54,-229 84,-340 6,-24 29,-38 54,-31 23,6 37,30 31,53 -29,111 -57,224 -83,338 -5,23 -28,38 -51,33zm5390 1048c-12,-2 -23,-8 -30,-19 -54,-85 -123,-179 -203,-278 -16,-19 -12,-47 6,-62 19,-15 47,-12 62,6 83,103 153,199 209,286 14,20 8,48 -12,61 -10,6 -22,8 -32,6zm-5531 -363l-1 0c-24,-5 -40,-28 -35,-52 21,-115 43,-230 67,-344 5,-23 27,-39 51,-34l1 0c24,5 39,28 34,52 -23,114 -45,228 -66,342 -4,24 -28,40 -51,36zm5508 1032l-1 0c-24,-5 -40,-28 -35,-52 26,-132 49,-247 66,-343 5,-24 28,-40 51,-35l1 0c24,4 40,27 35,51 -18,96 -40,212 -66,344 -5,24 -28,39 -51,35zm-5623 -344c-23,-4 -39,-26 -35,-50 16,-114 35,-230 54,-346 4,-24 27,-40 51,-36 22,8 40,27 36,51 -19,115 -37,230 -54,344 -3,24 -26,41 -50,37l-2 0zm5482 1029l-2 0c-23,-6 -39,-29 -34,-53l71 -342c5,-23 28,-38 51,-34l2 0c24,5 39,28 34,52l-71 343c-5,23 -28,38 -51,34zm-5574 -337c-23,-4 -39,-25 -36,-49 13,-113 28,-229 44,-347 3,-24 25,-41 49,-37l2 0c23,4 39,26 36,49 -16,118 -30,233 -44,346 -3,24 -25,41 -49,38l-2 0zm5429 1021l-2 0c-24,-5 -39,-29 -34,-53l73 -342c5,-23 30,-41 53,-33 23,5 39,28 34,52l-74 342c-4,23 -27,38 -50,34zm-5504 -327c-23,-4 -39,-25 -37,-48 11,-111 23,-227 36,-347 2,-25 24,-42 48,-40 25,1 43,25 40,49 -13,120 -25,236 -36,347 -2,24 -24,42 -48,40 -1,-1 -2,-1 -3,-1zm5356 1010l-2 0c-23,-5 -39,-29 -33,-52l74 -342c5,-23 27,-38 50,-34l2 0c24,5 39,29 34,53l-74 341c-5,23 -28,38 -51,34zm-5416 -314c-22,-4 -38,-24 -36,-47 7,-104 17,-221 28,-348 1,-25 23,-43 47,-40 25,-1 43,23 40,47 -10,127 -19,244 -27,348 -2,24 -23,42 -47,41 -2,-1 -3,-1 -5,-1zm5267 997l-2 0c-23,-5 -38,-29 -33,-53l74 -341c5,-24 25,-38 53,-34 24,6 39,29 34,53l-75 341c-5,23 -28,38 -51,34zm-150 683l-2 0c-24,-6 -39,-29 -33,-53l75 -341c6,-24 28,-36 52,-34 25,5 40,29 34,52l-75 342c-5,23 -28,38 -51,34zm-151 683l-2 -1c-24,-5 -39,-29 -33,-52l75 -341c6,-24 25,-36 53,-34 24,5 39,29 34,53l-76 341c-5,23 -28,38 -51,34zm-152 682l-2 0c-24,-5 -38,-29 -33,-53l76 -341c5,-24 28,-39 53,-34 23,6 38,29 33,53l-76 341c-5,24 -28,39 -51,34z"/>
     <path class="fil19" d="M106547 27883l5858 -3778c0,0 904,1229 789,2018l-6310 2221c0,0 -331,123 -337,-461z"/>
     <path class="fil23" d="M111220 25618c-310,177 -867,436 -814,755 48,297 -2937,1477 -3786,1857 99,171 264,114 264,114l6310 -2221c115,-790 -789,-2018 -789,-2018 0,0 190,1658 -333,1874 -423,-29 -542,-538 -852,-361z"/>
     <path class="fil16" d="M109884 31485l748 -241 217 -3296 -821 -711 508 -211c0,0 -179,-639 -140,-983 39,-344 250,-454 823,-301 309,135 657,1153 451,1777 -207,624 249,4349 375,4941 126,593 -1498,1172 -1498,1172 0,0 -785,202 -1143,-603 -357,-806 480,-1544 480,-1544z"/>
     <path class="fil16" d="M104846 28422c0,0 1262,1226 1192,1760 -71,535 -638,1090 -2096,1424 -516,-18 -1250,-1467 -1274,-1785 -154,-2083 1593,-1686 2178,-1399z"/>
     <path class="fil19" d="M103553 29330c0,0 1897,-534 1973,-1532 76,-997 -1559,-1318 -2224,-932 -283,164 -407,410 -553,686 -163,311 -396,436 -692,639 -95,66 -191,131 -273,212 -573,566 96,2255 561,2712 639,630 1565,415 1480,-92 -84,-506 -779,-1512 -272,-1693z"/>
    </g>
    <g>
     <path class="fil24" d="M135808 93949c-329,1001 -1706,1754 -3355,1754 -1647,0 -3023,-753 -3352,-1754 -49,-143 -74,-292 -76,-443l0 906c0,1225 1535,2218 3428,2218 1895,0 3430,-993 3430,-2218l0 -925c0,158 -25,313 -75,462z"/>
     <path class="fil25" d="M133303 93283c-172,-40 -333,-13 -490,47 54,33 111,66 165,98 97,-17 197,-17 300,8 119,29 416,134 462,308 149,-267 -286,-424 -437,-461z"/>
     <path class="fil25" d="M133977 94029c21,13 42,25 63,38 18,-23 35,-48 49,-73 48,-83 67,-163 63,-238 -7,29 -21,56 -38,85 -39,68 -87,129 -137,188z"/>
     <path class="fil26" d="M133278 93436c-103,-25 -203,-25 -300,-8 228,138 456,275 685,413 13,-16 31,-31 45,-47 13,-17 27,-34 32,-50 -46,-174 -343,-279 -462,-308z"/>
     <path class="fil25" d="M132440 93522c-399,224 -829,459 -1278,210 -263,-145 -463,-380 -457,-646 -104,325 118,625 432,800 449,247 879,13 1277,-211 262,156 525,315 788,473 53,-22 103,-49 153,-77 -306,-184 -611,-368 -915,-549z"/>
     <path class="fil27" d="M130680 92476l0 -29 248 -164 68 -47c91,55 178,106 267,161 131,-70 271,-128 406,-180l393 213 16 7c-4,4 -10,8 -16,12l0 122 0 25c-23,12 -54,25 -73,33 -68,25 -138,52 -207,79 222,134 441,268 661,400 368,-181 728,-277 1160,-104 294,119 678,401 549,752 4,75 -15,155 -63,238 -14,25 -31,50 -49,73 56,35 115,70 173,105 0,0 2,2 4,4 1,0 3,0 3,2l-3 2 -10 147 0 11 -333 213c-68,-41 -135,-81 -201,-120 -181,126 -384,223 -587,304l-410 -220 0 -153 0 -12c37,-8 71,-25 99,-33 133,-46 284,-101 427,-169 -263,-158 -527,-317 -788,-473 -398,224 -828,458 -1277,211 -314,-175 -536,-475 -432,-800l0 -2c2,-103 35,-209 108,-317 10,-14 20,-27 30,-40 -41,-24 -84,-48 -124,-73 -25,-15 -27,-15 -39,-36l0 -142zm1773 2863c594,0 1146,-116 1603,-317 763,-333 1264,-896 1264,-1535 0,-1024 -1283,-1853 -2867,-1853 -642,0 -1235,138 -1713,368 -699,337 -1152,877 -1152,1485 0,1022 1284,1852 2865,1852z"/>
     <path class="fil25" d="M131110 93155c27,-63 77,-125 147,-178 224,134 447,270 671,403 45,-19 92,-44 140,-72 2,-1 6,-3 10,-5 -266,-159 -531,-319 -796,-478 -126,92 -184,216 -172,330z"/>
     <path class="fil28" d="M133899 94398c-68,-40 -135,-81 -201,-120 -180,126 -384,223 -587,304l-278 -141 -157 -79 0 153 410 220c203,-81 406,-178 587,-304 66,39 133,79 201,120l333 -213 0 -11 10 -147 -126 87 -192 131z"/>
     <path class="fil26" d="M131110 93155c13,124 112,237 302,285 199,51 352,18 516,-60 -224,-133 -447,-269 -671,-403 -70,53 -120,115 -147,178z"/>
     <path class="fil29" d="M130740 92002c478,-230 1071,-368 1713,-368 1584,0 2867,829 2867,1853 0,639 -501,1202 -1264,1535 -457,201 -1009,317 -1603,317 -1581,0 -2865,-830 -2865,-1852 0,-608 453,-1148 1152,-1485zm1713 3701c1649,0 3026,-753 3355,-1754 50,-149 75,-304 75,-462 0,-1226 -1535,-2216 -3430,-2216 -1893,0 -3428,990 -3428,2216 0,6 0,13 0,19 2,151 27,300 76,443 329,1001 1705,1754 3352,1754z"/>
     <path class="fil30" d="M133740 93744c-5,16 -19,33 -32,50 -14,16 -32,31 -45,47 -229,-138 -457,-275 -685,-413 -54,-32 -111,-65 -165,-98 157,-60 318,-87 490,-47 151,37 586,194 437,461zm-1672 -436c-48,28 -95,53 -140,72 -164,78 -317,111 -516,60 -190,-48 -289,-161 -302,-285 -12,-114 46,-238 172,-330 265,159 530,319 796,478 -4,2 -8,4 -10,5zm-1276 -777c51,29 99,59 150,88 -35,34 -68,70 -99,108 -10,13 -20,26 -30,40 -73,108 -106,214 -108,317l0 2c-6,266 194,501 457,646 449,249 879,14 1278,-210 304,181 609,365 915,549 -50,28 -100,55 -153,77 -143,68 -294,123 -427,169 -28,8 -62,25 -100,33l1 12 157 79 278 141c203,-81 407,-178 587,-304 66,39 133,80 201,120l192 -131 126 -87 4 -2c0,-2 -3,-2 -4,-2 -2,-2 -4,-4 -4,-4 -58,-35 -117,-70 -173,-105 -21,-13 -42,-25 -63,-38 50,-59 98,-120 137,-188 17,-29 31,-56 38,-85 129,-351 -255,-633 -549,-752 -432,-173 -792,-77 -1160,104 -220,-132 -439,-266 -661,-400 -47,-29 -95,-55 -142,-85 97,-42 196,-79 291,-116 29,-9 56,-21 83,-31 19,-7 35,-15 48,-27 6,-4 12,-8 16,-12l-16 -7 -393 -213c-135,52 -275,110 -406,180 -89,-55 -176,-106 -267,-161l-68 47 -248 164 0 29c19,10 47,16 64,25 15,10 33,20 48,30z"/>
     <path class="fil25" d="M130719 92654c40,25 83,49 124,73 31,-38 64,-74 99,-108 -51,-29 -99,-59 -150,-88 -15,-10 -33,-20 -48,-30 -17,-9 -45,-15 -64,-25l0 142c12,21 13,21 39,36z"/>
     <path class="fil25" d="M131931 92507c-95,37 -194,74 -291,116 47,30 95,56 142,85 69,-27 139,-54 207,-79 19,-8 50,-21 73,-33l0 -25 0 -122c-13,12 -29,20 -48,27 -27,10 -54,22 -83,31z"/>
     <path class="fil31" d="M137095 91991c-329,1000 -1705,1753 -3355,1753 -1647,0 -3023,-753 -3352,-1753 -48,-144 -74,-293 -76,-444l0 906c0,1225 1535,2218 3428,2218 1896,0 3430,-993 3430,-2218l1 -925c0,159 -26,314 -76,463z"/>
     <path class="fil28" d="M134590 91325c-172,-41 -333,-14 -490,46 55,33 111,66 165,99 97,-18 197,-18 300,7 120,30 416,134 462,308 150,-267 -286,-423 -437,-460z"/>
     <path class="fil28" d="M135263 92070c22,13 43,25 64,38 18,-23 35,-48 49,-73 48,-83 68,-163 64,-238 -8,29 -21,56 -38,85 -40,68 -88,130 -139,188z"/>
     <path class="fil27" d="M134565 91477c-103,-25 -204,-25 -300,-7 228,137 457,274 685,412 13,-15 31,-31 45,-47 13,-17 27,-34 32,-50 -46,-174 -342,-278 -462,-308z"/>
     <path class="fil28" d="M133727 91563c-399,224 -829,459 -1278,211 -263,-145 -462,-382 -457,-647 -104,325 119,626 432,800 449,247 879,13 1277,-211 262,156 525,315 788,474 53,-24 103,-51 153,-78 -305,-183 -612,-368 -915,-549z"/>
     <path class="fil27" d="M131967 90517l0 -29 248 -164 68 -47c91,55 178,107 267,161 132,-70 271,-128 406,-180l393 213 15 8c-3,3 -9,7 -15,12l0 122 0 24c-23,12 -54,26 -73,33 -68,25 -138,53 -207,80 222,133 441,267 662,399 368,-180 727,-277 1159,-103 294,118 678,400 550,751 4,75 -16,155 -64,238 -14,25 -31,50 -49,73 57,35 115,70 173,105 0,0 2,2 4,4 2,0 3,0 3,2l-3 2 -10 147 0 12 -333 212c-67,-40 -135,-81 -201,-120 -180,126 -384,223 -586,304l-411 -220 0 -153 0 -12c37,-8 72,-25 98,-33 134,-46 285,-100 428,-168 -263,-159 -526,-318 -788,-474 -398,224 -828,458 -1277,211 -313,-174 -536,-475 -432,-800l0 -2c2,-103 35,-209 109,-317 10,-14 19,-27 29,-39 -41,-25 -84,-49 -124,-74 -25,-15 -27,-15 -39,-36l0 -142zm1773 2863c595,0 1146,-116 1603,-317 762,-333 1264,-897 1264,-1535 0,-1024 -1283,-1852 -2867,-1852 -642,0 -1234,137 -1713,367 -699,337 -1151,877 -1151,1485 0,1022 1283,1852 2864,1852z"/>
     <path class="fil28" d="M132397 91196c27,-63 77,-125 147,-177 224,133 447,269 672,402 44,-19 91,-44 139,-71 2,-2 6,-4 9,-6 -264,-159 -530,-320 -795,-478 -126,93 -184,217 -172,330z"/>
     <path class="fil28" d="M135186 92439c-67,-40 -135,-81 -201,-120 -180,126 -383,223 -587,304l-278 -141 -157 -79 0 153 411 220c202,-81 406,-178 586,-304 66,39 134,80 201,120l333 -212 0 -12 10 -147 -126 87 -192 131z"/>
     <path class="fil27" d="M132397 91196c14,125 112,237 302,285 199,51 352,18 517,-60 -225,-133 -448,-269 -672,-402 -70,52 -120,114 -147,177z"/>
     <path class="fil28" d="M132027 90043c479,-230 1071,-367 1713,-367 1584,0 2867,828 2867,1852 0,638 -502,1202 -1264,1535 -457,201 -1008,317 -1603,317 -1581,0 -2864,-830 -2864,-1852 0,-608 452,-1148 1151,-1485zm1713 3701c1650,0 3026,-753 3355,-1753 50,-149 75,-304 75,-463 1,-1225 -1534,-2216 -3430,-2216 -1893,0 -3428,991 -3428,2216 0,6 0,13 0,19 2,151 28,300 76,444 329,1000 1705,1753 3352,1753z"/>
     <path class="fil31" d="M135028 91785c-6,16 -20,33 -33,50 -14,16 -32,32 -45,47 -228,-138 -457,-275 -685,-412 -54,-33 -110,-66 -165,-99 157,-60 318,-87 490,-46 151,37 587,193 438,460zm-1673 -435c-48,27 -95,52 -139,71 -165,78 -318,111 -517,60 -190,-48 -288,-160 -303,-285 -11,-113 47,-237 173,-330 265,158 531,319 795,478 -3,2 -7,4 -9,6zm-1276 -779c51,30 100,61 150,89 -35,34 -68,70 -99,109 -10,12 -19,25 -29,39 -74,108 -107,214 -109,317l0 2c-5,265 194,502 457,647 449,248 879,13 1278,-211 304,181 610,366 915,549 -50,27 -100,54 -153,78 -143,68 -294,122 -428,168 -26,8 -61,25 -98,33l0 12 157 79 278 141c204,-81 407,-178 587,-304 66,39 133,80 201,120l192 -131 126 -87 3 -2c0,-2 -1,-2 -3,-2 -2,-2 -4,-4 -4,-4 -58,-35 -116,-70 -173,-105 -21,-13 -42,-25 -64,-38 51,-58 99,-120 139,-188 17,-29 30,-56 38,-85 128,-351 -256,-633 -550,-751 -432,-174 -792,-77 -1159,103 -221,-132 -440,-266 -662,-399 -47,-30 -95,-56 -142,-86 97,-42 195,-79 291,-116 28,-9 56,-21 83,-31 19,-7 35,-15 48,-26 6,-5 12,-9 15,-12l-15 -8 -393 -213c-135,52 -274,110 -406,180 -89,-54 -176,-106 -267,-161l-68 47 -248 164 0 29c20,10 47,16 64,25 15,10 33,20 48,29z"/>
     <path class="fil28" d="M132006 90695c40,25 83,49 124,74 31,-39 64,-75 99,-109 -50,-28 -99,-59 -150,-89 -15,-9 -33,-19 -48,-29 -17,-9 -44,-15 -64,-25l0 142c12,21 14,21 39,36z"/>
     <path class="fil28" d="M133218 90548c-96,37 -194,74 -291,116 47,30 95,56 142,86 69,-27 139,-55 207,-80 19,-7 50,-21 73,-33l0 -24 0 -122c-13,11 -29,19 -48,26 -27,10 -55,22 -83,31z"/>
    </g>
    <path class="fil32" d="M148482 95677l53 -250 1116 -5216c-2247,-1749 -3609,-489 -6376,-489 -2766,0 -7162,-1802 -7026,489l1117 5216 53 250c894,2381 10169,2381 11063,0z"/>
    <path class="fil33" d="M142950 88729c3187,0 6677,-1030 7122,-2463 -1681,-3145 -12256,-2996 -14243,0 397,1400 3934,2463 7121,2463z"/>
    <path class="fil34" d="M151168 85069c0,-2021 -3679,-3660 -8218,-3660 -4538,0 -8218,1639 -8218,3660 0,539 262,1051 732,1512 1292,-1267 4158,-2148 7486,-2148 3328,0 6194,881 7486,2148 470,-461 732,-973 732,-1512z"/>
    <path class="fil35" d="M134732 88093c0,2022 3680,3660 8218,3660 4539,0 8218,-1638 8218,-3660l0 -3024c0,-539 -424,957 -894,1417 -1292,1267 -4016,2026 -7344,2026 -3328,0 -6072,-711 -7364,-1978 -470,-461 -549,-959 -834,-1465l0 3024z"/>
    <path class="fil36" d="M150714 84977c0,1784 -3476,3230 -7764,3230 -4288,0 -7764,-1446 -7764,-3230 0,-1784 3476,-3230 7764,-3230 4288,0 7764,1446 7764,3230zm-7764 -3568c-4538,0 -8218,1639 -8218,3660 0,2022 3680,3660 8218,3660 4539,0 8218,-1638 8218,-3660 0,-2021 -3679,-3660 -8218,-3660z"/>
    <polygon class="fil37" points="143254,86603 142643,86603 142643,74370 143254,74370 "/>
    <g>
     <path class="fil4" d="M143470 85000c529,-1063 1526,-2209 2429,-2931 1363,-1087 3294,-1927 5790,-1323 0,0 -741,1395 -2111,2628 -1747,1580 -3827,2279 -6108,1626z"/>
     <path class="fil4" d="M142388 85190c-3505,0 -6847,-2113 -7638,-5604 0,0 3672,103 5965,2382l0 0c887,881 1455,1992 1673,3222z"/>
    </g>
    <g>
     <polygon class="fil38" points="150715,71683 147965,71683 147965,70710 150715,70710 "/>
     <polygon class="fil38" points="148096,65359 148784,66049 146839,67992 146151,67304 "/>
     <polygon class="fil38" points="148784,76343 148096,77031 146151,75086 146839,74398 "/>
     <polygon class="fil38" points="143435,66180 142462,66180 142462,63430 143435,63430 "/>
     <polygon class="fil38" points="137802,65359 139745,67304 139057,67992 137114,66049 "/>
     <polygon class="fil38" points="139745,75086 137802,77031 137114,76343 139057,74398 "/>
     <polygon class="fil38" points="137933,71683 135183,71683 135183,70710 137933,70710 "/>
     <g>
      <path class="fil39" d="M143992 70555c-343,-519 -1643,-353 -1788,303 -117,526 750,630 1069,742 384,134 816,409 531,895 -371,634 -1226,620 -1517,-42 -33,-76 -291,9 -265,70 328,744 1311,737 1842,207 312,-312 419,-802 15,-1080 -215,-148 -507,-197 -751,-275 -175,-56 -408,-99 -542,-230 -497,-487 781,-1064 1142,-520 48,74 294,-24 264,-70z"/>
      <path class="fil39" d="M142945 69801c44,1271 44,2542 0,3813 -4,120 262,71 266,-29 44,-1285 43,-2569 -2,-3855 -3,-96 -268,-41 -264,71z"/>
     </g>
    </g>
    <g>
     <path class="fil31" d="M159317 94781c-329,1001 -1706,1754 -3355,1754 -1647,0 -3023,-753 -3353,-1753 -48,-144 -73,-293 -75,-443l0 905c0,1226 1535,2219 3428,2219 1895,0 3430,-993 3430,-2219l0 -925c0,159 -25,313 -75,462z"/>
     <path class="fil28" d="M156812 94116c-172,-41 -333,-14 -490,46 55,33 110,66 165,99 96,-18 197,-18 300,8 120,29 416,133 462,308 149,-268 -286,-424 -437,-461z"/>
     <path class="fil28" d="M157485 94861c22,14 43,25 64,39 18,-24 35,-49 49,-74 48,-83 68,-162 64,-238 -8,29 -22,56 -39,85 -39,68 -87,130 -138,188z"/>
     <path class="fil27" d="M156787 94269c-103,-26 -204,-26 -300,-8 228,137 456,275 685,412 14,-15 31,-31 44,-46 14,-18 28,-36 33,-50 -46,-175 -342,-279 -462,-308z"/>
     <path class="fil28" d="M155948 94354c-398,224 -828,459 -1277,211 -263,-145 -463,-382 -457,-646 -105,324 118,624 432,799 449,247 879,13 1278,-211 261,156 524,315 787,474 53,-23 103,-51 153,-77 -306,-184 -612,-368 -916,-550z"/>
     <path class="fil27" d="M154189 93309l0 -30 248 -164 68 -47c90,54 178,107 266,161 132,-69 272,-128 407,-180l393 213 15 8c-3,4 -9,8 -15,11l0 123 0 25c-23,11 -55,25 -74,33 -67,25 -137,52 -207,79 223,133 442,267 662,399 368,-180 729,-278 1160,-103 294,118 677,401 550,751 4,75 -16,155 -64,238 -14,25 -31,50 -49,74 56,34 114,69 172,104 0,0 3,2 4,4 2,0 4,0 4,2l-4 2 -9 147 0 12 -333 213c-68,-41 -136,-81 -201,-121 -180,127 -383,223 -587,304l-410 -220 0 -153 0 -12c36,-8 71,-25 98,-33 134,-46 285,-100 428,-168 -263,-159 -526,-317 -787,-474 -399,224 -829,458 -1278,211 -314,-175 -537,-475 -432,-799l0 -3c2,-102 35,-209 109,-317 9,-14 19,-27 28,-39 -40,-25 -83,-48 -123,-73 -25,-16 -27,-16 -39,-37l0 -141zm1773 2863c594,0 1146,-117 1603,-318 762,-333 1264,-896 1264,-1535 0,-1024 -1283,-1852 -2867,-1852 -643,0 -1235,137 -1713,367 -699,337 -1151,877 -1151,1485 0,1022 1283,1853 2864,1853z"/>
     <path class="fil28" d="M154619 93988c27,-64 77,-126 147,-178 225,133 447,269 671,403 45,-20 91,-45 140,-72 2,-2 6,-4 9,-6 -265,-159 -530,-319 -795,-478 -126,93 -184,217 -172,331z"/>
     <path class="fil28" d="M157408 95231c-68,-41 -135,-82 -201,-120 -180,126 -383,222 -587,304l-278 -142 -157 -79 0 153 410 220c204,-81 407,-177 587,-304 65,40 133,80 201,121l333 -213 0 -12 9 -147 -125 87 -192 132z"/>
     <path class="fil27" d="M154619 93988c13,124 112,236 302,284 199,51 352,18 516,-59 -224,-134 -446,-270 -671,-403 -70,52 -120,114 -147,178z"/>
     <path class="fil28" d="M154249 92834c478,-230 1070,-367 1713,-367 1584,0 2867,828 2867,1852 0,639 -502,1202 -1264,1535 -457,201 -1009,318 -1603,318 -1581,0 -2864,-831 -2864,-1853 0,-608 452,-1148 1151,-1485zm1713 3701c1649,0 3026,-753 3355,-1753 50,-150 75,-304 75,-463 0,-1226 -1535,-2216 -3430,-2216 -1893,0 -3428,991 -3428,2216 0,6 0,14 0,20 2,150 27,299 75,443 330,1000 1706,1753 3353,1753z"/>
     <path class="fil31" d="M157249 94577c-5,14 -19,32 -33,50 -13,15 -30,31 -44,46 -229,-137 -457,-275 -685,-412 -55,-33 -110,-66 -165,-99 157,-60 318,-87 490,-46 151,37 586,193 437,461zm-1672 -436c-49,27 -95,52 -140,72 -164,77 -317,110 -516,59 -190,-48 -289,-160 -302,-284 -12,-114 46,-238 172,-331 265,159 530,319 795,478 -3,2 -7,4 -9,6zm-1276 -778c50,29 99,60 149,89 -35,32 -67,70 -99,108 -9,12 -19,25 -28,39 -74,108 -107,215 -109,317l0 3c-6,264 194,501 457,646 449,248 879,13 1277,-211 304,182 610,366 916,550 -50,26 -100,54 -153,77 -143,68 -294,122 -428,168 -27,8 -62,25 -98,33l0 12 157 79 278 142c204,-82 407,-178 587,-304 66,38 133,79 201,120l192 -132 125 -87 4 -2c0,-2 -2,-2 -4,-2 -1,-2 -4,-4 -4,-4 -58,-35 -116,-70 -172,-104 -21,-14 -42,-25 -64,-39 51,-58 99,-120 138,-188 17,-29 31,-56 39,-85 127,-350 -256,-633 -550,-751 -431,-175 -792,-77 -1160,103 -220,-132 -439,-266 -662,-399 -46,-29 -95,-57 -141,-85 97,-43 196,-80 291,-117 29,-9 55,-21 83,-30 19,-9 34,-16 48,-28 6,-3 12,-7 15,-11l-15 -8 -393 -213c-135,52 -275,111 -407,180 -88,-54 -176,-107 -266,-161l-68 47 -248 164 0 30c19,9 47,15 64,25 15,9 33,19 48,29z"/>
     <path class="fil28" d="M154228 93487c40,25 83,48 123,73 32,-38 64,-76 99,-108 -50,-29 -99,-60 -149,-89 -15,-10 -33,-20 -48,-29 -17,-10 -45,-16 -64,-25l0 141c12,21 14,21 39,37z"/>
     <path class="fil28" d="M155440 93339c-95,37 -194,74 -291,117 46,28 95,56 141,85 70,-27 140,-54 207,-79 19,-8 51,-22 74,-33l0 -25 0 -123c-14,12 -29,20 -48,28 -28,9 -54,21 -83,30z"/>
     <path class="fil31" d="M162311 92252c-329,1001 -1705,1753 -3355,1753 -1647,0 -3023,-752 -3352,-1753 -48,-144 -73,-293 -76,-443l0 905c0,1226 1536,2219 3428,2219 1895,0 3431,-993 3431,-2219l0 -925c0,159 -26,314 -76,463z"/>
     <path class="fil28" d="M159807 91586c-173,-40 -334,-14 -490,46 54,34 110,66 164,99 97,-17 198,-17 300,8 120,29 416,134 463,308 149,-267 -287,-424 -437,-461z"/>
     <path class="fil28" d="M160480 92331c22,14 42,25 64,39 17,-23 34,-49 48,-73 49,-84 68,-163 64,-239 -8,29 -21,56 -39,85 -39,68 -87,130 -137,188z"/>
     <path class="fil27" d="M159781 91739c-102,-25 -203,-25 -300,-8 229,138 457,275 685,412 14,-15 31,-30 45,-46 14,-17 27,-35 33,-50 -47,-174 -343,-279 -463,-308z"/>
     <path class="fil28" d="M158943 91824c-399,225 -828,459 -1277,211 -264,-145 -463,-381 -457,-646 -105,325 118,625 431,799 449,248 879,13 1278,-211 261,157 525,315 788,474 52,-23 102,-50 153,-77 -307,-184 -612,-368 -916,-550z"/>
     <path class="fil27" d="M157184 90779l0 -29 247 -165 68 -46c91,54 178,106 267,160 132,-69 271,-127 407,-180l393 213 15 8c-4,4 -10,8 -15,11l0 123 0 25c-24,11 -55,25 -74,33 -68,25 -137,52 -207,79 222,133 441,268 662,399 368,-180 728,-277 1159,-102 295,117 678,400 550,750 4,76 -15,155 -64,239 -14,24 -31,50 -48,73 56,35 114,70 172,104 0,0 2,2 4,4 2,0 4,0 4,2l-4 2 -10 147 0 12 -332 213c-69,-41 -136,-81 -202,-120 -180,126 -383,222 -587,304l-410 -221 0 -153 0 -12c37,-8 71,-25 99,-32 133,-47 285,-101 428,-169 -263,-159 -527,-317 -788,-474 -399,224 -829,459 -1278,211 -313,-174 -536,-474 -431,-799l0 -2c2,-103 34,-210 108,-318 10,-14 19,-27 29,-38 -40,-26 -83,-49 -124,-74 -25,-16 -27,-16 -38,-37l0 -141zm1772 2863c595,0 1146,-116 1603,-317 763,-334 1265,-897 1265,-1536 0,-1024 -1284,-1852 -2868,-1852 -642,0 -1234,137 -1713,368 -698,336 -1151,876 -1151,1484 0,1022 1283,1853 2864,1853z"/>
     <path class="fil25" d="M157613 91458c27,-64 78,-125 147,-178 225,134 448,269 672,403 44,-19 91,-45 139,-72 2,-2 6,-4 10,-5 -265,-159 -530,-320 -795,-479 -126,93 -184,217 -173,331z"/>
     <path class="fil28" d="M160402 92701c-67,-41 -135,-81 -201,-120 -180,126 -383,222 -586,304l-279 -141 -157 -80 0 153 410 221c204,-82 407,-178 587,-304 66,39 133,79 202,120l332 -213 0 -12 10 -147 -126 87 -192 132z"/>
     <path class="fil26" d="M157613 91458c14,124 113,237 302,285 200,50 352,17 517,-60 -224,-134 -447,-269 -672,-403 -69,53 -120,114 -147,178z"/>
     <path class="fil28" d="M157243 90305c479,-231 1071,-368 1713,-368 1584,0 2868,828 2868,1852 0,639 -502,1202 -1265,1536 -457,201 -1008,317 -1603,317 -1581,0 -2864,-831 -2864,-1853 0,-608 453,-1147 1151,-1484zm1713 3700c1650,0 3026,-752 3355,-1753 50,-149 76,-304 76,-463 0,-1225 -1536,-2216 -3431,-2216 -1892,0 -3428,991 -3428,2216 0,6 0,14 0,20 3,150 28,299 76,443 329,1001 1705,1753 3352,1753z"/>
     <path class="fil31" d="M160244 92047c-6,15 -19,33 -33,50 -14,16 -31,31 -45,46 -228,-137 -456,-274 -685,-412 -54,-33 -110,-65 -164,-99 156,-60 317,-86 490,-46 150,37 585,194 437,461zm-1673 -436c-48,27 -95,53 -139,72 -165,77 -317,110 -517,60 -189,-48 -288,-161 -302,-285 -11,-114 47,-238 173,-331 265,159 530,320 795,479 -4,1 -8,3 -10,5zm-1275 -778c50,29 98,60 149,89 -35,33 -68,70 -99,109 -10,11 -19,24 -29,38 -74,108 -106,215 -108,318l0 2c-6,265 193,501 457,646 449,248 878,14 1277,-211 304,182 609,366 916,550 -51,27 -101,54 -153,77 -143,68 -295,122 -428,169 -27,7 -62,24 -99,33l0 11 157 80 279 141c203,-82 406,-178 586,-304 66,38 134,79 201,120l192 -132 126 -87 4 -2c0,-2 -2,-2 -4,-2 -2,-2 -4,-4 -4,-4 -58,-34 -116,-69 -172,-104 -22,-14 -42,-25 -64,-39 50,-58 98,-120 137,-188 18,-29 31,-56 39,-85 128,-350 -255,-633 -550,-750 -431,-175 -791,-78 -1159,102 -221,-131 -440,-266 -662,-399 -47,-29 -95,-56 -141,-85 97,-43 195,-79 290,-116 29,-10 56,-22 83,-31 19,-8 35,-16 49,-28 5,-3 11,-7 15,-11l-15 -8 -393 -213c-136,53 -275,111 -407,180 -89,-54 -176,-106 -267,-160l-68 46 -247 165 0 29c19,9 46,15 63,25 16,10 33,19 49,29z"/>
     <path class="fil25" d="M157222 90957c41,25 84,48 124,74 31,-39 64,-76 99,-109 -51,-29 -99,-60 -149,-89 -16,-10 -33,-19 -49,-29 -17,-10 -44,-16 -63,-25l0 141c11,21 13,21 38,37z"/>
     <path class="fil25" d="M158434 90810c-95,36 -193,73 -290,116 46,29 94,56 141,85 70,-27 139,-54 207,-79 19,-8 50,-22 74,-33l0 -25 0 -123c-14,12 -30,20 -49,28 -27,9 -54,21 -83,31z"/>
     <path class="fil31" d="M160210 89991c-329,1001 -1706,1754 -3355,1754 -1647,-1 -3023,-753 -3353,-1754 -48,-144 -73,-292 -75,-443l0 906c0,1225 1535,2218 3428,2218 1895,0 3430,-993 3430,-2218l0 -926c0,159 -25,314 -75,463z"/>
     <path class="fil28" d="M157705 89325c-172,-41 -333,-14 -490,46 55,34 110,66 165,99 96,-17 197,-17 300,8 120,29 416,134 462,308 149,-267 -286,-424 -437,-461z"/>
     <path class="fil28" d="M158378 90070c22,14 43,25 65,39 17,-23 34,-48 48,-73 48,-84 68,-163 64,-238 -8,28 -21,55 -39,85 -39,67 -87,129 -138,187z"/>
     <path class="fil27" d="M157680 89478c-103,-25 -204,-25 -300,-8 228,138 457,275 685,413 14,-16 31,-31 44,-47 14,-17 28,-35 33,-50 -46,-174 -342,-279 -462,-308z"/>
     <path class="fil28" d="M156841 89563c-398,225 -828,459 -1277,211 -263,-145 -463,-381 -457,-646 -104,325 118,624 432,799 449,247 879,14 1278,-211 261,157 524,315 787,474 53,-23 103,-50 153,-77 -306,-184 -611,-368 -916,-550z"/>
     <path class="fil27" d="M155082 88518l0 -29 248 -165 68 -46c90,54 177,106 267,160 131,-69 271,-127 406,-179l393 212 16 8c-4,4 -10,8 -16,12l0 122 0 25c-23,11 -54,25 -73,33 -68,25 -138,52 -208,79 223,134 442,267 663,399 367,-180 728,-277 1159,-102 294,117 677,400 550,751 4,75 -16,154 -64,238 -14,25 -31,50 -48,73 56,35 114,70 171,104 0,0 3,2 4,4 2,0 4,0 4,2l-4 2 -9 147 0 12 -333 213c-68,-41 -136,-81 -201,-120 -180,126 -383,223 -587,304l-410 -221 0 -153 0 -11c36,-8 71,-26 98,-33 134,-47 285,-101 428,-169 -263,-159 -526,-317 -787,-474 -399,225 -829,459 -1278,211 -314,-175 -536,-474 -432,-799l0 -2c2,-103 35,-210 109,-318 9,-13 19,-27 28,-38 -40,-25 -83,-49 -124,-74 -24,-15 -26,-15 -38,-37l0 -141zm1773 2863c595,0 1146,-116 1603,-317 763,-334 1264,-897 1264,-1536 0,-1024 -1283,-1852 -2867,-1852 -643,0 -1235,138 -1713,368 -698,337 -1152,877 -1152,1484 0,1022 1284,1853 2865,1853z"/>
     <path class="fil28" d="M155512 89197c27,-64 77,-125 147,-178 225,134 447,269 672,403 44,-19 91,-45 139,-72 2,-2 6,-4 10,-5 -266,-159 -531,-320 -796,-479 -126,93 -184,217 -172,331z"/>
     <path class="fil28" d="M158301 90440c-68,-41 -135,-81 -201,-120 -180,126 -383,222 -587,304l-278 -141 -157 -80 0 153 410 221c204,-81 407,-178 587,-304 65,39 133,79 201,120l333 -213 0 -12 9 -147 -126 87 -191 132z"/>
     <path class="fil27" d="M155512 89197c13,124 112,237 302,285 199,50 352,18 517,-60 -225,-134 -447,-269 -672,-403 -70,53 -120,114 -147,178z"/>
     <path class="fil28" d="M155142 88044c478,-231 1070,-368 1713,-368 1584,0 2867,828 2867,1852 0,639 -501,1202 -1264,1536 -457,201 -1008,317 -1603,317 -1581,0 -2865,-831 -2865,-1853 0,-607 454,-1147 1152,-1484zm1713 3700c1649,0 3026,-752 3355,-1753 50,-149 75,-304 75,-463 0,-1225 -1535,-2216 -3430,-2216 -1893,0 -3428,991 -3428,2216 0,6 0,14 0,20 2,151 27,299 75,443 330,1001 1706,1754 3353,1753z"/>
     <path class="fil31" d="M158142 89786c-5,15 -19,33 -33,50 -13,15 -30,31 -44,47 -228,-138 -457,-275 -685,-413 -55,-33 -110,-65 -165,-99 157,-60 318,-87 490,-46 151,37 586,194 437,461zm-1672 -436c-48,27 -95,53 -139,72 -165,78 -318,110 -517,60 -190,-48 -289,-161 -302,-285 -12,-114 46,-238 172,-331 265,159 530,320 796,479 -4,1 -8,3 -10,5zm-1276 -778c50,29 99,60 149,89 -35,33 -67,70 -99,109 -9,11 -19,25 -28,38 -74,108 -107,215 -109,318l0 2c-6,265 194,501 457,646 449,248 879,14 1277,-211 305,182 610,366 916,550 -50,27 -100,54 -153,77 -143,68 -294,122 -428,169 -27,7 -62,25 -98,33l0 11 157 80 278 141c204,-82 407,-178 587,-304 66,39 133,79 201,120l191 -132 126 -87 4 -2c0,-2 -2,-2 -4,-2 -1,-2 -4,-4 -4,-4 -57,-34 -115,-69 -171,-104 -22,-14 -43,-25 -65,-39 51,-58 99,-120 138,-187 18,-30 31,-57 39,-85 127,-351 -256,-634 -550,-751 -431,-175 -792,-78 -1159,102 -221,-132 -440,-265 -663,-399 -46,-29 -95,-56 -141,-85 97,-43 196,-79 291,-116 29,-10 56,-22 83,-31 19,-8 34,-16 48,-27 6,-4 12,-8 16,-12l-16 -8 -393 -212c-135,52 -275,110 -406,179 -89,-54 -177,-106 -267,-160l-68 46 -248 165 0 29c19,9 47,15 64,25 15,9 33,19 48,29z"/>
     <path class="fil28" d="M155120 88696c41,25 84,49 124,74 32,-39 64,-76 99,-109 -50,-29 -99,-60 -149,-89 -15,-10 -33,-19 -48,-29 -17,-10 -45,-16 -64,-25l0 141c12,22 14,22 38,37z"/>
     <path class="fil28" d="M156333 88549c-95,37 -194,73 -291,116 46,29 95,56 141,85 70,-27 140,-54 208,-79 19,-8 50,-22 73,-33l0 -25 0 -122c-14,11 -29,19 -48,27 -27,9 -54,21 -83,31z"/>
    </g>
    <g>
     <path class="fil31" d="M151707 98113c-300,912 -1555,1598 -3058,1598 -1502,0 -2757,-686 -3057,-1598 -44,-131 -67,-267 -69,-405l0 826c0,1117 1400,2022 3126,2022 1727,0 3127,-905 3127,-2022l0 -843c0,144 -23,285 -69,422z"/>
     <path class="fil28" d="M149423 97505c-157,-37 -303,-12 -446,43 49,29 101,60 150,90 88,-16 180,-16 273,7 110,26 380,122 422,280 136,-243 -261,-386 -399,-420z"/>
     <path class="fil28" d="M150037 98185c20,12 39,22 59,35 15,-21 31,-44 44,-67 44,-76 62,-148 58,-217 -7,26 -19,51 -35,77 -36,62 -80,119 -126,172z"/>
     <path class="fil27" d="M149400 97645c-93,-23 -185,-23 -273,-7 208,125 416,250 625,375 12,-14 28,-28 40,-42 13,-16 25,-32 30,-46 -42,-158 -312,-254 -422,-280z"/>
     <path class="fil28" d="M148636 97723c-363,204 -755,418 -1164,192 -240,-132 -422,-348 -417,-589 -95,296 108,569 394,728 409,226 801,13 1164,-192 239,143 479,288 719,432 47,-21 93,-46 139,-70 -279,-168 -557,-336 -835,-501z"/>
     <path class="fil27" d="M147032 96769l0 -26 226 -150 62 -42c83,49 162,97 244,146 120,-64 247,-116 370,-164l358 194 14 7c-3,4 -8,7 -14,11l0 111 0 23c-21,10 -49,23 -67,30 -61,23 -125,48 -189,72 203,122 403,244 604,364 335,-164 663,-252 1057,-94 268,108 618,365 501,685 4,69 -14,141 -58,217 -13,23 -29,46 -44,67 51,32 104,64 157,95 0,0 2,2 3,4 2,0 4,0 4,2l-4 2 -9 133 0 11 -303 194c-62,-37 -124,-74 -183,-109 -165,115 -350,203 -535,277l-374 -201 0 -140 0 -10c33,-7 65,-23 90,-30 121,-43 259,-92 390,-154 -240,-144 -480,-289 -719,-432 -363,205 -755,418 -1164,192 -286,-159 -489,-432 -394,-728l0 -3c2,-93 32,-190 99,-289 9,-12 17,-24 26,-35 -37,-23 -75,-44 -113,-67 -22,-14 -24,-14 -35,-33l0 -130zm1617 2610c541,0 1044,-105 1461,-289 695,-304 1152,-817 1152,-1399 0,-934 -1170,-1689 -2613,-1689 -586,0 -1126,125 -1562,335 -637,307 -1050,800 -1050,1354 0,931 1170,1688 2612,1688z"/>
     <path class="fil28" d="M147424 97389c25,-58 71,-115 134,-162 205,122 408,245 612,367 41,-18 83,-41 128,-66 1,-1 5,-3 8,-5 -241,-144 -483,-291 -725,-436 -115,85 -168,198 -157,302z"/>
     <path class="fil28" d="M149967 98522c-62,-37 -124,-74 -183,-109 -165,114 -350,202 -535,276l-255 -128 -142 -73 0 140 374 201c185,-74 370,-162 535,-277 59,35 121,72 183,109l303 -194 0 -11 9 -133 -114 79 -175 120z"/>
     <path class="fil27" d="M147424 97389c12,113 102,215 275,259 182,46 321,16 471,-54 -204,-122 -407,-245 -612,-367 -63,47 -109,104 -134,162z"/>
     <path class="fil28" d="M147087 96337c436,-210 976,-335 1562,-335 1443,0 2613,755 2613,1689 0,582 -457,1095 -1152,1399 -417,184 -920,289 -1461,289 -1442,0 -2612,-757 -2612,-1688 0,-554 413,-1047 1050,-1354zm1562 3374c1503,0 2758,-686 3058,-1598 46,-137 69,-278 69,-422 0,-1117 -1400,-2021 -3127,-2021 -1726,0 -3126,904 -3126,2021 0,5 0,12 0,17 2,138 25,274 69,405 300,912 1555,1598 3057,1598z"/>
     <path class="fil31" d="M149822 97925c-5,14 -17,30 -30,46 -12,14 -28,28 -40,42 -209,-125 -417,-250 -625,-375 -49,-30 -101,-61 -150,-90 143,-55 289,-80 446,-43 138,34 535,177 399,420zm-1524 -397c-45,25 -87,48 -128,66 -150,70 -289,100 -471,54 -173,-44 -263,-146 -275,-259 -11,-104 42,-217 157,-302 242,145 484,292 725,436 -3,2 -7,4 -8,5zm-1163 -709c45,26 90,55 136,81 -32,30 -62,64 -91,99 -9,11 -17,23 -26,35 -67,99 -97,196 -99,289l0 3c-5,241 177,457 417,589 409,226 801,12 1164,-192 278,165 556,333 835,501 -46,24 -92,49 -139,70 -131,62 -269,111 -390,154 -25,7 -57,23 -90,30l0 10 142 73 255 128c185,-74 370,-162 535,-276 59,35 121,72 183,109l175 -120 114 -79 4 -2c0,-2 -2,-2 -4,-2 -1,-2 -3,-4 -3,-4 -53,-31 -106,-63 -157,-95 -20,-13 -39,-23 -59,-35 46,-53 90,-110 126,-172 16,-26 28,-51 35,-77 117,-320 -233,-577 -501,-685 -394,-158 -722,-70 -1057,94 -201,-120 -401,-242 -604,-364 -42,-26 -86,-51 -129,-77 89,-39 179,-73 265,-106 27,-9 51,-20 76,-29 18,-7 32,-13 44,-24 6,-4 11,-7 14,-11l-14 -7 -358 -194c-123,48 -250,100 -370,164 -82,-49 -161,-97 -244,-146l-62 42 -226 150 0 26c18,9 43,15 59,23 14,9 29,18 44,27z"/>
     <path class="fil28" d="M147067 96932c38,23 76,44 113,67 29,-35 59,-69 91,-99 -46,-26 -91,-55 -136,-81 -15,-9 -30,-18 -44,-27 -16,-8 -41,-14 -59,-23l0 130c11,19 13,19 35,33z"/>
     <path class="fil28" d="M148172 96798c-86,33 -176,67 -265,106 43,26 87,51 129,77 64,-24 128,-49 189,-72 18,-7 46,-20 67,-30l0 -23 0 -111c-12,11 -26,17 -44,24 -25,9 -49,20 -76,29z"/>
    </g>
    <g>
     <path class="fil31" d="M178253 99233c-301,912 -1555,1598 -3059,1598 -1501,0 -2756,-686 -3056,-1598 -44,-131 -67,-267 -69,-405l0 826c0,1117 1400,2022 3125,2022 1728,0 3127,-905 3127,-2022l0 -843c0,144 -23,285 -68,422z"/>
     <path class="fil28" d="M175969 98625c-157,-37 -303,-12 -447,43 50,29 101,60 151,90 88,-16 180,-16 273,7 109,26 380,121 422,280 136,-243 -261,-386 -399,-420z"/>
     <path class="fil28" d="M176583 99305c19,12 39,22 58,35 16,-21 32,-44 44,-67 44,-76 62,-148 59,-217 -7,26 -20,51 -35,77 -36,62 -80,119 -126,172z"/>
     <path class="fil27" d="M175946 98765c-93,-23 -185,-23 -273,-7 208,125 416,250 624,375 12,-14 29,-28 41,-42 12,-16 24,-32 30,-46 -42,-159 -313,-254 -422,-280z"/>
     <path class="fil28" d="M175182 98843c-364,204 -755,418 -1165,192 -240,-132 -421,-348 -416,-590 -96,297 108,570 393,729 410,226 802,12 1165,-192 238,143 478,287 718,432 48,-21 94,-46 140,-70 -279,-168 -558,-336 -835,-501z"/>
     <path class="fil27" d="M173578 97889l0 -26 226 -150 62 -43c83,50 162,98 243,147 120,-64 247,-117 371,-164l358 194 14 7c-4,4 -9,7 -14,11l0 111 0 23c-21,10 -49,23 -67,30 -62,23 -125,48 -189,72 203,122 402,244 603,363 336,-163 664,-251 1058,-93 268,108 617,365 501,685 3,69 -15,141 -59,217 -12,23 -28,46 -44,67 52,32 104,64 157,95 0,0 2,2 4,4 1,0 3,0 3,2l-3 2 -9 133 0 11 -303 194c-62,-37 -124,-74 -184,-109 -164,115 -349,203 -535,277l-374 -201 0 -140 0 -10c34,-7 65,-23 90,-30 122,-43 259,-92 390,-154 -240,-145 -480,-289 -718,-432 -363,204 -755,418 -1165,192 -285,-159 -489,-432 -393,-729l0 -2c1,-93 32,-190 98,-289 10,-13 18,-24 27,-35 -37,-23 -76,-44 -113,-67 -23,-14 -24,-14 -35,-33l0 -130zm1616 2610c542,0 1045,-105 1461,-289 696,-304 1153,-817 1153,-1399 0,-934 -1170,-1689 -2614,-1689 -585,0 -1126,125 -1561,335 -638,307 -1051,800 -1051,1354 0,931 1171,1688 2612,1688z"/>
     <path class="fil28" d="M173970 98509c24,-58 70,-115 134,-162 205,121 407,245 612,367 41,-18 83,-41 127,-66 2,-1 5,-3 9,-5 -242,-144 -483,-291 -725,-436 -115,85 -168,198 -157,302z"/>
     <path class="fil28" d="M176513 99642c-62,-37 -124,-74 -184,-109 -164,114 -350,202 -535,276l-254 -128 -143 -73 0 140 374 201c186,-74 371,-162 535,-277 60,35 122,72 184,109l303 -194 0 -11 9 -133 -115 79 -174 120z"/>
     <path class="fil27" d="M173970 98509c12,113 102,215 275,259 182,46 321,16 471,-54 -205,-122 -407,-246 -612,-367 -64,47 -110,104 -134,162z"/>
     <path class="fil28" d="M173633 97457c435,-210 976,-335 1561,-335 1444,0 2614,755 2614,1689 0,582 -457,1095 -1153,1399 -416,184 -919,289 -1461,289 -1441,0 -2612,-757 -2612,-1688 0,-554 413,-1047 1051,-1354zm1561 3374c1504,0 2758,-686 3059,-1598 45,-137 68,-278 68,-422 0,-1117 -1399,-2021 -3127,-2021 -1725,0 -3125,904 -3125,2021 0,5 0,12 0,17 2,138 25,274 69,405 300,912 1555,1598 3056,1598z"/>
     <path class="fil31" d="M176368 99045c-6,14 -18,30 -30,46 -12,14 -29,28 -41,42 -208,-125 -416,-250 -624,-375 -50,-30 -101,-61 -151,-90 144,-55 290,-80 447,-43 138,34 535,177 399,420zm-1525 -397c-44,25 -86,48 -127,66 -150,70 -289,100 -471,54 -173,-44 -263,-146 -275,-259 -11,-104 42,-217 157,-302 242,145 483,292 725,436 -4,2 -7,4 -9,5zm-1163 -709c46,26 90,55 136,81 -32,30 -62,64 -90,99 -9,11 -17,22 -27,35 -66,99 -97,196 -98,289l0 2c-5,242 176,458 416,590 410,226 801,12 1165,-192 277,165 556,333 835,501 -46,24 -92,49 -140,70 -131,62 -268,111 -390,154 -25,7 -56,23 -90,30l0 10 143 73 254 128c185,-74 371,-162 535,-276 60,35 122,72 184,109l174 -120 115 -79 3 -2c0,-2 -2,-2 -3,-2 -2,-2 -4,-4 -4,-4 -53,-31 -105,-63 -157,-95 -19,-13 -39,-23 -58,-35 46,-53 90,-110 126,-172 15,-26 28,-51 35,-77 116,-320 -233,-577 -501,-685 -394,-158 -722,-70 -1058,93 -201,-119 -400,-241 -603,-363 -42,-26 -86,-51 -129,-78 88,-38 178,-72 265,-105 26,-9 51,-20 76,-29 17,-7 32,-14 44,-24 5,-4 10,-7 14,-11l-14 -7 -358 -194c-124,47 -251,100 -371,164 -81,-49 -160,-97 -243,-147l-62 43 -226 150 0 26c18,9 42,15 58,23 14,9 30,18 44,27z"/>
     <path class="fil28" d="M173613 98052c37,23 76,44 113,67 28,-35 58,-69 90,-99 -46,-26 -90,-55 -136,-81 -14,-9 -30,-18 -44,-27 -16,-8 -40,-14 -58,-23l0 130c11,19 12,19 35,33z"/>
     <path class="fil28" d="M174718 97918c-87,33 -177,67 -265,105 43,27 87,52 129,78 64,-24 127,-49 189,-72 18,-7 46,-20 67,-30l0 -23 0 -111c-12,10 -27,17 -44,24 -25,9 -50,20 -76,29z"/>
    </g>
    <g>
     <path class="fil31" d="M144641 74888c-1124,235 -2585,-654 -3485,-2212 -898,-1555 -937,-3266 -172,-4122 109,-124 631,-396 772,-481l-187 64c-871,339 -1668,843 -1911,1813 -227,905 -26,2109 623,3232 823,1426 2117,2292 3194,2247 640,-26 1283,-429 1781,-811l113 -90c-149,87 -559,326 -728,360z"/>
     <path class="fil28" d="M143904 72160c-55,-185 -168,-322 -311,-438 0,69 -2,141 -3,210 69,82 124,177 156,287 38,129 101,466 -38,605 334,-5 244,-502 196,-664z"/>
     <path class="fil28" d="M143568 73202c-1,27 0,54 -2,81 32,4 65,7 96,6 105,0 190,-25 259,-70 -31,9 -64,11 -100,10 -86,1 -171,-11 -253,-27z"/>
     <path class="fil27" d="M143746 72219c-32,-110 -87,-205 -156,-287 -5,290 -10,581 -15,871 21,5 46,13 68,17 24,4 47,7 65,4 139,-139 76,-476 38,-605z"/>
     <path class="fil28" d="M143209 71474c-429,-254 -885,-532 -896,-1091 -6,-328 108,-645 361,-784 -364,78 -525,452 -519,843 11,559 466,838 895,1092 -5,332 -11,667 -17,1002 50,37 103,70 156,103 7,-390 14,-779 20,-1165z"/>
     <path class="fil27" d="M143237 69243l27 -16 290 144 82 39c-2,115 -4,226 -7,340 138,86 269,186 392,285l13 487 1 19c-6,-1 -12,-5 -20,-8l-114 66 -24 14c-23,-16 -53,-37 -71,-51 -61,-51 -125,-101 -188,-153 -5,283 -12,563 -16,843 371,249 658,536 729,1039 49,342 -8,858 -410,928 -69,45 -154,70 -259,70 -31,1 -64,-2 -96,-6 -2,73 -3,146 -5,220 0,0 0,3 -1,6 1,2 2,4 0,5l-4 -3 -144 71 -11 6 -382 -198c1,-86 3,-172 3,-256 -217,-101 -419,-240 -607,-388l-15 -507 144 -84 11 -6c28,30 63,53 85,75 117,101 250,214 393,312 6,-335 12,-670 17,-1002 -429,-254 -884,-533 -895,-1092 -6,-391 155,-765 519,-843l3 -2c97,-54 215,-80 358,-70 19,2 36,3 53,6 2,-52 0,-105 1,-157 1,-32 0,-34 14,-56l134 -77zm-1737 3235c324,561 734,1019 1173,1340 731,539 1536,706 2139,357 967,-558 1050,-2221 186,-3717 -350,-607 -803,-1092 -1281,-1417 -699,-477 -1456,-610 -2030,-279 -965,558 -1049,2222 -187,3716z"/>
     <path class="fil28" d="M142829 70019c75,-10 162,4 249,42 -4,285 -11,569 -14,853 42,32 91,62 143,93 3,1 7,4 12,6 4,-337 11,-675 17,-1012 -156,-68 -305,-55 -407,18z"/>
     <path class="fil28" d="M143177 73331c1,-87 3,-173 3,-256 -217,-101 -419,-241 -607,-388l-18 -341 -11 -191 -144 84 15 507c188,148 390,287 607,388 0,84 -2,170 -3,256l382 198 11 -6 144 -71 -150 -71 -229 -109z"/>
     <path class="fil27" d="M142829 70019c-109,80 -161,235 -104,440 61,216 176,342 339,455 3,-284 10,-568 14,-853 -87,-38 -174,-52 -249,-42z"/>
     <path class="fil28" d="M143717 69041c478,325 931,810 1281,1417 864,1496 781,3159 -186,3717 -603,349 -1408,182 -2139,-357 -439,-321 -849,-779 -1173,-1340 -862,-1494 -778,-3158 187,-3716 574,-331 1331,-198 2030,279zm-2561 3635c900,1558 2361,2447 3485,2212 169,-34 328,-94 478,-181 1157,-668 1256,-2658 223,-4447 -1032,-1788 -2805,-2698 -3962,-2030 -5,4 -13,8 -18,11 -141,84 -269,189 -378,313 -765,856 -726,2567 172,4122z"/>
     <path class="fil31" d="M143708 72824c-18,3 -41,0 -65,-4 -22,-4 -47,-12 -68,-17 5,-290 10,-581 15,-871 1,-69 3,-141 3,-210 143,116 256,253 311,438 48,162 138,659 -196,664zm-501 -1817c-52,-31 -101,-61 -143,-93 -163,-113 -278,-239 -339,-455 -57,-205 -5,-360 104,-440 102,-73 251,-86 407,-18 -6,337 -13,675 -17,1012 -5,-2 -9,-5 -12,-6zm40 -1629c0,63 -3,126 -3,190 -50,-15 -103,-26 -156,-35 -17,-3 -34,-4 -53,-6 -143,-10 -261,16 -358,70l-3 2c-253,139 -367,456 -361,784 11,559 467,837 896,1091 -6,386 -13,775 -20,1165 -53,-33 -106,-66 -156,-103 -143,-98 -276,-211 -393,-312 -22,-22 -57,-45 -85,-75l-11 6 11 191 18 341c188,147 390,287 607,388 0,83 -2,169 -3,256l229 109 150 71 4 3c2,-1 1,-3 0,-5 1,-3 1,-6 1,-6 2,-74 3,-147 5,-220 2,-27 1,-54 2,-81 82,16 167,28 253,27 36,1 69,-1 100,-10 402,-70 459,-586 410,-928 -71,-503 -358,-790 -729,-1039 4,-280 11,-560 16,-843 2,-59 1,-120 3,-180 93,69 182,142 268,211 25,23 51,42 75,62 18,14 33,25 51,31 8,3 14,7 20,8l-1 -19 -13 -487c-123,-99 -254,-199 -392,-285 3,-114 5,-225 7,-340l-82 -39 -290 -144 -27 16c1,23 10,52 11,74 -1,20 -1,41 -1,61z"/>
     <path class="fil28" d="M143089 69376c-1,52 1,105 -1,157 53,9 106,20 156,35 0,-64 3,-127 3,-190 0,-20 0,-41 1,-61 -1,-22 -10,-51 -11,-74l-134 77c-14,22 -13,24 -14,56z"/>
     <path class="fil28" d="M143889 70440c-86,-69 -175,-142 -268,-211 -2,60 -1,121 -3,180 63,52 127,102 188,153 18,14 48,35 71,51l24 -14 114 -66c-18,-6 -33,-17 -51,-31 -24,-20 -50,-39 -75,-62z"/>
    </g>
    <g>
     <path class="fil31" d="M15025 96412c-329,1001 -1705,1754 -3354,1754 -1647,0 -3024,-753 -3352,-1754 -49,-143 -74,-292 -76,-443l0 905c0,1226 1535,2219 3428,2219 1895,0 3430,-993 3430,-2219l0 -925c0,159 -25,314 -76,463z"/>
     <path class="fil28" d="M12520 95746c-172,-40 -332,-13 -489,47 54,32 111,65 164,98 97,-17 198,-17 300,8 121,29 417,134 463,308 149,-267 -287,-424 -438,-461z"/>
     <path class="fil28" d="M13194 96491c22,14 43,25 64,39 17,-23 35,-48 48,-74 49,-83 68,-162 64,-237 -7,28 -21,56 -38,85 -39,67 -88,129 -138,187z"/>
     <path class="fil27" d="M12495 95899c-102,-25 -203,-25 -300,-8 229,138 457,275 686,413 13,-16 31,-32 44,-47 14,-17 27,-35 33,-50 -46,-174 -342,-279 -463,-308z"/>
     <path class="fil28" d="M11657 95984c-398,225 -828,459 -1277,211 -264,-145 -463,-381 -457,-646 -105,325 118,625 432,799 449,248 879,14 1277,-211 261,157 525,316 788,474 52,-23 102,-50 153,-77 -306,-184 -612,-368 -916,-550z"/>
     <path class="fil27" d="M9898 94939l0 -29 248 -165 67 -46c91,54 179,106 268,161 131,-70 271,-128 406,-180l393 212 15 8c-4,4 -9,8 -15,12l0 122 0 25c-23,11 -54,25 -74,33 -67,25 -137,52 -207,79 223,133 441,267 662,399 368,-180 728,-277 1160,-102 294,117 677,400 549,751 4,75 -15,154 -64,237 -13,26 -31,51 -48,74 56,35 114,70 172,105 1,0 2,2 5,4 1,0 3,0 3,2l-3 1 -10 148 0 11 -333 213c-68,-41 -136,-81 -202,-120 -179,126 -383,223 -586,304l-411 -220 0 -154 0 -11c37,-8 72,-26 99,-33 134,-46 285,-101 428,-169 -263,-158 -527,-317 -788,-474 -398,225 -828,459 -1277,211 -314,-174 -537,-474 -432,-799l0 -2c2,-103 34,-209 109,-318 9,-14 19,-27 28,-38 -40,-26 -83,-49 -123,-74 -26,-16 -28,-16 -39,-37l0 -141zm1773 2862c594,0 1146,-115 1603,-317 762,-332 1263,-896 1263,-1535 1,-1023 -1283,-1852 -2866,-1852 -643,0 -1235,138 -1714,368 -698,337 -1151,877 -1151,1484 0,1022 1284,1852 2865,1852z"/>
     <path class="fil28" d="M10327 95618c28,-63 78,-126 148,-178 224,134 446,270 671,403 45,-19 91,-44 140,-72 2,-2 5,-4 9,-6 -264,-159 -530,-319 -795,-477 -126,92 -184,216 -173,330z"/>
     <path class="fil28" d="M13117 96861c-68,-41 -136,-81 -201,-120 -180,126 -384,223 -587,304l-279 -141 -157 -80 0 154 411 220c203,-81 406,-178 586,-304 66,39 134,79 202,120l333 -213 0 -11 10 -148 -127 88 -191 131z"/>
     <path class="fil27" d="M10327 95618c14,124 113,236 302,285 200,50 353,17 517,-60 -224,-133 -447,-269 -671,-403 -70,52 -120,115 -148,178z"/>
     <path class="fil28" d="M9958 94465c478,-230 1070,-368 1713,-368 1583,0 2866,829 2866,1852 1,639 -501,1203 -1263,1535 -457,202 -1009,317 -1603,317 -1581,0 -2865,-830 -2865,-1852 0,-607 453,-1147 1152,-1484zm1713 3701c1649,0 3025,-753 3354,-1754 51,-149 76,-304 76,-463 0,-1225 -1535,-2216 -3430,-2216 -1893,0 -3428,991 -3428,2216 0,6 0,14 0,20 2,151 27,300 76,443 328,1001 1705,1754 3352,1754z"/>
     <path class="fil31" d="M12958 96207c-6,15 -19,33 -33,50 -13,15 -31,31 -44,47 -229,-138 -457,-275 -686,-413 -53,-33 -110,-66 -164,-98 157,-60 317,-87 489,-47 151,37 587,194 438,461zm-1672 -436c-49,28 -95,53 -140,72 -164,77 -317,110 -517,60 -189,-49 -288,-161 -302,-285 -11,-114 47,-238 173,-330 265,158 531,318 795,477 -4,2 -7,4 -9,6zm-1276 -778c50,29 99,60 149,89 -34,33 -67,70 -99,109 -9,11 -19,24 -28,38 -74,109 -107,215 -109,318l0 2c-6,265 193,501 457,646 449,248 879,14 1277,-211 304,182 610,366 916,550 -51,27 -101,54 -153,77 -143,68 -294,123 -428,169 -27,7 -62,25 -99,33l0 11 157 80 279 141c203,-81 407,-178 587,-304 65,39 133,79 201,120l191 -131 127 -88 3 -1c0,-2 -2,-2 -3,-2 -2,-2 -5,-4 -5,-4 -58,-35 -116,-70 -172,-105 -21,-14 -42,-25 -64,-39 50,-58 99,-120 138,-187 17,-29 31,-57 38,-85 128,-351 -255,-634 -549,-751 -432,-175 -792,-78 -1160,102 -221,-132 -439,-266 -662,-399 -46,-29 -95,-56 -141,-85 97,-42 195,-79 290,-116 29,-9 56,-22 83,-31 20,-8 35,-16 49,-27 6,-4 11,-8 15,-12l-15 -8 -393 -212c-135,52 -275,110 -406,180 -89,-55 -177,-107 -268,-161l-67 46 -248 165 0 29c19,9 46,16 64,25 15,10 33,20 48,29z"/>
     <path class="fil28" d="M9937 95117c40,25 83,48 123,74 32,-39 65,-76 99,-109 -50,-29 -99,-60 -149,-89 -15,-9 -33,-19 -48,-29 -18,-9 -45,-16 -64,-25l0 141c11,21 13,21 39,37z"/>
     <path class="fil28" d="M11148 94970c-95,37 -194,74 -290,116 46,29 95,56 141,85 70,-27 140,-54 207,-79 20,-8 51,-22 74,-33l0 -25 0 -122c-14,11 -29,19 -49,27 -27,9 -54,22 -83,31z"/>
    </g>
    <path class="fil12" d="M63263 71640c-1117,1118 -1733,2606 -1734,4188 1,1581 617,3069 1734,4187 1119,1118 2606,1732 4187,1734 1582,-1 3069,-618 4187,-1735 1118,-1119 1733,-2605 1734,-4187 0,-1582 -616,-3068 -1734,-4186 -1118,-1118 -2605,-1735 -4186,-1734 -1583,0 -3069,615 -4188,1733zm5200 -1273c1097,202 2105,730 2912,1536 1047,1048 1626,2441 1627,3923 1,1484 -578,2877 -1627,3926 -1049,1048 -2441,1627 -3925,1626 -217,0 -434,-13 -647,-38 554,-3657 1108,-7315 1660,-10973zm-819 2942c-304,-196 -643,-284 -1004,-256 -264,19 -529,108 -780,245l-652 -652 -262 262 599 599c-152,114 -305,259 -423,408l-592 -592 -262 262 637 637c-406,684 -362,1498 227,2056 225,213 514,357 834,381 380,29 748,-120 1075,-301l123 124 -727 4805c-1097,-202 -2106,-729 -2911,-1535 -1050,-1050 -1627,-2441 -1627,-3925 1,-1482 577,-2878 1624,-3925 1050,-1050 2445,-1625 3928,-1627 217,0 434,13 647,38l-454 2996zm-33 5172c478,190 980,112 1425,-127l656 655 263 -263 -599 -599c152,-113 304,-258 422,-407l591 592 263 -263 -639 -638c332,-572 364,-1185 -18,-1746 -475,-690 -1164,-752 -1880,-398l-103 669 1523 1523c-120,153 -266,291 -424,405l-1207 -1207 -69 455 946 946c-374,156 -716,206 -1092,24l-58 379zm-270 -3177l-73 481 -167 107 -1716 -1716c119,-150 269,-292 422,-407l1534 1535zm-2166 -811l1592 1591c-233,121 -506,227 -772,208 -232,-18 -442,-124 -609,-282 -433,-410 -482,-1000 -211,-1517zm4495 1402c278,408 269,830 55,1260l-2 6 -1516 -1517c569,-277 1069,-323 1463,251zm-2259 -1047l-1277 -1276c171,-82 345,-136 534,-152 344,-24 651,81 914,302l-171 1126z"/>
   </g>
  </g>
 </g>
</svg>
