<?xml version="1.0" encoding="UTF-8"?>
<!DOCTYPE svg PUBLIC "-//W3C//DTD SVG 1.1//EN" "http://www.w3.org/Graphics/SVG/1.1/DTD/svg11.dtd">
<!-- Creator: CorelDRAW X7 -->
<svg xmlns="http://www.w3.org/2000/svg" xml:space="preserve" width="13.033in" height="9.07098in" version="1.1" style="shape-rendering:geometricPrecision; text-rendering:geometricPrecision; image-rendering:optimizeQuality; fill-rule:evenodd; clip-rule:evenodd"
viewBox="0 0 130330 90710"
 xmlns:xlink="http://www.w3.org/1999/xlink">
 <defs>
  <style type="text/css">
   <![CDATA[
    .fil28 {fill:#FFC632}
    .fil23 {fill:#FAAB30}
    .fil24 {fill:#F79333}
    .fil21 {fill:#2F2718}
    .fil13 {fill:#6168A8}
    .fil31 {fill:#657AA9}
    .fil32 {fill:#7C94CA}
    .fil33 {fill:#95A9D4}
    .fil18 {fill:#A38755}
    .fil34 {fill:#B8C5E2}
    .fil29 {fill:#BB9B61}
    .fil22 {fill:#D2AE6D}
    .fil35 {fill:#D6BB8A}
    .fil25 {fill:#DCBB79}
    .fil6 {fill:#E7D3AD}
    .fil7 {fill:#ECD6B2}
    .fil26 {fill:#EDD7B2}
    .fil0 {fill:#EDDFC4}
    .fil27 {fill:#F2E2C7}
    .fil19 {fill:#F5EEE0}
    .fil20 {fill:#4A458F;fill-rule:nonzero}
    .fil10 {fill:#576074;fill-rule:nonzero}
    .fil17 {fill:#5D4D30;fill-rule:nonzero}
    .fil9 {fill:#657AA9;fill-rule:nonzero}
    .fil12 {fill:#6C87C3;fill-rule:nonzero}
    .fil8 {fill:#899FCF;fill-rule:nonzero}
    .fil11 {fill:#AABADC;fill-rule:nonzero}
    .fil30 {fill:#B0BEDF;fill-rule:nonzero}
    .fil4 {fill:#BB9B61;fill-rule:nonzero}
    .fil38 {fill:#C19C00;fill-rule:nonzero}
    .fil5 {fill:#D2AE6D;fill-rule:nonzero}
    .fil36 {fill:#D6BB8A;fill-rule:nonzero}
    .fil16 {fill:#D7B77D;fill-rule:nonzero}
    .fil2 {fill:#DFC596;fill-rule:nonzero}
    .fil1 {fill:#EDDFC4;fill-rule:nonzero}
    .fil37 {fill:#EFE3CC;fill-rule:nonzero}
    .fil15 {fill:#F5EEE0;fill-rule:nonzero}
    .fil3 {fill:#F6EFE2;fill-rule:nonzero}
    .fil14 {fill:white;fill-rule:nonzero}
   ]]>
  </style>
 </defs>
 <g id="Layer_x0020_1">
  <metadata id="CorelCorpID_0Corel-Layer"/>
  <g id="_2313602730064">
   <path class="fil0" d="M45980 33108c3108,2917 8532,1325 11714,-645 3417,-2115 6062,-5682 6351,-9772 532,-7534 -8610,-7567 -13414,-5023 -4316,2285 -7138,6867 -6389,11812 28,182 60,362 99,540 247,1158 777,2278 1639,3088z"/>
   <g>
    <path class="fil1" d="M113455 81092c0,6790 -30088,8915 -35623,9249 -13811,833 -27780,242 -41355,-1642 -10317,-1432 -19355,-3789 -19355,-7607 0,-5263 21565,-9529 48166,-9529 26602,0 48167,4266 48167,9529z"/>
    <path class="fil2" d="M104880 81801c0,8913 -66634,8054 -66634,0 0,-3588 12348,-6497 31662,-6497 19315,0 34972,2909 34972,6497z"/>
    <path class="fil3" d="M20410 75187c-3283,-1601 -5561,-3979 -4482,-7390 444,-1407 1513,-2959 3554,-4412 1324,-1336 1989,-2673 1738,-5013 -410,-3815 -1732,-5522 -1974,-8551 -845,-10565 11671,-15452 20307,-13894 5551,1002 9372,3626 13541,3332 9789,-689 12992,-13972 18076,-20676 2186,-2883 4635,-5190 7425,-6909 6223,-3835 16181,-5002 24138,-2521 8587,2677 12493,8536 12449,15374 -59,9039 -6846,14165 -6565,22358 246,7145 6262,7433 5817,16501 -365,7444 -5613,11692 -12520,13015 -12907,2473 -69083,4846 -81504,-1214z"/>
    <path class="fil1" d="M27344 42684c8101,-5523 15738,-130 11348,5313 -2722,3376 -9409,5482 -13321,3483 -1410,-720 -2239,-2041 -1728,-4242 379,-1631 1820,-3272 3701,-4554z"/>
    <path class="fil4" d="M44657 81714c0,-689 785,-1247 1753,-1247 969,0 1754,558 1754,1247l-3507 0z"/>
    <path class="fil4" d="M83770 83512c0,-688 785,-1246 1754,-1246 968,0 1753,558 1753,1246l-3507 0z"/>
    <path class="fil5" d="M24001 81721c0,-609 695,-1104 1552,-1104 857,0 1552,495 1552,1104l-3104 0z"/>
    <path class="fil4" d="M33990 82273c0,-393 448,-711 1000,-711 553,0 1000,318 1000,711l-2000 0z"/>
    <path class="fil4" d="M89846 80012c0,-1010 1153,-1829 2573,-1829 1421,0 2573,819 2573,1829l-5146 0z"/>
    <path class="fil5" d="M57803 84364c0,-1010 1152,-1829 2572,-1829 1421,0 2573,819 2573,1829l-5145 0z"/>
    <path class="fil5" d="M71051 84095c0,-505 576,-915 1287,-915 710,0 1286,410 1286,915l-2573 0z"/>
    <path class="fil5" d="M99082 82128c0,-646 737,-1170 1646,-1170 909,0 1645,524 1645,1170l-3291 0z"/>
    <path class="fil5" d="M35678 82270c0,-782 892,-1417 1993,-1417 1101,0 1993,635 1993,1417l-3986 0z"/>
    <path class="fil4" d="M62207 84364c0,-505 576,-915 1286,-915 711,0 1287,410 1287,915l-2573 0z"/>
    <path class="fil3" d="M107737 25081c245,1774 1165,2550 2039,2374 1488,-299 1794,-2276 1708,-4123 -124,-2636 -1013,-5344 -2939,-7224 -1690,-1650 -4439,-1173 -4182,965 177,1469 1655,2673 2402,3958 669,1153 691,2012 972,4050z"/>
    <path class="fil6" d="M113129 43121c1215,40 2188,1036 2195,2271l20 0c10,-1235 983,-2231 2194,-2271 -1217,-39 -2194,-1046 -2194,-2287l-17 0c0,1241 -977,2248 -2198,2287z"/>
    <path class="fil7" d="M12067 76606c944,30 1700,804 1705,1763l15 0c8,-959 764,-1733 1705,-1763 -946,-31 -1705,-813 -1705,-1776l-13 0c0,963 -758,1745 -1707,1776z"/>
    <g>
     <path class="fil1" d="M0 9551c573,-255 1155,-490 1744,-704 6923,-2510 14893,-2225 21084,-6216 1188,-766 2266,-1663 3288,-2631l28421 0c-7186,831 -13671,1294 -16843,5680 -1655,2288 -1822,4495 -1982,6700 -561,7716 -3476,9373 -10976,10504 -2005,303 -3818,519 -5653,1184 -8153,2959 -10357,7951 -10446,13675 -248,16019 8483,25082 -8637,39517l0 -67709z"/>
     <path class="fil3" d="M34379 0c-4135,2694 -5762,6117 -8342,10181 -5853,9220 -15396,12793 -26037,10167l0 -20348 34379 0z"/>
    </g>
    <g>
     <polygon class="fil8" points="104296,44996 79918,44996 84744,49822 67252,67314 80347,80408 97839,62917 104296,69374 "/>
     <polygon class="fil9" points="78950,79000 78248,78298 97838,58708 101319,62189 101319,47972 87103,47972 88953,49822 69363,69413 68661,68711 87550,49822 84708,46980 102311,46980 102311,64584 97838,60111 "/>
     <polygon class="fil10" points="71122,49819 84217,62913 80347,80409 67252,67314 "/>
     <polygon class="fil9" points="66722,80409 53628,67314 71123,49819 84217,62913 "/>
     <polygon class="fil8" points="55740,69427 55039,68725 72534,51229 73236,51931 "/>
     <polygon class="fil8" points="65327,79014 64626,78312 82121,60816 82823,61518 "/>
     <polygon class="fil10" points="60120,49819 73214,62913 66722,80409 53628,67314 "/>
     <polygon class="fil8" points="50902,85226 37808,72131 60120,49819 73214,62913 "/>
     <polygon class="fil9" points="50902,82420 40614,72131 61516,51230 62217,51931 42017,72131 50902,81017 71102,60817 71804,61518 "/>
     <path class="fil9" d="M41315 72131l2588 -2578c682,684 1066,1612 1066,2578 0,985 -398,1929 -1103,2616l-2551 -2616z"/>
     <path class="fil9" d="M50905 81721l-2609 -2558c688,-701 1628,-1095 2609,-1095 981,0 1922,395 2608,1095l-2608 2558z"/>
     <path class="fil11" d="M60987 68181c-1694,1694 -4441,1694 -6134,0 -1694,-1694 -1694,-4441 0,-6134 1693,-1694 4440,-1694 6134,0 1694,1693 1694,4440 0,6134z"/>
    </g>
    <g>
     <path class="fil12" d="M93535 33697c0,0 3356,3016 3698,4115 342,1099 -1998,6346 -1998,6346l1464 838 -2730 0c0,0 666,-4201 1149,-5678 -934,-488 -3286,-2549 -3286,-2549l-1423 4682 -242 5251 -2156 968 1143 -1568c0,0 -676,-3813 -965,-4902 -289,-1089 210,-5214 346,-6527 137,-1312 4102,-1406 5000,-976z"/>
     <path class="fil13" d="M88535 34673c-118,1132 -504,4352 -424,5917 129,-2806 2571,-6084 2571,-6084 -427,88 -1300,-54 -1996,-191 -84,108 -137,227 -151,358z"/>
     <path class="fil13" d="M95591 39014l-3759 -2245c0,0 2352,2060 3286,2548 -406,1243 -941,4408 -1101,5386 545,8 1118,15 1362,12 292,-3 394,-144 330,-285l-474 -272c-601,-98 -827,-530 -827,-530l1183 -4614z"/>
     <path class="fil14" d="M93053 23564c-22,156 -508,4240 -508,4240 0,0 905,321 1205,-200 301,-521 2,-4170 2,-4170l-699 130z"/>
     <path class="fil15" d="M93794 24009c-24,-349 -42,-576 -42,-576l-698 131c-10,66 -102,834 -206,1698l321 -656 625 -597z"/>
     <path class="fil14" d="M90060 26526l626 1223c0,0 11,612 -650,700 -662,89 -816,-281 -816,-281l-65 -1528c0,0 603,-245 905,-114z"/>
     <path class="fil16" d="M90093 27593c514,-165 1133,-282 1849,-275 1268,-95 2416,-281 2416,-281 0,0 608,826 569,1843 0,0 -1169,914 -2375,1102 -73,584 439,3128 983,3715 -291,591 -3194,1582 -5000,976 -356,-532 -338,-2978 -283,-4608 38,-1127 767,-2128 1841,-2472z"/>
     <path class="fil15" d="M89155 26640l46 1082c585,-119 1011,-899 1011,-899l0 0 -152 -297c-302,-130 -905,114 -905,114z"/>
     <path class="fil17" d="M95235 44158c0,0 -813,78 -1131,25 -84,493 -135,813 -135,813l2730 0 -1464 -838z"/>
     <path class="fil17" d="M90208 45793c-362,269 -1054,309 -1054,309l-1144 1568 2156 -968 42 -909z"/>
     <polygon class="fil13" points="90409,41451 91832,36769 90007,40927 90221,45515 "/>
     <path class="fil18" d="M92552 29982l-1500 109c0,0 1094,3128 2483,3606 -544,-587 -1056,-3131 -983,-3715z"/>
     <path class="fil19" d="M89155 26640l46 1082c585,-119 1011,-899 1011,-899l-152 -297c-302,-130 -905,114 -905,114z"/>
     <path class="fil19" d="M93752 23433l-698 131c-10,66 -102,834 -206,1698l321 -656 625 -597c-24,-349 -42,-576 -42,-576z"/>
     <path class="fil20" d="M90333 41488c-19,-3 -32,-19 -31,-38 0,0 2,-54 8,-151 1,-21 19,-37 40,-36 22,2 36,19 36,41 -6,95 -9,149 -9,149 -1,21 -18,37 -39,36 -2,0 -3,0 -5,-1zm4065 2599l-2 0c-20,-5 -33,-25 -28,-46l33 -146c4,-21 23,-30 45,-29 20,4 33,25 29,45l-33 147c-5,20 -24,32 -44,29zm-2194 -7786c-3,0 -6,-1 -9,-3 -103,-46 -196,-81 -275,-101 -20,-6 -33,-27 -27,-47 5,-20 25,-33 46,-27 84,22 180,58 287,106 19,9 28,31 19,50 -7,16 -24,25 -41,22zm526 288c-4,-1 -9,-3 -13,-5 -89,-56 -175,-106 -257,-152 -18,-10 -25,-33 -15,-51 10,-18 33,-26 52,-15 83,46 170,98 260,154 17,10 23,34 12,52 -8,13 -24,19 -39,17zm-1309 -182c-6,-1 -12,-4 -16,-7 -17,-13 -21,-36 -8,-53 56,-75 115,-140 174,-193 15,-13 31,-23 48,-31 19,-9 42,-1 51,18 9,19 0,41 -19,50 -11,6 -21,12 -30,20 -55,49 -110,110 -163,181 -9,12 -24,17 -37,15zm1807 517c-5,-1 -10,-3 -15,-6 -83,-60 -165,-117 -246,-172 -17,-11 -21,-35 -10,-52 12,-18 36,-22 53,-11 81,55 164,113 247,173 17,12 21,36 9,53 -9,12 -24,17 -38,15zm479 362c-6,-1 -12,-3 -18,-7 -78,-63 -157,-124 -236,-184 -16,-13 -20,-36 -7,-53 13,-17 36,-20 53,-7 79,60 159,121 238,184 16,13 19,37 6,53 -9,12 -23,16 -36,14zm-2576 -356c-3,0 -6,-1 -8,-2 -20,-9 -29,-31 -20,-50 42,-99 86,-191 131,-273 10,-19 33,-25 51,-15 19,10 26,33 16,51 -44,80 -87,170 -129,267 -7,16 -24,25 -41,22zm3037 740c-6,-1 -13,-4 -18,-8 -75,-66 -151,-130 -228,-195 -16,-13 -18,-37 -5,-53 13,-16 37,-18 54,-5 77,65 154,130 229,195 16,14 17,38 4,54 -9,10 -23,14 -36,12zm444 405c-7,-2 -14,-5 -20,-11 -70,-67 -143,-135 -219,-204 -15,-14 -16,-38 -2,-53 14,-16 38,-16 54,-3 75,69 148,138 220,206 15,14 15,38 1,54 -9,9 -22,13 -34,11zm-3684 -581c-1,0 -3,0 -4,-1 -20,-6 -31,-27 -25,-47 30,-101 62,-198 94,-286 6,-20 29,-30 48,-24 20,8 30,29 23,49 -31,88 -62,183 -93,283 -5,19 -24,30 -43,26zm4103 1010c-8,-2 -16,-6 -21,-12 -64,-71 -133,-144 -205,-218 -15,-15 -15,-38 0,-53 15,-15 40,-15 54,1 73,74 142,148 207,219 14,16 13,39 -3,54 -9,8 -21,11 -32,9zm-4256 -430l-2 -1c-20,-4 -33,-25 -28,-45 23,-99 47,-197 72,-292 6,-20 25,-33 47,-27 20,5 32,26 26,46 -25,95 -48,192 -71,290 -4,20 -24,32 -44,29zm4628 900c-9,-2 -19,-8 -25,-17 -47,-73 -106,-153 -174,-239 -14,-16 -11,-40 5,-53 16,-13 41,-11 53,6 71,87 131,170 180,245 12,17 6,41 -11,52 -9,6 -18,7 -28,6zm-4749 -313l0 0c-21,-4 -35,-23 -31,-44 18,-99 38,-197 58,-295 4,-21 23,-34 44,-30l1 0c20,4 33,25 29,45 -20,98 -39,195 -57,294 -4,20 -24,34 -44,30zm4730 887l-1 0c-21,-4 -34,-24 -30,-45 23,-113 42,-212 57,-294 4,-21 23,-34 44,-31l0 0c21,4 34,24 31,45 -16,82 -35,181 -58,295 -4,20 -23,34 -43,30zm-4828 -296c-20,-3 -34,-22 -31,-43 15,-98 30,-197 47,-296 3,-21 23,-35 44,-32 19,7 34,23 31,44 -17,99 -32,198 -47,296 -3,20 -22,35 -43,32l-1 -1zm4707 884l-1 0c-21,-5 -34,-25 -30,-45l61 -294c4,-20 24,-33 44,-30l1 0c21,5 34,25 30,45l-62 295c-4,19 -23,32 -43,29zm-4787 -290c-20,-3 -33,-21 -31,-41 12,-98 24,-197 38,-298 3,-21 22,-36 43,-33l1 1c20,3 34,22 31,42 -13,101 -26,200 -38,297 -2,21 -21,35 -42,33l-2 -1zm4662 877l-1 0c-21,-4 -34,-25 -29,-45l62 -294c4,-20 26,-35 45,-29 21,5 34,25 30,45l-63 294c-4,20 -24,33 -44,29zm-4726 -280c-19,-4 -33,-22 -31,-41 9,-96 19,-196 30,-299 2,-21 21,-36 42,-34 21,1 36,21 34,42 -12,103 -22,203 -31,298 -2,21 -20,36 -41,34 -2,0 -2,0 -3,0zm4599 867l-1 0c-20,-5 -34,-25 -29,-45l63 -294c5,-20 24,-32 44,-29l1 0c21,5 34,25 30,46l-64 293c-4,20 -24,33 -44,29zm-4650 -270c-19,-3 -33,-21 -32,-40 7,-89 15,-190 24,-299 2,-21 20,-37 41,-35 22,0 37,20 35,41 -9,109 -17,210 -24,298 -1,21 -19,37 -40,36 -2,-1 -3,-1 -4,-1zm4523 856l-2 0c-20,-4 -33,-24 -29,-45l64 -293c5,-21 21,-33 45,-29 21,5 34,25 29,45l-64 293c-4,20 -23,33 -43,29zm-130 587l-1 -1c-20,-4 -33,-25 -29,-45l65 -293c5,-20 24,-31 45,-29 21,5 34,25 29,45l-65 294c-4,19 -23,32 -44,29zm-129 586l-2 0c-20,-5 -33,-25 -28,-46l64 -292c5,-21 22,-31 46,-29 20,4 33,25 29,45l-65 293c-5,20 -24,32 -44,29zm-130 586l-2 0c-21,-5 -33,-25 -29,-45l66 -293c4,-21 24,-34 45,-29 20,4 33,24 29,45l-66 293c-4,20 -24,33 -43,29z"/>
     <path class="fil17" d="M91492 23943l5031 -3244c0,0 776,1055 677,1733l-5418 1907c0,0 -285,106 -290,-396z"/>
     <path class="fil21" d="M95505 21999c-266,152 -744,374 -699,648 41,255 -2522,1268 -3251,1594 85,147 227,98 227,98l5418 -1907c99,-678 -677,-1733 -677,-1733 0,0 163,1424 -286,1609 -364,-25 -466,-462 -732,-309z"/>
     <path class="fil14" d="M94358 27037l643 -207 186 -2831 -706 -610 437 -182c0,0 -154,-548 -121,-843 34,-296 215,-390 707,-259 265,116 565,990 387,1526 -177,536 214,3734 322,4243 108,509 -1286,1006 -1286,1006 0,0 -674,174 -981,-518 -307,-692 412,-1325 412,-1325z"/>
     <path class="fil14" d="M90031 24406c0,0 1084,1053 1024,1512 -61,459 -548,936 -1800,1222 -442,-15 -1073,-1259 -1093,-1533 -133,-1788 1367,-1447 1869,-1201z"/>
     <path class="fil17" d="M88922 25186c0,0 1628,-459 1693,-1315 66,-857 -1338,-1132 -1909,-801 -243,141 -349,352 -475,589 -140,267 -340,375 -594,549 -82,56 -164,113 -234,182 -493,486 82,1936 481,2329 549,541 1344,356 1271,-79 -72,-435 -669,-1299 -233,-1454z"/>
    </g>
    <g>
     <path class="fil22" d="M116619 80675c-283,859 -1465,1506 -2881,1506 -1414,0 -2596,-647 -2879,-1506 -41,-123 -63,-251 -65,-381l0 778c0,1052 1319,1905 2944,1905 1628,0 2945,-853 2945,-1905l0 -795c0,137 -21,270 -64,398z"/>
     <path class="fil23" d="M114468 80103c-148,-35 -286,-12 -421,40 47,28 95,57 142,85 83,-16 169,-16 257,6 103,25 358,115 397,265 128,-230 -245,-364 -375,-396z"/>
     <path class="fil23" d="M115046 80743c18,11 37,22 55,33 15,-20 30,-41 42,-63 41,-71 58,-140 54,-204 -6,25 -18,48 -33,73 -33,58 -75,111 -118,161z"/>
     <path class="fil24" d="M114446 80234c-88,-22 -174,-22 -257,-6 196,118 392,236 588,354 12,-14 27,-27 38,-40 12,-15 24,-30 28,-43 -39,-150 -294,-240 -397,-265z"/>
     <path class="fil23" d="M113726 80308c-342,192 -711,394 -1097,181 -225,-125 -397,-327 -392,-555 -90,278 102,536 371,686 386,213 755,12 1097,-181 224,134 450,271 676,407 45,-20 88,-43 132,-66 -263,-158 -525,-316 -787,-472z"/>
     <path class="fil25" d="M112216 79410l0 -25 212 -141 59 -40c78,47 153,91 229,138 113,-60 233,-110 349,-155l337 183 14 6c-4,4 -9,7 -14,11l0 104 0 22c-19,10 -46,22 -63,28 -58,22 -118,45 -177,68 191,115 378,230 568,343 316,-155 625,-238 995,-89 253,102 582,345 472,646 4,64 -13,133 -54,204 -12,22 -27,43 -42,63 48,30 98,60 148,90 0,0 2,2 3,3 2,0 4,0 4,2l-4 2 -8 126 0 10 -286 183c-58,-35 -116,-70 -173,-103 -155,108 -329,191 -503,261l-353 -189 0 -132 0 -10c32,-7 62,-22 85,-28 115,-40 244,-87 367,-145 -226,-136 -452,-273 -676,-407 -342,193 -711,394 -1097,181 -269,-150 -461,-408 -371,-686l0 -2c2,-88 30,-180 93,-273 9,-11 16,-23 25,-33 -34,-22 -71,-42 -106,-63 -22,-14 -23,-14 -33,-32l0 -121zm1522 2458c510,0 984,-99 1376,-272 655,-286 1086,-770 1086,-1319 0,-879 -1102,-1590 -2462,-1590 -551,0 -1060,118 -1471,316 -600,289 -989,753 -989,1274 0,878 1102,1591 2460,1591z"/>
     <path class="fil23" d="M112585 79993c23,-55 66,-108 126,-153 193,115 384,232 576,346 39,-16 79,-38 120,-62 2,-1 5,-3 9,-4 -228,-137 -456,-274 -683,-411 -108,80 -158,186 -148,284z"/>
     <path class="fil26" d="M114980 81060c-59,-35 -116,-69 -173,-103 -154,108 -329,191 -504,261l-239 -121 -135 -68 0 132 353 189c174,-70 348,-153 503,-261 57,33 115,68 173,103l286 -183 0 -10 8 -126 -108 74 -164 113z"/>
     <path class="fil24" d="M112585 79993c11,107 96,203 259,245 171,43 303,15 443,-52 -192,-114 -383,-231 -576,-346 -60,45 -103,98 -126,153z"/>
     <path class="fil27" d="M112267 79003c411,-198 920,-316 1471,-316 1360,0 2462,711 2462,1590 0,549 -431,1033 -1086,1319 -392,173 -866,272 -1376,272 -1358,0 -2460,-713 -2460,-1591 0,-521 389,-985 989,-1274zm1471 3178c1416,0 2598,-647 2881,-1506 43,-128 64,-261 64,-398 0,-1052 -1318,-1902 -2945,-1902 -1625,0 -2944,850 -2944,1902 0,6 0,12 0,17 2,130 24,258 65,381 283,859 1465,1506 2879,1506z"/>
     <path class="fil28" d="M114843 80499c-4,13 -16,28 -28,43 -11,13 -26,26 -38,40 -196,-118 -392,-236 -588,-354 -47,-28 -95,-57 -142,-85 135,-52 273,-75 421,-40 130,32 503,166 375,396zm-1436 -375c-41,24 -81,46 -120,62 -140,67 -272,95 -443,52 -163,-42 -248,-138 -259,-245 -10,-98 39,-204 148,-284 227,137 455,274 683,411 -4,1 -7,3 -9,4zm-1095 -667c43,25 85,51 128,76 -30,28 -58,60 -85,93 -9,10 -16,22 -25,33 -63,93 -91,185 -93,273l0 2c-5,228 167,430 392,555 386,213 755,11 1097,-181 262,156 524,314 787,472 -44,23 -87,46 -132,66 -123,58 -253,105 -367,145 -23,6 -53,21 -85,28l0 10 135 68 239 121c175,-70 350,-153 504,-261 57,34 114,68 173,103l164 -113 108 -74 4 -2c0,-2 -2,-2 -4,-2 -1,-1 -3,-3 -3,-3 -50,-30 -100,-60 -148,-90 -18,-11 -37,-22 -55,-33 43,-50 85,-103 118,-161 15,-25 27,-48 33,-73 110,-301 -219,-544 -472,-646 -370,-149 -679,-66 -995,89 -190,-113 -377,-228 -568,-343 -41,-25 -82,-48 -122,-73 83,-36 168,-68 249,-99 26,-8 48,-19 72,-27 16,-7 30,-13 41,-23 5,-4 10,-7 14,-11l-14 -6 -337 -183c-116,45 -236,95 -349,155 -76,-47 -151,-91 -229,-138l-59 40 -212 141 0 25c16,8 40,13 55,21 13,9 28,17 41,26z"/>
     <path class="fil23" d="M112249 79563c35,21 72,41 106,63 27,-33 55,-65 85,-93 -43,-25 -85,-51 -128,-76 -13,-9 -28,-17 -41,-26 -15,-8 -39,-13 -55,-21l0 121c10,18 11,18 33,32z"/>
     <path class="fil23" d="M113289 79437c-81,31 -166,63 -249,99 40,25 81,48 122,73 59,-23 119,-46 177,-68 17,-6 44,-18 63,-28l0 -22 0 -104c-11,10 -25,16 -41,23 -24,8 -46,19 -72,27z"/>
     <path class="fil29" d="M117724 78993c-283,859 -1464,1506 -2881,1506 -1414,0 -2596,-647 -2878,-1506 -42,-123 -64,-251 -66,-381l1 778c0,1052 1318,1905 2943,1905 1628,0 2946,-853 2946,-1905l0 -794c0,136 -22,269 -65,397z"/>
     <path class="fil26" d="M115573 78421c-148,-35 -286,-12 -420,40 46,28 94,56 141,85 83,-15 169,-15 257,6 104,25 358,115 398,265 128,-230 -247,-364 -376,-396z"/>
     <path class="fil26" d="M116151 79061c19,11 37,21 55,33 15,-20 30,-42 42,-63 41,-71 58,-140 55,-204 -7,24 -18,48 -33,73 -34,58 -75,111 -119,161z"/>
     <path class="fil25" d="M115551 78552c-88,-21 -174,-21 -257,-6 196,117 392,236 588,354 12,-13 27,-27 39,-40 11,-15 23,-30 28,-43 -40,-150 -294,-240 -398,-265z"/>
     <path class="fil26" d="M114832 78626c-343,192 -712,394 -1097,181 -226,-125 -398,-328 -393,-556 -89,280 102,538 371,687 386,213 755,12 1097,-181 224,134 451,271 677,407 45,-20 88,-43 131,-67 -263,-157 -525,-315 -786,-471z"/>
     <path class="fil25" d="M113321 77728l0 -25 213 -141 58 -40c78,47 153,91 229,138 113,-60 233,-110 349,-155l337 183 14 7c-4,3 -8,6 -14,10l0 105 0 21c-19,10 -46,22 -63,28 -58,22 -118,45 -177,68 191,115 378,230 568,343 316,-155 625,-238 996,-88 252,101 581,344 472,645 3,64 -14,133 -55,204 -12,21 -27,43 -42,63 49,30 98,60 148,90 0,0 2,2 4,3 1,0 3,0 3,2l-3 2 -8 126 0 10 -287 183c-58,-35 -116,-70 -172,-104 -155,109 -330,192 -504,261l-353 -189 0 -131 0 -10c32,-7 62,-22 85,-28 115,-40 245,-87 368,-145 -226,-136 -453,-273 -677,-407 -342,193 -711,394 -1097,181 -269,-149 -460,-407 -371,-687l1 -1c1,-88 29,-180 93,-273 8,-12 16,-23 24,-33 -34,-22 -71,-42 -106,-63 -22,-14 -23,-14 -33,-32l0 -121zm1522 2458c511,0 984,-99 1377,-273 654,-285 1085,-769 1085,-1317 0,-880 -1102,-1591 -2462,-1591 -551,0 -1060,118 -1471,315 -600,290 -989,754 -989,1276 0,877 1102,1590 2460,1590z"/>
     <path class="fil26" d="M113689 78311c24,-55 67,-108 127,-153 193,115 384,232 577,346 38,-16 78,-38 120,-62 1,-1 4,-3 8,-4 -227,-137 -455,-275 -683,-411 -109,80 -158,186 -149,284z"/>
     <path class="fil26" d="M116085 79378c-58,-35 -116,-69 -173,-103 -154,108 -329,191 -503,261l-240 -121 -135 -68 0 131 353 189c174,-69 349,-152 504,-261 56,34 114,69 172,104l287 -183 0 -10 8 -126 -109 74 -164 113z"/>
     <path class="fil25" d="M113689 78311c12,107 97,203 260,245 171,43 303,15 444,-52 -193,-114 -384,-231 -577,-346 -60,45 -103,98 -127,153z"/>
     <path class="fil26" d="M113372 77320c411,-197 920,-315 1471,-315 1360,0 2462,711 2462,1591 0,548 -431,1032 -1085,1317 -393,174 -866,273 -1377,273 -1358,0 -2460,-713 -2460,-1590 0,-522 389,-986 989,-1276zm1471 3179c1417,0 2598,-647 2881,-1506 43,-128 65,-261 65,-397 0,-1052 -1318,-1904 -2946,-1904 -1625,0 -2944,852 -2944,1904 1,4 0,11 0,16 2,130 24,258 66,381 282,859 1464,1506 2878,1506z"/>
     <path class="fil29" d="M115949 78817c-5,13 -17,28 -28,43 -12,13 -27,27 -39,40 -196,-118 -392,-237 -588,-354 -46,-29 -95,-57 -141,-85 134,-52 272,-75 420,-40 129,32 504,166 376,396zm-1436 -375c-42,24 -82,46 -120,62 -141,67 -273,95 -444,52 -163,-42 -248,-138 -260,-245 -9,-98 40,-204 149,-284 228,136 456,274 683,411 -4,1 -7,3 -8,4zm-1096 -668c43,25 85,52 128,77 -29,28 -58,59 -85,93 -8,10 -16,21 -24,33 -64,93 -92,185 -94,273l1 1c-6,228 166,431 392,556 385,213 754,11 1097,-181 261,156 523,314 786,471 -43,24 -86,47 -131,67 -123,58 -253,105 -368,145 -23,6 -53,21 -85,28l0 10 135 68 240 121c174,-70 349,-153 503,-261 57,34 115,68 173,103l164 -113 109 -74 3 -2c0,-2 -2,-2 -3,-2 -2,-1 -4,-3 -4,-3 -50,-30 -99,-60 -148,-90 -18,-12 -36,-22 -55,-33 44,-50 85,-103 119,-161 15,-25 26,-49 33,-73 109,-301 -220,-544 -472,-645 -371,-150 -680,-67 -996,88 -190,-113 -377,-228 -568,-343 -40,-25 -82,-48 -122,-73 83,-36 168,-68 249,-100 25,-7 49,-18 72,-26 17,-7 30,-14 41,-23 6,-4 10,-7 14,-10l-14 -7 -337 -183c-116,45 -236,95 -349,155 -76,-47 -151,-91 -229,-138l-58 40 -213 141 0 25c16,8 40,13 55,21 13,9 28,17 41,25z"/>
     <path class="fil26" d="M113354 77881c35,21 72,41 106,63 27,-34 56,-65 85,-93 -43,-25 -85,-52 -128,-77 -13,-8 -28,-16 -41,-25 -15,-8 -39,-13 -55,-21l0 121c10,18 11,18 33,32z"/>
     <path class="fil26" d="M114394 77754c-81,32 -166,64 -249,100 40,25 82,48 122,73 60,-23 119,-46 177,-68 17,-6 44,-18 63,-28l0 -21 0 -105c-11,9 -24,16 -41,23 -23,8 -47,19 -72,26z"/>
    </g>
    <path class="fil30" d="M127502 82158l45 -214 959 -4479c-1930,-1502 -3099,-420 -5475,-420 -2376,0 -6150,-1547 -6033,420l959 4479 45 214c768,2045 8732,2045 9500,0z"/>
    <path class="fil31" d="M122752 76192c2737,0 5734,-884 6115,-2115 -1443,-2701 -10523,-2572 -12230,0 341,1202 3378,2115 6115,2115z"/>
    <path class="fil32" d="M129809 73049c0,-1735 -3160,-3142 -7057,-3142 -3897,0 -7057,1407 -7057,3142 0,463 225,903 629,1299 1109,-1088 3570,-1844 6428,-1844 2858,0 5319,756 6428,1844 404,-396 629,-836 629,-1299z"/>
    <path class="fil33" d="M115695 75646c0,1736 3160,3143 7057,3143 3897,0 7057,-1407 7057,-3143l0 -2597c0,-463 -365,822 -768,1217 -1110,1088 -3449,1740 -6306,1740 -2858,0 -5214,-611 -6324,-1699 -404,-396 -472,-824 -716,-1258l0 2597z"/>
    <path class="fil34" d="M129419 72970c0,1532 -2985,2774 -6667,2774 -3682,0 -6667,-1242 -6667,-2774 0,-1532 2985,-2773 6667,-2773 3682,0 6667,1241 6667,2773zm-6667 -3063c-3897,0 -7057,1407 -7057,3142 0,1736 3160,3143 7057,3143 3897,0 7057,-1407 7057,-3143 0,-1735 -3160,-3142 -7057,-3142z"/>
    <polygon class="fil35" points="123013,74367 122488,74367 122488,63862 123013,63862 "/>
    <g>
     <path class="fil36" d="M123198 72990c454,-913 1310,-1897 2086,-2516 1171,-934 2829,-1655 4972,-1137 0,0 -636,1198 -1813,2257 -1500,1357 -3286,1957 -5245,1396z"/>
     <path class="fil36" d="M122270 73153c-3010,0 -5881,-1814 -6560,-4812 0,0 3154,88 5122,2045l0 0c763,757 1250,1711 1438,2767z"/>
    </g>
    <g>
     <polygon class="fil37" points="129419,61554 127058,61554 127058,60719 129419,60719 "/>
     <polygon class="fil37" points="127171,56124 127762,56717 126091,58386 125500,57795 "/>
     <polygon class="fil37" points="127762,65557 127171,66147 125500,64477 126091,63886 "/>
     <polygon class="fil37" points="123168,56829 122333,56829 122333,54468 123168,54468 "/>
     <polygon class="fil37" points="118331,56124 120000,57795 119409,58386 117740,56717 "/>
     <polygon class="fil37" points="120000,64477 118331,66147 117740,65557 119409,63886 "/>
     <polygon class="fil37" points="118444,61554 116082,61554 116082,60719 118444,60719 "/>
     <g>
      <path class="fil38" d="M123647 60586c-295,-445 -1411,-303 -1536,260 -100,452 644,541 918,637 330,115 701,351 457,769 -319,544 -1053,533 -1304,-36 -28,-65 -250,8 -227,60 281,639 1126,633 1582,177 268,-267 359,-688 13,-927 -185,-127 -436,-169 -645,-236 -151,-48 -351,-85 -466,-198 -427,-417 671,-913 980,-446 42,64 254,-21 228,-60z"/>
      <path class="fil38" d="M122747 59939c39,1091 38,2182 1,3274 -4,103 225,61 228,-25 38,-1104 37,-2206 -2,-3310 -2,-83 -230,-35 -227,61z"/>
     </g>
    </g>
    <g>
     <path class="fil29" d="M130272 84250c-258,783 -1336,1373 -2627,1373 -1289,0 -2367,-590 -2624,-1373 -38,-112 -58,-229 -59,-348l0 710c0,959 1201,1736 2683,1736 1484,0 2685,-777 2685,-1736l0 -724c0,124 -19,245 -58,362z"/>
     <path class="fil26" d="M128311 83729c-135,-32 -261,-11 -384,36 43,25 87,52 129,77 76,-13 155,-13 235,6 94,23 326,105 362,241 117,-209 -224,-332 -342,-360z"/>
     <path class="fil26" d="M128838 84312c16,10 33,19 50,30 13,-18 27,-38 38,-57 38,-66 53,-128 50,-187 -6,23 -17,44 -30,67 -31,53 -69,101 -108,147z"/>
     <path class="fil25" d="M128291 83848c-80,-19 -159,-19 -235,-6 179,108 357,215 536,323 11,-12 25,-24 35,-37 11,-13 21,-27 26,-39 -36,-136 -268,-218 -362,-241z"/>
     <path class="fil26" d="M127635 83915c-313,175 -649,359 -1000,165 -206,-114 -363,-299 -358,-506 -82,255 92,489 338,626 351,194 688,10 1000,-165 205,122 411,247 617,371 41,-18 80,-40 120,-61 -240,-144 -479,-288 -717,-430z"/>
     <path class="fil25" d="M126257 83097l0 -23 194 -129 53 -36c72,42 140,83 209,126 103,-55 213,-101 319,-141l307 166 12 6c-3,3 -7,6 -12,10l0 95 0 20c-18,8 -42,19 -57,25 -53,20 -108,41 -162,62 174,105 345,210 518,312 288,-140 569,-216 907,-80 231,92 531,314 431,588 3,59 -12,121 -50,187 -11,19 -25,39 -38,57 44,28 89,55 135,82 0,0 1,2 3,3 1,0 3,0 3,2l-3 1 -8 115 0 9 -260 167c-53,-32 -106,-64 -158,-94 -141,99 -300,174 -459,238l-321 -173 0 -120 0 -9c28,-6 56,-19 77,-25 104,-37 222,-79 335,-132 -206,-124 -412,-249 -617,-371 -312,175 -649,359 -1000,165 -246,-137 -420,-371 -338,-626l0 -2c1,-80 27,-163 85,-248 7,-11 15,-21 22,-31 -31,-19 -65,-37 -97,-57 -19,-12 -21,-12 -30,-29l0 -110zm1388 2241c466,0 897,-91 1255,-249 597,-260 990,-701 990,-1201 0,-802 -1005,-1450 -2245,-1450 -503,0 -967,107 -1341,288 -547,263 -901,686 -901,1162 0,800 1004,1450 2242,1450z"/>
     <path class="fil26" d="M126594 83629c21,-51 60,-99 115,-140 176,105 350,211 526,315 35,-15 71,-34 109,-56 1,-1 4,-3 7,-5 -207,-123 -415,-249 -622,-374 -99,73 -144,170 -135,260z"/>
     <path class="fil26" d="M128777 84601c-53,-32 -106,-63 -157,-93 -141,98 -300,174 -460,237l-218 -110 -122 -63 0 120 321 173c159,-64 318,-139 459,-238 52,30 105,62 158,94l260 -167 0 -9 8 -115 -99 68 -150 103z"/>
     <path class="fil25" d="M126594 83629c10,96 88,184 236,222 156,40 276,14 405,-47 -176,-104 -350,-210 -526,-315 -55,41 -94,89 -115,140z"/>
     <path class="fil26" d="M126304 82726c374,-181 838,-288 1341,-288 1240,0 2245,648 2245,1450 0,500 -393,941 -990,1201 -358,158 -789,249 -1255,249 -1238,0 -2242,-650 -2242,-1450 0,-476 354,-899 901,-1162zm1341 2897c1291,0 2369,-590 2627,-1373 39,-117 58,-238 58,-362 0,-960 -1201,-1735 -2685,-1735 -1482,0 -2683,775 -2683,1735 0,4 0,10 0,14 1,119 21,236 59,348 257,783 1335,1373 2624,1373z"/>
     <path class="fil29" d="M128653 84089c-5,12 -15,26 -26,39 -10,13 -24,25 -35,37 -179,-108 -357,-215 -536,-323 -42,-25 -86,-52 -129,-77 123,-47 249,-68 384,-36 118,28 459,151 342,360zm-1309 -341c-38,22 -74,41 -109,56 -129,61 -249,87 -405,47 -148,-38 -226,-126 -236,-222 -9,-90 36,-187 135,-260 207,125 415,251 622,374 -3,2 -6,4 -7,5zm-999 -609c39,23 77,47 117,70 -27,26 -53,54 -78,84 -7,10 -15,20 -22,31 -58,85 -84,168 -85,248l0 2c-5,207 152,392 358,506 351,194 687,10 1000,-165 238,142 477,286 717,430 -40,21 -79,43 -120,61 -113,53 -231,95 -335,132 -21,6 -49,19 -77,25l0 9 122 63 218 110c160,-63 319,-139 460,-237 51,30 104,61 157,93l150 -103 99 -68 3 -1c0,-2 -2,-2 -3,-2 -2,-1 -3,-3 -3,-3 -46,-27 -91,-54 -135,-82 -17,-11 -34,-20 -50,-30 39,-46 77,-94 108,-147 13,-23 24,-44 30,-67 100,-274 -200,-496 -431,-588 -338,-136 -619,-60 -907,80 -173,-102 -344,-207 -518,-312 -37,-22 -75,-43 -111,-66 76,-33 153,-63 227,-91 23,-8 44,-17 65,-24 16,-6 28,-12 38,-21 5,-4 9,-7 12,-10l-12 -6 -307 -166c-106,40 -216,86 -319,141 -69,-43 -137,-84 -209,-126l-53 36 -194 129 0 23c15,7 37,12 50,19 12,8 26,15 38,23z"/>
     <path class="fil26" d="M126287 83236c32,20 66,38 97,57 25,-30 51,-58 78,-84 -40,-23 -78,-47 -117,-70 -12,-8 -26,-15 -38,-23 -13,-7 -35,-12 -50,-19l0 110c9,17 11,17 30,29z"/>
     <path class="fil26" d="M127236 83121c-74,28 -151,58 -227,91 36,23 74,44 111,66 54,-21 109,-42 162,-62 15,-6 39,-17 57,-25l0 -20 0 -95c-10,9 -22,15 -38,21 -21,7 -42,16 -65,24z"/>
    </g>
    <g>
     <path class="fil29" d="M124204 64307c-965,201 -2220,-562 -2992,-1899 -772,-1336 -806,-2805 -148,-3540 93,-107 541,-341 663,-413l-161 55c-748,291 -1432,723 -1641,1557 -195,777 -22,1810 535,2775 707,1224 1818,1968 2743,1929 549,-22 1102,-368 1529,-696l97 -77c-128,74 -480,280 -625,309z"/>
     <path class="fil26" d="M123571 61964c-47,-159 -144,-276 -267,-376 0,60 -1,121 -2,180 59,70 106,152 134,247 32,111 86,400 -33,519 286,-4 209,-431 168,-570z"/>
     <path class="fil26" d="M123283 62859c-1,23 -1,46 -2,70 27,3 55,5 82,5 90,0 164,-21 223,-60 -27,7 -55,9 -87,9 -73,0 -146,-11 -216,-24z"/>
     <path class="fil25" d="M123436 62015c-28,-95 -75,-177 -134,-247 -5,250 -10,499 -14,749 19,3 40,10 59,14 20,3 40,6 56,3 119,-119 65,-408 33,-519z"/>
     <path class="fil26" d="M122974 61375c-368,-218 -760,-457 -769,-937 -6,-281 93,-554 310,-673 -313,67 -451,388 -446,724 9,480 401,719 769,938 -5,285 -10,573 -15,860 43,32 88,60 134,88 6,-334 12,-668 17,-1000z"/>
     <path class="fil25" d="M122998 59459l24 -14 249 124 70 33c-2,100 -3,195 -6,292 119,74 231,160 336,246l12 418 1 16c-5,-1 -11,-4 -17,-7l-99 57 -20 12c-20,-14 -46,-32 -61,-44 -53,-43 -107,-87 -162,-131 -4,243 -10,483 -13,723 318,214 565,461 626,893 42,293 -8,737 -352,797 -59,39 -133,60 -223,60 -27,0 -55,-2 -82,-5 -2,62 -3,125 -4,189 0,0 -1,2 -2,5 1,1 2,3 1,3l-4 -2 -123 61 -10 6 -328 -170c1,-74 2,-149 3,-220 -187,-87 -360,-207 -521,-333l-14 -436 125 -72 9 -5c23,26 54,46 73,64 100,87 214,184 337,268 5,-287 10,-575 15,-860 -368,-219 -760,-458 -769,-938 -5,-336 133,-657 446,-724l2 -1c84,-47 185,-70 308,-61 16,2 31,3 45,5 2,-44 0,-89 2,-134 0,-28 -1,-29 11,-49l115 -66zm-1491 2778c278,482 630,875 1007,1151 627,463 1319,606 1837,307 830,-480 901,-1908 160,-3192 -301,-521 -690,-938 -1101,-1217 -600,-409 -1250,-524 -1743,-239 -828,478 -901,1908 -160,3190z"/>
     <path class="fil26" d="M122648 60126c65,-8 139,3 213,36 -3,244 -8,488 -12,733 37,27 79,53 124,79 2,1 6,3 9,5 4,-289 11,-579 15,-869 -134,-58 -262,-47 -349,16z"/>
     <path class="fil26" d="M122946 62969c2,-74 3,-148 3,-219 -186,-87 -360,-207 -521,-334l-16 -292 -8 -164 -125 72 14 436c161,126 334,246 521,333 -1,71 -2,146 -3,220l328 170 10 -6 123 -61 -129 -61 -197 -94z"/>
     <path class="fil25" d="M122648 60126c-94,68 -139,201 -89,378 52,185 151,294 290,391 4,-245 9,-489 12,-733 -74,-33 -148,-44 -213,-36z"/>
     <path class="fil26" d="M123410 59286c411,279 800,696 1101,1217 741,1284 670,2712 -160,3192 -518,299 -1210,156 -1837,-307 -377,-276 -729,-669 -1007,-1151 -741,-1282 -668,-2712 160,-3190 493,-285 1143,-170 1743,239zm-2198 3122c772,1337 2027,2100 2992,1899 145,-29 282,-81 411,-156 993,-573 1078,-2282 191,-3819 -886,-1535 -2409,-2316 -3402,-1742 -5,3 -11,6 -16,9 -121,72 -231,162 -324,269 -658,735 -624,2204 148,3540z"/>
     <path class="fil29" d="M123403 62534c-16,3 -36,0 -56,-3 -19,-4 -40,-11 -59,-14 4,-250 9,-499 14,-749 1,-59 2,-120 2,-180 123,100 220,217 267,376 41,140 118,566 -168,570zm-430 -1560c-45,-26 -87,-52 -124,-79 -139,-97 -238,-206 -290,-391 -50,-177 -5,-310 89,-378 87,-63 215,-74 349,-16 -4,290 -11,580 -15,869 -3,-2 -7,-4 -9,-5zm34 -1398c0,54 -3,107 -3,162 -43,-13 -88,-22 -134,-30 -14,-2 -29,-3 -45,-5 -123,-9 -224,14 -308,61l-2 1c-217,119 -316,392 -310,673 9,480 401,719 769,937 -5,332 -11,666 -17,1000 -46,-28 -91,-56 -134,-88 -123,-84 -237,-181 -337,-268 -19,-18 -50,-38 -73,-64l-9 5 8 164 16 292c161,127 335,247 521,334 0,71 -1,145 -3,219l197 94 129 61 4 2c1,0 0,-2 -1,-3 1,-3 2,-5 2,-5 1,-64 2,-127 4,-189 1,-24 1,-47 2,-70 70,13 143,24 216,24 32,0 60,-2 87,-9 344,-60 394,-504 352,-797 -61,-432 -308,-679 -626,-893 3,-240 9,-480 13,-723 2,-51 1,-103 3,-155 80,59 156,122 230,181 22,20 44,36 64,53 16,13 29,22 45,27 6,3 12,6 17,7l-1 -16 -12 -418c-105,-86 -217,-172 -336,-246 3,-97 4,-192 6,-292l-70 -33 -249 -124 -24 14c1,20 9,45 10,64 -1,17 -1,35 -1,53z"/>
     <path class="fil26" d="M122872 59574c-2,45 0,90 -2,134 46,8 91,17 134,30 0,-55 3,-108 3,-162 0,-18 0,-36 1,-53 -1,-19 -9,-44 -10,-64l-115 66c-12,20 -11,21 -11,49z"/>
     <path class="fil26" d="M123558 60487c-74,-59 -150,-122 -230,-181 -2,52 -1,104 -3,155 55,44 109,88 162,131 15,12 41,30 61,44l20 -12 99 -57c-16,-5 -29,-14 -45,-27 -20,-17 -42,-33 -64,-53z"/>
    </g>
    <g>
     <path class="fil29" d="M12902 82790c-282,859 -1464,1506 -2880,1506 -1415,0 -2597,-647 -2879,-1506 -41,-123 -63,-252 -65,-381l0 778c0,1052 1318,1905 2944,1905 1627,0 2945,-853 2945,-1905l0 -795c0,137 -22,270 -65,398z"/>
     <path class="fil26" d="M10751 82218c-148,-35 -286,-12 -420,40 47,28 95,56 141,85 83,-15 169,-15 258,6 103,25 357,115 397,264 128,-229 -246,-363 -376,-395z"/>
     <path class="fil26" d="M11330 82858c18,11 36,21 55,33 15,-20 30,-42 41,-63 42,-72 58,-140 55,-205 -6,25 -18,49 -33,74 -33,58 -75,111 -118,161z"/>
     <path class="fil25" d="M10730 82349c-89,-21 -175,-21 -258,-6 196,117 392,235 588,354 12,-14 27,-27 39,-41 11,-14 23,-29 28,-43 -40,-149 -294,-239 -397,-264z"/>
     <path class="fil26" d="M10010 82422c-342,193 -712,394 -1097,182 -226,-125 -397,-328 -392,-556 -90,280 101,537 370,687 386,212 755,11 1097,-181 225,134 451,271 677,407 45,-20 88,-43 131,-67 -262,-157 -525,-316 -786,-472z"/>
     <path class="fil25" d="M8499 81525l0 -25 213 -142 58 -40c78,47 153,92 230,138 113,-59 232,-109 349,-154l337 183 13 6c-3,4 -8,7 -13,11l0 104 0 22c-20,10 -47,21 -63,28 -58,21 -118,45 -178,68 191,115 379,230 569,343 315,-155 624,-238 995,-88 253,101 582,343 472,644 3,65 -13,133 -55,205 -11,21 -26,43 -41,63 48,30 98,60 148,90 0,0 1,2 3,3 2,0 3,0 3,2l-3 1 -8 127 0 10 -286 182c-58,-34 -117,-69 -173,-103 -155,108 -329,192 -504,261l-352 -189 0 -131 0 -10c32,-7 61,-22 84,-29 115,-39 245,-86 368,-144 -226,-136 -452,-273 -677,-407 -342,192 -711,393 -1097,181 -269,-150 -460,-407 -370,-687l0 -1c2,-89 29,-180 93,-273 8,-12 16,-23 25,-33 -35,-22 -72,-42 -106,-64 -22,-13 -24,-13 -34,-31l0 -121zm1523 2458c510,0 984,-99 1376,-273 655,-285 1085,-769 1085,-1318 0,-879 -1102,-1590 -2461,-1590 -552,0 -1061,118 -1472,315 -599,290 -988,754 -988,1275 0,878 1102,1591 2460,1591z"/>
     <path class="fil26" d="M8868 82108c23,-55 67,-108 127,-153 192,115 383,232 576,346 39,-17 78,-38 120,-62 2,-1 5,-3 8,-5 -227,-136 -455,-274 -683,-410 -108,80 -158,186 -148,284z"/>
     <path class="fil26" d="M11263 83175c-58,-35 -116,-70 -172,-103 -155,108 -330,191 -504,261l-239 -121 -135 -68 0 131 353 189c174,-69 348,-153 503,-261 56,34 115,69 173,103l286 -182 0 -10 8 -127 -108 75 -165 113z"/>
     <path class="fil25" d="M8868 82108c12,106 97,203 259,244 171,44 303,15 444,-51 -193,-114 -384,-231 -576,-346 -60,45 -104,98 -127,153z"/>
     <path class="fil26" d="M8550 81117c411,-197 920,-315 1472,-315 1359,0 2461,711 2461,1590 0,549 -430,1033 -1085,1318 -392,174 -866,273 -1376,273 -1358,0 -2460,-713 -2460,-1591 0,-521 389,-985 988,-1275zm1472 3179c1416,0 2598,-647 2880,-1506 43,-128 65,-261 65,-398 0,-1052 -1318,-1903 -2945,-1903 -1626,0 -2944,851 -2944,1903 0,5 0,12 0,17 2,129 24,258 65,381 282,859 1464,1506 2879,1506z"/>
     <path class="fil29" d="M11127 82613c-5,14 -17,29 -28,43 -12,14 -27,27 -39,41 -196,-119 -392,-237 -588,-354 -46,-29 -94,-57 -141,-85 135,-52 272,-75 420,-40 130,32 504,166 376,395zm-1436 -374c-42,24 -81,45 -120,62 -141,66 -273,95 -444,51 -162,-41 -247,-138 -259,-244 -10,-98 40,-204 148,-284 228,136 456,274 683,410 -3,2 -6,4 -8,5zm-1095 -668c43,25 85,52 128,77 -30,28 -59,59 -85,93 -9,10 -17,21 -25,33 -64,93 -91,184 -93,273l0 1c-5,228 166,431 392,556 385,212 755,11 1097,-182 261,156 524,315 786,472 -43,24 -86,47 -131,67 -123,58 -253,105 -368,144 -23,7 -53,22 -84,29l0 10 135 68 239 121c174,-70 349,-153 504,-261 56,33 114,68 172,103l165 -113 108 -75 3 -1c0,-2 -1,-2 -3,-2 -2,-1 -3,-3 -3,-3 -50,-30 -100,-60 -148,-90 -19,-12 -37,-22 -55,-33 43,-50 85,-103 118,-161 15,-25 27,-49 33,-74 110,-301 -219,-543 -472,-644 -371,-150 -680,-67 -995,88 -190,-113 -378,-228 -569,-343 -40,-25 -81,-48 -121,-73 83,-36 167,-68 249,-100 25,-8 48,-18 71,-26 17,-7 30,-14 42,-23 5,-4 10,-7 13,-11l-13 -6 -337 -183c-117,45 -236,95 -349,154 -77,-46 -152,-91 -230,-138l-58 40 -213 142 0 25c17,8 40,13 55,21 13,9 28,17 42,25z"/>
     <path class="fil26" d="M8533 81677c34,22 71,42 106,64 26,-34 55,-65 85,-93 -43,-25 -85,-52 -128,-77 -14,-8 -29,-16 -42,-25 -15,-8 -38,-13 -55,-21l0 121c10,18 12,18 34,31z"/>
     <path class="fil26" d="M9573 81551c-82,32 -167,64 -249,100 40,25 81,48 121,73 60,-23 120,-47 178,-68 16,-7 43,-18 63,-28l0 -22 0 -104c-12,9 -25,16 -42,23 -23,8 -46,18 -71,26z"/>
    </g>
    <path class="fil10" d="M54325 61518c-960,960 -1489,2238 -1490,3596 1,1357 530,2635 1489,3595 961,960 2238,1488 3595,1489 1359,-1 2636,-530 3596,-1490 960,-960 1488,-2236 1489,-3595 0,-1359 -529,-2634 -1489,-3594 -960,-960 -2237,-1490 -3595,-1490 -1359,0 -2635,529 -3595,1489zm4464 -1093c942,173 1808,626 2501,1319 899,899 1396,2095 1397,3368 1,1274 -496,2470 -1397,3371 -900,900 -2096,1397 -3371,1397 -186,0 -372,-11 -555,-33 475,-3140 951,-6281 1425,-9422zm-703 2526c-261,-168 -552,-244 -862,-220 -227,16 -455,93 -669,211l-561 -561 -225 225 514 515c-130,97 -262,222 -363,350l-508 -508 -225 225 547 547c-349,587 -311,1286 195,1765 193,183 441,307 716,328 326,24 643,-104 923,-259l106 106 -624 4127c-943,-173 -1808,-626 -2500,-1318 -902,-902 -1397,-2096 -1397,-3371 1,-1273 495,-2471 1395,-3371 901,-901 2099,-1395 3373,-1396 186,0 372,11 555,32l-390 2573zm-28 4441c410,164 842,96 1224,-109l563 563 226 -226 -515 -515c131,-97 261,-221 362,-349l508 508 226 -225 -548 -548c284,-491 311,-1018 -17,-1500 -407,-593 -999,-646 -1614,-342l-88 574 1308 1308c-104,132 -228,250 -364,349l-1037 -1037 -59 391 812 812c-321,134 -614,177 -937,20l-50 326zm-232 -2728l-63 413 -143 92 -1474 -1473c102,-130 231,-251 363,-350l1317 1318zm-1860 -697l1367 1367c-200,103 -435,195 -663,178 -200,-15 -379,-106 -523,-242 -372,-352 -414,-859 -181,-1303zm3860 1204c239,351 231,713 47,1083l-2 4 -1302 -1302c489,-238 919,-278 1257,215zm-1940 -898l-1097 -1096c147,-71 297,-117 459,-131 296,-20 559,70 785,259l-147 968z"/>
   </g>
  </g>
 </g>
</svg>
