<?xml version="1.0" encoding="UTF-8"?>
<!DOCTYPE svg PUBLIC "-//W3C//DTD SVG 1.1//EN" "http://www.w3.org/Graphics/SVG/1.1/DTD/svg11.dtd">
<!-- Creator: CorelDRAW X7 -->
<svg xmlns="http://www.w3.org/2000/svg" xml:space="preserve" width="8.23924in" height="5.73449in" version="1.1" style="shape-rendering:geometricPrecision; text-rendering:geometricPrecision; image-rendering:optimizeQuality; fill-rule:evenodd; clip-rule:evenodd"
viewBox="0 0 82392 57345"
 xmlns:xlink="http://www.w3.org/1999/xlink">
 <defs>
  <style type="text/css">
   <![CDATA[
    .fil28 {fill:#FFC632}
    .fil23 {fill:#FAAB30}
    .fil24 {fill:#F79333}
    .fil21 {fill:#2F2718}
    .fil13 {fill:#6168A8}
    .fil31 {fill:#657AA9}
    .fil32 {fill:#7C94CA}
    .fil33 {fill:#95A9D4}
    .fil18 {fill:#A38755}
    .fil34 {fill:#B8C5E2}
    .fil29 {fill:#BB9B61}
    .fil22 {fill:#D2AE6D}
    .fil35 {fill:#D6BB8A}
    .fil25 {fill:#DCBB79}
    .fil6 {fill:#E7D3AD}
    .fil7 {fill:#ECD6B2}
    .fil26 {fill:#EDD7B2}
    .fil0 {fill:#EDDFC4}
    .fil27 {fill:#F2E2C7}
    .fil19 {fill:#F5EEE0}
    .fil20 {fill:#4A458F;fill-rule:nonzero}
    .fil10 {fill:#576074;fill-rule:nonzero}
    .fil17 {fill:#5D4D30;fill-rule:nonzero}
    .fil9 {fill:#657AA9;fill-rule:nonzero}
    .fil12 {fill:#6C87C3;fill-rule:nonzero}
    .fil8 {fill:#899FCF;fill-rule:nonzero}
    .fil11 {fill:#AABADC;fill-rule:nonzero}
    .fil30 {fill:#B0BEDF;fill-rule:nonzero}
    .fil4 {fill:#BB9B61;fill-rule:nonzero}
    .fil38 {fill:#C19C00;fill-rule:nonzero}
    .fil5 {fill:#D2AE6D;fill-rule:nonzero}
    .fil36 {fill:#D6BB8A;fill-rule:nonzero}
    .fil16 {fill:#D7B77D;fill-rule:nonzero}
    .fil2 {fill:#DFC596;fill-rule:nonzero}
    .fil1 {fill:#EDDFC4;fill-rule:nonzero}
    .fil37 {fill:#EFE3CC;fill-rule:nonzero}
    .fil15 {fill:#F5EEE0;fill-rule:nonzero}
    .fil3 {fill:#F6EFE2;fill-rule:nonzero}
    .fil14 {fill:white;fill-rule:nonzero}
   ]]>
  </style>
 </defs>
 <g id="Layer_x0020_1">
  <metadata id="CorelCorpID_0Corel-Layer"/>
  <g id="_3027886792160">
   <path class="fil0" d="M29068 20930c1964,1844 5393,838 7405,-407 2160,-1338 3832,-3593 4015,-6178 336,-4763 -5443,-4784 -8480,-3176 -2729,1445 -4513,4341 -4039,7468 17,114 38,228 62,341 157,732 492,1440 1037,1952z"/>
   <path class="fil1" d="M71724 51265c0,4292 -19021,5636 -22520,5847 -8731,526 -17562,153 -26144,-1038 -6522,-905 -12236,-2395 -12236,-4809 0,-3327 13633,-6024 30450,-6024 16817,0 30450,2697 30450,6024z"/>
   <path class="fil2" d="M66303 51713c0,5635 -42124,5092 -42124,0 0,-2269 7805,-4107 20016,-4107 12210,0 22108,1838 22108,4107z"/>
   <path class="fil3" d="M12903 47532c-2075,-1013 -3516,-2516 -2834,-4672 281,-889 957,-1871 2247,-2789 837,-845 1258,-1690 1099,-3170 -259,-2411 -1095,-3490 -1248,-5405 -534,-6679 7379,-9769 12838,-8783 3509,633 5925,2291 8560,2106 6188,-436 8213,-8833 11427,-13071 1382,-1823 2930,-3281 4694,-4368 3934,-2424 10230,-3162 15260,-1594 5428,1693 7898,5397 7870,9719 -38,5715 -4328,8955 -4150,14135 155,4517 3958,4699 3677,10431 -231,4706 -3549,7392 -7915,8228 -8159,1563 -43673,3064 -51525,-767z"/>
   <path class="fil1" d="M17286 26984c5121,-3491 9950,-83 7175,3359 -1721,2134 -5949,3465 -8422,2202 -891,-456 -1415,-1291 -1092,-2682 239,-1031 1150,-2069 2339,-2879z"/>
   <path class="fil4" d="M28231 51658c0,-435 497,-788 1109,-788 612,0 1108,353 1108,788l-2217 0z"/>
   <path class="fil4" d="M52958 52795c0,-436 496,-788 1108,-788 613,0 1109,352 1109,788l-2217 0z"/>
   <path class="fil5" d="M15173 51662c0,-385 440,-697 981,-697 542,0 982,312 982,697l-1963 0z"/>
   <path class="fil4" d="M21488 52011c0,-248 283,-449 632,-449 349,0 632,201 632,449l-1264 0z"/>
   <path class="fil4" d="M56799 50582c0,-639 729,-1156 1627,-1156 898,0 1626,517 1626,1156l-3253 0z"/>
   <path class="fil5" d="M36542 53333c0,-638 728,-1156 1626,-1156 899,0 1627,518 1627,1156l-3253 0z"/>
   <path class="fil5" d="M44917 53163c0,-319 365,-578 814,-578 449,0 813,259 813,578l-1627 0z"/>
   <path class="fil5" d="M62638 51919c0,-408 466,-739 1040,-739 575,0 1041,331 1041,739l-2081 0z"/>
   <path class="fil5" d="M22555 52010c0,-495 564,-896 1260,-896 696,0 1260,401 1260,896l-2520 0z"/>
   <path class="fil4" d="M39326 53333c0,-319 364,-578 813,-578 449,0 813,259 813,578l-1626 0z"/>
   <path class="fil3" d="M68109 15856c155,1121 737,1612 1290,1501 940,-189 1133,-1439 1079,-2607 -78,-1667 -640,-3378 -1858,-4567 -1068,-1043 -2806,-742 -2643,610 111,929 1046,1690 1518,2503 423,729 437,1272 614,2560z"/>
   <path class="fil6" d="M71518 27260c768,25 1383,655 1388,1436l12 0c6,-781 622,-1411 1388,-1436 -770,-25 -1388,-661 -1388,-1446l-10 0c0,785 -618,1421 -1390,1446z"/>
   <path class="fil7" d="M7629 48429c596,19 1074,508 1077,1114l10 0c5,-606 483,-1095 1078,-1114 -598,-20 -1078,-514 -1078,-1123l-8 0c0,609 -480,1103 -1079,1123z"/>
   <g>
    <path class="fil1" d="M0 6038c362,-161 730,-310 1103,-445 4377,-1587 9415,-1407 13329,-3930 750,-484 1432,-1051 2078,-1663l17967 0c-4543,526 -8642,818 -10647,3591 -1047,1446 -1152,2841 -1254,4235 -354,4879 -2197,5926 -6938,6641 -1268,191 -2414,328 -3574,749 -5154,1870 -6547,5025 -6603,8644 -157,10127 5362,15857 -5461,24982l0 -42804z"/>
    <path class="fil3" d="M21734 0c-2614,1703 -3643,3867 -5274,6436 -3700,5829 -9733,8088 -16460,6427l0 -12863 21734 0z"/>
   </g>
   <g>
    <polygon class="fil8" points="65934,28446 50523,28446 53574,31497 42516,42555 50794,50833 61852,39775 65934,43857 "/>
    <polygon class="fil9" points="49911,49942 49467,49499 61852,37114 64052,39315 64052,30327 55065,30327 56234,31497 43850,43881 43407,43438 55348,31497 53551,29700 64679,29700 64679,40829 61852,38001 "/>
    <polygon class="fil10" points="44962,31495 53240,39772 50794,50833 42516,42555 "/>
    <polygon class="fil9" points="42180,50833 33903,42555 44963,31494 53241,39772 "/>
    <polygon class="fil8" points="35238,43890 34794,43447 45855,32386 46298,32830 "/>
    <polygon class="fil8" points="41299,49951 40855,49507 51916,38447 52359,38890 "/>
    <polygon class="fil10" points="38007,31495 46285,39772 42181,50833 33902,42555 "/>
    <polygon class="fil8" points="32179,53878 23901,45600 38007,31495 46285,39773 "/>
    <polygon class="fil9" points="32179,52104 25675,45600 38889,32386 39332,32830 26562,45600 32179,51217 44950,38447 45393,38890 "/>
    <path class="fil9" d="M26119 45600l1636 -1630c431,433 674,1019 674,1630 0,622 -252,1219 -698,1654l-1612 -1654z"/>
    <path class="fil9" d="M32181 51662l-1649 -1617c435,-443 1029,-692 1649,-692 620,0 1215,249 1649,692l-1649 1617z"/>
    <path class="fil11" d="M38555 43102c-1071,1071 -2807,1071 -3878,0 -1071,-1070 -1071,-2807 0,-3877 1071,-1071 2807,-1071 3878,0 1071,1070 1071,2807 0,3877z"/>
   </g>
   <g>
    <path class="fil12" d="M59131 21303c0,0 2122,1906 2338,2601 216,695 -1263,4012 -1263,4012l925 530 -1725 0c0,0 421,-2656 726,-3590 -591,-309 -2077,-1611 -2077,-1611l-900 2959 -153 3320 -1363 612 722 -991c0,0 -427,-2411 -610,-3099 -183,-688 133,-3297 219,-4126 86,-830 2593,-889 3161,-617z"/>
    <path class="fil13" d="M55970 21920c-74,715 -319,2751 -268,3740 82,-1774 1625,-3846 1625,-3846 -269,56 -821,-34 -1262,-121 -52,69 -86,144 -95,227z"/>
    <path class="fil13" d="M60431 24664l-2376 -1419c0,0 1487,1302 2077,1611 -257,785 -595,2786 -696,3404 344,5 706,10 861,8 184,-2 249,-91 209,-180l-300 -172c-380,-62 -523,-335 -523,-335l748 -2917z"/>
    <path class="fil14" d="M58827 14897c-15,98 -322,2680 -322,2680 0,0 572,203 762,-127 190,-329 1,-2636 1,-2636l-441 83z"/>
    <path class="fil15" d="M59294 15178c-14,-220 -26,-364 -26,-364l-441 83c-6,42 -65,527 -130,1073l202 -414 395 -378z"/>
    <path class="fil14" d="M56934 16769l396 773c0,0 7,387 -411,443 -418,56 -516,-178 -516,-178l-41 -966c0,0 381,-154 572,-72z"/>
    <path class="fil16" d="M56955 17444c325,-105 716,-178 1169,-174 801,-60 1527,-178 1527,-178 0,0 385,522 360,1166 0,0 -739,577 -1501,696 -47,369 277,1978 621,2348 -184,374 -2019,1001 -3161,618 -225,-337 -214,-1883 -179,-2913 24,-713 485,-1346 1164,-1563z"/>
    <path class="fil15" d="M56362 16841l29 684c370,-75 640,-568 640,-568l0 0 -97 -188c-190,-82 -572,72 -572,72z"/>
    <path class="fil17" d="M60206 27916c0,0 -514,49 -715,15 -53,312 -85,515 -85,515l1725 0 -925 -530z"/>
    <path class="fil17" d="M57028 28949c-229,171 -667,196 -667,196l-723 991 1363 -612 27 -575z"/>
    <polygon class="fil13" points="57155,26205 58055,23245 56901,25873 57036,28774 "/>
    <path class="fil18" d="M58510 18954l-949 69c0,0 692,1977 1570,2280 -344,-371 -668,-1980 -621,-2349z"/>
    <path class="fil19" d="M56362 16841l29 684c370,-75 640,-568 640,-568l-97 -188c-190,-82 -572,72 -572,72z"/>
    <path class="fil19" d="M59268 14814l-441 83c-6,42 -65,527 -130,1073l202 -414 396 -378c-15,-220 -27,-364 -27,-364z"/>
    <path class="fil20" d="M57107 26228c-12,-2 -21,-12 -20,-24 0,0 1,-34 5,-96 1,-13 12,-23 26,-22 14,1 23,12 22,25 -4,61 -5,94 -5,94 -1,14 -12,24 -25,23 -1,0 -2,0 -3,0zm2570 1643l-1 0c-13,-3 -21,-16 -18,-29l20 -93c3,-13 15,-18 29,-18 13,3 21,16 18,29l-21 92c-2,13 -15,21 -27,19zm-1387 -4922c-2,-1 -4,-1 -6,-2 -65,-29 -124,-51 -174,-64 -13,-4 -21,-17 -17,-29 3,-13 16,-21 29,-18 53,14 114,37 182,67 12,6 17,20 12,32 -5,10 -16,16 -26,14zm332 182c-3,-1 -6,-2 -8,-4 -56,-35 -111,-67 -163,-95 -11,-7 -15,-21 -9,-33 6,-11 21,-16 33,-9 52,29 107,62 164,97 11,7 15,22 8,33 -6,8 -15,12 -25,11zm-828 -115c-3,-1 -7,-2 -10,-5 -10,-8 -12,-23 -5,-33 36,-48 73,-89 111,-122 9,-8 19,-15 30,-20 12,-5 26,0 32,12 5,11 0,26 -12,31 -7,4 -13,8 -19,13 -35,31 -70,70 -103,114 -6,8 -15,11 -24,10zm1143 326c-3,0 -7,-1 -10,-3 -52,-38 -104,-74 -155,-109 -11,-7 -14,-22 -6,-33 7,-11 22,-14 33,-7 52,35 104,72 156,109 11,8 14,23 6,34 -6,8 -15,11 -24,9zm302 229c-3,0 -7,-2 -10,-4 -50,-40 -100,-79 -150,-116 -10,-8 -12,-23 -4,-34 8,-10 23,-13 33,-4 50,38 101,76 151,116 10,9 12,24 3,34 -5,7 -14,10 -23,8zm-1628 -224c-2,-1 -3,-1 -5,-2 -12,-5 -18,-19 -13,-31 27,-63 55,-121 83,-173 7,-12 21,-16 33,-10 12,7 16,21 10,33 -28,51 -55,107 -82,169 -4,10 -15,16 -26,14zm1920 467c-4,0 -8,-2 -11,-5 -47,-41 -96,-82 -144,-123 -10,-8 -12,-24 -3,-34 8,-10 23,-11 34,-3 48,41 97,82 144,123 10,9 11,24 3,34 -6,7 -15,10 -23,8zm281 256c-5,-1 -9,-3 -13,-6 -44,-43 -90,-86 -138,-130 -10,-8 -10,-24 -1,-33 8,-10 24,-11 34,-2 47,44 93,87 139,130 9,9 9,24 0,34 -5,6 -14,8 -21,7zm-2329 -367c-1,0 -2,0 -2,-1 -13,-3 -20,-17 -16,-29 19,-64 39,-125 59,-181 4,-13 19,-19 30,-15 13,4 19,18 15,30 -20,56 -39,116 -59,179 -3,12 -15,19 -27,17zm2594 638c-5,-1 -10,-3 -14,-7 -40,-45 -83,-91 -129,-138 -9,-9 -9,-24 0,-34 10,-9 25,-9 34,1 46,47 90,93 131,139 9,10 8,25 -2,33 -6,6 -13,8 -20,6zm-2690 -272l-2 0c-13,-3 -21,-16 -18,-29 15,-62 30,-124 46,-184 3,-13 16,-21 29,-17 13,3 21,16 17,29 -16,60 -30,121 -45,183 -3,13 -15,21 -27,18zm2925 569c-6,-1 -12,-4 -16,-10 -29,-46 -67,-97 -110,-151 -9,-11 -7,-26 3,-34 11,-8 26,-6 34,4 45,55 83,107 114,155 7,11 4,26 -7,33 -6,3 -12,4 -18,3zm-3002 -197l0 0c-13,-3 -22,-15 -20,-28 12,-62 24,-125 37,-187 2,-13 14,-21 27,-19l1 1c13,2 21,15 19,28 -13,62 -25,123 -37,186 -2,12 -14,21 -27,19zm2990 560l-1 0c-13,-2 -21,-15 -19,-28 15,-71 27,-134 36,-186 3,-13 15,-22 28,-19l0 0c13,2 22,15 20,28 -10,52 -22,115 -37,186 -2,13 -14,22 -27,19zm-3052 -187c-13,-2 -22,-14 -20,-27 9,-62 19,-125 30,-187 2,-13 14,-22 27,-20 13,4 22,15 20,28 -10,62 -20,125 -29,186 -2,14 -14,23 -27,21l-1 -1zm2975 559l0 0c-13,-3 -22,-16 -19,-28l39 -186c2,-13 15,-21 27,-19l1 0c13,3 21,16 19,29l-39 186c-3,12 -15,20 -28,18zm-3026 -183c-12,-2 -21,-14 -19,-26 7,-62 15,-125 24,-189 2,-13 14,-22 27,-20l1 0c12,2 21,14 19,27 -8,64 -16,126 -24,187 -1,14 -13,23 -26,21l-2 0zm2947 554l0 0c-13,-3 -22,-15 -19,-28l40 -186c2,-13 16,-22 28,-18 13,3 21,15 19,28l-40 186c-3,13 -15,21 -28,18zm-2987 -177c-13,-2 -21,-13 -20,-26 6,-60 12,-123 19,-189 2,-13 13,-22 27,-21 13,0 22,13 21,26 -7,66 -14,129 -19,189 -2,13 -13,23 -27,21 0,0 -1,0 -1,0zm2907 548l-1 0c-12,-3 -21,-15 -18,-28l40 -186c3,-12 15,-20 28,-18l1 0c13,3 21,15 18,29l-40 185c-3,12 -15,21 -28,18zm-2940 -170c-12,-3 -20,-13 -19,-26 4,-56 9,-120 15,-189 1,-13 12,-23 26,-22 13,0 23,13 21,26 -5,69 -10,133 -14,189 -1,13 -13,23 -26,22 -1,0 -2,0 -3,0zm2860 541l-1 0c-13,-3 -22,-16 -19,-29l41 -185c3,-13 13,-21 28,-18 13,3 21,15 19,28l-41 186c-3,12 -15,20 -27,18zm-82 371l-1 -1c-13,-2 -21,-15 -18,-28l41 -185c3,-13 15,-20 28,-19 13,3 21,16 19,29l-41 185c-3,13 -15,21 -28,19zm-82 370l-1 0c-13,-3 -21,-16 -18,-29l41 -185c3,-12 13,-19 29,-18 13,3 21,16 18,29l-41 185c-3,13 -15,21 -28,18zm-82 371l-1 0c-13,-3 -21,-16 -18,-29l41 -185c3,-13 15,-21 29,-18 12,2 20,15 18,28l-42 186c-2,12 -15,20 -27,18z"/>
    <path class="fil17" d="M57840 15136l3180 -2051c0,0 491,667 428,1096l-3425 1206c0,0 -180,67 -183,-251z"/>
    <path class="fil21" d="M60376 13907c-168,96 -470,237 -442,410 26,161 -1594,802 -2055,1008 54,93 144,62 144,62l3425 -1206c62,-429 -428,-1096 -428,-1096 0,0 103,901 -181,1018 -230,-16 -294,-292 -463,-196z"/>
    <path class="fil14" d="M59651 17092l407 -131 117 -1789 -446 -386 276 -115c0,0 -97,-346 -76,-533 21,-187 136,-247 447,-164 168,73 357,626 245,965 -113,339 135,2361 203,2682 69,322 -813,637 -813,637 0,0 -426,109 -620,-328 -194,-437 260,-838 260,-838z"/>
    <path class="fil14" d="M56916 15429c0,0 685,666 647,956 -38,290 -346,591 -1137,772 -280,-9 -679,-796 -692,-969 -84,-1130 865,-915 1182,-759z"/>
    <path class="fil17" d="M56215 15922c0,0 1029,-290 1070,-832 42,-541 -846,-715 -1207,-506 -153,89 -221,223 -300,373 -89,168 -215,237 -375,347 -52,35 -104,71 -149,115 -311,307 52,1224 304,1472 348,342 850,225 804,-50 -46,-275 -423,-821 -147,-919z"/>
   </g>
   <g>
    <path class="fil22" d="M73724 51001c-179,543 -926,952 -1821,952 -894,0 -1641,-409 -1820,-952 -26,-78 -40,-159 -41,-241l0 492c0,665 833,1204 1861,1204 1029,0 1862,-539 1862,-1204l0 -502c0,86 -14,170 -41,251z"/>
    <path class="fil23" d="M72364 50639c-93,-22 -180,-7 -266,26 30,18 60,36 90,53 52,-9 107,-9 163,4 65,16 226,73 251,168 81,-146 -156,-231 -238,-251z"/>
    <path class="fil23" d="M72730 51044c12,7 23,14 35,21 9,-13 19,-26 26,-40 26,-45 37,-88 35,-129 -5,16 -12,30 -21,46 -21,37 -48,70 -75,102z"/>
    <path class="fil24" d="M72351 50722c-56,-13 -111,-13 -163,-4 124,75 248,149 372,224 7,-8 17,-17 24,-25 7,-10 15,-19 18,-27 -25,-95 -186,-152 -251,-168z"/>
    <path class="fil23" d="M71896 50769c-217,122 -450,249 -694,114 -143,-79 -251,-207 -248,-351 -57,177 64,340 235,434 243,135 477,8 693,-114 142,85 285,171 428,257 28,-12 55,-27 83,-42 -166,-100 -332,-200 -497,-298z"/>
    <path class="fil25" d="M70941 50201l0 -16 134 -89 37 -25c49,30 97,58 145,87 71,-38 147,-69 220,-97l214 115 8 4c-2,2 -5,4 -8,7l0 66 0 13c-13,7 -30,14 -40,18 -37,14 -75,29 -112,43 120,73 239,145 359,217 199,-98 395,-150 629,-56 160,64 368,218 299,408 2,41 -9,84 -35,129 -7,14 -17,27 -26,40 30,19 62,38 93,57 0,0 1,1 2,2 1,0 2,0 2,1l-2 1 -5 80 0 6 -181 116c-36,-22 -73,-44 -109,-65 -98,68 -208,120 -318,165l-223 -120 0 -83 0 -7c20,-4 39,-13 54,-17 72,-25 154,-55 232,-92 -143,-86 -286,-172 -428,-257 -216,122 -450,249 -693,114 -171,-94 -292,-257 -235,-434l0 -1c1,-55 19,-113 59,-172 5,-7 10,-15 16,-21 -22,-14 -45,-27 -68,-40 -13,-8 -14,-8 -20,-20l0 -77zm962 1554c322,0 622,-63 870,-172 414,-181 686,-486 686,-833 0,-556 -696,-1006 -1556,-1006 -349,0 -670,75 -930,200 -379,183 -625,476 -625,806 0,555 697,1005 1555,1005z"/>
    <path class="fil23" d="M71174 50570c15,-35 42,-68 80,-97 122,73 242,147 364,219 24,-10 50,-24 76,-39 1,-1 3,-2 5,-3 -144,-86 -288,-173 -432,-259 -68,50 -99,117 -93,179z"/>
    <path class="fil26" d="M72688 51245c-37,-22 -74,-44 -109,-65 -98,68 -208,120 -319,165l-151 -77 -85 -43 0 83 223 120c110,-45 220,-97 318,-165 36,21 73,43 109,65l181 -116 0 -6 5 -80 -68 47 -104 72z"/>
    <path class="fil24" d="M71174 50570c7,67 61,128 164,155 108,27 191,9 280,-33 -122,-72 -242,-146 -364,-219 -38,29 -65,62 -80,97z"/>
    <path class="fil27" d="M70973 49944c260,-125 581,-200 930,-200 860,0 1556,450 1556,1006 0,347 -272,652 -686,833 -248,109 -548,172 -870,172 -858,0 -1555,-450 -1555,-1005 0,-330 246,-623 625,-806zm930 2009c895,0 1642,-409 1821,-952 27,-81 41,-165 41,-251 0,-665 -833,-1203 -1862,-1203 -1028,0 -1861,538 -1861,1203 0,3 0,7 0,10 1,82 15,163 41,241 179,543 926,952 1820,952z"/>
    <path class="fil28" d="M72602 50890c-3,8 -11,17 -18,27 -7,8 -17,17 -24,25 -124,-75 -248,-149 -372,-224 -30,-17 -60,-35 -90,-53 86,-33 173,-48 266,-26 82,20 319,105 238,251zm-908 -237c-26,15 -52,29 -76,39 -89,42 -172,60 -280,33 -103,-27 -157,-88 -164,-155 -6,-62 25,-129 93,-179 144,86 288,173 432,259 -2,1 -4,2 -5,3zm-692 -422c27,16 53,32 80,48 -18,18 -36,38 -53,59 -6,6 -11,14 -16,21 -40,59 -58,117 -59,172l0 1c-3,144 105,272 248,351 244,135 477,8 694,-114 165,98 331,198 497,298 -28,15 -55,30 -83,42 -78,37 -160,67 -232,92 -15,4 -34,13 -54,17l0 7 85 43 151 77c111,-45 221,-97 319,-165 35,21 72,43 109,65l104 -72 68 -47 2 -1c0,-1 -1,-1 -2,-1 -1,-1 -2,-2 -2,-2 -31,-19 -63,-38 -93,-57 -12,-7 -24,-14 -35,-21 27,-32 54,-65 75,-102 9,-16 16,-30 21,-46 69,-190 -139,-344 -299,-408 -234,-94 -430,-42 -629,56 -120,-72 -239,-144 -359,-217 -26,-16 -52,-30 -77,-46 52,-23 106,-43 157,-63 16,-5 31,-11 46,-17 10,-4 18,-8 26,-14 3,-3 6,-5 8,-7l-8 -4 -214 -115c-73,28 -149,59 -220,97 -48,-29 -96,-57 -145,-87l-37 25 -134 89 0 16c10,6 25,9 34,14 9,5 18,11 27,16z"/>
    <path class="fil23" d="M70961 50298c23,13 46,26 68,40 17,-21 35,-41 53,-59 -27,-16 -53,-32 -80,-48 -9,-5 -18,-11 -27,-16 -9,-5 -24,-8 -34,-14l0 77c6,12 7,12 20,20z"/>
    <path class="fil23" d="M71619 50218c-51,20 -105,40 -157,63 25,16 51,30 77,46 37,-14 75,-29 112,-43 10,-4 27,-11 40,-18l0 -13 0 -66c-8,6 -16,10 -26,14 -15,6 -30,12 -46,17z"/>
    <path class="fil29" d="M74423 49938c-179,543 -926,952 -1821,952 -895,0 -1642,-409 -1820,-952 -26,-78 -40,-159 -41,-241l0 492c0,665 833,1204 1861,1204 1029,0 1862,-539 1862,-1204l0 -503c0,87 -14,171 -41,252z"/>
    <path class="fil26" d="M73063 49576c-93,-22 -181,-7 -266,25 30,18 60,36 89,54 53,-9 108,-9 163,4 66,16 226,73 252,167 80,-145 -156,-230 -238,-250z"/>
    <path class="fil26" d="M73429 49981c11,7 23,13 34,21 10,-13 19,-27 27,-40 26,-45 36,-88 34,-129 -4,15 -11,30 -20,46 -22,37 -48,70 -75,102z"/>
    <path class="fil25" d="M73049 49659c-55,-13 -110,-13 -163,-4 124,74 249,149 372,224 8,-9 17,-17 25,-26 7,-9 14,-18 18,-27 -26,-94 -186,-151 -252,-167z"/>
    <path class="fil26" d="M72594 49705c-216,122 -450,250 -693,115 -143,-79 -251,-207 -248,-351 -57,177 64,339 234,434 244,134 477,7 694,-115 142,86 284,172 427,258 29,-13 56,-27 83,-42 -166,-100 -332,-200 -497,-299z"/>
    <path class="fil25" d="M71639 49138l0 -16 135 -89 36 -25c50,29 97,57 146,87 71,-38 147,-69 220,-98l213 116 9 4c-2,2 -5,4 -9,6l0 67 0 13c-12,6 -29,14 -39,18 -37,14 -75,28 -113,43 121,72 240,145 360,217 199,-98 395,-151 629,-56 160,64 368,217 298,408 2,41 -8,84 -34,129 -8,13 -17,27 -27,40 31,18 62,38 94,57 0,0 1,1 2,2 1,0 2,0 2,1l-2 1 -5 80 0 6 -181 115c-37,-22 -74,-44 -109,-65 -98,68 -208,121 -318,165l-223 -119 0 -84 0 -6c20,-4 39,-14 53,-18 73,-25 155,-54 232,-91 -143,-86 -285,-172 -427,-258 -217,122 -450,249 -694,115 -170,-95 -291,-257 -234,-434l0 -1c1,-56 19,-114 59,-172 5,-8 10,-15 16,-22 -22,-13 -46,-26 -68,-39 -13,-9 -15,-9 -21,-20l0 -77zm963 1554c322,0 622,-63 870,-172 414,-181 686,-487 686,-834 0,-555 -697,-1005 -1556,-1005 -349,0 -670,75 -930,199 -380,183 -625,477 -625,806 0,555 696,1006 1555,1006z"/>
    <path class="fil26" d="M71872 49507c15,-35 43,-69 80,-97 122,73 243,146 365,219 24,-11 49,-24 76,-39 1,-1 3,-2 5,-3 -144,-87 -288,-174 -432,-260 -68,51 -100,118 -94,180z"/>
    <path class="fil26" d="M73387 50181c-37,-22 -74,-44 -110,-65 -97,68 -208,121 -318,165l-151 -77 -85 -43 0 84 223 119c110,-44 220,-97 318,-165 35,21 72,43 109,65l181 -115 0 -6 5 -80 -68 47 -104 71z"/>
    <path class="fil25" d="M71872 49507c8,67 62,128 164,154 108,28 192,10 281,-32 -122,-73 -243,-146 -365,-219 -37,28 -65,62 -80,97z"/>
    <path class="fil26" d="M71672 48880c260,-124 581,-199 930,-199 859,0 1556,450 1556,1005 0,347 -272,653 -686,834 -248,109 -548,172 -870,172 -859,0 -1555,-451 -1555,-1006 0,-329 245,-623 625,-806zm930 2010c895,0 1642,-409 1821,-952 27,-81 41,-165 41,-252 0,-665 -833,-1203 -1862,-1203 -1028,0 -1861,538 -1861,1203 0,4 0,8 0,11 1,82 15,163 41,241 178,543 925,952 1820,952z"/>
    <path class="fil29" d="M73301 49826c-4,9 -11,18 -18,27 -8,9 -17,17 -25,26 -123,-75 -248,-150 -372,-224 -29,-18 -59,-36 -89,-54 85,-32 172,-47 266,-25 82,20 318,105 238,250zm-908 -236c-27,15 -52,28 -76,39 -89,42 -173,60 -281,32 -102,-26 -156,-87 -164,-154 -6,-62 26,-129 94,-180 144,86 288,173 432,260 -2,1 -4,2 -5,3zm-693 -423c28,16 54,33 81,49 -19,18 -37,37 -53,58 -6,7 -11,14 -16,22 -40,58 -58,116 -59,172l0 1c-3,144 105,272 248,351 243,135 477,7 693,-115 165,99 331,199 497,299 -27,15 -54,29 -83,42 -77,37 -159,66 -232,91 -14,4 -33,14 -53,18l0 6 85 43 151 77c110,-44 221,-97 318,-165 36,21 73,43 110,65l104 -71 68 -47 2 -1c0,-1 -1,-1 -2,-1 -1,-1 -2,-2 -2,-2 -32,-19 -63,-39 -94,-57 -11,-8 -23,-14 -34,-21 27,-32 53,-65 75,-102 9,-16 16,-31 20,-46 70,-191 -138,-344 -298,-408 -234,-95 -430,-42 -629,56 -120,-72 -239,-145 -360,-217 -25,-16 -51,-30 -77,-46 53,-23 106,-43 158,-63 16,-5 31,-12 45,-17 11,-4 19,-9 26,-15 4,-2 7,-4 9,-6l-9 -4 -213 -116c-73,29 -149,60 -220,98 -49,-30 -96,-58 -146,-87l-36 25 -135 89 0 16c11,5 25,8 35,13 8,6 18,11 26,16z"/>
    <path class="fil26" d="M71660 49235c22,13 46,26 68,39 16,-21 34,-40 53,-58 -27,-16 -53,-33 -81,-49 -8,-5 -18,-10 -26,-16 -10,-5 -24,-8 -35,-13l0 77c6,11 8,11 21,20z"/>
    <path class="fil26" d="M72318 49155c-52,20 -105,40 -158,63 26,16 52,30 77,46 38,-15 76,-29 113,-43 10,-4 27,-12 39,-18l0 -13 0 -67c-7,6 -15,11 -26,15 -14,5 -29,12 -45,17z"/>
   </g>
   <path class="fil30" d="M80604 51939l29 -136 606 -2831c-1220,-950 -1959,-266 -3461,-266 -1502,0 -3888,-978 -3814,266l606 2831 29 136c485,1292 5520,1292 6005,0z"/>
   <path class="fil31" d="M77601 48167c1730,0 3625,-559 3866,-1337 -912,-1707 -6653,-1626 -7731,0 215,760 2135,1337 3865,1337z"/>
   <path class="fil32" d="M82063 46180c0,-1097 -1998,-1986 -4462,-1986 -2463,0 -4461,889 -4461,1986 0,293 142,571 398,821 701,-688 2257,-1166 4063,-1166 1807,0 3363,478 4064,1166 255,-250 398,-528 398,-821z"/>
   <path class="fil33" d="M73140 47822c0,1097 1998,1987 4461,1987 2464,0 4462,-890 4462,-1987l0 -1642c0,-292 -231,520 -486,770 -701,687 -2180,1099 -3987,1099 -1806,0 -3296,-386 -3997,-1074 -255,-250 -298,-520 -453,-795l0 1642z"/>
   <path class="fil34" d="M81816 46130c0,969 -1887,1754 -4215,1754 -2327,0 -4214,-785 -4214,-1754 0,-968 1887,-1753 4214,-1753 2328,0 4215,785 4215,1753zm-4215 -1936c-2463,0 -4461,889 -4461,1986 0,1098 1998,1987 4461,1987 2464,0 4462,-889 4462,-1987 0,-1097 -1998,-1986 -4462,-1986z"/>
   <polygon class="fil35" points="77767,47013 77435,47013 77435,40372 77767,40372 "/>
   <g>
    <path class="fil36" d="M77884 46143c287,-577 828,-1200 1318,-1591 740,-591 1788,-1046 3144,-718 0,0 -403,757 -1147,1426 -948,858 -2077,1237 -3315,883z"/>
    <path class="fil36" d="M77296 46246c-1902,0 -3717,-1147 -4146,-3042 0,0 1993,55 3238,1293l0 0c482,478 790,1081 908,1749z"/>
   </g>
   <g>
    <polygon class="fil37" points="81816,38913 80324,38913 80324,38385 81816,38385 "/>
    <polygon class="fil37" points="80395,35481 80768,35855 79712,36910 79339,36537 "/>
    <polygon class="fil37" points="80768,41444 80395,41817 79339,40761 79712,40387 "/>
    <polygon class="fil37" points="77865,35926 77337,35926 77337,34433 77865,34433 "/>
    <polygon class="fil37" points="74806,35481 75861,36537 75488,36910 74433,35855 "/>
    <polygon class="fil37" points="75862,40761 74806,41817 74433,41444 75488,40387 "/>
    <polygon class="fil37" points="74878,38913 73385,38913 73385,38385 74878,38385 "/>
    <g>
     <path class="fil38" d="M78167 38301c-186,-281 -892,-191 -971,164 -63,287 407,343 581,403 208,73 443,222 288,486 -201,344 -665,337 -824,-23 -18,-40 -158,6 -143,39 178,404 711,400 1000,112 169,-169 227,-435 8,-586 -117,-81 -275,-108 -408,-150 -95,-30 -221,-53 -294,-125 -270,-264 424,-577 619,-282 27,40 160,-13 144,-38z"/>
     <path class="fil38" d="M77599 37892c24,690 23,1380 0,2070 -3,65 142,38 144,-16 24,-697 23,-1395 -1,-2092 -2,-53 -146,-23 -143,38z"/>
    </g>
   </g>
   <g>
    <path class="fil29" d="M82355 53261c-163,495 -844,868 -1660,868 -815,0 -1496,-373 -1659,-868 -24,-71 -37,-145 -38,-220l0 449c0,606 760,1098 1697,1098 938,0 1697,-492 1697,-1098l0 -458c0,79 -12,155 -37,229z"/>
    <path class="fil26" d="M81115 52931c-85,-20 -164,-6 -242,24 27,15 55,32 81,48 48,-8 98,-8 149,4 59,15 206,66 229,152 74,-132 -142,-209 -217,-228z"/>
    <path class="fil26" d="M81449 53300c10,7 21,13 31,19 9,-11 18,-24 24,-36 24,-41 34,-80 32,-118 -4,14 -10,28 -19,42 -19,34 -43,64 -68,93z"/>
    <path class="fil25" d="M81103 53007c-51,-12 -101,-12 -149,-4 113,68 226,136 340,204 6,-7 15,-15 22,-23 6,-8 13,-17 16,-25 -23,-86 -170,-137 -229,-152z"/>
    <path class="fil26" d="M80688 53049c-197,111 -410,227 -632,105 -130,-72 -229,-189 -226,-320 -52,161 58,309 213,395 223,123 435,7 633,-104 129,78 259,156 390,235 26,-12 50,-25 75,-39 -151,-91 -302,-182 -453,-272z"/>
    <path class="fil25" d="M79817 52532l0 -14 123 -82 34 -23c45,27 88,53 132,80 65,-35 134,-64 201,-89l194 105 8 4c-2,2 -5,4 -8,6l0 60 0 12c-11,6 -26,13 -36,17 -34,12 -68,26 -102,39 110,66 218,132 327,197 182,-89 360,-137 574,-51 145,59 335,199 272,372 2,38 -8,77 -32,118 -6,12 -15,25 -24,36 28,18 57,35 86,52 0,0 1,1 2,2 0,0 1,0 1,1l-1 1 -5 73 0 6 -165 105c-33,-20 -67,-40 -100,-60 -89,63 -189,111 -290,151l-203 -109 0 -76 0 -6c18,-4 35,-12 49,-16 66,-23 141,-50 212,-83 -131,-79 -261,-157 -390,-235 -198,111 -410,227 -633,104 -155,-86 -265,-234 -213,-395l0 -1c1,-51 17,-104 53,-157 5,-7 10,-14 15,-20 -20,-12 -41,-23 -62,-36 -12,-7 -13,-7 -19,-18l0 -70zm878 1417c294,0 567,-58 793,-157 377,-165 626,-444 626,-760 0,-507 -635,-917 -1419,-917 -318,0 -611,68 -848,182 -346,167 -570,434 -570,735 0,506 635,917 1418,917z"/>
    <path class="fil26" d="M80030 52868c13,-31 38,-62 73,-88 111,66 221,133 332,199 22,-9 45,-22 69,-35 1,-1 3,-2 5,-3 -131,-78 -262,-158 -394,-237 -62,46 -91,108 -85,164z"/>
    <path class="fil26" d="M81411 53483c-34,-20 -68,-40 -100,-59 -89,62 -190,110 -290,150l-138 -70 -78 -39 0 76 203 109c101,-40 201,-88 290,-151 33,20 67,40 100,60l165 -105 0 -6 5 -73 -63 43 -94 65z"/>
    <path class="fil25" d="M80030 52868c7,61 56,117 149,141 99,25 175,9 256,-30 -111,-66 -221,-133 -332,-199 -35,26 -60,57 -73,88z"/>
    <path class="fil26" d="M79847 52297c237,-114 530,-182 848,-182 784,0 1419,410 1419,917 0,316 -249,595 -626,760 -226,99 -499,157 -793,157 -783,0 -1418,-411 -1418,-917 0,-301 224,-568 570,-735zm848 1832c816,0 1497,-373 1660,-868 25,-74 37,-150 37,-229 0,-606 -759,-1097 -1697,-1097 -937,0 -1697,491 -1697,1097 0,3 0,7 0,9 1,75 14,149 38,220 163,495 844,868 1659,868z"/>
    <path class="fil29" d="M81332 53159c-3,8 -10,17 -16,25 -7,8 -16,16 -22,23 -114,-68 -227,-136 -340,-204 -26,-16 -54,-33 -81,-48 78,-30 157,-44 242,-24 75,19 291,96 217,228zm-828 -215c-24,13 -47,26 -69,35 -81,39 -157,55 -256,30 -93,-24 -142,-80 -149,-141 -6,-56 23,-118 85,-164 132,79 263,159 394,237 -2,1 -4,2 -5,3zm-631 -385c25,14 49,29 74,44 -18,16 -34,34 -49,53 -5,6 -10,13 -15,20 -36,53 -52,106 -53,157l0 1c-3,131 96,248 226,320 222,122 435,6 632,-105 151,90 302,181 453,272 -25,14 -49,27 -75,39 -71,33 -146,60 -212,83 -14,4 -31,12 -49,16l0 6 78 39 138 70c100,-40 201,-88 290,-150 32,19 66,39 100,59l94 -65 63 -43 1 -1c0,-1 -1,-1 -1,-1 -1,-1 -2,-2 -2,-2 -29,-17 -58,-34 -86,-52 -10,-6 -21,-12 -31,-19 25,-29 49,-59 68,-93 9,-14 15,-28 19,-42 63,-173 -127,-313 -272,-372 -214,-86 -392,-38 -574,51 -109,-65 -217,-131 -327,-197 -24,-14 -47,-28 -71,-42 49,-21 97,-40 144,-58 15,-4 28,-10 41,-15 10,-4 18,-8 24,-13 3,-2 6,-4 8,-6l-8 -4 -194 -105c-67,25 -136,54 -201,89 -44,-27 -87,-53 -132,-80l-34 23 -123 82 0 14c10,5 23,8 32,12 8,5 16,10 24,15z"/>
    <path class="fil26" d="M79836 52620c21,13 42,24 62,36 15,-19 31,-37 49,-53 -25,-15 -49,-30 -74,-44 -8,-5 -16,-10 -24,-15 -9,-4 -22,-7 -32,-12l0 70c6,11 7,11 19,18z"/>
    <path class="fil26" d="M80436 52547c-47,18 -95,37 -144,58 24,14 47,28 71,42 34,-13 68,-27 102,-39 10,-4 25,-11 36,-17l0 -12 0 -60c-6,5 -14,9 -24,13 -13,5 -26,11 -41,15z"/>
   </g>
   <g>
    <path class="fil29" d="M78519 40654c-610,127 -1403,-356 -1891,-1201 -488,-845 -509,-1773 -94,-2238 59,-67 342,-215 419,-261l-101 35c-473,184 -906,457 -1038,984 -123,491 -14,1145 338,1754 447,774 1150,1244 1734,1220 348,-14 697,-233 967,-440l62 -49c-82,47 -304,177 -396,196z"/>
    <path class="fil26" d="M78119 39172c-30,-100 -91,-174 -168,-237 -1,37 -1,76 -2,114 37,44 67,96 85,156 20,70 54,253 -21,328 181,-3 132,-272 106,-361z"/>
    <path class="fil26" d="M77937 39738c-1,15 0,29 -1,44 17,2 35,4 52,3 57,1 103,-13 141,-37 -17,4 -35,5 -55,5 -47,0 -93,-6 -137,-15z"/>
    <path class="fil25" d="M78034 39205c-18,-60 -48,-112 -85,-156 -3,157 -6,315 -9,473 12,2 25,7 37,9 13,2 26,3 36,2 75,-75 41,-258 21,-328z"/>
    <path class="fil26" d="M77742 38800c-233,-138 -481,-289 -486,-592 -4,-178 58,-350 196,-426 -198,43 -286,246 -282,458 6,304 253,455 486,593 -3,180 -6,362 -10,544 27,20 56,37 85,55 4,-211 8,-422 11,-632z"/>
    <path class="fil25" d="M77757 37589l15 -9 157 78 44 21c-1,63 -1,123 -3,185 75,47 146,101 213,155l7 264 0 11c-3,-1 -6,-3 -10,-5l-63 36 -13 8c-12,-9 -28,-21 -38,-28 -33,-27 -68,-55 -102,-83 -3,154 -7,306 -8,457 200,136 356,292 395,565 27,185 -5,465 -222,504 -38,24 -84,38 -141,37 -17,1 -35,-1 -52,-3 -1,40 -2,79 -3,120 0,0 0,1 -1,3 1,1 1,2 1,2l-3 -1 -78 38 -6 4 -207 -108c0,-46 1,-93 2,-138 -119,-56 -228,-131 -330,-211l-8 -276 78 -45 6 -4c15,17 34,30 46,41 63,55 136,116 213,170 4,-182 7,-364 10,-544 -233,-138 -480,-289 -486,-593 -4,-212 84,-415 282,-458l1 -1c53,-29 117,-43 195,-38 10,1 19,2 28,3 1,-28 0,-56 1,-85 0,-17 0,-18 7,-30l73 -42zm-943 1756c176,305 399,553 637,728 397,292 834,383 1161,193 525,-303 570,-1206 101,-2017 -190,-330 -436,-593 -695,-770 -380,-258 -791,-331 -1102,-151 -524,303 -570,1206 -102,2017z"/>
    <path class="fil26" d="M77536 38010c41,-5 87,2 135,23 -2,155 -6,309 -8,463 23,18 50,34 78,51 2,0 4,2 6,3 3,-183 7,-366 10,-550 -85,-36 -166,-30 -221,10z"/>
    <path class="fil26" d="M77724 39808c1,-47 2,-94 2,-139 -118,-55 -227,-130 -329,-211l-10 -184 -6 -104 -78 45 8 276c102,80 211,155 330,211 -1,45 -2,92 -2,138l207 108 6 -4 78 -38 -81 -39 -125 -59z"/>
    <path class="fil25" d="M77536 38010c-60,44 -88,128 -57,239 33,117 96,186 184,247 2,-154 6,-308 8,-463 -48,-21 -94,-28 -135,-23z"/>
    <path class="fil26" d="M78018 37479c259,177 505,440 695,770 469,811 424,1714 -101,2017 -327,190 -764,99 -1161,-193 -238,-175 -461,-423 -637,-728 -468,-811 -422,-1714 102,-2017 311,-180 722,-107 1102,151zm-1390 1974c488,845 1281,1328 1891,1201 92,-19 179,-52 260,-99 628,-362 682,-1443 121,-2414 -560,-971 -1523,-1464 -2151,-1102 -3,2 -7,4 -10,6 -77,46 -146,103 -205,170 -415,465 -394,1393 94,2238z"/>
    <path class="fil29" d="M78013 39533c-10,1 -23,0 -36,-2 -12,-2 -25,-7 -37,-9 3,-158 6,-316 9,-473 1,-38 1,-77 2,-114 77,63 138,137 168,237 26,89 75,358 -106,361zm-272 -986c-28,-17 -55,-33 -78,-51 -88,-61 -151,-130 -184,-247 -31,-111 -3,-195 57,-239 55,-40 136,-46 221,-10 -3,184 -7,367 -10,550 -2,-1 -4,-3 -6,-3zm21 -885c0,35 -1,69 -1,103 -27,-8 -56,-14 -85,-19 -9,-1 -18,-2 -28,-3 -78,-5 -142,9 -195,38l-1 1c-138,76 -200,248 -196,426 5,303 253,454 486,592 -3,210 -7,421 -11,632 -29,-18 -58,-35 -85,-55 -77,-54 -150,-115 -213,-170 -12,-11 -31,-24 -46,-41l-6 4 6 104 10 184c102,81 211,156 329,211 0,45 -1,92 -2,139l125 59 81 39 3 1c0,0 0,-1 -1,-2 1,-2 1,-3 1,-3 1,-41 2,-80 3,-120 1,-15 0,-29 1,-44 44,9 90,15 137,15 20,0 38,-1 55,-5 217,-39 249,-319 222,-504 -39,-273 -195,-429 -395,-565 1,-151 5,-303 8,-457 1,-32 0,-65 2,-98 50,38 98,77 145,115 14,12 28,22 41,33 9,8 18,14 28,17 4,2 7,4 10,5l0 -11 -7 -264c-67,-54 -138,-108 -213,-155 2,-62 2,-122 3,-185l-44 -21 -157 -78 -15 9c1,13 6,28 6,40 0,11 0,22 -1,33z"/>
    <path class="fil26" d="M77677 37661c-1,29 0,57 -1,85 29,5 58,11 85,19 0,-34 1,-68 1,-103 1,-11 1,-22 1,-33 0,-12 -5,-27 -6,-40l-73 42c-7,12 -7,13 -7,30z"/>
    <path class="fil26" d="M78111 38239c-47,-38 -95,-77 -145,-115 -2,33 -1,66 -2,98 34,28 69,56 102,83 10,7 26,19 38,28l13 -8 63 -36c-10,-3 -19,-9 -28,-17 -13,-11 -27,-21 -41,-33z"/>
   </g>
   <g>
    <path class="fil29" d="M8157 52338c-179,543 -926,952 -1821,952 -895,0 -1642,-409 -1820,-952 -26,-78 -40,-159 -41,-241l0 492c0,665 833,1204 1861,1204 1029,0 1862,-539 1862,-1204l0 -502c0,86 -14,170 -41,251z"/>
    <path class="fil26" d="M6797 51976c-94,-22 -181,-7 -266,26 30,17 60,35 89,53 53,-9 107,-9 163,4 66,16 226,73 251,167 81,-145 -155,-229 -237,-250z"/>
    <path class="fil26" d="M7163 52381c11,7 23,14 34,21 10,-13 19,-26 27,-40 26,-45 36,-88 34,-129 -4,16 -11,30 -20,46 -22,37 -48,70 -75,102z"/>
    <path class="fil25" d="M6783 52059c-56,-13 -110,-13 -163,-4 124,75 248,149 372,224 8,-8 17,-17 25,-25 7,-10 14,-19 17,-28 -25,-94 -185,-151 -251,-167z"/>
    <path class="fil26" d="M6328 52106c-216,121 -450,249 -693,114 -143,-79 -251,-207 -248,-351 -57,177 64,340 234,434 244,135 477,8 694,-114 141,85 284,171 427,257 29,-13 56,-27 83,-42 -166,-100 -332,-200 -497,-298z"/>
    <path class="fil25" d="M5373 51538l0 -16 135 -89 36 -25c50,30 97,58 146,87 71,-38 147,-69 220,-98l213 116 9 4c-2,2 -5,4 -9,7l0 66 0 13c-12,7 -29,14 -39,18 -37,14 -75,29 -113,43 121,73 239,145 360,217 199,-98 394,-151 629,-56 160,64 368,218 298,408 2,41 -8,84 -34,129 -8,14 -17,27 -27,40 31,19 62,38 94,57 0,0 1,1 2,2 1,0 2,0 2,1l-2 1 -5 80 0 6 -181 116c-37,-22 -74,-44 -109,-66 -98,69 -208,121 -319,165l-223 -119 0 -83 0 -7c21,-4 39,-13 54,-17 73,-26 155,-55 232,-92 -143,-86 -286,-172 -427,-257 -217,122 -450,249 -694,114 -170,-94 -291,-257 -234,-434l0 -1c1,-56 19,-113 59,-172 5,-8 10,-15 15,-21 -21,-14 -45,-27 -67,-40 -14,-9 -15,-9 -21,-20l0 -77zm963 1554c322,0 622,-63 870,-172 414,-181 686,-487 686,-833 0,-556 -697,-1006 -1556,-1006 -349,0 -671,75 -930,200 -380,183 -625,476 -625,806 0,554 696,1005 1555,1005z"/>
    <path class="fil26" d="M5606 51907c15,-35 42,-68 80,-97 122,73 243,147 365,219 24,-10 49,-24 76,-39 1,-1 3,-2 5,-3 -144,-86 -288,-174 -432,-260 -69,51 -100,118 -94,180z"/>
    <path class="fil26" d="M7121 52582c-37,-23 -74,-44 -110,-66 -97,69 -208,121 -318,165l-151 -76 -86 -43 0 83 223 119c111,-44 221,-96 319,-165 35,22 72,44 109,66l181 -116 0 -6 5 -80 -69 47 -103 72z"/>
    <path class="fil25" d="M5606 51907c8,67 61,128 164,155 108,27 192,9 281,-33 -122,-72 -243,-146 -365,-219 -38,29 -65,62 -80,97z"/>
    <path class="fil26" d="M5406 51281c259,-125 581,-200 930,-200 859,0 1556,450 1556,1006 0,346 -272,652 -686,833 -248,109 -548,172 -870,172 -859,0 -1555,-451 -1555,-1005 0,-330 245,-623 625,-806zm930 2009c895,0 1642,-409 1821,-952 27,-81 41,-165 41,-251 0,-665 -833,-1203 -1862,-1203 -1028,0 -1861,538 -1861,1203 0,3 0,7 0,10 1,82 15,163 41,241 178,543 925,952 1820,952z"/>
    <path class="fil29" d="M7034 52226c-3,9 -10,18 -17,28 -8,8 -17,17 -25,25 -124,-75 -248,-149 -372,-224 -29,-18 -59,-36 -89,-53 85,-33 172,-48 266,-26 82,21 318,105 237,250zm-907 -236c-27,15 -52,29 -76,39 -89,42 -173,60 -281,33 -103,-27 -156,-88 -164,-155 -6,-62 25,-129 94,-180 144,86 288,174 432,260 -2,1 -4,2 -5,3zm-693 -422c27,16 54,32 81,48 -19,18 -37,38 -54,59 -5,6 -10,13 -15,21 -40,59 -58,116 -59,172l0 1c-3,144 105,272 248,351 243,135 477,7 693,-114 165,98 331,198 497,298 -27,15 -54,29 -83,42 -77,37 -159,66 -232,92 -15,4 -34,13 -54,17l0 7 86 43 151 76c110,-44 221,-96 318,-165 36,22 73,43 110,66l103 -72 69 -47 2 -1c0,-1 -1,-1 -2,-1 -1,-1 -2,-2 -2,-2 -32,-19 -63,-38 -94,-57 -11,-7 -23,-14 -35,-21 28,-32 54,-65 76,-102 9,-16 16,-30 20,-46 70,-190 -138,-344 -298,-408 -235,-95 -430,-42 -629,56 -121,-72 -239,-144 -360,-217 -25,-16 -51,-30 -77,-46 53,-23 106,-43 158,-63 16,-5 30,-12 45,-17 11,-4 19,-8 26,-14 4,-3 7,-5 9,-7l-9 -4 -213 -116c-73,29 -149,60 -220,98 -49,-29 -96,-57 -146,-87l-36 25 -135 89 0 16c11,5 25,9 35,14 8,5 18,10 26,16z"/>
    <path class="fil26" d="M5394 51635c22,13 46,26 67,40 17,-21 35,-41 54,-59 -27,-16 -54,-32 -81,-48 -8,-6 -18,-11 -26,-16 -10,-5 -24,-9 -35,-14l0 77c6,11 7,11 21,20z"/>
    <path class="fil26" d="M6052 51555c-52,20 -105,40 -158,63 26,16 52,30 77,46 38,-14 76,-29 113,-43 10,-4 27,-11 39,-18l0 -13 0 -66c-7,6 -15,10 -26,14 -15,5 -29,12 -45,17z"/>
   </g>
   <path class="fil10" d="M34343 38890c-607,607 -941,1415 -941,2274 0,858 334,1666 941,2272 607,608 1414,941 2273,942 858,-1 1666,-335 2273,-942 607,-607 941,-1414 941,-2273 0,-859 -334,-1665 -941,-2272 -607,-607 -1414,-942 -2273,-942 -859,0 -1666,334 -2273,941zm2822 -691c596,110 1144,396 1581,834 569,569 883,1325 884,2130 0,805 -314,1561 -884,2131 -569,569 -1325,883 -2130,883 -118,0 -236,-7 -351,-21 300,-1985 601,-3971 900,-5957zm-444 1597c-165,-106 -349,-154 -545,-139 -143,11 -287,59 -423,133l-354 -354 -143 142 325 326c-82,61 -165,140 -229,221l-321 -321 -143 142 346 346c-220,371 -197,813 124,1116 122,115 278,194 452,207 206,15 406,-66 583,-164l68 68 -395 2608c-596,-109 -1143,-396 -1581,-833 -570,-570 -883,-1325 -882,-2131 0,-804 312,-1562 881,-2131 570,-570 1327,-882 2132,-883 118,0 236,7 351,21l-246 1626zm-18 2808c259,103 532,61 774,-69l356 356 143 -143 -326 -325c83,-62 165,-140 229,-221l322 321 142 -142 -347 -347c180,-310 198,-643 -10,-948 -257,-375 -632,-408 -1020,-216l-56 363 827 827c-66,83 -145,158 -230,220l-656 -656 -37 248 513 513c-203,85 -388,112 -592,13l-32 206zm-146 -1725l-40 261 -91 59 -931 -932c64,-82 146,-159 229,-221l833 833zm-1176 -440l864 864c-126,65 -275,123 -419,112 -126,-9 -240,-67 -331,-153 -235,-222 -262,-542 -114,-823zm2440 761c151,222 146,451 30,684l-2 3 -823 -823c310,-150 581,-176 795,136zm-1227 -568l-693 -693c93,-45 188,-74 290,-82 187,-13 353,44 496,163l-93 612z"/>
  </g>
 </g>
</svg>
