<?xml version="1.0" encoding="UTF-8"?>
<!DOCTYPE svg PUBLIC "-//W3C//DTD SVG 1.1//EN" "http://www.w3.org/Graphics/SVG/1.1/DTD/svg11.dtd">
<!-- Creator: CorelDRAW X7 -->
<svg xmlns="http://www.w3.org/2000/svg" xml:space="preserve" width="9.68031in" height="5.73453in" version="1.1" style="shape-rendering:geometricPrecision; text-rendering:geometricPrecision; image-rendering:optimizeQuality; fill-rule:evenodd; clip-rule:evenodd"
viewBox="0 0 96803 57345"
 xmlns:xlink="http://www.w3.org/1999/xlink">
 <defs>
  <style type="text/css">
   <![CDATA[
    .fil28 {fill:#FFC632}
    .fil23 {fill:#FAAB30}
    .fil24 {fill:#F79333}
    .fil21 {fill:#2F2718}
    .fil13 {fill:#6168A8}
    .fil31 {fill:#657AA9}
    .fil32 {fill:#7C94CA}
    .fil33 {fill:#95A9D4}
    .fil18 {fill:#A38755}
    .fil34 {fill:#B8C5E2}
    .fil29 {fill:#BB9B61}
    .fil22 {fill:#D2AE6D}
    .fil35 {fill:#D6BB8A}
    .fil25 {fill:#DCBB79}
    .fil6 {fill:#E7D3AD}
    .fil7 {fill:#ECD6B2}
    .fil26 {fill:#EDD7B2}
    .fil0 {fill:#EDDFC4}
    .fil27 {fill:#F2E2C7}
    .fil19 {fill:#F5EEE0}
    .fil20 {fill:#4A458F;fill-rule:nonzero}
    .fil10 {fill:#576074;fill-rule:nonzero}
    .fil17 {fill:#5D4D30;fill-rule:nonzero}
    .fil9 {fill:#657AA9;fill-rule:nonzero}
    .fil12 {fill:#6C87C3;fill-rule:nonzero}
    .fil8 {fill:#899FCF;fill-rule:nonzero}
    .fil11 {fill:#AABADC;fill-rule:nonzero}
    .fil30 {fill:#B0BEDF;fill-rule:nonzero}
    .fil4 {fill:#BB9B61;fill-rule:nonzero}
    .fil38 {fill:#C19C00;fill-rule:nonzero}
    .fil5 {fill:#D2AE6D;fill-rule:nonzero}
    .fil36 {fill:#D6BB8A;fill-rule:nonzero}
    .fil16 {fill:#D7B77D;fill-rule:nonzero}
    .fil2 {fill:#DFC596;fill-rule:nonzero}
    .fil1 {fill:#EDDFC4;fill-rule:nonzero}
    .fil37 {fill:#EFE3CC;fill-rule:nonzero}
    .fil15 {fill:#F5EEE0;fill-rule:nonzero}
    .fil3 {fill:#F6EFE2;fill-rule:nonzero}
    .fil14 {fill:white;fill-rule:nonzero}
   ]]>
  </style>
 </defs>
 <g id="Layer_x0020_1">
  <metadata id="CorelCorpID_0Corel-Layer"/>
  <g id="_3027466684544">
   <path class="fil0" d="M29068 20930c1964,1844 5393,838 7405,-407 2160,-1337 3833,-3592 4015,-6178 336,-4763 -5443,-4784 -8480,-3176 -2729,1445 -4513,4341 -4039,7468 17,115 38,229 62,341 157,732 492,1440 1037,1952z"/>
   <g>
    <path class="fil1" d="M71724 51265c0,4293 -19021,5636 -22520,5847 -8731,527 -17562,153 -26144,-1038 -6522,-905 -12236,-2395 -12236,-4809 0,-3327 13633,-6024 30450,-6024 16817,0 30450,2697 30450,6024z"/>
    <path class="fil2" d="M66303 51713c0,5635 -42124,5092 -42124,0 0,-2268 7806,-4107 20016,-4107 12210,0 22108,1839 22108,4107z"/>
    <path class="fil3" d="M12903 47532c-2075,-1012 -3516,-2515 -2834,-4672 281,-889 957,-1870 2247,-2789 837,-845 1258,-1690 1099,-3169 -259,-2412 -1095,-3491 -1248,-5406 -534,-6679 7379,-9768 12838,-8783 3509,633 5925,2291 8560,2106 6188,-435 8214,-8833 11427,-13071 1382,-1823 2930,-3281 4694,-4368 3935,-2424 10230,-3162 15260,-1594 5429,1693 7898,5397 7870,9720 -37,5714 -4328,8955 -4150,14134 155,4517 3959,4699 3677,10432 -231,4706 -3548,7391 -7915,8228 -8159,1563 -43673,3063 -51525,-768z"/>
    <path class="fil1" d="M17286 26984c5121,-3491 9950,-82 7175,3359 -1721,2134 -5949,3465 -8422,2202 -891,-456 -1415,-1290 -1092,-2682 239,-1031 1150,-2068 2339,-2879z"/>
    <path class="fil4" d="M28231 51658c0,-435 497,-788 1109,-788 612,0 1108,353 1108,788l-2217 0z"/>
    <path class="fil4" d="M52958 52795c0,-435 496,-788 1109,-788 612,0 1108,353 1108,788l-2217 0z"/>
    <path class="fil5" d="M15173 51663c0,-386 440,-698 981,-698 542,0 982,312 982,698l-1963 0z"/>
    <path class="fil4" d="M21488 52012c0,-249 283,-450 632,-450 349,0 632,201 632,450l-1264 0z"/>
    <path class="fil4" d="M56799 50582c0,-638 729,-1156 1627,-1156 898,0 1627,518 1627,1156l-3254 0z"/>
    <path class="fil5" d="M36542 53334c0,-639 728,-1157 1626,-1157 899,0 1627,518 1627,1157l-3253 0z"/>
    <path class="fil5" d="M44918 53163c0,-319 364,-578 813,-578 449,0 813,259 813,578l-1626 0z"/>
    <path class="fil5" d="M62638 51920c0,-409 466,-740 1041,-740 574,0 1040,331 1040,740l-2081 0z"/>
    <path class="fil5" d="M22555 52010c0,-495 564,-896 1260,-896 696,0 1260,401 1260,896l-2520 0z"/>
    <path class="fil4" d="M39326 53334c0,-320 364,-579 813,-579 449,0 814,259 814,579l-1627 0z"/>
    <path class="fil3" d="M68109 15856c155,1121 737,1612 1290,1501 940,-189 1134,-1439 1079,-2607 -78,-1667 -640,-3378 -1857,-4567 -1069,-1043 -2807,-742 -2644,611 112,928 1046,1689 1518,2502 423,729 437,1272 614,2560z"/>
    <path class="fil6" d="M71518 27261c768,25 1384,655 1388,1435l12 0c7,-780 622,-1410 1388,-1435 -770,-26 -1388,-662 -1388,-1446l-10 0c0,784 -618,1420 -1390,1446z"/>
    <path class="fil7" d="M7629 48429c596,19 1074,509 1077,1115l10 0c5,-606 483,-1096 1078,-1115 -598,-20 -1078,-514 -1078,-1123l-8 0c0,609 -480,1103 -1079,1123z"/>
    <g>
     <path class="fil1" d="M0 6038c362,-161 730,-310 1103,-445 4376,-1587 9415,-1407 13329,-3929 750,-485 1432,-1052 2078,-1664l17968 0c-4544,526 -8643,818 -10648,3591 -1047,1447 -1152,2841 -1254,4235 -354,4879 -2197,5926 -6938,6641 -1268,191 -2414,328 -3574,749 -5154,1870 -6547,5026 -6603,8645 -158,10127 5362,15856 -5461,24982l0 -42805z"/>
     <path class="fil3" d="M21734 0c-2614,1703 -3643,3867 -5274,6436 -3700,5829 -9733,8088 -16460,6428l0 -12864 21734 0z"/>
    </g>
    <g>
     <polygon class="fil8" points="65934,28446 50523,28446 53574,31497 42516,42555 50794,50833 61852,39775 65934,43857 "/>
     <polygon class="fil9" points="49911,49942 49467,49499 61852,37114 64052,39315 64052,30327 55065,30327 56235,31497 43850,43881 43407,43438 55348,31497 53551,29700 64680,29700 64680,40829 61852,38001 "/>
     <polygon class="fil10" points="44962,31495 53240,39773 50794,50833 42516,42555 "/>
     <polygon class="fil9" points="42181,50833 33903,42555 44963,31495 53241,39773 "/>
     <polygon class="fil8" points="35238,43890 34795,43447 45855,32386 46298,32830 "/>
     <polygon class="fil8" points="41299,49951 40855,49508 51916,38447 52359,38891 "/>
     <polygon class="fil10" points="38007,31495 46285,39773 42181,50833 33902,42555 "/>
     <polygon class="fil8" points="32179,53878 23901,45600 38007,31495 46285,39773 "/>
     <polygon class="fil9" points="32179,52104 25675,45600 38889,32387 39332,32830 26562,45600 32179,51217 44950,38447 45393,38891 "/>
     <path class="fil9" d="M26119 45600l1636 -1630c431,433 674,1019 674,1630 0,623 -252,1219 -698,1654l-1612 -1654z"/>
     <path class="fil9" d="M32181 51663l-1649 -1618c435,-442 1029,-692 1649,-692 620,0 1215,250 1649,693l-1649 1617z"/>
     <path class="fil11" d="M38555 43103c-1071,1071 -2807,1071 -3878,0 -1071,-1071 -1071,-2807 0,-3878 1071,-1071 2807,-1071 3878,0 1071,1071 1071,2807 0,3878z"/>
    </g>
    <g>
     <path class="fil12" d="M59131 21303c0,0 2122,1906 2338,2601 216,695 -1263,4012 -1263,4012l925 530 -1725 0c0,0 421,-2656 726,-3590 -590,-309 -2077,-1611 -2077,-1611l-900 2960 -153 3319 -1363 612 723 -991c0,0 -428,-2411 -611,-3099 -182,-688 133,-3296 219,-4126 87,-830 2593,-889 3161,-617z"/>
     <path class="fil13" d="M55970 21920c-74,715 -318,2751 -268,3740 82,-1774 1625,-3846 1625,-3846 -269,56 -821,-34 -1261,-120 -53,68 -87,143 -96,226z"/>
     <path class="fil13" d="M60431 24664l-2376 -1419c0,0 1487,1302 2077,1611 -257,785 -595,2786 -696,3404 344,6 707,10 861,8 185,-2 249,-91 209,-180l-300 -172c-380,-62 -523,-335 -523,-335l748 -2917z"/>
     <path class="fil14" d="M58827 14897c-14,99 -321,2680 -321,2680 0,0 572,203 761,-126 190,-330 1,-2637 1,-2637l-441 83z"/>
     <path class="fil15" d="M59295 15178c-15,-220 -27,-364 -27,-364l-441 83c-6,42 -65,527 -130,1073l203 -414 395 -378z"/>
     <path class="fil14" d="M56934 16769l396 773c0,0 7,387 -411,443 -418,56 -516,-178 -516,-178l-41 -966c0,0 382,-154 572,-72z"/>
     <path class="fil16" d="M56955 17444c325,-104 716,-178 1169,-174 802,-60 1527,-178 1527,-178 0,0 385,522 360,1166 0,0 -739,577 -1501,696 -46,369 277,1978 621,2349 -184,373 -2019,1000 -3161,617 -225,-337 -214,-1883 -179,-2913 24,-713 485,-1346 1164,-1563z"/>
     <path class="fil15" d="M56362 16841l30 684c369,-75 639,-568 639,-568l0 0 -97 -188c-190,-82 -572,72 -572,72z"/>
     <path class="fil17" d="M60206 27916c0,0 -514,49 -715,15 -53,312 -85,515 -85,515l1725 0 -925 -530z"/>
     <path class="fil17" d="M57028 28950c-229,170 -666,195 -666,195l-723 991 1363 -612 26 -574z"/>
     <polygon class="fil13" points="57155,26205 58055,23245 56901,25873 57036,28774 "/>
     <path class="fil18" d="M58510 18954l-948 69c0,0 691,1977 1569,2280 -344,-371 -667,-1980 -621,-2349z"/>
     <path class="fil19" d="M56362 16841l30 684c369,-75 639,-568 639,-568l-97 -188c-190,-82 -572,72 -572,72z"/>
     <path class="fil19" d="M59268 14814l-441 83c-6,42 -65,527 -130,1073l203 -414 395 -378c-15,-220 -27,-364 -27,-364z"/>
     <path class="fil20" d="M57107 26228c-12,-2 -20,-12 -20,-24 0,0 2,-34 5,-96 1,-13 12,-23 26,-22 14,1 23,12 22,25 -4,61 -5,95 -5,95 -1,13 -12,23 -25,23 -1,-1 -2,0 -3,-1zm2570 1643l-1 0c-13,-3 -21,-16 -18,-29l20 -92c3,-14 15,-19 29,-19 13,3 21,16 18,29l-20 93c-3,12 -16,20 -28,18zm-1387 -4922c-2,0 -4,-1 -6,-2 -65,-29 -124,-51 -174,-64 -13,-4 -20,-17 -17,-29 3,-13 16,-21 29,-17 53,13 114,36 182,67 12,5 17,19 12,31 -5,10 -16,16 -26,14zm332 182c-2,-1 -5,-2 -8,-3 -56,-35 -111,-67 -162,-96 -12,-6 -16,-21 -10,-33 7,-11 21,-16 33,-9 52,29 107,62 164,97 11,7 15,22 8,33 -5,9 -15,13 -25,11zm-828 -115c-3,-1 -7,-2 -10,-5 -10,-8 -12,-23 -5,-33 36,-48 73,-89 111,-122 9,-8 19,-15 30,-20 12,-5 26,0 32,12 6,12 0,26 -12,32 -7,3 -13,7 -18,12 -36,31 -71,70 -104,115 -6,7 -15,10 -24,9zm1143 327c-3,-1 -6,-2 -9,-4 -53,-38 -105,-74 -156,-109 -11,-7 -13,-22 -6,-33 7,-11 22,-14 33,-6 52,34 104,71 156,109 11,7 14,22 6,33 -6,8 -15,11 -24,10zm303 229c-4,-1 -8,-3 -11,-5 -50,-40 -100,-78 -149,-116 -11,-8 -13,-23 -5,-34 8,-10 23,-12 34,-4 49,38 100,77 150,116 10,9 12,24 4,34 -6,7 -15,10 -23,9zm-1629 -225c-2,-1 -3,-1 -5,-2 -12,-5 -18,-19 -12,-31 26,-63 54,-121 82,-173 7,-12 22,-16 33,-10 12,7 16,21 10,33 -28,51 -55,108 -81,169 -5,10 -16,16 -27,14zm1921 467c-5,0 -9,-2 -12,-5 -47,-41 -95,-82 -144,-123 -10,-8 -11,-23 -3,-33 8,-11 23,-12 34,-4 49,41 97,82 145,124 9,8 11,23 2,34 -6,6 -14,9 -22,7zm280 256c-5,-1 -9,-3 -12,-6 -45,-43 -91,-86 -139,-129 -9,-9 -10,-24 -1,-34 9,-10 24,-10 34,-2 47,44 94,87 139,130 9,9 10,25 1,34 -6,6 -14,8 -22,7zm-2329 -367c-1,0 -2,0 -2,0 -13,-4 -20,-18 -16,-30 19,-64 39,-125 59,-181 4,-13 19,-19 31,-15 12,5 19,18 14,31 -20,55 -39,116 -58,179 -4,11 -16,18 -28,16zm2594 638c-5,0 -10,-3 -13,-7 -41,-45 -84,-91 -130,-138 -9,-9 -9,-24 0,-33 10,-10 25,-10 34,0 46,47 90,94 131,139 9,10 8,25 -2,34 -6,5 -13,7 -20,5zm-2690 -271l-2 -1c-12,-3 -21,-15 -17,-28 14,-63 29,-125 45,-185 3,-13 16,-21 29,-17 13,3 21,16 17,29 -16,60 -30,121 -45,183 -3,13 -15,21 -27,19zm2925 569c-6,-2 -12,-5 -16,-11 -29,-46 -66,-97 -110,-151 -8,-10 -7,-25 4,-34 10,-8 25,-6 33,4 45,55 83,107 114,155 7,11 4,26 -7,33 -6,4 -12,5 -18,4zm-3002 -198l0 0c-13,-2 -22,-15 -20,-28 12,-62 24,-125 37,-187 2,-12 15,-21 28,-18l0 0c13,2 21,15 19,28 -13,62 -25,124 -36,186 -3,13 -15,21 -28,19zm2990 561l-1 0c-13,-3 -21,-16 -18,-29 14,-71 26,-134 36,-186 2,-13 14,-21 27,-19l0 0c13,2 22,15 20,28 -10,52 -22,115 -36,187 -3,12 -15,21 -28,19zm-3052 -187c-13,-3 -21,-14 -20,-27 10,-63 19,-125 30,-188 2,-13 14,-22 28,-20 12,4 21,15 19,28 -10,62 -20,125 -29,187 -2,13 -14,22 -27,20l-1 0zm2976 558l-1 0c-13,-3 -22,-15 -19,-28l39 -186c2,-13 15,-21 28,-19l0 0c13,3 22,16 19,29l-39 186c-3,12 -15,21 -27,18zm-3026 -183c-13,-2 -22,-13 -20,-26 7,-62 15,-125 24,-189 2,-13 14,-22 27,-20l1 0c12,2 21,14 19,27 -8,64 -16,126 -24,188 -1,13 -13,22 -26,20l-1 0zm2947 554l-1 0c-13,-2 -21,-15 -19,-28l40 -186c3,-13 16,-22 28,-18 13,3 22,15 19,28l-40 186c-2,13 -15,21 -27,18zm-2988 -177c-12,-2 -21,-13 -20,-26 6,-60 12,-123 19,-189 2,-13 13,-22 27,-21 13,0 23,13 21,26 -7,66 -13,129 -19,189 -2,13 -13,23 -26,21 -1,0 -2,0 -2,0zm2908 549l-1 -1c-13,-2 -22,-15 -19,-28l40 -186c3,-12 16,-20 28,-18l1 0c13,3 21,16 18,29l-40 185c-3,13 -15,21 -27,19zm-2940 -171c-12,-2 -21,-13 -20,-26 4,-56 9,-119 15,-189 1,-13 12,-23 26,-21 13,-1 23,12 21,25 -5,69 -10,133 -14,189 -1,13 -13,23 -26,22 -1,0 -2,0 -2,0zm2859 541l-1 0c-13,-3 -21,-15 -18,-28l40 -186c3,-13 13,-21 29,-18 12,3 21,15 18,28l-41 186c-2,12 -15,21 -27,18zm-82 371l-1 0c-13,-3 -21,-16 -18,-29l41 -185c3,-13 15,-20 28,-18 13,2 22,15 19,28l-41 185c-3,13 -15,21 -28,19zm-82 371l-1 -1c-13,-3 -21,-15 -18,-28l41 -185c3,-13 13,-20 29,-19 13,3 21,16 18,29l-41 185c-3,13 -15,21 -28,19zm-82 370l-1 0c-13,-3 -21,-16 -18,-29l41 -185c3,-13 15,-21 29,-18 12,3 21,15 18,28l-42 186c-2,12 -15,20 -27,18z"/>
     <path class="fil17" d="M57840 15137l3180 -2052c0,0 491,668 428,1096l-3425 1206c0,0 -180,67 -183,-250z"/>
     <path class="fil21" d="M60377 13907c-169,96 -471,237 -442,410 26,161 -1594,802 -2055,1008 54,93 143,62 143,62l3425 -1206c63,-428 -428,-1096 -428,-1096 0,0 103,901 -181,1018 -230,-16 -294,-292 -462,-196z"/>
     <path class="fil14" d="M59651 17092l407 -131 117 -1789 -446 -386 276 -115c0,0 -97,-346 -76,-533 22,-187 136,-247 447,-164 168,73 357,626 245,965 -112,339 135,2361 203,2682 69,322 -813,637 -813,637 0,0 -426,109 -620,-328 -194,-437 260,-838 260,-838z"/>
     <path class="fil14" d="M56916 15429c0,0 685,666 647,956 -38,290 -346,591 -1137,772 -280,-9 -679,-796 -692,-968 -84,-1131 865,-916 1182,-760z"/>
     <path class="fil17" d="M56215 15922c0,0 1029,-290 1070,-831 42,-542 -846,-716 -1206,-507 -154,90 -222,223 -301,373 -89,169 -215,237 -375,347 -52,35 -104,71 -149,115 -311,307 53,1224 305,1472 347,342 849,225 803,-50 -45,-275 -422,-821 -147,-919z"/>
    </g>
    <g>
     <path class="fil22" d="M73724 51001c-178,543 -925,952 -1821,952 -894,0 -1641,-409 -1820,-952 -26,-77 -40,-158 -41,-241l0 493c0,665 834,1203 1861,1203 1029,0 1862,-538 1862,-1203l0 -503c0,86 -14,170 -41,251z"/>
     <path class="fil23" d="M72365 50640c-94,-22 -181,-8 -266,25 29,18 60,36 89,54 53,-10 107,-10 163,4 65,16 226,72 251,167 81,-145 -155,-230 -237,-250z"/>
     <path class="fil23" d="M72730 51044c12,7 23,14 35,21 9,-12 19,-26 26,-40 26,-45 37,-88 35,-129 -4,16 -12,31 -21,46 -21,37 -47,71 -75,102z"/>
     <path class="fil24" d="M72351 50723c-56,-14 -110,-14 -163,-4 124,74 248,149 372,223 7,-8 17,-17 24,-25 8,-9 15,-19 18,-27 -25,-95 -186,-151 -251,-167z"/>
     <path class="fil23" d="M71896 50769c-217,122 -450,249 -694,114 -142,-78 -251,-206 -248,-350 -56,176 64,339 235,434 244,134 477,7 693,-115 142,85 285,172 428,257 28,-12 56,-27 83,-41 -166,-100 -332,-200 -497,-299z"/>
     <path class="fil25" d="M70941 50202l0 -16 134 -89 37 -26c49,30 97,58 145,87 72,-37 147,-69 221,-97l213 115 8 4c-2,3 -5,5 -8,7l0 66 0 14c-12,6 -29,13 -40,18 -37,13 -74,28 -112,43 121,72 239,145 359,216 200,-98 395,-150 629,-56 160,65 368,218 299,408 2,41 -9,84 -35,129 -7,14 -17,28 -26,40 30,19 62,38 94,57 0,0 1,1 2,2 0,0 2,0 2,1l-2 1 -6 80 0 6 -180 116c-37,-22 -74,-44 -110,-65 -98,68 -208,121 -318,165l-223 -120 0 -83 0 -6c20,-4 39,-14 54,-18 72,-25 154,-55 232,-92 -143,-85 -286,-172 -428,-257 -216,122 -449,249 -693,115 -170,-95 -291,-258 -235,-434l0 -2c1,-55 19,-113 59,-172 6,-7 11,-14 16,-21 -22,-14 -45,-26 -67,-40 -14,-8 -15,-8 -21,-20l0 -76zm962 1554c323,0 622,-63 870,-173 414,-180 687,-486 687,-833 0,-556 -697,-1005 -1557,-1005 -348,0 -670,74 -930,199 -379,183 -625,476 -625,806 0,555 697,1006 1555,1006z"/>
     <path class="fil23" d="M71174 50570c15,-34 42,-68 80,-96 122,72 243,146 364,218 25,-10 50,-24 76,-39 1,-1 3,-2 5,-3 -144,-86 -288,-173 -431,-259 -69,50 -100,117 -94,179z"/>
     <path class="fil26" d="M72688 51245c-37,-22 -73,-44 -109,-65 -98,68 -208,121 -319,165l-151 -77 -85 -43 0 83 223 120c110,-44 220,-97 318,-165 36,21 73,43 110,65l180 -116 0 -6 6 -80 -69 48 -104 71z"/>
     <path class="fil24" d="M71174 50570c7,68 61,129 164,155 108,27 191,9 280,-33 -121,-72 -242,-146 -364,-218 -38,28 -65,62 -80,96z"/>
     <path class="fil27" d="M70973 49944c260,-125 582,-199 930,-199 860,0 1557,449 1557,1005 0,347 -273,653 -687,833 -248,110 -547,173 -870,173 -858,0 -1555,-451 -1555,-1006 0,-330 246,-623 625,-806zm930 2009c896,0 1643,-409 1821,-952 27,-81 41,-165 41,-251 0,-665 -833,-1203 -1862,-1203 -1027,0 -1861,538 -1861,1203 0,3 0,7 0,10 1,83 15,164 41,241 179,543 926,952 1820,952z"/>
     <path class="fil28" d="M72602 50890c-3,8 -10,18 -18,27 -7,8 -17,17 -24,25 -124,-74 -248,-149 -372,-223 -29,-18 -60,-36 -89,-54 85,-33 172,-47 266,-25 82,20 318,105 237,250zm-908 -237c-26,15 -51,29 -76,39 -89,42 -172,60 -280,33 -103,-26 -157,-87 -164,-155 -6,-62 25,-129 94,-179 143,86 287,173 431,259 -2,1 -4,2 -5,3zm-692 -422c27,16 53,32 81,48 -19,18 -37,38 -54,59 -5,7 -11,14 -16,21 -40,59 -58,117 -59,172l0 2c-3,144 106,272 248,350 244,135 477,8 694,-114 165,99 331,199 497,299 -27,14 -55,29 -83,41 -78,37 -160,67 -232,92 -15,4 -34,14 -54,18l0 6 85 43 152 77c110,-44 220,-97 318,-165 36,21 72,43 109,65l104 -71 69 -48 2 -1c0,-1 -2,-1 -2,-1 -1,-1 -2,-2 -2,-2 -32,-19 -64,-38 -94,-57 -12,-7 -23,-14 -35,-21 28,-31 54,-65 75,-102 9,-15 17,-30 21,-46 69,-190 -139,-343 -299,-408 -234,-94 -429,-42 -629,56 -120,-71 -238,-144 -359,-216 -26,-16 -52,-31 -77,-47 53,-23 106,-43 158,-63 16,-5 30,-11 45,-16 10,-5 19,-9 26,-15 3,-2 6,-4 8,-7l-8 -4 -213 -115c-74,28 -149,60 -221,97 -48,-29 -96,-57 -145,-87l-37 26 -134 89 0 16c10,5 25,8 34,13 9,6 18,11 27,16z"/>
     <path class="fil23" d="M70962 50298c22,14 45,26 67,40 17,-21 35,-41 54,-59 -28,-16 -54,-32 -81,-48 -9,-5 -18,-10 -27,-16 -9,-5 -24,-8 -34,-13l0 76c6,12 7,12 21,20z"/>
     <path class="fil23" d="M71620 50218c-52,20 -105,40 -158,63 25,16 51,31 77,47 38,-15 75,-30 112,-43 11,-5 28,-12 40,-18l0 -14 0 -66c-7,6 -16,10 -26,15 -15,5 -29,11 -45,16z"/>
     <path class="fil29" d="M74423 49938c-179,543 -926,952 -1821,952 -894,0 -1641,-409 -1820,-952 -26,-78 -40,-159 -41,-241l0 492c0,665 833,1204 1861,1204 1029,0 1862,-539 1862,-1204l0 -502c0,86 -14,170 -41,251z"/>
     <path class="fil26" d="M73063 49576c-93,-21 -180,-7 -266,26 30,17 60,35 90,53 52,-9 107,-9 162,4 66,16 227,73 252,167 81,-145 -156,-229 -238,-250z"/>
     <path class="fil26" d="M73429 49981c12,7 23,14 35,21 9,-13 19,-26 26,-40 26,-45 37,-88 35,-129 -5,16 -12,30 -21,46 -21,37 -48,70 -75,102z"/>
     <path class="fil25" d="M73050 49659c-56,-13 -111,-13 -163,-4 124,75 248,149 372,224 7,-8 17,-17 24,-25 7,-10 15,-19 18,-28 -25,-94 -186,-151 -251,-167z"/>
     <path class="fil26" d="M72595 49706c-217,122 -450,249 -694,114 -143,-79 -251,-207 -248,-351 -57,177 64,340 234,434 244,135 478,8 694,-114 142,85 285,171 428,257 28,-13 55,-27 83,-42 -166,-100 -333,-200 -497,-298z"/>
     <path class="fil25" d="M71639 49138l0 -16 135 -89 37 -25c49,30 96,58 145,87 71,-38 147,-69 220,-98l214 116 8 4c-2,2 -5,4 -8,7l0 66 0 13c-13,7 -30,14 -40,18 -37,14 -75,29 -113,43 121,73 240,145 360,217 199,-98 395,-150 629,-56 160,64 368,218 299,408 2,41 -9,84 -35,129 -7,14 -17,27 -26,40 30,19 62,38 93,57 0,0 1,1 2,2 1,0 2,0 2,1l-2 1 -5 80 0 6 -181 116c-36,-22 -73,-44 -109,-66 -98,69 -208,122 -318,165l-223 -119 0 -83 0 -7c20,-4 39,-13 53,-17 73,-26 155,-55 233,-92 -143,-86 -286,-172 -428,-257 -216,122 -450,249 -694,114 -170,-94 -291,-257 -234,-434l0 -1c1,-56 19,-113 59,-172 5,-8 10,-15 16,-21 -22,-14 -46,-27 -67,-40 -14,-9 -15,-9 -22,-20l0 -77zm963 1554c323,0 622,-63 870,-172 414,-181 686,-487 686,-833 0,-556 -697,-1006 -1556,-1006 -349,0 -670,75 -930,200 -379,183 -625,476 -625,806 0,554 697,1005 1555,1005z"/>
     <path class="fil26" d="M71873 49507c14,-35 42,-68 80,-97 121,73 242,147 364,219 24,-10 50,-24 76,-39 1,-1 3,-2 5,-3 -144,-86 -288,-174 -432,-260 -68,51 -100,118 -93,180z"/>
     <path class="fil26" d="M73387 50182c-37,-23 -74,-44 -109,-66 -98,69 -208,121 -319,165l-151 -76 -85 -43 0 83 223 119c110,-43 220,-96 318,-165 36,22 73,44 109,66l181 -116 0 -6 5 -80 -68 47 -104 72z"/>
     <path class="fil25" d="M71873 49507c7,67 61,128 164,155 108,27 191,9 280,-33 -122,-72 -243,-146 -364,-219 -38,29 -66,62 -80,97z"/>
     <path class="fil26" d="M71672 48881c260,-125 581,-200 930,-200 859,0 1556,450 1556,1006 0,346 -272,652 -686,833 -248,109 -547,172 -870,172 -858,0 -1555,-451 -1555,-1005 0,-330 246,-623 625,-806zm930 2009c895,0 1642,-409 1821,-952 27,-81 41,-165 41,-251 0,-665 -833,-1203 -1862,-1203 -1028,0 -1861,538 -1861,1203 0,3 0,7 0,10 1,82 15,163 41,241 179,543 926,952 1820,952z"/>
     <path class="fil29" d="M73301 49826c-3,9 -11,18 -18,28 -7,8 -17,17 -24,25 -124,-75 -248,-149 -372,-224 -29,-18 -60,-36 -90,-53 86,-33 173,-47 266,-26 82,21 319,105 238,250zm-908 -236c-26,15 -52,29 -76,39 -89,42 -172,60 -280,33 -103,-27 -157,-88 -165,-155 -6,-62 26,-129 94,-180 144,86 288,174 432,260 -2,1 -4,2 -5,3zm-693 -422c28,16 54,32 81,48 -18,18 -36,38 -53,59 -6,6 -11,13 -16,21 -40,59 -58,116 -59,172l0 1c-3,144 105,272 248,351 244,135 477,8 694,-114 165,98 331,198 497,298 -28,15 -55,29 -83,42 -78,37 -160,66 -233,92 -14,4 -33,13 -53,17l0 7 85 43 151 76c111,-44 221,-96 319,-165 35,22 72,43 109,66l104 -72 68 -47 2 -1c0,-1 -1,-1 -2,-1 -1,-1 -2,-2 -2,-2 -31,-19 -63,-38 -93,-57 -12,-7 -23,-14 -35,-21 27,-32 54,-65 75,-102 9,-16 16,-30 21,-46 69,-190 -139,-344 -299,-408 -234,-94 -430,-42 -629,56 -120,-72 -239,-144 -360,-217 -25,-16 -51,-30 -76,-46 52,-23 106,-43 157,-63 16,-5 31,-12 45,-17 11,-4 19,-8 27,-14 3,-3 6,-5 8,-7l-8 -4 -214 -116c-73,29 -149,60 -220,98 -49,-29 -96,-57 -145,-87l-37 25 -135 89 0 16c11,5 26,9 35,14 9,5 18,10 26,16z"/>
     <path class="fil26" d="M71661 49235c22,13 45,26 67,40 17,-21 35,-41 53,-59 -27,-16 -53,-32 -81,-48 -8,-6 -18,-11 -26,-16 -9,-5 -24,-9 -35,-14l0 77c7,11 8,11 22,20z"/>
     <path class="fil26" d="M72318 49155c-51,20 -105,40 -157,63 25,16 51,30 76,46 38,-14 76,-29 113,-43 10,-4 27,-11 40,-18l0 -13 0 -66c-8,6 -16,10 -27,14 -14,5 -29,12 -45,17z"/>
    </g>
    <path class="fil30" d="M80605 51939l28 -136 607 -2831c-1221,-949 -1960,-266 -3462,-266 -1502,0 -3888,-978 -3814,266l606 2831 29 136c485,1293 5520,1293 6006,0z"/>
    <path class="fil31" d="M77602 48167c1730,0 3624,-559 3866,-1337 -913,-1707 -6653,-1626 -7732,0 215,760 2136,1337 3866,1337z"/>
    <path class="fil32" d="M82063 46181c0,-1098 -1997,-1987 -4461,-1987 -2464,0 -4461,889 -4461,1987 0,292 142,570 397,820 701,-687 2257,-1165 4064,-1165 1806,0 3362,478 4064,1165 255,-250 397,-528 397,-820z"/>
    <path class="fil33" d="M73141 47822c0,1098 1997,1987 4461,1987 2464,0 4461,-889 4461,-1987l0 -1641c0,-293 -230,519 -486,769 -701,688 -2180,1100 -3986,1100 -1807,0 -3297,-387 -3998,-1074 -255,-250 -298,-521 -452,-795l0 1641z"/>
    <path class="fil34" d="M81816 46131c0,968 -1887,1753 -4214,1753 -2328,0 -4215,-785 -4215,-1753 0,-969 1887,-1754 4215,-1754 2327,0 4214,785 4214,1754zm-4214 -1937c-2464,0 -4461,889 -4461,1987 0,1097 1997,1986 4461,1986 2464,0 4461,-889 4461,-1986 0,-1098 -1997,-1987 -4461,-1987z"/>
    <polygon class="fil35" points="77767,47013 77435,47013 77435,40372 77767,40372 "/>
    <g>
     <path class="fil36" d="M77884 46143c287,-577 828,-1199 1318,-1591 740,-590 1789,-1046 3144,-718 0,0 -402,757 -1146,1427 -949,857 -2078,1237 -3316,882z"/>
     <path class="fil36" d="M77297 46246c-1903,0 -3718,-1147 -4147,-3042 0,0 1994,56 3238,1293l0 0c482,478 790,1082 909,1749z"/>
    </g>
    <g>
     <polygon class="fil37" points="81817,38914 80324,38914 80324,38385 81817,38385 "/>
     <polygon class="fil37" points="80395,35481 80769,35855 79713,36910 79339,36537 "/>
     <polygon class="fil37" points="80769,41444 80395,41817 79339,40761 79713,40388 "/>
     <polygon class="fil37" points="77865,35927 77337,35927 77337,34434 77865,34434 "/>
     <polygon class="fil37" points="74807,35481 75862,36537 75488,36910 74433,35855 "/>
     <polygon class="fil37" points="75862,40761 74807,41817 74433,41444 75488,40388 "/>
     <polygon class="fil37" points="74878,38914 73385,38914 73385,38385 74878,38385 "/>
     <g>
      <path class="fil38" d="M78167 38301c-186,-281 -891,-191 -971,165 -63,286 408,342 581,403 208,72 443,222 288,486 -201,344 -665,336 -823,-23 -18,-41 -159,5 -144,38 178,404 712,400 1000,112 169,-169 227,-435 8,-586 -117,-81 -275,-107 -408,-150 -95,-30 -221,-53 -294,-124 -270,-265 424,-578 620,-282 26,40 160,-14 143,-39z"/>
      <path class="fil38" d="M77599 37892c24,690 24,1380 0,2070 -2,65 142,39 144,-15 24,-698 24,-1395 -1,-2093 -1,-53 -145,-22 -143,38z"/>
     </g>
    </g>
    <g>
     <path class="fil29" d="M86486 51453c-178,543 -925,952 -1821,952 -894,0 -1641,-409 -1820,-952 -26,-78 -39,-159 -41,-240l0 491c0,665 834,1205 1861,1205 1029,0 1862,-540 1862,-1205l0 -502c0,86 -13,170 -41,251z"/>
     <path class="fil26" d="M85127 51092c-94,-23 -181,-8 -266,25 29,18 60,35 89,54 53,-10 107,-10 163,4 65,15 226,72 251,167 81,-145 -156,-230 -237,-250z"/>
     <path class="fil26" d="M85492 51496c12,8 23,14 35,21 10,-12 19,-26 26,-40 27,-45 37,-88 35,-129 -4,16 -12,30 -21,46 -21,37 -47,71 -75,102z"/>
     <path class="fil25" d="M85113 51175c-56,-14 -110,-14 -163,-4 124,74 248,149 372,223 7,-8 17,-17 24,-25 8,-10 15,-19 18,-27 -25,-95 -186,-152 -251,-167z"/>
     <path class="fil26" d="M84658 51221c-216,122 -450,249 -694,114 -143,-78 -251,-207 -248,-350 -56,176 64,339 235,433 243,135 477,8 693,-114 142,85 285,171 428,257 28,-12 56,-27 83,-42 -166,-100 -332,-199 -497,-298z"/>
     <path class="fil25" d="M83703 50653l0 -15 134 -90 37 -25c49,29 97,58 145,87 71,-37 147,-69 221,-97l213 115 8 4c-2,3 -5,5 -8,7l0 66 0 14c-13,6 -30,13 -40,18 -37,13 -74,28 -112,43 120,72 239,145 359,216 200,-98 395,-150 629,-56 160,64 368,218 299,408 2,41 -8,84 -35,129 -7,14 -16,28 -26,40 30,19 62,38 93,57 0,0 1,1 2,2 2,0 3,0 3,1l-3 1 -5 80 0 6 -180 116c-37,-22 -74,-44 -110,-65 -97,68 -208,121 -318,165l-223 -120 0 -83 0 -6c20,-5 39,-14 54,-18 72,-26 154,-55 232,-92 -143,-86 -286,-172 -428,-257 -216,122 -450,249 -693,114 -171,-94 -291,-257 -235,-433l0 -2c2,-55 19,-113 59,-172 5,-7 11,-15 16,-21 -22,-14 -45,-26 -67,-40 -14,-8 -15,-8 -21,-20l0 -77zm962 1555c323,0 622,-63 870,-173 414,-181 686,-486 686,-833 0,-556 -696,-1006 -1556,-1006 -349,0 -670,75 -930,200 -379,183 -625,476 -625,806 0,555 697,1006 1555,1006z"/>
     <path class="fil26" d="M83936 51022c15,-34 42,-68 80,-97 122,73 243,147 365,219 24,-10 49,-24 75,-39 1,-1 3,-2 5,-3 -144,-86 -288,-173 -431,-260 -69,51 -100,118 -94,180z"/>
     <path class="fil26" d="M85450 51697c-36,-22 -73,-44 -109,-65 -98,68 -208,120 -318,165l-152 -77 -85 -43 0 83 223 120c110,-44 221,-97 318,-165 36,21 73,43 110,65l180 -116 0 -6 5 -80 -68 48 -104 71z"/>
     <path class="fil25" d="M83936 51022c7,68 61,129 164,155 108,27 191,9 281,-33 -122,-72 -243,-146 -365,-219 -38,29 -65,63 -80,97z"/>
     <path class="fil26" d="M83735 50396c260,-125 581,-200 930,-200 860,0 1556,450 1556,1006 0,347 -272,652 -686,833 -248,109 -547,173 -870,173 -858,0 -1555,-451 -1555,-1006 0,-330 246,-623 625,-806zm930 2009c896,0 1643,-409 1821,-952 28,-81 41,-165 41,-251 0,-665 -833,-1203 -1862,-1203 -1027,0 -1861,538 -1861,1203 0,3 0,7 0,11 2,81 15,162 41,240 179,543 926,952 1820,952z"/>
     <path class="fil29" d="M85364 51342c-3,8 -10,17 -18,27 -7,8 -17,17 -24,25 -124,-74 -248,-149 -372,-223 -29,-19 -60,-36 -89,-54 85,-33 172,-47 266,-25 81,20 318,105 237,250zm-908 -237c-26,15 -51,29 -75,39 -90,42 -173,60 -281,33 -103,-26 -157,-87 -164,-155 -6,-62 25,-129 94,-180 143,87 287,174 431,260 -2,1 -4,2 -5,3zm-692 -422c27,16 53,33 81,48 -19,18 -37,38 -54,59 -5,6 -11,14 -16,21 -40,59 -57,117 -59,172l0 2c-3,143 105,272 248,350 244,135 478,8 694,-114 165,99 331,199 497,298 -27,15 -55,30 -83,42 -78,37 -160,67 -232,92 -15,4 -34,13 -54,18l0 6 85 43 152 77c110,-45 220,-97 318,-165 36,21 73,43 109,65l104 -71 68 -48 3 -1c0,-1 -1,-1 -3,-1 -1,-1 -2,-2 -2,-2 -31,-19 -63,-38 -93,-57 -12,-7 -23,-13 -35,-21 28,-31 54,-65 75,-102 9,-16 17,-30 21,-46 69,-190 -139,-344 -299,-408 -234,-94 -429,-42 -629,56 -120,-71 -239,-144 -359,-216 -26,-16 -52,-31 -77,-47 53,-23 106,-43 158,-63 15,-5 30,-11 45,-17 10,-4 19,-8 26,-14 3,-2 6,-4 8,-7l-8 -4 -213 -115c-74,28 -150,60 -221,97 -48,-29 -96,-58 -145,-87l-37 25 -134 90 0 15c10,6 25,9 34,14 9,5 18,11 27,16z"/>
     <path class="fil26" d="M83724 50750c22,14 45,26 67,40 17,-21 35,-41 54,-59 -28,-16 -54,-32 -81,-48 -9,-5 -18,-11 -27,-16 -9,-5 -24,-8 -34,-14l0 77c6,12 7,12 21,20z"/>
     <path class="fil26" d="M84382 50670c-52,20 -105,40 -158,63 25,16 51,31 77,47 38,-15 75,-30 112,-43 10,-5 27,-12 40,-18l0 -14 0 -66c-7,6 -16,10 -26,14 -15,6 -30,12 -45,17z"/>
     <path class="fil29" d="M88112 50080c-179,543 -926,952 -1821,952 -894,0 -1641,-409 -1820,-952 -26,-78 -40,-159 -41,-241l0 492c0,665 833,1204 1861,1204 1029,0 1862,-539 1862,-1204l0 -502c0,86 -14,170 -41,251z"/>
     <path class="fil26" d="M86752 49718c-93,-22 -181,-7 -266,26 30,18 60,35 90,53 52,-9 107,-9 162,4 66,16 226,73 252,168 80,-146 -156,-231 -238,-251z"/>
     <path class="fil26" d="M87118 50123c12,7 23,14 35,21 9,-13 18,-26 26,-40 26,-45 37,-88 35,-129 -5,15 -12,30 -22,46 -21,37 -47,70 -74,102z"/>
     <path class="fil25" d="M86738 49801c-55,-13 -110,-13 -162,-4 124,75 248,149 372,224 7,-8 16,-17 24,-25 7,-10 15,-19 18,-27 -26,-95 -186,-152 -252,-168z"/>
     <path class="fil26" d="M86284 49848c-217,121 -450,249 -694,114 -143,-79 -251,-207 -248,-351 -57,177 64,339 234,434 244,134 478,7 694,-114 142,85 285,171 427,257 29,-12 56,-27 84,-42 -167,-100 -332,-200 -497,-298z"/>
     <path class="fil25" d="M85328 49280l0 -16 135 -89 37 -25c49,29 96,58 145,87 71,-38 147,-69 220,-98l214 116 8 4c-2,2 -5,5 -8,6l0 67 0 13c-13,6 -30,14 -40,18 -37,14 -75,28 -113,43 121,73 240,145 360,217 199,-98 395,-151 629,-56 160,64 368,218 299,408 2,41 -9,84 -35,129 -8,14 -17,27 -26,40 30,19 62,38 93,57 0,0 1,1 2,2 1,0 2,0 2,1l-2 1 -5 80 0 6 -181 116c-37,-22 -73,-44 -109,-66 -98,69 -208,121 -319,165l-222 -119 0 -83 0 -7c20,-4 38,-13 53,-18 73,-25 155,-54 232,-91 -142,-86 -285,-172 -427,-257 -216,121 -450,248 -694,114 -170,-95 -291,-257 -234,-434l0 -1c1,-56 19,-114 59,-172 5,-8 10,-15 15,-21 -21,-14 -45,-26 -67,-40 -13,-9 -14,-9 -21,-20l0 -77zm963 1554c322,0 622,-63 870,-172 414,-181 686,-486 686,-833 0,-556 -696,-1006 -1556,-1006 -349,0 -671,75 -930,200 -379,182 -625,476 -625,806 0,554 696,1005 1555,1005z"/>
     <path class="fil23" d="M85562 49649c14,-35 42,-68 80,-97 122,73 242,146 364,219 24,-11 50,-24 76,-39 1,-1 3,-2 5,-3 -144,-86 -288,-174 -432,-260 -68,51 -100,118 -93,180z"/>
     <path class="fil26" d="M87076 50324c-37,-22 -74,-45 -110,-66 -97,69 -207,121 -318,165l-151 -76 -85 -43 0 83 222 119c111,-44 221,-96 319,-165 36,22 72,44 109,66l181 -116 0 -6 5 -80 -68 47 -104 72z"/>
     <path class="fil24" d="M85562 49649c7,67 61,128 164,154 108,28 191,10 280,-32 -122,-73 -242,-146 -364,-219 -38,29 -66,62 -80,97z"/>
     <path class="fil26" d="M85361 49023c259,-125 581,-200 930,-200 860,0 1556,450 1556,1006 0,347 -272,652 -686,833 -248,109 -548,172 -870,172 -859,0 -1555,-451 -1555,-1005 0,-330 246,-623 625,-806zm930 2009c895,0 1642,-409 1821,-952 27,-81 41,-165 41,-251 0,-666 -833,-1203 -1862,-1203 -1028,0 -1861,537 -1861,1203 0,3 0,7 0,10 1,82 15,163 41,241 179,543 926,952 1820,952z"/>
     <path class="fil29" d="M86990 49969c-3,8 -11,17 -18,27 -8,8 -17,17 -24,25 -124,-75 -248,-149 -372,-224 -30,-18 -60,-35 -90,-53 85,-33 173,-48 266,-26 82,20 318,105 238,251zm-908 -237c-26,15 -52,28 -76,39 -89,42 -172,60 -280,32 -103,-26 -157,-87 -164,-154 -7,-62 25,-129 93,-180 144,86 288,174 432,260 -2,1 -4,2 -5,3zm-693 -422c27,15 54,32 81,48 -19,18 -37,38 -54,59 -5,6 -10,13 -15,21 -40,58 -58,116 -59,172l0 1c-3,144 105,272 248,351 244,135 477,7 693,-114 166,98 331,198 498,298 -28,15 -55,30 -84,42 -77,37 -159,66 -232,91 -15,5 -33,14 -53,18l0 7 85 43 151 76c111,-44 221,-96 318,-165 36,21 73,44 110,66l104 -72 68 -47 2 -1c0,-1 -1,-1 -2,-1 -1,-1 -2,-2 -2,-2 -31,-19 -63,-38 -93,-57 -12,-7 -23,-14 -35,-21 27,-32 53,-65 74,-102 10,-16 17,-31 22,-46 69,-190 -139,-344 -299,-408 -234,-95 -430,-42 -629,56 -120,-72 -239,-144 -360,-217 -25,-15 -51,-30 -76,-46 52,-23 106,-43 157,-63 16,-5 31,-12 45,-17 11,-4 19,-8 27,-15 3,-1 6,-4 8,-6l-8 -4 -214 -116c-73,29 -149,60 -220,98 -49,-29 -96,-58 -145,-87l-37 25 -135 89 0 16c11,5 26,9 35,14 8,5 18,10 26,16z"/>
     <path class="fil23" d="M85349 49377c22,14 46,26 67,40 17,-21 35,-41 54,-59 -27,-16 -54,-33 -81,-48 -8,-6 -18,-11 -26,-16 -9,-5 -24,-9 -35,-14l0 77c7,11 8,11 21,20z"/>
     <path class="fil23" d="M86007 49297c-51,20 -105,40 -157,63 25,16 51,31 76,46 38,-15 76,-29 113,-43 10,-4 27,-12 40,-18l0 -13 0 -67c-8,7 -16,11 -27,15 -14,5 -29,12 -45,17z"/>
     <path class="fil29" d="M86971 48852c-178,544 -926,952 -1821,952 -894,0 -1641,-408 -1820,-952 -26,-78 -40,-158 -41,-240l0 492c0,665 833,1204 1861,1204 1029,0 1862,-539 1862,-1204l0 -503c0,86 -14,170 -41,251z"/>
     <path class="fil26" d="M85611 48491c-93,-22 -180,-7 -266,25 30,18 60,36 90,54 52,-10 107,-10 163,4 65,16 226,73 251,167 81,-145 -156,-230 -238,-250z"/>
     <path class="fil26" d="M85977 48896c12,7 23,13 35,21 9,-13 19,-27 26,-40 26,-45 37,-89 35,-130 -4,16 -12,31 -21,47 -21,36 -48,70 -75,102z"/>
     <path class="fil25" d="M85598 48574c-56,-14 -111,-14 -163,-4 124,74 248,149 372,224 7,-9 17,-17 24,-26 8,-9 15,-19 18,-27 -25,-94 -186,-151 -251,-167z"/>
     <path class="fil26" d="M85143 48620c-217,122 -450,249 -694,115 -143,-79 -251,-207 -248,-351 -57,176 64,339 235,434 243,134 477,7 693,-115 142,85 285,171 428,258 28,-13 55,-28 83,-42 -166,-100 -332,-200 -497,-299z"/>
     <path class="fil25" d="M84188 48053l0 -16 134 -89 37 -26c49,30 96,58 145,88 71,-38 147,-70 221,-98l213 115 8 5c-2,2 -5,4 -8,6l0 66 0 14c-13,6 -30,14 -40,18 -37,14 -75,28 -113,43 121,72 240,145 360,216 199,-97 395,-150 629,-55 160,64 368,217 299,407 2,41 -9,85 -35,130 -7,13 -17,27 -26,40 30,19 62,37 93,56 0,0 1,1 2,2 1,0 2,0 2,1l-2 2 -5 79 0 7 -181 115c-36,-22 -73,-44 -109,-65 -97,68 -208,121 -318,165l-223 -120 0 -83 0 -6c20,-4 39,-14 53,-18 73,-25 155,-55 233,-91 -143,-87 -286,-173 -428,-258 -216,122 -450,249 -693,115 -171,-95 -292,-258 -235,-434l0 -1c1,-56 19,-114 59,-173 5,-7 11,-14 16,-21 -22,-13 -45,-26 -68,-39 -13,-9 -14,-9 -20,-20l0 -77zm962 1554c323,0 622,-63 870,-172 414,-181 686,-487 686,-834 0,-556 -696,-1005 -1556,-1005 -349,0 -670,74 -930,199 -379,183 -625,476 -625,806 0,555 696,1006 1555,1006z"/>
     <path class="fil26" d="M84421 48422c15,-35 42,-69 80,-97 122,72 242,146 364,219 24,-11 50,-25 76,-39 1,-2 3,-3 5,-3 -144,-87 -288,-174 -432,-260 -68,50 -99,118 -93,180z"/>
     <path class="fil26" d="M85935 49096c-37,-22 -74,-44 -109,-65 -98,68 -208,121 -319,165l-151 -77 -85 -43 0 83 223 120c110,-44 221,-96 318,-165 36,21 73,43 109,65l181 -115 0 -7 5 -79 -68 47 -104 71z"/>
     <path class="fil25" d="M84421 48422c7,67 61,128 164,154 108,27 191,10 280,-32 -122,-73 -242,-147 -364,-219 -38,28 -65,62 -80,97z"/>
     <path class="fil26" d="M84220 47795c260,-125 581,-199 930,-199 860,0 1556,449 1556,1005 0,347 -272,653 -686,834 -248,109 -547,172 -870,172 -859,0 -1555,-451 -1555,-1006 0,-330 246,-623 625,-806zm930 2009c895,0 1643,-408 1821,-952 27,-81 41,-165 41,-251 0,-665 -833,-1203 -1862,-1203 -1028,0 -1861,538 -1861,1203 0,3 0,8 0,11 1,82 15,162 41,240 179,544 926,952 1820,952z"/>
     <path class="fil29" d="M85849 48741c-3,8 -10,18 -18,27 -7,9 -17,17 -24,26 -124,-75 -248,-150 -372,-224 -30,-18 -60,-36 -90,-54 86,-32 173,-47 266,-25 82,20 319,105 238,250zm-908 -237c-26,15 -52,29 -76,40 -89,42 -172,59 -280,32 -103,-26 -157,-87 -164,-154 -6,-62 25,-130 93,-180 144,86 288,173 432,260 -2,0 -4,1 -5,2zm-692 -422c27,16 53,33 80,49 -19,17 -36,37 -53,58 -5,7 -11,14 -16,21 -40,59 -58,117 -59,173l0 1c-3,144 105,272 248,351 244,134 477,7 694,-115 165,99 331,199 497,299 -27,14 -55,29 -83,42 -78,36 -160,66 -233,91 -14,4 -33,14 -53,18l0 6 85 43 151 77c111,-44 221,-96 319,-165 35,21 72,43 109,65l104 -71 68 -47 2 -2c0,-1 -1,-1 -2,-1 -1,-1 -2,-2 -2,-2 -31,-19 -63,-37 -93,-56 -12,-8 -23,-14 -35,-21 27,-32 54,-66 75,-102 9,-16 17,-31 21,-47 69,-190 -139,-343 -299,-407 -234,-95 -430,-42 -629,55 -120,-71 -239,-144 -360,-216 -25,-16 -51,-31 -76,-46 52,-23 106,-43 157,-63 16,-6 31,-12 45,-17 11,-4 19,-9 27,-15 3,-2 6,-4 8,-6l-8 -5 -213 -115c-74,28 -150,60 -221,98 -49,-30 -96,-58 -145,-88l-37 26 -134 89 0 16c10,5 25,8 34,13 9,6 18,11 27,16z"/>
     <path class="fil26" d="M84208 48150c23,13 46,26 68,39 17,-21 34,-41 53,-58 -27,-16 -53,-33 -80,-49 -9,-5 -18,-10 -27,-16 -9,-5 -24,-8 -34,-13l0 77c6,11 7,11 20,20z"/>
     <path class="fil26" d="M84866 48070c-51,19 -105,40 -157,63 25,15 51,30 76,46 38,-15 76,-29 113,-43 10,-4 27,-12 40,-18l0 -14 0 -66c-8,6 -16,11 -27,15 -14,5 -29,11 -45,17z"/>
    </g>
    <g>
     <path class="fil29" d="M82355 53261c-163,496 -844,868 -1660,868 -815,0 -1496,-372 -1659,-868 -24,-70 -36,-145 -37,-219l0 448c0,607 759,1098 1696,1098 938,0 1698,-491 1698,-1098l0 -458c0,79 -13,155 -38,229z"/>
     <path class="fil26" d="M81116 52932c-86,-20 -165,-7 -243,23 27,16 55,32 82,48 48,-8 97,-8 148,4 60,15 206,67 229,153 74,-133 -142,-210 -216,-228z"/>
     <path class="fil26" d="M81449 53300c11,7 21,13 32,20 8,-12 17,-24 24,-37 24,-41 33,-80 31,-117 -4,14 -10,27 -19,41 -19,34 -43,65 -68,93z"/>
     <path class="fil25" d="M81103 53007c-51,-12 -100,-12 -148,-4 113,69 226,137 339,204 7,-7 15,-15 22,-23 7,-8 13,-17 16,-24 -23,-86 -169,-138 -229,-153z"/>
     <path class="fil26" d="M80689 53050c-198,110 -411,227 -633,104 -130,-72 -229,-189 -226,-320 -52,161 59,309 214,396 222,122 435,6 632,-105 129,78 260,156 390,235 26,-11 51,-25 76,-38 -152,-92 -303,-182 -453,-272z"/>
     <path class="fil25" d="M79818 52532l0 -14 122 -82 34 -23c45,27 88,53 132,80 65,-35 134,-63 201,-89l195 105 7 4c-2,2 -4,4 -7,6l0 60 0 13c-12,5 -27,12 -37,16 -33,12 -68,26 -102,39 110,66 218,133 327,197 182,-88 360,-136 574,-50 146,58 335,198 272,372 2,37 -7,76 -31,117 -7,13 -16,25 -24,37 28,17 56,34 85,51 0,0 1,1 2,2 1,0 2,0 2,1l-2 1 -5 73 0 6 -165 105c-33,-20 -67,-40 -99,-59 -90,62 -190,110 -291,150l-203 -109 0 -76 0 -6c19,-3 36,-12 49,-16 66,-23 141,-49 212,-83 -130,-79 -261,-157 -390,-235 -197,111 -410,227 -632,105 -155,-87 -266,-235 -214,-396l0 -1c1,-51 17,-103 54,-157 5,-7 9,-13 14,-19 -20,-13 -41,-24 -61,-37 -13,-7 -14,-7 -19,-18l0 -70zm877 1417c294,0 567,-57 793,-157 378,-165 626,-443 626,-760 0,-506 -635,-916 -1419,-916 -318,0 -611,68 -848,182 -346,166 -570,433 -570,734 0,506 635,917 1418,917z"/>
     <path class="fil26" d="M80030 52869c14,-32 39,-63 73,-89 111,67 221,134 333,200 22,-10 45,-22 69,-36 0,-1 2,-2 4,-3 -131,-78 -262,-158 -393,-236 -63,46 -91,107 -86,164z"/>
     <path class="fil26" d="M81411 53484c-34,-21 -67,-41 -100,-60 -89,62 -190,110 -290,150l-138 -69 -78 -40 0 76 203 109c101,-40 201,-88 291,-150 32,19 66,39 99,59l165 -105 0 -6 5 -73 -62 43 -95 66z"/>
     <path class="fil25" d="M80030 52869c7,61 56,116 150,140 98,25 174,9 256,-29 -112,-66 -222,-133 -333,-200 -34,26 -59,57 -73,89z"/>
     <path class="fil26" d="M79847 52298c237,-114 530,-182 848,-182 784,0 1419,410 1419,916 0,317 -248,595 -626,760 -226,100 -499,157 -793,157 -783,0 -1418,-411 -1418,-917 0,-301 224,-568 570,-734zm848 1831c816,0 1497,-372 1660,-868 25,-74 38,-150 38,-229 0,-606 -760,-1097 -1698,-1097 -937,0 -1696,491 -1696,1097 0,3 0,7 0,10 1,74 13,149 37,219 163,496 844,868 1659,868z"/>
     <path class="fil29" d="M81332 53160c-3,7 -9,16 -16,24 -7,8 -15,16 -22,23 -113,-67 -226,-135 -339,-204 -27,-16 -55,-32 -82,-48 78,-30 157,-43 243,-23 74,18 290,95 216,228zm-827 -216c-24,14 -47,26 -69,36 -82,38 -158,54 -256,29 -94,-24 -143,-79 -150,-140 -5,-57 23,-118 86,-164 131,78 262,158 393,236 -2,1 -4,2 -4,3zm-632 -385c25,14 49,30 74,44 -17,17 -33,35 -49,54 -5,6 -9,12 -14,19 -37,54 -53,106 -54,157l0 1c-3,131 96,248 226,320 222,123 435,6 633,-104 150,90 301,180 453,272 -25,13 -50,27 -76,38 -71,34 -146,60 -212,83 -13,4 -30,13 -49,16l0 6 78 40 138 69c100,-40 201,-88 290,-150 33,19 66,39 100,60l95 -66 62 -43 2 -1c0,-1 -1,-1 -2,-1 -1,-1 -2,-2 -2,-2 -29,-17 -57,-34 -85,-51 -11,-7 -21,-13 -32,-20 25,-28 49,-59 68,-93 9,-14 15,-27 19,-41 63,-174 -126,-314 -272,-372 -214,-86 -392,-38 -574,50 -109,-64 -217,-131 -327,-197 -23,-14 -47,-27 -70,-42 48,-21 97,-39 143,-57 15,-5 28,-11 42,-16 9,-4 17,-7 24,-13 3,-2 5,-4 7,-6l-7 -4 -195 -105c-67,26 -136,54 -201,89 -44,-27 -87,-53 -132,-80l-34 23 -122 82 0 14c9,5 23,8 31,13 8,5 17,9 24,14z"/>
     <path class="fil26" d="M79837 52620c20,13 41,24 61,37 16,-19 32,-37 49,-54 -25,-14 -49,-30 -74,-44 -7,-5 -16,-9 -24,-14 -8,-5 -22,-8 -31,-13l0 70c5,11 6,11 19,18z"/>
     <path class="fil26" d="M80436 52548c-46,18 -95,36 -143,57 23,15 47,28 70,42 34,-13 69,-27 102,-39 10,-4 25,-11 37,-16l0 -13 0 -60c-7,6 -15,9 -24,13 -14,5 -27,11 -42,16z"/>
    </g>
    <g>
     <path class="fil29" d="M96766 53869c-163,496 -844,868 -1660,868 -816,0 -1497,-372 -1660,-868 -24,-70 -36,-145 -37,-219l0 448c0,607 760,1098 1697,1098 937,0 1697,-491 1697,-1098l0 -458c0,79 -12,155 -37,229z"/>
     <path class="fil26" d="M95526 53540c-85,-20 -165,-7 -242,23 27,16 55,32 81,48 48,-8 98,-8 149,4 59,15 206,66 229,153 73,-133 -142,-210 -217,-228z"/>
     <path class="fil26" d="M95860 53908c10,7 21,13 31,20 9,-12 17,-24 24,-37 24,-41 34,-80 32,-117 -4,14 -11,27 -19,41 -20,34 -44,65 -68,93z"/>
     <path class="fil25" d="M95514 53615c-51,-12 -101,-12 -149,-4 113,68 226,137 339,204 7,-7 16,-15 22,-23 7,-8 14,-17 17,-24 -23,-87 -170,-138 -229,-153z"/>
     <path class="fil26" d="M95099 53658c-197,110 -410,227 -632,104 -131,-72 -229,-189 -226,-320 -52,161 58,309 213,396 222,122 435,6 632,-105 130,78 260,156 390,235 26,-11 51,-25 76,-38 -151,-92 -303,-182 -453,-272z"/>
     <path class="fil25" d="M94228 53140l0 -14 123 -82 33 -23c45,27 89,53 133,80 65,-35 134,-63 201,-89l194 105 8 4c-2,2 -5,4 -8,6l0 60 0 13c-11,5 -27,12 -36,16 -34,12 -68,26 -103,39 110,66 219,133 328,197 182,-88 360,-136 574,-50 145,58 335,198 272,372 2,37 -8,76 -32,117 -7,13 -15,25 -24,37 28,17 57,34 85,51 0,0 1,1 2,2 1,0 2,0 2,1l-2 1 -4 73 0 6 -165 105c-34,-20 -67,-40 -100,-59 -89,62 -190,110 -290,150l-203 -109 0 -76 0 -6c18,-3 35,-12 49,-16 66,-23 140,-49 211,-83 -130,-79 -260,-157 -390,-235 -197,111 -410,227 -632,105 -155,-87 -265,-235 -213,-396l0 -1c0,-51 17,-103 53,-157 5,-7 10,-13 15,-19 -20,-13 -42,-24 -62,-37 -12,-7 -13,-7 -19,-18l0 -70zm878 1417c294,0 567,-57 793,-157 377,-165 625,-443 625,-760 0,-506 -635,-916 -1418,-916 -318,0 -612,68 -848,182 -346,166 -570,433 -570,734 0,506 635,917 1418,917z"/>
     <path class="fil26" d="M94441 53476c13,-31 38,-62 73,-88 111,67 221,134 332,200 22,-10 45,-22 69,-36 1,-1 3,-2 5,-3 -131,-78 -263,-158 -394,-236 -62,46 -91,107 -85,163z"/>
     <path class="fil26" d="M95821 54091c-33,-20 -67,-40 -99,-59 -89,62 -190,110 -291,150l-138 -69 -77 -40 0 76 203 109c100,-40 201,-88 290,-150 33,19 66,39 100,59l165 -105 0 -6 4 -73 -62 43 -95 65z"/>
     <path class="fil25" d="M94441 53476c6,62 55,117 149,141 99,25 175,9 256,-29 -111,-66 -221,-133 -332,-200 -35,26 -60,57 -73,88z"/>
     <path class="fil26" d="M94258 52906c236,-114 530,-182 848,-182 783,0 1418,410 1418,916 0,317 -248,595 -625,760 -226,100 -499,157 -793,157 -783,0 -1418,-411 -1418,-917 0,-301 224,-568 570,-734zm848 1831c816,0 1497,-372 1660,-868 25,-74 37,-150 37,-229 0,-606 -760,-1097 -1697,-1097 -937,0 -1697,491 -1697,1097 0,3 0,7 0,10 1,74 13,149 37,219 163,496 844,868 1660,868z"/>
     <path class="fil29" d="M95743 53768c-3,7 -10,16 -17,24 -6,8 -15,16 -22,23 -113,-67 -226,-136 -339,-204 -26,-16 -54,-32 -81,-48 77,-30 157,-43 242,-23 75,18 290,95 217,228zm-828 -216c-24,14 -47,26 -69,36 -81,38 -157,54 -256,29 -94,-24 -143,-79 -149,-141 -6,-56 23,-117 85,-163 131,78 263,158 394,236 -2,1 -4,2 -5,3zm-631 -385c25,14 49,30 74,44 -18,17 -34,35 -49,54 -5,6 -10,12 -15,19 -36,54 -53,106 -53,157l0 1c-3,131 95,248 226,320 222,123 435,6 632,-104 150,90 302,180 453,272 -25,13 -50,27 -76,38 -71,34 -145,60 -211,83 -14,4 -31,13 -49,16l0 6 77 40 138 69c101,-40 202,-88 291,-150 32,19 66,39 99,59l95 -65 62 -43 2 -1c0,-1 -1,-1 -2,-1 -1,-1 -2,-2 -2,-2 -28,-17 -57,-34 -85,-51 -10,-7 -21,-13 -31,-20 24,-28 48,-59 68,-93 8,-14 15,-27 19,-41 63,-174 -127,-314 -272,-372 -214,-86 -392,-38 -574,50 -109,-64 -218,-131 -328,-197 -23,-14 -47,-27 -70,-42 48,-21 97,-39 144,-57 14,-5 28,-11 41,-16 10,-4 17,-7 24,-13 3,-2 6,-4 8,-6l-8 -4 -194 -105c-67,26 -136,54 -201,89 -44,-27 -88,-53 -133,-80l-33 23 -123 82 0 14c10,5 23,8 32,13 7,5 16,9 24,14z"/>
     <path class="fil26" d="M94247 53228c20,13 42,24 62,37 15,-19 31,-37 49,-54 -25,-14 -49,-30 -74,-44 -8,-5 -17,-9 -24,-14 -9,-5 -22,-8 -32,-13l0 70c6,11 7,11 19,18z"/>
     <path class="fil26" d="M94847 53156c-47,18 -96,36 -144,57 23,15 47,28 70,42 35,-13 69,-27 103,-39 9,-4 25,-11 36,-16l0 -13 0 -60c-7,6 -14,9 -24,13 -13,5 -27,11 -41,16z"/>
    </g>
    <g>
     <path class="fil29" d="M78520 40654c-611,127 -1404,-355 -1892,-1201 -488,-845 -509,-1773 -94,-2238 59,-67 343,-215 419,-261l-101 35c-473,184 -906,457 -1038,984 -123,491 -13,1145 339,1755 446,773 1149,1244 1734,1219 347,-14 696,-233 966,-440l62 -49c-81,47 -304,177 -395,196z"/>
     <path class="fil26" d="M78120 39173c-30,-101 -92,-175 -169,-238 -1,38 -1,76 -2,114 37,44 67,96 85,156 20,70 55,253 -21,328 181,-3 133,-272 107,-360z"/>
     <path class="fil26" d="M77937 39738c-1,15 0,30 -1,45 17,2 35,3 52,3 57,0 103,-14 141,-38 -17,5 -35,6 -55,5 -46,0 -92,-6 -137,-15z"/>
     <path class="fil25" d="M78034 39205c-18,-60 -48,-112 -85,-156 -3,157 -6,315 -8,473 12,2 25,7 37,9 13,2 25,4 35,2 76,-75 41,-258 21,-328z"/>
     <path class="fil26" d="M77742 38801c-233,-139 -480,-290 -486,-593 -4,-178 58,-350 196,-426 -198,43 -285,246 -282,458 6,304 253,455 486,593 -3,180 -6,362 -10,544 28,20 56,38 85,56 4,-212 8,-423 11,-632z"/>
     <path class="fil25" d="M77757 37589l15 -9 158 79 44 21c-1,62 -2,123 -4,184 75,47 146,101 213,155l7 265 1 10c-4,-1 -7,-3 -11,-4l-62 36 -13 7c-13,-9 -29,-20 -39,-28 -33,-27 -67,-55 -102,-83 -3,154 -6,306 -8,458 201,135 357,291 395,564 27,185 -4,466 -222,504 -38,24 -84,38 -141,38 -17,0 -35,-1 -52,-3 -1,39 -2,79 -2,119 0,0 -1,2 -1,3 0,1 1,2 0,3l-2 -2 -78 39 -7 3 -207 -107c0,-47 1,-94 2,-139 -118,-55 -228,-131 -330,-211l-8 -276 78 -45 6 -3c15,16 34,29 47,41 63,54 135,116 212,169 4,-182 7,-364 10,-544 -233,-138 -480,-289 -486,-593 -3,-212 84,-415 282,-458l1 0c53,-30 117,-44 195,-39 10,1 19,2 28,4 1,-29 1,-57 1,-86 1,-17 0,-18 8,-30l72 -42zm-943 1756c176,305 399,554 637,728 397,292 834,383 1161,194 525,-303 570,-1206 102,-2018 -191,-330 -436,-593 -696,-770 -380,-258 -790,-331 -1102,-151 -524,303 -570,1207 -102,2017z"/>
     <path class="fil26" d="M77536 38010c41,-5 88,3 135,23 -2,155 -6,309 -8,464 23,17 50,33 78,50 2,0 4,2 6,3 3,-183 7,-366 10,-549 -85,-37 -166,-30 -221,9z"/>
     <path class="fil26" d="M77725 39808c0,-47 1,-93 1,-138 -117,-56 -227,-131 -329,-211l-10 -185 -6 -104 -78 45 8 276c102,80 212,156 330,211 -1,45 -2,92 -2,139l207 107 7 -3 78 -39 -82 -39 -124 -59z"/>
     <path class="fil25" d="M77536 38010c-59,44 -88,128 -56,239 33,117 95,186 183,248 2,-155 6,-309 8,-464 -47,-20 -94,-28 -135,-23z"/>
     <path class="fil26" d="M78018 37479c260,177 505,440 696,770 468,812 423,1715 -102,2018 -327,189 -764,98 -1161,-194 -238,-174 -461,-423 -637,-728 -468,-810 -422,-1714 102,-2017 312,-180 722,-107 1102,151zm-1390 1974c488,846 1281,1328 1892,1201 91,-19 178,-52 259,-99 628,-362 682,-1443 121,-2414 -560,-970 -1523,-1464 -2151,-1101 -3,1 -7,4 -9,5 -77,46 -147,103 -206,170 -415,465 -394,1393 94,2238z"/>
     <path class="fil29" d="M78013 39533c-10,2 -22,0 -35,-2 -12,-2 -25,-7 -37,-9 2,-158 5,-316 8,-473 1,-38 1,-76 2,-114 77,63 139,137 169,238 26,88 74,357 -107,360zm-272 -986c-28,-17 -55,-33 -78,-50 -88,-62 -150,-131 -183,-248 -32,-111 -3,-195 56,-239 55,-39 136,-46 221,-9 -3,183 -7,366 -10,549 -2,-1 -4,-3 -6,-3zm22 -884c0,34 -2,68 -2,102 -27,-8 -56,-14 -85,-18 -9,-2 -18,-3 -28,-4 -78,-5 -142,9 -195,39l-1 0c-138,76 -200,248 -196,426 6,303 253,454 486,593 -3,209 -7,420 -11,632 -29,-18 -57,-36 -85,-56 -77,-53 -149,-115 -212,-169 -13,-12 -32,-25 -47,-41l-6 3 6 104 10 185c102,80 212,155 329,211 0,45 -1,91 -1,138l124 59 82 39 2 2c1,-1 0,-2 0,-3 0,-1 1,-3 1,-3 0,-40 1,-80 2,-119 1,-15 0,-30 1,-45 45,9 91,15 137,15 20,1 38,0 55,-5 218,-38 249,-319 222,-504 -38,-273 -194,-429 -395,-564 2,-152 5,-304 8,-458 1,-32 1,-65 2,-97 50,37 99,76 145,114 14,12 28,23 41,34 10,7 18,13 28,17 4,1 7,3 11,4l-1 -10 -7 -265c-67,-54 -138,-108 -213,-155 2,-61 3,-122 4,-184l-44 -21 -158 -79 -15 9c1,13 6,29 6,40 0,11 0,23 0,34z"/>
     <path class="fil26" d="M77677 37661c0,29 0,57 -1,86 29,4 58,10 85,18 0,-34 2,-68 2,-102 0,-11 0,-23 0,-34 0,-11 -5,-27 -6,-40l-72 42c-8,12 -7,13 -8,30z"/>
     <path class="fil26" d="M78111 38239c-46,-38 -95,-77 -145,-114 -1,32 -1,65 -2,97 35,28 69,56 102,83 10,8 26,19 39,28l13 -7 62 -36c-10,-4 -18,-10 -28,-17 -13,-11 -27,-22 -41,-34z"/>
    </g>
    <g>
     <path class="fil29" d="M8156 52338c-178,544 -925,952 -1820,952 -895,0 -1642,-408 -1820,-952 -26,-77 -40,-159 -41,-240l0 491c0,665 833,1205 1861,1205 1028,0 1862,-540 1862,-1205l0 -502c0,86 -14,170 -42,251z"/>
     <path class="fil26" d="M6797 51977c-94,-22 -181,-8 -266,25 30,18 60,36 89,54 53,-10 107,-10 163,4 65,16 226,72 251,167 81,-145 -155,-230 -237,-250z"/>
     <path class="fil26" d="M7162 52381c12,7 24,14 35,21 10,-12 19,-26 26,-40 27,-45 37,-88 35,-129 -4,16 -11,31 -21,46 -21,37 -47,71 -75,102z"/>
     <path class="fil25" d="M6783 52060c-56,-14 -110,-14 -163,-4 124,74 248,149 372,223 8,-8 17,-17 25,-25 7,-9 14,-19 17,-27 -25,-95 -186,-151 -251,-167z"/>
     <path class="fil26" d="M6328 52106c-216,122 -450,249 -693,115 -143,-79 -251,-207 -248,-351 -57,176 64,339 234,434 244,134 477,7 693,-115 142,85 285,171 428,257 29,-12 56,-27 83,-42 -166,-99 -332,-199 -497,-298z"/>
     <path class="fil25" d="M5373 51539l0 -16 135 -90 36 -25c50,30 97,58 145,87 72,-37 148,-69 221,-97l213 115 9 4c-2,3 -5,5 -9,7l0 66 0 14c-12,6 -29,13 -40,18 -36,13 -74,28 -112,43 121,72 239,145 359,216 200,-98 395,-150 630,-56 159,64 368,218 298,408 2,41 -8,84 -35,129 -7,14 -16,28 -26,40 31,19 62,38 94,57 0,0 1,1 2,2 1,0 2,0 2,1l-2 1 -5 80 0 6 -181 116c-37,-22 -74,-44 -109,-65 -98,68 -209,121 -319,165l-223 -120 0 -83 0 -6c20,-4 39,-14 54,-18 73,-25 154,-55 232,-92 -143,-86 -286,-172 -428,-257 -216,122 -449,249 -693,115 -170,-95 -291,-258 -234,-434l0 -1c1,-56 18,-114 59,-173 5,-7 10,-15 15,-21 -22,-14 -45,-26 -67,-40 -14,-8 -15,-8 -21,-20l0 -76zm963 1553c322,0 622,-62 870,-172 414,-180 686,-486 686,-833 0,-556 -697,-1005 -1556,-1005 -349,0 -671,74 -931,199 -379,183 -625,476 -625,806 0,555 697,1005 1556,1005z"/>
     <path class="fil26" d="M5606 51907c15,-34 42,-68 80,-96 122,72 243,146 365,218 24,-10 49,-24 76,-39 1,-1 3,-2 5,-3 -144,-86 -288,-173 -432,-259 -69,50 -100,117 -94,179z"/>
     <path class="fil26" d="M7121 52582c-37,-22 -74,-44 -110,-65 -97,68 -208,121 -318,165l-151 -77 -86 -43 0 83 223 120c110,-44 221,-97 319,-165 35,21 72,43 109,65l181 -116 0 -6 5 -80 -69 48 -103 71z"/>
     <path class="fil25" d="M5606 51907c8,68 61,129 164,155 108,27 192,9 281,-33 -122,-72 -243,-146 -365,-218 -38,28 -65,62 -80,96z"/>
     <path class="fil26" d="M5405 51281c260,-125 582,-199 931,-199 859,0 1556,449 1556,1005 0,347 -273,653 -686,833 -248,110 -548,172 -870,172 -859,0 -1556,-450 -1556,-1005 0,-330 246,-623 625,-806zm931 2009c895,0 1642,-408 1820,-952 28,-81 42,-165 42,-251 0,-665 -834,-1203 -1862,-1203 -1028,0 -1861,538 -1861,1203 0,3 0,7 0,11 1,81 15,163 41,240 178,544 925,952 1820,952z"/>
     <path class="fil29" d="M7034 52227c-3,8 -10,18 -17,27 -8,8 -17,17 -25,25 -124,-74 -248,-149 -372,-223 -29,-18 -59,-36 -89,-54 85,-33 172,-47 266,-25 82,20 318,105 237,250zm-907 -237c-27,15 -52,29 -76,39 -89,42 -173,60 -281,33 -103,-26 -156,-87 -164,-155 -6,-62 25,-129 94,-179 144,86 288,173 432,259 -2,1 -4,2 -5,3zm-693 -422c27,16 54,33 81,48 -19,18 -37,38 -54,59 -5,6 -10,14 -15,21 -41,59 -58,117 -59,173l0 1c-3,144 105,272 248,351 243,134 477,7 693,-115 165,99 331,199 497,298 -27,15 -54,30 -83,42 -78,37 -159,67 -232,92 -15,4 -34,14 -54,18l0 6 86 43 151 77c110,-44 221,-97 318,-165 36,21 73,43 110,65l103 -71 69 -48 2 -1c0,-1 -1,-1 -2,-1 -1,-1 -2,-2 -2,-2 -32,-19 -63,-38 -94,-57 -11,-7 -23,-14 -35,-21 28,-31 54,-65 75,-102 10,-15 17,-30 21,-46 70,-190 -139,-344 -298,-408 -235,-94 -430,-42 -630,56 -120,-71 -238,-144 -359,-216 -25,-16 -52,-31 -77,-47 53,-23 106,-43 158,-63 15,-5 30,-11 45,-16 11,-5 19,-9 26,-15 4,-2 7,-4 9,-7l-9 -4 -213 -115c-73,28 -149,60 -221,97 -48,-29 -95,-57 -145,-87l-36 25 -135 90 0 16c11,5 25,8 35,13 8,6 18,11 26,16z"/>
     <path class="fil26" d="M5394 51635c22,14 45,26 67,40 17,-21 35,-41 54,-59 -27,-15 -54,-32 -81,-48 -8,-5 -18,-10 -26,-16 -10,-5 -24,-8 -35,-13l0 76c6,12 7,12 21,20z"/>
     <path class="fil26" d="M6052 51555c-52,20 -105,40 -158,63 26,16 52,31 77,47 38,-15 76,-30 112,-43 11,-5 28,-12 40,-18l0 -14 0 -66c-7,6 -15,10 -26,15 -15,5 -30,11 -45,16z"/>
    </g>
    <path class="fil10" d="M34343 38891c-607,606 -941,1414 -941,2273 0,858 334,1666 941,2273 607,607 1414,940 2273,941 858,0 1666,-335 2273,-942 607,-607 941,-1414 941,-2272 0,-860 -334,-1666 -941,-2273 -607,-607 -1414,-942 -2273,-941 -859,0 -1666,334 -2273,941zm2823 -691c595,109 1143,396 1580,833 569,569 883,1325 884,2130 0,805 -314,1561 -884,2131 -569,569 -1325,883 -2130,883 -118,0 -236,-7 -351,-21 300,-1985 601,-3971 901,-5956zm-445 1596c-165,-106 -349,-154 -545,-139 -143,11 -287,59 -423,134l-354 -355 -143 143 325 325c-82,62 -165,140 -229,221l-321 -321 -143 143 346 345c-220,372 -196,813 124,1116 122,116 278,194 452,207 206,16 406,-65 584,-163l67 67 -395 2609c-596,-110 -1143,-396 -1581,-834 -569,-570 -883,-1325 -882,-2130 0,-805 313,-1563 881,-2131 570,-570 1327,-882 2132,-883 118,0 236,7 352,20l-247 1626zm-18 2808c259,104 532,61 774,-69l356 356 143 -143 -326 -325c83,-62 165,-140 229,-221l322 321 142 -142 -347 -347c180,-310 198,-643 -10,-948 -257,-374 -632,-408 -1020,-216l-56 363 827 827c-66,83 -144,158 -230,220l-656 -655 -37 247 514 514c-204,84 -389,111 -593,12l-32 206zm-146 -1725l-40 262 -91 58 -931 -932c64,-81 146,-158 229,-221l833 833zm-1176 -440l864 864c-126,65 -275,123 -419,113 -126,-10 -240,-67 -331,-153 -235,-223 -262,-543 -114,-824zm2440 761c151,222 146,451 30,685l-1 2 -824 -823c310,-150 581,-175 795,136zm-1227 -568l-693 -693c93,-44 188,-73 290,-82 187,-13 354,44 496,164l-93 611z"/>
   </g>
  </g>
 </g>
</svg>
