<?xml version="1.0" encoding="UTF-8"?>
<!DOCTYPE svg PUBLIC "-//W3C//DTD SVG 1.1//EN" "http://www.w3.org/Graphics/SVG/1.1/DTD/svg11.dtd">
<!-- Creator: CorelDRAW X7 -->
<svg xmlns="http://www.w3.org/2000/svg" xml:space="preserve" width="9.1237in" height="5.4048in" version="1.1" style="shape-rendering:geometricPrecision; text-rendering:geometricPrecision; image-rendering:optimizeQuality; fill-rule:evenodd; clip-rule:evenodd"
viewBox="0 0 91237 54048"
 xmlns:xlink="http://www.w3.org/1999/xlink">
 <defs>
  <style type="text/css">
   <![CDATA[
    .fil28 {fill:#FFC632}
    .fil23 {fill:#FAAB30}
    .fil24 {fill:#F79333}
    .fil21 {fill:#2F2718}
    .fil13 {fill:#6168A8}
    .fil31 {fill:#657AA9}
    .fil32 {fill:#7C94CA}
    .fil33 {fill:#95A9D4}
    .fil18 {fill:#A38755}
    .fil34 {fill:#B8C5E2}
    .fil29 {fill:#BB9B61}
    .fil22 {fill:#D2AE6D}
    .fil35 {fill:#D6BB8A}
    .fil25 {fill:#DCBB79}
    .fil6 {fill:#E7D3AD}
    .fil7 {fill:#ECD6B2}
    .fil26 {fill:#EDD7B2}
    .fil0 {fill:#EDDFC4}
    .fil27 {fill:#F2E2C7}
    .fil19 {fill:#F5EEE0}
    .fil20 {fill:#4A458F;fill-rule:nonzero}
    .fil10 {fill:#576074;fill-rule:nonzero}
    .fil17 {fill:#5D4D30;fill-rule:nonzero}
    .fil9 {fill:#657AA9;fill-rule:nonzero}
    .fil12 {fill:#6C87C3;fill-rule:nonzero}
    .fil8 {fill:#899FCF;fill-rule:nonzero}
    .fil11 {fill:#AABADC;fill-rule:nonzero}
    .fil30 {fill:#B0BEDF;fill-rule:nonzero}
    .fil4 {fill:#BB9B61;fill-rule:nonzero}
    .fil38 {fill:#C19C00;fill-rule:nonzero}
    .fil5 {fill:#D2AE6D;fill-rule:nonzero}
    .fil36 {fill:#D6BB8A;fill-rule:nonzero}
    .fil16 {fill:#D7B77D;fill-rule:nonzero}
    .fil2 {fill:#DFC596;fill-rule:nonzero}
    .fil1 {fill:#EDDFC4;fill-rule:nonzero}
    .fil37 {fill:#EFE3CC;fill-rule:nonzero}
    .fil15 {fill:#F5EEE0;fill-rule:nonzero}
    .fil3 {fill:#F6EFE2;fill-rule:nonzero}
    .fil14 {fill:white;fill-rule:nonzero}
   ]]>
  </style>
 </defs>
 <g id="Layer_x0020_1">
  <metadata id="CorelCorpID_0Corel-Layer"/>
  <g id="_1759471267664">
   <path class="fil0" d="M27397 19727c1851,1738 5083,790 6979,-384 2036,-1261 3612,-3386 3784,-5823 317,-4489 -5130,-4509 -7992,-2993 -2572,1362 -4254,4092 -3807,7038 16,108 36,216 58,322 148,690 464,1357 978,1840z"/>
   <g>
    <path class="fil1" d="M67600 48317c0,4046 -17927,5312 -21225,5511 -8229,497 -16552,144 -24641,-978 -6147,-853 -11533,-2258 -11533,-4533 0,-3135 12850,-5677 28700,-5677 15850,0 28699,2542 28699,5677z"/>
    <path class="fil2" d="M62491 48740c0,5311 -39703,4799 -39703,0 0,-2138 7357,-3871 18866,-3871 11508,0 20837,1733 20837,3871z"/>
    <path class="fil3" d="M12161 44799c-1956,-954 -3314,-2371 -2671,-4403 265,-838 902,-1763 2118,-2629 789,-796 1185,-1593 1035,-2987 -244,-2273 -1032,-3290 -1176,-5095 -503,-6295 6955,-9207 12100,-8278 3307,597 5584,2160 8068,1985 5832,-410 7741,-8325 10770,-12320 1303,-1717 2762,-3092 4424,-4116 3708,-2285 9642,-2981 14383,-1503 5116,1596 7444,5087 7417,9161 -35,5386 -4079,8440 -3911,13322 146,4257 3731,4429 3466,9832 -218,4435 -3345,6966 -7461,7755 -7690,1473 -41161,2887 -48562,-724z"/>
    <path class="fil1" d="M16292 25433c4827,-3291 9378,-78 6762,3165 -1622,2012 -5606,3266 -7937,2076 -840,-430 -1334,-1217 -1030,-2528 226,-972 1085,-1950 2205,-2713z"/>
    <path class="fil4" d="M26608 48688c0,-410 468,-743 1045,-743 577,0 1045,333 1045,743l-2090 0z"/>
    <path class="fil4" d="M49913 49760c0,-411 468,-743 1045,-743 577,0 1045,332 1045,743l-2090 0z"/>
    <path class="fil5" d="M14301 48692c0,-363 414,-657 924,-657 511,0 925,294 925,657l-1849 0z"/>
    <path class="fil4" d="M20252 49021c0,-234 267,-424 596,-424 329,0 596,190 596,424l-1192 0z"/>
    <path class="fil4" d="M53533 47674c0,-602 687,-1090 1534,-1090 846,0 1533,488 1533,1090l-3067 0z"/>
    <path class="fil5" d="M34441 50267c0,-602 686,-1090 1533,-1090 846,0 1533,488 1533,1090l-3066 0z"/>
    <path class="fil5" d="M42335 50107c0,-301 343,-545 766,-545 424,0 767,244 767,545l-1533 0z"/>
    <path class="fil5" d="M59036 48935c0,-385 439,-698 981,-698 541,0 980,313 980,698l-1961 0z"/>
    <path class="fil5" d="M21258 49020c0,-467 532,-845 1188,-845 655,0 1187,378 1187,845l-2375 0z"/>
    <path class="fil4" d="M37065 50267c0,-301 343,-545 766,-545 424,0 767,244 767,545l-1533 0z"/>
    <path class="fil3" d="M64193 14944c146,1057 694,1520 1215,1415 887,-178 1069,-1356 1018,-2457 -74,-1571 -604,-3184 -1751,-4304 -1007,-983 -2645,-699 -2492,575 106,875 986,1592 1431,2358 399,687 412,1199 579,2413z"/>
    <path class="fil6" d="M67406 25693c724,24 1304,618 1308,1353l12 0c5,-735 586,-1329 1307,-1353 -725,-24 -1307,-623 -1307,-1363l-10 0c0,740 -582,1339 -1310,1363z"/>
    <path class="fil7" d="M7190 45644c562,19 1013,480 1016,1051l9 0c4,-571 455,-1032 1015,-1051 -563,-18 -1015,-484 -1015,-1058l-8 0c0,574 -452,1040 -1017,1058z"/>
    <g>
     <path class="fil1" d="M0 5691c341,-152 688,-292 1039,-419 4125,-1496 8874,-1326 12563,-3704 707,-457 1350,-992 1958,-1568l16935 0c-4282,495 -8146,771 -10036,3384 -986,1364 -1085,2678 -1181,3992 -334,4598 -2071,5585 -6540,6259 -1194,180 -2274,309 -3368,706 -4858,1763 -6171,4737 -6224,8148 -148,9544 5055,14945 -5146,23545l0 -40343z"/>
     <path class="fil3" d="M20484 0c-2464,1605 -3433,3645 -4970,6066 -3488,5494 -9174,7623 -15514,6058l0 -12124 20484 0z"/>
    </g>
    <g>
     <polygon class="fil8" points="62143,26810 47618,26810 50493,29686 40071,40108 47873,47910 58295,37488 62143,41336 "/>
     <polygon class="fil9" points="47041,47071 46623,46653 58295,34980 60369,37054 60369,28584 51899,28584 53001,29686 41329,41358 40911,40940 52165,29686 50472,27992 60961,27992 60961,38481 58295,35816 "/>
     <polygon class="fil10" points="42377,29684 50179,37486 47873,47910 40071,40108 "/>
     <polygon class="fil9" points="39755,47910 31953,40108 42377,29684 50179,37486 "/>
     <polygon class="fil8" points="33212,41367 32794,40949 43218,30524 43636,30942 "/>
     <polygon class="fil8" points="38924,47079 38506,46661 48931,36237 49349,36654 "/>
     <polygon class="fil10" points="35821,29684 43624,37486 39755,47910 31953,40108 "/>
     <polygon class="fil8" points="30329,50780 22527,42978 35821,29684 43624,37486 "/>
     <polygon class="fil9" points="30329,49108 24199,42978 36653,30524 37071,30942 25035,42978 30329,48273 42365,36237 42783,36654 "/>
     <path class="fil9" d="M24617 42978l1542 -1536c406,408 635,961 635,1536 0,587 -237,1149 -657,1559l-1520 -1559z"/>
     <path class="fil9" d="M30331 48692l-1554 -1524c409,-417 969,-653 1554,-653 584,0 1145,236 1554,653l-1554 1524z"/>
     <path class="fil11" d="M36338 40624c-1009,1010 -2646,1010 -3655,0 -1009,-1009 -1009,-2645 0,-3654 1009,-1010 2646,-1010 3655,0 1009,1009 1009,2645 0,3654z"/>
    </g>
    <g>
     <path class="fil12" d="M55731 20078c0,0 2000,1797 2204,2452 203,654 -1191,3781 -1191,3781l872 499 -1626 0c0,0 397,-2503 684,-3383 -556,-291 -1957,-1519 -1957,-1519l-849 2790 -144 3129 -1284 576 681 -934c0,0 -403,-2272 -575,-2920 -173,-649 125,-3108 206,-3889 81,-782 2444,-839 2979,-582z"/>
     <path class="fil13" d="M52752 20660c-70,674 -300,2593 -252,3525 77,-1672 1531,-3625 1531,-3625 -254,53 -774,-32 -1189,-114 -50,64 -82,135 -90,214z"/>
     <path class="fil13" d="M56956 23246l-2239 -1337c0,0 1401,1227 1957,1518 -241,740 -560,2626 -656,3209 325,4 666,8 812,7 174,-2 235,-86 197,-170l-283 -162c-358,-59 -493,-316 -493,-316l705 -2749z"/>
     <path class="fil14" d="M55444 14041c-13,92 -303,2525 -303,2525 0,0 540,192 719,-119 178,-310 0,-2484 0,-2484l-416 78z"/>
     <path class="fil15" d="M55885 14305c-14,-207 -25,-343 -25,-343l-416 78c-5,40 -60,497 -122,1012l191 -391 372 -356z"/>
     <path class="fil14" d="M53661 15805l373 729c0,0 6,364 -388,417 -394,53 -486,-168 -486,-168l-38 -910c0,0 359,-146 539,-68z"/>
     <path class="fil16" d="M53681 16441c306,-98 674,-168 1101,-164 755,-57 1439,-168 1439,-168 0,0 363,493 340,1099 0,0 -697,544 -1415,656 -44,348 261,1864 585,2214 -173,352 -1903,943 -2979,581 -212,-317 -201,-1774 -169,-2745 23,-672 457,-1268 1098,-1473z"/>
     <path class="fil15" d="M53122 15873l27 645c349,-71 602,-536 602,-536l0 0 -90 -177c-180,-78 -539,68 -539,68z"/>
     <path class="fil17" d="M56744 26311c0,0 -484,46 -674,15 -50,293 -80,484 -80,484l1626 0 -872 -499z"/>
     <path class="fil17" d="M53749 27285c-216,160 -628,184 -628,184l-682 934 1285 -576 25 -542z"/>
     <polygon class="fil13" points="53868,24698 54717,21909 53629,24386 53757,27120 "/>
     <path class="fil18" d="M55146 17864l-894 65c0,0 652,1864 1479,2149 -324,-350 -629,-1866 -585,-2214z"/>
     <path class="fil19" d="M53122 15873l27 645c349,-71 602,-536 602,-536l-90 -177c-180,-78 -539,68 -539,68z"/>
     <path class="fil19" d="M55860 13962l-416 78c-5,40 -60,497 -122,1012l191 -391 372 -356c-14,-207 -25,-343 -25,-343z"/>
     <path class="fil20" d="M53823 24720c-11,-2 -19,-12 -18,-23 0,0 1,-32 5,-90 0,-12 11,-22 24,-21 13,1 21,11 21,24 -4,57 -5,89 -5,89 -1,12 -11,22 -24,22 -1,-1 -2,-1 -3,-1zm2423 1548l-1 0c-13,-2 -20,-14 -17,-27l19 -87c3,-12 14,-18 27,-17 12,3 20,15 17,27l-19 87c-3,12 -15,20 -26,17zm-1308 -4639c-2,0 -3,0 -5,-1 -62,-28 -117,-48 -164,-61 -12,-3 -19,-15 -16,-27 3,-12 15,-20 27,-16 50,13 108,34 171,63 12,5 17,18 12,29 -5,10 -15,15 -25,13zm314 172c-3,-1 -6,-2 -8,-3 -53,-33 -105,-63 -153,-90 -11,-6 -15,-20 -9,-31 6,-11 19,-15 30,-9 50,27 102,58 156,92 10,6 13,20 7,31 -5,8 -14,11 -23,10zm-781 -109c-3,0 -6,-2 -9,-4 -10,-7 -12,-21 -5,-31 34,-45 69,-84 104,-115 9,-8 18,-14 29,-19 11,-5 24,0 30,11 5,11 0,25 -11,30 -7,3 -13,7 -18,12 -33,29 -66,65 -98,108 -5,7 -14,10 -22,8zm1077 308c-3,0 -6,-1 -9,-3 -49,-36 -98,-70 -146,-102 -10,-7 -13,-21 -6,-32 7,-10 21,-13 31,-6 49,33 98,67 147,103 11,7 13,21 6,31 -5,8 -14,11 -23,9zm285 216c-3,0 -7,-2 -10,-4 -47,-37 -93,-74 -140,-109 -10,-8 -12,-22 -5,-32 8,-10 22,-12 32,-5 47,36 94,73 142,110 9,8 11,23 3,32 -5,7 -14,10 -22,8zm-1534 -212c-2,0 -4,0 -5,-1 -12,-5 -17,-18 -12,-30 25,-59 52,-113 78,-163 6,-11 20,-14 31,-9 11,6 15,20 9,31 -26,48 -52,101 -77,159 -4,10 -14,15 -24,13zm1810 441c-4,0 -8,-2 -11,-5 -45,-39 -90,-77 -136,-116 -10,-8 -11,-22 -3,-31 8,-10 22,-11 32,-3 46,38 92,77 136,116 10,8 11,22 3,32 -6,6 -14,8 -21,7zm264 241c-4,-1 -8,-3 -12,-6 -42,-40 -85,-81 -130,-122 -9,-8 -10,-22 -1,-32 8,-9 22,-9 31,-1 45,41 89,82 131,123 9,8 10,23 1,32 -5,5 -13,7 -20,6zm-2195 -346c-1,0 -2,0 -2,0 -12,-4 -19,-16 -15,-28 18,-61 37,-118 55,-171 4,-12 18,-18 29,-14 12,4 18,17 14,29 -19,52 -37,109 -55,169 -4,11 -15,17 -26,15zm2445 602c-5,-1 -10,-3 -13,-7 -38,-42 -79,-86 -122,-130 -9,-9 -9,-23 0,-32 9,-9 23,-8 32,1 44,44 85,88 123,130 9,10 8,24 -1,32 -6,5 -13,7 -19,6zm-2536 -256l-1 -1c-12,-2 -20,-15 -17,-27 13,-59 28,-117 43,-174 3,-12 15,-19 28,-16 11,3 19,16 16,28 -15,56 -29,114 -43,172 -3,12 -14,20 -26,18zm2758 536c-6,-1 -12,-5 -16,-10 -28,-44 -63,-91 -104,-142 -8,-10 -6,-24 4,-32 9,-8 24,-6 31,3 43,53 79,102 107,146 7,11 4,25 -6,32 -5,3 -11,4 -16,3zm-2830 -186l-1 0c-12,-3 -20,-14 -18,-27 11,-58 23,-117 34,-176 3,-12 15,-19 27,-17l0 0c12,2 20,14 18,27 -12,58 -24,116 -34,175 -2,12 -14,20 -26,18zm2818 528l-1 0c-12,-3 -20,-15 -17,-27 13,-67 24,-126 33,-175 3,-12 14,-20 26,-18l1 0c12,2 20,14 18,26 -9,49 -21,109 -34,176 -3,12 -14,20 -26,18zm-2877 -176c-12,-2 -20,-13 -18,-26 8,-58 18,-117 28,-176 2,-13 13,-21 26,-19 11,4 20,14 18,26 -10,59 -19,118 -27,176 -2,12 -14,21 -26,19l-1 0zm2805 526l-1 0c-12,-3 -20,-14 -18,-26l37 -176c2,-12 14,-19 26,-17l1 0c12,2 20,14 17,27l-36 175c-3,12 -14,19 -26,17zm-2852 -172c-12,-2 -20,-13 -19,-25 7,-58 15,-117 23,-178 1,-12 13,-21 25,-19l1 0c12,2 20,14 19,26 -8,60 -16,119 -23,176 -1,13 -13,22 -25,20l-1 0zm2777 522l0 0c-13,-2 -20,-15 -18,-27l38 -175c2,-12 15,-21 26,-17 12,3 20,15 18,27l-38 175c-2,12 -14,19 -26,17zm-2816 -167c-11,-2 -19,-13 -18,-24 5,-57 11,-117 18,-178 1,-13 12,-22 25,-20 13,0 21,12 20,24 -7,62 -13,121 -18,178 -2,12 -12,22 -25,20 -1,0 -1,0 -2,0zm2741 517l-1 0c-12,-3 -20,-15 -17,-27l38 -175c2,-12 14,-19 26,-17l0 0c13,2 20,15 18,27l-38 175c-3,11 -14,19 -26,17zm-2771 -161c-11,-2 -19,-12 -19,-24 4,-53 9,-113 14,-178 1,-13 12,-22 25,-21 13,0 21,12 20,25 -5,65 -10,125 -14,177 0,13 -11,22 -24,21 -1,0 -1,0 -2,0zm2695 510l-1 0c-12,-2 -20,-14 -17,-27l38 -174c2,-13 12,-20 27,-18 12,3 20,15 17,27l-38 175c-3,12 -14,19 -26,17zm-77 350l-1 -1c-12,-2 -20,-14 -17,-27l38 -174c3,-12 14,-18 27,-17 12,2 20,14 18,27l-39 174c-3,12 -14,20 -26,18zm-77 349l-1 0c-12,-3 -20,-15 -17,-27l38 -175c3,-12 13,-18 27,-17 12,3 20,15 17,27l-38 175c-3,12 -14,19 -26,17zm-78 349l-1 0c-12,-3 -20,-15 -17,-27l39 -174c3,-13 14,-20 27,-18 12,3 20,15 17,27l-39 175c-3,12 -14,19 -26,17z"/>
     <path class="fil17" d="M54514 14266l2997 -1933c0,0 463,629 404,1033l-3228 1136c0,0 -170,63 -173,-236z"/>
     <path class="fil21" d="M56905 13108c-159,90 -443,223 -417,386 25,152 -1502,755 -1936,950 50,87 135,58 135,58l3228 -1136c59,-404 -404,-1033 -404,-1033 0,0 98,849 -170,959 -217,-15 -277,-275 -436,-184z"/>
     <path class="fil14" d="M56221 16109l383 -123 111 -1687 -420 -363 260 -108c0,0 -92,-327 -72,-503 20,-176 128,-232 422,-154 158,69 336,590 230,909 -106,319 128,2225 192,2528 64,303 -766,600 -766,600 0,0 -402,103 -585,-309 -183,-412 245,-790 245,-790z"/>
     <path class="fil14" d="M53644 14542c0,0 645,627 610,901 -37,273 -327,557 -1073,728 -264,-9 -639,-750 -651,-913 -79,-1066 815,-863 1114,-716z"/>
     <path class="fil17" d="M52982 15007c0,0 971,-274 1010,-784 38,-511 -798,-674 -1138,-477 -145,84 -208,209 -283,351 -84,159 -203,223 -354,327 -49,33 -98,67 -140,108 -293,290 50,1154 287,1388 327,322 801,212 758,-47 -43,-259 -399,-774 -140,-866z"/>
    </g>
    <g>
     <path class="fil22" d="M69485 48069c-168,512 -872,897 -1716,897 -843,0 -1547,-385 -1715,-897 -25,-73 -38,-150 -39,-227l0 464c0,626 785,1134 1754,1134 970,0 1755,-508 1755,-1134l0 -474c0,81 -13,160 -39,237z"/>
     <path class="fil23" d="M68204 47728c-88,-21 -171,-7 -251,24 28,17 57,34 84,50 50,-9 101,-9 154,4 61,15 213,69 236,158 77,-137 -146,-217 -223,-236z"/>
     <path class="fil23" d="M68548 48109c11,7 22,13 33,20 9,-12 18,-25 25,-37 24,-43 34,-84 32,-122 -4,15 -10,29 -19,43 -20,35 -45,67 -71,96z"/>
     <path class="fil24" d="M68191 47806c-53,-13 -104,-13 -154,-4 117,71 234,141 351,211 7,-8 16,-16 23,-23 7,-9 14,-18 16,-26 -23,-89 -175,-143 -236,-158z"/>
     <path class="fil23" d="M67762 47850c-204,115 -424,235 -654,108 -134,-74 -236,-195 -233,-331 -54,166 60,320 220,409 230,127 450,7 654,-108 134,80 269,162 403,243 27,-12 53,-26 78,-40 -156,-94 -312,-188 -468,-281z"/>
     <path class="fil25" d="M66862 47315l0 -15 126 -84 35 -24c47,28 91,55 137,82 67,-35 139,-65 208,-91l201 108 8 4c-2,2 -5,4 -8,6l0 63 0 12c-12,6 -28,13 -38,17 -34,13 -70,27 -106,41 114,68 226,137 339,204 188,-92 372,-142 593,-53 151,61 347,206 281,385 2,38 -8,79 -32,122 -7,12 -16,25 -25,37 29,18 58,36 88,54 0,0 1,1 2,2 1,0 2,0 2,1l-2 1 -5 75 0 6 -170 109c-35,-21 -69,-42 -103,-62 -92,65 -196,114 -300,156l-210 -113 0 -78 0 -6c19,-4 36,-13 50,-17 69,-24 146,-51 219,-86 -134,-81 -269,-163 -403,-243 -204,115 -424,235 -654,108 -160,-89 -274,-243 -220,-409l0 -1c1,-52 17,-107 55,-162 5,-7 10,-14 15,-20 -21,-13 -43,-25 -64,-38 -12,-8 -13,-8 -19,-18l0 -73zm907 1465c304,0 586,-59 820,-163 390,-170 647,-458 647,-785 0,-524 -657,-948 -1467,-948 -329,0 -632,71 -877,189 -357,172 -589,448 -589,759 0,523 657,948 1466,948z"/>
     <path class="fil23" d="M67082 47663c13,-33 39,-65 75,-92 115,69 229,139 343,207 23,-10 47,-23 72,-37 1,-1 3,-2 5,-3 -136,-81 -272,-163 -407,-244 -65,47 -94,110 -88,169z"/>
     <path class="fil26" d="M68509 48299c-35,-21 -70,-42 -103,-62 -92,64 -196,114 -300,156l-143 -73 -80 -40 0 78 210 113c104,-42 208,-91 300,-156 34,20 68,41 103,62l170 -109 0 -6 5 -75 -64 44 -98 68z"/>
     <path class="fil24" d="M67082 47663c6,63 57,121 154,145 102,26 180,9 264,-30 -114,-68 -228,-138 -343,-207 -36,27 -62,59 -75,92z"/>
     <path class="fil27" d="M66892 47073c245,-118 548,-189 877,-189 810,0 1467,424 1467,948 0,327 -257,615 -647,785 -234,104 -516,163 -820,163 -809,0 -1466,-425 -1466,-948 0,-311 232,-587 589,-759zm877 1893c844,0 1548,-385 1716,-897 26,-77 39,-156 39,-237 0,-627 -785,-1134 -1755,-1134 -969,0 -1754,507 -1754,1134 0,3 0,7 0,10 1,77 14,154 39,227 168,512 872,897 1715,897z"/>
     <path class="fil28" d="M68427 47964c-2,8 -9,17 -16,26 -7,7 -16,15 -23,23 -117,-70 -234,-140 -351,-211 -27,-16 -56,-33 -84,-50 80,-31 163,-45 251,-24 77,19 300,99 223,236zm-855 -223c-25,14 -49,27 -72,37 -84,39 -162,56 -264,30 -97,-24 -148,-82 -154,-145 -6,-59 23,-122 88,-169 135,81 271,163 407,244 -2,1 -4,2 -5,3zm-653 -398c26,15 51,30 77,45 -18,17 -35,36 -51,56 -5,6 -10,13 -15,20 -38,55 -54,110 -55,162l0 1c-3,136 99,257 233,331 230,127 450,7 654,-108 156,93 312,187 468,281 -25,14 -51,28 -78,40 -73,35 -151,62 -219,86 -14,4 -31,13 -50,17l0 6 80 40 143 73c104,-42 208,-92 300,-156 33,20 68,41 103,62l98 -68 64 -44 2 -1c0,-1 -1,-1 -2,-1 -1,-1 -2,-2 -2,-2 -30,-18 -59,-36 -88,-54 -11,-7 -22,-13 -33,-20 26,-29 51,-61 71,-96 9,-14 15,-28 19,-43 66,-179 -130,-324 -281,-385 -221,-89 -405,-39 -593,53 -113,-67 -225,-136 -339,-204 -24,-15 -48,-29 -72,-44 50,-21 100,-40 148,-59 16,-5 29,-11 43,-16 10,-4 18,-8 25,-14 3,-2 6,-4 8,-6l-8 -4 -201 -108c-69,26 -141,56 -208,91 -46,-27 -90,-54 -137,-82l-35 24 -126 84 0 15c10,5 24,8 32,13 8,5 17,10 25,15z"/>
     <path class="fil23" d="M66881 47406c21,13 43,25 64,38 16,-20 33,-39 51,-56 -26,-15 -51,-30 -77,-45 -8,-5 -17,-10 -25,-15 -8,-5 -22,-8 -32,-13l0 73c6,10 7,10 19,18z"/>
     <path class="fil23" d="M67502 47331c-49,19 -99,38 -149,59 24,15 48,29 72,44 36,-14 72,-28 106,-41 10,-4 26,-11 38,-17l0 -12 0 -63c-7,6 -15,10 -25,14 -14,5 -27,11 -42,16z"/>
     <path class="fil29" d="M70144 47067c-169,512 -873,897 -1717,897 -842,0 -1547,-385 -1715,-897 -24,-74 -37,-150 -39,-227l0 463c0,627 786,1135 1754,1135 970,0 1755,-508 1755,-1135l1 -473c0,81 -14,160 -39,237z"/>
     <path class="fil26" d="M68862 46726c-88,-21 -170,-7 -250,24 27,16 56,33 84,50 49,-9 101,-9 153,4 62,15 213,69 237,158 76,-137 -147,-217 -224,-236z"/>
     <path class="fil26" d="M69207 47107c11,7 22,13 33,20 8,-12 17,-25 24,-38 25,-42 35,-83 33,-121 -4,14 -11,28 -20,43 -20,35 -44,66 -70,96z"/>
     <path class="fil25" d="M68849 46804c-52,-13 -104,-13 -153,-4 117,70 234,141 350,211 7,-8 16,-16 23,-24 7,-9 14,-18 17,-25 -24,-89 -175,-143 -237,-158z"/>
     <path class="fil26" d="M68420 46848c-203,115 -424,235 -653,108 -135,-75 -237,-195 -234,-331 -53,166 61,320 221,409 230,127 450,7 654,-108 133,80 268,161 403,243 27,-12 52,-26 78,-40 -156,-94 -313,-188 -469,-281z"/>
     <path class="fil25" d="M67520 46313l0 -15 127 -84 35 -24c46,28 91,55 137,82 67,-35 138,-65 207,-92l201 109 8 4c-2,2 -5,4 -8,6l0 63 0 12c-11,6 -27,13 -37,17 -35,13 -71,27 -106,41 114,68 225,136 339,204 188,-92 372,-142 593,-53 150,61 346,205 281,385 2,38 -8,79 -33,121 -7,13 -16,26 -24,38 28,18 58,36 88,54 0,0 1,1 2,2 1,0 2,0 2,1l-2 0 -5 76 0 6 -171 109c-34,-21 -69,-42 -103,-62 -92,64 -196,114 -300,156l-210 -113 0 -78 0 -7c19,-3 37,-12 51,-16 68,-24 145,-52 219,-86 -135,-82 -270,-163 -403,-243 -204,115 -424,235 -654,108 -160,-89 -274,-243 -221,-409l0 -1c1,-53 18,-107 56,-163 5,-7 9,-13 14,-19 -20,-13 -42,-25 -63,-38 -13,-8 -14,-8 -20,-19l0 -72zm907 1465c305,0 587,-60 821,-163 390,-170 646,-458 646,-785 0,-524 -656,-948 -1467,-948 -328,0 -631,70 -876,188 -358,173 -589,449 -589,760 0,523 656,948 1465,948z"/>
     <path class="fil26" d="M67740 46660c14,-32 40,-64 76,-91 114,69 228,138 343,206 23,-9 47,-22 71,-36 1,-1 3,-2 5,-3 -135,-82 -271,-164 -407,-245 -64,48 -94,111 -88,169z"/>
     <path class="fil26" d="M69167 47296c-34,-21 -69,-41 -103,-61 -92,64 -196,114 -300,155l-142 -72 -81 -40 0 78 210 113c104,-42 208,-92 300,-156 34,20 69,41 103,62l171 -109 0 -6 5 -76 -65 45 -98 67z"/>
     <path class="fil25" d="M67740 46660c7,64 58,121 155,146 101,26 180,9 264,-31 -115,-68 -229,-137 -343,-206 -36,27 -62,59 -76,91z"/>
     <path class="fil26" d="M67551 46070c245,-118 548,-188 876,-188 811,0 1467,424 1467,948 0,327 -256,615 -646,785 -234,103 -516,163 -821,163 -809,0 -1465,-425 -1465,-948 0,-311 231,-587 589,-760zm876 1894c844,0 1548,-385 1717,-897 25,-77 38,-156 38,-237 1,-627 -785,-1134 -1755,-1134 -968,0 -1754,507 -1754,1134 0,3 0,7 0,10 2,77 15,153 39,227 168,512 873,897 1715,897z"/>
     <path class="fil29" d="M69086 46962c-3,7 -10,16 -17,25 -7,8 -16,16 -23,24 -116,-70 -233,-141 -350,-211 -28,-17 -57,-34 -84,-50 80,-31 162,-45 250,-24 77,19 300,99 224,236zm-856 -223c-24,14 -48,27 -71,36 -84,40 -163,57 -264,31 -97,-25 -148,-82 -155,-146 -6,-58 24,-121 88,-169 136,81 272,163 407,245 -2,1 -4,2 -5,3zm-652 -398c25,15 50,30 76,45 -18,17 -35,36 -51,56 -5,6 -9,12 -14,19 -38,56 -55,110 -56,163l0 1c-3,136 99,256 234,331 229,127 450,7 653,-108 156,93 313,187 469,281 -26,14 -51,28 -78,40 -74,34 -151,62 -219,86 -14,4 -32,13 -51,16l0 7 81 40 142 72c104,-41 208,-91 300,-155 34,20 69,40 103,61l98 -67 65 -45 2 0c0,-1 -1,-1 -2,-1 -1,-1 -2,-2 -2,-2 -30,-18 -60,-36 -88,-54 -11,-7 -22,-13 -33,-20 26,-30 50,-61 70,-96 9,-15 16,-29 20,-43 65,-180 -131,-324 -281,-385 -221,-89 -405,-39 -593,53 -114,-68 -225,-136 -339,-204 -24,-15 -49,-29 -73,-44 50,-22 100,-40 149,-59 15,-5 29,-11 42,-16 11,-4 18,-8 25,-14 3,-2 6,-4 8,-6l-8 -4 -201 -109c-69,27 -140,57 -207,92 -46,-27 -91,-54 -137,-82l-35 24 -127 84 0 15c10,5 24,8 33,13 8,5 17,10 25,15z"/>
     <path class="fil26" d="M67540 46404c21,13 43,25 63,38 16,-20 33,-39 51,-56 -26,-15 -51,-30 -76,-45 -8,-5 -17,-10 -25,-15 -9,-5 -23,-8 -33,-13l0 72c6,11 7,11 20,19z"/>
     <path class="fil26" d="M68160 46329c-49,19 -99,37 -149,59 24,15 49,29 73,44 35,-14 71,-28 106,-41 10,-4 26,-11 37,-17l0 -12 0 -63c-7,6 -14,10 -25,14 -13,5 -27,11 -42,16z"/>
    </g>
    <path class="fil30" d="M75970 48953l27 -128 571 -2669c-1150,-895 -1846,-250 -3262,-250 -1416,0 -3665,-922 -3595,250l571 2669 28 128c457,1218 5202,1218 5660,0z"/>
    <path class="fil31" d="M73140 45398c1630,0 3416,-527 3643,-1261 -859,-1608 -6270,-1532 -7287,0 203,717 2013,1261 3644,1261z"/>
    <path class="fil32" d="M77344 43525c0,-1034 -1882,-1872 -4204,-1872 -2322,0 -4205,838 -4205,1872 0,276 134,538 375,774 661,-648 2127,-1099 3830,-1099 1702,0 3169,451 3830,1099 240,-236 374,-498 374,-774z"/>
    <path class="fil33" d="M68935 45073c0,1034 1883,1872 4205,1872 2322,0 4204,-838 4204,-1872l0 -1548c0,-276 -217,490 -457,726 -661,648 -2055,1036 -3758,1036 -1702,0 -3106,-364 -3768,-1012 -240,-236 -280,-491 -426,-750l0 1548z"/>
    <path class="fil34" d="M77112 43478c0,913 -1778,1653 -3972,1653 -2194,0 -3973,-740 -3973,-1653 0,-913 1779,-1653 3973,-1653 2194,0 3972,740 3972,1653zm-3972 -1825c-2322,0 -4205,838 -4205,1872 0,1035 1883,1873 4205,1873 2322,0 4204,-838 4204,-1873 0,-1034 -1882,-1872 -4204,-1872z"/>
    <polygon class="fil35" points="73295,44310 72983,44310 72983,38051 73295,38051 "/>
    <g>
     <path class="fil36" d="M73406 43490c270,-544 780,-1131 1242,-1499 698,-557 1686,-986 2963,-677 0,0 -379,713 -1080,1344 -894,809 -1958,1166 -3125,832z"/>
     <path class="fil36" d="M72852 43587c-1793,0 -3503,-1081 -3908,-2867 0,0 1879,52 3052,1219l0 0c454,450 745,1019 856,1648z"/>
    </g>
    <g>
     <polygon class="fil37" points="77112,36676 75705,36676 75705,36178 77112,36178 "/>
     <polygon class="fil37" points="75773,33441 76125,33794 75129,34788 74777,34436 "/>
     <polygon class="fil37" points="76125,39061 75773,39413 74777,38417 75129,38065 "/>
     <polygon class="fil37" points="73388,33861 72890,33861 72890,32454 73388,32454 "/>
     <polygon class="fil37" points="70505,33441 71500,34436 71148,34788 70153,33794 "/>
     <polygon class="fil37" points="71500,38417 70505,39413 70153,39061 71148,38066 "/>
     <polygon class="fil37" points="70573,36676 69165,36676 69165,36178 70573,36178 "/>
     <g>
      <path class="fil38" d="M73673 36099c-176,-265 -841,-180 -915,155 -60,270 384,323 547,380 196,68 417,209 272,458 -190,324 -628,317 -777,-22 -17,-38 -149,5 -135,36 167,381 671,377 942,106 160,-160 214,-410 8,-553 -110,-75 -259,-101 -384,-140 -90,-29 -209,-51 -278,-118 -254,-249 400,-544 584,-266 25,38 151,-12 136,-36z"/>
      <path class="fil38" d="M73137 35714c23,650 23,1300 0,1950 -2,62 134,37 136,-14 23,-658 22,-1315 -1,-1973 -1,-49 -137,-21 -135,37z"/>
     </g>
    </g>
    <g>
     <path class="fil29" d="M81514 48495c-169,512 -873,897 -1717,897 -843,0 -1547,-385 -1715,-897 -25,-74 -38,-150 -39,-227l0 463c0,627 786,1135 1754,1135 970,0 1755,-508 1755,-1135l0 -473c0,81 -13,160 -38,237z"/>
     <path class="fil26" d="M80232 48154c-88,-21 -170,-7 -251,24 28,17 57,33 85,50 49,-9 101,-9 153,4 62,15 213,69 237,158 76,-137 -147,-217 -224,-236z"/>
     <path class="fil26" d="M80577 48535c11,7 21,13 32,20 9,-12 18,-25 25,-38 25,-42 35,-83 33,-121 -4,15 -11,28 -20,43 -20,35 -45,67 -70,96z"/>
     <path class="fil25" d="M80219 48232c-52,-13 -104,-13 -153,-4 117,71 233,141 350,211 7,-8 16,-16 23,-24 7,-9 14,-18 17,-25 -24,-89 -175,-143 -237,-158z"/>
     <path class="fil26" d="M79790 48276c-204,115 -424,235 -653,108 -135,-75 -237,-195 -234,-331 -54,166 60,320 221,409 229,127 449,7 653,-108 134,80 269,161 403,243 27,-12 53,-26 79,-40 -157,-94 -313,-188 -469,-281z"/>
     <path class="fil25" d="M78890 47741l0 -15 127 -84 34 -24c47,28 91,55 137,82 67,-35 139,-65 208,-92l201 109 8 4c-2,2 -5,4 -8,6l0 63 0 12c-12,6 -28,13 -38,17 -34,13 -70,27 -106,41 114,68 226,137 339,204 188,-92 373,-142 593,-53 151,61 347,205 282,385 2,38 -8,79 -33,121 -7,13 -16,26 -25,38 29,18 59,36 88,53 0,0 1,1 2,3 1,0 2,0 2,1l-2 1 -5 75 0 6 -170 109c-35,-21 -69,-42 -103,-62 -92,65 -196,114 -300,156l-210 -113 0 -78 0 -6c19,-4 37,-13 51,-17 68,-24 145,-52 218,-86 -134,-82 -269,-163 -403,-243 -204,115 -424,235 -653,108 -161,-89 -275,-243 -221,-409l0 -1c1,-53 18,-107 55,-162 5,-8 10,-14 15,-20 -21,-13 -42,-25 -63,-38 -13,-8 -14,-8 -20,-19l0 -72zm907 1465c304,0 586,-60 820,-163 390,-170 647,-458 647,-785 0,-524 -657,-948 -1467,-948 -329,0 -632,71 -876,188 -358,173 -589,449 -589,760 0,523 656,948 1465,948z"/>
     <path class="fil26" d="M79110 48089c14,-33 39,-65 75,-92 115,69 229,138 344,207 22,-10 46,-23 71,-37 1,-1 3,-2 5,-3 -136,-81 -271,-164 -407,-245 -64,48 -94,111 -88,170z"/>
     <path class="fil26" d="M80537 48724c-35,-20 -69,-41 -103,-61 -92,64 -196,114 -300,156l-143 -73 -80 -40 0 78 210 113c104,-42 208,-91 300,-156 34,20 68,41 103,62l170 -109 0 -6 5 -75 -64 44 -98 67z"/>
     <path class="fil25" d="M79110 48089c7,63 57,121 154,145 102,26 180,9 265,-30 -115,-69 -229,-138 -344,-207 -36,27 -61,59 -75,92z"/>
     <path class="fil26" d="M78921 47498c244,-117 547,-188 876,-188 810,0 1467,424 1467,948 0,327 -257,615 -647,785 -234,103 -516,163 -820,163 -809,0 -1465,-425 -1465,-948 0,-311 231,-587 589,-760zm876 1894c844,0 1548,-385 1717,-897 25,-77 38,-156 38,-237 0,-627 -785,-1134 -1755,-1134 -968,0 -1754,507 -1754,1134 0,3 0,7 0,10 1,77 14,153 39,227 168,512 872,897 1715,897z"/>
     <path class="fil29" d="M80456 48390c-3,7 -10,16 -17,25 -7,8 -16,16 -23,24 -117,-70 -233,-140 -350,-211 -28,-17 -57,-33 -85,-50 81,-31 163,-45 251,-24 77,19 300,99 224,236zm-856 -223c-25,14 -49,27 -71,37 -85,39 -163,56 -265,30 -97,-25 -147,-82 -154,-145 -6,-59 24,-122 88,-170 136,81 271,164 407,245 -2,1 -4,2 -5,3zm-653 -398c26,15 51,30 77,45 -18,17 -35,36 -51,56 -5,6 -10,12 -15,20 -37,55 -54,109 -55,162l0 1c-3,136 99,256 234,331 229,127 449,7 653,-108 156,93 312,187 469,281 -26,14 -52,28 -79,40 -73,34 -150,62 -218,86 -14,4 -32,13 -51,17l0 6 80 40 143 73c104,-42 208,-92 300,-156 34,20 68,41 103,61l98 -67 64 -44 2 -1c0,-1 -1,-1 -2,-1 -1,-2 -2,-3 -2,-3 -29,-17 -59,-35 -88,-53 -11,-7 -21,-13 -33,-20 26,-29 51,-61 71,-96 9,-15 16,-28 20,-43 65,-180 -131,-324 -282,-385 -220,-89 -405,-39 -593,53 -113,-67 -225,-136 -339,-204 -23,-15 -48,-29 -72,-44 50,-22 100,-40 149,-59 15,-5 28,-11 42,-16 10,-4 18,-8 25,-14 3,-2 6,-4 8,-6l-8 -4 -201 -109c-69,27 -141,57 -208,92 -46,-27 -90,-54 -137,-82l-34 24 -127 84 0 15c10,5 24,8 33,13 8,5 16,10 24,15z"/>
     <path class="fil26" d="M78910 47832c21,13 42,25 63,38 16,-20 33,-39 51,-56 -26,-15 -51,-30 -77,-45 -8,-5 -16,-10 -24,-15 -9,-5 -23,-8 -33,-13l0 72c6,11 7,11 20,19z"/>
     <path class="fil26" d="M79530 47757c-49,19 -99,37 -149,59 24,15 49,29 72,44 36,-14 72,-28 106,-41 10,-4 26,-11 38,-17l0 -12 0 -63c-7,6 -15,10 -25,14 -14,5 -27,11 -42,16z"/>
     <path class="fil29" d="M83046 47200c-169,512 -873,898 -1717,898 -843,0 -1547,-386 -1715,-898 -25,-73 -38,-149 -39,-226l0 463c0,627 786,1135 1754,1135 970,0 1755,-508 1755,-1135l0 -473c0,81 -13,160 -38,236z"/>
     <path class="fil26" d="M81764 46860c-88,-21 -170,-7 -251,23 28,17 57,34 85,51 49,-9 101,-9 153,4 62,15 213,68 237,158 76,-137 -147,-217 -224,-236z"/>
     <path class="fil26" d="M82109 47241c11,7 21,13 32,20 9,-12 18,-25 25,-38 25,-43 35,-83 33,-122 -4,15 -11,29 -20,44 -20,35 -45,66 -70,96z"/>
     <path class="fil25" d="M81751 46938c-52,-13 -104,-13 -153,-4 117,70 233,141 350,211 7,-8 16,-16 23,-24 7,-9 14,-18 17,-25 -24,-90 -175,-143 -237,-158z"/>
     <path class="fil26" d="M81322 46981c-204,115 -423,235 -653,108 -135,-74 -237,-195 -234,-330 -54,166 60,319 221,409 230,126 450,7 654,-108 133,80 268,161 402,242 27,-11 53,-25 79,-39 -157,-94 -313,-188 -469,-282z"/>
     <path class="fil25" d="M80422 46447l0 -15 127 -84 35 -24c46,27 91,54 136,82 67,-35 139,-65 208,-92l201 109 8 4c-2,2 -5,4 -8,6l0 62 0 13c-12,6 -28,13 -37,17 -35,13 -71,27 -106,41 113,68 225,136 338,204 188,-93 373,-142 593,-53 151,60 347,205 282,384 2,39 -8,80 -33,122 -7,13 -16,26 -25,38 29,18 59,35 88,53 0,0 1,1 2,2 1,0 2,0 2,1l-2 1 -4 75 0 7 -171 108c-35,-20 -69,-41 -103,-61 -92,64 -196,114 -300,155l-210 -112 0 -79 0 -6c19,-4 37,-13 51,-17 68,-23 145,-51 218,-86 -134,-81 -269,-162 -402,-242 -204,115 -425,234 -654,108 -161,-90 -275,-243 -221,-409l0 -1c1,-53 18,-107 55,-163 5,-7 10,-14 15,-20 -20,-12 -42,-24 -63,-37 -13,-8 -14,-8 -20,-19l0 -72zm907 1465c304,0 587,-60 820,-163 391,-170 647,-458 647,-785 0,-524 -656,-948 -1467,-948 -329,0 -632,70 -876,188 -358,172 -589,449 -589,760 0,522 656,948 1465,948z"/>
     <path class="fil23" d="M80642 46794c14,-32 40,-64 75,-91 115,69 229,138 344,206 23,-10 47,-23 71,-37 1,-1 3,-2 5,-2 -136,-82 -271,-164 -407,-245 -64,48 -94,111 -88,169z"/>
     <path class="fil26" d="M82069 47430c-35,-21 -69,-42 -103,-61 -92,64 -196,113 -300,155l-143 -72 -80 -41 0 79 210 112c104,-41 208,-91 300,-155 34,20 68,41 103,61l171 -108 0 -7 4 -75 -64 45 -98 67z"/>
     <path class="fil24" d="M80642 46794c7,64 58,121 154,146 103,26 181,9 265,-31 -115,-68 -229,-137 -344,-206 -35,27 -61,59 -75,91z"/>
     <path class="fil26" d="M80453 46204c244,-118 547,-188 876,-188 811,0 1467,424 1467,948 0,327 -256,615 -647,785 -233,103 -516,163 -820,163 -809,0 -1465,-426 -1465,-948 0,-311 231,-588 589,-760zm876 1894c844,0 1548,-386 1717,-898 25,-76 38,-155 38,-236 0,-627 -785,-1134 -1755,-1134 -968,0 -1754,507 -1754,1134 0,3 0,7 0,10 1,77 14,153 39,226 168,512 872,898 1715,898z"/>
     <path class="fil29" d="M81988 47096c-3,7 -10,16 -17,25 -7,8 -16,16 -23,24 -117,-70 -233,-141 -350,-211 -28,-17 -57,-34 -85,-51 81,-30 163,-44 251,-23 77,19 300,99 224,236zm-856 -224c-24,14 -48,27 -71,37 -84,40 -162,57 -265,31 -96,-25 -147,-82 -154,-146 -6,-58 24,-121 88,-169 136,81 271,163 407,245 -2,0 -4,1 -5,2zm-652 -397c25,14 50,30 76,45 -18,17 -35,36 -51,55 -5,6 -10,13 -15,20 -37,56 -54,110 -55,163l0 1c-3,135 99,256 234,330 230,127 449,7 653,-107 156,93 312,187 469,281 -26,14 -52,28 -79,39 -73,35 -150,63 -218,86 -14,4 -32,13 -51,17l0 6 80 41 143 72c104,-42 208,-91 300,-155 34,19 68,40 103,61l98 -67 64 -45 3 -1c0,-1 -2,-1 -3,-1 -1,-1 -2,-2 -2,-2 -29,-18 -59,-35 -88,-53 -11,-7 -21,-13 -32,-20 25,-30 50,-61 70,-96 9,-15 16,-29 20,-44 65,-179 -131,-324 -282,-384 -220,-89 -405,-40 -593,53 -113,-68 -225,-136 -338,-204 -24,-15 -49,-29 -73,-44 50,-22 100,-41 149,-60 15,-4 29,-10 42,-15 10,-4 18,-8 25,-14 3,-2 6,-4 8,-6l-8 -4 -201 -109c-69,27 -141,57 -208,92 -45,-28 -90,-55 -136,-82l-35 24 -127 84 0 15c10,5 24,8 33,13 8,4 17,9 25,15z"/>
     <path class="fil23" d="M80442 46538c21,13 43,25 63,37 16,-19 33,-38 51,-55 -26,-15 -51,-31 -76,-45 -8,-6 -17,-11 -25,-15 -9,-5 -23,-8 -33,-13l0 72c6,11 7,11 20,19z"/>
     <path class="fil23" d="M81062 46462c-49,19 -99,38 -149,60 24,15 49,29 73,44 35,-14 71,-28 106,-41 9,-4 25,-11 37,-17l0 -13 0 -62c-7,6 -15,10 -25,14 -13,5 -27,11 -42,15z"/>
     <path class="fil29" d="M81970 46044c-168,512 -872,897 -1716,897 -843,0 -1547,-385 -1715,-897 -25,-74 -38,-150 -39,-227l0 463c0,627 786,1135 1754,1135 970,0 1755,-508 1755,-1135l0 -473c0,81 -13,160 -39,237z"/>
     <path class="fil26" d="M80689 45703c-88,-21 -171,-7 -251,24 28,17 57,33 85,50 49,-9 101,-9 153,4 62,15 213,68 237,158 76,-137 -147,-217 -224,-236z"/>
     <path class="fil26" d="M81033 46084c12,7 22,13 33,20 9,-12 18,-25 25,-38 25,-42 35,-83 33,-121 -4,14 -11,28 -20,43 -20,35 -45,66 -71,96z"/>
     <path class="fil25" d="M80676 45781c-52,-13 -104,-13 -153,-4 116,71 233,141 350,211 7,-8 16,-16 23,-24 7,-9 14,-18 17,-25 -24,-90 -175,-143 -237,-158z"/>
     <path class="fil26" d="M80247 45825c-204,114 -424,235 -653,108 -135,-75 -237,-196 -234,-331 -54,166 60,320 221,409 229,126 449,7 653,-108 134,80 269,161 403,243 27,-12 53,-26 79,-40 -157,-94 -313,-188 -469,-281z"/>
     <path class="fil25" d="M79347 45290l0 -15 127 -84 34 -24c47,28 91,55 137,82 67,-35 139,-65 208,-92l201 109 8 4c-2,2 -5,4 -8,6l0 62 0 13c-12,6 -28,13 -38,17 -34,13 -70,27 -106,41 114,68 226,136 339,204 188,-92 373,-142 593,-53 151,61 347,205 282,385 2,38 -8,79 -33,121 -7,13 -16,26 -25,38 29,18 59,36 88,53 0,0 1,1 2,2 1,0 2,0 2,1l-2 1 -5 76 0 6 -170 108c-35,-20 -69,-41 -103,-61 -92,64 -196,114 -300,156l-210 -113 0 -78 0 -6c19,-5 36,-13 50,-17 69,-24 146,-52 219,-86 -134,-82 -269,-163 -403,-243 -204,115 -424,235 -653,108 -161,-89 -275,-243 -221,-409l0 -1c1,-53 18,-107 55,-163 5,-7 10,-13 15,-19 -21,-13 -43,-25 -63,-38 -13,-8 -14,-8 -20,-19l0 -72zm907 1465c304,0 586,-60 820,-163 390,-170 647,-458 647,-785 0,-524 -657,-948 -1467,-948 -329,0 -632,70 -876,188 -358,173 -590,449 -590,760 0,523 657,948 1466,948z"/>
     <path class="fil26" d="M79567 45637c14,-32 39,-64 75,-91 115,69 229,138 344,206 22,-10 46,-23 71,-36 1,-2 3,-2 5,-3 -136,-81 -272,-164 -407,-245 -64,48 -94,111 -88,169z"/>
     <path class="fil26" d="M80994 46273c-35,-20 -69,-41 -103,-61 -92,64 -196,114 -300,155l-143 -72 -80 -40 0 78 210 113c104,-42 208,-91 300,-156 34,20 68,41 103,62l170 -109 0 -6 5 -76 -64 45 -98 67z"/>
     <path class="fil25" d="M79567 45637c7,64 57,121 154,146 102,26 180,9 265,-31 -115,-68 -229,-137 -344,-206 -36,27 -61,59 -75,91z"/>
     <path class="fil26" d="M79378 45047c244,-118 547,-188 876,-188 810,0 1467,424 1467,948 0,327 -257,615 -647,785 -234,103 -516,163 -820,163 -809,0 -1466,-425 -1466,-948 0,-311 232,-587 590,-760zm876 1894c844,0 1548,-385 1716,-897 26,-77 39,-156 39,-237 0,-627 -785,-1134 -1755,-1134 -968,0 -1754,507 -1754,1134 0,3 0,7 0,10 1,77 14,153 39,227 168,512 872,897 1715,897z"/>
     <path class="fil29" d="M80913 45939c-3,7 -10,16 -17,25 -7,8 -16,16 -23,24 -117,-70 -234,-140 -350,-211 -28,-17 -57,-33 -85,-50 80,-31 163,-45 251,-24 77,19 300,99 224,236zm-856 -223c-25,13 -49,26 -71,36 -85,40 -163,57 -265,31 -97,-25 -147,-82 -154,-146 -6,-58 24,-121 88,-169 135,81 271,164 407,245 -2,1 -4,2 -5,3zm-653 -398c26,14 51,30 77,45 -18,17 -35,36 -51,56 -5,6 -10,12 -15,19 -37,56 -54,110 -55,163l0 1c-3,135 99,256 234,331 229,127 449,6 653,-108 156,93 312,187 469,281 -26,14 -52,28 -79,40 -73,34 -150,62 -219,86 -14,4 -31,12 -50,17l0 6 80 40 143 72c104,-41 208,-91 300,-155 34,20 68,41 103,61l98 -67 64 -45 2 -1c0,-1 -1,-1 -2,-1 -1,-1 -2,-2 -2,-2 -29,-17 -59,-35 -88,-53 -11,-7 -21,-13 -33,-20 26,-30 51,-61 71,-96 9,-15 16,-29 20,-43 65,-180 -131,-324 -282,-385 -220,-89 -405,-39 -593,53 -113,-68 -225,-136 -339,-204 -23,-15 -48,-29 -72,-44 50,-22 100,-40 149,-59 15,-5 28,-11 42,-16 10,-4 18,-8 25,-14 3,-2 6,-4 8,-6l-8 -4 -201 -109c-69,27 -141,57 -208,92 -46,-27 -90,-54 -137,-82l-34 24 -127 84 0 15c10,5 24,8 33,13 7,5 16,10 24,15z"/>
     <path class="fil26" d="M79367 45381c20,13 42,25 63,38 16,-20 33,-39 51,-56 -26,-15 -51,-31 -77,-45 -8,-5 -17,-10 -24,-15 -9,-5 -23,-8 -33,-13l0 72c6,11 7,11 20,19z"/>
     <path class="fil26" d="M79987 45306c-49,18 -99,37 -149,59 24,15 49,29 72,44 36,-14 72,-28 106,-41 10,-4 26,-11 38,-17l0 -13 0 -62c-7,6 -15,10 -25,14 -14,5 -27,11 -42,16z"/>
    </g>
    <g>
     <path class="fil29" d="M77620 50199c-154,467 -795,818 -1565,818 -768,0 -1410,-351 -1564,-818 -22,-67 -34,-137 -35,-207l0 423c0,571 716,1034 1599,1034 884,0 1600,-463 1600,-1034l0 -432c0,74 -11,146 -35,216z"/>
     <path class="fil26" d="M76452 49888c-81,-19 -156,-6 -229,22 26,15 52,31 77,46 45,-8 92,-8 140,4 56,13 194,62 216,143 69,-125 -134,-198 -204,-215z"/>
     <path class="fil26" d="M76766 50236c10,6 20,11 30,18 8,-11 16,-23 22,-34 23,-39 32,-76 30,-111 -4,13 -10,26 -18,39 -18,32 -41,61 -64,88z"/>
     <path class="fil25" d="M76440 49960c-48,-12 -95,-12 -140,-4 106,64 213,128 320,192 6,-7 14,-14 20,-21 7,-9 13,-17 16,-24 -22,-81 -160,-130 -216,-143z"/>
     <path class="fil26" d="M76049 49999c-186,105 -387,214 -596,99 -123,-68 -216,-178 -213,-302 -49,152 55,292 201,373 210,116 410,6 596,-98 122,73 245,147 368,221 24,-11 48,-24 71,-36 -143,-86 -285,-172 -427,-257z"/>
     <path class="fil25" d="M75228 49512l0 -14 116 -77 31 -21c43,25 84,49 125,75 61,-33 126,-60 190,-84l183 99 7 4c-2,2 -4,3 -7,5l0 57 0 12c-11,5 -25,11 -34,15 -32,12 -64,25 -97,37 104,62 206,125 309,186 171,-84 339,-129 541,-48 137,55 316,187 256,351 2,35 -7,72 -30,111 -6,11 -14,23 -22,34 26,16 53,32 80,49 0,0 1,1 2,2 1,0 2,0 2,0l-2 1 -5 69 0 5 -155 100c-32,-19 -63,-38 -94,-56 -84,59 -179,104 -273,142l-192 -103 0 -72 0 -5c17,-4 33,-12 46,-16 62,-21 133,-46 200,-78 -123,-74 -246,-148 -368,-221 -186,104 -386,214 -596,98 -146,-81 -250,-221 -201,-373l0 -1c1,-48 16,-97 50,-148 5,-6 9,-12 14,-18 -19,-12 -39,-22 -58,-34 -11,-7 -12,-7 -18,-17l0 -66zm827 1335c277,0 535,-54 748,-148 356,-155 589,-418 589,-716 0,-478 -598,-864 -1337,-864 -299,0 -576,64 -799,172 -326,157 -537,409 -537,692 0,477 599,864 1336,864z"/>
     <path class="fil26" d="M75429 49829c12,-30 36,-59 68,-83 105,62 209,125 314,187 20,-8 42,-20 65,-33 0,-1 2,-2 4,-3 -124,-74 -247,-149 -371,-223 -59,44 -86,101 -80,155z"/>
     <path class="fil26" d="M76730 50408c-32,-19 -63,-38 -94,-55 -84,58 -179,103 -274,141l-130 -66 -73 -37 0 72 192 103c94,-38 189,-83 273,-142 31,18 62,37 94,56l155 -100 0 -5 5 -69 -59 41 -89 61z"/>
     <path class="fil25" d="M75429 49829c6,57 52,110 140,132 93,24 165,9 242,-28 -105,-62 -209,-125 -314,-187 -32,24 -56,53 -68,83z"/>
     <path class="fil26" d="M75256 49291c223,-108 500,-172 799,-172 739,0 1337,386 1337,864 0,298 -233,561 -589,716 -213,94 -471,148 -748,148 -737,0 -1336,-387 -1336,-864 0,-283 211,-535 537,-692zm799 1726c770,0 1411,-351 1565,-818 24,-70 35,-142 35,-216 0,-571 -716,-1034 -1600,-1034 -883,0 -1599,463 -1599,1034 0,3 0,6 0,9 1,70 13,140 35,207 154,467 796,818 1564,818z"/>
     <path class="fil29" d="M76656 50103c-3,7 -9,15 -16,24 -6,7 -14,14 -20,21 -107,-64 -214,-128 -320,-192 -25,-15 -51,-31 -77,-46 73,-28 148,-41 229,-22 70,17 273,90 204,215zm-780 -203c-23,13 -45,25 -65,33 -77,37 -149,52 -242,28 -88,-22 -134,-75 -140,-132 -6,-54 21,-111 80,-155 124,74 247,149 371,223 -2,1 -4,2 -4,3zm-595 -363c23,14 46,28 69,42 -16,15 -31,32 -46,50 -5,6 -9,12 -14,18 -34,51 -49,100 -50,148l0 1c-3,124 90,234 213,302 209,115 410,6 596,-99 142,85 284,171 427,257 -23,12 -47,25 -71,36 -67,32 -138,57 -200,78 -13,4 -29,12 -46,16l0 5 73 37 130 66c95,-38 190,-83 274,-141 31,17 62,36 94,55l89 -61 59 -41 2 -1c0,0 -1,0 -2,0 -1,-1 -2,-2 -2,-2 -27,-17 -54,-33 -80,-49 -10,-7 -20,-12 -30,-18 23,-27 46,-56 64,-88 8,-13 14,-26 18,-39 60,-164 -119,-296 -256,-351 -202,-81 -370,-36 -541,48 -103,-61 -205,-124 -309,-186 -22,-13 -44,-26 -66,-40 45,-19 91,-37 135,-54 14,-4 27,-10 39,-14 9,-4 17,-7 23,-13 3,-2 5,-3 7,-5l-7 -4 -183 -99c-64,24 -129,51 -190,84 -41,-26 -82,-50 -125,-75l-31 21 -116 77 0 14c9,4 22,7 30,11 7,5 15,10 23,14z"/>
     <path class="fil26" d="M75246 49595c19,12 39,22 58,34 15,-18 30,-35 46,-50 -23,-14 -46,-28 -69,-42 -8,-4 -16,-9 -23,-14 -8,-4 -21,-7 -30,-11l0 66c6,10 7,10 18,17z"/>
     <path class="fil26" d="M75811 49526c-44,17 -90,35 -135,54 22,14 44,27 66,40 33,-12 65,-25 97,-37 9,-4 23,-10 34,-15l0 -12 0 -57c-6,6 -14,9 -23,13 -12,4 -25,10 -39,14z"/>
    </g>
    <g>
     <path class="fil29" d="M91202 50772c-154,467 -795,818 -1565,818 -768,0 -1410,-351 -1564,-818 -22,-67 -34,-137 -35,-207l0 423c0,571 716,1034 1599,1034 884,0 1600,-463 1600,-1034l0 -432c0,74 -12,146 -35,216z"/>
     <path class="fil26" d="M90034 50461c-81,-19 -156,-6 -229,22 25,15 52,31 77,46 45,-8 92,-8 140,4 56,13 194,62 216,143 69,-125 -134,-198 -204,-215z"/>
     <path class="fil26" d="M90348 50809c10,6 20,11 30,18 8,-11 16,-23 22,-34 23,-39 32,-76 30,-111 -4,13 -10,26 -18,39 -18,32 -41,61 -64,88z"/>
     <path class="fil25" d="M90022 50533c-48,-12 -95,-12 -140,-4 106,64 213,128 320,192 6,-7 14,-14 20,-21 7,-9 13,-17 16,-24 -22,-81 -160,-130 -216,-143z"/>
     <path class="fil26" d="M89631 50572c-186,105 -387,214 -596,99 -123,-68 -216,-178 -213,-302 -49,152 55,292 201,373 210,116 410,6 596,-98 122,73 245,147 368,221 24,-11 48,-24 71,-36 -143,-86 -285,-172 -427,-257z"/>
     <path class="fil25" d="M88810 50085l0 -14 116 -77 31 -21c43,25 83,49 125,75 61,-33 126,-60 190,-84l183 99 7 4c-2,2 -4,3 -7,5l0 57 0 12c-11,5 -25,11 -34,15 -32,12 -64,25 -97,37 104,62 206,125 309,186 171,-84 339,-129 541,-48 137,55 316,187 256,351 2,35 -7,72 -30,111 -6,11 -14,23 -22,34 26,16 53,32 80,49 0,0 1,1 2,2 1,0 2,0 2,0l-2 1 -5 69 0 5 -155 100c-32,-19 -63,-38 -94,-56 -84,59 -179,104 -274,142l-191 -103 0 -72 0 -5c17,-4 33,-12 46,-16 62,-21 133,-46 200,-78 -123,-74 -246,-148 -368,-221 -186,104 -386,214 -596,98 -146,-81 -250,-221 -201,-373l0 -1c1,-48 16,-97 50,-148 5,-6 9,-12 14,-18 -19,-12 -39,-22 -58,-34 -12,-7 -12,-7 -18,-17l0 -66zm827 1335c277,0 535,-54 748,-148 356,-155 589,-418 589,-716 0,-478 -598,-864 -1337,-864 -299,0 -576,64 -799,172 -326,157 -537,409 -537,692 0,477 599,864 1336,864z"/>
     <path class="fil26" d="M89011 50402c12,-30 36,-59 68,-83 105,62 209,125 314,187 20,-8 42,-20 65,-33 0,-1 2,-2 4,-3 -124,-74 -247,-149 -371,-223 -59,44 -86,102 -80,155z"/>
     <path class="fil26" d="M90312 50981c-32,-19 -63,-38 -94,-55 -84,58 -179,103 -274,141l-130 -66 -73 -37 0 72 191 103c95,-38 190,-83 274,-142 31,18 62,37 94,56l155 -100 0 -5 5 -69 -59 41 -89 61z"/>
     <path class="fil25" d="M89011 50402c6,57 52,110 140,132 93,24 165,9 242,-28 -105,-62 -209,-125 -314,-187 -32,24 -56,53 -68,83z"/>
     <path class="fil26" d="M88838 49864c223,-108 500,-172 799,-172 739,0 1337,386 1337,864 0,298 -233,561 -589,716 -213,94 -471,148 -748,148 -737,0 -1336,-387 -1336,-864 0,-283 211,-535 537,-692zm799 1726c770,0 1411,-351 1565,-818 23,-70 35,-142 35,-216 0,-571 -716,-1034 -1600,-1034 -883,0 -1599,463 -1599,1034 0,3 0,6 0,9 1,70 13,140 35,207 154,467 796,818 1564,818z"/>
     <path class="fil29" d="M90238 50676c-3,7 -9,15 -16,24 -6,7 -14,14 -20,21 -107,-64 -214,-128 -320,-192 -25,-15 -52,-31 -77,-46 73,-28 148,-41 229,-22 70,17 273,90 204,215zm-780 -203c-23,13 -45,25 -65,33 -77,37 -149,52 -242,28 -88,-22 -134,-75 -140,-132 -6,-53 21,-111 80,-155 124,74 247,149 371,223 -2,1 -4,2 -4,3zm-595 -363c23,14 46,28 69,42 -16,15 -31,32 -46,50 -5,6 -9,12 -14,18 -34,51 -49,100 -50,148l0 1c-3,124 90,234 213,302 209,115 410,6 596,-99 142,85 284,171 427,257 -23,12 -47,25 -71,36 -67,32 -138,57 -200,78 -13,4 -29,12 -46,16l0 5 73 37 130 66c95,-38 190,-83 274,-141 31,17 62,36 94,55l89 -61 59 -41 2 -1c0,0 -1,0 -2,0 -1,-1 -2,-2 -2,-2 -27,-17 -54,-33 -80,-49 -10,-7 -20,-12 -30,-18 23,-27 46,-56 64,-88 8,-13 14,-26 18,-39 60,-164 -119,-296 -256,-351 -202,-81 -370,-36 -541,48 -103,-61 -205,-124 -309,-186 -22,-13 -44,-26 -66,-40 45,-19 91,-37 135,-54 14,-4 27,-10 39,-14 9,-4 17,-7 23,-13 3,-2 5,-3 7,-5l-7 -4 -183 -99c-64,24 -129,51 -190,84 -42,-26 -82,-50 -125,-75l-31 21 -116 77 0 14c9,4 22,7 30,11 7,5 15,10 23,14z"/>
     <path class="fil26" d="M88828 50168c19,12 39,22 58,34 15,-18 30,-35 46,-50 -23,-14 -46,-28 -69,-42 -8,-4 -16,-9 -23,-14 -8,-4 -21,-7 -30,-11l0 66c6,10 6,10 18,17z"/>
     <path class="fil26" d="M89393 50099c-44,17 -90,35 -135,54 22,14 44,27 66,40 33,-12 65,-25 97,-37 9,-4 23,-10 34,-15l0 -12 0 -57c-6,6 -14,9 -23,13 -12,4 -25,10 -39,14z"/>
    </g>
    <g>
     <path class="fil29" d="M74005 38316c-575,120 -1323,-335 -1783,-1131 -460,-796 -480,-1671 -88,-2109 55,-64 322,-203 395,-247l-96 33c-445,174 -853,431 -978,928 -116,463 -13,1079 319,1653 421,730 1083,1173 1634,1150 328,-14 657,-220 911,-415l58 -46c-76,44 -286,167 -372,184z"/>
     <path class="fil26" d="M73628 36920c-28,-94 -86,-164 -159,-224 -1,36 -1,72 -2,108 35,41 63,90 80,147 19,66 52,238 -20,309 171,-2 125,-257 101,-340z"/>
     <path class="fil26" d="M73456 37453c-1,14 0,28 -1,42 16,2 33,4 49,3 54,0 97,-12 133,-36 -16,5 -33,6 -52,6 -44,0 -87,-6 -129,-15z"/>
     <path class="fil25" d="M73547 36951c-17,-57 -45,-106 -80,-147 -3,148 -5,297 -8,446 11,2 24,6 35,8 12,2 24,3 33,2 72,-71 39,-243 20,-309z"/>
     <path class="fil26" d="M73272 36570c-219,-131 -453,-273 -458,-559 -4,-168 55,-330 185,-401 -187,40 -269,231 -266,431 5,287 238,429 458,559 -3,170 -6,341 -9,513 25,19 53,35 80,52 4,-199 7,-398 10,-595z"/>
     <path class="fil25" d="M73286 35428l14 -8 149 73 41 20c-1,59 -1,116 -3,174 71,44 138,95 200,146l7 249 1 10c-3,-1 -7,-2 -10,-4l-59 34 -12 7c-12,-8 -27,-19 -37,-26 -31,-26 -63,-52 -96,-78 -2,144 -6,288 -8,431 190,127 337,274 373,531 25,175 -4,439 -209,475 -36,24 -79,36 -133,36 -16,1 -33,-1 -49,-3 -1,37 -2,75 -3,113 0,0 0,1 -1,3 1,0 2,1 1,2l-2 -1 -74 36 -6 3 -195 -101c0,-44 1,-88 2,-131 -112,-52 -215,-123 -311,-199l-8 -259 74 -43 6 -3c14,15 32,27 43,38 60,52 128,110 201,160 3,-172 6,-343 9,-513 -220,-130 -453,-272 -458,-559 -3,-200 79,-391 266,-431l1 -1c50,-27 110,-41 183,-36 10,1 19,2 27,3 1,-26 0,-53 1,-80 0,-16 0,-17 7,-29l68 -39zm-888 1655c165,287 375,521 600,686 374,275 786,361 1094,182 495,-285 537,-1136 96,-1901 -180,-311 -411,-559 -656,-726 -358,-243 -745,-312 -1039,-142 -493,285 -537,1137 -95,1901z"/>
     <path class="fil26" d="M73078 35825c38,-5 82,2 127,21 -2,146 -5,291 -7,437 21,16 46,32 73,48 2,0 4,1 6,3 2,-173 6,-346 9,-518 -80,-35 -156,-29 -208,9z"/>
     <path class="fil26" d="M73256 37519c0,-44 1,-88 1,-130 -111,-52 -214,-124 -310,-199l-10 -174 -5 -98 -74 43 8 259c96,76 199,147 311,199 -1,43 -2,87 -2,131l195 101 6 -3 74 -36 -77 -37 -117 -56z"/>
     <path class="fil25" d="M73078 35825c-56,41 -83,120 -53,225 31,111 89,175 173,233 2,-146 5,-291 7,-437 -45,-19 -89,-26 -127,-21z"/>
     <path class="fil26" d="M73532 35324c245,167 476,415 656,726 441,765 399,1616 -96,1901 -308,179 -720,93 -1094,-182 -225,-165 -435,-399 -600,-686 -442,-764 -398,-1616 95,-1901 294,-170 681,-101 1039,142zm-1310 1861c460,796 1208,1251 1783,1131 86,-17 168,-48 244,-92 592,-342 643,-1360 115,-2276 -529,-915 -1436,-1380 -2028,-1038 -2,1 -6,4 -9,5 -72,43 -138,97 -193,161 -392,438 -372,1313 88,2109z"/>
     <path class="fil29" d="M73527 37260c-9,1 -21,0 -33,-2 -11,-2 -24,-6 -35,-8 3,-149 5,-298 8,-446 1,-36 1,-72 2,-108 73,60 131,130 159,224 24,83 70,338 -101,340zm-256 -929c-27,-16 -52,-32 -73,-48 -84,-58 -142,-122 -173,-233 -30,-105 -3,-184 53,-225 52,-38 128,-44 208,-9 -3,172 -7,345 -9,518 -2,-2 -4,-3 -6,-3zm20 -834c0,32 -1,64 -1,97 -26,-8 -53,-13 -80,-18 -8,-1 -17,-2 -27,-3 -73,-5 -133,9 -183,36l-1 1c-130,71 -189,233 -185,401 5,286 239,428 458,559 -3,197 -6,396 -10,595 -27,-17 -55,-33 -80,-52 -73,-50 -141,-108 -201,-160 -11,-11 -29,-23 -43,-38l-6 3 5 98 10 174c96,75 199,147 310,199 0,42 -1,86 -1,130l117 56 77 37 2 1c1,-1 0,-2 -1,-2 1,-2 1,-3 1,-3 1,-38 2,-76 3,-113 1,-14 0,-28 1,-42 42,9 85,15 129,15 19,0 36,-1 52,-6 205,-36 234,-300 209,-475 -36,-257 -183,-404 -373,-531 2,-143 6,-287 8,-431 1,-31 1,-62 2,-92 48,35 93,72 137,108 13,11 26,21 38,31 9,7 17,13 27,16 3,2 7,3 10,4l-1 -10 -7 -249c-62,-51 -129,-102 -200,-146 2,-58 2,-115 3,-174l-41 -20 -149 -73 -14 8c1,12 6,27 6,38 0,10 0,21 -1,31z"/>
     <path class="fil26" d="M73211 35496c-1,27 0,54 -1,80 27,5 54,10 80,18 0,-33 1,-65 1,-97 1,-10 1,-21 1,-31 0,-11 -5,-26 -6,-38l-68 39c-7,12 -7,13 -7,29z"/>
     <path class="fil26" d="M73620 36041c-44,-36 -89,-73 -137,-108 -1,30 -1,61 -2,92 33,26 65,52 96,78 10,7 25,18 37,26l12 -7 59 -34c-10,-3 -18,-9 -27,-16 -12,-10 -25,-20 -38,-31z"/>
    </g>
    <g>
     <path class="fil29" d="M7687 49329c-168,512 -872,897 -1716,897 -843,0 -1547,-385 -1715,-897 -25,-73 -38,-150 -39,-227l0 463c0,627 785,1136 1754,1136 970,0 1755,-509 1755,-1136l0 -473c0,81 -13,161 -39,237z"/>
     <path class="fil26" d="M6406 48988c-88,-20 -170,-7 -251,24 28,17 57,34 84,51 50,-9 101,-9 154,3 62,15 213,69 237,158 76,-137 -147,-217 -224,-236z"/>
     <path class="fil26" d="M6751 49369c10,7 21,13 32,20 9,-12 18,-25 25,-37 25,-43 35,-83 33,-122 -4,15 -11,29 -20,43 -20,35 -45,67 -70,96z"/>
     <path class="fil25" d="M6393 49066c-53,-12 -104,-12 -154,-3 117,70 234,140 351,210 7,-7 16,-16 23,-23 7,-9 14,-18 17,-26 -24,-89 -176,-143 -237,-158z"/>
     <path class="fil26" d="M5964 49110c-204,115 -424,235 -653,108 -135,-74 -237,-195 -234,-331 -54,167 60,320 221,409 230,127 450,7 653,-108 134,81 269,162 403,243 27,-12 53,-26 79,-40 -157,-94 -313,-188 -469,-281z"/>
     <path class="fil25" d="M5064 48575l0 -15 127 -84 34 -24c47,28 92,55 137,83 68,-36 139,-66 208,-92l201 108 8 4c-2,2 -5,4 -8,6l0 63 0 13c-12,5 -28,12 -37,17 -35,12 -71,26 -106,40 114,68 225,137 338,204 188,-92 373,-142 593,-52 151,60 347,205 282,384 2,39 -8,79 -33,122 -7,12 -16,25 -25,37 29,18 59,36 88,54 0,0 1,1 3,2 0,0 1,0 1,1l-1 1 -5 75 0 6 -171 109c-34,-21 -69,-42 -103,-62 -92,65 -196,114 -300,156l-210 -113 0 -78 0 -6c19,-4 37,-13 51,-17 68,-24 145,-51 218,-86 -134,-81 -269,-162 -403,-243 -203,115 -423,235 -653,108 -161,-89 -275,-242 -221,-409l0 -1c1,-52 17,-107 55,-162 5,-7 10,-14 15,-20 -20,-13 -42,-25 -63,-38 -13,-8 -14,-8 -20,-18l0 -73zm907 1465c304,0 586,-59 820,-163 390,-170 647,-458 647,-785 0,-524 -657,-948 -1467,-948 -329,0 -632,71 -877,188 -357,173 -589,449 -589,760 0,523 657,948 1466,948z"/>
     <path class="fil26" d="M5284 48923c14,-33 39,-65 75,-91 115,68 229,138 344,206 23,-10 46,-23 71,-37 1,-1 3,-2 5,-3 -135,-81 -271,-163 -407,-244 -65,47 -94,110 -88,169z"/>
     <path class="fil26" d="M6711 49559c-35,-21 -69,-42 -103,-62 -92,65 -196,114 -300,156l-143 -73 -80 -40 0 78 210 113c104,-42 208,-91 300,-156 34,20 69,41 103,62l171 -109 0 -6 5 -75 -65 44 -98 68z"/>
     <path class="fil25" d="M5284 48923c7,63 57,121 154,145 102,26 181,9 265,-30 -115,-68 -229,-138 -344,-206 -36,26 -61,58 -75,91z"/>
     <path class="fil26" d="M5095 48332c244,-117 547,-188 876,-188 810,0 1467,424 1467,948 0,327 -257,615 -647,785 -233,104 -516,163 -820,163 -809,0 -1466,-425 -1466,-948 0,-311 232,-587 590,-760zm876 1894c844,0 1548,-385 1716,-897 26,-76 39,-156 39,-237 0,-627 -785,-1134 -1755,-1134 -969,0 -1754,507 -1754,1134 0,3 0,7 0,10 1,77 14,154 39,227 168,512 872,897 1715,897z"/>
     <path class="fil29" d="M6630 49224c-3,8 -10,17 -17,26 -7,7 -16,16 -23,23 -117,-70 -234,-140 -351,-210 -27,-17 -56,-34 -84,-51 81,-31 163,-44 251,-24 77,19 300,99 224,236zm-856 -223c-25,14 -48,27 -71,37 -84,39 -163,56 -265,30 -97,-24 -147,-82 -154,-145 -6,-59 23,-122 88,-169 136,81 272,163 407,244 -2,1 -4,2 -5,3zm-653 -398c26,15 51,31 77,45 -18,18 -35,36 -51,56 -5,6 -10,13 -15,20 -37,55 -54,110 -55,162l0 1c-3,136 99,257 234,331 229,127 449,7 653,-108 156,93 312,187 469,281 -26,14 -52,28 -79,40 -73,35 -150,62 -218,86 -14,4 -32,13 -51,17l0 6 80 40 143 73c104,-42 208,-91 300,-156 34,20 68,41 103,62l98 -68 65 -44 1 -1c0,-1 -1,-1 -1,-1 -2,-1 -3,-2 -3,-2 -29,-18 -59,-36 -88,-54 -11,-7 -22,-13 -33,-20 26,-29 51,-61 71,-96 9,-14 16,-28 20,-43 65,-179 -131,-324 -282,-384 -220,-90 -405,-40 -593,52 -113,-67 -225,-136 -338,-204 -24,-15 -49,-28 -73,-44 50,-21 100,-40 149,-59 14,-5 28,-11 42,-16 10,-4 18,-8 25,-14 3,-2 6,-4 8,-6l-8 -4 -201 -108c-69,26 -140,56 -208,92 -45,-28 -90,-55 -137,-83l-34 24 -127 84 0 15c10,5 24,8 33,13 8,5 17,10 24,15z"/>
     <path class="fil26" d="M5084 48666c21,13 43,25 63,38 16,-20 33,-38 51,-56 -26,-14 -51,-30 -77,-45 -7,-5 -16,-10 -24,-15 -9,-5 -23,-8 -33,-13l0 73c6,10 7,10 20,18z"/>
     <path class="fil26" d="M5704 48591c-49,19 -99,38 -149,59 24,16 49,29 73,44 35,-14 71,-28 106,-40 9,-5 25,-12 37,-17l0 -13 0 -63c-7,6 -15,10 -25,14 -14,5 -28,11 -42,16z"/>
    </g>
    <path class="fil10" d="M32368 36654c-572,572 -887,1334 -887,2143 0,809 315,1570 887,2142 572,572 1333,887 2142,887 810,0 1571,-315 2143,-887 572,-572 886,-1333 887,-2142 0,-810 -315,-1570 -887,-2142 -572,-572 -1333,-888 -2142,-887 -810,0 -1571,314 -2143,886zm2660 -651c562,104 1078,373 1490,786 536,536 832,1249 833,2007 0,759 -296,1472 -833,2009 -536,536 -1249,832 -2008,832 -111,0 -221,-7 -331,-20 283,-1871 567,-3742 849,-5614zm-419 1505c-155,-100 -328,-145 -513,-131 -135,10 -271,56 -399,126l-334 -334 -134 134 306 307c-77,58 -156,132 -216,208l-303 -302 -134 134 326 326c-208,349 -185,766 117,1051 114,109 262,183 426,196 194,14 383,-62 550,-155l63 63 -372 2459c-561,-103 -1077,-373 -1490,-785 -537,-537 -832,-1249 -832,-2008 1,-759 295,-1473 831,-2009 537,-537 1251,-831 2010,-832 111,0 222,7 331,19l-233 1533zm-16 2647c244,97 501,57 729,-66l335 336 135 -135 -307 -306c78,-58 156,-132 216,-209l303 303 134 -134 -326 -327c169,-292 185,-606 -10,-893 -243,-353 -595,-385 -962,-204l-53 342 780 780c-62,78 -136,149 -217,207l-618 -618 -35 233 484 485c-191,79 -366,105 -559,12l-29 194zm-138 -1626l-38 246 -85 55 -878 -878c60,-77 137,-150 216,-208l785 785zm-1108 -415l814 814c-119,62 -259,116 -395,106 -119,-9 -226,-63 -312,-144 -221,-210 -246,-511 -107,-776zm2299 717c143,209 138,425 28,645l-1 3 -776 -776c292,-142 548,-165 749,128zm-1156 -535l-653 -653c87,-42 177,-70 273,-78 176,-12 333,42 468,154l-88 577z"/>
   </g>
  </g>
 </g>
</svg>
