<?xml version="1.0" encoding="UTF-8"?>
<!DOCTYPE svg PUBLIC "-//W3C//DTD SVG 1.1//EN" "http://www.w3.org/Graphics/SVG/1.1/DTD/svg11.dtd">
<!-- Creator: CorelDRAW X7 -->
<svg xmlns="http://www.w3.org/2000/svg" xml:space="preserve" width="1.1811in" height="1.1811in" version="1.1" style="shape-rendering:geometricPrecision; text-rendering:geometricPrecision; image-rendering:optimizeQuality; fill-rule:evenodd; clip-rule:evenodd"
viewBox="0 0 11811 11811"
 xmlns:xlink="http://www.w3.org/1999/xlink">
 <defs>
  <style type="text/css">
   <![CDATA[
    .fil0 {fill:none}
    .fil1 {fill:black}
   ]]>
  </style>
 </defs>
 <g id="Layer_x0020_1">
  <metadata id="CorelCorpID_0Corel-Layer"/>
  <g id="_1761007623440">
   <polygon class="fil0" points="0,11811 11811,11811 11811,0 0,0 "/>
   <path class="fil1" d="M8340 2816c296,-59 514,-317 514,-626 0,-355 -286,-646 -641,-646 -354,0 -640,291 -640,646 0,309 218,567 513,626l0 396 -4361 0 0 -396c295,-59 513,-317 513,-626 0,-355 -286,-646 -640,-646 -355,0 -641,291 -641,646 0,309 218,567 514,626l0 396 -1668 0 0 6409 8205 0 0 -6409 -1668 0 0 -396zm-1022 5138l1540 0 0 259 -1540 0 0 -259zm-2180 0l1540 0 0 259 -1540 0 0 -259zm-2181 0l1540 0 0 259 -1540 0 0 -259zm4361 -2305l1540 0 0 259 -1540 0 0 -259zm-2180 0l1540 0 0 259 -1540 0 0 -259zm-2181 0l1540 0 0 259 -1540 0 0 -259zm1027 -3459c0,209 -173,381 -386,381 -214,0 -386,-172 -386,-381 0,-214 172,-387 386,-387 213,0 386,173 386,387zm-1926 1281l0 767 7695 0 0 -767c-2566,0 -5129,0 -7695,0zm0 5896l0 -4874 7695 0 0 4874 -7695 0zm6541 -7177c0,209 -172,381 -386,381 -213,0 -386,-172 -386,-381 0,-214 173,-387 386,-387 214,0 386,173 386,387z"/>
  </g>
 </g>
</svg>
