<?xml version="1.0" encoding="UTF-8"?>
<!DOCTYPE svg PUBLIC "-//W3C//DTD SVG 1.1//EN" "http://www.w3.org/Graphics/SVG/1.1/DTD/svg11.dtd">
<!-- Creator: CorelDRAW X7 -->
<svg xmlns="http://www.w3.org/2000/svg" xml:space="preserve" width="9.51563in" height="5.75016in" version="1.1" style="shape-rendering:geometricPrecision; text-rendering:geometricPrecision; image-rendering:optimizeQuality; fill-rule:evenodd; clip-rule:evenodd"
viewBox="0 0 95156 57502"
 xmlns:xlink="http://www.w3.org/1999/xlink">
 <defs>
  <style type="text/css">
   <![CDATA[
    .fil13 {fill:none;fill-rule:nonzero}
    .fil32 {fill:#5C589A}
    .fil29 {fill:#9A97C9}
    .fil38 {fill:#D3B076}
    .fil37 {fill:#DBBE8A}
    .fil17 {fill:#E9D1A9}
    .fil1 {fill:#EDDFC4}
    .fil18 {fill:#F4E3C8}
    .fil0 {fill:#F6EFE2}
    .fil20 {fill:white}
    .fil3 {fill:#093153;fill-rule:nonzero}
    .fil14 {fill:#348CD1;fill-rule:nonzero}
    .fil40 {fill:#5C589A;fill-rule:nonzero}
    .fil34 {fill:#5D4D30;fill-rule:nonzero}
    .fil30 {fill:#657AA9;fill-rule:nonzero}
    .fil33 {fill:#6CA0BA;fill-rule:nonzero}
    .fil35 {fill:#75613D;fill-rule:nonzero}
    .fil23 {fill:#7C94CA;fill-rule:nonzero}
    .fil42 {fill:#7F97CB;fill-rule:nonzero}
    .fil5 {fill:#8480BC;fill-rule:nonzero}
    .fil28 {fill:#879ED0;fill-rule:nonzero}
    .fil27 {fill:#8AA1D1;fill-rule:nonzero}
    .fil8 {fill:#908DC3;fill-rule:nonzero}
    .fil4 {fill:#9A97C9;fill-rule:nonzero}
    .fil9 {fill:#9F9CCB;fill-rule:nonzero}
    .fil44 {fill:#9FAED1;fill-rule:nonzero}
    .fil36 {fill:#A18654;fill-rule:nonzero}
    .fil12 {fill:#A38755;fill-rule:nonzero}
    .fil22 {fill:#A6B7DE;fill-rule:nonzero}
    .fil10 {fill:#A9A6D0;fill-rule:nonzero}
    .fil7 {fill:#ADAAD3;fill-rule:nonzero}
    .fil26 {fill:#B7C4E3;fill-rule:nonzero}
    .fil31 {fill:#BB9B61;fill-rule:nonzero}
    .fil41 {fill:#BBBAB9;fill-rule:nonzero}
    .fil24 {fill:#BECAE6;fill-rule:nonzero}
    .fil11 {fill:#D2AE6D;fill-rule:nonzero}
    .fil21 {fill:#D7B377;fill-rule:nonzero}
    .fil15 {fill:#DBBE8A;fill-rule:nonzero}
    .fil43 {fill:#DEE4F2;fill-rule:nonzero}
    .fil2 {fill:#DFC596;fill-rule:nonzero}
    .fil39 {fill:#E6D2AC;fill-rule:nonzero}
    .fil25 {fill:#ECEFF8;fill-rule:nonzero}
    .fil16 {fill:#EDDFC4;fill-rule:nonzero}
    .fil19 {fill:#F6EFE2;fill-rule:nonzero}
    .fil6 {fill:white;fill-rule:nonzero}
   ]]>
  </style>
 </defs>
 <g id="Layer_x0020_1">
  <metadata id="CorelCorpID_0Corel-Layer"/>
  <g id="_1978526774224">
   <g>
    <path class="fil0" d="M94690 27288c157,60 313,118 466,173l0 18035c-2486,448 -5741,-201 -11193,-2517 -24241,-10297 -30197,2010 -33572,14523l-44443 0c-3569,-6275 -1524,-14421 6780,-17943 10325,-1759 14169,1836 22179,2831 5134,638 8487,-1453 10109,-8652 1856,-8238 6451,-13968 13465,-16121 15074,-4628 25246,5484 36209,9671z"/>
    <path class="fil1" d="M95156 41017l0 16485 -51861 0c3743,-2771 3656,-8416 5876,-13271 2557,-5590 8055,-9050 14566,-9994 13041,-1892 23580,10769 31419,6780z"/>
    <path class="fil1" d="M74232 21911c-12539,-3687 -24378,407 -27246,13136 -1118,4961 -1347,10416 -8162,11012 -9072,792 -13454,-7792 -26096,-6500 8009,-3397 21210,225 26404,-2102 4655,-2086 3990,-7379 3687,-12504 -586,-9913 8374,-16253 19897,-14202 4715,839 9284,2551 13813,2317 3423,-177 5452,-1928 7215,-4068 3435,-4167 5623,-8239 11412,-9000l0 31508c-6499,-578 -13691,-7470 -20924,-9597z"/>
   </g>
   <path class="fil2" d="M61745 34493l13076 7956 9554 -5289c215,-119 214,-429 -1,-547l-13382 -7392 -9247 5272z"/>
   <path class="fil3" d="M83754 36984l-13187 -7663c0,0 1,0 1,0l13186 7663 0 0z"/>
   <path class="fil4" d="M70549 22458l13189 7665c-36,-21 -86,-18 -141,13l-13189 -7665c55,-31 105,-34 141,-13z"/>
   <path class="fil3" d="M74350 42378l-13189 -7665c-226,-131 -366,-410 -368,-807l13190 7665c1,397 141,676 367,807z"/>
   <path class="fil5" d="M74350 42378l-13189 -7665 -11 -6 0 0 -10 -7 -11 -6 -10 -7 0 0 -10 -7 -10 -8 -9 -7 -10 -8 0 0 -9 -8 -10 -8 -9 -9 -9 -8 -9 -9 0 0 -9 -9 -8 -9 -9 -10 -8 -9 -8 -10 -1 0 -8 -10 -7 -10 -8 -11 0 0 -8 -11 0 0 -7 -10 -8 -11 -7 -12 -7 -11 -7 -12 0 0 -6 -12 -7 -12 0 0 -6 -12 -6 -12 0 0 -6 -13 -6 -13 0 0 -6 -13 -5 -13 0 0 -6 -13 0 0 -5 -14 -5 -14 -5 -14 0 0 -4 -14 -5 -14 -4 -15 0 0 -4 -15 -4 -15 0 0 -4 -15 0 0 -4 -15 -3 -15 -3 -16 -1 0 -3 -16 0 0 -2 -16 0 0 -3 -16 -3 -17 -2 -16 0 0 -2 -17 -2 -17 0 0 -2 -17 0 0 -1 -17 0 0 -2 -18 0 0 -1 -17 0 0 -1 -18 0 0 0 -18 -1 0 0 -18 0 -19 0 0 -1 -18 0 0 13190 7665c1,397 141,676 367,807z"/>
   <path class="fil6" d="M83110 30875l18 6407 -7883 4552c-238,137 -453,151 -610,61 -157,-89 -253,-280 -254,-554l-13 -4427c-1,-274 95,-576 250,-846 156,-270 371,-504 609,-641l7883 -4552z"/>
   <polygon class="fil5" points="73983,41571 60793,33906 60781,29479 73971,37144 "/>
   <polygon class="fil7" points="75226,34970 62036,27305 70408,22471 83597,30136 "/>
   <path class="fil8" d="M73971 37144l-13190 -7665c-2,-799 560,-1773 1255,-2174l13190 7665c-696,401 -1258,1374 -1255,2174z"/>
   <path class="fil5" d="M73971 37144l-13190 -7665c0,-24 0,-48 1,-73l0 -3 0 0 0 -1 2 -34 0 -3 0 -1 1 -4 2 -33 0 -1 0 -4 3 -31 1 -2 0 -2c2,-18 4,-37 6,-55l13190 7665c-11,84 -17,166 -16,247z"/>
   <path class="fil9" d="M73987 36897l-13190 -7665 3 -19 0 -2 5 -36 1 -3 0 0 0 -2 6 -33 0 -3 0 -1 1 -2 6 -32 0 -3 0 -2 1 -1 0 -3 6 -30 1 -2 13190 7665c-13,58 -23,116 -30,174z"/>
   <polygon class="fil5" points="74017,36723 60827,29058 60827,29055 60828,29055 60835,29019 60836,29017 60836,29016 60836,29015 60837,29013 60838,29010 60838,29008 60842,28990 60843,28988 60844,28985 60844,28983 60845,28981 60845,28979 60847,28972 60847,28970 60848,28967 60849,28965 60849,28963 60850,28961 60850,28958 60851,28956 60852,28954 60852,28952 60853,28949 60853,28947 60854,28945 60854,28943 60856,28936 60857,28934 60858,28931 60858,28929 60859,28927 60859,28924 60860,28922 60861,28920 60861,28918 60862,28915 60862,28913 74052,36578 74051,36580 74051,36583 74050,36585 74050,36587 74049,36589 74048,36592 74048,36594 74047,36596 74047,36598 74046,36601 74046,36602 74045,36603 74045,36605 74044,36607 74044,36610 74043,36612 74042,36614 74042,36616 74038,36632 74037,36635 74037,36637 74036,36639 74035,36641 74035,36641 74035,36644 74034,36646 74034,36648 74027,36675 74027,36677 74026,36680 74026,36681 74026,36682 74025,36684 74018,36716 74018,36718 74017,36720 74017,36720 "/>
   <path class="fil10" d="M74091 36450l-13189 -7665 0 -2 1 -2 0 -1 0 -1 1 -2 1 -2 0 -1 1 -2 4 -11 0 -2 4 -10 0 -1 1 -2 1 -2 0 -2 1 -2 0 0 1 -2 0 -2 1 -1 1 -2 0 -2 9 -24 1 -2 0 -2 1 -2 0 0 1 -2 12 -33 13190 7665 -13 35 0 0c-11,28 -21,56 -30,84z"/>
   <polygon class="fil9" points="74134,36331 60944,28666 60944,28666 60945,28664 60946,28662 60946,28662 60946,28661 60947,28659 60948,28657 60948,28655 60949,28654 60957,28634 60957,28632 60958,28631 60959,28629 60959,28627 60960,28625 60961,28623 60961,28623 60962,28622 60962,28620 60963,28618 60964,28616 60964,28615 60965,28613 60966,28611 60974,28592 60975,28590 60975,28588 60976,28586 60977,28585 60977,28584 60978,28583 60978,28581 60979,28579 60980,28578 60981,28576 60981,28574 60990,28555 60990,28553 74180,36218 74167,36249 74167,36250 74166,36251 74152,36285 74151,36287 74151,36288 74151,36288 74150,36290 74136,36326 74135,36327 74135,36327 74135,36329 "/>
   <polygon class="fil10" points="74180,36218 60990,28553 60990,28553 60991,28551 60992,28550 60993,28548 60993,28546 60994,28545 60994,28544 60995,28543 60996,28541 60996,28539 60997,28537 60998,28536 60999,28534 61009,28512 61009,28510 61010,28508 61011,28507 61011,28507 61012,28505 61012,28503 61013,28501 61014,28500 61016,28495 61017,28493 61018,28491 61024,28479 61024,28478 61025,28476 61026,28474 61027,28473 61027,28471 61028,28469 61029,28468 61029,28467 61030,28466 61031,28464 61032,28462 61032,28461 61033,28459 61034,28457 61035,28456 61036,28454 61036,28452 61037,28450 61038,28449 61039,28447 61040,28445 61040,28444 74230,36109 74222,36126 74221,36127 74220,36129 74220,36131 74219,36132 74218,36133 74218,36134 74217,36136 74216,36137 74202,36168 74201,36170 74201,36172 74201,36172 74200,36173 74199,36175 74185,36206 74185,36208 74184,36209 74183,36210 74183,36211 "/>
   <path class="fil9" d="M74230 36109l-13190 -7665 3 -5 1 -2 0 -2 1 -1 1 -2 1 -2 0 0 1 -1 1 -2 0 -2 1 -2 1 -1 1 -2 1 -2 1 -1 0 -2 4 -7 1 -1 0 -2 1 -2 1 -1 1 -2 1 -2 1 -1 0 -2 1 -2 1 -1 0 0 1 -2 1 -2 1 -1 1 -2 0 -2 12 -22 0 -1 1 -2 1 -2 1 -1 0 -1 1 -1 1 -1 1 -2 7 -13 13189 7664c-9,18 -18,36 -27,54l-1 1 -1 1 0 1 -1 2 -1 2 -1 1 0 2 -1 2 -9 18 -1 2 -1 1 -1 2 -1 2 -1 1 0 2 0 0 -1 2 -1 2 -1 1 -4 9z"/>
   <path class="fil5" d="M74284 36001l-13189 -7664 8 -16 1 -1 1 -2 0 -1 0 -1 1 -1 1 -2 1 -2 1 -1 1 -2 1 -2 10 -18 1 -1 1 -2 1 -2 1 -1 1 -2 0 0 1 -2 0 -1 1 -2 1 -2 1 -1 1 -2 2 -3 1 -2 2 -3 1 -2 1 -2 1 -1 1 -2 1 -2 0 -1 1 -2 1 -1 1 -2 7 -12 1 -1 1 -2 1 -2 13189 7665 -6 12 -1 1 -21 37 0 0c-10,19 -21,38 -31,56z"/>
   <path class="fil5" d="M74343 35895l-13189 -7664 7 -12 1 -2 1 -2 1 -1 1 -2 1 -2 1 -1 1 -2 2 -3 1 -2 1 -2 1 -1 1 -2 1 -2 1 -1 1 -2 1 -2 1 -1 1 -2 1 -2 1 -1 1 -2 1 -2 1 -1 1 -2 11 -18 1 -2 1 -2 6 -10 1 -1 1 -2 10 -15 1 -1 1 -2 13190 7665 -6 8 0 1 -1 1 -1 1c-20,32 -39,63 -58,95z"/>
   <path class="fil9" d="M74409 35789l-13190 -7665 1 -2 1 -1 1 -2 1 -2 1 -2 1 -1 2 -2 1 -2 1 -1 1 -2 1 -2 1 -2 1 -1 1 -2 3 -4 1 -1 1 -2 1 -2 1 -1 1 -2 1 -2 2 -2 3 -5 1 -1 1 -2 4 -5 1 -2 1 -2 1 -1 1 -2 1 -2 0 0 1 -1 2 -2 1 -2 1 -1 1 -2 2 -3 2 -2 1 -2 7 -10 1 -2 1 -1 1 -2 1 -2 1 -1 1 -2 1 0 1 -2 1 -1 1 -2 5 -7 13189 7665c-18,26 -35,52 -52,78l-2 2 -1 1 0 1 -1 1 -1 2 -15 24z"/>
   <polygon class="fil5" points="74481,35680 61292,28015 61293,28013 61303,27999 61305,27997 61306,27995 61307,27993 61308,27992 61308,27992 61310,27990 61327,27967 61328,27965 61329,27963 61330,27961 61332,27960 61333,27958 61333,27958 61334,27956 61336,27954 61337,27952 61338,27951 61340,27949 61341,27947 61342,27945 61344,27944 61345,27942 61346,27940 61348,27938 61349,27937 61350,27935 61352,27933 61353,27931 61365,27915 61366,27914 61368,27912 61369,27910 61370,27909 61372,27907 61373,27905 61374,27903 61376,27902 74565,35566 74564,35568 74563,35570 74561,35572 74559,35575 74557,35577 74555,35580 74553,35582 74552,35584 74551,35586 74549,35587 74548,35589 74548,35589 74546,35591 74545,35593 74544,35594 74543,35596 74525,35619 74524,35621 74523,35623 74522,35623 74521,35624 74520,35626 74519,35628 74498,35657 74498,35657 "/>
   <path class="fil5" d="M74565 35566l-13189 -7664 1 -2 2 -2 1 -2 2 -2 1 -2 1 -1 1 -1 1 -2 2 -2 2 -2 1 -2 2 -2 1 -2 2 -2 1 -2 2 -2 2 -2 1 -2 2 -2 9 -12 2 -2 1 -2 4 -4 1 -2 2 -2 1 -2 2 -2 2 -2 1 -1 2 -2 1 -2 8 -10 2 -2 2 -2 1 -2 2 -2 3 -4 2 -1 1 -2 2 -2 3 -4 2 -2 1 -2 2 -2 0 0 2 -2 1 -2 12 -13 13189 7665 -14 17 0 0 -26 31 -1 1 -1 1 -1 2c-16,19 -32,39 -48,59l-2 2 -1 1 0 0 -8 10z"/>
   <path class="fil4" d="M83597 30136c110,-63 199,-12 199,114 1,126 -88,280 -197,343l-489 283 -7883 4551c-238,137 -453,371 -609,641 -155,270 -251,572 -250,846l13 4427c1,274 97,465 254,554 157,90 372,76 610,-61l7883 -4552 489 -282c109,-63 198,-12 199,114 0,126 -88,280 -198,343l-8372 4834c-695,400 -1261,79 -1263,-720l-13 -4427c-2,-800 560,-1773 1256,-2174l8371 -4834z"/>
   <polygon class="fil11" points="75884,37022 77620,36020 81683,33632 75884,37106 "/>
   <polygon class="fil2" points="77273,36245 77282,39276 76586,39070 75893,40078 75884,37046 "/>
   <polygon class="fil4" points="63644,31762 63636,34857 62751,34346 62760,31251 "/>
   <path class="fil12" d="M69993 23561l10807 6280c-28,-16 -66,-13 -109,11l-10807 -6280c43,-25 81,-27 109,-11z"/>
   <path class="fil13" d="M80792 29837l-1 0 -10807 -6280 1 0 1 0 0 0 0 0 0 1 1 0 0 0 0 0 0 0 1 0 0 0 0 1 0 0 1 0 0 0 1 0 0 0 0 0 1 1 0 0 0 0 0 0 1 0 0 0 0 0 10807 6281 0 0 0 0 0 0m-1 -1l0 0 0 0 -1 0 0 0 -1 -1 0 0 0 0 0 0 -1 0 0 0 0 0 -1 -1 0 0 0 0 -1 0 -1 -1 0 0 0 0m6 3l1 1"/>
   <polygon class="fil14" points="80797,29840 69992,23561 69992,23561 69993,23561 80797,29840 "/>
   <polygon class="fil12" points="80441,29997 69634,23716 69884,23571 80691,29852 "/>
   <path class="fil13" d="M66434 29376l-3601 -2093 0 0 -1 -1 0 0m2 1l0 1 5314 3087m-5314 -3088l-1 0"/>
   <path class="fil13" d="M74244 33562l-10807 -6280c49,-20 99,-45 150,-75l8713 5064m2094 1217l-3 1 -2 2 -2 1 -5 3 -2 1 0 0 -3 1 -2 2 -3 1 -2 1 -2 2 -2 0 -1 1 -2 1 -2 2 -3 1 -2 1 -3 1 0 1 -2 1 -2 1 -3 1 -2 1 -2 2 -3 1 0 0 -2 1 -2 1 -3 1 -2 2 -2 1 -3 1 0 0 -2 1 -2 1 -3 2 -2 1 -2 1 -2 1 -1 0 -2 1 -3 1 -2 1 -2 2 -3 1 -2 1 -2 1 -3 1 -2 1 -2 1 -2 1 -1 0 -2 1 -2 1 -2 1 -3 1 -2 1 -2 1 -3 1 -2 2 -2 1 -3 1 -2 1 -2 0 0 0 -3 2 -2 1 -2 0 -2 1 -3 1 -1 1 -1 0"/>
   <path class="fil6" d="M80433 27252l8 2745 -6047 3491c-294,169 -561,186 -755,75 -195,-111 -315,-348 -316,-685l-1 -292c-1,-337 118,-712 311,-1047 193,-335 459,-627 753,-796l6047 -3491z"/>
   <path class="fil15" d="M80743 26736c19,-1 35,2 49,10l-10807 -6281c-1,0 -1,0 -1,0 -3,-1 -5,-3 -8,-4 -2,-1 -5,-2 -8,-2 -3,-1 -6,-2 -8,-3 -4,0 -7,0 -10,-1 -3,0 -6,0 -10,0 -1,0 -3,1 -4,1 0,0 -1,0 -1,0 -2,0 -4,0 -6,0 -5,1 -9,2 -14,3 -6,2 -12,4 -18,7 -7,2 -14,6 -21,10l-6298 3636c-44,26 -88,54 -131,83 -14,10 -27,20 -41,30 -29,21 -58,43 -86,65 -16,13 -31,26 -47,39 -26,22 -52,44 -77,68 -16,14 -31,28 -46,43 -10,8 -19,17 -29,26 -10,10 -19,21 -29,32 -31,31 -61,63 -91,97 -10,10 -20,20 -29,31 -8,9 -16,19 -24,28 -18,22 -36,44 -54,66 -11,14 -23,27 -34,42 -9,12 -18,24 -27,37 -14,17 -26,35 -39,52 -9,12 -17,23 -26,35 -14,20 -28,42 -42,63 -9,13 -18,26 -27,40 -3,5 -7,11 -11,16 -24,39 -48,77 -71,117 -1,2 -3,5 -4,8 -5,8 -9,16 -14,24 -16,28 -32,56 -47,84 -7,13 -13,26 -19,39 -8,14 -15,28 -22,42 -6,12 -12,24 -18,36 -15,32 -29,63 -43,95 -3,6 -6,13 -9,19 -1,2 -2,4 -3,6 -17,41 -34,82 -50,123 -3,8 -5,15 -8,22 -6,15 -11,30 -16,45 -8,21 -16,42 -23,63 -5,16 -9,31 -14,47 -6,19 -12,38 -18,57 -3,12 -7,24 -11,36 -5,21 -10,41 -15,62 -6,23 -12,47 -17,70 -2,8 -4,17 -6,25 -4,17 -6,34 -9,51 -7,36 -13,72 -18,108 -2,10 -4,21 -6,31 -3,23 -4,45 -6,67 -2,16 -4,33 -5,48 -4,51 -6,102 -6,152l1 291c1,432 154,736 401,879l10807 6280c-247,-143 -400,-447 -401,-879l-1 -291c0,-50 2,-100 6,-151 1,-16 3,-32 5,-48 3,-33 7,-66 12,-99 5,-35 12,-72 18,-108 5,-25 10,-50 15,-76 6,-23 12,-46 17,-70 9,-32 17,-65 27,-98 5,-19 11,-38 17,-56 12,-37 24,-74 37,-111 5,-14 10,-29 16,-44 19,-51 39,-101 61,-151 3,-7 6,-13 9,-20 19,-44 40,-87 62,-131 6,-14 14,-27 21,-41 21,-42 43,-83 66,-124 5,-8 9,-16 14,-24 28,-48 57,-95 87,-141 8,-13 17,-26 26,-39 22,-34 45,-66 68,-99 13,-17 26,-34 39,-52 20,-26 41,-53 61,-79 18,-22 36,-44 54,-65 17,-20 35,-40 53,-60 30,-33 60,-66 91,-97 19,-20 38,-39 58,-58 15,-15 30,-29 46,-43 25,-23 51,-46 77,-68 16,-13 32,-26 47,-39 29,-22 57,-43 86,-64 14,-10 28,-21 42,-30 43,-30 86,-58 130,-83l6298 -3636c21,-12 41,-19 59,-21 1,0 1,0 1,0z"/>
   <path class="fil11" d="M80683 26757c84,-49 153,-11 153,86 0,97 -68,215 -152,264l-251 145 -6047 3491c-294,169 -559,461 -753,796 -193,335 -312,710 -311,1047l1 292c0,337 121,574 316,685 195,111 461,95 755,-75l6047 -3491 251 -145c84,-49 153,-9 153,87 0,97 -68,215 -153,263l-6297 3636c-756,436 -1375,85 -1377,-785l-1 -291c-2,-868 612,-1933 1368,-2369l6298 -3636z"/>
   <path class="fil16" d="M69814 22770c131,76 131,197 2,272l-2151 1250c-128,75 -338,75 -468,-1l-527 -304c-129,-74 -131,-196 -2,-271l2150 -1250c129,-75 340,-75 470,0l526 304z"/>
   <g>
    <path class="fil2" d="M67392 49820c46,0 93,-3 138,-8 -45,5 -92,8 -138,8zm-9398 2492l8439 -4904 175 101 0 0 -175 -101 -8439 4904 175 101 -175 -101zm-585 -337l8439 -4905 -8439 4905 175 100 -175 -100zm-584 -338l8439 -4904 -8439 4904 174 101 0 0 -174 -101zm3757 -7607l174 100 -174 -100 -8439 4904 8439 -4904zm-9026 4565l8439 -4904 177 102 0 0 -177 -102 -8439 4904 177 102 -177 -102zm-481 -278l71 41 -71 -41zm8336 -4964l-8439 4905 0 0 8439 -4905zm-585 -337l174 101 -174 -101 -8439 4904 8439 -4904zm-6098 6255l8439 -4904 -8439 4904zm1756 1014l8439 -4904 -8439 4904zm9198 -4465l-174 -101 0 0 174 101zm3511 2026l0 0 -175 -100 175 100zm920 1555c-2,-107 -73,-215 -214,-297 -142,-81 -327,-122 -512,-122 185,0 370,41 512,122 141,82 212,189 214,297zm-10430 -8113l-10282 5976 13017 7515 10282 -5975 -13017 -7516z"/>
   </g>
   <polygon class="fil6" points="57418,41289 70435,48804 60153,54779 47136,47264 "/>
   <g id="_1978526737552">
    <path class="fil17" d="M69463 12685l-1323 -743c-905,820 -1262,2139 -1055,2931 77,295 210,468 469,615l1156 655c-192,-153 -308,-413 -348,-732 -103,-803 269,-1975 1101,-2726z"/>
    <path class="fil18" d="M70482 8205c-39,20 -76,38 -116,61 -1180,681 -2142,2291 -2220,3670 -2,2 -4,4 -6,6l1323 743c78,-1379 1039,-2988 2220,-3670 39,-23 77,-40 116,-60l-1317 -750z"/>
    <path class="fil17" d="M71799 8955c565,-1858 3258,-5075 4985,-4369 41,17 81,36 121,57l-111 -61c-382,-211 -1308,-796 -1696,-837 -1718,-179 -4090,2731 -4616,4460l1317 750z"/>
    <path class="fil17" d="M76904 4643c303,161 572,454 789,909 578,-369 1159,-470 1599,-283l-1109 -632c-484,-275 -866,-274 -1389,-55l110 61z"/>
    <path class="fil18" d="M79992 6213c25,112 42,233 50,364 277,-70 499,-52 672,33l-722 -397z"/>
    <path class="fil19" d="M71799 8955c-39,20 -77,37 -116,60 -1181,682 -2142,2291 -2220,3670 -1609,1451 -1496,4477 434,3363l9732 -5619c1738,-1003 2220,-4309 413,-3852 -96,-1447 -1226,-1741 -2349,-1025 -1449,-3040 -5215,1167 -5894,3403z"/>
   </g>
   <g id="_1978526738448">
    <path class="fil17" d="M78068 19358l-677 -380c-463,419 -646,1094 -540,1499 39,151 107,240 240,315l591 335c-98,-78 -157,-211 -178,-374 -52,-411 138,-1011 564,-1395z"/>
    <path class="fil18" d="M78589 17066c-20,10 -39,19 -59,31 -604,348 -1096,1172 -1136,1878 -1,1 -2,2 -3,3l677 380c39,-706 531,-1529 1136,-1878 20,-12 39,-21 59,-31l-674 -383z"/>
    <path class="fil17" d="M79263 17449c289,-950 1667,-2596 2550,-2235 21,9 42,18 62,29l-56 -31c-196,-108 -670,-408 -868,-428 -879,-92 -2093,1397 -2362,2282l674 383z"/>
    <path class="fil17" d="M81875 15243c155,83 292,232 403,465 296,-189 593,-240 819,-145l-568 -323c-247,-141 -443,-140 -710,-28l56 31z"/>
    <path class="fil18" d="M83455 16046c12,58 21,120 26,187 141,-36 255,-27 343,16l-369 -203z"/>
    <path class="fil19" d="M79263 17449c-20,10 -39,19 -59,31 -605,349 -1097,1172 -1136,1878 -824,743 -766,2291 222,1721l4979 -2875c889,-514 1136,-2205 212,-1971 -50,-741 -628,-891 -1203,-525 -741,-1555 -2668,597 -3015,1741z"/>
   </g>
   <g id="_1978526736400">
    <path class="fil17" d="M31455 28269l958 -538c655,594 914,1548 764,2122 -56,213 -152,339 -340,445l-837 474c139,-110 223,-299 252,-530 75,-581 -195,-1429 -797,-1973z"/>
    <path class="fil18" d="M30717 25025c28,14 55,27 84,43 855,494 1551,1659 1607,2658 2,2 3,3 5,5l-958 538c-57,-999 -753,-2164 -1608,-2658 -28,-16 -55,-29 -84,-44l954 -542z"/>
    <path class="fil17" d="M29763 25567c-408,-1345 -2359,-3675 -3609,-3163 -30,12 -59,26 -88,41l80 -44c277,-152 948,-577 1228,-606 1244,-129 2962,1977 3343,3230l-954 542z"/>
    <path class="fil17" d="M26066 22445c-219,117 -413,329 -570,658 -419,-267 -840,-340 -1158,-205l802 -457c351,-199 627,-199 1006,-40l-80 44z"/>
    <path class="fil18" d="M23831 23582c-18,81 -31,169 -37,264 -200,-51 -361,-38 -486,23l523 -287z"/>
    <path class="fil19" d="M29763 25567c29,15 56,28 84,44 855,494 1551,1659 1608,2658 1165,1051 1083,3242 -314,2435l-7048 -4069c-1258,-726 -1607,-3120 -299,-2789 70,-1048 888,-1261 1702,-743 1049,-2201 3775,845 4267,2464z"/>
   </g>
   <path class="fil2" d="M91486 20227c-759,-23 -1368,-647 -1373,-1417l-13 0c-6,770 -612,1394 -1371,1417 762,26 1373,653 1373,1431l11 0c0,-778 611,-1405 1373,-1431z"/>
   <path class="fil16" d="M22791 49818c-1561,-52 -2814,-1336 -2824,-2924l-25 0c-10,1588 -1262,2872 -2827,2924 1568,52 2827,1346 2827,2946l21 0c0,-1600 1260,-2894 2828,-2946z"/>
   <g id="_1978526734096">
    <g id="_2902029471552">
     <path class="fil11" d="M73018 24076c-430,-250 -1023,-360 -1631,-337 -608,23 -1232,180 -1727,465 -494,286 -766,646 -807,998 -41,351 150,694 580,944 431,250 1019,361 1625,338 605,-23 1227,-181 1722,-466 494,-285 769,-646 813,-997 43,-351 -144,-695 -575,-945z"/>
     <path class="fil20" d="M71999 25173c98,57 196,114 294,171 -226,130 -452,260 -677,390 -225,130 -450,260 -676,390 -98,-57 -195,-113 -293,-171 225,-130 451,-260 675,-390 226,-130 452,-260 677,-390zm-2235 267c-98,-57 -195,-114 -293,-170 338,-195 676,-391 1014,-586 339,-196 679,-392 1019,-589 -17,123 -33,247 -49,370 -283,162 -564,325 -846,488 -281,162 -563,325 -845,487 0,0 0,0 0,0zm2328 -1003c148,86 295,171 442,257 147,85 294,171 441,256 -115,66 -230,132 -344,199 -196,-114 -392,-228 -588,-342 -282,162 -564,325 -845,487 -282,163 -563,326 -845,488 -99,-56 -197,-114 -294,-171 338,-195 676,-390 1014,-585 339,-196 679,-392 1019,-589 0,0 0,0 0,0z"/>
    </g>
   </g>
   <path class="fil21" d="M63056 24534c-18,20 -37,40 -55,61 -10,10 -20,20 -29,31 -8,9 -16,19 -24,28 -18,22 -36,44 -54,66 -11,14 -23,27 -34,42 -9,12 -18,24 -27,37 -14,17 -26,35 -39,52 -9,12 -17,23 -26,35 -14,20 -28,42 -42,63 -9,13 -18,26 -27,40 -3,5 -7,11 -11,16 -24,39 -48,77 -71,117 -1,2 -3,5 -4,8 -5,8 -9,16 -14,24 -16,28 -32,56 -47,84 -7,13 -13,26 -19,39 -8,14 -15,28 -22,42 -6,12 -12,24 -18,36 -15,32 -29,63 -43,95 -3,6 -6,13 -9,19 -1,2 -2,4 -3,6 -18,41 -34,82 -50,123 -3,8 -5,15 -8,22 -6,15 -11,30 -16,45 -8,21 -16,42 -23,63 -5,16 -9,31 -14,47 -6,19 -12,38 -18,57 -3,12 -7,24 -11,36 -5,21 -10,41 -15,62 -6,23 -12,47 -17,70 -2,8 -4,17 -6,25 -4,17 -6,34 -9,51 -7,36 -13,72 -18,108 -2,10 -4,21 -6,31 -3,23 -4,45 -6,67 -2,16 -4,33 -5,48 -4,51 -6,102 -6,152l1 291c0,214 38,397 106,544l10808 6280c-68,-147 -106,-329 -107,-544l-1 -291c0,-50 2,-100 6,-151 1,-16 3,-32 5,-48 3,-33 7,-66 12,-99 5,-35 12,-72 18,-108 5,-25 10,-50 15,-76 6,-23 12,-46 17,-70 9,-32 17,-65 27,-98 5,-19 11,-38 17,-56 11,-37 24,-74 37,-111 5,-14 10,-29 16,-45 19,-50 39,-100 61,-150 3,-7 6,-13 9,-20 19,-44 40,-87 62,-131 6,-14 14,-27 21,-41 21,-42 43,-83 66,-124 5,-8 9,-16 14,-24 28,-48 57,-95 87,-141 8,-13 17,-26 26,-39 22,-34 45,-66 68,-99 13,-17 26,-34 39,-52 20,-26 41,-53 61,-79 18,-22 36,-44 54,-65 17,-20 35,-40 53,-60 18,-20 37,-41 56,-60l-10808 -6281z"/>
   <g id="_1978526729488">
    <polygon class="fil2" points="55922,38692 59848,36410 64484,39087 60559,41369 "/>
    <polygon class="fil6" points="55336,38332 59148,36117 63649,38717 59838,40931 "/>
    <polygon class="fil22" points="59838,41635 63647,39421 63649,38717 59838,40931 "/>
    <path class="fil13" d="M58330 38939l3812 -2215 -6 10 -1 1 -3 5 -2 2 -2 3 -3 6 -7 10 -4 5 -3 5 -4 5 -4 5 -7 9 -4 5c-6,8 -12,16 -19,24l-4 4c-57,67 -123,123 -198,166l-3807 2212 0 0m5 -3l5 -3 5 -3 5 -3 10 -6 5 -4 5 -3 5 -3 5 -4 2 -1 3 -2 4 -3 5 -4 2 -1 3 -2 4 -4 5 -3 4 -4 1 0 4 -4 5 -3 1 -1 3 -3 5 -4 4 -4 1 0 4 -3 8 -7 1 -1 0 0 4 -4 5 -4 3 -4 1 0 4 -4 4 -4 4 -3 1 -1 4 -5 4 -4 3 -2 1 -2 4 -4 5 -5 2 -2 2 -2 8 -9 1 -1 7 -8 4 -4 1 -1 3 -4 7 -8 0 -1 1 -1 1 0 10 -13 0 0 11 -14 0 -1 10 -13 1 -1 10 -14 1 -1c7,-11 14,-21 20,-32m-261 259l-5 3"/>
    <polygon class="fil23" points="61283,37969 58701,39469 58530,39370 61112,37870 "/>
    <polygon class="fil23" points="61791,38295 59209,39796 59037,39697 61619,38196 "/>
    <polygon class="fil23" points="62314,38622 59732,40123 59561,40024 62143,38523 "/>
    <polygon class="fil24" points="59838,40931 55336,38332 55334,39037 59838,41635 "/>
    <path class="fil6" d="M61844 36942l-3812 2215c-26,15 -53,29 -81,41 -581,251 -1502,-177 -2080,-511 -311,-179 -524,-332 -530,-336l3812 -2215c6,4 218,157 530,336 578,334 1498,762 2079,511 28,-12 55,-26 82,-41z"/>
    <path class="fil25" d="M61871 36989l-3812 2215c314,-182 475,-574 477,-1165l3811 -2215c-2,591 -162,983 -476,1165z"/>
    <path class="fil26" d="M58536 38039c-2,642 -191,1048 -560,1207 -590,255 -1523,-179 -2107,-516 -314,-181 -527,-334 -533,-339l5 -40c6,4 218,156 530,336 578,334 1499,762 2079,511 361,-156 545,-553 547,-1182l39 23z"/>
    <polygon class="fil26" points="58497,38016 62308,35801 62347,35823 58535,38039 "/>
   </g>
   <path class="fil2" d="M2107 38375c-580,-19 -1044,-496 -1048,-1086l-9 0c-4,590 -469,1067 -1050,1086 582,19 1050,500 1050,1094l7 0c0,-594 468,-1075 1050,-1094z"/>
   <g id="_1978526723088">
    <path class="fil2" d="M49868 50984l-7424 -4286c-311,-179 -816,-179 -1124,0l-3884 2257c-308,179 -307,472 3,651l7425 4286c310,179 815,179 1123,0l3884 -2257c308,-179 307,-472 -3,-651z"/>
    <path class="fil6" d="M36529 49482l1 -378c-1,119 77,238 234,328l-1 378c-157,-90 -235,-209 -234,-328z"/>
    <path class="fil27" d="M36764 49432l-2 378 -7 -4 0 0 -7 -5 0 0 -7 -4 0 0 -7 -4 0 0c-137,-88 -206,-200 -205,-311l1 -372c2,117 80,233 234,322z"/>
    <path class="fil28" d="M49425 51138l-1 378c0,117 -77,234 -230,323l1 -378c153,-89 230,-206 230,-323z"/>
    <polygon class="fil6" points="41054,46957 41053,47335 37508,49395 37509,49017 "/>
    <polygon class="fil6" points="48358,50750 48357,51127 41789,47335 41790,46957 "/>
    <polygon class="fil6" points="48361,51176 48360,51554 44815,53614 44816,53236 "/>
    <path class="fil27" d="M47025 52338c114,66 115,173 1,239 -114,67 -299,67 -413,1 -115,-67 -116,-174 -2,-240 114,-66 299,-66 414,0z"/>
    <polygon class="fil6" points="44080,53236 44079,53614 37510,49821 37512,49444 "/>
    <path class="fil6" d="M46613 52577c114,67 299,67 413,0 114,-66 113,-173 -1,-239 -115,-66 -300,-66 -414,0 -114,66 -113,173 2,239zm-1797 659l3545 -2060c202,-117 200,-309 -3,-427l-6568 -3792c-203,-117 -534,-117 -736,0l-3545 2060c-201,118 -200,309 3,426l6568 3793c203,117 535,117 736,0zm4376 -2426c310,179 311,472 3,651l-3884 2257c-308,179 -813,179 -1123,0l-7425 -4286c-310,-179 -311,-472 -4,-651l3885 -2257c308,-179 813,-179 1124,0l7424 4286z"/>
    <path class="fil5" d="M48361 51177l-3005 1745 -540 314c-201,117 -533,117 -735,0l-6569 -3793c-203,-116 -204,-308 -3,-426l3326 -1931 219 -128c201,-117 533,-117 735,0l6569 3791c203,118 204,310 3,428z"/>
    <polygon class="fil22" points="49195,51461 49194,51839 45310,54096 45311,53718 "/>
    <polygon class="fil22" points="44188,53718 44187,54096 36763,49810 36763,49432 "/>
    <path class="fil24" d="M45311 53718l-1 378c-308,179 -814,179 -1123,0l1 -378c310,179 815,179 1123,0z"/>
    <path class="fil27" d="M39440 47534c31,18 32,47 0,65l-466 271c-31,18 -82,18 -113,0 -31,-18 -31,-47 0,-65l466 -271c31,-18 82,-18 113,0z"/>
    <path class="fil9" d="M45356 52922l-540 314c-201,117 -533,117 -735,0l-6569 -3793c-203,-116 -204,-308 -3,-426l3326 -1931c1748,1165 3501,2990 4521,5836z"/>
   </g>
   <path class="fil29" d="M83126 36638l2 644 489 -282c53,-31 102,-34 137,-16l-628 -346z"/>
   <polygon class="fil11" points="59907,43793 51468,48697 51292,48595 59731,43691 "/>
   <polygon class="fil11" points="66928,47846 58489,52751 58314,52650 66753,47746 "/>
   <polygon class="fil11" points="67514,48185 59075,53089 58901,52988 67340,48084 "/>
   <polygon class="fil11" points="66343,47509 57904,52413 57729,52312 66168,47408 "/>
   <polygon class="fil11" points="65758,47171 57319,52075 57145,51975 65584,47070 "/>
   <polygon class="fil11" points="65173,46833 56734,51738 56560,51637 64999,46733 "/>
   <polygon class="fil11" points="64587,46495 56148,51399 55973,51298 64412,46394 "/>
   <polygon class="fil11" points="64002,46157 55563,51061 55389,50961 63827,46056 "/>
   <polygon class="fil11" points="63417,45820 54978,50724 54804,50623 63243,45719 "/>
   <polygon class="fil11" points="62832,45482 54393,50386 54219,50285 62658,45381 "/>
   <polygon class="fil11" points="62248,45144 53809,50048 53633,49947 62071,45043 "/>
   <polygon class="fil11" points="61661,44806 53222,49710 53048,49609 61487,44705 "/>
   <polygon class="fil11" points="61076,44468 52637,49372 52463,49271 60902,44367 "/>
   <polygon class="fil11" points="60492,44130 52053,49035 51878,48934 60317,44030 "/>
   <polygon class="fil11" points="59320,43454 50881,48358 50707,48258 59146,43353 "/>
   <polygon class="fil11" points="58735,43117 50297,48021 50122,47920 58561,43016 "/>
   <polygon class="fil11" points="56130,43953 51733,46509 51558,46408 55955,43853 "/>
   <path class="fil30" d="M61851 41698l5592 3246c-5,-3 -11,-2 -19,3 -29,17 -71,75 -93,131 -17,39 -19,66 -8,72l-5592 -3246c-10,-6 -8,-33 8,-73 23,-55 64,-113 93,-130 8,-5 15,-6 19,-3z"/>
   <path class="fil31" d="M67342 45147c-29,17 -34,-14 -11,-69 22,-56 64,-114 93,-131 29,-17 33,14 11,70 -23,55 -65,113 -93,130z"/>
   <path class="fil32" d="M61731 41904l5592 3246c-9,-5 -9,-27 2,-59l-5591 -3247c-12,32 -12,55 -3,60z"/>
   <path class="fil17" d="M34818 43690c1616,1053 4752,1057 6488,237 1347,-630 1620,-1570 814,-2324 -1637,-1484 -6350,-1494 -7790,140 -563,637 -400,1378 488,1947z"/>
   <g id="_1978526783248">
    <path class="fil21" d="M33614 35322l-88 50c-309,180 -501,562 -503,1104 -3,1091 767,2425 1717,2973l87 -50c-949,-549 -1720,-1882 -1716,-2973 1,-543 193,-924 503,-1104z"/>
    <path class="fil33" d="M33526 35372c36,-19 81,-38 170,-47 89,-9 178,5 208,10 69,10 153,35 204,54 103,38 139,58 235,111 -51,-30 -95,-73 -127,-127 -866,-500 -1724,-11 -1728,1199 -3,1209 850,2686 1716,3187 103,-59 343,-198 536,-310 -950,-548 -1720,-1882 -1717,-2973 2,-542 194,-924 503,-1104z"/>
    <path class="fil31" d="M33526 35372l0 0 1 0c33,-18 75,-36 153,-45l4 -1 1 0 3 0c54,-6 118,-6 193,5l2 0 3 1 2 0 0 0 2 0 14 2 0 0c69,11 153,36 204,55l0 0c95,36 133,55 214,99l4 2 4 3 4 2 7 3c-6,-3 -11,-7 -17,-10l0 0 -9 -6 0 0 -2 -2 0 0 -2 -2 0 0 -3 -1 -2 -2 0 0 -2 -2 0 0 -2 -2 0 0 -2 -1 -1 0 -2 -2 -2 -2 0 0 -2 -2 0 0 -2 -1 0 0 -2 -2 0 0 -2 -2 0 0 -3 -2 0 0 -2 -2 0 0 -2 -2 0 0 -2 -2 0 0 -8 -7 0 0 -2 -2 0 -1c-19,-20 -37,-42 -52,-68 -229,-132 -457,-195 -670,-194l-7 0c-10,0 -21,1 -31,1l-3 0c-12,1 -24,1 -35,2l-1 0 -1 0c-11,1 -22,2 -32,4l-8 1c-10,1 -20,2 -30,4l-3 0c-22,4 -45,8 -67,13l-7 2c-10,2 -20,5 -30,8l-2 0c-22,6 -44,13 -65,21l-6 2c-32,11 -64,25 -95,40l-1 1c-21,10 -41,22 -62,34l-3 2c-9,5 -18,11 -27,17l-2 1c-20,13 -39,26 -57,41l-3 2c-9,7 -18,13 -26,21l-2 1c-18,15 -37,32 -54,49l-1 0c-26,26 -52,53 -76,83l-1 1c-25,29 -48,60 -70,93l-1 1c-14,22 -28,44 -42,68l0 1c-27,46 -52,96 -74,149l-1 3c-16,39 -31,80 -45,123l-1 2c-8,28 -16,56 -24,85l-2 8c-11,43 -20,88 -28,134l-2 8c-5,31 -10,63 -14,96l0 4c-2,14 -3,29 -5,43l-1 9c-3,34 -5,68 -7,103l0 1c-1,17 -1,34 -2,51l0 7c-1,17 -1,35 -1,53 0,19 0,38 1,57l0 0c0,38 2,76 4,115l0 0c1,19 3,38 4,57l0 0c2,20 4,39 6,59l0 0c2,19 4,38 6,58l0 0c5,39 10,78 16,117l0 0c3,20 7,40 10,59l0 0c4,20 7,40 11,60l0 0c4,19 8,39 12,59l0 0c8,39 17,79 27,118l0 0c5,20 10,40 15,60l0 0c5,20 10,39 16,59l0 0c22,79 47,159 73,237l0 0c14,39 28,79 43,118l0 0c7,19 14,39 22,58l0 0c8,20 15,39 23,59l0 0c8,19 16,38 24,58l0 0c8,19 17,38 25,57l0 0c8,20 17,39 25,58l0 0c18,38 35,76 54,114l0 0 28 56 0 0 28 56 0 0 29 55 0 0c20,37 40,73 60,109l0 0c11,18 21,36 31,54l0 0 32 54 0 0 32 52 0 0c11,18 22,35 33,52 11,17 22,35 33,52 11,17 23,34 34,50 11,17 23,34 34,50 12,17 24,33 35,49 12,17 24,33 36,49l0 0c11,16 23,32 35,48 12,15 24,31 36,46 13,16 25,31 37,46 12,15 25,30 37,45 12,15 25,30 37,44l0 0c13,15 25,29 38,44l0 0c12,14 25,28 38,42l0 0c191,208 393,379 596,497l0 0 5 -3 0 0 5 -3 0 0 5 -3 0 0 6 -3 0 0 5 -4 1 0 5 -3 0 0 6 -3 0 0 7 -4 0 0 6 -4 0 0 6 -3 1 0 6 -4 0 0 7 -4 0 0 7 -4 0 0 7 -4 0 0 8 -4 0 0 7 -5 0 0 7 -4 1 0 7 -5 0 0 8 -4 0 0 8 -5 8 -4 0 0 8 -5 0 0 8 -5 9 -5 0 0 8 -4 9 -5 0 0 9 -5 8 -5 9 -5 0 0 9 -6 0 0 9 -5 0 0 9 -5 0 0 9 -5 0 0 9 -6 0 0 10 -5 0 0 9 -5 0 0 9 -6 0 0 10 -5 0 0 9 -6 0 0 237 -137c-15,-8 -30,-17 -45,-26 -14,-9 -29,-18 -44,-27l0 0c-14,-10 -29,-19 -44,-29l0 0c-14,-9 -29,-19 -43,-29l0 0c-15,-10 -29,-21 -43,-31l0 0c-15,-10 -29,-21 -43,-32l0 0c-14,-10 -29,-21 -43,-32l0 0c-14,-11 -28,-23 -42,-34l0 0c-14,-11 -28,-23 -42,-35l0 0c-13,-11 -27,-23 -41,-35l0 0 -41 -37 0 0c-14,-12 -27,-24 -41,-37l0 0c-13,-13 -26,-25 -40,-38l0 0c-13,-13 -26,-26 -39,-39l0 0c-14,-14 -27,-27 -40,-40l0 0c-13,-14 -26,-27 -38,-41l-1 0c-12,-14 -25,-27 -38,-41 -13,-14 -25,-28 -38,-43l0 0c-12,-14 -25,-28 -37,-43 -12,-14 -25,-29 -37,-43l0 0c-12,-15 -24,-30 -36,-45l0 0c-12,-15 -24,-30 -36,-45l0 0c-12,-15 -23,-30 -35,-45 -12,-16 -23,-31 -34,-46l0 -1c-12,-15 -23,-31 -34,-46 -12,-16 -23,-32 -34,-48l0 0c-11,-16 -22,-32 -33,-48 -10,-16 -21,-32 -32,-48 -21,-33 -42,-65 -62,-98l0 0c-10,-17 -20,-34 -30,-50 -10,-17 -20,-34 -30,-51l-29 -50c-9,-17 -18,-34 -28,-51 -9,-17 -18,-34 -27,-52l0 0c-9,-17 -18,-34 -27,-51l0 0c-8,-18 -17,-35 -25,-52l0 0c-17,-35 -34,-70 -50,-105l0 0c-8,-18 -16,-35 -23,-53l0 0c-8,-18 -16,-35 -23,-53l0 0c-52,-124 -98,-249 -135,-375l0 0c-6,-18 -11,-36 -16,-54l0 0c-77,-269 -119,-538 -118,-794l0 0c0,-76 4,-149 12,-219l0 0c3,-23 5,-46 9,-68l0 0 3 -23 0 0 4 -22 0 0c2,-15 5,-29 8,-44l0 0 4 -21 0 0 5 -21 0 0 5 -21 0 0 5 -21 0 0 6 -20 0 0c3,-14 7,-27 11,-40l0 0 6 -20 0 0 7 -19 0 0 7 -19 0 0c4,-13 9,-25 14,-38l0 0 7 -18 7 -18 0 0 8 -18 0 0 8 -17 0 -1 9 -17 8 -17 9 -17 9 -16 9 -16 9 -16 0 0 10 -16 10 -15 0 0 10 -15 0 0 10 -15 0 0 10 -15 11 -14 0 0 11 -14 0 0 11 -14 11 -13 0 0 11 -13 0 0 12 -13 0 0 12 -13 0 0 12 -12 0 0 12 -12 0 0 13 -12 0 0 12 -12 0 0 13 -11 0 0 13 -11 0 0 13 -10 0 0 13 -11 0 0 14 -10 0 0 14 -9 0 0 14 -10 0 0 14 -9 0 0 14 -9 0 0 14 -9z"/>
    <path class="fil21" d="M34217 35106c-994,-574 -1958,-24 -1961,1332 -4,1356 953,3014 1947,3588 0,-18 1,-250 1,-267 -867,-501 -1719,-1978 -1716,-3187 4,-1210 862,-1699 1728,-1199 0,-18 1,-249 1,-267z"/>
    <path class="fil15" d="M33098 34636c424,-246 1009,-212 1655,161 -193,112 -433,250 -536,309 -994,-574 -1958,-24 -1961,1332 -4,1355 953,3014 1947,3588 31,54 76,96 127,126 -66,-39 -152,-94 -215,-137 -45,-30 -102,-73 -145,-106 -144,-112 -259,-225 -321,-285 -33,-32 -151,-149 -296,-325 -86,-105 -193,-251 -270,-362 -79,-114 -280,-421 -458,-816 -28,-63 -103,-228 -175,-437 -89,-257 -131,-441 -133,-449 -46,-206 -109,-490 -108,-872 0,-97 5,-228 20,-325 7,-51 15,-119 26,-169 17,-79 43,-185 67,-262 30,-100 93,-238 119,-286 84,-156 150,-238 185,-283 185,-230 401,-360 472,-402z"/>
    <path class="fil21" d="M35350 33662c1437,-830 3718,-801 5096,0 1402,815 1395,2136 -17,2951 -1411,815 -3693,815 -5095,0 -1403,-815 -1395,-2136 16,-2951z"/>
    <path class="fil34" d="M35360 34490c497,-286 1101,-472 1736,-558 29,-3 59,-7 89,-11 660,-78 1351,-49 1986,89 469,101 908,261 1284,480 1403,815 1395,2137 -16,2952 -809,467 -1903,666 -2954,598 -784,-51 -1543,-251 -2141,-599 -1402,-814 -1395,-2136 16,-2951z"/>
    <path class="fil35" d="M37485 38040c1051,68 2145,-131 2954,-598 1411,-815 1419,-2137 16,-2952 -376,-219 -815,-379 -1284,-480 -431,196 -1175,629 -1600,1412 -341,628 -477,1481 -86,2618z"/>
    <g>
     <path class="fil36" d="M36574 34219c-181,104 -182,274 -3,378 180,105 473,105 653,0 182,-104 182,-274 3,-378 -111,-64 -264,-89 -408,-74 -12,1 -23,2 -34,4 -78,12 -151,35 -211,70z"/>
     <path class="fil36" d="M36708 35036c-137,79 -138,207 -2,286 136,79 358,79 494,0 137,-79 138,-207 2,-286 -136,-79 -357,-79 -494,0z"/>
     <path class="fil36" d="M37776 34973c-56,32 -57,86 -1,118 56,33 148,33 204,0 57,-32 57,-85 1,-118 -56,-33 -147,-33 -204,0z"/>
     <path class="fil36" d="M36126 34809c-56,33 -56,86 0,118 56,33 147,33 204,0 56,-32 57,-85 0,-118 -56,-32 -147,-32 -204,0z"/>
     <path class="fil36" d="M36243 34497c-28,16 -29,42 -1,59 28,16 73,16 101,0 28,-17 28,-43 1,-59 -28,-16 -73,-16 -101,0z"/>
    </g>
    <path class="fil16" d="M40429 36613c-1412,815 -3693,815 -5095,0 -1403,-815 -1395,-2136 16,-2951 497,-287 1101,-473 1736,-558 30,-4 59,-8 89,-11 1147,-136 2384,54 3271,569 1402,815 1395,2136 -17,2951zm-5229 -3039c-1496,864 -1504,2342 -18,3206 1486,863 3902,863 5398,0 1495,-864 1503,-2342 17,-3206 -1485,-863 -3902,-863 -5397,0z"/>
    <path class="fil37" d="M37057 44268c-87,-10 -175,-21 -266,-34 -490,-64 -1161,-304 -1589,-553 -438,-237 -940,-712 -1063,-1214l-13 -56c-17,-97 -33,-182 -33,-281l-2 -718c-3,-1155 -7,-2310 -10,-3465 -3,-882 -5,-1765 -8,-2648l0 -151c2,269 83,517 226,748 138,221 340,433 605,624 86,63 178,123 278,181 596,346 1341,553 2117,622 1158,102 2385,-105 3281,-622 428,-247 734,-538 918,-848 132,-222 201,-453 208,-684l20 6938c2,570 -374,1139 -1127,1574 -484,285 -1231,521 -1790,584 -161,23 -315,39 -465,49 -438,28 -842,6 -1287,-46z"/>
    <path class="fil38" d="M34965 37182c116,1066 328,2247 649,3424 347,1276 823,2547 1443,3662 -87,-10 -175,-21 -266,-34 -490,-64 -1161,-304 -1589,-553 -438,-237 -940,-712 -1063,-1214l-13 -56c-17,-97 -33,-182 -33,-281l-2 -718 -4 -1416 0 -42 -1 -267 0 -2 -2 -764 0 -2 -1 -144 -10 -3396 0 -2 0 -78 0 -151c0,52 3,104 10,156 3,27 7,54 12,81 1,0 1,1 1,2 32,172 100,344 203,509 138,221 340,433 605,624 16,215 36,436 61,662z"/>
   </g>
   <g id="_1978526778064">
    <path class="fil30" d="M45299 40955c-93,-12 -139,-254 -103,-540 36,-287 141,-509 234,-498 93,12 139,254 103,540 -36,287 -140,510 -234,498z"/>
    <path class="fil17" d="M50001 42859c190,-298 -562,-1118 -1680,-1833 -1117,-714 -2178,-1052 -2368,-754 -190,297 562,1118 1680,1832 1118,714 2178,1052 2368,755z"/>
    <path class="fil30" d="M49080 37794c873,1151 1044,2725 729,4134 -39,174 -107,371 -275,429 -168,58 -354,-65 -432,-224 -79,-159 -78,-344 -83,-521 -23,-827 -203,-1588 -521,-2351 -346,505 -875,863 -1438,1105 -439,189 -951,312 -1388,119 -117,-52 -230,-131 -282,-248 -52,-116 -24,-275 87,-338 66,-37 146,-36 221,-41 367,-25 702,-226 973,-475 271,-249 491,-546 737,-820 177,-196 367,-381 569,-551 296,-248 722,-231 1108,-227l-5 9z"/>
    <path class="fil39" d="M46760 37950c18,113 36,226 54,338 10,61 19,124 3,183 -3,9 -7,18 -15,22 -11,4 -22,-5 -31,-13 -34,-34 -50,-73 -73,-115 -23,88 -47,176 -70,264 -4,16 -9,33 -22,45 -12,11 -35,13 -44,0 -5,-7 -6,-16 -6,-25 -3,-65 26,-157 34,-222 -49,79 -105,265 -156,260 -59,-43 -1,-190 28,-278 -26,30 -67,82 -96,108 -10,9 -23,18 -35,14 -18,-5 -19,-31 -15,-49 12,-51 42,-111 65,-157 -34,37 -130,115 -163,99 -10,-24 30,-70 45,-93 88,-140 190,-272 302,-394 68,-21 124,-21 196,-12l-1 25z"/>
    <path class="fil4" d="M48322 35501c-11,-80 -131,-74 -204,-40 -387,178 -705,484 -955,829 -250,344 -440,729 -627,1112 -49,101 -100,205 -111,317 -12,113 23,237 114,303 112,80 273,50 386,-29 112,-80 189,-198 272,-308 185,-243 414,-454 673,-618 190,-121 412,-234 494,-444 27,-69 36,-143 42,-216 25,-326 -16,-656 -120,-966l36 60z"/>
    <path class="fil39" d="M50375 37739c113,-15 226,-30 339,-45 61,-8 124,-16 183,2 8,3 18,7 21,16 4,11 -5,22 -13,30 -35,33 -75,48 -118,70 88,26 175,51 262,77 16,5 33,10 45,23 11,13 12,35 -2,44 -7,5 -16,6 -24,6 -66,0 -157,-30 -222,-41 78,51 262,113 256,164 -44,57 -190,-5 -277,-36 29,27 80,69 106,99 8,10 17,23 13,36 -6,17 -32,17 -50,12 -50,-12 -109,-44 -155,-69 36,35 112,134 95,166 -25,10 -70,-32 -92,-47 -138,-92 -267,-197 -386,-312 -19,-69 -17,-125 -7,-196l26 1z"/>
    <path class="fil4" d="M48832 35447c353,39 618,345 777,662 158,317 252,670 459,958 151,208 359,380 453,620 33,84 47,190 -14,257 -72,82 -202,61 -305,26 -873,-298 -1509,-1185 -1511,-2107 0,-83 5,-169 42,-243 37,-75 113,-135 196,-131 -10,-30 -21,-59 -31,-89l-66 47z"/>
    <path class="fil4" d="M48696 35377c-507,-31 -1011,339 -1134,832 -77,311 -16,641 -69,957 -24,144 -71,286 -70,432 1,227 123,441 289,595 329,303 845,383 1249,193 405,-189 674,-636 651,-1083 -11,-225 -89,-441 -132,-662 -53,-276 -53,-565 -158,-825 -106,-261 -363,-493 -640,-443 -25,4 -55,10 -75,-7 -19,-18 4,-61 24,-45l65 56z"/>
    <path class="fil39" d="M49234 34895c0,403 -237,729 -528,729 -292,0 -528,-326 -528,-729 0,-402 236,-729 528,-729 291,0 528,327 528,729z"/>
    <path class="fil40" d="M47437 37400c0,0 52,-66 142,-155 89,-89 216,-198 334,-316 117,-117 217,-252 263,-366 24,-56 39,-105 46,-141 7,-35 11,-55 11,-55l38 7c0,0 -4,20 -13,57 -7,37 -23,88 -50,146 -50,119 -155,255 -276,372 -120,117 -249,224 -339,311 -90,86 -143,151 -143,151l-13 -11z"/>
    <path class="fil36" d="M48243 35277c-151,-99 -281,-240 -347,-407 -66,-167 -38,-381 104,-492 -24,-51 -19,-120 10,-167 73,-118 323,-274 452,-299 64,-12 131,-10 196,-4 193,16 384,58 566,124 104,38 181,132 187,243 5,86 -9,169 -62,235 -61,74 -159,104 -252,126 -264,61 -538,77 -807,49 50,195 38,390 -26,581 -7,-3 -36,-31 -37,-39l16 50z"/>
    <path class="fil39" d="M48284 34880c56,67 74,163 40,214 -34,51 -108,38 -163,-30 -57,-67 -74,-163 -40,-214 34,-51 107,-37 163,30z"/>
    <path class="fil30" d="M50021 42839c-52,79 -289,15 -531,-144 -241,-158 -396,-350 -344,-428 51,-79 289,-14 530,144 242,158 396,350 345,428z"/>
   </g>
   <g id="_1978526773776">
    <path class="fil17" d="M57813 33561c-650,-793 -2174,-1002 -3102,-966 -826,23 -1923,250 -2542,856 -584,590 -386,1324 589,1815 631,322 1408,449 2113,459 829,12 1889,-153 2588,-643 644,-445 762,-1024 354,-1521z"/>
    <g>
     <path class="fil41" d="M52888 27947l1 -378c-1,119 77,238 234,328l-2 378c-156,-90 -234,-210 -233,-328z"/>
     <path class="fil41" d="M53122 27897l-1 378 -7 -5 0 0 -7 -4 0 0 -7 -4 0 0 -7 -5 0 0c-137,-87 -206,-199 -205,-310l1 -373c2,117 80,234 233,323z"/>
     <path class="fil42" d="M56457 28475c-71,58 -152,113 -240,164 -28,18 -58,33 -87,47 -179,95 -375,171 -585,228 -93,26 -189,48 -286,67 -262,49 -537,71 -810,66 -94,-1 -187,-6 -280,-14 -19,-1 -36,-3 -55,-4 -317,-31 -626,-100 -905,-203 -74,-27 -146,-56 -214,-89 -40,-20 -79,-40 -118,-62 -3,-1 -7,-3 -10,-6 -21,-9 -38,-19 -56,-30 -757,-437 -910,-1089 -458,-1613 66,-73 140,-144 228,-211 8,-6 16,-13 24,-19 31,-23 65,-46 99,-69 31,-21 63,-41 96,-59 270,-155 586,-267 924,-334 105,-20 212,-37 321,-48 93,-11 186,-18 280,-21 385,-17 775,20 1135,110 95,23 186,51 276,80 166,59 324,129 468,213 110,63 208,133 293,204 95,81 172,165 234,251 316,442 225,957 -274,1352z"/>
     <path class="fil22" d="M57108 27661l-19 6449 0 23c0,17 -4,36 -6,53 -1,28 -5,54 -9,82 0,5 0,10 -2,14 -3,17 -11,34 -15,53 -6,26 -13,51 -22,77 -1,5 -3,11 -5,16 -6,17 -15,32 -21,48 -13,26 -24,54 -39,81 -3,6 -5,14 -9,20 -7,12 -17,25 -25,37 -19,31 -39,60 -62,91 -6,8 -11,17 -17,27 -16,20 -34,38 -51,59 -5,6 -11,14 -17,20 -30,32 -61,63 -93,94 -5,5 -11,8 -16,13 -25,23 -53,45 -81,66 -23,19 -46,39 -72,58 -30,22 -62,42 -93,62 -24,15 -44,31 -67,45 -11,6 -22,12 -33,18 -77,45 -159,86 -245,124 -24,11 -49,22 -74,33 -67,26 -135,53 -205,76 -15,6 -29,12 -45,18 -6,2 -12,4 -18,5 -5,2 -8,2 -11,3 -43,14 -88,27 -133,39 -34,9 -69,19 -103,26 -48,13 -96,22 -144,31 -28,7 -56,14 -83,19 -5,0 -10,2 -14,2 -98,17 -197,31 -297,41 -7,0 -14,2 -21,3 -23,2 -48,2 -72,5 -58,5 -116,9 -175,11 -14,2 -28,3 -42,3 -23,2 -48,0 -71,0 -48,2 -94,2 -142,2 -18,-2 -36,0 -53,0 -22,-2 -44,-3 -67,-3 -43,-4 -88,-5 -132,-8 -18,-2 -38,-2 -57,-3 -22,-2 -42,-5 -62,-7 -43,-4 -87,-9 -130,-15 -20,-3 -42,-3 -61,-6 -18,-3 -37,-8 -55,-10 -47,-7 -93,-15 -138,-24 -22,-5 -44,-7 -66,-11 -14,-3 -27,-8 -43,-11 -54,-12 -107,-25 -161,-40 -22,-5 -45,-10 -67,-16 -8,-3 -14,-6 -22,-8 -96,-28 -189,-59 -279,-94 -4,-2 -10,-3 -15,-5 -40,-15 -78,-34 -118,-51 -22,-9 -45,-19 -67,-29 -65,-31 -128,-64 -190,-100 -512,-296 -768,-683 -768,-1072l19 -6445c0,388 256,774 767,1069 62,35 126,68 191,100 22,10 45,19 67,28 43,20 87,39 131,56 92,36 185,67 280,95 29,9 60,17 89,24 53,14 107,28 162,39 35,8 71,16 108,22 45,9 92,17 138,25 39,6 76,10 116,15 42,6 86,11 131,16 38,3 79,6 119,9 43,3 88,6 132,8 40,1 79,3 119,3 48,0 95,0 143,-2 37,0 74,-1 111,-3 59,-1 118,-6 177,-11 31,-3 62,-4 93,-7 99,-11 198,-25 295,-42 34,-5 66,-13 99,-20 48,-10 96,-19 142,-30 36,-9 69,-18 103,-28 45,-12 90,-25 135,-39 24,-7 49,-17 74,-24 70,-25 138,-50 205,-78 24,-11 49,-22 74,-32 84,-38 167,-79 245,-124 36,-21 67,-42 99,-64 20,-12 40,-26 61,-40 11,-7 21,-14 32,-22 27,-19 48,-39 73,-57 26,-22 54,-44 79,-65 40,-36 76,-72 110,-109 6,-6 11,-12 17,-20 25,-28 47,-56 68,-85 24,-30 44,-61 62,-90 11,-21 24,-39 35,-59 14,-27 26,-53 38,-81 10,-22 19,-42 27,-63 9,-25 15,-52 21,-78 7,-22 13,-45 17,-67 5,-26 7,-54 10,-82 3,-25 6,-49 6,-76z"/>
     <path class="fil43" d="M52811 28640c943,545 2467,545 3405,0 937,-545 932,-1427 -12,-1972 -943,-545 -2467,-545 -3404,0 -937,545 -932,1427 11,1972zm3529 -2051c1019,588 1025,1542 13,2130 -1012,588 -2659,588 -3678,0 -1020,-588 -1024,-1542 -12,-2130 1012,-588 2658,-589 3677,0z"/>
     <path class="fil21" d="M52995 28737c-40,-20 -79,-40 -118,-62l-272 -1879 -889 -6132 117 48 871 6015 291 2010z"/>
     <polygon class="fil12" points="51833,20712 51716,20664 52682,19907 52799,19955 "/>
     <path class="fil6" d="M54114 29029c-399,-39 -787,-137 -1119,-292l-291 -2010 -871 -6015 967 -757 924 6379 390 2695z"/>
     <path class="fil34" d="M57370 23972l-639 3151 -274 1352c-71,58 -152,113 -240,164 -28,18 -58,33 -87,47l367 -1814 600 -2958c0,5 3,11 11,16 6,8 17,14 29,20l2 0c12,5 28,11 43,16 17,4 34,9 52,12l1 0c17,5 36,6 53,8l34 0c9,0 18,-2 25,-3l1 0c6,-2 13,-5 16,-7 1,-1 4,-3 6,-4z"/>
     <path class="fil16" d="M57361 23947c29,26 -3,43 -73,38 -70,-4 -151,-29 -181,-54 -29,-26 3,-43 74,-39 69,5 150,29 180,55z"/>
     <path class="fil34" d="M55889 24449l-46 613 -107 1393 -191 2459c-93,26 -189,48 -286,67l201 -2606 150 -1951c0,7 4,13 13,19 6,3 14,8 22,11 3,2 6,2 10,3 2,2 5,2 8,3 3,0 6,2 8,2 3,1 6,1 9,3 2,0 5,0 6,1 3,0 7,0 8,2 3,0 6,0 8,1l8 0c3,2 6,2 7,2 4,0 7,2 8,2l8 0c3,1 6,1 9,1l8 0c1,0 5,2 8,2l51 0c8,-2 15,-2 22,-3 4,0 9,0 14,-2 3,0 6,-2 9,-2 3,-1 5,-1 8,-1 1,-2 3,-2 4,-3 3,0 5,0 6,-2 0,0 2,-1 4,-1 1,0 3,-2 3,-2 1,-1 3,-1 3,-3 1,0 1,0 3,-1l1 -2c2,-2 2,-2 2,-3 1,0 1,-2 1,-2z"/>
     <path class="fil16" d="M55877 24428c33,22 2,43 -68,47 -70,4 -153,-10 -186,-32 -32,-22 -2,-43 68,-47 70,-4 154,10 186,32z"/>
     <path class="fil34" d="M54449 29047c-94,-1 -187,-6 -280,-14l-124 -2747 -127 -2846c0,6 4,13 15,17 6,3 14,6 22,8 3,1 8,1 11,3 3,0 6,0 9,2 3,0 5,0 8,1l7 0c4,0 7,2 8,2l16 0c3,0 6,1 9,1l31 0c3,-1 5,-1 8,-1l17 0c3,-2 8,-2 11,-2 11,-1 21,-3 31,-5 7,-1 15,-3 21,-4 5,-2 10,-3 14,-3 3,-2 7,-3 10,-3 1,-2 4,-3 6,-3 1,-2 3,-2 6,-4 2,0 3,-1 3,-1 2,-2 3,-2 5,-3 1,0 1,-2 3,-2l3 -3 2 -1c1,-2 1,-2 1,-4 2,0 2,-1 2,-1 0,-2 1,-2 1,-3l127 2834 124 2782z"/>
     <path class="fil16" d="M54183 23412c35,17 7,42 -62,54 -69,13 -153,9 -188,-9 -35,-18 -7,-42 62,-55 69,-12 153,-8 188,10z"/>
     <path class="fil34" d="M53209 28826c-74,-27 -146,-56 -214,-89 -40,-20 -79,-40 -118,-62 -3,-1 -7,-3 -10,-6l-514 -1643 -587 -1885c1,6 8,9 19,12 6,2 14,2 23,2l12 0c14,-2 31,-3 47,-7l51 -13c18,-7 36,-13 51,-21 11,-4 20,-10 28,-15 2,0 2,0 2,-2 9,-4 15,-9 20,-14l1 0c5,-4 9,-9 11,-14 2,-3 3,-6 3,-7l547 1753 628 2011z"/>
     <path class="fil16" d="M52014 25045c39,9 18,39 -45,69 -64,30 -146,47 -185,39 -38,-8 -18,-39 46,-69 63,-30 146,-47 184,-39z"/>
     <path class="fil44" d="M57108 27661l-19 6449 0 23c0,17 -4,36 -6,53 -1,28 -5,54 -9,82 0,5 0,10 -2,14 -3,17 -11,34 -15,53 -6,26 -13,51 -22,77 -1,5 -3,11 -5,16 -6,17 -15,32 -21,48 -13,26 -24,54 -39,81 -3,6 -5,14 -9,20 -7,12 -17,25 -25,37 -19,31 -39,60 -62,91 -6,8 -11,17 -17,27 -16,20 -34,38 -51,59 -5,6 -11,14 -17,20 -30,32 -61,63 -93,94 -5,5 -11,8 -16,13 -25,23 -53,45 -81,66 -23,19 -46,39 -72,58 -30,22 -62,42 -93,62 -24,15 -44,31 -67,45 -11,6 -22,12 -33,18 -77,45 -159,86 -245,124 -24,11 -49,22 -74,33 -67,26 -135,53 -205,76 -15,6 -29,12 -45,18 -6,2 -12,4 -18,5 632,-2331 790,-4779 766,-6808 11,-7 21,-14 32,-22 27,-19 48,-39 73,-57 26,-22 54,-44 79,-65 40,-36 76,-72 110,-109 6,-6 11,-12 17,-20 25,-28 47,-56 68,-85 24,-30 44,-61 62,-90 11,-21 24,-39 35,-59 14,-27 26,-53 38,-81 10,-22 19,-42 27,-63 9,-25 15,-52 21,-78 7,-22 13,-45 17,-67 5,-26 7,-54 10,-82 3,-25 6,-49 6,-76z"/>
    </g>
   </g>
  </g>
 </g>
</svg>
