<?xml version="1.0" encoding="UTF-8"?>
<!DOCTYPE svg PUBLIC "-//W3C//DTD SVG 1.1//EN" "http://www.w3.org/Graphics/SVG/1.1/DTD/svg11.dtd">
<!-- Creator: CorelDRAW X7 -->
<svg xmlns="http://www.w3.org/2000/svg" xml:space="preserve" width="9.51559in" height="5.75016in" version="1.1" style="shape-rendering:geometricPrecision; text-rendering:geometricPrecision; image-rendering:optimizeQuality; fill-rule:evenodd; clip-rule:evenodd"
viewBox="0 0 95156 57502"
 xmlns:xlink="http://www.w3.org/1999/xlink">
 <defs>
  <style type="text/css">
   <![CDATA[
    .fil13 {fill:none;fill-rule:nonzero}
    .fil45 {fill:#5C589A}
    .fil44 {fill:#9A97C9}
    .fil41 {fill:#D3B076}
    .fil40 {fill:#DBBE8A}
    .fil21 {fill:#E9D1A9}
    .fil1 {fill:#EDDFC4}
    .fil22 {fill:#F4E3C8}
    .fil0 {fill:#F6EFE2}
    .fil24 {fill:white}
    .fil3 {fill:#093153;fill-rule:nonzero}
    .fil14 {fill:#348CD1;fill-rule:nonzero}
    .fil19 {fill:#5C589A;fill-rule:nonzero}
    .fil34 {fill:#5D4D30;fill-rule:nonzero}
    .fil18 {fill:#657AA9;fill-rule:nonzero}
    .fil37 {fill:#6CA0BA;fill-rule:nonzero}
    .fil39 {fill:#75613D;fill-rule:nonzero}
    .fil27 {fill:#7C94CA;fill-rule:nonzero}
    .fil32 {fill:#7F97CB;fill-rule:nonzero}
    .fil5 {fill:#8480BC;fill-rule:nonzero}
    .fil43 {fill:#879ED0;fill-rule:nonzero}
    .fil42 {fill:#8AA1D1;fill-rule:nonzero}
    .fil8 {fill:#908DC3;fill-rule:nonzero}
    .fil4 {fill:#9A97C9;fill-rule:nonzero}
    .fil9 {fill:#9F9CCB;fill-rule:nonzero}
    .fil35 {fill:#9FAED1;fill-rule:nonzero}
    .fil20 {fill:#A18654;fill-rule:nonzero}
    .fil12 {fill:#A38755;fill-rule:nonzero}
    .fil26 {fill:#A6B7DE;fill-rule:nonzero}
    .fil10 {fill:#A9A6D0;fill-rule:nonzero}
    .fil7 {fill:#ADAAD3;fill-rule:nonzero}
    .fil30 {fill:#B7C4E3;fill-rule:nonzero}
    .fil38 {fill:#BB9B61;fill-rule:nonzero}
    .fil31 {fill:#BBBAB9;fill-rule:nonzero}
    .fil28 {fill:#BECAE6;fill-rule:nonzero}
    .fil11 {fill:#D2AE6D;fill-rule:nonzero}
    .fil25 {fill:#D7B377;fill-rule:nonzero}
    .fil15 {fill:#DBBE8A;fill-rule:nonzero}
    .fil33 {fill:#DEE4F2;fill-rule:nonzero}
    .fil2 {fill:#DFC596;fill-rule:nonzero}
    .fil36 {fill:#E5D0AA;fill-rule:nonzero}
    .fil17 {fill:#E6D2AC;fill-rule:nonzero}
    .fil29 {fill:#ECEFF8;fill-rule:nonzero}
    .fil16 {fill:#EDDFC4;fill-rule:nonzero}
    .fil23 {fill:#F6EFE2;fill-rule:nonzero}
    .fil6 {fill:white;fill-rule:nonzero}
   ]]>
  </style>
 </defs>
 <g id="Layer_x0020_1">
  <metadata id="CorelCorpID_0Corel-Layer"/>
  <g id="_2313661219280">
   <g>
    <path class="fil0" d="M94690 27288c157,61 313,118 466,173l0 18035c-2487,448 -5741,-201 -11193,-2517 -24241,-10297 -30197,2010 -33572,14523l-44444 0c-3568,-6275 -1523,-14420 6781,-17943 10325,-1759 14169,1836 22178,2831 5135,638 8488,-1453 10110,-8652 1856,-8238 6450,-13968 13465,-16121 15073,-4628 25246,5484 36209,9671z"/>
    <path class="fil1" d="M95156 41017l0 16485 -51861 0c3743,-2771 3656,-8416 5876,-13271 2557,-5590 8055,-9050 14566,-9994 13041,-1892 23580,10769 31419,6780z"/>
    <path class="fil1" d="M74231 21911c-12538,-3687 -24377,407 -27245,13137 -1118,4960 -1347,10415 -8162,11011 -9072,792 -13454,-7792 -26096,-6500 8009,-3397 21210,225 26404,-2102 4655,-2086 3990,-7379 3687,-12504 -587,-9913 8374,-16253 19897,-14202 4714,839 9284,2551 13813,2317 3423,-177 5451,-1927 7215,-4068 3435,-4167 5623,-8239 11412,-9000l0 31508c-6499,-578 -13691,-7470 -20925,-9597z"/>
   </g>
   <path class="fil2" d="M61745 34493l13076 7956 9553 -5289c215,-119 215,-429 0,-547l-13382 -7392 -9247 5272z"/>
   <path class="fil3" d="M83754 36984l-13187 -7663c0,0 0,0 1,0l13186 7663 0 0z"/>
   <path class="fil4" d="M70548 22458l13190 7665c-36,-21 -86,-18 -141,13l-13190 -7665c55,-31 105,-34 141,-13z"/>
   <path class="fil3" d="M74350 42378l-13190 -7665c-225,-131 -366,-410 -367,-807l13190 7665c1,397 141,676 367,807z"/>
   <path class="fil5" d="M74350 42378l-13190 -7665 -10 -6 0 0 -11 -7 -10 -6 -10 -7 0 0 -10 -7 -10 -8 -10 -7 -9 -8 0 0 -10 -8 -9 -8 -9 -9 -9 -8 -9 -9 0 0 -9 -9 -9 -9 -8 -10 -8 -9 -9 -10 0 0 -8 -10 -8 -10 -7 -11 0 0 -8 -10 0 0 -7 -11 -8 -11 -7 -12 -7 -11 -7 -12 0 0 -6 -12 -7 -12 0 0 -6 -12 -6 -12 0 0 -6 -13 -6 -13 0 0 -6 -13 -6 -13 0 0 -5 -13 0 0 -5 -14 -5 -14 -5 -14 0 0 -5 -14 -4 -14 -4 -15 -1 0 -4 -15 -4 -15 0 0 -3 -15 0 0 -4 -15 -3 -15 -4 -16 0 0 -3 -16 0 0 -3 -16 0 0 -2 -16 -3 -17 -2 -16 0 0 -2 -17 -2 -17 0 0 -2 -17 0 0 -1 -17 0 0 -2 -18 0 0 -1 -17 0 0 -1 -18 0 0 -1 -18 0 0 0 -18 -1 -19 0 0 0 -18 0 0 13190 7665c1,397 141,676 367,807z"/>
   <path class="fil6" d="M83110 30876l18 6406 -7883 4552c-238,137 -453,151 -610,61 -157,-89 -254,-280 -254,-554l-13 -4427c-1,-274 94,-576 250,-846 156,-270 370,-504 609,-641l7883 -4551z"/>
   <polygon class="fil5" points="73983,41571 60793,33906 60781,29479 73970,37144 "/>
   <polygon class="fil7" points="75225,34970 62036,27305 70407,22471 83597,30136 "/>
   <path class="fil8" d="M73970 37144l-13189 -7665c-3,-799 559,-1773 1255,-2174l13189 7665c-695,401 -1257,1374 -1255,2174z"/>
   <path class="fil5" d="M73970 37144l-13189 -7665c0,-24 0,-48 1,-73l0 -3 0 0 0 -1 2 -34 0 -3 0 -1 0 -4 3 -33 0 -1 0 -4 3 -31 0 -2 0 -2c2,-18 5,-37 7,-55l13189 7665c-10,84 -16,166 -16,247z"/>
   <path class="fil9" d="M73986 36897l-13189 -7665 2 -19 1 -2 5 -36 0 -3 0 0 1 -2 5 -33 1 -3 0 -1 0 -1 6 -33 1 -3 0 -2 1 -1 0 -2 6 -31 1 -2 13189 7665c-12,58 -22,116 -30,174z"/>
   <polygon class="fil5" points="74016,36723 60827,29058 60827,29055 60827,29055 60835,29019 60836,29017 60836,29016 60836,29015 60837,29013 60837,29010 60838,29008 60842,28990 60843,28988 60843,28985 60844,28983 60844,28981 60845,28979 60847,28972 60847,28970 60848,28967 60848,28965 60849,28963 60850,28961 60850,28958 60851,28956 60851,28954 60852,28952 60853,28949 60853,28947 60854,28945 60854,28943 60856,28936 60857,28934 60857,28931 60858,28929 60859,28927 60859,28924 60860,28922 60860,28920 60861,28918 60862,28915 60862,28913 74052,36578 74051,36580 74051,36583 74050,36585 74049,36587 74049,36589 74048,36592 74048,36594 74047,36596 74046,36598 74046,36601 74045,36602 74045,36603 74044,36605 74044,36607 74043,36610 74043,36612 74042,36614 74042,36617 74037,36632 74037,36635 74036,36637 74036,36639 74035,36641 74035,36641 74035,36644 74034,36646 74034,36648 74027,36675 74026,36678 74026,36680 74026,36681 74025,36682 74025,36684 74018,36716 74017,36718 74017,36720 74017,36720 "/>
   <path class="fil10" d="M74091 36450l-13190 -7665 1 -2 1 -2 0 -1 0 -1 1 -2 0 -1 1 -2 1 -2 4 -11 0 -2 3 -10 1 -1 1 -2 0 -2 1 -2 1 -2 0 0 0 -2 1 -2 1 -1 0 -2 1 -2 9 -24 0 -2 1 -2 1 -2 0 0 0 -2 13 -33 13190 7665 -14 35 0 0c-10,28 -20,56 -29,84z"/>
   <polygon class="fil9" points="74134,36331 60944,28666 60944,28666 60945,28664 60945,28662 60945,28662 60946,28661 60947,28659 60947,28657 60948,28655 60949,28654 60956,28634 60957,28632 60958,28631 60959,28629 60959,28627 60960,28625 60961,28624 60961,28623 60961,28622 60962,28620 60963,28618 60964,28616 60964,28615 60965,28613 60966,28611 60974,28592 60974,28590 60975,28588 60976,28586 60977,28585 60977,28584 60977,28583 60978,28581 60979,28579 60980,28578 60980,28576 60981,28574 60989,28555 60990,28553 74180,36218 74167,36249 74166,36250 74166,36251 74152,36285 74151,36287 74151,36288 74150,36288 74150,36290 74136,36326 74135,36327 74135,36327 74134,36329 "/>
   <polygon class="fil10" points="74180,36218 60990,28553 60990,28553 60991,28551 60992,28550 60992,28548 60993,28546 60993,28545 60994,28544 60995,28543 60995,28541 60996,28539 60997,28538 60998,28536 60999,28534 61008,28512 61009,28510 61010,28508 61011,28507 61011,28507 61011,28505 61012,28503 61013,28502 61014,28500 61016,28495 61017,28493 61018,28491 61023,28479 61024,28478 61025,28476 61026,28474 61026,28473 61027,28471 61028,28469 61028,28469 61029,28467 61030,28466 61030,28464 61031,28462 61032,28461 61033,28459 61034,28457 61035,28456 61035,28454 61036,28452 61037,28450 61038,28449 61039,28447 61039,28445 61040,28444 74230,36109 74222,36126 74221,36127 74220,36129 74219,36131 74219,36132 74218,36133 74218,36134 74217,36136 74216,36138 74202,36168 74201,36170 74200,36172 74200,36172 74200,36173 74199,36175 74185,36206 74184,36208 74184,36209 74183,36210 74183,36211 "/>
   <path class="fil9" d="M74230 36109l-13190 -7665 3 -5 0 -2 1 -2 1 -1 1 -2 1 -2 0 0 1 -1 0 -2 1 -2 1 -1 1 -2 1 -2 1 -2 0 -1 1 -2 4 -7 0 -1 1 -2 1 -2 1 -1 1 -2 1 -2 0 -1 1 -2 1 -2 1 -1 0 0 1 -2 1 -2 1 -1 0 -2 1 -2 11 -21 1 -2 1 -2 1 -1 1 -2 0 -1 1 -1 1 -1 0 -2 8 -13 13189 7665c-9,17 -18,35 -28,53l0 2 -1 0 0 1 -1 2 -1 2 -1 1 -1 2 0 2 -10 18 0 2 -1 1 -1 2 -1 2 -1 1 -1 2 0 0 0 2 -1 2 -1 1 -4 9z"/>
   <path class="fil5" d="M74284 36002l-13189 -7665 8 -15 0 -2 1 -2 1 -1 0 0 1 -2 1 -2 1 -1 1 -2 1 -2 1 -1 10 -19 1 -1 1 -2 1 -2 0 -1 1 -2 1 0 0 -2 1 -1 1 -2 1 -2 1 -1 1 -2 2 -3 1 -2 2 -3 1 -2 1 -2 1 -1 0 -2 1 -2 1 -1 1 -2 1 -1 1 -2 7 -12 1 -1 1 -2 1 -2 13189 7666 -6 11 -1 1 -21 37 0 0c-10,19 -21,38 -31,57z"/>
   <path class="fil5" d="M74343 35895l-13189 -7664 7 -12 1 -2 0 -2 2 -1 1 -2 0 -2 1 -1 2 -2 2 -3 0 -2 1 -2 2 -1 1 -2 1 -2 1 -1 1 -2 1 -2 1 -1 1 -2 1 -2 1 -1 1 -2 1 -2 1 -1 1 -2 11 -18 1 -2 1 -2 6 -10 1 -1 1 -2 10 -15 1 -1 1 -2 13189 7665 -5 8 -1 1 0 1 -1 2c-20,31 -39,63 -58,94z"/>
   <path class="fil9" d="M74408 35789l-13189 -7665 1 -2 1 -1 1 -2 1 -2 1 -2 1 -1 1 -2 2 -2 1 -1 1 -2 1 -2 1 -2 1 -1 1 -2 2 -3 2 -2 1 -2 1 -2 1 -1 1 -2 1 -2 1 -1 4 -6 1 -1 1 -2 3 -5 2 -2 1 -2 1 -1 1 -2 1 -2 0 0 1 -1 1 -2 2 -2 1 -1 1 -2 2 -3 1 -2 1 -2 7 -10 2 -2 1 -1 1 -2 1 -2 1 -1 1 -2 0 0 2 -2 1 -1 1 -2 5 -7 13189 7665c-18,26 -35,52 -53,78l-1 2 -1 1 -1 2 0 0 -1 2 -16 24z"/>
   <polygon class="fil5" points="74481,35680 61292,28015 61293,28013 61303,27999 61304,27997 61306,27995 61307,27994 61308,27993 61308,27992 61309,27990 61326,27967 61328,27965 61329,27963 61330,27961 61332,27960 61332,27958 61333,27958 61334,27956 61336,27954 61337,27952 61338,27951 61339,27949 61341,27947 61342,27945 61343,27944 61345,27942 61346,27940 61347,27938 61349,27937 61350,27935 61351,27933 61353,27931 61365,27916 61366,27914 61367,27912 61369,27910 61370,27909 61371,27907 61373,27905 61374,27903 61375,27902 74565,35567 74564,35568 74562,35570 74561,35572 74558,35575 74557,35577 74554,35580 74553,35582 74552,35584 74550,35586 74549,35587 74548,35589 74547,35589 74546,35591 74545,35593 74544,35594 74542,35596 74525,35619 74524,35621 74522,35623 74522,35623 74521,35625 74520,35626 74519,35628 74498,35657 74497,35657 "/>
   <path class="fil5" d="M74565 35567l-13190 -7665 2 -2 1 -2 2 -2 2 -2 1 -2 0 -1 2 -1 1 -2 2 -2 1 -2 2 -2 2 -2 1 -2 2 -2 1 -2 2 -2 1 -2 2 -2 2 -2 9 -12 2 -2 1 -2 3 -4 2 -2 2 -2 1 -2 2 -1 1 -3 2 -1 2 -2 1 -2 8 -10 2 -2 1 -2 2 -2 2 -2 3 -4 1 -1 2 -2 2 -2 3 -4 2 -2 1 -2 2 -2 0 0 1 -2 2 -2 12 -13 13189 7665 -14 17 -1 0 -25 31 -1 1 -1 1 -2 2c-16,19 -32,39 -47,59l-2 2 -1 1 0 1 -8 10z"/>
   <path class="fil4" d="M83597 30136c110,-63 199,-12 199,114 0,126 -88,280 -198,343l-488 283 -7883 4551c-239,137 -453,371 -609,641 -156,270 -251,572 -250,846l13 4427c0,274 97,465 254,554 157,90 372,76 610,-61l7883 -4552 489 -282c109,-63 198,-12 198,114 1,126 -88,280 -197,343l-8372 4834c-695,400 -1261,79 -1263,-720l-13 -4427c-2,-800 560,-1773 1255,-2174l8372 -4834z"/>
   <polygon class="fil11" points="75884,37022 77620,36020 81683,33632 75884,37106 "/>
   <polygon class="fil2" points="77273,36245 77281,39276 76585,39070 75893,40078 75884,37047 "/>
   <polygon class="fil4" points="63644,31762 63635,34858 62751,34347 62759,31251 "/>
   <path class="fil12" d="M69993 23561l10807 6281c-28,-17 -66,-14 -109,10l-10807 -6280c42,-25 81,-27 109,-11z"/>
   <path class="fil13" d="M80791 29837l0 0 -10807 -6280 1 0 0 0 1 0 0 1 0 0 0 0 1 0 0 0 0 0 1 0 0 0 0 1 0 0 1 0 0 0 0 0 1 0 0 0 0 1 0 0 1 0 0 0 0 0 1 0 0 1 10807 6280 0 0 0 0 0 0m-1 -1l0 0 -1 0 0 0 0 0 -1 -1 0 0 0 0 -1 0 0 0 0 0 -1 0 0 -1 -1 0 0 0 0 0 -1 -1 0 0 -1 0m7 3l1 1"/>
   <polygon class="fil14" points="80797,29840 69992,23561 69992,23561 69993,23561 80797,29840 "/>
   <polygon class="fil12" points="80441,29997 69633,23716 69884,23571 80691,29852 "/>
   <path class="fil13" d="M66434 29376l-3601 -2093 0 0 -1 -1 -1 0m3 1l0 1 5313 3087m-5313 -3088l-1 0"/>
   <path class="fil13" d="M74244 33562l-10807 -6280c49,-20 99,-45 149,-74l8714 5063m2094 1217l-3 1 -2 2 -3 1 -4 3 -2 1 -1 0 -2 1 -2 2 -3 1 -2 1 -3 2 -1 0 -1 1 -2 1 -3 2 -2 1 -2 1 -3 1 -1 1 -1 1 -2 1 -3 1 -2 1 -3 2 -2 1 0 0 -2 1 -3 1 -2 1 -2 2 -3 1 -2 1 0 0 -2 1 -3 1 -2 2 -2 1 -3 1 -1 1 -1 0 -2 1 -3 1 -2 1 -2 2 -3 1 -2 1 -2 1 -3 1 -2 1 -2 1 -3 1 0 0 -2 1 -2 1 -3 1 -2 1 -2 1 -3 1 -2 2 -2 1 -3 1 -2 1 -2 1 -2 0 0 1 -3 1 -2 1 -2 0 -3 1 -2 1 -1 1 -1 0"/>
   <path class="fil6" d="M80433 27252l8 2745 -6047 3491c-294,169 -561,186 -755,75 -195,-111 -316,-348 -317,-685l-1 -292c0,-337 119,-712 312,-1047 193,-335 459,-627 753,-796l6047 -3491z"/>
   <path class="fil15" d="M80743 26736c18,-1 35,2 49,10l-10808 -6280c0,-1 0,-1 0,-1 -3,-1 -5,-3 -8,-4 -3,-1 -5,-2 -8,-2 -3,-1 -6,-2 -9,-2 -3,-1 -6,-1 -9,-2 -3,0 -7,0 -10,0 -1,0 -3,1 -4,1 -1,0 -1,0 -1,0 -2,0 -4,0 -6,1 -5,0 -9,1 -14,2 -6,2 -12,4 -18,7 -7,2 -14,6 -22,10l-6297 3636c-44,26 -88,54 -131,83 -14,10 -27,20 -41,30 -29,21 -58,43 -86,65 -16,13 -31,26 -47,39 -26,22 -52,44 -78,68 -15,14 -30,28 -45,43 -10,8 -19,17 -29,26 -10,10 -19,21 -29,32 -31,31 -62,63 -92,97 -9,10 -19,20 -29,31 -8,9 -15,19 -23,28 -18,22 -36,44 -54,66 -11,14 -23,27 -34,42 -10,12 -18,24 -28,37 -13,17 -26,35 -38,52 -9,12 -18,23 -26,35 -14,20 -28,42 -42,63 -9,13 -18,26 -27,40 -3,5 -7,11 -11,16 -24,39 -48,77 -71,117 -2,2 -3,5 -4,8 -5,8 -9,16 -14,24 -16,28 -32,56 -47,84 -7,13 -13,26 -20,39 -7,14 -14,28 -21,42 -6,12 -12,24 -18,36 -15,32 -29,63 -44,95 -2,6 -6,13 -8,19 -1,2 -2,4 -3,6 -18,41 -35,82 -51,123 -2,8 -5,15 -7,22 -6,15 -11,30 -16,45 -8,21 -16,42 -23,63 -5,16 -10,31 -14,47 -6,19 -12,38 -18,57 -3,12 -7,24 -11,36 -5,21 -10,41 -15,62 -6,23 -12,47 -17,70 -2,8 -5,17 -6,25 -4,17 -6,34 -9,51 -7,36 -13,72 -19,108 -1,10 -4,21 -5,31 -3,23 -4,45 -6,67 -2,16 -4,33 -5,49 -4,50 -7,101 -6,151l0 291c2,432 155,736 401,879l10808 6281c-247,-144 -400,-448 -401,-880l-1 -291c0,-50 2,-100 6,-151 1,-16 3,-32 5,-48 3,-33 7,-66 12,-99 5,-35 11,-72 18,-108 5,-25 9,-50 15,-75 5,-24 11,-47 17,-71 9,-32 17,-65 26,-98 6,-19 12,-38 18,-56 11,-37 24,-74 37,-111 5,-14 10,-29 16,-44 19,-51 39,-101 61,-151 3,-7 6,-13 9,-20 19,-44 40,-87 61,-131 7,-14 14,-27 22,-41 21,-42 43,-83 66,-124 5,-8 9,-16 14,-24 27,-48 56,-95 86,-141 9,-13 18,-26 27,-39 22,-34 45,-66 68,-99 13,-17 25,-34 39,-52 20,-26 40,-53 61,-79 18,-22 36,-44 54,-65 17,-20 35,-40 53,-60 29,-33 60,-66 91,-97 19,-19 38,-39 58,-58 15,-15 30,-29 46,-43 25,-23 51,-46 77,-68 16,-13 31,-26 47,-39 28,-22 57,-43 86,-64 14,-10 28,-21 41,-30 43,-30 87,-58 131,-83l6297 -3636c22,-12 42,-19 60,-21 0,0 1,0 1,0z"/>
   <path class="fil11" d="M80683 26757c84,-49 153,-11 153,86 0,97 -68,215 -152,264l-251 145 -6047 3491c-294,169 -560,461 -753,796 -193,335 -312,710 -311,1047l0 292c1,337 122,574 317,685 194,111 461,95 755,-75l6047 -3491 250 -145c85,-49 153,-9 154,87 0,97 -69,215 -153,263l-6297 3636c-756,436 -1375,85 -1377,-785l-1 -291c-3,-868 612,-1933 1368,-2369l6298 -3636z"/>
   <path class="fil16" d="M69814 22770c131,76 131,197 2,272l-2151 1250c-129,75 -338,75 -468,-1l-527 -304c-129,-74 -131,-196 -2,-271l2150 -1250c129,-75 340,-75 470,0l526 304z"/>
   <g>
    <path class="fil2" d="M67392 49820c46,0 92,-3 138,-8 -46,5 -92,8 -138,8zm-9398 2492l8439 -4904 175 101 0 0 -175 -101 -8439 4904 175 101 -175 -101zm-585 -337l8439 -4905 -8439 4905 175 100 -175 -100zm-585 -338l8439 -4904 -8439 4904 175 101 0 0 -175 -101zm3758 -7607l174 100 -174 -100 -8439 4904 8439 -4904zm-9026 4565l8439 -4904 176 102 0 0 -176 -102 -8439 4904 176 102 -176 -102zm-481 -277l71 40 -71 -40zm8335 -4964l-8439 4904 0 0 8439 -4904zm-584 -338l174 101 -174 -101 -8439 4904 8439 -4904zm-6098 6256l8438 -4905 -8438 4905zm1756 1013l8438 -4904 -8438 4904zm9198 -4465l-175 -101 0 0 175 101zm3510 2026l0 0 -174 -100 174 100zm920 1555c-1,-107 -72,-215 -214,-297 -141,-81 -326,-122 -511,-122 185,0 370,41 511,122 142,82 213,189 214,297zm-10429 -8112l-10282 5975 13017 7515 10282 -5975 -13017 -7515z"/>
   </g>
   <polygon class="fil6" points="57418,41289 70435,48804 60153,54779 47136,47264 "/>
   <path class="fil17" d="M46760 37950c18,113 36,226 54,338 9,61 19,124 3,183 -3,9 -7,18 -15,22 -11,4 -23,-5 -31,-13 -35,-34 -50,-73 -73,-115 -24,88 -47,176 -70,264 -5,16 -9,33 -22,45 -12,11 -35,13 -44,0 -5,-7 -6,-16 -6,-25 -3,-65 25,-157 34,-222 -49,79 -105,265 -156,260 -59,-43 -1,-190 27,-278 -25,30 -66,82 -95,108 -10,9 -23,18 -35,14 -18,-5 -19,-31 -15,-49 12,-51 42,-111 65,-157 -34,37 -130,115 -163,99 -11,-24 30,-70 45,-93 88,-140 189,-272 301,-394 69,-21 125,-20 196,-12l0 25z"/>
   <path class="fil4" d="M48321 35502c-10,-81 -130,-75 -203,-41 -388,178 -705,484 -955,829 -251,344 -440,729 -627,1112 -49,101 -100,205 -111,317 -12,113 23,237 114,303 112,80 273,50 385,-29 113,-79 190,-198 273,-308 185,-243 414,-454 673,-618 190,-121 412,-234 494,-444 26,-69 36,-143 41,-216 25,-326 -16,-656 -120,-966l36 61z"/>
   <g id="_2313661190128">
    <image x="45923" y="32591" width="12127" height="10376" xlink:href="blog-4_Images\blog-4_ImgID1.png"/>
   </g>
   <path class="fil17" d="M50374 37739c113,-15 227,-30 340,-45 61,-8 124,-16 182,2 9,3 19,7 22,16 4,11 -5,22 -14,30 -34,33 -74,48 -117,70 87,26 175,52 262,77 16,5 33,10 44,23 11,13 13,35 -1,44 -7,5 -16,6 -24,6 -66,0 -157,-30 -222,-41 78,51 262,113 256,164 -44,57 -190,-4 -278,-36 30,27 81,69 107,99 8,10 17,23 13,36 -7,17 -32,17 -50,12 -50,-12 -110,-44 -156,-69 36,36 112,134 96,166 -25,10 -70,-32 -92,-47 -138,-92 -267,-197 -386,-312 -19,-69 -17,-125 -7,-196l25 1z"/>
   <path class="fil18" d="M49079 37794c874,1151 1045,2725 729,4134 -38,174 -106,371 -274,429 -168,58 -354,-65 -433,-224 -78,-159 -78,-344 -82,-521 -23,-827 -204,-1588 -521,-2351 -346,505 -875,863 -1438,1105 -439,189 -951,312 -1388,119 -117,-52 -230,-131 -282,-247 -52,-117 -24,-276 87,-339 66,-37 146,-36 221,-41 367,-25 702,-226 973,-475 271,-248 491,-546 737,-820 176,-196 367,-381 569,-551 296,-248 722,-231 1108,-227l-6 9z"/>
   <path class="fil4" d="M48832 35447c353,39 618,345 776,662 159,317 253,670 460,958 150,208 359,380 452,620 34,84 47,190 -13,257 -72,82 -203,61 -305,26 -873,-298 -1509,-1185 -1511,-2107 0,-83 5,-169 42,-243 37,-75 113,-135 196,-131 -11,-29 -21,-59 -31,-89l-66 47z"/>
   <path class="fil4" d="M48696 35377c-507,-31 -1011,339 -1134,832 -77,311 -16,641 -69,957 -24,144 -72,286 -71,432 2,227 123,441 290,595 329,303 844,383 1249,193 405,-189 674,-636 651,-1083 -11,-225 -89,-441 -132,-662 -53,-276 -53,-565 -158,-825 -106,-260 -364,-493 -640,-443 -26,4 -55,10 -75,-7 -19,-18 4,-61 24,-45l65 56z"/>
   <path class="fil17" d="M49234 34895c0,403 -237,729 -528,729 -292,0 -528,-326 -528,-729 0,-402 236,-729 528,-729 291,0 528,327 528,729z"/>
   <path class="fil18" d="M50020 42839c-51,79 -289,15 -530,-144 -242,-158 -396,-350 -344,-428 51,-79 289,-14 530,144 242,158 396,350 344,428z"/>
   <path class="fil18" d="M45299 40955c-93,-12 -139,-254 -103,-540 36,-287 141,-509 234,-498 93,12 139,254 103,540 -36,287 -141,510 -234,498z"/>
   <path class="fil19" d="M47437 37400c0,0 52,-66 142,-155 89,-89 216,-198 333,-316 118,-117 218,-252 264,-366 24,-56 39,-105 45,-141 8,-35 12,-55 12,-55l38 7c0,0 -5,20 -13,57 -7,37 -23,88 -50,146 -50,119 -155,255 -276,372 -120,117 -249,224 -339,311 -90,86 -143,151 -143,151l-13 -11z"/>
   <path class="fil20" d="M48242 35277c-150,-99 -280,-240 -346,-407 -66,-167 -38,-381 104,-492 -24,-51 -19,-120 10,-167 73,-118 323,-274 452,-299 64,-12 130,-10 196,-4 193,16 384,58 566,124 104,38 181,132 187,243 5,86 -9,169 -62,235 -61,74 -159,104 -252,126 -264,61 -538,77 -807,49 50,195 38,390 -26,581 -7,-3 -36,-31 -37,-39l15 50z"/>
   <g id="_2313661250672">
    <path class="fil21" d="M69463 12685l-1323 -743c-905,820 -1262,2139 -1055,2931 77,295 210,468 469,615l1155 655c-191,-153 -307,-413 -348,-732 -102,-803 270,-1975 1102,-2726z"/>
    <path class="fil22" d="M70482 8205c-39,20 -77,38 -116,61 -1181,681 -2142,2291 -2220,3670 -2,2 -4,4 -6,6l1323 743c78,-1379 1039,-2988 2220,-3670 39,-23 77,-40 116,-60l-1317 -750z"/>
    <path class="fil21" d="M71799 8955c564,-1858 3258,-5075 4985,-4369 41,17 81,36 121,57l-111 -61c-382,-211 -1308,-796 -1696,-837 -1718,-179 -4090,2731 -4616,4460l1317 750z"/>
    <path class="fil21" d="M76904 4643c303,161 572,454 789,909 578,-369 1158,-470 1599,-283l-1109 -632c-484,-275 -866,-274 -1389,-55l110 61z"/>
    <path class="fil22" d="M79992 6213c24,112 42,234 50,364 276,-69 499,-51 672,33l-722 -397z"/>
    <path class="fil23" d="M71799 8955c-39,20 -77,37 -116,60 -1181,682 -2142,2291 -2220,3670 -1609,1452 -1496,4477 434,3363l9732 -5619c1737,-1003 2220,-4309 413,-3852 -96,-1447 -1226,-1741 -2349,-1025 -1449,-3040 -5215,1167 -5894,3403z"/>
   </g>
   <g id="_2313661249872">
    <path class="fil21" d="M78067 19358l-677 -380c-462,419 -645,1094 -539,1500 39,150 107,239 240,314l591 335c-98,-78 -157,-211 -178,-374 -53,-411 138,-1011 563,-1395z"/>
    <path class="fil22" d="M78589 17066c-20,10 -39,19 -59,31 -605,348 -1097,1172 -1136,1878 -1,1 -3,2 -4,3l677 380c40,-706 532,-1529 1136,-1878 20,-11 40,-21 60,-31l-674 -383z"/>
    <path class="fil21" d="M79263 17449c288,-950 1667,-2596 2550,-2235 21,9 42,18 62,29l-57 -31c-195,-108 -669,-408 -867,-428 -879,-92 -2093,1397 -2362,2282l674 383z"/>
    <path class="fil21" d="M81875 15243c155,83 292,232 403,465 296,-189 593,-240 818,-145l-567 -323c-247,-141 -443,-140 -711,-28l57 31z"/>
    <path class="fil22" d="M83455 16046c12,58 21,120 25,187 142,-36 256,-27 344,16l-369 -203z"/>
    <path class="fil23" d="M79263 17449c-20,10 -40,20 -60,31 -604,349 -1096,1172 -1136,1878 -823,743 -765,2291 222,1721l4980 -2875c889,-514 1136,-2205 211,-1971 -49,-741 -627,-891 -1202,-525 -741,-1555 -2668,597 -3015,1741z"/>
   </g>
   <g id="_2313661247408">
    <path class="fil21" d="M31455 28269l958 -538c655,594 913,1548 764,2122 -56,213 -153,339 -340,445l-837 474c139,-110 223,-299 252,-530 74,-581 -195,-1429 -797,-1973z"/>
    <path class="fil22" d="M30717 25025c28,14 55,27 84,44 855,493 1551,1658 1607,2657 2,2 3,3 5,5l-958 538c-57,-999 -753,-2164 -1608,-2658 -28,-16 -56,-29 -84,-44l954 -542z"/>
    <path class="fil21" d="M29763 25567c-409,-1345 -2359,-3675 -3610,-3163 -29,12 -58,26 -87,41l80 -44c277,-152 947,-577 1228,-606 1244,-129 2962,1977 3343,3230l-954 542z"/>
    <path class="fil21" d="M26066 22445c-219,117 -414,329 -571,658 -419,-267 -839,-340 -1158,-205l803 -457c350,-199 627,-198 1006,-40l-80 44z"/>
    <path class="fil22" d="M23831 23582c-18,81 -31,169 -37,264 -200,-51 -361,-38 -487,23l524 -287z"/>
    <path class="fil23" d="M29763 25567c28,15 56,28 84,44 855,494 1551,1659 1608,2658 1165,1051 1083,3242 -315,2435l-7047 -4069c-1258,-726 -1607,-3120 -299,-2789 70,-1048 888,-1261 1701,-743 1050,-2201 3776,845 4268,2464z"/>
   </g>
   <path class="fil2" d="M91486 20227c-760,-23 -1368,-647 -1373,-1417l-13 0c-6,770 -612,1394 -1371,1417 762,26 1373,653 1373,1431l11 0c0,-778 611,-1405 1373,-1431z"/>
   <path class="fil16" d="M22791 49818c-1562,-52 -2814,-1335 -2824,-2924l-25 0c-10,1589 -1263,2872 -2827,2924 1568,52 2827,1346 2827,2946l21 0c0,-1600 1259,-2894 2828,-2946z"/>
   <g id="_2313661244624">
    <g id="_2902029471552">
     <path class="fil11" d="M73018 24076c-431,-250 -1023,-360 -1631,-337 -608,23 -1233,180 -1727,465 -495,286 -766,646 -807,998 -41,351 149,694 580,944 430,250 1019,361 1624,338 606,-23 1228,-181 1723,-466 494,-285 769,-646 813,-997 43,-351 -145,-695 -575,-945z"/>
     <path class="fil24" d="M71999 25173c98,57 196,114 293,171 -225,130 -451,260 -676,390 -225,130 -451,260 -676,390 -98,-57 -196,-113 -294,-170 226,-131 452,-261 676,-391 225,-130 452,-260 677,-390zm-2235 268c-98,-58 -196,-115 -294,-171 338,-195 677,-391 1015,-586 338,-196 678,-392 1019,-589 -17,123 -34,247 -50,370 -282,162 -564,325 -845,488 -282,162 -563,325 -845,488 0,0 0,0 0,0zm2328 -1004c147,86 295,171 442,257 147,85 293,171 440,256 -114,66 -229,132 -344,199 -195,-114 -391,-228 -588,-342 -281,162 -563,325 -844,487 -282,163 -564,326 -845,488 -99,-56 -197,-113 -295,-171 338,-195 677,-390 1015,-585 338,-196 678,-392 1019,-589 0,0 0,0 0,0z"/>
    </g>
   </g>
   <path class="fil25" d="M63056 24534c-19,20 -37,40 -56,61 -9,10 -19,20 -29,31 -8,9 -15,19 -23,28 -18,22 -36,44 -54,66 -11,14 -23,27 -34,42 -10,12 -18,24 -28,37 -13,17 -26,35 -38,52 -9,12 -18,23 -26,35 -14,21 -28,42 -42,63 -9,13 -18,26 -27,40 -3,5 -7,11 -11,16 -24,39 -48,77 -71,117 -2,2 -3,5 -5,8 -4,8 -8,16 -13,24 -16,28 -32,56 -47,84 -7,13 -13,26 -20,39 -7,14 -14,28 -21,42 -6,12 -12,24 -18,36 -15,32 -29,63 -44,95 -2,6 -6,13 -8,19 -1,2 -2,4 -3,6 -18,41 -35,82 -51,123 -2,8 -5,15 -7,22 -6,15 -11,30 -16,45 -8,21 -16,42 -23,63 -5,16 -10,31 -14,47 -6,19 -12,38 -18,57 -3,12 -7,24 -11,36 -5,21 -10,41 -15,62 -6,23 -12,47 -17,70 -2,8 -5,17 -6,25 -4,17 -6,34 -9,51 -7,36 -13,72 -19,108 -1,10 -4,21 -5,31 -3,23 -4,45 -7,67 -1,16 -3,33 -4,49 -4,50 -7,101 -6,151l0 291c1,214 39,397 107,544l10808 6281c-69,-148 -107,-330 -107,-545l-1 -291c0,-50 2,-100 6,-151 1,-16 3,-32 5,-48 3,-33 7,-66 12,-99 5,-35 11,-72 18,-108 5,-25 9,-50 15,-75 5,-24 11,-47 17,-71 9,-32 17,-65 26,-98 6,-19 12,-38 18,-56 11,-37 24,-74 37,-111 5,-14 10,-29 16,-44 19,-51 39,-101 61,-151 3,-7 6,-13 9,-20 19,-44 40,-87 61,-131 7,-14 14,-27 22,-41 21,-42 43,-83 66,-124 5,-8 9,-16 14,-24 27,-48 56,-95 86,-141 9,-13 18,-26 27,-39 22,-34 45,-66 68,-99 13,-17 25,-34 39,-52 20,-26 40,-53 61,-79 18,-22 36,-44 54,-65 17,-20 35,-40 53,-60 18,-20 37,-41 55,-60l-10807 -6281z"/>
   <g id="_2313661240752">
    <polygon class="fil2" points="55922,38692 59847,36410 64484,39087 60558,41369 "/>
    <polygon class="fil6" points="55336,38332 59147,36117 63649,38717 59838,40931 "/>
    <polygon class="fil26" points="59838,41635 63647,39421 63649,38717 59838,40931 "/>
    <path class="fil13" d="M58330 38939l3812 -2214 -6 9 -1 1 -4 5 -1 3 -2 2 -4 6 -7 10 -3 5 -4 5 -3 5 -4 5 -7 9 -4 5c-6,8 -13,16 -19,24l-4 4c-57,67 -124,123 -199,166l-3806 2212 0 0m5 -3l5 -3 5 -3 5 -3 10 -6 5 -4 5 -3 5 -3 4 -3 3 -2 2 -2 5 -3 5 -4 2 -1 3 -2 4 -4 5 -3 4 -4 1 0 4 -4 5 -3 1 -1 3 -3 5 -4 4 -4 1 0 4 -3 7 -7 1 -1 1 0 4 -4 4 -4 4 -3 1 -1 4 -4 4 -4 3 -3 2 -1 4 -5 4 -4 3 -2 1 -2 4 -4 4 -5 2 -2 2 -2 9 -9 1 -1 7 -8 4 -4 1 -1 2 -4 8 -8 0 -1 1 -1 0 0 11 -13 0 0 10 -14 1 -1 10 -13 1 -1 9 -14 2 -1c7,-11 13,-21 20,-32m-261 259l-5 3"/>
    <polygon class="fil27" points="61283,37969 58701,39469 58529,39370 61111,37870 "/>
    <polygon class="fil27" points="61791,38295 59208,39796 59037,39697 61619,38197 "/>
    <polygon class="fil27" points="62314,38622 59732,40123 59561,40024 62143,38523 "/>
    <polygon class="fil28" points="59838,40931 55336,38332 55334,39037 59838,41635 "/>
    <path class="fil6" d="M61843 36942l-3811 2215c-26,15 -53,29 -82,41 -580,251 -1501,-177 -2079,-511 -312,-179 -524,-332 -530,-336l3811 -2215c7,4 219,157 530,336 579,334 1499,762 2080,511 28,-12 55,-26 81,-41z"/>
    <path class="fil29" d="M61870 36989l-3811 2215c314,-182 475,-574 476,-1165l3812 -2215c-2,591 -162,983 -477,1165z"/>
    <path class="fil30" d="M58535 38039c-2,642 -190,1048 -559,1207 -590,255 -1524,-179 -2108,-516 -313,-181 -526,-334 -532,-339l5 -40c6,4 218,157 530,336 578,334 1499,762 2079,511 361,-156 545,-553 547,-1182l38 23z"/>
    <polygon class="fil30" points="58497,38016 62308,35801 62347,35824 58535,38039 "/>
   </g>
   <g id="_2313661235664">
    <path class="fil31" d="M52855 28000l1 -378c0,119 78,238 234,328l-1 378c-157,-91 -235,-210 -234,-328z"/>
    <path class="fil31" d="M53090 27950l-1 378 -8 -5 0 0 -7 -4 0 0 -7 -4 0 0 -7 -5 0 0c-137,-87 -206,-199 -205,-310l1 -373c2,117 80,234 234,323z"/>
    <g>
     <image x="45923" y="32591" width="12127" height="10376" xlink:href="blog-4_Images\blog-4_ImgID2.png"/>
    </g>
    <path class="fil32" d="M56424 28528c-71,57 -152,113 -240,164 -28,17 -58,33 -87,47 -178,95 -375,170 -584,228 -93,26 -190,48 -287,67 -262,49 -537,71 -809,66 -95,-1 -188,-6 -281,-14 -19,-1 -36,-3 -54,-4 -318,-31 -627,-100 -906,-204 -74,-26 -145,-55 -214,-88 -40,-20 -79,-40 -117,-62 -3,-1 -8,-3 -11,-6 -20,-9 -37,-19 -56,-30 -756,-437 -910,-1089 -457,-1613 65,-73 139,-144 228,-211 7,-6 15,-13 23,-19 31,-23 65,-46 99,-70 31,-20 64,-40 96,-58 270,-155 586,-267 924,-334 105,-20 212,-37 321,-48 93,-11 186,-18 281,-21 384,-18 775,20 1134,110 95,23 186,51 276,80 166,59 324,129 468,213 110,63 208,133 293,204 95,81 172,165 234,251 317,442 225,957 -274,1352z"/>
    <path class="fil26" d="M57075 27714l-18 6449 0 23c0,17 -5,36 -7,53 -1,28 -4,54 -9,82 0,5 0,10 -1,14 -4,17 -11,34 -16,53 -6,26 -12,51 -22,77 -1,5 -3,11 -4,16 -7,17 -16,32 -22,48 -12,26 -23,54 -39,81 -3,6 -4,13 -9,20 -6,12 -17,24 -25,37 -19,31 -39,60 -62,91 -6,8 -11,17 -17,27 -15,20 -34,38 -51,59 -5,6 -11,14 -17,20 -30,32 -61,63 -93,94 -5,5 -11,8 -16,13 -25,23 -52,45 -80,66 -24,19 -47,39 -73,58 -30,21 -62,42 -93,62 -23,15 -44,31 -67,45 -11,6 -22,12 -32,18 -78,45 -160,86 -245,124 -25,11 -50,22 -75,33 -66,26 -135,53 -204,76 -16,6 -30,12 -45,18 -7,2 -13,4 -19,5 -5,2 -8,2 -11,3 -43,14 -88,27 -133,39 -34,9 -68,19 -102,26 -48,13 -97,22 -145,31 -27,6 -55,14 -83,19 -5,0 -10,1 -14,1 -98,18 -197,31 -296,42 -8,0 -14,2 -22,3 -23,2 -48,2 -71,5 -59,5 -117,9 -175,11 -14,1 -28,3 -42,3 -24,2 -48,0 -72,0 -48,2 -94,2 -142,2 -17,-2 -36,0 -53,0 -22,-2 -43,-4 -67,-4 -43,-3 -88,-4 -131,-7 -19,-2 -39,-2 -58,-3 -21,-2 -42,-5 -62,-7 -43,-4 -87,-9 -130,-15 -20,-3 -42,-3 -60,-6 -19,-3 -38,-8 -56,-10 -47,-7 -93,-15 -138,-24 -22,-5 -44,-7 -65,-11 -14,-3 -28,-8 -44,-11 -54,-12 -107,-25 -161,-40 -22,-5 -45,-10 -67,-16 -7,-3 -14,-6 -21,-8 -96,-28 -189,-59 -279,-94 -5,-2 -11,-3 -16,-5 -40,-15 -77,-34 -118,-51 -21,-9 -45,-19 -66,-29 -65,-31 -129,-64 -191,-100 -512,-296 -767,-683 -767,-1072l18 -6445c0,388 256,774 768,1068 62,36 125,69 190,101 22,10 45,19 67,28 43,20 87,39 132,56 91,36 184,67 279,95 29,9 60,17 90,24 52,14 107,28 161,39 36,8 71,16 108,22 45,9 92,17 138,25 39,6 76,10 117,15 41,6 85,11 130,16 39,3 79,6 119,9 44,3 89,6 132,8 40,1 79,3 119,3 48,0 95,0 143,-2 37,0 74,-1 112,-3 58,-1 117,-6 176,-11 31,-3 62,-4 93,-7 100,-11 199,-25 295,-42 34,-5 66,-13 99,-21 48,-9 96,-18 143,-29 35,-9 68,-19 102,-28 45,-12 90,-25 135,-39 25,-7 49,-17 74,-24 70,-25 138,-50 205,-78 25,-11 50,-22 74,-32 84,-38 168,-80 245,-125 36,-20 67,-41 99,-63 21,-12 41,-26 61,-40 11,-7 22,-14 32,-22 27,-19 49,-39 73,-57 27,-22 55,-44 79,-66 41,-35 76,-71 110,-108 7,-6 11,-12 17,-20 25,-28 47,-56 69,-85 23,-30 43,-61 62,-90 11,-21 23,-39 34,-59 14,-27 26,-53 39,-81 9,-22 18,-42 26,-63 9,-25 15,-52 22,-78 6,-22 12,-45 17,-67 4,-26 6,-54 9,-82 3,-25 6,-49 6,-76z"/>
    <path class="fil33" d="M52778 28693c944,545 2468,545 3405,0 937,-545 932,-1427 -12,-1972 -943,-545 -2467,-545 -3403,0 -938,545 -933,1427 10,1972zm3530 -2051c1019,588 1024,1542 12,2130 -1012,588 -2659,588 -3678,0 -1019,-588 -1024,-1542 -12,-2130 1012,-588 2658,-589 3678,0z"/>
    <path class="fil25" d="M52962 28790c-40,-20 -79,-40 -117,-62l-273 -1879 -888 -6132 116 48 871 6014 291 2011z"/>
    <polygon class="fil12" points="51800,20765 51683,20717 52649,19960 52766,20008 "/>
    <path class="fil6" d="M54082 29082c-400,-39 -788,-137 -1120,-292l-291 -2011 -871 -6014 967 -757 924 6379 391 2695z"/>
    <path class="fil34" d="M57337 24025l-639 3151 -274 1352c-71,57 -152,113 -240,164 -28,17 -58,33 -87,47l367 -1814 600 -2958c0,5 3,11 11,16 6,8 17,14 30,20l1 0c13,5 28,11 44,16 17,4 34,9 51,12l1 0c17,5 36,6 53,8l34 0c9,0 19,-2 25,-3l1 0c7,-2 13,-5 16,-7 2,-1 5,-3 6,-4z"/>
    <path class="fil16" d="M57328 24000c30,26 -3,43 -73,38 -70,-4 -151,-29 -180,-54 -30,-26 3,-43 73,-39 70,5 150,29 180,55z"/>
    <path class="fil34" d="M55857 24502l-47 613 -107 1393 -190 2459c-93,26 -190,48 -287,67l201 -2606 151 -1951c0,7 3,13 12,19 6,3 14,8 22,11 3,1 6,1 11,3 1,2 4,2 7,3 3,0 7,2 8,2 3,1 6,1 9,3 2,0 5,0 7,1 3,0 6,0 7,2 3,0 7,0 8,1l8 0c3,2 6,2 8,2 3,0 6,2 7,2l8 0c3,1 6,1 9,1l8 0c2,0 5,2 8,2l51 0c8,-2 16,-2 22,-3 4,0 9,0 14,-2 3,0 6,-2 9,-2 3,-1 5,-1 8,-1 1,-2 3,-2 4,-3 4,0 5,0 7,-2 0,0 1,-1 3,-1 1,0 3,-2 3,-2 1,-1 3,-1 3,-3 2,0 2,0 3,-2l2 -1c1,-2 1,-2 1,-3 2,0 2,-2 2,-2z"/>
    <path class="fil16" d="M55844 24481c33,22 2,43 -68,47 -70,4 -153,-10 -185,-32 -33,-22 -2,-43 68,-47 70,-4 153,10 185,32z"/>
    <path class="fil34" d="M54417 29100c-95,-1 -188,-6 -281,-14l-124 -2747 -127 -2846c0,6 5,12 15,17 7,3 14,6 22,8 3,1 8,1 11,3 3,0 6,0 9,2 3,0 5,0 8,1l8 0c3,0 6,2 7,2l16 0c3,0 6,1 9,1l31 0c3,-1 5,-1 8,-1l17 0c3,-2 8,-2 11,-2 11,-1 22,-3 31,-5 8,-1 15,-3 22,-4 4,-2 9,-3 14,-3 3,-2 6,-3 9,-3 1,-2 5,-4 6,-4 2,-1 3,-1 6,-3 2,0 3,-1 3,-1 2,-2 4,-2 5,-3 2,0 2,-2 3,-2l3 -3 2 -1c1,-2 1,-2 1,-4 2,0 2,-1 2,-1 0,-2 1,-2 1,-3l128 2834 124 2782z"/>
    <path class="fil16" d="M54150 23465c35,17 7,42 -62,54 -69,13 -153,9 -188,-9 -35,-18 -7,-42 62,-55 69,-12 153,-8 188,10z"/>
    <path class="fil34" d="M53176 28878c-74,-26 -145,-55 -214,-88 -40,-20 -79,-40 -117,-62 -3,-1 -8,-3 -11,-6l-513 -1643 -588 -1885c2,6 8,9 19,12 6,2 14,2 23,2l12 0c14,-2 31,-3 47,-7l51 -14c19,-6 36,-12 51,-20 11,-4 20,-11 28,-15 2,0 2,0 2,-2 9,-4 15,-9 20,-14l1 0c5,-4 10,-9 11,-14 2,-3 3,-6 3,-7l548 1753 627 2010z"/>
    <path class="fil16" d="M51981 25098c39,8 18,39 -45,69 -64,30 -146,47 -185,39 -38,-8 -17,-39 46,-69 64,-30 146,-47 184,-39z"/>
    <path class="fil35" d="M57075 27714l-18 6449 0 23c0,17 -5,36 -7,53 -1,28 -4,54 -9,82 0,5 0,10 -1,14 -4,17 -11,34 -16,53 -6,26 -12,51 -22,77 -1,5 -3,11 -4,16 -7,17 -16,32 -22,48 -12,26 -23,54 -39,81 -3,6 -4,13 -9,20 -6,12 -17,24 -25,37 -19,31 -39,60 -62,91 -6,8 -11,17 -17,27 -15,20 -34,38 -51,59 -5,6 -11,14 -17,20 -30,32 -61,63 -93,94 -5,5 -11,8 -16,13 -25,23 -52,45 -80,66 -24,19 -47,39 -73,58 -30,21 -62,42 -93,62 -23,15 -44,31 -67,45 -11,6 -22,12 -32,18 -78,45 -160,86 -245,124 -25,11 -50,22 -75,33 -66,26 -135,53 -204,76 -16,6 -30,12 -45,18 -7,2 -13,4 -19,5 633,-2331 791,-4779 766,-6808 11,-7 22,-14 32,-22 27,-19 49,-39 73,-57 27,-22 55,-44 79,-66 41,-35 76,-71 110,-108 7,-6 11,-12 17,-20 25,-28 47,-56 69,-85 23,-30 43,-61 62,-90 11,-21 23,-39 34,-59 14,-27 26,-53 39,-81 9,-22 18,-42 26,-63 9,-25 15,-52 22,-78 6,-22 12,-45 17,-67 4,-26 6,-54 9,-82 3,-25 6,-49 6,-76z"/>
   </g>
   <g id="_2313661230192">
    <path class="fil36" d="M35077 43690c1499,1053 4409,1057 6019,237 1249,-630 1502,-1570 755,-2324 -1518,-1484 -5890,-1494 -7227,141 -522,636 -371,1377 453,1946z"/>
    <path class="fil25" d="M33613 35322l-87 51c-309,179 -501,561 -503,1103 -3,1091 767,2425 1716,2973l88 -50c-950,-548 -1720,-1882 -1717,-2973 2,-543 194,-924 503,-1104z"/>
    <path class="fil37" d="M33526 35373c36,-20 81,-39 170,-48 88,-9 178,5 207,10 70,10 153,35 205,54 102,39 138,58 235,111 -51,-30 -96,-73 -127,-127 -866,-500 -1725,-11 -1728,1199 -3,1209 849,2686 1716,3187 103,-59 343,-198 535,-310 -949,-548 -1719,-1882 -1716,-2973 2,-542 194,-924 503,-1103z"/>
    <path class="fil38" d="M33526 35373l0 -1 1 0c33,-18 75,-36 153,-45l4 -1 1 0 3 0c54,-6 118,-6 193,5l2 1 2 0 3 0 0 0 2 0 13 2 0 0c70,11 153,36 205,55l0 0c95,36 133,55 214,99l4 2 4 3 4 2 7 3c-6,-3 -11,-7 -17,-10l0 0 -9 -6 0 0 -2 -2 0 0 -3 -2 0 0 -2 -1 -2 -2 0 0 -2 -2 0 0 -3 -1 0 0 -2 -2 0 0 -2 -2 -2 -2 0 0 -2 -2 0 0 -2 -1 0 0 -2 -2 0 0 -3 -2 0 0 -2 -2 0 0 -2 -2 0 0 -2 -2 0 0 -2 -2 0 0 -8 -7 0 0 -2 -2 0 0c-20,-21 -37,-43 -52,-69 -229,-132 -458,-195 -670,-194l-7 0c-11,0 -21,1 -31,1l-3 0c-12,1 -24,1 -36,2l0 0 -1 0c-11,1 -22,2 -32,4l-8 1c-10,1 -21,2 -31,4l-2 0c-23,4 -45,8 -67,13l-7 2c-11,2 -21,5 -31,8l-1 0c-22,6 -44,13 -65,21l-6 2c-32,11 -64,25 -95,40l-1 1c-21,10 -42,22 -62,34l-3 2c-9,5 -18,11 -27,17l-2 1c-20,13 -39,26 -58,41l-3 2c-8,7 -17,14 -26,21l-1 1c-19,15 -37,32 -54,49l-1 0c-27,26 -52,53 -77,83l-1 1c-24,29 -47,60 -69,93l-1 1c-14,22 -28,44 -42,68l0 1c-27,46 -52,96 -74,149l-1 3c-17,39 -32,80 -45,123l-1 2c-8,28 -17,56 -24,85l-2 8c-11,43 -21,88 -29,134l-1 8c-5,31 -10,63 -14,96l0 4c-2,14 -4,29 -5,43l-1 9c-3,34 -6,68 -7,103l0 1c-1,17 -2,34 -2,51l0 7c-1,17 -1,35 -1,53 0,19 0,38 0,57l0 0c1,38 3,76 5,115l0 0c1,19 3,38 4,57l0 0c2,20 3,39 5,59l0 0c2,19 4,39 7,58l0 0c5,39 10,78 16,117l0 1c3,19 6,39 10,58l0 0c3,20 7,40 11,60l0 0c4,19 8,39 12,59l0 0c8,39 17,79 27,119l0 0c5,19 10,39 15,59l0 0c5,20 10,40 16,59l0 0c22,79 46,159 73,237l0 0c14,40 28,79 42,118l0 0c8,19 15,39 23,58l0 0c7,20 15,39 23,59l0 0c8,19 16,38 24,58l0 0c8,19 16,38 25,57l0 0c8,20 17,39 25,58l0 0c18,38 35,76 54,114l0 0 27 56 0 0 29 56 0 0 29 55 0 0c20,37 40,73 60,109l0 0c10,19 21,36 31,54l0 0 32 54 0 0 32 52 0 0c11,18 22,35 33,52 11,18 22,35 33,52 11,17 23,34 34,50 11,17 23,34 34,50 12,17 23,33 35,50 12,16 23,32 35,48l0 0c12,16 24,32 36,48 12,15 24,31 36,46 12,16 25,31 37,46 12,15 24,30 37,45 12,15 25,30 37,44l0 0c13,15 25,29 38,44l0 0c12,14 25,28 38,42l0 0c190,208 393,379 596,497l0 0 5 -3 0 0 5 -3 0 0 5 -3 0 0 6 -3 0 0 5 -4 0 0 6 -3 0 0 6 -3 0 0 6 -4 0 0 7 -4 0 0 6 -3 0 0 7 -4 0 0 7 -4 0 0 7 -4 0 0 7 -4 0 0 7 -4 0 0 8 -5 0 0 7 -4 0 0 8 -4 0 0 8 -5 0 0 8 -5 8 -4 0 0 8 -5 0 0 8 -5 9 -4 0 0 8 -5 9 -5 0 0 8 -5 9 -5 9 -5 0 0 9 -6 0 0 9 -5 0 0 9 -5 0 0 9 -5 0 0 9 -5 0 -1 9 -5 0 0 10 -5 0 0 9 -6 0 0 10 -5 0 0 9 -6 0 0 236 -137c-15,-8 -29,-17 -44,-26 -15,-9 -29,-18 -44,-27l0 0c-15,-10 -29,-19 -44,-29l0 0c-14,-9 -29,-19 -43,-29l0 0c-15,-10 -29,-21 -43,-31l-1 0c-14,-10 -28,-21 -42,-32l0 0c-15,-10 -29,-21 -43,-32l0 0c-14,-11 -28,-23 -42,-34l0 0c-14,-11 -28,-23 -42,-35l0 0c-14,-11 -27,-23 -41,-35l0 0 -41 -37 0 0c-14,-12 -27,-24 -41,-37l0 0c-13,-13 -27,-25 -40,-38l0 0c-13,-13 -26,-26 -40,-39l0 0c-13,-13 -26,-27 -39,-40l0 0c-13,-14 -26,-27 -39,-41l0 0c-13,-14 -25,-27 -38,-41 -13,-14 -25,-28 -38,-43l0 0c-12,-14 -25,-28 -37,-43 -13,-14 -25,-29 -37,-43l0 0c-12,-15 -24,-30 -36,-45l0 0c-12,-15 -24,-29 -36,-45l0 0c-12,-15 -23,-30 -35,-45 -12,-16 -23,-31 -35,-46l0 -1c-11,-15 -22,-31 -34,-46 -11,-16 -22,-32 -33,-48l0 0c-11,-16 -22,-32 -33,-48 -11,-16 -21,-32 -32,-48 -21,-33 -42,-65 -62,-98l0 0c-10,-17 -21,-34 -30,-50 -10,-17 -20,-34 -30,-51l-29 -50c-9,-17 -19,-34 -28,-51 -9,-17 -18,-34 -27,-52l0 0c-9,-17 -18,-34 -27,-51l0 0c-9,-18 -17,-35 -26,-52l0 0c-17,-35 -33,-70 -49,-105l0 0c-8,-18 -16,-35 -24,-53l0 0c-7,-18 -15,-35 -22,-53l0 0c-52,-124 -98,-249 -136,-375l0 0c-5,-18 -10,-36 -15,-54l0 0c-77,-269 -119,-538 -118,-793l0 0c0,-77 4,-150 12,-220l0 0c2,-23 5,-46 8,-68l1 0 3 -23 0 0 4 -22 0 0c2,-15 5,-29 8,-44l0 0 4 -21 0 0 5 -21 0 0 5 -21 0 0 5 -21 0 0 5 -20 1 0c3,-14 7,-27 11,-40l0 0 6 -20 0 0 7 -19 0 0 6 -19 0 0c5,-13 9,-25 14,-38l0 0 8 -18 7 -18 0 0 8 -18 0 0 8 -17 0 0 8 -18 9 -17 9 -16 8 -17 10 -16 9 -16 0 0 10 -16 9 -15 0 0 10 -15 0 0 11 -15 0 0 10 -15 11 -14 0 0 10 -14 0 0 11 -14 12 -13 0 0 11 -13 0 0 12 -13 0 0 12 -13 0 0 12 -12 0 0 12 -12 0 0 12 -12 0 0 13 -12 0 0 13 -11 0 0 13 -11 0 0 13 -10 0 0 13 -11 0 0 14 -10 0 0 13 -9 1 0 13 -10 0 0 14 -9 0 0 15 -9 0 0 14 -8z"/>
    <path class="fil25" d="M34217 35106c-994,-574 -1958,-24 -1961,1332 -5,1356 953,3014 1947,3588 0,-18 1,-250 1,-267 -867,-501 -1719,-1978 -1716,-3187 3,-1210 862,-1699 1728,-1199 0,-18 1,-249 1,-267z"/>
    <path class="fil15" d="M33098 34636c423,-246 1009,-212 1655,161 -193,112 -433,250 -536,309 -994,-574 -1958,-24 -1962,1332 -4,1355 954,3014 1948,3588 31,54 75,96 127,126 -66,-39 -152,-94 -215,-137 -45,-30 -102,-73 -145,-106 -144,-112 -259,-225 -321,-285 -33,-32 -151,-149 -296,-325 -86,-105 -194,-251 -271,-362 -78,-114 -280,-421 -457,-816 -28,-62 -103,-228 -175,-437 -89,-257 -131,-441 -133,-449 -46,-206 -109,-489 -108,-872 0,-97 5,-228 19,-325 8,-51 16,-119 26,-169 18,-79 44,-184 68,-262 30,-100 93,-238 119,-286 83,-155 150,-238 185,-283 185,-230 401,-360 472,-402z"/>
    <path class="fil25" d="M35350 33662c1437,-830 3718,-801 5096,0 1402,815 1395,2136 -17,2951 -1412,815 -3693,815 -5095,0 -1403,-815 -1396,-2136 16,-2951z"/>
    <path class="fil34" d="M35360 34490c496,-286 1100,-472 1736,-558 29,-3 59,-7 89,-11 660,-78 1351,-49 1986,89 469,101 908,261 1284,480 1403,815 1395,2137 -16,2952 -809,467 -1903,666 -2954,598 -784,-51 -1543,-251 -2141,-599 -1403,-814 -1395,-2136 16,-2951z"/>
    <path class="fil39" d="M37485 38040c1051,68 2145,-131 2954,-598 1411,-815 1419,-2137 16,-2952 -376,-219 -815,-379 -1284,-480 -431,196 -1175,629 -1600,1412 -341,628 -478,1481 -86,2618z"/>
    <g>
     <path class="fil20" d="M36573 34219c-181,105 -182,274 -2,378 180,105 472,105 653,0 181,-104 182,-273 2,-378 -110,-64 -264,-89 -407,-74 -12,1 -23,2 -34,4 -78,12 -151,35 -212,70z"/>
     <path class="fil20" d="M36708 35036c-137,79 -138,207 -2,286 136,79 357,79 494,0 137,-79 138,-207 2,-286 -136,-79 -357,-79 -494,0z"/>
     <path class="fil20" d="M37776 34973c-57,33 -57,86 -1,118 56,33 148,33 204,0 57,-32 57,-85 1,-118 -56,-33 -148,-33 -204,0z"/>
     <path class="fil20" d="M36126 34809c-56,33 -57,86 0,118 56,33 147,33 204,0 56,-32 56,-85 0,-118 -56,-32 -147,-32 -204,0z"/>
     <path class="fil20" d="M36242 34497c-28,16 -28,42 0,59 28,16 73,16 101,0 28,-17 28,-43 0,-59 -27,-16 -73,-16 -101,0z"/>
    </g>
    <path class="fil16" d="M40429 36613c-1412,815 -3693,815 -5096,0 -1402,-815 -1394,-2136 17,-2951 497,-287 1101,-473 1736,-558 30,-4 59,-8 89,-11 1147,-136 2384,54 3270,569 1403,815 1396,2136 -16,2951zm-5230 -3039c-1495,864 -1503,2342 -17,3206 1485,863 3902,863 5398,0 1495,-864 1503,-2342 17,-3206 -1485,-863 -3902,-863 -5398,0z"/>
    <path class="fil40" d="M37056 44268c-86,-10 -175,-21 -265,-34 -490,-64 -1162,-304 -1590,-553 -437,-237 -939,-712 -1062,-1214l-14 -56c-17,-97 -32,-182 -32,-281l-2 -718c-3,-1155 -7,-2310 -10,-3465 -3,-882 -5,-1765 -8,-2648l0 -151c2,269 83,518 226,748 138,222 340,433 604,624 86,63 179,123 279,181 595,346 1341,553 2116,622 1159,102 2386,-105 3282,-622 427,-247 734,-538 918,-848 131,-221 201,-453 208,-684l20 6938c2,570 -374,1140 -1127,1574 -484,285 -1231,521 -1790,584 -161,23 -315,39 -466,49 -437,28 -841,6 -1287,-46z"/>
    <path class="fil41" d="M34965 37182c116,1066 328,2247 648,3424 348,1276 823,2547 1443,3662 -86,-10 -175,-21 -265,-34 -490,-64 -1162,-304 -1590,-553 -437,-237 -939,-712 -1062,-1214l-14 -56c-17,-97 -32,-182 -32,-281l-2 -718 -4 -1416 0 -42 -1 -267 0 -2 -2 -764 0 -2 -1 -144 -10 -3396 0 -2 0 -78 0 -151c0,52 3,104 10,156 3,27 7,54 12,81 0,0 0,1 1,2 32,172 100,344 203,509 138,222 340,433 604,624 17,215 37,436 62,662z"/>
   </g>
   <path class="fil17" d="M48284 34880c56,67 74,163 40,214 -35,51 -108,38 -164,-30 -56,-67 -74,-163 -40,-214 35,-51 108,-37 164,30z"/>
   <path class="fil2" d="M2107 38375c-580,-19 -1045,-496 -1049,-1086l-9 0c-3,590 -468,1067 -1049,1086 582,19 1049,500 1049,1094l8 0c0,-594 468,-1075 1050,-1094z"/>
   <g id="_2313661226960">
    <path class="fil2" d="M49868 50984l-7425 -4286c-310,-179 -816,-179 -1123,0l-3885 2257c-308,179 -306,472 4,651l7425 4286c309,179 815,179 1123,0l3884 -2257c308,-179 306,-472 -3,-651z"/>
    <path class="fil6" d="M36528 49482l1 -378c0,119 78,238 234,328l-1 378c-156,-90 -234,-209 -234,-328z"/>
    <path class="fil42" d="M36763 49432l-1 378 -7 -4 0 0 -7 -5 0 0 -7 -4 0 0 -7 -4 0 0c-137,-88 -206,-200 -206,-311l1 -372c3,117 81,233 234,322z"/>
    <path class="fil43" d="M49425 51138l-1 378c0,117 -77,234 -230,323l1 -378c153,-89 230,-206 230,-323z"/>
    <polygon class="fil6" points="41054,46957 41053,47335 37508,49395 37509,49017 "/>
    <polygon class="fil6" points="48358,50750 48357,51127 41789,47335 41790,46957 "/>
    <polygon class="fil6" points="48361,51176 48360,51554 44815,53614 44816,53236 "/>
    <path class="fil42" d="M47024 52338c115,66 116,173 2,239 -114,67 -299,67 -414,1 -114,-67 -115,-174 -1,-240 114,-66 299,-66 413,0z"/>
    <polygon class="fil6" points="44080,53236 44079,53614 37510,49821 37511,49444 "/>
    <path class="fil6" d="M46612 52578c115,66 300,66 414,-1 114,-66 113,-173 -2,-239 -114,-66 -299,-66 -413,0 -114,66 -113,173 1,240zm-1796 658l3545 -2060c201,-117 200,-309 -3,-426l-6568 -3793c-203,-117 -535,-117 -736,0l-3545 2060c-202,118 -201,309 2,427l6569 3792c203,117 534,117 736,0zm4375 -2426c310,179 312,472 4,651l-3884 2257c-308,179 -814,179 -1124,0l-7424 -4286c-310,-179 -312,-472 -4,-651l3885 -2257c307,-179 813,-179 1123,0l7424 4286z"/>
    <path class="fil5" d="M48361 51177l-3005 1745 -540 314c-201,117 -533,117 -735,0l-6569 -3793c-203,-116 -204,-308 -3,-426l3326 -1931 219 -128c201,-117 533,-117 735,0l6569 3791c202,118 204,310 3,428z"/>
    <polygon class="fil26" points="49195,51461 49194,51839 45310,54096 45311,53718 "/>
    <polygon class="fil26" points="44187,53718 44186,54096 36762,49810 36763,49432 "/>
    <path class="fil28" d="M45311 53718l-1 378c-308,179 -814,179 -1124,0l1 -378c310,179 816,179 1124,0z"/>
    <path class="fil42" d="M39440 47534c31,18 31,47 0,65l-466 271c-31,18 -82,18 -113,0 -31,-18 -31,-47 -1,-65l467 -271c31,-18 82,-18 113,0z"/>
    <path class="fil9" d="M45356 52922l-540 314c-201,117 -533,117 -736,0l-6568 -3793c-203,-116 -204,-308 -3,-426l3326 -1931c1748,1165 3501,2990 4521,5836z"/>
   </g>
   <path class="fil44" d="M83126 36638l2 644 489 -282c53,-31 101,-34 137,-16l-628 -346z"/>
   <polygon class="fil11" points="59907,43793 51468,48697 51291,48595 59730,43691 "/>
   <polygon class="fil11" points="66928,47846 58489,52751 58314,52650 66753,47746 "/>
   <polygon class="fil11" points="67514,48185 59075,53089 58901,52988 67339,48084 "/>
   <polygon class="fil11" points="66343,47509 57904,52413 57729,52312 66168,47408 "/>
   <polygon class="fil11" points="65758,47171 57319,52075 57144,51975 65583,47070 "/>
   <polygon class="fil11" points="65173,46833 56734,51738 56560,51637 64999,46733 "/>
   <polygon class="fil11" points="64587,46495 56148,51399 55973,51298 64412,46394 "/>
   <polygon class="fil11" points="64002,46157 55563,51061 55388,50961 63827,46056 "/>
   <polygon class="fil11" points="63417,45820 54978,50724 54804,50623 63242,45719 "/>
   <polygon class="fil11" points="62832,45482 54393,50386 54219,50285 62658,45381 "/>
   <polygon class="fil11" points="62247,45144 53808,50049 53632,49947 62071,45043 "/>
   <polygon class="fil11" points="61661,44806 53222,49710 53047,49609 61486,44705 "/>
   <polygon class="fil11" points="61076,44468 52637,49372 52463,49272 60902,44367 "/>
   <polygon class="fil11" points="60491,44130 52052,49035 51878,48934 60317,44030 "/>
   <polygon class="fil11" points="59320,43454 50881,48358 50707,48258 59146,43353 "/>
   <polygon class="fil11" points="58735,43117 50296,48021 50122,47920 58561,43016 "/>
   <polygon class="fil11" points="56129,43953 51733,46509 51558,46408 55955,43853 "/>
   <path class="fil18" d="M61851 41698l5591 3246c-4,-3 -10,-2 -18,3 -29,17 -71,75 -94,131 -16,39 -18,66 -7,72l-5592 -3246c-11,-6 -8,-33 8,-72 23,-56 64,-114 93,-131 8,-5 15,-6 19,-3z"/>
   <path class="fil38" d="M67341 45147c-29,17 -33,-14 -11,-69 23,-56 65,-114 94,-131 28,-17 33,14 11,70 -23,55 -65,113 -94,130z"/>
   <path class="fil45" d="M61731 41904l5592 3246c-10,-5 -9,-27 2,-59l-5591 -3247c-12,33 -12,55 -3,60z"/>
  </g>
 </g>
</svg>
