<?xml version="1.0" encoding="UTF-8"?>
<!DOCTYPE svg PUBLIC "-//W3C//DTD SVG 1.1//EN" "http://www.w3.org/Graphics/SVG/1.1/DTD/svg11.dtd">
<!-- Creator: CorelDRAW X7 -->
<svg xmlns="http://www.w3.org/2000/svg" xml:space="preserve" width="1.1811in" height="1.1811in" version="1.1" style="shape-rendering:geometricPrecision; text-rendering:geometricPrecision; image-rendering:optimizeQuality; fill-rule:evenodd; clip-rule:evenodd"
viewBox="0 0 11811 11811"
 xmlns:xlink="http://www.w3.org/1999/xlink">
 <defs>
  <style type="text/css">
   <![CDATA[
    .fil0 {fill:none}
    .fil1 {fill:black}
   ]]>
  </style>
 </defs>
 <g id="Layer_x0020_1">
  <metadata id="CorelCorpID_0Corel-Layer"/>
  <g id="_1761132572928">
   <polygon class="fil0" points="0,11811 11811,11811 11811,0 0,0 "/>
   <path class="fil1" d="M5906 6932c563,0 1026,-463 1026,-1026 0,-568 -463,-1027 -1026,-1027 -568,0 -1027,459 -1027,1027 0,563 459,1026 1027,1026zm0 1027c2007,0 3311,-1136 3829,-1686 -86,891 -472,1713 -1108,2354 -727,726 -1695,1126 -2721,1126 -1027,0 -1995,-400 -2722,-1126 -636,-641 -1022,-1463 -1108,-2354 518,555 1822,1686 3830,1686l0 0zm4102 -2013l0 -81c-10,-1082 -437,-2095 -1200,-2858 -777,-777 -1808,-1204 -2902,-1204 -1095,0 -2126,427 -2903,1204 -763,763 -1190,1776 -1200,2858l0 81c10,1082 437,2095 1200,2862 777,773 1808,1200 2903,1200 1094,0 2125,-427 2902,-1200 763,-767 1191,-1780 1200,-2862zm-273 -408c-518,-550 -1822,-1686 -3829,-1686 -2008,0 -3312,1131 -3830,1686 86,-891 472,-1713 1108,-2354 727,-726 1695,-1126 2722,-1126 1026,0 1994,400 2721,1126 636,641 1022,1463 1108,2354l0 0zm-3829 -400c422,0 767,345 767,768 0,422 -345,767 -767,767 -423,0 -768,-345 -768,-767 0,-423 345,-768 768,-768zm0 -1027c2175,0 3516,1445 3811,1795 -295,349 -1636,1794 -3811,1794 -2176,0 -3517,-1445 -3812,-1794 295,-350 1636,-1795 3812,-1795z"/>
  </g>
 </g>
</svg>
