<?xml version="1.0" encoding="UTF-8"?>
<!DOCTYPE svg PUBLIC "-//W3C//DTD SVG 1.1//EN" "http://www.w3.org/Graphics/SVG/1.1/DTD/svg11.dtd">
<!-- Creator: CorelDRAW X7 -->
<svg xmlns="http://www.w3.org/2000/svg" xml:space="preserve" width="1.1811in" height="1.1811in" version="1.1" style="shape-rendering:geometricPrecision; text-rendering:geometricPrecision; image-rendering:optimizeQuality; fill-rule:evenodd; clip-rule:evenodd"
viewBox="0 0 11811 11811"
 xmlns:xlink="http://www.w3.org/1999/xlink">
 <defs>
  <style type="text/css">
   <![CDATA[
    .fil0 {fill:none}
    .fil1 {fill:black}
   ]]>
  </style>
 </defs>
 <g id="Layer_x0020_1">
  <metadata id="CorelCorpID_0Corel-Layer"/>
  <g id="_1760891344048">
   <polygon class="fil0" points="0,11811 11811,11811 11811,0 0,0 "/>
   <path class="fil1" d="M8340 10008c-917,0 -1667,-745 -1667,-1668 0,-345 109,-667 291,-935l-2776 -1763c-254,241 -595,391 -976,391 -777,0 -1409,-632 -1409,-1409 0,-776 632,-1412 1409,-1412 531,0 995,295 1235,731l2358 -945c0,-13 0,-27 0,-41 0,-636 518,-1154 1154,-1154 636,0 1154,518 1154,1154 0,636 -518,1154 -1154,1154 -532,0 -981,-363 -1113,-854l-2299 918c50,141 77,290 77,449 0,305 -99,591 -268,823l2771 1758c300,-327 736,-532 1213,-532 923,0 1668,750 1668,1667 0,923 -745,1668 -1668,1668l0 0zm-381 -6151c495,0 895,-405 895,-900 0,-495 -400,-899 -895,-899 -495,0 -900,404 -900,899 0,495 405,900 900,900zm-4747 -386c-636,0 -1154,518 -1154,1153 0,636 518,1154 1154,1154 636,0 1154,-518 1154,-1154 0,-635 -518,-1153 -1154,-1153zm5128 3461c-776,0 -1408,632 -1408,1408 0,777 632,1413 1408,1413 777,0 1413,-636 1413,-1413 0,-776 -636,-1408 -1413,-1408z"/>
  </g>
 </g>
</svg>
