<?xml version="1.0" encoding="UTF-8"?>
<!DOCTYPE svg PUBLIC "-//W3C//DTD SVG 1.1//EN" "http://www.w3.org/Graphics/SVG/1.1/DTD/svg11.dtd">
<!-- Creator: CorelDRAW X7 -->
<svg xmlns="http://www.w3.org/2000/svg" xml:space="preserve" width="10.3087in" height="5.61591in" version="1.1" style="shape-rendering:geometricPrecision; text-rendering:geometricPrecision; image-rendering:optimizeQuality; fill-rule:evenodd; clip-rule:evenodd"
viewBox="0 0 103087 56159"
 xmlns:xlink="http://www.w3.org/1999/xlink">
 <defs>
  <style type="text/css">
   <![CDATA[
    .str0 {stroke:#9F9CCB;stroke-width:416.654;stroke-linecap:round}
    .fil23 {fill:none;fill-rule:nonzero}
    .fil40 {fill:#DFC596}
    .fil39 {fill:#E9D1A9}
    .fil41 {fill:#F4E3C8}
    .fil38 {fill:#F6EFE2}
    .fil11 {fill:#253A4C;fill-rule:nonzero}
    .fil12 {fill:#3C5670;fill-rule:nonzero}
    .fil15 {fill:#5C589A;fill-rule:nonzero}
    .fil31 {fill:#5D4D30;fill-rule:nonzero}
    .fil36 {fill:#657AA9;fill-rule:nonzero}
    .fil10 {fill:#6C698B;fill-rule:nonzero}
    .fil17 {fill:#6C87C3;fill-rule:nonzero}
    .fil37 {fill:#7B78AD;fill-rule:nonzero}
    .fil9 {fill:#7C94CA;fill-rule:nonzero}
    .fil6 {fill:#8480BC;fill-rule:nonzero}
    .fil32 {fill:#967C4E;fill-rule:nonzero}
    .fil34 {fill:#9DAFD7;fill-rule:nonzero}
    .fil28 {fill:#A38755;fill-rule:nonzero}
    .fil16 {fill:#A6B7DE;fill-rule:nonzero}
    .fil13 {fill:#A8FF55;fill-rule:nonzero}
    .fil4 {fill:#B7C4E3;fill-rule:nonzero}
    .fil29 {fill:#BB9B61;fill-rule:nonzero}
    .fil18 {fill:#C4CFE9;fill-rule:nonzero}
    .fil7 {fill:#CEE4EA;fill-rule:nonzero}
    .fil22 {fill:#D2AE6D;fill-rule:nonzero}
    .fil25 {fill:#D6BB8A;fill-rule:nonzero}
    .fil35 {fill:#D7B77D;fill-rule:nonzero}
    .fil14 {fill:#DEE4F2;fill-rule:nonzero}
    .fil5 {fill:#DEE4F3;fill-rule:nonzero}
    .fil30 {fill:#DFC596;fill-rule:nonzero}
    .fil19 {fill:#E1E7F4;fill-rule:nonzero}
    .fil33 {fill:#E6D2AE;fill-rule:nonzero}
    .fil26 {fill:#E6F0F4;fill-rule:nonzero}
    .fil3 {fill:#E9D1A9;fill-rule:nonzero}
    .fil8 {fill:#E9F4F6;fill-rule:nonzero}
    .fil27 {fill:#EDDFC4;fill-rule:nonzero}
    .fil44 {fill:#EEE3CE;fill-rule:nonzero}
    .fil0 {fill:#EFE2C9;fill-rule:nonzero}
    .fil21 {fill:#EFF2F8;fill-rule:nonzero}
    .fil24 {fill:#F3E0C2;fill-rule:nonzero}
    .fil2 {fill:#F4E3C8;fill-rule:nonzero}
    .fil1 {fill:#F6EFE2;fill-rule:nonzero}
    .fil43 {fill:#FBF5EE;fill-rule:nonzero}
    .fil20 {fill:white;fill-rule:nonzero}
    .fil42 {fill:white;fill-rule:nonzero}
   ]]>
  </style>
 </defs>
 <g id="Layer_x0020_1">
  <metadata id="CorelCorpID_0Corel-Layer"/>
  <g id="_2313667673872">
   <path class="fil0" d="M103087 47740c0,4208 -26810,5525 -31741,5732 -12307,516 -24754,150 -36850,-1018 -9193,-887 -17247,-2348 -17247,-4714 0,-3261 19216,-5905 42919,-5905 23704,0 42919,2644 42919,5905z"/>
   <path class="fil1" d="M19143 43948c-4398,-1765 -4378,-4704 -657,-6883 2851,-2369 93,-5222 -168,-7910 -680,-6994 7138,-9439 14332,-7987 3519,710 6714,1997 9662,1827 6939,-402 9209,-8149 12813,-12059 5230,-5674 14131,-7614 22374,-5500 6087,1562 8856,4979 8825,8967 -42,5272 -4853,8261 -4654,13039 175,4167 4439,4335 4124,9624 -604,10130 -27726,10370 -36327,10469 -12739,146 -25722,-1740 -30324,-3587z"/>
   <path class="fil2" d="M37370 33838c-5120,2528 -18235,-1881 -14842,-7545 4433,-7395 24106,2970 14842,7545z"/>
   <path class="fil0" d="M0 5669c9273,-2389 18312,-1120 26489,-5669l29884 0c-11067,267 -14630,2677 -17108,6138 -4604,6432 -3699,10386 -17825,9131 -11372,-1011 -12702,3695 -11548,9061 389,1811 987,3586 1247,5001 845,4604 -2294,8804 -11139,9278l0 -32940z"/>
   <path class="fil1" d="M0 0l34901 0c-6841,915 -10505,5914 -13921,8822 -5847,4976 -15264,4123 -20980,1341l0 -10163z"/>
   <g>
    <polygon class="fil3" points="69907,42555 53313,52136 50384,50455 46480,52700 32814,44810 36718,42556 32326,40019 48920,30438 "/>
    <path class="fil4" d="M67467 41995l0 0c0,493 -263,949 -690,1196l-12934 7467c-427,246 -953,246 -1379,0l-18131 -10465c-427,-246 -690,-702 -690,-1195l0 -105 33824 3102z"/>
    <path class="fil5" d="M53153 50258l-19329 -11160c-241,-139 -241,-364 0,-503l13877 -8012 19766 11412 -14314 8263z"/>
    <path class="fil6" d="M65171 42190l487 -281c80,-47 80,-122 0,-168l-17547 -10132c-80,-47 -210,-47 -291,0l-486 281c-80,47 -80,122 0,168l17547 10132c80,47 210,47 290,0z"/>
    <polygon class="fil7" points="41567,41995 41659,42049 47700,45536 51015,43623 51109,43569 44975,40027 "/>
    <polygon class="fil8" points="41659,42049 47700,45536 51016,43623 44973,40136 "/>
    <path class="fil9" d="M40396 36225l5 2 17335 10010c80,47 211,47 292,2l6263 -3537 7 -3c80,-46 80,-121 0,-167l-17414 -10059c-80,-47 -209,-47 -290,0l-6198 3583c-80,47 -80,122 0,169z"/>
    <path class="fil4" d="M40401 36227l17335 10010c80,47 211,47 292,2l6263 -3537 -17406 -10056c-81,-47 -210,-47 -291,0l-6193 3581z"/>
    <path class="fil10" d="M58870 44219c-3,-6 -3,-12 0,-18 -3,-6 -3,-12 0,-18 -3,-5 -3,-11 0,-17 -3,-6 -3,-12 0,-18 -3,-6 -3,-12 0,-18 -3,-6 -3,-11 0,-18 -3,-5 -3,-11 0,-17 -3,-6 -3,-12 0,-18 -3,-6 -3,-12 0,-18 -3,-5 -3,-11 0,-17 -4,-8 -3,-17 3,-25l-149 86c-26,15 -66,17 -89,4l-535 -309c-14,-8 -17,-20 -13,-31 -2,-6 -2,-12 0,-18 -2,-5 -2,-11 0,-17 -2,-6 -2,-12 0,-18 -2,-6 -2,-12 0,-18 -2,-5 -2,-12 0,-17 -2,-6 -2,-12 0,-18 -2,-6 -2,-12 0,-18 -2,-6 -2,-12 0,-18 -2,-5 -2,-11 0,-17 -2,-6 -2,-12 0,-18 -3,-8 -2,-16 4,-25l-149 86c-26,15 -66,17 -89,4l-535 -309c-14,-8 -17,-19 -13,-31 -3,-5 -2,-11 0,-17 -3,-6 -2,-12 0,-18 -3,-6 -2,-12 0,-18 -3,-5 -2,-11 0,-17 -3,-6 -2,-12 0,-18 -3,-6 -2,-12 0,-18 -3,-5 -2,-12 0,-18 -3,-5 -2,-11 0,-17 -3,-6 -2,-12 0,-18 -3,-6 -2,-12 0,-18 -4,-8 -3,-16 3,-24l-148 86c-27,15 -67,16 -89,3l-535 -309c-14,-8 -17,-19 -13,-30 -3,-6 -2,-12 0,-18 -3,-6 -2,-12 0,-18 -3,-5 -2,-11 0,-17 -3,-6 -2,-12 0,-18 -3,-6 -2,-12 0,-18 -3,-5 -2,-11 0,-18 -3,-5 -2,-11 0,-17 -3,-6 -2,-12 0,-18 -3,-6 -2,-12 0,-18 -3,-5 -2,-11 0,-17 -4,-8 -3,-17 3,-25l-149 86c-26,15 -66,17 -88,4l-536 -309c-13,-8 -17,-20 -12,-31 -3,-6 -3,-12 0,-18 -3,-5 -3,-11 0,-17 -3,-6 -3,-12 0,-18 -3,-6 -3,-12 0,-18 -3,-5 -3,-12 0,-17 -3,-6 -3,-12 0,-18 -3,-6 -3,-12 0,-18 -3,-6 -3,-12 0,-18 -3,-5 -3,-11 0,-17 -3,-6 -3,-12 0,-18 -4,-8 -3,-16 3,-25l-149 86c-26,15 -66,17 -89,4l-535 -309c-14,-8 -17,-19 -13,-31 -3,-5 -2,-11 0,-17 -3,-6 -2,-12 0,-18 -3,-6 -2,-12 0,-18 -3,-5 -2,-11 0,-17 -3,-6 -2,-12 0,-18 -3,-6 -2,-12 0,-18 -3,-5 -2,-12 0,-18 -3,-5 -2,-11 0,-17 -3,-6 -2,-12 0,-18 -3,-6 -2,-12 0,-18 -4,-7 -3,-16 3,-24l-148 86c-27,15 -66,17 -89,3l-535 -309c-14,-8 -17,-19 -13,-30 -3,-6 -2,-12 0,-18 -3,-6 -2,-12 0,-18 -3,-5 -2,-11 0,-17 -3,-6 -2,-12 0,-18 -3,-6 -2,-12 0,-18 -3,-5 -2,-11 0,-18 -3,-5 -2,-11 0,-17 -3,-6 -2,-12 0,-18 -3,-6 -2,-12 0,-18 -3,-5 -2,-11 0,-17 -4,-8 -3,-17 3,-25l-149 86c-26,15 -66,17 -88,4l-536 -309c-13,-8 -17,-20 -12,-31 -3,-6 -3,-12 0,-18 -3,-5 -3,-11 0,-17 -3,-6 -3,-12 0,-18 -3,-6 -3,-12 0,-18 -3,-5 -3,-11 0,-17 -3,-6 -3,-12 0,-18 -3,-6 -3,-12 0,-18 -3,-6 -3,-12 0,-18 -3,-5 -3,-11 0,-17 -3,-6 -3,-12 0,-18 -4,-8 -3,-16 3,-25l-149 86c-26,16 -66,17 -89,4l-535 -309c-14,-8 -17,-19 -13,-31 -2,-5 -2,-11 0,-17 -2,-6 -2,-12 0,-18 -2,-6 -2,-12 0,-18 -2,-5 -2,-11 0,-17 -2,-6 -2,-12 0,-18 -2,-6 -2,-12 0,-18 -2,-5 -2,-12 0,-18 -2,-5 -2,-11 0,-17 -2,-6 -2,-12 0,-18 -2,-6 -2,-12 0,-18 -3,-7 -2,-16 4,-24l-149 86c-26,15 -66,17 -89,3l-535 -309c-14,-8 -17,-19 -13,-30 -3,-6 -2,-12 0,-18 -3,-6 -2,-12 0,-18 -3,-5 -2,-11 0,-17 -3,-6 -2,-12 0,-18 -3,-6 -2,-12 0,-18 -3,-5 -2,-11 0,-18 -3,-5 -2,-11 0,-17 -3,-6 -2,-12 0,-18 -3,-6 -2,-12 0,-18 -3,-5 -2,-11 0,-17 -4,-8 -3,-17 3,-25l-149 86c-26,15 -66,17 -88,4l-536 -309c-13,-8 -16,-20 -12,-31 -3,-6 -3,-12 0,-18 -3,-5 -3,-11 0,-17 -3,-6 -3,-12 0,-18 -3,-6 -2,-12 0,-18 -3,-5 -2,-11 0,-17 -3,-6 -3,-12 0,-18 -3,-6 -3,-12 0,-18 -3,-6 -3,-12 0,-18 -3,-5 -3,-11 0,-17 -3,-6 -2,-12 0,-18 -4,-8 -3,-16 3,-24l-149 85c-26,16 -66,17 -89,4l-535 -309c-14,-8 -17,-19 -12,-31 -3,-5 -3,-11 0,-17 -3,-6 -3,-12 0,-18 -3,-6 -3,-12 0,-18 -3,-5 -3,-11 0,-17 -3,-6 -3,-12 0,-18 -3,-6 -3,-12 0,-18 -3,-5 -3,-12 0,-18 -3,-5 -3,-11 0,-17 -3,-6 -3,-12 0,-18 -3,-6 -3,-12 0,-18 -4,-7 -3,-16 3,-24l-149 86c-26,15 -66,17 -89,3l-1194 -689c-14,-8 -17,-19 -12,-30 -3,-6 -3,-12 0,-18 -3,-6 -3,-12 0,-18 -3,-6 -3,-12 0,-18 -3,-5 -3,-11 0,-17 -3,-6 -3,-12 0,-18 -3,-6 -3,-12 0,-18 -3,-6 -3,-11 0,-17 -3,-6 -3,-12 0,-18 -3,-6 -3,-12 0,-18 -3,-6 -3,-12 0,-18 -7,-12 0,-27 19,-38l1616 -933c26,-16 66,-17 89,-4l617 356c14,8 17,20 13,31 3,6 2,12 0,18 3,5 2,11 0,17 3,6 2,12 0,18 3,6 2,12 0,18 3,6 2,12 0,18 3,5 2,11 0,17 3,6 2,12 0,18 3,6 2,12 0,18 3,5 2,11 0,18 3,5 2,11 0,17 4,8 3,17 -3,25l149 -86c26,-15 66,-17 88,-4l536 309c13,8 17,20 12,31 3,5 3,11 0,17 3,6 3,12 0,18 3,6 3,12 0,18 3,6 3,12 0,18 3,5 3,11 0,17 3,6 3,12 0,18 3,6 3,12 0,18 3,5 3,11 0,17 3,6 3,12 0,18 3,6 3,12 0,18 4,8 3,16 -3,24l149 -85c26,-16 66,-17 89,-4l535 309c14,8 17,19 12,30 3,6 3,12 0,18 3,6 3,12 0,18 3,5 3,12 0,18 3,5 3,11 0,17 3,6 3,12 0,18 3,6 3,12 0,18 3,5 3,11 0,17 3,6 3,12 0,18 3,6 3,12 0,18 3,6 3,12 0,18 4,7 3,16 -3,24l149 -86c27,-15 66,-17 89,-4l535 309c14,8 17,20 13,31 3,6 2,12 0,18 3,5 2,11 0,18 3,5 2,11 0,17 3,6 2,12 0,18 3,6 2,12 0,18 3,5 2,11 0,17 3,6 2,12 0,18 3,6 2,12 0,18 3,5 2,11 0,18 3,5 2,11 0,17 4,8 3,17 -3,25l149 -86c26,-15 65,-17 88,-4l535 309c14,8 17,19 13,31 3,5 3,11 0,17 3,6 3,12 0,18 3,6 3,12 0,18 3,6 3,12 0,18 3,5 3,11 0,17 3,6 3,12 0,18 3,6 3,12 0,18 3,5 3,11 0,17 3,6 3,12 0,18 3,6 3,12 0,18 4,8 3,16 -3,24l149 -86c26,-15 66,-16 89,-3l535 309c14,8 17,19 12,30 3,6 3,12 0,18 3,6 3,12 0,18 3,5 3,11 0,18 3,5 3,11 0,17 3,6 3,12 0,18 3,6 3,12 0,18 3,5 3,11 0,17 3,6 3,12 0,18 3,6 3,12 0,18 3,5 3,12 0,18 4,7 3,16 -3,24l149 -86c26,-15 66,-17 89,-4l535 309c14,8 17,20 13,31 3,6 2,12 0,18 3,5 2,11 0,17 3,6 2,12 0,18 3,6 2,12 0,18 3,6 2,12 0,18 3,5 2,11 0,17 3,6 2,12 0,18 3,6 2,12 0,18 3,5 2,11 0,18 3,5 2,11 0,17 4,8 3,17 -4,25l149 -86c27,-15 66,-17 89,-4l535 309c14,8 17,20 13,31 3,5 2,11 0,17 3,6 2,12 0,18 3,6 2,12 0,18 3,6 2,11 0,18 3,5 2,11 0,17 3,6 2,12 0,18 3,6 2,12 0,18 3,5 2,11 0,17 3,6 2,12 0,18 3,6 2,12 0,18 4,8 3,16 -3,24l149 -86c26,-15 66,-16 88,-3l536 309c13,8 17,19 12,30 3,6 3,12 0,18 3,6 3,12 0,18 3,5 3,11 0,18 3,5 3,11 0,17 3,6 3,12 0,18 3,6 3,12 0,18 3,5 3,11 0,17 3,6 3,12 0,18 3,6 3,12 0,18 3,5 3,11 0,18 4,7 3,16 -3,24l149 -86c26,-15 66,-17 89,-4l535 309c14,8 17,20 12,31 3,6 3,12 0,18 3,5 3,11 0,17 3,6 3,12 0,18 3,6 3,12 0,18 3,5 3,12 0,18 3,5 3,11 0,17 3,6 3,12 0,18 3,6 3,12 0,18 3,5 3,11 0,18 3,5 3,11 0,17 4,8 3,16 -3,25l149 -86c27,-15 66,-17 89,-4l535 309c14,8 17,19 13,31 3,5 2,11 0,17 3,6 2,12 0,18 3,6 2,12 0,18 3,6 2,11 0,17 3,6 2,12 0,18 3,6 2,12 0,18 3,6 2,12 0,18 3,5 2,11 0,17 3,6 2,12 0,18 3,6 2,12 0,18 4,7 3,16 -3,24l149 -86c26,-15 66,-16 88,-3l536 309c13,8 17,19 12,30 3,6 3,12 0,18 3,6 3,12 0,18 3,5 3,11 0,17 3,6 3,12 0,18 3,6 3,12 0,18 3,6 3,12 0,18 3,5 3,11 0,17 3,6 3,12 0,18 3,6 3,12 0,18 3,5 3,11 0,17 4,8 3,17 -3,25l149 -86c26,-15 66,-17 89,-4l535 309c14,8 17,20 12,31 3,6 3,12 0,18 3,5 3,11 0,17 3,6 3,12 0,18 3,6 3,12 0,18 3,5 3,11 0,18 3,5 3,11 0,17 3,6 3,12 0,18 3,6 3,12 0,18 3,5 3,11 0,17 3,6 3,12 0,18 4,8 3,16 -3,25l149 -86c26,-15 66,-17 89,-4l823 475c14,8 17,20 13,31 3,6 2,12 0,18 3,5 2,11 0,17 3,6 2,12 0,18 3,6 2,12 0,18 3,6 2,12 0,18 3,5 2,11 0,17 3,6 2,12 0,18 3,6 2,12 0,18 3,5 2,11 0,17 3,6 2,12 0,18 6,13 0,28 -19,39l-666 384c-26,15 -66,17 -88,4l-824 -476c-14,-8 -17,-19 -12,-30 -3,-6 -3,-12 0,-18 -3,-6 -3,-12 0,-18 -3,-5 -3,-12 0,-18 -3,-5 -3,-11 0,-17 -3,-6 -3,-12 0,-18 -3,-6 -3,-12 0,-18 -3,-5 -3,-11 0,-17 -3,-6 -3,-12 0,-18 -3,-6 -3,-12 0,-18 -3,-6 -3,-12 0,-18 -4,-7 -3,-16 3,-24l-149 86c-27,15 -66,17 -89,4l-535 -310c-14,-7 -17,-19 -13,-30 -3,-6 -2,-12 0,-18 -3,-5 -2,-11 0,-18 -3,-5 -2,-11 0,-17 -3,-6 -2,-12 0,-18 -3,-6 -2,-12 0,-18 -3,-5 -2,-11 0,-17 -3,-6 -2,-12 0,-18 -3,-6 -2,-12 0,-18 -3,-5 -2,-11 0,-18 -3,-5 -2,-11 0,-17 -4,-8 -3,-17 3,-25l-149 86c-26,15 -66,17 -88,4l-536 -309c-13,-8 -16,-20 -12,-31 -3,-5 -3,-11 0,-17 -3,-6 -3,-12 0,-18 -3,-6 -3,-12 0,-18 -3,-6 -3,-12 0,-18 -3,-5 -2,-11 0,-17 -3,-6 -2,-12 0,-18 -3,-6 -3,-12 0,-18 -3,-5 -3,-11 0,-17 -3,-6 -3,-12 0,-18 -3,-6 -3,-12 0,-18 -4,-8 -3,-16 3,-24l-149 86c-26,15 -66,16 -89,3l-535 -309c-13,-8 -17,-19 -12,-30 -3,-6 -3,-12 0,-18 -3,-6 -3,-12 0,-18 -3,-5 -3,-12 0,-18 -3,-5 -3,-11 0,-17 -3,-6 -3,-12 0,-18 -3,-6 -3,-12 0,-18 -3,-5 -3,-11 0,-17 -3,-6 -3,-12 0,-18 -3,-6 -3,-12 0,-18 -3,-5 -3,-12 0,-18 -4,-7 -3,-16 3,-24l-149 86c-26,15 -66,17 -89,3l-535 -308c-14,-8 -17,-20 -13,-31 -3,-6 -2,-12 0,-18 -3,-5 -2,-11 0,-18 -3,-5 -2,-11 0,-17 -3,-6 -2,-12 0,-18 -3,-5 -2,-12 0,-18 -3,-5 -2,-11 0,-17 -3,-6 -2,-12 0,-18 -3,-6 -2,-12 0,-18 -3,-5 -2,-11 0,-18 -3,-5 -2,-11 0,-17 -4,-8 -3,-17 4,-25l-149 86c-27,15 -66,17 -89,4l-535 -309c-14,-8 -17,-20 -13,-31 -3,-5 -2,-11 0,-17 -3,-6 -2,-12 0,-18 -3,-6 -2,-12 0,-18 -3,-5 -2,-12 0,-18 -3,-5 -2,-11 0,-17 -3,-6 -2,-12 0,-18 -3,-6 -2,-12 0,-18 -3,-5 -2,-11 0,-17 -3,-6 -2,-12 0,-18 -3,-6 -2,-12 0,-18 -4,-8 -3,-16 3,-24l-149 86c-26,15 -66,16 -88,3l-536 -309c-13,-8 -17,-19 -12,-30 -3,-6 -3,-12 0,-18 -3,-6 -3,-12 0,-18 -3,-5 -3,-12 0,-17 -3,-6 -3,-12 0,-18 -3,-6 -3,-12 0,-18 -3,-6 -3,-12 0,-18 -3,-5 -3,-11 0,-17 -3,-6 -3,-12 0,-18 -3,-6 -3,-12 0,-18 -3,-5 -3,-12 0,-18 -4,-7 -3,-16 3,-24l-149 86c-26,15 -66,17 -89,4l-535 -310c-14,-7 -17,-19 -12,-30 -3,-6 -3,-12 0,-18 -3,-5 -3,-11 0,-17 -3,-6 -3,-12 0,-18 -3,-6 -3,-12 0,-18 -3,-5 -3,-11 0,-18 -3,-5 -3,-11 0,-17 -3,-6 -3,-12 0,-18 -3,-6 -3,-12 0,-18 -3,-5 -3,-11 0,-17 -3,-6 -3,-12 0,-18 -4,-8 -3,-16 3,-25l-149 86c-27,15 -66,17 -89,4l-535 -309c-14,-8 -17,-20 -13,-31 -3,-5 -2,-11 0,-17 -3,-6 -2,-12 0,-18 -3,-6 -2,-12 0,-18 -3,-5 -2,-11 0,-17 -3,-6 -2,-12 0,-18 -3,-6 -2,-12 0,-18 -3,-6 -2,-12 0,-18 -3,-5 -2,-11 0,-17 -3,-6 -2,-12 0,-18 -3,-6 -2,-12 0,-18 -4,-8 -3,-16 3,-24l-149 86c-26,15 -66,16 -88,3l-535 -309c-14,-8 -18,-19 -13,-30 -3,-6 -3,-12 0,-18 -3,-6 -3,-12 0,-18 -3,-5 -3,-11 0,-17 -3,-6 -3,-12 0,-18 -3,-6 -3,-12 0,-18 -3,-6 -3,-12 0,-18 -3,-5 -3,-11 0,-17 -3,-6 -3,-12 0,-18 -3,-6 -3,-12 0,-18 -3,-5 -3,-11 0,-18 -4,-7 -3,-16 3,-24l-149 86c-26,15 -66,17 -89,4l-535 -309c-14,-8 -17,-20 -12,-31 -3,-6 -3,-12 0,-18 -3,-5 -3,-11 0,-18 -3,-5 -3,-11 0,-17 -3,-6 -3,-12 0,-18 -3,-5 -3,-12 0,-18 -3,-5 -3,-11 0,-17 -3,-6 -3,-12 0,-18 -3,-6 -3,-12 0,-18 -3,-5 -3,-11 0,-17 -3,-6 -3,-12 0,-18 -4,-8 -3,-16 3,-25l-149 86c-26,15 -66,17 -89,4l-535 -309c-14,-8 -17,-19 -13,-31 -3,-5 -2,-11 0,-17 -3,-6 -2,-12 0,-18 -3,-6 -2,-12 0,-18 -3,-5 -2,-11 0,-17 -3,-6 -2,-12 0,-18 -3,-6 -2,-12 0,-18 -3,-6 -2,-12 0,-18 -3,-5 -2,-11 0,-17 -3,-6 -2,-12 0,-18 -3,-6 -2,-12 0,-18 -4,-8 -3,-16 3,-24l-148 86c-27,15 -66,16 -89,3l-535 -309c-14,-8 -17,-19 -13,-30 -3,-6 -2,-12 0,-18 -3,-6 -2,-12 0,-18 -3,-5 -2,-11 0,-17 -3,-6 -2,-12 0,-18 -3,-6 -2,-12 0,-18 -3,-6 -2,-12 0,-18 -3,-5 -2,-11 0,-17 -3,-6 -2,-12 0,-18 -3,-6 -2,-12 0,-18 -3,-5 -2,-11 0,-17 -4,-8 -3,-17 3,-25l-218 126 367 211c14,8 17,20 12,31 3,5 3,11 0,18 3,5 3,11 0,17 3,6 3,12 0,18 3,6 3,12 0,18 3,5 3,11 0,18 3,5 3,11 0,17 3,6 3,12 0,18 3,5 3,11 0,18 3,5 3,11 0,17 3,6 3,12 0,18 4,8 3,16 -3,25l149 -86c26,-15 66,-17 89,-4l535 309c14,8 17,19 13,30 3,6 2,12 0,18 3,6 2,12 0,18 3,6 2,12 0,18 3,5 2,11 0,17 3,6 2,12 0,18 3,6 2,12 0,18 3,5 2,11 0,17 3,6 2,12 0,18 3,6 2,12 0,18 3,6 2,12 0,18 4,7 3,16 -3,24l148 -86c27,-15 66,-17 89,-3l535 309c14,8 17,19 13,30 3,6 2,12 0,18 3,6 2,12 0,18 3,5 2,11 0,17 3,6 2,12 0,18 3,6 2,12 0,18 3,5 2,11 0,17 3,6 2,12 0,18 3,6 2,12 0,18 3,6 2,12 0,18 3,5 2,11 0,17 4,8 3,17 -3,25l149 -86c26,-15 66,-17 88,-4l536 309c13,8 17,20 12,31 3,5 3,11 0,18 3,5 3,11 0,17 3,6 3,12 0,18 3,6 3,12 0,18 3,5 3,11 0,17 3,6 3,12 0,18 3,6 3,12 0,18 3,5 3,12 0,18 3,5 3,11 0,17 3,6 3,12 0,18 4,8 3,16 -3,25l149 -86c26,-16 66,-17 89,-4l535 309c14,8 17,19 13,31 2,5 2,11 0,17 2,6 2,12 0,18 2,6 2,12 0,18 2,5 2,11 0,17 2,6 2,12 0,18 2,6 2,12 0,18 2,5 2,11 0,18 2,5 2,11 0,17 2,6 2,12 0,18 2,6 2,12 0,18 4,7 2,16 -3,24l148 -86c27,-15 66,-17 89,-3l535 309c14,8 17,19 13,30 3,6 2,12 0,18 3,5 2,12 0,18 3,5 2,11 0,17 3,6 2,12 0,18 3,6 2,12 0,18 3,5 2,11 0,17 3,6 2,12 0,18 3,6 2,12 0,18 3,6 2,12 0,18 3,5 2,11 0,17 4,8 3,17 -3,25l149 -86c26,-15 66,-17 88,-4l536 309c13,8 17,20 12,31 3,5 3,11 0,18 3,5 3,11 0,17 3,6 3,12 0,18 3,6 3,12 0,18 3,5 3,11 0,17 3,6 3,12 0,18 3,6 3,12 0,18 3,5 3,11 0,18 3,5 3,11 0,17 3,6 3,12 0,18 4,8 3,16 -3,25l149 -86c26,-16 66,-17 89,-4l535 309c14,8 17,19 13,30 2,6 2,12 0,18 2,6 2,12 0,18 2,6 2,12 0,18 2,5 2,11 0,17 2,6 2,12 0,18 2,6 2,12 0,18 2,5 2,11 0,17 2,6 2,12 0,18 2,6 2,12 0,18 2,6 2,12 0,18 3,7 2,16 -4,24l149 -86c26,-15 66,-17 89,-3l535 309c14,7 17,19 13,30 3,6 2,12 0,18 3,5 2,12 0,18 3,5 2,11 0,17 3,6 2,12 0,18 3,6 2,12 0,18 3,5 2,11 0,17 3,6 2,12 0,18 3,6 2,12 0,18 3,6 2,12 0,18 3,5 2,11 0,17 4,8 3,17 -3,25l148 -86c27,-15 66,-17 89,-4l535 309c14,8 18,20 13,31 3,5 2,11 0,18 3,5 2,11 0,17 3,6 2,12 0,18 3,6 2,12 0,18 3,5 2,11 0,17 3,6 2,12 0,18 3,6 2,12 0,18 3,5 2,12 0,18 3,5 2,11 0,17 3,6 2,12 0,18 4,8 3,16 -3,24l149 -85c26,-16 66,-17 89,-4l535 309c13,8 17,19 12,30 3,6 3,12 0,18 3,6 3,12 0,18 3,6 3,12 0,18 3,5 3,11 0,17 3,6 3,12 0,18 3,6 3,12 0,18 3,5 3,11 0,18 3,5 3,11 0,17 3,6 3,12 0,18 3,6 3,12 0,18 4,7 3,16 -3,24l149 -86c26,-15 66,-17 89,-3l535 309c14,7 17,19 13,30 2,6 2,12 0,18 2,5 2,11 0,18 2,5 2,11 0,17 2,6 2,12 0,18 2,6 2,12 0,18 2,5 2,11 0,17 2,6 2,12 0,18 2,6 2,12 0,18 2,6 2,11 0,18 2,5 2,11 0,17 4,8 2,17 -3,25l148 -86c27,-15 66,-17 89,-4l1029 594c14,8 17,20 13,31 3,6 2,12 0,18 3,5 2,11 0,17 3,6 2,12 0,18 3,6 2,12 0,18 3,5 2,12 0,18 3,5 2,11 0,17 3,6 2,12 0,18 3,6 2,12 0,18 3,5 2,11 0,17 3,6 2,12 0,18 6,13 0,28 -19,39l-666 384c-26,15 -66,17 -88,4l-1030 -595c-13,-8 -17,-19 -12,-30z"/>
    <path class="fil10" d="M62476 41972l-666 384c-26,15 -66,17 -89,4l-535 -309c-14,-8 -17,-20 -13,-31 -2,-5 -2,-11 0,-17 -2,-6 -2,-12 0,-18 -2,-6 -2,-12 0,-18 -2,-6 -2,-12 0,-18 -2,-5 -2,-11 0,-17 -2,-6 -2,-12 0,-18 -2,-6 -2,-12 0,-18 -2,-5 -2,-11 0,-17 -2,-6 -2,-12 0,-18 -2,-6 -2,-12 0,-18 -3,-8 -2,-16 4,-24l-149 85c-27,16 -66,17 -89,4l-535 -309c-14,-8 -17,-19 -13,-30 -3,-6 -2,-12 0,-18 -3,-6 -2,-12 0,-18 -3,-5 -2,-11 0,-17 -3,-6 -2,-12 0,-18 -3,-6 -2,-12 0,-18 -3,-6 -2,-12 0,-18 -3,-5 -2,-11 0,-17 -3,-6 -2,-12 0,-18 -3,-6 -2,-12 0,-18 -3,-5 -2,-11 0,-18 -4,-7 -3,-16 3,-24l-149 86c-26,15 -66,17 -88,4l-536 -310c-13,-7 -17,-19 -12,-30 -3,-6 -3,-12 0,-18 -3,-5 -3,-11 0,-17 -3,-6 -3,-12 0,-18 -3,-6 -3,-12 0,-18 -3,-6 -3,-12 0,-18 -3,-5 -3,-11 0,-17 -3,-6 -3,-12 0,-18 -3,-6 -3,-12 0,-18 -3,-5 -3,-11 0,-17 -3,-6 -3,-12 0,-18 -4,-8 -3,-17 3,-25l-149 86c-26,15 -66,17 -89,4l-535 -309c-14,-8 -17,-20 -12,-31 -3,-5 -3,-11 0,-17 -3,-6 -3,-12 0,-18 -3,-6 -3,-12 0,-18 -3,-5 -3,-11 0,-18 -3,-5 -3,-11 0,-17 -3,-6 -3,-12 0,-18 -3,-6 -3,-12 0,-18 -3,-5 -3,-11 0,-17 -3,-6 -3,-12 0,-18 -3,-6 -3,-12 0,-18 -7,-12 0,-27 19,-38l665 -385c26,-15 66,-16 89,-3l535 309c14,8 17,19 13,30 3,6 2,12 0,18 3,6 2,12 0,18 3,5 2,11 0,17 3,6 2,12 0,18 3,6 2,12 0,18 3,6 2,12 0,18 3,5 2,11 0,17 3,6 2,12 0,18 3,6 2,12 0,18 3,5 2,11 0,18 4,7 3,16 -3,24l148 -86c27,-15 66,-17 89,-4l535 309c14,8 17,20 13,31 3,6 2,12 0,18 3,5 2,11 0,17 3,6 2,12 0,18 3,6 2,12 0,18 3,6 2,12 0,18 3,5 2,11 0,17 3,6 2,12 0,18 3,6 2,12 0,18 3,5 2,11 0,17 3,6 2,12 0,18 4,8 3,17 -3,25l149 -86c26,-15 66,-17 89,-4l535 309c13,8 17,20 12,31 3,5 3,11 0,17 3,6 3,12 0,18 3,6 3,12 0,18 3,5 3,11 0,18 3,5 3,11 0,17 3,6 3,12 0,18 3,6 3,12 0,18 3,5 3,11 0,17 3,6 3,12 0,18 3,6 3,12 0,18 4,8 3,16 -3,24l149 -86c26,-15 66,-16 89,-3l535 309c14,8 17,19 13,30 2,6 2,12 0,18 2,6 2,12 0,18 2,5 2,11 0,17 2,6 2,12 0,18 2,6 2,12 0,18 2,6 2,12 0,18 2,5 2,11 0,17 2,6 2,12 0,18 2,6 2,12 0,18 2,5 2,11 0,18 6,12 0,27 -19,38z"/>
    <path class="fil10" d="M58290 44982c-3,-6 -3,-12 0,-18 -3,-6 -3,-12 0,-18 -3,-5 -3,-12 0,-17 -3,-6 -3,-12 0,-18 -3,-6 -3,-12 0,-18 -3,-6 -3,-12 0,-18 -3,-5 -3,-11 0,-17 -3,-6 -3,-12 0,-18 -3,-6 -3,-12 0,-18 -3,-5 -3,-11 0,-18 -4,-7 -3,-16 3,-24l-149 86c-27,15 -66,17 -89,4l-535 -310c-14,-7 -17,-19 -13,-30 -3,-6 -2,-12 0,-18 -3,-5 -2,-11 0,-18 -3,-5 -2,-11 0,-17 -3,-6 -2,-12 0,-18 -3,-5 -2,-11 0,-18 -3,-5 -2,-11 0,-17 -3,-6 -2,-12 0,-18 -3,-6 -2,-12 0,-18 -3,-5 -2,-11 0,-17 -3,-6 -2,-12 0,-18 -4,-8 -3,-17 3,-25l-149 86c-26,15 -65,17 -88,4l-535 -309c-14,-8 -17,-20 -13,-31 -3,-5 -3,-11 0,-17 -3,-6 -3,-12 0,-18 -3,-6 -3,-12 0,-18 -3,-5 -3,-11 0,-18 -3,-5 -3,-11 0,-17 -3,-6 -3,-12 0,-18 -3,-6 -3,-12 0,-18 -3,-5 -3,-11 0,-17 -3,-6 -3,-12 0,-18 -3,-6 -3,-12 0,-18 -4,-8 -3,-16 3,-24l-149 86c-26,15 -66,16 -89,3l-535 -309c-14,-8 -17,-19 -12,-30 -3,-6 -3,-12 0,-18 -3,-6 -3,-12 0,-18 -3,-5 -3,-11 0,-17 -3,-6 -3,-12 0,-18 -3,-6 -3,-12 0,-18 -3,-6 -3,-12 0,-18 -3,-5 -3,-11 0,-17 -3,-6 -3,-12 0,-18 -3,-6 -3,-12 0,-18 -3,-5 -3,-11 0,-17 -4,-8 -3,-17 3,-25l-149 86c-26,15 -66,17 -89,4l-535 -310c-14,-7 -17,-19 -13,-30 -3,-6 -2,-12 0,-18 -3,-5 -2,-11 0,-17 -3,-6 -2,-12 0,-18 -3,-6 -2,-12 0,-18 -3,-6 -2,-12 0,-18 -3,-5 -2,-11 0,-17 -3,-6 -2,-12 0,-18 -3,-6 -2,-12 0,-18 -3,-5 -2,-11 0,-17 -3,-6 -2,-12 0,-18 -4,-8 -3,-17 4,-25l-149 86c-27,15 -66,17 -89,4l-535 -309c-14,-8 -17,-19 -13,-31 -3,-5 -2,-11 0,-17 -3,-6 -2,-12 0,-18 -3,-6 -2,-12 0,-18 -3,-5 -2,-11 0,-18 -3,-5 -2,-11 0,-17 -3,-6 -2,-12 0,-18 -3,-6 -2,-12 0,-18 -3,-5 -2,-11 0,-17 -3,-6 -2,-12 0,-18 -3,-6 -2,-12 0,-18 -4,-8 -3,-16 3,-24l-149 86c-26,15 -66,16 -88,3l-536 -309c-13,-8 -17,-19 -12,-30 -3,-6 -3,-12 0,-18 -3,-6 -3,-12 0,-18 -3,-5 -3,-11 0,-17 -3,-6 -3,-12 0,-18 -3,-6 -3,-12 0,-18 -3,-6 -3,-12 0,-18 -3,-5 -3,-11 0,-17 -3,-6 -3,-12 0,-18 -3,-6 -3,-12 0,-18 -3,-5 -3,-11 0,-17 -4,-8 -3,-17 3,-25l-149 86c-26,15 -66,17 -89,4l-535 -309c-14,-8 -17,-20 -12,-31 -3,-6 -3,-12 0,-18 -3,-5 -3,-11 0,-17 -3,-6 -3,-12 0,-18 -3,-6 -3,-12 0,-18 -3,-5 -3,-12 0,-18 -3,-5 -3,-11 0,-17 -3,-6 -3,-12 0,-18 -3,-6 -3,-12 0,-18 -3,-5 -3,-11 0,-17 -3,-6 -3,-12 0,-18 -4,-8 -3,-16 3,-25l-149 86c-27,15 -66,17 -89,4l-535 -309c-14,-8 -17,-19 -13,-31 -3,-5 -2,-11 0,-17 -3,-6 -2,-12 0,-18 -3,-6 -2,-12 0,-18 -3,-5 -2,-11 0,-17 -3,-6 -2,-12 0,-18 -3,-6 -2,-12 0,-18 -3,-6 -2,-12 0,-18 -3,-5 -2,-11 0,-17 -3,-6 -2,-12 0,-18 -3,-6 -2,-12 0,-18 -4,-8 -3,-16 3,-24l-149 86c-26,15 -66,16 -88,3l-536 -309c-13,-8 -17,-19 -12,-30 -3,-6 -3,-12 0,-18 -3,-6 -3,-12 0,-18 -3,-5 -3,-11 0,-17 -3,-6 -3,-12 0,-18 -3,-6 -3,-12 0,-18 -3,-6 -3,-12 0,-18 -3,-5 -3,-11 0,-17 -3,-6 -3,-12 0,-18 -3,-6 -3,-12 0,-18 -3,-5 -3,-11 0,-17 -4,-8 -3,-17 3,-25l-149 86c-26,15 -66,17 -89,4l-535 -309c-14,-8 -17,-20 -12,-31 -3,-6 -3,-12 0,-18 -3,-5 -3,-11 0,-17 -3,-6 -3,-12 0,-18 -3,-6 -3,-12 0,-18 -3,-5 -3,-12 0,-18 -3,-5 -3,-11 0,-17 -3,-6 -3,-12 0,-18 -3,-6 -3,-12 0,-18 -3,-5 -3,-11 0,-17 -3,-6 -3,-12 0,-18 -4,-8 -3,-17 3,-25l-149 86c-26,15 -66,17 -89,4l-535 -309c-14,-8 -17,-19 -13,-31 -3,-5 -2,-11 0,-17 -3,-6 -2,-12 0,-18 -3,-6 -2,-12 0,-18 -3,-5 -2,-11 0,-18 -3,-5 -2,-11 0,-17 -3,-6 -2,-12 0,-18 -3,-6 -2,-12 0,-18 -3,-5 -2,-11 0,-17 -3,-6 -2,-12 0,-18 -3,-6 -2,-12 0,-18 -4,-8 -3,-16 3,-24l-148 86c-27,15 -66,16 -89,3l-1565 -903c-13,-8 -17,-19 -12,-31 -3,-5 -3,-11 0,-17 -3,-6 -3,-12 0,-18 -3,-6 -3,-12 0,-18 -3,-5 -3,-11 0,-17 -3,-6 -3,-12 0,-18 -3,-6 -3,-12 0,-18 -3,-5 -3,-11 0,-18 -3,-5 -3,-11 0,-17 -3,-6 -3,-12 0,-18 -3,-6 -3,-12 0,-18 -7,-12 0,-27 19,-38l665 -384c26,-16 66,-17 89,-4l1565 903c13,8 17,20 12,31 3,5 3,11 0,18 3,5 3,11 0,17 3,6 3,12 0,18 3,6 3,12 0,18 3,5 3,11 0,17 3,6 3,12 0,18 3,6 3,12 0,18 3,5 3,12 0,17 3,6 3,12 0,18 3,6 3,12 0,18 4,8 3,16 -3,24l149 -85c26,-16 66,-17 89,-4l535 309c13,8 17,19 12,30 3,6 3,12 0,18 3,6 3,12 0,18 3,5 3,12 0,18 3,5 3,11 0,17 3,6 3,12 0,18 3,6 3,12 0,18 3,5 3,11 0,18 3,5 3,11 0,17 3,6 3,12 0,18 3,5 3,12 0,18 4,7 3,16 -3,24l149 -86c26,-15 66,-17 89,-4l535 310c14,7 17,19 13,30 3,6 2,12 0,18 3,5 2,12 0,17 3,6 2,12 0,18 3,6 2,12 0,18 3,6 2,12 0,18 3,5 2,11 0,17 3,6 2,12 0,18 3,6 2,12 0,18 3,5 2,11 0,18 3,5 2,11 0,17 4,8 3,17 -3,25l149 -86c26,-15 65,-17 88,-4l535 309c14,8 17,20 13,31 3,5 2,11 0,17 3,6 2,12 0,18 3,6 2,12 0,18 3,6 2,12 0,18 3,5 2,11 0,17 3,6 2,12 0,18 3,6 2,12 0,18 3,5 2,12 0,17 3,6 2,12 0,18 3,6 2,12 0,18 4,8 3,16 -3,24l149 -85c26,-16 66,-17 88,-4l536 309c13,8 17,19 12,30 3,6 3,12 0,18 3,6 3,12 0,18 3,5 3,11 0,18 3,5 3,11 0,17 3,6 3,12 0,18 3,6 3,12 0,18 3,5 3,11 0,17 3,6 3,12 0,18 3,6 3,12 0,18 3,5 3,12 0,18 4,7 3,16 -3,24l149 -86c26,-15 66,-17 89,-4l535 310c14,7 17,19 13,30 2,6 2,12 0,18 2,5 2,11 0,17 2,6 2,12 0,18 2,6 2,12 0,18 2,6 2,12 0,18 2,5 2,11 0,17 2,6 2,12 0,18 2,6 2,12 0,18 2,5 2,11 0,18 2,5 2,11 0,17 4,8 2,17 -4,25l149 -86c27,-15 66,-17 89,-4l535 309c14,8 17,19 13,31 3,5 2,11 0,17 3,6 2,12 0,18 3,6 2,12 0,18 3,6 2,12 0,18 3,5 2,11 0,17 3,6 2,12 0,18 3,6 2,12 0,18 3,5 2,11 0,17 3,6 2,12 0,18 3,6 2,12 0,18 4,8 3,16 -3,24l149 -85c26,-16 66,-17 88,-4l536 309c13,8 17,19 12,30 3,6 3,12 0,18 3,6 3,12 0,18 3,5 3,11 0,18 3,5 3,11 0,17 3,6 3,12 0,18 3,6 3,12 0,18 3,5 3,11 0,17 3,6 3,12 0,18 3,6 3,12 0,18 3,5 3,12 0,18 4,7 3,16 -3,24l149 -86c26,-15 66,-17 89,-4l535 309c14,8 17,20 12,31 3,6 3,12 0,18 3,5 3,11 0,17 3,6 3,12 0,18 3,6 3,12 0,18 3,6 3,12 0,18 3,5 3,11 0,17 3,6 3,12 0,18 3,6 3,12 0,18 3,5 3,11 0,17 3,6 3,12 0,18 4,8 3,17 -3,25l149 -86c27,-15 66,-17 89,-4l535 309c14,8 17,19 13,31 3,5 2,11 0,17 3,6 2,12 0,18 3,6 2,12 0,18 3,6 2,12 0,18 3,5 2,11 0,17 3,6 2,12 0,18 3,6 2,12 0,18 3,5 2,11 0,17 3,6 2,12 0,18 3,6 2,12 0,18 4,8 3,16 -3,24l149 -85c26,-16 65,-17 88,-4l535 309c14,8 18,19 13,30 3,6 3,12 0,18 3,6 3,12 0,18 3,5 3,11 0,18 3,5 3,11 0,17 3,6 3,12 0,18 3,6 3,12 0,18 3,5 3,11 0,17 3,6 3,12 0,18 3,6 3,12 0,18 3,5 3,11 0,18 4,7 3,16 -3,24l149 -86c26,-15 66,-17 89,-4l535 309c13,8 17,20 12,31 3,6 3,12 0,18 3,5 3,11 0,17 3,6 3,12 0,18 3,6 3,12 0,18 3,6 3,12 0,18 3,5 3,11 0,17 3,6 3,12 0,18 3,6 3,12 0,18 3,5 3,11 0,17 3,6 3,12 0,18 4,8 3,17 -3,25l149 -86c26,-15 66,-17 89,-4l659 381c13,7 17,19 12,30 3,6 3,12 0,18 3,5 3,11 0,17 3,6 3,12 0,18 3,6 3,12 0,18 3,5 3,12 0,18 3,5 3,11 0,17 3,6 3,12 0,18 3,6 3,12 0,18 3,5 3,11 0,17 3,6 3,12 0,18 7,13 0,28 -19,39l-665 384c-27,15 -66,17 -89,4l-659 -381c-14,-8 -17,-19 -12,-30z"/>
    <path class="fil10" d="M62296 42668c-3,-5 -2,-11 0,-17 -3,-6 -2,-12 0,-18 -3,-6 -2,-12 0,-18 -3,-5 -2,-11 0,-18 -3,-5 -2,-11 0,-17 -3,-6 -2,-12 0,-18 -3,-5 -2,-12 0,-18 -3,-5 -2,-11 0,-17 -3,-6 -2,-12 0,-18 -3,-6 -2,-12 0,-18 -6,-12 0,-27 19,-38l666 -384c26,-16 66,-17 88,-4l659 380c14,8 17,20 13,31 3,5 2,11 0,17 3,6 2,12 0,18 3,6 2,12 0,18 3,6 2,12 0,18 3,5 2,11 0,17 3,6 2,12 0,18 3,6 2,12 0,18 3,5 2,11 0,18 3,5 2,11 0,17 3,6 2,12 0,18 6,12 0,27 -19,38l-666 385c-26,15 -66,16 -89,3l-658 -380c-14,-8 -17,-19 -13,-31z"/>
    <path class="fil10" d="M61266 43406c-3,-6 -3,-12 0,-18 -3,-5 -3,-11 0,-17 -3,-6 -3,-12 0,-18 -3,-6 -3,-12 0,-18 -3,-6 -3,-12 0,-18 -3,-5 -3,-11 0,-17 -3,-6 -3,-12 0,-18 -3,-6 -3,-12 0,-18 -3,-5 -3,-11 0,-17 -3,-6 -3,-12 0,-18 -4,-8 -3,-17 3,-25l-149 86c-26,15 -66,17 -89,4l-535 -309c-14,-8 -17,-19 -13,-31 -3,-5 -2,-11 0,-17 -3,-6 -2,-12 0,-18 -3,-6 -2,-12 0,-18 -3,-5 -2,-11 0,-18 -3,-5 -2,-11 0,-17 -3,-6 -2,-12 0,-18 -3,-6 -2,-12 0,-18 -3,-5 -2,-11 0,-17 -3,-6 -2,-12 0,-18 -3,-6 -2,-12 0,-18 -4,-8 -3,-16 3,-24l-148 86c-27,15 -66,16 -89,3l-535 -309c-14,-8 -17,-19 -13,-30 -3,-6 -2,-12 0,-18 -3,-6 -2,-12 0,-18 -3,-5 -2,-11 0,-18 -3,-5 -2,-11 0,-17 -3,-6 -2,-12 0,-18 -3,-5 -2,-12 0,-18 -3,-5 -2,-11 0,-17 -3,-6 -2,-12 0,-18 -3,-6 -2,-12 0,-18 -3,-5 -2,-11 0,-18 -4,-7 -3,-16 3,-24l-149 86c-26,15 -66,17 -88,4l-536 -309c-13,-8 -17,-20 -12,-31 -3,-6 -3,-12 0,-18 -3,-5 -3,-11 0,-17 -3,-6 -3,-12 0,-18 -3,-6 -3,-12 0,-18 -3,-6 -3,-12 0,-18 -3,-5 -3,-11 0,-17 -3,-6 -3,-12 0,-18 -3,-6 -3,-12 0,-18 -3,-5 -3,-11 0,-17 -3,-6 -3,-12 0,-18 -4,-8 -3,-17 3,-25l-149 86c-26,15 -66,17 -89,4l-535 -309c-14,-8 -17,-19 -13,-31 -2,-5 -2,-11 0,-17 -2,-6 -2,-12 0,-18 -2,-6 -2,-12 0,-18 -2,-5 -2,-11 0,-18 -2,-5 -2,-11 0,-17 -2,-6 -2,-12 0,-18 -2,-5 -2,-12 0,-18 -2,-5 -2,-11 0,-17 -2,-6 -2,-12 0,-18 -2,-6 -2,-12 0,-18 -4,-8 -2,-16 4,-24l-149 86c-27,15 -66,16 -89,3l-535 -309c-14,-8 -17,-19 -13,-30 -3,-6 -2,-12 0,-18 -3,-6 -2,-12 0,-18 -3,-5 -2,-11 0,-17 -3,-6 -2,-12 0,-18 -3,-6 -2,-12 0,-18 -3,-5 -2,-11 0,-18 -3,-5 -2,-11 0,-17 -3,-6 -2,-12 0,-18 -3,-6 -2,-12 0,-18 -3,-5 -2,-11 0,-17 -4,-8 -3,-17 3,-25l-149 86c-26,15 -66,17 -88,4l-536 -309c-13,-8 -17,-20 -12,-31 -3,-6 -2,-12 0,-18 -3,-5 -2,-11 0,-17 -3,-6 -2,-12 0,-18 -3,-6 -2,-12 0,-18 -3,-5 -2,-11 0,-18 -3,-5 -2,-11 0,-17 -3,-6 -2,-12 0,-18 -3,-6 -2,-12 0,-18 -3,-5 -2,-11 0,-17 -3,-6 -2,-12 0,-18 -4,-8 -3,-17 3,-25l-149 86c-26,15 -66,17 -89,4l-535 -309c-14,-8 -17,-19 -12,-31 -3,-5 -3,-11 0,-17 -3,-6 -3,-12 0,-18 -3,-6 -3,-12 0,-18 -3,-5 -3,-11 0,-17 -3,-6 -3,-12 0,-18 -3,-6 -3,-12 0,-18 -3,-6 -3,-12 0,-18 -3,-5 -3,-11 0,-17 -3,-6 -3,-12 0,-18 -3,-6 -3,-12 0,-18 -4,-8 -3,-16 3,-24l-149 86c-26,15 -66,17 -89,3l-535 -309c-14,-8 -17,-19 -13,-30 -3,-6 -2,-12 0,-18 -3,-6 -2,-12 0,-18 -3,-5 -2,-11 0,-17 -3,-6 -2,-12 0,-18 -3,-6 -2,-12 0,-18 -3,-5 -2,-11 0,-18 -3,-5 -2,-11 0,-17 -3,-6 -2,-12 0,-18 -3,-6 -2,-12 0,-18 -3,-5 -2,-11 0,-17 -4,-8 -3,-17 3,-25l-149 86c-26,15 -65,17 -88,4l-535 -309c-14,-8 -17,-20 -13,-31 -3,-6 -2,-12 0,-18 -3,-5 -2,-11 0,-17 -3,-6 -2,-12 0,-18 -3,-6 -2,-12 0,-18 -3,-5 -2,-11 0,-17 -3,-6 -2,-12 0,-18 -3,-6 -2,-12 0,-18 -3,-6 -2,-12 0,-18 -3,-5 -2,-11 0,-17 -3,-6 -2,-12 0,-18 -4,-8 -3,-16 3,-25l-149 86c-26,16 -66,17 -88,4l-536 -309c-13,-8 -17,-19 -12,-31 -3,-5 -3,-11 0,-17 -3,-6 -3,-12 0,-18 -3,-6 -3,-12 0,-18 -3,-5 -3,-11 0,-17 -3,-6 -3,-12 0,-18 -3,-6 -3,-12 0,-18 -3,-5 -3,-12 0,-18 -3,-5 -3,-11 0,-17 -3,-6 -3,-12 0,-18 -3,-6 -3,-12 0,-18 -4,-8 -3,-16 3,-24l-149 86c-26,15 -66,16 -89,3l-535 -309c-14,-8 -17,-19 -13,-30 -2,-6 -2,-12 0,-18 -2,-6 -2,-12 0,-18 -2,-5 -2,-11 0,-17 -2,-6 -2,-12 0,-18 -2,-6 -2,-12 0,-18 -2,-5 -2,-11 0,-18 -2,-5 -2,-11 0,-17 -2,-6 -2,-12 0,-18 -2,-6 -2,-12 0,-18 -2,-5 -2,-11 0,-17 -4,-8 -2,-17 4,-25l-149 86c-26,15 -66,17 -89,4l-535 -309c-14,-8 -17,-20 -13,-31 -3,-6 -2,-12 0,-18 -3,-5 -2,-11 0,-17 -3,-6 -2,-12 0,-18 -3,-6 -2,-12 0,-18 -3,-5 -2,-11 0,-17 -3,-6 -2,-12 0,-18 -3,-6 -2,-12 0,-18 -3,-6 -2,-12 0,-18 -3,-5 -2,-11 0,-17 -3,-6 -2,-12 0,-18 -4,-8 -3,-16 3,-25l-149 86c-26,16 -66,17 -88,4l-906 -523c-14,-8 -17,-19 -13,-30 -3,-6 -2,-12 0,-18 -3,-6 -2,-12 0,-18 -3,-6 -2,-12 0,-18 -3,-5 -2,-11 0,-17 -3,-6 -2,-12 0,-18 -3,-6 -2,-12 0,-18 -3,-5 -2,-11 0,-18 -3,-5 -2,-11 0,-17 -3,-6 -2,-12 0,-18 -3,-6 -2,-12 0,-18 -6,-12 0,-27 19,-38l666 -384c26,-16 66,-17 89,-4l905 523c14,8 17,19 13,30 3,6 2,12 0,18 3,6 2,12 0,18 3,6 2,12 0,18 3,5 2,11 0,17 3,6 2,12 0,18 3,6 2,12 0,18 3,5 2,11 0,18 3,5 2,11 0,17 3,6 2,12 0,18 3,6 2,12 0,18 4,7 3,16 -3,24l149 -86c26,-15 66,-17 88,-3l536 309c13,8 17,19 12,30 3,6 3,12 0,18 3,6 3,12 0,18 3,5 3,11 0,17 3,6 3,12 0,18 3,6 3,12 0,18 3,5 3,11 0,17 3,6 3,12 0,18 3,6 3,12 0,18 3,6 3,12 0,18 3,5 3,11 0,17 4,8 3,17 -3,25l149 -86c26,-15 66,-17 89,-4l535 309c14,8 17,20 13,31 2,5 2,11 0,18 2,5 2,11 0,17 2,6 2,12 0,18 2,6 2,12 0,18 2,5 2,11 0,17 2,6 2,12 0,18 2,6 2,12 0,18 2,5 2,11 0,18 2,5 2,11 0,17 2,6 2,12 0,18 3,8 2,16 -4,25l149 -86c26,-16 66,-17 89,-4l535 309c14,8 17,19 13,30 3,6 2,12 0,18 3,6 2,12 0,18 3,6 2,12 0,18 3,5 2,11 0,17 3,6 2,12 0,18 3,6 2,12 0,18 3,5 2,11 0,17 3,6 2,12 0,18 3,6 2,12 0,18 3,6 2,12 0,18 4,7 3,16 -3,24l149 -86c26,-15 66,-17 88,-3l536 309c13,8 17,19 12,30 3,6 3,12 0,18 3,6 3,12 0,18 3,5 3,11 0,17 3,6 3,12 0,18 3,6 3,12 0,18 3,5 3,11 0,17 3,6 3,12 0,18 3,6 3,12 0,18 3,6 3,12 0,18 3,5 3,11 0,17 4,8 3,17 -3,25l149 -86c26,-15 66,-17 89,-4l535 309c14,8 17,20 12,31 3,5 3,11 0,18 3,5 3,11 0,17 3,6 3,12 0,18 3,6 3,12 0,18 3,5 3,11 0,17 3,6 3,12 0,18 3,6 3,12 0,18 3,5 3,11 0,18 3,5 3,11 0,17 3,6 3,12 0,18 4,8 3,16 -3,25l149 -86c26,-16 66,-17 89,-4l535 309c14,8 17,19 13,30 3,6 2,12 0,18 3,6 2,12 0,18 3,5 2,12 0,18 3,5 2,11 0,17 3,6 2,12 0,18 3,6 2,12 0,18 3,5 2,11 0,18 3,5 2,11 0,17 3,6 2,12 0,18 3,6 2,11 0,18 4,7 3,16 -3,24l148 -86c27,-15 66,-17 89,-3l535 309c14,7 17,19 13,30 3,6 2,12 0,18 3,5 2,12 0,18 3,5 2,11 0,17 3,6 2,12 0,18 3,6 2,12 0,18 3,5 2,11 0,17 3,6 2,12 0,18 3,6 2,12 0,18 3,5 2,12 0,18 3,5 2,11 0,17 4,8 3,17 -3,25l149 -86c26,-15 66,-17 88,-4l536 309c13,8 17,20 12,31 3,5 3,11 0,18 3,5 3,11 0,17 3,6 3,12 0,18 3,6 3,12 0,18 3,5 3,11 0,17 3,6 3,12 0,18 3,6 3,12 0,18 3,5 3,11 0,18 3,5 3,11 0,17 3,6 3,12 0,18 4,8 3,16 -3,24l149 -85c26,-16 66,-17 89,-4l535 309c14,8 17,19 13,30 2,6 2,12 0,18 2,6 2,12 0,18 2,5 2,11 0,18 2,5 2,11 0,17 2,6 2,12 0,18 2,6 2,12 0,18 2,5 2,11 0,17 2,6 2,12 0,18 2,6 2,12 0,18 2,6 2,11 0,18 3,7 2,16 -3,24l148 -86c27,-15 66,-17 89,-3l535 309c14,7 17,19 13,30 3,6 2,12 0,18 3,5 2,11 0,17 3,6 2,12 0,18 3,6 2,12 0,18 3,6 2,12 0,18 3,5 2,11 0,17 3,6 2,12 0,18 3,6 2,12 0,18 3,5 2,11 0,17 3,6 2,12 0,18 4,8 3,17 -3,25l149 -86c26,-15 66,-17 88,-4l536 309c13,8 17,20 12,31 3,5 3,11 0,17 3,6 3,12 0,18 3,6 3,12 0,18 3,5 3,12 0,18 3,5 3,11 0,17 3,6 3,12 0,18 3,6 3,12 0,18 3,5 3,11 0,18 3,5 3,11 0,17 3,6 3,12 0,18 4,8 3,16 -3,24l149 -85c26,-16 66,-17 89,-4l535 309c14,8 17,19 12,30 3,6 3,12 0,18 3,6 3,12 0,18 3,5 3,11 0,18 3,5 3,11 0,17 3,6 3,12 0,18 3,6 3,12 0,18 3,5 3,11 0,17 3,6 3,12 0,18 3,6 3,12 0,18 3,5 3,11 0,18 4,7 3,16 -3,24l149 -86c26,-15 66,-17 89,-4l535 309c14,8 17,20 13,31 3,6 2,12 0,18 3,5 2,11 0,17 3,6 2,12 0,18 3,6 2,12 0,18 3,6 2,12 0,18 3,5 2,11 0,17 3,6 2,12 0,18 3,6 2,12 0,18 3,5 2,11 0,17 3,6 2,12 0,18 6,13 0,28 -19,39l-666 384c-26,15 -66,17 -88,4l-536 -309c-13,-8 -17,-20 -12,-31z"/>
    <path class="fil11" d="M47811 36759l-536 -309c-13,-8 -17,-19 -12,-31 -3,-5 -3,-11 0,-17 -3,-6 -3,-12 0,-18 -3,-6 -3,-12 0,-18 -3,-5 -3,-11 0,-17 -3,-6 -3,-12 0,-18 -3,-6 -3,-12 0,-18 -3,-6 -3,-12 0,-18 -3,-5 -3,-11 0,-17 -3,-6 -3,-12 0,-18 -3,-6 -3,-12 0,-18 -6,-12 0,-27 19,-38l665 -384c27,-16 66,-17 89,-4l535 309c14,8 17,19 13,30 3,6 2,12 0,18 3,6 2,12 0,18 3,6 2,12 0,18 3,5 2,11 0,17 3,6 2,12 0,18 3,6 2,12 0,18 3,5 2,11 0,17 3,6 2,12 0,18 3,6 2,12 0,18 3,6 2,12 0,18 4,7 3,16 -3,24l149 -86c26,-15 66,-17 88,-3l536 309c13,8 17,19 12,30 3,6 3,12 0,18 3,5 3,11 0,18 3,5 3,11 0,17 3,6 3,12 0,18 3,6 3,12 0,18 3,5 3,11 0,18 3,5 3,11 0,17 3,6 3,12 0,18 3,5 3,12 0,18 3,5 3,11 0,17 4,8 3,17 -3,25l149 -86c26,-15 66,-17 89,-4l535 309c14,8 17,20 13,31 2,5 2,11 0,17 2,6 2,12 0,18 2,6 2,12 0,18 2,6 2,12 0,18 2,5 2,11 0,17 2,6 2,12 0,18 2,6 2,12 0,18 2,5 2,11 0,17 2,6 2,12 0,18 2,6 2,12 0,18 6,12 0,27 -20,38l-665 385c-26,15 -66,16 -89,3l-535 -309c-14,-8 -17,-19 -13,-30 -2,-6 -2,-12 0,-18 -2,-6 -2,-12 0,-18 -2,-5 -2,-11 0,-17 -2,-6 -2,-12 0,-18 -2,-6 -2,-12 0,-18 -2,-5 -2,-11 0,-18 -2,-5 -2,-11 0,-17 -2,-6 -2,-12 0,-18 -2,-6 -2,-12 0,-18 -2,-5 -2,-11 0,-17 -4,-8 -2,-17 4,-25l-149 86c-27,15 -66,17 -89,4l-535 -309c-14,-8 -17,-20 -13,-31 -3,-6 -2,-12 0,-18 -3,-5 -2,-11 0,-17 -3,-6 -2,-12 0,-18 -3,-6 -2,-12 0,-18 -3,-5 -2,-11 0,-17 -3,-6 -2,-12 0,-18 -3,-6 -2,-12 0,-18 -3,-6 -2,-12 0,-18 -3,-5 -2,-11 0,-17 -3,-6 -2,-12 0,-18 -4,-8 -3,-16 3,-25l-149 86c-26,16 -66,17 -88,4z"/>
    <path class="fil11" d="M51080 36725l-665 385c-26,15 -66,16 -89,3l-535 -309c-14,-8 -17,-19 -13,-30 -3,-6 -2,-12 0,-18 -3,-6 -2,-12 0,-18 -3,-5 -2,-11 0,-17 -3,-6 -2,-12 0,-18 -3,-6 -2,-12 0,-18 -3,-5 -2,-11 0,-18 -3,-5 -2,-11 0,-17 -3,-6 -2,-12 0,-18 -3,-6 -2,-12 0,-18 -3,-5 -2,-11 0,-17 -4,-8 -3,-17 3,-25l-148 86c-27,15 -66,17 -89,4l-535 -309c-14,-8 -17,-20 -13,-31 -3,-5 -2,-11 0,-18 -3,-5 -2,-11 0,-17 -3,-6 -2,-12 0,-18 -3,-6 -2,-12 0,-18 -3,-5 -2,-11 0,-17 -3,-6 -2,-12 0,-18 -3,-6 -2,-12 0,-18 -3,-5 -2,-11 0,-18 -3,-5 -2,-11 0,-17 -3,-6 -2,-12 0,-18 -4,-8 -3,-16 3,-25l-149 86c-26,15 -66,17 -88,4l-536 -309c-13,-8 -17,-19 -12,-30 -3,-6 -3,-12 0,-18 -3,-6 -3,-12 0,-18 -3,-6 -3,-12 0,-18 -3,-5 -3,-11 0,-17 -3,-6 -3,-12 0,-18 -3,-6 -3,-12 0,-18 -3,-5 -3,-11 0,-18 -3,-5 -3,-11 0,-17 -3,-6 -3,-12 0,-18 -3,-6 -3,-12 0,-18 -7,-12 0,-27 19,-38l665 -384c27,-16 66,-17 89,-4l535 309c14,8 17,19 13,31 3,5 2,11 0,17 3,6 2,12 0,18 3,6 2,12 0,18 3,5 2,11 0,17 3,6 2,12 0,18 3,6 2,12 0,18 3,5 2,11 0,18 3,5 2,11 0,17 3,6 2,12 0,18 3,6 2,12 0,18 4,7 3,16 -3,24l149 -86c26,-15 65,-16 88,-3l535 309c14,7 18,19 13,30 3,6 2,12 0,18 3,5 2,12 0,18 3,5 2,11 0,17 3,6 2,12 0,18 3,6 2,12 0,18 3,5 2,11 0,18 3,5 2,11 0,17 3,6 2,12 0,18 3,5 2,12 0,18 3,5 2,11 0,17 4,8 3,17 -3,25l149 -86c26,-15 66,-17 88,-4l536 309c14,8 17,20 12,31 3,6 3,11 0,17 3,6 3,12 0,18 3,6 3,12 0,18 3,6 3,12 0,18 3,5 3,11 0,17 3,6 3,12 0,18 3,6 3,12 0,18 3,5 3,12 0,17 3,6 3,12 0,18 3,6 3,12 0,18 7,12 0,27 -19,38z"/>
    <path class="fil11" d="M52234 36059l-665 384c-26,16 -66,17 -89,4l-535 -309c-14,-8 -17,-19 -13,-30 -3,-6 -2,-12 0,-18 -3,-6 -2,-12 0,-18 -3,-6 -2,-12 0,-18 -3,-5 -2,-11 0,-17 -3,-6 -2,-12 0,-18 -3,-6 -2,-12 0,-18 -3,-5 -2,-11 0,-17 -3,-6 -2,-12 0,-18 -3,-6 -2,-12 0,-18 -3,-6 -2,-12 0,-18 -4,-7 -3,-16 3,-24l-148 86c-27,15 -66,17 -89,3l-535 -309c-14,-8 -17,-19 -13,-30 -3,-6 -2,-12 0,-18 -3,-5 -2,-12 0,-18 -3,-5 -2,-11 0,-17 -3,-6 -2,-12 0,-18 -3,-6 -2,-12 0,-18 -3,-5 -2,-11 0,-17 -3,-6 -2,-12 0,-18 -3,-6 -2,-12 0,-18 -3,-6 -2,-12 0,-18 -3,-5 -2,-11 0,-17 -4,-8 -3,-17 3,-25l-149 86c-26,15 -66,17 -88,4l-536 -309c-13,-8 -17,-20 -12,-31 -3,-5 -3,-11 0,-18 -3,-5 -3,-11 0,-17 -3,-6 -3,-12 0,-18 -3,-6 -3,-12 0,-18 -3,-5 -3,-11 0,-17 -3,-6 -3,-12 0,-18 -3,-6 -3,-12 0,-18 -3,-5 -3,-11 0,-18 -3,-5 -3,-11 0,-17 -3,-6 -3,-12 0,-18 -7,-12 0,-27 19,-38l665 -385c27,-15 66,-17 89,-3l535 309c14,8 17,19 13,30 3,6 2,12 0,18 3,6 2,12 0,18 3,5 2,11 0,17 3,6 2,12 0,18 3,6 2,12 0,18 3,5 2,11 0,17 3,6 2,12 0,18 3,6 2,12 0,18 3,6 2,12 0,18 3,5 2,11 0,17 4,8 3,17 -3,25l149 -86c26,-15 66,-17 88,-4l536 309c13,8 17,20 12,31 3,6 3,12 0,18 3,5 3,11 0,17 3,6 3,12 0,18 3,6 3,12 0,18 3,5 3,11 0,17 3,6 3,12 0,18 3,6 3,12 0,18 3,6 3,12 0,18 3,5 3,11 0,17 3,6 3,12 0,18 4,8 3,16 -3,25l149 -86c26,-16 66,-17 89,-4l535 309c13,8 17,19 12,31 3,5 3,11 0,17 3,6 3,12 0,18 3,6 3,12 0,18 3,5 3,11 0,17 3,6 3,12 0,18 3,6 3,12 0,18 3,5 3,12 0,18 3,5 3,11 0,17 3,6 3,12 0,18 3,6 3,12 0,18 7,12 0,27 -19,38z"/>
    <path class="fil11" d="M46238 33906l149 -85c26,-16 66,-17 88,-4l536 309c13,8 17,19 12,30 3,6 3,12 0,18 3,6 3,12 0,18 3,5 3,11 0,18 3,5 3,11 0,17 3,6 3,12 0,18 3,6 3,12 0,18 3,5 3,11 0,17 3,6 3,12 0,18 3,6 3,12 0,18 3,5 3,12 0,18 4,7 3,16 -3,24l149 -86c26,-15 66,-17 89,-3l535 309c14,7 17,19 13,30 2,6 2,12 0,18 2,5 2,11 0,18 2,5 2,11 0,17 2,6 2,12 0,18 2,6 2,12 0,18 2,5 2,11 0,17 2,6 2,12 0,18 2,6 2,12 0,18 2,5 2,11 0,18 2,5 2,11 0,17 3,8 2,17 -4,25l149 -86c27,-15 66,-17 89,-4l535 309c14,8 17,20 13,31 3,5 2,11 0,17 3,6 2,12 0,18 3,6 2,12 0,18 3,6 2,12 0,18 3,5 2,11 0,17 3,6 2,12 0,18 3,6 2,12 0,18 3,5 2,12 0,17 3,6 2,12 0,18 3,6 2,12 0,18 6,12 0,27 -19,38l-666 385c-26,15 -66,16 -88,3l-536 -309c-13,-8 -17,-19 -12,-30 -3,-6 -3,-12 0,-18 -3,-6 -3,-12 0,-18 -3,-5 -3,-11 0,-17 -3,-6 -3,-12 0,-18 -3,-6 -3,-12 0,-18 -3,-6 -3,-12 0,-18 -3,-5 -3,-11 0,-17 -3,-6 -3,-12 0,-18 -3,-6 -3,-12 0,-18 -3,-5 -3,-11 0,-17 -4,-8 -3,-17 3,-25l-149 86c-26,15 -66,17 -89,4l-535 -309c-14,-8 -17,-20 -13,-31 -2,-6 -2,-12 0,-18 -2,-5 -2,-11 0,-17 -2,-6 -2,-12 0,-18 -2,-6 -2,-12 0,-18 -2,-5 -2,-11 0,-18 -2,-5 -2,-11 0,-17 -2,-6 -2,-12 0,-18 -2,-6 -2,-12 0,-18 -2,-5 -2,-11 0,-17 -2,-6 -2,-12 0,-18 -4,-8 -2,-17 4,-25l-149 86c-27,15 -66,17 -89,4l-535 -309c-14,-8 -17,-19 -13,-31 -3,-5 -2,-11 0,-17 -3,-6 -2,-12 0,-18 -3,-6 -2,-12 0,-18 -3,-5 -2,-11 0,-17 -3,-6 -2,-12 0,-18 -3,-6 -2,-12 0,-18 -3,-6 -2,-12 0,-18 -3,-5 -2,-11 0,-17 -3,-6 -2,-12 0,-18 -3,-6 -2,-12 0,-18 -4,-7 -3,-16 3,-24l-149 86c-26,15 -66,16 -88,3l-536 -309c-13,-8 -17,-19 -12,-30 -3,-6 -3,-12 0,-18 -3,-6 -3,-12 0,-18 -3,-5 -3,-11 0,-17 -3,-6 -3,-12 0,-18 -3,-6 -3,-12 0,-18 -3,-6 -3,-11 0,-18 -3,-5 -3,-11 0,-17 -3,-6 -3,-12 0,-18 -3,-6 -3,-12 0,-18 -3,-5 -3,-11 0,-17 -6,-13 0,-28 19,-39l665 -384c27,-15 66,-17 89,-4l535 309c14,8 17,20 13,31 3,5 2,11 0,17 3,6 2,12 0,18 3,6 2,12 0,18 3,6 2,12 0,18 3,5 2,11 0,17 3,6 2,12 0,18 3,6 2,12 0,18 3,5 2,12 0,17 3,6 2,12 0,18 3,6 2,12 0,18 4,8 3,16 -3,24z"/>
    <path class="fil11" d="M49479 34750l-178 102c-26,15 -66,17 -88,4l-536 -309c-13,-8 -16,-19 -12,-31 -3,-5 -2,-11 0,-17 -3,-6 -2,-12 0,-18 -3,-6 -2,-12 0,-18 -3,-5 -2,-11 0,-17 -3,-6 -2,-12 0,-18 -3,-6 -2,-12 0,-18 -3,-6 -2,-12 0,-18 -3,-5 -2,-11 0,-17 -3,-6 -2,-12 0,-18 -3,-6 -2,-12 0,-18 -4,-7 -3,-16 3,-24l-149 86c-26,15 -66,16 -89,3l-535 -309c-14,-8 -17,-19 -12,-30 -3,-6 -3,-12 0,-18 -3,-6 -3,-12 0,-18 -3,-5 -3,-11 0,-17 -3,-6 -3,-12 0,-18 -3,-6 -3,-12 0,-18 -3,-5 -3,-11 0,-17 -3,-6 -3,-12 0,-18 -3,-6 -3,-12 0,-18 -3,-5 -3,-12 0,-18 -3,-5 -3,-11 0,-17 -4,-8 -3,-17 3,-25l-149 86c-26,15 -66,17 -89,4l-535 -309c-14,-8 -17,-20 -13,-31 -3,-5 -2,-12 0,-18 -3,-5 -2,-11 0,-17 -3,-6 -2,-12 0,-18 -3,-6 -2,-12 0,-18 -3,-5 -2,-11 0,-17 -3,-6 -2,-12 0,-18 -3,-6 -2,-12 0,-18 -3,-5 -2,-11 0,-18 -3,-5 -2,-11 0,-17 -3,-6 -2,-12 0,-18 -4,-8 -3,-16 3,-25l-148 86c-27,16 -66,17 -89,4l-535 -309c-14,-8 -17,-19 -13,-31 -3,-5 -2,-11 0,-17 -3,-6 -2,-12 0,-18 -3,-6 -2,-12 0,-18 -3,-5 -2,-11 0,-17 -3,-6 -2,-12 0,-18 -3,-6 -2,-12 0,-18 -3,-5 -2,-11 0,-18 -3,-5 -2,-11 0,-17 -3,-6 -2,-12 0,-18 -3,-6 -2,-12 0,-18 -6,-12 0,-27 19,-38l177 -102c26,-16 66,-17 89,-4l535 309c14,8 17,19 13,31 3,5 2,11 0,17 3,6 2,12 0,18 3,6 2,12 0,18 3,5 2,11 0,17 3,6 2,12 0,18 3,6 2,12 0,18 3,5 2,11 0,18 3,5 2,11 0,17 3,6 2,12 0,18 3,6 2,12 0,18 4,7 3,16 -3,24l149 -86c26,-15 66,-16 88,-3l535 309c14,8 17,19 13,30 3,6 2,12 0,18 3,5 2,12 0,18 3,5 2,11 0,17 3,6 2,12 0,18 3,6 2,12 0,18 3,5 2,11 0,18 3,5 2,11 0,17 3,6 2,12 0,18 3,6 2,12 0,18 3,5 2,11 0,17 4,8 3,17 -3,25l149 -86c26,-15 66,-17 89,-4l535 309c13,8 17,20 12,31 3,6 3,11 0,18 3,5 3,11 0,17 3,6 3,12 0,18 3,6 3,12 0,18 3,5 3,11 0,17 3,6 3,12 0,18 3,6 3,12 0,18 3,5 3,12 0,18 3,5 3,11 0,17 3,6 3,12 0,18 4,8 3,16 -3,24l149 -85c26,-16 66,-17 89,-4l535 309c14,8 17,19 13,30 3,6 2,12 0,18 3,6 2,12 0,18 3,6 2,12 0,18 3,5 2,11 0,17 3,6 2,12 0,18 3,6 2,12 0,18 3,5 2,11 0,18 3,5 2,11 0,17 3,6 2,12 0,18 3,6 2,12 0,18 6,12 0,27 -19,38z"/>
    <path class="fil11" d="M59006 39969l-665 384c-27,15 -67,17 -89,4l-536 -309c-13,-8 -16,-20 -12,-31 -3,-6 -2,-11 0,-18 -3,-5 -2,-11 0,-17 -3,-6 -2,-12 0,-18 -3,-6 -2,-12 0,-18 -3,-5 -2,-11 0,-17 -3,-6 -2,-12 0,-18 -3,-6 -2,-12 0,-18 -3,-6 -2,-12 0,-18 -3,-5 -2,-11 0,-17 -3,-6 -2,-12 0,-18 -4,-8 -3,-16 3,-25l-149 86c-26,16 -66,17 -89,4l-535 -309c-13,-8 -17,-19 -12,-31 -3,-5 -3,-11 0,-17 -3,-6 -3,-12 0,-18 -3,-6 -3,-12 0,-18 -3,-5 -3,-11 0,-17 -3,-6 -3,-12 0,-18 -3,-6 -3,-12 0,-18 -3,-5 -3,-11 0,-18 -3,-5 -3,-11 0,-17 -3,-6 -3,-12 0,-18 -3,-6 -3,-12 0,-18 -4,-7 -3,-16 3,-24l-149 86c-26,15 -66,16 -89,3l-535 -309c-14,-8 -17,-19 -13,-30 -3,-6 -2,-12 0,-18 -3,-5 -2,-12 0,-18 -3,-5 -2,-11 0,-17 -3,-6 -2,-12 0,-18 -3,-6 -2,-12 0,-18 -3,-5 -2,-12 0,-18 -3,-5 -2,-11 0,-17 -3,-6 -2,-12 0,-18 -3,-6 -2,-12 0,-18 -3,-5 -2,-11 0,-17 -4,-8 -3,-17 3,-25l-148 86c-27,15 -66,17 -89,4l-535 -309c-14,-8 -17,-20 -13,-31 -3,-6 -2,-11 0,-18 -3,-5 -2,-11 0,-17 -3,-6 -2,-12 0,-18 -3,-6 -2,-12 0,-18 -3,-5 -2,-11 0,-17 -3,-6 -2,-12 0,-18 -3,-6 -2,-12 0,-18 -3,-6 -2,-12 0,-18 -3,-5 -2,-11 0,-17 -3,-6 -2,-12 0,-18 -6,-12 0,-27 19,-38l666 -385c26,-15 66,-16 88,-3l536 309c13,8 17,19 12,30 3,6 3,12 0,18 3,5 3,12 0,18 3,5 3,11 0,17 3,6 3,12 0,18 3,6 3,12 0,18 3,5 3,11 0,18 3,5 3,11 0,17 3,6 3,12 0,18 3,5 3,12 0,18 3,5 3,11 0,17 4,8 3,17 -3,25l149 -86c26,-15 66,-17 89,-4l535 309c14,8 17,20 12,31 3,5 3,11 0,18 3,5 3,11 0,17 3,6 3,12 0,18 3,6 3,12 0,18 3,5 3,11 0,17 3,6 3,12 0,18 3,6 3,12 0,18 3,5 3,11 0,18 3,5 3,11 0,17 3,6 3,12 0,18 4,8 3,16 -3,25l149 -86c26,-16 66,-17 89,-4l535 309c14,8 17,19 13,30 3,6 2,12 0,18 3,6 2,12 0,18 3,6 2,12 0,18 3,5 2,11 0,17 3,6 2,12 0,18 3,6 2,12 0,18 3,5 2,11 0,18 3,5 2,11 0,17 3,6 2,12 0,18 3,6 2,12 0,18 4,7 3,16 -3,24l149 -86c26,-15 65,-16 88,-3l535 309c14,8 17,19 13,30 3,6 2,12 0,18 3,5 2,11 0,18 3,5 2,11 0,17 3,6 2,12 0,18 3,6 2,12 0,18 3,5 2,11 0,17 3,6 2,12 0,18 3,6 2,12 0,18 3,5 2,12 0,18 3,5 2,11 0,17 6,13 0,28 -19,39z"/>
    <path class="fil11" d="M55537 37966l-666 384c-26,15 -66,17 -89,4l-535 -309c-14,-8 -17,-20 -13,-31 -2,-6 -2,-12 0,-18 -2,-5 -2,-11 0,-17 -2,-6 -2,-12 0,-18 -2,-6 -2,-12 0,-18 -2,-6 -2,-12 0,-18 -2,-5 -2,-11 0,-17 -2,-6 -2,-12 0,-18 -2,-6 -2,-12 0,-18 -2,-5 -2,-11 0,-17 -2,-6 -2,-12 0,-18 -4,-8 -2,-17 3,-25l-148 86c-27,15 -66,17 -89,4l-535 -309c-14,-8 -17,-19 -13,-31 -3,-5 -2,-11 0,-17 -3,-6 -2,-12 0,-18 -3,-6 -2,-12 0,-18 -3,-5 -2,-12 0,-18 -3,-5 -2,-11 0,-17 -3,-6 -2,-12 0,-18 -3,-6 -2,-12 0,-18 -3,-5 -2,-11 0,-17 -3,-6 -2,-12 0,-18 -3,-6 -2,-12 0,-18 -4,-8 -3,-16 3,-24l-149 85c-26,16 -66,17 -88,4l-536 -309c-13,-8 -17,-19 -12,-30 -3,-6 -3,-12 0,-18 -3,-6 -3,-12 0,-18 -3,-5 -3,-11 0,-18 -3,-5 -3,-11 0,-17 -3,-6 -3,-12 0,-18 -3,-6 -3,-12 0,-18 -3,-5 -3,-11 0,-17 -3,-6 -3,-12 0,-18 -3,-6 -3,-12 0,-18 -3,-5 -3,-11 0,-18 -4,-7 -3,-16 3,-24l-149 86c-26,15 -66,17 -89,4l-535 -309c-14,-8 -17,-20 -13,-31 -2,-6 -2,-12 0,-18 -2,-5 -2,-11 0,-17 -2,-6 -2,-12 0,-18 -2,-6 -2,-12 0,-18 -2,-6 -2,-12 0,-18 -2,-5 -2,-11 0,-17 -2,-6 -2,-12 0,-18 -2,-6 -2,-12 0,-18 -2,-5 -2,-11 0,-17 -2,-6 -2,-12 0,-18 -6,-13 0,-28 19,-39l666 -384c26,-15 66,-17 89,-3l535 309c14,7 17,19 13,30 2,6 2,12 0,18 2,5 2,11 0,17 2,6 2,12 0,18 2,6 2,12 0,18 2,6 2,12 0,18 2,5 2,11 0,17 2,6 2,12 0,18 2,6 2,12 0,18 2,5 2,12 0,17 2,6 2,12 0,18 4,8 3,17 -3,25l148 -86c27,-15 66,-17 89,-4l535 309c14,8 17,20 13,31 3,5 2,11 0,17 3,6 2,12 0,18 3,6 2,12 0,18 3,5 2,11 0,18 3,5 2,11 0,17 3,6 2,12 0,18 3,6 2,12 0,18 3,5 2,11 0,17 3,6 2,12 0,18 3,6 2,12 0,18 4,8 3,16 -3,24l149 -86c26,-15 66,-16 88,-3l536 309c13,8 17,19 12,30 3,6 3,12 0,18 3,6 3,12 0,18 3,5 3,12 0,17 3,6 3,12 0,18 3,6 3,12 0,18 3,6 3,12 0,18 3,5 3,11 0,17 3,6 3,12 0,18 3,6 3,12 0,18 3,5 3,11 0,18 4,7 3,16 -3,24l149 -86c26,-15 66,-17 89,-4l535 309c14,8 17,20 13,31 2,6 2,12 0,18 2,5 2,11 0,17 2,6 2,12 0,18 2,6 2,12 0,18 2,5 2,12 0,18 2,5 2,11 0,17 2,6 2,12 0,18 2,6 2,12 0,18 2,5 2,11 0,17 2,6 2,12 0,18 6,13 0,28 -19,39z"/>
    <path class="fil11" d="M41116 35988c-6,-13 0,-28 19,-39l1617 -933c26,-15 66,-17 88,-4l536 309c13,8 17,19 12,31 3,5 3,11 0,17 3,6 3,12 0,18 3,6 3,12 0,18 3,6 3,12 0,18 3,5 3,11 0,17 3,6 3,12 0,18 3,6 3,12 0,18 3,5 3,11 0,17 3,6 3,12 0,18 3,6 3,12 0,18 4,8 3,16 -3,24l149 -86c26,-15 66,-16 89,-3l535 309c14,8 17,19 13,30 2,6 2,12 0,18 2,6 2,12 0,18 2,6 2,12 0,18 2,5 2,11 0,17 2,6 2,12 0,18 2,6 2,12 0,18 2,5 2,11 0,17 2,6 2,12 0,18 2,6 2,12 0,18 2,6 2,12 0,18 4,7 2,16 -3,24l148 -86c27,-15 66,-17 89,-4l535 310c14,7 17,19 13,30 3,6 2,12 0,18 3,5 2,11 0,18 3,5 2,11 0,17 3,6 2,12 0,18 3,5 2,12 0,18 3,5 2,11 0,17 3,6 2,12 0,18 3,6 2,12 0,18 3,5 2,11 0,18 3,5 2,11 0,17 4,8 3,17 -3,25l149 -86c26,-15 66,-17 88,-4l536 309c13,8 17,20 12,31 3,5 3,11 0,17 3,6 3,12 0,18 3,6 3,12 0,18 3,6 3,12 0,18 3,5 3,11 0,17 3,6 3,12 0,18 3,6 3,12 0,18 3,5 3,11 0,17 3,6 3,12 0,18 3,6 3,12 0,18 7,12 0,27 -19,38l-665 385c-27,15 -66,16 -89,3l-535 -309c-14,-8 -17,-19 -13,-30 -3,-6 -2,-12 0,-18 -3,-6 -2,-12 0,-18 -3,-5 -2,-11 0,-17 -3,-6 -2,-12 0,-18 -3,-6 -2,-12 0,-18 -3,-6 -2,-12 0,-18 -3,-5 -2,-11 0,-17 -3,-6 -2,-12 0,-18 -3,-6 -2,-12 0,-18 -3,-5 -2,-11 0,-17 -4,-8 -3,-17 3,-25l-149 86c-26,15 -66,17 -88,4l-536 -309c-13,-8 -17,-20 -12,-31 -3,-6 -3,-12 0,-18 -3,-5 -3,-11 0,-17 -3,-6 -3,-12 0,-18 -3,-6 -3,-12 0,-18 -3,-5 -3,-12 0,-18 -3,-5 -3,-11 0,-17 -3,-6 -3,-12 0,-18 -3,-6 -3,-12 0,-18 -3,-5 -3,-11 0,-18 -3,-5 -3,-11 0,-17 -4,-8 -3,-16 3,-25l-149 86c-26,15 -66,17 -89,4l-535 -309c-14,-8 -17,-19 -12,-31 -3,-5 -3,-11 0,-17 -3,-6 -3,-12 0,-18 -3,-6 -3,-12 0,-18 -3,-5 -3,-11 0,-18 -3,-5 -3,-11 0,-17 -3,-6 -3,-12 0,-18 -3,-6 -3,-12 0,-18 -3,-5 -3,-11 0,-17 -3,-6 -3,-12 0,-18 -3,-6 -3,-12 0,-18 -4,-8 -3,-16 3,-24l-254 146c25,-9 54,-10 73,1l535 309c14,8 17,19 13,30 3,6 2,12 0,18 3,6 2,12 0,18 3,5 2,12 0,18 3,5 2,11 0,17 3,6 2,12 0,18 3,6 2,12 0,18 3,5 2,11 0,17 3,6 2,12 0,18 3,6 2,12 0,18 3,6 2,12 0,18 4,7 3,16 -3,24l149 -86c26,-15 66,-17 88,-4l1318 761c14,8 17,20 12,31 3,5 3,11 0,17 3,6 3,12 0,18 3,6 3,12 0,18 3,5 3,12 0,17 3,6 3,12 0,18 3,6 3,12 0,18 3,6 3,12 0,18 3,5 3,11 0,17 3,6 3,12 0,18 3,6 3,12 0,18 7,12 0,27 -19,38l-665 385c-26,15 -66,16 -89,3l-1317 -760c-14,-8 -17,-20 -13,-31 -3,-6 -2,-12 0,-18 -3,-5 -2,-11 0,-18 -3,-5 -2,-11 0,-17 -3,-6 -2,-12 0,-18 -3,-6 -2,-12 0,-18 -3,-5 -2,-11 0,-17 -3,-6 -2,-12 0,-18 -3,-6 -2,-12 0,-18 -3,-5 -2,-11 0,-18 -3,-5 -2,-11 0,-17 -4,-8 -3,-17 3,-25l-149 86c-26,15 -66,17 -89,4l-535 -309c-13,-8 -17,-20 -12,-31 -3,-5 -3,-11 0,-17 -3,-6 -3,-12 0,-18 -3,-6 -3,-12 0,-18 -3,-5 -3,-12 0,-17 -3,-6 -3,-12 0,-18 -3,-6 -3,-12 0,-18 -3,-6 -3,-12 0,-18 -3,-5 -3,-11 0,-17 -3,-6 -3,-12 0,-18 -3,-6 -3,-12 0,-18 -4,-8 -3,-16 3,-24l-149 86c-26,15 -66,16 -89,3l-535 -309c-14,-8 -17,-19 -13,-30 -2,-6 -2,-12 0,-18 -2,-6 -2,-12 0,-18 -2,-5 -2,-11 0,-17 -2,-6 -2,-12 0,-18 -2,-6 -2,-12 0,-18 -2,-6 -2,-12 0,-18 -2,-5 -2,-11 0,-17 -2,-6 -2,-12 0,-18 -2,-6 -2,-12 0,-18 -2,-5 -2,-11 0,-17z"/>
    <path class="fil10" d="M46941 39301l665 -384c27,-16 66,-17 89,-4l824 475c13,8 17,20 12,31 3,6 3,12 0,18 3,5 3,11 0,17 3,6 3,12 0,18 3,6 3,12 0,18 3,5 3,11 0,18 3,5 3,11 0,17 3,6 3,12 0,18 3,6 3,12 0,18 3,5 3,11 0,17 3,6 3,12 0,18 4,8 3,16 -3,25l149 -86c26,-16 66,-17 89,-4l658 380c14,8 17,20 13,31 3,6 2,12 0,18 3,5 2,11 0,17 3,6 2,12 0,18 3,6 2,12 0,18 3,5 2,11 0,17 3,6 2,12 0,18 3,6 2,12 0,18 3,6 2,12 0,18 3,5 2,11 0,17 3,6 2,12 0,18 4,8 3,16 -3,25l149 -86c26,-16 66,-17 88,-4l659 380c14,8 17,20 13,31 3,5 2,11 0,18 3,5 2,11 0,17 3,6 2,12 0,18 3,6 2,12 0,18 3,5 2,11 0,17 3,6 2,12 0,18 3,6 2,12 0,18 3,5 2,11 0,18 3,5 2,11 0,17 3,6 2,12 0,18 4,8 3,16 -3,25l148 -86c27,-16 67,-17 89,-4l659 380c14,8 17,20 13,31 2,5 2,11 0,17 2,6 2,12 0,18 2,6 2,12 0,18 2,6 2,12 0,18 2,5 2,11 0,17 2,6 2,12 0,18 2,6 2,12 0,18 2,5 2,11 0,17 2,6 2,12 0,18 2,6 2,12 0,18 4,8 2,16 -3,24l148 -85c27,-16 66,-17 89,-4l4406 2544c13,7 17,19 12,30 3,6 3,12 0,18 3,5 3,11 0,17 3,6 3,12 0,18 3,6 3,12 0,18 3,5 3,12 0,18 3,5 3,11 0,17 3,6 3,12 0,18 3,6 3,12 0,18 3,5 3,11 0,17 3,6 3,12 0,18 4,8 3,16 -3,25l149 -86c26,-15 66,-17 89,-4l658 380c14,8 17,20 13,31 3,6 2,12 0,18 3,5 2,11 0,17 3,6 2,12 0,18 3,6 2,12 0,18 3,5 2,11 0,18 3,5 2,11 0,17 3,6 2,12 0,18 3,6 2,12 0,18 3,5 2,11 0,17 3,6 2,12 0,18 4,8 3,16 -3,25l149 -86c26,-15 66,-17 88,-4l659 380c14,8 17,20 13,31 3,6 2,12 0,18 3,5 2,11 0,17 3,6 2,12 0,18 3,6 2,12 0,18 3,5 2,11 0,18 3,5 2,11 0,17 3,6 2,12 0,18 3,6 2,12 0,18 3,5 2,11 0,17 3,6 2,12 0,18 4,8 3,17 -3,25l149 -86c26,-15 66,-17 88,-4l824 475c13,8 17,20 12,31 3,6 3,12 0,18 3,5 3,11 0,17 3,6 3,12 0,18 3,6 3,12 0,18 3,5 3,11 0,18 3,5 3,11 0,17 3,6 3,12 0,18 3,6 3,12 0,18 3,5 3,11 0,17 3,6 3,12 0,18 7,13 0,28 -19,39l-665 384c-27,15 -66,17 -89,4l-823 -476c-14,-8 -17,-19 -13,-31 -3,-5 -2,-11 0,-17 -3,-6 -2,-12 0,-18 -3,-6 -2,-12 0,-18 -3,-5 -2,-11 0,-17 -3,-6 -2,-12 0,-18 -3,-6 -2,-12 0,-18 -3,-5 -2,-11 0,-18 -3,-5 -2,-11 0,-17 -3,-6 -2,-12 0,-18 -3,-6 -2,-12 0,-18 -4,-7 -3,-16 3,-24l-149 86c-26,15 -66,17 -88,3l-659 -380c-14,-8 -17,-19 -13,-30 -3,-6 -2,-12 0,-18 -3,-6 -2,-12 0,-18 -3,-6 -2,-12 0,-18 -3,-5 -2,-11 0,-17 -3,-6 -2,-12 0,-18 -3,-6 -2,-12 0,-18 -3,-5 -2,-11 0,-17 -3,-6 -2,-12 0,-18 -3,-6 -2,-12 0,-18 -3,-6 -2,-12 0,-18 -4,-7 -3,-16 3,-24l-149 86c-26,15 -66,17 -88,3l-659 -380c-14,-8 -17,-19 -13,-30 -3,-6 -2,-12 0,-18 -3,-6 -2,-12 0,-18 -3,-5 -2,-11 0,-18 -3,-5 -2,-11 0,-17 -3,-6 -2,-12 0,-18 -3,-6 -2,-12 0,-18 -3,-5 -2,-11 0,-17 -3,-6 -2,-12 0,-18 -3,-6 -2,-12 0,-18 -3,-5 -2,-11 0,-18 -4,-7 -3,-16 3,-24l-148 86c-27,15 -66,17 -89,4l-4406 -2544c-13,-8 -17,-19 -12,-31 -3,-5 -3,-11 0,-17 -3,-6 -3,-12 0,-18 -3,-6 -3,-12 0,-18 -3,-5 -3,-11 0,-17 -3,-6 -3,-12 0,-18 -3,-6 -3,-12 0,-18 -3,-6 -3,-12 0,-18 -3,-5 -3,-11 0,-17 -3,-6 -3,-12 0,-18 -3,-6 -3,-12 0,-18 -4,-8 -3,-16 3,-24l-149 86c-26,15 -66,16 -89,3l-658 -380c-14,-8 -18,-19 -13,-31 -3,-5 -2,-11 0,-17 -3,-6 -2,-12 0,-18 -3,-6 -2,-12 0,-18 -3,-5 -2,-11 0,-17 -3,-6 -2,-12 0,-18 -3,-6 -2,-12 0,-18 -3,-5 -2,-12 0,-18 -3,-5 -2,-11 0,-17 -3,-6 -2,-12 0,-18 -3,-6 -2,-12 0,-18 -4,-7 -3,-16 3,-24l-149 86c-26,15 -66,16 -88,3l-659 -380c-14,-8 -17,-19 -13,-31 -3,-5 -2,-11 0,-17 -3,-6 -2,-12 0,-18 -3,-6 -2,-12 0,-18 -3,-5 -2,-11 0,-17 -3,-6 -2,-12 0,-18 -3,-6 -2,-12 0,-18 -3,-5 -2,-11 0,-18 -3,-5 -2,-11 0,-17 -3,-6 -2,-12 0,-18 -3,-6 -2,-12 0,-18 -4,-7 -3,-16 3,-24l-149 86c-26,15 -66,17 -88,3l-659 -380c-14,-8 -17,-19 -13,-31 -2,-5 -2,-11 0,-17 -2,-6 -2,-12 0,-18 -2,-6 -2,-12 0,-18 -2,-5 -2,-11 0,-17 -2,-6 -2,-12 0,-18 -2,-6 -2,-12 0,-18 -2,-5 -2,-12 0,-17 -2,-6 -2,-12 0,-18 -2,-6 -2,-12 0,-18 -2,-6 -2,-12 0,-18 -4,-7 -2,-16 3,-24l-148 86c-27,15 -66,16 -89,3l-824 -475c-13,-8 -17,-19 -12,-31 -3,-5 -3,-11 0,-17 -3,-6 -3,-12 0,-18 -3,-6 -3,-12 0,-18 -3,-5 -3,-11 0,-17 -3,-6 -3,-12 0,-18 -3,-6 -3,-12 0,-18 -3,-5 -3,-12 0,-18 -3,-5 -3,-11 0,-17 -3,-6 -3,-12 0,-18 -3,-6 -3,-12 0,-18 -7,-12 0,-27 19,-38z"/>
    <path class="fil11" d="M46162 37754l666 -385c26,-15 66,-17 89,-3l535 309c14,7 17,19 12,30 3,6 3,12 0,18 3,6 3,11 0,18 3,5 3,11 0,17 3,6 3,12 0,18 3,6 3,12 0,18 3,5 3,11 0,17 3,6 3,12 0,18 3,6 3,12 0,18 3,6 3,12 0,17 3,6 3,12 0,18 7,13 1,28 -18,39l-666 384c-26,15 -66,17 -89,4l-535 -309c-14,-8 -17,-20 -13,-31 -2,-6 -2,-12 0,-18 -2,-5 -2,-11 0,-17 -2,-6 -2,-12 0,-18 -2,-6 -2,-12 0,-18 -2,-5 -2,-12 0,-17 -2,-6 -2,-12 0,-18 -2,-6 -2,-12 0,-18 -2,-6 -2,-12 0,-18 -2,-5 -2,-11 0,-17 -2,-6 -2,-12 0,-18 -6,-13 0,-27 19,-38z"/>
    <path class="fil11" d="M44429 37851l666 -384c26,-16 66,-17 89,-4l535 309c14,8 17,19 12,30 3,6 3,12 0,18 3,6 3,12 0,18 3,5 3,11 0,18 3,5 3,11 0,17 3,6 3,12 0,18 3,6 3,12 0,18 3,5 3,11 0,17 3,6 3,12 0,18 3,6 3,12 0,18 3,5 3,11 0,18 4,7 3,16 -3,24l149 -86c26,-15 66,-17 89,-4l535 310c14,7 17,19 13,30 3,6 2,12 0,18 3,5 2,11 0,18 3,5 2,11 0,17 3,6 2,12 0,18 3,6 2,12 0,18 3,5 2,11 0,17 3,6 2,12 0,18 3,6 2,12 0,18 3,5 2,11 0,18 3,5 2,11 0,17 4,8 3,17 -3,25l148 -86c27,-15 66,-17 89,-4l535 309c14,8 17,20 13,31 3,5 2,11 0,18 3,5 2,11 0,17 3,6 2,12 0,18 3,5 2,11 0,18 3,5 2,11 0,17 3,6 2,12 0,18 3,6 2,12 0,18 3,5 2,11 0,18 3,5 2,11 0,17 3,6 2,12 0,18 6,12 0,27 -19,38l-666 385c-26,15 -65,16 -88,3l-536 -309c-13,-8 -17,-19 -12,-30 -3,-6 -3,-12 0,-18 -3,-6 -3,-12 0,-18 -3,-5 -3,-11 0,-17 -3,-6 -3,-12 0,-18 -3,-6 -3,-12 0,-18 -3,-5 -3,-12 0,-18 -3,-5 -3,-11 0,-17 -3,-6 -3,-12 0,-18 -3,-6 -3,-12 0,-18 -3,-5 -3,-11 0,-18 -4,-7 -3,-16 3,-24l-149 86c-26,15 -66,17 -89,4l-535 -309c-14,-8 -17,-20 -12,-31 -3,-6 -3,-12 0,-18 -3,-5 -3,-11 0,-17 -3,-6 -3,-12 0,-18 -3,-6 -3,-12 0,-18 -3,-6 -3,-11 0,-18 -3,-5 -3,-11 0,-17 -3,-6 -3,-12 0,-18 -3,-6 -3,-12 0,-18 -3,-5 -3,-11 0,-17 -3,-6 -3,-12 0,-18 -4,-8 -3,-17 3,-25l-149 86c-26,15 -66,17 -89,4l-535 -309c-14,-8 -17,-19 -13,-31 -3,-5 -2,-11 0,-17 -3,-6 -2,-12 0,-18 -3,-6 -2,-12 0,-18 -3,-5 -2,-11 0,-18 -3,-5 -2,-11 0,-17 -3,-6 -2,-12 0,-18 -3,-5 -2,-12 0,-18 -3,-5 -2,-11 0,-17 -3,-6 -2,-12 0,-18 -3,-6 -2,-12 0,-18 -6,-12 0,-27 19,-38z"/>
    <path class="fil11" d="M45290 34254c3,5 2,11 0,17 3,6 2,12 0,18 3,6 2,12 0,18 3,6 2,12 0,18 3,5 2,11 0,17 3,6 2,12 0,18 3,6 2,12 0,18 3,5 2,11 0,18 3,5 2,11 0,17 3,6 2,12 0,18 4,8 3,16 -3,24l149 -86c26,-15 66,-16 88,-3l536 309c14,8 17,19 12,30 3,6 3,12 0,18 3,6 3,12 0,18 3,6 3,12 0,18 3,5 3,11 0,17 3,6 3,12 0,18 3,6 3,12 0,18 3,5 3,11 0,17 3,6 3,12 0,18 3,6 3,12 0,18 3,6 3,12 0,18 4,7 3,16 -3,24l149 -86c26,-15 66,-17 89,-3l535 309c14,7 17,19 13,30 2,6 2,12 0,18 2,5 2,12 0,18 2,5 2,11 0,17 2,6 2,12 0,18 2,6 2,12 0,18 2,5 2,11 0,17 2,6 2,12 0,18 2,6 2,12 0,18 2,5 2,12 0,18 2,5 2,11 0,17 4,8 2,17 -3,25l148 -86c27,-15 66,-17 89,-4l535 309c14,8 17,20 13,31 3,5 2,11 0,17 3,6 2,12 0,18 3,6 2,12 0,18 3,5 2,12 0,18 3,5 2,11 0,17 3,6 2,12 0,18 3,6 2,12 0,18 3,5 2,11 0,18 3,5 2,11 0,17 3,6 2,12 0,18 6,12 0,27 -19,38l-666 385c-26,15 -66,16 -88,3l-536 -309c-13,-8 -17,-19 -12,-30 -3,-6 -3,-12 0,-18 -3,-6 -3,-12 0,-18 -3,-5 -3,-11 0,-18 -3,-5 -3,-11 0,-17 -3,-6 -3,-12 0,-18 -3,-5 -3,-12 0,-18 -3,-5 -3,-11 0,-17 -3,-6 -3,-12 0,-18 -3,-6 -3,-12 0,-18 -3,-5 -3,-11 0,-18 -4,-7 -3,-16 3,-24l-149 86c-26,15 -66,17 -89,4l-535 -309c-14,-8 -17,-20 -12,-31 -3,-6 -3,-12 0,-18 -3,-5 -3,-11 0,-17 -3,-6 -3,-12 0,-18 -3,-6 -3,-12 0,-18 -3,-5 -3,-11 0,-18 -3,-5 -3,-11 0,-17 -3,-6 -3,-12 0,-18 -3,-6 -3,-12 0,-18 -3,-5 -3,-11 0,-18 -3,-5 -3,-11 0,-17 -4,-8 -3,-16 3,-25l-149 86c-26,15 -66,17 -89,4l-535 -309c-14,-8 -17,-19 -13,-31 -3,-5 -2,-11 0,-17 -3,-6 -2,-12 0,-18 -3,-6 -2,-12 0,-18 -3,-5 -2,-11 0,-17 -3,-6 -2,-12 0,-18 -3,-6 -2,-12 0,-18 -3,-6 -2,-12 0,-18 -3,-5 -2,-11 0,-17 -3,-6 -2,-12 0,-18 -3,-6 -2,-12 0,-18 -4,-8 -3,-16 3,-24l-254 146c25,-9 55,-10 74,1l535 309c14,8 17,19 12,30 3,6 3,12 0,18 3,6 3,12 0,18 3,5 3,12 0,18 3,5 3,11 0,17 3,6 3,12 0,18 3,6 3,12 0,18 3,5 3,11 0,17 3,6 3,12 0,18 3,6 3,12 0,18 3,5 3,12 0,18 4,7 3,16 -3,24l149 -86c27,-15 66,-17 89,-4l535 310c14,8 17,19 13,30 3,6 2,12 0,18 3,5 2,11 0,17 3,6 2,12 0,18 3,6 2,12 0,18 3,6 2,12 0,18 3,5 2,11 0,17 3,6 2,12 0,18 3,6 2,12 0,18 3,5 2,12 0,18 3,5 2,11 0,17 4,8 3,17 -3,25l149 -86c26,-15 66,-17 88,-4l536 309c13,8 16,20 12,31 3,5 3,11 0,17 3,6 3,12 0,18 3,6 3,12 0,18 3,5 3,11 0,18 3,5 3,11 0,17 3,6 3,12 0,18 3,6 3,12 0,18 3,5 3,11 0,17 3,6 3,12 0,18 3,6 3,12 0,18 6,12 0,27 -19,38l-666 385c-26,15 -65,16 -88,3l-535 -309c-14,-8 -17,-19 -13,-30 -3,-6 -2,-12 0,-18 -3,-6 -2,-12 0,-18 -3,-5 -2,-11 0,-18 -3,-5 -2,-11 0,-17 -3,-6 -2,-12 0,-18 -3,-6 -2,-12 0,-18 -3,-5 -2,-11 0,-17 -3,-6 -2,-12 0,-18 -3,-6 -2,-12 0,-18 -3,-5 -2,-12 0,-18 -4,-7 -3,-16 3,-24l-149 86c-26,15 -66,17 -88,4l-536 -309c-13,-8 -17,-20 -12,-31 -3,-6 -3,-12 0,-18 -3,-5 -3,-11 0,-17 -3,-6 -3,-12 0,-18 -3,-6 -3,-12 0,-18 -3,-5 -3,-11 0,-18 -3,-5 -3,-11 0,-17 -3,-6 -3,-12 0,-18 -3,-6 -3,-12 0,-18 -3,-5 -3,-11 0,-17 -3,-6 -3,-12 0,-18 -4,-8 -3,-17 3,-25l-149 86c-26,15 -66,17 -89,4l-535 -309c-14,-8 -17,-19 -13,-31 -2,-5 -2,-11 0,-17 -2,-6 -2,-12 0,-18 -2,-6 -2,-12 0,-18 -2,-5 -2,-11 0,-18 -2,-5 -2,-11 0,-17 -2,-6 -2,-12 0,-18 -2,-6 -2,-12 0,-18 -2,-5 -2,-11 0,-17 -2,-6 -2,-12 0,-18 -2,-6 -2,-12 0,-18 -4,-8 -2,-16 4,-24l-149 86c-27,15 -66,16 -89,3l-535 -309c-14,-8 -17,-19 -13,-30 -3,-6 -2,-12 0,-18 -3,-6 -2,-12 0,-18 -3,-5 -2,-11 0,-17 -3,-6 -2,-12 0,-18 -3,-6 -2,-12 0,-18 -3,-5 -2,-12 0,-18 -3,-5 -2,-11 0,-17 -3,-6 -2,-12 0,-18 -3,-6 -2,-12 0,-18 -3,-5 -2,-11 0,-18 -6,-12 0,-27 19,-38l1617 -933c26,-15 65,-17 88,-4l535 309c14,8 18,20 13,31z"/>
    <path class="fil12" d="M48593 37016l-535 -309c-23,-13 -20,-36 6,-51l666 -385c26,-15 66,-17 88,-3l536 309c22,13 20,36 -7,51l-665 384c-27,15 -66,17 -89,4z"/>
    <path class="fil12" d="M49769 35719l536 309c22,13 19,36 -7,51l-665 384c-27,15 -66,17 -89,4l-535 -309c-23,-13 -20,-36 6,-51l666 -385c26,-15 66,-16 88,-3z"/>
    <path class="fil12" d="M51499 36717l905 523c23,13 20,36 -6,51l-666 384c-26,16 -66,17 -88,4l-906 -523c-23,-13 -20,-36 6,-51l666 -384c26,-16 66,-17 89,-4z"/>
    <path class="fil12" d="M50552 36170l535 309c23,13 20,36 -7,51l-665 385c-26,15 -66,17 -89,3l-535 -309c-23,-13 -20,-36 6,-51l666 -384c26,-15 66,-17 89,-4z"/>
    <path class="fil12" d="M52651 37383l536 309c22,13 19,36 -7,51l-665 384c-27,15 -66,17 -89,4l-535 -309c-23,-13 -20,-36 6,-51l666 -385c26,-15 66,-17 88,-3z"/>
    <path class="fil12" d="M53434 37834l535 309c23,13 20,36 -6,51l-666 385c-26,15 -66,17 -89,3l-535 -309c-23,-13 -20,-36 6,-51l666 -384c26,-15 66,-17 89,-4z"/>
    <path class="fil12" d="M50812 39395l-535 -309c-23,-13 -20,-36 7,-51l665 -384c26,-16 66,-17 89,-4l535 309c23,13 20,36 -6,51l-666 384c-26,16 -66,17 -89,4z"/>
    <path class="fil6" d="M51595 39847l-536 -309c-22,-13 -19,-36 7,-51l665 -385c27,-15 66,-16 89,-3l535 309c23,13 20,36 -6,51l-666 384c-26,15 -66,17 -88,4z"/>
    <path class="fil6" d="M52377 40298l-535 -309c-23,-13 -20,-36 6,-51l666 -384c26,-15 66,-17 88,-4l536 309c22,13 20,36 -7,52l-665 384c-26,15 -66,17 -89,3z"/>
    <path class="fil6" d="M53159 40750l-535 -309c-23,-13 -20,-36 6,-51l666 -384c26,-16 66,-17 89,-4l535 309c23,13 20,36 -6,51l-666 384c-26,16 -66,17 -89,4z"/>
    <path class="fil12" d="M49375 37467l-535 -309c-23,-13 -20,-36 6,-51l666 -384c26,-15 66,-17 89,-4l535 309c23,13 20,36 -6,51l-666 385c-26,15 -66,17 -89,3z"/>
    <path class="fil12" d="M50030 38944l-1194 -690c-23,-13 -20,-36 7,-51l1616 -933c26,-16 66,-17 89,-4l617 357c23,13 20,36 -6,51l-856 494c-26,15 -29,38 -6,51l494 285c23,13 20,36 -7,52l-665 384c-26,15 -66,17 -89,4z"/>
    <path class="fil12" d="M54216 38286l535 309c23,13 20,36 -6,51l-666 384c-26,16 -66,17 -88,4l-536 -309c-22,-13 -20,-36 7,-51l665 -384c27,-16 66,-17 89,-4z"/>
    <path class="fil12" d="M54998 38738l535 309c23,13 20,36 -6,51l-665 384c-27,15 -66,17 -89,4l-535 -309c-23,-13 -20,-36 6,-51l666 -385c26,-15 66,-17 88,-3z"/>
    <path class="fil6" d="M58724 43908c-26,15 -66,17 -89,4l-535 -309c-23,-13 -20,-36 7,-52l665 -384c26,-15 66,-17 89,-4l535 310c23,13 20,36 -6,51l-666 384z"/>
    <path class="fil6" d="M61257 42351l535 309c23,13 20,36 -6,51l-666 384c-26,16 -66,17 -89,4l-535 -309c-23,-13 -20,-36 6,-51l666 -384c26,-16 66,-17 89,-4z"/>
    <path class="fil6" d="M59881 43478c-27,15 -66,17 -89,4l-535 -309c-23,-14 -20,-36 6,-52l666 -384c26,-15 66,-17 89,-4l535 310c23,13 20,36 -7,51l-665 384z"/>
    <path class="fil6" d="M57273 44223l-535 -309c-23,-13 -20,-36 6,-51l666 -385c26,-15 65,-16 88,-3l535 309c23,13 20,36 -6,51l-666 384c-26,15 -65,17 -88,4z"/>
    <path class="fil6" d="M58144 44671c-27,15 -66,17 -89,4l-535 -309c-23,-14 -20,-36 6,-52l666 -384c26,-15 66,-17 89,-4l535 309c23,14 20,37 -7,52l-665 384z"/>
    <path class="fil6" d="M60474 41899l535 309c23,13 20,36 -6,51l-665 385c-27,15 -66,16 -89,3l-535 -309c-23,-13 -20,-36 6,-51l666 -384c26,-15 66,-17 88,-4z"/>
    <path class="fil12" d="M56563 39641l535 309c23,13 20,36 -6,51l-666 384c-26,16 -66,17 -89,4l-535 -309c-23,-13 -20,-36 7,-51l665 -384c26,-16 66,-17 89,-4z"/>
    <path class="fil6" d="M59692 41448l535 309c23,13 20,36 -6,51l-666 384c-26,15 -66,17 -88,4l-536 -309c-22,-13 -19,-36 7,-52l665 -384c27,-15 66,-17 89,-3z"/>
    <path class="fil12" d="M55781 39189l535 309c23,13 20,36 -7,51l-665 385c-26,15 -66,17 -89,3l-535 -309c-23,-13 -20,-36 6,-51l666 -384c26,-15 66,-17 89,-4z"/>
    <path class="fil12" d="M57345 40093l535 309c23,13 20,36 -6,51l-666 384c-26,15 -66,17 -88,4l-536 -309c-22,-13 -19,-36 7,-51l665 -385c27,-15 66,-17 89,-3z"/>
    <path class="fil12" d="M58127 40544l536 309c22,13 20,36 -7,51l-665 385c-27,15 -66,16 -89,3l-535 -309c-23,-13 -20,-36 6,-51l666 -384c26,-15 66,-17 88,-4z"/>
    <path class="fil12" d="M58910 40996l535 309c23,13 20,36 -6,51l-666 384c-26,16 -66,17 -89,4l-535 -309c-23,-13 -20,-36 6,-51l666 -384c26,-16 66,-17 89,-4z"/>
    <path class="fil6" d="M54724 41653l-535 -309c-23,-13 -20,-36 6,-51l666 -384c26,-15 66,-17 88,-4l536 309c22,13 19,36 -7,51l-665 385c-27,15 -66,17 -89,3z"/>
    <path class="fil12" d="M48040 34720l535 309c23,13 20,36 -6,51l-666 385c-26,15 -66,16 -88,3l-536 -309c-22,-13 -20,-36 7,-51l665 -384c26,-15 66,-17 89,-4z"/>
    <path class="fil12" d="M48987 35267l535 309c23,13 20,36 -6,51l-666 385c-26,15 -66,16 -88,3l-536 -309c-22,-13 -20,-36 7,-51l665 -384c26,-15 66,-17 89,-4z"/>
    <path class="fil12" d="M47258 34269l535 309c23,13 20,36 -6,51l-666 384c-26,15 -66,17 -89,4l-535 -309c-23,-13 -20,-36 6,-52l666 -384c26,-15 66,-17 89,-3z"/>
    <path class="fil12" d="M51187 38513l-535 -309c-23,-13 -20,-36 6,-51l666 -384c26,-15 66,-17 88,-4l536 309c22,13 20,36 -7,51l-665 385c-27,15 -66,16 -89,3z"/>
    <path class="fil12" d="M46387 33821c26,-16 66,-17 88,-4l536 309c22,13 19,36 -7,51l-665 384c-27,16 -66,17 -89,4l-535 -309c-23,-13 -20,-36 6,-51l666 -384z"/>
    <path class="fil6" d="M53942 41202l-536 -309c-22,-13 -20,-36 7,-51l665 -385c27,-15 66,-16 89,-3l535 309c23,13 20,36 -6,51l-666 384c-26,15 -66,17 -88,4z"/>
    <path class="fil12" d="M44348 35663l-535 -309c-23,-13 -20,-36 6,-51l666 -384c26,-16 66,-17 89,-4l535 309c23,13 20,36 -6,51l-666 384c-26,16 -66,17 -89,4z"/>
    <path class="fil12" d="M46081 35566l-535 -309c-23,-13 -20,-36 6,-51l666 -385c26,-15 66,-17 89,-3l535 309c23,13 20,36 -6,51l-666 384c-26,15 -66,17 -89,4z"/>
    <path class="fil12" d="M45436 34370c26,-16 66,-17 88,-4l536 309c22,13 20,36 -7,51l-665 384c-26,16 -66,17 -89,4l-535 -309c-23,-13 -20,-36 6,-51l666 -384z"/>
    <path class="fil12" d="M45271 34274l-1616 934c-27,15 -66,17 -89,3l-535 -309c-23,-13 -20,-36 6,-51l1617 -933c26,-15 65,-17 88,-4l535 309c23,13 20,36 -6,51z"/>
    <path class="fil12" d="M47089 35269l535 309c23,13 20,36 -6,51l-666 385c-26,15 -66,16 -88,3l-536 -309c-22,-13 -20,-36 7,-51l665 -384c27,-15 66,-17 89,-4z"/>
    <path class="fil6" d="M52977 38669l535 309c23,13 20,36 -6,51l-666 384c-26,15 -66,17 -89,4l-535 -309c-22,-13 -20,-36 7,-52l665 -384c26,-15 66,-17 89,-3z"/>
    <path class="fil12" d="M45219 36111c-26,15 -66,17 -88,4l-536 -309c-22,-13 -20,-36 7,-52l665 -384c27,-15 66,-17 89,-4l535 309c23,14 20,37 -6,52l-666 384z"/>
    <path class="fil6" d="M52195 38217l535 309c23,13 20,36 -6,51l-666 384c-26,16 -66,17 -89,4l-535 -309c-23,-13 -20,-36 6,-51l666 -384c26,-16 66,-17 89,-4z"/>
    <path class="fil6" d="M57942 43456c-27,16 -66,17 -89,4l-535 -309c-23,-13 -20,-36 6,-51l666 -384c26,-16 66,-17 89,-4l535 309c23,13 20,36 -7,51l-665 384z"/>
    <path class="fil6" d="M59235 42282l536 309c22,13 19,36 -7,51l-665 384c-27,15 -66,17 -89,4l-535 -309c-23,-13 -20,-36 6,-51l666 -385c26,-15 66,-16 88,-3z"/>
    <path class="fil6" d="M57071 43008l-535 -309c-23,-13 -20,-36 6,-51l666 -384c26,-15 66,-17 88,-4l535 309c23,13 20,36 -6,51l-666 385c-26,15 -65,17 -88,3z"/>
    <path class="fil6" d="M56289 42557l-536 -309c-22,-13 -20,-36 7,-51l665 -385c26,-15 66,-17 89,-3l535 309c23,13 20,36 -6,51l-666 384c-26,15 -66,17 -88,4z"/>
    <path class="fil6" d="M55506 42105l-535 -309c-23,-13 -20,-36 6,-51l666 -384c26,-16 66,-17 89,-4l535 309c23,13 20,36 -6,51l-666 384c-26,16 -66,17 -89,4z"/>
    <path class="fil6" d="M58453 41830l535 309c23,13 20,36 -6,51l-666 385c-26,15 -66,16 -88,3l-536 -309c-22,-13 -20,-36 7,-51l665 -384c26,-15 66,-17 89,-4z"/>
    <path class="fil6" d="M57671 41378l535 309c23,14 20,37 -6,52l-666 384c-26,15 -66,17 -89,4l-535 -309c-23,-13 -20,-36 6,-52l666 -384c26,-15 66,-17 89,-4z"/>
    <path class="fil6" d="M54541 39572l536 309c22,13 20,36 -7,51l-665 384c-26,16 -66,17 -89,4l-535 -309c-23,-13 -20,-36 6,-51l666 -384c26,-16 66,-17 88,-4z"/>
    <path class="fil6" d="M55324 40023l535 309c23,14 20,37 -6,52l-666 384c-26,15 -66,17 -89,4l-535 -309c-23,-14 -20,-36 6,-52l666 -384c26,-15 66,-17 89,-4z"/>
    <path class="fil6" d="M53759 39120l535 309c23,13 20,36 -6,51l-666 385c-26,15 -66,16 -88,3l-535 -309c-23,-13 -20,-36 6,-51l666 -384c26,-15 65,-17 88,-4z"/>
    <path class="fil6" d="M56888 40927l536 309c22,13 20,36 -7,51l-665 384c-27,15 -66,17 -89,4l-535 -309c-23,-13 -20,-36 6,-51l666 -385c26,-15 66,-16 88,-3z"/>
    <path class="fil6" d="M56106 40475l535 309c23,13 20,36 -6,51l-666 385c-26,15 -66,16 -88,3l-536 -309c-22,-13 -20,-36 7,-51l665 -384c27,-15 66,-17 89,-4z"/>
    <path class="fil6" d="M56491 43771l-536 -309c-22,-13 -20,-36 7,-51l665 -384c27,-15 66,-17 89,-4l535 309c23,13 20,36 -6,51l-666 385c-26,15 -66,16 -88,3z"/>
    <path class="fil6" d="M61285 43190l665 -384c26,-15 66,-17 89,-4l535 309c23,14 20,37 -6,52l-666 384c-26,15 -66,17 -88,4l-536 -309c-22,-13 -20,-36 7,-52z"/>
    <path class="fil6" d="M60046 43573l665 -384c26,-15 66,-17 89,-4l823 475c23,14 20,37 -6,52l-666 384c-26,15 -66,17 -88,4l-824 -476c-23,-13 -20,-36 7,-51z"/>
    <path class="fil6" d="M62315 42453l666 -384c26,-16 66,-17 88,-4l659 380c23,13 20,36 -6,51l-666 385c-26,15 -66,17 -88,3l-659 -380c-23,-13 -20,-36 6,-51z"/>
    <path class="fil6" d="M61810 42161c-26,15 -66,17 -89,4l-535 -309c-23,-13 -20,-36 6,-51l666 -385c26,-15 66,-16 89,-3l535 309c23,13 20,36 -6,51l-666 384z"/>
    <path class="fil6" d="M58889 44003l665 -384c27,-15 66,-17 89,-4l1029 594c23,14 20,36 -6,52l-666 384c-26,15 -66,17 -88,4l-1030 -595c-22,-13 -20,-36 7,-51z"/>
    <path class="fil6" d="M58308 44766l666 -384c26,-15 66,-17 89,-4l659 381c22,13 19,36 -7,51l-665 384c-27,15 -66,17 -89,4l-659 -381c-23,-13 -20,-36 6,-51z"/>
    <path class="fil12" d="M55994 38803c-27,15 -66,17 -89,4l-535 -309c-23,-13 -20,-36 6,-51l666 -385c26,-15 66,-17 88,-3l536 309c22,13 19,36 -7,51l-665 384z"/>
    <path class="fil12" d="M57558 39706c-26,16 -66,17 -88,4l-536 -309c-22,-13 -20,-36 7,-51l665 -384c26,-16 66,-17 89,-4l535 309c23,13 20,36 -6,51l-666 384z"/>
    <path class="fil6" d="M61028 41710c-27,15 -66,16 -89,3l-535 -309c-23,-13 -20,-36 6,-51l666 -384c26,-15 66,-17 88,-4l536 309c22,13 20,36 -7,51l-665 385z"/>
    <path class="fil12" d="M56776 39255c-26,15 -66,17 -89,4l-535 -310c-23,-13 -20,-36 6,-51l666 -384c26,-15 66,-17 89,-4l535 309c23,13 20,36 -6,52l-666 384z"/>
    <path class="fil12" d="M58341 40158c-27,15 -66,17 -89,4l-535 -309c-23,-13 -20,-36 6,-51l666 -385c26,-15 66,-17 88,-3l536 309c22,13 19,36 -7,51l-665 384z"/>
    <path class="fil6" d="M57859 44836c26,-15 66,-17 88,-4l824 475c22,14 20,36 -7,52l-665 384c-26,15 -66,17 -89,4l-824 -476c-22,-13 -19,-36 7,-51l666 -384z"/>
    <path class="fil12" d="M59463 40806c-26,15 -66,17 -89,4l-535 -309c-23,-13 -20,-36 7,-51l665 -385c26,-15 66,-16 89,-3l535 309c23,13 20,36 -6,51l-666 384z"/>
    <path class="fil12" d="M60245 41258c-26,15 -66,17 -88,4l-536 -309c-22,-14 -19,-37 7,-52l666 -384c26,-15 65,-17 88,-4l535 309c23,14 20,37 -6,52l-666 384z"/>
    <path class="fil12" d="M43366 36468c26,-15 65,-17 88,-4l1318 761c23,13 20,36 -7,51l-665 385c-26,15 -66,16 -89,3l-1317 -760c-23,-14 -20,-36 6,-52l666 -384z"/>
    <path class="fil12" d="M45095 37466c26,-15 66,-16 89,-3l535 309c22,13 20,36 -7,51l-665 384c-26,16 -66,17 -89,4l-535 -309c-23,-13 -20,-36 6,-51l666 -385z"/>
    <path class="fil6" d="M55708 43320l-535 -309c-23,-13 -20,-36 6,-52l666 -384c26,-15 66,-17 89,-4l535 310c23,13 20,36 -6,51l-666 384c-26,15 -66,17 -89,4z"/>
    <path class="fil12" d="M46659 38370c27,-15 66,-17 89,-4l535 309c23,13 20,36 -6,51l-666 385c-26,15 -66,17 -88,3l-536 -309c-22,-13 -19,-36 7,-51l665 -384z"/>
    <path class="fil12" d="M42583 36016c26,-15 66,-16 89,-3l535 309c23,13 20,36 -6,51l-666 384c-26,15 -66,17 -88,4l-536 -309c-22,-13 -20,-36 7,-51l665 -385z"/>
    <path class="fil12" d="M41135 35949l1617 -933c26,-15 66,-17 88,-4l536 309c22,13 20,36 -7,51l-1616 934c-26,15 -66,16 -89,3l-535 -309c-23,-13 -20,-36 6,-51z"/>
    <path class="fil12" d="M49583 40058c26,-16 66,-17 88,-4l659 380c23,13 20,36 -6,51l-666 385c-26,15 -66,17 -89,3l-658 -380c-23,-13 -20,-36 6,-51l666 -384z"/>
    <path class="fil12" d="M47606 38917c27,-16 66,-17 89,-4l824 475c22,14 19,36 -7,51l-665 385c-27,15 -66,17 -89,3l-824 -475c-22,-13 -19,-36 7,-51l665 -384z"/>
    <path class="fil6" d="M51394 41104c27,-16 66,-17 89,-4l4406 2543c22,13 20,36 -7,52l-665 384c-27,15 -66,17 -89,4l-4406 -2544c-22,-13 -20,-36 7,-51l665 -384z"/>
    <path class="fil6" d="M56047 43790c26,-15 66,-17 89,-4l658 380c23,14 20,36 -6,52l-666 384c-26,15 -66,17 -88,4l-659 -381c-23,-13 -20,-36 6,-51l666 -384z"/>
    <path class="fil12" d="M50489 40581c26,-16 65,-17 88,-4l659 380c23,13 20,36 -6,51l-666 385c-26,15 -66,17 -89,3l-659 -380c-22,-13 -19,-36 7,-51l666 -384z"/>
    <path class="fil6" d="M56953 44313c26,-15 66,-17 88,-4l659 380c23,13 20,36 -6,52l-666 384c-26,15 -66,17 -88,4l-659 -381c-23,-13 -20,-36 6,-51l666 -384z"/>
    <path class="fil12" d="M48677 39535c26,-16 66,-17 89,-4l658 380c23,13 20,36 -6,51l-666 385c-26,15 -66,17 -88,3l-659 -380c-23,-13 -20,-36 6,-51l666 -384z"/>
    <path class="fil12" d="M45877 37918c26,-15 66,-17 89,-4l535 310c23,13 20,36 -6,51l-666 384c-26,15 -66,17 -89,4l-535 -309c-23,-13 -20,-36 6,-52l666 -384z"/>
    <path class="fil12" d="M44180 36664l-536 -309c-22,-13 -19,-36 7,-52l665 -384c27,-15 66,-17 89,-4l535 310c23,13 20,36 -6,51l-666 384c-26,15 -66,17 -88,4z"/>
    <path class="fil12" d="M47811 36564l-536 -309c-22,-13 -19,-36 7,-51l665 -384c27,-16 66,-17 89,-4l535 309c23,13 20,36 -6,51l-666 384c-26,16 -66,17 -88,4z"/>
    <path class="fil12" d="M49450 39706l-1565 -903c-22,-13 -20,-36 7,-51l665 -384c27,-16 66,-17 89,-4l1565 903c22,13 19,36 -7,51l-665 385c-27,15 -66,17 -89,3z"/>
    <path class="fil12" d="M45051 37112c-27,15 -66,16 -89,3l-535 -309c-23,-13 -20,-36 6,-51l666 -384c26,-15 66,-17 88,-4l536 309c22,13 20,36 -7,51l-665 385z"/>
    <path class="fil12" d="M45913 36566l-535 -309c-23,-13 -20,-36 6,-51l666 -384c26,-15 66,-17 88,-4l536 309c22,13 19,36 -7,51l-666 385c-26,15 -65,16 -88,3z"/>
    <path class="fil12" d="M50232 40158l-535 -309c-23,-13 -20,-36 6,-51l666 -384c26,-16 66,-17 89,-4l535 309c23,13 20,36 -7,51l-665 384c-26,16 -66,17 -89,4z"/>
    <path class="fil12" d="M46780 38110c-26,15 -66,17 -89,4l-535 -309c-23,-13 -20,-36 6,-51l666 -385c26,-15 66,-17 89,-3l535 308c23,14 20,37 -6,52l-666 384z"/>
    <path class="fil6" d="M54144 42416l-536 -309c-22,-13 -19,-36 7,-51l665 -384c27,-15 66,-17 89,-4l535 309c23,13 20,36 -6,51l-666 385c-26,15 -66,16 -88,3z"/>
    <path class="fil6" d="M53361 41965l-535 -309c-23,-13 -20,-36 6,-52l666 -384c26,-15 66,-17 89,-4l535 310c23,13 20,36 -6,51l-666 384c-26,15 -66,17 -89,4z"/>
    <path class="fil6" d="M54926 42868l-535 -309c-23,-13 -20,-36 6,-51l666 -384c26,-16 66,-17 88,-4l536 309c22,13 20,36 -7,51l-665 384c-27,16 -66,17 -89,4z"/>
    <path class="fil6" d="M51797 41061l-536 -309c-22,-13 -19,-36 7,-51l665 -384c27,-15 66,-17 89,-4l535 309c23,13 20,36 -6,51l-666 385c-26,15 -66,16 -88,3z"/>
    <path class="fil6" d="M52579 41513l-535 -309c-23,-13 -20,-36 6,-51l666 -384c26,-16 66,-17 88,-4l536 309c22,13 20,36 -7,51l-665 384c-26,15 -66,17 -89,4z"/>
    <path class="fil6" d="M51014 40610l-535 -309c-23,-13 -20,-36 7,-52l665 -384c26,-15 66,-17 89,-3l535 309c23,13 20,36 -6,51l-666 384c-26,15 -66,17 -89,4z"/>
    <path class="fil12" d="M51569 36249c-26,15 -66,16 -89,3l-535 -309c-23,-13 -20,-36 6,-51l666 -384c26,-16 66,-17 89,-4l535 309c23,13 20,36 -6,51l-666 385z"/>
    <path class="fil12" d="M50004 35345c-26,15 -66,17 -88,4l-536 -309c-22,-13 -20,-36 7,-51l665 -385c27,-15 66,-16 89,-3l535 309c23,13 20,36 -6,51l-666 384z"/>
    <path class="fil12" d="M52524 36800c-26,15 -66,17 -89,4l-535 -309c-23,-14 -20,-36 6,-51l666 -385c26,-15 66,-17 89,-3l535 308c23,14 20,37 -6,52l-666 384z"/>
    <path class="fil12" d="M50787 35797c-27,15 -66,17 -89,4l-535 -309c-23,-14 -20,-36 6,-52l666 -384c26,-15 66,-17 88,-4l536 309c22,14 19,36 -7,52l-665 384z"/>
    <path class="fil12" d="M54089 37703c-27,15 -66,17 -89,4l-535 -309c-23,-13 -20,-36 6,-51l666 -385c26,-15 66,-16 88,-3l536 309c22,13 19,36 -7,51l-665 384z"/>
    <path class="fil12" d="M53306 37252c-26,15 -66,17 -88,3l-536 -309c-22,-13 -20,-36 7,-51l665 -384c27,-15 66,-17 89,-4l535 309c23,13 20,36 -6,51l-666 385z"/>
    <path class="fil12" d="M45556 34110c-26,15 -66,17 -88,4l-536 -310c-22,-13 -20,-36 7,-51l665 -384c27,-15 66,-17 89,-4l535 309c23,13 20,36 -6,51l-666 385z"/>
    <path class="fil12" d="M43397 36212l-535 -309c-23,-13 -20,-36 6,-51l666 -384c26,-16 66,-17 89,-4l535 309c23,13 20,36 -6,51l-666 384c-26,16 -66,17 -89,4z"/>
    <path class="fil12" d="M54871 38155c-26,15 -66,17 -89,4l-535 -309c-23,-14 -20,-36 6,-52l666 -384c26,-15 66,-17 89,-3l535 308c23,14 20,37 -6,52l-666 384z"/>
    <path class="fil13" d="M47737 33754c-26,15 -66,17 -89,4l-535 -309c-23,-13 -20,-36 6,-51l177 -103c27,-15 66,-17 89,-3l535 309c23,13 20,36 -6,51l-177 102z"/>
    <path class="fil13" d="M49301 34657c-26,16 -65,17 -88,4l-535 -309c-23,-13 -20,-36 6,-51l177 -102c26,-16 66,-17 89,-4l535 309c23,13 20,36 -6,51l-178 102z"/>
    <path class="fil13" d="M46955 33302c-27,16 -66,17 -89,4l-535 -309c-23,-13 -20,-36 6,-51l177 -102c26,-16 66,-17 89,-4l535 309c23,13 20,36 -6,51l-177 102z"/>
    <path class="fil13" d="M48519 34206c-26,15 -66,17 -88,3l-536 -309c-22,-13 -20,-36 7,-51l177 -102c26,-15 66,-17 89,-4l535 309c23,13 20,36 -7,52l-177 102z"/>
    <path class="fil14" d="M67467 41995l0 0 -19766 -11412 2622 -15563 152 -349 165 -81c422,-244 941,-244 1363,0l18086 10442c422,243 681,693 681,1181l-2622 14601c-126,756 -260,937 -681,1181z"/>
    <path class="fil15" d="M50780 14671l18978 10957c205,118 331,336 331,572l-2622 15795 -19766 -11412 2622 -15649c0,-234 254,-380 457,-263z"/>
    <polygon class="fil9" points="48383,29864 50839,15486 51077,15623 48621,29727 "/>
    <polygon class="fil16" points="51077,15623 48621,29728 67094,40368 69453,26235 "/>
    <path class="fil17" d="M51452 17243l85 -512c22,-130 130,-180 246,-114l16501 9505c115,67 190,226 168,357l-89 530 -2144 12852 -16916 -9744 2149 -12874z"/>
    <path class="fil18" d="M49209 30067l16915 9743 2145 -12851 89 -534c22,-131 -53,-291 -168,-357l-16500 -9504c-115,-66 -226,-13 -247,117l-85 512 -2149 12874z"/>
    <polygon class="fil9" points="48383,29864 67053,40625 67094,40368 48621,29728 "/>
    <path class="fil19" d="M51358 17193l16911 9766 89 -534c22,-131 -53,-291 -168,-357l-16500 -9504c-115,-66 -226,-13 -247,117l-85 512z"/>
    <polygon class="fil20" points="67594,25958 67529,26323 53022,17948 53087,17583 "/>
    <polygon class="fil17" points="67738,26116 68121,26336 68135,26251 67753,26031 "/>
    <polygon class="fil17" points="67713,26253 68096,26474 68110,26389 67728,26168 "/>
    <polygon class="fil17" points="67688,26395 68070,26615 68085,26530 67703,26310 "/>
    <path class="fil18" d="M47340 22096l3 3265c1,217 -152,305 -340,196l-3789 -2183c-188,-108 -340,-372 -340,-589l4 -3266c1,-217 153,-304 341,-196l3781 2184c188,109 340,372 340,589z"/>
    <polygon class="fil18" points="42342,19660 42965,19307 42995,20117 "/>
    <polygon class="fil18" points="46603,25951 47240,25583 46652,25241 "/>
    <polygon class="fil18" points="45108,26308 45108,24834 45746,24468 45746,25942 "/>
    <path class="fil21" d="M46704 22468l0 3263c0,216 -152,304 -340,196l-3786 -2188c-188,-108 -340,-372 -340,-589l0 -3268c0,-217 152,-305 340,-196l3786 2192c188,109 340,373 340,590z"/>
    <polygon class="fil21" points="45106,24834 45108,26308 43514,23913 "/>
    <path class="fil16" d="M44726 22604c0,0 -282,-645 -309,-739 -27,-93 0,-419 0,-482 1,-62 -255,-233 -336,-54 -81,178 -88,361 -41,598l-623 -360c-131,-76 -185,33 -185,118 0,121 67,226 100,268 0,0 -124,-37 -124,130 0,94 57,228 151,306 0,0 -40,31 -40,147 0,78 87,261 174,311 0,0 -26,55 -27,148 0,113 95,280 229,358 135,78 1031,596 1031,596l0 -1345z"/>
    <polygon class="fil16" points="45322,24475 44874,24216 44875,22651 45323,22911 "/>
    <path class="fil18" d="M48647 15511l3 3264c1,217 -152,305 -340,197l-3789 -2184c-188,-108 -340,-372 -340,-589l4 -3265c1,-217 153,-305 341,-197l3781 2185c188,108 340,372 340,589z"/>
    <polygon class="fil18" points="43649,13074 44272,12722 44302,13531 "/>
    <polygon class="fil18" points="47910,19366 48547,18998 47959,18656 "/>
    <polygon class="fil18" points="46415,19722 46415,18248 47053,17882 47053,19356 "/>
    <path class="fil21" d="M48011 15882l0 3263c0,217 -152,305 -340,196l-3786 -2187c-188,-109 -340,-373 -340,-590l0 -3267c0,-217 152,-305 340,-196l3786 2192c188,108 340,372 340,589z"/>
    <polygon class="fil21" points="46413,18248 46415,19722 44821,17328 "/>
    <path class="fil22" d="M45731 17305l361 -96c344,-91 756,-292 756,-734 0,-310 -251,-706 -561,-884 -285,-165 -520,11 -555,266 -36,-296 -271,-743 -556,-908 -309,-178 -560,-72 -560,237 0,443 410,1118 754,1606l361 513z"/>
    <polygon class="fil9" points="32957,43884 46136,51488 46136,51213 32958,43608 "/>
    <path class="fil21" d="M49481 31169l5365 3098 1454 838c46,24 92,51 137,80 541,334 924,928 924,1658l1 2817c0,661 315,1214 780,1560 335,251 748,395 1176,395 324,0 657,-83 972,-264 1812,-1047 2928,-2980 2928,-5072l0 -3071c0,-1047 279,-2053 785,-2928 506,-876 1237,-1621 2143,-2144l-13178 -7608 1 3c-907,523 -1639,1268 -2145,2143 -506,876 -784,1882 -784,2928l0 3071c0,879 -196,1728 -559,2496z"/>
    <line class="fil23 str0" x1="52699" y1="22136" x2="63794" y2= "28542" />
    <line class="fil23 str0" x1="51791" y1="23294" x2="62886" y2= "29700" />
    <line class="fil23 str0" x1="51200" y1="24640" x2="62295" y2= "31045" />
    <line class="fil23 str0" x1="50963" y1="26112" x2="62058" y2= "32518" />
    <line class="fil23 str0" x1="50960" y1="27603" x2="62055" y2= "34009" />
    <line class="fil23 str0" x1="50960" y1="29090" x2="62055" y2= "35495" />
    <line class="fil23 str0" x1="50834" y1="30581" x2="61929" y2= "36987" />
    <line class="fil23 str0" x1="50350" y1="31974" x2="61446" y2= "38379" />
    <line class="fil23 str0" x1="49539" y1="33197" x2="60634" y2= "39603" />
    <line class="fil23 str0" x1="48434" y1="34190" x2="59529" y2= "40595" />
    <path class="fil16" d="M46136 51213l0 275 120 -67 2440 -1408c1881,-1086 3049,-3110 3049,-5280l0 -4510c0,-750 151,-1481 431,-2154 467,-1122 1294,-2084 2377,-2709 535,-310 1176,-310 1712,0 536,309 855,864 855,1483l1 2817c0,742 360,1412 969,1819l3 3c41,27 82,53 124,77 688,396 1507,396 2193,0 1880,-1086 3048,-3109 3048,-5280l0 -3071c0,-1954 1026,-3774 2688,-4791l0 -281c-906,523 -1637,1268 -2143,2144 -506,875 -785,1881 -785,2928l0 3071c0,2092 -1116,4025 -2928,5072 -315,181 -648,264 -972,264 -428,0 -841,-144 -1176,-395 -2,-1 -3,-3 -4,-4 -28,-19 -55,-41 -82,-63 -27,-23 -55,-47 -81,-73 -6,-4 -11,-10 -17,-15 -46,-43 -89,-89 -130,-136 -1,-2 -2,-4 -5,-6 -23,-28 -46,-55 -67,-84 -15,-19 -29,-38 -43,-59 -20,-26 -36,-53 -53,-79 -16,-24 -30,-49 -45,-74 -36,-62 -68,-127 -97,-195 -24,-54 -44,-111 -63,-169 -4,-13 -9,-26 -12,-39 -9,-28 -16,-57 -24,-86 -1,-4 -2,-9 -3,-14 -7,-31 -15,-62 -19,-95 -3,-7 -4,-13 -4,-20 -6,-25 -10,-52 -13,-78 -3,-15 -4,-29 -5,-44 -4,-30 -6,-58 -8,-89 0,-6 -2,-12 -2,-18 -2,-39 -3,-79 -3,-120l-1 -2817c0,-46 -2,-90 -5,-135 -1,-34 -5,-66 -9,-97 -2,-24 -6,-48 -9,-72 -2,-10 -3,-20 -5,-29 -4,-25 -9,-51 -14,-75 1,-1 0,-2 0,-3 -8,-36 -16,-74 -27,-108 -10,-38 -20,-74 -32,-110 -4,-11 -8,-21 -11,-32 -9,-24 -18,-48 -28,-71 -19,-49 -41,-96 -64,-142 -16,-35 -34,-68 -55,-102 0,-1 -1,-2 -1,-4 -20,-34 -41,-68 -64,-101 -18,-27 -37,-55 -57,-81 -48,-65 -101,-128 -157,-185 -10,-12 -22,-24 -34,-35 -21,-21 -42,-41 -64,-60l-1 -1c-30,-28 -60,-53 -92,-79 -2,-2 -6,-3 -8,-7 -60,-47 -123,-91 -187,-129 -18,-11 -35,-23 -53,-33 -18,-12 -38,-22 -56,-31 -9,-6 -19,-11 -28,-16 -57,-29 -113,-55 -172,-77 -21,-9 -41,-17 -62,-24 -12,-5 -25,-9 -38,-13 -20,-7 -42,-14 -64,-20 -28,-10 -59,-18 -90,-26 -26,-6 -53,-12 -79,-18 -4,-1 -8,-2 -14,-2 -30,-6 -61,-12 -92,-16 -31,-4 -62,-9 -93,-12 -344,-34 -703,23 -1045,191 -39,20 -79,41 -119,64 -906,523 -1637,1268 -2143,2142 -122,212 -230,429 -325,654 -299,709 -460,1479 -460,2275l0 4510c0,2092 -1116,4025 -2928,5071l-2440 1409z"/>
    <path class="fil19" d="M52176 38069l5914 3410c-609,-407 -969,-1077 -969,-1819l-1 -2817c0,-619 -319,-1174 -855,-1483 -536,-310 -1177,-310 -1712,0 -1083,625 -1910,1587 -2377,2709z"/>
    <path class="fil20" d="M32958 43609l13178 7604 2440 -1409c1812,-1046 2928,-2979 2928,-5071l0 -4510c0,-796 161,-1566 460,-2275 95,-225 203,-442 325,-654 506,-874 1237,-1619 2143,-2142 619,-358 1311,-333 1868,-47l-1454 -838 -5365 -3098 -6261 -3614 -16 -10c-568,-328 -1299,-374 -1949,1 -906,523 -1638,1268 -2143,2144 -506,876 -785,1883 -785,2928l0 4509c0,2092 -1116,4026 -2928,5072l-2441 1410z"/>
    <line class="fil23 str0" x1="47449" y1="31973" x2="52509" y2= "34912" />
    <line class="fil23 str0" x1="39098" y1="36910" x2="50193" y2= "43315" />
    <line class="fil23 str0" x1="39098" y1="38333" x2="50193" y2= "44738" />
    <line class="fil23 str0" x1="39098" y1="35330" x2="50193" y2= "41736" />
    <line class="fil23 str0" x1="39148" y1="33863" x2="50243" y2= "40269" />
    <line class="fil23 str0" x1="45302" y1="35820" x2="50362" y2= "38759" />
    <line class="fil23 str0" x1="45677" y1="34299" x2="50738" y2= "37238" />
    <line class="fil23 str0" x1="46456" y1="33004" x2="51516" y2= "35943" />
    <path class="fil24" d="M44274 35820c69,-981 559,-2025 1028,-2837 506,-876 987,-1483 1892,-2005l-5298 -3080c-906,522 -1603,1348 -2109,2224 -468,812 -772,1666 -814,2619l5301 3079z"/>
    <polygon class="fil25" points="70495,51209 64169,47566 69705,44350 76012,48018 "/>
    <polygon class="fil26" points="64533,47350 70386,50728 70386,50165 64533,46786 "/>
    <polygon class="fil20" points="64533,46786 70387,50165 75743,47068 69889,43688 "/>
    <polygon class="fil18" points="70387,50728 75742,47631 75743,47068 70386,50165 "/>
    <polygon class="fil22" points="70386,50165 72831,48751 72831,47059 68920,47067 68432,45649 65989,45944 64533,46786 "/>
    <path class="fil27" d="M70496 45231c298,172 298,451 0,623 -298,172 -781,172 -1079,0 -298,-172 -298,-451 0,-623 298,-172 781,-172 1079,0z"/>
    <polygon class="fil28" points="70387,50728 70386,50165 72831,48751 72831,49315 "/>
    <polygon class="fil29" points="70386,50165 64533,46786 64533,47350 70387,50728 "/>
    <polygon class="fil30" points="61918,56159 55592,52516 61129,49300 67435,52969 "/>
    <polygon class="fil26" points="55956,52300 61810,55679 61809,55116 55956,51737 "/>
    <polygon class="fil21" points="55956,51737 61810,55116 67166,52018 61312,48639 "/>
    <polygon class="fil18" points="61810,55679 67166,52581 67166,52018 61809,55116 "/>
    <polygon class="fil22" points="61809,55115 64254,53702 64254,52009 60343,52018 59855,50599 57412,50894 55956,51736 "/>
    <path class="fil3" d="M61919 50181c298,173 298,451 0,623 -298,172 -781,172 -1079,0 -298,-172 -298,-450 0,-623 298,-172 781,-172 1079,0z"/>
    <polygon class="fil28" points="61810,55679 61809,55115 64254,53702 64254,54265 "/>
    <polygon class="fil29" points="61809,55115 55956,51736 55956,52300 61810,55679 "/>
    <path class="fil30" d="M28475 34717c1849,874 4752,929 6485,122 1733,-808 1628,-2171 -234,-3045 -1862,-875 -4766,-929 -6485,-122 -1719,807 -1614,2170 234,3045z"/>
    <path class="fil20" d="M28193 31626c-126,-13 -1270,-178 -2423,-1890 -549,-814 -987,-2306 -718,-3467 133,-579 438,-1019 880,-1275 1224,-706 2290,57 2683,558l-746 585 373 -292 -371 294c-66,-81 -666,-785 -1465,-324 -212,122 -357,347 -431,668 -192,829 145,2077 581,2724 899,1333 1727,1476 1735,1476l-98 943z"/>
    <path class="fil21" d="M36531 24677l-9558 29 869 7657 1 0c7,572 388,1143 1143,1579 1527,881 4002,881 5528,0 759,-438 1140,-1012 1144,-1586l873 -7679z"/>
    <path class="fil20" d="M28365 22573c-1870,1080 -1870,2830 0,3909 1870,1080 4901,1080 6770,0 1870,-1079 1870,-2829 0,-3909 -1869,-1079 -4900,-1079 -6770,0z"/>
    <path class="fil18" d="M31750 26660c-1169,0 -2259,-257 -3069,-725 -691,-398 -1086,-911 -1086,-1407 0,-496 395,-1009 1086,-1408 810,-467 1900,-725 3069,-725 1170,0 2260,258 3070,725 690,399 1086,912 1086,1408 0,496 -396,1009 -1086,1407 -810,468 -1900,725 -3070,725z"/>
    <path class="fil31" d="M27805 25164c183,-278 481,-543 876,-771 810,-467 1900,-725 3070,-725 1169,0 2259,258 3069,725 394,228 693,493 876,771 -183,278 -482,543 -877,771l0 0c-809,468 -1899,725 -3069,725l0 0c-1169,0 -2259,-257 -3069,-725l0 0c-395,-227 -693,-493 -876,-771z"/>
    <path class="fil32" d="M30264 24135c1216,-104 3127,191 3648,886 521,695 -1459,1373 -1459,1373 0,0 2032,-122 2553,-938 522,-817 -2536,-1842 -4742,-1321z"/>
    <polygon class="fil1" points="45531,42168 46749,44914 44098,43468 "/>
    <polygon class="fil33" points="46749,44914 44674,42946 44098,43468 "/>
    <polygon class="fil31" points="46749,44914 46430,44196 46431,44376 46306,44285 46338,44464 46160,44402 46240,44548 46011,44511 "/>
    <path class="fil34" d="M30851 29065l173 188 208 227 12866 13988c309,32 611,-87 858,-273 376,-282 623,-721 574,-1026l-12811 -13928 -399 -433c243,295 -1222,1549 -1469,1257z"/>
    <path class="fil9" d="M31024 29253l208 227 12866 13988c309,32 611,-87 858,-273l-13163 -14212 -769 270z"/>
    <path class="fil35" d="M31507 29781l387 418c108,125 438,-36 762,-284 430,-330 847,-813 704,-979l-286 -307 -102 -111c143,166 -274,650 -705,980 -310,238 -628,395 -747,295l-1 -1c-5,-2 -9,-6 -12,-11z"/>
    <path class="fil36" d="M31604 29885c251,290 1716,-973 1465,-1263l-385 -420c250,291 -1215,1553 -1465,1263l385 420z"/>
    <path class="fil35" d="M30851 29065l381 415c244,287 1670,-918 1487,-1239 -2,-6 -7,-12 -12,-18l-387 -415c243,295 -1222,1549 -1469,1257z"/>
    <path class="fil37" d="M29234 27307l1617 1758c106,125 434,-32 756,-277 431,-329 853,-812 713,-980 0,-1 0,-1 -1,-2l-1556 -1691c-330,-424 -1233,93 -1521,631 -109,201 -132,403 -8,561z"/>
    <path class="fil15" d="M29234 27307l1617 1758c106,125 434,-32 756,-277l-1568 -1782c0,0 -450,312 -661,240 -213,-72 -225,-270 -136,-500 -109,201 -132,403 -8,561z"/>
   </g>
   <g>
    <circle class="fil38" cx="92667" cy="25780" r="6714"/>
    <path class="fil39" d="M93934 27680l0 1268 -5067 0 0 -1268 5067 0zm-5067 -3801l0 -1266c2533,0 5067,0 7601,0l-1266 1266c-2113,0 -4224,0 -6335,0zm7601 1267c0,1268 0,2534 0,3802l-1266 0 0 -2534 0 0 -6335 0 0 -1268c2533,0 5067,0 7601,0l0 0z"/>
    <path class="fil40" d="M92958 32489l-10 0c3,0 6,0 10,0zm6425 -6709c0,-3614 -2857,-6562 -6435,-6709l10 0 263 -6 9 0c3708,0 6715,3007 6715,6715 0,3709 -3007,6714 -6715,6714 -91,0 -182,-1 -273,-5 3574,-152 6426,-3098 6426,-6709l0 0z"/>
   </g>
   <g>
    <path class="fil41" d="M65222 14753l-1185 -667c-811,735 -1131,1917 -945,2627 69,263 188,419 420,550l1035 587c-171,-136 -275,-370 -312,-656 -91,-718 241,-1769 987,-2441z"/>
    <path class="fil39" d="M66135 10739c-35,17 -69,33 -104,54 -1058,610 -1919,2052 -1989,3288 -2,2 -4,4 -6,5l1186 667c70,-1236 931,-2678 1989,-3289 35,-20 69,-36 104,-54l-1180 -671z"/>
    <path class="fil41" d="M67315 11410c506,-1664 2919,-4547 4466,-3914 37,15 73,32 109,51l-100 -55c-342,-188 -1172,-713 -1519,-749 -1539,-161 -3665,2446 -4136,3996l1180 671z"/>
    <path class="fil39" d="M71889 7547c271,144 512,407 707,814 518,-330 1038,-421 1432,-253l-993 -566c-434,-247 -776,-246 -1245,-50l99 55z"/>
    <path class="fil41" d="M74655 8954c23,100 38,209 46,326 247,-63 447,-46 602,29l-648 -355z"/>
    <path class="fil42" d="M67315 11410c-35,18 -69,34 -104,54 -1058,611 -1919,2053 -1989,3289 -1441,1300 -1340,4011 389,3012l8719 -5034c1557,-899 1989,-3861 371,-3451 -87,-1297 -1099,-1561 -2105,-919 -1299,-2723 -4672,1046 -5281,3049z"/>
   </g>
   <g>
    <path class="fil39" d="M72931 20731l-606 -341c-415,376 -579,981 -484,1344 35,135 96,214 215,282l530 300c-88,-70 -141,-190 -160,-336 -47,-368 124,-905 505,-1249z"/>
    <path class="fil41" d="M73399 18677c-18,9 -36,17 -54,28 -541,312 -982,1050 -1017,1682 -1,1 -2,2 -3,3l606 341c36,-632 477,-1370 1018,-1683 18,-10 35,-18 53,-27l-603 -344z"/>
    <path class="fil39" d="M74002 19021c259,-852 1494,-2327 2285,-2003 19,8 38,16 56,26l-51 -28c-175,-96 -600,-365 -777,-383 -788,-82 -1876,1251 -2116,2044l603 344z"/>
    <path class="fil39" d="M76343 17044c138,74 262,208 361,417 265,-169 531,-216 733,-130l-508 -289c-222,-127 -397,-126 -637,-26l51 28z"/>
    <path class="fil41" d="M77758 17764c11,51 19,107 23,167 127,-32 229,-24 308,15l-331 -182z"/>
    <path class="fil42" d="M74002 19021c-18,9 -35,17 -53,27 -541,313 -982,1051 -1018,1683 -737,665 -686,2052 199,1541l4462 -2575c796,-460 1017,-1976 189,-1766 -44,-664 -562,-799 -1077,-470 -664,-1394 -2390,535 -2702,1560z"/>
   </g>
   <g>
    <path class="fil40" d="M17828 16579l960 -540c656,595 916,1552 765,2127 -56,214 -152,340 -340,446l-839 475c139,-110 223,-299 253,-531 74,-582 -195,-1433 -799,-1977z"/>
    <path class="fil39" d="M17088 13328c29,14 56,27 84,43 857,495 1555,1663 1611,2664 2,1 3,3 5,4l-960 540c-57,-1001 -754,-2169 -1611,-2664 -29,-16 -56,-29 -85,-44l956 -543z"/>
    <path class="fil40" d="M16132 13871c-409,-1348 -2364,-3682 -3617,-3170 -29,12 -59,26 -88,42l81 -45c277,-153 949,-578 1231,-607 1246,-130 2968,1981 3349,3237l-956 543z"/>
    <path class="fil39" d="M12428 10742c-220,117 -415,330 -572,660 -420,-268 -841,-341 -1161,-205l805 -459c351,-200 628,-199 1008,-40l-80 44z"/>
    <path class="fil39" d="M10187 11882c-18,81 -30,169 -36,264 -201,-51 -362,-38 -488,24l524 -288z"/>
    <path class="fil43" d="M16132 13871c29,15 56,28 85,44 857,495 1554,1663 1611,2664 1167,1053 1086,3248 -315,2440l-7062 -4078c-1261,-728 -1611,-3127 -300,-2795 69,-1050 890,-1264 1705,-744 1051,-2206 3784,847 4276,2469z"/>
   </g>
   <path class="fil44" d="M11714 43695c-1339,-44 -2413,-1145 -2422,-2507l-21 0c-8,1362 -1082,2463 -2424,2507 1345,45 2424,1154 2424,2526l18 0c0,-1372 1080,-2481 2425,-2526z"/>
   <path class="fil30" d="M98737 10175c-878,27 -1582,749 -1588,1639l-15 0c-6,-890 -707,-1612 -1585,-1639 882,-30 1588,-755 1588,-1654l12 0c0,899 707,1624 1588,1654z"/>
  </g>
 </g>
</svg>
