<?xml version="1.0" encoding="UTF-8"?>
<!DOCTYPE svg PUBLIC "-//W3C//DTD SVG 1.1//EN" "http://www.w3.org/Graphics/SVG/1.1/DTD/svg11.dtd">
<!-- Creator: CorelDRAW X7 -->
<svg xmlns="http://www.w3.org/2000/svg" xml:space="preserve" width="10.6299in" height="6.4235in" version="1.1" style="shape-rendering:geometricPrecision; text-rendering:geometricPrecision; image-rendering:optimizeQuality; fill-rule:evenodd; clip-rule:evenodd"
viewBox="0 0 106299 64235"
 xmlns:xlink="http://www.w3.org/1999/xlink">
 <defs>
  <style type="text/css">
   <![CDATA[
    .fil13 {fill:none;fill-rule:nonzero}
    .fil32 {fill:#5C589A}
    .fil29 {fill:#9A97C9}
    .fil38 {fill:#D3B076}
    .fil37 {fill:#DBBE8A}
    .fil17 {fill:#E9D1A9}
    .fil1 {fill:#EDDFC4}
    .fil18 {fill:#F4E3C8}
    .fil0 {fill:#F6EFE2}
    .fil20 {fill:white}
    .fil3 {fill:#093153;fill-rule:nonzero}
    .fil14 {fill:#348CD1;fill-rule:nonzero}
    .fil40 {fill:#5C589A;fill-rule:nonzero}
    .fil34 {fill:#5D4D30;fill-rule:nonzero}
    .fil30 {fill:#657AA9;fill-rule:nonzero}
    .fil33 {fill:#6CA0BA;fill-rule:nonzero}
    .fil35 {fill:#75613D;fill-rule:nonzero}
    .fil23 {fill:#7C94CA;fill-rule:nonzero}
    .fil42 {fill:#7F97CB;fill-rule:nonzero}
    .fil5 {fill:#8480BC;fill-rule:nonzero}
    .fil28 {fill:#879ED0;fill-rule:nonzero}
    .fil27 {fill:#8AA1D1;fill-rule:nonzero}
    .fil8 {fill:#908DC3;fill-rule:nonzero}
    .fil4 {fill:#9A97C9;fill-rule:nonzero}
    .fil9 {fill:#9F9CCB;fill-rule:nonzero}
    .fil44 {fill:#9FAED1;fill-rule:nonzero}
    .fil36 {fill:#A18654;fill-rule:nonzero}
    .fil12 {fill:#A38755;fill-rule:nonzero}
    .fil22 {fill:#A6B7DE;fill-rule:nonzero}
    .fil10 {fill:#A9A6D0;fill-rule:nonzero}
    .fil7 {fill:#ADAAD3;fill-rule:nonzero}
    .fil26 {fill:#B7C4E3;fill-rule:nonzero}
    .fil31 {fill:#BB9B61;fill-rule:nonzero}
    .fil41 {fill:#BBBAB9;fill-rule:nonzero}
    .fil24 {fill:#BECAE6;fill-rule:nonzero}
    .fil11 {fill:#D2AE6D;fill-rule:nonzero}
    .fil21 {fill:#D7B377;fill-rule:nonzero}
    .fil15 {fill:#DBBE8A;fill-rule:nonzero}
    .fil43 {fill:#DEE4F2;fill-rule:nonzero}
    .fil2 {fill:#DFC596;fill-rule:nonzero}
    .fil39 {fill:#E6D2AC;fill-rule:nonzero}
    .fil25 {fill:#ECEFF8;fill-rule:nonzero}
    .fil16 {fill:#EDDFC4;fill-rule:nonzero}
    .fil19 {fill:#F6EFE2;fill-rule:nonzero}
    .fil6 {fill:white;fill-rule:nonzero}
   ]]>
  </style>
 </defs>
 <g id="Layer_x0020_1">
  <metadata id="CorelCorpID_0Corel-Layer"/>
  <g id="_1759732958432">
   <g>
    <path class="fil0" d="M105778 30484c176,67 350,131 521,192l0 20148c-2778,500 -6413,-225 -12503,-2812 -27080,-11503 -33733,2245 -37504,16223l-49648 0c-3986,-7009 -1702,-16109 7575,-20044 11534,-1965 15828,2052 24775,3163 5736,712 9481,-1623 11293,-9665 2074,-9203 7206,-15604 15042,-18009 16839,-5170 28203,6126 40449,10804z"/>
    <path class="fil1" d="M106299 45820l0 18415 -57934 0c4181,-3095 4084,-9401 6564,-14824 2857,-6246 8998,-10110 16272,-11165 14568,-2114 26341,12030 35098,7574z"/>
    <path class="fil1" d="M82924 24476c-14006,-4118 -27232,456 -30436,14676 -1248,5541 -1505,11635 -9118,12300 -10134,886 -15029,-8704 -29151,-7261 8947,-3794 23693,252 29495,-2348 5200,-2330 4458,-8243 4119,-13968 -655,-11074 9355,-18156 22227,-15865 5267,938 10372,2849 15430,2588 3824,-197 6091,-2153 8061,-4544 3837,-4655 6281,-9204 12748,-10054l0 35198c-7260,-646 -15294,-8345 -23375,-10722z"/>
   </g>
   <path class="fil2" d="M68976 38532l14607 8888 10672 -5909c240,-133 240,-478 0,-611l-14950 -8257 -10329 5889z"/>
   <path class="fil3" d="M93561 41315l-14731 -8561c1,0 1,1 2,1l14730 8560 -1 0z"/>
   <path class="fil4" d="M78810 25087l14734 8563c-40,-23 -96,-20 -157,15l-14735 -8562c62,-36 118,-39 158,-16z"/>
   <path class="fil3" d="M83057 47341l-14734 -8563c-253,-147 -409,-458 -411,-902l14735 8563c1,443 157,755 410,902z"/>
   <path class="fil5" d="M83057 47341l-14734 -8563 -12 -7 0 0 -12 -7 -11 -8 -12 -7 0 0 -11 -8 -11 -9 -11 -8 -10 -9 -1 0 -10 -9 -11 -9 -10 -9 -10 -10 -10 -9 0 0 -10 -11 -9 -10 -10 -10 -9 -11 -9 -11 0 0 -9 -11 -9 -12 -9 -12 0 0 -8 -11 0 0 -9 -13 -8 -12 -8 -12 -8 -13 -7 -13 0 0 -8 -13 -7 -14 0 0 -7 -14 -7 -14 0 0 -7 -14 -6 -14 0 0 -7 -15 -6 -14 0 0 -6 -15 0 0 -6 -15 -5 -16 -6 -15 0 0 -5 -16 -5 -16 -5 -17 0 0 -4 -16 -5 -17 0 0 -4 -17 0 0 -4 -17 -4 -17 -3 -17 0 0 -4 -18 0 0 -3 -18 0 0 -3 -18 -3 -19 -2 -18 -1 0 -2 -19 -2 -19 0 0 -2 -19 0 0 -2 -19 0 0 -1 -20 0 0 -1 -19 0 0 -2 -20 0 0 0 -20 0 0 -1 -21 0 -20 0 0 -1 -21 0 0 14735 8563c1,443 157,755 410,902z"/>
   <path class="fil6" d="M92842 34491l21 7157 -8807 5084c-266,154 -506,169 -681,69 -175,-99 -283,-313 -284,-619l-14 -4945c-1,-306 105,-644 279,-945 175,-302 414,-563 680,-717l8806 -5084z"/>
   <polygon class="fil5" points="82647,46439 67912,37876 67898,32931 82633,41493 "/>
   <polygon class="fil7" points="84035,39065 69300,30502 78652,25103 93387,33665 "/>
   <path class="fil8" d="M82633 41493l-14735 -8562c-2,-893 626,-1980 1403,-2429l14734 8563c-777,448 -1405,1535 -1402,2428z"/>
   <path class="fil5" d="M82633 41493l-14735 -8562c0,-27 1,-54 2,-81l0 -4 0 0 0 -1 2 -38 0 -3 0 -1 1 -5 2 -37 0 -1 1 -5 3 -34 0 -3 0 -2c2,-20 5,-40 7,-61l14735 8563c-13,93 -19,185 -18,275z"/>
   <path class="fil9" d="M82651 41218l-14735 -8563 3 -21 1 -2 6 -40 0 -3 0 -1 0 -3 7 -36 0 -3 0 -1 1 -2 7 -37 0 -3 1 -2 0 -1 0 -3 7 -34 1 -3 14734 8563c-14,65 -25,130 -33,195z"/>
   <polygon class="fil5" points="82684,41023 67950,32460 67950,32458 67951,32457 67959,32417 67960,32415 67960,32413 67961,32412 67961,32410 67962,32407 67962,32405 67967,32385 67968,32382 67968,32380 67969,32377 67970,32375 67970,32372 67972,32365 67973,32362 67973,32359 67974,32357 67975,32354 67975,32352 67976,32349 67977,32347 67977,32344 67978,32342 67979,32339 67979,32337 67980,32334 67981,32332 67983,32324 67983,32322 67984,32319 67985,32317 67985,32314 67986,32311 67987,32309 67987,32306 67988,32304 67989,32301 67990,32299 82724,40861 82723,40864 82722,40866 82722,40869 82721,40871 82720,40874 82720,40877 82719,40879 82718,40882 82717,40884 82717,40887 82716,40888 82716,40889 82715,40892 82715,40894 82714,40897 82713,40899 82713,40902 82712,40904 82708,40922 82707,40924 82706,40927 82706,40930 82705,40932 82705,40932 82704,40935 82704,40937 82703,40940 82696,40970 82695,40972 82695,40975 82694,40976 82694,40977 82694,40980 82686,41015 82685,41018 82685,41020 82685,41020 "/>
   <path class="fil10" d="M82767 40718l-14734 -8562 1 -3 1 -2 0 -1 0 -1 1 -2 1 -2 0 -2 1 -2 4 -12 1 -3 4 -10 0 -2 1 -2 1 -2 1 -2 0 -2 0 0 1 -2 1 -3 1 -2 0 -2 1 -2 10 -27 0 -2 1 -2 1 -2 0 0 1 -2 14 -37 14734 8562 -15 40 0 0c-11,31 -22,62 -33,93z"/>
   <polygon class="fil9" points="82815,40585 68081,32023 68081,32023 68082,32021 68082,32019 68082,32018 68083,32017 68084,32015 68085,32013 68085,32011 68086,32009 68095,31987 68096,31985 68096,31983 68097,31981 68098,31979 68099,31977 68099,31975 68100,31975 68100,31973 68101,31971 68102,31969 68103,31967 68103,31965 68104,31963 68105,31961 68114,31940 68115,31938 68116,31936 68116,31934 68117,31932 68118,31931 68118,31930 68119,31928 68120,31926 68121,31924 68121,31922 68122,31920 68132,31899 68132,31897 82867,40459 82852,40494 82852,40494 82851,40496 82835,40534 82834,40536 82834,40537 82834,40538 82833,40540 82817,40579 82817,40581 82817,40581 82816,40583 "/>
   <polygon class="fil10" points="82867,40459 68132,31897 68132,31897 68133,31895 68134,31893 68135,31891 68136,31889 68136,31888 68137,31887 68137,31885 68138,31883 68139,31881 68140,31879 68141,31877 68142,31875 68153,31850 68154,31849 68155,31847 68155,31845 68155,31845 68156,31843 68157,31841 68158,31839 68159,31837 68161,31831 68162,31830 68163,31828 68169,31814 68170,31812 68171,31810 68172,31809 68173,31807 68174,31805 68175,31803 68175,31802 68176,31801 68177,31799 68177,31797 68178,31795 68179,31793 68180,31791 68181,31790 68182,31788 68183,31786 68184,31784 68185,31782 68186,31780 68187,31778 68187,31776 68188,31774 82923,40337 82913,40356 82913,40358 82912,40360 82911,40362 82910,40364 82909,40365 82909,40365 82908,40367 82907,40369 82891,40404 82890,40405 82890,40407 82889,40408 82889,40409 82888,40411 82872,40446 82872,40448 82871,40449 82870,40451 82870,40451 "/>
   <path class="fil9" d="M82923 40337l-14735 -8563 3 -5 1 -2 1 -2 1 -2 1 -2 1 -2 0 0 1 -1 0 -2 1 -2 1 -2 1 -2 1 -2 1 -2 1 -2 1 -2 4 -7 1 -2 1 -2 0 -2 1 -2 1 -1 1 -2 1 -2 1 -2 1 -2 1 -1 0 -1 1 -2 1 -2 1 -1 1 -2 1 -2 12 -24 1 -2 1 -2 1 -2 1 -2 0 0 1 -2 1 -2 1 -1 8 -15 14734 8562c-10,20 -21,40 -31,60l-1 2 0 1 -1 1 -1 2 -1 1 -1 2 0 2 -1 2 -11 21 -1 1 0 2 -1 2 -1 2 -1 2 -1 2 0 0 -1 2 -1 2 -1 2 -4 9z"/>
   <path class="fil5" d="M82983 40217l-14734 -8562 9 -17 1 -2 1 -2 1 -1 0 -1 1 -1 1 -2 1 -2 1 -2 1 -2 1 -2 11 -20 1 -2 1 -2 1 -2 1 -2 1 -2 1 0 1 -1 1 -2 1 -2 1 -2 1 -2 1 -2 2 -3 1 -2 2 -4 1 -2 1 -2 1 -1 1 -2 1 -2 1 -2 1 -2 1 -2 1 -1 8 -13 1 -2 1 -2 1 -2 14734 8563 -7 13 -1 0 -23 42 0 0c-12,21 -24,42 -35,63z"/>
   <path class="fil5" d="M83049 40099l-14734 -8563 8 -13 1 -2 1 -2 1 -1 1 -2 1 -2 1 -2 2 -2 2 -4 1 -2 1 -1 1 -2 1 -2 1 -2 1 -2 2 -2 1 -2 1 -2 1 -1 1 -2 1 -2 1 -2 2 -2 1 -2 1 -2 12 -20 2 -2 1 -2 7 -11 1 -2 1 -1 10 -17 2 -2 1 -2 14734 8563 -6 9 -1 1 0 1 -1 2c-22,35 -44,70 -65,106z"/>
   <path class="fil9" d="M83122 39980l-14734 -8563 1 -2 1 -1 1 -2 2 -2 1 -2 1 -2 1 -2 2 -2 1 -2 1 -2 1 -2 2 -2 1 -2 1 -2 3 -3 1 -2 1 -2 1 -2 2 -2 1 -2 1 -2 1 -2 4 -6 1 -1 2 -2 3 -6 2 -2 1 -2 1 -2 2 -2 1 -2 0 0 1 -1 1 -2 2 -2 1 -2 1 -2 3 -4 1 -2 1 -2 8 -11 1 -2 2 -2 1 -1 1 -2 2 -2 1 -2 0 0 1 -2 2 -2 1 -2 5 -7 14734 8562c-20,29 -39,58 -59,87l-1 2 -1 2 -1 1 -1 1 -1 2 -17 27z"/>
   <polygon class="fil5" points="83203,39858 68469,31296 68471,31294 68482,31278 68483,31276 68485,31274 68486,31272 68487,31270 68488,31270 68489,31268 68508,31242 68509,31240 68511,31238 68512,31236 68514,31234 68515,31232 68515,31232 68517,31230 68518,31228 68520,31226 68521,31224 68523,31222 68524,31220 68526,31218 68527,31216 68529,31214 68530,31212 68531,31210 68533,31208 68534,31206 68536,31204 68537,31202 68551,31184 68552,31182 68554,31181 68555,31179 68557,31177 68558,31175 68560,31173 68561,31171 68563,31169 83297,39731 83295,39733 83294,39735 83292,39737 83289,39741 83288,39743 83285,39747 83283,39749 83282,39751 83280,39753 83279,39755 83277,39757 83277,39757 83276,39759 83274,39761 83273,39763 83272,39765 83252,39790 83251,39792 83249,39794 83249,39795 83248,39796 83246,39798 83245,39800 83222,39832 83221,39833 "/>
   <path class="fil5" d="M83297 39731l-14734 -8562 1 -2 2 -3 2 -2 2 -2 1 -2 1 -1 1 -2 2 -2 2 -2 1 -2 2 -2 2 -3 2 -2 1 -2 2 -2 2 -2 2 -3 1 -2 2 -2 11 -13 2 -2 1 -3 4 -4 2 -2 1 -2 2 -2 2 -3 2 -2 2 -2 1 -2 2 -2 9 -11 2 -2 2 -2 2 -3 1 -2 4 -4 2 -2 2 -2 1 -2 4 -5 2 -2 2 -2 1 -2 1 0 1 -2 2 -2 13 -15 14734 8562 -16 19 0 0 -29 35 -1 1 -1 1 -2 2c-18,22 -36,44 -53,66l-2 2 -1 2 0 0 -9 11z"/>
   <path class="fil4" d="M93387 33665c122,-70 221,-14 222,128 0,140 -98,312 -221,383l-546 315 -8806 5084c-266,154 -505,415 -680,717 -174,301 -280,639 -279,945l14 4945c1,306 109,520 284,619 175,100 415,85 681,-69l8806 -5084 547 -315c122,-71 221,-14 222,127 0,141 -99,313 -221,384l-9352 5399c-777,448 -1409,88 -1411,-804l-14 -4946c-3,-893 625,-1980 1402,-2428l9352 -5400z"/>
   <polygon class="fil11" points="84770,41358 86709,40238 91248,37571 84771,41451 "/>
   <polygon class="fil2" points="86322,40489 86331,43875 85554,43645 84780,44771 84770,41385 "/>
   <polygon class="fil4" points="71097,35481 71087,38939 70099,38369 70109,34910 "/>
   <path class="fil12" d="M78189 26320l12073 7016c-31,-18 -74,-16 -122,12l-12072 -7016c47,-28 90,-30 121,-12z"/>
   <path class="fil13" d="M90252 33331l0 0 -12072 -7016 1 1 0 0 0 0 1 0 0 0 0 0 0 0 1 1 0 0 0 0 1 0 0 0 0 0 1 0 0 1 1 0 0 0 0 0 1 1 0 0 0 0 0 0 1 0 0 0 0 0 12072 7016 1 0 0 0 0 0m-1 0l-1 -1 0 0 0 0 -1 0 0 0 0 -1 -1 0 0 0 -1 0 0 0 0 0 -1 -1 0 0 0 0 -1 0 -1 -1 0 0 -1 0m8 4l0 0"/>
   <polygon class="fil14" points="90259,33334 78189,26320 78189,26320 78189,26320 90259,33334 "/>
   <polygon class="fil12" points="89861,33509 77788,26493 78068,26332 90141,33348 "/>
   <path class="fil13" d="M74214 32816l-4023 -2338 0 0 -1 -1 -1 0m3 1l0 1 5936 3449m-5936 -3450l-1 0"/>
   <path class="fil13" d="M82938 37493l-12073 -7016c55,-23 111,-51 168,-83l9734 5656m2338 1359l-2 2 -3 1 -3 2 -5 3 -2 1 -1 1 -2 1 -3 1 -3 2 -2 1 -3 2 -1 1 -1 0 -3 2 -3 1 -2 2 -3 1 -3 1 -1 1 -1 1 -3 1 -3 2 -2 1 -3 1 -2 2 -1 0 -2 1 -3 2 -2 1 -3 1 -3 1 -2 2 0 0 -3 1 -2 1 -3 2 -3 1 -2 1 -2 1 -1 1 -3 1 -2 1 -3 1 -2 2 -3 1 -3 1 -2 1 -3 2 -2 1 -3 1 -3 1 0 0 -2 1 -3 2 -2 1 -3 1 -3 1 -2 1 -3 1 -2 2 -3 1 -2 1 -3 1 -2 1 -1 0 -2 1 -3 1 -2 1 -3 1 -2 1 -2 1 -1 1"/>
   <path class="fil6" d="M89852 30443l8 3066 -6755 3900c-328,190 -626,208 -843,84 -217,-124 -352,-388 -353,-765l-1 -326c-1,-377 132,-796 348,-1170 216,-374 513,-700 841,-889l6755 -3900z"/>
   <path class="fil15" d="M90198 29867c21,-2 39,2 55,11l-12073 -7016c0,0 -1,0 -1,-1 -3,-1 -6,-2 -9,-4 -3,-1 -5,-2 -9,-3 -3,-1 -6,-2 -9,-2 -4,-1 -7,-1 -10,-1 -4,0 -8,-1 -12,0 -1,0 -3,0 -4,0 -1,0 -1,0 -2,0 -2,0 -4,1 -7,1 -5,1 -10,2 -15,3 -6,2 -13,4 -20,7 -8,3 -16,7 -24,12l-7035 4062c-49,28 -98,59 -146,92 -16,11 -31,23 -46,34 -33,23 -64,47 -96,72 -18,15 -35,29 -52,44 -30,24 -59,49 -87,76 -17,15 -34,31 -51,47 -11,10 -22,20 -32,30 -11,11 -22,24 -33,35 -35,35 -69,72 -102,109 -11,12 -22,22 -32,34 -9,11 -18,22 -27,32 -20,25 -40,49 -60,74 -12,15 -26,30 -38,46 -10,14 -20,28 -31,42 -14,19 -29,38 -43,58 -9,13 -19,26 -29,39 -16,23 -31,47 -47,70 -10,15 -20,30 -30,45 -3,6 -8,12 -12,18 -27,43 -54,86 -79,131 -2,2 -4,5 -5,8 -5,9 -10,18 -15,27 -18,32 -36,63 -53,94 -7,15 -14,30 -22,44 -8,16 -16,31 -23,47 -7,13 -14,27 -21,40 -17,35 -33,71 -48,106 -4,7 -7,15 -10,22 -1,2 -2,4 -3,6 -20,46 -39,92 -57,138 -3,8 -5,16 -8,24 -7,17 -12,34 -18,50 -9,24 -18,47 -26,71 -5,17 -10,35 -16,52 -6,21 -13,43 -19,64 -4,13 -9,27 -12,40 -7,23 -12,46 -17,69 -7,26 -14,52 -19,79 -3,9 -5,19 -7,28 -5,19 -6,37 -10,56 -8,41 -15,81 -21,121 -2,12 -4,23 -6,35 -3,25 -5,50 -7,75 -2,18 -4,36 -5,54 -5,57 -8,113 -7,169l1 325c1,483 172,822 448,982l12072 7016c-275,-160 -446,-500 -448,-982l-1 -325c0,-56 3,-113 7,-169 2,-18 4,-36 6,-54 3,-37 8,-73 13,-110 6,-40 13,-80 21,-121 5,-28 10,-56 16,-84 6,-27 13,-53 19,-79 10,-36 19,-73 30,-109 6,-22 13,-43 19,-64 13,-41 27,-82 41,-123 6,-16 12,-33 18,-50 22,-56 44,-112 68,-168 4,-8 7,-15 10,-22 22,-49 45,-98 69,-146 8,-16 16,-31 24,-47 24,-46 49,-92 74,-138 6,-9 10,-18 16,-27 30,-53 63,-105 96,-157 10,-15 20,-30 30,-44 25,-37 50,-74 76,-110 14,-20 28,-39 43,-58 23,-30 46,-59 69,-89 20,-24 40,-49 60,-73 19,-22 39,-44 59,-66 33,-38 67,-74 102,-109 21,-22 42,-44 64,-65 17,-16 34,-32 52,-47 28,-27 57,-52 86,-76 18,-15 35,-30 53,-44 31,-25 63,-49 96,-72 15,-11 30,-23 46,-34 48,-33 96,-64 146,-92l7035 -4062c23,-14 46,-21 66,-23 1,0 1,0 1,0z"/>
   <path class="fil11" d="M90131 29890c94,-54 171,-12 171,96 0,108 -76,241 -170,295l-280 162 -6755 3900c-328,189 -625,515 -841,889 -216,374 -349,793 -348,1170l1 326c1,377 136,641 353,765 217,124 515,106 843,-84l6755 -3900 281 -161c94,-55 171,-11 171,97 0,108 -76,240 -170,294l-7035 4062c-845,487 -1536,94 -1539,-877l-1 -325c-2,-970 684,-2160 1529,-2647l7035 -4062z"/>
   <path class="fil16" d="M77990 25437c146,84 145,220 1,304l-2402 1395c-144,84 -377,84 -523,0l-589 -340c-144,-83 -146,-219 -2,-303l2402 -1396c144,-84 380,-84 524,0l589 340z"/>
   <g>
    <path class="fil2" d="M75283 55654c52,0 104,-3 155,-9 -51,6 -103,9 -155,9zm-10497 2784l9427 -5478 195 112 0 0 -195 -112 -9427 5478 195 113 -195 -113zm-654 -377l9427 -5479 -9427 5479 195 112 -195 -112zm-653 -377l9427 -5479 -9427 5479 195 112 0 0 -195 -112zm4197 -8498l195 112 -195 -112 -9427 5478 9427 -5478zm-10082 5100l9427 -5479 197 114 0 0 -197 -114 -9427 5479 197 113 -197 -113zm-538 -310l79 45 -79 -45zm9312 -5546l-9428 5479 0 0 9428 -5479zm-654 -377l195 113 -195 -113 -9427 5478 9427 -5478zm-6812 6988l9427 -5478 -9427 5478zm1962 1133l9427 -5479 -9427 5479zm10275 -4989l-195 -112 0 -1 195 113zm3922 2264l0 0 -195 -112 195 112zm1028 1737c-2,-120 -81,-240 -240,-331 -157,-92 -364,-137 -571,-137 207,0 414,45 571,137 159,91 238,211 240,331zm-11651 -9063l-11486 6675 14541 8396 11486 -6675 -14541 -8396z"/>
   </g>
   <polygon class="fil6" points="64142,46124 78684,54519 67197,61194 52656,52798 "/>
   <g id="_1759732924480">
    <path class="fil17" d="M77597 14171l-1478 -831c-1010,917 -1409,2389 -1178,3275 86,329 235,523 523,686l1292 732c-214,-170 -344,-461 -389,-818 -115,-896 301,-2205 1230,-3044z"/>
    <path class="fil18" d="M78736 9166c-44,22 -86,42 -130,68 -1319,761 -2393,2559 -2480,4100 -2,2 -5,4 -7,6l1478 831c87,-1541 1161,-3339 2480,-4100 44,-26 86,-46 130,-68l-1471 -837z"/>
    <path class="fil17" d="M80207 10003c630,-2075 3640,-5669 5568,-4880 46,19 91,40 135,64l-123 -68c-427,-236 -1462,-890 -1895,-935 -1919,-200 -4569,3050 -5156,4982l1471 837z"/>
    <path class="fil17" d="M85910 5187c338,180 638,507 881,1015 646,-412 1294,-525 1786,-316l-1238 -706c-541,-307 -968,-306 -1552,-61l123 68z"/>
    <path class="fil18" d="M89359 6940c28,126 47,261 57,408 308,-79 557,-58 750,36l-807 -444z"/>
    <path class="fil19" d="M80207 10003c-44,22 -86,42 -130,68 -1319,761 -2393,2559 -2480,4100 -1797,1621 -1671,5001 485,3756l10872 -6277c1941,-1120 2479,-4813 462,-4302 -108,-1618 -1371,-1946 -2625,-1146 -1619,-3396 -5825,1304 -6584,3801z"/>
   </g>
   <g id="_1759732921824">
    <path class="fil17" d="M87209 21625l-756 -425c-517,469 -721,1222 -603,1675 44,169 120,268 268,352l661 374c-110,-87 -176,-236 -199,-418 -59,-459 154,-1129 629,-1558z"/>
    <path class="fil18" d="M87792 19064c-22,12 -44,22 -66,35 -675,389 -1225,1309 -1269,2098 -1,1 -3,2 -4,3l756 425c45,-789 594,-1708 1269,-2098 23,-13 44,-23 67,-34l-753 -429z"/>
    <path class="fil17" d="M88545 19493c322,-1062 1862,-2901 2849,-2497 23,9 46,20 69,32l-63 -35c-219,-120 -748,-455 -970,-478 -982,-102 -2338,1561 -2638,2549l753 429z"/>
    <path class="fil17" d="M91463 17028c173,92 326,259 450,520 331,-211 663,-269 914,-162l-633 -361c-277,-158 -495,-157 -794,-32l63 35z"/>
    <path class="fil18" d="M93227 17925c15,64 24,134 29,209 158,-40 285,-30 384,18l-413 -227z"/>
    <path class="fil19" d="M88545 19493c-23,11 -44,21 -67,34 -675,390 -1224,1309 -1269,2098 -919,829 -855,2559 248,1922l5563 -3212c993,-573 1269,-2463 236,-2201 -55,-828 -701,-996 -1343,-586 -828,-1738 -2980,666 -3368,1945z"/>
   </g>
   <g id="_1759732919904">
    <path class="fil17" d="M35138 31579l1071 -601c731,663 1020,1730 853,2371 -62,238 -170,378 -379,497l-935 530c155,-123 248,-334 281,-592 83,-649 -218,-1598 -891,-2205z"/>
    <path class="fil18" d="M34314 27955c31,16 62,31 94,49 955,551 1732,1853 1795,2969 2,2 4,3 6,5l-1071 601c-63,-1116 -840,-2418 -1796,-2969 -31,-18 -62,-33 -94,-49l1066 -606z"/>
    <path class="fil17" d="M33248 28561c-456,-1502 -2635,-4105 -4032,-3533 -33,13 -65,29 -98,46l90 -50c309,-170 1058,-644 1372,-677 1390,-144 3309,2209 3734,3608l-1066 606z"/>
    <path class="fil17" d="M29119 25073c-245,131 -462,368 -638,736 -468,-299 -937,-380 -1293,-229l896 -511c392,-223 701,-222 1124,-45l-89 49z"/>
    <path class="fil18" d="M26621 26343c-20,91 -34,189 -41,295 -223,-56 -403,-42 -543,26l584 -321z"/>
    <path class="fil19" d="M33248 28561c32,16 63,31 94,49 956,551 1733,1853 1796,2969 1302,1174 1211,3622 -351,2720l-7872 -4545c-1406,-812 -1796,-3486 -335,-3116 78,-1171 993,-1409 1901,-829 1172,-2459 4218,944 4767,2752z"/>
   </g>
   <path class="fil2" d="M102199 22596c-848,-26 -1528,-724 -1534,-1584l-14 0c-6,860 -683,1558 -1532,1584 852,29 1534,729 1534,1598l12 0c0,-869 683,-1569 1534,-1598z"/>
   <path class="fil16" d="M25460 55652c-1744,-58 -3143,-1492 -3155,-3267l-27 0c-12,1775 -1411,3209 -3159,3267 1752,58 3159,1504 3159,3290l23 0c0,-1786 1407,-3232 3159,-3290z"/>
   <g id="_1759732918496">
    <g id="_2902029471552">
     <path class="fil11" d="M81569 26895c-481,-279 -1143,-402 -1823,-376 -678,25 -1376,201 -1928,520 -553,319 -856,721 -902,1114 -46,392 167,775 648,1054 481,280 1138,404 1815,378 676,-26 1371,-201 1924,-520 552,-319 859,-722 907,-1114 49,-393 -161,-776 -641,-1056z"/>
     <path class="fil20" d="M80430 28121c110,63 219,127 328,191 -251,145 -504,290 -756,436 -251,145 -503,290 -754,436 -110,-64 -219,-128 -329,-191 252,-146 504,-291 755,-436 252,-146 504,-291 756,-436zm-2496 299c-110,-64 -219,-128 -328,-191 377,-218 755,-437 1133,-655 378,-218 758,-437 1138,-657 -18,137 -37,275 -55,412 -315,182 -630,364 -945,546 -314,181 -629,363 -943,545 0,0 0,0 0,0zm2600 -1121c165,95 330,191 494,286 164,96 328,191 492,287 -128,73 -256,148 -384,222 -219,-127 -438,-255 -657,-382 -315,181 -629,363 -944,544 -315,182 -629,364 -944,545 -110,-63 -219,-127 -328,-191 377,-217 755,-436 1133,-654 378,-218 758,-438 1138,-657 0,0 0,0 0,0z"/>
    </g>
   </g>
   <path class="fil21" d="M70440 27407c-21,22 -41,45 -62,68 -11,12 -22,22 -32,34 -9,11 -18,22 -27,32 -20,25 -40,49 -60,74 -12,15 -26,30 -38,46 -10,14 -20,28 -31,42 -14,19 -29,38 -43,58 -9,13 -19,26 -29,39 -16,23 -31,47 -47,70 -10,15 -20,30 -30,45 -3,6 -8,12 -12,18 -27,43 -54,86 -79,131 -2,2 -4,5 -5,8 -5,9 -10,18 -15,27 -18,32 -36,63 -53,94 -7,15 -14,30 -22,44 -8,16 -16,31 -23,47 -7,13 -14,27 -21,40 -17,35 -33,71 -48,106 -4,7 -7,15 -10,22 -1,2 -2,4 -3,6 -20,46 -39,92 -57,138 -3,8 -5,16 -8,24 -7,17 -12,34 -18,50 -9,24 -18,47 -26,71 -5,17 -10,35 -16,52 -6,21 -13,43 -19,64 -4,13 -9,27 -12,40 -7,23 -12,46 -17,69 -7,26 -14,52 -19,79 -3,9 -6,19 -7,28 -5,19 -6,37 -10,56 -8,41 -15,81 -21,121 -2,12 -4,23 -6,35 -3,25 -5,50 -7,75 -2,18 -4,36 -5,54 -5,57 -8,113 -7,169l1 325c0,239 43,443 119,608l12073 7016c-76,-165 -119,-369 -120,-608l-1 -325c0,-56 3,-113 7,-169 2,-18 4,-36 6,-54 3,-37 8,-73 13,-110 6,-40 13,-80 21,-121 5,-28 10,-56 16,-84 6,-27 13,-53 19,-79 10,-36 19,-73 30,-109 6,-22 13,-43 19,-64 13,-41 27,-82 41,-123 6,-16 12,-33 18,-50 22,-56 44,-112 68,-168 4,-8 7,-15 10,-22 22,-49 45,-98 69,-146 8,-16 16,-31 24,-47 24,-46 49,-92 74,-138 6,-9 10,-18 16,-27 30,-53 63,-106 96,-157 10,-15 20,-30 30,-44 25,-38 50,-74 76,-110 14,-20 28,-39 43,-58 23,-30 46,-59 69,-89 20,-24 40,-49 60,-73 19,-22 39,-44 59,-66 20,-23 41,-46 62,-68l-12073 -7016z"/>
   <g id="_1759732912832">
    <polygon class="fil2" points="62470,43223 66856,40674 72036,43664 67650,46213 "/>
    <polygon class="fil6" points="61816,42821 66074,40347 71103,43250 66845,45724 "/>
    <polygon class="fil22" points="66845,46510 71101,44037 71103,43250 66845,45725 "/>
    <path class="fil13" d="M65161 43499l4258 -2474 -7 10 -1 2 -4 6 -1 2 -2 3 -4 6 -8 11 -4 6 -4 6 -4 5 -4 6 -9 11 -4 5c-7,9 -14,18 -21,26l-5 5c-64,75 -138,137 -221,186l-4252 2471 0 0m5 -4l6 -3 6 -3 5 -4 11 -7 6 -4 5 -3 6 -4 5 -4 3 -2 2 -2 6 -3 5 -4 2 -2 3 -2 5 -4 6 -4 4 -4 1 0 5 -4 5 -4 1 -1 4 -3 5 -5 5 -4 1 0 4 -4 9 -8 1 -1 0 0 5 -4 5 -5 4 -3 1 -1 5 -5 4 -4 4 -4 1 -1 5 -5 4 -4 3 -3 2 -2 5 -5 4 -5 3 -2 2 -2 9 -10 2 -2 7 -8 4 -5 1 -2 4 -3 8 -10 0 -1 1 0 1 -1 11 -14 0 -1 12 -15 1 -1 11 -15 1 -1 11 -15 1 -2c8,-11 15,-23 23,-35m-292 289l-5 4"/>
    <polygon class="fil23" points="68459,42415 65575,44091 65384,43981 68268,42304 "/>
    <polygon class="fil23" points="69026,42780 66142,44456 65951,44346 68835,42669 "/>
    <polygon class="fil23" points="69611,43145 66727,44821 66536,44711 69420,43034 "/>
    <polygon class="fil24" points="66845,45725 61816,42821 61814,43608 66845,46510 "/>
    <path class="fil6" d="M69085 41268l-4257 2475c-29,16 -60,32 -91,45 -649,281 -1677,-197 -2323,-570 -348,-201 -586,-372 -592,-377l4258 -2474c6,5 243,175 591,376 646,373 1675,851 2323,571 32,-14 62,-29 91,-46z"/>
    <path class="fil25" d="M69116 41321l-4258 2474c351,-204 530,-641 532,-1302l4258 -2474c-2,661 -181,1098 -532,1302z"/>
    <path class="fil26" d="M65390 42493c-2,717 -213,1171 -625,1349 -659,285 -1702,-200 -2354,-577 -350,-202 -588,-373 -595,-378l6 -46c6,5 244,176 592,377 646,373 1674,851 2323,570 403,-174 608,-618 610,-1320l43 25z"/>
    <polygon class="fil26" points="65347,42468 69605,39994 69648,40018 65390,42493 "/>
   </g>
   <path class="fil2" d="M2354 42869c-648,-22 -1167,-554 -1171,-1213l-10 0c-5,659 -524,1191 -1173,1213 650,21 1173,558 1173,1221l8 0c0,-663 522,-1200 1173,-1221z"/>
   <g id="_1759732909376">
    <path class="fil2" d="M55707 56955l-8293 -4789c-347,-200 -912,-200 -1256,0l-4339 2522c-344,200 -342,527 5,727l8293 4788c346,200 911,200 1255,0l4339 -2521c344,-200 342,-527 -4,-727z"/>
    <path class="fil6" d="M40806 55276l1 -422c0,133 87,266 262,366l-2 423c-174,-101 -261,-234 -261,-367z"/>
    <path class="fil27" d="M41069 55221l-2 422 -8 -5 0 0 -8 -5 0 0 -7 -5 -1 0 -7 -5 0 0c-154,-98 -230,-222 -230,-347l1 -416c3,131 90,261 262,361z"/>
    <path class="fil28" d="M55213 57126l-1 422c-1,131 -86,262 -257,361l1 -422c171,-99 257,-230 257,-361z"/>
    <polygon class="fil6" points="45862,52456 45860,52878 41900,55179 41901,54757 "/>
    <polygon class="fil6" points="54021,56692 54020,57114 46682,52878 46683,52456 "/>
    <polygon class="fil6" points="54024,57169 54023,57591 50063,59892 50064,59470 "/>
    <path class="fil27" d="M52531 58467c128,74 129,193 2,267 -128,74 -334,74 -462,0 -128,-74 -129,-193 -2,-267 128,-74 334,-74 462,0z"/>
    <polygon class="fil6" points="49242,59470 49241,59892 41903,55655 41904,55233 "/>
    <path class="fil6" d="M52071 58734c128,74 334,74 462,0 127,-74 126,-193 -2,-267 -128,-74 -334,-74 -462,0 -127,74 -126,193 2,267zm-2007 736l3960 -2301c225,-131 224,-346 -3,-477l-7338 -4236c-226,-131 -596,-131 -821,0l-3961 2301c-225,131 -223,345 3,476l7338 4237c226,131 597,131 822,0zm4888 -2710c346,200 348,527 4,727l-4339 2522c-344,200 -909,200 -1255,0l-8293 -4788c-347,-200 -349,-528 -5,-728l4339 -2521c344,-200 909,-200 1256,0l8293 4788z"/>
    <path class="fil5" d="M54024 57169l-3357 1950 -603 351c-225,131 -595,131 -821,0l-7338 -4237c-227,-130 -228,-344 -4,-476l3716 -2158 244 -142c225,-131 596,-131 822,0l7338 4235c226,131 228,346 3,477z"/>
    <polygon class="fil22" points="54956,57487 54955,57909 50616,60431 50617,60009 "/>
    <polygon class="fil22" points="49362,60009 49361,60431 41067,55643 41069,55221 "/>
    <path class="fil24" d="M50617 60009l-1 422c-344,200 -909,200 -1255,0l1 -422c346,200 911,200 1255,0z"/>
    <path class="fil27" d="M44059 53100c35,20 35,53 0,73l-521 303c-35,20 -92,20 -126,0 -35,-20 -35,-53 -1,-73l521 -303c35,-20 92,-20 127,0z"/>
    <path class="fil9" d="M50667 59119l-603 351c-225,131 -595,131 -822,0l-7337 -4237c-227,-130 -228,-345 -4,-476l3716 -2158c1953,1302 3911,3341 5050,6520z"/>
   </g>
   <path class="fil29" d="M92860 40928l2 720 547 -315c59,-34 113,-39 153,-18l-702 -387z"/>
   <polygon class="fil11" points="66922,48921 57495,54399 57298,54286 66725,48807 "/>
   <polygon class="fil11" points="74765,53449 65338,58928 65143,58815 74570,53337 "/>
   <polygon class="fil11" points="75420,53827 65993,59306 65798,59193 75225,53715 "/>
   <polygon class="fil11" points="74112,53072 64685,58551 64490,58438 73917,52959 "/>
   <polygon class="fil11" points="73458,52695 64031,58173 63836,58061 73263,52582 "/>
   <polygon class="fil11" points="72805,52318 63378,57796 63183,57684 72610,52205 "/>
   <polygon class="fil11" points="72150,51939 62723,57418 62528,57305 71955,51827 "/>
   <polygon class="fil11" points="71497,51562 62070,57041 61875,56928 71302,51450 "/>
   <polygon class="fil11" points="70843,51185 61416,56664 61221,56551 70648,51073 "/>
   <polygon class="fil11" points="70190,50808 60763,56286 60568,56174 69995,50695 "/>
   <polygon class="fil11" points="69537,50431 60110,55909 59913,55796 69340,50317 "/>
   <polygon class="fil11" points="68882,50052 59455,55531 59260,55418 68687,49940 "/>
   <polygon class="fil11" points="68229,49675 58801,55154 58606,55041 68033,49563 "/>
   <polygon class="fil11" points="67575,49298 58148,54777 57953,54664 67380,49186 "/>
   <polygon class="fil11" points="66267,48543 56840,54021 56645,53909 66072,48430 "/>
   <polygon class="fil11" points="65613,48166 56186,53644 55991,53531 65419,48053 "/>
   <polygon class="fil11" points="62702,49100 57791,51955 57596,51842 62507,48988 "/>
   <path class="fil30" d="M69094 46581l6246 3626c-5,-3 -12,-2 -21,4 -32,18 -79,84 -104,145 -18,44 -20,75 -9,81l-6246 -3626c-12,-7 -9,-37 9,-81 25,-62 72,-127 104,-146 9,-5 16,-6 21,-3z"/>
   <path class="fil31" d="M75227 50434c-32,19 -37,-16 -12,-78 26,-61 72,-127 104,-145 32,-19 38,15 12,77 -25,62 -71,127 -104,146z"/>
   <path class="fil32" d="M68960 46811l6246 3626c-10,-6 -9,-30 3,-66l-6245 -3627c-14,36 -14,61 -4,67z"/>
   <path class="fil17" d="M38895 48806c1805,1176 5309,1181 7248,265 1504,-704 1809,-1754 909,-2597 -1828,-1657 -7093,-1668 -8702,158 -629,710 -447,1538 545,2174z"/>
   <g id="_1759732968480">
    <path class="fil21" d="M37550 39458l-98 57c-345,200 -560,627 -562,1233 -3,1218 857,2709 1918,3321l97 -57c-1060,-612 -1921,-2102 -1917,-3321 2,-606 216,-1032 562,-1233z"/>
    <path class="fil33" d="M37452 39515c40,-22 91,-43 190,-54 99,-9 199,6 232,11 78,12 171,40 228,61 115,43 155,65 263,124 -58,-34 -107,-81 -142,-142 -968,-558 -1927,-12 -1930,1339 -4,1351 948,3001 1916,3560 115,-65 383,-220 599,-345 -1061,-612 -1921,-2103 -1918,-3321 2,-606 217,-1033 562,-1233z"/>
    <path class="fil31" d="M37452 39515l0 0 1 -1c37,-20 84,-40 171,-50l5 -1 0 0 4 0c60,-7 132,-7 216,5l2 1 3 0 2 0 1 1 1 0 16 2 0 0c78,12 171,40 228,61l0 0c106,40 148,62 240,111l3 2 5 3 5 2 7 4c-6,-4 -12,-7 -18,-11l0 0 -10 -8 -1 0 -2 -1 0 0 -3 -2 0 0 -2 -2 -3 -2 0 0 -2 -2 0 0 -3 -2 0 0 -2 -2 0 0 -2 -2 -3 -2 0 0 -2 -2 0 0 -3 -2 0 0 -2 -2 0 0 -2 -2 0 0 -3 -2 0 0 -2 -2 0 0 -2 -2 0 0 -3 -2 0 0 -9 -9 0 0 -2 -2 0 0c-22,-23 -42,-48 -58,-77 -256,-147 -511,-218 -748,-216l-9 0c-11,0 -23,0 -34,1l-4 0c-13,0 -26,1 -39,2l-1 0 -1 0c-12,1 -24,2 -36,4l-9 1c-11,1 -22,3 -34,5l-2 0c-25,4 -51,9 -75,15l-8 1c-12,3 -23,6 -34,9l-1 0c-25,7 -49,15 -74,24l-6 2c-36,13 -72,28 -106,45l-2 1c-23,12 -46,24 -68,38l-4 2c-10,6 -20,12 -30,19l-3 1c-21,15 -43,30 -64,46l-3 2c-10,8 -19,15 -29,23l-2 2c-20,17 -41,35 -60,54l-1 1c-30,29 -58,59 -85,92l-2 1c-27,33 -53,68 -77,104l-1 2c-16,24 -32,49 -47,75l-1 1c-30,52 -57,108 -82,167l-1 3c-19,44 -35,90 -50,138l-1 2c-10,31 -19,63 -27,95l-2 9c-13,48 -23,98 -32,150l-2 9c-6,34 -11,70 -15,106l-1 5c-2,16 -4,32 -5,49l-1 10c-4,37 -6,76 -8,115l0 1c-1,19 -2,37 -2,56l-1 8c0,20 0,39 0,59 -1,22 0,43 0,64l0 0c1,42 3,85 5,128l0 0c2,22 3,43 5,65l0 0c2,22 3,43 6,65l0 0c2,22 4,43 7,65l0 0c5,44 11,87 18,131l0 0c4,22 7,44 11,66l0 0c4,22 8,44 12,66l0 0c5,22 9,44 14,66l0 0c9,45 19,89 30,133l0 0c5,22 11,44 16,66l1 0c5,22 11,45 17,67l0 0c25,88 52,176 82,264l0 0c16,44 31,88 47,132l1 0c8,22 16,43 24,65l0 0c9,22 18,44 26,65l0 0c9,22 18,44 27,65l0 0c9,22 18,43 28,65l0 0c9,21 19,42 28,64l0 0c20,42 40,85 60,127l0 0 31 63 0 0 32 62 0 0 32 62 0 0c22,41 45,82 68,122l0 0c11,20 23,40 34,60l0 0 36 60 0 0 36 59 0 0c12,19 24,38 36,58 12,19 25,38 37,57 13,19 25,38 38,57 13,18 26,37 38,56 13,18 26,36 39,55 13,18 27,36 40,54l0 0c13,17 26,35 40,53 13,17 27,35 40,52 14,17 27,34 41,51 14,17 27,34 41,51 14,16 28,33 42,49l0 0c14,16 28,32 42,48l0 0c14,16 28,32 42,47l0 0c213,233 439,424 666,555l0 0 6 -3 0 0 5 -3 1 0 5 -3 0 -1 6 -3 1 0 6 -4 0 0 6 -3 0 0 7 -4 0 0 7 -4 0 0 7 -4 0 0 8 -4 0 -1 7 -4 0 0 8 -4 0 0 8 -5 0 0 8 -4 0 0 8 -5 0 0 8 -5 0 0 8 -5 0 0 9 -5 0 0 9 -5 0 0 9 -5 9 -5 0 0 9 -5 0 0 9 -5 9 -6 0 0 10 -5 9 -6 0 0 10 -5 10 -6 10 -6 0 0 10 -5 0 0 10 -6 0 0 10 -6 0 0 10 -6 0 0 10 -6 0 0 11 -6 0 0 10 -6 0 0 10 -6 0 0 11 -6 0 0 11 -6 0 0 264 -153c-17,-10 -34,-19 -50,-29 -16,-10 -33,-21 -49,-31l0 0c-16,-10 -33,-21 -49,-32l0 0c-16,-11 -32,-22 -49,-33l0 0c-16,-11 -32,-22 -48,-34l0 0c-16,-12 -32,-24 -48,-35l0 -1c-16,-11 -31,-24 -47,-36l0 0c-16,-12 -32,-25 -47,-38l0 0c-16,-12 -32,-25 -47,-38l0 0c-16,-13 -31,-27 -46,-40l0 0 -46 -41 0 0c-15,-14 -30,-27 -45,-41l0 -1c-15,-14 -30,-28 -45,-42l0 0c-15,-15 -30,-29 -45,-44l0 0c-14,-15 -29,-29 -43,-44l0 0c-15,-15 -29,-31 -44,-46l0 0c-14,-15 -28,-31 -43,-46 -14,-16 -28,-32 -42,-47l0 0c-14,-16 -28,-32 -42,-48 -13,-17 -27,-33 -41,-49l0 0c-13,-17 -27,-33 -40,-50l0 0c-14,-16 -27,-33 -40,-50l0 0c-13,-17 -26,-34 -39,-51 -13,-17 -26,-34 -39,-52l0 0c-13,-17 -25,-34 -38,-52 -13,-17 -25,-35 -37,-53l0 0c-13,-18 -25,-36 -37,-53 -12,-18 -24,-36 -36,-55 -23,-36 -47,-72 -69,-109l0 0c-12,-19 -23,-37 -34,-56 -11,-19 -22,-37 -33,-56l-32 -57c-11,-19 -21,-38 -32,-57 -10,-19 -20,-38 -30,-57l0 0c-10,-19 -20,-39 -30,-58l0 0c-10,-19 -19,-39 -29,-58l0 0c-19,-39 -37,-78 -55,-117l0 0c-9,-20 -18,-40 -26,-59l0 0c-9,-20 -17,-40 -26,-59l0 0c-58,-139 -108,-279 -151,-419l0 0c-6,-20 -12,-40 -17,-60l0 0c-86,-301 -133,-602 -132,-887l0 0c0,-85 5,-167 13,-245l0 0c3,-26 6,-52 10,-77l0 0 4 -25 0 0 4 -25 0 0c3,-16 6,-32 9,-48l0 0 5 -24 0 0 5 -24 0 0 6 -23 0 0 6 -23 0 0 6 -23 0 0c4,-15 8,-30 13,-45l0 0 7 -22 0 0 7 -21 0 0 7 -22 0 0c5,-14 10,-28 16,-42l0 0 8 -20 9 -20 0 0 8 -20 0 0 9 -20 0 0 9 -19 10 -19 10 -19 10 -18 10 -18 10 -18 0 0 11 -17 11 -18 0 0 11 -17 0 0 12 -16 0 0 11 -16 12 -16 0 0 12 -16 0 0 13 -15 12 -15 0 0 13 -15 0 0 13 -15 0 0 13 -14 0 0 14 -13 0 0 13 -14 0 0 14 -13 0 0 14 -13 0 0 14 -12 0 0 15 -13 0 0 15 -11 0 0 15 -12 0 0 15 -11 0 0 15 -11 0 0 15 -11 1 0 15 -10 0 0 16 -10 0 0 16 -9z"/>
    <path class="fil21" d="M38224 39217c-1110,-641 -2187,-27 -2191,1488 -5,1514 1065,3367 2175,4008 0,-20 1,-279 1,-299 -968,-559 -1920,-2209 -1917,-3559 4,-1352 963,-1898 1931,-1340 0,-20 1,-278 1,-298z"/>
    <path class="fil15" d="M36974 38692c473,-275 1127,-237 1848,180 -215,125 -483,279 -598,345 -1110,-641 -2187,-27 -2191,1488 -5,1514 1065,3367 2175,4008 35,60 85,108 142,141 -73,-44 -169,-105 -240,-153 -50,-33 -114,-82 -162,-119 -161,-125 -290,-250 -359,-318 -36,-35 -168,-167 -330,-363 -96,-117 -216,-280 -302,-405 -88,-127 -313,-470 -512,-911 -31,-70 -114,-255 -195,-488 -100,-287 -146,-493 -148,-502 -52,-230 -122,-547 -121,-974 0,-109 5,-255 21,-363 9,-57 17,-133 30,-189 19,-88 49,-206 75,-293 33,-111 104,-265 133,-319 93,-174 167,-266 207,-316 206,-257 448,-402 527,-449z"/>
    <path class="fil21" d="M39490 37604c1605,-927 4153,-895 5692,0 1567,910 1558,2386 -19,3297 -1576,910 -4125,910 -5692,0 -1566,-911 -1558,-2387 19,-3297z"/>
    <path class="fil34" d="M39501 38529c555,-320 1229,-528 1939,-623 33,-4 66,-8 100,-12 737,-88 1508,-55 2218,99 524,113 1015,291 1435,536 1567,911 1558,2387 -18,3297 -904,522 -2127,744 -3300,668 -876,-57 -1724,-280 -2392,-668 -1567,-910 -1559,-2386 18,-3297z"/>
    <path class="fil35" d="M41874 42494c1174,76 2397,-146 3300,-668 1577,-910 1586,-2386 19,-3297 -420,-245 -911,-423 -1435,-536 -482,219 -1312,702 -1787,1577 -382,701 -534,1654 -97,2924z"/>
    <g>
     <path class="fil36" d="M40856 38226c-202,117 -203,306 -2,423 201,116 527,116 730,0 202,-117 203,-306 2,-423 -124,-72 -295,-99 -455,-83 -13,2 -26,3 -39,5 -86,13 -168,39 -236,78z"/>
     <path class="fil36" d="M41006 39139c-152,88 -153,231 -1,319 151,89 399,88 551,0 153,-88 154,-231 2,-319 -152,-89 -399,-89 -552,0z"/>
     <path class="fil36" d="M42200 39068c-63,37 -64,96 -1,132 63,37 165,37 228,0 63,-36 63,-95 1,-132 -63,-36 -165,-36 -228,0z"/>
     <path class="fil36" d="M40357 38885c-63,37 -64,96 -1,132 63,37 165,37 228,0 63,-36 64,-95 1,-132 -63,-36 -165,-36 -228,0z"/>
     <path class="fil36" d="M40487 38537c-32,18 -32,47 -1,65 31,18 82,18 113,0 31,-18 32,-47 1,-65 -32,-18 -82,-18 -113,0z"/>
    </g>
    <path class="fil16" d="M45163 40901c-1577,910 -4125,910 -5692,0 -1566,-911 -1558,-2387 19,-3297 554,-321 1229,-528 1939,-623 33,-5 66,-9 100,-13 1281,-152 2663,60 3653,636 1567,910 1558,2386 -19,3297zm-5841 -3395c-1671,964 -1680,2616 -20,3580 1659,965 4359,965 6030,0 1670,-964 1679,-2616 19,-3580 -1659,-965 -4359,-965 -6029,0z"/>
    <path class="fil37" d="M41396 49452c-97,-11 -195,-24 -296,-38 -548,-72 -1298,-340 -1776,-618 -489,-265 -1050,-796 -1188,-1356l-14 -62c-19,-109 -36,-204 -36,-315l-3 -802c-3,-1290 -7,-2580 -11,-3870 -3,-986 -6,-1972 -9,-2958l0 -169c2,301 92,578 253,835 154,248 379,484 675,698 96,70 200,137 311,201 665,387 1498,619 2364,695 1295,115 2665,-117 3666,-695 478,-276 820,-601 1025,-947 147,-247 225,-505 233,-764l22 7751c2,636 -418,1273 -1259,1758 -540,319 -1375,582 -1999,653 -180,25 -352,43 -520,54 -489,32 -941,7 -1438,-51z"/>
    <path class="fil38" d="M39059 41536c130,1191 367,2510 725,3825 388,1425 919,2845 1612,4091 -97,-11 -195,-24 -296,-38 -548,-72 -1298,-340 -1776,-618 -489,-265 -1050,-796 -1188,-1356l-14 -62c-19,-109 -36,-204 -36,-315l-3 -802 -4 -1582 0 -47 -1 -297 0 -3 -3 -853 0 -2 0 -162 -12 -3794 0 -1 0 -87 0 -169c0,58 4,116 11,174 4,30 8,60 14,90 0,1 0,2 0,2 37,193 113,385 228,569 154,248 379,484 675,698 18,240 41,487 68,739z"/>
   </g>
   <g id="_1759732965184">
    <path class="fil30" d="M50604 45751c-104,-14 -156,-284 -115,-604 40,-320 157,-568 261,-555 104,13 156,283 116,603 -41,320 -158,569 -262,556z"/>
    <path class="fil17" d="M55856 47877c213,-332 -627,-1249 -1876,-2047 -1249,-798 -2433,-1175 -2646,-842 -212,332 628,1249 1877,2047 1248,798 2433,1175 2645,842z"/>
    <path class="fil30" d="M54827 42220c975,1285 1167,3043 814,4618 -43,194 -119,414 -307,479 -187,65 -395,-72 -483,-250 -87,-178 -87,-384 -92,-583 -26,-923 -227,-1773 -581,-2626 -387,565 -978,964 -1607,1235 -491,211 -1062,348 -1551,132 -131,-57 -256,-145 -315,-276 -58,-130 -26,-307 98,-378 73,-41 162,-40 247,-46 410,-28 783,-252 1086,-530 303,-278 549,-611 823,-916 198,-220 411,-425 636,-615 331,-278 807,-259 1238,-254l-6 10z"/>
    <path class="fil39" d="M52236 42394c20,126 40,252 60,378 11,68 21,138 3,204 -3,10 -7,21 -17,24 -12,5 -25,-5 -34,-14 -38,-38 -55,-82 -82,-128 -26,98 -52,196 -78,294 -5,18 -10,38 -24,50 -14,13 -39,16 -50,0 -5,-7 -6,-17 -6,-27 -3,-73 28,-176 38,-249 -55,89 -118,297 -175,292 -65,-48 -1,-213 31,-312 -28,34 -74,92 -107,122 -11,9 -25,20 -39,15 -20,-6 -20,-34 -16,-55 13,-56 47,-124 73,-175 -38,41 -146,128 -182,111 -13,-27 33,-79 49,-104 99,-157 212,-304 337,-441 77,-23 140,-22 219,-13l0 28z"/>
    <path class="fil4" d="M53980 39659c-12,-90 -145,-83 -228,-46 -432,199 -786,541 -1066,926 -280,385 -491,815 -700,1242 -55,114 -112,230 -125,355 -13,126 26,264 128,338 125,90 305,56 431,-32 125,-89 211,-221 304,-344 207,-272 463,-507 751,-690 213,-136 461,-262 552,-497 30,-76 40,-159 47,-241 28,-363 -18,-733 -134,-1079l40 68z"/>
    <path class="fil39" d="M56274 42158c126,-17 252,-33 379,-50 68,-9 138,-18 204,3 9,3 20,7 23,17 5,12 -5,25 -14,34 -39,37 -84,53 -131,78 97,29 195,57 292,86 18,5 37,11 50,25 12,15 14,40 -2,50 -8,5 -18,6 -27,6 -73,1 -175,-33 -248,-45 87,57 293,126 287,183 -50,64 -213,-5 -311,-40 33,29 90,77 119,110 9,12 19,26 14,40 -7,20 -35,19 -55,14 -56,-14 -123,-49 -174,-77 40,39 125,149 107,185 -28,12 -78,-36 -103,-52 -154,-103 -299,-220 -432,-349 -20,-77 -18,-140 -7,-219l29 1z"/>
    <path class="fil4" d="M54551 39598c394,43 689,385 867,739 177,355 282,749 513,1070 168,233 401,426 506,693 37,94 52,212 -15,288 -81,90 -227,67 -342,28 -974,-333 -1685,-1323 -1687,-2353 0,-93 5,-189 47,-272 41,-83 126,-151 218,-146 -11,-33 -22,-67 -34,-100l-73 53z"/>
    <path class="fil4" d="M54399 39520c-567,-35 -1130,378 -1267,929 -87,348 -18,716 -77,1069 -27,161 -80,319 -79,483 2,253 137,493 323,665 367,338 944,427 1396,215 452,-211 752,-711 727,-1210 -13,-251 -99,-492 -147,-739 -60,-309 -60,-631 -178,-922 -117,-291 -405,-550 -714,-495 -29,5 -62,11 -84,-8 -21,-20 5,-68 27,-50l73 63z"/>
    <path class="fil39" d="M54999 38981c0,450 -264,814 -590,814 -325,0 -590,-364 -590,-814 0,-449 265,-814 590,-814 326,0 590,365 590,814z"/>
    <path class="fil40" d="M52992 41779c0,0 58,-73 159,-172 99,-100 241,-222 372,-354 132,-131 243,-281 294,-409 28,-62 44,-117 51,-156 8,-40 13,-62 13,-62l43 7c0,0 -5,23 -14,64 -9,41 -27,98 -56,163 -56,133 -174,285 -309,416 -134,131 -278,250 -378,347 -101,96 -160,169 -160,169l-15 -13z"/>
    <path class="fil36" d="M53892 39408c-168,-110 -314,-268 -387,-455 -74,-186 -42,-426 116,-549 -27,-58 -22,-134 11,-187 82,-132 361,-306 505,-334 72,-14 146,-11 219,-5 216,18 429,65 632,139 117,43 202,147 209,271 6,97 -9,190 -69,263 -68,82 -178,117 -282,141 -295,68 -601,86 -902,55 57,217 43,436 -28,649 -8,-4 -40,-35 -41,-44l17 56z"/>
    <path class="fil39" d="M53938 38964c63,76 83,183 45,240 -39,57 -120,42 -183,-33 -63,-76 -82,-183 -44,-240 38,-57 119,-42 182,33z"/>
    <path class="fil30" d="M55878 47856c-57,88 -323,16 -592,-161 -270,-177 -443,-391 -385,-479 57,-88 323,-16 593,161 269,177 442,391 384,479z"/>
   </g>
   <g id="_1759732958528">
    <path class="fil17" d="M64583 37491c-726,-886 -2428,-1119 -3465,-1079 -923,26 -2148,280 -2840,957 -652,658 -431,1478 658,2027 705,360 1573,502 2360,513 926,13 2111,-172 2892,-719 719,-497 850,-1144 395,-1699z"/>
    <g>
     <path class="fil41" d="M59081 31219l1 -422c0,133 87,266 261,367l-1 422c-174,-101 -262,-234 -261,-367z"/>
     <path class="fil41" d="M59343 31164l-1 422 -8 -5 0 0 -8 -5 0 0 -8 -5 0 0 -8 -5 0 0c-153,-98 -230,-222 -229,-347l1 -416c2,131 89,261 261,361z"/>
     <path class="fil42" d="M63068 31810c-80,64 -170,126 -268,183 -32,19 -65,37 -97,52 -200,106 -419,191 -653,255 -104,29 -211,53 -321,74 -292,56 -599,80 -904,75 -105,-2 -209,-7 -313,-16 -21,-2 -40,-3 -61,-5 -355,-35 -699,-111 -1011,-227 -83,-29 -163,-62 -239,-99 -45,-22 -88,-45 -132,-69 -3,-2 -8,-3 -12,-7 -22,-10 -41,-21 -62,-33 -845,-488 -1017,-1217 -511,-1803 73,-81 156,-161 255,-235 8,-7 17,-14 26,-21 34,-26 72,-52 110,-78 35,-22 72,-45 108,-66 301,-173 654,-297 1032,-372 118,-22 237,-41 358,-54 104,-12 208,-20 314,-24 429,-19 866,23 1267,123 106,26 208,57 309,90 185,66 362,144 523,237 123,71 232,149 327,229 106,90 192,184 262,281 353,493 251,1068 -307,1510z"/>
     <path class="fil22" d="M63795 30900l-20 7204 0 26c0,19 -6,40 -7,59 -2,31 -6,61 -11,92 0,5 0,10 -1,16 -4,19 -13,38 -18,59 -7,29 -14,57 -24,86 -2,5 -4,12 -5,17 -7,20 -18,37 -24,54 -14,30 -26,61 -44,90 -3,7 -5,16 -10,23 -7,14 -19,27 -28,41 -21,35 -43,68 -69,102 -7,9 -12,19 -19,30 -18,22 -38,43 -57,66 -6,7 -12,15 -19,22 -33,37 -68,71 -104,106 -6,5 -12,8 -18,14 -27,26 -59,50 -90,74 -26,21 -52,43 -81,64 -33,24 -69,47 -104,69 -26,18 -48,35 -74,51 -13,7 -25,14 -37,20 -86,51 -178,96 -273,139 -28,12 -56,24 -84,36 -74,30 -150,59 -228,85 -17,7 -33,14 -50,21 -7,2 -14,3 -21,5 -5,2 -9,2 -12,4 -49,15 -99,29 -149,43 -38,10 -76,21 -114,29 -54,14 -108,25 -161,35 -32,7 -63,16 -94,21 -5,0 -10,2 -16,2 -109,19 -220,34 -330,46 -9,0 -16,2 -25,4 -26,1 -53,1 -79,5 -66,5 -130,10 -196,12 -16,2 -31,4 -47,4 -26,1 -53,0 -79,0 -54,1 -106,1 -160,1 -19,-1 -39,0 -59,0 -24,-1 -48,-3 -74,-3 -49,-4 -99,-5 -147,-9 -21,-2 -44,-2 -64,-3 -25,-2 -47,-6 -70,-7 -48,-5 -97,-11 -145,-18 -23,-3 -47,-3 -68,-6 -20,-4 -41,-9 -62,-11 -52,-9 -104,-17 -154,-28 -24,-5 -49,-6 -73,-12 -15,-3 -31,-8 -48,-12 -61,-14 -120,-28 -180,-45 -25,-5 -51,-10 -75,-17 -8,-4 -15,-7 -24,-9 -107,-31 -211,-66 -312,-105 -5,-2 -12,-4 -17,-6 -45,-17 -87,-38 -132,-57 -24,-10 -50,-21 -74,-33 -73,-34 -144,-71 -213,-111 -572,-330 -857,-763 -857,-1198l20 -7199c0,433 286,864 858,1193 69,40 140,77 213,113 24,10 50,21 74,31 49,23 97,44 147,63 102,39 206,74 312,105 33,11 68,19 100,28 59,16 120,31 181,43 39,9 79,18 121,24 50,11 102,20 154,28 43,7 85,12 130,17 46,7 95,13 145,18 44,3 89,7 134,10 48,4 98,7 147,9 45,2 88,3 133,3 54,0 106,0 159,-1 42,0 83,-2 125,-4 66,-2 132,-7 198,-12 34,-3 69,-5 103,-9 111,-12 222,-27 329,-46 39,-6 75,-14 111,-23 54,-10 108,-21 160,-33 39,-10 76,-21 114,-31 50,-14 100,-28 151,-43 27,-9 55,-19 83,-28 78,-28 154,-55 228,-87 28,-12 56,-24 83,-36 94,-42 187,-88 274,-139 40,-22 74,-46 111,-71 22,-13 45,-29 67,-45 12,-6 25,-15 37,-24 29,-21 53,-43 81,-64 30,-24 61,-48 88,-73 45,-39 85,-79 123,-121 7,-7 12,-14 19,-22 28,-31 52,-63 77,-96 26,-32 48,-67 69,-100 12,-23 26,-43 38,-66 16,-29 29,-59 43,-90 11,-24 21,-47 30,-71 10,-28 17,-57 24,-86 7,-25 14,-51 19,-75 5,-29 7,-61 10,-92 4,-27 7,-55 7,-85z"/>
     <path class="fil43" d="M58995 31994c1054,608 2757,608 3804,0 1047,-609 1041,-1595 -13,-2203 -1054,-609 -2756,-609 -3803,0 -1047,608 -1042,1594 12,2203zm3943 -2292c1138,658 1144,1723 14,2380 -1131,657 -2971,657 -4109,0 -1139,-657 -1144,-1722 -13,-2380 1130,-657 2969,-657 4108,0z"/>
     <path class="fil21" d="M59201 32102c-45,-22 -88,-45 -132,-69l-304 -2099 -993 -6851 130 54 973 6719 326 2246z"/>
     <polygon class="fil12" points="57903,23137 57772,23084 58851,22238 58982,22291 "/>
     <path class="fil6" d="M60451 32428c-446,-43 -879,-153 -1250,-326l-326 -2246 -973 -6719 1081 -845 1032 7126 436 3010z"/>
     <path class="fil34" d="M64088 26779l-713 3521 -307 1510c-80,64 -170,126 -268,183 -32,19 -65,37 -97,52l410 -2026 670 -3304c0,5 4,12 12,17 7,9 19,16 33,23l2 0c14,5 31,12 48,17 20,5 39,10 58,14l1 0c19,5 40,7 59,9l38 0c11,0 21,-2 28,-4l2 0c7,-2 14,-5 17,-7 2,-2 5,-3 7,-5z"/>
     <path class="fil16" d="M64078 26751c33,29 -4,48 -82,43 -78,-5 -168,-32 -201,-61 -33,-29 3,-48 81,-43 78,5 169,33 202,61z"/>
     <path class="fil34" d="M62434 27312l-52 684 -119 1557 -213 2747c-104,29 -211,53 -321,74l225 -2911 168 -2178c0,7 4,14 14,20 7,4 16,9 25,13 3,1 6,1 12,3 1,2 5,2 8,3 4,0 7,2 9,2 3,2 7,2 10,4 2,0 6,0 7,1 4,0 7,0 9,2 3,0 7,0 9,2l8 0c4,2 7,2 9,2 3,0 7,1 9,1l8 0c4,2 7,2 11,2l8 0c2,0 6,2 9,2l57 0c9,-2 17,-2 24,-4 6,0 11,0 16,-1 3,0 7,-2 10,-2 4,-2 6,-2 9,-2 2,-2 3,-2 5,-3 4,0 5,0 7,-2 0,0 2,-2 4,-2 1,0 3,-2 3,-2 2,-1 4,-1 4,-3 1,0 1,0 3,-2l2 -1c1,-2 1,-2 1,-4 2,0 2,-2 2,-2z"/>
     <path class="fil16" d="M62420 27289c37,24 3,48 -76,52 -78,5 -171,-11 -207,-36 -36,-24 -2,-48 76,-52 78,-5 171,11 207,36z"/>
     <path class="fil34" d="M60825 32449c-105,-2 -209,-7 -313,-16l-139 -3069 -142 -3179c0,7 6,14 18,19 7,4 15,7 24,9 3,1 9,1 12,3 4,0 7,0 11,2 3,0 5,0 8,2l9 0c3,0 7,1 8,1l18 0c3,0 7,2 10,2l35 0c3,-2 5,-2 9,-2l19 0c3,-1 8,-1 12,-1 12,-2 24,-4 34,-6 9,-1 18,-3 25,-5 5,-1 10,-3 15,-3 4,-2 7,-4 11,-4 1,-1 5,-3 6,-3 2,-2 4,-2 7,-4 2,0 4,-1 4,-1 2,-2 3,-2 5,-4 2,0 2,-2 3,-2l4 -3 2 -2c1,-2 1,-2 1,-3 2,0 2,-2 2,-2 0,-2 2,-2 2,-3l142 3165 138 3109z"/>
     <path class="fil16" d="M60528 26153c39,20 8,47 -69,61 -77,14 -171,10 -210,-10 -39,-20 -9,-47 69,-61 77,-14 171,-10 210,10z"/>
     <path class="fil34" d="M59440 32201c-83,-29 -163,-62 -239,-99 -45,-22 -88,-45 -132,-69 -3,-2 -8,-3 -12,-7l-573 -1836 -656 -2105c2,7 8,10 21,14 7,1 15,1 26,1l13 0c16,-1 35,-3 52,-7l57 -15c21,-7 40,-14 58,-23 12,-5 22,-12 31,-17 2,0 2,0 2,-2 10,-5 17,-10 22,-15l2 0c5,-6 10,-11 12,-16 2,-3 3,-7 3,-9l612 1959 701 2246z"/>
     <path class="fil16" d="M58105 27978c43,9 20,44 -51,77 -71,33 -163,53 -206,44 -43,-10 -20,-44 51,-77 71,-34 163,-53 206,-44z"/>
     <path class="fil44" d="M63795 30900l-20 7204 0 26c0,19 -6,40 -7,59 -2,31 -6,61 -11,92 0,5 0,10 -1,16 -4,19 -13,38 -18,59 -7,29 -14,57 -24,86 -2,5 -4,12 -5,17 -7,20 -18,37 -24,54 -14,30 -26,61 -44,90 -3,7 -5,16 -10,23 -7,14 -19,27 -28,41 -21,35 -43,68 -69,102 -7,9 -12,19 -19,30 -18,22 -38,43 -57,66 -6,7 -12,15 -19,22 -33,37 -68,71 -104,106 -6,5 -12,8 -18,14 -27,26 -59,50 -90,74 -26,21 -52,43 -81,64 -33,24 -69,47 -104,69 -26,18 -48,35 -74,51 -13,7 -25,14 -37,20 -86,51 -178,96 -273,139 -28,12 -56,24 -84,36 -74,30 -150,59 -228,85 -17,7 -33,14 -50,21 -7,2 -14,3 -21,5 706,-2604 883,-5339 855,-7606 12,-6 25,-15 37,-24 29,-21 53,-43 81,-64 30,-24 61,-48 88,-73 45,-39 85,-79 123,-121 7,-7 12,-14 19,-22 28,-31 52,-63 77,-96 26,-32 48,-67 69,-100 12,-23 26,-43 38,-66 16,-29 29,-59 43,-90 11,-24 21,-47 30,-71 10,-28 17,-57 24,-86 7,-25 14,-51 19,-75 5,-29 7,-61 10,-92 4,-27 7,-55 7,-85z"/>
    </g>
   </g>
  </g>
 </g>
</svg>
