<?xml version="1.0" encoding="UTF-8"?>
<!DOCTYPE svg PUBLIC "-//W3C//DTD SVG 1.1//EN" "http://www.w3.org/Graphics/SVG/1.1/DTD/svg11.dtd">
<!-- Creator: CorelDRAW X7 -->
<svg xmlns="http://www.w3.org/2000/svg" xml:space="preserve" width="15.5685in" height="14.102in" version="1.1" style="shape-rendering:geometricPrecision; text-rendering:geometricPrecision; image-rendering:optimizeQuality; fill-rule:evenodd; clip-rule:evenodd"
viewBox="0 0 155685 141020"
 xmlns:xlink="http://www.w3.org/1999/xlink">
 <defs>
  <style type="text/css">
   <![CDATA[
    .fil0 {fill:#F7F2E6;fill-rule:nonzero}
   ]]>
  </style>
 </defs>
 <g id="Layer_x0020_1">
  <metadata id="CorelCorpID_0Corel-Layer"/>
  <path class="fil0" d="M155685 118891l-15944 18731 -15256 -20018 16238 0 14962 0 0 -2621 -13653 0 0 -96538 13653 0 0 -2621 -32535 0 0 -3918c0,-4875 3968,-8844 8847,-8844l17475 0c2420,0 4616,980 6213,2564l0 -3346c-1791,-1162 -3924,-1838 -6213,-1838l-17475 0c-6323,0 -11468,5145 -11468,11464l0 104387c0,310 111,612 312,848l17802 23362c239,316 610,505 1005,515 12,2 24,2 37,2 382,0 746,-169 997,-463l15003 -17625 0 -4041zm-44234 6360l419 -100471c42,-13648 -11153,-24780 -24779,-24780l-85741 0c-725,0 -1311,586 -1311,1309l0 109700c0,170 29,297 82,457 3614,9689 3658,18921 135,27440 -161,218 -256,486 -256,778 0,723 586,1310 1309,1310 32436,0 62059,0 94495,0 8628,0 15649,-7015 15649,-15637 0,-35 -1,-70 -2,-106zm-108792 -15554l0 -107078 84432 0c1501,0 2981,150 4422,443l0 106635 -88854 0zm91472 0l0 -105932c8964,3016 15150,11494 15120,21007l-388 91966c-2803,-4239 -7610,-7041 -13059,-7041l-1673 0zm1673 2621c7184,0 13028,5848 13028,13039 0,7178 -5844,13016 -13028,13016l-92533 0c1380,-3789 2115,-7697 2208,-11706l93599 0c723,0 1309,-586 1309,-1310 0,-725 -586,-1311 -1309,-1311l-93629 0c-176,-3828 -926,-7743 -2250,-11728l89623 0 2982 0zm-74880 -36822l54227 0c723,0 1309,-586 1309,-1310 0,-725 -586,-1311 -1309,-1311l-54227 0c-723,0 -1309,586 -1309,1311 0,724 586,1310 1309,1310zm7048 -15111c724,0 1310,-586 1310,-1309l0 -21383c0,-723 -586,-1310 -1310,-1310 -722,0 -1309,587 -1309,1310l0 21383c0,723 587,1309 1309,1309zm13376 0c723,0 1309,-586 1309,-1309l0 -16432c0,-723 -586,-1309 -1309,-1309 -723,0 -1309,586 -1309,1309l0 16432c0,723 586,1309 1309,1309zm13385 0c723,0 1309,-586 1309,-1309l0 -12788c0,-723 -586,-1309 -1309,-1309 -723,0 -1309,586 -1309,1309l0 12788c0,723 586,1309 1309,1309zm13385 0c723,0 1309,-586 1309,-1309l0 -6277c0,-723 -586,-1309 -1309,-1309 -723,0 -1310,586 -1310,1309l0 6277c0,723 587,1309 1310,1309zm-47194 5863l54227 0c723,0 1309,-587 1309,-1309 0,-726 -586,-1312 -1309,-1312l-54227 0c-723,0 -1309,586 -1309,1312 0,722 586,1309 1309,1309zm118489 -47803l0 96538 -16263 0 0 -96538 16263 0z"/>
 </g>
</svg>
