<?xml version="1.0" encoding="UTF-8"?>
<!DOCTYPE svg PUBLIC "-//W3C//DTD SVG 1.1//EN" "http://www.w3.org/Graphics/SVG/1.1/DTD/svg11.dtd">
<!-- Creator: CorelDRAW X7 -->
<svg xmlns="http://www.w3.org/2000/svg" xml:space="preserve" width="1.1811in" height="1.1811in" version="1.1" style="shape-rendering:geometricPrecision; text-rendering:geometricPrecision; image-rendering:optimizeQuality; fill-rule:evenodd; clip-rule:evenodd"
viewBox="0 0 11811 11811"
 xmlns:xlink="http://www.w3.org/1999/xlink">
 <defs>
  <style type="text/css">
   <![CDATA[
    .fil0 {fill:none}
    .fil1 {fill:black}
   ]]>
  </style>
 </defs>
 <g id="Layer_x0020_1">
  <metadata id="CorelCorpID_0Corel-Layer"/>
  <g id="_1760392146240">
   <polygon class="fil0" points="0,11811 11811,11811 11811,0 0,0 "/>
   <path class="fil1" d="M7957 2560c-943,0 -1749,531 -2051,1272 -303,-741 -1108,-1272 -2052,-1272 -1284,0 -2052,1108 -2052,2180 0,1101 684,2276 2030,3493 992,896 1999,1484 2009,1490l65 37 64 -37c10,-6 1016,-594 2009,-1490 1347,-1217 2030,-2392 2030,-3493 0,-1072 -768,-2180 -2052,-2180zm-2051 6902c-509,-310 -3847,-2437 -3847,-4722 0,-946 671,-1924 1795,-1924 925,0 1924,638 1924,1667l255 0c0,-1029 999,-1667 1924,-1667 1124,0 1796,978 1796,1924 0,2284 -3339,4412 -3847,4722z"/>
  </g>
 </g>
</svg>
