<?xml version="1.0" encoding="UTF-8"?>
<!DOCTYPE svg PUBLIC "-//W3C//DTD SVG 1.1//EN" "http://www.w3.org/Graphics/SVG/1.1/DTD/svg11.dtd">
<!-- Creator: CorelDRAW X7 -->
<svg xmlns="http://www.w3.org/2000/svg" xml:space="preserve" width="8.85827in" height="6.54594in" version="1.1" style="shape-rendering:geometricPrecision; text-rendering:geometricPrecision; image-rendering:optimizeQuality; fill-rule:evenodd; clip-rule:evenodd"
viewBox="0 0 88583 65459"
 xmlns:xlink="http://www.w3.org/1999/xlink">
 <defs>
  <style type="text/css">
   <![CDATA[
    .fil20 {fill:#B9C2D8}
    .fil0 {fill:#D2AE6D}
    .fil14 {fill:#E6D3B3}
    .fil21 {fill:#E9D9BA}
    .fil9 {fill:#EFE6D6}
    .fil15 {fill:#F1F4FA}
    .fil16 {fill:#F7F0E3}
    .fil18 {fill:#FBF8F2}
    .fil17 {fill:#FCFBFB}
    .fil1 {fill:white}
    .fil19 {fill:white}
    .fil13 {fill:#657AA9;fill-rule:nonzero}
    .fil12 {fill:#9598C9;fill-rule:nonzero}
    .fil10 {fill:#B7C5E4;fill-rule:nonzero}
    .fil11 {fill:#D3D0E7;fill-rule:nonzero}
    .fil5 {fill:#D7B77D;fill-rule:nonzero}
    .fil7 {fill:#DFC596;fill-rule:nonzero}
    .fil4 {fill:#E2CBA1;fill-rule:nonzero}
    .fil6 {fill:#E8D5B3;fill-rule:nonzero}
    .fil8 {fill:#EBDBBD;fill-rule:nonzero}
    .fil3 {fill:#EDE2CC;fill-rule:nonzero}
    .fil2 {fill:#F7F0E3;fill-rule:nonzero}
   ]]>
  </style>
 </defs>
 <g id="Layer_x0020_1">
  <metadata id="CorelCorpID_0Corel-Layer"/>
  <g id="_1759460289184">
   <g>
    <g>
     <path class="fil0" d="M37235 10866c0,-3297 -2674,-5971 -5971,-5971 -3298,0 -5972,2674 -5972,5971 0,3298 2674,5972 5972,5972 3297,0 5971,-2674 5971,-5972z"/>
     <path class="fil1" d="M32389 12557l0 1125 -4506 0 0 -1125 4506 0zm-4506 -4508c2253,0 4508,0 6761,0l-1127 1127c-1878,0 -3756,0 -5634,0l0 -1127zm6761 5633l-1127 0 0 -2253 -5634 0 0 -1127c2253,0 4506,0 6761,0 0,0 0,3099 0,3380z"/>
    </g>
    <g>
     <path class="fil2" d="M0 59981c1803,147 11039,3296 11382,2791 1678,-2472 6292,-2476 7874,-4164 4476,-4776 -10675,362 7378,-6055 2002,-711 8269,-1390 8864,-3168 547,-1647 3376,1108 3171,-597 -202,-1702 5091,-1996 6704,-3013 1664,-1052 3988,-641 5991,-184 3291,752 10286,3707 12538,-76 1549,-2599 -1876,-5251 -2939,-8026 -1127,-2952 691,-6292 3572,-8192 2881,-1900 6599,-2608 10221,-2920 2744,-236 5554,-285 8154,-1061 2604,-775 5038,-2474 5560,-4782 1056,-4660 -5642,-7953 -6913,-12572 -793,-2877 755,-5937 3315,-7962l-16452 0c1788,4925 752,11482 -6247,12260 -7176,875 -15378,-4954 -20846,583 -4101,4080 1025,10783 -5468,13697 -5955,2429 -11910,843 -17865,58 -2674,-352 -6721,-874 -9044,518 -3334,1997 -1945,9017 -8950,7568l0 25297z"/>
     <path class="fil3" d="M0 60749c33651,12705 27724,-3781 34349,-8669 463,-341 1033,-672 1665,-988 2731,-1363 6613,-2439 7900,-2802 4910,-1385 10362,-1700 13538,-1130 6013,1080 8390,-1848 5628,-6125 -751,-1162 -1656,-2343 -2117,-3546 -1127,-2952 691,-6292 3572,-8192 2881,-1900 6599,-2608 10221,-2920 2744,-236 5554,-285 8154,-1061 2604,-775 5038,-2474 5560,-4782 1056,-4660 -5642,-7953 -6913,-12572 -793,-2877 755,-5936 3315,-7962l-9244 0c-451,2914 -229,6038 307,7740 984,3113 3383,6164 2468,9294 -1026,3509 -5834,5240 -10075,5225 -4241,-14 -8383,-1224 -12624,-1221 -3339,3 -7054,1035 -8496,3602 -2467,4389 3226,9244 2642,14085 -560,4648 -6729,7370 -12207,7458 -5478,87 -10823,-1554 -16301,-1641 -3259,-51 -9868,1212 -10386,4367 -298,1811 2479,3007 3877,4314 2643,2471 2851,5874 -1907,6183 -4291,278 -10856,-2395 -12926,-3530l0 4873z"/>
    </g>
    <g>
     <path class="fil2" d="M30171 0l-30171 0 0 16213c2247,2112 5271,3166 8496,3398 12344,889 21380,-7358 21675,-19611z"/>
     <path class="fil3" d="M13256 14426c3235,-1006 5813,-3670 7110,-6799 851,-2052 1548,-5075 1111,-7627l-8665 0c-238,1261 -692,2451 -1474,3489 -1872,2486 -5213,3451 -8323,3391 -1010,-19 -2046,-144 -3015,-433l0 5581c1427,1028 3148,1683 4862,2150 2739,745 5685,1092 8394,248z"/>
    </g>
    <g>
     <path class="fil4" d="M84934 8496c-600,-521 -665,-1420 -144,-2020 517,-597 1415,-661 2016,-140 596,516 661,1415 144,2011 -521,601 -1419,665 -2016,149z"/>
     <path class="fil5" d="M85906 5981c320,15 639,129 900,355 596,516 661,1415 144,2011 -291,336 -698,502 -1104,498 0,0 1017,-550 951,-1481 -68,-940 -891,-1383 -891,-1383z"/>
     <path class="fil5" d="M84942 7671c-81,92 -226,-34 -146,-127 84,-97 230,29 146,127z"/>
     <path class="fil5" d="M85553 8286c-84,97 -230,-30 -145,-127 80,-92 226,34 145,127z"/>
     <path class="fil5" d="M85498 6475c7,28 9,61 7,90 8,54 -34,102 -92,106 -49,4 -98,-38 -102,-88 -2,-33 -4,-66 -2,-95 -8,-53 34,-102 88,-101 53,-8 102,34 101,88z"/>
    </g>
    <g>
     <path class="fil6" d="M16432 34199c1416,1226 1570,3378 343,4793 -1226,1415 -3371,1562 -4786,336 -1415,-1226 -1568,-3364 -342,-4780 1226,-1415 3370,-1575 4785,-349z"/>
     <g>
      <path class="fil7" d="M14119 40152c-759,-16 -1509,-286 -2130,-824 -1415,-1226 -1568,-3364 -342,-4780 687,-793 1657,-1186 2627,-1171 0,0 -2415,1290 -2256,3512 159,2222 2101,3263 2101,3263z"/>
      <path class="fil7" d="M13172 35104c4,56 8,112 12,168 6,84 88,155 172,149 90,-13 155,-88 156,-180 -4,-56 -15,-104 -11,-153 -14,-91 -96,-162 -180,-156 -84,6 -155,88 -149,172z"/>
      <path class="fil7" d="M16712 36979c143,-165 -112,-386 -254,-221 -137,157 118,378 254,221z"/>
      <path class="fil7" d="M13458 36846c182,-209 -155,-501 -337,-292 -188,218 149,510 337,292z"/>
     </g>
     <g>
      <path class="fil7" d="M13437 37733l78 -90c91,-105 -74,-248 -165,-143l-77 90c-91,105 73,248 164,143z"/>
      <path class="fil7" d="M15293 36300c325,-374 -259,-880 -584,-506 -324,374 260,880 584,506z"/>
     </g>
    </g>
    <path class="fil8" d="M70429 51228c529,17 954,452 957,990l8 0c5,-538 429,-973 957,-990 -531,-17 -957,-456 -957,-997l-7 0c0,541 -426,980 -958,997z"/>
    <path class="fil8" d="M22467 20741c501,17 903,428 905,937l8 0c4,-509 406,-920 906,-937 -503,-16 -906,-431 -906,-943l-6 0c0,512 -403,927 -907,943z"/>
    <path class="fil8" d="M46190 5310c820,27 1477,700 1482,1533l13 0c7,-833 664,-1506 1482,-1533 -822,-27 -1482,-707 -1482,-1545l-11 0c0,838 -660,1518 -1484,1545z"/>
   </g>
   <g>
    <path class="fil9" d="M57452 47160c-3176,-571 -8628,-255 -13538,1130 -1287,363 -5169,1439 -7900,2802 -221,111 -435,223 -639,337l2024 11461c389,-788 7953,-1483 16580,-1483 8627,0 15422,765 16580,1483l-43 -107 -12323 -15505c-238,-33 -476,-71 -715,-113 -9,-2 -17,-3 -26,-5z"/>
    <path class="fil10" d="M37687 20368c802,1977 -257,4273 -2365,5128 -2109,855 -4468,-55 -5269,-2032 -802,-1977 257,-4273 2365,-5128 2108,-855 4467,55 5269,2032z"/>
    <path class="fil11" d="M47599 19631c631,1557 -4492,5104 -11443,7923 -6951,2819 -13097,3842 -13729,2285 -631,-1557 4126,-6007 11077,-8826 6950,-2819 13463,-2939 14095,-1382z"/>
    <path class="fil12" d="M47599 19631c631,1557 -4492,5104 -11443,7923 -6951,2819 -13097,3842 -13729,2285 -631,-1557 4492,-5104 11443,-7923 6951,-2818 13097,-3842 13729,-2285z"/>
    <path class="fil13" d="M45646 21251c472,1164 -3777,3986 -9490,6303 -5713,2317 -10728,3251 -11200,2087 -472,-1164 3777,-3986 9490,-6303 5714,-2317 10728,-3251 11200,-2087z"/>
    <ellipse class="fil14" cx="53979" cy="62890" rx="16580" ry="1484"/>
    <path class="fil15" d="M34486 19296c302,169 755,110 870,-259 95,-307 -122,-512 -388,-638 -166,-78 -351,-125 -492,-147 -215,-34 -583,-93 -794,-16 -239,86 -359,338 -191,553 177,212 508,229 735,340 -298,-11 -398,242 -96,362 101,50 286,107 389,35 93,-68 72,-171 -33,-230z"/>
    <path class="fil15" d="M35074 19746c54,-104 -65,-176 -163,-174 -251,6 76,330 163,174z"/>
    <path class="fil16" d="M57478 47165c6,1 13,2 19,3 -6,-1 -13,-2 -19,-3zm-7628 -8440c-560,4648 -6729,7370 -12207,7458 -1077,17 -2148,-33 -3216,-124l684 3873 264 1497c204,-114 418,-226 639,-337 2731,-1363 6613,-2439 7900,-2802 4910,-1385 10362,-1700 13538,-1130 3,1 5,1 7,1 6,1 13,3 19,4 15,2 30,5 45,8 228,40 450,74 668,102l-8429 -10604c128,684 171,1369 88,2054z"/>
    <path class="fil17" d="M37643 46183c5478,-88 11647,-2810 12207,-7458 83,-685 40,-1370 -88,-2054l-8942 -11250c-1341,692 -2828,1380 -4414,2031 -83,34 -166,68 -250,102 -84,34 -169,68 -253,102 -6,2 -13,5 -19,8 -1536,614 -3029,1140 -4429,1568l2972 16827c1068,91 2139,141 3216,124z"/>
    <g>
     <path class="fil18" d="M32857 28376c608,-246 1064,-533 1021,-641 -44,-107 -572,5 -1179,251 -607,246 -1064,533 -1020,641 43,108 571,-5 1178,-251z"/>
     <path class="fil18" d="M34944 27530c44,107 571,-5 1178,-251 608,-246 1064,-533 1021,-641 -44,-107 -571,5 -1179,251 -607,246 -1064,533 -1020,641z"/>
     <path class="fil18" d="M37791 26148c43,108 571,-4 1178,-251 608,-246 1064,-533 1021,-640 -44,-108 -572,4 -1179,251 -607,246 -1064,533 -1020,640z"/>
    </g>
    <path class="fil19" d="M38117 25171c-679,352 -1532,743 -2472,1124 -2362,958 -4376,1489 -4499,1187 -123,-303 1693,-1324 4055,-2282 622,-253 1220,-475 1766,-661 27,-9 54,-19 81,-28 220,-74 432,-142 632,-203 216,-66 420,-124 608,-174 816,-215 1352,-273 1413,-121 1,3 3,6 3,10 21,82 -86,211 -297,374 -266,206 -699,466 -1251,754 -13,6 -26,13 -39,20z"/>
    <path class="fil20" d="M38969 25897c-607,247 -1135,359 -1178,251 -44,-107 413,-394 1020,-640 607,-247 1135,-359 1179,-251 43,107 -413,394 -1021,640zm-2563 1555c1612,-663 3103,-1364 4396,-2054l-1101 -1385c-89,360 -1828,1379 -4055,2282 -2172,881 -4116,1344 -4500,1187l304 1723c1368,-399 2872,-918 4434,-1541 6,-3 13,-6 19,-8l253 -102 250 -102zm-442 -563c608,-246 1135,-358 1179,-251 43,108 -413,395 -1021,641 -607,246 -1134,358 -1178,251 -44,-108 413,-395 1020,-641zm-2086 846c43,108 -413,395 -1021,641 -607,246 -1135,359 -1178,251 -44,-108 413,-395 1020,-641 607,-246 1135,-358 1179,-251z"/>
    <path class="fil21" d="M40662 24517c44,107 571,-5 1179,-251 607,-247 1064,-534 1020,-641 -44,-108 -571,5 -1178,251 -608,246 -1064,533 -1021,641zm-11160 4298c-607,246 -1064,533 -1020,641 43,108 571,-5 1178,-251 608,-246 1064,-533 1021,-641 -44,-107 -571,5 -1179,251zm-1269 -550c-44,-108 -572,5 -1179,251 -607,246 -1064,533 -1020,641 43,107 571,-5 1178,-251 607,-247 1064,-534 1021,-641zm719 -1315c607,-246 1064,-533 1020,-640 -43,-108 -571,4 -1178,251 -608,246 -1064,533 -1021,640 44,108 571,-4 1179,-251zm2882 -1395c607,-246 1064,-533 1020,-641 -44,-108 -571,5 -1178,251 -608,246 -1065,533 -1021,641 44,107 571,-5 1179,-251zm3063 -1299c607,-246 1064,-533 1020,-640 -43,-108 -571,4 -1178,250 -608,247 -1064,534 -1021,641 44,108 572,-4 1179,-251zm2842 -1096c607,-246 1064,-533 1020,-641 -43,-107 -571,5 -1178,251 -608,246 -1064,533 -1021,641 44,108 571,-5 1179,-251zm3040 -1006c607,-246 1064,-533 1020,-641 -43,-107 -571,5 -1178,251 -608,247 -1064,534 -1021,641 44,108 572,-5 1179,-251zm1431 442c44,108 571,-4 1179,-250 607,-247 1064,-534 1020,-641 -43,-108 -571,4 -1178,251 -608,246 -1064,533 -1021,640z"/>
   </g>
  </g>
 </g>
</svg>
