<?xml version="1.0" encoding="UTF-8"?>
<!DOCTYPE svg PUBLIC "-//W3C//DTD SVG 1.1//EN" "http://www.w3.org/Graphics/SVG/1.1/DTD/svg11.dtd">
<!-- Creator: CorelDRAW X7 -->
<svg xmlns="http://www.w3.org/2000/svg" xml:space="preserve" width="1.29205in" height="1.58409in" version="1.1" style="shape-rendering:geometricPrecision; text-rendering:geometricPrecision; image-rendering:optimizeQuality; fill-rule:evenodd; clip-rule:evenodd"
viewBox="0 0 12920 15841"
 xmlns:xlink="http://www.w3.org/1999/xlink">
 <defs>
  <style type="text/css">
   <![CDATA[
    .fil1 {fill:none;fill-rule:nonzero}
    .fil2 {fill:#BB9B61}
    .fil15 {fill:#DBBB82}
    .fil9 {fill:#E2B74B}
    .fil8 {fill:#F6EFE2}
    .fil13 {fill:#75613D;fill-rule:nonzero}
    .fil6 {fill:#A34630;fill-rule:nonzero}
    .fil4 {fill:#A38755;fill-rule:nonzero}
    .fil10 {fill:#BB9B61;fill-rule:nonzero}
    .fil12 {fill:#D2AE6D;fill-rule:nonzero}
    .fil0 {fill:#D7B77D;fill-rule:nonzero}
    .fil14 {fill:#DBBB82;fill-rule:nonzero}
    .fil5 {fill:#DCC08D;fill-rule:nonzero}
    .fil7 {fill:#E2B74B;fill-rule:nonzero}
    .fil3 {fill:#F6EFE2;fill-rule:nonzero}
    .fil11 {fill:white;fill-rule:nonzero}
   ]]>
  </style>
 </defs>
 <g id="Layer_x0020_1">
  <metadata id="CorelCorpID_0Corel-Layer"/>
  <g id="_1759410065648">
   <g>
    <g>
     <polygon class="fil0" points="2126,12487 11670,13437 12914,950 3369,0 "/>
     <path class="fil1" d="M4245 1757l2941 917c476,148 976,198 1473,147l3064 -320c605,-41 1097,-537 1160,-1169l38 -381 -9545 -950 -38 381c-63,632 321,1215 907,1375z"/>
     <path class="fil2" d="M8679 3018l3061 -319c440,-31 817,-264 1059,-602l63 -629c-115,566 -578,995 -1139,1033l-3064 320c-497,51 -997,1 -1473,-147l-2941 -917c-586,-160 -970,-743 -907,-1375l38 -381 -7 -1 -111 1122c167,391 496,705 931,825l2938 916c501,157 1029,209 1552,155z"/>
    </g>
    <path class="fil3" d="M7952 1772c380,38 658,378 621,758l-179 1807c-38,380 -378,659 -758,621 -380,-37 -658,-377 -620,-757l179 -1808c37,-380 377,-658 757,-621zm-322 3252c416,41 788,-264 829,-680l179 -1808c41,-416 -264,-788 -680,-829 -416,-41 -788,264 -829,680l-179 1807c-41,416 264,788 680,830z"/>
    <path class="fil4" d="M7187 2136c-39,399 252,754 650,793 399,40 754,-251 793,-650 40,-398 -251,-753 -650,-793 -398,-39 -754,252 -793,650z"/>
    <path class="fil5" d="M7539 2171c-20,204 129,386 333,407 204,20 386,-129 407,-334 20,-204 -129,-386 -334,-406 -204,-20 -386,129 -406,333z"/>
    <path class="fil4" d="M7737 2191c-10,95 60,179 155,189 95,9 179,-60 189,-155 9,-95 -60,-180 -155,-189 -95,-10 -180,60 -189,155z"/>
    <path class="fil4" d="M6961 4414c-39,398 252,753 651,793 398,39 753,-252 793,-651 39,-398 -252,-753 -650,-793 -399,-39 -754,252 -794,651z"/>
    <path class="fil5" d="M7313 4448c-20,205 129,387 334,407 204,20 386,-129 406,-333 20,-205 -129,-387 -333,-407 -204,-20 -386,129 -407,333z"/>
    <path class="fil4" d="M7511 4468c-9,95 60,180 155,189 95,9 180,-60 189,-155 10,-95 -60,-180 -155,-189 -95,-10 -179,60 -189,155z"/>
   </g>
   <g>
    <g>
     <polygon class="fil6" points="3147,13871 2850,13504 2625,13926 2404,12159 2872,11874 "/>
     <polygon class="fil6" points="1978,13887 1924,13417 1508,13653 2270,12043 2818,12054 "/>
     <path class="fil7" d="M2646 10808l-71 159c-36,81 -144,95 -199,26l-110 -135c-76,-94 -226,-28 -208,91l26 173c13,87 -70,157 -153,130l-166 -55c-114,-38 -205,99 -126,189l116 132c58,66 26,170 -59,192l-170 43c-116,30 -118,195 -3,228l169 47c84,24 113,129 54,194l-119 128c-82,88 5,228 120,193l168 -51c84,-25 165,47 150,134l-31 172c-21,118 128,188 206,97l113 -133c57,-67 165,-50 198,31l67 161c47,111 210,90 226,-29l23 -173c12,-87 112,-131 184,-81l144 99c99,69 225,-38 174,-146l-74 -159c-37,-80 23,-170 111,-167l174 6c121,4 169,-154 67,-218l-148 -93c-74,-47 -73,-156 3,-201l150 -89c104,-62 59,-220 -61,-219l-175 1c-88,1 -145,-92 -106,-170l78 -157c53,-107 -70,-217 -170,-151l-146 96c-74,48 -173,1 -182,-86l-19 -174c-13,-119 -176,-145 -225,-35z"/>
     <path class="fil8" d="M2683 11305c-169,-27 -332,25 -453,129 -98,84 -167,202 -189,339 -23,149 14,293 94,408 6,9 12,17 19,25 75,97 183,170 310,200 15,4 30,7 45,9 9,2 18,3 27,4 143,15 281,-25 390,-104 117,-85 201,-214 225,-368 48,-306 -162,-594 -468,-642z"/>
     <path class="fil9" d="M2316 12079c48,61 116,107 196,127 10,2 19,4 29,5 6,1 12,2 17,3 91,9 178,-16 247,-66 74,-54 127,-136 142,-233 31,-194 -102,-376 -296,-406 -107,-17 -210,16 -286,81 -62,54 -106,128 -120,215 -15,94 9,186 60,258 3,6 7,11 11,16z"/>
    </g>
    <polygon class="fil10" points="964,12377 2183,3054 10927,4197 9744,13247 "/>
    <g>
     <polygon class="fil11" points="8712,15841 0,14473 1887,2456 10599,3824 "/>
     <path class="fil12" d="M4166 4610l4885 768c133,20 166,-186 33,-206l-4885 -768c-133,-20 -165,186 -33,206z"/>
     <path class="fil12" d="M2431 5589l6429 1009c133,21 165,-185 32,-206l-6429 -1009c-133,-21 -165,185 -32,206z"/>
     <path class="fil12" d="M2239 6809l6429 1010c133,20 165,-186 32,-206l-6428 -1010c-133,-21 -166,185 -33,206z"/>
     <path class="fil12" d="M2048 8030l6428 1009c133,21 166,-185 33,-206l-6429 -1009c-133,-21 -165,185 -32,206z"/>
     <path class="fil12" d="M1856 9250l6429 1010c133,20 165,-186 32,-206l-6429 -1010c-132,-21 -165,185 -32,206z"/>
     <g>
      <polygon class="fil13" points="5901,14304 6297,14045 6381,14516 7133,12902 6775,12487 "/>
      <polygon class="fil13" points="7009,14677 7204,14246 7528,14598 7296,12832 6771,12675 "/>
      <path class="fil14" d="M7317 11541l19 174c9,87 108,134 181,86l146 -96c101,-66 224,44 170,151l-78 157c-39,78 19,171 107,170l175 -1c120,-1 164,157 61,219l-150 89c-76,45 -77,154 -3,201l148 93c101,64 53,222 -67,218l-175 -6c-88,-3 -148,88 -111,167l74 159c51,109 -75,215 -173,146l-144 -99c-72,-50 -172,-6 -184,81l-23 173c-17,119 -180,141 -226,30l-67 -162c-34,-81 -142,-98 -199,-31l-113 133c-78,92 -227,21 -206,-97l31 -172c16,-87 -66,-159 -150,-134l-167 51c-115,35 -202,-105 -121,-193l119 -128c60,-65 31,-169 -54,-194l-168 -47c-116,-33 -113,-198 3,-228l169 -43c85,-22 117,-126 59,-192l-115 -131c-80,-91 11,-228 125,-190l166 55c84,27 167,-43 154,-130l-27 -173c-18,-118 133,-185 208,-91l110 135c56,69 164,55 200,-26l71 -159c49,-110 212,-84 225,35z"/>
      <path class="fil8" d="M7129 12003c169,26 309,126 392,262 67,110 98,243 76,380 -23,149 -104,275 -215,360 -8,6 -17,12 -25,18 -102,69 -227,105 -357,96 -15,-2 -30,-3 -45,-6 -10,-1 -19,-3 -27,-5 -141,-29 -260,-109 -340,-218 -85,-117 -126,-266 -102,-419 49,-306 337,-516 643,-468z"/>
      <path class="fil15" d="M7241 12852c-64,44 -143,67 -225,61 -10,-1 -20,-2 -29,-4 -6,-1 -12,-2 -17,-3 -90,-18 -165,-69 -215,-138 -54,-74 -80,-168 -65,-265 31,-194 213,-327 407,-296 107,17 195,80 248,165 42,70 62,154 48,241 -15,94 -66,174 -136,228 -5,4 -10,8 -16,11z"/>
     </g>
    </g>
    <path class="fil12" d="M7769 5176l-4885 -767c-133,-21 -100,-227 32,-206l4885 767c133,21 101,227 -32,206z"/>
   </g>
  </g>
 </g>
</svg>
