<?xml version="1.0" encoding="UTF-8"?>
<!DOCTYPE svg PUBLIC "-//W3C//DTD SVG 1.1//EN" "http://www.w3.org/Graphics/SVG/1.1/DTD/svg11.dtd">
<!-- Creator: CorelDRAW X7 -->
<svg xmlns="http://www.w3.org/2000/svg" xml:space="preserve" width="11.0236in" height="8.14606in" version="1.1" style="shape-rendering:geometricPrecision; text-rendering:geometricPrecision; image-rendering:optimizeQuality; fill-rule:evenodd; clip-rule:evenodd"
viewBox="0 0 110236 81461"
 xmlns:xlink="http://www.w3.org/1999/xlink">
 <defs>
  <style type="text/css">
   <![CDATA[
    .fil20 {fill:#B9C2D8}
    .fil0 {fill:#D2AE6D}
    .fil14 {fill:#E6D3B3}
    .fil21 {fill:#E9D9BA}
    .fil9 {fill:#EFE6D6}
    .fil15 {fill:#F1F4FA}
    .fil16 {fill:#F7F0E3}
    .fil18 {fill:#FBF8F2}
    .fil17 {fill:#FCFBFB}
    .fil1 {fill:white}
    .fil19 {fill:white}
    .fil13 {fill:#657AA9;fill-rule:nonzero}
    .fil12 {fill:#9598C9;fill-rule:nonzero}
    .fil10 {fill:#B7C5E4;fill-rule:nonzero}
    .fil11 {fill:#D3D0E7;fill-rule:nonzero}
    .fil5 {fill:#D7B77D;fill-rule:nonzero}
    .fil7 {fill:#DFC596;fill-rule:nonzero}
    .fil4 {fill:#E2CBA1;fill-rule:nonzero}
    .fil6 {fill:#E8D5B3;fill-rule:nonzero}
    .fil8 {fill:#EBDBBD;fill-rule:nonzero}
    .fil3 {fill:#EDE2CC;fill-rule:nonzero}
    .fil2 {fill:#F7F0E3;fill-rule:nonzero}
   ]]>
  </style>
 </defs>
 <g id="Layer_x0020_1">
  <metadata id="CorelCorpID_0Corel-Layer"/>
  <g id="_3027030860304">
   <g>
    <g>
     <path class="fil0" d="M46337 13523c0,-4104 -3327,-7431 -7431,-7431 -4104,0 -7431,3327 -7431,7431 0,4104 3327,7431 7431,7431 4104,0 7431,-3327 7431,-7431z"/>
     <path class="fil1" d="M40307 15626l0 1401 -5608 0 0 -1401 5608 0zm-5608 -5610c2804,0 5610,0 8414,0l-1403 1403c-2337,0 -4674,0 -7011,0l0 -1403zm8414 7011l-1403 0 0 -2804 -7011 0 0 -1403c2804,0 5608,0 8414,0 0,0 0,3857 0,4207z"/>
    </g>
    <g>
     <path class="fil2" d="M0 74643c2244,183 13737,4102 14164,3473 2088,-3076 7830,-3082 9799,-5182 5570,-5944 -13285,451 9181,-7534 2492,-885 10291,-1731 11031,-3943 681,-2049 4201,1379 3946,-743 -251,-2118 6336,-2484 8343,-3750 2072,-1309 4963,-798 7456,-228 4095,935 12800,4613 15603,-95 1927,-3235 -2335,-6535 -3657,-9988 -1404,-3673 859,-7829 4444,-10194 3585,-2365 8212,-3246 12720,-3634 3415,-294 6911,-355 10147,-1320 3241,-965 6269,-3079 6919,-5952 1314,-5799 -7021,-9897 -8603,-15645 -987,-3579 940,-7387 4125,-9908l-20473 0c2224,6129 936,14289 -7774,15257 -8931,1088 -19137,-6165 -25942,726 -5103,5077 1276,13418 -6804,17045 -7411,3023 -14822,1049 -22233,72 -3327,-438 -8363,-1087 -11254,644 -4149,2485 -2421,11222 -11138,9419l0 31480z"/>
     <path class="fil3" d="M0 75599c41877,15811 34501,-4706 42746,-10788 575,-425 1285,-837 2072,-1230 3398,-1696 8229,-3035 9830,-3487 6111,-1724 12896,-2116 16848,-1406 7483,1345 10441,-2300 7004,-7622 -935,-1447 -2061,-2915 -2634,-4413 -1404,-3673 859,-7829 4444,-10194 3585,-2365 8212,-3246 12720,-3634 3415,-294 6911,-355 10147,-1320 3241,-965 6269,-3079 6919,-5951 1314,-5799 -7021,-9898 -8603,-15646 -987,-3579 940,-7387 4125,-9908l-11504 0c-561,3627 -285,7515 383,9633 1225,3873 4210,7670 3071,11565 -1276,4366 -7260,6521 -12538,6503 -5277,-19 -10432,-1524 -15709,-1520 -4155,4 -8778,1287 -10573,4483 -3070,5461 4015,11503 3288,17527 -698,5785 -8374,9172 -15191,9281 -6818,109 -13469,-1933 -20286,-2042 -4055,-63 -12280,1509 -12925,5435 -370,2253 3085,3742 4825,5369 3289,3075 3548,7309 -2373,7694 -5340,346 -13510,-2981 -16086,-4393l0 6064z"/>
    </g>
    <g>
     <path class="fil2" d="M37547 0l-37547 0 0 20176c2796,2629 6559,3940 10572,4229 15362,1106 26607,-9157 26975,-24405z"/>
     <path class="fil3" d="M16497 17953c4025,-1252 7233,-4568 8847,-8462 1059,-2553 1927,-6316 1383,-9491l-10783 0c-297,1569 -861,3050 -1834,4342 -2330,3093 -6487,4294 -10358,4219 -1257,-23 -2546,-178 -3752,-538l0 6945c1776,1280 3918,2095 6050,2675 3409,928 7075,1360 10447,310z"/>
    </g>
    <g>
     <path class="fil4" d="M105696 10572c-747,-647 -827,-1766 -180,-2513 643,-742 1762,-823 2509,-175 742,643 822,1762 179,2504 -647,747 -1766,827 -2508,184z"/>
     <path class="fil5" d="M106906 7444c398,17 795,159 1119,440 742,643 822,1762 179,2504 -362,418 -868,624 -1373,619 0,0 1266,-684 1183,-1843 -84,-1170 -1108,-1720 -1108,-1720z"/>
     <path class="fil5" d="M105705 9546c-100,115 -281,-42 -181,-158 105,-121 286,37 181,158z"/>
     <path class="fil5" d="M106466 10311c-105,121 -286,-36 -181,-157 100,-116 281,42 181,157z"/>
     <path class="fil5" d="M106398 8057c8,36 11,77 8,113 10,67 -43,127 -114,132 -62,5 -122,-48 -127,-109 -3,-41 -6,-82 -3,-119 -10,-66 42,-126 109,-126 67,-10 127,42 127,109z"/>
    </g>
    <g>
     <path class="fil6" d="M20449 42559c1761,1525 1953,4204 427,5965 -1526,1761 -4196,1943 -5957,417 -1761,-1526 -1951,-4186 -425,-5947 1525,-1761 4194,-1961 5955,-435z"/>
     <g>
      <path class="fil7" d="M17571 49966c-945,-19 -1878,-355 -2652,-1025 -1761,-1526 -1951,-4186 -425,-5947 855,-988 2061,-1476 3269,-1458 0,0 -3005,1605 -2808,4370 198,2765 2616,4060 2616,4060z"/>
      <path class="fil7" d="M16392 43685c5,70 10,139 15,209 7,104 110,193 214,185 112,-16 193,-110 194,-223 -5,-70 -18,-130 -14,-191 -17,-113 -119,-202 -224,-194 -104,7 -193,110 -185,214z"/>
      <path class="fil7" d="M20797 46018c178,-205 -139,-480 -316,-275 -170,196 147,471 316,275z"/>
      <path class="fil7" d="M16748 45853c226,-261 -193,-624 -419,-363 -234,270 185,634 419,363z"/>
     </g>
     <g>
      <path class="fil7" d="M16722 46956l97 -111c113,-131 -92,-308 -205,-178l-97 112c-113,130 92,308 205,177z"/>
      <path class="fil7" d="M19032 45173c403,-466 -323,-1095 -727,-629 -404,465 323,1095 727,629z"/>
     </g>
    </g>
    <path class="fil8" d="M87645 63750c659,22 1187,563 1190,1232l11 0c5,-669 534,-1210 1191,-1232 -661,-21 -1191,-567 -1191,-1241l-9 0c0,674 -530,1220 -1192,1241z"/>
    <path class="fil8" d="M27959 25812c623,20 1123,532 1126,1165l11 0c5,-633 504,-1145 1126,-1165 -625,-21 -1126,-537 -1126,-1174l-9 0c0,637 -501,1153 -1128,1174z"/>
    <path class="fil8" d="M57480 6608c1021,33 1839,871 1845,1908l16 0c9,-1037 827,-1875 1845,-1908 -1024,-33 -1845,-879 -1845,-1922l-14 0c0,1043 -821,1889 -1847,1922z"/>
   </g>
   <g>
    <path class="fil9" d="M71496 58688c-3952,-710 -10737,-318 -16848,1406 -1601,452 -6432,1791 -9830,3487 -276,138 -542,278 -796,420l2519 14262c484,-981 9897,-1846 20633,-1846 10735,0 19191,953 20632,1846l-53 -134 -15336 -19294c-295,-41 -592,-88 -889,-141 -11,-2 -21,-4 -32,-6z"/>
    <path class="fil10" d="M46899 25347c998,2461 -320,5318 -2943,6382 -2624,1064 -5559,-69 -6557,-2529 -998,-2460 320,-5317 2943,-6381 2624,-1064 5560,68 6557,2528z"/>
    <path class="fil11" d="M59234 24430c785,1937 -5590,6351 -14240,9859 -8650,3508 -16299,4781 -17085,2844 -785,-1937 5134,-7476 13784,-10983 8650,-3508 16755,-3657 17541,-1720z"/>
    <path class="fil12" d="M59234 24430c785,1937 -5590,6351 -14240,9859 -8650,3508 -16299,4781 -17085,2844 -785,-1937 5590,-6351 14240,-9859 8650,-3508 16299,-4781 17085,-2844z"/>
    <path class="fil13" d="M56804 26446c588,1448 -4700,4960 -11810,7843 -7110,2884 -13350,4047 -13937,2598 -588,-1449 4700,-4960 11810,-7844 7110,-2883 13350,-4046 13937,-2597z"/>
    <ellipse class="fil14" cx="67174" cy="78263" rx="20633" ry="1846"/>
    <path class="fil15" d="M42916 24013c375,210 940,136 1082,-322 119,-383 -151,-638 -483,-794 -206,-97 -436,-156 -611,-184 -268,-42 -726,-115 -989,-19 -296,107 -447,420 -237,688 220,263 632,285 914,422 -371,-13 -495,302 -119,452 126,62 356,133 483,43 117,-85 91,-213 -40,-286z"/>
    <path class="fil15" d="M43647 24573c68,-129 -80,-219 -202,-217 -313,7 94,410 202,217z"/>
    <path class="fil16" d="M71528 58694c8,1 16,3 24,4 -8,-1 -16,-3 -24,-4zm-9492 -10503c-698,5785 -8374,9172 -15191,9281 -1340,21 -2674,-40 -4003,-154l851 4819 329 1864c254,-142 521,-282 796,-420 3398,-1696 8229,-3035 9830,-3487 6111,-1724 12896,-2116 16848,-1406 3,1 6,1 9,2 7,1 15,2 23,4 19,3 38,6 56,10 284,49 561,92 831,127l-10489 -13196c159,851 213,1704 110,2556z"/>
    <path class="fil17" d="M46845 57472c6817,-109 14493,-3496 15191,-9281 103,-852 49,-1705 -110,-2556l-11127 -14000c-1669,861 -3520,1717 -5494,2527 -103,43 -207,85 -311,127 -105,43 -210,85 -315,127 -8,3 -16,7 -24,10 -1911,764 -3769,1418 -5511,1952l3698 20940c1329,114 2663,175 4003,154z"/>
    <g>
     <path class="fil18" d="M40889 35312c756,-306 1324,-663 1270,-797 -54,-134 -711,6 -1467,312 -755,307 -1324,664 -1270,798 55,134 711,-6 1467,-313z"/>
     <path class="fil18" d="M43486 34259c54,134 711,-5 1466,-312 756,-306 1325,-663 1270,-797 -54,-134 -711,6 -1466,312 -756,306 -1325,664 -1270,797z"/>
     <path class="fil18" d="M47029 32540c54,134 710,-6 1466,-312 756,-306 1324,-664 1270,-797 -54,-134 -711,5 -1467,312 -755,306 -1324,663 -1269,797z"/>
    </g>
    <path class="fil19" d="M47434 31324c-845,438 -1906,925 -3075,1399 -2940,1192 -5447,1853 -5600,1477 -152,-377 2107,-1648 5047,-2841 774,-313 1518,-591 2197,-822 34,-11 68,-23 101,-34 275,-92 537,-177 787,-253 269,-82 522,-154 756,-216 1016,-269 1682,-340 1759,-152 1,4 3,9 4,13 25,102 -108,263 -370,465 -332,257 -871,581 -1556,939 -17,8 -33,17 -50,25z"/>
    <path class="fil20" d="M48495 32228c-756,306 -1412,446 -1466,312 -55,-134 514,-491 1269,-797 756,-307 1413,-446 1467,-312 54,133 -514,491 -1270,797zm-3190 1934c2007,-825 3861,-1698 5471,-2556l-1370 -1724c-111,449 -2275,1717 -5047,2841 -2703,1096 -5121,1672 -5600,1477l379 2144c1702,-496 3574,-1142 5517,-1918 8,-3 16,-7 24,-10l315 -127 311 -127zm-549 -700c755,-306 1412,-446 1466,-312 55,134 -514,491 -1270,797 -755,307 -1412,446 -1466,312 -55,-133 514,-491 1270,-797zm-2597 1053c54,134 -514,491 -1270,797 -756,307 -1412,447 -1467,313 -54,-134 515,-491 1270,-798 756,-306 1413,-446 1467,-312z"/>
    <path class="fil21" d="M50602 30509c54,134 711,-5 1466,-312 756,-306 1324,-663 1270,-797 -54,-134 -711,6 -1466,312 -756,307 -1325,664 -1270,797zm-13888 5350c-756,306 -1324,663 -1270,797 54,134 711,-5 1467,-312 755,-306 1324,-663 1270,-797 -55,-134 -711,6 -1467,312zm-1580 -685c-54,-134 -711,6 -1467,312 -755,307 -1324,664 -1270,798 55,134 711,-6 1467,-313 756,-306 1324,-663 1270,-797zm895 -1636c755,-306 1324,-663 1270,-797 -55,-134 -711,6 -1467,312 -756,307 -1324,664 -1270,798 54,134 711,-6 1467,-313zm3586 -1737c756,-306 1324,-663 1270,-797 -54,-134 -711,6 -1467,312 -755,307 -1324,664 -1269,798 54,134 710,-6 1466,-313zm3812 -1615c756,-307 1324,-664 1270,-798 -54,-134 -711,6 -1467,313 -755,306 -1324,663 -1270,797 55,134 711,-6 1467,-312zm3537 -1365c755,-306 1324,-663 1270,-797 -55,-134 -711,6 -1467,312 -756,307 -1324,664 -1270,798 55,134 711,-6 1467,-313zm3783 -1251c756,-307 1324,-664 1270,-798 -55,-134 -711,6 -1467,313 -756,306 -1324,663 -1270,797 55,134 711,-6 1467,-312zm1781 550c55,134 711,-6 1467,-312 756,-307 1324,-664 1270,-798 -55,-134 -711,6 -1467,313 -756,306 -1324,663 -1270,797z"/>
   </g>
  </g>
 </g>
</svg>
