<?xml version="1.0" encoding="UTF-8"?>
<!DOCTYPE svg PUBLIC "-//W3C//DTD SVG 1.1//EN" "http://www.w3.org/Graphics/SVG/1.1/DTD/svg11.dtd">
<!-- Creator: CorelDRAW X7 -->
<svg xmlns="http://www.w3.org/2000/svg" xml:space="preserve" width="11.0236in" height="8.14606in" version="1.1" style="shape-rendering:geometricPrecision; text-rendering:geometricPrecision; image-rendering:optimizeQuality; fill-rule:evenodd; clip-rule:evenodd"
viewBox="0 0 110236 81461"
 xmlns:xlink="http://www.w3.org/1999/xlink">
 <defs>
  <style type="text/css">
   <![CDATA[
    .fil22 {fill:none;fill-rule:nonzero}
    .fil20 {fill:#B9C2D8}
    .fil23 {fill:#BB9B61}
    .fil0 {fill:#D2AE6D}
    .fil36 {fill:#DBBB82}
    .fil30 {fill:#E2B74B}
    .fil14 {fill:#E6D3B3}
    .fil21 {fill:#E9D9BA}
    .fil9 {fill:#EFE6D6}
    .fil15 {fill:#F1F4FA}
    .fil29 {fill:#F6EFE2}
    .fil16 {fill:#F7F0E3}
    .fil18 {fill:#FBF8F2}
    .fil17 {fill:#FCFBFB}
    .fil1 {fill:white}
    .fil19 {fill:white}
    .fil13 {fill:#657AA9;fill-rule:nonzero}
    .fil34 {fill:#75613D;fill-rule:nonzero}
    .fil12 {fill:#9598C9;fill-rule:nonzero}
    .fil27 {fill:#A34630;fill-rule:nonzero}
    .fil25 {fill:#A38755;fill-rule:nonzero}
    .fil10 {fill:#B7C5E4;fill-rule:nonzero}
    .fil31 {fill:#BB9B61;fill-rule:nonzero}
    .fil33 {fill:#D2AE6D;fill-rule:nonzero}
    .fil11 {fill:#D3D0E7;fill-rule:nonzero}
    .fil5 {fill:#D7B77D;fill-rule:nonzero}
    .fil35 {fill:#DBBB82;fill-rule:nonzero}
    .fil26 {fill:#DCC08D;fill-rule:nonzero}
    .fil7 {fill:#DFC596;fill-rule:nonzero}
    .fil28 {fill:#E2B74B;fill-rule:nonzero}
    .fil4 {fill:#E2CBA1;fill-rule:nonzero}
    .fil6 {fill:#E8D5B3;fill-rule:nonzero}
    .fil8 {fill:#EBDBBD;fill-rule:nonzero}
    .fil3 {fill:#EDE2CC;fill-rule:nonzero}
    .fil24 {fill:#F6EFE2;fill-rule:nonzero}
    .fil2 {fill:#F7F0E3;fill-rule:nonzero}
    .fil32 {fill:white;fill-rule:nonzero}
   ]]>
  </style>
 </defs>
 <g id="Layer_x0020_1">
  <metadata id="CorelCorpID_0Corel-Layer"/>
  <g id="_3027030838544">
   <g>
    <g>
     <path class="fil0" d="M46337 13523c0,-4104 -3327,-7431 -7431,-7431 -4104,0 -7431,3327 -7431,7431 0,4104 3327,7431 7431,7431 4104,0 7431,-3327 7431,-7431z"/>
     <path class="fil1" d="M40307 15626l0 1401 -5608 0 0 -1401 5608 0zm-5608 -5610c2804,0 5610,0 8414,0l-1403 1403c-2337,0 -4674,0 -7011,0l0 -1403zm8414 7011l-1403 0 0 -2804 -7011 0 0 -1403c2804,0 5608,0 8414,0 0,0 0,3857 0,4207z"/>
    </g>
    <g>
     <path class="fil2" d="M0 74643c2244,183 13737,4102 14164,3473 2088,-3076 7830,-3082 9799,-5182 5570,-5943 -13285,451 9181,-7534 2492,-885 10291,-1731 11031,-3943 681,-2049 4201,1379 3946,-743 -251,-2118 6336,-2484 8343,-3750 2071,-1309 4963,-798 7456,-228 4095,935 12800,4613 15603,-95 1927,-3235 -2335,-6535 -3657,-9987 -1404,-3674 859,-7830 4444,-10195 3585,-2365 8212,-3246 12720,-3634 3415,-294 6911,-355 10147,-1320 3241,-965 6269,-3079 6919,-5952 1314,-5799 -7021,-9897 -8603,-15645 -987,-3579 940,-7387 4125,-9908l-20473 0c2224,6129 936,14289 -7774,15257 -8931,1088 -19137,-6165 -25942,726 -5103,5077 1276,13418 -6804,17045 -7411,3023 -14822,1049 -22233,72 -3327,-438 -8363,-1087 -11254,644 -4149,2485 -2421,11222 -11138,9419l0 31480z"/>
     <path class="fil3" d="M0 75599c41877,15811 34501,-4705 42746,-10788 575,-425 1285,-837 2072,-1230 3398,-1696 8229,-3035 9830,-3487 6111,-1724 12896,-2116 16848,-1406 7483,1345 10441,-2300 7004,-7622 -935,-1447 -2061,-2915 -2634,-4412 -1404,-3674 859,-7830 4444,-10195 3585,-2365 8212,-3246 12720,-3634 3415,-294 6911,-355 10147,-1320 3241,-965 6269,-3079 6919,-5951 1314,-5799 -7021,-9898 -8603,-15646 -987,-3579 940,-7387 4125,-9908l-11504 0c-561,3627 -285,7514 383,9632 1225,3874 4210,7671 3071,11566 -1276,4366 -7260,6521 -12538,6503 -5277,-19 -10432,-1524 -15709,-1520 -4155,4 -8778,1287 -10573,4482 -3070,5462 4015,11504 3288,17528 -698,5785 -8374,9172 -15191,9281 -6818,109 -13469,-1933 -20286,-2042 -4056,-63 -12280,1509 -12925,5435 -370,2253 3085,3742 4825,5369 3289,3075 3548,7309 -2373,7694 -5340,346 -13510,-2981 -16086,-4393l0 6064z"/>
    </g>
    <g>
     <path class="fil2" d="M37546 0l-37546 0 0 20176c2796,2629 6559,3940 10572,4229 15362,1106 26607,-9157 26974,-24405z"/>
     <path class="fil3" d="M16497 17953c4025,-1252 7233,-4568 8847,-8462 1059,-2553 1927,-6316 1383,-9491l-10783 0c-297,1569 -861,3050 -1835,4342 -2329,3093 -6487,4294 -10357,4219 -1257,-23 -2546,-178 -3752,-538l0 6945c1776,1280 3918,2095 6050,2675 3408,928 7075,1360 10447,310z"/>
    </g>
    <g>
     <path class="fil4" d="M105696 10572c-747,-647 -827,-1766 -180,-2513 643,-743 1762,-823 2509,-175 742,643 822,1762 179,2504 -647,747 -1766,827 -2508,184z"/>
     <path class="fil5" d="M106906 7444c398,17 795,159 1119,440 742,643 822,1762 179,2504 -362,417 -868,624 -1373,619 0,0 1266,-684 1183,-1843 -84,-1170 -1108,-1720 -1108,-1720z"/>
     <path class="fil5" d="M105705 9546c-100,115 -281,-42 -181,-158 105,-121 286,37 181,158z"/>
     <path class="fil5" d="M106466 10311c-104,121 -286,-36 -181,-157 100,-116 281,42 181,157z"/>
     <path class="fil5" d="M106398 8057c8,36 11,77 8,113 10,67 -43,127 -114,132 -62,5 -122,-48 -127,-109 -3,-41 -6,-82 -3,-119 -10,-66 42,-127 109,-126 67,-10 127,42 127,109z"/>
    </g>
    <g>
     <path class="fil6" d="M20449 42559c1761,1525 1953,4204 427,5965 -1526,1761 -4196,1943 -5957,417 -1761,-1526 -1951,-4186 -425,-5947 1525,-1761 4194,-1961 5955,-435z"/>
     <g>
      <path class="fil7" d="M17571 49966c-946,-19 -1879,-355 -2652,-1025 -1761,-1526 -1951,-4186 -425,-5947 855,-988 2061,-1476 3269,-1458 0,0 -3005,1605 -2808,4370 198,2765 2616,4060 2616,4060z"/>
      <path class="fil7" d="M16392 43685c5,70 10,139 15,209 7,104 110,193 214,185 112,-16 193,-110 194,-223 -5,-70 -18,-130 -14,-191 -17,-113 -119,-202 -224,-194 -104,7 -193,110 -185,214z"/>
      <path class="fil7" d="M20797 46018c178,-205 -139,-480 -316,-275 -170,196 147,471 316,275z"/>
      <path class="fil7" d="M16748 45853c226,-261 -193,-624 -419,-363 -235,270 185,634 419,363z"/>
     </g>
     <g>
      <path class="fil7" d="M16722 46956l97 -111c113,-131 -92,-308 -205,-178l-97 112c-113,130 92,308 205,177z"/>
      <path class="fil7" d="M19032 45173c403,-466 -324,-1095 -727,-629 -404,465 323,1095 727,629z"/>
     </g>
    </g>
    <path class="fil8" d="M87645 63750c659,22 1187,563 1190,1232l11 0c5,-669 534,-1210 1191,-1232 -661,-21 -1191,-567 -1191,-1241l-9 0c0,674 -530,1220 -1192,1241z"/>
    <path class="fil8" d="M27959 25812c623,20 1123,532 1126,1165l11 0c5,-633 504,-1145 1126,-1165 -625,-21 -1126,-537 -1126,-1174l-9 0c0,637 -501,1153 -1128,1174z"/>
    <path class="fil8" d="M57480 6608c1021,33 1839,871 1845,1908l16 0c9,-1037 827,-1875 1845,-1908 -1024,-33 -1845,-879 -1845,-1922l-14 0c0,1043 -821,1889 -1847,1922z"/>
   </g>
   <g>
    <path class="fil9" d="M71496 58688c-3952,-710 -10737,-318 -16848,1406 -1601,452 -6432,1791 -9830,3487 -276,138 -542,278 -796,420l2519 14262c484,-981 9897,-1846 20633,-1846 10735,0 19191,953 20632,1846l-53 -134 -15336 -19294c-295,-41 -592,-88 -889,-141 -11,-2 -21,-4 -32,-6z"/>
    <path class="fil10" d="M46899 25347c998,2461 -320,5318 -2943,6382 -2624,1064 -5559,-69 -6557,-2529 -998,-2460 320,-5317 2943,-6381 2624,-1064 5560,68 6557,2528z"/>
    <path class="fil11" d="M59234 24430c785,1937 -5590,6351 -14240,9859 -8650,3508 -16299,4781 -17085,2844 -785,-1937 5134,-7476 13784,-10983 8650,-3508 16755,-3657 17541,-1720z"/>
    <path class="fil12" d="M59234 24430c785,1937 -5590,6351 -14240,9859 -8650,3508 -16299,4781 -17085,2844 -785,-1937 5590,-6351 14240,-9859 8650,-3508 16299,-4781 17085,-2844z"/>
    <path class="fil13" d="M56804 26446c588,1448 -4700,4960 -11810,7843 -7110,2884 -13350,4047 -13937,2598 -588,-1449 4700,-4960 11810,-7844 7110,-2883 13350,-4046 13937,-2597z"/>
    <ellipse class="fil14" cx="67174" cy="78263" rx="20633" ry="1846"/>
    <path class="fil15" d="M42916 24013c375,210 940,136 1082,-322 119,-383 -151,-638 -483,-794 -206,-97 -436,-156 -611,-184 -268,-42 -726,-115 -989,-19 -297,107 -447,420 -237,688 220,263 632,285 914,422 -371,-13 -495,302 -119,452 126,62 356,133 483,43 117,-85 91,-213 -40,-286z"/>
    <path class="fil15" d="M43647 24573c68,-129 -80,-219 -202,-217 -313,7 94,410 202,217z"/>
    <path class="fil16" d="M71528 58694c8,1 16,3 24,4 -8,-1 -16,-3 -24,-4zm-9492 -10503c-698,5785 -8374,9172 -15191,9281 -1340,21 -2674,-40 -4003,-154l851 4819 329 1864c254,-142 520,-282 796,-420 3398,-1696 8229,-3035 9830,-3487 6111,-1724 12896,-2116 16848,-1406 3,1 6,1 9,2 7,1 15,2 23,4 19,3 38,7 56,10 284,50 561,92 831,127l-10489 -13196c159,851 213,1704 110,2556z"/>
    <path class="fil17" d="M46845 57472c6817,-109 14493,-3496 15191,-9281 103,-852 49,-1705 -110,-2556l-11127 -14000c-1669,861 -3520,1717 -5494,2527 -103,43 -207,85 -311,127 -105,43 -210,85 -315,127 -8,3 -16,7 -24,10 -1911,764 -3769,1418 -5511,1952l3698 20940c1329,114 2663,175 4003,154z"/>
    <g>
     <path class="fil18" d="M40889 35312c756,-306 1324,-663 1270,-797 -54,-134 -711,6 -1467,312 -755,307 -1324,664 -1270,798 55,134 711,-6 1467,-313z"/>
     <path class="fil18" d="M43486 34259c54,134 711,-5 1466,-312 756,-306 1324,-663 1270,-797 -54,-134 -711,6 -1466,312 -756,306 -1325,663 -1270,797z"/>
     <path class="fil18" d="M47029 32540c54,134 710,-6 1466,-312 756,-306 1324,-664 1270,-797 -54,-134 -711,5 -1467,312 -755,306 -1324,663 -1269,797z"/>
    </g>
    <path class="fil19" d="M47434 31324c-845,438 -1906,925 -3075,1399 -2940,1192 -5447,1853 -5600,1477 -152,-377 2107,-1648 5047,-2841 774,-313 1518,-591 2197,-822 34,-11 68,-23 101,-34 275,-92 537,-177 787,-253 269,-82 522,-155 756,-216 1016,-269 1682,-340 1759,-152 1,4 3,9 4,13 25,102 -108,263 -370,465 -332,257 -871,581 -1557,939 -16,8 -33,17 -49,25z"/>
    <path class="fil20" d="M48495 32228c-756,306 -1412,446 -1466,312 -55,-134 514,-491 1269,-797 756,-307 1413,-446 1467,-312 54,133 -514,491 -1270,797zm-3190 1934c2007,-825 3861,-1698 5471,-2556l-1370 -1724c-111,449 -2275,1717 -5047,2841 -2703,1096 -5121,1672 -5600,1477l379 2144c1702,-496 3574,-1142 5517,-1918 8,-3 16,-7 24,-10l315 -127 311 -127zm-549 -700c755,-306 1412,-446 1466,-312 54,134 -514,491 -1270,797 -755,307 -1412,446 -1466,312 -55,-134 514,-491 1270,-797zm-2597 1053c54,134 -514,491 -1270,797 -756,307 -1412,447 -1467,313 -54,-134 515,-491 1270,-798 756,-306 1413,-446 1467,-312z"/>
    <path class="fil21" d="M50602 30509c54,134 711,-5 1466,-312 756,-306 1324,-663 1270,-797 -54,-134 -711,6 -1466,312 -756,307 -1325,664 -1270,797zm-13888 5350c-756,306 -1324,663 -1270,797 54,134 711,-5 1467,-312 755,-306 1324,-663 1270,-797 -55,-134 -711,6 -1467,312zm-1580 -685c-54,-134 -711,6 -1467,312 -755,307 -1324,664 -1270,798 55,134 711,-6 1467,-313 756,-306 1324,-663 1270,-797zm895 -1636c755,-306 1324,-663 1270,-797 -55,-134 -711,6 -1467,312 -756,307 -1324,664 -1270,798 54,134 711,-6 1467,-313zm3586 -1737c756,-306 1324,-663 1270,-797 -54,-134 -711,6 -1467,312 -755,307 -1324,664 -1269,798 54,134 710,-6 1466,-313zm3812 -1615c756,-307 1324,-664 1270,-798 -54,-134 -711,6 -1467,313 -755,306 -1324,663 -1270,797 55,134 711,-6 1467,-312zm3537 -1365c755,-306 1324,-663 1270,-797 -55,-134 -711,6 -1467,312 -756,307 -1324,664 -1270,798 55,134 711,-6 1467,-313zm3783 -1251c756,-307 1324,-664 1270,-798 -55,-134 -711,6 -1467,313 -756,306 -1324,663 -1270,797 55,134 711,-6 1467,-312zm1781 550c55,134 711,-6 1467,-312 756,-307 1324,-664 1270,-798 -55,-134 -711,6 -1467,313 -756,306 -1324,663 -1270,797z"/>
   </g>
   <g>
    <g>
     <g>
      <polygon class="fil5" points="52445,69964 64322,71147 65870,55608 53993,54425 "/>
      <path class="fil22" d="M55082 56611l3660 1141c593,185 1215,247 1833,183l3813 -397c753,-52 1365,-668 1443,-1455l47 -474 -11877 -1183 -47 474c-78,787 400,1512 1128,1711z"/>
      <path class="fil23" d="M60601 58181l3808 -397c548,-39 1017,-329 1319,-749l78 -783c-143,705 -720,1238 -1418,1286l-3813 397c-618,64 -1240,2 -1833,-183l-3660 -1141c-728,-199 -1206,-924 -1128,-1711l47 -474 -8 -1 -139 1396c208,487 618,878 1159,1027l3655 1140c625,195 1282,260 1933,193z"/>
     </g>
     <path class="fil24" d="M59695 56631c473,47 820,469 773,942l-223 2250c-47,473 -470,819 -942,772 -473,-47 -820,-469 -773,-942l223 -2250c47,-472 469,-819 942,-772zm-400 4046c517,51 980,-329 1031,-846l223 -2250c51,-517 -328,-980 -846,-1032 -517,-51 -980,329 -1031,846l-223 2250c-51,517 328,980 846,1032z"/>
     <path class="fil25" d="M58743 57084c-49,495 314,937 810,987 496,49 938,-314 987,-810 49,-496 -314,-938 -810,-987 -496,-49 -937,313 -987,810z"/>
     <path class="fil26" d="M59181 57127c-25,254 161,481 415,506 254,25 481,-161 506,-415 25,-254 -161,-481 -415,-506 -254,-25 -481,161 -506,415z"/>
     <path class="fil25" d="M59427 57151c-11,118 75,224 193,236 119,11 224,-75 236,-193 11,-119 -75,-224 -193,-236 -119,-11 -224,75 -236,193z"/>
     <path class="fil25" d="M58463 59917c-49,496 313,938 809,987 496,49 938,-313 987,-809 49,-496 -313,-938 -809,-987 -496,-49 -938,313 -987,809z"/>
     <path class="fil26" d="M58901 59961c-26,254 160,480 414,506 255,25 481,-161 506,-415 25,-254 -160,-481 -415,-506 -254,-25 -480,160 -505,415z"/>
     <path class="fil25" d="M59147 59985c-12,118 74,224 193,235 118,12 223,-74 235,-193 12,-118 -75,-223 -193,-235 -118,-12 -224,75 -235,193z"/>
    </g>
    <g>
     <g>
      <polygon class="fil27" points="53716,71687 53346,71229 53066,71755 52791,69556 53374,69202 "/>
      <polygon class="fil27" points="52261,71707 52194,71122 51676,71415 52624,69412 53307,69426 "/>
      <path class="fil28" d="M53093 67875l-89 198c-45,100 -179,118 -248,33l-137 -169c-94,-117 -281,-34 -259,114l33 215c17,108 -87,195 -191,161l-206 -68c-142,-47 -255,124 -156,236l143 163c73,82 33,212 -73,239l-211 54c-145,37 -147,242 -3,283l209 60c105,30 141,160 67,240l-148 160c-102,109 7,283 150,240l208 -63c105,-32 206,58 187,166l-38 214c-27,147 159,235 256,121l141 -166c71,-83 205,-62 247,39l83 201c58,138 261,112 281,-37l29 -215c15,-109 139,-163 229,-101l179 124c123,85 279,-47 216,-183l-92 -197c-46,-99 28,-212 138,-208l217 7c150,5 210,-191 83,-271l-183 -116c-93,-58 -91,-194 3,-250l187 -111c128,-76 73,-274 -77,-272l-217 1c-110,1 -181,-114 -132,-212l97 -194c66,-134 -87,-270 -212,-188l-182 119c-92,60 -214,2 -226,-107l-24 -216c-16,-149 -218,-181 -279,-44z"/>
      <path class="fil29" d="M53139 68493c-210,-33 -414,32 -564,161 -122,104 -209,251 -235,422 -30,185 17,365 117,508 7,10 15,21 23,31 94,120 228,211 386,249 18,4 37,8 56,11 11,2 23,3 34,4 178,20 349,-30 485,-129 145,-106 250,-267 280,-457 60,-381 -201,-740 -582,-800z"/>
      <path class="fil30" d="M52682 69456c60,77 144,134 244,158 12,3 24,5 36,7 7,1 14,2 21,3 113,12 221,-20 307,-82 92,-67 159,-169 178,-289 37,-241 -128,-468 -369,-506 -133,-21 -262,20 -357,102 -77,66 -132,158 -149,266 -18,118 12,232 75,322 4,7 9,13 14,19z"/>
     </g>
     <polygon class="fil31" points="50999,69828 52516,58225 63398,59648 61926,70910 "/>
     <g>
      <polygon class="fil32" points="60641,74138 49800,72436 52148,57481 62990,59184 "/>
      <path class="fil33" d="M54984 60162l6080 955c165,26 205,-230 40,-256l-6079 -955c-166,-26 -206,230 -41,256z"/>
      <path class="fil33" d="M52825 61380l8000 1256c165,26 206,-230 40,-256l-8000 -1257c-165,-26 -205,231 -40,257z"/>
      <path class="fil33" d="M52586 62899l8001 1256c165,26 205,-231 40,-257l-8000 -1256c-166,-26 -206,231 -41,257z"/>
      <path class="fil33" d="M52348 64417l8000 1257c165,26 206,-231 40,-257l-8000 -1256c-165,-26 -205,230 -40,256z"/>
      <path class="fil33" d="M52109 65936l8001 1256c165,26 205,-230 40,-256l-8000 -1256c-166,-26 -206,230 -41,256z"/>
      <g>
       <polygon class="fil34" points="57143,72225 57636,71903 57741,72489 58677,70480 58230,69964 "/>
       <polygon class="fil34" points="58522,72690 58765,72153 59168,72591 58879,70394 58226,70198 "/>
       <path class="fil35" d="M58905 68787l23 217c12,108 135,166 226,106l182 -119c125,-82 279,54 212,188l-97 195c-49,98 23,213 132,212l218 -2c149,-1 204,196 76,273l-187 111c-94,56 -96,192 -3,250l184 116c126,80 66,276 -84,271l-217 -8c-109,-3 -184,110 -138,209l92 197c63,135 -93,268 -216,182l-179 -123c-90,-63 -214,-8 -229,101l-29 215c-20,148 -223,175 -281,37l-83 -201c-42,-101 -176,-122 -247,-39l-141 166c-97,114 -282,26 -256,-121l38 -214c19,-108 -82,-198 -187,-166l-208 63c-143,43 -251,-131 -150,-241l148 -159c75,-80 38,-211 -67,-241l-209 -59c-144,-41 -141,-246 3,-283l211 -54c106,-28 146,-157 74,-239l-144 -164c-99,-112 14,-283 156,-236l206 69c104,34 208,-53 191,-162l-32 -215c-23,-147 165,-230 259,-114l136 169c69,85 204,68 248,-32l89 -199c61,-136 263,-104 280,44z"/>
       <path class="fil29" d="M58671 69362c211,33 384,157 488,326 84,136 121,303 95,473 -29,186 -129,343 -268,448 -10,8 -21,15 -31,22 -127,86 -282,131 -444,119 -19,-1 -38,-3 -57,-6 -11,-2 -22,-4 -33,-6 -176,-37 -324,-137 -423,-273 -106,-145 -156,-330 -126,-521 60,-381 418,-642 799,-582z"/>
       <path class="fil36" d="M58811 70419c-80,54 -179,83 -281,75 -12,-1 -24,-2 -36,-4 -7,-1 -14,-3 -21,-4 -111,-23 -205,-86 -267,-172 -67,-92 -99,-209 -80,-330 37,-241 264,-406 505,-368 133,21 243,99 309,206 53,86 77,191 60,299 -19,118 -82,217 -169,284 -7,5 -13,9 -20,14z"/>
      </g>
     </g>
     <path class="fil33" d="M59468 60866l-6079 -954c-166,-26 -125,-282 40,-256l6079 954c165,26 125,282 -40,256z"/>
    </g>
   </g>
  </g>
 </g>
</svg>
