<?xml version="1.0" encoding="UTF-8"?>
<!DOCTYPE svg PUBLIC "-//W3C//DTD SVG 1.1//EN" "http://www.w3.org/Graphics/SVG/1.1/DTD/svg11.dtd">
<!-- Creator: CorelDRAW X7 -->
<svg xmlns="http://www.w3.org/2000/svg" xml:space="preserve" width="15.2052in" height="11.2361in" version="1.1" style="shape-rendering:geometricPrecision; text-rendering:geometricPrecision; image-rendering:optimizeQuality; fill-rule:evenodd; clip-rule:evenodd"
viewBox="0 0 152052 112361"
 xmlns:xlink="http://www.w3.org/1999/xlink">
 <defs>
  <style type="text/css">
   <![CDATA[
    .fil0 {fill:#D2AE6D}
    .fil1 {fill:white}
    .fil5 {fill:#D7B77D;fill-rule:nonzero}
    .fil7 {fill:#DFC596;fill-rule:nonzero}
    .fil4 {fill:#E2CBA1;fill-rule:nonzero}
    .fil6 {fill:#E8D5B3;fill-rule:nonzero}
    .fil8 {fill:#EBDBBD;fill-rule:nonzero}
    .fil3 {fill:#EDE2CC;fill-rule:nonzero}
    .fil2 {fill:#F7F0E3;fill-rule:nonzero}
   ]]>
  </style>
 </defs>
 <g id="Layer_x0020_1">
  <metadata id="CorelCorpID_0Corel-Layer"/>
  <g id="_2137078336128">
   <g>
    <path class="fil0" d="M63914 18652c0,-5661 -4589,-10250 -10250,-10250 -5661,0 -10250,4589 -10250,10250 0,5661 4589,10250 10250,10250 5661,0 10250,-4589 10250,-10250z"/>
    <path class="fil1" d="M55596 21553l0 1933 -7735 0 0 -1933 7735 0zm-7735 -5802l0 -1935c3868,0 7738,0 11606,0l-1935 1935c-3224,0 -6447,0 -9671,0l0 0zm11606 1932c0,1935 0,3870 0,5803l-1935 0 0 -3868 0 0 -9671 0 0 -1935c3868,0 7735,0 11606,0l0 0z"/>
   </g>
   <g>
    <path class="fil2" d="M0 102958c3095,252 18948,5658 19537,4790 2880,-4243 10800,-4251 13515,-7148 7683,-8198 -18323,622 12665,-10392 3437,-1221 14195,-2387 15215,-5439 939,-2826 5795,1902 5443,-1025 -346,-2921 8739,-3426 11508,-5172 2857,-1806 6846,-1100 10283,-315 5649,1291 17657,6363 21523,-130 2657,-4462 -3221,-9014 -5045,-13776 -1936,-5068 1185,-10801 6130,-14062 4945,-3262 11327,-4477 17545,-5013 4710,-405 9532,-490 13996,-1820 4470,-1331 8647,-4247 9544,-8209 1813,-7999 -9684,-13652 -11867,-21581 -1360,-4937 1297,-10189 5691,-13666l-28240 0c3068,8454 1291,19709 -10722,21045 -12319,1501 -26397,-8504 -35783,1000 -7039,7004 1760,18509 -9386,23512 -10222,4169 -20444,1446 -30666,99 -4589,-605 -11535,-1500 -15522,888 -5724,3428 -3340,15479 -15364,12992l0 43422z"/>
    <path class="fil3" d="M0 104276c57763,21809 47588,-6490 58961,-14881 793,-585 1773,-1154 2858,-1695 4687,-2340 11350,-4188 13559,-4811 8429,-2377 17787,-2918 23239,-1939 10321,1855 14401,-3172 9660,-10513 -1289,-1996 -2842,-4021 -3633,-6086 -1936,-5068 1185,-10801 6130,-14062 4945,-3262 11327,-4477 17545,-5013 4710,-405 9532,-490 13996,-1820 4470,-1331 8647,-4247 9544,-8209 1813,-7999 -9684,-13652 -11867,-21581 -1360,-4937 1297,-10189 5691,-13666l-15868 0c-774,5002 -393,10365 528,13286 1689,5343 5807,10580 4235,15953 -1760,6023 -10013,8994 -17293,8969 -7280,-25 -14389,-2101 -21669,-2096 -5731,5 -12107,1776 -14583,6183 -4235,7534 5538,15868 4535,24177 -962,7978 -11551,12650 -20954,12801 -9403,150 -18577,-2667 -27981,-2817 -5593,-87 -16937,2081 -17827,7497 -511,3107 4256,5162 6655,7405 4537,4241 4894,10083 -3273,10613 -7365,477 -18635,-4112 -22188,-6060l0 8365z"/>
   </g>
   <g>
    <path class="fil2" d="M51789 0l-51789 0 0 27830c3857,3625 9048,5433 14583,5832 21188,1526 36699,-12630 37206,-33662z"/>
    <path class="fil3" d="M22755 24763c5552,-1727 9977,-6300 12203,-11671 1461,-3522 2658,-8712 1907,-13092l-14873 0c-409,2164 -1187,4207 -2530,5989 -3213,4266 -8948,5923 -14287,5820 -1734,-33 -3511,-246 -5175,-743l0 9580c2450,1765 5404,2889 8345,3690 4701,1280 9759,1875 14410,427z"/>
   </g>
   <g>
    <path class="fil4" d="M145790 14583c-1031,-894 -1142,-2436 -248,-3468 887,-1023 2429,-1134 3461,-240 1023,887 1134,2429 247,3453 -894,1031 -2436,1142 -3460,255z"/>
    <path class="fil5" d="M147458 10267c550,25 1097,220 1545,608 1023,887 1134,2429 247,3453 -500,576 -1198,861 -1895,854 0,0 1746,-943 1632,-2542 -116,-1613 -1529,-2373 -1529,-2373z"/>
    <path class="fil5" d="M145802 13166c-138,160 -388,-57 -250,-216 145,-167 395,50 250,216z"/>
    <path class="fil5" d="M146852 14222c-144,167 -394,-50 -250,-217 138,-159 388,58 250,217z"/>
    <path class="fil5" d="M146758 11114c11,49 15,105 11,155 14,92 -59,175 -158,182 -85,6 -168,-66 -174,-151 -4,-56 -8,-113 -5,-163 -13,-91 59,-175 152,-174 91,-14 174,58 174,151z"/>
   </g>
   <g>
    <path class="fil6" d="M28206 58702c2429,2105 2694,5799 589,8228 -2104,2429 -5787,2681 -8216,576 -2430,-2105 -2692,-5775 -588,-8204 2105,-2429 5786,-2704 8215,-600z"/>
    <g>
     <path class="fil7" d="M24236 68920c-1304,-27 -2591,-490 -3657,-1414 -2430,-2105 -2692,-5775 -588,-8204 1181,-1362 2845,-2036 4510,-2010 0,0 -4145,2213 -3872,6027 272,3814 3607,5601 3607,5601z"/>
     <path class="fil7" d="M22610 60256c7,96 13,192 20,288 11,144 152,266 296,256 155,-23 266,-152 267,-308 -7,-96 -25,-179 -19,-264 -23,-155 -164,-278 -308,-267 -144,10 -267,151 -256,295z"/>
     <path class="fil7" d="M28687 63474c245,-283 -192,-661 -437,-379 -234,270 203,649 437,379z"/>
     <path class="fil7" d="M23101 63247c312,-360 -267,-861 -578,-501 -323,372 255,874 578,501z"/>
    </g>
    <g>
     <path class="fil7" d="M23065 64768l134 -154c156,-180 -127,-425 -283,-245l-134 154c-155,180 127,425 283,245z"/>
     <path class="fil7" d="M26251 62309c557,-643 -446,-1511 -1002,-869 -557,643 445,1511 1002,869z"/>
    </g>
   </g>
   <path class="fil8" d="M120891 87933c909,29 1638,775 1642,1699l15 0c8,-924 736,-1670 1643,-1699 -912,-30 -1643,-783 -1643,-1712l-12 0c0,929 -731,1682 -1645,1712z"/>
   <path class="fil8" d="M38565 35603c859,28 1549,733 1554,1607l14 0c7,-874 696,-1579 1553,-1607 -862,-28 -1553,-741 -1553,-1620l-12 0c0,879 -692,1592 -1556,1620z"/>
   <path class="fil8" d="M79284 9114c1408,46 2537,1202 2544,2632l23 0c12,-1430 1140,-2586 2544,-2632 -1411,-45 -2544,-1212 -2544,-2651l-19 0c0,1439 -1132,2606 -2548,2651z"/>
  </g>
 </g>
</svg>
