<?xml version="1.0" encoding="UTF-8"?>
<!DOCTYPE svg PUBLIC "-//W3C//DTD SVG 1.1//EN" "http://www.w3.org/Graphics/SVG/1.1/DTD/svg11.dtd">
<!-- Creator: CorelDRAW X7 -->
<svg xmlns="http://www.w3.org/2000/svg" xml:space="preserve" width="15.2052in" height="11.2361in" version="1.1" style="shape-rendering:geometricPrecision; text-rendering:geometricPrecision; image-rendering:optimizeQuality; fill-rule:evenodd; clip-rule:evenodd"
viewBox="0 0 152052 112361"
 xmlns:xlink="http://www.w3.org/1999/xlink">
 <defs>
  <style type="text/css">
   <![CDATA[
    .fil22 {fill:none;fill-rule:nonzero}
    .fil20 {fill:#B9C2D8}
    .fil23 {fill:#BB9B61}
    .fil0 {fill:#D2AE6D}
    .fil36 {fill:#DBBB82}
    .fil30 {fill:#E2B74B}
    .fil14 {fill:#E6D3B3}
    .fil21 {fill:#E9D9BA}
    .fil9 {fill:#EFE6D6}
    .fil15 {fill:#F1F4FA}
    .fil29 {fill:#F6EFE2}
    .fil16 {fill:#F7F0E3}
    .fil18 {fill:#FBF8F2}
    .fil17 {fill:#FCFBFB}
    .fil1 {fill:white}
    .fil19 {fill:white}
    .fil13 {fill:#657AA9;fill-rule:nonzero}
    .fil34 {fill:#75613D;fill-rule:nonzero}
    .fil12 {fill:#9598C9;fill-rule:nonzero}
    .fil27 {fill:#A34630;fill-rule:nonzero}
    .fil25 {fill:#A38755;fill-rule:nonzero}
    .fil10 {fill:#B7C5E4;fill-rule:nonzero}
    .fil31 {fill:#BB9B61;fill-rule:nonzero}
    .fil33 {fill:#D2AE6D;fill-rule:nonzero}
    .fil11 {fill:#D3D0E7;fill-rule:nonzero}
    .fil5 {fill:#D7B77D;fill-rule:nonzero}
    .fil35 {fill:#DBBB82;fill-rule:nonzero}
    .fil26 {fill:#DCC08D;fill-rule:nonzero}
    .fil7 {fill:#DFC596;fill-rule:nonzero}
    .fil28 {fill:#E2B74B;fill-rule:nonzero}
    .fil4 {fill:#E2CBA1;fill-rule:nonzero}
    .fil6 {fill:#E8D5B3;fill-rule:nonzero}
    .fil8 {fill:#EBDBBD;fill-rule:nonzero}
    .fil3 {fill:#EDE2CC;fill-rule:nonzero}
    .fil24 {fill:#F6EFE2;fill-rule:nonzero}
    .fil2 {fill:#F7F0E3;fill-rule:nonzero}
    .fil32 {fill:white;fill-rule:nonzero}
   ]]>
  </style>
 </defs>
 <g id="Layer_x0020_1">
  <metadata id="CorelCorpID_0Corel-Layer"/>
  <g id="_2137078366560">
   <g>
    <g>
     <path class="fil0" d="M63914 18652c0,-5661 -4589,-10250 -10250,-10250 -5661,0 -10250,4589 -10250,10250 0,5661 4589,10250 10250,10250 5661,0 10250,-4589 10250,-10250z"/>
     <path class="fil1" d="M55596 21553l0 1933 -7735 0 0 -1933 7735 0zm-7735 -5802l0 -1935c3868,0 7738,0 11606,0l-1935 1935c-3224,0 -6447,0 -9671,0l0 0zm11606 1932c0,1935 0,3870 0,5803l-1935 0 0 -3868 0 0 -9671 0 0 -1935c3868,0 7735,0 11606,0l0 0z"/>
    </g>
    <g>
     <path class="fil2" d="M0 102958c3095,252 18948,5658 19537,4790 2880,-4243 10800,-4251 13515,-7148 7683,-8198 -18323,622 12665,-10392 3437,-1221 14195,-2387 15215,-5439 939,-2826 5795,1902 5443,-1025 -346,-2921 8739,-3426 11508,-5172 2857,-1806 6846,-1100 10283,-315 5649,1291 17657,6363 21523,-130 2657,-4462 -3221,-9014 -5045,-13776 -1936,-5068 1185,-10801 6130,-14062 4945,-3262 11327,-4477 17545,-5013 4710,-405 9532,-490 13996,-1820 4470,-1331 8647,-4247 9544,-8209 1813,-7999 -9684,-13652 -11867,-21581 -1360,-4937 1297,-10189 5691,-13666l-28240 0c3068,8454 1291,19709 -10722,21045 -12319,1501 -26397,-8504 -35783,1000 -7039,7004 1760,18509 -9386,23512 -10222,4169 -20444,1446 -30666,99 -4589,-605 -11535,-1500 -15522,888 -5724,3428 -3340,15479 -15364,12992l0 43422z"/>
     <path class="fil3" d="M0 104276c57763,21809 47588,-6490 58961,-14881 793,-585 1773,-1154 2858,-1695 4687,-2340 11350,-4188 13559,-4811 8429,-2377 17787,-2918 23239,-1939 10321,1855 14401,-3172 9660,-10513 -1289,-1996 -2842,-4021 -3633,-6086 -1936,-5068 1185,-10801 6130,-14062 4945,-3262 11327,-4477 17545,-5013 4710,-405 9532,-490 13996,-1820 4470,-1331 8647,-4247 9544,-8209 1813,-7999 -9684,-13652 -11867,-21581 -1360,-4937 1297,-10189 5691,-13666l-15868 0c-774,5002 -393,10365 528,13286 1689,5343 5807,10580 4235,15953 -1760,6023 -10013,8994 -17293,8969 -7280,-25 -14389,-2101 -21669,-2096 -5731,5 -12107,1776 -14583,6183 -4235,7534 5538,15868 4535,24177 -962,7978 -11551,12650 -20954,12801 -9403,150 -18577,-2667 -27981,-2817 -5593,-87 -16937,2081 -17827,7497 -511,3107 4256,5162 6655,7405 4537,4241 4894,10083 -3273,10613 -7365,477 -18635,-4112 -22188,-6060l0 8365z"/>
    </g>
    <g>
     <path class="fil2" d="M51789 0l-51789 0 0 27830c3857,3625 9048,5433 14583,5832 21188,1526 36699,-12630 37206,-33662z"/>
     <path class="fil3" d="M22755 24763c5552,-1727 9977,-6300 12203,-11671 1461,-3522 2658,-8712 1907,-13092l-14873 0c-409,2164 -1187,4207 -2530,5989 -3213,4266 -8948,5923 -14287,5820 -1734,-33 -3511,-246 -5175,-743l0 9580c2450,1765 5404,2889 8345,3690 4701,1280 9759,1875 14410,427z"/>
    </g>
    <g>
     <path class="fil4" d="M145790 14583c-1031,-894 -1142,-2436 -248,-3468 887,-1023 2429,-1134 3461,-240 1023,887 1134,2429 247,3453 -894,1031 -2436,1142 -3460,255z"/>
     <path class="fil5" d="M147458 10267c550,25 1097,220 1545,608 1023,887 1134,2429 247,3453 -500,576 -1198,861 -1895,854 0,0 1746,-943 1632,-2542 -116,-1613 -1529,-2373 -1529,-2373z"/>
     <path class="fil5" d="M145802 13166c-138,160 -388,-57 -250,-216 145,-167 395,50 250,216z"/>
     <path class="fil5" d="M146852 14222c-144,167 -394,-50 -250,-217 138,-159 388,58 250,217z"/>
     <path class="fil5" d="M146758 11114c11,49 15,105 11,155 14,92 -59,175 -158,182 -85,6 -168,-66 -174,-151 -4,-56 -8,-113 -5,-163 -13,-91 59,-175 152,-174 91,-14 174,58 174,151z"/>
    </g>
    <g>
     <path class="fil6" d="M28206 58702c2429,2105 2694,5799 589,8228 -2104,2429 -5787,2681 -8216,576 -2430,-2105 -2692,-5775 -588,-8204 2105,-2429 5786,-2704 8215,-600z"/>
     <g>
      <path class="fil7" d="M24236 68920c-1304,-27 -2591,-490 -3657,-1414 -2430,-2105 -2692,-5775 -588,-8204 1181,-1362 2845,-2036 4510,-2010 0,0 -4145,2213 -3872,6027 272,3814 3607,5601 3607,5601z"/>
      <path class="fil7" d="M22610 60256c7,96 13,192 20,288 11,144 152,266 296,256 155,-23 266,-152 267,-308 -7,-96 -25,-179 -19,-264 -23,-155 -164,-278 -308,-267 -144,10 -267,151 -256,295z"/>
      <path class="fil7" d="M28687 63474c245,-283 -192,-661 -437,-379 -234,270 203,649 437,379z"/>
      <path class="fil7" d="M23101 63247c312,-360 -267,-861 -578,-501 -323,372 255,874 578,501z"/>
     </g>
     <g>
      <path class="fil7" d="M23065 64768l134 -154c156,-180 -127,-425 -283,-245l-134 154c-155,180 127,425 283,245z"/>
      <path class="fil7" d="M26251 62309c557,-643 -446,-1511 -1002,-869 -557,643 445,1511 1002,869z"/>
     </g>
    </g>
    <path class="fil8" d="M120891 87933c909,29 1638,775 1642,1699l15 0c8,-924 736,-1670 1643,-1699 -912,-30 -1643,-783 -1643,-1712l-12 0c0,929 -731,1682 -1645,1712z"/>
    <path class="fil8" d="M38565 35603c859,28 1549,733 1554,1607l14 0c7,-874 696,-1579 1553,-1607 -862,-28 -1553,-741 -1553,-1620l-12 0c0,879 -692,1592 -1556,1620z"/>
    <path class="fil8" d="M79284 9114c1408,46 2537,1202 2544,2632l23 0c12,-1430 1140,-2586 2544,-2632 -1411,-45 -2544,-1212 -2544,-2651l-19 0c0,1439 -1132,2606 -2548,2651z"/>
   </g>
   <g>
    <path class="fil9" d="M98617 80950c-5452,-979 -14810,-438 -23239,1939 -2209,623 -8872,2471 -13559,4811 -380,189 -747,382 -1098,578l3474 19673c668,-1353 13652,-2547 28460,-2547 14807,0 26471,1314 28459,2547l-73 -185 -21153 -26614c-408,-55 -817,-121 -1228,-194 -14,-2 -29,-5 -43,-8z"/>
    <path class="fil10" d="M64690 34962c1376,3394 -442,7335 -4060,8802 -3619,1468 -7668,-94 -9045,-3488 -1376,-3393 442,-7334 4061,-8802 3618,-1467 7668,94 9044,3488z"/>
    <path class="fil11" d="M81703 33697c1084,2672 -7710,8761 -19641,13599 -11931,4839 -22482,6595 -23566,3923 -1083,-2672 7082,-10312 19013,-15150 11931,-4839 23110,-5044 24194,-2372z"/>
    <path class="fil12" d="M81703 33697c1084,2672 -7710,8761 -19641,13599 -11931,4839 -22482,6595 -23566,3923 -1083,-2672 7710,-8761 19642,-13600 11931,-4838 22481,-6594 23565,-3922z"/>
    <path class="fil13" d="M78352 36477c810,1998 -6483,6842 -16290,10819 -9807,3977 -18414,5582 -19224,3583 -811,-1998 6482,-6842 16289,-10819 9807,-3977 18414,-5581 19225,-3583z"/>
    <ellipse class="fil14" cx="92655" cy="107951" rx="28459" ry="2547"/>
    <path class="fil15" d="M59195 33122c518,290 1297,188 1493,-445 164,-528 -209,-879 -666,-1095 -284,-134 -602,-215 -843,-253 -370,-59 -1002,-159 -1365,-27 -408,148 -616,580 -327,949 304,363 872,394 1262,583 -512,-18 -683,416 -165,623 174,86 491,183 667,59 161,-117 125,-293 -56,-394z"/>
    <path class="fil15" d="M60204 33895c94,-179 -111,-303 -279,-300 -432,10 130,566 279,300z"/>
    <path class="fil16" d="M98661 80958c11,2 22,4 33,6 -11,-2 -22,-4 -33,-6zm-13093 -14486c-962,7978 -11550,12650 -20954,12801 -1848,29 -3687,-56 -5521,-213l1174 6648 454 2570c351,-196 718,-389 1098,-578 4687,-2340 11350,-4188 13559,-4811 8429,-2377 17787,-2918 23239,-1939 4,1 8,2 12,2 10,2 21,4 32,6 26,5 52,9 78,14 391,68 772,127 1145,176l-14468 -18203c220,1175 294,2351 152,3527z"/>
    <path class="fil17" d="M64614 79273c9404,-151 19992,-4823 20954,-12801 142,-1176 68,-2352 -152,-3527l-15348 -19310c-2301,1187 -4854,2368 -7577,3486 -143,59 -286,117 -429,175 -145,59 -290,117 -434,175 -11,5 -22,9 -33,13 -2637,1055 -5200,1957 -7602,2693l5100 28883c1834,157 3673,242 5521,213z"/>
    <g>
     <path class="fil18" d="M56400 48708c1042,-423 1826,-916 1751,-1100 -75,-185 -980,8 -2023,430 -1042,423 -1826,916 -1751,1100 75,185 980,-8 2023,-430z"/>
     <path class="fil18" d="M59981 47255c75,185 981,-8 2023,-431 1043,-422 1827,-915 1752,-1100 -75,-184 -981,8 -2023,431 -1042,423 -1827,915 -1752,1100z"/>
     <path class="fil18" d="M64868 44884c75,184 981,-8 2023,-431 1042,-423 1826,-915 1751,-1100 -75,-185 -980,8 -2022,431 -1043,423 -1827,915 -1752,1100z"/>
    </g>
    <path class="fil19" d="M65427 43206c-1165,604 -2629,1276 -4241,1929 -4055,1645 -7514,2557 -7724,2038 -211,-520 2906,-2274 6961,-3918 1068,-433 2094,-815 3030,-1134 47,-16 94,-32 140,-47 378,-128 741,-244 1085,-349 371,-114 720,-213 1043,-299 1401,-370 2320,-468 2426,-209 2,6 4,12 6,18 35,141 -149,363 -510,642 -458,354 -1201,801 -2147,1294 -23,12 -46,24 -69,35z"/>
    <path class="fil20" d="M66891 44453c-1042,423 -1948,615 -2023,431 -75,-185 709,-677 1752,-1100 1042,-423 1947,-616 2022,-431 75,185 -709,677 -1751,1100zm-4400 2668c2768,-1138 5326,-2342 7545,-3526l-1889 -2378c-153,619 -3138,2368 -6961,3918 -3728,1512 -7064,2307 -7724,2038l522 2957c2348,-684 4930,-1575 7611,-2646 11,-4 22,-8 33,-13l434 -175 429 -175zm-758 -966c1042,-423 1948,-615 2023,-431 75,185 -709,678 -1752,1100 -1042,423 -1948,616 -2023,431 -75,-185 710,-677 1752,-1100zm-3582 1453c75,184 -709,677 -1751,1100 -1043,422 -1948,615 -2023,430 -75,-184 709,-677 1751,-1100 1043,-422 1948,-615 2023,-430z"/>
    <path class="fil21" d="M69797 42083c75,184 980,-8 2023,-431 1042,-423 1826,-915 1751,-1100 -75,-185 -981,8 -2023,431 -1042,422 -1826,915 -1751,1100zm-19156 7378c-1042,423 -1827,916 -1752,1100 75,185 981,-8 2023,-431 1042,-422 1827,-915 1752,-1099 -75,-185 -981,8 -2023,430zm-2180 -944c-75,-185 -980,8 -2023,430 -1042,423 -1826,916 -1751,1100 75,185 981,-8 2023,-431 1042,-422 1826,-915 1751,-1099zm1235 -2257c1042,-422 1826,-915 1751,-1099 -75,-185 -980,8 -2023,430 -1042,423 -1826,915 -1751,1100 75,185 980,-8 2023,-431zm4946 -2395c1043,-423 1827,-916 1752,-1100 -75,-185 -981,8 -2023,431 -1042,422 -1826,915 -1751,1099 74,185 980,-8 2022,-430zm5258 -2229c1043,-423 1827,-915 1752,-1100 -75,-185 -981,8 -2023,431 -1042,422 -1827,915 -1752,1100 75,184 981,-8 2023,-431zm4879 -1882c1042,-423 1826,-915 1751,-1100 -75,-184 -980,8 -2023,431 -1042,423 -1826,915 -1751,1100 75,185 980,-8 2023,-431zm5218 -1726c1042,-423 1826,-916 1751,-1100 -74,-185 -980,8 -2023,431 -1042,422 -1826,915 -1751,1099 75,185 980,-8 2023,-430zm2457 759c75,184 981,-8 2023,-431 1042,-423 1826,-915 1751,-1100 -74,-185 -980,8 -2022,431 -1043,423 -1827,915 -1752,1100z"/>
   </g>
   <g>
    <g>
     <g>
      <polygon class="fil5" points="72339,96504 88722,98135 90856,76701 74474,75070 "/>
      <path class="fil22" d="M75977 78086l5047 1574c818,255 1677,340 2529,252l5259 -548c1040,-72 1883,-922 1991,-2007l65 -654 -16382 -1632 -66 654c-108,1086 552,2086 1557,2361z"/>
      <path class="fil23" d="M83588 80250l5254 -547c755,-54 1402,-453 1818,-1034l108 -1078c-197,971 -992,1707 -1956,1773l-5259 548c-852,88 -1711,3 -2529,-252l-5047 -1574c-1005,-275 -1665,-1275 -1557,-2361l66 -654 -12 -1 -192 1926c288,672 853,1210 1599,1416l5042 1573c861,268 1768,359 2665,265z"/>
     </g>
     <path class="fil24" d="M82340 78113c652,64 1130,647 1065,1299l-307 3103c-65,652 -648,1130 -1300,1066 -652,-65 -1130,-648 -1066,-1300l308 -3103c64,-652 647,-1130 1300,-1065zm-553 5580c714,71 1352,-453 1423,-1167l307 -3103c71,-714 -452,-1352 -1166,-1423 -714,-70 -1353,453 -1423,1167l-308 3103c-70,714 453,1352 1167,1423z"/>
     <path class="fil25" d="M81027 78737c-68,684 432,1294 1116,1361 684,68 1294,-432 1361,-1116 68,-684 -432,-1293 -1116,-1361 -684,-68 -1294,432 -1361,1116z"/>
     <path class="fil26" d="M81631 78797c-35,350 221,663 572,697 350,35 663,-221 697,-572 35,-350 -221,-663 -572,-697 -350,-35 -663,221 -697,572z"/>
     <path class="fil25" d="M81970 78830c-16,164 103,309 266,325 163,16 309,-103 325,-266 16,-163 -103,-309 -266,-325 -163,-16 -309,103 -325,266z"/>
     <path class="fil25" d="M80640 82646c-68,684 432,1293 1116,1361 684,68 1293,-432 1361,-1116 68,-684 -432,-1294 -1116,-1361 -684,-68 -1294,432 -1361,1116z"/>
     <path class="fil26" d="M81244 82706c-35,350 221,663 572,697 350,35 663,-221 697,-572 35,-350 -221,-663 -572,-697 -350,-35 -663,221 -697,572z"/>
     <path class="fil25" d="M81583 82739c-16,163 103,309 266,325 163,16 309,-103 325,-266 16,-163 -103,-309 -266,-325 -163,-16 -309,103 -325,266z"/>
    </g>
    <g>
     <g>
      <polygon class="fil27" points="74093,98880 73582,98249 73196,98974 72816,95941 73621,95452 "/>
      <polygon class="fil27" points="72086,98907 71993,98100 71278,98505 72586,95742 73528,95761 "/>
      <path class="fil28" d="M73233 93622l-123 273c-61,138 -247,163 -342,45l-188 -233c-130,-161 -388,-47 -357,157l45 297c22,149 -121,270 -264,222l-285 -94c-195,-65 -351,171 -215,326l198 225c100,113 45,292 -101,329l-291 75c-199,51 -203,334 -5,391l289 82c145,41 195,221 93,332l-204 220c-141,151 9,391 206,331l288 -87c144,-44 284,80 257,229l-53 295c-36,204 220,324 353,167l195 -228c98,-115 283,-86 341,53l115 277c79,191 359,154 387,-50l40 -298c21,-149 192,-225 316,-139l247 171c169,117 385,-65 298,-252l-127 -272c-64,-136 39,-292 190,-287l300 10c206,7 289,-263 115,-373l-254 -160c-128,-81 -125,-268 5,-345l257 -154c178,-105 102,-377 -105,-376l-300 3c-151,1 -250,-158 -182,-293l133 -268c93,-185 -119,-373 -291,-260l-251 165c-127,82 -296,2 -312,-148l-33 -298c-22,-205 -301,-249 -385,-60z"/>
      <path class="fil29" d="M73296 94475c-290,-46 -571,44 -778,221 -168,144 -287,347 -324,582 -40,256 24,504 162,701 10,15 20,29 31,43 130,166 315,291 532,343 26,6 52,12 78,16 16,2 31,4 47,6 245,26 482,-43 669,-179 201,-146 345,-367 387,-631 82,-525 -278,-1020 -804,-1102z"/>
      <path class="fil30" d="M72666 95803c82,106 199,185 337,218 16,4 32,7 49,10 10,1 20,2 30,3 155,17 304,-27 423,-113 127,-92 218,-232 245,-399 52,-332 -176,-645 -509,-697 -183,-29 -361,27 -492,140 -106,91 -182,219 -205,368 -26,162 15,319 102,444 7,9 13,18 20,26z"/>
     </g>
     <polygon class="fil31" points="70345,96315 72437,80312 87447,82274 85416,97808 "/>
     <g>
      <polygon class="fil32" points="83645,102261 68690,99913 71929,79286 86884,81634 "/>
      <path class="fil33" d="M75842 82984l8385 1317c228,35 284,-318 56,-354l-8386 -1317c-228,-36 -283,318 -55,354z"/>
      <path class="fil33" d="M72863 84663l11035 1733c228,35 284,-318 56,-354l-11035 -1733c-228,-36 -284,318 -56,354z"/>
      <path class="fil33" d="M72534 86758l11035 1733c228,35 284,-318 56,-354l-11035 -1733c-228,-36 -284,318 -56,354z"/>
      <path class="fil33" d="M72205 88853l11035 1733c228,35 284,-318 56,-354l-11035 -1733c-228,-36 -284,318 -56,354z"/>
      <path class="fil33" d="M71876 90948l11035 1732c228,36 284,-317 56,-353l-11035 -1733c-228,-36 -284,318 -56,354z"/>
      <g>
       <polygon class="fil34" points="78819,99622 79499,99178 79644,99986 80935,97215 80319,96504 "/>
       <polygon class="fil34" points="80721,100263 81056,99523 81613,100127 81214,97097 80312,96827 "/>
       <path class="fil35" d="M81249 94880l33 299c16,150 185,230 311,147l251 -164c173,-113 384,74 292,259l-134 269c-67,135 32,293 183,292l300 -2c206,-2 282,270 105,376l-258 153c-129,77 -132,264 -4,345l254 160c174,110 91,380 -115,373l-300 -10c-151,-5 -254,151 -190,288l127 271c87,187 -129,370 -299,252l-246 -171c-125,-85 -296,-10 -316,140l-40 297c-28,204 -308,241 -387,50l-116 -276c-58,-140 -242,-169 -340,-54l-195 228c-134,157 -389,37 -353,-166l53 -296c27,-148 -113,-273 -258,-229l-287 87c-197,60 -347,-180 -207,-331l204 -220c103,-111 53,-291 -92,-332l-289 -82c-198,-57 -195,-339 5,-391l291 -74c146,-38 201,-217 101,-330l-198 -225c-137,-155 19,-391 215,-326l285 95c143,47 286,-73 263,-223l-45 -296c-31,-204 228,-318 358,-158l188 233c95,118 280,94 342,-44l122 -274c85,-189 364,-145 386,60z"/>
       <path class="fil29" d="M80927 95673c290,45 530,217 673,449 116,189 167,418 130,654 -40,255 -177,472 -369,617 -14,11 -28,21 -43,31 -175,119 -389,181 -612,164 -26,-2 -52,-5 -78,-9 -16,-3 -31,-5 -47,-9 -241,-50 -445,-188 -582,-375 -146,-200 -216,-456 -175,-719 83,-525 578,-886 1103,-803z"/>
       <path class="fil36" d="M81120 97131c-111,75 -246,114 -388,104 -16,-2 -33,-4 -49,-6 -10,-2 -20,-4 -30,-6 -153,-31 -282,-119 -368,-237 -92,-127 -137,-288 -111,-455 53,-332 366,-560 698,-508 184,29 335,137 426,284 73,120 106,265 82,414 -25,161 -112,298 -233,390 -9,7 -18,14 -27,20z"/>
      </g>
     </g>
     <path class="fil33" d="M82026 83955l-8385 -1317c-228,-36 -173,-389 55,-353l8385 1316c228,36 173,390 -55,354z"/>
    </g>
   </g>
  </g>
 </g>
</svg>
