<?xml version="1.0" encoding="UTF-8"?>
<!DOCTYPE svg PUBLIC "-//W3C//DTD SVG 1.1//EN" "http://www.w3.org/Graphics/SVG/1.1/DTD/svg11.dtd">
<!-- Creator: CorelDRAW X7 -->
<svg xmlns="http://www.w3.org/2000/svg" xml:space="preserve" width="27.1654in" height="11.4847in" version="1.1" style="shape-rendering:geometricPrecision; text-rendering:geometricPrecision; image-rendering:optimizeQuality; fill-rule:evenodd; clip-rule:evenodd"
viewBox="0 0 271654 114847"
 xmlns:xlink="http://www.w3.org/1999/xlink">
 <defs>
  <style type="text/css">
   <![CDATA[
    .fil16 {fill:#8D7549;fill-rule:nonzero}
    .fil19 {fill:#9A8051;fill-rule:nonzero}
    .fil15 {fill:#A38755;fill-rule:nonzero}
    .fil14 {fill:#B1935C;fill-rule:nonzero}
    .fil12 {fill:#BB9B61;fill-rule:nonzero}
    .fil13 {fill:#C5A46A;fill-rule:nonzero}
    .fil9 {fill:#D2AE6D;fill-rule:nonzero}
    .fil10 {fill:#D7B67C;fill-rule:nonzero}
    .fil6 {fill:#D7B77D;fill-rule:nonzero}
    .fil5 {fill:#DABD89;fill-rule:nonzero}
    .fil7 {fill:#E0C698;fill-rule:nonzero}
    .fil21 {fill:#E3D1B2;fill-rule:nonzero}
    .fil4 {fill:#E6D2AE;fill-rule:nonzero}
    .fil3 {fill:#E9D9BA;fill-rule:nonzero}
    .fil2 {fill:#F0E3CC;fill-rule:nonzero}
    .fil20 {fill:#F2E9D7;fill-rule:nonzero}
    .fil18 {fill:#F3E9D7;fill-rule:nonzero}
    .fil1 {fill:#F7F0E3;fill-rule:nonzero}
    .fil17 {fill:#FBF7F0;fill-rule:nonzero}
    .fil11 {fill:#FF5950;fill-rule:nonzero}
    .fil8 {fill:#FFCBAA;fill-rule:nonzero}
    .fil0 {fill:#FFDBBE;fill-rule:nonzero}
   ]]>
  </style>
 </defs>
 <g id="Layer_x0020_1">
  <metadata id="CorelCorpID_0Corel-Layer"/>
  <g id="_2897472044144">
   <g>
    <path class="fil0" d="M52498 99625c209,0 379,157 379,350 0,193 -170,350 -379,350 -210,0 -379,-157 -379,-350 0,-193 169,-350 379,-350z"/>
    <path class="fil1" d="M271654 54758c-627,-378 -5416,-3146 -11792,-3587 -6846,-474 -10903,2841 -16228,3630 -5324,789 -11663,-2729 -15973,-1838 -4311,891 -13185,5941 -18256,6414 -5071,474 -10903,-4734 -17241,-4892 -6339,-158 -10040,6746 -18407,7062 -8368,315 -16311,-2993 -23329,-2473 -7019,519 -14911,5327 -26860,5169 -11949,-158 -25744,-12650 -43330,-12335 -17586,316 -21072,6365 -21072,6365 0,0 31324,20200 141619,12783 68204,-3788 70853,-4215 70853,-4215l16 -2193 0 -9890z"/>
    <path class="fil2" d="M26586 59074c-18603,-6927 -2603,-14355 -1017,-15055 24599,209 45199,12135 69522,20992 32245,11741 80584,5071 115365,-1793 33754,-6661 59696,1295 61198,1770l0 1896 -724 19210 -270930 0 0 -9067 56659 -5768c0,0 -10528,-4909 -30073,-12185z"/>
    <path class="fil3" d="M25569 44019c-1585,700 -17586,8129 1017,15055 19545,7276 30073,12185 30073,12185l-56659 5768 0 -28976c9125,-2928 17559,-4100 25569,-4032z"/>
    <path class="fil4" d="M263474 77466c0,0 -30795,-8974 -64851,-5235 -34056,3739 -65576,6950 -103256,-1510 -37679,-8461 -95367,3830 -95367,3830l0 19688 271638 -1816 -8164 -14957z"/>
    <path class="fil5" d="M197445 89562c0,0 -24586,-1104 -30454,-6492 -3590,-3296 -114,-5232 3126,-6238 6998,-480 14207,-414 20511,759 5439,1011 11428,1932 17457,2531 16069,5242 4536,9840 4536,9840l58459 -1099c0,0 -9513,-2124 -15671,-10986 -3191,-4594 -578,-7759 2680,-9743 6841,-2484 12854,-2885 13565,-2925l0 29171 -113426 0 -6217 -3946c17164,2298 45434,-872 45434,-872z"/>
    <path class="fil6" d="M80644 79793c-395,-3460 3198,-4768 6854,-5215 18,1 37,2 55,3 19107,1109 32330,10771 32330,10771 -10950,5212 -27675,7525 -45188,8282l30614 -5656c0,0 -23881,-1329 -24665,-8185z"/>
    <path class="fil6" d="M13432 75229c9712,5976 -3266,13634 -3266,13634l44685 5037c-28930,-371 -54851,-3644 -54851,-3644l0 -23120c0,0 1094,787 3546,2028 3001,1836 6437,3942 9886,6065z"/>
    <path class="fil7" d="M170117 76832c-3240,1006 -6716,2942 -3126,6238 5868,5388 30453,6492 30453,6492 0,0 -28269,3170 -45433,871l-13269 -8424c0,0 15119,-4063 31375,-5177z"/>
    <path class="fil8" d="M74695 93634l-8414 1555 -11430 -1289c6549,84 13253,19 19844,-266z"/>
    <path class="fil7" d="M13432 75229c-3449,-2123 -6885,-4229 -9886,-6065 4421,2239 13257,5958 28065,9219 22999,5063 36808,-4891 55887,-3805 -3656,447 -7250,1755 -6854,5215 784,6855 24664,8185 24664,8185l-30612 5656c-6592,285 -13296,350 -19845,266l-44685 -5037c0,0 12978,-7658 3266,-13634z"/>
    <path class="fil7" d="M255409 77877c6158,8862 15671,10986 15671,10986l-58459 1099c0,0 11533,-4598 -4536,-9840 15314,1525 30881,982 38314,-5383 3613,-3093 7786,-5188 11689,-6605 -3257,1984 -5871,5149 -2679,9743z"/>
    <path class="fil9" d="M235119 90121c0,0 -22561,-4294 -28777,-3977 -6216,317 -49726,6969 -49726,6969l-51824 634c0,0 -15044,-10566 -32894,-10296 -16081,243 -49265,12681 -49265,12681l215394 941 -2908 -6952z"/>
    <path class="fil10" d="M13713 84358c6559,-1028 15249,-1703 25585,-919 5106,387 9371,1194 13141,2150 8909,7463 -10168,14482 -10168,14482l69251 1849c-1285,237 -1990,348 -1990,348l14624 -11 4685 125 -99469 304c-1421,-285 -3144,-597 -5211,-942 -27201,-4534 -18797,-12611 -10448,-17386z"/>
    <polygon class="fil11" points="166050,102224 166055,102269 142424,102341 142551,102243 "/>
    <path class="fil9" d="M141956 94057c-9088,219 -20107,-512 -21419,-5194 -1092,-3898 1003,-6825 3475,-8816 2396,-390 4604,-602 6531,-556 10918,264 22714,5560 29254,8991 -2976,534 -6291,1452 -10162,2889 -2608,968 -5177,1862 -7679,2686z"/>
    <path class="fil9" d="M243119 95604c-10761,-5720 -9288,-9723 -5281,-12271 1867,-518 3853,-921 6029,-1149 15020,-1576 26785,4292 27787,4809l0 15149 -38425 30c11304,-506 18023,-2244 9890,-6568z"/>
    <path class="fil12" d="M120537 88863c1312,4682 12331,5413 21419,5194 -14007,4614 -25882,7025 -30434,7863l-69251 -1849c0,0 19077,-7019 10168,-14482 9837,2494 16291,6011 25445,5782 10838,-271 31896,-9012 46128,-11324 -2472,1992 -4567,4918 -3475,8816z"/>
    <path class="fil13" d="M141956 94057c2502,-824 5071,-1718 7679,-2686 3871,-1437 7186,-2355 10162,-2889 9530,-1707 15565,557 25068,2572 10420,5188 935,9619 935,9619 0,0 14078,1099 28697,1514l-48447 37 -23499 19 -18395 14 -12634 -337c4552,-838 16427,-3249 30434,-7863z"/>
    <path class="fil12" d="M184865 91054c3887,825 8354,1608 13880,2059 20108,1644 27150,-6465 39093,-9780 -4007,2548 -5480,6551 5280,12271 8134,4324 1415,6062 -9889,6568l-18732 15c-14619,-415 -28697,-1513 -28697,-1513 0,0 9485,-4431 -935,-9620z"/>
    <path class="fil12" d="M0 98182l0 -10454c0,0 4959,-1999 13713,-3370 -8349,4776 -16753,12852 10448,17386 2067,344 3790,657 5211,942l-29372 90 0 -4594z"/>
    <path class="fil12" d="M41085 100071c-17136,1664 -22858,498 -24295,-1086 11154,-848 26399,-2166 41089,-3955 -232,1088 5495,2877 -16794,5041z"/>
    <path class="fil14" d="M216063 93743c32216,-3515 54205,3920 55591,4403l0 16078c-8840,-958 -42959,-5066 -55271,-12562 -6203,-3777 -4361,-6288 -320,-7919z"/>
    <path class="fil15" d="M16790 98985c1437,1583 7159,2750 24295,1086 22289,-2164 14296,-3496 14528,-4584 18593,-3839 39309,-2058 61202,-685 81224,5093 78049,1088 99248,-1224 -12728,5138 7896,15313 55591,20481l0 788 -271654 0 0 -14715c0,0 6733,-382 16790,-1147z"/>
    <path class="fil16" d="M251698 114847c-35537,-5893 -109181,-16758 -143858,-12019 -78256,10696 -107840,10336 -107840,10336l0 1683 251698 0z"/>
    <polygon class="fil17" points="51337,103901 59535,103901 60737,102828 52539,102828 "/>
    <polygon class="fil17" points="42558,103901 50756,103901 51958,102828 43760,102828 "/>
    <polygon class="fil17" points="50671,105601 58869,105601 60071,104528 51873,104528 "/>
    <polygon class="fil17" points="41891,105601 50089,105601 51291,104528 43093,104528 "/>
    <polygon class="fil3" points="39366,101992 78692,101992 78692,101496 39366,101496 "/>
    <path class="fil17" d="M62429 99722c0,0 -32,-3368 3574,-3368 3605,0 3573,3368 3573,3368l0 192 -7147 0 0 -192z"/>
    <polygon class="fil7" points="69576,99914 69576,101496 66002,101496 62429,101496 62429,99914 "/>
    <path class="fil18" d="M68288 100753c0,-172 151,-311 337,-311 186,0 337,139 337,311 0,171 -151,310 -337,310 -186,0 -337,-139 -337,-310z"/>
    <path class="fil18" d="M66540 100753c0,-172 151,-311 337,-311 186,0 336,139 336,311 0,171 -150,310 -336,310 -186,0 -337,-139 -337,-310z"/>
    <path class="fil18" d="M64792 100753c0,-172 151,-311 336,-311 187,0 337,139 337,311 0,171 -150,310 -337,310 -185,0 -336,-139 -336,-310z"/>
    <path class="fil18" d="M63044 100753c0,-172 151,-311 336,-311 187,0 337,139 337,311 0,171 -150,310 -337,310 -185,0 -336,-139 -336,-310z"/>
    <path class="fil17" d="M70442 99722c0,0 -32,-3368 3573,-3368 3605,0 3573,3368 3573,3368l0 192 -7146 0 0 -192z"/>
    <polygon class="fil7" points="77588,99914 77588,101496 74015,101496 70442,101496 70442,99914 "/>
    <path class="fil18" d="M76300 100753c0,-172 151,-311 337,-311 186,0 337,139 337,311 0,171 -151,310 -337,310 -186,0 -337,-139 -337,-310z"/>
    <path class="fil18" d="M74552 100753c0,-172 151,-311 337,-311 186,0 337,139 337,311 0,171 -151,310 -337,310 -186,0 -337,-139 -337,-310z"/>
    <path class="fil18" d="M72804 100753c0,-172 151,-311 337,-311 186,0 337,139 337,311 0,171 -151,310 -337,310 -186,0 -337,-139 -337,-310z"/>
    <path class="fil18" d="M71056 100753c0,-172 151,-311 337,-311 186,0 337,139 337,311 0,171 -151,310 -337,310 -186,0 -337,-139 -337,-310z"/>
    <path class="fil17" d="M43574 91715l0 0c1714,0 3103,1282 3103,2863l0 6918 -6207 0 0 -6918c0,-1581 1390,-2863 3104,-2863z"/>
    <polygon class="fil7" points="40470,96884 46677,96884 46677,96203 40470,96203 "/>
    <polygon class="fil7" points="40470,98815 46677,98815 46677,98134 40470,98134 "/>
    <path class="fil7" d="M43574 99268l0 0c-394,0 -713,294 -713,658l0 1570 1425 0 0 -1570c0,-364 -319,-658 -712,-658z"/>
    <path class="fil7" d="M44876 100071c0,-302 266,-546 593,-546 328,0 593,244 593,546 0,303 -265,547 -593,547 -327,0 -593,-244 -593,-547z"/>
    <path class="fil7" d="M41085 100071c0,-302 265,-546 593,-546 327,0 593,244 593,546 0,303 -266,547 -593,547 -328,0 -593,-244 -593,-547z"/>
    <path class="fil17" d="M48413 100702c0,0 -54,-5787 6140,-5787 6195,0 6140,5787 6140,5787l0 330 -12280 0 0 -330z"/>
    <polygon class="fil7" points="48413,101496 60693,101496 60693,101032 48413,101032 "/>
    <path class="fil7" d="M58829 100382c0,-171 150,-310 336,-310 187,0 337,139 337,310 0,172 -150,311 -337,311 -186,0 -336,-139 -336,-311z"/>
    <path class="fil7" d="M57018 100382c0,-171 151,-310 337,-310 186,0 337,139 337,310 0,172 -151,311 -337,311 -186,0 -337,-139 -337,-311z"/>
    <path class="fil7" d="M55208 100382c0,-171 151,-310 336,-310 187,0 337,139 337,310 0,172 -150,311 -337,311 -185,0 -336,-139 -336,-311z"/>
    <path class="fil7" d="M53397 100382c0,-171 151,-310 337,-310 186,0 337,139 337,310 0,172 -151,311 -337,311 -186,0 -337,-139 -337,-311z"/>
    <path class="fil7" d="M51587 100382c0,-171 151,-310 337,-310 186,0 336,139 336,310 0,172 -150,311 -336,311 -186,0 -337,-139 -337,-311z"/>
    <path class="fil7" d="M49776 100382c0,-171 151,-310 337,-310 186,0 337,139 337,310 0,172 -151,311 -337,311 -186,0 -337,-139 -337,-311z"/>
    <polygon class="fil18" points="90701,97971 98899,97971 100101,96898 91903,96898 "/>
    <polygon class="fil18" points="81921,97971 90119,97971 91322,96898 83124,96898 "/>
    <polygon class="fil18" points="90034,99670 98232,99670 99435,98598 91236,98598 "/>
    <polygon class="fil18" points="81255,99670 89453,99670 90655,98598 82457,98598 "/>
    <path class="fil18" d="M73109 94490c0,0 -74,-7842 8319,-7842 8394,0 8320,7842 8320,7842l0 447 -16639 0 0 -447z"/>
    <polygon class="fil7" points="73109,95566 89748,95566 89748,94937 73109,94937 "/>
    <path class="fil7" d="M87221 94057c0,-233 205,-421 457,-421 252,0 456,188 456,421 0,232 -204,420 -456,420 -252,0 -457,-188 -457,-420z"/>
    <path class="fil7" d="M84768 94057c0,-233 205,-421 457,-421 252,0 456,188 456,421 0,232 -204,420 -456,420 -252,0 -457,-188 -457,-420z"/>
    <path class="fil7" d="M82316 94057c0,-233 204,-421 456,-421 252,0 456,188 456,421 0,232 -204,420 -456,420 -252,0 -456,-188 -456,-420z"/>
    <path class="fil7" d="M79862 94057c0,-233 205,-421 457,-421 252,0 456,188 456,421 0,232 -204,420 -456,420 -252,0 -457,-188 -457,-420z"/>
    <path class="fil7" d="M77409 94057c0,-233 205,-421 457,-421 252,0 456,188 456,421 0,232 -204,420 -456,420 -252,0 -457,-188 -457,-420z"/>
    <path class="fil7" d="M74956 94057c0,-233 205,-421 457,-421 252,0 456,188 456,421 0,232 -204,420 -456,420 -252,0 -457,-188 -457,-420z"/>
    <path class="fil18" d="M59249 95189l10802 0c1170,0 2128,-884 2128,-1964 0,-1080 -958,-1963 -2128,-1963l-10802 0c-1170,0 -2128,883 -2128,1963 0,1080 958,1964 2128,1964z"/>
    <polygon class="fil7" points="70271,95604 59029,95604 59029,95189 70271,95189 "/>
    <polygon class="fil17" points="66282,91071 68739,91071 68739,95189 66282,95189 "/>
    <polygon class="fil17" points="60562,91071 63019,91071 63019,95189 60562,95189 "/>
    <polygon class="fil7" points="64380,95189 64897,95189 64897,91262 64380,91262 "/>
    <path class="fil18" d="M92806 95189l10802 0c1170,0 2128,-884 2128,-1964 0,-1080 -958,-1963 -2128,-1963l-10802 0c-1170,0 -2128,883 -2128,1963 0,1080 958,1964 2128,1964z"/>
    <polygon class="fil7" points="103828,95604 92586,95604 92586,95189 103828,95189 "/>
    <polygon class="fil17" points="99838,91071 102296,91071 102296,95189 99838,95189 "/>
    <polygon class="fil17" points="94118,91071 96576,91071 96576,95189 94118,95189 "/>
    <polygon class="fil7" points="97937,95189 98454,95189 98454,91262 97937,91262 "/>
    <path class="fil19" d="M137757 109252c0,0 28383,2191 44166,5595l-90482 0c-2926,-2244 14840,-7261 46316,-5595z"/>
    <path class="fil15" d="M77070 108043c0,0 15095,-2700 14050,-600 -1045,2099 -13428,4011 -18309,3755 -4881,-257 -2295,-2171 4259,-3155z"/>
   </g>
   <path class="fil18" d="M197913 25067c-707,-230 -1425,-295 -2108,-218 2113,797 3284,3002 2624,5028 -659,2026 -2904,3119 -5081,2519 506,464 1126,835 1832,1065 2484,808 5110,-415 5864,-2733 755,-2318 -647,-4852 -3131,-5661z"/>
   <path class="fil20" d="M69961 39029c-1565,-52 -2820,-1339 -2831,-2931l-24 0c-10,1592 -1266,2879 -2834,2931 1572,52 2834,1349 2834,2952l21 0c0,-1603 1262,-2900 2834,-2952z"/>
   <path class="fil9" d="M126780 56442c-333,-11 -600,-285 -602,-624l-6 0c-2,339 -269,613 -603,624 335,11 603,287 603,628l5 0c0,-341 269,-617 603,-628z"/>
   <path class="fil21" d="M173828 56356c-351,11 -633,300 -635,656l-6 0c-3,-356 -283,-645 -635,-656 353,-12 636,-302 636,-662l5 0c0,360 283,650 635,662z"/>
   <path class="fil9" d="M213467 48233c66,-104 201,-135 302,-73 104,66 136,202 73,306 -66,105 -202,139 -302,73 -105,-66 -136,-201 -73,-306z"/>
   <path class="fil9" d="M222963 45305c66,-104 202,-135 303,-73 104,66 135,202 69,306 -62,105 -198,136 -302,73 -101,-66 -132,-201 -70,-306z"/>
   <path class="fil9" d="M224851 15250c66,-105 202,-136 303,-70 104,63 135,202 73,306 -66,104 -202,136 -306,70 -101,-66 -133,-202 -70,-306l0 0z"/>
   <path class="fil9" d="M214757 43358c66,-104 201,-136 302,-69 105,62 136,201 73,305 -66,105 -201,136 -306,70 -101,-66 -132,-202 -69,-306l0 0z"/>
   <path class="fil9" d="M216055 22612c63,105 202,136 303,70 104,-63 136,-202 69,-306 -62,-104 -198,-136 -302,-70 -101,66 -132,202 -70,306z"/>
   <path class="fil9" d="M231590 26834c67,104 202,139 306,73 101,-66 133,-202 70,-306 -66,-105 -202,-136 -302,-70 -105,63 -136,202 -73,303l-1 0z"/>
   <path class="fil9" d="M216646 31260c66,105 201,136 302,70 104,-66 136,-202 73,-306 -66,-104 -202,-136 -306,-70 -101,63 -132,202 -69,306l0 0z"/>
   <path class="fil9" d="M209085 33436c581,-21 1050,-501 1053,-1092l11 0c3,591 469,1071 1054,1092 -588,17 -1058,500 -1058,1095l-7 0c0,-595 -469,-1078 -1053,-1095z"/>
   <path class="fil9" d="M99979 32868c66,-105 202,-136 303,-73 104,66 135,201 73,306 -66,104 -202,139 -303,73 -104,-66 -136,-202 -73,-306z"/>
   <path class="fil9" d="M61639 44746c66,-105 202,-136 303,-73 104,66 135,201 69,306 -62,104 -198,135 -302,73 -101,-66 -132,-202 -70,-306z"/>
   <path class="fil9" d="M121699 12124c66,-105 202,-136 303,-70 104,63 135,202 73,306 -66,105 -202,136 -306,70 -101,-66 -132,-202 -70,-306l0 0z"/>
   <path class="fil9" d="M111605 40232c66,-104 202,-135 302,-69 105,62 136,201 73,306 -66,104 -201,135 -306,69 -100,-66 -132,-201 -69,-306l0 0z"/>
   <path class="fil9" d="M112904 19487c62,104 201,135 302,69 104,-62 136,-202 70,-306 -63,-104 -199,-135 -303,-69 -101,66 -132,201 -69,306z"/>
   <path class="fil9" d="M102055 50767c66,104 201,139 306,73 100,-66 132,-202 69,-306 -66,-104 -202,-136 -302,-70 -105,63 -136,202 -73,303l0 0z"/>
   <path class="fil9" d="M34541 28265c66,104 201,135 302,69 104,-66 136,-202 73,-306 -66,-104 -202,-136 -306,-69 -101,62 -132,201 -69,306l0 0z"/>
   <path class="fil9" d="M249904 17791c66,-104 202,-136 302,-73 105,66 136,202 73,306 -66,104 -201,139 -302,73 -104,-66 -136,-202 -73,-306z"/>
   <path class="fil9" d="M130407 32451c66,-104 202,-136 303,-73 104,66 135,202 69,306 -62,104 -198,136 -302,73 -101,-66 -132,-202 -70,-306z"/>
   <path class="fil9" d="M155250 17542c66,-104 201,-136 302,-70 104,63 136,202 73,306 -66,105 -202,136 -306,70 -101,-66 -132,-202 -69,-306l0 0z"/>
   <path class="fil9" d="M181973 42381c66,-105 202,-136 303,-70 104,63 135,202 73,306 -67,104 -202,136 -306,70 -101,-66 -133,-202 -70,-306l0 0z"/>
   <path class="fil9" d="M146454 24905c63,104 202,135 302,69 105,-62 136,-201 70,-306 -63,-104 -198,-135 -302,-69 -101,66 -133,201 -70,306z"/>
   <path class="fil9" d="M161989 29126c66,104 202,139 306,73 101,-66 132,-202 70,-306 -66,-104 -202,-136 -303,-70 -104,63 -136,202 -73,303l0 0z"/>
   <path class="fil9" d="M147044 33553c66,104 202,135 303,69 104,-66 135,-201 73,-306 -66,-104 -202,-135 -306,-69 -101,62 -133,201 -70,306l0 0z"/>
   <path class="fil9" d="M254727 45611c341,-12 617,-294 619,-641l6 0c2,347 276,629 620,641 -346,10 -622,295 -622,644l-4 0c0,-349 -276,-634 -619,-644z"/>
   <path class="fil9" d="M78541 40453c66,-105 202,-136 302,-73 105,66 136,201 73,306 -66,104 -201,139 -302,73 -104,-66 -136,-202 -73,-306z"/>
   <path class="fil9" d="M88037 37525c67,-105 202,-136 303,-73 104,66 136,201 70,306 -63,104 -199,135 -303,73 -101,-66 -132,-202 -70,-306z"/>
   <path class="fil9" d="M89925 7469c66,-104 202,-136 303,-70 104,63 135,202 73,306 -66,105 -202,136 -306,70 -101,-66 -132,-202 -70,-306l0 0z"/>
   <path class="fil9" d="M62959 25043c66,-104 202,-136 303,-69 104,62 135,201 73,306 -66,104 -202,135 -306,69 -101,-66 -133,-202 -70,-306l0 0z"/>
   <path class="fil9" d="M49753 341c63,104 202,135 302,69 105,-62 136,-201 70,-306 -63,-104 -198,-135 -303,-69 -100,66 -132,201 -69,306z"/>
   <path class="fil9" d="M13171 37086c66,105 201,139 306,73 101,-66 132,-201 69,-306 -66,-104 -201,-135 -302,-69 -104,62 -136,202 -73,302l0 0z"/>
   <path class="fil9" d="M81720 23480c66,104 201,135 302,69 105,-66 136,-201 73,-306 -66,-104 -201,-135 -306,-69 -101,62 -132,201 -69,306l0 0z"/>
   <path class="fil9" d="M16280 16871c580,-21 1050,-501 1053,-1092l11 0c3,591 469,1071 1053,1092 -587,18 -1057,501 -1057,1095l-7 0c0,-594 -469,-1077 -1053,-1095z"/>
   <path class="fil18" d="M52264 36256c-391,-127 -788,-163 -1166,-121 1169,441 1816,1660 1452,2781 -365,1120 -1607,1724 -2811,1393 281,257 623,461 1014,589 1374,447 2826,-230 3243,-1511 417,-1282 -358,-2684 -1732,-3131z"/>
  </g>
 </g>
</svg>
