<?xml version="1.0" encoding="UTF-8"?>
<!DOCTYPE svg PUBLIC "-//W3C//DTD SVG 1.1//EN" "http://www.w3.org/Graphics/SVG/1.1/DTD/svg11.dtd">
<!-- Creator: CorelDRAW X7 -->
<svg xmlns="http://www.w3.org/2000/svg" xml:space="preserve" width="8.85827in" height="6.54594in" version="1.1" style="shape-rendering:geometricPrecision; text-rendering:geometricPrecision; image-rendering:optimizeQuality; fill-rule:evenodd; clip-rule:evenodd"
viewBox="0 0 88583 65459"
 xmlns:xlink="http://www.w3.org/1999/xlink">
 <defs>
  <style type="text/css">
   <![CDATA[
    .fil22 {fill:none;fill-rule:nonzero}
    .fil20 {fill:#B9C2D8}
    .fil23 {fill:#BB9B61}
    .fil0 {fill:#D2AE6D}
    .fil36 {fill:#DBBB82}
    .fil30 {fill:#E2B74B}
    .fil14 {fill:#E6D3B3}
    .fil21 {fill:#E9D9BA}
    .fil9 {fill:#EFE6D6}
    .fil15 {fill:#F1F4FA}
    .fil29 {fill:#F6EFE2}
    .fil16 {fill:#F7F0E3}
    .fil18 {fill:#FBF8F2}
    .fil17 {fill:#FCFBFB}
    .fil1 {fill:white}
    .fil19 {fill:white}
    .fil13 {fill:#657AA9;fill-rule:nonzero}
    .fil34 {fill:#75613D;fill-rule:nonzero}
    .fil12 {fill:#9598C9;fill-rule:nonzero}
    .fil27 {fill:#A34630;fill-rule:nonzero}
    .fil25 {fill:#A38755;fill-rule:nonzero}
    .fil10 {fill:#B7C5E4;fill-rule:nonzero}
    .fil31 {fill:#BB9B61;fill-rule:nonzero}
    .fil33 {fill:#D2AE6D;fill-rule:nonzero}
    .fil11 {fill:#D3D0E7;fill-rule:nonzero}
    .fil5 {fill:#D7B77D;fill-rule:nonzero}
    .fil35 {fill:#DBBB82;fill-rule:nonzero}
    .fil26 {fill:#DCC08D;fill-rule:nonzero}
    .fil7 {fill:#DFC596;fill-rule:nonzero}
    .fil28 {fill:#E2B74B;fill-rule:nonzero}
    .fil4 {fill:#E2CBA1;fill-rule:nonzero}
    .fil6 {fill:#E8D5B3;fill-rule:nonzero}
    .fil8 {fill:#EBDBBD;fill-rule:nonzero}
    .fil3 {fill:#EDE2CC;fill-rule:nonzero}
    .fil24 {fill:#F6EFE2;fill-rule:nonzero}
    .fil2 {fill:#F7F0E3;fill-rule:nonzero}
    .fil32 {fill:white;fill-rule:nonzero}
   ]]>
  </style>
 </defs>
 <g id="Layer_x0020_1">
  <metadata id="CorelCorpID_0Corel-Layer"/>
  <g id="_1759342444816">
   <g>
    <g>
     <path class="fil0" d="M37235 10866c0,-3297 -2674,-5971 -5971,-5971 -3298,0 -5972,2674 -5972,5971 0,3298 2674,5972 5972,5972 3297,0 5971,-2674 5971,-5972z"/>
     <path class="fil1" d="M32389 12557l0 1125 -4506 0 0 -1125 4506 0zm-4506 -4508c2253,0 4508,0 6761,0l-1127 1127c-1878,0 -3756,0 -5634,0l0 -1127zm6761 5633l-1127 0 0 -2253 -5634 0 0 -1127c2253,0 4506,0 6761,0 0,0 0,3099 0,3380z"/>
    </g>
    <g>
     <path class="fil2" d="M0 59981c1803,147 11039,3296 11382,2791 1678,-2472 6292,-2476 7874,-4164 4475,-4776 -10675,362 7378,-6055 2002,-711 8269,-1390 8864,-3168 547,-1647 3376,1108 3171,-597 -202,-1702 5091,-1996 6704,-3013 1664,-1052 3988,-641 5991,-184 3291,752 10286,3707 12538,-76 1549,-2599 -1876,-5251 -2939,-8026 -1127,-2952 691,-6292 3572,-8192 2881,-1900 6599,-2608 10221,-2920 2744,-236 5554,-285 8154,-1061 2604,-775 5037,-2474 5560,-4782 1056,-4660 -5642,-7953 -6913,-12572 -793,-2877 755,-5937 3315,-7962l-16452 0c1788,4925 752,11482 -6247,12260 -7176,875 -15378,-4954 -20846,583 -4101,4080 1025,10783 -5468,13697 -5955,2429 -11910,843 -17866,58 -2673,-352 -6720,-874 -9043,518 -3334,1997 -1945,9017 -8950,7568l0 25297z"/>
     <path class="fil3" d="M0 60749c33651,12705 27724,-3781 34349,-8669 463,-341 1033,-672 1665,-988 2731,-1363 6613,-2439 7900,-2802 4910,-1385 10362,-1700 13538,-1130 6013,1080 8390,-1848 5628,-6125 -751,-1162 -1656,-2343 -2117,-3546 -1127,-2952 691,-6292 3572,-8192 2881,-1900 6599,-2608 10221,-2920 2744,-236 5554,-285 8154,-1061 2604,-775 5037,-2474 5560,-4782 1056,-4660 -5642,-7953 -6913,-12572 -793,-2877 755,-5936 3315,-7962l-9244 0c-451,2914 -229,6038 307,7740 984,3113 3383,6164 2468,9294 -1026,3509 -5834,5240 -10075,5225 -4241,-14 -8383,-1224 -12624,-1221 -3339,3 -7054,1035 -8496,3602 -2467,4389 3226,9244 2642,14085 -561,4648 -6729,7370 -12207,7458 -5478,87 -10823,-1554 -16301,-1641 -3259,-51 -9868,1212 -10386,4367 -298,1811 2479,3007 3877,4314 2643,2471 2851,5874 -1907,6183 -4291,278 -10856,-2395 -12926,-3530l0 4873z"/>
    </g>
    <g>
     <path class="fil2" d="M30171 0l-30171 0 0 16213c2247,2112 5271,3166 8496,3398 12344,889 21380,-7358 21675,-19611z"/>
     <path class="fil3" d="M13256 14426c3235,-1006 5813,-3670 7110,-6799 851,-2052 1548,-5075 1111,-7627l-8665 0c-238,1261 -692,2451 -1474,3489 -1872,2486 -5213,3451 -8323,3391 -1010,-19 -2046,-144 -3015,-433l0 5581c1427,1028 3148,1683 4862,2150 2739,745 5685,1092 8394,248z"/>
    </g>
    <g>
     <path class="fil4" d="M84934 8496c-600,-521 -665,-1420 -144,-2020 517,-597 1415,-661 2016,-140 596,516 661,1415 144,2011 -521,601 -1419,665 -2016,149z"/>
     <path class="fil5" d="M85906 5981c320,15 639,129 900,355 596,516 661,1415 144,2011 -291,336 -698,502 -1104,498 0,0 1017,-550 951,-1481 -68,-940 -891,-1383 -891,-1383z"/>
     <path class="fil5" d="M84942 7671c-81,92 -227,-34 -146,-127 84,-97 230,29 146,127z"/>
     <path class="fil5" d="M85553 8286c-84,97 -230,-30 -145,-127 80,-92 226,34 145,127z"/>
     <path class="fil5" d="M85498 6475c6,28 9,61 7,90 8,54 -34,102 -92,106 -50,4 -98,-38 -102,-88 -2,-33 -4,-66 -2,-95 -8,-53 34,-102 88,-101 53,-8 102,34 101,88z"/>
    </g>
    <g>
     <path class="fil6" d="M16432 34199c1416,1226 1570,3378 343,4793 -1226,1415 -3371,1562 -4786,336 -1416,-1226 -1569,-3364 -342,-4780 1226,-1415 3370,-1575 4785,-349z"/>
     <g>
      <path class="fil7" d="M14119 40152c-759,-16 -1509,-286 -2130,-824 -1416,-1226 -1569,-3364 -342,-4780 687,-793 1656,-1186 2627,-1171 0,0 -2415,1290 -2256,3512 159,2222 2101,3263 2101,3263z"/>
      <path class="fil7" d="M13172 35104c4,56 8,112 12,168 6,84 88,155 172,149 90,-13 155,-88 156,-180 -4,-56 -15,-104 -11,-153 -14,-91 -96,-162 -180,-156 -84,6 -155,88 -149,172z"/>
      <path class="fil7" d="M16712 36979c143,-165 -112,-386 -254,-221 -137,157 118,378 254,221z"/>
      <path class="fil7" d="M13458 36846c182,-209 -155,-501 -337,-292 -188,218 149,510 337,292z"/>
     </g>
     <g>
      <path class="fil7" d="M13437 37733l78 -90c91,-105 -74,-248 -165,-143l-77 90c-91,105 73,248 164,143z"/>
      <path class="fil7" d="M15293 36300c325,-374 -259,-880 -584,-506 -324,374 260,880 584,506z"/>
     </g>
    </g>
    <path class="fil8" d="M70429 51228c529,17 954,452 957,990l8 0c5,-538 429,-973 957,-990 -531,-17 -957,-456 -957,-997l-7 0c0,541 -426,980 -958,997z"/>
    <path class="fil8" d="M22467 20741c501,17 902,428 905,937l8 0c4,-509 406,-920 906,-937 -503,-16 -906,-431 -906,-943l-6 0c0,512 -403,927 -907,943z"/>
    <path class="fil8" d="M46189 5310c821,27 1478,700 1483,1533l13 0c7,-833 664,-1506 1482,-1533 -822,-27 -1482,-707 -1482,-1545l-11 0c0,838 -660,1518 -1485,1545z"/>
   </g>
   <g>
    <path class="fil9" d="M57452 47160c-3176,-571 -8628,-255 -13538,1130 -1287,363 -5169,1439 -7900,2802 -221,111 -435,223 -639,337l2024 11461c389,-788 7953,-1483 16580,-1483 8626,0 15422,765 16580,1483l-43 -107 -12324 -15505c-237,-33 -475,-71 -714,-113 -9,-2 -17,-3 -26,-5z"/>
    <path class="fil10" d="M37687 20368c802,1977 -257,4273 -2365,5128 -2109,855 -4468,-55 -5269,-2032 -802,-1977 257,-4273 2365,-5128 2108,-855 4467,55 5269,2032z"/>
    <path class="fil11" d="M47599 19631c631,1557 -4492,5104 -11443,7923 -6951,2819 -13098,3842 -13729,2285 -631,-1557 4126,-6007 11077,-8826 6950,-2819 13463,-2939 14095,-1382z"/>
    <path class="fil12" d="M47599 19631c631,1557 -4492,5104 -11443,7923 -6951,2819 -13098,3842 -13729,2285 -631,-1557 4492,-5104 11443,-7923 6951,-2818 13097,-3842 13729,-2285z"/>
    <path class="fil13" d="M45646 21251c472,1164 -3777,3986 -9490,6303 -5713,2317 -10728,3251 -11200,2087 -472,-1164 3777,-3986 9490,-6303 5714,-2317 10728,-3251 11200,-2087z"/>
    <ellipse class="fil14" cx="53979" cy="62890" rx="16580" ry="1484"/>
    <path class="fil15" d="M34486 19296c302,169 755,110 870,-259 95,-307 -122,-512 -388,-638 -166,-78 -351,-125 -492,-147 -215,-34 -583,-93 -794,-16 -239,86 -359,338 -191,553 177,212 508,229 735,340 -298,-11 -398,242 -96,362 101,50 286,107 389,35 93,-68 72,-171 -33,-230z"/>
    <path class="fil15" d="M35073 19746c55,-104 -64,-176 -162,-174 -252,6 76,330 162,174z"/>
    <path class="fil16" d="M57478 47165c6,1 13,2 19,3 -6,-1 -13,-2 -19,-3zm-7628 -8440c-560,4648 -6729,7370 -12207,7458 -1077,17 -2148,-33 -3216,-124l684 3873 264 1497c204,-114 418,-226 639,-337 2731,-1363 6613,-2439 7900,-2802 4910,-1385 10362,-1700 13538,-1130 2,1 5,1 7,1 6,1 12,3 19,4 15,2 30,5 45,8 228,40 450,74 667,102l-8428 -10604c128,684 171,1369 88,2054z"/>
    <path class="fil17" d="M37643 46183c5478,-88 11647,-2810 12207,-7458 83,-685 40,-1370 -88,-2054l-8942 -11250c-1341,692 -2828,1380 -4414,2031 -83,34 -166,68 -250,102 -84,34 -169,68 -253,102 -6,2 -13,5 -19,8 -1536,614 -3030,1140 -4429,1568l2972 16827c1068,91 2139,141 3216,124z"/>
    <g>
     <path class="fil18" d="M32857 28376c607,-246 1064,-533 1021,-641 -44,-107 -572,5 -1179,251 -607,246 -1064,533 -1020,641 43,108 571,-5 1178,-251z"/>
     <path class="fil18" d="M34944 27530c44,107 571,-5 1178,-251 608,-246 1064,-533 1021,-641 -44,-107 -571,5 -1179,251 -607,246 -1064,533 -1020,641z"/>
     <path class="fil18" d="M37791 26148c43,108 571,-4 1178,-251 607,-246 1064,-533 1021,-640 -44,-108 -572,4 -1179,251 -607,246 -1064,533 -1020,640z"/>
    </g>
    <path class="fil19" d="M38116 25171c-678,352 -1531,743 -2471,1124 -2362,958 -4377,1489 -4499,1187 -123,-303 1693,-1324 4055,-2282 622,-253 1220,-475 1765,-661 28,-9 55,-19 82,-28 220,-74 432,-142 632,-203 216,-66 419,-124 608,-174 816,-215 1352,-273 1413,-121 1,3 2,6 3,10 21,82 -86,211 -297,374 -266,206 -700,466 -1251,754 -13,6 -26,13 -40,20z"/>
    <path class="fil20" d="M38969 25897c-607,247 -1135,359 -1178,251 -44,-107 413,-394 1020,-640 607,-247 1135,-359 1179,-251 43,107 -414,394 -1021,640zm-2563 1555c1612,-663 3103,-1364 4396,-2054l-1101 -1385c-89,360 -1828,1379 -4055,2282 -2172,881 -4116,1344 -4500,1187l304 1723c1368,-399 2872,-918 4434,-1541 6,-3 13,-6 19,-8l253 -102 250 -102zm-442 -563c608,-246 1135,-358 1179,-251 43,108 -413,395 -1021,641 -607,246 -1134,358 -1178,251 -44,-108 413,-395 1020,-641zm-2086 846c43,108 -414,395 -1021,641 -607,246 -1135,359 -1178,251 -44,-108 413,-395 1020,-641 607,-246 1135,-358 1179,-251z"/>
    <path class="fil21" d="M40662 24517c44,107 571,-5 1179,-251 607,-247 1064,-534 1020,-641 -44,-108 -571,5 -1178,251 -608,246 -1064,533 -1021,641zm-11160 4298c-607,246 -1064,533 -1020,641 43,108 571,-5 1178,-251 608,-246 1064,-533 1021,-641 -44,-107 -572,5 -1179,251zm-1269 -550c-44,-108 -572,5 -1179,251 -607,246 -1064,533 -1020,641 43,107 571,-5 1178,-251 607,-247 1064,-534 1021,-641zm719 -1315c607,-246 1064,-533 1020,-640 -44,-108 -571,4 -1178,251 -608,246 -1065,533 -1021,640 44,108 571,-4 1179,-251zm2882 -1395c607,-246 1064,-533 1020,-641 -44,-108 -571,5 -1179,251 -607,246 -1064,533 -1020,641 44,107 571,-5 1179,-251zm3063 -1299c607,-246 1064,-533 1020,-640 -44,-108 -571,4 -1178,250 -608,247 -1064,534 -1021,641 44,108 571,-4 1179,-251zm2842 -1096c607,-246 1064,-533 1020,-641 -43,-107 -571,5 -1178,251 -608,246 -1064,533 -1021,641 44,108 571,-5 1179,-251zm3040 -1006c607,-246 1064,-533 1020,-641 -43,-107 -571,5 -1178,251 -608,247 -1064,534 -1021,641 44,108 571,-5 1179,-251zm1431 442c44,108 571,-4 1179,-250 607,-247 1064,-534 1020,-641 -43,-108 -571,4 -1178,251 -608,246 -1064,533 -1021,640z"/>
   </g>
   <g>
    <g>
     <g>
      <polygon class="fil5" points="42143,56221 51688,57172 52931,44685 43387,43734 "/>
      <path class="fil22" d="M44263 45491l2940 917c477,149 977,199 1473,147l3064 -319c606,-42 1097,-537 1160,-1169l38 -381 -9544 -951 -38 381c-63,633 321,1215 907,1375z"/>
      <path class="fil23" d="M48697 46752l3060 -319c440,-31 817,-263 1060,-602l63 -628c-115,566 -579,994 -1140,1033l-3064 319c-496,52 -996,2 -1473,-147l-2940 -917c-586,-160 -970,-742 -907,-1375l38 -381 -7 -1 -112 1122c168,392 497,705 932,826l2937 916c502,156 1030,209 1553,154z"/>
     </g>
     <path class="fil24" d="M47969 45507c380,38 659,377 621,757l-179 1808c-37,380 -377,658 -757,621 -380,-38 -658,-378 -621,-758l179 -1807c38,-380 377,-659 757,-621zm-322 3251c416,41 788,-264 829,-680l179 -1807c42,-416 -263,-788 -679,-829 -416,-42 -788,263 -829,679l-179 1808c-41,416 263,788 679,829z"/>
     <path class="fil25" d="M47205 45871c-40,398 251,753 650,793 398,39 753,-252 793,-650 39,-399 -252,-754 -650,-794 -399,-39 -754,252 -793,651z"/>
     <path class="fil26" d="M47556 45906c-20,204 129,386 334,406 204,20 386,-129 406,-333 20,-205 -129,-387 -333,-407 -204,-20 -386,129 -407,334z"/>
     <path class="fil25" d="M47754 45925c-9,95 60,180 155,189 95,10 180,-60 189,-155 10,-95 -60,-180 -155,-189 -95,-9 -179,60 -189,155z"/>
     <path class="fil25" d="M46979 48148c-39,398 252,754 650,793 399,39 754,-252 793,-650 40,-399 -251,-754 -650,-793 -398,-40 -753,251 -793,650z"/>
     <path class="fil26" d="M47331 48183c-20,204 129,386 333,406 204,20 386,-129 407,-333 20,-204 -129,-386 -334,-407 -204,-20 -386,129 -406,334z"/>
     <path class="fil25" d="M47529 48202c-10,95 60,180 155,189 95,10 179,-60 189,-155 9,-95 -60,-179 -155,-189 -95,-9 -180,60 -189,155z"/>
    </g>
    <g>
     <g>
      <polygon class="fil27" points="43165,57606 42867,57238 42642,57660 42421,55893 42890,55608 "/>
      <polygon class="fil27" points="41996,57621 41942,57151 41525,57387 42287,55777 42836,55789 "/>
      <path class="fil28" d="M42664 54542l-71 160c-36,80 -144,94 -200,26l-109 -136c-76,-94 -227,-27 -209,92l27 172c13,87 -70,158 -154,130l-166 -55c-114,-38 -205,100 -125,190l115 131c59,66 26,170 -59,192l-169 43c-116,30 -119,195 -3,228l168 48c85,24 114,129 54,193l-119 128c-81,88 6,228 121,193l167 -50c84,-26 166,47 150,133l-31 172c-21,119 128,189 206,97l113 -133c58,-67 165,-50 199,31l67 162c46,111 209,90 226,-30l23 -173c12,-87 112,-131 184,-81l144 100c98,68 224,-38 173,-147l-74 -159c-37,-79 23,-170 111,-167l175 6c120,4 168,-153 67,-218l-148 -93c-74,-47 -73,-156 3,-201l150 -89c103,-62 59,-220 -61,-219l-175 1c-88,1 -146,-91 -107,-170l78 -157c54,-107 -69,-216 -170,-151l-146 96c-73,48 -172,2 -181,-86l-19 -174c-13,-119 -176,-145 -225,-35z"/>
      <path class="fil29" d="M42701 55039c-169,-26 -333,26 -453,129 -98,84 -168,202 -189,339 -24,149 14,294 94,409 6,8 12,16 18,24 76,97 184,170 310,201 15,3 30,6 46,9 9,1 18,2 27,3 143,16 281,-25 390,-104 117,-85 201,-214 225,-367 48,-307 -162,-595 -468,-643z"/>
      <path class="fil30" d="M42334 55813c48,62 116,108 196,127 9,2 19,4 29,6 5,0 11,1 17,2 90,10 177,-16 247,-66 73,-54 127,-135 142,-232 30,-194 -102,-376 -296,-407 -107,-17 -210,16 -287,82 -62,53 -106,127 -119,214 -15,94 9,186 59,259 4,5 8,10 12,15z"/>
     </g>
     <polygon class="fil31" points="40982,56111 42201,46788 50945,47931 49762,56981 "/>
     <g>
      <polygon class="fil32" points="48730,59575 40018,58207 41904,46191 50617,47559 "/>
      <path class="fil33" d="M44184 48345l4885 767c133,21 165,-185 32,-206l-4885 -767c-133,-21 -165,185 -32,206z"/>
      <path class="fil33" d="M42449 49323l6428 1009c133,21 166,-185 33,-206l-6429 -1009c-133,-21 -165,185 -32,206z"/>
      <path class="fil33" d="M42257 50543l6429 1010c133,21 165,-185 32,-206l-6429 -1010c-133,-20 -165,186 -32,206z"/>
      <path class="fil33" d="M42065 51764l6429 1009c133,21 165,-185 32,-206l-6428 -1009c-133,-21 -166,185 -33,206z"/>
      <path class="fil33" d="M41874 52984l6428 1010c133,21 166,-185 33,-206l-6429 -1010c-133,-20 -165,186 -32,206z"/>
      <g>
       <polygon class="fil34" points="45918,58038 46314,57779 46399,58250 47151,56636 46792,56221 "/>
       <polygon class="fil34" points="47026,58411 47222,57980 47546,58332 47314,56567 46788,56409 "/>
       <path class="fil35" d="M47334 55276l19 173c10,88 108,134 182,86l146 -96c101,-65 224,44 170,152l-78 156c-39,79 18,171 106,170l175 -1c120,-1 165,157 61,219l-150 89c-75,45 -77,154 -2,201l147 94c102,64 54,221 -67,217l-174 -6c-88,-3 -148,88 -111,168l74 158c51,109 -75,215 -174,147l-144 -100c-72,-50 -172,-6 -183,81l-24 173c-16,120 -179,141 -225,30l-68 -161c-33,-82 -141,-99 -198,-32l-113 133c-78,92 -227,22 -206,-97l31 -172c15,-86 -66,-159 -150,-133l-168 50c-115,35 -202,-105 -120,-193l119 -128c60,-64 30,-169 -54,-193l-168 -48c-116,-33 -114,-198 3,-227l169 -44c85,-22 117,-126 59,-192l-116 -131c-79,-90 12,-228 126,-190l166 55c83,28 166,-43 153,-130l-26 -172c-18,-119 132,-186 208,-92l110 136c55,68 163,54 199,-26l71 -160c49,-110 212,-84 225,36z"/>
       <path class="fil29" d="M47146 55737c170,27 309,126 392,262 68,110 98,243 77,381 -24,149 -104,275 -216,359 -8,7 -16,13 -25,18 -101,70 -226,106 -356,96 -15,-1 -31,-3 -46,-5 -9,-2 -18,-3 -27,-5 -141,-29 -260,-110 -339,-219 -85,-117 -126,-265 -102,-419 48,-306 336,-516 642,-468z"/>
       <path class="fil36" d="M47259 56587c-65,43 -144,66 -226,60 -10,-1 -19,-2 -29,-3 -6,-1 -11,-2 -17,-3 -89,-19 -164,-70 -215,-139 -53,-74 -79,-168 -64,-265 30,-193 213,-326 406,-296 107,17 196,80 248,166 43,69 62,154 49,241 -15,94 -66,174 -136,227 -6,4 -11,8 -16,12z"/>
      </g>
     </g>
     <path class="fil33" d="M47787 48911l-4885 -768c-133,-20 -101,-226 32,-206l4885 768c133,20 100,226 -32,206z"/>
    </g>
   </g>
  </g>
 </g>
</svg>
