<?xml version="1.0" encoding="UTF-8"?>
<!DOCTYPE svg PUBLIC "-//W3C//DTD SVG 1.1//EN" "http://www.w3.org/Graphics/SVG/1.1/DTD/svg11.dtd">
<!-- Creator: CorelDRAW X7 -->
<svg xmlns="http://www.w3.org/2000/svg" xml:space="preserve" width="2.22748in" height="2.19681in" version="1.1" style="shape-rendering:geometricPrecision; text-rendering:geometricPrecision; image-rendering:optimizeQuality; fill-rule:evenodd; clip-rule:evenodd"
viewBox="0 0 22275 21968"
 xmlns:xlink="http://www.w3.org/1999/xlink">
 <defs>
  <style type="text/css">
   <![CDATA[
    .fil3 {fill:#A38755}
    .fil0 {fill:#BFCBE5}
    .fil1 {fill:#E9EDF6}
    .fil2 {fill:#F5F7FA}
   ]]>
  </style>
 </defs>
 <g id="Layer_x0020_1">
  <metadata id="CorelCorpID_0Corel-Layer"/>
  <g id="_2598378834224">
   <circle class="fil0" cx="11600" cy="11293" r="10675"/>
   <circle class="fil1" transform="matrix(0.345372 1.28895 -1.28895 0.345372 10677.6 10677.9)" r="8000"/>
   <circle class="fil2" transform="matrix(0.228713 0.853566 -0.853566 0.228712 11905.6 8881.94)" r="8000"/>
   <path class="fil3" d="M16111 9904l0 6247 -10867 0 0 -6247 5434 3406 5433 -3406zm-5627 -1857l0 3521 387 0 0 -3521 -387 0zm0 -775l387 0 0 -782 -387 0 0 782zm194 5580l-3493 -2190 0 -5456 6985 0 0 5456 -3492 2190zm-3882 -8035l0 3794 -1940 814 0 7114 11643 0 0 -7114 -1940 -814 0 -3794 -7763 0zm7763 5603l1326 -833 -1326 -556 0 1389zm-7763 0l-1326 -833 1326 -556 0 1389z"/>
  </g>
 </g>
</svg>
