<?xml version="1.0" encoding="UTF-8"?>
<!DOCTYPE svg PUBLIC "-//W3C//DTD SVG 1.1//EN" "http://www.w3.org/Graphics/SVG/1.1/DTD/svg11.dtd">
<!-- Creator: CorelDRAW X7 -->
<svg xmlns="http://www.w3.org/2000/svg" xml:space="preserve" width="2.22748in" height="2.19681in" version="1.1" style="shape-rendering:geometricPrecision; text-rendering:geometricPrecision; image-rendering:optimizeQuality; fill-rule:evenodd; clip-rule:evenodd"
viewBox="0 0 22275 21968"
 xmlns:xlink="http://www.w3.org/1999/xlink">
 <defs>
  <style type="text/css">
   <![CDATA[
    .fil3 {fill:#A38755}
    .fil0 {fill:#BFCBE5}
    .fil1 {fill:#E9EDF6}
    .fil2 {fill:#F5F7FA}
   ]]>
  </style>
 </defs>
 <g id="Layer_x0020_1">
  <metadata id="CorelCorpID_0Corel-Layer"/>
  <g id="_2598287853840">
   <circle class="fil0" cx="11600" cy="11293" r="10675"/>
   <circle class="fil1" transform="matrix(0.345373 1.28895 -1.28895 0.345372 10677.6 10677.9)" r="8000"/>
   <circle class="fil2" transform="matrix(0.228713 0.853566 -0.853566 0.228712 12620 10389.7)" r="8000"/>
   <g>
    <path class="fil3" d="M15623 7640l0 0 35 55 0 7 34 48 0 7c500,857 788,1850 788,2919 0,871 -192,1714 -555,2481l0 0 -28 62 -7 0 -27 62 0 0 -34 61 0 0 0 7c-274,521 -624,1001 -1048,1433 -274,274 -576,514 -884,726l-7 0 -55 41 0 0 -62 34 0 0c-918,583 -1980,898 -3096,898 -1549,0 -3008,-603 -4104,-1699 -768,-775 -1295,-1721 -1542,-2749l0 -7 0 -14 -14 -47 -7 -35 0 -7 -7 -20 0 0 -7 -41 -7 -21 -7 -41 -6 -20 0 -28 -7 -20 0 0 0 -21 -7 -20 0 0 0 -20 -7 -21 0 -27 -7 -42 -7 -20 -7 -41 0 -28c-7,-34 -14,-68 -14,-102l-7 -28 0 -20 -7 -41 0 -21 -7 -48 0 -20 0 -21 -7 -27 0 -20 -6 -62 0 -27 0 -42 0 0 0 -20 -7 -48 0 -20c0,-82 -7,-165 -7,-247 0,-870 192,-1713 555,-2481l0 0 34 -62 0 0 27 -61 0 0 35 -62 0 0 0 -7c274,-521 623,-1001 1048,-1432 246,-247 514,-466 795,-658l27 -20 27 -21 28 -20 20 -14 7 -7 27 -14 14 -14 21 -7 34 -27 7 0 55 -34 7 -7c904,-556 1945,-857 3035,-857 61,0 130,7 192,7l0 -391c-62,0 -131,0 -192,0 -911,0 -1788,192 -2590,562l-34 21c-35,13 -69,34 -103,47l-34 21c-83,34 -165,82 -240,123l-34 21 -35 13 0 7 -34 14 -34 21 -35 20 -27 21 -7 0c-41,27 -82,54 -123,82l-14 7 -27 13 -35 21 0 7 -54 34 -14 7 -28 20 -27 21 -62 41 -6 7 -28 20 -34 21 -27 27 -35 21 -34 27 -27 20 0 7 -28 21 -7 0 -27 20 -27 21 -7 7 -28 27 0 0 -27 20 -7 0 -27 28 -28 27 -34 21 0 0 -20 20 -7 7 -28 27 -27 21 -7 7 -27 27 -21 14 -7 7 -34 27 0 7 -27 21 -28 27 -20 20 -7 7 -27 28 -21 20 -20 21 -21 13c-13,21 -34,42 -54,62l0 0 -48 55 0 0 -55 55 0 0 -55 54 0 0 0 7c-911,1001 -1459,2262 -1575,3605l-7 82 0 0 0 76 0 0 -7 75 0 0 -7 76 0 0 0 75 0 7 0 76 0 0 0 75 0 0c0,48 0,89 0,138l0 20 0 0c0,75 7,144 7,219l7 7c7,151 20,308 41,459l0 0c14,76 20,151 34,227l0 7 14 61 0 7 0 0 0 0 14 62 0 14 0 0 14 68 0 7c14,34 20,69 27,103l0 0c254,1117 822,2145 1651,2981 569,562 1227,1008 1946,1316l0 0 62 28 7 0c301,123 610,226 925,301l0 0c48,7 96,21 150,35l0 0 69 13 7 0 68 14 0 0 7 0 69 14 0 0 7 0c75,14 144,21 219,34l0 0c55,7 103,14 151,21l7 0 68 7 7 0 69 7 7 0 61 0 14 7 0 0 69 0 7 0c75,7 150,13 226,13l0 0 14 0 61 0 7 0 76 0 0 0 0 0 75 0 0 0c27,0 55,0 82,0l0 0 76 -6 75 0 76 -7 0 0 75 0 0 0 82 -7 0 0 76 -7 0 0 75 -7 0 0 76 -14 0 0 75 -7 0 0 76 -14 0 0 75 -7 0 0 76 -14 0 0 75 -13 0 0 76 -14 0 0c20,-7 47,-14 68,-14l0 0 76 -21 0 0 75 -13 0 0c562,-138 1103,-350 1604,-631l0 0c376,-212 726,-466 1055,-754l0 0c34,-34 75,-68 109,-103l0 0c55,-54 117,-102 172,-157l55 -62 0 0 47 -55 0 0 55 -54 0 0 55 -55 0 0 0 -7c911,-1001 1459,-2262 1575,-3605l7 -82 0 0c0,-20 0,-48 0,-76l0 0 7 -75 0 0 7 -76 0 0 0 -75 0 0 0 -82 0 0 0 -76 0 0 0 -75 0 -7 0 -27 0 -62 0 -28 -7 -47 0 -42 0 -47 0 -35 -7 -54 0 -28 -7 -61 0 -14 0 -14 -6 -76 0 0c-7,-27 -7,-54 -14,-82l0 -20 -7 -69 0 -7c-117,-904 -425,-1761 -911,-2522l0 0 -35 -48 0 -7c-260,-390 -555,-753 -890,-1075l1610 0 0 -384 -2124 0 -192 192 0 2124 384 0 0 -1706c41,41 82,75 123,116 322,329 603,685 843,1069l-3 0zm1213 2420c-7,-28 -7,-55 -14,-82l14 82zm-4282 2221l-1685 -1686 0 -3783 -384 0 0 3947 1795 1796 274 -274 0 0zm-7290 -1796l775 0 0 384 -775 0 0 -384zm10051 0l774 0 0 384 -774 0 0 -384zm-4830 4831l384 0 0 775 -384 0 0 -775zm0 -10054l384 0 0 775 -384 0 0 -775z"/>
   </g>
  </g>
 </g>
</svg>
