<?xml version="1.0" encoding="UTF-8"?>
<!DOCTYPE svg PUBLIC "-//W3C//DTD SVG 1.1//EN" "http://www.w3.org/Graphics/SVG/1.1/DTD/svg11.dtd">
<!-- Creator: CorelDRAW X7 -->
<svg xmlns="http://www.w3.org/2000/svg" xml:space="preserve" width="2.22748in" height="2.19681in" version="1.1" style="shape-rendering:geometricPrecision; text-rendering:geometricPrecision; image-rendering:optimizeQuality; fill-rule:evenodd; clip-rule:evenodd"
viewBox="0 0 22275 21968"
 xmlns:xlink="http://www.w3.org/1999/xlink">
 <defs>
  <style type="text/css">
   <![CDATA[
    .fil3 {fill:#A38755}
    .fil0 {fill:#BFCBE5}
    .fil1 {fill:#E9EDF6}
    .fil2 {fill:#F5F7FA}
   ]]>
  </style>
 </defs>
 <g id="Layer_x0020_1">
  <metadata id="CorelCorpID_0Corel-Layer"/>
  <g id="_2598287854544">
   <circle class="fil0" cx="11599" cy="11292" r="10675"/>
   <circle class="fil1" transform="matrix(1.31414 0.231719 0.231719 -1.31414 10677.2 10677.5)" r="8000"/>
   <circle class="fil2" transform="matrix(0.870251 0.153449 0.153449 -0.870252 11154.8 7990.02)" r="8000"/>
   <path class="fil3" d="M6168 14916c45,47 90,94 136,140l1 1c19,19 37,37 56,56l3 2 51 49 0 0 26 25 0 0c1149,1081 2648,1677 4236,1677 1652,0 3208,-644 4379,-1809 1166,-1172 1810,-2728 1810,-4379 0,-1590 -597,-3090 -1680,-4239l0 0 -20 -21 0 0 -2 -2 0 -1 -2 -2 -2 -2 -2 -2 -42 -44 -2 -2 -2 -2 -1 -1 -1 -1 -3 -2 -2 -2 -2 -3 -2 -2 -37 -37 -2 -2 -2 -2 -2 -2 -2 -2 0 0 -2 -3 -2 -2 -3 -2 0 0 -42 -42 -2 -2 -2 -2 -2 -2 0 0 -2 -2 -3 -2 -2 -3 -2 -2c-14,-13 -27,-26 -40,-38l-3 -3 -2 -2 -1 -1 -1 -1 -2 -2 -3 -2 -2 -2 -25 -24 0 0c-1154,-1084 -2651,-1677 -4236,-1677 -1651,0 -3207,644 -4372,1816 -1172,1165 -1816,2721 -1816,4373 0,1586 594,3083 1679,4238l0 0zm1717 -2620l0 -783 -1424 0 0 -371 1498 -2125 329 0 0 2125 445 0 0 371 -445 0 0 783 -403 0zm0 -1154l0 -1475 -1028 1475 1028 0zm1636 -464c0,-387 39,-700 119,-936 80,-238 198,-420 355,-548 157,-127 355,-190 593,-190 175,0 329,35 463,106 133,71 243,173 328,307 37,56 70,118 99,186l3164 -3166c-1079,-1005 -2481,-1564 -3965,-1564 -1549,0 -3008,610 -4105,1699 -1090,1097 -1693,2557 -1693,4106 0,1484 554,2887 1560,3966l3164 -3165c-55,-223 -82,-490 -82,-801zm2085 -657l0 0 -370 371 -1197 1197 0 0 -286 287 0 0 -3041 3042c1079,1011 2481,1564 3965,1564 1549,0 3009,-603 4105,-1699 1097,-1097 1700,-2557 1700,-4105 0,-1485 -554,-2888 -1566,-3968l-3310 3311zm47 500c1,51 2,103 2,157 0,385 -40,696 -119,933 -78,237 -197,420 -354,548 -156,128 -355,192 -594,192 -231,0 -426,-60 -584,-180l261 -261c95,74 203,112 323,112 184,0 340,-90 466,-268 105,-148 166,-420 183,-817l416 -416zm-1720 159c0,168 6,318 18,451l1224 -1225c-30,-130 -70,-230 -121,-302 -125,-177 -282,-266 -471,-266 -185,0 -333,79 -443,235 -139,199 -207,569 -207,1107zm3796 1616l0 -783 -1424 0 0 -371 1498 -2125 329 0 0 2125 445 0 0 371 -445 0 0 783 -403 0zm0 -1154l0 -1475 -1028 1475 1028 0z"/>
  </g>
 </g>
</svg>
