<?xml version="1.0" encoding="UTF-8"?>
<!DOCTYPE svg PUBLIC "-//W3C//DTD SVG 1.1//EN" "http://www.w3.org/Graphics/SVG/1.1/DTD/svg11.dtd">
<!-- Creator: CorelDRAW X7 -->
<svg xmlns="http://www.w3.org/2000/svg" xml:space="preserve" width="22.7667in" height="9.54969in" version="1.1" style="shape-rendering:geometricPrecision; text-rendering:geometricPrecision; image-rendering:optimizeQuality; fill-rule:evenodd; clip-rule:evenodd"
viewBox="0 0 2276669 954969"
 xmlns:xlink="http://www.w3.org/1999/xlink">
 <defs>
  <style type="text/css">
   <![CDATA[
    .fil0 {fill:none}
    .fil19 {fill:none;fill-rule:nonzero}
    .fil8 {fill:#75613D}
    .fil5 {fill:#927C53}
    .fil1 {fill:#A38755}
    .fil3 {fill:#AB9162}
    .fil7 {fill:#BB9B61}
    .fil2 {fill:#D2AE6D}
    .fil9 {fill:#D7B77D}
    .fil22 {fill:#EEE0C6}
    .fil4 {fill:#FBF9F4}
    .fil6 {fill:white}
    .fil24 {fill:white}
    .fil18 {fill:#75613D;fill-rule:nonzero}
    .fil15 {fill:#8B7A5B;fill-rule:nonzero}
    .fil10 {fill:#A38755;fill-rule:nonzero}
    .fil23 {fill:#BB9B61;fill-rule:nonzero}
    .fil14 {fill:#D2AE6D;fill-rule:nonzero}
    .fil12 {fill:#DBBE8A;fill-rule:nonzero}
    .fil11 {fill:#EDDFC4;fill-rule:nonzero}
    .fil13 {fill:#FBF9F4;fill-rule:nonzero}
    .fil21 {fill:#707070;fill-rule:nonzero;fill-opacity:0.007843}
    .fil20 {fill:white;fill-rule:nonzero;fill-opacity:0.007843}
    .fil17 {fill:url(#id0)}
    .fil16 {fill:url(#id1)}
   ]]>
  </style>
  <linearGradient id="id0" gradientUnits="userSpaceOnUse" x1="1.06285e+006" y1="140933" x2="1.13039e+006" y2="140933">
   <stop offset="0" style="stop-opacity:1; stop-color:#D7C1A3"/>
   <stop offset="0.160784" style="stop-opacity:1; stop-color:#D7C1A3"/>
   <stop offset="0.380392" style="stop-opacity:1; stop-color:#D7C5AA"/>
   <stop offset="0.470588" style="stop-opacity:1; stop-color:#D7C4A7"/>
   <stop offset="0.701961" style="stop-opacity:1; stop-color:#D5BF9C"/>
   <stop offset="0.901961" style="stop-opacity:1; stop-color:#D6B67E"/>
   <stop offset="1" style="stop-opacity:1; stop-color:#D6B67E"/>
  </linearGradient>
  <linearGradient id="id1" gradientUnits="userSpaceOnUse" x1="1.06089e+006" y1="140950" x2="1.13045e+006" y2="140950">
   <stop offset="0" style="stop-opacity:1; stop-color:#D1AE70"/>
   <stop offset="0.839216" style="stop-opacity:1; stop-color:#D1B27E"/>
   <stop offset="0.301961" style="stop-opacity:1; stop-color:#D1AE70"/>
   <stop offset="0.501961" style="stop-opacity:1; stop-color:#D0B484"/>
   <stop offset="0.8" style="stop-opacity:1; stop-color:#D0B68D"/>
   <stop offset="1" style="stop-opacity:1; stop-color:#D0B68D"/>
  </linearGradient>
 </defs>
 <g id="Layer_x0020_1">
  <metadata id="CorelCorpID_0Corel-Layer"/>
  <g id="_1970698747056">
   <rect class="fil0" width="2276669" height="954969"/>
   <g>
    <path class="fil1" d="M2163315 773030c2515,0 4579,2087 4579,4600 0,2515 -2064,4569 -4579,4569 -2527,0 -4571,-2053 -4571,-4569 0,-2513 2044,-4600 4571,-4600zm-10664 86531c-23595,14051 -62640,25669 -95159,28680 -52912,4892 -108048,-2788 -115763,-44134 -3777,-20382 5508,-41988 17827,-55409l0 -7176c-22175,19444 -34209,44061 -27281,73148 8843,37299 56164,58437 128392,51417 28577,-2788 65980,-11978 91984,-26250l0 -20276zm-18147 -87450l0 61760c0,7253 3512,13537 13867,14535l0 -76295 -13867 0zm-31134 21624c-14464,0 -25472,10126 -25472,28014 0,20934 12608,28118 25782,28118 10062,0 15773,-3262 21215,-8635l-8500 -8116c-3514,3496 -6535,5180 -12614,5180 -7813,0 -12188,-5180 -12188,-12219l34909 0 0 -4958c0,-15528 -8471,-27384 -23132,-27384zm-10460 17081c1520,-3283 5160,-5701 9864,-5701 7046,0 9719,5702 9991,11596l-21172 0c105,-2414 415,-3924 1317,-5895zm-42596 -30965l0 53565c0,7708 4756,15512 15968,15512l8131 0 0 -11464 -5590 -1c-3279,0 -4769,-1752 -4769,-4909l0 -26790 10359 0 0 -11108 -10359 0 0 -14805 -13740 0zm-54881 14805l0 54340 13762 0 0 -43232 11372 0c4043,0 5719,1993 5719,5231l0 38001 13738 1 0 -38073c0,-7730 -4111,-16239 -16179,-16239l-28412 -29zm-12210 0l-13891 0 -14 40358c0,7263 3529,13556 13905,14553l0 -54911zm-13891 -7510l13857 0 0 -13162 -13857 0 0 13162zm214449 -2130c3311,18661 -7205,38117 -25986,49301l0 14631c22605,-8270 45788,-35087 39057,-67912 -12568,-61273 -131509,-65153 -208174,-18480l0 5152c76587,-39360 185207,-39128 195103,17308zm-20669 -9691c897,0 1290,215 1290,886l0 111c0,630 -393,930 -1290,930l-866 -23 0 -1903 866 -1zm0 3095l1401 2374c40,78 121,136 213,136l1028 0c163,0 222,-108 222,-204 0,-58 -34,-126 -43,-176l-1453 -2456c765,-256 1259,-779 1259,-1772l0 -111c0,-1603 -1032,-2107 -2738,-2107 -481,0 -1371,31 -1699,74 -292,44 -426,188 -426,533l0 5957c0,126 116,262 232,262l929 0c165,0 251,-136 251,-262l0 -2355 630 0c48,0 169,59 194,107zm203 4727c3038,0 5534,-2478 5534,-5517 0,-3034 -2496,-5519 -5534,-5519 -3071,0 -5520,2485 -5520,5519 0,3039 2449,5517 5520,5517z"/>
    <g>
     <g>
      <polygon class="fil2" points="1601256,49106 1601256,49106 1601256,49106 1502831,84204 1517842,214347 1601256,260546 1601256,260546 1601256,260546 1684670,214347 1699681,84204 "/>
      <polygon class="fil3" points="1601256,49106 1601256,72574 1601256,72471 1601256,179562 1601256,179562 1601256,260546 1601256,260546 1684670,214347 1699681,84204 "/>
      <path class="fil4" d="M1601256 72471l-61529 137966 0 0 22943 0 0 0 12370 -30869 52221 -6 12370 30870 0 5 22943 0 0 0 -61318 -137966 0 0 0 0 0 0 0 0zm17970 88063l-35941 0 17971 -43240 17970 43240z"/>
     </g>
    </g>
    <g>
     <g>
      <ellipse class="fil5" cx="675413" cy="800142" rx="106667" ry="106666"/>
      <path class="fil6" d="M604787 791960l1908 0 0 5271 100 0c201,-803 553,-1565 1055,-2284 501,-719 1112,-1347 1832,-1883 719,-535 1522,-953 2409,-1255 887,-301 1815,-451 2786,-451 1238,0 2309,159 3213,477 903,317 1673,736 2308,1254 636,519 1138,1105 1506,1757 368,653 619,1314 753,1983l100 0c771,-1807 1799,-3171 3088,-4091 1288,-920 2986,-1380 5095,-1380 1171,0 2250,175 3237,527 988,351 1841,887 2560,1606 720,720 1280,1631 1682,2736 401,1104 602,2409 602,3915l0 17619 -1907 0 0 -17669c0,-1640 -251,-2928 -753,-3865 -502,-937 -1096,-1648 -1782,-2133 -686,-486 -1372,-787 -2058,-904 -686,-117 -1213,-176 -1581,-176 -1171,0 -2251,201 -3238,603 -987,402 -1841,1003 -2560,1807 -720,803 -1280,1798 -1682,2987 -401,1187 -602,2551 -602,4091l0 15259 -1907 0 0 -17669c0,-1606 -243,-2886 -728,-3840 -486,-954 -1054,-1665 -1707,-2133 -653,-469 -1322,-770 -2008,-904 -686,-134 -1229,-201 -1631,-201 -904,0 -1841,184 -2811,553 -970,368 -1857,937 -2660,1706 -804,770 -1456,1757 -1958,2962 -502,1204 -753,2626 -753,4267l0 15259 -1908 0 0 -25801zm38702 12901c0,-1841 259,-3573 778,-5196 518,-1623 1279,-3053 2284,-4291 1003,-1239 2242,-2217 3714,-2937 1472,-719 3163,-1079 5070,-1079 1908,0 3597,360 5070,1079 1472,720 2710,1698 3714,2937 1004,1238 1766,2668 2284,4291 519,1623 778,3355 778,5196 0,1840 -259,3580 -778,5220 -518,1640 -1280,3070 -2284,4292 -1004,1221 -2242,2192 -3714,2911 -1473,720 -3162,1079 -5070,1079 -1907,0 -3598,-359 -5070,-1079 -1472,-719 -2711,-1690 -3714,-2911 -1005,-1222 -1766,-2652 -2284,-4292 -519,-1640 -778,-3380 -778,-5220l0 0zm1907 0c0,1539 218,3020 653,4442 434,1422 1071,2686 1907,3790 837,1104 1874,1982 3112,2635 1239,653 2661,979 4267,979 1606,0 3028,-326 4267,-979 1238,-653 2275,-1531 3112,-2635 836,-1104 1472,-2368 1907,-3790 435,-1422 653,-2903 653,-4442 0,-1540 -218,-3020 -653,-4442 -435,-1423 -1071,-2686 -1907,-3791 -837,-1104 -1874,-1982 -3112,-2635 -1239,-652 -2661,-979 -4267,-979 -1606,0 -3028,327 -4267,979 -1238,653 -2275,1531 -3112,2635 -836,1105 -1473,2368 -1907,3791 -435,1422 -653,2902 -653,4442l0 0zm45678 -4920c-100,-1137 -393,-2141 -878,-3011 -485,-871 -1113,-1590 -1882,-2159 -770,-569 -1665,-1004 -2686,-1305 -1020,-301 -2116,-452 -3288,-452 -1606,0 -3028,327 -4266,979 -1238,653 -2276,1523 -3112,2610 -837,1088 -1473,2326 -1908,3715 -435,1389 -652,2819 -652,4291 0,1741 200,3347 602,4819 402,1473 1021,2753 1857,3841 837,1087 1874,1932 3112,2534 1238,603 2694,904 4367,904 1205,0 2318,-201 3339,-603 1020,-401 1924,-953 2710,-1656 787,-703 1431,-1548 1933,-2535 502,-987 836,-2066 1004,-3238l1907 0c-201,1540 -619,2912 -1255,4117 -636,1204 -1439,2217 -2409,3036 -971,820 -2075,1448 -3313,1883 -1239,435 -2543,652 -3916,652 -2108,0 -3907,-376 -5396,-1129 -1489,-753 -2710,-1765 -3664,-3037 -954,-1271 -1656,-2736 -2108,-4392 -452,-1657 -678,-3388 -678,-5196 0,-1806 260,-3513 778,-5120 519,-1606 1280,-3011 2284,-4216 1004,-1204 2242,-2158 3715,-2861 1472,-703 3162,-1054 5069,-1054 1406,0 2719,175 3941,527 1221,351 2309,878 3262,1581 954,703 1733,1598 2335,2686 602,1087 970,2350 1104,3789l-1908 0zm8534 -18020l0 15560 100 0c335,-970 812,-1831 1431,-2584 619,-753 1338,-1397 2158,-1933 820,-535 1716,-937 2686,-1205 970,-267 1957,-401 2961,-401 1506,0 2786,184 3840,552 1055,368 1916,853 2586,1456 669,602 1196,1280 1581,2032 384,754 660,1515 828,2285 167,769 267,1513 301,2233 33,720 50,1347 50,1882l0 15963 -1907 0 0 -16314c0,-636 -50,-1439 -151,-2409 -100,-971 -393,-1899 -878,-2786 -485,-887 -1222,-1648 -2209,-2284 -987,-636 -2351,-954 -4091,-954 -1472,0 -2777,268 -3915,803 -1138,536 -2108,1280 -2911,2234 -803,954 -1414,2092 -1833,3413 -418,1322 -627,2769 -627,4342l0 13955 -1908 0 0 -35840 1908 0zm41261 30720l-100 0c-301,770 -736,1497 -1306,2183 -569,687 -1263,1297 -2083,1833 -819,535 -1748,954 -2786,1254 -1037,302 -2175,452 -3413,452 -2744,0 -4869,-594 -6375,-1782 -1506,-1188 -2258,-3020 -2258,-5496 0,-1506 301,-2736 903,-3690 603,-953 1364,-1706 2284,-2258 920,-553 1941,-946 3062,-1180 1121,-234 2200,-401 3238,-502l2961 -251c1372,-100 2451,-260 3238,-477 786,-217 1380,-518 1782,-903 401,-385 652,-879 753,-1481 100,-602 150,-1356 150,-2259 0,-703 -134,-1355 -401,-1958 -268,-602 -687,-1137 -1255,-1606 -569,-468 -1306,-837 -2209,-1104 -903,-268 -2008,-402 -3313,-402 -2309,0 -4174,569 -5597,1707 -1422,1138 -2200,2861 -2334,5170l-1907 0c134,-2844 1045,-4978 2736,-6400 1689,-1422 4090,-2133 7203,-2133 3112,0 5379,611 6801,1832 1422,1221 2133,2819 2133,4794l0 15008c0,368 9,737 26,1105 17,368 75,703 175,1003 101,302 268,544 502,728 234,184 569,276 1004,276 335,0 804,-50 1406,-150l0 1606c-502,134 -1021,201 -1556,201 -770,0 -1381,-100 -1833,-301 -451,-201 -794,-469 -1029,-803 -234,-335 -393,-728 -477,-1180 -83,-452 -125,-945 -125,-1481l0 -1355zm0 -9537c-469,568 -1179,953 -2134,1154 -953,201 -2015,351 -3187,452l-3213 301c-936,100 -1873,243 -2810,427 -937,184 -1782,493 -2535,929 -753,434 -1364,1028 -1833,1781 -468,754 -702,1732 -702,2937 0,1907 602,3321 1807,4241 1205,921 2861,1381 4969,1381 2175,0 3899,-393 5171,-1180 1271,-786 2242,-1690 2911,-2710 669,-1021 1096,-2008 1280,-2962 184,-954 276,-1598 276,-1933l0 -4818z"/>
     </g>
    </g>
    <g>
     <g>
      <path class="fil1" d="M212492 584151c58910,0 106667,-47756 106667,-106666 0,-58911 -47757,-106667 -106667,-106667 -58910,0 -106666,47756 -106666,106667 0,58910 47756,106666 106666,106666l0 0zm0 -16000c-50073,0 -90666,-40593 -90666,-90666 0,-50074 40593,-90667 90666,-90667 50074,0 90667,40593 90667,90667 0,50073 -40593,90666 -90667,90666l0 0z"/>
      <path class="fil2" d="M212492 562818c47128,0 85334,-38205 85334,-85333 0,-47129 -38206,-85334 -85334,-85334 -47128,0 -85333,38205 -85333,85334 0,47128 38205,85333 85333,85333l0 0zm0 -165333c-2945,0 -5333,2399 -5333,5369l0 69297 -37349 0c-2937,0 -5318,2368 -5318,5334 0,2945 2430,5333 5309,5333l48025 0 0 -79996c0,-2948 -2368,-5337 -5334,-5337l0 0z"/>
     </g>
    </g>
    <g>
     <path class="fil7" d="M1522998 491598l4291 -13223 11996 -36954c-914,-1449 -1958,-2819 -3131,-4109 -6158,-6817 -15169,-10225 -27032,-10225l-41724 0 0 100795 25575 0 0 -34601 16596 0c5027,0 9503,-561 13429,-1683zm-20435 -17875l-9590 0 0 -27079 9661 0c5798,0 9900,1211 12305,3632 2406,2421 3609,5661 3609,9720 0,4089 -1058,7334 -3174,9731 -2319,2664 -6589,3996 -12811,3996z"/>
     <polygon class="fil5" points="1549768,462542 1536221,504277 1549975,527882 1576491,527882 1595672,469469 1613960,527882 1640545,527883 1681185,427087 1654243,427087 1626442,492223 1606673,427087 1585964,427087 1564737,492223 "/>
     <polygon class="fil7" points="1672164,490272 1664430,509829 1700631,509829 1707118,527882 1735114,527882 1697151,427087 1683897,460604 1694495,490272 "/>
    </g>
    <path class="fil1" d="M1089322 798806l3841 40260c999,2506 19818,8662 44631,8662 24824,0 43650,-6163 44632,-8666l5516 -47866 -1325 1225c-1583,1472 -3076,2738 -4479,3797 -1402,1060 -2773,1881 -4110,2460 -1338,580 -2769,870 -4295,870 -1431,0 -2538,-313 -3319,-937 -781,-624 -1173,-1483 -1173,-2576l0 -251c0,-78 10,-173 29,-285 75,-668 368,-1439 876,-2308 509,-871 1120,-1774 1836,-2711 716,-937 1478,-1885 2288,-2844 810,-959 1559,-1868 2247,-2728 687,-856 1256,-1643 1708,-2358 453,-714 679,-1293 679,-1740 0,-267 -95,-479 -283,-637 -188,-154 -500,-233 -932,-233 -754,0 -1531,195 -2330,585 -801,390 -1593,916 -2374,1573 -781,658 -1545,1412 -2289,2259 -743,848 -1440,1729 -2090,2643 -650,915 -1242,1836 -1780,2761 -536,926 -993,1779 -1370,2559l-481 1037 -677 1506 -778 1723 -748 1674 -606 1405 -383 854c-94,200 -249,578 -465,1136l-749 1958 -890 2360 -875 2342 -721 1941c-207,556 -340,936 -396,1137 -187,580 -410,1125 -663,1640 -255,512 -546,964 -876,1356 -329,389 -706,701 -1130,935 -424,236 -899,352 -1426,352 -679,0 -1238,-163 -1682,-486 -441,-323 -664,-943 -664,-1856 0,-447 57,-904 170,-1372 113,-468 255,-932 424,-1388 170,-459 344,-904 523,-1339l494 -1255c1017,-2230 2053,-4467 3108,-6709 1054,-2241 2066,-4460 3037,-6658l584 -1364 -175 175c-1224,1183 -2443,2225 -3658,3129 -1216,904 -2421,1623 -3616,2158 -1196,535 -2359,803 -3490,803 -772,0 -1416,-122 -1934,-368 -519,-246 -932,-580 -1243,-1003 -311,-424 -533,-926 -665,-1506 -44,-198 -72,-406 -101,-612 -330,258 -664,508 -1000,747 -1168,824 -2317,1488 -3447,1989 -1129,503 -2147,753 -3050,753 -904,0 -1638,-301 -2205,-903 -564,-602 -846,-1628 -846,-3078 0,-1027 150,-2220 451,-3580 -489,869 -1101,1751 -1835,2642 -735,893 -1573,1707 -2515,2444 -943,736 -1997,1333 -3163,1790 -1169,456 -2440,685 -3814,685 -622,0 -1220,-78 -1794,-234 -575,-156 -1079,-424 -1512,-803 -433,-378 -781,-887 -1045,-1522 -264,-635 -396,-1434 -396,-2392l114 -1022c75,-658 315,-1695 720,-3111 405,-1416 1031,-3252 1878,-5505 848,-2253 2044,-4985 3588,-8197 395,-848 853,-1456 1370,-1824 519,-368 1078,-552 1680,-552 265,0 537,40 820,117 284,79 546,201 791,368 245,168 443,380 595,636 148,257 225,551 225,886 0,223 -29,437 -85,635 -95,382 -297,876 -607,1490l-1089 2109 -1313 2560c-461,914 -890,1862 -1285,2844 -395,982 -735,1979 -1017,2994 -283,1016 -443,2003 -480,2962 0,401 93,769 282,1104 189,335 500,501 932,501 1224,0 2392,-402 3504,-1204 1110,-803 2136,-1802 3079,-2995 942,-1193 1793,-2476 2556,-3848 763,-1372 1398,-2626 1907,-3765 358,-757 674,-1573 946,-2442 273,-870 571,-1672 891,-2409 320,-737 686,-1350 1101,-1841 414,-489 933,-735 1553,-735 679,0 1215,256 1611,769 396,514 593,1127 593,1840 0,402 -126,954 -382,1657 -254,702 -574,1506 -960,2409l-1257 2894c-451,1027 -871,2069 -1256,3129 -388,1060 -707,2097 -961,3112 -255,1014 -382,1957 -382,2827 0,803 415,1205 1243,1205 584,0 1309,-201 2175,-603 867,-402 1776,-965 2726,-1690l714 -568c266,-1095 577,-2107 939,-3028 659,-1741 1328,-3469 2006,-5187l1865 -4718 8559 -21582c339,-870 796,-1483 1370,-1840 575,-356 1154,-535 1738,-535 583,0 1115,189 1596,568 480,380 721,993 721,1841 0,401 -81,825 -241,1271 -160,447 -362,926 -608,1439 -470,1049 -1030,2331 -1680,3848 -650,1517 -1347,3168 -2091,4952 -744,1785 -1507,3642 -2288,5571l-2289 5638c-743,1830 -1440,3563 -2091,5203l-1680 4266c-207,513 -409,1111 -606,1791 -199,680 -297,1288 -297,1824 0,334 56,601 170,802 112,202 329,302 649,302 395,0 889,-139 1483,-419 593,-278 1233,-647 1921,-1104 688,-457 1403,-981 2146,-1573 745,-590 1484,-1203 2218,-1839 735,-637 1436,-1272 2105,-1908 668,-636 1267,-1221 1795,-1757 123,-128 271,-219 434,-287 318,-950 608,-1880 864,-2790l622 -1707c263,-737 565,-1462 904,-2176 338,-713 721,-1333 1143,-1857 424,-523 881,-786 1371,-786 753,0 1300,173 1639,518 339,347 508,854 508,1524 0,133 -19,345 -56,635l-141 921c-57,322 -118,630 -184,920 -67,290 -127,502 -184,635 696,-759 1450,-1511 2260,-2257 810,-748 1648,-1425 2514,-2025 867,-603 1752,-1093 2657,-1474 903,-378 1807,-568 2711,-568 621,0 1238,89 1850,268 612,178 1159,440 1638,786 481,347 872,781 1172,1305 302,524 452,1132 452,1824 0,915 -230,1891 -691,2928 -461,1037 -1040,2080 -1737,3127 -698,1050 -1452,2069 -2260,3062 -810,993 -1568,1896 -2274,2710l-1781 2075c-479,570 -730,955 -748,1156 0,267 85,484 254,652 170,167 452,251 848,251 320,0 791,-179 1412,-536 621,-357 1493,-975 2613,-1856 1120,-882 2543,-2064 4266,-3548 1182,-1017 2565,-2229 4124,-3607l7472 -69195c-1204,665 -2455,1081 -3194,1326 -3090,1020 -7456,1929 -12973,2699 -11138,1556 -25920,2413 -41623,2413 -15703,0 -30485,-857 -41623,-2413 -5517,-770 -9882,-1679 -12974,-2699 -737,-245 -1987,-661 -3190,-1323l6901 63509c321,-1094 678,-2186 1074,-3274 810,-2231 1747,-4412 2810,-6542 1064,-2130 2223,-4143 3475,-6039 1252,-1896 2585,-3642 3997,-5237 1413,-1595 2863,-2967 4351,-4116 1488,-1148 2990,-2046 4506,-2693 1516,-646 3018,-971 4506,-971 1713,0 3371,469 4972,1406 1601,936 3097,2454 4492,4550 319,469 523,943 606,1422 86,480 128,932 128,1356 0,1003 -241,1796 -720,2376 -480,579 -1050,869 -1709,869 -604,0 -1164,-318 -1682,-953 -518,-636 -1097,-1545 -1737,-2727 -603,-1071 -1267,-1846 -1991,-2326 -726,-479 -1512,-719 -2359,-719 -1319,0 -2726,546 -4224,1639 -1497,1093 -2980,2538 -4448,4333 -1470,1797 -2878,3848 -4224,6157 -1347,2309 -2539,4673 -3575,7093 -1035,2422 -1858,4809 -2470,7161 -613,2354 -919,4467 -919,6341 0,625 43,1267 127,1924 86,659 245,1255 481,1790 234,536 555,976 960,1321 405,347 918,519 1539,519 697,0 1488,-234 2374,-703 884,-467 1803,-1081 2753,-1839 952,-759 1907,-1617 2868,-2577 961,-959 1856,-1929 2684,-2911 828,-981 1563,-1924 2203,-2827 641,-904 1121,-1690 1441,-2360l2627 -7863c320,-847 739,-1450 1257,-1806 518,-357 1050,-536 1597,-536 263,0 526,45 791,134 264,89 498,229 706,418 207,190 372,435 494,737 123,300 184,652 184,1053 0,1071 -95,2074 -283,3012 -188,938 -428,1851 -721,2744 -291,891 -617,1789 -974,2693 -357,904 -706,1846 -1045,2828 -75,112 -212,462 -410,1053l-720 2226c-282,892 -589,1890 -918,2995l-1016 3379 -1004 3380 -861 2995 -636 2242 -311 1071c-94,355 -245,752 -451,1186 -208,435 -452,848 -735,1239 -283,389 -593,714 -933,970 -339,256 -687,385 -1045,385 -602,0 -1041,-201 -1313,-602 -274,-402 -409,-1138 -409,-2209l0 -468c0,-156 8,-324 27,-501 18,-358 160,-1028 424,-2010 264,-980 579,-2090 947,-3328 367,-1238 763,-2521 1186,-3849l1144 -3562c-999,1115 -2081,2224 -3249,3329 -1168,1104 -2364,2097 -3587,2978 -1225,881 -2459,1600 -3701,2158 -1243,557 -2439,837 -3588,837 -1318,0 -2453,-291 -3405,-871 -171,-105 -333,-223 -495,-340zm59924 -86193l-87 337c-35,55 -52,111 -52,168 0,677 2506,1225 5595,1225 3090,0 5595,-548 5595,-1225l103 -416c790,307 1253,681 1253,1085 0,1045 -3112,1893 -6951,1893 -3838,0 -6950,-848 -6950,-1893 0,-443 559,-851 1494,-1174zm13279 -8528l5080 -20598 29064 -30685 27 -29c615,-696 -633,-2849 -2704,-4696 -2072,-1846 -4308,-2472 -5003,-1769l-15 16 -31009 32630 -6377 24617c-4269,-136 -8717,-209 -13288,-209 -32300,0 -58485,3612 -58485,8067 0,4456 26185,8067 58485,8067 32301,0 58486,-3611 58486,-8067 0,-3263 -14049,-6074 -34261,-7344zm-24731 146332c-15176,0 -26901,-2280 -32540,-3639 -3857,-929 -6953,-1890 -9305,-2878l7520 12849 2942 40146c0,4501 14297,8149 31934,8149 17636,0 31934,-3648 31934,-8149l2329 -40583 7116 -12449c-2363,1000 -5486,1975 -9391,2915 -5639,1359 -17364,3639 -32539,3639z"/>
    <g>
     <path class="fil1" d="M663443 137609c-2078,-68 -3817,1560 -3886,3637 -3,82 -3,166 0,247l0 18681c-9014,-7239 -22188,-5801 -29427,3213 -2986,3717 -4611,8345 -4611,13112 -196,11554 9008,21083 20565,21279 11554,197 21083,-9009 21279,-20565 5,-238 5,-476 0,-714l0 -34988c31,-1049 -384,-2061 -1139,-2787 -742,-726 -1744,-1122 -2781,-1099l0 -16zm171488 30870c-3324,-7767 -10938,-12822 -19387,-12868 -11554,-3 -20922,9360 -20926,20911 0,2 0,4 0,7 -2,11560 9366,20932 20927,20935 5019,0 9872,-1801 13672,-5079 55,-55 140,-127 152,-146 340,-276 639,-601 886,-964 1255,-1808 809,-4293 -1000,-5551 -1517,-983 -3510,-805 -4826,433 -126,116 -494,458 -555,506l-55 49c-1114,947 -2386,1690 -3756,2196 -1452,512 -2980,762 -4519,745 -1418,6 -2828,-221 -4173,-672 -1308,-436 -2543,-1072 -3660,-1883 -1111,-814 -2090,-1798 -2896,-2915 -825,-1142 -1455,-2411 -1866,-3757l29585 3c1039,23 2042,-375 2781,-1105 761,-721 1177,-1735 1139,-2781 24,-2758 -497,-5493 -1529,-8049l6 -15zm36306 -10305c-756,-709 -1655,-1250 -2636,-1586 -1120,-402 -2286,-672 -3470,-805 -1172,-143 -2351,-216 -3529,-219 -2395,-7 -4774,405 -7026,1221 -2207,804 -4267,1967 -6097,3440l0 -781c-87,-2157 -1903,-3838 -4062,-3752 -2037,80 -3671,1712 -3752,3752l0 34073c85,2157 1902,3839 4062,3752 2036,-80 3671,-1712 3752,-3752l0 -17034c-12,-1759 337,-3503 1023,-5123 659,-1553 1609,-2966 2800,-4159 1199,-1190 2611,-2143 4166,-2806 1621,-688 3362,-1036 5123,-1025 1749,-15 3485,302 5115,935 516,247 1075,385 1646,408 524,6 1044,-96 1530,-297 460,-194 874,-482 1221,-842 349,-356 633,-768 842,-1220 212,-484 318,-1004 316,-1530 36,-983 -345,-1933 -1049,-2618l25 -32zm-142424 9025c1207,-1193 2628,-2146 4191,-2806 1618,-689 3359,-1037 5115,-1025 1557,-13 3103,263 4557,819 1456,587 2807,1409 3995,2439 721,575 1620,880 2543,867 1052,44 2073,-354 2818,-1098 733,-747 1131,-1760 1102,-2807 14,-1136 -480,-2217 -1348,-2952 -3742,-3349 -8613,-5164 -13636,-5081 -11556,0 -20926,9369 -20926,20925 -29,11540 9303,20919 20842,20946 5037,12 9911,-1796 13720,-5089 787,-750 1229,-1787 1221,-2874 69,-2078 -1561,-3817 -3636,-3885 -84,-3 -166,-3 -247,0 -890,3 -1755,288 -2470,817 -1166,1029 -2508,1845 -3958,2409 -1455,549 -3000,820 -4555,805 -1757,11 -3500,-337 -5117,-1024 -1559,-664 -2981,-1617 -4187,-2804 -5129,-5096 -5152,-13383 -56,-18511 18,-18 36,-37 56,-55l-24 -16zm-21687 -5514c-8173,-8167 -21424,-8163 -29592,15 -3918,3920 -6121,9237 -6121,14780 -196,11554 9009,21083 20566,21280 11553,196 21082,-9009 21278,-20566 6,-238 6,-476 0,-714 3,-2750 -525,-5478 -1548,-8033 -1057,-2538 -2615,-4839 -4583,-6762l0 0zm-2702 19835c-667,1551 -1620,2963 -2805,4166 -1198,1202 -2610,2166 -4167,2841 -3282,1390 -6987,1390 -10271,0 -3132,-1342 -5620,-3847 -6934,-6988 -1377,-3249 -1377,-6915 0,-10160 1322,-3127 3808,-5614 6934,-6936 3284,-1392 6989,-1392 10271,0 1557,676 2969,1639 4167,2841 1185,1203 2138,2615 2805,4166 1367,3236 1367,6887 0,10123l0 -53zm-45899 19c-1336,3144 -3830,5652 -6965,7006 -3285,1392 -6992,1392 -10274,0 -3129,-1343 -5614,-3848 -6930,-6988 -1375,-3248 -1375,-6914 0,-10160 1318,-3130 3803,-5621 6930,-6954 3284,-1392 6992,-1392 10274,0 3135,1354 5629,3865 6965,7007 1374,3234 1374,6889 0,10123l0 -34zm-118839 -77531l0 14259 14258 0 0 -14259 -14258 0zm316579 91559l0 -3113 1324 0c332,0 574,28 725,84 152,56 271,155 362,298 91,143 137,307 137,490 0,234 -69,427 -206,580 -137,151 -341,247 -613,287 136,79 247,166 335,260 88,95 206,264 356,506l380 608 -752 0 -450 -680c-161,-241 -273,-393 -333,-456 -59,-63 -122,-107 -189,-129 -67,-24 -173,-35 -318,-35l-127 0 0 1300 -631 0zm1329 -4710c871,0 1660,354 2230,924l-1 0c571,571 925,1360 925,2229 0,871 -354,1660 -924,2230 -570,570 -1359,924 -2230,924 -870,0 -1659,-354 -2229,-925l0 1c-571,-570 -924,-1359 -924,-2230 0,-869 353,-1658 924,-2229l0 0 0 0c571,-570 1360,-924 2229,-924zm1824 1329c-466,-466 -1112,-756 -1824,-756 -713,0 -1358,290 -1824,755l-1 1c-465,466 -755,1112 -755,1824 0,712 290,1358 756,1824l0 1c466,466 1111,756 1824,756 712,0 1358,-290 1824,-757 467,-466 756,-1112 756,-1824 0,-712 -289,-1358 -755,-1824l-1 0zm-2522 1585l465 0c301,0 489,-13 564,-38 75,-25 134,-70 176,-132 43,-62 64,-140 64,-234 0,-105 -29,-189 -84,-254 -56,-65 -135,-106 -236,-122 -52,-7 -204,-11 -459,-11l-490 0 0 791zm-53952 -21112c392,-1347 1011,-2619 1829,-3756 812,-1119 1797,-2104 2916,-2915 1131,-812 2380,-1447 3700,-1885 1339,-445 2737,-672 4147,-669 1401,-3 2795,224 4123,669 2637,877 4935,2554 6574,4800 837,1137 1474,2406 1891,3756l-25180 0zm68293 -14485l0 0 0 0zm-142424 9025l0 0 0 0zm64817 -7755c3,-517 -104,-1025 -309,-1494 -211,-451 -497,-865 -848,-1220 -345,-361 -761,-648 -1221,-843 -485,-200 -1005,-302 -1531,-297 -741,-5 -1467,207 -2091,610l-22340 14534 1 -29186c22,-1045 -393,-2051 -1140,-2781 -718,-755 -1720,-1174 -2761,-1158 -2153,-13 -3908,1720 -3921,3872 0,16 0,32 0,49l0 51929c-11,1038 400,2037 1140,2763 724,759 1733,1179 2781,1158 1038,17 2036,-404 2750,-1158 743,-726 1154,-1725 1140,-2763l0 -13464 4556 -2990 17267 19389c700,672 1641,1035 2610,1005 523,7 1046,-95 1529,-298 461,-190 877,-477 1222,-835 355,-365 642,-790 847,-1255 209,-471 315,-980 313,-1494 2,-1011 -384,-1987 -1080,-2725l-16052 -18082 15650 -10160c1006,-703 1575,-1882 1488,-3106zm-89206 22076l0 0 0 0zm-45899 19l0 0 0 0zm-140042 -44993l0 -14256 -14259 0 0 14256 14259 0zm17913 0l0 -14256 -14258 0 0 14256 14258 0zm3290 0l14258 0 0 -14256 -14258 0 0 14256zm14258 17915l0 -14257 -14258 0 0 14257 14258 0zm3290 -14257l0 14257 14259 0 0 -14257 -14259 0zm-50451 34303c-2254,0 -4083,1828 -4083,4083 0,2256 1829,4083 4083,4083 2256,0 4083,-1827 4083,-4083 0,-2255 -1827,-4083 -4083,-4083zm-5849 -20046l0 -14257 -14259 0 0 14257 14259 0zm17549 0l0 -14257 -14259 0 0 14257 14259 0zm3655 0l14258 0 0 -14257 -14258 0 0 14257zm51549 4022l-94690 0c-1915,11490 2639,26295 11177,34504 9018,8669 21509,12657 34889,12657 32902,0 59958,-14257 72754,-44967 6400,277 13607,-917 18084,-5910 1480,-1652 2620,-3587 3852,-5790 -6147,-3688 -11499,-4831 -18646,-2925 -795,-6359 -4420,-10278 -8868,-14007l-2100 -1712c-1204,1505 -2204,2916 -2995,4339 -3377,6077 -2885,14482 1167,20155 -3012,2191 -7739,3442 -14624,3656zm-66904 12737c4071,0 7370,3300 7370,7370 0,4071 -3299,7370 -7370,7370 -4071,0 -7370,-3299 -7370,-7370 0,-4070 3299,-7370 7370,-7370z"/>
    </g>
    <g>
     <circle class="fil2" cx="1288948" cy="459540" r="20479"/>
     <path class="fil6" d="M1275023 456806c-1511,0 -2735,1224 -2735,2734 0,1510 1224,2734 2735,2734 1510,0 2734,-1224 2734,-2734 -1,-1510 -1225,-2734 -2734,-2734zm19521 12426c-1307,756 -1755,2427 -1000,3734 754,1308 2425,1756 3734,1001 1307,-755 1756,-2426 1000,-3734 -754,-1307 -2427,-1755 -3734,-1001zm-13583 -9692c0,-2701 1343,-5089 3396,-6534l-1998 -3349c-2393,1600 -4172,4043 -4912,6905 863,704 1415,1776 1415,2978 0,1201 -552,2273 -1415,2978 739,2862 2518,5306 4912,6904l1998 -3348c-2053,-1444 -3396,-3831 -3396,-6534zm7987 -7987c4172,0 7595,3199 7954,7278l3896 -57c-191,-3012 -1507,-5715 -3529,-7704 -1039,393 -2241,333 -3278,-266 -1040,-600 -1692,-1611 -1871,-2710 -1010,-279 -2073,-432 -3173,-432 -1890,0 -3677,444 -5263,1229l1900 3405c1022,-476 2162,-743 3364,-743zm0 15974c-1202,0 -2342,-268 -3364,-744l-1900 3405c1587,786 3374,1230 5264,1230 1100,0 2163,-153 3173,-432 179,-1099 831,-2110 1870,-2711 1039,-599 2239,-658 3279,-266 2021,-1988 3337,-4692 3529,-7703l-3897 -58c-359,4081 -3782,7279 -7954,7279zm5596 -17680c1308,755 2979,308 3733,-1000 756,-1308 308,-2979 -999,-3735 -1309,-755 -2980,-306 -3735,1002 -755,1307 -306,2978 1001,3733z"/>
     <path class="fil1" d="M1008200 513275c-2081,521 -4827,1073 -8240,1658 -3414,586 -7363,877 -11849,877 -3901,0 -7185,-569 -9849,-1706 -2667,-1136 -4812,-2746 -6436,-4827 -1626,-2080 -2796,-4535 -3511,-7363 -716,-2827 -1073,-5963 -1073,-9410l0 -28474 9070 0 0 26524c0,6177 975,10598 2926,13262 1950,2667 5232,3999 9849,3999 975,0 1982,-32 3023,-98 1039,-64 2014,-146 2925,-244 910,-97 1739,-194 2487,-292 747,-97 1283,-210 1609,-341l0 -42810 9069 0 0 49245 0 0zm251884 0c-2081,521 -4828,1073 -8240,1658 -3414,586 -7363,877 -11849,877 -3901,0 -7184,-569 -9850,-1706 -2666,-1136 -4811,-2746 -6436,-4827 -1626,-2080 -2796,-4535 -3511,-7363 -716,-2828 -1073,-5963 -1073,-9410l1 -28474 9069 0 0 26524c0,6177 975,10598 2926,13262 1950,2667 5232,3999 9849,3999 975,0 1982,-32 3023,-98 1039,-64 2014,-146 2926,-244 910,-97 1738,-194 2487,-292 746,-97 1283,-210 1608,-341l0 -42810 9070 0 0 49245zm-68554 -49245l19211 0 0 7606 -19211 -1 0 23404c0,2536 194,4633 585,6290 390,1659 975,2959 1755,3901 780,944 1756,1609 2926,1999 1170,390 2535,586 4095,586 2795,0 5006,-308 6632,-927 1624,-617 2731,-1056 3316,-1316l1949 7411c-910,456 -2520,1041 -4827,1755 -2308,715 -4924,1073 -7850,1073 -3446,0 -6289,-439 -8533,-1316 -2243,-878 -4047,-2195 -5412,-3950 -1365,-1755 -2325,-3916 -2877,-6485 -553,-2567 -830,-5541 -830,-8922l0 -45249 9071 -1560 0 15701 0 0zm-61923 1462c2080,-520 4842,-1073 8289,-1659 3445,-585 7411,-877 11897,-877 4031,0 7377,570 10044,1707 2665,1138 4794,2730 6388,4778 1592,2048 2713,4503 3364,7363 649,2861 975,6014 975,9459l0 28475 -9070 0 0 -26525c0,-3120 -212,-5785 -633,-7996 -424,-2210 -1120,-3998 -2097,-5363 -975,-1366 -2275,-2357 -3900,-2974 -1627,-618 -3642,-927 -6046,-927 -976,0 -1985,33 -3023,97 -1041,66 -2033,147 -2975,244 -943,98 -1789,213 -2535,342 -748,131 -1285,229 -1609,292l0 42810 -9069 0 0 -49246zm-13066 47783c-2082,521 -4828,1073 -8241,1658 -3413,586 -7362,877 -11848,877 -3901,0 -7184,-569 -9850,-1706 -2666,-1136 -4811,-2746 -6436,-4827 -1626,-2080 -2796,-4535 -3510,-7363 -717,-2828 -1074,-5963 -1074,-9410l0 -28474 9070 0 0 26524c0,6177 975,10598 2925,13262 1951,2667 5233,3999 9849,3999 976,0 1983,-32 3024,-98 1039,-64 2014,-146 2926,-244 909,-97 1738,-194 2486,-292 747,-97 1283,-210 1609,-341l0 -42810 9069 0 0 49245 1 0zm-86205 -47003c1105,-714 2779,-1463 5021,-2242 2243,-781 4828,-1171 7754,-1171 3640,0 6874,650 9703,1950 2828,1301 5217,3121 7167,5461 1950,2341 3428,5137 4437,8387 1007,3251 1512,6826 1512,10726 0,4096 -602,7787 -1804,11070 -1204,3282 -2910,6062 -5120,8337 -2212,2276 -4876,4031 -7996,5266 -3121,1234 -6632,1852 -10533,1852 -4227,0 -7964,-292 -11214,-877 -3252,-585 -5917,-1170 -7996,-1755l0 -72652 9069 -1559 0 27207zm0 40567c909,261 2194,504 3852,731 1658,228 3721,342 6192,342 4876,0 8777,-1609 11702,-4827 2926,-3219 4388,-7785 4388,-13702 0,-2599 -260,-5037 -780,-7314 -521,-2275 -1364,-4241 -2535,-5899 -1170,-1658 -2682,-2958 -4535,-3901 -1853,-943 -4080,-1415 -6680,-1415 -2471,0 -4746,424 -6826,1268 -2081,846 -3673,1724 -4778,2633l0 32084z"/>
    </g>
    <g>
     <path class="fil1" d="M68791 744259l287402 0 0 95800 -143701 0 0 15967 -63867 0 0 -15967 -79834 0 0 -95800zm15967 79834l31934 0 0 -47901 15967 0 0 47901 15966 0 0 -63867 -63867 0 0 63867zm79834 -63867l0 79833 31934 0 0 -15966 31933 0 0 -63867 -63867 0zm31934 15966l15966 0 0 31934 -15966 0 0 -31934zm47900 -15966l0 63867 31933 0 0 -47901 15967 0 0 47901 15967 0 0 -47901 15966 0 0 47901 15967 0 0 -63867 -95800 0z"/>
     <polygon class="fil4" points="84758,824093 116692,824093 116692,776192 132659,776192 132659,824093 148625,824093 148625,760226 84758,760226 "/>
     <path class="fil4" d="M164592 760226l0 79833 31934 0 0 -15966 31933 0 0 -63867 -63867 0zm47900 47900l-15966 0 0 -31934 15966 0 0 31934z"/>
     <polygon class="fil4" points="244426,760226 244426,824093 276359,824093 276359,776192 292326,776192 292326,824093 308293,824093 308293,776192 324259,776192 324259,824093 340226,824093 340226,760226 "/>
    </g>
    <g>
     <path class="fil2" d="M798683 471839c6366,3870 9468,10480 9468,18622 0,8464 -2613,13784 -6449,17252 -3754,3384 -7590,4111 -11508,4111 -3022,0 -6449,-565 -8163,-1935 -1062,-726 -1550,-2419 -1634,-3386 -162,-1129 -162,-10481 -162,-17171 0,-6530 0,-17573 162,-19023 0,-324 491,-969 736,-1130 898,-403 2449,-483 4000,-483 5306,0 9958,886 13550,3143zm-7511 -6771c-8570,0 -11753,242 -16324,242 -2450,0 -7722,-242 -9109,-242 -408,483 -1666,2661 -1502,3144 2040,242 3509,484 4571,725 2123,484 3182,1129 3427,3627 163,2983 83,12416 83,17251 0,6773 80,12738 -162,17735 -165,2661 -515,3416 -1997,4026 -881,363 -1396,435 -3293,650 -575,66 -1501,2580 -1176,3226l97 0c7019,79 15428,240 20326,240 9223,0 15671,-2096 20652,-5803 4978,-3548 9957,-9835 9957,-20719 0,-7657 -2774,-13944 -8000,-18459 -4325,-3708 -10367,-5643 -17550,-5643z"/>
     <path class="fil2" d="M829687 472323c80,2902 0,8787 0,17492 0,6369 0,15318 -165,17816 -245,2902 -478,3534 -2435,4017 -1389,404 -2396,498 -3703,578 -488,402 -1584,2982 -1012,3225 5470,-82 15312,321 18985,321 4818,0 9551,-564 13387,-2256 6287,-2741 10612,-7095 10612,-14027 0,-7094 -5305,-10802 -11345,-12333 -246,-80 -246,-241 0,-322 4244,-1774 7508,-5482 7508,-10077 0,-9351 -8652,-11608 -14937,-11608 -5061,0 -9304,161 -14529,161 -5550,0 -7723,-242 -8458,-242 -408,323 -1665,2741 -1255,3144 1632,242 3673,484 4897,725 1551,403 2366,1129 2450,3386zm7754 13704c0,-5240 82,-12817 162,-15718 0,-403 409,-1210 734,-1290 1062,-162 2450,-162 2941,-162 7263,0 12160,2661 12160,9674 0,3063 -1223,5884 -3836,7173 -978,484 -2775,888 -5877,888 -2204,0 -4815,-81 -5876,-162 -165,0 -408,-242 -408,-403zm489 4193c734,-162 3755,-81 4163,-81 9551,0 14774,4031 14774,11124 0,7416 -4979,10561 -10611,10561 -2042,0 -4978,-161 -6285,-888 -1224,-564 -2204,-2499 -2368,-3869 -245,-3224 -162,-11365 -162,-16445 0,-161 243,-322 489,-402z"/>
     <path class="fil8" d="M758307 498426c0,-9623 -6537,-16345 -15897,-16345 -3636,0 -7662,1190 -11033,3260 -4745,3182 -7151,7775 -7151,13650 0,8407 4369,17392 16634,17392 3413,0 7524,-1568 9894,-3022 4940,-3226 7553,-8390 7553,-14935zm-18753 -12918c6895,0 11528,6260 11528,15578 0,4860 -1106,8331 -3191,10030 -1356,1184 -2989,1759 -4991,1759 -6789,0 -11529,-6605 -11529,-16062 0,-5051 1443,-8488 4276,-10210 1031,-707 2420,-1096 3907,-1095z"/>
     <path class="fil8" d="M699466 505985l0 0zm8425 -3253c2532,-1913 4875,-4500 4875,-10432 0,-534 -291,-2439 -454,-3092l-47 -126c-81,-204 -146,-365 -46,-509l314 -110c6,4 609,190 1893,316l367 18c1247,0 2567,-572 3138,-1360 717,-990 973,-2377 906,-3313 -63,-917 -206,-1316 -265,-1441 -1045,1013 -2263,1896 -5052,1896 -1889,0 -3240,-214 -4666,-742 -2628,-972 -4527,-1677 -7896,-1756l-190 -2c-3274,0 -8328,1911 -10342,3500 -2938,2105 -4624,5406 -4624,9058 0,5656 2521,9370 7527,11051 146,72 245,212 274,383 28,169 -20,338 -138,453 -746,639 -2094,1434 -3283,2135 -806,476 -1567,926 -2040,1263 -612,439 -521,866 -424,1318l34 178c307,1152 1327,3275 4711,4568 149,32 257,168 257,336 0,151 -88,276 -214,323 -4104,2820 -5880,4449 -6649,5320 -1301,1479 -1444,3027 -1444,3626 0,2082 1181,5096 3817,7129 2711,2082 5883,3010 10285,3010 3380,0 6506,-704 9583,-2151 6347,-3059 10137,-8064 10137,-13388 0,-3565 -2061,-6528 -5374,-7734 -2409,-816 -7525,-1171 -11622,-1456l-2009 -142c-3103,-234 -3754,-1542 -3754,-2598 0,-1268 1435,-1950 1989,-2107l71 -9 953 -80 977 -80c3184,-336 6008,-1431 8425,-3253zm-1533 -7934c0,2754 -898,5362 -2274,6624 -912,1005 -2755,1457 -3771,1457 -5920,0 -8021,-5438 -8021,-10096 0,-4614 2443,-7597 6223,-7597 4911,0 7843,3592 7843,9612zm-11401 22988c617,-347 1650,-760 3069,-760 4424,0 8037,437 10200,1227 2806,1029 4171,2850 4171,5565 0,3902 -3286,7840 -10616,7840 -3727,0 -6561,-866 -8661,-2644 -1735,-1467 -2543,-3118 -2543,-5196 0,-2203 1388,-4116 4380,-6032z"/>
     <path class="fil8" d="M672991 495970c0,-3869 -652,-7255 -2284,-9674 -1959,-2740 -4733,-4353 -8326,-4353 -3182,0 -7427,2177 -10937,5160 -82,80 -620,591 -609,-203 12,-792 135,-2406 209,-3422 74,-1015 -535,-1494 -535,-1494 -2286,1129 -8722,2656 -11099,2902 -1738,334 -2175,2003 -325,2579l27 9c1936,582 3240,1204 4214,1845 735,565 653,1371 653,2016 81,5400 81,13704 -164,18218 -81,1774 -572,2418 -1877,2741l119 -40c-979,241 -1796,403 -3020,565 -409,402 -409,2740 -1,3224 817,0 4981,-243 8408,-243 4734,0 7183,243 8408,243 489,-565 653,-2742 326,-3224 -1388,-81 -2367,-242 -3347,-484 -1306,-323 -1632,-968 -1712,-2419 -164,-3788 -164,-11849 -164,-17332 0,-1531 408,-2257 898,-2660 4590,-3927 13152,-3339 13958,3789 326,3064 244,9190 244,14510 0,2903 -244,3628 -1305,3950 -491,243 -1796,484 -3347,646 -489,482 -327,2740 0,3224 2122,0 4571,-243 8162,-243 4490,0 7346,243 8489,243 490,-565 652,-2662 326,-3225 -1795,-242 -3102,-484 -4652,-1209 -245,-161 -572,-887 -572,-1129 -165,-2499 -165,-9754 -165,-14510z"/>
     <path class="fil8" d="M612559 485508l0 0zm-8182 11305c0,-5050 1443,-8488 4277,-10210 1032,-707 2420,-1096 3905,-1095 6896,0 11530,6260 11530,15577 0,4861 -1106,8332 -3192,10032 -1356,1183 -2989,1758 -4991,1758 -6787,0 -11529,-6605 -11529,-16062zm26937 1613c0,-9624 -6538,-16346 -15897,-16346 -3637,0 -7663,1191 -11035,3262 -4744,3182 -7149,7775 -7149,13648 0,8407 4369,17393 16633,17393 3413,0 7524,-1568 9894,-3021 4941,-3228 7554,-8392 7554,-14936z"/>
     <path class="fil8" d="M586411 503739c21,-2845 46,-5892 46,-8296 0,-8366 -3991,-13363 -10674,-13363 -2823,0 -7046,1927 -11309,5156 -97,146 -265,237 -441,237 -186,0 -352,-96 -476,-278 -2109,-3441 -4837,-5115 -8344,-5115 -2134,0 -6279,1295 -10914,4922 -118,117 -264,179 -422,179 -310,0 -602,-256 -602,-526 0,-915 77,-1834 147,-2644l62 -795c44,-605 -183,-984 -327,-1159 -2431,1122 -8629,2597 -10992,2841 -891,172 -1321,686 -1342,1089 -20,421 358,780 1042,983 1785,536 3196,1152 4329,1898 772,593 762,1434 756,2049l-1 169c87,5734 72,13886 -164,18234 -85,1845 -629,2624 -2072,2983 -865,231 -1594,395 -3133,638 -110,128 -226,500 -249,1087 -30,771 114,1412 250,1629 828,-4 1657,-44 2614,-89 1427,-68 3203,-153 5754,-153 2169,0 4070,85 5600,153 1001,43 1874,84 2583,89 283,-543 384,-2285 219,-2729l-1316 -225c-710,-117 -1324,-220 -1677,-318 -1622,-378 -1922,-1400 -1999,-2259 -126,-2796 -108,-9257 -93,-14447l9 -4267c0,-660 292,-1375 677,-1660 2301,-1722 5115,-2793 7344,-2793 3802,0 6169,2104 7034,6257 508,2589 324,12923 88,16510 -88,1537 -542,2209 -1753,2578 -710,174 -1450,305 -2308,457l-981 177c-130,149 -255,631 -255,1314 0,735 141,1245 242,1405 696,-3 1921,-37 3215,-71 1596,-42 3405,-90 4513,-90 3655,0 6189,74 8658,158 62,-63 181,-255 284,-693 184,-792 173,-1718 39,-2028 -984,-157 -1647,-317 -2289,-472l-1077 -250c-766,-303 -1718,-678 -1718,-2251 -54,-2308 -37,-5362 -18,-8597l18 -4711c0,-2654 0,-4407 -321,-5911l-5 -54c0,-209 97,-528 266,-692 2723,-2062 5579,-2796 7346,-2796 4765,0 6944,3380 7363,6267 454,2786 198,14519 165,15853 -82,1874 -489,2514 -1902,2980 -776,229 -1415,393 -2707,634 -204,373 -145,2158 22,2712 2216,-143 4536,-230 8976,-230 2214,0 4115,95 5502,167 763,38 1377,70 1818,74 272,-382 556,-2248 420,-2727l-68 -11c-1783,-308 -3195,-550 -4172,-1025 -792,-218 -1317,-1307 -1317,-1699 0,-1619 17,-3959 37,-6455z"/>
     <path class="fil1" d="M499212 515159c6977,-6430 20402,-22633 15858,-49159 -5828,-25674 -19590,-34115 -21069,-37337 -1628,-2280 -3268,-6322 -3268,-6322l1 49c574,2208 869,10953 1028,20776 224,13756 182,29626 273,32627 325,10760 -2,21103 -629,29078 128,5865 975,12146 3882,13483 0,0 57,-38 166,-113 455,-318 1815,-1303 3633,-2966 41,-38 83,-77 125,-116z"/>
     <path class="fil2" d="M491406 504871c627,-7975 954,-18318 629,-29078 -91,-3001 -49,-18871 -273,-32627 -159,-9823 -454,-18568 -1028,-20776 -38,-147 -78,-265 -118,-352 -167,2267 -256,3152 -2412,5449 -3334,2602 -20450,16944 -21845,46115 -1301,27211 19701,43425 22528,45480 203,148 312,222 313,222 809,-1852 1633,-7157 2206,-14433z"/>
     <path class="fil9" d="M495288 518354c-2907,-1337 -3754,-7618 -3882,-13483 -573,7276 -1397,12581 -2207,14433 0,0 -109,-74 -312,-222 2029,4732 1825,12819 1825,12819l2973 984c0,0 -604,-7853 239,-11650 254,-1147 839,-2151 1530,-2994 -109,75 -166,113 -166,113z"/>
     <path class="fil2" d="M878098 506077c1258,0 1665,338 1665,1365 0,1009 -424,1399 -1541,1399l-1381 0 0 -2764 1257 0zm-2214 -868l0 7971 957 0 0 -3507 1311 0 1629 3507 1045 0 -1682 -3612c1026,-214 1576,-959 1576,-2126 0,-1452 -727,-2233 -2479,-2233l-2357 0z"/>
     <path class="fil2" d="M878241 503457c3223,0 5702,2515 5702,5755 0,3170 -2550,5721 -5721,5721 -3189,0 -5738,-2551 -5738,-5721 0,-3223 2550,-5755 5757,-5755zm-6323 5738c0,3542 2762,6305 6304,6305 3543,0 6305,-2800 6305,-6394 0,-3435 -2814,-6215 -6286,-6215 -3560,0 -6323,2744 -6323,6304z"/>
    </g>
    <g>
     <g>
      <polygon class="fil1" points="1975594,477485 1975594,566067 2064177,566067 2152760,566067 2152760,477485 2152760,388902 2064177,388902 1975594,388902 "/>
      <path class="fil4" d="M2014772 478072l-56 7256 11530 0 11530 0 0 32761 0 32762 8155 0 8155 0 0 -32762 0 -32761 11530 0 11530 0 0 -7115c0,-3937 -85,-7228 -197,-7312 -84,-112 -14117,-168 -31130,-140l-30962 84 -85 7227z"/>
      <path class="fil4" d="M2118549 470639c4500,1125 7931,3122 11080,6384 1631,1743 4050,4921 4247,5680 56,225 -7650,5399 -12318,8296 -168,112 -843,-619 -1602,-1743 -2278,-3319 -4669,-4753 -8325,-5006 -5371,-366 -8830,2446 -8801,7143 0,1377 196,2193 759,3318 1181,2446 3374,3909 10264,6890 12683,5455 18110,9055 21485,14173 3768,5709 4612,14820 2053,21597 -2812,7368 -9787,12374 -19601,14033 -3037,534 -10236,450 -13498,-141 -7115,-1265 -13864,-4780 -18026,-9392 -1631,-1800 -4809,-6496 -4612,-6834 84,-112 816,-562 1631,-1040 787,-450 3768,-2166 6580,-3797l5091 -2952 1068 1574c1491,2278 4753,5400 6721,6440 5653,2981 13414,2559 17238,-871 1632,-1491 2306,-3038 2306,-5315 0,-2054 -252,-2953 -1321,-4500 -1378,-1969 -4190,-3628 -12177,-7087 -9139,-3937 -13076,-6383 -16676,-10264 -2081,-2249 -4049,-5849 -4865,-8858 -675,-2503 -843,-8774 -309,-11305 1884,-8830 8549,-14989 18166,-16817 3122,-590 10377,-365 13442,394z"/>
     </g>
    </g>
    <g>
     <path class="fil10" d="M1603464 816397l-84429 84428c2763,2877 6640,4677 10958,4691l144617 0c4916,-12 9259,-2336 12037,-5936l-83183 -83183z"/>
     <path class="fil11" d="M1628822 790268l-23239 23239 82939 82938c835,-1890 1307,-3980 1307,-6186l0 -90769c-1364,1966 -2719,3928 -4023,5838 -2308,3715 -4902,7689 -7181,11623 -6836,11840 -11599,23412 -13355,40177 -471,1410 -1533,2322 -2707,2326 -1057,-4 -2032,-743 -2559,-1942 -2,-12 -2,-23 -3,-36 -1726,-16957 -6513,-28601 -13397,-40525 -2280,-3934 -4873,-7908 -7181,-11623 -3312,-4849 -6780,-9899 -10595,-15053 -2,-2 -6,-5 -6,-8l0 1z"/>
     <path class="fil12" d="M1622413 780268l-107628 107628 0 2363c0,8452 6808,15257 15259,15257l2955 0 103880 -103880c-2555,-3712 -5186,-7490 -8051,-11360 -917,-1405 -1879,-2804 -2880,-4192 -871,-1465 -1794,-2931 -2765,-4393 -244,-472 -514,-948 -770,-1423z"/>
     <path class="fil13" d="M1620564 817951l-17917 17917 69649 69648 2323 0c8430,-25 15211,-6820 15211,-15257l0 -3043 -69266 -69265z"/>
     <path class="fil3" d="M1628822 790268l0 0zm-114036 -44537l-1 142164 107628 -107626c256,474 526,950 769,1422 971,1462 1896,2927 2767,4394 997,1385 1958,2780 2873,4183 3,2 5,5 7,8 77,104 154,207 230,311 3724,5046 7119,9989 10363,14742 2309,3714 4902,7688 7182,11622 6870,11901 11652,23522 13386,40425l1991 1992c189,54 383,85 582,85 1174,-3 2235,-915 2707,-2325 1757,-16765 6519,-28338 13355,-40177 2279,-3934 4873,-7908 7181,-11622 1304,-1911 2659,-3873 4024,-5839l0 -53759c0,-8427 -6831,-15259 -15258,-15259l-144528 0c-8427,0 -15258,6832 -15258,15259z"/>
     <path class="fil13" d="M1569250 764094c3,6 8,15 11,20l0 -8 -11 -12zm-12901 -16483c-13604,0 -24633,11224 -24633,25067 0,13843 11029,25066 24633,25066 8862,0 13998,-2789 18456,-7325 4457,-4537 6081,-11398 6081,-18319 0,-1056 -68,-2106 -188,-3145l-9606 0 -1831 0 -12613 0 0 8863 14126 0c-574,2210 -1546,4223 -3079,5782 -2745,2793 -5907,4511 -11364,4511 -8376,0 -15167,-6910 -15167,-15433 0,-8524 6791,-15434 15167,-15434 4075,0 7626,1185 10439,3766l6936 -6936c-3,-2 -8,-8 -12,-11 -4626,-4440 -10542,-6451 -17344,-6451l-1 -1z"/>
     <g>
      <path class="fil14" d="M1662774 706224c26986,0 48862,20883 48862,46643 -20,8043 -1930,15943 -6094,22936 -1254,2048 -2420,4100 -3465,6138 -971,1460 -1895,2927 -2766,4391 -1002,1388 -1962,2787 -2879,4192 -3816,5153 -7284,10203 -10595,15052 -2308,3716 -4902,7690 -7180,11623 -6885,11924 -11672,23568 -13398,40525 -1,12 -1,24 -2,36 -529,1199 -1503,1938 -2559,1942 -1174,-2 -2237,-916 -2708,-2326 -1756,-16765 -6519,-28336 -13355,-40177 -2279,-3933 -4872,-7907 -7181,-11623 -3311,-4849 -6778,-9899 -10594,-15052 -917,-1405 -1879,-2804 -2880,-4192 -871,-1464 -1795,-2931 -2767,-4391 -1044,-2038 -2211,-4090 -3465,-6138 -4152,-6996 -5825,-14896 -5835,-22936 0,-25760 21876,-46643 48861,-46643z"/>
      <path class="fil15" d="M1662774 736663c-9375,0 -16974,7254 -16974,16204 0,8950 7599,16204 16974,16204 9376,0 16975,-7254 16975,-16204 0,-8950 -7599,-16204 -16975,-16204z"/>
     </g>
    </g>
    <g>
     <g>
      <g>
       <path class="fil7" d="M1136465 254622c-1076,0 -2144,-282 -3087,-825l-9825 -5817c-1467,-821 -751,-1111 -268,-1278 1957,-685 2354,-840 4443,-2026 219,-125 507,-81 731,52l7548 4479c273,147 660,147 912,0l29431 -16988c272,-155 449,-472 449,-796l0 -33961c0,-339 -177,-641 -455,-810l-29419 -16974c-272,-162 -633,-162 -906,0l-29413 16974c-285,161 -466,478 -466,802l0 33962c0,324 177,633 456,788l8060 4656c4376,2188 7050,-390 7050,-2984l0 -33519c0,-479 376,-847 855,-847l3727 0c464,0 847,368 847,847l0 33534c0,5835 -3182,9187 -8715,9187 -1701,0 -3042,0 -6785,-1842l-7720 -4450c-1908,-1105 -3087,-3167 -3087,-5370l0 -33962c0,-2210 1179,-4273 3087,-5363l29460 -16995c1864,-1054 4340,-1054 6188,0l29424 17003c1900,1097 3086,3153 3086,5363l0 33961c0,2203 -1186,4258 -3086,5363l-29424 16995c-943,546 -2011,826 -3101,826l3 15zm0 0l0 0 0 0z"/>
      </g>
      <g>
       <path class="fil7" d="M1145556 231220c-12878,0 -15578,-5911 -15578,-10869 0,-471 380,-847 853,-847l3801 0c420,0 774,306 840,720 574,3874 2284,5828 10071,5828 6202,0 8840,-1402 8840,-4691 0,-1893 -752,-3300 -10388,-4243 -8059,-796 -13039,-2571 -13039,-9017 0,-5938 5009,-9474 13400,-9474 9422,0 14093,3271 14682,10299 22,243 -66,479 -228,656 -162,169 -391,272 -627,272l-3822 0c-398,0 -744,-280 -826,-663 -920,-4074 -3145,-5378 -9194,-5378 -6770,0 -7558,2358 -7558,4126 0,2144 928,2770 10063,3978 9047,1201 13341,2895 13341,9253 0,6409 -5348,10085 -14674,10085l43 -35zm35804 -35982l987 0c811,0 965,-567 965,-899 0,-869 -596,-869 -928,-869l-1017 0 -7 1768zm-1201 -2784l2188 0c752,0 2225,0 2225,1679 0,1172 -751,1415 -1201,1562 877,59 936,634 1054,1444 59,508 155,1385 331,1680l-1348 0c-37,-295 -243,-1916 -243,-2004 -88,-361 -213,-538 -663,-538l-1112 0 0 2549 -1231 0 0 -6372zm-2629 3168c0,2637 2128,4773 4744,4773 2637,0 4766,-2180 4766,-4773 0,-2645 -2158,-4745 -4773,-4745 -2579,0 -4745,2070 -4745,4737l8 8zm10424 14c0,3124 -2557,5673 -5673,5673 -3094,0 -5672,-2520 -5672,-5673 0,-3212 2637,-5672 5672,-5672 3057,0 5665,2467 5665,5672l8 0zm0 0l0 0 0 0z"/>
      </g>
      <path class="fil5" d="M1045328 121738c0,-1355 -714,-2600 -1884,-3274l-31203 -17954c-527,-309 -1117,-471 -1715,-493l-323 0c-598,22 -1188,184 -1724,494l-31201 17953c-1163,677 -1888,1922 -1888,3278l69 48356c0,671 346,1297 935,1628 575,354 1297,354 1871,0l18550 -10623c1172,-697 1886,-1929 1886,-3271l0 -22590c0,-1348 715,-2594 1882,-3264l7898 -4548c586,-339 1230,-507 1886,-507 645,0 1303,166 1874,506l7893 4547c1169,670 1886,1915 1886,3264l0 22589c0,1341 724,2578 1890,3271l18538 10615c582,346 1306,346 1886,0 572,-331 934,-958 934,-1628l60 -48349zm147241 25177c0,337 -179,648 -472,815l-10717 6178c-291,167 -650,167 -941,0l-10719 -6178c-294,-167 -471,-479 -471,-815l0 -12373c0,-338 177,-648 464,-818l10711 -6188c295,-169 656,-169 951,0l10719 6188c294,170 471,480 471,818l4 12373zm2895 -91645c-585,-326 -1297,-317 -1874,19 -575,339 -930,958 -930,1628l0 47885c0,472 -250,906 -658,1142 -406,236 -910,236 -1319,0l-7816 -4501c-1164,-674 -2598,-674 -3766,0l-31214 18014c-1166,670 -1886,1915 -1886,3256l0 36039c0,1348 720,2585 1886,3263l31214 18027c1165,671 2600,671 3769,0l31214 -18034c1164,-678 1886,-1915 1886,-3264l0 -89817c0,-1367 -744,-2625 -1938,-3293l-18568 -10364zm103942 78946c1159,-673 1873,-1917 1873,-3258l0 -8734c0,-1343 -714,-2583 -1876,-3259l-31015 -18005c-1171,-678 -2608,-678 -3779,0l-31206 18012c-1171,678 -1886,1915 -1886,3263l0 36024c0,1356 729,2608 1901,3279l31007 17673c1142,656 2542,663 3698,22l18756 -10424c590,-331 965,-958 965,-1636 0,-677 -361,-1311 -950,-1642l-31398 -18020c-589,-331 -950,-957 -950,-1628l0 -11301c0,-674 353,-1296 943,-1632l9768 -5636c582,-339 1297,-339 1879,0l9776 5636c582,331 943,957 943,1628l0 8884c0,671 361,1297 943,1636 582,331 1304,331 1886,-7l18722 -10875zm0 0z"/>
      <path class="fil7" d="M1266042 132531c221,-131 498,-131 722,0l5989 3455c224,129 361,368 361,626l0 6918c0,257 -137,496 -361,626l-5989 3455c-224,130 -501,130 -722,0l-5986 -3455c-228,-130 -368,-369 -368,-626l0 -6918c0,-258 132,-497 361,-626l5993 -3455zm0 0z"/>
      <path class="fil16" d="M1093797 101857l-31036 17914c-1163,670 -1876,1908 -1876,3246l0 35853c0,1339 713,2575 1876,3246l31039 17928c1160,668 2591,668 3749,0l31034 -17928c1157,-671 1871,-1908 1871,-3246l0 -35853c0,-1338 -714,-2576 -1878,-3246l-31030 -17914c-582,-334 -1230,-501 -1878,-501 -648,0 -1297,167 -1879,501l8 0zm0 0l0 0 0 0z"/>
      <path class="fil2" d="M1061654 161146c297,385 668,719 1105,970l26624 15378 4435 2549c663,383 1419,545 2161,490 248,-20 495,-66 737,-135l32734 -59937c-250,-272 -544,-501 -872,-692l-20322 -11736 -10743 -6181c-305,-176 -635,-302 -972,-390l-34887 59684z"/>
      <path class="fil17" d="M1130391 159622l0 -90 -34007 -58095c-235,-46 -470,-71 -711,-74l-12 0 -65 0 -5 0 -5 0 -5 0c-88,1 -177,6 -266,14l-18 -1c-521,52 -1030,214 -1499,481l-30948 17862 33372 60785c464,-67 921,-221 1333,-460l31037 -17928c938,-544 1586,-1457 1799,-2494zm-35094 -58246l0 0 0 0z"/>
     </g>
     <path class="fil7" d="M1062761 162116l27093 15649 3964 2278c650,375 1388,538 2116,493 96,-6 192,-17 288,-32l-22223 -40478 -12345 21120c297,385 668,719 1107,970z"/>
     <path class="fil7" d="M1118848 139873l11533 19733c49,-240 73,-486 73,-736l0 -35853c0,-961 -368,-1869 -1004,-2556l-10602 19412z"/>
    </g>
    <g>
     <g id="_1970698748528">
      <path class="fil1" d="M132231 215362l0 27306 4084 0 0 -27306 -4084 0zm210152 18684c0,-5242 -3694,-9185 -8868,-9185 -5172,0 -8866,3943 -8866,9185 0,5242 3694,9182 8866,9182 5174,0 8868,-3940 8868,-9182zm-8868 -6230c2884,0 5631,2290 5631,6230 0,3940 -2747,6230 -5631,6230 -2885,0 -5630,-2290 -5630,-6230 0,-3940 2745,-6230 5630,-6230zm11471 -2392l0 17244 3237 0 0 -9431c0,-3167 2251,-5031 4468,-5031 703,0 1266,68 1724,246l1231 -3028c-668,-281 -1372,-422 -2427,-422 -1795,0 -4293,1266 -4996,3239l-141 0 0 -2817 -3096 0zm12419 0l0 17244 3239 0 0 -9537c0,-2638 1760,-5315 4398,-5315 2463,0 3835,1196 3835,4788l0 10064 3236 0 0 -9537c0,-2638 1759,-5315 4401,-5315 2462,0 3834,1196 3834,4788l0 10064 3237 0 0 -10557c0,-4259 -1935,-7250 -6157,-7250 -2676,0 -4787,1374 -6018,3309 -880,-2042 -2674,-3309 -5453,-3309 -2041,0 -4330,1302 -5313,2955l-143 0 0 -2392 -3096 0zm-44615 0l0 2955 3237 0 0 14289 3239 0 0 -14289 4503 0 0 -2955 -4506 0 0 -2181c0,-2006 1269,-2956 2888,-2956 598,0 1055,71 1477,282l1126 -2780c-739,-316 -1513,-457 -2603,-457 -3624,0 -6124,2287 -6124,5805l0 2287 -3237 0zm-1618 2955l0 -2955 -4222 0 0 -5278 -3237 0 0 5278 -3026 0 0 2955 3026 0 0 9044c0,3518 1935,5526 5561,5526 1091,0 1863,-140 2601,-457l-1125 -2782c-458,211 -880,281 -1476,281 -1515,0 -2324,-879 -2324,-2814l0 -8798 4222 0zm-19810 -3518c-4327,0 -6403,2604 -7001,4189l2955 1267c598,-1619 2322,-2501 4116,-2501 2430,0 4506,1586 4506,4189l0 493c-668,-387 -2360,-1055 -4682,-1055 -4045,0 -7563,2110 -7563,6015 0,3592 2920,5773 6438,5773 2955,0 4716,-1516 5666,-2955l141 0 0 2392 3096 0 0 -10416c0,-4858 -3448,-7391 -7672,-7391zm457 9255c2747,0 4119,1126 4119,1126 0,2815 -2709,5034 -5280,5034 -1688,0 -3588,-918 -3588,-2747 0,-1583 1337,-3413 4749,-3413zm-14143 -16643l0 25195 3235 0 0 -25195 -3235 0zm-5596 7494c0,2007 -1618,4400 -4503,4400l-5418 0 0 -8798 5418 0c2885,0 4503,2392 4503,4398zm-13160 -7494l0 25195 3239 0 0 -10205 5347 0c4190,0 7883,-3096 7883,-7496 0,-4398 -3693,-7494 -7883,-7494l-8586 0zm-11924 16573c0,3940 -2606,6230 -5491,6230 -2885,0 -5488,-2360 -5488,-6230 0,-3870 2603,-6230 5488,-6230 2885,0 5491,2290 5491,6230zm-14216 0c0,5277 3832,9182 8197,9182 2744,0 4890,-1369 5875,-2952l144 0 0 2392 3096 0 0 -25195 -3240 0 0 7951 144 2392 -144 0c-985,-1581 -3131,-2955 -5875,-2955 -4365,0 -8197,3908 -8197,9185zm-17875 1935c0,4257 2146,7250 6579,7250 2357,0 4506,-1372 5453,-2955l141 0 0 2392 3098 0 0 -17244 -3239 0 0 9501c0,2639 -1724,5351 -4538,5351 -2463,0 -4257,-1234 -4257,-4823l0 -10029 -3237 0 0 10557zm-20197 -1935c0,5242 3694,9182 8866,9182 5174,0 8869,-3940 8869,-9182 0,-5242 -3695,-9185 -8869,-9185 -5172,0 -8866,3943 -8866,9185zm14498 0c0,3940 -2747,6230 -5632,6230 -2885,0 -5629,-2290 -5629,-6230 0,-3940 2744,-6230 5629,-6230 2885,0 5632,2290 5632,6230zm-20164 -16573l0 25195 3239 0 0 -25195 -3239 0zm-2533 21252l-2250 -2252c-1899,2182 -4573,3662 -7742,3662 -5312,0 -9783,-3873 -9783,-10065 0,-6194 4471,-10064 9783,-10064 2885,0 5242,1020 7001,3201l2252 -2181c-2252,-2603 -5453,-4116 -9253,-4116 -7423,0 -13090,5664 -13090,13160 0,7497 5667,13158 13090,13158 4222,0 7777,-1865 9992,-4503zm-120407 457c2604,-2603 3413,-6262 3413,-9217 0,-915 -70,-1759 -211,-2463l-13266 0 0 3941 9431 0c-281,2216 -1020,3834 -2146,4960 -1375,1372 -3521,2885 -7285,2885 -5805,0 -10346,-4679 -10346,-10484 0,-5808 4541,-10487 10346,-10487 3131,0 5418,1231 7109,2815l2780 -2780c-2358,-2251 -5491,-3975 -9889,-3975 -7953,0 -14638,6473 -14638,14427 0,7951 6685,14427 14638,14427 4292,0 7531,-1410 10064,-4049zm14133 -14532c-5136,0 -9323,3907 -9323,9290 0,5348 4187,9291 9323,9291 5139,0 9326,-3943 9326,-9291 0,-5383 -4187,-9290 -9326,-9290zm-5242 9290c0,-3342 2428,-5629 5242,-5629 2815,0 5245,2287 5245,5629 0,3307 -2430,5629 -5245,5629 -2814,0 -5242,-2322 -5242,-5629zm25585 -9290c-5137,0 -9326,3907 -9326,9290 0,5348 4189,9291 9326,9291 5136,0 9326,-3943 9326,-9291 0,-5383 -4190,-9290 -9326,-9290zm-5242 9290c0,-3342 2427,-5629 5242,-5629 2815,0 5242,2287 5242,5629 0,3307 -2427,5629 -5242,5629 -2815,0 -5242,-2322 -5242,-5629zm25180 -9290c-4647,0 -8904,4083 -8904,9326 0,5206 4257,9255 8904,9255 2216,0 3975,-985 4890,-2114l140 0 0 1340c0,3553 -1899,5453 -4960,5453 -2498,0 -4048,-1794 -4682,-3307l-3553 1477c1020,2463 3729,5489 8235,5489 4785,0 8831,-2815 8831,-9678l0 -16678 -3871 0 0 1513 -140 0c-915,-1091 -2674,-2076 -4890,-2076zm351 3661c2780,0 4961,2393 4961,5665 0,3236 -2181,5593 -4961,5593 -2814,0 -5174,-2357 -5174,-5593 0,-3272 2360,-5665 5174,-5665zm26178 -3661c-4785,0 -8760,3767 -8760,9290 0,5207 3940,9291 9220,9291 4257,0 6719,-2604 7740,-4119l-3167 -2111c-1055,1548 -2497,2568 -4573,2568 -2078,0 -3556,-950 -4506,-2814l12422 -5136 -423 -1056c-774,-2076 -3131,-5913 -7953,-5913zm-4714 9009c-106,-3589 2779,-5418 4857,-5418 1619,0 2991,809 3448,1970l-8305 3448z"/>
      <path id="path22" class="fil14" d="M235293 163537l-15167 26363 -39719 0c-3542,0 -6813,-1895 -8576,-4967l-32130 -56022c-1747,-3049 -1747,-6790 0,-9837l12226 -21313 15093 26231 22754 39545 45519 0z"/>
      <path id="path26" class="fil10" d="M285374 128911l-32130 56022c-1763,3072 -5034,4967 -8575,4967l-24543 0 15167 -26363 22763 -39545 -22763 -39545 30218 0 19863 34627c1747,3047 1747,6788 0,9837z"/>
      <path id="path30" class="fil18" d="M265511 84447l-75737 0 -22754 39544 -15093 -26230 19904 -34709c1763,-3074 5034,-4968 8576,-4968l64262 0c3541,0 6812,1894 8575,4968l12267 21395z"/>
      <path id="path64" class="fil19" d="M167021 123992l22753 -39545 75737 0 -468 -824m-75269 0l-22754 39545"/>
      <path id="path80" class="fil20" d="M139701 119897l12226 -21314 15093 26234 22754 39544 45041 0 478 -823 0 -1 -45519 0 -22754 -39545 -15093 -26231 -12226 21313c-871,1514 -1290,3196 -1294,4885l0 43c0,134 3,268 8,402 66,-1557 487,-3105 1286,-4507z"/>
      <path id="path96" class="fil21" d="M220603 189077l-40196 0c-3542,0 -6813,-1895 -8576,-4968l-32130 -56022c-799,-1401 -1220,-2950 -1285,-4508 -75,1839 338,3684 1285,5332l32130 56022c1763,3072 5034,4967 8576,4967l39719 0 477 -823z"/>
      <path class="fil4" d="M189774 84447l-22753 39545 22762 39546 45509 0 22756 -39546 -22756 -39545 -45518 0zm2992 39546c0,-10920 8852,-19774 19771,-19774 10921,0 19774,8854 19774,19774 0,10920 -8853,19772 -19774,19772 -10919,0 -19771,-8852 -19771,-19772z"/>
     </g>
     <path class="fil22" d="M212537 143765c10921,0 19774,-8852 19774,-19772 0,-10920 -8853,-19774 -19774,-19774 -10919,0 -19771,8854 -19771,19774 0,10920 8852,19772 19771,19772z"/>
    </g>
    <g>
     <path class="fil23" d="M1957510 154982c0,-58862 47962,-106823 106823,-106823 58861,0 106511,47961 106511,106823 0,58861 -47650,106511 -106511,106511 -58861,0 -106823,-47650 -106823,-106511z"/>
     <path class="fil10" d="M2146552 87400c15261,18375 24292,41733 24292,67582 0,58862 -47650,106512 -106511,106512 -33012,0 -62287,-14950 -81908,-38307 0,0 80351,30832 129869,-18686 49518,-49519 34258,-117101 34258,-117101l0 0z"/>
     <path class="fil14" d="M1976789 119574c0,-20242 16492,-36735 36734,-36735 20242,0 36627,16493 36627,36735 0,20241 -16385,36627 -36627,36627 -20242,0 -36734,-16386 -36734,-36627z"/>
     <path class="fil24" d="M2098312 92248l-68269 0 0 11379 56890 0 11379 -11379zm-68269 91024l68269 0 -11376 11380 -45514 0 0 22755 -11379 0 0 -34135zm68269 -22755l-68269 0 0 11379 56893 0 11376 -11379zm-22756 -22759l-45513 0 0 11380 45513 0 0 -11380zm22756 -22755l-68269 0 0 11379 56890 0 0 22756 11379 0 0 -34135z"/>
    </g>
   </g>
  </g>
 </g>
</svg>
