<?xml version="1.0" encoding="UTF-8"?>
<!DOCTYPE svg PUBLIC "-//W3C//DTD SVG 1.1//EN" "http://www.w3.org/Graphics/SVG/1.1/DTD/svg11.dtd">
<!-- Creator: CorelDRAW X7 -->
<svg xmlns="http://www.w3.org/2000/svg" xml:space="preserve" width="3.41102in" height="1.07992in" version="1.1" style="shape-rendering:geometricPrecision; text-rendering:geometricPrecision; image-rendering:optimizeQuality; fill-rule:evenodd; clip-rule:evenodd"
viewBox="0 0 34110 10799"
 xmlns:xlink="http://www.w3.org/1999/xlink">
 <defs>
  <style type="text/css">
   <![CDATA[
    .fil0 {fill:#D2AE6D}
    .fil3 {fill:#D2AE6D}
    .fil2 {fill:#F2ECE1}
    .fil1 {fill:white}
   ]]>
  </style>
 </defs>
 <g id="Layer_x0020_1">
  <metadata id="CorelCorpID_0Corel-Layer"/>
  <g id="_1742902478416">
   <path class="fil0" d="M5399 0l23312 0c2969,0 5399,2430 5399,5399l0 1c0,2969 -2430,5399 -5399,5399l-23312 0c-2969,0 -5399,-2430 -5399,-5399l0 -1c0,-2969 2430,-5399 5399,-5399z"/>
   <path class="fil1" d="M5400 239l23311 0c2838,0 5160,2322 5160,5160 0,2839 -2322,5161 -5160,5161l-23311 0c-2839,0 -5161,-2322 -5161,-5161 0,-2838 2322,-5160 5161,-5160z"/>
   <polygon class="fil1" points="22618,1563 22775,1563 22775,9236 22618,9236 "/>
   <path class="fil0" d="M26738 6529l0 0zm4829 -3830c-721,-721 -1680,-1118 -2701,-1118 -1020,-1 -1979,396 -2700,1118 -722,721 -1118,1680 -1118,2701 0,1020 397,1979 1118,2700 722,722 1680,1119 2700,1119 1021,0 1980,-397 2702,-1119 721,-721 1118,-1680 1117,-2700 0,-1021 -396,-1979 -1118,-2701zm-2701 6282c-956,-1 -1855,-374 -2532,-1049 -675,-677 -1048,-1576 -1048,-2532 0,-956 373,-1857 1048,-2532 677,-677 1576,-1049 2532,-1049 956,0 1857,372 2532,1049 677,675 1049,1576 1050,2532 -1,957 -373,1855 -1050,2532 -675,675 -1574,1048 -2532,1049zm2128 -2452l0 0zm-2128 -2524c654,0 991,462 1080,1055 665,-203 1315,97 1315,826 0,502 -406,908 -909,908l-2971 0c-502,0 -908,-406 -908,-908 0,-729 649,-1029 1314,-826 89,-593 427,-1055 1079,-1055l0 0zm1486 3027c154,0 302,-31 438,-87 141,-58 268,-144 373,-249 105,-105 190,-232 248,-372 106,-255 114,-545 35,-808 -77,-250 -227,-440 -425,-569 -192,-124 -425,-188 -674,-188 -71,0 -143,6 -217,17 -171,-612 -609,-1009 -1264,-1009 -654,0 -1092,397 -1262,1009 -74,-11 -147,-17 -218,-17 -248,0 -482,64 -673,188 -199,129 -349,319 -426,569 -79,263 -71,553 35,808 58,140 142,267 248,372 105,105 232,191 373,249 136,56 284,87 438,87l2971 0z"/>
   <g>
    <polygon class="fil2" points="23244,1563 22932,1563 22932,9236 23244,9236 "/>
    <polygon class="fil3" points="22775,1563 22932,1563 22932,9236 22775,9236 "/>
   </g>
  </g>
 </g>
</svg>
