<?xml version="1.0" encoding="UTF-8"?>
<!DOCTYPE svg PUBLIC "-//W3C//DTD SVG 1.1//EN" "http://www.w3.org/Graphics/SVG/1.1/DTD/svg11.dtd">
<!-- Creator: CorelDRAW X7 -->
<svg xmlns="http://www.w3.org/2000/svg" xml:space="preserve" width="3.11654in" height="0.604409in" version="1.1" style="shape-rendering:geometricPrecision; text-rendering:geometricPrecision; image-rendering:optimizeQuality; fill-rule:evenodd; clip-rule:evenodd"
viewBox="0 0 31165 6044"
 xmlns:xlink="http://www.w3.org/1999/xlink">
 <defs>
  <style type="text/css">
   <![CDATA[
    .fil0 {fill:#A38755}
    .fil1 {fill:white;fill-rule:nonzero}
   ]]>
  </style>
 </defs>
 <g id="Layer_x0020_1">
  <metadata id="CorelCorpID_0Corel-Layer"/>
  <g id="_2557230153072">
   <path class="fil0" d="M3022 0l25121 0c1663,0 3022,1360 3022,3022l0 0c0,1662 -1359,3022 -3022,3022l-25121 0c-1662,0 -3022,-1360 -3022,-3022l0 0c0,-1662 1360,-3022 3022,-3022z"/>
   <path class="fil1" d="M13519 3751c-58,0 -118,-10 -177,-29 -59,-20 -107,-62 -144,-127 -25,35 -54,63 -87,84 -34,21 -70,37 -109,47 -39,10 -79,17 -121,20 -42,3 -83,5 -124,5l-1343 0c-120,0 -221,-9 -303,-26 -82,-18 -147,-46 -196,-85 -49,-39 -83,-89 -104,-150 -20,-61 -30,-136 -30,-223l0 -506 397 0 0 452c0,41 6,73 16,96 10,24 29,42 55,56 26,14 62,23 107,27 45,4 102,6 172,6l1165 0c70,0 118,-10 146,-32 27,-21 41,-70 41,-144l0 -689 394 0 0 655c0,75 16,129 48,161 32,33 98,49 197,49 16,0 31,2 46,5 14,4 27,11 39,22 11,11 20,27 26,50 6,22 9,53 9,92 0,69 -10,118 -29,144 -20,26 -50,40 -91,40zm-1968 -1573c0,-58 22,-109 64,-153 43,-43 95,-65 154,-65 59,0 110,22 153,64 43,43 64,95 64,154 0,59 -21,110 -64,153 -43,43 -94,64 -153,64 -58,0 -109,-21 -153,-64 -43,-43 -65,-94 -65,-153zm499 0c0,-58 22,-109 65,-153 43,-43 93,-65 152,-65 59,0 110,22 153,64 44,43 65,95 65,154 0,59 -21,110 -64,153 -43,43 -94,64 -154,64 -59,0 -109,-21 -152,-64 -43,-43 -65,-94 -65,-153zm1468 1573c-16,0 -31,-2 -46,-5 -14,-3 -27,-11 -39,-23 -11,-13 -20,-30 -26,-52 -6,-23 -9,-53 -9,-92 0,-70 10,-118 29,-144 20,-26 50,-40 91,-40l484 0 0 -862 400 0 0 1218 -884 0zm34 514c0,-59 21,-110 64,-153 43,-43 94,-64 153,-64 58,0 109,21 152,64 43,43 64,94 64,153 0,58 -21,109 -64,152 -43,43 -94,65 -152,65 -59,0 -110,-22 -153,-65 -43,-43 -64,-94 -64,-152zm498 0c0,-59 21,-110 64,-153 43,-43 94,-64 154,-64 59,0 110,21 152,64 43,43 65,94 65,153 0,58 -22,109 -65,152 -42,43 -93,65 -152,65 -59,0 -110,-22 -154,-65 -43,-43 -64,-94 -64,-152zm1822 -514c-28,222 -121,383 -275,485 -155,101 -387,151 -694,151l-94 0 0 -373 70 0c103,0 192,-6 265,-18 72,-12 131,-30 177,-54 46,-24 80,-52 103,-83 22,-31 36,-67 42,-108l-190 0c-89,0 -172,-10 -248,-31 -75,-20 -140,-53 -196,-99 -54,-46 -97,-105 -128,-178 -31,-73 -46,-160 -46,-261 0,-82 13,-163 41,-243 27,-79 68,-151 121,-214 53,-63 119,-114 197,-151 77,-37 166,-56 265,-56 113,0 207,19 283,58 77,38 138,93 185,163 47,71 81,154 101,251 20,97 31,203 31,320l0 88 223 0c17,0 32,2 46,5 15,4 27,11 38,22 11,11 20,27 27,50 6,22 9,53 9,92 0,69 -9,118 -29,144 -20,26 -50,40 -91,40l-233 0zm-823 -607c0,98 21,165 63,200 42,36 97,54 167,54l202 0 0 -182c0,-98 -15,-179 -46,-244 -30,-64 -87,-97 -171,-97 -76,0 -130,26 -164,77 -34,50 -51,114 -51,192zm1180 254c45,0 82,-1 112,-3 29,-2 53,-8 71,-18 19,-10 32,-25 41,-44 8,-19 12,-46 12,-82l0 -583 395 0 0 520c0,65 15,116 46,151 30,35 81,54 153,56 38,-110 92,-220 162,-327 69,-108 150,-204 243,-288 93,-85 197,-154 311,-207 114,-54 235,-80 364,-80 210,0 373,61 488,185 115,124 172,298 172,525l0 195 242 0c16,0 32,2 46,5 14,4 27,11 39,22 11,11 20,27 26,50 6,22 9,53 9,92 0,69 -10,118 -29,144 -20,26 -50,40 -91,40l-1845 0c-103,0 -191,-17 -264,-51 -73,-34 -125,-70 -157,-108 -53,72 -123,116 -212,133 -88,17 -201,26 -340,26l-119 0c-16,0 -31,-2 -45,-5 -15,-3 -28,-10 -40,-21 -11,-12 -20,-29 -26,-51 -6,-23 -8,-53 -8,-92 0,-70 9,-118 29,-144 19,-27 49,-40 90,-40l125 0zm2176 0l0 -143c0,-104 -22,-189 -67,-256 -45,-68 -123,-101 -233,-101 -66,0 -129,13 -189,41 -59,27 -115,64 -167,110 -52,45 -100,98 -144,159 -44,60 -81,124 -111,190l911 0zm-487 -1394c0,-59 21,-110 64,-153 43,-43 95,-65 154,-65 59,0 110,21 153,64 43,43 64,94 64,154 0,59 -21,110 -64,152 -43,43 -94,65 -153,65 -58,0 -109,-22 -153,-65 -43,-42 -65,-93 -65,-152zm1350 1394c-19,-39 -35,-85 -45,-139 -11,-53 -16,-100 -16,-139 0,-108 21,-202 61,-282 41,-79 94,-144 160,-197 65,-52 138,-91 218,-116 80,-26 161,-39 243,-39 65,0 131,8 197,22 67,15 117,29 152,43l0 361c-62,-9 -128,-20 -195,-30 -68,-10 -116,-16 -142,-16 -121,0 -207,26 -257,77 -51,51 -77,114 -77,186 0,82 26,147 76,196 50,49 136,73 258,73l484 0 0 353 -1344 0c-15,0 -31,-2 -45,-5 -15,-3 -27,-10 -39,-21 -11,-12 -20,-29 -26,-51 -6,-23 -9,-53 -9,-92 0,-70 10,-118 29,-144 20,-27 50,-40 90,-40l227 0z"/>
  </g>
 </g>
</svg>
