<?xml version="1.0" encoding="UTF-8"?>
<!DOCTYPE svg PUBLIC "-//W3C//DTD SVG 1.1//EN" "http://www.w3.org/Graphics/SVG/1.1/DTD/svg11.dtd">
<!-- Creator: CorelDRAW X7 -->
<svg xmlns="http://www.w3.org/2000/svg" xml:space="preserve" width="100%" height="100%" version="1.1" style="shape-rendering:geometricPrecision; text-rendering:geometricPrecision; image-rendering:optimizeQuality; fill-rule:evenodd; clip-rule:evenodd"
viewBox="0 0 3200 3200"
 xmlns:xlink="http://www.w3.org/1999/xlink">
 <defs>
  <style type="text/css">
   <![CDATA[
    .fil0 {fill:none}
    .fil1 {fill:black}
   ]]>
  </style>
 </defs>
 <g id="Layer_x0020_1">
  <metadata id="CorelCorpID_0Corel-Layer"/>
  <rect class="fil0" width="3200" height="3200"/>
  <path class="fil1" d="M923 2503l1354 0 0 -1806 -943 0 -411 412 0 1394zm476 -1264l-46 101 -101 46 11 110 -65 91 65 90 -11 111 101 46 46 101 77 -8 0 358 124 -115 124 115 0 -358 77 8 46 -101 101 -46 -11 -111 65 -90 -65 -91 11 -110 -101 -46 -46 -101 -111 10 -90 -64 -90 64 -111 -10zm133 701l68 49 68 -49 0 216 -68 -63 -68 63 0 -216zm-79 -500c-37,38 -61,89 -61,147 0,57 24,109 61,146 38,38 90,61 147,61 57,0 109,-23 147,-61 37,-37 61,-89 61,-146 0,-58 -24,-109 -61,-147 -38,-38 -90,-61 -147,-61 -57,0 -109,23 -147,61zm-4 147c0,-41 16,-79 44,-107 29,-29 67,-45 107,-45 40,0 78,16 107,45 28,28 44,66 44,107 0,40 -16,78 -44,107 -29,28 -67,44 -107,44 -40,0 -78,-16 -107,-44 -28,-29 -44,-67 -44,-107zm-54 -205l38 -84 92 9 75 -53 75 53 92 -9 38 84 83 38 -8 92 53 75 -53 75 8 91 -83 38 -38 84 -92 -9 -75 54 -75 -54 -92 9 -38 -84 -83 -38 8 -91 -53 -75 53 -75 -8 -92 83 -38zm826 1065l-1242 0 0 -1298 395 0 0 -396 847 0 0 1694zm-1202 -1355l299 -299 0 299 -299 0z"/>
 </g>
</svg>
