<?xml version="1.0" encoding="UTF-8"?>
<!DOCTYPE svg PUBLIC "-//W3C//DTD SVG 1.1//EN" "http://www.w3.org/Graphics/SVG/1.1/DTD/svg11.dtd">
<!-- Creator: CorelDRAW X7 -->
<svg xmlns="http://www.w3.org/2000/svg" xml:space="preserve" width="1.02362in" height="1.02362in" version="1.1" style="shape-rendering:geometricPrecision; text-rendering:geometricPrecision; image-rendering:optimizeQuality; fill-rule:evenodd; clip-rule:evenodd"
viewBox="0 0 10236 10236"
 xmlns:xlink="http://www.w3.org/1999/xlink">
 <defs>
  <style type="text/css">
   <![CDATA[
    .fil0 {fill:none}
    .fil1 {fill:black;fill-rule:nonzero}
   ]]>
  </style>
 </defs>
 <g id="Layer_x0020_1">
  <metadata id="CorelCorpID_0Corel-Layer"/>
  <g id="_891950991600">
   <rect class="fil0" width="10236" height="10236"/>
   <path class="fil1" d="M5118 2229c-771,0 -1497,301 -2043,847 -545,545 -846,1271 -846,2042 0,772 301,1497 846,2043 546,545 1272,846 2043,846 772,0 1497,-301 2043,-846 546,-546 846,-1271 846,-2043 0,-771 -300,-1497 -846,-2042 -546,-546 -1271,-847 -2043,-847zm324 2763l1909 -1408 0 0c309,448 475,978 475,1534 0,723 -281,1403 -792,1915 -512,512 -1192,793 -1916,793 -723,0 -1403,-281 -1915,-793 -75,-75 -145,-154 -210,-236l1211 -893 168 -124 422 -311 181 -133 137 -101 0 0 330 -243zm1802 -1553l0 0 -1190 877c-12,-55 -29,-106 -50,-155 -48,-111 -120,-204 -208,-280 -98,-84 -220,-145 -354,-184l0 -450 -181 0 0 413c-50,-7 -101,-11 -152,-11 -45,0 -90,1 -134,6l0 -408 -181 0 0 439c-137,35 -264,96 -365,182 -59,51 -109,110 -149,174 -81,130 -121,282 -117,432 4,151 54,300 156,419 42,49 92,93 151,129 100,62 210,105 324,138l0 85 -1909 1407c-309,-448 -475,-978 -475,-1534 0,-724 281,-1403 793,-1915 512,-511 1192,-794 1915,-794 724,0 1404,283 1916,794 75,75 145,154 210,236zm-2986 2650c45,104 111,192 192,263 95,84 214,146 344,185l0 452 181 0 0 -413c50,7 102,11 153,11 44,1 89,-1 133,-6l0 408 181 0 0 -440c135,-36 260,-96 360,-183 122,-106 205,-262 236,-426 30,-160 11,-330 -70,-469 -26,-45 -58,-84 -94,-120 -36,-35 -75,-65 -118,-91 -72,-45 -149,-79 -229,-106l-266 195 0 1051c-43,5 -87,8 -132,7 -52,0 -103,-5 -154,-13l0 -833 -181 133 0 653 -63 -26c-60,-28 -115,-63 -162,-105 -62,-55 -113,-123 -147,-203 -5,-12 -9,-23 -13,-35l-151 111zm1003 -1189l-191 141 -95 -21 0 -1184c44,-5 88,-7 133,-7 51,1 103,5 153,12l0 1059zm-467 -1027l0 1098c-82,-26 -160,-59 -229,-102 -43,-27 -79,-58 -109,-93 -74,-86 -110,-195 -113,-307 -3,-114 28,-232 90,-332 31,-49 69,-94 113,-132 69,-59 154,-103 248,-132zm677 1453c68,23 132,51 190,87 32,20 62,43 87,67 25,24 46,51 64,81 58,101 71,226 49,346 -24,126 -86,244 -177,323 -67,58 -149,101 -239,131l-3 1 0 -1046 29 10zm419 -889l-448 330 0 -881c40,14 79,30 115,50 44,23 85,51 122,82 68,59 123,130 160,215 14,32 25,66 34,102 8,32 14,66 17,102z"/>
  </g>
 </g>
</svg>
