<?xml version="1.0" encoding="UTF-8"?>
<!DOCTYPE svg PUBLIC "-//W3C//DTD SVG 1.1//EN" "http://www.w3.org/Graphics/SVG/1.1/DTD/svg11.dtd">
<!-- Creator: CorelDRAW X7 -->
<svg xmlns="http://www.w3.org/2000/svg" xml:space="preserve" width="100%" height="100%" version="1.1" style="shape-rendering:geometricPrecision; text-rendering:geometricPrecision; image-rendering:optimizeQuality; fill-rule:evenodd; clip-rule:evenodd"
viewBox="0 0 32000 32000"
 xmlns:xlink="http://www.w3.org/1999/xlink">
 <defs>
  <style type="text/css">
   <![CDATA[
    .fil0 {fill:none}
    .fil1 {fill:black}
   ]]>
  </style>
 </defs>
 <g id="Layer_x0020_1">
  <metadata id="CorelCorpID_0Corel-Layer"/>
  <g id="_1686856502784">
   <rect class="fil0" width="32000" height="32000"/>
   <path class="fil1" d="M16000 25031c2412,0 4680,-940 6386,-2646 1706,-1705 2646,-3973 2646,-6384 0,-2413 -940,-4680 -2646,-6386 -1706,-1706 -3974,-2646 -6386,-2646 -2413,0 -4680,940 -6386,2646 -1706,1706 -2646,3973 -2646,6386 0,2411 940,4679 2646,6384 1706,1706 3973,2646 6386,2646zm-282 -13263l565 0 0 1128 -565 0 0 -1128zm0 2257l565 0 0 6209 -565 0 0 -6209zm-5705 -4012c1599,-1598 3726,-2479 5987,-2479 2261,0 4388,881 5986,2479 1600,1600 2481,3726 2481,5988 0,2261 -881,4386 -2481,5986 -1598,1599 -3725,2481 -5986,2481 -2261,0 -4388,-882 -5987,-2481 -1599,-1600 -2479,-3725 -2479,-5986 0,-2262 880,-4388 2479,-5988z"/>
  </g>
 </g>
</svg>
