<?xml version="1.0" encoding="UTF-8"?>
<!DOCTYPE svg PUBLIC "-//W3C//DTD SVG 1.1//EN" "http://www.w3.org/Graphics/SVG/1.1/DTD/svg11.dtd">
<!-- Creator: CorelDRAW X7 -->
<svg xmlns="http://www.w3.org/2000/svg" xml:space="preserve" width="1.02362in" height="1.02362in" version="1.1" style="shape-rendering:geometricPrecision; text-rendering:geometricPrecision; image-rendering:optimizeQuality; fill-rule:evenodd; clip-rule:evenodd"
viewBox="0 0 10236 10236"
 xmlns:xlink="http://www.w3.org/1999/xlink">
 <defs>
  <style type="text/css">
   <![CDATA[
    .fil0 {fill:none}
    .fil1 {fill:black}
   ]]>
  </style>
 </defs>
 <g id="Layer_x0020_1">
  <metadata id="CorelCorpID_0Corel-Layer"/>
  <g id="_891986069712">
   <rect class="fil0" width="10236" height="10236"/>
   <path class="fil1" d="M6271 5191l-2634 0 0 -146 2634 0 -999 -999 128 -128 1200 1200 -1200 1201 -128 -128 999 -1000zm-4042 -73c0,-772 300,-1498 846,-2044 546,-545 1271,-846 2043,-845 772,0 1497,300 2043,846 546,545 846,1271 846,2043 0,772 -300,1498 -846,2043 -546,546 -1271,846 -2043,846 -772,1 -1497,-300 -2043,-845 -546,-546 -846,-1272 -846,-2044zm5598 0c0,-724 -282,-1404 -793,-1916 -512,-511 -1192,-793 -1916,-793 -724,0 -1404,282 -1915,793 -512,512 -794,1192 -794,1916 0,724 282,1404 794,1916 511,511 1191,793 1915,793 724,0 1404,-282 1916,-793 511,-512 793,-1192 793,-1916z"/>
  </g>
 </g>
</svg>
