<?xml version="1.0" encoding="UTF-8"?>
<!DOCTYPE svg PUBLIC "-//W3C//DTD SVG 1.1//EN" "http://www.w3.org/Graphics/SVG/1.1/DTD/svg11.dtd">
<!-- Creator: CorelDRAW X7 -->
<svg xmlns="http://www.w3.org/2000/svg" xml:space="preserve" width="1.02362in" height="1.02362in" version="1.1" style="shape-rendering:geometricPrecision; text-rendering:geometricPrecision; image-rendering:optimizeQuality; fill-rule:evenodd; clip-rule:evenodd"
viewBox="0 0 10236 10236"
 xmlns:xlink="http://www.w3.org/1999/xlink">
 <defs>
  <style type="text/css">
   <![CDATA[
    .fil0 {fill:none}
    .fil1 {fill:black;fill-rule:nonzero}
   ]]>
  </style>
 </defs>
 <g id="Layer_x0020_1">
  <metadata id="CorelCorpID_0Corel-Layer"/>
  <g id="_891981915136">
   <rect class="fil0" width="10236" height="10236"/>
   <path class="fil1" d="M5118 3809c-348,0 -664,141 -893,370 -229,229 -371,545 -371,894 0,287 96,551 257,763 166,218 400,380 670,455l66 19 0 68 0 247 542 0 0 -247 0 -68 66 -19c270,-75 504,-237 670,-455 161,-212 257,-476 257,-763 0,-349 -142,-665 -371,-894 -228,-229 -544,-370 -893,-370zm1468 2859l128 -127 -319 -319 -127 128 318 318zm-3063 -127l127 127 319 -318 -128 -128 -318 319zm-571 -1559l0 181 450 0 0 -181 -450 0zm698 -1505l-127 128 318 318 128 -127 -319 -319zm1558 -571l-180 0 0 451 180 0 0 -451zm1506 699l-128 -128 -318 319 127 127 319 -318zm-3639 -530c-546,546 -846,1271 -846,2043 0,772 300,1498 846,2044 546,545 1271,846 2043,845 772,0 1497,-300 2043,-846 546,-545 846,-1271 846,-2043 1,-772 -300,-1497 -845,-2043 -546,-546 -1272,-846 -2044,-846 -772,0 -1497,300 -2043,846zm4752 2043c0,724 -282,1404 -793,1916 -512,511 -1192,793 -1916,793 -724,0 -1404,-282 -1915,-793 -512,-512 -794,-1192 -794,-1916 1,-723 282,-1404 794,-1915 511,-512 1192,-794 1915,-794 724,0 1404,282 1916,794 511,511 793,1191 793,1915zm-3219 -555c136,-136 318,-212 510,-212l0 -181c-240,0 -468,95 -638,265 -169,170 -264,397 -264,638l180 0c0,-193 76,-374 212,-510zm2226 419l450 0 0 181 -450 0 0 -181zm-1987 1823l0 344 542 0 0 -344 -542 0zm-750 -2754c262,-261 623,-423 1021,-423 398,0 760,162 1021,423 262,262 424,623 424,1022 0,327 -110,630 -295,873 -175,230 -418,406 -698,499l0 795 0 90 -91 0 -722 0 -90 0 0 -90 0 -795c-281,-93 -524,-269 -699,-499 -185,-243 -295,-546 -295,-873 0,-399 162,-760 424,-1022z"/>
  </g>
 </g>
</svg>
