<?xml version="1.0" encoding="UTF-8"?>
<!DOCTYPE svg PUBLIC "-//W3C//DTD SVG 1.1//EN" "http://www.w3.org/Graphics/SVG/1.1/DTD/svg11.dtd">
<!-- Creator: CorelDRAW X7 -->
<svg xmlns="http://www.w3.org/2000/svg" xml:space="preserve" width="1.02362in" height="1.02362in" version="1.1" style="shape-rendering:geometricPrecision; text-rendering:geometricPrecision; image-rendering:optimizeQuality; fill-rule:evenodd; clip-rule:evenodd"
viewBox="0 0 10236 10236"
 xmlns:xlink="http://www.w3.org/1999/xlink">
 <defs>
  <style type="text/css">
   <![CDATA[
    .fil0 {fill:none}
    .fil1 {fill:black}
   ]]>
  </style>
 </defs>
 <g id="Layer_x0020_1">
  <metadata id="CorelCorpID_0Corel-Layer"/>
  <g id="_892000983584">
   <rect class="fil0" width="10236" height="10236"/>
   <path class="fil1" d="M3075 3075c-546,546 -846,1271 -846,2043 0,772 300,1498 846,2044 546,545 1271,846 2043,845 772,0 1497,-300 2043,-846 546,-545 846,-1271 846,-2043 1,-772 -300,-1497 -845,-2043 -546,-546 -1272,-846 -2044,-846 -772,0 -1497,300 -2043,846zm833 1527c0,651 543,1181 1213,1181 664,0 1207,-530 1207,-1181 0,-311 -126,-562 -364,-728 -429,-300 -1262,-300 -1692,0 -237,166 -364,417 -364,728zm1213 1031c-588,0 -1063,-464 -1063,-1031 0,-264 100,-467 298,-606 187,-130 448,-198 765,-198 311,0 575,68 759,198 198,139 301,342 301,606 0,567 -478,1031 -1060,1031zm0 303c-770,0 -1395,-628 -1395,-1392 0,-767 625,-1390 1395,-1390 764,0 1389,623 1389,1390 0,764 -625,1392 -1389,1392zm-1545 -1392c0,380 137,725 366,996l-298 0c-242,0 -493,98 -672,259 -143,130 -248,299 -298,491 -173,-361 -265,-759 -265,-1172 0,-723 282,-1404 794,-1915 511,-512 1192,-794 1915,-794 724,0 1404,282 1916,794 511,511 793,1191 793,1915 0,413 -91,811 -265,1173 -50,-193 -155,-362 -298,-492 -179,-161 -430,-259 -672,-259l-298 0c229,-271 366,-616 366,-996 0,-298 -84,-577 -232,-815 -279,-448 -780,-725 -1307,-725 -533,0 -1031,277 -1313,725 -145,238 -232,517 -232,815zm-782 1968c7,-114 28,-225 83,-339 58,-118 143,-224 245,-303 6,-5 11,-10 16,-13l5 -3c132,-100 296,-158 472,-163l3 0 0 1684c-148,-99 -287,-212 -415,-341 -159,-159 -296,-334 -409,-522zm969 953l0 -1084 0 -550 0 -140 76 0 127 0 124 0c256,227 588,374 954,393l0 1742c-457,-12 -895,-137 -1281,-361zm1432 361l0 -1742c363,-19 696,-164 954,-393l124 0 124 0 76 0 0 140 0 516 0 1118c-386,224 -822,349 -1278,361zm1426 -453l0 -1682c58,2 116,10 171,24 114,26 211,73 309,142 166,124 284,308 327,519 8,42 15,86 17,132 -113,189 -251,366 -411,526 -128,128 -266,241 -413,339z"/>
  </g>
 </g>
</svg>
