<?xml version="1.0" encoding="UTF-8"?>
<!DOCTYPE svg PUBLIC "-//W3C//DTD SVG 1.1//EN" "http://www.w3.org/Graphics/SVG/1.1/DTD/svg11.dtd">
<!-- Creator: CorelDRAW X7 -->
<svg xmlns="http://www.w3.org/2000/svg" xml:space="preserve" width="100%" height="100%" version="1.1" style="shape-rendering:geometricPrecision; text-rendering:geometricPrecision; image-rendering:optimizeQuality; fill-rule:evenodd; clip-rule:evenodd"
viewBox="0 0 5000 5000"
 xmlns:xlink="http://www.w3.org/1999/xlink">
 <defs>
  <style type="text/css">
   <![CDATA[
    .fil0 {fill:#B5E4FA}
    .fil1 {fill:#5C56A2}
   ]]>
  </style>
 </defs>
 <g id="Layer_x0020_1">
  <metadata id="CorelCorpID_0Corel-Layer"/>
  <g id="_2381310382992">
   <circle class="fil0" cx="2500" cy="2500" r="2500"/>
   <path class="fil1" d="M2369 3189c0,-46 -38,-84 -84,-84 -46,0 -85,37 -85,84 0,48 38,84 85,84 47,0 84,-37 84,-84zm-795 293l0 -307 91 0 0 404 -46 45 -404 0 0 -90 284 0c-5,-4 -11,-11 -16,-17 -272,-271 -422,-633 -422,-1017 0,-384 150,-746 422,-1018 271,-271 633,-421 1017,-421 198,0 391,40 566,115l0 98c-174,-81 -367,-124 -566,-124 -360,0 -700,140 -955,395 -253,255 -393,595 -393,955 0,360 140,700 393,955 10,8 20,17 29,27l0 0zm1927 -2016l285 0 0 -91 -405 0 -44 46 0 404 89 0 0 -307c10,10 19,18 29,27 255,255 395,595 395,955 0,360 -140,700 -395,955 -255,253 -595,395 -955,395 -199,0 -390,-43 -566,-124l0 98c177,75 368,115 566,115 384,0 746,-150 1018,-422 271,-271 421,-633 421,-1017 0,-384 -150,-746 -421,-1018 -6,-5 -11,-11 -17,-16l0 0zm-634 1723c0,46 37,84 84,84 48,0 84,-35 84,-84 0,-47 -37,-84 -84,-84 -46,0 -84,38 -84,84zm537 -1114l-209 850 -1218 0c-75,-473 -92,-556 -166,-1029l-301 0 0 -86 377 0 44 265 1473 0zm-1459 89l1345 0 -165 672 -1072 0 -108 -672zm832 1025c0,96 77,173 174,173 98,0 174,-76 174,-173 0,-97 -77,-174 -174,-174 -95,0 -174,78 -174,174zm-318 0c0,-96 -79,-174 -174,-174 -95,0 -175,77 -175,174 0,97 79,173 175,173 97,0 174,-77 174,-173z"/>
  </g>
 </g>
</svg>
