<?xml version="1.0" encoding="UTF-8"?>
<!DOCTYPE svg PUBLIC "-//W3C//DTD SVG 1.1//EN" "http://www.w3.org/Graphics/SVG/1.1/DTD/svg11.dtd">
<!-- Creator: CorelDRAW X7 -->
<svg xmlns="http://www.w3.org/2000/svg" xml:space="preserve" width="17.4328in" height="23.1098in" version="1.1" style="shape-rendering:geometricPrecision; text-rendering:geometricPrecision; image-rendering:optimizeQuality; fill-rule:evenodd; clip-rule:evenodd"
viewBox="0 0 174328 231098"
 xmlns:xlink="http://www.w3.org/1999/xlink">
 <defs>
  <style type="text/css">
   <![CDATA[
    .fil0 {fill:#F7F2E6;fill-rule:nonzero}
   ]]>
  </style>
 </defs>
 <g id="Layer_x0020_1">
  <metadata id="CorelCorpID_0Corel-Layer"/>
  <path class="fil0" d="M83121 1019l87408 50464c1816,1049 3035,2734 3538,4612 503,1877 290,3946 -758,5763l-4 -3 -95520 165445 4 3c-1046,1813 -2734,3031 -4615,3535 -1878,503 -3946,290 -5759,-757l-67415 -38922 0 -3025 68725 39678c1193,689 2550,830 3780,501 1225,-329 2327,-1128 3015,-2320l5 2 95519 -165445 -4 -3c687,-1189 826,-2545 497,-3774 -330,-1230 -1129,-2334 -2318,-3021l-87408 -50464c-1189,-687 -2544,-827 -3774,-497 -1229,329 -2333,1128 -3020,2318l-4 -3 -75013 129926 0 -5220 72753 -126011 -5 -2c1049,-1816 2734,-3036 4611,-3539 1877,-503 3946,-290 5762,759zm-27397 93133c-202,-762 -623,-1480 -1264,-2155 -579,-608 -1335,-1182 -2268,-1721l-2768 -1598 -1134 -655 -655 1135 -4479 7757 -655 1135 1134 655 2748 1586c1002,578 1931,964 2787,1156 965,217 1840,191 2624,-78l-1 -4c673,-228 1284,-588 1832,-1081 526,-473 992,-1060 1397,-1761 409,-709 676,-1428 799,-2156 128,-750 95,-1489 -97,-2215zm37046 36216l-698 554 -5450 4323 -1509 1197 1668 963 9577 5530 -963 5335 -164 909 793 458 8020 4630 1636 945 308 -1866 5795 -35154 552 -3344 -2655 2106 -9341 7410 -385 305 -89 485 -1537 8423 -4787 -2764 -771 -445zm232 3159l5626 3248 1609 929 334 -1828 1782 -9767 6300 -4998 -4936 29942 -5591 -3227 964 -5335 164 -910 -793 -458 -8702 -5024 3243 -2572zm-29108 -32863l-2359 2125 -10783 9715 -435 391 2 582 36 9037 3 758 649 375 7596 4385 819 473 711 -635 12114 -10840 -3531 15778 -211 941 832 481 7616 4396 762 441 700 -548 28313 -22153 1525 -1193 -1677 -968 -7719 -4457 -746 -431 -694 521 -15867 11907 4296 -18433 221 -948 -837 -483 -5932 -3425 -822 -474 -708 636 -14495 13029 441 -7813 180 -3170zm-3410 14001l-179 3166 2359 -2120 16145 -14512 4275 2468 -4889 20981 -815 3495 2871 -2154 18043 -13541 5294 3057 -26088 20412 -6021 -3476 4211 -18817 891 -3980 -3042 2721 -14445 12925 -6128 -3537 -30 -7697 7990 -7199 -442 7808zm-802 -23633c877,1072 1452,2247 1726,3524l-3 4c54,250 97,495 128,735l16 138 -9072 8173 -2880 2595c-380,-120 -768,-264 -1163,-430 -637,-269 -1293,-598 -1969,-988l-4754 -2745 -1130 -652 -655 1134 -5068 8778 -5062 -2923 15361 -26605 10818 6246c1566,904 2802,1909 3707,3016zm4275 2971c-363,-1692 -1115,-3236 -2255,-4629 -1112,-1360 -2585,-2569 -4417,-3627l-11953 -6901 -1134 -655 -655 1134 -16671 28875 -655 1134 1135 655 7326 4230 1130 653 655 -1135 5068 -8777 3624 2092c764,441 1516,818 2254,1129 750,316 1485,564 2207,745l676 169 518 -467 3416 -3078 9549 -8602 454 -410 -24 -612c-13,-328 -39,-650 -80,-966 -41,-324 -96,-643 -165,-957l-3 0zm-10709 1930c-68,399 -233,826 -495,1280 -272,470 -564,846 -877,1127 -288,259 -596,443 -921,553l-12 -1c-320,110 -720,111 -1198,4 -588,-132 -1272,-424 -2052,-874l-1613 -931 3169 -5489 1633 943c728,421 1290,839 1686,1255 333,351 543,691 631,1021 96,365 112,735 49,1112zm80846 -46411l0 0zm-29463 -15849l26865 15511c811,468 1744,563 2598,338l7 -2 7 -2c852,-232 1613,-781 2081,-1592l605 -1048c470,-815 564,-1753 334,-2611 -228,-849 -776,-1610 -1592,-2081l-26865 -15511c-815,-470 -1749,-565 -2598,-337 -858,229 -1624,779 -2095,1594l9 5 -605 1048 -9 -5c-471,816 -564,1754 -334,2612 228,849 776,1610 1592,2081zm2730 -4729l26865 15511c390,226 523,724 299,1113l-605 1048c-225,390 -724,524 -1114,299l-26865 -15511c-390,-225 -524,-724 -299,-1114l605 -1048c225,-389 724,-523 1114,-298zm-80793 170958c-1813,-1047 -3030,-2730 -3533,-4604 -502,-1875 -289,-3941 757,-5754 1047,-1813 2730,-3030 4604,-3532 1875,-503 3941,-290 5754,757 1813,1047 3031,2730 3533,4604 502,1874 289,3940 -758,5753 -2093,3626 -6730,4870 -10357,2776zm-1002 -5282c329,1226 1125,2328 2312,3013 2373,1370 5408,556 6778,-1817 685,-1187 825,-2539 496,-3765 -328,-1226 -1125,-2328 -2312,-3013 -1187,-685 -2539,-825 -3766,-496 -1226,329 -2327,1125 -3013,2312 -685,1187 -824,2539 -495,3766zm44393 -173894l90084 52010 -79466 137640 -80577 -46522 0 -3025 79618 45967 76846 -133101 -85546 -49390 -70918 122834 0 -5240 69959 -121173z"/>
 </g>
</svg>
