<?xml version="1.0" encoding="UTF-8"?>
<!DOCTYPE svg PUBLIC "-//W3C//DTD SVG 1.1//EN" "http://www.w3.org/Graphics/SVG/1.1/DTD/svg11.dtd">
<!-- Creator: CorelDRAW X7 -->
<svg xmlns="http://www.w3.org/2000/svg" xml:space="preserve" width="0.711063in" height="0.711063in" version="1.1" style="shape-rendering:geometricPrecision; text-rendering:geometricPrecision; image-rendering:optimizeQuality; fill-rule:evenodd; clip-rule:evenodd"
viewBox="0 0 7111 7111"
 xmlns:xlink="http://www.w3.org/1999/xlink">
 <defs>
  <style type="text/css">
   <![CDATA[
    .fil1 {fill:none}
    .fil0 {fill:black}
   ]]>
  </style>
 </defs>
 <g id="Layer_x0020_1">
  <metadata id="CorelCorpID_0Corel-Layer"/>
  <g id="_2048245255264">
   <path class="fil0" d="M5887 5641l-3998 0 0 222 4220 0 0 -3284 -222 0 0 3062zm-3766 -1962l666 0 0 -222 -666 0 0 222zm2869 888l-666 0 0 222 666 0 0 -222zm-2203 222l0 -222 -666 0 0 222 666 0zm1101 -222l-666 0 0 222 666 0 0 -222zm436 -1110l0 222 666 0 0 -222 -666 0zm-1102 222l666 0 0 -222 -666 0 0 222zm-435 542l0 -222 -666 0 0 222 666 0zm1101 0l0 -222 -666 0 0 222 666 0zm436 -222l0 222 666 0 0 -222 -666 0zm-2213 1420l1077 0 2477 0 0 -2840 0 -443 -440 0 0 -444 -223 0 0 444 -556 0 0 -444c-75,0 -149,0 -223,0l0 444 -556 0 0 -444c-75,0 -149,0 -223,0l0 444 -556 0 0 -444c-74,0 -149,0 -223,0l0 444 -556 0 0 -444 -223 0 0 444 -441 0 0 3283 444 0 222 0zm-444 -2396l3776 0 0 2174 -3776 0 0 -2174zm3776 -222l-3776 0 0 -443 3776 0 0 443z"/>
   <rect class="fil1" width="7111" height="7111"/>
  </g>
 </g>
</svg>
