<?xml version="1.0" encoding="UTF-8"?>
<!DOCTYPE svg PUBLIC "-//W3C//DTD SVG 1.1//EN" "http://www.w3.org/Graphics/SVG/1.1/DTD/svg11.dtd">
<!-- Creator: CorelDRAW X7 -->
<svg xmlns="http://www.w3.org/2000/svg" xml:space="preserve" width="0.711063in" height="0.711063in" version="1.1" style="shape-rendering:geometricPrecision; text-rendering:geometricPrecision; image-rendering:optimizeQuality; fill-rule:evenodd; clip-rule:evenodd"
viewBox="0 0 7111 7111"
 xmlns:xlink="http://www.w3.org/1999/xlink">
 <defs>
  <style type="text/css">
   <![CDATA[
    .fil1 {fill:none}
    .fil0 {fill:black}
   ]]>
  </style>
 </defs>
 <g id="Layer_x0020_1">
  <metadata id="CorelCorpID_0Corel-Layer"/>
  <g id="_2048085282880">
   <path class="fil0" d="M5665 5419l0 -3283 -552 0 0 -444 -222 0 0 444 -2671 0 0 -444 -223 0 0 444 -552 0 0 3283 4220 0zm-2878 -1420l-666 0 0 222 666 0 0 -222zm2203 0l-666 0 0 222 666 0 0 -222zm-1102 0l-666 0 0 222 666 0 0 -222zm1555 -1641l0 443 -3776 0 0 -443 3776 0zm-3776 665l3776 0 0 2174 -3776 0 0 -2174z"/>
   <rect class="fil1" width="7111" height="7111"/>
  </g>
 </g>
</svg>
