<?xml version="1.0" encoding="UTF-8"?>
<!DOCTYPE svg PUBLIC "-//W3C//DTD SVG 1.1//EN" "http://www.w3.org/Graphics/SVG/1.1/DTD/svg11.dtd">
<!-- Creator: CorelDRAW X7 -->
<svg xmlns="http://www.w3.org/2000/svg" xml:space="preserve" width="0.711063in" height="0.711063in" version="1.1" style="shape-rendering:geometricPrecision; text-rendering:geometricPrecision; image-rendering:optimizeQuality; fill-rule:evenodd; clip-rule:evenodd"
viewBox="0 0 7111 7111"
 xmlns:xlink="http://www.w3.org/1999/xlink">
 <defs>
  <style type="text/css">
   <![CDATA[
    .fil1 {fill:none}
    .fil0 {fill:black}
   ]]>
  </style>
 </defs>
 <g id="Layer_x0020_1">
  <metadata id="CorelCorpID_0Corel-Layer"/>
  <g id="_2048238130464">
   <path class="fil0" d="M1886 1692l223 0 0 444 556 0 0 -444c74,0 148,0 223,0l0 444 556 0 0 -444c74,0 148,0 223,0l0 444 556 0 0 -444c74,0 148,0 223,0l0 444 556 0 0 -444 222 0 0 444 441 0 0 3283 -4220 0 0 -3283 441 0 0 -444zm2438 2875l0 222 666 0 0 -222 -666 0zm-1102 0l0 222 666 0 0 -222 -666 0zm-1101 0l0 222 666 0 0 -222 -666 0zm2203 -1110l0 222 666 0 0 -222 -666 0zm-1102 0l0 222 666 0 0 -222 -666 0zm-1101 0l0 222 666 0 0 -222 -666 0zm2203 542l0 222 666 0 0 -222 -666 0zm-1102 0l0 222 666 0 0 -222 -666 0zm-1101 0l0 222 666 0 0 -222 -666 0zm-454 -976l3776 0 0 2174 -3776 0 0 -2174zm3776 -222l-3776 0 0 -443 3776 0 0 443z"/>
   <rect class="fil1" width="7111" height="7111"/>
  </g>
 </g>
</svg>
