<?xml version="1.0" encoding="UTF-8"?>
<!DOCTYPE svg PUBLIC "-//W3C//DTD SVG 1.1//EN" "http://www.w3.org/Graphics/SVG/1.1/DTD/svg11.dtd">
<!-- Creator: CorelDRAW X7 -->
<svg xmlns="http://www.w3.org/2000/svg" xml:space="preserve" width="0.711063in" height="0.711063in" version="1.1" style="shape-rendering:geometricPrecision; text-rendering:geometricPrecision; image-rendering:optimizeQuality; fill-rule:evenodd; clip-rule:evenodd"
viewBox="0 0 7111 7111"
 xmlns:xlink="http://www.w3.org/1999/xlink">
 <defs>
  <style type="text/css">
   <![CDATA[
    .fil1 {fill:none}
    .fil0 {fill:black}
   ]]>
  </style>
 </defs>
 <g id="Layer_x0020_1">
  <metadata id="CorelCorpID_0Corel-Layer"/>
  <g id="_2048238188096">
   <path class="fil0" d="M2990 3656l-111 192 454 262 -454 263 111 192 454 -263 0 525 222 0 0 -525 455 263 111 -192 -455 -263 455 -262 -111 -192 -455 262 0 -525 -222 0 0 525 -454 -262zm-1104 -1964l223 0 0 444 556 0 0 -444c74,0 149,0 223,0l0 444 556 0 0 -444c74,0 148,0 223,0l0 444 556 0 0 -444c74,0 148,0 223,0l0 444 556 0 0 -444 223 0 0 444 440 0 0 3283 -4220 0 0 -3283 441 0 0 -444zm-219 1331l3776 0 0 2174 -3776 0 0 -2174zm3776 -222l-3776 0 0 -443 3776 0 0 443z"/>
   <rect class="fil1" width="7111" height="7111"/>
  </g>
 </g>
</svg>
