<?xml version="1.0" encoding="UTF-8"?>
<!DOCTYPE svg PUBLIC "-//W3C//DTD SVG 1.1//EN" "http://www.w3.org/Graphics/SVG/1.1/DTD/svg11.dtd">
<!-- Creator: CorelDRAW X7 -->
<svg xmlns="http://www.w3.org/2000/svg" xml:space="preserve" width="0.711063in" height="0.711063in" version="1.1" style="shape-rendering:geometricPrecision; text-rendering:geometricPrecision; image-rendering:optimizeQuality; fill-rule:evenodd; clip-rule:evenodd"
viewBox="0 0 7111 7111"
 xmlns:xlink="http://www.w3.org/1999/xlink">
 <defs>
  <style type="text/css">
   <![CDATA[
    .fil1 {fill:none}
    .fil0 {fill:black}
   ]]>
  </style>
 </defs>
 <g id="Layer_x0020_1">
  <metadata id="CorelCorpID_0Corel-Layer"/>
  <g id="_2048290158944">
   <path class="fil0" d="M5665 5530l-3998 0 0 222 4220 0 0 -3284 -222 0 0 3062zm-1563 -1074l0 222 666 0 0 -222 -666 0zm666 -568l-666 0 0 222 666 0 0 -222zm-1102 568l-666 0 0 222 666 0 0 -222zm0 -568l-666 0 0 222 666 0 0 -222zm-1101 568l-666 0 0 222 666 0 0 -222zm0 -568l-666 0 0 222 666 0 0 -222zm0 -542l-666 0 0 222 666 0 0 -222zm1101 0l-666 0 0 222 666 0 0 -222zm1102 0l-666 0 0 222 666 0 0 -222zm675 -1321l-552 0 0 -222 -222 0 0 222 -2671 0 0 -222 -223 0 0 222 -552 0 0 3283 4220 0 0 -3283zm-774 221l0 223 222 0 0 -223 330 0 0 444 -3776 0 0 -444 330 0 0 223 223 0 0 -223 2671 0zm-3224 666l3776 0 0 2174 -3776 0 0 -2174z"/>
   <rect class="fil1" width="7111" height="7111"/>
  </g>
 </g>
</svg>
