<?xml version="1.0" encoding="UTF-8"?>
<!DOCTYPE svg PUBLIC "-//W3C//DTD SVG 1.1//EN" "http://www.w3.org/Graphics/SVG/1.1/DTD/svg11.dtd">
<!-- Creator: CorelDRAW X7 -->
<svg xmlns="http://www.w3.org/2000/svg" xml:space="preserve" width="17.4099in" height="18.9588in" version="1.1" style="shape-rendering:geometricPrecision; text-rendering:geometricPrecision; image-rendering:optimizeQuality; fill-rule:evenodd; clip-rule:evenodd"
viewBox="0 0 174099 189588"
 xmlns:xlink="http://www.w3.org/1999/xlink">
 <defs>
  <style type="text/css">
   <![CDATA[
    .fil0 {fill:#F7F2E6}
   ]]>
  </style>
 </defs>
 <g id="Layer_x0020_1">
  <metadata id="CorelCorpID_0Corel-Layer"/>
  <path class="fil0" d="M87772 142374l82413 -47580 -35845 -20695 -45915 26508c-415,238 -906,223 -1294,3l-1 2 -46714 -26537 -36463 20684 83819 47615zm653 2636c-415,238 -906,223 -1294,3l-1 2 -46716 -26539 -33814 19181 -2647 1501 2644 1503 81172 46114 82414 -47583 -35841 -20692 -45917 26510zm-653 -47038l82413 -47581 -82414 -47581 -83818 47546 83819 47616zm49177 -25380l36495 21071c625,359 840,1156 481,1781 -122,212 -294,376 -493,488l-36481 21062 36493 21069c625,359 840,1156 481,1781 -118,206 -285,367 -477,478l1 3 -85019 49087c-431,249 -945,225 -1341,-19l-86427 -49099c-628,-357 -848,-1154 -492,-1781 124,-218 301,-387 505,-499l37093 -21041 -37106 -21079c-628,-356 -848,-1154 -492,-1781 124,-218 301,-386 505,-499l37095 -21042 -37108 -21081c-628,-356 -848,-1153 -492,-1781 124,-218 301,-386 505,-499l86455 -49041c441,-250 966,-216 1362,44l84952 49046c625,359 840,1157 481,1781 -122,212 -294,377 -493,488l-36483 21063z"/>
 </g>
</svg>
