<?xml version="1.0" encoding="UTF-8"?>
<!DOCTYPE svg PUBLIC "-//W3C//DTD SVG 1.1//EN" "http://www.w3.org/Graphics/SVG/1.1/DTD/svg11.dtd">
<!-- Creator: CorelDRAW X7 -->
<svg xmlns="http://www.w3.org/2000/svg" xml:space="preserve" width="100%" height="100%" version="1.1" style="shape-rendering:geometricPrecision; text-rendering:geometricPrecision; image-rendering:optimizeQuality; fill-rule:evenodd; clip-rule:evenodd"
viewBox="0 0 6858 6858"
 xmlns:xlink="http://www.w3.org/1999/xlink">
 <defs>
  <style type="text/css">
   <![CDATA[
    .fil1 {fill:#DABA76}
    .fil0 {fill:white}
   ]]>
  </style>
 </defs>
 <g id="Layer_x0020_1">
  <metadata id="CorelCorpID_0Corel-Layer"/>
  <g id="_2330787945856">
   <circle class="fil0" cx="3429" cy="3429" r="3434"/>
   <path class="fil1" d="M2248 3428c0,-652 528,-1180 1180,-1180 651,0 1180,528 1180,1180 0,315 -123,611 -346,834 -223,223 -519,346 -834,346 -316,0 -611,-123 -834,-346 -223,-223 -346,-519 -346,-834zm1244 -1960l0 656c192,9 373,60 535,143l328 -568c-81,-78 -100,-200 -41,-303 70,-120 221,-160 341,-91 120,70 161,221 91,341 -59,103 -175,147 -283,116l-328 568c157,102 291,235 391,392l570 -328c-31,-108 14,-223 116,-282 120,-70 271,-29 341,91 69,120 29,271 -92,341 -102,59 -225,39 -303,-41l-569 328c84,162 134,343 143,535l658 0c27,-108 124,-186 242,-186 139,0 249,110 249,249 0,139 -110,249 -249,249 -118,0 -215,-78 -242,-186l-658 0c-9,189 -58,370 -144,535l570 329c78,-81 201,-101 303,-42 121,70 161,221 92,341 -70,120 -221,161 -341,91 -102,-59 -147,-174 -116,-281l-571 -330c-50,77 -108,150 -174,216 -67,67 -140,125 -218,176l329 569c108,-31 225,13 284,116 70,120 29,271 -91,341 -120,69 -271,29 -341,-92 -59,-101 -40,-223 40,-301l-329 -570c-165,84 -347,133 -536,142l0 658c110,26 189,123 189,242 0,139 -110,249 -249,249 -139,0 -250,-110 -250,-249 0,-118 77,-213 185,-241l0 -659c-189,-9 -371,-58 -535,-143l-328 568c82,78 102,201 42,304 -69,121 -220,161 -340,92 -120,-70 -161,-221 -92,-341 59,-102 173,-146 280,-117l329 -570c-77,-50 -149,-108 -215,-174 -67,-67 -126,-140 -176,-218l-568 328c33,109 -12,226 -115,285 -120,70 -272,29 -341,-91 -69,-120 -29,-271 91,-341 102,-58 223,-40 301,39l569 -328c-85,-165 -134,-347 -143,-535l-655 0c-26,109 -123,188 -242,188 -139,0 -249,-110 -249,-249 0,-139 110,-249 249,-249 117,0 213,76 241,184l657 0c9,-192 60,-373 143,-535l-567 -327c-77,81 -201,101 -304,42 -120,-70 -160,-221 -91,-341 69,-120 221,-161 341,-91 102,58 146,173 116,280l568 328c102,-156 235,-290 392,-391l-327 -567c-108,31 -224,-13 -284,-116 -69,-120 -28,-271 92,-341 120,-69 271,-29 340,91 60,103 40,225 -40,303l328 567c162,-83 343,-133 535,-142l0 -656c-109,-27 -187,-124 -187,-242 0,-139 111,-249 250,-249 139,0 249,110 249,249 0,118 -78,215 -186,242zm-1225 -51c59,-34 131,-14 165,44 35,61 15,130 -44,164 -60,35 -130,17 -165,-44 -33,-58 -15,-130 44,-164zm-850 850c34,-59 106,-77 164,-44 61,35 79,105 44,165 -34,59 -103,79 -164,44 -58,-34 -78,-106 -44,-165zm-311 1162c0,-68 53,-120 120,-120 70,0 120,51 120,120 0,69 -50,120 -120,120 -67,0 -120,-52 -120,-120zm311 1162c-34,-59 -14,-131 44,-165 61,-35 130,-15 164,44 35,60 17,130 -44,165 -58,33 -130,15 -164,-44zm850 850c-59,-34 -77,-106 -44,-164 35,-61 105,-79 165,-45 59,35 79,104 44,165 -34,58 -106,78 -165,44zm1162 311c-68,0 -120,-53 -120,-120 0,-70 51,-121 120,-121 69,0 120,51 120,121 0,67 -52,120 -120,120zm1162 -311c-59,34 -131,14 -165,-44 -35,-61 -15,-130 44,-165 60,-34 130,-16 165,45 33,58 15,130 -44,164zm850 -850c-34,59 -107,77 -165,44 -60,-35 -78,-105 -44,-165 35,-59 104,-79 165,-44 58,34 78,106 44,165zm311 -1162c0,68 -53,120 -120,120 -70,0 -121,-51 -121,-120 0,-69 51,-120 121,-120 67,0 120,52 120,120zm-311 -1162c34,59 14,131 -44,165 -61,35 -130,15 -165,-44 -34,-60 -16,-130 44,-165 58,-33 131,-15 165,44zm-850 -850c59,34 77,106 44,164 -35,61 -105,79 -165,44 -59,-34 -79,-103 -44,-164 34,-58 106,-78 165,-44zm-1162 -311c68,0 120,53 120,120 0,70 -51,120 -120,120 -69,0 -120,-50 -120,-120 0,-67 52,-120 120,-120z"/>
  </g>
 </g>
</svg>
