<?xml version="1.0" encoding="UTF-8"?>
<!DOCTYPE svg PUBLIC "-//W3C//DTD SVG 1.1//EN" "http://www.w3.org/Graphics/SVG/1.1/DTD/svg11.dtd">
<!-- Creator: CorelDRAW X7 -->
<svg xmlns="http://www.w3.org/2000/svg" xml:space="preserve" width="100%" height="100%" version="1.1" style="shape-rendering:geometricPrecision; text-rendering:geometricPrecision; image-rendering:optimizeQuality; fill-rule:evenodd; clip-rule:evenodd"
viewBox="0 0 21675 13039"
 xmlns:xlink="http://www.w3.org/1999/xlink">
 <defs>
  <style type="text/css">
   <![CDATA[
    .fil2 {fill:#8480BC}
    .fil1 {fill:white}
    .fil0 {fill:#8480BC;fill-rule:nonzero}
   ]]>
  </style>
 </defs>
 <g id="Layer_x0020_1">
  <metadata id="CorelCorpID_0Corel-Layer"/>
  <g id="_2330819141008">
   <polygon class="fil0" points="21666,12275 11721,12275 10837,13033 9954,12275 8,12275 8,5 21666,5 "/>
   <circle class="fil1" cx="10837" cy="4578" r="3434"/>
   <path class="fil2" d="M9656 4577c0,-652 529,-1180 1180,-1180 652,0 1180,528 1180,1180 0,315 -123,611 -346,834 -223,223 -518,346 -834,346 -315,0 -611,-123 -834,-346 -223,-223 -346,-519 -346,-834zm1244 -1960l0 656c192,9 373,60 535,143l328 -568c-80,-78 -99,-200 -40,-303 69,-120 220,-160 340,-91 121,70 161,221 92,341 -59,103 -175,147 -283,116l-328 568c156,102 290,235 391,392l569 -328c-30,-108 14,-223 116,-282 120,-70 272,-29 341,91 69,120 29,271 -91,341 -103,59 -225,39 -303,-41l-569 328c83,162 133,343 142,535l658 0c28,-108 124,-186 242,-186 139,0 250,110 250,249 0,139 -111,249 -250,249 -118,0 -214,-78 -242,-186l-658 0c-9,189 -58,370 -143,535l570 329c77,-81 200,-101 303,-42 120,70 160,221 91,341 -69,120 -221,161 -341,91 -102,-59 -146,-174 -116,-281l-570 -330c-50,77 -108,150 -175,216 -67,67 -140,125 -217,176l329 569c108,-31 224,13 284,116 69,120 29,271 -91,341 -121,69 -272,29 -341,-92 -59,-101 -40,-223 39,-301l-329 -570c-165,84 -346,133 -535,142l0 658c110,26 189,123 189,242 0,139 -111,249 -250,249 -138,0 -249,-110 -249,-249 0,-118 77,-213 184,-241l0 -659c-189,-9 -370,-58 -535,-143l-328 568c82,78 103,201 43,304 -69,121 -221,161 -341,92 -120,-70 -161,-221 -91,-341 58,-102 173,-146 280,-117l329 -570c-77,-50 -150,-108 -216,-174 -67,-67 -125,-140 -176,-218l-567 328c32,109 -12,226 -116,285 -120,70 -271,29 -340,-91 -70,-120 -29,-271 91,-341 101,-58 223,-40 301,39l568 -328c-84,-165 -133,-347 -142,-535l-655 0c-27,109 -123,188 -243,188 -138,0 -249,-110 -249,-249 0,-139 111,-249 249,-249 118,0 214,76 242,184l656 0c9,-192 60,-373 144,-535l-567 -327c-78,81 -201,101 -304,42 -120,-70 -161,-221 -91,-341 69,-120 220,-161 340,-91 102,58 147,173 117,280l568 328c101,-156 235,-290 392,-391l-328 -567c-108,31 -224,-13 -283,-116 -70,-120 -29,-271 91,-341 120,-69 272,-29 341,91 59,103 40,225 -40,303l327 567c162,-83 343,-133 535,-142l0 -656c-108,-27 -186,-124 -186,-242 0,-139 111,-249 249,-249 139,0 250,110 250,249 0,118 -78,215 -187,242zm-1224 -51c59,-34 131,-14 164,44 35,61 16,130 -44,164 -60,35 -129,17 -164,-44 -34,-58 -15,-130 44,-164zm-851 850c34,-59 107,-77 165,-44 61,35 78,105 44,165 -35,59 -104,79 -165,44 -58,-34 -78,-106 -44,-165zm-311 1162c0,-68 53,-120 120,-120 71,0 121,51 121,120 0,69 -50,120 -121,120 -67,0 -120,-52 -120,-120zm311 1162c-34,-59 -14,-131 44,-165 61,-35 130,-15 165,44 34,60 17,130 -44,165 -58,33 -131,15 -165,-44zm851 850c-59,-34 -78,-106 -44,-164 35,-61 104,-79 164,-45 60,35 79,104 44,165 -33,58 -105,78 -164,44zm1161 311c-68,0 -120,-53 -120,-120 0,-70 52,-121 120,-121 69,0 121,51 121,121 0,67 -53,120 -121,120zm1162 -311c-59,34 -131,14 -165,-44 -35,-61 -15,-130 45,-165 59,-34 129,-16 164,45 34,58 15,130 -44,164zm850 -850c-34,59 -106,77 -164,44 -61,-35 -79,-105 -44,-165 34,-59 103,-79 164,-44 58,34 78,106 44,165zm312 -1162c0,68 -54,120 -121,120 -70,0 -120,-51 -120,-120 0,-69 50,-120 120,-120 67,0 121,52 121,120zm-312 -1162c34,59 14,131 -44,165 -61,35 -130,15 -164,-44 -35,-60 -17,-130 44,-165 58,-33 130,-15 164,44zm-850 -850c59,34 78,106 44,164 -35,61 -105,79 -164,44 -60,-34 -80,-103 -45,-164 34,-58 106,-78 165,-44zm-1162 -311c68,0 121,53 121,120 0,70 -52,120 -121,120 -68,0 -120,-50 -120,-120 0,-67 52,-120 120,-120z"/>
  </g>
 </g>
</svg>
