<?xml version="1.0" encoding="UTF-8"?>
<!DOCTYPE svg PUBLIC "-//W3C//DTD SVG 1.1//EN" "http://www.w3.org/Graphics/SVG/1.1/DTD/svg11.dtd">
<!-- Creator: CorelDRAW X7 -->
<svg xmlns="http://www.w3.org/2000/svg" xml:space="preserve" width="100%" height="100%" version="1.1" style="shape-rendering:geometricPrecision; text-rendering:geometricPrecision; image-rendering:optimizeQuality; fill-rule:evenodd; clip-rule:evenodd"
viewBox="0 0 21675 13039"
 xmlns:xlink="http://www.w3.org/1999/xlink">
 <defs>
  <style type="text/css">
   <![CDATA[
    .fil3 {fill:#8480BC}
    .fil2 {fill:white}
    .fil1 {fill:#FEFEFE;fill-rule:nonzero}
    .fil0 {fill:#8480BC;fill-rule:nonzero}
   ]]>
  </style>
 </defs>
 <g id="Layer_x0020_1">
  <metadata id="CorelCorpID_0Corel-Layer"/>
  <g id="_2330643266704">
   <polygon class="fil0" points="21666,12275 11721,12275 10837,13033 9954,12275 8,12275 8,5 21666,5 "/>
   <path class="fil1" d="M6989 10277c15,17 29,41 40,71 11,31 16,60 16,88 0,42 -12,84 -37,125 -25,41 -65,77 -119,109 -55,32 -127,57 -215,76 -88,19 -197,28 -325,28 -143,0 -260,-12 -353,-39 -92,-25 -166,-61 -220,-106 -54,-46 -92,-99 -113,-161 -21,-61 -32,-127 -32,-199l0 -327 172 0 0 295c0,125 43,217 129,276 86,58 227,88 421,88 72,0 140,-4 205,-12 65,-7 122,-18 171,-33 49,-15 87,-34 115,-57 28,-23 42,-49 42,-78 0,-33 -16,-62 -49,-87 -34,-25 -74,-48 -123,-68 -49,-19 -100,-36 -155,-51 -55,-15 -104,-29 -146,-41l0 -172c182,66 352,99 509,99l214 0c57,0 85,29 85,85 0,35 -7,59 -20,72 -13,13 -35,19 -65,19l-147 0zm145 0c-56,0 -84,-28 -84,-85 0,-35 6,-59 20,-71 13,-13 35,-20 64,-20l142 0c34,0 63,-1 87,-4 24,-3 44,-9 60,-20 17,-10 29,-26 36,-46 8,-21 12,-48 12,-84l0 -484 174 0 0 406c0,35 2,67 7,96 5,29 14,53 28,73 15,19 34,35 57,47 24,11 55,16 92,16 56,0 85,29 85,85 0,35 -7,59 -20,72 -14,13 -35,19 -65,19 -55,0 -100,-13 -133,-39 -34,-26 -57,-59 -69,-98 -25,57 -65,95 -119,112 -54,17 -121,25 -200,25l-174 0zm168 -1171c0,-31 11,-57 33,-79 22,-22 48,-33 79,-33 31,0 58,11 79,33 22,22 33,48 33,79 0,31 -11,58 -33,80 -21,22 -48,33 -79,33 -31,0 -57,-11 -79,-33 -22,-22 -33,-49 -33,-80zm274 0c0,-31 12,-57 34,-79 22,-22 48,-33 79,-33 31,0 57,11 79,33 22,22 33,48 33,79 0,31 -11,58 -33,80 -22,22 -48,33 -79,33 -31,0 -57,-11 -79,-33 -22,-22 -34,-49 -34,-80zm252 1171c-56,0 -85,-28 -85,-85 0,-35 7,-59 20,-71 14,-13 35,-20 65,-20l505 0c53,0 96,-9 131,-27 35,-18 52,-54 52,-106 0,-37 -17,-78 -52,-125 -35,-48 -81,-96 -138,-145 -57,-48 -123,-97 -197,-144 -74,-47 -149,-90 -227,-127 2,-18 6,-35 13,-53 7,-17 15,-33 23,-48 8,-15 17,-28 26,-39 9,-12 17,-20 23,-24l774 -341 0 172 -622 275c99,58 182,114 252,169 69,55 125,108 168,159 43,51 75,100 94,148 20,47 30,91 30,133 0,30 -5,63 -14,98 -9,36 -26,68 -52,98 -25,29 -61,54 -107,74 -47,19 -107,29 -181,29l-501 0zm1676 0c-47,0 -85,-10 -116,-31 -31,-21 -54,-46 -70,-74 0,101 -6,187 -18,256 -12,70 -34,127 -68,170 -34,43 -81,74 -140,93 -59,19 -136,29 -231,29l0 -176c68,0 122,-8 161,-22 39,-15 68,-39 88,-72 19,-33 30,-76 34,-127 3,-52 5,-114 5,-187l0 -568 172 0 0 301c0,72 13,128 39,170 26,42 74,62 144,62 57,0 85,29 85,85 0,35 -7,59 -20,72 -14,13 -35,19 -65,19zm74 -176c47,0 86,-1 118,-4 32,-3 58,-9 77,-20 19,-10 33,-26 41,-46 9,-21 13,-48 13,-84l0 -381 173 0 0 303c0,35 3,67 7,96 5,29 14,53 30,73 16,19 37,35 66,47 28,11 67,16 115,16 31,0 59,-1 82,-4 23,-3 43,-9 58,-20 16,-10 28,-26 35,-46 8,-21 12,-48 12,-84l0 -379 173 0 0 301c0,35 3,67 8,96 5,29 14,53 28,73 13,19 32,35 56,47 24,11 54,16 91,16l178 0 0 -638 173 0 0 814 -351 0c-55,0 -99,-13 -133,-39 -33,-26 -55,-59 -66,-98 -26,57 -66,95 -119,112 -54,17 -119,25 -195,25 -49,0 -90,-4 -121,-12 -32,-8 -59,-18 -80,-31 -21,-13 -37,-28 -49,-46 -12,-17 -22,-34 -31,-51 -12,30 -28,54 -47,71 -20,18 -44,32 -75,43 -30,11 -67,18 -112,21 -44,3 -97,5 -160,5l-70 0c-56,0 -84,-28 -84,-85 0,-35 6,-59 20,-71 13,-13 35,-20 64,-20l75 0zm649 -995c0,-31 11,-57 33,-79 22,-22 49,-33 80,-33 31,0 57,11 79,33 22,22 33,48 33,79 0,31 -11,58 -33,80 -22,22 -48,33 -79,33 -31,0 -58,-11 -80,-33 -22,-22 -33,-49 -33,-80zm275 0c0,-31 11,-57 33,-79 22,-22 49,-33 80,-33 31,0 57,11 79,33 21,22 32,48 32,79 0,31 -11,58 -32,80 -22,22 -48,33 -79,33 -31,0 -58,-11 -80,-33 -22,-22 -33,-49 -33,-80zm-133 -253c0,-31 11,-58 33,-80 22,-22 48,-33 80,-33 31,0 57,11 79,33 21,22 32,49 32,80 0,31 -11,57 -32,79 -22,22 -48,32 -79,32 -32,0 -58,-10 -80,-32 -22,-22 -33,-48 -33,-79zm1390 871c0,60 18,108 56,144 37,37 97,56 178,56 31,0 65,-4 101,-11 36,-7 69,-16 97,-27l0 -377 -186 0c-68,0 -126,17 -174,51 -48,35 -72,89 -72,164zm220 380c-34,0 -73,-5 -117,-16 -45,-9 -87,-27 -128,-53 -40,-26 -74,-63 -102,-110 -29,-48 -43,-110 -43,-185 0,-77 14,-141 41,-192 26,-51 61,-93 103,-126 43,-32 89,-55 141,-69 51,-15 102,-22 153,-22l337 0 0 607c0,59 10,101 28,126 18,25 59,37 122,37l51 0c56,0 84,29 84,85 0,35 -6,59 -20,72 -13,13 -35,19 -64,19l-72 0c-36,0 -71,-3 -104,-9 -34,-6 -63,-18 -90,-34 -26,-17 -48,-38 -67,-65 -18,-26 -30,-61 -35,-104 -31,11 -66,21 -105,28 -39,7 -77,11 -113,11zm586 173c-57,0 -85,-28 -85,-85 0,-35 7,-59 20,-71 14,-13 35,-20 65,-20l848 0c0,-90 -11,-166 -35,-228 -24,-62 -57,-112 -97,-151 -41,-39 -90,-68 -145,-85 -55,-18 -113,-27 -173,-27 -41,0 -84,4 -130,12 -46,7 -84,16 -113,25l0 -170c28,-8 66,-18 112,-28 46,-11 97,-16 153,-16 105,0 196,17 272,53 76,34 139,83 189,144 51,62 88,133 111,214 24,81 37,167 38,257l131 0c57,0 85,29 85,85 0,35 -7,59 -20,72 -13,13 -35,19 -65,19l-1161 0zm323 -1171c0,-31 12,-57 33,-79 23,-22 49,-33 80,-33 31,0 57,11 79,33 22,22 33,48 33,79 0,31 -11,58 -33,80 -22,22 -48,33 -79,33 -31,0 -57,-11 -80,-33 -21,-22 -33,-49 -33,-80zm915 995c47,0 86,-1 118,-4 32,-3 58,-9 77,-20 19,-10 33,-26 42,-46 8,-21 12,-48 12,-84l0 -379 174 0 0 301c0,35 2,67 6,96 5,29 15,53 30,73 16,19 38,35 67,47 29,11 68,16 117,16 31,0 58,-1 81,-4 22,-3 41,-9 57,-20 15,-10 27,-26 34,-46 8,-21 12,-48 12,-84l0 -379 173 0 0 301c0,35 3,67 8,96 6,29 15,53 30,73 15,19 36,35 62,47 26,11 60,16 102,16 24,0 46,-1 66,-4 19,-3 36,-9 50,-20 14,-10 25,-26 34,-46 7,-21 11,-48 11,-84l0 -484 174 0 0 406c0,35 2,67 7,96 5,29 14,53 28,73 15,19 34,35 57,47 24,11 54,16 92,16 56,0 85,29 85,85 0,35 -7,59 -21,72 -13,13 -35,19 -64,19 -55,0 -100,-13 -133,-39 -34,-26 -57,-59 -69,-98 -12,29 -30,53 -52,70 -23,18 -47,32 -73,42 -25,10 -50,17 -74,20 -24,3 -44,5 -61,5 -47,0 -86,-4 -118,-13 -32,-8 -58,-19 -79,-32 -21,-13 -38,-28 -50,-45 -12,-16 -21,-32 -28,-47 -26,57 -65,95 -117,112 -53,17 -116,25 -190,25 -50,0 -91,-4 -124,-12 -33,-8 -60,-18 -81,-31 -21,-13 -38,-28 -51,-46 -12,-17 -23,-34 -32,-51 -12,30 -28,54 -47,71 -19,18 -44,32 -74,43 -31,11 -68,18 -112,21 -45,3 -98,5 -160,5l-70 0c-57,0 -85,-28 -85,-85 0,-35 7,-59 20,-71 13,-13 35,-20 65,-20l74 0zm2016 -995c0,-31 11,-57 33,-79 22,-22 49,-33 80,-33 31,0 57,11 79,33 21,22 32,48 32,79 0,31 -11,58 -32,80 -22,22 -48,33 -79,33 -31,0 -58,-11 -80,-33 -22,-22 -33,-49 -33,-80zm-296 1171c-57,0 -85,-28 -85,-85 0,-35 7,-59 20,-71 14,-13 35,-20 65,-20l330 0 0 -638 173 0 0 814 -503 0z"/>
   <circle class="fil2" cx="10837" cy="4578" r="3434"/>
   <path class="fil3" d="M9656 4577c0,-652 529,-1180 1180,-1180 652,0 1180,528 1180,1180 0,315 -123,611 -346,834 -223,223 -518,346 -834,346 -315,0 -611,-123 -834,-346 -223,-223 -346,-519 -346,-834zm1244 -1960l0 656c192,9 373,60 535,143l328 -568c-80,-78 -99,-200 -40,-303 69,-120 220,-160 340,-91 121,70 161,221 92,341 -59,103 -175,147 -283,116l-328 568c156,102 290,235 391,392l569 -328c-30,-108 14,-223 116,-282 120,-70 272,-29 341,91 69,120 29,271 -91,341 -103,59 -225,39 -303,-41l-569 328c83,162 133,343 142,535l658 0c28,-108 124,-186 242,-186 139,0 250,110 250,249 0,139 -111,249 -250,249 -118,0 -214,-78 -242,-186l-658 0c-9,189 -58,370 -143,535l570 329c77,-81 200,-101 303,-42 120,70 160,221 91,341 -69,120 -221,161 -341,91 -102,-59 -146,-174 -116,-281l-570 -330c-50,77 -108,150 -175,216 -67,67 -140,125 -217,176l329 569c108,-31 224,13 284,116 69,120 29,271 -91,341 -121,69 -272,29 -341,-92 -59,-101 -40,-223 39,-301l-329 -570c-165,84 -346,133 -535,142l0 658c110,26 189,123 189,242 0,139 -111,249 -250,249 -138,0 -249,-110 -249,-249 0,-118 77,-213 184,-241l0 -659c-189,-9 -370,-58 -535,-143l-328 568c82,78 103,201 43,304 -69,121 -221,161 -341,92 -120,-70 -161,-221 -91,-341 58,-102 173,-146 280,-117l329 -570c-77,-50 -150,-108 -216,-174 -67,-67 -125,-140 -176,-218l-567 328c32,109 -12,226 -116,285 -120,70 -271,29 -340,-91 -70,-120 -29,-271 91,-341 101,-58 223,-40 301,39l568 -328c-84,-165 -133,-347 -142,-535l-655 0c-27,109 -123,188 -243,188 -138,0 -249,-110 -249,-249 0,-139 111,-249 249,-249 118,0 214,76 242,184l656 0c9,-192 60,-373 144,-535l-567 -327c-78,81 -201,101 -304,42 -120,-70 -161,-221 -91,-341 69,-120 220,-161 340,-91 102,58 147,173 117,280l568 328c101,-156 235,-290 392,-391l-328 -567c-108,31 -224,-13 -283,-116 -70,-120 -29,-271 91,-341 120,-69 272,-29 341,91 59,103 40,225 -40,303l327 567c162,-83 343,-133 535,-142l0 -656c-108,-27 -186,-124 -186,-242 0,-139 111,-249 249,-249 139,0 250,110 250,249 0,118 -78,215 -187,242zm-1224 -51c59,-34 131,-14 164,44 35,61 16,130 -44,164 -60,35 -129,17 -164,-44 -34,-58 -15,-130 44,-164zm-851 850c34,-59 107,-77 165,-44 61,35 78,105 44,165 -35,59 -104,79 -165,44 -58,-34 -78,-106 -44,-165zm-311 1162c0,-68 53,-120 120,-120 71,0 121,51 121,120 0,69 -50,120 -121,120 -67,0 -120,-52 -120,-120zm311 1162c-34,-59 -14,-131 44,-165 61,-35 130,-15 165,44 34,60 17,130 -44,165 -58,33 -131,15 -165,-44zm851 850c-59,-34 -78,-106 -44,-164 35,-61 104,-79 164,-45 60,35 79,104 44,165 -33,58 -105,78 -164,44zm1161 311c-68,0 -120,-53 -120,-120 0,-70 52,-121 120,-121 69,0 121,51 121,121 0,67 -53,120 -121,120zm1162 -311c-59,34 -131,14 -165,-44 -35,-61 -15,-130 45,-165 59,-34 129,-16 164,45 34,58 15,130 -44,164zm850 -850c-34,59 -106,77 -164,44 -61,-35 -79,-105 -44,-165 34,-59 103,-79 164,-44 58,34 78,106 44,165zm312 -1162c0,68 -54,120 -121,120 -70,0 -120,-51 -120,-120 0,-69 50,-120 120,-120 67,0 121,52 121,120zm-312 -1162c34,59 14,131 -44,165 -61,35 -130,15 -164,-44 -35,-60 -17,-130 44,-165 58,-33 130,-15 164,44zm-850 -850c59,34 78,106 44,164 -35,61 -105,79 -164,44 -60,-34 -80,-103 -45,-164 34,-58 106,-78 165,-44zm-1162 -311c68,0 121,53 121,120 0,70 -52,120 -121,120 -68,0 -120,-50 -120,-120 0,-67 52,-120 120,-120z"/>
  </g>
 </g>
</svg>
