<?xml version="1.0" encoding="UTF-8"?>
<!DOCTYPE svg PUBLIC "-//W3C//DTD SVG 1.1//EN" "http://www.w3.org/Graphics/SVG/1.1/DTD/svg11.dtd">
<!-- Creator: CorelDRAW X7 -->
<svg xmlns="http://www.w3.org/2000/svg" xml:space="preserve" width="100%" height="100%" version="1.1" style="shape-rendering:geometricPrecision; text-rendering:geometricPrecision; image-rendering:optimizeQuality; fill-rule:evenodd; clip-rule:evenodd"
viewBox="0 0 21675 13039"
 xmlns:xlink="http://www.w3.org/1999/xlink">
 <defs>
  <style type="text/css">
   <![CDATA[
    .fil2 {fill:#FEFEFE}
    .fil3 {fill:#DABA76}
    .fil1 {fill:#FEFEFE;fill-rule:nonzero}
    .fil0 {fill:#DABA76;fill-rule:nonzero}
   ]]>
  </style>
 </defs>
 <g id="Layer_x0020_1">
  <metadata id="CorelCorpID_0Corel-Layer"/>
  <g id="_2330787053632">
   <polygon class="fil0" points="21666,12275 11721,12275 10837,13033 9954,12275 8,12275 8,5 21666,5 "/>
   <path class="fil1" d="M6910 9724c0,60 19,108 56,144 38,37 97,56 178,56 31,0 65,-4 101,-11 36,-7 69,-16 97,-27l0 -377 -186 0c-68,0 -126,17 -174,51 -48,35 -72,89 -72,164zm220 380c-34,0 -73,-5 -117,-16 -45,-9 -87,-27 -128,-53 -40,-26 -74,-63 -102,-110 -28,-48 -42,-110 -42,-185 0,-77 13,-141 40,-192 27,-51 61,-93 103,-126 43,-32 90,-55 141,-69 51,-15 103,-22 154,-22l337 0 0 607c0,59 9,101 27,126 18,25 59,37 122,37l51 0c56,0 85,29 85,85 0,35 -7,59 -20,72 -14,13 -35,19 -65,19l-71 0c-37,0 -72,-3 -105,-9 -34,-6 -63,-18 -90,-34 -26,-17 -48,-38 -66,-65 -18,-26 -30,-61 -36,-104 -31,11 -66,21 -105,28 -39,7 -76,11 -113,11zm586 173c-56,0 -85,-28 -85,-85 0,-35 7,-59 20,-71 14,-13 35,-20 65,-20l313 0c57,0 85,29 85,85 0,35 -7,59 -20,72 -14,13 -35,19 -65,19l-313 0zm313 0c-56,0 -84,-28 -84,-85 0,-35 6,-59 20,-71 13,-13 35,-20 64,-20l330 0 0 -638 174 0 0 814 -504 0zm87 319c0,-31 11,-57 33,-79 22,-21 49,-32 80,-32 31,0 57,11 79,32 21,22 32,48 32,79 0,31 -11,58 -32,80 -22,22 -48,33 -79,33 -31,0 -58,-11 -80,-33 -22,-22 -33,-49 -33,-80zm275 0c0,-31 11,-57 33,-79 22,-21 49,-32 80,-32 30,0 57,11 79,32 21,22 32,48 32,79 0,31 -11,58 -32,80 -22,22 -49,33 -79,33 -31,0 -58,-11 -80,-33 -22,-22 -33,-49 -33,-80zm880 -410c0,35 -7,59 -20,72 -14,13 -35,19 -65,19l-55 0c-46,0 -87,-4 -124,-14 -37,-9 -69,-25 -95,-47 -26,-23 -47,-53 -62,-90 -14,-38 -22,-85 -22,-141l0 -1219 174 0 0 1172c0,59 9,101 28,126 18,25 59,37 123,37l33 0c56,0 85,29 85,85zm-85 91c-56,0 -85,-28 -85,-85 0,-35 7,-59 20,-71 14,-13 35,-20 65,-20l313 0c57,0 85,29 85,85 0,35 -7,59 -20,72 -14,13 -35,19 -65,19l-313 0zm313 0c-56,0 -84,-28 -84,-85 0,-35 6,-59 20,-71 13,-13 35,-20 64,-20l330 0 0 -638 174 0 0 814 -504 0zm544 319c0,31 -11,58 -33,80 -21,22 -48,33 -79,33 -31,0 -57,-11 -79,-33 -22,-22 -33,-49 -33,-80 0,-31 11,-57 33,-79 22,-21 48,-32 79,-32 31,0 58,11 79,32 22,22 33,48 33,79zm-275 0c0,31 -11,58 -33,80 -21,22 -48,33 -79,33 -31,0 -57,-11 -79,-33 -22,-22 -33,-49 -33,-80 0,-31 11,-57 33,-79 22,-21 48,-32 79,-32 31,0 58,11 79,32 22,22 33,48 33,79zm133 255c0,31 -11,57 -32,80 -22,21 -48,32 -79,32 -31,0 -58,-11 -80,-32 -22,-23 -33,-49 -33,-80 0,-31 11,-58 33,-80 22,-22 49,-33 80,-33 31,0 57,11 79,33 21,22 32,49 32,80zm749 -1127c0,60 18,108 56,144 37,37 97,56 178,56 31,0 65,-4 101,-11 36,-7 69,-16 97,-27l0 -377 -186 0c-68,0 -126,17 -174,51 -48,35 -72,89 -72,164zm220 380c-34,0 -73,-5 -117,-16 -45,-9 -87,-27 -128,-53 -40,-26 -74,-63 -102,-110 -29,-48 -43,-110 -43,-185 0,-77 14,-141 41,-192 26,-51 61,-93 103,-126 43,-32 89,-55 141,-69 51,-15 102,-22 153,-22l337 0 0 607c0,59 10,101 28,126 18,25 59,37 122,37l51 0c56,0 84,29 84,85 0,35 -6,59 -20,72 -13,13 -35,19 -64,19l-72 0c-36,0 -71,-3 -104,-9 -34,-6 -63,-18 -90,-34 -26,-17 -48,-38 -67,-65 -18,-26 -30,-61 -35,-104 -31,11 -66,21 -105,28 -39,7 -77,11 -113,11zm586 173c-57,0 -85,-28 -85,-85 0,-35 7,-59 20,-71 14,-13 35,-20 65,-20l848 0c0,-90 -11,-166 -35,-228 -24,-62 -57,-112 -97,-151 -41,-39 -90,-68 -145,-85 -55,-18 -113,-27 -173,-27 -41,0 -84,4 -130,12 -46,7 -84,16 -113,25l0 -170c28,-8 66,-18 112,-28 46,-11 97,-16 153,-16 105,0 196,17 272,53 76,34 139,83 189,144 51,62 88,133 111,214 24,81 37,167 38,257l131 0c57,0 85,29 85,85 0,35 -7,59 -20,72 -13,13 -35,19 -65,19l-1161 0zm323 -1171c0,-31 12,-57 33,-79 23,-22 49,-33 80,-33 31,0 57,11 79,33 22,22 33,48 33,79 0,31 -11,58 -33,80 -22,22 -48,33 -79,33 -31,0 -57,-11 -80,-33 -21,-22 -33,-49 -33,-80zm915 995c47,0 86,-1 118,-4 32,-3 58,-9 77,-20 19,-10 33,-26 42,-46 8,-21 12,-48 12,-84l0 -379 174 0 0 301c0,35 2,67 6,96 5,29 15,53 30,73 16,19 38,35 67,47 29,11 68,16 117,16 31,0 58,-1 81,-4 22,-3 41,-9 57,-20 15,-10 27,-26 34,-46 8,-21 12,-48 12,-84l0 -379 173 0 0 301c0,35 3,67 8,96 6,29 15,53 30,73 15,19 36,35 62,47 26,11 60,16 102,16 24,0 46,-1 66,-4 19,-3 36,-9 50,-20 14,-10 25,-26 34,-46 7,-21 11,-48 11,-84l0 -484 174 0 0 406c0,35 2,67 7,96 5,29 14,53 28,73 15,19 34,35 57,47 24,11 54,16 92,16 56,0 85,29 85,85 0,35 -7,59 -21,72 -13,13 -35,19 -64,19 -55,0 -100,-13 -133,-39 -34,-26 -57,-59 -69,-98 -12,29 -30,53 -52,70 -23,18 -47,32 -73,42 -25,10 -50,17 -74,20 -24,3 -44,5 -61,5 -47,0 -86,-4 -118,-13 -32,-8 -58,-19 -79,-32 -21,-13 -38,-28 -50,-45 -12,-16 -21,-32 -28,-47 -26,57 -65,95 -117,112 -53,17 -116,25 -190,25 -50,0 -91,-4 -124,-12 -33,-8 -60,-18 -81,-31 -21,-13 -38,-28 -51,-46 -12,-17 -23,-34 -32,-51 -12,30 -28,54 -47,71 -19,18 -44,32 -74,43 -31,11 -68,18 -112,21 -45,3 -98,5 -160,5l-70 0c-57,0 -85,-28 -85,-85 0,-35 7,-59 20,-71 13,-13 35,-20 65,-20l74 0zm2016 -995c0,-31 11,-57 33,-79 22,-22 49,-33 80,-33 31,0 57,11 79,33 21,22 32,48 32,79 0,31 -11,58 -32,80 -22,22 -48,33 -79,33 -31,0 -58,-11 -80,-33 -22,-22 -33,-49 -33,-80zm-296 1171c-57,0 -85,-28 -85,-85 0,-35 7,-59 20,-71 14,-13 35,-20 65,-20l330 0 0 -638 173 0 0 814 -503 0z"/>
   <circle class="fil2" cx="10837" cy="4578" r="3434"/>
   <path class="fil3" d="M9656 4577c0,-652 529,-1180 1180,-1180 652,0 1180,528 1180,1180 0,315 -123,611 -346,834 -223,223 -518,345 -834,345 -315,0 -611,-122 -834,-345 -223,-223 -346,-519 -346,-834zm1244 -1960l0 656c691,33 1242,604 1242,1304 0,211 -51,416 -145,598l569 329c78,-81 201,-100 303,-41 121,69 161,221 92,341 -70,120 -221,160 -341,91 -102,-59 -147,-174 -116,-282l-570 -329c-50,77 -109,149 -175,215 -246,247 -574,383 -923,383 -349,0 -676,-136 -923,-383 -67,-66 -125,-139 -175,-217l-568 328c32,108 -12,225 -115,285 -121,69 -272,29 -341,-91 -69,-120 -29,-272 91,-341 102,-59 223,-40 301,39l569 -329c-94,-182 -144,-385 -144,-596 0,-701 551,-1272 1243,-1304l0 -656c-108,-27 -186,-124 -186,-242 0,-138 111,-249 249,-249 139,0 250,111 250,249 0,118 -78,215 -187,242zm-2074 3122c-34,-59 -14,-131 44,-164 60,-35 130,-16 164,44 34,59 17,129 -44,164 -58,34 -130,15 -164,-44zm4023 0c-34,59 -106,78 -164,44 -61,-35 -79,-105 -44,-164 34,-60 103,-79 164,-44 58,33 78,105 44,164zm-2012 -3484c68,0 121,53 121,120 0,70 -52,121 -121,121 -68,0 -120,-51 -120,-121 0,-67 52,-120 120,-120z"/>
  </g>
 </g>
</svg>
