<?xml version="1.0" encoding="UTF-8"?>
<!DOCTYPE svg PUBLIC "-//W3C//DTD SVG 1.1//EN" "http://www.w3.org/Graphics/SVG/1.1/DTD/svg11.dtd">
<!-- Creator: CorelDRAW X7 -->
<svg xmlns="http://www.w3.org/2000/svg" xml:space="preserve" width="100%" height="100%" version="1.1" style="shape-rendering:geometricPrecision; text-rendering:geometricPrecision; image-rendering:optimizeQuality; fill-rule:evenodd; clip-rule:evenodd"
viewBox="0 0 6858 6858"
 xmlns:xlink="http://www.w3.org/1999/xlink">
 <defs>
  <style type="text/css">
   <![CDATA[
    .fil0 {fill:#8DA0D1}
    .fil1 {fill:white}
   ]]>
  </style>
 </defs>
 <g id="Layer_x0020_1">
  <metadata id="CorelCorpID_0Corel-Layer"/>
  <g id="_2330819093520">
   <circle class="fil0" cx="3429" cy="3429" r="3434"/>
   <path class="fil1" d="M2248 3428c0,-652 528,-1180 1180,-1180 651,0 1180,528 1180,1180 0,315 -123,611 -346,834 -223,223 -519,346 -834,346 -316,0 -611,-123 -834,-346 -223,-223 -346,-519 -346,-834zm1244 -1960l0 656c691,33 1241,604 1241,1304 0,212 -50,416 -145,599l570 328c78,-81 200,-100 303,-41 120,70 161,221 91,341 -69,120 -220,160 -340,91 -103,-59 -147,-174 -117,-282l-570 -329c-50,77 -108,149 -174,216 -247,246 -575,382 -923,382 -349,0 -677,-136 -923,-382 -67,-67 -126,-140 -176,-218l-568 328c33,108 -12,226 -115,285 -120,69 -271,29 -341,-91 -69,-120 -28,-271 92,-341 101,-58 223,-40 300,39l569 -329c-94,-182 -144,-385 -144,-596 0,-700 552,-1272 1244,-1304l0 -656c-109,-27 -186,-123 -186,-242 0,-138 110,-249 249,-249 139,0 249,111 249,249 0,119 -78,215 -186,242zm-2075 3122c-34,-59 -14,-131 44,-164 61,-35 130,-16 165,44 34,60 16,129 -44,164 -58,34 -131,15 -165,-44zm4024 0c-34,59 -107,78 -165,44 -61,-35 -78,-104 -44,-164 35,-60 104,-79 165,-44 58,33 78,105 44,164zm-2012 -3484c68,0 120,53 120,120 0,71 -51,121 -120,121 -69,0 -120,-50 -120,-121 0,-67 52,-120 120,-120z"/>
  </g>
 </g>
</svg>
