<?xml version="1.0" encoding="UTF-8"?>
<!DOCTYPE svg PUBLIC "-//W3C//DTD SVG 1.1//EN" "http://www.w3.org/Graphics/SVG/1.1/DTD/svg11.dtd">
<!-- Creator: CorelDRAW X7 -->
<svg xmlns="http://www.w3.org/2000/svg" xml:space="preserve" width="100%" height="100%" version="1.1" style="shape-rendering:geometricPrecision; text-rendering:geometricPrecision; image-rendering:optimizeQuality; fill-rule:evenodd; clip-rule:evenodd"
viewBox="0 0 6858 6858"
 xmlns:xlink="http://www.w3.org/1999/xlink">
 <defs>
  <style type="text/css">
   <![CDATA[
    .fil1 {fill:#8480BC}
    .fil0 {fill:white}
   ]]>
  </style>
 </defs>
 <g id="Layer_x0020_1">
  <metadata id="CorelCorpID_0Corel-Layer"/>
  <g id="_2330801947328">
   <circle class="fil0" cx="3429" cy="3429" r="3434"/>
   <path class="fil1" d="M2248 3428c0,-652 528,-1180 1180,-1180 651,0 1180,528 1180,1180 0,315 -123,611 -346,834 -223,223 -519,346 -834,346 -316,0 -611,-123 -834,-346 -223,-223 -346,-519 -346,-834zm1244 -1960l0 656c434,21 813,254 1034,598l570 -328c-31,-108 14,-224 116,-283 120,-69 271,-28 341,92 69,120 29,271 -92,340 -102,60 -225,40 -303,-41l-569 329c92,179 144,382 144,597 0,212 -50,416 -145,599l570 329c78,-81 201,-101 303,-42 121,70 161,221 92,341 -70,120 -221,161 -341,91 -102,-59 -147,-174 -116,-281l-571 -330c-50,77 -108,149 -174,216 -232,232 -536,366 -862,381l0 657c110,27 189,124 189,243 0,138 -110,249 -249,249 -139,0 -250,-111 -250,-249 0,-118 77,-214 185,-241l0 -659c-325,-16 -628,-150 -859,-381 -67,-67 -126,-140 -176,-218l-568 328c33,109 -12,226 -115,285 -120,70 -272,29 -341,-91 -69,-120 -29,-271 91,-341 102,-58 223,-40 301,39l569 -328c-94,-183 -144,-386 -144,-597 0,-216 53,-420 145,-599l-567 -327c-77,81 -201,101 -304,41 -120,-69 -160,-220 -91,-340 69,-120 221,-161 341,-92 102,59 146,174 116,281l568 328c222,-343 602,-576 1036,-596l0 -656c-109,-27 -187,-124 -187,-242 0,-139 111,-249 250,-249 139,0 249,110 249,249 0,118 -78,215 -186,242zm-2075 799c34,-59 106,-77 164,-44 61,35 79,105 44,165 -34,59 -103,79 -164,44 -58,-34 -78,-106 -44,-165zm0 2324c-34,-59 -14,-131 44,-165 61,-35 130,-15 164,44 35,60 17,129 -44,165 -58,33 -130,15 -164,-44zm2012 1161c-68,0 -120,-53 -120,-120 0,-70 51,-121 120,-121 69,0 120,51 120,121 0,67 -52,120 -120,120zm2012 -1161c-34,59 -107,77 -165,44 -60,-36 -78,-105 -44,-165 35,-59 104,-79 165,-44 58,34 78,106 44,165zm0 -2324c34,59 14,131 -44,165 -61,35 -130,15 -165,-44 -34,-60 -16,-130 44,-165 58,-33 131,-15 165,44zm-2012 -1161c68,0 120,53 120,120 0,70 -51,120 -120,120 -69,0 -120,-50 -120,-120 0,-67 52,-120 120,-120z"/>
  </g>
 </g>
</svg>
