<?xml version="1.0" encoding="UTF-8"?>
<!DOCTYPE svg PUBLIC "-//W3C//DTD SVG 1.1//EN" "http://www.w3.org/Graphics/SVG/1.1/DTD/svg11.dtd">
<!-- Creator: CorelDRAW X7 -->
<svg xmlns="http://www.w3.org/2000/svg" xml:space="preserve" width="1.3563in" height="1.3563in" version="1.1" style="shape-rendering:geometricPrecision; text-rendering:geometricPrecision; image-rendering:optimizeQuality; fill-rule:evenodd; clip-rule:evenodd"
viewBox="0 0 13563 13563"
 xmlns:xlink="http://www.w3.org/1999/xlink">
 <defs>
  <style type="text/css">
   <![CDATA[
    .fil0 {fill:none}
    .fil3 {fill:#6C69A4}
    .fil1 {fill:#908DC3}
    .fil2 {fill:white}
   ]]>
  </style>
 </defs>
 <g id="Layer_x0020_1">
  <metadata id="CorelCorpID_0Corel-Layer"/>
  <g id="_2542984137456">
   <polygon class="fil0" points="0,0 13563,0 13563,13563 0,13563 "/>
   <g>
    <circle class="fil1" cx="6781" cy="6781" r="4232"/>
    <path class="fil2" d="M6781 10611c1024,0 1985,-398 2708,-1122 724,-722 1122,-1684 1122,-2708 1,-1023 -398,-1984 -1120,-2707 -724,-724 -1686,-1122 -2710,-1122 -1023,0 -1985,398 -2709,1122 -722,723 -1121,1684 -1120,2707 0,1024 398,1986 1122,2708 723,724 1684,1122 2707,1122zm2540 -6368c677,678 1051,1579 1051,2539 0,547 -120,1074 -351,1554 -150,-580 -684,-995 -1286,-995l-395 0c304,-359 485,-817 485,-1320 0,-395 -111,-765 -307,-1080 -797,-1280 -2676,-1280 -3473,0 -196,315 -307,685 -307,1080 0,503 181,961 485,1320l-395 0c-602,0 -1136,415 -1286,995 -231,-480 -351,-1007 -351,-1554 0,-960 374,-1861 1051,-2539 1403,-1403 3676,-1403 5079,0zm-695 1778c0,1018 -831,1845 -1848,1845 -1013,0 -1841,-833 -1841,-1845 0,-1017 828,-1843 1841,-1843 1019,0 1848,822 1848,1843zm-1848 1563c-881,0 -1600,-702 -1600,-1565 0,-412 167,-745 482,-965 569,-398 1674,-398 2243,0 315,220 482,553 482,965 0,889 -735,1557 -1607,1565zm0 -2631c-413,0 -763,90 -1006,263 -263,184 -399,453 -399,803 0,751 633,1366 1405,1366l0 0c760,0 1412,-593 1412,-1366 0,-350 -136,-619 -399,-803 -286,-203 -670,-263 -1013,-263zm-99 3109c-481,-25 -922,-218 -1264,-521l-429 0 0 2351c511,297 1089,463 1693,479l0 -2309zm-1890 -521c-234,8 -445,85 -636,220 -269,201 -441,526 -456,863 150,250 333,485 545,697 170,170 353,320 547,449l0 -2229zm2095 521c481,-25 922,-218 1264,-521l429 0 0 2351c-511,297 -1089,463 -1693,479l0 -2309zm1890 -521c234,8 445,85 636,220 269,201 441,526 456,863 -150,250 -333,485 -545,697 -170,170 -353,320 -547,449l0 -2229z"/>
    <path class="fil3" d="M5373 6019c0,751 633,1366 1405,1366 760,0 1412,-593 1412,-1366 0,-350 -136,-619 -399,-803 -286,-203 -670,-263 -1013,-263 -413,0 -763,90 -1006,263 -263,184 -399,453 -399,803z"/>
   </g>
  </g>
 </g>
</svg>
