<?xml version="1.0" encoding="UTF-8"?>
<!DOCTYPE svg PUBLIC "-//W3C//DTD SVG 1.1//EN" "http://www.w3.org/Graphics/SVG/1.1/DTD/svg11.dtd">
<!-- Creator: CorelDRAW X7 -->
<svg xmlns="http://www.w3.org/2000/svg" xml:space="preserve" width="1.13386in" height="1.13386in" version="1.1" style="shape-rendering:geometricPrecision; text-rendering:geometricPrecision; image-rendering:optimizeQuality; fill-rule:evenodd; clip-rule:evenodd"
viewBox="0 0 11339 11339"
 xmlns:xlink="http://www.w3.org/1999/xlink">
 <defs>
  <style type="text/css">
   <![CDATA[
    .fil1 {fill:none}
    .fil0 {fill:black}
   ]]>
  </style>
 </defs>
 <g id="Layer_x0020_1">
  <metadata id="CorelCorpID_0Corel-Layer"/>
  <g id="_2296485222656">
   <path class="fil0" d="M4440 8378l2459 0 0 243 -2459 0 0 -243zm0 -986l2459 0 0 249 -2459 0 0 -249zm-1230 -2459l493 0 0 243 -493 0 0 -243zm-742 0l493 0 0 243 -493 0 0 -243zm1357 -2958l3689 0 0 2094 -3689 0 0 -2094zm3689 7389l-3689 0 0 -2709 3689 0 0 2709zm1850 -1357l-1601 0 0 -1601 -4187 0 0 1601 -1601 0 0 -3689 7388 0 1 3689zm-1601 -6276l0 2338 1844 0 0 4187 -1844 0 0 1351 -4187 0 0 -1351 -1845 0 0 -4187 1845 0 0 -2338 4187 0z"/>
   <polygon class="fil1" points="0,11339 11339,11339 11339,0 0,0 "/>
  </g>
 </g>
</svg>
