<?xml version="1.0" encoding="UTF-8"?>
<!DOCTYPE svg PUBLIC "-//W3C//DTD SVG 1.1//EN" "http://www.w3.org/Graphics/SVG/1.1/DTD/svg11.dtd">
<!-- Creator: CorelDRAW X7 -->
<svg xmlns="http://www.w3.org/2000/svg" xml:space="preserve" width="8.51728in" height="13.4609in" version="1.1" style="shape-rendering:geometricPrecision; text-rendering:geometricPrecision; image-rendering:optimizeQuality; fill-rule:evenodd; clip-rule:evenodd"
viewBox="0 0 85173 134609"
 xmlns:xlink="http://www.w3.org/1999/xlink">
 <defs>
  <style type="text/css">
   <![CDATA[
    .fil0 {fill:#F7F2E6}
   ]]>
  </style>
 </defs>
 <g id="Layer_x0020_1">
  <metadata id="CorelCorpID_0Corel-Layer"/>
  <g id="_2543144028016">
  </g>
  <g id="_2543144027856">
  </g>
  <g id="_2543144025584">
  </g>
  <g id="_2543144024848">
  </g>
  <g id="_2543144022768">
  </g>
  <g id="_2543144022064">
  </g>
  <g id="_2543144020432">
  </g>
  <g id="_2543144020976">
  </g>
  <g id="_2543144019440">
  </g>
  <g id="_2543144018384">
  </g>
  <g id="_2543144016048">
  </g>
  <g id="_2543144011664">
  </g>
  <g id="_2543144011376">
  </g>
  <g id="_2543144008144">
  </g>
  <g id="_2543144009072">
  </g>
  <g id="_2543144009584">
  </g>
  <g id="_2543144007216">
  </g>
  <g id="_2543144006672">
  </g>
  <g id="_2543134441280">
  </g>
  <g id="_2543134440704">
  </g>
  <g id="_2543134439872">
  </g>
  <g id="_2543134441376">
  </g>
  <g id="_2543134441152">
  </g>
  <g id="_2543134439712">
  </g>
  <g id="_2543134439264">
  </g>
  <g id="_2543134438016">
  </g>
  <g id="_2543134439040">
  </g>
  <g id="_2543134438976">
  </g>
  <g id="_2543134437760">
  </g>
  <g id="_2543134436512">
  </g>
  <g id="_2543134435776">
  </g>
  <g id="_2543134436640">
  </g>
  <g id="_2543134437472">
  </g>
  <g id="_2543134437568">
  </g>
  <g id="_2543134436352">
  </g>
  <g id="_2543134433856">
  </g>
  <g id="_2543134435008">
  </g>
  <g id="_2543134433920">
  </g>
  <g id="_2543134422848">
  </g>
  <g id="_2543134422496">
  </g>
  <g id="_2543134423040">
  </g>
  <g id="_2543134419904">
  </g>
  <g id="_2543134419808">
  </g>
  <g id="_2543134419584">
  </g>
  <g id="_2543134420768">
  </g>
  <g id="_2543134419872">
  </g>
  <g id="_2543134420960">
  </g>
  <g id="_2543134418912">
  </g>
  <g id="_2543134419104">
  </g>
  <g id="_2543134419072">
  </g>
  <g id="_2543134417376">
  </g>
  <g id="_2543134418560">
  </g>
  <g id="_2543134417632">
  </g>
  <g id="_2543134416160">
  </g>
  <g id="_2543134417024">
  </g>
  <g id="_2543134416736">
  </g>
  <g id="_2543134416704">
  </g>
  <g id="_2543134417184">
  </g>
  <g id="_2543134416480">
  </g>
  <g id="_2543134410304">
  </g>
  <path class="fil0" d="M11275 51938c551,-1592 1211,-3145 1974,-4647 328,-646 71,-1435 -575,-1763 -646,-327 -1435,-69 -1762,576 -819,1608 -1526,3271 -2117,4975 -204,592 39,1245 581,1560 72,42 149,76 228,104 328,116 689,96 1003,-56 313,-150 554,-420 668,-749l0 0zm-3796 44838c10447,0 18917,8470 18917,18917 0,10447 -8470,18916 -18917,18916 -2657,0 -5185,-548 -7479,-1537l0 -3138c2234,1176 4779,1842 7479,1842 8883,0 16083,-7200 16083,-16083 0,-8883 -7200,-16083 -16083,-16083 -2700,0 -5245,666 -7479,1842l0 -3138c2294,-989 4822,-1538 7479,-1538zm59289 -96776c5615,0 10167,4552 10167,10167 0,5614 -4552,10166 -10167,10166 -5614,0 -10166,-4552 -10166,-10166 0,-5615 4552,-10167 10166,-10167zm0 2834c-4050,0 -7333,3283 -7333,7333 0,4050 3283,7333 7333,7333 4051,0 7334,-3283 7334,-7333 0,-4050 -3283,-7333 -7334,-7333zm-8399 39498c-626,-362 -1427,-147 -1788,479l-11780 20403c-174,301 -221,658 -131,994l4791 17879c197,687 907,1089 1597,904 690,-185 1104,-888 931,-1581l-4650 -17356 11509 -19934c361,-626 147,-1427 -479,-1788zm-14254 -17697l-1729 -7669c-112,-495 -499,-881 -995,-990 -495,-109 -1009,78 -1319,479l-12084 15694c-249,325 -332,748 -225,1142 107,395 394,717 773,871l17178 6895c452,180 966,95 1335,-220 371,-315 535,-810 428,-1284l-1600 -7088c13218,-31 25040,8216 29577,20629 4537,12414 819,26340 -9303,34840 -8293,6964 -19432,9065 -29479,5957 -3168,-979 -6370,-2524 -9042,-4535 -578,-434 -1399,-317 -1833,261 -434,578 -317,1399 262,1833 2937,2208 6441,3903 9926,4972 11049,3387 23291,965 32284,-6843 10969,-9524 14683,-24961 9246,-38433 -5436,-13471 -18825,-22006 -33332,-21248 -385,21 -741,211 -973,518 -233,307 -317,701 -233,1077l1404 6209 -13266 -5322 9330 -12118 1354 6032c142,634 729,1068 1377,1018 15696,-1176 30391,7800 36508,22304 6117,14502 2290,31292 -9507,41711 -11797,10420 -28931,12143 -42567,4281 -1460,-842 -2860,-1784 -4192,-2816 -571,-429 -1381,-321 -1819,244 -438,563 -343,1375 213,1823 11582,8999 27214,10793 40534,4652 13319,-6140 22106,-19193 22784,-33844 1078,-23309 -18213,-42108 -41015,-41032zm-29567 44793c715,-108 1207,-774 1100,-1488 -253,-1669 -392,-3352 -416,-5039 16,-482 -235,-933 -652,-1176 -417,-241 -934,-234 -1344,19 -410,254 -648,712 -618,1193 25,1806 172,3608 441,5395 108,715 776,1207 1491,1099l-2 -3zm9388 16574c-1129,-1233 -2152,-2559 -3060,-3964 -393,-607 -1203,-780 -1810,-387 -607,393 -780,1203 -387,1810 988,1528 2102,2970 3329,4312 490,533 1317,568 1850,80 532,-489 568,-1317 79,-1850l-1 -1zm-5460 -8386c-690,-1537 -1273,-3120 -1744,-4737 -215,-678 -931,-1060 -1614,-862 -682,199 -1082,906 -899,1593 504,1736 1129,3435 1871,5083 297,659 1072,952 1731,655 660,-297 953,-1072 655,-1732zm120 -29221l125 -218c806,-1353 1705,-2648 2691,-3876 303,-363 385,-863 215,-1305 -169,-442 -565,-758 -1034,-826 -468,-68 -937,122 -1225,498 -1062,1321 -2029,2714 -2896,4169l-174 302c-171,299 -216,653 -123,984 94,332 316,612 617,778 638,352 1442,127 1803,-506l1 0zm6255 -7765c1233,-1135 2554,-2170 3952,-3094 605,-397 773,-1209 377,-1813 -397,-605 -1209,-773 -1814,-377 -1514,1002 -2947,2123 -4283,3352 -1244,1135 478,3117 1768,1932zm-11921 16892c-96,716 407,1375 1124,1471 716,96 1375,-407 1471,-1124 219,-1657 579,-3293 1078,-4889 217,-690 -165,-1425 -855,-1643 -690,-218 -1426,165 -1644,855 -542,1740 -935,3523 -1174,5330l0 0zm6724 31905c-1176,-1206 -2268,-2492 -3266,-3850 -438,-556 -1237,-664 -1806,-245 -570,420 -702,1216 -300,1798 1070,1457 2238,2838 3498,4135 84,86 179,160 283,221 566,328 1288,188 1690,-329 401,-517 359,-1251 -98,-1719l-1 -11zm-9696 -32616c140,-710 -323,-1398 -1033,-1537 -709,-140 -1397,323 -1537,1032 -345,1773 -569,3568 -669,5371 -23,711 526,1311 1237,1350 710,39 1322,-496 1377,-1206 92,-1682 301,-3356 625,-5010l0 0zm11223 -21150c472,272 1063,223 1485,-122 972,-801 1986,-1549 3037,-2243 597,-401 759,-1207 362,-1808 -396,-600 -1202,-767 -1805,-376 -1126,745 -2213,1546 -3256,2403 -723,594 -594,1701 177,2146zm-7491 45642c-801,-1484 -1498,-3021 -2087,-4601 -253,-677 -1006,-1021 -1684,-769 -677,252 -1022,1006 -769,1683 632,1692 1378,3338 2234,4929 212,429 641,710 1119,730 479,20 931,-222 1178,-633 246,-411 249,-923 7,-1337l2 -2zm2158 -38353c959,-1386 2014,-2703 3156,-3943 490,-532 455,-1362 -77,-1852 -533,-491 -1362,-456 -1853,76 -1226,1329 -2359,2742 -3390,4226 -199,287 -274,640 -211,982 207,1125 1703,1481 2375,511zm-6444 23919c-59,-720 -692,-1257 -1412,-1197 -721,59 -1257,692 -1198,1412 149,1799 421,3585 816,5347 157,705 857,1150 1562,993 706,-158 1150,-857 993,-1563 -368,-1645 -622,-3312 -761,-4992l0 0z"/>
 </g>
</svg>
