<?xml version="1.0" encoding="UTF-8"?>
<!DOCTYPE svg PUBLIC "-//W3C//DTD SVG 1.1//EN" "http://www.w3.org/Graphics/SVG/1.1/DTD/svg11.dtd">
<!-- Creator: CorelDRAW X7 -->
<svg xmlns="http://www.w3.org/2000/svg" xml:space="preserve" width="9.66106in" height="13.4609in" version="1.1" style="shape-rendering:geometricPrecision; text-rendering:geometricPrecision; image-rendering:optimizeQuality; fill-rule:evenodd; clip-rule:evenodd"
viewBox="0 0 96611 134609"
 xmlns:xlink="http://www.w3.org/1999/xlink">
 <defs>
  <style type="text/css">
   <![CDATA[
    .fil0 {fill:#F7F2E6}
   ]]>
  </style>
 </defs>
 <g id="Layer_x0020_1">
  <metadata id="CorelCorpID_0Corel-Layer"/>
  <path class="fil0" d="M22713 51938c550,-1592 1211,-3145 1974,-4647 328,-646 70,-1435 -576,-1763 -646,-327 -1434,-69 -1762,576 -818,1608 -1526,3271 -2116,4975 -205,592 39,1245 580,1560 73,42 149,76 229,104 328,116 689,96 1002,-56 314,-151 554,-420 669,-749l0 0zm-3796 47672c-136,0 -272,1 -407,5l-19 0c-131,4 -261,9 -392,15l-19 1c-130,7 -258,15 -387,25l-23 1c-129,10 -258,22 -386,35l-30 3c-121,12 -242,26 -363,41l-47 6c-116,15 -231,31 -347,49l-54 8c-112,17 -224,36 -336,56l-77 13c-107,20 -213,40 -318,61l-83 17c-99,21 -198,43 -296,65l-93 21c-94,22 -188,45 -282,69 -43,11 -85,22 -128,33 -81,21 -163,43 -244,66 -48,14 -96,27 -144,41 -78,23 -155,46 -232,69 -54,17 -108,33 -161,50 -70,23 -140,45 -210,68 -60,20 -120,41 -180,62 -58,20 -116,40 -173,60 -66,24 -132,49 -198,73 -50,19 -100,38 -150,57 -86,33 -171,67 -256,101l-84 35c-93,38 -186,77 -278,117l-51 22c-96,42 -192,86 -287,130 -36,16 -72,33 -108,50 -105,49 -210,100 -314,152l-10 5c-103,51 -207,104 -309,158 -5117,2691 -8607,8059 -8607,14243 0,6183 3490,11551 8607,14242 102,54 206,107 309,159l10 5c104,52 209,102 314,152 36,17 72,33 108,50 95,44 191,87 287,129l51 22c92,40 185,80 278,118l84 34c85,35 170,69 256,102 50,19 100,38 150,57 66,24 132,48 198,72 57,21 115,41 173,61 60,21 120,41 180,61 70,23 140,46 210,68 53,17 107,34 161,51 77,23 154,46 232,68 48,14 96,28 144,42 81,22 163,44 244,66 43,11 85,22 128,33 94,23 188,46 282,68 31,8 62,15 93,22 98,22 197,44 296,64l83 17c105,22 211,42 318,61l77 14c112,20 224,38 336,56l54 8c116,17 231,34 347,48l47 6c121,16 242,29 363,42l30 3c128,13 257,24 386,34l23 2c129,10 257,18 387,24l19 1c131,7 261,12 392,15l19 1c135,3 271,5 407,5 8882,0 16083,-7200 16083,-16083 0,-8883 -7201,-16083 -16083,-16083zm-4213 34528c-40,-9 -81,-19 -122,-28 -106,-25 -211,-51 -316,-77 -51,-13 -102,-26 -152,-39 -96,-26 -192,-51 -287,-78 -57,-16 -114,-32 -171,-49 -88,-25 -176,-51 -264,-78 -66,-20 -132,-41 -198,-62 -79,-25 -158,-50 -237,-76 -73,-25 -146,-50 -219,-75 -72,-25 -143,-50 -214,-75 -78,-28 -156,-57 -234,-86 -64,-24 -128,-48 -192,-73 -79,-31 -157,-61 -236,-93 -59,-24 -118,-48 -176,-72 -6860,-2840 -11686,-9598 -11686,-17484 0,-7886 4826,-14644 11686,-17484 58,-25 117,-49 176,-72 79,-32 158,-63 237,-94 62,-24 125,-48 188,-71 79,-30 158,-59 238,-88 70,-25 141,-50 212,-74 73,-26 147,-50 220,-75 79,-26 158,-52 237,-77 66,-21 132,-41 198,-61 88,-27 175,-53 263,-79 58,-16 115,-32 173,-49 95,-26 190,-52 286,-77 50,-13 101,-26 152,-39 105,-27 210,-52 316,-77 41,-10 82,-19 123,-29 116,-26 231,-51 347,-75l100 -21c125,-25 250,-49 375,-71l82 -15c131,-23 262,-45 393,-65l71 -11c135,-21 272,-40 409,-57l55 -7c143,-18 286,-35 429,-49l36 -4c149,-15 298,-28 448,-40l26 -2c153,-11 307,-21 460,-29l17 -1c157,-8 315,-14 472,-18l8 0c161,-4 322,-6 484,-6 10447,0 18916,8470 18916,18917 0,10447 -8469,18916 -18916,18916 -162,0 -323,-2 -484,-6l-8 0c-157,-4 -315,-10 -472,-18l-17 -1c-153,-7 -307,-17 -460,-29l-26 -2c-150,-11 -299,-24 -448,-39l-36 -4c-143,-15 -286,-31 -429,-49l-55 -7c-137,-18 -274,-37 -409,-57l-71 -11c-131,-20 -262,-42 -393,-65l-82 -15c-126,-23 -250,-47 -375,-72l-100 -20c-116,-24 -232,-50 -348,-76zm63502 -134138c5615,0 10167,4552 10167,10167 0,5614 -4552,10166 -10167,10166 -5615,0 -10167,-4552 -10167,-10166 0,-5615 4552,-10167 10167,-10167zm0 2833c-4050,0 -7333,3283 -7333,7334 0,4050 3283,7333 7333,7333 4050,0 7333,-3283 7333,-7333 0,-4051 -3283,-7334 -7333,-7334zm-8400 39499c-626,-362 -1426,-147 -1788,479l-11780 20403c-173,301 -220,658 -130,994l4791 17879c197,687 907,1089 1597,904 689,-185 1104,-888 931,-1581l-4651 -17356 11509 -19934c362,-626 147,-1427 -479,-1788zm-14253 -17697l-1730 -7669c-111,-495 -499,-881 -994,-990 -496,-109 -1009,77 -1320,479l-12083 15694c-250,325 -333,748 -226,1142 108,395 395,717 774,870l17178 6896c451,180 966,95 1335,-220 370,-315 535,-810 427,-1284l-1599 -7088c13218,-31 25040,8215 29577,20629 4537,12414 818,26340 -9303,34840 -8293,6964 -19432,9065 -29480,5958 -3168,-980 -6369,-2525 -9041,-4536 -579,-434 -1400,-317 -1833,261 -434,578 -318,1399 261,1833 2937,2208 6442,3903 9927,4972 11048,3387 23291,965 32283,-6843 10970,-9524 14684,-24961 9247,-38433 -5437,-13471 -18825,-22006 -33332,-21248 -385,21 -741,210 -974,517 -232,308 -317,702 -232,1078l1403 6209 -13265 -5322 9330 -12118 1354 6032c142,634 729,1068 1376,1018 15697,-1176 30391,7800 36509,22304 6117,14502 2290,31292 -9508,41711 -11797,10420 -28930,12143 -42566,4281 -1460,-842 -2860,-1783 -4192,-2816 -571,-429 -1381,-321 -1819,244 -438,563 -343,1375 213,1823 11582,8999 27213,10793 40533,4652 13320,-6140 22107,-19193 22784,-33844 1079,-23309 -18212,-42108 -41014,-41032zm-29567 44793c714,-108 1207,-774 1100,-1488 -253,-1669 -392,-3352 -416,-5039 16,-482 -235,-934 -652,-1176 -417,-241 -934,-234 -1344,19 -411,254 -649,712 -619,1193 26,1806 173,3608 442,5395 107,715 775,1207 1490,1099l-1 -3zm9388 16574c-1129,-1233 -2153,-2559 -3060,-3964 -393,-607 -1204,-780 -1810,-387 -607,393 -780,1203 -387,1810 988,1528 2102,2970 3329,4312 489,533 1317,568 1850,80 532,-489 567,-1317 79,-1850l-1 -1zm-5460 -8386c-690,-1537 -1274,-3120 -1745,-4737 -214,-678 -930,-1060 -1613,-862 -683,199 -1082,906 -899,1593 504,1736 1129,3435 1870,5083 297,659 1072,952 1732,655 659,-297 953,-1072 655,-1732zm119 -29221l126 -218c805,-1353 1704,-2648 2690,-3876 303,-363 386,-863 216,-1305 -170,-442 -565,-758 -1034,-826 -468,-68 -937,122 -1226,498 -1061,1321 -2029,2714 -2895,4169l-175 302c-171,299 -215,653 -122,984 93,332 315,612 616,778 639,352 1442,127 1804,-506l0 0zm6255 -7765c1234,-1135 2555,-2170 3953,-3094 605,-397 773,-1209 377,-1813 -397,-605 -1209,-773 -1814,-377 -1515,1002 -2947,2123 -4283,3352 -1245,1135 478,3117 1767,1932zm-11921 16892c-95,716 408,1375 1124,1471 717,96 1376,-407 1472,-1124 219,-1657 579,-3293 1078,-4889 217,-690 -166,-1425 -856,-1643 -690,-218 -1425,165 -1643,855 -542,1740 -935,3523 -1175,5330l0 0zm6724 31905c-1176,-1206 -2267,-2492 -3265,-3850 -438,-556 -1237,-664 -1807,-245 -569,420 -701,1216 -299,1798 1070,1457 2238,2838 3497,4135 85,86 180,160 284,221 566,328 1288,188 1689,-329 402,-517 360,-1251 -97,-1719l-2 -11zm-9695 -32616c139,-710 -323,-1398 -1033,-1537 -710,-140 -1398,323 -1537,1032 -345,1773 -569,3568 -669,5371 -24,711 525,1311 1236,1350 711,39 1322,-496 1377,-1206 93,-1682 302,-3356 626,-5010l0 0zm11223 -21150c472,272 1063,223 1485,-122 972,-801 1986,-1549 3037,-2243 596,-401 758,-1208 362,-1808 -396,-600 -1202,-767 -1805,-376 -1126,745 -2213,1546 -3257,2403 -722,594 -593,1701 178,2146zm-7492 45642c-801,-1484 -1497,-3021 -2086,-4601 -253,-677 -1007,-1021 -1685,-769 -677,252 -1021,1006 -769,1683 632,1692 1379,3338 2235,4929 211,429 640,710 1119,730 479,20 930,-222 1177,-633 247,-411 250,-923 8,-1337l1 -2zm2159 -38353c958,-1386 2013,-2703 3155,-3943 491,-532 456,-1362 -77,-1852 -532,-491 -1362,-456 -1852,76 -1226,1329 -2359,2741 -3391,4226 -198,287 -274,640 -211,982 208,1125 1703,1481 2376,511zm-6444 23919c-59,-720 -692,-1257 -1412,-1197 -721,59 -1257,692 -1198,1412 149,1799 421,3585 815,5347 158,705 857,1150 1563,993 706,-158 1150,-857 993,-1563 -368,-1645 -622,-3312 -761,-4992l0 0z"/>
 </g>
</svg>
