<?xml version="1.0" encoding="UTF-8"?>
<!DOCTYPE svg PUBLIC "-//W3C//DTD SVG 1.1//EN" "http://www.w3.org/Graphics/SVG/1.1/DTD/svg11.dtd">
<!-- Creator: CorelDRAW X7 -->
<svg xmlns="http://www.w3.org/2000/svg" xml:space="preserve" width="7.94539in" height="4.72669in" version="1.1" style="shape-rendering:geometricPrecision; text-rendering:geometricPrecision; image-rendering:optimizeQuality; fill-rule:evenodd; clip-rule:evenodd"
viewBox="0 0 79454 47267"
 xmlns:xlink="http://www.w3.org/1999/xlink">
 <defs>
  <style type="text/css">
   <![CDATA[
    .fil1 {fill:#E4CFA9}
    .fil0 {fill:#EDDFC4}
    .fil2 {fill:#F7F1E5}
    .fil15 {fill:#3E3C5F;fill-rule:nonzero}
    .fil27 {fill:#536896;fill-rule:nonzero}
    .fil22 {fill:#6C87C3;fill-rule:nonzero}
    .fil7 {fill:#75613D;fill-rule:nonzero}
    .fil19 {fill:#8480BC;fill-rule:nonzero}
    .fil13 {fill:#9DAFD7;fill-rule:nonzero}
    .fil24 {fill:#9F9CCB;fill-rule:nonzero}
    .fil6 {fill:#A38755;fill-rule:nonzero}
    .fil16 {fill:#A9A6D0;fill-rule:nonzero}
    .fil8 {fill:#B6985F;fill-rule:nonzero}
    .fil23 {fill:#BBB8DA;fill-rule:nonzero}
    .fil14 {fill:#C6D0E8;fill-rule:nonzero}
    .fil9 {fill:#CEB78C;fill-rule:nonzero}
    .fil11 {fill:#D2AE6D;fill-rule:nonzero}
    .fil17 {fill:#D9BA83;fill-rule:nonzero}
    .fil21 {fill:#DDAC00;fill-rule:nonzero}
    .fil4 {fill:#E2CDA7;fill-rule:nonzero}
    .fil20 {fill:#E4CFA9;fill-rule:nonzero}
    .fil3 {fill:#E7D6B7;fill-rule:nonzero}
    .fil5 {fill:#EDDFC4;fill-rule:nonzero}
    .fil12 {fill:#EFE3CB;fill-rule:nonzero}
    .fil18 {fill:#F1F2EB;fill-rule:nonzero}
    .fil10 {fill:#F7F1E5;fill-rule:nonzero}
    .fil25 {fill:white;fill-rule:nonzero}
    .fil26 {fill:white;fill-rule:nonzero}
   ]]>
  </style>
 </defs>
 <g id="Layer_x0020_1">
  <metadata id="CorelCorpID_0Corel-Layer"/>
  <g id="_2542891411088">
   <g>
    <g>
     <g>
      <path class="fil0" d="M0 18585c14980,5715 26006,-6447 28863,-18585l43936 0c1298,5211 1264,12044 -4695,15463 -747,429 -2411,920 -3270,1096 -6780,1394 -15448,-2496 -21493,-3294 -5315,-702 -8785,1599 -10464,9525 -1921,9070 -6677,15379 -13937,17750 -7201,2351 -13321,1246 -18940,-1080l0 -20875z"/>
      <path class="fil1" d="M30786 0c509,18578 -8731,31273 -30786,21013l0 -21013 30786 0z"/>
      <path class="fil2" d="M0 34852c12788,5337 28411,1458 31592,-13561 1364,-6435 2692,-17397 13094,-13697 7238,2575 15284,12478 24328,7309 -10095,8223 -35016,-7493 -33963,15625 826,18146 -24641,17699 -35051,11761l0 -7437z"/>
     </g>
     <path class="fil1" d="M49078 0c7048,5712 18911,13458 20566,0l-20566 0z"/>
    </g>
    <path class="fil3" d="M79454 10426c-699,23 -1260,598 -1264,1309l-11 0c-5,-711 -565,-1286 -1266,-1309 702,-23 1266,-603 1266,-1319l9 0c0,716 564,1296 1266,1319z"/>
    <path class="fil4" d="M37109 40456c-394,13 -710,337 -713,738l-6 0c-3,-401 -319,-725 -714,-738 396,-14 714,-340 714,-744l5 0c0,404 318,730 714,744z"/>
   </g>
   <g>
    <path class="fil5" d="M36963 46370c0,496 2940,897 6567,897 3627,0 6567,-401 6567,-897 0,-495 -2940,-896 -6567,-896 -3627,0 -6567,401 -6567,896z"/>
    <path class="fil6" d="M45672 45773c0,125 102,226 226,226 125,0 226,-101 226,-226l0 -572c0,-125 -101,-226 -226,-226 -124,0 -226,101 -226,226l0 572z"/>
    <path class="fil7" d="M45898 45672c125,0 226,-101 226,-227l0 328c0,125 -101,226 -226,226 -125,0 -226,-101 -226,-226l0 -328c0,126 101,227 226,227z"/>
    <path class="fil6" d="M47401 45773c0,125 101,226 226,226 125,0 226,-101 226,-226l0 -572c0,-125 -101,-226 -226,-226 -125,0 -226,101 -226,226l0 572z"/>
    <path class="fil7" d="M47627 45672c125,0 226,-101 226,-227l0 328c0,125 -101,226 -226,226 -125,0 -226,-101 -226,-226l0 -328c0,126 101,227 226,227z"/>
    <polygon class="fil7" points="45113,45413 48349,45413 48349,44975 45113,44975 "/>
    <path class="fil8" d="M45077 39839c-297,0 -512,241 -478,536l407 3536c34,294 304,535 600,535l2294 0c296,0 562,-241 591,-537l344 -3533c29,-295 -190,-537 -486,-537l-3272 0z"/>
    <polygon class="fil8" points="44600,41182 48835,41182 48835,40254 44600,40254 "/>
    <path class="fil6" d="M45077 40697c-297,0 -512,241 -478,536l407 3535c34,295 304,536 600,536l2294 0c296,0 562,-241 591,-537l344 -3533c29,-295 -190,-537 -486,-537l-3272 0z"/>
    <path class="fil9" d="M46507 36396c-101,-281 -90,-866 -90,-866l973 596c-3,798 -243,944 -243,944 -370,123 -820,0 -820,0 -11,-292 180,-674 180,-674z"/>
    <path class="fil10" d="M43078 44835c0,0 -33,579 -79,750 0,0 -214,465 -217,624l148 161 631 -45 706 -54c0,0 98,-296 19,-668 0,0 -11,-483 117,-768 0,0 -814,-555 -1325,0z"/>
    <path class="fil10" d="M42343 43473l-539 1593c0,0 -19,140 155,238 0,0 1127,-772 1571,-1557 0,0 44,-934 -546,-1130l-641 856z"/>
    <path class="fil11" d="M43369 43583c0,0 25,-533 -218,-879 413,299 379,1043 379,1043 -444,785 -1571,1557 -1571,1557 -99,-56 -135,-125 -147,-174 129,-91 1142,-813 1557,-1547z"/>
    <path class="fil12" d="M38557 34356l0 176c0,0 -518,337 -574,809 0,0 -49,471 447,785 0,0 497,-430 755,-1029l0 -361c0,-47 56,-440 56,-440 0,0 -492,-137 -684,60z"/>
    <path class="fil13" d="M40501 40308l1660 3225c0,0 811,-212 1159,-772l-1043 -2086 58 -772 -869 -830 -965 1235z"/>
    <polygon class="fil14" points="40997,34461 40501,40308 40997,40791 42007,40578 42335,39903 42818,36100 43078,35811 43416,35635 43416,34090 42470,33820 "/>
    <path class="fil13" d="M42556 35748l522 0c0,0 10,9 25,22l-25 74 -260 256 -61 382 -67 -271 -190 -196 -210 -476 266 209z"/>
    <path class="fil14" d="M45728 34326l-15 374 -692 5229 -135 135 135 211 -135 231 -96 96 96 184 -404 4280c-462,-346 -1494,-188 -1494,-188l205 -3967 116 -231 -231 -366 0 -3809 0 -2424c1827,-501 2650,245 2650,245z"/>
    <path class="fil13" d="M45734 34320l-15 375 -211 1592c-120,3 -233,3 -233,3l17 -36 0 -1226 -399 -454 -1440 -20c0,0 -301,-79 -289,-133 6,-28 87,-224 173,-407 1649,-367 2397,306 2397,306z"/>
    <path class="fil13" d="M44364 44994c-36,-19 -73,-36 -112,-51l319 -3278 -57 -1125 257 -213 -73 -228 87 -200 -87 -114 215 -298 214 -2380 14 -356 128 -455 324 -686 -572 4319 -135 135 135 211 -135 231 -96 96 96 184 -404 4280c-33,-24 -69,-47 -106,-67 -4,-2 -8,-3 -12,-5z"/>
    <path class="fil13" d="M43447 34559c-1097,340 -2119,557 -2496,444l46 -542 1473 -641 773 221c704,-169 1246,-150 1644,-70 -738,266 -1440,588 -1440,588z"/>
    <path class="fil15" d="M44414 25346c0,0 -1396,-50 -1875,-5l-233 238 140 452c0,0 751,1277 758,1296 7,21 652,-552 652,-552l558 -1429z"/>
    <path class="fil16" d="M38481 33518l0 -480c0,0 1004,-5689 1977,-6513l2186 -928 15 -984 1628 0c0,0 -50,714 0,939 0,0 1501,1018 2310,1512 0,0 808,5930 793,7337 0,0 -60,75 -224,150l90 898 -929 90 -134 -704c0,0 -300,-45 -480,-135l16 -374c0,0 -1019,-434 -2636,210 0,0 -1452,419 -2411,45l315 -5017 -1228 4043c0,0 -135,105 -359,135l-88 719 -892 -122 51 -821z"/>
    <path class="fil12" d="M42659 24613l1628 0c0,0 -50,714 0,939l-1029 1686 -614 -1641 15 -984z"/>
    <path class="fil17" d="M44265 25245l-624 266c0,0 -306,103 -655,0 0,0 -159,-232 -334,-457l7 -441 1628 0c0,0 -24,346 -22,632z"/>
    <path class="fil12" d="M44602 22940c0,0 -61,1457 -431,1847l-595 513c0,0 -451,103 -800,0 0,0 -206,-246 -370,-698 0,0 -225,-1210 -102,-2032 0,0 82,-1313 1683,-923 0,0 737,258 615,1293z"/>
    <path class="fil18" d="M42846 26136c448,122 840,65 1086,-2l-674 1104 -412 -1102z"/>
    <path class="fil6" d="M44414 25346c0,0 336,85 429,580l-1657 2044 -1078 -2146c0,0 169,-538 449,-485l701 1899 1156 -1892z"/>
    <path class="fil19" d="M39225 33543l327 -173 295 -1031c21,-316 -357,-418 -357,-418 245,-102 449,0 449,0 -51,-174 -429,-357 -429,-357 317,-103 601,61 601,61 -2,-582 -886,-602 -886,-602 500,-256 1031,51 1031,51l741 -1509 -1228 4042c0,0 -135,105 -359,135l-88 719 -892 -122 51 -821 0 -168c338,-31 744,193 744,193z"/>
    <path class="fil19" d="M43764 33271c606,68 1447,-269 1447,-269 354,-168 219,-622 219,-622l-168 -17 -68 -674c-376,390 -1116,951 -1399,1161 731,-1176 1484,-3550 1484,-3550 33,319 252,776 252,776l0 1495 109 1278 269 801 67 811 373 170c402,-152 817,-80 817,-80l90 898 -929 90 -134 -704c0,0 -300,-45 -480,-135l16 -374c0,0 -222,-92 -617,-128 177,-308 267,-708 267,-708 -773,505 -1666,236 -1666,236 -555,-118 -1573,-84 -1573,-84 647,-488 1624,-371 1624,-371z"/>
    <path class="fil19" d="M41760 33613c0,0 -540,143 -683,444 0,0 719,471 1567,404 0,0 1544,-531 2054,-277l-1 1c-426,12 -967,97 -1604,351 0,0 -1452,419 -2411,45l315 -5017 128 4049c0,0 365,-80 635,0z"/>
    <polygon class="fil11" points="38378,35188 38378,36622 39994,36010 39995,34867 "/>
    <path class="fil12" d="M39186 35028c0,0 32,1664 -419,67 0,0 232,-262 209,-224 -23,37 210,157 210,157z"/>
    <path class="fil11" d="M42782 46209c0,0 -44,249 88,411 0,0 418,190 1382,73 0,0 77,-249 0,-484 0,0 -796,-894 -1470,0z"/>
    <path class="fil6" d="M44252 46693c-964,117 -1382,-73 -1382,-73 472,-1056 1382,73 1382,73z"/>
    <polygon class="fil7" points="45684,36737 47821,36737 47821,36378 45684,36378 "/>
    <polygon class="fil7" points="47361,43870 47541,43870 47541,36560 47361,36560 "/>
    <polygon class="fil7" points="45964,43870 46144,43870 46144,36560 45964,36560 "/>
    <path class="fil5" d="M46004 36482c0,0 33,474 151,588 0,0 537,281 992,0 140,-86 -152,-588 -152,-588 0,0 -924,-268 -991,0z"/>
    <path class="fil9" d="M46847 36444c89,21 149,38 149,38 0,0 76,132 132,272 -43,57 -74,102 -74,102 -81,171 -142,268 -189,322 -45,8 -90,14 -134,15 -4,-10 -6,-19 -6,-19 -2,-9 -3,-18 -5,-27 -34,-230 49,-508 127,-703z"/>
    <path class="fil5" d="M46417 35530l721 -70c92,132 252,666 252,666l-134 356c-112,61 -274,305 -274,305 -277,587 -329,317 -329,317 -2,-9 -3,-18 -4,-26 -61,-403 240,-952 240,-952 -180,12 -472,-596 -472,-596z"/>
    <path class="fil8" d="M45006 44768l-224 -1942c2002,502 3898,0 3898,0l-189 1941c-29,296 -295,537 -591,537l-2294 0c-296,0 -567,-241 -600,-536z"/>
    <path class="fil20" d="M45531 30076c0,0 -149,96 0,0 0,0 263,-1128 252,-1320 0,0 2,-1839 92,-2150 0,0 -246,-582 -668,-438 0,0 -91,1225 72,2545 0,0 -107,862 252,1363z"/>
    <path class="fil20" d="M40617 26457c324,-441 761,-323 761,-323 22,298 -142,1454 -142,1454 -150,479 -239,1976 -239,1976l24 765c-139,53 -246,-34 -246,-34 -280,-1127 -158,-3838 -158,-3838z"/>
    <path class="fil11" d="M40775 30295c-96,-387 -145,-959 -168,-1545 171,7 327,-35 464,-100 -48,478 -74,915 -74,915l24 764c-139,53 -246,-34 -246,-34z"/>
    <path class="fil21" d="M45531 30076c-27,17 -42,27 -52,33 20,-12 52,-33 52,-33z"/>
    <path class="fil21" d="M45479 30109c-14,10 -20,13 0,0z"/>
    <path class="fil11" d="M45786 28371c-3,228 -3,385 -3,385 11,191 -252,1320 -252,1320 -359,-500 -252,-1363 -252,-1363 -13,-111 -25,-221 -35,-330 202,60 394,35 542,-12z"/>
    <path class="fil22" d="M43856 22187c0,0 -828,704 -1589,611 0,0 -522,-1726 1589,-1434 0,0 330,93 431,265 0,0 910,213 498,1740l-249 276 -249 0 0 -528c0,0 -454,-365 -431,-930z"/>
    <path class="fil12" d="M44414 23452c0,0 163,-343 413,-191 0,0 206,54 -55,585 0,0 -238,434 -411,87 0,0 -44,-343 53,-481z"/>
   </g>
   <g>
    <path class="fil23" d="M50534 8033l-2351 2194c-652,608 -1657,626 -2341,75 32,42 62,85 89,130 426,687 327,1592 -285,2163l-2352 2194 -3202 -3313 2351 -2195c652,-608 1657,-626 2341,-74 -31,-42 -61,-86 -88,-130 -426,-688 -327,-1592 285,-2164l2351 -2194 3202 3314z"/>
    <path class="fil24" d="M46779 4542l3914 4050c108,113 288,118 401,12 113,-105 117,-282 8,-394l-3914 -4050c-108,-113 -288,-118 -401,-12l0 0c-113,105 -117,282 -8,394z"/>
    <path class="fil24" d="M39539 11299l3914 4050c109,112 288,118 401,12 113,-105 117,-282 9,-394l-3915 -4051c-108,-112 -288,-117 -401,-12 -113,106 -117,282 -8,395z"/>
    <path class="fil25" d="M42374 9564c1000,-729 1758,-262 1862,-205 51,32 118,28 163,-14 52,-49 54,-131 4,-184 -6,-6 -13,-11 -19,-16 0,0 0,0 0,0 -2,-1 -3,-2 -5,-3 -6,-4 -13,-8 -20,-11 -1033,-498 -1985,433 -1985,433z"/>
    <path class="fil25" d="M44507 9477c39,41 104,43 145,4 41,-38 42,-102 3,-142 -40,-41 -104,-43 -145,-5 -41,39 -43,102 -3,143z"/>
    <path class="fil10" d="M48371 9687l-373 348c-290,271 -671,413 -1073,401 -402,-12 -776,-177 -1054,-465l-55 -56c-183,-99 -428,-70 -584,75l-1360 1269c-189,177 -196,474 -13,662l-38 -38c279,288 427,664 419,1059 -8,395 -173,761 -463,1032l-373 348 -2831 -2930 373 -348c290,-271 671,-413 1073,-401 401,12 776,178 1054,466l-23 -24c183,189 484,198 674,21l1360 -1269c156,-146 202,-379 114,-562l-76 -79c-278,-288 -427,-664 -418,-1059 8,-395 172,-761 462,-1032l373 -348 2832 2930z"/>
   </g>
   <g>
    <path class="fil24" d="M10367 30966l10332 -1892c688,-125 1347,326 1472,1009l1287 7030c126,683 -331,1339 -1019,1465l-10332 1892c-688,126 -1347,-326 -1472,-1009l-1287 -7030c-125,-683 331,-1339 1019,-1465z"/>
    <path class="fil25" d="M19035 34629l2462 -451c186,-34 309,-211 275,-395l-448 -2445c-34,-184 -211,-306 -397,-272l-2462 451c-186,34 -309,210 -275,395l448 2445c34,184 211,306 397,272z"/>
    <path class="fil5" d="M19732 38324l2463 -451c185,-34 308,-211 274,-395l-447 -2445c-34,-185 -212,-306 -397,-272l-2463 450c-185,34 -308,211 -274,395l447 2446c34,184 212,306 397,272z"/>
    <path class="fil25" d="M15190 35333l2463 -451c185,-34 308,-211 274,-395l-447 -2445c-34,-184 -212,-306 -397,-272l-2463 451c-185,33 -308,210 -274,395l447 2445c34,184 212,306 397,272z"/>
    <path class="fil25" d="M15888 39027l2462 -450c186,-34 309,-211 275,-395l-448 -2446c-33,-184 -211,-305 -397,-272l-2462 451c-186,34 -309,211 -275,395l448 2445c34,185 211,306 397,272z"/>
    <path class="fil10" d="M11346 36037l2462 -451c186,-34 309,-211 275,-395l-448 -2445c-34,-185 -211,-306 -397,-272l-2462 450c-186,34 -309,211 -275,395l448 2446c34,184 211,306 397,272z"/>
    <path class="fil25" d="M12043 39731l2463 -450c185,-34 308,-211 275,-395l-448 -2446c-34,-184 -212,-306 -397,-272l-2463 451c-185,34 -308,211 -274,395l447 2445c34,185 212,306 397,272z"/>
    <path class="fil23" d="M19143 28313l359 -65c197,-36 385,93 420,288l242 1320c36,195 -94,382 -291,418l-359 66c-196,36 -384,-93 -420,-288l-242 -1321c-35,-195 95,-382 291,-418z"/>
    <path class="fil23" d="M11099 29786l359 -65c196,-36 384,92 420,287l242 1321c35,195 -95,382 -291,418l-359 66c-197,36 -385,-93 -420,-288l-242 -1321c-36,-195 94,-382 291,-418z"/>
   </g>
   <g>
    <path class="fil13" d="M15059 11096c-1471,4022 598,8475 4620,9946 4022,1472 8476,-597 9947,-4619 1471,-4023 -598,-8476 -4620,-9947 -4022,-1471 -8476,597 -9947,4620z"/>
    <path class="fil26" d="M16030 11451c-1274,3486 518,7345 4004,8620 3486,1275 7346,-517 8621,-4003 1274,-3487 -518,-7346 -4004,-8621 -3486,-1275 -7346,518 -8621,4004z"/>
    <path class="fil22" d="M22792 13916l-81 254c-21,67 -93,104 -160,82l-6137 -1957c-67,-22 -104,-93 -83,-160l81 -254c21,-67 93,-104 160,-83l6137 1958c67,21 104,93 83,160z"/>
    <path class="fil27" d="M22253 13250l1134 -3100c49,-134 198,-203 332,-154 134,49 203,198 154,332l-1134 3100c114,137 155,329 89,509 -98,268 -395,406 -663,308 -268,-98 -406,-395 -308,-663 66,-180 221,-301 396,-332z"/>
    <path class="fil10" d="M19675 7625c-1335,759 -2418,1976 -2986,3531 -1275,3486 517,7346 4003,8621 1677,613 3441,516 4962,-137 -1658,943 -3703,1178 -5635,472 -3486,-1275 -5278,-5135 -4003,-8621 661,-1809 2019,-3161 3659,-3866z"/>
   </g>
   <g>
    <g>
     <path class="fil8" d="M62365 23400l-5627 -2593c-404,-186 -885,-5 -1074,405l-1120 2430c-189,410 -14,893 390,1080l5627 2593c404,186 885,5 1074,-405l1120 -2430c189,-410 14,-893 -390,-1080z"/>
     <path class="fil20" d="M62342 23390l-2793 -1287 -1804 3914 2792 1287c418,192 914,5 1109,-418l1098 -2383c195,-422 15,-921 -402,-1113z"/>
    </g>
    <path class="fil9" d="M62137 23608l-5409 -2493c-296,-136 -649,-3 -788,297l-1065 2310c-138,300 -9,655 287,792l5409 2492c296,137 649,4 788,-296l1064 -2310c139,-300 10,-655 -286,-792z"/>
    <path class="fil25" d="M56988 22583c47,-101 5,-221 -97,-268 -102,-47 -218,1 -265,101l-534 1159c-46,101 -7,220 96,267 101,47 220,1 266,-100l534 -1159zm1423 1657l258 119 -120 260 -258 -119 120 -260zm339 -737l258 119 -121 263 -258 -119 121 -263zm1177 439c47,-102 5,-222 -97,-269 -102,-47 -218,1 -265,102l-534 1158c-46,101 -7,220 96,267 101,47 220,1 266,-100l534 -1158zm-209 1314c-128,279 -451,405 -732,275 -281,-130 -396,-456 -267,-736l533 -1157c129,-280 452,-406 734,-276 282,130 394,458 265,737l-533 1157zm1481 -729c46,-101 5,-221 -97,-268 -102,-47 -219,1 -265,102l-534 1158c-47,101 -7,220 95,267 102,47 220,1 267,-100l534 -1159zm-209 1315c-129,278 -452,405 -732,275 -282,-130 -397,-456 -268,-736l533 -1157c129,-280 453,-406 735,-276 281,130 393,457 265,737l-533 1157zm-3147 -1629c65,-142 100,-298 -66,-375 -84,-39 -157,-29 -220,30 -38,35 -74,90 -108,163l-47 102c-55,120 -30,254 93,317 87,35 167,20 238,-46 24,-22 45,-52 63,-90l47 -101zm440 -928c59,-135 82,-310 -75,-382 -172,-79 -278,45 -339,191 -39,94 -55,167 -48,219 8,69 50,121 126,156 75,35 144,32 205,-10 51,-35 94,-93 131,-174zm-194 1224c-65,140 -169,237 -312,290 -288,107 -629,-48 -732,-339 -51,-144 -45,-285 19,-424l89 -192c60,-130 155,-224 285,-281 56,-25 115,-39 176,-44 -64,-83 -96,-186 -95,-311 1,-63 20,-135 57,-215l53 -115c63,-138 156,-233 277,-286 275,-123 649,49 734,338 38,128 26,261 -37,397l-53 115c-61,132 -150,223 -268,274 -52,23 -104,35 -157,38 69,96 104,210 105,342 2,68 -16,141 -52,220l-89 193zm-1310 -612c-128,279 -451,405 -732,276 -281,-130 -396,-456 -267,-736l533 -1157c129,-280 452,-406 734,-276 282,130 394,457 265,737l-533 1156z"/>
   </g>
  </g>
 </g>
</svg>
