<?xml version="1.0" encoding="UTF-8"?>
<!DOCTYPE svg PUBLIC "-//W3C//DTD SVG 1.1//EN" "http://www.w3.org/Graphics/SVG/1.1/DTD/svg11.dtd">
<!-- Creator: CorelDRAW X7 -->
<svg xmlns="http://www.w3.org/2000/svg" xml:space="preserve" width="4.01622in" height="1.07992in" version="1.1" style="shape-rendering:geometricPrecision; text-rendering:geometricPrecision; image-rendering:optimizeQuality; fill-rule:evenodd; clip-rule:evenodd"
viewBox="0 0 40162 10799"
 xmlns:xlink="http://www.w3.org/1999/xlink">
 <defs>
  <style type="text/css">
   <![CDATA[
    .fil1 {fill:#7C94CA}
    .fil2 {fill:#DBE2F1}
    .fil0 {fill:white}
   ]]>
  </style>
 </defs>
 <g id="Layer_x0020_1">
  <metadata id="CorelCorpID_0Corel-Layer"/>
  <g id="_2555749613120">
   <rect class="fil0" x="281" y="239" width="39599" height="10321" rx="6076" ry="5161"/>
   <path class="fil1" d="M5400 0l29362 0c2971,0 5400,2430 5400,5399l0 1c0,2970 -2429,5399 -5400,5399l-29362 0c-2970,0 -5400,-2429 -5400,-5399l0 -1c0,-2969 2430,-5399 5400,-5399zm42 239l29278 0c2839,0 5161,2322 5161,5161l0 0c0,2838 -2322,5160 -5161,5160l-29278 0c-2838,0 -5161,-2322 -5161,-5160l0 0c0,-2839 2323,-5161 5161,-5161z"/>
   <rect class="fil2" x="28827" y="1563" width="313" height="7674"/>
   <rect class="fil1" x="28670" y="1563" width="156" height="7674"/>
   <path class="fil1" d="M32961 5496l0 0 0 -193 0 0 0 -22 3459 0 -1298 -1298 169 -169 1587 1586 -1587 1587 -169 -169 1298 -1299 -3459 0 0 -23zm-1861 -96c0,-1021 396,-1980 1118,-2702 722,-721 1680,-1118 2701,-1117 1020,0 1978,396 2700,1118 722,721 1118,1680 1118,2701 0,1020 -396,1980 -1118,2700 -722,722 -1680,1119 -2700,1119 -1021,1 -1979,-397 -2701,-1117 -722,-722 -1118,-1682 -1118,-2702zm7399 0c0,-957 -372,-1856 -1048,-2533 -677,-675 -1575,-1048 -2532,-1048 -958,0 -1856,373 -2532,1048 -677,677 -1049,1576 -1049,2533 0,957 372,1856 1049,2532 676,676 1574,1049 2532,1049 957,0 1855,-373 2532,-1049 676,-676 1048,-1575 1048,-2532z"/>
  </g>
 </g>
</svg>
