<?xml version="1.0" encoding="UTF-8"?>
<!DOCTYPE svg PUBLIC "-//W3C//DTD SVG 1.1//EN" "http://www.w3.org/Graphics/SVG/1.1/DTD/svg11.dtd">
<!-- Creator: CorelDRAW X7 -->
<svg xmlns="http://www.w3.org/2000/svg" xml:space="preserve" width="5.3602in" height="6.67428in" version="1.1" style="shape-rendering:geometricPrecision; text-rendering:geometricPrecision; image-rendering:optimizeQuality; fill-rule:evenodd; clip-rule:evenodd"
viewBox="0 0 53602 66743"
 xmlns:xlink="http://www.w3.org/1999/xlink">
 <defs>
  <style type="text/css">
   <![CDATA[
    .fil9 {fill:#D2AE6D}
    .fil13 {fill:#DEC392}
    .fil4 {fill:#DEE4F2}
    .fil8 {fill:#E9D7B5}
    .fil12 {fill:#EFE1C8}
    .fil7 {fill:#F3E9D8}
    .fil0 {fill:#F4EBDA}
    .fil14 {fill:#F5EDDF}
    .fil2 {fill:#7C94CA;fill-rule:nonzero}
    .fil1 {fill:#95A9D4;fill-rule:nonzero}
    .fil11 {fill:#B3C1E0;fill-rule:nonzero}
    .fil10 {fill:#B99C67;fill-rule:nonzero}
    .fil6 {fill:#DCC495;fill-rule:nonzero}
    .fil5 {fill:#E5CFA8;fill-rule:nonzero}
    .fil3 {fill:white;fill-rule:nonzero}
   ]]>
  </style>
 </defs>
 <g id="Layer_x0020_1">
  <metadata id="CorelCorpID_0Corel-Layer"/>
  <g id="_2899247697664">
   <path class="fil0" d="M0 54192c0,-4446 4937,-8352 12383,-10581 4163,-1247 9110,-1969 14418,-1969 14801,0 26801,5619 26801,12550 0,6932 -12000,12551 -26801,12551 -5308,0 -10255,-723 -14418,-1969 -7446,-2230 -12383,-6136 -12383,-10582z"/>
   <path class="fil1" d="M41699 52185c0,108 -6,218 -18,324 -383,3557 -7040,6391 -15197,6391 -3020,0 -5837,-389 -8206,-1060 -4103,-1163 -6861,-3172 -7002,-5469l0 -13c-3,-57 -6,-115 -6,-173 0,-58 3,-116 6,-174 38,-691 315,-1358 796,-1983 274,-357 617,-702 1021,-1029 2569,-2101 7604,-3528 13391,-3528 6696,0 12381,1908 14413,4557 522,679 802,1403 802,2157z"/>
   <polygon class="fil1" points="41699,50028 41699,52509 41681,52509 15800,52391 11276,52371 11276,50028 "/>
   <path class="fil2" d="M18278 55494l0 2346c-4103,-1163 -6861,-3172 -7003,-5469l0 -13c-2,-57 -5,-115 -5,-173 0,-58 3,-116 5,-174l0 -1983 797 0c274,-357 617,-702 1021,-1029l820 1029 1887 2363 2478 3103z"/>
   <path class="fil3" d="M41699 49842c0,3708 -6811,6713 -15215,6713 -3020,0 -5837,-389 -8206,-1061 -4215,-1191 -7008,-3278 -7008,-5652 0,-747 277,-1467 787,-2139 2024,-2658 7720,-4575 14427,-4575 8404,0 15215,3006 15215,6714z"/>
   <path class="fil4" d="M19845 55521c7920,0 14341,-1902 14341,-4250 0,-2347 -6421,-4250 -14341,-4250 -2870,0 -5546,249 -7788,682 -510,672 -787,1392 -787,2139 0,2374 2793,4461 7008,5652 514,18 1036,27 1567,27z"/>
   <path class="fil5" d="M35956 33134c-1663,1784 -1575,5586 -1552,8456 4,242 4,478 4,705 0,2918 224,8301 -7608,8301 -7829,0 -7162,-6663 -7162,-9330 0,-298 0,-605 3,-912 9,-2430 -6,-5032 -917,-6359l9465 -6610c0,0 9573,3816 7767,5749z"/>
   <path class="fil6" d="M19641 40354c9,-2430 -6,-5032 -917,-6359 0,0 3946,2888 7469,2592 3383,-283 -2912,4319 -6552,3767z"/>
   <path class="fil7" d="M26801 0l0 0c-364,0 -661,297 -661,661l0 5306c0,363 297,661 661,661l0 0c363,0 661,-298 661,-661l0 -5306c0,-364 -298,-661 -661,-661z"/>
   <path class="fil7" d="M15289 3085l0 0c-314,181 -423,588 -241,902l2652 4595c182,315 588,424 903,242l0 0c315,-182 424,-588 242,-903l-2653 -4595c-181,-314 -588,-423 -903,-241z"/>
   <path class="fil7" d="M6862 11512l0 0c-181,314 -72,721 242,902l4595 2653c315,182 721,73 903,-242l0 0c182,-314 73,-721 -242,-902l-4595 -2653c-315,-182 -721,-73 -903,242z"/>
   <path class="fil7" d="M3778 23023l0 0c0,364 297,661 661,661l5306 0c363,0 660,-297 660,-661l0 0c0,-363 -297,-661 -660,-661l-5306 0c-364,0 -661,298 -661,661z"/>
   <path class="fil7" d="M6862 34535l0 0c182,314 588,423 903,242l4595 -2653c315,-182 424,-588 242,-903l0 0c-182,-315 -588,-424 -903,-242l-4595 2653c-314,182 -423,588 -242,903z"/>
   <path class="fil7" d="M46740 34535l0 0c181,-315 72,-721 -242,-903l-4595 -2653c-315,-182 -721,-73 -903,242l0 0c-182,315 -73,721 242,903l4595 2653c315,181 721,72 903,-242z"/>
   <path class="fil7" d="M49824 23023l0 0c0,-363 -297,-661 -661,-661l-5306 0c-363,0 -660,298 -660,661l0 0c0,364 297,661 660,661l5306 0c364,0 661,-297 661,-661z"/>
   <path class="fil7" d="M46740 11512l0 0c-182,-315 -588,-424 -903,-242l-4595 2652c-315,182 -424,589 -242,903l0 0c182,315 588,424 903,242l4595 -2653c314,-181 423,-588 242,-902z"/>
   <path class="fil7" d="M38313 3085l0 0c-315,-182 -722,-73 -903,241l-2653 4595c-182,315 -73,721 242,903l0 0c315,182 721,73 903,-242l2652 -4595c182,-314 73,-721 -241,-902z"/>
   <circle class="fil8" cx="26801" cy="22776" r="13826"/>
   <path class="fil9" d="M29423 26709l0 2622 -10488 0 0 -2622 10488 0zm-10488 -7866l0 -2622c5244,0 10488,0 15732,0l-2622 2622c-4370,0 -8740,0 -13110,0zm15732 2622c0,2622 0,5244 0,7866l-2622 0 0 -5244 0 0 -13110 0 0 -2622c5244,0 10488,0 15732,0z"/>
   <path class="fil10" d="M30250 31515c-149,0 -332,260 -489,484 -68,95 -131,186 -191,254l0 0c-20,22 -40,43 -62,61 -106,92 -236,138 -365,138 -130,0 -260,-46 -366,-138 -21,-18 -41,-39 -61,-61l0 0c-60,-68 -123,-158 -190,-254 -158,-224 -342,-484 -490,-484 -149,0 -332,260 -489,484 -68,95 -131,186 -191,254l-1 0c-19,22 -39,43 -61,61 -105,92 -235,138 -365,138 -129,0 -259,-46 -365,-137 -22,-19 -42,-40 -62,-62 -62,-71 -124,-160 -190,-254 -158,-224 -341,-484 -489,-484 -150,0 -334,262 -492,486 -65,93 -127,181 -188,252 -20,22 -40,42 -61,61 -107,92 -237,139 -367,139 -130,0 -259,-47 -366,-139 -21,-19 -42,-39 -61,-61 -61,-71 -123,-159 -189,-253 -158,-224 -342,-485 -491,-485 -260,0 -507,223 -698,543 -225,378 -367,882 -368,1329l1661 12423 5452 0 1661 -12423c-1,-447 -143,-951 -368,-1329 -191,-320 -438,-543 -698,-543zm-710 328c195,-277 421,-599 710,-599 367,0 692,278 929,675 251,420 408,980 408,1473l-2 18 -1679 12553 -15 118 -118 0 -5688 0 -118 0 -15 -118 -1679 -12553 -2 -18c0,-493 157,-1053 408,-1473 237,-397 562,-675 929,-675 289,0 517,323 712,601 63,89 122,173 172,231 11,13 22,24 34,34 55,48 122,72 189,72 67,0 135,-24 190,-72 12,-10 23,-22 34,-34 50,-58 109,-141 171,-230 196,-278 423,-602 713,-602 288,0 515,322 710,600 63,89 122,174 173,232 11,13 22,24 34,35 56,47 123,71 189,71 67,0 133,-24 189,-72 11,-10 23,-21 34,-34l0 0c53,-61 111,-145 174,-233 195,-277 421,-599 710,-599 288,0 515,322 711,600 62,88 120,171 173,232l0 0c11,13 22,24 34,34 55,48 122,72 189,72 66,0 133,-24 189,-72 12,-10 23,-21 34,-34l0 0c53,-61 111,-145 174,-233z"/>
   <path class="fil1" d="M32395 46906c0,3019 -1479,5171 -5466,5171 -3987,0 -5466,-2152 -5466,-5171 0,-4239 10932,-4239 10932,0z"/>
   <path class="fil11" d="M34316 44847c-47,428 -121,861 -233,1289 -607,2316 -2339,4460 -7283,4460 -4454,0 -6156,-2153 -6799,-4504 -118,-428 -201,-865 -257,-1295 -177,-1357 -106,-2658 -106,-3531 4746,1546 9666,1655 14766,324 3,242 3,478 3,705 0,735 15,1629 -91,2552z"/>
   <path class="fil1" d="M34316 44847c-47,428 -121,861 -233,1289 -2286,605 -4599,908 -6923,908 -2378,0 -4767,-315 -7159,-952 -118,-428 -201,-865 -257,-1295 4900,1407 9791,1421 14572,50z"/>
   <path class="fil12" d="M32045 18843l2622 -2622 -5187 0c-322,793 -413,1706 -224,2622l2789 0z"/>
   <path class="fil12" d="M34667 21465l-3880 0c1068,915 2504,1268 3837,804 15,-5 29,-10 43,-15l0 -789z"/>
   <path class="fil13" d="M24562 18843l4694 0c-189,-916 -98,-1829 224,-2622l-4604 0c-255,826 -365,1714 -314,2622z"/>
   <path class="fil13" d="M30787 21465l-5613 0c433,1026 1058,1913 1810,2622l5061 0 0 1887c521,-38 1042,-143 1554,-321 377,-132 734,-297 1068,-492l0 -2907c-14,5 -28,10 -43,15 -1333,464 -2769,111 -3837,-804z"/>
   <path class="fil14" d="M34667 22254c2049,-742 3071,-3159 2283,-5423 -794,-2280 -3122,-3542 -5200,-2819 -1064,371 -1857,1191 -2270,2209l5187 0 -2622 2622 -2789 0c43,203 98,406 169,607 284,817 766,1504 1362,2015l3880 0 0 789z"/>
   <path class="fil12" d="M30787 21465c-596,-511 -1078,-1198 -1362,-2015 -71,-201 -126,-404 -169,-607l-4694 0c41,710 181,1431 429,2144 56,162 117,322 183,478l5613 0z"/>
   <path class="fil12" d="M32045 24087l-5061 0c1395,1315 3225,2021 5061,1887l0 -1887z"/>
   <path class="fil12" d="M34667 22254l0 2907c2713,-1587 3951,-5150 2781,-8511 -1314,-3774 -5168,-5863 -8608,-4666 -1961,683 -3364,2285 -3964,4237l4604 0c413,-1018 1206,-1838 2270,-2209 2078,-723 4406,539 5200,2819 788,2264 -234,4681 -2283,5423z"/>
  </g>
 </g>
</svg>
