<?xml version="1.0" encoding="UTF-8"?>
<!DOCTYPE svg PUBLIC "-//W3C//DTD SVG 1.1//EN" "http://www.w3.org/Graphics/SVG/1.1/DTD/svg11.dtd">
<!-- Creator: CorelDRAW X7 -->
<svg xmlns="http://www.w3.org/2000/svg" xml:space="preserve" width="8.955in" height="5.57354in" version="1.1" style="shape-rendering:geometricPrecision; text-rendering:geometricPrecision; image-rendering:optimizeQuality; fill-rule:evenodd; clip-rule:evenodd"
viewBox="0 0 89550 55735"
 xmlns:xlink="http://www.w3.org/1999/xlink">
 <defs>
  <style type="text/css">
   <![CDATA[
    .fil14 {fill:#D2AE6D}
    .fil15 {fill:#D7B67C}
    .fil12 {fill:#E6D2AE}
    .fil0 {fill:#EDDFC4}
    .fil1 {fill:#F6EFE2}
    .fil8 {fill:#5E6D8F;fill-rule:nonzero}
    .fil3 {fill:#657AA9;fill-rule:nonzero}
    .fil2 {fill:#6C698B;fill-rule:nonzero}
    .fil10 {fill:#75613D;fill-rule:nonzero}
    .fil5 {fill:#BB9B61;fill-rule:nonzero}
    .fil4 {fill:#CFD8EC;fill-rule:nonzero}
    .fil7 {fill:#D2AE6D;fill-rule:nonzero}
    .fil9 {fill:#DCC08D;fill-rule:nonzero}
    .fil6 {fill:#E1E7F4;fill-rule:nonzero}
    .fil16 {fill:#E3D1B2;fill-rule:nonzero}
    .fil17 {fill:#EEE3CE;fill-rule:nonzero}
    .fil13 {fill:#FBF7F0;fill-rule:nonzero}
    .fil11 {fill:white;fill-rule:nonzero}
   ]]>
  </style>
 </defs>
 <g id="Layer_x0020_1">
  <metadata id="CorelCorpID_0Corel-Layer"/>
  <g id="_2763885954560">
   <path class="fil0" d="M74652 48011c-2942,121 -5324,350 -5320,511 4,162 2392,195 5334,75 2942,-121 5324,-350 5320,-511 -3,-162 -2392,-195 -5334,-75z"/>
   <g>
    <path class="fil0" d="M22587 32742c-8983,-2257 -12179,-5504 -13618,-3814 -1247,-1041 -2799,-1997 -4401,-2856 -1752,-940 -3267,-1849 -4568,-2727l0 -10825c436,101 897,213 1388,336 938,236 1980,513 3139,835 5877,1632 11257,1648 14040,38 226,-131 433,-271 620,-420 3844,-3051 -1950,-8492 -3973,-13309l33003 0c582,7511 1603,19318 2612,20771 2808,4044 252,9590 -2397,11693 -270,214 -567,415 -893,603 -4000,2315 -11905,3610 -20354,1263 -1667,-463 -3249,-1249 -4598,-1588z"/>
    <path class="fil1" d="M18788 36962c-4782,-1093 -6699,-601 -8238,895 728,-2273 2394,-4255 45,-7283 -411,-530 -945,-1077 -1626,-1646 1439,-1690 3785,-2087 12768,171 1348,339 2846,737 4513,1200 8448,2347 16184,2369 20184,55 325,-188 623,-389 892,-603 5975,-4744 -4252,-13504 -6305,-20804 -1212,-4306 45,-7078 3664,-8947l30329 0c-7190,3193 -12324,7838 -2463,14488 4837,3262 11415,4845 9966,9608 -295,970 -1110,1820 -2528,2554 -515,98 -1020,458 -1524,583 -2082,518 -4062,917 -5854,774 -4168,-331 -7771,-2425 -12423,-2738 -4575,-307 -6241,1191 -3788,6112 2808,5632 2033,9629 -2623,11259 -10007,3505 -23732,-3105 -34989,-5678z"/>
    <path class="fil0" d="M16726 34147c2612,244 6653,1354 13530,3768 2814,988 5607,1723 8255,2196 5210,931 9863,844 13028,-342 4484,-1680 5168,-5172 3119,-9281 -1813,-3637 -1822,-5889 -25,-6884 574,-319 1326,-499 2213,-572 6238,-512 17708,7334 24527,2710 -5008,4880 -19570,1332 -22371,3956 -1938,1815 1274,4571 3840,7587 5707,6708 1649,11224 -8944,10114 -4335,-455 -9009,-1504 -12625,-1236 -4886,364 -3442,4030 -4563,6567 -2565,5801 -17676,2697 -23685,-4975 -3492,-4458 -4863,-14406 3701,-13608z"/>
   </g>
   <g>
    <path class="fil2" d="M77743 43193c-283,-608 -581,-1016 -876,-1562 -4,-115 -14,-241 -35,-382 -121,-796 -693,-5231 -756,-5655 0,-1 0,-3 -1,-5 18,-212 -18,-455 -41,-720l-3933 -11c-190,766 -734,5160 -898,7052 -9,41 -16,85 -18,135 -49,969 -685,6036 -511,6072 452,97 1286,-2327 1627,-3960 135,-647 137,-1208 230,-1846 28,-92 53,-193 75,-305l1362 -4860c213,879 1242,3708 1646,4979 6,110 46,230 131,358 556,837 3097,5489 3222,5356 326,-342 -637,-3386 -1224,-4646z"/>
    <path class="fil3" d="M78234 35315l915 -288 75 240 -915 288 -75 -240zm3694 2079l-774 -2465c-42,-134 -187,-209 -321,-167l-1316 413 -101 -321c-18,-57 -56,-102 -109,-130 -52,-27 -111,-32 -167,-15l-1081 340c-56,17 -101,56 -128,108 -28,52 -33,112 -15,167l101 322 -1317 414c-134,42 -209,186 -167,321l774 2464c42,134 186,210 320,168l4134 -1299c134,-42 209,-186 167,-320z"/>
    <path class="fil4" d="M70464 31634c416,192 984,-487 1364,-873 694,-705 1123,-1167 1381,-1416 240,-232 1226,-1031 1004,-1134 -565,-260 -965,-258 -1384,82 -878,714 -1453,1396 -1819,1811 -453,513 -1138,1257 -546,1530z"/>
    <path class="fil5" d="M73391 27014c-126,-328 17,-704 357,-836 372,-145 800,36 938,387 69,175 550,1445 506,2565 -18,436 -499,713 -938,550 -277,-103 -461,-354 -450,-628 25,-627 -210,-1508 -413,-2038z"/>
    <path class="fil6" d="M78792 32634c-14,-454 -111,-997 -258,-1380 -77,-336 -446,-766 -725,-1101 -318,-382 -801,-985 -1519,-1639 -227,-322 -629,-529 -1048,-529l-1637 0c-1128,0 -1292,1198 -1294,2025 -1,656 14,1313 16,1970 2,894 -154,1423 -267,2306 -33,258 -78,596 45,596l3934 11c168,-356 -175,-2705 142,-4571 16,-98 43,-204 74,-314 199,219 435,477 720,783 147,158 323,363 508,541 10,107 42,226 96,354 220,530 548,1709 631,2354 17,139 -16,260 125,292 231,53 398,-125 398,-125 0,0 71,-1197 59,-1573z"/>
    <path class="fil7" d="M78885 34991c-8,-277 -69,-614 -74,-792 -6,-216 -347,-112 -518,73 -153,166 -166,420 -167,582 -1,137 21,268 272,391 236,115 497,122 487,-254z"/>
    <path class="fil4" d="M70593 32174c507,371 1507,646 1507,646 0,0 136,5 290,-79 103,-55 138,-135 99,-210 -167,-322 -739,-433 -1124,-948 -189,-253 -379,-665 -949,-533 -322,75 -219,835 177,1124z"/>
    <path class="fil7" d="M72150 32421c262,-89 600,-147 769,-204 205,-68 225,288 110,512 -103,201 -338,301 -490,358 -128,48 -258,72 -460,-121 -190,-183 -286,-426 71,-545z"/>
    <path class="fil2" d="M70846 47847c56,47 78,124 51,192 -63,159 -105,381 -164,460 -73,98 -872,-464 -1229,-829 -193,-196 595,184 793,201 125,11 272,-34 364,-68 56,-21 120,-10 166,29l19 15z"/>
    <path class="fil2" d="M78875 47449c69,0 126,48 143,114 45,173 139,384 144,489 5,128 -814,212 -1241,158 -231,-30 483,-253 620,-372 88,-77 160,-214 201,-304 24,-52 76,-85 133,-85z"/>
    <path class="fil2" d="M76418 32156c-36,-212 -80,-424 -144,-630 -124,-413 -309,-805 -536,-1169 -228,-363 -490,-700 -775,-1012 -72,-75 -143,-158 -227,-228 -79,-70 -156,-135 -230,-203 -73,-68 -143,-139 -200,-214 -32,-43 -58,-88 -75,-133 79,-42 125,-127 109,-236 -23,-155 -59,-269 -225,-265 -86,2 -200,158 -225,250 -24,88 67,253 197,275 14,75 45,142 77,201 56,97 122,183 190,265 69,82 141,159 208,235 65,73 123,153 187,233 247,319 443,673 609,1036 163,364 290,740 405,1117 50,191 110,380 147,574 22,96 56,190 107,284 56,93 116,187 231,281l1 0c91,-111 138,-224 161,-334 23,-111 27,-221 8,-327z"/>
    <path class="fil4" d="M75036 27667c0,0 -459,241 -944,318 0,0 159,328 154,525 0,0 1074,-278 1037,-483 -40,-224 -247,-360 -247,-360z"/>
    <path class="fil4" d="M73442 27985c-73,193 606,525 606,525 -49,-202 44,-525 44,-525 -280,-77 -487,-173 -487,-173 0,0 -109,28 -163,173z"/>
    <path class="fil7" d="M72650 26108c41,955 522,1752 1229,1776 706,24 1246,-731 1205,-1685 -40,-955 -646,-1749 -1353,-1773 -706,-24 -1121,727 -1081,1682z"/>
    <path class="fil8" d="M74565 25374c-871,477 -2605,810 -2287,0 318,-810 2151,-1549 2476,-759 325,789 -189,759 -189,759z"/>
    <path class="fil8" d="M74400 25026c-268,299 104,1551 684,1173 580,-378 217,-2180 -684,-1173z"/>
    <path class="fil7" d="M74838 26042c-63,286 3,555 148,601 145,47 313,-147 377,-432 63,-286 -3,-555 -148,-601 -145,-47 -314,147 -377,432z"/>
   </g>
   <g>
    <path class="fil9" d="M60560 29466c1256,-10229 -8977,-17718 -18563,-15349 -5636,1393 -10049,5917 -10765,11747 -424,3454 521,6776 2428,9476 233,329 213,774 -51,1079l-2145 2475c-362,418 -111,1071 438,1138l601 74 11688 1436c8099,994 15428,-4412 16369,-12076z"/>
    <path class="fil7" d="M21612 44893c-33,-66 5,-145 76,-163l357 -86c73,-18 110,-100 75,-167l-207 -388 -2065 363 1220 2616c22,47 73,74 124,65l1246 -219c76,-13 118,-95 84,-164l-910 -1857z"/>
    <path class="fil9" d="M27287 39877c-154,-877 279,-1687 968,-1808 689,-121 1373,493 1527,1370 154,878 -280,1688 -969,1808 -689,121 -1372,-492 -1526,-1370z"/>
    <path class="fil5" d="M21270 42880c-27,-49 -84,-73 -137,-56l-1655 526c-66,21 -99,95 -69,158l475 1005 2065 -362 -679 -1271z"/>
    <path class="fil10" d="M16973 41508c-191,-1089 256,-2078 999,-2208 743,-131 1500,647 1691,1736 191,1089 -256,2078 -999,2208 -743,131 -1500,-646 -1691,-1736z"/>
    <path class="fil5" d="M26872 39950c-154,-877 280,-1687 969,-1808 689,-121 1372,493 1526,1370 154,878 -279,1687 -968,1808 -689,121 -1373,-492 -1527,-1370z"/>
    <path class="fil11" d="M21843 38064l625 3565 6127 -1076 -1164 -6628c0,0 -2265,3344 -5588,4139z"/>
    <path class="fil9" d="M21625 37703l-3210 563c-546,96 -911,617 -816,1164l521 2962 4348 -763 -625 -3565 -42 -237c-15,-83 -93,-139 -176,-124z"/>
    <path class="fil12" d="M44277 15422c4,226 190,406 416,403 226,-4 406,-190 403,-416 -4,-226 -190,-407 -416,-403 -226,3 -406,190 -403,416zm-6181 2652c2072,-1686 5207,-2122 5249,-2127 203,-27 346,-214 320,-418 -27,-204 -215,-347 -418,-320 -137,18 -3379,464 -5620,2287 -160,130 -184,364 -54,524 77,95 192,142 306,137 76,-4 153,-31 217,-83z"/>
    <path class="fil7" d="M21729 40853l-3764 661 344 1958c96,547 617,912 1163,816l3210 -563c82,-15 138,-94 123,-177l-19 -112 -472 -2686 -585 103z"/>
    <path class="fil13" d="M22786 43436c3395,-384 6664,1989 6664,1989l-1010 -5750 -6126 1075 472 2686z"/>
    <path class="fil10" d="M29599 46153l0 0c-231,40 -451,-114 -492,-345l-2128 -12127c-41,-231 114,-451 345,-491 230,-41 451,113 491,344l2129 12127c40,231 -114,451 -345,492z"/>
    <g>
     <circle class="fil0" cx="45889" cy="27689" r="5809"/>
     <path class="fil14" d="M46986 29334l0 1095 -4384 0 0 -1095 4384 0zm-4384 -3289l0 -1097c2192,0 4384,0 6576,0l-1097 1097c-1825,0 -3652,0 -5479,0zm6576 1095c0,1097 0,2194 0,3289l-1097 0 0 -2192 0 0 -5479 0 0 -1097c2192,0 4384,0 6576,0z"/>
    </g>
    <path class="fil15" d="M57581 24853c386,7711 -5908,14294 -14057,14701l-11021 552 11688 1436c8099,994 15428,-4412 16369,-12076 737,-6005 -2485,-11065 -7211,-13742 2465,2354 4053,5548 4232,9129z"/>
   </g>
   <path class="fil16" d="M6858 34045c-944,29 -1701,805 -1707,1763l-17 0c-6,-958 -760,-1734 -1704,-1763 948,-32 1708,-812 1708,-1779l13 0c0,967 760,1747 1707,1779z"/>
   <path class="fil17" d="M89550 27428c-1382,-46 -2490,-1182 -2500,-2589l-21 0c-9,1407 -1118,2543 -2503,2589 1388,46 2503,1191 2503,2607l18 0c0,-1416 1115,-2561 2503,-2607z"/>
  </g>
 </g>
</svg>
