<?xml version="1.0" encoding="UTF-8"?>
<!DOCTYPE svg PUBLIC "-//W3C//DTD SVG 1.1//EN" "http://www.w3.org/Graphics/SVG/1.1/DTD/svg11.dtd">
<!-- Creator: CorelDRAW X7 -->
<svg xmlns="http://www.w3.org/2000/svg" xml:space="preserve" width="7.0074in" height="6.19358in" version="1.1" style="shape-rendering:geometricPrecision; text-rendering:geometricPrecision; image-rendering:optimizeQuality; fill-rule:evenodd; clip-rule:evenodd"
viewBox="0 0 70074 61936"
 xmlns:xlink="http://www.w3.org/1999/xlink">
 <defs>
  <style type="text/css">
   <![CDATA[
    .fil25 {fill:#7B78AD}
    .fil26 {fill:#A9A6D0}
    .fil13 {fill:#DFC595}
    .fil12 {fill:#E9D8B8}
    .fil0 {fill:#F3EBDB}
    .fil7 {fill:#4A458F;fill-rule:nonzero}
    .fil10 {fill:#5C589A;fill-rule:nonzero}
    .fil9 {fill:#9F9CCB;fill-rule:nonzero}
    .fil11 {fill:#B8C5E2;fill-rule:nonzero}
    .fil5 {fill:#BBB8DA;fill-rule:nonzero}
    .fil3 {fill:#D2AE6D;fill-rule:nonzero}
    .fil17 {fill:#DBBD89;fill-rule:nonzero}
    .fil19 {fill:#DBBE8A;fill-rule:nonzero}
    .fil2 {fill:#DFC595;fill-rule:nonzero}
    .fil23 {fill:#DFC596;fill-rule:nonzero}
    .fil15 {fill:#E2CBA1;fill-rule:nonzero}
    .fil1 {fill:#E3D1B2;fill-rule:nonzero}
    .fil6 {fill:#E4E3F0;fill-rule:nonzero}
    .fil24 {fill:#E7D4B0;fill-rule:nonzero}
    .fil21 {fill:#E9D8B8;fill-rule:nonzero}
    .fil16 {fill:#EBDCBF;fill-rule:nonzero}
    .fil4 {fill:#EFE2C9;fill-rule:nonzero}
    .fil20 {fill:#F2E8D3;fill-rule:nonzero}
    .fil8 {fill:#F4F4FB;fill-rule:nonzero}
    .fil22 {fill:#F9F4EB;fill-rule:nonzero}
    .fil18 {fill:white;fill-rule:nonzero}
    .fil14 {fill:white;fill-rule:nonzero}
   ]]>
  </style>
 </defs>
 <g id="Layer_x0020_1">
  <metadata id="CorelCorpID_0Corel-Layer"/>
  <g id="_2508667826368">
   <path class="fil0" d="M37403 61936l32671 0 0 -44581c-986,-239 -2040,-696 -3187,-1430 -10446,-6678 -17841,82 -19589,5342 -2920,8792 -5722,-957 -16664,2179 -9089,2604 -9506,12974 -7255,19882 1424,4368 4018,8373 7114,11973l6910 6635z"/>
   <path class="fil1" d="M22790 20673c468,-14 843,-399 846,-873l8 0c3,474 377,859 845,873 -470,16 -847,402 -847,882l-6 0c0,-480 -377,-866 -846,-882z"/>
   <polygon class="fil2" points="47336,42715 51835,42715 51835,26912 51289,25524 47790,25524 47336,26912 "/>
   <path class="fil3" d="M50727 32346c0,297 -240,537 -537,537 -297,0 -537,-240 -537,-537l0 -5240 -331 -1322c-72,-287 103,-578 390,-650 288,-72 579,103 651,390l364 1456 0 5366z"/>
   <path class="fil3" d="M50727 34723c0,277 -224,501 -500,501 -276,0 -500,-224 -500,-501l0 -911c0,-276 224,-500 500,-500 276,0 500,224 500,500l0 911z"/>
   <path class="fil4" d="M48140 25410c62,-252 317,-404 569,-342 251,63 404,318 341,570l-332 1330 0 4092c0,260 -211,470 -471,470 -259,0 -470,-210 -470,-470l0 -4203 363 -1447z"/>
   <path class="fil5" d="M42859 25820l187 0 581 0 4705 1 1074 0 1370 1 237 0 1514 0 3873 1 -516 -2322c-264,-1585 -3839,-2739 -3839,-5930 1,-4336 2,-9544 2,-12720 0,-600 -112,-1194 -290,-1747l-2347 -1 -1099 0 -127 0 -455 0 -1 0 -218 -1c-196,576 -324,1176 -324,1749 0,2982 -1,8312 -2,12752 0,3287 -3572,4316 -3835,5896 -12,70 -490,2321 -490,2321z"/>
   <path class="fil6" d="M49406 24935l0 886 1085 1 285 0 237 0 381 0 3960 0 1046 0 -516 -2321c-179,-1077 -1887,-1955 -2964,-3408 -45,-61 -89,-122 -131,-185 -112,-165 -215,-336 -306,-517 -47,-91 -91,-185 -131,-282 -192,-456 -307,-964 -307,-1538 1,-4336 2,-9544 2,-12720 0,-600 -112,-1194 -290,-1748l-2347 0 -4 21832z"/>
   <path class="fil7" d="M48322 3871c-88,0 -159,99 -159,219l0 300c0,121 67,219 150,219 82,0 248,0 369,0l503 0c120,0 316,0 437,0l1378 1c121,0 219,-99 219,-219l0 -300c0,-120 -98,-219 -218,-219l-1361 0c-120,0 -317,0 -437,0l-503 0c-120,0 -290,0 -378,-1z"/>
   <path class="fil6" d="M47764 25821l-3959 -1c204,-964 312,-1476 320,-1524 62,-372 652,-889 1223,-1391 828,-727 1870,-1644 2417,-2972l-1 5888z"/>
   <path class="fil8" d="M51394 25822l3960 1c-205,-965 -313,-1477 -320,-1525 -62,-372 -652,-889 -1222,-1391 -829,-727 -1870,-1645 -2417,-2973l-1 5888z"/>
   <path class="fil5" d="M43133 23463c116,-694 750,-1250 1484,-1894 1101,-966 2348,-2062 2349,-3966l2 -12752c0,-555 112,-1167 335,-1819 39,-114 163,-175 277,-136 114,39 175,163 136,277 -206,607 -311,1171 -311,1678l-2 12752c-1,2102 -1385,3318 -2498,4294 -671,589 -1250,1098 -1341,1638 -12,72 -414,1910 -494,2286l-436 -11c190,-892 487,-2279 499,-2347z"/>
   <path class="fil9" d="M43046 25820l581 0c149,-698 420,-1977 430,-2038 86,-517 658,-1019 1319,-1599 1123,-986 2520,-2212 2520,-4344l2 -12752c0,-500 104,-1057 308,-1657 20,-58 76,-192 105,-327l-127 0 -455 0 -1 0c-26,53 -46,104 -60,144 -224,659 -338,1278 -338,1840l-2 12752c0,1875 -1236,2960 -2327,3917 -743,652 -1385,1216 -1505,1932 -12,68 -263,1253 -450,2132z"/>
   <path class="fil8" d="M48862 25653c0,313 254,566 567,566 313,1 527,-293 527,-606l-26 -5208c0,-313 -209,-566 -521,-566 -314,-1 -568,253 -568,566l21 5248z"/>
   <path class="fil5" d="M49277 25846c0,188 153,341 342,341 188,0 341,-152 341,-341l-21 -5572c0,-188 -153,-341 -341,-341 -189,0 -342,153 -342,341l21 5572z"/>
   <path class="fil4" d="M48685 32715c0,241 -196,437 -437,437 -242,0 -438,-196 -438,-437l0 -473c0,-241 196,-437 438,-437 241,0 437,196 437,437l0 473z"/>
   <path class="fil9" d="M47741 3103c160,-453 375,-920 626,-1356 583,-1014 1111,-1470 1252,-1479 107,0 143,-243 50,-266 -16,-4 -55,-2 -74,-1 -480,31 -1165,761 -1607,1528 -269,468 -552,1057 -709,1574l462 0z"/>
   <path class="fil10" d="M48178 1638c523,-909 1118,-1557 1418,-1587 8,-1 15,-1 22,-1 105,0 256,84 434,236 243,209 535,548 819,976 337,508 663,1144 886,1841l-3446 0 -127 0 -456 0 0 0 -218 0c178,-523 414,-1025 668,-1465z"/>
   <path class="fil7" d="M47728 3103l456 0c159,-447 373,-908 620,-1339 579,-1005 1103,-1462 1248,-1478 -139,-172 -278,-284 -383,-284 -7,1 -65,48 -73,49 -403,313 -850,938 -1171,1495 -278,484 -515,1003 -686,1504 -6,17 -9,35 -11,53z"/>
   <path class="fil11" d="M59870 9052c0,-158 127,-286 285,-286 158,0 286,128 286,286l0 30171 -571 0 -715 0 407 -538 -1072 -1421 0 1959 -571 0 0 -30171c0,-137 96,-251 224,-279 124,-80 290,-51 381,68l1346 1785 0 -1574zm0 29094l0 -3795 -1346 1785c-52,68 -52,157 0,226l1346 1784zm0 -4871l0 -3225 -1217 1612 1217 1613zm0 -4302l0 -3796 -1346 1785c-52,69 -52,158 0,227l1346 1784zm-1380 -882l0 2841 1072 -1421 -1072 -1420zm0 4302l0 2840 1072 -1420 -1072 -1420zm1380 -8292l0 -3225 -1217 1612 1217 1613zm0 -4302l0 -3795 -1346 1784c-52,69 -52,158 0,227l1346 1784zm-1380 -882l0 2841 1072 -1421 -1072 -1420zm0 4302l0 2841 1072 -1421 -1072 -1420zm1380 -8291l0 -3225 -1217 1612 1217 1613zm-1380 1958l1072 -1420 -1072 -1420 0 2840zm0 -4301l1072 -1421 -1072 -1420 0 2841z"/>
   <path class="fil11" d="M40567 21413c0,-158 128,-286 286,-286 157,0 285,128 285,286l0 30171 -571 0 -714 0 406 -538 -1072 -1420 0 1958 -571 0 0 -30171c0,-137 96,-251 224,-279 124,-79 291,-51 381,69l1346 1784 0 -1574zm0 29095l0 -3795 -1346 1784c-52,69 -52,158 0,226l1346 1785zm0 -4872l0 -3225 -1216 1613 1216 1612zm0 -4302l0 -3795 -1346 1784c-52,69 -52,158 0,227l1346 1784zm-1380 -882l0 2841 1072 -1420 -1072 -1421zm0 4302l0 2841 1072 -1421 -1072 -1420zm1380 -8292l0 -3225 -1216 1612 1216 1613zm0 -4302l0 -3795 -1346 1785c-52,68 -52,157 0,226l1346 1784zm-1380 -882l0 2841 1072 -1420 -1072 -1421zm0 4302l0 2841 1072 -1421 -1072 -1420zm1380 -8291l0 -3225 -1216 1612 1216 1613zm-1380 1958l1072 -1420 -1072 -1420 0 2840zm0 -4301l1072 -1421 -1072 -1420 0 2841z"/>
   <path class="fil12" d="M70074 33922c-3234,-5497 -9245,-4576 -12275,-1764 -4737,4398 -3206,7459 -13159,4024 -5998,-2069 -13871,100 -14627,6515 -156,1325 83,2661 71,3993 -48,5699 -5289,5230 -9917,4624 -4262,-558 -8550,-643 -11955,2200 -2351,1963 -3401,4912 -3290,8422l65152 0 0 -28014z"/>
   <path class="fil13" d="M7080 61936l30323 0 30138 0c-8366,-2504 -6696,-13473 2533,-10759l0 -7447c-22,-7 -45,-13 -67,-19 -1824,-505 -3668,-367 -5099,435 -5778,3239 -4664,8912 -13401,3416 -5266,-3311 -13487,-2916 -15942,3144 -507,1252 -634,2600 -1002,3891 -892,3124 -2960,4320 -6475,3671 -3360,-621 -6344,-2469 -9777,-2819 -5912,-602 -9355,1769 -11231,6487z"/>
   <g>
    <path class="fil4" d="M33533 15788l-7042 0c-1103,0 -1998,895 -1998,1998 0,1103 895,1998 1998,1998l5941 0 1345 1180 0 -1205c570,-113 999,-615 999,-1218l0 -1510c0,-686 -556,-1243 -1243,-1243z"/>
    <path class="fil14" d="M32315 17825c0,343 278,621 620,621 343,0 621,-278 621,-621 0,-343 -278,-621 -621,-621 -342,0 -620,278 -620,621z"/>
    <path class="fil14" d="M30170 17825c0,343 279,621 621,621 343,0 621,-278 621,-621 0,-343 -278,-621 -621,-621 -342,0 -621,278 -621,621z"/>
    <path class="fil14" d="M28026 17825c0,343 278,621 621,621 343,0 621,-278 621,-621 0,-343 -278,-621 -621,-621 -343,0 -621,278 -621,621z"/>
   </g>
   <g>
    <path class="fil15" d="M17034 46080l311 1129 -1222 -278c-474,291 -1029,461 -1625,461 -1718,0 -3111,-1392 -3111,-3111 0,-1718 1393,-3110 3111,-3110 1718,0 3111,1392 3111,3110 0,671 -214,1291 -575,1799z"/>
    <path class="fil16" d="M12909 45648l3014 0c146,0 265,-118 265,-265l0 -1508c0,-146 -119,-265 -265,-265l-3014 0c-147,0 -265,119 -265,265l0 1508c0,147 118,265 265,265z"/>
    <path class="fil17" d="M16098 45579c-46,41 -105,68 -172,69 -3,0 -4,0 -7,0l-3010 0c-70,0 -132,-28 -180,-72 -32,-37 -58,-83 -73,-136l1584 -1284c108,-89 239,-79 341,24l1544 1367c-9,12 -18,22 -27,32z"/>
    <path class="fil18" d="M13217 42713l2397 0c185,0 336,146 344,330 0,462 0,549 0,566l0 2 0 3 -1400 921c-88,58 -200,63 -293,14l0 0 -1391 -737 0 -755c0,-190 153,-344 343,-344z"/>
    <path class="fil19" d="M13134 43429l2583 0c11,0 21,-9 21,-21 0,-12 -10,-21 -21,-21l-2583 0c-12,0 -22,9 -22,21 0,12 10,21 22,21z"/>
    <path class="fil19" d="M13134 43791l2556 0 46 -31c-3,-7 -11,-12 -19,-12l-2583 0c-12,0 -22,10 -22,21 0,12 10,22 22,22z"/>
    <polygon class="fil19" points="13516,44152 15141,44152 15205,44109 13435,44109 "/>
    <path class="fil20" d="M14236 44372c108,-76 239,-67 342,21l1547 1168c-46,54 -96,87 -206,87l-3044 0c-109,0 -185,-80 -220,-178l1581 -1098z"/>
   </g>
   <g>
    <path class="fil21" d="M44298 50287l3991 0c870,0 1575,706 1575,1576l0 3991c0,742 -515,1361 -1207,1528l0 1423 -1376 -1375 -2983 0c-870,0 -1575,-706 -1575,-1576l0 -3991c0,-870 705,-1576 1575,-1576z"/>
    <path class="fil22" d="M48222 53803c0,1065 -864,1928 -1929,1928 -1064,0 -1928,-863 -1928,-1928 0,-1066 864,-1929 1928,-1929 1065,0 1929,863 1929,1929z"/>
    <path class="fil23" d="M46540 53484c36,0 65,-29 65,-65 0,-97 78,-175 175,-175 97,0 175,78 175,175 0,36 29,65 65,65 36,0 65,-29 65,-65 0,-168 -137,-304 -305,-304 -168,0 -304,136 -304,304 0,36 29,65 64,65z"/>
    <path class="fil23" d="M45592 53484c35,0 64,-29 64,-65 0,-97 79,-175 175,-175 97,0 176,78 176,175 0,36 29,65 64,65 36,0 65,-29 65,-65 0,-168 -136,-304 -305,-304 -167,0 -304,136 -304,304 0,36 29,65 65,65z"/>
    <path class="fil23" d="M46293 54978c-566,0 -1025,-459 -1025,-1025l2051 0c0,566 -459,1025 -1026,1025z"/>
   </g>
   <g>
    <path class="fil24" d="M27471 34348l-395 1060 1078 -422c355,218 771,346 1218,346 1288,0 2332,-1044 2332,-2332 0,-1288 -1044,-2332 -2332,-2332 -1288,0 -2332,1044 -2332,2332 0,502 161,967 431,1348z"/>
    <path class="fil18" d="M28989 34237c-107,0 -214,-41 -296,-122l-661 -661c-163,-163 -163,-428 0,-591 164,-163 428,-163 591,0l366 366 1133 -1133c163,-163 427,-163 590,0 163,163 163,428 0,591l-1428 1428c-82,81 -189,122 -295,122z"/>
   </g>
   <g>
    <path class="fil21" d="M63577 9820c103,-342 460,-544 807,-450 355,95 565,459 470,814 -93,347 -446,556 -794,474 -357,-107 -569,-475 -483,-838zm2166 942l170 -635 -368 -99c2,-129 -15,-256 -50,-378l330 -190 -329 -569 -329 190c-88,-90 -190,-169 -303,-232l99 -368 -635 -170 -99 368c-129,-2 -256,15 -378,50l-190 -330 -570 329 191 329c-90,88 -169,190 -232,303l-368 -99 -170 635 368 99c-2,129 15,256 50,378l-330 190 328 569 330 -190c88,90 190,169 303,232l-99 368 635 170 99 -368c129,2 256,-15 378,-50l190 330 569 -328 -190 -330c90,-88 169,-190 232,-303l368 99z"/>
    <path class="fil21" d="M67191 11898c46,-196 -71,-395 -267,-447 -199,-53 -405,65 -458,265 -52,195 61,396 254,454 204,49 411,-71 471,-272zm-1321 -151l96 -357 207 56c35,-64 80,-121 131,-171l-108 -185 321 -185 107 185c68,-19 140,-29 213,-28l55 -207 358 96 -56 207c64,36 121,80 171,131l185 -108 185 321 -186 107c20,68 30,140 28,213l208 55 -96 358 -207 -56c-36,64 -80,121 -131,171l107 185 -320 185 -107 -185c-69,19 -140,29 -213,28l-56 207 -357 -96 55 -207c-63,-36 -120,-80 -170,-131l-186 107 -185 -320 186 -107c-19,-69 -29,-140 -28,-213l-207 -56z"/>
   </g>
   <path class="fil4" d="M0 51938c770,-24 1386,-656 1392,-1437l13 0c5,781 619,1413 1389,1437 -772,26 -1392,662 -1392,1450l-10 0c0,-788 -620,-1424 -1392,-1450z"/>
   <g>
    <path class="fil25" d="M50327 3983c-120,0 -222,99 -226,219l-2 77c-4,120 91,218 211,218l293 1c120,0 221,-99 225,-219l3 -77c4,-120 -91,-219 -211,-219l-293 0z"/>
    <path class="fil26" d="M49280 4279l3 -77c4,-120 -91,-219 -211,-219l-293 0c-120,0 -222,99 -226,219l-2 77c-4,120 91,218 211,218l293 1c120,0 221,-99 225,-219z"/>
   </g>
  </g>
 </g>
</svg>
