<?xml version="1.0" encoding="UTF-8"?>
<!DOCTYPE svg PUBLIC "-//W3C//DTD SVG 1.1//EN" "http://www.w3.org/Graphics/SVG/1.1/DTD/svg11.dtd">
<!-- Creator: CorelDRAW X7 -->
<svg xmlns="http://www.w3.org/2000/svg" xml:space="preserve" width="9.37976in" height="5.83791in" version="1.1" style="shape-rendering:geometricPrecision; text-rendering:geometricPrecision; image-rendering:optimizeQuality; fill-rule:evenodd; clip-rule:evenodd"
viewBox="0 0 93798 58379"
 xmlns:xlink="http://www.w3.org/1999/xlink">
 <defs>
  <style type="text/css">
   <![CDATA[
    .fil14 {fill:#D2AE6D}
    .fil15 {fill:#D7B67C}
    .fil12 {fill:#E6D2AE}
    .fil0 {fill:#EDDFC4}
    .fil1 {fill:#F6EFE2}
    .fil8 {fill:#5E6D8F;fill-rule:nonzero}
    .fil3 {fill:#657AA9;fill-rule:nonzero}
    .fil2 {fill:#6C698B;fill-rule:nonzero}
    .fil10 {fill:#A38755;fill-rule:nonzero}
    .fil5 {fill:#BB9B61;fill-rule:nonzero}
    .fil4 {fill:#CFD8EC;fill-rule:nonzero}
    .fil7 {fill:#D2AE6D;fill-rule:nonzero}
    .fil9 {fill:#DCC08D;fill-rule:nonzero}
    .fil6 {fill:#E1E7F4;fill-rule:nonzero}
    .fil16 {fill:#E3D1B2;fill-rule:nonzero}
    .fil17 {fill:#EEE3CE;fill-rule:nonzero}
    .fil13 {fill:#F6EFE2;fill-rule:nonzero}
    .fil11 {fill:white;fill-rule:nonzero}
   ]]>
  </style>
 </defs>
 <g id="Layer_x0020_1">
  <metadata id="CorelCorpID_0Corel-Layer"/>
  <g id="_2508652877936">
   <path class="fil0" d="M78193 50289c-3081,126 -5576,366 -5572,535 4,169 2505,204 5587,78 3081,-127 5576,-366 5572,-536 -4,-169 -2505,-203 -5587,-77z"/>
   <g>
    <path class="fil0" d="M23659 34295c-9410,-2364 -12758,-5765 -14265,-3995 -1306,-1090 -2931,-2092 -4610,-2992 -1835,-984 -3421,-1936 -4784,-2856l0 -11338c456,105 940,222 1454,352 982,246 2073,537 3288,874 6155,1710 11791,1726 14705,40 238,-137 454,-284 651,-439 4025,-3197 -2043,-8895 -4163,-13941l34569 0c610,7867 1679,20234 2736,21756 2941,4236 264,10045 -2511,12248 -282,224 -594,435 -935,632 -4190,2424 -12470,3781 -21320,1323 -1745,-485 -3403,-1309 -4815,-1664z"/>
    <path class="fil1" d="M19679 38715c-5009,-1145 -7017,-630 -8629,937 763,-2381 2508,-4456 48,-7627 -431,-556 -990,-1129 -1704,-1725 1507,-1770 3964,-2186 13374,179 1412,355 2981,772 4727,1257 8849,2459 16951,2482 21141,58 341,-197 653,-408 935,-632 6258,-4969 -4454,-14144 -6605,-21791 -1268,-4510 48,-7414 3838,-9371l31768 0c-7531,3344 -12908,8209 -2580,15175 5066,3417 11957,5075 10439,10064 -309,1016 -1163,1906 -2647,2675 -540,103 -1069,480 -1597,611 -2181,542 -4255,960 -6132,811 -4365,-348 -8139,-2541 -13012,-2868 -4792,-322 -6538,1248 -3967,6402 2940,5898 2129,10085 -2748,11793 -10482,3670 -24858,-3253 -36649,-5948z"/>
    <path class="fil0" d="M17519 35767c2736,255 6969,1418 14172,3946 2948,1035 5873,1806 8647,2301 5457,975 10330,883 13646,-359 4696,-1759 5413,-5417 3267,-9720 -1900,-3810 -1908,-6169 -27,-7212 602,-333 1390,-522 2318,-598 6535,-537 18549,7681 25691,2838 -5246,5112 -20499,1395 -23432,4143 -2030,1902 1334,4789 4022,7948 5977,7026 1727,11756 -9369,10593 -4540,-476 -9436,-1575 -13223,-1294 -5118,380 -3605,4221 -4780,6878 -2686,6076 -18514,2825 -24808,-5211 -3658,-4670 -5094,-15089 3876,-14253z"/>
   </g>
   <g>
    <path class="fil2" d="M81431 45242c-296,-637 -609,-1065 -918,-1636 -4,-121 -15,-253 -37,-400 -126,-834 -725,-5479 -791,-5923 -1,-2 -1,-4 -1,-6 19,-222 -19,-476 -44,-754l-4119 -12c-199,803 -769,5405 -941,7387 -9,43 -16,89 -19,141 -50,1015 -717,6322 -534,6361 473,101 1346,-2438 1703,-4148 142,-678 144,-1266 241,-1934 30,-96 56,-203 80,-319l1426 -5091c222,921 1301,3884 1724,5215 6,116 48,241 137,375 583,877 3244,5749 3375,5611 341,-359 -668,-3547 -1282,-4867z"/>
    <path class="fil3" d="M81945 36990l958 -301 79 251 -958 301 -79 -251zm3869 2177l-811 -2581c-44,-141 -195,-219 -335,-175l-1380 433 -106 -337c-18,-59 -58,-107 -113,-136 -54,-28 -117,-34 -176,-15l-1131 355c-59,19 -107,59 -135,113 -29,55 -34,118 -16,176l106 337 -1379 434c-140,44 -219,195 -175,335l811 2582c44,140 195,219 336,175l4329 -1360c140,-44 219,-195 175,-336z"/>
    <path class="fil4" d="M73806 33135c436,200 1031,-511 1429,-915 727,-739 1177,-1222 1446,-1483 252,-243 1285,-1080 1052,-1188 -592,-272 -1010,-270 -1449,86 -920,748 -1523,1462 -1906,1897 -475,537 -1192,1317 -572,1603z"/>
    <path class="fil5" d="M76872 28296c-131,-344 18,-738 375,-877 389,-151 837,38 982,406 72,183 576,1514 529,2687 -18,456 -522,746 -982,576 -290,-108 -483,-371 -471,-658 26,-656 -220,-1580 -433,-2134z"/>
    <path class="fil6" d="M82530 34182c-15,-475 -117,-1044 -271,-1446 -80,-351 -467,-802 -759,-1153 -333,-400 -840,-1032 -1591,-1716 -238,-338 -659,-555 -1098,-555l-1714 0c-1182,0 -1354,1255 -1355,2121 -2,688 13,1376 15,2063 3,937 -161,1491 -279,2416 -34,271 -82,624 48,624l4119 12c177,-373 -183,-2833 149,-4788 18,-102 46,-214 78,-329 209,229 456,500 754,820 154,166 338,381 532,568 11,111 45,235 101,370 231,555 574,1790 660,2465 19,146 -16,273 131,307 243,55 418,-132 418,-132 0,0 74,-1254 62,-1647z"/>
    <path class="fil7" d="M82627 36650c-8,-289 -73,-642 -78,-829 -6,-227 -364,-117 -543,77 -160,173 -174,440 -175,610 0,143 22,280 285,408 248,122 521,129 511,-266z"/>
    <path class="fil4" d="M73942 33700c531,388 1578,677 1578,677 0,0 142,5 303,-82 108,-59 145,-142 104,-221 -174,-337 -774,-454 -1177,-993 -198,-265 -396,-696 -994,-558 -338,78 -229,874 186,1177z"/>
    <path class="fil7" d="M75572 33958c275,-92 629,-153 806,-212 215,-73 236,301 115,536 -108,210 -354,315 -513,374 -134,50 -271,76 -482,-127 -199,-191 -300,-445 74,-571z"/>
    <path class="fil2" d="M74206 50117c59,49 82,130 54,200 -66,168 -110,400 -172,482 -76,103 -913,-486 -1287,-868 -202,-206 623,193 830,210 131,12 285,-35 381,-70 60,-23 126,-11 175,30l19 16z"/>
    <path class="fil2" d="M82617 49700c71,0 132,50 149,119 47,181 146,403 151,512 6,135 -853,222 -1300,165 -241,-30 506,-264 650,-389 92,-80 167,-225 210,-318 25,-55 79,-89 140,-89z"/>
    <path class="fil2" d="M80043 33681c-38,-222 -84,-444 -151,-659 -130,-433 -324,-844 -562,-1225 -238,-380 -512,-733 -811,-1060 -76,-79 -150,-166 -238,-239 -83,-73 -164,-141 -241,-213 -76,-71 -150,-145 -209,-224 -34,-44 -62,-92 -79,-139 82,-44 131,-133 114,-247 -24,-163 -62,-282 -235,-278 -90,2 -210,165 -236,262 -25,92 70,265 206,288 15,78 47,149 81,210 58,103 128,192 199,278 72,86 147,167 218,247 68,75 128,159 195,243 259,334 465,706 638,1085 171,382 305,776 425,1171 52,200 115,397 153,601 24,101 59,199 113,297 58,98 122,196 241,295l2 0c95,-117 144,-235 169,-350 24,-117 28,-232 8,-343z"/>
    <path class="fil4" d="M78595 28979c0,0 -481,253 -988,333 0,0 166,344 161,550 0,0 1125,-291 1086,-506 -42,-234 -259,-377 -259,-377z"/>
    <path class="fil4" d="M76925 29312c-76,202 635,550 635,550 -51,-211 47,-550 47,-550 -293,-80 -511,-181 -511,-181 0,0 -113,29 -171,181z"/>
    <path class="fil7" d="M76096 27346c43,1001 547,1835 1287,1860 740,26 1305,-765 1263,-1765 -43,-1000 -677,-1831 -1417,-1856 -740,-26 -1175,761 -1133,1761z"/>
    <path class="fil8" d="M78101 26577c-912,500 -2728,849 -2395,0 333,-848 2254,-1622 2594,-795 341,827 -199,795 -199,795z"/>
    <path class="fil8" d="M77929 26213c-280,313 109,1624 717,1228 607,-396 227,-2283 -717,-1228z"/>
    <path class="fil7" d="M78388 27277c-66,299 3,581 155,630 152,49 328,-154 394,-453 66,-299 -3,-581 -155,-630 -151,-48 -328,155 -394,453z"/>
   </g>
   <g>
    <path class="fil9" d="M63432 30864c1316,-10714 -9403,-18558 -19443,-16077 -5904,1458 -10526,6197 -11276,12304 -444,3617 546,7097 2544,9925 244,345 223,811 -54,1130l-2247 2593c-379,438 -116,1121 459,1192l630 77 12243 1504c8482,1042 16158,-4621 17144,-12648z"/>
    <path class="fil7" d="M22637 47022c-34,-69 5,-152 80,-170l374 -91c76,-18 115,-104 78,-174l-216 -406 -2163 379 1277 2741c23,49 76,77 130,68l1306 -230c79,-14 123,-100 87,-172l-953 -1945z"/>
    <path class="fil9" d="M28581 41769c-161,-919 293,-1767 1015,-1894 721,-127 1437,516 1599,1435 161,919 -293,1767 -1015,1894 -722,127 -1437,-516 -1599,-1435z"/>
    <path class="fil5" d="M22279 44914c-28,-52 -88,-76 -144,-59l-1733 551c-69,22 -104,100 -73,166l498 1053 2163 -380 -711 -1331z"/>
    <path class="fil10" d="M17778 43477c-200,-1141 268,-2177 1046,-2313 778,-137 1571,678 1772,1818 200,1141 -269,2177 -1047,2314 -778,136 -1571,-678 -1771,-1819z"/>
    <path class="fil5" d="M28147 41845c-162,-919 293,-1767 1014,-1894 722,-126 1438,516 1599,1435 162,920 -293,1768 -1014,1894 -722,127 -1438,-516 -1599,-1435z"/>
    <path class="fil11" d="M22879 39870l655 3733 6417 -1126 -1219 -6943c0,0 -2373,3503 -5853,4336z"/>
    <path class="fil9" d="M22650 39491l-3361 590c-573,101 -955,646 -855,1219l545 3103 4555 -800 -655 -3733 -44 -249c-15,-87 -98,-145 -185,-130z"/>
    <path class="fil12" d="M46377 16153c4,237 199,426 436,422 237,-4 426,-199 422,-435 -4,-237 -199,-426 -436,-422 -236,3 -425,198 -422,435zm-6474 2778c2171,-1766 5454,-2222 5497,-2228 214,-28 364,-224 336,-437 -28,-214 -225,-364 -438,-336 -143,19 -3539,487 -5887,2396 -167,136 -192,382 -56,548 81,100 201,149 320,144 81,-4 161,-32 228,-87z"/>
    <path class="fil7" d="M22759 42791l-3942 692 360 2051c101,573 646,955 1219,855l3362 -590c86,-16 144,-98 129,-185l-21 -117 -494 -2814 -613 108z"/>
    <path class="fil13" d="M23866 45497c3557,-403 6980,2082 6980,2082l-1057 -6022 -6416 1126 493 2814z"/>
    <path class="fil10" d="M31003 48342l0 0c-242,42 -473,-119 -515,-361l-2230 -12702c-42,-242 120,-473 361,-515 242,-43 473,119 515,361l2230 12702c42,242 -119,473 -361,515z"/>
    <g>
     <circle class="fil0" cx="48066" cy="29003" r="6085"/>
     <path class="fil14" d="M49215 30725l0 1147 -4592 0 0 -1147 4592 0zm-4592 -3445l0 -1149c2296,0 4592,0 6888,0l-1149 1149c-1912,0 -3826,0 -5739,0zm6888 1147c0,1149 0,2298 0,3445l-1149 0 0 -2296 0 0 -5739 0 0 -1149c2296,0 4592,0 6888,0z"/>
    </g>
    <path class="fil15" d="M60312 26031c404,8078 -6188,14973 -14724,15400l-11543 577 12243 1504c8482,1042 16158,-4621 17144,-12648 773,-6290 -2602,-11591 -7553,-14394 2582,2466 4245,5811 4433,9561z"/>
   </g>
   <path class="fil16" d="M7183 35660c-989,30 -1781,843 -1788,1846l-17 0c-7,-1003 -796,-1816 -1785,-1846 992,-34 1788,-850 1788,-1863l14 0c0,1013 796,1829 1788,1863z"/>
   <path class="fil17" d="M93798 28729c-1448,-48 -2609,-1238 -2618,-2711l-23 0c-10,1473 -1171,2663 -2621,2711 1454,48 2621,1248 2621,2731l19 0c0,-1483 1168,-2683 2622,-2731z"/>
  </g>
 </g>
</svg>
