<?xml version="1.0" encoding="UTF-8"?>
<!DOCTYPE svg PUBLIC "-//W3C//DTD SVG 1.1//EN" "http://www.w3.org/Graphics/SVG/1.1/DTD/svg11.dtd">
<!-- Creator: CorelDRAW X7 -->
<svg xmlns="http://www.w3.org/2000/svg" xml:space="preserve" width="2.70106in" height="0.826732in" version="1.1" style="shape-rendering:geometricPrecision; text-rendering:geometricPrecision; image-rendering:optimizeQuality; fill-rule:evenodd; clip-rule:evenodd"
viewBox="0 0 27011 8267"
 xmlns:xlink="http://www.w3.org/1999/xlink">
 <defs>
  <style type="text/css">
   <![CDATA[
    .fil0 {fill:#DFC595}
    .fil1 {fill:white;fill-rule:nonzero}
   ]]>
  </style>
 </defs>
 <g id="Layer_x0020_1">
  <metadata id="CorelCorpID_0Corel-Layer"/>
  <g id="_2508736006672">
   <path class="fil0" d="M4134 0l18743 0c2274,0 4134,1861 4134,4134 0,2273 -1861,4133 -4134,4133l-18743 0c-2274,0 -4134,-1860 -4134,-4133 0,-2274 1860,-4134 4134,-4134z"/>
   <path class="fil1" d="M10898 4886c0,220 -26,404 -79,551 -53,147 -129,264 -229,351 -100,88 -221,150 -364,188 -143,37 -304,56 -481,56 -756,0 -1134,-359 -1134,-1078l0 -656 538 0 0 635c0,194 47,342 143,445 96,102 252,154 469,154 203,0 354,-44 452,-130 99,-86 148,-233 148,-441l0 -2961 537 0 0 2886zm1483 -162c0,94 -13,160 -40,196 -26,36 -67,54 -123,54l-175 0c-95,0 -182,-10 -260,-31 -79,-22 -147,-57 -204,-104 -57,-48 -101,-113 -133,-194 -32,-80 -48,-180 -48,-300l0 -2345 542 0 0 2270c0,98 17,159 51,185 35,26 84,39 148,39l79 0c22,0 43,2 62,7 20,5 38,15 53,29 16,15 28,38 36,68 8,31 12,72 12,126zm-167 250c-21,0 -42,-2 -62,-6 -20,-4 -37,-14 -53,-29 -15,-16 -27,-39 -36,-70 -8,-30 -11,-72 -11,-125 0,-95 13,-160 39,-196 27,-37 68,-54 123,-54l617 0c21,0 42,2 61,7 20,5 38,15 53,29 16,15 28,38 36,68 8,31 12,72 12,126 0,94 -13,160 -39,196 -27,36 -68,54 -123,54l-617 0zm787 -480c62,0 112,-1 152,-4 40,-3 73,-11 98,-24 25,-14 43,-34 55,-61 11,-26 17,-63 17,-111l0 -795 533 0 0 708c0,89 24,159 73,211 47,50 123,76 226,76 81,0 149,-12 207,-37 58,-24 86,-78 86,-163l0 -795 541 0 0 708c0,191 83,287 246,287l259 0 0 -1178 541 0 0 1658 -637 0c-148,0 -259,-17 -335,-52 -75,-35 -138,-89 -190,-164 -42,53 -87,94 -134,122 -47,29 -97,50 -147,65 -50,14 -99,22 -147,25 -48,3 -94,4 -139,4 -141,0 -260,-23 -357,-70 -95,-45 -164,-94 -205,-146 -74,98 -172,158 -292,181 -120,23 -273,35 -459,35l-162 0c-22,0 -43,-2 -62,-6 -20,-4 -38,-14 -54,-29 -15,-16 -27,-39 -35,-70 -8,-30 -12,-72 -12,-125 0,-95 13,-160 40,-196 26,-37 67,-54 123,-54l170 0zm3819 -995l542 0 0 1241c0,199 -15,369 -46,508 -31,140 -84,253 -160,339 -76,86 -181,149 -316,190 -135,39 -307,61 -516,64l0 -509c111,-3 200,-16 268,-40 67,-24 117,-58 150,-106 34,-46 55,-107 64,-181 10,-73 14,-162 14,-265l0 -1241zm1579 -1499l0 2974 -537 0 0 -2974 537 0z"/>
  </g>
 </g>
</svg>
