<?xml version="1.0" encoding="UTF-8"?>
<!DOCTYPE svg PUBLIC "-//W3C//DTD SVG 1.1//EN" "http://www.w3.org/Graphics/SVG/1.1/DTD/svg11.dtd">
<!-- Creator: CorelDRAW X7 -->
<svg xmlns="http://www.w3.org/2000/svg" xml:space="preserve" width="11.0055in" height="0.924016in" version="1.1" style="shape-rendering:geometricPrecision; text-rendering:geometricPrecision; image-rendering:optimizeQuality; fill-rule:evenodd; clip-rule:evenodd"
viewBox="0 0 110055 9240"
 xmlns:xlink="http://www.w3.org/1999/xlink">
 <defs>
  <style type="text/css">
   <![CDATA[
    .fil1 {fill:white}
    .fil0 {fill:#DFC495;fill-rule:nonzero}
    .fil2 {fill:#E6D2AE;fill-rule:nonzero}
   ]]>
  </style>
 </defs>
 <g id="Layer_x0020_1">
  <metadata id="CorelCorpID_0Corel-Layer"/>
  <g id="_2508667794976">
   <path class="fil0" d="M108092 9240l-106129 0c-540,0 -1031,-221 -1387,-576 -355,-356 -576,-847 -576,-1387l0 -5314c0,-540 221,-1031 576,-1387 356,-355 847,-576 1387,-576l106129 0c540,0 1031,221 1387,576 355,356 576,847 576,1387l0 5314c0,540 -221,1031 -576,1387 -356,355 -847,576 -1387,576zm-106129 -535l106129 0c392,0 750,-161 1008,-419 259,-259 420,-616 420,-1009l0 -5314c0,-393 -161,-750 -419,-1008 -259,-259 -616,-420 -1009,-420l-106129 0c-392,0 -749,161 -1008,420 -259,258 -420,615 -420,1008l0 5314c0,393 161,750 420,1009 259,258 616,419 1008,419z"/>
   <path class="fil1" d="M109520 7277l0 -5314c0,-393 -161,-750 -419,-1008 -259,-259 -616,-420 -1009,-420l-106129 0c-392,0 -749,161 -1008,420 -259,258 -420,615 -420,1008l0 5314c0,393 161,750 420,1009 259,258 616,419 1008,419l106129 0c392,0 750,-161 1008,-419 259,-259 420,-616 420,-1009z"/>
   <path class="fil2" d="M77227 3077c-363,458 -545,1022 -545,1693 0,553 185,1120 554,1702l-271 175c-413,-572 -620,-1198 -620,-1877 0,-689 201,-1316 604,-1880l278 187zm275 3001c0,108 17,207 52,298 34,90 93,168 175,232 82,66 190,116 325,152 135,37 302,54 502,54 143,0 282,-10 414,-31 132,-21 249,-51 350,-90 102,-39 183,-86 243,-143 59,-57 89,-121 89,-194 0,-64 -21,-117 -63,-160 -42,-44 -121,-95 -238,-153 -83,-42 -160,-85 -231,-129 -71,-44 -132,-93 -183,-147 -51,-55 -92,-116 -123,-184 -31,-68 -46,-148 -46,-240 0,-105 18,-212 56,-320 38,-108 95,-206 171,-293 76,-88 171,-158 285,-213 114,-54 249,-81 405,-81 92,0 174,11 244,31 71,21 112,34 122,40l0 350c-56,-16 -116,-30 -181,-42 -65,-11 -130,-17 -193,-17 -93,0 -174,15 -244,44 -71,29 -129,67 -175,115 -47,47 -81,100 -104,158 -23,59 -35,117 -35,175 0,56 10,104 30,144 21,40 49,76 85,110 36,33 78,64 125,91 48,28 100,57 155,89 95,52 174,101 238,145 64,44 114,87 152,130 37,41 64,84 81,127 17,42 26,89 26,139 0,116 -27,229 -80,338 -53,108 -138,204 -254,287 -117,84 -268,151 -452,202 -185,51 -407,76 -669,76 -262,0 -481,-25 -659,-76 -178,-51 -321,-122 -429,-213 -107,-91 -185,-198 -232,-321 -48,-124 -72,-259 -72,-405l0 -622 338 0 0 547zm3316 -1284l338 0 0 1162c0,206 -12,379 -36,520 -24,140 -68,253 -135,339 -67,86 -159,149 -277,187 -118,39 -270,59 -458,59l0 -346c136,0 242,-15 319,-44 76,-29 134,-77 172,-142 38,-64 60,-148 67,-250 7,-102 10,-224 10,-368l0 -1117zm1791 1216c0,70 -14,117 -40,142 -26,25 -69,38 -127,38l-108 0c-90,0 -171,-9 -244,-28 -74,-18 -136,-49 -188,-93 -51,-45 -91,-104 -121,-177 -29,-75 -43,-167 -43,-278l0 -2399 341 0 0 2307c0,117 19,200 55,248 37,50 118,74 243,74l65 0c111,0 167,55 167,166zm-167 180c-111,0 -167,-56 -167,-167 0,-69 13,-117 40,-142 26,-25 69,-37 127,-37l278 0c67,0 124,-3 171,-9 48,-5 88,-18 120,-39 32,-21 55,-51 70,-92 16,-39 24,-94 24,-164l0 -954 342 0 0 800c0,69 5,132 14,189 9,57 28,105 56,144 28,38 65,69 112,91 47,23 107,34 180,34 111,0 167,55 167,166 0,70 -13,117 -40,142 -26,25 -68,38 -127,38 -108,0 -196,-26 -262,-77 -67,-53 -111,-116 -135,-194 -50,114 -128,187 -235,221 -106,33 -237,50 -393,50l-342 0zm537 620c0,-61 21,-113 65,-156 43,-43 96,-64 156,-64 61,0 113,21 156,64 43,43 64,95 64,156 0,61 -21,113 -64,157 -43,43 -95,64 -156,64 -60,0 -113,-21 -156,-64 -44,-44 -65,-96 -65,-157zm2498 -966c0,-178 -23,-328 -70,-449 -46,-123 -110,-222 -191,-299 -80,-76 -176,-132 -284,-167 -108,-34 -222,-52 -342,-52 -79,0 -165,8 -255,23 -90,15 -165,31 -222,49l0 -334c55,-16 129,-35 220,-56 91,-21 191,-32 301,-32 211,0 393,36 545,108 151,72 276,170 374,294 97,125 169,269 215,434 45,164 68,338 68,521l0 306 -2029 0c-111,0 -167,-56 -167,-167 0,-69 14,-117 40,-142 26,-25 69,-37 127,-37l1670 0zm-800 970c0,-61 22,-113 66,-156 43,-43 95,-64 156,-64 61,0 113,21 156,64 42,43 64,95 64,156 0,61 -22,113 -64,157 -43,43 -95,65 -156,65 -61,0 -113,-22 -156,-65 -44,-44 -66,-96 -66,-157zm1999 -3599l0 2975 -342 0 0 -2975 342 0zm1587 2975c-93,0 -169,-21 -230,-62 -61,-42 -106,-90 -136,-146 0,199 -12,368 -36,506 -24,137 -68,249 -135,334 -67,84 -158,145 -275,182 -117,38 -268,57 -456,57l0 -346c136,0 242,-15 319,-44 77,-29 133,-77 172,-142 38,-64 60,-148 67,-250 7,-102 10,-224 10,-368l0 -1117 338 0 0 592c0,141 26,253 77,335 51,82 147,123 285,123 111,0 166,55 166,166 0,70 -13,117 -39,142 -27,25 -69,38 -127,38zm-2 0c-111,0 -167,-56 -167,-167 0,-69 13,-117 40,-142 26,-25 68,-37 127,-37l278 0c67,0 124,-3 171,-9 48,-5 87,-18 119,-39 32,-21 56,-51 71,-92 16,-39 24,-94 24,-164l0 -954 341 0 0 800c0,69 5,132 15,189 9,57 28,105 56,144 27,38 65,69 111,91 48,23 107,34 181,34 111,0 167,55 167,166 0,70 -14,117 -40,142 -26,25 -69,38 -127,38 -108,0 -196,-26 -263,-77 -66,-53 -111,-116 -134,-194 -50,114 -129,187 -235,221 -106,33 -237,50 -394,50l-341 0zm329 628c0,-61 21,-112 65,-155 43,-43 95,-64 156,-64 61,0 114,21 156,64 43,43 64,94 64,155 0,61 -21,113 -64,157 -42,43 -95,65 -156,65 -61,0 -113,-22 -156,-65 -44,-44 -65,-96 -65,-157zm541 0c0,-61 22,-112 65,-155 44,-43 96,-64 157,-64 60,0 112,21 156,64 42,43 63,94 63,155 0,61 -21,113 -63,157 -44,43 -96,65 -156,65 -61,0 -113,-22 -157,-65 -43,-44 -65,-96 -65,-157zm495 -628c-111,0 -167,-56 -167,-167 0,-69 13,-117 40,-142 26,-25 69,-37 127,-37l512 0c-50,-53 -91,-121 -125,-204 -33,-84 -50,-179 -50,-284 0,-144 27,-269 82,-375 55,-106 125,-193 213,-262 87,-70 184,-121 291,-154 106,-33 214,-50 322,-50 98,0 183,6 256,16 72,11 123,23 153,37l0 372c-53,-16 -110,-30 -171,-43 -61,-13 -137,-20 -225,-20 -175,0 -314,43 -417,129 -102,86 -154,204 -154,354 0,141 44,257 132,348 87,90 223,136 406,136l608 0 0 346 -1833 0zm958 -2305c0,-61 22,-113 65,-156 44,-43 96,-64 157,-64 61,0 112,21 155,64 43,43 64,95 64,156 0,61 -21,113 -64,156 -43,44 -94,65 -155,65 -61,0 -113,-21 -157,-65 -43,-43 -65,-95 -65,-156zm1176 2705c369,-466 553,-1032 553,-1696 0,-609 -183,-1204 -549,-1783l271 -171c413,573 620,1224 620,1954 0,691 -201,1318 -604,1880l-291 -184zm2924 -706c-64,-47 -117,-117 -159,-210 -42,-93 -63,-199 -63,-318 0,-144 27,-269 81,-375 54,-106 125,-193 213,-262 87,-70 185,-121 291,-154 108,-33 216,-50 324,-50 98,0 183,6 254,16 72,11 123,23 153,37l0 372c-53,-16 -110,-30 -171,-43 -61,-13 -135,-20 -223,-20 -175,0 -314,43 -418,129 -103,86 -154,204 -154,354 0,141 44,257 131,348 87,90 223,136 406,136l659 0 0 346 -938 0c-89,0 -180,9 -272,27 -91,18 -175,51 -251,98 -76,47 -138,111 -187,193 -49,82 -73,186 -73,310 0,114 22,214 65,300 43,86 102,158 177,215 75,57 162,100 260,128 99,27 206,41 320,41l852 0 0 354 -840 0c-178,0 -340,-21 -485,-64 -146,-43 -271,-106 -375,-189 -105,-83 -186,-188 -245,-313 -58,-125 -87,-269 -87,-433 0,-135 18,-258 56,-366 37,-109 90,-203 156,-284 68,-81 147,-149 238,-203 92,-55 193,-95 305,-120zm3134 306c-10,169 -46,309 -105,420 -60,112 -141,201 -245,267 -103,67 -225,114 -368,142 -142,28 -301,42 -476,42l-175 0 0 -346 128 0c128,0 247,-7 357,-19 109,-12 204,-37 283,-75 80,-38 142,-91 187,-158 45,-69 70,-159 73,-273l-471 0c-113,0 -218,-13 -313,-38 -96,-25 -180,-66 -251,-123 -71,-57 -127,-131 -167,-223 -40,-91 -60,-205 -60,-341 0,-114 19,-225 56,-333 38,-109 92,-205 163,-288 71,-84 157,-151 259,-203 100,-51 216,-77 346,-77 144,0 266,26 366,77 101,52 182,125 244,219 63,94 108,208 136,342 28,133 42,282 42,447l0 195 293 0c111,0 166,55 166,166 0,70 -13,117 -39,142 -27,25 -69,38 -127,38l-302 0zm-1269 -759c0,141 41,245 122,312 81,67 201,101 360,101l446 0 0 -275c0,-209 -35,-374 -104,-494 -69,-121 -189,-181 -358,-181 -80,0 -150,16 -208,48 -58,31 -106,73 -144,125 -38,51 -67,109 -86,173 -18,64 -28,127 -28,191zm4910 413l0 -279c0,-100 -11,-193 -31,-277 -21,-85 -55,-158 -102,-219 -47,-61 -109,-109 -185,-142 -76,-33 -169,-50 -277,-50 -133,0 -258,29 -375,88 -117,58 -223,133 -316,225 -92,91 -174,195 -245,310 -70,115 -126,230 -169,344l1700 0zm-3341 346c-112,0 -167,-56 -167,-167 0,-69 13,-117 39,-142 27,-25 69,-37 128,-37l146 0c92,0 170,-3 233,-9 63,-5 114,-18 152,-39 37,-21 64,-51 81,-92 16,-39 24,-94 24,-164l0 -746 342 0 0 592c0,69 3,132 8,189 6,57 19,105 40,144 21,38 51,69 90,91 40,23 93,34 159,34 53,-154 126,-309 219,-465 93,-157 203,-298 333,-424 128,-126 275,-229 439,-308 164,-80 342,-120 533,-120 283,0 501,83 654,249 153,165 229,402 229,709l0 705 -2248 0c-86,0 -157,-8 -213,-24 -56,-15 -101,-35 -136,-60 -35,-24 -63,-53 -83,-87 -21,-34 -40,-68 -57,-100 -24,58 -57,105 -99,139 -42,35 -95,62 -159,82 -64,19 -140,33 -231,39 -90,7 -196,11 -318,11l-138 0zm2557 -2305c0,-61 22,-113 65,-156 44,-43 96,-64 157,-64 62,0 113,21 156,64 42,43 64,95 64,156 0,61 -22,113 -64,156 -43,44 -94,65 -156,65 -61,0 -113,-21 -157,-65 -43,-43 -65,-95 -65,-156zm3137 2305c-10,169 -46,309 -106,420 -59,112 -140,201 -244,267 -103,67 -226,114 -368,142 -142,28 -301,42 -476,42l-175 0 0 -346 128 0c128,0 247,-7 356,-19 110,-12 204,-37 284,-75 80,-38 141,-91 187,-158 45,-69 70,-159 72,-273l-470 0c-114,0 -219,-13 -314,-38 -95,-25 -179,-66 -250,-123 -71,-57 -127,-131 -167,-223 -40,-91 -60,-205 -60,-341 0,-114 18,-225 56,-333 37,-109 91,-205 162,-288 72,-84 158,-151 259,-203 101,-51 217,-77 347,-77 144,0 266,26 366,77 101,52 182,125 244,219 63,94 108,208 136,342 27,133 41,282 41,447l0 195 293 0c112,0 167,55 167,166 0,70 -13,117 -39,142 -27,25 -69,38 -128,38l-301 0zm-1269 -759c0,141 41,245 122,312 81,67 201,101 360,101l445 0 0 -275c0,-209 -34,-374 -103,-494 -70,-121 -189,-181 -358,-181 -80,0 -150,16 -208,48 -58,31 -106,73 -145,125 -38,51 -66,109 -85,173 -19,64 -28,127 -28,191zm1568 759c-111,0 -166,-56 -166,-167 0,-69 13,-117 39,-142 27,-25 69,-37 127,-37l171 0c34,0 69,-4 105,-13 36,-7 72,-25 108,-53 36,-28 71,-67 106,-115 34,-49 67,-115 99,-198 63,-177 130,-321 201,-431 70,-110 142,-194 217,-254 73,-60 149,-99 225,-120 77,-19 152,-29 227,-29 103,0 200,20 290,60 90,40 168,97 233,171 65,74 116,162 154,262 37,102 55,215 55,341 0,242 -57,432 -171,571 -113,139 -291,208 -532,208 -133,0 -266,-22 -398,-67 -133,-44 -269,-119 -410,-226 -37,56 -73,100 -111,132 -37,32 -77,55 -119,71 -42,15 -85,25 -130,29 -43,5 -90,7 -140,7l-180 0zm1845 -737c0,-61 -8,-121 -26,-180 -17,-59 -44,-110 -79,-155 -35,-44 -78,-79 -127,-105 -50,-27 -108,-40 -174,-40 -117,0 -224,51 -322,155 -97,103 -189,283 -274,541 102,66 205,120 306,160 101,41 204,61 310,61 117,0 210,-33 281,-99 70,-67 105,-179 105,-338z"/>
  </g>
 </g>
</svg>
