<?xml version="1.0" encoding="UTF-8"?>
<!DOCTYPE svg PUBLIC "-//W3C//DTD SVG 1.1//EN" "http://www.w3.org/Graphics/SVG/1.1/DTD/svg11.dtd">
<!-- Creator: CorelDRAW X7 -->
<svg xmlns="http://www.w3.org/2000/svg" xml:space="preserve" width="2.70106in" height="0.826732in" version="1.1" style="shape-rendering:geometricPrecision; text-rendering:geometricPrecision; image-rendering:optimizeQuality; fill-rule:evenodd; clip-rule:evenodd"
viewBox="0 0 27011 8267"
 xmlns:xlink="http://www.w3.org/1999/xlink">
 <defs>
  <style type="text/css">
   <![CDATA[
    .fil0 {fill:#8480BC}
    .fil1 {fill:white;fill-rule:nonzero}
   ]]>
  </style>
 </defs>
 <g id="Layer_x0020_1">
  <metadata id="CorelCorpID_0Corel-Layer"/>
  <g id="_2508682238928">
   <path class="fil0" d="M4134 0l18743 0c2274,0 4134,1861 4134,4134 0,2273 -1861,4133 -4134,4133l-18743 0c-2274,0 -4134,-1860 -4134,-4133 0,-2274 1860,-4134 4134,-4134z"/>
   <path class="fil1" d="M10696 5130c-80,0 -161,-13 -241,-39 -81,-27 -146,-84 -197,-172 -34,47 -74,85 -119,113 -45,29 -94,50 -148,65 -52,14 -107,23 -164,27 -57,4 -113,6 -169,6l-1829 0c-164,0 -301,-11 -413,-35 -111,-24 -200,-63 -266,-115 -67,-53 -114,-121 -142,-204 -28,-84 -41,-185 -41,-305l0 -688 541 0 0 615c0,55 7,99 21,131 15,32 40,58 75,76 36,19 85,32 146,37 61,6 139,9 234,9l1587 0c95,0 161,-15 198,-44 37,-29 56,-95 56,-197l0 -938 537 0 0 892c0,102 22,176 65,220 44,44 133,67 269,67 21,0 42,2 61,6 21,5 38,15 54,30 15,15 27,37 35,68 9,30 12,72 12,125 0,95 -13,161 -39,196 -27,36 -68,54 -123,54zm-2680 -2141c0,-79 29,-149 87,-208 59,-59 129,-89 210,-89 80,0 149,29 208,88 58,58 87,128 87,209 0,80 -29,150 -87,208 -59,58 -128,88 -208,88 -80,0 -149,-30 -208,-88 -59,-58 -89,-128 -89,-208zm680 0c0,-79 29,-149 87,-208 58,-59 127,-89 208,-89 80,0 149,29 208,88 59,58 88,128 88,209 0,80 -29,150 -87,208 -59,58 -128,88 -209,88 -81,0 -150,-30 -208,-88 -58,-58 -87,-128 -87,-208zm1998 2141c-22,0 -43,-2 -62,-6 -20,-4 -38,-14 -54,-31 -15,-17 -27,-41 -35,-72 -9,-30 -12,-72 -12,-125 0,-95 13,-160 40,-196 26,-36 67,-54 123,-54l659 0 0 -1174 545 0 0 1658 -1204 0zm46 700c0,-80 29,-149 88,-207 58,-59 127,-88 207,-88 80,0 149,29 208,88 58,58 87,127 87,207 0,80 -29,150 -87,208 -59,58 -128,87 -208,87 -80,0 -149,-29 -207,-87 -59,-58 -88,-128 -88,-208zm678 0c0,-80 29,-149 87,-207 59,-59 129,-88 210,-88 80,0 149,29 208,88 58,58 87,127 87,207 0,80 -29,150 -87,208 -59,58 -128,87 -208,87 -80,0 -150,-29 -209,-87 -59,-58 -88,-128 -88,-208zm2482 -700c-39,303 -165,523 -375,661 -211,137 -527,206 -945,206l-129 0 0 -508 96 0c141,0 261,-9 360,-25 99,-16 180,-41 242,-73 63,-33 109,-70 140,-113 30,-43 50,-92 57,-148l-258 0c-122,0 -235,-14 -338,-41 -102,-28 -191,-73 -266,-136 -75,-62 -133,-143 -175,-242 -42,-99 -63,-217 -63,-356 0,-111 18,-221 56,-329 37,-109 92,-206 164,-292 73,-86 162,-155 268,-206 106,-50 227,-76 362,-76 154,0 282,26 386,78 104,52 187,127 251,223 64,96 110,210 138,342 27,131 41,276 41,435l0 121 305 0c22,0 42,2 63,6 19,5 36,15 51,30 15,15 27,37 36,68 8,30 13,72 13,125 0,95 -13,161 -39,196 -27,36 -68,54 -124,54l-317 0zm-1121 -826c0,133 28,224 85,273 57,49 133,74 228,74l275 0 0 -249c0,-133 -21,-243 -62,-331 -41,-89 -119,-133 -233,-133 -104,0 -178,35 -224,104 -46,69 -69,156 -69,262zm1607 347c61,0 112,-2 151,-5 40,-2 73,-11 98,-24 25,-14 43,-34 55,-60 12,-27 17,-64 17,-111l0 -796 537 0 0 709c0,89 21,158 63,206 41,48 110,74 208,76 53,-150 126,-299 221,-445 94,-147 205,-278 331,-393 127,-115 268,-210 424,-282 154,-73 320,-109 495,-109 286,0 507,84 664,252 157,169 235,407 235,715l0 267 330 0c21,0 42,2 62,6 19,5 37,15 52,30 16,15 28,37 37,68 7,30 11,72 11,125 0,95 -13,161 -39,196 -27,36 -68,54 -123,54l-2513 0c-141,0 -261,-23 -360,-69 -99,-46 -170,-95 -214,-147 -71,98 -167,159 -287,182 -120,23 -275,34 -464,34l-162 0c-22,0 -42,-2 -62,-6 -20,-4 -37,-14 -53,-29 -16,-16 -27,-39 -36,-69 -8,-31 -11,-73 -11,-125 0,-96 13,-161 39,-197 26,-36 67,-53 123,-53l171 0zm2962 0l0 -196c0,-141 -30,-257 -91,-349 -62,-92 -167,-137 -318,-137 -89,0 -175,18 -256,56 -81,37 -158,87 -228,149 -71,63 -136,135 -196,217 -59,82 -110,169 -152,260l1241 0zm-663 -1899c0,-80 29,-149 88,-208 58,-59 128,-89 209,-89 80,0 150,29 208,87 58,59 87,129 87,210 0,80 -29,149 -87,208 -58,58 -128,87 -208,87 -80,0 -149,-29 -208,-87 -59,-59 -89,-128 -89,-208zm1839 1899c-27,-54 -48,-116 -62,-190 -14,-73 -21,-136 -21,-189 0,-148 27,-276 83,-384 55,-108 128,-197 217,-268 88,-72 188,-124 297,-159 109,-35 219,-52 330,-52 90,0 180,10 270,30 90,19 159,39 207,57l0 493c-86,-13 -175,-27 -267,-42 -92,-14 -157,-21 -193,-21 -165,0 -281,35 -350,105 -69,70 -104,154 -104,253 0,111 35,200 103,267 68,66 185,100 351,100l659 0 0 479 -1829 0c-22,0 -42,-2 -62,-6 -20,-4 -37,-14 -53,-29 -16,-16 -27,-39 -36,-69 -8,-31 -12,-73 -12,-125 0,-96 14,-161 40,-197 26,-36 67,-53 123,-53l309 0z"/>
  </g>
 </g>
</svg>
