<?xml version="1.0" encoding="UTF-8"?>
<!DOCTYPE svg PUBLIC "-//W3C//DTD SVG 1.1//EN" "http://www.w3.org/Graphics/SVG/1.1/DTD/svg11.dtd">
<!-- Creator: CorelDRAW X7 -->
<svg xmlns="http://www.w3.org/2000/svg" xml:space="preserve" width="7.95315in" height="0.924016in" version="1.1" style="shape-rendering:geometricPrecision; text-rendering:geometricPrecision; image-rendering:optimizeQuality; fill-rule:evenodd; clip-rule:evenodd"
viewBox="0 0 79531 9240"
 xmlns:xlink="http://www.w3.org/1999/xlink">
 <defs>
  <style type="text/css">
   <![CDATA[
    .fil1 {fill:white}
    .fil0 {fill:#DFC495;fill-rule:nonzero}
    .fil2 {fill:#E6D2AE;fill-rule:nonzero}
   ]]>
  </style>
 </defs>
 <g id="Layer_x0020_1">
  <metadata id="CorelCorpID_0Corel-Layer"/>
  <g id="_2508682214928">
   <path class="fil0" d="M77569 9240l-75606 0c-540,0 -1031,-221 -1387,-576 -356,-356 -576,-847 -576,-1387l0 -5314c0,-540 220,-1031 576,-1387 356,-355 847,-576 1387,-576l75606 0c540,0 1031,221 1386,576 356,356 577,847 577,1387l0 5314c0,540 -221,1031 -577,1387 -355,355 -846,576 -1386,576zm-75606 -535l75606 0c392,0 749,-161 1008,-419 259,-259 420,-616 420,-1009l0 -5314c0,-393 -161,-750 -420,-1008 -259,-259 -616,-420 -1008,-420l-75606 0c-393,0 -750,161 -1009,420 -259,258 -420,615 -420,1008l0 5314c0,393 161,750 420,1009 259,258 616,419 1009,419z"/>
   <path class="fil1" d="M78997 7277l0 -5314c0,-393 -161,-750 -420,-1008 -259,-259 -616,-420 -1008,-420l-75606 0c-393,0 -750,161 -1009,420 -259,258 -420,615 -420,1008l0 5314c0,393 161,750 420,1009 259,258 616,419 1009,419l75606 0c392,0 749,-161 1008,-419 259,-259 420,-616 420,-1009z"/>
   <path class="fil2" d="M58333 6190c-11,352 -115,618 -311,797 -195,179 -472,269 -831,269 -188,0 -354,-27 -497,-80 -143,-52 -262,-127 -358,-222 -95,-96 -168,-210 -217,-341 -49,-132 -73,-278 -73,-439l0 -643 338 0 0 571c0,541 272,812 816,812 280,0 483,-60 608,-181 125,-121 187,-320 187,-598l0 -2920 338 0 0 2629 326 0c111,0 166,55 166,166 0,70 -13,117 -39,142 -27,25 -69,38 -127,38l-326 0zm326 0c-112,0 -167,-56 -167,-167 0,-69 13,-117 39,-142 27,-25 69,-37 128,-37l278 0c67,0 124,-3 171,-9 48,-5 87,-18 119,-39 32,-21 56,-51 71,-92 16,-39 24,-94 24,-164l0 -954 341 0 0 800c0,69 5,132 15,189 9,57 28,105 56,144 27,38 65,69 111,91 48,23 107,34 181,34 111,0 167,55 167,166 0,70 -14,117 -40,142 -26,25 -69,38 -127,38 -108,0 -196,-26 -263,-77 -66,-53 -111,-116 -134,-194 -50,114 -129,187 -235,221 -106,33 -238,50 -394,50l-341 0zm329 628c0,-61 21,-112 65,-155 43,-43 95,-64 156,-64 61,0 113,21 156,64 43,43 64,94 64,155 0,61 -21,113 -64,157 -43,43 -95,65 -156,65 -61,0 -113,-22 -156,-65 -44,-44 -65,-96 -65,-157zm541 0c0,-61 22,-112 65,-155 44,-43 96,-64 157,-64 60,0 112,21 155,64 43,43 64,94 64,155 0,61 -21,113 -64,157 -43,43 -95,65 -155,65 -61,0 -113,-22 -157,-65 -43,-44 -65,-96 -65,-157zm3058 -628c-105,0 -197,-21 -276,-62 -77,-42 -140,-113 -188,-213l0 -8c-53,106 -130,188 -230,248 -102,60 -229,89 -382,89 -133,0 -266,-22 -398,-67 -132,-44 -268,-119 -409,-226 -37,56 -74,100 -111,132 -38,32 -77,55 -120,71 -42,15 -85,25 -129,29 -44,5 -91,7 -141,7l-179 0c-111,0 -167,-56 -167,-167 0,-69 13,-117 40,-142 26,-25 69,-37 127,-37l171 0c34,0 68,-4 105,-13 36,-7 72,-25 107,-53 36,-28 72,-67 106,-115 34,-49 68,-115 99,-198 63,-177 131,-321 201,-431 71,-110 143,-194 217,-254 74,-60 149,-99 226,-120 76,-19 152,-29 227,-29 103,0 199,20 290,60 90,40 168,97 233,171 64,74 116,162 153,262 37,102 56,215 56,341 0,19 -1,38 -2,57 -2,18 -2,35 -2,51 27,90 68,157 121,203 54,45 138,68 255,68 112,0 167,55 165,166 0,70 -13,117 -39,142 -25,25 -68,38 -126,38zm-718 -737c0,-61 -8,-121 -26,-180 -18,-59 -44,-110 -80,-155 -35,-44 -77,-79 -127,-105 -50,-27 -107,-40 -174,-40 -117,0 -224,51 -321,155 -98,103 -189,283 -275,541 103,66 205,120 307,160 100,41 204,61 310,61 117,0 210,-33 280,-99 71,-67 106,-179 106,-338zm716 737c-111,0 -167,-56 -167,-167 0,-69 14,-117 40,-142 26,-25 69,-37 127,-37l649 0 0 -1258 342 0 0 1604 -991 0zm171 628c0,-61 21,-112 65,-155 43,-43 95,-64 156,-64 61,0 114,21 156,64 43,43 64,94 64,155 0,61 -21,113 -64,157 -42,43 -95,65 -156,65 -61,0 -113,-22 -156,-65 -44,-44 -65,-96 -65,-157zm541 0c0,-61 22,-112 65,-155 44,-43 96,-64 157,-64 60,0 113,21 156,64 42,43 63,94 63,155 0,61 -21,113 -63,157 -43,43 -96,65 -156,65 -61,0 -113,-22 -157,-65 -43,-44 -65,-96 -65,-157zm1203 -3603l0 2975 -342 0 0 -2975 342 0zm3735 2924c0,363 -100,626 -300,787 -200,162 -481,242 -842,242 -383,0 -670,-85 -860,-254 -190,-170 -285,-417 -285,-740l0 -643 338 0 0 571c0,133 17,247 52,340 34,93 86,168 153,225 68,56 154,97 256,122 104,25 222,37 355,37 138,0 257,-9 358,-28 100,-19 183,-55 248,-108 65,-52 113,-124 144,-212 30,-89 45,-204 45,-343l0 -1341 338 0 0 592c0,69 4,132 13,189 9,57 28,105 57,144 29,38 70,69 122,91 52,23 125,34 217,34 67,0 124,-3 173,-9 49,-5 89,-18 121,-39 32,-21 55,-51 71,-92 16,-39 23,-94 23,-164l0 -746 340 0 0 592c0,69 5,132 16,189 9,57 28,105 55,144 26,38 63,69 109,91 47,23 107,34 180,34l350 0 0 -1258 342 0 0 1604 -692 0c-108,0 -196,-26 -261,-77 -66,-53 -110,-116 -131,-194 -50,114 -130,187 -238,221 -109,33 -246,50 -411,50 -133,0 -235,-21 -305,-60 -69,-40 -120,-88 -151,-144l0 153zm3074 -1345l338 0 0 1162c0,206 -12,379 -36,520 -24,140 -68,253 -135,339 -67,86 -159,149 -277,187 -118,39 -270,59 -458,59l0 -346c136,0 242,-15 319,-44 76,-29 134,-77 172,-142 38,-64 60,-148 67,-250 7,-102 10,-224 10,-368l0 -1117zm2287 938c0,133 -46,242 -137,328 -92,87 -225,130 -400,130l-997 0 0 -346 968 0c95,0 155,-15 179,-44 25,-29 37,-62 37,-99 0,-27 -5,-56 -17,-86 -10,-31 -37,-80 -81,-149 -43,-68 -106,-162 -188,-283 -82,-121 -194,-285 -335,-493l322 -201c111,191 207,352 289,483 81,131 148,242 201,334 53,91 92,170 120,236 26,66 39,129 39,190zm-51 -3085c64,-64 124,-105 181,-125 57,-19 113,-29 169,-29 53,0 116,13 190,38 74,25 143,52 207,84 67,31 130,57 191,77 61,21 115,31 163,31 72,0 126,-19 162,-58 35,-39 61,-80 76,-121l132 59c-39,108 -85,190 -137,246 -52,55 -130,83 -233,83 -75,0 -146,-12 -214,-35 -69,-24 -135,-52 -199,-83 -64,-31 -128,-58 -192,-79 -63,-22 -123,-33 -178,-33 -48,0 -88,6 -120,17 -32,10 -68,32 -110,63l-88 -135zm904 568l0 2975 -342 0 0 -2975 342 0z"/>
  </g>
 </g>
</svg>
