<?xml version="1.0" encoding="UTF-8"?>
<!DOCTYPE svg PUBLIC "-//W3C//DTD SVG 1.1//EN" "http://www.w3.org/Graphics/SVG/1.1/DTD/svg11.dtd">
<!-- Creator: CorelDRAW X7 -->
<svg xmlns="http://www.w3.org/2000/svg" xml:space="preserve" width="2.60768in" height="4.1774in" version="1.1" style="shape-rendering:geometricPrecision; text-rendering:geometricPrecision; image-rendering:optimizeQuality; fill-rule:evenodd; clip-rule:evenodd"
viewBox="0 0 26077 41774"
 xmlns:xlink="http://www.w3.org/1999/xlink">
 <defs>
  <style type="text/css">
   <![CDATA[
    .fil2 {fill:#DCC08D}
    .fil1 {fill:#FBF7F0}
    .fil0 {fill:black;fill-rule:nonzero}
    .fil3 {fill:#DCC08D;fill-rule:nonzero}
   ]]>
  </style>
 </defs>
 <g id="Layer_x0020_1">
  <metadata id="CorelCorpID_0Corel-Layer"/>
  <g id="_2124099810992">
   <path class="fil0" d="M4900 33615c0,48 6,99 17,151 11,51 33,99 65,140 31,42 74,76 127,104 54,29 122,43 205,43 51,0 104,-2 157,-6 53,-4 107,-16 164,-35l0 -819 -296 0c-146,0 -257,39 -330,116 -73,77 -109,179 -109,306zm1652 1540c-94,0 -186,-7 -275,-21 -89,-13 -171,-37 -246,-73 -75,-35 -141,-85 -198,-146 -57,-62 -101,-142 -132,-240 -67,15 -136,28 -209,39 -71,10 -142,15 -213,15 -99,0 -213,-15 -344,-44 -130,-30 -254,-85 -370,-164 -117,-79 -216,-189 -297,-330 -81,-140 -121,-321 -121,-540 0,-219 39,-403 116,-553 77,-149 175,-271 296,-367 121,-95 255,-164 403,-206 147,-41 292,-62 436,-62l1006 0 0 1774c0,91 12,153 37,186 24,33 79,49 166,49l142 0c31,0 60,3 88,10 28,7 53,21 75,42 23,22 40,53 51,97 11,43 17,102 17,178 0,135 -19,229 -56,279 -38,51 -96,77 -175,77l-197 0zm197 0c-31,0 -60,-3 -88,-9 -29,-6 -53,-20 -76,-41 -22,-23 -38,-56 -50,-99 -12,-44 -17,-103 -17,-178 0,-135 19,-228 56,-279 38,-52 96,-77 175,-77l877 0c31,0 61,3 88,10 28,7 54,21 75,42 23,22 40,53 52,97 11,43 16,102 16,178 0,135 -18,229 -56,279 -37,51 -96,77 -175,77l-877 0zm3141 -1102c0,-61 -7,-120 -20,-178 -14,-59 -36,-112 -65,-157 -31,-45 -71,-83 -120,-113 -48,-30 -109,-44 -181,-44 -51,0 -105,12 -160,38 -55,27 -108,69 -159,128 -51,59 -100,135 -145,230 -45,95 -83,213 -115,355 99,61 193,109 282,147 88,38 184,57 286,57 128,0 226,-43 294,-128 68,-84 103,-197 103,-335zm-1956 419c47,0 106,-39 175,-117 71,-78 132,-193 186,-343 87,-226 182,-413 285,-562 103,-148 209,-267 319,-356 108,-89 218,-151 328,-186 109,-36 219,-54 327,-54 154,0 298,30 432,90 135,59 250,142 346,249 97,106 173,234 227,384 56,152 83,316 83,492 0,356 -87,638 -261,846 -173,208 -437,312 -793,312 -158,0 -317,-23 -477,-72 -160,-48 -329,-129 -507,-243 -101,114 -206,183 -314,207 -107,24 -223,36 -349,36l-315 0c-30,0 -60,-3 -88,-9 -28,-6 -53,-20 -76,-41 -21,-23 -38,-56 -50,-99 -12,-44 -17,-103 -17,-178 0,-135 19,-228 56,-279 38,-52 96,-77 175,-77l308 0zm4757 327c0,135 -19,229 -56,279 -38,51 -96,77 -175,77l-249 0c-135,0 -259,-15 -370,-44 -112,-31 -209,-80 -290,-149 -81,-68 -144,-160 -190,-274 -45,-115 -68,-257 -68,-427l0 -3337 771 0 0 3229c0,140 25,228 73,264 49,37 119,55 210,55l113 0c31,0 60,3 88,10 29,7 53,21 76,42 22,22 39,53 50,97 12,43 17,102 17,178zm390 -3027c0,-114 42,-213 125,-297 83,-84 183,-126 298,-126 114,0 213,41 296,124 83,83 124,183 124,299 0,113 -41,212 -124,295 -83,83 -182,124 -296,124 -113,0 -212,-41 -296,-124 -84,-83 -127,-182 -127,-295zm56 2700l0 -1676 776 0 0 2359 -1459 0c-31,0 -60,-3 -88,-9 -29,-6 -53,-20 -76,-41 -22,-23 -38,-56 -50,-99 -12,-44 -17,-103 -17,-178 0,-135 19,-228 56,-279 38,-52 96,-77 175,-77l683 0zm3097 683c-53,0 -124,-12 -215,-36 -91,-24 -170,-76 -237,-155 -4,268 -35,492 -94,673 -59,180 -148,326 -266,437 -119,110 -269,190 -450,237 -182,47 -400,73 -654,77l0 -723c162,-4 291,-23 386,-57 95,-34 167,-83 215,-151 46,-66 77,-152 91,-257 14,-105 19,-232 19,-378l0 -1765 765 0 0 1007c0,155 46,261 140,320 94,59 194,88 300,88 30,0 60,3 88,10 28,7 53,21 76,42 21,22 38,53 50,97 12,43 17,102 17,178 0,135 -19,229 -56,279 -38,51 -96,77 -175,77zm-3 0c-31,0 -61,-3 -88,-9 -29,-6 -54,-20 -76,-41 -22,-23 -39,-56 -51,-99 -12,-44 -16,-103 -16,-178 0,-135 18,-228 56,-279 37,-52 96,-77 175,-77l877 0c31,0 60,3 88,10 28,7 53,21 75,42 23,22 39,53 51,97 11,43 17,102 17,178 0,135 -19,229 -56,279 -38,51 -96,77 -175,77l-877 0zm1239 -683c135,0 229,-20 282,-62 53,-41 79,-135 79,-279l0 -1335 771 0 0 1268c0,147 27,251 82,314 55,63 177,94 369,94 31,0 60,3 88,10 28,7 52,21 74,42 21,22 38,53 50,97 13,43 19,102 19,178 0,135 -19,229 -56,279 -38,51 -96,77 -175,77 -114,0 -224,-19 -332,-56 -107,-38 -195,-120 -268,-245 -48,68 -105,121 -171,162 -67,40 -138,71 -213,92 -76,19 -154,32 -235,38 -81,6 -161,9 -240,9l-486 0c-31,0 -60,-3 -88,-9 -29,-6 -53,-20 -76,-41 -22,-23 -39,-56 -50,-99 -12,-44 -17,-103 -17,-178 0,-135 19,-228 56,-279 38,-52 96,-77 175,-77l362 0zm325 1661c0,-114 41,-212 124,-295 83,-83 182,-125 298,-125 114,0 212,42 295,125 83,83 124,181 124,295 0,114 -41,212 -124,295 -83,83 -181,125 -295,125 -114,0 -213,-42 -297,-125 -84,-83 -125,-181 -125,-295zm3376 -1661c-11,-159 -36,-304 -76,-435 -39,-133 -100,-246 -181,-341 -81,-94 -184,-168 -311,-221 -126,-53 -284,-79 -473,-79 -64,0 -164,9 -299,25 -137,18 -274,47 -413,87l0 -688c91,-32 214,-64 370,-100 156,-36 317,-54 483,-54 309,0 569,53 781,160 211,105 382,248 511,426 131,178 225,385 282,620 56,234 85,478 85,733l0 550 -2880 0c-31,0 -60,-3 -88,-9 -28,-6 -53,-20 -76,-41 -22,-23 -38,-56 -50,-99 -12,-44 -17,-103 -17,-178 0,-135 19,-228 56,-279 38,-52 96,-77 175,-77l2121 0zm-1399 -2700c0,-114 42,-213 125,-297 83,-84 182,-126 298,-126 114,0 212,41 295,124 83,83 125,183 125,299 0,113 -42,212 -125,295 -83,83 -181,124 -295,124 -114,0 -212,-41 -296,-124 -84,-83 -127,-182 -127,-295z"/>
   <path class="fil1" d="M13038 0c7201,0 13039,5834 13039,13032 0,7197 -5838,13031 -13039,13031 -7200,0 -13038,-5834 -13038,-13031 0,-7198 5838,-13032 13038,-13032z"/>
   <path class="fil2" d="M18489 5352l-10901 0 0 4748 -2475 1036 0 8593 15851 0 0 -8593 -2475 -1036 0 -4748zm-6495 6723c-369,-149 -649,-386 -843,-711 -193,-325 -289,-702 -289,-1150 0,-421 96,-816 289,-1193 194,-369 466,-650 817,-851 351,-194 746,-299 1167,-299 377,0 720,79 1027,237 307,158 535,369 693,632 149,263 228,544 228,851 0,255 -61,509 -175,746 -123,246 -290,439 -492,588 -158,114 -289,167 -386,167 -44,0 -96,-17 -131,-53 -36,-35 -53,-79 -53,-131 0,-27 26,-167 79,-421l395 -1826 -492 0 -87 421c-106,-166 -229,-289 -378,-377 -140,-79 -289,-123 -447,-123 -211,0 -422,70 -641,219 -220,141 -404,360 -553,650 -141,290 -219,579 -219,869 0,237 43,447 140,640 96,202 219,343 377,439 150,97 308,141 465,141 150,0 299,-35 448,-123 141,-79 272,-193 395,-325 9,105 26,184 53,237 35,70 87,123 166,158 79,44 176,62 308,62 386,0 746,-185 1079,-553 369,-404 553,-869 553,-1396 0,-369 -88,-711 -263,-1027 -211,-360 -492,-632 -852,-816 -359,-184 -763,-281 -1211,-281 -579,0 -1079,132 -1483,395 -404,263 -720,632 -948,1124 -175,403 -272,825 -272,1263 0,395 79,773 228,1115 123,263 307,509 544,711 237,210 527,360 869,465 343,105 711,158 1115,158 439,0 816,-61 1123,-176 307,-114 580,-272 799,-465 228,-202 386,-395 483,-588l-492 0c-158,228 -403,430 -719,588 -325,158 -720,237 -1203,237 -439,0 -851,-70 -1211,-228l0 0zm184 -1141c-114,-140 -175,-333 -175,-579 0,-158 26,-334 88,-518 61,-184 140,-342 236,-474 97,-132 194,-228 290,-289 105,-53 220,-88 334,-88 175,0 324,70 447,210 123,132 185,325 185,571 0,184 -36,368 -97,553 -70,184 -149,342 -255,456 -105,123 -210,211 -324,272 -114,62 -220,88 -316,88 -158,0 -290,-61 -413,-202l0 0zm5819 -5090l0 6872 -4959 3107 -4950 -3107 0 -6872 9909 0zm-10409 6565l-1694 -1062 1694 -711 0 1773zm-1983 6828l0 -7487 7433 4661 7434 -4661 0 7487 -14867 0zm14577 -7890l-1693 1062 0 -1773 1693 711z"/>
   <polygon class="fil3" points="22439,41300 3638,41300 3638,41774 22439,41774 "/>
  </g>
 </g>
</svg>
