<?xml version="1.0" encoding="UTF-8"?>
<!DOCTYPE svg PUBLIC "-//W3C//DTD SVG 1.1//EN" "http://www.w3.org/Graphics/SVG/1.1/DTD/svg11.dtd">
<!-- Creator: CorelDRAW X7 -->
<svg xmlns="http://www.w3.org/2000/svg" xml:space="preserve" width="7.95323in" height="0.924016in" version="1.1" style="shape-rendering:geometricPrecision; text-rendering:geometricPrecision; image-rendering:optimizeQuality; fill-rule:evenodd; clip-rule:evenodd"
viewBox="0 0 79532 9240"
 xmlns:xlink="http://www.w3.org/1999/xlink">
 <defs>
  <style type="text/css">
   <![CDATA[
    .fil1 {fill:white}
    .fil0 {fill:#DFC495;fill-rule:nonzero}
   ]]>
  </style>
 </defs>
 <g id="Layer_x0020_1">
  <metadata id="CorelCorpID_0Corel-Layer"/>
  <g id="_2508291091696">
   <path class="fil0" d="M77569 9240l-75606 0c-540,0 -1031,-221 -1387,-576 -355,-356 -576,-847 -576,-1387l0 -5314c0,-540 221,-1031 576,-1387 356,-355 847,-576 1387,-576l75606 0c540,0 1031,221 1387,576 356,356 576,847 576,1387l0 5314c0,540 -220,1031 -576,1387 -356,355 -846,576 -1387,576zm-75606 -535l75606 0c393,0 750,-161 1009,-419 259,-259 420,-616 420,-1009l0 -5314c0,-393 -161,-750 -420,-1008 -259,-259 -616,-420 -1009,-420l-75606 0c-393,0 -750,161 -1009,420 -259,258 -419,615 -419,1008l0 5314c0,393 160,750 419,1009 259,258 616,419 1009,419z"/>
   <path class="fil1" d="M78998 7277l0 -5314c0,-393 -161,-750 -420,-1008 -259,-259 -616,-420 -1009,-420l-75606 0c-392,0 -750,161 -1009,420 -258,258 -419,615 -419,1008l0 5314c0,393 161,750 419,1009 259,258 617,419 1009,419l75606 0c393,0 750,-161 1009,-419 259,-259 420,-616 420,-1009z"/>
  </g>
 </g>
</svg>
