<?xml version="1.0" encoding="UTF-8"?>
<!DOCTYPE svg PUBLIC "-//W3C//DTD SVG 1.1//EN" "http://www.w3.org/Graphics/SVG/1.1/DTD/svg11.dtd">
<!-- Creator: CorelDRAW X7 -->
<svg xmlns="http://www.w3.org/2000/svg" xml:space="preserve" width="16.2891in" height="12.6405in" version="1.1" style="shape-rendering:geometricPrecision; text-rendering:geometricPrecision; image-rendering:optimizeQuality; fill-rule:evenodd; clip-rule:evenodd"
viewBox="0 0 162891 126405"
 xmlns:xlink="http://www.w3.org/1999/xlink">
 <defs>
  <style type="text/css">
   <![CDATA[
    .fil0 {fill:#F7F2E6;fill-rule:nonzero}
   ]]>
  </style>
 </defs>
 <g id="Layer_x0020_1">
  <metadata id="CorelCorpID_0Corel-Layer"/>
  <path class="fil0" d="M43577 75500c-2339,10725 -7772,42435 -13666,47552 -3327,2889 -6405,3353 -10585,3353l0 -50905c-5255,0 -10021,-1841 -13756,-5575 -5437,-5437 -7060,-13668 -4131,-20746 1939,-4681 5654,-8377 10334,-10315 2247,-930 4702,-1445 7265,-1445l27663 0c3889,0 7405,-1575 9947,-4120 2546,-2549 4120,-6073 4120,-9965l0 -4078c0,-7285 11082,-7258 11082,0l0 20405c8743,677 15521,8023 15521,16799 0,8775 -6778,16121 -15521,16798l0 19237c0,7258 -11082,7275 -11082,0l0 -2910c0,-1925 -376,-3750 -1062,-5407 -1415,-3416 -4203,-6197 -7618,-7614 -1651,-685 -3471,-1064 -5387,-1064l-3124 0zm110105 -18212c-724,0 -1311,-587 -1311,-1311 0,-723 587,-1310 1311,-1310l7898 0c724,0 1311,587 1311,1310 0,724 -587,1311 -1311,1311l-7898 0zm-30949 -104c-724,0 -1310,-587 -1310,-1310 0,-724 586,-1311 1310,-1311l19307 0c724,0 1310,587 1310,1311 0,723 -586,1310 -1310,1310l-19307 0zm-18941 0c-724,0 -1311,-587 -1311,-1310 0,-724 587,-1311 1311,-1311l9147 0c724,0 1310,587 1310,1311 0,723 -586,1310 -1310,1310l-9147 0zm41711 30300c644,325 903,1111 578,1755 -324,644 -1111,903 -1755,579l-22182 -11239c-644,-325 -903,-1111 -578,-1755 325,-644 1111,-903 1755,-579l22182 11239zm-35611 -18042c644,325 903,1112 578,1756 -325,644 -1111,903 -1755,578l-15200 -7701c-644,-325 -903,-1111 -578,-1756 325,-644 1111,-903 1755,-578l15200 7701zm-20613 7377c-574,-438 -684,-1259 -246,-1833 438,-573 1259,-683 1832,-245l19784 15064c574,438 684,1258 246,1832 -438,574 -1259,684 -1832,246l-19784 -15064zm31761 24184c-574,-438 -684,-1258 -246,-1832 438,-574 1259,-684 1832,-246l13556 10322c574,438 684,1259 246,1832 -438,574 -1259,684 -1833,246l-13555 -10322zm23286 -79227c644,-325 1431,-66 1755,578 325,644 66,1431 -578,1756l-22182 11238c-644,325 -1430,66 -1755,-579 -325,-644 -66,-1430 578,-1755l22182 -11238zm-35611 18041c644,-324 1430,-65 1755,579 325,644 66,1430 -578,1755l-15200 7701c-644,325 -1430,66 -1755,-578 -325,-644 -66,-1431 578,-1756l15200 -7701zm-17850 -2964c-573,438 -1394,328 -1832,-246 -438,-574 -328,-1394 246,-1832l19784 -15065c573,-438 1394,-328 1832,246 438,574 328,1394 -246,1832l-19784 15065zm31761 -24185c-573,438 -1394,328 -1832,-246 -438,-574 -328,-1394 246,-1832l13555 -10322c574,-438 1395,-328 1833,246 438,574 328,1394 -246,1832l-13556 10322zm-59237 10666l0 66251 0 2910c0,3827 5840,3823 5840,0l0 -19186 0 -33699 0 -20354c0,-3829 -5840,-3828 -5840,0l0 4078zm-32099 16705l0 32841 15411 0c2262,0 4421,451 6391,1269 3133,1299 5847,3588 7676,6445l0 -48275c-653,1022 -1414,1968 -2268,2823 -3021,3025 -7192,4897 -11799,4897l-15411 0zm-2621 32841l0 -32841 -9631 0c-2225,0 -4344,442 -6272,1241 -4017,1663 -7246,4873 -8911,8892 -2524,6099 -1114,13218 3568,17900 2971,2972 7079,4808 11615,4808l9631 0zm12357 2620l-19080 0 0 48239c2374,-213 4544,-1176 6256,-2662 5044,-4380 10893,-37362 12824,-45577zm43724 -19040c0,-7342 -5594,-13500 -12900,-14169l0 28337c7306,-669 12900,-6827 12900,-14168z"/>
 </g>
</svg>
