<?xml version="1.0" encoding="UTF-8"?>
<!DOCTYPE svg PUBLIC "-//W3C//DTD SVG 1.1//EN" "http://www.w3.org/Graphics/SVG/1.1/DTD/svg11.dtd">
<!-- Creator: CorelDRAW X7 -->
<svg xmlns="http://www.w3.org/2000/svg" xml:space="preserve" width="9.80437in" height="6.1022in" version="1.1" style="shape-rendering:geometricPrecision; text-rendering:geometricPrecision; image-rendering:optimizeQuality; fill-rule:evenodd; clip-rule:evenodd"
viewBox="0 0 98044 61022"
 xmlns:xlink="http://www.w3.org/1999/xlink">
 <defs>
  <style type="text/css">
   <![CDATA[
    .fil14 {fill:#D2AE6D}
    .fil15 {fill:#D7B67C}
    .fil12 {fill:#E6D2AE}
    .fil0 {fill:#EDDFC4}
    .fil1 {fill:#F6EFE2}
    .fil8 {fill:#5E6D8F;fill-rule:nonzero}
    .fil3 {fill:#657AA9;fill-rule:nonzero}
    .fil2 {fill:#6C698B;fill-rule:nonzero}
    .fil10 {fill:#A38755;fill-rule:nonzero}
    .fil5 {fill:#BB9B61;fill-rule:nonzero}
    .fil4 {fill:#CFD8EC;fill-rule:nonzero}
    .fil7 {fill:#D2AE6D;fill-rule:nonzero}
    .fil9 {fill:#DCC08D;fill-rule:nonzero}
    .fil6 {fill:#E1E7F4;fill-rule:nonzero}
    .fil16 {fill:#E3D1B2;fill-rule:nonzero}
    .fil17 {fill:#EEE3CE;fill-rule:nonzero}
    .fil13 {fill:#F6EFE2;fill-rule:nonzero}
    .fil11 {fill:white;fill-rule:nonzero}
   ]]>
  </style>
 </defs>
 <g id="Layer_x0020_1">
  <metadata id="CorelCorpID_0Corel-Layer"/>
  <g id="_1759348598848">
   <path class="fil0" d="M81733 52565c-3221,133 -5829,383 -5825,560 4,177 2619,213 5840,81 3221,-132 5829,-383 5825,-559 -4,-177 -2619,-214 -5840,-82z"/>
   <g>
    <path class="fil0" d="M24730 35848c-9836,-2472 -13335,-6026 -14911,-4176 -1365,-1139 -3064,-2187 -4818,-3127 -1918,-1029 -3577,-2025 -5001,-2986l0 -11852c477,111 983,233 1520,368 1026,258 2167,562 3436,915 6434,1787 12325,1804 15372,41 248,-143 474,-296 679,-459 4208,-3341 -2135,-9298 -4350,-14572l36133 0c638,8224 1755,21150 2860,22741 3075,4427 276,10499 -2625,12802 -295,234 -620,455 -977,661 -4379,2534 -13035,3952 -22285,1383 -1824,-507 -3557,-1368 -5033,-1739z"/>
    <path class="fil1" d="M20570 40468c-5236,-1197 -7335,-658 -9020,979 797,-2488 2622,-4658 50,-7973 -450,-580 -1035,-1180 -1781,-1802 1576,-1850 4144,-2285 13980,187 1476,371 3115,807 4940,1314 9250,2570 17719,2594 22099,60 356,-206 682,-426 977,-660 6542,-5194 -4655,-14785 -6904,-22778 -1326,-4714 50,-7749 4012,-9795l33206 0c-7872,3496 -13493,8581 -2697,15862 5296,3572 12498,5305 10912,10519 -324,1063 -1216,1993 -2768,2797 -564,107 -1117,501 -1669,639 -2279,566 -4447,1003 -6409,847 -4563,-363 -8508,-2656 -13601,-2998 -5009,-337 -6834,1304 -4147,6692 3074,6165 2226,10541 -2872,12327 -10956,3836 -25984,-3400 -38308,-6217z"/>
    <path class="fil0" d="M18312 37386c2860,267 7285,1482 14813,4125 3082,1082 6139,1887 9039,2405 5704,1019 10798,923 14264,-375 4909,-1839 5657,-5662 3415,-10161 -1986,-3982 -1995,-6448 -29,-7537 630,-349 1453,-546 2424,-626 6830,-561 19388,8029 26853,2967 -5483,5343 -21426,1458 -24493,4331 -2122,1987 1395,5005 4204,8307 6249,7344 1806,12289 -9792,11072 -4746,-497 -9864,-1646 -13822,-1352 -5350,398 -3768,4412 -4996,7190 -2808,6351 -19352,2952 -25932,-5448 -3823,-4881 -5324,-15772 4052,-14898z"/>
   </g>
   <g>
    <path class="fil2" d="M85117 47290c-310,-665 -636,-1113 -960,-1710 -3,-126 -15,-264 -38,-418 -132,-872 -758,-5728 -827,-6191 0,-2 -1,-4 -1,-6 20,-232 -20,-498 -45,-788l-4307 -13c-207,839 -803,5650 -983,7721 -9,45 -17,93 -19,148 -53,1061 -750,6608 -559,6648 494,106 1407,-2548 1780,-4335 149,-709 151,-1323 253,-2021 30,-101 58,-212 82,-334l1491 -5322c233,963 1360,4060 1802,5451 7,121 50,252 143,393 609,916 3391,6009 3528,5864 356,-375 -698,-3707 -1340,-5087z"/>
    <path class="fil3" d="M85654 38665l1002 -315 83 262 -1002 315 -83 -262zm4045 2276l-848 -2699c-46,-147 -204,-229 -351,-183l-1441 453 -111 -353c-19,-61 -61,-111 -118,-141 -58,-30 -123,-36 -184,-16l-1183 371c-61,20 -111,62 -141,118 -30,58 -35,123 -16,184l111 353 -1442 453c-147,46 -229,204 -183,350l848 2699c46,147 204,229 350,183l4526 -1422c147,-46 229,-204 183,-350z"/>
    <path class="fil4" d="M77148 34635c455,210 1076,-534 1493,-957 760,-771 1230,-1277 1511,-1549 264,-255 1343,-1130 1100,-1242 -619,-285 -1056,-282 -1515,90 -961,781 -1591,1528 -1992,1982 -496,562 -1246,1377 -597,1676z"/>
    <path class="fil5" d="M80352 29577c-138,-360 18,-771 391,-916 407,-159 876,39 1027,424 75,191 602,1582 553,2808 -19,477 -545,780 -1026,602 -303,-112 -505,-388 -493,-687 28,-686 -230,-1652 -452,-2231z"/>
    <path class="fil6" d="M86266 35729c-16,-496 -122,-1091 -283,-1511 -84,-367 -488,-839 -794,-1205 -348,-418 -877,-1079 -1663,-1794 -248,-353 -689,-579 -1147,-579l-1792 0c-1236,0 -1415,1311 -1417,2216 -1,719 15,1438 17,2157 3,979 -169,1558 -292,2525 -36,283 -86,653 49,653l4307 12c184,-390 -192,-2962 156,-5005 18,-107 47,-223 81,-344 218,240 476,523 788,857 161,173 354,398 556,593 12,117 47,247 105,387 242,580 600,1872 691,2578 19,152 -18,285 137,320 253,57 436,-137 436,-137 0,0 77,-1311 65,-1723z"/>
    <path class="fil7" d="M86367 38310c-8,-303 -76,-672 -81,-868 -6,-236 -380,-122 -567,81 -168,181 -182,460 -183,637 -1,150 23,294 298,428 259,126 544,134 533,-278z"/>
    <path class="fil4" d="M77289 35226c555,406 1650,707 1650,707 0,0 148,5 317,-86 113,-61 151,-148 108,-230 -182,-353 -809,-474 -1231,-1038 -206,-277 -414,-728 -1038,-584 -353,82 -239,914 194,1231z"/>
    <path class="fil7" d="M78993 35496c288,-97 657,-160 843,-223 224,-75 246,315 120,561 -113,220 -370,329 -536,391 -141,52 -284,79 -504,-132 -208,-200 -313,-466 77,-597z"/>
    <path class="fil2" d="M77565 52386c62,51 86,135 57,209 -70,175 -116,418 -180,504 -80,108 -955,-508 -1345,-907 -211,-216 651,201 867,219 137,12 298,-36 399,-74 62,-23 131,-11 182,32l20 17z"/>
    <path class="fil2" d="M86356 51950c75,0 138,52 157,124 49,190 152,421 157,535 6,141 -891,233 -1358,173 -253,-32 529,-276 679,-407 96,-84 175,-234 219,-332 26,-57 84,-93 146,-93z"/>
    <path class="fil2" d="M83666 35206c-39,-232 -87,-464 -157,-689 -137,-452 -339,-883 -587,-1280 -250,-398 -536,-767 -849,-1109 -79,-82 -156,-173 -248,-250 -87,-76 -172,-147 -252,-222 -80,-74 -157,-151 -219,-234 -35,-47 -64,-96 -82,-145 86,-46 137,-140 119,-259 -25,-170 -65,-294 -246,-290 -94,2 -219,173 -246,273 -26,97 73,278 215,302 15,81 49,155 84,220 61,106 134,200 209,290 75,90 153,175 227,258 72,79 134,167 204,254 271,350 486,738 667,1135 179,399 319,810 444,1223 55,209 120,416 161,628 24,106 61,209 118,311 60,102 127,205 252,308l1 0c99,-122 151,-245 177,-366 25,-121 29,-242 8,-358z"/>
    <path class="fil4" d="M82153 30291c0,0 -503,264 -1033,348 0,0 174,360 168,575 0,0 1176,-305 1136,-529 -44,-244 -271,-394 -271,-394z"/>
    <path class="fil4" d="M80407 30639c-79,212 664,575 664,575 -54,-221 49,-575 49,-575 -306,-84 -534,-189 -534,-189 0,0 -119,30 -179,189z"/>
    <path class="fil7" d="M79541 28585c44,1045 571,1917 1345,1944 773,26 1364,-800 1320,-1845 -45,-1046 -708,-1915 -1481,-1941 -774,-27 -1228,796 -1184,1842z"/>
    <path class="fil8" d="M81637 27781c-953,522 -2852,887 -2504,0 348,-887 2356,-1696 2712,-831 356,864 -208,831 -208,831z"/>
    <path class="fil8" d="M81457 27399c-293,328 114,1699 749,1285 635,-414 237,-2387 -749,-1285z"/>
    <path class="fil7" d="M81937 28512c-69,313 3,607 162,658 158,51 343,-161 412,-473 69,-313 -4,-607 -162,-658 -159,-51 -343,161 -412,473z"/>
   </g>
   <g>
    <path class="fil9" d="M66304 32261c1375,-11199 -9829,-19398 -20324,-16805 -6171,1525 -11002,6478 -11786,12861 -464,3782 570,7419 2659,10375 255,360 233,847 -56,1181l-2349 2710c-396,458 -121,1173 480,1246l658 81 12797 1572c8867,1089 16890,-4830 17921,-13221z"/>
    <path class="fil7" d="M23662 49151c-36,-72 5,-159 83,-178l391 -95c80,-19 120,-109 82,-182l-226 -425 -2261 397 1335 2865c24,51 80,80 136,70l1365 -239c82,-15 128,-104 91,-180l-996 -2033z"/>
    <path class="fil9" d="M29875 43660c-169,-961 306,-1847 1060,-1980 755,-132 1503,540 1672,1500 168,961 -306,1847 -1061,1980 -754,132 -1502,-539 -1671,-1500z"/>
    <path class="fil5" d="M23287 46947c-29,-54 -91,-79 -150,-61l-1811 575c-73,23 -109,105 -77,174l521 1101 2261 -397 -744 -1392z"/>
    <path class="fil10" d="M18583 45445c-210,-1192 280,-2275 1093,-2418 814,-142 1643,709 1852,1901 209,1193 -280,2276 -1094,2418 -813,143 -1642,-708 -1851,-1901z"/>
    <path class="fil5" d="M29421 43740c-169,-961 306,-1848 1060,-1980 755,-132 1503,539 1672,1500 168,961 -307,1847 -1061,1980 -754,132 -1502,-540 -1671,-1500z"/>
    <path class="fil11" d="M23914 41675l685 3902 6708 -1177 -1274 -7257c0,0 -2480,3661 -6119,4532z"/>
    <path class="fil9" d="M23676 41279l-3514 617c-598,105 -998,675 -893,1274l569 3243 4761 -836 -685 -3902 -45 -261c-16,-90 -103,-151 -193,-135z"/>
    <path class="fil12" d="M48477 16884c4,248 207,445 455,442 247,-4 445,-208 441,-456 -4,-247 -208,-445 -455,-441 -248,4 -445,208 -441,455zm-6768 2904c2269,-1845 5702,-2323 5747,-2329 223,-29 380,-234 350,-457 -29,-223 -235,-380 -457,-350 -150,19 -3699,508 -6154,2504 -174,142 -201,399 -59,573 85,104 211,156 335,150 84,-4 168,-34 238,-91z"/>
    <path class="fil7" d="M23790 44728l-4121 723 376 2144c106,599 676,999 1274,894l3514 -617c91,-16 151,-102 135,-193l-21 -123 -516 -2940 -641 112z"/>
    <path class="fil13" d="M24947 47556c3717,-420 7296,2177 7296,2177l-1105 -6295 -6707 1178 516 2940z"/>
    <path class="fil10" d="M32406 50531l0 0c-253,44 -494,-125 -538,-378l-2330 -13277c-45,-253 124,-494 377,-538 253,-45 494,124 538,377l2331 13277c44,253 -125,494 -378,539z"/>
    <g>
     <path class="fil0" d="M56602 30316c0,-3513 -2847,-6361 -6360,-6361 -3513,0 -6360,2848 -6360,6361 0,3512 2847,6360 6360,6360 3513,0 6360,-2848 6360,-6360z"/>
     <path class="fil14" d="M51443 32116l0 1199 -4800 0 0 -1199 4800 0zm-4800 -3601l0 -1201c2400,0 4800,0 7200,0l-1201 1201c-1999,0 -3999,0 -5999,0zm7200 1199c0,1201 0,2402 0,3601l-1201 0 0 -2400 -5999 0 0 -1201c2400,0 4800,0 7200,0z"/>
    </g>
    <path class="fil15" d="M63042 27210c423,8443 -6467,15650 -15390,16096l-12066 604 12797 1572c8867,1089 16890,-4830 17921,-13221 807,-6575 -2721,-12115 -7895,-15045 2699,2577 4437,6074 4633,9994z"/>
   </g>
   <path class="fil16" d="M7509 37274c-1034,32 -1863,882 -1870,1930l-18 0c-7,-1048 -832,-1898 -1866,-1930 1038,-35 1870,-888 1870,-1947l14 0c0,1059 832,1912 1870,1947z"/>
   <path class="fil17" d="M98044 30030c-1513,-51 -2727,-1295 -2737,-2834l-23 0c-10,1539 -1224,2783 -2740,2834 1519,50 2740,1304 2740,2854l20 0c0,-1550 1220,-2804 2740,-2854z"/>
  </g>
 </g>
</svg>
