<?xml version="1.0" encoding="UTF-8"?>
<!DOCTYPE svg PUBLIC "-//W3C//DTD SVG 1.1//EN" "http://www.w3.org/Graphics/SVG/1.1/DTD/svg11.dtd">
<!-- Creator: CorelDRAW X7 -->
<svg xmlns="http://www.w3.org/2000/svg" xml:space="preserve" width="2.60768in" height="2.60633in" version="1.1" style="shape-rendering:geometricPrecision; text-rendering:geometricPrecision; image-rendering:optimizeQuality; fill-rule:evenodd; clip-rule:evenodd"
viewBox="0 0 26077 26063"
 xmlns:xlink="http://www.w3.org/1999/xlink">
 <defs>
  <style type="text/css">
   <![CDATA[
    .fil1 {fill:#DCC08D}
    .fil0 {fill:#FBF7F0}
   ]]>
  </style>
 </defs>
 <g id="Layer_x0020_1">
  <metadata id="CorelCorpID_0Corel-Layer"/>
  <g id="_2124246664336">
   <path class="fil0" d="M13038 0c7201,0 13039,5834 13039,13032 0,7197 -5838,13031 -13039,13031 -7200,0 -13038,-5834 -13038,-13031 0,-7198 5838,-13032 13038,-13032z"/>
   <path class="fil1" d="M18489 5352l-10901 0 0 4748 -2475 1036 0 8592 15851 0 0 -8592 -2475 -1036 0 -4748zm-6495 6723c-369,-149 -649,-386 -843,-711 -193,-325 -289,-702 -289,-1150 0,-421 96,-816 289,-1193 194,-369 466,-650 817,-852 351,-193 746,-298 1167,-298 377,0 720,79 1027,237 307,158 535,369 693,632 149,263 228,544 228,851 0,255 -61,509 -175,746 -123,246 -290,439 -492,588 -158,114 -289,167 -386,167 -44,0 -96,-17 -131,-53 -36,-35 -53,-79 -53,-131 0,-27 26,-167 79,-422l395 -1825 -492 0 -87 421c-106,-166 -229,-289 -378,-377 -140,-79 -289,-123 -447,-123 -211,0 -422,70 -641,219 -220,141 -404,360 -553,650 -141,290 -219,579 -219,869 0,237 43,447 140,640 96,202 219,343 377,439 150,97 308,141 465,141 150,0 299,-35 448,-123 141,-79 272,-193 395,-325 9,105 26,184 53,237 35,70 87,123 166,158 79,44 176,61 308,61 386,0 746,-184 1079,-552 369,-404 553,-869 553,-1396 0,-369 -88,-711 -263,-1027 -211,-360 -492,-632 -852,-816 -359,-184 -763,-281 -1211,-281 -579,0 -1079,132 -1483,395 -404,263 -720,632 -948,1123 -175,404 -272,825 -272,1264 0,395 79,773 228,1115 123,263 307,509 544,711 237,210 527,360 869,465 343,105 711,158 1115,158 439,0 816,-61 1123,-176 307,-114 580,-272 799,-465 228,-202 386,-395 483,-588l-492 0c-158,228 -403,430 -719,588 -325,158 -720,237 -1203,237 -439,0 -851,-70 -1211,-228l0 0zm184 -1141c-114,-140 -175,-333 -175,-579 0,-158 26,-334 88,-518 61,-184 140,-342 236,-474 97,-132 194,-228 290,-290 105,-52 220,-87 334,-87 175,0 324,70 447,210 123,132 185,325 185,571 0,184 -36,368 -97,553 -70,184 -149,342 -255,456 -105,123 -210,211 -324,272 -114,62 -220,88 -316,88 -158,0 -290,-61 -413,-202l0 0zm5819 -5090l0 6872 -4959 3107 -4950 -3107 0 -6872 9909 0zm-10409 6565l-1694 -1062 1694 -711 0 1773zm-1983 6828l0 -7487 7433 4661 7434 -4661 0 7487 -14867 0zm14577 -7890l-1693 1062 0 -1773 1693 711z"/>
  </g>
 </g>
</svg>
