<?xml version="1.0" encoding="UTF-8"?>
<!DOCTYPE svg PUBLIC "-//W3C//DTD SVG 1.1//EN" "http://www.w3.org/Graphics/SVG/1.1/DTD/svg11.dtd">
<!-- Creator: CorelDRAW X7 -->
<svg xmlns="http://www.w3.org/2000/svg" xml:space="preserve" width="100%" height="100%" version="1.1" style="shape-rendering:geometricPrecision; text-rendering:geometricPrecision; image-rendering:optimizeQuality; fill-rule:evenodd; clip-rule:evenodd"
viewBox="0 0 5000 5000"
 xmlns:xlink="http://www.w3.org/1999/xlink">
 <defs>
  <style type="text/css">
   <![CDATA[
    .fil0 {fill:#6C87C3}
    .fil1 {fill:white}
   ]]>
  </style>
 </defs>
 <g id="Layer_x0020_1">
  <metadata id="CorelCorpID_0Corel-Layer"/>
  <g id="_2724845611072">
   <circle class="fil0" cx="2500" cy="2500" r="2500"/>
   <path class="fil1" d="M1090 1793l666 0 572 -702c7,-89 82,-159 172,-159 90,0 166,69 173,159l571 702 667 0 0 1833 -2821 0 0 -1833zm529 920c0,-48 7,-88 22,-120 10,-24 25,-45 43,-64 18,-19 38,-33 60,-42 29,-12 62,-18 100,-18 69,0 124,21 165,64 41,42 62,102 62,178 0,75 -21,134 -61,176 -41,43 -96,64 -164,64 -70,0 -125,-21 -165,-63 -41,-43 -62,-101 -62,-175zm97 -3c0,52 12,92 37,120 24,27 55,40 92,40 38,0 69,-13 93,-40 24,-27 36,-68 36,-122 0,-53 -12,-93 -35,-119 -24,-27 -55,-40 -94,-40 -38,0 -70,14 -93,40 -24,27 -36,67 -36,121zm428 233l0 -466 151 0c57,0 94,2 111,7 27,7 49,22 67,46 18,23 27,53 27,90 0,29 -5,53 -15,72 -11,20 -24,35 -40,46 -16,11 -32,19 -48,22 -23,5 -55,7 -97,7l-62 0 0 176 -94 0zm94 -387l0 132 52 0c37,0 61,-2 74,-7 12,-5 22,-12 29,-23 7,-10 11,-22 11,-36 0,-17 -5,-31 -15,-42 -10,-11 -23,-18 -38,-21 -11,-2 -34,-3 -67,-3l-46 0zm340 387l0 -466 344 0 0 79 -250 0 0 103 233 0 0 79 -233 0 0 126 259 0 0 79 -353 0zm433 0l0 -466 91 0 192 312 0 -312 87 0 0 466 -94 0 -189 -306 0 306 -87 0zm-363 -1749c-31,52 -87,84 -148,84 -61,0 -117,-32 -148,-84l-488 599 1272 0 -488 -599zm-148 -178c-49,0 -89,40 -89,89 0,49 40,89 89,89 49,0 89,-40 89,-89 0,-49 -40,-89 -89,-89zm-882 1054l1764 0c0,138 113,250 251,250l0 779c-138,0 -251,113 -251,251l-1764 0c0,-138 -113,-251 -251,-251l0 -779c138,0 251,-112 251,-250zm1691 84l-1618 0c-15,58 -46,111 -87,152 -42,42 -94,72 -153,87l0 633c59,16 111,46 153,88 41,41 72,93 87,152l1618 0c15,-59 46,-111 87,-152 42,-42 94,-72 153,-88l0 -633c-59,-15 -111,-45 -153,-87 -41,-41 -72,-94 -87,-152zm518 -277l-2653 0 0 1665 2653 0 0 -1665z"/>
  </g>
 </g>
</svg>
