<?xml version="1.0" encoding="UTF-8"?>
<!DOCTYPE svg PUBLIC "-//W3C//DTD SVG 1.1//EN" "http://www.w3.org/Graphics/SVG/1.1/DTD/svg11.dtd">
<!-- Creator: CorelDRAW X7 -->
<svg xmlns="http://www.w3.org/2000/svg" xml:space="preserve" width="100%" height="100%" version="1.1" style="shape-rendering:geometricPrecision; text-rendering:geometricPrecision; image-rendering:optimizeQuality; fill-rule:evenodd; clip-rule:evenodd"
viewBox="0 0 5000 5000"
 xmlns:xlink="http://www.w3.org/1999/xlink">
 <defs>
  <style type="text/css">
   <![CDATA[
    .fil1 {fill:#5C56A2}
    .fil0 {fill:#FCE9CA}
   ]]>
  </style>
 </defs>
 <g id="Layer_x0020_1">
  <metadata id="CorelCorpID_0Corel-Layer"/>
  <g id="_2381214213744">
   <circle class="fil0" cx="2500" cy="2500" r="2500"/>
   <path class="fil1" d="M2500 1051c801,0 1449,648 1449,1449 0,802 -647,1449 -1449,1449 -801,0 -1449,-648 -1449,-1449 0,-800 649,-1449 1449,-1449zm337 1048l0 -45c-2,-90 -37,-158 -91,-204 -123,-106 -375,-114 -501,-7 -104,89 -123,276 4,355 104,64 243,80 377,112l211 -211zm-1266 1394l530 -530c12,13 25,26 39,38 83,73 197,115 315,125l0 226 90 0 0 -224c119,-7 235,-46 320,-120 137,-118 183,-340 91,-497 -29,-51 -70,-90 -119,-120 -35,-22 -73,-39 -112,-52l768 -768c237,253 366,581 366,929 0,752 -607,1359 -1359,1359 -347,0 -676,-129 -929,-366zm594 -593l490 -491c49,14 94,32 135,57 37,24 68,52 89,89 70,120 32,296 -72,386 -157,135 -454,129 -609,-7 -12,-10 -23,-22 -33,-34zm1264 -1393l-506 506c-11,-99 -54,-175 -119,-231 -67,-58 -161,-92 -259,-102l0 -226 -90 0 0 224c-100,6 -198,38 -268,98 -150,128 -163,387 15,498 101,62 229,82 351,109l-437 438c-20,-44 -31,-95 -31,-153l-89 0c0,84 19,158 53,220l-541 541c-236,-253 -366,-581 -366,-929 0,-751 606,-1359 1358,-1359 348,0 676,131 929,366z"/>
  </g>
 </g>
</svg>
