<?xml version="1.0" encoding="UTF-8"?>
<!DOCTYPE svg PUBLIC "-//W3C//DTD SVG 1.1//EN" "http://www.w3.org/Graphics/SVG/1.1/DTD/svg11.dtd">
<!-- Creator: CorelDRAW X7 -->
<svg xmlns="http://www.w3.org/2000/svg" xml:space="preserve" width="100%" height="100%" version="1.1" style="shape-rendering:geometricPrecision; text-rendering:geometricPrecision; image-rendering:optimizeQuality; fill-rule:evenodd; clip-rule:evenodd"
viewBox="0 0 5000 5000"
 xmlns:xlink="http://www.w3.org/1999/xlink">
 <defs>
  <style type="text/css">
   <![CDATA[
    .fil1 {fill:#5C56A2}
    .fil0 {fill:#FCE9CA}
   ]]>
  </style>
 </defs>
 <g id="Layer_x0020_1">
  <metadata id="CorelCorpID_0Corel-Layer"/>
  <g id="_2381264749248">
   <circle class="fil0" cx="2500" cy="2500" r="2500"/>
   <path class="fil1" d="M1091 3645l2818 0 0 -2290 -2818 0 0 2290zm264 -2114l176 0 0 89 -176 0 0 -89zm353 0l176 0 0 89 -176 0 0 -89zm352 0l176 0 0 89 -176 0 0 -89zm-705 617l1189 0 0 88 -1189 0 0 -88zm0 352l1189 0 0 88 -1189 0 0 -88zm0 352l1189 0 0 88 -1189 0 0 -88zm1365 88l925 0 0 -792 -925 0 0 792zm279 -396l143 143 63 -62 161 -162 -63 -62 -161 161 -81 -81 -62 63zm-191 -308l749 0 0 616 -749 0 0 -616zm-1629 1321l0 -1761 2642 0 0 1761 -2642 0zm2642 -2113l0 263 -2642 0 0 -263 2642 0z"/>
  </g>
 </g>
</svg>
