<?xml version="1.0" encoding="UTF-8"?>
<!DOCTYPE svg PUBLIC "-//W3C//DTD SVG 1.1//EN" "http://www.w3.org/Graphics/SVG/1.1/DTD/svg11.dtd">
<!-- Creator: CorelDRAW X7 -->
<svg xmlns="http://www.w3.org/2000/svg" xml:space="preserve" width="100%" height="100%" version="1.1" style="shape-rendering:geometricPrecision; text-rendering:geometricPrecision; image-rendering:optimizeQuality; fill-rule:evenodd; clip-rule:evenodd"
viewBox="0 0 5000 5000"
 xmlns:xlink="http://www.w3.org/1999/xlink">
 <defs>
  <style type="text/css">
   <![CDATA[
    .fil1 {fill:#5C56A2}
    .fil0 {fill:#FCE9CA}
   ]]>
  </style>
 </defs>
 <g id="Layer_x0020_1">
  <metadata id="CorelCorpID_0Corel-Layer"/>
  <g id="_2381290636992">
   <circle class="fil0" cx="2500" cy="2500" r="2500"/>
   <path class="fil1" d="M2236 2173l526 0 0 674 -526 0 0 -674zm614 674l0 -761 -701 0 0 761 -604 0 0 -832 954 -954 980 979 -2 0 0 807 -627 0zm-175 627l0 -540 -351 0 0 540c76,19 130,89 130,168 0,96 -77,173 -174,173 -97,0 -173,-76 -173,-173 0,-80 52,-149 129,-168l0 -540c-116,0 -233,0 -350,0 0,251 0,501 0,752l-456 0c-20,77 -88,129 -168,129 -98,0 -174,-76 -174,-173 0,-97 77,-174 174,-174 78,0 149,54 168,130l368 0 0 -664 -340 0 0 -832 -265 266 -62 -62 1368 -1369 1369 1369 -62 62 -241 -242 0 808 -365 0 0 664 370 0c8,-31 24,-58 46,-79 30,-31 74,-51 122,-51 48,0 92,20 124,51 30,31 50,74 50,123 0,48 -20,92 -50,124 -32,30 -76,49 -124,49 -48,0 -92,-19 -122,-49 -22,-22 -38,-50 -46,-80l-457 0c0,-251 0,-501 0,-752 -117,0 -234,0 -351,0l0 540c77,19 130,88 130,168 0,97 -76,173 -174,173 -96,0 -173,-77 -173,-173 0,-79 54,-149 130,-168zm-1413 84c-47,0 -84,37 -84,84 0,48 35,84 84,84 47,0 84,-38 84,-84 0,-46 -38,-84 -84,-84zm1018 0c-47,0 -84,37 -84,84 0,48 36,84 84,84 48,0 84,-38 84,-84 0,-46 -38,-84 -84,-84zm1458 0c48,0 84,37 84,84 0,49 -36,84 -84,84 -47,0 -84,-38 -84,-84 0,-46 38,-84 84,-84zm-1020 0c48,0 84,37 84,84 0,48 -35,84 -84,84 -47,0 -84,-38 -84,-84 0,-46 38,-84 84,-84z"/>
  </g>
 </g>
</svg>
