<?xml version="1.0" encoding="UTF-8"?>
<!DOCTYPE svg PUBLIC "-//W3C//DTD SVG 1.1//EN" "http://www.w3.org/Graphics/SVG/1.1/DTD/svg11.dtd">
<!-- Creator: CorelDRAW X7 -->
<svg xmlns="http://www.w3.org/2000/svg" xml:space="preserve" width="100%" height="100%" version="1.1" style="shape-rendering:geometricPrecision; text-rendering:geometricPrecision; image-rendering:optimizeQuality; fill-rule:evenodd; clip-rule:evenodd"
viewBox="0 0 5000 5000"
 xmlns:xlink="http://www.w3.org/1999/xlink">
 <defs>
  <style type="text/css">
   <![CDATA[
    .fil1 {fill:#5C56A2}
    .fil0 {fill:#FCE9CA}
   ]]>
  </style>
 </defs>
 <g id="Layer_x0020_1">
  <metadata id="CorelCorpID_0Corel-Layer"/>
  <g id="_2381310387440">
   <circle class="fil0" cx="2500" cy="2500" r="2500"/>
   <path class="fil1" d="M3909 3645l-2818 0 0 -2290 2818 0 0 2290zm-1717 -617l-749 0 0 -704 749 0 0 704zm88 -308l0 0 308 0 0 528 528 0 0 133 529 0 0 -353 -529 0 0 133 -441 0 0 -441 441 0 0 132 529 0 0 -352 -529 0 0 132 -441 0 0 -440 441 0 0 132 529 0 0 -353 -529 0 0 133 -528 0 0 528 -308 0 0 -396 -924 0 0 880 924 0 0 -308 0 -88zm924 44l0 -176 353 0 0 176 -353 0zm0 352l353 0 0 177 -353 0 0 -177zm353 -880l-353 0 0 -176 353 0 0 176zm-2201 -705l176 0 0 88 -176 0 0 -88zm352 0l176 0 0 88 -176 0 0 -88zm352 0l176 0 0 88 -176 0 0 -88zm1761 2026l0 -1761 -2642 0 0 1761 2642 0zm-2642 -2114l0 264 2642 0 0 -264 -2642 0z"/>
  </g>
 </g>
</svg>
