<?xml version="1.0" encoding="UTF-8"?>
<!DOCTYPE svg PUBLIC "-//W3C//DTD SVG 1.1//EN" "http://www.w3.org/Graphics/SVG/1.1/DTD/svg11.dtd">
<!-- Creator: CorelDRAW X7 -->
<svg xmlns="http://www.w3.org/2000/svg" xml:space="preserve" width="100%" height="100%" version="1.1" style="shape-rendering:geometricPrecision; text-rendering:geometricPrecision; image-rendering:optimizeQuality; fill-rule:evenodd; clip-rule:evenodd"
viewBox="0 0 5000 5000"
 xmlns:xlink="http://www.w3.org/1999/xlink">
 <defs>
  <style type="text/css">
   <![CDATA[
    .fil0 {fill:#B5E4FA}
    .fil1 {fill:#5C56A2}
   ]]>
  </style>
 </defs>
 <g id="Layer_x0020_1">
  <metadata id="CorelCorpID_0Corel-Layer"/>
  <g id="_2381290606528">
   <circle class="fil0" cx="2500" cy="2500" r="2500"/>
   <path class="fil1" d="M1428 1722l0 2208 2144 0 0 -2860 -1493 0 -651 652zm391 1661l145 145c21,-21 42,-42 63,-63l163 -163 -63 -64 -163 163 -82 -81 -63 63zm0 -447l145 145c21,-21 42,-42 63,-63l163 -163 -63 -63 -163 163 -82 -82 -63 63zm0 -446l145 144c21,-21 42,-42 63,-63l163 -163 -63 -63 -163 163 -82 -82 -63 64zm0 -447l145 144c21,-21 42,-42 63,-63l163 -163 -63 -63 -163 163 -82 -82 -63 64zm413 1395l983 0 0 90 -983 0 0 -90zm0 -447l983 0 0 90 -983 0 0 -90zm0 -446l983 0 0 89 -983 0 0 -89zm0 -447l983 0 0 89 -983 0 0 -89zm-179 -875l0 473 -473 0 473 -473zm1430 2618l-1966 0 0 -2056 626 0 0 -625 1340 0 0 2681z"/>
  </g>
 </g>
</svg>
