<?xml version="1.0" encoding="UTF-8"?>
<!DOCTYPE svg PUBLIC "-//W3C//DTD SVG 1.1//EN" "http://www.w3.org/Graphics/SVG/1.1/DTD/svg11.dtd">
<!-- Creator: CorelDRAW X7 -->
<svg xmlns="http://www.w3.org/2000/svg" xml:space="preserve" width="100%" height="100%" version="1.1" style="shape-rendering:geometricPrecision; text-rendering:geometricPrecision; image-rendering:optimizeQuality; fill-rule:evenodd; clip-rule:evenodd"
viewBox="0 0 5000 5000"
 xmlns:xlink="http://www.w3.org/1999/xlink">
 <defs>
  <style type="text/css">
   <![CDATA[
    .fil0 {fill:#B5E4FA}
    .fil1 {fill:#5C56A2}
   ]]>
  </style>
 </defs>
 <g id="Layer_x0020_1">
  <metadata id="CorelCorpID_0Corel-Layer"/>
  <g id="_2381310386544">
   <circle class="fil0" cx="2500" cy="2500" r="2500"/>
   <path class="fil1" d="M1069 1369l0 2264 2862 0 0 -2264 -389 0 0 -182 -90 0 0 182 -194 0 0 -182c-30,0 -61,0 -91,0l0 182 -194 0 0 -182c-29,0 -60,0 -90,0l0 182 -195 0 0 -182c-30,0 -61,0 -89,0l0 182 -195 0 0 -182c-30,0 -61,0 -91,0l0 182 -194 0 0 -182c-31,0 -60,0 -90,0l0 182 -194 0 0 -182c-31,0 -61,0 -92,0l0 182 -194 0 0 -182 -90 0 0 182 -390 0zm1929 1762l231 231c77,-77 302,-302 377,-379l-64 -64 -313 315 -167 -167 -64 64zm-1449 -1673l0 182 -90 0 0 -182 -299 0 0 273 2682 0 0 -273 -300 0 0 182 -90 0 0 -182 -194 0 0 182c-30,0 -61,0 -91,0l0 -182 -194 0 0 182c-29,0 -60,0 -90,0l0 -182 -195 0 0 182c-30,0 -61,0 -89,0l0 -182 -195 0 0 182c-30,0 -61,0 -91,0l0 -182 -194 0 0 182c-31,0 -60,0 -90,0l0 -182 -194 0 0 182c-31,0 -61,0 -92,0l0 -182 -194 0 0 0zm680 1904l543 0 0 -544 -543 0 0 544zm90 -454l363 0 0 362 -363 0 0 -362zm-90 -361l543 0 0 -544 -543 0 0 544zm90 -455l363 0 0 363 -363 0 0 -363zm679 455l544 0 0 -544 -544 0 0 544zm92 -455l362 0 0 363 -362 0 0 -363zm-1631 1270l544 0 0 -544 -544 0 0 544zm90 -454l363 0 0 362 -363 0 0 -362zm-90 -361l544 0 0 -544 -544 0 0 544zm90 -455l363 0 0 363 -363 0 0 -363zm-389 1451l0 -1722 2682 0 0 1722 -2682 0z"/>
  </g>
 </g>
</svg>
