<?xml version="1.0" encoding="UTF-8"?>
<!DOCTYPE svg PUBLIC "-//W3C//DTD SVG 1.1//EN" "http://www.w3.org/Graphics/SVG/1.1/DTD/svg11.dtd">
<!-- Creator: CorelDRAW X7 -->
<svg xmlns="http://www.w3.org/2000/svg" xml:space="preserve" width="100%" height="100%" version="1.1" style="shape-rendering:geometricPrecision; text-rendering:geometricPrecision; image-rendering:optimizeQuality; fill-rule:evenodd; clip-rule:evenodd"
viewBox="0 0 5000 5000"
 xmlns:xlink="http://www.w3.org/1999/xlink">
 <defs>
  <style type="text/css">
   <![CDATA[
    .fil1 {fill:#5C56A2}
    .fil0 {fill:#FCE9CA}
   ]]>
  </style>
 </defs>
 <g id="Layer_x0020_1">
  <metadata id="CorelCorpID_0Corel-Layer"/>
  <g id="_2381310394096">
   <circle class="fil0" cx="2500" cy="2500" r="2500"/>
   <path class="fil1" d="M3418 1355l-2348 0c0,621 0,1224 0,1844l772 0 0 357 -89 0 0 89c726,0 1451,0 2177,0l0 -890 -334 0 0 -260 -178 0 0 -1140zm-406 1603l-63 -62 -136 136 -56 -55 -62 62 118 118 199 -199zm776 112l-63 -63 -136 137 -55 -56 -63 63 118 118 199 -199zm-1522 -889l162 -162 -63 -63 -162 162 -80 -81 -63 63 143 143 63 -62zm1063 1377l-1130 0 0 -87 1130 0 0 87zm0 -174l-1130 0 0 -802 1308 0 0 173 -178 0 0 629zm359 80l-89 0 0 -89 89 0 0 89zm152 -619l-421 0 0 710 421 0 0 -710zm-1730 711l-178 0 0 -357 178 0 0 357zm0 -446l-951 0 0 -266 951 0 0 266zm0 -355l-951 0 0 -1311 2170 0 0 1051 -1219 0 0 260z"/>
  </g>
 </g>
</svg>
