<?xml version="1.0" encoding="UTF-8"?>
<!DOCTYPE svg PUBLIC "-//W3C//DTD SVG 1.1//EN" "http://www.w3.org/Graphics/SVG/1.1/DTD/svg11.dtd">
<!-- Creator: CorelDRAW X7 -->
<svg xmlns="http://www.w3.org/2000/svg" xml:space="preserve" width="100%" height="100%" version="1.1" style="shape-rendering:geometricPrecision; text-rendering:geometricPrecision; image-rendering:optimizeQuality; fill-rule:evenodd; clip-rule:evenodd"
viewBox="0 0 5000 5000"
 xmlns:xlink="http://www.w3.org/1999/xlink">
 <defs>
  <style type="text/css">
   <![CDATA[
    .fil1 {fill:#5C56A2}
    .fil0 {fill:#FCE9CA}
   ]]>
  </style>
 </defs>
 <g id="Layer_x0020_1">
  <metadata id="CorelCorpID_0Corel-Layer"/>
  <g id="_2381310388080">
   <circle class="fil0" cx="2500" cy="2500" r="2500"/>
   <path class="fil1" d="M3854 1443c-502,109 -964,58 -1354,-269 -390,327 -852,378 -1354,269 -15,1499 223,2076 1354,2407 1131,-331 1369,-908 1354,-2407zm-841 1623l0 -669 -178 0 0 -245c0,-92 -38,-176 -99,-236 -60,-61 -144,-99 -236,-99 -92,0 -176,38 -236,99 -61,60 -98,144 -98,236l0 245 -179 0 0 669 1026 0zm-937 -580l848 0 0 491 -848 0 0 -491zm669 -89l-490 0 0 -245c0,-67 27,-129 72,-173 44,-45 106,-72 173,-72 67,0 129,27 173,72 45,44 72,105 72,173l0 245zm-113 290c0,-36 -14,-69 -38,-93l-1 -1c-23,-24 -57,-38 -93,-38 -36,0 -70,14 -94,38l0 1c-23,24 -38,57 -38,93 0,37 15,70 38,94 14,13 31,24 49,31l0 97 90 0 0 -97c18,-7 35,-18 48,-31l1 0c24,-24 38,-57 38,-94zm-101 30l0 0zm-61 -61c7,-7 18,-12 30,-12 12,0 23,5 31,12l0 0c7,8 12,19 12,31 0,12 -5,23 -12,31 -8,7 -19,12 -31,12 -12,0 -23,-5 -30,-13 -8,-7 -13,-18 -13,-30 0,-12 5,-23 13,-31zm1117 -902c-7,468 -56,1037 -324,1367 -188,231 -481,361 -763,449 -281,-88 -575,-218 -763,-449 -268,-330 -317,-899 -324,-1367 387,33 756,-35 1087,-248 331,213 700,281 1087,248zm-2263 -99c1,291 15,592 69,871 45,235 122,464 275,651 206,254 524,392 832,487 308,-95 626,-233 832,-487 153,-187 230,-416 275,-651 54,-279 68,-580 69,-871 -421,55 -822,-9 -1176,-257 -354,248 -755,312 -1176,257zm526 -271c212,-37 411,-126 593,-278l57 -48 57 48c183,152 381,241 593,278 215,38 445,24 685,-28l107 -23 1 110c7,763 -51,1295 -258,1683 -211,397 -570,637 -1160,809l-25 7 -25 -7c-590,-172 -948,-412 -1160,-809 -207,-388 -265,-920 -258,-1683l1 -110 107 23c240,52 470,66 685,28z"/>
  </g>
 </g>
</svg>
