<?xml version="1.0" encoding="UTF-8"?>
<!DOCTYPE svg PUBLIC "-//W3C//DTD SVG 1.1//EN" "http://www.w3.org/Graphics/SVG/1.1/DTD/svg11.dtd">
<!-- Creator: CorelDRAW X7 -->
<svg xmlns="http://www.w3.org/2000/svg" xml:space="preserve" width="100%" height="100%" version="1.1" style="shape-rendering:geometricPrecision; text-rendering:geometricPrecision; image-rendering:optimizeQuality; fill-rule:evenodd; clip-rule:evenodd"
viewBox="0 0 1665 1665"
 xmlns:xlink="http://www.w3.org/1999/xlink">
 <defs>
  <style type="text/css">
   <![CDATA[
    .fil0 {fill:black}
   ]]>
  </style>
 </defs>
 <g id="Layer_x0020_1">
  <metadata id="CorelCorpID_0Corel-Layer"/>
  <path class="fil0" d="M833 57c207,0 402,80 548,227 147,147 228,341 228,549 0,207 -81,402 -228,548 -146,147 -341,228 -548,228 -208,0 -403,-81 -549,-228 -147,-146 -227,-341 -227,-548 0,-208 80,-402 227,-549 146,-147 341,-227 549,-227zm318 569c-162,-250 -558,-208 -662,94 -36,104 -36,246 0,350 23,67 61,121 107,162 17,16 36,29 56,41 193,116 476,46 551,-227l-54 -15c-71,251 -335,298 -497,174 -21,-16 -40,-34 -56,-56 -22,-28 -40,-60 -53,-97 -32,-93 -32,-223 0,-314 13,-37 31,-70 53,-98l11 -14c124,-140 351,-145 474,0 14,17 27,36 38,56 12,23 22,48 30,76l25 -7 29 -8c-6,-21 -13,-41 -21,-61 -9,-20 -19,-39 -31,-56zm-595 -166c14,-16 23,-38 23,-62 0,-5 0,-10 -1,-15 -12,-73 -104,-107 -160,-51 -38,38 -35,100 0,133 9,7 18,13 27,18 28,13 57,12 81,0 11,-6 21,-13 30,-23zm-48 -92c24,19 17,68 -23,68 -19,0 -30,-11 -35,-24 -8,-22 4,-51 35,-51 9,0 17,2 23,7zm913 -124c-157,-157 -366,-244 -588,-244 -223,0 -432,87 -589,244 -157,157 -244,366 -244,589 0,222 87,431 244,588 157,158 366,244 589,244 222,0 431,-86 588,-244 158,-157 244,-366 244,-588 0,-223 -86,-432 -244,-589z"/>
 </g>
</svg>
