<?xml version="1.0" encoding="UTF-8"?>
<!DOCTYPE svg PUBLIC "-//W3C//DTD SVG 1.1//EN" "http://www.w3.org/Graphics/SVG/1.1/DTD/svg11.dtd">
<!-- Creator: CorelDRAW X7 -->
<svg xmlns="http://www.w3.org/2000/svg" xml:space="preserve" width="100%" height="100%" version="1.1" style="shape-rendering:geometricPrecision; text-rendering:geometricPrecision; image-rendering:optimizeQuality; fill-rule:evenodd; clip-rule:evenodd"
viewBox="0 0 1665 1665"
 xmlns:xlink="http://www.w3.org/1999/xlink">
 <defs>
  <style type="text/css">
   <![CDATA[
    .fil0 {fill:black}
   ]]>
  </style>
 </defs>
 <g id="Layer_x0020_1">
  <metadata id="CorelCorpID_0Corel-Layer"/>
  <path class="fil0" d="M833 57c207,0 402,80 548,227 147,147 228,341 228,549 0,207 -81,402 -228,548 -146,147 -341,228 -548,228 -208,0 -403,-81 -549,-228 -147,-146 -227,-341 -227,-548 0,-208 80,-402 227,-549 146,-147 341,-227 549,-227zm335 845l-516 0 0 -282 517 0 57 0 0 0 0 -56 0 0 -57 0 -573 0 0 56 0 0 0 742 56 0 0 -403 516 0 0 -57zm-642 -598c48,0 87,39 87,87 0,48 -39,86 -87,86 -48,0 -86,-38 -86,-86 0,-48 38,-87 86,-87zm22 65c-6,-5 -13,-9 -22,-9 -8,0 -16,4 -21,9 -6,6 -9,13 -9,22 0,8 3,16 9,21 5,5 13,9 21,9 9,0 16,-4 22,-9 5,-5 8,-13 8,-21 0,-9 -3,-16 -8,-22zm873 -125c-157,-157 -366,-244 -588,-244 -223,0 -432,87 -589,244 -157,157 -244,366 -244,589 0,222 87,431 244,588 157,158 366,244 589,244 222,0 431,-86 588,-244 158,-157 244,-366 244,-588 0,-223 -86,-432 -244,-589z"/>
 </g>
</svg>
