<?xml version="1.0" encoding="UTF-8"?>
<!DOCTYPE svg PUBLIC "-//W3C//DTD SVG 1.1//EN" "http://www.w3.org/Graphics/SVG/1.1/DTD/svg11.dtd">
<!-- Creator: CorelDRAW X7 -->
<svg xmlns="http://www.w3.org/2000/svg" xml:space="preserve" width="100%" height="100%" version="1.1" style="shape-rendering:geometricPrecision; text-rendering:geometricPrecision; image-rendering:optimizeQuality; fill-rule:evenodd; clip-rule:evenodd"
viewBox="0 0 1665 1665"
 xmlns:xlink="http://www.w3.org/1999/xlink">
 <defs>
  <style type="text/css">
   <![CDATA[
    .fil0 {fill:black;fill-rule:nonzero}
   ]]>
  </style>
 </defs>
 <g id="Layer_x0020_1">
  <metadata id="CorelCorpID_0Corel-Layer"/>
  <path class="fil0" d="M1045 970l101 26c-21,82 -59,145 -114,188 -54,43 -121,65 -200,65 -81,0 -147,-17 -199,-50 -51,-33 -90,-82 -116,-144 -27,-64 -40,-131 -40,-204 0,-78 15,-147 45,-206 30,-59 73,-103 128,-134 56,-30 117,-45 184,-45 76,0 139,19 191,57 52,39 88,93 108,163l-99 23c-17,-55 -43,-95 -76,-120 -33,-25 -75,-38 -126,-38 -58,0 -107,14 -146,42 -39,28 -66,66 -82,112 -16,48 -24,96 -24,146 0,64 10,121 29,169 18,48 47,84 87,107 39,24 82,36 128,36 56,0 103,-16 142,-49 39,-32 65,-80 79,-144zm-662 -497c69,63 161,11 161,-66 0,-83 -102,-126 -161,-67 -38,38 -35,101 0,133zm67 -104c49,0 49,75 0,75 -50,0 -50,-75 0,-75zm383 -312c207,0 402,80 548,227 147,147 228,341 228,549 0,207 -81,402 -228,548 -146,147 -341,228 -548,228 -208,0 -403,-81 -549,-228 -147,-146 -227,-341 -227,-548 0,-208 80,-402 227,-549 146,-147 341,-227 549,-227zm588 187c-157,-157 -366,-244 -588,-244 -223,0 -432,87 -589,244 -157,157 -244,366 -244,589 0,222 87,431 244,588 157,158 366,244 589,244 222,0 431,-86 588,-244 158,-157 244,-366 244,-588 0,-223 -86,-432 -244,-589z"/>
 </g>
</svg>
