<?xml version="1.0" encoding="UTF-8"?>
<!DOCTYPE svg PUBLIC "-//W3C//DTD SVG 1.1//EN" "http://www.w3.org/Graphics/SVG/1.1/DTD/svg11.dtd">
<!-- Creator: CorelDRAW X7 -->
<svg xmlns="http://www.w3.org/2000/svg" xml:space="preserve" width="100%" height="100%" version="1.1" style="shape-rendering:geometricPrecision; text-rendering:geometricPrecision; image-rendering:optimizeQuality; fill-rule:evenodd; clip-rule:evenodd"
viewBox="0 0 1665 1665"
 xmlns:xlink="http://www.w3.org/1999/xlink">
 <defs>
  <style type="text/css">
   <![CDATA[
    .fil0 {fill:black}
   ]]>
  </style>
 </defs>
 <g id="Layer_x0020_1">
  <metadata id="CorelCorpID_0Corel-Layer"/>
  <path class="fil0" d="M538 369c-11,0 -20,5 -27,11 -7,7 -11,17 -11,27 0,10 4,20 11,27l0 0c7,6 16,11 27,11 10,0 19,-5 26,-11 7,-7 11,-17 11,-27 0,-10 -4,-20 -11,-27l0 0c-7,-6 -16,-11 -26,-11zm128 983l0 -758 511 0 0 89 -411 0 0 236 356 0 0 89 -356 0 0 344 -100 0zm167 -1295c207,0 402,80 548,227 147,147 228,341 228,549 0,207 -81,402 -228,548 -146,147 -341,228 -548,228 -208,0 -403,-81 -549,-228 -147,-146 -227,-341 -227,-548 0,-208 80,-402 227,-549 146,-147 341,-227 549,-227zm588 187c-157,-157 -366,-244 -588,-244 -223,0 -432,87 -589,244 -157,157 -244,366 -244,589 0,222 87,431 244,588 157,158 366,244 589,244 222,0 431,-86 588,-244 158,-157 244,-366 244,-588 0,-223 -86,-432 -244,-589zm-950 96c17,-17 41,-27 67,-27 26,0 49,10 66,27l0 1c17,17 28,40 28,66 0,26 -11,49 -28,67 -17,17 -40,27 -66,27 -26,0 -50,-10 -67,-27l0 -1 0 0c-17,-17 -27,-40 -27,-66 0,-26 10,-49 27,-67z"/>
 </g>
</svg>
