<?xml version="1.0" encoding="UTF-8"?>
<!DOCTYPE svg PUBLIC "-//W3C//DTD SVG 1.1//EN" "http://www.w3.org/Graphics/SVG/1.1/DTD/svg11.dtd">
<!-- Creator: CorelDRAW X7 -->
<svg xmlns="http://www.w3.org/2000/svg" xml:space="preserve" width="100%" height="100%" version="1.1" style="shape-rendering:geometricPrecision; text-rendering:geometricPrecision; image-rendering:optimizeQuality; fill-rule:evenodd; clip-rule:evenodd"
viewBox="0 0 1480 1480"
 xmlns:xlink="http://www.w3.org/1999/xlink">
 <defs>
  <style type="text/css">
   <![CDATA[
    .fil0 {fill:black;fill-rule:nonzero}
   ]]>
  </style>
 </defs>
 <g id="Layer_x0020_1">
  <metadata id="CorelCorpID_0Corel-Layer"/>
  <path class="fil0" d="M416 329c-10,0 -19,4 -26,11 -7,7 -11,16 -11,27 0,10 4,20 11,26l0 0c6,7 16,11 26,11 11,0 20,-4 27,-11 7,-7 11,-16 11,-26 0,-11 -4,-20 -11,-27l0 0c-7,-7 -16,-11 -27,-11zm612 334c-8,-29 -19,-56 -33,-80l0 0c-14,-24 -31,-46 -50,-64 -18,-16 -37,-30 -58,-41 -21,-12 -44,-20 -67,-26 -24,-5 -48,-8 -71,-8 -24,1 -48,4 -71,10 -26,7 -51,18 -75,32 -22,14 -44,31 -63,52 -14,15 -27,31 -37,49l0 0c-11,17 -19,37 -27,58 -7,21 -13,44 -16,68 -4,25 -6,51 -6,79 0,28 2,55 6,79 3,25 9,48 16,69 8,21 16,40 27,58l0 0c10,17 23,34 37,48 19,21 41,39 63,52 24,15 49,25 75,32 23,7 47,10 71,10 23,1 47,-2 71,-7 23,-6 46,-15 67,-26 21,-11 40,-25 58,-42 19,-18 36,-39 50,-64l0 0c14,-24 25,-50 33,-79l55 14c-10,35 -23,66 -39,94l0 0c-17,29 -38,55 -61,76 -21,20 -44,37 -69,51 -26,14 -53,24 -81,30 -28,7 -56,10 -85,10 -29,-1 -57,-5 -85,-12 -31,-9 -60,-21 -89,-38 -27,-17 -52,-37 -76,-62 -16,-18 -31,-37 -44,-58l0 -1c-12,-21 -23,-44 -31,-68 -9,-24 -15,-50 -19,-78 -4,-28 -6,-57 -6,-88 0,-30 2,-60 6,-87 4,-28 10,-54 19,-79 8,-24 19,-46 31,-68l0 0c13,-21 28,-41 44,-58 24,-25 49,-45 76,-62 29,-17 58,-30 89,-38 28,-7 56,-11 85,-12 29,0 57,3 85,9 28,7 55,17 81,31 25,13 48,30 69,50 23,22 44,48 61,77l0 0c16,28 29,59 39,93l-55 15zm-288 -663c409,0 740,331 740,740 0,409 -331,740 -740,740 -409,0 -740,-331 -740,-740 0,-409 331,-740 740,-740zm484 257c-124,-124 -295,-200 -484,-200 -189,0 -360,76 -483,200 -124,123 -200,294 -200,483 0,189 76,360 200,484 123,123 294,200 483,200 189,0 360,-77 484,-200 123,-124 200,-295 200,-484 0,-189 -77,-360 -200,-483zm-874 43c17,-17 40,-27 66,-27 26,0 50,10 67,27l0 0c17,17 27,41 27,67 0,26 -10,49 -27,66 -17,17 -41,28 -67,28 -26,0 -49,-11 -66,-28l0 0 0 0c-17,-17 -28,-40 -28,-66 0,-26 11,-50 28,-67z"/>
 </g>
</svg>
