<?xml version="1.0" encoding="UTF-8"?>
<!DOCTYPE svg PUBLIC "-//W3C//DTD SVG 1.1//EN" "http://www.w3.org/Graphics/SVG/1.1/DTD/svg11.dtd">
<!-- Creator: CorelDRAW X7 -->
<svg xmlns="http://www.w3.org/2000/svg" xml:space="preserve" width="100%" height="100%" version="1.1" style="shape-rendering:geometricPrecision; text-rendering:geometricPrecision; image-rendering:optimizeQuality; fill-rule:evenodd; clip-rule:evenodd"
viewBox="0 0 1480 1480"
 xmlns:xlink="http://www.w3.org/1999/xlink">
 <defs>
  <style type="text/css">
   <![CDATA[
    .fil0 {fill:black;fill-rule:nonzero}
   ]]>
  </style>
 </defs>
 <g id="Layer_x0020_1">
  <metadata id="CorelCorpID_0Corel-Layer"/>
  <path class="fil0" d="M416 329c-10,0 -19,4 -26,11 -7,7 -11,16 -11,27 0,10 4,20 11,26l0 0c6,7 16,11 26,11 11,0 20,-4 27,-11 7,-7 11,-16 11,-26 0,-11 -4,-20 -11,-27l0 0c-7,-7 -16,-11 -27,-11zm324 -329c409,0 740,331 740,740 0,409 -331,740 -740,740 -409,0 -740,-331 -740,-740 0,-409 331,-740 740,-740zm484 257c-124,-124 -295,-200 -484,-200 -189,0 -360,76 -483,200 -124,123 -200,294 -200,483 0,189 76,360 200,484 123,123 294,200 483,200 189,0 360,-77 484,-200 123,-124 200,-295 200,-484 0,-189 -77,-360 -200,-483zm-100 279l-555 0 0 237 497 0 0 56 -497 0 0 368 -57 0c0,-261 0,-457 0,-717l612 0 0 56zm-774 -236c17,-17 40,-27 66,-27 26,0 50,10 67,27l0 0c17,17 27,41 27,67 0,26 -10,49 -27,66 -17,17 -41,28 -67,28 -26,0 -49,-11 -66,-28l0 0 0 0c-17,-17 -28,-40 -28,-66 0,-26 11,-50 28,-67z"/>
 </g>
</svg>
