<?xml version="1.0" encoding="UTF-8"?>
<!DOCTYPE svg PUBLIC "-//W3C//DTD SVG 1.1//EN" "http://www.w3.org/Graphics/SVG/1.1/DTD/svg11.dtd">
<!-- Creator: CorelDRAW X7 -->
<svg xmlns="http://www.w3.org/2000/svg" xml:space="preserve" width="100%" height="100%" version="1.1" style="shape-rendering:geometricPrecision; text-rendering:geometricPrecision; image-rendering:optimizeQuality; fill-rule:evenodd; clip-rule:evenodd"
viewBox="0 0 1480 1480"
 xmlns:xlink="http://www.w3.org/1999/xlink">
 <defs>
  <style type="text/css">
   <![CDATA[
    .fil0 {fill:black}
   ]]>
  </style>
 </defs>
 <g id="Layer_x0020_1">
  <metadata id="CorelCorpID_0Corel-Layer"/>
  <g>
   <path class="fil0" d="M740 655l2 0 0 0 2 0 0 1 4 0 0 0 0 0 0 0 3 0 0 0 3 0 0 1 0 0 2 0 0 0 4 1 0 0 0 0 0 0 3 1 0 0 2 0 0 0 2 1 0 0 1 0 0 0 3 1 0 0 1 1 0 0 3 1 0 0 0 0 0 0 3 2 0 0 1 0 2 1 0 0 2 1 0 0 0 0 1 1 3 2 0 0 2 1 0 0 2 2 0 0 0 0 3 2 2 3 0 0 2 1 0 1 1 1 2 1 0 0 2 2 2 3 0 1 0 0 2 1 0 1 1 1 0 0 2 3 1 1 0 0 0 1 1 2 0 0 1 1 0 1 0 0 2 3 0 0 0 0 0 0 1 3 1 0 0 1 0 0 1 3 0 0 0 1 0 0 1 2 0 0 0 2 0 0 1 3 0 0 0 1 0 0 1 3 0 0 0 2 0 0 1 1 0 2 0 0 0 3 0 0 0 1 0 0 1 3 0 0 0 3 0 0 0 1 -1 0c0,23 -9,44 -24,59 -14,14 -35,24 -58,24l0 -166zm0 0l-1 0 0 0 -3 0 0 1 -3 0 0 0 -1 0 0 0 -3 0 0 0 -2 0 -1 1 0 0 -2 0 0 0 -3 1 0 0 -1 0 0 0 -3 1 0 0 -2 0 0 0 -2 1 0 0 -1 0 0 0 -3 1 0 0 0 1 0 0 -3 1 0 0 -1 0 0 0 -3 2 0 0 -1 0 -1 1 0 0 -2 1 0 0 0 0 -2 1 -3 2 0 0 -1 1 0 0 -2 2 0 0 -1 0 -2 2 -3 3 0 0 -1 1 -1 1 -1 1 -1 1 0 0 -2 2 -2 3 -1 1 0 0 -2 1 0 1 -1 1 0 0 -2 3 0 1 0 0 -1 1 -1 2 0 0 -1 1 0 1 0 0 -1 3 -1 0 0 0 0 0 -1 3 0 0 0 1 0 0 -1 3 -1 0 0 1 0 0 0 2 0 0 -1 2 0 0 -1 3 0 0 0 1 0 0 -1 3 0 0 0 2 0 0 0 1 -1 2 1 0 -1 3 0 0 0 1 0 0 0 3 0 0 0 3 0 0 0 1 0 0c0,23 9,44 24,59 15,14 35,24 58,24l0 -166zm0 -655l28 0 0 137 137 -137 40 40 -177 177 0 385 4 0 3 1 3 1 3 1 4 1 3 1 3 2 3 1 3 1 3 2 3 1 3 2 0 0 3 1 3 2 3 2 0 0 1 1 271 -272 0 -251 57 0 0 194 100 -100 39 40 -99 100 193 0 0 57 -250 0 -271 272 1 1 0 0 2 3 2 3 1 3 0 0 2 3 1 3 2 3 1 3 1 3 2 3 1 3 1 4 1 3 1 3 0 4 1 3 384 0 176 -177 40 40 -137 137 141 0 0 56 -141 0 137 138 -40 40 -176 -178 -384 0c-3,18 -10,34 -20,48l271 272 250 0 0 57 -193 0 99 100 -39 40 -100 -100 0 194 -57 0 0 -251 -271 -271c-14,9 -30,16 -48,19l0 385 177 177 -40 40 -137 -137 0 141 -28 0 -28 0 0 -141 -137 137 -40 -40 177 -177 0 -385c-17,-3 -34,-10 -48,-19l-271 271 0 251 -57 0 0 -194 -99 100 -40 -40 99 -100 -193 0 0 -57 250 0 271 -272c-9,-14 -16,-30 -20,-48l-383 0 -177 178 -40 -40 137 -138 -141 0 0 -56 141 0 -137 -137 40 -40 177 177 383 0 1 -3 1 -4 1 -3 1 -3 1 -4 1 -3 1 -3 1 -3 2 -3 1 -3 2 -3 1 -3 0 0 2 -3 1 -3 2 -3 0 0 1 -1 -271 -272 -250 0 0 -57 193 0 -99 -100 40 -40 99 100 0 -194 57 0 0 251 271 272 1 -1 0 0 3 -2 3 -2 3 -1 0 0 3 -2 3 -1 3 -2 3 -1 3 -1 3 -2 4 -1 3 -1 3 -1 3 -1 4 -1 3 0 0 -385 -177 -177 40 -40 137 137 0 -137 28 0z"/>
  </g>
 </g>
</svg>
