<?xml version="1.0" encoding="UTF-8"?>
<!DOCTYPE svg PUBLIC "-//W3C//DTD SVG 1.1//EN" "http://www.w3.org/Graphics/SVG/1.1/DTD/svg11.dtd">
<!-- Creator: CorelDRAW X7 -->
<svg xmlns="http://www.w3.org/2000/svg" xml:space="preserve" width="100%" height="100%" version="1.1" style="shape-rendering:geometricPrecision; text-rendering:geometricPrecision; image-rendering:optimizeQuality; fill-rule:evenodd; clip-rule:evenodd"
viewBox="0 0 1480 1480"
 xmlns:xlink="http://www.w3.org/1999/xlink">
 <defs>
  <style type="text/css">
   <![CDATA[
    .fil0 {fill:black}
   ]]>
  </style>
 </defs>
 <g id="Layer_x0020_1">
  <metadata id="CorelCorpID_0Corel-Layer"/>
  <g>
   <path class="fil0" d="M740 823l2 0 0 0 2 0 0 0 4 -1 0 0 0 0 0 0 3 0 0 0 3 0 0 -1 0 0 2 0 0 0 4 -1 0 0 0 0 0 0 3 -1 0 0 2 0 0 0 2 -1 0 0 1 0 0 0 3 -1 0 0 1 0 0 -1 3 -1 0 0 0 0 0 0 3 -2 0 0 1 0 2 -1 0 0 2 -1 0 0 0 0 1 -1 3 -2 0 0 2 -1 0 0 2 -2 0 0 0 0 3 -2 2 -2 0 0 2 -2 0 -1 1 0 2 -2 0 0 2 -2 2 -3 0 0 0 0 2 -2 0 0 1 -2 0 0 2 -3 1 -1 0 0 0 0 1 -2 0 0 1 -2 0 -1 0 0 2 -3 0 0 0 0 0 0 1 -3 1 0 0 -1 0 0 1 -3 0 0 0 -1 0 0 1 -2 0 0 0 -2 0 0 1 -3 0 0 0 0 0 0 1 -4 0 0 0 -2 0 0 1 0 0 -3 0 0 0 -3 0 0 0 0 0 0 1 -4 0 0 0 -2 0 0 0 -2 -1 0c0,-23 -9,-43 -24,-58 -14,-15 -35,-24 -58,-24l0 165zm0 0l-1 0 0 0 -3 0 0 0 -3 -1 0 0 -1 0 0 0 -3 0 0 0 -2 0 -1 -1 0 0 -2 0 0 0 -3 -1 0 0 -1 0 0 0 -3 -1 0 0 -2 0 0 0 -2 -1 0 0 -1 0 0 0 -3 -1 0 0 0 0 0 -1 -3 -1 0 0 -1 0 0 0 -3 -2 0 0 -1 0 -1 -1 0 0 -2 -1 0 0 0 0 -2 -1 -3 -2 0 0 -1 -1 0 0 -2 -2 0 0 -1 0 -2 -2 -3 -2 0 0 -1 -2 -1 -1 -1 0 -1 -2 0 0 -2 -2 -2 -3 -1 0 0 0 -2 -2 0 0 -1 -2 0 0 -2 -3 0 -1 0 0 -1 0 -1 -2 0 0 -1 -2 0 -1 0 0 -1 -3 -1 0 0 0 0 0 -1 -3 0 0 0 -1 0 0 -1 -3 -1 0 0 -1 0 0 0 -2 0 0 -1 -2 0 0 -1 -3 0 0 0 0 0 0 -1 -4 0 0 0 -2 0 0 0 0 -1 -3 1 0 -1 -3 0 0 0 0 0 0 0 -4 0 0 0 -2 0 0 0 -2 0 0c0,-23 9,-43 24,-58 15,-15 35,-24 58,-24l0 165zm0 657l28 0 0 -141 137 137 40 -40 -177 -176 0 -384 4 -1 3 0 3 -1 3 -1 4 -1 3 -1 3 -2 3 -1 3 -1 3 -2 3 -1 3 -2 0 0 3 -1 3 -2 3 -2 0 0 1 -1 141 141 0 250 56 0 0 -194 231 230 39 -39 -230 -231 194 0 0 -56 -250 0 -141 -141 1 -1 0 0 2 -3 2 -3 1 -3 0 0 2 -3 1 -3 2 -3 1 -3 1 -3 2 -3 1 -3 1 -4 1 -3 1 -3 0 -3 1 -4 384 0 176 177 40 -40 -137 -137 141 0 0 -56 -141 0 137 -137 -40 -40 -176 177 -384 0c-3,-17 -10,-34 -20,-48l141 -140 250 0 0 -57 -194 0 230 -230 -39 -40 -231 230 0 -193 -56 0 0 250 -141 140c-14,-9 -30,-16 -48,-20l0 -383 177 -177 -40 -40 -137 137 0 -141 -28 0 -28 0 0 141 -137 -137 -40 40 177 177 0 383c-17,4 -34,11 -48,20l-140 -140 0 -250 -57 0 0 193 -230 -230 -40 40 230 230 -193 0 0 57 250 0 140 140c-9,14 -16,31 -20,48l-383 0 -177 -177 -40 40 137 137 -141 0 0 56 141 0 -137 137 40 40 177 -177 383 0 1 4 1 3 1 3 1 3 1 4 1 3 1 3 1 3 2 3 1 3 2 3 1 3 0 0 2 3 1 3 2 3 0 0 1 1 -140 141 -250 0 0 56 193 0 -230 231 40 39 230 -230 0 194 57 0 0 -250 140 -141 1 1 0 0 3 2 3 2 3 1 0 0 3 2 3 1 3 2 3 1 3 1 3 2 4 1 3 1 3 1 3 1 4 0 3 1 0 384 -177 176 40 40 137 -137 0 141 28 0z"/>
  </g>
 </g>
</svg>
