<?xml version="1.0" encoding="UTF-8"?>
<!DOCTYPE svg PUBLIC "-//W3C//DTD SVG 1.1//EN" "http://www.w3.org/Graphics/SVG/1.1/DTD/svg11.dtd">
<!-- Creator: CorelDRAW X7 -->
<svg xmlns="http://www.w3.org/2000/svg" xml:space="preserve" width="100%" height="100%" version="1.1" style="shape-rendering:geometricPrecision; text-rendering:geometricPrecision; image-rendering:optimizeQuality; fill-rule:evenodd; clip-rule:evenodd"
viewBox="0 0 2304 1537"
 xmlns:xlink="http://www.w3.org/1999/xlink">
 <defs>
  <style type="text/css">
   <![CDATA[
    .fil0 {fill:black}
   ]]>
  </style>
 </defs>
 <g id="Layer_x0020_1">
  <metadata id="CorelCorpID_0Corel-Layer"/>
  <path class="fil0" d="M2141 954c-100,100 -238,162 -391,164l-2 0 -3 0 -568 0 -1177 0 0 -57 1177 0 572 0c137,-1 262,-57 352,-147 91,-91 147,-216 147,-355 0,-139 -56,-264 -147,-355 -91,-91 -217,-148 -356,-148 -138,0 -264,57 -355,148 -91,91 -147,216 -147,355l-56 0c0,-154 62,-294 163,-395 101,-101 241,-164 395,-164 155,0 295,63 396,164 101,101 163,241 163,395 0,154 -62,294 -163,395zm-366 220l-1775 0 0 57 1775 0c35,0 66,14 89,36 22,23 36,54 36,88 0,35 -14,66 -36,89l0 0c-23,22 -54,36 -89,36 -34,0 -65,-14 -88,-36l-40 40c33,33 78,53 128,53 50,0 96,-20 128,-53l0 0 0 0c33,-33 54,-79 54,-129 0,-50 -21,-95 -54,-128 -32,-33 -78,-53 -128,-53zm246 -340c-73,73 -170,114 -272,114l-572 0 -838 0 0 -56 1410 0c87,0 170,-36 232,-98 63,-63 97,-146 97,-235 0,-89 -34,-173 -97,-236 -63,-62 -147,-97 -236,-97l0 -57c104,0 202,41 276,115 73,73 114,171 114,275 0,104 -41,202 -114,275z"/>
 </g>
</svg>
