<?xml version="1.0" encoding="UTF-8"?>
<!DOCTYPE svg PUBLIC "-//W3C//DTD SVG 1.1//EN" "http://www.w3.org/Graphics/SVG/1.1/DTD/svg11.dtd">
<!-- Creator: CorelDRAW X7 -->
<svg xmlns="http://www.w3.org/2000/svg" xml:space="preserve" width="100%" height="100%" version="1.1" style="shape-rendering:geometricPrecision; text-rendering:geometricPrecision; image-rendering:optimizeQuality; fill-rule:evenodd; clip-rule:evenodd"
viewBox="0 0 2112 1808"
 xmlns:xlink="http://www.w3.org/1999/xlink">
 <defs>
  <style type="text/css">
   <![CDATA[
    .fil0 {fill:black}
   ]]>
  </style>
 </defs>
 <g id="Layer_x0020_1">
  <metadata id="CorelCorpID_0Corel-Layer"/>
  <path class="fil0" d="M0 282c568,0 1249,0 1817,0 0,-18 0,-37 0,-56 -568,0 -1249,0 -1817,0 0,19 0,38 0,56zm810 1469l254 0 0 57 -254 0 0 -57zm-766 -1695l2068 0 0 -56 -2068 0 0 56zm709 1582l311 0 0 -56 -311 0 0 56zm-12 -226c149,0 412,0 561,0 0,-18 0,-37 0,-56 -149,0 -412,0 -561,0 0,19 0,38 0,56zm-13 -226c233,0 580,0 813,0 0,-18 0,-37 0,-56 -233,0 -580,0 -813,0 0,19 0,38 0,56zm-351 -226c317,0 746,0 1063,0 0,-18 0,-37 0,-56 -317,0 -746,0 -1063,0 0,19 0,38 0,56zm-13 -226c401,0 914,0 1315,0 0,-18 0,-37 0,-56 -401,0 -914,0 -1315,0 0,19 0,38 0,56zm-238 -226c484,0 1081,0 1565,0 0,-18 0,-37 0,-56 -484,0 -1081,0 -1565,0 0,19 0,38 0,56z"/>
 </g>
</svg>
