<?xml version="1.0" encoding="UTF-8"?>
<!DOCTYPE svg PUBLIC "-//W3C//DTD SVG 1.1//EN" "http://www.w3.org/Graphics/SVG/1.1/DTD/svg11.dtd">
<!-- Creator: CorelDRAW X7 -->
<svg xmlns="http://www.w3.org/2000/svg" xml:space="preserve" width="100%" height="100%" version="1.1" style="shape-rendering:geometricPrecision; text-rendering:geometricPrecision; image-rendering:optimizeQuality; fill-rule:evenodd; clip-rule:evenodd"
viewBox="0 0 2056 1639"
 xmlns:xlink="http://www.w3.org/1999/xlink">
 <defs>
  <style type="text/css">
   <![CDATA[
    .fil0 {fill:black}
   ]]>
  </style>
 </defs>
 <g id="Layer_x0020_1">
  <metadata id="CorelCorpID_0Corel-Layer"/>
  <path class="fil0" d="M44 57l2012 0 0 -57 -2012 0 0 57zm709 1582l254 0 0 -57 -254 0 0 57zm-12 -226c149,0 355,0 505,0 0,-19 0,-38 0,-57 -150,0 -356,0 -505,0 0,19 0,38 0,57zm-13 -226c233,0 523,0 756,0 0,-19 0,-38 0,-57 -233,0 -523,0 -756,0 0,19 0,38 0,57zm-351 -226c317,0 690,0 1007,0 0,-19 0,-38 0,-57 -317,0 -690,0 -1007,0 0,19 0,38 0,57zm-13 -226c401,0 858,0 1258,0 0,-19 0,-38 0,-57 -400,0 -857,0 -1258,0 0,19 0,38 0,57zm-238 -226c484,0 1025,0 1509,0 0,-19 0,-38 0,-57 -484,0 -1025,0 -1509,0 0,19 0,38 0,57zm-126 -226c568,0 1193,0 1761,0 0,-19 0,-38 0,-57 -568,0 -1193,0 -1761,0 0,19 0,38 0,57z"/>
 </g>
</svg>
