<?xml version="1.0" encoding="UTF-8"?>
<!DOCTYPE svg PUBLIC "-//W3C//DTD SVG 1.1//EN" "http://www.w3.org/Graphics/SVG/1.1/DTD/svg11.dtd">
<!-- Creator: CorelDRAW X7 -->
<svg xmlns="http://www.w3.org/2000/svg" xml:space="preserve" width="100%" height="100%" version="1.1" style="shape-rendering:geometricPrecision; text-rendering:geometricPrecision; image-rendering:optimizeQuality; fill-rule:evenodd; clip-rule:evenodd"
viewBox="0 0 1286 1286"
 xmlns:xlink="http://www.w3.org/1999/xlink">
 <defs>
  <style type="text/css">
   <![CDATA[
    .fil0 {fill:black}
   ]]>
  </style>
 </defs>
 <g id="Layer_x0020_1">
  <metadata id="CorelCorpID_0Corel-Layer"/>
  <path class="fil0" d="M643 0c355,0 643,288 643,643 0,355 -288,643 -643,643 -355,0 -643,-288 -643,-643 0,-355 288,-643 643,-643zm219 1027c-89,0 -162,-73 -162,-162 0,-90 73,-162 162,-162l0 56c-29,0 -55,12 -75,31 -19,19 -30,46 -30,75 0,29 11,55 30,75 20,19 46,30 75,30 29,0 56,-11 75,-30l0 0c19,-20 31,-46 31,-75 0,-29 -12,-56 -31,-75l40 -40c29,30 47,70 47,115 0,89 -72,162 -162,162zm-614 -452c52,0 93,42 93,93 0,51 -41,93 -93,93 -51,0 -93,-42 -93,-93 0,-51 42,-93 93,-93zm26 67l0 0c-6,-6 -15,-10 -26,-10 -10,0 -19,4 -25,10l-1 0c-6,7 -10,16 -10,26 0,10 4,19 11,26l0 0c6,7 15,11 25,11 11,0 20,-4 26,-11 7,-7 11,-16 11,-26 0,-10 -4,-19 -11,-26zm118 -416c78,0 141,64 141,142 0,78 -63,141 -141,141 -78,0 -141,-63 -141,-141 0,-78 63,-142 141,-142zm60 82c-15,-16 -36,-25 -60,-25 -23,0 -44,9 -60,25 -15,15 -24,36 -24,60 0,23 9,44 24,60l0 -1c16,16 37,25 60,25 24,0 45,-9 60,-24l0 -1c15,-15 25,-36 25,-59 0,-24 -10,-45 -25,-60l0 0zm605 -80c-106,-106 -252,-171 -414,-171 -162,0 -309,65 -415,171 -106,106 -171,253 -171,415 0,162 65,308 171,414 106,107 253,172 415,172 162,0 308,-65 414,-172 107,-106 172,-252 172,-414 0,-162 -65,-309 -172,-415z"/>
 </g>
</svg>
