<?xml version="1.0" encoding="UTF-8"?>
<!DOCTYPE svg PUBLIC "-//W3C//DTD SVG 1.1//EN" "http://www.w3.org/Graphics/SVG/1.1/DTD/svg11.dtd">
<!-- Creator: CorelDRAW X7 -->
<svg xmlns="http://www.w3.org/2000/svg" xml:space="preserve" width="100%" height="100%" version="1.1" style="shape-rendering:geometricPrecision; text-rendering:geometricPrecision; image-rendering:optimizeQuality; fill-rule:evenodd; clip-rule:evenodd"
viewBox="0 0 1480 1480"
 xmlns:xlink="http://www.w3.org/1999/xlink">
 <defs>
  <style type="text/css">
   <![CDATA[
    .fil0 {fill:black}
   ]]>
  </style>
 </defs>
 <g id="Layer_x0020_1">
  <metadata id="CorelCorpID_0Corel-Layer"/>
  <path class="fil0" d="M740 0c409,0 740,331 740,740 0,409 -331,740 -740,740 -409,0 -740,-331 -740,-740 0,-409 331,-740 740,-740zm219 1124c-89,0 -162,-72 -162,-162 0,-89 73,-162 162,-162l0 57c-29,0 -55,12 -74,31 -19,19 -31,45 -31,74 0,29 12,56 31,75 19,19 45,31 74,31 30,0 56,-12 75,-31l0 0c19,-19 31,-46 31,-75 0,-29 -12,-55 -31,-74l40 -40c29,29 47,69 47,114 0,90 -72,162 -162,162zm-613 -452c51,0 93,42 93,93 0,52 -42,93 -93,93 -52,0 -93,-41 -93,-93 0,-51 41,-93 93,-93zm26 67l0 1c-7,-7 -16,-11 -26,-11 -10,0 -20,4 -26,10l0 1c-7,6 -11,15 -11,25 0,10 4,20 11,26l0 0c6,7 16,11 26,11 10,0 19,-4 26,-11 6,-6 10,-16 10,-26 0,-10 -4,-19 -10,-26zm117 -415c78,0 142,63 142,141 0,78 -64,141 -142,141 -77,0 -141,-63 -141,-141 0,-78 64,-141 141,-141zm60 81c-15,-15 -36,-25 -60,-25 -23,0 -44,10 -59,25 -16,15 -25,36 -25,60 0,23 9,45 25,60l0 0c15,15 36,25 59,25 24,0 45,-10 60,-25l0 0c16,-16 25,-37 25,-60 0,-24 -9,-45 -24,-60l-1 0zm675 -148c-124,-124 -295,-200 -484,-200 -189,0 -360,76 -483,200 -124,123 -200,294 -200,483 0,189 76,360 200,484 123,123 294,200 483,200 189,0 360,-77 484,-200 123,-124 200,-295 200,-484 0,-189 -77,-360 -200,-483z"/>
 </g>
</svg>
