<?xml version="1.0" encoding="UTF-8"?>
<!DOCTYPE svg PUBLIC "-//W3C//DTD SVG 1.1//EN" "http://www.w3.org/Graphics/SVG/1.1/DTD/svg11.dtd">
<!-- Creator: CorelDRAW X7 -->
<svg xmlns="http://www.w3.org/2000/svg" xml:space="preserve" width="100%" height="100%" version="1.1" style="shape-rendering:geometricPrecision; text-rendering:geometricPrecision; image-rendering:optimizeQuality; fill-rule:evenodd; clip-rule:evenodd"
viewBox="0 0 1228 1480"
 xmlns:xlink="http://www.w3.org/1999/xlink">
 <defs>
  <style type="text/css">
   <![CDATA[
    .fil0 {fill:black}
   ]]>
  </style>
 </defs>
 <g id="Layer_x0020_1">
  <metadata id="CorelCorpID_0Corel-Layer"/>
  <path class="fil0" d="M257 1224c-124,-124 -200,-295 -200,-484 0,-189 76,-360 200,-483 123,-124 294,-200 483,-200 148,0 285,47 397,127 -154,135 -252,334 -252,556 0,26 2,51 4,76 -54,26 -92,82 -92,146 0,90 73,162 162,162 11,0 22,-1 32,-3 39,66 89,125 146,176 -112,80 -249,127 -397,127 -189,0 -360,-77 -483,-200zm926 -1005c14,-12 30,-24 45,-35 -14,-13 -30,-25 -45,-37 -124,-92 -277,-147 -443,-147 -409,0 -740,331 -740,740 0,409 331,740 740,740 166,0 319,-54 443,-147 15,-11 31,-24 45,-36 -15,-12 -31,-23 -45,-36 -14,-12 -28,-24 -41,-37 -37,-38 -70,-79 -98,-124 -10,-16 -19,-32 -28,-49 -30,-60 -52,-125 -64,-194 -4,-18 -6,-37 -8,-56 -1,-20 -2,-40 -2,-61 0,-189 76,-360 200,-483 13,-13 27,-26 41,-38zm-222 849c0,0 -1,0 -2,0 -29,0 -55,-12 -74,-31 -19,-19 -31,-46 -31,-75 0,-29 12,-55 31,-74 4,-4 8,-8 13,-11 12,67 34,131 63,191zm-613 -603c0,78 64,141 141,141 78,0 142,-63 142,-141 0,-78 -64,-141 -142,-141 -77,0 -141,63 -141,141zm82 60l0 0zm119 0l0 0zm-60 25c-23,0 -44,-10 -59,-25 -16,-15 -25,-37 -25,-60 0,-24 9,-45 25,-60 15,-15 36,-25 59,-25 24,0 45,10 60,25l1 0c15,15 24,36 24,60 0,23 -9,44 -25,60 -15,15 -36,25 -60,25zm-236 215c0,52 41,93 93,93 51,0 93,-41 93,-93 0,-51 -42,-93 -93,-93 -52,0 -93,42 -93,93zm67 26l0 0zm52 -51l0 0zm-26 62c-10,0 -20,-4 -26,-11 -7,-6 -11,-16 -11,-26 0,-10 4,-19 11,-25l0 -1c6,-6 16,-10 26,-10 10,0 19,4 26,10 6,7 10,16 10,26 0,10 -4,20 -10,26 -7,7 -16,11 -26,11z"/>
 </g>
</svg>
