<?xml version="1.0" encoding="UTF-8"?>
<!DOCTYPE svg PUBLIC "-//W3C//DTD SVG 1.1//EN" "http://www.w3.org/Graphics/SVG/1.1/DTD/svg11.dtd">
<!-- Creator: CorelDRAW X7 -->
<svg xmlns="http://www.w3.org/2000/svg" xml:space="preserve" width="100%" height="100%" version="1.1" style="shape-rendering:geometricPrecision; text-rendering:geometricPrecision; image-rendering:optimizeQuality; fill-rule:evenodd; clip-rule:evenodd"
viewBox="0 0 1228 1480"
 xmlns:xlink="http://www.w3.org/1999/xlink">
 <defs>
  <style type="text/css">
   <![CDATA[
    .fil0 {fill:black}
   ]]>
  </style>
 </defs>
 <g id="Layer_x0020_1">
  <metadata id="CorelCorpID_0Corel-Layer"/>
  <path class="fil0" d="M257 1224c-124,-124 -200,-295 -200,-484 0,-189 76,-360 200,-483 123,-124 294,-200 483,-200 148,0 285,47 397,127 -181,159 -272,393 -248,632 9,88 33,173 72,252 43,87 103,165 176,229 -112,80 -249,127 -397,127 -189,0 -360,-77 -483,-200zm971 -1040c-14,-13 -30,-25 -45,-37 -124,-92 -277,-147 -443,-147 -409,0 -740,331 -740,740 0,409 331,740 740,740 166,0 319,-54 443,-147 15,-11 31,-24 45,-36 -89,-64 -162,-148 -212,-246 -40,-78 -64,-163 -72,-250 -17,-202 54,-400 198,-544 27,-27 55,-51 86,-73z"/>
 </g>
</svg>
