<?xml version="1.0" encoding="UTF-8"?>
<!DOCTYPE svg PUBLIC "-//W3C//DTD SVG 1.1//EN" "http://www.w3.org/Graphics/SVG/1.1/DTD/svg11.dtd">
<!-- Creator: CorelDRAW X7 -->
<svg xmlns="http://www.w3.org/2000/svg" xml:space="preserve" width="100%" height="100%" version="1.1" style="shape-rendering:geometricPrecision; text-rendering:geometricPrecision; image-rendering:optimizeQuality; fill-rule:evenodd; clip-rule:evenodd"
viewBox="0 0 1133 1480"
 xmlns:xlink="http://www.w3.org/1999/xlink">
 <defs>
  <style type="text/css">
   <![CDATA[
    .fil0 {fill:black}
   ]]>
  </style>
 </defs>
 <g id="Layer_x0020_1">
  <metadata id="CorelCorpID_0Corel-Layer"/>
  <path class="fil0" d="M1133 1368c-21,-9 -41,-19 -61,-30 -56,-31 -107,-70 -151,-114 -124,-124 -201,-295 -201,-484 0,-189 77,-360 201,-483 44,-45 95,-84 151,-115 20,-11 40,-21 61,-29 -20,-13 -40,-24 -61,-35 -100,-50 -213,-78 -332,-78 -409,0 -740,331 -740,740 0,409 331,740 740,740 119,0 232,-28 332,-78 21,-11 41,-22 61,-34zm-694 -603c0,-51 -42,-93 -93,-93 -52,0 -93,42 -93,93 0,52 41,93 93,93 51,0 93,-41 93,-93zm-67 -25l0 0zm-52 51l0 0zm26 -62c10,0 19,4 26,10 6,7 10,16 10,26 0,10 -4,20 -10,26 -7,7 -16,11 -26,11 -10,0 -20,-4 -26,-11 -7,-6 -11,-16 -11,-26 0,-10 4,-19 11,-25l0 -1c6,-6 16,-10 26,-10zm143 -123c78,0 142,-63 142,-141 0,-78 -64,-141 -142,-141 -77,0 -141,63 -141,141 0,78 64,141 141,141zm60 -81l0 0zm-119 0l0 0zm144 -60c0,23 -9,44 -25,60 -15,15 -36,25 -60,25 -23,0 -44,-10 -59,-25 -16,-15 -25,-37 -25,-60 0,-24 9,-45 25,-60 15,-15 36,-25 59,-25 24,0 45,10 60,25l1 0c15,15 24,36 24,60zm438 -352c-209,130 -348,363 -348,627 0,265 139,497 348,628 -84,36 -175,56 -272,56 -189,0 -360,-77 -483,-200 -124,-124 -201,-295 -201,-484 0,-189 77,-360 201,-483 123,-124 294,-200 483,-200 97,0 188,19 272,56z"/>
 </g>
</svg>
