<?xml version="1.0" encoding="UTF-8"?>
<!DOCTYPE svg PUBLIC "-//W3C//DTD SVG 1.1//EN" "http://www.w3.org/Graphics/SVG/1.1/DTD/svg11.dtd">
<!-- Creator: CorelDRAW X7 -->
<svg xmlns="http://www.w3.org/2000/svg" xml:space="preserve" width="100%" height="100%" version="1.1" style="shape-rendering:geometricPrecision; text-rendering:geometricPrecision; image-rendering:optimizeQuality; fill-rule:evenodd; clip-rule:evenodd"
viewBox="0 0 1133 1480"
 xmlns:xlink="http://www.w3.org/1999/xlink">
 <defs>
  <style type="text/css">
   <![CDATA[
    .fil0 {fill:black}
   ]]>
  </style>
 </defs>
 <g id="Layer_x0020_1">
  <metadata id="CorelCorpID_0Corel-Layer"/>
  <path class="fil0" d="M1133 1368c-250,-108 -413,-354 -413,-628 0,-189 77,-360 201,-483 61,-61 133,-110 212,-144 -118,-74 -254,-113 -393,-113 -409,0 -740,331 -740,740 0,409 331,740 740,740 139,0 275,-38 393,-112zm-121 -1255c-209,130 -348,363 -348,627 0,265 139,497 348,628 -84,36 -175,56 -272,56 -189,0 -360,-77 -483,-200 -124,-124 -201,-295 -201,-484 0,-377 307,-683 684,-683 97,0 188,19 272,56z"/>
 </g>
</svg>
