<?xml version="1.0" encoding="UTF-8"?>
<!DOCTYPE svg PUBLIC "-//W3C//DTD SVG 1.1//EN" "http://www.w3.org/Graphics/SVG/1.1/DTD/svg11.dtd">
<!-- Creator: CorelDRAW X7 -->
<svg xmlns="http://www.w3.org/2000/svg" xml:space="preserve" width="100%" height="100%" version="1.1" style="shape-rendering:geometricPrecision; text-rendering:geometricPrecision; image-rendering:optimizeQuality; fill-rule:evenodd; clip-rule:evenodd"
viewBox="0 0 1052 1480"
 xmlns:xlink="http://www.w3.org/1999/xlink">
 <defs>
  <style type="text/css">
   <![CDATA[
    .fil0 {fill:black}
   ]]>
  </style>
 </defs>
 <g id="Layer_x0020_1">
  <metadata id="CorelCorpID_0Corel-Layer"/>
  <path class="fil0" d="M257 257c123,-124 294,-200 483,-200 45,0 88,4 130,12 -135,63 -248,166 -324,293 -25,-24 -59,-38 -97,-38 -77,0 -141,63 -141,141 0,78 64,141 141,141 2,0 4,0 6,0 -8,43 -12,88 -12,134 0,297 175,554 427,671 -42,9 -85,13 -130,13 -189,0 -360,-77 -483,-200 -124,-124 -201,-295 -201,-484 0,-189 77,-360 201,-483zm704 -164c30,-10 60,-18 91,-24 -29,-14 -59,-26 -91,-35 -69,-22 -144,-34 -221,-34 -409,0 -740,331 -740,740 0,409 331,740 740,740 77,0 152,-11 221,-33 32,-10 62,-22 91,-36 -31,-6 -61,-14 -91,-24 -99,-34 -189,-90 -262,-163 -123,-124 -200,-295 -200,-484 0,-52 6,-102 17,-151 14,-61 36,-120 65,-174 32,-59 72,-112 118,-158 73,-73 163,-130 262,-164zm-443 322c-21,42 -38,86 -50,133 -6,1 -12,2 -19,2 -23,0 -44,-10 -60,-25 -15,-15 -24,-37 -24,-60 0,-24 9,-45 24,-60 16,-15 37,-25 60,-25 24,0 45,10 60,25l1 0c3,3 5,6 8,10zm-128 110l0 0zm-84 333c51,0 93,-41 93,-93 0,-51 -42,-93 -93,-93 -52,0 -93,42 -93,93 0,52 41,93 93,93zm-26 -67l0 0zm52 -51l0 0zm10 25c0,10 -4,20 -10,26 -7,7 -16,11 -26,11 -10,0 -20,-4 -26,-11 -7,-6 -11,-16 -11,-26 0,-10 4,-19 11,-25l0 -1c6,-6 16,-10 26,-10 10,0 19,4 26,10 6,7 10,16 10,26z"/>
 </g>
</svg>
