<?xml version="1.0" encoding="UTF-8"?>
<!DOCTYPE svg PUBLIC "-//W3C//DTD SVG 1.1//EN" "http://www.w3.org/Graphics/SVG/1.1/DTD/svg11.dtd">
<!-- Creator: CorelDRAW X7 -->
<svg xmlns="http://www.w3.org/2000/svg" xml:space="preserve" width="100%" height="100%" version="1.1" style="shape-rendering:geometricPrecision; text-rendering:geometricPrecision; image-rendering:optimizeQuality; fill-rule:evenodd; clip-rule:evenodd"
viewBox="0 0 1052 1480"
 xmlns:xlink="http://www.w3.org/1999/xlink">
 <defs>
  <style type="text/css">
   <![CDATA[
    .fil0 {fill:black}
   ]]>
  </style>
 </defs>
 <g id="Layer_x0020_1">
  <metadata id="CorelCorpID_0Corel-Layer"/>
  <path class="fil0" d="M257 257c123,-124 294,-200 483,-200 45,0 88,4 130,12 -261,122 -427,384 -427,671 0,297 175,554 427,671 -42,9 -85,13 -130,13 -189,0 -360,-77 -483,-200 -124,-124 -201,-295 -201,-484 0,-189 77,-360 201,-483zm795 -188c-97,-46 -204,-69 -312,-69 -409,0 -740,331 -740,740 0,409 331,740 740,740 108,0 215,-23 312,-69 -133,-25 -256,-91 -353,-187 -123,-124 -200,-295 -200,-484 0,-182 72,-355 200,-483 97,-97 220,-162 353,-188z"/>
 </g>
</svg>
