<?xml version="1.0" encoding="UTF-8"?>
<!DOCTYPE svg PUBLIC "-//W3C//DTD SVG 1.1//EN" "http://www.w3.org/Graphics/SVG/1.1/DTD/svg11.dtd">
<!-- Creator: CorelDRAW X7 -->
<svg xmlns="http://www.w3.org/2000/svg" xml:space="preserve" width="100%" height="100%" version="1.1" style="shape-rendering:geometricPrecision; text-rendering:geometricPrecision; image-rendering:optimizeQuality; fill-rule:evenodd; clip-rule:evenodd"
viewBox="0 0 1033 1480"
 xmlns:xlink="http://www.w3.org/1999/xlink">
 <defs>
  <style type="text/css">
   <![CDATA[
    .fil0 {fill:black}
   ]]>
  </style>
 </defs>
 <g id="Layer_x0020_1">
  <metadata id="CorelCorpID_0Corel-Layer"/>
  <path class="fil0" d="M257 1224c-124,-124 -201,-295 -201,-484 0,-189 77,-360 201,-483 108,-108 251,-180 412,-197 -264,114 -448,375 -448,680 0,305 184,567 448,680 -161,-17 -304,-89 -412,-196zm594 -1159c36,-5 73,-8 110,-8 25,0 48,1 72,3 -57,-25 -118,-42 -182,-52 -36,-5 -73,-8 -111,-8 -409,0 -740,331 -740,740 0,409 331,740 740,740 38,0 75,-2 111,-8 64,-9 125,-27 182,-52 -24,3 -47,4 -72,4 -37,0 -74,-3 -110,-9 -145,-24 -274,-92 -373,-191 -124,-124 -200,-295 -200,-484 0,-189 76,-360 200,-483 99,-99 228,-168 373,-192z"/>
 </g>
</svg>
