<?xml version="1.0" encoding="UTF-8"?>
<!DOCTYPE svg PUBLIC "-//W3C//DTD SVG 1.1//EN" "http://www.w3.org/Graphics/SVG/1.1/DTD/svg11.dtd">
<!-- Creator: CorelDRAW X7 -->
<svg xmlns="http://www.w3.org/2000/svg" xml:space="preserve" width="100%" height="100%" version="1.1" style="shape-rendering:geometricPrecision; text-rendering:geometricPrecision; image-rendering:optimizeQuality; fill-rule:evenodd; clip-rule:evenodd"
viewBox="0 0 1955 1955"
 xmlns:xlink="http://www.w3.org/1999/xlink">
 <defs>
  <style type="text/css">
   <![CDATA[
    .fil0 {fill:black}
   ]]>
  </style>
 </defs>
 <g id="Layer_x0020_1">
  <metadata id="CorelCorpID_0Corel-Layer"/>
  <path class="fil0" d="M978 237c408,0 740,332 740,741 0,408 -332,740 -740,740 -409,0 -741,-332 -741,-740 0,-409 332,-741 741,-741zm-465 -120c24,42 49,84 73,125l-49 29c-24,-42 -49,-84 -73,-126l49 -28zm-368 347c42,25 84,49 126,73l-29 49c-41,-24 -83,-49 -125,-73l28 -49zm-145 485c48,0 97,0 145,0l0 57c-48,0 -97,0 -145,0l0 -57zm117 493c42,-24 84,-48 125,-72l29 48c-42,25 -84,49 -126,73l-28 -49zm347 368c25,-42 49,-84 73,-125l49 28c-24,42 -49,84 -73,125l-49 -28zm485 145c0,-48 0,-96 0,-145l57 0c0,49 0,97 0,145l-57 0zm493 -117c-24,-41 -48,-83 -72,-125l48 -28c25,41 49,83 73,125l-49 28zm368 -347c-42,-24 -84,-48 -125,-73l28 -49c42,25 84,49 125,73l-28 49zm145 -485c-48,0 -96,0 -145,0l0 -57c49,0 97,0 145,0l0 57zm-117 -493c-41,24 -83,49 -125,73l-28 -49c41,-24 83,-49 125,-73l28 49zm-347 -368c-24,42 -48,84 -73,126l-49 -29c25,-41 49,-83 73,-125l49 28zm-485 -145c0,48 0,97 0,145l-57 0c0,-48 0,-97 0,-145l57 0zm455 494c-124,-124 -295,-200 -483,-200 -189,0 -360,76 -484,200 -124,124 -200,295 -200,484 0,188 76,359 200,483 124,124 295,200 484,200 188,0 359,-76 483,-200 124,-124 200,-295 200,-483 0,-189 -76,-360 -200,-484z"/>
 </g>
</svg>
