<?xml version="1.0" encoding="UTF-8"?>
<!DOCTYPE svg PUBLIC "-//W3C//DTD SVG 1.1//EN" "http://www.w3.org/Graphics/SVG/1.1/DTD/svg11.dtd">
<!-- Creator: CorelDRAW X7 -->
<svg xmlns="http://www.w3.org/2000/svg" xml:space="preserve" width="100%" height="100%" version="1.1" style="shape-rendering:geometricPrecision; text-rendering:geometricPrecision; image-rendering:optimizeQuality; fill-rule:evenodd; clip-rule:evenodd"
viewBox="0 0 2460 1674"
 xmlns:xlink="http://www.w3.org/1999/xlink">
 <defs>
  <style type="text/css">
   <![CDATA[
    .fil0 {fill:black}
   ]]>
  </style>
 </defs>
 <g id="Layer_x0020_1">
  <metadata id="CorelCorpID_0Corel-Layer"/>
  <path class="fil0" d="M170 1674l209 -210 -39 -40 -210 210 40 40zm1590 -1479c226,-61 459,73 519,299 61,226 -74,459 -299,519 -22,6 -44,10 -66,12 -13,71 -48,135 -97,184 -63,63 -150,102 -246,102l-218 0 -556 0 -368 0c-119,0 -226,-48 -303,-126 -78,-77 -126,-184 -126,-303 0,-101 35,-194 94,-268 55,-69 132,-120 219,-145 4,-128 57,-243 142,-327 87,-88 208,-142 342,-142 114,0 218,39 301,105 75,60 132,143 161,237 14,-6 29,-11 45,-15 26,-7 54,-11 82,-11 52,0 101,13 145,34 55,-73 134,-130 229,-155zm-297 -38l-40 40 15 15 15 15 15 15 7 7 8 8 7 7 40 -40 -7 -7 -8 -8 -7 -7 -15 -15 -15 -15 -15 -15zm536 1037l54 -14 -5 -21 -6 -20 -5 -21 -3 -10 -3 -10 -2 -10 -55 14 3 10 3 11 2 10 6 20 5 21 6 20zm278 -143l40 -40 -15 -15 -15 -15 -15 -15 -8 -8 -7 -7 -8 -8 -40 40 8 8 7 7 8 8 15 15 15 15 15 15zm169 -264l14 -54 -20 -6 -21 -5 -20 -6 -10 -2 -11 -3 -10 -3 -14 55 10 2 10 3 10 3 21 5 20 6 21 5zm14 -312l-14 -55 -21 6 -20 5 -21 6 -10 2 -10 3 -10 3 14 54 10 -2 11 -3 10 -3 20 -5 21 -6 20 -5zm-143 -278l-40 -40 -15 15 -15 15 -15 15 -8 7 -7 8 -8 7 40 40 8 -7 7 -8 8 -7 15 -15 15 -15 15 -15zm-264 -169l-54 -15 -6 21 -5 20 -6 21 -2 10 -3 10 -3 10 55 15 2 -10 3 -10 3 -11 5 -20 6 -21 5 -20zm-312 -15l-55 15 6 20 5 21 6 20 3 11 2 10 3 10 55 -15 -3 -10 -3 -10 -3 -10 -5 -21 -6 -20 -5 -21zm178 955c15,-2 31,-5 46,-9 98,-27 176,-90 223,-171l0 -1c47,-81 63,-180 37,-278 -27,-98 -90,-176 -171,-223l-1 0c-81,-47 -180,-63 -278,-37 -81,22 -149,69 -196,131 13,10 25,20 37,32 59,59 95,140 95,230l0 1c59,26 110,68 146,121 39,56 62,124 62,198l0 6zm-108 -172c-34,-49 -82,-87 -139,-108l-19 -7 1 -21c0,-4 1,-7 1,-9l0 0c0,-2 0,-5 0,-9 0,-74 -30,-142 -79,-190 -49,-49 -116,-79 -190,-79 -24,0 -47,3 -68,8 -22,6 -44,15 -64,26l-32 18 -9 -36c-22,-96 -76,-180 -150,-240 -73,-58 -166,-93 -266,-93 -118,0 -225,48 -302,126 -77,77 -125,184 -125,301l0 0 0 4 0 4 0 23 -22 5c-84,18 -158,66 -210,131 -51,63 -81,144 -81,232 0,103 41,196 108,263 68,68 161,109 264,109l368 0 556 0 218 0c80,0 153,-32 206,-85 53,-53 86,-126 86,-207 0,-62 -19,-119 -52,-166zm-1302 878l210 -210 -40 -40 -210 210 40 40zm339 0l210 -210 -40 -40 -210 210 40 40zm339 0l210 -210 -40 -40 -210 210 40 40zm509 -250l-210 210 40 40 210 -210 -40 -40z"/>
 </g>
</svg>
