<?xml version="1.0" encoding="UTF-8"?>
<!DOCTYPE svg PUBLIC "-//W3C//DTD SVG 1.1//EN" "http://www.w3.org/Graphics/SVG/1.1/DTD/svg11.dtd">
<!-- Creator: CorelDRAW X7 -->
<svg xmlns="http://www.w3.org/2000/svg" xml:space="preserve" width="100%" height="100%" version="1.1" style="shape-rendering:geometricPrecision; text-rendering:geometricPrecision; image-rendering:optimizeQuality; fill-rule:evenodd; clip-rule:evenodd"
viewBox="0 0 652 1480"
 xmlns:xlink="http://www.w3.org/1999/xlink">
 <defs>
  <style type="text/css">
   <![CDATA[
    .fil0 {fill:black}
   ]]>
  </style>
 </defs>
 <g id="Layer_x0020_1">
  <metadata id="CorelCorpID_0Corel-Layer"/>
  <path class="fil0" d="M509 1045c-87,-147 -279,-146 -366,0 -20,33 -30,71 -30,109 0,57 22,111 62,151 40,40 94,62 151,62 57,0 111,-22 151,-62 40,-40 62,-94 62,-151 0,-38 -10,-76 -30,-109zm-415 -29c25,-41 61,-76 104,-99l30 -16 0 -34 0 -810 197 0 0 811 0 33 29 16c43,23 79,58 104,99 24,40 37,88 37,138 0,75 -30,142 -78,191 -49,49 -117,79 -191,79 -74,0 -142,-30 -191,-79 -48,-49 -79,-116 -79,-191 0,-50 14,-98 38,-138zm77 -149c-102,55 -171,163 -171,287 0,180 146,326 326,326 180,0 326,-146 326,-326 0,-123 -69,-231 -171,-286l0 -868 -310 0 0 867z"/>
 </g>
</svg>
