<?xml version="1.0" encoding="UTF-8"?>
<!DOCTYPE svg PUBLIC "-//W3C//DTD SVG 1.1//EN" "http://www.w3.org/Graphics/SVG/1.1/DTD/svg11.dtd">
<!-- Creator: CorelDRAW X7 -->
<svg xmlns="http://www.w3.org/2000/svg" xml:space="preserve" width="100%" height="100%" version="1.1" style="shape-rendering:geometricPrecision; text-rendering:geometricPrecision; image-rendering:optimizeQuality; fill-rule:evenodd; clip-rule:evenodd"
viewBox="0 0 2474 1674"
 xmlns:xlink="http://www.w3.org/1999/xlink">
 <defs>
  <style type="text/css">
   <![CDATA[
    .fil0 {fill:black}
   ]]>
  </style>
 </defs>
 <g id="Layer_x0020_1">
  <metadata id="CorelCorpID_0Corel-Layer"/>
  <path class="fil0" d="M370 483l0 0zm-87 1190l0 -249 -57 0 0 250 57 -1zm678 0l0 -249 -57 0 1 250 56 -1zm339 0l0 -249 -56 0 0 250 56 -1zm339 1l0 -250 -56 0 0 250 56 0zm-734 -476l-97 0 116 -306 -250 249 97 0 -116 306 250 -249zm-367 0l151 0 -21 56 -239 0c-103,0 -196,-41 -264,-109 -67,-67 -108,-160 -108,-263 0,-88 30,-169 81,-232 52,-65 126,-113 210,-131l22 -5 0 -23 0 -4 0 -4c0,-117 48,-224 125,-301 77,-78 184,-126 302,-126 100,0 193,35 266,93 74,60 128,144 150,240l9 36 32 -18c20,-11 42,-20 64,-26 21,-5 44,-8 68,-8 48,0 94,13 133,35 -67,56 -114,136 -128,226l-5 0c-140,0 -254,114 -254,254 0,140 114,254 254,254l415 0c-7,9 -15,18 -24,27 -53,53 -126,85 -206,85l-218 0 -425 0 113 -113 -151 0 179 -474 -531 531zm109 113l-137 361 362 -361 481 0 218 0c96,0 183,-39 246,-102 20,-20 38,-43 53,-67l350 0c60,0 115,-21 159,-57 58,-46 95,-118 95,-197 0,-140 -114,-254 -254,-254 -36,0 -70,7 -102,21 -17,-186 -174,-332 -365,-332 -67,0 -130,18 -184,50 -52,-36 -115,-57 -183,-57 -28,0 -56,4 -82,11 -16,4 -31,9 -45,15 -29,-94 -86,-177 -161,-237 -83,-66 -187,-105 -301,-105 -134,0 -255,54 -342,142 -85,84 -138,199 -142,327 -87,25 -164,76 -219,145 -59,74 -94,167 -94,268 0,119 48,226 126,303 77,78 184,126 303,126l218 0zm1573 -226l-834 0c-109,0 -197,-88 -197,-197 0,-109 88,-198 197,-198l43 0 14 0c0,-171 139,-310 310,-310 171,0 309,137 311,307 -60,47 -98,119 -98,201l56 0c0,-109 89,-198 198,-198 109,0 197,89 197,198 0,109 -88,197 -197,197z"/>
 </g>
</svg>
