<?xml version="1.0" encoding="UTF-8"?>
<!DOCTYPE svg PUBLIC "-//W3C//DTD SVG 1.1//EN" "http://www.w3.org/Graphics/SVG/1.1/DTD/svg11.dtd">
<!-- Creator: CorelDRAW X7 -->
<svg xmlns="http://www.w3.org/2000/svg" xml:space="preserve" width="100%" height="100%" version="1.1" style="shape-rendering:geometricPrecision; text-rendering:geometricPrecision; image-rendering:optimizeQuality; fill-rule:evenodd; clip-rule:evenodd"
viewBox="0 0 2474 1674"
 xmlns:xlink="http://www.w3.org/1999/xlink">
 <defs>
  <style type="text/css">
   <![CDATA[
    .fil0 {fill:black}
   ]]>
  </style>
 </defs>
 <g id="Layer_x0020_1">
  <metadata id="CorelCorpID_0Corel-Layer"/>
  <g id="_2096906455824">
   <line class="fil0" x1="370" y1="483" x2="370" y2= "483" />
   <path class="fil0" d="M379 1497c0,51 -41,93 -93,93 -51,0 -93,-42 -93,-93 0,-52 42,-93 93,-93 52,0 93,41 93,93zm-118 -26l0 0zm51 52l0 0zm11 -26c0,-10 -4,-19 -11,-26 -6,-7 -15,-11 -26,-11 -10,0 -19,4 -25,11 -7,7 -11,16 -11,26 0,10 4,19 10,26l1 0c6,6 15,10 25,10 11,0 20,-4 26,-10 7,-7 11,-16 11,-26z"/>
   <path class="fil0" d="M719 1580c0,52 -42,94 -93,94 -52,0 -93,-42 -93,-94 0,-51 41,-93 93,-93 51,0 93,42 93,93zm-119 -25l0 0zm51 51l0 0zm11 -26c0,-10 -4,-19 -11,-25 -6,-7 -15,-11 -25,-11 -11,0 -20,4 -26,11 -7,6 -11,15 -11,25 0,11 4,20 10,26l1 1c6,6 15,10 26,10 10,0 19,-4 25,-11 7,-6 11,-15 11,-26z"/>
   <path class="fil0" d="M1058 1497c0,51 -42,93 -93,93 -52,0 -93,-42 -93,-93 0,-52 41,-93 93,-93 51,0 93,41 93,93zm-119 -26l0 0zm51 52l0 0zm11 -26c0,-10 -4,-19 -11,-26 -6,-7 -15,-11 -25,-11 -11,0 -20,4 -26,11 -7,7 -11,16 -11,26 0,10 4,19 11,26l0 0c6,6 15,10 26,10 10,0 19,-4 26,-10 6,-7 10,-16 10,-26z"/>
   <path class="fil0" d="M1397 1580c0,52 -42,94 -93,94 -52,0 -93,-42 -93,-94 0,-51 41,-93 93,-93 51,0 93,42 93,93zm-119 -25l0 0zm51 51l0 0zm11 -26c0,-10 -4,-19 -11,-25 -6,-7 -15,-11 -25,-11 -11,0 -20,4 -26,11 -7,6 -11,15 -11,25 0,11 4,20 11,26l0 1c6,6 15,10 26,10 10,0 19,-4 26,-11 6,-6 10,-15 10,-26z"/>
   <path class="fil0" d="M1736 1497c0,51 -42,93 -93,93 -52,0 -93,-42 -93,-93 0,-52 41,-93 93,-93 51,0 93,41 93,93zm-119 -26l0 0zm52 52l0 0zm10 -26c0,-10 -4,-19 -10,-26 -7,-7 -16,-11 -26,-11 -10,0 -20,4 -26,11 -7,7 -11,16 -11,26 0,10 4,19 11,26l0 0c6,6 15,10 26,10 10,0 19,-4 26,-10 6,-7 10,-16 10,-26z"/>
   <g>
    <path class="fil0" d="M370 483l0 0zm762 405c0,140 114,254 254,254l415 0c-7,9 -15,18 -24,27 -53,53 -126,85 -206,85l-218 0 -556 0 -368 0c-103,0 -196,-41 -264,-109 -67,-67 -108,-160 -108,-263 0,-88 30,-169 81,-232 52,-65 126,-113 210,-131l22 -5 0 -23 0 -4 0 -4c0,-117 48,-224 125,-301 77,-78 184,-126 302,-126 100,0 193,35 266,93 74,60 128,144 150,240l9 36 32 -18c20,-11 42,-20 64,-26 21,-5 44,-8 68,-8 48,0 94,13 133,35 -67,56 -114,136 -128,226l-5 0c-140,0 -254,114 -254,254zm-1132 -6c0,119 48,226 126,303 77,78 184,126 303,126l368 0 556 0 218 0c96,0 183,-39 246,-102 20,-20 38,-43 53,-67l350 0c60,0 115,-21 159,-57 58,-46 95,-118 95,-197 0,-140 -114,-254 -254,-254 -36,0 -70,7 -102,21 -17,-186 -174,-332 -365,-332 -67,0 -130,18 -184,50 -52,-36 -115,-57 -183,-57 -28,0 -56,4 -82,11 -16,4 -31,9 -45,15 -29,-94 -86,-177 -161,-237 -83,-66 -187,-105 -301,-105 -134,0 -255,54 -342,142 -85,84 -138,199 -142,327 -87,25 -164,76 -219,145 -59,74 -94,167 -94,268zm2220 203l-834 0c-109,0 -197,-88 -197,-197 0,-109 88,-198 197,-198l43 0 14 0c0,-171 139,-310 310,-310 171,0 309,137 311,307 -60,47 -98,119 -98,201l56 0c0,-109 89,-198 198,-198 109,0 197,89 197,198 0,109 -88,197 -197,197z"/>
   </g>
  </g>
 </g>
</svg>
