<?xml version="1.0" encoding="UTF-8"?>
<!DOCTYPE svg PUBLIC "-//W3C//DTD SVG 1.1//EN" "http://www.w3.org/Graphics/SVG/1.1/DTD/svg11.dtd">
<!-- Creator: CorelDRAW X7 -->
<svg xmlns="http://www.w3.org/2000/svg" xml:space="preserve" width="100%" height="100%" version="1.1" style="shape-rendering:geometricPrecision; text-rendering:geometricPrecision; image-rendering:optimizeQuality; fill-rule:evenodd; clip-rule:evenodd"
viewBox="0 0 2474 1674"
 xmlns:xlink="http://www.w3.org/1999/xlink">
 <defs>
  <style type="text/css">
   <![CDATA[
    .fil0 {fill:black}
   ]]>
  </style>
 </defs>
 <g id="Layer_x0020_1">
  <metadata id="CorelCorpID_0Corel-Layer"/>
  <path class="fil0" d="M2460 650c-53,247 -273,433 -536,433 -9,0 -17,0 -26,-1 -18,48 -45,91 -81,127 -63,63 -150,102 -246,102l-218 0 -556 0 -368 0c-119,0 -226,-48 -303,-126 -78,-77 -126,-184 -126,-303 0,-101 35,-194 94,-268 55,-69 132,-120 219,-145 4,-128 57,-243 142,-327 87,-88 208,-142 342,-142 114,0 218,39 301,105 75,60 132,143 161,237 14,-6 29,-11 45,-15 26,-7 54,-11 82,-11 11,0 23,1 34,2 68,-158 209,-279 381,-318 -8,37 -13,76 -13,115 0,303 246,549 549,549 42,0 84,-5 123,-14zm-2177 774l-57 0 0 56 -40 -40 -40 40 40 40 -56 0 0 57 56 0 -40 40 40 40 40 -40 0 57 57 0 0 -57 40 40 40 -40 -40 -40 56 0 0 -57 -56 0 40 -40 -40 -40 -40 40 0 -56zm2009 -170l-441 0c-22,22 -47,41 -74,57l515 0c35,0 66,14 89,36 22,23 36,54 36,89 0,34 -14,65 -36,88l0 0c-23,23 -54,37 -89,37 -34,0 -65,-14 -88,-37l-40 40c33,33 78,53 128,53 50,0 96,-20 129,-53l0 0 0 0c32,-33 53,-78 53,-128 0,-50 -21,-96 -53,-129 -33,-32 -78,-53 -129,-53zm-1670 170l-57 0 0 56 -40 -40 -40 40 40 40 -56 0 0 57 56 0 -40 40 40 40 40 -40 0 57 57 0 0 -57 40 40 40 -40 -40 -40 57 0 0 -57 -57 0 40 -40 -40 -40 -40 40 0 -56zm339 0l-56 0 0 56 -41 -40 -40 40 41 40 -57 0 0 57 57 0 -41 40 40 40 41 -40 0 57 56 0 0 -57 40 40 40 -40 -40 -40 57 0 0 -57 -57 0 40 -40 -40 -40 -40 40 0 -56zm339 0l-56 0 0 56 -40 -40 -40 40 40 40 -57 0 0 57 57 0 -40 40 40 40 40 -40 0 57 56 0 0 -57 40 40 40 -40 -40 -40 57 0 0 -57 -57 0 40 -40 -40 -40 -40 40 0 -56zm339 0l-56 0 0 56 -40 -40 -40 40 40 40 -57 0 0 57 57 0 -40 40 40 40 40 -40 0 57 56 0 0 -57 40 40 40 -40 -40 -40 57 0 0 -57 -57 0 40 -40 -40 -40 -40 40 0 -56zm274 -398c4,0 8,0 11,0 117,0 225,-40 309,-109 65,-52 116,-120 148,-198 -15,1 -30,1 -44,1 -167,0 -318,-67 -428,-177 -109,-109 -177,-261 -177,-428 0,-11 0,-22 1,-34 -77,32 -143,83 -194,148 -25,30 -46,64 -62,100 53,16 101,45 139,83 59,59 95,140 95,230l0 1c59,26 110,68 146,121 39,56 62,125 62,198 0,22 -2,44 -6,64zm-102 -230c-34,-49 -82,-87 -139,-108l-19 -7 1 -21 1 -9 0 0 0 0c0,-2 0,-4 0,-9 0,-74 -30,-142 -79,-190 -49,-49 -116,-79 -190,-79 -24,0 -47,3 -68,8 -22,6 -44,15 -64,26l-32 18 -9 -36c-22,-96 -76,-180 -150,-240 -73,-58 -166,-93 -266,-93 -118,0 -225,48 -302,126 -77,77 -125,184 -125,301l0 0 0 4 0 4 0 23 -22 5c-84,18 -158,66 -210,131 -51,63 -81,144 -81,232 0,103 41,196 108,263 68,68 161,109 264,109l368 0 556 0 218 0c80,0 153,-32 206,-85 53,-53 86,-126 86,-207 0,-62 -19,-119 -52,-166z"/>
 </g>
</svg>
