<?xml version="1.0" encoding="UTF-8"?>
<!DOCTYPE svg PUBLIC "-//W3C//DTD SVG 1.1//EN" "http://www.w3.org/Graphics/SVG/1.1/DTD/svg11.dtd">
<!-- Creator: CorelDRAW X7 -->
<svg xmlns="http://www.w3.org/2000/svg" xml:space="preserve" width="100%" height="100%" version="1.1" style="shape-rendering:geometricPrecision; text-rendering:geometricPrecision; image-rendering:optimizeQuality; fill-rule:evenodd; clip-rule:evenodd"
viewBox="0 0 2474 1674"
 xmlns:xlink="http://www.w3.org/1999/xlink">
 <defs>
  <style type="text/css">
   <![CDATA[
    .fil0 {fill:black}
   ]]>
  </style>
 </defs>
 <g id="Layer_x0020_1">
  <metadata id="CorelCorpID_0Corel-Layer"/>
  <path class="fil0" d="M1760 195c226,-61 459,73 519,299 61,226 -74,459 -299,519 -22,6 -44,10 -66,12 -13,71 -48,135 -97,184 -63,63 -150,102 -246,102l-218 0 -556 0 -368 0c-119,0 -226,-48 -303,-126 -78,-77 -126,-184 -126,-303 0,-101 35,-194 94,-268 55,-69 132,-120 219,-145 4,-127 57,-243 142,-327 87,-88 208,-142 342,-142 114,0 218,39 301,105 75,60 132,143 161,237 14,-6 29,-11 45,-15 26,-7 54,-11 82,-11 52,0 101,13 145,34 55,-73 134,-130 229,-155zm-1477 1229l-57 0 0 56 -40 -40 -40 40 40 40 -56 0 0 57 56 0 -40 40 40 40 40 -40 0 57 57 0 0 -57 40 40 40 -40 -40 -40 56 0 0 -57 -56 0 40 -40 -40 -40 -40 40 0 -56zm339 0l-57 0 0 56 -40 -40 -40 40 40 40 -56 0 0 57 56 0 -40 40 40 40 40 -40 0 57 57 0 0 -57 40 40 40 -40 -40 -40 57 0 0 -57 -57 0 40 -40 -40 -40 -40 40 0 -56zm339 0l-56 0 0 56 -41 -40 -40 40 41 40 -57 0 0 57 57 0 -41 40 40 40 41 -40 0 57 56 0 0 -57 40 40 40 -40 -40 -40 57 0 0 -57 -57 0 40 -40 -40 -40 -40 40 0 -56zm339 0l-56 0 0 56 -40 -40 -40 40 40 40 -57 0 0 57 57 0 -40 40 40 40 40 -40 0 57 56 0 0 -57 40 40 40 -40 -40 -40 57 0 0 -57 -57 0 40 -40 -40 -40 -40 40 0 -56zm339 0l-56 0 0 56 -40 -40 -40 40 40 40 -57 0 0 57 57 0 -40 40 40 40 40 -40 0 57 56 0 0 -57 40 40 40 -40 -40 -40 57 0 0 -57 -57 0 40 -40 -40 -40 -40 40 0 -56zm653 -170l-441 0c-22,22 -47,41 -74,57l515 0c35,0 66,14 89,36 22,23 36,54 36,89 0,34 -14,65 -36,88l0 0c-23,23 -54,37 -89,37 -34,0 -65,-14 -88,-37l-40 40c33,33 78,53 128,53 50,0 96,-20 129,-53l0 0 0 0c32,-33 53,-78 53,-128 0,-50 -21,-96 -53,-129 -33,-32 -78,-53 -129,-53zm-854 -1042l15 15 15 15 7 7 15 15 8 8 40 -40 -8 -8 -15 -15 -7 -7 -15 -15 -15 -15 -40 40zm610 947l-6 -20 -5 -21 -3 -10 -5 -20 -3 -11 -55 15 3 10 6 21 2 10 6 20 5 21 55 -15zm254 -163l-15 -15 -15 -15 -8 -8 -15 -15 -7 -7 -40 40 7 7 15 15 8 8 15 15 15 15 40 -40zm138 -269l-21 -5 -20 -6 -10 -2 -21 -6 -10 -3 -15 55 11 3 20 5 10 3 21 5 20 6 15 -55zm-15 -301l-20 5 -21 6 -10 2 -20 6 -11 3 15 54 10 -3 21 -5 10 -3 20 -5 21 -6 -15 -54zm-163 -254l-15 15 -15 15 -8 7 -15 15 -7 8 40 40 7 -8 15 -15 8 -7 15 -15 15 -15 -40 -40zm-269 -138l-5 20 -6 21 -2 10 -6 20 -3 11 55 14 3 -10 5 -20 3 -11 5 -20 6 -21 -55 -14zm-301 14l5 21 6 20 3 11 5 20 3 10 54 -14 -2 -10 -6 -21 -3 -10 -5 -21 -6 -20 -54 14zm227 920c15,-2 31,-5 46,-9 98,-27 176,-90 223,-171l0 -1c47,-81 63,-180 37,-278 -27,-98 -90,-176 -171,-223l-1 0c-81,-47 -180,-63 -278,-37 -81,22 -149,69 -196,131 13,10 25,20 37,32 59,59 95,140 95,230l0 1c59,26 110,68 146,121 39,56 62,124 62,198l0 6zm-108 -172c-34,-49 -82,-87 -139,-108l-19 -7 1 -21c0,-4 1,-7 1,-9l0 0c0,-2 0,-5 0,-9 0,-74 -30,-142 -79,-190 -49,-49 -116,-79 -190,-79 -24,0 -47,3 -68,8 -22,6 -44,15 -64,26l-32 18 -9 -36c-22,-96 -76,-180 -150,-240 -73,-58 -166,-92 -266,-92 -118,0 -225,47 -302,125 -77,77 -125,184 -125,302l0 0 0 3 0 4 0 23 -22 5c-84,19 -158,66 -210,131 -51,63 -81,144 -81,232 0,103 41,196 108,263 68,68 161,109 264,109l368 0 556 0 218 0c80,0 153,-32 206,-85 53,-53 86,-126 86,-207 0,-62 -19,-119 -52,-166z"/>
 </g>
</svg>
