<?xml version="1.0" encoding="UTF-8"?>
<!DOCTYPE svg PUBLIC "-//W3C//DTD SVG 1.1//EN" "http://www.w3.org/Graphics/SVG/1.1/DTD/svg11.dtd">
<!-- Creator: CorelDRAW X7 -->
<svg xmlns="http://www.w3.org/2000/svg" xml:space="preserve" width="100%" height="100%" version="1.1" style="shape-rendering:geometricPrecision; text-rendering:geometricPrecision; image-rendering:optimizeQuality; fill-rule:evenodd; clip-rule:evenodd"
viewBox="0 0 1665 1665"
 xmlns:xlink="http://www.w3.org/1999/xlink">
 <defs>
  <style type="text/css">
   <![CDATA[
    .fil0 {fill:black;fill-rule:nonzero}
   ]]>
  </style>
 </defs>
 <g id="Layer_x0020_1">
  <metadata id="CorelCorpID_0Corel-Layer"/>
  <path class="fil0" d="M1027 939l158 49c-24,89 -65,155 -121,198 -57,44 -128,65 -215,65 -107,0 -196,-36 -265,-110 -69,-73 -104,-174 -104,-301 0,-135 35,-239 105,-314 69,-75 161,-112 274,-112 99,0 179,30 241,88 37,35 64,84 83,149l-162 39c-9,-42 -29,-75 -60,-99 -30,-25 -67,-37 -110,-37 -60,0 -109,22 -146,65 -38,43 -56,112 -56,209 0,102 18,175 55,218 37,43 84,65 143,65 44,0 81,-14 113,-41 31,-28 53,-71 67,-131zm-194 -882c207,0 402,80 548,227 147,147 228,341 228,549 0,207 -81,402 -228,548 -146,147 -341,228 -548,228 -208,0 -403,-81 -549,-228 -147,-146 -227,-341 -227,-548 0,-208 80,-402 227,-549 146,-147 341,-227 549,-227zm588 187c-157,-157 -366,-244 -588,-244 -223,0 -432,87 -589,244 -157,157 -244,366 -244,589 0,222 87,431 244,588 157,158 366,244 589,244 222,0 431,-86 588,-244 158,-157 244,-366 244,-588 0,-223 -86,-432 -244,-589zm-971 114c-11,0 -20,4 -27,11 -7,6 -11,16 -11,26 0,11 4,20 11,27l0 0c7,7 16,11 27,11 10,0 20,-4 26,-11 7,-7 11,-16 11,-27 0,-10 -4,-20 -11,-26l0 0c-6,-7 -16,-11 -26,-11zm-67 -29c37,-37 97,-37 133,0 18,17 28,41 28,66 0,26 -11,50 -28,67 -17,17 -40,27 -66,27 -26,0 -50,-10 -67,-27l0 0 0 0c-17,-17 -27,-41 -27,-67 0,-26 10,-49 27,-66z"/>
 </g>
</svg>
