<?xml version="1.0" encoding="UTF-8"?>
<!DOCTYPE svg PUBLIC "-//W3C//DTD SVG 1.1//EN" "http://www.w3.org/Graphics/SVG/1.1/DTD/svg11.dtd">
<!-- Creator: CorelDRAW X7 -->
<svg xmlns="http://www.w3.org/2000/svg" xml:space="preserve" width="7.87402in" height="1.38028in" version="1.1" style="shape-rendering:geometricPrecision; text-rendering:geometricPrecision; image-rendering:optimizeQuality; fill-rule:evenodd; clip-rule:evenodd"
viewBox="0 0 78740 13803"
 xmlns:xlink="http://www.w3.org/1999/xlink">
 <defs>
  <style type="text/css">
   <![CDATA[
    .fil8 {fill:#A38755}
    .fil4 {fill:#D2AE6D}
    .fil2 {fill:#E5D3B2}
    .fil7 {fill:#E6D2AE}
    .fil3 {fill:#F1E5CF}
    .fil6 {fill:#FBF7F0}
    .fil1 {fill:white}
    .fil5 {fill:#F1E5CF;fill-rule:nonzero}
    .fil0 {fill:#FBF7F0;fill-rule:nonzero}
   ]]>
  </style>
 </defs>
 <g id="Layer_x0020_1">
  <metadata id="CorelCorpID_0Corel-Layer"/>
  <g id="_2356281854224">
   <g>
    <g>
     <path class="fil0" d="M50192 13375c-3593,0 -6473,-2892 -6473,-6474 0,-3582 2880,-6474 6473,-6474 3594,0 6474,2892 6474,6474 0,3582 -2880,6474 -6474,6474z"/>
     <path class="fil1" d="M48209 2604c591,513 582,1494 -18,2191 -601,698 -1567,847 -2157,334 -591,-512 -582,-1493 18,-2191 601,-697 1567,-847 2157,-334z"/>
     <path class="fil2" d="M50192 13375c3594,0 6474,-2892 6474,-6474 0,-3422 -2629,-6214 -5997,-6456 3065,390 5411,2995 5411,6162 0,3437 -2764,6212 -6212,6212 -2967,0 -5427,-2054 -6057,-4816 520,3055 3165,5372 6381,5372z"/>
     <path class="fil3" d="M43811 8003c630,2762 3090,4816 6057,4816 3448,0 6212,-2775 6212,-6212 0,-3167 -2346,-5772 -5411,-6162 -158,-12 -317,-18 -477,-18 -476,0 -940,51 -1387,148 2860,43 5139,2359 5139,5220 0,2888 -2323,5220 -5221,5220 -2358,0 -4335,-1544 -4990,-3676 15,225 41,446 78,664z"/>
    </g>
    <path class="fil4" d="M50193 13803c1841,0 3576,-718 4883,-2026 1300,-1299 2018,-3034 2018,-4875 0,-1843 -718,-3577 -2018,-4884 -1307,-1300 -3042,-2018 -4883,-2018 -1842,0 -3577,718 -4884,2018 -1300,1307 -2018,3041 -2018,4884 0,1841 718,3576 2018,4875 1307,1308 3042,2026 4884,2026zm3713 -9794c603,0 1094,491 1094,1095 0,605 -491,1095 -1094,1095 -605,0 -1096,-490 -1096,-1095 0,-604 492,-1095 1096,-1095zm-7425 0c-606,0 -1096,491 -1096,1095 0,605 490,1095 1096,1095 603,0 1094,-490 1094,-1095 0,-604 -492,-1095 -1094,-1095zm0 428c367,0 667,299 667,667 0,369 -300,667 -667,667 -370,0 -669,-298 -669,-667 0,-368 299,-667 669,-667zm7425 0c-369,0 -669,299 -669,667 0,369 300,667 669,667 367,0 667,-298 667,-667 0,-368 -300,-667 -667,-667zm-6630 3381c144,463 400,887 756,1243 582,581 1340,894 2161,894 820,0 1578,-313 2160,-894 356,-356 612,-780 756,-1243l1323 0c-171,809 -572,1549 -1172,2150 -822,822 -1906,1269 -3067,1269 -1162,0 -2246,-447 -3068,-1269 -600,-601 -1001,-1341 -1173,-2150l1324 0zm-758 427c192,527 499,1010 911,1420 740,742 1715,1145 2764,1145 1047,0 2023,-403 2763,-1145 412,-410 719,-893 911,-1420l-460 0c-171,413 -425,790 -753,1118 -661,661 -1527,1019 -2461,1019 -935,0 -1801,-358 -2462,-1019 -329,-328 -582,-705 -753,-1118l-460 0 0 0zm-903 -5921c1222,-1224 2850,-1897 4578,-1897 1727,0 3355,673 4577,1897 1224,1222 1896,2850 1896,4578 0,1727 -672,3355 -1896,4577 -1222,1224 -2850,1896 -4577,1896 -1728,0 -3356,-672 -4578,-1896 -1224,-1222 -1896,-2850 -1896,-4577 0,-1728 672,-3356 1896,-4578z"/>
   </g>
   <g>
    <g>
     <path class="fil0" d="M71838 13375c-3593,0 -6474,-2892 -6474,-6474 0,-3582 2881,-6474 6474,-6474 3594,0 6474,2892 6474,6474 0,3582 -2880,6474 -6474,6474z"/>
     <path class="fil1" d="M69855 2604c591,513 582,1494 -18,2191 -601,698 -1567,847 -2157,335 -591,-513 -582,-1494 18,-2192 601,-697 1567,-847 2157,-334z"/>
     <path class="fil2" d="M71838 13375c3594,0 6474,-2892 6474,-6474 0,-3422 -2629,-6214 -5998,-6456 3066,390 5412,2995 5412,6162 0,3437 -2764,6212 -6212,6212 -2967,0 -5427,-2054 -6057,-4816 520,3055 3165,5372 6381,5372z"/>
     <path class="fil3" d="M65457 8003c630,2762 3090,4816 6057,4816 3448,0 6212,-2775 6212,-6212 0,-3167 -2346,-5772 -5412,-6162 -157,-12 -316,-18 -476,-18 -476,0 -940,51 -1387,148 2860,43 5139,2359 5139,5220 0,2888 -2323,5220 -5221,5220 -2358,0 -4335,-1544 -4990,-3676 15,225 41,446 78,664z"/>
    </g>
    <path class="fil4" d="M71838 13803c-1842,0 -3576,-718 -4883,-2025 -1300,-1300 -2018,-3035 -2018,-4876 0,-1843 718,-3577 2018,-4884 1307,-1300 3041,-2018 4883,-2018 1842,0 3577,718 4884,2018 1300,1307 2018,3041 2018,4884 0,1841 -718,3576 -2018,4876 -1307,1307 -3042,2025 -4884,2025zm-3452 -4276l6905 0c-117,154 -246,301 -385,441 -822,822 -1906,1269 -3068,1269 -1161,0 -2245,-447 -3067,-1269 -139,-140 -268,-287 -385,-441zm7193 -427l-7482 0c-159,-271 -289,-557 -384,-855l8251 0c-96,298 -225,584 -385,855l0 0zm937 -1282c-179,923 -628,1772 -1309,2452 -900,902 -2094,1396 -3369,1396 -1274,0 -2468,-494 -3369,-1396 -680,-680 -1129,-1529 -1308,-2452l9355 0 0 0zm-8391 -3808c-604,0 -1094,490 -1094,1094 0,605 490,1095 1094,1095 605,0 1096,-490 1096,-1095 0,-604 -492,-1094 -1096,-1094zm7425 0c605,0 1096,490 1096,1094 0,605 -491,1095 -1096,1095 -603,0 -1094,-490 -1094,-1095 0,-604 492,-1094 1094,-1094zm0 427c-367,0 -667,299 -667,667 0,369 300,667 667,667 369,0 669,-298 669,-667 0,-368 -300,-667 -669,-667zm-7425 0c369,0 669,299 669,667 0,369 -300,667 -669,667 -367,0 -667,-298 -667,-667 0,-368 299,-667 667,-667zm8291 -2113c-1222,-1224 -2850,-1896 -4578,-1896 -1727,0 -3355,672 -4578,1896 -1223,1222 -1896,2850 -1896,4578 0,1727 673,3355 1896,4577 1223,1224 2851,1896 4578,1896 1728,0 3356,-672 4578,-1896 1224,-1222 1896,-2850 1896,-4577 0,-1728 -672,-3356 -1896,-4578z"/>
   </g>
   <g>
    <g>
     <path class="fil5" d="M6901 13375c-3593,0 -6473,-2892 -6473,-6474 0,-3582 2880,-6474 6473,-6474 3594,0 6474,2892 6474,6474 0,3582 -2880,6474 -6474,6474z"/>
     <path class="fil6" d="M4918 2604c591,513 583,1494 -18,2191 -601,698 -1566,847 -2157,334 -590,-512 -582,-1493 19,-2191 600,-697 1566,-847 2156,-334z"/>
     <path class="fil4" d="M6901 13375c3594,0 6474,-2892 6474,-6474 0,-3422 -2629,-6214 -5997,-6457 3066,391 5411,2996 5411,6163 0,3437 -2764,6212 -6212,6212 -2967,0 -5427,-2054 -6057,-4816 520,3055 3165,5372 6381,5372z"/>
     <path class="fil7" d="M520 8003c630,2762 3090,4816 6057,4816 3448,0 6212,-2775 6212,-6212 0,-3167 -2345,-5772 -5411,-6163 -158,-11 -316,-17 -477,-17 -476,0 -940,51 -1387,148 2860,43 5139,2359 5139,5220 0,2888 -2323,5220 -5221,5220 -2358,0 -4335,-1544 -4990,-3676 15,225 41,446 78,664z"/>
    </g>
    <path class="fil8" d="M6902 0c1842,0 3576,718 4883,2025 1300,1300 2018,3034 2018,4877 0,1841 -718,3576 -2018,4883 -1307,1299 -3041,2018 -4883,2018 -1842,0 -3577,-719 -4884,-2018 -1299,-1307 -2018,-3042 -2018,-4883 0,-1843 718,-3577 2018,-4877 1307,-1307 3042,-2025 4884,-2025zm3713 6199c604,0 1094,-491 1094,-1095 0,-605 -490,-1095 -1094,-1095 -605,0 -1096,490 -1096,1095 0,604 492,1095 1096,1095zm-7425 0c-605,0 -1096,-491 -1096,-1095 0,-605 491,-1095 1096,-1095 604,0 1094,490 1094,1095 0,604 -492,1095 -1094,1095zm795 3756c144,-464 400,-887 757,-1244 581,-580 1339,-893 2160,-893 820,0 1578,313 2160,893 356,357 612,780 756,1244l1324 0c-172,-809 -573,-1551 -1173,-2151 -822,-821 -1906,-1270 -3067,-1270 -1161,0 -2246,449 -3067,1270 -601,600 -1002,1342 -1173,2151l1323 0zm-1661 1524c1222,1224 2850,1896 4578,1896 1727,0 3355,-672 4578,-1896 1223,-1222 1896,-2850 1896,-4577 0,-1728 -673,-3356 -1896,-4579 -1223,-1223 -2851,-1896 -4578,-1896 -1728,0 -3356,673 -4578,1896 -1224,1223 -1896,2851 -1896,4579 0,1727 672,3355 1896,4577z"/>
   </g>
   <g>
    <g>
     <path class="fil0" d="M28547 13375c-3594,0 -6474,-2892 -6474,-6474 0,-3582 2880,-6474 6474,-6474 3593,0 6473,2892 6473,6474 0,3582 -2880,6474 -6473,6474z"/>
     <path class="fil1" d="M26564 2604c590,513 582,1494 -19,2191 -600,698 -1566,847 -2157,334 -590,-512 -582,-1493 19,-2191 601,-697 1566,-847 2157,-334z"/>
     <path class="fil2" d="M28547 13375c3593,0 6473,-2892 6473,-6474 0,-3422 -2629,-6214 -5997,-6456 3066,390 5412,2995 5412,6162 0,3437 -2764,6212 -6213,6212 -2967,0 -5427,-2054 -6056,-4816 519,3055 3164,5372 6381,5372z"/>
     <path class="fil3" d="M22166 8003c629,2762 3089,4816 6056,4816 3449,0 6213,-2775 6213,-6212 0,-3167 -2346,-5772 -5412,-6162 -157,-12 -316,-18 -476,-18 -477,0 -941,51 -1387,148 2859,43 5138,2359 5138,5220 0,2888 -2322,5220 -5220,5220 -2359,0 -4336,-1544 -4990,-3676 14,225 41,446 78,664z"/>
    </g>
    <path class="fil4" d="M28548 0c1841,0 3575,718 4883,2025 1299,1300 2017,3034 2017,4877 0,1841 -718,3576 -2017,4883 -1308,1300 -3042,2018 -4883,2018 -1843,0 -3578,-718 -4885,-2018 -1299,-1307 -2017,-3042 -2017,-4883 0,-1843 718,-3577 2017,-4877 1308,-1307 3042,-2025 4885,-2025zm-4241 8245l8481 0 0 1282 -8481 0 0 -1282zm427 855l7626 0 0 -428 -7626 0 0 428zm7526 -2901c604,0 1095,-491 1095,-1095 0,-605 -491,-1095 -1095,-1095 -605,0 -1096,490 -1096,1095 0,604 492,1095 1096,1095zm-7425 0c-605,0 -1096,-491 -1096,-1095 0,-605 491,-1095 1096,-1095 604,0 1095,490 1095,1095 0,604 -492,1095 -1095,1095zm0 -428c368,0 667,-298 667,-667 0,-369 -299,-667 -667,-667 -369,0 -668,298 -668,667 0,368 299,667 668,667zm7425 0c-369,0 -668,-298 -668,-667 0,-369 299,-667 668,-667 368,0 667,298 667,667 0,368 -299,667 -667,667zm-8291 5708c1223,1224 2850,1896 4579,1896 1727,0 3354,-672 4577,-1896 1224,-1222 1896,-2850 1896,-4577 0,-1728 -672,-3356 -1896,-4579 -1223,-1223 -2850,-1896 -4577,-1896 -1729,0 -3356,673 -4579,1896 -1224,1223 -1896,2851 -1896,4579 0,1727 672,3355 1896,4577z"/>
   </g>
  </g>
 </g>
</svg>
