<?xml version="1.0" encoding="UTF-8"?>
<!DOCTYPE svg PUBLIC "-//W3C//DTD SVG 1.1//EN" "http://www.w3.org/Graphics/SVG/1.1/DTD/svg11.dtd">
<!-- Creator: CorelDRAW X7 -->
<svg xmlns="http://www.w3.org/2000/svg" xml:space="preserve" width="3.67339in" height="0.892866in" version="1.1" style="shape-rendering:geometricPrecision; text-rendering:geometricPrecision; image-rendering:optimizeQuality; fill-rule:evenodd; clip-rule:evenodd"
viewBox="0 0 36734 8929"
 xmlns:xlink="http://www.w3.org/1999/xlink">
 <defs>
  <style type="text/css">
   <![CDATA[
    .fil0 {fill:#D7B77D}
    .fil1 {fill:white;fill-rule:nonzero}
   ]]>
  </style>
 </defs>
 <g id="Layer_x0020_1">
  <metadata id="CorelCorpID_0Corel-Layer"/>
  <g id="_2356013311792">
   <path class="fil0" d="M4464 0l27805 0c2456,0 4465,2009 4465,4464 0,2456 -2009,4465 -4465,4465l-27805 0c-2455,0 -4464,-2009 -4464,-4465 0,-2455 2009,-4464 4464,-4464z"/>
   <path class="fil1" d="M10075 5541l-2704 0c-177,0 -327,-13 -448,-39 -120,-25 -217,-67 -288,-125 -73,-57 -125,-131 -156,-221 -32,-91 -48,-201 -48,-330l0 -747 592 0 0 662c0,58 7,105 23,141 15,36 43,64 81,85 39,21 92,34 158,42 67,7 151,11 254,11l1947 0 0 -1278 589 0 0 1799zm-2487 -2323c0,-86 31,-162 95,-226 63,-64 139,-96 227,-96 87,0 162,31 225,95 64,63 95,139 95,227 0,87 -31,162 -95,225 -63,64 -138,95 -225,95 -87,0 -162,-31 -226,-95 -64,-63 -96,-138 -96,-225zm737 0c0,-86 32,-162 95,-226 63,-64 138,-96 225,-96 87,0 162,31 226,95 64,63 96,139 96,227 0,87 -32,162 -95,225 -63,64 -139,95 -227,95 -87,0 -162,-31 -225,-95 -63,-63 -95,-138 -95,-225zm2873 -904l0 3227 -583 0 0 -3227 583 0zm1775 3227c-40,0 -95,-9 -164,-28 -69,-18 -130,-57 -181,-118 -3,205 -27,376 -71,513 -46,138 -113,249 -204,333 -90,85 -205,146 -342,181 -139,36 -306,56 -499,59l0 -551c123,-4 221,-18 294,-44 73,-26 128,-63 164,-115 35,-50 59,-116 69,-196 11,-80 15,-177 15,-288l0 -1346 583 0 0 768c0,118 36,199 107,243 72,46 148,68 229,68 23,0 46,2 67,8 21,5 40,16 58,31 16,17 29,41 38,74 9,33 13,79 13,137 0,102 -14,174 -43,212 -29,39 -73,59 -133,59zm-3 0c-23,0 -46,-2 -67,-7 -22,-5 -40,-15 -58,-32 -16,-17 -29,-42 -38,-75 -9,-33 -13,-78 -13,-136 0,-103 14,-174 43,-213 29,-39 73,-58 133,-58l669 0c24,0 46,2 67,8 21,5 41,16 58,31 17,17 30,41 39,74 8,33 13,79 13,137 0,102 -15,174 -43,212 -29,39 -73,59 -134,59l-669 0zm1208 -521l0 -2706 582 0 0 1885c119,-148 262,-270 434,-369 171,-98 357,-148 555,-148 317,0 555,93 715,278 161,186 241,442 241,771l0 289 351 0c23,0 46,2 68,8 21,5 39,16 57,31 16,17 29,41 38,74 9,33 14,79 14,137 0,102 -15,174 -44,212 -29,39 -73,59 -133,59l-3417 0c-23,0 -46,-2 -67,-7 -22,-5 -40,-15 -58,-32 -16,-17 -29,-42 -38,-75 -9,-33 -13,-78 -13,-136 0,-103 14,-174 43,-213 29,-39 73,-58 133,-58l539 0zm1942 0l0 -256c0,-72 -7,-141 -22,-206 -15,-64 -40,-121 -74,-169 -34,-49 -80,-87 -138,-114 -57,-27 -127,-41 -207,-41 -90,0 -179,21 -267,63 -89,42 -172,99 -250,173 -78,72 -149,156 -212,251 -63,95 -116,195 -159,299l1329 0zm-741 -2059c0,-87 31,-162 95,-226 63,-64 139,-97 227,-97 87,0 162,32 225,95 64,63 95,139 95,228 0,86 -31,162 -95,225 -63,63 -138,95 -225,95 -86,0 -162,-32 -226,-95 -64,-63 -96,-139 -96,-225zm2155 0c0,-87 32,-162 95,-226 63,-64 139,-97 228,-97 86,0 162,32 225,95 63,63 95,139 95,228 0,86 -32,162 -95,225 -63,63 -139,95 -225,95 -87,0 -162,-32 -226,-95 -64,-63 -97,-139 -97,-225zm42 2059l0 -1278 592 0 0 1799 -1112 0c-24,0 -46,-2 -67,-7 -22,-5 -41,-15 -58,-32 -17,-17 -30,-42 -39,-75 -9,-33 -13,-78 -13,-136 0,-103 15,-174 43,-213 29,-39 73,-58 134,-58l520 0zm4589 426c0,238 -29,438 -86,597 -57,159 -140,287 -249,381 -107,95 -239,163 -394,204 -155,41 -330,60 -522,60 -820,0 -1230,-389 -1230,-1169l0 -711 583 0 0 688c0,211 52,372 155,483 104,111 274,167 509,167 221,0 385,-47 491,-140 107,-94 161,-254 161,-479l0 -3213 582 0 0 3132zm1608 -176c0,102 -14,174 -43,212 -28,39 -73,59 -133,59l-190 0c-103,0 -197,-12 -282,-34 -85,-23 -159,-61 -221,-113 -62,-52 -110,-122 -145,-210 -34,-87 -52,-195 -52,-325l0 -2545 588 0 0 2463c0,106 19,173 56,201 37,28 91,42 160,42l86 0c23,0 46,2 67,8 22,5 41,16 58,31 17,17 29,41 39,74 9,33 12,79 12,137zm-180 271c-24,0 -46,-2 -68,-7 -21,-5 -40,-15 -58,-32 -16,-17 -29,-42 -38,-75 -9,-33 -13,-78 -13,-136 0,-103 15,-174 43,-213 29,-39 73,-58 134,-58l668 0c24,0 46,2 68,8 21,5 40,16 57,31 17,17 30,41 39,74 8,33 13,79 13,137 0,102 -15,174 -43,212 -29,39 -73,59 -134,59l-668 0zm854 -521c66,0 121,-1 164,-4 44,-3 79,-12 106,-27 27,-15 47,-37 60,-65 13,-29 19,-69 19,-121l0 -862 578 0 0 768c0,97 26,173 79,228 52,55 134,83 245,83 88,0 162,-13 225,-40 62,-26 93,-85 93,-177l0 -862 587 0 0 768c0,207 90,311 267,311l281 0 0 -1278 586 0 0 1799 -690 0c-161,0 -281,-19 -363,-57 -82,-37 -150,-96 -207,-178 -45,58 -94,102 -145,133 -52,31 -105,54 -159,70 -54,15 -108,24 -160,27 -53,3 -102,5 -151,5 -153,0 -282,-25 -387,-76 -104,-49 -178,-102 -223,-159 -80,107 -186,172 -316,197 -131,25 -296,38 -498,38l-177 0c-23,0 -45,-2 -67,-7 -21,-5 -40,-15 -58,-32 -16,-17 -29,-42 -38,-75 -9,-33 -13,-78 -13,-136 0,-103 15,-174 43,-213 29,-39 73,-58 133,-58l186 0zm4142 -1079l588 0 0 1346c0,216 -16,400 -50,551 -33,153 -91,275 -173,368 -83,93 -196,162 -343,206 -147,43 -333,66 -559,69l0 -551c120,-4 217,-18 290,-44 73,-26 127,-63 163,-115 36,-50 59,-116 69,-196 11,-80 15,-177 15,-288l0 -1346zm1714 -1627l0 3227 -583 0 0 -3227 583 0z"/>
  </g>
 </g>
</svg>
