<?xml version="1.0" encoding="UTF-8"?>
<!DOCTYPE svg PUBLIC "-//W3C//DTD SVG 1.1//EN" "http://www.w3.org/Graphics/SVG/1.1/DTD/svg11.dtd">
<!-- Creator: CorelDRAW X7 -->
<svg xmlns="http://www.w3.org/2000/svg" xml:space="preserve" width="21.3048in" height="20.2426in" version="1.1" style="shape-rendering:geometricPrecision; text-rendering:geometricPrecision; image-rendering:optimizeQuality; fill-rule:evenodd; clip-rule:evenodd"
viewBox="0 0 213048 202426"
 xmlns:xlink="http://www.w3.org/1999/xlink">
 <defs>
  <style type="text/css">
   <![CDATA[
    .fil5 {fill:#DFC495}
    .fil3 {fill:#F1E5CF}
    .fil2 {fill:#F5EEE2}
    .fil0 {fill:#FBF7F0}
    .fil1 {fill:white}
    .fil4 {fill:#E1CAA1;fill-rule:nonzero}
   ]]>
  </style>
 </defs>
 <g id="Layer_x0020_1">
  <metadata id="CorelCorpID_0Corel-Layer"/>
  <g id="_2356036179040">
   <path class="fil0" d="M7087 202426l198874 0c3898,0 7086,-3189 7086,-7087l0 -188252c0,-3898 -3188,-7087 -7086,-7087l-75953 0 0 460 -46969 0 0 -460 -75952 0c-3898,0 -7087,3189 -7087,7087l0 188252c0,3898 3189,7087 7087,7087z"/>
   <g>
    <path class="fil1" d="M82815 2407c0,13345 10615,24164 23709,24164 13094,0 23709,-10819 23709,-24164 0,-812 -40,-1615 -117,-2407l-317 0c77,770 116,1552 116,2342 0,12919 -10472,23392 -23391,23392 -12919,0 -23392,-10473 -23392,-23392 0,-790 40,-1572 117,-2342l-317 0c-77,792 -117,1595 -117,2407z"/>
    <g>
     <path class="fil2" d="M83132 2342c0,-633 26,-1261 75,-1882l46633 0c50,621 75,1249 75,1882 0,12919 -10472,23392 -23391,23392 -12919,0 -23392,-10473 -23392,-23392z"/>
     <path class="fil3" d="M83602 7031c2369,10426 11732,18211 22922,18211 11190,0 20553,-7785 22921,-18211 308,-1515 470,-3083 470,-4689 0,-633 -25,-1261 -75,-1882l-1038 0c21,370 32,743 32,1117 0,11382 -9988,20609 -22310,20609 -12322,0 -22311,-9227 -22311,-20609 0,-374 11,-747 33,-1117l-1039 0c-49,621 -75,1249 -75,1882 0,1606 162,3174 470,4689z"/>
     <path class="fil4" d="M92119 7984c-100,0 -183,24 -250,71 -67,47 -122,108 -164,182 -42,73 -73,158 -92,252 -20,96 -30,188 -30,277 0,175 40,315 118,422 80,107 225,160 436,160 169,0 298,-48 386,-145 90,-97 133,-233 133,-407 0,-224 -46,-415 -138,-574 -92,-159 -226,-238 -399,-238zm-1459 840c0,-198 33,-401 100,-607 66,-206 163,-391 291,-555 126,-164 280,-298 458,-402 179,-104 381,-156 610,-156 208,0 401,39 578,120 176,79 329,194 458,340 128,147 230,327 306,540 74,214 113,454 113,720 0,175 -28,344 -82,508 -55,163 -142,309 -262,436 -121,128 -273,231 -458,309 -187,80 -411,118 -676,118 -213,0 -407,-27 -583,-81 -177,-54 -328,-137 -455,-249 -128,-112 -226,-255 -295,-430 -68,-174 -103,-378 -103,-611zm5489 896c0,168 -24,286 -71,350 -47,64 -121,97 -220,97l-313 0c-170,0 -325,-19 -465,-56 -141,-39 -262,-101 -364,-187 -102,-85 -181,-201 -238,-345 -58,-144 -86,-322 -86,-536l0 -4194 968 0 0 4059c0,175 31,285 92,331 62,46 150,70 265,70l141 0c39,0 76,3 111,12 36,9 67,26 95,52 28,28 49,67 64,122 14,54 21,129 21,225zm1436 -411c104,0 205,-21 299,-62 95,-41 142,-128 142,-259 0,-89 -56,-209 -168,-360 -111,-150 -259,-310 -443,-480 -185,-170 -393,-338 -626,-504 -233,-167 -469,-311 -709,-435 34,-165 75,-300 123,-407 49,-107 98,-193 148,-257 50,-63 98,-112 145,-145 48,-33 86,-56 115,-71l2601 -1146 0 997 -1761 731 0 23c298,193 545,384 739,573 193,190 349,374 465,551 117,179 198,348 242,509 45,162 68,313 68,454 0,119 -17,244 -50,378 -32,133 -96,257 -189,373 -93,115 -226,210 -398,284 -173,73 -396,111 -673,111l-1804 0c-39,0 -76,-4 -111,-12 -36,-7 -67,-24 -95,-52 -28,-28 -49,-69 -64,-124 -15,-55 -21,-129 -21,-223 0,-170 24,-287 71,-352 47,-64 120,-95 220,-95l1734 0zm-1466 -3271c30,-602 245,-1005 648,-1211l2353 -1066 0 953 -3001 1324zm6800 4129c-144,0 -266,-8 -368,-23 -101,-13 -190,-36 -264,-67 -73,-30 -143,-68 -209,-117 -65,-47 -133,-101 -200,-165 -142,165 -298,269 -465,309 -168,41 -348,63 -543,63l-1295 0 0 -858 1474 0c118,0 207,-19 266,-55 58,-37 87,-81 87,-132 0,-55 -24,-123 -71,-201 -47,-79 -135,-211 -265,-395l-679 -1004 887 -567 895 1513c94,160 176,294 246,404 69,109 131,196 189,259 57,65 110,111 160,137 49,27 102,41 155,41 38,0 76,3 112,12 37,9 68,26 95,52 26,28 47,67 61,122 15,54 22,129 22,225 0,168 -23,286 -70,350 -48,64 -121,97 -220,97zm0 0c-39,0 -76,-4 -111,-12 -36,-7 -67,-26 -95,-55 -28,-32 -49,-74 -64,-128 -14,-55 -21,-129 -21,-224 0,-170 24,-287 71,-351 47,-64 121,-96 220,-96l1178 0 0 -2099 975 0 0 2965 -2153 0zm83 1251c0,-143 52,-267 156,-371 105,-104 229,-157 372,-157 142,0 267,53 371,157 104,104 156,228 156,371 0,143 -52,267 -156,371 -104,105 -229,157 -371,157 -143,0 -267,-52 -372,-157 -104,-104 -156,-228 -156,-371zm1212 0c0,-143 52,-267 156,-371 105,-104 230,-157 375,-157 143,0 267,53 371,157 105,104 157,228 157,371 0,143 -52,267 -157,371 -104,105 -228,157 -371,157 -143,0 -268,-52 -374,-157 -105,-104 -157,-228 -157,-371zm4296 -2190c0,129 -21,250 -62,364 -41,114 -105,213 -189,298 -86,85 -195,152 -329,202 -136,50 -293,75 -476,75l-1804 0 0 -858 1459 0c114,0 204,-12 270,-34 65,-21 98,-63 98,-123 0,-30 -4,-58 -12,-88 -7,-29 -26,-70 -55,-122 -31,-52 -75,-120 -132,-205 -57,-85 -133,-197 -227,-335l-589 -880c148,-99 292,-195 435,-287 141,-93 290,-186 446,-280l646 1051c175,283 306,520 392,709 85,189 129,360 129,513zm9035 939c-143,0 -287,-24 -431,-71 -144,-47 -261,-150 -352,-308 -60,86 -131,153 -212,204 -82,50 -169,89 -264,115 -95,25 -193,41 -295,48 -102,8 -202,12 -301,12l-3271 0c-293,0 -538,-22 -738,-64 -199,-42 -358,-111 -476,-206 -119,-94 -204,-216 -253,-365 -50,-149 -75,-330 -75,-544l0 -1230 968 0 0 1099c0,99 13,177 38,234 26,58 71,103 134,137 65,33 152,56 261,66 109,10 248,15 418,15l2837 0c170,0 288,-26 355,-79 66,-52 100,-170 100,-351l0 -1677 961 0 0 1594c0,184 38,315 115,393 78,80 238,120 481,120 38,0 75,3 110,12 36,9 67,26 96,52 27,28 48,67 63,122 15,54 21,129 21,225 0,168 -24,286 -71,350 -47,64 -120,97 -219,97zm-4792 -3828c0,-143 52,-267 157,-373 104,-105 230,-159 375,-159 143,0 267,53 371,157 104,104 156,230 156,375 0,143 -52,267 -156,371 -104,104 -228,156 -371,156 -143,0 -267,-52 -373,-156 -105,-104 -159,-228 -159,-371zm1216 0c0,-143 52,-267 156,-373 105,-105 228,-159 372,-159 142,0 266,53 372,157 105,104 158,230 158,375 0,143 -53,267 -157,371 -104,104 -228,156 -373,156 -144,0 -267,-52 -372,-156 -104,-104 -156,-228 -156,-371zm4026 2970c170,0 288,-26 355,-79 67,-52 100,-170 100,-351l0 -1677 968 0 0 1594c0,184 35,315 103,393 70,80 224,120 464,120 39,0 76,3 111,12 35,9 66,26 93,52 26,28 47,67 63,122 17,54 24,129 24,225 0,168 -24,286 -71,350 -47,64 -120,97 -220,97 -142,0 -281,-24 -417,-71 -134,-47 -246,-150 -336,-308 -61,86 -133,153 -216,204 -83,50 -173,89 -267,115 -96,25 -194,41 -296,48 -101,8 -202,12 -301,12l-611 0c-39,0 -76,-4 -111,-12 -36,-7 -67,-24 -95,-52 -28,-28 -49,-69 -64,-124 -15,-55 -21,-129 -21,-223 0,-170 24,-287 71,-352 47,-64 121,-95 220,-95l454 0zm409 2087c0,-143 52,-267 156,-372 104,-104 229,-156 375,-156 143,0 266,52 370,156 104,105 156,229 156,372 0,142 -52,267 -156,371 -104,104 -227,156 -370,156 -144,0 -268,-52 -374,-156 -105,-104 -157,-229 -157,-371zm2436 -2087l0 -2107 976 0 0 2965 -1834 0c-39,0 -76,-4 -111,-12 -36,-7 -67,-24 -95,-52 -28,-28 -49,-69 -64,-124 -15,-55 -21,-129 -21,-223 0,-170 24,-287 71,-352 47,-64 120,-95 220,-95l858 0zm-725 -3395c0,-143 52,-267 156,-372 104,-106 230,-159 375,-159 143,0 267,52 371,156 105,105 157,230 157,375 0,143 -52,267 -157,371 -104,105 -228,157 -371,157 -143,0 -267,-52 -372,-157 -106,-104 -159,-228 -159,-371zm1215 0c0,-143 52,-267 157,-372 104,-106 227,-159 371,-159 143,0 267,52 372,156 106,105 158,230 158,375 0,143 -52,267 -157,371 -104,105 -228,157 -373,157 -144,0 -267,-52 -371,-157 -105,-104 -157,-228 -157,-371zm-590 -1080c0,-143 53,-267 157,-372 104,-106 229,-159 375,-159 143,0 267,52 371,156 104,104 156,230 156,375 0,143 -52,267 -156,371 -104,105 -228,157 -371,157 -143,0 -267,-52 -373,-157 -105,-104 -159,-228 -159,-371z"/>
     <path class="fil5" d="M83602 7031c2172,10672 11609,18703 22922,18703 11313,0 20750,-8031 22921,-18703 -2368,10426 -11731,18031 -22921,18031 -11190,0 -20553,-7605 -22922,-18031z"/>
    </g>
   </g>
  </g>
 </g>
</svg>
