<?xml version="1.0" encoding="UTF-8"?>
<!DOCTYPE svg PUBLIC "-//W3C//DTD SVG 1.1//EN" "http://www.w3.org/Graphics/SVG/1.1/DTD/svg11.dtd">
<!-- Creator: CorelDRAW X7 -->
<svg xmlns="http://www.w3.org/2000/svg" xml:space="preserve" width="7.87402in" height="1.38028in" version="1.1" style="shape-rendering:geometricPrecision; text-rendering:geometricPrecision; image-rendering:optimizeQuality; fill-rule:evenodd; clip-rule:evenodd"
viewBox="0 0 78740 13803"
 xmlns:xlink="http://www.w3.org/1999/xlink">
 <defs>
  <style type="text/css">
   <![CDATA[
    .fil8 {fill:#A38755}
    .fil4 {fill:#D2AE6D}
    .fil2 {fill:#E5D3B2}
    .fil7 {fill:#E6D2AE}
    .fil3 {fill:#F1E5CF}
    .fil6 {fill:#FBF7F0}
    .fil1 {fill:white}
    .fil5 {fill:#F1E5CF;fill-rule:nonzero}
    .fil0 {fill:#FBF7F0;fill-rule:nonzero}
   ]]>
  </style>
 </defs>
 <g id="Layer_x0020_1">
  <metadata id="CorelCorpID_0Corel-Layer"/>
  <g id="_2356492740816">
   <g>
    <g>
     <path class="fil0" d="M6901 13375c-3593,0 -6474,-2892 -6474,-6474 0,-3582 2881,-6474 6474,-6474 3594,0 6474,2892 6474,6474 0,3582 -2880,6474 -6474,6474z"/>
     <path class="fil1" d="M4918 2604c591,513 582,1494 -18,2191 -601,698 -1567,847 -2157,334 -591,-512 -582,-1493 18,-2191 601,-697 1567,-847 2157,-334z"/>
     <path class="fil2" d="M6901 13375c3594,0 6474,-2892 6474,-6474 0,-3422 -2629,-6214 -5998,-6457 3066,391 5412,2996 5412,6163 0,3437 -2764,6212 -6212,6212 -2967,0 -5427,-2054 -6057,-4816 520,3055 3165,5372 6381,5372z"/>
     <path class="fil3" d="M520 8003c630,2762 3090,4816 6057,4816 3448,0 6212,-2775 6212,-6212 0,-3167 -2346,-5772 -5412,-6163 -157,-11 -316,-17 -476,-17 -476,0 -940,51 -1387,148 2860,43 5139,2359 5139,5220 0,2888 -2323,5220 -5221,5220 -2358,0 -4335,-1544 -4990,-3676 15,225 41,446 78,664z"/>
    </g>
    <path class="fil4" d="M6902 0c1841,0 3576,718 4883,2025 1300,1300 2018,3034 2018,4877 0,1841 -718,3576 -2018,4883 -1307,1300 -3042,2018 -4883,2018 -1843,0 -3577,-718 -4884,-2018 -1300,-1307 -2018,-3042 -2018,-4883 0,-1843 718,-3577 2018,-4877 1307,-1307 3041,-2025 4884,-2025zm3713 6199c603,0 1094,-491 1094,-1095 0,-605 -491,-1095 -1094,-1095 -605,0 -1096,490 -1096,1095 0,604 492,1095 1096,1095zm-7426 0c-605,0 -1095,-491 -1095,-1095 0,-605 490,-1095 1095,-1095 604,0 1095,490 1095,1095 0,604 -492,1095 -1095,1095zm0 -428c368,0 668,-298 668,-667 0,-369 -300,-667 -668,-667 -369,0 -668,298 -668,667 0,368 299,667 668,667zm7426 0c-369,0 -669,-298 -669,-667 0,-369 300,-667 669,-667 367,0 667,298 667,667 0,368 -300,667 -667,667zm-6630 4184c144,-464 400,-887 756,-1244 582,-580 1340,-893 2161,-893 820,0 1578,313 2159,893 357,357 613,780 757,1244l1323 0c-171,-809 -572,-1551 -1172,-2151 -822,-821 -1906,-1270 -3067,-1270 -1162,0 -2246,449 -3068,1270 -600,600 -1001,1342 -1173,2151l1324 0zm-758 -428c192,-526 499,-1010 910,-1421 741,-741 1716,-1144 2765,-1144 1047,0 2023,403 2763,1144 412,411 719,895 911,1421l-460 0c-171,-412 -425,-790 -753,-1118 -661,-661 -1527,-1019 -2461,-1019 -936,0 -1802,358 -2463,1019 -328,328 -581,706 -753,1118l-459 0 0 0zm-904 1952c1223,1224 2851,1896 4579,1896 1727,0 3355,-672 4577,-1896 1224,-1222 1896,-2850 1896,-4577 0,-1728 -672,-3356 -1896,-4579 -1222,-1223 -2850,-1896 -4577,-1896 -1728,0 -3356,673 -4579,1896 -1223,1223 -1896,2851 -1896,4579 0,1727 673,3355 1896,4577z"/>
   </g>
   <g>
    <g>
     <path class="fil0" d="M50192 13375c-3593,0 -6473,-2892 -6473,-6474 0,-3582 2880,-6474 6473,-6474 3594,0 6474,2892 6474,6474 0,3582 -2880,6474 -6474,6474z"/>
     <path class="fil1" d="M48209 2604c591,513 582,1494 -18,2191 -601,698 -1567,847 -2157,334 -590,-512 -582,-1493 18,-2191 601,-697 1567,-847 2157,-334z"/>
     <path class="fil2" d="M50192 13375c3594,0 6474,-2892 6474,-6474 0,-3422 -2629,-6214 -5997,-6457 3066,391 5411,2996 5411,6163 0,3437 -2764,6212 -6212,6212 -2967,0 -5427,-2054 -6057,-4816 520,3055 3165,5372 6381,5372z"/>
     <path class="fil3" d="M43811 8003c630,2762 3090,4816 6057,4816 3448,0 6212,-2775 6212,-6212 0,-3167 -2345,-5772 -5411,-6163 -158,-11 -316,-17 -477,-17 -476,0 -940,51 -1387,148 2860,43 5139,2359 5139,5220 0,2888 -2323,5220 -5221,5220 -2358,0 -4335,-1544 -4990,-3676 15,225 41,446 78,664z"/>
    </g>
    <path class="fil4" d="M50193 13803c1842,0 3576,-718 4883,-2025 1300,-1300 2018,-3035 2018,-4876 0,-1843 -718,-3577 -2018,-4884 -1307,-1300 -3041,-2018 -4883,-2018 -1842,0 -3577,718 -4884,2018 -1300,1307 -2018,3041 -2018,4884 0,1841 718,3576 2018,4876 1307,1307 3042,2025 4884,2025zm3713 -9794c604,0 1094,491 1094,1095 0,605 -490,1095 -1094,1095 -605,0 -1096,-490 -1096,-1095 0,-604 492,-1095 1096,-1095zm-7425 0c-605,0 -1096,491 -1096,1095 0,605 491,1095 1096,1095 603,0 1094,-490 1094,-1095 0,-604 -492,-1095 -1094,-1095zm0 428c367,0 667,299 667,667 0,369 -300,667 -667,667 -369,0 -669,-298 -669,-667 0,-368 300,-667 669,-667zm7425 0c-369,0 -669,299 -669,667 0,369 300,667 669,667 368,0 667,-298 667,-667 0,-368 -299,-667 -667,-667zm-6630 3381c144,463 400,887 756,1243 582,581 1340,894 2161,894 820,0 1578,-313 2160,-894 356,-356 612,-780 756,-1243l1324 0c-172,809 -573,1549 -1173,2151 -822,821 -1906,1268 -3067,1268 -1162,0 -2246,-447 -3068,-1268 -600,-602 -1001,-1342 -1172,-2151l1323 0zm-758 427c192,527 499,1010 911,1420 740,742 1715,1145 2764,1145 1048,0 2023,-403 2763,-1145 412,-410 719,-893 911,-1420l-459 0c-172,413 -425,790 -753,1118 -661,661 -1527,1019 -2462,1019 -935,0 -1801,-358 -2462,-1019 -328,-328 -582,-705 -753,-1118l-460 0 0 0zm-903 -5922c1222,-1223 2850,-1896 4578,-1896 1727,0 3355,673 4578,1896 1223,1223 1896,2851 1896,4579 0,1727 -673,3355 -1896,4577 -1223,1224 -2851,1896 -4578,1896 -1728,0 -3356,-672 -4578,-1896 -1224,-1222 -1896,-2850 -1896,-4577 0,-1728 672,-3356 1896,-4579z"/>
   </g>
   <g>
    <g>
     <path class="fil0" d="M71838 13375c-3593,0 -6473,-2892 -6473,-6474 0,-3582 2880,-6474 6473,-6474 3594,0 6474,2892 6474,6474 0,3582 -2880,6474 -6474,6474z"/>
     <path class="fil1" d="M69855 2604c591,513 583,1494 -18,2191 -601,698 -1566,847 -2157,334 -590,-512 -582,-1493 19,-2191 600,-697 1566,-847 2156,-334z"/>
     <path class="fil2" d="M71838 13375c3594,0 6474,-2892 6474,-6474 0,-3422 -2629,-6214 -5997,-6457 3066,391 5412,2996 5412,6163 0,3437 -2764,6212 -6213,6212 -2967,0 -5427,-2054 -6057,-4816 520,3055 3165,5372 6381,5372z"/>
     <path class="fil3" d="M65457 8003c630,2762 3090,4816 6057,4816 3449,0 6213,-2775 6213,-6212 0,-3167 -2346,-5772 -5412,-6163 -158,-11 -316,-17 -477,-17 -476,0 -940,51 -1387,148 2860,43 5139,2359 5139,5220 0,2888 -2323,5220 -5221,5220 -2358,0 -4335,-1544 -4990,-3676 15,225 41,446 78,664z"/>
    </g>
    <path class="fil4" d="M71838 13803c-1841,0 -3576,-718 -4883,-2025 -1300,-1300 -2018,-3035 -2018,-4876 0,-1843 718,-3577 2018,-4884 1307,-1300 3042,-2018 4883,-2018 1843,0 3577,718 4884,2018 1300,1307 2018,3041 2018,4884 0,1841 -718,3576 -2018,4876 -1307,1307 -3041,2025 -4884,2025zm-3452 -4276l6905 0c-117,154 -246,301 -385,442 -821,821 -1906,1268 -3068,1268 -1160,0 -2245,-447 -3066,-1268 -140,-141 -269,-288 -386,-442zm7193 -427l-7482 0c-159,-271 -288,-557 -384,-855l8251 0c-95,298 -224,584 -385,855l0 0zm937 -1282c-179,923 -627,1772 -1308,2452 -901,902 -2095,1396 -3370,1396 -1273,0 -2467,-494 -3368,-1396 -681,-680 -1130,-1529 -1309,-2452l9355 0 0 0zm-8390 -3809c-604,0 -1095,491 -1095,1095 0,605 491,1095 1095,1095 605,0 1095,-490 1095,-1095 0,-604 -492,-1095 -1095,-1095zm7425 0c605,0 1096,491 1096,1095 0,605 -491,1095 -1096,1095 -604,0 -1095,-490 -1095,-1095 0,-604 492,-1095 1095,-1095zm0 428c-368,0 -668,299 -668,667 0,369 300,667 668,667 369,0 668,-298 668,-667 0,-368 -299,-667 -668,-667zm-7425 0c369,0 668,299 668,667 0,369 -299,667 -668,667 -368,0 -668,-298 -668,-667 0,-368 300,-667 668,-667zm8291 -2114c-1223,-1223 -2851,-1896 -4579,-1896 -1727,0 -3355,673 -4577,1896 -1224,1223 -1896,2851 -1896,4579 0,1727 672,3355 1896,4577 1222,1224 2850,1896 4577,1896 1728,0 3356,-672 4579,-1896 1224,-1222 1896,-2850 1896,-4577 0,-1728 -672,-3356 -1896,-4579z"/>
   </g>
   <g>
    <g>
     <path class="fil5" d="M28547 13375c-3594,0 -6474,-2892 -6474,-6474 0,-3582 2880,-6474 6474,-6474 3593,0 6473,2892 6473,6474 0,3582 -2880,6474 -6473,6474z"/>
     <path class="fil6" d="M26564 2604c590,513 582,1494 -19,2191 -601,698 -1566,847 -2157,334 -590,-512 -582,-1493 19,-2191 600,-697 1566,-847 2157,-334z"/>
     <path class="fil4" d="M28547 13375c3593,0 6473,-2892 6473,-6474 0,-3422 -2629,-6214 -5997,-6457 3066,391 5412,2996 5412,6163 0,3437 -2764,6212 -6213,6212 -2967,0 -5427,-2054 -6056,-4816 519,3055 3164,5372 6381,5372z"/>
     <path class="fil7" d="M22166 8003c629,2762 3089,4816 6056,4816 3449,0 6213,-2775 6213,-6212 0,-3167 -2346,-5772 -5412,-6163 -157,-11 -316,-17 -476,-17 -477,0 -941,51 -1387,148 2859,43 5138,2359 5138,5220 0,2888 -2322,5220 -5220,5220 -2359,0 -4336,-1544 -4991,-3676 15,225 42,446 79,664z"/>
    </g>
    <path class="fil8" d="M28548 0c1841,0 3575,718 4883,2025 1299,1300 2017,3034 2017,4877 0,1841 -718,3576 -2017,4883 -1308,1300 -3042,2018 -4883,2018 -1843,0 -3578,-718 -4885,-2018 -1299,-1307 -2018,-3042 -2018,-4883 0,-1843 719,-3577 2018,-4877 1307,-1307 3042,-2025 4885,-2025zm-4241 8245l8481 0 0 1282 -8481 0 0 -1282zm7953 -2046c604,0 1095,-491 1095,-1095 0,-605 -491,-1095 -1095,-1095 -605,0 -1096,490 -1096,1095 0,604 492,1095 1096,1095zm-7425 0c-605,0 -1096,-491 -1096,-1095 0,-605 491,-1095 1096,-1095 604,0 1095,490 1095,1095 0,604 -492,1095 -1095,1095zm-866 5280c1223,1224 2850,1896 4579,1896 1727,0 3354,-672 4577,-1896 1224,-1222 1896,-2850 1896,-4577 0,-1728 -672,-3356 -1896,-4579 -1223,-1223 -2850,-1896 -4577,-1896 -1729,0 -3356,673 -4579,1896 -1224,1223 -1896,2851 -1896,4579 0,1727 672,3355 1896,4577z"/>
   </g>
  </g>
 </g>
</svg>
