<?xml version="1.0" encoding="UTF-8"?>
<!DOCTYPE svg PUBLIC "-//W3C//DTD SVG 1.1//EN" "http://www.w3.org/Graphics/SVG/1.1/DTD/svg11.dtd">
<!-- Creator: CorelDRAW X7 -->
<svg xmlns="http://www.w3.org/2000/svg" xml:space="preserve" width="0.699252in" height="0.664992in" version="1.1" style="shape-rendering:geometricPrecision; text-rendering:geometricPrecision; image-rendering:optimizeQuality; fill-rule:evenodd; clip-rule:evenodd"
viewBox="0 0 6993 6650"
 xmlns:xlink="http://www.w3.org/1999/xlink">
 <defs>
  <style type="text/css">
   <![CDATA[
    .fil0 {fill:#E1CBA4}
    .fil1 {fill:white}
   ]]>
  </style>
 </defs>
 <g id="Layer_x0020_1">
  <metadata id="CorelCorpID_0Corel-Layer"/>
  <g id="_2356013268464">
   <path class="fil0" d="M4721 1992l2271 549 -1516 1778 181 2331 -2161 -892 -2161 892 180 -2331 -1515 -1778 2272 -549 1223 -1992 1226 1992 0 0zm-1226 -1292l-990 1611 -1842 445 1228 1442 -146 1887 1750 -723 1749 723 -145 -1887 1227 -1442 -1840 -445 -991 -1611z"/>
   <polygon class="fil1" points="663,2756 1891,4198 1745,6085 3495,5362 5244,6085 5098,4198 6326,2756 4486,2311 3495,700 2505,2311 "/>
  </g>
 </g>
</svg>
