<?xml version="1.0" encoding="UTF-8"?>
<!DOCTYPE svg PUBLIC "-//W3C//DTD SVG 1.1//EN" "http://www.w3.org/Graphics/SVG/1.1/DTD/svg11.dtd">
<!-- Creator: CorelDRAW X7 -->
<svg xmlns="http://www.w3.org/2000/svg" xml:space="preserve" width="11.8856in" height="0.997913in" version="1.1" style="shape-rendering:geometricPrecision; text-rendering:geometricPrecision; image-rendering:optimizeQuality; fill-rule:evenodd; clip-rule:evenodd"
viewBox="0 0 118856 9979"
 xmlns:xlink="http://www.w3.org/1999/xlink">
 <defs>
  <style type="text/css">
   <![CDATA[
    .fil1 {fill:white}
    .fil0 {fill:#DFC495;fill-rule:nonzero}
    .fil2 {fill:#E6D2AE;fill-rule:nonzero}
   ]]>
  </style>
 </defs>
 <g id="Layer_x0020_1">
  <metadata id="CorelCorpID_0Corel-Layer"/>
  <g id="_2356366964208">
   <path class="fil0" d="M116737 9979l-114618 0c-1166,0 -2120,-953 -2120,-2120l0 -5739c0,-1167 954,-2120 2120,-2120l114618 0c1166,0 2120,953 2120,2120l0 5739c0,1167 -954,2120 -2120,2120zm-114618 -577l114618 0c847,0 1542,-695 1542,-1543l0 -5739c0,-848 -695,-1542 -1542,-1542l-114618 0c-847,0 -1542,694 -1542,1542l0 5739c0,848 695,1543 1542,1543z"/>
   <path class="fil1" d="M118279 7859l0 -5739c0,-848 -695,-1542 -1542,-1542l-114618 0c-847,0 -1542,694 -1542,1542l0 5739c0,848 695,1543 1542,1543l114618 0c847,0 1542,-695 1542,-1543z"/>
   <path class="fil2" d="M55631 4986c-89,0 -171,21 -246,62 -75,41 -139,95 -192,163 -55,67 -96,146 -126,234 -29,89 -44,182 -44,282 0,95 16,178 47,250 31,70 75,127 130,171 56,45 120,76 193,96 73,18 151,28 233,28 74,0 148,-8 221,-23 73,-16 138,-44 196,-85 57,-40 104,-94 138,-161 35,-66 53,-150 53,-253 0,-118 -17,-223 -50,-315 -33,-93 -77,-173 -133,-241 -56,-67 -120,-119 -193,-154 -73,-36 -149,-54 -227,-54zm-1010 786c0,-144 23,-287 69,-431 46,-145 114,-276 203,-393 90,-118 198,-212 324,-285 126,-74 270,-111 429,-111 140,0 269,28 388,83 119,54 224,135 316,240 91,105 163,233 214,382 51,149 77,321 77,515 0,117 -19,232 -56,344 -37,111 -98,211 -182,299 -83,87 -190,158 -320,214 -131,54 -287,82 -468,82 -150,0 -285,-19 -405,-57 -121,-37 -226,-95 -314,-173 -88,-78 -156,-176 -203,-293 -48,-118 -72,-257 -72,-416zm3097 -2902l0 3815 -438 0 0 -3815 438 0zm2035 3815c-118,0 -216,-27 -295,-80 -78,-53 -136,-115 -174,-187 0,256 -15,472 -46,649 -31,176 -88,320 -173,428 -86,109 -203,187 -353,235 -150,48 -344,72 -584,72l0 -444c173,0 310,-19 409,-56 98,-37 171,-98 220,-182 49,-83 77,-190 86,-320 9,-131 12,-288 12,-472l0 -1434 434 0 0 760c0,181 33,324 99,429 66,106 188,158 365,158 143,0 214,71 214,214 0,89 -17,150 -51,182 -34,32 -88,48 -163,48zm-2 0c-143,0 -214,-72 -214,-214 0,-89 17,-150 51,-182 33,-32 88,-48 163,-48l790 0c143,0 214,71 214,214 0,89 -17,150 -50,182 -34,32 -89,48 -164,48l-790 0zm4078 0c-135,0 -253,-27 -353,-80 -100,-53 -180,-144 -242,-273l0 -10c-68,136 -166,242 -296,318 -130,77 -293,115 -489,115 -171,0 -341,-28 -510,-86 -170,-57 -345,-154 -525,-290 -48,71 -95,128 -143,169 -48,41 -99,71 -153,91 -54,20 -109,32 -166,38 -56,5 -117,8 -181,8l-230 0c-142,0 -213,-72 -213,-214 0,-89 17,-150 51,-182 33,-32 88,-48 162,-48l220 0c43,0 88,-5 134,-16 46,-10 93,-33 138,-69 46,-35 92,-85 136,-147 44,-63 87,-147 127,-253 81,-228 167,-413 258,-553 90,-141 183,-250 278,-326 95,-77 192,-128 290,-154 98,-25 195,-37 291,-37 132,0 256,26 371,77 116,51 216,124 300,219 82,95 148,207 197,336 47,130 71,276 71,438 0,24 -1,48 -3,72 -2,23 -3,45 -3,66 36,115 88,201 156,260 69,58 178,87 327,87 144,0 214,71 212,214 0,89 -17,150 -50,182 -33,32 -87,48 -162,48zm-921 -945c0,-78 -11,-155 -34,-231 -22,-76 -56,-142 -101,-199 -46,-56 -100,-101 -163,-135 -64,-34 -138,-51 -224,-51 -149,0 -287,66 -412,199 -125,132 -243,363 -352,694 132,85 263,154 393,205 129,53 262,79 398,79 150,0 269,-43 360,-128 90,-85 135,-229 135,-433zm919 945c-143,0 -214,-72 -214,-214 0,-89 17,-150 51,-182 33,-32 88,-48 163,-48l850 0c-35,-51 -68,-122 -101,-214 -33,-92 -50,-206 -50,-342 0,-184 43,-358 129,-521 86,-162 218,-276 395,-340 -71,0 -142,1 -213,3 -72,1 -145,4 -220,8l0 -399c388,-22 736,-4 1045,53 309,56 569,159 781,306 211,148 373,346 485,594 112,248 168,549 168,904l0 392 -3269 0zm1500 -444c75,0 138,-19 188,-56 50,-37 90,-84 119,-138 28,-55 48,-116 59,-182 9,-66 15,-127 15,-185 0,-78 -7,-154 -21,-227 -14,-73 -37,-138 -69,-196 -32,-57 -73,-102 -124,-133 -51,-31 -111,-47 -183,-47 -125,0 -222,57 -291,171 -68,114 -102,262 -102,443 0,64 5,128 17,193 13,64 34,122 65,173 30,51 69,94 117,128 47,34 109,53 184,56l26 0zm1320 0c0,-381 -77,-675 -232,-882 -155,-207 -365,-352 -632,-433 62,47 111,102 149,164 39,63 71,127 96,192 25,66 42,131 50,197 9,66 14,128 14,185 0,136 -13,251 -37,345 -24,94 -53,172 -86,232l678 0zm3211 -1255c-89,0 -171,21 -246,62 -75,41 -139,95 -193,163 -54,67 -96,146 -125,234 -30,89 -45,182 -45,282 0,95 16,178 48,250 31,70 74,127 130,171 56,45 120,76 193,96 73,18 150,28 232,28 75,0 149,-8 222,-23 73,-16 138,-44 196,-85 57,-40 103,-94 138,-161 35,-66 53,-150 53,-253 0,-118 -17,-223 -50,-315 -33,-93 -78,-173 -134,-241 -55,-67 -119,-119 -192,-154 -73,-36 -149,-54 -227,-54zm-1010 786c0,-144 23,-287 69,-431 46,-145 114,-276 203,-393 90,-118 198,-212 324,-285 126,-74 269,-111 429,-111 140,0 269,28 387,83 120,54 225,135 316,240 91,105 163,233 214,382 52,149 78,321 78,515 0,117 -19,232 -56,344 -38,111 -98,211 -182,299 -84,87 -191,158 -321,214 -131,54 -287,82 -467,82 -150,0 -285,-19 -406,-57 -121,-37 -225,-95 -313,-173 -88,-78 -156,-176 -203,-293 -48,-118 -72,-257 -72,-416zm3045 -878l433 0 0 1491c0,264 -15,486 -46,667 -31,180 -88,325 -173,435 -86,111 -204,191 -356,240 -151,50 -346,75 -587,75l0 -444c174,0 310,-19 409,-56 98,-37 172,-98 220,-182 49,-83 78,-190 87,-320 9,-131 13,-288 13,-472l0 -1434zm2296 1561c0,89 -17,150 -50,182 -34,32 -89,48 -163,48l-139 0c-115,0 -220,-12 -313,-36 -94,-23 -174,-63 -241,-119 -65,-57 -117,-133 -155,-227 -37,-96 -56,-214 -56,-357l0 -3076 439 0 0 2959c0,149 24,255 70,318 47,63 150,94 311,94l84 0c142,0 213,71 213,214zm3074 230c-135,0 -253,-27 -353,-80 -100,-53 -180,-144 -242,-273l0 -10c-68,136 -166,242 -296,318 -130,77 -293,115 -489,115 -171,0 -341,-28 -510,-86 -170,-57 -345,-154 -525,-290 -48,71 -95,128 -143,169 -48,41 -99,71 -153,91 -54,20 -109,32 -166,38 -56,5 -117,8 -181,8l-229 0c-143,0 -214,-72 -214,-214 0,-89 17,-150 51,-182 33,-32 88,-48 163,-48l219 0c43,0 88,-5 134,-16 46,-10 93,-33 138,-69 47,-35 92,-85 137,-147 43,-63 86,-147 126,-253 81,-228 167,-413 258,-553 90,-141 183,-250 278,-326 95,-77 192,-128 290,-154 98,-25 195,-37 291,-37 132,0 256,26 371,77 116,51 216,124 300,219 82,95 148,207 197,336 47,130 71,276 71,438 0,24 -1,48 -3,72 -2,23 -3,45 -3,66 36,115 88,201 156,260 69,58 178,87 327,87 144,0 214,71 212,214 0,89 -17,150 -50,182 -33,32 -87,48 -162,48zm-921 -945c0,-78 -11,-155 -34,-231 -22,-76 -56,-142 -101,-199 -46,-56 -100,-101 -163,-135 -64,-34 -138,-51 -224,-51 -149,0 -287,66 -412,199 -125,132 -242,363 -352,694 132,85 263,154 393,205 129,53 262,79 398,79 150,0 269,-43 360,-128 90,-85 135,-229 135,-433zm1107 501c118,0 218,-3 298,-11 81,-7 146,-24 195,-50 48,-27 83,-66 104,-118 21,-51 31,-121 31,-210l0 -963 439 0 0 765c0,88 6,169 17,242 11,73 36,135 75,185 39,49 95,88 166,117 71,29 169,43 292,43 78,0 147,-3 207,-11 58,-7 107,-24 147,-50 39,-27 68,-66 87,-118 20,-51 29,-121 29,-210l0 -958 439 0 0 760c0,88 6,169 19,242 14,73 37,135 71,185 33,49 81,88 140,117 61,29 137,43 231,43l449 0 0 -1613 436 0 0 2057 -885 0c-139,0 -250,-33 -335,-99 -85,-67 -141,-149 -168,-249 -64,146 -165,241 -300,284 -136,42 -300,64 -491,64 -125,0 -228,-10 -308,-31 -80,-19 -147,-46 -200,-79 -53,-33 -94,-71 -125,-115 -30,-43 -56,-86 -77,-128 -31,75 -71,134 -120,179 -48,45 -111,80 -187,107 -77,28 -171,45 -284,53 -112,9 -246,14 -403,14l-177 0c-143,0 -214,-72 -214,-214 0,-89 17,-150 51,-182 33,-32 88,-48 163,-48l188 0zm1639 -2513c0,-78 28,-145 84,-199 55,-55 122,-83 200,-83 79,0 146,28 200,83 55,54 83,121 83,199 0,79 -28,146 -83,201 -54,56 -121,84 -200,84 -78,0 -145,-28 -200,-84 -56,-55 -84,-122 -84,-201zm694 0c0,-78 29,-145 84,-199 56,-55 123,-83 201,-83 78,0 144,28 200,83 54,54 82,121 82,199 0,79 -28,146 -82,201 -56,56 -122,84 -200,84 -78,0 -145,-28 -201,-84 -55,-55 -84,-122 -84,-201zm-337 -639c0,-79 29,-145 84,-201 56,-56 123,-83 202,-83 78,0 144,27 199,83 54,56 82,122 82,201 0,78 -28,144 -82,199 -55,55 -121,82 -199,82 -79,0 -146,-27 -202,-82 -55,-55 -84,-121 -84,-199zm5225 3366c0,89 -17,150 -51,182 -34,32 -88,48 -163,48l-139 0c-115,0 -219,-12 -313,-36 -94,-23 -173,-63 -240,-119 -66,-57 -118,-133 -155,-227 -38,-96 -56,-214 -56,-357l0 -3076 438 0 0 2959c0,149 24,255 70,318 47,63 151,94 311,94l84 0c142,0 214,71 214,214zm-214 230c-143,0 -214,-72 -214,-214 0,-89 17,-150 51,-182 34,-32 88,-48 163,-48l833 0 0 -1613 438 0 0 2057 -1271 0zm219 806c0,-79 28,-145 84,-200 55,-54 122,-82 200,-82 79,0 145,28 200,82 55,55 82,121 82,200 0,78 -27,145 -82,201 -55,55 -121,84 -200,84 -78,0 -145,-29 -200,-84 -56,-56 -84,-123 -84,-201zm694 0c0,-79 28,-145 84,-200 56,-54 123,-82 201,-82 77,0 144,28 199,82 55,55 82,121 82,200 0,78 -27,145 -82,201 -55,55 -122,84 -199,84 -78,0 -145,-29 -201,-84 -56,-56 -84,-123 -84,-201zm5149 -806c-14,452 -147,793 -398,1022 -251,230 -607,345 -1066,345 -242,0 -454,-34 -638,-102 -183,-67 -337,-163 -460,-285 -122,-123 -214,-269 -277,-438 -63,-168 -94,-356 -94,-563l0 -825 433 0 0 733c0,694 349,1042 1047,1042 359,0 619,-78 780,-233 160,-155 240,-410 240,-767l0 -3744 433 0 0 3371 418 0c142,0 214,71 214,214 0,89 -17,150 -51,182 -34,32 -88,48 -163,48l-418 0zm418 0c-143,0 -214,-72 -214,-214 0,-89 17,-150 51,-182 34,-32 88,-48 163,-48l357 0c86,0 159,-3 219,-11 62,-7 112,-24 153,-50 41,-27 72,-66 91,-118 21,-51 31,-121 31,-210l0 -1224 438 0 0 1026c0,88 6,169 19,242 11,73 35,135 71,185 35,49 84,88 143,117 61,29 137,43 232,43 142,0 214,71 214,214 0,89 -17,150 -51,182 -34,32 -88,48 -163,48 -139,0 -251,-33 -337,-99 -85,-67 -142,-149 -173,-249 -64,146 -164,241 -301,284 -136,42 -304,64 -505,64l-438 0zm422 806c0,-79 28,-145 84,-200 55,-54 122,-82 200,-82 79,0 145,28 200,82 55,55 83,121 83,200 0,78 -28,145 -83,201 -55,55 -121,84 -200,84 -78,0 -145,-29 -200,-84 -56,-56 -84,-123 -84,-201zm694 0c0,-79 29,-145 84,-200 56,-54 123,-82 201,-82 78,0 144,28 200,82 54,55 82,121 82,200 0,78 -28,145 -82,201 -56,55 -122,84 -200,84 -78,0 -145,-29 -201,-84 -55,-56 -84,-123 -84,-201zm3923 -806c-136,0 -253,-27 -354,-80 -100,-53 -180,-144 -241,-273l0 -10c-68,136 -167,242 -296,318 -130,77 -293,115 -489,115 -171,0 -341,-28 -510,-86 -171,-57 -345,-154 -526,-290 -47,71 -94,128 -142,169 -48,41 -99,71 -154,91 -53,20 -108,32 -165,38 -56,5 -117,8 -181,8l-230 0c-142,0 -214,-72 -214,-214 0,-89 17,-150 51,-182 34,-32 88,-48 163,-48l219 0c44,0 88,-5 135,-16 46,-10 92,-33 138,-69 46,-35 92,-85 136,-147 44,-63 86,-147 127,-253 81,-228 167,-413 258,-553 90,-141 182,-250 278,-326 94,-77 191,-128 289,-154 98,-25 195,-37 292,-37 131,0 255,26 371,77 116,51 215,124 299,219 83,95 149,207 197,336 47,130 71,276 71,438 0,24 -1,48 -2,72 -2,23 -3,45 -3,66 36,115 87,201 156,260 68,58 177,87 327,87 143,0 214,71 212,214 0,89 -17,150 -50,182 -33,32 -87,48 -162,48zm-921 -945c0,-78 -11,-155 -34,-231 -22,-76 -56,-142 -102,-199 -45,-56 -99,-101 -163,-135 -64,-34 -138,-51 -223,-51 -150,0 -287,66 -413,199 -124,132 -242,363 -351,694 131,85 262,154 392,205 129,53 262,79 399,79 149,0 268,-43 359,-128 90,-85 136,-229 136,-433zm918 945c-142,0 -214,-72 -214,-214 0,-89 17,-150 51,-182 34,-32 88,-48 163,-48l833 0 0 -1613 438 0 0 2057 -1271 0zm219 806c0,-79 28,-145 84,-200 55,-54 122,-82 200,-82 79,0 146,28 200,82 55,55 83,121 83,200 0,78 -28,145 -83,201 -54,55 -121,84 -200,84 -78,0 -145,-29 -200,-84 -56,-56 -84,-123 -84,-201zm694 0c0,-79 29,-145 84,-200 56,-54 123,-82 201,-82 78,0 144,28 200,82 54,55 82,121 82,200 0,78 -28,145 -82,201 -56,55 -122,84 -200,84 -78,0 -145,-29 -201,-84 -55,-56 -84,-123 -84,-201zm1543 -4621l0 3815 -438 0 0 -3815 438 0zm4791 3750c0,466 -128,802 -385,1010 -256,206 -616,310 -1079,310 -492,0 -860,-109 -1104,-326 -243,-218 -365,-535 -365,-950l0 -825 433 0 0 733c0,171 22,317 67,436 44,120 110,216 196,289 88,72 197,124 329,156 133,32 284,49 454,49 178,0 331,-13 460,-37 128,-24 234,-70 318,-138 84,-68 145,-160 184,-273 40,-114 59,-261 59,-440l0 -1720 433 0 0 760c0,88 5,169 17,242 12,73 36,135 73,185 37,49 90,88 157,117 67,29 159,43 278,43 85,0 159,-3 222,-11 62,-7 114,-24 155,-50 40,-27 71,-66 91,-118 20,-51 30,-121 30,-210l0 -958 436 0 0 760c0,88 6,169 20,242 12,73 36,135 70,185 34,49 81,88 141,117 59,29 137,43 230,43l449 0 0 -1613 439 0 0 2057 -888 0c-138,0 -251,-33 -334,-99 -85,-67 -141,-149 -169,-249 -64,146 -166,241 -305,284 -139,42 -315,64 -528,64 -170,0 -300,-26 -390,-77 -89,-52 -154,-113 -194,-184l0 196zm3943 -1726l433 0 0 1491c0,264 -15,486 -45,667 -31,180 -88,325 -174,435 -85,111 -204,191 -355,240 -152,50 -347,75 -587,75l0 -444c173,0 310,-19 409,-56 98,-37 171,-98 220,-182 49,-83 77,-190 86,-320 9,-131 13,-288 13,-472l0 -1434zm2933 1204c0,170 -58,311 -176,421 -117,110 -288,166 -513,166l-1278 0 0 -444 1242 0c122,0 198,-19 229,-56 32,-37 48,-79 48,-126 0,-35 -8,-73 -22,-112 -13,-39 -48,-102 -104,-190 -55,-88 -136,-209 -241,-364 -106,-155 -249,-365 -430,-631l413 -259c142,245 266,452 370,620 104,168 191,310 258,428 68,117 119,218 154,303 34,84 50,165 50,244zm-65 -3957c81,-82 159,-135 232,-160 73,-25 145,-38 217,-38 68,0 149,16 244,48 95,33 183,68 265,108 86,40 167,73 245,100 78,26 148,39 209,39 92,0 162,-25 208,-75 45,-50 78,-101 97,-155l170 76c-51,139 -110,244 -176,315 -67,72 -167,107 -299,107 -96,0 -188,-15 -275,-45 -88,-30 -173,-66 -255,-106 -82,-40 -164,-74 -246,-102 -81,-27 -157,-42 -228,-42 -62,0 -113,8 -154,22 -41,13 -88,41 -141,81l-113 -173zm1159 729l0 3815 -438 0 0 -3815 438 0z"/>
  </g>
 </g>
</svg>
