<?xml version="1.0" encoding="UTF-8"?>
<!DOCTYPE svg PUBLIC "-//W3C//DTD SVG 1.1//EN" "http://www.w3.org/Graphics/SVG/1.1/DTD/svg11.dtd">
<!-- Creator: CorelDRAW X7 -->
<svg xmlns="http://www.w3.org/2000/svg" xml:space="preserve" width="0.77126in" height="0.771299in" version="1.1" style="shape-rendering:geometricPrecision; text-rendering:geometricPrecision; image-rendering:optimizeQuality; fill-rule:evenodd; clip-rule:evenodd"
viewBox="0 0 7713 7713"
 xmlns:xlink="http://www.w3.org/1999/xlink">
 <defs>
  <style type="text/css">
   <![CDATA[
    .fil0 {fill:#A38755}
   ]]>
  </style>
 </defs>
 <g id="Layer_x0020_1">
  <metadata id="CorelCorpID_0Corel-Layer"/>
  <path class="fil0" d="M0 3856c0,2134 1722,3857 3856,3857 2134,0 3857,-1723 3857,-3857 0,-2133 -1723,-3856 -3857,-3856 -2134,0 -3856,1723 -3856,3856zm5356 1290l-210 211 -1290 -1291 -1289 1291 -210 -211 1290 -1290 -1290 -1291 209 -209 1290 1290 1290 -1290 210 209 -1290 1291 1290 1290zm2117 -1290c0,2000 -1617,3618 -3617,3618 -2000,0 -3617,-1618 -3617,-3618 0,-1999 1617,-3617 3617,-3617 2000,0 3617,1618 3617,3617z"/>
 </g>
</svg>
