<?xml version="1.0" encoding="UTF-8"?>
<!DOCTYPE svg PUBLIC "-//W3C//DTD SVG 1.1//EN" "http://www.w3.org/Graphics/SVG/1.1/DTD/svg11.dtd">
<!-- Creator: CorelDRAW X7 -->
<svg xmlns="http://www.w3.org/2000/svg" xml:space="preserve" width="4.13508in" height="0.664992in" version="1.1" style="shape-rendering:geometricPrecision; text-rendering:geometricPrecision; image-rendering:optimizeQuality; fill-rule:evenodd; clip-rule:evenodd"
viewBox="0 0 41351 6650"
 xmlns:xlink="http://www.w3.org/1999/xlink">
 <defs>
  <style type="text/css">
   <![CDATA[
    .fil1 {fill:#A38755}
    .fil0 {fill:#E1CBA4}
    .fil2 {fill:white}
   ]]>
  </style>
 </defs>
 <g id="Layer_x0020_1">
  <metadata id="CorelCorpID_0Corel-Layer"/>
  <g id="_2356040216800">
   <g>
    <path class="fil0" d="M4721 1992l2271 549 -1516 1778 181 2331 -2161 -892 -2161 892 180 -2331 -1515 -1778 2271 -549 1224 -1992 1226 1992 0 0zm-1226 -1292l-990 1611 -1842 445 1228 1442 -146 1887 1750 -723 1749 723 -145 -1887 1227 -1442 -1840 -445 -991 -1611z"/>
    <polygon class="fil1" points="663,2756 1891,4198 1745,6085 3495,5362 5244,6085 5099,4198 6326,2756 4486,2311 3495,700 2505,2311 "/>
   </g>
   <g>
    <path class="fil0" d="M13311 1992l2271 549 -1516 1778 181 2331 -2161 -892 -2161 892 179 -2331 -1514 -1778 2271 -549 1223 -1992 1227 1992 0 0zm-1227 -1292l-990 1611 -1841 445 1227 1442 -145 1887 1749 -723 1750 723 -146 -1887 1228 -1442 -1840 -445 -992 -1611z"/>
    <polygon class="fil2" points="9253,2756 10480,4198 10335,6085 12084,5362 13834,6085 13688,4198 14916,2756 13076,2311 12084,700 11094,2311 "/>
   </g>
   <g>
    <path class="fil0" d="M21900 1992l2272 549 -1517 1778 181 2331 -2161 -892 -2161 892 180 -2331 -1515 -1778 2272 -549 1223 -1992 1226 1992 0 0zm-1226 -1292l-990 1611 -1842 445 1228 1442 -146 1887 1750 -723 1749 723 -145 -1887 1227 -1442 -1840 -445 -991 -1611z"/>
    <polygon class="fil2" points="17842,2756 19070,4198 18924,6085 20674,5362 22423,6085 22278,4198 23506,2756 21665,2311 20674,700 19684,2311 "/>
   </g>
   <g>
    <path class="fil0" d="M30490 1992l2271 549 -1516 1778 181 2331 -2161 -892 -2161 892 180 -2331 -1515 -1778 2271 -549 1223 -1992 1227 1992 0 0zm-1227 -1292l-989 1611 -1842 445 1228 1442 -146 1887 1749 -723 1750 723 -146 -1887 1228 -1442 -1840 -445 -992 -1611z"/>
    <polygon class="fil2" points="27660,4198 27514,6085 29263,5362 31013,6085 30867,4198 32095,2756 30255,2311 29263,700 28273,2311 26432,2756 "/>
   </g>
   <g>
    <path class="fil0" d="M39079 1992l2272 549 -1517 1778 182 2331 -2161 -892 -2161 892 179 -2331 -1515 -1778 2272 -549 1223 -1992 1226 1992 0 0zm-1226 -1292l-990 1611 -1842 445 1228 1442 -146 1887 1750 -723 1750 723 -146 -1887 1228 -1442 -1841 -445 -991 -1611z"/>
    <polygon class="fil2" points="36249,4198 36103,6085 37853,5362 39603,6085 39457,4198 40685,2756 38844,2311 37853,700 36863,2311 35021,2756 "/>
   </g>
  </g>
 </g>
</svg>
