<?xml version="1.0" encoding="UTF-8"?>
<!DOCTYPE svg PUBLIC "-//W3C//DTD SVG 1.1//EN" "http://www.w3.org/Graphics/SVG/1.1/DTD/svg11.dtd">
<!-- Creator: CorelDRAW X7 -->
<svg xmlns="http://www.w3.org/2000/svg" xml:space="preserve" width="1.38028in" height="1.38028in" version="1.1" style="shape-rendering:geometricPrecision; text-rendering:geometricPrecision; image-rendering:optimizeQuality; fill-rule:evenodd; clip-rule:evenodd"
viewBox="0 0 13803 13803"
 xmlns:xlink="http://www.w3.org/1999/xlink">
 <defs>
  <style type="text/css">
   <![CDATA[
    .fil4 {fill:#D2AE6D}
    .fil2 {fill:#E5D3B2}
    .fil3 {fill:#F1E5CF}
    .fil1 {fill:white}
    .fil0 {fill:#FBF7F0;fill-rule:nonzero}
   ]]>
  </style>
 </defs>
 <g id="Layer_x0020_1">
  <metadata id="CorelCorpID_0Corel-Layer"/>
  <g id="_2356165474432">
   <g>
    <path class="fil0" d="M6901 13375c-3593,0 -6474,-2892 -6474,-6474 0,-3582 2881,-6474 6474,-6474 3594,0 6474,2892 6474,6474 0,3582 -2880,6474 -6474,6474z"/>
    <path class="fil1" d="M4918 2604c591,513 582,1494 -18,2191 -601,698 -1567,847 -2157,334 -591,-512 -582,-1493 18,-2191 601,-697 1567,-847 2157,-334z"/>
    <path class="fil2" d="M6901 13375c3594,0 6474,-2892 6474,-6474 0,-3422 -2629,-6214 -5998,-6457 3066,391 5412,2996 5412,6163 0,3437 -2764,6212 -6212,6212 -2967,0 -5428,-2054 -6057,-4816 519,3055 3164,5372 6381,5372z"/>
    <path class="fil3" d="M520 8003c629,2762 3090,4816 6057,4816 3448,0 6212,-2775 6212,-6212 0,-3167 -2346,-5772 -5412,-6163 -157,-11 -316,-17 -476,-17 -476,0 -940,51 -1387,148 2860,43 5139,2359 5139,5220 0,2888 -2323,5220 -5221,5220 -2358,0 -4335,-1544 -4990,-3676 15,225 41,446 78,664z"/>
   </g>
   <path class="fil4" d="M6902 13803c1841,0 3576,-718 4883,-2025 1300,-1300 2018,-3035 2018,-4876 0,-1843 -718,-3577 -2018,-4884 -1307,-1300 -3042,-2018 -4883,-2018 -1843,0 -3577,718 -4884,2018 -1300,1307 -2018,3041 -2018,4884 0,1841 718,3576 2018,4876 1307,1307 3041,2025 4884,2025zm3713 -9794c603,0 1094,491 1094,1095 0,605 -491,1095 -1094,1095 -606,0 -1096,-490 -1096,-1095 0,-604 492,-1095 1096,-1095zm-7426 0c-605,0 -1095,491 -1095,1095 0,605 490,1095 1095,1095 604,0 1095,-490 1095,-1095 0,-604 -492,-1095 -1095,-1095zm0 428c368,0 668,299 668,667 0,369 -300,667 -668,667 -369,0 -668,-298 -668,-667 0,-368 299,-667 668,-667zm7426 0c-369,0 -669,299 -669,667 0,369 300,667 669,667 367,0 667,-298 667,-667 0,-368 -300,-667 -667,-667zm-6630 3381c144,463 400,887 756,1243 582,581 1340,894 2161,894 820,0 1578,-313 2159,-894 357,-356 613,-780 757,-1243l1323 0c-171,809 -572,1549 -1173,2151 -821,821 -1906,1268 -3066,1268 -1162,0 -2246,-447 -3068,-1268 -600,-602 -1001,-1342 -1173,-2151l1324 0zm-758 427c192,527 499,1010 910,1420 741,742 1716,1145 2765,1145 1047,0 2023,-403 2763,-1145 412,-410 718,-893 911,-1420l-460 0c-171,413 -425,790 -753,1118 -661,661 -1527,1019 -2461,1019 -936,0 -1802,-358 -2463,-1019 -328,-328 -581,-705 -753,-1118l-459 0 0 0zm-904 -5922c1223,-1223 2851,-1896 4579,-1896 1727,0 3355,673 4577,1896 1224,1223 1896,2851 1896,4579 0,1727 -672,3355 -1896,4577 -1222,1224 -2850,1896 -4577,1896 -1728,0 -3356,-672 -4579,-1896 -1223,-1222 -1896,-2850 -1896,-4577 0,-1728 673,-3356 1896,-4579z"/>
  </g>
 </g>
</svg>
