<?xml version="1.0" encoding="UTF-8"?>
<!DOCTYPE svg PUBLIC "-//W3C//DTD SVG 1.1//EN" "http://www.w3.org/Graphics/SVG/1.1/DTD/svg11.dtd">
<!-- Creator: CorelDRAW X7 -->
<svg xmlns="http://www.w3.org/2000/svg" xml:space="preserve" width="11.8856in" height="0.997913in" version="1.1" style="shape-rendering:geometricPrecision; text-rendering:geometricPrecision; image-rendering:optimizeQuality; fill-rule:evenodd; clip-rule:evenodd"
viewBox="0 0 118856 9979"
 xmlns:xlink="http://www.w3.org/1999/xlink">
 <defs>
  <style type="text/css">
   <![CDATA[
    .fil1 {fill:white}
    .fil0 {fill:#DFC495;fill-rule:nonzero}
   ]]>
  </style>
 </defs>
 <g id="Layer_x0020_1">
  <metadata id="CorelCorpID_0Corel-Layer"/>
  <g id="_2356075582448">
   <path class="fil0" d="M116737 9979l-114618 0c-1166,0 -2120,-953 -2120,-2120l0 -5739c0,-1167 954,-2120 2120,-2120l114618 0c1166,0 2120,953 2120,2120l0 5739c0,1167 -954,2120 -2120,2120zm-114618 -577l114618 0c847,0 1542,-695 1542,-1543l0 -5739c0,-848 -695,-1542 -1542,-1542l-114618 0c-847,0 -1542,694 -1542,1542l0 5739c0,848 695,1543 1542,1543z"/>
   <path class="fil1" d="M118279 7859l0 -5739c0,-848 -695,-1542 -1542,-1542l-114618 0c-847,0 -1542,694 -1542,1542l0 5739c0,848 695,1543 1542,1543l114618 0c847,0 1542,-695 1542,-1543z"/>
  </g>
 </g>
</svg>
