<?xml version="1.0" encoding="UTF-8"?>
<!DOCTYPE svg PUBLIC "-//W3C//DTD SVG 1.1//EN" "http://www.w3.org/Graphics/SVG/1.1/DTD/svg11.dtd">
<!-- Creator: CorelDRAW X7 -->
<svg xmlns="http://www.w3.org/2000/svg" xml:space="preserve" width="3.67339in" height="0.892866in" version="1.1" style="shape-rendering:geometricPrecision; text-rendering:geometricPrecision; image-rendering:optimizeQuality; fill-rule:evenodd; clip-rule:evenodd"
viewBox="0 0 36734 8929"
 xmlns:xlink="http://www.w3.org/1999/xlink">
 <defs>
  <style type="text/css">
   <![CDATA[
    .fil0 {fill:#8480BC}
    .fil1 {fill:white;fill-rule:nonzero}
   ]]>
  </style>
 </defs>
 <g id="Layer_x0020_1">
  <metadata id="CorelCorpID_0Corel-Layer"/>
  <g id="_2356209089584">
   <path class="fil0" d="M4464 0l27805 0c2456,0 4465,2009 4465,4464 0,2456 -2009,4465 -4465,4465l-27805 0c-2455,0 -4464,-2009 -4464,-4465 0,-2455 2009,-4464 4464,-4464z"/>
   <path class="fil1" d="M9979 4971c0,79 -13,152 -38,221 -25,69 -63,130 -114,181 -52,52 -119,92 -200,123 -82,30 -178,45 -289,45l-1094 0 0 -521 885 0c69,0 123,-7 163,-20 40,-13 60,-39 60,-75 0,-18 -2,-35 -7,-53 -4,-18 -16,-42 -34,-74 -19,-32 -45,-73 -80,-124 -34,-52 -80,-120 -137,-204l-358 -534c90,-60 178,-118 264,-174 86,-56 176,-113 271,-170l392 638c106,172 185,316 237,430 52,115 79,219 79,311zm763 -1030l587 0 0 1346c0,216 -16,400 -49,551 -33,153 -91,275 -174,368 -82,93 -196,162 -343,206 -146,43 -333,66 -559,69l0 -551c121,-4 217,-18 290,-44 73,-26 127,-63 163,-115 37,-50 59,-116 70,-196 10,-80 15,-177 15,-288l0 -1346zm2765 1600c-42,328 -178,566 -406,716 -229,149 -571,224 -1026,224l-139 0 0 -551 104 0c153,0 283,-10 391,-28 107,-17 194,-43 262,-79 68,-35 118,-76 151,-122 34,-46 55,-100 63,-160l-280 0c-132,0 -255,-15 -366,-45 -112,-31 -208,-80 -290,-147 -80,-68 -144,-155 -190,-263 -45,-107 -68,-236 -68,-386 0,-120 20,-240 61,-358 41,-117 100,-223 179,-316 79,-94 175,-168 290,-223 115,-55 246,-83 393,-83 166,0 306,29 418,85 113,57 203,137 273,242 69,104 119,227 149,371 30,142 45,299 45,472l0 130 331 0c24,0 46,2 68,8 21,5 39,16 55,31 17,17 30,41 39,74 10,33 15,79 15,137 0,102 -15,174 -43,212 -30,39 -74,59 -134,59l-345 0zm-1215 -897c0,145 30,244 92,296 62,53 144,80 247,80l299 0 0 -269c0,-144 -23,-264 -68,-360 -45,-95 -129,-144 -253,-144 -112,0 -192,38 -242,113 -51,75 -75,170 -75,284zm3175 376c-8,-121 -28,-232 -58,-332 -30,-101 -76,-188 -138,-260 -62,-71 -141,-128 -237,-169 -97,-40 -217,-60 -361,-60 -49,0 -125,7 -228,20 -104,13 -209,35 -315,66l0 -525c69,-24 163,-49 282,-76 119,-27 242,-42 369,-42 235,0 434,41 595,122 161,81 291,189 390,326 99,135 171,293 215,472 43,179 65,365 65,559l0 420 -2197 0c-23,0 -45,-2 -67,-7 -21,-5 -40,-15 -58,-32 -16,-17 -29,-42 -38,-75 -9,-33 -13,-78 -13,-136 0,-103 14,-174 43,-213 29,-39 73,-58 133,-58l1618 0zm-1067 -2059c0,-87 32,-162 95,-226 63,-64 139,-97 228,-97 86,0 162,32 225,95 63,63 95,139 95,228 0,86 -32,162 -95,225 -63,63 -139,95 -225,95 -87,0 -162,-32 -226,-95 -64,-63 -97,-139 -97,-225zm2453 980l588 0 0 1346c0,216 -17,400 -50,551 -33,153 -91,275 -173,368 -83,93 -197,162 -344,206 -146,43 -333,66 -559,69l0 -551c121,-4 217,-18 290,-44 73,-26 128,-63 164,-115 36,-50 58,-116 69,-196 11,-80 15,-177 15,-288l0 -1346zm-45 -980c0,-87 32,-162 95,-226 63,-64 139,-97 227,-97 87,0 162,32 226,95 63,63 95,139 95,228 0,86 -32,162 -95,225 -64,63 -139,95 -226,95 -86,0 -162,-32 -226,-95 -64,-63 -96,-139 -96,-225zm2241 2309c0,102 -14,174 -43,212 -28,39 -73,59 -133,59l-190 0c-103,0 -197,-12 -282,-34 -86,-23 -159,-61 -221,-113 -62,-52 -110,-122 -145,-210 -35,-87 -52,-195 -52,-325l0 -2545 588 0 0 2463c0,106 19,173 55,201 38,28 92,42 161,42l86 0c23,0 46,2 67,8 22,5 41,16 58,31 16,17 29,41 38,74 9,33 13,79 13,137zm340 -250l0 -1278 592 0 0 1799 -1113 0c-23,0 -46,-2 -67,-7 -22,-5 -40,-15 -58,-32 -16,-17 -29,-42 -38,-75 -9,-33 -13,-78 -13,-136 0,-103 14,-174 43,-213 29,-39 73,-58 133,-58l521 0zm-74 1267c0,-87 32,-162 95,-226 63,-63 139,-95 227,-95 87,0 162,32 225,95 63,64 95,139 95,226 0,86 -32,162 -95,225 -63,63 -138,95 -225,95 -87,0 -162,-32 -226,-95 -64,-63 -96,-139 -96,-225zm6236 -746c-86,0 -174,-15 -261,-43 -88,-29 -158,-91 -213,-187 -37,52 -80,93 -129,124 -50,30 -103,54 -161,70 -57,15 -116,24 -178,29 -62,5 -123,7 -183,7l-1985 0c-177,0 -327,-13 -448,-39 -120,-25 -217,-67 -288,-125 -73,-57 -124,-131 -154,-221 -30,-91 -45,-201 -45,-330l0 -747 587 0 0 667c0,60 8,108 23,142 16,35 43,63 81,83 40,21 92,34 159,40 66,6 150,9 253,9l1722 0c103,0 175,-16 215,-47 40,-32 61,-103 61,-213l0 -1018 583 0 0 967c0,112 23,191 70,239 47,48 144,72 291,72 24,0 46,2 67,8 22,5 41,16 58,31 17,17 30,41 39,74 9,33 13,79 13,137 0,102 -15,174 -43,212 -29,39 -73,59 -134,59zm-2907 -2323c0,-86 32,-162 95,-226 63,-64 139,-96 228,-96 86,0 162,31 225,95 63,63 95,139 95,227 0,87 -32,162 -95,225 -63,64 -139,95 -225,95 -87,0 -162,-31 -226,-95 -65,-63 -97,-138 -97,-225zm738 0c0,-86 31,-162 95,-226 63,-64 137,-96 225,-96 86,0 162,31 226,95 64,63 96,139 96,227 0,87 -32,162 -95,225 -64,64 -139,95 -227,95 -88,0 -162,-31 -225,-95 -64,-63 -95,-138 -95,-225zm2443 1802c103,0 175,-16 215,-47 41,-32 60,-103 60,-213l0 -1018 588 0 0 967c0,112 21,191 63,239 42,48 135,72 281,72 24,0 46,2 67,8 22,5 40,16 57,31 16,17 29,41 38,74 10,33 15,79 15,137 0,102 -15,174 -43,212 -29,39 -73,59 -134,59 -86,0 -171,-15 -253,-43 -81,-29 -149,-91 -204,-187 -37,52 -81,93 -131,124 -50,30 -105,54 -162,70 -58,15 -118,24 -179,29 -62,5 -123,7 -183,7l-371 0c-23,0 -46,-2 -67,-7 -22,-5 -41,-15 -58,-32 -17,-17 -29,-42 -38,-75 -10,-33 -13,-78 -13,-136 0,-103 14,-174 43,-213 28,-39 73,-58 133,-58l276 0zm248 1267c0,-87 31,-162 95,-226 63,-63 138,-95 227,-95 87,0 161,32 225,95 63,64 94,139 94,226 0,86 -31,162 -94,225 -64,63 -138,95 -225,95 -87,0 -163,-32 -227,-95 -64,-63 -95,-139 -95,-225zm1478 -1267l0 -1278 592 0 0 1799 -1113 0c-23,0 -46,-2 -67,-7 -22,-5 -41,-15 -58,-32 -16,-17 -29,-42 -38,-75 -9,-33 -13,-78 -13,-136 0,-103 14,-174 43,-213 28,-39 73,-58 133,-58l521 0zm-440 -2059c0,-87 31,-162 95,-226 63,-64 139,-97 227,-97 87,0 162,32 225,95 64,63 95,139 95,228 0,86 -31,162 -95,225 -63,63 -138,95 -225,95 -86,0 -162,-32 -226,-95 -64,-63 -96,-139 -96,-225zm737 0c0,-87 32,-162 95,-226 63,-64 138,-97 225,-97 87,0 162,32 226,95 64,63 96,139 96,228 0,86 -32,162 -95,225 -63,63 -138,95 -227,95 -87,0 -162,-32 -225,-95 -63,-63 -95,-139 -95,-225zm-358 -656c0,-86 32,-162 95,-226 64,-64 140,-96 228,-96 86,0 162,31 225,95 63,63 95,139 95,227 0,87 -32,162 -95,225 -63,64 -139,95 -225,95 -87,0 -162,-31 -226,-95 -64,-63 -97,-138 -97,-225z"/>
  </g>
 </g>
</svg>
