<?xml version="1.0" encoding="UTF-8"?>
<!DOCTYPE svg PUBLIC "-//W3C//DTD SVG 1.1//EN" "http://www.w3.org/Graphics/SVG/1.1/DTD/svg11.dtd">
<!-- Creator: CorelDRAW X7 -->
<svg xmlns="http://www.w3.org/2000/svg" xml:space="preserve" width="1.38028in" height="1.38028in" version="1.1" style="shape-rendering:geometricPrecision; text-rendering:geometricPrecision; image-rendering:optimizeQuality; fill-rule:evenodd; clip-rule:evenodd"
viewBox="0 0 13803 13803"
 xmlns:xlink="http://www.w3.org/1999/xlink">
 <defs>
  <style type="text/css">
   <![CDATA[
    .fil4 {fill:#D2AE6D}
    .fil2 {fill:#E5D3B2}
    .fil3 {fill:#F1E5CF}
    .fil1 {fill:white}
    .fil0 {fill:#FBF7F0;fill-rule:nonzero}
   ]]>
  </style>
 </defs>
 <g id="Layer_x0020_1">
  <metadata id="CorelCorpID_0Corel-Layer"/>
  <g id="_2356162989136">
   <g>
    <path class="fil0" d="M6901 13375c-3593,0 -6474,-2892 -6474,-6474 0,-3582 2881,-6474 6474,-6474 3594,0 6474,2892 6474,6474 0,3582 -2880,6474 -6474,6474z"/>
    <path class="fil1" d="M4918 2604c591,513 582,1494 -18,2191 -601,698 -1567,847 -2157,334 -591,-512 -582,-1493 18,-2191 601,-697 1567,-847 2157,-334z"/>
    <path class="fil2" d="M6901 13375c3594,0 6474,-2892 6474,-6474 0,-3422 -2629,-6214 -5998,-6457 3066,391 5412,2996 5412,6163 0,3437 -2764,6212 -6213,6212 -2966,0 -5427,-2054 -6056,-4816 519,3055 3164,5372 6381,5372z"/>
    <path class="fil3" d="M520 8003c629,2762 3090,4816 6056,4816 3449,0 6213,-2775 6213,-6212 0,-3167 -2346,-5772 -5412,-6163 -157,-11 -316,-17 -476,-17 -476,0 -940,51 -1387,148 2860,43 5139,2359 5139,5220 0,2888 -2323,5220 -5221,5220 -2358,0 -4335,-1544 -4990,-3676 15,225 41,446 78,664z"/>
   </g>
   <path class="fil4" d="M6901 13803c-1842,0 -3576,-718 -4883,-2025 -1300,-1300 -2018,-3035 -2018,-4876 0,-1843 718,-3577 2018,-4884 1307,-1300 3041,-2018 4883,-2018 1842,0 3577,718 4884,2018 1300,1307 2018,3041 2018,4884 0,1841 -718,3576 -2018,4876 -1307,1307 -3042,2025 -4884,2025zm-3452 -4276l6905 0c-117,154 -246,301 -385,442 -822,821 -1907,1268 -3068,1268 -1161,0 -2245,-447 -3067,-1268 -139,-141 -268,-288 -385,-442zm7193 -427l-7482 0c-159,-271 -289,-557 -384,-855l8251 0c-96,298 -225,584 -385,855l0 0zm937 -1282c-179,923 -628,1772 -1309,2452 -900,902 -2094,1396 -3369,1396 -1274,0 -2468,-494 -3369,-1396 -681,-680 -1129,-1529 -1308,-2452l9355 0 0 0zm-8391 -3809c-604,0 -1094,491 -1094,1095 0,605 490,1095 1094,1095 605,0 1096,-490 1096,-1095 0,-604 -492,-1095 -1096,-1095zm7425 0c605,0 1096,491 1096,1095 0,605 -491,1095 -1096,1095 -603,0 -1094,-490 -1094,-1095 0,-604 492,-1095 1094,-1095zm0 428c-367,0 -667,299 -667,667 0,369 300,667 667,667 369,0 669,-298 669,-667 0,-368 -300,-667 -669,-667zm-7425 0c369,0 669,299 669,667 0,369 -300,667 -669,667 -368,0 -667,-298 -667,-667 0,-368 299,-667 667,-667zm8291 -2114c-1222,-1223 -2850,-1896 -4578,-1896 -1727,0 -3355,673 -4578,1896 -1223,1223 -1896,2851 -1896,4579 0,1727 673,3355 1896,4577 1223,1224 2851,1896 4578,1896 1728,0 3356,-672 4578,-1896 1224,-1222 1896,-2850 1896,-4577 0,-1728 -672,-3356 -1896,-4579z"/>
  </g>
 </g>
</svg>
