<?xml version="1.0" encoding="UTF-8"?>
<!DOCTYPE svg PUBLIC "-//W3C//DTD SVG 1.1//EN" "http://www.w3.org/Graphics/SVG/1.1/DTD/svg11.dtd">
<!-- Creator: CorelDRAW X7 -->
<svg xmlns="http://www.w3.org/2000/svg" xml:space="preserve" width="1.38028in" height="1.38028in" version="1.1" style="shape-rendering:geometricPrecision; text-rendering:geometricPrecision; image-rendering:optimizeQuality; fill-rule:evenodd; clip-rule:evenodd"
viewBox="0 0 13803 13803"
 xmlns:xlink="http://www.w3.org/1999/xlink">
 <defs>
  <style type="text/css">
   <![CDATA[
    .fil4 {fill:#A38755}
    .fil2 {fill:#D2AE6D}
    .fil3 {fill:#E6D2AE}
    .fil1 {fill:#FBF7F0}
    .fil0 {fill:#F1E5CF;fill-rule:nonzero}
   ]]>
  </style>
 </defs>
 <g id="Layer_x0020_1">
  <metadata id="CorelCorpID_0Corel-Layer"/>
  <g id="_2356228395248">
   <g>
    <path class="fil0" d="M6901 13375c-3593,0 -6474,-2892 -6474,-6474 0,-3582 2881,-6474 6474,-6474 3594,0 6474,2892 6474,6474 0,3582 -2880,6474 -6474,6474z"/>
    <path class="fil1" d="M4918 2604c591,513 582,1494 -18,2191 -601,698 -1567,847 -2157,334 -591,-512 -582,-1493 18,-2191 601,-697 1567,-847 2157,-334z"/>
    <path class="fil2" d="M6901 13375c3594,0 6474,-2892 6474,-6474 0,-3422 -2629,-6214 -5998,-6457 3066,391 5412,2996 5412,6163 0,3437 -2764,6212 -6212,6212 -2967,0 -5427,-2054 -6057,-4816 519,3055 3164,5372 6381,5372z"/>
    <path class="fil3" d="M520 8003c630,2762 3090,4816 6057,4816 3448,0 6212,-2775 6212,-6212 0,-3167 -2346,-5772 -5412,-6163 -157,-11 -316,-17 -476,-17 -476,0 -940,51 -1387,148 2860,43 5139,2359 5139,5220 0,2888 -2323,5220 -5221,5220 -2358,0 -4335,-1544 -4990,-3676 15,225 41,446 78,664z"/>
   </g>
   <path class="fil4" d="M6902 0c1841,0 3576,718 4883,2025 1300,1300 2018,3034 2018,4877 0,1841 -718,3576 -2018,4883 -1307,1300 -3042,2018 -4883,2018 -1843,0 -3577,-718 -4884,-2018 -1300,-1307 -2018,-3042 -2018,-4883 0,-1843 718,-3577 2018,-4877 1307,-1307 3041,-2025 4884,-2025zm-4241 8245l8482 0 0 1282 -8482 0 0 -1282zm7954 -2046c603,0 1094,-491 1094,-1095 0,-605 -491,-1095 -1094,-1095 -606,0 -1096,490 -1096,1095 0,604 492,1095 1096,1095zm-7426 0c-605,0 -1095,-491 -1095,-1095 0,-605 490,-1095 1095,-1095 604,0 1095,490 1095,1095 0,604 -492,1095 -1095,1095zm-866 5280c1223,1224 2851,1896 4579,1896 1727,0 3355,-672 4577,-1896 1224,-1222 1896,-2850 1896,-4577 0,-1728 -672,-3356 -1896,-4579 -1222,-1223 -2850,-1896 -4577,-1896 -1728,0 -3356,673 -4579,1896 -1223,1223 -1896,2851 -1896,4579 0,1727 673,3355 1896,4577z"/>
  </g>
 </g>
</svg>
