<?xml version="1.0" encoding="UTF-8"?>
<!DOCTYPE svg PUBLIC "-//W3C//DTD SVG 1.1//EN" "http://www.w3.org/Graphics/SVG/1.1/DTD/svg11.dtd">
<!-- Creator: CorelDRAW X7 -->
<svg xmlns="http://www.w3.org/2000/svg" xml:space="preserve" width="21.3048in" height="20.2426in" version="1.1" style="shape-rendering:geometricPrecision; text-rendering:geometricPrecision; image-rendering:optimizeQuality; fill-rule:evenodd; clip-rule:evenodd"
viewBox="0 0 213048 202426"
 xmlns:xlink="http://www.w3.org/1999/xlink">
 <defs>
  <style type="text/css">
   <![CDATA[
    .fil4 {fill:#DFC495}
    .fil3 {fill:#F1E5CF}
    .fil2 {fill:#F5EEE2}
    .fil0 {fill:#FBF7F0}
    .fil1 {fill:white}
   ]]>
  </style>
 </defs>
 <g id="Layer_x0020_1">
  <metadata id="CorelCorpID_0Corel-Layer"/>
  <g id="_2356186475664">
   <path class="fil0" d="M7087 202426l198874 0c3898,0 7086,-3189 7086,-7087l0 -188252c0,-3898 -3188,-7087 -7086,-7087l-75953 0 0 460 -46969 0 0 -460 -75952 0c-3898,0 -7087,3189 -7087,7087l0 188252c0,3898 3189,7087 7087,7087z"/>
   <g>
    <path class="fil1" d="M82815 2407c0,13345 10615,24164 23709,24164 13094,0 23709,-10819 23709,-24164 0,-812 -40,-1615 -117,-2407l-317 0c77,770 116,1552 116,2342 0,12919 -10472,23392 -23391,23392 -12919,0 -23392,-10473 -23392,-23392 0,-790 40,-1572 117,-2342l-317 0c-77,792 -117,1595 -117,2407z"/>
    <g>
     <path class="fil2" d="M83132 2342c0,-633 26,-1261 75,-1882l46633 0c50,621 75,1249 75,1882 0,12919 -10472,23392 -23391,23392 -12919,0 -23392,-10473 -23392,-23392z"/>
     <path class="fil3" d="M83602 7031c2369,10426 11732,18211 22922,18211 11190,0 20553,-7785 22921,-18211 308,-1515 470,-3083 470,-4689 0,-633 -25,-1261 -75,-1882l-1038 0c21,370 32,743 32,1117 0,11382 -9988,20609 -22310,20609 -12322,0 -22311,-9227 -22311,-20609 0,-374 11,-747 33,-1117l-1039 0c-49,621 -75,1249 -75,1882 0,1606 162,3174 470,4689z"/>
     <path class="fil4" d="M83602 7031c2172,10672 11609,18703 22922,18703 11313,0 20750,-8031 22921,-18703 -2368,10426 -11731,18031 -22921,18031 -11190,0 -20553,-7605 -22922,-18031z"/>
    </g>
   </g>
  </g>
 </g>
</svg>
