<?xml version="1.0" encoding="UTF-8"?>
<!DOCTYPE svg PUBLIC "-//W3C//DTD SVG 1.1//EN" "http://www.w3.org/Graphics/SVG/1.1/DTD/svg11.dtd">
<!-- Creator: CorelDRAW X7 -->
<svg xmlns="http://www.w3.org/2000/svg" xml:space="preserve" width="0.849055in" height="0.849055in" version="1.1" style="shape-rendering:geometricPrecision; text-rendering:geometricPrecision; image-rendering:optimizeQuality; fill-rule:evenodd; clip-rule:evenodd"
viewBox="0 0 8491 8491"
 xmlns:xlink="http://www.w3.org/1999/xlink">
 <defs>
  <style type="text/css">
   <![CDATA[
    .fil0 {fill:#716279}
    .fil1 {fill:white}
   ]]>
  </style>
 </defs>
 <g id="Layer_x0020_1">
  <metadata id="CorelCorpID_0Corel-Layer"/>
  <g id="_2623105114960">
   <path class="fil0" d="M8491 4245c0,2345 -1901,4246 -4246,4246 -2344,0 -4245,-1901 -4245,-4246 0,-2344 1901,-4245 4245,-4245 2345,0 4246,1901 4246,4245z"/>
   <path class="fil1" d="M2623 1814c-348,0 -574,228 -574,527 0,293 220,527 560,527l7 0c354,0 574,-234 574,-527 -7,-299 -220,-527 -567,-527zm1061 1471c14,286 0,3052 0,3052l1015 0 0 -1704c0,-92 7,-183 34,-248 73,-182 240,-371 520,-371 368,0 514,280 514,690l0 1633 1014 0 0 -1750c0,-937 -500,-1374 -1167,-1374 -540,0 -780,297 -915,505l0 -433 -1015 0zm-1575 0l0 3052 1014 0 0 -3052 -1014 0z"/>
  </g>
 </g>
</svg>
