<?xml version="1.0" encoding="UTF-8"?>
<!DOCTYPE svg PUBLIC "-//W3C//DTD SVG 1.1//EN" "http://www.w3.org/Graphics/SVG/1.1/DTD/svg11.dtd">
<!-- Creator: CorelDRAW X7 -->
<svg xmlns="http://www.w3.org/2000/svg" xml:space="preserve" width="0.849055in" height="0.849055in" version="1.1" style="shape-rendering:geometricPrecision; text-rendering:geometricPrecision; image-rendering:optimizeQuality; fill-rule:evenodd; clip-rule:evenodd"
viewBox="0 0 8491 8491"
 xmlns:xlink="http://www.w3.org/1999/xlink">
 <defs>
  <style type="text/css">
   <![CDATA[
    .fil0 {fill:#9F9CCB}
    .fil1 {fill:white}
   ]]>
  </style>
 </defs>
 <g id="Layer_x0020_1">
  <metadata id="CorelCorpID_0Corel-Layer"/>
  <g id="_2282894274688">
   <path class="fil0" d="M8491 4245c0,2345 -1901,4246 -4246,4246 -2344,0 -4245,-1901 -4245,-4246 0,-2344 1901,-4245 4245,-4245 2345,0 4246,1901 4246,4245z"/>
   <path class="fil1" d="M6612 4587l0 1750 -1015 0 0 -1633c0,-410 -146,-690 -514,-690 -280,0 -447,189 -520,371 -27,65 -34,156 -34,248l0 1704 -1015 0c0,0 14,-2766 0,-3052l1015 0 0 433c-2,3 -5,6 -6,10l6 0 0 -10c135,-208 376,-505 915,-505 667,0 1168,437 1168,1374zm-4159 -2773c-347,0 -574,228 -574,527 0,293 220,527 561,527l6 0c354,0 574,-234 574,-527 -6,-299 -220,-527 -567,-527zm-514 4523l1014 0 0 -3052 -1014 0 0 3052z"/>
  </g>
 </g>
</svg>
