<?xml version="1.0" encoding="UTF-8"?>
<!DOCTYPE svg PUBLIC "-//W3C//DTD SVG 1.1//EN" "http://www.w3.org/Graphics/SVG/1.1/DTD/svg11.dtd">
<!-- Creator: CorelDRAW X7 -->
<svg xmlns="http://www.w3.org/2000/svg" xml:space="preserve" width="0.849055in" height="0.849055in" version="1.1" style="shape-rendering:geometricPrecision; text-rendering:geometricPrecision; image-rendering:optimizeQuality; fill-rule:evenodd; clip-rule:evenodd"
viewBox="0 0 8491 8491"
 xmlns:xlink="http://www.w3.org/1999/xlink">
 <defs>
  <style type="text/css">
   <![CDATA[
    .fil0 {fill:#75613D}
    .fil1 {fill:white}
   ]]>
  </style>
 </defs>
 <g id="Layer_x0020_1">
  <metadata id="CorelCorpID_0Corel-Layer"/>
  <g id="_2282851822800">
   <path class="fil0" d="M8491 4245c0,-2344 -1901,-4245 -4246,-4245 -2344,0 -4245,1901 -4245,4245 0,2345 1901,4246 4245,4246 2345,0 4246,-1901 4246,-4246z"/>
   <path class="fil1" d="M6363 2214c169,-66 344,82 307,260l-759 3628c-35,170 -235,247 -375,144l-1146 -841 -584 596c-103,105 -280,62 -324,-77l-421 -1338 -1129 -334c-149,-43 -157,-250 -14,-306l4445 -1732zm-557 805c50,-44 -8,-121 -64,-86l-2438 1512c-43,27 -63,79 -47,127l332 1460c7,23 39,19 42,-4l74 -1112c3,-28 16,-53 36,-71l2065 -1826z"/>
  </g>
 </g>
</svg>
