<?xml version="1.0" encoding="UTF-8"?>
<!DOCTYPE svg PUBLIC "-//W3C//DTD SVG 1.1//EN" "http://www.w3.org/Graphics/SVG/1.1/DTD/svg11.dtd">
<!-- Creator: CorelDRAW X7 -->
<svg xmlns="http://www.w3.org/2000/svg" xml:space="preserve" width="0.711063in" height="0.711063in" version="1.1" style="shape-rendering:geometricPrecision; text-rendering:geometricPrecision; image-rendering:optimizeQuality; fill-rule:evenodd; clip-rule:evenodd"
viewBox="0 0 7111 7111"
 xmlns:xlink="http://www.w3.org/1999/xlink">
 <defs>
  <style type="text/css">
   <![CDATA[
    .fil0 {fill:none}
    .fil1 {fill:black}
   ]]>
  </style>
 </defs>
 <g id="Layer_x0020_1">
  <metadata id="CorelCorpID_0Corel-Layer"/>
  <g id="_2160983788464">
   <rect class="fil0" width="7111" height="7111"/>
   <path class="fil1" d="M2444 1686l0 666 666 0 0 222 -666 0 0 666 -222 0 0 -666 -666 0 0 -222 666 0 0 -666 222 0zm1556 3283l1555 0 0 222 -1555 0 0 -222zm0 -345l1555 0 0 -223 -1555 0 0 223zm-1039 -298l-470 470 470 471 -157 158 -471 -471 -471 471 -157 -158 471 -471 -471 -470 157 -158 471 471 471 -471 157 158zm1039 -1974l1555 0 0 223 -1555 0 0 -223z"/>
  </g>
 </g>
</svg>
