<?xml version="1.0" encoding="UTF-8"?>
<!DOCTYPE svg PUBLIC "-//W3C//DTD SVG 1.1//EN" "http://www.w3.org/Graphics/SVG/1.1/DTD/svg11.dtd">
<!-- Creator: CorelDRAW X7 -->
<svg xmlns="http://www.w3.org/2000/svg" xml:space="preserve" width="0.711063in" height="0.711063in" version="1.1" style="shape-rendering:geometricPrecision; text-rendering:geometricPrecision; image-rendering:optimizeQuality; fill-rule:evenodd; clip-rule:evenodd"
viewBox="0 0 7111 7111"
 xmlns:xlink="http://www.w3.org/1999/xlink">
 <defs>
  <style type="text/css">
   <![CDATA[
    .fil0 {fill:none}
    .fil1 {fill:black}
   ]]>
  </style>
 </defs>
 <g id="Layer_x0020_1">
  <metadata id="CorelCorpID_0Corel-Layer"/>
  <g id="_2160979249984">
   <rect class="fil0" width="7111" height="7111"/>
   <path class="fil1" d="M5665 5266l0 -3284 -329 0 0 -444 -223 0 0 444 -445 0 0 -444 -222 0 0 444 -446 0 0 -444 -222 0 0 444 -445 0 0 -444 -223 0 0 444 -445 0 0 -444 -222 0 0 444 -446 0 0 -444 -222 0 0 444 -330 0 0 3284 4220 0zm-1777 -1124l-666 0 0 222 666 0 0 -222zm-1101 0l-666 0 0 222 666 0 0 -222zm0 -1258l-666 0 0 222 666 0 0 -222zm1101 0l-666 0 0 222 666 0 0 -222zm1102 0l-666 0 0 222 666 0 0 -222zm163 1059l-624 625 -368 -369 157 -156 131 132 80 80 146 -146 321 -322 157 156zm290 1101l-3776 0 0 -2840 3776 0 0 2840z"/>
  </g>
 </g>
</svg>
