<?xml version="1.0" encoding="UTF-8"?>
<!DOCTYPE svg PUBLIC "-//W3C//DTD SVG 1.1//EN" "http://www.w3.org/Graphics/SVG/1.1/DTD/svg11.dtd">
<!-- Creator: CorelDRAW X7 -->
<svg xmlns="http://www.w3.org/2000/svg" xml:space="preserve" width="0.711063in" height="0.711063in" version="1.1" style="shape-rendering:geometricPrecision; text-rendering:geometricPrecision; image-rendering:optimizeQuality; fill-rule:evenodd; clip-rule:evenodd"
viewBox="0 0 7111 7111"
 xmlns:xlink="http://www.w3.org/1999/xlink">
 <defs>
  <style type="text/css">
   <![CDATA[
    .fil0 {fill:none}
    .fil1 {fill:black}
   ]]>
  </style>
 </defs>
 <g id="Layer_x0020_1">
  <metadata id="CorelCorpID_0Corel-Layer"/>
  <g id="_2160979250272">
   <rect class="fil0" width="7111" height="7111"/>
   <path class="fil1" d="M1667 2491c0,-192 158,-350 350,-350l3076 0c193,0 350,158 350,350l0 2128c0,193 -157,350 -350,350l-3076 0c-192,0 -350,-157 -350,-350l0 -2128zm2152 578c172,94 291,276 291,486 0,50 -7,98 -19,144 -27,100 -82,189 -155,258 -100,93 -233,151 -379,151 -305,0 -556,-247 -556,-553 0,-294 232,-534 522,-551l34 -1c95,0 184,24 262,66zm-262 -289c-60,0 -118,7 -174,20 -345,79 -604,386 -604,755 0,429 350,775 778,775 159,0 308,-48 431,-131 73,-49 137,-110 189,-180 97,-129 155,-290 155,-464 0,-397 -302,-726 -688,-770 -28,-3 -57,-5 -87,-5zm1603 -189c0,-92 -74,-166 -166,-166 -90,0 -165,74 -165,166 0,92 75,167 165,167 92,0 166,-75 166,-167zm-1936 964c0,184 149,333 333,333 180,0 329,-149 329,-333 0,-184 -149,-333 -329,-333 -184,0 -333,149 -333,333zm1869 -1636l-3076 0c-315,0 -572,257 -572,572l0 2128c0,315 257,573 572,573l3076 0c315,0 573,-258 573,-573l0 -2128c0,-315 -258,-572 -573,-572z"/>
  </g>
 </g>
</svg>
