<?xml version="1.0" encoding="UTF-8"?>
<!DOCTYPE svg PUBLIC "-//W3C//DTD SVG 1.1//EN" "http://www.w3.org/Graphics/SVG/1.1/DTD/svg11.dtd">
<!-- Creator: CorelDRAW X7 -->
<svg xmlns="http://www.w3.org/2000/svg" xml:space="preserve" width="0.711063in" height="0.711063in" version="1.1" style="shape-rendering:geometricPrecision; text-rendering:geometricPrecision; image-rendering:optimizeQuality; fill-rule:evenodd; clip-rule:evenodd"
viewBox="0 0 7111 7111"
 xmlns:xlink="http://www.w3.org/1999/xlink">
 <defs>
  <style type="text/css">
   <![CDATA[
    .fil0 {fill:none}
    .fil1 {fill:black}
   ]]>
  </style>
 </defs>
 <g id="Layer_x0020_1">
  <metadata id="CorelCorpID_0Corel-Layer"/>
  <g id="_2160983786288">
   <rect class="fil0" width="7111" height="7111"/>
   <path class="fil1" d="M4676 4518l-738 -738c39,-66 62,-144 62,-226 0,-207 -142,-379 -333,-429l0 -1794 -223 0 0 1794c-191,50 -333,222 -333,429 0,245 199,444 445,444 81,0 158,-22 224,-61l739 739 157 -158zm-1231 1704l0 870 221 0 0 -870 -221 0zm0 -6204l0 870 221 0 0 -870 -221 0zm3647 3427l-870 0 0 221 870 0 0 -221zm-6204 0l-870 0 0 221 870 0 0 -221zm2890 109c0,122 -100,222 -222,222 -123,0 -222,-100 -222,-222 0,-123 99,-223 222,-223 122,0 222,100 222,223z"/>
  </g>
 </g>
</svg>
