<?xml version="1.0" encoding="UTF-8"?>
<!DOCTYPE svg PUBLIC "-//W3C//DTD SVG 1.1//EN" "http://www.w3.org/Graphics/SVG/1.1/DTD/svg11.dtd">
<!-- Creator: CorelDRAW X7 -->
<svg xmlns="http://www.w3.org/2000/svg" xml:space="preserve" width="0.711063in" height="0.711063in" version="1.1" style="shape-rendering:geometricPrecision; text-rendering:geometricPrecision; image-rendering:optimizeQuality; fill-rule:evenodd; clip-rule:evenodd"
viewBox="0 0 7111 7111"
 xmlns:xlink="http://www.w3.org/1999/xlink">
 <defs>
  <style type="text/css">
   <![CDATA[
    .fil0 {fill:none}
    .fil1 {fill:black}
   ]]>
  </style>
 </defs>
 <g id="Layer_x0020_1">
  <metadata id="CorelCorpID_0Corel-Layer"/>
  <g id="_2846259815296">
   <rect class="fil0" width="7111" height="7111"/>
   <path class="fil1" d="M3555 2173c608,0 922,430 1006,981 619,-188 1223,91 1223,769 0,468 -378,846 -846,846l-698 0c-490,9 -686,376 -685,822l-204 -204 -157 157 471 471 471 -471 -157 -157 -205 205c-3,-307 114,-601 466,-601l698 0c283,0 555,-113 755,-313 288,-289 381,-710 263,-1099 -164,-538 -694,-767 -1225,-689 -159,-569 -567,-939 -1176,-939 -608,0 -1016,370 -1175,939 -531,-78 -1062,151 -1225,689 -119,389 -25,810 262,1099 200,200 473,313 755,313l258 0 441 0c488,-3 685,-383 684,-823l204 204 157 -157 -471 -471 -471 471 157 157 205 -205c3,307 -113,602 -465,602l-431 0 -268 0c-467,0 -845,-378 -845,-846 0,-678 604,-957 1223,-769 83,-551 398,-981 1005,-981z"/>
  </g>
 </g>
</svg>
