<?xml version="1.0" encoding="UTF-8"?>
<!DOCTYPE svg PUBLIC "-//W3C//DTD SVG 1.1//EN" "http://www.w3.org/Graphics/SVG/1.1/DTD/svg11.dtd">
<!-- Creator: CorelDRAW X7 -->
<svg xmlns="http://www.w3.org/2000/svg" xml:space="preserve" width="0.711063in" height="0.711063in" version="1.1" style="shape-rendering:geometricPrecision; text-rendering:geometricPrecision; image-rendering:optimizeQuality; fill-rule:evenodd; clip-rule:evenodd"
viewBox="0 0 7111 7111"
 xmlns:xlink="http://www.w3.org/1999/xlink">
 <defs>
  <style type="text/css">
   <![CDATA[
    .fil0 {fill:none}
    .fil1 {fill:black}
   ]]>
  </style>
 </defs>
 <g id="Layer_x0020_1">
  <metadata id="CorelCorpID_0Corel-Layer"/>
  <g id="_2846050988688">
   <rect class="fil0" width="7111" height="7111"/>
   <path class="fil1" d="M1702 2030l1041 0 554 554 2112 0 0 2497 -3707 0 0 -3051zm1853 1188c-108,3 -207,38 -286,98 -82,61 -145,148 -181,256l-27 80 -85 -5c-114,-7 -217,20 -292,77 -67,52 -113,131 -125,234 -1,13 -2,25 -2,35l0 0c-2,84 22,166 68,230l0 0c43,59 106,101 186,110l26 1 718 1 719 -1 26 -1c79,-9 142,-51 185,-110 46,-63 71,-146 69,-230l0 0c0,-10 -1,-22 -3,-35 -11,-103 -57,-182 -125,-234 -74,-57 -177,-84 -291,-77l-85 5 -27 -80c-36,-108 -99,-195 -181,-256 -80,-60 -178,-95 -287,-98zm-419 -79c117,-88 260,-138 417,-142l4 0c158,4 301,54 418,142 96,72 175,170 227,286 136,6 261,48 359,123 114,88 192,218 211,386 2,16 3,34 3,54l0 1c3,131 -36,262 -111,364 -78,107 -194,184 -340,200 -13,1 -29,2 -46,3l-723 0 -722 0c-18,-1 -33,-2 -46,-3 -146,-16 -262,-93 -340,-200 -75,-102 -114,-233 -112,-364l0 -1c1,-20 2,-38 4,-54 18,-168 96,-298 211,-386 98,-75 222,-117 358,-123 53,-116 131,-214 228,-286zm-1656 -1331l0 3495 4151 0 0 -2942 -2242 0 -554 -553 -1355 0z"/>
  </g>
 </g>
</svg>
