<?xml version="1.0" encoding="UTF-8"?>
<!DOCTYPE svg PUBLIC "-//W3C//DTD SVG 1.1//EN" "http://www.w3.org/Graphics/SVG/1.1/DTD/svg11.dtd">
<!-- Creator: CorelDRAW X7 -->
<svg xmlns="http://www.w3.org/2000/svg" xml:space="preserve" width="0.711063in" height="0.711063in" version="1.1" style="shape-rendering:geometricPrecision; text-rendering:geometricPrecision; image-rendering:optimizeQuality; fill-rule:evenodd; clip-rule:evenodd"
viewBox="0 0 7111 7111"
 xmlns:xlink="http://www.w3.org/1999/xlink">
 <defs>
  <style type="text/css">
   <![CDATA[
    .fil0 {fill:none}
    .fil1 {fill:black}
   ]]>
  </style>
 </defs>
 <g id="Layer_x0020_1">
  <metadata id="CorelCorpID_0Corel-Layer"/>
  <g id="_2846050998736">
   <rect class="fil0" width="7111" height="7111"/>
   <path class="fil1" d="M2853 2030l555 555 2001 0 0 2496 -3707 0 0 -3051 1151 0zm-228 2249l0 0zm1649 112l-719 0 -718 0 -26 -2c-80,-9 -143,-51 -186,-110 -107,-147 -89,-385 59,-499 75,-57 178,-84 292,-77l85 5 27 -80c157,-469 777,-469 935,0l27 80 85 -5c114,-7 217,20 291,77 149,114 167,352 59,499 -43,59 -106,101 -185,110l-26 2zm-1366 -910c-136,6 -260,48 -358,123 -245,187 -282,562 -103,806 78,106 194,183 340,199l46 3 722 0 723 0 46 -3c146,-16 262,-93 340,-200 178,-244 142,-617 -103,-805 -98,-75 -223,-117 -359,-123 -261,-576 -1040,-561 -1294,0zm2056 -1118l-1464 0 -333 -333 1797 0 0 333zm223 0l0 -555 -3707 0 0 3495 4151 0 0 -2940 -444 0z"/>
  </g>
 </g>
</svg>
