<?xml version="1.0" encoding="UTF-8"?>
<!DOCTYPE svg PUBLIC "-//W3C//DTD SVG 1.1//EN" "http://www.w3.org/Graphics/SVG/1.1/DTD/svg11.dtd">
<!-- Creator: CorelDRAW X7 -->
<svg xmlns="http://www.w3.org/2000/svg" xml:space="preserve" width="0.711063in" height="0.711063in" version="1.1" style="shape-rendering:geometricPrecision; text-rendering:geometricPrecision; image-rendering:optimizeQuality; fill-rule:evenodd; clip-rule:evenodd"
viewBox="0 0 7111 7111"
 xmlns:xlink="http://www.w3.org/1999/xlink">
 <defs>
  <style type="text/css">
   <![CDATA[
    .fil0 {fill:none}
    .fil1 {fill:black}
   ]]>
  </style>
 </defs>
 <g id="Layer_x0020_1">
  <metadata id="CorelCorpID_0Corel-Layer"/>
  <g id="_2846722648304">
   <rect class="fil0" width="7111" height="7111"/>
   <path class="fil1" d="M4249 1805l-2331 0 0 3495 3275 0 0 -2556 -944 -939zm-326 2139l222 0 0 912 -222 0 0 -912zm-1 -223l224 0 0 -448 -224 0 0 448zm-1415 760c92,0 167,74 167,166 0,92 -75,166 -167,166 -92,0 -166,-74 -166,-166 0,-92 74,-166 166,-166zm0 -1093c92,0 167,75 167,167 0,92 -75,166 -167,166 -92,0 -166,-74 -166,-166 0,-92 74,-167 166,-167zm0 -1092c92,0 167,74 167,166 0,92 -75,167 -167,167 -92,0 -166,-75 -166,-167 0,-92 74,-166 166,-166zm368 1694l-735 0 0 -870 735 0 0 870zm-735 222l735 0 0 866 -735 0 0 -866zm735 -1314l-735 0 0 -871 735 0 0 871zm222 2180l0 -3051 930 0 0 939 944 0 0 2112 -1874 0zm1152 -2334l0 -630 630 630 -630 0z"/>
  </g>
 </g>
</svg>
