<?xml version="1.0" encoding="UTF-8"?>
<!DOCTYPE svg PUBLIC "-//W3C//DTD SVG 1.1//EN" "http://www.w3.org/Graphics/SVG/1.1/DTD/svg11.dtd">
<!-- Creator: CorelDRAW X7 -->
<svg xmlns="http://www.w3.org/2000/svg" xml:space="preserve" width="0.711063in" height="0.711063in" version="1.1" style="shape-rendering:geometricPrecision; text-rendering:geometricPrecision; image-rendering:optimizeQuality; fill-rule:evenodd; clip-rule:evenodd"
viewBox="0 0 7111 7111"
 xmlns:xlink="http://www.w3.org/1999/xlink">
 <defs>
  <style type="text/css">
   <![CDATA[
    .fil0 {fill:none}
    .fil1 {fill:black}
   ]]>
  </style>
 </defs>
 <g id="Layer_x0020_1">
  <metadata id="CorelCorpID_0Corel-Layer"/>
  <g id="_2160905535872">
   <rect class="fil0" width="7111" height="7111"/>
   <path class="fil1" d="M2322 4512l-2192 0c21,75 44,149 70,222l2248 0c-43,-73 -85,-147 -126,-222zm2467 0c-41,75 -83,149 -126,222l2248 0c26,-73 49,-147 70,-222l-2192 0zm-1234 -1540c-184,0 -333,-149 -333,-333 0,-185 149,-333 333,-333 180,0 329,148 329,333 0,184 -149,333 -329,333zm553 -333c0,-306 -251,-553 -553,-553 -305,0 -556,247 -556,553 0,305 251,552 556,552 302,0 553,-247 553,-552zm-557 2914c-305,-395 -1324,-1790 -1324,-2691 0,-795 596,-1438 1328,-1438 725,0 1320,643 1324,1438 4,901 -1022,2296 -1328,2691zm1560 -2694c-4,-920 -702,-1669 -1556,-1669 -857,0 -1555,749 -1555,1669 0,947 951,2319 1553,3062 604,-737 1562,-2119 1558,-3062z"/>
  </g>
 </g>
</svg>
