<?xml version="1.0" encoding="UTF-8"?>
<!DOCTYPE svg PUBLIC "-//W3C//DTD SVG 1.1//EN" "http://www.w3.org/Graphics/SVG/1.1/DTD/svg11.dtd">
<!-- Creator: CorelDRAW X7 -->
<svg xmlns="http://www.w3.org/2000/svg" xml:space="preserve" width="0.711063in" height="0.711063in" version="1.1" style="shape-rendering:geometricPrecision; text-rendering:geometricPrecision; image-rendering:optimizeQuality; fill-rule:evenodd; clip-rule:evenodd"
viewBox="0 0 7111 7111"
 xmlns:xlink="http://www.w3.org/1999/xlink">
 <defs>
  <style type="text/css">
   <![CDATA[
    .fil0 {fill:none}
    .fil1 {fill:black}
   ]]>
  </style>
 </defs>
 <g id="Layer_x0020_1">
  <metadata id="CorelCorpID_0Corel-Layer"/>
  <g id="_2160979222048">
   <rect class="fil0" width="7111" height="7111"/>
   <path class="fil1" d="M3555 3191c302,0 553,-247 553,-552 0,-306 -251,-553 -553,-553 -305,0 -556,247 -556,553 0,305 251,552 556,552zm1548 -329c-4,-917 -698,-1661 -1548,-1661 -854,0 -1547,744 -1547,1661 0,936 945,2313 1543,3048 601,-737 1555,-2107 1552,-3048zm-223 0c3,901 -1023,2296 -1329,2691 -305,-395 -1324,-1790 -1324,-2691 0,-796 596,-1438 1328,-1438 725,0 1321,642 1325,1438zm-996 -223c0,184 -149,332 -329,332 -184,0 -333,-148 -333,-332 0,-185 149,-333 333,-333 180,0 329,148 329,333z"/>
  </g>
 </g>
</svg>
