<?xml version="1.0" encoding="UTF-8"?>
<!DOCTYPE svg PUBLIC "-//W3C//DTD SVG 1.1//EN" "http://www.w3.org/Graphics/SVG/1.1/DTD/svg11.dtd">
<!-- Creator: CorelDRAW X7 -->
<svg xmlns="http://www.w3.org/2000/svg" xml:space="preserve" width="0.711063in" height="0.711063in" version="1.1" style="shape-rendering:geometricPrecision; text-rendering:geometricPrecision; image-rendering:optimizeQuality; fill-rule:evenodd; clip-rule:evenodd"
viewBox="0 0 7111 7111"
 xmlns:xlink="http://www.w3.org/1999/xlink">
 <defs>
  <style type="text/css">
   <![CDATA[
    .fil0 {fill:none}
    .fil1 {fill:black;fill-rule:nonzero}
   ]]>
  </style>
 </defs>
 <g id="Layer_x0020_1">
  <metadata id="CorelCorpID_0Corel-Layer"/>
  <g id="_2846259780672">
   <rect class="fil0" width="7111" height="7111"/>
   <path class="fil1" d="M3557 1616c-336,0 -640,148 -861,387 -223,241 -361,575 -361,945 0,322 141,716 331,1103 280,570 668,1121 887,1413 171,-227 444,-609 689,-1034 286,-497 535,-1054 534,-1482 -2,-369 -141,-703 -363,-945 -221,-239 -524,-387 -856,-387zm340 1108c0,189 -153,342 -342,342 -188,0 -341,-153 -341,-342 0,-188 153,-341 341,-341 189,0 342,153 342,341zm-342 -554c-306,0 -554,248 -554,554 0,306 248,555 554,555 306,0 555,-249 555,-555 0,-306 -249,-554 -555,-554zm-1015 -311c260,-281 620,-455 1017,-455 394,0 752,174 1012,456 256,278 416,662 418,1087 2,473 -260,1065 -562,1589 -298,517 -634,968 -788,1168l-84 109 -84 -109c-192,-249 -664,-890 -993,-1559 -203,-414 -353,-839 -353,-1197 0,-425 159,-810 417,-1089z"/>
  </g>
 </g>
</svg>
