<?xml version="1.0" encoding="UTF-8"?>
<!DOCTYPE svg PUBLIC "-//W3C//DTD SVG 1.1//EN" "http://www.w3.org/Graphics/SVG/1.1/DTD/svg11.dtd">
<!-- Creator: CorelDRAW X7 -->
<svg xmlns="http://www.w3.org/2000/svg" xml:space="preserve" width="0.711063in" height="0.711063in" version="1.1" style="shape-rendering:geometricPrecision; text-rendering:geometricPrecision; image-rendering:optimizeQuality; fill-rule:evenodd; clip-rule:evenodd"
viewBox="0 0 7111 7111"
 xmlns:xlink="http://www.w3.org/1999/xlink">
 <defs>
  <style type="text/css">
   <![CDATA[
    .fil0 {fill:none}
    .fil1 {fill:black}
   ]]>
  </style>
 </defs>
 <g id="Layer_x0020_1">
  <metadata id="CorelCorpID_0Corel-Layer"/>
  <g id="_2160983798608">
   <rect class="fil0" width="7111" height="7111"/>
   <path class="fil1" d="M3957 1634l212 59 125 -464 -213 -60 -124 465zm0 3843l212 -59 125 464 -213 59 -124 -464zm-803 0l-213 -59 -124 464 213 59 124 -464zm-996 -1548c-242,-910 441,-1819 1397,-1820 794,0 1447,645 1447,1446 0,801 -653,1446 -1447,1447 -656,-1 -1223,-439 -1397,-1073zm-271 -374c3,915 744,1668 1668,1668 737,0 1413,-493 1611,-1239 38,-143 57,-287 58,-429 -3,-914 -745,-1668 -1669,-1668 -924,0 -1665,754 -1668,1668zm360 1463l-155 -157 -339 340 154 158 340 -341zm-556 -850l-55 -213 -465 124 55 214 465 -125zm3173 850l154 -157 340 340 -155 158 -339 -341zm556 -850l55 -213 464 124 -55 214 -464 -125zm-2266 -2534l-213 59 -124 -464 213 -60 124 465zm-907 458l-155 158 -339 -341 154 -157 340 340zm-556 850l-55 214 -465 -125 55 -213 465 124zm3173 -850l154 158 340 -341 -155 -157 -339 340zm556 850l55 214 464 -125 -55 -213 -464 124z"/>
  </g>
 </g>
</svg>
