<?xml version="1.0" encoding="UTF-8"?>
<!DOCTYPE svg PUBLIC "-//W3C//DTD SVG 1.1//EN" "http://www.w3.org/Graphics/SVG/1.1/DTD/svg11.dtd">
<!-- Creator: CorelDRAW X7 -->
<svg xmlns="http://www.w3.org/2000/svg" xml:space="preserve" width="0.711063in" height="0.711063in" version="1.1" style="shape-rendering:geometricPrecision; text-rendering:geometricPrecision; image-rendering:optimizeQuality; fill-rule:evenodd; clip-rule:evenodd"
viewBox="0 0 7111 7111"
 xmlns:xlink="http://www.w3.org/1999/xlink">
 <defs>
  <style type="text/css">
   <![CDATA[
    .fil0 {fill:none}
    .fil1 {fill:black}
   ]]>
  </style>
 </defs>
 <g id="Layer_x0020_1">
  <metadata id="CorelCorpID_0Corel-Layer"/>
  <g id="_2160985550720">
   <rect class="fil0" width="7111" height="7111"/>
   <path class="fil1" d="M1925 3702c-697,273 -665,966 -154,1175 72,29 152,46 236,46l2879 0c996,0 1204,-1356 28,-1618 0,-1425 -1654,-1508 -1948,-130 -548,-319 -1051,-194 -1041,527zm901 -839c200,-537 680,-947 1272,-892 616,56 979,575 1031,1164 381,127 620,367 733,637 127,304 94,655 -91,928 -175,260 -479,445 -885,445l-2879 0c-272,0 -542,-136 -698,-360 -93,-134 -140,-292 -136,-455 4,-160 57,-323 166,-467 86,-117 209,-222 369,-306 22,-276 128,-544 381,-683 228,-126 500,-99 737,-11z"/>
  </g>
 </g>
</svg>
