<?xml version="1.0" encoding="UTF-8"?>
<!DOCTYPE svg PUBLIC "-//W3C//DTD SVG 1.1//EN" "http://www.w3.org/Graphics/SVG/1.1/DTD/svg11.dtd">
<!-- Creator: CorelDRAW X7 -->
<svg xmlns="http://www.w3.org/2000/svg" xml:space="preserve" width="18.0936in" height="24.0177in" version="1.1" style="shape-rendering:geometricPrecision; text-rendering:geometricPrecision; image-rendering:optimizeQuality; fill-rule:evenodd; clip-rule:evenodd"
viewBox="0 0 180936 240177"
 xmlns:xlink="http://www.w3.org/1999/xlink">
 <defs>
  <style type="text/css">
   <![CDATA[
    .fil0 {fill:#FBF7F0}
   ]]>
  </style>
 </defs>
 <g id="Layer_x0020_1">
  <metadata id="CorelCorpID_0Corel-Layer"/>
  <path class="fil0" d="M9961 89321l2 1303c11,6775 867,13423 2497,19818l0 0c1631,6395 4037,12537 7150,18298l0 0c3112,5763 6932,11145 11391,16019l0 0c4459,4875 9557,9242 15225,12974l0 0 1433 -2187c-5392,-3550 -10251,-7694 -14514,-12314l0 0c-4262,-4621 -7928,-9719 -10934,-15177l0 0c-3007,-5458 -5353,-11275 -6978,-17336l0 0c-1624,-6060 -2526,-12362 -2643,-18790l0 0 9284 -22c190,9295 2238,18139 5788,26176l0 0c3549,8039 8600,15272 14795,21341l0 0c6196,6069 13535,10977 21662,14362l0 0c8128,3387 17044,5252 26388,5238l-5 -2616c-9092,14 -17763,-1822 -25654,-5152l0 0c-7890,-3328 -15002,-8151 -20980,-14110l0 0c-5976,-5958 -10818,-13053 -14170,-20932l0 0c-3351,-7877 -5214,-16535 -5229,-25623l0 0 -3 -1303 -14505 33zm75998 12332c809,1805 2614,3068 4720,3068 2108,0 3912,-1263 4721,-3068l-9441 0zm13408 -13658c0,-4864 -3977,-8798 -8856,-8730 -4696,65 -8531,3892 -8605,8588 -34,2087 665,4008 1856,5527 1408,1794 2142,4027 2142,6309l9464 0 0 -2c0,-2294 756,-4527 2165,-6338 1150,-1478 1834,-3337 1834,-5354zm-8849 -87995l-296 0 -16 0 -312 2 0 0c-109,1 -218,2 -326,3l0 0c-109,1 -219,2 -327,4l0 0c-109,1 -218,4 -328,4l0 0c-5881,101 -11677,768 -17326,1975l0 0c-5648,1208 -11148,2955 -16436,5215l0 0c-5287,2260 -10363,5031 -15163,8290l0 0c-4800,3256 -9324,6999 -13509,11198l0 0c-4185,4199 -7911,8734 -11151,13544l0 0c-3241,4809 -5996,9892 -8237,15184l0 0c-2242,5293 -3971,10795 -5161,16444l0 0c-1189,5648 -1839,11443 -1921,17320l0 0c-74,5168 300,10313 1099,15376l0 0c800,5064 2028,10045 3661,14887l0 0c1636,4843 3678,9546 6107,14049l0 0c2429,4504 5247,8812 8432,12862l0 0c3451,4387 6520,9076 9186,14009l0 0c2668,4935 4934,10115 6777,15485l0 0c1843,5370 3265,10931 4244,16626l0 0c979,5694 1516,11524 1590,17432l0 0c109,224 849,1708 2335,3931l0 0c1486,2222 3720,5184 6818,8363l0 0c3098,3180 7061,6577 12006,9669l0 0c4947,3092 10876,5880 17905,7842l0 0 1662 463 -134 -71173 -2615 4 127 67699c-6034,-1851 -11200,-4361 -15575,-7123l0 0c-4373,-2761 -7955,-5773 -10821,-8626l0 0c-2866,-2853 -5017,-5547 -6529,-7673l0 0c-1512,-2126 -2384,-3684 -2694,-4266l0 0c-61,-5884 -600,-11724 -1595,-17454l0 0c-993,-5730 -2442,-11349 -4325,-16793l0 0c-1883,-5444 -4198,-10712 -6924,-15739l0 0c-2726,-5027 -5861,-9812 -9386,-14293l0 0c-3094,-3932 -5829,-8114 -8189,-12489l0 0c-2360,-4374 -4342,-8941 -5930,-13643l0 0c-1587,-4702 -2778,-9540 -3555,-14458l0 0c-776,-4917 -1139,-9914 -1067,-14933l0 0c166,-11737 2710,-22966 7165,-33220l0 0c4455,-10254 10821,-19535 18635,-27373l0 0c7814,-7839 17076,-14237 27320,-18726l0 0c10245,-4490 21474,-7069 33219,-7270l0 0c103,-2 207,-3 309,-5l0 0c103,-1 207,-3 310,-4l0 0c103,0 206,-1 309,-2l0 0c103,-1 205,-1 308,-1l0 0c5813,-19 11541,520 17123,1596l0 0c5583,1076 11020,2687 16250,4811l0 0c5230,2122 10254,4757 15008,7881l0 0c4756,3124 9243,6736 13401,10814l0 0c4232,4148 7991,8648 11251,13435l0 0c3259,4787 6018,9861 8249,15157l0 0c2232,5296 3935,10815 5084,16492l0 0c1149,5677 1743,11512 1755,17441l0 0c11,4935 -378,9802 -1156,14570l0 0c-779,4768 -1946,9438 -3491,13976l0 0c-1545,4539 -3468,8948 -5759,13195l0 0c-2290,4247 -4948,8331 -7962,12222l0 0c-3556,4590 -6717,9468 -9461,14570l0 0c-2744,5100 -5069,10425 -6956,15908l0 0c-1886,5483 -3332,11123 -4316,16856l0 0c-984,5733 -1506,11558 -1543,17410l0 0c-297,608 -1178,2335 -2706,4664l0 0c-1527,2328 -3701,5258 -6583,8273l0 0c-2883,3016 -6473,6114 -10833,8779l0 0c-4358,2667 -9486,4899 -15445,6182l0 0 -129 -66729c9865,-1416 19111,-4611 27432,-9233l0 0c8321,-4622 15717,-10672 21875,-17797l0 0c6160,-7125 11083,-15325 14461,-24249l0 0c3379,-8922 5212,-18568 5191,-28580l0 0 -2620 6c20,9780 -1787,19198 -5116,27900l0 0c-3329,8702 -8178,16687 -14240,23607l0 0c-6062,6919 -13337,12771 -21517,17206l0 0c-8179,4434 -17262,7451 -26943,8701l0 0 -1144 149 140 72183 1539 -284c6937,-1269 12843,-3759 17807,-6794l0 0c4964,-3034 8982,-6611 12141,-10054l0 0c3158,-3444 5457,-6752 6979,-9249l0 0c1522,-2496 2268,-4180 2323,-4373l0 0c21,-5735 519,-11445 1471,-17062l0 0c953,-5620 2360,-11148 4201,-16521l0 0c1841,-5373 4114,-10591 6799,-15591l0 0c2685,-4998 5780,-9777 9265,-14272l0 0c3104,-4008 5842,-8215 8201,-12588l0 0c2359,-4375 4340,-8915 5931,-13589l0 0c1591,-4675 2793,-9484 3594,-14394l0 0c801,-4911 1202,-9922 1191,-15004l0 0c-13,-6105 -625,-12114 -1808,-17961l0 0c-1183,-5846 -2938,-11529 -5235,-16983l0 0c-2299,-5453 -5139,-10678 -8496,-15608l0 0c-3356,-4929 -7228,-9563 -11587,-13836l0 0c-4279,-4195 -8900,-7912 -13797,-11129l0 0c-4896,-3216 -10070,-5930 -15455,-8118l0 0c-5384,-2187 -10981,-3847 -16726,-4956l0 0c-5648,-1090 -11440,-1646 -17314,-1646zm48828 29839c3006,2428 5809,5053 8395,7856l0 0c2586,2802 4957,5781 7094,8916l0 0c2139,3134 4045,6422 5704,9845l0 0c1660,3422 3072,6978 4223,10645l2498 -779c-1191,-3792 -2651,-7468 -4366,-11007l0 0c-1715,-3539 -3685,-6939 -5895,-10179l0 0c-2209,-3240 -4658,-6319 -7331,-9216l0 0c-2674,-2896 -5571,-5609 -8677,-8117l0 0 -1645 2036zm-80986 14745c-4889,3440 -9183,7634 -12732,12383l0 0c-3549,4750 -6355,10055 -8271,15720l0 0c-1916,5666 -2942,11693 -2931,17882l0 0c13,7714 1595,15064 4440,21751l0 0c2846,6687 6957,12710 12031,17768l0 0c5075,5058 11113,9151 17810,11976l0 0c6699,2826 14059,4383 21776,4370l0 0c7611,-12 14870,-1550 21487,-4324l0 0c6619,-2774 12596,-6782 17641,-11737l0 0c5045,-4955 9159,-10855 12052,-17410l0 0c2892,-6554 4563,-13764 4722,-21336l0 0 9985 -22c-122,7042 -1347,13863 -3537,20271l0 0c-2190,6409 -5344,12403 -9323,17792l0 0c-3978,5389 -8779,10170 -14265,14152l0 0c-5487,3982 -11656,7165 -18370,9355l0 0 813 2488c7086,-2312 13591,-5687 19359,-9917l0 0c5770,-4230 10804,-9314 14951,-15042l0 0c4146,-5728 7404,-12101 9622,-18907l0 0c2218,-6807 3395,-14047 3380,-21511l0 0 -3 -1305 -15223 35 4 1305c7,3468 -319,6860 -947,10147l0 0c-627,3285 -1558,6467 -2760,9512l0 0c-1202,3044 -2677,5952 -4394,8696l0 0c-1717,2742 -3676,5319 -5847,7699l0 0 -7254 -7204c1712,-1916 3256,-3984 4608,-6181l0 0c1353,-2198 2514,-4526 3461,-6958l0 0c946,-2434 1678,-4973 2172,-7596l0 0c494,-2621 749,-5326 743,-8092l0 0c-12,-5953 -1234,-11625 -3433,-16783l0 0c-2200,-5159 -5376,-9804 -9294,-13702l0 0c-3918,-3898 -8578,-7050 -13746,-9224l0 0c-5168,-2173 -10844,-3367 -16793,-3351l0 0c-5949,16 -11618,1241 -16773,3442l0 0c-5156,2200 -9799,5376 -13698,9291l0 0c-3897,3917 -7050,8574 -9226,13738l0 0c-2176,5165 -3375,10838 -3364,16785l0 0c8,4414 676,8706 1930,12762l0 0c1253,4057 3092,7880 5441,11356l0 0c2349,3477 5209,6610 8506,9286l0 0c3295,2675 7028,4895 11121,6548l0 0 977 -2429c-3847,-1553 -7353,-3638 -10450,-6151l0 0c-3095,-2514 -5782,-5455 -7989,-8721l0 0c-2206,-3266 -3934,-6856 -5111,-10666l0 0c-1177,-3812 -1804,-7843 -1812,-11991l0 0c-1,-858 23,-1710 75,-2556l0 0c52,-845 129,-1684 232,-2516l0 0c104,-830 232,-1654 386,-2469l0 0c152,-815 330,-1622 532,-2421l0 0 8449 2964c-126,563 -237,1132 -335,1705l0 0c-96,572 -177,1150 -242,1731l0 0c-66,582 -116,1169 -148,1760l0 0c-33,589 -48,1184 -47,1782l0 0c7,4361 902,8515 2511,12295l0 0c1608,3781 3933,7186 6801,10046l0 0c2869,2858 6282,5172 10068,6768l0 0c3787,1597 7946,2476 12308,2468l0 0c4363,-9 8521,-904 12303,-2516l0 0c3784,-1612 7191,-3938 10053,-6811l0 0c2862,-2872 5176,-6289 6773,-10078l0 0c1598,-3790 2478,-7952 2469,-12316l0 0c-3,-1488 -111,-2966 -319,-4425l0 0c-208,-1459 -517,-2899 -926,-4310l0 0c-408,-1410 -913,-2791 -1514,-4132l0 0c-601,-1343 -1296,-2647 -2085,-3900l0 0 -2217 1398c725,1149 1363,2344 1914,3574l0 0c552,1231 1016,2497 1389,3790l0 0c375,1294 658,2613 849,3951l0 0c191,1339 289,2695 292,4060l0 0c8,3894 -756,7614 -2145,11012l0 0c-1391,3399 -3408,6478 -5907,9093l0 0c-2499,2615 -5480,4765 -8798,6306l0 0c-3319,1541 -6976,2473 -10825,2652l0 0 -13 -6959c2891,-176 5634,-910 8121,-2096l0 0c2488,-1187 4720,-2825 6590,-4808l0 0c1871,-1983 3378,-4312 4417,-6878l0 0c1040,-2566 1610,-5370 1604,-8306l0 0c-6,-3043 -631,-5943 -1755,-8581l0 0c-1125,-2638 -2748,-5015 -4752,-7009l0 0c-2003,-1995 -4387,-3608 -7029,-4721l0 0c-2644,-1111 -5547,-1725 -8591,-1717l0 0c-3043,8 -5944,635 -8582,1760l0 0c-2637,1126 -5013,2751 -7008,4754l0 0c-1994,2004 -3607,4387 -4721,7029l0 0c-1114,2642 -1726,5544 -1720,8585l0 0c1,842 49,1675 142,2498l0 0c93,824 233,1639 418,2441l0 0c186,802 415,1593 692,2372l0 0c276,778 597,1544 962,2297l0 0 2351 -1149c-322,-661 -605,-1336 -848,-2020l0 0c-243,-686 -446,-1383 -610,-2090l0 0c-163,-706 -285,-1425 -368,-2150l0 0c-82,-726 -124,-1462 -126,-2205l0 0c-5,-2682 536,-5240 1518,-7569l0 0c981,-2330 2404,-4431 4163,-6197l0 0c1758,-1766 3853,-3198 6178,-4189l0 0c2325,-992 4881,-1545 7564,-1551l0 0c2684,-7 5245,533 7575,1514l0 0c2330,980 4430,2402 6196,4160l0 0c1766,1759 3197,3852 4188,6178l0 0c991,2326 1541,4883 1546,7566l0 0c6,2685 -535,5246 -1517,7576l0 0c-982,2331 -2404,4431 -4163,6198l0 0c-1760,1765 -3855,3197 -6182,4188l0 0c-2327,991 -4884,1542 -7569,1547l0 0c-761,2 -1515,-39 -2260,-122l0 0c-745,-84 -1481,-210 -2206,-378l0 0c-726,-167 -1441,-378 -2144,-630l0 0c-704,-252 -1395,-546 -2073,-883l0 0 -1159 2343c671,332 1355,629 2048,890l0 0c692,261 1396,485 2108,673l0 0c713,188 1436,340 2167,456l0 0c731,115 1472,193 2221,235l0 0 12 6953c-3851,-164 -7510,-1081 -10833,-2609l0 0c-3323,-1527 -6311,-3666 -8816,-6268l0 0c-2507,-2603 -4532,-5672 -5933,-9063l0 0c-1401,-3392 -2177,-7104 -2184,-10996l0 0c-8,-3999 799,-7814 2263,-11287l0 0c1463,-3473 3584,-6606 6206,-9239l0 0c2622,-2634 5745,-4768 9212,-6248l0 0c3467,-1479 7279,-2303 11279,-2314l0 0c1328,-3 2648,84 3952,259l0 0c1304,175 2594,437 3857,786l0 0c1264,348 2504,782 3710,1300l0 0c1206,517 2379,1117 3510,1799l0 0 1348 -2243c-1233,-743 -2511,-1398 -3825,-1962l0 0c-1315,-563 -2666,-1036 -4044,-1416l0 0c-1378,-379 -2782,-666 -4204,-856l0 0c-1423,-191 -2862,-286 -4309,-281l0 0c-3533,9 -6931,600 -10104,1682l0 0c-3173,1082 -6119,2654 -8751,4626l0 0c-2631,1971 -4947,4343 -6856,7022l0 0c-1910,2679 -3411,5667 -4417,8871l0 0 -8396 -2950c1311,-4069 3248,-7859 5698,-11258l0 0c2449,-3400 5410,-6406 8771,-8905l0 0c3360,-2499 7119,-4492 11163,-5863l0 0c4045,-1371 8374,-2120 12875,-2132l0 0c5590,-15 10922,1107 15778,3149l0 0c4855,2042 9234,5004 12915,8665l0 0c3681,3663 6664,8027 8731,12872l0 0c2066,4846 3215,10175 3226,15765l0 0c11,5593 -1116,10929 -3163,15785l0 0c-2046,4858 -5014,9236 -8680,12916l0 0c-3668,3680 -8035,6663 -12884,8728l0 0c-4848,2064 -10177,3212 -15769,3221l0 0 6 2617c2953,-5 5838,-309 8625,-882l0 0c2788,-574 5478,-1417 8043,-2501l0 0c2564,-1084 5003,-2409 7287,-3947l0 0c2285,-1538 4414,-3288 6362,-5223l0 0 7242 7198c-2410,2398 -5046,4568 -7874,6475l0 0c-2828,1906 -5848,3549 -9023,4894l0 0c-3177,1345 -6508,2390 -9960,3100l0 0c-3452,712 -7024,1088 -10683,1094l0 0c-7358,13 -14373,-1473 -20760,-4167l0 0c-6386,-2694 -12140,-6596 -16978,-11419l0 0c-4837,-4823 -8756,-10565 -11469,-16941l0 0c-2713,-6375 -4220,-13382 -4233,-20735l0 0c-10,-5901 967,-11646 2794,-17048l0 0c1826,-5401 4500,-10459 7884,-14987l0 0c3383,-4528 7475,-8525 12136,-11804l0 0c4662,-3280 9892,-5841 15552,-7497l0 0 -731 -2511c-5936,1738 -11423,4427 -16313,7868l0 0zm31863 -34608c-6377,20 -12674,807 -18767,2301l0 0c-6092,1492 -11981,3690 -17544,6529l0 0c-5562,2840 -10798,6320 -15586,10379l0 0c-4787,4059 -9125,8697 -12892,13851l0 0 2104 1539c3645,-4986 7842,-9473 12474,-13400l0 0c4632,-3927 9699,-7295 15082,-10041l0 0c5382,-2747 11080,-4873 16975,-6318l0 0c5895,-1444 11989,-2206 18159,-2226l0 0c2134,-6 4259,72 6372,236l0 0c2113,165 4212,415 6296,748l0 0c2084,335 4152,754 6199,1256l0 0c2048,504 4075,1091 6080,1763l0 0c250,82 501,168 751,254l0 0c251,86 500,174 751,264l0 0c250,88 499,179 748,270l0 0c249,91 497,184 745,278l0 0 -3871 8522c-1879,-698 -3796,-1316 -5746,-1852l0 0c-1950,-536 -3931,-987 -5942,-1349l0 0c-2010,-365 -4049,-639 -6111,-822l0 0c-2063,-183 -4149,-272 -6254,-266l0 0c-7882,23 -15498,1379 -22608,3877l0 0c-7108,2498 -13709,6137 -19563,10727l0 0c-5854,4590 -10958,10131 -15073,16435l0 0c-4114,6301 -7239,13366 -9133,21002l0 0 2533 632c1819,-7348 4824,-14144 8782,-20207l0 0c3957,-6064 8867,-11395 14498,-15811l0 0c5631,-4416 11982,-7916 18820,-10319l0 0c6839,-2401 14166,-3706 21749,-3729l0 0c4488,-14 8886,428 13145,1283l0 0c4259,854 8380,2122 12316,3762l0 0c3936,1641 7687,3653 11205,5996l0 0c3519,2342 6805,5016 9813,7978l0 0 -6998 7088c-2567,-2529 -5370,-4805 -8370,-6795l0 0c-2998,-1990 -6192,-3696 -9537,-5084l0 0c-3345,-1388 -6843,-2458 -10449,-3179l0 0c-3608,-722 -7323,-1092 -11107,-1082l0 0 5 2615c6021,-17 11864,980 17340,2848l0 0c5477,1868 10588,4608 15144,8074l0 0c4556,3468 8557,7663 11813,12444l0 0c3257,4779 5768,10143 7347,15947l0 0 2523 -685c-604,-2222 -1338,-4381 -2194,-6472l0 0c-855,-2090 -1830,-4111 -2918,-6056l0 0c-1087,-1944 -2285,-3813 -3584,-5599l0 0c-1300,-1785 -2701,-3487 -4192,-5099l0 0 7011 -7100c2298,2449 4413,5074 6322,7857l0 0c1908,2782 3610,5721 5082,8796l0 0c1472,3076 2712,6287 3698,9614l0 0c987,3328 1718,6771 2172,10308l2598 -336c-799,-6226 -2427,-12171 -4765,-17729l0 0c-2337,-5557 -5383,-10727 -9019,-15406l0 0c-3635,-4679 -7859,-8866 -12552,-12457l0 0c-4693,-3591 -9855,-6586 -15364,-8881l0 0 4949 -10906 -1266 -514c-363,-145 -726,-287 -1092,-427l0 0c-366,-141 -734,-278 -1102,-414l0 0c-369,-135 -738,-266 -1107,-397l0 0c-370,-129 -739,-257 -1108,-381l0 0c-2073,-693 -4169,-1299 -6286,-1820l0 0c-2119,-518 -4256,-952 -6410,-1297l0 0c-2154,-345 -4325,-603 -6508,-773l0 0c-2096,-162 -4204,-245 -6321,-245l0 0c-87,0 -175,0 -262,1l0 0z"/>
 </g>
</svg>
