<?xml version="1.0" encoding="UTF-8"?>
<!DOCTYPE svg PUBLIC "-//W3C//DTD SVG 1.1//EN" "http://www.w3.org/Graphics/SVG/1.1/DTD/svg11.dtd">
<!-- Creator: CorelDRAW X7 -->
<svg xmlns="http://www.w3.org/2000/svg" xml:space="preserve" width="27.1654in" height="14.605in" version="1.1" style="shape-rendering:geometricPrecision; text-rendering:geometricPrecision; image-rendering:optimizeQuality; fill-rule:evenodd; clip-rule:evenodd"
viewBox="0 0 271654 146050"
 xmlns:xlink="http://www.w3.org/1999/xlink">
 <defs>
  <style type="text/css">
   <![CDATA[
    .fil6 {fill:#43BEB2}
    .fil8 {fill:#A38755}
    .fil5 {fill:#D2AE6D}
    .fil12 {fill:#D7B67C}
    .fil4 {fill:#DFC596}
    .fil11 {fill:#E0C698}
    .fil10 {fill:#E5D3B2}
    .fil2 {fill:#EADBC1}
    .fil3 {fill:#ECDDC2}
    .fil7 {fill:#EEE1C9}
    .fil13 {fill:#F1E6D2}
    .fil1 {fill:#F4EBDB}
    .fil0 {fill:#FBF7F0}
    .fil9 {fill:white}
    .fil14 {fill:white}
   ]]>
  </style>
 </defs>
 <g id="Layer_x0020_1">
  <metadata id="CorelCorpID_0Corel-Layer"/>
  <g id="_2556953094720">
   <path class="fil0" d="M0 146050l271654 0 0 -125187c-16142,3510 -31300,13539 -47394,19096 -37829,13062 -45436,-7361 -67966,-30898 -18129,-18941 -35537,-973 -47713,10773 -6988,6741 -14147,10799 -21173,10719 -15404,-175 -20588,-18117 -31473,-26013 -4877,-3538 -10857,-5171 -20484,-4317 -12431,1103 -25359,7142 -35451,11946l0 133881z"/>
   <g>
    <g>
     <path class="fil1" d="M237207 92208c0,-21551 -17470,-39020 -39019,-39020 -21550,0 -39019,17469 -39019,39020 0,21549 17469,39019 39019,39019 21549,0 39019,-17470 39019,-39019z"/>
     <path class="fil2" d="M225214 120336l0 -18750 -7 0 0 -44c-23,-97 -2377,-2049 -4187,-3531l0 -820 2190 -566c344,-88 695,-131 1043,-131 566,-1 1126,114 1647,340 380,163 774,320 1169,447l0 1713c1810,1482 2958,2451 2980,2548l0 44 7 0 0 13119c-1437,2033 -3054,3911 -4842,5631z"/>
     <polygon class="fil3" points="142655,42145 154105,69011 162473,63286 167324,70333 168199,58446 178327,52274 "/>
     <polygon class="fil4" points="164329,62015 154105,69011 162473,63286 167324,70333 168199,58446 152060,48834 "/>
     <polygon class="fil5" points="167984,61359 152060,48834 168199,58446 "/>
     <path class="fil5" d="M167529 73684c-91,-523 -205,-1045 -341,-1553l786 -209c141,530 261,1076 356,1623l-801 139z"/>
     <path class="fil5" d="M168303 80191l-801 -142c186,-1050 283,-2121 289,-3182l813 4c-6,1107 -107,2225 -301,3320zm-5564 479c-924,-206 -1872,-312 -2817,-312l-330 5 -20 -813c1119,-27 2248,81 3344,328l-177 792zm-8954 1587l-569 -581c716,-701 1694,-1225 2992,-1605l273 767c-1195,350 -2087,823 -2696,1419zm14614 1222c-748,-544 -1550,-1115 -2420,-1591l-272 -145 373 -722c97,49 193,101 289,153 912,500 1773,1113 2509,1649l-479 656zm34913 1072l-251 -773c1033,-335 2061,-686 3084,-1049l271 766c-1028,365 -2064,719 -3104,1056zm-6316 1800l-191 -790c1016,-247 2074,-527 3143,-833l224 782c-1080,309 -2148,591 -3176,841zm-30952 90l-705 -405c526,-916 978,-1891 1340,-2898l765 275c-379,1052 -850,2070 -1400,3028zm8111 323c-955,-325 -1851,-722 -2662,-1180 -127,-71 -254,-146 -380,-221l420 -696c118,71 237,141 358,209 769,433 1618,810 2526,1119l-262 769zm16381 822l-109 -805c1045,-143 2123,-321 3203,-529l153 798c-1094,212 -2186,392 -3247,536zm-9864 370l-519 -40c-999,-84 -1905,-196 -2768,-346l138 -801c840,145 1722,255 2697,337l508 38 -56 812zm3296 106l-4 -812c1059,-5 2149,-49 3238,-129l60 810c-1108,82 -2216,127 -3294,131zm-31447 186c-459,-929 -701,-1950 -701,-2953 0,-83 2,-165 6,-247l10 -176 810 59 -8 149c-3,72 -5,143 -5,215 0,879 213,1775 617,2593l-729 360zm8903 3022l-359 -729c845,-417 1663,-1060 2432,-1916l604 544c-837,932 -1739,1640 -2677,2101zm-3377 663c-1179,-79 -2308,-456 -3264,-1090l449 -677c838,556 1831,886 2870,955l-55 812z"/>
     <path class="fil6" d="M209528 82349l-289 -760c506,-192 1011,-388 1515,-586l296 758c-506,197 -1013,394 -1522,588z"/>
     <path class="fil7" d="M235115 102158c-413,0 -767,-314 -808,-735 -43,-446 284,-843 731,-887 4912,-475 9431,-2821 12724,-6602 296,-339 809,-374 1147,-79 338,294 375,808 79,1146 -3567,4097 -8466,6637 -13793,7154l-80 3z"/>
     <path class="fil8" d="M225210 101587l-28317 16699 -28316 -16699 5 -46c23,-106 1586,-1411 3969,-3347l64 -55c7820,-6349 24278,-19349 24278,-19349 0,0 16459,13000 24278,19349 2420,1964 4012,3292 4034,3402l5 46z"/>
     <path class="fil9" d="M208539 64960l-30552 0c-2620,0 -4745,2125 -4745,4745l0 46194c0,2620 2125,4744 4745,4744l38283 0c2619,0 4744,-2124 4744,-4744l0 -38463 -12475 -12476z"/>
     <path class="fil10" d="M208539 72691c0,2620 2124,4745 4744,4745l7731 0 -12475 -12476 0 7731z"/>
     <path class="fil11" d="M225213 101586l0 27166c0,1899 -1552,3451 -3451,3451l-49740 0c-1899,0 -3442,-1552 -3442,-3451l0 -27166 28316 16696 28317 -16696z"/>
     <path class="fil12" d="M224256 131122l-18225 -18226 -9135 5386 -9137 -5387 -18227 18225c628,663 1508,1083 2490,1083l49740 0c981,0 1864,-419 2494,-1081z"/>
     <path class="fil11" d="M230932 64294c-8152,800 -14664,7519 -15246,15689 -291,4066 861,7843 2983,10898 800,1150 931,2638 393,3932l-1344 3236 5495 -1424c895,-233 1841,-160 2690,208 2547,1105 5416,1609 8430,1317 8001,-775 14475,-7236 15248,-15237 1037,-10733 -7912,-19673 -18649,-18619z"/>
     <path class="fil12" d="M232194 64221c6059,1814 10478,7426 10478,14076 0,8118 -6580,14698 -14698,14698 -4276,0 -8114,-1838 -10799,-4753 423,926 919,1811 1494,2639 800,1150 931,2638 393,3932l-1344 3236 5495 -1424c895,-233 1841,-160 2690,208 2547,1105 5416,1609 8430,1317 8001,-775 14475,-7236 15248,-15237 996,-10310 -7222,-18958 -17387,-18692z"/>
     <path class="fil13" d="M143625 50112l3714 8523c189,435 -11,940 -446,1127l-132 57c-437,189 -944,-14 -1129,-454l-3581 -8579c-190,-449 34,-966 492,-1136 427,-157 902,46 1082,462z"/>
     <path class="fil5" d="M197596 97498l0 -2803 -933 0 0 2803 933 0zm5653 7913l-5954 -5088 -12407 0 0 -17875 24480 0 0 17875 -6119 0 0 5088zm933 -4152l6120 0 0 -19761 -26348 0 0 19761 13007 0 7221 6204 0 -6204zm-7519 -8447l933 0 0 -7536 -933 0 0 7536z"/>
     <path class="fil14" d="M226092 84979l357 366 2332 -2323 -366 -366 -2323 2323zm15002 -7300l-11983 11984c-1583,-1592 -3165,-3174 -4757,-4757l3979 -3979 2305 2305 4025 -4025 -2305 -2305 3979 -3979c1583,1582 3175,3174 4757,4756zm-4757 -4025l-3247 3248 2296 2305 -4748 4748 -2305 -2296 -3247 3247c1344,1345 2680,2680 4025,4025l11251 -11252c-1344,-1344 -2680,-2680 -4025,-4025l0 0zm-2250 3330l366 357 2324 -2324 -366 -356 -2324 2323z"/>
    </g>
    <path class="fil10" d="M232127 127129c2602,85 4688,2220 4702,4865l43 0c21,-2645 2107,-4780 4702,-4865 -2609,-85 -4702,-2242 -4702,-4901l-36 0c0,2659 -2093,4816 -4709,4901z"/>
    <path class="fil10" d="M140853 26509c1296,42 2335,1106 2342,2423l21 0c11,-1317 1050,-2381 2343,-2423 -1300,-43 -2343,-1117 -2343,-2442l-17 0c0,1325 -1043,2399 -2346,2442z"/>
   </g>
  </g>
 </g>
</svg>
