<?xml version="1.0" encoding="UTF-8"?>
<!DOCTYPE svg PUBLIC "-//W3C//DTD SVG 1.1//EN" "http://www.w3.org/Graphics/SVG/1.1/DTD/svg11.dtd">
<!-- Creator: CorelDRAW X7 -->
<svg xmlns="http://www.w3.org/2000/svg" xml:space="preserve" width="10.881in" height="10.8135in" version="1.1" style="shape-rendering:geometricPrecision; text-rendering:geometricPrecision; image-rendering:optimizeQuality; fill-rule:evenodd; clip-rule:evenodd"
viewBox="0 0 108810 108135"
 xmlns:xlink="http://www.w3.org/1999/xlink">
 <defs>
  <style type="text/css">
   <![CDATA[
    .fil5 {fill:#43BEB2}
    .fil7 {fill:#A38755}
    .fil4 {fill:#D2AE6D}
    .fil11 {fill:#D7B67C}
    .fil3 {fill:#DFC596}
    .fil10 {fill:#E0C698}
    .fil9 {fill:#E5D3B2}
    .fil1 {fill:#EADBC1}
    .fil2 {fill:#ECDDC2}
    .fil6 {fill:#EEE1C9}
    .fil12 {fill:#F1E6D2}
    .fil0 {fill:#F4EBDB}
    .fil8 {fill:white}
    .fil13 {fill:white}
   ]]>
  </style>
 </defs>
 <g id="Layer_x0020_1">
  <metadata id="CorelCorpID_0Corel-Layer"/>
  <g id="_2556744866512">
   <g>
    <path class="fil0" d="M96354 68140c0,-21550 -17469,-39019 -39019,-39019 -21549,0 -39019,17469 -39019,39019 0,21550 17470,39019 39019,39019 21550,0 39019,-17469 39019,-39019z"/>
    <path class="fil1" d="M84361 96269l0 -18750 -7 0 0 -45c-23,-96 -2376,-2048 -4186,-3530l0 -821 2190 -565c344,-88 694,-132 1043,-132 565,0 1125,115 1646,341 380,163 774,319 1169,447l1 1713c1809,1482 2957,2451 2979,2548l0 44 8 0 0 13119c-1438,2033 -3055,3911 -4843,5631z"/>
    <polygon class="fil2" points="1802,18078 13252,44944 21621,39219 26471,46266 27346,34378 37474,28206 "/>
    <polygon class="fil3" points="23476,37948 13252,44944 21621,39219 26471,46266 27346,34378 11207,24767 "/>
    <polygon class="fil4" points="27132,37292 11207,24767 27346,34378 "/>
    <path class="fil4" d="M26676 49617c-90,-523 -205,-1046 -340,-1553l785 -210c142,530 261,1077 356,1624l-801 139z"/>
    <path class="fil4" d="M27450 56124l-800 -142c186,-1050 282,-2121 288,-3182l813 4c-6,1107 -107,2224 -301,3320zm-5564 479c-923,-207 -1872,-312 -2817,-312l-329 4 -21 -813c1120,-26 2248,82 3345,328l-178 793zm-8954 1587l-569 -581c716,-701 1695,-1225 2992,-1605l273 767c-1194,349 -2086,823 -2696,1419zm14615 1222c-748,-544 -1551,-1116 -2420,-1592l-272 -144 372 -722c97,49 193,101 289,153 912,500 1773,1113 2509,1649l-478 656zm34912 1071l-251 -772c1033,-336 2062,-686 3084,-1050l271 767c-1028,365 -2064,718 -3104,1055zm-6316 1800l-191 -790c1016,-247 2075,-527 3144,-832l224 782c-1080,309 -2149,591 -3177,840zm-30952 91l-705 -406c527,-916 978,-1891 1341,-2897l764 274c-379,1053 -849,2071 -1400,3029zm8112 323c-956,-325 -1851,-722 -2663,-1180 -127,-71 -254,-146 -380,-222l420 -696c119,72 238,142 359,210 768,433 1617,810 2525,1119l-261 769zm16381 821l-110 -805c1046,-142 2123,-320 3203,-528l153 798c-1093,211 -2186,392 -3246,535zm-9865 371l-519 -41c-999,-83 -1905,-195 -2768,-345l139 -801c839,145 1721,255 2696,337l508 38 -56 812zm3297 106l-4 -813c1058,-5 2148,-48 3238,-128l59 810c-1107,81 -2216,126 -3293,131zm-31448 186c-458,-929 -700,-1950 -700,-2954 0,-82 2,-164 5,-246l10 -177 810 60 -8 149c-2,72 -4,143 -4,214 0,880 212,1776 616,2594l-729 360zm8903 3021l-359 -729c846,-416 1664,-1060 2432,-1915l604 543c-837,933 -1738,1640 -2677,2101zm-3376 663c-1180,-79 -2309,-455 -3265,-1089l450 -677c838,555 1830,886 2869,955l-54 811z"/>
    <path class="fil5" d="M68675 58282l-289 -761c506,-192 1012,-388 1515,-585l296 758c-506,197 -1013,394 -1522,588z"/>
    <path class="fil6" d="M94263 78091c-413,0 -767,-314 -808,-735 -43,-446 283,-843 730,-887 4912,-475 9431,-2821 12725,-6602 295,-340 808,-374 1146,-79 339,294 375,808 79,1146 -3567,4097 -8465,6637 -13793,7153l-79 4z"/>
    <path class="fil7" d="M84357 77520l-28317 16699 -28315 -16699 4 -46c23,-106 1586,-1411 3969,-3348l65 -55c7819,-6348 24277,-19349 24277,-19349 0,0 16459,13001 24278,19349 2421,1964 4012,3293 4034,3403l5 46z"/>
    <path class="fil8" d="M67686 40893l-30551 0c-2621,0 -4746,2125 -4746,4745l0 46193c0,2621 2125,4745 4745,4745l38283 0c2620,0 4744,-2124 4744,-4745l0 -38462 -12475 -12476z"/>
    <path class="fil9" d="M67686 48624c0,2620 2125,4745 4744,4745l7731 0 -12475 -12476 0 7731z"/>
    <path class="fil10" d="M84360 77519l0 27166c0,1899 -1552,3450 -3451,3450l-49740 0c-1899,0 -3441,-1551 -3441,-3450l0 -27166 28316 16695 28316 -16695z"/>
    <path class="fil11" d="M83403 107055l-18225 -18226 -9134 5385 -9138 -5387 -18226 18226c627,663 1508,1082 2489,1082l49740 0c982,0 1864,-418 2494,-1080z"/>
    <path class="fil10" d="M90079 40227c-8151,800 -14663,7519 -15246,15689 -290,4065 861,7842 2984,10898 799,1150 930,2638 393,3932l-1345 3236 5495 -1424c896,-233 1841,-160 2690,208 2547,1105 5416,1609 8430,1316 8002,-774 14475,-7235 15248,-15236 1037,-10734 -7912,-19673 -18649,-18619z"/>
    <path class="fil11" d="M91341 40154c6059,1814 10478,7426 10478,14076 0,8117 -6580,14698 -14698,14698 -4276,0 -8113,-1838 -10799,-4753 423,926 919,1811 1495,2639 799,1150 930,2638 393,3932l-1345 3236 5495 -1424c896,-233 1841,-160 2690,208 2547,1105 5416,1609 8430,1316 8002,-774 14475,-7235 15248,-15236 996,-10310 -7222,-18958 -17387,-18692z"/>
    <path class="fil12" d="M2772 26045l3714 8522c189,435 -11,941 -446,1128l-132 57c-437,188 -944,-14 -1129,-454l-3581 -8580c-189,-449 34,-966 493,-1135 426,-157 901,46 1081,462z"/>
    <path class="fil4" d="M56744 73431l0 -2803 -934 0 0 2803 934 0zm5652 7913l-5954 -5088 -12407 0 0 -17875 24481 0 0 17875 -6120 0 0 5088zm934 -4152l6119 0 0 -19761 -26347 0 0 19761 13006 0 7222 6203 0 -6203zm-7520 -8448l934 0 0 -7536 -934 0 0 7536z"/>
    <path class="fil13" d="M85239 60912l357 366 2333 -2324 -366 -365 -2324 2323zm15003 -7300l-11984 11984c-1583,-1592 -3165,-3175 -4757,-4757l3979 -3979 2306 2305 4025 -4025 -2306 -2305 3980 -3980c1582,1583 3174,3175 4757,4757zm-4757 -4025l-3248 3248 2296 2305 -4747 4748 -2306 -2297 -3247 3248c1345,1345 2680,2680 4025,4025l11252 -11252c-1345,-1345 -2681,-2680 -4025,-4025l0 0zm-2251 3330l366 357 2324 -2324 -366 -357 -2324 2324z"/>
   </g>
   <path class="fil9" d="M91274 103062c2602,84 4688,2220 4702,4865l43 0c21,-2645 2107,-4781 4702,-4865 -2609,-85 -4702,-2242 -4702,-4901l-35 0c0,2659 -2094,4816 -4710,4901z"/>
   <path class="fil9" d="M0 2441c1296,43 2336,1107 2343,2424l21 0c10,-1317 1050,-2381 2343,-2424 -1300,-42 -2343,-1116 -2343,-2441l-18 0c0,1325 -1043,2399 -2346,2441z"/>
  </g>
 </g>
</svg>
