<?xml version="1.0" encoding="UTF-8"?>
<!DOCTYPE svg PUBLIC "-//W3C//DTD SVG 1.1//EN" "http://www.w3.org/Graphics/SVG/1.1/DTD/svg11.dtd">
<!-- Creator: CorelDRAW X7 -->
<svg xmlns="http://www.w3.org/2000/svg" xml:space="preserve" width="2.70114in" height="0.826772in" version="1.1" style="shape-rendering:geometricPrecision; text-rendering:geometricPrecision; image-rendering:optimizeQuality; fill-rule:evenodd; clip-rule:evenodd"
viewBox="0 0 27011 8268"
 xmlns:xlink="http://www.w3.org/1999/xlink">
 <defs>
  <style type="text/css">
   <![CDATA[
    .fil0 {fill:#8480BC}
    .fil1 {fill:white;fill-rule:nonzero}
   ]]>
  </style>
 </defs>
 <g id="Layer_x0020_1">
  <metadata id="CorelCorpID_0Corel-Layer"/>
  <g id="_2196262734528">
   <path class="fil0" d="M4134 0l18744 0c2273,0 4134,1861 4134,4134 0,2273 -1861,4134 -4134,4134l-18744 0c-2274,0 -4134,-1861 -4134,-4134 0,-2274 1860,-4134 4134,-4134z"/>
   <path class="fil1" d="M10898 4887c0,219 -26,403 -79,550 -53,147 -129,264 -229,352 -99,87 -221,150 -364,187 -143,38 -303,56 -481,56 -756,0 -1134,-359 -1134,-1078l0 -656 538 0 0 635c0,195 47,343 143,445 96,102 252,154 469,154 203,0 355,-43 453,-129 98,-86 148,-234 148,-441l0 -2962 536 0 0 2887zm1483 -163c0,95 -13,161 -40,196 -26,36 -67,54 -122,54l-175 0c-96,0 -182,-10 -261,-31 -78,-22 -146,-56 -203,-104 -57,-48 -102,-113 -134,-193 -32,-81 -48,-181 -48,-300l0 -2346 542 0 0 2270c0,98 17,160 51,185 35,26 84,39 148,39l80 0c21,0 42,2 61,7 20,5 38,15 54,29 15,16 27,38 35,68 9,31 12,73 12,126zm-167 250c-21,0 -42,-2 -61,-6 -21,-4 -38,-14 -54,-29 -15,-16 -27,-39 -35,-70 -9,-30 -12,-72 -12,-125 0,-95 13,-160 39,-196 27,-36 68,-54 123,-54l617 0c22,0 42,2 62,7 19,5 37,15 53,29 16,16 27,38 36,68 7,31 12,73 12,126 0,95 -14,161 -40,196 -26,36 -67,54 -123,54l-617 0zm788 -480c61,0 112,-1 151,-4 41,-3 73,-11 98,-24 25,-14 43,-34 55,-61 12,-26 17,-63 17,-111l0 -795 534 0 0 708c0,89 23,159 72,211 48,51 124,76 226,76 81,0 150,-12 207,-37 58,-24 86,-78 86,-163l0 -795 541 0 0 708c0,191 83,287 247,287l258 0 0 -1178 541 0 0 1658 -637 0c-147,0 -259,-17 -334,-52 -75,-35 -138,-89 -191,-164 -41,54 -86,94 -134,122 -47,29 -96,50 -146,65 -50,14 -99,22 -147,25 -49,3 -95,4 -140,4 -141,0 -260,-23 -356,-69 -96,-46 -165,-95 -206,-147 -74,98 -171,159 -291,181 -121,23 -273,35 -459,35l-163 0c-21,0 -42,-2 -62,-6 -20,-4 -37,-14 -53,-29 -16,-16 -27,-39 -36,-70 -8,-30 -11,-72 -11,-125 0,-95 13,-160 39,-196 26,-36 68,-54 123,-54l171 0zm3819 -995l541 0 0 1241c0,199 -15,369 -45,508 -31,141 -84,253 -160,339 -77,86 -181,150 -317,190 -135,40 -307,61 -515,64l0 -508c111,-3 200,-16 267,-41 68,-23 118,-58 151,-105 33,-47 54,-107 64,-182 10,-73 14,-162 14,-265l0 -1241zm1579 -1499l0 2974 -538 0 0 -2974 538 0z"/>
  </g>
 </g>
</svg>
