<?xml version="1.0" encoding="UTF-8"?>
<!DOCTYPE svg PUBLIC "-//W3C//DTD SVG 1.1//EN" "http://www.w3.org/Graphics/SVG/1.1/DTD/svg11.dtd">
<!-- Creator: CorelDRAW X7 -->
<svg xmlns="http://www.w3.org/2000/svg" xml:space="preserve" width="11.0055in" height="0.924016in" version="1.1" style="shape-rendering:geometricPrecision; text-rendering:geometricPrecision; image-rendering:optimizeQuality; fill-rule:evenodd; clip-rule:evenodd"
viewBox="0 0 110055 9240"
 xmlns:xlink="http://www.w3.org/1999/xlink">
 <defs>
  <style type="text/css">
   <![CDATA[
    .fil1 {fill:white}
    .fil0 {fill:#DFC495;fill-rule:nonzero}
    .fil2 {fill:#E6D2AE;fill-rule:nonzero}
   ]]>
  </style>
 </defs>
 <g id="Layer_x0020_1">
  <metadata id="CorelCorpID_0Corel-Layer"/>
  <g id="_2196262730336">
   <path class="fil0" d="M108092 9240l-106129 0c-540,0 -1031,-221 -1387,-576 -355,-356 -576,-847 -576,-1387l0 -5314c0,-540 221,-1031 576,-1387 356,-355 847,-576 1387,-576l106129 0c540,0 1031,221 1387,576 355,356 576,847 576,1387l0 5314c0,540 -221,1031 -576,1387 -356,355 -847,576 -1387,576zm-106129 -535l106129 0c392,0 750,-161 1008,-419 259,-259 420,-616 420,-1009l0 -5314c0,-393 -161,-750 -419,-1008 -259,-259 -616,-420 -1009,-420l-106129 0c-392,0 -749,161 -1008,420 -259,258 -420,615 -420,1008l0 5314c0,393 161,750 420,1009 259,258 616,419 1008,419z"/>
   <path class="fil1" d="M109520 7277l0 -5314c0,-393 -161,-750 -419,-1008 -259,-259 -616,-420 -1009,-420l-106129 0c-392,0 -749,161 -1008,420 -259,258 -420,615 -420,1008l0 5314c0,393 161,750 420,1009 259,258 616,419 1008,419l106129 0c392,0 750,-161 1008,-419 259,-259 420,-616 420,-1009z"/>
   <path class="fil2" d="M90161 6190c-11,352 -114,618 -310,797 -196,179 -473,269 -831,269 -189,0 -354,-27 -498,-80 -143,-52 -262,-127 -358,-222 -95,-96 -167,-210 -217,-341 -48,-132 -72,-278 -72,-439l0 -643 337 0 0 571c0,541 272,812 816,812 281,0 483,-60 608,-181 125,-121 188,-320 188,-598l0 -2920 337 0 0 2629 326 0c111,0 167,55 167,166 0,70 -14,117 -40,142 -26,25 -69,38 -127,38l-326 0zm326 0c-111,0 -167,-56 -167,-167 0,-69 14,-117 40,-142 26,-25 69,-37 127,-37l278 0c67,0 124,-3 171,-9 48,-5 88,-18 120,-39 32,-21 55,-51 71,-92 16,-39 23,-94 23,-164l0 -954 342 0 0 800c0,69 5,132 14,189 10,57 28,105 56,144 28,38 65,69 112,91 47,23 107,34 180,34 112,0 167,55 167,166 0,70 -13,117 -40,142 -26,25 -68,38 -127,38 -108,0 -195,-26 -262,-77 -67,-53 -111,-116 -135,-194 -50,114 -128,187 -235,221 -106,33 -237,50 -393,50l-342 0zm329 628c0,-61 22,-112 65,-155 44,-43 96,-64 157,-64 61,0 113,21 155,64 43,43 65,94 65,155 0,61 -22,113 -65,157 -42,43 -94,65 -155,65 -61,0 -113,-22 -157,-65 -43,-44 -65,-96 -65,-157zm541 0c0,-61 22,-112 65,-155 44,-43 96,-64 157,-64 61,0 113,21 156,64 42,43 64,94 64,155 0,61 -22,113 -64,157 -43,43 -95,65 -156,65 -61,0 -113,-22 -157,-65 -43,-44 -65,-96 -65,-157zm3059 -628c-106,0 -198,-21 -276,-62 -78,-42 -140,-113 -188,-213l0 -8c-53,106 -130,188 -231,248 -101,60 -228,89 -381,89 -134,0 -266,-22 -398,-67 -133,-44 -269,-119 -410,-226 -37,56 -73,100 -111,132 -37,32 -77,55 -119,71 -42,15 -85,25 -130,29 -43,5 -91,7 -141,7l-179 0c-111,0 -166,-56 -166,-167 0,-69 13,-117 39,-142 27,-25 69,-37 127,-37l171 0c34,0 69,-4 105,-13 36,-7 72,-25 108,-53 36,-28 71,-67 106,-115 34,-49 67,-115 99,-198 63,-177 130,-321 201,-431 70,-110 142,-194 217,-254 73,-60 149,-99 225,-120 77,-19 152,-29 227,-29 103,0 200,20 290,60 90,40 168,97 233,171 65,74 116,162 154,262 37,102 55,215 55,341 0,19 0,38 -2,57 -1,18 -2,35 -2,51 28,90 68,157 122,203 53,45 138,68 255,68 111,0 166,55 165,166 0,70 -13,117 -39,142 -26,25 -68,38 -126,38zm-719 -737c0,-61 -8,-121 -26,-180 -17,-59 -44,-110 -79,-155 -36,-44 -78,-79 -127,-105 -50,-27 -108,-40 -174,-40 -117,0 -224,51 -322,155 -97,103 -189,283 -274,541 102,66 205,120 306,160 101,41 204,61 310,61 117,0 210,-33 281,-99 70,-67 105,-179 105,-338zm716 737c-111,0 -166,-56 -166,-167 0,-69 13,-117 39,-142 27,-25 69,-37 127,-37l650 0 0 -1258 341 0 0 1604 -991 0zm171 628c0,-61 22,-112 66,-155 43,-43 95,-64 156,-64 61,0 113,21 155,64 43,43 65,94 65,155 0,61 -22,113 -65,157 -42,43 -94,65 -155,65 -61,0 -113,-22 -156,-65 -44,-44 -66,-96 -66,-157zm541 0c0,-61 22,-112 66,-155 43,-43 95,-64 156,-64 61,0 113,21 156,64 42,43 64,94 64,155 0,61 -22,113 -64,157 -43,43 -95,65 -156,65 -61,0 -113,-22 -156,-65 -44,-44 -66,-96 -66,-157zm1203 -3603l0 2975 -342 0 0 -2975 342 0zm3735 2924c0,363 -100,626 -300,787 -200,162 -480,242 -841,242 -384,0 -670,-85 -861,-254 -189,-170 -284,-417 -284,-740l0 -643 337 0 0 571c0,133 17,247 52,340 35,93 86,168 154,225 68,56 153,97 256,122 103,25 221,37 354,37 138,0 258,-9 358,-28 100,-19 183,-55 248,-108 66,-52 114,-124 144,-212 31,-89 46,-204 46,-343l0 -1341 337 0 0 592c0,69 5,132 14,189 9,57 27,105 57,144 29,38 70,69 122,91 52,23 124,34 216,34 67,0 125,-3 173,-9 49,-5 89,-18 121,-39 32,-21 56,-51 72,-92 15,-39 23,-94 23,-164l0 -746 340 0 0 592c0,69 5,132 15,189 10,57 29,105 55,144 26,38 63,69 110,91 46,23 107,34 180,34l350 0 0 -1258 341 0 0 1604 -691 0c-109,0 -196,-26 -261,-77 -66,-53 -110,-116 -132,-194 -50,114 -130,187 -238,221 -108,33 -245,50 -411,50 -133,0 -234,-21 -304,-60 -70,-40 -120,-88 -152,-144l0 153zm3075 -1345l337 0 0 1162c0,206 -12,379 -35,520 -24,140 -69,253 -136,339 -66,86 -159,149 -277,187 -118,39 -270,59 -457,59l0 -346c135,0 241,-15 318,-44 77,-29 134,-77 172,-142 38,-64 60,-148 67,-250 7,-102 11,-224 11,-368l0 -1117zm2287 938c0,133 -46,242 -138,328 -92,87 -225,130 -400,130l-996 0 0 -346 968 0c95,0 154,-15 179,-44 24,-29 37,-62 37,-99 0,-27 -6,-56 -17,-86 -11,-31 -38,-80 -81,-149 -43,-68 -107,-162 -189,-283 -82,-121 -193,-285 -334,-493l321 -201c111,191 208,352 289,483 81,131 149,242 202,334 52,91 92,170 119,236 26,66 40,129 40,190zm-51 -3085c63,-64 123,-105 180,-125 57,-19 114,-29 170,-29 53,0 116,13 189,38 75,25 143,52 207,84 67,31 130,57 191,77 61,21 116,31 164,31 71,0 125,-19 161,-58 36,-39 61,-80 76,-121l133 59c-40,108 -86,190 -138,246 -52,55 -130,83 -232,83 -75,0 -147,-12 -215,-35 -69,-24 -135,-52 -199,-83 -64,-31 -127,-58 -191,-79 -64,-22 -123,-33 -179,-33 -48,0 -87,6 -119,17 -32,10 -69,32 -111,63l-87 -135zm903 568l0 2975 -341 0 0 -2975 341 0z"/>
  </g>
 </g>
</svg>
