<?xml version="1.0" encoding="UTF-8"?>
<!DOCTYPE svg PUBLIC "-//W3C//DTD SVG 1.1//EN" "http://www.w3.org/Graphics/SVG/1.1/DTD/svg11.dtd">
<!-- Creator: CorelDRAW X7 -->
<svg xmlns="http://www.w3.org/2000/svg" xml:space="preserve" width="15.2033in" height="11.0861in" version="1.1" style="shape-rendering:geometricPrecision; text-rendering:geometricPrecision; image-rendering:optimizeQuality; fill-rule:evenodd; clip-rule:evenodd"
viewBox="0 0 152033 110861"
 xmlns:xlink="http://www.w3.org/1999/xlink">
 <defs>
  <style type="text/css">
   <![CDATA[
    .fil0 {fill:#F9F3EA;fill-rule:nonzero}
    .fil1 {fill:#FBFBF7;fill-rule:nonzero}
   ]]>
  </style>
 </defs>
 <g id="Layer_x0020_1">
  <metadata id="CorelCorpID_0Corel-Layer"/>
  <g id="_2196216403216">
   <path class="fil0" d="M12803 93119c-896,530 -1498,1503 -1498,2618 0,1680 1362,3042 3042,3042 984,0 1857,-470 2413,-1195 2619,2774 5510,5516 8652,8188 2055,1747 4213,3459 6417,5089l767 0 -125 -91c-2336,-1714 -4612,-3512 -6766,-5343 -3159,-2687 -6063,-5443 -8689,-8230 237,-433 373,-931 373,-1460 0,-1680 -1362,-3042 -3042,-3042 -399,0 -780,79 -1129,219 -8136,-9778 -12739,-19679 -12765,-28031 -46,-14646 9780,-27187 28416,-36266 10086,-4913 22719,-8795 37547,-11538 15793,-2922 34212,-4573 54746,-4908 508,-8 1015,-12 1520,-12 5295,0 10470,460 15383,1367l73 14 281 -413 -171 -32c-4956,-921 -10192,-1389 -15561,-1389l-4 0c-507,0 -1017,4 -1529,13 -20558,335 -39003,1988 -54820,4914 -14870,2751 -27541,6646 -37663,11577 -18804,9160 -28718,21842 -28671,36674 27,8428 4643,18399 12803,28235zm114619 17742l-1711 0c-13303,-2838 -27471,-8942 -38954,-16796 -12732,-8708 -20632,-18293 -22224,-26786 -4287,-1035 -7473,-4894 -7473,-9500 0,-5399 4376,-9775 9775,-9775 1472,0 2868,327 4121,911 5276,-5167 13447,-9179 24298,-11927 9849,-2495 21573,-3813 33905,-3813l164 2 -23 141 -83 310 -86 0c-12285,2 -23961,1316 -33766,3798 -10696,2709 -18759,6646 -23980,11702 3107,1637 5225,4896 5225,8651 0,5399 -4376,9776 -9775,9776 -623,0 -1233,-61 -1824,-173 733,3717 2704,7660 5898,11764 3846,4940 9414,9970 16103,14545 11952,8174 26685,14392 40421,17059l-11 111zm-28498 0l-1220 0c-8831,-3561 -17415,-8260 -24842,-13601 -2559,-1840 -4931,-3715 -7115,-5610 -146,25 -301,43 -474,43 -1905,0 -5388,-1895 -8731,-4141 -483,110 -985,169 -1501,169 -3695,0 -6696,-2960 -6766,-6639 -1151,-1049 -2176,-2066 -3021,-3006 -1728,-1921 -3337,-4090 -2167,-5605 269,-348 786,-762 1723,-762 1549,0 4143,1255 6856,2931 -1910,-3793 -2917,-7491 -2928,-10974 -19,-5957 2412,-11425 7224,-16252 6250,-6270 16590,-11443 29903,-14961 11841,-3130 25769,-4853 39219,-4853 1939,0 3891,58 5803,172l150 9 -158 444 -85 -6c-1874,-110 -3795,-166 -5710,-166 -13412,0 -27299,1718 -39103,4837 -13236,3498 -23505,8631 -29698,14843 -4724,4739 -7111,10100 -7092,15932 11,3515 1039,7237 3062,11119 851,-385 1794,-603 2788,-603 3740,0 6771,3031 6771,6770 0,432 -43,854 -120,1263 1199,1087 2263,2141 3137,3112 1728,1921 3337,4090 2166,5605 -150,195 -383,409 -721,561 2131,1843 4420,3652 6852,5400 7627,5485 16456,10279 25532,13864l266 105zm-23300 0l-962 0c-6509,-3505 -12696,-7694 -18392,-12456 -14400,-12037 -23017,-25553 -23052,-36156 -5,-1658 201,-3286 614,-4879 -894,-1057 -1444,-2488 -1444,-4066 0,-3252 2332,-5888 5208,-5888 571,0 1120,105 1634,297 4850,-5442 12585,-10291 23029,-14369 16940,-6616 39678,-10693 64026,-11481 1009,-32 2013,-49 2985,-49 1338,0 2683,33 3996,97l167 8 -206 447 -76 -4c-2206,-106 -4511,-122 -6852,-46 -24297,786 -46982,4853 -63876,11450 -10307,4025 -17951,8795 -22756,14135 1846,905 3138,2983 3138,5403 0,3252 -2332,5888 -5209,5888 -1297,0 -2484,-538 -3396,-1426 -355,1466 -534,2961 -529,4481 18,5201 2203,11305 6321,17653 3996,6158 9725,12437 16568,18158 5839,4880 12189,9154 18876,12703l188 100zm-16626 0l-971 0c-6352,-3393 -12383,-7430 -17928,-12002 -7782,-6416 -13857,-13294 -17788,-19935 -575,247 -1198,383 -1850,383 -2876,0 -5208,-2636 -5208,-5888 0,-2176 1045,-4075 2599,-5095 -415,-1780 -631,-3509 -637,-5170 -42,-12956 8887,-24032 25822,-32031 19011,-8979 47021,-13821 83252,-14393 419,-6 833,-10 1242,-10 2958,0 5694,177 8131,525l164 24 -239 425 -76 -11c-2733,-385 -5829,-553 -9215,-500 -36166,571 -64113,5399 -83066,14350 -16764,7918 -25603,18852 -25562,31620 5,1584 208,3233 593,4929 669,-352 1414,-551 2200,-551 2877,0 5209,2637 5209,5888 0,2339 -1206,4359 -2954,5309 3903,6581 9938,13406 17671,19782 5685,4687 11882,8809 18420,12251l191 100zm374 -24706c527,332 1025,632 1496,905 -393,-404 -779,-808 -1154,-1212 -110,106 -224,208 -342,307zm1191 -1289c-159,224 -333,437 -517,640 730,787 1490,1572 2284,2354 667,343 1249,610 1722,793 -642,-888 -1790,-2190 -3489,-3787zm-10774 -8185c-1570,-941 -2854,-1582 -3758,-1932 568,785 1530,1894 2920,3244 229,-471 511,-911 838,-1312zm35347 -10810c-10,-3018 672,-5815 2027,-8366 436,175 910,274 1408,274 2085,0 3774,-1690 3774,-3774 0,-787 -241,-1518 -654,-2123 4446,-3927 11079,-6962 19750,-9028 4804,-1145 10253,-1980 16196,-2482l86 -7 84 -461 -148 13c-5991,503 -11483,1343 -16322,2496 -8731,2081 -15423,5143 -19925,9112 -692,-792 -1707,-1295 -2841,-1295 -2085,0 -3774,1690 -3774,3775 0,1425 790,2664 1955,3306 -1383,2611 -2079,5473 -2069,8561 26,8085 7158,16747 20081,24391 10943,6473 24800,11371 38016,13440l323 50 -222 -239c-53,-57 -105,-115 -158,-173l-111 -123 -40 -6c-13073,-2084 -26770,-6946 -37578,-13339 -12780,-7559 -19832,-16083 -19858,-24002zm45099 15191c-7131,-1699 -12177,-6039 -13202,-11128 92,7 183,14 276,14 1876,0 3397,-1521 3397,-3397 0,-1621 -1136,-2975 -2655,-3313 1513,-2867 4385,-5333 8290,-6996l69 -29 -3 -487 -156 66c-4041,1703 -7064,4340 -8640,7377 -100,-9 -200,-15 -302,-15 -1876,0 -3396,1521 -3396,3397 0,1617 1130,2967 2644,3310 990,5370 6248,9933 13708,11672l196 46 -164 -502 -62 -15zm-16566 -356c4845,3520 11495,5824 18727,6489l188 18 -200 -473 -68 -6c-7108,-671 -13637,-2941 -18386,-6390 -4781,-3474 -7415,-7914 -7415,-12503 0,-2163 591,-4267 1682,-6242 631,316 1339,498 2092,498 2585,0 4680,-2096 4680,-4680 0,-859 -235,-1662 -639,-2354 3260,-2284 7403,-4092 12174,-5185l82 -19 31 -469 -148 33c-4849,1105 -9061,2940 -12383,5265 -850,-1180 -2232,-1951 -3797,-1951 -2584,0 -4680,2095 -4680,4680 0,1671 878,3133 2196,3961 -1131,2042 -1743,4221 -1743,6463 0,4733 2702,9301 7607,12865zm13364 -36866l150 -25 -60 469 -83 14c-1987,328 -3872,695 -5605,1090 -9429,2148 -16351,5386 -20573,9623 -2515,2525 -4047,5410 -4581,8602 86,-4 172,-7 258,-7 2710,0 4907,2197 4907,4907 0,2173 -1414,4015 -3371,4660 2905,5113 8895,10277 17554,15027 6495,3563 14192,6665 22256,8972l40 11 401 594 -298 -85c-11354,-3215 -21831,-7950 -29502,-13332 -5150,-3613 -8817,-7352 -10899,-11063 -350,79 -713,122 -1088,122 -2709,0 -4906,-2196 -4906,-4906 0,-2463 1815,-4502 4180,-4853 530,-3334 2111,-6342 4728,-8968 4284,-4300 11280,-7578 20794,-9746 1760,-401 3677,-773 5698,-1106z"/>
   <path class="fil0" d="M126356 51645c7,-3 14,-6 22,-9 -1,10 -1,20 -1,30 -7,-7 -14,-14 -21,-21zm25677 59216l-305 0 -41 -24c-11,8 -22,16 -34,24l-956 0c-19,-14 -37,-28 -55,-43 -90,-77 -183,-147 -277,-217 -164,-12 -330,-82 -478,-236 -64,-67 -130,-130 -196,-193 -1823,-993 -4204,-1075 -6188,-1085 -626,-3 -954,-664 -685,-1193 97,-190 230,-416 369,-661 -50,-233 6,-492 208,-707 130,-138 247,-280 351,-426 195,-518 274,-1038 50,-1467 -238,-241 -474,-485 -708,-733 -1009,-645 -2345,-287 -3451,177 -729,305 -1129,-625 -895,-1165 1571,-3616 -1757,-5812 -5052,-5752 -281,5 -530,-168 -675,-402 -112,19 -221,42 -322,72 -853,254 -1421,-1040 -611,-1449 504,-254 1031,-683 1491,-1205 -47,-134 -66,-281 -44,-435 148,-1017 257,-2209 -621,-2929 -790,-647 -1778,-1065 -2638,-1611 -26,-16 -49,-36 -73,-55 -185,-38 -343,-154 -455,-310 -245,-181 -385,-491 -289,-831 286,-1014 792,-2346 496,-3411 -313,-1126 -1486,-1430 -2509,-1653 -174,-38 -310,-135 -406,-261 -467,-334 -389,-1184 255,-1419 98,-36 192,-75 283,-117 513,-503 1029,-1036 1338,-1670 226,-461 323,-945 359,-1439 -109,-395 -216,-792 -320,-1191 -471,-857 -1372,-1474 -2657,-1424 -829,33 -1026,-1066 -400,-1476 536,-352 916,-834 1169,-1381 -5,-687 -58,-1376 -223,-2044 -406,-1636 -1220,-2952 -2605,-3845 -352,-28 -706,-112 -1059,-269 -692,-308 -376,-1239 190,-1449 498,-184 979,-251 1436,-223 711,-284 1164,-801 800,-1744 -381,-986 -1250,-1860 -2236,-2241 -627,-242 -812,-1064 -190,-1449 2662,-1646 2540,-4662 1334,-7138 -311,-200 -643,-363 -993,-471 -837,-260 -659,-1374 37,-1534 31,-158 103,-306 217,-395 914,-714 2142,-1265 2175,-2577 39,-1545 -354,-3130 -1713,-4029 -699,-462 -369,-1384 400,-1477 2451,-294 2875,-1958 2308,-3602 -522,-855 -1198,-1576 -1802,-1865 -433,-208 -483,-786 -241,-1150 -49,-376 206,-795 581,-903 2226,-640 4550,-2499 2848,-4874 -202,-283 -114,-732 124,-961 1435,-1380 3291,-5921 764,-7058 -583,-264 -456,-1128 30,-1398 90,-167 239,-301 462,-353 647,-153 1184,-117 1624,55 2823,-846 6038,-3879 5489,-6545 -604,-185 -1184,-583 -1699,-1253 -365,-475 50,-992 504,-1150 103,-384 536,-685 995,-618 1604,232 3648,-265 4313,-1556 164,-509 230,-1019 157,-1477 -37,-167 -89,-340 -161,-521 -5,-12 -6,-23 -10,-34 -56,-116 -125,-226 -207,-328 -62,-62 -124,-125 -183,-195 -664,-770 360,-1816 1121,-1120 67,61 130,125 191,189 1297,1129 3305,-514 3287,-2045 -6,-493 514,-931 1003,-764 819,280 1745,441 2408,127 136,-101 274,-199 411,-297 206,-218 358,-522 433,-937 131,-724 958,-702 1344,-261 432,-272 868,-534 1308,-784l0 110861z"/>
   <path class="fil1" d="M146220 92744c0,-500 406,-905 906,-905 500,0 906,405 906,905 0,501 -406,906 -906,906 -500,0 -906,-405 -906,-906z"/>
   <path class="fil1" d="M133690 72162c0,-501 405,-906 906,-906 500,0 905,405 905,906 0,500 -405,905 -905,905 -501,0 -906,-405 -906,-905z"/>
   <path class="fil1" d="M144333 66551c0,-501 406,-906 906,-906 500,0 906,405 906,906 0,500 -406,905 -906,905 -500,0 -906,-405 -906,-905z"/>
   <path class="fil1" d="M131878 45490c0,-500 406,-906 906,-906 500,0 906,406 906,906 0,501 -406,906 -906,906 -500,0 -906,-405 -906,-906z"/>
   <path class="fil1" d="M147126 45490c0,-500 406,-906 906,-906 500,0 906,406 906,906 0,501 -406,906 -906,906 -500,0 -906,-405 -906,-906z"/>
   <path class="fil1" d="M134596 57417c0,-500 405,-906 905,-906 501,0 906,406 906,906 0,500 -405,906 -906,906 -500,0 -905,-406 -905,-906z"/>
   <path class="fil1" d="M146220 14239c0,-500 406,-906 906,-906 500,0 906,406 906,906 0,500 -406,906 -906,906 -500,0 -906,-406 -906,-906z"/>
   <path class="fil1" d="M144107 97123c0,-313 253,-567 566,-567 313,0 566,254 566,567 0,312 -253,566 -566,566 -313,0 -566,-254 -566,-566z"/>
   <path class="fil1" d="M135501 80385c0,-313 254,-566 567,-566 312,0 566,253 566,566 0,313 -254,566 -566,566 -313,0 -567,-253 -567,-566z"/>
   <path class="fil1" d="M144107 57417c0,-313 253,-566 566,-566 313,0 566,253 566,566 0,313 -253,566 -566,566 -313,0 -566,-253 -566,-566z"/>
   <path class="fil1" d="M144673 81701c0,-313 253,-566 566,-566 313,0 566,253 566,566 0,313 -253,566 -566,566 -313,0 -566,-253 -566,-566z"/>
   <path class="fil1" d="M134935 38786c0,-313 254,-566 566,-566 313,0 567,253 567,566 0,313 -254,566 -567,566 -312,0 -566,-253 -566,-566z"/>
   <path class="fil1" d="M147466 32658c0,-313 253,-566 566,-566 313,0 566,253 566,566 0,313 -253,566 -566,566 -313,0 -566,-253 -566,-566z"/>
   <path class="fil1" d="M140219 27827c0,-313 254,-567 566,-567 313,0 566,254 566,567 0,312 -253,566 -566,566 -312,0 -566,-254 -566,-566z"/>
   <path class="fil1" d="M142536 17712c0,-313 254,-566 566,-566 313,0 567,253 567,566 0,312 -254,566 -567,566 -312,0 -566,-254 -566,-566z"/>
  </g>
 </g>
</svg>
