<?xml version="1.0" encoding="UTF-8"?>
<!DOCTYPE svg PUBLIC "-//W3C//DTD SVG 1.1//EN" "http://www.w3.org/Graphics/SVG/1.1/DTD/svg11.dtd">
<!-- Creator: CorelDRAW X7 -->
<svg xmlns="http://www.w3.org/2000/svg" xml:space="preserve" width="11.6099in" height="5.51823in" version="1.1" style="shape-rendering:geometricPrecision; text-rendering:geometricPrecision; image-rendering:optimizeQuality; fill-rule:evenodd; clip-rule:evenodd"
viewBox="0 0 116099 55182"
 xmlns:xlink="http://www.w3.org/1999/xlink">
 <defs>
  <style type="text/css">
   <![CDATA[
    .fil12 {fill:#6B809B}
    .fil13 {fill:#6B809B}
    .fil9 {fill:#9DAFD7}
    .fil10 {fill:#D7B77D}
    .fil2 {fill:#E5D0AA}
    .fil17 {fill:#EAD9BB}
    .fil14 {fill:#EED5AB}
    .fil1 {fill:#EFE2C9}
    .fil11 {fill:#F1E5CF}
    .fil3 {fill:#F4ECDC}
    .fil0 {fill:#F7F2E7}
    .fil15 {fill:#FCEDD4}
    .fil5 {fill:#C4CFE9;fill-rule:nonzero}
    .fil4 {fill:#EAD9BB;fill-rule:nonzero}
    .fil6 {fill:#EED5AB;fill-rule:nonzero}
    .fil16 {fill:#F1E5CE;fill-rule:nonzero}
    .fil8 {fill:#FBFAF5;fill-rule:nonzero}
    .fil7 {fill:#FCEDD4;fill-rule:nonzero}
   ]]>
  </style>
 </defs>
 <g id="Layer_x0020_1">
  <metadata id="CorelCorpID_0Corel-Layer"/>
  <g id="_1759348627648">
   <path class="fil0" d="M0 26164l0 -26164 103909 0c4671,3921 11189,12109 -2716,14442 -5996,1007 -13217,675 -14488,3508 -793,1768 1075,4070 2270,5346 5390,5756 -45,13695 -16659,15384 -9113,926 -20493,-338 -28945,-1284 -18345,-2055 -13418,2482 -13303,7284 69,2891 -1845,5491 -10654,7243 -6819,1356 -14692,893 -19414,255l0 -26014z"/>
   <path class="fil1" d="M42701 0l22595 0c12811,2590 10665,7404 4110,9830 -10251,3794 -17385,2568 -9379,10539 2718,2707 2730,5923 -1482,8413 -3030,1790 -8149,3076 -13702,3301 -3088,125 -6202,-66 -9308,-57 -3106,9 -6414,260 -8618,1095 -2123,805 -2840,2007 -2964,3149 -133,1237 335,2468 804,3698 571,1500 1143,2999 622,4505 -329,951 -1069,1932 -2176,2853 -59,50 -120,99 -181,148 -42,34 -85,67 -128,101 -57,44 -114,88 -173,131 -1435,1073 -3379,2044 -5758,2761 -98,30 -196,59 -295,87 -116,34 -233,66 -350,98 -1748,478 -3654,819 -5655,1057 -101,12 -202,24 -303,35 -9,1 -17,2 -25,3 -444,50 -893,95 -1346,136 -127,11 -255,22 -383,33 -115,9 -231,19 -346,28 -56,4 -112,8 -168,13 -1372,103 -2773,167 -4185,200 -125,3 -250,5 -376,8 -34,0 -69,1 -103,2 -118,2 -236,4 -354,6 -1023,15 -2050,16 -3074,5l0 -49042c2958,296 6152,827 9586,1647 15503,3699 21916,-2105 33115,-4783z"/>
   <path class="fil2" d="M0 50691l0 -50691 42435 0c1136,1366 1054,2896 -971,4137 -7549,4627 -20771,3735 -7961,10733 7129,3895 7352,10394 -5731,12446 -3117,489 -6713,735 -10667,1123 -7282,715 -10068,2370 -8556,5186 1447,2690 5756,5081 6571,7829 1042,3514 -4962,9049 -15120,9237z"/>
   <path class="fil3" d="M89823 37908c1749,57 3151,1492 3161,3270l29 0c14,-1778 1416,-3213 3160,-3270 -1754,-57 -3160,-1507 -3160,-3294l-25 0c0,1787 -1406,3237 -3165,3294z"/>
   <path class="fil1" d="M113342 12376c760,25 1368,648 1372,1419l13 0c6,-771 615,-1394 1372,-1419 -761,-25 -1372,-654 -1372,-1431l-10 0c0,777 -611,1406 -1375,1431z"/>
   <polygon class="fil4" points="25688,4590 16338,11677 19790,14319 14005,22142 24291,15120 20783,11644 "/>
   <g>
    <polygon class="fil5" points="76966,54145 50056,50542 53658,23632 80568,27235 "/>
    <polygon class="fil6" points="58695,51614 33492,42864 42243,17661 67446,26411 "/>
    <polygon class="fil7" points="68948,50292 40899,42777 48415,14728 76463,22244 72009,38869 "/>
    <polygon class="fil8" points="52493,14739 66191,16894 65655,20307 51956,18152 "/>
    <polygon class="fil9" points="68264,50109 59988,47891 59480,49354 67629,52241 67849,51520 "/>
    <polygon class="fil10" points="59480,49354 59988,47891 50742,45414 40899,42777 "/>
    <polygon class="fil11" points="76002,54016 64904,52530 75889,55182 "/>
    <polygon class="fil3" points="44439,46664 34743,43298 34173,44757 "/>
    <polygon class="fil11" points="56829,51449 52928,50927 56224,52920 "/>
    <polygon class="fil3" points="50223,49290 50302,48700 47827,47841 "/>
    <polygon class="fil9" points="50302,48700 50223,49290 52928,50927 56829,51449 57002,51026 53178,49699 52423,49436 "/>
    <polygon class="fil10" points="51959,18152 65578,20464 65697,20298 65828,19394 65799,19387 65654,20307 51961,18153 "/>
    <polygon class="fil12" points="66191,16894 65799,19387 65828,19394 "/>
    <polygon class="fil10" points="74311,30275 74376,30034 68603,18935 "/>
    <polygon class="fil13" points="74408,29913 74311,30275 74852,31348 78067,29643 77384,29264 "/>
    <polygon class="fil8" points="75001,31238 68603,18935 71668,17341 78067,29643 "/>
    <g>
     <path class="fil14" d="M64567 34565c887,-3312 -1078,-6716 -4390,-7603 -3311,-887 -6715,1078 -7603,4390 -887,3311 1078,6715 4390,7602 3312,888 6715,-1077 7603,-4389z"/>
     <path class="fil15" d="M59248 34959l-303 1130 -4525 -1212 303 -1131 4525 1213zm-3616 -4607l304 -1132c2262,606 4525,1212 6787,1819l-1435 828c-1884,-505 -3770,-1010 -5656,-1515zm6485 2949c-303,1132 -607,2264 -910,3395l-1132 -304 607 -2262 -5656 -1516 304 -1132c2262,607 4525,1213 6787,1819z"/>
    </g>
   </g>
   <g>
    <path class="fil16" d="M91098 14123c-24,43 -78,59 -122,35 -493,-273 -1062,-338 -1604,-182 -542,155 -991,513 -1264,1006 -273,493 -338,1063 -182,1604 13,48 -14,97 -61,111 -3,1 -6,1 -10,2 -44,7 -88,-19 -100,-63 -169,-588 -99,-1206 197,-1741 296,-534 783,-922 1370,-1091 588,-168 1206,-98 1741,198 43,24 58,78 35,121zm-6970 3189c-9,6 -18,9 -28,10 -36,7 -74,-10 -93,-44 -506,-907 -1649,-1238 -2560,-749 -4,3 -8,4 -12,6 -5,3 -10,6 -15,9 -43,23 -98,8 -122,-35 -13,-23 -14,-50 -5,-74 -313,-731 -988,-1260 -1775,-1384 -1265,-199 -2457,667 -2657,1933 -7,48 -53,81 -101,74 -49,-8 -82,-54 -75,-102 215,-1362 1498,-2296 2861,-2081 835,132 1553,686 1896,1456 983,-475 2182,-105 2720,860 24,43 9,98 -34,121zm8949 -6143c-283,-1629 -1833,-2720 -3462,-2437 -220,38 -530,215 -752,134 -187,-69 -290,-291 -444,-406 -188,-140 -395,-255 -613,-340 -440,-171 -924,-219 -1389,-138 -380,66 -726,212 -1025,416 -2,2 -3,3 -5,4 0,0 -1,1 -1,1 -19,13 -38,26 -57,40 -1,-1 -2,-2 -3,-2 -241,161 -1111,825 -998,1927 561,-118 1166,-1 1652,368 344,-480 910,-765 1503,-748 476,14 917,212 1244,558 327,346 499,799 486,1275 -1,43 -33,78 -74,85 -6,1 -12,2 -18,1 -49,-1 -88,-42 -86,-91 25,-884 -673,-1624 -1557,-1649 -564,-17 -1101,269 -1403,746 -26,42 -81,54 -123,28 -5,-4 -10,-7 -14,-12 -790,-654 -1966,-546 -2622,243 -32,38 -88,43 -126,12 -38,-32 -43,-88 -11,-126 264,-317 605,-534 974,-646 -130,-1124 674,-1831 1007,-2072 -697,-398 -1530,-565 -2382,-417 -1260,219 -2250,1073 -2700,2176 -218,-9 -441,4 -665,43 -1101,191 -2034,981 -2405,2035 -94,266 -140,535 -167,814 -4,38 -10,72 -19,104 592,-348 1445,-678 2461,-582 49,4 85,48 80,97 -5,49 -48,85 -97,80 -2118,-200 -3535,1529 -3549,1547 -10,13 -24,23 -39,28 -187,209 -354,435 -484,690 -387,760 -518,1634 -372,2474 374,2155 2425,3598 4580,3224 243,-42 476,-225 726,-187 -188,-327 -337,-753 -275,-1240 6,-49 51,-84 99,-78 49,6 84,51 78,100 -128,1006 769,1763 778,1771 11,9 19,20 24,32 158,139 321,241 528,323 565,224 1189,289 1788,186 507,-89 966,-288 1358,-569 4,-5 9,-11 14,-15 1179,-964 1119,-2449 1118,-2464 -2,-49 35,-91 84,-93 50,-3 92,35 94,84 3,57 54,1271 -817,2258 731,592 1703,879 2702,705 486,-84 966,-315 1394,-576 452,-275 931,384 1170,662 352,408 599,944 1054,1257 655,452 1174,-144 1121,-828 -30,-392 -109,-777 -222,-1152 -55,-185 -133,-395 -79,-589 65,-232 266,-233 462,-317 375,-162 713,-408 983,-715 548,-625 789,-1480 646,-2299 -55,-317 -162,-612 -311,-878 -124,81 -379,225 -749,317 -58,14 -120,27 -186,39 -483,84 -1182,73 -2019,-323 -44,-21 -63,-74 -42,-119 21,-44 74,-63 119,-42 1725,816 2838,-61 2849,-70 7,-6 15,-10 24,-13 798,-562 1246,-1552 1068,-2577 -180,-1037 -950,-1823 -1906,-2074z"/>
    <path class="fil17" d="M81568 19092c-2011,349 -3930,-884 -4482,-2800 -109,212 -185,444 -225,692 -7,48 -53,81 -101,74 -49,-8 -82,-54 -75,-102 53,-334 170,-643 337,-915 -13,-57 -24,-115 -34,-174 -146,-839 -15,-1714 372,-2473 93,-182 204,-349 328,-505 -1215,425 -1961,1335 -1971,1348 -10,13 -24,23 -39,28 -187,209 -353,435 -484,690 -387,760 -518,1634 -372,2474 374,2155 2425,3598 4580,3224 243,-42 476,-225 726,-187 -188,-327 -337,-753 -275,-1240 6,-49 51,-84 99,-78 49,6 84,51 78,100 -128,1006 769,1763 778,1771 11,9 19,20 24,33 158,138 321,240 528,322 565,224 1189,289 1788,186 507,-89 966,-288 1358,-569l14 -15c361,-295 606,-639 772,-974 -592,98 -1208,32 -1766,-189 -207,-83 -370,-184 -528,-323 -5,-12 -13,-24 -24,-33 -9,-7 -906,-765 -779,-1771 7,-48 -28,-93 -77,-99 -49,-6 -93,28 -99,77 -62,487 87,913 275,1241 -250,-39 -483,144 -726,187z"/>
    <path class="fil17" d="M85515 19957c-120,267 -285,543 -516,804 684,555 1581,841 2513,733 63,-8 126,-17 189,-28 486,-84 966,-315 1394,-576 452,-275 931,384 1170,662 352,409 599,944 1054,1257 655,452 1174,-144 1121,-828 -30,-392 -109,-777 -222,-1152 -55,-185 -133,-395 -79,-589 46,-163 158,-212 288,-255 -241,-281 -717,-930 -1166,-656 -428,261 -908,491 -1394,576 -999,173 -1971,-113 -2702,-705 871,-988 820,-2201 817,-2259 -3,-49 -44,-86 -94,-84 -49,3 -86,45 -84,94 1,15 61,1499 -1118,2463l-14 16c-29,20 -59,41 -88,61 -318,212 -678,373 -1069,466z"/>
    <path class="fil17" d="M77922 12630c243,-275 1588,-1683 3510,-1502 49,5 92,-31 97,-80 5,-49 -31,-92 -80,-97 -1016,-96 -1869,235 -2461,582 9,-31 15,-66 19,-103 27,-280 73,-549 167,-814 57,-163 128,-320 211,-469 -1089,200 -2009,985 -2377,2030 -94,266 -140,535 -167,814 -4,38 -10,72 -19,104 303,-178 674,-351 1100,-465z"/>
   </g>
  </g>
 </g>
</svg>
