<?xml version="1.0" encoding="UTF-8"?>
<!DOCTYPE svg PUBLIC "-//W3C//DTD SVG 1.1//EN" "http://www.w3.org/Graphics/SVG/1.1/DTD/svg11.dtd">
<!-- Creator: CorelDRAW X7 -->
<svg xmlns="http://www.w3.org/2000/svg" xml:space="preserve" width="12.0046in" height="5.70583in" version="1.1" style="shape-rendering:geometricPrecision; text-rendering:geometricPrecision; image-rendering:optimizeQuality; fill-rule:evenodd; clip-rule:evenodd"
viewBox="0 0 120046 57058"
 xmlns:xlink="http://www.w3.org/1999/xlink">
 <defs>
  <style type="text/css">
   <![CDATA[
    .fil12 {fill:#6B809B}
    .fil13 {fill:#6B809B}
    .fil9 {fill:#9DAFD7}
    .fil10 {fill:#D7B77D}
    .fil2 {fill:#E5D0AA}
    .fil17 {fill:#EAD9BB}
    .fil14 {fill:#EED5AB}
    .fil1 {fill:#EFE2C9}
    .fil11 {fill:#F1E5CF}
    .fil3 {fill:#F4ECDC}
    .fil0 {fill:#F7F2E7}
    .fil15 {fill:#FCEDD4}
    .fil5 {fill:#C4CFE9;fill-rule:nonzero}
    .fil4 {fill:#EAD9BB;fill-rule:nonzero}
    .fil6 {fill:#EED5AB;fill-rule:nonzero}
    .fil16 {fill:#F1E5CE;fill-rule:nonzero}
    .fil8 {fill:#FBFAF5;fill-rule:nonzero}
    .fil7 {fill:#FCEDD4;fill-rule:nonzero}
   ]]>
  </style>
 </defs>
 <g id="Layer_x0020_1">
  <metadata id="CorelCorpID_0Corel-Layer"/>
  <g id="_2124159170752">
   <path class="fil0" d="M0 27054l0 -27054 107442 0c4829,4054 11569,12521 -2808,14933 -6201,1041 -13668,698 -14981,3627 -820,1828 1111,4209 2346,5528 5574,5952 -46,14161 -17225,15907 -9423,958 -21189,-350 -29928,-1328 -18970,-2124 -13875,2567 -13756,7532 72,2989 -1908,5678 -11016,7489 -7050,1402 -15191,923 -20074,263l0 -26897z"/>
   <path class="fil1" d="M44153 0l23363 0c13247,2678 11028,7655 4250,10164 -10600,3924 -17976,2655 -9699,10898 2811,2798 2824,6124 -1532,8698 -3133,1852 -8426,3181 -14167,3414 -3194,129 -6414,-69 -9625,-59 -3212,9 -6632,268 -8911,1132 -2196,832 -2937,2076 -3065,3256 -138,1279 347,2552 831,3824 591,1551 1182,3100 643,4658 -339,983 -1104,1997 -2249,2950 -61,52 -124,103 -188,153 -43,35 -87,70 -132,104 -58,46 -118,91 -178,136 -1484,1109 -3494,2113 -5955,2855 -101,30 -202,60 -305,90 -119,34 -240,68 -362,101 -1806,494 -3778,847 -5847,1093 -104,13 -209,25 -313,37 -9,0 -17,1 -26,2 -459,52 -923,99 -1391,141 -132,11 -264,23 -396,34 -119,10 -239,19 -359,29 -57,4 -115,9 -173,13 -1418,107 -2867,173 -4327,207 -130,3 -259,6 -389,8 -35,1 -71,1 -107,2 -122,2 -243,4 -365,6 -1058,16 -2120,17 -3179,5l0 -50708c3059,306 6361,855 9911,1702 16031,3826 22662,-2176 34242,-4945z"/>
   <path class="fil2" d="M0 52414l0 -52414 43878 0c1174,1412 1090,2994 -1004,4278 -7806,4784 -21477,3862 -8232,11097 7371,4028 7602,10748 -5926,12870 -3222,506 -6941,760 -11029,1161 -7530,739 -10411,2451 -8847,5362 1496,2782 5951,5254 6794,8096 1077,3633 -5131,9356 -15634,9550z"/>
   <path class="fil3" d="M92877 39197c1808,59 3258,1543 3268,3381l30 0c14,-1838 1464,-3322 3267,-3381 -1813,-59 -3267,-1558 -3267,-3406l-25 0c0,1848 -1455,3347 -3273,3406z"/>
   <path class="fil1" d="M117196 12797c785,25 1414,670 1418,1467l13 0c7,-797 636,-1442 1419,-1467 -787,-26 -1419,-677 -1419,-1480l-10 0c0,803 -632,1454 -1421,1480z"/>
   <polygon class="fil4" points="26561,4746 16893,12074 20463,14806 14481,22895 25116,15634 21489,12040 "/>
   <g>
    <polygon class="fil5" points="79582,55986 51757,52260 55482,24435 83307,28161 "/>
    <polygon class="fil6" points="60691,53369 34631,44321 43679,18261 69739,27309 "/>
    <polygon class="fil7" points="71292,52002 42289,44231 50061,15229 79063,23000 74457,40190 "/>
    <polygon class="fil8" points="54277,15240 68442,17469 67886,20997 53722,18769 "/>
    <polygon class="fil9" points="70585,51812 62027,49519 61502,51032 69928,54017 70156,53271 "/>
    <polygon class="fil10" points="61502,51032 62027,49519 52467,46958 42289,44231 "/>
    <polygon class="fil11" points="78585,55852 67111,54316 78468,57058 "/>
    <polygon class="fil3" points="45950,48251 35924,44770 35335,46279 "/>
    <polygon class="fil11" points="58761,53198 54728,52658 58135,54719 "/>
    <polygon class="fil3" points="51930,50966 52012,50356 49453,49467 "/>
    <polygon class="fil9" points="52012,50356 51930,50966 54728,52658 58761,53198 58940,52761 54986,51388 54205,51117 "/>
    <polygon class="fil10" points="53726,18769 67807,21160 67930,20988 68066,20054 68036,20046 67886,20997 53727,18770 "/>
    <polygon class="fil12" points="68442,17469 68036,20046 68066,20054 "/>
    <polygon class="fil10" points="76838,31304 76904,31056 70935,19579 "/>
    <polygon class="fil13" points="76938,30930 76838,31304 77396,32414 80720,30651 80015,30259 "/>
    <polygon class="fil8" points="77551,32300 70935,19578 74105,17930 80721,30651 "/>
    <g>
     <path class="fil14" d="M66762 35740c917,-3424 -1115,-6944 -4539,-7861 -3424,-918 -6944,1114 -7861,4538 -918,3425 1114,6944 4538,7862 3425,917 6944,-1115 7862,-4539z"/>
     <path class="fil15" d="M61262 36147l-313 1169 -4679 -1253 313 -1169 4679 1253zm-3738 -4763l313 -1171c2340,627 4679,1254 7019,1881l-1485 857c-1948,-522 -3898,-1045 -5847,-1567zm6705 3049c-314,1171 -628,2341 -941,3510l-1170 -314 626 -2339 -5847 -1567 314 -1170c2339,626 4678,1253 7018,1880z"/>
    </g>
   </g>
   <g>
    <path class="fil16" d="M94194 14603c-24,45 -80,61 -125,36 -510,-282 -1099,-349 -1659,-188 -560,161 -1024,530 -1307,1040 -282,510 -349,1099 -188,1659 14,49 -14,100 -63,114 -3,1 -7,2 -10,3 -46,7 -91,-20 -104,-66 -175,-607 -102,-1246 204,-1799 306,-553 809,-954 1417,-1128 607,-175 1247,-102 1800,204 44,24 60,81 35,125zm-7206 3298c-9,5 -19,9 -29,10 -38,7 -77,-10 -96,-45 -523,-938 -1705,-1281 -2647,-775 -4,3 -8,4 -12,6 -6,3 -11,6 -17,9 -44,25 -100,9 -125,-36 -14,-24 -15,-52 -6,-76 -323,-757 -1021,-1303 -1835,-1431 -1308,-206 -2540,690 -2747,1998 -8,50 -55,85 -105,77 -50,-8 -85,-55 -77,-106 223,-1408 1549,-2373 2958,-2151 864,136 1606,709 1961,1506 1016,-492 2256,-110 2813,889 24,44 8,100 -36,125zm9253 -6352c-293,-1685 -1895,-2813 -3580,-2520 -227,39 -547,223 -778,138 -192,-71 -299,-301 -458,-419 -195,-145 -408,-264 -634,-352 -455,-177 -955,-226 -1436,-143 -393,69 -751,219 -1060,431 -2,1 -3,3 -5,4 0,0 -1,0 -2,0 -19,14 -39,28 -58,42 -1,-1 -2,-2 -3,-2 -249,166 -1149,853 -1033,1992 581,-122 1206,0 1709,381 355,-497 941,-791 1554,-773 492,14 949,219 1287,577 337,358 516,826 502,1318 -2,44 -34,81 -77,88 -6,1 -12,1 -18,1 -51,-1 -91,-44 -90,-95 27,-914 -696,-1678 -1610,-1705 -582,-17 -1138,279 -1450,772 -27,43 -84,56 -127,29 -5,-4 -10,-8 -15,-12 -817,-677 -2032,-565 -2711,251 -33,39 -91,45 -130,12 -39,-32 -44,-91 -12,-130 274,-328 626,-552 1007,-668 -134,-1162 698,-1894 1042,-2143 -720,-411 -1582,-584 -2463,-431 -1303,226 -2327,1110 -2792,2250 -226,-9 -456,5 -687,45 -1139,198 -2103,1014 -2487,2104 -97,275 -145,553 -173,842 -4,39 -10,74 -19,107 612,-359 1493,-701 2544,-602 51,5 88,50 83,100 -5,51 -50,88 -100,83 -2190,-206 -3655,1582 -3670,1600 -11,14 -25,23 -40,29 -194,216 -366,449 -501,714 -400,785 -535,1689 -385,2557 387,2229 2508,3721 4736,3334 251,-43 493,-233 751,-193 -195,-338 -348,-779 -285,-1283 7,-50 53,-86 103,-80 51,7 86,53 80,103 -132,1041 796,1823 805,1831 11,10 20,21 25,34 163,143 332,249 546,334 584,231 1230,299 1848,191 524,-91 999,-297 1404,-587 5,-6 10,-11 16,-16 1219,-997 1156,-2532 1155,-2548 -2,-50 37,-94 88,-96 50,-3 94,36 96,87 3,59 57,1314 -844,2335 755,612 1760,908 2793,729 503,-88 999,-326 1442,-596 467,-284 963,397 1210,684 364,423 619,977 1089,1301 677,466 1214,-150 1160,-857 -32,-405 -113,-803 -230,-1191 -57,-191 -137,-408 -81,-609 67,-240 275,-241 477,-328 388,-167 737,-422 1016,-739 567,-647 816,-1530 669,-2377 -57,-328 -169,-633 -322,-908 -128,84 -392,233 -774,328 -60,14 -125,28 -193,40 -500,87 -1222,75 -2087,-334 -46,-22 -66,-77 -44,-123 22,-46 77,-65 123,-44 1784,844 2935,-62 2946,-72 7,-6 16,-10 24,-13 826,-581 1289,-1605 1105,-2665 -186,-1072 -983,-1885 -1971,-2144z"/>
    <path class="fil17" d="M84341 19741c-2079,361 -4063,-914 -4635,-2895 -112,219 -191,459 -232,715 -8,50 -55,85 -105,77 -50,-8 -85,-55 -77,-106 55,-345 176,-664 348,-946 -13,-59 -25,-119 -35,-179 -151,-868 -15,-1773 385,-2558 96,-188 211,-360 339,-522 -1256,440 -2027,1381 -2038,1394 -11,14 -25,23 -40,29 -194,216 -366,449 -501,714 -400,785 -535,1689 -385,2557 387,2229 2508,3721 4736,3334 251,-43 493,-233 751,-193 -195,-338 -349,-779 -285,-1283 7,-50 53,-86 103,-80 51,7 86,53 80,103 -132,1041 796,1823 805,1831 11,10 20,21 25,34 163,143 332,249 546,334 584,231 1230,299 1848,191 524,-91 999,-297 1404,-587l16 -16c372,-305 626,-660 797,-1007 -612,102 -1249,33 -1825,-196 -215,-85 -383,-190 -546,-333 -6,-13 -14,-25 -25,-34 -10,-8 -937,-791 -805,-1831 6,-51 -30,-97 -80,-103 -51,-7 -97,29 -103,80 -64,503 90,944 285,1282 -259,-39 -500,150 -751,194z"/>
    <path class="fil17" d="M88422 20635c-124,276 -295,562 -533,832 707,574 1634,869 2598,757 65,-7 130,-17 195,-28 503,-88 999,-326 1442,-596 467,-284 963,397 1210,684 364,423 619,977 1089,1301 677,466 1214,-150 1160,-857 -32,-405 -113,-803 -230,-1191 -57,-191 -137,-408 -81,-609 46,-168 162,-219 297,-264 -249,-290 -741,-961 -1205,-678 -443,270 -939,508 -1442,595 -1033,180 -2038,-116 -2793,-729 900,-1020 847,-2275 844,-2335 -3,-50 -46,-89 -97,-87 -51,3 -90,46 -87,97 1,15 63,1550 -1156,2547l-15 16c-30,22 -60,43 -91,63 -329,220 -701,386 -1105,482z"/>
    <path class="fil17" d="M80571 13059c251,-284 1642,-1740 3629,-1552 51,5 96,-33 101,-83 4,-51 -33,-96 -84,-101 -1050,-99 -1932,243 -2544,602 9,-32 16,-68 20,-107 28,-289 75,-567 172,-842 60,-168 133,-330 218,-484 -1126,207 -2076,1018 -2457,2099 -97,275 -145,553 -173,842 -4,39 -10,74 -19,107 313,-184 697,-363 1137,-481z"/>
   </g>
  </g>
 </g>
</svg>
