<?xml version="1.0" encoding="UTF-8"?>
<!DOCTYPE svg PUBLIC "-//W3C//DTD SVG 1.1//EN" "http://www.w3.org/Graphics/SVG/1.1/DTD/svg11.dtd">
<!-- Creator: CorelDRAW X7 -->
<svg xmlns="http://www.w3.org/2000/svg" xml:space="preserve" width="15.2033in" height="11.075in" version="1.1" style="shape-rendering:geometricPrecision; text-rendering:geometricPrecision; image-rendering:optimizeQuality; fill-rule:evenodd; clip-rule:evenodd"
viewBox="0 0 152033 110750"
 xmlns:xlink="http://www.w3.org/1999/xlink">
 <defs>
  <style type="text/css">
   <![CDATA[
    .fil0 {fill:#F9F3EA;fill-rule:nonzero}
    .fil1 {fill:#FBFBF7;fill-rule:nonzero}
   ]]>
  </style>
 </defs>
 <g id="Layer_x0020_1">
  <metadata id="CorelCorpID_0Corel-Layer"/>
  <g id="_2983419927920">
   <path class="fil0" d="M12803 93119c-896,530 -1498,1502 -1498,2618 0,1680 1362,3042 3042,3042 984,0 1857,-470 2413,-1195 2619,2773 5510,5515 8652,8188 2008,1707 4115,3381 6267,4978l765 0c-2326,-1708 -4593,-3499 -6739,-5323 -3159,-2687 -6063,-5443 -8689,-8230 237,-434 373,-931 373,-1460 0,-1680 -1362,-3042 -3042,-3042 -399,0 -780,79 -1129,219 -8136,-9778 -12738,-19679 -12765,-28031 -46,-14647 9780,-27187 28416,-36266 10086,-4913 22719,-8795 37547,-11539 15793,-2921 34212,-4572 54746,-4907 508,-8 1015,-12 1520,-12 5295,0 10471,460 15383,1367l73 14 281 -413 -171 -32c-4956,-922 -10192,-1389 -15561,-1389l-4 0c-507,0 -1017,4 -1529,12 -20558,335 -39003,1989 -54820,4915 -14870,2751 -27541,6646 -37663,11577 -18804,9160 -28718,21842 -28671,36674 27,8428 4643,18399 12803,28235zm112396 17631c-13155,-2884 -27106,-8932 -38442,-16685 -12732,-8708 -20632,-18293 -22224,-26786 -4287,-1035 -7473,-4894 -7473,-9500 0,-5399 4376,-9776 9775,-9776 1472,0 2868,328 4121,911 5276,-5166 13447,-9178 24298,-11926 9849,-2495 21573,-3813 33905,-3813l164 1 -23 142 -83 310 -86 0c-12285,2 -23961,1315 -33766,3798 -10696,2709 -18759,6645 -23979,11702 3106,1637 5224,4896 5224,8651 0,5399 -4376,9775 -9775,9775 -623,0 -1233,-61 -1824,-172 733,3717 2704,7659 5898,11764 3846,4940 9414,9970 16103,14545 11953,8174 26685,14392 40421,17059l-2234 0zm-27769 0c-8735,-3548 -17218,-8205 -24568,-13490 -2559,-1840 -4931,-3715 -7115,-5610 -146,25 -301,43 -474,43 -1905,0 -5388,-1895 -8731,-4141 -483,109 -985,169 -1501,169 -3695,0 -6696,-2961 -6766,-6639 -1151,-1049 -2176,-2067 -3021,-3007 -1728,-1921 -3337,-4089 -2167,-5605 269,-347 786,-762 1723,-762 1549,0 4143,1256 6856,2932 -1910,-3793 -2917,-7491 -2928,-10974 -19,-5957 2412,-11426 7224,-16252 6250,-6270 16590,-11444 29903,-14962 11841,-3129 25769,-4852 39219,-4852 1939,0 3891,58 5803,172l150 9 -158 443 -85 -5c-1874,-110 -3795,-166 -5710,-166 -13412,0 -27299,1718 -39103,4837 -13236,3498 -23505,8630 -29698,14843 -4724,4739 -7111,10099 -7092,15932 11,3514 1039,7237 3062,11119 851,-386 1794,-603 2788,-603 3740,0 6771,3031 6771,6770 0,432 -43,854 -120,1263 1199,1087 2263,2141 3137,3112 1728,1921 3337,4089 2166,5605 -150,195 -383,409 -721,561 2131,1843 4421,3652 6852,5400 7623,5482 16446,10273 25517,13858l-1213 0zm-22973 0c-6434,-3482 -12551,-7634 -18187,-12345 -14400,-12037 -23017,-25553 -23052,-36157 -5,-1658 202,-3285 614,-4878 -894,-1057 -1444,-2488 -1444,-4066 0,-3252 2332,-5888 5208,-5888 571,0 1120,105 1634,297 4850,-5442 12585,-10291 23029,-14369 16940,-6616 39678,-10693 64026,-11481 1009,-33 2013,-49 2985,-49 1339,0 2683,33 3996,97l167 8 -206 447 -76 -4c-2206,-106 -4511,-122 -6852,-46 -24297,786 -46982,4852 -63876,11450 -10307,4025 -17951,8795 -22756,14135 1846,905 3138,2983 3138,5403 0,3252 -2332,5888 -5209,5888 -1297,0 -2484,-538 -3396,-1426 -355,1466 -533,2960 -529,4481 18,5201 2203,11305 6321,17653 3996,6158 9725,12437 16568,18158 5833,4875 12176,9145 18855,12692l-958 0zm-16637 0c-6276,-3370 -12236,-7369 -17721,-11891 -7781,-6416 -13857,-13294 -17788,-19935 -575,247 -1198,383 -1850,383 -2876,0 -5208,-2636 -5208,-5888 0,-2176 1045,-4076 2599,-5095 -415,-1780 -631,-3509 -637,-5170 -42,-12956 8887,-24032 25822,-32031 19011,-8979 47021,-13822 83252,-14393 419,-7 833,-10 1242,-10 2958,0 5694,177 8131,525l164 24 -239 425 -76 -11c-2733,-386 -5829,-553 -9215,-500 -36166,571 -64113,5399 -83066,14350 -16764,7918 -25603,18852 -25562,31620 6,1584 208,3232 593,4929 669,-353 1414,-551 2200,-551 2877,0 5209,2636 5209,5888 0,2339 -1206,4359 -2954,5309 3903,6581 9939,13406 17671,19781 5679,4683 11869,8801 18400,12241l-967 0zm1552 -24596c527,333 1025,633 1496,906 -393,-404 -778,-808 -1154,-1212 -110,106 -224,208 -342,306zm1191 -1288c-159,224 -333,437 -517,640 730,787 1490,1572 2284,2354 667,343 1249,610 1722,793 -642,-888 -1790,-2190 -3489,-3787zm-10774 -8186c-1570,-941 -2854,-1582 -3758,-1932 568,786 1530,1895 2920,3245 229,-471 511,-911 838,-1313zm35347 -10810c-10,-3017 672,-5814 2027,-8365 436,175 910,274 1408,274 2085,0 3774,-1690 3774,-3774 0,-788 -241,-1518 -654,-2124 4446,-3926 11079,-6961 19750,-9027 4804,-1145 10253,-1980 16196,-2482l86 -7 84 -461 -148 12c-5991,504 -11483,1343 -16322,2497 -8731,2081 -15423,5143 -19925,9112 -692,-792 -1707,-1295 -2841,-1295 -2084,0 -3774,1690 -3774,3775 0,1424 790,2664 1955,3306 -1383,2611 -2079,5472 -2069,8561 26,8085 7158,16747 20081,24391 10943,6473 24800,11371 38016,13439l323 51 -222 -239c-53,-57 -105,-115 -158,-173l-111 -123 -40 -6c-13073,-2084 -26770,-6946 -37578,-13339 -12780,-7560 -19832,-16084 -19858,-24003zm45099 15192c-7131,-1699 -12177,-6040 -13202,-11128 92,7 183,13 276,13 1876,0 3397,-1520 3397,-3397 0,-1621 -1136,-2974 -2655,-3313 1513,-2866 4385,-5333 8290,-6995l69 -29 -3 -487 -156 66c-4041,1702 -7064,4340 -8640,7377 -100,-9 -200,-15 -302,-15 -1876,0 -3396,1520 -3396,3396 0,1617 1130,2968 2644,3311 990,5370 6248,9933 13708,11672l196 46 -164 -502 -62 -15zm-16566 -356c4845,3520 11495,5824 18727,6489l188 17 -200 -472 -68 -6c-7108,-672 -13637,-2941 -18386,-6390 -4781,-3474 -7415,-7914 -7415,-12503 0,-2163 591,-4267 1682,-6242 631,316 1339,498 2092,498 2585,0 4680,-2096 4680,-4680 0,-859 -235,-1662 -639,-2354 3260,-2285 7403,-4092 12174,-5185l82 -19 31 -469 -148 33c-4849,1105 -9061,2940 -12383,5265 -849,-1180 -2232,-1951 -3797,-1951 -2584,0 -4680,2095 -4680,4680 0,1671 878,3133 2196,3961 -1131,2042 -1743,4221 -1743,6463 0,4732 2702,9301 7607,12865zm13364 -36866l150 -25 -60 469 -83 13c-1987,329 -3872,696 -5605,1091 -9429,2148 -16350,5386 -20573,9623 -2515,2524 -4047,5410 -4581,8602 86,-4 172,-7 258,-7 2710,0 4907,2197 4907,4907 0,2173 -1414,4015 -3371,4660 2905,5113 8895,10277 17554,15027 6495,3563 14192,6665 22256,8971l40 12 401 593 -298 -84c-11354,-3215 -21831,-7950 -29502,-13332 -5150,-3613 -8817,-7352 -10898,-11063 -351,79 -714,122 -1089,122 -2709,0 -4906,-2196 -4906,-4906 0,-2463 1815,-4502 4180,-4853 530,-3334 2111,-6342 4728,-8968 4284,-4300 11280,-7578 20794,-9746 1760,-401 3677,-773 5698,-1106z"/>
   <path class="fil0" d="M126356 51645c7,-3 14,-7 22,-9 -1,10 -1,20 -1,30 -7,-7 -14,-14 -21,-21zm24204 59105c-64,-52 -129,-101 -195,-149 -164,-13 -330,-82 -478,-237 -64,-66 -130,-129 -196,-193 -1823,-992 -4204,-1074 -6188,-1084 -626,-3 -954,-664 -684,-1193 96,-190 229,-416 368,-661 -50,-234 6,-492 208,-707 130,-138 247,-281 351,-426 195,-518 274,-1038 50,-1468 -238,-240 -474,-485 -708,-733 -1009,-644 -2345,-286 -3451,178 -729,305 -1129,-625 -895,-1165 1571,-3616 -1757,-5812 -5052,-5752 -281,5 -530,-168 -675,-402 -112,19 -221,42 -322,72 -853,254 -1421,-1040 -611,-1449 504,-254 1031,-684 1491,-1205 -47,-134 -66,-282 -44,-435 148,-1017 257,-2209 -621,-2929 -790,-647 -1778,-1065 -2638,-1611 -26,-16 -49,-37 -73,-56 -185,-37 -343,-153 -455,-309 -245,-181 -385,-492 -289,-832 287,-1014 792,-2345 496,-3410 -313,-1127 -1486,-1430 -2509,-1654 -174,-38 -310,-134 -406,-260 -467,-334 -389,-1184 255,-1419 98,-36 192,-75 283,-118 513,-502 1029,-1035 1338,-1669 226,-461 323,-945 359,-1439 -109,-395 -216,-792 -320,-1191 -471,-858 -1372,-1474 -2657,-1424 -829,33 -1026,-1066 -400,-1477 536,-352 916,-833 1169,-1380 -5,-687 -58,-1376 -223,-2044 -406,-1636 -1220,-2952 -2605,-3845 -352,-28 -706,-113 -1059,-269 -692,-308 -376,-1239 190,-1449 498,-184 979,-251 1436,-223 711,-284 1164,-801 800,-1744 -381,-986 -1250,-1860 -2236,-2241 -627,-242 -812,-1064 -190,-1449 2662,-1646 2540,-4662 1334,-7139 -311,-200 -643,-362 -993,-471 -837,-259 -659,-1373 37,-1533 31,-158 103,-307 217,-395 914,-714 2142,-1266 2175,-2577 39,-1545 -354,-3130 -1713,-4029 -699,-462 -369,-1384 401,-1477 2450,-294 2874,-1958 2307,-3602 -522,-855 -1198,-1576 -1802,-1865 -433,-208 -483,-786 -241,-1150 -49,-377 206,-795 581,-903 2226,-640 4550,-2499 2848,-4874 -202,-283 -114,-732 124,-961 1435,-1380 3291,-5921 764,-7059 -583,-263 -456,-1127 30,-1397 90,-167 239,-301 462,-353 647,-153 1184,-117 1624,55 2823,-846 6038,-3879 5489,-6545 -604,-185 -1184,-583 -1699,-1253 -365,-475 50,-992 504,-1150 103,-384 536,-685 995,-619 1604,233 3648,-264 4313,-1555 164,-510 230,-1019 157,-1477 -37,-167 -89,-341 -161,-522 -5,-11 -6,-22 -10,-33 -56,-116 -125,-226 -207,-328 -62,-62 -124,-125 -183,-195 -664,-770 360,-1816 1121,-1120 67,61 130,125 191,189 1297,1129 3305,-514 3287,-2045 -6,-493 514,-931 1003,-764 819,280 1745,441 2408,127 136,-101 274,-199 411,-297 206,-218 358,-522 433,-937 131,-724 958,-703 1344,-261 432,-272 868,-534 1308,-784l0 110750 -1473 0z"/>
   <path class="fil1" d="M146220 92744c0,-500 406,-906 906,-906 500,0 906,406 906,906 0,500 -406,906 -906,906 -500,0 -906,-406 -906,-906z"/>
   <path class="fil1" d="M133690 72161c0,-500 405,-905 906,-905 500,0 905,405 905,905 0,501 -405,906 -905,906 -501,0 -906,-405 -906,-906z"/>
   <path class="fil1" d="M144333 66551c0,-501 406,-906 906,-906 500,0 906,405 906,906 0,500 -406,905 -906,905 -500,0 -906,-405 -906,-905z"/>
   <path class="fil1" d="M131878 45490c0,-500 406,-906 906,-906 500,0 906,406 906,906 0,500 -406,906 -906,906 -500,0 -906,-406 -906,-906z"/>
   <path class="fil1" d="M147126 45490c0,-500 406,-906 906,-906 500,0 906,406 906,906 0,500 -406,906 -906,906 -500,0 -906,-406 -906,-906z"/>
   <path class="fil1" d="M134596 57417c0,-501 405,-906 905,-906 501,0 906,405 906,906 0,500 -405,906 -906,906 -500,0 -905,-406 -905,-906z"/>
   <path class="fil1" d="M146220 14239c0,-500 406,-906 906,-906 500,0 906,406 906,906 0,500 -406,906 -906,906 -500,0 -906,-406 -906,-906z"/>
   <path class="fil1" d="M144107 97122c0,-312 253,-566 566,-566 313,0 566,254 566,566 0,313 -253,567 -566,567 -313,0 -566,-254 -566,-567z"/>
   <path class="fil1" d="M135501 80385c0,-313 254,-566 567,-566 312,0 566,253 566,566 0,312 -254,566 -566,566 -313,0 -567,-254 -567,-566z"/>
   <path class="fil1" d="M144107 57417c0,-313 253,-566 566,-566 313,0 566,253 566,566 0,312 -253,566 -566,566 -313,0 -566,-254 -566,-566z"/>
   <path class="fil1" d="M144673 81701c0,-313 253,-566 566,-566 313,0 566,253 566,566 0,313 -253,566 -566,566 -313,0 -566,-253 -566,-566z"/>
   <path class="fil1" d="M134935 38786c0,-313 254,-566 566,-566 313,0 567,253 567,566 0,313 -254,566 -567,566 -312,0 -566,-253 -566,-566z"/>
   <path class="fil1" d="M147466 32658c0,-313 253,-566 566,-566 313,0 566,253 566,566 0,312 -253,566 -566,566 -313,0 -566,-254 -566,-566z"/>
   <path class="fil1" d="M140219 27826c0,-312 254,-566 566,-566 313,0 566,254 566,566 0,313 -253,567 -566,567 -312,0 -566,-254 -566,-567z"/>
   <path class="fil1" d="M142536 17712c0,-313 254,-567 566,-567 313,0 567,254 567,567 0,312 -254,566 -567,566 -312,0 -566,-254 -566,-566z"/>
  </g>
 </g>
</svg>
