<?xml version="1.0" encoding="UTF-8"?>
<!DOCTYPE svg PUBLIC "-//W3C//DTD SVG 1.1//EN" "http://www.w3.org/Graphics/SVG/1.1/DTD/svg11.dtd">
<!-- Creator: CorelDRAW X7 -->
<svg xmlns="http://www.w3.org/2000/svg" xml:space="preserve" width="11.0055in" height="0.924016in" version="1.1" style="shape-rendering:geometricPrecision; text-rendering:geometricPrecision; image-rendering:optimizeQuality; fill-rule:evenodd; clip-rule:evenodd"
viewBox="0 0 110055 9240"
 xmlns:xlink="http://www.w3.org/1999/xlink">
 <defs>
  <style type="text/css">
   <![CDATA[
    .fil1 {fill:white}
    .fil0 {fill:#DFC495;fill-rule:nonzero}
    .fil2 {fill:#E6D2AE;fill-rule:nonzero}
   ]]>
  </style>
 </defs>
 <g id="Layer_x0020_1">
  <metadata id="CorelCorpID_0Corel-Layer"/>
  <g id="_2196527347616">
   <path class="fil0" d="M108092 9240l-106129 0c-540,0 -1031,-221 -1386,-576 -356,-356 -577,-847 -577,-1387l0 -5314c0,-540 221,-1031 577,-1387 355,-355 846,-576 1386,-576l106129 0c540,0 1031,221 1386,576 356,356 577,847 577,1387l0 5314c0,540 -221,1031 -577,1387 -355,355 -846,576 -1386,576zm-106129 -535l106129 0c392,0 749,-161 1008,-419 259,-259 420,-616 420,-1009l0 -5314c0,-393 -161,-749 -420,-1008 -259,-259 -616,-420 -1008,-420l-106129 0c-392,0 -749,161 -1008,420 -259,259 -420,615 -420,1008l0 5314c0,393 161,750 420,1009 259,258 616,419 1008,419z"/>
   <path class="fil1" d="M109520 7277l0 -5314c0,-393 -161,-749 -420,-1008 -259,-259 -616,-420 -1008,-420l-106129 0c-392,0 -749,161 -1008,420 -259,259 -420,615 -420,1008l0 5314c0,393 161,750 420,1009 259,258 616,419 1008,419l106129 0c392,0 749,-161 1008,-419 259,-259 420,-616 420,-1009z"/>
   <path class="fil2" d="M85689 4865c-69,0 -133,16 -192,48 -58,32 -108,75 -150,127 -42,53 -75,114 -98,183 -23,69 -34,142 -34,220 0,74 12,139 36,195 25,54 59,99 102,134 44,34 94,59 151,74 56,14 117,22 181,22 58,0 116,-6 173,-18 57,-12 107,-35 152,-66 45,-32 81,-74 108,-126 27,-51 41,-117 41,-197 0,-92 -13,-174 -39,-246 -25,-72 -60,-134 -104,-187 -43,-53 -93,-93 -150,-121 -57,-28 -116,-42 -177,-42zm-788 613c0,-112 19,-224 55,-336 35,-113 89,-215 158,-307 70,-91 154,-165 252,-222 99,-57 210,-86 335,-86 109,0 209,22 302,65 93,42 175,105 246,187 71,81 127,181 167,297 40,117 60,251 60,402 0,92 -14,181 -43,268 -29,87 -77,164 -142,233 -65,68 -149,124 -250,167 -102,42 -224,64 -365,64 -116,0 -222,-15 -316,-44 -94,-29 -175,-74 -244,-135 -69,-61 -121,-137 -158,-229 -38,-92 -57,-200 -57,-324zm2415 -2263l0 2975 -342 0 0 -2975 342 0zm1587 2975c-93,0 -169,-21 -230,-62 -61,-42 -106,-90 -136,-146 0,199 -12,368 -36,506 -24,137 -68,249 -135,334 -67,84 -158,145 -275,182 -117,38 -268,56 -456,56l0 -345c136,0 242,-15 319,-44 77,-29 134,-77 172,-142 38,-64 60,-148 67,-250 7,-102 10,-224 10,-368l0 -1117 338 0 0 592c0,141 26,253 77,335 51,82 147,123 285,123 111,0 166,55 166,166 0,70 -13,117 -39,142 -26,25 -69,38 -127,38zm-2 0c-111,0 -167,-56 -167,-167 0,-69 13,-117 40,-142 26,-25 68,-37 127,-37l616 0c112,0 167,55 167,166 0,70 -13,117 -40,142 -26,25 -68,38 -127,38l-616 0zm3180 0c-106,0 -198,-21 -276,-62 -78,-42 -140,-113 -188,-213l0 -8c-53,106 -130,188 -231,248 -101,60 -228,89 -381,89 -133,0 -266,-22 -398,-67 -133,-44 -269,-119 -410,-226 -37,56 -73,100 -111,132 -37,32 -77,55 -119,71 -42,15 -85,25 -129,29 -44,5 -91,7 -141,7l-180 0c-111,0 -166,-56 -166,-167 0,-69 13,-117 39,-142 27,-25 69,-37 127,-37l171 0c34,0 69,-4 105,-13 36,-7 72,-25 108,-53 36,-28 71,-67 106,-115 34,-49 67,-115 99,-198 63,-177 130,-321 201,-431 70,-110 142,-194 217,-254 73,-60 149,-99 225,-120 77,-19 152,-29 227,-29 103,0 200,20 290,60 90,40 168,97 233,171 65,74 116,162 154,262 37,102 55,215 55,341 0,19 0,38 -2,57 -1,18 -2,35 -2,51 28,90 68,157 122,203 53,45 138,68 255,68 111,0 166,55 165,166 0,70 -13,117 -39,142 -26,25 -68,38 -126,38zm-718 -737c0,-61 -9,-121 -27,-180 -17,-59 -44,-110 -79,-155 -35,-44 -78,-79 -127,-105 -50,-27 -108,-40 -174,-40 -117,0 -224,51 -322,155 -97,103 -189,283 -274,541 103,66 205,120 306,160 101,41 204,61 310,61 117,0 210,-33 281,-99 70,-67 106,-179 106,-338zm716 737c-112,0 -167,-56 -167,-167 0,-69 13,-117 39,-142 27,-25 69,-37 128,-37l663 0c-27,-40 -54,-95 -79,-167 -26,-72 -39,-161 -39,-267 0,-143 34,-279 100,-406 68,-126 170,-215 309,-265 -56,0 -111,1 -167,2 -56,1 -112,4 -171,6l0 -311c302,-16 574,-3 815,42 241,44 444,123 608,239 165,115 291,269 379,462 87,194 131,429 131,705l0 306 -2549 0zm1170 -346c58,0 107,-15 146,-44 39,-29 70,-65 93,-108 22,-43 37,-90 45,-141 8,-52 12,-100 12,-145 0,-61 -5,-120 -16,-177 -11,-57 -29,-107 -54,-153 -25,-44 -57,-79 -96,-103 -40,-24 -87,-37 -143,-37 -98,0 -173,45 -227,134 -53,88 -80,204 -80,345 0,50 4,100 14,150 10,50 26,95 50,135 24,40 54,74 92,100 37,26 84,41 143,44l21 0zm1029 0c0,-297 -61,-527 -181,-688 -121,-161 -285,-274 -493,-338 48,37 86,80 116,129 30,48 55,98 74,149 21,51 34,102 40,153 7,52 10,100 10,145 0,106 -9,196 -28,269 -19,73 -42,134 -67,181l529 0zm2503 -979c-70,0 -134,16 -192,48 -58,32 -108,75 -150,127 -43,53 -75,114 -98,183 -23,69 -35,142 -35,220 0,74 13,139 37,195 24,54 58,99 101,134 44,34 94,59 151,74 57,14 117,22 181,22 59,0 116,-6 173,-18 57,-12 108,-35 153,-66 44,-32 81,-74 108,-126 27,-51 41,-117 41,-197 0,-92 -14,-174 -39,-246 -26,-72 -61,-134 -104,-187 -43,-53 -93,-93 -150,-121 -57,-28 -116,-42 -177,-42zm-788 613c0,-112 18,-224 54,-336 36,-113 89,-215 159,-307 70,-91 154,-165 252,-222 98,-57 210,-86 334,-86 109,0 210,22 302,65 93,42 175,105 247,187 71,81 127,181 167,297 40,117 60,251 60,402 0,92 -15,181 -44,268 -29,87 -76,164 -141,233 -66,68 -149,124 -250,167 -102,42 -224,64 -365,64 -117,0 -222,-15 -316,-44 -94,-29 -176,-74 -244,-135 -69,-61 -122,-137 -159,-229 -37,-92 -56,-200 -56,-324zm2374 -684l338 0 0 1162c0,206 -12,379 -36,520 -24,140 -68,253 -135,339 -67,86 -159,149 -277,187 -118,39 -270,58 -458,58l0 -345c136,0 242,-15 319,-44 76,-29 134,-77 172,-142 38,-64 60,-148 67,-250 7,-102 10,-224 10,-368l0 -1117zm1791 1216c0,70 -14,117 -40,142 -26,25 -69,38 -127,38l-108 0c-90,0 -171,-9 -244,-28 -74,-18 -136,-49 -188,-93 -51,-45 -91,-104 -120,-177 -30,-75 -44,-167 -44,-278l0 -2399 341 0 0 2307c0,117 19,200 55,248 37,50 118,74 243,74l65 0c111,0 167,55 167,166zm2396 180c-105,0 -197,-21 -276,-62 -77,-42 -140,-113 -188,-213l0 -8c-53,106 -130,188 -230,248 -102,60 -229,89 -382,89 -133,0 -266,-22 -398,-67 -132,-44 -268,-119 -409,-226 -37,56 -74,100 -111,132 -38,32 -77,55 -120,71 -41,15 -85,25 -129,29 -44,5 -91,7 -141,7l-179 0c-111,0 -167,-56 -167,-167 0,-69 13,-117 40,-142 26,-25 69,-37 127,-37l171 0c34,0 68,-4 105,-13 36,-7 72,-25 107,-53 36,-28 72,-67 106,-115 35,-49 68,-115 99,-198 63,-177 131,-321 201,-431 71,-110 143,-194 217,-254 74,-60 149,-99 226,-120 76,-19 152,-29 227,-29 103,0 199,20 290,60 90,40 168,97 233,171 64,74 116,162 153,262 37,102 56,215 56,341 0,19 -1,38 -2,57 -2,18 -2,35 -2,51 27,90 68,157 121,203 54,45 138,68 255,68 112,0 167,55 165,166 0,70 -13,117 -39,142 -25,25 -68,38 -126,38zm-718 -737c0,-61 -8,-121 -26,-180 -18,-59 -44,-110 -80,-155 -35,-44 -77,-79 -127,-105 -50,-27 -107,-40 -174,-40 -117,0 -224,51 -321,155 -98,103 -189,283 -275,541 103,66 205,120 307,160 100,41 204,61 310,61 117,0 210,-33 280,-99 71,-67 106,-179 106,-338zm863 391c92,0 170,-3 232,-9 63,-5 114,-18 152,-39 38,-21 65,-51 81,-92 16,-39 25,-94 25,-164l0 -750 341 0 0 596c0,69 5,132 14,189 9,57 28,105 59,144 30,38 73,69 129,91 55,23 132,34 228,34 61,0 114,-3 161,-9 46,-5 84,-18 114,-39 31,-21 54,-51 68,-92 16,-39 23,-94 23,-164l0 -746 342 0 0 592c0,69 5,132 15,189 11,57 29,105 55,144 26,38 63,69 110,91 47,23 107,34 180,34l350 0 0 -1258 340 0 0 1604 -690 0c-109,0 -195,-26 -261,-77 -66,-53 -110,-116 -132,-194 -50,114 -128,187 -234,221 -105,33 -233,50 -382,50 -98,0 -178,-8 -240,-24 -62,-15 -115,-36 -156,-62 -41,-25 -74,-55 -97,-89 -24,-34 -44,-68 -61,-100 -24,58 -55,104 -93,139 -38,35 -87,63 -146,84 -60,21 -134,35 -221,41 -88,7 -193,11 -315,11l-138 0c-111,0 -167,-56 -167,-167 0,-69 14,-117 40,-142 26,-25 69,-37 127,-37l147 0zm1278 -1959c0,-61 22,-113 65,-156 43,-43 95,-64 157,-64 61,0 113,21 155,64 43,43 65,95 65,156 0,61 -22,113 -65,156 -42,44 -94,65 -155,65 -62,0 -114,-21 -157,-65 -43,-43 -65,-95 -65,-156zm541 0c0,-61 22,-113 65,-156 44,-43 96,-64 157,-64 61,0 113,21 156,64 42,43 64,95 64,156 0,61 -22,113 -64,156 -43,44 -95,65 -156,65 -61,0 -113,-21 -157,-65 -43,-43 -65,-95 -65,-156zm-263 -499c0,-61 23,-113 66,-157 43,-43 96,-64 157,-64 61,0 112,21 155,64 43,44 64,96 64,157 0,61 -21,113 -64,156 -43,42 -94,64 -155,64 -61,0 -114,-22 -157,-64 -43,-43 -66,-95 -66,-156z"/>
  </g>
 </g>
</svg>
