<?xml version="1.0" encoding="UTF-8"?>
<!DOCTYPE svg PUBLIC "-//W3C//DTD SVG 1.1//EN" "http://www.w3.org/Graphics/SVG/1.1/DTD/svg11.dtd">
<!-- Creator: CorelDRAW X7 -->
<svg xmlns="http://www.w3.org/2000/svg" xml:space="preserve" width="8.08843in" height="7.21425in" version="1.1" style="shape-rendering:geometricPrecision; text-rendering:geometricPrecision; image-rendering:optimizeQuality; fill-rule:evenodd; clip-rule:evenodd"
viewBox="0 0 80884 72143"
 xmlns:xlink="http://www.w3.org/1999/xlink">
 <defs>
  <style type="text/css">
   <![CDATA[
    .fil0 {fill:#F7F2E6}
   ]]>
  </style>
 </defs>
 <g id="Layer_x0020_1">
  <metadata id="CorelCorpID_0Corel-Layer"/>
  <path class="fil0" d="M80884 14929c0,-2264 -1841,-4105 -4104,-4105l-35028 0 0 -2829c1624,-548 2796,-2084 2796,-3889 0,-2264 -1842,-4106 -4106,-4106 -2264,0 -4105,1842 -4105,4106 0,1805 1173,3341 2795,3889l0 2829 -35026 0c-2264,0 -4106,1841 -4106,4105 0,1805 1172,3341 2795,3890l0 49218c0,2264 1842,4106 4106,4106l67083 0c2264,0 4106,-1842 4106,-4106l0 -49218c1622,-549 2794,-2085 2794,-3890zm-22744 25627c-512,-512 -1341,-512 -1853,0l-1869 1869 -1869 -1869c-511,-512 -1341,-512 -1853,0 -512,512 -512,1342 0,1853l1869 1869 -1869 1869c-512,512 -512,1341 0,1853 256,256 591,384 927,384 335,0 671,-128 926,-384l1869 -1869 1869 1869c256,256 591,384 926,384 335,0 671,-128 927,-384 511,-512 511,-1342 0,-1853l-1869 -1869 1869 -1869c511,-511 511,-1341 0,-1853zm-13976 13976c-512,-512 -1341,-512 -1853,0l-1869 1869 -1869 -1869c-511,-512 -1341,-512 -1853,0 -511,512 -511,1342 0,1853l1869 1869 -1869 1869c-511,511 -511,1341 0,1852 256,256 592,384 927,384 335,0 671,-128 926,-384l1869 -1869 1869 1869c256,256 591,384 927,384 335,0 670,-128 926,-384 512,-511 512,-1342 0,-1852l-1869 -1869 1869 -1869c512,-511 512,-1341 0,-1853zm13976 0c-512,-512 -1341,-512 -1853,0l-1869 1869 -1869 -1869c-511,-512 -1341,-512 -1853,0 -512,512 -512,1342 0,1853l1869 1869 -1869 1869c-512,511 -512,1341 0,1852 256,256 591,384 927,384 335,0 671,-128 926,-384l1869 -1869 1869 1869c256,256 591,384 926,384 335,0 671,-128 927,-384 511,-511 511,-1342 0,-1852l-1869 -1869 1869 -1869c511,-511 511,-1341 0,-1853zm-35395 -6532c256,256 591,384 926,384 335,0 672,-128 927,-384l1868 -1869 1869 1869c256,256 592,384 927,384 335,0 670,-128 926,-384 512,-512 512,-1342 0,-1853l-1869 -1869 1869 -1869c512,-512 512,-1341 0,-1853 -512,-512 -1341,-512 -1853,0l-1869 1869 -1868 -1869c-511,-512 -1341,-512 -1853,0 -512,512 -512,1342 0,1853l1869 1869 -1869 1869c-512,511 -512,1341 0,1853zm13975 -13976c256,256 592,384 927,384 335,0 671,-128 926,-384l1869 -1869 1869 1869c256,256 591,384 927,384 335,0 670,-128 926,-384 512,-512 512,-1342 0,-1853l-1869 -1869 1869 -1869c512,-512 512,-1341 0,-1853 -512,-511 -1341,-511 -1853,0l-1869 1869 -1869 -1869c-511,-511 -1341,-511 -1853,0 -511,512 -511,1342 0,1853l1869 1869 -1869 1869c-511,511 -511,1341 0,1853zm-13975 0c256,256 591,384 926,384 335,0 672,-128 927,-384l1868 -1869 1869 1869c256,256 592,384 927,384 335,0 670,-128 926,-384 512,-512 512,-1342 0,-1853l-1869 -1869 1869 -1869c512,-512 512,-1341 0,-1853 -512,-511 -1341,-511 -1853,0l-1869 1869 -1868 -1869c-511,-511 -1341,-511 -1853,0 -512,512 -512,1342 0,1853l1869 1869 -1869 1869c-512,511 -512,1341 0,1853zm7443 22361l25715 -25715 0 3825c0,723 587,1310 1310,1310 724,0 1310,-587 1310,-1310l1 -6988c0,-723 -587,-1310 -1311,-1310l-6988 0c-723,0 -1310,587 -1310,1310 0,723 587,1310 1310,1310l3825 0 -25715 25715c-15,15 -28,32 -41,47 -551,-276 -1172,-431 -1828,-431 -2263,0 -4105,1842 -4105,4106 0,2264 1842,4105 4105,4105 2264,0 4106,-1841 4106,-4105 0,-656 -155,-1276 -430,-1827 16,-14 32,-27 46,-42zm-3722 3354c-818,0 -1485,-666 -1485,-1485 0,-819 667,-1485 1485,-1485 819,0 1486,666 1486,1485 0,819 -667,1485 -1486,1485zm13976 -57119c819,0 1485,667 1485,1486 0,818 -666,1485 -1485,1485 -819,0 -1485,-667 -1485,-1485 0,-819 666,-1486 1485,-1486zm33542 66902l-67083 0c-819,0 -1485,-666 -1485,-1485l0 -49003 70054 0 0 49003c0,819 -667,1485 -1486,1485zm2796 -53109l-72674 0c-819,0 -1486,-666 -1486,-1484 0,-819 667,-1485 1486,-1485l72674 0c818,0 1484,666 1484,1485 0,818 -666,1484 -1484,1484z"/>
 </g>
</svg>
