<?xml version="1.0" encoding="UTF-8"?>
<!DOCTYPE svg PUBLIC "-//W3C//DTD SVG 1.1//EN" "http://www.w3.org/Graphics/SVG/1.1/DTD/svg11.dtd">
<!-- Creator: CorelDRAW X7 -->
<svg xmlns="http://www.w3.org/2000/svg" xml:space="preserve" width="3.03673in" height="3.53961in" version="1.1" style="shape-rendering:geometricPrecision; text-rendering:geometricPrecision; image-rendering:optimizeQuality; fill-rule:evenodd; clip-rule:evenodd"
viewBox="0 0 30367 35396"
 xmlns:xlink="http://www.w3.org/1999/xlink">
 <defs>
  <style type="text/css">
   <![CDATA[
    .fil2 {fill:#D7B77D}
    .fil1 {fill:#EFE2C9}
    .fil0 {fill:white}
   ]]>
  </style>
 </defs>
 <g id="Layer_x0020_1">
  <metadata id="CorelCorpID_0Corel-Layer"/>
  <g id="_2196361997632">
   <g>
    <path class="fil0" d="M3016 0c-1665,0 -3016,1351 -3016,3016l0 29364c0,1666 1351,3016 3016,3016l24336 0c1664,0 3015,-1350 3015,-3016l0 -24449 -7930 -7931 -19421 0z"/>
    <path class="fil1" d="M22437 4914c0,1666 1350,3017 3016,3017l4914 0 -7930 -7931 0 4914z"/>
   </g>
   <path class="fil2" d="M5101 13016l-1 9364 1020 0 0 -3824 1971 0c1066,0 1808,-255 2225,-788 440,-534 649,-1229 649,-2063 0,-626 -139,-1183 -394,-1623 -255,-440 -626,-719 -1066,-881 -325,-139 -812,-185 -1507,-185l-2897 0zm14974 0l0 9364 1019 0 0 -4242 3617 0 0 -1112 -3617 0 0 -2921 4173 0 0 -1089 -5192 0zm-7835 0l0 9364 2781 0c788,0 1414,-162 1901,-463 487,-302 904,-835 1205,-1577 302,-741 464,-1622 464,-2688 0,-835 -93,-1553 -278,-2156 -186,-603 -441,-1089 -765,-1483 -325,-394 -719,-673 -1159,-835 -348,-116 -834,-162 -1483,-162l-2666 0zm2666 8275l-1646 0 0 -7186 1622 0c580,0 1020,70 1275,186 417,185 742,556 997,1089 255,556 394,1298 394,2249 0,904 -116,1645 -371,2294 -185,464 -440,812 -788,1043 -325,209 -834,325 -1483,325zm-6792 -3825l-1993 0 0 -3361 1970 0c533,0 904,47 1089,163 209,92 371,278 533,533 139,278 209,579 209,950 0,580 -139,997 -440,1298 -279,278 -742,417 -1368,417z"/>
  </g>
 </g>
</svg>
