<?xml version="1.0" encoding="UTF-8"?>
<!DOCTYPE svg PUBLIC "-//W3C//DTD SVG 1.1//EN" "http://www.w3.org/Graphics/SVG/1.1/DTD/svg11.dtd">
<!-- Creator: CorelDRAW X7 -->
<svg xmlns="http://www.w3.org/2000/svg" xml:space="preserve" width="10.6299in" height="6.45201in" version="1.1" style="shape-rendering:geometricPrecision; text-rendering:geometricPrecision; image-rendering:optimizeQuality; fill-rule:evenodd; clip-rule:evenodd"
viewBox="0 0 106299 64520"
 xmlns:xlink="http://www.w3.org/1999/xlink">
 <defs>
  <style type="text/css">
   <![CDATA[
    .fil8 {fill:#75613D}
    .fil3 {fill:#9D8457}
    .fil5 {fill:#BB9B61}
    .fil4 {fill:#D2AE6D}
    .fil2 {fill:#DCC08D}
    .fil25 {fill:#E6D2AE}
    .fil24 {fill:#ECDEC4}
    .fil0 {fill:#EDDFC4}
    .fil1 {fill:#F6EFE2}
    .fil9 {fill:#FCF8F2}
    .fil16 {fill:#A38755;fill-rule:nonzero}
    .fil7 {fill:#BB9B61;fill-rule:nonzero}
    .fil15 {fill:#D2AE6D;fill-rule:nonzero}
    .fil6 {fill:#D7B77D;fill-rule:nonzero}
    .fil18 {fill:#D8D1BD;fill-rule:nonzero}
    .fil12 {fill:#D9BC89;fill-rule:nonzero}
    .fil14 {fill:#DCC08D;fill-rule:nonzero}
    .fil13 {fill:#E3CCA2;fill-rule:nonzero}
    .fil22 {fill:#E6D2AE;fill-rule:nonzero}
    .fil11 {fill:#EDDFC4;fill-rule:nonzero}
    .fil17 {fill:#EED5AB;fill-rule:nonzero}
    .fil20 {fill:#EFE2CA;fill-rule:nonzero}
    .fil21 {fill:#F8F2E8;fill-rule:nonzero}
    .fil23 {fill:#FAF8F2;fill-rule:nonzero}
    .fil10 {fill:#FCF8F2;fill-rule:nonzero}
    .fil19 {fill:white;fill-rule:nonzero}
   ]]>
  </style>
 </defs>
 <g id="Layer_x0020_1">
  <metadata id="CorelCorpID_0Corel-Layer"/>
  <g id="_1759721333024">
   <g>
    <g>
     <path class="fil0" d="M5561 45302c-2184,-896 -3980,-1254 -5561,-1146l0 -18086c2584,-4962 9685,-5048 16415,741 1553,720 3260,1572 5142,2565 9542,5035 20122,4685 27608,-920 609,-456 1191,-941 1746,-1454 5453,-5043 8243,-12782 7899,-22066 -65,-1774 -59,-3418 19,-4936l47144 0c3338,27352 -19718,16989 -33556,15883 -6002,-480 -9584,3102 -10486,14451 -1152,14478 -7638,28277 -24012,27756 -11090,-354 -21737,-8428 -32358,-12788z"/>
     <path class="fil1" d="M16560 42930c1657,1122 3190,2393 4681,3647 10097,8499 21351,9954 31374,154 4400,-4303 7087,-10643 7703,-18389 667,-8389 2607,-13641 5930,-16055 1064,-773 2250,-1231 3528,-1447 8992,-1520 22197,13496 33007,4899 -3013,3446 -7459,5412 -12814,5234 -3239,-108 -5951,-487 -8429,-642 -17209,-1076 -17576,10613 -15899,23436 1433,10959 -4378,17234 -9667,19365 -19110,7700 -39593,-19264 -55974,-16655l0 -5698c4474,-2415 10074,-2242 16560,2151z"/>
    </g>
    <path class="fil1" d="M19845 22585c-573,1707 -922,3516 -1014,5391 -5911,-2947 -12842,-7815 -18831,-1907l0 -26069 9914 0 48915 0c1275,3556 2872,13491 -1618,19416 -7617,-13079 -30711,-20261 -37366,3169z"/>
    <g>
     <path class="fil2" d="M15561 27709c0,11902 9770,21550 21822,21550 12052,0 21823,-9648 21823,-21550 0,-11901 -9771,-21549 -21823,-21549 -12052,0 -21822,9648 -21822,21549z"/>
     <path class="fil3" d="M18913 26828c0,10201 8269,18470 18470,18470 10201,0 18471,-8269 18471,-18470 0,-10201 -8270,-18471 -18471,-18471 -10201,0 -18470,8270 -18470,18471z"/>
     <g>
      <path class="fil4" d="M40086 37011c-6413,1719 -13005,-2087 -14724,-8500 -1718,-6414 2088,-13006 8501,-14724 6413,-1718 13005,2087 14724,8501 1718,6413 -2088,13005 -8501,14723z"/>
      <path class="fil5" d="M28002 24543c1604,5988 8736,9279 15929,7352 1482,-397 2851,-985 4077,-1720 -1410,3250 -4235,5848 -7922,6836 -6413,1719 -13005,-2087 -14724,-8500 -1322,-4937 628,-9979 4521,-12823 -1919,2626 -2701,5797 -1881,8855z"/>
      <path class="fil6" d="M44331 32637l29 106c21,81 -31,178 -117,197 -86,19 -176,-26 -199,-112l-29 -106c-21,-81 31,-178 117,-197 86,-19 176,25 199,112z"/>
      <path class="fil6" d="M42519 34624c-70,19 -98,-87 -28,-105 70,-19 98,86 28,105z"/>
      <path class="fil6" d="M41518 33808l14 53c12,42 -16,89 -59,101 -45,6 -91,-16 -102,-58l-14 -52c-11,-42 16,-89 59,-101 45,-6 91,15 102,57z"/>
      <path class="fil5" d="M41843 29988c740,106 1406,-225 1588,-755 27,111 36,225 21,341 -81,631 -811,1049 -1631,932 -819,-117 -1418,-724 -1337,-1356 8,-61 23,-120 43,-177 124,497 646,920 1316,1015z"/>
      <path class="fil7" d="M38360 17188l-54 15c-70,18 -97,-82 -27,-101l54 -14c70,-19 97,81 27,100z"/>
      <path class="fil7" d="M32751 18742l-30 -112c-42,-154 -282,-89 -241,64l30 113c39,143 279,79 241,-65z"/>
      <path class="fil7" d="M33416 15137l-33 -123c-30,-112 -168,-207 -291,-163 -123,44 -203,164 -170,287l33 123c30,113 165,198 291,164 123,-44 203,-165 170,-288z"/>
      <path class="fil7" d="M44727 23573c-21,-12 -41,-23 -68,-39 -28,-15 0,-62 27,-47 28,16 48,27 69,39 33,19 6,66 -28,47z"/>
      <path class="fil7" d="M39174 21001l-54 14c-65,17 -92,-83 -27,-100l54 -15c70,-18 97,82 27,101z"/>
      <path class="fil7" d="M41329 22304l14 52c18,69 -89,98 -108,29l-14 -53c-18,-68 89,-97 108,-28z"/>
      <path class="fil7" d="M43878 20536c-70,19 -97,-81 -27,-100 65,-17 92,83 27,100z"/>
      <path class="fil7" d="M42950 23145c-102,28 -143,-125 -41,-153 103,-27 144,126 41,153z"/>
      <path class="fil7" d="M43969 23047c-103,28 -145,-130 -43,-158 103,-27 145,131 43,158z"/>
      <path class="fil7" d="M42527 21779c-103,28 -144,-125 -41,-152 97,-26 143,125 41,152z"/>
      <path class="fil7" d="M43077 19074c-102,27 -145,-131 -42,-158 102,-28 144,130 42,158z"/>
      <path class="fil7" d="M42046 24980c-102,27 -143,-125 -41,-153 102,-27 143,125 41,153z"/>
      <path class="fil7" d="M36053 16978c20,12 42,29 68,39 88,50 121,171 69,258 -58,83 -170,119 -264,71 -22,-17 -42,-29 -68,-39 -83,-51 -121,-171 -69,-258 58,-83 170,-119 264,-71z"/>
      <path class="fil7" d="M40312 21977c-102,28 -145,-130 -42,-158 102,-27 145,131 42,158z"/>
      <path class="fil7" d="M40071 21528c-97,26 -138,-127 -41,-153 102,-27 143,126 41,153z"/>
      <path class="fil7" d="M34393 29780c-103,27 -145,-131 -43,-158 97,-26 139,132 43,158z"/>
      <path class="fil7" d="M40645 22572c-103,27 -145,-131 -43,-158 103,-28 145,130 43,158z"/>
      <path class="fil7" d="M39814 22506c-103,28 -144,-125 -41,-152 102,-28 143,125 41,152z"/>
      <path class="fil7" d="M40330 21137c-146,39 -86,265 60,226 157,-42 97,-268 -60,-226z"/>
      <path class="fil7" d="M43288 21663c-220,59 -130,397 90,338 231,-62 140,-400 -90,-338z"/>
      <path class="fil7" d="M45174 24848c-157,43 -94,278 64,236 146,-39 83,-275 -64,-236z"/>
      <path class="fil7" d="M39475 23684c-220,59 -129,398 91,339 230,-62 140,-400 -91,-339z"/>
      <path class="fil7" d="M42991 20556c-293,78 -172,529 121,451 303,-82 183,-533 -121,-451z"/>
      <path class="fil7" d="M33283 19063c-70,18 -99,-87 -29,-106 65,-17 93,88 29,106z"/>
      <path class="fil7" d="M34981 20855l-54 15c-43,11 -91,-16 -102,-58 -6,-43 16,-89 59,-101l54 -14c43,-11 91,15 102,57 11,42 -17,90 -59,101z"/>
      <path class="fil7" d="M35014 19022c-102,28 -143,-125 -40,-153 102,-27 143,126 40,153z"/>
      <path class="fil7" d="M35808 18301c-102,28 -145,-130 -42,-158 102,-27 144,131 42,158z"/>
      <path class="fil7" d="M39301 18958c-102,27 -145,-131 -42,-158 97,-26 145,130 42,158z"/>
      <path class="fil7" d="M37115 19713c-97,26 -138,-127 -41,-153 102,-27 143,126 41,153z"/>
      <path class="fil7" d="M37085 18072c-103,27 -145,-131 -43,-158 103,-28 145,131 43,158z"/>
      <path class="fil7" d="M39264 18172c-103,27 -145,-131 -43,-158 103,-28 145,130 43,158z"/>
      <path class="fil5" d="M30263 21822c623,890 1649,1254 2412,905 -94,143 -211,269 -352,371 -773,559 -1959,214 -2649,-770 -689,-985 -622,-2237 151,-2796 75,-54 155,-97 237,-135 -420,638 -363,1621 201,2425z"/>
      <path class="fil7" d="M36147 29993l-115 31c-146,39 -86,265 61,226l115 -31c146,-39 96,-268 -61,-226z"/>
      <path class="fil7" d="M35407 18602c-231,62 -140,400 91,338 220,-59 129,-397 -91,-338z"/>
      <path class="fil7" d="M33566 22874c21,-49 52,-101 82,-154 78,-130 -131,-239 -209,-108 -20,49 -54,91 -84,143 -78,131 123,252 211,119z"/>
      <path class="fil7" d="M37680 22310c-157,43 -94,278 63,236 147,-39 84,-275 -63,-236z"/>
      <path class="fil7" d="M40664 24147l-33 -123c-22,-81 -130,-151 -222,-116 -94,25 -148,117 -123,209l33 123c21,82 120,154 211,119 95,-25 159,-119 134,-212z"/>
      <path class="fil7" d="M35699 26650c-377,101 -226,665 151,564 366,-99 215,-663 -151,-564z"/>
      <path class="fil7" d="M33382 24198c95,18 177,30 271,48 145,38 216,-201 63,-226 -95,-19 -179,-40 -271,-48 -156,-36 -218,190 -63,226z"/>
      <path class="fil7" d="M37675 20760c-147,39 -86,265 60,225 157,-42 97,-267 -60,-225z"/>
      <path class="fil5" d="M45237 28039c492,-119 829,-496 812,-878 45,64 79,134 98,211 106,422 -250,869 -796,1001 -545,131 -1073,-105 -1178,-526 -11,-41 -15,-82 -17,-123 201,284 635,422 1081,315z"/>
      <path class="fil7" d="M45501 21171c-377,101 -226,665 151,564 366,-98 215,-662 -151,-564z"/>
      <path class="fil6" d="M26562 26713c-204,55 -287,-254 -83,-309 203,-54 286,255 83,309z"/>
      <path class="fil6" d="M27808 25457c-271,72 -382,-340 -111,-412 271,-73 382,339 111,412z"/>
      <path class="fil6" d="M36738 35494c-551,147 -317,1021 234,873 577,-155 343,-1028 -234,-873z"/>
      <path class="fil6" d="M35895 32120l-115 31c-94,25 -156,129 -131,222 25,92 117,144 222,116l115 -31c94,-25 158,-119 133,-211 -35,-90 -130,-152 -224,-127z"/>
      <path class="fil7" d="M31221 18537c-65,17 -99,-87 -29,-106 70,-18 99,87 29,106z"/>
      <path class="fil6" d="M26843 28340c-230,62 -140,400 91,338 220,-59 129,-397 -91,-338z"/>
      <path class="fil6" d="M30152 31154c-135,36 -191,-170 -55,-206 136,-36 191,170 55,206z"/>
      <path class="fil6" d="M29369 31360c-65,17 -93,-88 -28,-106 70,-18 98,87 28,106z"/>
      <path class="fil6" d="M27471 30135c-96,26 -144,-131 -42,-158 102,-28 145,130 42,158z"/>
      <path class="fil6" d="M30470 30048c-147,39 -86,265 60,226 157,-42 97,-268 -60,-226z"/>
      <path class="fil7" d="M29688 23176l-30 -112c-41,-154 -282,-90 -241,64l30 113c39,143 279,78 241,-65z"/>
      <path class="fil7" d="M32571 30583c20,-50 52,-102 82,-154 77,-131 -132,-239 -209,-109 -20,50 -54,92 -85,144 -77,131 124,252 212,119z"/>
      <path class="fil7" d="M31048 20712c-103,27 -144,-125 -41,-153 102,-27 143,125 41,153z"/>
      <path class="fil7" d="M30587 21640c-83,23 -53,135 30,113 74,-20 44,-132 -30,-113z"/>
      <path class="fil7" d="M30940 25935c-31,52 -51,101 -82,154 -57,81 -27,193 63,235 83,55 198,25 241,-64 31,-53 64,-95 96,-146 43,-89 16,-191 -66,-246 -90,-42 -195,-14 -252,67z"/>
      <path class="fil7" d="M29990 27806c-871,233 -522,1536 349,1303 847,-227 498,-1530 -349,-1303z"/>
     </g>
     <g>
      <path class="fil8" d="M33859 35221c71,71 307,155 307,155l236 322c0,0 94,620 200,763 107,143 390,167 390,167 0,0 -425,1981 -390,2076 36,96 0,549 0,549 1,0 -413,1121 -413,1288 0,167 260,430 260,430 0,0 -378,1551 -354,1646 24,96 165,239 165,239 0,0 -100,236 -131,539l1361 0 281 -993c0,0 189,-119 236,-357 47,-239 236,-1146 236,-1146l354 -1026 378 -2028 377 2028 354 1026c0,0 189,907 236,1146 47,238 236,357 236,357l281 993 1362 0c-32,-303 -132,-539 -132,-539 0,0 141,-143 165,-239 24,-95 -354,-1646 -354,-1646 0,0 260,-263 260,-430 0,-167 -413,-1288 -413,-1288 0,0 -36,-453 0,-549 35,-95 -390,-2076 -390,-2076 0,0 283,-24 390,-167 106,-143 200,-763 200,-763l236 -322c0,0 236,-84 307,-155 71,-72 47,-215 47,-215 0,0 850,-692 850,-978 0,-287 -496,-1480 -496,-1480 0,0 0,-286 0,-405 0,-119 -684,-955 -684,-955l-165 -692 -620 -137 -175 -578 -175 0c99,-230 155,-485 155,-752 0,-1034 -829,-1873 -1853,-1873 -1023,0 -1852,839 -1852,1873 0,267 56,522 155,752l-175 0 -175 578 -620 137 -165 692c0,0 -684,836 -684,955 0,119 0,405 0,405 0,0 -496,1193 -496,1480 0,286 850,978 850,978 0,0 -24,143 47,215z"/>
      <path class="fil9" d="M36137 27358c-36,18 -71,38 -106,59 -34,20 -67,41 -99,64 -33,22 -64,45 -95,69 -30,24 -60,49 -89,75 -29,26 -57,53 -84,80 -27,28 -53,56 -79,85 -25,29 -50,59 -74,90 -24,31 -47,63 -68,95 -23,33 -44,67 -64,101 -20,35 -39,70 -58,106 -18,37 -35,74 -51,112 -17,39 -32,79 -46,119 -14,41 -27,83 -38,125 -12,44 -22,89 -31,134 -9,47 -16,94 -21,142 -6,50 -10,101 -11,153 -1,21 -1,41 -1,62 0,35 1,69 3,104 3,61 9,122 18,182 11,71 26,140 44,208 24,87 53,171 88,252 1,2 2,4 2,6l-160 0 -15 0 -35 114 -38 126 -38 125 -38 126 -26 87 -42 9 -134 30 -134 30 -135 30 -134 29 -41 9 -22 92 -31 133 -32 132 -31 132 -32 133 -17 70c0,0 -12,16 -34,43 -19,22 -44,53 -73,90 -22,28 -47,59 -73,92 -23,29 -47,59 -72,91 -23,30 -47,61 -71,93 -24,30 -48,62 -71,93 -24,31 -48,63 -70,94 -24,32 -47,64 -69,95 -24,35 -47,67 -66,98 -26,39 -47,74 -62,102 -15,29 -23,50 -23,64 0,21 0,47 0,76 0,51 0,110 0,164 0,84 0,155 0,164 0,1 0,1 0,1 0,0 -18,44 -47,116 -14,33 -30,73 -47,117 -15,36 -30,76 -47,118 -14,37 -30,77 -45,118 -15,39 -30,78 -45,119 -15,39 -30,79 -45,120 -14,40 -29,80 -43,120 -14,41 -28,82 -42,122 -14,42 -28,83 -41,123 -13,44 -26,86 -38,126 -13,47 -24,91 -34,130 -13,57 -21,106 -22,142 0,3 0,6 0,9 0,87 79,211 188,343 142,170 337,352 478,478 107,95 184,157 184,157 0,0 -2,9 -3,24 -3,39 -3,119 36,174 4,6 9,12 14,17 59,60 235,128 290,149 11,4 17,6 17,6l29 39 207 283c0,0 6,42 17,106 10,55 23,127 39,203 15,70 32,145 51,214 28,105 60,196 93,240 68,92 208,134 300,153 53,11 90,14 90,14 0,0 -5,23 -13,63 -8,33 -17,79 -29,135 -9,41 -18,86 -29,136 -8,42 -18,87 -28,135 -9,44 -18,89 -28,136 -9,44 -19,90 -28,136 -9,45 -18,90 -28,136 -9,45 -18,91 -27,136 -9,46 -19,92 -28,137 -9,46 -18,92 -26,137 -4,16 -7,32 -10,48 -6,30 -11,60 -17,90 -9,47 -18,93 -26,138 -9,48 -17,95 -25,138 -9,51 -17,98 -24,141 -2,12 -3,25 -5,36 0,0 0,1 0,1 -10,61 -16,110 -19,145 -2,27 -2,45 0,52 12,30 16,96 16,172 1,72 -2,154 -6,223 -4,88 -10,154 -10,154 0,0 -9,26 -25,70 -19,52 -47,131 -80,223 -25,69 -51,145 -79,224 -25,74 -51,149 -76,224 -26,77 -50,153 -72,223 -27,87 -49,165 -64,224 -10,45 -17,80 -17,100 0,38 14,80 34,124 38,80 102,164 152,223 42,50 74,83 74,83 0,0 -13,53 -34,141 -14,60 -33,137 -53,223 -17,70 -34,145 -53,224 -17,73 -34,148 -51,224 -18,75 -35,150 -51,223 -16,72 -31,141 -44,205 -2,7 -3,13 -4,19 -1,4 -2,8 -3,11 -3,15 -6,30 -9,45 -3,15 -6,30 -9,44 -3,15 -6,30 -9,44 -3,16 -5,31 -8,45 -2,12 -4,23 -6,35 -1,3 -2,6 -2,9 -3,16 -6,31 -8,45 -2,16 -5,31 -6,44 -3,18 -4,33 -5,45 0,9 0,16 1,20 2,8 5,16 8,24 5,12 11,24 17,36 2,3 4,6 5,8 9,15 19,30 29,45 11,15 23,30 34,44 13,17 26,32 38,45 20,22 34,37 34,37 0,0 -1,2 -3,7 -3,7 -8,20 -14,38 -1,2 -2,4 -2,6 -5,13 -10,28 -16,45 -4,13 -9,28 -14,44 -4,14 -9,29 -13,45 -4,14 -8,28 -12,44 -3,13 -7,26 -10,39 -1,2 -1,4 -1,5 -4,15 -7,29 -10,45 -4,14 -7,29 -10,44 -3,15 -5,29 -8,44 -1,8 -2,15 -4,23 0,0 0,1 0,2 0,1 0,2 -1,4 0,1 0,2 0,4 0,1 -1,2 -1,3 0,2 0,3 0,4 -1,2 -1,3 -1,4 0,0 0,1 0,1 0,1 -1,2 -1,3 0,1 0,3 0,4 0,1 -1,3 -1,4 0,1 0,2 0,4 -1,1 -1,2 -1,4 0,1 0,2 0,3 -1,2 -1,3 -1,4 0,2 0,3 -1,4 0,2 0,3 0,4 0,1 0,3 -1,4 0,1 0,2 0,3 0,0 0,1 0,1 0,1 0,1 0,2 0,1 -1,1 -1,2 0,1 0,2 0,4 0,1 0,2 -1,4 0,1 0,2 0,3 0,2 0,3 -1,4 0,2 0,3 0,4 0,1 0,3 0,4 -1,1 -1,3 -1,4 0,1 0,2 0,4 0,1 -1,2 -1,4 0,1 0,2 0,4 0,1 0,2 0,3l124 0 0 -3 0 -4 0 -4 0 -4 0 -4 0 -2c0,-1 0,-1 0,-2 0,-1 0,-2 0,-4 0,-1 0,-2 0,-4 0,-1 0,-2 0,-3 0,-2 1,-3 1,-4 0,-2 0,-3 0,-4 0,-1 0,-1 0,-2 0,-1 0,-1 0,-2 0,0 0,-1 0,-1 0,-1 0,-2 0,-3 0,-1 0,-3 0,-4 0,-1 0,-2 0,-4 0,-1 0,-2 0,-4 0,-1 0,-2 0,-4 0,-1 0,-2 1,-3 0,-2 0,-3 0,-4 0,-2 0,-3 0,-4 0,-1 0,-3 0,-4 0,-1 0,-3 0,-4 0,-1 0,-2 0,-3 0,0 0,-1 0,-1 0,0 0,0 0,0 1,-1 1,-2 1,-4 0,-1 0,-2 0,-4 0,-1 0,-2 0,-3 0,-2 0,-3 0,-4 0,-2 1,-3 1,-4 0,-1 0,-3 0,-4 0,-1 0,-3 0,-4 0,-1 0,-3 0,-4 0,0 1,-1 1,-2 0,-3 0,-7 0,-11 1,-8 2,-16 2,-24 1,-6 2,-13 2,-20 2,-15 4,-30 6,-44 0,-1 0,-2 0,-3 2,-14 4,-28 6,-42 0,-1 0,-3 0,-5 1,-7 3,-14 4,-21 1,-6 2,-12 3,-18 2,-15 5,-30 8,-44 0,-2 1,-4 1,-5 3,-14 5,-27 8,-40 2,-9 4,-19 6,-28 2,-6 3,-11 4,-16 4,-16 7,-30 11,-45 1,-2 1,-4 2,-6 0,0 0,-1 0,-1 3,-13 7,-25 10,-37 3,-11 6,-21 9,-30 1,-5 3,-10 4,-14 5,-17 10,-31 14,-45 1,-3 2,-6 3,-9 5,-13 9,-25 12,-35 6,-15 10,-26 12,-33l3 -6 -2 -3c2,-1 4,-2 6,-3 5,-2 10,-5 15,-8 21,-11 44,-24 64,-36 6,-4 12,-8 17,-11 8,-6 16,-11 21,-16 5,-4 10,-10 16,-17 6,-10 14,-22 21,-35 2,-3 4,-6 6,-10 7,-14 15,-29 23,-44 2,-5 4,-9 6,-13 3,-7 6,-13 9,-20 4,-7 7,-14 10,-21 5,-10 9,-19 12,-27 15,-32 25,-58 30,-68l2 -4 -5 4 -67 68c-9,9 -18,18 -27,27 -6,5 -12,11 -17,17 -9,8 -17,16 -25,24 -5,4 -9,9 -14,13 -8,8 -15,14 -20,18 -8,6 -26,15 -49,26 -6,3 -14,7 -21,10 -26,12 -54,24 -79,35 -3,1 -6,2 -8,3 -1,-1 -2,-2 -3,-3 -9,-11 -17,-23 -25,-35 -2,-3 -5,-7 -7,-10 -9,-15 -18,-30 -26,-44 -2,-5 -4,-9 -6,-13 -5,-11 -10,-22 -12,-32 -1,-2 -2,-5 -2,-7 -1,-1 -1,-2 -1,-2 -1,-6 -1,-15 0,-27 1,-3 1,-5 1,-8 1,-12 3,-27 5,-45 1,-4 2,-9 3,-15l4 -29 1 -2 6 -36 11 -62 1 -6 13 -68 14 -67 13 -68 4 -15 11 -52 14 -68 14 -68 8 -35 7 -32 15 -68 15 -68 12 -56 3 -11 15 -68 15 -67 16 -68 2 -10 13 -58 15 -67 16 -68 7 -30 9 -38 15 -67 16 -68 12 -51 4 -16 8 -35 26 -33 53 -68 53 -67 3 -4 49 -64 22 -27 -55 27 -128 64 -8 4 -111 55c-14,-17 -27,-36 -41,-55 -1,-2 -2,-3 -3,-4 -14,-21 -28,-42 -41,-64 -11,-20 -22,-40 -32,-60l8 -8 69 -67 25 -25 43 -43 46 -45 -130 45 -94 33 -1 -17 0 -16c2,-17 6,-40 12,-67 5,-21 10,-43 17,-68l12 -46 6 -22 20 -67 20 -68 21 -66 0 -2 21 -67 22 -68 22 -67 7 -20 15 -48 23 -68 23 -67 13 -41 10 -27 23 -68 23 -67 21 -61 3 -7 23 -67 23 -64 5 -4 83 -68 18 -14 66 -53 83 -68 77 -62 -163 62 -149 57 3 -57 3 -68 1 -34 1 -33c0,-23 0,-46 0,-68 0,-24 -1,-46 -2,-67 -1,-21 -2,-40 -4,-56 0,-4 -1,-8 -2,-12 -2,-13 -4,-24 -7,-32 -2,-6 -2,-18 -1,-36 0,-13 2,-29 4,-48 0,0 0,0 0,0 0,-6 1,-13 2,-19l9 -68 4 -26 6 -42 11 -67 5 -32 6 -36 12 -67 7 -37 5 -31 12 -68 8 -40 5 -27 12 -68 8 -43 5 -25 13 -67 8 -46 5 -22 13 -67 9 -48 4 -20 13 -68 10 -49 3 -18 14 -68 10 -51 3 -17 13 -67 11 -53 3 -15 7 -36 6 -31 11 -54 3 -14 14 -68 11 -55 3 -12 13 -68 12 -56 2 -12 14 -67 12 -57 2 -11 9 -45c0,0 -33,-3 -80,-12 -13,-3 -28,-6 -43,-10 -53,-14 -114,-35 -166,-68 -30,-19 -56,-41 -77,-68l-5 -6c-11,-15 -22,-36 -32,-61 -9,-20 -17,-43 -26,-68 -7,-21 -13,-44 -20,-68 -3,-9 -6,-19 -8,-29 -4,-12 -7,-25 -10,-38l-16 -68 -15 -67 -9 -40 -5 -28 -13 -68 -13 -67 -1 -7 11 -15 32 -46 35 -51 12 -17 47 -67 9 -13 38 -55 8 -12 -22 12 -51 28 -73 40 -34 18 -44 24 -30 -42 -48 -68 -48 -67 -40 -57 -8 -11 -42 -60 -21 -8c-3,-1 -8,-3 -12,-5 -34,-13 -89,-36 -142,-62 -42,-22 -82,-45 -108,-68l-9 -9c-16,-17 -27,-37 -34,-59 -8,-22 -12,-45 -14,-67 -1,-15 -1,-30 -1,-42 0,-10 1,-19 2,-26 1,-11 2,-17 2,-17 0,0 52,4 122,5 50,1 108,1 162,-3 11,0 22,-1 33,-2 37,-4 75,-10 112,-16 53,-10 102,-20 136,-28 10,-3 19,-5 26,-6l21 -6 -66 -7 -185 -21 -185 -21 -113 -13 -57 -7 -15 -1 -154 -18 -45 -42 -72 -67 -70 -68 -68 -68c-21,-22 -43,-44 -64,-67 -21,-23 -42,-45 -62,-68 -21,-22 -40,-45 -59,-67 -19,-23 -37,-46 -55,-68 -17,-23 -34,-46 -49,-68 -16,-23 -31,-45 -44,-67 -13,-24 -25,-46 -34,-68 -9,-21 -16,-42 -20,-61 -1,-2 -1,-4 -2,-7 -2,-11 -3,-22 -3,-32 0,-11 1,-22 2,-35 2,-20 5,-43 10,-68 1,-4 1,-8 2,-12 4,-17 8,-36 12,-55 5,-22 11,-44 17,-68l3 -9 16 -59 20 -67 0 -2 21 -66 18 -59 3 -9 23 -67 15 -47 7 -21 24 -67 11 -33 13 -35 24 -68 7 -18 17 -49 25 -68 1 -3 24 -64 21 -55 5 -13 26 -68 14 -38 6 -16c40,13 79,23 100,24 14,1 35,-3 57,-9 30,-8 63,-19 90,-28 13,-5 24,-10 33,-13 11,-4 18,-7 18,-7 0,0 -10,-1 -26,-2 -35,-2 -94,-6 -120,-12 -15,-3 -49,-15 -85,-29 -5,-2 -9,-3 -14,-5l-18 -7 5 -14 18 -47 14 -35c16,0 32,-1 49,-2 55,-2 114,-7 149,-15 4,-1 9,-2 13,-3 7,-3 16,-7 26,-12 19,-11 42,-27 65,-44 10,-8 21,-16 31,-24 22,-17 42,-35 59,-50 8,-6 15,-12 20,-17l20 -18c0,0 -25,8 -58,17 0,0 0,0 0,1 -43,12 -98,28 -130,33 -1,0 -1,1 -2,1 -25,3 -92,4 -158,3 -24,0 -49,-1 -71,-1l0 -36 0 -34 0 -34 0 -68 0 -62 0 -5 0 -61 1 -7c2,-15 11,-37 26,-64 0,-1 1,-3 1,-4 11,-20 24,-42 40,-67 6,-11 13,-21 20,-32 7,-12 15,-24 23,-36 13,-20 27,-41 42,-63 22,-31 44,-63 68,-96 22,-31 45,-63 69,-95 23,-32 46,-63 70,-94 23,-32 47,-63 70,-94 25,-32 49,-63 71,-93 26,-34 51,-65 72,-92 6,-8 12,-16 18,-23l210 88 249 104 -377 -358 7 -31 31 -133 31 -134 30 -133 31 -133 7 -29 104 -24 133 -31 134 -30 133 -31 86 -19 13 -45 37 -127 37 -127 38 -127 37 -126 5 -17 142 0 25 0c-29,-69 -54,-141 -75,-214 -19,-69 -35,-139 -47,-211 -10,-61 -18,-123 -22,-186 -3,-42 -4,-85 -4,-128 0,-14 0,-27 0,-40 1,-52 4,-103 10,-154 4,-49 11,-97 20,-144 8,-46 17,-91 29,-135 10,-43 23,-85 37,-127 13,-41 28,-81 44,-120 15,-38 32,-76 50,-113 18,-37 37,-72 57,-107 20,-35 40,-69 62,-102 22,-33 44,-65 68,-96 23,-31 48,-62 73,-91 25,-29 51,-58 78,-86 27,-27 55,-54 84,-80 29,-26 58,-51 89,-75 31,-24 62,-47 94,-69 33,-23 66,-44 100,-64 35,-21 70,-40 106,-58 37,-19 75,-36 113,-52 39,-16 79,-31 119,-44 42,-14 85,-26 128,-37 35,-8 70,-16 106,-22 10,-2 20,-4 30,-5 48,-8 98,-14 147,-17 18,-1 35,-2 53,-3 14,-1 27,-1 41,-1l55 0c4,0 7,0 11,0 60,1 119,6 177,13 48,6 96,15 143,25 20,4 40,9 60,14 85,21 167,49 247,83 11,5 22,9 33,14 16,8 33,16 50,24 116,56 224,125 324,206 104,83 199,178 283,282 100,125 185,265 251,415 36,82 66,167 90,254 19,68 34,138 45,209 10,61 17,122 21,184 2,40 3,79 3,119 0,16 0,32 -1,48 -1,52 -4,104 -10,154 -4,41 -10,82 -16,122 -2,7 -3,14 -4,22 -4,19 -8,39 -12,58 -5,26 -11,51 -18,76 -2,7 -3,13 -5,20 -9,32 -18,64 -28,95 -2,3 -3,7 -4,11 -9,28 -19,55 -30,81 -4,13 -10,26 -15,39 -2,4 -3,8 -5,13l18 0 149 0 33 111 29 100 5 14 33 115 30 102 4 13 33 114 116 26 212 49 213 48 49 12 11 49 4 15 26 112 20 86 6 26 26 112 14 60 3 16 27 117 -37 36 -40 38 -26 24 -18 18 -63 59 -22 21 -59 56 -25 23 -57 54 -27 26 -3 3 4 -2 48 -20 68 -28 71 -30 44 -18 26 -11 90 -38 108 -45c102,129 306,394 445,598 12,18 24,35 35,52 16,24 30,47 43,68 16,25 29,47 40,67 15,30 25,53 27,68l1 7 0 48 0 13 0 67 0 68 0 16 0 52 0 36c-23,0 -49,1 -75,1 -65,1 -130,0 -154,-3 -5,-1 -10,-2 -16,-3 -32,-7 -79,-21 -116,-31 -33,-10 -58,-18 -58,-18l20 18c18,16 48,42 79,67 33,26 68,52 96,68 10,5 19,9 26,12 18,6 48,10 82,13 41,4 89,6 129,7l14 35 23 61 -18 7c-9,4 -19,7 -27,10 -32,12 -59,22 -72,24 -14,3 -37,6 -61,8 -42,4 -85,6 -85,6 0,0 22,9 51,20 27,9 59,20 88,28 23,6 45,10 59,9 20,-1 56,-10 93,-22 2,0 4,-1 7,-2l6 15 14 39 26 68 26 68 25 67 8 21 17 47 24 67 24 68 24 68 3 6 21 61 22 68 23 67 16 50 5 18 21 68 20 67 19 68c1,4 2,8 3,11 5,20 10,39 14,57 5,24 10,46 14,67 5,25 8,48 10,68l1 12 1 8 0 25c-1,7 -2,15 -3,22 -4,21 -12,44 -22,68 -1,4 -3,8 -5,11 -8,19 -18,37 -29,57 -10,15 -20,32 -30,48 -5,6 -9,13 -14,19 -15,22 -32,45 -49,68 -2,3 -4,5 -6,8 -16,20 -32,40 -49,60 -8,10 -17,20 -26,30 -10,12 -21,25 -33,37 -14,17 -29,33 -44,49 -6,6 -12,13 -17,19l-63 65 -2 2 -68 68 -12 12 -58 56 -26 24 -45 43 -40 36 -6 6 -136 16 -90 10 -57 7 -147 16 -147 17 -148 17 -50 5 21 6c13,3 31,7 52,12 54,12 128,26 200,35 7,1 15,2 22,3 48,4 101,6 150,6 73,-1 136,-4 159,-6 5,0 8,0 8,0 0,0 1,4 2,10 0,2 0,5 0,7 2,16 3,40 1,68 -2,22 -6,45 -14,67 0,3 -1,5 -2,7 -7,19 -18,37 -32,52l-9 9c-10,9 -22,18 -36,27 -21,14 -47,28 -72,41 -12,5 -23,11 -34,16 -45,21 -89,39 -115,49 -2,1 -4,2 -5,2l-21 8 -42 60 -11 15 -37 53 -31 43 -17 24 -48 68 -3 4 -27 38 -78 -42 -124 -68 -14 -8 -8 -4 8 12 47 68 47 67 48 68 42 61 -1 7 -11 58 -2 9 -13 68 -12 60 -2 8 -14 67 -14 58 -3 10c-6,23 -12,46 -18,67 -5,18 -10,35 -15,52 -2,5 -4,11 -5,16 -9,25 -17,48 -26,68 -5,12 -10,23 -15,33 -6,11 -11,20 -17,28l-5 6c-15,20 -34,38 -55,53 -7,5 -15,10 -22,15 -27,17 -56,31 -85,42 -28,11 -55,19 -81,26 -17,4 -33,7 -47,10 -45,10 -76,12 -76,12l9 45 11 51 3 17 14 67 14 68 11 54 3 14 13 67 14 68 11 56 2 12 14 67 14 68 11 58 2 9 13 68 14 68 12 59 1 8 13 68 13 68 12 60 1 7 13 68 13 67 11 60 2 8 12 68 13 67 10 58 2 10 12 68 12 67 9 53 2 15 11 67 10 68 6 43 3 25c1,6 2,13 2,19 0,0 0,0 0,0 2,19 4,35 4,48 1,18 1,30 -1,36 -3,8 -5,19 -7,32 -1,4 -2,8 -2,12 -2,16 -3,35 -4,56 -1,21 -2,43 -2,67 0,22 0,45 0,68l1 33 1 34 3 68 3 57 -149 -57 -163 -62 77 62 83 68 66 53 18 14 84 68 4 4 23 64 23 67 3 7 21 61 23 67 23 68 10 27 13 41 23 67 23 68 15 48 7 20 22 67 22 68 21 67 0 2 21 66 20 68 20 67 6 22 12 46c7,25 12,47 17,68 6,27 10,50 12,67l1 16 -2 17 -94 -33 -130 -45 46 45 43 43 25 25 69 67 8 8c-10,20 -21,40 -32,60 -13,22 -27,43 -41,64 -1,1 -2,2 -3,4 -14,19 -27,38 -41,55l-111 -55 -8 -4 -128 -64 -55 -27 22 27 49 64 3 4 53 67 53 68 26 33 8 35 4 16 12 51 16 68 15 67 9 38 7 30 16 68 15 67 13 58 2 10 16 68 15 67 15 68 3 11 12 56 15 68 15 68 7 32 8 35 14 68 14 68 11 52 4 15 13 68 14 67 13 68 1 6 11 62 11 67c5,28 7,51 9,68 1,12 1,21 0,27 0,0 0,1 0,2 -3,12 -8,25 -14,39 -11,22 -25,45 -40,67 -9,13 -18,26 -28,38 -26,-11 -58,-25 -87,-38 -32,-14 -59,-28 -70,-36 -7,-6 -19,-17 -34,-31 -13,-13 -27,-27 -42,-41 -9,-9 -18,-18 -27,-27l-67 -68 -5 -4 2 4c5,10 15,36 30,68 3,8 7,17 12,27 6,13 12,27 19,41 11,23 23,47 35,67 14,24 27,44 37,52 5,5 13,10 21,16 23,15 54,33 81,47 7,4 14,8 21,11l-2 3 3 6c4,11 13,34 24,68 5,14 10,29 15,46 1,3 1,5 2,8 1,4 3,9 4,14 3,9 6,19 9,30 3,12 7,24 10,37 0,0 0,1 0,1 1,2 1,4 2,6 4,15 7,29 11,45 1,5 2,10 4,16 2,9 4,19 6,28 3,13 6,26 8,40 0,1 1,3 1,5 3,14 6,29 8,44 1,6 2,12 3,18 1,7 3,14 4,21 0,2 0,4 0,5 2,14 4,28 6,42 0,1 0,2 0,3 2,14 4,29 6,44 0,7 1,14 2,20 0,8 1,16 2,24 1,15 2,29 3,44 0,0 0,1 0,1 0,14 1,27 1,41 0,1 0,2 0,3 1,8 1,15 1,23l0 14 0 4 0 3 125 0c-2,-15 -4,-29 -5,-44 -1,-1 -1,-2 -1,-3 -2,-14 -4,-28 -6,-41 -2,-15 -4,-30 -7,-45 -3,-15 -5,-29 -8,-44 -3,-15 -6,-30 -9,-44 -4,-16 -7,-30 -11,-45 0,-1 0,-3 -1,-5 -3,-13 -6,-26 -10,-39 -4,-16 -8,-30 -12,-44 -4,-16 -9,-31 -13,-45 -5,-16 -10,-31 -14,-44 -6,-17 -11,-32 -16,-45 0,-2 -1,-4 -2,-6 -6,-18 -11,-31 -14,-38 -2,-5 -3,-7 -3,-7 0,0 14,-14 34,-37 31,-34 76,-89 106,-142 11,-21 20,-41 25,-60 4,-16 -4,-76 -20,-163 -11,-63 -26,-139 -44,-224 -14,-70 -31,-145 -48,-224 -16,-73 -33,-148 -51,-223 -17,-76 -34,-151 -51,-224 -19,-79 -36,-154 -53,-224 -20,-86 -38,-163 -53,-223 -21,-88 -34,-141 -34,-141 0,0 32,-33 74,-83 50,-59 114,-143 152,-223 20,-44 34,-86 34,-124 0,-20 -7,-55 -17,-100 -15,-59 -37,-137 -64,-224 -22,-70 -46,-146 -72,-223 -25,-75 -51,-150 -76,-224 -27,-79 -54,-155 -79,-224 -33,-92 -61,-171 -80,-223 -16,-44 -25,-70 -25,-70 0,0 -6,-66 -10,-154 -4,-69 -7,-151 -6,-223 0,-76 4,-142 16,-172 2,-7 2,-25 0,-52 -3,-35 -9,-84 -19,-145 0,0 0,-1 0,-1 -5,-32 -10,-67 -17,-105 -10,-61 -22,-128 -35,-200 -12,-64 -25,-131 -38,-202 -13,-66 -26,-134 -40,-203 -13,-68 -27,-137 -41,-205 -14,-69 -28,-138 -42,-206 -14,-71 -28,-140 -42,-206 -15,-74 -30,-144 -43,-207 -17,-81 -32,-152 -44,-208 -18,-85 -29,-136 -29,-136 0,0 20,-1 50,-6 34,-6 82,-16 133,-32 38,-12 78,-28 114,-50 35,-20 66,-44 89,-74 1,-2 2,-3 4,-5 17,-23 34,-60 51,-105 13,-36 27,-79 39,-124 12,-42 23,-87 33,-131 11,-46 20,-92 29,-135 10,-50 19,-97 26,-138 14,-78 22,-130 22,-130l5 -7 69 -94 70 -95 69 -95 23 -31c0,0 34,-12 79,-31 34,-13 75,-31 113,-50 40,-20 77,-42 102,-63 5,-3 9,-7 13,-11 25,-26 38,-60 45,-94 12,-62 2,-121 2,-121 0,0 8,-7 23,-19 19,-16 50,-42 88,-75 26,-22 56,-48 88,-76 27,-25 56,-51 86,-78 27,-26 56,-52 84,-80 28,-26 56,-53 83,-81 28,-27 55,-55 81,-83 27,-28 54,-57 79,-85 26,-30 51,-60 75,-89 26,-32 49,-63 70,-94 25,-36 45,-70 61,-103 20,-43 32,-82 32,-115 0,-6 0,-11 -1,-17 -2,-49 -17,-120 -39,-203 -18,-70 -42,-150 -70,-234 -26,-80 -55,-165 -85,-250 -32,-88 -65,-176 -97,-260 -37,-98 -73,-189 -103,-268 -59,-148 -101,-248 -101,-248l0 -16 0 -164 0 -163 0 -62c0,-33 -52,-121 -127,-230 -173,-250 -468,-615 -540,-704 -11,-13 -17,-21 -17,-21l-50 -210 -52 -215 -15 -63 -12 -52 -24 -101 -3 -11 -9 -40 -50 -11 -211 -46 -79 -18 -132 -29 -148 -33 -10 -33 -34 -115 -5 -17 -30 -98 -35 -115 -7 -22 -28 -93 -26 -85 -124 0 -51 0c5,-12 10,-24 15,-37 5,-12 10,-25 15,-38 10,-27 20,-54 29,-81 1,-4 3,-8 4,-12 10,-31 19,-62 28,-94 2,-7 4,-14 5,-21 7,-25 13,-50 18,-75 4,-20 8,-40 12,-59 2,-13 4,-26 6,-39 5,-32 10,-66 13,-99 0,-2 1,-4 1,-6 3,-32 5,-63 7,-95 1,-20 2,-40 2,-60 0,-7 0,-14 0,-21 0,-5 0,-10 0,-15 0,-44 -1,-89 -4,-132 -5,-63 -12,-125 -22,-186 -13,-73 -29,-144 -49,-213 -27,-91 -60,-178 -99,-262 -185,-401 -507,-725 -905,-910 -2,0 -5,-1 -7,-2 -12,-6 -24,-12 -36,-17 -73,-31 -147,-58 -224,-80 -32,-9 -63,-17 -95,-25 -39,-8 -77,-16 -116,-22 -61,-10 -122,-17 -185,-21 -36,-2 -73,-3 -111,-3 -14,0 -29,0 -43,1 -4,0 -8,0 -12,0 -52,1 -103,5 -153,11 -17,2 -33,4 -49,6 -32,5 -63,10 -93,16 -45,8 -89,19 -133,31 -42,11 -84,24 -125,38 -40,15 -79,30 -118,47 -38,16 -75,33 -111,52z"/>
      <path class="fil9" d="M35923 42156c-26,31 -51,53 -68,68 -3,2 -5,4 -8,6 -12,10 -20,15 -20,15l-12 47 -19 67 -8 32c29,-23 93,-76 145,-161 32,-51 59,-113 74,-185 1,-8 3,-17 5,-26 0,1 -1,1 -1,2 -12,25 -24,47 -37,68 -17,25 -34,48 -51,67z"/>
      <path class="fil9" d="M38016 42230c53,85 116,138 146,161l-9 -32 -19 -67 -12 -47c0,0 -8,-5 -20,-15 -3,-2 -5,-4 -8,-6 -17,-15 -42,-37 -68,-68 -17,-19 -34,-42 -51,-67 -13,-21 -25,-43 -37,-68 0,-1 -1,-1 -1,-2 2,9 4,18 5,26 15,72 42,134 74,185z"/>
      <polygon class="fil9" points="37471,40217 37548,40441 37625,40665 37688,40846 37679,40804 37672,40766 37595,40217 37366,39749 37378,39651 37352,39589 37322,39502 37331,39450 37315,39392 37294,39166 37283,39121 37265,39027 37279,38995 37225,38895 37212,38780 37206,38736 37016,37828 36974,37716 36934,37852 36752,38651 36616,39385 36627,39563 36596,39725 36577,39764 36340,40471 36250,40722 36263,40778 36261,40846 36324,40665 36401,40441 36478,40217 36555,39994 36597,39873 36616,39770 36658,39546 36699,39323 36741,39099 36783,38876 36812,38719 36812,38718 36817,38693 36842,38555 36868,38417 36894,38278 36920,38140 36945,38002 36971,37864 36975,37845 36980,37872 37017,38074 37055,38275 37092,38476 37130,38678 37137,38718 37137,38719 37166,38876 37208,39099 37250,39323 37291,39546 37333,39770 37352,39873 37394,39994 "/>
     </g>
     <g>
      <path class="fil10" d="M36969 24365c-265,0 -492,93 -677,277 -184,185 -277,412 -277,677 0,265 93,493 277,677 185,184 412,278 677,278 105,0 205,-15 298,-44 141,-45 268,-123 379,-234 184,-184 278,-412 278,-677 0,-264 -94,-492 -278,-677 -184,-184 -412,-277 -677,-277z"/>
      <path class="fil11" d="M37646 24642c-184,-184 -412,-277 -677,-277 -85,0 -167,10 -244,29 178,37 335,122 470,257 184,184 278,412 278,677 0,265 -94,492 -278,677 -111,111 -238,189 -380,233 -17,6 -35,11 -53,15 67,14 136,21 207,21 105,0 205,-15 298,-44 141,-45 268,-123 379,-234 184,-184 278,-412 278,-677 0,-264 -94,-492 -278,-677z"/>
      <path class="fil10" d="M40166 16832c-582,-539 -1363,-812 -2320,-812 -957,0 -1742,273 -2334,811 -515,468 -807,1079 -870,1816 -11,124 32,248 116,340 84,92 204,144 329,144l570 0c227,0 418,-170 443,-397 45,-402 191,-710 446,-944 309,-283 744,-426 1293,-426 547,0 979,149 1283,445 302,294 456,715 456,1251 0,740 -212,1238 -630,1481 -439,256 -1131,381 -2057,372l-246 0c-246,0 -446,200 -446,446l0 2148c0,119 46,231 130,315 85,85 197,131 316,131l578 0c46,0 91,-7 134,-21 181,-57 312,-226 312,-425l0 -1391c0,-17 14,-32 31,-32 1077,-29 1905,-268 2459,-711 591,-471 890,-1218 890,-2221 0,-998 -297,-1779 -883,-2320z"/>
      <path class="fil11" d="M40166 16832c-582,-539 -1363,-812 -2320,-812 -593,0 -1119,105 -1575,312 258,-49 532,-75 822,-75 957,0 1737,273 2320,812 586,541 882,1322 882,2320 0,1003 -299,1750 -889,2221 -170,136 -366,253 -588,350 549,-116 997,-313 1341,-587 591,-471 890,-1218 890,-2221 0,-998 -297,-1779 -883,-2320z"/>
     </g>
     <g>
      <path class="fil12" d="M47590 43634c0,0 -10242,-1766 -20703,0l0 2005c3106,1737 6685,2727 10496,2727 3693,0 7169,-930 10207,-2568l0 -2164z"/>
      <polygon class="fil12" points="47590,42534 43715,42323 42433,43998 47590,44326 "/>
      <polygon class="fil13" points="37313,43427 36217,42505 33449,42474 32026,43505 "/>
      <path class="fil13" d="M47590 44159c0,0 -10242,-1767 -20703,0l0 1480c3106,1737 6685,2727 10496,2727 3693,0 7169,-930 10207,-2568l0 -1639z"/>
      <polygon class="fil12" points="31659,43427 30852,42323 26887,42442 26887,44346 "/>
      <polygon class="fil13" points="46415,44068 45430,43127 41110,42925 40208,43734 "/>
      <path class="fil14" d="M46180 42134c535,26 1018,72 1410,128l0 179c-1259,-176 -3267,-216 -3780,-13 -458,-227 718,-376 2370,-294z"/>
      <path class="fil15" d="M47590 42784c-1257,53 -3264,-101 -3780,-356 513,-203 2521,-163 3780,13l0 343z"/>
      <path class="fil13" d="M34836 42267c920,11 1581,168 1330,316 -381,-232 -2287,-253 -2666,-30 -252,-153 413,-297 1336,-286z"/>
      <path class="fil15" d="M36166 42583c-380,223 -2286,202 -2666,-30 380,-223 2286,-202 2666,30z"/>
      <path class="fil14" d="M26887 42150c413,-48 936,-81 1514,-89 1580,-22 2743,154 2398,358 -431,-244 -2624,-276 -3912,-130l0 -139z"/>
      <path class="fil15" d="M26887 42289c1289,-146 3481,-114 3912,130 -433,256 -2624,345 -3912,234l0 -364z"/>
      <polygon class="fil13" points="32717,43711 32230,43020 28447,43180 27925,44291 "/>
      <path class="fil6" d="M45912 43537c0,0 -2082,685 -4974,764 -244,7 -280,332 -41,384 3469,756 6024,805 6693,803l0 -1693c-1792,-288 -1581,-258 -1678,-258z"/>
      <path class="fil7" d="M32300 47762c128,-11 262,-20 400,-26 967,-42 1758,67 1767,245 1,23 -11,46 -36,69 -174,-165 -938,-220 -1705,-189 -143,-32 -285,-65 -426,-99z"/>
      <path class="fil15" d="M32726 47861c767,-31 1531,24 1705,189 -35,33 -89,64 -159,92 -522,-75 -1038,-169 -1546,-281z"/>
      <path class="fil7" d="M40246 47981c-252,-218 416,-417 1334,-397 424,9 797,63 1046,139 -113,28 -227,56 -341,82 -736,-114 -1818,-60 -2039,176z"/>
      <path class="fil15" d="M40246 47981c221,-235 1303,-290 2039,-176 -560,131 -1128,239 -1704,325 -148,-40 -266,-90 -335,-149z"/>
      <path class="fil7" d="M44743 47075l-94 -12 -648 267c249,-81 497,-166 742,-255z"/>
      <path class="fil7" d="M31936 47671l-89 -203 -1739 -444 -160 24c649,238 1312,447 1988,623z"/>
      <path class="fil7" d="M44440 45546c-288,-290 773,-397 2159,-219 364,47 700,106 991,173l0 190c-1115,-253 -2746,-376 -3150,-144z"/>
      <path class="fil15" d="M44440 45546c404,-232 2035,-109 3150,144l0 108c-231,124 -464,245 -699,361 -1038,-98 -2185,-345 -2451,-613z"/>
      <path class="fil13" d="M41168 42997c-331,-173 703,-274 2118,-204 1404,70 2417,271 2089,410 -534,-278 -3676,-431 -4207,-206z"/>
      <path class="fil15" d="M41168 42997c531,-226 3674,-72 4207,206 -531,226 -3674,72 -4207,-206z"/>
      <path class="fil7" d="M39879 44012c-160,-107 181,-234 670,-251 469,-15 814,80 701,193 -232,-154 -1200,-114 -1371,58z"/>
      <path class="fil15" d="M39879 44012c171,-171 1139,-213 1371,-58 -170,171 -1138,213 -1371,58z"/>
      <path class="fil13" d="M28515 43251c-332,-137 559,-324 1813,-376 1263,-53 2171,61 1836,226 -510,-210 -3138,-103 -3649,150z"/>
      <path class="fil15" d="M28515 43251c510,-252 3138,-360 3649,-150 -510,252 -3137,360 -3649,150z"/>
      <path class="fil7" d="M33221 44189c581,0 1003,134 844,270 -240,-204 -1447,-204 -1687,0 -159,-136 262,-270 843,-270z"/>
      <path class="fil15" d="M34065 44459c-240,203 -1447,204 -1687,0 240,-204 1447,-204 1687,0z"/>
      <path class="fil7" d="M26887 45322c376,-97 884,-179 1455,-225 1403,-115 2456,43 2141,321 -404,-294 -2495,-197 -3596,80l0 -176z"/>
      <path class="fil15" d="M26887 45498c1101,-277 3191,-374 3596,-80 -346,305 -1926,519 -3065,509 -178,-94 -355,-190 -531,-288l0 -141z"/>
      <polygon class="fil15" points="47590,43271 45859,43537 45125,44401 47590,44833 "/>
      <polygon class="fil15" points="29881,44291 26887,44612 26887,43374 28915,43655 "/>
      <path class="fil15" d="M43875 44871c0,-65 195,-117 436,-117 240,0 435,52 435,117 0,65 -195,117 -435,117 -241,0 -436,-52 -436,-117z"/>
      <path class="fil15" d="M30600 44189c0,-64 195,-117 436,-117 240,0 435,53 435,117 0,65 -195,117 -435,117 -241,0 -436,-52 -436,-117z"/>
      <path class="fil15" d="M42481 47414c0,-65 195,-117 435,-117 241,0 436,52 436,117 0,64 -195,117 -436,117 -240,0 -435,-53 -435,-117z"/>
      <path class="fil15" d="M33574 44007c-5,-78 228,-154 520,-169 291,-15 532,36 536,114 5,79 -228,154 -519,169 -292,16 -532,-36 -537,-114z"/>
      <path class="fil15" d="M41333 43793c6,-137 778,-108 772,29 -6,136 -778,107 -772,-29z"/>
     </g>
     <path class="fil6" d="M48557 35978c21,-34 65,-44 98,-23 33,22 44,66 22,100 -20,33 -64,43 -98,22 -32,-20 -43,-65 -22,-99z"/>
     <path class="fil16" d="M54633 33458c22,-34 66,-44 98,-23 34,21 44,66 24,100 -21,33 -65,44 -99,22 -33,-21 -43,-65 -23,-99l0 0z"/>
     <path class="fil13" d="M47582 34213c-24,41 -77,54 -118,28 -41,-26 -53,-79 -27,-120 24,-41 77,-53 118,-28 41,26 53,80 27,120z"/>
     <path class="fil16" d="M51785 35842c21,34 66,44 98,23 34,-21 44,-66 23,-100 -20,-33 -64,-43 -98,-22 -33,21 -43,65 -23,99z"/>
     <path class="fil16" d="M51976 38642c22,34 66,44 98,23 34,-22 44,-66 24,-99 -21,-34 -65,-44 -99,-23 -33,20 -43,65 -23,99l0 0z"/>
     <path class="fil13" d="M47089 38775c-21,34 -65,44 -98,24 -33,-22 -43,-66 -23,-99 20,-34 64,-44 98,-24 34,21 44,65 23,99z"/>
     <path class="fil6" d="M48258 37571c-113,3 -204,97 -205,212l-2 0c-1,-115 -91,-209 -205,-212 114,-4 206,-98 206,-214l1 0c0,116 91,210 205,214z"/>
     <path class="fil6" d="M21975 22580c-24,41 -77,55 -118,29 -41,-26 -53,-79 -28,-120 25,-41 78,-54 119,-29 41,26 53,80 27,120z"/>
     <path class="fil17" d="M23496 37419c-24,41 -77,54 -118,28 -41,-26 -53,-79 -27,-120 24,-40 77,-53 118,-28 41,26 53,80 27,120z"/>
     <path class="fil13" d="M40227 11536c42,-66 129,-86 193,-44 67,42 87,129 44,195 -39,67 -126,87 -193,44 -64,-39 -84,-128 -44,-195z"/>
     <path class="fil17" d="M30238 36878c-20,34 -64,44 -98,24 -33,-22 -43,-66 -22,-100 20,-33 64,-43 98,-23 33,21 43,65 22,99z"/>
     <path class="fil16" d="M17228 26932c-25,41 -78,54 -119,28 -41,-26 -53,-79 -27,-120 24,-41 77,-53 118,-28 41,26 53,80 28,120z"/>
     <path class="fil16" d="M59145 37432c22,-34 66,-44 98,-22 34,20 44,65 24,99 -21,34 -65,44 -99,22 -33,-21 -43,-65 -23,-99l0 0z"/>
     <path class="fil16" d="M54048 18525c-20,34 -64,44 -98,24 -33,-22 -43,-66 -23,-100 21,-33 65,-43 98,-23 34,21 44,65 23,99z"/>
     <path class="fil18" d="M22613 18669c0,39 -31,70 -70,70 -39,0 -71,-31 -71,-70 0,-39 32,-71 71,-71 39,0 70,32 70,71z"/>
     <path class="fil19" d="M47472 18435c0,37 -31,68 -68,68 -38,0 -69,-31 -69,-68 0,-38 31,-69 69,-69 37,0 68,31 68,69z"/>
     <path class="fil6" d="M23713 33718c0,38 -32,70 -70,70 -39,0 -71,-32 -71,-70 0,-39 32,-71 71,-71 38,0 70,32 70,71z"/>
     <path class="fil4" d="M41008 44942c-2054,-517 -4234,-741 -6175,-188 -261,74 -525,156 -790,243 1083,198 2200,301 3340,301 1241,0 2453,-122 3625,-356z"/>
     <g>
      <path class="fil6" d="M56291 22890c0,998 -813,1812 -1811,1812 -998,0 -1806,-814 -1806,-1812 0,-998 808,-1806 1806,-1806 998,0 1811,808 1811,1806z"/>
      <g>
       <path class="fil7" d="M53086 24036c-258,-311 -412,-707 -412,-1146 0,-998 808,-1806 1806,-1806 560,0 1056,254 1389,650 0,0 -1362,-523 -2202,317 -839,839 -581,1985 -581,1985z"/>
       <path class="fil7" d="M54789 21893c-21,21 -42,42 -64,63 -31,32 -31,90 0,122 37,31 90,31 127,0 21,-21 37,-43 58,-58 32,-37 32,-95 0,-127 -31,-32 -89,-32 -121,0z"/>
       <path class="fil7" d="M55269 23973c117,0 117,-179 0,-179 -111,0 -111,179 0,179z"/>
       <path class="fil7" d="M54187 22616c148,0 148,-237 0,-237 -153,0 -153,237 0,237z"/>
      </g>
      <g>
       <path class="fil7" d="M53823 22917l63 0c74,0 74,-116 0,-116l-63 0c-74,0 -74,116 0,116z"/>
       <path class="fil7" d="M55047 23165c264,0 264,-412 0,-412 -264,0 -264,412 0,412z"/>
      </g>
     </g>
     <path class="fil18" d="M50033 28431c0,33 -27,60 -60,60 -33,0 -60,-27 -60,-60 0,-33 27,-60 60,-60 33,0 60,27 60,60z"/>
     <path class="fil20" d="M57922 11346c664,663 551,1852 -251,2655l-872 871c-803,803 -1991,916 -2655,252l-4927 -4927c-664,-664 -551,-1853 251,-2655l872 -872c803,-803 1991,-915 2655,-251l4927 4927z"/>
     <path class="fil21" d="M57060 11553c575,575 575,1508 0,2083l-625 625c-576,576 -1509,576 -2084,0l-4272 -4271c-575,-576 -575,-1508 0,-2084l625 -625c576,-575 1509,-575 2084,0l4272 4272z"/>
     <path class="fil22" d="M52267 8219c346,345 345,905 0,1250 -345,345 -905,345 -1250,0 -345,-345 -345,-905 0,-1250 345,-345 905,-346 1250,0z"/>
     <path class="fil22" d="M56108 12060c346,345 346,905 0,1250 -345,345 -905,345 -1250,0 -345,-345 -345,-905 0,-1250 345,-345 905,-345 1250,0z"/>
     <path class="fil23" d="M37383 45298c-10201,0 -18470,-8269 -18470,-18470 0,-10201 8269,-18471 18470,-18471 10201,0 18471,8270 18471,18471 0,10201 -8270,18470 -18471,18470zm0 -40008c-11895,0 -21538,9643 -21538,21538 0,11895 9643,21538 21538,21538 11895,0 21538,-9643 21538,-21538 0,-11895 -9643,-21538 -21538,-21538z"/>
     <path class="fil22" d="M38052 6785c0,333 -271,604 -604,604 -334,0 -604,-271 -604,-604 0,-334 270,-604 604,-604 333,0 604,270 604,604z"/>
     <path class="fil18" d="M54294 26417c0,43 -36,78 -79,78 -43,0 -78,-35 -78,-78 0,-44 35,-79 78,-79 43,0 79,35 79,79z"/>
     <g>
      <path class="fil6" d="M23583 29267c0,-275 -225,-499 -500,-499 -275,0 -498,224 -498,499 0,275 223,498 498,498 275,0 500,-223 500,-498z"/>
      <g>
       <path class="fil7" d="M22699 28951c-72,86 -114,195 -114,316 0,275 223,498 498,498 155,0 291,-70 383,-179 0,0 -376,144 -607,-87 -232,-232 -160,-548 -160,-548z"/>
       <path class="fil7" d="M23168 29542c-6,-6 -11,-11 -17,-17 -9,-9 -9,-25 0,-34 10,-8 25,-8 35,0 6,6 10,12 16,16 8,11 8,27 0,35 -9,9 -25,9 -34,0z"/>
       <path class="fil7" d="M23301 28968c32,0 32,50 0,50 -31,0 -31,-50 0,-50z"/>
       <path class="fil7" d="M23002 29343c41,0 41,65 0,65 -42,0 -42,-65 0,-65z"/>
      </g>
      <g>
       <path class="fil7" d="M22902 29260l17 0c21,0 21,32 0,32l-17 0c-21,0 -21,-32 0,-32z"/>
       <path class="fil7" d="M23240 29191c72,0 72,114 0,114 -73,0 -73,-114 0,-114z"/>
      </g>
     </g>
     <path class="fil4" d="M57060 13636l-625 625c-345,345 -819,483 -1267,415 91,132 180,266 268,401 402,-3 802,-157 1108,-463l671 -671c617,-617 617,-1618 0,-2235l-154 -154c574,576 574,1507 -1,2082z"/>
     <path class="fil4" d="M57927 11351c658,664 544,1849 -256,2650l-872 871c-322,322 -706,533 -1094,628 52,84 103,168 154,252 415,-83 830,-301 1175,-645l872 -872c802,-802 915,-1991 251,-2655l-229 -229 -1 0z"/>
     <path class="fil22" d="M23912 12642c0,333 -271,604 -604,604 -334,0 -604,-271 -604,-604 0,-334 270,-604 604,-604 333,0 604,270 604,604z"/>
     <path class="fil22" d="M18054 26782c0,333 -270,604 -603,604 -334,0 -604,-271 -604,-604 0,-334 270,-604 604,-604 333,0 603,270 603,604z"/>
     <path class="fil22" d="M23911 40922c0,334 -270,604 -603,604 -334,0 -604,-270 -604,-604 0,-334 270,-604 604,-604 333,0 603,270 603,604z"/>
     <path class="fil22" d="M38052 46779c0,334 -271,604 -604,604 -334,0 -604,-270 -604,-604 0,-334 270,-604 604,-604 333,0 604,270 604,604z"/>
     <path class="fil22" d="M52192 40922c0,334 -271,604 -604,604 -334,0 -604,-270 -604,-604 0,-334 270,-604 604,-604 333,0 604,270 604,604z"/>
     <path class="fil22" d="M58049 26782c0,333 -270,604 -604,604 -334,0 -604,-271 -604,-604 0,-334 270,-604 604,-604 334,0 604,270 604,604z"/>
     <path class="fil22" d="M52192 12642c0,333 -271,604 -604,604 -334,0 -604,-271 -604,-604 0,-334 270,-604 604,-604 333,0 604,270 604,604z"/>
    </g>
    <path class="fil1" d="M90006 32856c2260,3960 -1148,8057 -5486,9981 -8866,3932 -16011,-7260 -14162,-11241 1776,-3823 15539,-5940 19648,1260z"/>
   </g>
   <path class="fil24" d="M49672 8680c-27,148 -31,299 -13,448 2156,1498 4026,3381 5509,5548 186,28 376,21 559,-21 -1605,-2372 -3660,-4403 -6055,-5975z"/>
   <path class="fil25" d="M49672 8680c32,-171 94,-338 187,-492 -204,-132 -409,-261 -617,-386 -187,247 -318,518 -390,792 273,172 542,350 807,534 -18,-149 -14,-300 13,-448zm6686 6093c-274,201 -598,302 -922,304 91,139 181,281 269,423 293,-72 584,-210 848,-412 -64,-105 -129,-210 -195,-315z"/>
  </g>
 </g>
</svg>
