<?xml version="1.0" encoding="UTF-8"?>
<!DOCTYPE svg PUBLIC "-//W3C//DTD SVG 1.1//EN" "http://www.w3.org/Graphics/SVG/1.1/DTD/svg11.dtd">
<!-- Creator: CorelDRAW X7 -->
<svg xmlns="http://www.w3.org/2000/svg" xml:space="preserve" width="11.4929in" height="6.97583in" version="1.1" style="shape-rendering:geometricPrecision; text-rendering:geometricPrecision; image-rendering:optimizeQuality; fill-rule:evenodd; clip-rule:evenodd"
viewBox="0 0 114929 69758"
 xmlns:xlink="http://www.w3.org/1999/xlink">
 <defs>
  <style type="text/css">
   <![CDATA[
    .fil8 {fill:#75613D}
    .fil3 {fill:#9D8457}
    .fil5 {fill:#BB9B61}
    .fil4 {fill:#D2AE6D}
    .fil2 {fill:#DCC08D}
    .fil0 {fill:#EDDFC4}
    .fil1 {fill:#F6EFE2}
    .fil9 {fill:#FCF8F2}
    .fil16 {fill:#A38755;fill-rule:nonzero}
    .fil7 {fill:#BB9B61;fill-rule:nonzero}
    .fil15 {fill:#D2AE6D;fill-rule:nonzero}
    .fil6 {fill:#D7B77D;fill-rule:nonzero}
    .fil18 {fill:#D8D1BD;fill-rule:nonzero}
    .fil12 {fill:#D9BC89;fill-rule:nonzero}
    .fil14 {fill:#DCC08D;fill-rule:nonzero}
    .fil13 {fill:#E3CCA2;fill-rule:nonzero}
    .fil22 {fill:#E6D2AE;fill-rule:nonzero}
    .fil11 {fill:#EDDFC4;fill-rule:nonzero}
    .fil17 {fill:#EED5AB;fill-rule:nonzero}
    .fil20 {fill:#EFE2CA;fill-rule:nonzero}
    .fil21 {fill:#F8F2E8;fill-rule:nonzero}
    .fil23 {fill:#FAF8F2;fill-rule:nonzero}
    .fil10 {fill:#FCF8F2;fill-rule:nonzero}
    .fil19 {fill:white;fill-rule:nonzero}
   ]]>
  </style>
 </defs>
 <g id="Layer_x0020_1">
  <metadata id="CorelCorpID_0Corel-Layer"/>
  <g id="_3027625210176">
   <g>
    <path class="fil0" d="M6012 48980c-2361,-969 -4303,-1356 -6012,-1239l0 -19555c2794,-5365 10471,-5457 17747,802 1680,778 3525,1699 5560,2773 10317,5443 21756,5065 29850,-995 658,-493 1287,-1017 1887,-1572 5896,-5452 8913,-13820 8541,-23857 -71,-1918 -65,-3696 20,-5337l50971 0c3610,29572 -21318,18368 -36280,17172 -6489,-519 -10362,3354 -11338,15625 -1244,15653 -8257,30572 -25960,30009 -11991,-382 -23502,-9112 -34986,-13826z"/>
    <path class="fil1" d="M17905 46415c1791,1214 3448,2587 5060,3944 10917,9188 23085,10762 33922,166 4757,-4652 7662,-11507 8328,-19882 721,-9070 2818,-14748 6412,-17358 1150,-836 2432,-1332 3814,-1565 9722,-1643 23999,14591 35686,5297 -3257,3726 -8064,5851 -13854,5659 -3501,-117 -6434,-527 -9113,-694 -18607,-1164 -19003,11475 -17190,25338 1550,11849 -4733,18634 -10451,20938 -20662,8324 -42808,-20828 -60519,-18007l0 -6162c4837,-2610 10892,-2424 17905,2326z"/>
   </g>
   <path class="fil1" d="M21456 24418c-619,1847 -997,3802 -1096,5829 -6391,-3186 -13885,-8449 -20360,-2061l0 -28186 10719 0 52886 0c1379,3845 3105,14586 -1750,20992 -8235,-14141 -33204,-21906 -40399,3426z"/>
   <g>
    <path class="fil2" d="M16824 29959c0,12868 10563,23299 23594,23299 13031,0 23594,-10431 23594,-23299 0,-12868 -10563,-23299 -23594,-23299 -13031,0 -23594,10431 -23594,23299z"/>
    <path class="fil3" d="M20448 29006c0,11029 8941,19970 19970,19970 11029,0 19970,-8941 19970,-19970 0,-11029 -8941,-19970 -19970,-19970 -11029,0 -19970,8941 -19970,19970z"/>
    <g>
     <path class="fil4" d="M43340 40016c-6934,1858 -14061,-2257 -15919,-9191 -1858,-6934 2257,-14061 9191,-15919 6934,-1858 14061,2257 15919,9191 1858,6934 -2257,14061 -9191,15919z"/>
     <path class="fil5" d="M30275 26536c1735,6474 9446,10032 17222,7948 1603,-429 3083,-1064 4408,-1859 -1524,3513 -4578,6323 -8565,7391 -6934,1858 -14061,-2257 -15919,-9191 -1430,-5337 679,-10789 4888,-13864 -2075,2840 -2920,6268 -2034,9575z"/>
     <path class="fil6" d="M47930 35287l31 114c23,88 -33,193 -126,213 -94,21 -190,-27 -216,-121l-30 -115c-24,-87 32,-192 126,-213 93,-20 190,28 215,122z"/>
     <path class="fil6" d="M45971 37435c-76,20 -106,-94 -30,-114 76,-20 106,94 30,114z"/>
     <path class="fil6" d="M44889 36553l15 57c12,46 -18,97 -64,109 -48,7 -98,-17 -110,-62l-16 -57c-12,-46 18,-96 65,-109 48,-7 98,17 110,62z"/>
     <path class="fil5" d="M45240 32423c800,114 1520,-244 1716,-817 30,120 39,244 23,369 -87,683 -877,1134 -1763,1007 -886,-126 -1533,-782 -1445,-1466 8,-66 25,-129 46,-190 134,536 699,994 1423,1097z"/>
     <path class="fil7" d="M41474 18584l-58 15c-76,21 -105,-88 -29,-108l58 -16c76,-20 105,88 29,109z"/>
     <path class="fil7" d="M35410 20264l-33 -122c-44,-166 -305,-96 -260,70l32 122c42,155 302,85 261,-70z"/>
     <path class="fil7" d="M36129 16366l-36 -133c-32,-121 -181,-224 -314,-177 -133,48 -220,178 -184,311l35 133c33,122 179,214 315,177 133,-48 220,-178 184,-311z"/>
     <path class="fil7" d="M48358 25487c-22,-13 -44,-25 -74,-42 -29,-17 1,-67 30,-51 30,17 52,29 74,42 36,20 7,71 -30,51z"/>
     <path class="fil7" d="M42354 22706l-58 15c-70,19 -99,-89 -29,-108l58 -16c76,-20 105,88 29,109z"/>
     <path class="fil7" d="M44684 24114l15 57c20,75 -96,106 -116,32l-15 -58c-20,-74 96,-105 116,-31z"/>
     <path class="fil7" d="M47441 22203c-76,21 -105,-88 -29,-108 69,-19 98,90 29,108z"/>
     <path class="fil7" d="M46437 25024c-110,30 -155,-135 -44,-165 111,-30 155,135 44,165z"/>
     <path class="fil7" d="M47538 24919c-110,29 -156,-142 -46,-171 111,-30 157,141 46,171z"/>
     <path class="fil7" d="M45979 23547c-111,30 -155,-135 -44,-165 105,-28 155,136 44,165z"/>
     <path class="fil7" d="M46574 20622c-111,30 -156,-141 -46,-171 111,-29 157,142 46,171z"/>
     <path class="fil7" d="M45459 27008c-110,30 -155,-136 -44,-165 111,-30 155,135 44,165z"/>
     <path class="fil7" d="M38980 18357c22,12 45,30 73,41 96,54 131,185 75,280 -63,90 -184,128 -285,76 -24,-18 -46,-31 -74,-42 -89,-55 -130,-184 -75,-279 64,-90 184,-128 286,-76z"/>
     <path class="fil7" d="M43585 23761c-111,30 -157,-141 -46,-170 111,-30 157,141 46,170z"/>
     <path class="fil7" d="M43324 23276c-105,28 -149,-137 -44,-165 110,-30 155,135 44,165z"/>
     <path class="fil7" d="M37185 32198c-111,29 -157,-142 -46,-171 105,-28 150,143 46,171z"/>
     <path class="fil7" d="M43944 24404c-110,30 -156,-141 -45,-171 110,-29 156,141 45,171z"/>
     <path class="fil7" d="M43046 24334c-111,29 -155,-136 -44,-166 110,-29 154,136 44,166z"/>
     <path class="fil7" d="M43604 22853c-158,43 -93,287 65,244 170,-45 105,-289 -65,-244z"/>
     <path class="fil7" d="M46802 23421c-238,64 -140,430 98,366 249,-67 151,-432 -98,-366z"/>
     <path class="fil7" d="M48842 26866c-170,45 -102,300 68,254 158,-42 90,-297 -68,-254z"/>
     <path class="fil7" d="M42680 25607c-238,64 -140,430 98,366 249,-67 151,-433 -98,-366z"/>
     <path class="fil7" d="M46481 22225c-317,85 -186,572 131,487 328,-88 197,-575 -131,-487z"/>
     <path class="fil7" d="M35985 20610c-76,21 -107,-93 -31,-114 70,-18 101,96 31,114z"/>
     <path class="fil7" d="M37820 22548l-58 16c-46,12 -98,-17 -110,-62 -6,-47 18,-97 64,-109l59 -16c46,-12 98,17 110,62 12,46 -18,97 -65,109z"/>
     <path class="fil7" d="M37857 20566c-111,30 -155,-135 -44,-165 111,-29 155,136 44,165z"/>
     <path class="fil7" d="M38715 19787c-111,30 -156,-141 -46,-171 111,-29 157,141 46,171z"/>
     <path class="fil7" d="M42492 20497c-111,29 -157,-141 -46,-171 105,-28 157,141 46,171z"/>
     <path class="fil7" d="M40128 21313c-105,28 -149,-137 -44,-165 111,-29 155,136 44,165z"/>
     <path class="fil7" d="M40096 19539c-111,30 -157,-141 -46,-171 110,-29 156,141 46,171z"/>
     <path class="fil7" d="M42451 19647c-110,29 -156,-141 -46,-171 111,-30 157,141 46,171z"/>
     <path class="fil5" d="M32719 23594c674,962 1784,1356 2609,978 -102,154 -229,290 -381,401 -836,605 -2118,232 -2864,-833 -745,-1064 -672,-2418 164,-3022 81,-59 167,-106 255,-146 -454,690 -392,1752 217,2622z"/>
     <path class="fil7" d="M39082 32428l-124 34c-159,42 -93,286 65,244l124 -34c159,-42 105,-289 -65,-244z"/>
     <path class="fil7" d="M38281 20112c-249,67 -151,433 99,366 237,-64 139,-429 -99,-366z"/>
     <path class="fil7" d="M36291 24731c22,-53 56,-109 89,-166 84,-141 -142,-259 -226,-118 -22,54 -58,99 -92,155 -83,142 134,273 229,129z"/>
     <path class="fil7" d="M40739 24122c-170,45 -101,300 68,254 159,-42 91,-297 -68,-254z"/>
     <path class="fil7" d="M43965 26108l-35 -133c-24,-89 -141,-164 -240,-126 -102,27 -161,126 -134,226l36 133c24,88 130,167 229,129 102,-27 171,-129 144,-229z"/>
     <path class="fil7" d="M38597 28813c-407,109 -244,719 164,610 396,-106 232,-716 -164,-610z"/>
     <path class="fil7" d="M36092 26162c103,20 191,32 293,52 157,42 233,-217 68,-244 -102,-20 -194,-43 -293,-52 -168,-38 -236,206 -68,244z"/>
     <path class="fil7" d="M40733 22445c-158,42 -93,286 66,244 170,-45 104,-289 -66,-244z"/>
     <path class="fil5" d="M48909 30315c533,-128 897,-535 879,-949 49,69 85,145 106,228 114,456 -271,940 -861,1082 -589,142 -1160,-113 -1274,-568 -11,-44 -16,-89 -18,-133 218,307 686,456 1168,340z"/>
     <path class="fil7" d="M49195 22890c-408,109 -244,718 163,609 396,-106 233,-716 -163,-609z"/>
     <path class="fil6" d="M28718 28882c-220,59 -310,-275 -90,-334 220,-59 310,275 90,334z"/>
     <path class="fil6" d="M30065 27524c-293,78 -413,-368 -119,-446 293,-79 413,367 119,446z"/>
     <path class="fil6" d="M39720 38375c-595,160 -342,1104 253,945 625,-168 372,-1112 -253,-945z"/>
     <path class="fil6" d="M38809 34728l-124 33c-102,27 -169,140 -142,240 27,100 127,156 240,126l124 -33c102,-28 172,-130 145,-230 -38,-96 -141,-163 -243,-136z"/>
     <path class="fil7" d="M33755 20042c-70,18 -106,-94 -30,-114 75,-20 106,93 30,114z"/>
     <path class="fil6" d="M29023 30641c-250,67 -152,432 98,366 237,-64 139,-430 -98,-366z"/>
     <path class="fil6" d="M32600 33683c-146,40 -206,-183 -59,-222 146,-40 206,183 59,222z"/>
     <path class="fil6" d="M31753 33906c-70,18 -100,-95 -30,-114 75,-20 106,93 30,114z"/>
     <path class="fil6" d="M29702 32581c-105,28 -157,-141 -46,-171 111,-29 156,142 46,171z"/>
     <path class="fil6" d="M32944 32488c-159,42 -93,286 65,244 170,-46 104,-290 -65,-244z"/>
     <path class="fil7" d="M32098 25058l-32 -122c-45,-166 -305,-96 -261,70l33 122c42,154 302,85 260,-70z"/>
     <path class="fil7" d="M35215 33066c22,-54 56,-110 89,-166 84,-142 -142,-259 -226,-118 -22,54 -59,99 -92,155 -83,141 134,273 229,129z"/>
     <path class="fil7" d="M33568 22393c-110,30 -155,-135 -44,-165 111,-29 155,136 44,165z"/>
     <path class="fil7" d="M33070 23397c-90,24 -57,146 33,122 79,-21 47,-143 -33,-122z"/>
     <path class="fil7" d="M33452 28040c-33,57 -56,110 -88,167 -62,87 -29,209 68,254 89,60 213,27 260,-69 34,-57 69,-102 103,-158 47,-96 18,-207 -71,-266 -97,-46 -210,-15 -272,72z"/>
     <path class="fil7" d="M32425 30063c-942,253 -564,1662 377,1409 916,-245 538,-1654 -377,-1409z"/>
    </g>
    <g>
     <path class="fil8" d="M36608 38080c76,77 332,168 332,168l255 348c0,0 102,671 217,825 114,155 421,181 421,181 0,0 -460,2141 -421,2244 38,104 0,594 0,594 0,0 -447,1212 -447,1393 0,180 281,464 281,464 0,0 -409,1677 -383,1780 26,103 179,258 179,258 0,0 -108,256 -143,583l1473 0 303 -1073c0,0 204,-129 255,-387 51,-258 255,-1238 255,-1238l383 -1109 408 -2193 409 2193 382 1109c0,0 204,980 256,1238 51,258 255,387 255,387l303 1073 1472 0c-34,-327 -142,-583 -142,-583 0,0 153,-155 179,-258 25,-103 -383,-1780 -383,-1780 0,0 280,-284 280,-464 0,-181 -446,-1393 -446,-1393 0,0 -38,-490 0,-594 38,-103 -421,-2244 -421,-2244 0,0 306,-26 421,-181 115,-154 217,-825 217,-825l255 -348c0,0 255,-91 332,-168 76,-77 51,-232 51,-232 0,0 918,-748 918,-1058 0,-309 -535,-1599 -535,-1599 0,0 0,-310 0,-439 0,-129 -740,-1032 -740,-1032l-179 -748 -669 -148 -190 -626 -190 0c108,-248 168,-523 168,-812 0,-1119 -896,-2025 -2003,-2025 -1106,0 -2003,906 -2003,2025 0,289 60,564 168,812l-190 0 -189 626 -669 148 -179 748c0,0 -740,903 -740,1032 0,129 0,439 0,439 0,0 -536,1290 -536,1599 0,310 919,1058 919,1058 0,0 -26,155 51,232z"/>
     <path class="fil9" d="M39070 29579c-38,20 -76,41 -114,63 -36,22 -72,46 -107,70 -35,24 -69,49 -102,75 -33,26 -66,53 -97,81 -31,28 -61,57 -91,86 -29,30 -58,61 -85,92 -28,32 -54,64 -80,98 -26,33 -50,67 -74,103 -24,35 -47,71 -69,108 -22,38 -42,76 -62,115 -20,40 -39,80 -56,121 -18,42 -34,85 -49,128 -15,45 -29,90 -41,136 -13,48 -24,96 -34,144 -9,51 -17,102 -23,154 -6,55 -10,110 -12,166 -1,22 -1,44 -1,67 0,37 1,75 3,112 4,66 11,132 20,197 12,77 28,152 48,225 25,93 57,184 95,272 1,2 1,4 2,6l-173 0 -17 0 -37 124 -41 136 -41 136 -42 136 -28 94 -45 10 -145 32 -145 32 -145 32 -145 33 -44 9 -24 100 -34 143 -34 143 -35 143 -34 143 -18 76c0,0 -14,17 -37,46 -20,25 -47,58 -79,98 -24,30 -50,63 -79,99 -24,31 -51,65 -78,99 -25,32 -51,66 -77,100 -26,33 -51,67 -77,101 -25,34 -51,68 -75,101 -26,35 -51,70 -74,103 -27,37 -51,73 -72,106 -28,42 -51,80 -67,110 -16,31 -25,55 -25,69 0,23 0,52 0,83 0,55 0,119 0,177 0,91 0,167 0,178 0,0 0,1 0,1 0,0 -20,47 -51,125 -15,36 -32,79 -51,126 -15,40 -32,82 -50,128 -16,40 -32,83 -49,127 -16,42 -32,85 -49,129 -16,43 -32,86 -48,129 -16,44 -31,87 -47,131 -15,44 -30,88 -45,131 -15,46 -30,91 -44,134 -15,47 -29,93 -41,136 -15,51 -27,98 -37,141 -14,61 -22,114 -24,153 0,3 0,6 0,9 0,94 85,229 203,371 154,185 364,381 517,517 116,103 199,170 199,170 0,0 -2,10 -3,26 -3,42 -3,129 39,188 4,7 9,13 15,18 64,65 254,139 314,161 11,5 18,7 18,7l31 43 224 305c0,0 7,45 19,115 10,59 25,137 42,219 16,76 34,157 55,232 30,113 65,211 101,259 73,99 224,145 324,166 56,12 97,15 97,15 0,0 -5,24 -15,68 -7,36 -18,86 -31,146 -9,44 -19,93 -31,146 -9,46 -19,95 -30,147 -10,47 -20,96 -31,147 -9,48 -20,97 -30,147 -10,48 -20,97 -30,147 -10,49 -20,98 -30,147 -9,50 -19,99 -29,148 -10,50 -20,100 -29,148 -3,18 -7,35 -10,52 -6,33 -13,65 -19,97 -9,51 -19,101 -28,149 -9,53 -18,103 -27,150 -9,55 -18,106 -25,152 -3,14 -5,27 -7,39 0,1 0,1 0,1 -10,66 -17,119 -20,157 -2,29 -2,49 1,56 12,33 16,104 17,186 0,78 -3,167 -7,241 -5,95 -10,167 -10,167 0,0 -11,28 -28,75 -20,57 -51,142 -87,242 -26,74 -55,156 -85,242 -27,79 -55,161 -82,242 -28,84 -54,166 -78,241 -29,94 -53,178 -68,242 -12,49 -19,87 -19,109 0,40 14,86 36,133 42,87 110,178 164,242 46,54 81,89 81,89 0,0 -14,58 -37,153 -16,65 -35,148 -58,241 -17,75 -37,157 -56,242 -19,79 -38,160 -56,242 -19,81 -37,163 -55,242 -17,77 -33,152 -48,221 -1,7 -3,14 -4,20 -1,5 -2,9 -3,13 -3,16 -6,32 -9,48 -4,16 -7,32 -10,48 -4,16 -7,32 -10,48 -3,16 -6,32 -9,48 -2,13 -5,25 -7,37 -1,4 -1,7 -2,11 -3,17 -6,33 -8,48 -3,17 -5,34 -7,48 -3,19 -4,36 -5,48 0,10 0,18 1,22 2,8 5,17 8,26 5,13 12,26 19,39 2,3 4,6 6,9 9,16 20,32 31,48 12,17 24,33 37,48 14,18 28,34 40,48 22,24 38,40 38,40 0,0 -1,3 -3,8 -4,8 -9,22 -16,41 -1,2 -2,4 -3,7 -5,14 -10,30 -16,48 -5,15 -10,31 -15,48 -5,15 -10,31 -15,48 -4,15 -8,31 -13,48 -3,14 -7,28 -11,43 0,1 0,3 -1,5 -4,15 -7,31 -11,48 -3,15 -7,31 -10,48 -3,15 -6,32 -9,48 -1,8 -3,16 -4,24 0,1 0,1 0,2 0,1 -1,3 -1,4 0,2 0,3 -1,5 0,1 0,2 0,4 0,1 -1,2 -1,4 0,1 0,3 0,4 -1,0 -1,1 -1,1 0,1 0,2 0,3 0,2 -1,3 -1,4 0,2 0,3 0,5 -1,1 -1,2 -1,4 0,1 0,3 -1,4 0,1 0,3 0,4 0,2 -1,3 -1,4 0,2 0,3 0,5 -1,1 -1,2 -1,4 0,1 0,3 0,4 -1,1 -1,2 -1,3 0,1 0,1 0,1 0,1 0,2 0,3 0,0 0,1 -1,1 0,2 0,3 0,5 0,1 0,2 -1,4 0,1 0,3 0,4 0,1 0,3 -1,4 0,2 0,3 0,4 0,2 0,3 -1,5 0,1 0,2 0,4 0,1 0,3 -1,4 0,1 0,3 0,4 0,2 0,3 0,4 -1,1 -1,2 -1,4l135 0 0 -4 0 -4 0 -4 0 -4 0 -4 0 -3c0,-1 0,-1 0,-2 0,-1 0,-2 0,-4 0,-1 0,-3 0,-4 0,-1 0,-3 0,-4 0,-2 0,-3 0,-4 0,-2 0,-3 0,-5 0,0 0,-1 0,-1 0,-1 1,-2 1,-3 0,0 0,0 0,-1 0,-1 0,-2 0,-3 0,-1 0,-3 0,-4 0,-2 0,-3 0,-4 0,-2 0,-3 0,-5 0,-1 0,-2 0,-4 0,-1 0,-3 0,-4 1,-1 1,-3 1,-4 0,-2 0,-3 0,-4 0,-2 0,-3 0,-5 0,-1 0,-2 0,-4 0,-1 0,-2 0,-3 0,0 0,-1 0,-1 0,0 0,0 0,0 1,-1 1,-3 1,-4 0,-2 0,-3 0,-4 0,-2 0,-3 0,-4 0,-2 0,-3 0,-5 1,-1 1,-3 1,-4 0,-1 0,-3 0,-4 0,-1 0,-3 0,-4 0,-2 0,-3 1,-4 0,-1 0,-2 0,-3 0,-4 0,-7 1,-11 0,-9 1,-18 2,-26 0,-8 1,-15 2,-22 2,-16 3,-32 5,-48 1,-1 1,-2 1,-3 2,-15 4,-30 6,-45 0,-2 1,-4 1,-5 1,-8 2,-16 4,-23 1,-7 2,-14 3,-20 3,-16 6,-33 9,-48 0,-2 0,-4 1,-6 3,-14 5,-28 9,-42 2,-11 4,-21 6,-31 2,-6 3,-11 4,-17 4,-17 8,-33 12,-48 1,-3 1,-5 2,-7 0,0 0,-1 0,-1 4,-14 8,-27 11,-40 3,-12 7,-22 10,-33 1,-5 3,-10 4,-15 6,-18 11,-34 15,-48 2,-4 3,-7 4,-10 5,-15 9,-27 13,-38 6,-16 10,-28 13,-35l3 -8 -2 -2c2,-1 4,-2 6,-3 5,-3 11,-6 17,-9 22,-12 47,-26 69,-39 6,-4 12,-8 18,-12 9,-6 17,-12 23,-17 5,-4 11,-11 17,-19 7,-10 15,-23 23,-37 2,-4 4,-8 6,-11 8,-15 16,-32 25,-48 2,-5 4,-10 7,-14 3,-7 6,-14 10,-21 3,-8 7,-16 10,-24 5,-10 9,-19 13,-29 16,-34 27,-62 32,-73l2 -5 -5 5 -72 73c-10,10 -19,20 -29,29 -7,7 -13,13 -19,19 -10,9 -18,18 -27,26 -5,5 -10,9 -15,14 -9,9 -17,15 -22,19 -9,7 -28,17 -52,29 -8,3 -15,7 -24,11 -27,12 -58,26 -85,37 -3,1 -6,2 -9,4 -1,-2 -2,-3 -3,-4 -9,-12 -18,-25 -27,-37 -2,-4 -5,-8 -7,-11 -10,-16 -20,-32 -28,-48 -3,-5 -5,-10 -7,-14 -6,-12 -10,-23 -13,-34 -1,-3 -2,-6 -3,-8 0,-1 0,-2 0,-3 -1,-6 -1,-16 0,-29 0,-2 1,-5 1,-8 1,-14 3,-30 6,-48 1,-6 1,-11 2,-17l5 -31 1 -3 6 -39 12 -67 2 -6 14 -73 14 -73 15 -73 4 -16 12 -57 15 -74 16 -73 8 -38 8 -35 16 -73 16 -73 13 -61 3 -12 16 -73 17 -73 16 -73 3 -11 14 -63 17 -73 17 -73 7 -32 9 -41 17 -73 17 -73 13 -55 5 -18 8 -38 28 -35 57 -73 58 -74 3 -4 54 -69 23 -29 -59 29 -139 69 -9 4 -120 60c-14,-19 -29,-39 -44,-60 -1,-1 -2,-3 -3,-4 -15,-22 -30,-45 -44,-69 -13,-21 -24,-43 -35,-64l9 -9 74 -73 27 -27 47 -46 50 -49 -141 49 -102 35 -1 -17 1 -18c2,-19 6,-43 13,-73 5,-22 11,-46 18,-73l13 -50 6 -23 21 -73 22 -74 23 -71 0 -2 23 -73 24 -73 23 -73 7 -21 18 -52 24 -73 25 -73 14 -44 10 -29 26 -74 25 -73 23 -66 2 -7 26 -73 24 -69 5 -4 90 -73 19 -16 72 -57 90 -73 83 -68 -176 68 -161 61 3 -61 3 -74 1 -37 1 -36c0,-25 1,-49 1,-73 -1,-26 -1,-50 -2,-73 -1,-22 -3,-43 -5,-60 -1,-5 -1,-9 -2,-13 -2,-14 -4,-26 -8,-35 -2,-6 -2,-19 -1,-38 0,-14 2,-32 4,-52 0,0 0,-1 0,-1 1,-6 2,-13 3,-20l9 -73 5 -28 6 -46 12 -73 6 -34 6 -39 13 -73 7 -39 6 -34 13 -73 8 -43 6 -30 13 -73 9 -47 5 -26 14 -74 9 -49 5 -24 14 -73 10 -51 4 -22 14 -73 11 -54 4 -19 14 -73 11 -56 3 -17 15 -73 11 -58 4 -16 7 -38 7 -35 12 -58 3 -15 15 -73 12 -59 3 -14 15 -73 12 -61 2 -12 15 -73 13 -62 3 -11 10 -49c0,0 -36,-3 -87,-14 -14,-3 -30,-6 -47,-11 -57,-14 -123,-37 -179,-73 -32,-20 -61,-44 -83,-73l-6 -7c-12,-16 -23,-39 -35,-66 -9,-22 -18,-46 -27,-73 -8,-23 -15,-48 -22,-73 -3,-11 -6,-21 -9,-32 -4,-13 -7,-27 -11,-41l-17 -73 -17 -73 -8 -43 -7 -31 -14 -73 -13 -73 -1 -7 11 -17 35 -49 38 -55 13 -18 51 -73 9 -14 41 -59 9 -13 -23 13 -56 30 -79 43 -36 19 -48 26 -32 -45 -52 -73 -52 -73 -44 -62 -8 -12 -46 -64 -22 -9c-4,-1 -8,-3 -13,-5 -37,-14 -97,-39 -153,-68 -46,-23 -89,-48 -117,-73l-11 -10c-17,-18 -28,-40 -36,-63 -9,-24 -13,-50 -15,-73 -1,-17 -1,-32 -1,-46 0,-10 1,-20 1,-27 2,-12 3,-19 3,-19 0,0 57,4 132,6 54,1 116,1 175,-3 12,-1 24,-2 36,-3 40,-4 81,-11 121,-18 57,-10 110,-21 147,-30 11,-2 21,-4 28,-6l23 -6 -72 -8 -200 -23 -199 -23 -123 -13 -62 -7 -16 -2 -166 -19 -49 -46 -78 -73 -75 -73 -73 -73c-24,-24 -47,-48 -71,-73 -22,-24 -45,-49 -67,-73 -21,-25 -42,-49 -63,-73 -20,-25 -40,-49 -59,-73 -19,-25 -37,-50 -54,-73 -17,-26 -33,-50 -46,-74 -15,-25 -28,-49 -38,-73 -10,-23 -17,-45 -22,-65 0,-3 -1,-5 -1,-8 -2,-12 -4,-24 -4,-35 0,-12 1,-24 2,-38 2,-22 6,-46 11,-73 1,-4 2,-9 3,-13 3,-19 8,-39 13,-60 5,-23 11,-48 18,-73l3 -10 17 -63 22 -74 0 -1 22 -72 21 -63 3 -10 24 -73 17 -50 8 -23 25 -73 12 -36 14 -37 26 -73 7 -20 19 -53 27 -74 1 -3 26 -70 23 -59 5 -14 28 -73 16 -41 6 -17c43,13 85,25 108,26 15,0 37,-4 62,-10 32,-8 68,-21 96,-31 15,-5 27,-10 37,-14 12,-4 19,-7 19,-7 0,0 -11,-1 -28,-2 -38,-2 -101,-7 -130,-13 -16,-3 -53,-16 -92,-32 -5,-1 -10,-3 -15,-5l-20 -8 6 -15 20 -50 15 -38c16,-1 34,-1 52,-2 60,-3 124,-8 161,-16 5,-2 10,-3 14,-4 9,-3 18,-8 29,-13 21,-12 45,-29 70,-48 11,-8 22,-17 33,-25 24,-20 46,-39 65,-54 8,-8 15,-14 21,-20l22 -19c0,0 -27,9 -63,19 0,0 0,0 0,0 -46,14 -107,31 -140,37 -1,0 -2,0 -3,0 -26,4 -99,5 -170,4 -27,0 -53,-1 -77,-1l0 -40 0 -36 0 -37 0 -73 0 -67 0 -6 0 -66 1 -7c2,-16 12,-40 28,-70 0,-1 1,-2 1,-3 12,-22 26,-46 43,-73 7,-11 14,-23 22,-35 8,-12 16,-25 25,-38 14,-22 29,-45 45,-68 24,-34 48,-69 74,-104 24,-34 49,-69 74,-103 25,-34 50,-68 75,-102 26,-34 52,-68 77,-101 26,-35 52,-69 76,-100 29,-37 55,-71 78,-100 7,-9 13,-18 19,-26l228 96 269 112 -408 -386 8 -35 33 -144 33 -143 34 -144 33 -144 7 -32 113 -26 144 -33 144 -33 144 -33 93 -21 15 -49 40 -137 40 -137 40 -137 40 -137 6 -18 153 0 28 0c-32,-75 -59,-152 -81,-231 -22,-75 -39,-151 -52,-229 -11,-66 -19,-133 -23,-200 -3,-46 -5,-93 -5,-140 0,-14 0,-28 1,-42 1,-56 4,-112 10,-167 5,-53 12,-104 21,-156 9,-49 20,-98 32,-145 12,-47 25,-93 40,-138 14,-44 30,-87 47,-129 17,-42 36,-83 55,-123 19,-39 40,-78 61,-116 22,-37 44,-74 68,-110 23,-35 47,-70 73,-104 25,-33 52,-66 79,-98 27,-32 56,-62 85,-92 29,-30 59,-59 90,-87 31,-28 63,-55 96,-81 33,-27 67,-52 102,-76 35,-24 72,-47 108,-69 38,-22 76,-43 115,-62 40,-20 80,-39 122,-56 42,-17 85,-33 129,-48 45,-15 91,-28 138,-39 38,-10 76,-18 115,-25 11,-2 21,-3 32,-5 52,-8 105,-15 159,-18 19,-2 38,-3 57,-3 15,-1 30,-1 45,-2l59 0c4,0 8,0 12,1 65,1 129,6 192,14 52,6 103,15 153,26 22,5 44,10 65,15 92,23 181,54 268,90 11,5 23,10 35,16 18,8 37,17 55,25 124,61 242,136 350,223 113,90 215,192 306,305 108,136 200,286 271,449 39,88 72,180 98,275 20,73 36,149 49,226 10,65 17,132 21,199 3,42 4,85 4,127 0,18 0,36 0,53 -2,56 -6,112 -11,167 -5,44 -11,88 -19,131 -1,8 -2,16 -4,24 -4,21 -8,42 -12,63 -6,28 -13,55 -20,82 -2,7 -4,14 -6,22 -9,34 -19,68 -30,102 -1,4 -3,8 -4,12 -10,30 -21,59 -32,88 -5,14 -11,28 -16,41 -2,5 -4,10 -6,15l20 0 161 0 35 120 32 108 5 16 36 124 32 110 4 13 36 124 125 28 230 53 230 53 53 12 12 53 4 16 28 121 22 94 6 27 28 122 15 65 4 16 30 128 -41 38 -43 41 -28 27 -20 18 -68 65 -23 22 -65 61 -26 25 -62 58 -29 28 -4 3 5 -2 52 -21 73 -31 77 -32 48 -20 27 -12 98 -40 117 -50c110,141 330,427 481,648 13,19 26,38 38,56 17,25 33,50 47,73 16,27 31,51 42,73 17,31 27,56 30,73l1 7 0 52 0 14 0 73 0 73 0 18 0 55 0 40c-25,0 -53,1 -81,1 -70,1 -141,0 -166,-4 -6,0 -12,-2 -18,-3 -35,-7 -86,-22 -126,-34 -35,-10 -62,-19 -62,-19l21 19c20,18 52,46 86,74 35,28 73,56 104,73 10,5 20,10 28,13 19,6 52,11 89,14 44,4 95,6 139,8l15 38 25 65 -20 8c-10,4 -20,8 -29,11 -34,13 -63,23 -77,26 -16,3 -41,6 -66,8 -46,4 -93,7 -93,7 0,0 24,9 56,21 28,10 63,22 95,30 25,7 48,11 63,11 22,-1 61,-12 101,-24 2,-1 5,-1 7,-2l7 16 16 42 28 73 27 73 27 73 9 23 18 51 27 73 26 73 26 73 2 7 23 66 25 73 24 73 17 54 6 19 23 73 21 74 21 73c1,4 2,8 3,12 5,21 10,41 15,61 6,26 11,50 15,73 5,27 9,51 11,73l1 13 1 9 0 27c-1,8 -2,16 -3,24 -5,23 -13,47 -24,73 -1,4 -3,8 -5,13 -9,19 -20,39 -32,60 -10,17 -21,35 -33,52 -4,7 -9,14 -14,22 -16,23 -34,48 -54,73 -2,2 -4,5 -6,8 -17,21 -34,43 -53,65 -9,11 -18,21 -27,32 -12,14 -24,27 -36,41 -16,18 -32,35 -48,53 -6,6 -13,13 -19,20l-67 70 -3 3 -73 73 -13 13 -62 60 -29 27 -49 46 -42 39 -8 7 -146 17 -97 11 -62 7 -160 18 -159 18 -159 18 -54 6 22 6c14,3 34,8 57,13 58,13 139,29 215,38 9,1 17,2 25,3 51,5 109,6 162,6 78,0 147,-4 171,-6 6,0 10,0 10,0 0,0 1,4 1,11 1,3 1,5 1,8 2,17 3,43 0,73 -2,23 -6,49 -14,73 -1,3 -2,5 -3,8 -8,20 -19,39 -34,55l-10 10c-11,10 -24,19 -39,29 -23,15 -50,30 -78,44 -12,6 -25,12 -37,18 -48,23 -95,42 -124,53 -2,1 -4,2 -5,2l-23 9 -46 64 -11 17 -41 57 -33 46 -19 27 -51 73 -4 4 -29 41 -84 -45 -134 -73 -16 -9 -8 -4 9 13 51 73 51 73 51 73 46 66 -2 7 -11 63 -2 10 -14 73 -13 65 -2 9 -16 73 -15 62 -3 11c-6,25 -13,49 -19,73 -6,19 -11,37 -17,55 -2,6 -4,12 -5,18 -9,27 -18,51 -28,73 -5,13 -11,25 -17,36 -6,12 -12,22 -18,30l-5 7c-17,22 -37,41 -60,57 -8,6 -15,11 -24,16 -29,19 -60,33 -92,46 -30,11 -59,20 -87,27 -18,5 -35,9 -51,12 -48,10 -82,13 -82,13l10 49 11 54 4 19 15 73 15 73 12 58 3 15 15 73 15 73 12 61 2 12 15 73 14 74 13 63 2 10 15 73 14 73 13 64 1 9 15 73 14 73 12 65 2 8 14 73 14 74 12 64 1 9 14 73 13 73 12 62 2 11 12 73 13 73 10 58 2 15 12 73 11 74 6 46 4 27c1,7 2,14 2,20 0,0 0,1 0,1 3,20 4,38 5,52 1,19 0,32 -2,38 -3,9 -6,21 -8,35 0,4 -1,8 -1,13 -3,17 -4,38 -5,60 -1,23 -2,47 -2,73 0,24 0,48 1,73l0 36 1 37 3 74 4 61 -162 -61 -176 -68 83 68 91 73 71 57 19 16 90 73 6 4 24 69 25 73 3 7 23 66 25 73 25 74 10 29 15 44 25 73 24 73 17 52 7 21 24 73 23 73 24 73 0 2 22 71 22 74 21 73 7 23 13 50c7,27 13,51 18,73 6,30 11,54 13,73l1 18 -2 17 -101 -35 -141 -49 49 49 47 46 27 27 74 73 9 9c-10,21 -22,43 -34,64 -14,24 -29,47 -45,69 -1,1 -2,3 -3,4 -14,21 -29,41 -44,60l-120 -60 -9 -4 -138 -69 -59 -29 23 29 53 69 4 4 57 74 57 73 28 35 9 38 4 18 13 55 17 73 17 73 9 41 8 32 17 73 16 73 15 63 2 11 17 73 16 73 17 73 2 12 14 61 16 73 16 73 7 35 9 38 15 73 16 74 12 57 3 16 15 73 15 73 14 73 1 6 12 67 12 73c5,31 8,55 9,73 1,13 1,23 1,29 -1,1 -1,2 -1,3 -3,13 -8,27 -15,42 -11,23 -26,48 -43,73 -9,14 -20,28 -30,41 -28,-12 -63,-27 -94,-41 -34,-16 -64,-31 -76,-40 -7,-6 -21,-18 -37,-33 -14,-14 -29,-29 -45,-45 -10,-9 -20,-19 -29,-29l-73 -73 -5 -5 3 5c4,11 16,39 31,73 4,10 9,19 13,29 7,15 14,30 21,45 12,25 25,51 38,73 15,26 29,47 39,56 7,5 14,11 23,17 25,17 59,35 88,51 8,4 16,8 23,12l-2 2 3 8c4,11 14,37 26,73 5,15 10,32 16,50 1,3 2,5 2,8 2,5 3,10 5,15 3,11 6,21 9,33 4,13 8,26 11,40 0,0 0,1 0,1 1,2 2,4 2,7 4,15 8,31 12,48 2,6 3,11 4,17 3,10 5,20 7,31 3,14 6,28 9,42 0,2 1,4 1,6 3,15 6,32 9,48 1,6 2,13 3,20 1,7 2,15 4,23 0,1 0,3 0,5 3,15 5,30 7,45 0,1 0,2 0,3 2,16 4,32 6,48 0,7 1,14 2,22 0,8 1,17 2,26 1,15 2,31 3,47 0,0 0,0 0,1 1,15 2,29 2,44 0,1 0,3 0,4 0,8 0,16 1,24l0 16 0 3 0 4 134 0c-1,-16 -3,-32 -5,-47 0,-1 0,-3 -1,-4 -2,-15 -4,-30 -6,-44 -2,-16 -5,-32 -8,-48 -3,-16 -6,-33 -9,-48 -3,-17 -6,-33 -10,-48 -3,-17 -7,-33 -11,-48 0,-2 0,-4 -1,-5 -3,-15 -7,-29 -11,-43 -4,-17 -8,-33 -13,-48 -5,-17 -9,-33 -14,-48 -5,-17 -10,-33 -15,-48 -6,-18 -12,-34 -17,-48 -1,-3 -2,-5 -2,-7 -7,-19 -13,-33 -16,-41 -2,-5 -3,-8 -3,-8 0,0 15,-15 36,-39 34,-38 83,-97 115,-154 13,-23 23,-45 28,-65 4,-18 -5,-82 -22,-177 -12,-67 -28,-150 -47,-242 -16,-75 -34,-157 -53,-241 -17,-79 -36,-161 -54,-242 -19,-82 -38,-163 -56,-242 -20,-85 -39,-167 -57,-242 -22,-93 -42,-176 -57,-241 -23,-95 -37,-153 -37,-153 0,0 35,-35 80,-89 54,-64 123,-155 164,-242 22,-47 36,-93 36,-133 0,-22 -6,-60 -18,-109 -15,-64 -40,-148 -69,-242 -23,-75 -50,-157 -78,-241 -26,-81 -54,-163 -82,-242 -29,-86 -58,-168 -85,-242 -35,-100 -66,-185 -87,-242 -17,-47 -27,-75 -27,-75 0,0 -6,-72 -10,-167 -4,-74 -7,-163 -7,-241 0,-82 5,-153 17,-186 3,-7 3,-27 0,-56 -3,-38 -10,-91 -20,-157 0,0 0,0 0,-1 -5,-34 -11,-73 -18,-114 -11,-65 -24,-137 -39,-215 -12,-69 -26,-143 -41,-218 -14,-72 -28,-146 -43,-221 -14,-73 -29,-147 -44,-221 -15,-75 -30,-150 -45,-222 -16,-77 -31,-152 -46,-224 -17,-80 -32,-155 -47,-223 -18,-88 -34,-165 -47,-225 -19,-92 -31,-147 -31,-147 0,0 21,-2 54,-7 37,-6 89,-17 143,-34 42,-14 85,-31 124,-54 37,-22 71,-48 96,-81 2,-1 3,-3 4,-5 19,-25 37,-65 55,-113 15,-40 29,-86 43,-135 12,-45 24,-93 35,-141 12,-50 22,-99 32,-146 11,-54 20,-105 28,-149 15,-84 24,-141 24,-141l5 -7 75 -103 75 -102 75 -102 25 -34c0,0 36,-13 85,-33 37,-15 81,-34 123,-55 42,-21 82,-44 110,-67 5,-4 10,-9 14,-13 27,-27 41,-65 48,-101 13,-67 3,-131 3,-131 0,0 8,-7 24,-20 21,-17 54,-45 96,-81 28,-25 60,-53 94,-83 30,-26 61,-55 93,-85 30,-27 61,-56 92,-85 29,-29 60,-58 89,-88 30,-29 59,-59 88,-90 29,-30 58,-61 85,-92 28,-32 56,-64 81,-96 28,-34 53,-68 76,-101 26,-39 49,-77 66,-112 22,-46 34,-88 34,-125 0,-5 0,-11 0,-18 -3,-53 -18,-129 -42,-219 -20,-76 -46,-162 -76,-253 -28,-87 -60,-179 -93,-270 -34,-95 -69,-191 -104,-281 -40,-106 -79,-205 -112,-290 -64,-160 -108,-268 -108,-268l0 -17 0 -178 0 -177 0 -67c0,-35 -57,-130 -139,-248 -186,-271 -505,-665 -583,-761 -12,-15 -18,-23 -18,-23l-55 -227 -55 -233 -17 -67 -13 -57 -26 -109 -3 -12 -10 -43 -54 -12 -228 -50 -85 -19 -143 -32 -160 -35 -10 -36 -38 -124 -6 -19 -32 -106 -37 -124 -7 -24 -31 -100 -28 -93 -134 0 -56 0c6,-13 11,-26 17,-39 5,-13 11,-27 16,-41 11,-29 22,-58 32,-88 1,-4 2,-8 4,-12 11,-34 21,-68 30,-102 2,-8 4,-15 6,-23 7,-27 13,-54 19,-81 4,-22 9,-43 12,-65 3,-13 5,-27 7,-41 6,-35 11,-71 14,-107 1,-3 1,-5 1,-7 4,-34 6,-68 8,-102 1,-22 2,-44 2,-65 0,-8 0,-15 0,-23 0,-5 1,-11 1,-16 0,-48 -2,-96 -5,-143 -5,-68 -13,-135 -24,-201 -14,-79 -31,-156 -53,-231 -29,-97 -64,-192 -107,-283 -200,-433 -549,-783 -979,-983 -2,-1 -4,-2 -7,-3 -13,-6 -26,-12 -39,-18 -79,-34 -159,-63 -242,-87 -34,-9 -69,-18 -103,-26 -42,-10 -83,-18 -126,-25 -65,-10 -131,-18 -199,-22 -40,-2 -80,-3 -120,-3 -16,0 -31,0 -47,0 -4,0 -9,1 -13,1 -55,1 -111,5 -165,12 -18,2 -36,4 -54,6 -33,5 -67,11 -100,17 -48,9 -96,21 -144,34 -45,12 -90,26 -135,42 -43,15 -85,31 -127,49 -41,18 -81,37 -121,57z"/>
     <path class="fil9" d="M38840 45579c-29,33 -55,57 -74,73 -3,2 -6,4 -8,6 -14,11 -22,16 -22,16l-14 51 -20 73 -9 34c32,-24 100,-82 157,-174 34,-54 64,-121 80,-200 2,-8 3,-18 5,-28 0,1 0,2 -1,3 -12,26 -26,51 -40,73 -18,28 -36,52 -54,73z"/>
     <path class="fil9" d="M41102 45658c57,92 126,150 158,174l-10 -34 -20 -73 -14 -51c0,0 -8,-5 -21,-16 -3,-2 -5,-4 -8,-6 -19,-16 -46,-40 -74,-73 -18,-21 -37,-45 -55,-73 -14,-22 -28,-47 -40,-73 0,-1 -1,-2 -1,-3 2,10 4,20 6,28 15,79 45,146 79,200z"/>
     <polygon class="fil9" points="40513,43482 40596,43724 40680,43966 40748,44162 40738,44117 40730,44076 40647,43482 40399,42976 40412,42871 40384,42804 40352,42709 40362,42653 40344,42590 40321,42346 40310,42297 40291,42196 40305,42160 40247,42052 40233,41928 40226,41881 40021,40900 39976,40778 39932,40925 39735,41789 39589,42583 39600,42774 39568,42950 39547,42992 39290,43757 39193,44028 39207,44089 39205,44162 39273,43966 39356,43724 39440,43482 39523,43241 39568,43111 39589,42999 39634,42757 39679,42515 39724,42273 39769,42032 39800,41863 39801,41862 39806,41834 39833,41685 39861,41535 39889,41386 39917,41237 39945,41087 39973,40938 39976,40918 39982,40947 40022,41165 40063,41383 40103,41600 40144,41818 40152,41862 40152,41863 40184,42032 40229,42273 40274,42515 40319,42757 40364,42999 40385,43111 40429,43241 "/>
    </g>
    <g>
     <path class="fil10" d="M39971 26343c-287,0 -533,101 -732,300 -199,199 -300,445 -300,732 0,286 101,533 300,732 199,199 445,300 732,300 113,0 220,-16 321,-48 153,-48 290,-132 410,-252 200,-200 301,-446 301,-732 0,-286 -101,-533 -301,-732 -199,-199 -445,-300 -731,-300z"/>
     <path class="fil11" d="M40702 26643c-199,-199 -445,-300 -731,-300 -93,0 -181,10 -265,31 193,40 363,133 508,278 200,200 301,446 301,732 0,286 -101,533 -300,732 -121,120 -258,204 -411,252 -19,6 -38,12 -57,16 72,15 146,23 224,23 113,0 220,-16 321,-48 153,-48 290,-132 410,-252 200,-200 301,-446 301,-732 0,-286 -101,-533 -301,-732z"/>
     <path class="fil10" d="M43427 18198c-630,-582 -1474,-877 -2509,-877 -1034,0 -1883,295 -2523,877 -556,505 -873,1166 -941,1963 -11,134 35,268 126,367 91,100 220,157 355,157l616 0c246,-1 452,-185 480,-430 49,-434 206,-768 482,-1021 334,-305 804,-460 1398,-460 591,0 1058,161 1387,480 327,318 493,774 493,1354 0,799 -229,1338 -681,1601 -475,276 -1223,411 -2224,402l-266 0c-266,0 -483,216 -483,482l0 2322c0,129 51,250 142,341 91,91 212,142 341,142l625 0c50,0 99,-8 144,-23 196,-61 338,-244 338,-460l0 -1504c0,-18 16,-34 34,-34 1164,-32 2059,-290 2659,-769 638,-509 961,-1317 961,-2401 0,-1079 -321,-1923 -954,-2509z"/>
     <path class="fil11" d="M43427 18198c-630,-582 -1474,-877 -2509,-877 -640,0 -1209,113 -1702,337 278,-54 575,-81 888,-81 1035,0 1879,295 2509,878 633,585 954,1429 954,2509 0,1083 -324,1891 -962,2400 -184,147 -396,274 -635,379 593,-126 1078,-338 1450,-635 638,-509 961,-1317 961,-2401 0,-1079 -321,-1923 -954,-2509z"/>
    </g>
    <g>
     <path class="fil12" d="M51454 47176c0,0 -11073,-1909 -22384,0l0 2168c3357,1878 7228,2948 11348,2948 3993,0 7751,-1005 11036,-2776l0 -2340z"/>
     <polygon class="fil12" points="51454,45987 47264,45759 45878,47570 51454,47925 "/>
     <polygon class="fil13" points="40343,46952 39157,45956 36165,45922 34626,47037 "/>
     <path class="fil13" d="M51454 47744c0,0 -11073,-1910 -22384,0l0 1600c3357,1878 7228,2948 11348,2948 3993,0 7751,-1005 11036,-2776l0 -1772z"/>
     <polygon class="fil12" points="34229,46952 33357,45759 29070,45888 29070,47946 "/>
     <polygon class="fil13" points="50183,47646 49118,46628 44447,46409 43472,47285 "/>
     <path class="fil14" d="M49929 45555c579,28 1101,78 1525,139l0 193c-1361,-191 -3533,-234 -4087,-14 -495,-245 776,-407 2562,-318z"/>
     <path class="fil15" d="M51454 46257c-1360,58 -3530,-109 -4087,-384 554,-220 2726,-177 4087,14l0 370z"/>
     <path class="fil13" d="M37664 45699c995,11 1709,181 1438,341 -411,-251 -2472,-273 -2883,-32 -272,-166 447,-321 1445,-309z"/>
     <path class="fil15" d="M39102 46040c-411,242 -2472,219 -2883,-32 411,-241 2472,-219 2883,32z"/>
     <path class="fil14" d="M29070 45572c446,-52 1011,-88 1637,-96 1708,-24 2966,166 2593,387 -467,-264 -2837,-298 -4230,-141l0 -150z"/>
     <path class="fil15" d="M29070 45722c1393,-157 3763,-123 4230,141 -468,276 -2838,373 -4230,253l0 -394z"/>
     <polygon class="fil13" points="35373,47259 34846,46513 30757,46686 30192,47886 "/>
     <path class="fil6" d="M49639 47071c0,0 -2250,742 -5377,827 -265,7 -303,359 -45,415 3751,817 6514,870 7237,868l0 -1831c-1938,-311 -1710,-279 -1815,-279z"/>
     <path class="fil7" d="M34922 51640c139,-12 284,-22 433,-29 1045,-45 1900,73 1910,265 1,25 -12,50 -38,75 -189,-178 -1015,-238 -1845,-205 -154,-34 -307,-69 -460,-106z"/>
     <path class="fil15" d="M35382 51746c830,-33 1656,27 1845,205 -38,36 -97,69 -173,100 -564,-82 -1121,-183 -1672,-305z"/>
     <path class="fil7" d="M43514 51876c-273,-236 449,-450 1441,-429 459,10 862,68 1131,150 -122,31 -245,61 -368,89 -796,-123 -1965,-64 -2204,190z"/>
     <path class="fil15" d="M43514 51876c239,-254 1409,-313 2204,-190 -605,141 -1220,259 -1842,351 -161,-43 -288,-96 -362,-161z"/>
     <path class="fil7" d="M48376 50897l-102 -13 -701 288c270,-87 538,-178 803,-275z"/>
     <path class="fil7" d="M34529 51541l-96 -219 -1881 -480 -173 25c702,258 1419,484 2150,674z"/>
     <path class="fil7" d="M48047 49243c-310,-313 836,-428 2335,-236 394,50 757,115 1072,187l0 205c-1206,-273 -2970,-406 -3407,-156z"/>
     <path class="fil15" d="M48047 49243c438,-250 2201,-117 3407,156l0 117c-250,135 -502,265 -757,390 -1122,-105 -2362,-372 -2650,-663z"/>
     <path class="fil13" d="M44510 46488c-358,-187 760,-297 2290,-220 1518,75 2613,292 2259,443 -577,-301 -3975,-467 -4549,-223z"/>
     <path class="fil15" d="M44510 46488c575,-244 3972,-78 4549,223 -574,243 -3972,77 -4549,-223z"/>
     <path class="fil7" d="M43117 47585c-173,-116 195,-253 724,-271 507,-17 880,87 758,209 -251,-167 -1297,-123 -1482,62z"/>
     <path class="fil15" d="M43117 47585c184,-185 1231,-230 1482,-62 -184,184 -1230,229 -1482,62z"/>
     <path class="fil13" d="M30830 46762c-359,-148 604,-350 1960,-407 1365,-56 2347,67 1985,245 -552,-227 -3393,-111 -3945,162z"/>
     <path class="fil15" d="M30830 46762c551,-272 3392,-389 3945,-162 -551,273 -3392,390 -3945,162z"/>
     <path class="fil7" d="M35918 47777c628,0 1084,145 912,291 -259,-220 -1564,-220 -1824,0 -172,-146 284,-291 912,-291z"/>
     <path class="fil15" d="M36830 48068c-259,220 -1564,221 -1824,0 260,-220 1565,-220 1824,0z"/>
     <path class="fil7" d="M29070 49001c406,-104 955,-193 1573,-243 1517,-124 2655,47 2315,347 -437,-317 -2698,-213 -3888,87l0 -191z"/>
     <path class="fil15" d="M29070 49192c1190,-300 3450,-405 3888,-87 -374,330 -2082,561 -3314,550 -193,-101 -384,-204 -574,-311l0 -152z"/>
     <polygon class="fil15" points="51454,46784 49582,47071 48789,48006 51454,48473 "/>
     <polygon class="fil15" points="32307,47886 29070,48234 29070,46895 31262,47200 "/>
     <path class="fil15" d="M47437 48514c0,-70 211,-127 471,-127 260,0 471,57 471,127 0,70 -211,126 -471,126 -260,0 -471,-56 -471,-126z"/>
     <path class="fil15" d="M33085 47777c0,-70 210,-126 471,-126 260,0 470,56 470,126 0,70 -210,126 -470,126 -261,0 -471,-56 -471,-126z"/>
     <path class="fil15" d="M45930 51263c0,-70 211,-126 471,-126 260,0 470,56 470,126 0,70 -210,127 -470,127 -260,0 -471,-57 -471,-127z"/>
     <path class="fil15" d="M36299 47580c-5,-85 247,-167 562,-183 316,-16 576,39 581,124 5,84 -247,166 -562,183 -316,16 -575,-40 -581,-124z"/>
     <path class="fil15" d="M44689 47348c6,-148 841,-116 834,31 -6,148 -841,117 -834,-31z"/>
    </g>
    <path class="fil6" d="M52499 38899c23,-37 70,-48 106,-24 36,23 47,70 24,107 -22,36 -69,47 -106,24 -35,-22 -46,-71 -24,-107z"/>
    <path class="fil16" d="M59069 36174c23,-36 70,-47 106,-24 36,22 47,71 25,107 -23,37 -70,48 -107,24 -35,-23 -46,-70 -24,-107l0 0z"/>
    <path class="fil13" d="M51445 36990c-26,45 -84,59 -128,31 -44,-28 -57,-85 -29,-129 26,-45 84,-58 128,-31 44,28 57,87 29,129z"/>
    <path class="fil16" d="M55990 38752c21,36 70,47 105,24 37,-22 48,-70 25,-107 -22,-36 -70,-47 -106,-24 -35,23 -46,70 -24,107z"/>
    <path class="fil16" d="M56196 41779c23,37 71,48 106,25 37,-23 48,-71 26,-107 -24,-37 -71,-48 -108,-25 -35,22 -46,71 -24,107l0 0z"/>
    <path class="fil13" d="M50911 41923c-22,37 -69,47 -105,26 -36,-24 -47,-71 -25,-108 22,-36 70,-47 106,-25 37,23 48,70 24,107z"/>
    <path class="fil6" d="M52176 40621c-122,4 -221,105 -222,229l-2 0c-1,-124 -99,-225 -221,-229 123,-4 222,-105 222,-231l1 0c0,126 99,227 222,231z"/>
    <path class="fil6" d="M23759 24413c-26,44 -84,59 -128,31 -44,-28 -57,-85 -29,-130 26,-44 84,-57 128,-31 44,28 57,87 29,130z"/>
    <path class="fil17" d="M25404 40457c-27,44 -84,59 -128,31 -45,-28 -58,-86 -30,-130 27,-44 84,-58 128,-31 45,28 58,87 30,130z"/>
    <path class="fil13" d="M43493 12473c45,-72 139,-94 209,-48 72,45 93,139 48,211 -44,72 -137,94 -209,48 -70,-43 -91,-139 -48,-211z"/>
    <path class="fil17" d="M32693 39872c-22,36 -69,47 -106,25 -35,-23 -46,-70 -24,-107 22,-36 69,-47 106,-25 36,23 47,70 24,107z"/>
    <path class="fil16" d="M18626 29118c-26,44 -84,59 -128,31 -44,-28 -58,-85 -30,-130 27,-44 84,-57 129,-31 44,28 57,87 29,130z"/>
    <path class="fil16" d="M63947 40471c23,-36 71,-47 106,-24 37,22 48,70 26,107 -23,37 -71,47 -107,24 -36,-23 -47,-70 -25,-107l0 0z"/>
    <path class="fil16" d="M58436 20029c-22,36 -70,47 -106,25 -35,-23 -46,-70 -24,-107 21,-36 69,-47 105,-25 37,23 48,70 25,107z"/>
    <path class="fil18" d="M24449 20184c0,42 -34,77 -76,77 -42,0 -77,-35 -77,-77 0,-42 35,-76 77,-76 42,0 76,34 76,76z"/>
    <path class="fil19" d="M51326 19931c0,41 -33,74 -74,74 -41,0 -74,-33 -74,-74 0,-41 33,-74 74,-74 41,0 74,33 74,74z"/>
    <path class="fil6" d="M25638 36455c0,42 -34,76 -76,76 -42,0 -76,-34 -76,-76 0,-42 34,-76 76,-76 42,0 76,34 76,76z"/>
    <path class="fil4" d="M44337 48591c-2220,-559 -4577,-802 -6676,-204 -283,81 -567,169 -855,263 1172,214 2379,326 3612,326 1342,0 2652,-133 3919,-385z"/>
    <g>
     <path class="fil6" d="M60861 24749c0,1079 -879,1958 -1958,1958 -1079,0 -1952,-879 -1952,-1958 0,-1079 873,-1953 1952,-1953 1079,0 1958,874 1958,1953z"/>
     <g>
      <path class="fil7" d="M57396 25988c-280,-337 -445,-765 -445,-1239 0,-1079 873,-1953 1952,-1953 605,0 1142,274 1502,702 0,0 -1473,-565 -2381,343 -908,908 -628,2147 -628,2147z"/>
      <path class="fil7" d="M59237 23670c-23,23 -46,46 -69,69 -34,34 -34,97 0,131 40,34 97,34 137,0 23,-23 40,-46 63,-63 34,-40 34,-103 0,-137 -34,-34 -97,-34 -131,0z"/>
      <path class="fil7" d="M59756 25920c126,0 126,-195 0,-195 -120,0 -120,195 0,195z"/>
      <path class="fil7" d="M58586 24452c160,0 160,-257 0,-257 -166,0 -166,257 0,257z"/>
     </g>
     <g>
      <path class="fil7" d="M58192 24778l69 0c80,0 80,-126 0,-126l-69 0c-80,0 -80,126 0,126z"/>
      <path class="fil7" d="M59516 25045c286,0 286,-445 0,-445 -285,0 -285,445 0,445z"/>
     </g>
    </g>
    <path class="fil18" d="M54094 30739c0,36 -28,65 -64,65 -36,0 -65,-29 -65,-65 0,-35 29,-64 65,-64 36,0 64,29 64,64z"/>
    <path class="fil20" d="M62625 12267c717,717 595,2002 -272,2870l-943 943c-868,868 -2153,989 -2871,272l-5327 -5327c-717,-718 -595,-2003 272,-2871l943 -943c868,-867 2153,-989 2871,-271l5327 5327z"/>
    <path class="fil21" d="M61692 12490c622,623 622,1631 0,2253l-676 676c-622,622 -1630,622 -2253,0l-4618 -4618c-622,-622 -622,-1631 0,-2253l676 -676c622,-622 1631,-622 2253,0l4618 4618z"/>
    <path class="fil22" d="M56511 8886c373,373 373,978 0,1352 -374,373 -979,373 -1352,0 -373,-374 -373,-979 0,-1352 373,-373 978,-373 1352,0z"/>
    <path class="fil22" d="M60664 13039c373,373 373,978 0,1352 -374,373 -979,373 -1352,0 -373,-374 -373,-979 0,-1352 373,-373 978,-373 1352,0z"/>
    <path class="fil23" d="M40418 48976c-11029,0 -19970,-8941 -19970,-19970 0,-11029 8941,-19970 19970,-19970 11029,0 19970,8941 19970,19970 0,11029 -8941,19970 -19970,19970zm0 -43257c-12861,0 -23286,10426 -23286,23287 0,12861 10425,23286 23286,23286 12861,0 23287,-10425 23287,-23286 0,-12861 -10426,-23287 -23287,-23287z"/>
    <path class="fil22" d="M41141 7335c0,361 -292,653 -653,653 -361,0 -653,-292 -653,-653 0,-360 292,-653 653,-653 361,0 653,293 653,653z"/>
    <path class="fil18" d="M58701 28561c0,47 -38,85 -84,85 -47,0 -85,-38 -85,-85 0,-46 38,-84 85,-84 46,0 84,38 84,84z"/>
    <g>
     <path class="fil6" d="M25497 31643c0,-297 -242,-540 -540,-540 -298,0 -538,243 -538,540 0,298 240,539 538,539 298,0 540,-241 540,-539z"/>
     <g>
      <path class="fil7" d="M24541 31302c-77,92 -122,211 -122,341 0,298 240,539 538,539 167,0 315,-76 414,-194 0,0 -406,156 -656,-94 -251,-251 -174,-592 -174,-592z"/>
      <path class="fil7" d="M25049 31941c-6,-7 -13,-13 -19,-19 -9,-10 -9,-27 0,-36 11,-10 27,-10 38,0 6,6 11,12 17,17 10,11 10,28 0,38 -9,9 -26,9 -36,0z"/>
      <path class="fil7" d="M25192 31320c35,0 35,54 0,54 -33,0 -33,-54 0,-54z"/>
      <path class="fil7" d="M24870 31725c44,0 44,71 0,71 -46,0 -46,-71 0,-71z"/>
     </g>
     <g>
      <path class="fil7" d="M24761 31635l19 0c22,0 22,35 0,35l-19 0c-22,0 -22,-35 0,-35z"/>
      <path class="fil7" d="M25126 31561c79,0 79,123 0,123 -79,0 -79,-123 0,-123z"/>
     </g>
    </g>
    <path class="fil4" d="M61692 14743l-676 676c-373,373 -885,523 -1369,448 98,144 195,288 290,434 434,-3 867,-170 1198,-501l725 -725c667,-667 667,-1749 0,-2417l-166 -166c620,622 620,1630 -2,2251z"/>
    <path class="fil4" d="M62630 12272c712,719 588,2000 -277,2865l-943 943c-348,348 -763,576 -1182,678 56,91 111,182 166,273 448,-90 898,-325 1270,-697l943 -943c867,-868 989,-2153 271,-2871l-247 -247 -1 -1z"/>
    <path class="fil22" d="M25853 13668c0,361 -293,653 -653,653 -361,0 -653,-292 -653,-653 0,-361 292,-653 653,-653 360,0 653,292 653,653z"/>
    <path class="fil22" d="M19520 28956c0,361 -292,653 -653,653 -360,0 -653,-292 -653,-653 0,-361 293,-653 653,-653 361,0 653,292 653,653z"/>
    <path class="fil22" d="M25853 44244c0,361 -293,653 -653,653 -361,0 -653,-292 -653,-653 0,-360 292,-653 653,-653 360,0 653,293 653,653z"/>
    <path class="fil22" d="M41141 50577c0,361 -292,653 -653,653 -361,0 -653,-292 -653,-653 0,-361 292,-653 653,-653 361,0 653,292 653,653z"/>
    <path class="fil22" d="M56429 44244c0,361 -292,653 -653,653 -361,0 -653,-292 -653,-653 0,-360 292,-653 653,-653 361,0 653,293 653,653z"/>
    <path class="fil22" d="M62762 28956c0,361 -293,653 -653,653 -361,0 -653,-292 -653,-653 0,-360 292,-653 653,-653 360,0 653,293 653,653z"/>
    <path class="fil22" d="M56429 13668c0,361 -292,653 -653,653 -361,0 -653,-292 -653,-653 0,-361 292,-653 653,-653 361,0 653,292 653,653z"/>
   </g>
   <path class="fil1" d="M97313 35524c2443,4282 -1241,8711 -5932,10791 -9585,4251 -17310,-7850 -15311,-12154 1920,-4133 16800,-6422 21243,1363z"/>
  </g>
 </g>
</svg>
