<?xml version="1.0" encoding="UTF-8"?>
<!DOCTYPE svg PUBLIC "-//W3C//DTD SVG 1.1//EN" "http://www.w3.org/Graphics/SVG/1.1/DTD/svg11.dtd">
<!-- Creator: CorelDRAW X7 -->
<svg xmlns="http://www.w3.org/2000/svg" xml:space="preserve" width="8.93063in" height="5.79594in" version="1.1" style="shape-rendering:geometricPrecision; text-rendering:geometricPrecision; image-rendering:optimizeQuality; fill-rule:evenodd; clip-rule:evenodd"
viewBox="0 0 89306 57959"
 xmlns:xlink="http://www.w3.org/1999/xlink">
 <defs>
  <style type="text/css">
   <![CDATA[
    .fil4 {fill:#F3EADA}
    .fil0 {fill:#F5EEE1}
    .fil3 {fill:#FCF8F2}
    .fil9 {fill:#D0B076;fill-rule:nonzero}
    .fil7 {fill:#D2AE6D;fill-rule:nonzero}
    .fil5 {fill:#D7B77D;fill-rule:nonzero}
    .fil8 {fill:#DCC08D;fill-rule:nonzero}
    .fil6 {fill:#E3CCA2;fill-rule:nonzero}
    .fil2 {fill:#E6D2AE;fill-rule:nonzero}
    .fil1 {fill:#EDDFC4;fill-rule:nonzero}
   ]]>
  </style>
 </defs>
 <g id="Layer_x0020_1">
  <metadata id="CorelCorpID_0Corel-Layer"/>
  <g id="_3027672247904">
   <path class="fil0" d="M23428 39687c-439,1558 -1250,3008 -2187,4319 -3891,5444 -4692,10116 -3745,13953l52399 0c-834,-1850 -1331,-4302 -1504,-7392 -667,-11920 -5548,-18609 -12821,-19704 -12502,-1881 -23209,16540 -32142,8824z"/>
   <path class="fil0" d="M27139 31808c2429,-464 5616,-2242 10629,-6026 2053,-1549 4279,-2732 6565,-3529 4499,-1567 9230,-1640 13328,-59 1296,500 2492,1149 3579,1934 3480,2513 5839,6427 6776,11357 1015,5339 2760,8596 5336,9959 825,437 1718,665 2664,733 4863,348 7913,-3579 13290,-5393l0 -2521c-6227,-433 -12862,801 -16320,-1819 -3357,-2544 -2283,-6667 -2060,-11138 497,-9946 -7089,-16306 -16844,-14248 -3991,842 -7860,2558 -11693,2324 -5182,-317 -6589,-5682 -9690,-9305 -7089,-8281 -19820,-3148 -19869,8206 -28,6597 6346,21044 14309,19525z"/>
   <g>
    <path class="fil1" d="M30162 23903c-407,255 -667,618 -773,1079 -106,461 -30,901 225,1308 256,407 619,667 1079,773 461,105 901,29 1308,-226 161,-101 299,-219 414,-354 175,-204 294,-446 359,-724 105,-461 30,-901 -226,-1308 -254,-407 -617,-667 -1079,-773 -460,-105 -900,-30 -1307,225z"/>
    <path class="fil2" d="M31469 23678c-460,-105 -900,-30 -1307,225 -131,83 -247,176 -348,281 309,-115 634,-135 970,-58 461,106 824,366 1079,773 255,407 331,847 225,1307 -64,278 -184,521 -358,725 -22,25 -44,50 -67,74 115,-43 227,-99 338,-168 161,-101 299,-219 414,-354 175,-204 294,-446 359,-724 105,-461 30,-901 -226,-1308 -254,-407 -617,-667 -1079,-773z"/>
    <path class="fil1" d="M27820 9246c-1414,-266 -2877,67 -4348,988 -1470,922 -2414,2097 -2806,3494 -340,1215 -202,2436 412,3629 103,201 287,351 505,411 218,60 453,25 645,-95l876 -549c349,-219 478,-665 299,-1037 -318,-661 -391,-1276 -224,-1881 202,-732 733,-1371 1576,-1900 841,-527 1649,-713 2400,-552 749,161 1391,660 1907,1485 713,1136 867,2106 459,2881 -430,817 -1372,1676 -2804,2553l-379 237c-378,237 -493,738 -256,1116l2069 3301c115,183 294,311 505,359 211,48 428,12 611,-103l888 -557c72,-45 134,-99 186,-160 223,-262 262,-649 70,-956l-1339 -2137c-17,-27 -9,-62 16,-79 1628,-1082 2669,-2247 3095,-3462 453,-1292 194,-2728 -772,-4269 -962,-1534 -2170,-2448 -3591,-2717z"/>
    <path class="fil2" d="M27820 9246c-1414,-266 -2877,67 -4348,988 -910,571 -1619,1239 -2120,1997 349,-325 745,-628 1191,-907 1471,-922 2933,-1254 4348,-988 1421,268 2629,1182 3591,2717 965,1541 1225,2977 772,4269 -131,373 -320,742 -566,1104 730,-706 1231,-1440 1495,-2194 453,-1292 194,-2728 -772,-4269 -962,-1534 -2170,-2448 -3591,-2717z"/>
   </g>
   <g>
    <path class="fil1" d="M70128 36106c-257,-227 -557,-331 -893,-311 -336,21 -621,161 -848,418 -227,256 -332,557 -311,892 21,336 161,622 417,848 102,90 211,161 326,212 175,78 364,111 567,99 336,-21 622,-161 848,-417 227,-256 331,-557 311,-893 -21,-336 -161,-622 -417,-848z"/>
    <path class="fil2" d="M70545 36954c-21,-336 -161,-622 -417,-848 -83,-73 -170,-134 -262,-181 141,188 220,406 235,651 20,336 -84,637 -311,893 -226,256 -512,396 -848,417 -203,12 -392,-21 -567,-99 -22,-9 -43,-20 -64,-31 52,70 113,136 183,197 101,90 210,161 325,212 175,78 364,111 567,99 336,-21 622,-161 848,-417 227,-256 331,-557 311,-893z"/>
    <path class="fil1" d="M79670 31552c-103,-1020 -625,-1952 -1551,-2772 -926,-818 -1920,-1227 -2953,-1213 -898,13 -1705,353 -2396,1013 -117,111 -182,267 -179,428 3,161 74,315 194,421l552 488c220,195 551,193 769,-5 388,-350 793,-524 1240,-531 541,-10 1085,224 1616,694 529,468 819,982 861,1528 41,544 -171,1083 -630,1602 -633,716 -1265,1017 -1877,894 -645,-128 -1421,-599 -2309,-1401l-238 -211c-239,-210 -604,-188 -815,50l-1838 2079c-102,115 -153,263 -143,417 9,154 78,295 193,397l560 494c45,40 94,72 146,95 224,100 497,49 668,-144l1190 -1346c15,-17 41,-19 57,-5 1068,894 2073,1371 2989,1417 974,49 1903,-418 2761,-1388 855,-966 1236,-1976 1133,-3001z"/>
    <path class="fil2" d="M79670 31552c-103,-1020 -625,-1952 -1551,-2772 -574,-507 -1173,-856 -1791,-1045 292,172 578,382 859,630 926,819 1448,1752 1551,2772 103,1025 -278,2035 -1132,3001 -859,970 -1788,1437 -2762,1388 -281,-14 -571,-69 -868,-164 630,356 1232,550 1800,579 974,49 1903,-418 2761,-1388 855,-966 1236,-1976 1133,-3001z"/>
   </g>
   <path class="fil3" d="M18059 26705c3095,4032 6958,7346 5369,12982 11335,10240 18439,-2596 24511,-6326 5064,-3111 11328,-2358 14643,1661 5178,6278 -698,15216 5218,22937l21506 0 0 -18292c-6700,317 -9182,3785 -13405,3706 -4501,-84 -6427,-4760 -7920,-9836 -2850,-9685 -11820,-20559 -21769,-18722 -13994,2584 -11872,18985 -28153,11890z"/>
   <path class="fil4" d="M8453 2615c907,30 1635,775 1640,1697l14 0c8,-922 735,-1667 1640,-1697 -910,-29 -1640,-781 -1640,-1708l-12 0c0,927 -730,1679 -1642,1708z"/>
   <path class="fil4" d="M67779 11291c1595,52 2873,1361 2882,2982l26 0c13,-1621 1291,-2930 2882,-2982 -1599,-52 -2882,-1374 -2882,-3003l-22 0c0,1629 -1283,2951 -2886,3003z"/>
   <g>
    <path class="fil5" d="M0 37779c0,-3658 2965,-6623 6623,-6623 3657,0 6622,2965 6622,6623 0,3657 -2965,6622 -6622,6622 -3658,0 -6623,-2965 -6623,-6622z"/>
    <path class="fil6" d="M145 36395c636,-2993 3295,-5239 6478,-5239 3657,0 6622,2965 6622,6623 0,838 -156,1640 -440,2378 -1059,-301 -2658,-834 -5037,-1722 -3491,-1302 -5898,-1883 -7623,-2040z"/>
    <path class="fil6" d="M6623 44401c-2690,0 -5006,-1604 -6043,-3908 1015,-35 2146,-135 3346,-345 2952,-515 5972,945 7679,1993 -1214,1386 -2996,2260 -4982,2260z"/>
    <path class="fil5" d="M13194 36953c-2116,-239 -4359,-805 -6413,-1944 -1827,-1014 -3276,-1756 -4419,-2300 1152,-969 2638,-1553 4261,-1553 3378,0 6165,2529 6571,5797z"/>
    <path class="fil7" d="M3854 42254c3351,0 6067,-2717 6067,-6068 0,-2072 -1039,-3902 -2625,-4996 3341,337 5950,3158 5950,6589 0,3657 -2966,6622 -6623,6622 -2200,0 -4150,-1073 -5354,-2724 784,370 1660,577 2585,577z"/>
   </g>
   <g>
    <path class="fil8" d="M40387 50635c-416,-538 -964,-854 -1628,-939 -664,-85 -1273,83 -1812,500 -539,417 -854,965 -939,1628 -84,664 84,1274 500,1812 165,213 351,392 557,535 312,217 671,352 1071,404 664,85 1274,-84 1812,-500 538,-416 854,-964 939,-1628 84,-665 -84,-1274 -500,-1812z"/>
    <path class="fil9" d="M40887 52447c84,-665 -84,-1274 -500,-1812 -134,-174 -282,-324 -444,-451 206,420 279,875 217,1359 -85,665 -401,1213 -939,1628 -538,417 -1147,585 -1811,500 -401,-51 -760,-187 -1072,-404 -38,-27 -76,-55 -113,-84 76,156 170,307 283,453 165,213 351,392 557,535 312,217 670,352 1071,404 664,85 1274,-84 1812,-500 538,-416 854,-964 939,-1628z"/>
    <path class="fil8" d="M60720 45291c178,-2031 -494,-4046 -1999,-5991 -1503,-1944 -3292,-3111 -5316,-3468 -1759,-310 -3460,55 -5057,1086 -269,173 -454,454 -509,770 -54,316 28,642 224,895l895 1158c358,462 1005,581 1505,277 887,-540 1744,-729 2620,-577 1060,183 2035,841 2897,1956 860,1112 1235,2225 1113,3306 -122,1078 -737,2052 -1827,2895 -1502,1163 -2847,1515 -3998,1049 -1211,-492 -2552,-1701 -3988,-3596l-388 -501c-387,-500 -1108,-592 -1609,-206l-4363 3376c-243,187 -398,458 -436,762 -39,304 43,605 230,847l909 1174c73,95 158,175 252,240 400,278 951,279 1356,-34l2827 -2186c34,-27 86,-22 113,12 1752,2143 3538,3449 5310,3880 1885,458 3874,-108 5910,-1684 2029,-1569 3149,-3399 3329,-5440z"/>
    <path class="fil9" d="M60720 45291c178,-2031 -494,-4046 -1999,-5991 -931,-1204 -1971,-2109 -3109,-2709 507,445 988,962 1444,1551 1504,1945 2177,3960 1998,5991 -179,2041 -1299,3871 -3328,5441 -2037,1575 -4026,2142 -5910,1683 -544,-132 -1090,-348 -1636,-644 1098,931 2203,1535 3301,1802 1885,458 3874,-108 5910,-1684 2029,-1569 3149,-3399 3329,-5440z"/>
   </g>
   <g>
    <path class="fil2" d="M43904 26696c-320,-82 -624,-40 -904,125 -280,165 -464,411 -546,731 -82,320 -40,624 125,904 165,280 411,463 731,546 127,32 251,46 372,39 185,-10 363,-64 532,-164 280,-165 463,-411 546,-731 82,-320 40,-624 -125,-904 -166,-280 -412,-463 -731,-546z"/>
    <path class="fil8" d="M44635 27242c-166,-280 -412,-463 -731,-546 -103,-26 -205,-40 -305,-41 204,100 367,253 488,457 165,280 207,584 125,904 -82,320 -266,566 -546,731 -169,99 -347,154 -531,164 -23,1 -46,1 -69,1 76,37 157,67 244,90 127,32 251,46 372,39 185,-10 363,-64 532,-164 280,-165 463,-411 546,-731 82,-320 40,-624 -125,-904z"/>
    <path class="fil2" d="M50109 18594c-537,-832 -1395,-1405 -2550,-1702 -1156,-298 -2189,-213 -3071,253 -767,405 -1311,1051 -1616,1922 -51,147 -39,309 34,446 74,138 202,239 353,277l688 178c274,70 558,-77 659,-342 179,-471 452,-799 832,-1002 461,-245 1031,-283 1694,-112 661,170 1136,485 1411,936 274,450 328,1006 162,1654 -231,893 -641,1429 -1221,1592 -611,172 -1485,108 -2600,-191l-298 -77c-297,-76 -601,103 -678,401l-668 2593c-37,144 -16,294 60,422 75,128 196,219 340,256l698 180c56,14 113,20 168,17 236,-13 448,-176 510,-417l433 -1680c5,-21 27,-34 47,-29 1310,300 2384,269 3191,-93 859,-386 1453,-1195 1765,-2405 311,-1206 195,-2241 -343,-3077z"/>
    <path class="fil8" d="M50109 18594c-537,-832 -1395,-1405 -2550,-1702 -716,-185 -1384,-222 -1999,-113 327,20 665,75 1015,165 1156,297 2014,870 2550,1702 539,836 654,1871 344,3077 -312,1210 -906,2019 -1765,2405 -248,111 -521,191 -819,240 698,30 1301,-68 1802,-292 859,-386 1453,-1195 1765,-2405 311,-1206 195,-2241 -343,-3077z"/>
   </g>
  </g>
 </g>
</svg>
