<?xml version="1.0" encoding="UTF-8"?>
<!DOCTYPE svg PUBLIC "-//W3C//DTD SVG 1.1//EN" "http://www.w3.org/Graphics/SVG/1.1/DTD/svg11.dtd">
<!-- Creator: CorelDRAW X7 -->
<svg xmlns="http://www.w3.org/2000/svg" xml:space="preserve" width="3.41102in" height="1.07992in" version="1.1" style="shape-rendering:geometricPrecision; text-rendering:geometricPrecision; image-rendering:optimizeQuality; fill-rule:evenodd; clip-rule:evenodd"
viewBox="0 0 34110 10799"
 xmlns:xlink="http://www.w3.org/1999/xlink">
 <defs>
  <style type="text/css">
   <![CDATA[
    .fil0 {fill:#7C94CA}
    .fil3 {fill:#DFE5F2}
    .fil1 {fill:white}
    .fil2 {fill:#7C94CA;fill-rule:nonzero}
   ]]>
  </style>
 </defs>
 <g id="Layer_x0020_1">
  <metadata id="CorelCorpID_0Corel-Layer"/>
  <g id="_2556916437248">
   <g>
    <g>
     <path class="fil0" d="M5399 0l23312 0c2969,0 5399,2430 5399,5399l0 1c0,2969 -2430,5399 -5399,5399l-23312 0c-2969,0 -5399,-2430 -5399,-5399l0 -1c0,-2969 2430,-5399 5399,-5399z"/>
     <rect class="fil1" x="239" y="239" width="33632" height="10321" rx="5161" ry="5161"/>
    </g>
    <path class="fil1" d="M5400 239l23311 0c2838,0 5160,2322 5160,5160 0,2839 -2322,5161 -5160,5161l-23311 0c-2839,0 -5161,-2322 -5161,-5161 0,-2838 2322,-5160 5161,-5160z"/>
   </g>
   <path class="fil0" d="M28866 9218c1020,0 1979,-398 2701,-1119 721,-721 1118,-1680 1118,-2699 0,-1020 -397,-1979 -1118,-2700 -722,-722 -1681,-1119 -2701,-1119 -1020,0 -1978,397 -2700,1119 -721,721 -1118,1680 -1118,2700 0,1019 397,1978 1118,2699 722,721 1680,1119 2700,1119zm-119 -5608l239 0 0 477 -239 0 0 -477zm0 954l239 0 0 2626 -239 0 0 -2626zm-2412 -1696c676,-676 1576,-1048 2531,-1048 956,0 1856,372 2531,1048 677,677 1049,1575 1049,2532 0,956 -372,1854 -1049,2531 -675,676 -1575,1049 -2531,1049 -955,0 -1855,-373 -2531,-1049 -676,-677 -1048,-1575 -1048,-2531 0,-957 372,-1855 1048,-2532z"/>
   <path class="fil2" d="M4068 6144l-123 0c-134,0 -263,-58 -385,-177 -33,40 -73,72 -119,98 -46,26 -95,46 -147,61 -53,15 -106,26 -160,32 -54,6 -106,9 -155,9 -39,0 -78,-2 -117,-6 -39,-5 -84,-13 -134,-23 -50,-11 -108,-25 -172,-43 -65,-18 -142,-40 -232,-67l109 -362c62,24 126,45 191,64 66,19 130,34 192,46 63,11 123,18 181,22 57,4 109,3 154,-4 46,-6 84,-17 116,-33 32,-17 53,-40 64,-68 5,-12 8,-23 8,-32 0,-10 -3,-22 -8,-35 -6,-13 -15,-29 -27,-48 -12,-18 -28,-42 -47,-73l-537 -756 318 -205 541 820c29,44 60,90 92,138 32,47 65,91 97,130 32,39 63,70 94,96 30,25 58,38 83,38l123 0 0 378zm1564 -377l0 377 -225 0c-86,0 -163,-11 -235,-35 -70,-23 -130,-57 -178,-102 -57,47 -124,82 -201,104 -77,22 -165,33 -264,33l-524 0 0 -377 524 0c61,0 111,-6 147,-18 37,-11 65,-25 84,-42 19,-18 31,-37 36,-58 6,-21 9,-42 9,-62l0 -491 375 0 0 480c0,46 10,81 30,107 21,26 44,45 70,58 25,12 51,20 76,22 25,3 43,4 51,4l225 0zm-616 1210l-254 -258 251 -260 261 260 -258 258zm-635 1l-254 -257 250 -261 261 261 -257 257zm2067 -2106c2,7 7,24 13,50 6,26 14,58 22,96 8,38 17,80 25,126 9,47 17,94 24,140 8,48 14,93 19,138 4,44 6,83 6,116 0,104 -17,195 -51,271 -35,76 -80,139 -135,188 -56,50 -118,87 -187,111 -69,24 -139,36 -208,36l-404 0 0 -377 414 0c12,0 30,-1 53,-5 22,-4 45,-13 67,-28 23,-15 43,-38 60,-69 18,-31 26,-73 26,-127 0,-22 -2,-49 -5,-81 -3,-31 -8,-66 -15,-102 -6,-36 -12,-73 -20,-111 -7,-38 -15,-74 -22,-108 -7,-34 -14,-64 -21,-92 -7,-28 -13,-50 -17,-65l356 -107zm-641 -608l273 -276 279 279 -276 276 -276 -279zm1479 1880l-377 0 0 -2185 377 0 0 2185zm2090 0l-123 0c-134,0 -263,-58 -385,-177 -33,40 -73,72 -119,98 -46,26 -95,46 -148,61 -52,15 -105,26 -160,32 -54,6 -105,9 -155,9 -38,0 -77,-2 -116,-6 -40,-5 -84,-13 -134,-23 -50,-11 -108,-25 -172,-43 -65,-18 -142,-40 -232,-67l109 -362c61,24 125,45 191,64 65,19 129,34 192,46 63,11 123,18 181,22 57,4 109,3 154,-4 46,-6 84,-17 116,-33 32,-17 53,-40 64,-68 5,-12 8,-23 8,-32 0,-10 -3,-22 -8,-35 -6,-13 -15,-29 -27,-48 -12,-18 -28,-42 -47,-73l-538 -756 318 -205 541 820c30,44 60,90 93,138 32,47 65,91 97,130 32,39 63,70 94,96 30,25 57,38 83,38l123 0 0 378zm792 -1272c2,7 7,24 13,50 6,26 14,58 22,96 8,38 17,80 25,126 9,47 17,94 24,140 8,48 14,93 19,138 4,44 6,83 6,116 0,104 -17,195 -51,271 -35,76 -80,139 -135,188 -56,50 -118,87 -187,111 -69,24 -139,36 -208,36l-404 0 0 -377 414 0c12,0 30,-1 53,-5 22,-4 45,-13 67,-28 23,-15 43,-38 60,-69 18,-31 26,-73 26,-127 0,-22 -2,-49 -5,-81 -3,-31 -8,-66 -15,-102 -6,-36 -12,-73 -20,-111 -7,-38 -15,-74 -22,-108 -7,-34 -14,-64 -21,-92 -7,-28 -13,-50 -17,-65l356 -107zm-652 1801l273 -276 278 279 -276 276 -275 -279zm3224 -529l-58 0c-42,0 -81,-2 -117,-7 -38,-5 -74,-19 -109,-43 -12,130 -42,249 -89,355 -48,106 -111,197 -191,272 -79,75 -174,133 -284,175 -110,41 -233,62 -371,62l-189 0 0 -377 189 0c97,0 181,-10 252,-30 71,-21 128,-53 174,-98 45,-44 79,-102 102,-173 22,-71 33,-158 33,-260l0 -923 377 0 0 454c0,46 10,83 30,112 20,28 42,50 68,65 25,16 50,26 75,31 24,5 41,8 50,8l58 0 0 377zm1047 -1272c3,7 7,24 14,50 6,26 14,58 21,96 9,38 17,80 25,126 9,47 17,94 25,140 7,48 13,93 18,138 5,44 7,83 7,116 0,104 -17,195 -52,271 -34,76 -79,139 -135,188 -55,50 -118,87 -186,111 -70,24 -139,36 -209,36l-653 0 0 -377 664 0c11,0 29,-1 52,-5 23,-4 46,-13 68,-28 23,-15 43,-38 60,-69 17,-31 26,-73 26,-127 0,-22 -2,-49 -6,-81 -3,-31 -8,-66 -14,-102 -6,-36 -13,-73 -21,-111 -7,-38 -15,-74 -21,-108 -8,-34 -15,-64 -21,-92 -8,-28 -13,-50 -17,-65l355 -107zm-150 -295l-254 -258 252 -261 260 261 -258 258zm-634 1l-254 -257 250 -261 260 261 -256 257zm5376 1566c-208,0 -368,-50 -478,-151 -57,46 -122,83 -194,110 -72,28 -145,41 -218,41 -189,0 -339,-50 -448,-151 -58,46 -122,83 -195,110 -72,28 -145,41 -217,41 -55,0 -104,-3 -149,-12 -45,-8 -90,-22 -133,-42l0 51c0,278 -75,484 -225,618 -150,134 -372,200 -667,200l-335 0c-80,0 -158,-10 -233,-29 -75,-19 -146,-47 -212,-83 -66,-36 -128,-79 -184,-130 -55,-50 -104,-107 -146,-170 -48,-78 -85,-162 -112,-251 -26,-89 -39,-187 -39,-294 0,-66 4,-133 13,-199 8,-66 22,-135 42,-205 18,-70 43,-143 72,-219 29,-76 65,-157 106,-243l339 165c-35,73 -65,141 -90,203 -26,62 -46,121 -62,177 -17,55 -28,109 -35,160 -7,52 -11,104 -11,156 0,66 9,129 28,189 19,59 42,112 69,160 49,72 112,129 192,172 79,43 167,64 263,64l335 0c106,0 194,-10 261,-29 67,-20 119,-49 156,-87 38,-38 64,-84 77,-138 14,-55 21,-117 21,-187l0 -1044 377 0 0 294c0,87 8,156 24,206 16,50 38,87 64,112 26,26 56,42 90,49 34,7 69,11 104,11 21,0 45,-4 72,-12 26,-8 52,-20 76,-38 24,-18 45,-43 61,-74 16,-31 24,-69 24,-114l0 -434 376 0 0 449c2,77 23,133 63,169 40,36 104,54 191,54 22,0 45,-4 72,-12 27,-8 52,-20 75,-38 23,-18 43,-43 60,-73 16,-30 23,-69 23,-115l0 -434 377 0 0 449c1,77 25,133 68,168 44,35 115,53 212,53l118 0 0 377 -118 0zm-1359 -1670l-258 262 -257 -258 257 -261 258 257zm650 -5l-255 257 -265 -254 261 -261 259 258zm-335 -428l-243 243 -239 -240 242 -242 240 239zm2750 1726l0 377 -224 0c-86,0 -164,-11 -235,-35 -71,-23 -130,-57 -179,-102 -56,47 -123,82 -201,104 -77,22 -165,33 -264,33l-524 0 0 -377 524 0c62,0 111,-6 148,-18 36,-11 64,-25 83,-42 19,-18 31,-37 37,-58 5,-21 8,-42 8,-62l0 -491 376 0 0 480c0,46 10,81 30,107 20,26 43,45 69,58 26,12 51,20 76,22 26,3 43,4 52,4l224 0zm-615 1210l-255 -258 251 -260 261 260 -257 258zm-635 1l-255 -257 250 -261 261 261 -256 257zm2066 -2106c2,7 7,24 14,50 6,26 13,58 21,96 9,38 17,80 25,126 9,47 17,94 25,140 7,48 13,93 18,138 4,44 7,83 7,116 0,104 -18,195 -52,271 -34,76 -79,139 -135,188 -55,50 -118,87 -187,111 -69,24 -138,36 -208,36l-403 0 0 -377 414 0c11,0 29,-1 52,-5 23,-4 45,-13 68,-28 22,-15 42,-38 60,-69 17,-31 26,-73 26,-127 0,-22 -2,-49 -6,-81 -3,-31 -8,-66 -14,-102 -6,-36 -13,-73 -21,-111 -7,-38 -15,-74 -21,-108 -8,-34 -15,-64 -22,-92 -7,-28 -12,-50 -16,-65l355 -107zm-652 1801l273 -276 279 279 -276 276 -276 -279z"/>
   <polygon class="fil3" points="23087,1563 22775,1563 22775,9236 23087,9236 "/>
   <polygon class="fil0" points="22618,1563 22775,1563 22775,9236 22618,9236 "/>
  </g>
 </g>
</svg>
