<?xml version="1.0" encoding="UTF-8"?>
<!DOCTYPE svg PUBLIC "-//W3C//DTD SVG 1.1//EN" "http://www.w3.org/Graphics/SVG/1.1/DTD/svg11.dtd">
<!-- Creator: CorelDRAW X7 -->
<svg xmlns="http://www.w3.org/2000/svg" xml:space="preserve" width="14.6343in" height="10.0687in" version="1.1" style="shape-rendering:geometricPrecision; text-rendering:geometricPrecision; image-rendering:optimizeQuality; fill-rule:evenodd; clip-rule:evenodd"
viewBox="0 0 146343 100687"
 xmlns:xlink="http://www.w3.org/1999/xlink">
 <defs>
  <style type="text/css">
   <![CDATA[
    .fil50 {fill:#657AA9}
    .fil48 {fill:#899FCF}
    .fil44 {fill:#8C89C1}
    .fil57 {fill:#9B98C9}
    .fil23 {fill:#9DAFD7}
    .fil37 {fill:#A5A2CE}
    .fil49 {fill:#A5B7DB}
    .fil38 {fill:#AABADC}
    .fil41 {fill:#AEBEDE}
    .fil61 {fill:#BBB8DA}
    .fil5 {fill:#BDBBDB}
    .fil51 {fill:#C2BFDE}
    .fil32 {fill:#C7A76C}
    .fil4 {fill:#CECBE4}
    .fil31 {fill:#D7B67C}
    .fil66 {fill:#D7B77D}
    .fil36 {fill:#D9D7EA}
    .fil69 {fill:#DFC596}
    .fil9 {fill:#DFC79C}
    .fil64 {fill:#E0E6F3}
    .fil33 {fill:#E3CCA2}
    .fil52 {fill:#E5E3F1}
    .fil70 {fill:#EBDABB}
    .fil39 {fill:#EBEFF7}
    .fil59 {fill:#EED5AB}
    .fil63 {fill:#EFF2F9}
    .fil68 {fill:#F1E5CF}
    .fil1 {fill:#F7F2E6}
    .fil2 {fill:#F8F3E8}
    .fil0 {fill:#FBF9F3}
    .fil42 {fill:#FBFCFE}
    .fil55 {fill:white}
    .fil20 {fill:#657AA9;fill-rule:nonzero}
    .fil43 {fill:#7084B0;fill-rule:nonzero}
    .fil27 {fill:#7C94CA;fill-rule:nonzero}
    .fil21 {fill:#899FCF;fill-rule:nonzero}
    .fil46 {fill:#8C89C1;fill-rule:nonzero}
    .fil53 {fill:#95A9D4;fill-rule:nonzero}
    .fil35 {fill:#9B98C9;fill-rule:nonzero}
    .fil12 {fill:#A38755;fill-rule:nonzero}
    .fil65 {fill:#A5B7DB;fill-rule:nonzero}
    .fil40 {fill:#AABADC;fill-rule:nonzero}
    .fil47 {fill:#ABBBE0;fill-rule:nonzero}
    .fil14 {fill:#B3C1E0;fill-rule:nonzero}
    .fil22 {fill:#B7C4E3;fill-rule:nonzero}
    .fil24 {fill:#B8C5E2;fill-rule:nonzero}
    .fil45 {fill:#BEBCDC;fill-rule:nonzero}
    .fil29 {fill:#C7A76C;fill-rule:nonzero}
    .fil54 {fill:#C8D2E9;fill-rule:nonzero}
    .fil25 {fill:#CAD4EB;fill-rule:nonzero}
    .fil7 {fill:#D4B47A;fill-rule:nonzero}
    .fil30 {fill:#D7B67C;fill-rule:nonzero}
    .fil15 {fill:#D7B77D;fill-rule:nonzero}
    .fil58 {fill:#D9D7EA;fill-rule:nonzero}
    .fil10 {fill:#DBBE8A;fill-rule:nonzero}
    .fil56 {fill:#DFC596;fill-rule:nonzero}
    .fil28 {fill:#E2CBA1;fill-rule:nonzero}
    .fil67 {fill:#E3CCA2;fill-rule:nonzero}
    .fil13 {fill:#E3CDA4;fill-rule:nonzero}
    .fil26 {fill:#E4E9F4;fill-rule:nonzero}
    .fil62 {fill:#E5E3F1;fill-rule:nonzero}
    .fil6 {fill:#E6D1AB;fill-rule:nonzero}
    .fil19 {fill:#E6D2AE;fill-rule:nonzero}
    .fil3 {fill:#E9E7F2;fill-rule:nonzero}
    .fil34 {fill:#EDDFC4;fill-rule:nonzero}
    .fil17 {fill:#F1E5CF;fill-rule:nonzero}
    .fil8 {fill:#F4E3C8;fill-rule:nonzero}
    .fil18 {fill:#FBF7F0;fill-rule:nonzero}
    .fil16 {fill:#FBFCFE;fill-rule:nonzero}
    .fil60 {fill:#FCE9CA;fill-rule:nonzero}
    .fil11 {fill:white;fill-rule:nonzero}
   ]]>
  </style>
 </defs>
 <g id="Layer_x0020_1">
  <metadata id="CorelCorpID_0Corel-Layer"/>
  <g id="_1742617021856">
   <g>
    <g>
     <path class="fil0" d="M0 44514c15171,7248 32570,7784 45733,1327 1101,-540 2161,-1122 3178,-1745 10001,-6124 15876,-16168 16654,-28643 404,-6459 1560,-11584 3503,-15453l75097 0c4132,16514 3191,28349 -9929,35878 -1422,816 -4592,1751 -6228,2088 -12914,2654 -29425,-4755 -40939,-6276 -10123,-1337 -16733,3047 -19931,18144 -3659,17276 -12718,29292 -26547,33808 -15669,5116 -28650,1641 -40591,-4076l0 -35052z"/>
     <path class="fil1" d="M0 0l48911 0 20157 0c-1943,3869 -3099,8994 -3503,15453 -778,12475 -6653,22519 -16654,28643 -1017,623 -2077,1205 -3178,1745 -13163,6457 -30562,5921 -45733,-1327l0 -44514z"/>
     <path class="fil2" d="M0 70693c3086,1609 6285,2927 9536,3944 10477,3277 21497,3428 31039,124 3019,-1046 5805,-2401 8336,-4042 8104,-5254 13597,-13435 15780,-23740 2597,-12258 5127,-33138 24940,-26090 8751,3113 17296,11861 27501,15090 6427,2033 13369,1958 18839,-1168 -7749,6312 -28324,3804 -43814,5025 -20190,1591 -21584,9253 -20879,24737 132,2890 140,5830 -71,8723 -1384,18962 -11971,28391 -31218,26108 -14445,-1712 -31080,-9224 -39989,-15212l0 -13499z"/>
    </g>
    <path class="fil1" d="M95375 0c5323,1296 9131,4021 12191,7117 6391,6466 9516,14553 16351,14627 10976,120 14153,-12931 13381,-21744l-41923 0z"/>
   </g>
   <g>
    <g>
     <g>
      <polygon class="fil3" points="62681,28995 96749,48549 96820,77150 62681,57552 "/>
      <g>
       <path class="fil4" d="M72794 51087l6620 3823 -27 9565 -6620 -3823 27 -9565zm7338 13818l27 -9565 13887 8017 -27 9565 -13887 -8017zm14015 -2945l-21349 -12326 3 -1084 21349 12326 -3 1084zm6 -1994l-21350 -12326 3 -1084 21350 12326 -3 1084zm6 -1993l-21350 -12327 3 -1086 21350 12326 -3 1087zm5 -1996l-21349 -12326 3 -1084 21349 12326 -3 1084zm6 -1994l-21350 -12326 3 -1084 21350 12326 -3 1084zm-22543 -14101l-57 20080 -7301 -4216 57 -20080 7301 4216zm24395 35911l67 -23498 -33408 -19293 0 23542 33341 19249z"/>
       <polygon class="fil5" points="86888,61630 86878,65160 88586,64379 "/>
      </g>
     </g>
     <g>
      <path class="fil6" d="M79973 64161l-4217 -2434c-176,-102 -277,-229 -300,-355l0 16057c-33,159 70,336 300,469l4217 2434c192,111 436,170 672,175l0 -16170c-236,-6 -480,-65 -672,-176z"/>
      <path class="fil7" d="M78902 81468l0 -10481 0 0 0 0c-20,97 -89,187 -211,257l-4396 2538c-154,89 -365,129 -583,123l0 10594c218,6 429,-34 583,-123l4396 -2538c168,-97 236,-233 211,-370z"/>
      <g>
       <path class="fil8" d="M85625 61675l-4397 2539c-320,185 -885,161 -1255,-52l-4217 -2435c-370,-213 -410,-540 -90,-725l4397 -2538c320,-185 886,-162 1256,52l4216 2434c370,214 411,540 90,725z"/>
       <path class="fil7" d="M85835 77476l0 -16057 0 0 0 -1c-19,97 -89,187 -210,257l-4397 2539c-154,88 -364,128 -583,123l0 16170c219,6 429,-34 583,-123l4397 -2538c168,-97 236,-232 210,-370z"/>
       <path class="fil8" d="M78691 71244l-4396 2538c-321,185 -886,162 -1256,-52l-4216 -2434c-371,-214 -411,-540 -91,-725l4397 -2539c321,-185 886,-161 1256,52l4216 2435c370,213 411,540 90,725z"/>
       <path class="fil6" d="M73039 73730l-4217 -2434c-176,-102 -277,-230 -300,-355l0 10480c-32,159 70,336 300,469l4217 2434c192,111 437,169 673,175l0 -10594c-236,-5 -481,-64 -673,-175z"/>
       <path class="fil8" d="M71911 79185l-4397 2539c-321,185 -886,161 -1256,-52l-4216 -2435c-371,-213 -411,-540 -90,-725l4396 -2538c321,-185 886,-162 1256,52l4216 2434c371,214 411,540 91,725z"/>
       <path class="fil7" d="M72121 85383l0 -6454c0,0 0,0 0,0l0 0c-20,96 -89,186 -210,256l-4397 2539c-154,89 -365,128 -583,123l0 6568c218,5 429,-35 583,-123l4397 -2539c167,-97 235,-232 210,-370z"/>
       <path class="fil6" d="M66258 81672l-4216 -2435c-177,-102 -277,-229 -301,-355l0 6455c-32,159 70,335 301,468l4216 2435c192,111 437,169 673,175l0 -6568c-236,-6 -481,-64 -673,-175z"/>
       <polygon class="fil9" points="70031,77428 68750,76688 65064,78816 66345,79556 "/>
       <polygon class="fil9" points="72218,72493 73499,73233 78400,70403 77119,69663 "/>
       <polygon class="fil9" points="80202,61457 81484,62197 84589,60404 83307,59664 "/>
      </g>
     </g>
     <g>
      <polygon class="fil10" points="30755,62271 40656,67987 40656,67171 30755,61457 "/>
      <polygon class="fil11" points="30755,61457 43485,54106 53386,59822 40656,67171 "/>
      <polygon class="fil12" points="40656,67987 53386,60639 53386,59822 40656,67171 "/>
      <polygon class="fil10" points="30755,58984 40656,64700 40656,63884 30755,58170 "/>
      <polygon class="fil13" points="53386,56535 40656,63883 30755,58170 43485,50818 "/>
      <polygon class="fil12" points="40656,64700 53386,57351 53386,56535 40656,63884 "/>
      <path class="fil14" d="M30755 58984l0 0c-736,437 -898,1433 -338,2082l338 391 9901 5714 12730 -7349 0 -2471 -12730 7349 -9901 -5716z"/>
      <path class="fil15" d="M30529 58302l226 -132 0 814c-736,437 -898,1433 -339,2082l339 391 0 814 -696 -746c-913,-977 -683,-2547 470,-3223z"/>
      <polygon class="fil16" points="35705,58597 44184,53665 48424,56144 39981,61030 "/>
     </g>
     <g>
      <path class="fil11" d="M55013 44490c3,2 6,4 10,6 51,37 102,75 152,115 6,5 11,10 17,14 49,40 96,81 143,125 7,7 14,14 22,21 40,38 78,77 117,117 10,11 21,22 31,33 29,31 57,63 85,96 20,23 40,45 60,69 8,9 15,19 23,29 83,103 162,210 236,323 0,1 1,3 2,4 74,113 141,230 203,350 5,9 10,17 14,26 13,25 25,52 38,78 19,40 39,81 57,122 7,15 13,30 19,44 22,51 42,102 61,153 5,12 10,25 14,37 22,60 42,120 61,181 3,8 5,17 8,26 18,62 35,124 49,186 2,6 3,12 5,19 15,66 28,133 39,199 0,0 0,0 0,1 10,66 18,132 24,197 0,5 0,11 1,16 5,65 8,130 8,194 0,63 -4,124 -9,183 -1,5 -1,10 -2,16 -3,28 -8,55 -12,82 -32,-12 -63,-23 -96,-38 -3,-2 -7,-4 -11,-5 -54,-25 -109,-54 -165,-86 -57,-33 -113,-68 -168,-107 -3,-2 -6,-4 -10,-7 -51,-36 -102,-74 -152,-114 -6,-5 -12,-10 -17,-15 -49,-39 -96,-81 -143,-124 -7,-7 -14,-14 -22,-21 -40,-38 -78,-77 -117,-117 -11,-11 -22,-22 -32,-34 -29,-30 -56,-63 -84,-95 -20,-23 -41,-46 -61,-70 -8,-9 -15,-20 -23,-29 -83,-103 -162,-211 -236,-323 -1,-1 -2,-3 -3,-5 -65,-101 -125,-206 -182,-313 -18,-35 -37,-68 -54,-103 -11,-22 -22,-45 -33,-67 -36,-78 -71,-156 -102,-235 -2,-4 -3,-9 -5,-14 -34,-86 -64,-173 -91,-260 -2,-7 -4,-13 -6,-20 -27,-93 -51,-186 -70,-279 -1,-5 -2,-9 -3,-14 -19,-95 -34,-191 -43,-285 0,-1 0,-2 0,-2 -7,-79 -11,-157 -11,-234 1,-63 4,-124 9,-183 1,-6 1,-11 2,-16 3,-29 8,-56 12,-84 32,13 64,24 97,39 4,2 7,3 11,5 54,26 110,54 166,86 56,33 112,68 167,107zm-283 -848c-24,14 -47,27 -71,41l-423 246c-36,21 -73,42 -109,64l-472 274c0,0 0,0 0,0 -51,29 -97,66 -141,107 -10,10 -21,20 -31,30 -42,43 -81,90 -116,143 0,1 -1,2 -2,2 -22,36 -43,74 -62,115 -1,1 -2,3 -2,4 -2,4 -4,9 -6,13 -11,25 -23,51 -33,78 -5,14 -9,28 -13,42 -3,8 -6,16 -9,24 -2,8 -5,15 -7,22 -8,28 -15,56 -22,86 -3,10 -4,21 -6,31 -2,7 -3,13 -4,20 -3,10 -5,20 -7,30 -4,27 -8,53 -11,80 -2,15 -4,31 -5,46 -1,5 -2,11 -2,16 -1,6 -1,13 -2,19 -2,26 -4,52 -5,79 -1,27 -1,53 -2,81l0 5c0,25 1,50 1,75 1,27 2,54 4,81 2,25 4,51 6,77 0,0 0,1 0,1 0,0 0,1 0,1 0,1 0,1 0,2 3,27 6,55 10,82 3,28 7,56 12,85 4,28 9,57 15,85 2,10 4,21 6,32 1,4 2,9 3,13 3,15 6,30 9,46 7,30 14,61 22,92 8,33 17,66 26,99 4,14 9,28 13,43 1,3 2,6 3,9 1,3 2,7 3,10 4,14 8,29 13,43 12,37 25,75 38,112 12,35 26,70 40,106 1,4 3,9 5,13 1,4 2,7 3,10 20,51 42,101 64,151 11,25 24,49 35,73 6,13 11,26 17,38 5,10 11,20 16,30 8,17 16,35 24,51 9,18 21,34 30,52 23,42 44,86 68,128 37,63 75,125 114,185 1,2 2,4 3,5 74,113 153,220 236,323 5,6 8,12 13,18 3,4 7,8 10,11 20,24 41,47 61,71 23,26 45,53 68,78 5,6 11,11 16,17 10,11 21,22 32,33 20,21 39,42 59,62 19,18 38,37 58,55 7,7 14,14 22,21 4,4 9,9 14,13 28,27 57,52 87,77 13,12 27,23 41,35 6,4 12,9 18,14 7,5 13,11 20,16 25,20 51,40 76,59 19,13 38,27 56,40 3,2 7,4 10,6 3,2 6,5 8,7 24,16 48,32 72,47 23,15 47,30 71,43 6,4 11,7 17,10 17,10 35,20 53,30 23,12 45,24 68,35 15,8 30,14 44,21 4,2 7,3 11,5 4,2 9,4 13,6 22,10 44,20 67,28 22,10 45,18 67,26 4,1 8,2 12,4 3,1 6,2 10,3 15,5 30,10 45,15 23,7 46,13 69,19 11,3 22,5 33,7 5,1 9,2 14,3 7,2 14,4 22,5 24,5 48,9 73,12 15,2 29,3 44,5 5,0 10,1 15,1 5,0 10,1 15,2 27,2 53,2 78,2 12,0 23,-1 34,-1 9,-1 18,-1 26,-2 9,0 18,0 27,-1 33,-3 65,-7 97,-14 0,0 1,0 1,0 8,-2 14,-5 21,-6 32,-7 64,-15 95,-26 2,-1 4,-2 7,-3 44,-17 87,-36 128,-59l0 0 0 0 0 0 0 0 1382 -804c51,-29 97,-67 141,-107 11,-10 21,-20 31,-31 42,-43 82,-89 116,-143 1,-1 1,-1 2,-2 23,-36 44,-74 63,-114 1,-1 1,-3 2,-4 2,-4 3,-9 5,-12 11,-26 23,-52 33,-79 5,-14 9,-28 14,-41 2,-9 5,-17 8,-25 2,-7 5,-15 7,-22 8,-28 16,-56 22,-85 3,-11 4,-21 7,-32 1,-7 2,-13 4,-20 2,-10 4,-20 6,-30 4,-26 8,-53 12,-80 2,-15 3,-30 4,-45 1,-6 2,-11 2,-17 1,-6 1,-12 2,-18 2,-26 4,-53 5,-79 1,-27 2,-54 2,-81l0 -5c0,-25 0,-50 -1,-75 -1,-27 -2,-54 -4,-81 -1,-12 -2,-25 -3,-37 0,-5 -1,-11 -1,-16 -1,-10 -2,-19 -2,-29 -3,-27 -6,-55 -10,-82 -3,-28 -7,-56 -12,-85 0,0 0,-1 0,-1 0,-1 0,-1 0,-2 -4,-27 -9,-55 -14,-82 -6,-30 -13,-61 -19,-91 -2,-8 -4,-17 -6,-25 -2,-7 -3,-13 -5,-20 -3,-16 -7,-32 -11,-47 -8,-33 -17,-67 -26,-100 -4,-12 -8,-25 -12,-38 -3,-9 -5,-18 -8,-26 -4,-14 -8,-27 -12,-41 -12,-37 -25,-74 -38,-112 -3,-9 -7,-18 -10,-28 -5,-12 -10,-25 -15,-38 -8,-21 -15,-42 -24,-63 -11,-30 -24,-59 -37,-89 -6,-15 -12,-29 -18,-44 -3,-6 -5,-12 -8,-18 -16,-35 -34,-70 -50,-104 -13,-27 -24,-53 -38,-78 -1,-4 -3,-7 -4,-11 -3,-5 -7,-10 -10,-15 -62,-120 -129,-237 -202,-350 -1,-2 -2,-3 -3,-4 -74,-113 -153,-221 -236,-323 -5,-6 -9,-13 -13,-18 -3,-4 -7,-7 -10,-11 -19,-24 -40,-47 -60,-70 -23,-26 -45,-54 -69,-79 -5,-6 -10,-11 -15,-16 -11,-12 -22,-22 -32,-33 -20,-21 -40,-42 -60,-62 -19,-19 -38,-37 -57,-55 -7,-7 -15,-14 -22,-21 -5,-5 -9,-10 -14,-14 -29,-26 -58,-52 -87,-77 -14,-11 -28,-22 -41,-34 -6,-5 -12,-9 -18,-14 -7,-6 -13,-11 -20,-17 -25,-20 -51,-39 -77,-58 -18,-14 -36,-27 -55,-40 -3,-2 -7,-4 -10,-7 -3,-2 -5,-4 -8,-6 -24,-16 -48,-32 -72,-47 -23,-15 -47,-29 -71,-43 -5,-4 -11,-7 -16,-10 -18,-10 -36,-20 -54,-30 -23,-12 -45,-24 -68,-35 -15,-8 -30,-14 -44,-21 -4,-2 -7,-3 -11,-5 -4,-2 -8,-4 -13,-6 -22,-10 -45,-20 -67,-29 -22,-9 -45,-17 -67,-25 -4,-1 -8,-2 -12,-4 -3,-1 -7,-2 -10,-3 -15,-5 -30,-11 -45,-15 -23,-7 -47,-13 -69,-19 -11,-3 -22,-5 -33,-7 -5,-2 -10,-3 -15,-4 -7,-1 -14,-3 -21,-4 -25,-5 -49,-9 -73,-12 -15,-2 -30,-3 -44,-5 -5,0 -11,-1 -16,-1 -5,-1 -10,-2 -15,-2 -26,-2 -53,-3 -78,-3 -12,1 -23,2 -34,2 -9,0 -17,1 -26,1 -9,1 -18,1 -27,1 -33,4 -65,8 -96,15 -1,0 -2,0 -2,0 -7,1 -13,4 -21,6 -32,7 -64,15 -94,26 -3,1 -5,2 -7,3 -45,16 -87,36 -128,59 0,0 0,0 0,0l-1 0 -307 179z"/>
      <path class="fil11" d="M55217 42348c7,5 14,10 21,15 112,78 223,162 332,249 13,11 26,22 39,32 105,87 208,177 310,272 16,15 32,30 49,46 86,82 171,167 254,254 23,25 47,48 69,72 63,68 123,139 184,209 44,51 89,100 132,152 64,78 126,159 188,241 34,44 70,87 103,132 77,105 151,214 224,323 16,23 32,46 48,69 87,134 171,271 251,409 23,41 45,83 68,123 55,99 109,198 160,298 29,56 54,113 81,169 43,89 87,178 127,268 14,32 26,64 40,95 47,111 92,222 134,333 10,28 21,55 31,82 47,131 91,262 131,393 6,20 12,39 18,58 40,135 76,269 107,404 4,14 7,28 10,42 33,144 62,288 85,432 0,1 0,3 0,4 23,144 40,287 52,429 1,12 2,24 3,35 11,142 17,283 17,422 -1,138 -7,271 -19,400 -1,11 -2,23 -4,34 -12,118 -28,231 -49,340 -3,15 -6,29 -9,44 -22,105 -48,206 -78,303 -6,18 -12,35 -18,53 -30,91 -64,178 -101,260 -5,9 -8,20 -13,29 -44,94 -93,182 -146,265 -7,11 -15,20 -22,31 -3,5 -7,9 -10,14 -2,0 -4,0 -6,0 -38,3 -76,5 -115,6 -22,0 -44,1 -66,1 -30,0 -61,-2 -92,-3 -26,-2 -51,-3 -76,-4 -26,-2 -52,-6 -79,-9 -28,-3 -57,-6 -86,-10 -25,-3 -49,-8 -74,-12 -31,-5 -62,-11 -94,-18 -21,-4 -42,-9 -64,-14 -33,-7 -67,-16 -101,-25 -21,-6 -42,-11 -64,-18 -37,-10 -74,-22 -111,-34 -18,-6 -35,-11 -53,-17 -54,-19 -110,-40 -165,-62 -1,0 -2,0 -2,-1 -55,-22 -111,-46 -166,-71 -18,-8 -35,-17 -53,-25 -40,-18 -79,-38 -119,-58 -20,-10 -40,-21 -60,-31 -53,-28 -106,-57 -160,-88 -123,-71 -245,-149 -365,-232 -7,-5 -14,-10 -21,-15 -112,-78 -223,-162 -332,-249 -12,-11 -25,-22 -38,-32 -105,-86 -209,-177 -311,-271 -16,-15 -32,-31 -48,-47 -86,-82 -171,-167 -255,-254 -23,-24 -47,-48 -70,-73 -62,-67 -122,-137 -183,-207 -44,-51 -89,-101 -132,-153 -64,-77 -125,-158 -186,-238 -35,-45 -71,-89 -105,-136 -74,-100 -145,-205 -215,-309 -19,-28 -39,-55 -58,-83 -87,-134 -170,-270 -251,-408 -22,-39 -42,-79 -64,-118 -56,-101 -112,-201 -164,-304 -28,-55 -53,-111 -80,-167 -43,-89 -88,-179 -127,-269 -14,-32 -27,-63 -40,-94 -47,-111 -92,-222 -134,-333 -11,-28 -21,-56 -31,-83 -48,-131 -92,-262 -132,-393 -6,-19 -12,-38 -17,-58 -41,-134 -76,-269 -108,-403 -3,-14 -7,-28 -10,-42 -33,-144 -62,-288 -84,-431 -1,-2 -1,-4 -1,-5 -23,-145 -40,-288 -52,-430 -1,-11 -2,-23 -3,-34 -11,-142 -17,-283 -17,-422 1,-138 7,-271 19,-400 1,-11 3,-23 4,-34 12,-118 28,-231 50,-340 2,-15 5,-30 8,-44 22,-105 48,-206 79,-303 5,-18 11,-35 17,-53 31,-91 64,-178 102,-261 4,-9 8,-19 12,-28 44,-94 93,-183 146,-265 7,-11 16,-21 23,-32 3,-5 7,-9 10,-13 2,0 4,-1 6,-1 39,-3 77,-5 116,-5 21,-1 43,-2 65,-1 30,0 62,1 93,3 25,1 50,2 75,4 26,2 53,5 79,8 29,3 57,6 87,10 24,4 49,8 73,12 31,6 62,11 94,18 21,4 43,9 64,14 33,8 67,16 101,25 22,6 43,12 64,18 37,11 74,22 112,34 17,6 35,11 52,18 55,18 109,38 165,60 0,1 1,1 1,1 56,22 112,47 168,72 17,8 35,17 52,25 40,19 80,38 120,59 20,9 40,20 59,30 53,28 106,57 160,88 123,71 245,149 365,232zm-509 -1531c-31,-2 -62,-3 -93,-3 -8,-1 -17,-2 -26,-2 -13,0 -26,2 -39,3 -39,0 -77,2 -115,5 -12,1 -24,0 -35,1 -8,1 -16,3 -25,4 -57,6 -114,14 -170,25 -5,1 -10,1 -15,2 -1,0 -2,1 -3,1 -79,16 -156,38 -231,63 -7,3 -14,4 -21,6 -5,2 -10,5 -16,7 -32,12 -64,25 -96,39 -16,7 -32,13 -47,20 -46,21 -92,45 -136,71l0 0 0 0 0 0 -282 164c-47,27 -94,54 -141,82l-346 201c-54,31 -107,61 -159,92l-293 170 0 0 -161 94c-74,43 -144,93 -211,146 -20,17 -39,35 -59,52 -47,41 -93,85 -137,132 -19,20 -38,40 -56,62 -50,58 -97,120 -141,186 -7,11 -16,21 -23,32 -1,2 -4,4 -5,7 -50,78 -96,161 -138,249 -1,3 -2,6 -3,9 -5,9 -8,19 -12,28 -25,56 -50,112 -72,171 -11,29 -20,60 -30,90 -6,18 -12,35 -18,53 -5,17 -11,32 -16,49 -18,60 -34,122 -48,186 -5,22 -9,46 -14,68 -3,15 -6,29 -9,44 -4,22 -9,44 -13,66 -10,57 -19,115 -26,174 -4,33 -7,67 -10,100 -1,11 -3,23 -4,34 -1,14 -3,28 -4,42 -5,56 -8,113 -11,172 -2,57 -4,116 -4,176 0,3 0,7 0,10 0,55 1,110 2,165 2,58 5,117 8,176 2,27 5,54 7,81 1,11 2,23 3,35 1,20 3,41 5,62 5,59 12,119 20,178 7,62 16,123 26,185 0,2 0,3 1,4 0,1 0,3 0,5 10,59 20,118 31,177 13,66 26,132 41,198 4,19 9,38 13,56 3,14 6,28 10,42 8,34 15,69 24,103 18,72 37,144 58,216 8,29 17,57 25,85 6,19 12,38 18,57 9,30 17,58 26,88 26,81 53,162 82,243 7,20 16,41 23,63 10,27 21,54 31,82 18,45 34,92 52,137 26,66 55,131 83,196 13,32 26,63 39,93 6,13 11,26 16,39 36,79 75,156 112,233 27,55 52,111 80,166 3,6 6,14 10,21 49,95 102,189 154,283 22,39 42,78 64,117 80,139 164,275 251,408 18,27 37,53 55,80 71,106 143,211 218,313 33,46 69,90 104,135 55,71 108,144 165,213 7,9 14,16 21,25 44,52 89,102 133,153 50,57 98,116 149,172 11,12 23,23 34,36 23,24 47,48 70,72 43,45 85,91 129,134 41,41 84,81 126,121 16,15 32,31 48,46 10,9 20,19 30,28 63,58 126,114 190,168 30,26 60,50 90,75 13,11 26,21 39,32 15,11 29,23 43,35 55,44 111,86 167,128 40,30 81,58 122,86 7,5 14,10 21,15 6,5 12,9 18,13 52,36 104,71 156,104 52,33 103,64 155,95 12,7 24,14 36,21 39,22 78,44 116,65 15,8 29,14 44,22 20,11 40,21 60,31 15,8 30,16 46,24 24,12 48,23 73,34 17,9 35,17 52,25 8,4 15,7 22,10 49,22 97,43 144,62 1,0 2,0 2,0l0 0c50,20 99,39 147,56 7,2 13,4 19,6 18,6 35,11 53,17 24,8 50,17 74,24 13,4 25,7 37,11 21,6 43,12 64,17 17,5 34,10 50,14 17,4 34,8 51,11 22,6 43,10 64,15 12,2 23,5 34,7 20,4 40,7 60,10 25,4 49,9 74,12 8,2 17,3 26,5 20,2 40,4 60,6 26,3 53,6 79,8 8,0 15,2 23,2 18,1 35,1 53,2 31,1 61,3 92,3 9,0 18,1 26,1 14,0 26,-2 40,-2 39,-1 77,-3 115,-6 11,-1 23,0 34,-1 9,-1 17,-3 25,-4 58,-6 116,-14 171,-25 5,0 10,-1 14,-2 1,0 2,0 3,0 79,-16 156,-38 231,-64 7,-2 14,-3 21,-6 5,-2 10,-4 16,-6 32,-12 64,-26 96,-39 15,-7 31,-13 47,-20 46,-22 91,-45 136,-71l0 0 0 0 547 -318 835 -485 0 0 0 0c74,-43 144,-93 211,-147 20,-16 39,-34 59,-51 47,-41 93,-85 137,-133 18,-20 37,-40 55,-61 51,-58 98,-121 142,-187 7,-11 15,-20 22,-31 2,-2 4,-4 5,-7 50,-78 96,-161 138,-249 1,-3 2,-7 4,-9 4,-10 8,-20 12,-29 25,-55 49,-111 71,-169 11,-30 20,-61 30,-91 6,-18 12,-35 18,-54 5,-16 11,-31 16,-47 18,-61 34,-123 48,-187 5,-22 9,-46 14,-68 3,-15 6,-29 9,-44 4,-22 9,-43 13,-66 10,-57 19,-115 26,-174 4,-33 7,-67 10,-100 2,-12 3,-23 4,-35 1,-13 3,-27 4,-41 5,-56 9,-113 11,-172 3,-58 4,-116 4,-176 0,-3 0,-7 0,-10 0,-55 0,-110 -2,-165 -2,-58 -5,-117 -8,-176 -2,-27 -5,-54 -7,-81 -1,-11 -2,-23 -2,-35 -2,-21 -4,-41 -6,-62 -5,-60 -12,-119 -19,-179 -8,-62 -17,-123 -27,-185 0,-1 0,-2 0,-3 -1,-2 -1,-3 -1,-5 -10,-59 -20,-119 -31,-178 -13,-66 -26,-132 -40,-198 -5,-18 -9,-37 -13,-56 -4,-14 -7,-27 -11,-41 -8,-35 -15,-70 -24,-104 -18,-72 -37,-145 -58,-217 -8,-28 -17,-56 -25,-83 -6,-20 -12,-39 -18,-58 -9,-29 -17,-59 -26,-88 -26,-82 -53,-163 -82,-243 -7,-21 -16,-41 -23,-62 -10,-27 -21,-55 -31,-82 -18,-47 -34,-93 -52,-140 -26,-64 -55,-128 -82,-192 -14,-32 -26,-64 -40,-96 -6,-13 -11,-26 -17,-39 -34,-78 -73,-153 -110,-230 -27,-56 -52,-113 -80,-168 -4,-7 -7,-15 -11,-22 -48,-93 -100,-185 -151,-276 -23,-41 -44,-83 -67,-123 -80,-139 -164,-275 -251,-409 -16,-24 -32,-46 -48,-70 -73,-109 -147,-217 -224,-322 -34,-46 -69,-89 -104,-134 -55,-72 -109,-146 -166,-216 -7,-8 -14,-15 -21,-24 -43,-51 -88,-101 -132,-152 -50,-57 -98,-117 -150,-173 -11,-12 -22,-23 -33,-35 -23,-24 -47,-48 -70,-72 -43,-45 -86,-91 -130,-135 -41,-41 -83,-80 -125,-119 -16,-16 -32,-32 -48,-47 -10,-9 -20,-20 -31,-29 -62,-57 -125,-113 -189,-168 -30,-25 -60,-49 -90,-74 -13,-10 -26,-21 -39,-32 -14,-12 -29,-24 -43,-35 -55,-44 -111,-87 -167,-128 -40,-30 -81,-58 -122,-86 -6,-5 -13,-10 -20,-15 -7,-5 -13,-9 -19,-14 -52,-35 -104,-69 -156,-103 -51,-32 -103,-64 -155,-94 -12,-8 -24,-15 -36,-22 -39,-22 -77,-43 -116,-64 -14,-8 -29,-15 -43,-23 -20,-10 -40,-21 -60,-31 -15,-8 -31,-16 -46,-24 -25,-12 -49,-23 -74,-34 -17,-9 -35,-17 -52,-25 -7,-3 -15,-7 -22,-10 -49,-22 -97,-43 -146,-62 0,0 -1,0 -1,-1 -49,-19 -98,-38 -146,-54 -6,-3 -12,-5 -18,-7 -18,-6 -36,-11 -53,-17 -25,-8 -50,-17 -75,-24 -12,-4 -24,-7 -36,-10 -22,-7 -43,-12 -65,-18 -16,-4 -33,-10 -49,-14 -17,-4 -34,-7 -52,-11 -21,-5 -42,-10 -64,-15 -11,-2 -22,-5 -34,-7 -20,-4 -40,-6 -60,-10 -24,-4 -49,-8 -73,-12 -9,-1 -18,-3 -26,-4 -21,-3 -40,-4 -61,-6 -26,-3 -52,-7 -78,-8 -8,-1 -16,-2 -23,-3 -18,-1 -35,-1 -53,-1z"/>
      <path class="fil12" d="M55132 39945c7,4 14,8 21,13 90,57 179,117 268,178 31,21 62,44 93,66 58,42 117,83 175,127 39,29 77,59 116,89 51,39 102,78 152,119 44,35 87,71 130,107 46,38 92,76 138,116 55,47 109,96 164,145 39,35 78,70 117,106 79,73 157,148 234,224 20,19 40,38 59,57 109,109 217,221 322,335 23,25 46,50 68,75 142,156 282,316 417,481 18,21 35,42 52,64 135,167 267,337 395,511 11,16 23,32 34,48 132,182 261,367 385,557 3,5 7,11 10,16 124,191 244,386 359,583 6,10 12,20 18,31 112,193 218,389 320,586 11,21 22,41 33,62 98,193 191,388 280,585 13,28 26,57 39,86 66,149 130,299 190,449 14,36 27,72 41,108 38,98 76,197 111,296 19,51 37,104 55,156 24,67 47,135 69,202 18,57 37,115 54,172 19,59 37,120 54,179 18,61 35,122 52,182 15,53 29,107 43,160 17,66 33,131 49,196 11,46 22,91 32,136 16,71 31,142 45,212 9,41 17,81 25,122 19,98 36,196 52,293 2,11 4,21 6,31 17,108 31,216 45,323 3,31 6,61 10,91 9,77 16,154 23,230 3,36 6,73 9,110 5,72 9,144 13,216 2,34 4,69 5,103 3,103 6,205 6,305 -1,106 -4,210 -8,312 -1,29 -4,58 -6,86 -3,70 -8,140 -14,208 -4,40 -8,79 -12,117 -7,59 -14,116 -21,173 -6,41 -12,82 -19,123 -8,52 -17,104 -26,155 -9,46 -18,90 -28,135 -9,46 -20,92 -31,136 -12,53 -26,104 -40,155 -11,40 -22,80 -34,120 -19,61 -39,121 -60,179 -12,33 -22,65 -34,96 -38,100 -78,196 -122,289 -67,143 -142,278 -223,405 -58,90 -120,175 -185,257 -15,19 -31,39 -47,58 -39,46 -80,89 -121,133 -14,3 -28,7 -42,10 -17,4 -34,9 -52,12 -9,2 -19,3 -28,5 -87,17 -176,29 -267,39 -30,3 -61,5 -92,8 -59,4 -119,7 -179,8 -34,1 -68,2 -103,2 -47,-1 -95,-3 -144,-5 -39,-2 -78,-3 -118,-6 -40,-4 -82,-8 -122,-13 -45,-5 -90,-10 -135,-16 -38,-6 -77,-12 -115,-19 -48,-9 -97,-17 -146,-27 -33,-7 -66,-15 -100,-22 -52,-12 -105,-26 -157,-40 -34,-9 -67,-18 -101,-27 -57,-17 -115,-35 -173,-54 -27,-9 -54,-17 -82,-27 -85,-29 -171,-61 -258,-96 -1,0 -1,0 -1,0 -86,-34 -173,-72 -261,-112 -27,-12 -54,-26 -82,-39 -61,-29 -123,-59 -186,-91 -30,-15 -61,-31 -92,-48 -83,-43 -166,-88 -249,-136 -92,-53 -183,-109 -274,-166 -7,-5 -14,-8 -21,-13 -90,-57 -179,-117 -268,-178 -31,-21 -61,-44 -92,-66 -59,-41 -117,-83 -175,-127 -40,-29 -78,-59 -117,-89 -51,-39 -102,-78 -152,-119 -43,-35 -87,-71 -130,-107 -46,-38 -92,-76 -137,-116 -56,-47 -111,-96 -165,-146 -39,-34 -78,-69 -116,-104 -80,-74 -159,-150 -237,-227 -19,-18 -38,-36 -57,-55 -109,-109 -217,-221 -323,-335 -23,-25 -45,-51 -68,-76 -142,-155 -281,-316 -416,-480 -18,-22 -35,-43 -52,-64 -135,-167 -267,-337 -395,-511 -12,-16 -23,-33 -35,-49 -132,-181 -260,-367 -384,-556 -3,-5 -7,-11 -10,-17 -125,-191 -244,-385 -359,-582 -6,-11 -12,-20 -18,-30 -112,-193 -219,-390 -321,-588 -10,-20 -21,-40 -32,-61 -98,-193 -191,-388 -280,-584 -13,-29 -26,-58 -39,-87 -66,-149 -129,-298 -190,-449 -14,-36 -27,-72 -41,-107 -38,-99 -76,-197 -111,-296 -19,-52 -37,-104 -55,-156 -23,-67 -46,-135 -68,-202 -19,-57 -37,-115 -55,-172 -18,-60 -36,-119 -54,-179 -18,-61 -35,-122 -52,-182 -15,-53 -29,-107 -43,-160 -17,-65 -33,-131 -48,-196 -11,-45 -22,-91 -32,-136 -17,-71 -31,-141 -46,-212 -8,-41 -17,-81 -25,-121 -18,-99 -36,-197 -52,-294 -1,-10 -3,-20 -5,-30 -17,-109 -32,-216 -45,-324 -4,-30 -7,-60 -10,-91 -9,-76 -17,-153 -24,-229 -3,-37 -6,-73 -8,-110 -6,-72 -10,-144 -14,-217 -1,-34 -3,-69 -4,-103 -4,-102 -7,-204 -6,-305 0,-106 3,-210 8,-312 1,-29 3,-57 5,-85 4,-71 9,-140 15,-209 3,-39 8,-78 12,-117 6,-58 13,-116 21,-172 5,-42 12,-83 18,-124 8,-52 17,-103 27,-154 8,-46 17,-91 27,-136 10,-46 20,-91 31,-136 13,-52 26,-104 40,-155 12,-40 23,-80 35,-119 19,-62 39,-121 60,-180 11,-32 22,-65 34,-96 38,-99 78,-196 121,-288 34,-72 69,-142 107,-210 1,-1 1,-2 2,-4 37,-66 75,-130 115,-192 58,-90 120,-176 185,-257 15,-20 31,-39 47,-58 39,-47 80,-90 121,-133 14,-4 28,-7 42,-11 17,-3 34,-8 52,-12 10,-2 19,-3 29,-5 87,-16 175,-29 266,-38 30,-3 61,-6 93,-8 58,-5 118,-8 178,-9 34,-1 68,-2 102,-1 48,0 96,2 145,4 39,2 78,3 118,7 40,3 81,8 122,12 45,5 90,10 135,16 38,6 77,13 115,19 48,9 97,17 146,28 33,6 66,14 100,22 52,12 104,25 157,39 34,9 67,18 100,28 57,16 115,34 174,53 27,9 54,18 81,27 86,30 172,61 259,96 0,0 0,0 0,0 86,35 174,72 261,112 27,13 54,26 82,38 61,30 124,60 186,92 31,16 62,31 93,48 82,43 165,88 249,136 91,53 182,109 273,166zm8631 9573c-1,-22 -2,-43 -3,-65 -2,-46 -4,-91 -7,-137 -2,-55 -4,-108 -7,-163 -3,-41 -7,-83 -10,-125 -4,-49 -7,-97 -12,-146 -3,-32 -4,-64 -8,-97 -6,-69 -15,-138 -23,-207 -4,-41 -8,-81 -13,-122 -2,-13 -3,-27 -5,-41 -16,-127 -34,-255 -54,-383 -1,-1 -1,-3 -1,-5 -2,-13 -5,-27 -7,-40 -18,-113 -38,-226 -59,-340 -3,-17 -7,-34 -11,-51 -10,-53 -21,-107 -32,-161 -14,-66 -26,-131 -41,-197 -6,-28 -13,-56 -20,-85 -13,-60 -28,-120 -42,-180 -12,-51 -23,-101 -36,-151 -9,-37 -20,-73 -29,-110 -19,-71 -38,-142 -57,-212 -12,-42 -22,-84 -34,-126 -11,-39 -24,-77 -35,-116 -23,-80 -47,-159 -72,-239 -12,-40 -23,-80 -36,-120 -11,-36 -25,-72 -36,-107 -30,-90 -60,-180 -91,-270 -15,-42 -28,-84 -43,-126 -9,-27 -20,-54 -30,-81 -48,-131 -97,-262 -148,-393 -14,-37 -27,-75 -42,-112 -4,-10 -9,-20 -13,-30 -80,-200 -164,-399 -252,-598 -7,-16 -14,-33 -21,-50 -27,-60 -55,-119 -83,-179 -31,-67 -61,-134 -93,-201 -40,-83 -81,-167 -122,-250 -32,-65 -64,-130 -97,-195 -7,-14 -14,-29 -21,-44 -37,-72 -76,-143 -114,-215 -32,-60 -63,-120 -95,-179 -50,-93 -102,-184 -154,-276 -30,-52 -59,-105 -89,-158 -65,-111 -131,-222 -198,-332 -19,-31 -37,-63 -56,-94 -87,-141 -175,-280 -265,-418 -27,-41 -54,-80 -80,-120 -65,-97 -130,-195 -197,-291 -36,-52 -73,-103 -110,-154 -58,-83 -116,-166 -177,-248 -40,-55 -82,-110 -123,-165 -58,-76 -115,-152 -173,-227 -44,-56 -89,-111 -133,-167 -43,-54 -86,-110 -130,-163 -14,-18 -28,-34 -43,-51 -48,-58 -96,-115 -144,-172 -58,-68 -115,-135 -173,-202 -49,-56 -100,-112 -150,-167 -38,-44 -77,-88 -116,-131 -14,-15 -29,-30 -44,-46 -141,-151 -283,-301 -428,-445 -3,-3 -6,-7 -10,-11 -22,-22 -45,-42 -67,-64 -104,-101 -208,-201 -313,-299 -14,-13 -28,-27 -43,-41 -36,-33 -74,-65 -111,-98 -73,-66 -146,-131 -220,-195 -20,-17 -40,-36 -61,-54 -40,-34 -81,-66 -121,-99 -57,-48 -115,-96 -172,-142 -22,-17 -42,-35 -63,-52 -46,-36 -93,-71 -140,-107 -51,-39 -103,-79 -154,-118 -18,-12 -34,-26 -51,-39 -61,-44 -122,-86 -182,-129 -41,-29 -82,-59 -123,-88 -10,-6 -19,-14 -29,-20 -107,-74 -215,-145 -323,-214 -1,-1 -2,-1 -3,-2 -11,-7 -22,-13 -32,-20 -95,-59 -190,-118 -286,-174 -25,-15 -49,-29 -74,-44 -80,-46 -160,-91 -240,-134 -30,-16 -60,-31 -90,-47 -42,-22 -83,-43 -124,-64 -32,-16 -64,-34 -95,-49 -51,-25 -101,-48 -152,-72 -36,-17 -73,-35 -109,-51 -15,-7 -30,-14 -45,-21 -101,-45 -201,-88 -301,-128 -1,0 -1,-1 -2,-1 -102,-40 -203,-79 -303,-114 -13,-4 -26,-8 -39,-12 -37,-13 -73,-24 -110,-36 -51,-17 -102,-35 -153,-51 -26,-7 -51,-13 -76,-20 -45,-13 -89,-25 -133,-37 -34,-9 -69,-20 -103,-29 -36,-8 -71,-15 -106,-23 -45,-10 -89,-21 -133,-30 -23,-5 -47,-11 -70,-15 -42,-8 -82,-14 -124,-21 -51,-9 -102,-17 -153,-25 -17,-2 -36,-6 -54,-9 -42,-5 -83,-8 -124,-12 -55,-7 -110,-13 -164,-17 -15,-1 -31,-4 -47,-5 -37,-3 -72,-2 -109,-4 -64,-3 -128,-6 -192,-6 -18,0 -36,-2 -54,-2 -28,0 -54,3 -81,4 -81,2 -160,6 -238,12 -24,1 -48,1 -72,3 -33,3 -65,7 -97,11 -25,3 -50,6 -74,9 -89,12 -177,26 -264,43 -2,0 -5,1 -8,2 -24,5 -46,11 -70,16 -72,17 -143,33 -213,53 -34,10 -68,21 -101,32 -45,14 -91,26 -135,42 -11,4 -22,9 -33,13 -67,25 -134,53 -199,82 -32,14 -65,26 -97,41 -96,45 -190,93 -282,146l-1382 804c92,-54 186,-102 282,-147 32,-15 64,-27 96,-41 66,-29 132,-56 200,-81 55,-21 111,-38 168,-56 33,-11 66,-22 100,-32 70,-20 142,-36 214,-52 24,-6 46,-12 70,-17 89,-18 180,-33 272,-45 24,-3 49,-6 74,-9 55,-6 112,-10 169,-14 78,-6 157,-10 237,-12 45,-1 90,-2 136,-2 63,1 127,4 192,7 52,2 104,4 156,8 54,4 109,11 163,17 60,6 119,13 179,21 51,8 102,17 153,26 64,11 129,22 194,35 44,10 88,20 133,30 69,16 138,33 208,52 45,12 89,24 134,37 76,22 152,46 229,71 37,12 73,23 110,36 113,39 227,81 342,126 0,1 1,1 1,1 0,0 1,0 1,0 114,46 230,97 346,149 36,17 73,35 109,52 82,38 164,78 247,120 41,21 82,43 123,64 110,58 220,117 331,181 120,70 240,143 359,219 11,6 22,12 32,19 119,76 238,155 356,236 41,29 81,59 122,88 78,55 156,111 233,168 52,39 104,79 155,119 68,52 135,104 202,158 58,47 115,94 173,142 61,51 122,102 182,154 74,63 147,128 219,194 52,46 103,92 155,139 105,98 209,198 313,300 25,25 51,49 77,74 145,145 287,294 428,445 54,59 107,118 160,177 50,55 100,111 150,167 58,67 115,134 172,202 49,57 97,114 145,172 24,29 47,58 71,88 -11,-12 -21,-25 -32,-37 -11,-12 -22,-23 -33,-35 -106,-114 -213,-227 -323,-335 -2,-3 -5,-6 -7,-8 -17,-17 -34,-32 -50,-48 -78,-77 -157,-152 -236,-226 -11,-10 -22,-20 -32,-30 -28,-26 -57,-50 -84,-75 -55,-49 -110,-98 -165,-146 -16,-13 -31,-27 -46,-40 -31,-26 -61,-50 -92,-76 -43,-35 -86,-71 -129,-106 -16,-13 -32,-26 -48,-39 -35,-28 -70,-54 -105,-81 -39,-29 -77,-59 -116,-89 -13,-9 -26,-19 -39,-29 -45,-33 -91,-65 -136,-97 -31,-22 -62,-45 -93,-66 -7,-5 -14,-11 -22,-16 -80,-55 -161,-109 -243,-161 -1,0 -2,-1 -3,-1 -7,-5 -14,-9 -21,-13 -72,-46 -144,-91 -217,-134 -19,-10 -38,-21 -56,-32 -61,-35 -121,-69 -181,-101 -23,-13 -45,-23 -68,-35 -31,-17 -62,-33 -92,-48 -25,-12 -49,-26 -72,-38 -39,-19 -77,-36 -115,-54 -27,-13 -54,-26 -81,-38 -12,-5 -23,-11 -34,-16 -77,-34 -152,-66 -228,-96l0 0c0,0 0,0 0,-1 -77,-30 -153,-59 -229,-86 -10,-3 -19,-6 -29,-9 -28,-10 -55,-18 -82,-27 -39,-13 -78,-26 -116,-38 -19,-6 -38,-10 -58,-16 -33,-9 -66,-18 -99,-27 -26,-7 -52,-15 -78,-22 -27,-6 -54,-11 -80,-18 -34,-7 -67,-15 -100,-22 -17,-3 -35,-8 -53,-11 -31,-7 -62,-10 -93,-16 -38,-6 -77,-13 -115,-19 -13,-2 -27,-5 -40,-6 -32,-5 -63,-6 -95,-10 -41,-5 -81,-9 -122,-13 -12,0 -24,-2 -36,-3 -28,-2 -55,-2 -82,-3 -48,-2 -97,-4 -144,-5 -14,0 -27,-1 -41,-1 -21,0 -41,2 -62,3 -60,1 -119,4 -178,8 -18,2 -37,1 -54,3 -13,1 -26,4 -39,6 -90,9 -179,21 -266,38 -7,1 -15,2 -23,4 -2,0 -4,1 -6,1 -17,3 -34,8 -52,12 -54,12 -108,25 -161,40 -26,7 -51,16 -76,24 -34,10 -68,20 -102,32 -8,3 -16,7 -24,10 -51,18 -101,39 -151,61 -23,10 -48,20 -72,31 -73,34 -143,70 -212,110l0 0 0 0 0 0 0 0 0 0 -579 337 -804 466 1 0 0 0 -1 0 0 1c-86,50 -168,107 -249,166 -20,15 -39,29 -58,44 -79,62 -156,127 -228,197 -6,5 -10,11 -15,16 -69,67 -133,140 -196,215 -16,19 -32,38 -47,58 -65,82 -127,167 -185,257 -2,3 -4,5 -5,8 -39,59 -75,121 -110,185 -1,1 -2,2 -2,3 -36,65 -70,131 -103,200 -1,3 -2,7 -4,10 -44,92 -84,189 -121,288 -4,9 -8,16 -11,25 -8,23 -15,47 -23,70 -21,60 -42,120 -60,181 -5,16 -11,31 -16,48 -7,23 -12,47 -18,71 -15,51 -28,103 -41,155 -5,22 -12,42 -17,64 -5,23 -9,48 -14,72 -10,45 -19,90 -27,136 -5,23 -10,46 -15,70 -4,28 -8,56 -12,85 -7,40 -13,81 -18,123 -4,21 -7,42 -10,63 -5,36 -7,73 -11,109 -5,39 -9,78 -12,117 -2,16 -4,32 -5,47 -5,53 -7,108 -10,162 -2,28 -4,56 -6,85 0,7 0,14 -1,22 -4,90 -6,181 -6,274 0,5 0,11 0,16 -1,85 0,171 3,256 0,17 2,33 2,49 2,35 4,69 5,104 2,40 3,81 6,122 2,31 5,63 7,94 3,37 6,73 9,110 2,24 4,49 6,73 5,52 12,104 17,156 4,31 7,61 11,92 1,10 2,20 3,30 12,96 26,192 41,288 0,2 1,3 1,5 1,10 3,20 5,30 14,85 28,170 44,255 3,13 6,26 8,39 8,40 17,81 25,122 10,49 19,98 30,147 5,21 10,43 15,64 11,45 21,91 32,136 9,38 18,76 27,114 7,27 15,54 22,82 14,54 29,107 43,161 9,31 16,62 25,93 9,30 18,59 27,88 17,60 35,120 54,179 9,31 18,61 27,91 9,27 19,54 27,81 23,68 46,135 69,203 11,31 20,63 32,95 7,20 15,40 22,60 36,99 73,198 112,296 11,28 20,56 31,84 4,8 7,16 10,23 60,151 124,301 190,450 5,12 10,25 16,38 7,16 16,32 23,48 89,196 182,392 280,585 4,6 7,13 10,20 7,14 15,27 22,40 102,198 209,395 321,588 5,10 11,19 17,29 115,198 235,393 359,584 4,5 7,11 11,16 123,190 252,375 384,557 12,16 23,32 35,48 128,174 260,344 395,511 11,14 21,28 32,41 6,8 13,15 19,23 136,165 275,325 417,481 12,13 23,27 35,40 11,12 22,23 33,34 106,115 213,227 322,336 3,3 5,5 8,8 16,16 33,31 50,48 78,76 157,152 236,226 11,10 21,20 32,30 28,25 56,49 84,74 55,50 110,99 166,147 15,13 30,27 46,40 29,26 60,50 91,75 43,36 86,72 130,107 16,13 31,27 47,39 35,28 70,53 105,80 39,30 77,60 117,90 12,9 25,19 38,29 45,33 91,65 136,97 32,22 62,45 93,66 8,5 15,11 22,16 80,55 162,109 243,161 1,0 2,1 3,2 7,4 15,8 22,13 72,45 144,90 217,133 18,11 37,21 56,32 60,35 120,69 180,101 23,13 46,24 68,36 31,16 62,32 93,47 24,13 48,26 72,38 38,19 76,36 114,54 27,13 55,26 82,38 12,5 23,11 34,16 76,34 152,66 227,96 0,0 0,0 0,1l0 0c77,30 154,59 230,86 10,3 19,6 29,10 28,9 54,17 81,26 39,13 79,27 117,38 19,6 38,11 57,16 34,10 67,19 101,28 25,6 51,15 77,21 27,7 53,12 80,18 33,8 67,15 100,22 17,4 35,8 53,12 31,6 62,10 93,15 38,7 77,14 115,19 13,2 27,5 40,7 32,4 63,6 94,9 41,5 83,10 123,13 12,1 24,3 36,3 28,3 55,2 82,3 48,3 97,5 144,5 14,0 28,1 41,1 21,0 41,-2 62,-3 60,-1 119,-3 178,-8 18,-1 37,-1 55,-3 13,-1 25,-4 38,-5 90,-9 179,-22 267,-39 7,-1 14,-1 22,-3 2,0 4,-1 6,-2 17,-3 35,-8 52,-12 54,-12 108,-25 161,-39 26,-8 51,-17 77,-24 33,-11 68,-20 101,-32 8,-3 16,-7 24,-10 51,-19 101,-40 150,-62 25,-10 49,-19 73,-30 73,-34 143,-71 213,-111l0 0c0,0 0,0 0,0l1382 -803c86,-50 168,-107 249,-167 20,-14 39,-29 58,-44 79,-61 156,-126 228,-197 6,-5 10,-10 15,-15 68,-68 133,-140 196,-215 16,-20 32,-39 47,-58 65,-82 127,-167 185,-257 1,-3 3,-5 5,-8 39,-60 76,-123 111,-187 1,0 1,-1 1,-1 36,-65 70,-132 102,-200 2,-3 3,-7 4,-10 44,-92 84,-189 122,-288 3,-9 7,-16 10,-25 9,-23 16,-48 24,-71 21,-59 41,-119 60,-180 5,-16 11,-31 16,-48 6,-23 12,-47 18,-71 14,-51 28,-103 41,-155 5,-22 11,-42 16,-64 6,-23 10,-48 15,-72 9,-44 18,-90 27,-135 4,-24 10,-46 14,-70 5,-28 8,-57 13,-85 6,-41 12,-82 18,-124 3,-21 7,-41 9,-63 5,-35 8,-73 12,-109 4,-39 8,-77 12,-117 1,-16 3,-31 5,-47 4,-53 7,-107 10,-161 1,-29 4,-57 5,-86 0,-7 1,-14 1,-21 4,-90 6,-182 7,-274 0,-6 0,-11 0,-17 0,-85 -1,-170 -4,-256 0,-16 -1,-33 -2,-49 -1,-34 -3,-69 -5,-103 -2,-41 -3,-82 -5,-122 -2,-32 -6,-63 -8,-95 -3,-36 -6,-73 -9,-110 -2,-24 -3,-48 -6,-72 -5,-52 -11,-104 -17,-156 -3,-31 -6,-61 -10,-93 -2,-10 -2,-20 -4,-30 -12,-96 -25,-192 -41,-288 0,-2 0,-3 0,-4 -2,-10 -4,-21 -6,-31 -13,-85 -28,-170 -44,-255 -2,-13 -5,-26 -8,-39 -7,-40 -16,-80 -25,-121 -10,-49 -19,-98 -30,-148 -5,-21 -10,-43 -15,-64 -10,-45 -21,-91 -32,-136 -9,-38 -17,-76 -27,-113 -7,-28 -15,-56 -22,-83 -14,-54 -28,-106 -43,-160 -8,-31 -16,-63 -25,-95 -8,-29 -18,-58 -26,-87 -18,-60 -36,-120 -55,-180 -9,-30 -17,-60 -27,-90 -4,-11 -8,-23 -11,-35 45,117 89,234 132,352 25,69 49,138 73,207 31,90 61,180 91,270 24,76 48,151 72,227 25,80 49,159 72,239 23,81 47,161 69,242 19,71 38,141 57,212 22,87 44,174 65,261 14,60 28,120 42,181 21,93 41,187 60,281 11,54 23,108 33,162 25,130 49,261 70,390 2,14 5,27 7,40 22,144 42,287 60,430 5,40 9,80 13,121 12,102 22,203 31,304 4,49 8,98 12,146 7,96 13,193 17,288 2,46 5,92 6,137 5,136 9,271 8,406 0,140 -4,278 -10,414 -2,39 -5,76 -7,114 -6,94 -12,186 -20,276 -5,53 -10,105 -16,156 -8,77 -17,154 -27,229 -8,55 -16,110 -25,164 -11,69 -23,138 -36,205 -11,61 -23,121 -36,181 -13,61 -26,121 -41,180 -17,70 -35,139 -54,207 -15,53 -29,105 -45,157 -25,82 -52,162 -80,240 -15,43 -29,86 -45,127 -50,132 -103,260 -161,383 -45,95 -92,188 -142,278 0,1 0,1 0,1 -51,91 -104,179 -158,265 -12,17 -24,34 -35,51 -42,63 -85,125 -129,184 -18,25 -37,48 -55,72 -42,54 -85,107 -130,159 -17,19 -33,39 -50,59 -61,68 -124,134 -188,196 -9,9 -19,17 -28,26 -56,53 -115,105 -174,155 -21,18 -43,35 -65,53 -50,40 -102,79 -154,117 -22,15 -43,31 -65,46 -73,50 -147,98 -223,142 -1,1 -1,1 -1,1l0 0 0 0 1382 -803c76,-45 151,-93 224,-143 22,-15 43,-31 65,-46 52,-38 104,-77 155,-118 21,-17 43,-34 64,-52 60,-50 118,-101 174,-155 9,-9 19,-17 28,-26 64,-63 127,-129 188,-197 17,-19 34,-39 50,-58 45,-52 88,-105 130,-160 19,-23 37,-47 55,-71 44,-60 87,-122 129,-185 12,-17 23,-33 34,-51 4,-5 7,-9 11,-15 103,-161 198,-333 284,-516 2,-4 4,-8 6,-13 58,-122 111,-250 161,-382 5,-12 10,-22 14,-33 12,-31 20,-63 31,-94 28,-79 55,-158 80,-240 6,-21 15,-41 21,-63 9,-31 16,-64 25,-95 18,-68 36,-136 53,-206 7,-29 16,-56 22,-85 7,-31 13,-64 19,-95 13,-60 26,-120 37,-181 6,-31 13,-61 18,-93 7,-36 11,-75 17,-112 9,-54 17,-109 25,-164 3,-28 9,-55 12,-84 6,-47 10,-97 15,-145 6,-52 12,-103 16,-156 2,-21 5,-41 7,-62 6,-70 9,-142 13,-213 2,-39 5,-76 7,-116 0,-9 2,-18 2,-27 5,-120 8,-241 8,-365 0,-7 0,-15 0,-22 1,-112 -1,-226 -4,-340z"/>
      <path class="fil17" d="M54835 48226c923,533 1674,105 1677,-955 3,-1062 -744,-2355 -1666,-2888 -924,-533 -1676,-105 -1679,957 -3,1060 744,2353 1668,2886zm17 -6110c2013,1162 3640,3980 3633,6294 -7,2313 -1643,3246 -3657,2084 -2013,-1163 -3641,-3980 -3634,-6294 7,-2313 1645,-3247 3658,-2084z"/>
      <path class="fil18" d="M54846 44383c922,533 1669,1826 1666,2888 -3,1060 -755,1488 -1677,955 -924,-533 -1671,-1826 -1668,-2886 3,-1062 754,-1490 1679,-957z"/>
      <path class="fil15" d="M54822 52830c3136,1811 5688,359 5698,-3245 10,-3605 -2525,-7995 -5661,-9806 -3137,-1811 -5688,-357 -5698,3247 -11,3605 2524,7993 5661,9804zm43 -15195c4167,2406 7534,8238 7520,13027 -13,4788 -3403,6718 -7570,4312 -4166,-2406 -7534,-8237 -7520,-13025 13,-4788 3403,-6719 7570,-4314z"/>
      <path class="fil19" d="M54828 50494c2014,1162 3651,229 3657,-2084 7,-2314 -1620,-5132 -3633,-6294 -2014,-1163 -3652,-229 -3658,2084 -7,2314 1621,5131 3634,6294zm31 -10715c3136,1811 5671,6201 5661,9806 -11,3604 -2562,5056 -5698,3245 -3137,-1811 -5672,-6199 -5661,-9804 10,-3604 2561,-5058 5698,-3247z"/>
     </g>
     <g>
      <polygon class="fil20" points="43725,52773 43402,52585 54708,46058 55032,46246 "/>
      <g>
       <polygon class="fil21" points="41759,52785 41435,52597 43402,52585 43725,52773 "/>
       <polygon class="fil20" points="39162,57095 38838,56907 40127,54757 40450,54945 "/>
       <polygon class="fil20" points="39336,55308 39012,55120 40161,54456 40485,54644 "/>
       <polygon class="fil21" points="39337,55588 39013,55400 39012,55120 39336,55308 "/>
       <polygon class="fil20" points="39155,54288 38832,54100 41435,52597 41759,52785 "/>
      </g>
      <polygon class="fil22" points="41759,52785 43725,52773 44142,52533 55032,46246 55032,46526 44143,52813 43726,53054 41604,55685 39162,57095 40450,54945 39337,55588 39336,55308 40485,54644 39155,54288 "/>
     </g>
     <g>
      <path class="fil23" d="M56285 15639l-4 0 -4 0c-45,0 -88,9 -128,25l0 0c-13,4 -25,8 -38,13l0 0c-13,4 -25,8 -37,13l0 0c-13,3 -26,7 -38,12l0 0c-13,4 -26,8 -38,13l0 0c-13,4 -25,8 -38,13l0 0c-13,3 -26,7 -38,12l0 0c-13,4 -25,8 -38,13l0 0c-12,3 -25,7 -37,12l0 0c-13,4 -26,8 -38,13l0 0c-13,3 -26,8 -38,12l0 0c-13,4 -26,8 -38,13l0 0c-13,4 -25,8 -38,13l0 0c-12,3 -25,7 -38,12l0 0c-12,4 -25,8 -37,13l0 0c-13,3 -26,7 -38,13l0 0c-13,3 -26,7 -38,12l0 0c-13,4 -25,8 -38,13l0 0c-13,3 -25,8 -38,12l0 0c-13,4 -25,8 -37,13l0 0c-13,3 -26,8 -38,13l0 0c-13,3 -26,7 -38,12l0 0c-13,4 -25,8 -38,13l0 0c-13,3 -25,7 -38,12l0 0c-12,4 -25,8 -38,13l0 0c-12,4 -25,8 -37,13l0 0c-13,3 -26,7 -38,12l0 0c-13,4 -26,8 -38,13l0 0c-13,4 -25,7 -38,13l0 0c-13,3 -25,7 -37,12l0 0c-14,4 -26,8 -39,13l0 0c-245,67 -414,404 -414,909l0 0 0 9575c0,714 337,1493 752,1739l0 0 1497 887 0 2929 37 -34 0 22 38 -34 0 21 38 -34 0 22 38 -34 0 21 38 -34 0 21 38 -34 0 22 37 -34 0 21 38 -34 0 22 38 -34 0 21 38 -34 0 21 38 -34 0 21 37 -33 0 21 38 -34 0 21 38 -34 0 22 38 -34 0 21 38 -34 0 22 38 -34 0 21 38 -34 0 22 37 -35 0 22 38 -34 0 21 38 -34 0 22 38 -34 0 21 37 -34 0 21 38 -34 0 22 38 -34 0 21 38 -34 0 22 38 -35 0 22 38 -34 0 21 37 -34 0 22 38 -34 0 21 38 -34 0 21 1236 -1110 6885 3607c137,81 264,93 375,49l0 0c13,-4 25,-8 38,-13l0 0c12,-4 25,-8 38,-13l0 0c753,-302 1211,-289 1211,-1262l0 0 0 -9575c0,-714 -337,-1493 -751,-1739l0 0 -10529 -5922c-84,-50 -164,-73 -239,-74z"/>
      <path class="fil24" d="M66142 22026l-10790 -5922c-415,-246 -752,134 -752,848l0 9575c0,714 337,1493 752,1739l1497 887 0 2929 1964 -1765 7329 3871c415,246 751,-134 751,-849l0 -9574c0,-715 -336,-1493 -751,-1739z"/>
      <path class="fil11" d="M58586 24340c0,375 -177,575 -395,446 -218,-129 -395,-539 -395,-914 0,-376 177,-575 395,-446 218,129 395,538 395,914z"/>
      <path class="fil11" d="M60925 25726c0,376 -176,575 -395,446 -218,-129 -395,-538 -395,-914 0,-375 177,-575 395,-446 219,129 395,539 395,914z"/>
      <path class="fil11" d="M63264 27113c0,375 -176,575 -395,446 -218,-130 -394,-539 -394,-915 0,-375 176,-575 394,-446 219,130 395,539 395,915z"/>
     </g>
     <g>
      <path class="fil25" d="M75043 19672l-10528 -5921c-137,-82 -264,-93 -375,-49 -13,4 -25,8 -38,13 -12,3 -25,7 -38,12 -12,4 -25,8 -37,13 -13,3 -26,7 -38,13 -13,3 -26,7 -38,12 -13,4 -25,8 -38,13 -12,3 -25,7 -38,12 -12,4 -25,8 -37,13 -13,4 -26,8 -38,12 -13,4 -26,8 -38,13 -13,4 -26,8 -38,13 -13,3 -25,7 -38,12 -13,4 -25,8 -37,13 -13,3 -26,8 -38,13 -13,3 -26,7 -38,12 -13,4 -26,8 -38,13 -13,3 -25,7 -38,13 -13,3 -25,7 -38,12 -13,4 -25,8 -37,13 -13,3 -26,7 -38,12 -13,4 -26,8 -38,13 -13,4 -26,8 -38,12 -13,4 -25,8 -38,13 -13,4 -25,8 -38,13 -12,3 -25,7 -38,12 -12,4 -25,8 -37,13 -13,3 -26,8 -38,13 -13,3 -25,7 -38,12 -13,4 -25,8 -38,13 -12,3 -25,7 -38,12 -245,68 -414,404 -414,910l0 9574c0,715 337,1494 752,1740l1497 887 0 2929 37 -34 0 21 38 -34 0 22 38 -34 0 21 38 -34 0 22 38 -34 0 21 38 -34 0 21 37 -34 0 22 38 -34 0 21 38 -34 0 21 38 -34 0 22 38 -34 0 21 37 -34 0 22 38 -34 0 21 38 -34 0 21 38 -34 0 22 38 -34 0 21 37 -34 0 22 38 -34 0 21 38 -34 0 22 38 -35 0 22 38 -34 0 21 38 -34 0 22 37 -34 0 21 38 -34 0 21 38 -34 0 22 38 -34 0 21 38 -34 0 22 38 -34 0 21 37 -34 0 21 38 -34 0 22 38 -34 0 21 1236 -1111 6885 3608c137,81 264,93 375,48 13,-3 25,-7 38,-12 12,-4 25,-8 38,-13 753,-303 1211,-290 1211,-1263l0 -9574c0,-715 -336,-1493 -752,-1740z"/>
      <path class="fil26" d="M74133 20063l-10790 -5922c-415,-246 -752,134 -752,849l0 9574c0,715 337,1494 752,1740l1496 887 0 2929 1965 -1765 7329 3871c415,246 751,-134 751,-849l0 -9574c0,-715 -336,-1494 -751,-1740z"/>
      <path class="fil27" d="M66577 22378c0,375 -177,575 -395,446 -218,-130 -395,-539 -395,-915 0,-375 177,-575 395,-446 218,130 395,539 395,915z"/>
      <path class="fil27" d="M68916 23764c0,375 -177,575 -395,446 -218,-130 -395,-539 -395,-914 0,-376 177,-575 395,-446 218,129 395,538 395,914z"/>
      <path class="fil27" d="M71255 25150c0,376 -176,575 -395,446 -218,-129 -395,-538 -395,-914 0,-375 177,-575 395,-446 219,129 395,539 395,914z"/>
     </g>
     <g>
      <polygon class="fil28" points="95997,46883 95983,51757 93331,50226 93345,45352 "/>
      <polygon class="fil29" points="95997,46883 97753,45863 97739,50736 95983,51757 "/>
      <polygon class="fil30" points="93345,45352 95101,44332 97753,45863 95997,46884 "/>
      <polygon class="fil28" points="100077,44559 100050,54105 97397,52574 97425,43027 "/>
      <polygon class="fil29" points="100077,44559 101833,43538 101806,53084 100050,54105 "/>
      <polygon class="fil30" points="97425,43028 99181,42007 101833,43538 100076,44559 "/>
      <polygon class="fil28" points="104148,44672 104114,56451 101462,54920 101496,43140 "/>
      <polygon class="fil29" points="104148,44672 105904,43651 105870,55431 104114,56451 "/>
      <polygon class="fil30" points="101496,43140 103252,42120 105904,43651 104148,44672 "/>
      <polygon class="fil31" points="105573,29169 108225,30701 109981,29680 107329,28149 "/>
      <polygon class="fil28" points="108225,30701 108181,58799 105528,57268 105573,29170 "/>
      <polygon class="fil32" points="108225,30701 108181,58799 109937,57779 109981,29680 "/>
     </g>
     <g>
      <path class="fil33" d="M96177 26124l-8 0 -3 0c-26,0 -52,1 -77,4 -2,0 -3,0 -5,0l0 0c-3,1 -6,1 -9,1l0 0c-24,3 -48,6 -70,11l0 0c-18,3 -33,8 -49,13l0 0c-10,2 -19,4 -28,7l0 0c-5,2 -11,3 -17,5l0 0c-35,12 -68,28 -99,46l0 0 -1152 669c35,-21 75,-37 116,-50l0 0c9,-3 19,-5 28,-8l0 0c38,-10 77,-19 119,-23l0 0c3,0 6,-1 9,-1l0 0c49,-5 101,-6 156,-2l0 0c2,0 4,0 6,0l0 0c56,4 115,11 177,24l0 0c2,0 3,1 5,1l0 0c60,12 123,28 187,48l0 0c6,2 11,4 16,5l0 0c63,20 128,44 195,71l0 0c7,3 13,5 20,8l0 0c68,29 138,60 211,96l0 0c3,2 6,4 9,5l0 0c76,38 153,80 233,126l0 0c51,29 96,62 145,92l0 0 -959 558c-36,21 -66,50 -89,87l0 0c-9,13 -16,27 -23,41l0 0c-6,12 -11,25 -17,39l0 0c-4,12 -8,25 -12,39l0 0c-1,3 -2,6 -3,10l0 0c0,1 -1,3 -1,5l0 0c-2,9 -5,17 -7,26l0 0c-3,16 -6,31 -9,47l0 0c-3,17 -6,34 -8,52l0 0c-2,12 -3,24 -4,37l0 0c0,3 0,6 -1,9l0 0c0,6 -1,11 -1,16l0 0c-2,25 -4,50 -5,76l0 0c-1,32 -2,66 -2,100l0 0c0,2 0,4 0,6l0 0 -3 1024c0,36 0,70 1,104l0 0c1,29 2,57 4,84l0 0c1,9 2,18 2,26l0 0c1,4 1,8 1,11l0 0c1,10 2,21 2,31l0 0c2,19 4,37 7,56l0 0c2,17 4,34 7,50l0 0c2,16 5,31 8,46l0 0c0,5 2,11 3,16l0 0c0,2 1,3 1,4l0 0c1,7 2,14 4,21l0 0c3,12 6,25 9,38l0 0c3,12 6,23 9,35l0 0c3,11 6,22 9,32l0 0c4,11 7,21 10,32l0 0c3,9 6,18 10,27l0 0c1,2 2,5 3,7l0 0c0,1 0,1 0,2l0 0c2,6 4,12 7,17l0 0c3,9 7,18 10,26l0 0c3,8 7,17 10,25l0 0c4,8 8,16 11,24l0 0c4,8 9,17 13,25l0 0c5,12 11,23 17,34l0 0c6,11 13,22 19,34l0 0c0,0 0,0 0,0l0 0c1,0 1,0 1,0l0 0c11,19 22,37 34,56l0 0c12,18 25,36 38,54l0 0c9,13 19,25 28,37l0 0c8,10 16,20 24,30l0 0c1,1 2,2 3,3l0 0c0,0 0,0 0,1l0 0c8,8 15,17 23,26l0 0c9,11 19,22 29,33l0 0c11,11 21,22 32,33l0 0c13,13 25,25 38,38l0 0c14,13 29,26 43,40l0 0c3,1 5,3 7,5l0 0c1,1 2,2 3,3l0 0c14,13 28,25 42,37l0 0c19,16 39,32 60,48l0 0c22,17 45,35 68,53l0 0c16,11 32,22 48,33l0 0c4,3 8,6 12,9l0 0c8,6 16,11 24,16l0 0c32,22 65,44 99,66l0 0c40,25 81,50 124,76l0 0c11,6 21,12 31,18l0 0c33,19 63,36 93,52l0 0c35,19 68,36 100,52l0 0c28,14 56,27 82,39l0 0c1,0 3,1 4,1l0 0c1,1 2,1 3,1l0 0c21,10 42,19 63,27l0 0c20,8 40,16 59,23l0 0c18,6 35,12 52,17l0 0c16,5 32,9 47,13l0 0c0,0 1,0 1,0l0 0c0,0 0,0 0,0l0 0c14,3 28,7 40,9l0 0c14,3 27,5 40,7l0 0c12,1 24,2 36,3l0 0c12,1 24,2 35,2l0 0c8,0 15,-1 21,-1l0 0c1,-1 3,-1 4,-1l0 0c3,0 6,0 10,0l0 0c12,-1 24,-3 36,-5l0 0c14,-3 28,-7 40,-12l0 0c15,-5 29,-11 42,-19l0 0 994 -577 -3 857c0,89 -7,169 -20,242l0 0c-1,2 -1,2 -1,4l0 0c-13,70 -32,133 -56,190l0 0c-1,2 -2,5 -4,8l0 0c-21,48 -48,88 -77,125l0 0c-9,12 -18,24 -28,34l0 0c-34,37 -72,70 -115,96l0 0c0,0 0,0 0,0l0 0c0,0 0,0 0,0l0 0 1152 -670c43,-25 80,-58 115,-95l0 0c10,-11 18,-23 28,-34l0 0c11,-14 23,-26 33,-42l0 0c14,-21 26,-43 37,-67l0 0c3,-5 5,-11 7,-16l0 0c2,-3 3,-6 4,-9l0 0c5,-11 9,-21 14,-32l0 0c7,-19 13,-38 19,-58l0 0c5,-17 10,-34 14,-53l0 0c3,-15 6,-31 9,-47l0 0c0,-1 1,-2 1,-3l0 0c0,-2 0,-3 1,-5l0 0c3,-18 6,-36 8,-55l0 0c2,-18 4,-38 6,-57l0 0c1,-20 3,-39 3,-59l0 0c1,-21 2,-41 2,-62l0 0 0 -4 5 -1796c0,-18 0,-36 -1,-55l0 0c0,-19 -1,-38 -2,-58l0 0c-2,-19 -3,-38 -5,-56l0 0c-2,-19 -4,-38 -6,-56l0 0c-2,-19 -5,-37 -8,-56l0 0c-3,-18 -6,-37 -9,-55l0 0c0,0 -1,-1 -1,-1l0 0 0 0c-3,-18 -7,-37 -11,-55l0 0c-4,-18 -8,-37 -13,-55l0 0c-4,-18 -9,-37 -14,-55l0 0c-5,-19 -11,-37 -16,-55l0 0c-6,-18 -11,-36 -17,-53l0 0c-6,-18 -12,-36 -19,-53l0 0c-1,-4 -3,-8 -4,-11l0 0c0,-1 -1,-2 -1,-3l0 0c-4,-13 -9,-25 -14,-37l0 0c-7,-17 -13,-34 -20,-50l0 0c-7,-17 -14,-34 -22,-51l0 0c-8,-18 -16,-36 -24,-54l0 0c-9,-17 -17,-35 -26,-53l0 0c-12,-24 -24,-48 -37,-72l0 0c-3,-5 -6,-9 -8,-14l0 0c-1,-2 -3,-5 -4,-7l0 0c-12,-22 -25,-44 -37,-67l0 0c-31,-53 -64,-105 -99,-157l0 0c-21,-31 -42,-61 -64,-91l0 0c-4,-4 -7,-9 -10,-14l0 0c-4,-5 -7,-10 -11,-15l0 0c-19,-27 -40,-54 -61,-80l0 0c-19,-25 -40,-50 -61,-75l0 0c-20,-24 -40,-48 -61,-72l0 0c-19,-22 -39,-44 -59,-66l0 0c-2,-1 -2,-2 -3,-3l0 0c-3,-3 -5,-6 -8,-8l0 0c-24,-27 -49,-53 -75,-79l0 0c-28,-28 -56,-56 -85,-83l0 0c-30,-30 -63,-60 -95,-89l0 0c-12,-11 -24,-21 -36,-31l0 0c-5,-5 -10,-9 -15,-14l0 0c-18,-15 -35,-31 -53,-46l0 0c-37,-31 -74,-62 -113,-92l0 0c-39,-31 -79,-61 -120,-92l0 0c-15,-11 -31,-21 -45,-32l0 0c-8,-5 -15,-10 -22,-15l0 0c-21,-15 -41,-29 -61,-44l0 0c-45,-30 -91,-60 -137,-90l0 0c-48,-30 -96,-60 -146,-89l0 0c-11,-7 -22,-13 -34,-20l0 0c-38,-22 -75,-42 -112,-63l0 0c-41,-22 -81,-42 -121,-62l0 0c-3,-2 -6,-4 -9,-5l0 0c-2,-1 -4,-2 -5,-3l0 0c-42,-20 -84,-40 -125,-59l0 0c-28,-12 -55,-23 -81,-34l0 0c-7,-3 -14,-6 -20,-8l0 0c-5,-2 -10,-5 -15,-7l0 0c-36,-14 -72,-28 -108,-40l0 0c-24,-9 -48,-17 -72,-24l0 0c-5,-2 -11,-4 -15,-5l0 0c-5,-1 -9,-3 -13,-4l0 0c-31,-10 -63,-19 -94,-26l0 0c-28,-7 -55,-13 -81,-18l0 0c-2,-1 -4,-1 -5,-1l0 0c-2,-1 -3,-1 -4,-1l0 0c-29,-6 -58,-11 -86,-15l0 0c-28,-4 -56,-6 -83,-8l0 0c-1,0 -2,0 -4,0l0 0c-2,-1 -4,0 -6,-1l0 0c-22,-1 -43,-2 -63,-2zm1393 4318c-2,0 -2,-1 -3,-1l0 0c-83,-37 -176,-85 -278,-144l0 0c-104,-60 -196,-118 -279,-177l0 0c-4,-3 -8,-5 -12,-8l0 0c-81,-57 -154,-114 -218,-171l0 0c-1,-1 -2,-2 -3,-3l0 0c-65,-58 -122,-117 -172,-176l0 0c0,0 0,0 -1,-1l0 0c-49,-59 -91,-118 -126,-179l0 0c0,0 -1,-1 -1,-1l0 0c-35,-60 -64,-122 -87,-185l0 0c0,0 0,-1 -1,-1l0 0c-23,-62 -40,-126 -54,-192l0 0c0,-1 0,-3 0,-4l0 0c-13,-65 -21,-131 -27,-199l0 0c0,-4 -1,-7 -1,-11l0 0c-5,-69 -7,-140 -7,-214l0 0 3 -1024c0,-71 2,-137 8,-198l0 0c0,-4 1,-6 1,-10l0 0c6,-59 15,-113 28,-162l0 0c0,-1 0,-3 1,-4l0 0c6,-22 16,-38 24,-57l0 0c53,34 109,66 160,102l0 0c7,5 14,11 21,16l0 0c117,83 228,171 332,261l0 0c5,5 10,10 16,14l0 0c106,93 206,190 297,290l0 0c2,1 3,2 4,4l0 0c92,100 176,203 253,308l0 0c4,4 7,9 10,13l0 0c75,104 142,209 200,315l0 0c1,3 3,5 4,8l0 0c59,109 110,220 151,330l0 0c1,1 1,2 1,3l0 0c41,112 73,225 94,337l0 0 0 0c22,113 32,226 32,337l0 0 -2 880c-44,0 -91,-3 -146,-16l0 0 0 0c-66,-17 -140,-43 -222,-80l0 0z"/>
      <path class="fil33" d="M103829 37777l0 -11 -1 -44 0 0c0,-19 -1,-38 -3,-58l0 0c-1,-18 -2,-37 -4,-56l0 0c-2,-18 -4,-37 -6,-55l0 0c-3,-19 -5,-37 -8,-56l0 0c-3,-18 -6,-37 -10,-55l0 0c0,-1 0,-1 0,-1l0 0c0,0 0,-1 0,-1l0 0c-3,-18 -7,-36 -11,-53l0 0c-4,-19 -8,-37 -13,-56l0 0c-4,-18 -9,-37 -14,-55l0 0c-5,-18 -10,-36 -16,-54l0 0c-5,-18 -11,-36 -17,-53l0 0c-6,-18 -12,-35 -18,-53l0 0c-2,-4 -3,-8 -5,-12l0 0c0,-1 -1,-2 -1,-3l0 0c-4,-12 -9,-24 -14,-36l0 0c-6,-17 -13,-33 -20,-50l0 0c-6,-17 -14,-34 -21,-50l0 0c-8,-18 -16,-36 -25,-54l0 0c-8,-18 -17,-36 -26,-54l0 0c-12,-24 -24,-48 -37,-72l0 0c-3,-5 -5,-9 -8,-14l0 0c-1,-3 -3,-5 -4,-8l0 0c-12,-21 -24,-42 -36,-64l0 0c-31,-53 -65,-107 -100,-160l0 0c-21,-30 -43,-60 -65,-90l0 0c-3,-5 -6,-9 -9,-14l0 0c-4,-5 -7,-10 -11,-15l0 0c-19,-27 -40,-53 -61,-80l0 0c-19,-25 -40,-50 -60,-75l0 0c-20,-24 -41,-48 -62,-72l0 0c-19,-22 -39,-44 -59,-65l0 0c-1,-2 -3,-3 -4,-5l0 0c-2,-2 -4,-4 -6,-7l0 0c-25,-26 -50,-52 -76,-78l0 0c-27,-29 -55,-56 -84,-84l0 0c-32,-30 -63,-59 -96,-89l0 0c-11,-10 -24,-20 -35,-31l0 0c-6,-5 -11,-9 -17,-14l0 0c-17,-15 -34,-31 -52,-46l0 0c-37,-31 -74,-61 -113,-91l0 0c-39,-32 -79,-62 -120,-92l0 0c-15,-11 -31,-22 -46,-32l0 0c-7,-6 -14,-11 -21,-16l0 0c-21,-15 -41,-29 -61,-43l0 0c-45,-31 -91,-61 -137,-90l0 0c-48,-31 -96,-61 -146,-90l0 0c-11,-6 -22,-13 -34,-20l0 0c-38,-21 -75,-42 -112,-63l0 0c-41,-21 -80,-42 -120,-61l0 0c-4,-3 -7,-5 -12,-7l0 0c-1,0 -2,-1 -4,-2l0 0c-42,-21 -84,-41 -125,-59l0 0c-28,-12 -54,-23 -81,-34l0 0c-6,-3 -13,-6 -20,-9l0 0c-5,-2 -10,-4 -15,-6l0 0c-37,-15 -73,-28 -108,-41l0 0c-25,-9 -49,-16 -73,-24l0 0c-5,-1 -9,-3 -14,-5l0 0c-4,-1 -9,-2 -13,-4l0 0c-32,-9 -64,-18 -95,-26l0 0c-27,-7 -53,-12 -79,-18l0 0c-2,0 -5,-1 -7,-1l0 0c-1,0 -3,-1 -4,-1l0 0c-29,-6 -57,-10 -85,-14l0 0c-29,-4 -56,-7 -83,-9l0 0c-2,0 -3,0 -4,0l0 0c-2,0 -4,0 -6,0l0 0c-20,-1 -39,-2 -58,-2l-7 0 -13 0c-25,0 -50,1 -74,3l0 0c-1,0 -2,1 -4,1l0 0c-3,0 -6,1 -9,1l0 0c-24,3 -48,5 -71,10l0 0c-16,3 -32,9 -48,13l0 0c-10,3 -19,5 -28,8l0 0c-5,1 -11,2 -17,4l0 0c-35,13 -68,28 -99,46l0 0 -1152 669c36,-21 75,-37 116,-50l0 0c9,-3 19,-5 28,-7l0 0c38,-11 77,-19 120,-24l0 0c2,0 5,-1 8,-1l0 0c49,-4 101,-5 156,-2l0 0c2,0 4,0 6,0l0 0c56,4 115,12 176,24l0 0c2,1 5,1 7,2l0 0c60,12 122,28 187,48l0 0c5,1 10,3 14,5l0 0c64,20 129,43 196,71l0 0c7,2 13,5 20,8l0 0c68,28 138,60 211,96l0 0c4,2 7,4 11,6l0 0c76,37 153,79 232,125l0 0c50,29 96,62 145,92l0 0 -960 558c-36,21 -65,50 -89,87l0 0c0,0 0,0 0,0l0 0c-8,13 -15,26 -22,41l0 0c-6,12 -12,25 -17,39l0 0c-4,12 -9,25 -12,38l0 0c-1,3 -2,7 -3,10l0 0c-1,2 -1,4 -1,5l0 0c-3,9 -5,18 -7,27l0 0c-4,15 -7,30 -9,46l0 0c-4,17 -6,34 -8,52l0 0c-2,12 -3,24 -4,36l0 0c0,4 0,7 -1,10l0 0c0,6 -1,10 -2,16l0 0c-1,25 -3,50 -4,76l0 0c-1,32 -2,65 -2,99l0 0c0,2 0,4 0,6l0 0 -3 1026c0,35 0,70 1,104l0 0c1,28 2,56 4,84l0 0c1,8 1,17 2,26l0 0c0,3 1,7 1,11l0 0c1,10 1,20 2,30l0 0c2,19 4,37 6,56l0 0c2,17 5,34 8,50l0 0c2,16 5,30 7,46l0 0c1,5 3,11 4,16l0 0c0,2 0,3 1,5l0 0c1,6 2,13 4,19l0 0c3,13 5,26 9,39l0 0c2,12 5,23 9,35l0 0c3,11 6,22 9,32l0 0c3,11 7,22 10,32l0 0c3,9 6,18 10,27l0 0c1,3 1,5 3,7l0 0c0,1 0,1 0,2l0 0c2,6 4,12 7,18l0 0c3,8 7,17 10,26l0 0c3,8 7,16 10,24l0 0c4,8 8,16 11,24l0 0c5,9 9,18 13,26l0 0c6,11 11,22 17,33l0 0c7,12 13,23 19,34l0 0c0,0 0,0 0,0l0 0c1,0 1,0 1,0l0 0c11,20 23,39 36,58l0 0c11,18 23,36 36,53l0 0c9,13 19,25 29,38l0 0c8,10 16,20 24,30l0 0c1,0 1,1 1,1l0 0c1,1 1,1 1,1l0 0c8,9 16,18 24,28l0 0c9,11 19,22 29,32l0 0c10,11 21,23 32,34l0 0c13,12 25,25 38,37l0 0c14,14 28,27 43,41l0 0c2,1 4,3 6,4l0 0c1,1 2,2 3,3l0 0c14,13 29,25 44,38l0 0c19,16 38,32 59,48l0 0c22,17 45,35 69,52l0 0c14,11 30,22 46,33l0 0c4,3 8,6 12,9l0 0c9,6 16,12 25,17l0 0c32,22 65,44 99,66l0 0c39,25 80,50 123,75l0 0c11,6 21,12 31,18l0 0c32,18 63,36 93,52l0 0c34,19 67,36 99,52l0 0c28,14 55,26 82,38l0 0c1,1 3,1 4,2l0 0c2,1 3,1 3,1l0 0c22,10 42,19 62,27l0 0c21,8 41,16 60,22l0 0c17,6 35,12 51,17l0 0c17,5 32,9 47,13l0 0c1,0 2,0 2,1l0 0c1,0 1,0 1,0l0 0c13,3 27,6 39,9l0 0c14,2 27,4 39,6l0 0c13,2 25,3 37,4l0 0c12,1 24,1 35,1l0 0c8,0 15,-1 22,-1l0 0c1,0 2,0 3,0l0 0c3,0 7,0 10,0l0 0c12,-2 24,-3 36,-6l0 0c15,-3 28,-6 41,-11l0 0c15,-5 28,-12 42,-19l0 0 993 -578 -2 859c0,88 -7,168 -20,241l0 0c-1,2 -1,3 -1,4l0 0c-13,70 -32,134 -56,190l0 0c-1,3 -2,6 -4,8l0 0c-21,48 -48,88 -77,125l0 0c-9,12 -18,24 -28,34l0 0c-35,37 -72,71 -115,96l0 0 1152 -669c43,-26 80,-59 115,-96l0 0c10,-10 18,-23 28,-34l0 0c11,-14 23,-26 33,-41l0 0c14,-22 26,-44 37,-68l0 0c3,-5 5,-11 7,-16l0 0c2,-3 3,-6 4,-8l0 0c4,-11 9,-22 13,-33l0 0c8,-18 14,-37 20,-57l0 0c5,-17 9,-35 14,-54l0 0c3,-15 6,-31 9,-47l0 0c0,-1 1,-2 1,-3l0 0c0,-1 0,-3 0,-5l0 0c4,-18 7,-36 9,-55l0 0c2,-18 4,-37 6,-57l0 0c1,-19 2,-39 3,-59l0 0c1,-20 1,-41 2,-62l0 0c0,-2 0,-3 0,-4l0 0 5 -1798zm-1522 1455c-2,0 -3,-1 -4,-1l0 0c-83,-37 -175,-85 -278,-144l0 0c-103,-60 -195,-118 -278,-176l0 0c-4,-3 -8,-6 -12,-9l0 0c-81,-58 -154,-114 -218,-171l0 0c-1,-1 -2,-2 -3,-3l0 0c-66,-59 -123,-117 -172,-176l0 0c0,0 0,-1 0,-1l0 0c-50,-59 -92,-119 -128,-180l0 0c0,0 0,0 0,0l0 0c-35,-61 -64,-122 -87,-185l0 0c0,-1 0,-2 -1,-2l0 0c-23,-62 -40,-126 -53,-191l0 0c-1,-2 -1,-4 -1,-5l0 0c-13,-65 -22,-130 -27,-199l0 0c0,-3 -1,-7 -1,-11l0 0c-5,-68 -7,-139 -7,-213l0 0 2 -1026c1,-71 3,-137 9,-197l0 0c0,-4 1,-7 1,-10l0 0c6,-59 15,-113 27,-161l0 0c1,-2 1,-4 2,-5l0 0c6,-22 16,-37 24,-56l0 0c53,34 109,66 160,102l0 0c7,6 14,10 21,16l0 0c117,83 227,171 332,261l0 0c5,5 10,10 15,14l0 0c107,94 206,191 298,290l0 0c2,1 3,3 4,4l0 0c92,100 177,203 253,308l0 0c4,4 6,9 10,13l0 0c74,104 141,209 200,315l0 0c1,2 3,5 4,7l0 0c59,109 110,220 151,330l0 0c1,1 1,2 1,3l0 0c41,113 73,225 94,337l0 0c0,0 0,0 0,0l0 0c21,113 32,225 32,336l0 0 -3 882c-43,0 -90,-3 -145,-17l0 0c0,0 -1,0 -1,0l0 0c-65,-16 -139,-42 -221,-79l0 0z"/>
      <path class="fil33" d="M102742 31701l0 -3 0 -12 0 -18 0 0c-1,-10 -1,-19 -2,-29l0 0c0,-11 -1,-21 -2,-31l0 0c0,-1 0,-1 0,-1l0 0c0,-1 0,-1 0,-2l0 0c-2,-11 -3,-23 -4,-35l0 0c-2,-12 -4,-24 -5,-36l0 0c-3,-14 -5,-28 -8,-42l0 0c0,0 0,-1 0,-1l0 0c-3,-14 -6,-29 -9,-43l0 0c-3,-17 -7,-34 -12,-51l0 0c-1,-6 -3,-13 -5,-19l0 0c-1,-4 -2,-8 -3,-12l0 0c-2,-7 -4,-14 -5,-21l0 0c-6,-19 -12,-39 -18,-59l0 0c-3,-9 -5,-17 -8,-25l0 0c-2,-6 -3,-11 -5,-16l0 0c-2,-7 -5,-14 -7,-21l0 0c-7,-22 -15,-44 -23,-66l0 0c-2,-5 -3,-10 -5,-14l0 0c-3,-7 -6,-14 -8,-22l0 0c-4,-11 -9,-23 -13,-35l0 0c-7,-17 -14,-33 -20,-49l0 0c-3,-7 -5,-13 -8,-19l0 0c-1,-2 -2,-4 -3,-6l0 0c-11,-27 -22,-54 -33,-79l0 0c-1,-3 -2,-5 -3,-7l0 0c-6,-12 -11,-23 -16,-34l0 0c-6,-14 -13,-29 -19,-43l0 0c-2,-4 -4,-7 -6,-11l0 0c-9,-20 -18,-37 -27,-55l0 0c-3,-8 -7,-17 -11,-24l0 0c-1,-2 -1,-3 -3,-5l0 0c-16,-34 -31,-61 -43,-84l0 0c-1,-1 -1,-3 -2,-4l0 0c-3,-5 -3,-5 -5,-10l0 0c-10,-19 -19,-34 -21,-39l0 0 -1152 669c2,5 11,22 21,40l0 0c3,4 5,9 7,14l0 0c12,22 27,50 44,83l0 0c4,9 9,20 14,29l0 0c8,18 17,36 26,56l0 0c9,17 17,36 26,55l0 0c5,11 10,21 14,31l0 0c14,30 27,61 40,94l0 0c3,5 5,12 8,18l0 0c11,28 22,56 33,85l0 0c3,7 5,14 8,21l0 0c12,33 24,67 35,101l0 0c2,5 4,11 5,16l0 0c12,35 22,70 31,106l0 0c1,3 2,7 3,11l0 0c10,38 19,76 26,113l0 0c0,0 0,1 0,1l0 0 0 0c7,39 13,77 17,115l0 0 0 1c3,37 5,73 4,108l0 0c0,1 0,2 0,3l0 0c-1,34 -5,67 -11,98l0 0c0,1 -1,3 -1,4l0 0c-6,30 -15,59 -27,85l0 0c0,2 -1,3 -2,5l0 0c-8,18 -21,34 -32,51l0 0c-23,32 -50,61 -86,82l0 0 -5801 3704 1152 -670 5800 -3703c37,-22 64,-51 87,-83l0 0c2,-3 7,-5 9,-10l0 0c8,-10 14,-22 20,-34l0 0c1,-2 2,-4 3,-7l0 0c1,-1 1,-3 2,-4l0 0c3,-7 6,-14 9,-21l0 0c3,-9 6,-18 9,-27l0 0c2,-9 5,-18 7,-26l0 0c1,-4 1,-8 2,-12l0 0c0,-1 1,-2 1,-4l0 0c0,-3 1,-7 2,-11l0 0c2,-9 3,-17 4,-26l0 0c1,-9 2,-17 3,-26l0 0c0,-9 1,-18 1,-27l0 0c1,-2 1,-5 1,-8l0 0c0,-1 0,-1 0,-3l0 0 0 -14z"/>
      <path class="fil34" d="M101865 39378l3 -1027c2,-577 -181,-1055 -986,-1520 -843,-487 -993,-201 -994,377l-3 1026c-2,607 145,1036 989,1522 805,465 990,229 991,-378zm-981 -3408c1087,627 1795,1586 1793,2476l-5 1799c-3,920 -714,1000 -1801,372 -1089,-629 -1795,-1526 -1793,-2447l5 -1799c3,-889 712,-1030 1801,-401z"/>
      <path class="fil34" d="M95148 29444c-2,609 145,1035 989,1522 805,465 990,231 991,-378l3 -1024c2,-581 -181,-1058 -986,-1524 -843,-486 -992,-200 -994,380l-3 1024zm2787 2010c-2,921 -713,1001 -1801,373 -1087,-628 -1795,-1526 -1793,-2448l5 -1796c3,-892 714,-1031 1801,-403 1088,627 1796,1586 1793,2478l-5 1796z"/>
      <path class="fil34" d="M101228 31287c32,58 645,1160 203,1427l-5801 3703c-32,-58 -645,-1161 -203,-1427l5801 -3703z"/>
     </g>
     <g>
      <path class="fil35" d="M94686 85164c150,87 169,220 39,295l-4333 2518c-129,76 -361,66 -511,-21l-83 -47c-151,-88 -167,-221 -38,-296l4333 -2519c130,-75 359,-65 510,22l83 48z"/>
      <path class="fil36" d="M94816 80714l-8642 5022c-1156,672 -1150,1771 15,2444l0 0 1546 893c1164,671 3062,671 4218,-1l0 0 4863 -2826 2022 1942 1115 -3764 642 -373c1156,-672 1149,-1772 -14,-2444l0 0 -1546 -892c-583,-337 -1349,-505 -2114,-505l0 0c-764,0 -1528,168 -2105,504zm-6605 6278c-173,-100 -191,-253 -43,-339l0 0 8238 -4787c148,-86 412,-76 585,24l0 0c173,100 193,253 45,340l0 0 -8238 4787c-67,39 -158,58 -254,58l0 0c-116,0 -238,-28 -333,-83zm1670 964l-83 -47c-151,-87 -167,-221 -38,-296l0 0 4334 -2519c129,-75 358,-65 509,22l0 0 83 48c150,87 168,220 39,295l0 0 -4333 2518c-59,34 -138,51 -222,51l0 0c-101,0 -207,-24 -289,-72l0 0z"/>
      <path class="fil35" d="M96991 81890c173,100 193,253 45,340l-8238 4787c-148,86 -414,75 -587,-25 -173,-100 -191,-253 -43,-339l8238 -4787c148,-86 412,-76 585,24z"/>
      <path class="fil37" d="M101450 82924c-3,32 -5,64 -11,96l0 0c-4,25 -12,50 -18,76l0 0c-8,30 -16,60 -26,90l0 0c-9,24 -20,48 -31,73l0 0c-14,31 -27,62 -44,93l0 0c-12,22 -26,45 -40,67l0 0c-21,35 -44,69 -69,103l0 0c-16,21 -32,41 -49,61l0 0c-38,46 -81,92 -127,136l0 0c-16,16 -30,32 -48,48l0 0c-28,25 -59,49 -89,74l0 0c-28,22 -55,45 -84,66l0 0c-33,24 -70,47 -105,70l0 0c-38,25 -74,50 -114,74l0 0 -642 373 -1115 3764 -2022 -1942 -4863 2826c-88,52 -182,98 -279,141l0 0c-28,13 -56,25 -85,37l0 0c-75,31 -152,60 -230,87l0 0c-30,10 -59,21 -89,30l0 0c-50,16 -101,30 -152,44l0 0c-40,11 -79,22 -119,31l0 0c-53,13 -108,24 -163,35l0 0c-38,8 -75,17 -114,23l0 0c-112,20 -226,36 -340,48l0 0c-35,3 -69,5 -104,8l0 0c-68,6 -137,11 -206,14l0 0c-42,2 -85,3 -128,4l0 0c-55,0 -110,1 -166,0l0 0c-45,0 -90,-2 -136,-3l0 0c-51,-2 -102,-5 -153,-9l0 0c-46,-3 -92,-7 -137,-11l0 0c-51,-5 -101,-10 -151,-17l0 0c-44,-5 -89,-12 -133,-18l0 0c-53,-9 -106,-18 -159,-28l0 0c-41,-8 -83,-16 -124,-25l0 0c-63,-14 -124,-29 -186,-46l0 0c-34,-9 -68,-17 -101,-27l0 0c-110,-32 -216,-67 -319,-107l0 0c-51,-20 -100,-42 -149,-64l0 0c-26,-11 -52,-21 -77,-33l0 0c-75,-36 -148,-73 -218,-113l0 0 -1546 -893c-586,-339 -879,-786 -878,-1231l0 0 -4 1418c-1,446 292,893 878,1231l0 0 1546 893c70,40 143,78 218,113l0 0c25,12 51,22 76,34l0 0c44,19 87,39 132,57l0 0c6,2 12,4 18,6l0 0c103,40 209,76 319,108l0 0c8,2 16,6 24,8l0 0c25,7 52,12 77,19l0 0c62,16 123,32 186,46l0 0c16,3 32,8 48,11l0 0c25,5 51,9 76,13l0 0c53,10 106,20 159,28l0 0c21,3 41,8 62,11l0 0c23,3 47,5 71,8l0 0c50,6 100,12 151,17l0 0c23,2 46,6 70,7l0 0c22,2 44,2 67,4l0 0c51,4 102,6 153,8l0 0c25,1 50,3 75,4l0 0c11,1 22,1 34,0l0 0c9,0 18,0 27,0l0 0c55,1 111,0 166,-1l0 0c12,0 24,0 35,0l0 0c16,0 31,0 46,0l0 0c16,-1 31,-3 47,-3l0 0c69,-3 138,-8 206,-14l0 0c27,-2 54,-3 80,-5l0 0c8,-1 16,-3 24,-4l0 0c115,-12 228,-27 340,-47l0 0c6,-1 12,-2 18,-3l0 0c33,-5 64,-14 97,-20l0 0c54,-11 109,-22 162,-35l0 0c40,-10 79,-21 119,-32l0 0c51,-14 102,-28 152,-43l0 0c12,-4 24,-6 35,-10l0 0c18,-6 35,-14 53,-20l0 0c79,-27 156,-56 231,-88l0 0c29,-12 57,-23 85,-36l0 0c97,-43 191,-90 279,-141l0 0 4863 -2826 2022 1942 1115 -3765 642 -373c12,-7 24,-14 36,-21l0 0c27,-17 52,-35 78,-53l0 0c35,-23 72,-45 104,-69l0 0c30,-22 57,-45 85,-67l0 0c30,-24 61,-49 89,-74l0 0c6,-5 12,-9 18,-14l0 0c11,-11 19,-22 30,-33l0 0c46,-45 89,-90 127,-136l0 0c8,-10 19,-20 27,-29l0 0c8,-11 14,-22 21,-32l0 0c26,-34 48,-69 70,-104l0 0c9,-14 21,-28 29,-43l0 0c5,-8 7,-16 11,-24l0 0c17,-30 30,-62 44,-93l0 0c8,-18 18,-35 25,-53l0 0c2,-7 3,-13 6,-20l0 0c10,-30 18,-60 25,-90l0 0c6,-20 13,-39 17,-59l0 0c2,-5 1,-11 2,-17l0 0c6,-31 8,-63 11,-95l0 0c2,-20 7,-40 7,-61l0 0c0,-8 1,-17 1,-26l0 0 4 -1418c-1,28 -5,57 -8,86l0 0z"/>
     </g>
     <g>
      <path class="fil38" d="M85143 92336l0 -3 -3 1139 0 0c0,12 0,24 0,36l0 0c-1,18 -5,36 -6,54l0 0c-4,50 -9,101 -18,151l0 0c-2,10 -1,21 -3,32l0 0c-4,17 -11,33 -15,50l0 0c-11,45 -24,91 -39,137l0 0c-5,15 -7,30 -13,45l0 0c-5,12 -12,24 -17,37l0 0c-20,49 -43,97 -69,146l0 0c-8,17 -14,34 -24,51l0 0c-5,10 -12,20 -18,30l0 0c-8,13 -16,26 -24,39l0 0c-32,51 -66,101 -103,150l0 0c-6,7 -10,13 -15,20l0 0c-2,2 -4,5 -6,8l0 0c-41,53 -88,105 -137,157l0 0c-14,14 -29,28 -43,43l0 0c-25,25 -49,50 -76,75l0 0c-17,16 -36,31 -53,46l0 0c-16,14 -32,28 -49,42l0 0c-60,51 -123,101 -192,149l0 0c-46,36 -97,71 -152,104l0 0c-5,4 -9,7 -15,11l0 0c-10,6 -21,12 -32,19l-8716 5065 0 0c-75,44 -154,83 -236,119l0 0c-27,12 -57,21 -85,33l0 0c-56,22 -111,45 -170,64l0 0c-2,0 -3,1 -5,1l0 0c-76,25 -155,46 -235,65l0 0c-23,5 -47,10 -71,15l0 0c-34,7 -69,16 -104,22l0 0c-42,7 -85,14 -127,20l0 0c-104,25 -210,47 -316,66l0 0c-9,2 -17,4 -26,6l0 0c-12,2 -25,3 -38,5l0 0c-161,28 -324,52 -489,68l0 0c-1,0 -2,1 -2,1l0 0c-4,0 -8,0 -12,0l0 0c-130,13 -262,21 -394,27l0 0c-17,0 -34,2 -51,3l0 0c-9,0 -17,0 -26,0l0 0c-7,0 -14,0 -22,0l0 0c-121,3 -242,5 -364,2l0 0c-2,0 -4,0 -6,0l0 0c-2,0 -3,0 -5,0l0 0c-1,0 -2,0 -3,0l0 0c-121,-3 -242,-10 -363,-20l0 0c-13,-1 -27,-1 -40,-2l0 0c-21,-2 -42,-5 -63,-7l0 0c-92,-8 -183,-18 -274,-30l0 0c-21,-3 -43,-5 -64,-8l0 0c-11,-1 -21,-4 -32,-5l0 0c-122,-18 -242,-39 -361,-63l0 0c-5,-1 -10,-2 -15,-3l0 0c-13,-2 -25,-6 -38,-9l0 0c-116,-25 -231,-53 -344,-84l0 0c-16,-5 -34,-8 -51,-13l0 0c-9,-2 -17,-6 -26,-8l0 0c-148,-43 -292,-92 -432,-146l0 0c-12,-5 -25,-8 -37,-13l0 0c-16,-6 -31,-14 -47,-20l0 0c-67,-27 -132,-56 -197,-85l0 0c-29,-14 -60,-27 -88,-41l0 0c-92,-45 -182,-91 -268,-141l0 0c-813,-469 -1219,-1086 -1217,-1701l0 -244 0 0c-124,-79 -220,-168 -284,-263l0 0c-67,-99 -100,-205 -100,-310l2 -853 0 0c-289,-375 -435,-778 -434,-1182l3 -1139 0 0c-1,329 95,659 288,973l0 0c116,188 266,371 452,545l-3 1035 0 0c30,24 63,46 99,68l-1 462 0 0c87,536 487,1059 1198,1470l0 0c86,50 176,96 268,141l0 0c29,14 59,27 89,41l0 0c64,29 129,58 196,85l0 0c28,11 57,22 85,33l0 0c140,54 284,103 431,146l0 0c26,7 52,14 78,21l0 0c113,31 227,59 343,84l0 0c18,4 35,8 53,12l0 0c119,24 240,45 361,63l0 0c32,5 65,8 97,13l0 0c90,11 182,22 273,30l0 0c34,3 69,7 103,9l0 0c121,10 242,17 364,20l0 0c5,0 10,0 15,0l0 0c121,2 242,2 362,-2l0 0c33,-1 66,-2 99,-4l0 0c132,-5 264,-13 395,-26l0 0c4,0 9,0 13,-1l0 0c165,-16 328,-40 489,-68l0 0c21,-4 43,-7 64,-11l0 0c107,-19 212,-41 316,-66l0 0c79,-11 155,-26 231,-42l0 0c24,-5 48,-10 71,-16l0 0c82,-19 163,-40 240,-66l0 0c58,-18 112,-40 167,-62l0 0c29,-12 60,-21 89,-34l0 0c82,-36 160,-75 235,-119l8717 -5065 0 0c16,-10 31,-20 47,-30l0 0c54,-33 105,-68 151,-104l0 0c69,-48 132,-98 193,-149l0 0c16,-14 32,-28 48,-42l0 0c45,-40 88,-80 129,-121l0 0c14,-14 30,-29 43,-43l0 0c52,-55 100,-109 143,-165l0 0c5,-7 10,-13 15,-20l0 0c37,-49 72,-100 103,-150l0 0c8,-13 16,-26 24,-39l0 0c16,-27 29,-54 43,-81l0 0c25,-49 48,-97 68,-146l0 0c11,-28 21,-55 30,-82l0 0c16,-46 29,-91 39,-137l0 0c7,-28 14,-55 19,-82l0 0c8,-50 13,-101 17,-151l0 0c2,-29 6,-58 6,-87z"/>
      <path class="fil39" d="M78526 90408c-1368,-544 -3249,-465 -4458,237l0 0c-402,234 -684,512 -849,807l0 0c-1440,-88 -2930,187 -4029,826l0 0c-1651,960 -1883,2428 -702,3536l0 0c-441,326 -408,796 96,1103l0 0c-117,689 282,1404 1197,1932l0 0c1219,704 3002,876 4494,520l0 0c381,-54 737,-167 1033,-339l0 0 8717 -5065c72,-42 139,-87 198,-134l0 0c1321,-939 1218,-2326 -298,-3201l0 0c-809,-467 -1866,-700 -2922,-700l0 0c-874,0 -1746,159 -2477,478l0 0z"/>
      <path class="fil40" d="M73592 94268c-16,-77 -7,-157 30,-237 47,-99 132,-186 244,-257 12,-8 24,-15 36,-22 6,-4 12,-7 19,-11 12,-7 25,-14 39,-20 13,-7 26,-13 40,-19 7,-3 13,-6 21,-9 27,-13 56,-24 86,-34 7,-3 15,-5 22,-8 15,-5 31,-9 46,-14 8,-2 15,-5 23,-7 16,-4 32,-8 48,-12 8,-2 16,-4 24,-6 11,-2 23,-5 34,-7 13,-3 26,-6 40,-8 16,-3 33,-6 50,-8 22,-4 45,-7 68,-10 12,-1 23,-2 35,-3 17,-2 34,-3 52,-4 26,-2 53,-3 79,-4 18,0 36,0 54,0 89,1 180,8 271,22 162,25 306,71 425,130 20,10 40,21 58,31 12,7 25,15 36,22 12,8 23,15 34,23 28,19 54,40 77,61 9,8 18,17 27,25 13,14 25,27 36,40 8,9 15,18 22,28 3,4 6,9 10,14 6,9 12,18 18,28 8,14 16,29 23,43 4,10 8,20 12,30 34,94 32,194 -15,293 -39,83 -105,158 -192,222 -11,8 -22,16 -34,24 -34,23 -71,44 -111,64 -13,6 -26,13 -40,19 -7,3 -14,6 -21,9 -21,9 -42,18 -64,26 -249,92 -561,125 -868,77 -146,-23 -277,-62 -389,-113 -48,-22 -92,-46 -133,-72 -13,-8 -26,-18 -39,-26 -31,-23 -60,-47 -86,-72 -26,-25 -49,-50 -68,-77 -4,-5 -7,-9 -10,-14 -6,-9 -13,-19 -18,-28 -6,-10 -11,-19 -16,-29 -10,-19 -18,-39 -24,-59 -2,-6 -4,-13 -6,-20 -2,-7 -3,-14 -5,-21zm2209 -1641l-727 -113c-93,-15 -190,31 -215,85l-113 241 -1 1c-225,-2 -489,12 -728,52l-218 -217c-48,-48 -154,-65 -238,-37l-653 216c-84,28 -112,89 -64,137l216 217 1 0c-177,95 -320,188 -448,331l-418 -65c-93,-15 -198,19 -224,73l-196 420c-25,53 47,88 140,103l418 65 2 1c-18,160 16,291 86,429l-381 135c-83,28 -112,89 -64,138l375 377c48,48 156,65 239,37l377 -124 4 0c165,102 333,186 581,259l-113 242c-25,53 27,93 120,108l727 114c93,14 161,-7 186,-61l113 -241 1 -1c277,10 497,-11 736,-51l226 218c48,49 155,65 239,37l653 -217c84,-28 113,-91 65,-139l-214 -220 2 -7c176,-95 326,-201 454,-345l418 66c93,14 169,5 194,-49l197 -420c25,-53 -19,-113 -112,-128l-418 -65 -2 0c19,-161 -22,-278 -91,-416l374 -122c83,-27 111,-89 64,-137l-376 -377c-48,-49 -156,-65 -240,-38l-379 124 -8 0c-165,-102 -341,-188 -589,-262l113 -241c25,-54 2,-118 -91,-133z"/>
      <path class="fil40" d="M78695 94047c-41,-43 -69,-91 -81,-142 -13,-64 0,-127 36,-183 4,-6 8,-12 12,-18 2,-3 4,-6 6,-9 5,-5 10,-11 15,-17 4,-5 10,-11 15,-16 3,-3 6,-6 8,-8 12,-11 24,-22 37,-32 3,-2 6,-5 10,-7 6,-5 13,-10 20,-15 4,-2 7,-5 11,-7 7,-5 15,-9 22,-14 4,-2 8,-4 12,-6 5,-3 11,-7 17,-9 6,-4 13,-7 19,-10 9,-4 17,-8 26,-12 12,-5 24,-10 36,-15 6,-2 13,-4 19,-6 9,-4 19,-7 28,-10 15,-5 30,-9 45,-13 10,-3 21,-5 31,-8 52,-11 108,-20 166,-24 105,-8 207,-1 301,17 16,3 31,7 46,10 10,3 20,5 30,8 10,3 20,6 30,9 24,7 47,15 69,24 9,4 18,8 26,12 13,5 26,11 38,18 8,4 16,8 24,13 3,2 7,4 11,6 7,5 15,10 22,14 11,8 21,15 31,22 7,5 13,11 19,16 59,50 99,108 113,172 11,54 4,106 -20,155 -3,7 -7,13 -10,19 -11,18 -23,35 -38,52 -5,6 -11,11 -16,17 -2,3 -5,5 -8,8 -9,8 -18,16 -27,24 -106,87 -274,149 -472,164 -94,6 -186,2 -272,-13 -37,-6 -73,-14 -107,-23 -11,-3 -23,-7 -33,-10 -28,-9 -55,-19 -80,-30 -25,-11 -49,-22 -71,-35 -4,-2 -8,-5 -12,-7 -7,-4 -15,-9 -22,-14 -7,-5 -14,-9 -21,-14 -13,-10 -26,-21 -38,-31 -4,-4 -8,-7 -12,-11 -4,-4 -8,-8 -11,-11zm606 -1256l-469 34c-60,4 -97,44 -89,79l33 155 1 1c-132,30 -280,74 -402,130l-216 -96c-48,-22 -116,-17 -153,11l-290 215c-38,27 -29,67 19,88l214 97 1 -1c-63,80 -108,153 -124,254l-269 20c-60,4 -107,38 -100,73l59 270c8,35 64,45 124,41l270 -19 1 0c56,95 129,167 226,237l-165 131c-37,27 -28,67 20,88l373 168c47,21 116,16 154,-11l167 -124 2 -1c138,37 270,62 445,71l34 156c7,34 54,51 114,46l469 -34c60,-4 90,-26 82,-60l-33 -156 0 -1c165,-32 284,-74 406,-130l222 96c47,21 116,16 153,-12l290 -216c37,-27 28,-68 -20,-89l-214 -98 -2 -5c63,-79 106,-161 122,-262l269 -20c60,-4 100,-20 93,-54l-59 -271c-7,-35 -57,-63 -117,-59l-270 19 -1 1c-56,-96 -128,-159 -225,-229l167 -122c37,-28 29,-68 -19,-89l-374 -167c-47,-22 -117,-17 -154,11l-169 124 -5 1c-138,-37 -275,-62 -450,-71l-33 -156c-8,-34 -48,-68 -108,-64z"/>
     </g>
     <g>
      <path class="fil41" d="M56744 61018l-11416 6591c-593,343 -889,943 -888,1542l0 0 0 8 0 8 0 9 0 8 0 8 0 8 0 9 0 8 0 8 0 8 0 9 0 8 0 8 0 8 0 9 0 8 0 8 0 8 0 9 0 8 0 8 0 8 0 9 0 8 0 8 0 8 0 9 0 8 0 8 0 8 0 8 0 9 0 8 0 8 0 8 0 9 0 8 0 8 0 9 0 8 0 8 0 8 0 8 0 9 0 8 0 8 0 8 0 9 0 8 0 8 0 8 0 9 0 8 0 8 0 8 0 9 0 8 0 8 0 8 0 9 0 8 0 8 0 8 0 9 0 8 0 8 0 8 0 8 0 9 0 8 0 8 0 8 0 9 0 8 0 8 0 8 0 9 0 8 0 8 0 8 0 8 0 9 0 8 0 8 0 9 0 8 0 8 0 8 0 9 0 8 0 8 0 8 0 8 0 9 0 8 0 8 0 8 0 9 0 8 0 8c-1,599 295,1199 888,1542l0 0 7162 4135c549,317 1226,317 1775,0l0 0 11417 -6591c593,-343 889,-943 887,-1542l0 0 0 -8 0 -9 0 -8 0 -8 0 -9 0 -8 0 -8 0 -8 0 -8 0 -9 0 -8 0 -8 0 -8 0 -9 0 -8 0 -8 0 -8 0 -9 0 -8 0 -8 0 -8 0 -9 0 -8 0 -8 0 -8 0 -9 0 -8 0 -8 0 -8 0 -9 0 -8 0 -8 0 -8 0 -8 0 -9 0 -8 0 -8 0 -8 0 -9 0 -8 0 -8 0 -8 0 -9 0 -8 0 -8 0 -8 0 -9 0 -8 0 -8 0 -8 0 -9 0 -8 0 -8 0 -8 0 -8 0 -9 0 -8 0 -8 0 -9 0 -8 0 -8 0 -8 0 -9 0 -8 0 -8 0 -8 0 -8 0 -9 0 -8 0 -8 0 -9 0 -8 0 -8 0 -8 0 -8 0 -9 0 -8 0 -8 0 -8 0 -9 0 -8 0 -8 0 -8 0 -9 0 -8 0 -8 0 -8 0 -9 0 -8 0 -8 0 -8 0 -8 0 -9 0 -8 0 -8 0 -9 0 -8 0 -8 0 -8 0 -8c2,-600 -294,-1200 -887,-1542l0 0 -7162 -4135c-275,-159 -581,-238 -888,-238 -306,0 -613,79 -888,238l0 0z"/>
      <path class="fil42" d="M56744 61018l-11416 6591c-1184,684 -1184,2392 0,3076l0 0 7162 4135c549,317 1226,317 1775,0l0 0 11417 -6592c1184,-683 1184,-2392 0,-3075l0 0 -7162 -4135c-275,-159 -581,-238 -888,-238 -306,0 -613,79 -888,238l0 0z"/>
      <path class="fil43" d="M58094 62941l-11121 6421c-201,116 -172,330 65,467l4314 2491c234,135 477,223 733,216 143,-3 278,-37 407,-98 42,-19 81,-42 135,-73l10805 -6238c202,-117 172,-331 -65,-467l-4643 -2681c-180,-104 -443,-145 -630,-38zm-5775 9749c-81,16 -170,24 -263,24 -241,0 -475,-56 -643,-153l-4643 -2681c-295,-170 -323,-420 -65,-570l11121 -6420c209,-121 347,-165 501,-171 195,-7 402,56 665,208l4644 2681c294,170 323,421 64,570l-11120 6421c-71,41 -160,72 -261,91z"/>
      <path class="fil44" d="M59883 67345l-5371 3101c-77,45 -67,123 22,174l0 0c88,52 224,57 301,13l0 0 5371 -3101c77,-45 67,-123 -22,-174l0 0c-48,-28 -111,-43 -170,-43l0 0c-49,0 -96,10 -131,30l0 0z"/>
      <polygon class="fil43" points="54431,69193 51561,69009 51580,68912 54267,69085 54358,66892 57105,66594 57217,64881 57385,64885 57268,66675 54523,66974 "/>
      <polygon class="fil45" points="57907,65000 57334,64374 56682,64973 "/>
      <path class="fil46" d="M51967 68732c219,126 219,331 0,458 -219,126 -574,126 -793,0 -219,-127 -219,-332 0,-458 219,-127 574,-127 793,0z"/>
      <path class="fil45" d="M54745 68910c220,126 220,331 0,458 -219,127 -574,127 -793,0 -219,-127 -219,-332 0,-458 219,-127 574,-127 793,0z"/>
      <path class="fil15" d="M54837 66704c219,126 219,331 0,458 -219,127 -574,127 -793,0 -219,-127 -219,-332 0,-458 219,-127 574,-127 793,0z"/>
      <path class="fil47" d="M57583 66406c219,126 219,331 0,458 -219,126 -574,126 -793,0 -219,-127 -219,-332 0,-458 219,-127 574,-127 793,0z"/>
      <polygon class="fil47" points="53287,70477 51406,71563 50317,70934 52198,69848 "/>
      <polygon class="fil47" points="61808,65558 59927,66644 58837,66015 60718,64929 "/>
     </g>
     <g>
      <path class="fil48" d="M84410 48259l1044 69 -3762 9966 -2447 -5634 -5861 17204 -3278 -4526 -589 1641 -2242 6284 0 0c-2330,6561 -2233,6591 -2307,6909l0 0 1377 -616 3836 -10903 0 0 3318 4580 5618 -16488 2367 5452 5203 -13787 1044 69 -58 -4356 -3263 4136z"/>
      <path class="fil49" d="M68350 66327c-11,31 -1135,3165 -2242,6283l0 0 -2307 6910 0 0 1167 652c74,-318 -23,-348 2307,-6909l0 0 2242 -6284 0 0 586 -1634 -1164 -659 -589 1641z"/>
      <path class="fil49" d="M83207 47654l893 516 -3164 8383 756 1741 3762 -9966 -1044 -69 3263 -4136 -1167 -652 -3299 4183zm-2271 8899l0 0 -1690 -3893 1690 3893z"/>
      <path class="fil49" d="M72439 68559l945 1305 5862 -17204 -1168 -653 -5639 16552zm0 0l0 0 -2333 -3221 2333 3221z"/>
      <path class="fil50" d="M69952 69295l2380 3285 2 -6 1165 659 -3318 -4580c-92,258 -192,537 -229,642zm0 0l0 0c-22,61 -19,52 0,0l0 0z"/>
      <polygon class="fil50" points="78728,57886 80317,61544 81484,62197 79117,56745 "/>
     </g>
     <g>
      <path class="fil51" d="M30232 78198c0,15 -1,30 0,45l0 0c18,744 476,1453 1398,1985l0 0 17560 10138c2075,1198 5699,1048 8095,-335l0 0c1354,-782 2025,-1789 1979,-2734l0 0 0 -1727c-21,905 -689,1854 -1979,2598l0 0c-2396,1384 -6020,1534 -8095,336l0 0 -17560 -10138c-903,-522 -1363,-1213 -1398,-1941l0 1773zm29032 7372c1,-30 1,-60 0,-90l0 0 0 90z"/>
      <path class="fil52" d="M32211 73692c-2396,1383 -2656,3476 -581,4674l0 0 17560 10138c2075,1198 5699,1048 8095,-336l0 0c2396,-1383 2657,-3476 582,-4674l0 0 -17560 -10138c-940,-543 -2198,-809 -3516,-809l0 0c-1591,0 -3269,388 -4580,1145l0 0z"/>
      <path class="fil15" d="M51838 83991l-2836 2092c1823,823 4453,731 6090,-214 688,-397 1141,-911 1292,-1466l-4546 -412z"/>
      <path class="fil53" d="M51838 83991l-564 -2637c-1017,73 -1964,340 -2689,758 -1785,1031 -1785,2727 0,3757 131,76 271,147 417,214l2836 -2092z"/>
      <path class="fil54" d="M51838 83991l4546 412c228,-839 -253,-1691 -1292,-2291 -1002,-578 -2412,-858 -3818,-758l564 2637z"/>
      <path class="fil12" d="M55092 85869c688,-397 1141,-911 1292,-1466l0 1495c-151,555 -604,1069 -1292,1467 -1637,945 -4267,1037 -6090,213l0 -1495c1823,823 4453,731 6090,-214z"/>
      <path class="fil20" d="M48585 85869c131,76 271,147 417,214l0 1495c-146,-66 -286,-137 -417,-213 -898,-519 -1344,-1205 -1338,-1891l0 -1447c-1,-8 -1,-16 0,-24 5,677 451,1354 1338,1866z"/>
      <path class="fil55" d="M39603 77187l-612 353c-550,318 -610,798 -133,1074l0 0 5801 3349c477,275 1309,241 1859,-77l0 0 612 -354c550,-317 610,-798 134,-1073l0 0 -5801 -3349c-216,-125 -505,-186 -808,-186l0 0c-365,0 -751,89 -1052,263l0 0z"/>
      <polygon class="fil15" points="35346,77186 36103,77623 40140,75293 39383,74855 "/>
      <polygon class="fil15" points="33998,76408 34756,76845 37236,75413 36479,74976 "/>
      <polygon class="fil15" points="32650,75630 33408,76067 36696,74169 35938,73732 "/>
     </g>
     <g>
      <path class="fil32" d="M82068 84938l-3393 0 0 1548c0,252 166,505 498,697l0 0c664,383 1745,383 2402,0l0 0c329,-192 493,-445 493,-697l0 0 0 -1548z"/>
      <path class="fil56" d="M79173 84241c-664,383 -664,1011 0,1394 664,384 1745,384 2402,0 657,-383 657,-1010 0,-1394 -657,-384 -1738,-384 -2402,0z"/>
     </g>
     <g>
      <g>
       <path class="fil57" d="M59519 89918l0 2095c0,252 165,505 497,697l0 0c664,383 1744,383 2401,0l0 0c328,-192 492,-444 492,-697l0 0 0 -2095 -3390 0z"/>
       <path class="fil58" d="M60016 89222c-663,383 -663,1010 0,1393 664,383 1744,383 2401,0 656,-383 656,-1010 0,-1393 -657,-383 -1737,-383 -2401,0z"/>
      </g>
      <g>
       <path class="fil59" d="M65531 95572l0 -3828 -3391 0 0 3828c0,252 166,505 498,696l0 0c664,383 1744,384 2400,0l0 0c329,-191 493,-444 493,-696z"/>
       <path class="fil60" d="M62638 91012c-664,383 -664,1010 0,1393 664,384 1744,384 2400,1 657,-383 657,-1011 0,-1394 -656,-383 -1736,-383 -2400,0z"/>
      </g>
     </g>
     <g>
      <path class="fil61" d="M20567 53559l0 7 0 8c0,150 9,293 17,435l0 0 144 -80c3,68 3,139 8,206l0 0 143 -80c3,68 4,138 8,206l0 0 144 -80c3,68 4,138 8,205l0 0 143 -80c3,68 4,139 8,206l0 0 144 -80c3,68 4,138 7,206l0 0 144 -81c4,69 4,139 8,207l0 0 144 -81c3,68 4,139 8,206l0 0 143 -80c3,68 4,138 8,206l0 0 144 -81c3,69 4,139 8,207l0 0 21680 -12147c10,-158 17,-315 17,-470l0 0c0,-1481 -452,-2567 -1180,-3121l0 0c-49,-45 -100,-87 -152,-126l0 0c-48,-45 -99,-86 -151,-126l0 0c-49,-45 -100,-86 -151,-125l0 0c-50,-45 -100,-87 -152,-126l0 0c-49,-45 -100,-86 -151,-126l0 0c-49,-44 -100,-86 -152,-125l0 0c-49,-45 -100,-87 -152,-126l0 0c-49,-45 -99,-86 -151,-126l0 0c-701,-641 -1703,-739 -2819,-153l0 0c-302,-666 -706,-1198 -1190,-1579l0 0c-49,-43 -100,-85 -151,-125l0 0c-49,-44 -100,-86 -152,-126l0 0c-49,-44 -100,-85 -151,-125l0 0c-50,-45 -100,-86 -152,-126l0 0c-49,-44 -100,-85 -151,-126l0 0c-49,-44 -100,-85 -152,-126l0 0c-49,-43 -100,-85 -151,-125l0 0c-50,-44 -100,-85 -152,-126l0 0c-600,-532 -1337,-816 -2164,-816l0 0c-736,0 -1543,225 -2390,699l0 0c-2816,1578 -5194,5426 -5958,9304l0 0c-166,68 -333,146 -504,241l0 0c-2457,1377 -4449,5170 -4449,8471z"/>
      <path class="fil52" d="M32842 36674c-2817,1578 -5194,5426 -5958,9304 -166,68 -333,146 -504,241 -2457,1377 -4450,5170 -4450,8471 0,84 3,165 6,246l4 -2c3,66 4,134 7,199 0,2 0,3 1,5 0,1 0,1 0,2l21680 -12146c10,-158 17,-315 17,-470 0,-1481 -451,-2567 -1180,-3121 -2,-3 -5,-5 -7,-7 -713,-538 -1688,-569 -2763,34 -260,145 -514,323 -759,525 -105,-640 -275,-1213 -502,-1710 -302,-667 -706,-1199 -1190,-1580 -7,-6 -14,-12 -21,-18 -1123,-871 -2672,-931 -4381,27z"/>
     </g>
     <g>
      <path class="fil61" d="M51562 25396l0 -13c0,-916 -280,-1588 -730,-1931l0 0c-31,-28 -62,-53 -94,-78l0 0c-30,-27 -62,-53 -94,-78l0 0c-30,-27 -62,-53 -94,-77l0 0c-30,-28 -61,-54 -93,-78l0 0c-31,-28 -62,-54 -94,-78l0 0c-30,-27 -62,-53 -94,-78l0 0c-30,-27 -62,-53 -94,-77l0 0c-30,-28 -61,-54 -93,-78l0 0c-434,-397 -1053,-457 -1744,-94l0 0c-187,-413 -437,-742 -736,-978l0 0c-31,-27 -62,-52 -94,-77l0 0c-31,-27 -62,-53 -94,-78l0 0c-30,-27 -62,-53 -93,-78l0 0c-31,-27 -62,-53 -94,-78l0 0c-31,-26 -62,-52 -94,-77l0 0c-30,-27 -62,-53 -94,-78l0 0c-30,-27 -62,-53 -93,-78l0 0c-31,-27 -62,-53 -94,-77l0 0c-372,-330 -828,-505 -1339,-505 -456,0 -955,139 -1479,432l0 0c-1742,976 -3213,3357 -3686,5756l0 0c-102,42 -206,91 -312,150l0 0c-1520,851 -2753,3198 -2753,5240l0 0c0,96 6,188 11,279l0 0 89 -50c2,43 3,86 5,128l0 0 89 -50c2,42 2,86 5,128l0 0 89 -50c1,42 2,85 4,127l0 0 89 -50c2,43 3,86 5,128l0 0 89 -50c2,43 3,86 5,128l0 0 89 -50c2,42 2,86 5,128l0 0 89 -50c1,42 2,85 5,127l0 0 88 -50c2,43 3,86 5,128l0 0 89 -50c2,42 2,86 5,128l0 0 13413 -7515c6,-93 10,-186 11,-278z"/>
      <path class="fil62" d="M38138 33189c-5,-92 -11,-183 -11,-279 0,-2043 1233,-4389 2753,-5241 106,-59 209,-107 312,-149 473,-2399 1943,-4780 3686,-5756 1863,-1044 3416,-135 3770,2030 152,-125 309,-235 470,-325 1350,-756 2444,100 2444,1914 0,96 -5,193 -11,291l-13413 7515z"/>
     </g>
     <g>
      <polygon class="fil63" points="91963,58737 91929,70699 109032,80573 109066,68611 "/>
      <polygon class="fil48" points="91963,58737 92927,58172 109990,68074 109066,68611 "/>
      <polygon class="fil38" points="109032,80573 109956,80037 109990,68074 109066,68611 "/>
      <path class="fil64" d="M91929 70699l8350 -1041 8753 10915c0,0 -17103,-9874 -17103,-9874z"/>
      <path class="fil55" d="M109066 68611l-8596 3147 -8507 -13021c0,0 17103,9874 17103,9874z"/>
     </g>
     <path class="fil65" d="M101069 69746c41,-434 -154,-851 -532,-1069 -485,-280 -851,23 -853,588 -1,434 227,830 579,1033 438,253 756,1 806,-552zm2103 932c1,41 2,81 2,120 -3,837 -288,1232 -657,1322 -222,54 -474,-3 -712,-140 -262,-151 -464,-349 -608,-569 -108,-166 -184,-345 -227,-528 -242,214 -579,256 -960,52 -14,-7 -27,-15 -41,-23 -435,-251 -780,-690 -969,-1193 -66,-174 -112,-356 -137,-541 -15,-107 -23,-215 -22,-323 3,-1061 733,-1518 1516,-1066 438,253 729,669 890,1073l82 -402 809 537c-226,1196 -350,1692 -351,1971 0,74 11,145 30,213 8,27 18,54 29,80 50,118 129,219 231,296 24,18 48,34 74,49 345,199 695,5 735,-822 2,-48 3,-98 4,-150 3,-1326 -944,-2936 -2239,-3684 -1297,-749 -2371,-237 -2531,1092 -13,110 -20,226 -20,346 -2,455 94,937 266,1408 381,1039 1133,2025 2038,2548 554,320 986,413 1446,361l134 318c-486,76 -986,-34 -1592,-384 -993,-573 -1831,-1665 -2260,-2815 -200,-532 -312,-1077 -310,-1588 0,-205 18,-395 52,-571 256,-1329 1420,-1809 2791,-1017 1398,807 2454,2606 2507,4030z"/>
     <path class="fil39" d="M40656 64700l-9901 -5716c-736,437 -898,1433 -338,2082l338 391 9901 5714 0 -2471z"/>
     <g>
      <path class="fil12" d="M28150 67014c-1711,-989 -3112,-3415 -3112,-5392 0,-1977 1400,-2786 3110,-1797 1711,988 3111,3414 3112,5391 1,1977 -1398,2786 -3110,1798zm283 -9438c-1370,-792 -2616,-873 -3529,-368l0 -1 -39 22c-1,0 -2,1 -3,1l-1214 689 221 360c-314,579 -491,1325 -491,2219 0,316 23,639 65,967 0,0 0,1 0,1 47,2230 2628,8331 4065,11561l-311 2780 1251 -709c0,0 2949,-3725 4385,-6264 127,-185 238,-390 330,-617 1,-3 3,-6 5,-9 25,-52 44,-107 59,-162 171,-486 265,-1057 265,-1706 -2,-3214 -2278,-7158 -5059,-8764z"/>
      <path class="fil66" d="M22127 61207c0,316 23,639 65,967l0 0c0,0 0,1 0,1l0 0c65,3092 5005,13632 5005,13632l0 0c0,0 2949,-3725 4385,-6264l0 0c127,-185 237,-390 330,-617l0 0c1,-3 3,-6 5,-9l0 0c25,-52 44,-107 59,-162l0 0c171,-486 265,-1057 265,-1706l0 0c-2,-3214 -2278,-7158 -5059,-8764l0 0c-805,-465 -1568,-686 -2245,-686l0 0c-1662,0 -2810,1325 -2810,3608zm4772 6516c-1711,-989 -3112,-3415 -3112,-5392l0 0c0,-1977 1400,-2786 3110,-1798l0 0c1710,989 3111,3415 3112,5392l0 0c1,1404 -705,2219 -1728,2219l0 0c-417,0 -886,-135 -1382,-421l0 0z"/>
     </g>
     <g>
      <path class="fil33" d="M86905 37275l2 0 2 0c14,-1 28,-2 43,-2l0 0c43,-1 86,-3 129,-7l0 0c13,0 26,0 39,-1l0 0c9,-1 18,-3 28,-4l0 0c65,-7 130,-16 193,-28l0 0c5,-1 10,-2 15,-2l0 0c1,-1 2,-1 3,-1l0 0c89,-18 176,-43 260,-72l0 0c8,-3 16,-4 23,-6l0 0c6,-2 12,-5 18,-8l0 0c37,-13 73,-28 109,-44l0 0c17,-7 35,-14 52,-22l0 0c52,-25 103,-51 153,-80l0 0 1593 -926c-49,29 -101,56 -153,80l0 0c-17,8 -35,15 -52,22l0 0c-35,16 -72,31 -109,45l0 0c-13,5 -27,9 -40,13l0 0c-85,29 -171,54 -261,72l0 0c-6,1 -12,2 -18,3l0 0c-63,12 -128,21 -193,28l0 0c-22,2 -45,4 -67,6l0 0c-42,3 -85,5 -129,6l0 0c-24,0 -49,1 -74,1l0 0c-34,0 -69,-2 -104,-3l0 0c-28,-2 -56,-3 -85,-5l0 0c-29,-2 -59,-6 -89,-9l0 0c-32,-4 -64,-7 -97,-12l0 0c-27,-4 -55,-9 -83,-14l0 0c-35,-6 -70,-12 -105,-19l0 0c-24,-5 -48,-11 -72,-16l0 0c-38,-9 -76,-18 -114,-28l0 0c-24,-7 -48,-13 -72,-20l0 0c-42,-12 -83,-26 -126,-39l0 0c-19,-7 -39,-13 -58,-20l0 0c-62,-21 -124,-44 -187,-69l0 0c-1,0 -1,0 -2,0l0 0c-62,-25 -124,-52 -187,-81l0 0c-20,-9 -39,-19 -59,-28l0 0c-44,-21 -89,-43 -134,-66l0 0c-23,-11 -45,-22 -67,-34l0 0c-60,-32 -119,-64 -180,-99l0 0c-138,-80 -275,-167 -410,-260l0 0c-8,-6 -16,-12 -24,-18l0 0c-126,-87 -250,-181 -372,-279l0 0c-14,-12 -28,-23 -41,-34l0 0c-118,-97 -235,-199 -348,-304l0 0c-14,-13 -28,-25 -41,-38l0 0c-116,-109 -229,-223 -340,-340l0 0c-10,-10 -19,-19 -28,-29l0 0c-118,-127 -234,-258 -347,-393l0 0c-1,-1 -2,-2 -3,-3l0 0c-115,-139 -226,-282 -334,-428l0 0c-1,-1 -2,-2 -2,-3l0 0c-98,-133 -192,-270 -284,-409l0 0c-57,-86 -110,-174 -165,-262l0 0c-46,-74 -93,-147 -137,-223l0 0c-20,-35 -40,-71 -60,-107l0 0c-71,-126 -141,-253 -206,-381l0 0c-7,-14 -15,-28 -22,-42l0 0c-79,-157 -153,-315 -223,-475l0 0c-4,-8 -7,-17 -11,-25l0 0c-68,-156 -131,-314 -190,-472l0 0c-4,-11 -8,-21 -12,-32l0 0c-60,-162 -115,-325 -164,-488l0 0c-3,-9 -6,-19 -8,-29l0 0c-47,-156 -89,-313 -126,-470l0 0c-3,-15 -7,-30 -10,-45l0 0c-37,-161 -69,-322 -94,-483l0 0c-1,-2 -2,-5 -2,-7l0 0c-26,-162 -44,-323 -58,-482l0 0c-1,-13 -2,-26 -3,-39l0 0c-13,-160 -19,-318 -19,-474l0 0c0,-155 8,-305 21,-449l0 0c2,-14 3,-26 5,-39l0 0c13,-133 31,-260 55,-383l0 0c3,-16 7,-32 10,-49l0 0c24,-118 54,-231 88,-340l0 0c6,-20 13,-40 20,-61l0 0c34,-102 72,-199 114,-292l0 0c5,-10 9,-22 14,-32l0 0c49,-106 104,-205 164,-299l0 0c8,-12 17,-23 25,-35l0 0c50,-74 103,-144 160,-210l0 0c20,-24 42,-46 63,-69l0 0c49,-53 100,-102 153,-149l0 0c22,-19 44,-39 67,-57l0 0c76,-61 154,-117 237,-165l0 0 -1593 926c-83,48 -162,104 -238,165l0 0c-22,18 -44,38 -66,57l0 0c-53,47 -104,96 -154,149l0 0c-21,23 -42,45 -63,69l0 0c-56,66 -109,136 -159,210l0 0c-8,12 -17,23 -25,35l0 0c-2,3 -4,5 -6,8l0 0c-55,88 -107,182 -154,281l0 0c-2,3 -3,7 -5,10l0 0c-5,10 -8,21 -13,32l0 0c-28,62 -56,125 -81,191l0 0c-12,32 -22,67 -33,101l0 0c-7,20 -14,40 -21,61l0 0c-5,18 -12,35 -17,54l0 0c-20,67 -38,137 -55,209l0 0c-6,25 -10,52 -15,77l0 0c-4,16 -7,33 -10,49l0 0c-5,25 -11,49 -15,74l0 0c-11,65 -21,130 -29,196l0 0c-5,37 -8,75 -12,113l0 0c-1,13 -3,25 -4,38l0 0c-1,16 -3,31 -5,47l0 0c-5,63 -9,128 -12,193l0 0c-3,65 -4,131 -4,198l0 0c0,4 0,8 0,12l0 0c-1,61 0,123 2,185l0 0c2,66 5,132 9,198l0 0c2,30 5,60 7,90l0 0c2,14 3,27 4,40l0 0c2,23 3,46 5,69l0 0c7,67 14,134 22,201l0 0c9,68 19,137 30,206l0 0c0,2 1,4 1,6l0 0c0,2 1,5 1,7l0 0c10,65 21,129 34,194l0 0c13,71 28,143 43,214l0 0c5,25 12,50 18,75l0 0c3,15 7,30 10,45l0 0c8,32 14,63 22,94l0 0c18,73 37,145 57,218l0 0c15,53 31,106 47,159l0 0c2,9 5,19 8,28l0 0c3,10 5,20 8,29l0 0c22,71 45,142 68,212l0 0c24,70 48,140 73,209l0 0c5,13 10,25 14,38l0 0c4,11 8,21 12,32l0 0c16,43 33,87 50,131l0 0c25,66 52,132 80,198l0 0c19,48 40,96 61,143l0 0c3,8 7,17 10,25l0 0c4,9 8,19 12,28l0 0c29,66 59,132 90,198l0 0c34,72 69,144 105,216l0 0c5,11 11,22 17,33l0 0c7,14 14,27 22,42l0 0c29,57 58,114 88,171l0 0c38,71 78,140 118,210l0 0c20,36 39,72 60,107l0 0c8,14 16,29 24,43l0 0c36,61 76,120 113,180l0 0c54,88 107,176 164,262l0 0c10,14 18,28 27,42l0 0c83,125 170,248 259,369l0 0c0,0 0,0 0,0l0 0c0,0 0,0 0,1l0 0c60,80 121,160 183,239l0 0c49,63 100,126 152,188l0 0c1,1 2,3 3,4l0 0c1,1 2,2 2,3l0 0c52,63 105,124 159,185l0 0c52,60 105,119 159,177l0 0c9,9 18,18 27,28l0 0c9,10 18,19 27,29l0 0c38,39 75,80 114,119l0 0c57,58 114,115 172,171l0 0c18,17 36,33 55,50l0 0c13,12 27,25 40,38l0 0c29,26 57,53 85,79l0 0c61,54 121,107 183,159l0 0c26,22 54,44 81,66l0 0c14,11 27,22 41,33l0 0c20,17 40,33 60,50l0 0c60,46 119,92 180,137l0 0c44,32 88,62 131,93l0 0c9,6 16,12 25,18l0 0c7,5 14,11 22,15l0 0c58,40 116,78 174,116l0 0c58,36 115,72 174,106l0 0c13,8 26,15 40,23l0 0c43,25 87,50 130,73l0 0c17,9 33,17 49,26l0 0c23,11 45,23 68,35l0 0c17,8 34,18 51,26l0 0c28,14 55,26 82,39l0 0c20,9 40,19 60,28l0 0c8,4 17,8 24,12l0 0c55,24 109,47 163,68l0 0c0,1 1,1 2,1l0 0c55,23 110,43 165,62l0 0c7,3 14,5 21,7l0 0c20,7 40,13 59,19l0 0c28,10 57,20 84,28l0 0c14,4 28,7 41,12l0 0c25,6 49,13 73,20l0 0c18,4 37,10 56,15l0 0c19,5 38,8 57,13l0 0c25,5 49,11 73,16l0 0c12,2 25,6 38,8l0 0c23,4 44,7 67,11l0 0c28,5 55,10 83,14l0 0c10,1 20,4 29,5l0 0c23,3 45,4 68,7l0 0c30,3 59,7 89,9l0 0c8,0 17,2 26,3l0 0c20,1 39,0 59,1l0 0c35,2 70,4 104,4l0 0c9,0 18,1 27,1zm-3143 -11192l0 0 0 0c0,0 0,0 0,0l0 0z"/>
      <path class="fil33" d="M93560 35079l0 -1 0 0 0 -1 0 -1 0 0 0 -1 0 0 0 -1 0 -1 0 0 0 -1 0 0 0 -1 0 -1 0 0 0 -1 0 0 0 -1 0 -1 0 0 0 -1 0 0 0 -1 0 -1 0 0 0 -1 0 -1 0 0 0 -1 0 0 0 -1 0 -1 -2797 -1615 -1594 926 2797 1615c0,128 -4,252 -9,375l0 0c-2,35 -4,68 -6,102l0 0c-5,85 -11,169 -19,251l0 0c-4,47 -9,94 -14,140l0 0c-8,71 -16,140 -26,209l0 0c-7,49 -14,98 -22,146l0 0c-10,63 -21,126 -32,187l0 0c-10,55 -21,109 -33,163l0 0c-12,56 -25,110 -37,164l0 0c-16,63 -32,125 -49,186l0 0c-14,48 -28,96 -42,144l0 0c-22,72 -46,142 -71,212l0 0c-14,40 -28,81 -43,120l0 0c-46,121 -94,238 -147,351l0 0c-42,87 -86,173 -132,255l0 0c-12,22 -25,43 -37,64l0 0c-34,58 -68,116 -104,172l0 0c-71,110 -146,214 -225,314l0 0c-19,23 -37,46 -57,68l0 0c-75,91 -153,177 -234,258l0 0c-9,9 -17,18 -26,27l0 0c-89,87 -183,166 -279,241l0 0c-23,18 -47,36 -70,53l0 0c-99,73 -201,143 -307,205l1594 -926c106,-62 207,-131 306,-205l0 0c24,-17 47,-35 70,-53l0 0c97,-75 190,-155 279,-241l0 0c9,-8 17,-18 26,-26l0 0c82,-81 160,-169 235,-259l0 0c19,-23 37,-45 56,-68l0 0c79,-100 154,-204 225,-314l0 0c3,-5 7,-9 10,-14l0 0c33,-51 63,-104 94,-157l0 0c12,-22 26,-42 38,-65l0 0c45,-81 88,-164 129,-251l0 0c1,-1 1,-3 2,-5l0 0c53,-112 101,-229 147,-350l0 0c5,-12 11,-23 16,-36l0 0c10,-27 18,-57 28,-84l0 0c24,-70 48,-140 70,-212l0 0c7,-22 15,-43 21,-65l0 0c8,-26 14,-53 21,-79l0 0c17,-61 33,-123 49,-186l0 0c6,-28 15,-55 21,-84l0 0c6,-26 11,-53 16,-80l0 0c12,-54 23,-108 33,-163l0 0c6,-31 13,-61 19,-92l0 0c5,-31 9,-63 14,-94l0 0c8,-49 15,-98 22,-148l0 0c4,-27 8,-54 12,-83l0 0c5,-40 9,-83 13,-124l0 0c5,-47 10,-94 15,-141l0 0c1,-21 4,-41 6,-62l0 0c5,-62 8,-125 12,-188l0 0c2,-34 5,-68 6,-103l0 0c1,-10 1,-19 2,-28l0 0c4,-107 7,-216 8,-327z"/>
      <path class="fil33" d="M83604 22220l-4 0 -5 0c-24,0 -48,3 -72,4l0 0c-74,1 -148,4 -221,10l0 0c-20,1 -41,1 -61,3l0 0c-17,1 -33,5 -50,7l0 0c-106,11 -210,26 -312,45l0 0c-12,3 -25,3 -38,6l0 0c-4,1 -8,2 -12,3l0 0c-29,5 -56,13 -84,20l0 0c-59,13 -119,27 -177,44l0 0c-33,9 -65,20 -98,31l0 0c-38,12 -78,22 -116,36l0 0c-10,4 -21,9 -32,13l0 0c-62,23 -123,49 -184,75l0 0c-29,13 -59,24 -89,38l0 0c-88,41 -175,86 -259,135l0 0 -1594 926c85,-49 172,-94 260,-135l0 0c29,-14 60,-25 89,-38l0 0c61,-27 122,-52 184,-75l0 0c48,-18 98,-34 148,-50l0 0c32,-10 65,-21 98,-30l0 0c58,-17 117,-31 176,-44l0 0c29,-7 56,-15 84,-20l0 0c17,-4 34,-6 51,-9l0 0c102,-19 206,-34 312,-45l0 0c37,-4 74,-7 111,-10l0 0c73,-6 147,-9 221,-11l0 0c40,-1 79,-2 119,-2l0 0c60,0 121,3 181,6l0 0c46,2 92,3 138,7l0 0c49,4 98,10 147,15l0 0c55,6 109,12 165,19l0 0c45,7 91,15 136,23l0 0c60,10 119,20 178,32l0 0c40,8 80,18 119,27l0 0c64,14 128,30 192,47l0 0c40,11 81,22 121,33l0 0c68,20 136,41 205,63l0 0c35,11 69,22 104,34l0 0c90,31 180,64 271,100l0 0c14,5 27,10 41,15l0 0c104,42 209,87 314,135l0 0c31,14 62,29 93,44l0 0c76,35 153,73 230,112l0 0c36,18 72,37 109,56l0 0c99,53 199,106 300,165l0 0c65,37 130,77 195,117l0 0c43,27 87,52 130,80l0 0c53,33 106,68 159,104l0 0c45,30 91,59 136,89l0 0c51,35 101,71 151,107l0 0c49,34 97,68 146,103l0 0c92,67 183,136 274,207l0 0 -492 2887 1593 -926 493 -2887c-84,-65 -169,-129 -254,-192l0 0c-7,-5 -13,-9 -20,-15l0 0c-50,-35 -99,-70 -148,-105l0 0c-42,-29 -84,-61 -127,-90l0 0c-7,-4 -15,-9 -22,-14l0 0c-46,-31 -92,-61 -137,-91l0 0c-44,-29 -88,-59 -132,-87l0 0c-9,-5 -18,-11 -27,-16l0 0c-43,-27 -86,-53 -130,-80l0 0c-43,-26 -86,-54 -129,-79l0 0c-22,-13 -44,-26 -66,-38l0 0c-72,-42 -144,-82 -215,-121l0 0c-29,-15 -57,-29 -85,-44l0 0c-37,-19 -73,-38 -109,-56l0 0c-28,-14 -56,-30 -83,-43l0 0c-49,-24 -98,-46 -147,-69l0 0c-31,-15 -62,-30 -93,-44l0 0c-11,-5 -23,-11 -35,-17l0 0c-91,-41 -182,-79 -272,-115l0 0c-2,-1 -4,-2 -7,-3l0 0c-13,-5 -27,-9 -40,-15l0 0c-76,-30 -153,-59 -228,-85l0 0c-15,-6 -29,-10 -44,-15l0 0c-35,-12 -69,-23 -104,-34l0 0c-42,-13 -84,-28 -126,-41l0 0c-26,-8 -53,-14 -79,-22l0 0c-40,-11 -81,-22 -120,-33l0 0c-28,-7 -56,-16 -84,-23l0 0c-36,-9 -72,-16 -108,-24l0 0c-40,-9 -80,-19 -119,-27l0 0c-18,-3 -37,-8 -55,-11l0 0c-42,-9 -82,-14 -124,-21l0 0c-45,-8 -91,-16 -136,-23l0 0c-14,-1 -27,-4 -41,-6l0 0c-42,-6 -82,-8 -124,-13l0 0c-49,-5 -98,-11 -146,-15l0 0c-12,-1 -24,-3 -36,-3l0 0c-34,-3 -68,-2 -102,-4l0 0c-61,-3 -122,-5 -182,-6l0 0c-12,0 -26,-1 -38,-1z"/>
      <path class="fil67" d="M90950 31230c12,31 24,61 36,92 69,172 135,344 197,516 8,21 15,43 23,64 56,160 110,321 161,481 9,28 18,57 27,85 53,170 102,339 147,507 10,38 20,76 30,114 43,163 83,326 118,488 3,11 6,21 8,32 37,170 70,339 99,508 7,36 13,72 19,109 29,172 55,344 75,514l1594 -925c-3,-22 -6,-43 -8,-64 -15,-115 -31,-230 -49,-345 -6,-36 -13,-71 -19,-107 -6,-36 -12,-72 -19,-108 -8,-46 -15,-92 -23,-138 -23,-119 -47,-239 -73,-359 -1,-4 -2,-7 -3,-11 -2,-10 -5,-21 -7,-31 -24,-108 -49,-216 -75,-325 -14,-55 -30,-110 -44,-165 -10,-37 -19,-75 -29,-112 -9,-31 -16,-61 -25,-92 -34,-122 -69,-245 -107,-367 -5,-16 -10,-32 -15,-49 -9,-28 -19,-57 -28,-85 -24,-76 -47,-152 -73,-228 -28,-84 -58,-168 -88,-252 -8,-22 -15,-44 -23,-65 -4,-11 -7,-23 -11,-33 -41,-114 -84,-228 -128,-341 -18,-47 -38,-95 -57,-142 -13,-30 -25,-61 -37,-92 -13,-32 -26,-64 -39,-96 -45,-109 -92,-218 -140,-327 -12,-27 -25,-53 -37,-80 -13,-30 -27,-60 -40,-89 -25,-55 -49,-109 -74,-163 -54,-116 -110,-231 -168,-346 -2,-6 -5,-12 -9,-18 -64,-130 -131,-259 -199,-387 -16,-31 -34,-61 -51,-91 -51,-96 -104,-190 -158,-285 -35,-63 -69,-127 -105,-190 -19,-31 -39,-62 -58,-94 -43,-73 -87,-145 -131,-217 -63,-103 -126,-205 -191,-305 -46,-72 -93,-144 -140,-215 -31,-47 -61,-95 -93,-141 -29,-44 -61,-85 -90,-128 -68,-98 -137,-196 -207,-292 -31,-43 -61,-88 -93,-130 -38,-51 -77,-101 -115,-152 -35,-46 -71,-92 -106,-138 -23,-29 -44,-59 -67,-88 -87,-111 -175,-219 -265,-327 -3,-4 -6,-8 -10,-11 -10,-12 -20,-23 -29,-35 -74,-88 -148,-175 -223,-261 -38,-43 -76,-84 -115,-126 -28,-32 -56,-63 -84,-94 -23,-26 -46,-52 -70,-77 -93,-101 -187,-199 -282,-296 -11,-11 -22,-23 -33,-34l-1594 926c131,132 259,268 386,407 28,31 56,62 84,93 114,127 227,256 337,388 10,11 20,23 30,34 116,140 230,282 342,427 35,46 70,92 106,138 70,93 139,187 208,282 70,96 138,194 206,292 62,89 123,178 183,269 48,71 95,143 141,215 65,100 128,202 190,304 45,73 89,145 132,218 55,94 109,189 163,284 53,94 107,189 158,285 86,158 170,317 250,478 88,175 170,350 250,527 14,29 28,59 41,89 75,167 147,335 216,503z"/>
      <path class="fil34" d="M85093 24080c399,230 799,501 1192,807l-493 2887c-229,-177 -466,-340 -708,-480 -2264,-1307 -4104,-257 -4112,2344 -7,2600 1822,5767 4085,7074 2264,1308 4105,259 4112,-2342l2797 1615c-12,4347 -3135,6127 -6918,3943 -3783,-2184 -6885,-7558 -6873,-11905 13,-4347 3135,-6127 6918,-3943z"/>
      <path class="fil34" d="M87527 25997c1144,1157 2150,2577 2916,4114 766,1535 1266,3134 1447,4629l-2765 -1109c-220,-1830 -1232,-3819 -2593,-5197l995 -2437z"/>
      <polygon class="fil66" points="87878,23961 86285,24887 85792,27774 87116,27005 87527,25997 87531,25995 "/>
      <polygon class="fil66" points="91890,34740 89904,33943 89169,34370 91966,35985 93560,35059 92447,34417 "/>
     </g>
     <path class="fil68" d="M122852 64306c2151,70 3874,1835 3886,4020l35 0c18,-2185 1741,-3950 3886,-4020 -2156,-70 -3886,-1853 -3886,-4050l-29 0c0,2197 -1730,3980 -3892,4050z"/>
     <path class="fil69" d="M16455 67007c973,-31 1753,-830 1759,-1819l15 0c8,989 789,1788 1759,1819 -976,32 -1759,839 -1759,1833l-13 0c0,-994 -783,-1801 -1761,-1833z"/>
     <path class="fil33" d="M103200 18100c815,27 1469,696 1474,1525l13 0c7,-829 660,-1498 1474,-1525 -818,-26 -1474,-702 -1474,-1536l-11 0c0,834 -656,1510 -1476,1536z"/>
     <g>
      <path class="fil61" d="M24866 21382l0 -8c0,-569 -173,-986 -453,-1199l0 0c-19,-17 -38,-33 -58,-48l0 0c-19,-17 -39,-33 -59,-48l0 0c-18,-18 -38,-33 -58,-49l0 0c-19,-17 -38,-33 -58,-48l0 0c-19,-17 -38,-33 -58,-48l0 0c-19,-17 -39,-33 -58,-48l0 0c-19,-18 -39,-34 -59,-49l0 0c-18,-17 -38,-33 -58,-48l0 0c-269,-246 -654,-284 -1082,-59l0 0c-117,-256 -272,-460 -457,-606l0 0c-19,-17 -39,-33 -59,-49l0 0c-19,-16 -38,-32 -58,-48l0 0c-19,-17 -38,-33 -58,-48l0 0c-19,-17 -39,-33 -58,-48l0 0c-19,-17 -39,-33 -58,-48l0 0c-19,-17 -39,-33 -59,-49l0 0c-18,-17 -38,-33 -58,-48l0 0c-19,-17 -38,-33 -58,-48l0 0c-231,-205 -514,-314 -831,-314 -283,0 -593,86 -918,269l0 0c-1082,606 -1995,2084 -2289,3573l0 0c-63,26 -128,56 -193,93l0 0c-944,529 -1709,1986 -1709,3254l0 0c0,59 3,116 6,173l0 0 55 -31c2,26 2,53 4,79l0 0 55 -31c1,26 1,53 3,79l0 0 55 -31c1,26 1,53 3,79l0 0 55 -30c1,26 2,53 3,79l0 0 55 -31c1,26 2,53 3,79l0 0 55 -31c2,26 2,53 3,79l0 0 56 -31c1,27 1,54 3,79l0 0 55 -30c1,26 1,53 3,79l0 0 55 -31c1,26 2,53 3,79l0 0 8327 -4666c4,-57 7,-115 7,-172z"/>
      <path class="fil62" d="M16532 26220c-3,-57 -7,-113 -7,-173 0,-1268 766,-2725 1710,-3254 65,-36 129,-66 193,-92 294,-1490 1207,-2968 2288,-3574 1157,-648 2122,-83 2341,1260 95,-77 192,-145 292,-201 838,-470 1517,62 1517,1188 0,60 -3,120 -6,181l-8328 4665z"/>
     </g>
    </g>
    <g>
     <path class="fil70" d="M114223 15714c0,-1992 1245,-3694 2998,-4370 2397,205 4279,2215 4279,4665 0,1993 -1244,3694 -2998,4371 -2397,-205 -4279,-2216 -4279,-4666z"/>
     <path class="fil33" d="M114223 15714c0,2450 1882,4461 4279,4666 -523,201 -1091,312 -1685,312 -2586,0 -4682,-2097 -4682,-4683 0,-2586 2096,-4682 4682,-4682 136,0 271,5 404,17 -1753,676 -2998,2378 -2998,4370z"/>
    </g>
   </g>
  </g>
 </g>
</svg>
