<?xml version="1.0" encoding="UTF-8"?>
<!DOCTYPE svg PUBLIC "-//W3C//DTD SVG 1.1//EN" "http://www.w3.org/Graphics/SVG/1.1/DTD/svg11.dtd">
<!-- Creator: CorelDRAW X7 -->
<svg xmlns="http://www.w3.org/2000/svg" xml:space="preserve" width="27.1654in" height="11.6363in" version="1.1" style="shape-rendering:geometricPrecision; text-rendering:geometricPrecision; image-rendering:optimizeQuality; fill-rule:evenodd; clip-rule:evenodd"
viewBox="0 0 2716535 1163626"
 xmlns:xlink="http://www.w3.org/1999/xlink">
 <defs>
  <style type="text/css">
   <![CDATA[
    .fil37 {fill:none}
    .fil65 {fill:#576074}
    .fil64 {fill:#5E6D8F}
    .fil36 {fill:#6C7AA8}
    .fil23 {fill:#6C87C3}
    .fil33 {fill:#7875A3}
    .fil30 {fill:#7F96CB}
    .fil24 {fill:#8480BC}
    .fil45 {fill:#889ECE}
    .fil50 {fill:#8C9AC6}
    .fil58 {fill:#94A1CB}
    .fil18 {fill:#95A9D4}
    .fil99 {fill:#99A8D5}
    .fil60 {fill:#99ACD6}
    .fil62 {fill:#9BACD6}
    .fil35 {fill:#9DAFD7}
    .fil41 {fill:#9DAFD8}
    .fil31 {fill:#9EB0D8}
    .fil46 {fill:#9FB1D7}
    .fil53 {fill:#A0B2D8}
    .fil98 {fill:#A2AFD7}
    .fil17 {fill:#A38755}
    .fil57 {fill:#A5B5DC}
    .fil106 {fill:#A6B2D8}
    .fil56 {fill:#A7B7DC}
    .fil43 {fill:#A7B8DD}
    .fil100 {fill:#AAB6DC}
    .fil27 {fill:#AABADC}
    .fil51 {fill:#ABBBDF}
    .fil34 {fill:#ACBBDE}
    .fil39 {fill:#AFBDE0}
    .fil55 {fill:#B0BFE0}
    .fil105 {fill:#B3BEDE}
    .fil63 {fill:#B4C2E2}
    .fil107 {fill:#B5BEDE}
    .fil38 {fill:#B7C5E4}
    .fil21 {fill:#B8C5E3}
    .fil52 {fill:#B8C6E2}
    .fil104 {fill:#B9C2E0}
    .fil69 {fill:#BB9B61}
    .fil101 {fill:#BDC6E4}
    .fil40 {fill:#BDC9E6}
    .fil16 {fill:#C3A571}
    .fil108 {fill:#C3CBE5}
    .fil42 {fill:#C5D0E9}
    .fil54 {fill:#C7D1E8}
    .fil109 {fill:#CBD1E7}
    .fil20 {fill:#CCD7EB}
    .fil25 {fill:#CFD8ED}
    .fil22 {fill:#D0D9ED}
    .fil59 {fill:#D0DAED}
    .fil68 {fill:#D2AE6D}
    .fil67 {fill:#D4DDF2}
    .fil29 {fill:#D5DDF0}
    .fil71 {fill:#D9BC89}
    .fil48 {fill:#DDE3F2}
    .fil26 {fill:#E1E7F4}
    .fil83 {fill:#E3CCA2}
    .fil19 {fill:#E6EBF6}
    .fil44 {fill:#E9EDF7}
    .fil82 {fill:#EBDABB}
    .fil103 {fill:#EBECF5}
    .fil49 {fill:#EBEFF7}
    .fil102 {fill:#EFF0F7}
    .fil66 {fill:#EFF2FA}
    .fil28 {fill:#F3F5FB}
    .fil61 {fill:#F4F6FB}
    .fil0 {fill:#FBF9F3}
    .fil70 {fill:#FBFBFB}
    .fil32 {fill:white}
    .fil47 {fill:white}
    .fil87 {fill:#98A2D1;fill-rule:nonzero}
    .fil91 {fill:#9AA7D3;fill-rule:nonzero}
    .fil15 {fill:#AD915C;fill-rule:nonzero}
    .fil80 {fill:#AFBDE0;fill-rule:nonzero}
    .fil96 {fill:#B2BCDE;fill-rule:nonzero}
    .fil90 {fill:#B9C2E0;fill-rule:nonzero}
    .fil13 {fill:#BB9B61;fill-rule:nonzero}
    .fil78 {fill:#BDC9E6;fill-rule:nonzero}
    .fil94 {fill:#C2C8E4;fill-rule:nonzero}
    .fil89 {fill:#C3CBE5;fill-rule:nonzero}
    .fil76 {fill:#C5D0E9;fill-rule:nonzero}
    .fil12 {fill:#CAA96F;fill-rule:nonzero}
    .fil97 {fill:#CBD0E7;fill-rule:nonzero}
    .fil75 {fill:#CFD8ED;fill-rule:nonzero}
    .fil81 {fill:#D0D9ED;fill-rule:nonzero}
    .fil95 {fill:#D1D6EB;fill-rule:nonzero}
    .fil9 {fill:#D2AE6D;fill-rule:nonzero}
    .fil7 {fill:#D2B278;fill-rule:nonzero}
    .fil92 {fill:#D6DAED;fill-rule:nonzero}
    .fil11 {fill:#D7B67C;fill-rule:nonzero}
    .fil6 {fill:#D7B77D;fill-rule:nonzero}
    .fil14 {fill:#D8BE8F;fill-rule:nonzero}
    .fil3 {fill:#D9BC89;fill-rule:nonzero}
    .fil8 {fill:#DCC08D;fill-rule:nonzero}
    .fil88 {fill:#DDE0F0;fill-rule:nonzero}
    .fil73 {fill:#DDE4F2;fill-rule:nonzero}
    .fil4 {fill:#DFC79C;fill-rule:nonzero}
    .fil79 {fill:#E0E6F3;fill-rule:nonzero}
    .fil10 {fill:#E3CCA2;fill-rule:nonzero}
    .fil85 {fill:#E3D1B2;fill-rule:nonzero}
    .fil86 {fill:#E5CFAA;fill-rule:nonzero}
    .fil5 {fill:#E6D1AB;fill-rule:nonzero}
    .fil77 {fill:#ECEFF8;fill-rule:nonzero}
    .fil84 {fill:#EDE1CB;fill-rule:nonzero}
    .fil2 {fill:#EFE2CE;fill-rule:nonzero}
    .fil93 {fill:#EFF0F7;fill-rule:nonzero}
    .fil72 {fill:#F5DBC7;fill-rule:nonzero}
    .fil74 {fill:#F5F7FB;fill-rule:nonzero}
    .fil1 {fill:#F7F2E6;fill-rule:nonzero}
   ]]>
  </style>
 </defs>
 <g id="Layer_x0020_1">
  <metadata id="CorelCorpID_0Corel-Layer"/>
  <g id="_1743740994160">
   <path class="fil0" d="M0 1163627l0 -934442c154269,14210 288185,-132116 476220,-185370 96519,-27335 317350,-30186 378550,64191 32421,49998 -4881,76343 -22148,114445 -42122,92951 78343,97760 172022,59925 115204,-46528 274610,-189909 415698,-183215 34063,1616 69484,14254 101538,37785 247200,181462 554390,285989 815238,57166 52486,-46042 108775,-94863 214257,-125566 46746,-13606 100428,-18583 165161,-9804l0 1104885 -2716536 0z"/>
   <path class="fil1" d="M2716536 204601c-388824,445799 -668084,3777 -1042805,124171 -59954,19263 -112024,45757 -160762,75288 -206082,124865 -350654,259820 -598519,252431 -423259,-12621 -626944,-362342 -914450,-178358l0 -112866c219072,-104854 464496,150977 716150,149753 207224,-1008 367531,-97261 527428,-194951 323310,-197529 427607,-236429 809541,-109003 248988,83071 473330,170617 663417,-129666l0 123201zm0 385580c-394451,238765 -499619,-98787 -834656,208922l-711227 -10322c92416,-82853 621858,-524198 1126354,-246153 202837,111793 348865,28207 419529,-33800l0 81353z"/>
   <g>
    <path class="fil2" d="M0 737635c0,0 1343856,-141055 2716536,0l0 425992 -2716536 0 0 -425992z"/>
    <polygon class="fil3" points="0,649787 508509,632953 676688,766721 0,792931 "/>
    <polygon class="fil4" points="1348459,721076 1492341,647510 1855491,644998 2042200,727304 "/>
    <path class="fil5" d="M0 779534c0,0 1343856,-141055 2716536,0l0 384093 -2716536 0 0 -384093z"/>
    <path class="fil6" d="M1780331 819116c-19722,-4706 -13989,-21346 7414,-21502 101012,-738 276250,-8534 528218,-42339 190463,-25553 317882,-43709 400573,-55975l0 252863c-166980,-2657 -484721,-25279 -936205,-133047z"/>
    <path class="fil7" d="M0 985993c0,0 209058,-11582 556108,-86536 347050,-74955 762814,-133970 1117826,-72385 315942,54808 657214,158954 1042602,162500l0 76024c-135333,8202 -303776,6320 -487248,-16796 -626162,-78890 -982724,145880 -1662640,68452 -296762,-33794 -467941,-44625 -566648,-46103l0 -85156z"/>
    <polygon class="fil3" points="2090417,721076 2196231,632954 2716536,642481 2716536,794461 "/>
    <polygon class="fil4" points="154176,772272 283432,697141 850344,680983 968622,745610 "/>
    <path class="fil8" d="M185010 617837c-70222,2127 -133586,5796 -185010,10273l0 14267c165194,-14090 428713,-17297 495974,-1047 60104,-18096 -94228,-30060 -310964,-23493z"/>
    <path class="fil9" d="M0 669728c165014,4273 428352,-8040 495972,-28398 -67252,-16249 -330773,-13046 -495972,1046l0 27352z"/>
    <path class="fil10" d="M1673522 628476c-120694,840 -207428,13424 -174492,25215 49900,-18535 300010,-20181 349806,-2352 33011,-12260 -54182,-23706 -175314,-22863z"/>
    <path class="fil11" d="M1499029 653691c49825,17840 299948,16167 349806,-2351 -49825,-17840 -299946,-16167 -349806,2351z"/>
    <path class="fil8" d="M2716536 619117c-54160,-3842 -122772,-6469 -198674,-7100 -207333,-1724 -359926,12294 -314680,28576 56641,-19472 344284,-21987 513354,-10369l0 -11107z"/>
    <path class="fil9" d="M2716536 630217c-169091,-11623 -456749,-9084 -513354,10376 56796,20435 344349,27588 513354,18725l0 -29101z"/>
    <polygon class="fil5" points="1951614,743744 2015461,688618 2511789,701393 2580300,790059 "/>
    <path class="fil6" d="M220252 729867c0,0 273076,54751 652547,61048 32120,533 36775,26492 5488,30639 -455225,60350 -790515,64289 -878287,64161l0 -135251c235203,-22979 207494,-20597 220252,-20597z"/>
    <path class="fil12" d="M2177332 1101384c2438,-1400 3840,-2870 3967,-4405 1181,-14175 -100697,-28405 -227552,-31785 -126851,-3378 -230640,5375 -231818,19550 -156,1850 1489,3703 4680,5532 45782,-26303 400417,-17747 450723,11108z"/>
    <path class="fil11" d="M2177332 1101384c-50303,-28855 -404941,-37411 -450723,-11108 50313,28860 404952,37405 450723,11108z"/>
    <path class="fil13" d="M963595 1084758c33163,-17432 -54469,-33295 -174919,-31729 -114794,1492 -200503,18161 -175417,34447 51460,-27049 310062,-28859 350336,-2718z"/>
    <path class="fil9" d="M963595 1084758c-40263,-26137 -298862,-24339 -350336,2718 40263,26135 298860,24340 350336,-2718z"/>
    <path class="fil14" d="M1744313 1139572c-51245,-11165 -144855,-20842 -222052,-20842 -68631,0 -139885,11130 -185076,23392 -30456,8265 -46513,15403 -51405,21505l505903 0c6684,-6994 -6150,-15074 -47370,-24055z"/>
    <polygon class="fil13" points="0,1041991 385861,1011456 612428,1068166 775050,1163627 0,1163627 "/>
    <path class="fil13" d="M413398 890295c37686,-23141 -101414,-31662 -283306,-17477 -47775,3726 -91860,8496 -130092,13803l0 15168c146309,-20200 360401,-29974 413398,-11494z"/>
    <path class="fil9" d="M413398 890295c-53044,-18496 -267109,-8702 -413398,11499l0 40878c150999,-2079 370273,-25900 413398,-52377z"/>
    <path class="fil10" d="M842645 686765c43487,-13787 -92184,-21892 -277869,-16267 -184170,5580 -317103,21617 -274126,32721 70067,-22215 482372,-34443 551995,-16454z"/>
    <path class="fil11" d="M842645 686765c-69695,-18007 -482043,-5727 -551995,16454 69695,18008 482043,5728 551995,-16454z"/>
    <path class="fil10" d="M2502887 707019c43545,-10910 -73338,-25851 -237892,-30028 -165629,-4205 -284780,4907 -240895,18091 66971,-16778 411755,-8205 478787,11937z"/>
    <path class="fil11" d="M2502887 707019c-66913,-20108 -411663,-28752 -478787,-11937 66917,20107 411663,28751 478787,11937z"/>
    <path class="fil13" d="M1885395 781981c-76165,0 -131560,10700 -110668,21499 31475,-16269 189839,-16282 221336,0 20874,-10791 -34417,-21499 -110668,-21499z"/>
    <path class="fil9" d="M1774726 803480c31476,16270 189839,16282 221337,0 -31476,-16269 -189839,-16282 -221337,0z"/>
    <path class="fil13" d="M2716536 872396c-49317,-7680 -115994,-14239 -190923,-17961 -184061,-9145 -322243,3474 -280951,25649 53059,-23456 327398,-15745 471874,6422l0 -14110z"/>
    <path class="fil9" d="M2716536 886513c-144441,-22162 -418729,-29923 -471874,-6429 53110,28517 327418,47007 471874,38631l0 -32202z"/>
    <polygon class="fil9" points="0,708637 227130,729868 323447,798863 0,833369 "/>
    <polygon class="fil9" points="2323663,790060 2716535,815744 2716535,716842 2450434,739339 "/>
    <path class="fil9" d="M487485 836408c0,-5156 -25586,-9337 -57153,-9337 -31562,0 -57148,4181 -57148,9337 0,5155 25586,9337 57148,9337 31567,0 57153,-4182 57153,-9337z"/>
    <path class="fil9" d="M2229288 781981c0,-5155 -25586,-9337 -57153,-9337 -31562,0 -57148,4182 -57148,9337 0,5158 25586,9337 57148,9337 31567,0 57153,-4179 57153,-9337z"/>
    <path class="fil9" d="M670409 1039464c0,-5155 -25585,-9337 -57152,-9337 -31563,0 -57148,4182 -57148,9337 0,5157 25585,9337 57148,9337 31567,0 57152,-4180 57152,-9337z"/>
    <path class="fil9" d="M1839128 767420c616,-6253 -29917,-12303 -68203,-13508 -38285,-1207 -69818,2884 -70434,9138 -616,6254 29922,12301 68206,13509 38283,1207 69815,-2885 70431,-9139z"/>
    <path class="fil9" d="M2716536 939273c-14460,-2103 -33514,-3382 -54399,-3382 -45195,0 -81836,5985 -81836,13368 0,7384 36641,13370 81836,13370 20885,0 39939,-1279 54399,-3383l0 -19973z"/>
    <polygon class="fil15" points="0,1117993 294481,1099902 424804,1163627 0,1163627 "/>
   </g>
   <g>
    <path class="fil16" d="M761562 1015430c220613,0 399455,-13671 399455,-30534 0,-16864 -178842,-30535 -399455,-30535 -220612,0 -399455,13671 -399455,30535 0,16863 178843,30534 399455,30534z"/>
    <path class="fil17" d="M690162 999824c141440,0 256101,-5293 256101,-11822 0,-6528 -114661,-11821 -256101,-11821 -141441,0 -256101,5293 -256101,11821 0,6529 114660,11822 256101,11822z"/>
    <g>
     <path class="fil18" d="M593657 927557l0 -156203c-5592,-14244 -5229,-30552 -5838,-40260 -1504,11147 -1989,16449 -9630,32032l0 1451 7276 0 0 162980 -7276 0 0 7267 15468 0 0 -7267z"/>
     <path class="fil19" d="M510606 981316l0 -80362 67583 -137828 0 162174 -67583 56016zm-9608 -45391l3239 -6606 6369 -12988 0 -15377 -13425 27378 0 15377 3817 -7784z"/>
     <path class="fil20" d="M510606 981316c0,3932 -84,5410 -721,6097 -632,681 -1802,590 -5648,590l0 -58684 6369 -12988 0 64985z"/>
     <polygon class="fil21" points="500998,935925 500998,988003 504237,988003 504237,929319 "/>
     <path class="fil22" d="M580191 456912l0 207289c-124,25299 -919,42573 -2002,56044 -1838,22848 -6193,36596 -21735,73376 -15589,36893 -36092,85493 -42648,100809l64383 -131304c7641,-15583 8126,-20885 9630,-32032 1027,16378 -500,52331 28254,64669l-1621 -377737c-47,-37109 -128,-71943 4201,-109068 3708,-31032 13180,-94866 26258,-123015 2631,-5665 5826,-10592 8913,-10754 3223,-169 6099,3868 8764,7048 49,-90 -9319,-19537 -16140,-16863 -2647,1037 -7199,7022 -9068,9436 -9641,12455 -13104,21643 -19374,35330 -5970,13156 -14507,37532 -21103,60310 -7466,25781 -12487,53542 -14949,81043 -2987,33376 -1763,71426 -1763,105419z"/>
     <polygon class="fil23" points="712199,936652 593657,936652 593657,927557 712199,927557 "/>
     <path class="fil24" d="M662176 181649c-16178,24876 -17321,74843 -17321,74843l53159 0c-2826,-16206 -15462,-47816 -24014,-61599 -6148,-9910 -10924,-12769 -11824,-13244z"/>
     <path class="fil25" d="M673248 197767c7230,13004 16929,39786 21251,58725l3515 0c-2826,-16206 -15462,-47816 -24014,-61599 -6148,-9910 -10924,-12769 -11824,-13244 -263,404 -521,815 -777,1232 1612,1091 6276,4862 11849,14886z"/>
     <path class="fil26" d="M614916 542156l409 109132 0 82 538 143609c-118,-42 -235,-84 -352,-127l172 132705 96516 0 6586 0 0 -292577c0,0 637,-41107 952,-92824 412,-67624 272,-153388 -2572,-189106 -5017,-63035 -19151,-96558 -19151,-96558l-3515 0 -49644 0c0,0 1106,-48357 16544,-73611 244,-399 492,-792 744,-1180 -2540,-3078 -5274,-6672 -8319,-6512 -3087,162 -6282,5089 -8913,10754 -1652,3555 -3246,7679 -4778,12234 -6882,20459 -12516,49618 -16509,74976 -2157,13702 -3834,26294 -4971,35805 -4329,37125 -4248,71959 -4201,109068l464 124130z"/>
     <path class="fil18" d="M714758 289033c-270,-3372 -759,-7906 -1631,-12953 -3216,-18609 -9778,-27178 -20355,-38702 2445,7219 4341,13948 5242,19114 0,0 4458,10574 9256,31012 130,108 260,217 391,327l1887 1635c2214,1972 3990,3469 4311,3378 910,-254 1009,-2425 899,-3811z"/>
     <polygon class="fil25" points="578189,763754 585465,763754 585465,927557 578189,927557 "/>
     <path class="fil27" d="M593657 771354l0 156203 22026 0 -172 -132705 352 127c-11712,-5025 -18365,-13838 -22206,-23625z"/>
     <polygon class="fil23" points="666374,975006 666374,936652 651810,936652 663709,967986 "/>
     <path class="fil28" d="M761737 910624l-3890 50900 2854 0 5438 10989 1926 15490 12140 0 0 -55332c-17378,-48477 -35048,-98346 -54524,-146481 -1813,-4480 -9080,-24893 -10882,-27581 -1486,-2220 -3074,-3238 -4392,-3085 -1283,147 -2819,1367 -2748,3743l621 20609 9039 14171 44418 116577z"/>
     <path class="fil20" d="M768002 935581c-598,-6975 -1554,-13917 -3061,-20806 -716,6636 -1362,13623 -1877,20806l4938 0z"/>
     <path class="fil29" d="M718785 793507c-4178,-10277 -10506,-32782 -10505,-25743l36 159789c1298,683 3371,1575 4402,2519 6340,5820 14256,13821 21886,21787 14342,14973 27681,29822 27681,29822 1106,-2127 1113,-39066 1550,-45174 515,-7183 390,-15096 1106,-21732 -26,-118 -52,-237 -78,-355 -328,-1484 -700,-3082 -1120,-4799 -2899,-11840 -28136,-74728 -44958,-116114z"/>
     <path class="fil30" d="M585465 927557l-7276 0 0 1871 9553 0 0 -163066 0 -8005 -7290 0c-675,1480 -1426,3063 -2263,4769l0 1451 0 1371c668,-677 1409,-1122 2196,-1371 1106,-350 2305,-316 3528,0 515,132 1034,315 1552,539l0 162441z"/>
     <path class="fil31" d="M594915 774301c-5591,-14244 -6487,-33499 -7096,-43207 -1504,11147 -1989,16449 -9630,32032l0 2822c5076,-5154 14357,3172 16726,8353z"/>
     <path class="fil32" d="M694499 256492c5012,15954 11527,41572 15588,76321 4159,35588 7463,121289 9545,188882 62,2015 124,4013 183,5993 302,-64936 -6,-141424 -2650,-174638 -2199,-27633 -6150,-49594 -9895,-65546 -4798,-20438 -9256,-31012 -9256,-31012l-3515 0z"/>
     <path class="fil33" d="M650304 413011l-8937 0 0 6586 8937 0 0 -6586zm64530 0l-3419 0 0 6586 3419 0 0 -6586zm-8897 0c-1507,0 -3015,0 -4523,0 0,2196 0,4391 0,6586 1508,0 3016,0 4523,0 0,-2195 0,-4390 0,-6586zm-10604 0c-1875,0 -3750,0 -5627,0 0,2196 0,4391 0,6586 1877,0 3752,0 5627,0 0,-2195 0,-4390 0,-6586zm-13702 0c-2243,0 -4487,0 -6730,0 0,2196 0,4391 0,6586 2243,0 4487,0 6730,0 0,-2195 0,-4390 0,-6586zm-15407 0c-2611,0 -5222,0 -7833,0 0,2196 0,4391 0,6586 2611,0 5222,0 7833,0 0,-2195 0,-4390 0,-6586zm48610 -27988l-3419 0 0 6586 3419 0 0 -6586zm-8703 0c-1506,0 -3014,0 -4522,0 0,2196 0,4391 0,6586 1508,0 3016,0 4522,0 0,-2195 0,-4390 0,-6586zm-10897 0c-1876,0 -3751,0 -5627,0 0,2196 0,4391 0,6586 1876,0 3751,0 5627,0 0,-2195 0,-4390 0,-6586zm-13564 0c-2243,0 -4487,0 -6730,0 0,2196 0,4391 0,6586 2243,0 4487,0 6730,0 0,-2195 0,-4390 0,-6586zm-15362 0c-2612,0 -5223,0 -7834,0 0,2196 0,4391 0,6586 2611,0 5222,0 7834,0 0,-2195 0,-4390 0,-6586zm46585 -28067l-3420 0 0 6586 3420 0 0 -6586zm-6876 0c-1508,0 -3015,0 -4523,0 0,2195 0,4391 0,6586 1508,0 3015,0 4523,0 0,-2195 0,-4391 0,-6586zm-11447 0c-1875,0 -3751,0 -5627,0 0,2195 0,4391 0,6586 1876,0 3752,0 5627,0 0,-2195 0,-4391 0,-6586zm-13445 0c-2243,0 -4486,0 -6731,0 0,2195 0,4391 0,6586 2245,0 4488,0 6731,0 0,-2195 0,-4391 0,-6586zm-14819 0c-2610,0 -5222,0 -7834,0 0,2195 0,4391 0,6586 2612,0 5224,0 7834,0 0,-2195 0,-4391 0,-6586zm-3637 -83107c-2289,0 -4578,0 -6867,0 0,2195 0,4391 0,6586 2289,0 4578,0 6867,0 0,-2195 0,-4391 0,-6586zm37777 0l-3129 0 0 6586 3129 0 0 -6586zm-6381 0c-1598,0 -3197,0 -4796,0 0,2195 0,4391 0,6586 1599,0 3198,0 4796,0 0,-2195 0,-4391 0,-6586zm-9126 0c-1943,0 -3887,0 -5831,0 0,2195 0,4391 0,6586 1944,0 3888,0 5831,0 0,-2195 0,-4391 0,-6586zm-10628 0c-2289,0 -4578,0 -6867,0 0,2195 0,4391 0,6586 2289,0 4578,0 6867,0 0,-2195 0,-4391 0,-6586zm31893 27284l-3173 0 0 6586 3173 0 0 -6586zm-6566 0c-1442,0 -2884,0 -4326,0 0,2195 0,4391 0,6586 1442,0 2884,0 4326,0 0,-2195 0,-4391 0,-6586zm-9897 0c-1827,0 -3653,0 -5480,0 0,2195 0,4391 0,6586 1827,0 3653,0 5480,0 0,-2195 0,-4391 0,-6586zm-11291 0c-2210,0 -4420,0 -6631,0 0,2195 0,4391 0,6586 2211,0 4421,0 6631,0 0,-2195 0,-4391 0,-6586zm-14115 0c-2594,0 -5189,0 -7785,0 0,2195 0,4391 0,6586 2596,0 5191,0 7785,0 0,-2195 0,-4391 0,-6586zm46337 28068l-3420 0 0 6586 3420 0 0 -6586zm-7322 0c-1598,0 -3197,0 -4796,0 0,2196 0,4391 0,6586 1599,0 3198,0 4796,0 0,-2195 0,-4390 0,-6586zm-11149 0c-1944,0 -3887,0 -5831,0 0,2196 0,4391 0,6586 1944,0 3887,0 5831,0 0,-2195 0,-4390 0,-6586zm-12199 0c-2289,0 -4578,0 -6867,0 0,2196 0,4391 0,6586 2289,0 4578,0 6867,0 0,-2195 0,-4390 0,-6586zm-14575 0c-2634,0 -5269,0 -7903,0 0,2196 0,4391 0,6586 2634,0 5269,0 7903,0 0,-2195 0,-4390 0,-6586zm-14215 -55352l-8938 0 0 6586 8938 0 0 -6586zm-775 27284l-8937 0 0 6586 8937 0 0 -6586zm-878 28068l-8938 0 0 6586 8938 0 0 -6586zm271 27755l-8939 0 0 6586 8939 0 0 -6586zm474 28067l-8937 0 0 6586 8937 0 0 -6586z"/>
     <path class="fil34" d="M612093 309698c-4803,37586 -4714,72852 -4662,110423l1523 371096c2081,1412 4377,2676 6909,3762l-1411 -376953c-47,-37109 -128,-71943 4201,-109068 1136,-9511 2814,-22103 4971,-35805 -1798,-125 -3600,-95 -5410,97 -194,20 -388,43 -582,67 -2404,13922 -4274,26722 -5539,36381z"/>
     <path class="fil35" d="M640133 198177c1532,-4555 3126,-8679 4778,-12234 2631,-5665 5826,-10592 8913,-10754 182,-9 363,-6 543,11 -1048,-623 -2129,-986 -3248,-933 -3425,164 -6970,5153 -9890,10888 -2807,5512 -5464,12376 -7954,20091 405,-423 811,-845 1217,-1266 2113,-2195 4023,-4155 5641,-5803z"/>
     <path class="fil36" d="M655131 256492c432,-9397 2711,-43529 13595,-65894 -3476,-4799 -6178,-6939 -7327,-7717 -15438,25254 -16544,73611 -16544,73611l10276 0z"/>
     <path class="fil37" d="M675037 439275l-32614 0c-4312,0 -7840,3529 -7840,7841l0 31674c0,4312 3528,7840 7840,7840l32614 0c4313,0 7841,-3528 7841,-7840l0 -31674c0,-4312 -3528,-7841 -7841,-7841z"/>
     <path class="fil38" d="M645361 483283l30237 0c1552,0 2963,-635 3988,-1660 1024,-1024 1660,-2436 1660,-3987l0 -29366c0,-1551 -636,-2963 -1660,-3987 -1025,-1025 -2436,-1661 -3988,-1661l-30237 0c-1552,0 -2963,636 -3987,1661 -1024,1024 -1661,2436 -1661,3987l0 29366c0,1551 637,2963 1661,3987 1024,1025 2435,1660 3987,1660zm0 1622l30237 0c3999,0 7270,-3271 7270,-7269l0 -29366c0,-3998 -3271,-7269 -7270,-7269l-30237 0c-3998,0 -7269,3271 -7269,7269l0 29366c0,3998 3271,7269 7269,7269z"/>
     <path class="fil25" d="M632197 518704l-465 -124130c-74,-58836 152,-124093 11876,-182011 2992,-14783 7104,-28156 13310,-36341 -827,-567 -1676,-942 -2551,-1022 -180,-17 -361,-20 -543,-11 -3087,162 -6282,5089 -8913,10754 -1652,3555 -3246,7679 -4778,12234 -6882,20459 -12516,49618 -16509,74976 -2157,13702 -3835,26294 -4971,35805 -4329,37125 -4248,71959 -4201,109068l1059 376826 172 132705 17254 0 -331 -299639 -409 -109214z"/>
     <path class="fil39" d="M599473 351058c3050,0 5998,1839 8785,5269 655,-15362 1811,-30790 3835,-46629 1265,-9659 3135,-22459 5539,-36381 -8036,1002 -16231,5184 -24973,13060 -5155,21115 -8743,43198 -10705,65116 -781,8726 -1274,17770 -1576,26978 5278,-17186 11903,-27413 19095,-27413z"/>
     <path class="fil40" d="M608258 356327c-2787,-3430 -5735,-5269 -8785,-5269 -7192,0 -13817,10227 -19095,27413 -785,23886 -286,48873 -199,72236 4619,-26334 11270,-42858 18664,-42858 3013,0 5903,2744 8582,7778 -26,-20141 -5,-39667 833,-59300z"/>
     <path class="fil41" d="M608258 356327c-838,19633 -859,39159 -833,59300 2588,4862 4979,11860 7095,20585l-68 -18186c-22,-17031 -50,-33583 343,-50096 -2047,-4858 -4237,-8773 -6537,-11603z"/>
     <path class="fil42" d="M607425 415627c-2679,-5034 -5569,-7778 -8582,-7778 -7394,0 -14045,16524 -18664,42858 8,2082 12,4151 12,6205l0 56214c3808,-27819 9433,-45418 15707,-45418 4393,0 8468,8630 11824,23355l-291 -70942c-2,-1501 -4,-2999 -6,-4494z"/>
     <path class="fil43" d="M607722 491063l0 11c3146,13808 5659,32975 7210,55410l0 -26 -412 -110246c-2116,-8725 -4507,-15723 -7095,-20585l6 4494 291 70942z"/>
     <path class="fil18" d="M626323 256965c4727,-26790 11060,-54818 18588,-71022 2631,-5665 5826,-10592 8913,-10754 3223,-169 6099,3868 8763,7048 50,-90 -9318,-19537 -16139,-16863 -2647,1037 -7199,7022 -9068,9436 -9641,12455 -13104,21643 -19374,35330 -4800,10577 -11258,28405 -17033,46825l25350 0z"/>
     <path class="fil18" d="M616938 277393c-2073,12335 -3705,23596 -4845,32305 -2024,15839 -3180,31267 -3835,46629 2300,2830 4490,6745 6537,11603 465,-19469 1516,-38885 3858,-58972 1031,-8630 2508,-19797 4384,-32028 192,-1249 387,-2508 587,-3777 -1798,-125 -3600,-95 -5410,97 -9939,1144 -18276,6570 -25555,13127 -333,1363 -659,2730 -978,4101 8787,-7529 17102,-11753 25257,-13085l0 0z"/>
     <path class="fil44" d="M667941 927557l22390 0 17993 0 -44 -159793c-350,-3272 -711,-6437 -341,-8429 880,-4739 3927,-5106 6860,-727 707,1055 2255,4839 3986,9319l0 -132947c0,0 583,-37595 909,-86111 -7353,-28989 -16065,-45765 -25405,-45765 -26317,0 -47652,133197 -47652,297504 0,45411 1630,88446 4544,126949l16760 0z"/>
     <polygon class="fil45" points="674058,936652 674058,975006 666374,975006 663709,967986 663709,980023 678919,980023 678919,936652 "/>
     <polygon class="fil46" points="666374,975006 674058,975006 674058,936652 666374,936652 "/>
     <path class="fil28" d="M672570 927557l22390 0c1084,-27929 1705,-60303 1705,-94820 0,-105323 -5776,-190704 -12900,-190704 -7125,0 -12900,85381 -12900,190704 0,34517 620,66891 1705,94820z"/>
     <path class="fil47" d="M679418 927557l7780 0c377,-15735 593,-33975 593,-53421 0,-59339 -2008,-107443 -4483,-107443 -2475,0 -4482,48104 -4482,107443 0,19446 215,37686 592,53421z"/>
     <path class="fil48" d="M604322 635699c-1051,-63455 -4736,-110318 -9121,-110318 -4385,0 -8070,46863 -9120,110318 1050,63455 4735,110319 9120,110319 4385,0 8070,-46864 9121,-110319z"/>
     <path class="fil49" d="M599530 635699c-499,-31816 -2248,-55314 -4329,-55314 -2081,0 -3830,23498 -4329,55314 499,31817 2248,55314 4329,55314 2081,0 3830,-23497 4329,-55314z"/>
     <path class="fil50" d="M626323 256965c4727,-26790 11060,-54818 18588,-71022 2631,-5665 5826,-10592 8913,-10754 3223,-169 6099,3868 8763,7048 16,-27 -844,-1853 -2239,-4301 -3278,-3408 -6949,-5978 -9745,-4543 -2530,1298 -6458,7709 -8076,10299 -8342,13360 -10865,22849 -15730,37096 -2911,8625 -6388,21786 -9632,36177l9158 0z"/>
     <path class="fil51" d="M618214 273250c1810,-192 3612,-222 5410,-97 3993,-25358 9627,-54517 16509,-74976 -1618,1648 -3528,3608 -5641,5803 -6617,18172 -12152,44726 -16278,69270z"/>
     <path class="fil52" d="M586809 274812c-705,5073 -1044,9621 -1202,13000 -65,1389 106,3555 1024,3780 323,80 2049,-1476 4197,-3519 613,-583 1224,-1149 1831,-1696 8953,-8066 17332,-12258 25555,-13127 4126,-24544 9661,-51098 16278,-69270 -7543,7836 -15119,15896 -22312,24210 -13950,16129 -22271,24325 -25371,46622z"/>
     <path class="fil53" d="M638899 201978c401,-1278 807,-2529 1217,-3748 -1618,1648 -3528,3608 -5642,5803 -7542,7836 -15118,15896 -22311,24210 -13950,16129 -22272,24325 -25371,46622 -705,5074 -1044,9621 -1202,13000 -46,989 27,2372 404,3167 229,-3166 585,-6839 1135,-10790 3564,-25641 13133,-35066 29175,-53614 7299,-8436 14940,-16645 22595,-24650z"/>
     <polygon class="fil45" points="702502,936652 624730,936652 624730,927557 702502,927557 "/>
     <polygon class="fil46" points="694942,936652 648346,936652 648346,927557 694942,927557 "/>
     <polygon class="fil54" points="688461,936652 667941,936652 667941,927557 688461,927557 "/>
     <path class="fil21" d="M582065 638585l1122 -143405c-1091,5344 -2094,11359 -2996,17946l0 151076c-87,17742 -504,31539 -1119,42844 1973,-29555 2822,-46515 2993,-68461z"/>
     <path class="fil55" d="M580191 513126c902,-6587 1905,-12602 2996,-17946l256 -32761c0,-8693 -80,-17652 -150,-26730 -1117,4547 -2159,9573 -3114,15018 8,2082 12,4151 12,6205l0 56214z"/>
     <path class="fil56" d="M580179 450707c955,-5445 1997,-10471 3114,-15018 -174,-22816 -279,-46385 1127,-68390 -1418,3289 -2770,7028 -4042,11172 -785,23886 -286,48873 -199,72236z"/>
     <path class="fil57" d="M580378 378471c1272,-4144 2624,-7883 4042,-11172 222,-3475 482,-6911 785,-10299 2145,-23964 6234,-48126 12190,-71002 -1884,1337 -3788,2829 -5714,4480 -4634,19864 -7892,40512 -9727,61015 -781,8726 -1274,17770 -1576,26978z"/>
     <path class="fil58" d="M616682 223070c2047,-5548 4233,-11085 6538,-16385 8458,-19448 19597,-35555 25940,-38042 2885,-1130 6322,2096 9325,6204 -3333,-5212 -8107,-11013 -12037,-9473 -2647,1037 -7199,7022 -9068,9436 -9641,12455 -13104,21643 -19374,35330 -2444,5384 -5317,12648 -8311,20913 808,-929 1636,-1881 2485,-2863 1486,-1717 2988,-3423 4502,-5120z"/>
     <path class="fil28" d="M768002 935581l-4938 0c-993,13852 -1495,28435 -1057,42645l278 3455 2740 0 0 6322 3734 0c0,0 0,-30376 -316,-46242 -119,-2063 -264,-4122 -441,-6180z"/>
     <path class="fil59" d="M768002 935581l-2977 0 0 46100 0 6322 3734 0c0,0 0,-30376 -316,-46242 -119,-2063 -264,-4122 -441,-6180z"/>
     <path class="fil60" d="M615511 794826c-2393,-1051 -4572,-2263 -6557,-3609 -23,-15 -46,-31 -69,-46l0 136386 6921 0 -295 -132731z"/>
     <polygon class="fil61" points="500998,988003 500998,961964 500998,935925 500998,928332 497181,928332 497181,943708 497181,961964 497181,988003 "/>
     <path class="fil53" d="M579037 927557l0 -162321c-294,201 -577,437 -848,712l0 159352 0 2257 848 0z"/>
     <polygon class="fil30" points="578189,763126 578189,765948 514762,892478 "/>
     <path class="fil62" d="M579234 763754c599,-1312 1407,-3160 2288,-5397 2691,-6832 6068,-17299 6297,-27263 -1504,11147 -1989,16449 -9630,32032l0 1451 0 1371c0,0 248,-485 664,-1371 115,-245 242,-520 381,-823z"/>
     <path class="fil63" d="M587742 766362c2317,1525 4447,3691 5884,5739 10,15 20,29 30,44 522,748 950,1479 1259,2156 0,-1 0,-2 -1,-3 -283,-720 -553,-1454 -812,-2197 -4868,-13969 -5705,-31791 -6283,-41007 -119,5158 -1080,10451 -2354,15305l0 11958 0 5397 0 823 0 539c766,332 1531,756 2277,1246z"/>
     <path class="fil47" d="M679859 448270l0 29366c0,2081 -886,3965 -2300,5294 767,-287 1457,-737 2027,-1307 1024,-1024 1660,-2436 1660,-3987l0 -29366c0,-1551 -636,-2963 -1660,-3987 -570,-570 -1260,-1020 -2027,-1307 1414,1329 2300,3213 2300,5294z"/>
     <path class="fil41" d="M638091 477636l0 -29366c0,-1771 642,-3400 1705,-4664 -292,200 -566,427 -816,677 -1024,1024 -1660,2436 -1660,3987l0 29366c0,1551 636,2963 1660,3987 250,250 524,477 816,677 -1063,-1264 -1705,-2893 -1705,-4664z"/>
     <polygon class="fil20" points="510606,900954 497181,928332 500998,928332 500998,930587 503615,930587 504237,929319 510606,916331 "/>
     <polygon class="fil31" points="500998,935925 510606,916331 510606,908643 500998,928332 "/>
     <path class="fil64" d="M648698 256492c235,-12894 1956,-49966 13726,-72846 -417,-337 -761,-587 -1025,-765 -15438,25254 -16544,73611 -16544,73611l3843 0z"/>
     <path class="fil64" d="M694161 255043l-38994 0c-13,511 -25,995 -36,1449l39368 0c-75,-414 -282,-1140 -338,-1449z"/>
     <path class="fil65" d="M648729 255043l-807 0 -3018 0c-17,948 -49,1449 -49,1449l3052 0 791 0 6433 0c11,-454 24,-986 72,-1449l-6474 0z"/>
     <path class="fil47" d="M681422 209032c-785,381 -1484,913 -2058,1558 1463,3440 2939,7151 4380,10998 187,16 376,24 567,24 844,0 1652,-158 2394,-446 -1718,-4209 -3507,-8322 -5283,-12134z"/>
     <path class="fil66" d="M679364 210590c574,-645 1273,-1177 2058,-1558 -882,-1892 -1760,-3711 -2625,-5431 -705,342 -1374,747 -1999,1209 844,1815 1703,3751 2566,5780z"/>
     <path class="fil66" d="M686705 221166c-742,288 -1550,446 -2394,446 -191,0 -380,-8 -567,-24 732,1956 1455,3946 2163,5955 1053,-132 2066,-395 3022,-769 -723,-1877 -1466,-3752 -2224,-5608z"/>
     <path class="fil67" d="M676798 204810c625,-462 1294,-867 1999,-1209 -649,-1292 -1291,-2529 -1921,-3699 -665,328 -1304,698 -1915,1108 602,1194 1215,2464 1837,3800z"/>
     <path class="fil67" d="M688929 226774c-956,374 -1969,637 -3022,769 468,1328 929,2664 1382,4003 1076,-192 2116,-487 3110,-873 -479,-1297 -969,-2599 -1470,-3899z"/>
    </g>
   </g>
   <g>
    <path class="fil68" d="M1155208 859289c86988,0 157506,-4323 157506,-9655 0,-5332 -70518,-9654 -157506,-9654 -86988,0 -157506,4322 -157506,9654 0,5332 70518,9655 157506,9655z"/>
    <path class="fil69" d="M1127218 855081c55770,0 100981,-2087 100981,-4661 0,-2574 -45211,-4661 -100981,-4661 -55771,0 -100981,2087 -100981,4661 0,2574 45210,4661 100981,4661z"/>
    <g>
     <path class="fil18" d="M1089165 826587l0 -61592c-2204,-5616 -2061,-12047 -2301,-15875 -593,4396 -784,6487 -3797,12631l0 572 2868 0 0 64264 -2868 0 0 2865 6098 0 0 -2865z"/>
     <path class="fil19" d="M1056419 847784l0 -31687 26648 -54346 0 63945 -26648 22088zm-3789 -17898l1277 -2605 2512 -5121 0 -6063 -5294 10795 0 6063 1505 -3069z"/>
     <path class="fil20" d="M1056419 847784c0,1550 -34,2133 -285,2404 -249,268 -711,232 -2227,232l0 -23139 2512 -5121 0 25624z"/>
     <polygon class="fil21" points="1052630,829886 1052630,850420 1053907,850420 1053907,827281 "/>
     <path class="fil22" d="M1083856 641009l0 81735c-49,9976 -362,16787 -789,22099 -725,9009 -2442,14429 -8571,28932 -6146,14547 -14231,33710 -16816,39749l25387 -51773c3013,-6144 3204,-8235 3797,-12631 405,6458 -197,20635 11140,25500l-639 -148943c-19,-14633 -50,-28368 1657,-43006 1461,-12236 5197,-37406 10353,-48505 1038,-2234 2297,-4177 3514,-4241 1271,-67 2405,1525 3456,2779 20,-35 -3674,-7703 -6364,-6649 -1044,409 -2838,2769 -3575,3721 -3802,4911 -5167,8533 -7640,13930 -2353,5188 -5720,14800 -8320,23781 -2944,10165 -4924,21112 -5895,31956 -1178,13160 -695,28163 -695,41566z"/>
     <polygon class="fil23" points="1135907,830173 1089165,830173 1089165,826587 1135907,826587 "/>
     <path class="fil24" d="M1116183 532472c-6379,9809 -6830,29511 -6830,29511l20961 0c-1114,-6390 -6097,-18854 -9469,-24289 -2424,-3907 -4307,-5034 -4662,-5222z"/>
     <path class="fil25" d="M1120548 538828c2852,5127 6676,15687 8380,23155l1386 0c-1114,-6390 -6097,-18854 -9469,-24289 -2424,-3907 -4307,-5034 -4662,-5222 -104,160 -206,322 -307,486 636,430 2475,1917 4672,5870z"/>
     <path class="fil26" d="M1097548 674622l161 43031 0 32 212 56626c-46,-17 -92,-33 -138,-51l68 52327 38056 0 2597 0 0 -115365c0,0 251,-16208 376,-36600 162,-26665 106,-60482 -1015,-74566 -1978,-24855 -7551,-38073 -7551,-38073l-1386 0 -19575 0c0,0 436,-19067 6523,-29025 97,-157 194,-312 294,-465 -1002,-1214 -2080,-2631 -3281,-2568 -1217,64 -2476,2007 -3514,4241 -651,1401 -1280,3027 -1884,4823 -2713,8068 -4935,19565 -6509,29564 -851,5403 -1512,10367 -1960,14118 -1707,14638 -1676,28373 -1657,43006l183 48945z"/>
     <path class="fil18" d="M1136916 574814c-107,-1329 -299,-3117 -643,-5107 -1268,-7338 -3856,-10716 -8026,-15261 964,2847 1712,5500 2067,7537 0,0 1758,4169 3649,12228 52,43 103,86 155,130l744 644c873,777 1573,1368 1699,1332 359,-100 398,-956 355,-1503z"/>
     <polygon class="fil25" points="1083067,761998 1085935,761998 1085935,826587 1083067,826587 "/>
     <path class="fil27" d="M1089165 764995l0 61592 8686 0 -68 -52327 138 51c-4617,-1982 -7241,-5457 -8756,-9316z"/>
     <polygon class="fil23" points="1117838,845296 1117838,830173 1112095,830173 1116787,842528 "/>
     <path class="fil28" d="M1155440 819909l-1534 20071 1125 0 2145 4333 759 6107 4787 0 0 -21817c-6852,-19115 -13819,-38778 -21499,-57758 -715,-1767 -3580,-9815 -4291,-10876 -586,-875 -1212,-1276 -1732,-1216 -506,58 -1111,539 -1083,1476l245 8127 3564 5587 17514 45966z"/>
     <path class="fil20" d="M1157910 829750c-236,-2750 -613,-5487 -1206,-8204 -283,2617 -538,5372 -741,8204l1947 0z"/>
     <path class="fil29" d="M1138504 773730c-1647,-4052 -4143,-12926 -4142,-10150l14 63005c512,269 1329,621 1735,993 2501,2295 5622,5450 8630,8591 5655,5904 10915,11759 10915,11759 436,-839 439,-15404 611,-17812 203,-2833 154,-5953 437,-8570 -11,-46 -21,-93 -32,-140 -129,-584 -276,-1215 -441,-1892 -1143,-4668 -11094,-29465 -17727,-45784z"/>
     <path class="fil30" d="M1085935 826587l-2868 0 0 737 3766 0 0 -64297 0 -3157 -2874 0c-266,584 -563,1208 -892,1881l0 572 0 541c263,-268 555,-443 865,-541 437,-138 909,-125 1392,0 202,52 407,124 611,212l0 64052z"/>
     <path class="fil31" d="M1089662 766157c-2205,-5616 -2558,-13209 -2798,-17037 -593,4396 -784,6487 -3797,12631l0 1113c2001,-2033 5661,1250 6595,3293z"/>
     <path class="fil70" d="M1128928 561983c1976,6291 4545,16392 6146,30094 1640,14032 2943,47825 3764,74477 24,794 49,1582 72,2363 119,-25605 -2,-55764 -1045,-68861 -867,-10895 -2425,-19555 -3902,-25845 -1891,-8059 -3649,-12228 -3649,-12228l-1386 0z"/>
     <path class="fil33" d="M1111502 623699l-3524 0 0 2597 3524 0 0 -2597zm25444 0l-1348 0 0 2597 1348 0 0 -2597zm-3508 0c-594,0 -1189,0 -1784,0 0,866 0,1732 0,2597 595,0 1190,0 1784,0 0,-865 0,-1731 0,-2597zm-4181 0c-740,0 -1479,0 -2219,0 0,866 0,1732 0,2597 740,0 1479,0 2219,0 0,-865 0,-1731 0,-2597zm-5403 0c-884,0 -1769,0 -2654,0 0,866 0,1732 0,2597 885,0 1770,0 2654,0 0,-865 0,-1731 0,-2597zm-6075 0c-1029,0 -2059,0 -3089,0 0,866 0,1732 0,2597 1030,0 2060,0 3089,0 0,-865 0,-1731 0,-2597zm19167 -11036l-1348 0 0 2598 1348 0 0 -2598zm-3431 0c-595,0 -1189,0 -1784,0 0,866 0,1732 0,2598 595,0 1189,0 1784,0 0,-866 0,-1732 0,-2598zm-4297 0c-740,0 -1479,0 -2219,0 0,866 0,1732 0,2598 740,0 1479,0 2219,0 0,-866 0,-1732 0,-2598zm-5349 0c-884,0 -1769,0 -2653,0 0,866 0,1732 0,2598 884,0 1769,0 2653,0 0,-866 0,-1732 0,-2598zm-6057 0c-1030,0 -2059,0 -3089,0 0,866 0,1732 0,2598 1030,0 2059,0 3089,0 0,-866 0,-1732 0,-2598zm18368 -11067l-1348 0 0 2597 1348 0 0 -2597zm-2711 0c-594,0 -1189,0 -1783,0 0,866 0,1732 0,2597 594,0 1189,0 1783,0 0,-865 0,-1731 0,-2597zm-4513 0c-739,0 -1479,0 -2219,0 0,866 0,1732 0,2597 740,0 1480,0 2219,0 0,-865 0,-1731 0,-2597zm-5302 0c-884,0 -1769,0 -2654,0 0,866 0,1732 0,2597 885,0 1770,0 2654,0 0,-865 0,-1731 0,-2597zm-5843 0c-1029,0 -2059,0 -3089,0 0,866 0,1732 0,2597 1030,0 2060,0 3089,0 0,-865 0,-1731 0,-2597zm-1434 -32769c-902,0 -1805,0 -2708,0 0,866 0,1731 0,2597 903,0 1806,0 2708,0 0,-866 0,-1731 0,-2597zm14896 0l-1234 0 0 2597 1234 0 0 -2597zm-2516 0c-631,0 -1261,0 -1891,0 0,866 0,1731 0,2597 630,0 1260,0 1891,0 0,-866 0,-1731 0,-2597zm-3598 0c-767,0 -1533,0 -2300,0 0,866 0,1731 0,2597 767,0 1533,0 2300,0 0,-866 0,-1731 0,-2597zm-4191 0c-903,0 -1805,0 -2708,0 0,866 0,1731 0,2597 903,0 1805,0 2708,0 0,-866 0,-1731 0,-2597zm12575 10758l-1251 0 0 2597 1251 0 0 -2597zm-2589 0c-569,0 -1137,0 -1706,0 0,866 0,1732 0,2597 569,0 1137,0 1706,0 0,-865 0,-1731 0,-2597zm-3902 0c-721,0 -1441,0 -2161,0 0,866 0,1732 0,2597 720,0 1440,0 2161,0 0,-865 0,-1731 0,-2597zm-4452 0c-872,0 -1743,0 -2615,0 0,866 0,1732 0,2597 872,0 1743,0 2615,0 0,-865 0,-1731 0,-2597zm-5566 0c-1023,0 -2046,0 -3069,0 0,866 0,1732 0,2597 1023,0 2046,0 3069,0 0,-865 0,-1731 0,-2597zm18271 11068l-1348 0 0 2597 1348 0 0 -2597zm-2887 0c-631,0 -1261,0 -1892,0 0,866 0,1731 0,2597 631,0 1261,0 1892,0 0,-866 0,-1731 0,-2597zm-4396 0c-766,0 -1533,0 -2300,0 0,866 0,1731 0,2597 767,0 1534,0 2300,0 0,-866 0,-1731 0,-2597zm-4810 0c-903,0 -1805,0 -2708,0 0,866 0,1731 0,2597 903,0 1805,0 2708,0 0,-866 0,-1731 0,-2597zm-5747 0c-1039,0 -2078,0 -3117,0 0,866 0,1731 0,2597 1039,0 2078,0 3117,0 0,-866 0,-1731 0,-2597zm-5606 -21826l-3524 0 0 2597 3524 0 0 -2597zm-305 10758l-3524 0 0 2597 3524 0 0 -2597zm-346 11068l-3524 0 0 2597 3524 0 0 -2597zm107 10943l-3525 0 0 2597 3525 0 0 -2597zm187 11067l-3524 0 0 2598 3524 0 0 -2598z"/>
     <path class="fil34" d="M1096435 582963c-1894,14820 -1859,28726 -1839,43540l601 146324c821,557 1726,1055 2724,1484l-556 -148634c-19,-14633 -50,-28368 1657,-43006 448,-3751 1109,-8716 1960,-14118 -710,-50 -1420,-38 -2134,38 -76,8 -152,16 -229,26 -948,5490 -1685,10537 -2184,14346z"/>
     <path class="fil35" d="M1107491 538989c604,-1796 1233,-3422 1884,-4823 1038,-2234 2297,-4177 3514,-4241 72,-4 144,-2 215,5 -413,-246 -840,-389 -1281,-368 -1351,64 -2748,2031 -3900,4293 -1106,2173 -2154,4880 -3136,7922 160,-167 320,-333 480,-499 833,-866 1586,-1639 2224,-2289z"/>
     <path class="fil36" d="M1113405 561983c170,-3705 1069,-17164 5360,-25982 -1370,-1892 -2435,-2736 -2889,-3043 -6087,9958 -6523,29025 -6523,29025l4052 0z"/>
     <path class="fil37" d="M1121254 634055l-12860 0c-1700,0 -3091,1391 -3091,3091l0 12490c0,1701 1391,3092 3091,3092l12860 0c1701,0 3092,-1391 3092,-3092l0 -12490c0,-1700 -1391,-3091 -3092,-3091z"/>
     <path class="fil38" d="M1109552 651408l11923 0c612,0 1169,-251 1573,-655 404,-404 654,-960 654,-1572l0 -11579c0,-612 -250,-1169 -654,-1572 -404,-404 -961,-655 -1573,-655l-11923 0c-611,0 -1168,251 -1572,655 -404,403 -654,960 -654,1572l0 11579c0,612 250,1168 654,1572 404,404 961,655 1572,655zm0 639l11923 0c1577,0 2867,-1290 2867,-2866l0 -11579c0,-1577 -1290,-2867 -2867,-2867l-11923 0c-1576,0 -2866,1290 -2866,2867l0 11579c0,1576 1290,2866 2866,2866z"/>
     <path class="fil25" d="M1104362 665374l-183 -48944c-29,-23200 60,-48931 4682,-71768 1180,-5829 2801,-11102 5248,-14330 -326,-223 -660,-371 -1005,-402 -71,-7 -143,-9 -214,-5 -1218,64 -2477,2007 -3515,4241 -651,1401 -1280,3027 -1884,4823 -2713,8068 -4935,19565 -6509,29564 -851,5402 -1512,10367 -1960,14117 -1707,14639 -1676,28374 -1657,43007l418 148583 68 52327 6803 0 -131 -118149 -161 -43064z"/>
     <path class="fil39" d="M1091459 599271c1203,0 2365,725 3464,2077 258,-6057 714,-12140 1512,-18385 499,-3809 1236,-8856 2184,-14346 -3169,396 -6400,2044 -9847,5150 -2033,8326 -3447,17033 -4221,25676 -308,3440 -503,7006 -621,10637 2081,-6776 4693,-10809 7529,-10809z"/>
     <path class="fil40" d="M1094923 601348c-1099,-1352 -2261,-2077 -3464,-2077 -2836,0 -5448,4033 -7529,10809 -310,9418 -113,19271 -79,28483 1821,-10384 4444,-16899 7359,-16899 1188,0 2328,1082 3384,3067 -10,-7942 -1,-15641 329,-23383z"/>
     <path class="fil41" d="M1094923 601348c-330,7742 -339,15441 -329,23383 1021,1917 1963,4676 2798,8116l-27 -7170c-9,-6716 -20,-13242 135,-19754 -807,-1915 -1670,-3458 -2577,-4575z"/>
     <path class="fil42" d="M1094594 624731c-1056,-1985 -2196,-3067 -3384,-3067 -2915,0 -5538,6515 -7359,16899 3,821 5,1637 5,2446l0 22166c1501,-10969 3719,-17908 6193,-17908 1732,0 3339,3402 4662,9208l-115 -27972c0,-592 -1,-1183 -2,-1772z"/>
     <path class="fil43" d="M1094711 654475l0 5c1241,5444 2232,13002 2844,21848l-1 -10 -162 -43471c-835,-3440 -1777,-6199 -2798,-8116l2 1772 115 27972z"/>
     <path class="fil18" d="M1102046 562169c1864,-10563 4361,-21614 7329,-28003 1038,-2234 2297,-4177 3514,-4241 1271,-67 2405,1525 3456,2779 20,-35 -3674,-7703 -6364,-6649 -1044,409 -2838,2769 -3575,3721 -3802,4911 -5167,8533 -7640,13930 -1892,4171 -4438,11201 -6716,18463l9996 0z"/>
     <path class="fil18" d="M1098345 570224c-817,4865 -1460,9305 -1910,12739 -798,6245 -1254,12328 -1512,18385 907,1117 1770,2660 2577,4575 183,-7676 598,-15332 1522,-23252 406,-3403 989,-7806 1728,-12629 76,-492 153,-989 232,-1489 -710,-50 -1420,-38 -2134,38 -3918,451 -7206,2590 -10076,5176 -131,537 -260,1076 -386,1617 3465,-2969 6744,-4634 9959,-5160l0 0z"/>
     <path class="fil44" d="M1118456 826587l8828 0 7095 0 -17 -63007c-138,-1291 -281,-2539 -135,-3324 347,-1869 1549,-2013 2705,-287 279,416 890,1909 1572,3675l0 -52422c0,0 230,-14824 359,-33953 -2900,-11431 -6335,-18046 -10018,-18046 -10377,0 -18789,52520 -18789,117307 0,17906 642,34875 1791,50057l6609 0z"/>
     <polygon class="fil45" points="1120868,830173 1120868,845296 1117838,845296 1116787,842528 1116787,847274 1122785,847274 1122785,830173 "/>
     <polygon class="fil46" points="1117838,845296 1120868,845296 1120868,830173 1117838,830173 "/>
     <path class="fil28" d="M1120281 826587l8828 0c428,-11013 673,-23778 673,-37388 0,-41530 -2278,-75196 -5087,-75196 -2809,0 -5086,33666 -5086,75196 0,13610 244,26375 672,37388z"/>
     <path class="fil47" d="M1122981 826587l3068 0c149,-6205 234,-13397 234,-21065 0,-23397 -792,-42365 -1768,-42365 -976,0 -1767,18968 -1767,42365 0,7668 85,14860 233,21065z"/>
     <path class="fil48" d="M1093371 711506c-414,-25021 -1867,-43499 -3597,-43499 -1729,0 -3181,18478 -3596,43499 415,25020 1867,43499 3596,43499 1730,0 3183,-18479 3597,-43499z"/>
     <path class="fil49" d="M1091481 711506c-196,-12545 -886,-21810 -1707,-21810 -820,0 -1510,9265 -1707,21810 197,12545 887,21811 1707,21811 821,0 1511,-9266 1707,-21811z"/>
     <path class="fil50" d="M1102046 562169c1864,-10563 4361,-21614 7329,-28003 1038,-2234 2297,-4177 3514,-4241 1271,-67 2405,1525 3456,2779 6,-10 -333,-730 -883,-1696 -1293,-1344 -2740,-2357 -3842,-1791 -998,512 -2547,3040 -3185,4061 -3289,5268 -4284,9009 -6202,14627 -1148,3401 -2519,8590 -3798,14264l3611 0z"/>
     <path class="fil51" d="M1098848 568591c714,-76 1424,-88 2134,-38 1574,-9999 3796,-21496 6509,-29564 -638,650 -1391,1423 -2224,2289 -2609,7165 -4792,17635 -6419,27313z"/>
     <path class="fil52" d="M1086466 569207c-279,2000 -412,3793 -475,5126 -25,547 42,1402 404,1490 128,32 808,-582 1655,-1387 242,-230 483,-453 722,-669 3530,-3180 6834,-4833 10076,-5176 1627,-9678 3810,-20148 6419,-27313 -2974,3089 -5961,6267 -8798,9546 -5500,6359 -8781,9591 -10003,18383z"/>
     <path class="fil53" d="M1107005 540488c158,-504 318,-997 480,-1478 -639,650 -1392,1423 -2225,2288 -2974,3090 -5961,6268 -8797,9546 -5501,6360 -8782,9592 -10004,18384 -278,2000 -412,3793 -474,5126 -18,390 10,935 159,1248 91,-1248 231,-2696 447,-4254 1406,-10111 5179,-13827 11505,-21140 2877,-3327 5890,-6564 8909,-9720z"/>
     <polygon class="fil45" points="1132083,830173 1101418,830173 1101418,826587 1132083,826587 "/>
     <polygon class="fil46" points="1129102,830173 1110730,830173 1110730,826587 1129102,826587 "/>
     <polygon class="fil54" points="1126547,830173 1118456,830173 1118456,826587 1126547,826587 "/>
     <path class="fil21" d="M1084595 712644l442 -56545c-430,2107 -826,4479 -1181,7076l0 59569c-34,6997 -199,12436 -441,16894 778,-11653 1112,-18341 1180,-26994z"/>
     <path class="fil55" d="M1083856 663175c355,-2597 751,-4969 1181,-7076l101 -12918c0,-3428 -32,-6960 -59,-10540 -440,1793 -851,3775 -1228,5922 3,821 5,1637 5,2446l0 22166z"/>
     <path class="fil56" d="M1083851 638563c377,-2147 788,-4129 1228,-5922 -68,-8996 -110,-18290 444,-26966 -559,1297 -1092,2771 -1593,4405 -310,9418 -113,19271 -79,28483z"/>
     <path class="fil57" d="M1083930 610080c501,-1634 1034,-3108 1593,-4405 88,-1371 190,-2725 310,-4061 846,-9449 2458,-18976 4806,-27996 -743,527 -1493,1115 -2253,1766 -1827,7833 -3111,15974 -3835,24059 -308,3440 -503,7006 -621,10637z"/>
     <path class="fil58" d="M1098244 548805c808,-2188 1669,-4371 2578,-6461 3335,-7668 7727,-14020 10229,-15000 1137,-446 2493,826 3677,2446 -1315,-2055 -3197,-4342 -4747,-3735 -1044,409 -2838,2769 -3575,3721 -3802,4911 -5167,8533 -7640,13930 -963,2124 -2096,4988 -3277,8246 319,-366 646,-741 980,-1128 586,-678 1178,-1350 1775,-2019z"/>
     <path class="fil28" d="M1157910 829750l-1947 0c-391,5462 -589,11212 -417,16815l110 1363 1081 0 0 2492 1472 0c0,0 0,-11977 -125,-18233 -47,-813 -104,-1625 -174,-2437z"/>
     <path class="fil59" d="M1157910 829750l-1173 0 0 18178 0 2492 1472 0c0,0 0,-11977 -125,-18233 -47,-813 -104,-1625 -174,-2437z"/>
     <path class="fil60" d="M1097783 774250c-944,-414 -1803,-892 -2586,-1423 -9,-6 -18,-12 -27,-18l0 53778 2729 0 -116 -52337z"/>
     <polygon class="fil61" points="1052630,850420 1052630,840153 1052630,829886 1052630,826892 1051125,826892 1051125,832955 1051125,840153 1051125,850420 "/>
     <path class="fil53" d="M1083401 826587l0 -64004c-116,79 -227,172 -334,281l0 62832 0 891 334 0z"/>
     <polygon class="fil30" points="1083067,761751 1083067,762864 1058057,812755 "/>
     <path class="fil62" d="M1083478 761998c237,-517 555,-1246 903,-2128 1061,-2694 2392,-6821 2483,-10750 -593,4396 -784,6486 -3797,12631l0 572 0 541c0,0 97,-192 261,-541 46,-97 96,-205 150,-325z"/>
     <path class="fil63" d="M1086833 763027c914,601 1754,1455 2320,2263 4,5 8,11 12,17 206,295 375,583 497,850 -1,0 -1,-1 -1,-1 -111,-284 -218,-573 -320,-866 -1919,-5509 -2249,-12536 -2477,-16170 -47,2034 -427,4121 -929,6035l0 4715 0 2128 0 325 0 212c303,132 604,298 898,492z"/>
     <path class="fil47" d="M1123155 637602l0 11579c0,821 -349,1563 -907,2087 303,-113 575,-290 800,-515 404,-404 654,-960 654,-1572l0 -11579c0,-612 -250,-1169 -654,-1572 -225,-225 -497,-402 -800,-515 558,524 907,1266 907,2087z"/>
     <path class="fil41" d="M1106686 649181l0 -11579c0,-698 253,-1341 672,-1839 -115,79 -223,168 -321,267 -404,403 -655,960 -655,1572l0 11579c0,612 251,1168 655,1572 98,99 206,188 321,267 -419,-498 -672,-1140 -672,-1839z"/>
     <polygon class="fil20" points="1056419,816097 1051125,826892 1052630,826892 1052630,827781 1053662,827781 1053907,827281 1056419,822160 "/>
     <polygon class="fil31" points="1052630,829886 1056419,822160 1056419,819129 1052630,826892 "/>
     <path class="fil64" d="M1110869 561983c92,-5084 770,-19702 5412,-28723 -165,-133 -301,-232 -405,-302 -6087,9958 -6523,29025 -6523,29025l1516 0z"/>
     <path class="fil64" d="M1128795 561412l-15376 0c-5,201 -10,392 -14,571l15523 0c-30,-163 -111,-450 -133,-571z"/>
     <path class="fil65" d="M1110881 561412l-318 0 -1191 0c-6,373 -19,571 -19,571l1204 0 312 0 2536 0c4,-179 9,-389 28,-571l-2552 0z"/>
     <path class="fil47" d="M1123771 543270c-309,150 -584,360 -811,614 577,1357 1159,2820 1727,4336 74,7 148,10 224,10 333,0 651,-62 944,-176 -678,-1660 -1383,-3281 -2084,-4784z"/>
     <path class="fil44" d="M1122960 543884c227,-254 502,-464 811,-614 -347,-747 -693,-1464 -1034,-2142 -279,135 -543,295 -789,477 333,715 672,1478 1012,2279z"/>
     <path class="fil44" d="M1125855 548054c-293,114 -611,176 -944,176 -76,0 -150,-3 -224,-10 289,771 574,1556 853,2349 415,-53 815,-156 1191,-304 -285,-740 -577,-1479 -876,-2211z"/>
     <path class="fil67" d="M1121948 541605c246,-182 510,-342 789,-477 -257,-509 -510,-997 -758,-1458 -262,129 -514,275 -755,436 237,471 479,972 724,1499z"/>
     <path class="fil67" d="M1126731 550265c-376,148 -776,251 -1191,304 184,523 366,1050 545,1578 424,-76 834,-192 1226,-344 -189,-512 -382,-1025 -580,-1538z"/>
    </g>
   </g>
   <g>
    <g>
     <path class="fil69" d="M1893076 738288c29617,0 53626,-1438 53626,-3212 0,-1773 -24009,-3211 -53626,-3211 -29617,0 -53626,1438 -53626,3211 0,1774 24009,3212 53626,3212z"/>
     <g>
      <path class="fil18" d="M1866376 725825l0 -23908c-856,-2181 -800,-4677 -893,-6163 -231,1706 -305,2518 -1474,4903l0 222 1113 0 0 24946 -1113 0 0 1112 2367 0 0 -1112z"/>
      <path class="fil19" d="M1853664 734053l0 -12300 10345 -21096 0 24822 -10345 8574zm-1470 -6947l495 -1012 975 -1987 0 -2354 -2055 4190 0 2354 585 -1191z"/>
      <path class="fil20" d="M1853664 734053c0,602 -12,828 -110,933 -97,105 -276,91 -865,91l0 -8983 975 -1987 0 9946z"/>
      <polygon class="fil21" points="1852194,727106 1852194,735077 1852689,735077 1852689,726094 "/>
      <path class="fil22" d="M1864315 653788l0 31728c-19,3872 -141,6516 -306,8578 -282,3497 -948,5601 -3327,11231 -2386,5646 -5525,13085 -6528,15429l9855 -20097c1169,-2385 1243,-3197 1474,-4903 157,2507 -77,8010 4324,9898l-248 -57816c-7,-5680 -20,-11012 643,-16694 567,-4749 2017,-14520 4019,-18829 403,-867 892,-1620 1364,-1646 493,-25 934,592 1341,1079 8,-13 -1426,-2990 -2470,-2581 -405,159 -1102,1075 -1388,1444 -1475,1907 -2005,3313 -2965,5408 -914,2014 -2221,5745 -3230,9231 -1143,3946 -1912,8195 -2288,12405 -457,5108 -270,10932 -270,16135z"/>
      <polygon class="fil23" points="1884520,727217 1866376,727217 1866376,725825 1884520,725825 "/>
      <path class="fil24" d="M1876863 611656c-2476,3808 -2651,11456 -2651,11456l8137 0c-432,-2481 -2367,-7319 -3676,-9429 -941,-1516 -1672,-1954 -1810,-2027z"/>
      <path class="fil25" d="M1878558 614123c1107,1991 2592,6090 3253,8989l538 0c-432,-2481 -2367,-7319 -3676,-9429 -941,-1516 -1672,-1954 -1810,-2027 -40,62 -79,125 -119,189 247,167 961,744 1814,2278z"/>
      <path class="fil26" d="M1869630 666835l63 16704 0 13 82 21980c-18,-6 -36,-12 -54,-19l26 20312 14773 0 1008 0 0 -44782c0,0 98,-6292 146,-14208 63,-10350 41,-23477 -394,-28944 -768,-9648 -2931,-14779 -2931,-14779l-538 0 -7599 0c0,0 169,-7402 2532,-11267 38,-61 76,-121 114,-181 -388,-471 -807,-1021 -1273,-997 -472,26 -961,779 -1364,1646 -253,544 -497,1176 -731,1873 -1054,3132 -1916,7595 -2527,11476 -330,2097 -587,4024 -761,5480 -663,5682 -650,11014 -643,16694l71 18999z"/>
      <path class="fil18" d="M1884912 628093c-42,-517 -116,-1211 -250,-1983 -492,-2849 -1497,-4160 -3116,-5924 375,1105 665,2135 803,2926 0,0 682,1618 1417,4746 19,17 40,34 60,51l288 250c339,302 611,531 660,517 139,-39 155,-371 138,-583z"/>
      <polygon class="fil25" points="1864009,700753 1865122,700753 1865122,725825 1864009,725825 "/>
      <path class="fil27" d="M1866376 701917l0 23908 3371 0 -26 -20312 54 19c-1793,-769 -2811,-2117 -3399,-3615z"/>
      <polygon class="fil23" points="1877506,733087 1877506,727217 1875277,727217 1877098,732013 "/>
      <path class="fil28" d="M1892102 723233l-595 7791 437 0 832 1682 295 2371 1858 0 0 -8470c-2660,-7419 -5364,-15052 -8346,-22420 -277,-685 -1389,-3810 -1665,-4221 -227,-340 -470,-496 -672,-473 -197,23 -432,210 -421,574l95 3154 1384 2169 6798 17843z"/>
      <path class="fil20" d="M1893061 727053c-91,-1068 -238,-2130 -468,-3184 -110,1015 -209,2085 -287,3184l755 0z"/>
      <path class="fil29" d="M1885528 705307c-639,-1573 -1608,-5018 -1608,-3940l6 24457c198,105 516,241 674,386 970,890 2181,2115 3349,3334 2195,2292 4237,4565 4237,4565 170,-326 171,-5979 238,-6914 78,-1100 59,-2311 169,-3326 -4,-19 -8,-37 -12,-55 -50,-227 -107,-471 -172,-734 -443,-1813 -4306,-11438 -6881,-17773z"/>
      <path class="fil30" d="M1865122 725825l-1113 0 0 286 1461 0 0 -24959 0 -1225 -1115 0c-103,227 -218,469 -346,730l0 222 0 210c102,-104 215,-172 335,-210 170,-53 353,-48 541,0 78,20 158,48 237,82l0 24864z"/>
      <path class="fil31" d="M1866569 702367c-856,-2180 -993,-5127 -1086,-6613 -231,1706 -305,2518 -1474,4903l0 432c776,-789 2197,485 2560,1278z"/>
      <path class="fil70" d="M1881811 623112c767,2442 1764,6363 2386,11681 636,5448 1142,18565 1461,28911 9,308 19,614 28,917 46,-9939 -1,-21647 -406,-26730 -336,-4230 -941,-7591 -1514,-10033 -735,-3128 -1417,-4746 -1417,-4746l-538 0z"/>
      <path class="fil33" d="M1875046 647069l-1368 0 0 1008 1368 0 0 -1008zm9877 0l-523 0 0 1008 523 0 0 -1008zm-1362 0c-230,0 -461,0 -692,0 0,336 0,672 0,1008 231,0 462,0 692,0 0,-336 0,-672 0,-1008zm-1622 0c-287,0 -574,0 -862,0 0,336 0,672 0,1008 288,0 575,0 862,0 0,-336 0,-672 0,-1008zm-2098 0c-343,0 -686,0 -1030,0 0,336 0,672 0,1008 344,0 687,0 1030,0 0,-336 0,-672 0,-1008zm-2358 0c-400,0 -799,0 -1199,0 0,336 0,672 0,1008 400,0 799,0 1199,0 0,-336 0,-672 0,-1008zm7440 -4284l-523 0 0 1008 523 0 0 -1008zm-1332 0c-230,0 -461,0 -692,0 0,336 0,672 0,1008 231,0 462,0 692,0 0,-336 0,-672 0,-1008zm-1668 0c-287,0 -574,0 -861,0 0,336 0,672 0,1008 287,0 574,0 861,0 0,-336 0,-672 0,-1008zm-2076 0c-343,0 -686,0 -1030,0 0,336 0,672 0,1008 344,0 687,0 1030,0 0,-336 0,-672 0,-1008zm-2351 0c-400,0 -800,0 -1199,0 0,336 0,672 0,1008 399,0 799,0 1199,0 0,-336 0,-672 0,-1008zm7130 -4296l-523 0 0 1008 523 0 0 -1008zm-1052 0c-231,0 -462,0 -693,0 0,336 0,672 0,1008 231,0 462,0 693,0 0,-336 0,-672 0,-1008zm-1752 0c-287,0 -574,0 -861,0 0,336 0,672 0,1008 287,0 574,0 861,0 0,-336 0,-672 0,-1008zm-2058 0c-344,0 -687,0 -1030,0 0,336 0,672 0,1008 343,0 686,0 1030,0 0,-336 0,-672 0,-1008zm-2268 0c-400,0 -800,0 -1200,0 0,336 0,672 0,1008 400,0 800,0 1200,0 0,-336 0,-672 0,-1008zm-557 -12720c-350,0 -701,0 -1051,0 0,335 0,672 0,1007 350,0 701,0 1051,0 0,-335 0,-672 0,-1007zm5782 0l-479 0 0 1007 479 0 0 -1007zm-977 0c-244,0 -489,0 -734,0 0,335 0,672 0,1007 245,0 490,0 734,0 0,-335 0,-672 0,-1007zm-1396 0c-298,0 -595,0 -893,0 0,335 0,672 0,1007 298,0 595,0 893,0 0,-335 0,-672 0,-1007zm-1627 0c-351,0 -701,0 -1051,0 0,335 0,672 0,1007 350,0 700,0 1051,0 0,-335 0,-672 0,-1007zm4881 4175l-485 0 0 1008 485 0 0 -1008zm-1004 0c-221,0 -442,0 -663,0 0,336 0,673 0,1008 221,0 442,0 663,0 0,-335 0,-672 0,-1008zm-1515 0c-280,0 -559,0 -839,0 0,336 0,673 0,1008 280,0 559,0 839,0 0,-335 0,-672 0,-1008zm-1729 0c-338,0 -676,0 -1015,0 0,336 0,673 0,1008 339,0 677,0 1015,0 0,-335 0,-672 0,-1008zm-2160 0c-397,0 -794,0 -1192,0 0,336 0,673 0,1008 398,0 795,0 1192,0 0,-335 0,-672 0,-1008zm7092 4297l-523 0 0 1008 523 0 0 -1008zm-1120 0c-245,0 -490,0 -735,0 0,336 0,672 0,1008 245,0 490,0 735,0 0,-336 0,-672 0,-1008zm-1707 0c-297,0 -595,0 -892,0 0,336 0,672 0,1008 297,0 595,0 892,0 0,-336 0,-672 0,-1008zm-1867 0c-350,0 -701,0 -1051,0 0,336 0,672 0,1008 350,0 701,0 1051,0 0,-336 0,-672 0,-1008zm-2231 0c-403,0 -806,0 -1209,0 0,336 0,672 0,1008 403,0 806,0 1209,0 0,-336 0,-672 0,-1008zm-2176 -8472l-1368 0 0 1007 1368 0 0 -1007zm-118 4175l-1368 0 0 1008 1368 0 0 -1008zm-135 4297l-1368 0 0 1008 1368 0 0 -1008zm42 4248l-1368 0 0 1008 1368 0 0 -1008zm72 4296l-1368 0 0 1008 1368 0 0 -1008z"/>
      <path class="fil34" d="M1869198 631256c-735,5752 -722,11150 -714,16901l233 56800c319,216 670,409 1058,575l-216 -57696c-7,-5680 -20,-11012 643,-16694 174,-1456 431,-3383 761,-5480 -276,-19 -551,-15 -828,15 -30,3 -60,6 -89,10 -368,2131 -655,4090 -848,5569z"/>
      <path class="fil35" d="M1873490 614186c234,-697 478,-1329 731,-1873 403,-867 892,-1620 1364,-1645 28,-2 56,-1 84,1 -161,-95 -326,-151 -498,-143 -524,26 -1067,789 -1514,1667 -429,844 -836,1894 -1217,3075 62,-65 124,-129 186,-194 324,-336 616,-636 864,-888z"/>
      <path class="fil36" d="M1875785 623112c66,-1439 415,-6663 2081,-10086 -532,-735 -946,-1062 -1122,-1181 -2363,3865 -2532,11267 -2532,11267l1573 0z"/>
      <path class="fil37" d="M1878832 651089l-4992 0c-660,0 -1200,539 -1200,1200l0 4848c0,660 540,1200 1200,1200l4992 0c661,0 1200,-540 1200,-1200l0 -4848c0,-661 -539,-1200 -1200,-1200z"/>
      <path class="fil38" d="M1874290 657824l4628 0c238,0 454,-97 610,-254 157,-157 254,-373 254,-610l0 -4495c0,-237 -97,-453 -254,-610 -156,-157 -372,-254 -610,-254l-4628 0c-238,0 -454,97 -610,254 -157,157 -254,373 -254,610l0 4495c0,237 97,453 254,610 156,157 372,254 610,254zm0 248l4628 0c612,0 1113,-500 1113,-1112l0 -4495c0,-612 -501,-1112 -1113,-1112l-4628 0c-612,0 -1113,500 -1113,1112l0 4495c0,612 501,1112 1113,1112z"/>
      <path class="fil25" d="M1872275 663246l-71 -19000c-11,-9005 23,-18993 1818,-27858 458,-2263 1087,-4310 2037,-5562 -127,-87 -257,-145 -390,-157 -28,-2 -56,-3 -84,-1 -472,25 -961,778 -1364,1645 -253,544 -497,1176 -731,1873 -1054,3132 -1916,7595 -2527,11476 -330,2097 -587,4024 -761,5480 -663,5682 -650,11014 -643,16694l162 57677 26 20312 2641 0 -51 -45863 -62 -16716z"/>
      <path class="fil39" d="M1867266 637586c467,0 918,281 1345,807 100,-2352 277,-4713 587,-7137 193,-1479 480,-3438 848,-5569 -1230,153 -2485,793 -3823,1999 -789,3232 -1338,6612 -1638,9967 -120,1335 -195,2719 -242,4129 809,-2631 1822,-4196 2923,-4196z"/>
      <path class="fil40" d="M1868611 638393c-427,-526 -878,-807 -1345,-807 -1101,0 -2114,1565 -2923,4196 -119,3656 -43,7480 -30,11056 707,-4031 1725,-6560 2857,-6560 461,0 903,420 1313,1191 -3,-3083 0,-6071 128,-9076z"/>
      <path class="fil41" d="M1868611 638393c-128,3005 -131,5993 -128,9076 397,744 762,1815 1086,3151l-10 -2784c-3,-2606 -8,-5140 52,-7667 -313,-744 -648,-1343 -1000,-1776z"/>
      <path class="fil42" d="M1868483 647469c-410,-771 -852,-1191 -1313,-1191 -1132,0 -2150,2529 -2857,6560 1,319 2,636 2,950l0 8604c583,-4258 1444,-6951 2404,-6951 672,0 1296,1320 1810,3574l-45 -10858c0,-230 -1,-459 -1,-688z"/>
      <path class="fil43" d="M1868529 659015l0 2c481,2113 866,5047 1103,8481l0 -4 -63 -16874c-324,-1336 -689,-2407 -1086,-3151l1 688 45 10858z"/>
      <path class="fil18" d="M1871376 623184c723,-4101 1693,-8390 2845,-10871 403,-867 892,-1620 1364,-1645 493,-26 934,591 1341,1078 8,-13 -1426,-2990 -2470,-2581 -405,159 -1102,1075 -1388,1444 -1475,1907 -2005,3313 -2965,5408 -735,1619 -1723,4348 -2607,7167l3880 0z"/>
      <path class="fil18" d="M1869939 626311c-317,1888 -567,3611 -741,4945 -310,2424 -487,4785 -587,7137 352,433 687,1032 1000,1776 72,-2980 232,-5952 591,-9027 158,-1321 384,-3030 671,-4902 29,-191 59,-384 90,-578 -276,-19 -551,-15 -828,15 -1522,175 -2798,1005 -3912,2009 -51,208 -101,418 -149,628 1345,-1153 2617,-1799 3865,-2003l0 0z"/>
      <path class="fil44" d="M1877746 725825l3427 0 2754 0 -7 -24458c-53,-501 -109,-986 -52,-1290 135,-725 601,-782 1050,-112 108,162 345,741 610,1427l0 -20349c0,0 89,-5754 139,-13180 -1125,-4437 -2459,-7005 -3888,-7005 -4028,0 -7294,20387 -7294,45536 0,6950 250,13537 696,19431l2565 0z"/>
      <polygon class="fil45" points="1878682,727217 1878682,733087 1877506,733087 1877098,732013 1877098,733855 1879426,733855 1879426,727217 "/>
      <polygon class="fil46" points="1877506,733087 1878682,733087 1878682,727217 1877506,727217 "/>
      <path class="fil28" d="M1878454 725825l3427 0c167,-4275 262,-9230 262,-14513 0,-16121 -885,-29190 -1975,-29190 -1090,0 -1975,13069 -1975,29190 0,5283 95,10238 261,14513z"/>
      <path class="fil47" d="M1879503 725825l1190 0c58,-2408 91,-5200 91,-8177 0,-9082 -307,-16445 -686,-16445 -379,0 -686,7363 -686,16445 0,2977 33,5769 91,8177z"/>
      <path class="fil48" d="M1868008 681153c-160,-9712 -725,-16885 -1395,-16885 -672,0 -1236,7173 -1396,16885 160,9712 724,16886 1396,16886 670,0 1235,-7174 1395,-16886z"/>
      <path class="fil49" d="M1867275 681153c-76,-4870 -344,-8466 -663,-8466 -318,0 -586,3596 -662,8466 76,4870 344,8466 662,8466 319,0 587,-3596 663,-8466z"/>
      <path class="fil50" d="M1871376 623184c723,-4101 1693,-8390 2845,-10871 403,-867 892,-1620 1364,-1645 493,-26 934,591 1341,1078 3,-4 -129,-283 -342,-658 -502,-522 -1064,-915 -1492,-695 -387,198 -988,1179 -1236,1576 -1277,2045 -1663,3497 -2408,5678 -445,1320 -977,3334 -1474,5537l1402 0z"/>
      <path class="fil51" d="M1870135 625677c277,-30 552,-34 828,-15 611,-3881 1473,-8344 2527,-11476 -248,252 -540,552 -864,888 -1013,2782 -1860,6846 -2491,10603z"/>
      <path class="fil52" d="M1865328 625916c-108,776 -160,1472 -184,1990 -10,212 16,544 157,578 49,12 313,-226 642,-538 94,-90 187,-176 280,-260 1371,-1235 2653,-1876 3912,-2009 631,-3757 1478,-7821 2491,-10603 -1154,1200 -2314,2433 -3415,3706 -2135,2468 -3409,3723 -3883,7136z"/>
      <path class="fil53" d="M1873301 614768c61,-196 123,-387 186,-574 -248,252 -540,552 -863,888 -1155,1199 -2315,2433 -3415,3706 -2136,2469 -3409,3723 -3884,7136 -108,776 -160,1472 -184,1990 -7,151 4,363 62,484 35,-484 90,-1046 174,-1651 545,-3925 2010,-5367 4466,-8206 1116,-1291 2286,-2548 3458,-3773z"/>
      <polygon class="fil45" points="1883036,727217 1871132,727217 1871132,725825 1883036,725825 "/>
      <polygon class="fil46" points="1881879,727217 1874747,727217 1874747,725825 1881879,725825 "/>
      <polygon class="fil54" points="1880887,727217 1877746,727217 1877746,725825 1880887,725825 "/>
      <path class="fil21" d="M1864602 681595l172 -21950c-167,818 -321,1739 -459,2747l0 23124c-13,2715 -77,4827 -171,6557 302,-4523 432,-7119 458,-10478z"/>
      <path class="fil55" d="M1864315 662392c138,-1008 292,-1929 459,-2747l39 -5014c0,-1331 -13,-2702 -23,-4091 -171,695 -331,1465 -477,2298 1,319 2,636 2,950l0 8604z"/>
      <path class="fil56" d="M1864313 652838c146,-833 306,-1603 477,-2298 -27,-3493 -43,-7100 172,-10468 -217,503 -424,1076 -619,1710 -119,3656 -43,7480 -30,11056z"/>
      <path class="fil57" d="M1864343 641782c195,-634 402,-1207 619,-1710 34,-532 74,-1058 120,-1576 329,-3668 955,-7366 1866,-10868 -288,205 -579,433 -874,686 -709,3040 -1208,6200 -1489,9339 -120,1335 -195,2719 -242,4129z"/>
      <path class="fil58" d="M1869900 617996c313,-849 648,-1697 1001,-2508 1294,-2976 2999,-5442 3970,-5822 442,-173 968,321 1427,949 -509,-798 -1240,-1685 -1842,-1450 -405,159 -1102,1075 -1388,1444 -1475,1907 -2005,3313 -2965,5408 -374,824 -814,1936 -1272,3201 123,-142 250,-288 380,-438 228,-263 458,-524 689,-784z"/>
      <path class="fil28" d="M1893061 727053l-755 0c-152,2120 -229,4352 -162,6527l42 529 420 0 0 968 571 0c0,0 0,-4650 -48,-7078 -18,-316 -41,-631 -68,-946z"/>
      <path class="fil59" d="M1893061 727053l-455 0 0 7056 0 968 571 0c0,0 0,-4650 -48,-7078 -18,-316 -41,-631 -68,-946z"/>
      <path class="fil60" d="M1869721 705509c-366,-161 -700,-346 -1004,-552 -3,-3 -7,-5 -10,-7l0 20875 1059 0 -45 -20316z"/>
      <polygon class="fil61" points="1852194,735077 1852194,731091 1852194,727106 1852194,725943 1851609,725943 1851609,728297 1851609,731091 1851609,735077 "/>
      <path class="fil53" d="M1864138 725825l0 -24845c-45,31 -88,67 -129,109l0 24390 0 346 129 0z"/>
      <polygon class="fil30" points="1864009,700657 1864009,701089 1854300,720456 "/>
      <path class="fil62" d="M1864169 700753c91,-201 215,-483 350,-826 412,-1046 928,-2648 964,-4173 -231,1706 -305,2518 -1474,4903l0 222 0 210c0,0 37,-74 101,-210 18,-37 37,-79 59,-126z"/>
      <path class="fil63" d="M1865470 701152c355,234 682,565 901,879 2,2 3,4 5,6 80,115 145,227 193,330 0,0 0,0 0,0 -44,-110 -85,-223 -125,-336 -745,-2138 -873,-4866 -961,-6277 -19,790 -166,1600 -361,2343l0 1830 0 826 0 126 0 82c117,52 235,116 348,191z"/>
      <path class="fil47" d="M1879570 652465l0 4495c0,318 -135,607 -352,810 117,-44 223,-113 310,-200 157,-157 254,-373 254,-610l0 -4495c0,-237 -97,-453 -254,-610 -87,-87 -193,-156 -310,-200 217,203 352,492 352,810z"/>
      <path class="fil41" d="M1873177 656960l0 -4495c0,-271 99,-520 261,-714 -45,31 -86,66 -125,104 -157,157 -254,373 -254,610l0 4495c0,237 97,453 254,610 39,39 80,73 125,104 -162,-194 -261,-443 -261,-714z"/>
      <polygon class="fil20" points="1853664,721753 1851609,725943 1852194,725943 1852194,726289 1852594,726289 1852689,726094 1853664,724107 "/>
      <polygon class="fil31" points="1852194,727106 1853664,724107 1853664,722930 1852194,725943 "/>
      <path class="fil64" d="M1874801 623112c36,-1974 299,-7648 2101,-11150 -64,-52 -117,-90 -158,-117 -2363,3865 -2532,11267 -2532,11267l589 0z"/>
      <path class="fil64" d="M1881759 622890l-5968 0c-2,78 -4,152 -6,222l6026 0c-11,-64 -43,-175 -52,-222z"/>
      <path class="fil65" d="M1874806 622890l-124 0 -462 0c-3,145 -8,222 -8,222l468 0 121 0 984 0c2,-70 4,-151 11,-222l-990 0z"/>
      <path class="fil47" d="M1879809 615848c-120,58 -227,139 -315,238 224,527 450,1094 671,1683 28,3 57,4 87,4 129,0 252,-24 366,-68 -263,-645 -537,-1274 -809,-1857z"/>
      <path class="fil44" d="M1879494 616086c88,-99 195,-180 315,-238 -135,-290 -269,-568 -402,-832 -107,53 -210,115 -305,185 129,278 260,574 392,885z"/>
      <path class="fil44" d="M1880618 617705c-114,44 -237,68 -366,68 -30,0 -59,-1 -87,-4 112,300 222,604 331,912 161,-20 316,-61 462,-118 -110,-287 -224,-574 -340,-858z"/>
      <path class="fil67" d="M1879102 615201c95,-70 198,-132 305,-185 -99,-197 -197,-387 -294,-566 -101,50 -199,107 -293,170 93,182 186,377 282,581z"/>
      <path class="fil67" d="M1880958 618563c-146,57 -301,98 -462,118 71,203 142,408 211,612 165,-29 324,-74 476,-133 -73,-199 -148,-398 -225,-597z"/>
     </g>
    </g>
    <path class="fil71" d="M1551353 713848c125875,0 227917,8208 227917,18333 0,10125 -102042,18333 -227917,18333 -125875,0 -227917,-8208 -227917,-18333 0,-10125 102042,-18333 227917,-18333z"/>
    <path class="fil68" d="M1625103 746019c125875,0 227917,8207 227917,18333 0,10125 -102042,18333 -227917,18333 -125875,0 -227917,-8208 -227917,-18333 0,-10126 102042,-18333 227917,-18333z"/>
    <path class="fil69" d="M1525933 721784c87473,0 158384,2673 158384,5970 0,3297 -70911,5969 -158384,5969 -87473,0 -158384,-2672 -158384,-5969 0,-3297 70911,-5970 158384,-5970z"/>
    <path class="fil69" d="M1631630 756656c83896,0 151906,3359 151906,7502 0,4144 -68010,7503 -151906,7503 -83895,0 -151906,-3359 -151906,-7503 0,-4143 68011,-7502 151906,-7502z"/>
    <g>
     <path class="fil72" d="M1705396 747498c-1326,0 -2399,990 -2399,2213 0,1223 1073,2213 2399,2213 1325,0 2398,-990 2398,-2213 0,-1223 -1073,-2213 -2398,-2213z"/>
     <polygon class="fil73" points="1712741,774560 1660855,774560 1653246,767769 1705133,767769 "/>
     <polygon class="fil73" points="1768306,774560 1716420,774560 1708811,767769 1760698,767769 "/>
     <polygon class="fil74" points="1716959,783741 1665072,783741 1657465,776950 1709351,776950 "/>
     <polygon class="fil74" points="1772524,783741 1720638,783741 1713030,776950 1764917,776950 "/>
     <polygon class="fil75" points="1788507,762476 1539609,762476 1539609,759341 1788507,759341 "/>
     <path class="fil74" d="M1642537 748111c0,0 202,-21317 -22616,-21317 -22817,0 -22615,21317 -22615,21317l0 1216 45231 0 0 -1216z"/>
     <polygon class="fil76" points="1597306,749326 1597306,759340 1619922,759340 1642538,759340 1642538,749326 "/>
     <path class="fil74" d="M1605457 754632c0,-1085 -954,-1965 -2130,-1965 -1179,0 -2133,880 -2133,1965 0,1085 954,1965 2133,1965 1176,0 2130,-880 2130,-1965z"/>
     <path class="fil74" d="M1616521 754632c0,-1085 -954,-1965 -2130,-1965 -1179,0 -2132,880 -2132,1965 0,1085 953,1965 2132,1965 1176,0 2130,-880 2130,-1965z"/>
     <path class="fil74" d="M1627585 754632c0,-1085 -954,-1965 -2130,-1965 -1179,0 -2133,880 -2133,1965 0,1085 954,1965 2133,1965 1176,0 2130,-880 2130,-1965z"/>
     <path class="fil74" d="M1638649 754632c0,-1085 -955,-1965 -2130,-1965 -1179,0 -2133,880 -2133,1965 0,1085 954,1965 2133,1965 1175,0 2130,-880 2130,-1965z"/>
     <path class="fil74" d="M1591827 748111c0,0 202,-21317 -22616,-21317 -22817,0 -22616,21317 -22616,21317l0 1216 45232 0 0 -1216z"/>
     <polygon class="fil76" points="1546596,749326 1546596,759340 1569212,759340 1591828,759340 1591828,749326 "/>
     <path class="fil74" d="M1554746 754632c0,-1085 -953,-1965 -2129,-1965 -1179,0 -2133,880 -2133,1965 0,1085 954,1965 2133,1965 1176,0 2129,-880 2129,-1965z"/>
     <path class="fil74" d="M1565811 754632c0,-1085 -955,-1965 -2130,-1965 -1179,0 -2133,880 -2133,1965 0,1085 954,1965 2133,1965 1175,0 2130,-880 2130,-1965z"/>
     <path class="fil74" d="M1576874 754632c0,-1085 -954,-1965 -2130,-1965 -1178,0 -2133,880 -2133,1965 0,1085 955,1965 2133,1965 1176,0 2130,-880 2130,-1965z"/>
     <path class="fil74" d="M1587938 754632c0,-1085 -953,-1965 -2130,-1965 -1178,0 -2132,880 -2132,1965 0,1085 954,1965 2132,1965 1177,0 2130,-880 2130,-1965z"/>
     <path class="fil74" d="M1761876 697434l0 0c-10848,0 -19642,8112 -19642,18121l0 43784 39285 0 0 -43784c0,-10009 -8794,-18121 -19643,-18121z"/>
     <polygon class="fil77" points="1781520,730150 1742234,730150 1742234,725841 1781520,725841 "/>
     <polygon class="fil77" points="1781520,742369 1742234,742369 1742234,738059 1781520,738059 "/>
     <path class="fil73" d="M1761876 745235l0 0c2493,0 4513,1864 4513,4163l0 9943 -9025 0 0 -9943c0,-2299 2020,-4163 4512,-4163z"/>
     <path class="fil73" d="M1753631 750322c0,-1912 -1681,-3461 -3752,-3461 -2073,0 -3751,1549 -3751,3461 0,1912 1678,3461 3751,3461 2071,0 3752,-1549 3752,-3461z"/>
     <path class="fil73" d="M1777626 750322c0,-1912 -1678,-3461 -3751,-3461 -2073,0 -3752,1549 -3752,3461 0,1912 1679,3461 3752,3461 2073,0 3751,-1549 3751,-3461z"/>
     <path class="fil74" d="M1731246 754314c0,0 346,-36631 -38860,-36631 -39208,0 -38861,36631 -38861,36631l0 2088 77721 0 0 -2088z"/>
     <polygon class="fil78" points="1731246,759341 1653524,759341 1653524,756402 1731246,756402 "/>
     <path class="fil73" d="M1665326 752288c0,-1085 -954,-1965 -2131,-1965 -1178,0 -2132,880 -2132,1965 0,1085 954,1965 2132,1965 1177,0 2131,-880 2131,-1965z"/>
     <path class="fil73" d="M1676784 752288c0,-1085 -953,-1965 -2130,-1965 -1178,0 -2133,880 -2133,1965 0,1085 955,1965 2133,1965 1177,0 2130,-880 2130,-1965z"/>
     <path class="fil73" d="M1688243 752288c0,-1085 -954,-1965 -2130,-1965 -1180,0 -2133,880 -2133,1965 0,1085 953,1965 2133,1965 1176,0 2130,-880 2130,-1965z"/>
     <path class="fil73" d="M1699701 752288c0,-1085 -954,-1965 -2131,-1965 -1178,0 -2131,880 -2131,1965 0,1085 953,1965 2131,1965 1177,0 2131,-880 2131,-1965z"/>
     <path class="fil73" d="M1711159 752288c0,-1085 -953,-1965 -2130,-1965 -1178,0 -2133,880 -2133,1965 0,1085 955,1965 2133,1965 1177,0 2130,-880 2130,-1965z"/>
     <path class="fil73" d="M1722618 752288c0,-1085 -954,-1965 -2130,-1965 -1179,0 -2133,880 -2133,1965 0,1085 954,1965 2133,1965 1176,0 2130,-880 2130,-1965z"/>
     <polygon class="fil75" points="1463606,735453 1411720,735453 1404111,728663 1455997,728663 "/>
     <polygon class="fil75" points="1519171,735453 1467285,735453 1459677,728663 1511563,728663 "/>
     <polygon class="fil79" points="1467824,745422 1415938,745422 1408329,738631 1460216,738631 "/>
     <polygon class="fil79" points="1523389,745422 1471504,745422 1463895,738631 1515781,738631 "/>
     <path class="fil77" d="M1574943 714998c0,0 470,-49632 -52652,-49632 -53122,0 -52652,49632 -52652,49632l0 2828 105304 0 0 -2828z"/>
     <polygon class="fil75" points="1574943,721809 1469639,721809 1469639,717828 1574943,717828 "/>
     <path class="fil80" d="M1485627 712253c0,-1470 -1294,-2663 -2887,-2663 -1596,0 -2887,1193 -2887,2663 0,1470 1291,2664 2887,2664 1593,0 2887,-1194 2887,-2664z"/>
     <path class="fil80" d="M1501152 712253c0,-1470 -1294,-2663 -2887,-2663 -1596,0 -2887,1193 -2887,2663 0,1470 1291,2664 2887,2664 1593,0 2887,-1194 2887,-2664z"/>
     <path class="fil80" d="M1516677 712253c0,-1470 -1293,-2663 -2887,-2663 -1596,0 -2887,1193 -2887,2663 0,1470 1291,2664 2887,2664 1594,0 2887,-1194 2887,-2664z"/>
     <path class="fil80" d="M1532202 712253c0,-1470 -1293,-2663 -2887,-2663 -1596,0 -2889,1193 -2889,2663 0,1470 1293,2664 2889,2664 1594,0 2887,-1194 2887,-2664z"/>
     <path class="fil80" d="M1547727 712253c0,-1470 -1293,-2663 -2887,-2663 -1596,0 -2886,1193 -2886,2663 0,1470 1290,2664 2886,2664 1594,0 2887,-1194 2887,-2664z"/>
     <path class="fil80" d="M1563252 712253c0,-1470 -1293,-2663 -2887,-2663 -1596,0 -2889,1193 -2889,2663 0,1470 1293,2664 2889,2664 1594,0 2887,-1194 2887,-2664z"/>
     <path class="fil74" d="M1662663 719419l-68361 0c-7409,0 -13472,-5593 -13472,-12428 0,-6835 6063,-12426 13472,-12426l68361 0c7409,0 13471,5591 13471,12426 0,6835 -6062,12428 -13471,12428z"/>
     <polygon class="fil75" points="1592907,722046 1664056,722046 1664056,719419 1592907,719419 "/>
     <polygon class="fil81" points="1618157,693361 1602604,693361 1602604,719420 1618157,719420 "/>
     <polygon class="fil81" points="1654359,693361 1638806,693361 1638806,719420 1654359,719420 "/>
     <polygon class="fil78" points="1630189,719419 1626917,719419 1626917,694565 1630189,694565 "/>
     <path class="fil74" d="M1450280 719419l-68361 0c-7410,0 -13472,-5593 -13472,-12428 0,-6835 6062,-12426 13472,-12426l68361 0c7409,0 13471,5591 13471,12426 0,6835 -6062,12428 -13471,12428z"/>
     <polygon class="fil81" points="1380524,722046 1451673,722046 1451673,719419 1380524,719419 "/>
     <polygon class="fil81" points="1405774,693361 1390220,693361 1390220,719420 1405774,719420 "/>
     <polygon class="fil81" points="1441976,693361 1426422,693361 1426422,719420 1441976,719420 "/>
     <polygon class="fil78" points="1417806,719419 1414533,719419 1414533,694565 1417806,694565 "/>
    </g>
   </g>
   <g>
    <path class="fil82" d="M2016896 323335c0,-18899 -11803,-35042 -28440,-41458 -22737,1944 -40584,21016 -40584,44255 0,18899 11803,35042 28440,41458 22736,-1944 40584,-21015 40584,-44255z"/>
    <path class="fil83" d="M2016896 323335c0,23240 -17848,42311 -40584,44255 4958,1912 10346,2961 15978,2961 24532,0 44419,-19887 44419,-44419 0,-24531 -19887,-44418 -44419,-44418 -1292,0 -2571,55 -3834,163 16637,6416 28440,22559 28440,41458z"/>
   </g>
   <g>
    <path class="fil82" d="M472835 457257c0,-9152 -5715,-16969 -13772,-20076 -11010,941 -19653,10177 -19653,21431 0,9152 5716,16969 13773,20076 11010,-942 19652,-10177 19652,-21431z"/>
    <path class="fil83" d="M472835 457257c0,11254 -8642,20489 -19652,21431 2401,926 5010,1434 7737,1434 11880,0 21510,-9631 21510,-21510 0,-11880 -9630,-21510 -21510,-21510 -626,0 -1245,27 -1857,79 8057,3107 13772,10924 13772,20076z"/>
   </g>
   <polygon class="fil15" points="622462,1163627 501728,1151547 479313,1098924 311362,1075923 -1,1126859 0,1163627 "/>
   <g>
    <path class="fil84" d="M156355 542077c-8624,-288 -15543,-7379 -15601,-16157l-134 0c-57,8778 -6976,15869 -15619,16157 8662,287 15619,7436 15619,16271l115 0c0,-8835 6957,-15984 15620,-16271z"/>
    <path class="fil9" d="M1271071 543883c-3330,-111 -6002,-2849 -6024,-6239l-52 0c-22,3390 -2694,6128 -6032,6239 3345,111 6032,2872 6032,6284l44 0c0,-3412 2687,-6173 6032,-6284z"/>
    <path class="fil85" d="M1737833 563414c-3514,108 -6330,2997 -6354,6559l-60 0c-25,-3562 -2829,-6451 -6343,-6559 3526,-120 6355,-3021 6355,-6619l48 0c0,3598 2828,6499 6354,6619z"/>
    <path class="fil9" d="M2078569 519011c660,-1043 2016,-1355 3024,-730 1043,661 1355,2017 730,3060 -661,1042 -2017,1390 -3025,729 -1042,-660 -1355,-2016 -729,-3059z"/>
    <path class="fil9" d="M2229054 452935c660,-1043 2016,-1355 3024,-730 1043,661 1355,2017 695,3060 -626,1042 -1982,1355 -3024,729 -1008,-660 -1321,-2016 -695,-3059z"/>
    <path class="fil9" d="M2247927 152456c660,-1043 2016,-1355 3024,-695 1043,626 1356,2017 730,3059 -660,1043 -2016,1356 -3059,696 -1008,-661 -1321,-2017 -695,-3060l0 0z"/>
    <path class="fil9" d="M2147010 433467c660,-1043 2016,-1356 3024,-695 1043,626 1356,2016 730,3059 -660,1043 -2016,1356 -3059,695 -1008,-660 -1321,-2016 -696,-3059l1 0z"/>
    <path class="fil9" d="M1833254 179355c626,1043 2016,1356 3024,695 1043,-626 1356,-2016 695,-3059 -625,-1043 -1981,-1356 -3024,-695 -1008,660 -1321,2016 -695,3059z"/>
    <path class="fil9" d="M2315304 268267c660,1043 2016,1391 3059,730 1008,-660 1321,-2016 695,-3059 -660,-1043 -2016,-1356 -3024,-695 -1043,626 -1356,2016 -730,3024l0 0z"/>
    <path class="fil9" d="M2165893 312523c661,1043 2016,1356 3024,695 1043,-661 1356,-2016 730,-3059 -660,-1043 -2016,-1356 -3059,-696 -1008,626 -1321,2017 -695,3060l0 0z"/>
    <path class="fil86" d="M2090306 334268c5805,-209 10499,-5006 10533,-10916l105 0c34,5910 4693,10707 10533,10916 -5875,174 -10568,5006 -10568,10951l-70 0c0,-5945 -4693,-10777 -10533,-10951z"/>
    <path class="fil9" d="M999531 328591c661,-1043 2016,-1356 3025,-730 1042,660 1355,2016 729,3059 -660,1043 -2016,1391 -3024,730 -1043,-661 -1356,-2017 -730,-3059z"/>
    <path class="fil9" d="M745314 535834c660,-1043 2016,-1356 3024,-730 1043,660 1356,2016 695,3059 -626,1043 -1981,1356 -3024,730 -1008,-660 -1321,-2016 -695,-3059z"/>
    <path class="fil9" d="M1280640 200498c661,-1043 2017,-1355 3025,-695 1043,626 1355,2016 730,3059 -661,1043 -2017,1356 -3060,695 -1008,-660 -1321,-2016 -695,-3059l0 0z"/>
    <path class="fil9" d="M1158558 408557c661,-1044 2016,-1356 3025,-696 1043,626 1355,2017 730,3059 -661,1043 -2017,1356 -3060,696 -1008,-660 -1321,-2016 -695,-3059l0 0z"/>
    <path class="fil9" d="M1128743 194815c626,1043 2016,1356 3024,695 1043,-625 1356,-2016 696,-3059 -626,-1043 -1982,-1356 -3025,-695 -1008,660 -1321,2016 -695,3059z"/>
    <path class="fil9" d="M1020281 507537c661,1043 2017,1391 3060,730 1008,-660 1321,-2016 695,-3059 -660,-1043 -2016,-1356 -3024,-695 -1043,626 -1356,2016 -730,3024l-1 0z"/>
    <path class="fil9" d="M345317 282572c660,1043 2016,1356 3024,695 1043,-661 1356,-2016 730,-3060 -660,-1042 -2016,-1355 -3059,-695 -1008,626 -1321,2017 -695,3060l0 0z"/>
    <path class="fil9" d="M2498390 177862c661,-1043 2016,-1356 3025,-730 1042,661 1355,2016 729,3059 -660,1043 -2016,1391 -3024,730 -1043,-660 -1356,-2016 -730,-3059z"/>
    <path class="fil9" d="M1303733 324425c660,-1043 2016,-1356 3024,-730 1043,661 1356,2016 696,3059 -626,1043 -1982,1356 -3025,730 -1008,-660 -1321,-2016 -695,-3059z"/>
    <path class="fil9" d="M1588700 93136c661,-1043 2017,-1355 3024,-695 1044,626 1356,2016 731,3059 -661,1043 -2017,1356 -3060,696 -1008,-661 -1321,-2017 -695,-3060l0 0z"/>
    <path class="fil9" d="M1819258 423695c661,-1043 2016,-1356 3025,-695 1043,626 1355,2016 730,3059 -661,1043 -2017,1356 -3060,695 -1008,-660 -1321,-2016 -695,-3059l0 0z"/>
    <path class="fil9" d="M1464159 248982c626,1043 2017,1356 3025,695 1043,-625 1356,-2016 695,-3059 -625,-1043 -1981,-1356 -3024,-695 -1008,660 -1321,2016 -696,3059z"/>
    <path class="fil9" d="M1619470 291184c660,1043 2016,1391 3059,730 1008,-660 1321,-2016 695,-3059 -660,-1043 -2016,-1356 -3024,-696 -1043,626 -1356,2017 -730,3025l0 0z"/>
    <path class="fil9" d="M1470059 335440c661,1043 2017,1356 3024,695 1043,-661 1356,-2016 730,-3059 -660,-1043 -2016,-1356 -3059,-696 -1008,626 -1321,2017 -695,3060l0 0z"/>
    <path class="fil9" d="M2546609 455994c3413,-123 6171,-2943 6191,-6416l61 0c21,3473 2759,6293 6191,6416 -3452,102 -6211,2942 -6211,6436l-41 0c0,-3494 -2758,-6334 -6191,-6436z"/>
    <path class="fil9" d="M785205 404420c661,-1042 2016,-1355 3025,-729 1042,660 1355,2016 729,3059 -660,1043 -2016,1391 -3024,730 -1043,-661 -1356,-2017 -730,-3060z"/>
    <path class="fil9" d="M885098 415021c660,-1043 2016,-1356 3024,-730 1043,661 1356,2016 695,3059 -626,1043 -1982,1356 -3024,730 -1008,-660 -1321,-2016 -695,-3059z"/>
    <path class="fil9" d="M899020 74670c660,-1043 2016,-1355 3024,-695 1043,626 1356,2016 730,3059 -660,1043 -2016,1356 -3059,696 -1008,-661 -1321,-2017 -695,-3060l0 0z"/>
    <path class="fil9" d="M581142 237691c660,-1043 2016,-1356 3025,-695 1042,625 1355,2016 729,3059 -660,1043 -2016,1356 -3059,695 -1008,-660 -1321,-2016 -695,-3059l0 0z"/>
    <path class="fil9" d="M497400 3405c626,1043 2017,1356 3024,695 1043,-625 1356,-2016 696,-3059 -626,-1043 -1982,-1356 -3025,-695 -1008,660 -1321,2016 -695,3059z"/>
    <path class="fil9" d="M131674 370767c661,1043 2017,1390 3059,730 1008,-661 1321,-2016 696,-3060 -661,-1043 -2017,-1355 -3025,-695 -1043,626 -1356,2017 -730,3025l0 0z"/>
    <path class="fil9" d="M911061 209529c661,1043 2017,1356 3025,695 1043,-660 1356,-2016 730,-3059 -660,-1043 -2016,-1356 -3059,-695 -1009,626 -1322,2016 -696,3059l0 0z"/>
    <path class="fil11" d="M397269 175752c5806,-209 10499,-5006 10534,-10916l104 0c35,5910 4693,10707 10534,10916 -5876,174 -10569,5006 -10569,10951l-69 0c0,-5945 -4694,-10777 -10534,-10951z"/>
    <path class="fil10" d="M1983776 319456c661,1043 2017,1356 3025,696 1043,-661 1356,-2017 730,-3060 -661,-1043 -2016,-1355 -3059,-695 -1009,626 -1322,2016 -696,3059l0 0z"/>
    <path class="fil10" d="M1966841 330735c534,-1689 1632,-2196 2449,-1126 844,1014 1097,3266 591,4955 -535,1690 -1633,2196 -2478,1127 -816,-1071 -1070,-3267 -563,-4956l1 0z"/>
    <path class="fil11" d="M2021162 338163c1086,-1714 3315,-2228 4972,-1143 1714,1029 2229,3315 1200,5030 -1086,1714 -3315,2228 -5029,1143 -1657,-1086 -2172,-3315 -1143,-5030l0 0z"/>
    <path class="fil10" d="M1982455 341828c660,1042 2016,1355 3024,695 1043,-661 1356,-2016 730,-3060 -660,-1043 -2016,-1355 -3059,-695 -1008,626 -1321,2017 -695,3060l0 0z"/>
    <path class="fil4" d="M1990866 308243c1582,2497 4828,3246 7242,1664 2498,-1581 3247,-4828 1748,-7325 -1582,-2498 -4828,-3247 -7325,-1665 -2414,1498 -3164,4828 -1665,7326l0 0z"/>
   </g>
   <path class="fil11" d="M1983361 1163627c199345,-66668 592311,-75776 733175,-44671l0 44671 -733175 0z"/>
   <g>
    <g>
     <path class="fil87" d="M2162380 1163627l0 -193142c0,-23338 18920,-42257 42258,-42257l351073 0c23339,0 42258,18919 42258,42257l0 193142 -435589 0z"/>
     <path class="fil88" d="M2096014 1163627l36210 -111088c8578,-26315 28018,-47693 53402,-58724l23642 -10275c20377,-8856 42358,-13426 64576,-13426l106330 0 106331 0c22218,0 44199,4570 64576,13426l23642 10275c25384,11031 44824,32409 53402,58724l36210 111088 -568321 0z"/>
     <polygon class="fil89" points="2283863,1002416 2476486,1002416 2476486,824823 2283863,824823 "/>
     <polygon class="fil90" points="2319881,1002416 2476486,1002416 2476486,824823 2319881,824823 "/>
     <path class="fil91" d="M2242988 875294l274373 0c11837,0 21432,-9596 21432,-21432l0 -40729c0,-11836 -9595,-21431 -21432,-21431l-274373 0c-11836,0 -21432,9595 -21432,21431l0 40729c0,11836 9596,21432 21432,21432z"/>
     <path class="fil92" d="M2380174 688297c80193,0 145201,65009 145201,145201 0,80192 -65008,145200 -145201,145200 -80192,0 -145200,-65008 -145200,-145200 0,-80192 65008,-145201 145200,-145201z"/>
     <path class="fil93" d="M2234974 833498c0,-80192 65009,-145201 145200,-145201 44719,0 84714,20217 111349,52007 11058,55052 -4751,114428 -47432,157110 -42682,42681 -102059,58490 -157110,47432 -31790,-26635 -52007,-66630 -52007,-111348z"/>
     <path class="fil94" d="M2380174 698188c74730,0 135310,60581 135310,135310 0,74729 -60580,135309 -135310,135309 -74729,0 -135309,-60580 -135309,-135309 0,-74729 60580,-135310 135309,-135310z"/>
     <path class="fil95" d="M2244865 833498c0,-74729 60580,-135310 135309,-135310 48028,0 90208,25025 114221,62745 3853,48884 -12913,99089 -50304,136481 -37393,37392 -87597,54158 -136482,50305 -37719,-24014 -62744,-66193 -62744,-114221z"/>
     <path class="fil96" d="M2380174 733808c70785,0 128167,44633 128167,99690 0,55057 -57382,99690 -128167,99690 -70784,0 -128167,-44633 -128167,-99690 0,-55057 57383,-99690 128167,-99690z"/>
     <path class="fil97" d="M2517416 973090c-34490,36294 -83222,58924 -137241,58924 -54021,0 -102752,-22630 -137242,-58924 10158,-1974 20508,-2976 30911,-2976l10019 0c26775,20273 60138,32302 96312,32302 36173,0 69536,-12029 96312,-32302l10018 0c10402,0 20752,1002 30911,2976z"/>
     <polygon class="fil93" points="2465016,1163627 2465016,1092334 2295333,1092334 2295333,1163627 "/>
     <polygon class="fil94" points="2541736,1163627 2551959,1114645 2552150,1163627 "/>
     <polygon class="fil94" points="2207439,1163627 2205265,1107614 2218213,1163627 "/>
    </g>
    <path class="fil98" d="M2380174 776728c56475,0 104860,14518 125133,35141 -12701,-44656 -63898,-78061 -125133,-78061 -61234,0 -112430,33405 -125132,78061 20273,-20623 68658,-35141 125132,-35141z"/>
    <path class="fil99" d="M2444485 837567c8606,30404 -25412,57624 -75983,60795 -50570,3171 -98543,-18906 -107150,-49311 -8606,-30405 25412,-57623 75983,-60795 50570,-3171 98543,18906 107150,49311z"/>
    <path class="fil100" d="M2389307 846878c3342,21488 -22261,37526 -57186,35823 -34924,-1704 -65945,-20505 -69287,-41992 -3342,-21489 22261,-37527 57185,-35823 34925,1703 65946,20504 69288,41992z"/>
    <path class="fil101" d="M2341710 836275c1742,12738 -11604,22246 -29810,21236 -18205,-1009 -34376,-12155 -36118,-24893 -1742,-12739 11605,-22247 29810,-21237 18205,1010 34376,12156 36118,24894z"/>
    <path class="fil102" d="M2320744 828661c1007,7366 -6711,12864 -17238,12280 -10528,-584 -19880,-7029 -20887,-14395 -1008,-7367 6711,-12865 17238,-12281 10528,584 19880,7029 20887,14396z"/>
    <path class="fil103" d="M2488460 1116109c27146,-58115 35294,-110818 37650,-141080 104,-1342 197,-2641 280,-3894 8423,2140 16682,4955 24691,8437l8928 3879 -14455 -2194 -11061 -1678c-511,5738 -1219,12151 -2197,19152l46113 6998c909,-2931 1793,-5895 2650,-8883 328,-1146 653,-2295 974,-3448 2674,1443 5271,3006 7782,4680 -315,1113 -635,2222 -959,3329 -19712,67390 -53959,124225 -53959,124225l-46437 -9523zm42783 -110314c-822,5203 -1815,10825 -3017,16814l42298 6419c1942,-5308 3850,-10791 5689,-16408l-44970 -6825zm-16641 68142c-1689,5084 -3515,10271 -5493,15541l32802 4978c2342,-4606 4865,-9712 7490,-15239l-34799 -5280zm2220 -6888l35735 5423 2229 -4893c1435,-3188 2918,-6560 4427,-10082l-37895 -5751c-1359,4965 -2856,10075 -4496,15303zm6336 -22248l38914 5906c1955,-4728 3934,-9687 5899,-14842l-41212 -6254c-1062,4868 -2254,9936 -3601,15190zm-16680 51502c-1751,4434 -3603,8918 -5573,13447l29584 6067c1935,-3424 4688,-8408 7965,-14662l-31976 -4852z"/>
    <path class="fil103" d="M2234239 975029c2356,30262 10504,82965 37650,141080l-46438 9523c0,0 -34246,-56835 -53958,-124225 -324,-1107 -644,-2216 -960,-3329 2512,-1674 5108,-3237 7784,-4679 320,1152 645,2301 973,3447 857,2988 1741,5952 2650,8883l46113 -6998c-977,-7001 -1686,-13414 -2197,-19152l-11060 1678 -14456 2194 8928 -3879c8010,-3482 16268,-6297 24691,-8437 82,1253 176,2552 280,3894zm-2116 47580c-1201,-5989 -2195,-11611 -3017,-16814l-44970 6825c1838,5617 3747,11100 5689,16408l42298 -6419zm-33846 28098l38913 -5906c-1346,-5254 -2537,-10322 -3599,-15190l-41213 6254c1965,5155 3944,10114 5899,14842zm45249 16342c-1639,-5228 -3136,-10338 -4495,-15303l-37895 5751c1509,3522 2991,6894 4427,10082l2229 4893 35734 -5423zm2221 6888l-34799 5280c2626,5527 5148,10633 7490,15239l32802 -4978c-1977,-5270 -3805,-10457 -5493,-15541zm8124 22366l-31976 4852c3277,6254 6030,11238 7966,14662l29583 -6067c-1971,-4529 -3822,-9013 -5573,-13447z"/>
    <path class="fil104" d="M2528226 1022609c1202,-5989 2195,-11611 3017,-16814l44970 6825c-1839,5617 -3747,11100 -5689,16408l-42298 -6419z"/>
    <path class="fil105" d="M2526759 1029611l41212 6254c-1965,5155 -3944,10114 -5899,14842l-38914 -5906c1347,-5254 2539,-10322 3601,-15190z"/>
    <path class="fil106" d="M2521318 1051746l37895 5751c-1509,3522 -2992,6894 -4427,10082l-2229 4893 -35735 -5423c1640,-5228 3137,-10338 4496,-15303z"/>
    <path class="fil107" d="M2514602 1073937l34799 5280c-2625,5527 -5148,10633 -7490,15239l-32802 -4978c1978,-5270 3804,-10457 5493,-15541z"/>
    <path class="fil108" d="M2506478 1096303l31976 4852c-3277,6254 -6030,11238 -7965,14662l-29584 -6067c1970,-4529 3822,-9013 5573,-13447z"/>
    <path class="fil108" d="M2253871 1096303c1751,4434 3602,8918 5573,13447l-29583 6067c-1936,-3424 -4689,-8408 -7966,-14662l31976 -4852z"/>
    <path class="fil107" d="M2251240 1089478l-32802 4978c-2342,-4606 -4864,-9712 -7490,-15239l34799 -5280c1688,5084 3516,10271 5493,15541z"/>
    <path class="fil106" d="M2243526 1067049l-35734 5423 -2229 -4893c-1436,-3188 -2918,-6560 -4427,-10082l37895 -5751c1359,4965 2856,10075 4495,15303z"/>
    <path class="fil105" d="M2237190 1044801l-38913 5906c-1955,-4728 -3934,-9687 -5899,-14842l41213 -6254c1062,4868 2253,9936 3599,15190z"/>
    <path class="fil104" d="M2232123 1022609l-42298 6419c-1942,-5308 -3851,-10791 -5689,-16408l44970 -6825c822,5203 1816,10825 3017,16814z"/>
    <path class="fil108" d="M2228053 998731l-46113 6998c-909,-2931 -1793,-5895 -2650,-8883l-974 -3448c2376,-1281 4814,-2467 7310,-3552l14714 -6395 14456 -2194 11060 -1678c511,5738 1220,12151 2197,19152z"/>
    <path class="fil108" d="M2532296 998731c978,-7001 1686,-13414 2197,-19152l11061 1678 14455 2194 14715 6395c2496,1085 4933,2271 7308,3553l-973 3447c-857,2988 -1741,5952 -2650,8883l-46113 -6998z"/>
    <g>
     <path class="fil106" d="M2403164 1142997l9831 0c6564,0 11888,-5325 11888,-11890l0 1953c0,6794 -5507,12303 -12301,12303l-8774 0 -43010 0 -11610 0c-6794,0 -12301,-5509 -12301,-12303l0 -1953c0,6565 5324,11890 11888,11890l12668 0 41721 0z"/>
     <path class="fil109" d="M2424883 1131107c0,6565 -5324,11890 -11888,11890l-9831 0 -41721 0 -12668 0c-6564,0 -11888,-5325 -11888,-11890l0 -9400 0 -412c0,-6567 5324,-11890 11888,-11890l17579 0 31900 0 14328 0 413 0c6564,0 11888,5323 11888,11890l0 412 0 9400z"/>
     <path class="fil106" d="M2442228 1134322c-3919,0 -7094,-3175 -7094,-7096 0,-97 2,-193 5,-288 151,3493 3266,6281 7089,6281 3825,0 6940,-2788 7091,-6281 3,95 5,191 5,288 0,3921 -3175,7096 -7096,7096z"/>
     <path class="fil109" d="M2442228 1133219c-3823,0 -6938,-2788 -7089,-6281 -3,-88 -5,-176 -5,-265 0,-3614 3175,-6544 7094,-6544 3921,0 7096,2930 7096,6544 0,89 -2,177 -5,265 -151,3493 -3266,6281 -7091,6281z"/>
     <path class="fil106" d="M2325217 1127226c0,3921 -3177,7096 -7096,7096 -3919,0 -7097,-3175 -7097,-7096 0,-97 2,-193 6,-288 151,3493 3268,6281 7091,6281 3822,0 6940,-2788 7090,-6281 4,95 6,191 6,288z"/>
     <path class="fil109" d="M2325211 1126938c-150,3493 -3267,6281 -7090,6281 -3823,0 -6940,-2788 -7091,-6281 -4,-88 -6,-176 -6,-265 0,-3614 3178,-6544 7097,-6544 3919,0 7096,2930 7096,6544 0,89 -2,177 -6,265z"/>
    </g>
   </g>
  </g>
 </g>
</svg>
