<?xml version="1.0" encoding="UTF-8"?>
<!DOCTYPE svg PUBLIC "-//W3C//DTD SVG 1.1//EN" "http://www.w3.org/Graphics/SVG/1.1/DTD/svg11.dtd">
<!-- Creator: CorelDRAW X7 -->
<svg xmlns="http://www.w3.org/2000/svg" xml:space="preserve" width="5.68323in" height="4.75331in" version="1.1" style="shape-rendering:geometricPrecision; text-rendering:geometricPrecision; image-rendering:optimizeQuality; fill-rule:evenodd; clip-rule:evenodd"
viewBox="0 0 56832 47533"
 xmlns:xlink="http://www.w3.org/1999/xlink">
 <defs>
  <style type="text/css">
   <![CDATA[
    .fil12 {fill:#99A8D5}
    .fil11 {fill:#A2AFD7}
    .fil19 {fill:#A6B2D8}
    .fil13 {fill:#AAB6DC}
    .fil18 {fill:#B3BEDE}
    .fil20 {fill:#B5BEDE}
    .fil17 {fill:#B9C2E0}
    .fil14 {fill:#BDC6E4}
    .fil21 {fill:#C3CBE5}
    .fil22 {fill:#CBD1E7}
    .fil16 {fill:#EBECF5}
    .fil15 {fill:#EFF0F7}
    .fil0 {fill:#98A2D1;fill-rule:nonzero}
    .fil4 {fill:#9AA7D3;fill-rule:nonzero}
    .fil9 {fill:#B2BCDE;fill-rule:nonzero}
    .fil3 {fill:#B9C2E0;fill-rule:nonzero}
    .fil7 {fill:#C2C8E4;fill-rule:nonzero}
    .fil2 {fill:#C3CBE5;fill-rule:nonzero}
    .fil10 {fill:#CBD0E7;fill-rule:nonzero}
    .fil8 {fill:#D1D6EB;fill-rule:nonzero}
    .fil5 {fill:#D6DAED;fill-rule:nonzero}
    .fil1 {fill:#DDE0F0;fill-rule:nonzero}
    .fil6 {fill:#EFF0F7;fill-rule:nonzero}
   ]]>
  </style>
 </defs>
 <g id="Layer_x0020_1">
  <metadata id="CorelCorpID_0Corel-Layer"/>
  <g id="_1743740990640">
   <g>
    <path class="fil0" d="M6637 47533l0 -19314c0,-2334 1892,-4226 4225,-4226l35108 0c2334,0 4226,1892 4226,4226l0 19314 -43559 0z"/>
    <path class="fil1" d="M0 47533l3621 -11109c858,-2631 2802,-4769 5340,-5872l2365 -1028c2037,-885 4235,-1342 6457,-1342l10633 0 10633 0c2222,0 4420,457 6458,1342l2364 1028c2538,1103 4482,3241 5340,5872l3621 11109 -56832 0z"/>
    <polygon class="fil2" points="18785,31412 38047,31412 38047,13653 18785,13653 "/>
    <polygon class="fil3" points="22387,31412 38047,31412 38047,13653 22387,13653 "/>
    <path class="fil4" d="M14697 18700l27438 0c1183,0 2143,-960 2143,-2143l0 -4073c0,-1184 -960,-2143 -2143,-2143l-27438 0c-1183,0 -2143,959 -2143,2143l0 4073c0,1183 960,2143 2143,2143z"/>
    <path class="fil5" d="M28416 0c8019,0 14520,6501 14520,14520 0,8019 -6501,14520 -14520,14520 -8019,0 -14520,-6501 -14520,-14520 0,-8019 6501,-14520 14520,-14520z"/>
    <path class="fil6" d="M13896 14520c0,-8019 6501,-14520 14520,-14520 4472,0 8471,2022 11135,5201 1106,5505 -475,11443 -4743,15711 -4268,4268 -10206,5849 -15711,4743 -3179,-2664 -5201,-6663 -5201,-11135z"/>
    <path class="fil7" d="M28416 989c7473,0 13531,6058 13531,13531 0,7473 -6058,13531 -13531,13531 -7473,0 -13531,-6058 -13531,-13531 0,-7473 6058,-13531 13531,-13531z"/>
    <path class="fil8" d="M14885 14520c0,-7473 6058,-13531 13531,-13531 4803,0 9021,2503 11422,6275 386,4888 -1291,9909 -5030,13648 -3739,3739 -8760,5416 -13648,5030 -3772,-2401 -6275,-6619 -6275,-11422z"/>
    <path class="fil9" d="M28416 4551c7079,0 12817,4463 12817,9969 0,5506 -5738,9969 -12817,9969 -7078,0 -12817,-4463 -12817,-9969 0,-5506 5739,-9969 12817,-9969z"/>
    <path class="fil10" d="M42140 28479c-3449,3630 -8322,5893 -13724,5893 -5402,0 -10275,-2263 -13724,-5893 1016,-197 2051,-297 3091,-297l1002 0c2677,2027 6014,3230 9631,3230 3618,0 6954,-1203 9631,-3230l1002 0c1040,0 2075,100 3091,297z"/>
    <polygon class="fil6" points="36900,47533 36900,40404 19932,40404 19932,47533 "/>
    <polygon class="fil7" points="44572,47533 45595,42635 45614,47533 "/>
    <polygon class="fil7" points="11143,47533 10925,41932 12220,47533 "/>
   </g>
   <path class="fil11" d="M28416 8843c5648,0 10486,1452 12513,3514 -1270,-4465 -6389,-7806 -12513,-7806 -6123,0 -11243,3341 -12513,7806 2027,-2062 6866,-3514 12513,-3514z"/>
   <path class="fil12" d="M34847 14927c861,3040 -2541,5762 -7598,6080 -5057,317 -9854,-1891 -10715,-4932 -861,-3040 2541,-5762 7598,-6079 5057,-317 9854,1891 10715,4931z"/>
   <path class="fil13" d="M29329 15858c335,2149 -2226,3753 -5718,3582 -3493,-170 -6595,-2050 -6929,-4199 -334,-2149 2226,-3752 5719,-3582 3492,170 6594,2050 6928,4199z"/>
   <path class="fil14" d="M24570 14798c174,1274 -1161,2224 -2981,2123 -1821,-100 -3438,-1215 -3612,-2489 -174,-1274 1160,-2225 2981,-2124 1820,101 3437,1216 3612,2490z"/>
   <path class="fil15" d="M22473 14036c101,737 -671,1287 -1724,1228 -1053,-58 -1988,-702 -2088,-1439 -101,-737 671,-1287 1723,-1228 1053,58 1988,703 2089,1439z"/>
   <path class="fil16" d="M39245 42781c2714,-5811 3529,-11082 3765,-14108 10,-134 19,-264 28,-389 842,214 1668,495 2469,844l893 387 -1446 -219 -1106 -168c-51,574 -122,1215 -220,1915l4612 700c90,-293 179,-589 265,-888 32,-115 65,-230 97,-345 267,144 527,301 778,468 -31,111 -63,222 -96,333 -1971,6739 -5396,12423 -5396,12423l-4643 -953zm4278 -11031c-82,520 -182,1082 -302,1681l4230 642c194,-531 385,-1079 569,-1641l-4497 -682zm-1664 6814c-169,508 -352,1027 -549,1554l3280 498c234,-461 486,-971 749,-1524l-3480 -528zm222 -689l3573 543 223 -490c144,-319 292,-656 443,-1008l-3789 -575c-136,496 -286,1007 -450,1530zm634 -2225l3891 591c195,-473 393,-969 590,-1484l-4121 -626c-107,487 -226,994 -360,1519zm-1669 5151c-175,443 -360,891 -557,1344l2959 607c193,-342 468,-841 796,-1466l-3198 -485z"/>
   <path class="fil16" d="M13823 28673c235,3026 1050,8297 3765,14108l-4644 953c0,0 -3425,-5684 -5396,-12423 -32,-111 -64,-222 -96,-333 251,-167 511,-324 778,-468 32,115 65,230 98,345 85,299 174,595 265,888l4611 -700c-98,-700 -169,-1341 -220,-1915l-1106 168 -1445 219 893 -387c800,-349 1626,-630 2469,-844 8,125 17,255 28,389zm-212 4758c-120,-599 -220,-1161 -302,-1681l-4497 682c184,562 375,1110 569,1641l4230 -642zm-3385 2810l3892 -591c-135,-525 -254,-1032 -360,-1519l-4122 626c197,515 395,1011 590,1484zm4525 1634c-164,-523 -313,-1034 -449,-1530l-3790 575c151,352 299,689 443,1008l223 490 3573 -543zm222 689l-3480 528c263,553 515,1063 749,1524l3281 -498c-198,-527 -381,-1046 -550,-1554zm813 2237l-3198 485c328,625 603,1124 797,1466l2958 -607c-197,-453 -382,-901 -557,-1344z"/>
   <path class="fil17" d="M43221 33431c120,-599 220,-1161 302,-1681l4497 682c-184,562 -375,1110 -569,1641l-4230 -642z"/>
   <path class="fil18" d="M43075 34131l4121 626c-197,515 -395,1011 -590,1484l-3891 -591c134,-525 253,-1032 360,-1519z"/>
   <path class="fil19" d="M42531 36345l3789 575c-151,352 -299,689 -443,1008l-223 490 -3573 -543c164,-523 314,-1034 450,-1530z"/>
   <path class="fil20" d="M41859 38564l3480 528c-263,553 -515,1063 -749,1524l-3280 -498c197,-527 380,-1046 549,-1554z"/>
   <path class="fil21" d="M41046 40801l3198 485c-328,625 -603,1124 -796,1466l-2959 -607c197,-453 382,-901 557,-1344z"/>
   <path class="fil21" d="M15786 40801c175,443 360,891 557,1344l-2958 607c-194,-342 -469,-841 -797,-1466l3198 -485z"/>
   <path class="fil20" d="M15523 40118l-3281 498c-234,-461 -486,-971 -749,-1524l3480 -528c169,508 352,1027 550,1554z"/>
   <path class="fil19" d="M14751 37875l-3573 543 -223 -490c-144,-319 -292,-656 -443,-1008l3790 -575c136,496 285,1007 449,1530z"/>
   <path class="fil18" d="M14118 35650l-3892 591c-195,-473 -393,-969 -590,-1484l4122 -626c106,487 225,994 360,1519z"/>
   <path class="fil17" d="M13611 33431l-4230 642c-194,-531 -385,-1079 -569,-1641l4497 -682c82,520 182,1082 302,1681z"/>
   <path class="fil21" d="M13204 31043l-4611 700c-91,-293 -180,-589 -265,-888l-98 -345c238,-128 482,-247 731,-355l1472 -640 1445 -219 1106 -168c51,574 122,1215 220,1915z"/>
   <path class="fil21" d="M43628 31043c98,-700 169,-1341 220,-1915l1106 168 1446 219 1471 640c250,108 493,227 731,355l-97 345c-86,299 -175,595 -265,888l-4612 -700z"/>
   <g>
    <path class="fil19" d="M30715 45470l983 0c657,0 1189,-532 1189,-1189l0 195c0,680 -551,1231 -1230,1231l-877 0 -4301 0 -1161 0c-680,0 -1231,-551 -1231,-1231l0 -195c0,657 533,1189 1189,1189l1267 0 4172 0z"/>
    <path class="fil22" d="M32887 44281c0,657 -532,1189 -1189,1189l-983 0 -4172 0 -1267 0c-656,0 -1189,-532 -1189,-1189l0 -940 0 -41c0,-657 533,-1189 1189,-1189l1758 0 3190 0 1433 0 41 0c657,0 1189,532 1189,1189l0 41 0 940z"/>
    <path class="fil19" d="M34621 44603c-391,0 -709,-318 -709,-710 0,-10 0,-19 1,-29 15,350 326,628 708,628 383,0 695,-278 710,-628 0,10 0,19 0,29 0,392 -317,710 -710,710z"/>
    <path class="fil22" d="M34621 44492c-382,0 -693,-278 -708,-628 -1,-9 -1,-17 -1,-26 0,-362 318,-655 709,-655 393,0 710,293 710,655 0,9 0,17 0,26 -15,350 -327,628 -710,628z"/>
    <path class="fil19" d="M22920 43893c0,392 -317,710 -709,710 -392,0 -710,-318 -710,-710 0,-10 0,-19 1,-29 15,350 327,628 709,628 382,0 694,-278 709,-628 0,10 0,19 0,29z"/>
    <path class="fil22" d="M22920 43864c-15,350 -327,628 -709,628 -382,0 -694,-278 -709,-628 -1,-9 -1,-17 -1,-26 0,-362 318,-655 710,-655 392,0 709,293 709,655 0,9 0,17 0,26z"/>
   </g>
  </g>
 </g>
</svg>
