<?xml version="1.0" encoding="UTF-8"?>
<!DOCTYPE svg PUBLIC "-//W3C//DTD SVG 1.1//EN" "http://www.w3.org/Graphics/SVG/1.1/DTD/svg11.dtd">
<!-- Creator: CorelDRAW X7 -->
<svg xmlns="http://www.w3.org/2000/svg" xml:space="preserve" width="4.72441in" height="1.41933in" version="1.1" style="shape-rendering:geometricPrecision; text-rendering:geometricPrecision; image-rendering:optimizeQuality; fill-rule:evenodd; clip-rule:evenodd"
viewBox="0 0 47244 14193"
 xmlns:xlink="http://www.w3.org/1999/xlink">
 <defs>
  <style type="text/css">
   <![CDATA[
    .fil0 {fill:none}
    .fil1 {fill:#6C87C3}
    .fil2 {fill:#D2AE6D}
    .fil3 {fill:#999999;fill-rule:nonzero}
   ]]>
  </style>
 </defs>
 <g id="Layer_x0020_1">
  <metadata id="CorelCorpID_0Corel-Layer"/>
  <g id="_1970585700048">
   <rect class="fil0" width="47244" height="7808"/>
   <path class="fil1" d="M31233 6246l-1561 1562c1561,0 3123,0 4685,0l1562 -1562c-1562,0 -3123,0 -4686,0l0 -1561 -1562 0 1562 -1562 -1561 1561c1561,0 3123,0 4685,0l1562 -1561c-1562,0 -3123,0 -4686,0l0 -1562 3123 0 1562 -1561c-1562,0 -3123,0 -4686,0l-1561 1561 0 1562 -3123 0 -1561 1562 0 1561c-1561,0 -3123,0 -4685,0l-1561 1562c2081,0 4164,0 6246,0l1561 -1562 0 -1561 3123 0 0 3123 1562 -1562zm-26548 -1561l0 3123 1561 0 0 -4685 -6246 0 0 1562 4685 0zm-1562 1561l-3123 0 0 1562 3123 0 0 -1562zm4685 -4685l0 3124 6246 0 1563 -1562 -6247 0 0 -3123 -9370 0 0 1561 7808 0zm10931 1562l0 -3123c-2081,0 -4164,0 -6246,0l-1561 1561 6246 0 0 3123 0 1 0 1561 -3124 0 -1561 1562 4685 0 1561 -1562 0 -1561 -1561 0 1 -1 6246 0 1561 -1561c-2082,0 -4165,0 -6247,0zm-10931 3123l0 1562 3124 0 1561 -1562 -4685 0zm15617 -6246l0 1561 1562 0 0 -1561 -1562 0z"/>
   <path class="fil2" d="M37874 1561l7808 0 1561 -1561 -9370 0 0 1561 1 0zm6247 4685l-6246 0 0 1562 6246 0 0 -1562zm3123 -3123l-9370 0 0 1561 7808 0 0 3123 1561 0 0 -4685 1 1z"/>
   <path class="fil3" d="M558 11862l331 0 0 1141c0,202 -12,372 -35,511 -24,137 -67,248 -133,333 -65,84 -156,146 -272,183 -116,39 -265,58 -449,58l0 -340c133,0 237,-14 313,-43 75,-29 131,-75 168,-139 38,-63 60,-146 66,-245 7,-101 11,-221 11,-362l0 -1097zm1851 1195c0,68 -13,114 -39,139 -26,24 -68,37 -125,37l-106 0c-88,0 -168,-9 -239,-28 -73,-17 -133,-48 -185,-91 -50,-44 -90,-102 -118,-174 -29,-73 -43,-163 -43,-273l0 -2354 335 0 0 2264c0,115 19,196 54,244 36,48 115,72 238,72l64 0c109,0 164,55 164,164zm-70 176c-109,0 -164,-55 -164,-164 0,-68 13,-115 39,-139 26,-25 68,-37 125,-37l605 0c109,0 164,55 164,164 0,68 -13,114 -39,139 -26,24 -68,37 -125,37l-605 0zm699 0c-109,0 -164,-55 -164,-164 0,-68 13,-115 39,-139 26,-25 68,-37 125,-37l977 0c101,0 185,-18 252,-53 68,-35 101,-104 101,-205 0,-71 -33,-151 -101,-242 -67,-92 -156,-184 -266,-279 -111,-94 -238,-188 -381,-278 -143,-92 -289,-174 -438,-247 2,-34 11,-67 24,-101 13,-34 28,-66 45,-94 16,-29 33,-54 51,-76 17,-22 32,-37 43,-45l1497 -659 0 332 -1203 531c190,112 353,221 486,327 134,107 243,210 326,308 83,99 144,193 182,285 38,91 57,177 57,258 0,57 -9,121 -26,189 -18,69 -51,132 -100,189 -49,57 -119,105 -209,143 -90,38 -206,57 -348,57l-969 0zm3754 0c-106,0 -205,-13 -297,-37 -91,-25 -170,-65 -237,-121 -67,-56 -120,-130 -160,-223 -40,-93 -59,-206 -59,-343 0,-109 17,-216 53,-321 35,-106 87,-199 155,-281 68,-82 152,-147 253,-196 102,-50 218,-74 348,-74 145,0 267,26 367,79 99,54 178,127 238,221 60,94 103,206 129,336 26,130 39,272 39,429l0 383c0,205 -27,372 -82,501 -54,129 -132,232 -233,307 -100,75 -224,126 -371,154 -147,27 -312,41 -495,41l-172 0 0 -340 127 0c130,0 249,-5 357,-16 108,-11 201,-35 279,-74 77,-39 138,-95 182,-168 43,-73 64,-172 64,-298l0 -77c-49,30 -113,58 -191,81 -79,24 -177,37 -294,37zm-425 -761c0,155 41,266 124,333 84,67 195,100 333,100 104,0 195,-13 275,-41 79,-27 138,-57 178,-89l0 -152c0,-93 -7,-181 -21,-262 -15,-82 -40,-152 -75,-211 -36,-59 -82,-105 -139,-139 -58,-34 -127,-51 -210,-51 -84,0 -155,17 -214,50 -58,32 -106,72 -144,122 -36,49 -64,104 -81,164 -18,60 -26,118 -26,176zm6038 761c-106,0 -192,-26 -257,-76 -65,-51 -109,-114 -132,-190 -24,57 -56,103 -97,137 -41,34 -92,60 -154,80 -62,19 -136,32 -223,38 -88,7 -190,11 -307,11l-1664 0c-158,0 -290,-11 -395,-33 -105,-23 -190,-57 -254,-104 -64,-47 -109,-109 -137,-184 -27,-75 -41,-168 -41,-277l0 -633 336 0 0 511c0,84 10,152 31,202 21,51 55,89 104,115 48,26 115,43 200,51 84,8 192,12 324,12l1492 0c90,0 168,-3 230,-8 62,-6 112,-18 149,-39 36,-20 63,-50 80,-90 16,-39 24,-93 24,-161l0 -937 336 0 0 786c0,67 4,129 14,185 9,56 28,103 55,141 27,38 64,68 111,90 47,22 105,33 175,33 110,0 164,55 164,164 0,68 -13,114 -39,139 -26,24 -67,37 -125,37zm-2205 621c0,-60 21,-111 64,-153 42,-42 94,-63 153,-63 60,0 112,21 154,63 41,42 63,93 63,153 0,60 -22,111 -63,154 -42,42 -94,63 -154,63 -59,0 -111,-21 -153,-63 -43,-43 -64,-94 -64,-154zm2441 -961c91,0 167,-3 228,-8 62,-6 112,-18 150,-39 36,-20 63,-50 79,-90 16,-39 24,-93 24,-161l0 -733 336 0 0 582c0,67 4,129 13,185 8,56 28,103 58,141 30,38 72,68 128,90 56,22 132,33 226,33 60,0 112,-3 156,-8 44,-6 81,-18 111,-39 30,-20 52,-50 66,-90 15,-39 23,-93 23,-161l0 -733 335 0 0 582c0,67 5,129 15,185 11,56 30,103 58,141 29,38 69,68 119,90 50,22 117,33 198,33 47,0 89,-3 127,-8 38,-6 70,-18 98,-39 27,-20 48,-50 64,-90 15,-39 22,-93 22,-161l0 -937 336 0 0 786c0,67 4,129 14,185 10,56 27,103 55,141 28,38 64,68 110,90 46,22 104,33 177,33 109,0 163,55 163,164 0,68 -13,114 -39,139 -26,24 -67,37 -124,37 -107,0 -193,-26 -258,-76 -66,-51 -109,-114 -132,-190 -24,57 -58,103 -102,137 -44,34 -91,60 -140,80 -49,19 -97,32 -142,38 -47,7 -86,11 -120,11 -90,0 -166,-9 -227,-26 -61,-16 -112,-37 -153,-62 -40,-26 -72,-54 -95,-86 -24,-32 -42,-63 -56,-92 -49,112 -124,184 -226,217 -102,32 -224,49 -367,49 -96,0 -176,-8 -240,-24 -63,-15 -116,-35 -157,-60 -40,-25 -73,-55 -97,-88 -25,-34 -45,-66 -61,-98 -24,57 -55,103 -92,137 -37,34 -85,61 -144,81 -58,22 -131,35 -216,41 -86,7 -189,11 -309,11l-136 0c-109,0 -164,-55 -164,-164 0,-68 13,-115 39,-139 26,-25 68,-37 125,-37l144 0zm3421 340c-109,0 -163,-55 -163,-164 0,-68 13,-115 38,-139 26,-25 68,-37 125,-37l606 0c109,0 163,55 163,164 0,68 -13,114 -39,139 -25,24 -67,37 -124,37l-606 0zm699 0c-109,0 -163,-55 -163,-164 0,-68 13,-115 38,-139 26,-25 68,-37 125,-37l977 0c101,0 186,-18 252,-53 68,-35 101,-104 101,-205 0,-71 -33,-151 -101,-242 -66,-92 -156,-184 -266,-279 -111,-94 -237,-188 -381,-278 -143,-92 -289,-174 -438,-247 3,-34 11,-67 24,-101 14,-34 29,-66 45,-94 16,-29 33,-54 51,-76 17,-22 32,-37 44,-45l1496 -659 0 332 -1202 531c190,112 352,221 486,327 133,107 242,210 326,308 83,99 143,193 181,285 38,91 57,177 57,258 0,57 -9,121 -26,189 -17,69 -50,132 -100,189 -49,57 -119,105 -209,143 -90,38 -205,57 -348,57l-969 0zm2846 -1117l331 0 0 560c0,264 68,450 203,557 135,106 334,159 598,159 136,0 253,-10 352,-31 98,-20 179,-56 243,-107 64,-50 111,-120 141,-208 30,-89 45,-201 45,-337l0 -1051 332 0 0 1055c0,360 -98,618 -295,777 -196,159 -472,238 -826,238 -376,0 -658,-84 -845,-252 -186,-168 -279,-411 -279,-731l0 -629zm919 -614c0,-60 22,-112 64,-153 43,-42 95,-64 155,-64 60,0 110,22 152,64 42,41 63,93 63,153 0,60 -21,111 -63,153 -42,43 -92,64 -152,64 -60,0 -112,-21 -155,-64 -42,-42 -64,-93 -64,-153zm2326 -1189l0 2920 -335 0 0 -2920 335 0zm1652 2920c-91,0 -166,-21 -226,-61 -60,-41 -104,-89 -134,-143 0,195 -11,361 -35,496 -23,135 -67,245 -132,328 -66,83 -156,143 -270,179 -115,37 -264,56 -448,56l0 -340c133,0 238,-14 313,-43 75,-29 131,-75 169,-139 37,-63 59,-146 66,-245 7,-101 9,-221 9,-362l0 -1097 332 0 0 582c0,138 26,248 76,328 50,81 144,121 280,121 109,0 163,55 163,164 0,68 -13,114 -39,139 -26,24 -67,37 -124,37zm91 0c-109,0 -164,-55 -164,-164 0,-68 13,-115 39,-139 26,-25 68,-37 125,-37l606 0c109,0 163,55 163,164 0,68 -13,114 -39,139 -26,24 -67,37 -124,37l-606 0zm699 0c-109,0 -164,-55 -164,-164 0,-68 13,-115 39,-139 26,-25 68,-37 125,-37l977 0c101,0 186,-18 252,-53 68,-35 101,-104 101,-205 0,-71 -33,-151 -101,-242 -66,-92 -156,-184 -266,-279 -111,-94 -237,-188 -381,-278 -143,-92 -289,-174 -438,-247 3,-34 11,-67 24,-101 13,-34 28,-66 45,-94 16,-29 33,-54 51,-76 17,-22 32,-37 44,-45l1496 -659 0 332 -1203 531c191,112 353,221 487,327 133,107 242,210 325,308 84,99 144,193 182,285 38,91 57,177 57,258 0,57 -9,121 -26,189 -18,69 -50,132 -100,189 -49,57 -119,105 -209,143 -90,38 -206,57 -348,57l-969 0zm218 -2144c0,-38 6,-78 21,-119 15,-40 32,-77 54,-111 20,-34 42,-64 65,-90 23,-26 43,-44 59,-53l1390 -633 0 307 -1589 699zm4182 2094c0,356 -98,614 -295,773 -196,158 -471,237 -826,237 -376,0 -658,-83 -845,-249 -186,-167 -279,-409 -279,-727l0 -631 331 0 0 561c0,130 17,242 51,333 34,92 85,166 151,221 67,55 151,95 252,120 101,25 217,37 347,37 136,0 253,-10 352,-28 98,-19 179,-54 243,-106 65,-52 112,-122 142,-208 30,-88 45,-200 45,-337l0 -1317 331 0 0 582c0,67 4,129 13,185 9,56 27,103 56,141 28,38 69,68 120,90 51,22 122,33 213,33 65,0 122,-3 169,-8 48,-6 88,-18 119,-39 31,-20 55,-50 70,-90 15,-39 23,-93 23,-161l0 -733 334 0 0 582c0,67 5,129 15,185 9,56 28,103 54,141 26,38 62,68 107,90 46,22 105,33 177,33l344 0 0 -1235 335 0 0 1575 -679 0c-106,0 -192,-26 -256,-76 -65,-51 -108,-114 -129,-190 -49,112 -128,184 -234,217 -106,32 -241,49 -404,49 -130,0 -230,-20 -298,-59 -69,-40 -118,-87 -149,-141l0 150zm467 -2213c0,-60 21,-111 64,-153 42,-42 94,-63 154,-63 60,0 111,21 152,63 42,42 64,93 64,153 0,60 -22,111 -64,153 -41,43 -92,64 -152,64 -60,0 -112,-21 -154,-64 -43,-42 -64,-93 -64,-153zm531 0c0,-60 22,-111 64,-153 43,-42 94,-63 154,-63 60,0 111,21 153,63 42,42 63,93 63,153 0,60 -21,111 -63,153 -42,43 -93,64 -153,64 -60,0 -111,-21 -154,-64 -42,-42 -64,-93 -64,-153zm-258 -490c0,-60 22,-111 64,-154 43,-42 95,-63 155,-63 60,0 110,21 152,63 42,43 63,94 63,154 0,60 -21,111 -63,153 -42,42 -92,63 -152,63 -60,0 -112,-21 -155,-63 -42,-42 -64,-93 -64,-153zm2699 2753c-106,0 -205,-13 -297,-37 -91,-25 -170,-65 -237,-121 -67,-56 -120,-130 -160,-223 -40,-93 -59,-206 -59,-343 0,-109 17,-216 53,-321 35,-106 87,-199 155,-281 68,-82 152,-147 253,-196 102,-50 218,-74 348,-74 145,0 267,26 367,79 99,54 178,127 238,221 60,94 103,206 129,336 26,130 39,272 39,429l0 383c0,205 -27,372 -82,501 -54,129 -132,232 -233,307 -100,75 -224,126 -371,154 -147,27 -312,41 -495,41l-172 0 0 -340 127 0c130,0 249,-5 357,-16 108,-11 201,-35 279,-74 77,-39 138,-95 182,-168 43,-73 65,-172 65,-298l0 -77c-50,30 -114,58 -192,81 -79,24 -177,37 -294,37zm-425 -761c0,155 41,266 124,333 84,67 195,100 333,100 104,0 195,-13 275,-41 79,-27 138,-57 179,-89l0 -152c0,-93 -8,-181 -22,-262 -15,-82 -40,-152 -75,-211 -36,-59 -82,-105 -139,-139 -58,-34 -127,-51 -210,-51 -84,0 -155,17 -214,50 -58,32 -106,72 -144,122 -36,49 -64,104 -81,164 -18,60 -26,118 -26,176zm2734 585c0,68 -13,114 -39,139 -26,24 -68,37 -125,37l-106 0c-88,0 -168,-9 -240,-28 -72,-17 -133,-48 -184,-91 -50,-44 -90,-102 -118,-174 -29,-73 -43,-163 -43,-273l0 -2354 335 0 0 2264c0,115 19,196 54,244 36,48 115,72 238,72l64 0c109,0 164,55 164,164zm-70 176c-109,0 -164,-55 -164,-164 0,-68 13,-115 39,-139 26,-25 67,-37 125,-37l605 0c109,0 164,55 164,164 0,68 -13,114 -39,139 -26,24 -68,37 -125,37l-605 0zm699 0c-109,0 -164,-55 -164,-164 0,-68 13,-115 39,-139 26,-25 67,-37 125,-37l977 0c101,0 185,-18 252,-53 67,-35 101,-104 101,-205 0,-71 -34,-151 -101,-242 -67,-92 -156,-184 -267,-279 -110,-94 -237,-188 -380,-278 -143,-92 -289,-174 -438,-247 2,-34 10,-67 23,-101 14,-34 29,-66 45,-94 17,-29 34,-54 52,-76 17,-22 32,-37 43,-45l1497 -659 0 332 -1203 531c190,112 353,221 486,327 134,107 243,210 326,308 83,99 144,193 181,285 39,91 58,177 58,258 0,57 -9,121 -26,189 -18,69 -51,132 -100,189 -50,57 -119,105 -209,143 -90,38 -206,57 -348,57l-969 0z"/>
  </g>
 </g>
</svg>
