<?xml version="1.0" encoding="UTF-8"?>
<!DOCTYPE svg PUBLIC "-//W3C//DTD SVG 1.1//EN" "http://www.w3.org/Graphics/SVG/1.1/DTD/svg11.dtd">
<!-- Creator: CorelDRAW X7 -->
<svg xmlns="http://www.w3.org/2000/svg" xml:space="preserve" width="2.99496in" height="2.99496in" version="1.1" style="shape-rendering:geometricPrecision; text-rendering:geometricPrecision; image-rendering:optimizeQuality; fill-rule:evenodd; clip-rule:evenodd"
viewBox="0 0 29950 29950"
 xmlns:xlink="http://www.w3.org/1999/xlink">
 <defs>
  <style type="text/css">
   <![CDATA[
    .fil3 {fill:white}
    .fil1 {fill:#B69A75;fill-rule:nonzero}
    .fil0 {fill:#C8B088;fill-rule:nonzero}
    .fil2 {fill:#D9C49F;fill-rule:nonzero}
   ]]>
  </style>
 </defs>
 <g id="Layer_x0020_1">
  <metadata id="CorelCorpID_0Corel-Layer"/>
  <g id="_2901887682672">
   <path class="fil0" d="M29950 14997c0,-8264 -6734,-14997 -14997,-14997 -8264,0 -14953,6733 -14953,14997 0,8263 6689,14953 14953,14953 8263,0 14997,-6690 14997,-14953z"/>
   <path class="fil1" d="M26539 5509c2143,2580 3411,5859 3411,9488 0,8263 -6690,14953 -14953,14953 -4635,0 -8745,-2099 -11499,-5378 0,0 11280,4328 18232,-2623 6952,-6952 4809,-16440 4809,-16440l0 0z"/>
   <path class="fil2" d="M2706 10026c0,-2842 2316,-5157 5158,-5157 2841,0 5142,2315 5142,5157 0,2841 -2301,5142 -5142,5142 -2842,0 -5158,-2301 -5158,-5142z"/>
   <path class="fil3" d="M19432 13250l5750 0 0 1150 -5750 0 0 3450 1150 0 0 -2300 4600 0 1150 -1150 0 -2300 -6900 0 0 1150zm-7764 -1151l0 5751 1151 0 0 -4601 4312 0 0 4601 1150 0 0 -4601 -1150 -1150 -5463 0zm-1150 1l-6901 0 0 1150 5751 0 1150 -1150zm-2300 4600l-4601 0 0 1150 4601 0 0 -1150zm2300 -2300l-6901 0 0 1150 5751 0 0 2300 1150 0 0 -3450z"/>
  </g>
 </g>
</svg>
