<?xml version="1.0" encoding="UTF-8"?>
<!DOCTYPE svg PUBLIC "-//W3C//DTD SVG 1.1//EN" "http://www.w3.org/Graphics/SVG/1.1/DTD/svg11.dtd">
<!-- Creator: CorelDRAW X7 -->
<svg xmlns="http://www.w3.org/2000/svg" xml:space="preserve" width="2.99496in" height="2.99496in" version="1.1" style="shape-rendering:geometricPrecision; text-rendering:geometricPrecision; image-rendering:optimizeQuality; fill-rule:evenodd; clip-rule:evenodd"
viewBox="0 0 29950 29950"
 xmlns:xlink="http://www.w3.org/1999/xlink">
 <defs>
  <style type="text/css">
   <![CDATA[
    .fil3 {fill:white}
    .fil1 {fill:#4B4783;fill-rule:nonzero}
    .fil0 {fill:#5C589A;fill-rule:nonzero}
    .fil2 {fill:#716EA7;fill-rule:nonzero}
   ]]>
  </style>
 </defs>
 <g id="Layer_x0020_1">
  <metadata id="CorelCorpID_0Corel-Layer"/>
  <g id="_2902267185472">
   <path class="fil0" d="M29950 14997c0,-8264 -6734,-14997 -14997,-14997 -8264,0 -14953,6733 -14953,14997 0,8263 6689,14953 14953,14953 8263,0 14997,-6690 14997,-14953z"/>
   <path class="fil1" d="M3410 5509c-2142,2580 -3410,5859 -3410,9488 0,8263 6689,14953 14953,14953 4634,0 8744,-2099 11499,-5378 0,0 -11280,4328 -18232,-2623 -6952,-6952 -4810,-16440 -4810,-16440l0 0z"/>
   <path class="fil2" d="M27243 10026c0,-2842 -2315,-5157 -5157,-5157 -2842,0 -5142,2315 -5142,5157 0,2841 2300,5142 5142,5142 2842,0 5157,-2301 5157,-5142z"/>
   <path class="fil3" d="M25358 10981l-9584 0 0 1598 7987 0 1597 -1598zm-11182 0l-9584 0 0 1598 7986 0 1598 -1598zm-3195 6390l-6389 0 0 1597 6389 0 0 -1597zm3195 -3195l-9584 0 0 1597 7986 0 0 3195 1598 0 0 -4792zm1598 0l9584 0 -1597 1598 -6390 0 0 3194 -1597 0 0 -4792z"/>
  </g>
 </g>
</svg>
