<?xml version="1.0" encoding="UTF-8"?>
<!DOCTYPE svg PUBLIC "-//W3C//DTD SVG 1.1//EN" "http://www.w3.org/Graphics/SVG/1.1/DTD/svg11.dtd">
<!-- Creator: CorelDRAW X7 -->
<svg xmlns="http://www.w3.org/2000/svg" xml:space="preserve" width="1.9685in" height="1.9685in" version="1.1" style="shape-rendering:geometricPrecision; text-rendering:geometricPrecision; image-rendering:optimizeQuality; fill-rule:evenodd; clip-rule:evenodd"
viewBox="0 0 19685 19685"
 xmlns:xlink="http://www.w3.org/1999/xlink">
 <defs>
  <style type="text/css">
   <![CDATA[
    .fil1 {fill:none}
    .fil0 {fill:black}
   ]]>
  </style>
 </defs>
 <g id="Layer_x0020_1">
  <metadata id="CorelCorpID_0Corel-Layer"/>
  <g id="_1883884712400">
   <path class="fil0" d="M5678 15397l8329 0 0 -11109 -5801 0 -2528 2534 0 8575 0 0zm4165 -3297l2429 0 0 -350 -2429 0 0 350zm0 1735l2429 0 0 -345 -2429 0 0 345zm-2639 -1267l-185 258 185 258 -31 320 289 136 135 289 320 -31 258 185 259 -185 320 31 135 -289 289 -136 -31 -320 191 -258 -191 -258 31 -320 -289 -136 -135 -289 -320 31 -259 -184 -258 184 -320 -31 -135 289 -289 136 31 320zm461 769c-129,-130 -209,-314 -209,-511 0,-197 80,-381 209,-511 129,-129 314,-209 510,-209 197,0 382,80 511,209 129,130 215,314 215,511 0,197 -86,381 -215,511 -129,129 -314,209 -511,209 -196,0 -381,-80 -510,-209zm-252 -3322l4859 0 0 350 -4859 0 0 -350zm0 -1735l4859 0 0 345 -4859 0 0 -345zm1728 -1735l3131 0 0 345 -3131 0 0 -345zm4522 8508l-7641 0 0 -7985 2430 0 0 -2436 5211 0 0 10421 0 0zm-7395 -8335l1840 -1840 0 1840 -1840 0z"/>
   <rect class="fil1" width="19685" height="19685"/>
  </g>
 </g>
</svg>
