<?xml version="1.0" encoding="UTF-8"?>
<!DOCTYPE svg PUBLIC "-//W3C//DTD SVG 1.1//EN" "http://www.w3.org/Graphics/SVG/1.1/DTD/svg11.dtd">
<!-- Creator: CorelDRAW X7 -->
<svg xmlns="http://www.w3.org/2000/svg" xml:space="preserve" width="1.9685in" height="1.9685in" version="1.1" style="shape-rendering:geometricPrecision; text-rendering:geometricPrecision; image-rendering:optimizeQuality; fill-rule:evenodd; clip-rule:evenodd"
viewBox="0 0 19685 19685"
 xmlns:xlink="http://www.w3.org/1999/xlink">
 <defs>
  <style type="text/css">
   <![CDATA[
    .fil0 {fill:none}
    .fil1 {fill:black}
   ]]>
  </style>
 </defs>
 <g id="Layer_x0020_1">
  <metadata id="CorelCorpID_0Corel-Layer"/>
  <g id="_1885481117904">
   <g id="_891609259312">
    <rect class="fil0" width="19685" height="19685"/>
    <path class="fil1" d="M7496 10152l1460 1460 3235 -3239 -302 -300c-1420,1420 -1516,1516 -2933,2933l-1158 -1156 -302 302 0 0zm-1817 5246l8329 0 0 -11109 -5802 0 -2527 2532 0 8577 0 0zm7985 -344l-7641 0 0 -7987 2429 0 0 -2434 5212 0 0 10421zm-7395 -8337l1839 -1838 0 1838 -1839 0z"/>
   </g>
  </g>
 </g>
</svg>
