<?xml version="1.0" encoding="UTF-8"?>
<!DOCTYPE svg PUBLIC "-//W3C//DTD SVG 1.1//EN" "http://www.w3.org/Graphics/SVG/1.1/DTD/svg11.dtd">
<!-- Creator: CorelDRAW X7 -->
<svg xmlns="http://www.w3.org/2000/svg" xml:space="preserve" width="1.9685in" height="1.9685in" version="1.1" style="shape-rendering:geometricPrecision; text-rendering:geometricPrecision; image-rendering:optimizeQuality; fill-rule:evenodd; clip-rule:evenodd"
viewBox="0 0 19685 19685"
 xmlns:xlink="http://www.w3.org/1999/xlink">
 <defs>
  <style type="text/css">
   <![CDATA[
    .fil0 {fill:none}
    .fil1 {fill:black}
   ]]>
  </style>
 </defs>
 <g id="Layer_x0020_1">
  <metadata id="CorelCorpID_0Corel-Layer"/>
  <g id="_1883864977984">
   <rect class="fil0" width="19685" height="19685"/>
   <path class="fil1" d="M13773 13773c1046,-1051 1624,-2448 1624,-3930 0,-1483 -578,-2880 -1624,-3931 -1052,-1046 -2448,-1624 -3930,-1624 -1483,0 -2879,578 -3931,1624 -1046,1051 -1624,2448 -1624,3931 0,1482 578,2879 1624,3930 1052,1046 2448,1625 3931,1625 1482,0 2878,-579 3930,-1625zm-6091 -5788l303 -303 1858 1859 1857 -1859 303 303 -1859 1858 1859 1860 -302 300 -1858 -1858 -1859 1858 -302 -300 1859 -1860 -1859 -1858zm-3050 1858c0,-1391 541,-2701 1526,-3685 984,-985 2294,-1526 3685,-1526 1390,0 2700,541 3684,1526 985,984 1526,2294 1526,3685 0,1390 -541,2700 -1526,3684 -984,985 -2294,1526 -3684,1526 -1391,0 -2701,-541 -3685,-1526 -985,-984 -1526,-2294 -1526,-3684z"/>
  </g>
 </g>
</svg>
