<?xml version="1.0" encoding="UTF-8"?>
<!DOCTYPE svg PUBLIC "-//W3C//DTD SVG 1.1//EN" "http://www.w3.org/Graphics/SVG/1.1/DTD/svg11.dtd">
<!-- Creator: CorelDRAW X7 -->
<svg xmlns="http://www.w3.org/2000/svg" xml:space="preserve" width="1.9685in" height="1.9685in" version="1.1" style="shape-rendering:geometricPrecision; text-rendering:geometricPrecision; image-rendering:optimizeQuality; fill-rule:evenodd; clip-rule:evenodd"
viewBox="0 0 19685 19685"
 xmlns:xlink="http://www.w3.org/1999/xlink">
 <defs>
  <style type="text/css">
   <![CDATA[
    .fil0 {fill:none}
    .fil1 {fill:black;fill-rule:nonzero}
   ]]>
  </style>
 </defs>
 <g id="Layer_x0020_1">
  <metadata id="CorelCorpID_0Corel-Layer"/>
  <g id="_1885404913184">
   <rect class="fil0" width="19685" height="19685"/>
   <path class="fil1" d="M9843 4287c-1483,0 -2879,579 -3929,1628 -1048,1049 -1627,2445 -1627,3928 0,1484 579,2878 1627,3928 1050,1049 2446,1627 3929,1627 1484,0 2878,-578 3928,-1627 1050,-1050 1627,-2444 1627,-3928 0,-1483 -577,-2879 -1627,-3928 -1050,-1050 -2444,-1628 -3928,-1628zm623 5313l3671 -2708 0 0c594,862 913,1881 913,2951 0,1390 -540,2698 -1523,3682 -984,985 -2292,1525 -3684,1525 -1391,0 -2699,-540 -3683,-1525 -144,-144 -279,-296 -404,-454l2329 -1717 323 -238 811 -599 349 -255 263 -195 0 0 635 -467 0 0zm3465 -2986l0 0 -2289 1686c-23,-106 -55,-204 -96,-298 -92,-213 -230,-392 -400,-538 -188,-162 -423,-279 -680,-354l0 -866 -348 0 0 795c-97,-14 -195,-22 -293,-22 -86,0 -173,2 -258,12l0 -785 -348 0 0 845c-263,67 -507,184 -702,350 -113,98 -209,211 -286,334 -156,250 -233,543 -225,831 8,290 104,577 300,806 81,94 177,179 290,248 193,119 404,202 623,265l0 164 -3671 2706c-594,-862 -913,-1881 -913,-2950 0,-1393 540,-2699 1525,-3683 984,-983 2292,-1527 3682,-1527 1393,0 2700,544 3685,1527 144,144 279,296 404,454l0 0zm-5742 5096c86,200 213,369 369,506 183,161 411,280 661,355l0 870 349 0 0 -795c96,14 196,22 294,22 84,1 171,-2 256,-12l0 785 348 0 0 -847c259,-69 500,-184 692,-351 234,-204 394,-504 454,-820 57,-307 21,-634 -135,-902 -50,-86 -111,-161 -181,-230 -69,-68 -144,-125 -227,-175 -138,-87 -286,-152 -440,-204l-512 375 0 2021c-82,10 -167,15 -253,13 -100,0 -198,-9 -297,-25l0 -1602 -348 256 0 1256 -121 -50c-115,-54 -221,-121 -311,-202 -120,-106 -218,-236 -283,-390 -10,-23 -17,-44 -25,-67l-290 213 0 0zm1929 -2287l-368 271 -182 -40 0 -2277c84,-10 169,-13 255,-13 98,2 198,9 295,23l0 2036zm-899 -1975l0 2112c-157,-50 -307,-114 -440,-196 -83,-52 -152,-112 -210,-179 -142,-166 -211,-375 -217,-591 -6,-219 54,-446 173,-638 60,-94 133,-181 217,-254 133,-113 297,-198 477,-254l0 0zm1302 2795c131,44 254,98 366,167 61,38 119,83 167,129 48,46 88,98 123,155 112,195 137,435 94,666 -46,242 -165,469 -340,621 -129,112 -287,194 -460,252l-5 2 0 -2012 55 19 0 1zm806 -1710l-861 634 0 -1694c77,27 152,58 221,96 84,45 163,98 234,158 131,114 237,250 308,414 27,61 48,126 66,196 15,61 26,127 32,196l0 0z"/>
  </g>
 </g>
</svg>
