<?xml version="1.0" encoding="UTF-8"?>
<!DOCTYPE svg PUBLIC "-//W3C//DTD SVG 1.1//EN" "http://www.w3.org/Graphics/SVG/1.1/DTD/svg11.dtd">
<!-- Creator: CorelDRAW X7 -->
<svg xmlns="http://www.w3.org/2000/svg" xml:space="preserve" width="1.9685in" height="1.9685in" version="1.1" style="shape-rendering:geometricPrecision; text-rendering:geometricPrecision; image-rendering:optimizeQuality; fill-rule:evenodd; clip-rule:evenodd"
viewBox="0 0 19685 19685"
 xmlns:xlink="http://www.w3.org/1999/xlink">
 <defs>
  <style type="text/css">
   <![CDATA[
    .fil0 {fill:none}
    .fil1 {fill:black}
   ]]>
  </style>
 </defs>
 <g id="Layer_x0020_1">
  <metadata id="CorelCorpID_0Corel-Layer"/>
  <g id="_1885481087376">
   <rect class="fil0" width="19685" height="19685"/>
   <path class="fil1" d="M13663 4288l-7641 0 0 3672 -1734 726 0 6711 11109 0 0 -6711 -1734 -726 0 -3672 0 0zm-2689 2534l0 0c0,0 0,0 0,0zm-2085 -424c-141,92 -265,196 -375,332 -25,24 -49,61 -74,92 -80,111 -154,234 -215,363 -123,283 -191,578 -191,886 0,49 6,98 6,148 19,221 68,430 154,633 86,185 215,357 381,498 123,105 259,191 419,259 61,24 123,49 190,67 240,74 499,111 782,111 307,0 572,-43 787,-123 215,-80 406,-191 560,-326 160,-141 270,-277 338,-412l-344 0c-111,160 -283,301 -505,412 -154,74 -332,123 -535,148 -92,12 -197,18 -308,18 -307,0 -590,-49 -849,-160 -116,-49 -221,-110 -313,-184 -111,-86 -203,-191 -277,-314 -135,-228 -203,-492 -203,-806 0,-295 68,-572 203,-836 80,-148 172,-271 289,-382 86,-80 178,-154 283,-215 209,-117 437,-185 683,-203 43,0 92,-6 135,-6 265,0 505,55 720,166 135,74 252,160 344,258 0,0 0,0 0,0 0,0 7,0 7,0 49,62 98,117 135,185 111,184 160,381 160,596 0,0 0,0 0,6 0,179 -43,351 -123,517 -86,172 -203,308 -345,412 -18,13 -37,25 -49,31 -86,56 -160,86 -215,86 -37,0 -74,-12 -99,-37 -24,-24 -37,-55 -37,-92 0,-18 19,-117 56,-295l252 -1175 25 -105 -99 0 -240 0 -67 296c-74,-117 -160,-203 -259,-265 -104,-55 -209,-86 -320,-86 -141,0 -295,49 -449,154 -153,98 -283,252 -387,455 -99,203 -154,406 -154,609 0,166 37,314 98,449 68,141 154,240 265,308 105,67 215,98 332,98 99,0 203,-25 308,-86 98,-55 190,-135 277,-228 6,74 18,129 36,166 25,50 62,86 117,111 56,31 123,43 216,43 0,0 6,0 12,0 240,-6 467,-111 677,-314 24,-24 43,-49 67,-73 259,-283 388,-609 388,-979 0,-258 -62,-498 -185,-719 -12,-25 -24,-43 -43,-68 -141,-221 -326,-387 -553,-504 -210,-111 -449,-173 -708,-191 -43,0 -92,-6 -141,-6 -406,0 -751,92 -1040,277l0 0zm357 2147c-86,-99 -129,-234 -129,-406 0,-111 24,-234 61,-363 43,-130 99,-240 166,-333 68,-92 136,-160 209,-203 68,-36 148,-61 228,-61 123,0 228,49 314,148 86,92 129,227 129,399 0,130 -25,259 -68,388 -49,129 -104,240 -178,320 -74,86 -148,147 -228,190 -80,44 -154,62 -221,62 -111,0 -203,-43 -283,-141l0 0zm4072 -3913l0 5161 -3475 2178 -3470 -2178 0 -5161 6945 0zm-7296 4946l-1187 -744 1187 -499 0 1243 0 0zm-1390 5475l0 -5936 5211 3266 5210 -3266 0 5936 -10421 0 0 0zm10218 -6219l-1187 744 0 -1243 1187 499 0 0z"/>
  </g>
 </g>
</svg>
