<?xml version="1.0" encoding="UTF-8"?>
<!DOCTYPE svg PUBLIC "-//W3C//DTD SVG 1.1//EN" "http://www.w3.org/Graphics/SVG/1.1/DTD/svg11.dtd">
<!-- Creator: CorelDRAW X7 -->
<svg xmlns="http://www.w3.org/2000/svg" xml:space="preserve" width="1.9685in" height="1.9685in" version="1.1" style="shape-rendering:geometricPrecision; text-rendering:geometricPrecision; image-rendering:optimizeQuality; fill-rule:evenodd; clip-rule:evenodd"
viewBox="0 0 19685 19685"
 xmlns:xlink="http://www.w3.org/1999/xlink">
 <defs>
  <style type="text/css">
   <![CDATA[
    .fil0 {fill:none}
    .fil1 {fill:black;fill-rule:nonzero}
   ]]>
  </style>
 </defs>
 <g id="Layer_x0020_1">
  <metadata id="CorelCorpID_0Corel-Layer"/>
  <g id="_1885481138544">
   <rect class="fil0" width="19685" height="19685"/>
   <path class="fil1" d="M9568 6244l0 204 0 581 0 348 0 0 0 2277 0 356 0 0 0 92 0 2194 0 787 0 0 0 358 -348 0 0 -870c-250,-75 -479,-194 -662,-355 -158,-141 -287,-312 -373,-518 -81,-190 -127,-407 -127,-650l175 0 173 0c0,87 8,171 21,248 16,97 42,185 77,268 65,154 164,284 283,390 90,81 196,148 311,202 39,17 79,35 121,50l0 -1858 0 -425c-219,-63 -430,-146 -623,-265 -113,-69 -209,-154 -290,-248 -196,-229 -292,-516 -300,-806 -8,-289 69,-581 225,-831 77,-123 173,-236 287,-334 194,-166 438,-283 702,-351l0 -844 348 0 0 0zm550 795l0 0 0 -795 348 0 0 866c257,75 492,192 680,354 170,146 308,325 400,538 87,200 135,427 135,681l-112 0 -61 0 -173 0c0,-125 -16,-240 -40,-346 -18,-69 -39,-135 -66,-196 -71,-164 -177,-300 -308,-414 -71,-59 -150,-113 -234,-158 -69,-38 -144,-69 -221,-96l0 1993 0 394c215,61 419,140 603,256 83,50 158,107 227,175 70,69 131,144 181,230 156,268 192,595 135,902 -60,316 -219,616 -454,820 -192,167 -433,282 -692,352l0 846 -348 0 0 -785 0 0 0 -348 0 0 0 -2179 0 0 0 -356 0 -61 0 -2325 0 -348zm-899 2521l0 -2112c-180,56 -344,141 -477,254 -84,73 -157,160 -217,254 -119,192 -179,419 -173,638 6,216 75,425 217,591 58,67 127,127 210,179 133,82 283,146 440,196l0 0zm1247 2675l5 -2c173,-58 331,-140 460,-252 175,-152 294,-379 340,-621 43,-231 18,-471 -94,-665 -34,-58 -75,-110 -123,-156 -48,-46 -106,-91 -167,-129 -112,-69 -235,-123 -366,-167 -17,-8 -36,-14 -55,-20l0 2012 0 0zm-623 -7948c1484,0 2878,579 3928,1628 1050,1049 1627,2445 1627,3927 0,1485 -577,2879 -1627,3929 -1050,1048 -2444,1627 -3928,1627 -1485,0 -2879,-579 -3929,-1627 -1048,-1050 -1627,-2444 -1627,-3929 0,-1482 579,-2878 1627,-3927 1050,-1050 2444,-1628 3929,-1628zm-3683 9238c984,985 2292,1525 3683,1525 1392,0 2700,-540 3682,-1525 985,-984 1527,-2292 1527,-3683 0,-1392 -542,-2698 -1527,-3682 -982,-983 -2290,-1527 -3682,-1527 -1391,0 -2699,544 -3683,1527 -985,984 -1525,2290 -1525,3682 0,1391 540,2699 1525,3683z"/>
  </g>
 </g>
</svg>
