<?xml version="1.0" encoding="UTF-8"?>
<!DOCTYPE svg PUBLIC "-//W3C//DTD SVG 1.1//EN" "http://www.w3.org/Graphics/SVG/1.1/DTD/svg11.dtd">
<!-- Creator: CorelDRAW X7 -->
<svg xmlns="http://www.w3.org/2000/svg" xml:space="preserve" width="1.9685in" height="1.9685in" version="1.1" style="shape-rendering:geometricPrecision; text-rendering:geometricPrecision; image-rendering:optimizeQuality; fill-rule:evenodd; clip-rule:evenodd"
viewBox="0 0 19685 19685"
 xmlns:xlink="http://www.w3.org/1999/xlink">
 <defs>
  <style type="text/css">
   <![CDATA[
    .fil0 {fill:none}
    .fil1 {fill:black}
   ]]>
  </style>
 </defs>
 <g id="Layer_x0020_1">
  <metadata id="CorelCorpID_0Corel-Layer"/>
  <g id="_1885416493632">
   <rect class="fil0" width="19685" height="19685"/>
   <path class="fil1" d="M6825 10085c371,0 627,-77 769,-231 143,-154 212,-342 212,-565 0,-129 -25,-249 -79,-356 -52,-108 -123,-193 -210,-252 -86,-62 -196,-100 -323,-123 -92,-16 -225,-25 -400,-25l-988 0 0 2619 348 0 0 -1067 671 0zm-911 -4171c-1050,1050 -1627,2444 -1627,3928 0,1485 577,2881 1627,3931 1050,1048 2444,1627 3928,1625 1485,0 2879,-577 3929,-1627 1050,-1048 1627,-2444 1627,-3929 2,-1484 -577,-2878 -1625,-3928 -1050,-1050 -2446,-1627 -3931,-1627 -1484,0 -2878,577 -3928,1627zm9138 3928c0,1393 -542,2701 -1525,3685 -984,983 -2292,1525 -3685,1525 -1392,0 -2700,-542 -3682,-1525 -985,-984 -1527,-2292 -1527,-3685 2,-1390 542,-2700 1527,-3682 982,-985 2292,-1527 3682,-1527 1393,0 2701,542 3685,1527 983,982 1525,2290 1525,3682zm-2619 -1309l-1006 2619 367 0 285 -794 1102 0 304 794 394 0 -1065 -2619 -381 0 0 0zm-252 1544l287 -769c61,-165 109,-333 144,-504 44,144 106,327 188,546l273 727 -892 0zm-4096 -1544l688 2619 364 0 548 -1996 81 -306 84 306 548 1996 339 0 717 -2619 -348 0 -410 1684c-53,214 -100,404 -134,570 -43,-289 -112,-598 -204,-927l-375 -1327 -417 0 -497 1769 -119 485c-32,-177 -71,-356 -113,-537l-393 -1717 -359 0zm-637 767c0,152 -46,269 -140,352 -94,83 -254,125 -477,125l-677 0 0 -936 669 0c158,0 266,7 323,23 91,25 164,77 219,153 56,79 83,174 83,283z"/>
  </g>
 </g>
</svg>
