<?xml version="1.0" encoding="UTF-8"?>
<!DOCTYPE svg PUBLIC "-//W3C//DTD SVG 1.1//EN" "http://www.w3.org/Graphics/SVG/1.1/DTD/svg11.dtd">
<!-- Creator: CorelDRAW X7 -->
<svg xmlns="http://www.w3.org/2000/svg" xml:space="preserve" width="1.9685in" height="1.9685in" version="1.1" style="shape-rendering:geometricPrecision; text-rendering:geometricPrecision; image-rendering:optimizeQuality; fill-rule:evenodd; clip-rule:evenodd"
viewBox="0 0 19685 19685"
 xmlns:xlink="http://www.w3.org/1999/xlink">
 <defs>
  <style type="text/css">
   <![CDATA[
    .fil0 {fill:none}
    .fil1 {fill:black}
   ]]>
  </style>
 </defs>
 <g id="Layer_x0020_1">
  <metadata id="CorelCorpID_0Corel-Layer"/>
  <g id="_1885453348576">
   <rect class="fil0" width="19685" height="19685"/>
   <path class="fil1" d="M6994 9669l5033 0 -1888 -1888 246 -246 2308 2308 -2308 2309 -246 -246 1888 -1890 -5033 0 0 -347zm-2707 173c0,-1484 577,-2880 1627,-3930 1050,-1048 2444,-1627 3928,-1625 1485,0 2879,577 3929,1627 1051,1048 1627,2444 1627,3928 0,1485 -576,2881 -1627,3929 -1050,1051 -2444,1627 -3929,1627 -1484,2 -2878,-576 -3928,-1625 -1050,-1050 -1627,-2446 -1627,-3931zm10765 0c0,-1392 -542,-2700 -1525,-3684 -984,-983 -2292,-1525 -3685,-1525 -1392,0 -2700,542 -3682,1525 -985,984 -1527,2292 -1527,3684 0,1393 542,2701 1527,3685 982,983 2290,1525 3682,1525 1393,0 2701,-542 3685,-1525 983,-984 1525,-2292 1525,-3685z"/>
  </g>
 </g>
</svg>
