<?xml version="1.0" encoding="UTF-8"?>
<!DOCTYPE svg PUBLIC "-//W3C//DTD SVG 1.1//EN" "http://www.w3.org/Graphics/SVG/1.1/DTD/svg11.dtd">
<!-- Creator: CorelDRAW X7 -->
<svg xmlns="http://www.w3.org/2000/svg" xml:space="preserve" width="1.02362in" height="1.02362in" version="1.1" style="shape-rendering:geometricPrecision; text-rendering:geometricPrecision; image-rendering:optimizeQuality; fill-rule:evenodd; clip-rule:evenodd"
viewBox="0 0 10236 10236"
 xmlns:xlink="http://www.w3.org/1999/xlink">
 <defs>
  <style type="text/css">
   <![CDATA[
    .fil0 {fill:none}
    .fil1 {fill:black}
   ]]>
  </style>
 </defs>
 <g id="Layer_x0020_1">
  <metadata id="CorelCorpID_0Corel-Layer"/>
  <g id="_2265874642640">
   <rect class="fil0" width="10236" height="10236"/>
   <path class="fil1" d="M6230 4723c-1631,0 -1927,0 -3557,0 0,-210 0,-420 0,-630 1630,0 1926,0 3557,0 0,210 0,420 0,630zm1334 2841l-4891 0 0 -630 4891 0 0 630zm222 -853l-5336 0 0 1075 5336 0 0 -1075zm-2223 -3409l-2890 0 0 -629 2890 0 0 629zm222 -852l-3335 0 0 1075 3335 0 0 -1075zm1112 3693c-1631,0 -2594,0 -4224,0 0,-210 0,-420 0,-630 1630,0 2593,0 4224,0 0,210 0,420 0,630zm222 -852c-1779,0 -2890,0 -4669,0 0,358 0,716 0,1075 1779,0 2890,0 4669,0 0,-359 0,-717 0,-1075zm-667 -1420c-1778,0 -2223,0 -4002,0 0,358 0,716 0,1074 1779,0 2224,0 4002,0 0,-358 0,-716 0,-1074z"/>
  </g>
 </g>
</svg>
