<?xml version="1.0" encoding="UTF-8"?>
<!DOCTYPE svg PUBLIC "-//W3C//DTD SVG 1.1//EN" "http://www.w3.org/Graphics/SVG/1.1/DTD/svg11.dtd">
<!-- Creator: CorelDRAW X7 -->
<svg xmlns="http://www.w3.org/2000/svg" xml:space="preserve" width="1.02362in" height="1.02362in" version="1.1" style="shape-rendering:geometricPrecision; text-rendering:geometricPrecision; image-rendering:optimizeQuality; fill-rule:evenodd; clip-rule:evenodd"
viewBox="0 0 10236 10236"
 xmlns:xlink="http://www.w3.org/1999/xlink">
 <defs>
  <style type="text/css">
   <![CDATA[
    .fil0 {fill:none}
    .fil1 {fill:black}
   ]]>
  </style>
 </defs>
 <g id="Layer_x0020_1">
  <metadata id="CorelCorpID_0Corel-Layer"/>
  <g id="_2265922380560">
   <rect class="fil0" width="10236" height="10236"/>
   <path class="fil1" d="M5513 4006c0,1631 0,1927 0,3558 210,0 420,0 630,0 0,-1631 0,-1927 0,-3558 -210,0 -420,0 -630,0zm-2840 -1333l0 4891 629 0 0 -4891 -629 0zm852 -223l0 5336 -1075 0 0 -5336 1075 0zm3409 2223l0 2891 630 0 0 -2891 -630 0zm852 -222l0 3335 -1075 0 0 -3335 1075 0zm-3693 -1111c0,1630 0,2593 0,4224 210,0 420,0 630,0 0,-1631 0,-2594 0,-4224 -210,0 -420,0 -630,0zm852 -223c0,1779 0,2890 0,4669 -358,0 -716,0 -1074,0 0,-1779 0,-2890 0,-4669 358,0 716,0 1074,0zm1421 667c0,1779 0,2223 0,4002 -359,0 -717,0 -1075,0 0,-1779 0,-2223 0,-4002 358,0 716,0 1075,0z"/>
  </g>
 </g>
</svg>
