<?xml version="1.0" encoding="UTF-8"?>
<!DOCTYPE svg PUBLIC "-//W3C//DTD SVG 1.1//EN" "http://www.w3.org/Graphics/SVG/1.1/DTD/svg11.dtd">
<!-- Creator: CorelDRAW X7 -->
<svg xmlns="http://www.w3.org/2000/svg" xml:space="preserve" width="1.02362in" height="1.02362in" version="1.1" style="shape-rendering:geometricPrecision; text-rendering:geometricPrecision; image-rendering:optimizeQuality; fill-rule:evenodd; clip-rule:evenodd"
viewBox="0 0 10236 10236"
 xmlns:xlink="http://www.w3.org/1999/xlink">
 <defs>
  <style type="text/css">
   <![CDATA[
    .fil0 {fill:none}
    .fil1 {fill:black}
   ]]>
  </style>
 </defs>
 <g id="Layer_x0020_1">
  <metadata id="CorelCorpID_0Corel-Layer"/>
  <g id="_1815681082400">
   <rect class="fil0" width="10236" height="10236"/>
   <path class="fil1" d="M3747 2228l-222 0 0 1297 -1297 0 0 222 1297 0 0 315c35,-12 72,-19 111,-19 39,0 76,7 111,19l0 -315 826 0c-7,-36 -11,-73 -11,-111 0,-38 4,-75 11,-111l-826 0 0 -1297zm1238 3631c0,74 59,134 133,134 74,0 134,-60 134,-134 0,-74 -60,-133 -134,-133 -74,0 -133,59 -133,133zm-1482 -1482c0,74 59,134 133,134 74,0 134,-60 134,-134 0,-74 -60,-133 -134,-133 -74,0 -133,59 -133,133zm3097 -133c-74,0 -133,59 -133,133 0,74 59,134 133,134 74,0 134,-60 134,-134 0,-74 -60,-133 -134,-133zm0 2245c62,0 111,50 111,111 0,62 -49,111 -111,111 -61,0 -111,-49 -111,-111 0,-61 50,-111 111,-111zm0 -222c-184,0 -333,149 -333,333 0,184 149,334 333,334 184,0 334,-150 334,-334 0,-184 -150,-333 -334,-333zm-1482 -2742c62,0 111,50 111,111 0,61 -49,111 -111,111 -61,0 -111,-50 -111,-111 0,-61 50,-111 111,-111zm0 -223c-184,0 -334,150 -334,334 0,184 150,334 334,334 184,0 334,-150 334,-334 0,-184 -150,-334 -334,-334zm-1482 3187c61,0 111,50 111,111 0,62 -50,111 -111,111 -61,0 -111,-49 -111,-111 0,-61 50,-111 111,-111zm0 -222c-184,0 -334,149 -334,333 0,184 150,334 334,334 184,0 334,-150 334,-334 0,-184 -150,-333 -334,-333zm-111 -1575l0 315 -1297 0 0 222 1297 0 0 826c36,-7 73,-11 111,-11 38,0 75,4 111,11l0 -826 1260 0 0 316c35,-13 72,-19 111,-19 39,0 77,6 111,19l0 -316 1260 0 0 826c36,-7 73,-11 111,-11 38,0 75,4 111,11l0 -826 1298 0 0 -222 -1298 0 0 -315c-34,12 -72,19 -111,19 -39,0 -76,-7 -111,-19l0 315 -1260 0 0 -826c-36,7 -73,11 -111,11 -38,0 -75,-4 -111,-11l0 826 -1260 0 0 -315c-35,12 -72,19 -111,19 -39,0 -76,-7 -111,-19zm3186 -630l0 -315 1298 0 0 -222 -1298 0 0 -1297 -222 0 0 1297 -826 0c7,36 11,73 11,111 0,38 -4,75 -11,111l826 0 0 315c35,-12 72,-19 111,-19 39,0 77,7 111,19zm-1704 2112l0 315 -826 0c7,36 11,73 11,111 0,38 -4,75 -11,111l826 0 0 1298 222 0 0 -1298 826 0c-7,-36 -11,-73 -11,-111 0,-38 4,-75 11,-111l-826 0 0 -315c-34,12 -72,19 -111,19 -39,0 -76,-7 -111,-19zm1482 971l0 864 222 0 0 -864c-36,7 -73,11 -111,11 -38,0 -75,-4 -111,-11zm656 -434l864 0 0 -222 -864 0c7,36 11,73 11,111 0,38 -4,75 -11,111zm-4054 -222l-863 0 0 222 863 0c-7,-36 -11,-73 -11,-111 0,-38 4,-75 11,-111zm434 656l0 864 222 0 0 -864c-36,7 -73,11 -111,11 -38,0 -75,-4 -111,-11zm1704 -4054l0 -863 -222 0 0 863c36,-7 73,-11 111,-11 38,0 75,4 111,11z"/>
  </g>
 </g>
</svg>
