<?xml version="1.0" encoding="UTF-8"?>
<!DOCTYPE svg PUBLIC "-//W3C//DTD SVG 1.1//EN" "http://www.w3.org/Graphics/SVG/1.1/DTD/svg11.dtd">
<!-- Creator: CorelDRAW X7 -->
<svg xmlns="http://www.w3.org/2000/svg" xml:space="preserve" width="1.02362in" height="1.02362in" version="1.1" style="shape-rendering:geometricPrecision; text-rendering:geometricPrecision; image-rendering:optimizeQuality; fill-rule:evenodd; clip-rule:evenodd"
viewBox="0 0 10236 10236"
 xmlns:xlink="http://www.w3.org/1999/xlink">
 <defs>
  <style type="text/css">
   <![CDATA[
    .fil0 {fill:none}
    .fil1 {fill:black}
   ]]>
  </style>
 </defs>
 <g id="Layer_x0020_1">
  <metadata id="CorelCorpID_0Corel-Layer"/>
  <g id="_2722077613280">
   <rect class="fil0" width="10236" height="10236"/>
   <path class="fil1" d="M5118 2391c1506,0 2727,1221 2727,2727 0,1506 -1221,2727 -2727,2727 -1506,0 -2727,-1221 -2727,-2727 0,-1506 1221,-2727 2727,-2727zm0 1112c-859,0 -1615,756 -1615,1615 0,860 756,1615 1615,1615 860,0 1615,-755 1615,-1615 0,-859 -755,-1615 -1615,-1615zm-1287 328c311,-310 727,-517 1176,-547l0 -668c-647,28 -1231,302 -1660,731 -429,429 -703,1013 -731,1660l668 0c30,-449 237,-865 547,-1176zm1398 -547c449,30 866,237 1176,547 336,336 550,796 550,1287 0,453 -182,879 -473,1206l484 485c408,-446 657,-1039 657,-1691 0,-691 -281,-1318 -734,-1771 -429,-429 -1012,-703 -1660,-731l0 668zm1095 3198c-327,291 -753,473 -1206,473 -491,0 -951,-214 -1287,-550 -310,-310 -517,-727 -547,-1176l-668 0c28,648 302,1231 731,1660 453,453 1080,734 1771,734 652,0 1245,-249 1691,-657l-485 -484z"/>
  </g>
 </g>
</svg>
