<?xml version="1.0" encoding="UTF-8"?>
<!DOCTYPE svg PUBLIC "-//W3C//DTD SVG 1.1//EN" "http://www.w3.org/Graphics/SVG/1.1/DTD/svg11.dtd">
<!-- Creator: CorelDRAW X7 -->
<svg xmlns="http://www.w3.org/2000/svg" xml:space="preserve" width="1.02362in" height="1.02362in" version="1.1" style="shape-rendering:geometricPrecision; text-rendering:geometricPrecision; image-rendering:optimizeQuality; fill-rule:evenodd; clip-rule:evenodd"
viewBox="0 0 10236 10236"
 xmlns:xlink="http://www.w3.org/1999/xlink">
 <defs>
  <style type="text/css">
   <![CDATA[
    .fil0 {fill:none}
    .fil1 {fill:#373435}
   ]]>
  </style>
 </defs>
 <g id="Layer_x0020_1">
  <metadata id="CorelCorpID_0Corel-Layer"/>
  <g id="_2265910735952">
   <rect class="fil0" width="10236" height="10236"/>
   <path class="fil1" d="M5118 2450c-1473,0 -2668,1195 -2668,2668 0,1474 1195,2668 2668,2668 1474,0 2668,-1194 2668,-2668 0,-1473 -1194,-2668 -2668,-2668zm1360 3871l446 446c397,-435 640,-1014 640,-1649 0,-675 -274,-1287 -717,-1729 -418,-418 -987,-686 -1618,-714l0 631c457,27 869,224 1173,528 329,329 532,783 532,1284 0,461 -172,883 -456,1203l0 0zm289 603l-446 -446c-320,284 -742,456 -1203,456 -501,0 -955,-203 -1284,-532 -304,-304 -501,-716 -528,-1173l-631 0c28,631 296,1200 714,1618 442,443 1054,717 1729,717 635,0 1214,-243 1649,-640zm-3461 -1917l-631 0c28,-631 296,-1200 714,-1618 418,-418 987,-686 1618,-714l0 631c-457,27 -869,224 -1173,528 -304,304 -501,716 -528,1173zm1812 -1482c-880,0 -1593,713 -1593,1593 0,880 713,1593 1593,1593 880,0 1593,-713 1593,-1593 0,-880 -713,-1593 -1593,-1593z"/>
  </g>
 </g>
</svg>
