<?xml version="1.0" encoding="UTF-8"?>
<!DOCTYPE svg PUBLIC "-//W3C//DTD SVG 1.1//EN" "http://www.w3.org/Graphics/SVG/1.1/DTD/svg11.dtd">
<!-- Creator: CorelDRAW X7 -->
<svg xmlns="http://www.w3.org/2000/svg" xml:space="preserve" width="1.02362in" height="1.02362in" version="1.1" style="shape-rendering:geometricPrecision; text-rendering:geometricPrecision; image-rendering:optimizeQuality; fill-rule:evenodd; clip-rule:evenodd"
viewBox="0 0 10236 10236"
 xmlns:xlink="http://www.w3.org/1999/xlink">
 <defs>
  <style type="text/css">
   <![CDATA[
    .fil0 {fill:none}
    .fil1 {fill:black}
   ]]>
  </style>
 </defs>
 <g id="Layer_x0020_1">
  <metadata id="CorelCorpID_0Corel-Layer"/>
  <g id="_2722077643296">
   <rect class="fil0" width="10236" height="10236"/>
   <path class="fil1" d="M7241 3153l-158 -157 315 -315 157 157 -314 315zm768 2076l0 -222 444 0 0 222 -444 0zm-926 2012l158 -158 314 315 -157 157 -315 -314zm-1854 -5013l-111 0 -111 0 0 -445 111 0 111 0 0 445zm1667 2890c0,159 -21,314 -60,461l-215 -58c35,-129 53,-264 53,-403 0,-860 -696,-1556 -1556,-1556 -860,0 -1556,696 -1556,1556 0,470 208,891 537,1176l-157 158c-369,-326 -602,-803 -602,-1334 0,-982 796,-1778 1778,-1778 983,0 1778,796 1778,1778zm-1134 -172c-76,-285 -335,-494 -644,-494 -369,0 -666,297 -666,666 0,225 110,423 280,543l-159 159c-209,-162 -344,-416 -344,-702 0,-491 398,-889 889,-889 412,0 758,279 859,659l-215 58zm2024 172c0,777 -332,1476 -862,1963l-157 -157c490,-447 797,-1091 797,-1806 0,-1351 -1095,-2446 -2446,-2446 -1351,0 -2445,1095 -2445,2446 0,715 307,1359 796,1806l-157 157c-530,-487 -862,-1186 -862,-1963 0,-1473 1195,-2668 2668,-2668 1474,0 2668,1195 2668,2668zm-4790 -1965l157 -157 -315 -315 -157 157 315 315zm-768 2076l0 -222 -445 0 0 222 445 0zm925 2012l-157 -158 -315 315 157 157 315 -314z"/>
  </g>
 </g>
</svg>
