<?xml version="1.0" encoding="UTF-8"?>
<!DOCTYPE svg PUBLIC "-//W3C//DTD SVG 1.1//EN" "http://www.w3.org/Graphics/SVG/1.1/DTD/svg11.dtd">
<!-- Creator: CorelDRAW X7 -->
<svg xmlns="http://www.w3.org/2000/svg" xml:space="preserve" width="1.02362in" height="1.02362in" version="1.1" style="shape-rendering:geometricPrecision; text-rendering:geometricPrecision; image-rendering:optimizeQuality; fill-rule:evenodd; clip-rule:evenodd"
viewBox="0 0 10236 10236"
 xmlns:xlink="http://www.w3.org/1999/xlink">
 <defs>
  <style type="text/css">
   <![CDATA[
    .fil0 {fill:none}
    .fil1 {fill:black}
   ]]>
  </style>
 </defs>
 <g id="Layer_x0020_1">
  <metadata id="CorelCorpID_0Corel-Layer"/>
  <g id="_2265911832464">
   <rect class="fil0" width="10236" height="10236"/>
   <path class="fil1" d="M2895 5118c0,654 282,1242 732,1649l157 -158c-409,-366 -667,-898 -667,-1491 0,-1105 896,-2001 2001,-2001 1105,0 2001,896 2001,2001l222 0c0,-1228 -995,-2223 -2223,-2223 -1228,0 -2223,995 -2223,2223zm445 0c0,531 233,1008 602,1334l157 -158c-329,-285 -537,-706 -537,-1176 0,-860 696,-1556 1556,-1556 576,0 1079,313 1348,778l0 0 193 -111c-308,-532 -883,-889 -1541,-889 -982,0 -1778,796 -1778,1778zm445 0c0,409 183,774 472,1018l158 -157c-249,-204 -408,-514 -408,-861 0,-614 497,-1111 1111,-1111 203,0 392,54 556,148l111 -192c-196,-114 -424,-179 -667,-179 -737,0 -1333,597 -1333,1334zm444 0c0,286 135,540 344,702l159 -159c-170,-120 -280,-318 -280,-543 0,-369 297,-666 666,-666l0 -223c-491,0 -889,398 -889,889zm-1779 0c0,777 332,1476 862,1963l157 -157c-489,-447 -796,-1091 -796,-1806 0,-1351 1094,-2446 2445,-2446 1351,0 2446,1095 2446,2446 0,715 -307,1359 -797,1806l157 157c530,-487 862,-1186 862,-1963 0,-1473 -1194,-2668 -2668,-2668 -1473,0 -2668,1195 -2668,2668z"/>
  </g>
 </g>
</svg>
