<?xml version="1.0" encoding="UTF-8"?>
<!DOCTYPE svg PUBLIC "-//W3C//DTD SVG 1.1//EN" "http://www.w3.org/Graphics/SVG/1.1/DTD/svg11.dtd">
<!-- Creator: CorelDRAW X7 -->
<svg xmlns="http://www.w3.org/2000/svg" xml:space="preserve" width="1.02362in" height="1.02362in" version="1.1" style="shape-rendering:geometricPrecision; text-rendering:geometricPrecision; image-rendering:optimizeQuality; fill-rule:evenodd; clip-rule:evenodd"
viewBox="0 0 10236 10236"
 xmlns:xlink="http://www.w3.org/1999/xlink">
 <defs>
  <style type="text/css">
   <![CDATA[
    .fil0 {fill:none}
    .fil1 {fill:black}
   ]]>
  </style>
 </defs>
 <g id="Layer_x0020_1">
  <metadata id="CorelCorpID_0Corel-Layer"/>
  <g id="_2265868844592">
   <rect class="fil0" width="10236" height="10236"/>
   <path class="fil1" d="M2895 5118c0,654 282,1242 732,1649l157 -158c-409,-366 -667,-898 -667,-1491 0,-1105 896,-2001 2001,-2001 1105,0 2001,896 2001,2001 0,593 -258,1125 -667,1491l158 158c449,-407 731,-995 731,-1649 0,-1228 -995,-2223 -2223,-2223 -1228,0 -2223,995 -2223,2223zm566 -1801l-144 144 -315 -315 144 -144 315 315zm1759 -644l-204 0 0 -445 204 0 0 445zm1699 788l-144 -144 315 -315 144 144 -315 315zm645 1759l0 -204 445 0 0 204 -445 0zm-789 1699l144 -144 315 315 -144 144 -315 -315zm-3458 -144l144 144 -315 315 -144 -144 315 -315zm23 -1657c0,531 233,1008 602,1334l157 -158c-329,-285 -537,-706 -537,-1176 0,-860 696,-1556 1556,-1556 860,0 1556,696 1556,1556 0,284 -76,549 -208,778l0 0 192 112c152,-262 238,-566 238,-890 0,-982 -795,-1778 -1778,-1778 -982,0 -1778,796 -1778,1778zm445 0c0,409 183,774 472,1018l158 -157c-249,-204 -408,-514 -408,-861 0,-614 497,-1111 1111,-1111 614,0 1111,497 1111,1111 0,66 -5,130 -16,193l219 39c13,-76 20,-153 20,-232 0,-737 -597,-1334 -1334,-1334 -737,0 -1333,597 -1333,1334zm444 0c0,286 135,540 344,702l159 -159c-170,-120 -280,-318 -280,-543 0,-369 297,-666 666,-666 329,0 602,237 656,550l0 0 220 -38c-73,-418 -437,-735 -876,-735 -491,0 -889,398 -889,889zm-1556 -102l0 204 -445 0 0 -204 445 0z"/>
  </g>
 </g>
</svg>
