<?xml version="1.0" encoding="UTF-8"?>
<!DOCTYPE svg PUBLIC "-//W3C//DTD SVG 1.1//EN" "http://www.w3.org/Graphics/SVG/1.1/DTD/svg11.dtd">
<!-- Creator: CorelDRAW X7 -->
<svg xmlns="http://www.w3.org/2000/svg" xml:space="preserve" width="1.02362in" height="1.02362in" version="1.1" style="shape-rendering:geometricPrecision; text-rendering:geometricPrecision; image-rendering:optimizeQuality; fill-rule:evenodd; clip-rule:evenodd"
viewBox="0 0 10236 10236"
 xmlns:xlink="http://www.w3.org/1999/xlink">
 <defs>
  <style type="text/css">
   <![CDATA[
    .fil0 {fill:none}
    .fil1 {fill:black;fill-rule:nonzero}
   ]]>
  </style>
 </defs>
 <g id="Layer_x0020_1">
  <metadata id="CorelCorpID_0Corel-Layer"/>
  <g id="_2265911823056">
   <rect class="fil0" width="10236" height="10236"/>
   <path class="fil1" d="M7564 2673l-630 0 0 629 630 0 0 -629zm-4891 4261l0 630 629 0 0 -630 -629 0zm-223 852l0 -5336 5336 0 0 5336 -5336 0zm1075 -852l0 630 630 0 0 -630 -630 0zm852 0l0 630 630 0 0 -630 -630 0zm852 0l0 630 630 0 0 -630 -630 0zm853 0l0 630 629 0 0 -630 -629 0zm-3409 -852l0 629 629 0 0 -629 -629 0zm852 0l0 629 630 0 0 -629 -630 0zm852 0l0 629 630 0 0 -629 -630 0zm852 0l0 629 630 0 0 -629 -630 0zm853 0l0 629 629 0 0 -629 -629 0zm-3409 -853l0 630 629 0 0 -630 -629 0zm852 0l0 630 630 0 0 -630 -630 0zm852 0l0 630 630 0 0 -630 -630 0zm852 0l0 630 630 0 0 -630 -630 0zm853 0l0 630 629 0 0 -630 -629 0zm-3409 -852l0 630 629 0 0 -630 -629 0zm852 0l0 630 630 0 0 -630 -630 0zm852 0l0 630 630 0 0 -630 -630 0zm852 0l0 630 630 0 0 -630 -630 0zm853 0l0 630 629 0 0 -630 -629 0zm-3409 -852l0 630 629 0 0 -630 -629 0zm852 0l0 630 630 0 0 -630 -630 0zm852 0l0 630 630 0 0 -630 -630 0zm852 0l0 630 630 0 0 -630 -630 0zm853 0l0 630 629 0 0 -630 -629 0zm-2780 -852l-629 0 0 629 629 0 0 -629zm853 0l-630 0 0 629 630 0 0 -629zm852 0l-630 0 0 629 630 0 0 -629zm852 0l-630 0 0 629 630 0 0 -629zm852 0l-629 0 0 629 629 0 0 -629zm223 4261l0 630 630 0 0 -630 -630 0zm0 -852l0 629 630 0 0 -629 -630 0zm0 -853l0 630 630 0 0 -630 -630 0zm0 -852l0 630 630 0 0 -630 -630 0zm0 -852l0 630 630 0 0 -630 -630 0z"/>
  </g>
 </g>
</svg>
