<?xml version="1.0" encoding="UTF-8"?>
<!DOCTYPE svg PUBLIC "-//W3C//DTD SVG 1.1//EN" "http://www.w3.org/Graphics/SVG/1.1/DTD/svg11.dtd">
<!-- Creator: CorelDRAW X7 -->
<svg xmlns="http://www.w3.org/2000/svg" xml:space="preserve" width="1.02362in" height="1.02362in" version="1.1" style="shape-rendering:geometricPrecision; text-rendering:geometricPrecision; image-rendering:optimizeQuality; fill-rule:evenodd; clip-rule:evenodd"
viewBox="0 0 10236 10236"
 xmlns:xlink="http://www.w3.org/1999/xlink">
 <defs>
  <style type="text/css">
   <![CDATA[
    .fil0 {fill:none}
    .fil1 {fill:black;fill-rule:nonzero}
   ]]>
  </style>
 </defs>
 <g id="Layer_x0020_1">
  <metadata id="CorelCorpID_0Corel-Layer"/>
  <g id="_2722089411392">
   <rect class="fil0" width="10236" height="10236"/>
   <path class="fil1" d="M7496 2740l-612 0 0 613 612 0 0 -613zm-4756 4144l0 612 613 0 0 -612 -613 0zm-216 828l0 -5188 5188 0 0 5188 -5188 0zm1045 -828l0 612 612 0 0 -612 -612 0zm829 0l0 612 612 0 0 -612 -612 0zm828 0l0 612 613 0 0 -612 -613 0zm829 0l0 612 612 0 0 -612 -612 0zm-3315 -829l0 612 613 0 0 -612 -613 0zm829 0l0 612 612 0 0 -612 -612 0zm829 0l0 612 612 0 0 -612 -612 0zm828 0l0 612 613 0 0 -612 -613 0zm829 0l0 612 612 0 0 -612 -612 0zm-3315 -829l0 613 613 0 0 -613 -613 0zm829 0l0 613 612 0 0 -613 -612 0zm829 0l0 613 612 0 0 -613 -612 0zm828 0l0 613 613 0 0 -613 -613 0zm829 0l0 613 612 0 0 -613 -612 0zm-3315 -828l0 612 613 0 0 -612 -613 0zm829 0l0 612 612 0 0 -612 -612 0zm829 0l0 612 612 0 0 -612 -612 0zm828 0l0 612 613 0 0 -612 -613 0zm829 0l0 612 612 0 0 -612 -612 0zm-3315 -829l0 612 613 0 0 -612 -613 0zm829 0l0 612 612 0 0 -612 -612 0zm829 0l0 612 612 0 0 -612 -612 0zm828 0l0 612 613 0 0 -612 -613 0zm829 0l0 612 612 0 0 -612 -612 0zm-2702 -829l-613 0 0 613 613 0 0 -613zm828 0l-612 0 0 613 612 0 0 -613zm829 0l-612 0 0 613 612 0 0 -613zm829 0l-613 0 0 613 613 0 0 -613zm828 0l-612 0 0 613 612 0 0 -613zm217 4144l0 612 612 0 0 -612 -612 0zm0 -829l0 612 612 0 0 -612 -612 0zm0 -829l0 613 612 0 0 -613 -612 0zm0 -828l0 612 612 0 0 -612 -612 0zm0 -829l0 612 612 0 0 -612 -612 0z"/>
  </g>
 </g>
</svg>
