<?xml version="1.0" encoding="UTF-8"?>
<!DOCTYPE svg PUBLIC "-//W3C//DTD SVG 1.1//EN" "http://www.w3.org/Graphics/SVG/1.1/DTD/svg11.dtd">
<!-- Creator: CorelDRAW X7 -->
<svg xmlns="http://www.w3.org/2000/svg" xml:space="preserve" width="1.02362in" height="1.02362in" version="1.1" style="shape-rendering:geometricPrecision; text-rendering:geometricPrecision; image-rendering:optimizeQuality; fill-rule:evenodd; clip-rule:evenodd"
viewBox="0 0 10236 10236"
 xmlns:xlink="http://www.w3.org/1999/xlink">
 <defs>
  <style type="text/css">
   <![CDATA[
    .fil0 {fill:none}
    .fil1 {fill:black}
   ]]>
  </style>
 </defs>
 <g id="Layer_x0020_1">
  <metadata id="CorelCorpID_0Corel-Layer"/>
  <g id="_2265846670736">
   <rect class="fil0" width="10236" height="10236"/>
   <path class="fil1" d="M7786 2450l0 223 -5336 0 0 -223 5336 0zm-2668 4001l0 223 -2668 0 0 -223 2668 0zm2668 1113l0 222 -5336 0 0 -222 5336 0zm-667 -557l0 223 -4669 0 0 -223 4669 0zm-1334 -2556l0 223 -3335 0 0 -223 3335 0zm0 1113l0 222 -3335 0 0 -222 3335 0zm2001 -557l0 223 -5336 0 0 -223 5336 0zm-2668 -1444l0 222 -2668 0 0 -222 2668 0zm2001 -557l0 223 -4669 0 0 -223 4669 0z"/>
  </g>
 </g>
</svg>
