<?xml version="1.0" encoding="UTF-8"?>
<!DOCTYPE svg PUBLIC "-//W3C//DTD SVG 1.1//EN" "http://www.w3.org/Graphics/SVG/1.1/DTD/svg11.dtd">
<!-- Creator: CorelDRAW X7 -->
<svg xmlns="http://www.w3.org/2000/svg" xml:space="preserve" width="1.02362in" height="1.02362in" version="1.1" style="shape-rendering:geometricPrecision; text-rendering:geometricPrecision; image-rendering:optimizeQuality; fill-rule:evenodd; clip-rule:evenodd"
viewBox="0 0 10236 10236"
 xmlns:xlink="http://www.w3.org/1999/xlink">
 <defs>
  <style type="text/css">
   <![CDATA[
    .fil1 {fill:none}
    .fil0 {fill:black}
   ]]>
  </style>
 </defs>
 <g id="Layer_x0020_1">
  <metadata id="CorelCorpID_0Corel-Layer"/>
  <g id="_2265847492304">
   <path class="fil0" d="M3302 2450l223 0 0 852 1482 0 0 -852 222 0 0 852 1482 0 0 -852 223 0 0 852 852 0 0 223 -852 0 0 967 -223 273 0 -1240 -1482 0 0 1010 -222 223 0 -1233 -1482 0 0 894 -223 273 0 -1167 -852 0 0 -223 852 0 0 -852zm4243 1643l70 -86 172 140 -701 860 700 0 0 222 -852 0 0 1482 852 0 0 223 -852 0 0 852 -223 0 0 -852 -1482 0 0 852 -222 0 0 -852 -1482 0 0 852 -223 0 0 -852 -852 0 0 -223 852 0 0 -1317 -681 835 -172 -140 701 -860 30 -36 897 -1100 197 70 0 844 483 0 -222 222 -261 0 0 576 576 -576 379 -379 766 -766 190 79 0 844 329 0 -182 222 -147 0 0 533 1360 -1669zm-834 1373l-552 677 -197 -70 0 -844 -733 0 0 1482 1482 0 0 -1245zm-749 -459l0 -576 -575 576 575 0zm-955 380l-766 765 -189 -79 0 -844 -527 0 0 1482 1482 0 0 -1324zm-955 -380l0 -532 -434 532 434 0zm-1188 222l-414 0 0 -222 596 0 -182 222z"/>
   <rect class="fil1" width="10236" height="10236"/>
  </g>
 </g>
</svg>
