<?xml version="1.0" encoding="UTF-8"?>
<!DOCTYPE svg PUBLIC "-//W3C//DTD SVG 1.1//EN" "http://www.w3.org/Graphics/SVG/1.1/DTD/svg11.dtd">
<!-- Creator: CorelDRAW X7 -->
<svg xmlns="http://www.w3.org/2000/svg" xml:space="preserve" width="1.02362in" height="1.02362in" version="1.1" style="shape-rendering:geometricPrecision; text-rendering:geometricPrecision; image-rendering:optimizeQuality; fill-rule:evenodd; clip-rule:evenodd"
viewBox="0 0 10236 10236"
 xmlns:xlink="http://www.w3.org/1999/xlink">
 <defs>
  <style type="text/css">
   <![CDATA[
    .fil0 {fill:none}
    .fil1 {fill:black}
   ]]>
  </style>
 </defs>
 <g id="Layer_x0020_1">
  <metadata id="CorelCorpID_0Corel-Layer"/>
  <g id="_2722077620640">
   <rect class="fil0" width="10236" height="10236"/>
   <path class="fil1" d="M5045 3851l0 -221 -2522 0 0 221 2522 0zm-2522 -1106l4523 0 0 -221 -4523 0 0 221zm0 553l5190 0 0 -221 -5190 0 0 221zm0 4193l4523 0 0 221 -4523 0 0 -221zm0 -553l5190 0 0 221 -5190 0 0 -221zm3189 -1157l0 -221 -3189 0 0 221 3189 0zm0 -1106l0 -221 -3189 0 0 221 3189 0zm2001 553l0 -221 -5190 0 0 221 5190 0zm-2668 1378l0 -221 -2522 0 0 221 2522 0z"/>
  </g>
 </g>
</svg>
