<?xml version="1.0" encoding="UTF-8"?>
<!DOCTYPE svg PUBLIC "-//W3C//DTD SVG 1.1//EN" "http://www.w3.org/Graphics/SVG/1.1/DTD/svg11.dtd">
<!-- Creator: CorelDRAW X7 -->
<svg xmlns="http://www.w3.org/2000/svg" xml:space="preserve" width="1.02362in" height="1.02362in" version="1.1" style="shape-rendering:geometricPrecision; text-rendering:geometricPrecision; image-rendering:optimizeQuality; fill-rule:evenodd; clip-rule:evenodd"
viewBox="0 0 10236 10236"
 xmlns:xlink="http://www.w3.org/1999/xlink">
 <defs>
  <style type="text/css">
   <![CDATA[
    .fil0 {fill:none}
    .fil1 {fill:black}
   ]]>
  </style>
 </defs>
 <g id="Layer_x0020_1">
  <metadata id="CorelCorpID_0Corel-Layer"/>
  <g id="_2265867643504">
   <rect class="fil0" width="10236" height="10236"/>
   <path class="fil1" d="M7786 2450l-222 0 0 5336 222 0 0 -5336zm-4001 2668l-223 0 0 2668 223 0 0 -2668zm-1112 -2668l-223 0 0 5336 223 0 0 -5336zm556 668l-223 0 0 4668 223 0 0 -4668zm2556 1333l-222 0 0 3335 222 0 0 -3335zm-1112 0l-223 0 0 3335 223 0 0 -3335zm556 -2001l-223 0 0 5336 223 0 0 -5336zm1445 2668l-223 0 0 2668 223 0 0 -2668zm556 -2000l-223 0 0 4668 223 0 0 -4668z"/>
  </g>
 </g>
</svg>
