<?xml version="1.0" encoding="UTF-8"?>
<!DOCTYPE svg PUBLIC "-//W3C//DTD SVG 1.1//EN" "http://www.w3.org/Graphics/SVG/1.1/DTD/svg11.dtd">
<!-- Creator: CorelDRAW X7 -->
<svg xmlns="http://www.w3.org/2000/svg" xml:space="preserve" width="1.02362in" height="1.02362in" version="1.1" style="shape-rendering:geometricPrecision; text-rendering:geometricPrecision; image-rendering:optimizeQuality; fill-rule:evenodd; clip-rule:evenodd"
viewBox="0 0 10236 10236"
 xmlns:xlink="http://www.w3.org/1999/xlink">
 <defs>
  <style type="text/css">
   <![CDATA[
    .fil0 {fill:none}
    .fil1 {fill:black}
   ]]>
  </style>
 </defs>
 <g id="Layer_x0020_1">
  <metadata id="CorelCorpID_0Corel-Layer"/>
  <g id="_2265911803024">
   <rect class="fil0" width="10236" height="10236"/>
   <path class="fil1" d="M3895 4006l0 -1556 -1445 0 0 1556 1445 0zm1946 0l0 -1556 -1445 0 0 1556 1445 0zm0 1890l0 -1556 -1445 0 0 1556 1445 0zm-223 -1333l0 666 -1000 0 0 -666 1000 0zm-1000 888l1000 0 0 223 -1000 0 0 -223zm1223 2335l0 -1556 -1445 0 0 1556 1445 0zm-223 -1334l0 667 -1000 0 0 -667 1000 0zm-1000 889l1000 0 0 223 -1000 0 0 -223zm1000 -4668l0 666 -1000 0 0 -666 1000 0zm-1000 888l1000 0 0 223 -1000 0 0 -223zm3168 445l0 -1556 -1445 0 0 1556 1445 0zm0 1890l0 -1556 -1445 0 0 1556 1445 0zm-222 -1333l0 666 -1000 0 0 -666 1000 0zm-1000 888l1000 0 0 223 -1000 0 0 -223zm1222 2335l0 -1556 -1445 0 0 1556 1445 0zm-222 -1334l0 667 -1000 0 0 -667 1000 0zm-1000 889l1000 0 0 223 -1000 0 0 -223zm1000 -4668l0 666 -1000 0 0 -666 1000 0zm-1000 888l1000 0 0 223 -1000 0 0 -223zm-2669 2335l0 -1556 -1445 0 0 1556 1445 0zm-222 -1333l0 666 -1000 0 0 -666 1000 0zm-1000 888l1000 0 0 223 -1000 0 0 -223zm1222 2335l0 -1556 -1445 0 0 1556 1445 0zm-222 -1334l0 667 -1000 0 0 -667 1000 0zm-1000 889l1000 0 0 223 -1000 0 0 -223zm1000 -4668l0 666 -1000 0 0 -666 1000 0zm-1000 888l1000 0 0 223 -1000 0 0 -223z"/>
  </g>
 </g>
</svg>
