<?xml version="1.0" encoding="UTF-8"?>
<!DOCTYPE svg PUBLIC "-//W3C//DTD SVG 1.1//EN" "http://www.w3.org/Graphics/SVG/1.1/DTD/svg11.dtd">
<!-- Creator: CorelDRAW X7 -->
<svg xmlns="http://www.w3.org/2000/svg" xml:space="preserve" width="1.02362in" height="1.02362in" version="1.1" style="shape-rendering:geometricPrecision; text-rendering:geometricPrecision; image-rendering:optimizeQuality; fill-rule:evenodd; clip-rule:evenodd"
viewBox="0 0 10236 10236"
 xmlns:xlink="http://www.w3.org/1999/xlink">
 <defs>
  <style type="text/css">
   <![CDATA[
    .fil0 {fill:none}
    .fil1 {fill:black;fill-rule:nonzero}
   ]]>
  </style>
 </defs>
 <g id="Layer_x0020_1">
  <metadata id="CorelCorpID_0Corel-Layer"/>
  <g id="_2722039818576">
   <rect class="fil0" width="10236" height="10236"/>
   <path class="fil1" d="M7008 2450c214,0 409,87 550,228l0 0c141,141 228,336 228,550 0,214 -87,409 -228,550l0 0c-141,141 -336,228 -550,228 -214,0 -409,-87 -549,-228l-1 0c-141,-141 -228,-336 -228,-550 0,-214 87,-409 228,-550l1 0c140,-141 335,-228 549,-228zm-3780 3780c214,0 409,87 550,228l0 1c141,140 228,335 228,549 0,214 -87,409 -228,550l0 0c-141,141 -336,228 -550,228 -214,0 -409,-87 -550,-228l0 0c-141,-141 -228,-336 -228,-550 0,-214 87,-409 228,-549l0 -1c141,-141 336,-228 550,-228zm393 385c-100,-100 -239,-162 -393,-162 -154,0 -293,62 -393,162l0 0c-100,101 -162,239 -162,393 0,154 62,293 162,393l0 0c100,101 239,163 393,163 154,0 293,-62 393,-163l0 0c100,-100 163,-239 163,-393 0,-154 -63,-292 -163,-393l0 0zm-393 -2275c214,0 409,87 550,228l0 0c141,141 228,336 228,550 0,214 -87,409 -228,550l0 0c-141,141 -336,228 -550,228 -214,0 -409,-87 -550,-228l0 0c-141,-141 -228,-336 -228,-550 0,-214 87,-409 228,-550l0 0c141,-141 336,-228 550,-228zm393 385c-100,-100 -239,-162 -393,-162 -154,0 -293,62 -393,162l0 0c-100,100 -162,239 -162,393 0,154 62,293 162,393l0 0c100,101 239,163 393,163 154,0 293,-62 393,-163l0 0c100,-100 163,-239 163,-393 0,-154 -63,-293 -163,-393l0 0zm1497 1505c214,0 409,87 550,228l0 1c141,140 228,335 228,549 0,214 -87,409 -228,550l0 0c-141,141 -336,228 -550,228 -214,0 -409,-87 -550,-228l0 0c-141,-141 -228,-336 -228,-550 0,-214 87,-409 228,-549l0 -1c141,-141 336,-228 550,-228zm393 385c-100,-100 -239,-162 -393,-162 -154,0 -293,62 -393,162l0 0c-100,101 -162,239 -162,393 0,154 62,293 162,393l0 0c100,101 239,163 393,163 154,0 293,-62 393,-163l0 0c101,-100 163,-239 163,-393 0,-154 -62,-292 -163,-393l0 0zm-393 -2275c214,0 409,87 550,228l0 0c141,141 228,336 228,550 0,214 -87,409 -228,550l0 0c-141,141 -336,228 -550,228 -214,0 -409,-87 -550,-228l0 0c-141,-141 -228,-336 -228,-550 0,-214 87,-409 228,-550l0 0c141,-141 336,-228 550,-228zm393 385c-100,-100 -239,-162 -393,-162 -154,0 -293,62 -393,162l0 0c-100,100 -162,239 -162,393 0,154 62,293 162,393l0 0c100,101 239,163 393,163 154,0 293,-62 393,-163l0 0c101,-100 163,-239 163,-393 0,-154 -62,-293 -163,-393l0 0zm1497 1505c214,0 409,87 550,228l0 1c141,140 228,335 228,549 0,214 -87,409 -228,550l0 0c-141,141 -336,228 -550,228 -214,0 -409,-87 -549,-228l-1 0c-141,-141 -228,-336 -228,-550 0,-214 87,-409 228,-549l1 -1c140,-141 335,-228 549,-228zm393 385c-100,-100 -239,-162 -393,-162 -154,0 -292,62 -393,162l0 0c-100,101 -162,239 -162,393 0,154 62,293 162,393l0 0c101,101 239,163 393,163 154,0 293,-62 393,-163l0 0c101,-100 163,-239 163,-393 0,-154 -62,-292 -163,-393l0 0zm-393 -2275c214,0 409,87 550,228l0 0c141,141 228,336 228,550 0,214 -87,409 -228,550l0 0c-141,141 -336,228 -550,228 -214,0 -409,-87 -549,-228l-1 0c-141,-141 -228,-336 -228,-550 0,-214 87,-409 228,-550l1 0c140,-141 335,-228 549,-228zm393 385c-100,-100 -239,-162 -393,-162 -154,0 -292,62 -393,162l0 0c-100,100 -162,239 -162,393 0,154 62,293 162,393l0 0c101,101 239,163 393,163 154,0 293,-62 393,-163l0 0c101,-100 163,-239 163,-393 0,-154 -62,-293 -163,-393l0 0zm-4173 -2275c214,0 409,87 550,228l0 0c141,141 228,336 228,550 0,214 -87,409 -228,550l0 0c-141,141 -336,228 -550,228 -214,0 -409,-87 -550,-228l0 0c-141,-141 -228,-336 -228,-550 0,-214 87,-409 228,-550l0 0c141,-141 336,-228 550,-228zm393 385c-100,-100 -239,-162 -393,-162 -154,0 -293,62 -393,162l0 0c-100,100 -162,239 -162,393 0,154 62,293 162,393l0 0c100,100 239,163 393,163 154,0 293,-63 393,-163l0 0c100,-100 163,-239 163,-393 0,-154 -63,-293 -163,-393l0 0zm1497 -385c214,0 409,87 550,228l0 0c141,141 228,336 228,550 0,214 -87,409 -228,550l0 0c-141,141 -336,228 -550,228 -214,0 -409,-87 -550,-228l0 0c-141,-141 -228,-336 -228,-550 0,-214 87,-409 228,-550l0 0c141,-141 336,-228 550,-228zm393 385c-100,-100 -239,-162 -393,-162 -154,0 -293,62 -393,162l0 0c-100,100 -162,239 -162,393 0,154 62,293 162,393l0 0c100,100 239,163 393,163 154,0 293,-63 393,-163l0 0c101,-100 163,-239 163,-393 0,-154 -62,-293 -163,-393l0 0zm1890 0c-100,-100 -239,-162 -393,-162 -154,0 -292,62 -393,162l0 0c-100,100 -162,239 -162,393 0,154 62,293 162,393l0 0c101,100 239,163 393,163 154,0 293,-63 393,-163l0 0c101,-100 163,-239 163,-393 0,-154 -62,-293 -163,-393l0 0z"/>
  </g>
 </g>
</svg>
