<?xml version="1.0" encoding="UTF-8"?>
<!DOCTYPE svg PUBLIC "-//W3C//DTD SVG 1.1//EN" "http://www.w3.org/Graphics/SVG/1.1/DTD/svg11.dtd">
<!-- Creator: CorelDRAW X7 -->
<svg xmlns="http://www.w3.org/2000/svg" xml:space="preserve" width="1.02362in" height="1.02362in" version="1.1" style="shape-rendering:geometricPrecision; text-rendering:geometricPrecision; image-rendering:optimizeQuality; fill-rule:evenodd; clip-rule:evenodd"
viewBox="0 0 10236 10236"
 xmlns:xlink="http://www.w3.org/1999/xlink">
 <defs>
  <style type="text/css">
   <![CDATA[
    .fil0 {fill:none}
    .fil1 {fill:black}
   ]]>
  </style>
 </defs>
 <g id="Layer_x0020_1">
  <metadata id="CorelCorpID_0Corel-Layer"/>
  <g id="_2721795227984">
   <rect class="fil0" width="10236" height="10236"/>
   <path class="fil1" d="M5118 2391c1506,0 2727,1221 2727,2727 0,1506 -1221,2727 -2727,2727 -1506,0 -2727,-1221 -2727,-2727 0,-1506 1221,-2727 2727,-2727zm-111 225l0 2391 -2391 0c28,-647 302,-1231 731,-1660 429,-429 1013,-703 1660,-731zm222 2391l0 -2391c648,28 1231,302 1660,731 453,453 734,1080 734,1771 0,652 -249,1245 -657,1691l-1737 -1737 0 -65zm-2613 222l2391 0 65 0 1737 1737c-446,408 -1039,657 -1691,657 -691,0 -1318,-281 -1771,-734 -429,-429 -703,-1012 -731,-1660z"/>
  </g>
 </g>
</svg>
