<?xml version="1.0" encoding="UTF-8"?>
<!DOCTYPE svg PUBLIC "-//W3C//DTD SVG 1.1//EN" "http://www.w3.org/Graphics/SVG/1.1/DTD/svg11.dtd">
<!-- Creator: CorelDRAW X7 -->
<svg xmlns="http://www.w3.org/2000/svg" xml:space="preserve" width="1.02362in" height="1.02362in" version="1.1" style="shape-rendering:geometricPrecision; text-rendering:geometricPrecision; image-rendering:optimizeQuality; fill-rule:evenodd; clip-rule:evenodd"
viewBox="0 0 10236 10236"
 xmlns:xlink="http://www.w3.org/1999/xlink">
 <defs>
  <style type="text/css">
   <![CDATA[
    .fil0 {fill:none}
    .fil1 {fill:#373435}
   ]]>
  </style>
 </defs>
 <g id="Layer_x0020_1">
  <metadata id="CorelCorpID_0Corel-Layer"/>
  <g id="_2265920051424">
   <rect class="fil0" width="10236" height="10236"/>
   <path class="fil1" d="M5118 2450c-1473,0 -2668,1195 -2668,2668 0,1474 1195,2668 2668,2668 1474,0 2668,-1194 2668,-2668 0,-1473 -1194,-2668 -2668,-2668zm111 225l0 2397 1695 1695c397,-435 640,-1014 640,-1649 0,-675 -274,-1287 -717,-1729 -418,-418 -987,-686 -1618,-714zm1538 4249l-1695 -1695 -2397 0c28,631 296,1200 714,1618 442,443 1054,717 1729,717 635,0 1214,-243 1649,-640zm-4092 -1917l2332 0 0 -2332c-631,28 -1200,296 -1618,714 -418,418 -686,987 -714,1618z"/>
  </g>
 </g>
</svg>
