<?xml version="1.0" encoding="UTF-8"?>
<!DOCTYPE svg PUBLIC "-//W3C//DTD SVG 1.1//EN" "http://www.w3.org/Graphics/SVG/1.1/DTD/svg11.dtd">
<!-- Creator: CorelDRAW X7 -->
<svg xmlns="http://www.w3.org/2000/svg" xml:space="preserve" width="1.02362in" height="1.02362in" version="1.1" style="shape-rendering:geometricPrecision; text-rendering:geometricPrecision; image-rendering:optimizeQuality; fill-rule:evenodd; clip-rule:evenodd"
viewBox="0 0 10236 10236"
 xmlns:xlink="http://www.w3.org/1999/xlink">
 <defs>
  <style type="text/css">
   <![CDATA[
    .fil0 {fill:none}
    .fil1 {fill:black}
   ]]>
  </style>
 </defs>
 <g id="Layer_x0020_1">
  <metadata id="CorelCorpID_0Corel-Layer"/>
  <g id="_2265914509648">
   <rect class="fil0" width="10236" height="10236"/>
   <path class="fil1" d="M7731 5841l0 -3280 -1529 0 0 3280 1529 0zm-223 -3057l0 2834 -1083 0 0 -2834 1083 0z"/>
   <path class="fil1" d="M6181 6202l0 1055 1550 0 0 -1055 -1550 0zm-3675 0l0 1055 1549 0 0 -1055 -1549 0zm222 833l0 -610 1104 0 0 610 -1104 0zm1616 -833l0 1055 1549 0 0 -1055 -1549 0zm222 833l0 -610 1104 0 0 610 -1104 0zm1838 0l0 -610 1104 0 0 610 -1104 0z"/>
   <path class="fil1" d="M2677 4034c54,-725 632,-1303 1357,-1357l0 446c-479,52 -859,432 -911,911l-446 0zm2937 0l-447 0c-51,-479 -431,-859 -910,-911l0 -446c724,54 1303,632 1357,1357zm-447 223l447 0c-54,724 -633,1303 -1357,1357l0 -447c479,-51 859,-431 910,-910zm-1133 910l0 447c-725,-54 -1303,-633 -1357,-1357l446 0c52,479 432,859 911,910zm-694 -1022c0,-445 360,-805 805,-805 446,0 806,360 806,805 0,446 -360,806 -806,806 -445,0 -805,-361 -805,-806zm805 1696c937,0 1696,-759 1696,-1696 0,-936 -759,-1695 -1696,-1695 -936,0 -1695,759 -1695,1695 0,937 759,1696 1695,1696z"/>
   <polygon class="fil1" points="2506,7564 7731,7564 7731,7786 2506,7786 "/>
  </g>
 </g>
</svg>
