<?xml version="1.0" encoding="UTF-8"?>
<!DOCTYPE svg PUBLIC "-//W3C//DTD SVG 1.1//EN" "http://www.w3.org/Graphics/SVG/1.1/DTD/svg11.dtd">
<!-- Creator: CorelDRAW X7 -->
<svg xmlns="http://www.w3.org/2000/svg" xml:space="preserve" width="1.02362in" height="1.02362in" version="1.1" style="shape-rendering:geometricPrecision; text-rendering:geometricPrecision; image-rendering:optimizeQuality; fill-rule:evenodd; clip-rule:evenodd"
viewBox="0 0 10236 10236"
 xmlns:xlink="http://www.w3.org/1999/xlink">
 <defs>
  <style type="text/css">
   <![CDATA[
    .fil1 {fill:none}
    .fil0 {fill:#343233}
   ]]>
  </style>
 </defs>
 <g id="Layer_x0020_1">
  <metadata id="CorelCorpID_0Corel-Layer"/>
  <g id="_2265914527888">
   <path class="fil0" d="M5118 3049l-1705 3411 3411 0 -1706 -3411zm1496 2497l0 0 -941 -1882c586,224 1001,790 1001,1454 0,149 -21,292 -60,428zm138 275c93,-215 144,-453 144,-703 0,-838 -579,-1541 -1360,-1729l-125 -250c966,141 1708,973 1708,1979 0,346 -88,670 -242,954l-125 -251zm-3190 -703c0,-664 416,-1230 1001,-1454l-941 1882c-39,-136 -60,-279 -60,-428zm1138 -1729c-780,188 -1360,891 -1360,1729 0,250 51,488 144,703l-125 251c-154,-284 -242,-609 -242,-954 0,-1006 742,-1838 1708,-1979l-125 250zm418 3952c618,0 1177,-252 1580,-659l300 0c-48,57 -98,113 -151,165 -442,443 -1054,717 -1729,717 -675,0 -1287,-274 -1729,-717 -53,-52 -103,-108 -151,-165l300 0c403,407 962,659 1580,659zm1248 -659c-342,273 -776,437 -1248,437 -472,0 -906,-164 -1248,-437l2496 0zm630 -373c219,-344 345,-753 345,-1191 0,-1169 -902,-2127 -2049,-2216l-114 -229c651,16 1240,287 1669,716 443,442 717,1054 717,1729 0,529 -168,1019 -454,1419l-114 -228zm-2052 -3407c-1147,89 -2049,1047 -2049,2216 0,438 127,847 345,1191l-114 228c-285,-400 -453,-890 -453,-1419 0,-675 273,-1287 716,-1729 429,-429 1018,-700 1669,-716l-114 229zm174 4884c1474,0 2668,-1194 2668,-2668 0,-1473 -1194,-2668 -2668,-2668 -1473,0 -2668,1195 -2668,2668 0,1474 1195,2668 2668,2668zm0 -2958l-418 836 836 0 -418 -836zm0 -496l-777 1554 1554 0 -777 -1554zm0 -394l-1062 2124 2124 0 -1062 -2124zm0 -495l-1421 2841 2842 0 -1421 -2841z"/>
   <rect class="fil1" width="10236" height="10236"/>
  </g>
 </g>
</svg>
