<?xml version="1.0" encoding="UTF-8"?>
<!DOCTYPE svg PUBLIC "-//W3C//DTD SVG 1.1//EN" "http://www.w3.org/Graphics/SVG/1.1/DTD/svg11.dtd">
<!-- Creator: CorelDRAW X7 -->
<svg xmlns="http://www.w3.org/2000/svg" xml:space="preserve" width="1.02362in" height="1.02362in" version="1.1" style="shape-rendering:geometricPrecision; text-rendering:geometricPrecision; image-rendering:optimizeQuality; fill-rule:evenodd; clip-rule:evenodd"
viewBox="0 0 10236 10236"
 xmlns:xlink="http://www.w3.org/1999/xlink">
 <defs>
  <style type="text/css">
   <![CDATA[
    .fil0 {fill:none}
    .fil1 {fill:#373435}
   ]]>
  </style>
 </defs>
 <g id="Layer_x0020_1">
  <metadata id="CorelCorpID_0Corel-Layer"/>
  <g id="_2722075886448">
   <rect class="fil0" width="10236" height="10236"/>
   <path class="fil1" d="M5118 2391c1474,0 2727,1254 2727,2727 0,1474 -1253,2727 -2727,2727 -1473,0 -2727,-1253 -2727,-2727 0,-1473 1254,-2727 2727,-2727zm0 1335c737,0 1393,656 1393,1392 0,737 -656,1393 -1393,1393 -736,0 -1392,-656 -1392,-1393 0,-736 656,-1392 1392,-1392zm0 222c-614,0 -1170,556 -1170,1170 0,614 556,1170 1170,1170 614,0 1170,-556 1170,-1170 0,-614 -556,-1170 -1170,-1170zm0 -890c1105,0 2060,955 2060,2060 0,1105 -955,2060 -2060,2060 -1105,0 -2060,-955 -2060,-2060 0,-1105 955,-2060 2060,-2060zm0 223c-982,0 -1837,855 -1837,1837 0,982 855,1837 1837,1837 982,0 1837,-855 1837,-1837 0,-982 -855,-1837 -1837,-1837zm0 -667c-1350,0 -2504,1154 -2504,2504 0,1351 1154,2505 2504,2505 1351,0 2505,-1154 2505,-2505 0,-1350 -1154,-2504 -2505,-2504z"/>
  </g>
 </g>
</svg>
