<?xml version="1.0" encoding="UTF-8"?>
<!DOCTYPE svg PUBLIC "-//W3C//DTD SVG 1.1//EN" "http://www.w3.org/Graphics/SVG/1.1/DTD/svg11.dtd">
<!-- Creator: CorelDRAW X7 -->
<svg xmlns="http://www.w3.org/2000/svg" xml:space="preserve" width="1.02362in" height="1.02362in" version="1.1" style="shape-rendering:geometricPrecision; text-rendering:geometricPrecision; image-rendering:optimizeQuality; fill-rule:evenodd; clip-rule:evenodd"
viewBox="0 0 10236 10236"
 xmlns:xlink="http://www.w3.org/1999/xlink">
 <defs>
  <style type="text/css">
   <![CDATA[
    .fil0 {fill:none}
    .fil1 {fill:black}
   ]]>
  </style>
 </defs>
 <g id="Layer_x0020_1">
  <metadata id="CorelCorpID_0Corel-Layer"/>
  <g id="_2722077752192">
   <rect class="fil0" transform="matrix(2.64845E-014 -1 1 2.64845E-014 -1.36424E-010 10236.2)" width="10236" height="10236"/>
   <path class="fil1" d="M3394 4723l1612 0 0 -573 -1612 0c0,210 0,363 0,573zm3448 0l-1611 0 0 -573 1611 0c0,210 0,363 0,573zm-1611 -1364l0 -602 2249 0 0 602 -2249 0zm0 2727l0 -573 1611 0c0,210 0,363 0,573l-1611 0zm0 1393l0 -602 2249 0 0 602 -2249 0zm2471 -825l-5168 0 0 1047 5168 0 0 -1047zm0 -4119l-5168 0 0 1047 5168 0 0 -1047zm-637 2756l-3893 0c0,358 0,659 0,1018l3893 0 0 -1018zm0 -1363l-3893 0c0,358 0,659 0,1017l3893 0 0 -1017zm-2059 -569l0 -602 -2250 0 0 602 2250 0zm0 2727l0 -573 -1612 0c0,210 0,363 0,573l1612 0zm0 1393l0 -602 -2250 0 0 602 2250 0z"/>
  </g>
 </g>
</svg>
