<?xml version="1.0" encoding="UTF-8"?>
<!DOCTYPE svg PUBLIC "-//W3C//DTD SVG 1.1//EN" "http://www.w3.org/Graphics/SVG/1.1/DTD/svg11.dtd">
<!-- Creator: CorelDRAW X7 -->
<svg xmlns="http://www.w3.org/2000/svg" xml:space="preserve" width="1.02362in" height="1.02362in" version="1.1" style="shape-rendering:geometricPrecision; text-rendering:geometricPrecision; image-rendering:optimizeQuality; fill-rule:evenodd; clip-rule:evenodd"
viewBox="0 0 10236 10236"
 xmlns:xlink="http://www.w3.org/1999/xlink">
 <defs>
  <style type="text/css">
   <![CDATA[
    .fil0 {fill:none}
    .fil1 {fill:black}
   ]]>
  </style>
 </defs>
 <g id="Layer_x0020_1">
  <metadata id="CorelCorpID_0Corel-Layer"/>
  <g id="_2265911786768">
   <rect class="fil0" width="10236" height="10236"/>
   <path class="fil1" d="M5513 3339l0 1667 630 0 0 -1667c-210,0 -420,0 -630,0zm0 3559l0 -1667 630 0 0 1667c-210,0 -420,0 -630,0zm1421 -1667l630 0 0 2334 -630 0 0 -2334zm-2841 0l630 0 0 1667c-210,0 -420,0 -630,0l0 -1667zm-1420 0l629 0 0 2334 -629 0 0 -2334zm852 2556l0 -5338 -1075 0 0 5338 1075 0zm4261 0l0 -5338 -1075 0 0 5338 1075 0zm-2841 -667l0 -4004c-358,0 -716,0 -1074,0l0 4004 1074 0zm1421 0l0 -4004c-359,0 -717,0 -1075,0l0 4004 1075 0zm568 -2114l630 0 0 -2335 -630 0 0 2335zm-2841 0l630 0 0 -1667c-210,0 -420,0 -630,0l0 1667zm-1420 0l629 0 0 -2335 -629 0 0 2335z"/>
  </g>
 </g>
</svg>
