<?xml version="1.0" encoding="UTF-8"?>
<!DOCTYPE svg PUBLIC "-//W3C//DTD SVG 1.1//EN" "http://www.w3.org/Graphics/SVG/1.1/DTD/svg11.dtd">
<!-- Creator: CorelDRAW X7 -->
<svg xmlns="http://www.w3.org/2000/svg" xml:space="preserve" width="1.02362in" height="1.02362in" version="1.1" style="shape-rendering:geometricPrecision; text-rendering:geometricPrecision; image-rendering:optimizeQuality; fill-rule:evenodd; clip-rule:evenodd"
viewBox="0 0 10236 10236"
 xmlns:xlink="http://www.w3.org/1999/xlink">
 <defs>
  <style type="text/css">
   <![CDATA[
    .fil0 {fill:none}
    .fil1 {fill:black}
   ]]>
  </style>
 </defs>
 <g id="Layer_x0020_1">
  <metadata id="CorelCorpID_0Corel-Layer"/>
  <g id="_2265873786816">
   <rect class="fil0" width="10236" height="10236"/>
   <path class="fil1" d="M6898 5513l-1667 0 0 630 1667 0c0,-210 0,-420 0,-630zm-3559 0l1667 0 0 630 -1667 0c0,-210 0,-420 0,-630zm1667 1421l0 630 -2335 0 0 -630 2335 0zm0 -2841l0 630 -1667 0c0,-210 0,-420 0,-630l1667 0zm0 -1420l0 629 -2335 0 0 -629 2335 0zm-2557 852l5338 0 0 -1075 -5338 0 0 1075zm0 4261l5338 0 0 -1075 -5338 0 0 1075zm667 -2841l4004 0c0,-358 0,-716 0,-1074l-4004 0 0 1074zm0 1421l4004 0c0,-359 0,-717 0,-1075l-4004 0 0 1075zm2115 568l0 630 2334 0 0 -630 -2334 0zm0 -2841l0 630 1667 0c0,-210 0,-420 0,-630l-1667 0zm0 -1420l0 629 2334 0 0 -629 -2334 0z"/>
  </g>
 </g>
</svg>
