<?xml version="1.0" encoding="UTF-8"?>
<!DOCTYPE svg PUBLIC "-//W3C//DTD SVG 1.1//EN" "http://www.w3.org/Graphics/SVG/1.1/DTD/svg11.dtd">
<!-- Creator: CorelDRAW X7 -->
<svg xmlns="http://www.w3.org/2000/svg" xml:space="preserve" width="1.02362in" height="1.02362in" version="1.1" style="shape-rendering:geometricPrecision; text-rendering:geometricPrecision; image-rendering:optimizeQuality; fill-rule:evenodd; clip-rule:evenodd"
viewBox="0 0 10236 10236"
 xmlns:xlink="http://www.w3.org/1999/xlink">
 <defs>
  <style type="text/css">
   <![CDATA[
    .fil0 {fill:none}
    .fil1 {fill:black}
   ]]>
  </style>
 </defs>
 <g id="Layer_x0020_1">
  <metadata id="CorelCorpID_0Corel-Layer"/>
  <g id="_2722075473824">
   <rect class="fil0" width="10236" height="10236"/>
   <path class="fil1" d="M5513 3394l0 1612 573 0 0 -1612c-210,0 -363,0 -573,0zm0 3448l0 -1611 573 0 0 1611c-210,0 -363,0 -573,0zm1364 -1611l602 0 0 2249 -602 0 0 -2249zm-2727 0l573 0 0 1611c-210,0 -363,0 -573,0l0 -1611zm-1393 0l602 0 0 2249 -602 0 0 -2249zm825 2471l0 -5168 -1047 0 0 5168 1047 0zm4119 0l0 -5168 -1047 0 0 5168 1047 0zm-2756 -637l0 -3893c-358,0 -659,0 -1017,0l0 3893 1017 0zm1364 0l0 -3893c-359,0 -660,0 -1018,0l0 3893 1018 0zm568 -2059l602 0 0 -2250 -602 0 0 2250zm-2727 0l573 0 0 -1612c-210,0 -363,0 -573,0l0 1612zm-1393 0l602 0 0 -2250 -602 0 0 2250z"/>
  </g>
 </g>
</svg>
