<?xml version="1.0" encoding="UTF-8"?>
<!DOCTYPE svg PUBLIC "-//W3C//DTD SVG 1.1//EN" "http://www.w3.org/Graphics/SVG/1.1/DTD/svg11.dtd">
<!-- Creator: CorelDRAW X7 -->
<svg xmlns="http://www.w3.org/2000/svg" xml:space="preserve" width="1.02362in" height="1.02362in" version="1.1" style="shape-rendering:geometricPrecision; text-rendering:geometricPrecision; image-rendering:optimizeQuality; fill-rule:evenodd; clip-rule:evenodd"
viewBox="0 0 10236 10236"
 xmlns:xlink="http://www.w3.org/1999/xlink">
 <defs>
  <style type="text/css">
   <![CDATA[
    .fil0 {fill:none}
    .fil1 {fill:black}
   ]]>
  </style>
 </defs>
 <g id="Layer_x0020_1">
  <metadata id="CorelCorpID_0Corel-Layer"/>
  <g id="_2265868838192">
   <rect class="fil0" width="10236" height="10236"/>
   <path class="fil1" d="M7786 7786l0 -5336 -5336 0 0 5336 1927 0 223 0 3186 0zm-1704 -222l0 -4891 629 0 0 4891 -629 0zm1482 0l0 -4891 -630 0 0 4891 630 0zm-3187 -4891l0 3186 -1704 0 0 -3186 1704 0zm0 3409l0 1482 -1704 0 0 -1482 1704 0zm223 -1927l1259 0 0 -1482 -1259 0 0 1482zm1259 222l-1259 0 0 3187 1259 0 0 -3187z"/>
  </g>
 </g>
</svg>
