<?xml version="1.0" encoding="UTF-8"?>
<!DOCTYPE svg PUBLIC "-//W3C//DTD SVG 1.1//EN" "http://www.w3.org/Graphics/SVG/1.1/DTD/svg11.dtd">
<!-- Creator: CorelDRAW X7 -->
<svg xmlns="http://www.w3.org/2000/svg" xml:space="preserve" width="1.02362in" height="1.02362in" version="1.1" style="shape-rendering:geometricPrecision; text-rendering:geometricPrecision; image-rendering:optimizeQuality; fill-rule:evenodd; clip-rule:evenodd"
viewBox="0 0 10236 10236"
 xmlns:xlink="http://www.w3.org/1999/xlink">
 <defs>
  <style type="text/css">
   <![CDATA[
    .fil0 {fill:none}
    .fil1 {fill:black}
   ]]>
  </style>
 </defs>
 <g id="Layer_x0020_1">
  <metadata id="CorelCorpID_0Corel-Layer"/>
  <g id="_2722078423104">
   <rect class="fil0" width="10236" height="10236"/>
   <path class="fil1" d="M7712 7712l0 -5188 -5188 0 0 5188 5188 0zm-1645 -222l0 -4744 600 0 0 4744 -600 0zm1423 0l0 -4744 -600 0 0 4744 600 0zm-3069 -4744l0 3098 -1675 0 0 -3098 1675 0zm0 3321l0 1423 -1675 0 0 -1423 1675 0zm223 -1927l1200 0 0 -1394 -1200 0 0 1394zm1200 222l-1200 0 0 3128 1200 0 0 -3128z"/>
  </g>
 </g>
</svg>
