<?xml version="1.0" encoding="UTF-8"?>
<!DOCTYPE svg PUBLIC "-//W3C//DTD SVG 1.1//EN" "http://www.w3.org/Graphics/SVG/1.1/DTD/svg11.dtd">
<!-- Creator: CorelDRAW X7 -->
<svg xmlns="http://www.w3.org/2000/svg" xml:space="preserve" width="0.849055in" height="0.849055in" version="1.1" style="shape-rendering:geometricPrecision; text-rendering:geometricPrecision; image-rendering:optimizeQuality; fill-rule:evenodd; clip-rule:evenodd"
viewBox="0 0 8491 8491"
 xmlns:xlink="http://www.w3.org/1999/xlink">
 <defs>
  <style type="text/css">
   <![CDATA[
    .fil0 {fill:#716279}
    .fil1 {fill:white}
   ]]>
  </style>
 </defs>
 <g id="Layer_x0020_1">
  <metadata id="CorelCorpID_0Corel-Layer"/>
  <g id="_2623020025072">
   <path class="fil0" d="M4245 0c-2344,0 -4245,1901 -4245,4245 0,2345 1901,4246 4245,4246 2345,0 4246,-1901 4246,-4246 0,-2344 -1901,-4245 -4246,-4245z"/>
   <path class="fil1" d="M5511 1703l-2531 0c-710,0 -1288,578 -1288,1289l0 2530c0,711 578,1289 1288,1289l2531 0c710,0 1288,-578 1288,-1289l0 -2530c0,-711 -578,-1289 -1288,-1289zm403 1199c0,-172 -139,-311 -311,-311 -171,0 -311,139 -311,311 0,172 140,311 311,311 172,0 311,-139 311,-311zm-353 1355c0,-725 -590,-1315 -1316,-1315 -725,0 -1315,590 -1315,1315 0,725 590,1316 1315,1316 725,0 1316,-591 1316,-1316zm-2075 0c0,-419 341,-759 759,-759 419,0 760,341 760,759 0,419 -341,759 -760,759 -418,0 -759,-340 -759,-759zm-506 -1998l2531 0c403,0 732,329 732,733l0 2530c0,404 -329,733 -732,733l-2531 0c-404,0 -732,-329 -732,-733l0 -2530c0,-404 328,-733 732,-733z"/>
  </g>
 </g>
</svg>
