<?xml version="1.0" encoding="UTF-8"?>
<!DOCTYPE svg PUBLIC "-//W3C//DTD SVG 1.1//EN" "http://www.w3.org/Graphics/SVG/1.1/DTD/svg11.dtd">
<!-- Creator: CorelDRAW X7 -->
<svg xmlns="http://www.w3.org/2000/svg" xml:space="preserve" width="100%" height="100%" version="1.1" style="shape-rendering:geometricPrecision; text-rendering:geometricPrecision; image-rendering:optimizeQuality; fill-rule:evenodd; clip-rule:evenodd"
viewBox="0 0 175 175"
 xmlns:xlink="http://www.w3.org/1999/xlink">
 <defs>
  <style type="text/css">
   <![CDATA[
    .fil1 {fill:#DBBB83;fill-rule:nonzero}
    .fil2 {fill:#D2AE6D;fill-rule:nonzero}
    .fil0 {fill:#D2AE6D;fill-rule:nonzero}
   ]]>
  </style>
 </defs>
 <g id="Layer_x0020_1">
  <metadata id="CorelCorpID_0Corel-Layer"/>
  <g id="_2098391869696">
   <path class="fil0" d="M135 35c5,0 5,8 0,8 -6,0 -6,-8 0,-8z"/>
   <path class="fil1" d="M175 87c0,48 -40,88 -88,88 -48,0 -87,-40 -87,-88 0,-48 39,-87 87,-87 48,0 88,39 88,87z"/>
   <path class="fil2" d="M20 143c-13,-15 -20,-35 -20,-56 0,-48 39,-87 87,-87 27,0 51,12 67,31 0,0 -66,-25 -106,16 -41,40 -28,96 -28,96z"/>
  </g>
 </g>
</svg>
