<?xml version="1.0" encoding="UTF-8"?>
<!DOCTYPE svg PUBLIC "-//W3C//DTD SVG 1.1//EN" "http://www.w3.org/Graphics/SVG/1.1/DTD/svg11.dtd">
<!-- Creator: CorelDRAW X7 -->
<svg xmlns="http://www.w3.org/2000/svg" xml:space="preserve" width="100%" height="100%" version="1.1" style="shape-rendering:geometricPrecision; text-rendering:geometricPrecision; image-rendering:optimizeQuality; fill-rule:evenodd; clip-rule:evenodd"
viewBox="0 0 1180 1986"
 xmlns:xlink="http://www.w3.org/1999/xlink">
 <defs>
  <style type="text/css">
   <![CDATA[
    .str0 {stroke:#5C56A2;stroke-width:7.62}
    .fil11 {fill:#8F8CC3}
    .fil12 {fill:#87A9CA}
    .fil7 {fill:#5C56A2}
    .fil9 {fill:#B5E1E2;fill-rule:nonzero}
    .fil3 {fill:#92BBD0;fill-rule:nonzero}
    .fil0 {fill:#79C9F0;fill-rule:nonzero}
    .fil5 {fill:#8480BC;fill-rule:nonzero}
    .fil6 {fill:#7C608E;fill-rule:nonzero}
    .fil10 {fill:#2195CA;fill-rule:nonzero}
    .fil4 {fill:#5C56A2;fill-rule:nonzero}
    .fil8 {fill:#4A458F;fill-rule:nonzero}
    .fil1 {fill:#B1DDDD;fill-rule:nonzero}
    .fil2 {fill:white;fill-rule:nonzero}
   ]]>
  </style>
 </defs>
 <g id="Layer_x0020_1">
  <metadata id="CorelCorpID_0Corel-Layer"/>
  <g id="_2098587633664">
   <path class="fil0" d="M754 1269c0,0 9,-29 12,-54 2,-25 14,-62 20,-79 6,-16 40,-63 46,-91l-41 -135 -107 296c0,0 36,20 50,33 14,13 20,30 20,30z"/>
   <path class="fil0" d="M580 1337c0,0 -35,1 -56,-22 -32,-36 -49,-105 0,-138l134 43 -78 117z"/>
   <path class="fil1" d="M957 738c0,62 -50,112 -112,112 -62,0 -112,-50 -112,-112 0,-62 50,-112 112,-112 62,0 112,50 112,112z"/>
   <path class="fil2" d="M897 837c36,-18 60,-56 60,-99 0,-32 -13,-61 -35,-82 0,0 37,51 27,99 -12,50 -52,82 -52,82z"/>
   <path class="fil3" d="M900 698c0,0 14,-8 27,-23 14,-14 12,-21 12,-24 -1,-3 -42,-36 -69,-46 -26,-9 -78,-16 -114,10 -37,26 -47,79 -50,97 0,0 44,15 84,42 40,26 72,68 72,68l9 -16 3 -69 26 -39z"/>
   <path class="fil2" d="M756 615c36,-26 88,-19 114,-10 27,10 68,43 69,46 0,3 2,10 -12,24 0,0 10,-13 3,-24 -8,-12 -70,-58 -124,-52 -45,5 -50,16 -50,16z"/>
   <path class="fil4" d="M872 737l5 -42 -2 -11c-15,4 -25,18 -25,33 0,11 5,20 12,27l10 -7z"/>
   <path class="fil5" d="M908 717c0,13 -10,24 -23,24 -13,0 -23,-11 -23,-24 0,-13 10,-23 23,-23 13,0 23,10 23,23z"/>
   <path class="fil6" d="M901 717c0,9 -7,16 -16,16 -9,0 -16,-7 -16,-16 0,-8 7,-15 16,-15 9,0 16,7 16,15z"/>
   <path class="fil5" d="M856 753c-10,-9 -17,-22 -17,-36 0,-19 13,-36 30,-43l6 10c-15,4 -25,18 -25,33 0,11 5,20 12,27l-6 9z"/>
   <path class="fil7" d="M829 614c-1,7 -8,12 -14,10 -7,-1 -11,-7 -10,-14 1,-7 8,-11 14,-10 7,1 11,8 10,14zm-11 1c1,-1 1,-2 2,-2 0,-1 0,-2 -1,-3 0,0 -1,-1 -1,-1 -1,0 -2,0 -2,1 -1,0 -1,1 -2,2l0 0c0,0 0,1 1,2 0,0 1,1 1,1 1,0 2,0 2,0z"/>
   <path class="fil6" d="M687 738l19 -26c0,0 127,41 175,132 0,0 -141,-70 -194,-106z"/>
   <path class="fil5" d="M710 753c0,0 70,17 101,38 30,21 73,53 77,61 4,9 4,15 4,15l-60 -9 -30 -36 -105 -32 13 -37z"/>
   <polygon class="fil5" points="666,781 684,737 698,742 681,785 "/>
   <polygon class="fil4" points="698,742 710,753 697,790 681,785 "/>
   <path class="fil4" d="M811 750c0,3 -2,6 -5,6 -3,1 -6,-2 -7,-5 0,-3 2,-6 5,-6 3,-1 6,1 7,5z"/>
   <path class="fil8" d="M867 732c1,3 -2,6 -5,7 -3,0 -6,-2 -6,-5 -1,-3 1,-6 5,-7 3,0 6,2 6,5z"/>
   <path class="fil6" d="M860 736c7,3 16,8 18,15 6,20 -15,22 -28,19 -15,-4 -30,-13 -43,-22 -3,-3 -8,3 -4,6 17,12 45,30 67,24 11,-3 19,-17 16,-29 -3,-10 -14,-16 -23,-20 -5,-1 -7,6 -3,7z"/>
   <path class="fil9" d="M754 1269c0,0 29,24 20,157 -9,132 -1,107 -6,130 -4,23 -14,25 -15,38 -2,13 -16,36 -32,53 -16,17 -85,69 -98,77 -13,7 -31,18 -36,24 -6,6 -23,-1 -23,-1 0,0 -8,-7 -9,-20 -1,-13 -10,-16 -13,-22 -3,-5 -2,-15 -6,-19 -4,-5 -24,-13 -27,-21 -4,-8 -6,-10 -11,-12 -4,-1 -10,-3 -13,-9 -3,-6 -4,-2 -10,-3 -7,-1 -9,0 -14,-6 -5,-6 -6,-4 -12,-4 -5,1 -7,14 -7,14 0,0 -4,-4 -5,-8 -1,-4 0,-8 2,-10 3,-2 4,-1 6,-4 2,-3 12,-8 20,-8 7,0 17,-5 22,-12 5,-7 10,-9 17,-14 6,-5 7,-16 15,-19 9,-3 14,-14 22,-17 8,-2 16,-11 17,-18 2,-7 14,-18 24,-20 0,0 0,-59 4,-68 5,-8 12,-15 13,-20 0,-5 -9,-23 -9,-42 0,-20 4,-26 0,-33 -4,-7 -12,-9 -12,-24 0,-16 -11,-40 30,-88 43,-51 99,-33 117,-22 18,11 29,51 29,51z"/>
   <path class="fil0" d="M485 1644c-3,-6 -4,-2 -10,-3 -7,-1 -9,0 -14,-6 -5,-6 -6,-4 -12,-4 -5,1 -7,14 -7,14 0,0 -4,-4 -5,-8 -1,-4 0,-8 2,-10 3,-2 4,-1 6,-4 2,-3 12,-8 20,-8 7,0 17,-5 22,-12 5,-7 10,-9 17,-14 6,-5 7,-16 15,-19 9,-3 14,-14 22,-17 8,-2 16,-11 17,-18 2,-7 14,-18 24,-20 0,0 0,-59 4,-68 5,-8 12,-15 13,-20 0,-5 -9,-23 -9,-42 0,-20 4,-26 0,-33 -3,-6 -10,-8 -12,-20 0,0 7,19 21,19 14,0 16,18 7,26 -8,9 0,11 5,32 6,22 -3,24 -7,40 -3,17 4,19 2,29 -2,11 -13,9 -9,20 4,11 7,34 -2,34 -10,0 -29,8 -29,14 0,7 -11,26 -22,26 -10,0 -19,12 -26,30 -8,18 -17,8 -25,16 -7,7 -8,26 -8,26z"/>
   <path class="fil10" d="M443 1650l-1 -5c0,0 -3,-11 1,-15 5,-5 69,-1 104,50 34,51 21,69 21,69l-15 5c0,0 -16,5 -31,-8 -15,-14 -79,-96 -79,-96z"/>
   <path class="fil9" d="M302 1765c0,0 11,-11 28,-14 17,-4 26,-12 30,-17 4,-4 8,-5 14,-10 6,-5 35,-30 43,-43 9,-13 16,-29 28,-33 13,-4 53,25 71,57 17,32 13,32 13,39l5 8c0,0 12,-6 17,-9 0,0 4,7 2,11 0,0 -54,24 -72,36 -18,12 -67,45 -69,65 -3,20 4,38 7,46 3,8 13,33 8,49 -4,17 -6,29 -20,36 0,0 -14,-1 -32,-34 -18,-33 -24,-57 -29,-78 -6,-21 -8,-27 -20,-42 -13,-15 -11,-17 -9,-24 1,-8 10,-21 10,-21l-25 -22z"/>
   <path class="fil0" d="M327 1787l-25 -22c0,0 11,-11 28,-14 17,-4 26,-12 30,-17 4,-4 8,-5 14,-10 6,-5 35,-30 43,-43 9,-13 16,-29 28,-33 8,-3 25,7 41,21 0,0 -42,9 -49,32 -8,23 -80,48 -88,67 -7,19 -22,19 -22,19z"/>
   <path class="fil10" d="M262 1792c0,0 -2,22 10,41 12,20 28,32 31,45 4,14 0,35 13,56 14,21 41,55 89,52l-96 -168 -18 -20 -29 -6z"/>
   <path class="fil3" d="M262 1792l11 -19 29 -8c0,0 21,10 26,18 6,9 -4,19 -5,24 -1,5 -5,9 1,16 6,7 17,20 19,27 3,6 27,59 27,59 0,0 8,-7 17,-3 10,5 15,27 19,28 4,1 18,-19 18,-19 0,0 9,23 3,43 -7,20 -15,26 -20,28 -6,2 -30,-17 -58,-71 -28,-53 -28,-66 -35,-77 -8,-12 -11,-25 -26,-36l-26 -10z"/>
   <path class="fil9" d="M276 1618c0,0 14,6 19,6 6,0 7,-5 12,-5 4,1 24,-5 30,-10 7,-4 15,-9 19,-11 5,-2 17,-7 21,-10 4,-2 7,-9 15,-12 7,-3 18,-11 24,-17 6,-7 12,-23 19,-29 8,-6 14,-9 17,-15 3,-6 5,-13 10,-15 4,-2 10,-7 11,-10 1,-3 4,0 13,-11 10,-11 10,-23 19,-33 8,-10 8,-10 11,-20 4,-10 10,-10 11,-15 2,-6 10,-14 11,-22 0,-9 14,-13 16,-19 1,-6 26,-33 26,-33 0,0 -73,-13 -76,-80 -3,-61 19,-80 20,-80l-54 -19c0,0 -7,19 -8,27 -1,8 -6,14 -10,16 -5,3 -15,24 -16,31 -2,7 -26,30 -34,50 -7,20 -2,24 -10,29 -8,6 -16,10 -24,19 -8,9 -20,19 -26,25 -5,6 -15,9 -18,17 -3,8 -1,11 -4,17 -3,7 -6,20 -4,25 0,0 -2,3 -1,6 0,3 -11,6 -12,9 0,3 -4,9 -9,10 -6,0 -20,-2 -24,4 -4,5 -3,8 -6,9 -3,1 -5,4 -5,7 0,2 -10,5 -15,10 -6,4 -5,12 -13,13 -8,2 -15,5 -19,12l64 124z"/>
   <path class="fil0" d="M238 1545l-26 -51c4,-7 11,-10 19,-12 8,-1 7,-9 13,-13 5,-5 15,-8 15,-10 0,-3 2,-6 5,-7 3,-1 2,-4 6,-9 4,-6 18,-4 24,-4 5,-1 9,-7 9,-10 1,-3 12,-6 12,-9 -1,-3 1,-6 1,-6 -2,-5 1,-18 4,-25 3,-6 1,-9 4,-17 3,-8 13,-11 18,-17 6,-6 18,-16 26,-25 8,-9 16,-13 24,-19 8,-5 3,-9 10,-29 8,-20 32,-43 34,-50 1,-7 11,-28 16,-31 4,-2 9,-8 10,-16 1,-8 8,-27 8,-27l23 8c0,0 4,27 -9,40 -13,14 -32,16 -32,34 0,19 -1,53 -15,58 -14,4 -23,34 -23,48 0,13 -20,11 -32,24 -5,5 -2,22 -9,34 -6,10 -18,3 -20,9 -6,13 -5,29 -14,31 -22,6 -36,10 -48,22 -11,12 -9,20 -17,29 -8,8 -36,31 -36,50z"/>
   <path class="fil10" d="M202 1527c0,0 -4,-21 10,-33 13,-11 57,8 84,46 27,38 18,62 9,69 -8,7 -22,3 -22,3l-81 -85z"/>
   <path class="fil9" d="M65 1804c0,0 16,-4 26,-10 10,-7 16,-15 17,-22 1,-6 8,-31 13,-39 4,-8 9,-9 13,-12 3,-2 18,-18 21,-24 3,-5 27,-24 49,-40 23,-16 68,-34 84,-48 16,-15 -5,-50 -22,-66 -16,-15 -35,-23 -47,-24 -12,-1 -19,10 -25,21 -5,11 -45,52 -59,68 -15,16 -72,67 -72,67l2 129z"/>
   <path class="fil0" d="M124 1718l-61 -43c0,0 57,-51 72,-67 14,-16 54,-57 59,-68 6,-11 13,-22 25,-21 12,1 31,9 47,24 0,0 -25,5 -60,29 -82,58 -82,146 -82,146z"/>
   <path class="fil10" d="M54 1691c0,0 4,-19 22,-22 18,-2 43,17 48,33 4,16 -4,24 -10,27 -7,3 -17,8 -19,12 -2,4 -7,13 -9,26 -2,14 -3,27 -11,33 -8,5 -15,4 -21,0 -5,-4 -43,-41 -48,-46 -4,-5 -7,-14 -6,-24 1,-9 4,-15 17,-25 16,-11 23,-6 37,-14z"/>
   <path class="fil3" d="M377 876c0,0 -10,-7 -13,-12 -3,-4 -10,-6 -13,-6 -3,0 -7,-1 -9,6 0,2 -2,4 -2,4 0,0 -5,3 -9,4 -4,1 -8,7 -10,14 0,0 -8,3 -9,7 -1,4 -1,17 -1,17 0,0 -7,3 -6,8 0,6 0,19 3,21 3,2 3,5 8,3 4,-2 8,-6 8,-9 1,-3 1,-5 1,-5 0,0 13,7 27,13l25 -65z"/>
   <path class="fil9" d="M351 920c1,-12 5,-23 13,-32 7,-9 19,-16 28,-16 8,0 10,1 12,-1 2,-2 9,-8 15,-9 6,-1 7,-1 9,-3 3,-1 13,-6 19,-5 7,1 64,-42 113,-52l-78 168c0,0 -27,7 -37,4 -10,-3 -21,2 -25,0 -5,-2 -13,-5 -16,-5 -2,0 -17,4 -27,0 -9,-5 -28,-17 -26,-49z"/>
   <path class="fil0" d="M513 903l-31 67c0,0 -27,7 -37,4 -10,-3 -21,2 -25,0 -5,-2 -13,-5 -16,-5 -2,0 -17,4 -27,0 -9,-5 -28,-17 -26,-49 0,0 5,31 26,35 21,3 10,-6 26,-6 15,0 5,11 21,11 16,0 23,-11 35,-11 13,0 54,-46 54,-46z"/>
   <path class="fil5" d="M658 1220c0,0 -25,-10 -20,-63 6,-54 38,-139 58,-190 20,-51 59,-126 106,-145 0,0 -153,-47 -164,-50 -11,-4 -49,-10 -67,14 -17,23 -56,94 -73,139 -17,44 -53,149 -50,186 3,36 16,45 29,49 12,4 181,60 181,60z"/>
   <path class="fil3" d="M760 809c24,8 42,13 42,13 -47,19 -86,94 -106,145 -20,51 -52,136 -58,190 -5,53 20,63 20,63 0,0 -20,-6 -46,-15 0,0 -9,-8 -17,-41 -7,-32 14,-95 21,-116 8,-20 -9,-26 -16,-29 -6,-2 -59,-19 -73,-23 -15,-5 -19,1 -24,11 -6,9 -23,44 -29,77 -6,33 19,81 19,81 -9,-2 -14,-4 -16,-5 -13,-4 -26,-13 -29,-49 -3,-37 33,-142 50,-186 17,-45 56,-116 73,-139 18,-24 56,-18 67,-14 1,0 5,1 10,3 0,0 -29,14 -36,22 -6,8 -12,18 0,23 12,5 75,23 83,26 8,3 19,7 30,-8 10,-15 35,-29 35,-29z"/>
   <path class="fil5" d="M658 1220c0,0 -25,-10 -20,-63 6,-54 38,-139 58,-190 20,-51 59,-126 106,-145l23 34 -141 350 -26 14z"/>
   <polygon class="fil6" points="684,1206 710,1190 844,869 802,822 825,856 "/>
   <path class="fil5" d="M657 930c-5,29 -33,49 -62,44 -29,-5 -48,-32 -43,-61 5,-29 32,-48 61,-44 29,5 48,33 44,61z"/>
   <path class="fil6" d="M641 925c-4,23 -26,38 -49,35 -22,-4 -38,-26 -34,-48 4,-23 25,-38 48,-34 23,3 38,25 35,47z"/>
   <path class="fil4" d="M802 805c0,7 -6,12 -13,12 -7,0 -13,-5 -13,-12 0,-7 6,-13 13,-13 7,0 13,6 13,13z"/>
   <path class="fil6" d="M724 967c-9,-2 -18,-7 -25,-13 -17,-17 -7,-40 3,-57 12,-20 28,-40 44,-57 10,-11 26,-21 39,-22 14,-1 14,-23 0,-22 -20,1 -40,12 -53,26 -21,22 -42,48 -55,75 -11,23 -14,48 3,68 9,11 24,20 38,24 14,4 20,-18 6,-22z"/>
   <path class="fil6 str0" d="M609 911c-2,13 -14,21 -26,19 -13,-2 -21,-14 -19,-26 2,-13 14,-21 26,-19 13,2 21,14 19,26z"/>
   <path class="fil10" d="M1072 1240c0,0 3,22 13,30 10,7 16,-3 14,-10 -1,-7 -1,-13 -1,-13l-12 -7 -14 0z"/>
   <path class="fil3" d="M1016 1233c0,0 68,6 86,18 0,0 7,15 9,25 2,9 6,9 9,8 3,-2 8,-5 7,-19 -1,-14 0,-11 0,-11 0,0 1,19 6,23 6,4 14,1 15,-19 0,0 9,11 12,11 4,0 9,-4 7,-16 -2,-11 -10,-23 -10,-23 0,0 16,3 19,3 4,-1 6,-7 2,-12 -4,-5 -30,-20 -36,-23 -6,-3 -16,-3 -23,-5 -6,-3 -37,-7 -43,-6 -7,1 -23,-9 -23,-9 0,0 -21,23 -37,55z"/>
   <path class="fil9" d="M839 855c38,-10 66,17 78,48 12,31 -2,54 4,61 7,6 6,28 7,43 0,9 4,15 8,17 3,2 7,6 8,11 1,5 1,15 10,20 9,5 12,7 14,14 2,7 1,12 7,17 6,5 10,6 13,10 3,5 1,9 6,11 4,2 6,3 8,6 3,3 1,6 4,7 4,1 11,4 13,9 2,5 -3,10 4,14 7,4 11,-2 20,8 9,9 12,19 10,32 -2,12 -14,30 -26,42 -12,11 -22,13 -36,12 -14,-1 -20,-9 -21,-12 -1,-3 -3,-7 -8,-10 -4,-4 -9,-7 -11,-10 -2,-3 -8,-6 -13,-10 -5,-3 -24,-16 -36,-28 -12,-12 -16,-20 -22,-26 -7,-7 -18,-16 -25,-27 -8,-11 -21,-19 -24,-27 -4,-8 -3,-23 -8,-33 -6,-9 -20,-36 -25,-66 -4,-30 -8,-60 4,-96 9,-27 27,-34 37,-37z"/>
   <path class="fil0" d="M1027 1225c-12,11 -22,13 -36,12 -14,-1 -20,-9 -21,-12 -1,-3 -3,-7 -8,-10 -4,-4 -9,-7 -11,-10 -2,-3 -8,-6 -13,-10 -5,-3 -24,-16 -36,-28 -12,-12 -16,-20 -22,-26 -7,-7 -18,-16 -25,-27 -8,-11 -21,-19 -24,-27 -4,-8 -3,-23 -8,-33 -6,-9 -20,-36 -25,-66 -4,-30 -8,-60 4,-96 9,-27 27,-34 37,-37 0,0 -25,27 -21,48 4,21 18,39 9,62 -8,23 -2,49 5,56 8,8 15,31 15,47 0,16 10,19 22,32 13,12 11,26 22,38 12,12 28,12 43,27 16,16 8,30 23,34 15,5 22,0 32,10 10,10 38,16 38,16z"/>
   <path class="fil11" d="M584 883c0,1 0,1 -2,0 0,0 1,0 2,0zm-141 -191c-36,-20 -76,-28 -108,-53 -14,-11 -26,-25 -28,-42 -2,-19 5,-38 14,-48 26,-30 69,-46 106,-61 48,-20 98,-37 142,-65 36,-21 76,-54 85,-96 9,-36 -8,-68 -30,-95 -29,-35 -64,-65 -93,-100 -31,-38 -53,-82 -56,-132l-8 0c4,33 10,81 41,120 52,65 145,148 136,194 -9,47 -56,89 -122,119 -66,29 -200,56 -222,118 -15,41 -11,77 41,112 49,32 115,39 132,72 9,18 21,53 38,85 6,12 13,23 20,33 1,2 2,3 3,4 7,10 15,17 24,23 2,2 5,4 8,5 1,1 3,2 5,3 0,1 1,1 2,2 23,14 32,16 32,16 0,-12 -8,-19 -18,-21 -2,0 -3,-1 -4,-1 0,0 0,0 0,0 10,1 5,0 1,-1 -1,0 -3,-1 -4,-1 -1,-1 -1,-1 -2,-1 -1,-1 -3,-2 -4,-3 -2,-1 -4,-2 -4,-3 -12,-9 -21,-20 -29,-32 -1,-1 -2,-2 -3,-3 -5,-8 -10,-17 -15,-26 -2,-4 -4,-8 -6,-12 -20,-41 -33,-87 -74,-110z"/>
   <path class="fil12" d="M612 302c0,-2 1,5 0,0zm-139 433c-17,-33 -83,-40 -132,-72 -52,-35 -56,-71 -41,-112 22,-62 156,-89 222,-118 66,-30 113,-72 122,-119 9,-46 -84,-129 -136,-194 -31,-39 -37,-87 -41,-120l-36 0c2,50 19,96 48,137 26,36 58,67 89,99 13,14 24,26 33,40 2,3 4,6 5,9 1,1 2,2 2,4 0,0 1,1 1,2 1,3 2,7 3,11 0,0 0,0 0,0 0,0 0,0 0,1 0,2 0,4 0,6 0,6 1,0 0,6 -1,2 -4,11 -3,9 -4,8 -9,15 -15,22 -15,18 -35,32 -56,44 -44,25 -92,42 -139,62 -42,17 -88,36 -116,74 -29,39 -27,93 5,130 15,17 35,30 55,40 9,4 18,8 28,12 8,4 23,10 28,12 10,4 19,9 28,14 6,4 12,10 16,17 16,26 26,56 41,83 0,0 0,0 0,0 8,16 19,34 32,50 1,2 2,4 3,5 10,11 20,21 32,28 2,1 4,3 7,4 5,3 12,5 18,6 2,1 5,1 7,2 12,1 22,-12 22,-23 0,0 -9,-2 -32,-16 -1,-1 -2,-1 -2,-2 -2,-1 -4,-2 -5,-3 -3,-1 -6,-3 -8,-5 -9,-6 -17,-13 -24,-23 -1,-1 -2,-2 -3,-4 -7,-10 -14,-21 -20,-33 -17,-32 -29,-67 -38,-85z"/>
   <path class="fil7" d="M734 707c-1,6 -7,11 -14,10 -7,-2 -11,-8 -10,-15 1,-7 8,-11 15,-10 6,1 11,8 9,15zm-10 0c0,-1 1,-1 1,-2 0,-1 0,-2 -1,-2 0,-1 -1,-1 -1,-1 -1,-1 -2,0 -2,0 -1,0 -1,1 -1,2l0 0c0,1 0,1 0,2 0,1 1,1 2,1 0,0 1,0 2,0z"/>
   <path class="fil5" d="M729 708c8,-12 6,-27 0,-38 -2,-6 -7,-11 -8,-17 -2,-11 13,-20 21,-25 21,-13 50,-15 73,-9 9,3 12,-12 3,-15 -26,-6 -57,-4 -81,9 -14,8 -33,22 -31,41 2,16 21,30 10,47 -5,8 8,15 13,7z"/>
  </g>
 </g>
</svg>
