<?xml version="1.0" encoding="UTF-8"?>
<!DOCTYPE svg PUBLIC "-//W3C//DTD SVG 1.1//EN" "http://www.w3.org/Graphics/SVG/1.1/DTD/svg11.dtd">
<!-- Creator: CorelDRAW X7 -->
<svg xmlns="http://www.w3.org/2000/svg" xml:space="preserve" width="100%" height="100%" version="1.1" style="shape-rendering:geometricPrecision; text-rendering:geometricPrecision; image-rendering:optimizeQuality; fill-rule:evenodd; clip-rule:evenodd"
viewBox="0 0 2709 1524"
 xmlns:xlink="http://www.w3.org/1999/xlink">
 <defs>
  <style type="text/css">
   <![CDATA[
    .fil0 {fill:#DABA76}
    .fil3 {fill:#FF6600}
    .fil2 {fill:#FDDFD1;fill-rule:nonzero}
    .fil1 {fill:white;fill-rule:nonzero}
    .fil4 {fill:white;fill-rule:nonzero}
   ]]>
  </style>
 </defs>
 <g id="Layer_x0020_1">
  <metadata id="CorelCorpID_0Corel-Layer"/>
  <g id="_1697672212896">
   <polygon class="fil0" points="2709,1524 0,1524 0,0 2709,0 "/>
   <path class="fil1" d="M247 117c-2,2 -5,3 -8,1 -2,-1 -3,-5 -2,-7 2,-3 5,-3 8,-2 2,2 3,5 2,8z"/>
   <path class="fil2" d="M403 455c-1,2 -5,3 -7,1 -3,-1 -4,-5 -2,-7 1,-3 5,-4 7,-2 3,2 4,5 2,8z"/>
   <path class="fil2" d="M97 512c-2,3 -5,4 -8,2 -2,-2 -3,-5 -1,-8 1,-2 5,-3 7,-1 3,1 4,5 2,7z"/>
   <path class="fil2" d="M1902 796c-1,3 -5,4 -7,2 -3,-1 -4,-5 -2,-7 2,-3 5,-4 7,-2 3,1 4,5 2,7z"/>
   <path class="fil2" d="M240 285c-2,3 -5,3 -8,2 -3,-2 -3,-5 -2,-8 2,-2 5,-3 8,-2 2,2 3,5 2,8z"/>
   <path class="fil2" d="M512 65c-2,3 -5,4 -8,2 -2,-2 -3,-5 -1,-8 1,-2 5,-3 7,-1 3,1 3,5 2,7z"/>
   <path class="fil2" d="M1897 450c-2,3 -5,4 -8,2 -2,-2 -3,-5 -1,-8 1,-2 5,-3 7,-1 3,1 4,5 2,7z"/>
   <path class="fil1" d="M1996 398c-2,2 -5,3 -8,2 -3,-2 -3,-5 -2,-8 2,-3 5,-3 8,-2 2,2 3,5 2,8z"/>
   <path class="fil2" d="M1570 207c-1,3 -5,4 -7,2 -3,-1 -4,-5 -2,-7 2,-3 5,-4 7,-2 3,1 4,5 2,7z"/>
   <path class="fil1" d="M1266 204c-2,3 -5,4 -8,2 -2,-2 -3,-5 -1,-8 1,-2 5,-3 7,-1 3,1 4,5 2,7z"/>
   <path class="fil2" d="M1003 218c-1,3 -5,3 -7,2 -3,-2 -4,-5 -2,-8 2,-2 5,-3 7,-2 3,2 4,5 2,8z"/>
   <path class="fil2" d="M888 118c-1,3 -5,3 -7,2 -3,-2 -3,-5 -2,-8 2,-2 5,-3 8,-2 2,2 3,5 1,8z"/>
   <path class="fil2" d="M582 397c-2,2 -5,3 -8,1 -2,-1 -3,-5 -2,-7 2,-3 5,-4 8,-2 2,2 3,5 2,8z"/>
   <path class="fil2" d="M1498 491c-1,2 -5,3 -7,2 -3,-2 -3,-5 -2,-8 2,-3 5,-3 8,-2 2,2 3,5 1,8z"/>
   <path class="fil1" d="M1448 483c-2,2 -5,3 -8,2 -2,-2 -3,-5 -1,-8 1,-3 5,-3 7,-2 3,2 4,5 2,8z"/>
   <path class="fil2" d="M1168 447c-1,2 -5,3 -7,1 -3,-1 -4,-5 -2,-7 2,-3 5,-4 8,-2 2,2 3,5 1,8z"/>
   <path class="fil2" d="M1032 541c-1,2 -5,3 -7,1 -3,-1 -3,-5 -2,-7 2,-3 5,-4 8,-2 2,2 3,5 1,8z"/>
   <path class="fil2" d="M806 528c-1,3 -5,3 -7,2 -3,-2 -4,-5 -2,-8 1,-2 5,-3 7,-2 3,2 4,5 2,8z"/>
   <path class="fil2" d="M557 631c-1,3 -5,3 -7,2 -3,-2 -4,-5 -2,-8 1,-2 5,-3 7,-2 3,2 4,5 2,8z"/>
   <path class="fil2" d="M1164 96c-1,2 -5,3 -7,1 -3,-1 -4,-5 -2,-7 2,-3 5,-4 8,-2 2,2 3,5 1,8z"/>
   <path class="fil2" d="M1362 79c-2,3 -5,4 -8,2 -2,-1 -3,-5 -1,-7 1,-3 5,-4 7,-2 3,1 4,5 2,7z"/>
   <path class="fil2" d="M1584 108c-2,2 -5,3 -7,1 -3,-1 -4,-5 -2,-7 1,-3 5,-4 7,-2 3,2 4,5 2,8z"/>
   <path class="fil2" d="M701 374c-2,2 -5,3 -7,1 -3,-1 -4,-5 -2,-7 1,-3 5,-4 7,-2 3,2 4,5 2,8z"/>
   <path class="fil1" d="M531 292c-1,3 -5,3 -7,2 -3,-2 -4,-5 -2,-8 1,-2 5,-3 7,-2 3,2 4,5 2,8z"/>
   <path class="fil1" d="M419 487c-1,3 -4,3 -7,2 -3,-2 -3,-5 -2,-8 2,-2 5,-3 8,-2 2,2 3,5 1,8z"/>
   <path class="fil1" d="M267 1337c-2,3 -5,4 -7,2 -3,-2 -4,-5 -2,-8 1,-2 5,-3 7,-1 3,1 4,5 2,7z"/>
   <path class="fil2" d="M635 1380c-1,2 -5,3 -7,1 -3,-1 -4,-5 -2,-7 2,-3 5,-4 7,-2 3,2 4,5 2,8z"/>
   <path class="fil2" d="M800 263c-2,2 -5,3 -8,2 -2,-2 -3,-5 -1,-8 1,-3 4,-3 7,-2 3,2 3,5 2,8z"/>
   <path class="fil1" d="M1067 268c-2,2 -5,3 -7,1 -3,-1 -4,-5 -2,-7 1,-3 5,-3 7,-2 3,2 4,5 2,8z"/>
   <path class="fil2" d="M1384 373c-1,2 -5,3 -7,1 -3,-1 -4,-5 -2,-7 2,-3 5,-4 8,-2 2,2 3,5 1,8z"/>
   <path class="fil2" d="M1808 1388c-2,2 -5,3 -8,2 -2,-2 -3,-5 -1,-8 1,-3 5,-3 7,-2 3,2 4,5 2,8z"/>
   <path class="fil2" d="M1717 1171c-1,3 -5,3 -7,2 -3,-2 -3,-5 -2,-8 2,-2 5,-3 8,-2 2,2 3,5 1,8z"/>
   <path class="fil2" d="M264 1189c-1,3 -5,3 -7,2 -3,-2 -4,-5 -2,-8 2,-2 5,-3 8,-2 2,2 3,5 1,8z"/>
   <path class="fil2" d="M133 1188c-2,3 -5,4 -8,2 -2,-2 -3,-5 -2,-8 2,-2 5,-3 8,-1 2,1 3,5 2,7z"/>
   <path class="fil2" d="M2242 857c-2,2 -5,3 -7,1 -3,-1 -4,-5 -2,-7 1,-3 5,-4 7,-2 3,2 4,5 2,8z"/>
   <path class="fil2" d="M430 1123c-2,2 -5,3 -8,2 -2,-2 -3,-5 -2,-8 2,-3 5,-3 8,-2 2,2 3,5 2,8z"/>
   <path class="fil2" d="M667 1252c-2,3 -5,4 -8,2 -2,-2 -3,-5 -2,-8 2,-2 5,-3 8,-1 3,1 3,5 2,7z"/>
   <path class="fil2" d="M1602 1228c-2,3 -5,4 -8,2 -2,-1 -3,-5 -2,-7 2,-3 5,-4 8,-2 3,1 3,5 2,7z"/>
   <path class="fil1" d="M1780 1344c-1,3 -5,4 -7,2 -3,-2 -4,-5 -2,-8 2,-2 5,-3 8,-1 2,1 3,5 1,7z"/>
   <path class="fil2" d="M1541 582c-1,2 -5,3 -7,2 -3,-2 -4,-5 -2,-8 1,-3 5,-3 7,-2 3,2 4,5 2,8z"/>
   <path class="fil2" d="M1680 318c-2,3 -5,3 -8,2 -2,-2 -3,-5 -2,-8 2,-2 5,-3 8,-2 2,2 3,5 2,8z"/>
   <path class="fil2" d="M1638 342c-2,2 -5,3 -8,2 -2,-2 -3,-5 -2,-8 2,-3 5,-3 8,-2 2,2 3,5 2,8z"/>
   <path class="fil1" d="M1712 217c-1,2 -5,3 -7,1 -3,-1 -3,-5 -2,-7 2,-3 5,-4 8,-2 2,2 3,5 1,8z"/>
   <path class="fil2" d="M1709 1371c-2,3 -5,4 -8,2 -2,-1 -3,-5 -2,-7 2,-3 5,-4 8,-2 2,1 3,5 2,7z"/>
   <path class="fil2" d="M1488 1414c-1,3 -5,4 -7,2 -3,-1 -4,-5 -2,-7 1,-3 5,-4 7,-2 3,1 4,5 2,7z"/>
   <path class="fil1" d="M604 1267c-2,2 -5,3 -8,1 -2,-1 -3,-5 -2,-7 2,-3 5,-4 8,-2 2,2 3,5 2,8z"/>
   <path class="fil2" d="M383 1410c-2,3 -5,3 -8,2 -2,-2 -3,-5 -1,-8 1,-2 5,-3 7,-2 3,2 4,5 2,8z"/>
   <path class="fil2" d="M230 1396c-1,2 -4,3 -7,1 -3,-1 -3,-5 -2,-7 2,-3 5,-4 8,-2 2,2 3,5 1,8z"/>
   <path class="fil2" d="M333 1246c-1,3 -5,4 -7,2 -3,-1 -3,-5 -2,-7 2,-3 5,-4 8,-2 2,1 3,5 1,7z"/>
   <path class="fil2" d="M475 1221c-1,2 -5,3 -7,2 -3,-2 -3,-5 -2,-8 2,-3 5,-3 8,-2 2,2 3,5 1,8z"/>
   <path class="fil2" d="M1005 1466c-1,3 -5,4 -7,2 -3,-1 -3,-5 -2,-7 2,-3 5,-4 8,-2 2,1 3,5 1,7z"/>
   <path class="fil2" d="M1264 1313c-1,2 -5,3 -7,1 -3,-1 -4,-5 -2,-7 2,-3 5,-4 7,-2 3,2 4,5 2,8z"/>
   <path class="fil2" d="M908 1120c-2,3 -5,4 -8,2 -2,-2 -3,-5 -2,-8 2,-2 5,-3 8,-1 2,1 3,5 2,7z"/>
   <path class="fil2" d="M1263 1474c-2,3 -5,4 -8,2 -2,-2 -3,-5 -2,-8 2,-2 5,-3 8,-1 2,1 3,5 2,7z"/>
   <path class="fil1" d="M1171 1497c-2,3 -5,4 -8,2 -2,-2 -3,-5 -1,-8 1,-2 4,-3 7,-1 3,1 3,5 2,7z"/>
   <path class="fil1" d="M1394 1273c-2,2 -5,3 -8,1 -2,-1 -3,-5 -1,-7 1,-3 4,-4 7,-2 3,2 3,5 2,8z"/>
   <path class="fil2" d="M822 1231c-2,3 -5,4 -8,2 -3,-1 -3,-5 -2,-7 2,-3 5,-4 8,-2 2,1 3,5 2,7z"/>
   <polygon class="fil3" points="2004,1008 2003,1007 2003,1008 "/>
   <polygon class="fil3" points="2048,946 2048,946 2048,946 "/>
   <path class="fil2" d="M291 723c-2,2 -5,3 -8,1 -2,-1 -3,-5 -2,-7 2,-3 5,-4 8,-2 3,2 3,5 2,8z"/>
   <path class="fil2" d="M382 873c-2,2 -5,3 -8,1 -2,-1 -3,-5 -2,-7 2,-3 5,-4 8,-2 3,2 3,5 2,8z"/>
   <path class="fil1" d="M865 672c-1,3 -5,3 -7,2 -3,-2 -4,-5 -2,-8 1,-2 5,-3 7,-2 3,2 4,5 2,8z"/>
   <path class="fil1" d="M207 654c-2,2 -5,3 -7,2 -3,-2 -4,-5 -2,-8 1,-3 5,-3 7,-2 3,2 4,5 2,8z"/>
   <path class="fil2" d="M110 1004c-1,3 -5,4 -7,2 -3,-2 -4,-5 -2,-7 2,-3 5,-4 8,-2 2,1 3,5 1,7z"/>
   <path class="fil2" d="M1231 1070c-1,2 -5,3 -7,1 -3,-1 -4,-5 -2,-7 2,-3 5,-4 8,-2 2,2 3,5 1,8z"/>
   <path class="fil2" d="M753 960c-2,3 -5,3 -8,2 -3,-2 -3,-5 -2,-8 2,-2 5,-3 8,-2 2,2 3,5 2,8z"/>
   <path class="fil2" d="M565 1071c-1,3 -5,3 -7,2 -3,-2 -4,-5 -2,-8 2,-3 5,-3 8,-2 2,2 3,5 1,8z"/>
   <path class="fil2" d="M2470 791c-1,2 -5,3 -7,2 -3,-2 -4,-5 -2,-8 1,-3 5,-3 7,-2 3,2 4,5 2,8z"/>
   <path class="fil2" d="M283 913c-2,3 -5,3 -8,2 -2,-2 -3,-5 -2,-8 2,-2 5,-3 8,-2 2,2 3,5 2,8z"/>
   <path class="fil2" d="M638 863c-1,3 -5,3 -7,2 -3,-2 -4,-5 -2,-8 2,-2 5,-3 8,-2 2,2 3,5 1,8z"/>
   <path class="fil2" d="M533 836c-2,3 -5,4 -8,2 -2,-1 -3,-5 -2,-7 2,-3 5,-4 8,-2 3,1 3,5 2,7z"/>
   <path class="fil1" d="M599 919c-1,2 -5,3 -7,2 -3,-2 -4,-5 -2,-8 2,-3 5,-3 8,-2 2,2 3,5 1,8z"/>
   <path class="fil2" d="M924 858c-2,2 -5,3 -8,2 -2,-2 -3,-5 -2,-8 2,-3 5,-3 8,-2 2,2 3,5 2,8z"/>
   <path class="fil2" d="M1490 1060c-1,3 -5,3 -7,2 -3,-2 -3,-5 -2,-8 2,-2 5,-3 8,-2 2,2 3,6 1,8z"/>
   <path class="fil4" d="M362 1030c-21,0 -38,-17 -38,-38l0 0c0,21 -17,38 -38,38 21,1 38,18 38,40l0 0c0,-22 17,-39 38,-40z"/>
   <path class="fil2" d="M1556 1377c12,0 22,10 22,22l0 0c0,-12 10,-22 22,-22 -12,-1 -22,-11 -22,-23l0 0c0,12 -9,22 -22,23z"/>
   <path class="fil4" d="M954 369c-14,0 -26,-12 -26,-27l0 0c0,15 -12,27 -26,27 14,1 26,13 26,28l0 0c0,-15 12,-27 26,-28z"/>
   <path class="fil2" d="M328 289c29,1 53,26 53,55l1 0c0,-29 23,-54 52,-55 -29,0 -53,-25 -53,-55l0 0c0,30 -24,55 -53,55z"/>
   <path class="fil2" d="M2355 1256c-2,2 -5,3 -7,2 -3,-2 -4,-5 -2,-8 1,-3 5,-3 7,-2 3,2 4,5 2,8z"/>
   <path class="fil1" d="M2271 1187c-1,3 -5,3 -7,2 -3,-2 -4,-5 -2,-8 2,-2 5,-3 8,-1 2,1 3,5 1,7z"/>
   <path class="fil2" d="M2126 1371c-1,3 -5,4 -7,2 -3,-1 -3,-5 -2,-7 2,-3 5,-4 8,-2 2,1 3,5 1,7z"/>
   <path class="fil2" d="M2597 1370c-2,2 -5,3 -7,1 -3,-1 -4,-5 -2,-7 1,-3 5,-4 7,-2 3,2 4,5 2,8z"/>
   <path class="fil2" d="M2480 212c1,3 5,3 7,2 3,-2 4,-5 2,-8 -2,-2 -5,-3 -8,-2 -2,2 -3,5 -1,8z"/>
   <path class="fil2" d="M2286 422c2,3 5,4 7,2 3,-1 4,-5 2,-7 -1,-3 -5,-4 -7,-2 -3,1 -4,5 -2,7z"/>
   <path class="fil1" d="M2271 260c2,3 5,3 8,2 2,-2 3,-5 1,-8 -1,-2 -5,-3 -7,-2 -3,2 -4,5 -2,8z"/>
  </g>
 </g>
</svg>
