<?xml version="1.0" encoding="UTF-8"?>
<!DOCTYPE svg PUBLIC "-//W3C//DTD SVG 1.1//EN" "http://www.w3.org/Graphics/SVG/1.1/DTD/svg11.dtd">
<!-- Creator: CorelDRAW X7 -->
<svg xmlns="http://www.w3.org/2000/svg" xml:space="preserve" width="100%" height="100%" version="1.1" style="shape-rendering:geometricPrecision; text-rendering:geometricPrecision; image-rendering:optimizeQuality; fill-rule:evenodd; clip-rule:evenodd"
viewBox="0 0 1803 1524"
 xmlns:xlink="http://www.w3.org/1999/xlink">
 <defs>
  <style type="text/css">
   <![CDATA[
    .fil2 {fill:#FDDFD1}
    .fil12 {fill:#FCD9C8}
    .fil18 {fill:#D2AE6D}
    .fil0 {fill:#F6DCCB}
    .fil3 {fill:#8DA0D1}
    .fil1 {fill:#835086}
    .fil5 {fill:#6C87C3}
    .fil4 {fill:#686AA2}
    .fil11 {fill:#DABA76}
    .fil15 {fill:#F0F5FF}
    .fil13 {fill:#FF6600}
    .fil16 {fill:white}
    .fil19 {fill:white}
    .fil6 {fill:#FCD9C8;fill-rule:nonzero}
    .fil7 {fill:#DABA76;fill-rule:nonzero}
    .fil17 {fill:#8DA0D1;fill-rule:nonzero}
    .fil8 {fill:#6C87C3;fill-rule:nonzero}
    .fil9 {fill:#686AA2;fill-rule:nonzero}
    .fil14 {fill:#D6E4FF;fill-rule:nonzero}
    .fil10 {fill:#EBF2FF;fill-rule:nonzero}
   ]]>
  </style>
 </defs>
 <g id="Layer_x0020_1">
  <metadata id="CorelCorpID_0Corel-Layer"/>
  <g id="_1697748149104">
   <g>
    <path class="fil0" d="M997 290c0,0 -166,49 -162,-56 0,0 2,-77 98,-32 0,0 4,-104 87,-96 83,7 112,20 112,20 0,0 -3,-30 31,-46 51,-25 129,-3 129,-3 0,0 55,14 48,56 -8,50 -30,36 -97,37 0,0 -198,189 -246,120z"/>
    <path class="fil1" d="M968 1524c-6,-37 -11,-74 -14,-112 -14,-155 -8,-316 19,-481 26,-165 71,-323 134,-470 30,-71 64,-139 101,-202 36,-62 76,-120 118,-172 26,-31 51,-60 78,-87l399 0 0 1513 -33 11 -802 0z"/>
    <path class="fil2" d="M967 1524c-7,-45 -12,-92 -15,-140 -9,-141 -2,-288 22,-438 24,-151 63,-295 115,-430 25,-65 54,-127 84,-184 31,-57 64,-111 98,-159 35,-47 71,-91 109,-128 16,-16 33,-31 50,-45l373 0 0 1524 -836 0z"/>
    <path class="fil3" d="M1530 607c-104,-9 -215,149 -248,353 -32,204 27,377 131,387 104,10 215,-149 248,-353 32,-203 -27,-377 -131,-387z"/>
    <path class="fil4" d="M1605 0c-248,85 -495,467 -570,942 -34,213 -28,414 8,582l-104 0c-5,-32 -9,-65 -12,-98 -14,-154 -7,-316 19,-481 27,-165 72,-323 135,-470 30,-71 64,-139 101,-201 36,-63 76,-121 118,-173 29,-36 60,-70 91,-101l214 0zm198 1l-2 -1 2 0 0 1z"/>
    <path class="fil5" d="M1578 377c-168,-16 -348,240 -401,570 -40,255 7,480 108,577l-148 0c-26,-78 -42,-167 -48,-265 -6,-103 0,-210 18,-320 17,-110 45,-216 82,-314 37,-95 81,-179 131,-250 50,-72 103,-126 159,-163 59,-37 116,-54 173,-49 56,6 107,32 151,79l0 546c-8,-229 -94,-399 -225,-411zm225 1072c-13,26 -27,51 -41,75l-228 0c116,-89 218,-286 255,-521 8,-48 13,-95 14,-140l0 586z"/>
    <path class="fil5" d="M1462 940c0,0 -101,306 -125,361l-27 -47c0,0 101,-240 152,-314z"/>
    <path class="fil3" d="M1337 1301c0,0 -60,147 -84,184 0,0 -23,-32 -28,-48 0,0 70,-153 85,-177l27 41z"/>
    <g>
     <path class="fil6" d="M264 659l-11 93 -18 91c0,0 -71,-9 -145,-41l25 -13c0,0 -46,-12 -115,-77 86,-41 132,-39 132,-39l-19 -19c80,-9 151,5 151,5z"/>
     <path class="fil7" d="M260 690l-7 62 -12 60c0,0 -48,-5 -96,-27l16 -8c0,0 -30,-8 -76,-52 57,-27 88,-26 88,-26l-13 -12c53,-6 100,3 100,3z"/>
     <polygon class="fil8" points="257,637 222,862 249,866 283,641 "/>
     <path class="fil9" d="M439 934c0,0 -116,140 -305,78 -18,-6 -18,-31 0,-36 49,-15 115,-48 138,-118l167 76z"/>
     <path class="fil9" d="M485 634c0,0 -69,-168 -268,-167 -18,0 -26,24 -10,35 42,29 95,80 96,154l182 -22z"/>
     <path class="fil10" d="M283 631c65,-11 332,-1 586,39 287,45 600,231 594,271 -7,40 -360,122 -648,77 -271,-43 -511,-112 -570,-142l38 -245z"/>
     <path class="fil9" d="M1177 1020c-18,-40 -25,-83 -19,-127 7,-43 27,-82 56,-116 142,65 247,136 249,162 0,0 0,1 0,2 0,0 -1,1 -1,2 -10,23 -130,60 -285,77z"/>
     <path class="fil8" d="M772 731c55,9 92,60 83,115 -8,55 -59,92 -113,84 -54,-9 -91,-60 -83,-115 8,-55 59,-92 113,-84z"/>
     <path class="fil8" d="M589 745c32,5 54,35 49,67 -5,32 -35,54 -67,49 -31,-5 -53,-35 -48,-67 5,-32 34,-54 66,-49z"/>
     <path class="fil11" d="M574 847c-24,-4 -41,-27 -37,-51l0 0c4,-24 26,-41 50,-37l0 0c24,4 40,26 37,51l0 0c-2,10 -7,19 -14,25l0 0c-9,9 -23,14 -36,12l0 0z"/>
     <path class="fil9" d="M269 719c-74,-12 -137,-6 -140,13 -3,19 55,44 130,56 75,11 138,5 140,-13 3,-19 -55,-44 -130,-56z"/>
    </g>
    <path class="fil12" d="M25 1310c0,0 -44,-72 26,-80 59,-7 86,4 86,4 0,0 -45,-65 3,-81 49,-17 173,22 173,22 0,0 -16,-54 41,-44 57,11 99,46 96,61 0,0 24,62 -141,50 0,0 -5,113 -178,69 0,0 -57,73 -106,-1z"/>
    <polygon class="fil13" points="1098,1008 1097,1007 1097,1008 "/>
    <polygon class="fil13" points="1141,946 1141,946 1141,946 "/>
    <g>
     <g>
      <path class="fil14" d="M740 400c0,0 -21,-13 -31,-3 -11,10 -10,65 -10,65l44 -47 -3 -15z"/>
      <path class="fil15" d="M820 443c0,0 33,9 46,16 12,8 35,30 44,39 0,0 0,22 -18,24 0,0 -35,-25 -47,-27 -12,-2 -29,-6 -29,-6l-8 -42 12 -4z"/>
      <path class="fil16" d="M910 498c0,0 21,6 25,12 4,5 -12,0 -12,0 0,0 18,12 16,15 -2,4 -20,-9 -20,-9 0,0 19,11 17,15 -2,3 -20,-8 -20,-8 0,0 12,12 11,15 -2,4 -17,-10 -17,-10 0,0 -1,6 -2,12 0,6 -10,-1 -16,-18l18 -24z"/>
      <path class="fil8" d="M890 526c1,0 2,0 3,0 19,-9 20,-27 20,-27 1,-2 -1,-4 -3,-4 -2,0 -4,1 -4,3 0,1 -1,14 -16,21 -2,1 -3,3 -2,5 0,1 1,1 2,2z"/>
      <path class="fil3" d="M873 464c0,0 -11,24 -20,34 0,0 -3,2 -8,-3 0,0 1,-23 12,-40 0,0 9,0 16,9z"/>
      <path class="fil17" d="M815 489l2 0c2,-25 -4,-39 -4,-39l-2 1c0,0 6,13 4,38z"/>
      <path class="fil16" d="M811 448c0,0 21,50 -20,97 0,0 23,35 26,49 4,14 -8,56 -8,56 0,0 1,1 2,3 -1,2 -6,6 -16,6 -6,0 -14,-1 -24,-3 -1,-2 -2,-3 -2,-5 0,0 5,-36 8,-47l-25 -23 -2 3c-2,6 -5,13 -8,19 0,0 -12,21 -36,34 0,0 0,2 -1,4 -2,0 -7,0 -12,-3l-4 -2c-5,-3 -12,-9 -16,-19 1,-1 2,-2 3,-4 0,0 22,-16 27,-26l4 -56c0,0 -6,-15 8,-39l33 -63 63 19z"/>
      <path class="fil4" d="M791 489c-2,4 -1,9 3,11 5,3 10,1 12,-3 3,-4 1,-9 -3,-12 -4,-2 -9,-1 -12,4z"/>
      <path class="fil8" d="M693 638l0 0 0 0 0 0 0 0 0 1 1 0 0 0 0 0 0 0 0 0 0 0 0 0 1 0 0 0 0 0 0 0 0 0 0 0 0 0 1 0 0 0 0 0 0 0 0 1 0 0 0 0 1 0 0 0 0 0 0 0 0 0 0 0 0 0 1 0 0 0 0 0 0 0 0 0 0 0 0 0 0 0 0 0 1 0 0 0 0 0 0 0 0 0 0 0 0 0 0 0 1 0 0 0 0 0 0 1 0 0 0 0 0 0 0 0 1 0 0 0 0 0 0 0 0 0 0 0 0 0 0 0 0 0 1 0 0 0 0 0 0 0 0 0 0 0 0 0 0 0 0 0 1 0 0 0 0 0 0 0 0 0 0 0 0 0 0 0 0 0 0 0 0 0 0 0 1 0 0 0 0 0 0 0 0 0 0 0 0 0 0 0 0 0 0 0 0 0 0 0 0 0 1 0 0 0 0 0 0 0 0 0 0 0 0 0 0 0 0 0c1,0 1,0 1,0 3,0 4,-2 4,-4 0,-2 -2,-4 -4,-4 -1,0 -19,1 -27,-21 0,-2 -3,-3 -5,-2 -2,0 -3,3 -2,5l1 2 0 1 0 0 1 0 0 1 0 0 0 0 0 0 0 1 0 0 0 0 0 0 1 0 0 1 0 0 0 0 0 0 0 1 0 0 0 0 0 0 1 0 0 1 0 0 0 0 0 0 0 0 0 1 0 0 1 0 0 0 0 0 0 1 0 0 0 0 0 0 0 0 1 1 0 0 0 0 0 0 0 0 0 1 0 0 1 0 0 0 0 0 0 1 0 0 0 0 0 0 1 0 0 0 0 1 0 0 0 0 0 0 0 0 0 0 1 0 0 1 0 0 0 0 0 0 0 0 0 0 1 0 0 1 0 0 0 0 0 0 0 0 0 0 0 0 1 1 0 0 0 0 0 0 0 0 0 0 0 0 1 0 0 1 0 0 0 0 0 0 0 0 0 0 1 0 0 0 0 0 0 1 0 0 0 0 0 0 1 0 0 0 0 0 0 0 0 0 0 1 0 0 1 0 0 0 0 0 0 0 0 0 0 0 0 0 1 0 0 1 0 0 0 0 0 0 0 0 0 0 1 0 0 0 0 0 0 0 0 0 4 2z"/>
      <path class="fil3" d="M700 590c5,16 29,30 34,26 4,-4 6,-10 6,-10 -11,-20 -37,-21 -37,-21 0,0 -2,1 -3,5z"/>
      <path class="fil17" d="M705 534c1,0 2,1 3,0 1,0 34,-3 48,27 1,2 3,2 5,2 2,-1 3,-4 2,-6 -16,-34 -56,-30 -56,-30 -2,0 -4,2 -4,4 1,1 1,2 2,3z"/>
      <path class="fil8" d="M767 654c0,0 0,1 0,1l4 1 1 0 0 0 0 0 1 0 0 0 1 0 0 0 0 1 1 0 0 0 0 0 1 0 1 0 0 0 0 0 0 0 1 0 0 0 0 0 1 0 0 1 0 0 0 0 1 0 0 0 1 0 0 0 0 0 0 0 1 0 0 0 1 0 0 0 0 0 0 0 1 0 0 0 0 0 1 0 0 0 0 0 1 1 0 0 0 0 0 0 1 0 0 0 0 0 0 0 1 0 0 0 0 0 0 0 1 0 0 0 0 0 0 0 1 0 0 0 0 0 0 0 1 0 0 0 0 0 0 0 0 0 1 0 0 0 0 0 0 0 1 0 0 0 0 0 0 0 1 0 0 0 0 0 0 0 0 0 1 0 1 0 0 0 0 0 1 0 0 0 0 0 0 0 1 0 0 0 0 0 1 0 0 0 0 0 0 0 1 -1 0 0 0 0 0 0 1 0 0 0 0 0 0 0 0 0 1 0 0 0 0 0 0 0 1 0 0 0 0 0 0 0 0 0 1 0 0 -1 0 0 0 0 1 0 0 0 0 0 0 0 0 0 0 0 1 0 0 0 0 0 0 0 0 0 1 0 0 0 0 -1 0 0 0 0 0 0 0 0 0 0 1 0 0 0 0 0 0 0 0 0 0 0 1 -1 0 0 0 0 0 0 0 0 0 0 0 0 0 0 1 0 0 0 0 0 0 0 0 0 0 0 0 -1 0 0 0 0 0 0 0 0 1 0 0 0 0 0 0 0 0 0 0 0 0 0 0 0 0 0 0 -1 0 0 0 0 0 0 0 0 1 -1c2,-2 1,-4 -1,-5 -1,-1 -4,-1 -5,1 0,0 -8,8 -36,-1 -2,0 -5,1 -5,3 -1,2 0,3 2,4z"/>
      <path class="fil3" d="M814 585c0,0 -28,8 -37,19 -8,12 41,3 41,3 0,0 6,-11 -4,-22z"/>
      <path class="fil17" d="M756 560c2,1 4,1 5,0 15,-14 28,-11 29,-11 2,1 4,-1 4,-3 1,-2 0,-4 -2,-4 -1,-1 -18,-5 -36,12 -2,1 -2,4 0,5 0,1 0,1 0,1z"/>
      <polygon class="fil17" points="751,580 753,581 762,557 760,556 "/>
      <path class="fil16" d="M742 370c-15,26 -6,61 21,77 27,15 62,6 77,-20 15,-27 6,-62 -21,-78 -27,-15 -61,-6 -77,21z"/>
      <path class="fil4" d="M759 439c2,3 6,5 9,7 25,15 57,6 72,-19 6,-11 8,-24 5,-36l0 -1c0,-2 -2,-3 -4,-2 -7,5 -26,10 -63,-19 -3,-1 -6,-1 -7,2 -8,10 -25,39 -14,66l2 2z"/>
      <path class="fil16" d="M662 527c0,0 -12,29 -11,35 1,7 9,-8 9,-8 0,0 -5,21 -1,22 4,2 8,-20 8,-20 0,0 -6,21 -2,22 4,1 9,-19 9,-19 0,0 0,17 3,19 3,1 5,-20 5,-20 0,0 5,4 9,8 5,4 7,-8 0,-25l-29 -14z"/>
      <path class="fil15" d="M738 422c0,0 25,13 19,36 0,0 -15,17 -42,34 0,0 -6,5 -11,18 -6,13 -12,31 -12,31 0,0 -14,3 -30,-14 0,0 3,-35 19,-59 17,-24 57,-46 57,-46z"/>
      <path class="fil8" d="M671 542c8,5 17,5 21,3 2,0 3,-3 3,-5 -1,-2 -3,-3 -5,-2 -1,0 -15,4 -25,-13 -1,-2 -3,-2 -5,-1 -2,1 -3,3 -2,5 4,6 9,11 13,13z"/>
      <path class="fil3" d="M709 499c0,0 -30,-18 -28,-31 0,0 -4,5 -9,17 0,0 14,16 34,19 0,0 2,1 3,-5z"/>
      <path class="fil17" d="M752 465c0,0 1,0 1,0 3,1 6,0 7,-3 9,-25 -10,-40 -21,-44 -2,-1 -5,0 -6,3 -1,2 0,5 3,6 2,1 22,10 14,32 -1,2 0,5 2,6z"/>
     </g>
     <path class="fil16" d="M818 680c-5,11 -34,-4 -47,-24 10,2 18,3 24,3 10,0 15,-4 16,-6 2,2 4,6 5,9 3,6 4,12 2,18z"/>
     <path class="fil16" d="M680 677c-11,3 -18,-14 -16,-34 2,-8 4,-18 9,-26 4,10 11,16 16,19l4 2c5,3 10,3 12,3 0,2 -1,4 -2,6 -4,11 -12,26 -23,30z"/>
    </g>
    <g>
     <circle class="fil18" cx="757" cy="830" r="76"/>
     <path class="fil19" d="M771 852l0 14 -57 0 0 -14 57 0zm-57 -43l0 -14c29,0 57,0 86,0l-14 14c-24,0 -48,0 -72,0zm86 14c0,15 0,29 0,43l-14 0 0 -28 0 0 -72 0 0 -15c29,0 57,0 86,0z"/>
    </g>
   </g>
   <path class="fil4" d="M1225 1438c0,0 -7,15 -39,86l47 0 20 -38 -28 -48z"/>
  </g>
 </g>
</svg>
