<?xml version="1.0" encoding="UTF-8"?>
<!DOCTYPE svg PUBLIC "-//W3C//DTD SVG 1.1//EN" "http://www.w3.org/Graphics/SVG/1.1/DTD/svg11.dtd">
<!-- Creator: CorelDRAW X7 -->
<svg xmlns="http://www.w3.org/2000/svg" xml:space="preserve" width="100%" height="100%" version="1.1" style="shape-rendering:geometricPrecision; text-rendering:geometricPrecision; image-rendering:optimizeQuality; fill-rule:evenodd; clip-rule:evenodd"
viewBox="0 0 1786 1536"
 xmlns:xlink="http://www.w3.org/1999/xlink">
 <defs>
  <style type="text/css">
   <![CDATA[
    .fil0 {fill:#D2AE6D}
    .fil20 {fill:#7099FF}
    .fil22 {fill:#8480BC}
    .fil21 {fill:#A4DBDD}
    .fil18 {fill:#C0CDF8}
    .fil2 {fill:#E3C07B}
    .fil1 {fill:white}
    .fil13 {fill:#D2AE6D;fill-rule:nonzero}
    .fil14 {fill:#B5E1E2;fill-rule:nonzero}
    .fil11 {fill:#79C9F0;fill-rule:nonzero}
    .fil15 {fill:#2195CA;fill-rule:nonzero}
    .fil19 {fill:#2195CA;fill-rule:nonzero}
    .fil16 {fill:#2688C4;fill-rule:nonzero}
    .fil8 {fill:#494599;fill-rule:nonzero}
    .fil3 {fill:#5C56A2;fill-rule:nonzero}
    .fil5 {fill:#79C9F0;fill-rule:nonzero}
    .fil9 {fill:#8480BC;fill-rule:nonzero}
    .fil24 {fill:#D2AE6D;fill-rule:nonzero}
    .fil17 {fill:#E3C07B;fill-rule:nonzero}
    .fil4 {fill:#E6E9FF;fill-rule:nonzero}
    .fil23 {fill:#F6F7FF;fill-rule:nonzero}
    .fil6 {fill:#FF6600;fill-rule:nonzero}
    .fil7 {fill:#FFCFD3;fill-rule:nonzero}
    .fil10 {fill:white;fill-rule:nonzero}
    .fil12 {fill:white;fill-rule:nonzero}
   ]]>
  </style>
 </defs>
 <g id="Layer_x0020_1">
  <metadata id="CorelCorpID_0Corel-Layer"/>
  <g id="_2098893703872">
   <g>
    <circle class="fil0" cx="424" cy="332" r="332"/>
    <path class="fil1" d="M486 426l0 62 -250 0 0 -62 250 0zm-250 -188l0 -63c125,0 250,0 376,0l-63 63c-104,0 -209,0 -313,0zm376 62c0,63 0,126 0,188l-63 0 0 -125 0 0 -313 0 0 -63c125,0 250,0 376,0z"/>
   </g>
   <path class="fil2" d="M1734 1192c0,-14 -82,-25 -182,-25 -100,0 -181,11 -181,25 0,14 81,25 181,25 100,0 182,-11 182,-25z"/>
   <path class="fil2" d="M549 1185l-206 -4 171 76 209 -17c22,10 87,17 164,17 95,0 172,-11 172,-24 0,-6 -18,-12 -46,-16l399 -32 -863 0z"/>
   <path class="fil2" d="M557 1524c0,-6 -38,-12 -86,-12 -47,0 -85,6 -85,12 0,7 38,12 85,12 48,0 86,-5 86,-12z"/>
   <polygon class="fil2" points="1730,1390 1148,1344 1084,1346 1243,1414 "/>
   <polygon class="fil2" points="1505,1509 923,1463 860,1465 1018,1533 "/>
   <polygon class="fil2" points="638,910 0,918 549,1185 1412,1185 "/>
   <polygon class="fil3" points="549,1185 598,1185 598,300 549,300 "/>
   <polygon class="fil4" points="571,1185 1412,1185 1412,300 571,300 "/>
   <polygon class="fil5" points="571,369 1412,369 1412,300 571,300 "/>
   <polygon class="fil6" points="510,1390 519,1307 529,1218 521,1217 502,1301 473,1304 443,1218 435,1219 457,1310 456,1388 "/>
   <path class="fil7" d="M500 1276c2,8 -1,21 -9,23 -8,3 -18,-7 -20,-15 -2,-8 3,-16 11,-18 8,-2 16,2 18,10z"/>
   <path class="fil8" d="M489 1272c2,-1 4,-2 5,-3 0,0 0,-1 0,-1 -3,-2 -8,-3 -12,-2 -8,2 -13,10 -11,18 2,6 7,12 13,15 0,-2 -1,-3 -1,-5 -2,-6 -4,-13 -6,-19 4,-1 9,-2 12,-3z"/>
   <path class="fil7" d="M480 1284c-1,-1 -2,-1 -4,-1 0,1 0,1 0,1 -1,1 -1,1 -1,2 0,3 2,5 4,5 1,0 1,1 2,0 1,0 1,0 2,-1 1,-2 -1,-5 -3,-6z"/>
   <polygon class="fil3" points="456,1388 464,1516 473,1516 480,1389 488,1389 493,1519 500,1519 510,1390 512,1375 456,1375 "/>
   <polygon class="fil3" points="464,1516 445,1518 445,1521 474,1521 473,1516 "/>
   <polygon class="fil3" points="493,1519 493,1523 520,1524 520,1520 500,1519 "/>
   <path class="fil8" d="M486 1287c5,1 9,-4 13,-5 1,0 1,0 1,0 1,1 1,1 1,1 1,1 1,3 2,4 1,1 1,2 1,4 1,1 1,3 0,5 0,1 0,2 -1,3 -1,2 -3,4 -5,5 -2,1 -5,1 -7,1 -2,-1 -3,-1 -5,-2 -3,-1 -5,-5 -4,-8 0,-1 0,-2 0,-3 0,-1 0,-2 -1,-2 0,-1 -3,-5 -1,-5 1,0 2,1 3,1 1,1 2,1 3,1z"/>
   <path class="fil9" d="M1590 1118l-69 0c-1,0 -3,-1 -3,-2 -1,-2 -1,-3 0,-5l67 -71 6 5 -60 65 59 0 0 8z"/>
   <polygon class="fil3" points="1605,1180 1505,1180 1505,1108 1605,1108 "/>
   <path class="fil9" d="M1590 824l-69 0c-1,0 -3,-1 -3,-3 -1,-1 -1,-3 0,-4l67 -72 6 6 -60 65 59 0 0 8z"/>
   <path class="fil9" d="M1590 897l-69 0c-1,0 -3,-1 -3,-2 -1,-2 -1,-3 0,-4l67 -72 6 5 -60 65 59 0 0 8z"/>
   <path class="fil9" d="M1590 971l-69 0c-1,0 -3,-1 -3,-3 -1,-1 -1,-3 0,-4l67 -72 6 6 -60 65 59 0 0 8z"/>
   <path class="fil9" d="M1590 1045l-69 0c-1,0 -3,-1 -3,-3 -1,-1 -1,-3 0,-4l67 -72 6 6 -60 65 59 0 0 8z"/>
   <path class="fil9" d="M1590 752l-69 0c-1,0 -3,-1 -3,-3 -1,-1 -1,-3 0,-4l67 -72 6 6 -60 65 59 0 0 8z"/>
   <path class="fil9" d="M1590 680l-69 0c-1,0 -3,-1 -3,-3 -1,-1 -1,-3 0,-4l67 -72 6 6 -60 65 59 0 0 8z"/>
   <path class="fil9" d="M1590 608l-69 0c-1,0 -3,-1 -3,-2 -1,-2 -1,-4 0,-5l67 -72 6 6 -60 65 59 0 0 8z"/>
   <path class="fil9" d="M1590 536l-69 0c-1,0 -3,-1 -3,-2 -1,-2 -1,-4 0,-5l67 -71 6 5 -60 65 59 0 0 8z"/>
   <path class="fil9" d="M1590 464l-69 0c-1,0 -3,-1 -3,-2 -1,-2 -1,-3 0,-5l67 -71 6 5 -60 65 59 0 0 8z"/>
   <path class="fil9" d="M1590 392l-69 0c-1,0 -3,-1 -3,-2 -1,-2 -1,-3 0,-4l67 -72 6 5 -60 65 59 0 0 8z"/>
   <polygon class="fil8" points="1639,1198 1471,1198 1471,1167 1639,1167 "/>
   <path class="fil10" d="M671 354l209 0c7,0 13,-6 13,-13l0 -9c0,-7 -6,-13 -13,-13l-209 0c-7,0 -13,6 -13,13l0 9c0,7 6,13 13,13z"/>
   <polygon class="fil11" points="1730,1378 1730,1390 1251,1396 1148,1344 1148,1332 "/>
   <polygon class="fil11" points="1251,1396 1730,1390 1626,1337 1148,1344 "/>
   <polygon class="fil12" points="1251,1384 1730,1378 1626,1325 1148,1332 "/>
   <polygon class="fil13" points="1362,1338 1625,1335 1617,1331 1355,1334 "/>
   <polygon class="fil13" points="1382,1348 1645,1345 1637,1341 1374,1344 "/>
   <polygon class="fil13" points="1401,1358 1664,1354 1656,1350 1393,1354 "/>
   <polygon class="fil13" points="1419,1367 1682,1363 1674,1359 1411,1363 "/>
   <polygon class="fil14" points="1252,1377 1422,1374 1343,1334 1173,1337 "/>
   <polygon class="fil15" points="1507,1495 1507,1507 1029,1513 925,1461 925,1449 "/>
   <polygon class="fil15" points="1029,1513 1507,1507 1403,1454 925,1461 "/>
   <polygon class="fil12" points="1028,1501 1507,1495 1403,1442 925,1449 "/>
   <polygon class="fil11" points="1140,1455 1402,1451 1395,1448 1132,1451 "/>
   <polygon class="fil11" points="1159,1465 1422,1461 1414,1457 1151,1461 "/>
   <polygon class="fil11" points="1178,1474 1441,1471 1433,1467 1170,1470 "/>
   <polygon class="fil11" points="1196,1484 1459,1480 1451,1476 1188,1480 "/>
   <polygon class="fil11" points="1029,1493 1199,1491 1120,1451 950,1453 "/>
   <polygon class="fil5" points="598,452 897,452 897,420 598,420 "/>
   <polygon class="fil5" points="598,614 897,614 897,480 598,480 "/>
   <path class="fil3" d="M1524 303l62 0 0 839 -62 0 0 -839zm70 -8l-78 0 0 855 78 0 0 -855z"/>
   <path class="fil16" d="M1590 320l-69 0c-1,0 -3,-1 -3,-2 -1,-1 -1,-3 0,-4l67 -72 6 5 -60 65 59 0 0 8z"/>
   <polygon class="fil17" points="1594,322 1468,322 1468,215 1594,215 "/>
   <polygon class="fil17" points="1784,276 1657,276 1657,215 1784,215 "/>
   <path class="fil9" d="M1275 188c-1,0 -2,-1 -2,-1 0,-1 0,-3 1,-3l295 -90c1,0 1,0 2,0l140 59c1,1 1,2 1,3 -1,1 -2,1 -3,1l-139 -59 -295 90c0,0 0,0 0,0z"/>
   <path class="fil9" d="M1523 222c0,0 -1,0 -1,0 -2,-1 -3,-3 -2,-5l46 -122c1,-2 2,-3 4,-3 2,0 3,1 4,3l24 119c0,3 -1,5 -3,5 -2,1 -5,-1 -5,-3l-21 -106 -42 110c0,1 -2,2 -4,2z"/>
   <path class="fil17" d="M1578 96c0,4 -4,8 -8,8 -5,0 -8,-4 -8,-8 0,-4 3,-8 8,-8 4,0 8,4 8,8z"/>
   <path class="fil3" d="M1782 223l-625 0c-2,0 -4,-2 -4,-4 0,-2 2,-4 4,-4l625 0c2,0 4,2 4,4 0,2 -2,4 -4,4z"/>
   <path class="fil3" d="M1531 222c0,0 -1,0 -1,-1l-34 -33 -305 0 -31 31c-1,1 -2,1 -3,0 -1,0 -1,-2 0,-2l33 -33 308 0 35 35c0,0 0,2 0,2 -1,1 -1,1 -2,1z"/>
   <path class="fil3" d="M1784 222c0,0 -1,0 -1,-1l-34 -64 -80 0 -32 62c0,1 -1,1 -2,1 -1,-1 -2,-2 -1,-3l32 -64 86 0 34 66c1,1 0,2 -1,3 0,0 0,0 -1,0z"/>
   <path class="fil3" d="M1422 222c0,0 -1,0 -1,0l-39 -32 0 30c0,1 -1,2 -2,2 -2,0 -2,-1 -2,-2l0 -34c0,-1 0,-1 1,-2 0,0 1,0 2,1l42 34c1,0 1,2 1,3 -1,0 -1,0 -2,0z"/>
   <path class="fil3" d="M1460 222c-1,0 -1,0 -1,0l-40 -32 0 30c0,1 0,2 -2,2 -1,0 -2,-1 -2,-2l0 -34c0,-1 1,-1 2,-2 0,0 1,0 2,1l42 34c1,0 1,2 0,3 0,0 -1,0 -1,0z"/>
   <path class="fil3" d="M1498 222c-1,0 -1,0 -2,0l-39 -32 0 30c0,1 -1,2 -2,2 -1,0 -2,-1 -2,-2l0 -34c0,-1 1,-1 1,-2 1,0 2,0 3,1l42 34c1,0 1,2 0,3 0,0 -1,0 -1,0z"/>
   <path class="fil3" d="M1721 222c0,0 -1,0 -1,0l-51 -60 0 58c0,1 -1,2 -2,2 -1,0 -2,-1 -2,-2l0 -64c0,-1 1,-1 1,-2 1,0 2,0 3,1l54 64c1,1 1,2 0,3 -1,0 -1,0 -2,0z"/>
   <path class="fil3" d="M1761 222c-1,0 -2,0 -2,-1l-39 -58 0 57c0,1 -1,2 -2,2 -1,0 -2,-1 -2,-2l0 -64c0,-1 1,-1 2,-2 0,0 1,0 2,1l42 64c1,1 1,2 0,3 -1,0 -1,0 -1,0z"/>
   <path class="fil18" d="M850 911l-119 0 0 12 8 0 -43 262 4 0 5 -30 78 0 5 30 4 0 -5 -30 11 0 -5 30 4 0 5 -30 78 0 5 30 4 0 -43 -262 4 0 0 -12zm-102 12l88 0 -9 58 -69 0 -10 -58zm11 62l67 0 -6 39 -55 0 -6 -39zm7 43l53 0 -6 38 -41 0 -6 -38zm7 42l39 0 -7 39 -26 0 -6 -39zm7 43l25 0 -7 38 -12 0 -6 -38zm51 -132l9 -58 2 0 9 58 -20 0zm-87 -58l10 58 -20 0 9 -58 1 0zm11 62l6 39 -35 0 7 -39 22 0zm-29 43l36 0 6 38 -49 0 7 -38zm-7 42l50 0 6 39 -63 0 7 -39zm-7 43l64 0 6 38 -77 0 7 -38zm112 -89l6 -39 22 0 6 39 -34 0zm-1 4l36 0 7 38 -49 0 6 -38zm-7 42l50 0 7 39 -63 0 6 -39zm-7 43l64 0 7 38 -78 0 7 -38z"/>
   <path class="fil18" d="M1252 776l-195 0 0 150 51 0c0,1 1,2 1,3l-1 0 22 92 -1 77 5 87 14 0 5 -85 8 0 4 85 12 0 6 -84 9 -84 10 -89 -1 0 2 -2 49 0 0 -150zm-97 200c-22,6 -7,38 9,34 16,-5 12,-39 -9,-34zm-33 -50l68 0c0,2 2,3 3,4l-18 82 -29 2 -28 -82c2,-1 4,-3 4,-6z"/>
   <path class="fil2" d="M1289 1273c0,-6 -38,-12 -85,-12 -47,0 -86,6 -86,12 0,7 39,12 86,12 47,0 85,-5 85,-12z"/>
   <polygon class="fil9" points="1117,966 1311,966 1311,815 1117,815 "/>
   <polygon class="fil17" points="1243,1141 1251,1057 1262,968 1254,967 1235,1051 1206,1054 1176,968 1168,969 1190,1061 1189,1138 "/>
   <path class="fil7" d="M1249 963c0,4 3,7 7,7 4,0 7,-3 7,-7 0,-3 -3,-6 -7,-6 -4,0 -7,3 -7,6z"/>
   <path class="fil7" d="M1168 966c0,4 3,7 7,7 4,0 7,-3 7,-7 0,-4 -3,-7 -7,-7 -4,0 -7,3 -7,7z"/>
   <path class="fil8" d="M1207 1041c0,0 0,0 0,0 0,-1 -1,-1 -1,-2 0,0 0,0 0,0 -1,-1 -1,-1 -1,-2 0,0 0,0 0,0 -1,-1 -1,-2 -1,-2 -1,-2 -1,-4 0,-6 0,-2 0,-3 1,-4 1,-2 2,-4 4,-6 1,0 1,-1 2,-1 0,0 0,0 1,-1 1,0 2,0 3,-1 0,0 0,0 0,0 1,0 2,0 3,0 0,0 0,0 0,0 1,0 2,0 3,0 0,0 0,0 1,0 1,0 1,1 2,1 0,0 0,0 0,0 4,2 8,5 9,10 2,8 -1,21 -9,23 -4,1 -8,-1 -12,-3 0,0 0,0 0,0 -1,-1 -2,-3 -3,-4 0,0 0,0 0,0 -1,-1 -1,-1 -2,-2z"/>
   <polygon class="fil15" points="1189,1138 1197,1266 1206,1266 1213,1139 1221,1140 1226,1269 1233,1269 1243,1141 1245,1125 1189,1126 "/>
   <polygon class="fil15" points="1197,1266 1177,1268 1178,1271 1207,1271 1206,1266 "/>
   <polygon class="fil15" points="1226,1269 1226,1273 1253,1274 1253,1271 1233,1269 "/>
   <path class="fil18" d="M1073 507l-166 15 12 125 -6 -6 -20 18 -55 28 -10 1 -41 44 1 1 -37 60 -54 -3 -8 23 5 2 6 -15 59 14 36 -28 5 50 -3 75 29 0 2 -6 -20 -3 11 -66 8 -76 1 0 1 0 0 -1 0 0 0 0 31 -56 28 -12c7,-3 21,-15 32,-25l3 28 334 -31 -16 -172 -144 14 1 -3c0,-6 -5,-11 -11,-12l0 -190 -4 0 0 190c-6,1 -11,6 -11,12 0,2 1,3 1,5zm-212 147c-7,-18 -35,-12 -32,9 4,29 33,21 33,-3 5,-1 11,-7 -1,-6zm58 -4l0 2 -8 6 8 -8z"/>
   <polygon class="fil13" points="1360,663 1026,694 1010,522 1344,491 "/>
   <polygon class="fil19" points="1190,497 1186,497 1186,238 1190,238 "/>
   <path class="fil19" d="M1201 502c0,7 -6,13 -13,13 -7,0 -12,-6 -12,-13 0,-7 5,-13 12,-13 7,0 13,6 13,13z"/>
   <path class="fil17" d="M1203 238c0,8 -7,14 -15,14 -8,0 -14,-6 -14,-14 0,-8 6,-15 14,-15 8,0 15,7 15,15z"/>
   <path class="fil3" d="M1233 222c-1,0 -1,0 -2,0l-39 -32 0 30c0,1 -1,2 -2,2 -1,0 -2,-1 -2,-2l0 -34c0,-1 1,-1 1,-2 1,0 2,0 3,1l42 34c1,0 1,2 0,3 0,0 -1,0 -1,0z"/>
   <path class="fil3" d="M1271 222c-1,0 -1,0 -2,0l-39 -32 0 30c0,1 -1,2 -2,2 -1,0 -2,-1 -2,-2l0 -34c0,-1 1,-1 1,-2 1,0 2,0 2,1l43 34c1,0 1,2 0,3 0,0 -1,0 -1,0z"/>
   <path class="fil3" d="M1308 222c0,0 0,0 -1,0l-39 -32 0 30c0,1 -1,2 -2,2 -1,0 -2,-1 -2,-2l0 -34c0,-1 0,-1 1,-2 1,0 2,0 2,1l43 34c1,0 1,2 0,3 0,0 -1,0 -2,0z"/>
   <path class="fil3" d="M1346 222c0,0 -1,0 -1,0l-39 -32 0 30c0,1 -1,2 -2,2 -1,0 -2,-1 -2,-2l0 -34c0,-1 0,-1 1,-2 1,0 2,0 2,1l43 34c0,0 1,2 0,3 -1,0 -1,0 -2,0z"/>
   <path class="fil3" d="M1384 222c0,0 -1,0 -1,0l-39 -32 0 30c0,1 -1,2 -2,2 -1,0 -2,-1 -2,-2l0 -34c0,-1 0,-1 1,-2 1,0 1,0 2,1l42 34c1,0 1,2 1,3 -1,0 -1,0 -2,0z"/>
   <polygon class="fil19" points="1016,641 996,659 931,692 960,699 1003,669 1023,649 "/>
   <path class="fil7" d="M932 659c-1,9 6,22 15,23 10,1 18,-12 19,-21 0,-9 -7,-17 -16,-18 -9,-1 -17,6 -18,16z"/>
   <polygon class="fil8" points="895,750 903,835 901,911 930,911 931,905 911,902 922,836 932,753 "/>
   <path class="fil5" d="M1030 645c-8,8 -38,30 -49,33l-24 7 -25 3 -42 44 42 28 32 -57 27 -12c11,-5 38,-29 46,-39l-7 -7z"/>
   <path class="fil8" d="M945 681c-8,-2 -13,-14 -13,-22 1,-10 9,-17 18,-16 1,0 1,0 2,0 0,2 0,3 0,4 -1,5 -4,9 -9,11 0,0 0,21 2,23z"/>
   <path class="fil7" d="M941 660c-1,0 -3,1 -4,2 -3,2 -1,8 3,9 1,1 2,1 3,1 1,0 3,-1 3,-1 1,-1 2,-2 2,-3 0,-1 0,-2 -1,-3 -1,-2 -3,-5 -6,-5z"/>
   <polygon class="fil9" points="801,790 854,793 892,732 933,759 862,814 803,800 797,815 793,813 "/>
   <polygon class="fil8" points="787,1234 840,916 836,915 783,1234 "/>
   <polygon class="fil8" points="884,1234 937,916 933,915 880,1234 "/>
   <polygon class="fil8" points="826,985 924,985 924,981 826,981 "/>
   <polygon class="fil8" points="819,1028 917,1028 917,1024 819,1024 "/>
   <polygon class="fil8" points="812,1070 910,1070 910,1066 812,1066 "/>
   <polygon class="fil8" points="805,1113 903,1113 903,1109 805,1109 "/>
   <polygon class="fil8" points="798,1155 896,1155 896,1151 798,1151 "/>
   <polygon class="fil8" points="791,1198 889,1198 889,1194 791,1194 "/>
   <polygon class="fil9" points="989,1234 993,1234 940,915 936,916 "/>
   <polygon class="fil9" points="892,1234 896,1234 843,915 839,916 "/>
   <polygon class="fil9" points="852,985 950,985 950,981 852,981 "/>
   <polygon class="fil9" points="859,1028 957,1028 957,1024 859,1024 "/>
   <polygon class="fil9" points="866,1070 964,1070 964,1066 866,1066 "/>
   <polygon class="fil9" points="873,1113 971,1113 971,1109 873,1109 "/>
   <polygon class="fil9" points="880,1155 978,1155 978,1151 880,1151 "/>
   <polygon class="fil9" points="887,1198 985,1198 985,1194 887,1194 "/>
   <polygon class="fil9" points="827,923 946,923 946,911 827,911 "/>
   <path class="fil7" d="M1030 638c1,0 3,-2 3,-2l3 5 14 -8 4 5 -19 15 -4 -6 2 -3 -1 -3 -2 -3z"/>
   <path class="fil7" d="M963 654c2,0 4,0 6,0 1,0 3,0 3,1 0,1 -1,1 -2,2 -1,1 -3,3 -5,3 -2,0 -4,-1 -5,-2 -1,-1 -2,-3 -1,-4 1,0 3,0 4,0z"/>
   <rect class="fil20" x="1083" y="300" width="3.98" height="68.92"/>
   <polygon class="fil21" points="510,1390 519,1307 529,1218 521,1217 502,1301 473,1304 443,1218 435,1219 457,1310 456,1388 "/>
   <polygon class="fil22" points="454,1247 443,1218 435,1219 442,1247 "/>
   <polygon class="fil22" points="521,1217 514,1247 526,1247 529,1218 "/>
   <path class="fil7" d="M516 1213c0,4 3,7 7,7 4,0 7,-3 7,-7 0,-4 -3,-7 -7,-7 -4,0 -7,3 -7,7z"/>
   <path class="fil7" d="M435 1215c0,4 3,7 7,7 4,0 7,-3 7,-7 0,-3 -3,-6 -7,-6 -4,0 -7,3 -7,6z"/>
   <polygon class="fil23" points="650,1214 315,1214 315,1014 650,1014 "/>
   <polygon class="fil13" points="482,1188 333,1188 333,1040 482,1040 "/>
   <polygon class="fil24" points="631,1054 501,1054 501,1041 631,1041 "/>
   <polygon class="fil24" points="631,1084 501,1084 501,1072 631,1072 "/>
   <polygon class="fil24" points="631,1115 501,1115 501,1102 631,1102 "/>
   <polygon class="fil24" points="631,1146 501,1146 501,1133 631,1133 "/>
   <polygon class="fil24" points="631,1176 501,1176 501,1164 631,1164 "/>
  </g>
 </g>
</svg>
