<?xml version="1.0" encoding="UTF-8"?>
<!DOCTYPE svg PUBLIC "-//W3C//DTD SVG 1.1//EN" "http://www.w3.org/Graphics/SVG/1.1/DTD/svg11.dtd">
<!-- Creator: CorelDRAW X7 -->
<svg xmlns="http://www.w3.org/2000/svg" xml:space="preserve" width="100%" height="100%" version="1.1" style="shape-rendering:geometricPrecision; text-rendering:geometricPrecision; image-rendering:optimizeQuality; fill-rule:evenodd; clip-rule:evenodd"
viewBox="0 0 1193 1205"
 xmlns:xlink="http://www.w3.org/1999/xlink">
 <defs>
  <style type="text/css">
   <![CDATA[
    .fil12 {fill:#D5B682}
    .fil15 {fill:#E6ADAD}
    .fil14 {fill:#D097A9}
    .fil16 {fill:#C086A6}
    .fil13 {fill:#FDDFD1;fill-rule:nonzero}
    .fil3 {fill:#FCD9C8;fill-rule:nonzero}
    .fil10 {fill:#D2AE6D;fill-rule:nonzero}
    .fil9 {fill:#E3C582;fill-rule:nonzero}
    .fil7 {fill:#E4BD79;fill-rule:nonzero}
    .fil5 {fill:#C9A374;fill-rule:nonzero}
    .fil2 {fill:#EABCB9;fill-rule:nonzero}
    .fil1 {fill:#EAB6B3;fill-rule:nonzero}
    .fil4 {fill:#E6ADAD;fill-rule:nonzero}
    .fil6 {fill:#CB9DAD;fill-rule:nonzero}
    .fil0 {fill:#6C87C3;fill-rule:nonzero}
    .fil8 {fill:#F4CD7D;fill-rule:nonzero}
    .fil11 {fill:#FCD682;fill-rule:nonzero}
   ]]>
  </style>
 </defs>
 <g id="Layer_x0020_1">
  <metadata id="CorelCorpID_0Corel-Layer"/>
  <g id="_1697625589968">
   <path class="fil0" d="M418 1157c0,26 119,48 266,48 147,0 266,-22 266,-48 0,-27 -119,-48 -266,-48 -147,0 -266,21 -266,48z"/>
   <polygon class="fil1" points="610,1135 610,1135 618,1053 568,1052 574,1134 "/>
   <polygon class="fil2" points="875,1133 875,1133 884,1027 834,1025 840,1132 "/>
   <polygon class="fil3" points="555,1157 555,1157 569,1029 490,1026 500,1155 "/>
   <polygon class="fil3" points="822,1157 822,1157 836,1029 757,1026 767,1155 "/>
   <path class="fil3" d="M390 835c-14,143 105,271 265,286 160,15 300,-89 314,-232 13,-143 -106,-271 -266,-286 -159,-15 -300,89 -313,232z"/>
   <path class="fil3" d="M437 890c1,-4 -1,-9 -4,-13 -2,-3 -6,-7 -9,-9 -4,-3 -8,-5 -12,-8 -3,-2 -7,-4 -12,-5 -4,-2 -8,-3 -12,-4 -4,-2 -9,-3 -13,-3 -5,-1 -9,-1 -14,-1 -3,0 -6,0 -9,0 -1,1 -1,1 -3,1 -1,1 -3,1 -4,2 -5,1 -9,4 -14,7 -4,3 -8,7 -11,14 -2,4 -2,9 -1,13 1,5 4,8 6,11 3,2 5,4 7,5 3,2 6,3 10,4 3,1 7,1 11,0 4,-1 8,-3 10,-5 6,-5 9,-11 10,-17 1,-6 1,-11 0,-17 -1,-6 -5,-11 -9,-15l0 0c-4,-5 -10,-9 -16,-11 -3,-1 -6,-2 -9,-3 -3,-1 -6,-1 -9,-1 -3,0 -6,0 -9,0 -3,0 -6,0 -8,1 -6,1 -12,3 -16,7l0 0c-1,0 -1,0 -1,0 0,1 1,1 1,1 5,-2 10,-3 16,-3 5,-1 11,0 16,1 5,1 10,2 15,5 5,2 9,5 12,10l0 0 0 0c3,3 5,6 6,10 0,4 0,8 -1,12 -1,4 -3,8 -6,10 -3,3 -7,3 -10,3 -2,-1 -4,-2 -6,-3 -2,-1 -3,-2 -5,-3 -1,-2 -2,-3 -3,-5 0,-2 0,-4 1,-5 1,-4 4,-7 7,-10 3,-2 7,-4 11,-6 1,-1 3,-1 5,-2 2,0 4,-1 6,-1 4,0 9,0 13,0 8,1 16,3 24,5 8,3 16,6 23,10 4,2 7,5 10,8 3,2 5,6 5,10 0,1 0,1 1,1 0,0 0,0 0,-1l0 0z"/>
   <path class="fil4" d="M759 641c0,0 -78,-28 -172,-2l2 23c0,0 76,-26 169,1l1 -22z"/>
   <path class="fil3" d="M928 745c0,0 34,-86 11,-94 -24,-7 -71,22 -71,22l60 72z"/>
   <path class="fil4" d="M789 766c0,0 33,-76 18,-83 -15,-8 -66,12 -89,24 0,0 58,21 71,59z"/>
   <path class="fil5" d="M900 810c0,6 5,11 11,11 6,1 11,-4 11,-10l1 -22c0,-7 -5,-12 -11,-12 -6,0 -11,5 -11,11l-1 22z"/>
   <path class="fil5" d="M826 834c-1,6 4,11 10,11 6,1 11,-4 12,-10l0 -22c1,-7 -4,-12 -10,-12 -6,0 -12,5 -12,11l0 22z"/>
   <path class="fil4" d="M838 912c-1,38 12,69 75,76 33,3 44,-20 45,-58 1,-38 59,-84 -27,-87 -61,-1 -91,31 -93,69z"/>
   <path class="fil3" d="M871 917c-1,41 29,76 67,77 39,1 71,-31 72,-73 2,-41 -28,-76 -67,-77 -38,-1 -71,31 -72,73z"/>
   <path class="fil6" d="M976 911c-1,-6 -7,-9 -13,-8 -6,2 -10,8 -8,13 1,6 7,10 13,8 6,-1 9,-7 8,-13z"/>
   <path class="fil6" d="M934 922c-2,-6 -8,-10 -13,-8 -6,1 -10,7 -9,13 2,6 8,9 14,8 6,-2 9,-8 8,-13z"/>
   <g>
    <path class="fil7" d="M596 72c0,-37 30,-67 67,-67 38,0 68,30 68,67 0,38 -30,68 -68,68 -37,0 -67,-30 -67,-68z"/>
    <path class="fil8" d="M605 68c0,-38 31,-68 68,-68 37,0 67,30 67,68 0,37 -30,67 -67,67 -37,0 -68,-30 -68,-67z"/>
    <path class="fil9" d="M654 88l18 1 0 3c-1,3 0,5 0,6 0,1 1,1 3,1 1,0 1,0 2,-1 1,-1 1,-2 1,-4 0,-3 -1,-4 -2,-6 -1,-1 -4,-3 -9,-6 -4,-3 -7,-5 -9,-6 -1,-2 -3,-4 -4,-6 -1,-3 -1,-6 -1,-10 0,-6 1,-11 4,-15 3,-3 8,-5 14,-6l0 -6 8 0 0 7c5,0 9,2 12,5 3,3 5,9 5,16l0 4 -18 -1 1 -4c0,-4 0,-7 -1,-8 0,-2 -1,-2 -2,-2 -2,0 -2,0 -3,1 -1,1 -1,2 -1,3 0,4 0,7 1,9 0,1 2,3 5,5 5,4 9,6 11,8 2,1 3,4 5,7 1,2 2,6 2,9 -1,5 -2,9 -5,12 -3,3 -7,5 -13,5l0 6 -8 0 0 -6c-6,0 -10,-2 -12,-5 -3,-3 -4,-7 -4,-12 0,-1 0,-2 0,-4z"/>
    <path class="fil10" d="M654 86l18 0 0 3c-1,3 0,5 0,6 0,1 1,1 3,1 1,0 1,0 2,-1 1,-1 1,-2 1,-3 0,-3 -1,-5 -2,-6 -1,-1 -4,-3 -9,-7 -4,-2 -7,-4 -9,-6 -1,-1 -3,-3 -4,-6 -1,-3 -1,-6 -1,-10 0,-6 1,-11 4,-14 3,-4 8,-6 14,-6l0 -7 8 0 0 7c5,0 9,2 12,5 3,4 5,9 5,17l0 3 -18 0 1 -4c0,-5 0,-8 -1,-9 0,-1 -1,-2 -2,-2 -2,0 -2,1 -3,1 -1,1 -1,2 -1,4 0,4 0,6 1,8 0,2 2,4 5,6 5,3 9,6 11,7 2,2 3,4 5,7 1,3 2,6 2,10 -1,5 -2,9 -5,12 -3,3 -7,4 -13,5l0 5 -8 0 0 -5c-6,-1 -10,-3 -12,-6 -3,-3 -4,-7 -4,-12 0,-1 0,-2 0,-3z"/>
   </g>
   <g>
    <path class="fil7" d="M739 601c0,-38 -30,-68 -68,-68 -37,0 -67,30 -67,68 0,37 30,67 67,67 38,0 68,-30 68,-67z"/>
    <path class="fil11" d="M729 596c0,-38 -30,-68 -67,-68 -38,0 -68,30 -68,68 0,37 30,67 68,67 37,0 67,-30 67,-67z"/>
    <path class="fil9" d="M642 612l17 1 0 2c0,4 0,6 1,6 0,1 1,2 2,2 1,0 2,0 3,-1 0,-1 1,-2 1,-4 0,-3 -1,-5 -2,-6 -1,-1 -4,-3 -9,-6 -5,-3 -8,-5 -9,-6 -2,-2 -3,-4 -4,-6 -1,-3 -2,-6 -2,-10 1,-6 2,-11 5,-15 3,-3 8,-5 14,-6l0 -6 8 0 0 6c4,1 8,3 12,6 3,3 5,9 5,16l0 4 -18 -1 0 -4c0,-5 0,-7 0,-9 0,-1 -1,-1 -3,-1 -1,0 -2,0 -2,1 -1,1 -1,2 -1,3 0,4 0,7 0,9 1,1 3,3 6,5 5,4 9,6 11,8 1,1 3,4 4,6 2,3 2,6 2,10 0,5 -1,9 -4,12 -3,3 -8,5 -14,5l0 6 -8 0 0 -6c-5,-1 -9,-2 -11,-5 -3,-3 -4,-7 -4,-12 0,-1 0,-2 0,-4z"/>
    <path class="fil10" d="M642 610l17 0 0 3c0,3 0,5 1,6 0,1 1,1 2,1 1,0 2,0 3,-1 0,-1 1,-2 1,-4 0,-2 -1,-4 -2,-5 -1,-1 -4,-4 -9,-7 -5,-2 -8,-5 -9,-6 -2,-1 -3,-3 -4,-6 -1,-3 -2,-6 -2,-10 1,-6 2,-11 5,-14 3,-4 8,-6 14,-7l0 -6 8 0 0 7c4,0 8,2 12,5 3,4 5,9 5,17l0 3 -18 0 0 -4c0,-5 0,-8 0,-9 0,-1 -1,-2 -3,-2 -1,0 -2,0 -2,1 -1,1 -1,2 -1,4 0,4 0,6 0,8 1,2 3,4 6,6 5,3 9,6 11,7 1,2 3,4 4,7 2,3 2,6 2,9 0,6 -1,10 -4,13 -3,2 -8,4 -14,5l0 5 -8 0 0 -5c-5,-1 -9,-3 -11,-6 -3,-3 -4,-7 -4,-12 0,-1 0,-2 0,-3z"/>
   </g>
   <path class="fil7" d="M596 415c0,-38 30,-68 67,-68 38,0 68,30 68,68 0,37 -30,67 -68,67 -37,0 -67,-30 -67,-67z"/>
   <path class="fil11" d="M605 410c0,-38 31,-68 68,-68 37,0 67,30 67,68 0,37 -30,67 -67,67 -37,0 -68,-30 -68,-67z"/>
   <path class="fil9" d="M653 425l17 1 0 3c0,3 0,5 0,6 1,1 2,1 3,1 1,0 2,0 2,-1 1,-1 1,-2 1,-4 0,-2 0,-4 -1,-5 -1,-2 -5,-4 -10,-7 -4,-3 -7,-5 -9,-6 -1,-2 -2,-4 -3,-6 -2,-3 -2,-6 -2,-10 0,-6 2,-11 5,-14 3,-4 7,-6 13,-7l0 -6 8 0 0 7c5,0 9,2 12,5 4,3 5,9 5,16l0 4 -17 0 0 -5c0,-4 0,-7 -1,-8 0,-2 -1,-2 -2,-2 -1,0 -2,0 -3,1 0,1 -1,2 -1,3 0,4 1,7 1,9 1,2 2,3 6,5 5,4 8,6 10,8 2,1 4,4 5,7 1,2 2,6 2,9 0,5 -2,9 -5,12 -3,3 -7,5 -13,6l0 5 -8 0 0 -6c-5,0 -9,-2 -12,-5 -2,-3 -4,-7 -4,-12 0,-1 0,-2 1,-4z"/>
   <path class="fil10" d="M653 423l17 0 0 3c0,3 0,5 0,6 1,1 2,1 3,1 1,0 2,0 2,-1 1,-1 1,-2 1,-3 0,-3 0,-5 -1,-6 -1,-1 -5,-3 -10,-7 -4,-2 -7,-4 -9,-6 -1,-1 -2,-3 -3,-6 -2,-3 -2,-6 -2,-10 0,-6 2,-11 5,-14 3,-4 7,-6 13,-6l0 -7 8 0 0 7c5,1 9,2 12,6 4,3 5,8 5,16l0 3 -17 0 0 -4c0,-5 0,-8 -1,-9 0,-1 -1,-2 -2,-2 -1,0 -2,1 -3,1 0,1 -1,2 -1,4 0,4 1,7 1,8 1,2 2,4 6,6 5,3 8,6 10,7 2,2 4,4 5,7 1,3 2,6 2,10 0,5 -2,9 -5,12 -3,3 -7,4 -13,5l0 5 -8 0 0 -5c-5,-1 -9,-3 -12,-6 -2,-3 -4,-7 -4,-12 0,-1 0,-2 1,-3z"/>
   <path class="fil3" d="M761 664c0,0 -82,-31 -177,-1l4 40 173 -39z"/>
   <path class="fil0" d="M1193 1171l0 -18c0,0 0,0 -1,0 -2,-16 -40,-29 -86,-29 -47,0 -86,14 -87,30l0 0c0,0 0,0 0,1 0,0 0,0 0,0 0,1 0,1 0,1 0,4 0,14 0,18 0,2 4,23 83,26l6 1c93,-3 85,-30 85,-30z"/>
   <g>
    <polygon class="fil12" points="1112,1150 1113,1144 1113,1149 "/>
    <path class="fil13" d="M1079 1157c-1,-3 -5,-3 -7,-2 -3,2 -4,5 -2,8 2,2 5,3 7,2 3,-2 4,-5 2,-8z"/>
    <path class="fil7" d="M1100 1117c35,0 93,14 93,14l0 17c0,0 8,27 -85,30l-6 0c-79,-4 -83,-24 -83,-26 0,-5 0,-20 0,-20 0,0 51,-15 86,-15l-5 0z"/>
    <path class="fil11" d="M1193 1133c0,17 -39,31 -87,31 -48,0 -87,-14 -87,-31 0,-17 39,-31 87,-31 48,0 87,14 87,31z"/>
    <path class="fil9" d="M1134 1135l-15 -7 3 -1c2,-1 3,-2 3,-2 1,-1 0,-1 -1,-2 0,0 -1,0 -2,0 -1,0 -3,0 -4,1 -2,1 -3,2 -3,2 0,1 1,3 3,6 2,3 3,5 3,6 0,1 0,2 -1,4 -1,1 -4,3 -7,5 -5,2 -10,4 -16,4 -6,0 -12,-1 -17,-3l-6 3 -7 -4 6 -3c-3,-2 -5,-4 -4,-7 0,-2 3,-5 9,-8l3 -1 14 6 -4 2c-4,2 -6,3 -7,4 0,0 0,1 1,1 1,1 2,1 3,1 1,0 3,0 4,-1 3,-2 5,-3 6,-4 1,-1 1,-2 0,-4 -1,-3 -2,-5 -3,-7 0,-1 1,-2 2,-3 1,-2 3,-3 6,-4 3,-2 8,-3 12,-3 4,0 9,1 14,3l4 -2 7 3 -4 1c4,3 6,5 6,7 0,2 -2,3 -5,5 -1,1 -2,1 -3,2z"/>
    <path class="fil10" d="M1134 1132l-15 -7 3 -1c2,-1 3,-1 3,-2 1,0 0,-1 -1,-1 0,-1 -1,-1 -2,-1 -1,0 -3,1 -4,1 -2,1 -3,2 -3,3 0,1 1,2 3,6 2,2 3,4 3,5 0,2 0,3 -1,4 -1,2 -4,3 -7,5 -5,3 -10,4 -16,4 -6,0 -12,-1 -17,-3l-6 3 -7 -4 6 -2c-3,-2 -5,-5 -4,-7 0,-3 3,-6 9,-8l3 -2 14 7 -4 1c-4,2 -6,3 -7,4 0,1 0,1 1,2 1,0 2,0 3,0 1,0 3,0 4,-1 3,-1 5,-2 6,-3 1,-1 1,-3 0,-5 -1,-3 -2,-5 -3,-6 0,-1 1,-3 2,-4 1,-2 3,-3 6,-4 3,-2 8,-2 12,-2 4,0 9,0 14,2l4 -2 7 3 -4 2c4,2 6,4 6,6 0,2 -2,4 -5,6 -1,0 -2,0 -3,1z"/>
   </g>
   <path class="fil0" d="M314 1156c0,0 0,0 0,0 0,-17 -35,-36 -81,-44 -43,-7 -81,-2 -89,12 -13,-3 -29,-5 -47,-5 -47,0 -85,14 -86,30 0,0 0,0 0,0l0 0c0,1 -1,1 -1,1 0,0 1,1 1,1 0,4 -1,14 -1,18 0,2 4,22 84,26l6 0c53,-1 73,-11 80,-18 10,3 22,6 37,10l6 1c92,13 88,-15 88,-15l3 -17z"/>
   <g>
    <path class="fil7" d="M82 1115c34,0 92,14 92,14l0 17c0,0 9,28 -84,30l-6 0c-80,-4 -84,-24 -84,-26 0,-5 0,-20 0,-20 0,0 52,-15 86,-15l-4 0z"/>
    <path class="fil8" d="M174 1131c0,17 -39,31 -87,31 -48,0 -87,-14 -87,-31 0,-17 39,-31 87,-31 48,0 87,14 87,31z"/>
    <path class="fil9" d="M115 1133l-14 -7 2 -1c2,-1 3,-2 4,-2 0,0 0,-1 -1,-1 -1,-1 -2,-1 -3,-1 -1,0 -2,1 -4,1 -2,1 -3,2 -3,3 1,0 1,2 3,5 2,3 3,5 3,6 0,1 0,3 -1,4 -1,2 -3,3 -7,5 -5,2 -10,4 -16,4 -6,0 -11,-1 -17,-3l-6 3 -7 -4 7 -2c-4,-3 -5,-5 -5,-8 0,-2 3,-5 10,-8l2 -1 14 7 -3 1c-4,2 -7,3 -7,4 -1,0 -1,1 0,2 1,0 2,0 3,0 2,0 3,0 4,-1 3,-1 6,-3 6,-3 1,-1 1,-3 0,-5 -1,-3 -2,-5 -2,-6 -1,-1 0,-3 1,-4 1,-2 3,-3 6,-4 4,-2 8,-3 12,-3 5,0 9,1 14,3l4 -2 7 3 -4 2c4,2 6,4 6,6 0,2 -1,4 -5,6 -1,0 -1,0 -3,1z"/>
    <path class="fil10" d="M115 1130l-14 -6 2 -1c2,-1 3,-2 4,-3 0,0 0,-1 -1,-1 -1,0 -2,-1 -3,0 -1,0 -2,0 -4,1 -2,0 -3,1 -3,2 1,1 1,3 3,6 2,2 3,4 3,6 0,1 0,2 -1,4 -1,1 -3,3 -7,4 -5,3 -10,4 -16,4 -6,1 -11,0 -17,-3l-6 3 -7 -3 7 -3c-4,-2 -5,-5 -5,-7 0,-3 3,-5 10,-8l2 -1 14 6 -3 2c-4,2 -7,3 -7,3 -1,1 -1,1 0,2 1,1 2,1 3,1 2,0 3,-1 4,-1 3,-2 6,-3 6,-4 1,-1 1,-2 0,-4 -1,-3 -2,-6 -2,-7 -1,-1 0,-2 1,-4 1,-1 3,-3 6,-4 4,-1 8,-2 12,-2 5,0 9,1 14,2l4 -1 7 2 -4 2c4,2 6,4 6,6 0,2 -1,4 -5,6 -1,0 -1,1 -3,1z"/>
    <path class="fil7" d="M215 1107c34,6 89,29 89,29l-3 17c0,0 4,29 -88,16l-6 -1c-78,-18 -79,-38 -78,-40 1,-5 3,-20 3,-20 0,0 53,-6 88,0l-5 -1z"/>
    <path class="fil11" d="M303 1138c-3,17 -43,24 -91,16 -47,-8 -83,-28 -80,-45 3,-17 43,-24 91,-16 47,8 83,28 80,45z"/>
    <path class="fil9" d="M246 1130l-14 -9 3 0c2,-1 3,-1 4,-2 0,0 0,-1 -1,-1 -1,-1 -2,-1 -3,-1 -1,0 -2,0 -3,0 -2,1 -3,1 -4,2 0,1 1,3 2,6 1,3 2,5 2,6 0,2 0,3 -2,4 -1,2 -3,3 -7,4 -5,1 -11,2 -17,1 -5,-1 -11,-3 -16,-6l-6 2 -6 -5 6 -1c-3,-3 -4,-6 -3,-8 0,-3 4,-5 11,-6l3 -1 12 9 -4 1c-4,1 -6,2 -7,2 -1,0 -1,1 0,2 1,0 2,1 3,1 1,0 3,0 4,0 3,-1 6,-2 7,-3 1,-1 1,-2 0,-4 -1,-4 -1,-6 -1,-7 0,-1 1,-3 2,-4 1,-1 3,-2 6,-3 4,-1 9,-1 13,0 4,1 9,2 14,5l4 -1 6 4 -4 1c3,2 5,5 5,7 0,2 -3,3 -7,5 0,0 -1,0 -2,0z"/>
    <path class="fil10" d="M246 1128l-14 -9 3 -1c2,0 3,-1 4,-1 0,-1 0,-1 -1,-2 -1,0 -2,-1 -3,-1 -1,0 -2,0 -3,1 -2,0 -3,1 -4,2 0,0 1,2 2,6 1,3 2,5 2,6 0,1 0,2 -2,4 -1,1 -3,2 -7,3 -5,2 -11,2 -17,2 -5,-1 -11,-3 -16,-6l-6 1 -6 -4 6 -2c-3,-3 -4,-5 -3,-8 0,-2 4,-4 11,-6l3 -1 12 9 -4 1c-4,1 -6,2 -7,2 -1,1 -1,1 0,2 1,1 2,1 3,1 1,0 3,0 4,0 3,-1 6,-2 7,-3 1,0 1,-2 0,-4 -1,-3 -1,-5 -1,-7 0,-1 1,-2 2,-3 1,-2 3,-3 6,-3 4,-1 9,-1 13,-1 4,1 9,3 14,5l4 -1 6 4 -4 1c3,3 5,5 5,7 0,2 -3,4 -7,5 0,0 -1,0 -2,1z"/>
   </g>
   <g>
    <path class="fil14" d="M607 635c-5,-7 -9,-16 -11,-24 -1,-3 -1,-7 -2,-10 0,2 0,3 0,5 0,2 0,3 0,5 1,9 3,17 7,25l6 -1z"/>
    <path class="fil15" d="M735 634c2,-7 4,-15 4,-23 0,-1 0,-2 0,-3 0,0 -1,0 -1,0 -1,9 -3,18 -8,26l5 0z"/>
   </g>
   <g>
    <path class="fil16" d="M626 653c-7,-5 -14,-11 -19,-18l-6 1c4,7 8,14 14,19 4,-1 8,-1 11,-2z"/>
    <path class="fil16" d="M730 634c-4,7 -10,14 -16,19 3,0 6,1 9,1 5,-5 9,-12 12,-20l-5 0z"/>
   </g>
  </g>
 </g>
</svg>
