<?xml version="1.0" encoding="UTF-8"?>
<!DOCTYPE svg PUBLIC "-//W3C//DTD SVG 1.1//EN" "http://www.w3.org/Graphics/SVG/1.1/DTD/svg11.dtd">
<!-- Creator: CorelDRAW X7 -->
<svg xmlns="http://www.w3.org/2000/svg" xml:space="preserve" width="100%" height="100%" version="1.1" style="shape-rendering:geometricPrecision; text-rendering:geometricPrecision; image-rendering:optimizeQuality; fill-rule:evenodd; clip-rule:evenodd"
viewBox="0 0 851 1120"
 xmlns:xlink="http://www.w3.org/1999/xlink">
 <defs>
  <style type="text/css">
   <![CDATA[
    .fil0 {fill:#DABA76}
    .fil3 {fill:#EFC97B}
    .fil1 {fill:#F6DF91}
    .fil2 {fill:#6C87C3;fill-rule:nonzero}
   ]]>
  </style>
 </defs>
 <g id="Layer_x0020_1">
  <metadata id="CorelCorpID_0Corel-Layer"/>
  <g id="_1697651751568">
   <g>
    <circle class="fil0" cx="443" cy="409" r="409"/>
    <path class="fil1" d="M520 524l0 77 -308 0 0 -77 308 0zm-308 -231l0 -77c154,0 308,0 462,0l-77 77c-128,0 -257,0 -385,0zm462 77c0,77 0,154 0,231l-77 0 0 -154 0 0 -385 0 0 -77c154,0 308,0 462,0z"/>
   </g>
   <path class="fil2" d="M176 1072c0,26 120,48 267,48 147,0 266,-22 266,-48 0,-27 -119,-48 -266,-48 -147,0 -267,21 -267,48z"/>
   <path class="fil3" d="M425 817l1 0c0,0 -1,0 -1,0zm-391 -408c0,-220 174,-400 392,-409l-1 0 -16 0 0 0c-226,0 -409,183 -409,409 0,225 183,408 409,408 5,0 11,0 16,0 -217,-9 -391,-189 -391,-408z"/>
  </g>
 </g>
</svg>
