<?xml version="1.0" encoding="UTF-8"?>
<!DOCTYPE svg PUBLIC "-//W3C//DTD SVG 1.1//EN" "http://www.w3.org/Graphics/SVG/1.1/DTD/svg11.dtd">
<!-- Creator: CorelDRAW X7 -->
<svg xmlns="http://www.w3.org/2000/svg" xml:space="preserve" width="100%" height="100%" version="1.1" style="shape-rendering:geometricPrecision; text-rendering:geometricPrecision; image-rendering:optimizeQuality; fill-rule:evenodd; clip-rule:evenodd"
viewBox="0 0 1200 1200"
 xmlns:xlink="http://www.w3.org/1999/xlink">
 <defs>
  <style type="text/css">
   <![CDATA[
    .fil0 {fill:none}
    .fil1 {fill:#9999FF}
   ]]>
  </style>
 </defs>
 <g id="Layer_x0020_1">
  <metadata id="CorelCorpID_0Corel-Layer"/>
  <g id="_2098700950624">
   <rect class="fil0" width="1200" height="1200"/>
   <path class="fil1" d="M956 601l0 77 -103 0 -17 52 69 70 -105 105 -69 -70 -53 18 0 103 -156 0 0 -103 -52 -18 -70 70 -105 -105 70 -70 -17 -52 -104 0 0 -77 0 0 0 -1c0,-95 37,-184 104,-251 65,-65 150,-102 241,-105l0 -44 -56 0 0 -23 134 0 0 23 -56 0 0 44c91,3 176,40 241,105 67,67 104,156 104,251l0 1 0 0zm-795 207l-71 0 0 13 71 0 0 -13zm46 0l-29 0 0 13 29 0 0 -13zm-46 -75l-20 0 0 14 20 0 0 -14zm46 0l-29 0 0 14 29 0 0 -14zm-46 38l-121 0 0 13 121 0 0 -13zm46 0l-29 0 0 13 29 0 0 -13zm66 -471l19 0 0 14 -19 0 0 -14zm-51 0l20 0 0 14 -20 0 0 -14zm42 14l0 24 -13 0 0 -24 13 0zm0 -40l0 22 -13 0 0 -22 13 0zm-55 337l-22 0 0 -13 22 0 0 13zm-35 0l-46 0 0 -13 46 0 0 13zm35 -29l-22 0 0 -13 22 0 0 13zm-35 0l-29 0 0 -13 29 0 0 13zm866 -172l70 0 0 13 -70 0 0 -13zm-46 0l28 0 0 13 -28 0 0 -13zm46 -75l20 0 0 14 -20 0 0 -14zm-46 0l28 0 0 14 -28 0 0 -14zm46 38l121 0 0 13 -121 0 0 -13zm-46 0l28 0 0 13 -28 0 0 -13zm-118 -155l20 0 0 13 -20 0 0 -13zm-50 0l19 0 0 13 -19 0 0 -13zm41 13l0 24 -13 0 0 -24 13 0zm0 -39l0 22 -13 0 0 -22 13 0zm-55 760l20 0 0 14 -20 0 0 -14zm-50 0l22 0 0 14 -22 0 0 -14zm42 14l0 24 -14 0 0 -24 14 0zm0 -38l0 20 -14 0 0 -20 14 0zm235 -336l22 0 0 13 -22 0 0 -13zm-51 0l22 0 0 13 -22 0 0 -13zm42 13l0 24 -13 0 0 -24 13 0zm0 -40l0 22 -13 0 0 -22 13 0zm-733 336l22 0 0 13 -22 0 0 -13zm-50 0l22 0 0 13 -22 0 0 -13zm44 13l0 25 -13 0 0 -25 13 0zm0 -37l0 20 -13 0 0 -20 13 0zm320 -588l-22 0 0 44 22 0 0 -44zm-125 80l-22 -39 -20 11 23 39 19 -11zm-106 89l-38 -22 -12 19 39 23 11 -20 0 0zm357 -128l-22 39 18 11 23 -39 -19 -11 0 0zm122 106l-39 22 11 20 39 -23 -11 -19zm-270 153l0 -211 22 0 0 211 44 0 22 0 62 0 195 0c-3,-85 -37,-164 -98,-225 -63,-63 -147,-98 -236,-98 -89,0 -173,35 -236,98 -60,61 -95,140 -97,225l204 0 52 0 23 0 43 0zm345 22l-257 0c-5,38 -38,67 -77,67 -39,0 -72,-29 -77,-67l-257 0 0 45 97 0 27 80 -63 64 73 74 64 -64 81 27 0 97 111 0 0 -97 81 -27 63 64 74 -74 -64 -64 27 -80 97 0 0 -45 0 0zm-389 0l110 0c-6,26 -28,45 -55,45 -27,0 -49,-19 -55,-45l0 0z"/>
  </g>
 </g>
</svg>
