<?xml version="1.0" encoding="UTF-8"?>
<!DOCTYPE svg PUBLIC "-//W3C//DTD SVG 1.1//EN" "http://www.w3.org/Graphics/SVG/1.1/DTD/svg11.dtd">
<!-- Creator: CorelDRAW X7 -->
<svg xmlns="http://www.w3.org/2000/svg" xml:space="preserve" width="100%" height="100%" version="1.1" style="shape-rendering:geometricPrecision; text-rendering:geometricPrecision; image-rendering:optimizeQuality; fill-rule:evenodd; clip-rule:evenodd"
viewBox="0 0 154 154"
 xmlns:xlink="http://www.w3.org/1999/xlink">
 <defs>
  <style type="text/css">
   <![CDATA[
    .fil0 {fill:#8480BC}
    .fil1 {fill:white}
   ]]>
  </style>
 </defs>
 <g id="Layer_x0020_1">
  <metadata id="CorelCorpID_0Corel-Layer"/>
  <g id="_2098955219632">
   <path class="fil0" d="M100 41l-46 0c-7,0 -13,6 -13,13l0 46c0,8 6,14 13,14l46 0c7,0 13,-6 13,-14l0 -46c0,-7 -6,-13 -13,-13zm-23 60c-13,0 -24,-11 -24,-24 0,-13 11,-24 24,-24 13,0 24,11 24,24 0,13 -11,24 -24,24zm25 -43c-3,0 -6,-2 -6,-5 0,-3 3,-6 6,-6 3,0 5,3 5,6 0,3 -2,5 -5,5z"/>
   <path class="fil0" d="M77 63c-8,0 -14,7 -14,14 0,8 6,14 14,14 8,0 14,-6 14,-14 0,-7 -6,-14 -14,-14z"/>
   <path class="fil0" d="M77 0c-42,0 -77,35 -77,77 0,43 35,77 77,77 43,0 77,-34 77,-77 0,-42 -34,-77 -77,-77zm46 100c0,13 -10,24 -23,24l-46 0c-13,0 -23,-11 -23,-24l0 -46c0,-13 10,-23 23,-23l46 0c13,0 23,10 23,23l0 46z"/>
   <path class="fil1" d="M100 31l-46 0c-13,0 -23,10 -23,23l0 46c0,13 10,24 23,24l46 0c13,0 23,-11 23,-24l0 -46c0,-13 -10,-23 -23,-23zm-46 10l46 0c7,0 13,6 13,13l0 46c0,8 -6,14 -13,14l-46 0c-7,0 -13,-6 -13,-14l0 -46c0,-7 6,-13 13,-13z"/>
   <path class="fil1" d="M101 77c0,-13 -11,-24 -24,-24 -13,0 -24,11 -24,24 0,13 11,24 24,24 13,0 24,-11 24,-24zm-38 0c0,-7 6,-14 14,-14 8,0 14,7 14,14 0,8 -6,14 -14,14 -8,0 -14,-6 -14,-14z"/>
   <path class="fil1" d="M107 53c0,-3 -2,-6 -5,-6 -3,0 -6,3 -6,6 0,3 3,5 6,5 3,0 5,-2 5,-5z"/>
  </g>
 </g>
</svg>
