<?xml version="1.0" encoding="UTF-8"?>
<!DOCTYPE svg PUBLIC "-//W3C//DTD SVG 1.1//EN" "http://www.w3.org/Graphics/SVG/1.1/DTD/svg11.dtd">
<!-- Creator: CorelDRAW X7 -->
<svg xmlns="http://www.w3.org/2000/svg" xml:space="preserve" width="100%" height="100%" version="1.1" style="shape-rendering:geometricPrecision; text-rendering:geometricPrecision; image-rendering:optimizeQuality; fill-rule:evenodd; clip-rule:evenodd"
viewBox="0 0 182 182"
 xmlns:xlink="http://www.w3.org/1999/xlink">
 <defs>
  <style type="text/css">
   <![CDATA[
    .fil1 {fill:none}
    .fil0 {fill:#666666}
   ]]>
  </style>
 </defs>
 <g id="Layer_x0020_1">
  <metadata id="CorelCorpID_0Corel-Layer"/>
  <g id="_2098727520368">
   <path class="fil0" d="M91 10c22,0 42,9 57,24 16,15 24,36 24,57 0,22 -8,42 -24,57 -15,16 -35,24 -57,24 -21,0 -42,-8 -57,-24 -15,-15 -24,-35 -24,-57 0,-21 9,-42 24,-57 15,-15 36,-24 57,-24zm-38 94l0 5 76 0 0 -5 -76 0zm0 -15l0 5 76 0 0 -5 -76 0zm0 -16l0 6 76 0 0 -6 -76 0zm-15 72c14,14 33,22 53,22 20,0 40,-8 54,-22 14,-14 22,-34 22,-54 0,-20 -8,-39 -22,-53 -14,-15 -34,-23 -54,-23 -20,0 -39,8 -53,23 -15,14 -23,33 -23,53 0,20 8,40 23,54z"/>
   <rect class="fil1" width="182" height="182"/>
  </g>
 </g>
</svg>
