<?xml version="1.0" encoding="UTF-8"?>
<!DOCTYPE svg PUBLIC "-//W3C//DTD SVG 1.1//EN" "http://www.w3.org/Graphics/SVG/1.1/DTD/svg11.dtd">
<!-- Creator: CorelDRAW X7 -->
<svg xmlns="http://www.w3.org/2000/svg" xml:space="preserve" width="100%" height="100%" version="1.1" style="shape-rendering:geometricPrecision; text-rendering:geometricPrecision; image-rendering:optimizeQuality; fill-rule:evenodd; clip-rule:evenodd"
viewBox="0 0 1200 1200"
 xmlns:xlink="http://www.w3.org/1999/xlink">
 <defs>
  <style type="text/css">
   <![CDATA[
    .fil0 {fill:none}
    .fil1 {fill:#9999FF}
   ]]>
  </style>
 </defs>
 <g id="Layer_x0020_1">
  <metadata id="CorelCorpID_0Corel-Layer"/>
  <g id="_2098575137248">
   <rect class="fil0" width="1200" height="1200"/>
   <path class="fil1" d="M600 244c95,0 184,37 252,105 67,67 104,156 104,251 0,95 -37,184 -104,252 -68,67 -157,104 -252,104 -95,0 -185,-37 -252,-104 -67,-68 -104,-157 -104,-252 0,-95 37,-184 104,-251 67,-68 157,-105 252,-105zm-149 779l-22 0 0 -13 22 0 0 13zm-35 0l-46 0 0 -13 46 0 0 13zm35 -30l-22 0 0 -14 22 0 0 14zm-35 0l-28 0 0 -14 28 0 0 14zm-265 -308l-73 0 0 -14 73 0 0 14zm46 0l-31 0 0 -14 31 0 0 14zm-46 74l-22 0 0 -13 22 0 0 13zm46 0l-31 0 0 -13 31 0 0 13zm-46 -37l-123 0 0 -13 123 0 0 13zm46 0l-31 0 0 -13 31 0 0 13zm832 -290l70 0 0 13 -70 0 0 -13zm-46 0l28 0 0 13 -28 0 0 -13zm46 -75l20 0 0 13 -20 0 0 -13zm-46 0l28 0 0 13 -28 0 0 -13zm46 37l121 0 0 14 -121 0 0 -14zm-46 0l28 0 0 14 -28 0 0 -14zm-144 -191l20 0 0 13 -20 0 0 -13zm-50 0l20 0 0 13 -20 0 0 -13zm42 13l0 24 -14 0 0 -24 14 0zm0 -39l0 22 -14 0 0 -22 14 0zm-628 292l22 0 0 13 -22 0 0 -13zm-51 0l22 0 0 13 -22 0 0 -13zm42 13l0 25 -13 0 0 -25 13 0zm0 -37l0 20 -13 0 0 -20 13 0zm609 517l0 20 -13 0 0 -20 13 0zm0 37l0 24 -13 0 0 -24 13 0zm-42 -13l22 0 0 13 -22 0 0 -13zm51 0l20 0 0 13 -20 0 0 -13zm227 -361l22 0 0 13 -22 0 0 -13zm-51 0l22 0 0 13 -22 0 0 -13zm42 13l0 25 -13 0 0 -25 13 0zm0 -39l0 22 -13 0 0 -22 13 0zm-748 286l22 0 0 13 -22 0 0 -13zm-51 0l22 0 0 13 -22 0 0 -13zm44 13l0 24 -13 0 0 -24 13 0zm0 -37l0 19 -13 0 0 -19 13 0zm123 -280l0 231 96 0 0 -231c-32,0 -64,0 -96,0zm19 19l58 0 0 193 -58 0 0 -193zm135 -115l0 327 96 0 0 -327c-32,0 -64,0 -96,0zm19 19l58 0 0 289 -58 0 0 -289zm135 -116l0 424 96 0 0 -424c-32,0 -64,0 -96,0zm19 20l58 0 0 385 -58 0 0 -385zm-361 428c63,63 147,98 236,98 89,0 173,-35 236,-98 63,-63 98,-147 98,-236 0,-89 -35,-173 -98,-236 -63,-63 -147,-98 -236,-98 -89,0 -173,35 -236,98 -63,63 -98,147 -98,236 0,89 35,173 98,236z"/>
  </g>
 </g>
</svg>
