<?xml version="1.0" encoding="UTF-8"?>
<!DOCTYPE svg PUBLIC "-//W3C//DTD SVG 1.1//EN" "http://www.w3.org/Graphics/SVG/1.1/DTD/svg11.dtd">
<!-- Creator: CorelDRAW X7 -->
<svg xmlns="http://www.w3.org/2000/svg" xml:space="preserve" width="100%" height="100%" version="1.1" style="shape-rendering:geometricPrecision; text-rendering:geometricPrecision; image-rendering:optimizeQuality; fill-rule:evenodd; clip-rule:evenodd"
viewBox="0 0 182 182"
 xmlns:xlink="http://www.w3.org/1999/xlink">
 <defs>
  <style type="text/css">
   <![CDATA[
    .fil0 {fill:none}
    .fil1 {fill:#666666}
   ]]>
  </style>
 </defs>
 <g id="Layer_x0020_1">
  <metadata id="CorelCorpID_0Corel-Layer"/>
  <rect class="fil0" width="182" height="182"/>
  <path class="fil1" d="M69 110l11 -12c-8,-9 -13,-21 -13,-35 0,-29 23,-53 52,-53 29,0 53,24 53,53 0,29 -24,53 -53,53 -13,0 -26,-5 -35,-14l-11 11 7 8 -51 51 -19 -18 52 -52 7 8zm98 -47c0,-26 -21,-48 -48,-48 -26,0 -47,22 -47,48 0,26 21,48 47,48 27,0 48,-22 48,-48zm-138 102l44 -44 -11 -12 -45 45 12 11z"/>
 </g>
</svg>
