<?xml version="1.0" encoding="UTF-8"?>
<!DOCTYPE svg PUBLIC "-//W3C//DTD SVG 1.1//EN" "http://www.w3.org/Graphics/SVG/1.1/DTD/svg11.dtd">
<!-- Creator: CorelDRAW X7 -->
<svg xmlns="http://www.w3.org/2000/svg" xml:space="preserve" width="100%" height="100%" version="1.1" style="shape-rendering:geometricPrecision; text-rendering:geometricPrecision; image-rendering:optimizeQuality; fill-rule:evenodd; clip-rule:evenodd"
viewBox="0 0 154 154"
 xmlns:xlink="http://www.w3.org/1999/xlink">
 <defs>
  <style type="text/css">
   <![CDATA[
    .fil0 {fill:#8480BC}
    .fil1 {fill:white}
   ]]>
  </style>
 </defs>
 <g id="Layer_x0020_1">
  <metadata id="CorelCorpID_0Corel-Layer"/>
  <g id="_2098621574992">
   <path class="fil0" d="M154 77c0,43 -34,77 -77,77 -42,0 -77,-34 -77,-77 0,-42 35,-77 77,-77 43,0 77,35 77,77z"/>
   <path class="fil1" d="M124 55c-3,2 -7,3 -10,3 3,-2 6,-6 8,-10 -4,2 -8,4 -12,5 -3,-4 -8,-6 -13,-6 -11,0 -19,8 -19,18 0,2 0,3 1,4 -16,0 -29,-8 -38,-19 -2,3 -3,6 -3,9 0,7 4,12 8,16 -3,0 -5,-1 -8,-3 0,0 0,1 0,1 0,9 6,16 15,18 -2,0 -3,0 -5,0 -1,0 -2,0 -3,0 2,7 9,13 17,13 -7,5 -14,8 -23,8 -2,0 -3,0 -4,-1 8,6 17,9 28,9 34,0 52,-28 52,-53 0,-1 0,-1 0,-2 4,-3 7,-6 9,-10z"/>
  </g>
 </g>
</svg>
