<?xml version="1.0" encoding="UTF-8"?>
<!DOCTYPE svg PUBLIC "-//W3C//DTD SVG 1.1//EN" "http://www.w3.org/Graphics/SVG/1.1/DTD/svg11.dtd">
<!-- Creator: CorelDRAW X7 -->
<svg xmlns="http://www.w3.org/2000/svg" xml:space="preserve" width="100%" height="100%" version="1.1" style="shape-rendering:geometricPrecision; text-rendering:geometricPrecision; image-rendering:optimizeQuality; fill-rule:evenodd; clip-rule:evenodd"
viewBox="0 0 2709 2332"
 xmlns:xlink="http://www.w3.org/1999/xlink">
 <defs>
  <style type="text/css">
   <![CDATA[
    .fil0 {fill:#FCE9CA}
    .fil3 {fill:#FDDFD1;fill-rule:nonzero}
    .fil1 {fill:#D2AE6D;fill-rule:nonzero}
    .fil4 {fill:#E3C582;fill-rule:nonzero}
    .fil2 {fill:white;fill-rule:nonzero}
   ]]>
  </style>
 </defs>
 <g id="Layer_x0020_1">
  <metadata id="CorelCorpID_0Corel-Layer"/>
  <g id="_1697743624960">
   <polygon class="fil0" points="2709,0 0,0 0,2332 2709,2332 "/>
   <path class="fil1" d="M1848 805c4,0 4,6 0,6 -3,0 -3,-6 0,-6z"/>
   <path class="fil1" d="M2543 1021c-1,-1 -2,-2 -3,-3 -1,-1 1,-3 2,-2 1,1 2,2 3,3 1,2 -1,4 -2,2z"/>
   <path class="fil1" d="M2541 1276c4,0 4,6 0,6 -4,0 -4,-6 0,-6z"/>
   <path class="fil1" d="M2547 1343c3,0 3,6 0,6 -4,0 -4,-6 0,-6z"/>
   <path class="fil1" d="M2652 2143l0 -2c0,-4 5,-4 5,0l0 2c0,4 -5,4 -5,0z"/>
   <path class="fil1" d="M2529 1602c4,0 4,6 0,6 -3,0 -3,-6 0,-6z"/>
   <path class="fil1" d="M2424 1052c4,0 4,6 0,6 -3,0 -3,-6 0,-6z"/>
   <path class="fil1" d="M2480 776l3 0c3,0 3,6 0,6l-3 0c-4,0 -4,-6 0,-6z"/>
   <path class="fil1" d="M2198 719c7,0 7,11 0,11 -8,0 -8,-11 0,-11z"/>
   <path class="fil1" d="M2166 441c3,0 3,6 0,6 -4,0 -4,-6 0,-6z"/>
   <path class="fil1" d="M2087 313c4,0 4,6 0,6 -4,0 -4,-6 0,-6z"/>
   <path class="fil1" d="M1515 460c4,0 4,5 0,5 -3,0 -3,-5 0,-5z"/>
   <path class="fil1" d="M2500 502c4,0 4,6 0,6 -3,0 -4,-6 0,-6z"/>
   <path class="fil1" d="M2420 461c-1,-1 -2,-2 -3,-3 -3,-3 1,-7 4,-4 1,1 2,2 3,3 2,2 -2,6 -4,4z"/>
   <path class="fil1" d="M2436 491c4,0 4,5 0,5 -4,0 -4,-5 0,-5z"/>
   <path class="fil1" d="M2509 558c4,0 4,5 0,5 -4,0 -4,-5 0,-5z"/>
   <path class="fil1" d="M2521 703c3,0 3,6 0,6 -4,0 -4,-6 0,-6z"/>
   <path class="fil1" d="M2582 796c3,0 3,6 0,6 -4,0 -4,-6 0,-6z"/>
   <path class="fil1" d="M2512 892c3,0 3,6 0,6 -4,0 -4,-6 0,-6z"/>
   <path class="fil1" d="M1997 686c3,0 3,5 0,5 -4,0 -4,-5 0,-5z"/>
   <path class="fil1" d="M1966 809c1,-1 2,-2 3,-3 2,-3 6,1 4,4 -1,1 -2,2 -3,3 -3,2 -7,-2 -4,-4z"/>
   <path class="fil1" d="M1821 401c3,0 3,6 0,6 -4,0 -4,-6 0,-6z"/>
   <path class="fil1" d="M2515 1698c3,0 3,6 0,6 -4,0 -4,-6 0,-6z"/>
   <path class="fil1" d="M2649 999l2 0c3,0 5,2 5,4 0,2 -2,4 -5,4l-2 0c-3,0 -5,-2 -5,-4 0,-2 2,-4 5,-4z"/>
   <path class="fil1" d="M2206 568c6,0 6,8 0,8 -5,0 -5,-8 0,-8z"/>
   <path class="fil1" d="M2318 418l0 -3c0,-2 2,-4 5,-4 2,0 4,2 4,4l0 3c0,2 -2,4 -4,4 -3,0 -5,-2 -5,-4z"/>
   <path class="fil1" d="M1843 457c5,0 5,9 0,9 -6,0 -6,-9 0,-9z"/>
   <path class="fil1" d="M1729 679c6,0 6,8 0,8 -5,0 -5,-8 0,-8z"/>
   <path class="fil1" d="M1883 700c1,-1 2,-2 3,-3 2,-1 4,-1 6,0 2,2 2,5 0,6 -1,1 -2,2 -3,3 -1,2 -4,2 -6,0 -1,-1 -1,-4 0,-6z"/>
   <path class="fil1" d="M1626 420c5,0 5,9 0,9 -6,0 -6,-9 0,-9z"/>
   <path class="fil1" d="M2655 1419c0,3 5,5 6,2 0,-1 0,-2 1,-2 -1,0 -1,0 0,0 0,2 -3,4 -5,4 -2,0 -4,-2 -4,-4 0,-3 3,-5 5,-5 3,0 6,2 6,5 0,2 -2,4 -4,4 -3,0 -5,-2 -5,-4z"/>
   <path class="fil1" d="M2482 302c-1,-1 -2,-2 -3,-3 -1,-1 -1,-4 0,-6 2,-2 5,-1 6,0 1,1 2,2 3,3 2,1 2,4 0,6 -1,2 -4,1 -6,0z"/>
   <path class="fil1" d="M2532 361c6,0 6,9 0,9 -5,0 -5,-9 0,-9z"/>
   <path class="fil1" d="M2651 353c6,0 6,8 0,8 -5,0 -5,-8 0,-8z"/>
   <path class="fil1" d="M2631 437c6,0 6,9 0,9 -5,0 -5,-9 0,-9z"/>
   <path class="fil1" d="M2523 402c6,0 6,9 0,9 -5,0 -5,-9 0,-9z"/>
   <path class="fil1" d="M2369 280c6,0 6,8 0,8 -5,0 -5,-8 0,-8z"/>
   <path class="fil1" d="M2206 203c1,1 2,2 3,3 2,1 2,4 0,5 -1,2 -4,2 -6,0 -1,0 -2,-1 -3,-2 -1,-2 -1,-5 0,-6 2,-2 5,-2 6,0z"/>
   <path class="fil1" d="M1985 216c6,0 6,8 0,8 -5,0 -5,-8 0,-8z"/>
   <path class="fil1" d="M2547 1276c1,1 2,2 3,3 1,2 1,4 0,6 -2,2 -5,2 -6,0l-3 -3c-2,-2 -2,-4 0,-6 1,-2 4,-2 6,0z"/>
   <path class="fil1" d="M2384 685c12,0 13,19 0,19 -13,0 -13,-19 0,-19z"/>
   <path class="fil1" d="M2195 398c7,0 7,11 0,11 -8,0 -8,-11 0,-11z"/>
   <path class="fil1" d="M867 945c4,0 4,-6 0,-6 -3,0 -3,6 0,6z"/>
   <path class="fil1" d="M434 994c4,0 4,-5 0,-5 -4,0 -4,5 0,5z"/>
   <path class="fil1" d="M260 1314c1,1 2,1 3,2 3,3 7,-1 4,-4 -1,-1 -2,-1 -3,-2 -2,-3 -6,1 -4,4z"/>
   <path class="fil1" d="M806 412c4,0 4,-5 0,-5 -3,0 -3,5 0,5z"/>
   <path class="fil1" d="M436 744c8,0 8,-12 0,-12 -8,0 -8,12 0,12z"/>
   <path class="fil1" d="M594 1053c4,0 4,-6 0,-6 -4,0 -4,6 0,6z"/>
   <path class="fil1" d="M274 852c3,0 3,-6 0,-6 -4,0 -4,6 0,6z"/>
   <path class="fil1" d="M405 779c3,0 3,-6 0,-6 -4,0 -4,6 0,6z"/>
   <path class="fil1" d="M766 764c3,0 3,-5 0,-5 -4,0 -4,5 0,5z"/>
   <path class="fil1" d="M576 794c4,0 4,-6 0,-6 -3,0 -3,6 0,6z"/>
   <path class="fil1" d="M769 1076l0 3c0,3 5,3 5,0l0 -3c0,-4 -5,-4 -5,0z"/>
   <path class="fil1" d="M1097 1067c4,0 4,-6 0,-6 -3,0 -3,6 0,6z"/>
   <path class="fil1" d="M143 1469c4,0 4,-6 0,-6 -4,0 -4,6 0,6z"/>
   <path class="fil1" d="M298 722c2,1 4,2 6,3 2,1 4,0 5,-2 1,-2 1,-4 -1,-5 -2,-1 -4,-2 -6,-3 -2,-1 -5,-1 -6,1 -1,2 0,5 2,6z"/>
   <path class="fil1" d="M728 591c5,0 5,-8 0,-8 -6,0 -6,8 0,8z"/>
   <path class="fil1" d="M216 1477l0 2c0,7 11,7 11,0l0 -2c0,-7 -11,-7 -11,0l0 2c0,7 11,7 11,0l0 -2c0,-7 -11,-7 -11,0z"/>
   <path class="fil1" d="M134 2083c4,0 4,-6 0,-6 -3,0 -3,6 0,6z"/>
   <path class="fil1" d="M306 476c3,0 3,-5 0,-5 -4,0 -4,5 0,5z"/>
   <path class="fil1" d="M725 508l0 3c0,4 6,4 6,0l0 -3c0,-3 -6,-3 -6,0z"/>
   <path class="fil1" d="M838 567c4,0 4,-6 0,-6 -3,0 -3,6 0,6z"/>
   <path class="fil1" d="M485 1005c8,0 8,-12 0,-12 -7,0 -7,12 0,12z"/>
   <path class="fil1" d="M196 1606c-1,1 -2,2 -3,3 -2,3 2,7 4,4 1,-1 2,-2 3,-3 3,-2 -1,-6 -4,-4z"/>
   <path class="fil1" d="M389 277c4,0 4,-5 0,-5 -3,0 -3,5 0,5z"/>
   <path class="fil1" d="M364 171c-1,1 -2,2 -3,3 -2,2 2,6 4,4 1,-1 2,-2 3,-3 3,-3 -1,-7 -4,-4z"/>
   <path class="fil1" d="M1570 454c4,0 4,-6 0,-6 -4,0 -4,6 0,6z"/>
   <path class="fil1" d="M1746 756c4,0 4,-6 0,-6 -3,0 -3,6 0,6z"/>
   <path class="fil1" d="M411 868c5,0 5,-9 0,-9 -6,0 -6,9 0,9z"/>
   <path class="fil1" d="M288 1426l3 0c3,0 5,-2 5,-4 -1,-2 -2,-4 -5,-4l-3 0c-2,0 -4,2 -4,4 0,2 2,4 4,4z"/>
   <path class="fil1" d="M859 461c6,0 6,-8 0,-8 -5,0 -5,8 0,8z"/>
   <path class="fil1" d="M664 571c5,0 5,-9 0,-9 -6,0 -6,9 0,9z"/>
   <path class="fil1" d="M700 703l0 3c0,3 2,5 4,5 3,-1 5,-2 5,-5l0 -3c0,-2 -2,-4 -5,-4 -2,0 -4,2 -4,4z"/>
   <path class="fil1" d="M803 673c6,0 6,-9 0,-9 -5,0 -5,9 0,9z"/>
   <path class="fil1" d="M253 1828c6,0 6,-9 0,-9 -5,0 -5,9 0,9z"/>
   <path class="fil1" d="M1212 1194c12,0 12,-18 0,-18 -11,0 -11,18 0,18z"/>
   <path class="fil1" d="M1234 1079c7,0 7,-12 0,-12 -7,0 -7,12 0,12z"/>
   <path class="fil1" d="M498 901c1,-1 2,-2 3,-3 2,-1 2,-4 0,-6 -2,-1 -4,-1 -6,0 -1,1 -2,2 -3,3 -2,2 -2,5 0,6 2,2 4,2 6,0z"/>
   <path class="fil1" d="M703 977c-1,-3 4,-5 5,-2 0,1 1,2 1,2 0,0 0,0 0,0 0,-2 -2,-4 -4,-4 -3,0 -4,2 -5,4 0,3 3,5 6,5 3,0 5,-2 5,-5 0,-2 -2,-4 -4,-4 -2,0 -5,2 -4,4z"/>
   <path class="fil1" d="M847 1048c6,0 6,-8 0,-8 -5,0 -5,8 0,8z"/>
   <path class="fil1" d="M1004 1147c6,0 6,-8 0,-8 -5,0 -5,8 0,8z"/>
   <path class="fil1" d="M67 1778c6,0 6,-8 0,-8 -5,0 -5,8 0,8z"/>
   <path class="fil1" d="M134 1319c6,0 6,-9 0,-9 -5,0 -5,9 0,9z"/>
   <path class="fil1" d="M1172 989l0 2c0,3 2,5 4,5 2,0 4,-2 4,-5l0 -2c0,-3 -2,-5 -4,-5 -2,0 -4,2 -4,5z"/>
   <path class="fil1" d="M1394 1086c6,0 6,-9 0,-9 -5,0 -5,9 0,9z"/>
   <path class="fil1" d="M510 926c12,0 12,-20 0,-20 -13,0 -13,20 0,20z"/>
   <path class="fil1" d="M998 1001l3 0c5,0 10,-4 10,-10 0,-5 -4,-9 -10,-9l-3 0c-5,0 -10,4 -10,9 1,6 5,10 10,10z"/>
   <path class="fil1" d="M95 762l0 3c0,5 5,10 10,9 5,0 10,-4 10,-9l0 -3c0,-6 -5,-11 -10,-10 -5,0 -10,4 -10,10z"/>
   <path class="fil1" d="M268 844l0 6c0,8 12,8 12,0l0 -6c0,-8 -12,-8 -12,0z"/>
   <path class="fil1" d="M763 406c7,0 7,-11 0,-11 -8,0 -8,11 0,11z"/>
   <path class="fil2" d="M64 124c1,2 4,3 6,1 2,-1 3,-4 2,-6 -2,-2 -5,-3 -7,-2 -2,2 -3,5 -1,7z"/>
   <path class="fil2" d="M140 180c1,3 4,3 7,2 2,-1 2,-4 1,-7 -1,-2 -4,-2 -6,-1 -3,1 -3,4 -2,6z"/>
   <path class="fil2" d="M541 742c1,2 4,2 7,1 2,-1 2,-4 1,-6 -1,-3 -4,-3 -6,-2 -3,1 -3,4 -2,7z"/>
   <path class="fil2" d="M542 823c2,2 5,3 7,1 2,-1 3,-4 1,-6 -1,-2 -4,-3 -6,-2 -2,2 -3,5 -2,7z"/>
   <path class="fil2" d="M418 816c1,2 4,3 6,2 2,-2 3,-5 2,-7 -2,-2 -5,-3 -7,-1 -2,1 -3,4 -1,6z"/>
   <path class="fil2" d="M195 728c1,2 4,3 6,1 3,-1 3,-4 2,-6 -1,-2 -4,-3 -7,-2 -2,2 -2,5 -1,7z"/>
   <path class="fil2" d="M351 453c1,2 4,3 6,2 3,-2 3,-5 2,-7 -1,-2 -4,-3 -7,-1 -2,1 -2,4 -1,6z"/>
   <path class="fil2" d="M174 170c1,2 4,3 6,1 2,-1 3,-4 2,-6 -2,-2 -5,-3 -7,-2 -2,2 -3,5 -1,7z"/>
   <path class="fil2" d="M961 565c2,3 5,3 7,2 2,-1 3,-4 1,-7 -1,-2 -4,-2 -6,-1 -2,1 -3,4 -2,6z"/>
   <path class="fil2" d="M1296 830c2,2 5,3 7,2 2,-2 3,-5 1,-7 -1,-2 -4,-3 -6,-1 -2,1 -3,4 -2,6z"/>
   <path class="fil2" d="M1258 648c1,2 4,3 6,2 3,-2 3,-5 2,-7 -1,-2 -4,-3 -7,-1 -2,1 -2,4 -1,6z"/>
   <path class="fil2" d="M1348 847c1,2 4,3 6,2 2,-2 3,-5 2,-7 -2,-2 -5,-3 -7,-1 -2,1 -3,4 -1,6z"/>
   <path class="fil2" d="M871 430c2,2 5,3 7,2 2,-2 3,-5 1,-7 -1,-2 -4,-3 -6,-1 -2,1 -3,4 -2,6z"/>
   <path class="fil2" d="M867 975c1,2 4,3 6,2 2,-2 3,-5 2,-7 -2,-2 -5,-3 -7,-1 -2,1 -3,4 -1,6z"/>
   <path class="fil2" d="M617 920c1,2 4,2 6,1 3,-1 3,-4 2,-6 -1,-3 -4,-3 -7,-2 -2,1 -2,4 -1,7z"/>
   <path class="fil2" d="M481 838c1,2 4,3 7,1 2,-1 2,-4 1,-6 -1,-3 -4,-3 -6,-2 -3,2 -3,4 -2,7z"/>
   <path class="fil2" d="M1037 717c1,2 4,3 6,1 2,-1 3,-4 2,-6 -2,-2 -5,-3 -7,-2 -2,2 -3,5 -1,7z"/>
   <path class="fil2" d="M1192 1003c2,2 5,2 7,1 2,-1 3,-4 2,-6 -2,-3 -5,-3 -7,-2 -2,1 -3,4 -2,7z"/>
   <path class="fil2" d="M1388 1238c2,2 5,3 7,2 2,-2 3,-5 1,-7 -1,-2 -4,-3 -6,-1 -2,1 -3,4 -2,6z"/>
   <path class="fil2" d="M1111 1161c2,3 5,3 7,2 2,-2 3,-4 1,-7 -1,-2 -4,-3 -6,-1 -2,1 -3,4 -2,6z"/>
   <path class="fil2" d="M951 899c2,2 5,2 7,1 2,-1 3,-4 1,-6 -1,-3 -4,-3 -6,-2 -2,1 -3,4 -2,7z"/>
   <path class="fil2" d="M872 618c1,3 4,3 6,2 3,-1 3,-4 2,-7 -1,-2 -4,-2 -7,-1 -2,1 -2,4 -1,6z"/>
   <path class="fil2" d="M752 681c2,2 5,3 7,1 2,-1 3,-4 1,-6 -1,-2 -4,-3 -6,-2 -2,2 -3,5 -2,7z"/>
   <path class="fil2" d="M1347 280c1,3 4,3 6,2 2,-2 3,-4 2,-7 -2,-2 -5,-3 -7,-1 -2,1 -3,4 -1,6z"/>
   <path class="fil2" d="M1418 214c1,3 4,3 6,2 2,-1 3,-4 2,-7 -2,-2 -5,-2 -7,-1 -2,1 -3,4 -1,6z"/>
   <path class="fil2" d="M1117 79c1,2 4,3 6,1 3,-1 3,-4 2,-6 -2,-2 -4,-3 -7,-2 -2,2 -3,5 -1,7z"/>
   <path class="fil2" d="M1162 179c1,3 4,3 6,2 2,-2 3,-4 2,-7 -2,-2 -5,-3 -7,-1 -2,1 -3,4 -1,6z"/>
   <path class="fil2" d="M1423 93c1,2 4,3 6,1 2,-1 3,-4 2,-6 -2,-2 -5,-3 -7,-2 -2,2 -3,5 -1,7z"/>
   <path class="fil2" d="M1160 855c2,2 5,3 7,1 2,-1 3,-4 1,-6 -1,-2 -4,-3 -6,-2 -2,2 -3,5 -2,7z"/>
   <path class="fil2" d="M1046 795c2,3 5,3 7,2 2,-2 3,-4 1,-7 -1,-2 -4,-3 -6,-1 -2,1 -3,4 -2,6z"/>
   <path class="fil2" d="M1069 1082c2,2 4,3 7,1 2,-1 3,-4 1,-6 -1,-2 -4,-3 -6,-2 -3,2 -3,5 -2,7z"/>
   <path class="fil2" d="M133 910c1,2 4,3 6,2 3,-2 3,-5 2,-7 -2,-2 -4,-3 -7,-1 -2,1 -3,4 -1,6z"/>
   <path class="fil2" d="M447 1152c1,2 4,3 6,2 3,-2 3,-5 2,-7 -2,-2 -4,-3 -7,-1 -2,1 -3,4 -1,6z"/>
   <path class="fil2" d="M1318 459c1,3 0,6 -2,8 -3,1 -6,0 -8,-3 -1,-3 0,-7 2,-8 3,-1 6,0 8,3z"/>
   <path class="fil2" d="M501 537c-2,3 -5,3 -7,2 -3,-2 -4,-5 -2,-8 1,-2 5,-3 7,-2 3,2 4,5 2,8z"/>
   <path class="fil3" d="M494 705c-2,3 -5,4 -8,2 -2,-2 -3,-5 -1,-8 1,-2 5,-3 7,-1 3,1 4,5 2,7z"/>
   <path class="fil3" d="M766 485c-1,3 -5,4 -7,2 -3,-1 -4,-5 -2,-7 2,-3 5,-4 7,-2 3,1 4,5 2,7z"/>
   <path class="fil2" d="M1472 669c-1,2 -5,3 -7,1 -3,-1 -4,-5 -2,-7 2,-3 5,-3 8,-2 2,2 3,5 1,8z"/>
   <path class="fil3" d="M1801 270c-1,3 -5,3 -7,2 -3,-2 -4,-5 -2,-8 1,-2 5,-3 7,-2 3,2 4,5 2,8z"/>
   <path class="fil3" d="M1143 538c-2,3 -5,4 -8,2 -2,-2 -3,-5 -1,-8 1,-2 4,-3 7,-1 3,1 3,5 2,7z"/>
   <path class="fil3" d="M1200 1037c-1,2 -5,3 -7,2 -3,-2 -4,-5 -2,-8 2,-3 5,-3 8,-2 2,2 3,5 1,8z"/>
   <path class="fil3" d="M2485 1501c-2,3 -5,4 -8,2 -3,-2 -3,-5 -2,-8 2,-2 5,-3 8,-1 2,1 3,5 2,7z"/>
   <path class="fil2" d="M786 712c-2,3 -5,4 -8,2 -3,-2 -3,-5 -2,-8 2,-2 5,-3 8,-1 2,1 3,5 2,7z"/>
   <path class="fil3" d="M354 65c-2,3 -5,4 -8,2 -2,-2 -3,-5 -1,-8 1,-2 5,-3 7,-1 3,1 3,5 2,7z"/>
   <path class="fil3" d="M1777 344c-2,2 -5,3 -8,1 -2,-1 -3,-5 -1,-7 1,-3 4,-4 7,-2 3,2 3,5 2,8z"/>
   <path class="fil3" d="M1748 101c-1,3 -5,3 -7,2 -3,-2 -4,-5 -2,-8 1,-2 5,-3 7,-2 3,2 4,5 2,8z"/>
   <path class="fil3" d="M524 215c-2,3 -5,4 -8,2 -2,-2 -3,-5 -2,-8 2,-2 5,-3 8,-1 2,1 3,5 2,7z"/>
   <path class="fil2" d="M2253 102c-2,2 -5,3 -8,2 -2,-2 -3,-6 -2,-8 2,-3 5,-3 8,-2 3,2 3,5 2,8z"/>
   <path class="fil3" d="M162 544c-2,3 -5,4 -8,2 -2,-1 -3,-5 -2,-7 2,-3 5,-4 8,-2 2,1 3,5 2,7z"/>
   <path class="fil2" d="M73 1907c-1,3 -5,3 -7,2 -3,-2 -3,-5 -2,-8 2,-2 5,-3 8,-2 2,2 3,5 1,8z"/>
   <path class="fil3" d="M2611 641c-2,3 -5,4 -8,2 -3,-2 -3,-5 -2,-8 2,-2 5,-3 8,-1 2,1 3,5 2,7z"/>
   <path class="fil2" d="M775 899c-2,3 -5,4 -8,2 -3,-1 -3,-5 -2,-7 2,-3 5,-4 8,-2 2,1 3,5 2,7z"/>
   <path class="fil3" d="M365 1425c-2,2 -5,3 -8,1 -2,-1 -3,-5 -2,-7 2,-3 5,-4 8,-2 2,2 3,5 2,8z"/>
   <path class="fil3" d="M794 70c-1,3 -5,4 -7,2 -3,-1 -3,-5 -2,-7 2,-3 5,-4 8,-2 2,1 3,5 1,7z"/>
   <path class="fil3" d="M2046 764c-2,3 -5,4 -8,2 -2,-1 -3,-5 -2,-7 2,-3 5,-4 8,-2 3,1 3,5 2,7z"/>
   <path class="fil3" d="M2594 1109c-2,3 -5,3 -8,2 -2,-2 -3,-5 -2,-8 2,-3 5,-3 8,-2 2,2 3,5 2,8z"/>
   <path class="fil3" d="M2561 1808c12,0 22,10 22,22l0 0c0,-12 10,-22 22,-22 -12,-1 -22,-10 -22,-23l0 0c0,13 -10,22 -22,23z"/>
   <path class="fil4" d="M2525 167c-14,0 -26,-12 -26,-27l0 0c0,15 -12,27 -27,27 15,1 27,13 27,28l0 0c0,-15 12,-27 26,-28z"/>
   <path class="fil4" d="M180 1073c28,1 51,24 51,52l0 0c0,-28 23,-51 51,-52 -28,-1 -51,-24 -51,-53l0 0c0,29 -23,52 -51,53z"/>
   <path class="fil1" d="M86 363c4,0 4,5 0,5 -3,0 -3,-5 0,-5z"/>
   <path class="fil1" d="M159 406c4,0 4,6 0,6 -3,0 -3,-6 0,-6z"/>
   <path class="fil1" d="M392 304c4,0 4,6 0,6 -4,0 -4,-6 0,-6z"/>
   <path class="fil1" d="M197 323c5,0 5,9 0,9 -5,0 -5,-9 0,-9z"/>
   <path class="fil1" d="M319 382c6,0 6,8 0,8 -5,0 -5,-8 0,-8z"/>
   <path class="fil1" d="M80 281c4,0 4,-5 0,-5 -3,0 -3,5 0,5z"/>
   <path class="fil1" d="M141 357c4,0 4,-6 0,-6 -3,0 -3,6 0,6z"/>
   <path class="fil1" d="M1267 171c4,0 4,6 0,6 -3,0 -3,-6 0,-6z"/>
   <path class="fil1" d="M1555 154l0 -3c0,-4 6,-4 6,0l0 3c0,4 -6,4 -6,0z"/>
   <path class="fil1" d="M1464 277c1,1 2,2 3,3 3,2 -1,6 -4,4 -1,-1 -2,-2 -3,-3 -2,-3 2,-7 4,-4z"/>
   <path class="fil1" d="M1558 337l3 0c4,0 4,6 0,6l-3 0c-3,0 -3,-6 0,-6z"/>
   <path class="fil1" d="M1308 298c5,0 5,9 0,9 -5,0 -5,-9 0,-9z"/>
   <path class="fil1" d="M1459 68c6,0 6,9 0,9 -5,0 -5,-9 0,-9z"/>
   <path class="fil1" d="M1634 91c5,0 5,9 0,9 -6,0 -6,-9 0,-9z"/>
   <path class="fil1" d="M1753 83c6,0 6,8 0,8 -5,0 -5,-8 0,-8z"/>
   <path class="fil1" d="M1733 167c5,0 5,9 0,9 -6,0 -6,-9 0,-9z"/>
   <path class="fil1" d="M1215 371c5,0 5,8 0,8 -6,0 -6,-8 0,-8z"/>
   <path class="fil1" d="M1264 93l3 0c3,0 6,3 6,6 0,3 -3,5 -6,5l-3 0c-3,0 -5,-2 -5,-5 0,-3 2,-6 5,-6z"/>
   <path class="fil1" d="M590 156c4,0 4,6 0,6 -4,0 -4,-6 0,-6z"/>
   <path class="fil1" d="M844 176c-1,-1 -2,-2 -3,-3 -2,-3 2,-7 4,-4 1,1 2,2 3,3 3,2 -1,6 -4,4z"/>
   <path class="fil1" d="M881 322l3 0c4,0 4,6 0,6l-3 0c-4,0 -4,-6 0,-6z"/>
   <path class="fil1" d="M631 283c5,0 5,8 0,8 -6,0 -6,-8 0,-8z"/>
   <path class="fil1" d="M669 196c5,0 5,8 0,8 -6,0 -6,-8 0,-8z"/>
   <path class="fil1" d="M782 53c6,0 6,8 0,8 -5,0 -5,-8 0,-8z"/>
   <path class="fil1" d="M957 76c5,0 5,9 0,9 -6,0 -6,-9 0,-9z"/>
   <path class="fil1" d="M538 356c5,0 5,8 0,8 -6,0 -6,-8 0,-8z"/>
   <path class="fil1" d="M980 179l3 0c3,0 3,6 0,6l-3 0c-4,0 -4,-6 0,-6z"/>
   <path class="fil1" d="M587 78l3 0c3,0 6,2 6,5 0,3 -3,6 -6,6l-3 0c-3,0 -6,-3 -6,-6 1,-3 3,-5 6,-5z"/>
  </g>
 </g>
</svg>
