<?xml version="1.0" encoding="UTF-8"?>
<!DOCTYPE svg PUBLIC "-//W3C//DTD SVG 1.1//EN" "http://www.w3.org/Graphics/SVG/1.1/DTD/svg11.dtd">
<!-- Creator: CorelDRAW X7 -->
<svg xmlns="http://www.w3.org/2000/svg" xml:space="preserve" width="100%" height="100%" version="1.1" style="shape-rendering:geometricPrecision; text-rendering:geometricPrecision; image-rendering:optimizeQuality; fill-rule:evenodd; clip-rule:evenodd"
viewBox="0 0 2709 2332"
 xmlns:xlink="http://www.w3.org/1999/xlink">
 <defs>
  <style type="text/css">
   <![CDATA[
    .fil8 {fill:#E1C696}
    .fil9 {fill:#DBBB83}
    .fil5 {fill:#D2AE6D}
    .fil6 {fill:#8480BC}
    .fil0 {fill:#FCE9CA}
    .fil12 {fill:white}
    .fil3 {fill:#FDDFD1;fill-rule:nonzero}
    .fil11 {fill:#DBBB83;fill-rule:nonzero}
    .fil7 {fill:#D2AE6D;fill-rule:nonzero}
    .fil10 {fill:#8480BC;fill-rule:nonzero}
    .fil13 {fill:black;fill-rule:nonzero}
    .fil1 {fill:#D2AE6D;fill-rule:nonzero}
    .fil4 {fill:#E3C582;fill-rule:nonzero}
    .fil2 {fill:white;fill-rule:nonzero}
   ]]>
  </style>
 </defs>
 <g id="Layer_x0020_1">
  <metadata id="CorelCorpID_0Corel-Layer"/>
  <g id="_1697667673072">
   <polygon class="fil0" points="2709,0 0,0 0,2332 2709,2332 "/>
   <path class="fil1" d="M1848 805c4,0 4,6 0,6 -3,0 -3,-6 0,-6z"/>
   <path class="fil1" d="M2543 1021c-1,-1 -2,-2 -3,-3 -1,-1 1,-3 2,-2 1,1 2,2 3,3 1,2 -1,4 -2,2z"/>
   <path class="fil1" d="M2541 1276c4,0 4,6 0,6 -4,0 -4,-6 0,-6z"/>
   <path class="fil1" d="M2547 1343c3,0 3,6 0,6 -4,0 -4,-6 0,-6z"/>
   <path class="fil1" d="M2652 2143l0 -2c0,-4 5,-4 5,0l0 2c0,4 -5,4 -5,0z"/>
   <path class="fil1" d="M2529 1602c4,0 4,6 0,6 -3,0 -3,-6 0,-6z"/>
   <path class="fil1" d="M2424 1052c4,0 4,6 0,6 -3,0 -3,-6 0,-6z"/>
   <path class="fil1" d="M2480 776l3 0c3,0 3,6 0,6l-3 0c-4,0 -4,-6 0,-6z"/>
   <path class="fil1" d="M2198 719c7,0 7,11 0,11 -8,0 -8,-11 0,-11z"/>
   <path class="fil1" d="M2166 441c3,0 3,6 0,6 -4,0 -4,-6 0,-6z"/>
   <path class="fil1" d="M2087 313c4,0 4,6 0,6 -4,0 -4,-6 0,-6z"/>
   <path class="fil1" d="M1515 460c4,0 4,5 0,5 -3,0 -3,-5 0,-5z"/>
   <path class="fil1" d="M2500 502c4,0 4,6 0,6 -3,0 -4,-6 0,-6z"/>
   <path class="fil1" d="M2420 461c-1,-1 -2,-2 -3,-3 -3,-3 1,-7 4,-4 1,1 2,2 3,3 2,2 -2,6 -4,4z"/>
   <path class="fil1" d="M2436 491c4,0 4,5 0,5 -4,0 -4,-5 0,-5z"/>
   <path class="fil1" d="M2509 558c4,0 4,5 0,5 -4,0 -4,-5 0,-5z"/>
   <path class="fil1" d="M2521 703c3,0 3,6 0,6 -4,0 -4,-6 0,-6z"/>
   <path class="fil1" d="M2582 796c3,0 3,6 0,6 -4,0 -4,-6 0,-6z"/>
   <path class="fil1" d="M2512 892c3,0 3,6 0,6 -4,0 -4,-6 0,-6z"/>
   <path class="fil1" d="M1997 686c3,0 3,5 0,5 -4,0 -4,-5 0,-5z"/>
   <path class="fil1" d="M1966 809c1,-1 2,-2 3,-3 2,-3 6,1 4,4 -1,1 -2,2 -3,3 -3,2 -7,-2 -4,-4z"/>
   <path class="fil1" d="M1821 401c3,0 3,6 0,6 -4,0 -4,-6 0,-6z"/>
   <path class="fil1" d="M2515 1698c3,0 3,6 0,6 -4,0 -4,-6 0,-6z"/>
   <path class="fil1" d="M2649 999l2 0c3,0 5,2 5,4 0,2 -2,4 -5,4l-2 0c-3,0 -5,-2 -5,-4 0,-2 2,-4 5,-4z"/>
   <path class="fil1" d="M2206 568c6,0 6,8 0,8 -5,0 -5,-8 0,-8z"/>
   <path class="fil1" d="M2318 418l0 -3c0,-2 2,-4 5,-4 2,0 4,2 4,4l0 3c0,2 -2,4 -4,4 -3,0 -5,-2 -5,-4z"/>
   <path class="fil1" d="M1843 457c5,0 5,9 0,9 -6,0 -6,-9 0,-9z"/>
   <path class="fil1" d="M1729 679c6,0 6,8 0,8 -5,0 -5,-8 0,-8z"/>
   <path class="fil1" d="M1883 700c1,-1 2,-2 3,-3 2,-1 4,-1 6,0 2,2 2,5 0,6 -1,1 -2,2 -3,3 -1,2 -4,2 -6,0 -1,-1 -1,-4 0,-6z"/>
   <path class="fil1" d="M1626 420c5,0 5,9 0,9 -6,0 -6,-9 0,-9z"/>
   <path class="fil1" d="M2655 1419c0,3 5,5 6,2 0,-1 0,-2 1,-2 -1,0 -1,0 0,0 0,2 -3,4 -5,4 -2,0 -4,-2 -4,-4 0,-3 3,-5 5,-5 3,0 6,2 6,5 0,2 -2,4 -4,4 -3,0 -5,-2 -5,-4z"/>
   <path class="fil1" d="M2482 302c-1,-1 -2,-2 -3,-3 -1,-1 -1,-4 0,-6 2,-2 5,-1 6,0 1,1 2,2 3,3 2,1 2,4 0,6 -1,2 -4,1 -6,0z"/>
   <path class="fil1" d="M2532 361c6,0 6,9 0,9 -5,0 -5,-9 0,-9z"/>
   <path class="fil1" d="M2651 353c6,0 6,8 0,8 -5,0 -5,-8 0,-8z"/>
   <path class="fil1" d="M2631 437c6,0 6,9 0,9 -5,0 -5,-9 0,-9z"/>
   <path class="fil1" d="M2523 402c6,0 6,9 0,9 -5,0 -5,-9 0,-9z"/>
   <path class="fil1" d="M2369 280c6,0 6,8 0,8 -5,0 -5,-8 0,-8z"/>
   <path class="fil1" d="M2206 203c1,1 2,2 3,3 2,1 2,4 0,5 -1,2 -4,2 -6,0 -1,0 -2,-1 -3,-2 -1,-2 -1,-5 0,-6 2,-2 5,-2 6,0z"/>
   <path class="fil1" d="M1985 216c6,0 6,8 0,8 -5,0 -5,-8 0,-8z"/>
   <path class="fil1" d="M2547 1276c1,1 2,2 3,3 1,2 1,4 0,6 -2,2 -5,2 -6,0l-3 -3c-2,-2 -2,-4 0,-6 1,-2 4,-2 6,0z"/>
   <path class="fil1" d="M2384 685c12,0 13,19 0,19 -13,0 -13,-19 0,-19z"/>
   <path class="fil1" d="M2195 398c7,0 7,11 0,11 -8,0 -8,-11 0,-11z"/>
   <path class="fil1" d="M867 945c4,0 4,-6 0,-6 -3,0 -3,6 0,6z"/>
   <path class="fil1" d="M434 994c4,0 4,-5 0,-5 -4,0 -4,5 0,5z"/>
   <path class="fil1" d="M260 1314c1,1 2,1 3,2 3,3 7,-1 4,-4 -1,-1 -2,-1 -3,-2 -2,-3 -6,1 -4,4z"/>
   <path class="fil1" d="M806 412c4,0 4,-5 0,-5 -3,0 -3,5 0,5z"/>
   <path class="fil1" d="M436 744c8,0 8,-12 0,-12 -8,0 -8,12 0,12z"/>
   <path class="fil1" d="M594 1053c4,0 4,-6 0,-6 -4,0 -4,6 0,6z"/>
   <path class="fil1" d="M274 852c3,0 3,-6 0,-6 -4,0 -4,6 0,6z"/>
   <path class="fil1" d="M405 779c3,0 3,-6 0,-6 -4,0 -4,6 0,6z"/>
   <path class="fil1" d="M766 764c3,0 3,-5 0,-5 -4,0 -4,5 0,5z"/>
   <path class="fil1" d="M576 794c4,0 4,-6 0,-6 -3,0 -3,6 0,6z"/>
   <path class="fil1" d="M769 1076l0 3c0,3 5,3 5,0l0 -3c0,-4 -5,-4 -5,0z"/>
   <path class="fil1" d="M1097 1067c4,0 4,-6 0,-6 -3,0 -3,6 0,6z"/>
   <path class="fil1" d="M143 1469c4,0 4,-6 0,-6 -4,0 -4,6 0,6z"/>
   <path class="fil1" d="M298 722c2,1 4,2 6,3 2,1 4,0 5,-2 1,-2 1,-4 -1,-5 -2,-1 -4,-2 -6,-3 -2,-1 -5,-1 -6,1 -1,2 0,5 2,6z"/>
   <path class="fil1" d="M728 591c5,0 5,-8 0,-8 -6,0 -6,8 0,8z"/>
   <path class="fil1" d="M216 1477l0 2c0,7 11,7 11,0l0 -2c0,-7 -11,-7 -11,0l0 2c0,7 11,7 11,0l0 -2c0,-7 -11,-7 -11,0z"/>
   <path class="fil1" d="M134 2083c4,0 4,-6 0,-6 -3,0 -3,6 0,6z"/>
   <path class="fil1" d="M306 476c3,0 3,-5 0,-5 -4,0 -4,5 0,5z"/>
   <path class="fil1" d="M725 508l0 3c0,4 6,4 6,0l0 -3c0,-3 -6,-3 -6,0z"/>
   <path class="fil1" d="M838 567c4,0 4,-6 0,-6 -3,0 -3,6 0,6z"/>
   <path class="fil1" d="M485 1005c8,0 8,-12 0,-12 -7,0 -7,12 0,12z"/>
   <path class="fil1" d="M196 1606c-1,1 -2,2 -3,3 -2,3 2,7 4,4 1,-1 2,-2 3,-3 3,-2 -1,-6 -4,-4z"/>
   <path class="fil1" d="M389 277c4,0 4,-5 0,-5 -3,0 -3,5 0,5z"/>
   <path class="fil1" d="M364 171c-1,1 -2,2 -3,3 -2,2 2,6 4,4 1,-1 2,-2 3,-3 3,-3 -1,-7 -4,-4z"/>
   <path class="fil1" d="M1570 454c4,0 4,-6 0,-6 -4,0 -4,6 0,6z"/>
   <path class="fil1" d="M1746 756c4,0 4,-6 0,-6 -3,0 -3,6 0,6z"/>
   <path class="fil1" d="M411 868c5,0 5,-9 0,-9 -6,0 -6,9 0,9z"/>
   <path class="fil1" d="M288 1426l3 0c3,0 5,-2 5,-4 -1,-2 -2,-4 -5,-4l-3 0c-2,0 -4,2 -4,4 0,2 2,4 4,4z"/>
   <path class="fil1" d="M859 461c6,0 6,-8 0,-8 -5,0 -5,8 0,8z"/>
   <path class="fil1" d="M664 571c5,0 5,-9 0,-9 -6,0 -6,9 0,9z"/>
   <path class="fil1" d="M700 703l0 3c0,3 2,5 4,5 3,-1 5,-2 5,-5l0 -3c0,-2 -2,-4 -5,-4 -2,0 -4,2 -4,4z"/>
   <path class="fil1" d="M803 673c6,0 6,-9 0,-9 -5,0 -5,9 0,9z"/>
   <path class="fil1" d="M253 1828c6,0 6,-9 0,-9 -5,0 -5,9 0,9z"/>
   <path class="fil1" d="M1212 1194c12,0 12,-18 0,-18 -11,0 -11,18 0,18z"/>
   <path class="fil1" d="M1234 1079c7,0 7,-12 0,-12 -7,0 -7,12 0,12z"/>
   <path class="fil1" d="M498 901c1,-1 2,-2 3,-3 2,-1 2,-4 0,-6 -2,-1 -4,-1 -6,0 -1,1 -2,2 -3,3 -2,2 -2,5 0,6 2,2 4,2 6,0z"/>
   <path class="fil1" d="M703 977c-1,-3 4,-5 5,-2 0,1 1,2 1,2 0,0 0,0 0,0 0,-2 -2,-4 -4,-4 -3,0 -4,2 -5,4 0,3 3,5 6,5 3,0 5,-2 5,-5 0,-2 -2,-4 -4,-4 -2,0 -5,2 -4,4z"/>
   <path class="fil1" d="M847 1048c6,0 6,-8 0,-8 -5,0 -5,8 0,8z"/>
   <path class="fil1" d="M1004 1147c6,0 6,-8 0,-8 -5,0 -5,8 0,8z"/>
   <path class="fil1" d="M67 1778c6,0 6,-8 0,-8 -5,0 -5,8 0,8z"/>
   <path class="fil1" d="M134 1319c6,0 6,-9 0,-9 -5,0 -5,9 0,9z"/>
   <path class="fil1" d="M1172 989l0 2c0,3 2,5 4,5 2,0 4,-2 4,-5l0 -2c0,-3 -2,-5 -4,-5 -2,0 -4,2 -4,5z"/>
   <path class="fil1" d="M1394 1086c6,0 6,-9 0,-9 -5,0 -5,9 0,9z"/>
   <path class="fil1" d="M510 926c12,0 12,-20 0,-20 -13,0 -13,20 0,20z"/>
   <path class="fil1" d="M998 1001l3 0c5,0 10,-4 10,-10 0,-5 -4,-9 -10,-9l-3 0c-5,0 -10,4 -10,9 1,6 5,10 10,10z"/>
   <path class="fil1" d="M95 762l0 3c0,5 5,10 10,9 5,0 10,-4 10,-9l0 -3c0,-6 -5,-11 -10,-10 -5,0 -10,4 -10,10z"/>
   <path class="fil1" d="M268 844l0 6c0,8 12,8 12,0l0 -6c0,-8 -12,-8 -12,0z"/>
   <path class="fil1" d="M763 406c7,0 7,-11 0,-11 -8,0 -8,11 0,11z"/>
   <path class="fil2" d="M64 124c1,2 4,3 6,1 2,-1 3,-4 2,-6 -2,-2 -5,-3 -7,-2 -2,2 -3,5 -1,7z"/>
   <path class="fil2" d="M140 180c1,3 4,3 7,2 2,-1 2,-4 1,-7 -1,-2 -4,-2 -6,-1 -3,1 -3,4 -2,6z"/>
   <path class="fil2" d="M541 742c1,2 4,2 7,1 2,-1 2,-4 1,-6 -1,-3 -4,-3 -6,-2 -3,1 -3,4 -2,7z"/>
   <path class="fil2" d="M542 823c2,2 5,3 7,1 2,-1 3,-4 1,-6 -1,-2 -4,-3 -6,-2 -2,2 -3,5 -2,7z"/>
   <path class="fil2" d="M418 816c1,2 4,3 6,2 2,-2 3,-5 2,-7 -2,-2 -5,-3 -7,-1 -2,1 -3,4 -1,6z"/>
   <path class="fil2" d="M195 728c1,2 4,3 6,1 3,-1 3,-4 2,-6 -1,-2 -4,-3 -7,-2 -2,2 -2,5 -1,7z"/>
   <path class="fil2" d="M351 453c1,2 4,3 6,2 3,-2 3,-5 2,-7 -1,-2 -4,-3 -7,-1 -2,1 -2,4 -1,6z"/>
   <path class="fil2" d="M174 170c1,2 4,3 6,1 2,-1 3,-4 2,-6 -2,-2 -5,-3 -7,-2 -2,2 -3,5 -1,7z"/>
   <path class="fil2" d="M961 565c2,3 5,3 7,2 2,-1 3,-4 1,-7 -1,-2 -4,-2 -6,-1 -2,1 -3,4 -2,6z"/>
   <path class="fil2" d="M1296 830c2,2 5,3 7,2 2,-2 3,-5 1,-7 -1,-2 -4,-3 -6,-1 -2,1 -3,4 -2,6z"/>
   <path class="fil2" d="M1258 648c1,2 4,3 6,2 3,-2 3,-5 2,-7 -1,-2 -4,-3 -7,-1 -2,1 -2,4 -1,6z"/>
   <path class="fil2" d="M1348 847c1,2 4,3 6,2 2,-2 3,-5 2,-7 -2,-2 -5,-3 -7,-1 -2,1 -3,4 -1,6z"/>
   <path class="fil2" d="M871 430c2,2 5,3 7,2 2,-2 3,-5 1,-7 -1,-2 -4,-3 -6,-1 -2,1 -3,4 -2,6z"/>
   <path class="fil2" d="M867 975c1,2 4,3 6,2 2,-2 3,-5 2,-7 -2,-2 -5,-3 -7,-1 -2,1 -3,4 -1,6z"/>
   <path class="fil2" d="M617 920c1,2 4,2 6,1 3,-1 3,-4 2,-6 -1,-3 -4,-3 -7,-2 -2,1 -2,4 -1,7z"/>
   <path class="fil2" d="M481 838c1,2 4,3 7,1 2,-1 2,-4 1,-6 -1,-3 -4,-3 -6,-2 -3,2 -3,4 -2,7z"/>
   <path class="fil2" d="M1037 717c1,2 4,3 6,1 2,-1 3,-4 2,-6 -2,-2 -5,-3 -7,-2 -2,2 -3,5 -1,7z"/>
   <path class="fil2" d="M1192 1003c2,2 5,2 7,1 2,-1 3,-4 2,-6 -2,-3 -5,-3 -7,-2 -2,1 -3,4 -2,7z"/>
   <path class="fil2" d="M1388 1238c2,2 5,3 7,2 2,-2 3,-5 1,-7 -1,-2 -4,-3 -6,-1 -2,1 -3,4 -2,6z"/>
   <path class="fil2" d="M1111 1161c2,3 5,3 7,2 2,-2 3,-4 1,-7 -1,-2 -4,-3 -6,-1 -2,1 -3,4 -2,6z"/>
   <path class="fil2" d="M951 899c2,2 5,2 7,1 2,-1 3,-4 1,-6 -1,-3 -4,-3 -6,-2 -2,1 -3,4 -2,7z"/>
   <path class="fil2" d="M872 618c1,3 4,3 6,2 3,-1 3,-4 2,-7 -1,-2 -4,-2 -7,-1 -2,1 -2,4 -1,6z"/>
   <path class="fil2" d="M752 681c2,2 5,3 7,1 2,-1 3,-4 1,-6 -1,-2 -4,-3 -6,-2 -2,2 -3,5 -2,7z"/>
   <path class="fil2" d="M1347 280c1,3 4,3 6,2 2,-2 3,-4 2,-7 -2,-2 -5,-3 -7,-1 -2,1 -3,4 -1,6z"/>
   <path class="fil2" d="M1418 214c1,3 4,3 6,2 2,-1 3,-4 2,-7 -2,-2 -5,-2 -7,-1 -2,1 -3,4 -1,6z"/>
   <path class="fil2" d="M1117 79c1,2 4,3 6,1 3,-1 3,-4 2,-6 -2,-2 -4,-3 -7,-2 -2,2 -3,5 -1,7z"/>
   <path class="fil2" d="M1162 179c1,3 4,3 6,2 2,-2 3,-4 2,-7 -2,-2 -5,-3 -7,-1 -2,1 -3,4 -1,6z"/>
   <path class="fil2" d="M1423 93c1,2 4,3 6,1 2,-1 3,-4 2,-6 -2,-2 -5,-3 -7,-2 -2,2 -3,5 -1,7z"/>
   <path class="fil2" d="M1160 855c2,2 5,3 7,1 2,-1 3,-4 1,-6 -1,-2 -4,-3 -6,-2 -2,2 -3,5 -2,7z"/>
   <path class="fil2" d="M1046 795c2,3 5,3 7,2 2,-2 3,-4 1,-7 -1,-2 -4,-3 -6,-1 -2,1 -3,4 -2,6z"/>
   <path class="fil2" d="M1069 1082c2,2 4,3 7,1 2,-1 3,-4 1,-6 -1,-2 -4,-3 -6,-2 -3,2 -3,5 -2,7z"/>
   <path class="fil2" d="M133 910c1,2 4,3 6,2 3,-2 3,-5 2,-7 -2,-2 -4,-3 -7,-1 -2,1 -3,4 -1,6z"/>
   <path class="fil2" d="M447 1152c1,2 4,3 6,2 3,-2 3,-5 2,-7 -2,-2 -4,-3 -7,-1 -2,1 -3,4 -1,6z"/>
   <path class="fil2" d="M1318 459c1,3 0,6 -2,8 -3,1 -6,0 -8,-3 -1,-3 0,-7 2,-8 3,-1 6,0 8,3z"/>
   <path class="fil2" d="M501 537c-2,3 -5,3 -7,2 -3,-2 -4,-5 -2,-8 1,-2 5,-3 7,-2 3,2 4,5 2,8z"/>
   <path class="fil3" d="M494 705c-2,3 -5,4 -8,2 -2,-2 -3,-5 -1,-8 1,-2 5,-3 7,-1 3,1 4,5 2,7z"/>
   <path class="fil3" d="M766 485c-1,3 -5,4 -7,2 -3,-1 -4,-5 -2,-7 2,-3 5,-4 7,-2 3,1 4,5 2,7z"/>
   <path class="fil2" d="M1472 669c-1,2 -5,3 -7,1 -3,-1 -4,-5 -2,-7 2,-3 5,-3 8,-2 2,2 3,5 1,8z"/>
   <path class="fil3" d="M1801 270c-1,3 -5,3 -7,2 -3,-2 -4,-5 -2,-8 1,-2 5,-3 7,-2 3,2 4,5 2,8z"/>
   <path class="fil3" d="M1143 538c-2,3 -5,4 -8,2 -2,-2 -3,-5 -1,-8 1,-2 4,-3 7,-1 3,1 3,5 2,7z"/>
   <path class="fil3" d="M1200 1037c-1,2 -5,3 -7,2 -3,-2 -4,-5 -2,-8 2,-3 5,-3 8,-2 2,2 3,5 1,8z"/>
   <path class="fil3" d="M2485 1501c-2,3 -5,4 -8,2 -3,-2 -3,-5 -2,-8 2,-2 5,-3 8,-1 2,1 3,5 2,7z"/>
   <path class="fil2" d="M786 712c-2,3 -5,4 -8,2 -3,-2 -3,-5 -2,-8 2,-2 5,-3 8,-1 2,1 3,5 2,7z"/>
   <path class="fil3" d="M354 65c-2,3 -5,4 -8,2 -2,-2 -3,-5 -1,-8 1,-2 5,-3 7,-1 3,1 3,5 2,7z"/>
   <path class="fil3" d="M1777 344c-2,2 -5,3 -8,1 -2,-1 -3,-5 -1,-7 1,-3 4,-4 7,-2 3,2 3,5 2,8z"/>
   <path class="fil3" d="M1748 101c-1,3 -5,3 -7,2 -3,-2 -4,-5 -2,-8 1,-2 5,-3 7,-2 3,2 4,5 2,8z"/>
   <path class="fil3" d="M524 215c-2,3 -5,4 -8,2 -2,-2 -3,-5 -2,-8 2,-2 5,-3 8,-1 2,1 3,5 2,7z"/>
   <path class="fil2" d="M2253 102c-2,2 -5,3 -8,2 -2,-2 -3,-6 -2,-8 2,-3 5,-3 8,-2 3,2 3,5 2,8z"/>
   <path class="fil3" d="M162 544c-2,3 -5,4 -8,2 -2,-1 -3,-5 -2,-7 2,-3 5,-4 8,-2 2,1 3,5 2,7z"/>
   <path class="fil2" d="M73 1907c-1,3 -5,3 -7,2 -3,-2 -3,-5 -2,-8 2,-2 5,-3 8,-2 2,2 3,5 1,8z"/>
   <path class="fil3" d="M2611 641c-2,3 -5,4 -8,2 -3,-2 -3,-5 -2,-8 2,-2 5,-3 8,-1 2,1 3,5 2,7z"/>
   <path class="fil2" d="M775 899c-2,3 -5,4 -8,2 -3,-1 -3,-5 -2,-7 2,-3 5,-4 8,-2 2,1 3,5 2,7z"/>
   <path class="fil3" d="M365 1425c-2,2 -5,3 -8,1 -2,-1 -3,-5 -2,-7 2,-3 5,-4 8,-2 2,2 3,5 2,8z"/>
   <path class="fil3" d="M794 70c-1,3 -5,4 -7,2 -3,-1 -3,-5 -2,-7 2,-3 5,-4 8,-2 2,1 3,5 1,7z"/>
   <path class="fil3" d="M2046 764c-2,3 -5,4 -8,2 -2,-1 -3,-5 -2,-7 2,-3 5,-4 8,-2 3,1 3,5 2,7z"/>
   <path class="fil3" d="M2594 1109c-2,3 -5,3 -8,2 -2,-2 -3,-5 -2,-8 2,-3 5,-3 8,-2 2,2 3,5 2,8z"/>
   <path class="fil3" d="M2561 1808c12,0 22,10 22,22l0 0c0,-12 10,-22 22,-22 -12,-1 -22,-10 -22,-23l0 0c0,13 -10,22 -22,23z"/>
   <path class="fil4" d="M2525 167c-14,0 -26,-12 -26,-27l0 0c0,15 -12,27 -27,27 15,1 27,13 27,28l0 0c0,-15 12,-27 26,-28z"/>
   <path class="fil4" d="M180 1073c28,1 51,24 51,52l0 0c0,-28 23,-51 51,-52 -28,-1 -51,-24 -51,-53l0 0c0,29 -23,52 -51,53z"/>
   <g>
    <path class="fil5" d="M2279 1490l0 35 -34 0 0 -35 34 0zm-7 27l0 -19 -19 0 0 19 19 0zm-56 -34l0 94 -13 0 0 14 -22 0 0 14 -21 0 0 14 -15 0 0 14 -23 0 0 -14 -15 0 0 -14 -14 0 0 -29 -19 0 0 90 14 0 0 15 15 0 0 14 14 0 0 14 14 0 0 15 14 0 0 12 0 2 0 7 0 7 0 12 0 9 0 8 34 0 0 -17 -19 0 0 -12 19 0 0 -14 14 0 0 -15 9 0 0 15 14 0 0 26 0 9 0 8 33 0 0 -17 -18 0 0 -26 0 -28 0 -1 19 0 0 -14 14 0 0 -22 13 0 0 -56 15 0 0 19 17 0 0 -33 -9 0 -8 0 -15 0 0 -22 59 0 0 -14 28 0 0 -84 -14 0 0 -14 -119 0 0 14 -15 0z"/>
    <path class="fil6" d="M2219 1879c-68,0 -132,-27 -180,-75 -48,-47 -74,-111 -74,-179 0,-68 26,-131 74,-179 48,-48 112,-75 180,-75 68,0 131,27 179,75 48,48 74,111 74,179 0,68 -26,132 -74,179 -48,48 -111,75 -179,75zm-168 -422c-45,45 -70,105 -70,168 0,61 23,118 64,163l336 -337c-44,-41 -101,-64 -162,-64 -64,0 -123,25 -168,70zm341 6l-336 336c45,41 102,64 163,64 63,0 123,-25 168,-70 45,-45 70,-104 70,-168 0,-61 -23,-118 -65,-162z"/>
   </g>
   <g>
    <path class="fil7" d="M1533 1763c0,2 2,4 8,5 4,1 7,2 9,3 3,2 4,5 4,9 0,3 -2,6 -5,8 -2,2 -5,3 -9,3 -3,0 -6,-1 -8,-3 -3,-1 -5,-4 -6,-6l6 -3c1,4 4,6 8,6 2,0 4,-1 5,-2 2,-1 3,-2 3,-3 0,-2 -1,-4 -3,-5 -1,0 -3,-1 -6,-1 -8,-2 -12,-5 -12,-12 0,-3 1,-5 4,-7 3,-2 6,-3 9,-3 7,0 11,3 13,8l-5 3c-2,-4 -4,-5 -8,-5 -2,0 -4,0 -5,1 -1,1 -2,2 -2,4zm51 25c-5,2 -10,3 -14,2 -5,-1 -7,-4 -7,-9l0 -18 5 0 0 18c0,2 2,4 4,4 2,1 4,1 6,0l0 -22 6 0 0 25zm21 -30c-4,0 -6,2 -6,4l0 5 5 0 0 6 -5 0 0 17 -6 0 0 -28c0,-3 1,-5 4,-7 2,-2 4,-3 8,-2l0 5zm17 0c-4,0 -5,2 -5,4l0 5 5 0 0 6 -5 0 0 17 -6 0 0 -28c0,-3 1,-5 3,-7 2,-2 5,-3 8,-2l0 5zm23 14c0,-2 -1,-3 -2,-3 -1,-1 -2,-1 -3,-1 -2,0 -3,0 -4,1 -1,0 -1,1 -1,3l0 2 10 0 0 -2zm5 13c-3,4 -6,6 -10,6 -3,0 -6,-1 -8,-3 -2,-2 -3,-4 -3,-7l0 -9c0,-3 1,-6 3,-7 2,-2 5,-3 8,-3 3,0 5,1 7,3 2,1 3,4 3,7l0 7 -15 0 0 2c0,1 0,2 1,3 1,1 2,1 3,1 3,0 5,-1 6,-3l5 3zm18 -22c0,0 1,0 2,0 1,0 2,0 3,0l0 5c-1,-1 -3,0 -5,0 -2,1 -3,2 -3,4l0 18 -5 0 0 -18c0,-4 1,-7 5,-8 0,-1 1,-1 2,-1l1 0zm12 -7c0,-1 1,-1 1,-2 1,-1 2,-1 3,-1 1,0 2,0 3,1 0,1 1,1 1,2 0,1 -1,2 -1,3 -1,1 -2,1 -3,1 -1,0 -2,0 -3,-1 0,-1 -1,-2 -1,-3zm1 7l0 27 6 0 0 -27 -6 0zm16 2c4,-3 9,-3 13,-2 5,1 8,4 8,9l0 18 -6 0 0 -18c0,-2 -1,-3 -4,-4 -2,-1 -4,0 -5,1l0 21 -6 0 0 -25zm35 27c1,2 4,3 7,3 3,0 5,-2 5,-6 -4,2 -7,2 -11,0 -3,-1 -5,-4 -5,-8l0 -9c0,-5 3,-8 8,-10 5,-1 9,0 13,3l0 25c0,3 -1,5 -3,7 -1,1 -3,2 -6,3 -2,0 -4,0 -7,-1 -2,-1 -4,-2 -5,-4l4 -3zm11 -24c-1,-1 -3,-1 -6,0 -2,0 -3,1 -3,4l0 9c0,2 1,3 3,4 3,0 5,0 6,-1l0 -16zm16 18c0,-1 0,-2 1,-2 0,-1 1,-1 2,-1 1,0 2,0 3,1 1,0 1,1 1,2 0,2 0,2 -1,3 -1,1 -2,1 -3,1 -1,0 -2,0 -2,-1 -1,-1 -1,-1 -1,-3zm16 0c0,-1 1,-2 1,-2 1,-1 2,-1 3,-1 1,0 2,0 3,1 1,0 1,1 1,2 0,2 0,2 -1,3 -1,1 -2,1 -3,1 -1,0 -2,0 -3,-1 0,-1 -1,-1 -1,-3zm17 0c0,-1 0,-2 1,-2 1,-1 2,-1 3,-1 1,0 2,0 3,1 0,0 1,1 1,2 0,2 -1,2 -1,3 -1,1 -2,1 -3,1 -1,0 -2,0 -3,-1 -1,-1 -1,-1 -1,-3z"/>
    <g>
     <path class="fil5" d="M1767 1586l-62 0 0 25 62 0 0 -25zm-11 66l-54 -31 -13 22 54 31 13 -22zm-43 52l-31 -53 -22 13 31 53 22 -13zm-63 24l0 -62 -26 0 0 62 26 0zm-67 -11l31 -53 -22 -13 -31 53 22 13zm-52 -43l53 -31 -12 -22 -54 31 13 22zm160 -194l-31 53 22 13 31 -54 -22 -12zm52 42l-54 31 13 22 54 -31 -13 -22z"/>
     <polygon class="fil8" points="1624,1468 1624,1530 1650,1530 1650,1468 "/>
     <polygon class="fil9" points="1561,1492 1592,1546 1614,1533 1583,1480 "/>
     <polygon class="fil9" points="1518,1544 1572,1575 1584,1553 1531,1522 "/>
     <polygon class="fil9" points="1507,1586 1507,1611 1569,1611 1569,1586 "/>
    </g>
    <path class="fil6" d="M1637 1879c-68,0 -132,-27 -180,-75 -47,-47 -74,-111 -74,-179 0,-68 27,-131 74,-179 48,-48 112,-75 180,-75 68,0 131,27 179,75 48,48 75,111 75,179 0,68 -27,132 -75,179 -48,48 -111,75 -179,75zm-168 -422c-45,45 -70,105 -70,168 0,61 23,118 64,163l336 -337c-44,-41 -101,-64 -162,-64 -64,0 -123,25 -168,70zm341 6l-336 336c45,41 102,64 163,64 63,0 123,-25 168,-70 45,-45 70,-104 70,-168 0,-61 -23,-118 -65,-162z"/>
   </g>
   <g>
    <path class="fil7" d="M2136 1068l11 0 0 24 -11 0 0 36 -25 0 0 -36 -64 0 -15 -19 80 -100 24 0 0 95zm-24 -41c2,-18 4,-27 4,-27l-4 0c-8,15 -12,22 -13,23l-34 45 47 0 0 -41zm76 56c0,8 3,14 11,18 5,3 12,5 21,5 8,0 15,-2 21,-5 7,-4 10,-10 10,-18l0 -62c0,-8 -3,-14 -10,-18 -6,-3 -13,-5 -21,-5 -9,0 -16,2 -21,5 -7,4 -11,10 -11,18l0 62zm32 47c-15,0 -28,-4 -38,-11 -13,-9 -19,-21 -19,-36l0 -62c0,-16 6,-27 19,-36 10,-7 23,-11 38,-11 15,0 27,3 38,11 12,9 18,20 18,36l0 62c0,15 -6,27 -18,36 -11,7 -23,11 -38,11zm174 -62l11 0 0 24 -11 0 0 36 -25 0 0 -36 -64 0 -15 -19 80 -100 24 0 0 95zm-24 -41c2,-18 3,-27 4,-27l-4 0c-8,15 -12,22 -13,23l-34 45 46 0 1 -41z"/>
    <path class="fil6" d="M2219 1305c-68,0 -132,-26 -180,-74 -48,-48 -74,-112 -74,-179 0,-68 26,-132 74,-180 48,-48 112,-74 180,-74 68,0 131,26 179,74 48,48 74,112 74,180 0,67 -26,131 -74,179 -48,48 -111,74 -179,74zm-168 -422c-45,45 -70,105 -70,169 0,60 23,118 64,162l336 -336c-44,-42 -101,-64 -162,-64 -64,0 -123,24 -168,69zm341 6l-336 336c45,42 102,64 163,64 63,0 123,-24 168,-69 45,-45 70,-105 70,-168 0,-61 -23,-119 -65,-163z"/>
   </g>
   <path class="fil7" d="M1426 2003l0 42 -12 0 0 -75 13 0 26 44 8 15 0 0 -1 -16 0 -43 12 0 0 75 -14 0 -26 -44 -7 -14 -1 0 2 16zm87 -3c-2,0 -5,1 -6,2 -3,1 -4,3 -4,6l0 19c0,2 1,4 4,6 2,1 4,2 6,2 3,0 5,-1 7,-2 2,-2 3,-4 3,-6l0 -19c0,-3 -1,-5 -3,-6 -2,-1 -4,-2 -7,-2zm-21 8c0,-6 2,-11 7,-15 4,-3 9,-4 14,-4 6,0 11,1 15,4 5,4 7,9 7,15l0 19c0,6 -2,11 -7,14 -4,3 -9,5 -15,5 -6,0 -10,-2 -14,-5 -5,-3 -7,-8 -7,-14l0 -19zm91 -38l12 0 0 75 -12 0 0 -75zm35 24c9,-5 18,-6 27,-4 11,2 16,9 16,19l0 36 -12 0 0 -36c0,-5 -3,-7 -8,-9 -4,-1 -8,0 -11,2l0 43 -12 0 0 -51zm86 51c-7,1 -12,0 -17,-3 -4,-3 -7,-8 -7,-16l0 -56 12 0 0 20 10 0 0 12 -10 0 0 24c0,4 1,7 3,8 2,1 5,1 9,1l0 10zm45 -37c0,-3 -1,-5 -3,-6 -2,-1 -5,-2 -7,-2 -3,0 -5,1 -7,2 -2,1 -3,3 -3,6l0 5 20 0 0 -5zm9 27c-4,7 -10,11 -19,11 -6,0 -11,-2 -15,-5 -5,-3 -7,-8 -7,-14l0 -19c0,-6 2,-11 7,-14 4,-3 9,-5 15,-5 5,0 10,2 14,5 5,3 7,8 7,14l0 15 -31 0 0 4c0,2 1,4 2,5 2,2 4,3 6,3 6,1 9,-1 12,-6l9 6zm36 -45c1,0 2,0 5,0 2,0 4,0 6,0l0 10c-4,-1 -7,0 -10,1 -4,2 -6,4 -6,8l0 36 -11 0 0 -37c0,-7 3,-13 10,-16 1,-1 3,-1 5,-2l1 0zm27 4c9,-5 19,-6 28,-4 10,2 15,9 15,19l0 36 -11 0 0 -36c0,-5 -3,-7 -8,-9 -5,-1 -8,0 -12,2l0 43 -12 0 0 -51zm94 14c0,-3 -1,-5 -4,-6 -2,-1 -4,-2 -7,-2 -2,0 -5,1 -6,2 -3,1 -4,3 -3,6l0 5 20 0 0 -5zm9 27c-4,7 -11,11 -20,11 -5,0 -10,-2 -14,-5 -5,-3 -7,-8 -7,-14l0 -19c0,-6 2,-11 7,-14 4,-3 9,-5 14,-5 6,0 11,2 15,5 5,3 7,8 7,14l0 15 -31 0 0 4c-1,2 0,4 2,5 1,2 3,3 6,3 5,1 9,-1 11,-6l10 6zm43 10c-7,1 -13,0 -17,-3 -5,-3 -7,-8 -7,-16l0 -56 12 0 0 20 10 0 0 12 -10 0 0 24c0,4 1,7 3,8 2,1 5,1 9,1l0 10zm104 0l-15 0 -23 -29 -9 0 0 29 -12 0 0 -75 29 0c8,0 14,2 19,5 5,4 7,10 7,18 0,13 -6,21 -19,22l23 30zm-30 -40c9,0 14,-4 14,-12 0,-7 -5,-11 -14,-11l-17 0 0 23 17 0zm73 3c0,-3 -1,-5 -3,-6 -2,-1 -4,-2 -7,-2 -3,0 -5,1 -7,2 -2,1 -3,3 -3,6l0 5 20 0 0 -5zm10 27c-4,7 -11,11 -20,11 -6,0 -11,-2 -15,-5 -4,-3 -6,-8 -6,-14l0 -19c0,-6 2,-11 6,-14 4,-3 9,-5 15,-5 6,0 11,2 15,5 4,3 7,8 7,14l0 15 -32 0 0 4c0,2 1,4 3,5 1,2 3,3 6,3 5,1 9,-1 11,-6l10 6zm61 28l-11 0 0 -20c-7,3 -14,3 -21,0 -7,-3 -11,-9 -11,-16l0 -19c0,-10 5,-17 16,-19 9,-1 18,0 27,4l0 70zm-11 -62c-5,-2 -9,-3 -13,-2 -5,1 -7,4 -7,9l0 19c0,4 2,6 7,7 4,1 8,1 13,0l0 -33zm73 40c-11,5 -20,6 -29,4 -9,-2 -14,-8 -14,-18l0 -37 11 0 0 37c1,4 3,7 8,8 4,1 8,1 12,-1l0 -44 12 0 0 51zm17 -64c0,-2 1,-4 2,-5 1,-2 3,-2 5,-2 2,0 4,0 5,2 2,1 3,3 3,5 0,2 -1,4 -3,5 -1,2 -3,3 -5,3 -2,0 -4,-1 -5,-3 -1,-1 -2,-3 -2,-5zm2 13l0 55 11 0 0 -55 -11 0zm45 0c1,0 3,0 5,0 2,0 4,0 6,0l0 10c-3,-1 -6,0 -10,1 -3,2 -5,4 -5,8l0 36 -12 0 0 -37c0,-7 3,-13 10,-16 2,-1 3,-1 5,-2l1 0zm54 18c0,-3 -1,-5 -3,-6 -2,-1 -4,-2 -7,-2 -3,0 -5,1 -7,2 -2,1 -3,3 -3,6l0 5 20 0 0 -5zm10 27c-5,7 -11,11 -20,11 -6,0 -11,-2 -15,-5 -4,-3 -7,-8 -7,-14l0 -19c0,-6 3,-11 7,-14 4,-3 9,-5 15,-5 6,0 11,2 15,5 4,3 6,8 6,14l0 15 -31 0 0 4c0,2 1,4 3,5 1,2 3,3 5,3 6,1 10,-1 12,-6l10 6zm62 -65l0 72c-10,4 -19,6 -27,4 -10,-2 -16,-8 -17,-18l0 -20c0,-8 4,-13 12,-17 7,-3 13,-3 20,0l0 -21 12 0zm-12 31c-4,-2 -8,-3 -12,-2 -5,2 -8,4 -8,9l0 20c0,5 3,7 8,9 4,1 8,0 12,-2l0 -34zm46 26l-12 0 0 -57 12 0 0 57zm-14 11c0,-2 1,-4 2,-5 2,-2 4,-2 6,-2 2,0 4,0 5,2 2,1 2,3 2,5 0,2 0,4 -2,6 -1,1 -3,2 -5,2 -2,0 -4,-1 -6,-2 -1,-2 -2,-3 -2,-6z"/>
   <path class="fil10" d="M1423 621l-17 0 0 -108 42 0c11,0 21,4 28,11 6,7 9,15 9,25 0,9 -3,18 -9,24 -7,7 -16,11 -28,11l-25 0 0 37zm25 -53c6,0 11,-2 15,-6 3,-4 5,-8 5,-13 0,-5 -2,-9 -5,-13 -4,-3 -9,-5 -15,-5l-25 0 0 37 25 0zm94 53l-18 0 -32 -108 19 0 19 68c0,0 1,7 3,20l1 0 4 -21c1,-7 4,-16 8,-26 4,-11 7,-19 9,-25l14 0 17 51c0,0 2,7 5,21l1 0 3 -21 19 -67 18 0 -32 108 -18 0 -17 -53 -3 -13 -1 0c-1,9 -2,13 -2,13l-17 53zm126 -108l19 0 39 108 -19 0 -10 -28 -39 0c-1,4 -3,8 -5,14l-5 14 -19 0 39 -108zm14 35l-4 -17 -2 0 -4 17 -8 27 26 0 -8 -27zm169 -35l0 18 -33 0 0 90 -17 0 0 -90 -33 0 0 -18 83 0zm36 55c0,-4 -1,-7 -4,-9 -3,-2 -7,-2 -11,-2 -4,0 -7,0 -10,2 -3,3 -4,5 -4,9l0 8 29 0 0 -8zm14 39c-6,10 -16,16 -29,16 -8,0 -15,-2 -21,-7 -7,-5 -10,-12 -10,-20l0 -28c0,-9 3,-16 10,-20 6,-5 13,-7 21,-7 9,0 16,2 22,7 6,4 9,11 9,20l0 21 -45 0 0 7c0,3 1,5 4,8 2,1 5,3 8,3 8,1 14,-2 17,-8l14 8zm15 -39c0,-8 3,-15 10,-20 5,-5 12,-7 21,-7 7,0 13,2 18,5 6,4 11,9 13,16l-16 6c-2,-7 -7,-11 -15,-10 -9,0 -14,4 -14,10l0 27c0,3 2,6 4,8 3,2 6,3 10,3 8,0 13,-3 15,-10l16 6c-2,7 -6,12 -13,16 -5,3 -11,4 -18,4 -9,0 -16,-2 -21,-6 -7,-5 -10,-12 -10,-21l0 -27zm89 -55l0 32c10,-4 20,-5 29,0 11,4 16,12 16,25l0 51 -17 0 0 -52c0,-6 -3,-10 -11,-11 -6,-2 -12,-1 -17,3l0 60 -17 0 0 -108 17 0zm64 34c13,-6 26,-8 39,-5 15,4 23,13 23,27l0 52 -17 0 0 -52c0,-6 -4,-10 -11,-12 -7,-1 -13,-1 -17,2l0 62 -17 0 0 -74zm109 10c-3,0 -7,1 -9,2 -3,2 -5,5 -5,9l0 27c0,4 2,7 5,9 2,2 6,3 9,3 4,0 7,-1 10,-3 3,-2 5,-5 5,-9l0 -27c0,-4 -2,-7 -5,-9 -3,-1 -6,-2 -10,-2zm-31 11c0,-9 3,-16 10,-21 6,-4 13,-7 21,-7 9,0 16,3 22,7 6,5 9,12 9,21l0 27c0,9 -3,16 -9,21 -6,4 -13,7 -22,7 -8,0 -15,-3 -21,-7 -7,-5 -10,-12 -10,-21l0 -27zm109 54c-10,0 -17,-3 -23,-7 -5,-5 -8,-12 -8,-20l0 -82 17 0 0 82c0,7 5,11 14,11l0 16zm39 -65c-4,0 -7,1 -10,2 -3,2 -5,5 -5,9l0 27c0,4 2,7 5,9 3,2 6,3 10,3 4,0 7,-1 10,-3 3,-2 4,-5 4,-9l0 -27c0,-4 -1,-7 -4,-9 -3,-1 -6,-2 -10,-2zm-31 11c0,-9 3,-16 9,-21 6,-4 14,-7 22,-7 8,0 15,3 21,7 7,5 10,12 10,21l0 27c0,9 -3,16 -10,21 -6,4 -13,7 -21,7 -9,0 -16,-3 -22,-7 -6,-5 -9,-12 -9,-21l0 -27zm87 58c5,7 12,10 21,10 9,-1 14,-6 14,-16 -11,4 -21,4 -30,-1 -11,-5 -16,-13 -16,-24l0 -27c0,-15 8,-24 23,-27 15,-3 28,-1 39,7l0 73c0,9 -3,15 -8,20 -4,5 -10,8 -17,9 -7,1 -14,0 -21,-2 -7,-3 -12,-7 -15,-12l10 -10zm34 -67c-5,-4 -10,-5 -17,-3 -7,1 -11,5 -11,12l0 27c0,6 4,10 11,12 7,1 12,0 17,-3l0 -45zm96 -17l0 79c0,9 -3,15 -8,20 -5,5 -11,8 -18,9 -8,1 -14,0 -21,-2 -7,-3 -12,-7 -16,-12l10 -10c5,7 13,10 22,9 11,-1 15,-6 15,-15 -11,4 -21,4 -31,-1 -11,-5 -17,-13 -17,-24l0 -53 17 0 0 53c1,6 4,10 12,12 7,1 13,0 18,-3l0 -62 17 0z"/>
   <path class="fil11" d="M998 478c0,38 31,69 69,69 38,0 68,-31 68,-69 0,-38 -30,-68 -68,-68 -38,0 -69,30 -69,68z"/>
   <path class="fil7" d="M1120 522c10,-12 15,-27 15,-44 0,-38 -30,-68 -68,-68 -21,0 -40,9 -53,24 0,0 52,-19 84,12 32,32 22,76 22,76z"/>
   <circle class="fil5" cx="548" cy="797" r="297"/>
   <path class="fil12" d="M605 881l0 56 -225 0 0 -56 225 0zm-225 -168l0 -56c112,0 225,0 337,0l-56 56c-94,0 -187,0 -281,0zm337 56c0,56 0,112 0,168l-56 0 0 -112 0 0 -281 0 0 -56c112,0 225,0 337,0z"/>
   <path class="fil13" d="M624 1350c-3,0 -7,-1 -10,-2 -4,-1 -6,-3 -9,-7 -1,2 -3,4 -5,5 -2,1 -4,2 -6,3 -2,0 -4,1 -7,1 -2,0 -5,0 -7,0l-77 0c-7,0 -13,-1 -18,-2 -5,-1 -8,-2 -11,-4 -3,-3 -5,-5 -6,-9 -1,-4 -2,-8 -2,-13l0 -29 23 0 0 26c0,2 0,4 1,6 1,1 2,2 3,3 2,1 4,1 6,1 3,1 6,1 10,1l67 0c4,0 7,-1 9,-2 1,-1 2,-4 2,-8l0 -40 23 0 0 38c0,4 1,7 3,9 1,2 5,3 11,3 1,0 2,0 3,0 0,0 1,1 2,1 0,1 1,2 1,3 1,1 1,3 1,5 0,4 -1,7 -2,9 -1,1 -3,2 -5,2zm657 -108l-5 0 0 721 5 0 0 -353 0 -368zm-390 523c-1,7 -2,12 -4,16 -2,4 -5,7 -9,10 -4,2 -8,4 -14,5 -5,1 -11,1 -17,1l-7 0 0 -12 5 0c5,0 9,-1 13,-1 4,0 8,-1 11,-3 3,-1 5,-3 7,-6 1,-2 2,-5 2,-10l-17 0c-4,0 -8,0 -12,-1 -3,-1 -6,-2 -9,-4 -2,-3 -5,-5 -6,-9 -1,-3 -2,-7 -2,-12 0,-4 0,-9 2,-13 1,-4 3,-7 6,-10 2,-3 6,-6 9,-8 4,-1 8,-2 13,-2 5,0 10,1 14,2 3,2 6,5 9,8 2,4 4,8 5,13 1,5 1,10 1,17l0 7 11 0c4,0 6,2 6,6 0,2 -1,4 -1,5 -1,1 -3,1 -5,1l-11 0zm-47 -28c0,6 2,9 5,12 3,2 7,4 13,4l16 0 0 -10c0,-8 -1,-14 -4,-19 -2,-4 -7,-6 -13,-6 -3,0 -5,0 -7,1 -3,2 -4,3 -6,5 -1,2 -2,4 -3,6 -1,3 -1,5 -1,7zm58 28c-4,0 -6,-2 -6,-6 0,-2 0,-4 1,-5 1,-1 3,-1 5,-1l24 0 0 -97 12 0 0 109 -36 0zm112 0c-1,7 -2,12 -4,16 -2,4 -5,7 -9,10 -4,2 -8,4 -14,5 -5,1 -11,1 -17,1l-7 0 0 -12 5 0c5,0 9,-1 13,-1 4,0 8,-1 11,-3 3,-1 5,-3 7,-6 1,-2 2,-5 2,-10l-17 0c-4,0 -8,0 -12,-1 -3,-1 -6,-2 -9,-4 -2,-3 -5,-5 -6,-9 -1,-3 -2,-7 -2,-12 0,-4 0,-9 2,-13 1,-4 3,-7 6,-10 2,-3 6,-6 9,-8 4,-1 8,-2 13,-2 5,0 10,1 14,2 3,2 6,5 9,8 2,4 4,8 5,13 1,5 1,10 1,17l0 7 11 0c4,0 6,2 6,6 0,2 -1,4 -1,5 -1,1 -3,1 -5,1l-11 0zm-47 -28c0,6 2,9 5,12 3,2 7,4 13,4l16 0 0 -10c0,-8 -1,-14 -4,-19 -2,-4 -7,-6 -13,-6 -3,0 -5,0 -7,1 -3,2 -4,3 -6,5 -1,2 -2,4 -3,6 -1,3 -1,5 -1,7zm58 28c-4,0 -6,-2 -6,-6 0,-2 0,-4 1,-5 1,-1 3,-1 5,-1l10 0c2,0 5,0 6,-1 2,0 4,0 5,-1 1,-1 2,-2 2,-3 1,-2 1,-4 1,-6l0 -36 13 0 0 30c0,2 0,5 0,7 1,2 1,4 2,5 1,1 3,3 4,3 2,1 4,2 7,2 4,0 6,2 6,6 0,2 0,4 -1,5 -1,1 -3,1 -5,1 -4,0 -7,-1 -10,-2 -2,-2 -4,-5 -5,-8 -1,5 -4,7 -8,9 -4,1 -9,1 -15,1l-12 0zm23 -84c0,-3 1,-5 2,-6 2,-2 4,-2 6,-2 2,0 4,0 6,2 1,1 2,3 2,6 0,2 -1,4 -2,5 -2,2 -4,3 -6,3 -2,0 -4,-1 -6,-3 -1,-1 -2,-3 -2,-5zm27 84c-4,0 -6,-2 -6,-6 0,-2 0,-4 1,-5 1,-1 3,-1 5,-1l34 0c6,0 10,-1 12,-3 3,-2 4,-4 4,-7 0,-3 -1,-6 -3,-9 -2,-4 -6,-7 -10,-11 -4,-3 -8,-7 -14,-10 -5,-4 -11,-7 -17,-9 0,-2 0,-3 1,-4 0,-2 0,-3 1,-4 0,-1 1,-2 1,-3 1,-1 1,-1 2,-1l57 -25 0 13 -45 20c11,5 19,11 26,17 6,7 10,13 13,19 1,4 2,6 3,9 1,2 2,3 4,5 1,1 2,2 4,2 1,0 3,1 5,1 4,0 6,2 6,6 0,2 0,4 -1,5 -1,1 -3,1 -5,1 -2,0 -4,0 -6,0 -2,0 -3,-1 -5,-2 -1,0 -3,-2 -4,-3 -2,-2 -3,-4 -4,-7l-1 0c-2,5 -5,8 -10,10 -4,2 -10,2 -16,2l-32 0zm78 0c-4,0 -6,-2 -6,-6 0,-2 0,-4 1,-5 1,-1 3,-1 5,-1l24 0 0 -47 12 0 0 59 -36 0zm10 -84c0,-3 1,-5 3,-6 1,-2 3,-2 5,-2 3,0 5,0 6,2 2,1 3,3 3,6 0,2 -1,4 -3,5 -1,2 -3,3 -6,3 -2,0 -4,-1 -5,-3 -2,-1 -3,-3 -3,-5zm20 0c0,-3 1,-5 3,-6 1,-2 3,-2 5,-2 3,0 4,0 6,2 2,1 2,3 2,6 0,2 0,4 -2,5 -2,2 -3,3 -6,3 -2,0 -4,-1 -5,-3 -2,-1 -3,-3 -3,-5zm-854 45l0 40 -12 0 0 -110 42 0c12,0 21,4 28,11 6,7 9,15 9,24 0,10 -3,18 -9,24 -7,8 -16,11 -28,11l-30 0zm30 -12c8,0 14,-2 19,-7 4,-4 6,-10 6,-16 0,-6 -2,-11 -7,-15 -4,-5 -10,-7 -18,-7l-30 0 0 45 30 0zm119 -44l26 81 27 -95 13 0 -32 110 -16 0 -23 -74 -24 74 -15 0 -32 -110 13 0 26 95 26 -81 11 0zm96 -14l15 0 40 110 -13 0 -13 -35 -43 0 -13 35 -13 0 40 -110zm25 62l-18 -48 -17 48 35 0zm-86 203l-13 0 0 -82 13 0 0 82zm-16 20c0,-2 1,-5 3,-6 2,-2 4,-3 6,-3 3,0 5,1 7,3 2,1 2,4 2,6 0,3 0,5 -2,7 -2,1 -4,2 -7,2 -2,0 -4,-1 -6,-2 -2,-2 -3,-4 -3,-7zm102 7c-5,0 -8,0 -11,-2 -3,-2 -6,-5 -9,-10 -1,3 -2,5 -4,7 -2,2 -4,3 -6,4 -2,0 -4,1 -7,1 -2,0 -5,0 -7,0l-24 0 0 -12 28 0c4,0 7,-1 10,-2 2,-1 3,-3 3,-5 0,-2 0,-3 -1,-5 -1,-2 -3,-5 -4,-7l-16 -24 11 -7 19 30c2,4 4,7 5,9 2,3 3,5 4,6 2,2 3,3 4,4 2,0 3,1 5,1 4,0 6,2 6,6 0,2 -1,4 -2,5 -1,1 -2,1 -4,1zm0 0c-5,0 -7,-2 -7,-6 0,-2 1,-4 2,-5 1,-1 2,-1 5,-1l22 0c4,0 6,2 6,6 0,2 0,4 -1,5 -1,1 -3,1 -5,1l-22 0zm22 0c-4,0 -6,-2 -6,-6 0,-2 1,-4 2,-5 0,-1 2,-1 4,-1l23 0c4,0 6,2 6,6 0,2 0,4 -1,5 -1,1 -3,1 -5,1l-23 0zm23 0c-4,0 -6,-2 -6,-6 0,-2 0,-4 1,-5 1,-1 3,-1 5,-1l24 0 0 -47 12 0 0 59 -36 0zm6 24c0,-3 1,-5 3,-6 1,-2 3,-3 5,-3 3,0 4,1 6,3 2,1 2,3 2,6 0,2 0,4 -2,5 -2,2 -3,3 -6,3 -2,0 -4,-1 -5,-3 -2,-1 -3,-3 -3,-5zm20 0c0,-3 1,-5 2,-6 2,-2 4,-3 6,-3 2,0 4,1 6,3 2,1 2,3 2,6 0,2 0,4 -2,5 -2,2 -4,3 -6,3 -2,0 -4,-1 -6,-3 -1,-1 -2,-3 -2,-5zm69 -24c-4,0 -6,0 -9,-2 -2,-1 -4,-3 -5,-5 0,7 0,13 -1,18 -1,5 -3,10 -5,13 -2,3 -6,5 -10,6 -4,2 -10,2 -17,2l0 -12c5,0 9,-1 12,-2 3,-1 5,-3 6,-5 2,-2 2,-6 3,-9 0,-4 0,-9 0,-14l0 -41 12 0 0 22c0,5 1,9 3,12 2,3 6,5 11,5 4,0 6,2 6,6 0,2 -1,4 -2,5 -1,1 -2,1 -4,1zm0 0c-4,0 -6,-2 -6,-6 0,-2 0,-4 1,-5 1,-1 2,-1 5,-1l10 0c2,0 4,0 6,-1 2,0 3,0 5,-1 1,-1 2,-2 2,-3 1,-2 1,-4 1,-6l0 -36 13 0 0 30c0,2 0,5 0,7 0,2 1,4 2,5 1,1 3,3 4,3 2,1 4,2 7,2 4,0 6,2 6,6 0,2 0,4 -1,5 -1,1 -3,1 -5,1 -4,0 -7,-1 -10,-2 -2,-2 -4,-5 -5,-8 -2,5 -4,7 -8,9 -4,1 -9,1 -15,1l-12 0zm19 23c0,-2 1,-4 3,-6 1,-1 3,-2 6,-2 2,0 4,1 5,2 2,2 3,4 3,6 0,2 -1,4 -3,6 -1,2 -3,2 -5,2 -3,0 -5,0 -6,-2 -2,-2 -3,-4 -3,-6zm31 -23c-4,0 -6,-2 -6,-6 0,-2 0,-4 1,-5 1,-1 3,-1 5,-1l24 0 0 -47 12 0 0 59 -36 0zm19 23c0,-2 1,-4 3,-6 1,-1 3,-2 5,-2 3,0 5,1 6,2 2,2 3,4 3,6 0,2 -1,4 -3,6 -1,2 -3,2 -6,2 -2,0 -4,0 -5,-2 -2,-2 -3,-4 -3,-6zm195 -23l-93 0c-6,0 -11,0 -15,-1 -4,-1 -7,-2 -10,-4 -2,-2 -4,-4 -5,-7 -1,-2 -1,-6 -1,-10l0 -24 12 0 0 19c0,4 1,6 1,8 1,2 2,3 4,4 2,1 5,2 8,2 3,1 7,1 12,1l74 0 0 -47 13 0 0 59zm-80 -76c0,-2 1,-4 3,-5 1,-2 3,-3 6,-3 2,0 4,1 5,3 2,1 3,3 3,5 0,3 -1,5 -3,6 -1,2 -3,3 -5,3 -3,0 -5,-1 -6,-3 -2,-1 -3,-3 -3,-6zm20 0c0,-2 1,-4 3,-5 1,-2 3,-3 5,-3 3,0 5,1 6,3 2,1 3,3 3,5 0,3 -1,5 -3,6 -1,2 -3,3 -6,3 -2,0 -4,-1 -5,-3 -2,-1 -3,-3 -3,-6zm142 76c-4,0 -8,0 -11,-2 -2,-2 -5,-5 -8,-10 -1,3 -3,5 -5,7 -1,2 -3,3 -6,4 -2,0 -4,1 -7,1 -2,0 -4,0 -7,0l-23 0 0 -12 27 0c5,0 8,-1 10,-2 2,-1 4,-3 4,-5 0,-2 -1,-3 -2,-5 -1,-2 -2,-5 -4,-7l-16 -24 12 -7 18 30c2,4 4,7 6,9 1,3 3,5 4,6 1,2 3,3 4,4 1,0 3,1 4,1 4,0 6,2 6,6 0,2 0,4 -1,5 -1,1 -3,1 -5,1zm-50 -84c0,-3 1,-5 3,-6 1,-2 3,-2 5,-2 3,0 5,0 6,2 2,1 3,3 3,6 0,2 -1,4 -3,5 -1,2 -3,3 -6,3 -2,0 -4,-1 -5,-3 -2,-1 -3,-3 -3,-5zm50 84c-4,0 -6,-2 -6,-6 0,-2 0,-4 1,-5 1,-1 3,-1 5,-1l23 0c4,0 6,2 6,6 0,2 -1,4 -2,5 -1,1 -2,1 -4,1l-23 0zm23 0c-4,0 -7,-2 -7,-6 0,-2 1,-4 2,-5 1,-1 2,-1 5,-1l22 0c4,0 6,2 6,6 0,2 0,4 -1,5 -1,1 -3,1 -5,1l-22 0zm22 0c-4,0 -6,-2 -6,-6 0,-2 1,-4 2,-5 1,-1 2,-1 4,-1l23 0c4,0 6,2 6,6 0,2 0,4 -1,5 -1,1 -3,1 -5,1l-23 0zm23 0c-4,0 -6,-2 -6,-6 0,-2 0,-4 1,-5 1,-1 3,-1 5,-1l24 0 0 -97 12 0 0 109 -36 0zm-627 -543c0,-3 2,-6 4,-9 3,-2 6,-3 9,-3 3,0 6,1 9,3 2,3 3,6 3,9 0,4 -1,6 -3,9 -3,2 -6,4 -9,4 -3,0 -6,-2 -9,-4 -2,-3 -4,-5 -4,-9zm-14 -25c0,-4 1,-7 4,-9 2,-3 5,-4 9,-4 3,0 6,1 8,4 3,2 4,5 4,9 0,3 -1,6 -4,8 -2,3 -5,4 -8,4 -4,0 -7,-1 -9,-4 -3,-2 -4,-5 -4,-8zm29 0c0,-4 1,-7 3,-9 3,-3 6,-4 9,-4 4,0 7,1 9,4 3,2 4,5 4,9 0,3 -1,6 -4,8 -2,3 -5,4 -9,4 -3,0 -6,-1 -9,-4 -2,-2 -3,-5 -3,-8zm83 -30c-1,0 -2,0 -3,0 -1,0 -1,-1 -2,-2 -1,0 -1,-1 -2,-2 0,-2 0,-3 0,-6 0,-4 1,-7 2,-8 1,-2 3,-2 5,-2l26 0c1,0 2,0 3,0 0,0 1,1 2,1 0,1 1,2 1,3 1,1 1,3 1,5 0,4 -1,7 -2,9 -1,1 -3,2 -5,2l-26 0zm26 0c-1,0 -2,0 -3,0 -1,0 -1,-1 -2,-2 -1,0 -1,-1 -1,-3 -1,-1 -1,-3 -1,-5 0,-4 1,-7 2,-8 1,-2 3,-2 5,-2l28 0 0 -50 23 0 0 70 -51 0zm2 30c0,-4 1,-7 4,-9 2,-3 5,-4 8,-4 4,0 7,1 9,4 3,2 4,5 4,9 0,3 -1,6 -4,8 -2,3 -5,4 -9,4 -3,0 -6,-1 -8,-4 -3,-2 -4,-5 -4,-8zm29 0c0,-4 1,-7 3,-9 3,-3 6,-4 9,-4 4,0 6,1 9,4 2,2 4,5 4,9 0,3 -2,6 -4,8 -3,3 -5,4 -9,4 -3,0 -6,-1 -9,-4 -2,-2 -3,-5 -3,-8zm113 -30c-4,0 -7,0 -9,-1 -2,0 -4,0 -6,-1 -2,-1 -4,-2 -5,-3 -2,-1 -3,-2 -5,-4 -3,4 -7,7 -11,8 -4,0 -8,1 -13,1l-30 0 0 -20 34 0c3,0 5,-1 7,-2 1,0 2,-2 2,-3 0,-1 -1,-3 -2,-4 -1,-2 -3,-5 -6,-10l-16 -24 21 -13 21 36c2,4 4,7 6,9 1,3 3,5 4,6 2,2 3,3 4,4 1,0 2,1 4,1 1,0 2,0 2,0 1,0 2,1 3,1 0,1 1,2 1,3 0,1 1,3 1,5 0,4 -1,7 -2,9 -1,1 -3,2 -5,2zm18 -101c0,-3 2,-6 4,-8 3,-3 6,-4 9,-4 3,0 6,1 9,3 2,3 3,6 3,9 0,4 -1,7 -3,9 -3,3 -6,4 -9,4 -3,0 -6,-1 -9,-4 -2,-2 -4,-5 -4,-9zm2 81l0 -50 23 0 0 70 -43 0c-1,0 -2,0 -3,0 -1,0 -1,-1 -2,-2 -1,0 -1,-1 -2,-2 0,-2 0,-3 0,-6 0,-4 0,-7 2,-8 1,-2 2,-2 5,-2l20 0zm92 20c-1,0 -4,0 -6,-1 -3,-1 -5,-2 -7,-5 0,8 -1,15 -3,20 -2,6 -4,10 -8,13 -4,4 -8,6 -13,7 -6,2 -12,3 -20,3l0 -22c5,0 9,-1 12,-2 2,-1 5,-2 6,-4 1,-2 2,-5 3,-8 0,-3 0,-7 0,-11l0 -52 23 0 0 30c0,4 1,7 4,9 3,2 6,3 9,3 1,0 2,0 3,0 1,0 1,1 2,1 1,1 1,2 2,3 0,1 0,3 0,5 0,4 -1,7 -2,9 -1,1 -2,2 -5,2zm7 -20c3,0 5,0 7,0 1,-1 3,-1 4,-2 1,0 2,-1 2,-2 1,-1 1,-3 1,-5l0 -33 22 0 0 30c0,3 1,6 4,8 2,3 5,4 9,4 4,0 6,-1 9,-2 2,-1 4,-3 4,-7l0 -33 22 0 0 30c0,8 4,12 11,12l11 0 0 -50 23 0 0 70 -27 0c-7,0 -11,-1 -14,-2 -4,-2 -6,-4 -9,-7 -1,2 -3,4 -5,5 -2,1 -4,2 -6,3 -2,0 -5,1 -7,1 -2,0 -4,0 -6,0 -5,0 -11,-1 -15,-3 -4,-2 -7,-4 -8,-6 -3,4 -8,7 -13,8 -5,0 -11,1 -19,1l-7 0c-1,0 -2,0 -3,0 0,0 -1,-1 -2,-2 0,0 -1,-1 -1,-2 -1,-2 -1,-3 -1,-6 0,-4 1,-7 2,-8 1,-2 3,-2 5,-2l7 0zm240 9c0,4 0,7 -1,9 -1,1 -3,2 -6,2l-7 0c-4,0 -8,0 -11,-1 -3,-1 -6,-3 -9,-5 -2,-2 -4,-4 -5,-8 -2,-3 -2,-8 -2,-13l0 -99 23 0 0 96c0,4 0,7 2,8 1,1 3,2 6,2l3 0c1,0 2,0 3,0 1,0 2,1 2,1 1,1 1,2 2,3 0,1 0,3 0,5zm14 -9l0 -50 23 0 0 70 -44 0c-1,0 -2,0 -2,0 -1,0 -2,-1 -3,-2 0,0 -1,-1 -1,-2 0,-2 -1,-3 -1,-6 0,-4 1,-7 2,-8 1,-2 3,-2 5,-2l21 0zm-3 49c0,-3 1,-6 3,-9 3,-2 6,-3 9,-3 4,0 7,1 9,3 2,3 4,6 4,9 0,3 -2,6 -4,9 -2,2 -5,4 -9,4 -3,0 -6,-2 -9,-4 -2,-3 -3,-6 -3,-9zm-844 199c0,4 1,8 2,11 2,4 4,6 7,9 3,2 7,4 12,5 5,2 11,2 18,2 6,0 11,0 15,-1 5,-1 10,-2 13,-3 4,-1 7,-3 9,-5 3,-2 4,-5 4,-7 0,-3 -1,-5 -3,-6 -1,-2 -4,-4 -8,-6 -4,-2 -6,-3 -9,-5 -3,-1 -5,-3 -7,-5 -2,-2 -3,-4 -4,-7 -1,-2 -2,-5 -2,-9 0,-4 1,-8 2,-12 2,-3 4,-7 6,-10 3,-4 7,-6 11,-8 4,-2 9,-3 15,-3 3,0 6,0 9,1 2,1 4,1 4,2l0 12c-2,0 -4,-1 -6,-1 -3,-1 -5,-1 -8,-1 -3,0 -6,1 -8,2 -3,1 -5,2 -7,4 -2,2 -3,4 -4,6 -1,2 -1,4 -1,6 0,2 0,4 1,6 1,1 2,2 3,4 2,1 3,2 5,3 2,1 3,2 6,3 3,2 6,4 8,6 3,1 4,3 6,4 1,2 2,3 3,5 0,2 1,3 1,5 0,4 -1,9 -3,13 -2,4 -5,7 -10,10 -4,3 -9,6 -16,8 -7,1 -15,2 -25,2 -9,0 -17,-1 -24,-2 -7,-2 -12,-5 -16,-8 -4,-4 -7,-7 -8,-12 -2,-5 -3,-10 -3,-15l0 -23 12 0 0 20zm148 4c-3,0 -6,0 -8,-2 -2,-1 -4,-3 -5,-5 0,7 -1,13 -1,18 -1,5 -3,10 -5,13 -3,3 -6,5 -10,6 -5,2 -10,2 -17,2l0 -12c5,0 9,-1 11,-2 3,-1 5,-3 7,-5 1,-2 2,-6 2,-9 1,-4 1,-9 1,-14l0 -41 12 0 0 22c0,5 1,9 3,12 2,3 5,5 10,5 4,0 7,2 7,6 0,2 -1,4 -2,5 -1,1 -2,1 -5,1zm0 0c-4,0 -6,-2 -6,-6 0,-2 1,-4 2,-5 1,-1 2,-1 4,-1l24 0 0 -47 13 0 0 59 -37 0zm20 23c0,-2 1,-4 2,-5 2,-2 4,-3 6,-3 2,0 4,1 6,3 1,1 2,3 2,5 0,2 -1,4 -2,6 -2,2 -4,2 -6,2 -2,0 -4,0 -6,-2 -1,-2 -2,-4 -2,-6zm49 -74l13 0 0 43c0,7 -1,14 -2,19 -1,5 -2,9 -5,12 -2,4 -5,6 -10,7 -4,2 -10,2 -17,2l0 -12c5,0 9,-1 12,-2 3,-1 5,-3 6,-5 2,-2 3,-6 3,-9 0,-4 0,-9 0,-14l0 -41zm66 45c0,2 0,4 -1,5 -1,1 -3,1 -5,1l-4 0c-3,0 -6,0 -9,-1 -3,0 -5,-1 -7,-3 -2,-2 -3,-4 -4,-7 -1,-2 -2,-6 -2,-10l0 -88 13 0 0 85c0,4 0,7 2,9 1,2 4,3 9,3l2 0c4,0 6,2 6,6zm-6 6c-4,0 -6,-2 -6,-6 0,-2 0,-4 1,-5 1,-1 3,-1 5,-1l23 0c4,0 6,2 6,6 0,2 -1,4 -2,5 -1,1 -2,1 -4,1l-23 0zm23 0c-4,0 -6,-2 -6,-6 0,-2 0,-4 1,-5 1,-1 3,-1 5,-1l22 0c4,0 6,2 6,6 0,2 0,4 -1,5 -1,1 -2,1 -5,1l-22 0zm22 0c-4,0 -6,-2 -6,-6 0,-2 1,-4 2,-5 1,-1 2,-1 4,-1l37 0c4,0 7,-1 9,-2 3,-2 4,-4 4,-8 0,-3 -1,-6 -4,-9 -2,-3 -5,-7 -10,-11 -4,-3 -8,-7 -14,-10 -5,-3 -11,-6 -16,-9 0,-1 0,-3 1,-4 0,-1 1,-2 1,-3 1,-2 2,-3 2,-3 1,-1 1,-2 2,-2l56 -25 0 13 -45 20c7,4 13,8 18,12 5,4 9,8 12,11 3,4 6,8 7,11 2,4 2,7 2,10 0,2 0,4 -1,7 0,2 -2,5 -3,7 -2,2 -5,4 -8,5 -4,2 -8,2 -13,2l-37 0zm129 -40c0,5 2,8 4,11 3,2 8,4 13,4 3,0 5,0 8,-1 2,0 5,-1 7,-2l0 -27 -14 0c-5,0 -9,1 -12,4 -4,2 -6,6 -6,11zm16 28c-2,0 -5,-1 -8,-1 -3,-1 -6,-2 -9,-4 -3,-2 -6,-5 -8,-8 -2,-4 -3,-8 -3,-13 0,-6 1,-11 3,-14 2,-4 5,-7 8,-9 3,-3 6,-5 10,-6 3,-1 7,-1 11,-1l24 0 0 44c0,4 1,7 2,9 2,2 5,3 9,3l4 0c4,0 6,2 6,6 0,2 -1,4 -2,5 -1,1 -2,1 -4,1l-5 0c-3,0 -6,0 -8,0 -2,-1 -5,-2 -6,-3 -2,-1 -4,-2 -5,-4 -2,-2 -2,-5 -3,-8 -2,1 -5,2 -7,2 -3,1 -6,1 -9,1zm43 12c-4,0 -6,-2 -6,-6 0,-2 0,-4 1,-5 1,-1 3,-1 5,-1l24 0 0 -47 12 0 0 59 -36 0zm19 23c0,-2 1,-4 3,-5 1,-2 3,-3 5,-3 3,0 5,1 6,3 2,1 2,3 2,5 0,2 0,4 -2,6 -1,2 -3,2 -6,2 -2,0 -4,0 -5,-2 -2,-2 -3,-4 -3,-6zm76 -23c-4,0 -7,0 -9,-2 -2,-1 -4,-3 -5,-5 0,7 0,13 -1,18 -1,5 -3,10 -5,13 -3,3 -6,5 -10,6 -5,2 -10,2 -17,2l0 -12c5,0 9,-1 12,-2 3,-1 5,-3 6,-5 1,-2 2,-6 3,-9 0,-4 0,-9 0,-14l0 -41 12 0 0 22c0,5 1,9 3,12 2,3 6,5 11,5 4,0 6,2 6,6 0,2 -1,4 -2,5 -1,1 -2,1 -4,1zm0 0c-5,0 -7,-2 -7,-6 0,-2 1,-4 2,-5 1,-1 2,-1 5,-1l22 0c4,0 6,2 6,6 0,2 0,4 -1,5 -1,1 -3,1 -5,1l-22 0zm22 0c-4,0 -6,-2 -6,-6 0,-2 1,-4 2,-5 1,-1 2,-1 4,-1l62 0c0,-7 -1,-12 -3,-17 -2,-4 -4,-8 -7,-11 -3,-3 -6,-5 -10,-6 -4,-1 -9,-2 -13,-2 -3,0 -6,0 -9,1 -4,1 -6,1 -9,2l0 -13c3,0 5,-1 9,-2 3,0 7,-1 11,-1 7,0 14,2 19,4 6,3 10,6 14,11 4,4 6,9 8,15 2,6 3,12 3,19l9 0c4,0 6,2 6,6 0,2 0,4 -1,5 -1,1 -2,1 -5,1l-84 0zm32 23c0,-2 1,-4 3,-5 1,-2 3,-3 5,-3 3,0 5,1 6,3 2,1 2,3 2,5 0,3 0,5 -2,6 -1,2 -3,3 -6,3 -2,0 -4,-1 -5,-3 -2,-1 -3,-3 -3,-6zm53 -23c-5,0 -7,-2 -7,-6 0,-2 1,-4 2,-5 1,-1 2,-1 5,-1l23 0 0 -47 13 0 0 59 -36 0zm10 -84c0,-3 1,-5 2,-6 2,-2 4,-2 6,-2 2,0 4,0 6,2 1,1 2,3 2,6 0,2 -1,4 -2,5 -2,2 -4,3 -6,3 -2,0 -4,-1 -6,-3 -1,-1 -2,-3 -2,-5zm20 0c0,-3 1,-5 2,-6 2,-2 4,-2 6,-2 2,0 4,0 6,2 1,1 2,3 2,6 0,2 -1,4 -2,5 -2,2 -4,3 -6,3 -2,0 -4,-1 -6,-3 -1,-1 -2,-3 -2,-5zm81 33l12 0 0 43c0,7 0,14 -1,19 -1,5 -2,9 -5,12 -2,4 -6,6 -10,7 -4,2 -10,2 -17,2l0 -12c5,0 9,-1 12,-2 3,-1 5,-3 6,-5 2,-2 2,-6 3,-9 0,-4 0,-9 0,-14l0 -41zm-2 -33c0,-3 1,-5 3,-6 1,-2 3,-2 5,-2 3,0 4,0 6,2 2,1 2,3 2,6 0,2 0,4 -2,5 -2,2 -3,3 -6,3 -2,0 -4,-1 -5,-3 -2,-1 -3,-3 -3,-5zm48 -25l0 109 -12 0 0 -109 12 0zm-508 288c0,4 0,8 2,11 1,4 3,6 6,9 3,2 7,4 12,5 5,2 11,2 19,2 5,0 10,0 15,-1 5,-1 9,-2 13,-3 3,-2 6,-3 9,-5 2,-2 3,-5 3,-7 0,-3 -1,-5 -2,-6 -2,-2 -5,-4 -9,-6 -3,-2 -6,-3 -9,-5 -2,-1 -5,-3 -6,-5 -2,-2 -4,-4 -5,-7 -1,-2 -2,-5 -2,-9 0,-4 1,-8 2,-12 2,-3 4,-7 7,-10 3,-4 6,-6 10,-8 4,-2 9,-3 15,-3 4,0 7,0 9,1 3,1 4,1 5,2l0 12c-2,0 -5,-1 -7,-1 -2,-1 -5,-1 -7,-1 -4,0 -7,1 -9,2 -3,1 -5,2 -7,4 -1,2 -3,4 -3,6 -1,2 -2,4 -2,6 0,2 1,4 1,6 1,1 2,2 4,4 1,1 2,2 4,3 2,1 4,2 6,3 3,2 6,4 9,6 2,1 4,3 5,4 2,2 3,3 3,5 1,2 1,3 1,5 0,4 -1,9 -3,13 -2,4 -5,7 -9,10 -4,3 -10,6 -17,8 -7,1 -15,2 -24,2 -10,0 -18,-1 -25,-2 -6,-2 -11,-5 -15,-8 -4,-4 -7,-8 -9,-12 -2,-5 -3,-10 -3,-15l0 -23 13 0 0 20zm122 -47l12 0 0 43c0,7 0,14 -1,19 -1,5 -3,9 -5,12 -2,4 -6,6 -10,7 -5,2 -10,2 -17,2l0 -12c5,0 9,-1 12,-2 2,-1 5,-3 6,-5 1,-2 2,-6 2,-9 1,-4 1,-9 1,-14l0 -41zm-12 -24c0,-3 1,-5 2,-6 2,-2 4,-3 6,-3 2,0 4,1 6,3 1,1 2,3 2,6 0,2 -1,4 -2,5 -2,2 -4,3 -6,3 -2,0 -4,-1 -6,-3 -1,-1 -2,-3 -2,-5zm20 0c0,-3 1,-5 2,-6 2,-2 4,-3 6,-3 2,0 4,1 6,3 1,1 2,3 2,6 0,2 -1,4 -2,5 -2,2 -4,3 -6,3 -2,0 -4,-1 -6,-3 -1,-1 -2,-3 -2,-5zm-10 -19c0,-2 1,-4 2,-6 2,-1 4,-2 6,-2 3,0 4,1 6,2 2,2 2,4 2,6 0,2 0,4 -2,6 -2,1 -3,2 -6,2 -2,0 -4,-1 -6,-2 -1,-2 -2,-4 -2,-6z"/>
   <g>
    <path class="fil5" d="M1597 1122l-25 0 0 25 25 0 0 -25 26 0 25 0 26 0 0 25 25 0 0 -25 -25 0 0 -26 -26 0 -25 0 -26 0 0 26zm44 -201l0 76 0 26 25 0 75 0 0 159 -209 0 0 -261 109 0zm25 76l0 -76 24 0 0 26 26 0 0 25 25 0 0 25 -75 0zm-94 0l0 -25 25 0 0 25 0 26 -25 0 0 -26zm-65 -76l0 261 0 25 25 0 209 0 12 0 14 0 0 -235 -26 0 0 -25 -25 0 0 -26 -26 0 0 -25 -158 0 -25 0 0 25z"/>
    <path class="fil6" d="M1637 1305c-68,0 -132,-26 -180,-74 -47,-48 -74,-112 -74,-180 0,-67 27,-131 74,-179 48,-48 112,-74 180,-74 68,0 131,26 179,74 48,48 75,112 75,179 0,68 -27,132 -75,180 -48,48 -111,74 -179,74zm-168 -422c-45,45 -70,105 -70,168 0,61 23,119 64,163l336 -336c-44,-42 -101,-64 -162,-64 -64,0 -123,24 -168,69zm342 6l-337 336c45,42 102,64 163,64 63,0 123,-24 168,-69 45,-45 70,-105 70,-169 0,-60 -23,-118 -64,-162z"/>
   </g>
   <path class="fil1" d="M86 363c4,0 4,5 0,5 -3,0 -3,-5 0,-5z"/>
   <path class="fil1" d="M159 406c4,0 4,6 0,6 -3,0 -3,-6 0,-6z"/>
   <path class="fil1" d="M392 304c4,0 4,6 0,6 -4,0 -4,-6 0,-6z"/>
   <path class="fil1" d="M197 323c5,0 5,9 0,9 -5,0 -5,-9 0,-9z"/>
   <path class="fil1" d="M319 382c6,0 6,8 0,8 -5,0 -5,-8 0,-8z"/>
   <path class="fil1" d="M80 281c4,0 4,-5 0,-5 -3,0 -3,5 0,5z"/>
   <path class="fil1" d="M141 357c4,0 4,-6 0,-6 -3,0 -3,6 0,6z"/>
   <path class="fil1" d="M1267 171c4,0 4,6 0,6 -3,0 -3,-6 0,-6z"/>
   <path class="fil1" d="M1555 154l0 -3c0,-4 6,-4 6,0l0 3c0,4 -6,4 -6,0z"/>
   <path class="fil1" d="M1464 277c1,1 2,2 3,3 3,2 -1,6 -4,4 -1,-1 -2,-2 -3,-3 -2,-3 2,-7 4,-4z"/>
   <path class="fil1" d="M1558 337l3 0c4,0 4,6 0,6l-3 0c-3,0 -3,-6 0,-6z"/>
   <path class="fil1" d="M1308 298c5,0 5,9 0,9 -5,0 -5,-9 0,-9z"/>
   <path class="fil1" d="M1459 68c6,0 6,9 0,9 -5,0 -5,-9 0,-9z"/>
   <path class="fil1" d="M1634 91c5,0 5,9 0,9 -6,0 -6,-9 0,-9z"/>
   <path class="fil1" d="M1753 83c6,0 6,8 0,8 -5,0 -5,-8 0,-8z"/>
   <path class="fil1" d="M1733 167c5,0 5,9 0,9 -6,0 -6,-9 0,-9z"/>
   <path class="fil1" d="M1215 371c5,0 5,8 0,8 -6,0 -6,-8 0,-8z"/>
   <path class="fil1" d="M1264 93l3 0c3,0 6,3 6,6 0,3 -3,5 -6,5l-3 0c-3,0 -5,-2 -5,-5 0,-3 2,-6 5,-6z"/>
   <path class="fil1" d="M590 156c4,0 4,6 0,6 -4,0 -4,-6 0,-6z"/>
   <path class="fil1" d="M844 176c-1,-1 -2,-2 -3,-3 -2,-3 2,-7 4,-4 1,1 2,2 3,3 3,2 -1,6 -4,4z"/>
   <path class="fil1" d="M881 322l3 0c4,0 4,6 0,6l-3 0c-4,0 -4,-6 0,-6z"/>
   <path class="fil1" d="M631 283c5,0 5,8 0,8 -6,0 -6,-8 0,-8z"/>
   <path class="fil1" d="M669 196c5,0 5,8 0,8 -6,0 -6,-8 0,-8z"/>
   <path class="fil1" d="M782 53c6,0 6,8 0,8 -5,0 -5,-8 0,-8z"/>
   <path class="fil1" d="M957 76c5,0 5,9 0,9 -6,0 -6,-9 0,-9z"/>
   <path class="fil1" d="M538 356c5,0 5,8 0,8 -6,0 -6,-8 0,-8z"/>
   <path class="fil1" d="M980 179l3 0c3,0 3,6 0,6l-3 0c-4,0 -4,-6 0,-6z"/>
   <path class="fil1" d="M587 78l3 0c3,0 6,2 6,5 0,3 -3,6 -6,6l-3 0c-3,0 -6,-3 -6,-6 1,-3 3,-5 6,-5z"/>
  </g>
 </g>
</svg>
