<?xml version="1.0" encoding="UTF-8"?>
<!DOCTYPE svg PUBLIC "-//W3C//DTD SVG 1.1//EN" "http://www.w3.org/Graphics/SVG/1.1/DTD/svg11.dtd">
<!-- Creator: CorelDRAW X7 -->
<svg xmlns="http://www.w3.org/2000/svg" xml:space="preserve" width="100%" height="100%" version="1.1" style="shape-rendering:geometricPrecision; text-rendering:geometricPrecision; image-rendering:optimizeQuality; fill-rule:evenodd; clip-rule:evenodd"
viewBox="0 0 18627 9701"
 xmlns:xlink="http://www.w3.org/1999/xlink">
 <defs>
  <style type="text/css">
   <![CDATA[
    .fil0 {fill:black}
    .fil1 {fill:black;fill-rule:nonzero}
   ]]>
  </style>
 </defs>
 <g id="Layer_x0020_1">
  <metadata id="CorelCorpID_0Corel-Layer"/>
  <g id="_2098379769072">
   <path class="fil0" d="M17377 8456l-14568 0 0 255 14823 0 0 -5911 -255 0 0 5656zm-16127 -1555l0 -5656 14568 0 0 -255 -14823 0 0 5911 255 0z"/>
   <path class="fil0" d="M1432 7466l0 871c0,861 271,1316 813,1364l0 -467c-196,-82 -294,-265 -294,-548l294 0 0 -1220 -813 0z"/>
   <path class="fil0" d="M0 7466l0 871c0,861 271,1316 814,1364l0 -467c-196,-82 -294,-265 -294,-548l294 0 0 -1220 -814 0z"/>
   <path class="fil0" d="M17196 2235l0 -871c0,-861 -272,-1316 -814,-1364l0 467c196,83 294,265 294,549l-294 0 0 1219 814 0z"/>
   <path class="fil0" d="M18627 2235l0 -871c0,-861 -271,-1316 -814,-1364l0 467c196,83 294,265 294,549l-294 0 0 1219 814 0z"/>
   <path class="fil1" d="M3426 3084l-441 0c-28,0 -52,-1 -70,-5 -19,-4 -34,-10 -45,-19 -12,-8 -20,-19 -25,-32 -5,-14 -7,-30 -7,-49l0 -113 60 0 0 91c0,15 1,27 5,36 4,9 10,15 19,20 8,5 20,8 35,9 15,1 35,2 58,2l351 0 0 -219 60 0 0 279zm1919 3879l47 0c12,0 22,0 30,-1 8,-1 15,-3 21,-7 5,-4 9,-9 12,-16 3,-7 4,-16 4,-29l0 -166 60 0 0 140c0,12 1,23 2,33 2,9 5,18 10,25 5,6 11,12 20,16 8,3 18,5 31,5 20,0 29,10 29,29 0,12 -2,21 -7,25 -4,4 -12,7 -22,7 -19,0 -34,-5 -46,-14 -11,-9 -19,-20 -23,-34 -9,20 -23,33 -41,39 -19,6 -42,9 -69,9l-58 0 -2 0 -1 0 -1 0c-19,-1 -35,-5 -48,-13 -13,-8 -27,-23 -41,-44 -5,13 -12,23 -21,31 -8,8 -17,14 -28,17 -10,4 -21,6 -33,7 -11,1 -23,2 -35,2l-110 0 0 -61 130 0c20,0 36,-2 47,-7 11,-5 16,-13 16,-22 0,-10 -2,-19 -7,-28 -5,-9 -11,-19 -18,-30l-77 -114 56 -35 87 145c10,16 18,30 26,41 7,12 14,21 20,29 7,7 13,12 19,16 6,3 11,5 17,5l1 0 1 0 2 0zm56 170c0,-11 4,-19 11,-27 8,-7 17,-11 28,-11 10,0 19,4 27,11 7,8 11,16 11,27 0,11 -4,20 -11,27 -8,8 -17,12 -27,12 -11,0 -20,-4 -28,-12 -7,-7 -11,-16 -11,-27zm94 0c0,-11 4,-19 12,-27 7,-7 16,-11 27,-11 11,0 20,4 27,11 8,8 11,16 11,27 0,11 -3,20 -11,27 -7,8 -16,12 -27,12 -11,0 -20,-4 -27,-12 -8,-7 -12,-16 -12,-27zm87 -109c-20,0 -29,-10 -29,-29 0,-13 2,-21 7,-25 4,-4 12,-7 22,-7l116 0c-5,-7 -10,-16 -14,-29 -5,-12 -7,-28 -7,-46 0,-25 6,-49 18,-71 11,-22 29,-37 53,-46 -9,0 -19,0 -29,0 -9,0 -19,1 -30,1l0 -54c53,-3 101,0 143,7 42,8 77,22 106,42 29,20 51,47 66,81 15,33 23,74 23,122l0 54 -445 0zm204 -61c10,0 19,-2 26,-7 7,-5 12,-12 16,-19 4,-8 6,-16 8,-25 1,-9 2,-17 2,-25 0,-11 -1,-21 -3,-31 -2,-10 -5,-19 -9,-26 -5,-8 -10,-14 -17,-18 -7,-5 -15,-7 -25,-7 -17,0 -30,8 -40,23 -9,16 -14,36 -14,61 0,8 1,17 3,26 2,9 4,16 9,23 4,7 9,13 16,18 6,4 14,7 24,7l4 0zm180 0c0,-51 -11,-91 -32,-119 -21,-29 -50,-48 -86,-59 9,6 15,14 20,22 6,8 10,17 13,26 4,9 6,18 7,27 2,9 2,17 2,25 0,18 -2,34 -5,47 -3,13 -7,23 -12,31l93 0zm208 -458l0 519 -60 0 0 -519 60 0zm358 519c-1,29 -8,54 -18,73 -10,19 -25,35 -43,46 -18,12 -39,20 -64,25 -25,5 -53,7 -83,7l-31 0 0 -60 23 0c22,0 43,-1 62,-3 19,-2 35,-7 49,-13 14,-7 25,-16 33,-28 8,-12 12,-28 13,-47l-82 0c-20,0 -39,-3 -55,-7 -17,-4 -32,-11 -44,-21 -12,-10 -22,-23 -29,-39 -7,-16 -11,-36 -11,-60 0,-19 4,-39 10,-58 7,-19 16,-35 29,-50 12,-14 27,-26 45,-35 17,-9 38,-14 60,-14 25,0 47,5 64,14 18,9 32,22 43,38 11,16 19,36 24,60 4,23 7,49 7,77l0 34 51 0c19,0 29,10 29,29 0,12 -2,21 -7,25 -4,4 -12,7 -22,7l-53 0zm-221 -133c0,25 7,43 21,55 14,12 35,17 63,17l78 0 0 -48c0,-36 -6,-65 -18,-86 -13,-21 -33,-31 -63,-31 -14,0 -26,3 -36,8 -10,6 -19,13 -25,22 -7,9 -12,19 -15,30 -4,11 -5,22 -5,33zm565 72c0,-31 -4,-57 -12,-78 -8,-21 -19,-39 -33,-52 -14,-13 -31,-23 -50,-29 -19,-6 -39,-9 -60,-9 -14,0 -28,1 -44,4 -16,2 -29,5 -39,8l0 -58c10,-3 23,-6 38,-9 16,-4 34,-6 53,-6 37,0 69,6 95,19 27,12 48,29 65,51 17,22 30,47 38,75 8,29 12,60 12,91l0 54 -354 0c-20,0 -29,-10 -29,-29 0,-13 2,-21 6,-25 5,-4 12,-7 23,-7l291 0zm-180 -341c0,-11 4,-20 11,-27 8,-8 17,-11 28,-11 10,0 19,3 27,11 7,7 11,16 11,27 0,11 -4,20 -11,27 -8,8 -17,12 -27,12 -11,0 -20,-4 -28,-12 -7,-7 -11,-16 -11,-27zm490 212c0,20 7,37 20,49 12,13 33,19 61,19 10,0 22,-1 35,-3 12,-3 23,-6 33,-10l0 -129 -64 0c-23,0 -43,6 -60,18 -17,11 -25,30 -25,56zm76 130c-12,0 -25,-2 -40,-5 -16,-3 -30,-10 -44,-19 -14,-8 -26,-21 -36,-37 -9,-17 -14,-38 -14,-64 0,-26 5,-48 14,-65 9,-18 21,-32 35,-44 15,-11 31,-19 49,-23 17,-5 35,-8 53,-8l115 0 0 208c0,21 4,35 10,44 6,8 20,12 42,12l17 0c20,0 29,10 29,29 0,12 -2,21 -6,25 -5,4 -12,7 -23,7l-24 0c-13,0 -25,-2 -36,-4 -12,-2 -22,-6 -31,-11 -9,-6 -17,-13 -23,-22 -6,-9 -10,-21 -12,-36 -11,4 -23,7 -36,9 -14,3 -27,4 -39,4zm493 -1c0,-31 -4,-57 -12,-78 -8,-21 -19,-39 -34,-52 -14,-13 -30,-23 -49,-29 -19,-6 -39,-9 -60,-9 -14,0 -29,1 -44,4 -16,2 -29,5 -39,8l0 -58c9,-3 22,-6 38,-9 16,-4 34,-6 53,-6 37,0 68,6 95,19 26,12 48,29 65,51 17,22 30,47 38,75 8,29 12,60 12,91l0 54 -355 0c-19,0 -29,-10 -29,-29 0,-13 3,-21 7,-25 5,-4 12,-7 22,-7l292 0zm-140 169c0,-10 4,-19 12,-27 7,-7 16,-11 27,-11 11,0 20,4 27,11 8,8 11,17 11,27 0,11 -3,20 -11,28 -7,7 -16,11 -27,11 -11,0 -20,-4 -27,-11 -8,-8 -12,-17 -12,-28zm547 -108c-2,29 -8,54 -19,73 -10,19 -24,35 -42,46 -18,12 -40,20 -65,25 -25,5 -52,7 -83,7l-31 0 0 -60 23 0c22,0 43,-1 62,-3 19,-2 36,-7 50,-13 14,-7 24,-16 32,-28 8,-12 12,-28 13,-47l-82 0c-20,0 -38,-3 -55,-7 -17,-4 -31,-11 -44,-21 -12,-10 -22,-23 -29,-39 -7,-16 -10,-36 -10,-60 0,-19 3,-39 9,-58 7,-19 16,-35 29,-50 12,-14 27,-26 45,-35 18,-9 38,-14 61,-14 25,0 46,5 64,14 17,9 31,22 42,38 11,16 19,36 24,60 5,23 7,49 7,77l0 34 51 0c20,0 29,10 29,29 0,12 -2,21 -7,25 -4,4 -11,7 -22,7l-52 0zm-222 -133c0,25 7,43 21,55 14,12 35,17 63,17l78 0 0 -48c0,-36 -6,-65 -18,-86 -12,-21 -33,-31 -63,-31 -14,0 -26,3 -36,8 -10,6 -19,13 -25,22 -7,9 -12,19 -15,30 -3,11 -5,22 -5,33zm274 133c-19,0 -29,-10 -29,-29 0,-13 2,-21 7,-25 4,-4 12,-7 22,-7l30 0c6,0 12,0 18,-2 6,-1 13,-4 19,-9 6,-5 12,-12 18,-20 6,-9 12,-20 18,-35 11,-31 22,-56 35,-75 12,-19 25,-34 38,-44 13,-10 26,-17 39,-21 13,-3 27,-5 40,-5 18,0 35,4 50,10 16,7 30,17 41,30 11,13 20,28 27,46 6,18 10,37 10,59 0,43 -10,76 -30,100 -20,24 -51,36 -93,36 -24,0 -47,-4 -70,-12 -23,-7 -47,-20 -71,-39 -7,10 -13,17 -20,23 -6,6 -13,10 -21,12 -7,3 -14,5 -22,5 -8,1 -16,2 -25,2l-31 0zm322 -129c0,-10 -1,-21 -4,-31 -3,-10 -8,-19 -14,-27 -6,-8 -14,-14 -22,-18 -9,-5 -19,-7 -31,-7 -20,0 -39,9 -56,27 -17,18 -33,49 -48,94 18,11 36,21 53,28 18,7 36,10 55,10 20,0 36,-5 49,-17 12,-11 18,-31 18,-59zm-976 -2558l103 0 2 0 2 0 24 0c16,0 29,0 40,-1 11,-1 20,-3 27,-7 7,-4 11,-9 14,-16 3,-7 4,-17 4,-29l0 -130 60 0 0 103c0,13 1,24 2,33 2,10 5,19 11,26 5,6 13,11 23,15 10,4 23,6 40,6 10,0 20,0 28,-1 7,-1 14,-3 19,-7 5,-4 10,-9 12,-16 3,-7 4,-17 4,-29l0 -130 60 0 0 103c0,13 1,24 2,33 2,10 6,19 11,26 5,6 12,11 21,15 9,4 21,6 35,6 8,0 16,0 23,-1 6,-1 12,-3 17,-7 5,-4 9,-9 11,-16 3,-7 4,-17 4,-29l0 -166 60 0 0 139c0,13 1,24 3,33 1,10 5,19 9,26 5,6 12,11 20,15 8,4 19,6 31,6 20,0 30,10 30,29 0,12 -3,21 -7,25 -5,4 -12,7 -23,7 -18,0 -34,-5 -45,-14 -12,-9 -20,-20 -24,-34 -4,10 -10,19 -18,25 -8,6 -16,10 -25,14 -9,3 -17,6 -25,7 -8,1 -15,2 -21,2 -16,0 -30,-2 -41,-5 -11,-3 -20,-7 -27,-11 -7,-5 -13,-10 -17,-15 -4,-6 -7,-11 -10,-17 -9,20 -22,33 -40,39 -18,6 -40,9 -65,9 -18,0 -32,-2 -43,-5 -11,-2 -21,-6 -28,-10 -7,-5 -13,-10 -17,-16 -5,-6 -8,-12 -11,-17 -5,10 -10,18 -17,24 -6,6 -15,11 -25,14 -11,4 -23,7 -39,8 -15,1 -33,2 -55,2l-22 0 -2 0 -2 0 -103 0 -2 0 0 0 -2 0 0 0 -2 -1 0 0c-17,0 -31,-4 -42,-13 -12,-9 -19,-20 -23,-34 -5,10 -10,19 -18,25 -7,6 -16,10 -27,14 -11,3 -24,6 -40,7 -15,1 -34,2 -54,2l-296 0c-28,0 -52,-2 -71,-6 -18,-4 -34,-10 -45,-19 -11,-8 -19,-19 -24,-32 -5,-14 -8,-30 -8,-49l0 -113 60 0 0 91c0,15 2,27 6,36 3,9 10,15 18,20 9,5 21,8 36,9 15,2 34,2 57,2l266 0c16,0 30,0 41,-1 11,-1 20,-3 26,-7 7,-4 11,-9 14,-16 3,-7 5,-17 5,-29l0 -166 60 0 0 139c0,13 0,24 2,33 2,10 5,19 10,26 5,6 11,11 20,15 7,4 17,6 29,6l0 0 1 0 1 0 0 0 2 0zm723 61c-20,0 -29,-10 -29,-29 0,-13 2,-21 7,-25 4,-5 12,-7 22,-7l174 0c18,0 33,-3 44,-9 13,-6 18,-19 18,-36 0,-13 -5,-27 -18,-44 -11,-16 -27,-32 -47,-49 -20,-17 -42,-33 -68,-49 -25,-17 -51,-31 -78,-44 1,-6 2,-12 5,-18 2,-6 5,-12 8,-17 3,-5 6,-9 9,-13 3,-4 5,-7 7,-8l267 -117 0 59 -214 94c34,20 62,39 86,58 24,19 43,37 58,55 15,17 26,34 33,50 6,16 10,32 10,46 0,10 -2,21 -5,34 -3,12 -9,23 -18,33 -9,10 -21,19 -37,25 -16,7 -36,11 -62,11l-172 0zm-4794 1313c-19,0 -34,-5 -46,-14 -11,-9 -19,-20 -23,-34 -4,11 -10,19 -17,25 -7,6 -17,10 -28,14 -11,3 -24,6 -39,7 -16,1 -34,2 -55,2l-296 0c-28,0 -52,-2 -70,-6 -19,-4 -34,-10 -45,-19 -12,-8 -20,-19 -25,-32 -5,-14 -7,-30 -7,-49l0 -113 60 0 0 91c0,15 1,27 5,36 4,9 10,16 19,20 8,5 20,8 35,9 15,2 35,2 58,2l265 0c16,0 30,0 41,-1 11,-1 20,-3 27,-7 6,-4 11,-9 14,-16 3,-7 4,-16 4,-29l0 -166 60 0 0 140c0,12 1,23 3,32 1,10 4,19 9,26 5,6 12,12 20,16 8,3 19,5 31,5 20,0 29,10 29,29 0,12 -2,21 -7,25 -4,4 -12,7 -22,7zm-441 -360c0,-11 4,-20 12,-27 7,-7 16,-11 27,-11 11,0 20,4 27,11 8,7 11,16 11,27 0,11 -3,20 -11,27 -7,8 -16,12 -27,12 -11,0 -20,-4 -27,-12 -8,-7 -12,-16 -12,-27zm95 0c0,-11 4,-20 11,-27 8,-7 17,-11 28,-11 10,0 19,4 27,11 7,7 11,16 11,27 0,11 -4,20 -11,27 -8,8 -17,12 -27,12 -11,0 -20,-4 -28,-12 -7,-7 -11,-16 -11,-27zm346 360c-19,0 -29,-10 -29,-29 0,-13 2,-21 7,-25 4,-4 12,-7 22,-7l106 0 2 0 1 0 104 0 2 0 2 0 104 0 2 0 2 0 104 0 2 0 1 0 104 0 2 0 2 0 104 0 2 0 2 0 104 0 2 0 1 0 105 0 1 0 2 0 104 0 2 0 2 0 104 0 2 0 1 0 105 0 1 0 2 0 24 0c16,0 30,0 41,-1 11,-1 20,-3 26,-7 7,-4 11,-9 14,-16 3,-7 5,-16 5,-29l0 -130 59 0 0 104c0,12 1,23 3,32 1,10 5,19 10,26 5,6 13,12 23,16 10,3 23,5 40,5 11,0 20,0 28,-1 7,-1 14,-3 19,-7 6,-4 10,-9 12,-16 3,-7 4,-16 4,-29l0 -130 60 0 0 104c0,12 1,23 3,32 1,10 5,19 10,26 5,6 12,12 21,16 9,3 21,5 35,5 9,0 16,0 23,-1 7,-1 12,-3 17,-7 5,-4 9,-9 12,-16 2,-7 4,-16 4,-29l0 -166 59 0 0 140c0,12 1,23 3,32 2,10 5,19 10,26 5,6 11,12 19,16 8,3 19,5 32,5 19,0 29,10 29,29 0,12 -2,21 -7,25 -5,4 -12,7 -22,7 -19,0 -35,-5 -46,-14 -12,-9 -20,-20 -24,-34 -4,11 -10,19 -18,25 -7,6 -16,10 -25,14 -8,3 -17,6 -25,7 -8,1 -15,2 -21,2 -16,0 -30,-2 -41,-5 -10,-3 -20,-7 -27,-11 -7,-4 -13,-10 -17,-15 -4,-6 -7,-11 -10,-17 -8,20 -22,33 -40,39 -18,6 -40,9 -65,9 -17,0 -32,-2 -43,-5 -11,-2 -21,-6 -28,-10 -7,-5 -13,-10 -17,-16 -5,-6 -8,-12 -11,-17 -4,10 -10,18 -16,24 -7,6 -15,11 -26,15 -10,3 -23,6 -38,7 -16,1 -34,2 -55,2l-23 0 -2 0 -1 0 -104 0 -2 0 -2 0 -104 0 -2 0 -2 0 -104 0 -2 0 -1 0 -104 0 -2 0 -2 0 -104 0 -2 0 -2 0 -104 0 -2 0 -1 0 -104 0 -2 0 -2 0 -104 0 -2 0 -2 0 -104 0 -2 0 -1 0 -105 0 -1 0 -2 0 -106 0zm1802 0c-19,0 -29,-10 -29,-29 0,-13 2,-21 7,-25 4,-4 12,-7 22,-7l163 0c27,0 46,-4 58,-12 11,-9 17,-20 17,-34 0,-13 -5,-28 -16,-44 -11,-16 -25,-33 -44,-50 -19,-16 -42,-33 -67,-49 -25,-16 -53,-30 -83,-44 1,-6 2,-12 4,-18 1,-6 3,-12 5,-17 3,-6 5,-10 7,-14 3,-3 5,-6 7,-7l272 -117 0 61 -214 94c51,26 92,54 123,84 30,29 50,59 60,88 6,17 12,31 17,41 6,10 11,18 17,24 6,6 13,10 20,11 7,2 15,3 24,3 20,0 29,10 29,29 0,12 -2,21 -6,25 -5,4 -13,7 -23,7 -10,0 -19,-1 -28,-2 -8,-1 -16,-4 -23,-8 -8,-4 -15,-9 -21,-17 -7,-7 -13,-17 -19,-30l-3 0c-9,23 -24,38 -46,45 -22,8 -49,12 -80,12l-150 0zm396 -61c16,0 30,0 40,-1 12,-1 20,-3 27,-7 7,-4 11,-9 14,-16 3,-7 4,-16 4,-29l0 -130 60 0 0 104c0,12 1,23 2,32 2,10 6,19 11,26 5,6 13,12 22,16 10,3 23,5 40,5 11,0 20,0 28,-1 8,-1 15,-3 20,-7 6,-4 10,-9 12,-16 3,-7 4,-16 4,-29l0 -130 60 0 0 104c0,12 1,23 3,32 1,10 4,19 9,26 5,6 11,12 19,16 9,3 19,5 32,5l61 0 0 -219 59 0 0 280 -120 0c-19,0 -34,-5 -46,-14 -11,-9 -19,-20 -23,-34 -9,20 -22,33 -41,39 -18,6 -40,9 -67,9 -17,0 -31,-2 -41,-5 -11,-2 -20,-6 -28,-10 -7,-5 -13,-10 -17,-16 -4,-6 -7,-12 -10,-17 -4,10 -10,18 -16,24 -7,6 -16,11 -26,15 -10,3 -23,6 -39,7 -15,1 -33,2 -55,2l-24 0c-19,0 -29,-10 -29,-29 0,-13 2,-21 7,-25 5,-4 12,-7 22,-7l26 0zm223 -341c0,-11 4,-20 12,-27 7,-8 16,-11 27,-11 11,0 20,3 27,11 8,7 11,16 11,27 0,11 -3,20 -11,27 -7,8 -16,12 -27,12 -11,0 -20,-4 -27,-12 -8,-7 -12,-16 -12,-27zm95 0c0,-11 4,-20 11,-27 8,-8 17,-11 28,-11 10,0 19,3 27,11 7,7 11,16 11,27 0,11 -4,20 -11,27 -8,8 -17,12 -27,12 -11,0 -20,-4 -28,-12 -7,-7 -11,-16 -11,-27zm-46 -87c0,-11 4,-20 11,-27 8,-8 17,-12 28,-12 10,0 19,4 27,12 7,7 11,16 11,27 0,11 -4,20 -11,27 -8,8 -17,11 -27,11 -11,0 -20,-3 -28,-11 -7,-7 -11,-16 -11,-27zm663 457c0,12 -2,21 -6,25 -5,4 -12,7 -23,7l-19 0c-15,0 -29,-2 -42,-5 -13,-3 -24,-9 -33,-17 -9,-7 -16,-18 -21,-30 -5,-13 -8,-29 -8,-49l0 -418 60 0 0 402c0,21 3,35 10,44 6,8 20,12 42,12l11 0c20,0 29,10 29,29zm-29 32c-19,0 -29,-10 -29,-29 0,-13 3,-21 7,-25 5,-4 12,-7 22,-7l114 0 0 -219 59 0 0 280 -173 0zm93 108c0,-11 3,-20 11,-27 8,-8 17,-12 27,-12 11,0 20,4 28,12 7,7 11,16 11,27 0,10 -4,19 -11,27 -8,7 -17,11 -28,11 -10,0 -19,-4 -27,-11 -8,-8 -11,-17 -11,-27zm423 -108l-80 0 0 -74c0,-27 6,-51 18,-71 13,-20 33,-35 62,-43l0 37c-9,2 -16,7 -21,12 -6,6 -10,12 -14,18 -3,7 -5,14 -7,21 -1,7 -1,13 -1,19l43 0 0 81zm455 0c-20,0 -37,-5 -50,-13 -14,-8 -27,-23 -41,-44 -6,13 -13,23 -21,31 -8,8 -18,14 -28,17 -11,4 -22,6 -33,7 -12,1 -23,2 -35,2l-111 0 0 -61 130 0c21,0 36,-2 47,-7 11,-5 17,-13 17,-22 0,-10 -3,-19 -8,-28 -4,-9 -10,-19 -18,-30l-77 -114 56 -35 88 145c9,16 18,30 25,41 7,12 14,21 21,29 6,7 13,12 19,16 6,4 12,5 19,5 19,0 29,10 29,29 0,12 -2,21 -7,25 -5,4 -12,7 -22,7zm0 0c-20,0 -29,-10 -29,-29 0,-13 2,-21 7,-25 4,-4 12,-7 22,-7l48 0c12,0 22,0 30,-1 9,-1 16,-3 21,-7 6,-4 10,-9 13,-16 2,-7 4,-16 4,-29l0 -166 59 0 0 140c0,12 1,23 3,32 1,10 5,19 10,26 4,6 11,12 19,16 8,3 19,5 32,5 19,0 29,10 29,29 0,12 -3,21 -7,25 -5,4 -12,7 -22,7 -19,0 -35,-5 -46,-14 -12,-9 -20,-20 -24,-34 -9,20 -22,33 -41,39 -18,6 -41,9 -68,9l-60 0zm57 109c0,-11 4,-20 12,-27 7,-7 16,-11 27,-11 11,0 20,4 27,11 8,7 11,16 11,27 0,11 -3,20 -11,27 -7,8 -16,12 -27,12 -11,0 -20,-4 -27,-12 -8,-7 -12,-16 -12,-27zm95 0c0,-11 4,-20 11,-27 8,-7 17,-11 28,-11 10,0 19,4 27,11 7,7 11,16 11,27 0,11 -4,20 -11,27 -8,8 -17,12 -27,12 -11,0 -20,-4 -28,-12 -7,-7 -11,-16 -11,-27zm86 -109c-19,0 -29,-10 -29,-29 0,-13 2,-21 7,-25 5,-4 12,-7 22,-7l49 0c11,0 21,0 30,-1 8,-1 15,-3 21,-7 5,-4 9,-9 12,-16 3,-7 4,-16 4,-29l0 -166 60 0 0 140c0,12 1,23 2,32 2,10 5,19 10,26 5,6 11,12 20,16 8,3 18,5 31,5 20,0 29,10 29,29 0,12 -2,21 -7,25 -4,4 -12,7 -22,7 -19,0 -34,-5 -46,-14 -11,-9 -19,-20 -23,-34 -9,20 -23,33 -41,39 -19,6 -42,9 -69,9l-60 0zm109 -402c0,-11 4,-20 12,-27 7,-8 16,-11 27,-11 11,0 20,3 27,11 8,7 11,16 11,27 0,11 -3,20 -11,27 -7,8 -16,12 -27,12 -11,0 -20,-4 -27,-12 -8,-7 -12,-16 -12,-27zm130 402c-20,0 -29,-10 -29,-29 0,-13 2,-21 7,-25 4,-4 12,-7 22,-7l163 0c26,0 46,-4 57,-12 12,-9 18,-20 18,-34 0,-13 -5,-28 -16,-44 -11,-16 -26,-33 -45,-50 -19,-16 -41,-33 -66,-49 -26,-16 -53,-30 -83,-44 1,-6 2,-12 3,-18 2,-6 4,-12 6,-17 3,-6 5,-10 7,-14 3,-3 5,-6 7,-7l272 -117 0 61 -214 94c51,26 92,54 122,84 31,29 51,59 61,88 6,17 12,31 17,41 5,10 11,18 17,24 6,6 13,10 20,11 7,2 15,3 24,3 19,0 29,10 29,29 0,12 -2,21 -7,25 -4,4 -12,7 -22,7 -10,0 -20,-1 -28,-2 -8,-1 -16,-4 -23,-8 -8,-4 -15,-9 -21,-17 -7,-7 -13,-17 -19,-30l-3 0c-9,23 -25,38 -46,45 -22,8 -49,12 -80,12l-150 0zm471 -402c0,-11 4,-20 11,-27 8,-8 17,-11 28,-11 10,0 19,3 27,11 7,7 11,16 11,27 0,11 -4,20 -11,27 -8,8 -17,12 -27,12 -11,0 -20,-4 -28,-12 -7,-7 -11,-16 -11,-27zm-102 402c-19,0 -29,-10 -29,-29 0,-13 2,-21 7,-25 5,-4 12,-7 22,-7l114 0 0 -219 59 0 0 280 -173 0zm-5431 1184l-59 0 0 -388 59 0 0 388zm-72 94c0,-12 4,-22 12,-31 9,-8 19,-12 31,-12 12,0 22,4 30,12 9,9 13,19 13,31 0,12 -4,22 -13,30 -8,9 -18,13 -30,13 -12,0 -22,-4 -31,-13 -8,-8 -12,-18 -12,-30zm480 35c-20,0 -37,-4 -50,-13 -14,-8 -27,-23 -41,-44 -5,13 -12,23 -21,31 -8,8 -18,14 -28,17 -10,4 -21,6 -33,7 -12,1 -23,2 -35,2l-111 0 0 -61 131 0c20,0 36,-2 47,-7 11,-5 16,-13 16,-22 0,-10 -3,-19 -7,-28 -5,-9 -11,-19 -18,-30l-78 -114 56 -35 88 145c9,16 18,30 25,41 7,12 14,21 21,29 7,7 13,12 19,16 6,4 12,5 19,5 19,0 29,10 29,29 0,12 -2,21 -7,25 -4,4 -12,7 -22,7zm0 0c-19,0 -29,-10 -29,-29 0,-13 2,-21 7,-25 4,-4 12,-7 22,-7l106 0 2 0 1 0 105 0 1 0 2 0 104 0 2 0 2 0 104 0 2 0 2 0 104 0 1 0 2 0 104 0 2 0 2 0 104 0 2 0 2 0 104 0 1 0 2 0 24 0c16,0 30,0 41,-1 11,-1 20,-3 26,-7 7,-4 12,-9 14,-16 3,-7 5,-16 5,-29l0 -130 59 0 0 104c0,12 1,23 3,33 1,9 5,18 10,25 5,6 13,12 23,16 9,3 23,5 39,5 11,0 20,0 29,-1 7,-1 14,-3 20,-7 5,-4 9,-9 11,-16 3,-7 4,-16 4,-29l0 -130 60 0 0 104c0,12 1,23 3,33 2,9 5,18 9,25 5,6 11,12 19,16 9,3 19,5 32,5l61 0 0 -219 59 0 0 280 -120 0c-19,0 -34,-5 -46,-14 -11,-9 -19,-20 -23,-34 -8,20 -22,33 -40,39 -19,6 -41,9 -67,9 -17,0 -31,-2 -42,-4 -11,-3 -20,-7 -28,-11 -7,-5 -12,-10 -16,-16 -5,-6 -8,-12 -11,-17 -4,10 -10,18 -16,24 -7,6 -15,11 -26,15 -10,3 -23,6 -38,7 -16,1 -34,2 -55,2l-23 0 -2 0 -1 0 -104 0 -2 0 -2 0 -104 0 -2 0 -2 0 -104 0 -2 0 -1 0 -104 0 -2 0 -2 0 -104 0 -2 0 -2 0 -104 0 -2 0 -1 0 -104 0 -2 0 -2 0 -106 0zm1110 -402c0,-11 4,-20 12,-27 7,-8 16,-11 27,-11 11,0 20,3 27,11 8,7 11,16 11,27 0,11 -3,20 -11,27 -7,8 -16,12 -27,12 -11,0 -20,-4 -27,-12 -8,-7 -12,-16 -12,-27zm95 0c0,-11 4,-20 11,-27 8,-8 17,-11 28,-11 10,0 19,3 27,11 7,7 11,16 11,27 0,11 -4,20 -11,27 -8,8 -17,12 -27,12 -11,0 -20,-4 -28,-12 -7,-7 -11,-16 -11,-27zm-46 -87c0,-10 4,-20 11,-27 8,-8 17,-11 28,-11 11,0 20,3 27,11 7,7 11,17 11,27 0,11 -4,20 -11,27 -7,8 -16,11 -27,11 -11,0 -20,-3 -28,-11 -7,-7 -11,-16 -11,-27zm-1496 -3810c0,-11 4,-20 12,-27 7,-8 16,-11 27,-11 11,0 20,3 27,11 8,7 12,16 12,27 0,11 -4,20 -12,27 -7,8 -16,12 -27,12 -11,0 -20,-4 -27,-12 -8,-7 -12,-16 -12,-27zm95 0c0,-11 4,-20 11,-27 8,-8 17,-11 28,-11 10,0 19,3 27,11 7,7 11,16 11,27 0,11 -4,20 -11,27 -8,8 -17,12 -27,12 -11,0 -20,-4 -28,-12 -7,-7 -11,-16 -11,-27zm535 328c0,12 -3,21 -7,25 -5,4 -12,6 -22,6l-19 0c-16,0 -30,-1 -43,-4 -13,-4 -23,-9 -33,-17 -9,-7 -16,-18 -21,-30 -5,-13 -7,-29 -7,-49l0 -418 59 0 0 402c0,20 4,35 10,43 6,9 20,13 42,13l12 0c19,0 29,10 29,29zm-29 31c-20,0 -29,-9 -29,-29 0,-12 2,-20 6,-24 5,-5 12,-7 23,-7l48 0c12,0 22,0 30,-1 9,-1 15,-4 21,-7 6,-4 10,-9 12,-16 3,-7 4,-17 4,-29l0 -166 60 0 0 139c0,12 1,23 3,33 1,10 5,19 9,25 5,7 12,12 20,16 8,4 19,6 32,6 19,0 29,10 29,29 0,12 -3,21 -7,25 -5,4 -12,6 -22,6 -19,0 -35,-4 -46,-13 -12,-9 -20,-20 -24,-34 -9,20 -22,33 -41,39 -18,6 -41,8 -69,8l-59 0zm57 110c0,-11 4,-20 12,-27 7,-8 16,-11 27,-11 11,0 20,3 27,11 8,7 11,16 11,27 0,11 -3,20 -11,27 -7,8 -16,12 -27,12 -11,0 -20,-4 -27,-12 -8,-7 -12,-16 -12,-27zm95 0c0,-11 4,-20 11,-27 8,-8 17,-11 27,-11 11,0 20,3 28,11 7,7 11,16 11,27 0,11 -4,20 -11,27 -8,8 -17,12 -28,12 -10,0 -19,-4 -27,-12 -7,-7 -11,-16 -11,-27zm86 -110c-19,0 -29,-9 -29,-29 0,-12 2,-20 7,-24 4,-5 12,-7 22,-7l114 0 0 -219 59 0 0 279 -173 0zm30 110c0,-11 4,-20 11,-27 8,-8 17,-11 28,-11 10,0 19,3 27,11 7,7 11,16 11,27 0,11 -4,20 -11,27 -8,8 -17,12 -27,12 -11,0 -20,-4 -28,-12 -7,-7 -11,-16 -11,-27zm94 0c0,-11 4,-20 12,-27 7,-8 17,-11 27,-11 11,0 20,3 27,11 8,7 12,16 12,27 0,11 -4,20 -12,27 -7,8 -16,12 -27,12 -10,0 -20,-4 -27,-12 -8,-7 -12,-16 -12,-27zm326 -110c-16,0 -29,-3 -40,-10 -10,-8 -18,-16 -24,-26 0,35 -2,64 -6,88 -4,24 -12,44 -23,59 -12,14 -28,25 -48,31 -21,7 -47,10 -80,10l0 -60c24,0 42,-3 56,-8 13,-5 23,-13 30,-24 6,-12 10,-26 11,-44 2,-18 2,-39 2,-64l0 -195 59 0 0 103c0,25 5,44 14,59 9,14 25,21 49,21 20,0 30,10 30,29 0,12 -3,21 -7,25 -5,4 -12,6 -23,6zm-132 -401c0,-11 4,-20 11,-27 8,-8 17,-11 28,-11 10,0 19,3 27,11 7,7 11,16 11,27 0,11 -4,20 -11,27 -8,8 -17,11 -27,11 -11,0 -20,-3 -28,-11 -7,-7 -11,-16 -11,-27zm424 341c0,-31 -4,-57 -12,-78 -9,-21 -20,-39 -34,-52 -14,-13 -31,-23 -49,-29 -19,-6 -39,-9 -60,-9 -14,0 -29,1 -45,4 -16,2 -29,5 -39,8l0 -58c10,-3 23,-6 39,-10 16,-3 33,-5 52,-5 37,0 69,6 96,19 26,12 48,29 65,51 17,22 29,47 37,75 8,29 12,59 12,91l0 53 -354 0c-19,0 -29,-9 -29,-29 0,-12 2,-20 7,-24 4,-5 12,-7 22,-7l292 0zm-140 169c0,-10 4,-19 11,-27 8,-7 17,-11 28,-11 10,0 19,4 27,11 7,8 11,17 11,27 0,11 -4,20 -11,28 -8,7 -17,11 -27,11 -11,0 -20,-4 -28,-11 -7,-8 -11,-17 -11,-28zm604 -140c0,12 -2,21 -7,25 -4,4 -12,6 -22,6l-19 0c-15,0 -30,-1 -42,-4 -13,-4 -24,-9 -33,-17 -9,-7 -16,-18 -21,-30 -5,-13 -8,-29 -8,-49l0 -418 60 0 0 402c0,20 3,35 10,43 6,9 20,13 42,13l11 0c20,0 29,10 29,29zm419 31c-18,0 -34,-3 -48,-10 -14,-8 -25,-20 -33,-37l0 -2c-9,19 -23,33 -40,43 -18,11 -40,16 -67,16 -23,0 -46,-4 -69,-12 -24,-7 -47,-20 -72,-39 -6,10 -13,17 -19,23 -7,5 -14,10 -21,12 -8,3 -15,5 -23,5 -7,1 -16,1 -24,1l-32 0c-19,0 -29,-9 -29,-29 0,-12 2,-20 7,-24 5,-5 12,-7 22,-7l30 0c6,0 12,-1 18,-2 7,-1 13,-4 19,-9 6,-5 13,-12 19,-20 6,-9 12,-20 17,-35 11,-31 23,-56 35,-75 12,-19 25,-34 38,-44 13,-11 26,-17 39,-21 14,-3 27,-5 40,-5 18,0 35,3 51,10 15,7 29,17 40,30 12,13 21,28 27,46 7,18 10,37 10,59 0,4 0,7 0,10 -1,3 -1,6 -1,9 5,16 12,27 21,35 10,8 25,12 45,12 19,0 29,10 29,29 0,12 -2,21 -7,25 -4,4 -12,6 -22,6zm-125 -128c0,-10 -2,-21 -5,-31 -3,-10 -8,-19 -14,-27 -6,-8 -13,-14 -22,-19 -9,-4 -19,-6 -31,-6 -20,0 -39,8 -56,26 -17,18 -33,50 -48,95 18,11 36,21 54,28 18,7 36,10 54,10 20,0 37,-5 49,-17 12,-12 19,-31 19,-59zm125 128c-20,0 -30,-9 -30,-29 0,-12 3,-20 7,-24 5,-5 12,-7 23,-7l105 0 2 0 2 0 104 0 2 0 2 0 104 0 2 0 1 0 104 0 2 0 2 0 104 0 2 0 2 0 104 0 2 0 1 0 104 0 2 0 2 0 104 0 2 0 2 0 104 0 2 0 1 0 105 0 1 0 2 0 104 0 2 0 2 0 104 0 2 0 1 0 105 0 1 0 2 0 104 0 2 0 2 0 104 0 2 0 2 0 23 0c17,0 30,0 41,-1 11,-1 20,-4 27,-7 6,-4 11,-9 14,-16 2,-7 4,-17 4,-29l0 -130 60 0 0 103c0,12 0,23 2,33 2,10 5,19 10,25 6,7 13,12 23,16 10,4 23,6 40,6 10,0 20,0 28,-1 8,-1 14,-4 20,-7 5,-4 9,-9 12,-16 2,-7 4,-17 4,-29l0 -130 59 0 0 103c0,12 1,23 3,33 2,10 5,19 10,25 4,7 11,12 19,16 8,4 18,6 31,6l61 0 0 -219 60 0 0 279 -121 0c-19,0 -34,-4 -45,-13 -12,-9 -20,-20 -23,-34 -9,20 -23,33 -41,39 -19,6 -41,8 -67,8 -17,0 -31,-1 -42,-4 -11,-2 -20,-6 -27,-10 -7,-5 -13,-10 -17,-16 -4,-6 -8,-12 -11,-17 -4,10 -9,18 -16,24 -7,6 -15,11 -26,14 -10,4 -23,7 -38,8 -15,1 -34,1 -55,1l-22 0 -2 0 -2 0 -104 0 -2 0 -2 0 -104 0 -2 0 -1 0 -104 0 -2 0 -2 0 -104 0 -2 0 -2 0 -104 0 -2 0 -1 0 -104 0 -2 0 -2 0 -104 0 -2 0 -2 0 -104 0 -2 0 -1 0 -104 0 -2 0 -2 0 -104 0 -2 0 -2 0 -104 0 -2 0 -1 0 -105 0 -1 0 -2 0 -104 0 -2 0 -2 0 -104 0 -2 0 -1 0 -106 0zm1864 -401c0,-11 3,-20 11,-27 8,-8 17,-11 27,-11 11,0 20,3 28,11 7,7 11,16 11,27 0,11 -4,20 -11,27 -8,8 -17,11 -28,11 -10,0 -19,-3 -27,-11 -8,-7 -11,-16 -11,-27zm94 0c0,-11 4,-20 12,-27 7,-8 16,-11 27,-11 11,0 20,3 27,11 8,7 11,16 11,27 0,11 -3,20 -11,27 -7,8 -16,11 -27,11 -11,0 -20,-3 -27,-11 -8,-7 -12,-16 -12,-27zm-46 -87c0,-11 4,-20 12,-27 7,-8 16,-12 27,-12 11,0 20,4 27,12 8,7 11,16 11,27 0,11 -3,20 -11,27 -7,8 -16,11 -27,11 -11,0 -20,-3 -27,-11 -8,-7 -12,-16 -12,-27zm696 488c-16,0 -30,-3 -40,-10 -11,-8 -19,-16 -24,-26 0,35 -2,64 -6,88 -5,24 -12,44 -24,59 -12,14 -28,25 -48,31 -20,7 -47,10 -80,10l0 -60c24,0 43,-3 56,-8 13,-5 23,-13 30,-24 7,-12 11,-26 12,-44 1,-18 1,-39 1,-64l0 -195 60 0 0 103c0,25 4,44 13,59 9,14 26,21 50,21 19,0 29,10 29,29 0,12 -3,21 -7,25 -5,4 -12,6 -22,6zm-1 0c-19,0 -29,-9 -29,-29 0,-12 3,-20 7,-24 5,-5 12,-7 22,-7l174 0c18,0 33,-3 45,-9 12,-6 18,-19 18,-36 0,-13 -6,-27 -18,-44 -12,-16 -28,-32 -47,-49 -20,-17 -43,-33 -68,-49 -26,-17 -51,-31 -78,-44 0,-6 2,-12 4,-18 3,-6 5,-12 8,-17 3,-5 6,-9 9,-13 3,-4 6,-7 8,-8l266 -117 0 59 -214 94c34,20 63,39 87,58 24,19 43,37 58,55 15,17 25,34 32,50 7,16 10,32 10,46 0,10 -1,21 -4,34 -4,12 -9,23 -18,33 -9,10 -21,19 -37,25 -16,7 -37,10 -62,10l-173 0zm39 -380c0,-7 1,-14 4,-21 2,-7 6,-14 9,-20 4,-6 8,-11 12,-16 4,-4 8,-8 11,-9l247 -113 0 55 -283 124zm422 -138l0 518 -60 0 0 -518 60 0zm-5597 1832c-28,0 -52,-2 -70,-6 -19,-4 -34,-10 -45,-19 -12,-8 -20,-19 -25,-32 -5,-14 -7,-30 -7,-49l0 -113 60 0 0 91c0,15 1,27 5,36 4,9 10,15 19,20 8,5 20,8 35,9 15,2 35,2 58,2l290 0c18,0 33,-3 45,-9 12,-6 18,-19 18,-36 0,-13 -6,-27 -18,-44 -12,-16 -28,-32 -47,-49 -20,-17 -43,-33 -68,-49 -25,-17 -52,-31 -78,-44 0,-6 2,-12 4,-18 3,-6 5,-12 8,-17 3,-5 6,-9 9,-13 3,-4 6,-7 8,-8l266 -117 0 59 -214 94c34,20 63,39 87,58 23,19 43,37 58,55 14,17 25,34 32,50 7,16 10,32 10,46 0,10 -1,21 -5,34 -3,12 -9,23 -17,33 -9,10 -22,19 -38,25 -16,7 -36,11 -61,11l-319 0zm600 -244l59 0 0 203c0,36 -3,66 -7,90 -4,25 -12,45 -23,60 -12,15 -28,25 -49,32 -20,7 -47,10 -80,10l0 -60c24,0 43,-3 56,-8 13,-5 23,-13 30,-24 7,-12 11,-26 12,-44 1,-18 2,-39 2,-64l0 -195zm399 164c0,23 -8,42 -24,57 -16,15 -39,23 -70,23l-174 0 0 -61 169 0c17,0 27,-2 31,-7 5,-5 7,-11 7,-18 0,-4 -1,-9 -3,-15 -2,-5 -7,-14 -14,-26 -8,-11 -19,-28 -33,-49 -15,-21 -34,-49 -59,-86l57 -35c19,33 36,62 50,84 14,23 26,43 35,59 9,15 16,29 21,41 5,11 7,22 7,33zm290 -439l0 519 -60 0 0 -519 60 0zm154 275l59 0 0 203c0,36 -2,66 -6,90 -4,25 -12,45 -24,60 -12,15 -28,25 -48,32 -21,7 -47,10 -80,10l0 -60c23,0 42,-3 55,-8 14,-5 24,-13 30,-24 7,-12 11,-26 12,-44 1,-18 2,-39 2,-64l0 -195zm253 45l59 0 0 100c0,47 12,80 36,99 24,18 60,28 107,28 24,0 45,-2 62,-6 18,-3 32,-10 44,-19 11,-9 20,-21 25,-37 5,-15 8,-35 8,-59l0 -187 59 0 0 187c0,64 -18,110 -53,138 -35,28 -84,42 -147,42 -67,0 -117,-14 -150,-44 -33,-30 -50,-73 -50,-130l0 -112zm164 -109c0,-10 4,-19 11,-27 8,-7 17,-11 28,-11 10,0 19,4 27,11 7,8 11,17 11,27 0,11 -4,20 -11,28 -8,7 -17,11 -27,11 -11,0 -20,-4 -28,-11 -7,-8 -11,-17 -11,-28zm489 276c0,12 -2,21 -6,25 -5,4 -12,7 -23,7l-19 0c-15,0 -29,-2 -42,-5 -13,-3 -24,-9 -33,-17 -9,-7 -16,-18 -21,-30 -5,-13 -8,-29 -8,-49l0 -418 60 0 0 402c0,21 3,35 10,43 6,9 20,13 42,13l11 0c20,0 29,10 29,29zm-29 32c-19,0 -29,-10 -29,-29 0,-13 3,-21 7,-25 5,-5 12,-7 22,-7l114 0 0 -219 59 0 0 280 -173 0zm49 -402c0,-11 4,-20 11,-27 8,-8 17,-11 28,-11 10,0 20,3 27,11 7,7 11,16 11,27 0,11 -4,20 -11,27 -7,8 -17,12 -27,12 -11,0 -20,-4 -28,-12 -7,-7 -11,-16 -11,-27zm95 0c0,-11 3,-20 11,-27 8,-8 17,-11 27,-11 11,0 20,3 28,11 7,7 11,16 11,27 0,11 -4,20 -11,27 -8,8 -17,12 -28,12 -10,0 -19,-4 -27,-12 -8,-7 -11,-16 -11,-27zm184 158l59 0 0 203c0,36 -2,66 -6,90 -5,25 -13,45 -24,60 -12,15 -28,25 -49,32 -20,7 -47,10 -80,10l0 -60c24,0 43,-3 56,-8 13,-5 24,-13 30,-24 7,-12 11,-26 12,-44 1,-18 2,-39 2,-64l0 -195zm312 212c0,12 -2,21 -7,25 -4,4 -12,7 -22,7l-19 0c-15,0 -30,-2 -42,-5 -13,-3 -24,-9 -33,-17 -9,-7 -16,-18 -21,-30 -5,-13 -8,-29 -8,-49l0 -418 60 0 0 402c0,21 3,35 10,43 6,9 20,13 42,13l11 0c20,0 29,10 29,29zm-29 32c-19,0 -29,-10 -29,-29 0,-13 2,-21 7,-25 5,-5 12,-7 22,-7l174 0c18,0 33,-3 45,-9 12,-6 18,-19 18,-36 0,-13 -6,-27 -18,-44 -12,-16 -28,-32 -47,-49 -20,-17 -43,-33 -68,-49 -26,-17 -52,-31 -78,-44 0,-6 2,-12 4,-18 3,-6 5,-12 8,-17 3,-5 6,-9 9,-13 3,-4 6,-7 8,-8l266 -117 0 59 -214 94c34,20 63,39 87,58 23,19 43,37 58,55 14,17 25,34 32,50 7,16 10,32 10,46 0,10 -1,21 -4,34 -4,12 -9,23 -18,33 -9,10 -21,19 -37,25 -16,7 -37,11 -62,11l-173 0zm656 0c-19,0 -37,-3 -53,-7 -16,-4 -30,-11 -42,-21 -12,-10 -22,-24 -29,-40 -7,-16 -10,-37 -10,-61 0,-19 3,-38 9,-57 6,-19 16,-35 28,-50 12,-14 27,-26 45,-35 18,-8 38,-13 62,-13 25,0 47,5 65,14 17,10 32,23 42,40 11,16 19,36 23,59 5,23 7,49 7,76l0 68c0,37 -5,66 -14,89 -10,23 -24,41 -42,55 -18,13 -40,22 -66,27 -26,5 -55,7 -88,7l-31 0 0 -60 23 0c23,0 44,-1 63,-3 20,-2 36,-6 50,-13 14,-7 25,-17 32,-30 8,-13 12,-30 12,-53l0 -13c-9,5 -20,10 -34,14 -14,4 -31,7 -52,7zm-76 -135c0,27 7,47 22,59 15,12 35,17 59,17 19,0 35,-2 49,-7 14,-5 25,-10 32,-16l0 -27c0,-16 -1,-32 -4,-46 -3,-15 -7,-27 -13,-38 -6,-10 -15,-18 -25,-24 -10,-6 -23,-9 -37,-9 -15,0 -28,3 -38,8 -11,6 -19,13 -26,22 -6,9 -11,19 -14,29 -3,11 -5,21 -5,32zm669 245c0,-11 4,-20 12,-27 7,-8 17,-11 27,-11 11,0 20,3 27,11 8,7 12,16 12,27 0,10 -4,19 -12,27 -7,8 -16,11 -27,11 -10,0 -20,-3 -27,-11 -8,-8 -12,-17 -12,-27z"/>
   <path class="fil1" d="M10507 6583c-2,60 -20,106 -54,137 -33,30 -81,46 -143,46 -32,0 -61,-5 -85,-14 -25,-9 -46,-22 -62,-38 -16,-16 -29,-36 -37,-59 -9,-22 -13,-47 -13,-75l0 -110 58 0 0 98c0,92 47,139 141,139 48,0 83,-10 104,-31 22,-21 33,-55 33,-103l0 -501 58 0 0 451 56 0c19,0 28,10 28,29 0,12 -2,20 -6,24 -5,5 -12,7 -22,7l-56 0zm174 -3163c-86,0 -159,-6 -217,-18 -58,-13 -105,-33 -139,-61 -35,-27 -60,-63 -76,-106 -15,-44 -23,-97 -23,-159l0 -360 284 0 0 321c0,29 4,52 11,69 8,17 21,30 40,40 18,10 44,16 76,19 32,3 73,4 122,4l692 0c-11,-23 -20,-53 -25,-88 -5,-35 -8,-68 -8,-99 0,-56 10,-112 30,-167 20,-55 49,-104 85,-147 37,-43 83,-77 138,-104 55,-26 118,-39 188,-39 84,0 152,15 206,45 53,29 96,67 127,113 31,45 53,96 66,153 12,55 18,110 18,162l0 171 173 0c12,0 22,2 33,4 10,3 19,8 27,15 8,8 14,20 19,36 4,16 6,38 6,66 0,49 -7,83 -20,102 -14,19 -36,28 -65,28l-1768 0zm1012 -451c0,76 18,128 53,157 35,29 77,43 124,43l125 0 0 -165c0,-29 -2,-57 -5,-84 -4,-26 -11,-50 -22,-70 -11,-20 -26,-37 -45,-49 -19,-13 -44,-19 -74,-19 -29,0 -54,6 -75,17 -20,11 -36,25 -48,42 -11,18 -20,37 -25,60 -5,22 -8,45 -8,68zm-4 -792c0,-42 15,-78 46,-109 30,-31 67,-46 110,-46 41,0 78,15 108,46 31,30 46,67 46,109 0,42 -15,78 -46,109 -30,30 -67,45 -108,45 -42,0 -79,-15 -110,-45 -31,-31 -46,-67 -46,-109zm759 1243c-11,0 -22,-1 -33,-3 -10,-2 -19,-7 -28,-15 -8,-8 -14,-20 -18,-37 -5,-15 -6,-37 -6,-65 0,-50 7,-84 20,-103 14,-18 36,-28 65,-28l320 0 2 0 1 0 1 0 1 0 1 0 317 0 2 0 1 0 1 0 1 0 1 0 318 0 1 0 1 0 1 0 1 0 1 0 318 0 1 0 1 0 1 0 1 0 2 0 317 0 1 0 1 0 2 0 1 0 1 0 317 0 1 0 2 0 1 0 1 0 1 0 320 0c11,0 22,2 32,4 10,3 20,8 28,15 8,8 15,20 19,36 4,16 6,38 6,66 0,49 -7,83 -21,102 -14,19 -35,28 -64,28l-321 0 -1 0 -1 0 -1 0 -1 0 -2 0 -317 0 -1 0 -2 0 -1 0 -1 0 -1 0 -317 0 -1 0 -2 0 -1 0 -1 0 -1 0 -317 0 -1 0 -2 0 -1 0 -1 0 -1 0 -317 0 -2 0 -1 0 -1 0 -1 0 -1 0 -317 0 -2 0 -1 0 -1 0 -1 0 -1 0 -320 0zm3043 -251c-4,-58 -14,-111 -28,-160 -15,-48 -37,-90 -67,-125 -29,-34 -68,-62 -114,-81 -47,-19 -105,-29 -175,-29 -23,0 -60,3 -110,9 -50,7 -101,17 -152,32l0 -253c34,-11 79,-23 137,-36 57,-13 116,-20 177,-20 114,0 210,19 288,58 78,39 141,92 188,157 48,66 83,141 104,228 21,86 31,176 31,269l0 202 -1060 0c-11,0 -22,-1 -33,-3 -10,-2 -19,-7 -28,-15 -8,-8 -14,-20 -18,-37 -5,-15 -6,-37 -6,-65 0,-50 7,-84 20,-103 14,-18 36,-28 65,-28l781 0zm-206 613c0,-42 16,-78 46,-109 30,-30 67,-45 110,-45 42,0 78,15 108,45 31,31 46,67 46,109 0,42 -15,78 -46,108 -30,31 -66,46 -108,46 -42,0 -79,-15 -110,-46 -30,-30 -46,-66 -46,-108zm-3607 1427c-61,0 -115,-9 -161,-26 -47,-18 -79,-35 -97,-51 -1,114 -16,208 -43,282 -28,75 -68,136 -119,181 -52,46 -114,78 -188,97 -73,19 -157,28 -250,28 -396,0 -594,-188 -594,-564l0 -298 282 0 0 288c0,101 27,179 80,233 53,54 132,81 237,81 109,0 190,-23 241,-68 52,-45 77,-122 77,-231l0 -723 282 0 0 370c0,46 12,83 37,110 25,26 64,40 118,40 42,0 79,-7 109,-19 31,-13 46,-41 46,-86l0 -415 281 0 0 370c0,51 9,89 28,113 18,25 52,37 101,37l138 0 0 -616 281 0 0 867 -333 0c-42,0 -78,-3 -108,-9 -30,-6 -55,-13 -77,-24 -21,-10 -39,-22 -53,-36 -13,-14 -25,-29 -35,-44 -37,42 -79,71 -128,88 -48,16 -99,25 -152,25zm1942 -131c0,101 -13,189 -38,262 -26,73 -67,134 -123,182 -57,48 -129,83 -217,106 -88,22 -194,34 -318,34l-67 0 0 -266 50 0c79,0 145,-6 198,-16 53,-10 95,-24 127,-42 31,-18 54,-40 68,-65 15,-25 24,-53 26,-84 -43,13 -96,20 -160,20 -58,0 -112,-8 -163,-22 -51,-15 -95,-38 -132,-71 -37,-33 -66,-75 -88,-127 -22,-51 -34,-113 -34,-185 0,-59 10,-116 30,-173 20,-56 48,-107 85,-152 37,-45 84,-81 139,-108 56,-26 120,-40 192,-40 81,0 148,14 202,41 55,28 98,66 131,117 32,50 56,110 71,179 14,68 21,144 21,227l0 183zm-591 -301c0,74 14,124 44,149 29,26 69,39 120,39 58,0 106,-10 144,-31l0 -106c0,-74 -11,-133 -33,-176 -21,-44 -60,-66 -117,-66 -57,0 -98,18 -122,56 -24,37 -36,83 -36,135zm1438 432c-19,0 -46,-5 -79,-14 -34,-8 -63,-27 -88,-56 -1,98 -13,180 -34,247 -22,66 -55,120 -98,160 -44,41 -99,70 -166,87 -67,18 -147,27 -241,29l0 -266c60,-1 107,-8 143,-21 34,-12 61,-31 79,-55 17,-25 28,-56 33,-95 5,-38 7,-85 7,-139l0 -648 282 0 0 370c0,57 17,96 52,117 34,22 71,33 110,33 11,0 22,1 32,4 11,2 20,7 28,15 8,8 14,19 19,35 4,16 6,38 6,66 0,49 -7,84 -21,102 -14,19 -35,29 -64,29zm-459 -1170c0,-42 15,-78 46,-109 30,-30 67,-46 110,-46 42,0 78,15 109,46 30,30 45,67 45,109 0,42 -15,78 -45,109 -31,30 -67,46 -109,46 -42,0 -79,-16 -109,-46 -31,-31 -47,-67 -47,-109zm458 1170c-12,0 -22,-1 -33,-4 -10,-2 -19,-7 -28,-15 -8,-8 -14,-20 -18,-36 -5,-16 -6,-38 -6,-65 0,-50 7,-84 20,-103 14,-19 36,-28 65,-28l320 0 2 0 1 0 1 0 1 0 1 0 320 0c11,0 22,1 32,4 10,2 20,7 28,15 8,8 15,19 19,35 4,16 6,38 6,66 0,49 -7,84 -21,102 -13,19 -35,29 -64,29l-320 0 -2 0 -1 0 -1 0 -1 0 -1 0 -320 0zm1323 773l-525 74 0 -104 525 -74 0 104zm-426 -1024l0 -616 286 0 0 867 -537 0c-11,0 -22,-1 -32,-4 -11,-2 -20,-7 -28,-15 -8,-8 -15,-20 -19,-36 -4,-16 -6,-38 -6,-65 0,-50 7,-84 21,-103 13,-19 35,-28 64,-28l251 0zm-35 610c0,-42 15,-78 46,-108 30,-31 67,-46 110,-46 41,0 77,15 108,46 31,30 46,66 46,108 0,42 -15,78 -46,109 -31,30 -67,45 -108,45 -43,0 -79,-15 -110,-45 -31,-31 -46,-67 -46,-109zm-3280 1880l106 0c4,0 8,0 11,1 3,1 6,3 9,5 3,3 5,7 6,12 2,5 2,12 2,21 0,17 -2,28 -6,34 -5,6 -12,9 -22,9l-104 0 -2 0 -106 0c-4,0 -7,0 -11,-1 -3,0 -6,-2 -9,-5 -2,-2 -4,-6 -6,-12 -1,-5 -2,-12 -2,-21 0,-16 2,-28 7,-34 5,-6 12,-9 21,-9l104 0 2 0zm380 -51c0,-7 -1,-14 -2,-21 -2,-7 -4,-14 -8,-19 -4,-6 -8,-10 -14,-14 -6,-3 -14,-5 -22,-5 -7,0 -13,1 -20,5 -6,3 -13,8 -19,15 -6,7 -12,16 -18,28 -5,11 -10,26 -13,43 12,7 23,13 34,17 10,5 22,7 34,7 16,0 28,-5 36,-15 8,-10 12,-24 12,-41zm-236 51c5,0 12,-5 21,-14 8,-10 16,-23 22,-42 11,-27 22,-49 35,-67 12,-18 25,-33 38,-43 14,-11 27,-19 40,-23 13,-4 27,-6 40,-6 18,0 36,3 52,10 16,8 30,18 42,30 12,13 21,29 27,47 7,18 10,38 10,59 0,43 -10,77 -31,102 -21,26 -53,38 -96,38 -19,0 -39,-3 -58,-9 -19,-5 -40,-15 -61,-29 -13,14 -25,22 -38,25 -13,3 -27,4 -43,4l-38 0c-3,0 -7,0 -10,-1 -4,0 -7,-2 -9,-5 -3,-2 -5,-6 -7,-12 -1,-5 -2,-12 -2,-21 0,-16 3,-28 7,-34 5,-6 12,-9 21,-9l38 0zm499 -428l0 510 -93 0 0 -510 93 0zm-173 -92c14,-13 26,-22 37,-26 11,-5 21,-7 31,-7 9,0 21,2 33,7 13,4 25,9 35,15 11,5 21,9 30,12 10,2 18,4 25,4 9,0 16,-4 22,-10 6,-7 10,-15 12,-22l37 16c-8,22 -17,38 -28,49 -10,11 -25,17 -43,17 -13,0 -26,-2 -38,-5 -11,-4 -22,-8 -33,-14 -11,-4 -21,-8 -30,-12 -10,-4 -19,-6 -27,-6 -7,0 -13,2 -19,4 -6,2 -13,6 -21,12l-23 -34zm1068 602c-14,0 -28,-2 -41,-6 -14,-5 -26,-15 -34,-30 -6,8 -13,15 -21,20 -8,4 -16,8 -25,11 -9,2 -19,4 -29,4 -9,1 -19,1 -29,1l-314 0c-29,0 -52,-2 -72,-6 -19,-4 -34,-10 -45,-19 -12,-10 -20,-21 -25,-36 -5,-14 -7,-31 -7,-52l0 -118 93 0 0 106c0,9 1,17 4,22 2,6 7,10 13,13 6,3 14,6 25,7 10,1 24,1 40,1l273 0c17,0 28,-2 34,-8 7,-5 10,-16 10,-33l0 -161 93 0 0 153c0,17 3,30 11,37 7,8 23,12 46,12 4,0 7,0 11,1 3,1 6,3 9,5 2,3 4,7 6,12 1,5 2,12 2,21 0,17 -2,28 -7,34 -4,6 -11,9 -21,9zm-461 -367c0,-14 5,-26 15,-36 10,-10 22,-15 36,-15 14,0 26,5 36,15 10,10 15,22 15,36 0,13 -5,25 -15,35 -10,10 -22,15 -36,15 -14,0 -26,-5 -36,-15 -10,-10 -15,-22 -15,-35zm117 0c0,-14 5,-26 15,-36 10,-10 22,-15 35,-15 14,0 26,5 36,15 11,10 16,22 16,36 0,13 -5,25 -16,35 -10,10 -21,15 -36,15 -13,0 -25,-5 -35,-15 -10,-10 -15,-22 -15,-35zm344 367c-4,0 -8,0 -11,-1 -3,0 -6,-2 -9,-5 -3,-2 -5,-6 -6,-12 -2,-5 -2,-12 -2,-21 0,-16 2,-28 7,-34 4,-6 11,-9 21,-9l106 0c4,0 7,0 11,1 3,1 6,3 9,5 2,3 4,7 6,12 1,5 2,12 2,21 0,17 -2,28 -7,34 -4,6 -12,9 -21,9l-106 0zm106 0c-4,0 -7,0 -11,-1 -3,0 -6,-2 -9,-5 -3,-2 -5,-6 -6,-12 -2,-5 -2,-12 -2,-21 0,-16 2,-28 7,-34 4,-6 11,-9 21,-9l106 0c4,0 7,0 11,1 3,1 6,3 9,5 2,3 4,7 6,12 1,5 2,12 2,21 0,17 -2,28 -7,34 -4,6 -11,9 -21,9l-106 0zm106 0c-4,0 -7,0 -11,-1 -3,0 -6,-2 -9,-5 -3,-2 -5,-6 -6,-12 -1,-5 -2,-12 -2,-21 0,-16 2,-28 7,-34 4,-6 11,-9 21,-9l106 0c4,0 7,0 11,1 3,1 6,3 9,5 3,3 5,7 6,12 1,5 2,12 2,21 0,17 -2,28 -7,34 -4,6 -11,9 -21,9l-106 0zm273 -82c10,0 20,-2 29,-6 9,-4 14,-12 14,-25 0,-8 -6,-20 -17,-34 -10,-15 -25,-30 -42,-47 -18,-16 -38,-32 -61,-48 -22,-16 -45,-30 -68,-42 3,-16 7,-29 12,-39 5,-10 10,-18 14,-24 5,-7 10,-11 14,-14 5,-4 9,-6 11,-7l251 -110 0 95 -170 71 0 2c29,18 53,37 71,55 19,18 34,36 45,53 11,17 19,33 24,49 4,15 6,30 6,43 0,12 -2,24 -5,37 -3,12 -9,24 -18,35 -9,12 -22,21 -38,28 -17,7 -39,10 -65,10l-174 0c-4,0 -7,0 -11,-1 -3,0 -6,-2 -9,-5 -2,-2 -4,-6 -6,-12 -1,-5 -2,-12 -2,-21 0,-16 2,-28 7,-34 5,-6 12,-9 21,-9l167 0zm417 82c-6,0 -15,-1 -26,-4 -11,-3 -21,-9 -29,-19 0,33 -4,60 -11,82 -7,21 -18,39 -32,52 -15,14 -33,23 -55,29 -22,6 -48,9 -79,9l0 -87c20,-1 35,-3 47,-7 11,-4 20,-10 26,-18 6,-8 9,-18 11,-31 2,-13 2,-28 2,-46l0 -213 93 0 0 122c0,18 5,31 17,38 11,7 23,11 36,11 4,0 7,0 11,1 3,1 6,3 9,5 3,3 5,7 6,12 1,5 2,12 2,21 0,17 -2,28 -7,34 -4,6 -11,9 -21,9zm0 0c-4,0 -8,0 -11,-1 -3,0 -6,-2 -9,-5 -3,-2 -5,-6 -6,-12 -2,-5 -2,-12 -2,-21 0,-16 2,-28 7,-34 4,-6 11,-9 21,-9l104 0 2 0 104 0 2 0 104 0 2 0 104 0 2 0 105 0 1 0 105 0 1 0 105 0 2 0 29 0c11,0 19,0 26,-1 7,0 13,-2 17,-4 4,-2 7,-6 9,-10 2,-5 3,-11 3,-19l0 -137 92 0 0 122c0,15 4,27 13,36 8,9 21,13 39,13 13,0 25,-2 35,-6 10,-5 15,-14 15,-28l0 -137 93 0 0 122c0,33 14,49 43,49l44 0 0 -202 93 0 0 284 -109 0c-26,0 -45,-3 -58,-9 -13,-6 -24,-15 -33,-28 -7,10 -15,16 -23,21 -8,5 -16,9 -25,11 -9,3 -17,4 -25,5 -9,0 -17,0 -24,0 -25,0 -45,-4 -62,-12 -16,-7 -28,-16 -35,-25 -13,17 -30,27 -50,31 -21,4 -47,6 -79,6l-27 0 -1 0 -105 0 -2 0 -104 0 -2 0 -104 0 -2 0 -104 0 -2 0 -104 0 -2 0 -104 0 -2 0 -106 0zm955 -408c0,-14 5,-26 15,-36 10,-10 22,-15 36,-15 14,0 26,5 36,15 10,10 15,22 15,36 0,14 -5,26 -15,36 -10,10 -22,15 -36,15 -14,0 -26,-5 -36,-15 -10,-10 -15,-22 -15,-36zm117 0c0,-14 5,-26 15,-36 10,-10 22,-15 36,-15 13,0 25,5 36,15 10,10 15,22 15,36 0,14 -5,26 -15,36 -10,10 -22,15 -36,15 -14,0 -26,-5 -36,-15 -10,-10 -15,-22 -15,-36zm-57 -104c0,-14 5,-26 15,-36 10,-10 22,-15 36,-15 14,0 26,5 36,15 10,10 15,22 15,36 0,14 -5,26 -15,36 -10,10 -22,15 -36,15 -14,0 -25,-5 -36,-15 -10,-10 -15,-22 -15,-36zm-4940 -435c-19,0 -29,-10 -29,-29 0,-12 3,-20 7,-24 4,-4 12,-7 22,-7l29 0c6,0 12,-1 18,-2 6,-1 13,-4 19,-9 6,-5 12,-11 18,-20 6,-8 12,-20 17,-34 11,-30 23,-55 35,-74 12,-18 24,-33 37,-43 13,-10 26,-18 39,-21 13,-3 26,-5 39,-5 18,0 34,4 50,10 15,7 29,17 40,30 11,12 20,28 26,45 7,17 10,37 10,58 0,42 -10,75 -29,98 -20,24 -51,36 -92,36 -23,0 -46,-4 -69,-11 -22,-8 -46,-21 -70,-39 -6,9 -13,17 -19,22 -7,6 -14,10 -21,13 -7,2 -15,4 -22,5 -8,0 -16,1 -24,1l-31 0zm318 -127c0,-10 -2,-21 -5,-31 -3,-10 -8,-19 -14,-26 -6,-8 -13,-14 -22,-18 -8,-5 -18,-7 -30,-7 -20,0 -38,9 -55,26 -17,18 -32,49 -47,93 18,12 35,21 53,28 17,7 35,10 53,10 20,0 36,-5 48,-17 12,-11 19,-30 19,-58zm295 96c0,12 -3,20 -7,24 -5,5 -12,7 -22,7l-19 0c-15,0 -29,-2 -42,-5 -12,-3 -23,-9 -32,-16 -9,-7 -16,-18 -21,-30 -4,-13 -7,-29 -7,-48l0 -412 59 0 0 396c0,20 3,35 9,43 6,8 20,12 42,12l11 0c19,0 29,10 29,29zm-29 31c-18,0 -29,-10 -29,-29 0,-12 3,-20 7,-24 5,-4 12,-7 22,-7l88 0c-8,-9 -16,-20 -21,-35 -6,-14 -9,-30 -9,-48 0,-25 5,-47 14,-65 10,-18 22,-33 37,-45 15,-12 32,-21 50,-26 18,-6 37,-9 55,-9 17,0 32,1 44,3 13,2 22,4 27,6l0 64c-9,-3 -19,-5 -30,-7 -10,-2 -23,-4 -38,-4 -31,0 -55,8 -72,23 -18,14 -27,35 -27,60 0,24 8,45 23,60 15,15 38,23 70,23l105 0 0 60 -316 0zm705 0c-15,0 -29,-4 -39,-11 -10,-7 -18,-15 -24,-25 0,34 -2,63 -6,87 -4,24 -12,43 -23,57 -11,15 -27,25 -47,32 -20,6 -46,9 -79,9l0 -59c24,0 42,-3 55,-8 13,-4 23,-13 30,-24 6,-11 10,-26 11,-43 1,-17 2,-38 2,-63l0 -192 58 0 0 102c0,24 5,43 13,57 9,14 26,21 49,21 20,0 29,10 29,29 0,12 -2,20 -7,24 -4,4 -12,7 -22,7zm0 0c-18,0 -29,-10 -29,-29 0,-12 3,-20 7,-24 5,-4 12,-7 22,-7l112 0 0 -216 59 0 0 276 -171 0zm30 108c0,-11 3,-20 11,-27 7,-7 16,-11 27,-11 10,0 19,4 26,11 8,7 12,16 12,27 0,10 -4,19 -12,27 -7,7 -16,11 -26,11 -11,0 -20,-4 -27,-11 -8,-8 -11,-17 -11,-27zm93 0c0,-11 3,-20 11,-27 7,-7 16,-11 27,-11 10,0 19,4 27,11 7,7 11,16 11,27 0,10 -4,19 -11,27 -8,7 -17,11 -27,11 -11,0 -20,-4 -27,-11 -8,-8 -11,-17 -11,-27zm433 -108c-19,0 -36,-4 -49,-12 -13,-8 -27,-23 -40,-44 -6,13 -13,23 -21,31 -8,7 -17,13 -28,17 -10,3 -21,6 -32,6 -11,1 -23,2 -35,2l-109 0 0 -60 129 0c20,0 35,-2 46,-7 11,-5 16,-12 16,-22 0,-9 -2,-18 -7,-27 -5,-9 -11,-19 -18,-30l-76 -112 55 -34 86 142c10,16 18,30 25,41 7,11 15,21 21,28 6,7 13,13 19,16 5,4 12,5 18,5 20,0 29,10 29,29 0,12 -2,20 -7,24 -4,5 -12,7 -22,7zm0 0c-18,0 -28,-10 -28,-29 0,-12 2,-20 7,-24 4,-4 11,-7 21,-7l30 0c6,0 12,-1 18,-2 6,-1 12,-4 18,-9 6,-5 13,-11 19,-20 5,-8 12,-20 17,-34 11,-30 22,-55 34,-74 12,-18 25,-33 38,-43 12,-10 25,-18 38,-21 14,-3 27,-5 40,-5 17,0 34,4 49,10 16,7 30,17 41,30 11,12 20,28 26,45 6,17 10,37 10,58 0,42 -10,75 -30,98 -19,24 -50,36 -91,36 -23,0 -46,-4 -69,-11 -23,-8 -46,-21 -71,-39 -6,9 -12,17 -19,22 -6,6 -13,10 -20,13 -7,2 -15,4 -22,5 -8,0 -16,1 -25,1l-31 0zm318 -127c0,-10 -2,-21 -4,-31 -3,-10 -8,-19 -14,-26 -6,-8 -14,-14 -22,-18 -8,-5 -19,-7 -30,-7 -20,0 -39,9 -55,26 -17,18 -33,49 -48,93 18,12 36,21 53,28 17,7 35,10 54,10 20,0 36,-5 48,-17 12,-11 18,-30 18,-58zm378 127c-18,0 -36,-3 -52,-7 -15,-4 -30,-11 -41,-21 -12,-9 -22,-23 -28,-39 -7,-16 -11,-36 -11,-60 0,-19 4,-38 10,-56 6,-18 15,-35 27,-49 12,-14 27,-26 44,-34 18,-9 38,-13 61,-13 26,0 47,4 65,14 17,9 31,22 41,38 11,17 19,36 23,59 4,22 7,48 7,75l0 67c0,36 -5,65 -15,88 -9,22 -23,40 -41,53 -17,13 -39,23 -65,27 -25,5 -55,7 -86,7l-30 0 0 -59 22 0c23,0 43,-1 62,-3 19,-2 36,-6 49,-13 14,-7 25,-17 32,-29 8,-13 12,-30 12,-52l0 -14c-9,5 -20,10 -34,14 -14,5 -31,7 -52,7zm-74 -133c0,27 7,46 22,58 14,12 34,18 58,18 18,0 34,-3 48,-8 14,-4 24,-10 32,-15l0 -27c0,-16 -2,-32 -4,-46 -3,-14 -7,-26 -13,-37 -7,-10 -15,-18 -25,-24 -10,-6 -22,-9 -37,-9 -14,0 -27,3 -37,9 -10,5 -19,13 -25,21 -7,9 -12,18 -15,29 -3,10 -4,21 -4,31zm1219 133c-18,0 -33,-5 -44,-14 -12,-8 -19,-19 -23,-33 -5,10 -10,18 -18,24 -8,6 -16,11 -25,14 -8,3 -17,6 -24,7 -8,1 -16,2 -21,2 -16,0 -30,-2 -40,-5 -11,-2 -20,-6 -27,-11 -7,-4 -13,-9 -17,-15 -4,-5 -7,-11 -10,-16 -8,20 -21,33 -39,38 -17,6 -37,9 -59,9 -29,0 -51,-4 -64,-10 -13,-7 -23,-16 -28,-25l0 26c0,62 -17,108 -51,135 -35,28 -83,42 -145,42 -66,0 -116,-15 -149,-44 -32,-29 -49,-71 -49,-127l0 -110 59 0 0 98c0,22 3,42 9,58 5,16 14,29 26,39 11,9 26,17 44,21 18,4 38,6 61,6 24,0 45,-2 62,-5 17,-3 31,-9 42,-18 12,-9 20,-22 25,-37 5,-15 8,-35 8,-59l0 -230 58 0 0 102c0,11 1,23 3,32 1,10 5,18 10,25 5,6 13,12 24,16 10,3 25,5 42,5 9,0 18,0 25,-1 7,-1 13,-3 18,-7 5,-3 9,-9 11,-16 3,-6 4,-16 4,-28l0 -128 59 0 0 102c0,11 1,22 3,32 2,10 5,18 10,25 5,6 13,12 22,16 8,3 20,5 35,5 7,0 15,0 21,-1 7,-1 12,-4 17,-7 4,-3 8,-9 11,-16 2,-6 4,-16 4,-28l0 -164 59 0 0 138c0,11 1,22 2,32 2,10 5,18 9,25 5,6 11,12 19,16 8,3 19,5 31,5 19,0 29,10 29,29 0,12 -2,20 -7,24 -4,5 -12,7 -22,7zm1 0c-19,0 -29,-10 -29,-29 0,-12 3,-20 7,-24 4,-4 12,-7 22,-7l104 0 2 0 2 0 102 0 2 0 2 0 23 0c16,0 30,0 40,-1 11,-1 20,-3 27,-7 6,-3 11,-9 13,-16 3,-6 5,-16 5,-28l0 -129 58 0 0 103c0,11 1,23 3,32 1,10 5,18 10,25 5,6 13,12 22,16 10,3 23,5 39,5 11,0 20,0 28,-1 8,-1 15,-3 20,-7 5,-3 9,-9 12,-16 2,-6 4,-16 4,-28l0 -128 58 0 0 102c0,11 1,23 3,32 2,10 5,18 9,25 5,6 11,12 19,16 8,4 19,5 31,5l60 0 0 -216 59 0 0 276 -119 0c-18,0 -33,-5 -45,-14 -11,-8 -19,-19 -22,-33 -9,20 -23,33 -41,38 -18,6 -40,9 -65,9 -17,0 -31,-2 -42,-4 -10,-3 -20,-7 -27,-11 -7,-4 -12,-10 -16,-15 -4,-6 -8,-12 -11,-17 -4,10 -9,18 -16,24 -6,5 -15,10 -25,14 -10,3 -23,6 -38,7 -15,1 -33,2 -54,2l-22 0 -2 0 -2 0 -102 0 -2 0 -2 0 -104 0zm1111 0c-2,29 -8,53 -19,72 -10,19 -24,35 -42,46 -17,11 -39,20 -63,24 -24,5 -52,7 -82,7l-30 0 0 -59 22 0c22,0 42,-1 61,-3 19,-2 35,-7 49,-13 14,-7 25,-16 32,-27 8,-12 12,-28 13,-47l-81 0c-20,0 -38,-2 -54,-7 -17,-4 -31,-11 -43,-21 -12,-9 -22,-22 -29,-38 -7,-16 -10,-35 -10,-59 0,-19 3,-38 9,-57 6,-19 16,-35 28,-49 12,-15 27,-26 45,-35 17,-9 37,-13 59,-13 25,0 46,4 63,13 18,9 32,21 42,37 11,16 19,36 24,59 4,23 7,49 7,77l0 33 50 0c20,0 29,10 29,29 0,12 -2,20 -7,24 -4,4 -12,7 -22,7l-51 0zm-219 -131c0,25 7,43 21,54 14,11 35,17 62,17l77 0 0 -47c0,-36 -6,-64 -18,-85 -12,-20 -33,-31 -62,-31 -14,0 -26,3 -36,8 -9,6 -18,13 -24,22 -7,9 -12,19 -15,30 -3,11 -5,21 -5,32zm270 131c-19,0 -29,-10 -29,-29 0,-12 3,-20 7,-24 4,-4 12,-7 22,-7l29 0c6,0 12,-1 18,-2 6,-1 13,-4 19,-9 6,-5 12,-11 18,-20 6,-8 12,-20 17,-34 11,-30 23,-55 35,-74 12,-18 25,-33 37,-43 13,-10 26,-18 39,-21 13,-3 26,-5 39,-5 18,0 35,4 50,10 15,7 29,17 40,30 11,12 20,28 27,45 6,17 9,37 9,58 0,42 -10,75 -29,98 -20,24 -50,36 -92,36 -23,0 -46,-4 -68,-11 -23,-8 -47,-21 -71,-39 -6,9 -13,17 -19,22 -6,6 -13,10 -21,13 -7,2 -14,4 -22,5 -7,0 -16,1 -24,1l-31 0zm318 -127c0,-10 -2,-21 -5,-31 -3,-10 -8,-19 -14,-26 -5,-8 -13,-14 -21,-18 -9,-5 -19,-7 -30,-7 -20,0 -39,9 -56,26 -16,18 -32,49 -47,93 18,12 35,21 53,28 17,7 35,10 53,10 20,0 36,-5 48,-17 12,-11 19,-30 19,-58zm-5224 978c0,38 -4,69 -14,94 -9,25 -22,45 -39,60 -17,16 -37,26 -62,33 -25,6 -52,10 -83,10 -130,0 -195,-62 -195,-186l0 -112 92 0 0 109c0,33 9,58 25,76 17,18 44,27 81,27 35,0 61,-8 78,-23 17,-14 25,-40 25,-75l0 -193 93 0 -1 180zm-245 -220c0,-14 5,-25 16,-36 9,-10 22,-15 36,-15 13,0 25,5 35,15 10,10 15,22 15,36 0,14 -5,26 -15,36 -10,10 -22,15 -35,15 -14,0 -26,-5 -36,-15 -10,-10 -16,-22 -16,-36zm593 273c0,34 -4,62 -13,87 -8,24 -22,44 -40,59 -19,16 -43,28 -71,35 -29,8 -64,11 -105,11l-22 0 0 -87 17 0c25,0 47,-2 65,-5 17,-4 31,-8 41,-14 10,-6 18,-13 23,-22 4,-8 7,-17 8,-27 -14,4 -32,6 -52,6 -19,0 -37,-2 -54,-7 -17,-5 -31,-12 -43,-23 -13,-11 -22,-25 -30,-42 -7,-17 -10,-37 -10,-61 0,-19 3,-38 9,-56 7,-19 16,-36 28,-50 13,-15 28,-27 46,-36 18,-8 39,-13 63,-13 27,0 49,5 66,14 18,9 33,21 43,38 11,16 19,36 24,59 4,22 7,47 7,74l0 60zm-195 -98c0,24 5,40 15,49 9,8 23,12 39,12 19,0 35,-3 48,-10l0 -35c0,-24 -4,-43 -11,-58 -7,-14 -20,-21 -39,-21 -18,0 -32,6 -40,18 -8,12 -12,27 -12,45zm326 -112l94 0 0 213c0,34 -3,64 -8,88 -5,24 -15,43 -28,58 -13,14 -31,25 -54,32 -23,7 -53,11 -89,11l0 -87c19,-1 35,-3 46,-7 12,-4 20,-10 26,-18 6,-8 9,-18 11,-31 2,-13 2,-28 2,-46l0 -213zm-7 -155c0,-14 5,-26 15,-36 10,-10 22,-15 36,-15 14,0 26,5 36,15 10,10 15,22 15,36 0,14 -5,26 -15,36 -10,10 -22,15 -36,15 -13,0 -25,-5 -35,-15 -11,-10 -16,-22 -16,-36zm356 365c0,17 -2,28 -7,34 -4,6 -11,9 -21,9l-30 0c-16,0 -31,-1 -45,-5 -13,-4 -25,-10 -35,-18 -10,-8 -17,-19 -23,-33 -5,-14 -8,-31 -8,-52l0 -402 93 0 0 390c0,16 3,27 9,31 6,5 14,7 25,7l14 0c4,0 7,0 11,1 3,1 6,3 9,5 2,3 4,7 6,12 1,5 2,12 2,21zm-29 43c-3,0 -7,0 -10,-1 -4,0 -7,-2 -10,-5 -2,-2 -4,-6 -6,-12 -1,-5 -2,-12 -2,-21 0,-16 3,-28 7,-34 5,-6 12,-9 21,-9l106 0c4,0 8,0 11,1 3,1 6,3 9,5 3,3 5,7 6,12 2,5 2,12 2,21 0,17 -2,28 -6,34 -5,6 -12,9 -22,9l-106 0zm106 0c-3,0 -7,0 -10,-1 -4,0 -7,-2 -9,-5 -3,-2 -5,-6 -7,-12 -1,-5 -2,-12 -2,-21 0,-16 3,-28 7,-34 5,-6 12,-9 21,-9l107 0c3,0 7,0 10,1 4,1 7,3 9,5 3,3 5,7 6,12 2,5 3,12 3,21 0,17 -3,28 -7,34 -5,6 -12,9 -21,9l-107 0zm107 0c-4,0 -8,0 -11,-1 -4,0 -7,-2 -9,-5 -3,-2 -5,-6 -6,-12 -2,-5 -2,-12 -2,-21 0,-16 2,-28 6,-34 5,-6 12,-9 22,-9l106 0c3,0 7,0 10,1 4,1 7,3 9,5 3,3 5,7 7,12 1,5 2,12 2,21 0,17 -3,28 -7,34 -5,6 -12,9 -21,9l-106 0zm106 0c-4,0 -8,0 -11,-1 -3,0 -6,-2 -9,-5 -3,-2 -5,-6 -6,-12 -2,-5 -2,-12 -2,-21 0,-16 2,-28 7,-34 4,-6 11,-9 21,-9l106 0c4,0 7,0 10,1 4,1 7,3 10,5 2,3 4,7 6,12 1,5 2,12 2,21 0,17 -2,28 -7,34 -5,6 -12,9 -21,9l-106 0zm106 0c-4,0 -8,0 -11,-1 -3,0 -6,-2 -9,-5 -3,-2 -5,-6 -6,-12 -2,-5 -2,-12 -2,-21 0,-16 2,-28 7,-34 4,-6 11,-9 21,-9l106 0c4,0 7,0 11,1 3,1 6,3 9,5 2,3 4,7 6,12 1,5 2,12 2,21 0,17 -2,28 -7,34 -4,6 -11,9 -21,9l-106 0zm106 0c-4,0 -7,0 -11,-1 -3,0 -6,-2 -9,-5 -3,-2 -5,-6 -6,-12 -1,-5 -2,-12 -2,-21 0,-16 2,-28 7,-34 4,-6 11,-9 21,-9l106 0c4,0 7,0 11,1 3,1 6,3 9,5 3,3 5,7 6,12 1,5 2,12 2,21 0,17 -2,28 -7,34 -4,6 -11,9 -21,9l-106 0z"/>
  </g>
 </g>
</svg>
