<?xml version="1.0" encoding="UTF-8"?>
<!DOCTYPE svg PUBLIC "-//W3C//DTD SVG 1.1//EN" "http://www.w3.org/Graphics/SVG/1.1/DTD/svg11.dtd">
<!-- Creator: CorelDRAW X7 -->
<svg xmlns="http://www.w3.org/2000/svg" xml:space="preserve" width="100%" height="100%" version="1.1" style="shape-rendering:geometricPrecision; text-rendering:geometricPrecision; image-rendering:optimizeQuality; fill-rule:evenodd; clip-rule:evenodd"
viewBox="0 0 2145 872"
 xmlns:xlink="http://www.w3.org/1999/xlink">
 <defs>
  <style type="text/css">
   <![CDATA[
    .fil4 {fill:#D2AE6D}
    .fil0 {fill:#5C56A2}
    .fil1 {fill:white}
    .fil2 {fill:#DBBB83;fill-rule:nonzero}
    .fil3 {fill:#D2AE6D;fill-rule:nonzero}
    .fil5 {fill:white;fill-rule:nonzero}
   ]]>
  </style>
 </defs>
 <g id="Layer_x0020_1">
  <metadata id="CorelCorpID_0Corel-Layer"/>
  <g id="_1697642959824">
   <path class="fil0" d="M1254 300c6,-29 34,-67 94,-67 58,0 85,41 91,67l-185 0zm18 -90l11 -6 13 26c14,-6 31,-10 51,-10 20,0 37,4 50,11l12 -27 12 6 -13 27c7,5 13,10 18,14 18,19 26,41 27,55l1 7 -215 0 1 -7c2,-22 15,-51 45,-69l-13 -27zm94 63c0,7 6,13 14,13 7,0 13,-6 13,-13 0,-7 -6,-13 -13,-13 -8,0 -14,6 -14,13zm-66 0c0,7 6,13 13,13 7,0 13,-6 13,-13 0,-7 -6,-13 -13,-13 -7,0 -13,6 -13,13zm-47 67l187 0 0 166 -27 0 0 73c0,8 -6,14 -13,14 -8,0 -14,-6 -14,-14l0 -73 -80 0 0 73c0,8 -6,14 -13,14 -7,0 -13,-6 -13,-14l0 -73 -27 0 0 -166zm-13 -14l0 193 26 0 0 60c0,15 12,27 27,27 15,0 27,-12 27,-27l0 -60 53 0 0 60c0,15 12,27 27,27 14,0 26,-12 26,-27l0 -60 27 0 0 -193 -213 0zm-47 14c12,0 20,8 20,20l0 93c0,11 -8,20 -20,20 -11,0 -20,-9 -20,-20l0 -93c0,-12 9,-20 20,-20zm-33 20l0 93c0,19 15,33 33,33 19,0 33,-14 33,-33l0 -93c0,-19 -14,-34 -33,-34 -18,0 -33,15 -33,34zm339 -20c12,0 20,8 20,20l0 93c0,11 -8,20 -20,20 -11,0 -19,-9 -19,-20l0 -93c0,-12 8,-20 19,-20zm-33 20l0 93c0,19 15,33 33,33 19,0 34,-14 34,-33l0 -93c0,-19 -15,-34 -34,-34 -18,0 -33,15 -33,34z"/>
   <path class="fil0" d="M1967 473c-6,-9 -10,-18 -14,-28 -3,-10 -4,-21 -4,-32 0,-10 1,-20 4,-29 3,-9 8,-18 13,-27 4,-4 8,-9 13,-14 2,-3 4,-5 7,-7l-3 -4c-4,-3 -8,-6 -11,-8 -6,-5 -13,-8 -20,-10 -7,-2 -15,-3 -23,-3 -5,0 -10,0 -16,1 -6,2 -13,4 -20,6 -9,3 -16,5 -22,6 -6,2 -12,3 -16,3 -4,0 -9,-1 -15,-2 -5,-2 -12,-3 -21,-6l0 0c-8,-2 -15,-4 -22,-5 -6,-1 -11,-1 -16,-1 -12,0 -22,2 -32,7 -9,4 -18,12 -25,21 -8,11 -14,22 -18,36 -4,13 -6,28 -6,45 0,18 3,36 8,54 6,19 14,38 25,58 11,19 22,33 32,42 10,8 19,12 28,12 3,0 6,0 10,-1 5,-1 10,-3 16,-6l0 0c7,-3 13,-5 20,-6l0 0c6,-2 12,-3 18,-3 6,0 12,1 19,3 7,1 13,3 21,6 6,2 12,4 17,5 5,1 9,2 12,2 7,0 14,-3 22,-9 9,-7 18,-18 27,-32l0 0c7,-9 12,-19 17,-28l0 0c2,-5 5,-11 7,-17 -4,-2 -8,-4 -12,-7 -7,-6 -14,-13 -20,-22l0 0zm-78 -198c4,-5 8,-9 11,-14 3,-5 6,-9 8,-14 2,-5 3,-10 4,-15 1,-2 1,-4 1,-6 -6,2 -12,5 -17,8 -8,5 -15,11 -19,17l0 1c-5,7 -9,15 -12,24 -1,4 -2,9 -3,14 2,0 5,-1 7,-1 3,-1 6,-3 9,-5 4,-3 7,-6 11,-9l0 0zm9 9c10,-10 17,-21 22,-33 4,-11 7,-22 7,-32l-1 -2c0,-1 0,-2 0,-2 0,-1 0,-2 0,-3 -1,-1 -1,-2 -1,-3 -28,7 -47,18 -59,35 -11,17 -18,37 -18,61 10,-1 19,-3 24,-4 9,-3 17,-9 26,-17zm80 182c-11,-16 -16,-33 -16,-53 0,-18 5,-34 15,-48 5,-8 14,-18 27,-28 -8,-10 -17,-18 -25,-24 -15,-10 -31,-15 -50,-15 -11,0 -25,3 -41,8 -15,5 -26,8 -33,8 -6,0 -16,-2 -33,-7 -16,-5 -30,-7 -41,-7 -27,0 -50,11 -67,34 -18,23 -27,52 -27,88 0,38 12,77 35,118 23,41 47,61 71,61 8,0 18,-3 31,-8 12,-5 24,-8 33,-8 10,0 22,3 36,8 14,5 25,7 33,7 20,0 40,-15 60,-46 13,-19 23,-39 29,-59 -14,-4 -26,-14 -37,-29z"/>
   <path class="fil1" d="M1268 300c6,-29 34,-67 93,-67 58,0 86,41 92,67l-185 0zm17 -90l12 -6 12 26c14,-6 31,-10 52,-10 20,0 36,4 49,11l13 -27 11 6 -12 27c7,5 13,10 17,14 18,19 26,41 27,55l1 7 -214 0 0 -7c2,-22 16,-51 45,-69l-13 -27zm95 63c0,7 6,13 13,13 8,0 14,-6 14,-13 0,-7 -6,-13 -14,-13 -7,0 -13,6 -13,13zm-67 0c0,7 6,13 14,13 7,0 13,-6 13,-13 0,-7 -6,-13 -13,-13 -8,0 -14,6 -14,13zm-46 67l186 0 0 166 -26 0 0 73c0,8 -6,14 -14,14 -7,0 -13,-6 -13,-14l0 -73 -80 0 0 73c0,8 -6,14 -13,14 -8,0 -14,-6 -14,-14l0 -73 -26 0 0 -166zm-14 -14l0 193 27 0 0 60c0,15 12,27 27,27 14,0 26,-12 26,-27l0 -60 54 0 0 60c0,15 12,27 26,27 15,0 27,-12 27,-27l0 -60 26 0 0 -193 -213 0zm-46 14c11,0 20,8 20,20l0 93c0,11 -9,20 -20,20 -12,0 -20,-9 -20,-20l0 -93c0,-12 8,-20 20,-20zm-33 20l0 93c0,19 14,33 33,33 18,0 33,-14 33,-33l0 -93c0,-19 -15,-34 -33,-34 -19,0 -33,15 -33,34zm339 -20c11,0 20,8 20,20l0 93c0,11 -9,20 -20,20 -11,0 -20,-9 -20,-20l0 -93c0,-12 9,-20 20,-20zm-33 20l0 93c0,19 14,33 33,33 19,0 33,-14 33,-33l0 -93c0,-19 -14,-34 -33,-34 -19,0 -33,15 -33,34z"/>
   <path class="fil1" d="M1981 473c-6,-9 -11,-18 -14,-28 -3,-10 -5,-21 -5,-32 0,-10 2,-20 5,-29 3,-9 7,-18 13,-27 3,-4 7,-9 12,-14 2,-3 5,-5 7,-7l-3 -4c-3,-3 -7,-6 -10,-8 -7,-5 -13,-8 -20,-10 -7,-2 -15,-3 -23,-3 -5,0 -10,0 -16,1 -7,2 -14,4 -21,6 -8,3 -15,5 -21,6 -7,2 -12,3 -17,3 -3,0 -8,-1 -14,-2 -6,-2 -13,-3 -22,-6l0 0c-7,-2 -15,-4 -21,-5 -6,-1 -12,-1 -17,-1 -11,0 -22,2 -31,7 -9,4 -18,12 -26,21 -7,11 -13,22 -17,36 -4,13 -6,28 -6,45 0,18 2,36 8,54 5,19 13,38 25,58 10,19 21,33 32,42 9,8 18,12 27,12 3,0 7,0 11,-1 4,-1 9,-3 15,-6l1 0c6,-3 13,-5 19,-6l0 0c7,-2 13,-3 19,-3 6,0 12,1 19,3 6,1 13,3 20,6 7,2 13,4 18,5 4,1 8,2 11,2 7,0 15,-3 23,-9 9,-7 18,-18 27,-32l0 0c6,-9 12,-19 16,-28l0 0c3,-5 6,-11 8,-17 -4,-2 -8,-4 -12,-7 -7,-6 -14,-13 -20,-22l0 0zm-79 -198c5,-5 9,-9 12,-14 3,-5 6,-9 7,-14 2,-5 4,-10 5,-15 0,-2 1,-4 1,-6 -6,2 -12,5 -17,8 -8,5 -15,11 -20,17l0 1c-5,7 -9,15 -11,24 -2,4 -3,9 -4,14 3,0 5,-1 7,-1 3,-1 6,-3 10,-5 3,-3 7,-6 10,-9l0 0zm9 9c10,-10 18,-21 22,-33 5,-11 7,-22 7,-32l0 -2c0,-1 0,-2 0,-2 0,-1 0,-2 -1,-3 0,-1 0,-2 0,-3 -28,7 -48,18 -59,35 -12,17 -18,37 -18,61 10,-1 18,-3 24,-4 8,-3 17,-9 25,-17zm80 182c-10,-16 -16,-33 -16,-53 0,-18 5,-34 15,-48 6,-8 15,-18 27,-28 -8,-10 -16,-18 -24,-24 -15,-10 -32,-15 -50,-15 -11,0 -25,3 -41,8 -15,5 -27,8 -34,8 -5,0 -16,-2 -32,-7 -17,-5 -30,-7 -42,-7 -27,0 -49,11 -67,34 -17,23 -26,52 -26,88 0,38 11,77 34,118 24,41 47,61 71,61 8,0 19,-3 31,-8 13,-5 24,-8 34,-8 10,0 22,3 35,8 15,5 26,7 33,7 20,0 40,-15 61,-46 13,-19 22,-39 29,-59 -14,-4 -27,-14 -38,-29z"/>
   <path class="fil2" d="M2080 33c0,-18 14,-33 32,-33 19,0 33,15 33,33 0,18 -14,33 -33,33 -18,0 -32,-15 -32,-33z"/>
   <path class="fil3" d="M2138 12c5,6 7,13 7,21 0,18 -14,33 -33,33 -10,0 -19,-5 -25,-12 0,0 25,10 40,-6 16,-15 11,-36 11,-36z"/>
   <path class="fil2" d="M559 785c0,-48 39,-87 87,-87 49,0 88,39 88,87 0,48 -39,87 -88,87 -48,0 -87,-39 -87,-87z"/>
   <path class="fil3" d="M714 730c12,15 20,34 20,55 0,48 -39,87 -88,87 -27,0 -51,-12 -67,-31 0,0 66,25 107,-15 40,-41 28,-96 28,-96z"/>
   <g>
    <circle class="fil4" cx="276" cy="492" r="276"/>
    <path class="fil1" d="M329 570l0 52 -209 0 0 -52 209 0zm-209 -156l0 -52c104,0 209,0 313,0l-52 52c-87,0 -174,0 -261,0zm313 52c0,52 0,104 0,156l-52 0 0 -104 0 0 -261 0 0 -52c104,0 209,0 313,0z"/>
   </g>
   <rect class="fil1" x="990" y="132" width="5.28819" height="720.664"/>
   <path class="fil5" d="M1219 810c0,8 -1,14 -3,19 -2,5 -5,9 -9,12 -3,3 -8,5 -13,6 -5,2 -11,2 -17,2 -28,0 -42,-13 -42,-39l0 -25 20 0 0 24c0,7 2,12 5,16 4,4 10,6 18,6 7,0 13,-2 16,-5 4,-3 6,-9 6,-16l0 -109 19 0 0 92 13 0c0,0 1,0 2,0 1,0 1,0 2,1 0,0 1,1 1,2 0,2 1,3 1,5 0,4 -1,6 -2,7 -1,2 -2,2 -4,2l-13 0zm13 0c-1,0 -2,0 -3,0 0,0 -1,-1 -2,-1 0,-1 -1,-2 -1,-3 0,-1 0,-2 0,-4 0,-4 0,-6 1,-8 1,-1 3,-2 5,-2l24 0 0 -43 20 0 0 61 -44 0zm1 26c0,-3 1,-5 4,-8 2,-2 4,-3 7,-3 3,0 6,1 8,3 2,3 3,5 3,8 0,3 -1,6 -3,8 -2,2 -5,3 -8,3 -3,0 -5,-1 -7,-3 -3,-2 -4,-5 -4,-8zm25 0c0,-3 1,-5 3,-8 3,-2 5,-3 8,-3 3,0 6,1 8,3 2,3 3,5 3,8 0,3 -1,6 -3,8 -2,2 -5,3 -8,3 -3,0 -5,-1 -8,-3 -2,-2 -3,-5 -3,-8zm72 -35c0,4 0,6 -1,7 -1,2 -3,2 -5,2l-6 0c-4,0 -7,0 -10,-1 -3,-1 -5,-2 -7,-4 -2,-1 -4,-4 -5,-7 -1,-3 -2,-6 -2,-11l0 -86 20 0 0 83c0,4 1,6 2,7 1,1 3,2 5,2l3 0c1,0 2,0 3,0 0,0 1,0 1,1 1,0 1,1 2,2 0,2 0,3 0,5zm12 -8l0 -44 20 0 0 61 -38 0c-1,0 -1,0 -2,0 -1,0 -2,0 -2,-1 -1,-1 -1,-1 -1,-3 -1,-1 -1,-2 -1,-4 0,-4 1,-6 2,-7 1,-2 2,-2 4,-2l18 0zm-3 43c0,-3 1,-6 3,-8 3,-2 5,-3 8,-3 3,0 6,1 8,3 2,2 3,5 3,8 0,2 -1,5 -3,7 -2,2 -5,3 -8,3 -3,0 -5,-1 -8,-3 -2,-2 -3,-5 -3,-7zm97 -26c-2,11 -6,19 -14,25 -8,5 -20,7 -35,7l-5 0 0 -19 4 0c5,0 9,0 13,0 4,-1 7,-2 9,-3 2,-1 4,-3 5,-4 1,-2 2,-4 2,-6l-9 0c-5,0 -9,0 -13,-1 -3,-1 -7,-3 -9,-5 -3,-3 -5,-6 -7,-9 -1,-4 -2,-8 -2,-13 0,-4 0,-8 2,-12 1,-4 3,-8 6,-11 3,-3 6,-6 10,-8 4,-2 8,-3 13,-3 6,0 10,1 14,3 4,2 7,5 9,9 3,3 5,7 6,12 1,5 1,10 1,16l0 5 11 0c1,0 2,0 3,0 0,0 1,0 1,1 1,0 1,1 2,2 0,2 0,3 0,5 0,4 0,6 -1,7 -1,2 -3,2 -5,2l-11 0zm-42 -30c0,5 1,8 4,10 2,2 4,3 8,3l10 0 0 -10c0,-4 -1,-8 -2,-12 -2,-3 -5,-5 -9,-5 -4,0 -6,2 -8,4 -2,3 -3,6 -3,10zm112 2c0,-2 0,-3 -1,-5 0,-1 -1,-3 -1,-4 -1,-1 -2,-2 -4,-3 -1,-1 -2,-1 -4,-1 -2,0 -3,0 -4,1 -2,1 -3,2 -4,3 -2,2 -3,4 -4,6 -1,3 -2,6 -3,9 2,2 5,3 7,4 2,1 5,2 8,2 3,0 5,-1 7,-4 2,-2 3,-5 3,-8zm-51 11c1,0 3,-1 5,-3 2,-2 3,-5 5,-9 2,-6 4,-11 7,-15 3,-4 5,-7 8,-9 3,-2 6,-4 9,-5 2,-1 5,-1 8,-1 4,0 8,1 11,2 4,2 7,4 9,7 3,2 5,6 6,9 2,4 2,9 2,13 0,9 -2,17 -7,22 -4,5 -11,8 -20,8 -4,0 -8,0 -12,-2 -5,-1 -9,-3 -13,-6 -3,3 -6,5 -9,5 -2,1 -5,1 -9,1l-8 0c-1,0 -1,0 -2,0 -1,0 -1,0 -2,-1 -1,-1 -1,-1 -1,-3 -1,-1 -1,-2 -1,-4 0,-4 1,-6 2,-7 1,-2 2,-2 4,-2l8 0zm258 17c-3,0 -6,0 -9,-1 -3,-1 -6,-3 -7,-7 -2,2 -3,4 -5,5 -1,1 -3,1 -5,2 -2,1 -4,1 -6,1 -2,0 -4,0 -6,0l-68 0c-6,0 -11,0 -15,-1 -4,-1 -7,-2 -10,-4 -2,-2 -4,-5 -5,-8 -1,-3 -2,-7 -2,-11l0 -25 20 0 0 22c0,2 1,4 1,5 1,1 2,2 3,3 1,1 3,1 5,1 3,0 5,1 9,1l58 0c4,0 6,-1 8,-2 1,-1 2,-4 2,-7l0 -35 19 0 0 33c0,4 1,7 3,8 1,2 5,3 10,3 0,0 1,0 2,0 1,0 1,0 2,1 0,0 1,1 1,2 1,2 1,3 1,5 0,4 -1,6 -2,7 -1,2 -2,2 -4,2zm-85 48c0,-3 1,-5 3,-7 2,-3 5,-4 8,-4 3,0 5,1 7,4 3,2 4,4 4,7 0,3 -1,6 -4,8 -2,2 -4,3 -7,3 -3,0 -6,-1 -8,-3 -2,-2 -3,-5 -3,-8zm-13 -22c0,-3 1,-5 4,-8 2,-2 4,-3 7,-3 3,0 6,1 8,3 2,3 3,5 3,8 0,3 -1,6 -3,8 -2,2 -5,3 -8,3 -3,0 -5,-1 -7,-3 -3,-2 -4,-5 -4,-8zm25 0c0,-3 1,-5 4,-8 2,-2 4,-3 7,-3 3,0 6,1 8,3 2,3 3,5 3,8 0,3 -1,6 -3,8 -2,2 -5,3 -8,3 -3,0 -5,-1 -7,-3 -3,-2 -4,-5 -4,-8zm73 -26c-1,0 -2,0 -3,0 0,0 -1,-1 -2,-1 0,-1 -1,-2 -1,-3 0,-1 0,-2 0,-4 0,-4 0,-6 1,-8 1,-1 3,-2 5,-2l24 0 0 -43 20 0 0 61 -44 0zm1 26c0,-3 1,-5 4,-8 2,-2 4,-3 7,-3 3,0 6,1 8,3 2,3 3,5 3,8 0,3 -1,6 -3,8 -2,2 -5,3 -8,3 -3,0 -5,-1 -7,-3 -3,-2 -4,-5 -4,-8zm25 0c0,-3 1,-5 3,-8 3,-2 5,-3 8,-3 3,0 6,1 8,3 2,3 3,5 3,8 0,3 -1,6 -3,8 -2,2 -5,3 -8,3 -3,0 -5,-1 -8,-3 -2,-2 -3,-5 -3,-8zm99 -26c-3,0 -6,0 -8,0 -2,0 -4,-1 -5,-2 -2,0 -3,-1 -5,-2 -1,-1 -2,-2 -4,-3 -3,3 -6,5 -9,6 -4,1 -8,1 -12,1l-26 0 0 -17 30 0c3,0 4,-1 6,-2 1,0 1,-1 1,-2 0,-1 0,-3 -1,-4 -1,-2 -3,-5 -5,-9l-14 -20 18 -12 18 31c2,4 4,6 5,9 2,2 3,4 4,5 1,1 2,2 3,3 1,0 3,1 4,1 0,0 1,0 2,0 1,0 1,0 2,1 0,0 1,1 1,2 0,2 1,3 1,5 0,4 -1,6 -2,7 -1,2 -2,2 -4,2zm16 -87c0,-3 1,-6 3,-8 2,-2 5,-3 8,-3 3,0 5,1 7,3 3,2 4,5 4,8 0,3 -1,5 -4,7 -2,3 -4,4 -7,4 -3,0 -6,-1 -8,-4 -2,-2 -3,-4 -3,-7zm1 70l0 -44 20 0 0 61 -37 0c-1,0 -2,0 -3,0 0,0 -1,0 -2,-1 0,-1 -1,-1 -1,-3 0,-1 0,-2 0,-4 0,-4 0,-6 1,-7 1,-2 3,-2 5,-2l17 0zm80 17c-1,0 -3,0 -5,-1 -3,0 -5,-2 -6,-4 0,7 -1,13 -3,18 -1,4 -4,8 -7,11 -3,3 -7,5 -11,6 -5,1 -11,2 -17,2l0 -19c4,0 7,0 10,-1 2,-1 4,-2 5,-4 2,-2 2,-4 3,-7 0,-2 0,-6 0,-9l0 -46 20 0 0 26c0,4 1,7 4,8 2,2 5,3 7,3 1,0 2,0 3,0 0,0 1,0 2,1 0,0 1,1 1,2 0,2 0,3 0,5 0,4 0,6 -1,7 -1,2 -3,2 -5,2zm7 -17c2,0 4,0 5,-1 2,0 3,0 4,0 1,-1 1,-2 2,-3 0,-1 0,-2 0,-4l0 -29 20 0 0 26c0,3 1,6 3,8 1,2 4,3 8,3 3,0 6,-1 8,-2 2,-1 3,-3 3,-6l0 -29 20 0 0 26c0,7 3,11 9,11l9 0 0 -44 20 0 0 61 -23 0c-6,0 -10,0 -13,-2 -2,-1 -5,-3 -7,-6 -1,2 -3,4 -4,5 -2,1 -4,2 -6,2 -2,1 -4,1 -5,1 -2,0 -4,0 -5,0 -6,0 -10,-1 -14,-2 -3,-2 -6,-4 -7,-6 -3,4 -6,6 -11,7 -4,1 -10,1 -17,1l-6 0c0,0 -1,0 -2,0 -1,0 -1,0 -2,-1 0,-1 -1,-1 -1,-3 -1,-1 -1,-2 -1,-4 0,-4 1,-6 2,-7 1,-2 2,-2 4,-2l7 0z"/>
  </g>
 </g>
</svg>
