<?xml version="1.0" encoding="UTF-8"?>
<!DOCTYPE svg PUBLIC "-//W3C//DTD SVG 1.1//EN" "http://www.w3.org/Graphics/SVG/1.1/DTD/svg11.dtd">
<!-- Creator: CorelDRAW X7 -->
<svg xmlns="http://www.w3.org/2000/svg" xml:space="preserve" width="100%" height="100%" version="1.1" style="shape-rendering:geometricPrecision; text-rendering:geometricPrecision; image-rendering:optimizeQuality; fill-rule:evenodd; clip-rule:evenodd"
viewBox="0 0 918 665"
 xmlns:xlink="http://www.w3.org/1999/xlink">
 <defs>
  <style type="text/css">
   <![CDATA[
    .fil0 {fill:#5C56A2}
    .fil1 {fill:white}
    .fil2 {fill:white;fill-rule:nonzero}
   ]]>
  </style>
 </defs>
 <g id="Layer_x0020_1">
  <metadata id="CorelCorpID_0Corel-Layer"/>
  <g id="_1697642921264">
   <path class="fil0" d="M119 95c6,-28 34,-66 93,-66 58,0 86,41 92,66l-185 0zm18 -90l11 -5 12 26c15,-7 32,-11 52,-11 20,0 36,5 50,11l12 -26 12 5 -13 28c7,4 13,9 17,14 18,18 26,40 28,54l0 8 -214 0 1 -8c1,-21 15,-51 44,-69l-12 -27zm94 64c0,7 6,13 13,13 8,0 14,-6 14,-13 0,-8 -6,-14 -14,-14 -7,0 -13,6 -13,14zm-67 0c0,7 6,13 14,13 7,0 13,-6 13,-13 0,-8 -6,-14 -13,-14 -8,0 -14,6 -14,14zm-46 66l186 0 0 167 -26 0 0 73c0,7 -6,13 -14,13 -7,0 -13,-6 -13,-13l0 -73 -80 0 0 73c0,7 -6,13 -13,13 -8,0 -14,-6 -14,-13l0 -73 -26 0 0 -167zm-13 -13l0 193 26 0 0 60c0,15 12,27 27,27 14,0 26,-12 26,-27l0 -60 54 0 0 60c0,15 12,27 26,27 15,0 27,-12 27,-27l0 -60 27 0 0 -193 -213 0zm-47 13c11,0 20,9 20,20l0 93c0,12 -9,20 -20,20 -11,0 -20,-8 -20,-20l0 -93c0,-11 9,-20 20,-20zm-33 20l0 93c0,19 14,34 33,34 19,0 33,-15 33,-34l0 -93c0,-18 -14,-33 -33,-33 -19,0 -33,15 -33,33zm339 -20c12,0 20,9 20,20l0 93c0,12 -8,20 -20,20 -11,0 -20,-8 -20,-20l0 -93c0,-11 9,-20 20,-20zm-33 20l0 93c0,19 15,34 33,34 19,0 33,-15 33,-34l0 -93c0,-18 -14,-33 -33,-33 -18,0 -33,15 -33,33z"/>
   <path class="fil0" d="M832 269c-6,-9 -11,-19 -14,-29 -3,-10 -4,-20 -4,-31 0,-10 1,-20 4,-29 3,-10 7,-19 13,-27 3,-5 7,-9 12,-15 2,-2 5,-4 8,-7l-4 -3c-3,-3 -7,-6 -10,-9 -7,-4 -13,-7 -20,-10 -7,-2 -15,-3 -23,-3 -5,0 -10,1 -16,2 -7,1 -14,3 -21,6 -8,2 -15,5 -21,6 -6,1 -12,2 -17,2 -3,0 -8,0 -14,-2 -6,-1 -13,-3 -21,-5l0 0c-8,-3 -15,-4 -22,-5 -6,-1 -12,-2 -17,-2 -11,0 -22,3 -31,7 -9,5 -18,12 -25,22 -8,10 -14,22 -18,35 -4,14 -6,29 -6,45 0,18 2,36 8,55 5,19 14,38 25,57 10,19 21,33 32,43 9,8 19,12 27,12 3,0 7,-1 11,-2 4,-1 9,-3 15,-5l1 0c7,-3 13,-5 19,-7l0 0c7,-1 13,-2 19,-2 6,0 12,1 19,2 6,2 13,4 21,6 6,3 12,4 17,6 5,1 8,1 11,1 7,0 15,-3 23,-9 9,-7 18,-17 27,-31l0 0c7,-10 12,-19 16,-28l0 0c3,-6 6,-11 8,-17 -4,-2 -8,-5 -12,-8 -7,-5 -14,-13 -20,-21l0 0zm-78 -199c4,-4 8,-9 11,-13 3,-5 6,-10 8,-15 2,-5 3,-10 4,-15 0,-2 1,-3 1,-5 -6,2 -12,5 -17,8 -8,4 -15,10 -20,17l0 0c-5,8 -9,16 -11,24 -2,5 -3,10 -3,15 2,-1 4,-1 6,-2 3,-1 7,-2 10,-5 3,-2 7,-5 11,-9l0 0zm9 9c9,-9 17,-20 21,-32 5,-12 7,-23 7,-32l0 -2c0,-1 0,-2 0,-3 0,0 0,-1 -1,-2 0,-2 0,-2 0,-3 -28,6 -47,18 -59,35 -12,17 -18,37 -18,60 10,-1 18,-2 24,-4 9,-2 17,-8 26,-17zm80 182c-11,-15 -17,-33 -17,-52 0,-18 5,-34 16,-49 5,-8 14,-17 26,-28 -8,-10 -16,-18 -24,-23 -15,-10 -32,-15 -50,-15 -11,0 -25,2 -41,8 -15,5 -26,8 -34,8 -5,0 -16,-3 -32,-8 -16,-4 -30,-7 -42,-7 -27,0 -49,12 -66,34 -18,23 -27,53 -27,88 0,38 11,78 35,119 23,40 46,61 70,61 8,0 19,-3 31,-8 13,-6 24,-8 34,-8 10,0 22,2 35,7 15,5 26,8 33,8 20,0 41,-15 61,-46 13,-20 23,-39 29,-59 -14,-4 -27,-14 -37,-30z"/>
   <path class="fil1" d="M133 95c6,-28 34,-66 93,-66 58,0 85,41 91,66l-184 0zm17 -90l12 -5 12 26c14,-7 31,-11 51,-11 20,0 37,5 50,11l13 -26 11 5 -13 28c7,4 13,9 18,14 18,18 26,40 27,54l1 8 -215 0 1 -8c2,-21 16,-51 45,-69l-13 -27zm95 64c0,7 6,13 13,13 7,0 13,-6 13,-13 0,-8 -6,-14 -13,-14 -7,0 -13,6 -13,14zm-67 0c0,7 6,13 13,13 8,0 14,-6 14,-13 0,-8 -6,-14 -14,-14 -7,0 -13,6 -13,14zm-47 66l187 0 0 167 -27 0 0 73c0,7 -6,13 -13,13 -7,0 -13,-6 -13,-13l0 -73 -80 0 0 73c0,7 -6,13 -14,13 -7,0 -13,-6 -13,-13l0 -73 -27 0 0 -167zm-13 -13l0 193 27 0 0 60c0,15 12,27 26,27 15,0 27,-12 27,-27l0 -60 53 0 0 60c0,15 12,27 27,27 15,0 27,-12 27,-27l0 -60 26 0 0 -193 -213 0zm-46 13c11,0 19,9 19,20l0 93c0,12 -8,20 -19,20 -12,0 -20,-8 -20,-20l0 -93c0,-11 8,-20 20,-20zm-34 20l0 93c0,19 15,34 34,34 18,0 33,-15 33,-34l0 -93c0,-18 -15,-33 -33,-33 -19,0 -34,15 -34,33zm340 -20c11,0 20,9 20,20l0 93c0,12 -9,20 -20,20 -12,0 -20,-8 -20,-20l0 -93c0,-11 8,-20 20,-20zm-33 20l0 93c0,19 14,34 33,34 18,0 33,-15 33,-34l0 -93c0,-18 -15,-33 -33,-33 -19,0 -33,15 -33,33z"/>
   <path class="fil1" d="M846 269c-6,-9 -11,-19 -14,-29 -3,-10 -5,-20 -5,-31 0,-10 2,-20 5,-29 3,-10 7,-19 13,-27 3,-5 7,-9 12,-15 2,-2 5,-4 7,-7l-3 -3c-4,-3 -7,-6 -11,-9 -6,-4 -13,-7 -20,-10 -7,-2 -14,-3 -23,-3 -4,0 -10,1 -16,2 -6,1 -13,3 -20,6 -9,2 -16,5 -21,6 -7,1 -12,2 -17,2 -3,0 -8,0 -15,-2 -5,-1 -12,-3 -21,-5l0 0c-8,-3 -15,-4 -21,-5 -6,-1 -12,-2 -17,-2 -12,0 -22,3 -31,7 -10,5 -18,12 -26,22 -8,10 -14,22 -18,35 -4,14 -6,29 -6,45 0,18 3,36 8,55 6,19 14,38 25,57 11,19 22,33 33,43 9,8 18,12 27,12 3,0 7,-1 11,-2 4,-1 9,-3 15,-5l0 0c7,-3 14,-5 20,-7l0 0c7,-1 13,-2 18,-2 6,0 13,1 20,2 6,2 13,4 20,6 7,3 13,4 18,6 4,1 8,1 11,1 7,0 15,-3 22,-9 9,-7 18,-17 28,-31l0 0c6,-10 12,-19 16,-28l0 0c3,-6 5,-11 7,-17 -4,-2 -8,-5 -11,-8 -8,-5 -14,-13 -20,-21l0 0zm-79 -199c5,-4 8,-9 11,-13 4,-5 6,-10 8,-15 2,-5 4,-10 5,-15 0,-2 0,-3 1,-5 -7,2 -12,5 -18,8 -8,4 -14,10 -19,17l0 0c-5,8 -9,16 -12,24 -1,5 -2,10 -3,15 3,-1 5,-1 7,-2 3,-1 6,-2 9,-5 4,-2 8,-5 11,-9l0 0zm9 9c10,-9 17,-20 22,-32 5,-12 7,-23 7,-32l0 -2c0,-1 0,-2 0,-3 -1,0 -1,-1 -1,-2 0,-2 0,-2 -1,-3 -27,6 -47,18 -58,35 -12,17 -18,37 -19,60 11,-1 19,-2 25,-4 8,-2 17,-8 25,-17zm80 182c-11,-15 -16,-33 -16,-52 0,-18 5,-34 15,-49 6,-8 15,-17 27,-28 -8,-10 -16,-18 -24,-23 -15,-10 -32,-15 -51,-15 -11,0 -24,2 -40,8 -16,5 -27,8 -34,8 -5,0 -16,-3 -32,-8 -17,-4 -31,-7 -42,-7 -27,0 -49,12 -67,34 -18,23 -26,53 -26,88 0,38 11,78 34,119 24,40 47,61 71,61 8,0 18,-3 31,-8 13,-6 24,-8 33,-8 11,0 22,2 36,7 14,5 25,8 33,8 20,0 40,-15 60,-46 14,-20 23,-39 29,-59 -14,-4 -26,-14 -37,-30z"/>
   <path class="fil2" d="M84 606c0,7 -1,14 -4,18 -2,5 -4,9 -8,12 -4,3 -8,6 -13,7 -5,1 -11,2 -17,2 -28,0 -42,-13 -42,-40l0 -24 20 0 0 23c0,7 2,13 5,17 4,3 9,5 17,5 8,0 14,-1 17,-4 4,-4 5,-9 5,-17l0 -109 20 0 0 92 12 0c1,0 2,0 3,0 0,1 1,1 1,2 1,0 2,1 2,2 0,1 0,3 0,5 0,3 0,6 -1,7 -1,1 -3,2 -5,2l-12 0zm12 0c-1,0 -1,0 -2,0 -1,-1 -1,-1 -2,-2 -1,0 -1,-1 -1,-2 -1,-1 -1,-3 -1,-5 0,-3 1,-6 2,-7 1,-1 2,-2 4,-2l25 0 0 -43 20 0 0 61 -45 0zm2 26c0,-3 1,-6 3,-8 2,-2 5,-3 8,-3 3,0 5,1 7,3 3,2 4,5 4,8 0,3 -1,5 -4,7 -2,2 -4,3 -7,3 -3,0 -6,-1 -8,-3 -2,-2 -3,-4 -3,-7zm25 0c0,-3 1,-6 3,-8 2,-2 5,-3 8,-3 3,0 5,1 8,3 2,2 3,5 3,8 0,3 -1,5 -3,7 -3,2 -5,3 -8,3 -3,0 -6,-1 -8,-3 -2,-2 -3,-4 -3,-7zm72 -35c0,3 -1,6 -2,7 0,1 -2,2 -4,2l-6 0c-4,0 -7,-1 -10,-1 -3,-1 -5,-2 -8,-4 -2,-2 -3,-4 -4,-7 -2,-3 -2,-7 -2,-11l0 -87 20 0 0 84c0,4 0,6 2,7 1,1 3,1 5,1l3 0c1,0 2,0 2,0 1,1 2,1 2,2 1,0 1,1 2,2 0,1 0,3 0,5zm11 -9l0 -43 21 0 0 61 -38 0c-1,0 -2,0 -2,0 -1,-1 -2,-1 -2,-1 -1,-1 -1,-2 -2,-3 0,-1 0,-3 0,-5 0,-3 0,-6 1,-7 1,-1 3,-2 5,-2l17 0zm-2 43c0,-3 1,-5 3,-7 2,-3 5,-4 8,-4 3,0 5,1 8,4 2,2 3,4 3,7 0,3 -1,6 -3,8 -3,2 -5,3 -8,3 -3,0 -6,-1 -8,-3 -2,-2 -3,-5 -3,-8zm96 -25c-1,11 -6,19 -13,24 -8,5 -20,8 -35,8l-5 0 0 -19 4 0c5,0 9,0 13,-1 3,0 6,-1 9,-3 2,-1 4,-2 5,-4 1,-1 2,-3 2,-5l-10 0c-4,0 -8,-1 -12,-2 -4,-1 -7,-2 -10,-5 -2,-2 -5,-5 -6,-9 -2,-3 -3,-8 -3,-13 0,-4 1,-8 3,-12 1,-4 3,-7 6,-11 2,-3 6,-5 9,-7 4,-2 9,-3 14,-3 5,0 10,1 14,3 4,2 7,5 9,8 3,4 4,8 5,13 1,5 2,10 2,16l0 4 11 0c1,0 2,0 2,0 1,1 2,1 2,2 1,0 1,1 2,2 0,1 0,3 0,5 0,3 0,6 -1,7 -1,1 -3,2 -5,2l-12 0zm-41 -31c0,5 1,9 3,10 2,2 5,3 9,3l10 0 0 -9c0,-5 -1,-9 -3,-12 -1,-3 -4,-5 -8,-5 -4,0 -7,1 -8,4 -2,2 -3,6 -3,9zm111 2c0,-1 0,-3 0,-4 0,-2 -1,-3 -2,-4 -1,-1 -2,-2 -3,-3 -1,-1 -3,-1 -4,-1 -2,0 -3,0 -5,1 -1,0 -2,1 -4,3 -1,1 -2,3 -4,6 -1,2 -2,5 -2,9 2,2 5,3 7,4 2,1 5,1 7,1 4,0 6,-1 8,-3 2,-2 2,-5 2,-9zm-50 11c1,0 3,-1 4,-3 2,-2 4,-5 5,-9 2,-6 5,-10 8,-14 2,-4 5,-7 8,-9 3,-3 5,-4 8,-5 3,-1 6,-2 9,-2 4,0 8,1 11,3 3,1 6,3 9,6 2,3 4,6 6,10 1,4 2,8 2,13 0,9 -2,16 -7,22 -4,5 -11,8 -20,8 -4,0 -9,-1 -13,-2 -4,-1 -8,-3 -13,-6 -2,3 -5,4 -8,5 -3,1 -6,1 -9,1l-8 0c-1,0 -2,0 -2,0 -1,-1 -2,-1 -2,-1 -1,-1 -1,-2 -2,-3 0,-1 0,-3 0,-5 0,-3 0,-6 1,-7 1,-1 3,-2 5,-2l8 0zm257 18c-3,0 -6,-1 -8,-2 -3,-1 -6,-3 -8,-6 -1,2 -2,3 -4,4 -2,1 -4,2 -6,3 -1,0 -3,0 -6,1 -2,0 -4,0 -6,0l-67 0c-6,0 -11,-1 -15,-1 -4,-1 -8,-3 -10,-5 -3,-2 -4,-4 -5,-7 -1,-3 -2,-7 -2,-11l0 -26 20 0 0 23c0,2 0,4 1,5 0,1 1,2 3,3 1,0 3,1 5,1 2,0 5,0 9,0l58 0c3,0 6,0 7,-1 2,-1 2,-4 2,-8l0 -34 20 0 0 33c0,3 1,6 3,8 1,1 4,2 9,2 1,0 2,0 3,0 0,1 1,1 2,2 0,0 1,1 1,2 0,1 0,3 0,5 0,3 0,6 -1,7 -1,1 -3,2 -5,2zm-84 48c0,-3 1,-6 3,-8 2,-2 5,-3 7,-3 3,0 6,1 8,3 2,2 3,5 3,8 0,3 -1,5 -3,7 -2,3 -5,4 -8,4 -2,0 -5,-1 -7,-4 -2,-2 -3,-4 -3,-7zm-13 -22c0,-3 1,-6 3,-8 2,-2 5,-3 8,-3 3,0 5,1 8,3 2,2 3,5 3,8 0,3 -1,5 -3,7 -3,2 -5,3 -8,3 -3,0 -6,-1 -8,-3 -2,-2 -3,-4 -3,-7zm25 0c0,-3 1,-6 3,-8 2,-2 5,-3 8,-3 3,0 5,1 8,3 2,2 3,5 3,8 0,3 -1,5 -3,7 -3,2 -5,3 -8,3 -3,0 -6,-1 -8,-3 -2,-2 -3,-4 -3,-7zm72 -26c0,0 -1,0 -2,0 -1,-1 -1,-1 -2,-2 0,0 -1,-1 -1,-2 -1,-1 -1,-3 -1,-5 0,-3 1,-6 2,-7 1,-1 2,-2 4,-2l25 0 0 -43 20 0 0 61 -45 0zm2 26c0,-3 1,-6 3,-8 2,-2 5,-3 8,-3 3,0 5,1 8,3 2,2 3,5 3,8 0,3 -1,5 -3,7 -3,2 -5,3 -8,3 -3,0 -6,-1 -8,-3 -2,-2 -3,-4 -3,-7zm25 0c0,-3 1,-6 3,-8 2,-2 5,-3 8,-3 3,0 5,1 8,3 2,2 3,5 3,8 0,3 -1,5 -3,7 -3,2 -5,3 -8,3 -3,0 -6,-1 -8,-3 -2,-2 -3,-4 -3,-7zm98 -26c-3,0 -5,0 -7,-1 -2,0 -4,0 -6,-1 -1,-1 -3,-1 -4,-2 -1,-1 -3,-2 -4,-4 -3,4 -6,6 -10,7 -3,0 -7,1 -11,1l-26 0 0 -18 30 0c2,0 4,0 5,-1 2,-1 2,-2 2,-3 0,-1 0,-2 -1,-4 -1,-1 -3,-4 -6,-8l-14 -21 18 -11 19 31c2,3 4,6 5,8 1,2 3,4 4,6 1,1 2,2 3,2 1,1 2,1 3,1 1,0 2,0 3,0 0,1 1,1 2,2 0,0 1,1 1,2 0,1 0,3 0,5 0,3 0,6 -1,7 -1,1 -3,2 -5,2zm17 -88c0,-3 1,-5 3,-7 2,-2 5,-4 7,-4 3,0 6,1 8,4 2,2 3,4 3,7 0,3 -1,6 -3,8 -2,2 -5,3 -8,3 -2,0 -5,-1 -7,-3 -2,-2 -3,-5 -3,-8zm1 70l0 -43 20 0 0 61 -38 0c0,0 -1,0 -2,0 -1,-1 -1,-1 -2,-1 0,-1 -1,-2 -1,-3 -1,-1 -1,-3 -1,-5 0,-3 1,-6 2,-7 1,-1 2,-2 4,-2l18 0zm80 18c-1,0 -3,0 -5,-1 -3,-1 -5,-2 -7,-4 0,7 -1,13 -2,17 -2,5 -4,9 -7,12 -3,2 -7,5 -12,6 -4,1 -10,2 -16,2l0 -19c4,0 7,-1 10,-1 2,-1 4,-3 5,-4 1,-2 2,-4 2,-7 1,-3 1,-6 1,-10l0 -45 20 0 0 26c0,4 1,6 3,8 3,1 5,2 8,2 1,0 2,0 2,0 1,1 2,1 2,2 1,0 1,1 2,2 0,1 0,3 0,5 0,3 0,6 -1,7 -1,1 -3,2 -5,2zm6 -18c3,0 4,0 6,0 1,0 3,0 3,-1 1,0 2,-1 2,-2 1,-1 1,-2 1,-4l0 -29 20 0 0 26c0,3 1,5 2,7 2,2 5,3 9,3 3,0 5,0 7,-1 2,-1 4,-3 4,-6l0 -29 19 0 0 26c0,7 3,10 10,10l9 0 0 -43 20 0 0 61 -24 0c-5,0 -9,-1 -12,-2 -3,-1 -5,-3 -7,-6 -1,2 -3,3 -5,4 -2,1 -3,2 -5,3 -2,0 -4,1 -6,1 -1,0 -3,0 -5,0 -5,0 -9,-1 -13,-3 -3,-1 -6,-3 -7,-5 -3,4 -7,6 -11,7 -5,0 -10,1 -17,1l-6 0c-1,0 -2,0 -2,0 -1,-1 -2,-1 -2,-1 -1,-1 -1,-2 -2,-3 0,-1 0,-3 0,-5 0,-3 1,-6 1,-7 1,-1 3,-2 5,-2l6 0z"/>
  </g>
 </g>
</svg>
