<?xml version="1.0" encoding="UTF-8"?>
<!DOCTYPE svg PUBLIC "-//W3C//DTD SVG 1.1//EN" "http://www.w3.org/Graphics/SVG/1.1/DTD/svg11.dtd">
<!-- Creator: CorelDRAW X7 -->
<svg xmlns="http://www.w3.org/2000/svg" xml:space="preserve" width="100%" height="100%" version="1.1" style="shape-rendering:geometricPrecision; text-rendering:geometricPrecision; image-rendering:optimizeQuality; fill-rule:evenodd; clip-rule:evenodd"
viewBox="0 0 734 657"
 xmlns:xlink="http://www.w3.org/1999/xlink">
 <defs>
  <style type="text/css">
   <![CDATA[
    .fil2 {fill:#D2AE6D}
    .fil3 {fill:white}
    .fil0 {fill:#DBBB83;fill-rule:nonzero}
    .fil1 {fill:#D2AE6D;fill-rule:nonzero}
   ]]>
  </style>
 </defs>
 <g id="Layer_x0020_1">
  <metadata id="CorelCorpID_0Corel-Layer"/>
  <g id="_1697628140432">
   <path class="fil0" d="M559 569c0,-48 39,-87 87,-87 49,0 88,39 88,87 0,49 -39,88 -88,88 -48,0 -87,-39 -87,-88z"/>
   <path class="fil1" d="M714 514c12,15 20,34 20,55 0,49 -39,88 -88,88 -27,0 -51,-12 -67,-32 0,0 66,26 107,-15 40,-40 28,-96 28,-96z"/>
   <g>
    <circle class="fil2" cx="276" cy="276" r="276"/>
    <path class="fil3" d="M329 355l0 52 -209 0 0 -52 209 0zm-209 -157l0 -52c104,0 209,0 313,0l-52 52c-87,0 -174,0 -261,0zm313 52c0,52 0,105 0,157l-52 0 0 -105 0 0 -261 0 0 -52c104,0 209,0 313,0z"/>
   </g>
  </g>
 </g>
</svg>
