<?xml version="1.0" encoding="UTF-8"?>
<!DOCTYPE svg PUBLIC "-//W3C//DTD SVG 1.1//EN" "http://www.w3.org/Graphics/SVG/1.1/DTD/svg11.dtd">
<!-- Creator: CorelDRAW X7 -->
<svg xmlns="http://www.w3.org/2000/svg" xml:space="preserve" width="4.01622in" height="1.07992in" version="1.1" style="shape-rendering:geometricPrecision; text-rendering:geometricPrecision; image-rendering:optimizeQuality; fill-rule:evenodd; clip-rule:evenodd"
viewBox="0 0 40162 10799"
 xmlns:xlink="http://www.w3.org/1999/xlink">
 <defs>
  <style type="text/css">
   <![CDATA[
    .fil1 {fill:#7C94CA}
    .fil0 {fill:white}
   ]]>
  </style>
 </defs>
 <g id="Layer_x0020_1">
  <metadata id="CorelCorpID_0Corel-Layer"/>
  <g id="_2250889329984">
   <path class="fil0" d="M5400 0l29362 0c2971,0 5401,2430 5401,5399 0,2971 -2429,5400 -5401,5400l-29362 0c-2970,0 -5400,-2429 -5400,-5399 0,-2970 2430,-5400 5400,-5400z"/>
   <path class="fil1" d="M5400 0l29362 0c2971,0 5401,2430 5401,5399 0,2971 -2429,5400 -5401,5400l-29362 0c-2970,0 -5400,-2429 -5400,-5399 0,-2970 2430,-5400 5400,-5400zm42 239l29278 0c2839,0 5161,2322 5161,5161 0,2839 -2322,5160 -5161,5160l-29278 0c-2838,0 -5161,-2322 -5161,-5160 0,-2838 2322,-5161 5161,-5161z"/>
  </g>
 </g>
</svg>
