<?xml version="1.0" encoding="UTF-8"?>
<!DOCTYPE svg PUBLIC "-//W3C//DTD SVG 1.1//EN" "http://www.w3.org/Graphics/SVG/1.1/DTD/svg11.dtd">
<!-- Creator: CorelDRAW X7 -->
<svg xmlns="http://www.w3.org/2000/svg" xml:space="preserve" width="9.44882in" height="5.11665in" version="1.1" style="shape-rendering:geometricPrecision; text-rendering:geometricPrecision; image-rendering:optimizeQuality; fill-rule:evenodd; clip-rule:evenodd"
viewBox="0 0 94488 51167"
 xmlns:xlink="http://www.w3.org/1999/xlink">
 <defs>
  <style type="text/css">
   <![CDATA[
    .fil3 {fill:#8FA3D1}
    .fil11 {fill:#95A9D4}
    .fil37 {fill:#9DAFD7}
    .fil40 {fill:#9F9CCB}
    .fil35 {fill:#A9B9DC}
    .fil8 {fill:#B3C1E0}
    .fil19 {fill:#C2A571}
    .fil24 {fill:#C4CFE9}
    .fil34 {fill:#DCC08D}
    .fil36 {fill:#DEE4F2}
    .fil2 {fill:#DFC596}
    .fil15 {fill:#E5D5B6}
    .fil1 {fill:#E9D8B8}
    .fil13 {fill:#EFE2C9}
    .fil0 {fill:#F2E8D3}
    .fil14 {fill:#F4EEE5}
    .fil18 {fill:#F7F1E5}
    .fil16 {fill:white}
    .fil41 {fill:white}
    .fil6 {fill:#5E6D8F;fill-rule:nonzero}
    .fil9 {fill:#657AA9;fill-rule:nonzero}
    .fil10 {fill:#6C87C3;fill-rule:nonzero}
    .fil32 {fill:#7875A3;fill-rule:nonzero}
    .fil39 {fill:#8480BC;fill-rule:nonzero}
    .fil5 {fill:#9DAFD7;fill-rule:nonzero}
    .fil30 {fill:#9F9CCB;fill-rule:nonzero}
    .fil33 {fill:#BB9B61;fill-rule:nonzero}
    .fil26 {fill:#C2A571;fill-rule:nonzero}
    .fil28 {fill:#C4CFE9;fill-rule:nonzero}
    .fil20 {fill:#D5DDEE;fill-rule:nonzero}
    .fil29 {fill:#DBBB82;fill-rule:nonzero}
    .fil7 {fill:#DCC08D;fill-rule:nonzero}
    .fil31 {fill:#DEE4F2;fill-rule:nonzero}
    .fil23 {fill:#DFE5F2;fill-rule:nonzero}
    .fil12 {fill:#E6D2AE;fill-rule:nonzero}
    .fil38 {fill:#E7D4B0;fill-rule:nonzero}
    .fil4 {fill:#EDDFC4;fill-rule:nonzero}
    .fil25 {fill:#EFE2C9;fill-rule:nonzero}
    .fil17 {fill:#F2E8D3;fill-rule:nonzero}
    .fil21 {fill:#F6F8FB;fill-rule:nonzero}
    .fil27 {fill:#FCE9CA;fill-rule:nonzero}
    .fil22 {fill:white;fill-rule:nonzero}
   ]]>
  </style>
 </defs>
 <g id="Layer_x0020_1">
  <metadata id="CorelCorpID_0Corel-Layer"/>
  <g id="_1759466795376">
   <g>
    <path class="fil0" d="M59619 19507c-990,1452 -1324,3637 -696,6895 1987,10312 -9648,15673 -20827,12838 -15149,-3843 -12558,128 -19150,6351 -4355,4110 -13643,5764 -18946,-2168l0 -12878c4694,-6285 14240,-10494 6947,-18739 -4075,-4606 -4913,-8559 -3922,-11806l88637 0c2863,10300 -647,16152 -14033,16561 -4917,150 -15252,-1098 -18010,2946z"/>
    <path class="fil1" d="M55928 19016c1375,-5841 4121,-10369 12313,-8696 3322,678 6728,2117 9388,2833 11656,3139 16443,-4487 14033,-13153l-88637 0c-991,3247 -153,7200 3922,11806 4586,5184 2514,8773 -823,12286 4518,-2829 7108,-3587 18130,3134 12009,7324 28648,4651 31674,-8210z"/>
    <path class="fil2" d="M3025 0l54871 0c-873,1566 -1393,3641 -1575,6255 -904,13057 -16971,17485 -30061,11506 -10513,-4802 -13700,-4619 -17023,-2300 -395,-1133 -1129,-2342 -2290,-3655 -4075,-4606 -4913,-8559 -3922,-11806z"/>
   </g>
   <path class="fil3" d="M64096 25228c196,220 118,793 -407,989l0 0c-294,110 -704,275 -1698,497l0 0c-494,110 -901,184 -1238,232l0 -1572c554,-186 1264,-430 2078,-679l0 0c36,-11 79,-16 126,-16l0 0c321,0 863,241 1139,549l0 0z"/>
   <path class="fil4" d="M57248 50519c0,357 2895,648 6466,648 3572,0 6467,-291 6467,-648 0,-358 -2895,-648 -6467,-648 -3571,0 -6466,290 -6466,648z"/>
   <path class="fil5" d="M66606 49383c-58,215 -36,291 -59,432 -28,174 -194,237 -290,380 -107,157 -273,410 377,422 695,14 1106,-32 988,-411 -118,-379 -140,-545 -132,-669 8,-123 0,-252 -79,-326 -79,-74 -703,-207 -805,172z"/>
   <path class="fil6" d="M63566 22687c-285,133 -408,134 -511,-219 -79,-274 -214,-1239 226,-1303 440,-65 785,-77 734,517 -51,594 -112,847 -449,1005z"/>
   <path class="fil7" d="M65228 23204c6,44 102,968 119,1677 8,347 -340,677 -688,686 -5,0 -10,0 -15,0 -341,0 -742,-309 -712,-650 55,-617 14,-1249 13,-1259l1283 -454z"/>
   <path class="fil8" d="M66155 33114l-4768 0c0,0 28,-4467 347,-6913l0 0c74,-569 401,-1081 1007,-1403l0 0c358,-190 1007,-281 1270,-281l0 0 882 0c295,0 636,60 930,116l0 0c1263,237 1493,1212 1126,2419l0 0c-634,2081 -917,4607 -794,6062z"/>
   <path class="fil9" d="M66136 36031c0,0 412,-1001 20,-2918l-4769 0c0,0 -171,1368 -174,2918l4923 0z"/>
   <path class="fil9" d="M65195 42272c-382,-1552 1204,-1825 1704,-702 708,1588 652,6667 614,7680 -5,133 -77,108 -154,81 -225,-78 -414,-109 -504,-91 -174,35 -265,209 -265,209 -150,-1381 -1025,-5673 -1395,-7177z"/>
   <path class="fil10" d="M63769 36240c-168,-1928 596,-3426 1793,-2789 504,268 688,804 756,1309 67,504 438,5752 568,6700 292,2138 -1396,1562 -1579,969 -462,-1495 -1447,-5138 -1538,-6189z"/>
   <path class="fil9" d="M60950 42173c-62,-1448 1347,-1417 1701,-239 557,1853 -406,5831 -466,8104 -246,-393 -477,-488 -587,-480 -177,13 -273,148 -273,148 36,-2993 -308,-5986 -375,-7533z"/>
   <path class="fil10" d="M62595 42329c-187,591 -1801,1275 -1632,-876 75,-954 274,-6222 312,-6730 39,-508 126,-1250 381,-1343 1274,-463 2509,1052 2174,2959 -224,1274 -847,4765 -1235,5990z"/>
   <path class="fil11" d="M68817 28963c-348,783 -504,1068 -1417,2025l0 0c-634,664 -830,933 -1206,1039l0 0c-304,87 -448,-189 -284,-387l0 0c246,-297 1029,-2445 1437,-2962 -348,-473 -1053,-1293 -1854,-2345l0 0c-178,-235 -161,-952 61,-1372l0 0c73,-138 267,-238 487,-238 194,0 410,78 581,277l0 0c205,238 503,564 1056,1420l0 0c906,1402 1119,2056 1167,2358l0 0c4,19 3,38 0,57 0,41 -8,84 -28,128l0 0z"/>
   <path class="fil12" d="M65696 22535c-79,789 -102,964 -447,1287 -345,323 -837,471 -1212,471 -403,0 -703,-427 -794,-760 -94,-346 -205,-1157 -92,-2021 58,-438 598,-969 1156,-969 558,0 1581,64 1389,1992z"/>
   <path class="fil12" d="M66337 31530c-183,-200 -469,-512 -610,-690 -140,-178 -558,129 -568,282 -13,228 217,852 510,851 292,-1 375,266 625,184 249,-82 342,-299 43,-627z"/>
   <path class="fil5" d="M61266 49698c-55,103 -315,338 -676,494 -361,155 -1126,228 -701,365 425,136 921,54 1171,15 251,-39 495,-44 791,-46 390,-3 393,-26 340,-450 -72,-584 -750,-707 -925,-378z"/>
   <path class="fil6" d="M65694 22413c-213,214 -325,255 -533,-31 -161,-222 -598,-1051 -222,-1252 377,-202 685,-327 833,227 148,554 176,802 -78,1056z"/>
   <path class="fil7" d="M65461 22545c-112,273 -86,542 57,600 143,58 349,-116 460,-389 112,-272 86,-541 -57,-599 -143,-59 -349,115 -460,388z"/>
   <path class="fil6" d="M65453 20980c-307,459 -1792,502 -2277,333 -485,-169 -451,-1106 242,-1171 391,0 108,93 424,222 161,65 1939,127 1611,616z"/>
   <g>
    <path class="fil13" d="M94488 23484c0,-3170 -2569,-5739 -5739,-5739 -3169,0 -5738,2569 -5738,5739 0,3169 2569,5739 5738,5739 3170,0 5739,-2570 5739,-5739z"/>
    <g>
     <path class="fil14" d="M85960 19116c-1368,790 -2188,2163 -2326,3622 -22,23 -26,60 -8,90l0 1c-68,904 126,1836 613,2680l33 56c-549,-2678 639,-5523 3141,-6968l67 -38c-521,93 -1035,277 -1520,557z"/>
     <path class="fil15" d="M91850 20114c1584,2744 644,6254 -2100,7838 -1070,618 -2256,850 -3398,743 1633,750 3592,725 5266,-242 2745,-1585 3685,-5094 2101,-7838 -967,-1675 -2651,-2676 -4440,-2844 1043,479 1953,1273 2571,2343z"/>
    </g>
    <path class="fil16" d="M89833 25108l0 1082 -4331 0 0 -1082 4331 0zm-4331 -3249l0 -1083c2166,0 4331,0 6496,0l-1083 1083c-1803,0 -3608,0 -5413,0zm6496 1082c0,1084 0,2167 0,3249l-1083 0 0 -2165 -5413 0 0 -1084c2166,0 4331,0 6496,0z"/>
   </g>
   <path class="fil17" d="M80542 35308c0,-1212 -929,-1789 -1958,-2083 -94,-1766 -1259,-2939 -3066,-2939 -1648,0 -2725,977 -3065,2536 -1262,184 -2476,844 -2476,2295 0,1254 1131,2273 2522,2273l5733 0c1274,0 2310,-934 2310,-2082z"/>
   <path class="fil17" d="M81357 31076c97,-1503 2551,-1600 2923,-162 602,74 1181,340 1181,925 0,505 -540,916 -1203,916l-2733 0c-1209,0 -1645,-1321 -168,-1679z"/>
   <path class="fil18" d="M76286 7192c-782,26 -1409,667 -1414,1462l-12 0c-7,-795 -634,-1436 -1413,-1462 784,-25 1413,-673 1413,-1472l10 0c0,799 629,1447 1416,1472z"/>
   <path class="fil2" d="M16363 37361c-1483,49 -2671,1265 -2679,2772l-25 0c-12,-1507 -1200,-2723 -2679,-2772 1487,-48 2679,-1277 2679,-2792l21 0c0,1515 1192,2744 2683,2792z"/>
   <path class="fil19" d="M32572 19508c-23,22 -47,43 -70,64 -54,51 -108,99 -163,147 -26,22 -52,44 -78,65 -56,47 -114,92 -171,136 -23,18 -46,36 -69,53 -81,59 -162,116 -244,170 -420,274 -864,478 -1319,611 -201,60 -404,105 -609,137 -7,1 -15,2 -23,3 -96,14 -192,26 -288,34 -5,1 -10,1 -15,1 -204,17 -408,21 -611,10 -5,0 -11,-1 -16,-1 -95,-5 -190,-14 -285,-25 -8,-1 -15,-2 -23,-3 -202,-26 -402,-65 -599,-118 -444,-120 -873,-310 -1272,-572 -78,-51 -155,-106 -231,-163 -21,-16 -43,-33 -65,-50 -54,-42 -107,-86 -160,-131 -25,-21 -49,-42 -73,-63 -52,-46 -102,-93 -152,-142 -21,-21 -43,-41 -64,-62 -70,-70 -138,-142 -204,-217 -66,-76 -129,-153 -190,-232 -19,-24 -37,-49 -55,-73 -42,-57 -83,-114 -123,-172 -19,-28 -37,-55 -55,-83 -39,-59 -77,-120 -114,-181 -14,-25 -29,-49 -43,-74 -49,-85 -97,-172 -141,-260 -225,-448 -383,-928 -479,-1423 -42,-219 -71,-441 -88,-665 -1,-9 -1,-18 -2,-26 -7,-105 -12,-211 -14,-316 0,-6 -1,-11 -1,-17 -3,-225 6,-451 27,-676 0,-6 1,-11 2,-17 10,-106 23,-212 39,-317 1,-9 3,-17 4,-26 34,-224 81,-448 141,-669 134,-498 331,-984 592,-1439 51,-90 105,-178 161,-265 16,-25 33,-50 49,-75 42,-62 84,-124 128,-185 20,-28 41,-56 62,-84 44,-60 90,-118 137,-176 20,-25 40,-50 60,-75 68,-81 137,-160 209,-238 72,-77 146,-151 221,-224 23,-22 46,-42 70,-64 53,-50 108,-99 163,-146 25,-23 51,-44 78,-66 56,-47 113,-92 171,-136 23,-17 46,-35 69,-53 80,-59 161,-116 244,-170 419,-274 864,-477 1318,-611 202,-59 405,-104 609,-136 8,-1 16,-2 23,-3 96,-15 192,-26 288,-35 5,0 10,-1 16,-1 204,-17 408,-20 611,-9 5,0 10,0 15,1 96,5 191,13 286,25 7,1 15,2 23,3 202,25 402,64 599,117 444,120 873,310 1271,572 79,51 155,106 231,163 22,16 43,34 65,51 54,42 108,85 161,130 24,21 49,42 73,64 51,45 102,93 152,141 21,21 43,41 64,63 69,70 138,141 204,217 66,75 129,153 190,232 19,24 36,48 54,73 43,56 84,114 124,172 18,27 37,54 55,82 39,60 77,121 113,182 15,24 30,48 44,73 49,86 96,172 140,260 225,449 384,928 479,1423 42,220 72,442 89,666 0,8 1,17 2,25 7,106 12,211 14,317 0,5 0,11 0,17 4,225 -5,450 -26,675 -1,6 -2,12 -2,17 -10,106 -24,212 -39,317 -2,9 -3,18 -4,26 -35,225 -82,448 -141,669 -135,499 -332,984 -592,1440 -51,89 -105,177 -161,264 -16,25 -33,50 -50,75 -41,62 -84,124 -128,185 -20,29 -40,57 -61,85 -45,59 -90,118 -137,176 -20,25 -40,50 -61,74 -67,81 -136,161 -208,238 -73,78 -147,152 -221,224zm-1193 -3815c6,-42 11,-84 15,-126l1 -7c8,-89 12,-179 10,-268l0 -7c-1,-42 -2,-83 -6,-125l0 -10c-7,-89 -19,-177 -35,-264 -38,-197 -101,-387 -190,-565 -18,-35 -37,-69 -56,-103l-17 -29c-15,-25 -30,-49 -45,-72l-22 -33c-16,-23 -32,-46 -49,-68l-22 -29c-24,-32 -49,-62 -75,-92 -27,-30 -54,-59 -81,-86l-26 -25c-20,-19 -40,-38 -60,-56l-29 -26c-21,-17 -42,-35 -64,-51l-25 -20c-30,-23 -61,-45 -92,-65 -158,-104 -328,-179 -505,-227 -78,-21 -157,-37 -237,-47l-9 -1c-38,-4 -76,-8 -114,-10l-6 0c-80,-4 -161,-3 -242,3l-6 1c-38,3 -77,8 -115,14l-9 1c-81,13 -162,30 -241,54 -181,53 -357,134 -524,243 -32,21 -64,44 -96,67l-28 21c-23,17 -45,35 -68,54l-31 26c-21,19 -43,38 -64,58l-28 26c-30,28 -59,57 -88,88 -28,31 -56,63 -82,95l-24 29c-19,23 -37,47 -55,70l-24 34c-18,24 -35,48 -51,73l-20 30c-22,34 -43,69 -64,105 -103,181 -181,373 -234,571 -24,88 -43,176 -56,266l-2 10c-6,41 -11,84 -15,126l-1 6c-9,90 -12,179 -11,268l0 7c1,42 3,84 6,126l1 10c7,89 18,177 35,264 38,196 101,387 190,565 17,34 36,69 56,103l17 29c14,24 29,48 45,72l22 33c16,23 32,45 49,68l21 29c25,31 50,62 76,92 26,30 53,58 81,86l25 25c20,19 40,38 61,56l28 25c21,18 43,35 64,52l26 20c30,22 61,44 92,65 158,104 328,179 504,226 78,22 158,37 238,47l9 1c38,5 75,8 113,10l6 1c81,4 162,3 243,-4l6 -1c38,-3 76,-7 114,-13l9 -1c81,-13 162,-31 242,-54 180,-54 357,-134 523,-243 33,-21 65,-44 97,-68l27 -20c23,-18 46,-36 68,-54l31 -26c22,-19 44,-39 65,-58l28 -26c29,-29 59,-58 87,-89 29,-31 56,-62 83,-94l24 -30c19,-23 37,-46 54,-70l25 -33c17,-24 34,-49 51,-74l19 -29c22,-35 44,-70 64,-105 104,-181 182,-374 235,-571 24,-88 42,-177 56,-266l2 -10zm1791 6037l1822 -1956 -587 -668c466,-738 791,-1546 977,-2377l869 -13 108 -2729 -869 13c-121,-827 -383,-1626 -791,-2349l640 -687 -1670 -1904 -640 687c-642,-472 -1356,-785 -2099,-944l38 -960 -2470 38 -38 960c-757,181 -1496,517 -2176,1009l-587 -668 -1822 1957 586 668c-465,737 -790,1545 -977,2376l-869 14 -107 2729 869 -13c121,826 383,1625 790,2349l-640 687 1670 1903 640 -687c642,472 1357,786 2100,944l-38 961 2470 -38 38 -961c756,-181 1496,-517 2176,-1009l587 668z"/>
   <path class="fil19" d="M21895 6009c-5,2 -10,4 -15,5 -11,4 -23,8 -34,11 -6,1 -11,3 -17,4 -11,4 -23,6 -35,9 -4,1 -9,2 -13,3 -17,3 -33,6 -49,8 -82,11 -163,9 -241,-5 -35,-7 -69,-15 -102,-26 -1,-1 -3,-1 -4,-1 -16,-6 -31,-11 -46,-18 -1,0 -2,0 -3,-1 -32,-13 -63,-29 -94,-46 -1,-1 -1,-1 -2,-2 -14,-8 -28,-17 -42,-26 -1,-1 -2,-2 -4,-3 -29,-20 -57,-42 -84,-66 -60,-54 -113,-118 -157,-192 -9,-14 -17,-29 -25,-44 -2,-5 -4,-9 -7,-14 -5,-11 -11,-22 -16,-34 -2,-5 -5,-10 -7,-16 -5,-11 -10,-22 -14,-34 -2,-5 -4,-10 -6,-15 -6,-17 -12,-34 -17,-51 -5,-18 -10,-35 -14,-53 -1,-5 -3,-11 -4,-16 -3,-12 -5,-25 -8,-37 -1,-6 -2,-12 -3,-18 -2,-13 -4,-25 -5,-38 -1,-5 -2,-10 -2,-16 -2,-17 -4,-35 -5,-53 -5,-90 1,-179 19,-267 7,-38 17,-77 29,-114 1,-1 1,-3 2,-4 5,-18 11,-35 18,-52 0,-1 1,-2 1,-3 14,-37 30,-72 48,-107 0,-1 0,-2 1,-3 8,-16 17,-32 26,-48 1,-1 2,-2 3,-3 20,-34 41,-66 65,-97 52,-70 114,-133 183,-186 14,-10 28,-20 42,-30 4,-3 8,-5 12,-8 11,-7 21,-13 32,-20 5,-3 10,-6 15,-8 10,-7 21,-12 32,-18 5,-2 9,-5 14,-7 16,-8 31,-15 48,-22 16,-7 32,-13 48,-19 5,-2 10,-3 15,-5 11,-4 23,-7 34,-10 5,-2 11,-4 16,-5 12,-3 23,-6 35,-8 5,-1 9,-3 14,-3 16,-4 32,-6 48,-9 82,-11 164,-9 242,6 34,6 68,15 102,26 1,0 2,1 4,1 15,5 31,11 46,17 1,1 1,1 2,1 33,13 64,29 94,47 1,0 2,1 3,1 14,9 28,17 42,27 1,0 2,1 3,2 29,20 57,42 84,66 61,54 114,119 158,192 9,15 17,30 25,45 2,4 4,9 6,13 6,11 11,23 17,34 2,5 4,11 7,16 4,11 9,23 14,35 2,5 4,10 5,15 7,17 12,34 18,51 5,17 9,35 14,52 1,6 2,11 3,16 3,13 6,25 8,38 1,6 2,12 3,18 2,12 4,25 6,38 1,5 1,10 2,15 2,18 3,35 5,53 5,90 -2,180 -19,267 -8,39 -18,77 -30,114 0,2 0,3 -1,5 -6,17 -12,35 -18,52 -1,1 -1,2 -1,3 -14,36 -30,72 -48,106 0,1 -1,2 -1,3 -9,16 -18,32 -27,48 -1,1 -1,3 -2,4 -20,33 -42,66 -65,97 -53,69 -114,132 -184,185 -13,11 -27,21 -41,30 -4,3 -9,6 -13,8 -10,7 -21,14 -31,20 -5,3 -10,6 -15,9 -11,6 -22,12 -32,17 -5,3 -10,5 -15,8 -15,7 -31,15 -47,22 -16,6 -32,13 -48,18zm-10 739l509 -215 -58 -194c149,-103 277,-234 380,-384l168 83 242 -542 -168 -83c44,-179 58,-367 39,-554l179 -76 -167 -550 -179 76c-85,-159 -196,-293 -326,-399l85 -191 -478 -236 -85 190c-160,-38 -330,-43 -500,-11l-59 -193 -509 216 59 193c-149,103 -277,235 -381,385l-168 -84 -242 542 168 83c-43,180 -58,367 -38,554l-179 76 167 550 178 -75c85,159 197,293 327,398l-85 191 477 237 86 -191c160,38 329,43 500,11l58 193z"/>
   <path class="fil13" d="M19462 11756c-574,-154 -901,-803 -728,-1446 172,-644 779,-1042 1353,-889 574,154 901,803 728,1446 -172,644 -779,1042 -1353,889zm2757 -26l243 -908 -594 -159c24,-300 -5,-594 -81,-867l547 -359 -400 -795 -547 360c-169,-212 -376,-389 -616,-516l179 -667 -809 -217 -179 667c-271,-10 -538,40 -790,139l-295 -585 -744 488 295 585c-202,199 -374,438 -503,711l-595 -160 -243 907 595 160c-25,300 4,594 80,867l-547 359 400 794 547 -359c169,212 376,389 616,516l-179 667 809 217 179 -668c271,10 539,-39 791,-138l294 585 744 -489 -295 -584c202,-199 375,-438 503,-711l595 160z"/>
   <g>
    <polygon class="fil20" points="50103,35958 49961,36000 37358,35226 37358,21477 50103,20366 "/>
    <path class="fil21" d="M48149 30264l-11076 -166c-100,-1 -189,-52 -251,-134 -57,-74 -92,-175 -92,-285l0 -2196c0,-109 35,-210 92,-284 63,-82 151,-133 251,-134 3686,-41 7396,-123 11080,-123 111,0 211,51 283,134 68,79 110,187 112,307 1,2 2,2235 0,2444 -2,119 -45,226 -112,304 -72,82 -171,133 -281,133l-6 0zm-11074 -364l11080 165c50,0 96,-25 131,-64 38,-44 62,-107 63,-176 9,-812 0,-1629 0,-2441 -1,-71 -25,-133 -63,-178 -35,-40 -82,-65 -133,-65l-11078 123c-35,0 -69,21 -95,55 -31,41 -51,99 -51,164l0 2196c0,65 20,123 51,165 26,34 60,55 95,56z"/>
    <path class="fil21" d="M48146 34382l-11077 -546c-98,-5 -186,-59 -247,-141 -57,-76 -92,-178 -92,-286l1 -2209c2,-106 38,-202 93,-272 62,-78 148,-125 245,-125l4229 98 6855 160c112,2 213,57 284,142 69,82 111,193 111,313l-1 2457c-5,113 -48,213 -113,286 -70,77 -165,124 -271,124 -5,-1 -12,-1 -17,-1zm-11067 -745l11084 547c47,-1 91,-22 123,-58 36,-40 60,-97 63,-162l0 -2448c0,-72 -25,-138 -64,-185 -36,-43 -85,-71 -137,-72l-11079 -258c-33,1 -65,20 -89,50 -30,38 -49,92 -51,154l0 2204c0,65 20,125 52,167 27,36 61,60 98,61z"/>
    <polygon class="fil22" points="41819,24063 37360,24216 37360,23892 41819,23726 "/>
    <polygon class="fil22" points="41819,24662 37360,24791 37360,24468 41819,24325 "/>
    <polygon class="fil22" points="39293,25321 37360,25367 37360,25043 39293,24991 "/>
    <polygon class="fil22" points="42467,28415 37940,28414 37940,27977 42467,27961 "/>
    <polygon class="fil22" points="40947,29212 37940,29189 37940,28753 40947,28763 "/>
    <polygon class="fil22" points="42088,29220 41307,29215 41307,28765 42088,28767 "/>
    <polygon class="fil22" points="39704,32242 37940,32181 37940,31745 39704,31799 "/>
    <polygon class="fil22" points="41871,32318 40038,32254 40038,31809 41871,31866 "/>
    <polygon class="fil22" points="40947,33083 37940,32957 37940,32520 40947,32634 "/>
    <polygon class="fil22" points="44456,33229 41307,33098 41307,32648 44456,32767 "/>
    <path class="fil21" d="M48152 26146l-10983 213c-33,1 -66,1 -99,2 -97,0 -184,-48 -246,-126 -56,-71 -91,-167 -93,-274l-1 -2207c0,-109 35,-211 92,-286 61,-83 149,-136 248,-140l11092 -504c107,0 202,47 272,124 65,73 108,175 113,288l1 2455c0,120 -42,231 -111,313 -71,85 -172,139 -285,142zm-11080 16l11077 -215c52,-1 100,-28 136,-71 39,-47 64,-112 64,-185l0 -2446c-3,-66 -27,-123 -63,-164 -33,-36 -76,-58 -124,-58l-11084 503c-36,2 -70,25 -97,61 -32,42 -52,101 -52,167l0 2203c1,62 21,116 51,154 25,31 56,51 90,51l2 0z"/>
    <polygon class="fil23" points="60753,31054 60631,31084 45156,30477 45156,10451 60631,8582 60753,8626 "/>
    <polygon class="fil24" points="50103,30671 50103,20366 45156,20797 45156,30477 "/>
    <path class="fil25" d="M40156 15483l720 -103 23 356c164,28 327,87 480,179l241 -272 579 598 -219 309c99,179 172,374 217,580l343 8 0 964 -343 34c-45,208 -118,409 -217,595l219 292 -579 641 -241 -254c-153,103 -316,174 -480,214l-23 358 -720 -51 -21 -348c-151,-54 -295,-136 -428,-244l-202 212 -452 -604 166 -248c-76,-164 -131,-338 -164,-517l-248 -21 0 -809 248 -38c33,-182 88,-361 164,-530l-166 -236 452 -637 202 197c133,-118 277,-210 428,-275l21 -350zm354 3285c154,3 309,-44 450,-141 68,-47 133,-103 191,-173 59,-70 108,-148 148,-230 171,-349 171,-780 0,-1117 -40,-80 -89,-154 -148,-219 -58,-66 -123,-118 -191,-159 -141,-87 -296,-122 -450,-109 -151,13 -301,74 -432,179 -62,50 -120,109 -173,179 -52,69 -95,145 -129,223 -147,328 -147,723 0,1040 34,76 77,148 129,214 53,66 111,120 173,166 131,96 281,145 432,147z"/>
    <path class="fil26" d="M43193 14364l461 -70 14 195c103,11 204,40 299,86l148 -152 349 307 -131 170c60,93 103,194 130,302l203 -7 0 508 -203 34c-27,113 -70,223 -130,327l131 144 -349 378 -148 -122c-95,65 -196,114 -299,146l-14 198 -461 23 -14 -192c-98,-20 -193,-56 -281,-108l-134 133 -305 -311 113 -151c-52,-89 -89,-184 -112,-284l-169 1 0 -462 169 -32c23,-105 60,-208 112,-307l-113 -128 305 -373 134 106c88,-70 183,-125 281,-164l14 -195zm228 1502c48,-4 97,-22 140,-52 21,-15 40,-32 58,-52 18,-20 33,-42 45,-64 50,-96 50,-210 0,-296 -12,-20 -27,-39 -45,-56 -18,-16 -37,-29 -58,-39 -43,-22 -92,-30 -140,-24 -48,5 -96,24 -138,54 -20,15 -40,32 -57,52 -17,20 -31,42 -43,64 -48,95 -48,206 0,290 12,20 26,39 43,56 17,16 37,30 57,40 42,22 90,31 138,27z"/>
    <path class="fil27" d="M52016 22903c1865,745 4139,285 5740,-1409 787,-833 1295,-1841 1516,-2894l-2710 -451c-268,1288 -1354,2285 -2628,2341 -345,15 -672,-40 -970,-154l-948 2567z"/>
    <path class="fil21" d="M50096 21050c39,41 79,80 120,119l1717 -2043c-497,-474 -807,-1164 -807,-1950 0,-1503 1145,-2818 2585,-2940 1046,-88 1965,473 2408,1372l2477 -1445c-264,-526 -619,-1008 -1062,-1420 -2137,-1988 -5467,-1624 -7438,693 -1916,2251 -1914,5611 0,7614z"/>
    <path class="fil28" d="M56403 16839c0,208 -23,413 -64,608l2711 451c274,-1275 123,-2603 -454,-3735l-2476 1445c180,363 283,781 283,1231z"/>
    <path class="fil29" d="M50216 21169c466,459 1003,803 1577,1032l949 -2567c-303,-113 -575,-288 -808,-508l-1718 2043z"/>
    <polygon class="fil30" points="52733,23947 52733,34044 52498,34029 52498,23950 "/>
    <polygon class="fil26" points="49086,23690 49086,23170 50048,23152 50048,23676 "/>
    <polygon class="fil26" points="47418,23714 47418,23201 48355,23183 48355,23701 "/>
    <polygon class="fil26" points="45793,23738 45793,23231 46706,23214 46706,23725 "/>
    <path class="fil21" d="M46420 14293c299,-159 653,-123 896,125 118,120 194,273 227,438l-408 133c-41,-205 -208,-347 -408,-330 -55,5 -106,21 -154,46l-153 -412z"/>
    <path class="fil29" d="M46143 14521c6,-8 13,-15 20,-22l280 309c-81,91 -131,215 -131,348 0,254 186,446 415,428 164,-13 306,-129 375,-288l373 174c-39,92 -92,179 -159,258 -326,385 -851,424 -1173,90 -320,-332 -320,-912 0,-1297z"/>
    <path class="fil27" d="M47145 15087c0,-34 -4,-67 -10,-98l408 -133c40,200 18,417 -68,614l-373 -174c27,-64 43,-135 43,-209z"/>
    <path class="fil30" d="M46163 14498c76,-87 164,-156 257,-205l153 412c-49,26 -92,61 -130,103l-280 -310z"/>
    <g>
     <path class="fil31" d="M47494 21036c-129,335 -424,575 -767,585 -165,5 -318,-43 -446,-131l222 -393c161,109 378,81 519,-81 39,-44 68,-95 89,-148l383 168z"/>
     <path class="fil32" d="M47562 20668c0,10 0,20 -1,31l-416 0c3,-124 -38,-247 -123,-338 -163,-174 -427,-163 -589,24 -115,133 -148,319 -99,478l-388 161c-28,-91 -43,-190 -43,-293 0,-505 368,-932 824,-953 460,-21 835,378 835,890z"/>
     <path class="fil29" d="M46433 21037c22,23 45,43 69,60l-221 392c-156,-105 -275,-269 -335,-465l388 -161c20,64 53,124 99,174z"/>
     <path class="fil33" d="M47561 20698c-3,119 -27,234 -67,339l-383 -169c21,-54 32,-111 34,-169l416 -1z"/>
    </g>
    <path class="fil30" d="M46400 18775c-293,-125 -497,-437 -497,-815 0,-182 47,-354 130,-502l344 225c-103,185 -84,424 56,572 39,40 83,70 130,90l-163 430z"/>
    <path class="fil21" d="M46727 18832c-9,1 -18,1 -28,1l14 -459c111,-3 224,-54 309,-154 164,-191 164,-484 0,-655 -116,-121 -283,-148 -429,-84l-132 -425c83,-37 173,-61 266,-67 460,-31 835,359 835,871 0,513 -375,948 -835,972z"/>
    <path class="fil29" d="M46433 17602c-21,25 -40,53 -55,81l-345 -225c99,-180 249,-323 428,-402l132 425c-58,26 -113,66 -160,121z"/>
    <path class="fil27" d="M46699 18833c-106,2 -207,-19 -299,-58l163 -430c48,20 99,29 150,29l-14 459z"/>
    <path class="fil8" d="M59988 25619c-314,-514 -1801,-1798 -2198,-2267 19,186 -189,292 -383,305 -52,4 -109,-2 -167,-15 13,279 109,577 459,1183 621,1074 1036,1635 1447,2080 72,78 161,104 255,90 215,38 611,58 1352,-49l0 -1572c-306,103 -564,188 -765,245z"/>
    <path class="fil19" d="M57815 23146c11,-116 75,-806 -53,-828 -126,-20 -198,158 -245,368 -99,-214 -217,-451 -337,-658 -244,198 -498,371 -760,521 22,153 53,284 79,364 125,398 457,661 741,729 58,13 115,19 167,15 194,-13 402,-119 383,-305 -1,-9 -3,-18 -5,-28 15,-45 22,-105 30,-178z"/>
    <path class="fil34" d="M57180 22028c-216,-373 -440,-649 -574,-515 -234,236 -235,691 -186,1036 262,-150 516,-323 760,-521z"/>
    <path class="fil35" d="M37358 23513l0 -198 -288 13c-99,4 -187,57 -248,140 -57,75 -92,177 -92,286l1 2207c2,107 37,203 93,274 62,78 149,126 246,126l99 -2 189 -4 0 -199 -286 6 -2 0c-34,0 -65,-20 -90,-51 -30,-38 -50,-92 -51,-154l0 -2203c0,-66 20,-125 52,-167 27,-36 61,-59 97,-61l280 -13z"/>
    <path class="fil35" d="M37358 31008l0 -199 -289 -6c-97,0 -183,47 -245,125 -55,70 -91,166 -93,272l-1 2209c0,108 35,210 92,286 61,82 149,136 247,141l289 14 0 -199 -280 -14c-36,-1 -70,-25 -97,-61 -32,-42 -52,-102 -52,-167l0 -2204c2,-62 21,-116 51,-154 24,-30 56,-49 89,-50l289 7z"/>
    <path class="fil35" d="M37358 29904l-283 -4c-35,-1 -69,-22 -95,-56 -31,-42 -51,-100 -51,-165l0 -2196c0,-65 20,-123 51,-164 26,-34 60,-55 95,-55l283 -3 0 -199c-95,1 -190,2 -285,3 -100,1 -188,52 -251,134 -57,74 -92,175 -92,284l0 2196c0,110 35,211 92,285 62,82 151,133 251,134l285 4 0 -198z"/>
    <path class="fil36" d="M50103 21058l0 -693 -524 46c153,225 325,439 517,639 2,3 4,5 7,8z"/>
    <path class="fil37" d="M48548 29827c2,-209 1,-2442 0,-2444 -2,-120 -44,-228 -112,-307 -72,-83 -172,-134 -283,-134 -997,0 -1997,6 -2997,16l0 216 2997 -33c51,0 98,25 133,65 38,45 62,107 63,178 0,812 9,1629 0,2441 -1,69 -25,132 -63,176 -35,39 -81,64 -131,64l-2999 -45 0 199 2993 45 6 0c110,0 209,-51 281,-133 67,-78 110,-185 112,-304z"/>
    <path class="fil37" d="M47699 22845l-2543 115 0 199 2805 -127 201 -9c48,0 91,22 124,58 36,41 60,98 63,164l0 56 0 2390c0,73 -25,138 -64,185 -36,43 -84,70 -136,71l-2993 58 0 199 2996 -58c113,-3 214,-57 285,-142 69,-82 111,-193 111,-313l-1 -2256 0 -199c-5,-113 -48,-215 -113,-288 -70,-77 -165,-124 -272,-124l-463 21z"/>
    <path class="fil38" d="M58071 31889c-1467,-66 -2176,-1731 -2875,-3370 -665,-1558 -1319,-3094 -2578,-3091 -1218,2 -1847,1508 -2466,2993l-49 117 0 -562c602,-1425 1258,-2763 2515,-2765 1402,-3 2085,1598 2778,3223 672,1577 1354,3178 2685,3238l-10 217z"/>
    <polygon class="fil39" points="47734,26463 47734,33312 47516,33298 47516,26460 "/>
    <path class="fil40" d="M47558 20575c-42,-467 -399,-816 -831,-797 -446,21 -807,428 -824,917l412 -30c9,-101 49,-200 118,-280 162,-187 426,-198 589,-24 63,68 102,154 117,244l419 -30z"/>
    <polygon class="fil35" points="60631,31084 60772,31054 60772,8625 60631,8582 "/>
    <polygon class="fil35" points="49961,30666 49961,36000 50103,35958 50103,30671 "/>
    <polygon class="fil41" points="37358,21477 37358,21550 45156,20972 45156,20797 "/>
    <path class="fil29" d="M50103 28538c-626,1497 -1259,2936 -2532,2879 -1267,-57 -1875,-1597 -2474,-3116 -568,-1438 -1128,-2857 -2196,-2855l0 -217c1216,-2 1803,1485 2398,2992 574,1454 1156,2929 2281,2979 1155,52 1759,-1395 2371,-2862 50,-121 101,-242 152,-362l0 562z"/>
   </g>
  </g>
 </g>
</svg>
