<?xml version="1.0" encoding="UTF-8"?>
<!DOCTYPE svg PUBLIC "-//W3C//DTD SVG 1.1//EN" "http://www.w3.org/Graphics/SVG/1.1/DTD/svg11.dtd">
<!-- Creator: CorelDRAW X7 -->
<svg xmlns="http://www.w3.org/2000/svg" xml:space="preserve" width="27.1654in" height="13.7848in" version="1.1" style="shape-rendering:geometricPrecision; text-rendering:geometricPrecision; image-rendering:optimizeQuality; fill-rule:evenodd; clip-rule:evenodd"
viewBox="0 0 271654 137848"
 xmlns:xlink="http://www.w3.org/1999/xlink">
 <defs>
  <style type="text/css">
   <![CDATA[
    .fil7 {fill:#7ECDC5}
    .fil9 {fill:#D2AE6D}
    .fil1 {fill:#D2AE6D}
    .fil6 {fill:#DFC495}
    .fil13 {fill:#E2CAA0}
    .fil5 {fill:#E8D5B3}
    .fil12 {fill:#E9D6B3}
    .fil11 {fill:#ECDFC7}
    .fil8 {fill:#EDDEC2}
    .fil3 {fill:#F0E5D2}
    .fil4 {fill:#F2E6D3}
    .fil14 {fill:#F3E9D7}
    .fil2 {fill:#F7F1E5}
    .fil0 {fill:#FBF7F0}
    .fil10 {fill:white}
   ]]>
  </style>
 </defs>
 <g id="Layer_x0020_1">
  <metadata id="CorelCorpID_0Corel-Layer"/>
  <g id="_2250877847072">
   <path class="fil0" d="M0 137848l271654 0 0 -125187c-14290,19915 -33464,25975 -48247,25410 -28690,-1096 -53739,-31152 -76901,-32721 -28616,-1939 -39500,26529 -61784,15095 -9171,-4705 -37988,-49264 -84722,10188l0 107215z"/>
   <path class="fil1" d="M7315 43571c-601,-604 -933,-1406 -933,-2258 0,-852 332,-1654 933,-2258 604,-601 1406,-933 2258,-933 851,0 1653,332 2258,933 600,604 933,1406 933,2258 0,852 -333,1654 -933,2258 -605,601 -1407,933 -2258,933 -852,0 -1654,-332 -2258,-933zm3499 -3325l-174 -174 -1067 1068 -1067 -1068 -174 174 1067 1067 -1067 1069 173 172 1068 -1067 1067 1067 174 -172 -1068 -1069 1068 -1067zm1752 1067c0,-799 -311,-1551 -877,-2117 -565,-565 -1318,-876 -2116,-876 -799,0 -1552,311 -2117,876 -565,566 -876,1318 -876,2117 0,799 311,1551 876,2117 565,565 1318,876 2117,876 798,0 1551,-311 2116,-876 566,-566 877,-1318 877,-2117z"/>
   <g>
    <g>
     <path class="fil2" d="M228255 81790c0,-16952 -13741,-30694 -30692,-30694 -16951,0 -30693,13742 -30693,30694 0,16951 13742,30692 30693,30692 16951,0 30692,-13741 30692,-30692z"/>
     <path class="fil3" d="M218822 103916l0 -14749 -6 0 0 -35c-18,-76 -1869,-1612 -3293,-2778l0 -645 1723 -445c270,-69 546,-103 820,-103 445,0 885,90 1295,268 299,128 609,251 920,351l0 1348c1424,1166 2327,1928 2344,2004l0 35 6 0 0 10319c-1131,1600 -2403,3077 -3809,4430z"/>
     <polygon class="fil4" points="153880,42410 162887,63543 169469,59039 173285,64583 173973,55232 181940,50377 "/>
     <polygon class="fil5" points="170928,58040 162887,63543 169469,59039 173285,64583 173973,55232 161278,47671 "/>
     <polygon class="fil6" points="173804,57524 161278,47671 173973,55232 "/>
     <path class="fil6" d="M173446 67219c-71,-412 -161,-823 -268,-1222l618 -165c111,417 205,847 280,1278l-630 109z"/>
     <path class="fil6" d="M174055 72337l-630 -111c146,-827 222,-1669 227,-2504l639 4c-4,870 -84,1749 -236,2611zm-4377 377c-726,-162 -1472,-245 -2216,-245l-259 3 -16 -639c881,-21 1768,64 2631,258l-140 623zm-7043 1248l-448 -457c563,-551 1333,-964 2354,-1262l215 603c-940,275 -1642,647 -2121,1116zm11496 962c-589,-428 -1220,-878 -1904,-1252l-214 -114 293 -568c76,39 152,80 228,121 717,393 1394,875 1973,1296l-376 517zm27462 842l-197 -607c812,-264 1621,-540 2426,-826l213 603c-809,288 -1624,565 -2442,830zm-4968 1416l-150 -621c799,-194 1632,-415 2473,-655l176 615c-850,243 -1690,465 -2499,661zm-24347 71l-555 -318c414,-721 769,-1488 1055,-2280l601 216c-298,828 -668,1629 -1101,2382zm6380 255c-751,-256 -1456,-568 -2094,-928 -100,-56 -200,-115 -299,-175l331 -547c93,56 186,111 282,164 604,341 1272,638 1986,881l-206 605zm12886 646l-86 -633c822,-113 1670,-252 2519,-416l121 627c-860,167 -1720,309 -2554,422zm-7760 291l-408 -31c-786,-66 -1498,-155 -2177,-272l109 -630c660,114 1354,200 2121,265l399 30 -44 638zm2593 84l-3 -640c833,-3 1690,-38 2547,-101l47 638c-871,64 -1743,99 -2591,103zm-24736 146c-361,-731 -552,-1534 -552,-2323 0,-65 2,-130 5,-194l7 -139 638 47 -7 117c-2,57 -3,113 -3,169 0,692 167,1397 485,2040l-573 283zm7003 2377l-283 -574c665,-327 1309,-834 1913,-1507l475 428c-658,734 -1367,1290 -2105,1653zm-2656 521c-928,-62 -1816,-358 -2568,-857l353 -532c660,437 1440,697 2257,751l-42 638z"/>
     <path class="fil7" d="M206483 74035l-228 -599c398,-150 796,-305 1192,-460l233 596c-398,155 -797,310 -1197,463z"/>
     <path class="fil8" d="M226610 89617c-325,0 -603,-247 -635,-578 -34,-351 223,-664 574,-698 3864,-374 7419,-2219 10010,-5194 232,-267 636,-293 901,-62 267,232 295,636 62,902 -2805,3223 -6659,5221 -10849,5627l-63 3z"/>
     <path class="fil9" d="M218818 89168l-22274 13135 -22273 -13135 3 -37c18,-83 1248,-1109 3122,-2633l51 -43c6151,-4994 19097,-15220 19097,-15220 0,0 12947,10226 19097,15220 1904,1545 3156,2590 3174,2676l3 37z"/>
     <path class="fil10" d="M205705 60356l-24032 0c-2062,0 -3733,1672 -3733,3733l0 36336c0,2062 1671,3732 3732,3732l30114 0c2061,0 3732,-1670 3732,-3732l0 -30255 -9813 -9814z"/>
     <path class="fil11" d="M205705 66438c0,2061 1671,3732 3732,3732l6081 0 -9813 -9814 0 6082z"/>
     <path class="fil12" d="M218821 89167l0 21369c0,1494 -1221,2714 -2715,2714l-39126 0c-1494,0 -2707,-1220 -2707,-2714l0 -21369 22274 13133 22274 -13133z"/>
     <path class="fil13" d="M218068 112400l-14336 -14337 -7185 4237 -7188 -4238 -14337 14337c493,521 1186,851 1958,851l39126 0c772,0 1466,-329 1962,-850z"/>
     <path class="fil12" d="M223319 59833c-6412,629 -11534,5914 -11993,12341 -228,3198 678,6169 2348,8572 628,905 731,2075 309,3093l-1058 2546 4323 -1121c704,-183 1448,-125 2116,164 2003,869 4260,1266 6631,1036 6294,-609 11386,-5692 11994,-11986 816,-8443 -6224,-15474 -14670,-14645z"/>
     <path class="fil13" d="M224312 59775c4766,1427 8242,5842 8242,11072 0,6386 -5176,11562 -11561,11562 -3364,0 -6383,-1446 -8495,-3739 333,728 723,1425 1176,2076 628,905 731,2075 309,3093l-1058 2546 4323 -1121c704,-183 1448,-125 2116,164 2003,869 4260,1266 6631,1036 6294,-609 11386,-5692 11994,-11986 783,-8110 -5681,-14912 -13677,-14703z"/>
     <path class="fil14" d="M154643 48677l2921 6704c149,342 -8,739 -351,887l-104 45c-343,148 -742,-12 -888,-358l-2817 -6748c-148,-354 28,-760 388,-893 335,-124 709,35 851,363z"/>
     <path class="fil6" d="M197097 85951l0 -2205 -734 0 0 2205 734 0zm4447 6225l-4684 -4003 -9759 0 0 -14061 19256 0 0 14061 -4813 0 0 4003zm734 -3266l4814 0 0 -15545 -20726 0 0 15545 10232 0 5680 4879 0 -4879zm-5915 -6645l734 0 0 -5928 -734 0 0 5928z"/>
     <path class="fil10" d="M219512 76104l281 288 1835 -1828 -288 -288 -1828 1828zm11801 -5743l-9426 9427c-1245,-1252 -2490,-2497 -3742,-3742l3130 -3130 1814 1813 3166 -3166 -1814 -1813 3131 -3130c1244,1245 2497,2497 3741,3741zm-3741 -3166l-2555 2555 1806 1813 -3734 3735 -1814 -1806 -2554 2554c1058,1058 2108,2108 3166,3166l8851 -8851c-1058,-1057 -2109,-2108 -3166,-3166l0 0zm-1771 2620l288 280 1828 -1827 -288 -281 -1828 1828z"/>
    </g>
    <path class="fil11" d="M224259 109259c2047,67 3688,1747 3699,3827l34 0c16,-2080 1657,-3760 3699,-3827 -2053,-67 -3699,-1763 -3699,-3855l-28 0c0,2092 -1647,3788 -3705,3855z"/>
    <path class="fil11" d="M152462 30110c1020,33 1837,870 1843,1907l17 0c8,-1037 825,-1874 1842,-1907 -1022,-33 -1842,-879 -1842,-1920l-14 0c0,1041 -821,1887 -1846,1920z"/>
   </g>
  </g>
 </g>
</svg>
