<?xml version="1.0" encoding="UTF-8"?>
<!DOCTYPE svg PUBLIC "-//W3C//DTD SVG 1.1//EN" "http://www.w3.org/Graphics/SVG/1.1/DTD/svg11.dtd">
<!-- Creator: CorelDRAW X7 -->
<svg xmlns="http://www.w3.org/2000/svg" xml:space="preserve" width="14.06in" height="14.1303in" version="1.1" style="shape-rendering:geometricPrecision; text-rendering:geometricPrecision; image-rendering:optimizeQuality; fill-rule:evenodd; clip-rule:evenodd"
viewBox="0 0 140600 141303"
 xmlns:xlink="http://www.w3.org/1999/xlink">
 <defs>
  <style type="text/css">
   <![CDATA[
    .fil0 {fill:#F7F2E6;fill-rule:nonzero}
   ]]>
  </style>
 </defs>
 <g id="Layer_x0020_1">
  <metadata id="CorelCorpID_0Corel-Layer"/>
  <path class="fil0" d="M43860 27894c-4418,0 -8410,1783 -11297,4666 -2885,2882 -4668,6869 -4668,11278 0,4415 1784,8407 4671,11294 2887,2887 6879,4671 11294,4671 4409,0 8396,-1783 11278,-4668 2883,-2887 4666,-6880 4666,-11297 0,-4405 -1784,-8391 -4669,-11276 -2884,-2884 -6870,-4668 -11275,-4668zm74840 13850c-2254,0 -4298,917 -5778,2398 -1481,1481 -2398,3525 -2398,5779 0,2254 917,4298 2398,5778 1480,1481 3524,2398 5778,2398 2254,0 4298,-917 5779,-2398 1480,-1480 2397,-3524 2397,-5778 0,-2254 -917,-4298 -2397,-5779 -1481,-1481 -3525,-2398 -5779,-2398zm-7631 545c1955,-1955 4654,-3165 7631,-3165 2978,0 5677,1210 7631,3165 1955,1955 3166,4655 3166,7632 0,2977 -1211,5676 -3166,7631 -1954,1955 -4654,3166 -7631,3166 -2977,0 -5676,-1211 -7631,-3166 -1955,-1955 -3166,-4654 -3166,-7631 0,-2977 1211,-5677 3166,-7632zm29531 12628l-2894 0c-227,867 -510,1707 -846,2516 -343,826 -741,1625 -1190,2391l3104 3104c512,512 512,1341 0,1853l-5214 5214c-512,511 -1341,511 -1853,0 -23,-23 -45,-47 -66,-72l-3034 -3034c-767,449 -1566,847 -2392,1190 -810,336 -1650,620 -2518,847l0 4387c0,723 -586,1310 -1310,1310l-7374 0c-723,0 -1310,-587 -1310,-1310l0 -4387c-867,-227 -1708,-511 -2517,-847 -825,-342 -1623,-740 -2389,-1189l-3104 3105c-511,511 -1341,511 -1853,0l-5214 -5214c-511,-512 -511,-1341 0,-1853l3104 -3104c-448,-766 -846,-1564 -1188,-2389 -336,-810 -620,-1650 -847,-2518l-4387 0c-723,0 -1310,-586 -1310,-1310l0 -7373c0,-724 587,-1310 1310,-1310l4387 0c227,-868 511,-1708 847,-2518 342,-825 740,-1623 1188,-2389l-3104 -3104c-511,-511 -511,-1341 0,-1852l5214 -5214c512,-512 1342,-512 1853,0l3104 3104c766,-448 1563,-846 2389,-1189 809,-336 1650,-620 2517,-847l0 -4386c0,-724 587,-1311 1310,-1311l7374 0c724,0 1310,587 1310,1311l0 4386c868,227 1708,511 2518,847 825,343 1623,740 2389,1189l3103 -3104c512,-512 1341,-512 1853,0l5214 5214c512,511 512,1341 0,1852l-3103 3104c448,766 846,1564 1189,2390 335,809 619,1650 846,2517l2894 0 0 2620 -3929 0 0 -4c-608,1 -1153,-426 -1280,-1045 -216,-1062 -536,-2094 -947,-3085 -408,-984 -905,-1919 -1479,-2797 -388,-513 -349,-1247 120,-1716l2910 -2910 -3361 -3361 -2911 2911 -2 -2c-430,431 -1118,515 -1646,166 -897,-593 -1855,-1105 -2864,-1523 -959,-399 -1957,-711 -2984,-927 -648,-79 -1150,-631 -1150,-1300l0 -4112 -4753 0 0 4111 -4 0c0,609 -426,1154 -1046,1280 -1062,217 -2094,536 -3085,948 -983,408 -1918,904 -2796,1478 -513,389 -1247,349 -1716,-119l-2910 -2911 -3362 3361 2911 2910 -1 2c431,431 514,1119 165,1647 -593,897 -1104,1855 -1523,2863 -398,961 -710,1959 -927,2985 -78,648 -631,1150 -1300,1150l-4111 0 0 4753 4111 0 0 4c608,-1 1153,426 1279,1045 217,1062 537,2094 948,3086 408,983 905,1919 1479,2796 388,513 348,1248 -120,1716l-2911 2910 3362 3362 2910 -2912 2 2c431,-431 1119,-515 1646,-165 898,592 1856,1104 2864,1522 960,399 1958,711 2984,927 649,79 1151,631 1151,1301l0 4111 4753 0 0 -4111 4 0c-1,-609 426,-1154 1045,-1280 1062,-217 2094,-536 3086,-948 1008,-418 1966,-930 2863,-1522l1 0c508,-337 1200,-281 1647,168l2908 2909 3364 -3364 -2910 -2910 1 -2c-431,-430 -515,-1119 -165,-1646 593,-898 1104,-1857 1523,-2866 398,-959 710,-1957 926,-2982 79,-649 631,-1151 1301,-1151l3929 0 0 2620zm-41557 50834c-946,0 -1799,380 -2415,996 -613,613 -992,1464 -992,2409 0,939 380,1788 993,2400 616,613 1469,993 2414,993 938,0 1786,-378 2397,-990 614,-614 994,-1464 994,-2403 0,-945 -379,-1798 -993,-2413 -611,-613 -1459,-992 -2398,-992zm-4258 -857c1091,-1090 2596,-1764 4258,-1764 1656,0 3160,676 4251,1771 1088,1090 1761,2594 1761,4255 0,1656 -674,3157 -1762,4246 -1091,1092 -2595,1768 -4250,1768 -1661,0 -3165,-674 -4256,-1762 -1095,-1091 -1771,-2595 -1771,-4252 0,-1662 676,-3168 1769,-4262zm31582 1621l3369 143c720,28 1282,636 1254,1356l-333 8073c-28,721 -635,1282 -1356,1254l-4102 -166c-139,447 -288,888 -447,1323 -140,385 -290,768 -449,1149l3351 1964c621,365 830,1165 465,1786l-4092 6977c-364,622 -1164,830 -1786,465l-3855 -2259c-293,301 -595,597 -905,889 -292,274 -588,542 -889,803l2204 3568c379,614 189,1418 -424,1797l-6881 4258c-614,379 -1418,189 -1797,-425l-2409 -3896c-272,92 -548,181 -827,266 -302,92 -598,178 -889,258l0 3894c0,724 -587,1311 -1310,1311l-8087 0c-724,0 -1310,-587 -1310,-1311l0 -3119c-219,-24 -440,-51 -661,-81 -279,-37 -554,-78 -823,-123l-1401 3024c-302,656 -1079,942 -1735,640l-7338 -3412c-655,-302 -942,-1079 -639,-1735l1083 -2328c-440,-274 -877,-563 -1311,-868 -474,-331 -932,-673 -1377,-1025l-2157 1647c-574,438 -1395,328 -1833,-246 -19,-25 -37,-50 -54,-76l-4842 -6379c-436,-574 -323,-1392 250,-1827l3 -2 -3 -4 1646 -1247c-277,-487 -541,-985 -793,-1494 -268,-542 -519,-1093 -753,-1652l-2241 361c-713,113 -1382,-373 -1495,-1086l-1290 -7990c-113,-712 373,-1382 1085,-1495l1746 -282c-5,-130 -8,-259 -8,-383 0,-746 37,-1477 100,-2198 30,-333 68,-677 112,-1031l-1957 -665c-684,-232 -1050,-974 -818,-1658 7,-21 14,-41 22,-61l2571 -7605c229,-684 969,-1053 1653,-824l5 1 0 -1 1740 594c291,-537 595,-1059 913,-1566 311,-496 641,-985 989,-1466l-1499 -1581c-498,-523 -477,-1351 46,-1848l5886 -5567c526,-495 1353,-469 1848,56l1487 1570c485,-312 979,-608 1481,-887 497,-277 997,-537 1499,-779l-686 -2461c-192,-696 215,-1415 911,-1607l7796 -2164c695,-192 1415,216 1607,911l723 2614c121,-8 242,-15 364,-22 532,-29 1032,-45 1496,-45 80,0 161,1 242,4l280 -1878c105,-716 770,-1211 1485,-1106l5 1 0 -1 8004 1206c715,108 1208,775 1100,1490l-370 2432c545,223 1075,460 1588,710 494,241 988,501 1480,779l1367 -1834c432,-579 1253,-698 1832,-266 23,18 46,36 67,54l6419 4774c580,430 701,1248 271,1827l-1757 2373c345,427 678,865 1000,1314 289,404 572,822 847,1253l2516 -1200c653,-311 1434,-34 1745,619l3481 7311c311,653 34,1434 -619,1745 -23,11 -47,22 -70,31l-3127 1484c90,494 166,993 230,1498 58,458 104,916 141,1375zm1959 2698l-3239 -138c-677,-23 -1231,-566 -1258,-1254 -33,-802 -96,-1587 -193,-2353 -93,-745 -221,-1486 -387,-2225 -164,-601 121,-1250 704,-1525l2932 -1392 -2355 -4946 -2398 1143 -1 -2c-608,291 -1349,69 -1693,-525 -406,-697 -855,-1389 -1345,-2072 -478,-668 -987,-1312 -1522,-1926l3 -3c-395,-452 -436,-1133 -64,-1635l1596 -2155 -4396 -3270 -1289 1728 -3 -2c-400,537 -1151,688 -1732,330 -716,-443 -1479,-864 -2289,-1259 -747,-364 -1501,-688 -2259,-966 -621,-180 -1027,-796 -929,-1452l331 -2173 -5412 -816 -263 1763 -1 0c-96,662 -684,1153 -1365,1116 -235,-14 -313,-19 -391,-24 -290,-20 -578,-40 -898,-40 -492,0 -942,12 -1353,35 -454,25 -901,62 -1343,108l0 0c-623,64 -1220,-328 -1392,-952l-665 -2402 -5276 1465 612 2195c227,644 -81,1362 -718,1636 -810,348 -1579,726 -2306,1131 -742,413 -1455,858 -2136,1331 -524,411 -1284,364 -1753,-129l-1350 -1425 -3983 3765 1360 1434 -2 2c441,463 486,1192 79,1708 -535,676 -1038,1392 -1511,2146 -465,741 -889,1499 -1272,2274 -261,633 -972,963 -1629,740l-1565 -535 -1755 5192 1745 593 0 2c590,200 969,800 871,1436 -94,601 -174,1242 -236,1947 -58,648 -90,1304 -90,1973 0,380 21,712 42,1049 4,67 9,142 22,364l-2 0c37,661 -431,1255 -1099,1361l-1620 262 874 5413 1927 -310c620,-130 1259,208 1489,819 310,825 659,1629 1046,2412 383,774 807,1533 1270,2277 370,570 241,1338 -310,1754l-1538 1166 3312 4363 1943 -1482c479,-367 1165,-362 1642,46 652,558 1315,1073 1991,1547 669,469 1383,917 2142,1343l-1 1c590,330 836,1064 548,1688l-1031 2217 4965 2308 1253 -2706c234,-580 858,-925 1490,-789 562,122 1113,217 1652,290 527,71 1076,125 1641,165 715,10 1292,593 1292,1310l0 3004 5466 0 0 -3600 2 0c-1,-595 407,-1133 1012,-1274 623,-148 1203,-303 1738,-466 557,-170 1112,-361 1666,-575l0 1c575,-223 1246,-12 1582,532l2280 3687 4662 -2884 -2076 -3360c-396,-562 -289,-1342 256,-1776 561,-447 1102,-915 1620,-1402 508,-478 1003,-983 1482,-1515l2 2c405,-452 1086,-572 1630,-253l3632 2129 2771 -4725 -3230 -1893c-575,-337 -810,-1063 -522,-1679 306,-650 585,-1325 840,-2024 254,-693 478,-1398 676,-2114 153,-579 691,-994 1314,-970l3816 155 225 -5465zm-97605 -78506c3361,-3357 8005,-5433 13139,-5433 5128,0 9769,2077 13128,5436 3359,3359 5436,8000 5436,13128 0,5133 -2076,9777 -5434,13139 -3362,3367 -8004,5446 -13130,5446 -5139,0 -9785,-2077 -13147,-5438 -3362,-3362 -5439,-8009 -5439,-13147 0,-5126 2080,-9769 5447,-13131zm46683 10210l9263 1237c715,93 1219,748 1126,1463l-1 5 1 0 -1639 12056c-96,716 -754,1217 -1469,1121l-9236 -1238c-73,199 -147,390 -220,576 -73,186 -149,375 -228,566l7634 5367c591,415 733,1231 317,1822l-7008 9964c-416,591 -1232,733 -1822,317l-7631 -5364c-153,138 -308,275 -465,411 -150,131 -304,262 -461,395l4303 8277c333,641 83,1432 -558,1765 -24,13 -47,24 -71,35l-10740 5572c-641,330 -1427,80 -1759,-559l-2 2 -4298 -8267c-446,116 -898,223 -1354,321 -439,95 -880,181 -1322,259l0 10059c0,724 -587,1310 -1310,1310l-12186 0c-723,0 -1310,-586 -1310,-1310l0 -10742c-262,-71 -516,-143 -764,-217 -251,-75 -502,-153 -752,-233l-4786 8024c-369,617 -1167,819 -1785,454l-1 1 -10461 -6191c-622,-367 -828,-1169 -460,-1791l4771 -8047c-144,-138 -290,-279 -437,-424 -147,-143 -292,-288 -437,-432l-7925 4922c-613,382 -1420,194 -1802,-420l-6426 -10331c-382,-613 -194,-1420 420,-1801l7916 -4917c-66,-191 -132,-386 -197,-583 -63,-193 -125,-389 -186,-586l-9312 715c-721,54 -1349,-487 -1402,-1208l-928 -12142c-54,-721 487,-1349 1208,-1402l9270 -716c30,-204 62,-411 97,-620 33,-202 69,-405 106,-607l-8568 -3636c-664,-279 -976,-1045 -696,-1709l2 -4 -2 -1 4767 -11194c283,-664 1050,-973 1715,-690l8561 3641c121,-169 243,-336 367,-502 123,-166 248,-332 376,-498l-5928 -7188c-458,-557 -378,-1379 179,-1837l9381 -7742c557,-458 1379,-378 1837,179l5919 7175c185,-95 371,-188 561,-281 191,-93 381,-184 567,-271l-1937 -9103c-150,-707 302,-1401 1008,-1551l11884 -2544c707,-150 1401,301 1551,1008l1951 9100c313,5 655,16 1021,35l231 13 2453 -8982c189,-696 906,-1106 1602,-917l11732 3213c695,190 1106,907 916,1602l-2459 9004c200,105 392,210 577,313 167,94 335,190 502,289l6346 -6849c492,-528 1320,-558 1848,-66 23,21 44,42 65,64l8858 8195c529,489 561,1314 72,1843l-6348 6852c118,171 234,341 345,510 116,175 229,348 339,519l8796 -3159c678,-243 1425,110 1668,789l4120 11451c243,679 -110,1426 -788,1669l-8800 3159c25,203 48,408 70,615 21,204 41,410 58,618zm7623 3652l-9009 -1202c-632,-72 -1133,-597 -1156,-1252 -20,-506 -61,-1024 -116,-1550 -54,-512 -123,-1040 -197,-1574l2 0c-84,-599 260,-1195 852,-1407l8563 -3074 -3236 -8996 -8468 3040c-596,269 -1312,56 -1657,-518 -282,-465 -565,-916 -844,-1337 -302,-455 -601,-884 -892,-1272l1 -1c-372,-494 -349,-1198 86,-1668l6188 -6678 -7012 -6487 -6166 6654c-420,477 -1137,589 -1688,236 -414,-266 -852,-528 -1305,-782 -494,-277 -958,-521 -1385,-731 -567,-263 -879,-904 -710,-1527l2396 -8771 -9215 -2523 -2377 8701c-138,643 -741,1092 -1410,1024 -399,-41 -798,-72 -1193,-92 -362,-18 -770,-27 -1219,-27 -201,0 -266,3 -331,5 -178,8 -354,16 -402,16l0 -3c-605,1 -1149,-421 -1279,-1036l-1903 -8876 -9328 1997 1885 8860 -1 0c128,599 -181,1225 -767,1474 -513,218 -989,434 -1432,651 -456,223 -921,466 -1399,732 -541,301 -1236,183 -1643,-312l-5768 -6992 -7368 6080 5755 6979c404,472 424,1179 15,1676 -324,394 -645,809 -965,1240 -307,413 -606,834 -901,1260 -336,533 -1018,759 -1617,504l-8329 -3543 -3743 8789 8298 3522c602,225 961,865 816,1509 -112,498 -209,1006 -295,1525 -80,487 -151,1003 -215,1545 -57,625 -559,1136 -1206,1184l-9024 696 729 9533 9070 -697 0 1c617,-46 1198,352 1361,971 132,495 282,995 447,1498 157,478 334,971 527,1475l-1 0c219,573 9,1240 -532,1576l-7708 4788 5044 8110 7709 -4788 0 1c516,-322 1203,-248 1638,209 371,392 744,770 1118,1136 352,345 729,701 1126,1065 466,406 592,1100 266,1651l-4640 7825 8214 4861 4622 -7750c297,-567 972,-844 1593,-625 533,188 1083,368 1646,535 530,158 1042,298 1530,418 627,98 1107,640 1107,1294l0 10445 9564 0 0 -9862 2 0c-1,-640 468,-1200 1119,-1295 776,-115 1537,-250 2280,-410 719,-155 1433,-335 2142,-546 604,-208 1285,51 1588,634l4185 8050 8482 -4401 -4185 -8048 4 -2c-280,-536 -156,-1212 329,-1611 399,-327 806,-667 1228,-1034 377,-328 749,-665 1109,-1013 439,-465 1164,-550 1703,-171l7428 5222 5503 -7825 -7427 -5222 0 -1c-498,-349 -698,-1011 -446,-1590 201,-462 404,-945 606,-1458 196,-499 372,-972 518,-1405 169,-623 777,-1039 1434,-951l8995 1206 1287 -9467z"/>
 </g>
</svg>
