<?xml version="1.0" encoding="UTF-8"?>
<!DOCTYPE svg PUBLIC "-//W3C//DTD SVG 1.1//EN" "http://www.w3.org/Graphics/SVG/1.1/DTD/svg11.dtd">
<!-- Creator: CorelDRAW X7 -->
<svg xmlns="http://www.w3.org/2000/svg" xml:space="preserve" width="4.01622in" height="1.07992in" version="1.1" style="shape-rendering:geometricPrecision; text-rendering:geometricPrecision; image-rendering:optimizeQuality; fill-rule:evenodd; clip-rule:evenodd"
viewBox="0 0 40162 10799"
 xmlns:xlink="http://www.w3.org/1999/xlink">
 <defs>
  <style type="text/css">
   <![CDATA[
    .fil1 {fill:#7C94CA}
    .fil2 {fill:#DBE2F1}
    .fil0 {fill:white}
   ]]>
  </style>
 </defs>
 <g id="Layer_x0020_1">
  <metadata id="CorelCorpID_0Corel-Layer"/>
  <g id="_2252592689424">
   <g>
    <path class="fil0" d="M5400 0l29362 0c2971,0 5401,2430 5401,5399 0,2971 -2429,5400 -5401,5400l-29362 0c-2970,0 -5400,-2429 -5400,-5399 0,-2970 2430,-5400 5400,-5400z"/>
    <path class="fil1" d="M5400 0l29362 0c2971,0 5401,2430 5401,5399 0,2971 -2429,5400 -5401,5400l-29362 0c-2970,0 -5400,-2429 -5400,-5399 0,-2970 2430,-5400 5400,-5400zm42 239l29278 0c2839,0 5161,2322 5161,5161 0,2839 -2322,5160 -5161,5160l-29278 0c-2838,0 -5161,-2322 -5161,-5160 0,-2838 2322,-5161 5161,-5161z"/>
   </g>
   <polygon class="fil2" points="28827,9237 29140,9237 29140,1563 28827,1563 "/>
   <polygon class="fil1" points="28670,9237 28826,9237 28826,1563 28670,1563 "/>
   <path class="fil1" d="M31100 5400c0,-1021 396,-1980 1118,-2702 722,-721 1680,-1118 2701,-1117 1020,0 1978,396 2700,1118 722,721 1118,1680 1118,2701 0,1020 -396,1980 -1118,2700 -722,722 -1680,1119 -2700,1119 -1021,1 -1979,-397 -2701,-1117 -722,-722 -1118,-1682 -1118,-2702zm5917 -1050l-3148 3148 -1048 -1047 821 -821 670 671 1507 -1507 -670 -671 821 -821 522 525 525 523zm-1531 -227l168 169 484 -484 -168 -169 -484 484zm-2328 2328l168 168 484 -484 -168 -168 -484 484zm4195 -2102l-3485 3485 -1383 -1383 1157 -1157 670 670 1171 -1170 -671 -671 1158 -1157c460,463 920,923 1383,1383zm1146 1051c0,-957 -372,-1856 -1048,-2533 -677,-675 -1575,-1048 -2532,-1048 -958,0 -1856,373 -2532,1048 -677,677 -1049,1576 -1049,2533 0,957 372,1856 1049,2532 676,676 1574,1049 2532,1049 957,0 1855,-373 2532,-1049 676,-676 1048,-1575 1048,-2532z"/>
  </g>
 </g>
</svg>
