<?xml version="1.0" encoding="UTF-8"?>
<!DOCTYPE svg PUBLIC "-//W3C//DTD SVG 1.1//EN" "http://www.w3.org/Graphics/SVG/1.1/DTD/svg11.dtd">
<!-- Creator: CorelDRAW X7 -->
<svg xmlns="http://www.w3.org/2000/svg" xml:space="preserve" width="10.2814in" height="5.56747in" version="1.1" style="shape-rendering:geometricPrecision; text-rendering:geometricPrecision; image-rendering:optimizeQuality; fill-rule:evenodd; clip-rule:evenodd"
viewBox="0 0 102814 55675"
 xmlns:xlink="http://www.w3.org/1999/xlink">
 <defs>
  <style type="text/css">
   <![CDATA[
    .fil3 {fill:#8FA3D1}
    .fil11 {fill:#95A9D4}
    .fil37 {fill:#9DAFD7}
    .fil40 {fill:#9F9CCB}
    .fil35 {fill:#A9B9DC}
    .fil8 {fill:#B3C1E0}
    .fil19 {fill:#C2A571}
    .fil24 {fill:#C4CFE9}
    .fil34 {fill:#DCC08D}
    .fil36 {fill:#DEE4F2}
    .fil2 {fill:#DFC596}
    .fil15 {fill:#E5D5B6}
    .fil1 {fill:#E9D8B8}
    .fil13 {fill:#EFE2C9}
    .fil0 {fill:#F2E8D3}
    .fil14 {fill:#F4EEE5}
    .fil18 {fill:#F7F1E5}
    .fil16 {fill:white}
    .fil41 {fill:white}
    .fil6 {fill:#5E6D8F;fill-rule:nonzero}
    .fil9 {fill:#657AA9;fill-rule:nonzero}
    .fil10 {fill:#6C87C3;fill-rule:nonzero}
    .fil32 {fill:#7875A3;fill-rule:nonzero}
    .fil39 {fill:#8480BC;fill-rule:nonzero}
    .fil5 {fill:#9DAFD7;fill-rule:nonzero}
    .fil30 {fill:#9F9CCB;fill-rule:nonzero}
    .fil33 {fill:#BB9B61;fill-rule:nonzero}
    .fil26 {fill:#C2A571;fill-rule:nonzero}
    .fil28 {fill:#C4CFE9;fill-rule:nonzero}
    .fil20 {fill:#D5DDEE;fill-rule:nonzero}
    .fil29 {fill:#DBBB82;fill-rule:nonzero}
    .fil7 {fill:#DCC08D;fill-rule:nonzero}
    .fil31 {fill:#DEE4F2;fill-rule:nonzero}
    .fil23 {fill:#DFE5F2;fill-rule:nonzero}
    .fil12 {fill:#E6D2AE;fill-rule:nonzero}
    .fil38 {fill:#E7D4B0;fill-rule:nonzero}
    .fil4 {fill:#EDDFC4;fill-rule:nonzero}
    .fil25 {fill:#EFE2C9;fill-rule:nonzero}
    .fil17 {fill:#F2E8D3;fill-rule:nonzero}
    .fil21 {fill:#F6F8FB;fill-rule:nonzero}
    .fil27 {fill:#FCE9CA;fill-rule:nonzero}
    .fil22 {fill:white;fill-rule:nonzero}
   ]]>
  </style>
 </defs>
 <g id="Layer_x0020_1">
  <metadata id="CorelCorpID_0Corel-Layer"/>
  <g id="_2252526603056">
   <g>
    <path class="fil0" d="M64872 21226c-1077,1579 -1440,3957 -757,7502 2162,11221 -10499,17054 -22662,13969 -16483,-4181 -13664,140 -20838,6911 -4738,4473 -14845,6272 -20615,-2359l0 -14013c5108,-6838 15495,-11418 7559,-20389 -4434,-5013 -5345,-9314 -4267,-12847l96447 0c3115,11207 -704,17575 -15270,18020 -5350,164 -16596,-1195 -19597,3206z"/>
    <path class="fil1" d="M60857 20692c1495,-6356 4483,-11283 13397,-9463 3614,738 7321,2304 10215,3083 12684,3415 17892,-4882 15270,-14312l-96447 0c-1078,3533 -167,7834 4267,12847 4990,5640 2736,9546 -896,13367 4917,-3078 7735,-3903 19728,3411 13068,7969 31173,5061 34466,-8933z"/>
    <path class="fil2" d="M3292 0l59706 0c-951,1704 -1517,3961 -1714,6806 -984,14208 -18467,19026 -32710,12520 -11440,-5225 -14908,-5026 -18523,-2503 -430,-1232 -1228,-2548 -2492,-3976 -4434,-5013 -5345,-9314 -4267,-12847z"/>
   </g>
   <path class="fil3" d="M69744 27451c213,239 128,863 -443,1076l0 0c-320,119 -766,300 -1848,540l0 0c-537,120 -980,201 -1346,254l0 -1711c602,-203 1374,-469 2261,-739l0 0c39,-12 85,-18 136,-18l0 0c350,0 940,263 1240,598l0 0z"/>
   <path class="fil4" d="M62292 54970c0,389 3151,705 7036,705 3887,0 7037,-316 7037,-705 0,-389 -3150,-705 -7037,-705 -3885,0 -7036,316 -7036,705z"/>
   <path class="fil5" d="M72475 53734c-63,234 -39,317 -64,470 -31,189 -212,258 -316,413 -116,172 -296,447 410,460 756,15 1204,-35 1076,-447 -128,-412 -153,-594 -144,-728 8,-134 -1,-274 -86,-355 -86,-81 -765,-225 -876,187z"/>
   <path class="fil6" d="M69167 24686c-310,145 -444,146 -556,-239 -86,-298 -233,-1347 246,-1417 479,-71 854,-84 799,562 -56,647 -122,922 -489,1094z"/>
   <path class="fil7" d="M70975 25249c7,47 111,1052 130,1824 9,378 -370,737 -748,746 -6,1 -11,1 -17,1 -371,0 -807,-336 -774,-707 59,-672 14,-1360 13,-1370l1396 -494z"/>
   <path class="fil8" d="M71985 36031l-5189 0c0,0 30,-4860 378,-7521l0 0c81,-620 437,-1177 1095,-1527l0 0c390,-207 1096,-306 1383,-306l0 0 959 0c321,0 692,66 1012,126l0 0c1374,258 1624,1319 1225,2632l0 0c-689,2265 -998,5014 -863,6596z"/>
   <path class="fil9" d="M71964 39205c0,0 448,-1088 21,-3174l-5189 0c0,0 -185,1488 -189,3174l5357 0z"/>
   <path class="fil9" d="M70939 45997c-415,-1689 1310,-1987 1855,-764 770,1728 709,7254 668,8356 -5,145 -84,118 -167,89 -246,-86 -451,-119 -549,-99 -190,38 -289,226 -289,226 -162,-1502 -1115,-6172 -1518,-7808z"/>
   <path class="fil10" d="M69388 39433c-182,-2098 649,-3728 1951,-3035 548,291 748,875 822,1424 74,550 477,6260 618,7291 319,2326 -1518,1699 -1717,1055 -503,-1627 -1575,-5591 -1674,-6735z"/>
   <path class="fil9" d="M66321 45888c-68,-1575 1465,-1541 1851,-260 606,2017 -442,6346 -507,8819 -268,-428 -520,-531 -639,-523 -193,15 -298,162 -298,162 39,-3257 -334,-6514 -407,-8198z"/>
   <path class="fil10" d="M68111 46059c-204,643 -1960,1387 -1776,-953 81,-1039 298,-6771 340,-7324 41,-553 137,-1360 414,-1461 1386,-504 2730,1145 2366,3219 -244,1387 -922,5185 -1344,6519z"/>
   <path class="fil11" d="M74881 31515c-378,852 -548,1162 -1542,2203l0 0c-690,723 -903,1015 -1312,1131l0 0c-331,95 -488,-206 -309,-421l0 0c267,-324 1120,-2661 1563,-3223 -379,-515 -1146,-1407 -2017,-2552l0 0c-194,-255 -175,-1036 66,-1493l0 0c80,-150 291,-259 530,-259 212,0 446,85 633,301l0 0c223,260 546,615 1148,1546l0 0c987,1526 1218,2238 1271,2566l0 0c3,20 3,41 -1,62 1,45 -9,91 -30,139l0 0z"/>
   <path class="fil12" d="M71484 24521c-85,858 -111,1048 -486,1400 -375,351 -911,512 -1318,512 -439,0 -765,-464 -864,-827 -103,-376 -223,-1259 -100,-2199 63,-476 651,-1054 1258,-1054 606,0 1720,70 1510,2168z"/>
   <path class="fil12" d="M72182 34309c-199,-218 -510,-558 -663,-752 -153,-194 -608,140 -618,307 -15,249 236,927 554,926 318,-1 409,290 680,201 272,-90 373,-326 47,-682z"/>
   <path class="fil5" d="M66664 54077c-59,111 -343,368 -735,537 -393,169 -1225,248 -763,397 463,149 1002,59 1275,17 273,-42 538,-48 860,-50 424,-3 427,-28 370,-490 -78,-635 -816,-769 -1007,-411z"/>
   <path class="fil6" d="M71483 24388c-232,232 -354,277 -580,-34 -176,-242 -652,-1143 -241,-1363 410,-219 745,-355 906,248 161,603 191,873 -85,1149z"/>
   <path class="fil7" d="M71229 24531c-122,298 -94,590 62,653 155,64 380,-126 501,-423 121,-296 94,-589 -62,-652 -156,-64 -380,125 -501,422z"/>
   <path class="fil6" d="M71220 22829c-334,499 -1950,546 -2477,362 -528,-184 -491,-1204 263,-1274 425,-1 118,101 462,241 174,71 2109,138 1752,671z"/>
   <g>
    <path class="fil13" d="M102814 25553c0,-3449 -2796,-6245 -6244,-6245 -3449,0 -6245,2796 -6245,6245 0,3449 2796,6244 6245,6244 3448,0 6244,-2795 6244,-6244z"/>
    <g>
     <path class="fil14" d="M93534 20800c-1488,860 -2380,2354 -2531,3941 -23,25 -28,65 -9,98l1 2c-74,983 137,1998 667,2915l36 61c-597,-2913 695,-6009 3417,-7581l73 -42c-567,102 -1126,302 -1654,606z"/>
     <path class="fil15" d="M99943 21886c1724,2986 701,6805 -2285,8529 -1164,672 -2454,925 -3698,808 1777,816 3909,789 5731,-263 2986,-1724 4010,-5543 2286,-8529 -1053,-1822 -2885,-2912 -4832,-3094 1135,521 2126,1385 2798,2549z"/>
    </g>
    <path class="fil16" d="M97749 27320l0 1178 -4713 0 0 -1178 4713 0zm-4713 -3535l0 -1179c2356,0 4713,0 7069,0l-1179 1179c-1962,0 -3926,0 -5890,0zm7069 1177c0,1179 0,2358 0,3536l-1179 0 0 -2357 -5890 0 0 -1179c2356,0 4713,0 7069,0z"/>
   </g>
   <path class="fil17" d="M87639 38419c0,-1319 -1011,-1946 -2130,-2267 -103,-1921 -1371,-3198 -3337,-3198 -1793,0 -2965,1063 -3335,2760 -1374,200 -2694,918 -2694,2497 0,1364 1231,2474 2744,2474l6238 0c1386,0 2514,-1017 2514,-2266z"/>
   <path class="fil17" d="M88526 33815c105,-1636 2776,-1742 3181,-177 654,81 1284,370 1284,1007 0,549 -587,996 -1308,996l-2974 0c-1316,0 -1790,-1437 -183,-1826z"/>
   <path class="fil18" d="M83007 7826c-851,28 -1533,726 -1537,1591l-14 0c-7,-865 -689,-1563 -1538,-1591 854,-28 1538,-733 1538,-1602l11 0c0,869 685,1574 1540,1602z"/>
   <path class="fil2" d="M17805 40653c-1613,53 -2907,1377 -2915,3016l-27 0c-13,-1639 -1306,-2963 -2915,-3016 1618,-53 2915,-1390 2915,-3038l22 0c0,1648 1298,2985 2920,3038z"/>
   <path class="fil19" d="M35442 21227c-25,24 -51,47 -76,70 -58,54 -117,108 -177,159 -28,24 -57,48 -85,72 -62,51 -124,100 -187,148 -25,19 -49,38 -75,57 -87,64 -175,126 -265,185 -457,298 -940,519 -1435,665 -219,65 -440,114 -662,148 -9,1 -17,3 -25,4 -105,16 -209,28 -314,37 -5,1 -11,1 -16,2 -222,18 -445,21 -666,10 -5,-1 -11,-1 -16,-1 -104,-6 -208,-15 -311,-28 -8,-1 -17,-2 -25,-3 -220,-28 -437,-70 -652,-128 -483,-131 -950,-337 -1384,-622 -85,-56 -168,-116 -251,-177 -23,-18 -47,-37 -70,-55 -59,-46 -118,-94 -175,-143 -27,-22 -53,-45 -80,-69 -55,-49 -110,-101 -165,-153 -23,-23 -47,-45 -70,-69 -75,-76 -149,-154 -221,-236 -72,-82 -141,-166 -207,-252 -21,-26 -40,-53 -60,-79 -46,-62 -91,-124 -134,-188 -20,-29 -40,-59 -60,-89 -43,-66 -84,-132 -123,-198 -16,-27 -33,-53 -48,-80 -53,-93 -105,-187 -153,-283 -244,-488 -417,-1010 -521,-1548 -46,-239 -77,-481 -96,-724 -1,-10 -1,-19 -2,-28 -8,-115 -13,-230 -16,-345 0,-6 0,-12 0,-18 -4,-245 6,-490 29,-735 1,-6 1,-12 2,-19 11,-115 26,-230 43,-345 1,-9 2,-18 4,-28 38,-244 89,-487 153,-728 147,-542 361,-1070 644,-1566 56,-98 115,-193 176,-288 17,-27 35,-54 53,-81 45,-68 92,-135 140,-202 22,-31 44,-61 67,-92 48,-64 98,-128 149,-191 22,-27 43,-55 66,-82 73,-87 148,-174 227,-258 78,-85 159,-165 240,-244 25,-24 51,-46 76,-70 58,-54 117,-108 177,-159 28,-24 57,-48 85,-72 62,-51 124,-100 187,-147 25,-20 49,-39 75,-58 87,-64 175,-126 265,-185 457,-298 940,-519 1435,-665 219,-64 440,-114 662,-148 9,-1 17,-3 26,-4 104,-15 208,-28 312,-37 6,0 12,-1 17,-2 222,-18 445,-21 666,-10 5,1 11,1 16,1 104,6 208,16 311,28 8,1 17,2 25,3 220,28 437,70 652,128 483,131 950,337 1383,622 86,56 169,116 252,177 23,18 47,37 70,55 59,46 117,94 175,143 27,22 53,45 79,69 56,49 111,101 166,154 23,22 47,44 70,68 75,76 149,154 221,236 72,82 141,166 207,252 21,26 40,53 60,80 46,61 91,123 134,187 20,29 40,59 60,89 43,65 83,132 123,198 16,27 32,53 48,80 53,93 105,187 153,283 244,488 417,1010 521,1548 45,239 77,481 96,725 1,9 1,18 2,27 8,115 13,230 15,344 1,7 1,13 1,19 4,245 -6,490 -29,735 -1,6 -1,13 -2,19 -11,115 -26,230 -43,345 -1,9 -2,18 -4,28 -38,244 -89,488 -154,728 -146,542 -360,1070 -643,1566 -56,97 -115,193 -176,288 -17,27 -35,54 -53,81 -45,68 -92,136 -140,202 -22,31 -44,61 -67,92 -48,64 -98,128 -149,191 -22,27 -43,55 -66,82 -73,87 -148,174 -227,258 -78,85 -159,165 -240,244zm-1298 -4152c6,-45 12,-91 17,-136l0 -8c10,-97 13,-194 12,-291l0 -8c-1,-46 -3,-91 -7,-136l0 -11c-8,-97 -20,-193 -39,-288 -41,-213 -109,-421 -206,-614 -19,-38 -40,-76 -61,-112l-19 -32c-16,-27 -32,-53 -49,-79l-24 -35c-17,-25 -35,-50 -53,-74l-23 -32c-27,-34 -54,-68 -82,-100 -29,-33 -59,-64 -88,-94l-28 -27c-22,-21 -44,-41 -66,-61l-31 -27c-23,-20 -46,-39 -70,-57l-28 -22c-32,-24 -66,-48 -99,-70 -172,-113 -358,-195 -549,-247 -85,-23 -172,-40 -259,-51l-10 -1c-41,-5 -82,-8 -123,-11l-7 0c-88,-5 -176,-3 -264,4l-6 1c-42,3 -83,8 -125,14l-10 2c-88,13 -176,33 -263,59 -196,57 -388,145 -569,263 -35,24 -70,48 -105,74l-30 23c-25,19 -49,38 -74,58l-34 29c-23,20 -47,41 -70,63l-30 28c-32,31 -64,63 -95,96 -32,34 -61,68 -91,103l-26 32c-20,25 -40,51 -59,76l-26 37c-19,26 -38,53 -56,80l-21 32c-24,38 -48,75 -70,114 -112,197 -197,406 -255,622 -26,95 -46,192 -61,289l-2 11c-6,45 -12,91 -17,137l0 7c-10,97 -13,195 -12,292l0 7c1,45 3,91 7,136l0 12c8,96 20,192 39,287 41,214 109,421 206,614 19,38 40,76 61,113l19 31c16,27 32,53 49,79l24 35c17,25 34,50 53,75l23 31c27,34 54,68 82,100 29,33 58,64 88,94l28 27c22,21 44,41 66,61l31 27c23,20 46,39 70,57l28 22c32,24 66,48 99,70 172,113 358,195 549,247 85,23 172,40 259,51l10 1c41,5 82,8 123,11l7 0c87,5 176,3 264,-4l6 0c42,-4 83,-9 125,-15l10 -2c88,-13 176,-33 263,-58 196,-58 388,-146 569,-264 35,-24 70,-48 105,-74l30 -23c25,-19 50,-38 74,-58l34 -29c23,-20 47,-41 70,-63l30 -28c32,-31 64,-63 95,-96 32,-34 61,-68 90,-103l27 -32c20,-25 40,-50 59,-76l26 -37c19,-26 38,-53 56,-80l21 -32c24,-37 47,-75 70,-114 112,-197 197,-406 255,-622 26,-95 46,-191 61,-288l2 -12zm1948 6570l1983 -2129 -638 -727c506,-802 861,-1681 1063,-2586l946 -14 117 -2970 -946 14c-131,-899 -417,-1768 -860,-2556l696 -748 -1817 -2071 -696 748c-699,-514 -1476,-855 -2285,-1027l41 -1045 -2687 41 -41 1045c-823,197 -1628,562 -2368,1098l-639 -727 -1982 2129 638 727c-506,802 -861,1681 -1063,2586l-946 14 -117 2970 946 -14c131,899 416,1768 860,2556l-696 748 1817 2071 696 -748c699,514 1476,855 2285,1027l-41 1045 2687 -41 41 -1045c823,-197 1628,-562 2368,-1098l638 727z"/>
   <path class="fil19" d="M23824 6539c-5,2 -10,3 -16,5 -12,4 -25,8 -37,12 -6,1 -12,3 -18,5 -13,3 -25,6 -38,9 -5,1 -10,2 -15,3 -18,4 -35,7 -53,9 -89,12 -177,10 -262,-6 -38,-7 -75,-16 -111,-28 -2,-1 -3,-1 -4,-1 -17,-6 -34,-12 -51,-19 -1,0 -1,-1 -2,-1 -36,-15 -70,-32 -103,-51 -1,0 -2,-1 -2,-1 -16,-10 -31,-19 -46,-29 -1,-1 -3,-2 -4,-3 -32,-22 -62,-46 -91,-72 -66,-59 -124,-129 -172,-209 -9,-16 -18,-32 -27,-48 -2,-5 -5,-10 -7,-15 -6,-12 -12,-24 -18,-37 -2,-6 -5,-11 -7,-17 -6,-12 -11,-25 -16,-38 -2,-5 -4,-11 -6,-16 -7,-19 -13,-37 -19,-56 -5,-19 -10,-38 -15,-57 -1,-6 -3,-12 -4,-17 -3,-14 -6,-28 -8,-41 -2,-7 -3,-13 -4,-19 -2,-14 -4,-28 -6,-42 -1,-6 -1,-11 -2,-17 -2,-19 -4,-38 -5,-57 -6,-98 1,-196 20,-291 9,-42 19,-84 32,-124 1,-2 1,-3 2,-5 6,-19 12,-38 20,-57 0,-1 0,-2 1,-3 15,-39 32,-78 52,-116 0,-1 1,-2 1,-3 9,-18 19,-35 29,-52 1,-2 2,-3 2,-4 22,-37 45,-72 71,-106 57,-75 124,-144 200,-201 14,-12 30,-23 45,-33 5,-3 9,-6 14,-9 11,-7 22,-15 34,-21 5,-4 11,-7 16,-10 12,-7 23,-13 35,-19 5,-3 10,-5 16,-8 17,-8 34,-16 51,-24 18,-7 35,-14 53,-20 5,-2 10,-4 16,-6 12,-4 25,-8 37,-11 6,-2 12,-3 18,-5 13,-3 25,-6 38,-9 5,-1 10,-2 15,-3 18,-4 35,-7 53,-9 89,-13 177,-10 262,5 38,7 75,17 111,29 2,0 3,1 4,1 17,6 34,12 51,19 1,0 2,0 2,1 36,14 70,31 103,51 1,0 2,1 2,1 16,9 31,19 46,29 1,1 3,2 4,2 32,22 62,46 91,72 66,60 124,130 172,210 9,15 18,32 27,48 2,5 5,10 7,15 6,12 12,24 18,36 2,6 5,12 7,18 6,12 11,25 16,38 2,5 4,10 6,16 7,18 13,37 19,56 5,18 10,37 15,57 1,5 3,11 4,17 3,14 6,27 8,41 2,6 3,13 4,19 2,14 4,28 6,42 1,5 1,11 2,16 2,19 4,39 5,58 6,98 -1,196 -20,291 -9,42 -19,83 -32,124 -1,1 -1,3 -2,5 -6,19 -13,38 -20,56 0,1 0,2 -1,3 -15,40 -32,79 -52,117 0,1 -1,1 -1,2 -9,18 -19,36 -29,53 -1,1 -2,2 -2,4 -22,36 -46,72 -71,105 -57,76 -124,144 -200,202 -14,11 -30,22 -45,33 -5,3 -9,6 -14,8 -11,8 -22,15 -34,22 -5,3 -11,6 -16,10 -12,6 -24,13 -35,19 -5,2 -11,5 -16,8 -17,8 -34,16 -51,23 -18,8 -35,14 -53,21zm-10 804l554 -235 -64 -210c162,-113 302,-256 414,-419l183 91 263 -590 -183 -90c48,-195 64,-399 42,-603l195 -82 -181 -599 -195 82c-92,-173 -214,-319 -355,-434l92 -207 -519 -257 -93 207c-174,-41 -359,-47 -544,-12l-64 -210 -554 235 64 210c-162,112 -302,255 -414,418l-183 -90 -263 589 183 91c-48,195 -64,399 -42,602l-195 83 181 599 195 -83c92,173 214,319 355,434l-92 208 519 257 93 -207c174,41 359,47 544,12l64 210z"/>
   <path class="fil13" d="M21177 12791c-625,-167 -980,-873 -792,-1573 187,-700 848,-1134 1472,-967 625,168 980,874 793,1574 -188,700 -849,1134 -1473,966zm3000 -28l265 -987 -647 -173c26,-327 -6,-647 -88,-944l596 -390 -436 -865 -595 391c-184,-231 -409,-423 -670,-561l194 -726 -880 -236 -194 726c-295,-11 -587,43 -861,151l-320 -637 -810 532 321 636c-220,216 -407,477 -548,773l-647 -173 -264 987 647 173c-27,327 5,646 87,943l-595 391 435 865 596 -391c183,231 409,423 670,561l-195 726 880 236 195 -726c295,11 586,-43 860,-151l321 636 809 -531 -320 -636c220,-216 407,-477 547,-773l647 173z"/>
   <g>
    <polygon class="fil20" points="54518,39126 54363,39171 40650,38330 40650,23369 54518,22160 "/>
    <path class="fil21" d="M52392 32930l-12053 -180c-108,-2 -204,-57 -272,-146 -62,-81 -100,-191 -100,-310l0 -2389c0,-119 38,-229 100,-310 68,-88 164,-144 272,-145 4012,-44 8049,-134 12057,-134 121,0 230,55 308,146 74,86 120,203 122,333 1,3 2,2432 -1,2659 -2,130 -48,247 -121,332 -78,89 -186,145 -306,145l-6 -1zm-12050 -396l12056 180c55,0 105,-27 142,-70 42,-48 68,-116 70,-192 10,-883 -1,-1772 -1,-2656 0,-76 -27,-144 -68,-193 -38,-43 -89,-70 -145,-70l-12054 133c-38,0 -75,24 -103,60 -34,45 -55,108 -55,179l0 2389c0,71 21,134 55,179 28,37 65,61 103,61z"/>
    <path class="fil21" d="M52388 37411l-12052 -594c-108,-5 -203,-64 -270,-153 -61,-83 -99,-193 -99,-312l0 -2403c3,-115 42,-220 102,-296 67,-85 161,-136 267,-136l4601 107 7459 173c122,3 232,62 310,156 74,89 120,209 120,340l-1 2673c-6,123 -52,233 -124,311 -76,84 -179,135 -294,135 -5,-1 -13,-1 -19,-1zm-12042 -810l12061 595c52,-1 99,-24 134,-63 39,-44 65,-106 68,-177l0 -2663c0,-79 -26,-150 -69,-202 -40,-47 -93,-77 -149,-78l-12055 -280c-36,0 -71,21 -97,54 -33,42 -54,100 -56,167l1 2398c0,72 21,136 56,183 29,39 67,64 106,66z"/>
    <polygon class="fil22" points="45504,26183 40652,26350 40652,25998 45504,25817 "/>
    <polygon class="fil22" points="45504,26835 40652,26976 40652,26624 45504,26469 "/>
    <polygon class="fil22" points="42756,27552 40652,27602 40652,27250 42756,27193 "/>
    <polygon class="fil22" points="46209,30919 41283,30917 41283,30442 46209,30425 "/>
    <polygon class="fil22" points="44555,31786 41283,31761 41283,31286 44555,31298 "/>
    <polygon class="fil22" points="45797,31795 44947,31789 44947,31299 45797,31302 "/>
    <polygon class="fil22" points="43203,35083 41283,35017 41283,34542 43203,34601 "/>
    <polygon class="fil22" points="45560,35165 43566,35096 43566,34612 45560,34673 "/>
    <polygon class="fil22" points="44555,35998 41283,35861 41283,35386 44555,35510 "/>
    <polygon class="fil22" points="48373,36157 44947,36014 44947,35524 48373,35654 "/>
    <path class="fil21" d="M52395 28449l-11951 232c-36,1 -72,2 -108,2 -105,0 -200,-52 -267,-136 -61,-77 -99,-183 -102,-299l0 -2401c0,-119 38,-230 99,-312 67,-89 162,-147 270,-152l12070 -549c116,0 220,52 295,136 72,80 118,190 124,314l1 2671c0,131 -46,251 -120,340 -79,93 -188,152 -311,154zm-12056 18l12053 -234c56,-1 108,-30 148,-77 42,-51 69,-122 69,-201l0 -2662c-3,-71 -29,-134 -68,-178 -36,-40 -83,-64 -135,-64l-12061 548c-38,2 -76,27 -105,66 -35,46 -56,111 -56,182l-1 2397c2,67 23,126 56,168 26,34 61,55 97,55l3 0z"/>
    <polygon class="fil23" points="66107,33790 65974,33822 49135,33163 49135,11371 65974,9338 66107,9385 "/>
    <polygon class="fil24" points="54518,33374 54518,22160 49135,22629 49135,33163 "/>
    <path class="fil25" d="M43694 16847l784 -112 25 388c179,30 355,94 522,194l263 -296 629 651 -238 336c108,194 188,407 237,631l372 9 0 1049 -372 37c-49,226 -129,445 -237,647l238 319 -629 697 -263 -277c-167,112 -343,190 -522,233l-25 390 -784 -56 -22 -379c-165,-58 -322,-147 -467,-265l-219 230 -491 -656 180 -270c-83,-178 -143,-368 -179,-563l-270 -23 0 -880 270 -42c36,-198 96,-392 179,-576l-180 -257 491 -693 219 215c145,-129 302,-229 467,-300l22 -381zm386 3575c167,2 336,-48 490,-154 73,-51 144,-112 208,-188 64,-76 116,-161 160,-250 187,-380 187,-849 0,-1216 -44,-86 -96,-167 -160,-239 -64,-71 -135,-127 -208,-173 -154,-93 -323,-132 -490,-117 -165,14 -327,80 -470,195 -68,54 -131,118 -188,194 -57,75 -104,157 -141,243 -160,356 -160,786 0,1131 37,83 84,162 141,233 57,72 120,131 188,180 143,105 305,159 470,161z"/>
    <path class="fil26" d="M46999 15630l501 -76 16 211c112,13 222,44 326,94l160 -165 380 334 -143 185c66,101 113,211 142,328l221 -8 0 554 -221 36c-29,123 -76,244 -142,357l143 156 -380 411 -160 -133c-104,71 -214,125 -326,160l-16 214 -501 26 -15 -209c-107,-22 -210,-61 -306,-117l-146 144 -331 -339 122 -164c-56,-96 -96,-200 -121,-309l-185 2 0 -503 185 -35c25,-114 65,-227 121,-334l-122 -140 331 -405 146 115c96,-76 199,-136 306,-179l15 -211zm248 1634c53,-5 105,-24 152,-57 23,-15 44,-34 64,-56 19,-22 35,-46 48,-70 55,-105 55,-228 0,-322 -13,-22 -29,-42 -48,-60 -20,-18 -41,-33 -64,-44 -47,-23 -99,-32 -152,-26 -52,6 -104,26 -151,60 -21,16 -42,34 -61,56 -19,22 -34,46 -47,70 -53,103 -53,223 0,315 13,22 28,43 47,61 19,18 40,32 61,44 47,24 99,33 151,29z"/>
    <path class="fil27" d="M56599 24921c2029,811 4505,310 6247,-1533 856,-906 1408,-2004 1649,-3149l-2949 -491c-292,1401 -1473,2487 -2860,2547 -375,16 -731,-44 -1055,-167l-1032 2793z"/>
    <path class="fil21" d="M54510 22905c42,44 86,86 131,129l1869 -2223c-542,-515 -879,-1266 -879,-2121 0,-1636 1246,-3067 2813,-3200 1138,-96 2137,515 2620,1493l2695 -1573c-287,-572 -674,-1096 -1155,-1544 -2325,-2163 -5949,-1767 -8094,754 -2084,2449 -2082,6105 0,8285z"/>
    <path class="fil28" d="M61372 18322c0,227 -24,450 -68,663l2949 490c298,-1388 134,-2833 -493,-4065l-2695 1573c196,396 307,850 307,1339z"/>
    <path class="fil29" d="M54640 23034c508,499 1092,874 1717,1123l1032 -2793c-330,-123 -626,-313 -879,-553l-1870 2223z"/>
    <polygon class="fil30" points="57380,26057 57380,37044 57123,37027 57123,26061 "/>
    <polygon class="fil26" points="53412,25777 53412,25211 54458,25192 54458,25762 "/>
    <polygon class="fil26" points="51597,25804 51597,25245 52616,25226 52616,25789 "/>
    <polygon class="fil26" points="49828,25830 49828,25278 50822,25259 50822,25815 "/>
    <path class="fil21" d="M50511 15552c324,-173 710,-133 975,137 128,130 210,297 246,476l-443 145c-45,-224 -227,-378 -445,-359 -59,5 -115,22 -167,50l-166 -449z"/>
    <path class="fil29" d="M50209 15800c7,-8 14,-16 22,-24l304 337c-87,99 -142,234 -142,378 0,277 202,486 451,466 179,-14 334,-141 408,-313l407 189c-43,100 -101,195 -173,280 -355,420 -927,463 -1277,99 -349,-362 -348,-993 0,-1412z"/>
    <path class="fil27" d="M51299 16417c0,-38 -4,-73 -10,-107l443 -145c44,217 20,454 -73,668l-407 -190c30,-69 47,-146 47,-226z"/>
    <path class="fil30" d="M50231 15776c83,-95 179,-170 280,-224l166 449c-53,27 -101,66 -141,112l-305 -337z"/>
    <g>
     <path class="fil31" d="M51679 22890c-140,364 -462,625 -834,636 -180,6 -346,-47 -486,-143l241 -427c175,119 412,88 566,-88 42,-49 74,-103 96,-161l417 183z"/>
     <path class="fil32" d="M51753 22489c0,11 0,22 -1,33l-453 1c4,-135 -41,-269 -134,-368 -177,-190 -464,-178 -640,26 -125,145 -162,347 -108,520l-422 175c-31,-99 -48,-206 -48,-318 0,-550 401,-1014 897,-1037 501,-23 909,411 909,968z"/>
     <path class="fil29" d="M50525 22891c23,25 49,47 75,65l-241 427c-169,-115 -299,-293 -364,-507l422 -175c21,70 57,135 108,190z"/>
     <path class="fil33" d="M51752 22522c-3,129 -29,254 -73,368l-417 -183c23,-59 35,-122 37,-184l453 -1z"/>
    </g>
    <path class="fil30" d="M50489 20429c-319,-136 -542,-475 -542,-886 0,-198 52,-386 142,-547l375 245c-112,201 -92,461 61,622 42,44 90,77 141,98l-177 468z"/>
    <path class="fil21" d="M50844 20491c-10,1 -20,1 -30,1l15 -499c121,-3 244,-59 336,-167 179,-208 179,-527 0,-713 -126,-132 -308,-161 -466,-91l-144 -463c91,-41 188,-66 290,-73 500,-34 908,390 908,948 0,557 -409,1031 -909,1057z"/>
    <path class="fil29" d="M50525 19153c-24,27 -44,57 -61,87l-375 -244c108,-195 272,-351 466,-437l144 463c-64,27 -124,71 -174,131z"/>
    <path class="fil27" d="M50814 20492c-115,2 -225,-20 -325,-63l177 -468c52,23 107,32 163,31l-15 500z"/>
    <path class="fil8" d="M65274 27877c-342,-560 -1959,-1957 -2392,-2467 21,202 -206,318 -416,332 -57,4 -119,-2 -183,-17 14,304 120,628 501,1287 675,1169 1126,1780 1573,2263 79,85 176,113 278,99 235,41 665,62 1472,-53l0 -1711c-333,111 -614,204 -833,267z"/>
    <path class="fil19" d="M62909 25186c12,-127 82,-878 -58,-901 -137,-23 -215,172 -266,400 -108,-233 -236,-490 -366,-716 -265,215 -542,404 -828,566 24,167 58,310 86,397 136,432 498,719 806,793 64,15 126,21 183,17 210,-14 437,-130 416,-332 -1,-10 -3,-20 -5,-30 16,-50 24,-115 32,-194z"/>
    <path class="fil34" d="M62219 23969c-236,-406 -479,-707 -625,-560 -255,256 -256,751 -203,1126 286,-162 563,-351 828,-566z"/>
    <path class="fil35" d="M40650 25585l0 -216 -314 14c-108,5 -203,63 -270,152 -61,83 -99,193 -99,312l0 2401c3,116 41,222 102,299 67,84 162,136 267,136l108 -2 206 -4 0 -216 -311 6 -3 0c-36,0 -71,-21 -97,-55 -33,-42 -54,-101 -56,-168l1 -2397c0,-71 21,-136 56,-182 29,-39 67,-64 105,-66l305 -14z"/>
    <path class="fil35" d="M40650 33740l0 -216 -314 -7c-106,0 -200,51 -267,136 -60,76 -99,181 -102,296l0 2403c0,119 38,229 99,312 67,89 162,148 270,153l314 16 0 -217 -304 -15c-39,-2 -77,-27 -106,-66 -35,-47 -56,-111 -56,-183l-1 -2398c2,-67 23,-125 56,-167 26,-33 61,-54 97,-54l314 7z"/>
    <path class="fil35" d="M40650 32539l-308 -5c-38,0 -75,-24 -103,-61 -34,-45 -55,-108 -55,-179l0 -2389c0,-71 21,-134 55,-179 28,-37 65,-60 103,-60l308 -3 0 -217c-104,2 -207,3 -311,4 -108,1 -204,57 -272,145 -62,81 -100,191 -100,310l0 2389c0,119 38,229 100,310 68,89 164,144 272,146l311 5 0 -216z"/>
    <path class="fil36" d="M54518 22913l0 -753 -570 50c166,244 354,477 562,695 3,3 5,5 8,8z"/>
    <path class="fil37" d="M52825 32454c3,-227 2,-2656 0,-2659 -1,-130 -47,-247 -121,-333 -78,-91 -187,-146 -308,-146 -1085,0 -2172,6 -3261,17l0 236 3261 -36c56,0 107,27 144,70 42,49 69,117 69,193 0,884 11,1773 0,2656 -1,76 -27,144 -69,192 -37,43 -87,70 -142,70l-3263 -48 0 215 3257 49 6 1c120,0 228,-56 306,-145 73,-85 119,-202 121,-332z"/>
    <path class="fil37" d="M51902 24857l-2767 126 0 217 3053 -139 218 -10c52,0 99,24 134,64 40,44 66,107 69,178l0 61 0 2601c0,79 -27,150 -69,201 -40,47 -92,76 -148,77l-3257 63 0 217 3260 -64c123,-2 232,-61 311,-154 74,-89 120,-209 120,-340l-1 -2455 0 -216c-6,-124 -52,-234 -124,-314 -75,-84 -179,-136 -295,-136l-504 23z"/>
    <path class="fil38" d="M63189 34698c-1597,-71 -2369,-1882 -3129,-3666 -723,-1696 -1436,-3366 -2805,-3364 -1326,3 -2010,1642 -2684,3257l-53 127 0 -611c655,-1550 1369,-3006 2737,-3009 1525,-3 2268,1739 3022,3508 731,1715 1474,3458 2922,3523l-10 235z"/>
    <polygon class="fil39" points="51941,28794 51941,36247 51703,36232 51703,28792 "/>
    <path class="fil40" d="M51749 22387c-46,-507 -435,-888 -905,-866 -484,22 -877,465 -896,998l448 -33c10,-110 53,-218 129,-305 176,-204 463,-216 640,-26 69,74 112,167 127,266l457 -34z"/>
    <polygon class="fil35" points="65974,33822 66127,33790 66127,9385 65974,9338 "/>
    <polygon class="fil35" points="54363,33368 54363,39171 54518,39126 54518,33374 "/>
    <polygon class="fil41" points="40650,23369 40650,23448 49135,22820 49135,22629 "/>
    <path class="fil29" d="M54518 31052c-681,1630 -1370,3195 -2755,3133 -1378,-62 -2040,-1738 -2693,-3391 -617,-1565 -1227,-3108 -2388,-3106l0 -236c1322,-2 1961,1615 2608,3255 625,1582 1259,3187 2483,3242 1256,56 1913,-1518 2580,-3115 54,-131 109,-263 165,-393l0 611z"/>
   </g>
  </g>
 </g>
</svg>
