<?xml version="1.0" encoding="UTF-8"?>
<!DOCTYPE svg PUBLIC "-//W3C//DTD SVG 1.1//EN" "http://www.w3.org/Graphics/SVG/1.1/DTD/svg11.dtd">
<!-- Creator: CorelDRAW X7 -->
<svg xmlns="http://www.w3.org/2000/svg" xml:space="preserve" width="8.55913in" height="8.50606in" version="1.1" style="shape-rendering:geometricPrecision; text-rendering:geometricPrecision; image-rendering:optimizeQuality; fill-rule:evenodd; clip-rule:evenodd"
viewBox="0 0 85591 85061"
 xmlns:xlink="http://www.w3.org/1999/xlink">
 <defs>
  <style type="text/css">
   <![CDATA[
    .fil5 {fill:#7ECDC5}
    .fil7 {fill:#D2AE6D}
    .fil4 {fill:#DFC495}
    .fil11 {fill:#E2CAA0}
    .fil3 {fill:#E8D5B3}
    .fil10 {fill:#E9D6B3}
    .fil9 {fill:#ECDFC7}
    .fil6 {fill:#EDDEC2}
    .fil1 {fill:#F0E5D2}
    .fil2 {fill:#F2E6D3}
    .fil12 {fill:#F3E9D7}
    .fil0 {fill:#F7F1E5}
    .fil8 {fill:white}
   ]]>
  </style>
 </defs>
 <g id="Layer_x0020_1">
  <metadata id="CorelCorpID_0Corel-Layer"/>
  <g id="_2250887204528">
   <g>
    <path class="fil0" d="M75793 53600c0,-16952 -13741,-30693 -30692,-30693 -16951,0 -30693,13741 -30693,30693 0,16951 13742,30693 30693,30693 16951,0 30692,-13742 30692,-30693z"/>
    <path class="fil1" d="M66360 75726l0 -14749 -6 0 0 -35c-18,-76 -1869,-1611 -3293,-2777l0 -645 1723 -445c270,-69 546,-104 820,-104 445,0 885,90 1295,268 299,129 609,252 920,352l0 1348c1424,1165 2327,1927 2344,2004l0 34 6 0 0 10320c-1131,1599 -2403,3076 -3809,4429z"/>
    <polygon class="fil2" points="1418,14220 10425,35353 17007,30850 20823,36393 21511,27042 29478,22188 "/>
    <polygon class="fil3" points="18466,29850 10425,35353 17007,30850 20823,36393 21511,27042 8816,19482 "/>
    <polygon class="fil4" points="21342,29334 8816,19482 21511,27042 "/>
    <path class="fil4" d="M20984 39029c-71,-411 -161,-822 -268,-1221l618 -165c111,417 205,847 280,1277l-630 109z"/>
    <path class="fil4" d="M21593 44148l-630 -112c146,-826 222,-1668 227,-2503l639 3c-4,871 -84,1750 -236,2612zm-4377 377c-726,-163 -1472,-246 -2216,-246l-259 4 -16 -640c881,-21 1768,64 2631,258l-140 624zm-7043 1248l-448 -457c563,-552 1333,-964 2354,-1263l215 604c-940,275 -1642,647 -2121,1116zm11496 961c-589,-428 -1220,-878 -1904,-1252l-214 -113 293 -568c76,38 152,79 228,120 717,393 1394,875 1973,1297l-376 516zm27462 843l-197 -608c812,-264 1621,-539 2426,-825l213 602c-809,288 -1624,566 -2442,831zm-4968 1416l-150 -622c799,-194 1632,-414 2473,-654l176 614c-850,244 -1691,466 -2499,662zm-24347 71l-555 -319c414,-720 769,-1487 1055,-2279l601 216c-298,828 -668,1629 -1101,2382zm6380 254c-751,-255 -1456,-568 -2094,-928 -100,-56 -200,-115 -299,-174l331 -548c93,56 186,112 282,165 604,341 1272,637 1986,880l-206 605zm12886 646l-86 -633c822,-112 1670,-252 2519,-415l121 627c-860,166 -1720,308 -2554,421zm-7760 292l-408 -32c-786,-66 -1498,-154 -2177,-272l109 -630c660,114 1354,201 2121,265l399 30 -44 639zm2593 83l-3 -639c833,-4 1690,-38 2547,-101l47 637c-871,64 -1743,99 -2591,103zm-24736 146c-361,-730 -552,-1534 -552,-2323 0,-64 2,-129 5,-194l7 -139 638 47 -7 117c-2,57 -3,113 -3,169 0,692 167,1397 485,2040l-573 283zm7003 2377l-283 -573c665,-328 1309,-834 1913,-1507l475 427c-658,734 -1367,1291 -2105,1653zm-2656 522c-928,-62 -1816,-358 -2568,-857l353 -533c660,437 1440,697 2257,751l-42 639z"/>
    <path class="fil5" d="M54021 45845l-228 -598c398,-151 796,-305 1192,-460l233 596c-398,155 -797,309 -1197,462z"/>
    <path class="fil6" d="M74148 61427c-325,0 -603,-247 -635,-578 -34,-351 223,-663 574,-697 3864,-374 7419,-2220 10010,-5194 232,-267 636,-294 901,-62 267,231 295,635 62,901 -2805,3223 -6659,5221 -10849,5627l-63 3z"/>
    <path class="fil7" d="M66356 60978l-22274 13136 -22273 -13136 3 -36c18,-83 1248,-1110 3122,-2633l51 -44c6151,-4993 19097,-15220 19097,-15220 0,0 12947,10227 19097,15220 1904,1545 3156,2590 3174,2677l3 36z"/>
    <path class="fil8" d="M53243 32167l-24032 0c-2062,0 -3733,1671 -3733,3732l0 36337c0,2061 1671,3732 3732,3732l30114 0c2061,0 3732,-1671 3732,-3732l0 -30256 -9813 -9813z"/>
    <path class="fil9" d="M53243 38248c0,2061 1671,3732 3732,3732l6081 0 -9813 -9813 0 6081z"/>
    <path class="fil10" d="M66359 60977l0 21369c0,1494 -1221,2715 -2715,2715l-39126 0c-1494,0 -2707,-1221 -2707,-2715l0 -21369 22274 13133 22274 -13133z"/>
    <path class="fil11" d="M65606 84210l-14336 -14336 -7185 4236 -7188 -4237 -14337 14336c493,522 1186,852 1958,852l39126 0c772,0 1466,-330 1962,-851z"/>
    <path class="fil10" d="M70857 31643c-6412,629 -11534,5914 -11993,12341 -228,3198 678,6169 2348,8572 628,905 731,2075 309,3093l-1058 2546 4323 -1120c704,-183 1448,-126 2116,164 2003,869 4260,1265 6631,1035 6294,-609 11386,-5691 11994,-11985 816,-8443 -6224,-15475 -14670,-14646z"/>
    <path class="fil11" d="M71850 31586c4766,1427 8242,5841 8242,11072 0,6385 -5176,11561 -11561,11561 -3364,0 -6383,-1445 -8495,-3738 333,728 723,1424 1176,2075 628,905 731,2075 309,3093l-1058 2546 4323 -1120c704,-183 1448,-126 2116,164 2003,869 4260,1265 6631,1035 6294,-609 11386,-5691 11994,-11985 783,-8110 -5681,-14913 -13677,-14703z"/>
    <path class="fil12" d="M2181 20487l2921 6704c149,342 -8,740 -351,887l-104 45c-343,148 -742,-11 -888,-357l-2817 -6749c-148,-353 28,-760 388,-893 335,-124 709,36 851,363z"/>
    <path class="fil4" d="M44635 57762l0 -2205 -734 0 0 2205 734 0zm4447 6224l-4684 -4002 -9759 0 0 -14061 19256 0 0 14061 -4813 0 0 4002zm734 -3266l4814 0 0 -15544 -20726 0 0 15544 10232 0 5680 4880 0 -4880zm-5915 -6645l734 0 0 -5928 -734 0 0 5928z"/>
    <path class="fil8" d="M67050 47914l281 288 1835 -1828 -288 -288 -1828 1828zm11801 -5742l-9426 9426c-1245,-1252 -2490,-2497 -3742,-3741l3130 -3131 1814 1814 3166 -3166 -1814 -1814 3131 -3130c1244,1245 2496,2497 3741,3742zm-3741 -3166l-2555 2554 1806 1814 -3734 3734 -1814 -1806 -2554 2555c1058,1057 2108,2108 3166,3166l8851 -8851c-1058,-1058 -2109,-2108 -3166,-3166l0 0zm-1771 2619l288 281 1828 -1828 -288 -281 -1828 1828z"/>
   </g>
   <path class="fil9" d="M71797 81069c2047,67 3688,1747 3699,3828l34 0c16,-2081 1657,-3761 3699,-3828 -2053,-66 -3699,-1763 -3699,-3854l-28 0c0,2091 -1647,3788 -3705,3854z"/>
   <path class="fil9" d="M0 1920c1020,34 1837,871 1843,1907l17 0c8,-1036 825,-1873 1842,-1907 -1022,-33 -1842,-878 -1842,-1920l-14 0c0,1042 -821,1887 -1846,1920z"/>
  </g>
 </g>
</svg>
