<?xml version="1.0" encoding="UTF-8"?>
<!DOCTYPE svg PUBLIC "-//W3C//DTD SVG 1.1//EN" "http://www.w3.org/Graphics/SVG/1.1/DTD/svg11.dtd">
<!-- Creator: CorelDRAW X7 -->
<svg xmlns="http://www.w3.org/2000/svg" xml:space="preserve" width="6.80508in" height="0.571339in" version="1.1" style="shape-rendering:geometricPrecision; text-rendering:geometricPrecision; image-rendering:optimizeQuality; fill-rule:evenodd; clip-rule:evenodd"
viewBox="0 0 68051 5713"
 xmlns:xlink="http://www.w3.org/1999/xlink">
 <defs>
  <style type="text/css">
   <![CDATA[
    .fil1 {fill:white}
    .fil0 {fill:#A38755;fill-rule:nonzero}
   ]]>
  </style>
 </defs>
 <g id="Layer_x0020_1">
  <metadata id="CorelCorpID_0Corel-Layer"/>
  <g id="_2252526603504">
   <path class="fil0" d="M66837 5713l-65623 0c-334,0 -637,-136 -857,-356 -220,-220 -357,-523 -357,-857l0 -3286c0,-334 137,-638 357,-858 220,-220 523,-356 857,-356l65623 0c333,0 637,136 857,356 220,220 356,524 356,858l0 3286c0,334 -136,637 -356,857 -220,220 -523,356 -857,356zm-65623 -330l65623 0c242,0 463,-100 623,-260 160,-160 260,-381 260,-623l0 -3286c0,-243 -100,-464 -260,-624 -160,-160 -381,-259 -623,-259l-65623 0c-242,0 -463,99 -623,259 -160,160 -260,381 -260,624l0 3286c0,242 100,463 260,623 160,160 381,260 623,260z"/>
   <path class="fil1" d="M67720 4500l0 -3286c0,-243 -100,-464 -260,-624 -160,-160 -381,-259 -623,-259l-65623 0c-242,0 -463,99 -623,259 -160,160 -260,381 -260,624l0 3286c0,242 100,463 260,623 160,160 381,260 623,260l65623 0c242,0 463,-100 623,-260 160,-160 260,-381 260,-623z"/>
  </g>
 </g>
</svg>
