<?xml version="1.0" encoding="UTF-8"?>
<!DOCTYPE svg PUBLIC "-//W3C//DTD SVG 1.1//EN" "http://www.w3.org/Graphics/SVG/1.1/DTD/svg11.dtd">
<!-- Creator: CorelDRAW X7 -->
<svg xmlns="http://www.w3.org/2000/svg" xml:space="preserve" width="0.763819in" height="0.763819in" version="1.1" style="shape-rendering:geometricPrecision; text-rendering:geometricPrecision; image-rendering:optimizeQuality; fill-rule:evenodd; clip-rule:evenodd"
viewBox="0 0 7638 7638"
 xmlns:xlink="http://www.w3.org/1999/xlink">
 <defs>
  <style type="text/css">
   <![CDATA[
    .fil0 {fill:#7C94CA}
   ]]>
  </style>
 </defs>
 <g id="Layer_x0020_1">
  <metadata id="CorelCorpID_0Corel-Layer"/>
  <path class="fil0" d="M0 3819c0,-2112 1706,-3821 3820,-3819 2112,0 3818,1707 3818,3819 0,2111 -1707,3819 -3818,3819 -2113,2 -3820,-1707 -3820,-3819zm5918 -1050l-3149 3148 -1048 -1047 821 -821 670 671 1508 -1507 -671 -671 821 -821 1048 1048zm-1532 -227l168 169 484 -484 -168 -169 -484 484zm-2328 2328l168 168 484 -484 -168 -168 -484 484zm4196 -2102l-3486 3485 -1383 -1383 1157 -1157 670 670 1171 -1170 -670 -671 1157 -1157c460,463 921,923 1384,1383zm1146 1051c0,-1980 -1600,-3581 -3580,-3581 -1981,0 -3582,1601 -3582,3581 0,1980 1602,3581 3582,3581 1980,0 3580,-1601 3580,-3581z"/>
 </g>
</svg>
