<?xml version="1.0" encoding="UTF-8"?>
<!DOCTYPE svg PUBLIC "-//W3C//DTD SVG 1.1//EN" "http://www.w3.org/Graphics/SVG/1.1/DTD/svg11.dtd">
<!-- Creator: CorelDRAW X7 -->
<svg xmlns="http://www.w3.org/2000/svg" xml:space="preserve" width="100%" height="100%" version="1.1" style="shape-rendering:geometricPrecision; text-rendering:geometricPrecision; image-rendering:optimizeQuality; fill-rule:evenodd; clip-rule:evenodd"
viewBox="0 0 3200 3200"
 xmlns:xlink="http://www.w3.org/1999/xlink">
 <defs>
  <style type="text/css">
   <![CDATA[
    .fil1 {fill:none}
    .fil0 {fill:black}
   ]]>
  </style>
 </defs>
 <g id="Layer_x0020_1">
  <metadata id="CorelCorpID_0Corel-Layer"/>
  <path class="fil0" d="M923 2503l1354 0 0 -1806 -943 0 -411 412 0 1394zm677 -536l395 0 0 -57 -395 0 0 57zm0 282l395 0 0 -56 -395 0 0 56zm-429 -206l-30 42 30 42 -5 52 47 22 22 47 52 -5 42 30 42 -30 52 5 22 -47 47 -22 -5 -52 31 -42 -31 -42 5 -52 -47 -22 -22 -47 -52 5 -42 -30 -42 30 -52 -5 -22 47 -47 22 5 52zm75 125c-21,-21 -34,-51 -34,-83 0,-32 13,-62 34,-83 21,-21 51,-34 83,-34 32,0 62,13 83,34 21,21 35,51 35,83 0,32 -14,62 -35,83 -21,21 -51,34 -83,34 -32,0 -62,-13 -83,-34zm-41 -540l790 0 0 57 -790 0 0 -57zm0 -282l790 0 0 56 -790 0 0 -56zm395 -282l395 0 0 56 -395 0 0 -56zm621 1383l-1242 0 0 -1298 395 0 0 -396 847 0 0 1694zm-1202 -1355l299 -299 0 299 -299 0z"/>
  <rect class="fil1" width="3200" height="3200"/>
 </g>
</svg>
