<?xml version="1.0" encoding="UTF-8"?>
<!DOCTYPE svg PUBLIC "-//W3C//DTD SVG 1.1//EN" "http://www.w3.org/Graphics/SVG/1.1/DTD/svg11.dtd">
<!-- Creator: CorelDRAW X7 -->
<svg xmlns="http://www.w3.org/2000/svg" xml:space="preserve" width="100%" height="100%" version="1.1" style="shape-rendering:geometricPrecision; text-rendering:geometricPrecision; image-rendering:optimizeQuality; fill-rule:evenodd; clip-rule:evenodd"
viewBox="0 0 3200 3200"
 xmlns:xlink="http://www.w3.org/1999/xlink">
 <defs>
  <style type="text/css">
   <![CDATA[
    .fil1 {fill:none}
    .fil0 {fill:black}
   ]]>
  </style>
 </defs>
 <g id="Layer_x0020_1">
  <metadata id="CorelCorpID_0Corel-Layer"/>
  <path class="fil0" d="M1910 1105l-355 -355 -858 0 0 1693 1213 0 0 -1338zm-987 887l762 0 0 56 -762 0 0 -56zm0 -226l762 0 0 56 -762 0 0 -56zm0 -226l762 0 0 57 -762 0 0 -57zm0 -226l762 0 0 57 -762 0 0 -57zm0 -282l338 0 0 57 -338 0 0 -57zm1580 -338l-282 0 0 1530 141 282 141 -282 0 -1530zm-56 56l0 226 -170 0 0 -226 170 0zm-85 1630l-85 -169 0 -1179 170 0 0 1179 -85 169zm-790 -1534l242 243 -242 0 0 -243zm-819 1541l0 -1581 762 0 0 339 339 0 0 1242 -1101 0z"/>
  <rect class="fil1" width="3200" height="3200"/>
 </g>
</svg>
