<?xml version="1.0" encoding="UTF-8"?>
<!DOCTYPE svg PUBLIC "-//W3C//DTD SVG 1.1//EN" "http://www.w3.org/Graphics/SVG/1.1/DTD/svg11.dtd">
<!-- Creator: CorelDRAW X7 -->
<svg xmlns="http://www.w3.org/2000/svg" xml:space="preserve" width="100%" height="100%" version="1.1" style="shape-rendering:geometricPrecision; text-rendering:geometricPrecision; image-rendering:optimizeQuality; fill-rule:evenodd; clip-rule:evenodd"
viewBox="0 0 3200 3200"
 xmlns:xlink="http://www.w3.org/1999/xlink">
 <defs>
  <style type="text/css">
   <![CDATA[
    .fil1 {fill:none}
    .fil0 {fill:black}
   ]]>
  </style>
 </defs>
 <g id="Layer_x0020_1">
  <metadata id="CorelCorpID_0Corel-Layer"/>
  <path class="fil0" d="M1236 1933l224 0 0 368c-19,5 -37,16 -51,30 -19,19 -32,47 -32,78 0,31 13,59 32,79 21,19 49,32 79,32 31,0 59,-13 79,-32 20,-20 32,-48 32,-79 0,-31 -12,-59 -32,-78 -14,-14 -31,-25 -51,-30l0 -368 225 0 0 368c-20,5 -37,16 -51,30 -20,19 -33,47 -33,78 0,31 13,59 33,79 20,19 48,32 79,32 30,0 58,-13 79,-32 19,-20 32,-48 32,-79 0,-31 -13,-59 -32,-78 -14,-14 -32,-25 -51,-30l0 -368 224 0 0 448 0 33 0 23 263 0c6,20 16,37 30,51 19,19 47,32 78,32 31,0 59,-13 79,-32 19,-20 32,-48 32,-79 0,-31 -13,-59 -32,-78 -20,-21 -48,-33 -79,-33 -31,0 -59,12 -78,33 -14,13 -24,30 -30,50l-207 0 0 -448 78 0c96,0 183,-39 246,-102 63,-63 102,-150 102,-246 0,-73 -23,-142 -62,-198 -33,-47 -77,-85 -128,-111 -3,-51 -17,-98 -40,-139 -27,-49 -66,-89 -112,-118 -46,-29 -99,-47 -155,-51 -38,-2 -77,2 -115,14 -30,-79 -81,-148 -146,-199 -80,-65 -182,-103 -293,-103l0 0 -6 0 0 0c-130,2 -246,55 -329,141 -76,77 -125,179 -134,293 -77,26 -144,74 -194,136 -57,72 -92,163 -92,263 0,116 47,221 123,297 76,76 181,123 298,123l62 0 0 448 -263 0c-6,-20 -16,-37 -30,-50 -19,-21 -47,-33 -78,-33 -31,0 -59,12 -79,33 -19,19 -32,47 -32,78 0,31 13,59 32,79 20,19 48,32 79,32 31,0 59,-13 78,-32 14,-14 25,-31 30,-51l319 0 0 -23 0 -33 0 -448zm-388 439c4,4 8,10 11,16 2,7 4,14 4,21 0,7 -2,15 -4,21 -3,6 -7,12 -12,17 -9,10 -23,16 -38,16 -8,0 -15,-2 -21,-4 -7,-3 -12,-7 -18,-11 -4,-6 -8,-11 -11,-18 -2,-6 -4,-13 -4,-21 0,-8 2,-15 5,-21 2,-6 6,-12 11,-17 9,-10 23,-16 38,-16 7,0 14,2 21,4 6,3 12,7 16,11l2 2zm679 0c5,4 8,10 11,16 3,7 4,14 4,21 0,7 -1,15 -4,21 -3,6 -7,12 -12,17 -9,10 -22,16 -38,16 -7,0 -14,-2 -21,-4 -6,-3 -12,-7 -17,-11 -5,-6 -9,-11 -11,-18 -3,-6 -4,-13 -4,-21 0,-8 1,-15 4,-21 2,-6 6,-12 11,-17 10,-10 23,-16 38,-16 8,0 15,2 21,4 6,3 12,7 16,11l2 2zm815 16c3,-6 7,-12 11,-16l2 -2c4,-4 10,-8 16,-11 7,-2 14,-4 21,-4 15,0 29,6 38,16 5,5 9,11 11,17 3,6 5,13 5,21 0,8 -2,15 -4,21 -3,7 -7,12 -11,18 -5,4 -11,8 -18,11 -6,2 -13,4 -21,4 -15,0 -29,-6 -38,-16 -5,-5 -9,-11 -12,-17 -2,-6 -4,-14 -4,-21 0,-7 2,-14 4,-21zm-623 0c3,-6 6,-12 11,-16l2 -2c4,-4 10,-8 16,-11 6,-2 13,-4 21,-4 15,0 28,6 38,16 5,5 9,11 11,17 3,6 4,13 4,21 0,8 -1,15 -4,21 -2,7 -6,12 -11,18 -5,4 -11,8 -17,11 -7,2 -14,4 -21,4 -16,0 -29,-6 -38,-16 -5,-5 -9,-11 -12,-17 -3,-6 -4,-14 -4,-21 0,-7 1,-14 4,-21zm436 -512l-1037 0c-201,0 -364,-163 -364,-363 0,-174 122,-319 285,-355 -3,-232 181,-421 413,-421 197,0 361,138 403,322 186,-104 415,42 401,254 111,41 190,147 190,272 0,161 -130,291 -291,291z"/>
  <rect class="fil1" width="3200" height="3200"/>
 </g>
</svg>
