<?xml version="1.0" encoding="UTF-8"?>
<!DOCTYPE svg PUBLIC "-//W3C//DTD SVG 1.1//EN" "http://www.w3.org/Graphics/SVG/1.1/DTD/svg11.dtd">
<!-- Creator: CorelDRAW X7 -->
<svg xmlns="http://www.w3.org/2000/svg" xml:space="preserve" width="100%" height="100%" version="1.1" style="shape-rendering:geometricPrecision; text-rendering:geometricPrecision; image-rendering:optimizeQuality; fill-rule:evenodd; clip-rule:evenodd"
viewBox="0 0 3200 3200"
 xmlns:xlink="http://www.w3.org/1999/xlink">
 <defs>
  <style type="text/css">
   <![CDATA[
    .fil0 {fill:none}
    .fil1 {fill:black}
   ]]>
  </style>
 </defs>
 <g id="Layer_x0020_1">
  <metadata id="CorelCorpID_0Corel-Layer"/>
  <rect class="fil0" width="3200" height="3200"/>
  <path class="fil1" d="M1487 1957l225 0 0 346c-49,12 -83,57 -83,107 0,62 49,112 111,112 62,0 111,-49 111,-112 0,-51 -34,-95 -83,-107l0 -346 224 0 0 481 293 0c5,20 16,38 29,52 20,19 48,32 79,32 31,0 59,-13 79,-32 19,-21 32,-49 32,-80 0,-31 -13,-59 -32,-78 -20,-20 -48,-33 -79,-33 -31,0 -59,13 -79,33 -13,13 -24,31 -29,50l-237 0 0 -425 234 0 0 -517 154 154 40 -39 -876 -877 -877 877 40 39 170 -169 0 532 218 0 0 425 -236 0c-13,-48 -58,-83 -108,-83 -62,0 -111,49 -111,111 0,63 49,112 111,112 51,0 95,-34 108,-84l292 0 0 -481 224 0 0 346c-49,12 -83,56 -83,107 0,63 49,112 111,112 62,0 111,-50 111,-112 0,-50 -34,-95 -83,-107l0 -346zm281 -56l-337 0 0 -431 337 0 0 431zm-393 0l-386 0 0 -533 611 -610 627 627 -1 0 0 516 -402 0 0 -487 -449 0 0 487zm1018 456c30,0 53,23 53,53 0,32 -23,54 -53,54 -31,0 -54,-24 -54,-54 0,-29 24,-53 54,-53zm-1639 53c0,-30 23,-53 53,-53 30,0 54,24 54,53 0,30 -23,54 -54,54 -31,0 -53,-23 -53,-54zm652 0c0,-30 23,-53 53,-53 30,0 54,24 54,53 0,30 -23,54 -54,54 -31,0 -53,-23 -53,-54zm334 -53c30,0 53,23 53,53 0,31 -22,54 -53,54 -31,0 -54,-24 -54,-54 0,-29 24,-53 54,-53z"/>
 </g>
</svg>
