<?xml version="1.0" encoding="UTF-8"?>
<!DOCTYPE svg PUBLIC "-//W3C//DTD SVG 1.1//EN" "http://www.w3.org/Graphics/SVG/1.1/DTD/svg11.dtd">
<!-- Creator: CorelDRAW X7 -->
<svg xmlns="http://www.w3.org/2000/svg" xml:space="preserve" width="100%" height="100%" version="1.1" style="shape-rendering:geometricPrecision; text-rendering:geometricPrecision; image-rendering:optimizeQuality; fill-rule:evenodd; clip-rule:evenodd"
viewBox="0 0 3200 3200"
 xmlns:xlink="http://www.w3.org/1999/xlink">
 <defs>
  <style type="text/css">
   <![CDATA[
    .fil0 {fill:none}
    .fil1 {fill:black}
   ]]>
  </style>
 </defs>
 <g id="Layer_x0020_1">
  <metadata id="CorelCorpID_0Corel-Layer"/>
  <rect class="fil0" width="3200" height="3200"/>
  <path class="fil1" d="M2221 697l-1242 0 0 597 -282 118 0 1091 1806 0 0 -1091 -282 -118 0 -597zm-437 412l0 0c0,0 0,0 0,0zm-339 -69c-23,15 -43,32 -61,54 -4,4 -8,10 -12,15 -13,18 -25,38 -35,59 -20,46 -31,94 -31,144 0,8 1,16 1,24 3,36 11,70 25,103 14,30 35,58 62,81 20,17 42,31 68,42 10,4 20,8 31,11 39,12 81,18 127,18 50,0 93,-7 128,-20 35,-13 66,-31 91,-53 26,-23 44,-45 55,-67l-56 0c-18,26 -46,49 -82,67 -25,12 -54,20 -87,24 -15,2 -32,3 -50,3 -50,0 -96,-8 -138,-26 -19,-8 -36,-18 -51,-30 -18,-14 -33,-31 -45,-51 -22,-37 -33,-80 -33,-131 0,-48 11,-93 33,-136 13,-24 28,-44 47,-62 14,-13 29,-25 46,-35 34,-19 71,-30 111,-33 7,0 15,-1 22,-1 43,0 82,9 117,27 22,12 41,26 56,42 0,0 0,0 0,0 0,0 1,0 1,0 8,10 16,19 22,30 18,30 26,62 26,97 0,0 0,0 0,1 0,29 -7,57 -20,84 -14,28 -33,50 -56,67 -3,2 -6,4 -8,5 -14,9 -26,14 -35,14 -6,0 -12,-2 -16,-6 -4,-4 -6,-9 -6,-15 0,-3 3,-19 9,-48l41 -191 4 -17 -16 0 -39 0 -11 48c-12,-19 -26,-33 -42,-43 -17,-9 -34,-14 -52,-14 -23,0 -48,8 -73,25 -25,16 -46,41 -63,74 -16,33 -25,66 -25,99 0,27 6,51 16,73 11,23 25,39 43,50 17,11 35,16 54,16 16,0 33,-4 50,-14 16,-9 31,-22 45,-37 1,12 3,21 6,27 4,8 10,14 19,18 9,5 20,7 35,7 0,0 1,0 2,0 39,-1 76,-18 110,-51 4,-4 7,-8 11,-12 42,-46 63,-99 63,-159 0,-42 -10,-81 -30,-117 -2,-4 -4,-7 -7,-11 -23,-36 -53,-63 -90,-82 -34,-18 -73,-28 -115,-31 -7,0 -15,-1 -23,-1 -66,0 -122,15 -169,45zm58 349c-14,-16 -21,-38 -21,-66 0,-18 4,-38 10,-59 7,-21 16,-39 27,-54 11,-15 22,-26 34,-33 11,-6 24,-10 37,-10 20,0 37,8 51,24 14,15 21,37 21,65 0,21 -4,42 -11,63 -8,21 -17,39 -29,52 -12,14 -24,24 -37,31 -13,7 -25,10 -36,10 -18,0 -33,-7 -46,-23zm662 -636l0 839 -565 354 -564 -354 0 -839 1129 0zm-1186 804l-193 -121 193 -81 0 202zm-226 890l0 -965 847 531 847 -531 0 965 -1694 0zm1661 -1011l-193 121 0 -202 193 81z"/>
 </g>
</svg>
