<?xml version="1.0" encoding="UTF-8"?>
<!DOCTYPE svg PUBLIC "-//W3C//DTD SVG 1.1//EN" "http://www.w3.org/Graphics/SVG/1.1/DTD/svg11.dtd">
<!-- Creator: CorelDRAW X7 -->
<svg xmlns="http://www.w3.org/2000/svg" xml:space="preserve" width="100%" height="100%" version="1.1" style="shape-rendering:geometricPrecision; text-rendering:geometricPrecision; image-rendering:optimizeQuality; fill-rule:evenodd; clip-rule:evenodd"
viewBox="0 0 3200 3200"
 xmlns:xlink="http://www.w3.org/1999/xlink">
 <defs>
  <style type="text/css">
   <![CDATA[
    .fil1 {fill:none}
    .fil0 {fill:black}
   ]]>
  </style>
 </defs>
 <g id="Layer_x0020_1">
  <metadata id="CorelCorpID_0Corel-Layer"/>
  <path class="fil0" d="M1600 2447c-226,0 -439,-88 -599,-248 -160,-160 -248,-373 -248,-599 0,-226 88,-439 248,-599 160,-160 373,-248 599,-248 226,0 439,88 599,248 160,160 248,373 248,599 0,226 -88,439 -248,599 -160,160 -373,248 -599,248zm194 -506c-99,85 -287,81 -385,-5 -44,-38 -72,-95 -72,-168l-56 0c0,91 35,161 91,211 52,46 125,73 200,79l0 143 56 0 0 -142c76,-4 149,-29 203,-76 87,-75 116,-215 58,-315 -18,-32 -45,-57 -76,-76 -113,-70 -270,-59 -372,-122 -80,-50 -68,-168 -2,-225 79,-67 239,-63 317,4 35,31 57,75 57,134l57 0c0,-77 -30,-136 -77,-176 -43,-37 -103,-59 -165,-65l0 -143 -56 0 0 142c-64,3 -126,24 -170,61 -96,82 -104,246 9,316 109,67 267,57 373,122 23,15 43,33 56,56 44,76 20,188 -46,245zm445 -979c-171,-171 -398,-265 -639,-265 -241,0 -468,94 -639,265 -170,170 -264,397 -264,638 0,241 94,468 264,639 171,170 398,264 639,264 241,0 468,-94 639,-264 170,-171 264,-398 264,-639 0,-241 -94,-468 -264,-638z"/>
  <rect class="fil1" width="3200" height="3200"/>
 </g>
</svg>
