<?xml version="1.0" encoding="UTF-8"?>
<!DOCTYPE svg PUBLIC "-//W3C//DTD SVG 1.1//EN" "http://www.w3.org/Graphics/SVG/1.1/DTD/svg11.dtd">
<!-- Creator: CorelDRAW X7 -->
<svg xmlns="http://www.w3.org/2000/svg" xml:space="preserve" width="100%" height="100%" version="1.1" style="shape-rendering:geometricPrecision; text-rendering:geometricPrecision; image-rendering:optimizeQuality; fill-rule:evenodd; clip-rule:evenodd"
viewBox="0 0 854115 97197"
 xmlns:xlink="http://www.w3.org/1999/xlink">
 <defs>
  <style type="text/css">
   <![CDATA[
    .fil2 {fill:#D2AE6D}
    .fil0 {fill:#A6B7DE}
    .fil1 {fill:#6C87C3}
   ]]>
  </style>
 </defs>
 <g id="Layer_x0020_1">
  <metadata id="CorelCorpID_0Corel-Layer"/>
  <g id="_2514764178816">
   <g>
    <polygon class="fil0" points="369176,0 349737,19439 369176,19439 388616,19439 408055,19439 427495,0 408055,0 388616,0 "/>
    <polygon class="fil0" points="408055,38879 388616,38879 369176,38879 369176,38879 369176,38879 349737,58318 369176,58318 369176,58318 388616,58318 408055,58318 "/>
    <polygon class="fil1" points="388616,97197 408055,77758 408055,58318 388616,58318 388616,77758 "/>
    <polygon class="fil1" points="349737,77758 349737,58318 369176,58318 369176,77758 349737,97197 "/>
    <polygon class="fil1" points="369176,19439 349737,19439 349737,38879 349737,58318 369176,38879 "/>
    <polygon class="fil1" points="427495,0 427495,19439 427495,38879 427495,38879 408055,58318 408055,38879 408055,38879 408055,19439 "/>
   </g>
   <polygon class="fil1" points="562610,77714 562624,14 543199,19439 543185,77714 543185,97139 "/>
   <polygon class="fil0" points="233100,14 213675,14 194250,14 174825,14 155400,19439 174825,19439 194250,19439 213675,19439 "/>
   <polygon class="fil0" points="174825,38864 155400,58289 174825,58289 194250,58289 213675,58289 233100,38864 213675,38864 194250,38864 "/>
   <polygon class="fil1" points="155400,58289 174825,38864 174825,19439 155400,19439 155400,38864 "/>
   <path class="fil0" d="M194250 77714l-19425 0 0 19425 19425 0 19425 0 19425 -19425 -19425 0 -19425 0zm-38850 19425l19425 0 0 -19425 -19425 19425z"/>
   <polygon class="fil1" points="233100,77714 233100,38864 213675,58289 213675,77714 213675,97139 "/>
   <polygon class="fil0" points="330312,0 310872,0 291433,0 271993,0 252554,19439 271993,19439 291433,19439 310872,19439 "/>
   <polygon class="fil1" points="271993,19439 252554,19439 252554,38879 252554,38879 252554,58318 252554,58318 252554,77758 252554,97197 271993,77758 271993,58318 252554,58318 271993,38879 271993,38879 "/>
   <polygon class="fil0" points="271993,38879 252554,58318 271993,58318 291433,58318 310872,58318 330312,38879 310872,38879 291433,38879 "/>
   <polygon class="fil0" points="271993,77758 252554,97197 271993,97197 291433,97197 310872,97197 330312,77758 310872,77758 291433,77758 "/>
   <polygon class="fil0" points="523775,0 504336,0 484896,0 465457,0 446017,19439 465457,19439 484896,19439 504336,19439 "/>
   <polygon class="fil1" points="465457,19439 446017,19439 446017,38879 446017,38879 446017,58318 446017,58318 446017,77758 446017,97197 465457,77758 465457,58318 446017,58318 465457,38879 465457,38879 "/>
   <polygon class="fil0" points="465457,38879 446017,58318 465457,58318 484896,58318 504336,58318 523775,38879 504336,38879 484896,38879 "/>
   <polygon class="fil0" points="465457,77758 446017,97197 465457,97197 484896,97197 504336,97197 523775,77758 504336,77758 484896,77758 "/>
   <polygon class="fil0" points="562624,14 543185,19454 562624,19454 582064,19454 601503,19454 620943,14 601503,14 582064,14 "/>
   <polygon class="fil1" points="620928,77772 620928,14 601503,19439 601503,77772 601503,97197 "/>
   <polygon class="fil0" points="854115,0 834676,0 815236,0 795797,0 776357,19439 795797,19439 815236,19439 834676,19439 "/>
   <polygon class="fil1" points="795797,19439 776357,19439 776357,38879 776357,38879 776357,58318 776357,58318 776357,77758 776357,97197 795797,77758 795797,58318 776357,58318 795797,38879 795797,38879 "/>
   <polygon class="fil0" points="795797,38879 776357,58318 795797,58318 815236,58318 834676,58318 854115,38879 834676,38879 815236,38879 "/>
   <polygon class="fil1" points="854101,38864 854101,14 834676,19439 834676,38864 834676,58289 "/>
   <polygon class="fil1" points="659763,77714 659777,14 640352,19439 640338,77714 640338,97139 "/>
   <polygon class="fil0" points="640345,14 640338,19454 659777,19454 679217,19454 718068,19454 698656,14 679217,14 "/>
   <polygon class="fil0" points="659777,77758 640338,97197 659777,97197 679217,97197 698656,97197 718096,77758 698656,77758 679217,77758 "/>
   <polygon class="fil1" points="756931,77772 756931,14 737506,19439 737506,77772 737506,97197 "/>
   <path class="fil2" d="M77700 77714l0 19425 -77700 0 0 -19425 77700 0zm-77700 -58275l0 -19425c38850,0 77700,0 116550,0l-19425 19425c-32375,0 -64750,0 -97125,0zm116550 19425c0,19425 0,38850 0,58275l-19425 0 0 -38850 0 0 -97125 0 0 -19425c38850,0 77700,0 116550,0z"/>
   <polygon class="fil1" points="718068,77772 718068,19454 698643,19439 698643,97197 "/>
  </g>
 </g>
</svg>
