<?xml version="1.0" encoding="UTF-8"?>
<!DOCTYPE svg PUBLIC "-//W3C//DTD SVG 1.1//EN" "http://www.w3.org/Graphics/SVG/1.1/DTD/svg11.dtd">
<!-- Creator: CorelDRAW X7 -->
<svg xmlns="http://www.w3.org/2000/svg" xml:space="preserve" width="100%" height="100%" version="1.1" style="shape-rendering:geometricPrecision; text-rendering:geometricPrecision; image-rendering:optimizeQuality; fill-rule:evenodd; clip-rule:evenodd"
viewBox="0 0 16256 9144"
 xmlns:xlink="http://www.w3.org/1999/xlink">
 <defs>
  <style type="text/css">
   <![CDATA[
    .str0 {stroke:#6F5F84;stroke-width:7.62}
    .fil2 {fill:none}
    .fil0 {fill:#F4DDB5}
    .fil16 {fill:#6F5F84;fill-rule:nonzero}
    .fil20 {fill:#7BA8D9;fill-rule:nonzero}
    .fil19 {fill:#80ABD5;fill-rule:nonzero}
    .fil15 {fill:#8480BC;fill-rule:nonzero}
    .fil14 {fill:#866E93;fill-rule:nonzero}
    .fil9 {fill:#8A9DCF;fill-rule:nonzero}
    .fil21 {fill:#918DC3;fill-rule:nonzero}
    .fil12 {fill:#9BBBE2;fill-rule:nonzero}
    .fil18 {fill:#B9C0C9;fill-rule:nonzero}
    .fil10 {fill:#C7DDD4;fill-rule:nonzero}
    .fil13 {fill:#CDDDF0;fill-rule:nonzero}
    .fil17 {fill:#CEC8C3;fill-rule:nonzero}
    .fil1 {fill:#D2AE6D;fill-rule:nonzero}
    .fil8 {fill:#E0C69A;fill-rule:nonzero}
    .fil4 {fill:#E2C38E;fill-rule:nonzero}
    .fil6 {fill:#E9CEA1;fill-rule:nonzero}
    .fil7 {fill:#E9D2B5;fill-rule:nonzero}
    .fil3 {fill:#EACAA3;fill-rule:nonzero}
    .fil5 {fill:#ECD2AE;fill-rule:nonzero}
    .fil11 {fill:white;fill-rule:nonzero}
   ]]>
  </style>
    <clipPath id="id0">
     <path d="M0 0l16256 0 0 9144 -16256 0 0 -9144z"/>
    </clipPath>
 </defs>
 <g id="Layer_x0020_1">
  <metadata id="CorelCorpID_0Corel-Layer"/>
  <g id="_2354562772656">
   <polygon class="fil0" points="0,0 16256,0 16256,9144 0,9144 "/>
   <g style="clip-path:url(#id0)">
    <g>
     <g>
      <path id="1" class="fil1" d="M10894 8044l5 0c6,0 6,10 0,10l-5 0c-6,0 -6,-10 0,-10z"/>
      <path class="fil1" d="M11222 7193c12,0 12,20 0,20 -13,0 -13,-20 0,-20z"/>
      <path class="fil1" d="M10143 5495c13,0 13,20 0,20 -12,0 -12,-20 0,-20z"/>
      <path class="fil1" d="M13781 5818c13,0 13,19 0,19 -13,0 -13,-19 0,-19z"/>
      <path class="fil1" d="M12280 5646c12,0 12,20 0,20 -13,0 -13,-20 0,-20z"/>
      <path class="fil1" d="M11678 4541c4,-4 7,-7 10,-10 9,-9 23,5 14,14 -3,3 -7,6 -10,10 -9,9 -23,-5 -14,-14z"/>
      <path class="fil1" d="M15111 4427l0 -10c0,-13 20,-13 20,0l0 10c0,12 -20,12 -20,0z"/>
      <path class="fil1" d="M13672 4474c3,10 7,20 10,30 4,12 -15,17 -19,5 -3,-10 -7,-20 -10,-30 -4,-12 15,-17 19,-5z"/>
      <path class="fil1" d="M11760 3220c7,4 14,7 20,10 12,6 2,23 -10,17 -6,-3 -13,-7 -20,-10 -11,-6 -1,-22 10,-17z"/>
      <path class="fil1" d="M10197 7305c-3,-3 -7,-6 -10,-10 -9,-9 5,-22 14,-13 3,3 6,6 10,10 9,9 -5,22 -14,13z"/>
      <path class="fil1" d="M10345 7138l10 0c13,0 13,19 0,19l-10 0c-13,0 -13,-19 0,-19z"/>
      <path class="fil1" d="M10449 7376c-3,-3 -7,-7 -10,-10 -9,-9 5,-23 14,-14 3,3 6,7 10,10 9,9 -5,23 -14,14z"/>
      <path class="fil1" d="M13569 7662c13,0 13,19 0,19 -12,0 -12,-19 0,-19z"/>
      <path class="fil1" d="M13983 4810c12,0 12,20 0,20 -13,0 -13,-20 0,-20z"/>
      <path class="fil1" d="M13630 3591c12,0 12,19 0,19 -13,0 -13,-19 0,-19z"/>
      <path class="fil1" d="M10416 3581c12,0 12,19 0,19 -13,0 -13,-19 0,-19z"/>
      <path class="fil1" d="M10345 2916c13,0 13,19 0,19 -13,0 -13,-19 0,-19z"/>
      <path class="fil1" d="M9801 3510c12,0 12,20 0,20 -13,0 -13,-20 0,-20z"/>
      <path class="fil1" d="M10607 6346c6,0 6,10 0,10 -6,0 -6,-10 0,-10z"/>
      <path class="fil1" d="M11635 6488c6,0 6,9 0,9 -7,0 -7,-9 0,-9z"/>
      <path class="fil1" d="M12517 7137l0 -10c0,-6 9,-6 9,0l0 10c0,7 -9,7 -9,0z"/>
      <path class="fil1" d="M14432 5048c4,-3 7,-7 11,-10 4,-5 11,2 6,7 -3,3 -6,7 -10,10 -4,4 -11,-2 -7,-7z"/>
      <path class="fil1" d="M15323 5077c6,0 6,10 0,10 -7,0 -7,-10 0,-10z"/>
      <path class="fil1" d="M16740 4847c3,-4 7,-7 10,-11 4,-4 11,3 7,7l-10 10c-5,5 -12,-2 -7,-6z"/>
      <path class="fil1" d="M16713 3706c6,0 7,10 0,10 -6,0 -6,-10 0,-10z"/>
      <path class="fil1" d="M15125 2751c3,3 6,6 10,10 4,4 -3,11 -7,7 -4,-4 -7,-7 -10,-10 -5,-5 2,-12 7,-7z"/>
      <path class="fil1" d="M15511 3695c-4,-4 -7,-7 -10,-10 -5,-5 2,-12 7,-7 3,3 6,6 10,10 4,4 -3,11 -7,7z"/>
      <path class="fil1" d="M14688 3797c6,0 6,10 0,10 -6,0 -6,-10 0,-10z"/>
      <path class="fil1" d="M12820 4329c-3,-3 -6,-6 -10,-10 -4,-4 3,-11 7,-7 3,4 7,7 10,11 5,4 -2,11 -7,6z"/>
      <path class="fil1" d="M12058 5228c6,0 6,10 0,10 -6,0 -6,-10 0,-10z"/>
      <path class="fil1" d="M11262 5560c6,0 6,10 0,10 -6,0 -6,-10 0,-10z"/>
      <path class="fil1" d="M11433 5198c7,0 7,10 0,10 -6,0 -6,-10 0,-10z"/>
      <path class="fil1" d="M12814 5213c12,0 12,20 0,20 -13,0 -13,-20 0,-20z"/>
      <path class="fil1" d="M12834 5445c12,0 12,19 0,19 -13,0 -13,-19 0,-19z"/>
      <path class="fil1" d="M12159 5223c12,0 12,20 0,20 -13,0 -13,-20 0,-20z"/>
      <path class="fil1" d="M11222 5707c12,0 12,19 0,19 -13,0 -13,-19 0,-19z"/>
      <path class="fil1" d="M11725 6140c13,0 13,20 0,20 -12,0 -12,-20 0,-20z"/>
      <path class="fil1" d="M12179 6392c12,0 12,20 0,20 -13,0 -13,-20 0,-20z"/>
      <path class="fil1" d="M12159 6805c12,0 12,20 0,20 -13,0 -13,-20 0,-20z"/>
      <path class="fil1" d="M11393 6674l0 -10c0,-13 20,-13 20,0l0 10c0,12 -20,12 -20,0z"/>
      <path class="fil1" d="M10738 6604l10 0c13,0 13,19 0,19l-10 0c-13,0 -13,-19 0,-19z"/>
      <path class="fil1" d="M11668 7805c3,-3 7,-6 10,-10 9,-9 23,5 14,14 -3,4 -7,7 -10,10 -9,9 -23,-5 -14,-14z"/>
      <path class="fil1" d="M13197 8215l0 -10c0,-12 19,-12 19,0l0 10c0,13 -19,13 -19,0z"/>
      <path class="fil1" d="M13428 6442c13,0 13,20 0,20 -12,0 -12,-20 0,-20z"/>
      <path class="fil1" d="M12773 6342c13,0 13,19 0,19 -12,0 -12,-19 0,-19z"/>
      <path class="fil1" d="M10879 5182l0 -10c0,-12 20,-12 20,0l0 10c0,13 -20,13 -20,0z"/>
      <path class="fil1" d="M11222 5022l10 0c12,0 12,19 0,19l-10 0c-13,0 -13,-19 0,-19z"/>
      <path class="fil1" d="M12202 4061c-3,-3 -7,-7 -10,-10 -9,-9 5,-23 14,-14 3,3 7,7 10,10 9,9 -5,23 -14,14z"/>
      <path class="fil1" d="M12411 4437c12,0 12,20 0,20 -13,0 -13,-20 0,-20z"/>
      <path class="fil1" d="M13398 4679c13,0 13,20 0,20 -13,0 -13,-20 0,-20z"/>
      <path class="fil1" d="M13650 5052c13,0 13,19 0,19 -13,0 -13,-19 0,-19z"/>
      <path class="fil1" d="M13439 5364l0 -10c0,-13 19,-13 19,0l0 10c0,12 -19,12 -19,0z"/>
      <path class="fil1" d="M14577 5394c13,0 13,20 0,20 -13,0 -13,-20 0,-20z"/>
      <path class="fil1" d="M14174 3157l0 10c0,13 -20,13 -20,0l0 -10c0,-12 20,-12 20,0z"/>
      <path class="fil1" d="M13529 2664l10 0c13,0 13,19 0,19l-10 0c-13,0 -13,-19 0,-19z"/>
      <path class="fil1" d="M12401 2724l10 0c12,0 12,20 0,20l-10 0c-13,0 -13,-20 0,-20z"/>
      <path class="fil1" d="M12602 3480l10 0c13,0 13,19 0,19l-10 0c-13,0 -13,-19 0,-19z"/>
      <path class="fil1" d="M11272 4004c13,0 13,19 0,19 -13,0 -13,-19 0,-19z"/>
      <path class="fil1" d="M10607 4457c13,0 13,20 0,20 -13,0 -13,-20 0,-20z"/>
      <path class="fil1" d="M10164 6206c19,0 19,29 0,29 -19,0 -19,-29 0,-29z"/>
      <path class="fil1" d="M10975 7057l0 -10c0,-8 7,-15 15,-15 8,0 15,6 15,15l0 10c0,7 -7,15 -15,14 -8,0 -15,-6 -15,-14z"/>
      <path class="fil1" d="M11808 6590c7,-4 14,-7 20,-11 7,-3 16,-1 20,6 4,6 2,16 -5,20 -7,3 -13,7 -20,10 -7,4 -16,2 -20,-5 -4,-7 -2,-17 5,-20z"/>
      <path class="fil1" d="M11000 5813c19,0 19,29 0,29 -19,0 -19,-29 0,-29z"/>
      <path class="fil1" d="M11826 5742c19,0 19,30 0,30 -19,0 -19,-30 0,-30z"/>
      <path class="fil1" d="M13297 7042c19,0 19,29 0,29 -19,0 -19,-29 0,-29z"/>
      <path class="fil1" d="M15262 5168c19,0 19,29 0,29 -19,0 -19,-29 0,-29z"/>
      <path class="fil1" d="M14441 4205l0 -10c0,-8 7,-15 15,-15 8,1 15,7 15,15l0 10c0,8 -7,15 -15,15 -8,-1 -15,-7 -15,-15z"/>
      <path class="fil1" d="M11524 3973l0 -5c0,-25 40,-25 40,0l0 5c0,26 -40,26 -40,0l0 -5c0,-25 40,-25 40,0l0 5c0,26 -40,26 -40,0z"/>
      <path class="fil1" d="M12128 3541c26,0 26,39 0,39 -25,0 -25,-39 0,-39z"/>
      <path class="fil1" d="M14849 3712c25,0 25,39 0,39 -25,0 -25,-39 0,-39z"/>
      <path class="fil1" d="M12753 7501c25,0 25,39 0,39 -25,0 -25,-39 0,-39z"/>
      <path class="fil1" d="M13485 6043c-3,-4 -7,-7 -10,-10 -7,-8 -8,-21 0,-28 8,-7 20,-8 28,0 3,3 6,7 10,10 7,7 7,21 0,28 -8,7 -20,7 -28,0z"/>
      <path class="fil1" d="M10597 2543c12,0 13,19 0,19 -13,0 -13,-19 0,-19z"/>
      <path class="fil1" d="M11101 2583c12,0 12,20 0,20 -13,0 -13,-20 0,-20z"/>
      <path class="fil1" d="M11514 2321c12,0 12,20 0,20 -13,0 -13,-20 0,-20z"/>
      <path class="fil1" d="M11242 1878c12,0 12,19 0,19 -13,0 -13,-19 0,-19z"/>
      <path class="fil1" d="M10788 2120c13,0 13,19 0,19 -12,0 -12,-19 0,-19z"/>
      <path class="fil1" d="M10929 2392c13,0 13,19 0,19 -12,0 -12,-19 0,-19z"/>
      <path class="fil1" d="M10788 2613c13,0 13,20 0,20 -12,0 -12,-20 0,-20z"/>
      <path class="fil1" d="M9871 2724c13,0 13,20 0,20 -12,0 -12,-20 0,-20z"/>
      <path class="fil1" d="M9750 4095c13,0 13,19 0,19 -12,0 -12,-19 0,-19z"/>
      <path class="fil1" d="M10002 4246c13,0 13,19 0,19 -12,0 -12,-19 0,-19z"/>
      <path class="fil1" d="M10204 4357c13,0 13,19 0,19 -13,0 -13,-19 0,-19z"/>
      <path class="fil1" d="M10083 4608c13,0 13,20 0,20 -13,0 -13,-20 0,-20z"/>
      <path class="fil1" d="M10295 4981c12,0 12,20 0,20 -13,0 -13,-20 0,-20z"/>
      <path class="fil1" d="M16149 4336l10 0c13,0 13,20 0,20l-10 0c-13,0 -13,-20 0,-20z"/>
      <path class="fil1" d="M16250 4709c12,0 12,20 0,20 -13,0 -13,-20 0,-20z"/>
      <path class="fil1" d="M16240 5253c12,0 12,20 0,20 -13,0 -13,-20 0,-20z"/>
      <path class="fil1" d="M16492 6069c12,0 12,20 0,20 -13,0 -13,-20 0,-20z"/>
      <path class="fil1" d="M16411 6553c13,0 13,20 0,20 -13,0 -13,-20 0,-20z"/>
      <path class="fil1" d="M12229 7641l10 0c13,0 13,20 0,20l-10 0c-12,0 -12,-20 0,-20z"/>
      <path class="fil1" d="M11141 7682c13,0 13,19 0,19 -13,0 -13,-19 0,-19z"/>
      <path class="fil1" d="M11215 7967c3,-4 6,-7 10,-10 9,-9 23,5 14,13 -4,4 -7,7 -10,11 -9,8 -23,-5 -14,-14z"/>
      <path class="fil1" d="M10103 7853c13,0 13,20 0,20 -12,0 -12,-20 0,-20z"/>
      <path class="fil1" d="M10627 7692c13,0 13,19 0,19 -12,0 -12,-19 0,-19z"/>
      <path class="fil1" d="M11806 7158c13,0 13,19 0,19 -13,0 -13,-19 0,-19z"/>
      <path class="fil1" d="M11836 7440c13,0 13,19 0,19 -12,0 -12,-19 0,-19z"/>
      <path class="fil1" d="M13288 7329l0 -10c0,-13 19,-13 19,0l0 10c0,12 -19,12 -19,0z"/>
      <path class="fil1" d="M13680 7127c13,0 13,20 0,20 -12,0 -12,-20 0,-20z"/>
      <path class="fil1" d="M13710 3168c13,0 13,19 0,19 -12,0 -12,-19 0,-19z"/>
      <path class="fil1" d="M13398 3117c13,0 13,20 0,20 -13,0 -13,-20 0,-20z"/>
      <path class="fil1" d="M12673 2533c12,0 12,19 0,19 -13,0 -13,-19 0,-19z"/>
      <path class="fil1" d="M12512 2260l0 -10c0,-12 19,-12 19,0l0 10c0,13 -19,13 -19,0z"/>
      <path class="fil1" d="M12394 2388c-4,-3 -7,-7 -10,-10 -9,-9 4,-23 13,-14 4,4 7,7 10,10 9,9 -4,23 -13,14z"/>
      <path class="fil1" d="M12451 2492c13,0 13,20 0,20 -13,0 -13,-20 0,-20z"/>
      <path class="fil1" d="M12179 2522l0 -10c0,-12 20,-12 20,0l0 10c0,13 -20,13 -20,0z"/>
      <path class="fil1" d="M12196 2687c3,3 7,6 10,10 9,9 -5,23 -14,14 -3,-4 -7,-7 -10,-10 -9,-9 5,-23 14,-14z"/>
      <path class="fil1" d="M12521 2895l11 0c12,0 12,20 0,20l-11 0c-12,0 -12,-20 0,-20z"/>
      <path class="fil1" d="M12703 2724c12,0 12,20 0,20 -13,0 -13,-20 0,-20z"/>
      <path class="fil1" d="M13831 2311c13,0 13,20 0,20 -12,0 -12,-20 0,-20z"/>
      <path class="fil1" d="M14164 2502c12,0 13,20 0,20 -13,0 -13,-20 0,-20z"/>
      <path class="fil1" d="M14355 2754c13,0 13,20 0,20 -12,0 -12,-20 0,-20z"/>
      <path class="fil1" d="M12743 3228c13,0 13,20 0,20 -12,0 -12,-20 0,-20z"/>
      <path class="fil1" d="M12955 3550c12,0 12,20 0,20 -13,0 -13,-20 0,-20z"/>
      <path class="fil1" d="M12713 3883c13,0 13,20 0,20 -13,0 -13,-20 0,-20z"/>
      <path class="fil1" d="M11457 3527c-4,-4 -7,-7 -11,-10 -8,-9 5,-23 14,-14 4,3 7,7 10,10 9,9 -5,23 -13,14z"/>
      <path class="fil1" d="M10929 3168c13,0 13,19 0,19 -12,0 -12,-19 0,-19z"/>
      <path class="fil1" d="M10822 3594c3,-4 6,-7 10,-10 9,-9 23,4 14,13 -4,4 -7,7 -10,10 -9,9 -23,-4 -14,-13z"/>
      <path class="fil1" d="M10808 3893c13,0 13,20 0,20 -12,0 -12,-20 0,-20z"/>
      <path class="fil1" d="M16326 3087c6,4 13,7 20,10 11,6 1,23 -10,17 -7,-3 -13,-7 -20,-10 -11,-6 -2,-23 10,-17z"/>
      <path class="fil1" d="M15968 3470l10 0c12,0 12,19 0,19l-10 0c-13,0 -13,-19 0,-19z"/>
      <path class="fil1" d="M15655 3137l0 -10c0,-13 20,-13 20,0l0 10c0,13 -20,13 -20,0z"/>
      <path class="fil1" d="M15131 3329c13,0 13,19 0,19 -12,0 -12,-19 0,-19z"/>
      <path class="fil1" d="M16048 3974c13,0 13,19 0,19 -12,0 -12,-19 0,-19z"/>
      <path class="fil1" d="M15404 4205l0 -10c0,-13 19,-13 19,0l0 10c0,13 -19,13 -19,0z"/>
      <path class="fil1" d="M15161 4810c13,0 13,20 0,20 -12,0 -12,-20 0,-20z"/>
      <path class="fil1" d="M15837 5304c12,0 12,19 0,19 -13,0 -13,-19 0,-19z"/>
      <path class="fil1" d="M15749 5673c-3,-3 -7,-7 -10,-10 -9,-9 5,-23 14,-14 3,4 7,7 10,10 9,9 -5,23 -14,14z"/>
      <path class="fil1" d="M12471 6855c13,0 13,20 0,20 -13,0 -13,-20 0,-20z"/>
      <path class="fil1" d="M12723 6674c13,0 13,20 0,20 -13,0 -13,-20 0,-20z"/>
      <path class="fil1" d="M10376 6160l0 -10c0,-13 19,-13 19,0l0 10c0,12 -19,13 -19,0z"/>
      <path class="fil1" d="M10375 5838c13,0 13,19 0,19 -12,0 -12,-19 0,-19z"/>
      <path class="fil1" d="M10919 6110c13,0 13,19 0,19 -12,0 -12,-19 0,-19z"/>
      <path class="fil1" d="M10399 6509c-4,-3 -7,-6 -11,-10 -8,-9 5,-22 14,-14 4,4 7,7 10,11 9,8 -5,22 -13,13z"/>
      <path class="fil1" d="M10063 6553c12,0 12,20 0,20 -13,0 -13,-20 0,-20z"/>
      <path class="fil1" d="M16703 5808c13,0 13,19 0,19 -12,0 -13,-19 0,-19z"/>
      <path class="fil1" d="M16824 6473c13,0 13,19 0,19 -13,0 -13,-19 0,-19z"/>
      <path class="fil1" d="M9791 6206c19,0 19,29 0,29 -19,0 -19,-29 0,-29z"/>
      <path class="fil1" d="M9867 6764l0 -10c0,-7 7,-15 14,-14 8,0 15,6 15,14l0 10c0,8 -7,16 -15,15 -7,0 -14,-6 -14,-15z"/>
      <path class="fil1" d="M9761 4966c18,0 18,30 0,30 -19,0 -19,-30 0,-30z"/>
      <path class="fil1" d="M9579 5480c19,0 19,30 0,30 -19,0 -19,-30 0,-30z"/>
      <path class="fil1" d="M10335 5138c19,0 19,29 0,29 -19,0 -19,-29 0,-29z"/>
      <path class="fil1" d="M10476 5490c19,0 19,30 0,30 -19,0 -19,-30 0,-30z"/>
      <path class="fil1" d="M11172 5243c3,3 6,6 10,10 5,5 5,15 0,20 -6,6 -16,6 -21,0 -3,-3 -7,-6 -10,-10 -6,-5 -6,-15 0,-20 5,-6 15,-6 21,0z"/>
      <path class="fil1" d="M10859 5561c19,0 19,29 0,29 -19,0 -19,-29 0,-29z"/>
      <path class="fil1" d="M11252 6165l10 0c8,0 15,7 15,15 -1,8 -7,15 -15,15l-10 0c-8,0 -15,-7 -15,-15 1,-8 7,-15 15,-15z"/>
      <path class="fil1" d="M11343 5893c18,0 18,30 0,30 -19,0 -19,-30 0,-30z"/>
      <path class="fil1" d="M12199 6085c19,0 19,29 0,29 -19,0 -19,-29 0,-29z"/>
      <path class="fil1" d="M11776 4150l10 0c8,0 15,7 15,15 -1,8 -7,14 -15,14l-10 0c-8,0 -15,-6 -15,-14 0,-8 7,-15 15,-15z"/>
      <path class="fil1" d="M13186 4251l11 0c7,0 15,7 14,15 0,8 -6,14 -14,14l-11 0c-7,0 -15,-7 -14,-14 0,-8 6,-15 14,-15z"/>
      <path class="fil1" d="M13881 4105c-3,-4 -6,-7 -10,-10 -5,-6 -5,-16 0,-21 6,-6 16,-6 21,0 3,3 7,7 10,10 6,5 6,15 0,21 -5,5 -15,5 -21,0z"/>
      <path class="fil1" d="M14577 4644c19,0 19,29 0,29 -19,0 -19,-29 0,-29z"/>
      <path class="fil1" d="M14804 4971l0 -10c0,-8 7,-15 15,-15 8,0 15,7 15,15l0 10c0,8 -7,15 -15,15 -8,-1 -15,-7 -15,-15z"/>
      <path class="fil1" d="M16310 5037c19,0 19,29 0,29 -19,0 -19,-29 0,-29z"/>
      <path class="fil1" d="M16441 3892c4,4 7,7 11,10 5,6 5,16 0,21 -6,6 -16,6 -21,0 -4,-3 -7,-6 -10,-10 -6,-5 -6,-15 0,-21 5,-5 15,-5 20,0z"/>
      <path class="fil1" d="M15413 2911c19,0 19,29 0,29 -19,0 -19,-29 0,-29z"/>
      <path class="fil1" d="M14849 2326l10 0c8,0 15,7 15,15 -1,8 -7,15 -15,15l-10 0c-8,0 -15,-7 -15,-15 1,-8 7,-15 15,-15z"/>
      <path class="fil1" d="M14295 2125c19,0 19,29 0,29 -19,0 -19,-29 0,-29z"/>
      <path class="fil1" d="M13620 1913l10 0c8,0 15,7 15,15 -1,8 -7,15 -15,15l-10 0c-8,0 -15,-7 -15,-15 0,-8 7,-15 15,-15z"/>
      <path class="fil1" d="M13529 2236c19,0 19,29 0,29 -19,0 -19,-29 0,-29z"/>
      <path class="fil1" d="M13358 2326c19,0 19,30 0,30 -19,0 -19,-30 0,-30z"/>
      <path class="fil1" d="M13771 7586c19,0 19,29 0,29 -19,0 -19,-29 0,-29z"/>
      <path class="fil1" d="M13267 7737c19,0 19,30 0,30 -19,0 -19,-30 0,-30z"/>
      <path class="fil1" d="M12864 7757c19,0 19,30 0,30 -19,0 -19,-30 0,-30z"/>
      <path class="fil1" d="M12461 7379c4,3 7,7 10,10 6,5 6,15 0,21 -5,5 -15,5 -20,0 -4,-4 -7,-7 -10,-10 -6,-6 -6,-16 0,-21 5,-6 15,-6 20,0z"/>
      <path class="fil1" d="M12773 7248c-3,-3 -7,-6 -10,-10 -6,-5 -6,-15 0,-20 6,-6 15,-6 21,0 3,3 6,6 10,10 5,5 5,15 0,20 -6,6 -15,6 -21,0z"/>
      <path class="fil1" d="M13076 7113c19,0 19,29 0,29 -19,0 -19,-29 0,-29z"/>
      <path class="fil1" d="M12854 6901c19,0 19,29 0,29 -19,0 -19,-29 0,-29z"/>
      <path class="fil1" d="M13202 6654l0 -10c0,-8 7,-15 15,-15 8,0 14,6 14,15l0 10c0,7 -6,15 -14,14 -8,0 -15,-6 -15,-14z"/>
      <path class="fil1" d="M13559 6760c19,0 19,29 0,29 -19,0 -19,-29 0,-29z"/>
      <path class="fil1" d="M13519 6901c19,0 19,29 0,29 -19,0 -19,-29 0,-29z"/>
      <path class="fil1" d="M13781 6533c-4,-3 -7,-7 -10,-10 -6,-6 -6,-15 0,-21 5,-5 15,-5 20,0 4,4 7,7 10,10 6,6 6,15 0,21 -5,6 -15,6 -20,0z"/>
      <path class="fil1" d="M11655 2760c19,0 19,29 0,29 -19,0 -19,-29 0,-29z"/>
      <path class="fil1" d="M11786 2457c19,0 19,30 0,30 -19,0 -19,-30 0,-30z"/>
      <path class="fil1" d="M12043 2240l0 -10c0,-8 7,-15 15,-15 8,1 15,7 15,15l0 10c0,8 -7,15 -15,15 -8,0 -15,-7 -15,-15z"/>
      <path class="fil1" d="M10395 2377c19,0 19,29 0,29 -19,0 -19,-29 0,-29z"/>
      <path class="fil1" d="M10143 2528c19,0 19,29 0,29 -18,0 -18,-29 0,-29z"/>
      <path class="fil1" d="M10002 3142c19,0 19,30 0,30 -19,0 -19,-30 0,-30z"/>
      <path class="fil1" d="M10536 3217c3,-3 7,-6 10,-10 6,-5 15,-5 21,0 6,6 6,15 0,21 -3,3 -7,7 -10,10 -6,6 -15,6 -21,0 -6,-6 -6,-15 0,-21z"/>
      <path class="fil1" d="M10526 3001c19,0 19,30 0,30 -19,0 -19,-30 0,-30z"/>
      <path class="fil1" d="M10274 3223c19,0 19,29 0,29 -18,0 -18,-29 0,-29z"/>
      <path class="fil1" d="M10133 3959c19,0 19,29 0,29 -19,0 -19,-29 0,-29z"/>
      <path class="fil1" d="M10557 4160c18,0 19,30 0,30 -19,0 -19,-30 0,-30z"/>
      <path class="fil1" d="M14658 3112l10 0c7,0 15,7 14,15 0,8 -6,15 -14,15l-10 0c-8,0 -15,-7 -15,-15 0,-8 6,-15 15,-15z"/>
      <path class="fil1" d="M14889 2860c19,0 19,30 0,30 -19,0 -19,-30 0,-30z"/>
      <path class="fil1" d="M15232 2880c19,0 19,30 0,30 -19,0 -19,-30 0,-30z"/>
      <path class="fil1" d="M15423 3173c19,0 19,29 0,29 -18,0 -19,-29 0,-29z"/>
      <path class="fil1" d="M10657 5858c26,0 26,39 0,39 -25,0 -25,-39 0,-39z"/>
      <path class="fil1" d="M10870 6442l0 -10c0,-10 9,-20 19,-20 11,1 20,9 20,20l0 10c0,10 -9,20 -20,20 -11,-1 -19,-9 -19,-20z"/>
      <path class="fil1" d="M11222 6795c25,0 25,39 0,39 -26,0 -26,-39 0,-39z"/>
      <path class="fil1" d="M15051 5354c25,0 25,40 0,40 -26,0 -26,-40 0,-40z"/>
      <path class="fil1" d="M14714 3516c4,-3 7,-7 10,-10 8,-7 21,-8 28,0 7,8 8,20 0,28 -3,3 -7,6 -10,10 -7,7 -21,8 -28,0 -7,-8 -7,-20 0,-28z"/>
      <path class="fil1" d="M14335 3645c6,3 13,7 20,10 9,5 12,18 7,27 -6,9 -17,12 -27,7 -7,-3 -14,-7 -20,-10 -9,-5 -13,-18 -7,-27 6,-9 17,-12 27,-7z"/>
      <path class="fil1" d="M9317 4992c25,0 25,39 0,39 -25,0 -25,-39 0,-39z"/>
      <path class="fil1" d="M9539 6009c25,0 25,39 0,39 -25,0 -25,-39 0,-39z"/>
      <path class="fil1" d="M9801 7092c19,0 19,30 0,30 -19,0 -19,-30 0,-30z"/>
      <path class="fil1" d="M10385 7566c19,0 19,29 0,29 -19,0 -19,-29 0,-29z"/>
      <path class="fil1" d="M12084 7228l0 -10c0,-8 6,-15 14,-15 8,1 15,7 15,15l0 10c0,8 -7,15 -15,15 -8,-1 -14,-7 -14,-15z"/>
      <path class="fil1" d="M12502 5968c3,3 6,7 10,10 5,6 5,15 0,21 -6,6 -15,6 -21,0 -3,-3 -7,-7 -10,-10 -6,-6 -6,-15 0,-21 5,-5 15,-5 21,0z"/>
      <path class="fil1" d="M13210 5706c0,10 15,16 19,6 1,-2 2,-5 2,-7 0,0 0,1 0,1 1,8 -7,15 -14,15 -9,0 -14,-6 -15,-15 -1,-10 9,-18 19,-18 10,0 19,8 19,18 -1,8 -7,15 -15,15 -8,-1 -15,-7 -15,-15z"/>
      <path class="fil1" d="M13710 5460c19,0 19,29 0,29 -18,0 -18,-29 0,-29z"/>
      <path class="fil1" d="M14255 5117c18,0 19,30 0,30 -19,0 -19,-30 0,-30z"/>
      <path class="fil1" d="M14315 5500c19,0 19,30 0,30 -19,0 -19,-30 0,-30z"/>
      <path class="fil1" d="M12179 1964c19,0 19,29 0,29 -19,0 -19,-29 0,-29z"/>
      <path class="fil1" d="M12611 1838c-3,-3 -7,-6 -10,-9 -6,-6 -6,-16 0,-21 6,-6 15,-6 20,0 4,3 7,6 11,9 6,6 5,16 0,21 -6,6 -15,5 -21,0z"/>
      <path class="fil1" d="M12783 2044c19,0 19,30 0,30 -18,0 -18,-30 0,-30z"/>
      <path class="fil1" d="M13197 2014c18,0 19,29 0,29 -19,0 -19,-29 0,-29z"/>
      <path class="fil1" d="M13126 2306c19,0 19,30 0,30 -19,0 -19,-30 0,-30z"/>
      <path class="fil1" d="M12753 2185c19,0 19,30 0,30 -19,0 -19,-30 0,-30z"/>
      <path class="fil1" d="M12219 1762c19,0 19,29 0,29 -19,0 -19,-29 0,-29z"/>
      <path class="fil1" d="M11655 1494c4,4 7,7 10,10 6,6 6,16 0,21 -5,6 -15,6 -20,0 -4,-3 -7,-7 -11,-10 -5,-6 -5,-15 0,-21 6,-5 16,-5 21,0z"/>
      <path class="fil1" d="M9982 1732c19,0 19,29 0,29 -19,0 -19,-29 0,-29z"/>
      <path class="fil1" d="M10889 1540c19,0 19,30 0,30 -19,0 -19,-30 0,-30z"/>
      <path class="fil1" d="M9609 2236c19,0 19,29 0,29 -18,0 -19,-29 0,-29z"/>
      <path class="fil1" d="M11010 2931c19,0 19,29 0,29 -19,0 -19,-29 0,-29z"/>
      <path class="fil1" d="M11332 3011c19,0 19,30 0,30 -18,0 -18,-30 0,-30z"/>
      <path class="fil1" d="M15202 3626c19,0 19,30 0,30 -19,0 -19,-30 0,-30z"/>
      <path class="fil1" d="M15303 3888c18,0 18,29 0,29 -19,0 -19,-29 0,-29z"/>
      <path class="fil1" d="M15957 3727c19,0 19,29 0,29 -18,0 -18,-29 0,-29z"/>
      <path class="fil1" d="M15776 3727c19,0 19,29 0,29 -19,0 -19,-29 0,-29z"/>
      <path class="fil1" d="M14255 4604c18,0 19,29 0,29 -19,0 -19,-29 0,-29z"/>
      <path class="fil1" d="M11796 3630c4,4 7,7 10,11 6,5 6,15 0,20 -5,6 -15,6 -20,0l-10 -10c-6,-5 -6,-15 0,-21 5,-5 15,-5 20,0z"/>
      <path class="fil1" d="M11242 4523c19,0 19,29 0,29 -19,0 -19,-29 0,-29z"/>
      <path class="fil1" d="M10808 4674c19,0 19,29 0,29 -18,0 -18,-29 0,-29z"/>
      <path class="fil1" d="M14335 5470c19,0 19,29 0,29 -19,0 -19,-29 0,-29z"/>
      <path class="fil1" d="M14834 5666l0 -10c0,-8 7,-15 15,-15 8,1 15,7 15,15l0 10c0,8 -7,15 -15,15 -8,-1 -15,-7 -15,-15z"/>
      <path class="fil1" d="M13681 8024c3,3 6,6 10,10 5,5 5,15 0,21 -6,5 -16,5 -21,0 -4,-4 -7,-7 -10,-11 -6,-5 -6,-15 0,-20 5,-6 15,-6 21,0z"/>
      <path class="fil1" d="M11534 8060c19,0 19,29 0,29 -19,0 -19,-29 0,-29z"/>
      <path class="fil1" d="M11373 7697c19,0 19,29 0,29 -19,0 -19,-29 0,-29z"/>
      <path class="fil1" d="M10778 7334l10 0c8,0 15,7 15,15 0,8 -6,15 -15,15l-10 0c-7,0 -15,-7 -14,-15 0,-8 6,-15 14,-15z"/>
      <path class="fil1" d="M9947 7470l0 -10c0,-8 7,-15 15,-15 8,0 15,7 15,15l0 10c0,7 -7,15 -15,14 -8,0 -15,-6 -15,-14z"/>
      <path class="fil1" d="M9619 7123c19,0 19,29 0,29 -18,0 -18,-29 0,-29z"/>
      <path class="fil1" d="M15323 2427c19,0 19,29 0,29 -19,0 -19,-29 0,-29z"/>
      <path class="fil1" d="M15655 2629c19,0 19,29 0,29 -19,0 -19,-29 0,-29z"/>
      <path class="fil1" d="M14889 4100c19,0 19,29 0,29 -19,0 -19,-29 0,-29z"/>
      <path class="fil1" d="M15141 4150c19,0 19,29 0,29 -19,0 -19,-29 0,-29z"/>
      <path class="fil1" d="M15403 4654c19,0 19,29 0,29 -19,0 -19,-29 0,-29z"/>
      <path class="fil1" d="M15756 4986c19,0 19,30 0,30 -19,0 -19,-30 0,-30z"/>
      <path class="fil1" d="M15585 5097c19,0 19,30 0,30 -19,0 -19,-30 0,-30z"/>
      <path class="fil1" d="M15605 5329c19,0 19,29 0,29 -19,0 -19,-29 0,-29z"/>
      <path class="fil1" d="M11131 4735c19,0 19,29 0,29 -19,0 -19,-29 0,-29z"/>
      <path class="fil1" d="M10859 4886c19,0 19,29 0,29 -19,0 -19,-29 0,-29z"/>
      <path class="fil1" d="M10496 4916l10 0c8,0 15,7 15,15 0,8 -7,14 -15,14l-10 0c-8,0 -15,-6 -15,-14 1,-8 7,-15 15,-15z"/>
      <path class="fil1" d="M10939 4433l11 0c12,0 25,11 24,24 -1,13 -11,24 -24,24l-11 0c-12,0 -25,-11 -24,-24 1,-13 11,-24 24,-24z"/>
      <path class="fil1" d="M10335 6740c31,0 31,49 0,49 -32,0 -32,-49 0,-49z"/>
      <path class="fil1" d="M10623 3510l0 -10c0,-18 16,-35 34,-35 19,1 35,16 35,35l0 10c0,18 -16,35 -35,34 -18,-1 -34,-15 -34,-34z"/>
      <path class="fil1" d="M12542 5884c44,0 44,68 0,68 -44,0 -45,-68 0,-68z"/>
      <path class="fil1" d="M9932 5884c44,0 44,68 0,68 -44,0 -44,-68 0,-68z"/>
      <path class="fil1" d="M15671 3383c-3,-3 -6,-7 -10,-10 -13,-13 -13,-36 0,-49 14,-12 35,-13 49,0 3,4 6,7 10,10 12,13 13,36 0,49 -14,12 -35,13 -49,0z"/>
      <path class="fil1" d="M14043 2176c44,0 44,68 0,68 -44,0 -44,-68 0,-68z"/>
      <path class="fil1" d="M12270 3163c44,0 44,69 0,69 -45,0 -45,-69 0,-69z"/>
      <path class="fil1" d="M14234 5622l11 0c17,0 35,16 34,34 -1,19 -15,34 -34,34l-11 0c-17,0 -35,-15 -34,-34 1,-18 15,-34 34,-34z"/>
      <path class="fil1" d="M11107 6452l0 -10c0,-18 16,-35 34,-34 19,1 34,15 34,34l0 10c0,18 -15,35 -34,34 -19,0 -34,-15 -34,-34z"/>
      <path class="fil1" d="M12128 7043c45,0 45,68 0,68 -44,0 -44,-68 0,-68z"/>
      <path class="fil1" d="M10684 5361c-3,3 -6,6 -10,10 -9,9 -22,-5 -13,-14 3,-3 6,-7 10,-10 9,-9 22,5 13,14z"/>
      <path class="fil1" d="M10678 5183c12,0 12,19 0,19 -13,0 -13,-19 0,-19z"/>
      <path class="fil1" d="M12864 2402l10 0c13,0 13,19 0,19l-10 0c-13,0 -13,-19 0,-19z"/>
      <path class="fil1" d="M9892 4367c12,0 12,19 0,19 -13,0 -13,-19 0,-19z"/>
      <path class="fil1" d="M10489 4756c-3,-3 -7,-7 -10,-10 -9,-9 5,-23 14,-14 3,4 7,7 10,10 9,9 -5,23 -14,14z"/>
      <path class="fil1" d="M13610 4185c12,0 12,20 0,20 -13,0 -13,-20 0,-20z"/>
      <path class="fil1" d="M13845 3960c-4,-3 -7,-7 -10,-10 -9,-9 4,-23 13,-14 4,4 7,7 10,10 9,9 -4,23 -13,14z"/>
      <path class="fil1" d="M13418 3822c13,0 13,20 0,20 -12,0 -12,-20 0,-20z"/>
      <path class="fil1" d="M13358 3429l0 -10c0,-12 20,-12 20,0l0 10c0,13 -20,13 -20,0z"/>
      <path class="fil1" d="M14839 4780l10 0c13,0 13,19 0,19l-10 0c-13,0 -13,-19 0,-19z"/>
      <path class="fil1" d="M15081 5052c12,0 12,19 0,19 -13,0 -13,-19 0,-19z"/>
      <path class="fil1" d="M12350 6997c13,0 13,19 0,19 -12,0 -12,-19 0,-19z"/>
      <path class="fil1" d="M12501 6986c13,0 13,20 0,20 -12,0 -12,-20 0,-20z"/>
      <path class="fil1" d="M12612 7077l10 0c13,0 13,20 0,20l-10 0c-12,0 -12,-20 0,-20z"/>
      <path class="fil1" d="M12562 7188c12,0 12,20 0,20 -13,0 -13,-20 0,-20z"/>
      <path class="fil1" d="M12370 7198c13,0 13,20 0,20 -12,0 -12,-20 0,-20z"/>
      <path class="fil1" d="M10990 6614c12,0 12,19 0,19 -13,0 -13,-19 0,-19z"/>
      <path class="fil1" d="M10798 6452c13,0 13,20 0,20 -12,0 -12,-20 0,-20z"/>
      <path class="fil1" d="M10849 6593c12,0 12,20 0,20 -13,0 -13,-20 0,-20z"/>
      <path class="fil1" d="M10950 6513c12,0 12,19 0,19 -13,0 -13,-19 0,-19z"/>
      <path class="fil1" d="M10441 6612c-7,3 -14,6 -21,10 -11,5 -21,-11 -9,-17 6,-3 13,-7 20,-10 11,-6 21,11 10,17z"/>
      <path class="fil1" d="M10194 6533c12,0 12,20 0,20 -13,0 -13,-20 0,-20z"/>
      <path class="fil1" d="M10053 5964c19,0 19,29 0,29 -19,0 -19,-29 0,-29z"/>
      <path class="fil1" d="M10063 5833c19,0 19,29 0,29 -19,0 -19,-29 0,-29z"/>
      <path class="fil1" d="M9861 6019c3,-4 7,-7 10,-11 6,-5 15,-5 21,0 5,6 5,16 0,21 -3,4 -7,7 -10,10 -6,6 -15,6 -21,0 -6,-5 -6,-15 0,-20z"/>
      <path class="fil1" d="M15816 3243c19,0 19,30 0,30 -18,0 -19,-30 0,-30z"/>
      <path class="fil1" d="M15837 3334c18,0 18,29 0,29 -19,0 -19,-29 0,-29z"/>
      <path class="fil1" d="M15957 3243c19,0 19,30 0,30 -18,0 -18,-30 0,-30z"/>
      <path class="fil1" d="M15786 3122c19,0 19,30 0,30 -19,0 -19,-30 0,-30z"/>
      <path class="fil1" d="M15927 3173c19,0 19,29 0,29 -19,0 -19,-29 0,-29z"/>
      <path class="fil1" d="M10179 4528l0 -11c0,-7 7,-15 15,-14 8,0 15,6 15,14l0 11c0,7 -7,15 -15,14 -8,0 -15,-6 -15,-14z"/>
      <path class="fil1" d="M10083 4382c19,0 19,29 0,29 -19,0 -19,-29 0,-29z"/>
      <path class="fil1" d="M10023 4493c18,0 18,29 0,29 -19,0 -19,-29 0,-29z"/>
      <path class="fil1" d="M10174 4604c19,0 19,29 0,29 -19,0 -19,-29 0,-29z"/>
      <path class="fil1" d="M10133 4462c19,0 19,30 0,30 -19,0 -19,-30 0,-30z"/>
      <path class="fil1" d="M9937 4608l0 -5c0,-19 30,-19 30,0l0 5c0,19 -30,19 -30,0l0 -5c0,-19 30,-19 30,0l0 5c0,19 -30,19 -30,0z"/>
      <path class="fil1" d="M10002 4649c26,0 26,39 0,39 -25,0 -25,-39 0,-39z"/>
      <path class="fil1" d="M10123 4508c26,0 26,39 0,39 -25,0 -25,-39 0,-39z"/>
      <path class="fil1" d="M15272 5062c25,0 26,39 0,39 -25,0 -25,-39 0,-39z"/>
      <path class="fil1" d="M11000 5717c25,0 25,39 0,39 -25,0 -25,-39 0,-39z"/>
      <path class="fil1" d="M12018 6996l0 -10c0,-12 20,-12 20,0l0 10c0,13 -20,13 -20,0z"/>
      <path class="fil1" d="M12048 7107c12,0 12,20 0,20 -13,0 -13,-20 0,-20z"/>
      <path class="fil1" d="M16139 4044c12,0 12,20 0,20 -13,0 -13,-20 0,-20z"/>
      <path class="fil1" d="M16189 4125c13,0 13,19 0,19 -12,0 -12,-19 0,-19z"/>
      <path class="fil1" d="M16230 4034l0 -10c0,-13 19,-13 19,0l0 10c0,12 -19,12 -19,0z"/>
      <path class="fil1" d="M16300 4115c25,0 25,39 0,39 -25,0 -25,-39 0,-39z"/>
      <path class="fil1" d="M16078 4044c26,0 26,40 0,40 -25,0 -25,-40 0,-40z"/>
      <path class="fil1" d="M12673 7128c25,0 25,39 0,39 -26,0 -26,-39 0,-39z"/>
      <path class="fil1" d="M12401 7097l0 -6c0,-25 39,-25 39,0l0 6c0,25 -39,25 -39,0l0 -6c0,-25 39,-25 39,0l0 6c0,25 -39,25 -39,0z"/>
      <path class="fil1" d="M13418 7682c25,0 25,39 0,39 -25,0 -25,-39 0,-39z"/>
      <path class="fil1" d="M13499 7803c25,0 25,39 0,39 -25,0 -25,-39 0,-39z"/>
      <path class="fil1" d="M11615 2170c25,0 25,39 0,39 -26,0 -26,-39 0,-39z"/>
      <path class="fil1" d="M11477 2176c4,3 7,7 10,10 8,7 8,21 0,28 -7,7 -20,7 -27,0 -4,-4 -7,-7 -10,-10 -8,-8 -8,-21 0,-28 7,-7 20,-8 27,0z"/>
      <path class="fil1" d="M11504 2049l10 0c10,0 20,9 19,20 0,11 -8,20 -19,20l-10 0c-10,0 -20,-10 -20,-20 1,-11 9,-20 20,-20z"/>
      <path class="fil1" d="M10426 7208c25,0 25,40 0,40 -26,0 -26,-40 0,-40z"/>
      <path class="fil1" d="M10305 7319c25,0 25,39 0,39 -26,0 -26,-39 0,-39z"/>
      <path class="fil1" d="M9992 7299c26,0 26,39 0,39 -25,0 -25,-39 0,-39z"/>
      <path class="fil1" d="M10154 7540l0 -10c0,-10 9,-20 20,-19 10,0 19,8 19,19l0 10c0,11 -9,20 -19,20 -11,-1 -20,-9 -20,-20z"/>
      <path class="fil1" d="M11343 6936c12,0 12,20 0,20 -13,0 -13,-20 0,-20z"/>
      <path class="fil1" d="M11383 7077c12,0 12,20 0,20 -13,0 -13,-20 0,-20z"/>
      <path class="fil1" d="M11494 7127c12,0 12,20 0,20 -13,0 -13,-20 0,-20z"/>
      <path class="fil1" d="M11413 7248c13,0 13,20 0,20 -13,0 -13,-20 0,-20z"/>
     </g>
    </g>
   </g>
   <polygon class="fil2" points="0,0 16256,0 16256,9144 0,9144 "/>
   <path class="fil1" d="M2694 1184l5 0c8,0 8,-11 0,-11l-5 0c-7,0 -7,11 0,11z"/>
   <path class="fil1" d="M3065 2148c14,0 14,-22 0,-22 -15,0 -15,22 0,22z"/>
   <path class="fil1" d="M1844 4071c14,0 14,-22 0,-22 -15,0 -15,22 0,22z"/>
   <path class="fil1" d="M5963 3706c14,0 14,-23 0,-23 -14,0 -14,23 0,23z"/>
   <path class="fil1" d="M4263 3900c14,0 14,-23 0,-23 -14,0 -14,23 0,23z"/>
   <path class="fil1" d="M3582 5152c3,3 7,7 11,11 10,10 26,-6 16,-16 -4,-3 -8,-7 -12,-11 -10,-10 -25,6 -15,16z"/>
   <path class="fil1" d="M7470 5281l0 11c0,14 22,14 22,0l0 -11c0,-15 -22,-15 -22,0z"/>
   <path class="fil1" d="M5839 5227c4,-11 8,-22 12,-34 4,-13 -17,-19 -21,-6 -4,12 -8,23 -12,35 -4,13 17,19 21,5z"/>
   <path class="fil1" d="M3674 6647c8,-4 16,-7 23,-11 13,-7 2,-26 -11,-19 -8,3 -15,7 -23,11 -12,6 -1,26 11,19z"/>
   <path class="fil1" d="M1904 2021c-4,3 -7,7 -11,11 -10,10 5,26 15,16 4,-4 8,-8 12,-12 10,-10 -6,-26 -16,-15z"/>
   <path class="fil1" d="M2072 2211l11 0c14,0 14,-22 0,-22l-11 0c-14,0 -15,22 0,22z"/>
   <path class="fil1" d="M2189 1941c-3,4 -7,7 -11,11 -10,10 6,26 16,16 4,-4 7,-8 11,-12 10,-10 -5,-25 -16,-15z"/>
   <path class="fil1" d="M5723 1617c15,0 15,-22 0,-22 -14,0 -14,22 0,22z"/>
   <path class="fil1" d="M6191 4847c15,0 15,-22 0,-22 -14,0 -14,22 0,22z"/>
   <path class="fil1" d="M5792 6228c14,0 14,-23 0,-23 -14,0 -14,23 0,23z"/>
   <path class="fil1" d="M2152 6239c14,0 14,-22 0,-22 -15,0 -15,22 0,22z"/>
   <path class="fil1" d="M2072 6992c14,0 14,-22 0,-22 -14,0 -15,22 0,22z"/>
   <path class="fil1" d="M1456 6319c14,0 14,-22 0,-22 -15,0 -15,22 0,22z"/>
   <path class="fil1" d="M2368 3107c8,0 8,-11 0,-11 -7,0 -7,11 0,11z"/>
   <path class="fil1" d="M3532 2947c8,0 8,-11 0,-11 -7,0 -7,11 0,11z"/>
   <path class="fil1" d="M4531 2211l0 11c0,8 11,8 11,0l0 -11c0,-7 -11,-7 -11,0z"/>
   <path class="fil1" d="M6701 4577c4,4 8,8 11,12 5,5 13,-3 8,-8 -4,-4 -7,-8 -11,-12 -5,-5 -13,3 -8,8z"/>
   <path class="fil1" d="M7709 4545c7,0 7,-12 0,-12 -7,0 -7,12 0,12z"/>
   <path class="fil1" d="M9314 4805c4,4 8,8 12,12 5,5 12,-3 7,-8l-11 -11c-5,-6 -13,2 -8,7z"/>
   <path class="fil1" d="M9284 6096c7,0 7,-11 0,-11 -7,0 -7,11 0,11z"/>
   <path class="fil1" d="M7485 7179c4,-4 7,-8 11,-11 5,-6 -3,-13 -8,-8 -3,4 -7,7 -11,11 -5,5 3,13 8,8z"/>
   <path class="fil1" d="M7922 6110c-4,4 -8,7 -11,11 -5,5 2,13 7,8 4,-4 8,-8 12,-11 5,-5 -3,-13 -8,-8z"/>
   <path class="fil1" d="M6990 5994c7,0 7,-11 0,-11 -7,0 -7,11 0,11z"/>
   <path class="fil1" d="M4875 5391c-4,4 -8,8 -11,11 -5,5 2,13 8,8 3,-4 7,-7 11,-11 5,-5 -3,-13 -8,-8z"/>
   <path class="fil1" d="M4012 4373c7,0 7,-11 0,-11 -7,0 -7,11 0,11z"/>
   <path class="fil1" d="M3110 3997c7,0 7,-11 0,-11 -7,0 -7,11 0,11z"/>
   <path class="fil1" d="M3304 4408c7,0 7,-12 0,-12 -7,0 -7,12 0,12z"/>
   <path class="fil1" d="M4868 4390c14,0 14,-22 0,-22 -15,0 -15,22 0,22z"/>
   <path class="fil1" d="M4890 4128c15,0 15,-22 0,-22 -14,0 -14,22 0,22z"/>
   <path class="fil1" d="M4126 4379c14,0 14,-22 0,-22 -14,0 -14,22 0,22z"/>
   <path class="fil1" d="M3065 3831c14,0 14,-22 0,-22 -15,0 -15,22 0,22z"/>
   <path class="fil1" d="M3635 3340c14,0 14,-22 0,-22 -14,0 -14,22 0,22z"/>
   <path class="fil1" d="M4149 3055c14,0 14,-22 0,-22 -15,0 -15,22 0,22z"/>
   <path class="fil1" d="M4126 2587c14,0 14,-22 0,-22 -14,0 -14,22 0,22z"/>
   <path class="fil1" d="M3259 2736l0 11c0,15 22,15 22,0l0 -11c0,-14 -22,-14 -22,0z"/>
   <path class="fil1" d="M2517 2816l11 0c15,0 15,-23 0,-23l-11 0c-14,0 -14,23 0,23z"/>
   <path class="fil1" d="M3570 1454c4,4 8,8 12,12 10,10 25,-6 15,-16 -3,-4 -7,-8 -11,-11 -10,-11 -26,5 -16,15z"/>
   <path class="fil1" d="M5302 990l0 11c0,15 22,15 22,0l0 -11c0,-14 -22,-14 -22,0z"/>
   <path class="fil1" d="M5564 2998c14,0 14,-22 0,-22 -15,0 -15,22 0,22z"/>
   <path class="fil1" d="M4822 3112c14,0 14,-22 0,-22 -14,0 -14,22 0,22z"/>
   <path class="fil1" d="M2677 4425l0 11c0,15 22,15 22,0l0 -11c0,-14 -22,-14 -22,0z"/>
   <path class="fil1" d="M3065 4607l11 0c14,0 14,-22 0,-22l-11 0c-15,0 -15,22 0,22z"/>
   <path class="fil1" d="M4175 5695c-4,4 -8,8 -11,12 -10,10 5,25 15,15 4,-4 8,-7 12,-11 10,-10 -6,-26 -16,-16z"/>
   <path class="fil1" d="M4411 5269c14,0 14,-22 0,-22 -14,0 -14,22 0,22z"/>
   <path class="fil1" d="M5529 4995c15,0 15,-22 0,-22 -14,0 -14,22 0,22z"/>
   <path class="fil1" d="M5815 4573c14,0 14,-22 0,-22 -14,0 -15,22 0,22z"/>
   <path class="fil1" d="M5575 4219l0 12c0,14 23,14 23,0l0 -12c0,-14 -23,-14 -23,0z"/>
   <path class="fil1" d="M6865 4185c14,0 14,-22 0,-22 -15,0 -15,22 0,22z"/>
   <path class="fil1" d="M6408 6719l0 -12c0,-14 -22,-14 -22,0l0 12c0,14 22,14 22,0z"/>
   <path class="fil1" d="M5678 7277l11 0c15,0 15,-22 0,-22l-11 0c-14,0 -14,22 0,22z"/>
   <path class="fil1" d="M4400 7209l11 0c14,0 14,-22 0,-22l-11 0c-15,0 -15,22 0,22z"/>
   <path class="fil1" d="M4628 6353l11 0c15,0 15,-22 0,-22l-11 0c-14,0 -14,22 0,22z"/>
   <path class="fil1" d="M3122 5760c14,0 14,-22 0,-22 -15,0 -15,22 0,22z"/>
   <path class="fil1" d="M2368 5246c15,0 15,-22 0,-22 -14,0 -14,22 0,22z"/>
   <path class="fil1" d="M1866 3266c22,0 22,-33 0,-33 -21,0 -21,33 0,33z"/>
   <path class="fil1" d="M2785 2302l0 12c0,8 8,17 17,16 9,0 17,-7 17,-16l0 -12c0,-8 -8,-17 -17,-16 -9,0 -17,7 -17,16z"/>
   <path class="fil1" d="M3729 2831c8,4 15,8 23,12 8,4 18,2 22,-6 5,-8 3,-19 -5,-23 -8,-4 -16,-8 -23,-11 -8,-4 -18,-3 -23,6 -4,7 -2,18 6,22z"/>
   <path class="fil1" d="M2814 3711c21,0 21,-33 0,-33 -22,0 -22,33 0,33z"/>
   <path class="fil1" d="M3749 3791c22,0 22,-33 0,-33 -21,0 -21,33 0,33z"/>
   <path class="fil1" d="M5415 2319c22,0 22,-33 0,-33 -21,0 -21,33 0,33z"/>
   <path class="fil1" d="M7641 4441c21,0 21,-33 0,-33 -22,0 -22,33 0,33z"/>
   <path class="fil1" d="M6711 5532l0 11c0,9 8,17 17,17 9,-1 16,-7 16,-17l0 -11c0,-9 -7,-17 -16,-17 -9,1 -17,7 -17,17z"/>
   <path class="fil1" d="M3408 5794l0 7c0,28 44,28 44,0l0 -7c0,-28 -44,-28 -44,0l0 7c0,28 44,28 44,0l0 -7c0,-28 -44,-28 -44,0z"/>
   <path class="fil1" d="M4092 6284c28,0 28,-44 0,-44 -29,0 -29,44 0,44z"/>
   <path class="fil1" d="M7173 6090c28,0 28,-44 0,-44 -29,0 -29,44 0,44z"/>
   <path class="fil1" d="M4799 1800c29,0 29,-45 0,-45 -28,0 -28,45 0,45z"/>
   <path class="fil1" d="M5628 3451c-4,3 -8,7 -11,11 -9,8 -9,23 0,31 8,9 22,9 31,0 4,-3 7,-7 11,-11 8,-8 9,-23 0,-31 -9,-9 -22,-9 -31,0z"/>
   <path class="fil1" d="M2357 7414c14,0 14,-22 0,-22 -14,0 -14,22 0,22z"/>
   <path class="fil1" d="M2928 7369c14,0 14,-22 0,-22 -15,0 -15,22 0,22z"/>
   <path class="fil1" d="M3396 7665c14,0 14,-22 0,-22 -15,0 -15,22 0,22z"/>
   <path class="fil1" d="M3087 8168c15,0 15,-23 0,-23 -14,0 -14,23 0,23z"/>
   <path class="fil1" d="M2574 7894c14,0 14,-23 0,-23 -14,0 -14,23 0,23z"/>
   <path class="fil1" d="M2734 7586c14,0 14,-23 0,-23 -15,0 -15,23 0,23z"/>
   <path class="fil1" d="M2574 7334c14,0 14,-22 0,-22 -14,0 -14,22 0,22z"/>
   <path class="fil1" d="M1535 7209c15,0 15,-22 0,-22 -14,0 -14,22 0,22z"/>
   <path class="fil1" d="M1399 5657c14,0 14,-22 0,-22 -15,0 -15,22 0,22z"/>
   <path class="fil1" d="M1684 5486c14,0 14,-22 0,-22 -14,0 -15,22 0,22z"/>
   <path class="fil1" d="M1912 5360c14,0 14,-22 0,-22 -14,0 -14,22 0,22z"/>
   <path class="fil1" d="M1775 5075c14,0 14,-22 0,-22 -14,0 -14,22 0,22z"/>
   <path class="fil1" d="M2015 4653c14,0 14,-22 0,-22 -15,0 -15,22 0,22z"/>
   <path class="fil1" d="M8645 5383l11 0c15,0 15,-22 0,-22l-11 0c-14,0 -14,22 0,22z"/>
   <path class="fil1" d="M8759 4961c14,0 14,-22 0,-22 -14,0 -14,22 0,22z"/>
   <path class="fil1" d="M8748 4345c14,0 14,-23 0,-23 -15,0 -15,23 0,23z"/>
   <path class="fil1" d="M9033 3420c14,0 14,-22 0,-22 -14,0 -14,22 0,22z"/>
   <path class="fil1" d="M8942 2873c14,0 14,-23 0,-23 -15,0 -15,23 0,23z"/>
   <path class="fil1" d="M4206 1640l11 0c14,0 14,-22 0,-22l-11 0c-15,0 -15,22 0,22z"/>
   <path class="fil1" d="M2973 1594c15,0 15,-22 0,-22 -14,0 -14,22 0,22z"/>
   <path class="fil1" d="M3057 1272c4,4 7,7 11,11 10,10 26,-5 16,-16 -4,-3 -8,-7 -12,-11 -10,-10 -25,6 -15,16z"/>
   <path class="fil1" d="M1798 1400c14,0 14,-22 0,-22 -14,0 -14,22 0,22z"/>
   <path class="fil1" d="M2391 1583c15,0 15,-22 0,-22 -14,0 -14,22 0,22z"/>
   <path class="fil1" d="M3726 2188c15,0 15,-22 0,-22 -14,0 -14,22 0,22z"/>
   <path class="fil1" d="M3761 1868c14,0 14,-22 0,-22 -15,0 -15,22 0,22z"/>
   <path class="fil1" d="M5404 1994l0 12c0,14 22,14 22,0l0 -12c0,-14 -22,-14 -22,0z"/>
   <path class="fil1" d="M5849 2222c14,0 14,-22 0,-22 -14,0 -14,22 0,22z"/>
   <path class="fil1" d="M5883 6707c15,0 15,-22 0,-22 -14,0 -14,22 0,22z"/>
   <path class="fil1" d="M5529 6764c15,0 15,-22 0,-22 -14,0 -14,22 0,22z"/>
   <path class="fil1" d="M4708 7426c14,0 14,-22 0,-22 -14,0 -14,22 0,22z"/>
   <path class="fil1" d="M4526 7734l0 12c0,14 22,14 22,0l0 -12c0,-14 -22,-14 -22,0z"/>
   <path class="fil1" d="M4392 7589c-4,4 -8,8 -12,12 -10,10 6,26 16,16 4,-4 8,-8 12,-12 10,-10 -6,-26 -16,-16z"/>
   <path class="fil1" d="M4457 7471c14,0 14,-22 0,-22 -14,0 -14,22 0,22z"/>
   <path class="fil1" d="M4149 7438l0 11c0,14 22,14 22,0l0 -11c0,-15 -22,-15 -22,0z"/>
   <path class="fil1" d="M4168 7251c4,-3 8,-7 11,-11 10,-10 -5,-26 -15,-16 -4,4 -8,8 -12,12 -10,10 6,25 16,15z"/>
   <path class="fil1" d="M4537 7015l11 0c14,0 14,-22 0,-22l-11 0c-15,0 -15,22 0,22z"/>
   <path class="fil1" d="M4742 7209c14,0 14,-22 0,-22 -14,0 -14,22 0,22z"/>
   <path class="fil1" d="M6020 7677c14,0 14,-22 0,-22 -14,0 -14,22 0,22z"/>
   <path class="fil1" d="M6397 7460c14,0 14,-22 0,-22 -15,0 -15,22 0,22z"/>
   <path class="fil1" d="M6614 7175c14,0 14,-22 0,-22 -15,0 -15,22 0,22z"/>
   <path class="fil1" d="M4788 6638c14,0 14,-22 0,-22 -15,0 -15,22 0,22z"/>
   <path class="fil1" d="M5027 6273c15,0 15,-22 0,-22 -14,0 -14,22 0,22z"/>
   <path class="fil1" d="M4753 5897c15,0 15,-23 0,-23 -14,0 -14,23 0,23z"/>
   <path class="fil1" d="M3331 6300c-4,4 -8,8 -12,11 -10,10 6,26 16,16 4,-4 8,-8 11,-11 10,-10 -5,-26 -15,-16z"/>
   <path class="fil1" d="M2734 6707c14,0 14,-22 0,-22 -15,0 -15,22 0,22z"/>
   <path class="fil1" d="M2612 6224c4,4 7,8 11,12 10,10 26,-6 16,-16 -4,-4 -8,-8 -12,-11 -10,-10 -25,5 -15,15z"/>
   <path class="fil1" d="M2597 5885c14,0 14,-22 0,-22 -15,0 -15,22 0,22z"/>
   <path class="fil1" d="M8845 6798c8,-4 15,-8 23,-12 13,-6 1,-25 -11,-19 -8,4 -16,8 -23,12 -13,6 -2,25 11,19z"/>
   <path class="fil1" d="M8439 6364l12 0c14,0 14,-22 0,-22l-12 0c-14,0 -14,22 0,22z"/>
   <path class="fil1" d="M8086 6741l0 12c0,14 22,14 22,0l0 -12c0,-14 -22,-14 -22,0z"/>
   <path class="fil1" d="M7492 6524c15,0 15,-22 0,-22 -14,0 -14,22 0,22z"/>
   <path class="fil1" d="M8531 5794c14,0 14,-22 0,-22 -15,0 -15,22 0,22z"/>
   <path class="fil1" d="M7801 5532l0 11c0,14 22,14 22,0l0 -11c0,-14 -22,-15 -22,0z"/>
   <path class="fil1" d="M7527 4847c14,0 14,-22 0,-22 -15,0 -15,22 0,22z"/>
   <path class="fil1" d="M8291 4288c14,0 14,-23 0,-23 -14,0 -14,23 0,23z"/>
   <path class="fil1" d="M8192 3869c-4,4 -8,8 -11,12 -11,10 5,25 15,15 4,-3 8,-7 12,-11 10,-10 -6,-26 -16,-16z"/>
   <path class="fil1" d="M4480 2530c14,0 14,-22 0,-22 -15,0 -15,22 0,22z"/>
   <path class="fil1" d="M4765 2736c14,0 14,-23 0,-23 -14,0 -14,23 0,23z"/>
   <path class="fil1" d="M2106 3318l0 11c0,15 23,15 23,0l0 -11c0,-14 -23,-14 -23,0z"/>
   <path class="fil1" d="M2106 3683c14,0 14,-22 0,-22 -14,0 -14,22 0,22z"/>
   <path class="fil1" d="M2722 3375c15,0 15,-23 0,-23 -14,0 -14,23 0,23z"/>
   <path class="fil1" d="M2132 2922c-3,4 -7,8 -11,12 -10,10 6,25 16,15 3,-4 7,-7 11,-11 10,-10 -5,-26 -16,-16z"/>
   <path class="fil1" d="M1752 2873c15,0 15,-23 0,-23 -14,0 -14,23 0,23z"/>
   <path class="fil1" d="M9272 3717c15,0 15,-22 0,-22 -14,0 -14,22 0,22z"/>
   <path class="fil1" d="M9409 2964c15,0 15,-22 0,-22 -14,0 -14,22 0,22z"/>
   <path class="fil1" d="M1444 3266c22,0 22,-33 0,-33 -21,0 -21,33 0,33z"/>
   <path class="fil1" d="M1530 2633l0 12c0,8 8,17 17,16 9,0 16,-7 16,-16l0 -12c0,-8 -7,-17 -16,-16 -9,0 -17,7 -17,16z"/>
   <path class="fil1" d="M1410 4670c21,0 21,-34 0,-34 -21,0 -22,34 0,34z"/>
   <path class="fil1" d="M1205 4088c21,0 21,-34 0,-34 -22,0 -22,34 0,34z"/>
   <path class="fil1" d="M2060 4476c22,0 22,-34 0,-34 -21,0 -21,34 0,34z"/>
   <path class="fil1" d="M2220 4076c22,0 22,-33 0,-33 -21,0 -21,33 0,33z"/>
   <path class="fil1" d="M3008 4357c4,-4 7,-8 11,-12 7,-6 7,-17 0,-23 -6,-7 -17,-7 -23,0 -4,4 -8,7 -12,11 -6,7 -6,17 0,24 7,6 18,6 24,0z"/>
   <path class="fil1" d="M2654 3996c21,0 21,-33 0,-33 -22,0 -22,33 0,33z"/>
   <path class="fil1" d="M3099 3312l11 0c9,0 17,-8 17,-17 -1,-9 -7,-17 -17,-17l-11 0c-9,0 -17,8 -17,17 1,9 7,17 17,17z"/>
   <path class="fil1" d="M3202 3620c21,0 21,-33 0,-33 -22,0 -22,33 0,33z"/>
   <path class="fil1" d="M4172 3403c21,0 21,-33 0,-33 -22,0 -22,33 0,33z"/>
   <path class="fil1" d="M3692 5594l12 0c8,0 17,-8 16,-17 0,-9 -7,-16 -16,-16l-12 0c-8,0 -17,7 -16,16 0,9 7,17 16,17z"/>
   <path class="fil1" d="M5290 5480l11 0c9,0 17,-8 17,-17 -1,-9 -7,-16 -17,-16l-11 0c-9,0 -17,7 -17,16 1,9 8,17 17,17z"/>
   <path class="fil1" d="M6077 5646c-4,3 -8,7 -12,11 -6,6 -6,17 0,23 7,7 18,7 24,0 4,-3 8,-7 11,-11 7,-6 7,-17 0,-23 -6,-7 -17,-7 -23,0z"/>
   <path class="fil1" d="M6865 5035c21,0 21,-33 0,-33 -22,0 -22,33 0,33z"/>
   <path class="fil1" d="M7122 4665l0 11c0,9 8,17 17,17 9,-1 16,-8 16,-17l0 -11c0,-9 -8,-18 -16,-17 -10,0 -17,7 -17,17z"/>
   <path class="fil1" d="M8827 4590c22,0 22,-33 0,-33 -21,0 -21,33 0,33z"/>
   <path class="fil1" d="M8976 5886c4,-4 8,-8 12,-12 6,-6 6,-17 0,-23 -7,-6 -18,-6 -24,0 -4,4 -8,8 -11,11 -7,7 -7,18 0,24 6,6 17,6 23,0z"/>
   <path class="fil1" d="M7812 6998c21,0 21,-34 0,-34 -22,0 -22,34 0,34z"/>
   <path class="fil1" d="M7173 7660l11 0c9,0 17,-8 17,-17 -1,-9 -8,-17 -17,-17l-11 0c-9,0 -17,8 -17,17 1,9 7,17 17,17z"/>
   <path class="fil1" d="M6545 7888c22,0 22,-33 0,-33 -21,0 -21,33 0,33z"/>
   <path class="fil1" d="M5781 8127l11 0c9,0 17,-7 17,-16 -1,-9 -8,-17 -17,-17l-11 0c-9,0 -17,8 -17,17 0,9 7,16 17,16z"/>
   <path class="fil1" d="M5678 7762c21,0 21,-33 0,-33 -22,0 -22,33 0,33z"/>
   <path class="fil1" d="M5484 7660c21,0 21,-34 0,-34 -22,0 -22,34 0,34z"/>
   <path class="fil1" d="M5952 1703c21,0 21,-34 0,-34 -22,0 -22,34 0,34z"/>
   <path class="fil1" d="M5381 1532c22,0 22,-34 0,-34 -21,0 -21,34 0,34z"/>
   <path class="fil1" d="M4925 1509c21,0 21,-34 0,-34 -22,0 -22,34 0,34z"/>
   <path class="fil1" d="M4469 1937c3,-3 7,-7 11,-11 6,-6 6,-17 0,-23 -6,-7 -17,-7 -24,0 -3,3 -7,7 -11,11 -6,6 -6,17 0,23 6,7 17,7 24,0z"/>
   <path class="fil1" d="M4822 2085c-4,4 -8,8 -12,12 -6,6 -6,17 0,23 7,6 17,6 24,0 4,-4 7,-8 11,-11 6,-7 6,-18 0,-24 -6,-6 -17,-6 -23,0z"/>
   <path class="fil1" d="M5164 2239c22,0 22,-33 0,-33 -21,0 -21,33 0,33z"/>
   <path class="fil1" d="M4913 2479c22,0 22,-34 0,-34 -21,0 -21,34 0,34z"/>
   <path class="fil1" d="M5307 2759l0 11c0,9 8,17 17,17 9,-1 17,-7 17,-17l0 -11c0,-9 -8,-17 -17,-17 -9,1 -17,7 -17,17z"/>
   <path class="fil1" d="M5712 2638c21,0 22,-33 0,-33 -21,0 -21,33 0,33z"/>
   <path class="fil1" d="M5666 2479c22,0 22,-34 0,-34 -21,0 -21,34 0,34z"/>
   <path class="fil1" d="M5963 2895c-4,4 -8,8 -12,12 -6,6 -6,17 0,23 7,7 18,7 24,0 4,-4 7,-7 11,-11 7,-6 7,-17 0,-24 -6,-6 -17,-6 -23,0z"/>
   <path class="fil1" d="M3555 7169c22,0 22,-33 0,-33 -21,0 -21,33 0,33z"/>
   <path class="fil1" d="M3704 7511c21,0 21,-33 0,-33 -22,0 -22,33 0,33z"/>
   <path class="fil1" d="M3995 7757l0 11c0,9 8,17 17,17 9,0 16,-7 16,-17l0 -11c0,-9 -7,-17 -16,-17 -9,1 -17,8 -17,17z"/>
   <path class="fil1" d="M2129 7602c21,0 21,-33 0,-33 -22,0 -22,33 0,33z"/>
   <path class="fil1" d="M1844 7431c21,0 21,-33 0,-33 -22,0 -22,33 0,33z"/>
   <path class="fil1" d="M1684 6735c21,0 21,-33 0,-33 -22,0 -22,33 0,33z"/>
   <path class="fil1" d="M2288 6650c4,4 8,8 12,12 6,6 17,6 23,0 7,-7 7,-17 0,-24 -4,-3 -7,-7 -11,-11 -7,-6 -17,-6 -24,0 -6,6 -6,17 0,23z"/>
   <path class="fil1" d="M2277 6895c22,0 22,-33 0,-33 -21,0 -21,33 0,33z"/>
   <path class="fil1" d="M1992 6644c21,0 21,-33 0,-33 -21,0 -22,33 0,33z"/>
   <path class="fil1" d="M1832 5811c22,0 22,-33 0,-33 -21,0 -21,33 0,33z"/>
   <path class="fil1" d="M2311 5583c22,0 22,-34 0,-34 -21,0 -21,34 0,34z"/>
   <path class="fil1" d="M6956 6769l11 0c9,0 17,-7 17,-16 0,-9 -7,-17 -17,-17l-11 0c-9,0 -17,8 -17,17 1,9 8,16 17,16z"/>
   <path class="fil1" d="M7218 7055c22,0 22,-34 0,-34 -21,0 -21,34 0,34z"/>
   <path class="fil1" d="M7606 7032c22,0 22,-33 0,-33 -21,0 -21,33 0,33z"/>
   <path class="fil1" d="M7823 6701c22,0 22,-33 0,-33 -21,0 -21,33 0,33z"/>
   <path class="fil1" d="M2426 3660c28,0 28,-45 0,-45 -29,0 -29,45 0,45z"/>
   <path class="fil1" d="M2666 2998l0 12c0,11 10,23 22,22 12,-1 22,-10 22,-22l0 -12c0,-11 -10,-22 -22,-22 -12,1 -22,10 -22,22z"/>
   <path class="fil1" d="M3065 2598c28,0 28,-44 0,-44 -29,0 -29,44 0,44z"/>
   <path class="fil1" d="M7401 4230c29,0 29,-44 0,-44 -29,0 -29,44 0,44z"/>
   <path class="fil1" d="M7020 6312c4,4 8,8 12,11 8,9 23,9 31,0 8,-8 9,-22 0,-31 -4,-4 -8,-8 -12,-11 -8,-9 -23,-9 -31,0 -8,9 -9,22 0,31z"/>
   <path class="fil1" d="M6590 6166c8,-4 15,-8 23,-11 10,-6 14,-21 8,-31 -7,-10 -19,-13 -31,-8 -7,4 -15,8 -22,12 -11,5 -15,20 -8,30 6,11 19,14 30,8z"/>
   <path class="fil1" d="M908 4641c28,0 28,-44 0,-44 -29,0 -29,44 0,44z"/>
   <path class="fil1" d="M1159 3488c28,0 28,-44 0,-44 -29,0 -29,44 0,44z"/>
   <path class="fil1" d="M1456 2262c21,0 21,-33 0,-33 -22,0 -22,33 0,33z"/>
   <path class="fil1" d="M2117 1726c22,0 22,-34 0,-34 -21,0 -21,34 0,34z"/>
   <path class="fil1" d="M4041 2108l0 12c0,8 7,17 16,16 9,0 17,-7 17,-16l0 -12c0,-8 -8,-17 -17,-16 -9,0 -16,7 -16,16z"/>
   <path class="fil1" d="M4514 3535c4,-4 8,-7 12,-11 6,-7 6,-17 0,-24 -7,-6 -18,-6 -24,0 -4,4 -8,8 -11,12 -7,6 -7,17 0,23 6,6 17,6 23,0z"/>
   <path class="fil1" d="M5317 3832c-1,-11 17,-19 22,-7 0,3 1,5 2,8 0,0 0,-1 0,-2 1,-8 -9,-17 -17,-16 -10,0 -15,7 -16,16 -2,12 10,21 21,21 11,0 22,-8 21,-20 0,-9 -7,-17 -17,-17 -8,1 -17,8 -16,17z"/>
   <path class="fil1" d="M5883 4111c22,0 22,-34 0,-34 -21,0 -21,34 0,34z"/>
   <path class="fil1" d="M6499 4499c22,0 22,-34 0,-34 -21,0 -21,34 0,34z"/>
   <path class="fil1" d="M6568 4065c21,0 21,-33 0,-33 -21,0 -22,33 0,33z"/>
   <path class="fil1" d="M4149 8070c21,0 21,-33 0,-33 -22,0 -22,33 0,33z"/>
   <path class="fil1" d="M4638 8212c-4,4 -8,8 -12,11 -6,6 -6,18 0,24 7,6 17,6 24,0 4,-4 8,-7 12,-11 7,-6 6,-17 0,-24 -7,-6 -17,-6 -24,0z"/>
   <path class="fil1" d="M4833 7979c22,0 22,-33 0,-33 -21,0 -21,33 0,33z"/>
   <path class="fil1" d="M5301 8013c22,0 22,-33 0,-33 -21,0 -21,33 0,33z"/>
   <path class="fil1" d="M5221 7682c22,0 22,-33 0,-33 -21,0 -21,33 0,33z"/>
   <path class="fil1" d="M4799 7819c22,0 22,-33 0,-33 -21,0 -21,33 0,33z"/>
   <path class="fil1" d="M4194 8299c22,0 22,-34 0,-34 -21,0 -21,34 0,34z"/>
   <path class="fil1" d="M3556 8602c3,-4 7,-8 11,-12 6,-6 6,-17 0,-23 -6,-6 -17,-6 -23,0 -4,4 -8,8 -12,11 -6,7 -6,17 0,24 6,6 17,6 24,0z"/>
   <path class="fil1" d="M1661 8333c21,0 21,-33 0,-33 -21,0 -21,33 0,33z"/>
   <path class="fil1" d="M2688 8550c21,0 21,-34 0,-34 -21,0 -21,34 0,34z"/>
   <path class="fil1" d="M1239 7762c21,0 21,-33 0,-33 -22,0 -22,33 0,33z"/>
   <path class="fil1" d="M2825 6975c21,0 21,-33 0,-33 -21,0 -21,33 0,33z"/>
   <path class="fil1" d="M3190 6884c22,0 22,-34 0,-34 -21,0 -21,34 0,34z"/>
   <path class="fil1" d="M7572 6187c22,0 22,-33 0,-33 -21,0 -21,33 0,33z"/>
   <path class="fil1" d="M7686 5891c22,0 22,-34 0,-34 -21,0 -21,34 0,34z"/>
   <path class="fil1" d="M8428 6073c21,0 21,-33 0,-33 -21,0 -21,33 0,33z"/>
   <path class="fil1" d="M8223 6073c21,0 21,-33 0,-33 -22,0 -22,33 0,33z"/>
   <path class="fil1" d="M6499 5081c22,0 22,-34 0,-34 -21,0 -21,34 0,34z"/>
   <path class="fil1" d="M3715 6183c4,-4 8,-8 12,-12 6,-6 6,-17 0,-23 -7,-7 -17,-7 -24,0l-11 11c-6,6 -6,17 0,24 6,6 17,6 23,0z"/>
   <path class="fil1" d="M3087 5172c22,0 22,-33 0,-33 -21,0 -21,33 0,33z"/>
   <path class="fil1" d="M2597 5001c21,0 21,-34 0,-34 -22,0 -22,34 0,34z"/>
   <path class="fil1" d="M6591 4099c21,0 21,-33 0,-33 -22,0 -22,33 0,33z"/>
   <path class="fil1" d="M7156 3877l0 12c0,8 8,17 17,16 9,0 16,-7 16,-16l0 -12c0,-9 -7,-17 -16,-17 -9,1 -17,8 -17,17z"/>
   <path class="fil1" d="M5849 1207c4,-4 8,-7 12,-11 6,-7 6,-17 0,-24 -7,-6 -17,-6 -24,0 -4,4 -7,8 -11,12 -7,6 -7,17 0,23 6,7 17,7 23,0z"/>
   <path class="fil1" d="M3418 1166c22,0 22,-33 0,-33 -21,0 -21,33 0,33z"/>
   <path class="fil1" d="M3236 1577c21,0 21,-33 0,-33 -22,0 -22,33 0,33z"/>
   <path class="fil1" d="M2562 1988l12 0c9,0 17,-8 17,-17 -1,-9 -8,-16 -17,-16l-12 0c-8,0 -17,7 -16,16 0,9 7,17 16,17z"/>
   <path class="fil1" d="M1622 1834l0 12c0,9 7,17 16,16 9,0 17,-7 17,-16l0 -12c0,-8 -8,-17 -17,-16 -9,0 -16,7 -16,16z"/>
   <path class="fil1" d="M1250 2228c22,0 22,-34 0,-34 -21,0 -21,34 0,34z"/>
   <path class="fil1" d="M7709 7545c21,0 22,-33 0,-33 -21,0 -21,33 0,33z"/>
   <path class="fil1" d="M8086 7317c21,0 21,-33 0,-33 -22,0 -22,33 0,33z"/>
   <path class="fil1" d="M7218 5651c22,0 22,-33 0,-33 -21,0 -21,33 0,33z"/>
   <path class="fil1" d="M7504 5594c21,0 21,-33 0,-33 -22,0 -22,33 0,33z"/>
   <path class="fil1" d="M7800 5023c22,0 22,-33 0,-33 -21,0 -21,33 0,33z"/>
   <path class="fil1" d="M8200 4647c21,0 21,-33 0,-33 -22,0 -22,33 0,33z"/>
   <path class="fil1" d="M8006 4521c21,0 21,-33 0,-33 -22,0 -22,33 0,33z"/>
   <path class="fil1" d="M8029 4259c21,0 21,-33 0,-33 -22,0 -22,33 0,33z"/>
   <path class="fil1" d="M2962 4932c21,0 21,-33 0,-33 -22,0 -22,33 0,33z"/>
   <path class="fil1" d="M2654 4761c21,0 21,-33 0,-33 -22,0 -22,33 0,33z"/>
   <path class="fil1" d="M2243 4727l11 0c9,0 17,-8 17,-17 0,-9 -7,-16 -17,-16l-11 0c-9,0 -17,7 -17,16 1,9 8,17 17,17z"/>
   <path class="fil1" d="M2745 5274l11 0c15,0 29,-13 28,-28 0,-15 -12,-27 -28,-27l-11 0c-14,0 -28,13 -28,27 1,16 13,28 28,28z"/>
   <path class="fil1" d="M2060 2661c36,0 36,-55 0,-55 -35,0 -35,55 0,55z"/>
   <path class="fil1" d="M2387 6319l0 12c0,20 18,39 39,38 21,-1 38,-17 38,-38l0 -12c0,-20 -17,-40 -38,-39 -21,1 -39,17 -39,39z"/>
   <path class="fil1" d="M4560 3631c49,0 50,-78 0,-78 -50,0 -51,78 0,78z"/>
   <path class="fil1" d="M1604 3631c50,0 50,-78 0,-78 -50,0 -50,78 0,78z"/>
   <path class="fil1" d="M8104 6463c-4,4 -8,8 -12,11 -14,15 -15,41 0,55 16,14 40,16 55,0 4,-4 8,-7 12,-11 14,-15 15,-41 0,-55 -16,-14 -40,-15 -55,0z"/>
   <path class="fil1" d="M6260 7830c50,0 50,-78 0,-78 -50,0 -50,78 0,78z"/>
   <path class="fil1" d="M4251 6712c50,0 50,-78 0,-78 -50,0 -50,78 0,78z"/>
   <path class="fil1" d="M6477 3927l11 0c20,0 40,-18 39,-38 -1,-22 -17,-39 -39,-39l-11 0c-21,0 -40,18 -39,39 1,21 17,38 39,38z"/>
   <path class="fil1" d="M2934 2987l0 11c0,21 18,40 39,39 21,-1 39,-17 39,-39l0 -11c0,-20 -18,-40 -39,-39 -21,1 -39,17 -39,39z"/>
   <path class="fil1" d="M4092 2318c50,0 50,-77 0,-77 -50,0 -50,77 0,77z"/>
   <path class="fil1" d="M2456 4223c-4,-4 -7,-8 -11,-11 -10,-10 -26,5 -16,15 4,4 8,8 12,12 10,10 25,-6 15,-16z"/>
   <path class="fil1" d="M2448 4425c15,0 15,-23 0,-23 -14,0 -14,23 0,23z"/>
   <path class="fil1" d="M4925 7574l11 0c14,0 14,-22 0,-22l-11 0c-15,0 -15,22 0,22z"/>
   <path class="fil1" d="M1558 5349c15,0 15,-22 0,-22 -14,0 -14,22 0,22z"/>
   <path class="fil1" d="M2235 4908c-4,4 -7,7 -11,11 -10,10 5,26 15,16 4,-4 8,-8 12,-12 10,-10 -6,-25 -16,-15z"/>
   <path class="fil1" d="M5769 5554c14,0 14,-22 0,-22 -14,0 -14,22 0,22z"/>
   <path class="fil1" d="M6035 5809c-4,4 -7,8 -11,12 -10,10 5,25 15,15 4,-3 8,-7 12,-11 10,-10 -6,-26 -16,-16z"/>
   <path class="fil1" d="M5552 5965c15,0 15,-22 0,-22 -14,0 -14,22 0,22z"/>
   <path class="fil1" d="M5484 6410l0 12c0,14 22,14 22,0l0 -12c0,-14 -22,-14 -22,0z"/>
   <path class="fil1" d="M7161 4881l12 0c14,0 14,-22 0,-22l-12 0c-14,0 -14,22 0,22z"/>
   <path class="fil1" d="M7435 4573c14,0 15,-22 0,-22 -14,0 -14,22 0,22z"/>
   <path class="fil1" d="M4343 2370c14,0 14,-22 0,-22 -15,0 -15,22 0,22z"/>
   <path class="fil1" d="M4514 2382c14,0 14,-22 0,-22 -14,0 -14,22 0,22z"/>
   <path class="fil1" d="M4639 2279l12 0c14,0 14,-22 0,-22l-12 0c-14,0 -14,22 0,22z"/>
   <path class="fil1" d="M4582 2154c15,0 15,-23 0,-23 -14,0 -14,23 0,23z"/>
   <path class="fil1" d="M4366 2142c14,0 14,-22 0,-22 -15,0 -15,22 0,22z"/>
   <path class="fil1" d="M2802 2804c14,0 14,-22 0,-22 -14,0 -14,22 0,22z"/>
   <path class="fil1" d="M2585 2987c15,0 15,-22 0,-22 -14,0 -14,22 0,22z"/>
   <path class="fil1" d="M2642 2827c15,0 15,-22 0,-22 -14,0 -14,22 0,22z"/>
   <path class="fil1" d="M2756 2918c15,0 15,-22 0,-22 -14,0 -14,22 0,22z"/>
   <path class="fil1" d="M2180 2806c-8,-4 -15,-7 -23,-11 -12,-7 -24,13 -11,19 8,4 15,8 23,11 13,7 24,-12 11,-19z"/>
   <path class="fil1" d="M1901 2895c14,0 14,-22 0,-22 -15,0 -15,22 0,22z"/>
   <path class="fil1" d="M1741 3540c21,0 21,-33 0,-33 -22,0 -22,33 0,33z"/>
   <path class="fil1" d="M1752 3688c22,0 22,-33 0,-33 -21,0 -21,33 0,33z"/>
   <path class="fil1" d="M1524 3478c3,4 7,8 11,11 6,7 17,7 24,0 6,-6 6,-17 0,-23 -4,-4 -8,-8 -12,-11 -6,-7 -17,-7 -23,0 -7,6 -7,17 0,23z"/>
   <path class="fil1" d="M8268 6621c22,0 22,-33 0,-33 -21,0 -21,33 0,33z"/>
   <path class="fil1" d="M8291 6518c21,0 22,-33 0,-33 -21,0 -21,33 0,33z"/>
   <path class="fil1" d="M8428 6621c21,0 21,-33 0,-33 -21,0 -21,33 0,33z"/>
   <path class="fil1" d="M8234 6758c21,0 21,-33 0,-33 -21,0 -21,33 0,33z"/>
   <path class="fil1" d="M8394 6701c21,0 21,-33 0,-33 -22,0 -22,33 0,33z"/>
   <path class="fil1" d="M1884 5167l0 11c0,9 8,17 17,17 9,-1 16,-8 16,-17l0 -11c0,-9 -7,-17 -16,-17 -9,0 -17,7 -17,17z"/>
   <path class="fil1" d="M1775 5332c21,0 22,-34 0,-34 -21,0 -21,34 0,34z"/>
   <path class="fil1" d="M1707 5206c21,0 21,-33 0,-33 -22,0 -22,33 0,33z"/>
   <path class="fil1" d="M1878 5081c21,0 21,-34 0,-34 -22,0 -22,34 0,34z"/>
   <path class="fil1" d="M1832 5240c22,0 22,-33 0,-33 -21,0 -21,33 0,33z"/>
   <path class="fil1" d="M1610 5075l0 7c0,21 33,21 33,0l0 -7c0,-21 -33,-21 -33,0l0 7c0,21 33,21 33,0l0 -7c0,-21 -33,-21 -33,0z"/>
   <path class="fil1" d="M1684 5029c28,0 28,-44 0,-44 -29,0 -29,44 0,44z"/>
   <path class="fil1" d="M1821 5189c28,0 28,-45 0,-45 -29,0 -29,45 0,45z"/>
   <path class="fil1" d="M7652 4561c29,0 29,-44 0,-44 -29,0 -29,44 0,44z"/>
   <path class="fil1" d="M2814 3819c28,0 28,-44 0,-44 -29,0 -29,44 0,44z"/>
   <path class="fil1" d="M3966 2371l0 11c0,14 23,14 23,0l0 -11c0,-14 -23,-15 -23,0z"/>
   <path class="fil1" d="M4000 2245c15,0 15,-22 0,-22 -14,0 -14,22 0,22z"/>
   <path class="fil1" d="M8633 5714c15,0 15,-22 0,-22 -14,0 -14,22 0,22z"/>
   <path class="fil1" d="M8690 5623c15,0 15,-22 0,-22 -14,0 -14,22 0,22z"/>
   <path class="fil1" d="M8736 5726l0 11c0,14 23,14 23,0l0 -11c0,-14 -23,-15 -23,0z"/>
   <path class="fil1" d="M8816 5634c29,0 29,-45 0,-45 -29,0 -29,45 0,45z"/>
   <path class="fil1" d="M8565 5714c28,0 29,-45 0,-45 -29,0 -29,45 0,45z"/>
   <path class="fil1" d="M4708 2222c28,0 28,-45 0,-45 -29,0 -29,45 0,45z"/>
   <path class="fil1" d="M4400 2257l0 6c0,28 45,29 45,0l0 -6c0,-29 -45,-29 -45,0l0 6c0,28 45,29 45,0l0 -6c0,-29 -45,-29 -45,0z"/>
   <path class="fil1" d="M5552 1594c29,0 29,-44 0,-44 -28,0 -28,44 0,44z"/>
   <path class="fil1" d="M5644 1457c28,0 28,-44 0,-44 -29,0 -29,44 0,44z"/>
   <path class="fil1" d="M3510 7836c28,0 28,-44 0,-44 -29,0 -29,44 0,44z"/>
   <path class="fil1" d="M3354 7830c4,-4 8,-8 12,-12 8,-8 8,-23 0,-31 -9,-8 -23,-9 -32,0 -4,4 -7,8 -11,11 -8,9 -9,24 0,32 9,8 22,9 31,0z"/>
   <path class="fil1" d="M3384 7973l12 0c11,0 22,-10 22,-22 -1,-12 -10,-22 -22,-22l-12 0c-11,0 -23,10 -22,22 0,12 10,22 22,22z"/>
   <path class="fil1" d="M2163 2130c29,0 29,-44 0,-44 -28,0 -29,44 0,44z"/>
   <path class="fil1" d="M2026 2005c29,0 29,-44 0,-44 -28,0 -28,44 0,44z"/>
   <path class="fil1" d="M1672 2028c29,0 29,-45 0,-45 -28,0 -28,45 0,45z"/>
   <path class="fil1" d="M1856 1755l0 11c0,12 10,23 22,22 12,0 22,-10 22,-22l0 -11c0,-12 -10,-23 -22,-23 -12,1 -22,10 -22,23z"/>
   <path class="fil1" d="M3202 2439c14,0 14,-22 0,-22 -15,0 -15,22 0,22z"/>
   <path class="fil1" d="M3247 2279c14,0 14,-22 0,-22 -14,0 -14,22 0,22z"/>
   <path class="fil1" d="M3373 2222c14,0 14,-22 0,-22 -15,0 -15,22 0,22z"/>
   <path class="fil1" d="M3281 2085c15,0 15,-22 0,-22 -14,0 -14,22 0,22z"/>
   <g>
    <path class="fil3" d="M8057 2971c0,-536 434,-970 970,-970 536,0 970,434 970,970 0,536 -434,970 -970,970 -536,0 -970,-434 -970,-970z"/>
    <path class="fil4" d="M9777 2356c138,167 220,382 220,615 0,536 -434,970 -970,970 -299,0 -567,-135 -745,-348 0,0 733,281 1184,-169 450,-451 311,-1068 311,-1068z"/>
   </g>
   <g>
    <path class="fil5" d="M6830 1840c0,189 -153,343 -342,343 -189,0 -342,-154 -342,-343 0,-189 153,-342 342,-342 189,0 342,153 342,342z"/>
    <path class="fil6" d="M6224 2057c-49,-59 -78,-134 -78,-217 0,-189 153,-342 342,-342 106,0 200,48 263,123 0,0 -259,-99 -418,60 -159,159 -109,376 -109,376z"/>
   </g>
   <g>
    <path class="fil7" d="M4054 7241c0,-136 -109,-245 -245,-245 -135,0 -244,109 -244,245 0,135 109,244 244,244 136,0 245,-109 245,-244z"/>
    <path class="fil8" d="M3620 7085c-34,43 -55,97 -55,156 0,135 109,244 244,244 76,0 143,-34 188,-87 0,0 -185,70 -298,-43 -114,-114 -79,-270 -79,-270z"/>
   </g>
   <g>
    <path class="fil7" d="M13375 6603c0,120 -97,217 -217,217 -119,0 -216,-97 -216,-217 0,-120 97,-217 216,-217 120,0 217,97 217,217z"/>
    <path class="fil8" d="M12991 6741c-31,-38 -49,-86 -49,-138 0,-120 97,-217 216,-217 67,0 127,30 167,78 0,0 -164,-63 -265,38 -100,101 -69,239 -69,239z"/>
   </g>
   <g>
    <path class="fil9" d="M3637 4390c0,0 30,-101 39,-188 8,-88 49,-216 70,-272 21,-57 139,-221 161,-315l-142 -468 -370 1026c0,0 124,66 171,112 48,47 71,105 71,105z"/>
    <path class="fil9" d="M3032 4625c0,0 -119,3 -191,-77 -110,-124 -171,-365 0,-478l464 150 -273 405z"/>
    <path class="fil10" d="M4339 2552c0,215 -174,388 -388,388 -214,0 -388,-173 -388,-388 0,-214 174,-388 388,-388 214,0 388,174 388,388z"/>
    <path class="fil11" d="M4131 2896c124,-65 208,-195 208,-344 0,-111 -47,-212 -123,-282 0,0 130,174 93,340 -40,175 -178,286 -178,286z"/>
    <path class="fil12" d="M4140 2415c0,0 48,-30 95,-79 47,-49 42,-74 40,-85 -1,-10 -146,-124 -237,-157 -90,-33 -271,-57 -396,33 -126,89 -162,271 -172,337 0,0 152,50 291,142 138,93 250,236 250,236l28 -55 12 -237 89 -135z"/>
    <path class="fil13" d="M3642 2127c125,-90 306,-66 396,-33 91,33 236,147 237,157 2,11 7,36 -40,85 0,0 33,-46 8,-85 -25,-40 -241,-201 -427,-180 -156,18 -174,56 -174,56z"/>
    <path class="fil14" d="M4044 2548l17 -143 -8 -40c-50,15 -85,61 -85,116 0,36 16,69 42,92l34 -25z"/>
    <path class="fil15" d="M4170 2481c0,44 -37,80 -81,80 -45,0 -81,-36 -81,-80 0,-45 36,-81 81,-81 44,0 81,36 81,81z"/>
    <path class="fil14" d="M4143 2481c0,29 -24,53 -54,53 -30,0 -54,-24 -54,-53 0,-30 24,-54 54,-54 30,0 54,24 54,54z"/>
    <path class="fil16" d="M3989 2603c-35,-29 -58,-73 -58,-122 0,-68 43,-126 103,-148l19 32c-50,15 -85,61 -85,116 0,36 16,69 42,92l-21 30z"/>
    <path class="fil14 str0" d="M3564 2441c-4,20 -23,33 -43,30 -19,-4 -32,-23 -28,-43 4,-20 23,-33 42,-30 20,4 33,23 29,43z"/>
    <path class="fil14 str0" d="M3887 2123c-4,19 -22,31 -40,28 -18,-4 -30,-22 -26,-40 3,-19 21,-31 39,-27 18,3 30,21 27,39z"/>
    <path class="fil15" d="M3551 2448c25,-41 19,-91 -1,-133 -8,-17 -25,-35 -28,-55 -6,-39 44,-72 73,-89 73,-43 171,-50 252,-29 33,9 43,-43 10,-52 -90,-23 -197,-13 -279,30 -50,27 -116,77 -109,142 7,57 72,102 35,163 -18,29 29,52 47,23z"/>
    <path class="fil14" d="M3404 2554l66 -90c0,0 438,139 604,454 0,0 -486,-240 -670,-364z"/>
    <path class="fil15" d="M3484 2604c0,0 241,60 348,132 106,72 252,182 266,211 14,30 14,50 14,50l-205 -31 -105 -122 -362 -112 44 -128z"/>
    <polygon class="fil15" points="3331,2701 3394,2550 3442,2568 3383,2714 "/>
    <polygon class="fil16" points="3442,2568 3484,2604 3440,2732 3383,2714 "/>
    <path class="fil16" d="M3832 2593c2,11 -6,21 -16,22 -11,2 -21,-6 -23,-17 -2,-11 6,-21 17,-22 11,-2 21,6 22,17z"/>
    <path class="fil16" d="M4027 2532c2,11 -6,21 -17,22 -11,2 -21,-6 -22,-16 -2,-11 6,-21 17,-23 11,-2 21,6 22,17z"/>
    <path class="fil14" d="M4003 2547c25,8 55,24 63,51 21,68 -55,76 -97,64 -53,-14 -104,-44 -148,-76 -14,-9 -29,11 -16,21 59,42 155,105 231,84 40,-11 67,-60 55,-100 -10,-34 -46,-58 -78,-68 -16,-5 -26,18 -10,24z"/>
    <path class="fil17" d="M3637 4390c0,0 100,81 69,540 -31,459 -5,372 -21,452 -15,79 -48,87 -54,130 -5,44 -53,126 -110,185 -56,59 -295,239 -338,264 -44,26 -108,64 -126,85 -18,20 -77,-3 -77,-3 0,0 -30,-24 -33,-69 -4,-45 -35,-58 -45,-77 -11,-19 -5,-51 -20,-67 -14,-15 -83,-44 -94,-71 -12,-27 -21,-36 -36,-41 -16,-5 -35,-11 -45,-31 -11,-21 -16,-9 -37,-12 -22,-2 -31,-1 -48,-21 -17,-21 -22,-13 -40,-12 -18,1 -25,46 -25,46 0,0 -13,-14 -17,-27 -4,-13 0,-27 8,-33 7,-7 11,-4 19,-14 8,-11 41,-30 68,-28 27,1 60,-17 78,-42 18,-24 35,-30 57,-48 21,-18 27,-57 55,-67 28,-10 47,-46 75,-56 29,-11 54,-41 59,-66 6,-24 48,-60 82,-69 0,0 -1,-204 15,-232 15,-28 42,-53 43,-71 1,-18 -29,-79 -29,-146 0,-67 11,-90 -2,-113 -12,-23 -39,-31 -41,-84 -1,-54 -38,-139 104,-304 150,-175 341,-112 404,-75 63,37 102,177 102,177z"/>
    <path class="fil18" d="M2707 5687c-11,-21 -16,-9 -37,-12 -22,-2 -31,-1 -48,-21 -17,-21 -22,-13 -40,-12 -18,1 -25,46 -25,46 0,0 -13,-14 -17,-27 -4,-13 0,-27 8,-33 7,-7 11,-4 19,-14 8,-11 41,-30 68,-28 27,1 60,-17 78,-42 18,-24 35,-30 57,-48 21,-18 27,-57 55,-67 28,-10 47,-46 75,-56 29,-11 54,-41 59,-66 6,-24 48,-60 82,-69 0,0 -1,-204 15,-232 15,-28 42,-53 43,-71 1,-18 -29,-79 -29,-146 0,-67 11,-90 -2,-113 -11,-20 -34,-29 -39,-69 0,0 23,64 70,64 48,0 56,62 26,92 -30,31 -2,36 18,111 19,74 -11,83 -24,139 -13,56 13,63 6,100 -6,37 -45,30 -32,69 13,38 25,116 -8,116 -33,0 -100,27 -100,50 0,23 -38,87 -74,87 -36,0 -67,44 -93,106 -25,61 -58,27 -84,54 -26,26 -27,92 -27,92z"/>
    <path class="fil19" d="M2559 5705l-2 -17c0,0 -12,-36 4,-51 15,-16 239,-3 357,174 118,177 75,236 75,236l-52 19c0,0 -56,18 -107,-29 -52,-47 -275,-332 -275,-332z"/>
    <path class="fil17" d="M2072 6104c0,0 37,-38 97,-49 61,-12 89,-42 104,-56 16,-15 27,-18 49,-36 22,-18 121,-103 150,-148 30,-45 54,-100 96,-115 43,-16 184,86 244,197 60,112 46,109 46,134l15 28c0,0 44,-21 62,-30 0,0 13,22 6,37 0,0 -187,83 -248,125 -62,42 -233,156 -241,224 -9,68 14,132 24,159 10,27 46,113 31,171 -16,58 -23,100 -72,123 0,0 -48,-3 -109,-117 -62,-114 -84,-198 -103,-270 -19,-72 -24,-93 -69,-145 -45,-53 -35,-59 -31,-85 4,-25 36,-70 36,-70l-87 -77z"/>
    <path class="fil18" d="M2159 6181l-87 -77c0,0 37,-38 97,-49 61,-12 89,-42 104,-56 16,-15 27,-18 49,-36 22,-18 121,-103 150,-148 30,-45 54,-100 96,-115 25,-9 85,22 141,72 0,0 -145,33 -171,112 -25,80 -276,165 -302,231 -26,67 -77,66 -77,66z"/>
    <path class="fil19" d="M1936 6197c0,0 -9,76 33,144 43,68 96,109 108,155 12,46 -3,121 45,193 47,71 140,191 306,179l-330 -580 -65 -70 -97 -21z"/>
    <path class="fil9" d="M1936 6197l36 -64 100 -29c0,0 73,34 92,64 19,29 -15,64 -19,81 -4,16 -15,33 5,57 21,25 57,70 66,91 8,22 91,204 91,204 0,0 29,-24 61,-9 32,16 51,93 66,97 14,3 61,-66 61,-66 0,0 32,81 9,150 -23,69 -50,87 -69,95 -19,8 -103,-59 -199,-244 -96,-184 -97,-228 -123,-268 -26,-39 -36,-86 -89,-124l-88 -35z"/>
    <path class="fil17" d="M1982 5596c0,0 50,19 68,19 18,0 23,-17 39,-14 15,2 83,-21 106,-36 23,-15 50,-31 65,-37 16,-7 59,-26 72,-35 13,-9 26,-33 52,-43 25,-11 62,-36 83,-59 20,-23 41,-79 67,-99 25,-21 48,-31 59,-51 10,-21 16,-45 32,-53 15,-8 34,-23 38,-35 4,-11 14,2 48,-37 33,-38 34,-81 62,-115 29,-35 30,-34 41,-68 12,-35 33,-35 38,-54 5,-19 33,-46 36,-76 2,-29 51,-43 56,-64 5,-20 88,-114 88,-114 0,0 -251,-48 -261,-278 -9,-210 67,-276 70,-277l-188 -66c0,0 -22,67 -26,94 -4,27 -22,47 -37,56 -15,9 -49,82 -55,107 -7,24 -90,102 -116,172 -25,69 -6,84 -34,102 -28,18 -55,33 -84,64 -28,31 -70,67 -89,87 -20,21 -52,31 -62,59 -10,29 -6,38 -15,59 -9,22 -20,70 -13,86 0,0 -7,11 -5,21 1,10 -39,19 -40,31 -1,11 -14,30 -33,33 -20,3 -67,-5 -81,14 -14,19 -13,28 -23,32 -10,4 -16,16 -16,23 0,8 -34,18 -53,35 -20,17 -15,42 -43,47 -28,6 -51,17 -68,41l222 429z"/>
    <path class="fil18" d="M1851 5344l-91 -177c17,-24 40,-35 68,-41 28,-5 23,-30 43,-47 19,-17 53,-27 53,-35 0,-7 6,-19 16,-23 10,-4 9,-13 23,-32 14,-19 61,-11 81,-14 19,-3 32,-22 33,-33 1,-12 41,-21 40,-31 -2,-10 5,-21 5,-21 -7,-16 4,-64 13,-86 9,-21 5,-30 15,-59 10,-28 42,-38 62,-59 19,-20 61,-56 89,-87 29,-31 56,-46 84,-64 28,-18 9,-33 34,-102 26,-70 109,-148 116,-172 6,-25 40,-98 55,-107 15,-9 33,-29 37,-56 4,-27 26,-94 26,-94l79 28c0,0 16,95 -29,141 -45,45 -113,52 -113,116 0,64 -3,183 -52,199 -48,16 -79,120 -79,166 0,45 -67,40 -111,84 -17,17 -5,78 -28,116 -22,38 -64,12 -72,33 -20,46 -15,98 -48,107 -77,21 -123,36 -164,77 -41,41 -34,70 -62,98 -28,28 -123,108 -123,175z"/>
    <path class="fil19" d="M1728 5282c0,0 -14,-75 32,-115 46,-39 199,27 291,158 93,131 62,216 34,240 -29,24 -77,9 -77,9l-280 -292z"/>
    <path class="fil17" d="M1254 6237c0,0 55,-11 89,-33 35,-22 54,-53 58,-75 3,-22 29,-109 44,-135 16,-27 34,-32 46,-41 12,-10 64,-63 74,-82 10,-20 91,-84 170,-140 79,-55 235,-118 291,-167 55,-50 -19,-174 -76,-227 -58,-53 -124,-81 -165,-84 -40,-4 -64,35 -84,73 -21,38 -156,181 -207,235 -51,54 -249,233 -249,233l9 443z"/>
    <path class="fil18" d="M1456 5942l-211 -148c0,0 198,-179 249,-233 51,-54 186,-197 207,-235 20,-38 44,-77 84,-73 41,3 107,31 165,84 0,0 -88,17 -209,101 -285,198 -285,504 -285,504z"/>
    <path class="fil19" d="M1215 5847c0,0 14,-65 75,-74 62,-8 151,58 166,113 16,55 -12,82 -34,92 -22,11 -59,29 -66,44 -7,15 -25,44 -31,91 -6,47 -10,93 -38,112 -28,18 -51,15 -71,1 -20,-15 -150,-143 -166,-160 -15,-17 -24,-48 -21,-82 2,-32 14,-53 59,-86 54,-40 78,-21 127,-51z"/>
    <path class="fil19" d="M2333 3029c0,0 -36,-24 -47,-40 -10,-15 -32,-20 -44,-20 -12,0 -24,-5 -30,19 -2,6 -9,15 -9,15 0,0 -17,8 -30,12 -13,3 -29,25 -34,50 0,0 -28,8 -32,23 -4,14 -3,58 -3,58 0,0 -23,11 -22,30 1,18 3,63 12,71 10,7 11,18 27,12 15,-7 26,-23 29,-32 2,-9 2,-17 2,-17 0,0 45,25 95,45l86 -226z"/>
    <path class="fil17" d="M2243 3182c3,-43 17,-80 43,-112 27,-31 66,-54 96,-54 30,0 35,3 42,-5 7,-7 33,-28 54,-31 21,-4 24,-4 32,-8 7,-4 44,-20 65,-18 22,3 220,-147 389,-181l-269 582c0,0 -93,25 -128,14 -35,-11 -71,6 -87,0 -17,-6 -45,-18 -53,-17 -9,1 -62,13 -93,-2 -32,-14 -100,-58 -91,-168z"/>
    <path class="fil18" d="M2802 3122l-107 233c0,0 -93,25 -128,14 -35,-11 -71,6 -87,0 -17,-6 -45,-18 -53,-17 -9,1 -62,13 -93,-2 -32,-14 -100,-58 -91,-168 0,0 17,108 90,120 72,12 34,-21 88,-21 54,0 19,40 75,40 56,0 79,-40 121,-40 42,0 185,-159 185,-159z"/>
    <path class="fil12" d="M3305 4220c0,0 -89,-34 -69,-220 21,-187 130,-481 199,-657 68,-176 205,-434 367,-499 0,0 -528,-163 -567,-175 -40,-11 -171,-32 -231,48 -60,81 -195,327 -253,481 -58,154 -185,518 -175,643 11,125 58,157 101,171 43,14 628,208 628,208z"/>
    <path class="fil20" d="M3656 2799c84,26 146,45 146,45 -162,65 -299,323 -367,499 -69,176 -178,471 -199,657 -20,186 69,220 69,220 0,0 -69,-23 -162,-53 0,0 -30,-29 -55,-140 -26,-111 46,-331 71,-402 26,-70 -32,-92 -54,-101 -22,-8 -205,-64 -255,-80 -50,-15 -65,5 -84,38 -19,32 -77,154 -97,267 -21,112 64,281 64,281 -29,-9 -49,-16 -56,-18 -43,-14 -90,-46 -101,-171 -10,-125 117,-489 175,-643 58,-154 193,-400 253,-481 60,-80 191,-59 231,-48 5,2 17,6 34,11 0,0 -101,48 -123,77 -22,29 -41,61 0,78 41,17 258,81 285,91 28,10 65,24 103,-27 38,-52 122,-100 122,-100z"/>
    <path class="fil15" d="M3305 4220c0,0 -89,-34 -69,-220 21,-187 130,-481 199,-657 68,-176 205,-434 367,-499l81 116 -488 1213 -90 47z"/>
    <polygon class="fil14" points="3395,4173 3483,4114 3948,3005 3802,2844 3883,2960 "/>
    <path class="fil15" d="M3299 3218c-17,100 -112,167 -212,150 -100,-17 -167,-111 -151,-211 17,-99 112,-167 212,-150 100,17 168,111 151,211z"/>
    <path class="fil14" d="M3243 3201c-13,78 -87,131 -166,118 -79,-13 -132,-88 -119,-166 14,-78 88,-131 167,-118 78,13 132,87 118,166z"/>
    <path class="fil16" d="M3801 2783c0,24 -20,44 -44,44 -24,0 -43,-20 -43,-44 0,-24 19,-43 43,-43 24,0 44,19 44,43z"/>
    <path class="fil14" d="M3532 3345c-31,-8 -62,-25 -85,-47 -59,-57 -27,-136 9,-195 42,-70 97,-138 152,-199 34,-37 90,-71 135,-75 49,-4 49,-81 0,-77 -69,6 -137,42 -184,92 -70,75 -146,166 -191,260 -37,76 -47,164 10,233 34,40 84,69 134,83 48,13 68,-62 20,-75z"/>
    <path class="fil14 str0" d="M3134 3151c-7,43 -47,72 -90,64 -43,-7 -72,-47 -65,-90 7,-42 48,-71 91,-64 42,7 71,48 64,90z"/>
    <path class="fil15" d="M3045 3058c40,5 6,-1 -5,-5 22,8 -6,-3 -11,-6 -9,-5 -27,-17 -30,-19 -83,-65 -136,-163 -183,-256 -69,-139 -114,-299 -257,-380 -122,-68 -260,-96 -373,-182 -48,-37 -90,-85 -97,-146 -7,-63 18,-130 49,-166 89,-105 239,-159 366,-210 167,-68 339,-129 493,-224 122,-75 261,-187 295,-334 28,-124 -30,-233 -106,-327 -99,-123 -221,-225 -321,-347 -109,-131 -185,-284 -192,-456l-154 0c7,172 67,333 167,474 89,126 200,232 307,343 44,46 83,88 114,137 6,10 12,20 18,31 3,7 6,13 9,19 -5,-12 -1,-1 0,1 4,13 8,26 11,39 4,21 -1,-11 0,2 0,8 1,16 1,23 0,20 2,1 -3,20 -2,7 -12,38 -9,30 -12,28 -30,54 -50,77 -55,64 -122,112 -194,153 -153,88 -320,145 -482,213 -144,60 -305,126 -401,256 -101,135 -94,323 16,450 52,59 122,103 191,138 32,16 64,30 97,44 29,13 80,33 99,41 32,14 65,29 95,49 22,14 40,34 54,56 57,90 93,194 142,288 68,131 181,307 344,328 41,5 77,-39 77,-77 0,-46 -36,-72 -77,-77z"/>
    <path class="fil21" d="M3122 3135c0,-46 -36,-72 -77,-77 40,5 6,-1 -5,-5 22,8 -6,-3 -11,-6 -9,-5 -27,-17 -30,-19 -83,-65 -136,-163 -183,-256 -69,-139 -114,-299 -257,-380 -122,-68 -260,-96 -373,-182 -48,-37 -90,-85 -97,-146 -7,-63 18,-130 49,-166 89,-105 239,-159 366,-210 167,-68 339,-129 493,-224 122,-75 261,-187 295,-334 28,-124 -30,-233 -106,-327 -99,-123 -221,-225 -321,-347 -109,-131 -185,-284 -192,-456l-29 0c13,114 33,280 142,416 179,224 501,509 470,670 -31,161 -194,308 -423,410 -229,103 -692,194 -769,410 -50,141 -37,266 143,386 171,113 399,135 456,250 56,115 150,407 293,501 121,79 166,92 166,92z"/>
    <path class="fil9" d="M4735 4289c0,0 12,74 46,102 35,27 53,-11 49,-34 -4,-23 -4,-44 -4,-44l-43 -24 -48 0z"/>
    <path class="fil19" d="M4541 4266c0,0 238,19 297,61 0,0 26,53 32,85 6,33 20,32 31,27 11,-4 28,-14 25,-63 -3,-49 -2,-40 -2,-40 0,0 6,67 24,80 18,14 47,5 51,-64 0,0 31,38 42,38 11,0 29,-14 23,-55 -6,-41 -33,-81 -33,-81 0,0 53,12 65,10 12,-2 20,-23 7,-41 -13,-18 -104,-71 -125,-80 -21,-10 -57,-9 -79,-17 -23,-9 -129,-24 -151,-21 -22,3 -79,-32 -79,-32 0,0 -72,81 -128,193z"/>
    <path class="fil17" d="M3932 2958c128,-37 228,57 269,164 41,108 -10,189 13,212 22,22 21,97 23,148 1,31 15,53 27,59 11,7 27,22 29,39 3,16 3,51 35,69 32,18 41,26 47,49 7,23 4,42 25,59 20,16 36,18 45,35 9,17 5,29 20,36 15,6 21,9 30,20 10,11 2,21 14,25 12,4 36,13 43,32 6,18 -9,32 16,47 24,15 36,-5 67,27 31,32 42,69 35,111 -6,42 -47,106 -90,146 -43,39 -75,46 -125,43 -50,-4 -68,-32 -71,-42 -4,-10 -12,-24 -28,-37 -16,-12 -33,-23 -40,-32 -6,-9 -26,-21 -44,-34 -18,-12 -83,-55 -124,-97 -40,-42 -56,-71 -78,-92 -22,-22 -60,-56 -86,-93 -26,-37 -72,-66 -83,-93 -12,-27 -8,-79 -27,-113 -19,-33 -69,-125 -85,-229 -15,-104 -30,-209 13,-332 32,-93 94,-117 130,-127z"/>
    <path class="fil18" d="M4580 4236c-43,39 -75,46 -125,43 -50,-4 -68,-32 -71,-42 -4,-10 -12,-24 -28,-37 -16,-12 -33,-23 -40,-32 -6,-9 -26,-21 -44,-34 -18,-12 -83,-55 -124,-97 -40,-42 -56,-71 -78,-92 -22,-22 -60,-56 -86,-93 -26,-37 -72,-66 -83,-93 -12,-27 -8,-79 -27,-113 -19,-33 -69,-125 -85,-229 -15,-104 -30,-209 13,-332 32,-93 94,-117 130,-127 0,0 -88,91 -75,164 13,74 62,137 32,216 -29,79 -7,169 18,194 25,25 52,106 52,161 0,55 33,67 76,111 43,43 35,91 76,132 41,40 95,41 149,95 53,53 27,101 79,117 52,15 75,-2 110,33 35,35 131,55 131,55z"/>
   </g>
  </g>
 </g>
</svg>
