<?xml version="1.0" encoding="UTF-8"?>
<!DOCTYPE svg PUBLIC "-//W3C//DTD SVG 1.1//EN" "http://www.w3.org/Graphics/SVG/1.1/DTD/svg11.dtd">
<!-- Creator: CorelDRAW X7 -->
<svg xmlns="http://www.w3.org/2000/svg" xml:space="preserve" width="100%" height="100%" version="1.1" style="shape-rendering:geometricPrecision; text-rendering:geometricPrecision; image-rendering:optimizeQuality; fill-rule:evenodd; clip-rule:evenodd"
viewBox="0 0 5000 5000"
 xmlns:xlink="http://www.w3.org/1999/xlink">
 <defs>
  <style type="text/css">
   <![CDATA[
    .fil0 {fill:#B5E4FA}
    .fil1 {fill:#5C56A2}
   ]]>
  </style>
 </defs>
 <g id="Layer_x0020_1">
  <metadata id="CorelCorpID_0Corel-Layer"/>
  <g id="_2381364005520">
   <circle class="fil0" cx="2500" cy="2500" r="2500"/>
   <path class="fil1" d="M1576 2588l79 -7c4,32 13,58 26,79 14,21 36,37 65,50 29,13 62,19 98,19 32,0 61,-5 85,-14 25,-10 44,-23 56,-40 12,-17 18,-35 18,-55 0,-20 -6,-37 -18,-52 -11,-15 -30,-28 -57,-38 -17,-7 -55,-17 -114,-31 -59,-14 -100,-28 -124,-40 -30,-16 -53,-36 -68,-60 -15,-23 -22,-50 -22,-79 0,-33 9,-63 27,-91 19,-28 45,-50 81,-64 35,-15 74,-22 117,-22 47,0 89,7 125,23 37,15 64,38 84,67 19,30 30,64 31,101l-81 6c-4,-40 -19,-70 -44,-91 -25,-21 -63,-31 -112,-31 -51,0 -88,9 -112,28 -23,19 -35,42 -35,68 0,23 8,42 25,57 16,15 59,30 128,45 68,16 116,30 141,41 37,17 65,39 83,65 17,26 26,57 26,91 0,34 -10,66 -29,96 -20,30 -47,54 -84,70 -36,17 -77,25 -123,25 -58,0 -106,-8 -145,-25 -40,-17 -70,-42 -92,-76 -23,-34 -34,-72 -35,-115zm-506 1030l760 0 0 589 686 -589 1414 0 0 -2289 -2860 0 0 2289zm90 -2200l2681 0 0 2111 -1357 0 -565 484 0 -484 -759 0 0 -2111zm1756 1170l80 -7c3,32 12,58 26,79 14,21 35,37 64,50 29,13 62,19 99,19 32,0 60,-5 85,-14 25,-10 43,-23 55,-40 12,-17 18,-35 18,-55 0,-20 -5,-37 -17,-52 -12,-15 -31,-28 -58,-38 -17,-7 -55,-17 -114,-31 -59,-14 -100,-28 -123,-40 -31,-16 -53,-36 -68,-60 -15,-23 -23,-50 -23,-79 0,-33 10,-63 28,-91 18,-28 45,-50 80,-64 35,-15 74,-22 117,-22 48,0 90,7 126,23 36,15 64,38 83,67 20,30 30,64 32,101l-81 6c-5,-40 -19,-70 -45,-91 -25,-21 -62,-31 -111,-31 -51,0 -89,9 -112,28 -24,19 -35,42 -35,68 0,23 8,42 24,57 17,15 59,30 128,45 69,16 116,30 142,41 37,17 64,39 82,65 18,26 27,57 27,91 0,34 -10,66 -30,96 -19,30 -47,54 -83,70 -37,17 -78,25 -124,25 -57,0 -106,-8 -145,-25 -39,-17 -70,-42 -92,-76 -22,-34 -34,-72 -35,-115zm-718 206l0 -640 127 0 151 453c14,42 24,73 30,94 8,-23 19,-57 35,-102l154 -445 113 0 0 640 -81 0 0 -536 -187 536 -76 0 -185 -546 0 546 -81 0z"/>
  </g>
 </g>
</svg>
