<?xml version="1.0" encoding="UTF-8"?>
<!DOCTYPE svg PUBLIC "-//W3C//DTD SVG 1.1//EN" "http://www.w3.org/Graphics/SVG/1.1/DTD/svg11.dtd">
<!-- Creator: CorelDRAW X7 -->
<svg xmlns="http://www.w3.org/2000/svg" xml:space="preserve" width="100%" height="100%" version="1.1" style="shape-rendering:geometricPrecision; text-rendering:geometricPrecision; image-rendering:optimizeQuality; fill-rule:evenodd; clip-rule:evenodd"
viewBox="0 0 5000 5000"
 xmlns:xlink="http://www.w3.org/1999/xlink">
 <defs>
  <style type="text/css">
   <![CDATA[
    .fil0 {fill:#B5E4FA}
    .fil1 {fill:#5C56A2}
   ]]>
  </style>
 </defs>
 <g id="Layer_x0020_1">
  <metadata id="CorelCorpID_0Corel-Layer"/>
  <g id="_2381310347568">
   <circle class="fil0" cx="2500" cy="2500" r="2500"/>
   <path class="fil1" d="M2902 2517c-98,-116 -241,-188 -402,-188 -161,0 -304,72 -402,188 -252,-212 -637,-30 -637,298l0 341 515 0 0 180 1048 0 0 -180 516 0 0 -341c0,-328 -386,-510 -638,-298zm-402 1422c384,0 746,-150 1018,-422 271,-271 421,-633 421,-1017 0,-384 -150,-746 -421,-1018 -272,-271 -634,-421 -1018,-421 -384,0 -746,150 -1017,421 -272,272 -422,634 -422,1018 0,384 150,746 422,1017 271,272 633,422 1017,422zm-955 -2394c255,-255 595,-395 955,-395 360,0 700,140 955,395 255,255 395,595 395,955 0,360 -140,700 -395,955 -255,253 -595,395 -955,395 -360,0 -700,-142 -955,-395 -253,-255 -393,-595 -393,-955 0,-360 140,-700 393,-955zm304 486c60,0 108,48 108,108 0,59 -48,107 -108,107 -59,0 -108,-48 -108,-107 0,-60 49,-108 108,-108zm1302 0c59,0 108,48 108,108 0,59 -49,107 -108,107 -60,0 -108,-48 -108,-107 0,-60 48,-108 108,-108zm-1302 -90c109,0 198,88 198,198 0,109 -89,197 -198,197 -109,0 -197,-89 -197,-197 0,-110 88,-198 197,-198zm448 214c-181,-182 -51,-491 203,-491 254,0 384,309 203,491 -112,111 -294,111 -406,0zm203 -401c-175,0 -264,213 -140,337 77,77 203,77 280,0 124,-124 35,-337 -140,-337zm0 665c173,0 322,101 392,247 27,58 42,121 42,186l0 394 -868 0 0 -394c0,-65 15,-128 42,-186 70,-146 219,-247 392,-247zm-524 427c0,-95 26,-181 70,-256 -192,-169 -496,-31 -496,225l0 251 426 0 0 -220zm1175 -905c-109,0 -198,88 -198,198 0,109 89,197 198,197 109,0 197,-89 197,-197 0,-110 -88,-198 -197,-198zm-127 905c0,-95 -26,-181 -70,-256 192,-169 496,-31 496,225l0 251 -426 0 0 -220z"/>
  </g>
 </g>
</svg>
