<?xml version="1.0" encoding="UTF-8"?>
<!DOCTYPE svg PUBLIC "-//W3C//DTD SVG 1.1//EN" "http://www.w3.org/Graphics/SVG/1.1/DTD/svg11.dtd">
<!-- Creator: CorelDRAW X7 -->
<svg xmlns="http://www.w3.org/2000/svg" xml:space="preserve" width="100%" height="100%" version="1.1" style="shape-rendering:geometricPrecision; text-rendering:geometricPrecision; image-rendering:optimizeQuality; fill-rule:evenodd; clip-rule:evenodd"
viewBox="0 0 5000 5000"
 xmlns:xlink="http://www.w3.org/1999/xlink">
 <defs>
  <style type="text/css">
   <![CDATA[
    .fil0 {fill:#6C87C3}
    .fil1 {fill:white}
   ]]>
  </style>
 </defs>
 <g id="Layer_x0020_1">
  <metadata id="CorelCorpID_0Corel-Layer"/>
  <g id="_2381257472480">
   <circle class="fil0" cx="2500" cy="2500" r="2500"/>
   <path class="fil1" d="M1774 2608c0,-351 57,-658 179,-935 25,-55 52,-109 82,-162l930 0c30,53 57,107 82,162 122,277 179,584 179,935l0 765 -1452 0 0 -765zm1201 1553l0 -536 -84 0 0 536 84 0zm-420 0l0 -536 -84 0 0 536 84 0zm-420 0l0 -536 -84 0 0 536 84 0zm-109 -1841c0,-261 212,-473 474,-473 262,0 474,212 474,473 0,262 -212,474 -474,474 -262,0 -474,-212 -474,-474zm474 -557c-308,0 -558,250 -558,557 0,308 250,558 558,558 308,0 558,-250 558,-558 0,-307 -250,-557 -558,-557zm-306 557c0,-168 137,-305 306,-305 169,0 306,137 306,305 0,169 -137,306 -306,306 -169,0 -306,-137 -306,-306zm306 -389c-215,0 -390,174 -390,389 0,216 175,390 390,390 215,0 390,-174 390,-390 0,-215 -175,-389 -390,-389zm810 1442l0 -927c212,203 346,642 365,927l-365 0zm-1985 0c19,-285 153,-724 365,-927l0 927 -365 0zm1590 -1946l-830 0c108,-170 245,-328 415,-477 170,149 307,307 415,477zm-415 -588l-27 24c-274,234 -469,489 -597,777 -93,211 -150,439 -173,688 -307,209 -455,779 -464,1129l2523 0c-10,-350 -158,-920 -465,-1129 -23,-249 -80,-477 -173,-688 -128,-288 -323,-543 -597,-777l-27 -24z"/>
  </g>
 </g>
</svg>
