<?xml version="1.0" encoding="UTF-8"?>
<!DOCTYPE svg PUBLIC "-//W3C//DTD SVG 1.1//EN" "http://www.w3.org/Graphics/SVG/1.1/DTD/svg11.dtd">
<!-- Creator: CorelDRAW X7 -->
<svg xmlns="http://www.w3.org/2000/svg" xml:space="preserve" width="100%" height="100%" version="1.1" style="shape-rendering:geometricPrecision; text-rendering:geometricPrecision; image-rendering:optimizeQuality; fill-rule:evenodd; clip-rule:evenodd"
viewBox="0 0 5000 5000"
 xmlns:xlink="http://www.w3.org/1999/xlink">
 <defs>
  <style type="text/css">
   <![CDATA[
    .fil1 {fill:#5C56A2}
    .fil0 {fill:#FCE9CA}
   ]]>
  </style>
 </defs>
 <g id="Layer_x0020_1">
  <metadata id="CorelCorpID_0Corel-Layer"/>
  <g id="_2381290655104">
   <circle class="fil0" cx="2500" cy="2500" r="2500"/>
   <path class="fil1" d="M1472 2455l179 0 0 90 -179 0 0 -90zm1698 45c1,66 -8,131 -26,194l80 46c24,-76 37,-157 36,-240 4,-342 -225,-656 -571,-745 -406,-105 -820,140 -925,546 -17,66 -25,132 -24,199 -1,67 7,133 24,199 21,81 54,155 97,222l77 -45c-72,-112 -110,-243 -108,-376 -4,-235 117,-465 335,-590 321,-185 731,-75 916,246 60,105 91,224 89,344zm-645 190l603 216 41 -71 -507 -414 -4 -2c-45,-88 -152,-123 -240,-78 -87,45 -122,152 -77,240 29,56 85,93 148,97l36 12zm373 39l-276 -99c24,-23 42,-53 50,-86l226 185zm-309 -229c0,49 -40,89 -89,89 -49,0 -89,-40 -89,-89 0,-49 40,-89 89,-89 49,0 89,40 89,89zm-89 1439c384,0 746,-150 1018,-422 271,-271 421,-633 421,-1017 0,-384 -150,-746 -421,-1018 -272,-271 -634,-421 -1018,-421 -384,0 -746,150 -1017,421 -272,272 -422,634 -422,1018 0,384 150,746 422,1017 271,272 633,422 1017,422zm-955 -2394c255,-255 595,-395 955,-395 360,0 700,140 955,395 255,255 395,595 395,955 0,360 -140,700 -395,955 -255,253 -595,395 -955,395 -360,0 -700,-142 -955,-395 -253,-255 -393,-595 -393,-955 0,-360 140,-700 393,-955zm1134 1581l-90 0c-24,0 -44,20 -44,44 0,25 20,45 44,45l90 0c24,0 44,-20 44,-45 0,-24 -20,-44 -44,-44zm-268 0l-90 0c-24,0 -44,20 -44,44 0,25 20,45 44,45l90 0c24,0 44,-20 44,-45 0,-24 -20,-44 -44,-44zm268 178l-358 0c-74,0 -134,-60 -134,-134 0,-74 60,-134 134,-134l358 0c74,0 134,60 134,134 0,74 -60,134 -134,134zm0 -357l-358 0c-123,0 -223,100 -223,223 0,124 100,224 223,224l358 0c123,0 223,-100 223,-224 0,-123 -100,-223 -223,-223zm207 -1205l89 -154 78 44 -90 155 -77 -45zm-431 -270l90 0 0 179 -90 0 0 -179zm-508 160l78 -44 89 154 -77 45 -90 -155zm1266 1331l45 -77 154 89 -44 78 -155 -90zm-1625 -938l44 -78 155 90 -45 77 -154 -89zm1625 12l155 -90 44 78 -154 89 -45 -77zm-1626 938l155 -89 45 77 -155 90 -45 -78zm1762 -520l179 0 0 90 -179 0 0 -90z"/>
  </g>
 </g>
</svg>
