<?xml version="1.0" encoding="UTF-8"?>
<!DOCTYPE svg PUBLIC "-//W3C//DTD SVG 1.1//EN" "http://www.w3.org/Graphics/SVG/1.1/DTD/svg11.dtd">
<!-- Creator: CorelDRAW X7 -->
<svg xmlns="http://www.w3.org/2000/svg" xml:space="preserve" width="6.57276in" height="11.1512in" version="1.1" style="shape-rendering:geometricPrecision; text-rendering:geometricPrecision; image-rendering:optimizeQuality; fill-rule:evenodd; clip-rule:evenodd"
viewBox="0 0 65728 111512"
 xmlns:xlink="http://www.w3.org/1999/xlink">
 <defs>
  <style type="text/css">
   <![CDATA[
    .fil0 {fill:#FEFEFE}
    .fil5 {fill:#C4CFE9}
    .fil1 {fill:#F7EFE3}
    .fil2 {fill:#FAF6F0}
    .fil6 {fill:white}
    .fil3 {fill:black;fill-rule:nonzero}
    .fil4 {fill:#C4CFE9;fill-rule:nonzero}
   ]]>
  </style>
 </defs>
 <g id="Layer_x0020_1">
  <metadata id="CorelCorpID_0Corel-Layer"/>
  <g id="_2622940149648">
   <polygon class="fil0" points="65728,0 0,0 0,111512 65728,111512 "/>
   <path class="fil1" d="M34332 14022c-11481,8959 -25087,6667 -34332,1138l0 -15160 44980 0c-1482,4939 -5526,10026 -10648,14022z"/>
   <path class="fil1" d="M65728 46735c-21548,3319 -46054,-1173 -65728,-9061l0 -11189c19110,11110 52271,12575 65728,-2188l0 22438z"/>
   <path class="fil2" d="M65728 66577c-22659,-553 -44407,-7056 -65728,-17645l0 -6971 0 -4287c19674,7888 44180,12380 65728,9061l0 6801 0 13041z"/>
   <g>
    <path class="fil3" d="M23992 35098c6,29 12,62 16,98 5,36 8,79 8,128 0,135 -26,259 -76,371 -51,112 -140,209 -269,292 -129,82 -302,147 -519,193 -216,46 -491,68 -825,68 -323,0 -588,-30 -798,-91 -209,-61 -375,-145 -499,-252 -124,-107 -210,-232 -260,-376 -48,-142 -73,-298 -73,-465l0 -820 641 0 0 799c0,213 79,369 233,466 156,98 411,146 766,146 231,0 415,-13 555,-38 140,-26 249,-59 327,-98 78,-40 129,-81 153,-125 24,-43 36,-80 36,-113 0,-85 -85,-158 -254,-217 -170,-59 -398,-125 -684,-197l0 -589c217,69 424,128 622,177 198,49 375,74 534,74l617 0c26,0 50,2 74,8 25,6 45,18 64,35 17,18 31,44 40,81 10,36 15,85 15,149 0,112 -16,190 -47,232 -32,42 -80,64 -146,64l-251 0zm552 -569c113,0 191,-17 236,-52 44,-34 66,-113 66,-233l0 -1112 642 0 0 1057c0,122 23,209 68,261 46,53 148,79 308,79 26,0 50,2 73,8 23,6 44,18 62,35 17,18 31,44 42,81 11,36 16,85 16,149 0,112 -16,190 -47,232 -31,42 -80,64 -146,64 -95,0 -187,-16 -277,-47 -88,-31 -163,-100 -223,-204 -40,57 -88,101 -143,135 -55,34 -114,59 -177,76 -63,17 -128,28 -196,33 -67,4 -134,7 -200,7l-405 0c-26,0 -50,-3 -73,-7 -24,-5 -45,-17 -64,-35 -18,-19 -32,-46 -42,-82 -10,-37 -14,-86 -14,-149 0,-112 16,-190 47,-233 32,-42 80,-63 146,-63l301 0zm-173 -2251c0,-95 34,-177 103,-247 70,-70 153,-105 249,-105 95,0 177,34 246,103 69,70 104,153 104,249 0,95 -35,177 -104,246 -69,69 -151,104 -246,104 -95,0 -177,-35 -247,-104 -70,-69 -105,-151 -105,-246zm806 0c0,-95 34,-177 103,-247 70,-70 151,-105 247,-105 94,0 177,34 247,103 70,70 104,153 104,249 0,95 -34,177 -104,246 -69,69 -151,104 -247,104 -96,0 -177,-35 -247,-104 -69,-69 -103,-151 -103,-246zm1835 2251c69,0 136,-14 198,-41 63,-27 94,-85 94,-171 0,-60 -37,-140 -111,-239 -74,-100 -172,-206 -294,-319 -123,-113 -261,-224 -415,-334 -155,-110 -311,-206 -470,-288 22,-110 49,-199 81,-270 33,-71 66,-128 98,-171 33,-42 66,-74 97,-96 31,-21 57,-37 76,-47l1724 -760 0 661 -1167 485 0 15c197,128 361,255 490,380 128,126 231,248 308,366 78,119 131,230 161,338 30,107 44,207 44,300 0,79 -10,162 -32,251 -22,88 -64,171 -126,247 -61,77 -149,139 -264,189 -114,48 -263,73 -446,73l-1196 0c-26,0 -51,-3 -74,-7 -24,-5 -44,-17 -63,-35 -18,-19 -32,-46 -42,-82 -10,-37 -14,-86 -14,-149 0,-112 16,-190 47,-233 31,-42 80,-63 146,-63l1150 0zm2871 569c-44,0 -103,-10 -179,-31 -76,-19 -142,-62 -198,-128 -3,223 -29,410 -78,561 -49,150 -123,271 -222,364 -99,92 -224,158 -375,197 -151,40 -333,61 -545,64l0 -602c135,-4 242,-19 322,-48 79,-28 139,-69 179,-125 39,-55 64,-127 76,-215 11,-87 16,-193 16,-315l0 -1471 637 0 0 840c0,128 39,217 117,266 78,49 162,74 250,74 25,0 50,2 73,8 24,6 44,18 63,35 18,18 32,44 42,81 10,36 14,85 14,149 0,112 -15,190 -47,232 -31,42 -79,64 -145,64zm200 -569c72,0 132,-2 179,-5 48,-3 87,-13 116,-29 30,-16 51,-40 65,-71 14,-32 21,-75 21,-132l0 -943 632 0 0 840c0,105 28,189 86,249 57,61 146,91 268,91 96,0 177,-15 246,-44 68,-28 102,-93 102,-193l0 -943 641 0 0 840c0,226 98,340 292,340l307 0 0 -1397 641 0 0 1966 -755 0c-175,0 -307,-21 -397,-62 -89,-41 -164,-105 -225,-194 -50,63 -103,111 -159,145 -56,34 -115,59 -174,76 -59,17 -118,27 -175,30 -57,3 -112,5 -165,5 -167,0 -308,-27 -422,-82 -114,-55 -196,-112 -244,-174 -88,116 -204,188 -346,215 -142,27 -323,41 -544,41l-193 0c-25,0 -50,-3 -73,-7 -24,-5 -45,-17 -63,-35 -19,-19 -33,-46 -42,-82 -10,-37 -14,-86 -14,-149 0,-112 15,-190 46,-233 32,-42 80,-63 146,-63l203 0zm1259 -2251c0,-95 34,-177 103,-247 69,-70 153,-105 249,-105 95,0 177,34 246,103 69,70 104,153 104,249 0,95 -35,177 -104,246 -69,69 -151,104 -246,104 -95,0 -177,-35 -247,-104 -70,-69 -105,-151 -105,-246zm806 0c0,-95 34,-177 103,-247 69,-70 151,-105 246,-105 95,0 177,34 247,103 70,70 105,153 105,249 0,95 -35,177 -104,246 -69,69 -151,104 -248,104 -95,0 -177,-35 -246,-104 -69,-69 -103,-151 -103,-246zm-392 -716c0,-95 35,-177 104,-247 69,-70 153,-106 249,-106 95,0 177,35 246,104 69,69 104,152 104,249 0,94 -35,177 -104,246 -69,69 -151,104 -246,104 -95,0 -177,-35 -247,-104 -70,-69 -106,-152 -106,-246zm3600 2252c0,41 5,83 14,126 10,43 28,83 54,117 27,35 62,64 106,87 45,24 102,35 171,35 43,0 87,-2 131,-5 44,-3 89,-13 136,-29l0 -682 -246 0c-122,0 -214,32 -275,96 -61,64 -91,149 -91,255zm1377 1284c-79,0 -155,-6 -229,-17 -75,-11 -143,-32 -205,-61 -63,-30 -118,-71 -165,-122 -48,-52 -85,-119 -110,-200 -56,12 -114,23 -174,32 -59,9 -119,13 -178,13 -82,0 -178,-12 -286,-37 -109,-25 -212,-71 -309,-137 -97,-65 -180,-157 -247,-275 -68,-117 -101,-267 -101,-450 0,-182 32,-335 96,-460 64,-125 146,-227 247,-306 101,-79 212,-137 336,-172 122,-34 243,-52 363,-52l839 0 0 1479c0,76 10,128 30,155 20,27 66,41 139,41l118 0c26,0 50,2 73,8 23,6 45,18 63,35 19,18 33,44 43,81 9,36 14,85 14,149 0,112 -16,190 -47,232 -31,42 -80,64 -146,64l-164 0zm1932 -569c-9,-133 -31,-254 -64,-363 -33,-110 -82,-205 -148,-284 -66,-78 -152,-140 -259,-185 -107,-43 -240,-65 -397,-65 -54,0 -136,7 -248,21 -111,15 -226,39 -346,72l0 -573c76,-27 180,-54 312,-84 131,-29 265,-45 400,-45 247,0 457,41 630,121 173,81 314,190 423,328 108,138 188,300 238,482 51,184 79,375 86,575l321 0c26,0 50,2 73,8 24,6 45,18 63,35 19,18 33,44 43,81 9,36 14,85 14,149 0,112 -16,190 -47,232 -31,42 -80,64 -146,64l-2716 0c-25,0 -50,-3 -73,-7 -24,-5 -45,-17 -64,-35 -18,-19 -32,-46 -42,-82 -9,-37 -14,-86 -14,-149 0,-112 16,-190 47,-233 32,-42 80,-63 146,-63l1768 0zm-1166 -2251c0,-95 35,-177 104,-247 69,-70 152,-105 248,-105 95,0 177,34 246,103 70,70 104,153 104,249 0,95 -34,177 -104,246 -69,69 -151,104 -246,104 -94,0 -177,-35 -247,-104 -70,-69 -105,-151 -105,-246zm2288 2251c72,0 132,-2 179,-5 48,-3 87,-13 116,-29 30,-16 51,-40 64,-71 13,-32 20,-75 20,-132l0 -943 638 0 0 840c0,105 29,189 86,249 58,61 146,91 264,91 98,0 182,-15 249,-44 68,-28 101,-93 101,-193l0 -943 639 0 0 840c0,115 26,201 77,257 50,55 135,83 254,83 92,0 166,-16 222,-46 56,-31 84,-99 84,-205l0 -1146 637 0 0 1057c0,122 25,209 73,261 50,53 156,79 318,79 25,0 50,2 73,8 23,6 44,18 62,35 17,18 31,44 42,81 11,36 16,85 16,149 0,112 -16,190 -47,232 -32,42 -80,64 -146,64 -95,0 -189,-17 -282,-52 -92,-35 -168,-105 -227,-211 -47,63 -95,111 -146,146 -51,35 -103,61 -156,80 -53,18 -105,29 -158,32 -52,3 -103,5 -153,5 -60,0 -122,-5 -188,-15 -66,-9 -131,-24 -195,-44 -64,-20 -122,-46 -173,-79 -50,-34 -91,-73 -122,-118 -101,113 -203,183 -307,212 -104,29 -217,44 -339,44 -324,0 -556,-86 -698,-256 -88,116 -203,188 -344,215 -141,27 -322,41 -543,41l-164 0c-25,0 -50,-3 -73,-7 -24,-5 -45,-17 -64,-35 -18,-19 -32,-46 -42,-82 -9,-37 -13,-86 -13,-149 0,-112 15,-190 46,-233 32,-42 80,-63 146,-63l174 0zm4541 -2251c0,-95 35,-177 104,-247 69,-70 152,-105 249,-105 94,0 177,34 246,103 69,70 104,153 104,249 0,95 -35,177 -104,246 -69,69 -152,104 -246,104 -95,0 -177,-35 -247,-104 -70,-69 -106,-151 -106,-246zm46 2251l0 -1397 647 0 0 1966 -1216 0c-25,0 -50,-3 -73,-7 -24,-5 -44,-17 -63,-35 -18,-19 -32,-46 -42,-82 -10,-37 -14,-86 -14,-149 0,-112 15,-190 47,-233 31,-42 80,-63 145,-63l569 0z"/>
    <polygon class="fil4" points="41034,40691 24694,40691 24694,40280 41034,40280 "/>
    <g>
     <path class="fil5" d="M32864 5846c-5980,0 -10827,4847 -10827,10827 0,5979 4847,10826 10827,10826 5979,0 10827,-4847 10827,-10826 0,-5980 -4848,-10827 -10827,-10827z"/>
     <path class="fil6" d="M33070 10246l0 1739c-68,-3 -138,-5 -206,-5 -68,0 -135,2 -203,5l-3 0 0 -1739c-356,-89 -612,-405 -612,-792 0,-455 363,-818 818,-818 454,0 817,363 817,818 0,387 -255,703 -611,792zm-801 8219l-1669 0 0 -2699 2263 -1766 2264 1766 0 2699 -1668 0 0 -1588 -1190 0 0 1588zm595 2073c1067,0 2034,-432 2733,-1132 700,-699 1132,-1666 1132,-2733 0,-1068 -432,-2034 -1132,-2734 -699,-699 -1666,-1132 -2733,-1132 -1068,0 -2034,433 -2734,1132 -699,700 -1132,1666 -1132,2734 0,1067 433,2034 1132,2733 700,700 1666,1132 2734,1132zm0 412c2362,0 4277,-1915 4277,-4277 0,-2363 -1915,-4278 -4277,-4278 -2363,0 -4278,1915 -4278,4278 0,2362 1915,4277 4278,4277zm2164 -8441l870 -1506c-263,-255 -326,-656 -133,-991 228,-394 724,-526 1117,-299 393,227 527,723 299,1117 -194,336 -574,481 -927,380l-869 1505c-116,-74 -235,-143 -357,-206zm1792 1640l1506 -869c-100,-353 46,-731 381,-925 393,-227 889,-94 1117,299 227,394 94,890 -300,1117 -336,194 -738,130 -993,-134l-1505 869c-64,-122 -133,-241 -206,-357zm731 2318l1739 0c89,-356 405,-612 793,-612 454,0 817,363 817,817 0,455 -363,818 -817,818 -388,0 -704,-256 -793,-611l-1739 0c3,-69 5,-137 5,-206 0,-69 -2,-138 -5,-206zm-525 2374l1505 868c254,-265 657,-329 993,-135 394,227 527,723 300,1117 -228,393 -724,526 -1117,299 -335,-193 -481,-572 -381,-924l-1507 -869c74,-115 143,-234 206,-355l1 -1zm-1644 1791l868 1504c354,-103 736,42 931,380 228,393 94,889 -299,1116 -393,228 -889,95 -1117,-299 -193,-334 -131,-733 130,-988l-870 -1506c122,-64 241,-133 357,-207zm-2320 729l0 1736c360,87 619,404 619,794 0,455 -363,818 -817,818 -455,0 -818,-363 -818,-818 0,-384 252,-699 604,-790l0 -1741c71,3 142,5 214,5 66,0 132,-2 198,-4zm-2372 -529l-868 1503c270,254 336,659 140,998 -227,394 -723,526 -1116,299 -394,-227 -527,-723 -300,-1116 193,-333 567,-479 917,-383l871 -1508c116,75 234,144 356,207zm-1788 -1644l-1503 867c106,355 -40,740 -378,935 -394,227 -890,94 -1117,-299 -227,-394 -94,-890 299,-1117 333,-192 731,-131 986,127l1507 -870 2 5c63,120 131,237 204,352zm-726 -2317l-1737 0c-86,360 -404,619 -794,619 -455,0 -818,-363 -818,-818 0,-454 363,-817 818,-817 385,0 699,252 790,604l1742 0c-4,71 -5,142 -5,214 0,66 1,132 4,198zm527 -2369l-1504 -868c-255,267 -658,332 -996,137 -393,-227 -526,-723 -299,-1117 227,-393 723,-526 1117,-299 334,193 480,570 382,921l1507 870c-74,116 -143,234 -207,356zm1641 -1788l-869 -1505c-354,103 -734,-43 -929,-379 -227,-394 -94,-890 300,-1117 393,-227 889,-95 1116,299 194,335 131,735 -131,990l869 1506c-122,64 -241,133 -356,206zm-1287 -2635c193,-112 429,-45 539,145 115,199 51,426 -144,538 -196,113 -424,55 -539,-144 -110,-190 -49,-427 144,-539zm-2786 2787c111,-193 348,-254 538,-145 200,115 258,344 145,539 -113,196 -340,260 -539,145 -190,-110 -256,-346 -144,-539zm-1021 3806c0,-223 175,-394 395,-394 230,0 395,169 395,394 0,226 -165,395 -395,395 -220,0 -395,-171 -395,-395zm1021 3807c-112,-193 -46,-429 144,-539 199,-115 426,-51 539,145 113,195 55,423 -145,539 -190,109 -427,49 -538,-145zm2786 2787c-193,-112 -254,-349 -144,-539 115,-199 343,-257 539,-144 195,112 259,339 144,539 -110,190 -346,256 -539,144zm3807 1020c-223,0 -395,-175 -395,-395 0,-230 170,-394 395,-394 225,0 395,164 395,394 0,220 -172,395 -395,395zm3807 -1020c-194,112 -430,46 -540,-144 -115,-200 -50,-427 145,-539 195,-113 424,-55 539,144 110,190 49,427 -144,539zm2786 -2787c-111,194 -349,254 -539,145 -199,-116 -257,-344 -144,-539 113,-196 340,-260 539,-145 190,110 256,346 144,539zm1020 -3807c0,224 -175,395 -394,395 -230,0 -395,-169 -395,-395 0,-225 165,-394 395,-394 219,0 394,171 394,394zm-1020 -3806c112,193 46,429 -144,539 -199,115 -426,51 -539,-145 -113,-195 -55,-424 144,-539 190,-109 428,-48 539,145zm-2786 -2787c193,112 254,349 144,539 -115,199 -344,257 -539,144 -195,-112 -260,-339 -145,-538 110,-190 346,-257 540,-145zm-3807 -1020c223,0 395,175 395,395 0,230 -170,394 -395,394 -225,0 -395,-164 -395,-394 0,-220 172,-395 395,-395z"/>
    </g>
   </g>
  </g>
 </g>
</svg>
