<?xml version="1.0" encoding="UTF-8"?>
<!DOCTYPE svg PUBLIC "-//W3C//DTD SVG 1.1//EN" "http://www.w3.org/Graphics/SVG/1.1/DTD/svg11.dtd">
<!-- Creator: CorelDRAW X7 -->
<svg xmlns="http://www.w3.org/2000/svg" xml:space="preserve" width="6.49256in" height="0.571339in" version="1.1" style="shape-rendering:geometricPrecision; text-rendering:geometricPrecision; image-rendering:optimizeQuality; fill-rule:evenodd; clip-rule:evenodd"
viewBox="0 0 64926 5713"
 xmlns:xlink="http://www.w3.org/1999/xlink">
 <defs>
  <style type="text/css">
   <![CDATA[
    .fil0 {fill:white}
    .fil1 {fill:#A38755;fill-rule:nonzero}
    .fil2 {fill:#E6D2AE;fill-rule:nonzero}
   ]]>
  </style>
 </defs>
 <g id="Layer_x0020_1">
  <metadata id="CorelCorpID_0Corel-Layer"/>
  <g id="_2623017152656">
   <g>
    <path class="fil0" d="M63712 5548l-62498 0c-577,0 -1049,-472 -1049,-1048l0 -3286c0,-577 472,-1049 1049,-1049l62498 0c576,0 1048,472 1048,1049l0 3286c0,576 -472,1048 -1048,1048z"/>
    <path class="fil1" d="M63712 5713l-62498 0c-668,0 -1214,-545 -1214,-1213l0 -3286c0,-668 546,-1214 1214,-1214l62498 0c668,0 1214,546 1214,1214l0 3286c0,668 -546,1213 -1214,1213zm-62498 -330l62498 0c485,0 883,-398 883,-883l0 -3286c0,-486 -398,-883 -883,-883l-62498 0c-485,0 -883,397 -883,883l0 3286c0,485 398,883 883,883z"/>
   </g>
   <path class="fil2" d="M46370 2846c-41,0 -75,10 -102,29 -28,20 -50,45 -68,75 -17,30 -30,65 -37,104 -9,39 -13,77 -13,114 0,71 17,129 49,173 32,44 92,66 179,66 69,0 122,-20 158,-60 37,-40 55,-96 55,-167 0,-92 -19,-171 -57,-236 -37,-65 -92,-98 -164,-98zm-599 346c0,-82 14,-165 41,-250 27,-85 67,-161 120,-228 52,-67 115,-122 188,-165 73,-43 156,-64 250,-64 86,0 165,16 238,49 72,33 135,80 188,140 53,60 94,134 125,222 31,87 47,186 47,296 0,71 -11,141 -34,208 -22,67 -58,127 -107,179 -50,53 -113,95 -189,127 -76,33 -168,49 -277,49 -88,0 -167,-12 -240,-34 -72,-22 -134,-56 -186,-102 -53,-46 -93,-105 -122,-177 -28,-71 -42,-155 -42,-250zm1928 -1633l0 2184 -395 0 0 -2184 395 0zm1201 2184c-27,0 -64,-6 -111,-19 -47,-12 -88,-39 -122,-80 -2,139 -19,254 -49,348 -30,93 -76,168 -137,225 -62,57 -139,99 -232,123 -94,24 -207,37 -338,39l0 -373c84,-2 150,-12 199,-30 49,-17 86,-42 111,-77 24,-34 40,-79 47,-133 7,-54 10,-120 10,-195l0 -911 395 0 0 520c0,79 24,134 72,165 49,30 100,45 155,45 16,0 31,2 45,6 15,3 28,10 39,21 12,11 20,27 26,50 7,22 9,53 9,92 0,70 -10,118 -29,144 -19,27 -49,40 -90,40zm157 -353c24,0 55,-20 91,-60 36,-41 67,-100 96,-177 44,-117 93,-213 146,-290 54,-77 109,-138 165,-184 56,-46 113,-78 169,-96 57,-19 114,-28 169,-28 80,0 154,15 224,46 69,31 129,74 178,129 50,55 89,121 117,198 29,78 43,163 43,254 0,15 0,28 -1,40 -1,12 -2,25 -2,37 27,48 68,82 124,102 55,20 107,29 156,29 15,0 31,2 45,6 14,3 27,10 38,21 11,11 20,27 26,50 7,22 10,53 10,92 0,70 -10,118 -29,144 -19,27 -50,40 -90,40 -78,0 -148,-15 -209,-44 -61,-30 -114,-77 -159,-143 -88,150 -239,224 -453,224 -82,0 -164,-12 -246,-37 -83,-25 -170,-67 -262,-126 -52,59 -106,95 -162,107 -55,13 -115,19 -180,19l-163 0c-16,0 -31,-2 -45,-5 -15,-3 -28,-10 -39,-21 -12,-12 -20,-29 -26,-51 -7,-23 -9,-53 -9,-92 0,-70 10,-118 29,-144 19,-27 49,-40 90,-40l159 0zm1010 -216c0,-31 -4,-62 -11,-92 -7,-31 -18,-58 -33,-81 -16,-23 -36,-43 -62,-58 -25,-16 -56,-23 -93,-23 -27,0 -55,6 -83,20 -28,13 -56,35 -82,65 -27,31 -52,70 -75,119 -23,49 -43,110 -59,184 51,31 99,56 145,75 46,20 95,30 148,30 66,0 116,-22 152,-66 35,-44 53,-102 53,-173zm1031 216c-29,-80 -43,-158 -43,-234 0,-98 17,-190 52,-276 35,-86 83,-156 146,-209 -33,2 -66,4 -101,5 -34,1 -69,3 -104,8l0 -278c59,-9 118,-14 176,-18 58,-4 116,-6 173,-6 381,0 674,91 878,275 204,183 306,450 306,802l0 284 -1851 0c-16,0 -31,-2 -45,-5 -15,-3 -28,-10 -39,-21 -12,-12 -20,-29 -27,-51 -6,-23 -8,-53 -8,-92 0,-70 10,-118 29,-144 19,-27 49,-40 90,-40l368 0zm823 -281c0,61 -5,115 -14,161 -9,46 -21,86 -35,120l327 0c0,-185 -35,-329 -104,-433 -69,-103 -171,-177 -306,-221 47,59 81,124 101,194 21,71 31,130 31,179zm-429 266c23,0 42,-10 57,-29 15,-19 27,-43 35,-70 9,-27 14,-56 17,-87 3,-30 5,-57 5,-80 0,-31 -2,-62 -6,-94 -4,-33 -11,-63 -22,-90 -10,-28 -23,-51 -39,-69 -15,-18 -35,-28 -59,-28 -20,0 -37,9 -53,26 -15,17 -28,39 -38,67 -11,28 -19,59 -24,94 -5,34 -8,67 -8,101 0,24 2,52 7,82 4,31 11,59 22,85 10,27 23,49 40,66 17,17 39,26 66,26zm2691 -529c-40,0 -75,10 -102,29 -28,20 -50,45 -67,75 -18,30 -31,65 -38,104 -8,39 -12,77 -12,114 0,71 16,129 48,173 33,44 92,66 179,66 69,0 122,-20 159,-60 36,-40 54,-96 54,-167 0,-92 -19,-171 -56,-236 -38,-65 -93,-98 -165,-98zm-599 346c0,-82 14,-165 41,-250 27,-85 67,-161 120,-228 52,-67 115,-122 188,-165 73,-43 156,-64 250,-64 86,0 165,16 238,49 72,33 135,80 188,140 53,60 95,134 126,222 30,87 46,186 46,296 0,71 -11,141 -34,208 -22,67 -58,127 -107,179 -50,53 -112,95 -188,127 -77,33 -169,49 -278,49 -88,0 -167,-12 -240,-34 -72,-22 -134,-56 -186,-102 -53,-46 -93,-105 -122,-177 -28,-71 -42,-155 -42,-250zm1744 -532l398 0 0 911c0,146 -12,271 -34,373 -23,103 -62,186 -117,249 -56,63 -134,110 -233,139 -99,29 -225,45 -378,47l0 -373c81,-2 147,-12 196,-30 49,-17 86,-42 111,-77 24,-34 39,-79 47,-133 7,-54 10,-120 10,-195l0 -911zm1486 899c0,70 -9,118 -29,144 -19,27 -49,40 -90,40l-128 0c-70,0 -134,-8 -192,-23 -57,-16 -107,-41 -149,-77 -42,-35 -75,-82 -98,-141 -24,-60 -35,-133 -35,-221l0 -1722 398 0 0 1667c0,72 12,117 37,136 26,19 62,28 109,28l58 0c16,0 31,2 45,6 15,3 28,10 40,21 11,11 20,27 26,50 6,22 8,53 8,92zm37 -169c24,0 55,-20 90,-60 37,-41 68,-100 96,-177 45,-117 94,-213 147,-290 54,-77 108,-138 165,-184 56,-46 113,-78 169,-96 57,-19 113,-28 169,-28 80,0 154,15 223,46 70,31 129,74 179,129 50,55 89,121 117,198 29,78 43,163 43,254 0,15 0,28 -1,40 -2,12 -2,25 -2,37 27,48 68,82 123,102 55,20 107,29 156,29 16,0 32,2 46,6 14,3 27,10 38,21 11,11 19,27 26,50 7,22 10,53 10,92 0,70 -10,118 -29,144 -20,27 -50,40 -91,40 -78,0 -147,-15 -208,-44 -61,-30 -114,-77 -159,-143 -88,150 -239,224 -453,224 -82,0 -164,-12 -246,-37 -83,-25 -170,-67 -262,-126 -53,59 -107,95 -162,107 -55,13 -116,19 -180,19l-163 0c-16,0 -31,-2 -45,-5 -15,-3 -28,-10 -40,-21 -11,-12 -20,-29 -26,-51 -6,-23 -8,-53 -8,-92 0,-70 9,-118 29,-144 19,-27 49,-40 90,-40l159 0zm1009 -216c0,-31 -3,-62 -10,-92 -7,-31 -18,-58 -33,-81 -16,-23 -37,-43 -62,-58 -25,-16 -56,-23 -93,-23 -27,0 -55,6 -83,20 -29,13 -56,35 -82,65 -27,31 -52,70 -75,119 -24,49 -43,110 -59,184 51,31 99,56 145,75 45,20 95,30 148,30 66,0 116,-22 151,-66 36,-44 53,-102 53,-173zm789 216c45,0 82,-1 112,-3 29,-2 53,-8 71,-17 19,-11 32,-25 41,-45 8,-19 13,-46 13,-81l0 -584 391 0 0 520c0,65 18,117 53,154 35,38 91,56 166,56 60,0 110,-9 153,-27 42,-17 63,-57 63,-119l0 -584 397 0 0 520c0,140 61,210 181,210l190 0 0 -865 397 0 0 1218 -468 0c-108,0 -190,-13 -245,-38 -55,-26 -102,-66 -140,-121 -31,40 -64,69 -99,90 -34,21 -70,37 -107,47 -37,11 -73,17 -108,19 -36,2 -70,3 -103,3 -103,0 -191,-17 -261,-51 -71,-34 -121,-70 -151,-108 -55,72 -126,117 -215,133 -88,17 -200,26 -337,26l-119 0c-16,0 -31,-2 -45,-5 -15,-3 -28,-10 -40,-21 -11,-12 -20,-29 -26,-51 -6,-23 -8,-53 -8,-92 0,-70 9,-118 29,-144 19,-27 49,-40 90,-40l125 0zm780 -1394c0,-59 22,-110 64,-153 43,-43 95,-65 154,-65 59,0 110,21 153,64 43,43 64,94 64,154 0,59 -21,110 -64,153 -43,42 -94,64 -153,64 -58,0 -109,-22 -153,-64 -43,-43 -65,-94 -65,-153zm499 0c0,-59 22,-110 65,-153 43,-43 93,-65 152,-65 59,0 110,21 153,64 44,43 65,94 65,154 0,59 -21,110 -64,153 -43,42 -94,64 -154,64 -59,0 -109,-22 -152,-64 -43,-43 -65,-94 -65,-153zm-242 -444c0,-58 22,-109 64,-153 43,-43 95,-65 154,-65 59,0 110,22 153,64 43,43 64,95 64,154 0,59 -21,110 -64,153 -43,43 -94,64 -153,64 -58,0 -109,-21 -153,-64 -43,-43 -65,-94 -65,-153z"/>
  </g>
 </g>
</svg>
