<?xml version="1.0" encoding="UTF-8"?>
<!DOCTYPE svg PUBLIC "-//W3C//DTD SVG 1.1//EN" "http://www.w3.org/Graphics/SVG/1.1/DTD/svg11.dtd">
<!-- Creator: CorelDRAW X7 -->
<svg xmlns="http://www.w3.org/2000/svg" xml:space="preserve" width="3.06988in" height="0.971929in" version="1.1" style="shape-rendering:geometricPrecision; text-rendering:geometricPrecision; image-rendering:optimizeQuality; fill-rule:evenodd; clip-rule:evenodd"
viewBox="0 0 30699 9719"
 xmlns:xlink="http://www.w3.org/1999/xlink">
 <defs>
  <style type="text/css">
   <![CDATA[
    .fil1 {fill:#9C8356}
    .fil0 {fill:#D2AE6D}
    .fil2 {fill:white}
    .fil3 {fill:#FEFEFE;fill-rule:nonzero}
   ]]>
  </style>
 </defs>
 <g id="Layer_x0020_1">
  <metadata id="CorelCorpID_0Corel-Layer"/>
  <g id="_2622772280336">
   <g id="_2555776433744">
    <path class="fil0" d="M4859 0l20981 0c2672,0 4859,2187 4859,4859 0,2673 -2186,4860 -4859,4860l-20981 0c-2672,0 -4859,-2187 -4859,-4859 0,-2673 2186,-4860 4859,-4860z"/>
    <polygon class="fil1" points="20778,1407 20497,1407 20497,8313 20778,8313 "/>
    <polygon class="fil2" points="20356,1407 20497,1407 20497,8313 20356,8313 "/>
    <path class="fil2" d="M24218 4753l3113 0 -1168 -1168 152 -153 1428 1428 -1428 1428 -152 -152 1168 -1170 -3113 0 0 -213zm-1675 107c0,-919 356,-1783 1006,-2432 650,-649 1512,-1007 2431,-1005 918,0 1780,356 2430,1006 650,648 1006,1512 1006,2431 0,918 -356,1782 -1006,2430 -650,650 -1512,1007 -2430,1007 -919,1 -1781,-357 -2431,-1006 -650,-649 -1006,-1513 -1006,-2431zm6659 0c0,-861 -335,-1670 -943,-2280 -609,-608 -1417,-943 -2279,-943 -862,0 -1670,335 -2279,943 -609,610 -944,1419 -944,2280 0,861 335,1670 944,2279 609,608 1417,944 2279,944 862,0 1670,-336 2279,-944 608,-609 943,-1418 943,-2279z"/>
   </g>
   <path class="fil3" d="M3334 5531c-68,0 -132,-12 -191,-34 -61,-23 -114,-56 -160,-100 -18,-17 -37,-38 -56,-63 -20,-24 -38,-53 -53,-87 -16,-34 -28,-72 -38,-114 -10,-42 -15,-90 -15,-142 0,-46 5,-95 14,-148 9,-53 19,-104 30,-151 12,-47 22,-88 32,-123 10,-34 17,-56 19,-64l163 52 161 51c-9,24 -18,53 -26,87 -10,35 -18,70 -26,105 -9,36 -15,71 -21,105 -5,33 -8,63 -8,87 0,44 6,79 19,106 12,27 27,47 45,61 17,14 37,24 58,28 20,5 39,7 55,7l808 -1c110,0 207,-1 291,-3 84,-2 155,-7 214,-15 59,-8 105,-19 140,-35 34,-16 57,-37 67,-65 6,-18 4,-39 -5,-64 -9,-24 -24,-52 -45,-82 -22,-30 -47,-62 -77,-97 -30,-35 -63,-72 -98,-110 -83,-88 -159,-162 -227,-225 -69,-63 -128,-114 -177,-155 -50,-40 -88,-71 -115,-90 -28,-19 -42,-29 -43,-29l24 -365 1229 -549 136 311 -1033 450c64,48 135,108 211,178 76,70 160,155 250,256 37,41 73,83 107,124 35,41 65,83 92,125 26,43 47,88 63,135 16,47 24,96 24,149 0,9 0,19 0,29 0,11 -2,20 -3,28 -16,103 -50,183 -102,242 -53,59 -123,103 -210,131 -87,29 -191,46 -310,53 -120,7 -254,11 -403,11l-810 0zm2665 0l-339 0 0 -1967 339 0 0 1967zm1397 0l-52 0c-37,0 -73,-3 -105,-7 -34,-5 -66,-17 -98,-38 -11,117 -38,223 -80,319 -43,95 -101,177 -172,245 -71,67 -156,120 -255,157 -99,37 -211,56 -334,56l-171 0 0 -340 171 0c87,0 162,-9 226,-27 64,-18 116,-47 157,-87 41,-40 71,-92 91,-156 20,-64 30,-142 30,-234l0 -831 340 0 0 408c0,42 8,76 26,101 18,26 39,45 61,59 24,14 46,24 68,28 22,5 37,7 45,7l52 0 0 340zm655 -1306l-229 -232 227 -235 235 235 -233 232zm-570 1l-230 -232 225 -234 235 234 -230 232zm1040 965l0 340 -202 0c-77,0 -148,-11 -212,-32 -63,-21 -117,-51 -161,-92 -50,42 -110,74 -180,94 -69,20 -149,30 -238,30l-472 0 0 -340 472 0c56,0 100,-6 133,-16 33,-10 58,-23 75,-38 17,-16 28,-33 33,-52 5,-19 7,-38 7,-56l0 -442 338 0 0 432c0,41 10,73 27,96 19,24 40,41 63,52 23,12 46,18 68,21 23,2 39,3 47,3l202 0zm1000 337c-167,0 -299,-43 -396,-130 -50,47 -106,80 -166,101 -61,21 -124,32 -188,32l-307 0 0 -340 307 0c10,0 26,-2 46,-5 21,-4 42,-13 62,-27 20,-14 38,-35 54,-63 15,-27 23,-66 23,-115l0 -5 0 -388 340 0 0 388c0,74 17,129 52,163 35,34 93,51 173,51 10,0 26,-2 47,-6 20,-4 41,-14 61,-28 20,-15 38,-36 54,-65 15,-29 23,-67 23,-115l0 -388 338 0 0 388c0,74 18,129 54,164 36,35 94,53 175,53 12,0 28,-3 48,-8 21,-5 41,-15 61,-30 20,-15 37,-37 52,-65 14,-28 22,-66 22,-114 0,-20 -2,-44 -5,-73 -3,-28 -7,-58 -12,-89 -5,-31 -11,-63 -17,-95 -6,-33 -13,-63 -20,-92 -6,-29 -12,-56 -18,-79 -5,-24 -10,-43 -14,-56l320 -105c2,6 6,21 11,43 6,23 12,51 20,85 8,33 16,71 24,112 8,41 15,82 22,123 7,41 13,82 17,121 5,40 7,75 7,105 0,92 -15,174 -45,243 -31,70 -70,127 -120,173 -49,46 -104,81 -166,103 -62,23 -124,35 -187,36 -169,0 -303,-45 -401,-134 -50,46 -105,80 -166,100 -60,21 -122,31 -185,31zm321 -1542l-232 235 -231 -232 231 -235 232 232zm585 -5l-229 231 -239 -229 235 -234 233 232zm-301 -385l-219 218 -215 -215 218 -218 216 215zm1360 1935l-339 0 0 -1967 339 0 0 1967zm1548 1c-35,0 -69,-2 -103,-5 -33,-4 -67,-9 -102,-15 -35,-7 -70,-15 -106,-24 -37,-10 -75,-20 -115,-32l-163 -49 99 -328c79,28 161,52 246,73 85,21 165,34 240,41 75,6 140,3 195,-9 55,-13 92,-39 111,-79 7,-12 7,-28 2,-47 -5,-20 -14,-40 -29,-60l-509 -742 286 -186 93 143c0,1 2,4 5,9 3,4 9,14 19,28 10,15 23,35 41,62 17,27 41,62 70,106 30,44 65,97 107,162 42,64 93,140 153,229 45,70 74,143 85,217 10,75 0,146 -29,213 -15,36 -36,70 -61,100 -27,31 -57,58 -91,81 -64,45 -142,75 -234,92 -75,13 -146,20 -210,20zm1633 -1c-100,0 -186,-6 -258,-19 -72,-12 -132,-30 -181,-54 -49,-24 -89,-55 -118,-92 -30,-38 -52,-81 -68,-131 -15,-50 -25,-107 -30,-170 -5,-63 -8,-133 -8,-209l0 -1292 340 0 0 1292c0,72 2,131 7,174 5,44 18,78 40,102 21,24 53,40 96,48 44,7 103,11 180,11l0 340zm1792 -543c-5,3 -19,12 -44,29 -25,17 -58,39 -100,65 9,27 23,48 42,63 20,15 39,26 59,33 20,7 39,11 57,12 18,1 30,1 37,1l250 0 0 340 -250 0c-108,-1 -205,-25 -291,-72 -86,-47 -153,-117 -201,-211 -70,35 -146,69 -226,103 -81,34 -166,65 -254,91 -88,26 -179,48 -271,64 -93,17 -186,25 -278,25l-407 0 0 -340 407 0c88,0 183,-9 284,-27 101,-18 201,-42 299,-70 98,-29 192,-61 280,-96 89,-36 166,-71 231,-105 -41,-13 -86,-27 -135,-42 -49,-15 -99,-30 -150,-45 -51,-15 -101,-30 -151,-44 -50,-14 -97,-26 -140,-37 -44,-11 -83,-20 -118,-26 -34,-6 -62,-10 -82,-10 -20,0 -39,3 -55,8 -16,5 -30,13 -43,24 -12,12 -24,27 -35,45 -11,18 -22,40 -34,65l-313 -94c18,-54 39,-106 64,-153 25,-48 55,-90 91,-125 36,-36 78,-64 125,-84 47,-20 101,-31 162,-31 24,0 58,5 101,15 44,10 93,24 149,40 55,16 115,35 178,56 63,21 126,43 190,65 64,23 125,45 185,67 60,22 115,42 163,59 48,18 88,33 121,45 33,12 54,19 63,22l40 275zm-1136 1009l246 -248 251 251 -249 248 -248 -251zm2377 -1612c2,7 6,22 12,45 6,24 13,53 20,87 7,34 15,72 22,114 8,42 15,84 22,126 7,42 12,83 17,123 4,40 6,75 6,105 0,94 -15,175 -47,244 -31,68 -71,125 -121,169 -50,45 -106,78 -168,100 -63,22 -125,33 -188,33l-588 0 0 -340 598 0c10,0 26,-1 47,-5 20,-3 41,-11 61,-25 21,-13 38,-34 54,-62 15,-28 23,-66 23,-114 0,-20 -1,-44 -5,-73 -3,-28 -7,-59 -13,-92 -5,-32 -11,-66 -18,-100 -7,-34 -14,-66 -20,-97 -6,-30 -13,-58 -18,-83 -7,-25 -12,-44 -16,-58l320 -97zm-165 1889l-229 -232 226 -234 234 234 -231 232zm-571 1l-230 -232 225 -234 235 234 -230 232zm1507 -744l-340 0 0 -1967 340 0 0 1967z"/>
  </g>
 </g>
</svg>
