<?xml version="1.0" encoding="UTF-8"?>
<!DOCTYPE svg PUBLIC "-//W3C//DTD SVG 1.1//EN" "http://www.w3.org/Graphics/SVG/1.1/DTD/svg11.dtd">
<!-- Creator: CorelDRAW X7 -->
<svg xmlns="http://www.w3.org/2000/svg" xml:space="preserve" width="2.7252in" height="2.61854in" version="1.1" style="shape-rendering:geometricPrecision; text-rendering:geometricPrecision; image-rendering:optimizeQuality; fill-rule:evenodd; clip-rule:evenodd"
viewBox="0 0 27252 26185"
 xmlns:xlink="http://www.w3.org/1999/xlink">
 <defs>
  <style type="text/css">
   <![CDATA[
    .fil2 {fill:#FEFEFE}
    .fil3 {fill:#E6D2AE}
    .fil0 {fill:black;fill-rule:nonzero}
    .fil1 {fill:#D7B77D;fill-rule:nonzero}
   ]]>
  </style>
 </defs>
 <g id="Layer_x0020_1">
  <metadata id="CorelCorpID_0Corel-Layer"/>
  <g id="_2622983831184">
   <path class="fil0" d="M641 21684c0,92 16,177 47,255 32,77 84,144 158,200 74,55 173,99 298,130 123,31 278,47 462,47 230,0 417,-17 560,-50 143,-33 254,-73 335,-120 81,-48 136,-99 166,-155 29,-57 44,-107 44,-153 0,-49 -19,-89 -57,-119 -38,-30 -99,-68 -184,-115 -95,-50 -185,-101 -269,-153 -84,-52 -158,-112 -219,-179 -60,-68 -109,-143 -145,-227 -36,-84 -55,-183 -55,-299 0,-129 23,-259 70,-389 47,-130 116,-248 205,-353 90,-105 205,-191 343,-257 138,-66 300,-99 485,-99 122,0 230,13 324,40 94,27 164,48 208,64l0 579c-115,-26 -214,-43 -298,-52 -84,-9 -149,-13 -195,-13 -86,0 -160,12 -223,37 -62,25 -114,57 -155,97 -41,39 -71,83 -91,131 -19,48 -29,96 -29,145 0,75 34,140 101,192 68,54 151,103 249,150 120,56 217,111 292,163 75,52 135,106 180,161 44,54 76,112 94,172 19,60 28,125 28,194 0,138 -28,280 -85,426 -56,146 -152,276 -289,393 -137,116 -318,212 -543,286 -225,74 -508,110 -847,110 -299,0 -551,-30 -756,-91 -205,-61 -370,-146 -497,-254 -126,-109 -216,-237 -271,-382 -55,-147 -82,-307 -82,-483l0 -794 641 0 0 765zm4965 -533c0,85 -14,165 -41,241 -28,76 -69,142 -125,198 -57,56 -130,101 -219,134 -89,33 -194,49 -315,49l-1196 0 0 -569 967 0c76,0 135,-7 179,-22 43,-14 65,-42 65,-81 0,-20 -3,-39 -8,-59 -4,-19 -17,-46 -37,-81 -20,-34 -49,-79 -87,-135 -38,-57 -88,-131 -151,-223l-390 -583c98,-66 194,-130 288,-191 94,-61 193,-123 296,-186l429 698c116,187 202,345 259,470 57,125 86,239 86,340zm1659 326c0,112 -16,190 -47,232 -31,43 -80,64 -146,64l-207 0c-113,0 -216,-12 -309,-37 -93,-25 -174,-67 -241,-123 -68,-57 -121,-134 -158,-229 -38,-96 -57,-214 -57,-356l0 -2781 642 0 0 2691c0,116 21,190 61,220 41,31 100,46 175,46l94 0c26,0 50,3 73,9 24,5 45,17 64,34 18,18 32,45 42,81 10,36 14,85 14,149zm5 -273c72,0 132,-1 179,-5 48,-3 87,-13 116,-28 30,-17 51,-41 65,-72 14,-31 21,-75 21,-132l0 -942 636 0 0 839c0,106 25,188 74,245 49,57 131,87 247,90 63,-178 150,-354 262,-528 112,-174 243,-329 393,-465 151,-137 318,-249 502,-335 184,-86 380,-129 587,-129 339,0 602,100 788,299 185,200 278,482 278,847l0 316 391 0c26,0 51,3 74,9 23,5 44,17 62,34 19,18 33,45 43,81 9,36 14,85 14,149 0,112 -16,190 -47,232 -31,43 -80,64 -146,64l-2978 0c-167,0 -310,-27 -428,-82 -117,-54 -201,-112 -253,-174 -85,116 -199,188 -341,215 -142,27 -325,41 -549,41l-193 0c-25,0 -50,-2 -73,-7 -24,-5 -45,-17 -63,-35 -19,-19 -33,-46 -42,-82 -10,-36 -14,-86 -14,-148 0,-113 15,-190 46,-233 32,-43 80,-64 146,-64l203 0zm3512 0l0 -232c0,-167 -36,-304 -109,-413 -72,-109 -197,-163 -376,-163 -106,0 -207,22 -304,67 -96,43 -187,102 -270,177 -84,74 -161,159 -232,256 -71,98 -131,200 -180,308l1471 0zm1329 0c113,0 191,-17 235,-52 45,-34 66,-112 66,-233l0 -1112 642 0 0 1057c0,122 23,209 69,261 46,53 148,79 307,79 26,0 51,3 74,9 23,5 43,17 62,34 17,18 31,45 41,81 11,36 16,85 16,149 0,112 -16,190 -47,232 -31,43 -80,64 -146,64 -94,0 -186,-15 -276,-47 -89,-31 -163,-99 -223,-204 -41,57 -88,101 -144,135 -55,34 -114,59 -177,77 -63,16 -128,27 -195,32 -68,5 -135,7 -201,7l-405 0c-25,0 -50,-2 -73,-7 -24,-5 -44,-17 -63,-35 -18,-19 -32,-46 -42,-82 -10,-36 -14,-86 -14,-148 0,-113 15,-190 47,-233 31,-43 80,-64 145,-64l302 0zm-174 -2251c0,-94 35,-177 104,-247 69,-70 152,-105 248,-105 95,0 177,35 247,104 69,69 103,152 103,248 0,95 -34,177 -103,247 -70,69 -152,103 -247,103 -94,0 -177,-34 -247,-103 -70,-70 -105,-152 -105,-247zm806 0c0,-94 35,-177 104,-247 69,-70 150,-105 246,-105 95,0 177,35 247,104 70,69 104,152 104,248 0,95 -34,177 -103,247 -69,69 -152,103 -248,103 -96,0 -177,-34 -246,-103 -69,-70 -104,-152 -104,-247zm1272 0c0,-94 35,-177 104,-247 69,-70 152,-105 248,-105 95,0 177,35 247,104 69,69 103,152 103,248 0,95 -34,177 -103,247 -70,69 -152,103 -247,103 -94,0 -177,-34 -247,-103 -70,-70 -105,-152 -105,-247zm806 0c0,-94 35,-177 104,-247 69,-70 150,-105 246,-105 95,0 177,35 247,104 70,69 105,152 105,248 0,95 -35,177 -104,247 -69,69 -152,103 -248,103 -96,0 -177,-34 -246,-103 -69,-70 -104,-152 -104,-247zm-354 1798c0,170 39,288 118,354 79,66 174,99 285,99l277 0 0 -374c0,-66 -4,-130 -12,-190 -9,-61 -25,-115 -50,-161 -24,-45 -58,-82 -101,-111 -43,-28 -97,-42 -163,-42 -69,0 -126,12 -170,38 -44,24 -80,57 -108,96 -28,40 -48,84 -59,135 -12,50 -17,102 -17,156zm-550 453c-26,-53 -45,-120 -57,-201 -12,-79 -18,-154 -18,-224 0,-128 22,-255 68,-379 44,-125 109,-236 192,-333 84,-98 189,-176 314,-235 125,-60 268,-90 429,-90 188,0 343,34 464,101 122,68 218,154 288,257 70,104 118,219 145,347 27,127 42,249 42,369l0 957 -2297 0c-25,0 -50,-2 -73,-7 -24,-5 -44,-17 -63,-35 -18,-19 -32,-46 -42,-82 -10,-36 -14,-86 -14,-148 0,-113 15,-190 47,-233 31,-43 79,-64 145,-64l430 0zm3091 -2957l0 3526 -637 0 0 -3526 637 0zm1676 2243c0,40 5,82 14,126 10,42 28,82 54,117 27,34 62,63 106,86 45,24 102,35 171,35 43,0 87,-1 131,-5 44,-3 89,-13 136,-28l0 -683 -246 0c-122,0 -214,32 -275,96 -61,65 -91,150 -91,256zm1377 1283c-79,0 -155,-6 -229,-17 -75,-11 -143,-31 -205,-61 -63,-30 -118,-71 -165,-122 -48,-52 -85,-118 -110,-200 -56,12 -114,23 -174,32 -59,9 -119,13 -178,13 -82,0 -178,-12 -286,-37 -109,-24 -212,-70 -309,-136 -97,-66 -180,-158 -247,-275 -68,-117 -101,-268 -101,-451 0,-182 32,-335 96,-460 64,-124 146,-226 247,-306 101,-79 212,-137 336,-171 122,-35 243,-52 363,-52l839 0 0 1478c0,76 10,128 30,155 20,27 66,41 139,41l118 0c26,0 50,3 73,9 23,5 45,17 63,34 19,18 33,45 43,81 9,36 14,85 14,149 0,112 -16,190 -47,232 -31,43 -80,64 -146,64l-164 0zm465 -569c113,0 191,-17 236,-52 44,-34 66,-112 66,-233l0 -1112 642 0 0 1057c0,122 23,209 68,261 46,53 148,79 308,79 26,0 50,3 73,9 24,5 44,17 62,34 18,18 32,45 42,81 11,36 16,85 16,149 0,112 -16,190 -47,232 -31,43 -80,64 -146,64 -94,0 -187,-15 -276,-47 -89,-31 -163,-99 -224,-204 -40,57 -88,101 -143,135 -55,34 -114,59 -177,77 -63,16 -128,27 -196,32 -67,5 -134,7 -200,7l-405 0c-25,0 -50,-2 -73,-7 -24,-5 -45,-17 -64,-35 -18,-19 -32,-46 -42,-82 -9,-36 -14,-86 -14,-148 0,-113 16,-190 47,-233 32,-43 80,-64 146,-64l301 0zm-173 -2251c0,-94 34,-177 103,-247 70,-70 153,-105 249,-105 95,0 177,35 246,104 69,69 104,152 104,248 0,95 -35,177 -104,247 -69,69 -151,103 -246,103 -95,0 -177,-34 -247,-103 -70,-70 -105,-152 -105,-247zm806 0c0,-94 34,-177 103,-247 70,-70 151,-105 247,-105 94,0 177,35 247,104 70,69 104,152 104,248 0,95 -34,177 -104,247 -69,69 -151,103 -247,103 -96,0 -177,-34 -247,-103 -69,-70 -103,-152 -103,-247zm858 2251c73,0 133,-1 180,-5 48,-3 86,-13 116,-28 30,-17 51,-41 63,-72 14,-31 20,-75 20,-132l0 -942 639 0 0 839c0,106 29,189 86,250 57,60 145,90 264,90 98,0 181,-14 249,-43 67,-29 101,-93 101,-194l0 -942 639 0 0 839c0,116 25,201 76,257 51,55 135,83 255,83 91,0 165,-15 221,-46 56,-30 85,-99 85,-205l0 -1146 636 0 0 1057c0,122 25,209 74,261 49,53 155,79 317,79 26,0 51,3 74,9 23,5 43,17 61,34 18,18 32,45 42,81 11,36 16,85 16,149 0,112 -16,190 -47,232 -31,43 -80,64 -146,64 -94,0 -188,-17 -281,-52 -92,-34 -168,-104 -227,-210 -47,62 -96,111 -147,145 -50,35 -102,61 -155,80 -53,18 -106,29 -159,32 -51,4 -102,5 -153,5 -59,0 -122,-5 -187,-15 -66,-9 -131,-23 -196,-44 -64,-20 -121,-46 -172,-79 -51,-34 -92,-73 -122,-118 -102,113 -204,184 -307,213 -104,28 -218,43 -340,43 -323,0 -555,-85 -697,-256 -88,116 -203,188 -345,215 -141,27 -322,41 -542,41l-164 0c-26,0 -50,-2 -74,-7 -23,-5 -44,-17 -63,-35 -18,-19 -32,-46 -42,-82 -10,-36 -14,-86 -14,-148 0,-113 16,-190 47,-233 31,-43 80,-64 146,-64l173 0zm4588 0l0 -1397 647 0 0 1966 -1216 0c-26,0 -50,-2 -73,-7 -24,-5 -45,-17 -64,-35 -18,-19 -32,-46 -42,-82 -10,-36 -14,-86 -14,-148 0,-113 16,-190 47,-233 32,-43 80,-64 146,-64l569 0zm-81 1384c0,-94 35,-177 104,-246 69,-69 151,-104 249,-104 94,0 176,35 245,104 69,69 104,152 104,246 0,95 -35,177 -104,246 -69,70 -151,104 -245,104 -96,0 -178,-34 -248,-104 -70,-69 -105,-151 -105,-246z"/>
   <polygon class="fil1" points="21796,26185 5456,26185 5456,25774 21796,25774 "/>
   <g>
    <path class="fil2" d="M13626 0c3805,0 6890,3085 6890,6890 0,3805 -3085,6890 -6890,6890 -3805,0 -6890,-3085 -6890,-6890 0,-3805 3085,-6890 6890,-6890z"/>
    <path class="fil3" d="M14926 8840l0 1300 -5200 0 0 -1300 5200 0zm-5200 -3900l0 -1300c2600,0 5200,0 7800,0l-1300 1300c-2167,0 -4333,0 -6500,0zm7800 1300c0,1300 0,2600 0,3900l-1300 0 0 -2600 -6500 0 0 -1300c2600,0 5200,0 7800,0z"/>
   </g>
  </g>
 </g>
</svg>
