<?xml version="1.0" encoding="UTF-8"?>
<!DOCTYPE svg PUBLIC "-//W3C//DTD SVG 1.1//EN" "http://www.w3.org/Graphics/SVG/1.1/DTD/svg11.dtd">
<!-- Creator: CorelDRAW X7 -->
<svg xmlns="http://www.w3.org/2000/svg" xml:space="preserve" width="21.5488in" height="16.735in" version="1.1" style="shape-rendering:geometricPrecision; text-rendering:geometricPrecision; image-rendering:optimizeQuality; fill-rule:evenodd; clip-rule:evenodd"
viewBox="0 0 215488 167350"
 xmlns:xlink="http://www.w3.org/1999/xlink">
 <defs>
  <style type="text/css">
   <![CDATA[
    .fil0 {fill:#F7F2E6}
   ]]>
  </style>
 </defs>
 <g id="Layer_x0020_1">
  <metadata id="CorelCorpID_0Corel-Layer"/>
  <path class="fil0" d="M39333 78337c-21723,0 -39333,17611 -39333,39334 0,21723 17610,39333 39333,39333 21723,0 39334,-17610 39334,-39333 -25,-21713 -17621,-39309 -39334,-39334zm123283 -75700c-8357,133 -16409,1541 -23974,4031 -458,1376 -2069,6358 -3984,13873 8053,-1049 17473,-1818 27958,-1877l0 -16027zm0 146051c-10485,-59 -19905,-828 -27959,-1877 1915,7514 3526,12495 3984,13872 7566,2490 15618,3898 23975,4031l0 -16026zm-30754 -2259c-11389,-1635 -19730,-3767 -24059,-5018 133,421 241,753 319,988 7823,7438 17125,13335 27416,17195 -802,-2557 -2159,-7112 -3676,-13165zm-27872 -8254c27,-25 56,-49 85,-72 -1642,-5750 -4123,-15528 -5884,-27364 -5622,-1333 -9610,-2509 -11720,-3171 3555,11500 9607,21915 17519,30607zm2900 234c3348,1033 11894,3438 24301,5281 -1830,-7623 -3802,-17220 -5271,-27981 -9965,-1265 -18399,-2859 -24988,-4338 1842,11983 4401,21718 5958,27038zm27087 5675c8167,1104 17825,1927 28639,1989l0 -27984c-12578,-54 -24013,-876 -34011,-2052 1511,10868 3531,20505 5372,28047zm31257 1989c10816,-62 20472,-885 28636,-1987 1841,-7543 3861,-17181 5373,-28048 -9998,1175 -21432,1997 -34009,2051l0 27984zm31423 -2381c8005,-1189 14401,-2611 18831,-3749l0 2696c-4681,1178 -11302,2613 -19502,3790 -1517,6053 -2874,10608 -3676,13165 8491,-3185 16309,-7757 23178,-13437l0 3370c-14219,11160 -32127,17823 -51563,17823 -22238,0 -42477,-8722 -57479,-22923 -236,-116 -437,-304 -570,-546 -15789,-15228 -25626,-36586 -25626,-60201 0,-23617 9837,-44977 25625,-60207 133,-242 335,-430 572,-548 15001,-14202 35239,-22925 57477,-22925 19437,0 37345,6664 51564,17826l0 3369c-6869,-5680 -14687,-10253 -23177,-13438 802,2557 2159,7112 3676,13166 8200,1177 14821,2611 19501,3790l0 2699c-4431,-1137 -10827,-2558 -18829,-3747 1830,7623 3801,17219 5270,27979 4903,622 9435,1324 13559,2053l0 2657c-4014,-717 -8428,-1409 -13206,-2027 1108,8782 1860,18269 1922,28044l11284 0 0 2619 -11284 0c-63,9771 -814,19256 -1923,28035 4779,-617 9193,-1310 13207,-2026l0 2658c-4125,728 -8657,1430 -13560,2053 -1470,10761 -3441,20359 -5271,27982zm-3466 3119c-8054,1049 -17473,1818 -27957,1877l0 16026c8358,-134 16410,-1542 23976,-4032 458,-1379 2067,-6359 3981,-13871zm-107596 -42284l16 5c114,41 4430,1543 12184,3422 -963,-7130 -1636,-14917 -1703,-22964l-13205 0c107,6742 1042,13287 2708,19537zm14930 4069c6501,1489 14961,3125 25042,4429 -1109,-8779 -1861,-18264 -1923,-28035l-24935 0c70,8299 795,16317 1816,23606zm27721 4763c10058,1205 21619,2055 34370,2109l0 -30478 -36355 0c64,9905 844,19509 1985,28369zm36988 2109c12750,-54 24311,-904 34368,-2108 1142,-8863 1922,-18466 1986,-28370l-36354 0 0 30478zm-31257 -92198c-1841,7543 -3860,17180 -5372,28047 9999,-1176 21433,-1997 34011,-2051l0 -27985c-10813,62 -20471,886 -28639,1989zm-29903 5981c-29,-23 -57,-47 -85,-72 -7911,8693 -13961,19106 -17517,30606 2111,-663 6097,-1838 11718,-3171 1761,-11836 4242,-21613 5884,-27363zm3728 -3310c4329,-1251 12670,-3383 24059,-5018 1518,-6053 2875,-10609 3677,-13166 -10291,3861 -19594,9758 -27417,17198 -78,235 -186,567 -319,986zm57431 -7277c10485,59 19905,827 27958,1876 -1914,-7513 -3524,-12494 -3981,-13871 -7566,-2491 -15619,-3899 -23977,-4032l0 16027zm28639 4607c-8167,-1104 -17826,-1927 -28639,-1990l0 27985c12578,54 24013,875 34012,2050 -1512,-10866 -3532,-20503 -5373,-28045zm-62683 393c-12407,1843 -20953,4247 -24300,5280 -1557,5320 -4116,15055 -5959,27038 6591,-1478 15024,-3072 24989,-4337 1469,-10761 3441,-20358 5270,-27981zm-2942 30329c-1142,8864 -1922,18471 -1986,28378l36355 0 0 -30488c-12751,55 -24311,905 -34369,2110zm71356 0c-10058,-1206 -21618,-2055 -34370,-2110l1 30488 36355 0c-64,-9907 -844,-19514 -1986,-28378zm-74037 334c-10081,1304 -18541,2941 -25042,4429 -1021,7292 -1746,15313 -1815,23615l24935 0c62,-9775 813,-19262 1922,-28044zm-27772 5072c-7754,1878 -12069,3381 -12183,3421l-15 4c-1666,6253 -2602,12801 -2709,19547l13205 0c66,-8050 739,-15840 1702,-22972zm-58461 94983c-20275,0 -36711,-16436 -36711,-36711 0,-20275 16436,-36711 36711,-36711 20275,0 36711,16436 36711,36711 -23,20265 -16446,36688 -36711,36711z"/>
 </g>
</svg>
