<?xml version="1.0" encoding="UTF-8"?>
<!DOCTYPE svg PUBLIC "-//W3C//DTD SVG 1.1//EN" "http://www.w3.org/Graphics/SVG/1.1/DTD/svg11.dtd">
<!-- Creator: CorelDRAW X7 -->
<svg xmlns="http://www.w3.org/2000/svg" xml:space="preserve" width="21.3335in" height="14.6656in" version="1.1" style="shape-rendering:geometricPrecision; text-rendering:geometricPrecision; image-rendering:optimizeQuality; fill-rule:evenodd; clip-rule:evenodd"
viewBox="0 0 213335 146656"
 xmlns:xlink="http://www.w3.org/1999/xlink">
 <defs>
  <style type="text/css">
   <![CDATA[
    .fil10 {fill:#DABA76}
    .fil9 {fill:#C8AD78}
    .fil13 {fill:#8DA0D1}
    .fil7 {fill:#8380BC}
    .fil4 {fill:#736EAD}
    .fil12 {fill:#6C87C3}
    .fil15 {fill:gray}
    .fil14 {fill:#B3B3B3}
    .fil16 {fill:#CCCCCC}
    .fil6 {fill:white}
    .fil0 {fill:white}
    .fil8 {fill:#DABA76;fill-rule:nonzero}
    .fil11 {fill:#8DA0D1;fill-rule:nonzero}
    .fil3 {fill:#8380BC;fill-rule:nonzero}
    .fil1 {fill:#F4F4F4;fill-rule:nonzero}
    .fil5 {fill:white;fill-rule:nonzero}
    .fil2 {fill:white;fill-rule:nonzero}
   ]]>
  </style>
 </defs>
 <g id="Layer_x0020_1">
  <metadata id="CorelCorpID_0Corel-Layer"/>
  <g id="_2622975334144">
   <polygon class="fil0" points="51237,102896 2092,102896 2092,146656 51237,146656 "/>
   <polygon class="fil1" points="51237,59135 2092,59135 2092,102895 51237,102895 "/>
   <polygon class="fil0" points="51237,15374 2092,15374 2092,59135 51237,59135 "/>
   <polygon class="fil1" points="51237,59135 113077,59135 113077,15374 51237,15374 "/>
   <polygon class="fil2" points="51237,59135 113077,59135 113077,102895 51237,102895 "/>
   <polygon class="fil1" points="51237,146656 113077,146656 113077,102895 51237,102895 "/>
   <polygon class="fil2" points="174917,146656 113077,146656 113077,102895 174917,102895 "/>
   <polygon class="fil1" points="174917,59135 113077,59135 113077,102895 174917,102895 "/>
   <polygon class="fil2" points="174917,59135 113077,59135 113077,15374 174917,15374 "/>
   <g>
    <polygon class="fil3" points="174917,102895 213335,102895 213335,146656 174917,146656 174917,128121 171571,124776 174917,121430 "/>
    <polygon class="fil4" points="171571,124776 174917,128121 174917,146335 174917,146656 213335,146656 213335,124776 "/>
    <g>
     <path class="fil5" d="M185963 138704c6,26 11,57 15,90 5,33 7,73 7,118 0,125 -24,238 -70,341 -47,103 -129,193 -247,269 -119,76 -278,135 -478,177 -199,43 -452,63 -759,63 -297,0 -541,-28 -734,-84 -192,-56 -345,-133 -460,-232 -113,-98 -193,-213 -238,-345 -45,-131 -68,-274 -68,-428l0 -755 591 0 0 735c0,196 72,340 214,429 143,90 378,135 704,135 213,0 382,-12 511,-36 129,-23 229,-54 301,-90 72,-36 119,-74 141,-114 22,-40 33,-75 33,-104 0,-79 -78,-146 -234,-200 -156,-55 -366,-115 -630,-182l0 -542c200,64 391,119 573,163 182,46 345,69 491,69l568 0c24,0 46,2 68,7 23,5 42,16 59,32 15,17 28,41 37,74 9,33 13,79 13,137 0,103 -14,175 -43,214 -29,39 -73,59 -134,59l-231 0zm508 -523c104,0 176,-16 217,-48 41,-32 61,-104 61,-215l0 -1023 590 0 0 973c0,112 22,192 63,240 43,48 137,73 284,73 23,0 46,2 67,7 21,5 40,16 57,32 16,17 29,41 38,74 10,33 15,79 15,137 0,103 -15,175 -43,214 -29,39 -74,59 -134,59 -88,0 -172,-14 -255,-43 -82,-29 -150,-92 -205,-188 -37,52 -81,93 -132,124 -51,31 -105,55 -163,71 -58,15 -118,25 -180,29 -62,5 -124,7 -184,7l-373 0c-23,0 -46,-2 -67,-7 -22,-4 -41,-15 -59,-32 -16,-17 -29,-42 -38,-75 -9,-34 -13,-79 -13,-137 0,-104 14,-175 43,-214 29,-40 73,-58 134,-58l277 0zm-160 -2071c0,-88 32,-163 96,-228 64,-64 140,-97 229,-97 87,0 163,32 226,96 64,63 96,140 96,229 0,87 -32,162 -96,226 -63,64 -139,95 -226,95 -87,0 -163,-31 -228,-95 -64,-64 -97,-139 -97,-226zm742 0c0,-88 32,-163 96,-228 63,-64 138,-97 226,-97 87,0 163,32 227,96 65,63 96,140 96,229 0,87 -31,162 -95,226 -64,64 -139,95 -228,95 -88,0 -163,-31 -226,-95 -64,-64 -96,-139 -96,-226zm1689 2071c63,0 125,-13 182,-38 58,-25 86,-78 86,-158 0,-54 -34,-128 -102,-220 -68,-91 -158,-189 -270,-293 -113,-103 -240,-206 -382,-307 -142,-102 -286,-190 -433,-265 21,-101 46,-184 75,-249 30,-65 60,-117 91,-157 30,-38 59,-68 88,-88 29,-20 52,-34 70,-43l1587 -700 0 609 -1074 446 0 13c182,119 332,235 450,350 119,116 213,228 285,337 71,109 120,212 147,310 27,99 41,191 41,277 0,73 -10,149 -30,231 -20,81 -59,157 -115,227 -57,71 -138,128 -243,174 -106,44 -242,67 -411,67l-1101 0c-23,0 -46,-2 -67,-7 -22,-4 -41,-15 -58,-32 -17,-17 -30,-42 -39,-75 -9,-34 -13,-79 -13,-137 0,-104 14,-175 43,-214 29,-40 74,-58 134,-58l1059 0zm2641 523c-40,0 -95,-9 -164,-28 -70,-18 -131,-58 -182,-118 -3,205 -27,377 -72,516 -46,137 -114,250 -205,334 -91,85 -206,147 -344,182 -140,37 -307,56 -502,59l0 -554c124,-3 223,-18 296,-44 73,-26 128,-64 165,-115 35,-51 59,-117 69,-198 11,-80 16,-177 16,-289l0 -1354 586 0 0 773c0,118 35,200 107,244 72,46 149,69 230,69 23,0 46,2 67,7 22,5 41,16 59,32 16,17 29,41 38,74 9,33 13,79 13,137 0,103 -14,175 -43,214 -29,39 -73,59 -134,59zm184 -523c67,0 122,-2 165,-5 44,-3 80,-12 107,-27 27,-15 47,-37 60,-65 13,-29 19,-69 19,-122l0 -867 582 0 0 773c0,97 25,173 78,229 53,56 135,84 247,84 88,0 163,-14 226,-41 63,-26 94,-85 94,-178l0 -867 590 0 0 773c0,208 90,313 269,313l282 0 0 -1286 590 0 0 1809 -695 0c-161,0 -282,-19 -365,-57 -82,-38 -151,-97 -207,-179 -46,59 -95,103 -147,134 -51,31 -105,54 -159,70 -55,15 -109,24 -161,27 -53,3 -103,5 -152,5 -154,0 -284,-25 -389,-76 -104,-50 -179,-103 -224,-160 -81,107 -187,173 -318,198 -131,25 -298,38 -501,38l-177 0c-24,0 -47,-2 -68,-7 -22,-4 -41,-15 -58,-32 -17,-17 -30,-42 -39,-75 -9,-34 -13,-79 -13,-137 0,-104 15,-175 44,-214 28,-40 73,-58 134,-58l186 0zm1158 -2071c0,-88 32,-163 96,-228 63,-64 140,-97 228,-97 88,0 163,32 227,96 64,63 95,140 95,229 0,87 -31,162 -95,226 -64,64 -139,95 -227,95 -87,0 -162,-31 -227,-95 -64,-64 -97,-139 -97,-226zm742 0c0,-88 32,-163 95,-228 64,-64 139,-97 227,-97 87,0 163,32 227,96 64,63 96,140 96,229 0,87 -32,162 -95,226 -64,64 -140,95 -228,95 -88,0 -163,-31 -227,-95 -63,-64 -95,-139 -95,-226zm-360 -660c0,-87 32,-162 96,-227 63,-64 140,-97 228,-97 87,0 163,32 227,96 63,63 95,140 95,228 0,88 -32,163 -95,227 -64,64 -140,95 -227,95 -87,0 -163,-31 -227,-95 -64,-64 -97,-139 -97,-227zm3312 2073c0,37 4,76 13,116 9,39 25,76 50,107 24,32 56,59 97,80 41,22 94,33 157,33 40,0 80,-2 121,-5 41,-3 82,-12 125,-26l0 -628 -226 0c-112,0 -197,29 -253,88 -56,59 -84,137 -84,235zm1267 1181c-73,0 -143,-5 -211,-16 -68,-10 -131,-29 -189,-56 -57,-27 -108,-65 -151,-112 -44,-48 -78,-109 -102,-184 -51,11 -104,21 -160,29 -54,9 -109,12 -163,12 -76,0 -164,-11 -264,-34 -100,-22 -195,-65 -284,-125 -89,-61 -165,-145 -227,-253 -62,-108 -93,-247 -93,-415 0,-167 29,-308 88,-423 59,-115 135,-208 227,-282 94,-73 196,-126 310,-158 112,-31 224,-47 334,-47l771 0 0 1360c0,70 10,118 29,143 18,25 60,38 127,38l109 0c23,0 46,2 67,7 21,5 41,16 58,32 17,17 30,41 39,74 9,33 13,79 13,137 0,103 -14,175 -43,214 -29,39 -74,59 -134,59l-151 0zm1777 -523c-8,-122 -28,-234 -58,-335 -30,-101 -76,-188 -136,-261 -61,-72 -141,-129 -239,-170 -99,-40 -221,-60 -365,-60 -49,0 -125,7 -228,20 -102,13 -209,35 -318,66l0 -528c69,-24 165,-49 286,-76 121,-28 244,-42 368,-42 228,0 421,37 580,111 159,75 289,175 389,302 100,127 173,276 220,444 47,169 72,344 78,529l296 0c23,0 46,2 67,7 22,5 41,16 58,32 17,17 30,41 39,74 9,33 13,79 13,137 0,103 -14,175 -43,214 -29,39 -74,59 -134,59l-2499 0c-24,0 -46,-2 -68,-7 -22,-4 -40,-15 -58,-32 -17,-17 -29,-42 -39,-75 -9,-34 -12,-79 -12,-137 0,-104 14,-175 43,-214 29,-40 73,-58 134,-58l1626 0zm-1072 -2071c0,-88 31,-163 95,-228 64,-64 140,-97 229,-97 87,0 163,32 226,96 64,63 96,140 96,229 0,87 -32,162 -96,226 -63,64 -139,95 -226,95 -87,0 -163,-31 -227,-95 -65,-64 -97,-139 -97,-226zm2105 2071c66,0 122,-2 165,-5 44,-3 79,-12 107,-27 27,-15 47,-37 58,-65 12,-29 18,-69 18,-122l0 -867 588 0 0 773c0,97 27,173 79,229 53,56 134,84 243,84 90,0 167,-14 229,-41 62,-26 93,-85 93,-178l0 -867 588 0 0 773c0,106 23,185 70,236 46,51 124,77 234,77 84,0 152,-15 204,-43 51,-28 78,-91 78,-189l0 -1054 586 0 0 973c0,112 22,192 67,240 45,48 143,73 292,73 24,0 47,2 68,7 21,5 40,16 57,32 16,17 28,41 38,74 10,33 15,79 15,137 0,103 -15,175 -44,214 -28,39 -73,59 -134,59 -87,0 -173,-16 -259,-48 -85,-32 -154,-96 -209,-194 -43,58 -88,103 -135,134 -46,32 -94,56 -143,74 -48,17 -97,26 -145,29 -48,3 -95,5 -141,5 -55,0 -112,-5 -173,-14 -60,-8 -120,-22 -179,-41 -59,-18 -112,-42 -159,-72 -47,-31 -85,-67 -113,-109 -93,104 -187,169 -282,196 -96,26 -200,40 -312,40 -298,0 -511,-79 -642,-236 -81,107 -187,173 -317,198 -130,25 -296,38 -499,38l-151 0c-24,0 -46,-2 -68,-7 -22,-4 -40,-15 -58,-32 -17,-17 -29,-42 -39,-75 -9,-34 -12,-79 -12,-137 0,-104 14,-175 43,-214 29,-40 73,-58 134,-58l160 0zm4178 -2071c0,-88 32,-163 96,-228 63,-64 140,-97 228,-97 87,0 163,32 227,96 63,63 95,140 95,229 0,87 -32,162 -95,226 -64,64 -140,95 -227,95 -87,0 -163,-31 -227,-95 -64,-64 -97,-139 -97,-226zm42 2071l0 -1286 596 0 0 1809 -1119 0c-23,0 -46,-2 -67,-7 -22,-4 -41,-15 -59,-32 -16,-17 -29,-42 -38,-75 -9,-34 -13,-79 -13,-137 0,-104 14,-175 43,-214 29,-40 73,-58 134,-58l523 0z"/>
     <g>
      <path class="fil6" d="M194126 112785c-4952,0 -8966,4014 -8966,8966 0,4951 4014,8965 8966,8965 4951,0 8965,-4014 8965,-8965 0,-4952 -4014,-8966 -8965,-8966z"/>
      <path class="fil7" d="M194296 116429l0 1440c-56,-3 -113,-4 -170,-4 -57,0 -112,1 -168,4l-3 0 0 -1440c-294,-74 -506,-335 -506,-656 0,-377 301,-677 677,-677 376,0 677,300 677,677 0,321 -212,582 -507,656zm-663 6806l-1382 0 0 -2235 1874 -1462 1875 1462 0 2235 -1382 0 0 -1315 -985 0 0 1315zm493 1717c884,0 1684,-358 2263,-938 580,-579 938,-1379 938,-2263 0,-884 -358,-1685 -938,-2264 -579,-579 -1379,-938 -2263,-938 -884,0 -1685,359 -2264,938 -579,579 -937,1380 -937,2264 0,884 358,1684 937,2263 579,580 1380,938 2264,938zm0 341c1956,0 3542,-1586 3542,-3542 0,-1957 -1586,-3543 -3542,-3543 -1957,0 -3543,1586 -3543,3543 0,1956 1586,3542 3543,3542zm1792 -6990l720 -1247c-218,-211 -270,-543 -109,-821 188,-326 599,-436 924,-248 326,189 436,599 248,925 -161,278 -475,399 -768,315l-720 1247c-96,-62 -194,-119 -295,-171zm1484 1358l1247 -720c-83,-292 38,-605 315,-765 326,-189 737,-79 925,247 188,326 78,737 -248,925 -278,161 -611,108 -822,-111l-1246 719c-53,-101 -110,-199 -171,-295zm605 1919l1440 0c74,-295 336,-506 657,-506 376,0 677,300 677,677 0,376 -301,677 -677,677 -321,0 -583,-212 -657,-507l-1439 0c2,-56 3,-113 3,-170 0,-57 -1,-114 -4,-171zm-434 1966l1245 719c212,-219 545,-272 823,-111 326,188 436,598 248,924 -188,326 -599,436 -925,248 -277,-160 -398,-473 -315,-765l-1248 -720c62,-95 119,-193 171,-294l1 -1zm-1362 1484l719 1245c293,-86 610,35 771,314 188,326 78,737 -248,925 -325,188 -736,78 -924,-248 -160,-276 -109,-607 107,-818l-720 -1248c101,-52 199,-109 295,-170zm-1921 603l0 1438c298,71 513,334 513,658 0,376 -301,677 -677,677 -376,0 -677,-301 -677,-677 0,-319 209,-579 500,-655l0 -1442c59,3 117,4 177,4 55,0 110,-1 164,-3zm-1965 -438l-718 1245c223,210 278,546 116,826 -188,326 -599,436 -925,248 -326,-188 -436,-599 -247,-925 159,-275 469,-396 759,-317l721 -1248c96,61 194,119 294,171zm-1480 -1362l-1245 719c88,294 -33,612 -313,774 -326,188 -736,78 -924,-248 -189,-326 -79,-736 247,-924 276,-160 605,-109 816,104l1248 -720 2 4c52,99 108,196 169,291zm-601 -1918l-1439 0c-71,298 -334,513 -657,513 -376,0 -677,-301 -677,-677 0,-377 301,-677 677,-677 319,0 578,208 654,500l1442 0c-2,59 -4,117 -4,177 0,55 1,109 4,164zm436 -1962l-1245 -719c-211,221 -545,275 -825,114 -326,-188 -435,-599 -247,-925 188,-326 598,-436 924,-247 277,159 398,471 317,762l1248 720c-62,96 -119,194 -172,295zm1359 -1480l-720 -1246c-292,84 -607,-36 -768,-315 -189,-326 -79,-736 247,-925 326,-188 737,-78 925,248 160,277 108,609 -109,820l720 1247c-101,53 -199,110 -295,171zm-1066 -2182c161,-93 356,-38 447,119 95,165 42,353 -120,446 -162,94 -351,46 -446,-119 -91,-157 -41,-354 119,-446zm-2307 2307c92,-160 289,-210 446,-119 165,95 213,284 120,446 -94,162 -282,215 -447,120 -157,-91 -212,-287 -119,-447zm-845 3153c0,-185 145,-327 327,-327 190,0 327,140 327,327 0,186 -137,326 -327,326 -182,0 -327,-142 -327,-326zm845 3152c-93,-160 -38,-355 119,-446 165,-96 353,-42 447,119 93,162 45,351 -120,447 -157,90 -354,40 -446,-120zm2307 2307c-160,-92 -210,-288 -119,-446 95,-165 284,-213 446,-119 162,93 215,281 120,446 -91,157 -286,212 -447,119zm3153 845c-185,0 -327,-145 -327,-326 0,-191 140,-327 327,-327 187,0 327,136 327,327 0,181 -142,326 -327,326zm3152 -845c-160,93 -355,38 -446,-119 -96,-165 -42,-353 119,-446 162,-94 352,-46 447,119 91,158 40,354 -120,446zm2308 -2307c-92,160 -289,210 -447,120 -165,-96 -212,-285 -119,-447 93,-161 281,-215 446,-119 158,91 212,286 120,446zm844 -3152c1,184 -145,326 -326,326 -191,0 -327,-140 -327,-326 0,-187 136,-327 327,-327 181,0 327,142 326,327zm-844 -3153c92,160 38,356 -120,447 -165,95 -353,42 -446,-120 -93,-162 -46,-351 119,-446 158,-91 355,-41 447,119zm-2308 -2307c160,92 211,289 120,446 -95,165 -285,213 -447,119 -161,-93 -215,-281 -119,-446 91,-157 286,-212 446,-119zm-3152 -845c185,0 327,145 327,327 0,190 -140,326 -327,326 -187,0 -327,-136 -327,-326 0,-182 142,-327 327,-327z"/>
     </g>
    </g>
   </g>
   <g>
    <polygon class="fil8" points="174917,15374 213335,15374 213335,59135 174917,59135 174917,40600 171571,37254 174917,33908 "/>
    <polygon class="fil9" points="213013,37254 171571,37254 174917,40600 174917,59135 213013,59135 213335,59134 213335,37254 "/>
    <g>
     <path class="fil5" d="M185784 50007c0,38 5,76 13,116 9,40 26,76 50,108 24,32 57,58 98,79 41,22 93,33 157,33 39,0 80,-1 120,-4 41,-4 83,-13 126,-27l0 -628 -227 0c-112,0 -197,30 -253,89 -56,59 -84,137 -84,234zm1268 1181c-73,0 -143,-5 -212,-15 -68,-10 -131,-29 -188,-57 -58,-27 -109,-65 -152,-112 -44,-47 -78,-109 -101,-184 -52,12 -105,21 -160,30 -55,8 -109,12 -164,12 -76,0 -163,-11 -263,-34 -100,-23 -195,-65 -284,-126 -90,-61 -166,-145 -228,-253 -62,-107 -93,-246 -93,-414 0,-168 30,-309 89,-424 59,-114 135,-208 227,-282 93,-72 195,-125 309,-157 113,-32 224,-48 334,-48l772 0 0 1361c0,69 9,117 28,142 18,25 61,38 127,38l109 0c24,0 47,2 68,8 21,5 41,15 57,31 18,17 31,41 40,75 8,33 13,78 13,137 0,103 -15,175 -44,213 -28,40 -73,59 -134,59l-150 0zm150 0c-23,0 -46,-2 -67,-6 -22,-5 -41,-16 -58,-32 -17,-18 -30,-43 -39,-76 -9,-33 -13,-79 -13,-136 0,-104 15,-175 43,-215 29,-39 74,-58 134,-58l673 0c24,0 46,2 67,8 22,5 41,15 58,31 17,17 30,41 39,75 9,33 13,78 13,137 0,103 -14,175 -43,213 -29,40 -73,59 -134,59l-673 0zm673 0c-23,0 -46,-2 -67,-6 -22,-5 -41,-16 -59,-34 -16,-19 -29,-45 -38,-79 -9,-33 -13,-78 -13,-136 0,-104 14,-175 43,-214 29,-39 73,-59 134,-59l719 0 0 -1281 595 0 0 1809 -1314 0zm51 764c0,-87 32,-163 95,-226 64,-64 140,-96 227,-96 87,0 163,32 226,96 64,63 96,139 96,226 0,87 -32,163 -96,227 -63,63 -139,95 -226,95 -87,0 -163,-32 -227,-95 -63,-64 -95,-140 -95,-227zm739 0c0,-87 32,-163 96,-226 63,-64 140,-96 228,-96 87,0 163,32 227,96 63,63 95,139 95,226 0,87 -32,163 -95,227 -64,63 -140,95 -227,95 -87,0 -163,-32 -228,-95 -64,-64 -96,-140 -96,-227zm2135 -1036c0,103 -15,175 -43,213 -29,40 -74,59 -134,59l-191 0c-104,0 -199,-11 -284,-34 -86,-23 -160,-61 -222,-113 -62,-53 -111,-123 -146,-211 -35,-88 -52,-197 -52,-327l0 -2559 591 0 0 2476c0,107 19,175 56,203 38,28 91,42 161,42l87 0c23,0 46,2 67,8 22,5 41,15 58,31 17,17 30,41 39,75 9,33 13,78 13,137zm-182 272c-23,0 -46,-2 -67,-6 -22,-5 -41,-16 -59,-32 -16,-18 -29,-43 -38,-76 -9,-33 -13,-79 -13,-136 0,-104 14,-175 43,-215 29,-39 73,-58 134,-58l673 0c23,0 46,2 67,8 21,5 41,15 58,31 17,17 30,41 39,75 8,33 13,78 13,137 0,103 -14,175 -43,213 -29,40 -74,59 -134,59l-673 0zm673 0c-24,0 -47,-2 -68,-6 -22,-5 -41,-16 -58,-34 -17,-19 -30,-45 -39,-79 -9,-33 -13,-78 -13,-136 0,-104 15,-175 44,-214 28,-39 73,-59 134,-59l719 0 0 -1281 594 0 0 1809 -1313 0zm450 1423c0,-87 32,-163 96,-226 63,-64 138,-96 226,-96 87,0 163,32 228,96 64,63 96,139 96,226 0,87 -32,163 -96,227 -63,63 -139,95 -228,95 -88,0 -163,-32 -226,-95 -64,-64 -96,-140 -96,-227zm-372 -659c0,-87 32,-163 95,-226 63,-64 139,-96 226,-96 88,0 164,32 228,96 64,63 96,139 96,226 0,87 -32,163 -95,227 -64,63 -140,95 -229,95 -87,0 -163,-32 -226,-95 -63,-64 -95,-140 -95,-227zm741 0c0,-87 31,-163 95,-226 64,-64 139,-96 226,-96 88,0 163,32 227,96 64,63 95,139 95,226 0,87 -31,163 -95,227 -64,63 -139,95 -227,95 -87,0 -162,-32 -226,-95 -64,-64 -95,-140 -95,-227zm2033 -1945c0,38 4,76 12,116 10,40 26,76 50,108 25,32 57,58 98,79 41,22 93,33 157,33 39,0 80,-1 120,-4 41,-4 83,-13 126,-27l0 -628 -226 0c-112,0 -197,30 -253,89 -56,59 -84,137 -84,234zm1267 1181c-73,0 -143,-5 -211,-15 -69,-10 -132,-29 -189,-57 -58,-27 -108,-65 -152,-112 -44,-47 -78,-109 -101,-184 -52,12 -105,21 -160,30 -54,8 -109,12 -164,12 -75,0 -163,-11 -263,-34 -100,-23 -195,-65 -284,-126 -90,-61 -165,-145 -227,-253 -63,-107 -94,-246 -94,-414 0,-168 30,-309 89,-424 59,-114 135,-208 227,-282 93,-72 196,-125 309,-157 113,-32 225,-48 334,-48l772 0 0 1361c0,69 9,117 28,142 18,25 61,38 128,38l109 0c23,0 46,2 67,8 21,5 41,15 58,31 17,17 30,41 39,75 8,33 13,78 13,137 0,103 -14,175 -43,213 -29,40 -74,59 -134,59l-151 0zm1777 -523c-8,-122 -28,-233 -58,-334 -31,-102 -76,-189 -137,-261 -60,-72 -140,-129 -238,-170 -99,-40 -221,-61 -365,-61 -50,0 -125,7 -228,20 -103,14 -209,36 -319,67l0 -528c70,-25 166,-50 287,-77 121,-27 244,-41 368,-41 228,0 421,37 580,111 159,74 289,174 389,301 100,128 173,276 219,444 47,169 73,345 79,529l296 0c23,0 46,2 67,8 22,5 41,15 58,31 17,17 30,41 39,75 8,33 13,78 13,137 0,103 -14,175 -43,213 -29,40 -74,59 -134,59l-2499 0c-24,0 -47,-2 -68,-6 -22,-5 -41,-16 -58,-32 -17,-18 -30,-43 -39,-76 -9,-33 -13,-79 -13,-136 0,-104 15,-175 44,-215 28,-39 73,-58 134,-58l1626 0zm-1073 -2071c0,-87 32,-163 96,-227 63,-65 140,-97 229,-97 87,0 162,32 226,95 64,64 96,140 96,229 0,87 -32,163 -96,226 -64,64 -139,96 -226,96 -88,0 -163,-32 -228,-96 -64,-63 -97,-139 -97,-226zm2105 2071c67,0 122,-2 166,-5 44,-3 79,-12 106,-26 28,-15 47,-37 59,-66 12,-29 18,-69 18,-121l0 -868 588 0 0 773c0,97 26,174 79,230 53,55 134,83 243,83 90,0 166,-14 228,-40 63,-27 94,-86 94,-178l0 -868 587 0 0 773c0,106 24,185 71,236 46,51 124,77 234,77 84,0 152,-14 204,-42 51,-28 78,-91 78,-189l0 -1055 585 0 0 973c0,112 23,193 68,240 45,49 143,73 292,73 24,0 46,2 68,8 21,5 40,15 56,31 16,17 29,41 39,75 10,33 14,78 14,137 0,103 -14,175 -43,213 -29,40 -73,59 -134,59 -87,0 -173,-15 -259,-47 -85,-32 -154,-97 -209,-194 -43,57 -88,102 -135,134 -46,32 -94,56 -143,73 -48,17 -97,27 -145,30 -48,3 -95,4 -141,4 -55,0 -112,-4 -173,-13 -61,-9 -120,-22 -180,-41 -59,-18 -112,-43 -159,-73 -46,-31 -84,-67 -112,-108 -93,104 -187,169 -282,195 -96,27 -200,40 -312,40 -298,0 -512,-78 -642,-235 -81,107 -187,173 -317,198 -130,25 -297,37 -500,37l-150 0c-24,0 -47,-2 -68,-6 -22,-5 -41,-16 -58,-32 -17,-18 -30,-43 -39,-76 -9,-33 -13,-79 -13,-136 0,-104 15,-175 44,-215 28,-39 73,-58 134,-58l159 0zm4179 -2071c0,-87 32,-163 95,-227 64,-65 140,-97 229,-97 87,0 163,32 227,95 63,64 95,140 95,229 0,87 -32,163 -95,226 -64,64 -140,96 -227,96 -87,0 -163,-32 -227,-96 -65,-63 -97,-139 -97,-226zm42 2071l0 -1286 596 0 0 1809 -1119 0c-24,0 -46,-2 -68,-6 -22,-5 -40,-16 -58,-32 -17,-18 -29,-43 -39,-76 -9,-33 -12,-79 -12,-136 0,-104 14,-175 43,-215 29,-39 73,-58 134,-58l523 0z"/>
     <g>
      <path class="fil6" d="M194126 25268c-4952,0 -8966,4014 -8966,8966 0,4951 4014,8965 8966,8965 4951,0 8965,-4014 8965,-8965 0,-4952 -4014,-8966 -8965,-8966z"/>
      <path class="fil10" d="M194296 28913l0 1436c-57,-3 -115,-4 -173,-4 -57,0 -112,1 -168,4l0 -1436c-294,-74 -506,-335 -506,-656 0,-376 301,-677 677,-677 376,0 677,301 677,677 0,321 -212,582 -507,656zm-170 3488c621,0 1014,391 1155,973 692,-129 1290,263 1290,983 0,567 -462,1026 -1029,1026l-2833 0c-567,0 -1028,-459 -1028,-1026 0,-720 598,-1112 1290,-983 141,-582 534,-973 1155,-973zm-3 5030c884,0 1684,-358 2263,-937 580,-580 938,-1380 938,-2264 0,-884 -358,-1684 -938,-2264 -579,-579 -1379,-937 -2263,-937 -884,0 -1685,358 -2264,937 -579,580 -938,1380 -938,2264 0,884 359,1684 938,2264 579,579 1380,937 2264,937zm0 341c1956,0 3542,-1586 3542,-3542 0,-1956 -1586,-3542 -3542,-3542 -1957,0 -3543,1586 -3543,3542 0,1956 1586,3542 3543,3542zm3446 -1745l1248 721c211,-220 545,-273 823,-112 326,188 436,599 248,924 -188,326 -599,436 -925,248 -277,-160 -398,-473 -315,-764l-1250 -722c61,-96 118,-194 171,-295zm-6725 289l-1243 718c88,294 -32,612 -313,774 -326,188 -736,78 -924,-248 -188,-325 -78,-736 247,-924 276,-159 605,-109 816,105l1247 -720c52,101 109,199 170,295zm-2177 1069c-92,-160 -38,-355 120,-446 164,-95 353,-42 446,120 93,161 45,351 -120,446 -157,91 -354,40 -446,-120zm10918 0c-93,160 -289,211 -447,120 -165,-95 -212,-285 -119,-446 93,-162 281,-215 446,-120 157,91 212,286 120,446zm-5459 -9455c185,0 326,145 326,327 0,190 -139,327 -326,327 -187,0 -327,-137 -327,-327 0,-182 142,-327 327,-327z"/>
     </g>
    </g>
   </g>
   <g>
    <polygon class="fil11" points="174917,59135 213335,59135 213335,102895 174917,102895 174917,84361 171571,81015 174917,77669 "/>
    <polygon class="fil12" points="213013,81015 171571,81015 174917,84361 174917,102896 213013,102896 213335,102895 213335,81015 "/>
    <g>
     <path class="fil5" d="M183250 94863c0,84 14,162 43,234 30,71 77,132 146,184 68,50 159,91 273,119 114,29 256,44 426,44 211,0 383,-16 515,-46 132,-30 234,-67 308,-111 74,-43 125,-91 152,-143 28,-52 41,-98 41,-140 0,-45 -17,-82 -52,-110 -35,-27 -91,-62 -170,-105 -87,-46 -169,-93 -247,-141 -78,-48 -145,-103 -201,-165 -56,-62 -101,-132 -134,-209 -33,-77 -50,-168 -50,-275 0,-118 21,-238 64,-358 43,-119 106,-228 189,-325 82,-97 188,-175 315,-236 127,-61 276,-91 446,-91 112,0 212,12 299,37 86,25 150,43 191,59l0 532c-106,-23 -197,-39 -275,-48 -76,-8 -137,-12 -179,-12 -79,0 -147,12 -205,34 -57,24 -105,53 -143,90 -37,35 -65,76 -83,120 -18,45 -27,89 -27,134 0,69 31,128 93,177 63,49 139,95 229,138 110,51 199,101 269,150 69,47 124,97 165,147 41,50 70,103 87,159 17,55 25,115 25,178 0,128 -25,258 -78,392 -51,134 -140,255 -266,362 -125,107 -292,195 -500,263 -206,68 -466,102 -778,102 -275,0 -507,-28 -696,-85 -188,-56 -341,-134 -457,-234 -116,-100 -199,-217 -249,-351 -51,-135 -76,-283 -76,-444l0 -730 590 0 0 704zm3596 -3163l0 3244 -586 0 0 -3244 586 0zm848 2063c0,38 4,76 12,116 9,40 26,76 50,108 25,32 57,58 98,79 41,22 93,33 157,33 39,0 80,-2 120,-5 41,-3 83,-12 126,-26l0 -628 -226 0c-112,0 -197,29 -253,89 -56,59 -84,137 -84,234zm1267 1181c-73,0 -143,-5 -212,-16 -68,-9 -131,-28 -188,-56 -58,-27 -108,-65 -152,-112 -44,-47 -78,-109 -101,-184 -52,12 -105,21 -160,30 -55,8 -109,12 -164,12 -75,0 -163,-12 -263,-34 -100,-23 -195,-65 -284,-126 -90,-61 -165,-145 -228,-253 -62,-108 -93,-246 -93,-414 0,-168 30,-309 89,-424 59,-114 135,-208 227,-282 93,-72 196,-125 309,-157 113,-32 224,-48 334,-48l772 0 0 1361c0,69 9,117 28,142 18,25 61,38 127,38l110 0c23,0 46,2 67,7 21,6 41,16 58,32 17,17 30,41 39,75 8,33 13,78 13,137 0,103 -15,175 -43,213 -29,40 -74,59 -134,59l-151 0zm1052 -940c0,156 36,265 108,325 73,62 160,92 262,92l256 0 0 -345c0,-60 -4,-119 -12,-175 -7,-56 -22,-105 -45,-147 -23,-42 -54,-76 -93,-103 -40,-25 -90,-38 -150,-38 -64,0 -116,11 -156,34 -41,23 -75,53 -100,89 -26,36 -44,77 -55,124 -10,47 -15,94 -15,144zm-506 417c-24,-49 -42,-111 -52,-185 -12,-73 -17,-142 -17,-206 0,-118 21,-235 62,-349 41,-115 101,-218 177,-307 78,-89 174,-161 289,-216 115,-55 247,-82 395,-82 173,0 316,31 427,93 112,62 200,141 264,236 65,96 109,202 134,319 25,117 38,230 38,339l0 881 -2112 0c-24,0 -47,-2 -68,-6 -22,-5 -41,-16 -58,-32 -17,-18 -30,-43 -39,-76 -9,-33 -13,-79 -13,-136 0,-104 15,-175 43,-215 29,-39 74,-58 135,-58l395 0zm513 -2071c0,-87 32,-163 95,-227 64,-65 140,-97 229,-97 87,0 163,31 227,95 63,64 95,140 95,229 0,87 -32,163 -95,226 -64,64 -140,96 -227,96 -87,0 -163,-32 -227,-96 -65,-63 -97,-139 -97,-226zm2966 2594c-40,0 -94,-9 -164,-28 -70,-18 -130,-57 -182,-118 -3,205 -27,377 -72,516 -45,138 -114,250 -204,335 -91,85 -206,146 -345,182 -140,36 -307,56 -502,59l0 -555c125,-3 223,-17 297,-44 72,-25 128,-63 164,-115 36,-51 59,-117 70,-198 10,-80 15,-177 15,-289l0 -1354 586 0 0 773c0,118 36,200 108,245 72,45 148,68 229,68 24,0 46,2 68,7 22,6 41,16 58,32 17,17 29,41 39,75 9,33 12,78 12,137 0,103 -14,175 -43,213 -29,40 -73,59 -134,59zm1624 -523c-8,-122 -28,-233 -58,-334 -30,-102 -77,-189 -139,-261 -62,-72 -141,-129 -238,-170 -97,-40 -218,-61 -363,-61 -49,0 -126,7 -230,20 -104,14 -209,36 -316,67l0 -528c69,-25 164,-50 284,-77 119,-27 243,-42 370,-42 237,0 437,41 599,123 162,81 293,190 392,327 100,137 172,295 216,475 43,180 65,367 65,562l0 422 -2208 0c-24,0 -46,-2 -67,-6 -22,-5 -41,-16 -59,-32 -16,-18 -29,-43 -38,-76 -10,-33 -13,-79 -13,-136 0,-104 14,-175 43,-215 29,-39 73,-58 134,-58l1626 0zm2080 -658c0,38 5,76 13,116 9,40 26,76 50,108 24,32 57,58 98,79 41,22 93,33 157,33 39,0 80,-2 120,-5 41,-3 83,-12 126,-26l0 -628 -227 0c-112,0 -197,29 -253,89 -56,59 -84,137 -84,234zm1268 1181c-73,0 -144,-5 -212,-16 -68,-9 -131,-28 -188,-56 -58,-27 -109,-65 -152,-112 -44,-47 -78,-109 -101,-184 -52,12 -105,21 -160,30 -55,8 -109,12 -164,12 -76,0 -163,-12 -263,-34 -100,-23 -195,-65 -284,-126 -90,-61 -166,-145 -228,-253 -62,-108 -93,-246 -93,-414 0,-168 30,-309 89,-424 59,-114 135,-208 227,-282 93,-72 195,-125 309,-157 113,-32 224,-48 334,-48l772 0 0 1361c0,69 9,117 28,142 18,25 61,38 127,38l109 0c24,0 47,2 68,7 21,6 41,16 57,32 18,17 31,41 40,75 8,33 13,78 13,137 0,103 -15,175 -44,213 -28,40 -73,59 -134,59l-150 0zm1777 -523c-9,-122 -28,-233 -59,-334 -30,-102 -75,-189 -136,-261 -61,-72 -140,-129 -239,-170 -98,-40 -220,-61 -365,-61 -49,0 -125,7 -228,20 -102,14 -208,36 -318,67l0 -528c70,-25 165,-50 287,-77 121,-27 243,-42 368,-42 228,0 421,38 580,112 159,74 289,174 389,301 100,128 173,276 219,444 47,169 73,345 79,529l295 0c24,0 47,2 68,7 22,6 41,16 57,32 18,17 31,41 40,75 8,33 13,78 13,137 0,103 -15,175 -44,213 -28,40 -73,59 -134,59l-2499 0c-23,0 -46,-2 -67,-6 -22,-5 -41,-16 -58,-32 -17,-18 -30,-43 -39,-76 -9,-33 -13,-79 -13,-136 0,-104 15,-175 43,-215 29,-39 74,-58 134,-58l1627 0zm-1073 -2071c0,-87 32,-163 96,-227 63,-65 140,-97 228,-97 87,0 163,31 227,95 63,64 95,140 95,229 0,87 -32,163 -95,226 -64,64 -140,96 -227,96 -87,0 -163,-32 -227,-96 -64,-63 -97,-139 -97,-226zm2105 2071c67,0 122,-2 165,-5 44,-3 80,-12 107,-26 27,-15 47,-37 59,-66 12,-29 18,-69 18,-121l0 -868 588 0 0 773c0,97 26,173 78,230 53,55 134,83 243,83 91,0 167,-14 229,-40 62,-27 93,-86 93,-178l0 -868 588 0 0 773c0,106 24,185 71,236 46,51 124,77 234,77 84,0 152,-15 204,-43 51,-28 78,-90 78,-188l0 -1055 585 0 0 973c0,112 23,192 67,240 46,49 144,73 293,73 23,0 46,2 67,7 22,6 40,16 57,32 16,17 29,41 39,75 10,33 14,78 14,137 0,103 -14,175 -43,213 -29,40 -74,59 -134,59 -87,0 -174,-16 -259,-47 -85,-32 -155,-97 -209,-194 -43,57 -88,102 -135,134 -46,32 -94,56 -143,73 -49,17 -97,27 -146,30 -47,3 -94,4 -141,4 -54,0 -112,-4 -172,-13 -61,-9 -121,-22 -180,-41 -59,-18 -112,-43 -159,-73 -46,-31 -84,-67 -112,-108 -93,104 -187,169 -283,195 -95,27 -200,40 -312,40 -297,0 -511,-78 -641,-235 -81,107 -187,172 -318,197 -129,25 -296,38 -499,38l-151 0c-23,0 -46,-2 -67,-6 -22,-5 -41,-16 -58,-32 -17,-18 -30,-43 -39,-76 -9,-33 -13,-79 -13,-136 0,-104 15,-175 43,-215 29,-39 74,-58 134,-58l160 0zm4179 -2071c0,-87 31,-163 95,-227 64,-65 140,-97 229,-97 87,0 163,31 226,95 64,64 96,140 96,229 0,87 -32,163 -96,226 -63,64 -139,96 -226,96 -87,0 -163,-32 -227,-96 -65,-63 -97,-139 -97,-226zm42 2071l0 -1286 595 0 0 1809 -1118 0c-24,0 -47,-2 -68,-6 -22,-5 -41,-16 -58,-32 -17,-18 -30,-43 -39,-76 -9,-33 -13,-79 -13,-136 0,-104 15,-175 44,-215 28,-39 73,-58 134,-58l523 0z"/>
     <g>
      <path class="fil6" d="M194126 69024c-4951,0 -8965,4014 -8965,8966 0,4951 4014,8965 8965,8965 4952,0 8966,-4014 8966,-8965 0,-4952 -4014,-8966 -8966,-8966z"/>
      <path class="fil13" d="M194126 81191c-884,0 -1684,-358 -2263,-938 -580,-579 -938,-1379 -938,-2263 0,-884 358,-1685 938,-2264 579,-579 1379,-938 2263,-938 884,0 1685,359 2264,938 579,579 937,1380 937,2264 0,884 -358,1684 -937,2263 -579,580 -1380,938 -2264,938zm171 -8523l0 1440c-107,-5 -236,-10 -341,0l0 -1440c-295,-74 -507,-335 -507,-657 0,-376 301,-676 677,-676 376,0 677,300 677,676 0,322 -212,583 -506,657zm3105 3232l1247 -720c-83,-292 38,-605 316,-766 326,-188 736,-78 925,248 188,326 78,737 -248,925 -279,160 -611,107 -823,-112l-1246 720c-53,-101 -110,-199 -171,-295zm171 3885l1246 719c211,-219 544,-273 823,-112 326,188 436,599 248,925 -189,326 -599,436 -925,248 -278,-160 -398,-474 -316,-765l-1247 -720c61,-95 118,-193 170,-294l1 -1zm-3283 2087l0 1438c298,71 513,334 513,657 0,377 -301,677 -677,677 -376,0 -677,-300 -677,-677 0,-318 209,-578 500,-654l0 -1442c59,3 118,4 177,4 55,0 110,-1 164,-3zm-3445 -1800l-1245 719c88,294 -32,612 -312,774 -326,188 -737,78 -925,-248 -188,-326 -78,-737 248,-925 275,-159 604,-108 816,105l1248 -720 2 4c52,99 108,196 168,291zm-164 -3880l-1246 -719c-211,221 -545,275 -824,114 -326,-188 -436,-599 -248,-925 188,-326 599,-436 925,-248 276,160 397,472 316,763l1248 720c-61,96 -118,194 -171,295zm-2015 -1355c93,-160 289,-210 447,-119 165,95 213,284 119,446 -93,162 -281,215 -446,120 -158,-91 -212,-287 -120,-447zm0 6305c-92,-160 -38,-356 120,-446 165,-96 353,-42 446,119 94,162 46,351 -119,447 -158,90 -354,40 -447,-120zm5460 3152c-185,0 -326,-145 -326,-327 0,-190 140,-326 326,-326 187,0 327,136 327,326 0,182 -142,327 -327,327zm5460 -3152c-92,160 -289,210 -446,120 -165,-96 -213,-285 -120,-447 94,-161 282,-215 447,-119 157,90 212,286 119,446zm0 -6305c93,160 38,356 -119,447 -165,95 -353,42 -447,-120 -93,-162 -45,-351 120,-446 157,-91 354,-41 446,119zm-5460 -3152c185,0 327,145 327,326 0,191 -140,327 -327,327 -186,0 -326,-136 -326,-327 0,-181 141,-326 326,-326zm0 4471c621,0 1014,390 1155,972 692,-129 1290,263 1290,983 0,568 -461,1027 -1028,1027l-2833 0c-567,0 -1029,-459 -1029,-1027 0,-720 598,-1112 1290,-983 141,-582 534,-972 1155,-972zm0 5376c-1956,0 -3542,-1586 -3542,-3542 0,-1957 1586,-3543 3542,-3543 1957,0 3543,1586 3543,3543 0,1956 -1586,3542 -3543,3542z"/>
     </g>
    </g>
   </g>
   <polygon class="fil14" points="174917,0 51237,0 51237,15374 174917,15374 "/>
   <polygon class="fil15" points="174917,0 213335,0 213335,15374 174917,15374 "/>
   <polygon class="fil10" points="0,15374 2092,15374 2092,59135 0,59135 "/>
   <polygon class="fil13" points="0,102895 2092,102895 2092,59135 0,59135 "/>
   <polygon class="fil7" points="0,102895 2092,102895 2092,146656 0,146656 "/>
   <polygon class="fil16" points="0,0 51237,0 51237,15374 0,15374 "/>
  </g>
 </g>
</svg>
