<?xml version="1.0" encoding="UTF-8"?>
<!DOCTYPE svg PUBLIC "-//W3C//DTD SVG 1.1//EN" "http://www.w3.org/Graphics/SVG/1.1/DTD/svg11.dtd">
<!-- Creator: CorelDRAW X7 -->
<svg xmlns="http://www.w3.org/2000/svg" xml:space="preserve" width="3.0698in" height="0.97189in" version="1.1" style="shape-rendering:geometricPrecision; text-rendering:geometricPrecision; image-rendering:optimizeQuality; fill-rule:evenodd; clip-rule:evenodd"
viewBox="0 0 30698 9719"
 xmlns:xlink="http://www.w3.org/1999/xlink">
 <defs>
  <style type="text/css">
   <![CDATA[
    .fil2 {fill:#7C94CA}
    .fil1 {fill:#DBE2F1}
    .fil0 {fill:white}
   ]]>
  </style>
 </defs>
 <g id="Layer_x0020_1">
  <metadata id="CorelCorpID_0Corel-Layer"/>
  <g id="_2622772283408">
   <path class="fil0" d="M4859 0l20980 0c2672,0 4859,2187 4859,4859 0,2673 -2186,4860 -4859,4860l-20980 0c-2672,0 -4859,-2187 -4859,-4859 0,-2673 2186,-4860 4859,-4860z"/>
   <polygon class="fil1" points="20778,1407 20497,1407 20497,8312 20778,8312 "/>
   <polygon class="fil2" points="20356,1407 20497,1407 20497,8312 20356,8312 "/>
   <path class="fil2" d="M24217 4753l3113 0 -1168 -1168 152 -153 1429 1428 -1429 1428 -152 -152 1168 -1170 -3113 0 0 -213zm-1674 107c0,-919 356,-1783 1006,-2432 650,-649 1512,-1007 2431,-1005 918,0 1780,356 2429,1006 650,648 1007,1512 1007,2431 0,918 -357,1782 -1007,2430 -649,650 -1511,1007 -2429,1007 -919,1 -1781,-357 -2431,-1006 -650,-649 -1006,-1513 -1006,-2431zm6658 0c0,-861 -334,-1670 -943,-2280 -609,-608 -1417,-943 -2278,-943 -863,0 -1671,335 -2279,943 -609,610 -944,1419 -944,2280 0,861 335,1669 944,2279 608,608 1416,944 2279,944 861,0 1669,-336 2278,-944 609,-610 943,-1418 943,-2279z"/>
   <path class="fil2" d="M4859 0l20980 0c2672,0 4859,2187 4859,4859 0,2673 -2186,4860 -4859,4860l-20980 0c-2672,0 -4859,-2187 -4859,-4859 0,-2673 2186,-4860 4859,-4860zm20980 239l-20980 0c-1271,0 -2426,520 -3263,1357l0 1c-837,837 -1357,1992 -1357,3263 0,1270 520,2425 1357,3262 838,838 1993,1358 3263,1358l20980 0c1271,0 2426,-520 3263,-1357l0 -1c837,-837 1357,-1993 1357,-3263 0,-1270 -520,-2425 -1357,-3263 -838,-837 -1993,-1357 -3263,-1357z"/>
  </g>
 </g>
</svg>
