<?xml version="1.0" encoding="UTF-8"?>
<!DOCTYPE svg PUBLIC "-//W3C//DTD SVG 1.1//EN" "http://www.w3.org/Graphics/SVG/1.1/DTD/svg11.dtd">
<!-- Creator: CorelDRAW X7 -->
<svg xmlns="http://www.w3.org/2000/svg" xml:space="preserve" width="2.68999in" height="15.9012in" version="1.1" style="shape-rendering:geometricPrecision; text-rendering:geometricPrecision; image-rendering:optimizeQuality; fill-rule:evenodd; clip-rule:evenodd"
viewBox="0 0 26900 159012"
 xmlns:xlink="http://www.w3.org/1999/xlink">
 <defs>
  <style type="text/css">
   <![CDATA[
    .fil1 {fill:#F2E7D3}
    .fil0 {fill:#F6EFE2}
    .fil2 {fill:#F8F2E8}
   ]]>
  </style>
 </defs>
 <g id="Layer_x0020_1">
  <metadata id="CorelCorpID_0Corel-Layer"/>
  <g id="_2622982883008">
   <path class="fil0" d="M22536 159012c-21544,-24164 -11877,-47109 -4166,-78034 3802,-15248 7710,-33915 -106,-48497 -8759,-16340 -10151,-17945 -3298,-32481l11934 0 0 159012 -4364 0z"/>
   <path class="fil1" d="M5780 159012c-14672,-23783 3665,-49528 10959,-78784 9622,-38587 -6700,-44122 -11464,-66120 -1067,-4925 -1326,-9580 -1156,-14108l10847 0c-6853,14536 -5461,16141 3298,32481 7816,14582 3908,33249 106,48497 -7711,30925 -17378,53870 4166,78034l-16756 0z"/>
   <path class="fil2" d="M0 64113c0,-17220 13846,-16730 14991,-587 616,8690 -3007,17963 -10350,12754 -2720,-1929 -4641,-6649 -4641,-12167z"/>
  </g>
 </g>
</svg>
