<?xml version="1.0" encoding="UTF-8"?>
<!DOCTYPE svg PUBLIC "-//W3C//DTD SVG 1.1//EN" "http://www.w3.org/Graphics/SVG/1.1/DTD/svg11.dtd">
<!-- Creator: CorelDRAW X7 -->
<svg xmlns="http://www.w3.org/2000/svg" xml:space="preserve" width="1.41638in" height="0.490315in" version="1.1" style="shape-rendering:geometricPrecision; text-rendering:geometricPrecision; image-rendering:optimizeQuality; fill-rule:evenodd; clip-rule:evenodd"
viewBox="0 0 14164 4903"
 xmlns:xlink="http://www.w3.org/1999/xlink">
 <defs>
  <style type="text/css">
   <![CDATA[
    .fil3 {fill:#BB9B61}
    .fil1 {fill:#DBBD89}
    .fil2 {fill:#FAF6F0}
    .fil0 {fill:white}
   ]]>
  </style>
 </defs>
 <g id="Layer_x0020_1">
  <metadata id="CorelCorpID_0Corel-Layer"/>
  <g id="_2622772271920">
   <g>
    <path class="fil0" d="M2420 657l0 3589c0,137 108,245 245,245l8834 0c136,0 245,-108 245,-245l0 -3589c0,-137 -109,-245 -245,-245l-8834 0c-137,0 -245,108 -245,245z"/>
    <path class="fil1" d="M2953 0l8258 0c426,0 774,348 774,774l0 3355c0,426 -348,774 -774,774l-8258 0c-426,0 -774,-348 -774,-774l0 -3355c0,-426 348,-774 774,-774zm8258 545l-8258 0c-128,0 -229,101 -229,229l0 3355c0,128 101,229 229,229l8258 0c128,0 229,-101 229,-229l0 -3355c0,-128 -101,-229 -229,-229z"/>
   </g>
   <g>
    <g>
     <path class="fil2" d="M342 595l0 3713c0,141 112,253 253,253l3713 0c141,0 253,-112 253,-253l0 -3713c0,-141 -112,-253 -253,-253l-3713 0c-141,0 -253,112 -253,253z"/>
     <path class="fil1" d="M4129 0l-3355 0c-426,0 -774,348 -774,774l0 3355c0,426 348,774 774,774l3355 0c426,0 774,-348 774,-774l0 -3355c0,-426 -348,-774 -774,-774zm-3355 545l3355 0c64,0 121,25 161,66 44,44 68,100 68,163l0 3355c0,64 -25,121 -66,161 -44,44 -100,68 -163,68l-3355 0c-64,0 -121,-25 -161,-66 -44,-44 -68,-100 -68,-163l0 -3355c0,-64 25,-121 66,-161 44,-44 100,-68 163,-68z"/>
    </g>
    <polygon class="fil3" points="1640,2274 3200,2274 3200,2629 1640,2629 "/>
   </g>
   <g>
    <g>
     <path class="fil2" d="M13822 595l0 3713c0,141 -112,253 -253,253l-3713 0c-141,0 -253,-112 -253,-253l0 -3713c0,-141 112,-253 253,-253l3713 0c141,0 253,112 253,253z"/>
     <path class="fil1" d="M10034 0l3356 0c426,0 774,348 774,774l0 3355c0,426 -348,774 -774,774l-3356 0c-425,0 -773,-348 -773,-774l0 -3355c0,-426 348,-774 773,-774zm3356 545l-3356 0c-63,0 -120,25 -160,66 -45,44 -68,100 -68,163l0 3355c0,64 25,121 65,161 45,44 101,68 163,68l3356 0c64,0 121,-25 161,-66 44,-44 68,-100 68,-163l0 -3355c0,-64 -25,-121 -66,-161 -44,-44 -100,-68 -163,-68z"/>
    </g>
    <polygon class="fil3" points="11545,2615 11545,3408 11880,3408 11880,2615 12668,2615 12668,2284 11880,2284 11880,1496 11545,1496 11545,2284 10756,2284 10756,2615 "/>
   </g>
  </g>
 </g>
</svg>
