<?xml version="1.0" encoding="UTF-8"?>
<!DOCTYPE svg PUBLIC "-//W3C//DTD SVG 1.1//EN" "http://www.w3.org/Graphics/SVG/1.1/DTD/svg11.dtd">
<!-- Creator: CorelDRAW X7 -->
<svg xmlns="http://www.w3.org/2000/svg" xml:space="preserve" width="10.2637in" height="3.6648in" version="1.1" style="shape-rendering:geometricPrecision; text-rendering:geometricPrecision; image-rendering:optimizeQuality; fill-rule:evenodd; clip-rule:evenodd"
viewBox="0 0 102637 36648"
 xmlns:xlink="http://www.w3.org/1999/xlink">
 <defs>
  <style type="text/css">
   <![CDATA[
    .fil4 {fill:black}
    .fil2 {fill:#F6EFE2}
    .fil3 {fill:black;fill-rule:nonzero}
    .fil1 {fill:#BB9B61;fill-rule:nonzero}
    .fil0 {fill:#D7B77D;fill-rule:nonzero}
   ]]>
  </style>
 </defs>
 <g id="Layer_x0020_1">
  <metadata id="CorelCorpID_0Corel-Layer"/>
  <g id="_2622979403040">
   <g>
    <g>
     <path class="fil0" d="M102637 18297c0,10112 -8239,18351 -18351,18351 -10111,0 -18297,-8239 -18297,-18351 0,-10111 8186,-18297 18297,-18297 10112,0 18351,8186 18351,18297z"/>
     <g>
      <path class="fil1" d="M70162 29907c-2622,-3157 -4173,-7169 -4173,-11610 0,-10111 8186,-18297 18297,-18297 5671,0 10700,2568 14071,6581 0,0 -13803,-5297 -22310,3210 -8507,8506 -5885,20116 -5885,20116z"/>
      <path class="fil1" d="M87412 8190c-214,214 -428,428 -642,642 -321,321 -321,910 0,1231 375,321 910,321 1284,0 214,-214 375,-428 589,-589 321,-374 321,-963 0,-1284 -321,-321 -910,-321 -1231,0z"/>
      <path class="fil1" d="M91784 30038c1177,0 1177,-1819 0,-1819 -1123,0 -1123,1819 0,1819z"/>
      <path class="fil1" d="M80815 15353c1498,0 1498,-2407 0,-2407 -1551,0 -1551,2407 0,2407z"/>
     </g>
     <g>
      <path class="fil1" d="M77622 18570l642 0c749,0 749,-1177 0,-1177l-642 0c-749,0 -749,1177 0,1177z"/>
      <path class="fil1" d="M90384 22576c2675,0 2675,-4173 0,-4173 -2675,0 -2675,4173 0,4173z"/>
     </g>
    </g>
    <path class="fil2" d="M87771 23511l0 3457 -13831 0 0 -3457 13831 0zm-13831 -10374l0 -3457c6915,0 13831,0 20746,0l-3458 3457c-5762,0 -11525,0 -17288,0zm20746 3458c0,3458 0,6916 0,10373l-3458 0 0 -6915 0 0 -17288 0 0 -3458c6915,0 13831,0 20746,0z"/>
   </g>
   <path class="fil3" d="M13012 8585l-1622 0 0 -1573c0,-230 45,-441 132,-631 89,-191 203,-357 349,-499 145,-143 317,-259 514,-354 197,-94 402,-161 617,-202l0 750c-202,39 -372,149 -510,329 -139,180 -208,375 -208,584l728 0 0 1596zm35069 22956c0,281 -98,515 -291,696 -194,182 -479,274 -848,274l-2112 0 0 -733 2052 0c201,0 328,-31 379,-92 52,-62 78,-131 78,-209 0,-58 -13,-120 -35,-184 -22,-64 -80,-170 -172,-315 -91,-144 -225,-345 -399,-601 -174,-256 -410,-603 -709,-1043l681 -427c236,405 441,747 612,1024 171,277 315,513 427,707 112,194 197,361 253,500 56,139 84,274 84,403zm2626 -1988l715 0 0 2462c0,434 -26,805 -75,1102 -49,296 -147,539 -287,720 -139,181 -339,316 -587,396 -249,80 -572,124 -970,124l0 -733c287,0 514,-33 676,-93 160,-60 284,-164 363,-300 79,-136 130,-317 143,-530 13,-215 22,-475 22,-780l0 -2368zm4846 1988c0,281 -99,516 -291,696 -193,181 -481,274 -848,274l-2112 0 0 -733 2052 0c201,0 328,-31 379,-92 52,-62 78,-131 78,-209 0,-58 -14,-121 -35,-184 -21,-63 -81,-171 -172,-315 -90,-143 -225,-345 -399,-601 -174,-256 -411,-603 -709,-1043l681 -427c235,405 441,748 612,1024 170,276 315,513 427,707 112,194 198,362 253,500 55,138 84,274 84,403zm-54682 -591l-715 0 0 -4726 715 0 0 4726zm-871 1139c-3,-147 47,-271 147,-371 100,-100 224,-152 371,-152 147,0 269,52 371,152 100,100 150,224 150,371 0,146 -50,269 -150,371 -102,100 -224,150 -371,150 -147,0 -271,-50 -371,-150 -100,-102 -150,-225 -147,-371zm2942 -1884c0,247 79,447 235,601 157,153 405,231 744,231 129,0 269,-14 420,-43 150,-28 286,-68 404,-116l0 -1571 -777 0c-281,0 -523,72 -724,214 -202,142 -302,371 -302,684zm918 1582c-141,0 -303,-21 -488,-63 -185,-42 -364,-117 -532,-224 -167,-107 -310,-260 -428,-459 -118,-199 -176,-456 -176,-771 0,-319 55,-586 167,-801 112,-213 257,-388 433,-524 176,-135 373,-232 587,-291 213,-58 427,-88 640,-88l1406 0 0 2531c0,247 38,423 113,525 76,105 247,156 512,156l211 0c235,0 353,118 353,353 0,148 -29,248 -84,301 -56,52 -146,79 -269,79l-298 0c-151,0 -299,-13 -437,-38 -139,-26 -264,-74 -374,-143 -108,-68 -202,-159 -278,-269 -75,-110 -125,-256 -148,-434 -130,47 -276,85 -437,114 -162,30 -320,46 -473,46zm2445 724c-235,0 -354,-118 -354,-353 0,-147 29,-248 84,-300 56,-53 146,-80 270,-80l1306 0c236,0 353,118 353,353 0,148 -28,248 -83,301 -56,52 -147,79 -270,79l-1306 0zm6738 0c-224,0 -419,-43 -584,-131 -165,-87 -298,-238 -399,-452l0 -16c-112,224 -275,400 -489,526 -214,126 -484,189 -808,189 -282,0 -563,-48 -843,-142 -280,-95 -569,-253 -868,-479 -78,118 -156,211 -235,279 -80,67 -164,118 -254,151 -87,33 -179,53 -273,62 -93,8 -194,13 -299,13l-380 0c-235,0 -353,-118 -353,-353 0,-147 28,-248 84,-300 56,-53 146,-80 269,-80l362 0c72,0 146,-9 223,-26 76,-17 153,-55 228,-113 76,-59 152,-142 225,-245 72,-102 145,-242 209,-418 136,-375 277,-681 427,-914 148,-232 302,-412 459,-538 156,-126 316,-212 478,-253 161,-42 322,-62 481,-62 218,0 423,42 614,126 191,85 357,206 494,362 138,157 247,343 325,557 79,214 118,454 118,722 0,40 -2,80 -4,120 -3,37 -5,75 -5,108 59,190 144,334 258,430 113,96 293,144 540,144 237,0 352,118 350,353 -1,147 -28,248 -82,301 -55,53 -144,79 -268,79zm-1522 -1561c0,-128 -18,-256 -56,-381 -37,-125 -92,-235 -167,-329 -75,-92 -165,-168 -270,-223 -105,-56 -228,-84 -369,-84 -247,0 -474,109 -681,328 -206,218 -401,600 -582,1146 218,142 435,254 649,340 214,86 433,130 658,130 247,0 446,-70 595,-211 149,-140 223,-379 223,-716zm1518 1561c-235,0 -354,-118 -354,-353 0,-147 29,-248 84,-300 56,-53 146,-80 270,-80l1405 0c-57,-84 -114,-201 -168,-353 -54,-153 -82,-341 -82,-565 0,-305 71,-592 213,-861 142,-268 361,-456 654,-562 -118,0 -236,1 -354,4 -117,3 -238,8 -362,14l0 -660c640,-35 1216,-5 1726,89 511,93 941,262 1290,506 348,244 617,571 802,980 185,410 278,908 278,1494l0 647 -5402 0zm2479 -733c124,0 227,-30 311,-92 82,-62 149,-139 195,-228 48,-91 81,-192 98,-301 16,-108 25,-210 25,-306 0,-129 -12,-255 -34,-375 -23,-121 -62,-229 -115,-324 -52,-94 -121,-168 -205,-219 -83,-51 -184,-78 -301,-78 -208,0 -368,94 -482,282 -113,189 -169,433 -169,732 0,106 9,212 30,319 20,106 56,202 106,286 50,85 115,156 194,212 78,55 179,92 303,92l44 0zm2181 0c0,-630 -129,-1115 -384,-1457 -256,-342 -603,-581 -1043,-716 101,78 182,169 245,272 63,103 117,209 158,316 42,109 70,217 84,326 14,110 22,212 22,306 0,225 -21,415 -61,569 -39,156 -88,284 -142,384l1121 0zm7341 626c0,766 -212,1327 -636,1669 -422,341 -1018,512 -1783,512 -812,0 -1421,-180 -1823,-539 -402,-358 -604,-883 -604,-1569l0 -1362 715 0 0 1211c0,279 38,523 111,719 73,198 183,359 325,477 143,119 326,207 543,259 218,52 469,80 751,80 292,0 546,-22 759,-61 211,-39 387,-116 525,-228 139,-112 241,-264 305,-450 64,-188 97,-431 97,-727l0 -2842 715 0 0 1256c0,144 10,280 28,400 18,120 60,223 121,304 61,81 149,148 259,195 109,47 263,70 459,70 141,0 263,-6 366,-17 103,-12 189,-40 256,-84 68,-44 119,-110 152,-194 32,-83 49,-201 49,-348l0 -1582 721 0 0 1256c0,144 12,280 32,400 21,119 61,223 116,304 55,81 135,148 233,195 97,47 226,70 381,70l742 0 0 -2665 724 0 0 3398 -1466 0c-228,0 -416,-55 -553,-163 -139,-110 -233,-246 -278,-411 -106,242 -276,398 -505,468 -229,70 -520,106 -871,106 -281,0 -498,-42 -645,-126 -147,-84 -255,-187 -321,-305l0 324zm8006 107c-196,0 -359,-44 -487,-131 -129,-87 -225,-191 -289,-309 0,423 -25,781 -75,1071 -50,291 -146,530 -287,708 -140,179 -336,310 -583,387 -246,78 -568,120 -965,120l0 -733c287,0 513,-32 676,-93 161,-61 283,-163 363,-300 80,-136 129,-316 143,-530 14,-215 20,-475 20,-780l0 -2368 717 0 0 1256c0,297 55,535 163,709 109,173 311,260 604,260 235,0 353,118 353,353 0,148 -29,249 -84,301 -55,52 -146,79 -269,79zm-5 0c-232,0 -353,-118 -353,-353 0,-147 29,-248 84,-300 55,-52 146,-80 269,-80l590 0c142,0 263,-6 362,-17 101,-11 187,-41 254,-84 66,-44 117,-110 150,-194 32,-84 50,-201 50,-348l0 -2022 724 0 0 1696c0,144 12,280 31,400 19,120 59,223 117,304 58,81 139,148 237,195 99,47 227,70 383,70 235,0 353,118 353,353 0,148 -29,249 -84,301 -55,52 -145,79 -269,79 -230,0 -416,-55 -556,-163 -141,-109 -236,-246 -286,-411 -106,242 -273,398 -497,468 -225,70 -505,106 -835,106l-724 0zm698 -4884c0,-130 47,-240 138,-330 91,-89 202,-137 331,-137 130,0 239,47 330,137 90,91 137,200 137,330 0,129 -47,240 -137,331 -90,91 -200,138 -330,138 -129,0 -239,-46 -331,-138 -92,-92 -138,-202 -138,-331zm1146 0c0,-130 48,-241 139,-330 92,-90 203,-137 332,-137 128,0 239,46 330,137 90,90 135,200 135,330 0,129 -46,241 -135,331 -91,92 -202,138 -330,138 -129,0 -240,-45 -332,-138 -92,-91 -139,-202 -139,-331zm1050 4884c-233,0 -354,-118 -354,-353 0,-147 29,-248 84,-300 55,-52 146,-80 270,-80l1306 0c236,0 353,118 353,353 0,148 -28,249 -83,301 -55,52 -148,79 -270,79l-1306 0zm1617 -733c196,0 361,-6 493,-17 133,-11 242,-41 322,-84 79,-43 138,-110 172,-194 34,-83 52,-201 52,-348l0 -1591 724 0 0 1265c0,144 10,280 28,400 17,120 61,223 125,304 63,81 156,148 274,195 116,47 279,70 482,70 130,0 244,-6 342,-17 96,-11 179,-41 242,-84 64,-44 114,-110 145,-194 30,-84 48,-201 48,-348l0 -1582 724 0 0 1256c0,144 11,280 33,400 21,120 61,223 116,304 55,81 134,148 232,195 99,47 227,70 382,70l741 0 0 -2665 721 0 0 3398 -1462 0c-228,0 -415,-55 -554,-163 -139,-109 -232,-246 -278,-411 -106,242 -273,398 -496,468 -223,70 -494,106 -811,106 -206,0 -377,-18 -507,-50 -132,-32 -244,-77 -331,-131 -87,-53 -157,-118 -207,-190 -49,-71 -92,-142 -128,-212 -51,124 -118,224 -197,296 -80,73 -185,133 -310,177 -126,44 -284,75 -468,88 -185,13 -410,22 -667,22l-293 0c-233,0 -353,-118 -353,-353 0,-147 29,-248 84,-300 55,-52 146,-80 269,-80l311 0zm-36681 -10044c0,230 37,440 110,632 74,191 198,356 371,493 174,138 404,245 691,322 285,77 640,113 1062,113 305,0 597,-22 877,-66 281,-44 528,-107 743,-190 217,-82 387,-182 514,-303 126,-121 190,-257 190,-410 0,-136 -44,-249 -134,-340 -89,-93 -258,-201 -505,-324 -175,-90 -338,-181 -489,-274 -151,-93 -281,-197 -388,-312 -107,-116 -194,-244 -261,-388 -66,-145 -98,-314 -98,-510 0,-223 40,-450 121,-678 79,-228 200,-436 362,-621 160,-185 362,-335 603,-450 241,-115 527,-172 858,-172 196,0 368,22 516,66 150,44 237,72 259,84l0 741c-117,-33 -245,-63 -382,-88 -139,-25 -275,-37 -411,-37 -196,0 -368,31 -516,93 -150,62 -274,143 -371,244 -99,100 -172,212 -221,336 -48,123 -73,247 -73,371 0,117 22,219 64,304 44,84 103,162 180,233 76,70 165,135 265,194 101,59 210,121 328,187 201,112 369,215 505,309 133,93 241,184 320,274 80,88 137,178 173,269 35,90 54,188 54,294 0,248 -56,486 -169,717 -112,230 -292,433 -539,609 -247,177 -566,320 -956,427 -392,109 -864,162 -1419,162 -555,0 -1020,-53 -1397,-162 -376,-107 -679,-258 -908,-450 -228,-193 -392,-420 -492,-682 -102,-262 -152,-547 -152,-858l0 -1318 715 0 0 1159zm7476 -6065l0 6302 -724 0 0 -6302 724 0zm1708 3996c0,248 78,447 235,601 157,154 405,231 743,231 130,0 270,-14 421,-43 150,-28 286,-68 403,-116l0 -1570 -777 0c-281,0 -522,71 -724,213 -202,142 -301,371 -301,684zm918 1582c-141,0 -303,-21 -489,-63 -185,-42 -363,-116 -531,-224 -168,-107 -310,-260 -428,-459 -118,-198 -177,-456 -177,-771 0,-319 56,-586 168,-800 112,-214 256,-389 433,-524 176,-136 372,-233 587,-292 213,-58 427,-88 640,-88l1405 0 0 2531c0,247 39,423 114,526 76,104 247,156 512,156l210 0c236,0 353,117 353,353 0,147 -28,247 -83,300 -56,53 -146,79 -270,79l-297 0c-151,0 -299,-12 -437,-38 -140,-26 -264,-73 -374,-143 -109,-68 -202,-158 -278,-269 -75,-110 -125,-256 -149,-434 -129,47 -275,85 -437,115 -162,30 -319,45 -472,45zm3901 -1052c0,359 106,623 318,792 210,168 469,252 777,252l846 0 0 -885c0,-140 -14,-282 -40,-427 -25,-142 -73,-272 -144,-387 -70,-114 -168,-209 -291,-282 -124,-74 -280,-111 -470,-111 -157,0 -298,28 -422,84 -124,56 -228,131 -313,225 -84,93 -148,205 -193,334 -45,129 -68,264 -68,405zm-1457 1776c-235,0 -353,-117 -353,-353 0,-147 28,-247 84,-300 56,-53 146,-79 269,-79l1005 0c-66,-124 -123,-261 -169,-410 -46,-149 -68,-322 -68,-518 0,-229 37,-456 114,-681 76,-224 189,-422 337,-594 147,-172 328,-314 543,-423 213,-108 463,-165 747,-165 326,0 590,59 797,178 204,118 367,268 488,451 121,182 205,382 250,603 46,219 69,436 69,649l0 1642 -4113 0zm2047 -4884c0,-129 47,-240 139,-329 92,-92 203,-137 332,-137 130,0 239,45 330,137 90,89 135,200 135,329 0,130 -45,240 -135,331 -91,93 -200,139 -330,139 -129,0 -240,-46 -332,-139 -92,-91 -139,-201 -139,-331zm5342 4884c-196,0 -358,-43 -487,-131 -130,-87 -225,-191 -288,-309 0,423 -25,781 -75,1072 -51,291 -146,528 -287,708 -142,179 -336,308 -583,387 -247,78 -568,119 -965,119l0 -733c287,0 512,-31 675,-93 162,-61 282,-162 363,-300 81,-137 129,-315 143,-530 15,-216 21,-475 21,-780l0 -2368 716 0 0 1256c0,298 55,535 164,709 109,174 310,261 603,261 236,0 353,117 353,353 0,147 -28,247 -83,300 -56,53 -146,79 -270,79zm3535 -732c0,-377 -50,-695 -149,-953 -99,-258 -233,-470 -404,-632 -171,-163 -373,-280 -602,-354 -230,-73 -471,-110 -724,-110 -169,0 -350,17 -542,49 -191,31 -349,64 -471,103l0 -708c118,-34 274,-74 467,-118 194,-44 406,-68 637,-68 447,0 833,77 1155,230 321,152 586,359 793,622 207,263 359,570 455,919 96,348 144,718 144,1105l0 647 -4298 0c-236,0 -353,-117 -353,-353 0,-147 28,-247 84,-300 55,-53 145,-79 269,-79l3539 0zm8593 732c67,72 123,171 168,298 46,126 69,248 69,366 0,175 -51,349 -156,520 -103,170 -269,322 -497,454 -228,133 -527,239 -895,318 -368,78 -821,118 -1358,118 -595,0 -1085,-53 -1470,-162 -386,-107 -692,-256 -918,-446 -227,-190 -385,-412 -473,-668 -87,-256 -131,-533 -131,-831l0 -1363 715 0 0 1229c0,522 180,906 540,1150 360,245 944,367 1755,367 298,0 584,-16 856,-47 271,-33 509,-78 712,-140 205,-62 365,-141 482,-236 116,-95 175,-204 175,-328 0,-135 -69,-256 -208,-362 -138,-106 -307,-200 -510,-282 -204,-81 -420,-153 -649,-215 -230,-62 -433,-119 -608,-171l0 -715c758,275 1467,414 2125,414l893 0c235,0 353,117 353,353 0,147 -28,247 -84,300 -56,53 -145,79 -269,79l-617 0zm608 0c-235,0 -353,-117 -353,-353 0,-147 28,-247 84,-300 56,-53 146,-79 269,-79l1376 0 0 -2666 724 0 0 3398 -2100 0zm362 1332c0,-129 46,-238 139,-329 91,-90 201,-136 331,-136 129,0 240,46 329,136 92,91 137,200 137,329 0,130 -45,240 -137,333 -89,91 -200,138 -329,138 -130,0 -240,-47 -331,-138 -93,-93 -139,-203 -139,-333zm1147 0c0,-129 47,-238 138,-329 93,-90 203,-136 332,-136 129,0 239,46 330,136 90,91 136,200 136,329 0,130 -46,240 -136,333 -91,91 -201,138 -330,138 -129,0 -239,-47 -332,-138 -91,-93 -138,-203 -138,-333zm3670 -1711c0,147 -28,247 -84,300 -56,53 -146,79 -269,79l-230 0c-190,0 -362,-19 -517,-58 -155,-39 -287,-105 -397,-198 -109,-94 -194,-219 -256,-375 -62,-157 -93,-353 -93,-589l0 -5082 724 0 0 4888c0,247 40,423 117,526 78,104 248,156 513,156l139 0c235,0 353,117 353,353zm-353 379c-236,0 -354,-117 -354,-353 0,-147 28,-247 84,-300 56,-53 146,-79 270,-79l1405 0c-57,-84 -113,-202 -168,-354 -54,-153 -82,-341 -82,-565 0,-304 72,-591 213,-861 143,-268 361,-456 654,-562 -118,0 -236,2 -354,5 -117,3 -238,7 -362,13l0 -659c640,-36 1216,-6 1727,88 510,93 940,262 1289,506 348,244 616,571 802,980 185,411 278,908 278,1494l0 647 -5402 0zm2479 -732c124,0 227,-31 311,-93 82,-62 148,-139 195,-228 48,-92 80,-192 98,-300 16,-109 25,-211 25,-307 0,-129 -12,-254 -34,-375 -24,-121 -62,-228 -115,-324 -53,-94 -121,-167 -205,-219 -83,-51 -183,-78 -301,-78 -208,0 -368,94 -481,283 -114,188 -170,432 -170,731 0,106 9,212 30,319 20,106 56,202 106,286 50,85 114,156 194,212 78,56 179,87 303,93l44 0zm2181 0c0,-630 -128,-1116 -384,-1457 -256,-343 -603,-582 -1043,-717 101,78 182,169 245,272 64,103 117,209 158,317 43,108 71,216 84,325 15,110 22,212 22,306 0,225 -21,415 -60,569 -40,156 -89,284 -143,385l1121 0zm2437 -2226l715 0 0 2462c0,438 -25,804 -75,1103 -51,297 -145,537 -287,719 -141,183 -337,315 -587,396 -250,83 -572,124 -970,124l0 -733c287,0 512,-31 676,-93 162,-62 284,-162 363,-300 81,-137 128,-315 143,-530 15,-216 22,-475 22,-780l0 -2368zm2673 -3344l0 6302 -725 0 0 -6302 725 0zm3362 6302c-196,0 -357,-44 -487,-131 -129,-88 -225,-191 -288,-309 0,423 -25,780 -75,1072 -52,291 -146,528 -287,708 -142,179 -336,309 -583,387 -247,79 -568,119 -966,119l0 -733c287,0 513,-31 676,-93 162,-62 283,-162 363,-300 81,-137 128,-315 143,-530 15,-216 21,-475 21,-780l0 -2368 716 0 0 1256c0,298 55,535 164,709 109,174 310,261 603,261 236,0 353,117 353,353 0,147 -28,247 -84,300 -55,53 -145,79 -269,79zm-1608 -4884c0,-129 47,-240 138,-329 93,-92 203,-137 333,-137 129,0 238,45 329,137 90,89 136,200 136,329 0,130 -46,240 -136,331 -91,93 -200,139 -329,139 -130,0 -240,-46 -333,-139 -91,-91 -138,-201 -138,-331zm1604 4884c-236,0 -353,-117 -353,-353 0,-147 28,-247 83,-300 56,-53 146,-79 270,-79l1376 0 0 -2666 724 0 0 3398 -2100 0zm1120 1315c0,-130 45,-240 138,-330 91,-91 203,-135 331,-135 130,0 240,44 331,135 90,90 136,200 136,330 0,129 -46,239 -136,332 -91,91 -201,137 -331,137 -128,0 -240,-46 -331,-137 -93,-93 -138,-203 -138,-332zm2937 -7617l0 6302 -724 0 0 -6302 724 0zm-31667 -7084c-195,0 -391,-33 -587,-97 -197,-64 -356,-205 -479,-420 -83,117 -180,208 -290,278 -111,69 -230,122 -360,157 -129,34 -263,56 -401,66 -139,10 -276,16 -412,16l-4458 0c-399,0 -734,-29 -1007,-87 -270,-57 -487,-152 -648,-281 -162,-128 -277,-294 -345,-497 -68,-203 -102,-451 -102,-742l0 -1677 1319 0 0 1498c0,135 18,242 52,320 36,78 97,140 183,186 88,46 206,76 355,90 149,13 339,20 571,20l3867 0c232,0 393,-36 484,-107 90,-71 136,-231 136,-479l0 -2286 1310 0 0 2173c0,250 52,430 157,537 107,108 325,162 655,162 52,0 103,5 151,17 49,12 91,35 130,71 37,37 66,91 86,166 21,74 29,176 29,306 0,230 -32,391 -97,478 -64,88 -164,132 -299,132zm-5617 3178c0,-195 71,-364 213,-506 142,-142 311,-213 509,-213 197,0 364,71 506,213 142,142 214,311 214,506 0,195 -72,364 -214,506 -142,142 -309,213 -506,213 -194,0 -364,-71 -507,-213 -144,-142 -215,-311 -215,-506zm-830 -1472c0,-195 71,-364 214,-507 142,-142 311,-213 506,-213 194,0 363,71 506,213 142,143 213,312 213,507 0,194 -71,363 -213,506 -143,142 -312,213 -506,213 -195,0 -364,-71 -506,-213 -143,-143 -214,-312 -214,-506zm1652 0c0,-195 71,-364 213,-507 143,-142 312,-213 512,-213 194,0 363,71 506,213 142,143 213,312 213,507 0,194 -71,363 -213,506 -143,142 -312,213 -506,213 -197,0 -366,-71 -510,-213 -144,-143 -215,-312 -215,-506zm4790 -1706c-53,0 -103,-6 -151,-16 -49,-10 -91,-34 -130,-71 -37,-39 -66,-95 -86,-169 -21,-75 -29,-176 -29,-305 0,-232 32,-391 96,-479 65,-88 164,-130 300,-130l1503 0c52,0 103,5 150,17 48,12 92,35 129,71 39,37 68,91 88,166 19,74 29,176 29,306 0,230 -32,391 -97,478 -64,88 -164,132 -299,132l-1503 0zm1503 0c-53,0 -103,-6 -151,-16 -49,-10 -91,-35 -130,-76 -37,-42 -66,-100 -86,-174 -21,-75 -29,-176 -29,-305 0,-232 32,-391 96,-479 65,-86 164,-130 300,-130l1606 0 0 -2862 1329 0 0 4042 -2935 0zm113 1706c0,-195 71,-364 213,-507 143,-142 312,-213 506,-213 195,0 364,71 506,213 143,143 214,312 214,507 0,194 -71,363 -214,506 -142,142 -311,213 -506,213 -194,0 -363,-71 -506,-213 -142,-143 -213,-312 -213,-506zm1652 0c0,-195 71,-364 213,-507 142,-142 313,-213 511,-213 195,0 364,71 506,213 143,143 214,312 214,507 0,194 -71,363 -214,506 -142,142 -311,213 -506,213 -194,0 -365,-71 -509,-213 -144,-143 -215,-312 -215,-506zm6516 -1706c-196,0 -362,-11 -501,-31 -139,-19 -259,-49 -360,-91 -100,-41 -195,-93 -285,-159 -89,-65 -181,-139 -272,-226 -195,226 -406,366 -635,422 -228,56 -474,85 -739,85l-1766 0 0 -1170 2009 0c161,0 283,-25 362,-74 80,-51 119,-110 119,-180 0,-76 -32,-167 -97,-274 -64,-108 -184,-288 -360,-538l-926 -1369 1209 -774 1220 2063c128,219 240,401 335,550 95,149 179,268 257,354 78,88 151,151 219,186 67,37 138,56 211,56 53,0 103,5 152,17 51,12 93,35 131,71 35,37 64,91 83,166 20,74 30,176 30,306 0,230 -32,391 -96,478 -65,88 -164,132 -300,132zm0 0c-52,0 -103,-6 -151,-16 -49,-10 -91,-34 -130,-71 -37,-39 -66,-95 -86,-169 -21,-75 -29,-176 -29,-305 0,-232 32,-391 96,-479 65,-88 165,-130 300,-130l1503 0c52,0 103,5 151,17 47,12 91,35 128,71 39,37 68,91 88,166 19,74 29,176 29,306 0,230 -32,391 -96,478 -65,88 -165,132 -300,132l-1503 0zm1503 0c-52,0 -103,-6 -151,-16 -49,-10 -91,-34 -130,-71 -37,-39 -66,-95 -86,-169 -21,-75 -29,-176 -29,-305 0,-232 32,-391 96,-479 65,-88 165,-130 300,-130l1503 0c52,0 103,5 151,17 47,12 91,35 128,71 39,37 68,91 88,166 19,74 29,176 29,306 0,230 -32,391 -97,478 -64,88 -164,132 -299,132l-1503 0zm2578 -5797c0,-195 71,-364 213,-508 142,-144 313,-217 511,-217 195,0 364,71 506,214 142,142 213,313 213,511 0,194 -71,364 -213,506 -142,142 -311,213 -506,213 -195,0 -364,-71 -508,-213 -144,-142 -216,-312 -216,-506zm94 4627l0 -2872 1331 0 0 4042 -2500 0c-53,0 -103,-6 -151,-16 -49,-10 -91,-34 -130,-71 -37,-39 -66,-95 -86,-169 -21,-75 -29,-176 -29,-305 0,-232 32,-391 96,-479 65,-88 164,-130 300,-130l1169 0zm5306 1170c-89,0 -211,-21 -367,-63 -156,-41 -291,-129 -406,-264 -7,458 -61,843 -161,1152 -101,308 -254,559 -457,749 -203,189 -460,326 -770,406 -311,81 -685,125 -1120,132l0 -1239c277,-7 497,-39 661,-98 163,-58 286,-142 368,-258 79,-113 132,-260 155,-441 24,-180 34,-396 34,-647l0 -3024 1310 0 0 1726c0,264 80,447 240,547 161,101 332,152 513,152 53,0 104,5 151,17 49,12 91,35 130,71 38,37 66,91 87,166 20,74 28,176 28,306 0,230 -32,391 -96,478 -64,88 -164,132 -300,132zm-5 0c-52,0 -103,-6 -150,-16 -49,-10 -92,-34 -131,-71 -37,-39 -66,-95 -86,-169 -20,-75 -29,-176 -29,-305 0,-232 32,-391 97,-479 64,-88 164,-130 299,-130l1503 0c53,0 103,5 151,17 47,12 91,35 128,71 39,37 68,91 88,166 19,74 29,176 29,306 0,230 -32,391 -96,478 -65,88 -164,132 -300,132l-1503 0zm1503 0c-52,0 -103,-6 -150,-16 -50,-10 -92,-34 -131,-71 -37,-39 -66,-95 -86,-169 -20,-75 -29,-176 -29,-305 0,-232 32,-391 97,-479 64,-88 164,-130 299,-130l1503 0c53,0 103,5 151,17 47,12 91,35 128,71 39,37 68,91 88,166 19,74 29,176 29,306 0,230 -32,391 -96,478 -65,88 -165,132 -300,132l-1503 0zm1503 0c-52,0 -103,-6 -151,-16 -49,-10 -91,-34 -130,-71 -37,-39 -66,-95 -86,-169 -21,-75 -29,-176 -29,-305 0,-232 32,-391 96,-479 65,-88 165,-130 300,-130l1503 0c52,0 103,5 151,17 47,12 91,35 128,71 39,37 68,91 88,166 19,74 29,176 29,306 0,230 -32,391 -96,478 -65,88 -165,132 -300,132l-1503 0zm1919 -1170c149,0 273,-3 369,-10 98,-7 178,-27 239,-59 61,-34 105,-83 134,-148 28,-64 42,-154 42,-270l0 -1938 1300 0 0 1726c0,217 57,388 176,513 117,123 301,186 552,186 196,0 363,-30 504,-90 140,-59 210,-191 210,-397l0 -1938 1318 0 0 1726c0,465 202,699 601,699l630 0 0 -2872 1318 0 0 4042 -1552 0c-360,0 -631,-43 -816,-127 -182,-85 -337,-217 -463,-400 -102,130 -212,229 -327,298 -115,69 -235,122 -357,157 -122,34 -242,55 -359,61 -119,7 -230,11 -340,11 -344,0 -633,-56 -868,-170 -234,-111 -402,-230 -501,-357 -182,239 -418,386 -711,442 -293,56 -665,85 -1119,85l-396 0c-53,0 -103,-6 -151,-16 -49,-10 -91,-34 -130,-71 -37,-39 -66,-95 -86,-169 -21,-75 -29,-176 -29,-305 0,-232 32,-391 96,-479 65,-88 165,-130 300,-130l416 0z"/>
   <polygon class="fil4" points="60260,33602 60260,3389 59956,3389 59956,33602 "/>
  </g>
 </g>
</svg>
