<?xml version="1.0" encoding="UTF-8"?>
<!DOCTYPE svg PUBLIC "-//W3C//DTD SVG 1.1//EN" "http://www.w3.org/Graphics/SVG/1.1/DTD/svg11.dtd">
<!-- Creator: CorelDRAW X7 -->
<svg xmlns="http://www.w3.org/2000/svg" xml:space="preserve" width="2.32268in" height="2.61843in" version="1.1" style="shape-rendering:geometricPrecision; text-rendering:geometricPrecision; image-rendering:optimizeQuality; fill-rule:evenodd; clip-rule:evenodd"
viewBox="0 0 23227 26184"
 xmlns:xlink="http://www.w3.org/1999/xlink">
 <defs>
  <style type="text/css">
   <![CDATA[
    .fil2 {fill:#8380BC}
    .fil3 {fill:white}
    .fil1 {fill:#8380BC;fill-rule:nonzero}
    .fil0 {fill:black;fill-rule:nonzero}
   ]]>
  </style>
 </defs>
 <g id="Layer_x0020_1">
  <metadata id="CorelCorpID_0Corel-Layer"/>
  <g id="_2622973071472">
   <path class="fil0" d="M3295 21772c6,29 12,62 16,98 5,36 8,79 8,128 0,135 -26,259 -76,371 -51,112 -140,209 -269,292 -129,82 -302,146 -519,193 -216,46 -491,68 -825,68 -323,0 -589,-31 -798,-91 -209,-61 -375,-145 -499,-252 -124,-107 -210,-233 -260,-376 -48,-142 -73,-298 -73,-465l0 -820 641 0 0 799c0,213 79,368 233,466 156,98 411,146 766,146 231,0 415,-13 555,-39 140,-25 249,-58 327,-98 78,-39 129,-80 153,-124 24,-43 36,-81 36,-113 0,-85 -85,-158 -254,-217 -170,-59 -398,-125 -684,-198l0 -588c217,69 424,128 622,177 198,49 375,74 533,74l618 0c25,0 50,2 74,8 25,6 45,17 63,35 18,18 32,44 41,80 10,37 15,86 15,149 0,112 -16,191 -47,233 -32,42 -80,64 -146,64l-251 0zm552 -569c113,0 191,-17 236,-52 44,-35 66,-113 66,-233l0 -1112 642 0 0 1057c0,122 23,209 68,261 46,53 148,79 308,79 26,0 50,2 73,8 23,6 44,17 62,35 17,18 31,44 42,80 11,37 16,86 16,149 0,112 -16,191 -47,233 -32,42 -80,64 -146,64 -95,0 -187,-16 -277,-47 -89,-31 -163,-100 -223,-204 -40,56 -88,101 -143,135 -55,33 -114,59 -177,76 -63,17 -128,27 -196,32 -67,5 -134,8 -200,8l-405 0c-26,0 -50,-3 -73,-8 -24,-5 -45,-16 -64,-34 -18,-19 -32,-46 -42,-83 -10,-36 -14,-85 -14,-148 0,-113 16,-190 47,-233 31,-43 80,-63 146,-63l301 0zm-173 -2251c0,-95 34,-177 103,-247 69,-70 153,-105 249,-105 95,0 177,34 246,103 69,69 104,153 104,249 0,95 -35,177 -104,246 -69,69 -151,104 -246,104 -95,0 -177,-35 -247,-104 -70,-69 -105,-151 -105,-246zm806 0c0,-95 34,-177 103,-247 69,-70 151,-105 246,-105 95,0 177,34 247,103 70,69 105,153 105,249 0,95 -35,177 -104,246 -69,69 -151,104 -248,104 -95,0 -177,-35 -246,-104 -69,-69 -103,-151 -103,-246zm1835 2251c69,0 136,-14 198,-41 63,-27 94,-85 94,-172 0,-59 -37,-139 -111,-238 -74,-100 -172,-206 -294,-319 -123,-113 -261,-224 -415,-334 -155,-110 -311,-206 -470,-288 22,-110 49,-200 81,-270 32,-71 65,-128 98,-171 33,-42 65,-74 97,-96 31,-22 56,-37 75,-47l1725 -760 0 661 -1167 485 0 15c197,128 361,255 490,380 128,126 231,248 308,366 78,118 131,230 161,337 30,107 44,208 44,301 0,79 -10,162 -33,251 -21,88 -63,170 -125,247 -61,77 -150,139 -264,189 -114,48 -263,73 -446,73l-1196 0c-26,0 -51,-3 -74,-8 -24,-5 -44,-16 -63,-34 -18,-19 -32,-46 -42,-83 -10,-36 -14,-85 -14,-148 0,-113 16,-190 47,-233 31,-43 80,-63 146,-63l1150 0zm2871 569c-44,0 -103,-10 -179,-31 -76,-19 -142,-62 -198,-128 -3,223 -29,410 -78,561 -49,149 -123,271 -222,363 -99,93 -224,159 -375,198 -151,40 -333,61 -545,64l0 -602c135,-4 242,-19 322,-48 79,-28 139,-69 179,-125 38,-55 64,-127 75,-215 12,-87 17,-193 17,-315l0 -1471 637 0 0 840c0,128 39,217 117,266 78,49 161,74 250,74 25,0 50,2 73,8 24,6 44,17 63,35 18,18 32,44 42,80 10,37 14,86 14,149 0,112 -15,191 -47,233 -31,42 -80,64 -145,64zm200 -569c72,0 132,-2 179,-5 48,-3 87,-13 116,-29 30,-16 51,-40 65,-72 14,-31 21,-74 21,-131l0 -943 632 0 0 840c0,105 28,188 86,249 57,60 146,91 268,91 96,0 177,-15 245,-44 69,-29 103,-93 103,-193l0 -943 641 0 0 840c0,226 98,340 292,340l306 0 0 -1397 642 0 0 1966 -755 0c-176,0 -307,-21 -397,-62 -89,-41 -164,-105 -226,-194 -49,63 -103,111 -158,145 -56,33 -115,59 -174,76 -59,17 -118,27 -175,30 -57,3 -112,5 -165,5 -167,0 -308,-27 -423,-83 -113,-54 -195,-112 -243,-173 -88,116 -204,187 -346,215 -143,27 -324,41 -544,41l-193 0c-25,0 -50,-3 -73,-8 -24,-5 -45,-16 -64,-34 -18,-19 -32,-46 -42,-83 -9,-36 -14,-85 -14,-148 0,-113 16,-190 47,-233 32,-43 80,-63 146,-63l203 0zm1258 -2251c0,-95 35,-177 104,-247 69,-70 152,-105 249,-105 94,0 177,34 246,103 69,69 104,153 104,249 0,95 -35,177 -104,246 -69,69 -152,104 -246,104 -95,0 -177,-35 -247,-104 -70,-69 -106,-151 -106,-246zm806 0c0,-95 35,-177 104,-247 69,-70 151,-105 246,-105 95,0 177,34 247,103 70,69 105,153 105,249 0,95 -35,177 -104,246 -69,69 -151,104 -248,104 -95,0 -177,-35 -246,-104 -69,-69 -104,-151 -104,-246zm-391 -716c0,-95 35,-177 104,-247 69,-70 152,-106 249,-106 94,0 177,35 246,104 69,69 104,152 104,249 0,94 -35,177 -104,246 -69,69 -152,104 -246,104 -95,0 -177,-35 -247,-104 -70,-69 -106,-152 -106,-246zm3600 2252c0,41 5,83 14,126 10,43 28,83 54,117 26,35 62,64 106,87 45,23 102,35 171,35 42,0 87,-2 131,-5 44,-3 89,-13 136,-29l0 -682 -246 0c-122,0 -214,32 -275,96 -61,64 -91,149 -91,255zm1377 1284c-79,0 -155,-6 -230,-18 -74,-10 -142,-31 -205,-60 -62,-30 -117,-71 -164,-122 -48,-52 -85,-119 -111,-200 -56,12 -113,23 -173,32 -60,9 -119,13 -178,13 -82,0 -178,-12 -287,-37 -108,-25 -211,-71 -308,-137 -98,-66 -180,-157 -247,-275 -68,-117 -102,-267 -102,-450 0,-182 33,-335 97,-460 64,-125 146,-227 247,-307 101,-79 212,-136 336,-171 122,-34 243,-52 363,-52l839 0 0 1479c0,76 9,128 30,155 20,27 66,41 138,41l119 0c25,0 50,2 73,8 23,6 45,17 63,35 19,18 33,44 43,80 9,37 14,86 14,149 0,112 -16,191 -47,233 -32,42 -80,64 -146,64l-164 0zm465 -569c113,0 191,-17 236,-52 44,-35 66,-113 66,-233l0 -1112 642 0 0 1057c0,122 23,209 68,261 46,53 148,79 308,79 26,0 50,2 73,8 23,6 44,17 62,35 17,18 31,44 42,80 11,37 16,86 16,149 0,112 -16,191 -47,233 -32,42 -80,64 -146,64 -95,0 -187,-16 -277,-47 -88,-31 -163,-100 -223,-204 -40,56 -88,101 -143,135 -55,33 -114,59 -177,76 -63,17 -128,27 -196,32 -67,5 -134,8 -200,8l-405 0c-26,0 -50,-3 -73,-8 -24,-5 -45,-16 -64,-34 -18,-19 -32,-46 -42,-83 -10,-36 -14,-85 -14,-148 0,-113 16,-190 47,-233 32,-43 80,-63 146,-63l301 0zm-173 -2251c0,-95 34,-177 103,-247 69,-70 153,-105 249,-105 95,0 177,34 246,103 69,69 104,153 104,249 0,95 -35,177 -104,246 -69,69 -151,104 -246,104 -95,0 -177,-35 -247,-104 -70,-69 -105,-151 -105,-246zm806 0c0,-95 34,-177 103,-247 69,-70 151,-105 247,-105 94,0 177,34 246,103 70,69 105,153 105,249 0,95 -35,177 -104,246 -69,69 -151,104 -247,104 -96,0 -178,-35 -247,-104 -69,-69 -103,-151 -103,-246zm858 2251c73,0 133,-2 180,-5 48,-3 86,-13 116,-29 30,-16 51,-40 63,-72 13,-31 20,-74 20,-131l0 -943 639 0 0 840c0,105 29,188 86,249 57,60 145,91 264,91 98,0 181,-15 248,-44 68,-29 102,-93 102,-193l0 -943 639 0 0 840c0,115 25,201 76,257 50,55 135,83 255,83 91,0 165,-16 221,-46 56,-31 85,-99 85,-205l0 -1146 636 0 0 1057c0,122 25,209 74,261 49,53 155,79 317,79 26,0 51,2 74,8 23,6 43,17 61,35 18,18 32,44 42,80 11,37 16,86 16,149 0,112 -16,191 -47,233 -31,42 -80,64 -146,64 -94,0 -188,-18 -281,-52 -92,-35 -168,-105 -228,-211 -46,63 -95,111 -146,146 -50,34 -102,61 -156,80 -52,18 -105,29 -158,32 -52,3 -103,5 -153,5 -59,0 -122,-5 -188,-15 -65,-9 -130,-24 -195,-45 -64,-19 -122,-46 -173,-79 -50,-33 -91,-72 -121,-117 -102,113 -204,183 -308,212 -103,29 -217,44 -339,44 -323,0 -555,-86 -697,-256 -88,116 -203,187 -345,215 -141,27 -322,41 -543,41l-163 0c-26,0 -51,-3 -74,-8 -24,-5 -44,-16 -63,-34 -18,-19 -32,-46 -42,-83 -10,-36 -14,-85 -14,-148 0,-113 16,-190 47,-233 31,-43 80,-63 146,-63l173 0zm4588 0l0 -1397 647 0 0 1966 -1216 0c-26,0 -50,-3 -73,-8 -24,-5 -45,-16 -64,-34 -18,-19 -32,-46 -42,-83 -10,-36 -14,-85 -14,-148 0,-113 16,-190 47,-233 31,-43 80,-63 146,-63l569 0zm-81 1384c0,-95 35,-177 104,-246 69,-70 151,-104 248,-104 95,0 177,34 246,104 69,69 104,151 104,246 0,95 -35,177 -104,246 -69,69 -151,104 -246,104 -95,0 -177,-35 -247,-104 -70,-69 -105,-151 -105,-246z"/>
   <polygon class="fil1" points="19783,26184 3444,26184 3444,25773 19783,25773 "/>
   <g>
    <path class="fil2" d="M11613 0c3806,0 6890,3085 6890,6890 0,3805 -3084,6890 -6890,6890 -3805,0 -6889,-3085 -6889,-6890 0,-3805 3084,-6890 6889,-6890z"/>
    <path class="fil3" d="M12913 8840l0 1300 -5200 0 0 -1300 5200 0zm-5200 -3900l0 -1300c2600,0 5201,0 7801,0l-1300 1300c-2167,0 -4334,0 -6501,0zm7801 1300c0,1300 0,2600 0,3900l-1300 0 0 -2600 -6501 0 0 -1300c2600,0 5201,0 7801,0z"/>
   </g>
  </g>
 </g>
</svg>
