<?xml version="1.0" encoding="UTF-8"?>
<!DOCTYPE svg PUBLIC "-//W3C//DTD SVG 1.1//EN" "http://www.w3.org/Graphics/SVG/1.1/DTD/svg11.dtd">
<!-- Creator: CorelDRAW X7 -->
<svg xmlns="http://www.w3.org/2000/svg" xml:space="preserve" width="24.7597in" height="16.735in" version="1.1" style="shape-rendering:geometricPrecision; text-rendering:geometricPrecision; image-rendering:optimizeQuality; fill-rule:evenodd; clip-rule:evenodd"
viewBox="0 0 247597 167350"
 xmlns:xlink="http://www.w3.org/1999/xlink">
 <defs>
  <style type="text/css">
   <![CDATA[
    .fil0 {fill:#F7F2E6}
   ]]>
  </style>
 </defs>
 <g id="Layer_x0020_1">
  <metadata id="CorelCorpID_0Corel-Layer"/>
  <path class="fil0" d="M39333 78337c-21723,0 -39333,17611 -39333,39334 0,21723 17610,39333 39333,39333 21723,0 39334,-17610 39334,-39333 -24,-21713 -17621,-39309 -39334,-39334zm123284 -75700c-8358,133 -16410,1541 -23975,4031 -458,1376 -2069,6358 -3984,13873 8053,-1049 17473,-1818 27959,-1877l0 -16027zm0 146051c-10486,-59 -19906,-828 -27960,-1877 1915,7514 3526,12495 3984,13872 7566,2490 15618,3898 23976,4031l0 -16026zm-30755 -2259c-11389,-1635 -19730,-3767 -24059,-5018 133,421 241,753 319,988 7823,7438 17125,13335 27416,17195 -802,-2557 -2159,-7112 -3676,-13165zm-27872 -8254c28,-25 56,-49 85,-72 -1641,-5750 -4123,-15528 -5884,-27364 -5622,-1333 -9609,-2509 -11720,-3171 3555,11500 9607,21915 17519,30607zm2900 234c3348,1033 11894,3438 24301,5281 -1830,-7623 -3801,-17220 -5271,-27981 -9964,-1265 -18399,-2859 -24988,-4338 1843,11983 4401,21718 5958,27038zm27087 5675c8167,1104 17826,1927 28640,1989l0 -27984c-12579,-54 -24014,-876 -34012,-2052 1512,10868 3531,20505 5372,28047zm31257 1989c10817,-62 20472,-885 28637,-1987 1840,-7543 3860,-17181 5373,-28048 -9999,1175 -21433,1997 -34010,2051l0 27984zm31423 -2381c12411,-1843 20954,-4248 24302,-5282 1557,-5320 4116,-15055 5959,-27037 -6591,1478 -15026,3072 -24990,4337 -1470,10761 -3441,20359 -5271,27982zm27117 -5593c30,23 59,47 87,73 7910,-8691 13960,-19102 17515,-30600 -2115,663 -6101,1837 -11715,3168 -1762,11833 -4244,21608 -5887,27359zm-3728 3312c-4330,1252 -12672,3384 -24060,5018 -1517,6053 -2874,10608 -3675,13165 10290,-3860 19591,-9757 27415,-17194 78,-235 186,-567 320,-989zm-26855 5400c-8054,1049 -17473,1818 -27957,1877l0 16026c8358,-134 16411,-1542 23976,-4032 458,-1379 2067,-6359 3981,-13871zm-107596 -42284l16 5c114,41 4430,1543 12184,3422 -963,-7130 -1636,-14917 -1703,-22964l-13205 0c107,6742 1042,13287 2708,19537zm14930 4069c6501,1489 14961,3125 25042,4429 -1109,-8779 -1861,-18264 -1923,-28035l-24935 0c71,8299 795,16317 1816,23606zm27721 4763c10058,1205 21619,2055 34371,2109l0 -30478 -36356 0c64,9905 844,19509 1985,28369zm36988 2109c12751,-54 24311,-904 34368,-2108 1142,-8863 1923,-18466 1987,-28370l-36355 0 0 30478zm37047 -2443c10081,-1303 18542,-2939 25044,-4428 1021,-7290 1746,-15308 1816,-23607l-24937 0c-62,9771 -814,19256 -1923,28035zm27775 -5071c7758,-1879 12076,-3381 12190,-3422l6 -2c1666,-6251 2602,-12796 2709,-19540l-13200 0c-67,8047 -741,15834 -1705,22964zm-96079 -84684c-1840,7543 -3860,17180 -5372,28047 9999,-1176 21434,-1997 34012,-2051l0 -27985c-10814,62 -20472,886 -28640,1989zm-29902 5981c-30,-23 -58,-47 -85,-72 -7911,8693 -13962,19106 -17518,30606 2111,-663 6098,-1838 11718,-3171 1761,-11836 4242,-21613 5885,-27363zm3727 -3310c4329,-1251 12670,-3383 24060,-5018 1517,-6053 2874,-10609 3676,-13166 -10291,3861 -19594,9758 -27417,17198 -78,235 -186,567 -319,986zm57431 -7277c10485,59 19905,827 27959,1876 -1915,-7513 -3525,-12494 -3982,-13871 -7566,-2491 -15619,-3899 -23977,-4032l0 16027zm30754 2259c11388,1634 19729,3766 24059,5017 -133,-419 -242,-751 -319,-986 -7824,-7439 -17126,-13337 -27416,-17197 802,2557 2159,7112 3676,13166zm27875 8259c-28,26 -57,51 -86,74 1642,5750 4124,15525 5886,27357 5613,1331 9598,2505 11713,3168 -3555,-11497 -9604,-21908 -17513,-30599zm-2902 -238c-3348,-1033 -11894,-3436 -24300,-5279 1829,7623 3800,17219 5269,27979 9965,1265 18401,2859 24992,4337 -1843,-11985 -4402,-21718 -5961,-27037zm-27088 -5673c-8167,-1104 -17826,-1927 -28639,-1990l1 27985c12577,54 24012,875 34011,2050 -1512,-10866 -3532,-20503 -5373,-28045zm-62683 393c-12407,1843 -20953,4247 -24300,5280 -1557,5320 -4116,15055 -5958,27038 6590,-1478 15023,-3072 24988,-4337 1469,-10761 3441,-20358 5270,-27981zm-2942 30329c-1142,8864 -1922,18471 -1986,28378l36356 0 0 -30488c-12752,55 -24312,905 -34370,2110zm114004 8828l-5 -1c-114,-40 -4431,-1543 -12189,-3422 964,7133 1638,14922 1704,22973l13200 0c-107,-6747 -1043,-13296 -2710,-19550zm-14923 -4066c-6503,-1488 -14965,-3125 -25046,-4428 1109,8782 1860,18269 1922,28044l24937 0c-69,-8305 -793,-16325 -1813,-23616zm-27725 -4762c-10057,-1206 -21618,-2055 -34369,-2110l0 30488 36355 0c-64,-9907 -844,-19514 -1986,-28378zm-74037 334c-10081,1304 -18541,2941 -25042,4429 -1021,7292 -1745,15313 -1815,23615l24935 0c62,-9775 813,-19262 1922,-28044zm-27771 5072c-7755,1878 -12070,3381 -12184,3421l-14 4c-1667,6253 -2603,12801 -2710,19547l13205 0c66,-8050 739,-15840 1703,-22972zm8651 85028c-236,-116 -437,-304 -570,-546 -15789,-15228 -25626,-36586 -25626,-60201 0,-23617 9837,-44977 25625,-60207 133,-242 335,-430 572,-548 15001,-14202 35239,-22925 57478,-22925 22233,0 42467,8720 57467,22917 243,118 449,310 583,559 15786,15229 25622,36589 25622,60204 0,12 0,24 0,35 -10,23600 -9844,44944 -25623,60164 -133,245 -337,435 -576,552 -15001,14198 -35237,22919 -57473,22919 -22238,0 -42477,-8722 -57479,-22923zm-67113 9955c-20274,0 -36711,-16436 -36711,-36711 0,-20275 16437,-36711 36711,-36711 20275,0 36712,16436 36712,36711 -24,20265 -16446,36688 -36712,36711z"/>
 </g>
</svg>
