<?xml version="1.0" encoding="UTF-8"?>
<!DOCTYPE svg PUBLIC "-//W3C//DTD SVG 1.1//EN" "http://www.w3.org/Graphics/SVG/1.1/DTD/svg11.dtd">
<!-- Creator: CorelDRAW X7 -->
<svg xmlns="http://www.w3.org/2000/svg" xml:space="preserve" width="2.59571in" height="2.61858in" version="1.1" style="shape-rendering:geometricPrecision; text-rendering:geometricPrecision; image-rendering:optimizeQuality; fill-rule:evenodd; clip-rule:evenodd"
viewBox="0 0 25957 26186"
 xmlns:xlink="http://www.w3.org/1999/xlink">
 <defs>
  <style type="text/css">
   <![CDATA[
    .fil2 {fill:#FEFEFE}
    .fil3 {fill:#E6D2AE}
    .fil0 {fill:black;fill-rule:nonzero}
    .fil1 {fill:#D7B77D;fill-rule:nonzero}
   ]]>
  </style>
 </defs>
 <g id="Layer_x0020_1">
  <metadata id="CorelCorpID_0Corel-Layer"/>
  <g id="_2623022926224">
   <path class="fil0" d="M3295 21773c6,29 12,62 16,98 5,37 8,79 8,129 0,135 -26,258 -76,370 -51,112 -140,209 -269,292 -129,83 -301,147 -519,193 -216,46 -491,68 -825,68 -323,0 -588,-30 -798,-91 -209,-61 -375,-145 -499,-252 -124,-107 -210,-232 -260,-375 -48,-143 -73,-298 -73,-465l0 -820 641 0 0 798c0,213 79,369 233,466 156,98 411,147 766,147 231,0 415,-13 555,-39 140,-26 249,-58 327,-98 78,-40 129,-81 153,-124 24,-43 36,-81 36,-113 0,-86 -85,-158 -254,-217 -170,-60 -398,-126 -684,-198l0 -589c217,69 424,129 622,177 198,50 375,74 534,74l617 0c26,0 50,3 74,9 25,5 45,17 64,34 17,18 31,45 40,81 10,36 15,86 15,149 0,112 -16,190 -47,232 -32,43 -80,64 -146,64l-251 0zm774 -2819c0,-95 34,-178 104,-248 69,-69 152,-105 248,-105 95,0 177,35 246,104 70,69 104,152 104,249 0,94 -34,177 -104,246 -69,69 -151,103 -246,103 -95,0 -177,-34 -247,-103 -70,-69 -105,-152 -105,-246zm46 2250l0 -1397 647 0 0 1966 -1216 0c-25,0 -50,-2 -73,-7 -24,-5 -45,-17 -64,-35 -18,-19 -32,-46 -42,-82 -10,-36 -14,-86 -14,-148 0,-113 16,-190 47,-233 32,-43 80,-64 146,-64l569 0zm2397 273c0,112 -15,190 -47,232 -31,43 -79,64 -145,64l-208 0c-113,0 -215,-12 -308,-37 -94,-25 -174,-66 -242,-123 -67,-57 -120,-134 -158,-229 -38,-96 -57,-214 -57,-356l0 -2781 643 0 0 2691c0,117 20,190 61,220 41,31 99,46 175,46l94 0c25,0 50,3 73,9 24,5 44,17 63,34 19,18 33,45 42,81 10,36 14,86 14,149zm1689 -623c0,-50 -6,-99 -16,-148 -12,-49 -30,-93 -55,-131 -25,-37 -58,-69 -99,-93 -41,-25 -91,-38 -151,-38 -43,0 -88,11 -133,33 -47,22 -91,57 -133,106 -43,49 -83,113 -121,192 -38,79 -69,177 -96,296 83,50 161,91 235,122 73,32 153,48 239,48 106,0 188,-36 244,-107 57,-70 86,-164 86,-280zm-1630 350c39,0 89,-33 146,-98 59,-65 110,-160 155,-285 73,-189 152,-344 237,-469 87,-123 175,-222 266,-296 91,-74 182,-126 274,-156 91,-29 182,-44 272,-44 128,0 249,25 361,75 112,49 208,118 288,207 81,88 144,195 189,321 46,125 69,262 69,410 0,296 -72,531 -217,704 -145,174 -365,260 -661,260 -132,0 -264,-19 -398,-60 -133,-40 -274,-108 -422,-202 -85,94 -172,152 -262,172 -89,20 -186,30 -291,30l-262 0c-26,0 -50,-2 -73,-7 -24,-5 -45,-17 -64,-35 -18,-19 -32,-46 -42,-82 -10,-36 -14,-86 -14,-148 0,-113 16,-190 47,-233 31,-43 80,-64 146,-64l256 0zm3140 -1179l642 0 0 1471c0,236 -18,437 -54,603 -36,166 -100,299 -190,401 -90,102 -215,177 -375,225 -160,47 -364,72 -611,76l0 -603c132,-3 237,-19 317,-48 80,-28 139,-69 179,-125 39,-55 64,-127 75,-215 12,-87 17,-192 17,-314l0 -1471zm-50 -1071c0,-95 35,-178 104,-248 69,-69 153,-105 249,-105 95,0 177,35 246,104 69,69 104,152 104,249 0,94 -35,177 -104,246 -69,69 -151,103 -246,103 -95,0 -177,-34 -247,-103 -70,-69 -106,-152 -106,-246zm2450 2523c0,112 -16,190 -47,232 -31,43 -80,64 -146,64l-207 0c-113,0 -216,-12 -309,-37 -93,-25 -174,-66 -241,-123 -68,-57 -120,-134 -158,-229 -38,-96 -57,-214 -57,-356l0 -2781 642 0 0 2691c0,117 21,190 61,220 41,31 100,46 175,46l94 0c26,0 50,3 73,9 24,5 45,17 64,34 18,18 32,45 42,81 10,36 14,86 14,149zm5 -273c72,0 132,-1 179,-5 48,-3 87,-13 116,-28 30,-17 51,-41 65,-72 14,-31 21,-75 21,-132l0 -942 632 0 0 839c0,106 28,189 86,250 57,60 146,90 268,90 96,0 177,-14 246,-43 68,-29 102,-93 102,-194l0 -942 641 0 0 839c0,227 98,340 292,340l307 0 0 -1397 641 0 0 1966 -755 0c-175,0 -307,-20 -397,-61 -89,-42 -164,-106 -225,-195 -50,64 -103,111 -159,145 -56,34 -115,59 -174,77 -59,16 -118,26 -175,29 -57,4 -112,5 -165,5 -167,0 -308,-27 -422,-82 -114,-54 -196,-112 -244,-174 -88,116 -203,188 -346,215 -142,27 -323,41 -544,41l-193 0c-25,0 -50,-2 -73,-7 -24,-5 -44,-17 -63,-35 -19,-19 -33,-46 -42,-82 -10,-36 -14,-86 -14,-148 0,-113 15,-190 47,-233 31,-43 79,-64 145,-64l203 0zm5273 -714c0,40 5,82 14,126 10,43 28,82 54,117 27,34 62,63 106,86 45,24 102,35 171,35 43,0 87,-1 131,-4 44,-4 89,-14 136,-29l0 -683 -246 0c-122,0 -214,32 -275,97 -61,64 -91,149 -91,255zm1377 1283c-79,0 -155,-5 -229,-17 -75,-11 -143,-31 -205,-61 -63,-30 -118,-71 -165,-122 -48,-52 -85,-118 -110,-200 -56,13 -114,23 -174,32 -59,9 -119,13 -178,13 -82,0 -178,-12 -286,-37 -109,-24 -212,-70 -309,-136 -97,-66 -180,-158 -247,-275 -68,-117 -101,-268 -101,-451 0,-182 32,-335 96,-460 64,-124 146,-226 247,-306 101,-79 212,-137 336,-171 122,-35 243,-52 363,-52l839 0 0 1478c0,76 10,128 30,155 20,27 66,41 139,41l118 0c26,0 50,3 73,9 23,5 45,17 63,34 19,18 33,45 43,81 9,36 14,86 14,149 0,112 -16,190 -47,232 -31,43 -80,64 -146,64l-164 0zm465 -569c113,0 191,-17 236,-51 44,-35 66,-113 66,-233l0 -1113 642 0 0 1057c0,122 23,210 68,261 46,53 148,79 308,79 26,0 50,3 73,9 24,5 44,17 62,34 18,18 32,45 42,81 11,36 16,86 16,149 0,112 -16,190 -47,232 -31,43 -80,64 -146,64 -94,0 -187,-15 -276,-47 -89,-31 -163,-99 -224,-204 -40,57 -88,101 -143,135 -55,34 -114,59 -177,77 -63,16 -128,27 -196,32 -67,5 -134,7 -200,7l-405 0c-25,0 -50,-2 -73,-7 -24,-5 -45,-17 -64,-35 -18,-19 -32,-46 -42,-82 -9,-36 -14,-86 -14,-148 0,-113 16,-190 47,-233 32,-43 80,-64 146,-64l301 0zm-173 -2250c0,-95 34,-178 103,-248 70,-69 153,-105 249,-105 95,0 177,35 246,104 69,69 104,152 104,249 0,94 -35,177 -104,246 -69,69 -151,103 -246,103 -95,0 -177,-34 -247,-103 -70,-69 -105,-152 -105,-246zm806 0c0,-95 34,-178 103,-248 70,-69 151,-105 247,-105 94,0 177,35 247,104 70,69 104,152 104,249 0,94 -34,177 -104,246 -69,69 -151,103 -247,103 -96,0 -177,-34 -247,-103 -69,-69 -103,-152 -103,-246zm858 2250c73,0 133,-1 180,-5 48,-3 86,-13 116,-28 30,-17 51,-41 63,-72 14,-31 20,-75 20,-132l0 -942 639 0 0 839c0,106 29,189 86,250 57,60 145,90 264,90 98,0 181,-14 249,-43 67,-29 101,-93 101,-194l0 -942 639 0 0 839c0,116 25,201 76,257 51,55 135,83 255,83 91,0 165,-15 221,-46 56,-30 85,-99 85,-205l0 -1146 636 0 0 1057c0,122 25,210 74,261 49,53 155,79 317,79 26,0 51,3 74,9 23,5 43,17 61,34 18,18 32,45 42,81 11,36 16,86 16,149 0,112 -16,190 -47,232 -31,43 -80,64 -146,64 -94,0 -188,-17 -281,-52 -92,-34 -168,-104 -227,-210 -47,62 -96,111 -147,145 -50,35 -102,61 -155,80 -53,18 -106,29 -159,32 -51,4 -102,5 -153,5 -59,0 -122,-5 -187,-14 -66,-10 -131,-24 -196,-45 -64,-20 -121,-46 -172,-79 -51,-34 -92,-72 -122,-118 -102,113 -204,184 -307,213 -104,29 -218,43 -340,43 -323,0 -555,-85 -697,-256 -88,116 -203,188 -345,215 -141,27 -322,41 -542,41l-164 0c-26,0 -50,-2 -74,-7 -23,-5 -44,-17 -63,-35 -18,-19 -32,-46 -42,-82 -10,-36 -14,-86 -14,-148 0,-113 16,-190 47,-233 31,-43 80,-64 146,-64l173 0zm4588 0l0 -1397 647 0 0 1966 -1216 0c-26,0 -50,-2 -73,-7 -24,-5 -45,-17 -64,-35 -18,-19 -32,-46 -42,-82 -10,-36 -14,-86 -14,-148 0,-113 16,-190 47,-233 32,-43 80,-64 146,-64l569 0zm-81 1384c0,-94 35,-177 104,-246 69,-69 151,-104 249,-104 94,0 176,35 245,104 69,69 104,152 104,246 0,95 -35,177 -104,247 -69,69 -151,103 -245,103 -96,0 -178,-34 -248,-103 -70,-70 -105,-152 -105,-247z"/>
   <polygon class="fil1" points="21148,26186 4809,26186 4809,25774 21148,25774 "/>
   <g>
    <path class="fil2" d="M12979 0c3805,0 6889,3085 6889,6890 0,3805 -3084,6890 -6889,6890 -3806,0 -6890,-3085 -6890,-6890 0,-3805 3084,-6890 6890,-6890z"/>
    <path class="fil3" d="M14279 8840l0 1300 -5201 0 0 -1300 5201 0zm-5201 -3900l0 -1300c2601,0 5201,0 7801,0l-1300 1300c-2167,0 -4334,0 -6501,0zm7801 1300c0,1300 0,2600 0,3900l-1300 0 0 -2600 -6501 0 0 -1300c2601,0 5201,0 7801,0z"/>
   </g>
  </g>
 </g>
</svg>
