<?xml version="1.0" encoding="UTF-8"?>
<!DOCTYPE svg PUBLIC "-//W3C//DTD SVG 1.1//EN" "http://www.w3.org/Graphics/SVG/1.1/DTD/svg11.dtd">
<!-- Creator: CorelDRAW X7 -->
<svg xmlns="http://www.w3.org/2000/svg" xml:space="preserve" width="21.3335in" height="4.3761in" version="1.1" style="shape-rendering:geometricPrecision; text-rendering:geometricPrecision; image-rendering:optimizeQuality; fill-rule:evenodd; clip-rule:evenodd"
viewBox="0 0 213335 43761"
 xmlns:xlink="http://www.w3.org/1999/xlink">
 <defs>
  <style type="text/css">
   <![CDATA[
    .fil7 {fill:#8380BC}
    .fil4 {fill:#736EAD}
    .fil6 {fill:white}
    .fil0 {fill:white}
    .fil3 {fill:#8380BC;fill-rule:nonzero}
    .fil1 {fill:#F4F4F4;fill-rule:nonzero}
    .fil5 {fill:white;fill-rule:nonzero}
    .fil2 {fill:white;fill-rule:nonzero}
   ]]>
  </style>
 </defs>
 <g id="Layer_x0020_1">
  <metadata id="CorelCorpID_0Corel-Layer"/>
  <g id="_2622775395360">
   <polygon class="fil0" points="213335,0 0,0 0,43761 213335,43761 "/>
   <g>
    <polygon class="fil0" points="51237,0 2092,0 2092,43761 51237,43761 "/>
    <polygon class="fil1" points="51237,43761 113077,43761 113077,0 51237,0 "/>
    <polygon class="fil2" points="174917,43761 113077,43761 113077,0 174917,0 "/>
    <g>
     <polygon class="fil3" points="174917,0 213335,0 213335,43761 174917,43761 174917,25226 171571,21880 174917,18535 "/>
     <polygon class="fil4" points="171571,21880 174917,25226 174917,43439 174917,43761 213335,43761 213335,21880 "/>
     <g>
      <path class="fil5" d="M185963 35809c6,26 11,56 15,90 5,33 7,72 7,118 0,124 -24,238 -70,341 -47,103 -129,192 -247,269 -119,75 -278,135 -478,177 -199,42 -452,63 -759,63 -297,0 -541,-28 -734,-84 -192,-56 -345,-134 -460,-232 -113,-98 -193,-214 -238,-345 -45,-132 -68,-275 -68,-428l0 -755 591 0 0 735c0,196 72,339 214,429 143,90 378,134 704,134 213,0 382,-12 511,-35 129,-24 229,-54 301,-90 72,-37 119,-75 141,-115 22,-39 33,-74 33,-103 0,-79 -78,-146 -234,-200 -156,-55 -366,-116 -630,-182l0 -542c200,64 391,118 573,163 182,45 345,68 491,68l568 0c24,0 46,2 68,8 23,5 42,16 59,32 15,16 28,40 37,74 9,33 13,79 13,137 0,103 -14,175 -43,214 -29,39 -73,59 -134,59l-231 0zm508 -524c104,0 176,-16 217,-48 41,-31 61,-103 61,-214l0 -1023 590 0 0 972c0,112 22,193 63,240 43,49 137,73 284,73 23,0 46,2 67,8 21,5 40,16 57,32 16,16 29,40 38,74 10,33 15,79 15,137 0,103 -15,175 -43,214 -29,39 -74,59 -134,59 -88,0 -172,-15 -255,-44 -82,-28 -150,-91 -205,-187 -37,52 -81,93 -132,124 -51,31 -105,54 -163,70 -58,15 -118,25 -180,30 -62,4 -124,7 -184,7l-373 0c-23,0 -46,-3 -67,-7 -22,-5 -41,-15 -59,-32 -16,-17 -29,-42 -38,-76 -9,-33 -13,-79 -13,-136 0,-104 14,-175 43,-214 29,-40 73,-59 134,-59l277 0zm-160 -2071c0,-87 32,-163 96,-227 64,-64 140,-97 229,-97 87,0 163,32 226,95 64,64 96,141 96,229 0,87 -32,163 -96,227 -63,63 -139,95 -226,95 -87,0 -163,-32 -228,-95 -64,-64 -97,-140 -97,-227zm742 0c0,-87 32,-163 96,-227 63,-64 138,-97 226,-97 87,0 163,32 227,95 65,64 96,141 96,229 0,87 -31,163 -95,227 -64,63 -139,95 -228,95 -88,0 -163,-32 -226,-95 -64,-64 -96,-140 -96,-227zm1689 2071c63,0 125,-13 182,-38 58,-25 86,-78 86,-157 0,-55 -34,-128 -102,-220 -68,-92 -158,-189 -270,-293 -113,-104 -240,-206 -382,-308 -142,-101 -286,-189 -433,-265 21,-100 46,-183 75,-248 30,-65 60,-118 91,-157 30,-39 59,-68 88,-89 29,-19 52,-34 70,-43l1587 -699 0 608 -1074 446 0 14c182,118 332,235 450,350 119,116 213,228 285,336 71,109 120,212 147,311 27,98 41,191 41,276 0,73 -10,150 -30,231 -20,82 -59,157 -115,228 -57,70 -138,128 -243,173 -106,45 -242,68 -411,68l-1101 0c-23,0 -46,-3 -67,-7 -22,-5 -41,-15 -58,-32 -17,-17 -30,-42 -39,-76 -9,-33 -13,-79 -13,-136 0,-104 14,-175 43,-214 29,-40 74,-59 134,-59l1059 0zm2641 524c-40,0 -95,-9 -164,-28 -70,-19 -131,-58 -182,-119 -3,206 -27,378 -72,516 -46,138 -114,250 -205,335 -91,85 -206,146 -344,182 -140,36 -307,56 -502,59l0 -555c124,-3 223,-17 296,-43 73,-26 128,-64 165,-116 35,-50 59,-116 69,-197 11,-81 16,-178 16,-290l0 -1353 586 0 0 772c0,119 35,200 107,245 72,45 149,68 230,68 23,0 46,2 67,8 22,5 41,16 59,32 16,16 29,40 38,74 9,33 13,79 13,137 0,103 -14,175 -43,214 -29,39 -73,59 -134,59zm184 -524c67,0 122,-1 165,-4 44,-3 80,-12 107,-27 27,-15 47,-37 60,-66 13,-29 19,-69 19,-121l0 -867 582 0 0 772c0,97 25,174 78,230 53,55 135,83 247,83 88,0 163,-13 226,-40 63,-26 94,-86 94,-178l0 -867 590 0 0 772c0,209 90,313 269,313l282 0 0 -1285 590 0 0 1809 -695 0c-161,0 -282,-19 -365,-57 -82,-38 -151,-97 -207,-179 -46,58 -95,102 -147,133 -51,31 -105,55 -159,71 -55,15 -109,24 -161,27 -53,3 -103,5 -152,5 -154,0 -284,-25 -389,-76 -104,-50 -179,-103 -224,-160 -81,107 -187,173 -318,198 -131,25 -298,38 -501,38l-177 0c-24,0 -47,-3 -68,-7 -22,-5 -41,-15 -58,-32 -17,-17 -30,-42 -39,-76 -9,-33 -13,-79 -13,-136 0,-104 15,-175 44,-214 28,-40 73,-59 134,-59l186 0zm1158 -2071c0,-87 32,-163 96,-227 63,-64 140,-97 228,-97 88,0 163,32 227,95 64,64 95,141 95,229 0,87 -31,163 -95,227 -64,63 -139,95 -227,95 -87,0 -162,-32 -227,-95 -64,-64 -97,-140 -97,-227zm742 0c0,-87 32,-163 95,-227 64,-64 139,-97 227,-97 87,0 163,32 227,95 64,64 96,141 96,229 0,87 -32,163 -95,227 -64,63 -140,95 -228,95 -88,0 -163,-32 -227,-95 -63,-64 -95,-140 -95,-227zm-360 -659c0,-87 32,-163 96,-227 63,-64 140,-97 228,-97 87,0 163,32 227,95 63,64 95,140 95,229 0,87 -32,163 -95,227 -64,63 -140,95 -227,95 -87,0 -163,-32 -227,-95 -64,-64 -97,-140 -97,-227zm3312 2073c0,37 4,75 13,116 9,39 25,75 50,107 24,32 56,58 97,80 41,22 94,32 157,32 40,0 80,-1 121,-4 41,-3 82,-12 125,-27l0 -628 -226 0c-112,0 -197,30 -253,89 -56,59 -84,137 -84,235zm1267 1181c-73,0 -143,-6 -211,-16 -68,-10 -131,-29 -189,-56 -57,-28 -108,-66 -151,-112 -44,-48 -78,-110 -102,-185 -51,12 -104,22 -160,30 -54,8 -109,12 -163,12 -76,0 -164,-11 -264,-34 -100,-23 -195,-65 -284,-126 -89,-60 -165,-144 -227,-253 -62,-107 -93,-246 -93,-414 0,-167 29,-308 88,-424 59,-114 135,-208 227,-281 94,-73 196,-126 310,-158 112,-32 224,-48 334,-48l771 0 0 1361c0,70 10,117 29,142 18,25 60,38 127,38l109 0c23,0 46,2 67,8 21,5 41,16 58,32 17,16 30,40 39,74 9,33 13,79 13,137 0,103 -14,175 -43,214 -29,39 -74,59 -134,59l-151 0zm1777 -524c-8,-122 -28,-233 -58,-334 -30,-101 -76,-188 -136,-261 -61,-72 -141,-129 -239,-170 -99,-40 -221,-61 -365,-61 -49,0 -125,7 -228,20 -102,14 -209,36 -318,67l0 -528c69,-24 165,-49 286,-77 121,-27 244,-41 368,-41 228,0 421,37 580,111 159,74 289,174 389,302 100,127 173,275 220,443 47,169 72,345 78,529l296 0c23,0 46,2 67,8 22,5 41,16 58,32 17,16 30,40 39,74 9,33 13,79 13,137 0,103 -14,175 -43,214 -29,39 -74,59 -134,59l-2499 0c-24,0 -46,-3 -68,-7 -22,-5 -40,-15 -58,-32 -17,-17 -29,-42 -39,-76 -9,-33 -12,-79 -12,-136 0,-104 14,-175 43,-214 29,-40 73,-59 134,-59l1626 0zm-1072 -2071c0,-87 31,-163 95,-227 64,-64 140,-97 229,-97 87,0 163,32 226,95 64,64 96,141 96,229 0,87 -32,163 -96,227 -63,63 -139,95 -226,95 -87,0 -163,-32 -227,-95 -65,-64 -97,-140 -97,-227zm2105 2071c66,0 122,-1 165,-4 44,-3 79,-12 107,-27 27,-15 47,-37 58,-66 12,-29 18,-69 18,-121l0 -867 588 0 0 772c0,97 27,174 79,230 53,55 134,83 243,83 90,0 167,-13 229,-40 62,-26 93,-86 93,-178l0 -867 588 0 0 772c0,106 23,185 70,237 46,50 124,76 234,76 84,0 152,-14 204,-42 51,-28 78,-91 78,-189l0 -1054 586 0 0 972c0,112 22,193 67,240 45,49 143,73 292,73 24,0 47,2 68,8 21,5 40,16 57,32 16,16 28,40 38,74 10,33 15,79 15,137 0,103 -15,175 -44,214 -28,39 -73,59 -134,59 -87,0 -173,-16 -259,-48 -85,-32 -154,-96 -209,-194 -43,58 -88,102 -135,134 -46,32 -94,56 -143,74 -48,16 -97,26 -145,29 -48,3 -95,5 -141,5 -55,0 -112,-5 -173,-14 -60,-8 -120,-22 -179,-41 -59,-18 -112,-42 -159,-73 -47,-31 -85,-66 -113,-108 -93,104 -187,169 -282,195 -96,27 -200,41 -312,41 -298,0 -511,-79 -642,-236 -81,107 -187,173 -317,198 -130,25 -296,38 -499,38l-151 0c-24,0 -46,-3 -68,-7 -22,-5 -40,-15 -58,-32 -17,-17 -29,-42 -39,-76 -9,-33 -12,-79 -12,-136 0,-104 14,-175 43,-214 29,-40 73,-59 134,-59l160 0zm4178 -2071c0,-87 32,-163 96,-227 63,-64 140,-97 228,-97 87,0 163,32 227,95 63,64 95,141 95,229 0,87 -32,163 -95,227 -64,63 -140,95 -227,95 -87,0 -163,-32 -227,-95 -64,-64 -97,-140 -97,-227zm42 2071l0 -1285 596 0 0 1809 -1119 0c-23,0 -46,-3 -67,-7 -22,-5 -41,-15 -59,-32 -16,-17 -29,-42 -38,-76 -9,-33 -13,-79 -13,-136 0,-104 14,-175 43,-214 29,-40 73,-59 134,-59l523 0z"/>
      <g>
       <path class="fil6" d="M194126 9890c-4952,0 -8966,4014 -8966,8965 0,4952 4014,8966 8966,8966 4951,0 8965,-4014 8965,-8966 0,-4951 -4014,-8965 -8965,-8965z"/>
       <path class="fil7" d="M194296 13533l0 1441c-56,-3 -113,-4 -170,-4 -57,0 -112,1 -168,3l-3 1 0 -1441c-294,-73 -506,-335 -506,-656 0,-376 301,-677 677,-677 376,0 677,301 677,677 0,321 -212,583 -507,656zm-663 6807l-1382 0 0 -2235 1874 -1463 1875 1463 0 2235 -1382 0 0 -1315 -985 0 0 1315zm493 1717c884,0 1684,-359 2263,-938 580,-579 938,-1380 938,-2264 0,-884 -358,-1684 -938,-2263 -579,-580 -1379,-938 -2263,-938 -884,0 -1685,358 -2264,938 -579,579 -937,1379 -937,2263 0,884 358,1685 937,2264 579,579 1380,938 2264,938zm0 341c1956,0 3542,-1586 3542,-3543 0,-1956 -1586,-3542 -3542,-3542 -1957,0 -3543,1586 -3543,3542 0,1957 1586,3543 3543,3543zm1792 -6991l720 -1246c-218,-212 -270,-544 -109,-821 188,-326 599,-436 924,-248 326,188 436,599 248,925 -161,278 -475,399 -768,314l-720 1247c-96,-61 -194,-118 -295,-171zm1484 1359l1247 -720c-83,-292 38,-606 315,-766 326,-188 737,-78 925,248 188,326 78,736 -248,924 -278,161 -611,108 -822,-111l-1246 720c-53,-101 -110,-200 -171,-295zm605 1919l1440 0c74,-295 336,-507 657,-507 376,0 677,301 677,677 0,377 -301,677 -677,677 -321,0 -583,-211 -657,-506l-1439 0c2,-57 3,-114 3,-171 0,-57 -1,-114 -4,-170zm-434 1966l1245 719c212,-220 545,-273 823,-112 326,188 436,599 248,925 -188,326 -599,436 -925,247 -277,-160 -398,-473 -315,-764l-1248 -720c62,-96 119,-194 171,-294l1 -1zm-1362 1483l719 1246c293,-86 610,34 771,314 188,326 78,736 -248,925 -325,188 -736,78 -924,-248 -160,-277 -109,-607 107,-819l-720 -1247c101,-52 199,-109 295,-171zm-1921 603l0 1439c298,71 513,334 513,657 0,377 -301,677 -677,677 -376,0 -677,-300 -677,-677 0,-318 209,-579 500,-654l0 -1442c59,3 117,4 177,4 55,0 110,-1 164,-4zm-1965 -437l-718 1244c223,211 278,546 116,827 -188,326 -599,436 -925,248 -326,-189 -436,-599 -247,-925 159,-276 469,-397 759,-317l721 -1249c96,62 194,119 294,172zm-1480 -1362l-1245 718c88,295 -33,613 -313,774 -326,189 -736,79 -924,-247 -189,-326 -79,-737 247,-925 276,-159 605,-109 816,105l1248 -721 2 4c52,100 108,197 169,292zm-601 -1918l-1439 0c-71,298 -334,512 -657,512 -376,0 -677,-300 -677,-677 0,-376 301,-677 677,-677 319,0 578,209 654,501l1442 0c-2,58 -4,117 -4,176 0,55 1,110 4,165zm436 -1962l-1245 -719c-211,221 -545,275 -825,113 -326,-188 -435,-598 -247,-924 188,-326 598,-436 924,-248 277,160 398,472 317,762l1248 721c-62,96 -119,194 -172,295zm1359 -1480l-720 -1247c-292,85 -607,-36 -768,-314 -189,-326 -79,-737 247,-925 326,-188 737,-78 925,248 160,277 108,609 -109,820l720 1247c-101,53 -199,110 -295,171zm-1066 -2183c161,-92 356,-37 447,120 95,165 42,353 -120,446 -162,93 -351,46 -446,-119 -91,-158 -41,-354 119,-447zm-2307 2308c92,-160 289,-211 446,-120 165,96 213,285 120,447 -94,161 -282,215 -447,119 -157,-91 -212,-286 -119,-446zm-845 3152c0,-185 145,-327 327,-327 190,0 327,140 327,327 0,187 -137,327 -327,327 -182,0 -327,-142 -327,-327zm845 3153c-93,-160 -38,-356 119,-447 165,-95 353,-42 447,120 93,162 45,351 -120,446 -157,91 -354,41 -446,-119zm2307 2307c-160,-92 -210,-289 -119,-446 95,-165 284,-213 446,-120 162,94 215,282 120,447 -91,157 -286,212 -447,119zm3153 845c-185,0 -327,-145 -327,-327 0,-190 140,-327 327,-327 187,0 327,137 327,327 0,182 -142,327 -327,327zm3152 -845c-160,93 -355,38 -446,-119 -96,-165 -42,-353 119,-447 162,-93 352,-45 447,120 91,157 40,354 -120,446zm2308 -2307c-92,160 -289,210 -447,119 -165,-95 -212,-284 -119,-446 93,-162 281,-215 446,-120 158,91 212,287 120,447zm844 -3153c1,185 -145,327 -326,327 -191,0 -327,-140 -327,-327 0,-187 136,-327 327,-327 181,0 327,142 326,327zm-844 -3152c92,160 38,355 -120,446 -165,96 -353,42 -446,-119 -93,-162 -46,-351 119,-447 158,-91 355,-40 447,120zm-2308 -2308c160,93 211,289 120,447 -95,165 -285,212 -447,119 -161,-93 -215,-281 -119,-446 91,-157 286,-212 446,-120zm-3152 -845c185,0 327,146 327,327 0,191 -140,327 -327,327 -187,0 -327,-136 -327,-327 0,-181 142,-327 327,-327z"/>
      </g>
     </g>
    </g>
    <polygon class="fil7" points="0,0 2092,0 2092,43761 0,43761 "/>
   </g>
  </g>
 </g>
</svg>
