<?xml version="1.0" encoding="UTF-8"?>
<!DOCTYPE svg PUBLIC "-//W3C//DTD SVG 1.1//EN" "http://www.w3.org/Graphics/SVG/1.1/DTD/svg11.dtd">
<!-- Creator: CorelDRAW X7 -->
<svg xmlns="http://www.w3.org/2000/svg" xml:space="preserve" width="21.3335in" height="7.06579in" version="1.1" style="shape-rendering:geometricPrecision; text-rendering:geometricPrecision; image-rendering:optimizeQuality; fill-rule:evenodd; clip-rule:evenodd"
viewBox="0 0 213335 70658"
 xmlns:xlink="http://www.w3.org/1999/xlink">
 <defs>
  <style type="text/css">
   <![CDATA[
    .fil2 {fill:#F0E3CC}
    .fil1 {fill:#F1E6D1}
    .fil0 {fill:#F7EFE3}
    .fil3 {fill:#F9F3EA}
   ]]>
  </style>
 </defs>
 <g id="Layer_x0020_1">
  <metadata id="CorelCorpID_0Corel-Layer"/>
  <g id="_2622982870688">
   <path class="fil0" d="M184268 48603c-3586,6176 13555,24181 29067,21848l0 -25707c-11828,-2496 -26685,-245 -29067,3859z"/>
   <g>
    <path class="fil1" d="M0 12433c8339,7699 24875,13218 38381,2681 5492,-4286 9705,-9866 10694,-15114l-49075 0 0 12433z"/>
    <path class="fil2" d="M73216 0c11124,41805 -50006,42542 -73216,23696l0 14426c21464,9707 52101,15528 76106,10054 25549,-5826 41903,-25578 45269,-48176l-48159 0z"/>
    <path class="fil0" d="M117709 0c-3367,22598 -17721,39933 -43270,45759 -24004,5475 -52975,-180 -74439,-9887l0 10471c32759,17336 66465,25043 103007,15843 20506,-5163 38179,-14374 60364,-21329 17138,-5373 34408,-8237 49964,-3190l0 -37667 -95626 0z"/>
    <path class="fil3" d="M167057 49795c-4425,0 -8011,2836 -8011,6334 0,3499 3586,6335 8011,6335 4425,0 8012,-2836 8012,-6335 0,-3498 -3587,-6334 -8012,-6334z"/>
   </g>
  </g>
 </g>
</svg>
