<?xml version="1.0" encoding="UTF-8"?>
<!DOCTYPE svg PUBLIC "-//W3C//DTD SVG 1.1//EN" "http://www.w3.org/Graphics/SVG/1.1/DTD/svg11.dtd">
<!-- Creator: CorelDRAW X7 -->
<svg xmlns="http://www.w3.org/2000/svg" xml:space="preserve" width="0.763898in" height="0.763701in" version="1.1" style="shape-rendering:geometricPrecision; text-rendering:geometricPrecision; image-rendering:optimizeQuality; fill-rule:evenodd; clip-rule:evenodd"
viewBox="0 0 7639 7637"
 xmlns:xlink="http://www.w3.org/1999/xlink">
 <defs>
  <style type="text/css">
   <![CDATA[
    .fil0 {fill:#D7B77D}
   ]]>
  </style>
 </defs>
 <g id="Layer_x0020_1">
  <metadata id="CorelCorpID_0Corel-Layer"/>
  <path class="fil0" d="M3819 0c-2110,-2 -3819,1709 -3819,3818 0,2111 1708,3819 3819,3819 2114,0 3820,-1705 3820,-3819 0,-2112 -1709,-3818 -3820,-3818zm799 2950l1480 358 -988 1158 118 1519 -1408 -581 -1408 581 117 -1519 -987 -1158 1480 -358 797 -1298 799 1298zm-799 -842l-645 1050 -1200 290 800 939 -95 1230 1140 -471 1140 471 -95 -1230 800 -939 -1199 -290 -646 -1050zm0 5292c-1979,-2 -3580,-1602 -3580,-3582 0,-1979 1601,-3580 3580,-3580 1983,0 3577,1599 3583,3580 -6,1982 -1600,3580 -3583,3582z"/>
 </g>
</svg>
