<?xml version="1.0" encoding="UTF-8"?>
<!DOCTYPE svg PUBLIC "-//W3C//DTD SVG 1.1//EN" "http://www.w3.org/Graphics/SVG/1.1/DTD/svg11.dtd">
<!-- Creator: CorelDRAW X7 -->
<svg xmlns="http://www.w3.org/2000/svg" xml:space="preserve" width="3.06984in" height="0.97189in" version="1.1" style="shape-rendering:geometricPrecision; text-rendering:geometricPrecision; image-rendering:optimizeQuality; fill-rule:evenodd; clip-rule:evenodd"
viewBox="0 0 30698 9719"
 xmlns:xlink="http://www.w3.org/1999/xlink">
 <defs>
  <style type="text/css">
   <![CDATA[
    .fil2 {fill:#7C94CA}
    .fil1 {fill:#DBE2F1}
    .fil0 {fill:white}
    .fil3 {fill:#7C94CA;fill-rule:nonzero}
   ]]>
  </style>
 </defs>
 <g id="Layer_x0020_1">
  <metadata id="CorelCorpID_0Corel-Layer"/>
  <g id="_2622938409328">
   <path class="fil0" d="M4859 0l20980 0c2672,0 4859,2187 4859,4859 0,2673 -2186,4860 -4859,4860l-20980 0c-2672,0 -4859,-2187 -4859,-4859 0,-2673 2186,-4860 4859,-4860z"/>
   <polygon class="fil1" points="20778,1407 20497,1407 20497,8312 20778,8312 "/>
   <polygon class="fil2" points="20356,1407 20497,1407 20497,8312 20356,8312 "/>
   <path class="fil2" d="M24218 4753l3113 0 -1169 -1168 153 -153 1428 1428 -1428 1428 -153 -152 1169 -1170 -3113 0 0 -213zm-1675 107c0,-919 356,-1783 1006,-2432 650,-649 1512,-1007 2431,-1005 918,0 1780,356 2430,1006 649,648 1006,1512 1006,2431 0,918 -357,1782 -1006,2430 -650,650 -1512,1007 -2430,1007 -919,1 -1781,-357 -2431,-1006 -650,-649 -1006,-1513 -1006,-2431zm6659 0c0,-861 -335,-1670 -943,-2280 -610,-608 -1418,-943 -2279,-943 -862,0 -1671,335 -2279,943 -609,610 -944,1419 -944,2280 0,861 335,1669 944,2279 608,608 1417,944 2279,944 861,0 1669,-336 2279,-944 608,-610 943,-1418 943,-2279z"/>
   <path class="fil3" d="M3334 5530c-68,0 -131,-11 -191,-34 -60,-22 -114,-55 -160,-99 -18,-17 -37,-39 -56,-63 -20,-25 -37,-54 -53,-87 -15,-34 -28,-72 -38,-114 -10,-43 -15,-90 -15,-143 0,-45 5,-95 14,-148 9,-53 19,-103 30,-150 12,-48 22,-89 32,-123 10,-35 17,-56 19,-64l163 52 161 50c-9,25 -17,54 -26,88 -9,34 -18,69 -26,105 -9,36 -15,71 -21,104 -5,34 -8,63 -8,88 0,43 6,78 19,105 12,27 27,48 45,62 17,14 37,23 58,28 20,4 39,6 55,6l808 -1c110,0 207,-1 291,-3 84,-2 155,-6 214,-14 59,-8 105,-19 140,-35 34,-16 57,-37 67,-65 6,-18 4,-39 -5,-64 -9,-24 -24,-52 -45,-82 -22,-30 -47,-63 -77,-98 -30,-35 -63,-71 -98,-109 -83,-88 -159,-163 -227,-225 -69,-63 -128,-114 -177,-155 -49,-40 -88,-71 -115,-90 -28,-20 -42,-30 -43,-30l24 -365 1229 -548 136 311 -1033 450c64,48 135,107 211,178 76,70 160,155 250,255 37,42 73,84 107,124 35,41 65,83 92,126 26,43 47,87 63,134 16,47 24,97 24,150 0,9 0,18 0,29 0,10 -2,20 -3,28 -16,103 -50,183 -102,242 -53,59 -123,102 -210,131 -87,28 -191,46 -310,53 -120,7 -254,10 -403,10l-810 0zm2665 0l-339 0 0 -1966 339 0 0 1966zm1397 0l-52 0c-37,0 -73,-2 -105,-7 -34,-4 -66,-17 -98,-38 -11,117 -38,224 -80,319 -43,96 -101,177 -172,245 -71,68 -156,121 -255,158 -99,37 -211,55 -334,55l-171 0 0 -339 171 0c87,0 162,-9 226,-27 64,-18 116,-48 157,-88 41,-40 71,-92 91,-156 20,-64 30,-142 30,-234l0 -830 340 0 0 408c0,41 8,76 26,101 18,26 39,45 61,59 24,14 46,23 68,28 22,4 37,7 45,7l52 0 0 339zm655 -1306l-229 -232 227 -234 235 234 -233 232zm-570 1l-230 -231 225 -235 235 235 -230 231zm1040 966l0 339 -202 0c-78,0 -148,-10 -212,-31 -63,-21 -117,-52 -161,-93 -50,43 -111,74 -180,94 -69,20 -149,30 -238,30l-472 0 0 -339 472 0c56,0 100,-6 133,-16 33,-10 58,-23 75,-39 17,-15 28,-33 33,-52 5,-19 7,-37 7,-56l0 -441 338 0 0 432c0,41 9,73 27,96 19,23 40,40 63,52 23,11 46,18 68,20 23,3 39,4 47,4l202 0zm999 336c-166,0 -298,-43 -395,-129 -50,46 -106,80 -167,101 -61,21 -123,31 -188,31l-306 0 0 -339 306 0c11,0 27,-2 47,-6 21,-3 42,-12 62,-26 20,-14 38,-35 53,-63 16,-28 24,-66 24,-115l0 -6 0 -387 339 0 0 387c0,75 18,129 53,163 35,34 92,51 172,51 11,0 27,-2 47,-6 21,-4 41,-13 62,-28 20,-14 38,-36 53,-65 16,-28 24,-67 24,-115l0 -387 338 0 0 387c0,75 18,130 54,165 36,35 94,52 175,52 12,0 28,-2 48,-7 21,-5 41,-15 61,-30 20,-15 37,-37 52,-65 14,-28 22,-67 22,-115 0,-20 -2,-44 -5,-72 -3,-28 -7,-58 -12,-89 -5,-32 -11,-64 -17,-96 -6,-32 -13,-63 -20,-92 -6,-29 -12,-55 -18,-79 -5,-24 -11,-42 -14,-56l320 -105c2,6 6,21 11,44 6,22 12,51 20,84 8,34 16,71 24,112 8,41 15,82 22,124 7,41 13,81 17,121 5,39 7,74 7,104 0,93 -15,174 -46,244 -30,69 -69,127 -119,173 -49,46 -104,80 -166,103 -62,22 -124,35 -187,35 -169,1 -303,-44 -401,-133 -50,46 -105,79 -166,100 -60,20 -122,30 -186,30zm322 -1542l-232 235 -232 -232 232 -234 232 231zm585 -5l-229 232 -239 -229 235 -235 233 232zm-302 -385l-218 219 -215 -215 218 -219 215 215zm1361 1935l-339 0 0 -1966 339 0 0 1966zm1547 2c-35,0 -69,-2 -102,-6 -34,-4 -68,-9 -103,-15 -34,-6 -70,-14 -106,-24 -36,-9 -74,-20 -114,-32l-163 -49 98 -327c80,27 162,51 247,72 85,21 165,35 240,41 75,6 140,3 195,-9 55,-12 92,-38 111,-78 6,-13 7,-29 2,-48 -5,-19 -15,-39 -30,-60l-508 -742 286 -185 93 143c0,1 2,4 5,8 3,5 9,14 19,29 9,14 23,35 41,62 17,27 41,62 70,105 29,44 65,98 107,162 42,64 93,141 152,230 46,70 75,142 85,217 11,74 1,145 -28,212 -15,37 -36,70 -62,101 -26,30 -56,57 -90,81 -65,44 -143,75 -234,91 -76,14 -146,21 -211,21zm1634 -2c-100,0 -186,-6 -258,-18 -72,-12 -132,-31 -181,-55 -49,-24 -89,-55 -118,-92 -30,-37 -52,-81 -68,-131 -15,-50 -25,-106 -30,-169 -5,-64 -8,-133 -8,-210l0 -1291 340 0 0 1291c0,73 2,131 7,175 5,43 18,77 40,101 21,24 53,40 96,48 44,8 103,12 180,12l0 339zm1791 -543c-4,3 -19,13 -43,30 -25,17 -58,38 -100,65 9,27 23,48 42,63 20,15 39,26 59,33 20,7 39,10 57,11 17,1 30,2 37,2l250 0 0 339 -250 0c-108,-1 -205,-25 -291,-71 -86,-47 -153,-117 -201,-211 -70,34 -146,69 -226,103 -81,34 -166,64 -254,91 -88,26 -179,47 -271,64 -93,16 -186,24 -279,24l-406 0 0 -339 406 0c89,0 184,-9 285,-28 101,-18 201,-41 299,-70 98,-28 192,-61 280,-96 89,-35 166,-70 231,-105 -41,-13 -86,-27 -135,-42 -49,-15 -99,-30 -150,-45 -51,-15 -101,-29 -151,-43 -50,-14 -97,-27 -140,-38 -44,-11 -83,-19 -118,-26 -34,-6 -62,-9 -82,-9 -20,0 -39,2 -55,7 -16,5 -30,14 -43,25 -12,11 -24,26 -35,44 -11,18 -22,40 -34,66l-313 -94c18,-55 39,-106 64,-154 25,-48 55,-89 91,-125 36,-35 78,-63 125,-83 47,-21 101,-31 162,-31 24,0 58,5 101,15 44,10 93,23 149,39 55,17 115,35 178,56 63,21 126,43 190,66 64,22 125,45 185,67 60,21 115,41 163,59 48,18 88,32 121,44 33,12 54,19 63,22l39 275zm-1135 1010l246 -248 251 251 -249 248 -248 -251zm2377 -1612c2,6 6,21 12,45 6,23 13,52 20,86 7,34 15,72 22,114 8,42 15,84 22,126 7,43 12,84 17,124 4,40 6,75 6,105 0,93 -16,175 -47,243 -31,69 -71,125 -121,170 -50,44 -106,78 -168,99 -63,22 -125,33 -188,33l-588 0 0 -339 598 0c10,0 26,-2 47,-5 20,-3 41,-12 61,-25 20,-14 38,-35 54,-62 15,-28 23,-66 23,-114 0,-20 -2,-45 -5,-73 -3,-29 -7,-60 -13,-92 -5,-33 -11,-66 -18,-100 -7,-35 -14,-67 -20,-97 -6,-31 -13,-58 -19,-83 -6,-25 -11,-45 -15,-58l320 -97zm-165 1888l-229 -231 226 -235 234 235 -231 231zm-572 2l-229 -232 225 -235 235 235 -231 232zm1508 -745l-340 0 0 -1966 340 0 0 1966z"/>
   <path class="fil2" d="M4859 0l20980 0c2672,0 4859,2187 4859,4859 0,2673 -2186,4860 -4859,4860l-20980 0c-2672,0 -4859,-2187 -4859,-4859 0,-2673 2186,-4860 4859,-4860zm20980 239l-20980 0c-1271,0 -2426,520 -3263,1357l0 1c-837,837 -1357,1992 -1357,3263 0,1270 520,2425 1358,3262 837,838 1992,1358 3262,1358l20980 0c1271,0 2426,-520 3263,-1357l0 -1c838,-837 1357,-1993 1357,-3263 0,-1270 -520,-2425 -1357,-3263 -838,-837 -1993,-1357 -3263,-1357z"/>
  </g>
 </g>
</svg>
