<?xml version="1.0" encoding="UTF-8"?>
<!DOCTYPE svg PUBLIC "-//W3C//DTD SVG 1.1//EN" "http://www.w3.org/Graphics/SVG/1.1/DTD/svg11.dtd">
<!-- Creator: CorelDRAW X7 -->
<svg xmlns="http://www.w3.org/2000/svg" xml:space="preserve" width="4.17634in" height="4.3761in" version="1.1" style="shape-rendering:geometricPrecision; text-rendering:geometricPrecision; image-rendering:optimizeQuality; fill-rule:evenodd; clip-rule:evenodd"
viewBox="0 0 41763 43761"
 xmlns:xlink="http://www.w3.org/1999/xlink">
 <defs>
  <style type="text/css">
   <![CDATA[
    .fil4 {fill:#8DA0D1}
    .fil1 {fill:#6C87C3}
    .fil3 {fill:white}
    .fil0 {fill:#8DA0D1;fill-rule:nonzero}
    .fil2 {fill:white;fill-rule:nonzero}
   ]]>
  </style>
 </defs>
 <g id="Layer_x0020_1">
  <metadata id="CorelCorpID_0Corel-Layer"/>
  <g id="_2622980122224">
   <polygon class="fil0" points="3346,0 41763,0 41763,43761 3346,43761 3346,25226 0,21880 3346,18535 "/>
   <polygon class="fil1" points="41442,21880 0,21880 3346,25226 3346,43761 41442,43761 41763,43761 41763,21880 "/>
   <g>
    <path class="fil2" d="M11679 35728c0,84 14,162 43,234 29,71 77,133 145,184 68,51 159,91 274,120 113,29 256,43 425,43 212,0 384,-15 516,-45 131,-31 234,-68 308,-111 74,-44 125,-92 152,-143 27,-52 41,-99 41,-140 0,-46 -17,-83 -52,-110 -35,-27 -91,-62 -170,-105 -87,-47 -170,-94 -248,-141 -77,-49 -144,-103 -200,-165 -56,-63 -101,-132 -134,-210 -34,-76 -50,-168 -50,-275 0,-118 21,-237 64,-357 43,-120 106,-228 189,-325 82,-97 187,-176 315,-236 127,-61 275,-91 446,-91 112,0 212,12 298,36 87,25 151,44 192,59l0 533c-106,-24 -198,-40 -275,-48 -77,-8 -137,-12 -180,-12 -78,0 -147,11 -204,34 -58,23 -105,53 -143,89 -37,36 -65,77 -84,121 -17,44 -26,88 -26,133 0,70 31,129 93,177 62,50 139,95 229,138 110,52 199,102 269,150 69,48 124,97 165,148 41,50 70,103 86,158 18,56 26,115 26,179 0,127 -26,258 -78,392 -52,134 -140,254 -266,362 -126,107 -292,194 -500,263 -207,68 -466,101 -779,101 -275,0 -506,-28 -695,-84 -189,-56 -341,-134 -457,-234 -116,-100 -200,-217 -250,-352 -50,-134 -75,-282 -75,-443l0 -731 590 0 0 704zm3596 -3163l0 3245 -587 0 0 -3245 587 0zm847 2064c0,37 5,76 13,116 9,39 26,76 50,107 24,32 57,59 98,80 41,22 93,32 157,32 39,0 80,-1 120,-4 41,-3 83,-12 126,-27l0 -628 -227 0c-112,0 -197,30 -253,89 -56,59 -84,137 -84,235zm1267 1181c-72,0 -143,-5 -211,-16 -68,-10 -131,-29 -188,-56 -58,-27 -109,-65 -152,-112 -44,-48 -78,-109 -101,-184 -52,11 -105,21 -160,29 -55,9 -109,12 -164,12 -76,0 -164,-11 -264,-34 -100,-22 -194,-65 -284,-125 -89,-61 -165,-145 -227,-253 -62,-108 -93,-247 -93,-415 0,-167 29,-308 89,-423 59,-115 134,-209 227,-282 93,-73 195,-126 309,-158 113,-31 224,-47 334,-47l772 0 0 1360c0,70 9,118 28,143 18,25 60,37 127,37l109 0c24,0 46,3 68,8 21,5 41,16 57,32 18,16 31,41 40,74 8,33 12,79 12,137 0,103 -14,175 -43,214 -28,39 -73,59 -134,59l-151 0zm1053 -941c0,157 35,265 108,326 73,61 160,91 262,91l255 0 0 -344c0,-61 -3,-119 -11,-175 -8,-56 -23,-106 -45,-148 -23,-42 -54,-76 -94,-102 -39,-26 -89,-39 -150,-39 -63,0 -116,12 -156,35 -41,23 -74,52 -100,89 -25,36 -44,77 -54,124 -11,46 -15,94 -15,143zm-506 417c-25,-49 -42,-110 -53,-184 -11,-74 -16,-143 -16,-206 0,-119 20,-235 62,-350 41,-115 101,-217 177,-306 77,-90 174,-162 289,-216 115,-56 247,-83 394,-83 174,0 316,31 428,93 112,62 200,141 264,237 64,95 109,201 134,318 25,117 38,230 38,340l0 881 -2113 0c-23,0 -46,-2 -67,-7 -22,-5 -41,-15 -59,-32 -16,-17 -29,-42 -38,-76 -9,-33 -13,-78 -13,-136 0,-104 14,-175 43,-214 29,-40 74,-59 134,-59l396 0zm513 -2071c0,-87 31,-162 95,-227 64,-64 140,-97 229,-97 87,0 163,32 226,96 64,63 96,140 96,228 0,87 -32,163 -96,227 -63,64 -139,95 -226,95 -87,0 -163,-31 -228,-95 -64,-64 -96,-140 -96,-227zm2966 2595c-40,0 -95,-9 -164,-28 -70,-18 -131,-58 -182,-118 -3,205 -28,377 -72,515 -46,138 -114,250 -205,335 -91,85 -206,147 -344,182 -140,36 -307,56 -502,59l0 -554c124,-3 223,-18 296,-44 73,-26 128,-64 165,-115 35,-51 59,-117 69,-198 11,-80 15,-177 15,-289l0 -1354 587 0 0 773c0,118 35,200 107,244 72,46 149,68 230,68 23,0 46,3 67,8 22,5 41,16 59,32 16,16 29,41 38,74 9,33 13,79 13,137 0,103 -14,175 -43,214 -29,39 -74,59 -134,59zm1624 -524c-8,-122 -28,-233 -58,-334 -31,-101 -77,-188 -139,-261 -62,-72 -142,-129 -239,-170 -97,-40 -218,-60 -362,-60 -50,0 -126,7 -230,19 -105,14 -210,36 -317,67l0 -528c70,-24 165,-49 284,-76 120,-28 244,-42 371,-42 237,0 436,41 598,123 162,81 293,190 393,327 100,136 172,295 216,475 43,179 65,366 65,562l0 422 -2208 0c-24,0 -47,-2 -68,-7 -22,-5 -41,-15 -58,-32 -17,-17 -30,-42 -39,-76 -9,-33 -13,-78 -13,-136 0,-104 15,-175 44,-214 28,-40 73,-59 134,-59l1626 0zm2080 -657c0,37 5,76 13,116 9,39 26,76 50,107 24,32 57,59 98,80 40,22 93,32 156,32 40,0 81,-1 121,-4 41,-3 82,-12 126,-27l0 -628 -227 0c-112,0 -197,30 -253,89 -56,59 -84,137 -84,235zm1267 1181c-72,0 -143,-5 -211,-16 -68,-10 -131,-29 -189,-56 -57,-27 -108,-65 -151,-112 -44,-48 -78,-109 -102,-184 -51,11 -104,21 -159,29 -55,9 -110,12 -164,12 -76,0 -164,-11 -264,-34 -100,-22 -194,-65 -284,-125 -89,-61 -165,-145 -227,-253 -62,-108 -93,-247 -93,-415 0,-167 29,-308 88,-423 59,-115 135,-209 228,-282 93,-73 195,-126 309,-158 113,-31 224,-47 334,-47l772 0 0 1360c0,70 9,118 28,143 18,25 60,37 127,37l109 0c24,0 46,3 67,8 22,5 41,16 58,32 17,16 30,41 39,74 9,33 13,79 13,137 0,103 -14,175 -43,214 -29,39 -73,59 -134,59l-151 0zm1777 -524c-8,-122 -28,-233 -58,-334 -30,-101 -76,-188 -136,-261 -61,-72 -140,-129 -239,-170 -98,-40 -220,-60 -365,-60 -49,0 -125,7 -228,19 -102,14 -208,36 -318,67l0 -528c70,-24 165,-49 286,-76 121,-28 244,-42 368,-42 228,0 421,37 581,111 159,74 288,174 388,302 100,127 174,275 220,444 47,169 73,344 79,528l295 0c24,0 46,3 67,8 22,5 41,16 58,32 17,16 30,41 39,74 9,33 13,79 13,137 0,103 -14,175 -43,214 -29,39 -73,59 -134,59l-2499 0c-23,0 -46,-2 -67,-7 -22,-5 -41,-15 -59,-32 -16,-17 -29,-42 -38,-76 -9,-33 -13,-78 -13,-136 0,-104 14,-175 43,-214 29,-40 73,-59 134,-59l1626 0zm-1072 -2071c0,-87 32,-162 95,-227 64,-64 140,-97 229,-97 87,0 163,32 226,96 64,63 96,140 96,228 0,87 -32,163 -96,227 -63,64 -139,95 -226,95 -87,0 -163,-31 -227,-95 -65,-64 -97,-140 -97,-227zm2105 2071c67,0 122,-1 165,-4 44,-3 80,-12 107,-27 27,-15 47,-37 58,-66 12,-28 18,-68 18,-121l0 -867 588 0 0 773c0,97 27,173 79,229 53,55 134,83 243,83 90,0 167,-13 229,-40 62,-26 93,-85 93,-178l0 -867 588 0 0 773c0,106 23,184 70,236 47,51 125,76 234,76 84,0 153,-14 204,-42 52,-28 78,-91 78,-189l0 -1054 586 0 0 973c0,112 22,192 67,240 46,48 143,72 293,72 23,0 46,3 67,8 21,5 40,16 57,32 16,16 29,41 38,74 10,33 15,79 15,137 0,103 -15,175 -43,214 -29,39 -74,59 -134,59 -88,0 -174,-16 -260,-48 -84,-32 -154,-96 -209,-194 -43,58 -87,102 -134,134 -47,32 -94,56 -144,74 -48,16 -97,26 -145,29 -48,3 -95,5 -141,5 -54,0 -112,-5 -173,-14 -60,-8 -120,-22 -179,-41 -59,-18 -112,-42 -159,-72 -46,-31 -84,-67 -112,-109 -94,104 -187,169 -283,196 -95,26 -200,40 -312,40 -298,0 -511,-79 -642,-236 -81,107 -187,173 -317,198 -130,25 -296,38 -499,38l-151 0c-23,0 -46,-2 -67,-7 -22,-5 -41,-15 -59,-32 -16,-17 -29,-42 -38,-76 -9,-33 -13,-78 -13,-136 0,-104 14,-175 43,-214 29,-40 73,-59 134,-59l160 0zm4178 -2071c0,-87 32,-162 96,-227 63,-64 140,-97 229,-97 87,0 162,32 226,96 64,63 95,140 95,228 0,87 -31,163 -95,227 -64,64 -139,95 -226,95 -88,0 -163,-31 -228,-95 -64,-64 -97,-140 -97,-227zm43 2071l0 -1285 595 0 0 1809 -1119 0c-23,0 -46,-2 -67,-7 -22,-5 -41,-15 -58,-32 -17,-17 -30,-42 -39,-76 -9,-33 -13,-78 -13,-136 0,-104 14,-175 43,-214 29,-40 74,-59 134,-59l524 0z"/>
    <g>
     <path class="fil3" d="M22555 9889c-4952,0 -8966,4015 -8966,8966 0,4952 4014,8966 8966,8966 4951,0 8966,-4014 8966,-8966 0,-4951 -4015,-8966 -8966,-8966z"/>
     <path class="fil4" d="M22555 22056c-884,0 -1684,-358 -2264,-937 -579,-580 -937,-1380 -937,-2264 0,-884 358,-1684 937,-2264 580,-579 1380,-937 2264,-937 884,0 1684,358 2264,937 579,580 937,1380 937,2264 0,884 -358,1684 -937,2264 -580,579 -1380,937 -2264,937zm170 -8523l0 1440c-106,-4 -235,-9 -341,0l0 -1440c-294,-73 -506,-335 -506,-656 0,-376 301,-677 677,-677 376,0 677,301 677,677 0,321 -212,583 -507,656zm3106 3233l1247 -721c-83,-291 38,-605 315,-765 326,-188 737,-78 925,247 188,326 78,737 -247,925 -279,161 -612,108 -823,-111l-1246 720c-53,-101 -110,-200 -171,-295zm171 3885l1245 719c212,-220 545,-273 824,-112 325,188 435,599 247,924 -188,326 -599,437 -925,248 -277,-160 -398,-473 -315,-764l-1248 -721c62,-95 119,-193 171,-293l1 -1zm-3283 2086l0 1438c298,72 513,335 513,658 0,376 -301,677 -677,677 -376,0 -677,-301 -677,-677 0,-319 209,-579 500,-655l0 -1441c59,2 118,4 177,4 55,0 110,-1 164,-4zm-3445 -1799l-1245 718c88,294 -32,613 -313,774 -326,189 -736,78 -924,-248 -189,-325 -79,-736 247,-924 276,-159 605,-109 816,105l1248 -721 2 4c52,100 108,197 169,292zm-165 -3880l-1245 -719c-211,221 -545,275 -825,113 -326,-188 -435,-599 -247,-924 188,-326 598,-436 924,-248 277,160 398,471 317,762l1248 721c-62,95 -119,194 -172,295zm-2014 -1355c92,-160 289,-211 446,-120 165,95 213,285 120,446 -94,162 -282,215 -447,120 -157,-91 -211,-286 -119,-446zm0 6304c-92,-160 -38,-355 119,-446 165,-95 353,-42 447,120 93,161 45,351 -120,446 -157,91 -354,41 -446,-120zm5460 3153c-185,0 -327,-145 -327,-327 0,-191 140,-327 327,-327 187,0 327,136 327,327 0,182 -142,327 -327,327zm5460 -3153c-92,161 -289,211 -446,120 -165,-95 -213,-285 -120,-446 93,-162 281,-215 446,-120 158,91 212,286 120,446zm0 -6304c92,160 38,355 -120,446 -165,95 -353,42 -446,-120 -93,-161 -45,-351 120,-446 157,-91 354,-40 446,120zm-5460 -3153c185,0 327,145 327,327 0,191 -140,327 -327,327 -187,0 -327,-136 -327,-327 0,-182 142,-327 327,-327zm0 4471c621,0 1014,391 1155,973 692,-129 1290,263 1290,983 0,567 -462,1026 -1029,1026l-2833 0c-567,0 -1028,-459 -1028,-1026 0,-720 598,-1112 1290,-983 141,-582 534,-973 1155,-973zm0 5377c-1957,0 -3543,-1586 -3543,-3543 0,-1956 1586,-3542 3543,-3542 1956,0 3542,1586 3542,3542 0,1957 -1586,3543 -3542,3543z"/>
    </g>
   </g>
  </g>
 </g>
</svg>
