<?xml version="1.0" encoding="UTF-8"?>
<!DOCTYPE svg PUBLIC "-//W3C//DTD SVG 1.1//EN" "http://www.w3.org/Graphics/SVG/1.1/DTD/svg11.dtd">
<!-- Creator: CorelDRAW X7 -->
<svg xmlns="http://www.w3.org/2000/svg" xml:space="preserve" width="4.17634in" height="4.3761in" version="1.1" style="shape-rendering:geometricPrecision; text-rendering:geometricPrecision; image-rendering:optimizeQuality; fill-rule:evenodd; clip-rule:evenodd"
viewBox="0 0 41763 43761"
 xmlns:xlink="http://www.w3.org/1999/xlink">
 <defs>
  <style type="text/css">
   <![CDATA[
    .fil4 {fill:#DABA76}
    .fil1 {fill:#C8AD78}
    .fil3 {fill:white}
    .fil0 {fill:#DABA76;fill-rule:nonzero}
    .fil2 {fill:white;fill-rule:nonzero}
   ]]>
  </style>
 </defs>
 <g id="Layer_x0020_1">
  <metadata id="CorelCorpID_0Corel-Layer"/>
  <g id="_2622941872256">
   <polygon class="fil0" points="3346,0 41763,0 41763,43761 3346,43761 3346,25226 0,21881 3346,18535 "/>
   <polygon class="fil1" points="41442,21880 0,21880 3346,25226 3346,43761 41442,43761 41763,43761 41763,21880 "/>
   <g>
    <path class="fil2" d="M14213 34634c0,37 5,76 13,116 9,39 26,76 50,107 24,32 57,59 98,80 40,22 93,32 156,32 40,0 81,-1 121,-4 41,-3 82,-12 126,-27l0 -628 -227 0c-112,0 -197,30 -253,89 -56,59 -84,137 -84,235zm1267 1181c-72,0 -143,-5 -211,-16 -68,-10 -131,-29 -189,-56 -57,-27 -108,-65 -151,-112 -44,-48 -78,-109 -102,-184 -51,11 -104,21 -159,29 -55,9 -110,12 -164,12 -76,0 -164,-11 -264,-34 -100,-22 -194,-65 -284,-125 -89,-61 -165,-145 -227,-253 -62,-108 -93,-247 -93,-415 0,-167 29,-308 88,-423 60,-115 135,-209 228,-282 93,-73 195,-126 309,-158 113,-31 224,-47 334,-47l772 0 0 1360c0,70 9,118 28,143 18,25 60,37 127,37l109 0c24,0 46,3 67,8 22,5 41,16 58,32 17,16 30,41 39,74 9,33 13,79 13,137 0,103 -14,175 -43,214 -29,39 -73,59 -134,59l-151 0zm151 0c-23,0 -46,-2 -67,-7 -22,-5 -41,-15 -59,-32 -16,-17 -29,-42 -38,-76 -9,-33 -13,-78 -13,-136 0,-104 14,-175 43,-214 29,-40 73,-59 134,-59l673 0c23,0 46,3 67,8 21,5 41,16 58,32 17,16 30,41 39,74 8,33 13,79 13,137 0,103 -14,175 -43,214 -29,39 -74,59 -134,59l-673 0zm673 0c-24,0 -46,-2 -68,-7 -22,-5 -41,-16 -58,-34 -17,-19 -30,-45 -39,-78 -9,-33 -13,-79 -13,-136 0,-104 15,-175 44,-215 28,-38 73,-58 134,-58l719 0 0 -1281 594 0 0 1809 -1313 0zm50 763c0,-87 32,-162 96,-226 64,-64 139,-96 226,-96 88,0 163,32 227,96 64,64 95,139 95,226 0,88 -31,163 -95,227 -64,64 -139,95 -227,95 -87,0 -162,-31 -226,-95 -64,-64 -96,-139 -96,-227zm740 0c0,-87 32,-162 95,-226 64,-64 140,-96 229,-96 87,0 163,32 227,96 63,64 95,139 95,226 0,88 -32,163 -95,227 -64,64 -140,95 -227,95 -87,0 -164,-31 -228,-95 -64,-64 -96,-139 -96,-227zm2134 -1036c0,103 -14,175 -43,214 -29,39 -73,59 -134,59l-191 0c-103,0 -198,-12 -284,-34 -85,-24 -160,-62 -222,-114 -62,-52 -110,-123 -145,-210 -35,-88 -52,-197 -52,-328l0 -2559 590 0 0 2477c0,107 19,174 57,202 37,28 91,42 161,42l86 0c24,0 46,3 68,8 22,5 41,16 58,32 17,16 29,41 39,74 9,33 12,79 12,137zm-181 273c-24,0 -47,-2 -68,-7 -22,-5 -41,-15 -58,-32 -17,-17 -30,-42 -39,-76 -9,-33 -13,-78 -13,-136 0,-104 15,-175 44,-214 28,-40 73,-59 134,-59l672 0c24,0 47,3 68,8 21,5 41,16 57,32 18,16 31,41 40,74 8,33 13,79 13,137 0,103 -15,175 -44,214 -28,39 -73,59 -134,59l-672 0zm672 0c-23,0 -46,-2 -67,-7 -22,-5 -41,-16 -58,-34 -17,-19 -30,-45 -39,-78 -9,-33 -13,-79 -13,-136 0,-104 14,-175 43,-215 29,-38 74,-58 134,-58l719 0 0 -1281 595 0 0 1809 -1314 0zm451 1422c0,-87 32,-162 96,-226 63,-64 138,-95 226,-95 87,0 163,31 227,95 65,64 96,139 96,226 0,88 -31,163 -95,227 -64,64 -139,95 -228,95 -88,0 -163,-31 -226,-95 -64,-64 -96,-139 -96,-227zm-373 -659c0,-87 32,-162 96,-226 63,-64 138,-96 226,-96 87,0 163,32 228,96 64,64 96,139 96,226 0,88 -32,163 -96,227 -63,64 -139,95 -228,95 -88,0 -163,-31 -226,-95 -64,-64 -96,-139 -96,-227zm741 0c0,-87 32,-162 96,-226 63,-64 139,-96 226,-96 87,0 163,32 227,96 63,64 95,139 95,226 0,88 -32,163 -95,227 -64,64 -140,95 -227,95 -87,0 -163,-31 -226,-95 -64,-64 -96,-139 -96,-227zm2033 -1944c0,37 5,76 13,116 9,39 26,76 50,107 24,32 57,59 98,80 41,22 93,32 157,32 39,0 80,-1 120,-4 41,-3 83,-12 126,-27l0 -628 -227 0c-112,0 -197,30 -253,89 -56,59 -84,137 -84,235zm1268 1181c-73,0 -144,-5 -212,-16 -68,-10 -131,-29 -188,-56 -58,-27 -109,-65 -152,-112 -44,-48 -78,-109 -101,-184 -52,11 -105,21 -160,29 -55,9 -109,12 -164,12 -76,0 -163,-11 -263,-34 -100,-22 -195,-65 -285,-125 -89,-61 -165,-145 -227,-253 -62,-108 -93,-247 -93,-415 0,-167 30,-308 89,-423 59,-115 134,-209 227,-282 93,-73 195,-126 309,-158 113,-31 224,-47 334,-47l772 0 0 1360c0,70 9,118 28,143 18,25 61,37 127,37l109 0c24,0 47,3 68,8 21,5 41,16 57,32 18,16 31,41 40,74 8,33 13,79 13,137 0,103 -15,175 -44,214 -28,39 -73,59 -134,59l-150 0zm1777 -524c-9,-122 -28,-233 -59,-334 -30,-101 -75,-188 -136,-261 -61,-72 -140,-129 -239,-170 -98,-40 -220,-60 -365,-60 -49,0 -125,7 -228,19 -102,14 -208,36 -318,67l0 -528c70,-24 165,-49 286,-76 122,-28 244,-42 369,-42 228,0 421,37 580,111 159,74 288,174 388,302 100,127 174,275 220,444 47,169 73,344 79,528l295 0c24,0 47,3 68,8 22,5 41,16 57,32 18,16 31,41 40,74 8,33 13,79 13,137 0,103 -15,175 -44,214 -28,39 -73,59 -134,59l-2499 0c-23,0 -46,-2 -67,-7 -22,-5 -41,-15 -58,-32 -17,-17 -30,-42 -39,-76 -9,-33 -13,-78 -13,-136 0,-104 14,-175 43,-214 29,-40 74,-59 134,-59l1627 0zm-1073 -2071c0,-87 32,-162 95,-227 64,-64 141,-97 229,-97 87,0 163,32 227,96 63,63 95,140 95,228 0,87 -32,163 -95,227 -64,64 -140,95 -227,95 -87,0 -163,-31 -227,-95 -64,-64 -97,-140 -97,-227zm2105 2071c67,0 122,-1 165,-4 44,-3 80,-12 107,-27 27,-15 47,-37 58,-66 13,-28 19,-68 19,-121l0 -867 587 0 0 773c0,97 27,173 79,229 53,55 134,83 243,83 90,0 167,-13 229,-40 62,-26 93,-85 93,-178l0 -867 588 0 0 773c0,106 24,184 71,236 46,51 124,76 234,76 84,0 152,-14 203,-42 52,-28 78,-91 78,-189l0 -1054 586 0 0 973c0,112 23,192 67,240 46,48 144,72 293,72 23,0 46,3 67,8 21,5 40,16 57,32 16,16 29,41 39,74 10,33 14,79 14,137 0,103 -14,175 -43,214 -29,39 -74,59 -134,59 -87,0 -174,-16 -259,-48 -85,-32 -155,-96 -209,-194 -44,58 -88,102 -135,134 -46,32 -94,56 -143,74 -49,16 -97,26 -146,29 -47,3 -94,5 -141,5 -54,0 -112,-5 -172,-14 -61,-8 -121,-22 -180,-41 -59,-18 -112,-42 -159,-72 -46,-31 -84,-67 -112,-109 -93,104 -187,169 -283,196 -95,26 -200,40 -312,40 -297,0 -511,-79 -641,-236 -81,107 -187,173 -318,198 -129,25 -296,38 -499,38l-151 0c-23,0 -46,-2 -67,-7 -22,-5 -41,-15 -58,-32 -17,-17 -30,-42 -39,-76 -9,-33 -13,-78 -13,-136 0,-104 14,-175 43,-214 29,-40 74,-59 134,-59l160 0zm4179 -2071c0,-87 31,-162 95,-227 64,-64 140,-97 229,-97 87,0 163,32 226,96 64,63 96,140 96,228 0,87 -32,163 -96,227 -63,64 -139,95 -226,95 -87,0 -163,-31 -227,-95 -65,-64 -97,-140 -97,-227zm42 2071l0 -1285 595 0 0 1809 -1118 0c-24,0 -47,-2 -68,-7 -22,-5 -41,-15 -58,-32 -17,-17 -30,-42 -39,-76 -9,-33 -13,-78 -13,-136 0,-104 15,-175 43,-214 29,-40 74,-59 135,-59l523 0z"/>
    <g>
     <path class="fil3" d="M22554 9895c-4951,0 -8965,4014 -8965,8965 0,4952 4014,8966 8965,8966 4952,0 8966,-4014 8966,-8966 0,-4951 -4014,-8965 -8966,-8965z"/>
     <path class="fil4" d="M22725 13539l0 1436c-58,-2 -116,-4 -174,-4 -56,0 -111,2 -167,4l0 -1436c-295,-73 -506,-335 -506,-656 0,-376 301,-676 677,-676 376,0 676,300 676,676 0,321 -211,583 -506,656zm-171 3489c621,0 1014,390 1155,972 692,-129 1291,263 1291,983 0,568 -462,1027 -1029,1027l-2833 0c-567,0 -1029,-459 -1029,-1027 0,-720 598,-1112 1291,-983 141,-582 534,-972 1154,-972zm-3 5030c884,0 1685,-359 2264,-938 579,-579 938,-1380 938,-2264 0,-884 -359,-1684 -938,-2263 -579,-579 -1380,-938 -2264,-938 -884,0 -1684,359 -2263,938 -580,579 -938,1379 -938,2263 0,884 358,1685 938,2264 579,579 1379,938 2263,938zm0 341c1957,0 3543,-1586 3543,-3543 0,-1956 -1586,-3542 -3543,-3542 -1956,0 -3542,1586 -3542,3542 0,1957 1586,3543 3542,3543zm3447 -1746l1248 721c211,-220 544,-273 823,-112 326,189 436,599 247,925 -188,326 -598,435 -924,247 -277,-160 -398,-473 -316,-764l-1250 -722c62,-96 119,-194 172,-295zm-6725 290l-1243 718c87,294 -33,612 -313,773 -326,188 -737,78 -925,-247 -188,-326 -78,-736 248,-925 276,-159 605,-109 816,105l1246 -719c53,101 110,199 171,295zm-2177 1069c-93,-160 -38,-356 119,-446 165,-96 353,-43 447,119 93,162 45,351 -120,446 -157,91 -354,41 -446,-119zm10917 0c-92,160 -289,210 -446,119 -165,-95 -213,-284 -119,-446 93,-162 281,-215 446,-119 157,90 212,286 119,446zm-5458 -9455c184,0 326,145 326,326 0,191 -140,327 -326,327 -187,0 -327,-136 -327,-327 0,-181 142,-326 327,-326z"/>
    </g>
   </g>
  </g>
 </g>
</svg>
