<?xml version="1.0" encoding="UTF-8"?>
<!DOCTYPE svg PUBLIC "-//W3C//DTD SVG 1.1//EN" "http://www.w3.org/Graphics/SVG/1.1/DTD/svg11.dtd">
<!-- Creator: CorelDRAW X7 -->
<svg xmlns="http://www.w3.org/2000/svg" xml:space="preserve" width="1.79311in" height="2.7665in" version="1.1" style="shape-rendering:geometricPrecision; text-rendering:geometricPrecision; image-rendering:optimizeQuality; fill-rule:evenodd; clip-rule:evenodd"
viewBox="0 0 17931 27665"
 xmlns:xlink="http://www.w3.org/1999/xlink">
 <defs>
  <style type="text/css">
   <![CDATA[
    .fil2 {fill:#DABA76}
    .fil1 {fill:white}
    .fil0 {fill:white;fill-rule:nonzero}
   ]]>
  </style>
 </defs>
 <g id="Layer_x0020_1">
  <metadata id="CorelCorpID_0Corel-Layer"/>
  <g id="_2622975358976">
   <path class="fil0" d="M624 24739c0,38 5,76 13,116 9,40 26,76 50,108 24,32 57,58 98,79 41,22 93,33 156,33 40,0 81,-2 121,-5 41,-3 82,-12 126,-26l0 -628 -227 0c-112,0 -197,29 -253,89 -56,59 -84,137 -84,234zm1267 1181c-72,0 -143,-5 -211,-16 -68,-9 -131,-28 -189,-56 -57,-27 -108,-65 -151,-112 -44,-47 -78,-109 -102,-184 -51,12 -104,21 -159,30 -55,8 -110,12 -164,12 -76,0 -164,-11 -264,-34 -100,-23 -194,-65 -284,-126 -89,-61 -165,-145 -227,-253 -62,-108 -93,-246 -93,-414 0,-168 29,-309 88,-424 60,-114 135,-208 228,-282 93,-72 195,-125 309,-157 113,-32 224,-48 334,-48l772 0 0 1361c0,69 9,117 28,142 18,25 60,38 127,38l109 0c24,0 46,2 68,7 21,6 40,16 57,32 18,17 30,41 39,75 9,33 13,78 13,137 0,103 -14,175 -43,213 -29,40 -73,59 -134,59l-151 0zm151 0c-23,0 -46,-2 -67,-6 -22,-5 -41,-16 -59,-32 -16,-18 -29,-43 -38,-76 -9,-33 -13,-79 -13,-136 0,-104 14,-175 43,-215 29,-39 74,-58 134,-58l673 0c23,0 46,2 67,7 21,6 41,16 58,32 17,17 30,41 39,75 9,33 13,78 13,137 0,103 -14,175 -43,213 -29,40 -74,59 -134,59l-673 0zm673 0c-24,0 -46,-2 -68,-6 -22,-5 -41,-16 -58,-35 -17,-18 -29,-44 -39,-78 -9,-33 -12,-78 -12,-136 0,-104 14,-175 43,-214 29,-39 73,-59 134,-59l719 0 0 -1281 594 0 0 1809 -1313 0zm51 764c0,-87 31,-163 95,-227 64,-63 139,-95 226,-95 88,0 163,32 227,95 64,64 95,140 95,227 0,87 -31,163 -95,226 -64,64 -139,96 -227,96 -87,0 -162,-32 -226,-96 -64,-63 -95,-139 -95,-226zm739 0c0,-87 32,-163 95,-227 64,-63 140,-95 229,-95 87,0 163,32 227,95 63,64 95,140 95,227 0,87 -32,163 -95,226 -64,64 -140,96 -227,96 -87,0 -164,-32 -228,-96 -64,-63 -96,-139 -96,-226zm2135 -1036c0,103 -15,175 -44,213 -28,40 -73,59 -134,59l-191 0c-103,0 -198,-11 -284,-34 -85,-23 -160,-61 -222,-113 -62,-53 -110,-123 -145,-211 -35,-88 -52,-197 -52,-327l0 -2559 591 0 0 2476c0,107 18,174 56,202 37,29 91,43 161,43l86 0c24,0 47,2 68,7 22,6 41,16 58,32 17,17 30,41 39,75 9,33 13,78 13,137zm-182 272c-24,0 -47,-2 -68,-6 -22,-5 -41,-16 -58,-32 -17,-18 -30,-43 -39,-76 -9,-33 -13,-79 -13,-136 0,-104 15,-175 44,-215 28,-39 73,-58 134,-58l672 0c24,0 47,2 68,7 21,6 41,16 57,32 18,17 31,41 40,75 8,33 13,78 13,137 0,103 -15,175 -44,213 -28,40 -73,59 -134,59l-672 0zm672 0c-23,0 -46,-2 -67,-6 -22,-5 -41,-16 -58,-35 -17,-18 -30,-44 -39,-78 -9,-33 -13,-78 -13,-136 0,-104 15,-175 43,-214 29,-39 74,-59 134,-59l719 0 0 -1281 595 0 0 1809 -1314 0zm451 1423c0,-87 32,-163 96,-227 63,-63 138,-95 226,-95 87,0 163,32 227,95 65,64 96,140 96,227 0,87 -31,163 -95,226 -64,64 -139,96 -228,96 -88,0 -163,-32 -226,-96 -64,-63 -96,-139 -96,-226zm-373 -659c0,-87 32,-163 96,-227 63,-63 138,-95 226,-95 87,0 163,32 228,95 64,64 96,140 96,227 0,87 -32,163 -96,226 -63,64 -139,96 -228,96 -88,0 -163,-32 -226,-96 -64,-63 -96,-139 -96,-226zm741 0c0,-87 32,-163 96,-227 63,-63 139,-95 226,-95 87,0 163,32 227,95 63,64 95,140 95,227 0,87 -32,163 -95,226 -64,64 -140,96 -227,96 -87,0 -163,-32 -226,-96 -64,-63 -96,-139 -96,-226zm2033 -1945c0,38 5,76 13,116 9,40 26,76 50,108 24,32 57,58 98,79 41,22 93,33 157,33 39,0 80,-2 120,-5 41,-3 83,-12 126,-26l0 -628 -227 0c-112,0 -197,29 -253,89 -56,59 -84,137 -84,234zm1268 1181c-73,0 -144,-5 -212,-16 -68,-9 -131,-28 -188,-56 -58,-27 -109,-65 -152,-112 -44,-47 -78,-109 -101,-184 -52,12 -105,21 -160,30 -55,8 -109,12 -164,12 -76,0 -163,-11 -263,-34 -100,-23 -195,-65 -284,-126 -90,-61 -166,-145 -228,-253 -62,-108 -93,-246 -93,-414 0,-168 30,-309 89,-424 59,-114 135,-208 227,-282 93,-72 195,-125 309,-157 113,-32 224,-48 334,-48l772 0 0 1361c0,69 9,117 28,142 18,25 61,38 127,38l109 0c24,0 47,2 68,7 21,6 41,16 57,32 18,17 31,41 40,75 8,33 13,78 13,137 0,103 -15,175 -44,213 -28,40 -73,59 -134,59l-150 0zm1777 -523c-9,-122 -28,-233 -59,-334 -30,-102 -75,-189 -136,-261 -61,-72 -140,-129 -239,-170 -98,-40 -220,-61 -365,-61 -49,0 -125,7 -228,20 -102,14 -208,36 -318,67l0 -528c70,-25 165,-50 287,-77 121,-27 243,-42 368,-42 228,0 421,38 580,112 159,74 289,174 388,301 100,128 174,276 220,444 47,169 73,345 79,529l295 0c24,0 47,2 68,7 22,6 41,16 57,32 18,17 31,41 40,75 8,33 13,78 13,137 0,103 -15,175 -44,213 -28,40 -73,59 -134,59l-2499 0c-23,0 -46,-2 -67,-6 -22,-5 -41,-16 -58,-32 -17,-18 -30,-43 -39,-76 -9,-33 -13,-79 -13,-136 0,-104 14,-175 43,-215 29,-39 74,-58 134,-58l1627 0zm-1073 -2071c0,-87 32,-163 96,-227 63,-65 140,-97 228,-97 87,0 163,32 227,95 63,64 95,140 95,229 0,87 -32,163 -95,226 -64,64 -140,96 -227,96 -87,0 -163,-32 -227,-96 -64,-63 -97,-139 -97,-226zm2105 2071c67,0 122,-2 165,-5 44,-3 80,-12 107,-26 27,-15 47,-37 58,-66 13,-29 19,-69 19,-121l0 -868 587 0 0 773c0,97 27,174 79,230 53,55 134,83 243,83 91,0 167,-14 229,-40 62,-27 93,-86 93,-178l0 -868 588 0 0 773c0,106 24,185 71,236 46,51 124,77 234,77 84,0 152,-14 203,-43 52,-28 79,-90 79,-188l0 -1055 585 0 0 973c0,112 23,192 67,240 46,49 144,73 293,73 23,0 46,2 67,7 21,6 40,16 57,32 16,17 29,41 39,75 10,33 14,78 14,137 0,103 -14,175 -43,213 -29,40 -74,59 -134,59 -87,0 -174,-16 -259,-47 -85,-32 -155,-97 -209,-194 -43,57 -88,102 -135,134 -46,32 -94,56 -143,73 -49,17 -97,27 -146,30 -47,3 -94,4 -141,4 -54,0 -112,-4 -172,-13 -61,-9 -121,-22 -180,-41 -59,-18 -112,-43 -159,-73 -46,-31 -84,-67 -112,-108 -93,104 -187,169 -283,195 -95,27 -200,40 -312,40 -297,0 -511,-78 -641,-235 -81,107 -187,172 -318,197 -129,25 -296,38 -499,38l-151 0c-23,0 -46,-2 -67,-6 -22,-5 -41,-16 -58,-32 -17,-18 -30,-43 -39,-76 -9,-33 -13,-79 -13,-136 0,-104 14,-175 43,-215 29,-39 74,-58 134,-58l160 0zm4179 -2071c0,-87 31,-163 95,-227 64,-65 140,-97 229,-97 87,0 163,32 226,95 64,64 96,140 96,229 0,87 -32,163 -96,226 -63,64 -139,96 -226,96 -87,0 -163,-32 -227,-96 -65,-63 -97,-139 -97,-226zm42 2071l0 -1286 595 0 0 1809 -1118 0c-24,0 -47,-2 -68,-6 -22,-5 -41,-16 -58,-32 -17,-18 -30,-43 -39,-76 -9,-33 -13,-79 -13,-136 0,-104 15,-175 43,-215 29,-39 74,-58 135,-58l523 0z"/>
   <g>
    <path class="fil1" d="M8966 0c-4952,0 -8966,4014 -8966,8966 0,4951 4014,8965 8966,8965 4951,0 8965,-4014 8965,-8965 0,-4952 -4014,-8966 -8965,-8966z"/>
    <path class="fil2" d="M9136 3645l0 1436c-57,-3 -116,-4 -174,-4 -56,0 -111,1 -167,3l0 -1435c-295,-74 -506,-335 -506,-656 0,-376 301,-677 677,-677 376,0 676,301 676,677 0,321 -211,582 -506,656zm-170 3488c620,0 1013,391 1154,972 692,-129 1291,264 1291,984 0,567 -462,1026 -1029,1026l-2833 0c-567,0 -1029,-459 -1029,-1026 0,-720 599,-1113 1291,-984 141,-581 534,-972 1155,-972zm-4 5030c884,0 1685,-358 2264,-937 579,-580 938,-1380 938,-2264 0,-884 -359,-1684 -938,-2264 -579,-579 -1380,-937 -2264,-937 -884,0 -1684,358 -2263,937 -580,580 -938,1380 -938,2264 0,884 358,1684 938,2264 579,579 1379,937 2263,937zm0 341c1957,0 3543,-1586 3543,-3542 0,-1956 -1586,-3542 -3543,-3542 -1956,0 -3542,1586 -3542,3542 0,1956 1586,3542 3542,3542zm3447 -1745l1248 721c211,-220 544,-273 823,-112 326,188 436,599 248,924 -188,326 -599,436 -925,248 -277,-160 -398,-473 -316,-764l-1250 -722c62,-96 119,-195 172,-295zm-6725 289l-1243 718c87,294 -33,612 -313,774 -326,188 -736,78 -924,-248 -189,-325 -79,-736 247,-924 276,-159 605,-109 816,105l1246 -720c53,101 110,199 171,295zm-2177 1069c-93,-160 -38,-355 119,-446 165,-95 353,-42 447,119 93,162 45,352 -120,447 -157,90 -354,40 -446,-120zm10917 0c-92,160 -289,210 -446,120 -165,-95 -213,-285 -119,-447 93,-161 281,-214 446,-119 157,91 212,286 119,446zm-5458 -9455c184,0 326,145 326,327 0,190 -140,327 -326,327 -187,0 -327,-137 -327,-327 0,-182 142,-327 327,-327z"/>
   </g>
  </g>
 </g>
</svg>
