<?xml version="1.0" encoding="UTF-8"?>
<!DOCTYPE svg PUBLIC "-//W3C//DTD SVG 1.1//EN" "http://www.w3.org/Graphics/SVG/1.1/DTD/svg11.dtd">
<!-- Creator: CorelDRAW X7 -->
<svg xmlns="http://www.w3.org/2000/svg" xml:space="preserve" width="0.415512in" height="0.415512in" version="1.1" style="shape-rendering:geometricPrecision; text-rendering:geometricPrecision; image-rendering:optimizeQuality; fill-rule:evenodd; clip-rule:evenodd"
viewBox="0 0 4155 4155"
 xmlns:xlink="http://www.w3.org/1999/xlink">
 <defs>
  <style type="text/css">
   <![CDATA[
    .fil1 {fill:#DBBD89}
    .fil0 {fill:#FAF6F0}
   ]]>
  </style>
 </defs>
 <g id="Layer_x0020_1">
  <metadata id="CorelCorpID_0Corel-Layer"/>
  <g id="_2622977159616">
   <path class="fil0" d="M3865 504l0 3147c0,119 -95,214 -214,214l-3147 0c-119,0 -214,-95 -214,-214l0 -3147c0,-119 95,-214 214,-214l3147 0c119,0 214,95 214,214z"/>
   <path class="fil1" d="M656 0l2843 0c361,0 656,295 656,656l0 2843c0,361 -295,656 -656,656l-2843 0c-361,0 -656,-295 -656,-656l0 -2843c0,-361 295,-656 656,-656zm2843 462l-2843 0c-54,0 -103,21 -137,56 -37,37 -57,85 -57,138l0 2843c0,54 21,103 56,137 37,37 85,57 138,57l2843 0c54,0 103,-21 137,-55 37,-38 57,-86 57,-139l0 -2843c0,-54 -21,-103 -55,-137 -38,-37 -86,-57 -139,-57z"/>
  </g>
 </g>
</svg>
