<?xml version="1.0" encoding="UTF-8"?>
<!DOCTYPE svg PUBLIC "-//W3C//DTD SVG 1.1//EN" "http://www.w3.org/Graphics/SVG/1.1/DTD/svg11.dtd">
<!-- Creator: CorelDRAW X7 -->
<svg xmlns="http://www.w3.org/2000/svg" xml:space="preserve" width="1.82795in" height="2.36693in" version="1.1" style="shape-rendering:geometricPrecision; text-rendering:geometricPrecision; image-rendering:optimizeQuality; fill-rule:evenodd; clip-rule:evenodd"
viewBox="0 0 18280 23669"
 xmlns:xlink="http://www.w3.org/1999/xlink">
 <defs>
  <style type="text/css">
   <![CDATA[
    .fil1 {fill:#D2AE6D}
    .fil2 {fill:white}
    .fil0 {fill:black;fill-rule:nonzero}
   ]]>
  </style>
 </defs>
 <g id="Layer_x0020_1">
  <metadata id="CorelCorpID_0Corel-Layer"/>
  <g id="_2622973061744">
   <path class="fil0" d="M627 20490c0,40 5,82 14,126 10,42 28,82 55,117 26,34 61,63 106,86 44,24 101,35 170,35 43,0 88,-1 131,-5 45,-3 90,-13 137,-28l0 -683 -246 0c-122,0 -214,32 -275,96 -61,65 -92,149 -92,256zm1378 1283c-79,0 -156,-6 -230,-17 -74,-11 -142,-31 -205,-61 -63,-30 -118,-71 -165,-122 -47,-52 -84,-118 -110,-200 -56,12 -114,23 -174,32 -59,9 -118,13 -178,13 -82,0 -177,-12 -286,-37 -109,-24 -212,-70 -309,-136 -97,-66 -179,-158 -247,-275 -67,-117 -101,-268 -101,-451 0,-182 32,-335 96,-460 64,-124 147,-226 247,-306 101,-79 213,-137 336,-171 123,-35 244,-52 363,-52l839 0 0 1478c0,76 10,128 31,155 19,27 65,41 138,41l119 0c25,0 50,3 73,9 23,5 44,17 62,34 19,18 33,45 43,81 9,36 14,85 14,149 0,112 -15,190 -47,232 -31,43 -80,64 -145,64l-164 0zm164 0c-26,0 -51,-2 -74,-7 -24,-5 -44,-17 -63,-35 -18,-19 -32,-46 -42,-82 -10,-36 -14,-86 -14,-148 0,-113 15,-190 47,-233 31,-43 80,-64 146,-64l731 0c25,0 50,3 73,9 23,5 44,17 62,34 19,18 33,45 43,81 9,36 14,85 14,149 0,112 -15,190 -47,232 -31,43 -80,64 -145,64l-731 0zm731 0c-26,0 -51,-2 -74,-7 -24,-5 -44,-17 -63,-37 -18,-21 -32,-49 -42,-85 -10,-36 -14,-86 -14,-148 0,-113 16,-190 47,-233 31,-42 80,-64 146,-64l781 0 0 -1392 646 0 0 1966 -1427 0zm55 830c0,-95 34,-177 104,-246 69,-69 151,-104 246,-104 94,0 177,35 246,104 69,69 104,151 104,246 0,95 -35,177 -104,246 -69,69 -152,104 -246,104 -95,0 -177,-35 -246,-104 -70,-69 -104,-151 -104,-246zm803 0c0,-95 35,-177 104,-246 69,-69 152,-104 249,-104 94,0 177,35 246,104 69,69 104,151 104,246 0,95 -35,177 -104,246 -69,69 -152,104 -246,104 -95,0 -178,-35 -248,-104 -70,-69 -105,-151 -105,-246zm2320 -1126c0,112 -15,190 -47,232 -31,43 -79,64 -145,64l-208 0c-113,0 -215,-12 -309,-37 -93,-25 -173,-67 -241,-123 -67,-57 -120,-134 -158,-229 -38,-96 -57,-214 -57,-356l0 -2781 643 0 0 2691c0,116 20,190 60,220 42,31 100,46 176,46l94 0c25,0 50,3 73,9 24,5 44,17 63,34 19,18 32,45 42,81 10,36 14,85 14,149zm-197 296c-26,0 -50,-2 -73,-7 -24,-5 -45,-17 -64,-35 -18,-19 -32,-46 -42,-82 -10,-36 -14,-86 -14,-148 0,-113 16,-190 47,-233 31,-43 80,-64 146,-64l731 0c25,0 50,3 73,9 23,5 45,17 63,34 19,18 33,45 43,81 9,36 14,85 14,149 0,112 -16,190 -47,232 -32,43 -80,64 -146,64l-731 0zm731 0c-26,0 -50,-2 -73,-7 -24,-5 -45,-17 -64,-37 -18,-21 -32,-49 -42,-85 -10,-36 -14,-86 -14,-148 0,-113 16,-190 47,-233 31,-42 80,-64 146,-64l781 0 0 -1392 646 0 0 1966 -1427 0zm490 1546c0,-94 34,-177 103,-246 70,-69 151,-104 247,-104 94,0 177,35 247,104 70,69 104,152 104,246 0,95 -34,177 -104,247 -69,69 -151,103 -247,103 -96,0 -177,-34 -247,-103 -69,-70 -103,-152 -103,-247zm-405 -716c0,-95 34,-177 103,-246 69,-69 151,-104 246,-104 95,0 178,35 248,104 70,69 104,151 104,246 0,95 -34,177 -104,246 -69,69 -151,104 -248,104 -95,0 -177,-35 -246,-104 -69,-69 -103,-151 -103,-246zm805 0c0,-95 34,-177 104,-246 69,-69 151,-104 246,-104 94,0 177,35 246,104 69,69 104,151 104,246 0,95 -35,177 -104,246 -69,69 -152,104 -246,104 -95,0 -177,-35 -246,-104 -70,-69 -104,-151 -104,-246zm2209 -2113c0,40 5,82 14,126 10,42 28,82 55,117 26,34 62,63 106,86 44,24 101,35 170,35 43,0 88,-1 131,-5 45,-3 90,-13 137,-28l0 -683 -246 0c-122,0 -214,32 -275,96 -61,65 -92,149 -92,256zm1378 1283c-79,0 -156,-6 -230,-17 -74,-11 -142,-31 -205,-61 -62,-30 -118,-71 -165,-122 -47,-52 -84,-118 -110,-200 -56,12 -113,23 -174,32 -59,9 -118,13 -177,13 -83,0 -178,-12 -287,-37 -109,-24 -211,-70 -309,-136 -97,-66 -179,-158 -247,-275 -67,-117 -101,-268 -101,-451 0,-182 32,-335 96,-460 65,-124 147,-226 247,-306 102,-79 213,-137 336,-171 123,-35 244,-52 363,-52l839 0 0 1478c0,76 10,128 31,155 20,27 66,41 138,41l119 0c25,0 50,3 73,9 23,5 44,17 63,34 18,18 32,45 42,81 9,36 14,85 14,149 0,112 -15,190 -47,232 -31,43 -79,64 -145,64l-164 0zm465 -569c113,0 191,-17 236,-52 44,-34 65,-112 65,-233l0 -1112 643 0 0 1057c0,122 23,209 68,261 46,53 148,79 308,79 25,0 50,3 73,9 23,5 44,17 62,34 17,18 31,45 42,81 10,36 15,85 15,149 0,112 -15,190 -46,232 -32,43 -80,64 -146,64 -95,0 -187,-15 -277,-47 -89,-31 -163,-99 -223,-204 -40,57 -88,101 -143,135 -55,34 -115,59 -177,77 -64,16 -129,27 -196,32 -68,5 -134,7 -200,7l-405 0c-26,0 -51,-2 -74,-7 -23,-5 -44,-17 -63,-35 -18,-19 -32,-46 -42,-82 -10,-36 -14,-86 -14,-148 0,-113 16,-190 47,-233 31,-43 80,-64 146,-64l301 0zm-174 -2251c0,-94 35,-177 104,-247 69,-70 152,-105 249,-105 94,0 177,35 246,104 69,69 104,152 104,248 0,95 -35,177 -104,247 -69,69 -152,103 -246,103 -95,0 -177,-34 -247,-103 -70,-70 -106,-152 -106,-247zm806 0c0,-94 35,-177 104,-247 69,-70 151,-105 246,-105 95,0 177,35 247,104 70,69 105,152 105,248 0,95 -35,177 -104,247 -69,69 -151,103 -248,103 -95,0 -177,-34 -246,-103 -69,-70 -104,-152 -104,-247zm859 2251c73,0 133,-1 180,-5 47,-3 86,-13 116,-28 29,-17 51,-41 63,-72 13,-31 20,-75 20,-132l0 -943 639 0 0 840c0,106 28,189 85,250 58,60 146,90 265,90 98,0 181,-15 248,-43 68,-29 101,-93 101,-194l0 -943 639 0 0 840c0,116 26,201 77,257 50,55 135,83 254,83 92,0 166,-15 222,-46 56,-30 85,-99 85,-205l0 -1146 636 0 0 1057c0,122 25,209 73,261 50,53 156,79 318,79 26,0 50,3 73,9 23,5 44,17 62,34 17,18 31,45 42,81 11,36 16,85 16,149 0,112 -16,190 -47,232 -31,43 -80,64 -146,64 -95,0 -188,-17 -282,-52 -92,-34 -167,-104 -227,-210 -47,62 -95,111 -146,145 -51,35 -102,61 -156,80 -53,18 -105,29 -158,32 -52,4 -103,5 -153,5 -59,0 -122,-5 -188,-15 -66,-9 -131,-24 -195,-44 -64,-20 -122,-46 -173,-79 -50,-34 -91,-73 -122,-118 -101,113 -203,184 -307,213 -103,28 -217,43 -339,43 -324,0 -556,-85 -697,-256 -88,116 -204,188 -345,215 -141,27 -322,41 -543,41l-164 0c-25,0 -50,-2 -73,-7 -24,-5 -44,-17 -63,-35 -18,-19 -32,-46 -42,-82 -10,-36 -14,-86 -14,-148 0,-113 15,-190 47,-233 31,-43 79,-64 145,-64l174 0zm4587 0l0 -1397 648 0 0 1966 -1216 0c-26,0 -51,-2 -74,-7 -24,-5 -44,-17 -63,-35 -18,-19 -32,-46 -42,-82 -10,-36 -14,-86 -14,-148 0,-113 16,-190 47,-233 31,-43 80,-64 146,-64l568 0zm-80 1384c0,-94 34,-177 104,-246 69,-69 151,-104 248,-104 95,0 176,35 246,104 69,69 103,152 103,246 0,95 -34,177 -103,246 -70,70 -151,104 -246,104 -95,0 -178,-34 -248,-104 -70,-69 -104,-151 -104,-246z"/>
   <g>
    <path class="fil1" d="M9140 0c3805,0 6890,3085 6890,6890 0,3805 -3085,6890 -6890,6890 -3805,0 -6890,-3085 -6890,-6890 0,-3805 3085,-6890 6890,-6890z"/>
    <path class="fil2" d="M10440 8840l0 1300 -5200 0 0 -1300 5200 0zm-5200 -3900l0 -1300c2600,0 5200,0 7800,0l-1300 1300c-2167,0 -4334,0 -6500,0zm7800 1300c0,1300 0,2600 0,3900l-1300 0 0 -2600 -6500 0 0 -1300c2600,0 5200,0 7800,0z"/>
   </g>
  </g>
 </g>
</svg>
