<?xml version="1.0" encoding="UTF-8"?>
<!DOCTYPE svg PUBLIC "-//W3C//DTD SVG 1.1//EN" "http://www.w3.org/Graphics/SVG/1.1/DTD/svg11.dtd">
<!-- Creator: CorelDRAW X7 -->
<svg xmlns="http://www.w3.org/2000/svg" xml:space="preserve" width="21.3335in" height="4.3761in" version="1.1" style="shape-rendering:geometricPrecision; text-rendering:geometricPrecision; image-rendering:optimizeQuality; fill-rule:evenodd; clip-rule:evenodd"
viewBox="0 0 213335 43761"
 xmlns:xlink="http://www.w3.org/1999/xlink">
 <defs>
  <style type="text/css">
   <![CDATA[
    .fil7 {fill:#DABA76}
    .fil4 {fill:#C8AD78}
    .fil6 {fill:white}
    .fil0 {fill:white}
    .fil3 {fill:#DABA76;fill-rule:nonzero}
    .fil1 {fill:#F4F4F4;fill-rule:nonzero}
    .fil5 {fill:white;fill-rule:nonzero}
    .fil2 {fill:white;fill-rule:nonzero}
   ]]>
  </style>
 </defs>
 <g id="Layer_x0020_1">
  <metadata id="CorelCorpID_0Corel-Layer"/>
  <g id="_2622979447296">
   <polygon class="fil0" points="0,0 213335,0 213335,43761 0,43761 "/>
   <g>
    <polygon class="fil0" points="51237,0 2092,0 2092,43761 51237,43761 "/>
    <polygon class="fil1" points="51237,43761 113077,43761 113077,0 51237,0 "/>
    <polygon class="fil2" points="174917,43761 113077,43761 113077,0 174917,0 "/>
    <g>
     <polygon class="fil3" points="174917,0 213335,0 213335,43761 174917,43761 174917,25226 171571,21881 174917,18535 "/>
     <polygon class="fil4" points="213013,21880 171571,21880 174917,25226 174917,43761 213013,43761 213335,43761 213335,21880 "/>
     <g>
      <path class="fil5" d="M185784 34634c0,37 5,76 13,116 9,39 26,76 50,107 24,32 57,59 98,80 41,22 93,32 157,32 39,0 80,-1 120,-4 41,-3 83,-12 126,-27l0 -628 -227 0c-112,0 -197,30 -253,89 -56,59 -84,137 -84,235zm1268 1181c-73,0 -143,-5 -212,-16 -68,-10 -131,-29 -188,-56 -58,-27 -109,-65 -152,-112 -44,-48 -78,-109 -101,-184 -52,11 -105,21 -160,29 -55,9 -109,12 -164,12 -76,0 -163,-11 -263,-34 -100,-22 -195,-65 -284,-125 -90,-61 -166,-145 -228,-253 -62,-108 -93,-247 -93,-415 0,-167 30,-308 89,-423 59,-115 135,-209 227,-282 93,-73 195,-126 309,-158 113,-31 224,-47 334,-47l772 0 0 1360c0,70 9,118 28,143 18,25 61,37 127,37l109 0c24,0 47,3 68,8 21,5 41,16 57,32 18,16 31,41 40,74 8,33 13,79 13,137 0,103 -15,175 -44,214 -28,39 -73,59 -134,59l-150 0zm150 0c-23,0 -46,-2 -67,-7 -22,-5 -41,-15 -58,-32 -17,-17 -30,-42 -39,-76 -9,-33 -13,-78 -13,-136 0,-104 15,-175 43,-214 29,-40 74,-59 134,-59l673 0c24,0 46,3 67,8 22,5 41,16 58,32 17,16 30,41 39,74 9,33 13,79 13,137 0,103 -14,175 -43,214 -29,39 -73,59 -134,59l-673 0zm673 0c-23,0 -46,-2 -67,-7 -22,-5 -41,-16 -59,-34 -16,-19 -29,-45 -38,-78 -9,-33 -13,-79 -13,-136 0,-104 14,-175 43,-215 29,-38 73,-58 134,-58l719 0 0 -1281 595 0 0 1809 -1314 0zm51 763c0,-87 32,-162 95,-226 64,-64 140,-96 227,-96 87,0 163,32 226,96 64,64 96,139 96,226 0,88 -32,163 -96,227 -63,64 -139,95 -226,95 -87,0 -163,-31 -227,-95 -63,-64 -95,-139 -95,-227zm739 0c0,-87 32,-162 96,-226 63,-64 140,-96 228,-96 87,0 163,32 227,96 63,64 95,139 95,226 0,88 -32,163 -95,227 -64,64 -140,95 -227,95 -87,0 -163,-31 -228,-95 -64,-64 -96,-139 -96,-227zm2135 -1036c0,103 -15,175 -43,214 -29,39 -74,59 -134,59l-191 0c-104,0 -199,-12 -284,-34 -86,-24 -160,-62 -222,-114 -62,-52 -111,-123 -146,-210 -35,-88 -52,-197 -52,-328l0 -2559 591 0 0 2477c0,107 19,174 56,202 38,28 91,42 161,42l87 0c23,0 46,3 67,8 22,5 41,16 58,32 17,16 30,41 39,74 9,33 13,79 13,137zm-182 273c-23,0 -46,-2 -67,-7 -22,-5 -41,-15 -59,-32 -16,-17 -29,-42 -38,-76 -9,-33 -13,-78 -13,-136 0,-104 14,-175 43,-214 29,-40 73,-59 134,-59l673 0c23,0 46,3 67,8 21,5 41,16 58,32 17,16 30,41 39,74 8,33 13,79 13,137 0,103 -14,175 -43,214 -29,39 -74,59 -134,59l-673 0zm673 0c-24,0 -47,-2 -68,-7 -22,-5 -41,-16 -58,-34 -17,-19 -30,-45 -39,-78 -9,-33 -13,-79 -13,-136 0,-104 15,-175 44,-215 28,-38 73,-58 134,-58l719 0 0 -1281 594 0 0 1809 -1313 0zm450 1422c0,-87 32,-162 96,-226 63,-64 138,-95 226,-95 87,0 163,31 228,95 64,64 96,139 96,226 0,88 -32,163 -96,227 -63,64 -139,95 -228,95 -88,0 -163,-31 -226,-95 -64,-64 -96,-139 -96,-227zm-372 -659c0,-87 32,-162 95,-226 63,-64 139,-96 226,-96 88,0 164,32 228,96 64,64 96,139 96,226 0,88 -32,163 -95,227 -64,64 -140,95 -229,95 -87,0 -163,-31 -226,-95 -63,-64 -95,-139 -95,-227zm741 0c0,-87 31,-162 95,-226 64,-64 139,-96 226,-96 88,0 163,32 227,96 64,64 95,139 95,226 0,88 -31,163 -95,227 -64,64 -139,95 -227,95 -87,0 -162,-31 -226,-95 -64,-64 -95,-139 -95,-227zm2033 -1944c0,37 4,76 12,116 10,39 26,76 50,107 25,32 57,59 98,80 41,22 93,32 157,32 39,0 80,-1 120,-4 41,-3 83,-12 126,-27l0 -628 -226 0c-112,0 -197,30 -253,89 -56,59 -84,137 -84,235zm1267 1181c-73,0 -143,-5 -211,-16 -69,-10 -132,-29 -189,-56 -58,-27 -108,-65 -152,-112 -44,-48 -78,-109 -101,-184 -52,11 -105,21 -160,29 -54,9 -109,12 -164,12 -75,0 -163,-11 -263,-34 -100,-22 -195,-65 -284,-125 -90,-61 -165,-145 -227,-253 -63,-108 -94,-247 -94,-415 0,-167 30,-308 89,-423 59,-115 135,-209 227,-282 93,-73 196,-126 309,-158 113,-31 225,-47 334,-47l772 0 0 1360c0,70 9,118 28,143 18,25 61,37 128,37l109 0c23,0 46,3 67,8 21,5 41,16 58,32 17,16 30,41 39,74 8,33 13,79 13,137 0,103 -14,175 -43,214 -29,39 -74,59 -134,59l-151 0zm1777 -524c-8,-122 -28,-233 -58,-334 -31,-101 -76,-188 -137,-261 -60,-72 -140,-129 -238,-170 -99,-40 -221,-60 -365,-60 -50,0 -125,7 -228,19 -103,14 -209,36 -319,67l0 -528c70,-24 166,-49 287,-76 121,-28 244,-42 368,-42 228,0 421,37 580,111 159,74 289,174 389,302 100,127 173,275 219,444 47,169 73,344 79,528l296 0c23,0 46,3 67,8 22,5 41,16 58,32 17,16 30,41 39,74 8,33 13,79 13,137 0,103 -14,175 -43,214 -29,39 -74,59 -134,59l-2499 0c-24,0 -47,-2 -68,-7 -22,-5 -41,-15 -58,-32 -17,-17 -30,-42 -39,-76 -9,-33 -13,-78 -13,-136 0,-104 15,-175 44,-214 28,-40 73,-59 134,-59l1626 0zm-1073 -2071c0,-87 32,-162 96,-227 63,-64 140,-97 229,-97 87,0 162,32 226,96 64,63 96,140 96,228 0,87 -32,163 -96,227 -64,64 -139,95 -226,95 -88,0 -163,-31 -228,-95 -64,-64 -97,-140 -97,-227zm2105 2071c67,0 122,-1 166,-4 44,-3 79,-12 106,-27 28,-15 47,-37 59,-66 12,-28 18,-68 18,-121l0 -867 588 0 0 773c0,97 26,173 79,229 53,55 134,83 243,83 90,0 166,-13 228,-40 63,-26 94,-85 94,-178l0 -867 587 0 0 773c0,106 24,184 71,236 46,51 124,76 234,76 84,0 152,-14 204,-42 51,-28 78,-91 78,-189l0 -1054 585 0 0 973c0,112 23,192 68,240 45,48 143,72 292,72 24,0 46,3 68,8 21,5 40,16 56,32 16,16 29,41 39,74 10,33 14,79 14,137 0,103 -14,175 -43,214 -29,39 -73,59 -134,59 -87,0 -173,-16 -259,-48 -85,-32 -154,-96 -209,-194 -43,58 -88,102 -135,134 -46,32 -94,56 -143,74 -48,16 -97,26 -145,29 -48,3 -95,5 -141,5 -55,0 -112,-5 -173,-14 -61,-8 -120,-22 -180,-41 -59,-18 -112,-42 -159,-72 -46,-31 -84,-67 -112,-109 -93,104 -187,169 -282,196 -96,26 -200,40 -312,40 -298,0 -512,-79 -642,-236 -81,107 -187,173 -317,198 -130,25 -297,38 -500,38l-150 0c-24,0 -47,-2 -68,-7 -22,-5 -41,-15 -58,-32 -17,-17 -30,-42 -39,-76 -9,-33 -13,-78 -13,-136 0,-104 15,-175 44,-214 28,-40 73,-59 134,-59l159 0zm4179 -2071c0,-87 32,-162 95,-227 64,-64 140,-97 229,-97 87,0 163,32 227,96 63,63 95,140 95,228 0,87 -32,163 -95,227 -64,64 -140,95 -227,95 -87,0 -163,-31 -227,-95 -65,-64 -97,-140 -97,-227zm42 2071l0 -1285 596 0 0 1809 -1119 0c-24,0 -46,-2 -68,-7 -22,-5 -40,-15 -58,-32 -17,-17 -29,-42 -39,-76 -9,-33 -12,-78 -12,-136 0,-104 14,-175 43,-214 29,-40 73,-59 134,-59l523 0z"/>
      <g>
       <path class="fil6" d="M194126 9895c-4952,0 -8966,4014 -8966,8965 0,4952 4014,8966 8966,8966 4951,0 8965,-4014 8965,-8966 0,-4951 -4014,-8965 -8965,-8965z"/>
       <path class="fil7" d="M194296 13539l0 1436c-57,-2 -115,-4 -173,-4 -57,0 -112,2 -168,4l0 -1436c-294,-73 -506,-335 -506,-656 0,-376 301,-676 677,-676 376,0 677,300 677,676 0,321 -212,583 -507,656zm-170 3489c621,0 1014,390 1155,972 692,-129 1290,263 1290,983 0,568 -462,1027 -1029,1027l-2833 0c-567,0 -1028,-459 -1028,-1027 0,-720 598,-1112 1290,-983 141,-582 534,-972 1155,-972zm-3 5030c884,0 1684,-359 2263,-938 580,-579 938,-1380 938,-2264 0,-884 -358,-1684 -938,-2263 -579,-579 -1379,-938 -2263,-938 -884,0 -1685,359 -2264,938 -579,579 -938,1379 -938,2263 0,884 359,1685 938,2264 579,579 1380,938 2264,938zm0 341c1956,0 3542,-1586 3542,-3543 0,-1956 -1586,-3542 -3542,-3542 -1957,0 -3543,1586 -3543,3542 0,1957 1586,3543 3543,3543zm3446 -1746l1248 721c211,-220 545,-273 823,-112 326,189 436,599 248,925 -188,326 -599,435 -925,247 -277,-160 -398,-473 -315,-764l-1250 -722c61,-96 118,-194 171,-295zm-6725 290l-1243 718c88,294 -32,612 -313,773 -326,188 -736,78 -924,-247 -188,-326 -78,-736 247,-925 276,-159 605,-109 816,105l1247 -719c52,101 109,199 170,295zm-2177 1069c-92,-160 -38,-356 120,-446 164,-96 353,-43 446,119 93,162 45,351 -120,446 -157,91 -354,41 -446,-119zm10918 0c-93,160 -289,210 -447,119 -165,-95 -212,-284 -119,-446 93,-162 281,-215 446,-119 157,90 212,286 120,446zm-5459 -9455c185,0 326,145 326,326 0,191 -139,327 -326,327 -187,0 -327,-136 -327,-327 0,-181 142,-326 327,-326z"/>
      </g>
     </g>
    </g>
    <polygon class="fil7" points="0,0 2092,0 2092,43761 0,43761 "/>
   </g>
  </g>
 </g>
</svg>
