<?xml version="1.0" encoding="UTF-8"?>
<!DOCTYPE svg PUBLIC "-//W3C//DTD SVG 1.1//EN" "http://www.w3.org/Graphics/SVG/1.1/DTD/svg11.dtd">
<!-- Creator: CorelDRAW X7 -->
<svg xmlns="http://www.w3.org/2000/svg" xml:space="preserve" width="1.20031in" height="0.415512in" version="1.1" style="shape-rendering:geometricPrecision; text-rendering:geometricPrecision; image-rendering:optimizeQuality; fill-rule:evenodd; clip-rule:evenodd"
viewBox="0 0 12003 4155"
 xmlns:xlink="http://www.w3.org/1999/xlink">
 <defs>
  <style type="text/css">
   <![CDATA[
    .fil1 {fill:#DBBD89}
    .fil2 {fill:#FAF6F0}
    .fil0 {fill:white}
    .fil3 {fill:#BB9B61;fill-rule:nonzero}
   ]]>
  </style>
 </defs>
 <g id="Layer_x0020_1">
  <metadata id="CorelCorpID_0Corel-Layer"/>
  <g id="_2622772250960">
   <g>
    <path class="fil0" d="M2051 557l0 3042c0,115 92,207 207,207l7487 0c116,0 207,-92 207,-207l0 -3042c0,-116 -91,-208 -207,-208l-7487 0c-115,0 -207,92 -207,208z"/>
    <path class="fil1" d="M2502 0l6999 0c361,0 656,295 656,656l0 2843c0,361 -295,656 -656,656l-6999 0c-361,0 -656,-295 -656,-656l0 -2843c0,-361 295,-656 656,-656zm6999 462l-6999 0c-108,0 -193,86 -193,194l0 2843c0,108 85,194 193,194l6999 0c108,0 194,-86 194,-194l0 -2843c0,-108 -86,-194 -194,-194z"/>
   </g>
   <g>
    <g>
     <g>
      <path class="fil2" d="M290 504l0 3147c0,119 95,214 214,214l3147 0c119,0 214,-95 214,-214l0 -3147c0,-119 -95,-214 -214,-214l-3147 0c-119,0 -214,95 -214,214z"/>
      <path class="fil1" d="M3499 0l-2843 0c-361,0 -656,295 -656,656l0 2843c0,361 295,656 656,656l2843 0c361,0 656,-295 656,-656l0 -2843c0,-361 -295,-656 -656,-656zm-2843 462l2843 0c54,0 103,21 137,56 37,37 57,85 57,138l0 2843c0,54 -21,103 -55,137 -38,37 -86,57 -139,57l-2843 0c-54,0 -103,-21 -137,-55 -37,-38 -57,-86 -57,-139l0 -2843c0,-54 21,-103 55,-137 38,-37 86,-57 139,-57z"/>
     </g>
     <polygon class="fil3" points="3136,1868 2078,3014 1019,1868 1308,1603 2078,2436 2847,1603 "/>
    </g>
    <g>
     <g>
      <path class="fil2" d="M11713 504l0 3147c0,119 -95,214 -214,214l-3147 0c-119,0 -214,-95 -214,-214l0 -3147c0,-119 95,-214 214,-214l3147 0c119,0 214,95 214,214z"/>
      <path class="fil1" d="M8504 0l2844 0c360,0 655,295 655,656l0 2843c0,361 -295,656 -655,656l-2844 0c-361,0 -656,-295 -656,-656l0 -2843c0,-361 295,-656 656,-656zm2844 462l-2844 0c-54,0 -102,21 -137,56 -37,37 -57,85 -57,138l0 2843c0,54 21,103 56,137 37,37 85,57 138,57l2844 0c53,0 102,-21 136,-55 37,-38 57,-86 57,-139l0 -2843c0,-54 -21,-103 -55,-137 -38,-37 -85,-57 -138,-57z"/>
     </g>
     <polygon class="fil3" points="8867,1868 9926,3014 10984,1868 10695,1603 9926,2436 9156,1603 "/>
    </g>
   </g>
  </g>
 </g>
</svg>
