<?xml version="1.0" encoding="UTF-8"?>
<!DOCTYPE svg PUBLIC "-//W3C//DTD SVG 1.1//EN" "http://www.w3.org/Graphics/SVG/1.1/DTD/svg11.dtd">
<!-- Creator: CorelDRAW X7 -->
<svg xmlns="http://www.w3.org/2000/svg" xml:space="preserve" width="2.16535in" height="3.48469in" version="1.1" style="shape-rendering:geometricPrecision; text-rendering:geometricPrecision; image-rendering:optimizeQuality; fill-rule:evenodd; clip-rule:evenodd"
viewBox="0 0 21654 34847"
 xmlns:xlink="http://www.w3.org/1999/xlink">
 <defs>
  <style type="text/css">
   <![CDATA[
    .fil2 {fill:#DABA76}
    .fil3 {fill:white}
    .fil1 {fill:#DABA76;fill-rule:nonzero}
    .fil0 {fill:black;fill-rule:nonzero}
   ]]>
  </style>
 </defs>
 <g id="Layer_x0020_1">
  <metadata id="CorelCorpID_0Corel-Layer"/>
  <g id="_2622973053488">
   <path class="fil0" d="M1761 27970c0,40 5,82 14,126 10,43 28,82 54,117 27,34 62,63 107,86 44,24 101,36 170,36 43,0 87,-2 131,-5 44,-4 90,-13 137,-29l0 -683 -247 0c-121,0 -214,33 -275,97 -61,64 -91,149 -91,255zm1377 1284c-79,0 -155,-6 -229,-18 -74,-10 -143,-31 -205,-61 -63,-29 -118,-70 -165,-122 -48,-51 -85,-118 -110,-200 -56,13 -114,23 -174,33 -59,9 -119,13 -178,13 -82,0 -178,-13 -286,-37 -109,-25 -212,-71 -309,-137 -97,-66 -180,-157 -247,-275 -68,-117 -101,-268 -101,-450 0,-182 32,-335 96,-461 64,-124 147,-226 247,-306 101,-79 212,-137 336,-171 123,-35 244,-52 363,-52l839 0 0 1479c0,75 10,127 30,154 20,28 66,42 139,42l118 0c26,0 50,2 74,8 23,6 44,17 62,34 19,19 33,45 43,81 9,36 14,86 14,149 0,112 -16,190 -47,232 -31,43 -80,65 -146,65l-164 0zm164 0c-25,0 -50,-3 -73,-8 -24,-5 -44,-16 -63,-34 -19,-19 -33,-47 -42,-83 -10,-36 -14,-85 -14,-148 0,-113 15,-190 47,-233 31,-43 79,-63 145,-63l731 0c26,0 51,2 74,8 23,6 44,17 62,34 19,19 33,45 43,81 9,36 14,86 14,149 0,112 -16,190 -47,232 -31,43 -80,65 -146,65l-731 0zm731 0c-25,0 -50,-3 -73,-8 -24,-5 -44,-17 -63,-37 -18,-20 -32,-48 -42,-85 -10,-36 -14,-85 -14,-148 0,-113 15,-190 47,-233 31,-42 79,-63 145,-63l782 0 0 -1392 646 0 0 1966 -1428 0zm56 829c0,-94 34,-177 103,-246 69,-69 152,-103 246,-103 95,0 177,34 247,103 69,69 103,152 103,246 0,95 -34,177 -103,247 -70,69 -152,103 -247,103 -94,0 -177,-34 -246,-103 -69,-70 -103,-152 -103,-247zm803 0c0,-94 35,-177 104,-246 69,-69 152,-103 248,-103 95,0 177,34 247,103 69,69 103,152 103,246 0,95 -34,177 -103,247 -70,69 -152,103 -247,103 -94,0 -177,-34 -247,-103 -70,-70 -105,-152 -105,-247zm2320 -1126c0,112 -16,190 -47,232 -31,43 -80,65 -146,65l-207 0c-113,0 -216,-13 -309,-38 -93,-25 -173,-66 -241,-123 -68,-57 -120,-133 -158,-229 -38,-95 -57,-214 -57,-356l0 -2781 642 0 0 2692c0,116 21,189 61,220 41,30 100,46 176,46l93 0c26,0 51,2 74,8 24,6 44,17 63,34 18,19 32,45 42,81 10,36 14,86 14,149zm-197 297c-26,0 -51,-3 -74,-8 -24,-5 -44,-16 -63,-34 -18,-19 -32,-47 -42,-83 -10,-36 -14,-85 -14,-148 0,-113 16,-190 47,-233 31,-43 80,-63 146,-63l731 0c25,0 50,2 73,8 23,6 44,17 62,34 19,19 33,45 43,81 9,36 14,86 14,149 0,112 -15,190 -47,232 -31,43 -80,65 -145,65l-731 0zm731 0c-26,0 -51,-3 -74,-8 -24,-5 -44,-17 -63,-37 -18,-20 -32,-48 -42,-85 -10,-36 -14,-85 -14,-148 0,-113 16,-190 47,-233 31,-42 80,-63 146,-63l781 0 0 -1392 646 0 0 1966 -1427 0zm490 1546c0,-95 34,-177 103,-246 69,-70 151,-104 246,-104 95,0 177,34 247,104 70,69 105,151 105,246 0,94 -35,177 -104,246 -69,69 -151,104 -248,104 -95,0 -177,-35 -246,-104 -69,-69 -103,-152 -103,-246zm-406 -717c0,-94 35,-177 104,-246 68,-69 151,-103 246,-103 95,0 177,34 247,103 70,69 105,152 105,246 0,95 -35,177 -104,247 -69,69 -151,103 -248,103 -95,0 -178,-34 -246,-103 -69,-70 -104,-152 -104,-247zm806 0c0,-94 34,-177 103,-246 70,-69 152,-103 247,-103 94,0 177,34 246,103 69,69 103,152 103,246 0,95 -34,177 -103,247 -69,69 -152,103 -246,103 -95,0 -177,-34 -247,-103 -69,-70 -103,-152 -103,-247zm2209 -2113c0,40 5,82 14,126 10,43 28,82 55,117 26,34 61,63 106,86 44,24 101,36 170,36 43,0 87,-2 131,-5 45,-4 90,-13 137,-29l0 -683 -246 0c-122,0 -214,33 -275,97 -61,64 -92,149 -92,255zm1378 1284c-79,0 -156,-6 -230,-18 -74,-10 -143,-31 -205,-61 -63,-29 -118,-70 -165,-122 -47,-51 -85,-118 -110,-200 -56,13 -114,23 -174,33 -59,9 -118,13 -178,13 -82,0 -177,-13 -286,-37 -109,-25 -212,-71 -309,-137 -97,-66 -179,-157 -247,-275 -67,-117 -101,-268 -101,-450 0,-182 32,-335 96,-461 64,-124 147,-226 247,-306 101,-79 213,-137 336,-171 123,-35 244,-52 363,-52l839 0 0 1479c0,75 10,127 31,154 19,28 65,42 138,42l118 0c26,0 51,2 74,8 23,6 44,17 62,34 19,19 33,45 43,81 9,36 14,86 14,149 0,112 -16,190 -47,232 -31,43 -80,65 -146,65l-163 0zm1931 -569c-9,-133 -30,-254 -63,-363 -33,-111 -83,-205 -149,-284 -65,-79 -152,-140 -259,-185 -107,-44 -239,-66 -397,-66 -53,0 -136,8 -247,22 -112,14 -227,38 -346,72l0 -574c75,-26 179,-53 311,-83 132,-30 265,-45 400,-45 248,0 458,40 631,121 173,81 313,189 422,328 109,138 189,299 239,482 51,184 79,375 85,575l322 0c25,0 50,2 73,8 24,6 44,17 62,34 19,19 33,45 43,81 9,36 14,86 14,149 0,112 -15,190 -47,232 -31,43 -80,65 -145,65l-2717 0c-25,0 -50,-3 -73,-8 -24,-5 -44,-16 -63,-34 -18,-19 -32,-47 -42,-83 -10,-36 -14,-85 -14,-148 0,-113 15,-190 47,-233 31,-43 80,-63 145,-63l1768 0zm-1166 -2251c0,-95 35,-177 104,-247 69,-70 152,-106 249,-106 94,0 177,35 246,104 69,69 104,152 104,249 0,94 -35,177 -104,246 -69,69 -152,104 -246,104 -95,0 -177,-35 -247,-104 -70,-69 -106,-152 -106,-246zm2288 2251c73,0 133,-2 180,-5 47,-4 86,-13 116,-29 29,-17 51,-40 63,-72 13,-31 20,-75 20,-131l0 -943 639 0 0 840c0,105 29,188 85,249 58,60 146,91 265,91 98,0 181,-15 248,-44 68,-29 102,-93 102,-193l0 -943 639 0 0 840c0,115 25,201 76,256 50,56 135,84 255,84 91,0 165,-16 221,-46 56,-31 85,-99 85,-205l0 -1146 636 0 0 1057c0,121 25,209 73,261 50,52 156,79 318,79 26,0 50,2 74,8 23,6 43,17 61,34 18,19 32,45 42,81 11,36 16,86 16,149 0,112 -16,190 -47,232 -31,43 -80,65 -146,65 -94,0 -188,-18 -281,-52 -93,-35 -168,-105 -228,-211 -47,62 -95,111 -146,146 -50,34 -102,61 -156,79 -52,19 -105,29 -158,33 -52,3 -103,5 -153,5 -59,0 -122,-5 -188,-15 -66,-9 -131,-24 -195,-45 -64,-20 -122,-46 -173,-79 -50,-34 -91,-72 -121,-118 -102,113 -204,184 -308,213 -103,29 -217,44 -339,44 -323,0 -556,-86 -697,-257 -88,117 -203,188 -345,215 -141,28 -322,42 -543,42l-163 0c-26,0 -51,-3 -74,-8 -24,-5 -44,-16 -63,-34 -18,-19 -32,-47 -42,-83 -10,-36 -14,-85 -14,-148 0,-113 16,-190 47,-233 31,-43 80,-63 146,-63l173 0zm4542 -2251c0,-95 34,-177 103,-247 69,-70 153,-106 249,-106 95,0 177,35 246,104 69,69 104,152 104,249 0,94 -35,177 -104,246 -69,69 -151,104 -246,104 -95,0 -177,-35 -247,-104 -70,-69 -105,-152 -105,-246zm46 2251l0 -1397 647 0 0 1966 -1216 0c-26,0 -50,-3 -74,-8 -23,-5 -44,-16 -63,-34 -18,-19 -32,-47 -42,-83 -10,-36 -14,-85 -14,-148 0,-113 16,-190 47,-233 31,-43 80,-63 146,-63l569 0z"/>
   <polygon class="fil1" points="18997,34847 2657,34847 2657,34435 18997,34435 "/>
   <g>
    <path class="fil2" d="M10827 0c-5980,0 -10827,4847 -10827,10827 0,5979 4847,10827 10827,10827 5979,0 10827,-4848 10827,-10827 0,-5980 -4848,-10827 -10827,-10827z"/>
    <path class="fil3" d="M11033 4402l0 1733c-70,-3 -140,-4 -210,-4 -68,0 -135,1 -202,4l0 -1733c-356,-90 -611,-405 -611,-793 0,-454 363,-817 817,-817 454,0 817,363 817,817 0,388 -255,703 -611,793zm-206 4212c749,0 1224,471 1394,1174 836,-156 1558,318 1558,1187 0,685 -557,1240 -1242,1240l-3421 0c-685,0 -1242,-555 -1242,-1240 0,-869 722,-1343 1558,-1187 170,-703 645,-1174 1395,-1174zm-4 6074c1067,0 2034,-433 2733,-1132 700,-700 1133,-1666 1133,-2734 0,-1067 -433,-2034 -1133,-2733 -699,-700 -1666,-1132 -2733,-1132 -1068,0 -2034,432 -2734,1132 -699,699 -1132,1666 -1132,2733 0,1068 433,2034 1132,2734 700,699 1666,1132 2734,1132zm0 412c2363,0 4278,-1915 4278,-4278 0,-2362 -1915,-4278 -4278,-4278 -2363,0 -4278,1916 -4278,4278 0,2363 1915,4278 4278,4278zm4162 -2108l1507 870c255,-265 657,-329 994,-135 394,228 526,724 299,1117 -227,393 -723,526 -1117,299 -334,-193 -480,-571 -381,-923l-1509 -872c74,-116 143,-234 207,-356zm-8121 350l-1501 866c106,356 -39,740 -378,935 -394,227 -889,94 -1116,-299 -228,-393 -95,-889 299,-1117 332,-192 730,-131 985,127l1505 -868c63,121 132,240 206,356zm-2629 1290c-112,-193 -46,-429 144,-538 199,-115 426,-51 539,144 113,195 55,424 -144,539 -190,109 -428,49 -539,-145zm13184 0c-112,194 -349,254 -539,145 -199,-115 -257,-344 -144,-539 112,-195 339,-259 538,-144 190,109 256,345 145,538zm-6592 -11417c223,0 394,175 394,394 0,230 -169,395 -394,395 -226,0 -395,-165 -395,-395 0,-219 172,-394 395,-394z"/>
   </g>
  </g>
 </g>
</svg>
