<?xml version="1.0" encoding="UTF-8"?>
<!DOCTYPE svg PUBLIC "-//W3C//DTD SVG 1.1//EN" "http://www.w3.org/Graphics/SVG/1.1/DTD/svg11.dtd">
<!-- Creator: CorelDRAW X7 -->
<svg xmlns="http://www.w3.org/2000/svg" xml:space="preserve" width="6.57276in" height="15.9012in" version="1.1" style="shape-rendering:geometricPrecision; text-rendering:geometricPrecision; image-rendering:optimizeQuality; fill-rule:evenodd; clip-rule:evenodd"
viewBox="0 0 65728 159012"
 xmlns:xlink="http://www.w3.org/1999/xlink">
 <defs>
  <style type="text/css">
   <![CDATA[
    .fil0 {fill:#FEFEFE}
    .fil2 {fill:#F2E7D3}
    .fil1 {fill:#F6EFE2}
   ]]>
  </style>
 </defs>
 <g id="Layer_x0020_1">
  <metadata id="CorelCorpID_0Corel-Layer"/>
  <g id="_2622973075536">
   <polygon class="fil0" points="65727,0 0,0 0,159012 65727,159012 "/>
   <path class="fil1" d="M65727 159012l-31091 0c-991,-1278 -1946,-2602 -2849,-3987 -7562,-11596 -10362,-24576 2986,-39241 7348,-8073 22483,-15699 20898,-27492 -1082,-8047 -7006,-17973 -6887,-26356 95,-6718 3359,-11247 7439,-18978 6500,-12317 5670,-28311 226,-42958l9278 0 0 159012z"/>
   <path class="fil2" d="M55671 88292c1585,11793 -13550,19419 -20898,27492 -13348,14665 -10548,27645 -2986,39241 903,1385 1858,2709 2849,3987l-3480 0c-4290,-5920 -7835,-12488 -8650,-19609 -1541,-13455 7056,-23882 13684,-33804 4750,-7112 6188,-12196 6071,-16122 -316,-10634 -10185,-12214 -3130,-24561 4644,-8126 13960,-17406 16348,-24602 4902,-14772 3206,-28675 -3699,-40314l4669 0c5444,14647 6274,30641 -226,42958 -4080,7731 -7344,12260 -7439,18978 -119,8383 5805,18309 6887,26356z"/>
  </g>
 </g>
</svg>
