<?xml version="1.0" encoding="UTF-8"?>
<!DOCTYPE svg PUBLIC "-//W3C//DTD SVG 1.1//EN" "http://www.w3.org/Graphics/SVG/1.1/DTD/svg11.dtd">
<!-- Creator: CorelDRAW X7 -->
<svg xmlns="http://www.w3.org/2000/svg" xml:space="preserve" width="2.16535in" height="2.16535in" version="1.1" style="shape-rendering:geometricPrecision; text-rendering:geometricPrecision; image-rendering:optimizeQuality; fill-rule:evenodd; clip-rule:evenodd"
viewBox="0 0 21654 21654"
 xmlns:xlink="http://www.w3.org/1999/xlink">
 <defs>
  <style type="text/css">
   <![CDATA[
    .fil0 {fill:#C4CFE9}
    .fil1 {fill:white}
   ]]>
  </style>
 </defs>
 <g id="Layer_x0020_1">
  <metadata id="CorelCorpID_0Corel-Layer"/>
  <g id="_2622982863232">
   <path class="fil0" d="M10827 0c-5980,0 -10827,4847 -10827,10827 0,5979 4847,10827 10827,10827 5979,0 10827,-4848 10827,-10827 0,-5980 -4848,-10827 -10827,-10827z"/>
   <path class="fil1" d="M11033 4400l0 1739c-68,-3 -138,-4 -206,-4 -68,0 -135,1 -203,4l-3 0 0 -1739c-356,-89 -612,-405 -612,-792 0,-455 363,-818 818,-818 454,0 817,363 817,818 0,387 -255,703 -611,792zm-801 8219l-1669 0 0 -2698 2263 -1767 2264 1767 0 2698 -1669 0 0 -1588 -1189 0 0 1588zm595 2074c1067,0 2034,-433 2733,-1133 700,-699 1132,-1666 1132,-2733 0,-1068 -432,-2034 -1132,-2734 -699,-699 -1666,-1132 -2733,-1132 -1068,0 -2034,433 -2734,1132 -699,700 -1132,1666 -1132,2734 0,1067 433,2034 1132,2733 700,700 1666,1133 2734,1133zm0 412c2362,0 4277,-1916 4277,-4278 0,-2363 -1915,-4278 -4277,-4278 -2363,0 -4278,1915 -4278,4278 0,2362 1915,4278 4278,4278zm2164 -8442l870 -1506c-263,-255 -326,-656 -133,-991 228,-393 724,-526 1117,-299 393,227 526,723 299,1117 -194,336 -574,481 -927,380l-869 1505c-116,-73 -235,-143 -357,-206zm1792 1641l1506 -870c-100,-352 46,-731 381,-925 393,-227 889,-94 1117,299 227,394 94,890 -300,1117 -336,194 -738,130 -993,-134l-1505 869c-64,-122 -133,-241 -206,-356zm731 2317l1739 0c89,-356 405,-612 793,-612 454,0 817,363 817,818 0,454 -363,817 -817,817 -388,0 -704,-255 -793,-611l-1739 0c3,-68 5,-137 5,-206 0,-69 -2,-138 -5,-206zm-525 2374l1505 868c254,-265 657,-329 993,-135 394,227 527,723 300,1117 -228,393 -724,526 -1117,299 -335,-193 -481,-571 -381,-923l-1507 -870c74,-115 143,-233 206,-355l1 -1zm-1644 1791l868 1505c354,-104 736,41 931,379 227,393 94,889 -299,1116 -393,228 -889,95 -1117,-299 -193,-334 -131,-733 130,-988l-870 -1506c122,-64 241,-132 357,-207zm-2320 729l0 1736c360,87 619,404 619,794 0,455 -363,818 -817,818 -455,0 -818,-363 -818,-818 0,-384 252,-699 604,-790l0 -1741c71,3 142,5 214,5 66,0 132,-1 198,-4zm-2372 -529l-868 1503c270,255 336,660 140,998 -227,394 -723,526 -1116,299 -394,-227 -527,-723 -300,-1116 192,-333 567,-479 917,-383l871 -1508c116,75 234,144 356,207zm-1788 -1644l-1503 867c106,356 -40,740 -378,935 -394,227 -890,94 -1117,-299 -227,-394 -94,-890 299,-1117 333,-192 731,-131 986,127l1507 -870 2 5c63,120 131,237 204,352zm-726 -2317l-1737 0c-86,360 -404,619 -794,619 -454,0 -818,-363 -818,-817 0,-455 364,-818 818,-818 385,0 699,252 790,604l1742 0c-4,71 -5,142 -5,214 0,66 1,132 4,198zm527 -2369l-1504 -868c-255,267 -658,332 -996,137 -393,-227 -526,-723 -299,-1116 227,-394 723,-527 1117,-300 334,193 480,570 382,921l1507 870c-74,116 -143,234 -207,356zm1641 -1787l-869 -1505c-354,102 -734,-44 -929,-380 -227,-394 -94,-890 300,-1117 393,-227 889,-94 1116,299 194,335 131,735 -131,990l869 1507c-122,63 -241,132 -356,206zm-1287 -2636c193,-111 429,-45 539,145 115,199 51,426 -144,539 -196,112 -424,55 -539,-145 -110,-190 -49,-427 144,-539zm-2786 2787c111,-193 348,-254 538,-144 200,115 258,343 145,539 -113,195 -340,259 -539,144 -190,-110 -256,-346 -144,-539zm-1020 3807c0,-224 174,-395 394,-395 230,0 395,169 395,395 0,225 -165,394 -395,394 -220,0 -394,-171 -394,-394zm1020 3807c-112,-194 -46,-430 144,-540 199,-115 426,-50 539,145 113,195 55,424 -145,539 -190,109 -427,49 -538,-144zm2786 2786c-193,-111 -254,-349 -144,-539 115,-199 343,-257 539,-144 195,112 259,339 144,539 -110,190 -346,256 -539,144zm3807 1020c-223,0 -395,-175 -395,-395 0,-230 169,-394 395,-394 225,0 394,164 394,394 0,220 -171,395 -394,395zm3806 -1020c-193,112 -429,46 -539,-144 -115,-200 -50,-427 145,-539 195,-113 424,-55 539,144 110,190 49,428 -145,539zm2787 -2786c-111,193 -349,253 -539,144 -199,-115 -257,-344 -144,-539 113,-195 339,-260 539,-145 190,110 256,346 144,540zm1020 -3807c0,223 -175,394 -394,394 -230,0 -395,-169 -395,-394 0,-226 165,-395 395,-395 219,0 394,171 394,395zm-1020 -3807c112,193 46,429 -144,539 -200,115 -426,51 -539,-144 -113,-196 -55,-424 144,-539 190,-110 428,-49 539,144zm-2787 -2787c194,112 255,349 145,539 -115,200 -344,257 -539,145 -195,-113 -260,-340 -145,-539 110,-190 346,-256 539,-145zm-3806 -1020c223,0 394,175 394,395 0,230 -169,394 -394,394 -226,0 -395,-164 -395,-394 0,-220 172,-395 395,-395z"/>
  </g>
 </g>
</svg>
