<?xml version="1.0" encoding="UTF-8"?>
<!DOCTYPE svg PUBLIC "-//W3C//DTD SVG 1.1//EN" "http://www.w3.org/Graphics/SVG/1.1/DTD/svg11.dtd">
<!-- Creator: CorelDRAW X7 -->
<svg xmlns="http://www.w3.org/2000/svg" xml:space="preserve" width="2.29319in" height="2.69787in" version="1.1" style="shape-rendering:geometricPrecision; text-rendering:geometricPrecision; image-rendering:optimizeQuality; fill-rule:evenodd; clip-rule:evenodd"
viewBox="0 0 22932 26979"
 xmlns:xlink="http://www.w3.org/1999/xlink">
 <defs>
  <style type="text/css">
   <![CDATA[
    .fil2 {fill:#8DA0D1}
    .fil1 {fill:white}
    .fil0 {fill:white;fill-rule:nonzero}
   ]]>
  </style>
 </defs>
 <g id="Layer_x0020_1">
  <metadata id="CorelCorpID_0Corel-Layer"/>
  <g id="_2622940250288">
   <path class="fil0" d="M590 25839c0,84 14,162 43,234 30,71 78,132 146,184 68,51 159,91 273,119 114,29 256,44 426,44 211,0 383,-15 515,-46 132,-30 234,-67 308,-110 75,-44 125,-92 153,-144 27,-52 40,-98 40,-140 0,-45 -17,-82 -52,-110 -35,-27 -91,-62 -169,-105 -88,-46 -170,-93 -248,-141 -77,-48 -145,-103 -201,-165 -56,-62 -101,-132 -134,-209 -33,-76 -50,-168 -50,-275 0,-118 21,-238 64,-357 44,-120 106,-228 189,-325 83,-97 188,-176 315,-237 127,-60 276,-91 446,-91 112,0 212,12 299,37 86,25 151,44 191,59l0 532c-106,-23 -197,-39 -275,-47 -76,-9 -137,-13 -179,-13 -79,0 -147,12 -205,35 -57,23 -105,53 -143,89 -37,36 -65,76 -83,120 -18,45 -27,89 -27,134 0,69 31,128 94,177 62,49 138,95 228,138 110,51 200,101 269,150 69,48 124,97 165,148 41,50 70,103 87,158 17,55 25,115 25,179 0,127 -25,257 -78,391 -51,134 -140,255 -265,362 -126,107 -293,195 -500,263 -207,68 -467,102 -779,102 -275,0 -507,-28 -695,-84 -189,-56 -341,-134 -458,-234 -116,-100 -199,-218 -249,-352 -51,-135 -76,-282 -76,-444l0 -730 590 0 0 704zm3596 -3163l0 3244 -586 0 0 -3244 586 0zm848 2064c0,37 4,75 12,115 10,40 26,76 50,108 25,32 57,58 98,80 41,21 93,32 157,32 39,0 80,-1 120,-4 41,-3 83,-13 126,-27l0 -628 -226 0c-112,0 -197,30 -253,89 -56,59 -84,137 -84,235zm1267 1180c-73,0 -143,-5 -211,-15 -69,-10 -131,-29 -189,-56 -58,-28 -108,-66 -152,-113 -43,-47 -78,-109 -101,-184 -52,12 -105,22 -160,30 -54,8 -109,12 -163,12 -76,0 -164,-11 -264,-34 -100,-23 -195,-65 -284,-126 -90,-60 -165,-145 -227,-253 -63,-107 -94,-246 -94,-414 0,-168 30,-308 89,-424 59,-114 135,-208 227,-281 93,-73 196,-126 309,-158 113,-32 225,-48 334,-48l772 0 0 1361c0,69 9,117 28,142 19,25 61,38 128,38l109 0c23,0 46,2 67,8 21,5 41,16 58,31 17,17 30,41 39,75 8,33 13,78 13,137 0,103 -14,175 -43,213 -29,40 -74,59 -134,59l-151 0zm1052 -940c0,156 36,265 108,325 73,62 160,92 263,92l255 0 0 -345c0,-60 -4,-119 -12,-175 -7,-56 -22,-105 -45,-147 -23,-42 -54,-76 -93,-103 -40,-25 -90,-38 -150,-38 -64,0 -116,11 -156,35 -41,22 -74,52 -100,88 -26,37 -44,78 -55,124 -10,47 -15,94 -15,144zm-506 417c-24,-49 -42,-111 -52,-185 -12,-73 -17,-142 -17,-206 0,-118 21,-235 62,-349 41,-115 101,-217 178,-307 77,-89 173,-161 288,-216 115,-55 247,-82 395,-82 173,0 316,31 427,93 112,62 200,141 264,236 65,96 109,202 134,319 25,117 38,230 38,339l0 881 -2112 0c-24,0 -47,-2 -68,-6 -22,-5 -41,-15 -58,-32 -17,-18 -30,-43 -39,-76 -9,-33 -13,-79 -13,-136 0,-104 15,-175 44,-215 28,-39 73,-58 134,-58l395 0zm513 -2071c0,-87 32,-163 95,-227 64,-65 141,-97 229,-97 87,0 163,32 227,95 63,64 95,140 95,229 0,87 -32,163 -95,227 -64,63 -140,95 -227,95 -87,0 -163,-32 -227,-95 -64,-64 -97,-140 -97,-227zm2966 2594c-40,0 -94,-9 -164,-28 -70,-18 -130,-57 -182,-118 -3,206 -27,377 -72,516 -45,138 -113,250 -204,335 -91,85 -206,146 -345,182 -139,36 -307,56 -501,59l0 -555c124,-3 222,-17 296,-44 72,-25 128,-63 164,-115 36,-50 59,-116 70,-197 10,-81 15,-178 15,-290l0 -1353 586 0 0 772c0,118 36,200 108,245 72,45 148,68 229,68 24,0 47,2 68,8 22,5 41,16 58,31 17,17 30,41 39,75 9,33 13,78 13,137 0,103 -15,175 -44,213 -28,40 -73,59 -134,59zm1624 -523c-8,-122 -28,-233 -58,-334 -30,-102 -76,-189 -139,-261 -62,-72 -141,-129 -238,-170 -97,-40 -218,-61 -363,-61 -49,0 -126,7 -230,20 -104,14 -209,36 -316,67l0 -528c70,-25 164,-50 284,-77 120,-27 243,-41 370,-41 237,0 437,40 599,122 162,81 293,190 392,327 100,137 172,295 216,475 43,180 65,367 65,563l0 421 -2208 0c-23,0 -46,-2 -67,-6 -22,-5 -41,-15 -59,-32 -16,-18 -29,-43 -38,-76 -9,-33 -13,-79 -13,-136 0,-104 14,-175 43,-215 29,-39 73,-58 134,-58l1626 0zm2080 -657c0,37 5,75 13,115 9,40 26,76 50,108 25,32 57,58 98,80 41,21 93,32 157,32 39,0 80,-1 120,-4 41,-3 83,-13 126,-27l0 -628 -226 0c-113,0 -197,30 -253,89 -57,59 -85,137 -85,235zm1268 1180c-73,0 -143,-5 -212,-15 -68,-10 -131,-29 -188,-56 -58,-28 -109,-66 -152,-113 -44,-47 -78,-109 -101,-184 -52,12 -105,22 -160,30 -55,8 -109,12 -164,12 -75,0 -163,-11 -263,-34 -100,-23 -195,-65 -284,-126 -90,-60 -165,-145 -228,-253 -62,-107 -93,-246 -93,-414 0,-168 30,-308 89,-424 59,-114 135,-208 227,-281 93,-73 196,-126 309,-158 113,-32 224,-48 334,-48l772 0 0 1361c0,69 9,117 28,142 18,25 61,38 127,38l110 0c23,0 46,2 67,8 21,5 41,16 58,31 17,17 30,41 39,75 8,33 13,78 13,137 0,103 -15,175 -43,213 -29,40 -74,59 -134,59l-151 0zm1777 -523c-8,-122 -28,-233 -58,-334 -31,-102 -76,-189 -137,-261 -60,-72 -140,-129 -238,-170 -99,-40 -221,-61 -366,-61 -49,0 -125,7 -228,20 -102,14 -208,36 -318,67l0 -528c70,-25 165,-50 287,-77 121,-27 244,-41 368,-41 228,0 421,37 580,111 159,74 289,174 389,301 100,128 173,276 219,444 47,169 73,345 79,529l296 0c23,0 46,2 67,8 22,5 41,16 58,31 17,17 30,41 39,75 8,33 13,78 13,137 0,103 -15,175 -43,213 -29,40 -74,59 -134,59l-2499 0c-24,0 -47,-2 -68,-6 -22,-5 -41,-15 -58,-32 -17,-18 -30,-43 -39,-76 -9,-33 -13,-79 -13,-136 0,-104 15,-175 43,-215 29,-39 74,-58 135,-58l1626 0zm-1073 -2071c0,-87 32,-163 96,-227 63,-65 140,-97 228,-97 88,0 163,32 227,95 64,64 95,140 95,229 0,87 -31,163 -95,227 -64,63 -139,95 -227,95 -87,0 -162,-32 -227,-95 -64,-64 -97,-140 -97,-227zm2105 2071c67,0 122,-1 165,-5 44,-3 80,-12 107,-26 28,-15 47,-37 59,-66 12,-29 18,-69 18,-121l0 -867 588 0 0 772c0,97 26,174 78,230 53,55 134,83 244,83 90,0 166,-14 228,-40 62,-27 94,-86 94,-178l0 -867 587 0 0 772c0,106 24,185 71,237 46,50 124,76 234,76 84,0 152,-14 204,-42 51,-28 78,-91 78,-189l0 -1054 585 0 0 972c0,112 23,193 68,240 45,49 143,73 292,73 24,0 46,2 67,8 22,5 41,16 57,31 16,17 29,41 39,75 10,33 14,78 14,137 0,103 -14,175 -43,213 -29,40 -73,59 -134,59 -87,0 -173,-15 -259,-47 -85,-32 -155,-96 -209,-194 -43,57 -88,102 -135,134 -46,32 -94,56 -143,73 -49,17 -97,27 -146,30 -47,3 -94,4 -140,4 -55,0 -113,-4 -173,-13 -61,-8 -121,-22 -180,-41 -59,-18 -112,-42 -159,-73 -46,-31 -84,-66 -112,-108 -93,104 -187,169 -282,195 -96,27 -200,40 -313,40 -297,0 -511,-78 -641,-235 -81,107 -187,173 -318,198 -129,25 -296,37 -499,37l-150 0c-24,0 -47,-2 -68,-6 -22,-5 -41,-15 -58,-32 -17,-18 -30,-43 -39,-76 -9,-33 -13,-79 -13,-136 0,-104 15,-175 43,-215 29,-39 74,-58 135,-58l159 0zm4179 -2071c0,-87 32,-163 95,-227 64,-65 140,-97 229,-97 87,0 163,32 226,95 64,64 96,140 96,229 0,87 -32,163 -96,227 -63,63 -139,95 -226,95 -87,0 -163,-32 -227,-95 -65,-64 -97,-140 -97,-227zm42 2071l0 -1285 596 0 0 1808 -1119 0c-24,0 -46,-2 -68,-6 -22,-5 -41,-15 -58,-32 -17,-18 -30,-43 -39,-76 -9,-33 -13,-79 -13,-136 0,-104 15,-175 44,-215 28,-39 73,-58 134,-58l523 0z"/>
   <g>
    <path class="fil1" d="M11466 0c-4951,0 -8965,4014 -8965,8966 0,4951 4014,8965 8965,8965 4952,0 8966,-4014 8966,-8965 0,-4952 -4014,-8966 -8966,-8966z"/>
    <path class="fil2" d="M11466 12167c-884,0 -1684,-358 -2263,-938 -580,-579 -938,-1379 -938,-2263 0,-884 358,-1685 938,-2264 579,-579 1379,-937 2263,-937 884,0 1685,358 2264,937 579,579 938,1380 938,2264 0,884 -359,1684 -938,2263 -579,580 -1380,938 -2264,938zm171 -8523l0 1440c-107,-5 -236,-10 -341,0l0 -1440c-295,-74 -507,-335 -507,-656 0,-377 301,-677 677,-677 377,0 677,300 677,677 0,321 -211,582 -506,656zm3105 3232l1248 -720c-83,-292 37,-605 315,-765 326,-189 736,-79 925,247 188,326 78,737 -248,925 -278,161 -611,108 -823,-111l-1246 719c-53,-101 -110,-199 -171,-295zm171 3885l1246 719c211,-219 544,-272 823,-111 326,188 436,598 248,924 -189,326 -599,436 -925,248 -277,-160 -398,-473 -316,-765l-1247 -720c61,-95 118,-193 171,-294l0 -1zm-3282 2087l0 1438c298,71 512,334 512,658 0,376 -300,677 -677,677 -376,0 -677,-301 -677,-677 0,-319 209,-579 501,-655l0 -1442c58,3 117,4 176,4 55,0 110,-1 165,-3zm-3446 -1800l-1244 719c88,294 -33,612 -313,774 -326,188 -737,78 -925,-248 -188,-326 -78,-736 248,-924 275,-160 604,-109 816,104l1248 -720 2 4c52,99 108,196 168,291zm-164 -3880l-1246 -719c-211,221 -545,275 -824,114 -326,-188 -436,-599 -248,-925 188,-326 599,-436 925,-247 276,159 397,471 316,762l1248 720c-61,96 -118,194 -171,295zm-2015 -1355c93,-160 289,-210 447,-119 165,95 213,284 119,446 -93,162 -281,215 -446,120 -157,-91 -212,-286 -120,-447zm0 6305c-92,-160 -37,-355 120,-446 165,-96 353,-42 446,119 94,162 46,351 -119,447 -158,90 -354,40 -447,-120zm5460 3152c-184,0 -326,-145 -326,-326 0,-191 140,-327 326,-327 187,0 327,136 327,327 0,181 -142,326 -327,326zm5460 -3152c-92,160 -289,210 -446,120 -165,-96 -213,-285 -119,-447 93,-161 281,-215 446,-119 157,91 212,286 119,446zm0 -6305c93,161 38,356 -119,447 -165,95 -353,42 -446,-120 -94,-162 -46,-351 119,-446 157,-91 354,-41 446,119zm-5460 -3152c185,0 327,145 327,327 0,190 -140,326 -327,326 -186,0 -326,-136 -326,-326 0,-182 142,-327 326,-327zm0 4471c621,0 1014,390 1155,972 692,-129 1290,263 1290,983 0,568 -461,1027 -1028,1027l-2833 0c-567,0 -1029,-459 -1029,-1027 0,-720 598,-1112 1290,-983 141,-582 534,-972 1155,-972zm0 5376c-1956,0 -3542,-1586 -3542,-3542 0,-1957 1586,-3543 3542,-3543 1957,0 3543,1586 3543,3543 0,1956 -1586,3542 -3543,3542z"/>
   </g>
  </g>
 </g>
</svg>
