<?xml version="1.0" encoding="UTF-8"?>
<!DOCTYPE svg PUBLIC "-//W3C//DTD SVG 1.1//EN" "http://www.w3.org/Graphics/SVG/1.1/DTD/svg11.dtd">
<!-- Creator: CorelDRAW X7 -->
<svg xmlns="http://www.w3.org/2000/svg" xml:space="preserve" width="6.49256in" height="0.571339in" version="1.1" style="shape-rendering:geometricPrecision; text-rendering:geometricPrecision; image-rendering:optimizeQuality; fill-rule:evenodd; clip-rule:evenodd"
viewBox="0 0 64926 5713"
 xmlns:xlink="http://www.w3.org/1999/xlink">
 <defs>
  <style type="text/css">
   <![CDATA[
    .fil0 {fill:white}
    .fil1 {fill:#A38755;fill-rule:nonzero}
    .fil2 {fill:#E6D2AE;fill-rule:nonzero}
   ]]>
  </style>
 </defs>
 <g id="Layer_x0020_1">
  <metadata id="CorelCorpID_0Corel-Layer"/>
  <g id="_2623021168080">
   <path class="fil0" d="M63712 5548l-62498 0c-577,0 -1049,-472 -1049,-1048l0 -3286c0,-577 472,-1049 1049,-1049l62498 0c576,0 1048,472 1048,1049l0 3286c0,576 -472,1048 -1048,1048z"/>
   <path class="fil1" d="M63712 5713l-62498 0c-668,0 -1214,-545 -1214,-1213l0 -3286c0,-668 546,-1214 1214,-1214l62498 0c668,0 1214,546 1214,1214l0 3286c0,668 -546,1213 -1214,1213zm-62498 -330l62498 0c485,0 883,-398 883,-883l0 -3286c0,-486 -398,-883 -883,-883l-62498 0c-485,0 -883,397 -883,883l0 3286c0,485 398,883 883,883z"/>
   <path class="fil2" d="M48214 3827c-6,150 -29,274 -70,372 -41,99 -97,178 -168,239 -71,60 -158,103 -260,128 -102,26 -217,38 -346,38 -555,0 -832,-264 -832,-792l0 -481 397 0 0 466c0,143 35,252 105,327 70,75 184,113 342,113 153,0 265,-32 335,-95 71,-63 106,-171 106,-324l0 -2175 394 0 0 1832 242 0c16,0 32,1 46,5 14,3 27,11 39,21 11,12 20,28 26,50 6,23 9,53 9,93 0,69 -10,117 -29,143 -20,27 -50,40 -91,40l-245 0zm1340 0c-28,0 -59,-2 -91,-6 -32,-4 -64,-12 -94,-23 -31,-12 -60,-27 -88,-48 -27,-20 -50,-46 -68,-78 -25,35 -55,62 -89,83 -35,21 -71,37 -110,48 -39,10 -79,17 -121,20 -42,3 -83,4 -124,4l-310 0c-15,0 -31,-1 -45,-4 -15,-3 -27,-11 -39,-22 -11,-12 -20,-28 -26,-51 -6,-22 -9,-53 -9,-92 0,-69 10,-117 29,-144 20,-26 50,-39 90,-39l245 0c70,0 119,-11 146,-32 28,-22 41,-70 41,-145l0 -689 398 0 0 655c0,76 20,130 59,162 40,32 109,49 206,49 17,0 32,1 46,5 15,3 28,11 39,21 11,12 20,28 26,50 6,23 9,53 9,93 0,69 -9,117 -29,143 -19,27 -49,40 -91,40zm-1015 514c0,-58 21,-109 64,-152 43,-43 94,-64 154,-64 58,0 109,21 152,64 43,43 65,94 65,152 0,59 -22,110 -65,153 -43,43 -94,64 -152,64 -59,0 -110,-21 -153,-64 -44,-43 -65,-94 -65,-153zm499 0c0,-58 21,-109 64,-152 43,-43 93,-64 153,-64 58,0 109,21 153,64 43,43 64,94 64,152 0,59 -21,110 -64,153 -43,43 -94,64 -153,64 -60,0 -110,-21 -153,-64 -43,-43 -64,-94 -64,-153zm675 -866c25,0 55,-21 91,-61 36,-40 68,-99 96,-177 45,-117 94,-213 147,-290 53,-77 108,-138 164,-184 56,-46 113,-78 170,-96 56,-18 113,-28 168,-28 80,0 154,16 224,47 69,30 129,73 178,128 50,55 90,121 118,199 28,78 42,162 42,254 0,14 0,27 -1,39 -1,13 -2,25 -2,37 27,49 68,83 124,102 55,20 107,30 156,30 16,0 31,1 45,5 15,3 27,11 38,21 11,12 20,28 27,50 6,23 9,53 9,93 0,69 -9,117 -29,143 -19,27 -49,40 -90,40 -78,0 -148,-15 -209,-44 -61,-29 -114,-77 -159,-142 -88,149 -239,223 -453,223 -81,0 -163,-12 -246,-37 -83,-25 -170,-67 -262,-125 -52,58 -106,94 -162,106 -55,13 -115,19 -180,19l-163 0c-15,0 -31,-1 -45,-4 -15,-3 -27,-11 -39,-22 -11,-12 -20,-28 -26,-51 -6,-22 -9,-53 -9,-92 0,-69 10,-117 29,-144 20,-26 50,-39 90,-39l159 0zm1010 -217c0,-31 -4,-62 -10,-92 -7,-30 -19,-57 -34,-81 -16,-23 -36,-43 -62,-58 -25,-15 -56,-23 -93,-23 -27,0 -55,7 -83,20 -28,14 -56,36 -82,66 -26,30 -51,70 -75,119 -23,49 -43,110 -59,183 51,31 100,56 145,76 46,20 95,29 148,29 66,0 117,-22 152,-66 35,-43 53,-102 53,-173zm663 569c-15,0 -31,-1 -45,-4 -15,-3 -28,-11 -39,-23 -12,-13 -20,-30 -26,-53 -6,-22 -9,-53 -9,-92 0,-70 10,-117 29,-144 19,-26 50,-39 90,-39l484 0 0 -863 401 0 0 1218 -885 0zm35 514c0,-58 21,-109 64,-152 43,-43 94,-64 152,-64 59,0 110,21 153,64 43,43 64,94 64,152 0,59 -21,110 -64,153 -43,43 -94,64 -153,64 -58,0 -109,-21 -152,-64 -43,-43 -64,-94 -64,-153zm497 0c0,-58 22,-109 65,-152 42,-43 94,-64 154,-64 58,0 109,21 152,64 43,43 64,94 64,152 0,59 -21,110 -64,153 -43,43 -94,64 -152,64 -59,0 -111,-21 -154,-64 -43,-43 -65,-94 -65,-153zm1111 -2698l0 2184 -395 0 0 -2184 395 0zm3067 2184c-86,0 -162,-12 -227,-37 -65,-24 -110,-47 -135,-70 -2,159 -22,291 -61,396 -39,105 -94,190 -167,254 -72,65 -160,110 -263,137 -103,26 -219,39 -350,39 -555,0 -832,-264 -832,-792l0 -420 394 0 0 405c0,142 38,251 112,327 75,76 185,114 332,114 153,0 266,-32 338,-95 73,-64 109,-172 109,-325l0 -1016 394 0 0 520c0,65 17,117 53,155 34,37 89,56 165,56 59,0 110,-9 153,-27 43,-18 64,-58 64,-120l0 -584 394 0 0 520c0,72 13,125 39,159 26,34 74,52 142,52l193 0 0 -866 394 0 0 1218 -467 0c-59,0 -109,-4 -151,-12 -42,-8 -78,-19 -108,-33 -30,-15 -54,-32 -74,-51 -19,-20 -36,-40 -50,-62 -51,59 -110,100 -178,123 -69,23 -139,35 -213,35zm1819 -1083l398 0 0 911c0,147 -11,271 -34,374 -22,103 -61,185 -117,249 -56,63 -133,109 -232,139 -99,29 -226,45 -379,47l0 -374c82,-2 147,-11 197,-29 49,-18 86,-43 110,-78 25,-34 40,-78 47,-133 7,-54 10,-119 10,-195l0 -911zm1814 698c0,53 -8,102 -25,149 -17,47 -43,88 -78,122 -35,36 -80,63 -135,84 -55,20 -120,30 -195,30l-741 0 0 -352 599 0c47,0 84,-5 111,-14 27,-9 40,-26 40,-50 0,-13 -2,-24 -5,-37 -3,-11 -10,-28 -23,-50 -12,-21 -30,-49 -54,-84 -23,-35 -54,-81 -93,-137l-242 -362c61,-41 120,-80 179,-118 58,-38 119,-76 183,-115l266 432c72,116 125,214 160,291 35,78 53,148 53,211zm701 -1799l0 2184 -395 0 0 -2184 395 0zm-737 -392c59,-56 111,-94 158,-113 47,-19 91,-29 132,-29 41,0 88,10 143,30 54,19 103,40 148,63 45,23 88,41 128,52 41,12 76,18 105,18 39,0 71,-15 95,-44 24,-29 42,-60 51,-93l159 70c-35,92 -75,161 -119,209 -45,48 -107,72 -186,72 -57,0 -110,-7 -159,-23 -49,-14 -97,-33 -144,-56 -45,-20 -88,-38 -128,-53 -41,-16 -79,-24 -114,-24 -29,0 -56,5 -80,14 -25,9 -55,27 -92,54l-97 -147z"/>
  </g>
 </g>
</svg>
