<?xml version="1.0" encoding="UTF-8"?>
<!DOCTYPE svg PUBLIC "-//W3C//DTD SVG 1.1//EN" "http://www.w3.org/Graphics/SVG/1.1/DTD/svg11.dtd">
<!-- Creator: CorelDRAW X7 -->
<svg xmlns="http://www.w3.org/2000/svg" xml:space="preserve" width="0.687315in" height="0.687433in" version="1.1" style="shape-rendering:geometricPrecision; text-rendering:geometricPrecision; image-rendering:optimizeQuality; fill-rule:evenodd; clip-rule:evenodd"
viewBox="0 0 6873 6874"
 xmlns:xlink="http://www.w3.org/1999/xlink">
 <defs>
  <style type="text/css">
   <![CDATA[
    .fil0 {fill:#8480BC}
   ]]>
  </style>
 </defs>
 <g id="Layer_x0020_1">
  <metadata id="CorelCorpID_0Corel-Layer"/>
  <path class="fil0" d="M0 3437c0,-919 356,-1783 1006,-2432 650,-649 1512,-1007 2431,-1005 918,0 1780,356 2430,1006 650,648 1006,1512 1006,2431 0,918 -356,1782 -1006,2430 -650,650 -1512,1007 -2430,1007 -919,1 -1781,-357 -2431,-1006 -650,-649 -1006,-1513 -1006,-2431zm2496 1879l2819 -2819 -937 -938 -735 735 600 600 -1350 1350 -600 -601 -735 735 938 938zm-203 -1371l151 150 -434 434 -150 -151 433 -433zm2085 -2085l150 151 -433 433 -151 -150 434 -434zm-1882 3757l3120 -3121 -1238 -1239 -1037 1037 601 600 -1049 1048 -600 -600 -1036 1036c414,412 826,824 1239,1239zm4163 -2180c0,-861 -335,-1670 -943,-2280 -609,-608 -1418,-943 -2279,-943 -862,0 -1670,335 -2279,943 -609,610 -944,1419 -944,2280 0,861 335,1670 944,2279 609,608 1417,944 2279,944 861,0 1670,-336 2279,-944 608,-609 943,-1418 943,-2279z"/>
 </g>
</svg>
