<?xml version="1.0" encoding="UTF-8"?>
<!DOCTYPE svg PUBLIC "-//W3C//DTD SVG 1.1//EN" "http://www.w3.org/Graphics/SVG/1.1/DTD/svg11.dtd">
<!-- Creator: CorelDRAW X7 -->
<svg xmlns="http://www.w3.org/2000/svg" xml:space="preserve" width="2.67406in" height="2.29382in" version="1.1" style="shape-rendering:geometricPrecision; text-rendering:geometricPrecision; image-rendering:optimizeQuality; fill-rule:evenodd; clip-rule:evenodd"
viewBox="0 0 26741 22938"
 xmlns:xlink="http://www.w3.org/1999/xlink">
 <defs>
  <style type="text/css">
   <![CDATA[
    .fil1 {fill:#FEFEFE}
    .fil2 {fill:#E6D2AE}
    .fil0 {fill:black;fill-rule:nonzero}
   ]]>
  </style>
 </defs>
 <g id="Layer_x0020_1">
  <metadata id="CorelCorpID_0Corel-Layer"/>
  <g id="_2622972325152">
   <path class="fil0" d="M3295 21773c6,29 12,62 16,98 5,36 8,79 8,129 0,135 -26,258 -76,370 -51,112 -140,209 -269,292 -129,83 -302,147 -519,193 -217,46 -492,68 -825,68 -323,0 -589,-30 -798,-91 -209,-61 -375,-145 -500,-252 -123,-107 -209,-232 -259,-375 -48,-143 -73,-298 -73,-466l0 -820 641 0 0 799c0,213 78,369 233,466 156,98 411,147 766,147 230,0 415,-14 555,-39 140,-26 248,-59 327,-98 78,-40 129,-81 153,-124 24,-43 36,-81 36,-113 0,-86 -85,-158 -254,-218 -170,-59 -398,-125 -685,-197l0 -589c218,69 425,129 623,177 197,50 375,74 533,74l618 0c25,0 50,3 74,9 25,5 45,17 63,34 18,18 32,45 41,81 10,36 15,85 15,149 0,112 -16,190 -47,232 -32,43 -80,64 -146,64l-251 0zm1231 -1022c0,170 38,288 117,354 79,66 174,99 285,99l278 0 0 -374c0,-66 -5,-130 -13,-191 -8,-60 -24,-114 -49,-160 -25,-45 -59,-82 -101,-111 -43,-28 -98,-42 -163,-42 -70,0 -126,12 -170,38 -44,24 -81,57 -109,96 -28,40 -47,84 -59,135 -11,50 -16,102 -16,156zm-550 453c-27,-53 -46,-120 -57,-201 -13,-79 -18,-154 -18,-224 0,-128 22,-255 67,-379 45,-125 110,-236 193,-334 84,-97 188,-175 314,-234 125,-60 268,-90 428,-90 189,0 344,34 465,101 122,68 217,153 287,257 70,104 119,219 146,347 27,127 41,249 41,369l0 957 -2296 0c-26,0 -50,-2 -73,-7 -24,-5 -45,-17 -64,-35 -18,-19 -32,-46 -42,-82 -10,-36 -14,-86 -14,-148 0,-113 16,-190 47,-233 31,-43 80,-64 146,-64l430 0zm557 -2251c0,-94 35,-177 104,-247 69,-70 152,-105 248,-105 95,0 177,35 246,104 70,69 104,152 104,248 0,95 -34,177 -104,247 -69,69 -151,103 -246,103 -94,0 -177,-34 -247,-103 -70,-70 -105,-152 -105,-247zm3040 2524c0,112 -15,190 -47,232 -31,43 -79,64 -145,64l-208 0c-113,0 -215,-12 -308,-37 -94,-25 -174,-67 -242,-123 -67,-57 -120,-134 -158,-229 -38,-96 -57,-214 -57,-356l0 -2781 643 0 0 2691c0,116 20,190 61,220 41,31 99,46 175,46l94 0c25,0 50,3 73,9 24,5 45,17 63,34 19,18 33,45 42,81 10,36 14,85 14,149zm-23 -273c72,0 132,-1 179,-5 48,-3 86,-13 116,-28 30,-17 51,-41 64,-72 13,-31 19,-75 19,-132l0 -943 639 0 0 840c0,106 29,189 86,250 57,60 146,90 264,90 98,0 181,-15 249,-43 67,-29 101,-93 101,-194l0 -943 639 0 0 840c0,116 25,201 76,257 51,55 135,83 255,83 91,0 165,-15 221,-46 56,-30 85,-99 85,-205l0 -1146 636 0 0 1057c0,122 25,209 74,261 49,53 155,79 318,79 25,0 50,3 73,9 23,5 43,17 62,34 17,18 31,45 42,81 10,36 15,85 15,149 0,112 -15,190 -47,232 -31,43 -80,64 -145,64 -95,0 -189,-17 -282,-52 -92,-34 -168,-104 -227,-210 -47,62 -96,111 -147,145 -50,35 -102,61 -155,80 -53,18 -106,29 -158,32 -52,4 -103,5 -154,5 -59,0 -121,-5 -187,-15 -66,-9 -131,-24 -195,-44 -65,-20 -122,-46 -173,-79 -51,-34 -92,-73 -122,-118 -101,113 -204,184 -307,213 -104,28 -218,43 -339,43 -324,0 -556,-85 -698,-256 -88,116 -203,188 -345,215 -141,27 -322,41 -542,41l-164 0c-26,0 -50,-2 -73,-7 -24,-5 -45,-17 -64,-35 -18,-19 -32,-46 -42,-82 -10,-36 -14,-86 -14,-148 0,-113 16,-190 47,-233 31,-43 80,-64 146,-64l174 0zm1287 -2251c0,-94 35,-177 104,-247 69,-70 152,-105 249,-105 94,0 177,35 246,104 69,69 103,152 103,248 0,95 -34,177 -103,247 -69,69 -152,103 -246,103 -95,0 -177,-34 -247,-103 -70,-70 -106,-152 -106,-247zm806 0c0,-94 35,-177 104,-247 69,-70 151,-105 246,-105 95,0 177,35 247,104 70,69 105,152 105,248 0,95 -35,177 -104,247 -69,69 -152,103 -248,103 -95,0 -177,-34 -246,-103 -69,-70 -104,-152 -104,-247zm-391 -716c0,-95 35,-177 104,-247 69,-70 152,-105 248,-105 95,0 177,34 247,103 69,70 103,153 103,249 0,95 -34,177 -103,246 -70,69 -152,104 -247,104 -94,0 -177,-35 -246,-104 -70,-69 -106,-151 -106,-246zm2617 2967c113,0 191,-17 236,-52 44,-34 66,-112 66,-233l0 -1112 642 0 0 1057c0,122 23,209 68,261 46,53 148,79 308,79 26,0 50,3 73,9 23,5 44,17 62,34 17,18 31,45 42,81 11,36 16,85 16,149 0,112 -16,190 -47,232 -31,43 -80,64 -146,64 -95,0 -187,-15 -276,-47 -89,-31 -164,-99 -224,-204 -40,57 -88,101 -143,135 -55,34 -114,59 -177,77 -63,16 -128,27 -196,32 -67,5 -134,7 -200,7l-405 0c-25,0 -50,-2 -73,-7 -24,-5 -45,-17 -64,-35 -18,-19 -32,-46 -42,-82 -9,-36 -14,-86 -14,-148 0,-113 16,-190 47,-233 32,-43 80,-64 146,-64l301 0zm-173 -2251c0,-94 34,-177 103,-247 70,-70 153,-105 249,-105 95,0 177,35 246,104 69,69 104,152 104,248 0,95 -35,177 -104,247 -69,69 -151,103 -246,103 -95,0 -177,-34 -247,-103 -70,-70 -105,-152 -105,-247zm806 0c0,-94 34,-177 103,-247 70,-70 151,-105 247,-105 94,0 177,35 247,104 70,69 104,152 104,248 0,95 -34,177 -104,247 -69,69 -151,103 -247,103 -96,0 -177,-34 -247,-103 -69,-70 -103,-152 -103,-247zm1835 2251c69,0 136,-14 198,-41 63,-27 94,-85 94,-171 0,-59 -37,-139 -111,-239 -74,-99 -172,-206 -294,-319 -123,-112 -261,-223 -415,-334 -155,-110 -311,-206 -470,-288 22,-109 49,-199 82,-270 32,-71 65,-128 97,-170 33,-42 66,-74 97,-97 31,-21 57,-37 76,-47l1724 -760 0 662 -1167 484 0 15c198,129 361,256 490,381 128,126 231,247 309,365 77,119 130,231 160,338 30,107 45,207 45,300 0,79 -11,162 -33,251 -22,88 -64,171 -126,247 -61,77 -149,140 -264,189 -114,49 -262,73 -446,73l-1196 0c-26,0 -51,-2 -74,-7 -23,-5 -44,-17 -63,-35 -18,-19 -32,-46 -42,-82 -10,-36 -14,-86 -14,-148 0,-113 16,-190 47,-233 31,-43 80,-64 146,-64l1150 0zm2159 -2957l0 3526 -637 0 0 -3526 637 0zm1677 2243c0,40 4,82 13,126 10,42 28,82 55,117 26,34 62,63 106,86 44,24 101,35 170,35 43,0 88,-1 131,-5 45,-3 90,-13 137,-28l0 -683 -246 0c-122,0 -214,32 -275,96 -61,65 -91,149 -91,256zm1377 1283c-79,0 -156,-6 -230,-17 -74,-11 -142,-31 -205,-61 -62,-30 -118,-71 -164,-122 -48,-52 -85,-118 -111,-200 -56,12 -113,23 -174,32 -59,9 -118,13 -177,13 -83,0 -178,-12 -287,-37 -109,-24 -211,-70 -309,-136 -97,-66 -179,-158 -247,-275 -67,-117 -101,-268 -101,-451 0,-182 32,-335 96,-460 65,-124 147,-226 247,-306 102,-79 213,-137 336,-171 123,-35 244,-52 363,-52l839 0 0 1478c0,76 10,128 31,155 20,27 66,41 138,41l119 0c25,0 50,3 73,9 23,5 44,17 63,34 19,18 33,45 42,81 9,36 14,85 14,149 0,112 -15,190 -47,232 -31,43 -79,64 -145,64l-164 0zm465 -569c113,0 191,-17 236,-52 44,-34 65,-112 65,-233l0 -1112 643 0 0 1057c0,122 23,209 68,261 46,53 148,79 308,79 25,0 50,3 73,9 23,5 44,17 62,34 17,18 31,45 42,81 11,36 15,85 15,149 0,112 -15,190 -46,232 -32,43 -80,64 -146,64 -95,0 -187,-15 -277,-47 -89,-31 -163,-99 -223,-204 -40,57 -88,101 -143,135 -55,34 -115,59 -177,77 -64,16 -129,27 -196,32 -68,5 -134,7 -200,7l-405 0c-26,0 -50,-2 -74,-7 -23,-5 -44,-17 -63,-35 -18,-19 -32,-46 -42,-82 -10,-36 -14,-86 -14,-148 0,-113 16,-190 47,-233 31,-43 80,-64 146,-64l301 0zm-174 -2251c0,-94 35,-177 104,-247 69,-70 152,-105 249,-105 94,0 177,35 246,104 69,69 104,152 104,248 0,95 -35,177 -104,247 -69,69 -152,103 -246,103 -95,0 -177,-34 -247,-103 -70,-70 -106,-152 -106,-247zm806 0c0,-94 35,-177 104,-247 69,-70 151,-105 246,-105 95,0 177,35 247,104 70,69 105,152 105,248 0,95 -35,177 -104,247 -69,69 -151,103 -248,103 -95,0 -177,-34 -246,-103 -69,-70 -104,-152 -104,-247zm859 2251c73,0 133,-1 180,-5 47,-3 86,-13 116,-28 29,-17 51,-41 63,-72 13,-31 20,-75 20,-132l0 -943 639 0 0 840c0,106 28,189 85,250 58,60 146,90 265,90 98,0 181,-15 248,-43 68,-29 101,-93 101,-194l0 -943 639 0 0 840c0,116 26,201 77,257 50,55 135,83 254,83 92,0 166,-15 222,-46 56,-30 85,-99 85,-205l0 -1146 636 0 0 1057c0,122 25,209 73,261 50,53 156,79 318,79 26,0 50,3 73,9 23,5 44,17 62,34 17,18 31,45 42,81 11,36 16,85 16,149 0,112 -16,190 -47,232 -31,43 -80,64 -146,64 -95,0 -188,-17 -281,-52 -93,-34 -168,-104 -228,-210 -47,62 -95,111 -146,145 -51,35 -102,61 -156,80 -53,18 -105,29 -158,32 -52,4 -103,5 -153,5 -59,0 -122,-5 -188,-15 -66,-9 -131,-24 -195,-44 -64,-20 -122,-46 -173,-79 -50,-34 -91,-73 -122,-118 -101,113 -203,184 -307,213 -103,28 -217,43 -339,43 -324,0 -556,-85 -697,-256 -88,116 -204,188 -345,215 -141,27 -322,41 -543,41l-164 0c-25,0 -50,-2 -73,-7 -24,-5 -44,-17 -63,-35 -18,-19 -32,-46 -42,-82 -10,-36 -14,-86 -14,-148 0,-113 15,-190 47,-233 31,-43 79,-64 145,-64l174 0zm4588 0l0 -1397 647 0 0 1966 -1216 0c-26,0 -51,-2 -74,-7 -24,-5 -44,-17 -63,-35 -18,-19 -32,-46 -42,-82 -10,-36 -14,-86 -14,-148 0,-113 16,-190 47,-233 31,-43 80,-64 146,-64l569 0zm-81 1384c0,-94 34,-177 104,-246 69,-69 151,-104 248,-104 95,0 176,35 246,104 69,69 103,152 103,246 0,95 -34,177 -103,246 -70,70 -151,104 -246,104 -95,0 -178,-34 -248,-104 -70,-69 -104,-151 -104,-246z"/>
   <g>
    <path class="fil1" d="M13370 0c3805,0 6890,3085 6890,6890 0,3805 -3085,6890 -6890,6890 -3805,0 -6889,-3085 -6889,-6890 0,-3805 3084,-6890 6889,-6890z"/>
    <path class="fil2" d="M14670 8840l0 1300 -5200 0 0 -1300 5200 0zm-5200 -3900l0 -1300c2600,0 5200,0 7800,0l-1300 1300c-2166,0 -4333,0 -6500,0zm7800 1300c0,1300 0,2600 0,3900l-1300 0 0 -2600 -6500 0 0 -1300c2600,0 5200,0 7800,0z"/>
   </g>
  </g>
 </g>
</svg>
