<?xml version="1.0" encoding="UTF-8"?>
<!DOCTYPE svg PUBLIC "-//W3C//DTD SVG 1.1//EN" "http://www.w3.org/Graphics/SVG/1.1/DTD/svg11.dtd">
<!-- Creator: CorelDRAW X7 -->
<svg xmlns="http://www.w3.org/2000/svg" xml:space="preserve" width="1.79311in" height="1.79311in" version="1.1" style="shape-rendering:geometricPrecision; text-rendering:geometricPrecision; image-rendering:optimizeQuality; fill-rule:evenodd; clip-rule:evenodd"
viewBox="0 0 17931 17931"
 xmlns:xlink="http://www.w3.org/1999/xlink">
 <defs>
  <style type="text/css">
   <![CDATA[
    .fil1 {fill:#DABA76}
    .fil0 {fill:white}
   ]]>
  </style>
 </defs>
 <g id="Layer_x0020_1">
  <metadata id="CorelCorpID_0Corel-Layer"/>
  <g id="_2622975361344">
   <path class="fil0" d="M8966 0c-4952,0 -8966,4014 -8966,8966 0,4951 4014,8965 8966,8965 4951,0 8965,-4014 8965,-8965 0,-4952 -4014,-8966 -8965,-8966z"/>
   <path class="fil1" d="M9136 3645l0 1436c-57,-3 -116,-4 -174,-4 -56,0 -111,1 -167,3l0 -1435c-295,-74 -506,-336 -506,-656 0,-377 301,-677 677,-677 376,0 676,300 676,677 0,320 -211,582 -506,656zm-170 3488c620,0 1013,390 1154,972 692,-129 1291,263 1291,983 0,568 -462,1027 -1029,1027l-2833 0c-567,0 -1029,-459 -1029,-1027 0,-720 599,-1112 1291,-983 141,-582 534,-972 1155,-972zm-4 5030c884,0 1685,-358 2264,-938 579,-579 938,-1379 938,-2263 0,-884 -359,-1685 -938,-2264 -579,-579 -1380,-937 -2264,-937 -884,0 -1684,358 -2263,937 -579,579 -938,1380 -938,2264 0,884 359,1684 938,2263 579,580 1379,938 2263,938zm0 341c1957,0 3543,-1586 3543,-3542 0,-1957 -1586,-3543 -3543,-3543 -1956,0 -3542,1586 -3542,3543 0,1956 1586,3542 3542,3542zm3447 -1745l1248 720c211,-219 544,-272 823,-112 326,189 436,599 248,925 -189,326 -599,436 -925,248 -277,-160 -398,-474 -316,-765l-1250 -722c62,-96 119,-194 172,-294zm-6725 289l-1243 718c88,294 -33,612 -313,774 -326,188 -736,78 -924,-248 -189,-326 -79,-736 247,-925 276,-159 605,-108 816,105l1246 -719c53,101 110,199 171,295zm-2177 1069c-93,-160 -38,-356 119,-446 165,-95 353,-42 447,119 93,162 45,351 -120,447 -157,90 -354,40 -446,-120zm10917 0c-92,160 -289,210 -446,120 -165,-96 -213,-285 -119,-447 93,-161 281,-214 446,-119 157,90 212,286 119,446zm-5458 -9455c184,0 326,145 326,327 0,190 -140,326 -326,326 -187,0 -327,-136 -327,-326 0,-182 142,-327 327,-327z"/>
  </g>
 </g>
</svg>
