<?xml version="1.0" encoding="UTF-8"?>
<!DOCTYPE svg PUBLIC "-//W3C//DTD SVG 1.1//EN" "http://www.w3.org/Graphics/SVG/1.1/DTD/svg11.dtd">
<!-- Creator: CorelDRAW X7 -->
<svg xmlns="http://www.w3.org/2000/svg" xml:space="preserve" width="27.1654in" height="9.12677in" version="1.1" style="shape-rendering:geometricPrecision; text-rendering:geometricPrecision; image-rendering:optimizeQuality; fill-rule:evenodd; clip-rule:evenodd"
viewBox="0 0 271654 91268"
 xmlns:xlink="http://www.w3.org/1999/xlink">
 <defs>
  <style type="text/css">
   <![CDATA[
    .fil15 {fill:#DBBB83}
    .fil12 {fill:black}
    .fil8 {fill:#BB9B61}
    .fil16 {fill:#D9C49C}
    .fil10 {fill:#DFC596}
    .fil2 {fill:#EDDFC4}
    .fil1 {fill:#F6EFE2}
    .fil0 {fill:#F8F2E8}
    .fil3 {fill:#F9F3EA}
    .fil17 {fill:#FBF5EE}
    .fil11 {fill:black;fill-rule:nonzero}
    .fil9 {fill:#BB9B61;fill-rule:nonzero}
    .fil5 {fill:#C4AA7B;fill-rule:nonzero}
    .fil6 {fill:#C8AE7F;fill-rule:nonzero}
    .fil7 {fill:#D7B77D;fill-rule:nonzero}
    .fil4 {fill:#DFC596;fill-rule:nonzero}
    .fil14 {fill:#EDDFC4;fill-rule:nonzero}
    .fil13 {fill:#F6EFE2;fill-rule:nonzero}
   ]]>
  </style>
 </defs>
 <g id="Layer_x0020_1">
  <metadata id="CorelCorpID_0Corel-Layer"/>
  <g id="_2622728447024">
   <path class="fil0" d="M54689 67595c4089,7902 -2882,15616 -11495,19020 -17600,6956 -40134,-14579 -36211,-22193 3768,-7311 40271,-11193 47706,3173z"/>
   <path class="fil0" d="M69158 64295c-4622,397 -8086,4009 -7737,8068 348,4058 4377,7026 8999,6629 4622,-397 8086,-4008 7738,-8067 -349,-4058 -4378,-7026 -9000,-6630z"/>
   <path class="fil1" d="M271654 60215c-62648,33109 -161936,18363 -163000,-60215l85243 0c-30923,63158 49924,65830 77757,41244l0 18971z"/>
   <path class="fil2" d="M271654 67829c-37117,20468 -75298,29629 -116716,18847 -23090,-6011 -42988,-16735 -67968,-24833 -31648,-10260 -63698,-12663 -86970,20540l0 -82383 137525 0c-605,33145 15798,59585 49579,67551 27302,6438 60311,-344 84550,-11856l0 12134z"/>
   <path class="fil3" d="M243808 27408c5457,8830 -3006,17339 -13703,21037 -21860,7557 -39138,-17480 -34505,-25908 4449,-8093 38289,-11183 48208,4871z"/>
   <g>
    <path class="fil4" d="M213295 36857c0,-2286 -1833,-4119 -4119,-4119 -2270,0 -4103,1833 -4103,4119 0,2270 1833,4103 4103,4103 2286,0 4119,-1833 4119,-4103z"/>
    <path class="fil5" d="M205998 34234c-572,723 -925,1631 -925,2623 0,2270 1833,4103 4103,4103 1278,0 2404,-572 3161,-1463 0,0 -3111,1177 -5011,-723 -1917,-1917 -1328,-4540 -1328,-4540z"/>
    <path class="fil6" d="M211488 35319c353,0 353,-555 0,-555 -370,0 -370,555 0,555z"/>
    <path class="fil6" d="M211673 37807c369,0 369,-555 0,-555 -353,0 -353,555 0,555z"/>
    <path class="fil6" d="M207839 34276c51,68 118,135 185,185 101,118 286,118 404,0 100,-101 100,-285 0,-386 -68,-68 -135,-135 -202,-185 -101,-118 -286,-118 -387,0 -118,101 -118,286 0,386z"/>
   </g>
   <g>
    <path class="fil7" d="M65480 8474c0,-2858 -145,-5687 -419,-8474l-65061 0 0 91268c37655,-9493 65481,-42967 65481,-82794l-1 0z"/>
    <g>
     <g>
      <path class="fil8" d="M0 83119c29315,-6848 54206,-28367 63486,-58658 434,-1415 824,-2816 1186,-4230 -4857,34535 -30775,62491 -64671,71037l0 -8149 -1 0z"/>
      <path class="fil9" d="M43878 47239c-546,0 -547,830 0,830 546,0 547,-830 0,-830z"/>
      <path class="fil9" d="M16550 62632l0 -142c0,-184 -289,-184 -289,0l0 142c0,170 289,170 289,0z"/>
      <path class="fil9" d="M37957 50804c-173,0 -173,269 0,269 188,0 188,-269 0,-269z"/>
      <path class="fil9" d="M26365 71418c-58,-43 -102,-100 -159,-142 -58,-71 -159,28 -87,99 44,43 87,100 145,142 58,57 159,-28 102,-99l-1 0z"/>
      <path class="fil9" d="M13486 71829c-87,0 -87,141 0,141 101,0 101,-141 0,-141z"/>
      <path class="fil9" d="M16348 38920c-44,43 -87,85 -145,142 -58,57 43,155 101,99 58,-57 102,-99 145,-142 72,-70 -28,-169 -101,-99z"/>
      <path class="fil9" d="M10768 52275c58,-56 102,-99 145,-141 72,-71 -28,-170 -87,-100 -58,43 -101,85 -158,142 -58,57 43,155 101,99l-1 0z"/>
      <path class="fil9" d="M22664 53719c-87,0 -87,141 0,141 87,0 87,-141 0,-141z"/>
      <path class="fil9" d="M30094 44664l0 142c0,184 289,184 289,0l0 -142c0,-169 -289,-169 -289,0z"/>
      <path class="fil9" d="M39418 37689l-145 0c-188,0 -188,269 0,269l145 0c188,0 188,-269 0,-269z"/>
      <path class="fil9" d="M55723 38538l-145 0c-173,0 -173,283 0,283l145 0c188,0 188,-283 0,-283z"/>
      <path class="fil9" d="M14368 73115c-275,0 -275,410 0,410 275,0 275,-410 0,-410z"/>
      <path class="fil9" d="M26235 59491l0 -142c0,-113 -102,-212 -217,-212 -115,14 -217,99 -217,212l0 142c0,113 102,212 217,212 115,-14 217,-99 217,-212z"/>
      <path class="fil9" d="M20337 52517c-361,0 -361,551 0,551 362,0 362,-551 0,-551z"/>
      <path class="fil9" d="M36801 44820c-188,0 -188,269 0,269 174,0 174,-269 0,-269z"/>
      <path class="fil9" d="M41311 44098c-188,0 -188,283 0,283 188,0 188,-283 0,-283z"/>
      <path class="fil9" d="M51791 35836c-174,0 -174,269 0,269 188,0 188,-269 0,-269z"/>
      <path class="fil9" d="M54118 31974l0 -142c0,-170 -274,-170 -274,0l0 142c0,184 274,184 274,0z"/>
      <path class="fil9" d="M55824 33784c58,-42 101,-99 144,-141 130,-128 -58,-325 -188,-198 -58,57 -101,99 -145,142 -130,127 58,325 189,197z"/>
      <path class="fil9" d="M55000 35256c-189,0 -189,283 0,283 188,0 188,-283 0,-283z"/>
      <path class="fil9" d="M58932 35681l0 -142c0,-170 -289,-170 -289,0l0 142c0,184 289,184 289,0z"/>
      <path class="fil9" d="M53988 40957l-158 0c-174,0 -174,283 0,283l158 0c174,0 174,-283 0,-283z"/>
      <path class="fil9" d="M51357 38538c-173,0 -173,283 0,283 188,0 188,-283 0,-283z"/>
      <path class="fil9" d="M35052 32695c-188,0 -188,283 0,283 173,0 173,-283 0,-283z"/>
      <path class="fil9" d="M30238 35397c-173,0 -188,283 0,283 188,0 188,-283 0,-283z"/>
      <path class="fil9" d="M27478 38963c-189,0 -189,282 0,282 173,0 173,-282 0,-282z"/>
      <path class="fil9" d="M50779 45669c-188,0 -188,282 0,282 174,0 174,-282 0,-282z"/>
      <path class="fil9" d="M47714 50225c-173,0 -173,282 0,282 189,0 189,-282 0,-282z"/>
      <path class="fil9" d="M4162 49092l-145 0c-173,0 -173,269 0,269l145 0c188,0 188,-269 0,-269z"/>
      <path class="fil9" d="M8687 44381l0 -142c0,-184 -289,-184 -289,0l0 142c0,184 289,184 289,0z"/>
      <path class="fil9" d="M16261 47097c-188,0 -188,269 0,269 173,0 173,-269 0,-269z"/>
      <path class="fil9" d="M3006 56223c-188,0 -188,269 0,269 173,0 173,-269 0,-269z"/>
      <path class="fil9" d="M12315 59491l0 -142c0,-184 -275,-184 -275,0l0 142c0,184 275,184 275,0z"/>
      <path class="fil9" d="M15827 68051c-188,0 -188,283 0,283 174,0 174,-283 0,-283z"/>
      <path class="fil9" d="M6055 75040c-173,0 -173,269 0,269 189,0 189,-269 0,-269z"/>
      <path class="fil9" d="M7328 80260c43,-42 101,-99 145,-141 130,-128 -72,-325 -202,-198 -44,57 -87,99 -145,142 -130,127 72,325 202,197z"/>
      <path class="fil9" d="M34329 58077c44,-57 87,-100 145,-142 72,-85 72,-227 0,-297 -87,-85 -231,-85 -303,0 -44,42 -102,99 -145,142 -87,70 -87,212 0,297 72,70 217,70 303,0z"/>
      <path class="fil9" d="M24269 65702c-275,0 -275,410 0,410 275,0 275,-410 0,-410z"/>
      <path class="fil9" d="M20988 70329l0 -142c0,-113 -102,-212 -217,-212 -115,0 -217,99 -217,212l0 142c0,112 102,212 217,212 115,-15 217,-100 217,-212z"/>
      <path class="fil9" d="M12185 41184c-275,0 -275,410 0,410 275,0 275,-410 0,-410z"/>
      <path class="fil9" d="M20337 32907l-145 0c-115,0 -216,100 -216,213 14,113 101,212 216,212l145 0c116,0 217,-99 217,-212 -15,-113 -101,-213 -217,-213z"/>
      <path class="fil9" d="M28345 30064c-275,0 -275,410 0,410 275,0 275,-410 0,-410z"/>
      <path class="fil9" d="M38102 27065l-145 0c-115,0 -217,99 -217,212 15,113 102,212 217,212l145 0c115,0 217,-99 217,-212 0,-113 -102,-212 -217,-212z"/>
      <path class="fil9" d="M39418 31634c-275,0 -275,410 0,410 275,0 275,-410 0,-410z"/>
      <path class="fil9" d="M41890 32907c-275,0 -275,425 0,425 274,0 274,-425 0,-425z"/>
      <path class="fil9" d="M23098 44028l-145 0c-102,0 -217,99 -202,212 0,113 87,212 202,212l145 0c115,0 217,-99 217,-212 0,-113 -87,-212 -217,-212z"/>
      <path class="fil9" d="M19759 40463c-275,0 -275,424 0,424 275,0 275,-424 0,-424z"/>
      <path class="fil9" d="M14801 40745c-275,0 -275,425 0,425 275,0 275,-425 0,-425z"/>
      <path class="fil9" d="M12040 44890c-275,0 -275,410 0,410 260,0 275,-410 0,-410z"/>
      <path class="fil9" d="M17417 75747c-362,0 -362,566 0,566 376,0 376,-566 0,-566z"/>
      <path class="fil9" d="M22289 49743c-58,-42 -102,-99 -145,-142 -116,-99 -304,-112 -405,0 -102,113 -116,283 0,397 43,42 101,85 145,142 101,99 303,113 405,0 101,-113 101,-283 0,-397z"/>
      <path class="fil9" d="M27767 51568c-86,43 -188,100 -288,142 -131,71 -174,255 -102,382 87,127 246,170 390,99 102,-42 202,-99 289,-141 130,-71 188,-255 102,-382 -87,-128 -246,-170 -391,-100z"/>
      <path class="fil9" d="M58932 27786c-275,0 -275,410 0,410 275,0 275,-410 0,-410z"/>
      <path class="fil9" d="M52687 26004c44,-43 102,-85 145,-128 87,-85 87,-226 0,-297 -86,-85 -217,-85 -289,0 -58,43 -101,85 -158,127 -87,85 -72,227 0,298 86,84 217,70 303,0l-1 0z"/>
      <path class="fil9" d="M50201 28918c-275,0 -275,424 0,424 260,0 275,-424 0,-424z"/>
      <path class="fil9" d="M44216 28493c-260,0 -260,410 0,410 275,0 275,-410 0,-410z"/>
      <path class="fil9" d="M45243 32625c-275,0 -275,424 0,424 274,0 274,-424 0,-424z"/>
      <path class="fil9" d="M50634 30913c-274,0 -274,424 0,424 275,0 275,-424 0,-424z"/>
      <path class="fil9" d="M58353 24928c-274,0 -274,410 0,410 275,0 275,-410 0,-410z"/>
      <path class="fil9" d="M15235 51299c-275,0 -275,425 0,425 275,0 275,-425 0,-425z"/>
      <path class="fil9" d="M13774 55006c-260,0 -260,410 0,410 275,0 275,-410 0,-410z"/>
      <path class="fil9" d="M4321 52729c-275,0 -275,410 0,410 260,0 260,-410 0,-410z"/>
      <path class="fil9" d="M6937 52729c-274,0 -274,410 0,410 275,0 275,-410 0,-410z"/>
      <path class="fil9" d="M28923 65136c-260,0 -274,410 0,410 275,0 275,-410 0,-410z"/>
      <path class="fil9" d="M13486 34336c-275,0 -275,410 0,410 275,0 275,-410 0,-410z"/>
      <path class="fil9" d="M8687 37194c-275,0 -275,410 0,410 275,0 275,-410 0,-410z"/>
      <path class="fil9" d="M19759 58005c-275,0 -275,410 0,410 275,0 275,-410 0,-410z"/>
      <path class="fil9" d="M16116 58713c-275,0 -275,410 0,410 275,0 275,-410 0,-410z"/>
      <path class="fil9" d="M12329 65844c-274,0 -274,410 0,410 275,0 275,-410 0,-410z"/>
      <path class="fil9" d="M7226 70541c-275,0 -275,424 0,424 275,0 275,-424 0,-424z"/>
      <path class="fil9" d="M9698 72111c-275,0 -275,425 0,425 275,0 275,-425 0,-425z"/>
      <path class="fil9" d="M9409 75394c-275,0 -275,410 0,410 275,0 275,-410 0,-410z"/>
      <path class="fil9" d="M8455 47861c44,-42 87,-99 145,-141 188,-185 188,-510 0,-694 -202,-170 -506,-184 -709,0 -43,57 -86,99 -144,142 -174,184 -189,509 0,693 202,170 505,185 708,0z"/>
      <path class="fil9" d="M49030 33983l-145 0c-188,0 -188,269 0,269l145 0c188,0 188,-269 0,-269z"/>
      <path class="fil9" d="M38247 59208c-174,0 -174,283 0,283 188,0 188,-283 0,-283z"/>
      <path class="fil9" d="M34850 56025c58,-42 101,-99 145,-142 130,-127 -59,-325 -189,-198 -58,57 -101,100 -145,142 -130,128 59,325 189,198z"/>
      <path class="fil9" d="M41022 54073c-188,0 -188,282 0,282 174,0 174,-282 0,-282z"/>
      <path class="fil9" d="M41890 48512l0 -141c0,-170 -289,-170 -289,0l0 141c0,185 289,185 289,0z"/>
      <path class="fil9" d="M20482 67627l-145 0c-188,0 -188,269 0,269l145 0c188,0 188,-269 0,-269z"/>
      <path class="fil9" d="M16983 71475c-173,0 -173,269 0,269 189,0 189,-269 0,-269z"/>
      <path class="fil9" d="M6359 45881c-275,0 -275,424 0,424 275,0 275,-424 0,-424z"/>
      <path class="fil9" d="M6055 47169c-260,0 -260,410 0,410 275,0 275,-410 0,-410z"/>
      <path class="fil9" d="M4321 45881c-275,0 -275,424 0,424 260,0 260,-424 0,-424z"/>
      <path class="fil9" d="M6793 44169c-275,0 -275,424 0,424 275,0 275,-424 0,-424z"/>
      <path class="fil9" d="M4754 44890c-274,0 -274,410 0,410 275,0 275,-410 0,-410z"/>
      <path class="fil9" d="M14223 71616c-362,0 -376,552 0,552 361,0 361,-552 0,-552z"/>
      <path class="fil9" d="M1690 57213c-173,0 -173,283 0,283 189,0 189,-283 0,-283z"/>
      <path class="fil9" d="M2572 57213c-375,0 -375,567 0,567 362,0 362,-567 0,-567z"/>
      <path class="fil8" d="M41563 15310c1469,-4033 5015,-6476 8284,-5922 -505,-449 -1081,-809 -1724,-1055 -3524,-1344 -7699,1185 -9323,5650 -1625,4464 -87,9173 3437,10518 341,130 689,213 1040,273 -2255,-2006 -3042,-5816 -1714,-9464z"/>
      <path class="fil8" d="M19517 58087c2108,-900 4340,-449 5300,977 -6,-350 -72,-696 -208,-1026 -741,-1806 -3233,-2462 -5566,-1466 -2334,997 -3624,3268 -2883,5074 71,175 164,335 267,488 -26,-1567 1183,-3233 3090,-4047z"/>
      <path class="fil8" d="M12716 67087c1367,-915 3009,-891 3885,-9 -53,-247 -147,-483 -288,-699 -774,-1180 -2629,-1314 -4142,-300 -1513,1014 -2113,2792 -1339,3972 75,114 163,215 257,310 -235,-1106 390,-2445 1627,-3274z"/>
      <path class="fil9" d="M6967 1652c-393,0 -393,-606 0,-606 422,0 422,606 0,606z"/>
      <path class="fil9" d="M41302 54580c-393,0 -393,-606 0,-606 422,0 422,606 0,606z"/>
      <path class="fil9" d="M34891 3386l-309 0c-393,0 -393,-606 0,-606l309 0c393,0 422,606 0,606z"/>
      <path class="fil9" d="M26568 28047c-225,0 -225,-303 0,-303 197,0 197,303 0,303z"/>
      <path class="fil9" d="M5702 52543c-198,0 -198,-302 0,-302 197,0 197,302 0,302z"/>
      <path class="fil9" d="M6967 47974c-393,0 -393,-606 0,-606 422,0 422,606 0,606z"/>
      <path class="fil9" d="M1512 17836l0 302c0,413 -619,413 -619,0l0 -302c0,-385 619,-385 619,0z"/>
      <path class="fil9" d="M22377 20037l-309 0c-422,0 -422,-632 0,-632l309 0c393,0 393,632 0,632z"/>
      <path class="fil9" d="M17879 64323l0 302c0,413 -620,413 -620,0l0 -302c0,-385 620,-385 620,0z"/>
      <path class="fil9" d="M6967 69331l-309 0c-393,0 -393,-606 0,-606l309 0c422,0 422,606 0,606z"/>
      <path class="fil9" d="M40683 32423c-619,0 -619,-908 0,-908 591,0 591,908 0,908z"/>
      <path class="fil9" d="M14842 5892l0 330c0,219 -225,467 -478,441 -253,0 -477,-193 -477,-441l0 -330c0,-220 224,-468 477,-441 253,0 478,193 478,441z"/>
      <path class="fil9" d="M14025 44671c-591,0 -591,-908 0,-908 619,0 619,908 0,908z"/>
      <path class="fil9" d="M33934 33855l0 302c0,413 -646,413 -646,0l0 -302c0,-385 646,-385 646,0z"/>
      <path class="fil9" d="M33934 43900c-393,0 -393,-606 0,-606 393,0 393,606 0,606z"/>
      <path class="fil9" d="M16613 35423c-422,0 -422,-632 0,-632 393,0 393,632 0,632z"/>
      <path class="fil9" d="M33204 22955c84,111 197,220 308,331 282,275 -168,688 -450,413 -84,-111 -198,-194 -309,-303 -282,-275 140,-715 451,-441z"/>
      <path class="fil9" d="M43889 21606c-422,0 -422,-632 0,-632 393,0 393,632 0,632z"/>
      <path class="fil9" d="M52549 32423c-619,0 -619,-908 0,-908 591,0 591,908 0,908z"/>
      <path class="fil9" d="M50132 15001l0 330c0,220 -225,467 -478,441 -253,0 -450,-193 -450,-441l0 -330c0,-220 197,-468 450,-441 253,0 478,193 478,441z"/>
      <path class="fil9" d="M30728 54717c-619,0 -619,-909 0,-909 591,0 591,909 0,909z"/>
      <path class="fil9" d="M8570 62452c-113,-111 -197,-220 -309,-331 -197,-165 -197,-467 0,-632 169,-193 478,-193 647,0 113,111 224,193 337,302 169,193 169,468 0,661 -197,165 -478,165 -675,0z"/>
      <path class="fil9" d="M6011 33689l-309 0c-253,0 -478,-219 -478,-467 29,-248 198,-467 478,-467l309 0c253,0 477,219 477,467 -29,248 -197,467 -477,467z"/>
      <path class="fil9" d="M3115 42166c-590,0 -590,-908 0,-908 619,0 619,908 0,908z"/>
      <path class="fil9" d="M24936 43268c-788,0 -788,-1239 0,-1239 815,0 815,1239 0,1239z"/>
      <path class="fil9" d="M18187 25048l0 330c0,302 -281,632 -619,606 -337,-28 -619,-276 -619,-606l0 -330c0,-302 282,-606 619,-606 338,28 619,275 619,606z"/>
      <path class="fil9" d="M6967 14038c-788,0 -788,-1211 0,-1211 815,0 815,1211 0,1211z"/>
      <path class="fil9" d="M52212 4790c-591,0 -591,-908 0,-908 619,0 619,908 0,908z"/>
      <path class="fil9" d="M35228 15772c-1012,0 -1012,-1514 0,-1514 984,0 984,1514 0,1514z"/>
      <path class="fil9" d="M22299 59717c113,-111 197,-220 309,-302 281,-276 730,137 450,413 -113,110 -224,219 -337,330 -282,276 -704,-165 -422,-441z"/>
      <path class="fil9" d="M24317 64323c-422,0 -422,-633 0,-633 393,0 393,633 0,633z"/>
      <path class="fil9" d="M14362 19707c-393,0 -393,-606 0,-606 393,0 393,606 0,606z"/>
      <path class="fil9" d="M20465 24744c-422,0 -422,-606 0,-606 393,0 393,606 0,606z"/>
      <path class="fil9" d="M18862 20341c-422,0 -422,-606 0,-606 393,0 393,606 0,606z"/>
      <path class="fil9" d="M15656 22845c-421,0 -421,-606 0,-606 394,0 394,606 0,606z"/>
      <path class="fil9" d="M31854 19763c224,-110 422,-193 646,-302 337,-193 675,358 309,524 -225,110 -422,219 -646,302 -367,193 -675,-331 -309,-524z"/>
      <path class="fil9" d="M39699 22212c-393,0 -393,-606 0,-606 422,0 422,606 0,606z"/>
      <path class="fil9" d="M44198 39965c-591,0 -591,-909 0,-909 619,0 619,909 0,909z"/>
      <path class="fil9" d="M43889 44039c-619,0 -619,-909 0,-909 590,0 590,909 0,909z"/>
      <path class="fil9" d="M50300 38259c-84,111 -197,220 -308,302 -169,193 -478,193 -675,0 -169,-165 -169,-467 0,-632 113,-111 224,-220 337,-303 169,-193 478,-193 646,0 198,166 198,468 0,633z"/>
      <path class="fil9" d="M14025 47644c-788,0 -788,-1211 0,-1211 815,0 815,1211 0,1211z"/>
      <path class="fil9" d="M3115 9662c-393,0 -393,-606 0,-606 422,0 422,606 0,606z"/>
      <path class="fil9" d="M1850 5259c-393,0 -393,-606 0,-606 393,0 393,606 0,606z"/>
     </g>
     <g>
      <path class="fil7" d="M46964 58299l0 -285c0,-217 -195,-425 -424,-415 -230,10 -424,182 -424,415l0 285c0,217 195,425 424,415 230,-10 424,-182 424,-415z"/>
      <path class="fil7" d="M24269 76313c-188,0 -188,283 0,283 188,0 188,-283 0,-283z"/>
      <path class="fil7" d="M22308 79028l0 -142c0,-112 -101,-212 -217,-212 -115,15 -216,100 -216,212l0 142c0,113 101,212 216,212 116,-14 217,-99 217,-212z"/>
      <path class="fil7" d="M6348 84883c-619,0 -619,-909 0,-909 591,0 591,909 0,909z"/>
      <path class="fil7" d="M20128 80176c-591,0 -591,-936 0,-936 619,0 619,936 0,936z"/>
      <path class="fil7" d="M46249 53466c-364,0 -364,553 0,553 364,0 365,-553 0,-553z"/>
      <path class="fil7" d="M37350 63297c-43,142 -101,283 -145,425 -58,170 217,240 275,70 44,-142 102,-282 145,-424 58,-170 -217,-240 -275,-71z"/>
      <path class="fil7" d="M32855 68051c-174,0 -174,283 0,283 188,0 188,-283 0,-283z"/>
      <path class="fil7" d="M41311 66197c-188,0 -188,283 0,283 188,0 188,-283 0,-283z"/>
      <path class="fil7" d="M52818 49234l-145 0c-189,0 -189,269 0,269l145 0c188,0 188,-269 0,-269z"/>
      <path class="fil7" d="M58686 38014c-44,43 -102,85 -145,142 -130,127 72,325 202,198 43,-57 101,-99 145,-142 130,-127 -72,-325 -202,-198z"/>
      <path class="fil7" d="M51383 52182c-188,0 -188,283 0,283 188,0 188,-283 0,-283z"/>
      <path class="fil7" d="M44375 60142l-159 0c-101,0 -216,99 -202,212 0,113 87,198 202,198l159 0c102,0 217,-99 202,-198 0,-113 -86,-212 -202,-212z"/>
      <path class="fil7" d="M28923 72394c-260,0 -274,424 0,424 275,0 275,-424 0,-424z"/>
      <path class="fil7" d="M31988 30785c-636,0 -636,962 0,962 635,0 635,-962 0,-962z"/>
      <path class="fil7" d="M35228 65726c-619,0 -619,-936 0,-936 591,0 591,936 0,936z"/>
      <path class="fil7" d="M18525 52515c-591,0 -591,-908 0,-908 619,0 619,908 0,908z"/>
      <path class="fil7" d="M58006 3855c-619,0 -619,-936 0,-936 590,0 590,936 0,936z"/>
      <path class="fil7" d="M9864 78277c-590,0 -590,-908 0,-908 619,0 619,908 0,908z"/>
      <path class="fil7" d="M18525 73571c-591,0 -591,-909 0,-909 619,0 619,909 0,909z"/>
      <path class="fil7" d="M48051 42470c-1405,0 -1405,-2147 0,-2147 1406,0 1406,2147 0,2147z"/>
      <path class="fil7" d="M10650 24744l0 302c0,578 -506,1101 -1096,1073 -591,-28 -1097,-467 -1097,-1073l0 -302c0,-550 506,-1102 1097,-1074 590,29 1096,468 1096,1074z"/>
     </g>
    </g>
   </g>
   <path class="fil10" d="M218791 60762c952,31 1715,812 1720,1779l15 0c8,-967 771,-1748 1720,-1779 -954,-31 -1720,-820 -1720,-1793l-13 0c0,973 -765,1762 -1722,1793z"/>
   <path class="fil2" d="M58094 61547c1484,48 2673,1266 2681,2774l24 0c13,-1508 1202,-2726 2682,-2774 -1488,-49 -2682,-1279 -2682,-2795l-20 0c0,1516 -1193,2746 -2685,2795z"/>
   <g>
    <g>
     <g>
      <path class="fil7" d="M168470 30144c0,10112 -8240,18351 -18351,18351 -10112,0 -18297,-8239 -18297,-18351 0,-10112 8185,-18297 18297,-18297 10111,0 18351,8185 18351,18297z"/>
      <g>
       <path class="fil9" d="M135995 41754c-2622,-3157 -4173,-7169 -4173,-11610 0,-10112 8185,-18297 18297,-18297 5671,0 10700,2568 14071,6580 0,0 -13804,-5296 -22310,3211 -8507,8506 -5885,20116 -5885,20116z"/>
       <path class="fil9" d="M153245 20037c-214,214 -428,428 -642,642 -321,321 -321,910 0,1231 374,321 909,321 1284,0 214,-214 374,-428 588,-589 321,-374 321,-963 0,-1284 -321,-321 -909,-321 -1230,0z"/>
       <path class="fil9" d="M157617 41885c1177,0 1177,-1819 0,-1819 -1124,0 -1124,1819 0,1819z"/>
       <path class="fil9" d="M146648 27200c1498,0 1498,-2407 0,-2407 -1552,0 -1552,2407 0,2407z"/>
      </g>
      <g>
       <path class="fil9" d="M143454 30416l642 0c749,0 749,-1177 0,-1177l-642 0c-749,0 -749,1177 0,1177z"/>
       <path class="fil9" d="M156216 34423c2675,0 2675,-4173 0,-4173 -2675,0 -2675,4173 0,4173z"/>
      </g>
     </g>
     <path class="fil1" d="M153603 35357l0 3458 -13830 0 0 -3458 13830 0zm-13830 -10373l0 -3457c6915,0 13830,0 20745,0l-3457 3457c-5763,0 -11526,0 -17288,0zm20745 3458c0,3458 0,6915 0,10373l-3457 0 0 -6915 0 0 -17288 0 0 -3458c6915,0 13830,0 20745,0z"/>
    </g>
    <path class="fil11" d="M78844 20431l-1621 0 0 -1572c0,-230 44,-442 132,-631 88,-191 203,-357 349,-499 145,-143 316,-259 514,-354 197,-95 401,-161 616,-202l0 750c-201,39 -371,149 -509,328 -139,181 -208,376 -208,584l727 0 0 1596zm35070 22957c0,281 -98,515 -292,696 -193,182 -478,274 -847,274l-2112 0 0 -733 2051 0c202,0 329,-31 380,-93 52,-61 78,-130 78,-208 0,-58 -13,-120 -35,-184 -22,-64 -81,-170 -172,-315 -91,-144 -226,-345 -399,-601 -174,-256 -411,-603 -710,-1043l682 -427c235,405 440,747 612,1024 171,276 315,512 427,707 112,194 197,361 253,500 56,139 84,274 84,403zm2626 -1988l715 0 0 2462c0,434 -26,805 -75,1102 -49,296 -148,539 -287,720 -140,181 -339,316 -587,396 -249,80 -573,123 -970,123l0 -732c287,0 514,-33 675,-93 161,-60 285,-164 364,-300 78,-136 129,-317 142,-530 14,-215 23,-475 23,-780l0 -2368zm4846 1988c0,281 -99,515 -292,696 -193,181 -480,274 -847,274l-2112 0 0 -733 2051 0c202,0 328,-31 380,-93 51,-61 78,-130 78,-208 0,-58 -14,-121 -35,-184 -22,-63 -82,-171 -173,-315 -90,-143 -225,-345 -398,-601 -174,-256 -411,-603 -710,-1043l682 -427c235,405 441,748 612,1024 170,276 315,512 427,707 111,194 197,362 253,500 55,138 84,274 84,403zm-54682 -591l-715 0 0 -4726 715 0 0 4726zm-871 1139c-3,-147 47,-271 147,-371 100,-100 224,-152 371,-152 147,0 269,52 371,152 100,100 150,224 150,371 0,145 -50,269 -150,371 -102,100 -224,150 -371,150 -147,0 -271,-50 -371,-150 -100,-102 -150,-226 -147,-371zm2942 -1884c0,247 78,447 235,600 157,154 405,231 743,231 130,0 270,-14 421,-42 150,-28 285,-68 403,-116l0 -1571 -777 0c-280,0 -523,72 -724,214 -202,142 -301,371 -301,684zm918 1582c-142,0 -303,-22 -489,-63 -185,-42 -364,-117 -531,-224 -168,-107 -311,-260 -428,-459 -118,-199 -177,-456 -177,-771 0,-320 56,-586 168,-801 111,-213 256,-389 433,-524 176,-135 372,-232 587,-291 213,-58 427,-88 640,-88l1405 0 0 2531c0,247 39,423 114,525 76,105 247,156 512,156l210 0c236,0 353,118 353,353 0,148 -28,248 -84,301 -55,52 -146,79 -269,79l-297 0c-151,0 -299,-13 -437,-38 -140,-26 -264,-74 -374,-143 -109,-68 -202,-159 -278,-269 -75,-110 -125,-256 -149,-434 -129,47 -275,85 -437,114 -162,30 -319,46 -472,46zm2444 724c-234,0 -353,-118 -353,-353 0,-147 28,-248 84,-300 55,-53 146,-80 269,-80l1307 0c235,0 353,118 353,353 0,148 -28,248 -84,301 -55,52 -146,79 -269,79l-1307 0zm6739 0c-224,0 -419,-43 -585,-131 -165,-87 -297,-238 -398,-452l0 -16c-112,224 -276,400 -489,525 -215,127 -484,190 -808,190 -282,0 -563,-48 -843,-142 -281,-95 -570,-254 -868,-479 -78,118 -157,211 -236,278 -79,68 -163,119 -253,152 -88,33 -180,53 -274,62 -92,8 -193,13 -298,13l-380 0c-235,0 -353,-118 -353,-353 0,-147 28,-248 84,-300 55,-53 145,-80 269,-80l362 0c72,0 146,-10 222,-26 76,-17 153,-55 228,-114 76,-59 153,-141 225,-244 73,-102 146,-242 209,-418 136,-375 278,-681 427,-914 149,-232 302,-412 459,-538 156,-126 317,-212 479,-253 161,-42 322,-62 481,-62 218,0 423,42 613,126 192,85 358,206 495,362 137,157 247,343 325,557 79,214 118,454 118,722 0,40 -2,80 -5,119 -2,38 -4,75 -4,109 59,190 144,334 257,430 113,96 293,144 541,144 236,0 351,118 350,353 -1,147 -28,248 -83,301 -54,53 -144,79 -267,79zm-1522 -1561c0,-128 -19,-256 -56,-381 -37,-125 -93,-235 -168,-329 -74,-92 -165,-168 -269,-223 -106,-56 -228,-84 -369,-84 -248,0 -475,109 -682,328 -206,218 -400,600 -581,1146 218,142 435,254 649,340 213,86 433,130 658,130 247,0 445,-70 594,-211 149,-140 224,-379 224,-716zm1517 1561c-234,0 -353,-118 -353,-353 0,-147 28,-248 84,-300 55,-53 146,-80 269,-80l1406 0c-58,-84 -114,-202 -168,-353 -55,-153 -83,-341 -83,-565 0,-305 72,-592 214,-861 141,-268 360,-456 653,-562 -118,0 -235,1 -353,4 -118,3 -239,8 -362,14l0 -660c640,-35 1216,-5 1726,89 510,93 940,262 1289,506 349,244 617,571 802,980 186,410 278,908 278,1494l0 647 -5402 0zm2480 -733c123,0 227,-31 310,-93 83,-61 149,-138 196,-228 47,-90 80,-191 97,-300 17,-108 25,-210 25,-306 0,-129 -11,-255 -34,-375 -22,-121 -61,-229 -114,-324 -53,-94 -121,-168 -205,-219 -84,-51 -184,-78 -302,-78 -207,0 -368,94 -481,282 -113,189 -169,433 -169,732 0,106 9,212 29,319 21,106 57,202 106,286 50,85 116,155 195,211 77,56 179,93 303,93l44 0zm2181 0c0,-630 -129,-1115 -384,-1457 -257,-342 -604,-581 -1044,-716 102,78 183,169 246,272 63,103 116,209 157,316 42,109 71,217 84,325 14,111 22,212 22,307 0,225 -21,415 -60,569 -40,156 -88,284 -143,384l1122 0zm7341 626c0,766 -213,1327 -636,1668 -423,341 -1018,513 -1783,513 -813,0 -1422,-180 -1824,-539 -401,-358 -603,-883 -603,-1569l0 -1363 715 0 0 1212c0,279 38,523 110,719 73,198 183,359 326,477 143,119 326,207 543,259 218,52 469,80 750,80 293,0 547,-22 760,-61 211,-39 387,-116 525,-228 138,-112 241,-264 305,-450 64,-188 97,-431 97,-727l0 -2842 715 0 0 1255c0,144 9,281 28,401 18,120 59,223 120,304 61,81 150,147 259,195 110,46 264,70 460,70 141,0 263,-6 366,-17 103,-12 188,-40 256,-84 68,-45 119,-110 152,-195 32,-83 48,-200 48,-347l0 -1582 721 0 0 1255c0,144 12,281 33,401 20,119 60,223 116,304 55,81 134,147 232,195 98,46 227,70 382,70l741 0 0 -2665 724 0 0 3398 -1465 0c-228,0 -416,-55 -554,-163 -139,-110 -232,-246 -278,-411 -106,241 -276,398 -505,468 -228,70 -519,106 -871,106 -281,0 -497,-43 -644,-127 -147,-83 -255,-186 -321,-304l0 324zm8005 107c-195,0 -358,-44 -487,-131 -129,-87 -225,-191 -288,-309 0,422 -25,781 -75,1071 -50,291 -147,530 -287,708 -141,179 -337,309 -583,387 -247,78 -568,119 -965,119l0 -732c287,0 513,-32 675,-93 161,-61 283,-163 364,-300 79,-137 129,-316 142,-530 14,-216 21,-475 21,-780l0 -2368 717 0 0 1255c0,297 54,536 163,710 109,173 311,260 603,260 236,0 354,118 354,353 0,148 -29,248 -84,301 -55,52 -146,79 -270,79zm-4 0c-232,0 -353,-118 -353,-353 0,-147 29,-248 84,-300 55,-52 145,-80 269,-80l590 0c141,0 263,-7 362,-17 101,-11 186,-41 253,-84 67,-44 118,-110 150,-195 32,-83 50,-200 50,-347l0 -2022 724 0 0 1695c0,144 12,281 31,401 19,119 60,223 118,304 58,81 139,148 237,195 99,47 227,70 383,70 235,0 353,118 353,353 0,148 -29,248 -84,301 -55,52 -146,79 -269,79 -230,0 -417,-55 -557,-163 -141,-109 -235,-246 -285,-411 -106,241 -273,398 -498,468 -224,70 -505,106 -834,106l-724 0zm697 -4884c0,-130 48,-240 139,-330 91,-90 201,-137 331,-137 129,0 239,47 330,137 90,91 136,200 136,330 0,129 -47,240 -136,331 -90,91 -201,138 -330,138 -130,0 -239,-46 -331,-138 -92,-92 -139,-202 -139,-331zm1147 0c0,-130 48,-241 138,-330 92,-90 203,-137 333,-137 128,0 238,46 329,137 90,90 136,200 136,330 0,129 -47,240 -136,331 -90,92 -201,138 -329,138 -130,0 -240,-45 -333,-138 -91,-91 -138,-202 -138,-331zm1049 4884c-232,0 -353,-118 -353,-353 0,-147 29,-248 84,-300 55,-52 146,-80 269,-80l1307 0c235,0 353,118 353,353 0,148 -29,248 -84,301 -55,52 -147,79 -269,79l-1307 0zm1617 -733c196,0 362,-7 493,-17 133,-11 243,-41 323,-84 78,-43 138,-110 172,-195 33,-82 51,-200 51,-347l0 -1591 724 0 0 1264c0,144 11,281 28,401 18,120 61,223 125,304 64,81 157,147 274,195 117,46 280,70 483,70 129,0 243,-6 341,-17 97,-11 179,-41 243,-84 64,-44 113,-110 144,-195 31,-83 49,-200 49,-347l0 -1582 724 0 0 1255c0,144 11,281 32,401 21,120 61,223 117,304 54,81 134,148 232,195 99,47 227,70 381,70l742 0 0 -2665 721 0 0 3398 -1463 0c-228,0 -415,-55 -553,-163 -139,-109 -233,-246 -278,-411 -106,241 -273,398 -496,468 -223,70 -495,106 -811,106 -206,0 -377,-18 -508,-50 -131,-32 -244,-77 -331,-131 -86,-53 -157,-119 -206,-190 -49,-71 -93,-143 -128,-212 -51,124 -118,224 -197,296 -80,73 -185,133 -311,177 -126,44 -283,75 -468,88 -184,13 -409,22 -666,22l-293 0c-234,0 -353,-118 -353,-353 0,-147 28,-248 84,-300 55,-52 145,-80 269,-80l310 0zm-36680 -10044c0,230 37,440 110,632 74,191 197,356 371,493 174,138 403,245 690,322 286,76 640,113 1063,113 304,0 597,-22 877,-66 281,-44 528,-107 743,-190 216,-82 387,-182 513,-303 127,-121 190,-258 190,-411 0,-135 -44,-248 -134,-339 -88,-93 -257,-201 -504,-324 -175,-90 -339,-181 -489,-274 -152,-93 -281,-197 -388,-312 -108,-116 -195,-244 -261,-388 -66,-145 -99,-314 -99,-510 0,-223 40,-450 121,-678 80,-228 200,-436 362,-621 161,-185 362,-336 604,-450 241,-115 526,-173 857,-173 196,0 368,23 517,67 150,44 237,72 259,84l0 741c-118,-34 -246,-63 -383,-88 -138,-25 -275,-37 -410,-37 -196,0 -368,31 -517,93 -150,62 -273,143 -371,244 -98,100 -172,212 -220,336 -49,123 -74,247 -74,371 0,117 22,219 65,304 44,84 103,162 179,233 77,70 165,135 265,194 102,59 211,121 328,187 202,112 370,215 505,309 134,93 242,184 321,274 79,88 137,178 172,269 35,90 55,188 55,294 0,247 -56,486 -170,717 -111,229 -291,433 -538,609 -247,177 -567,319 -957,427 -391,109 -864,162 -1418,162 -555,0 -1020,-53 -1397,-162 -377,-108 -680,-258 -908,-450 -228,-193 -393,-420 -493,-682 -101,-262 -151,-547 -151,-858l0 -1318 715 0 0 1159zm7475 -6066l0 6303 -724 0 0 -6303 724 0zm1708 3997c0,247 79,447 236,601 156,153 404,231 743,231 129,0 269,-14 421,-43 150,-28 285,-68 403,-116l0 -1570 -777 0c-281,0 -523,71 -724,213 -202,142 -302,371 -302,684zm919 1582c-142,0 -303,-21 -489,-63 -185,-42 -364,-116 -531,-224 -168,-107 -311,-260 -429,-459 -117,-198 -176,-456 -176,-771 0,-319 56,-586 168,-801 111,-213 256,-388 432,-523 177,-136 373,-233 588,-292 213,-58 426,-88 640,-88l1405 0 0 2531c0,247 38,423 113,525 77,105 248,156 512,156l211 0c235,0 353,118 353,354 0,147 -28,247 -84,300 -56,53 -146,79 -269,79l-297 0c-152,0 -299,-12 -437,-38 -140,-26 -264,-73 -374,-143 -109,-68 -202,-158 -278,-269 -76,-110 -125,-256 -149,-434 -129,47 -275,85 -437,115 -162,30 -319,45 -472,45zm3901 -1052c0,359 106,623 318,792 210,168 469,251 777,251l846 0 0 -884c0,-140 -14,-282 -40,-427 -26,-142 -74,-272 -144,-387 -71,-115 -168,-209 -292,-282 -123,-74 -279,-111 -469,-111 -157,0 -299,28 -422,84 -124,56 -228,131 -314,225 -84,93 -148,205 -193,334 -44,129 -67,264 -67,405zm-1457 1776c-235,0 -353,-117 -353,-353 0,-147 28,-247 84,-300 55,-53 145,-80 269,-80l1005 0c-66,-123 -123,-260 -169,-409 -47,-149 -68,-322 -68,-518 0,-229 37,-456 113,-681 77,-224 189,-422 337,-595 148,-171 329,-313 543,-422 214,-108 464,-165 748,-165 325,0 590,59 796,178 204,118 368,268 489,451 120,182 204,382 250,603 45,219 69,436 69,649l0 1642 -4113 0zm2047 -4884c0,-129 47,-240 138,-330 93,-91 203,-136 333,-136 129,0 238,45 329,136 90,90 136,201 136,330 0,130 -46,240 -136,331 -91,93 -200,138 -329,138 -130,0 -240,-45 -333,-138 -91,-91 -138,-201 -138,-331zm5342 4884c-196,0 -358,-43 -487,-131 -130,-87 -225,-191 -289,-309 0,423 -24,780 -75,1072 -50,291 -145,528 -287,707 -141,180 -336,309 -582,387 -248,79 -568,120 -966,120l0 -733c287,0 512,-31 676,-93 162,-61 282,-162 363,-300 81,-137 128,-315 143,-530 15,-216 20,-475 20,-780l0 -2368 717 0 0 1256c0,298 55,535 163,709 109,174 311,260 604,260 235,0 353,118 353,354 0,147 -28,247 -84,300 -56,53 -146,79 -269,79zm3535 -733c0,-376 -50,-694 -149,-952 -99,-258 -234,-470 -405,-633 -170,-162 -372,-279 -602,-353 -229,-73 -471,-110 -724,-110 -169,0 -350,17 -541,49 -191,31 -349,64 -471,103l0 -708c118,-34 274,-74 466,-118 195,-44 407,-68 638,-68 447,0 832,77 1155,230 320,152 586,359 793,622 206,263 358,570 455,919 96,348 144,718 144,1105l0 647 -4299 0c-235,0 -353,-117 -353,-353 0,-147 28,-247 84,-300 56,-53 146,-80 269,-80l3540 0zm8593 733c66,72 122,171 168,298 45,126 69,248 69,366 0,175 -52,349 -156,519 -103,171 -269,323 -497,455 -229,133 -527,239 -895,318 -368,78 -821,118 -1358,118 -595,0 -1085,-53 -1471,-162 -385,-108 -691,-256 -918,-446 -227,-190 -384,-412 -472,-668 -87,-256 -131,-533 -131,-832l0 -1362 715 0 0 1229c0,522 179,906 540,1150 359,245 943,367 1754,367 299,0 584,-16 857,-47 270,-33 509,-78 712,-140 204,-62 365,-141 481,-236 116,-95 175,-204 175,-328 0,-135 -69,-256 -207,-362 -139,-106 -308,-200 -511,-282 -203,-81 -419,-153 -649,-215 -229,-62 -432,-119 -608,-171l0 -715c758,275 1468,413 2125,413l894 0c235,0 353,118 353,354 0,147 -28,247 -84,300 -56,53 -146,79 -269,79l-617 0zm608 0c-236,0 -353,-117 -353,-353 0,-147 28,-247 84,-300 55,-53 145,-80 269,-80l1376 0 0 -2665 724 0 0 3398 -2100 0zm362 1332c0,-129 45,-238 138,-330 91,-89 202,-135 331,-135 130,0 240,46 330,135 91,92 137,201 137,330 0,130 -46,240 -137,333 -90,91 -200,138 -330,138 -129,0 -240,-47 -331,-138 -93,-93 -138,-203 -138,-333zm1146 0c0,-129 47,-238 138,-330 93,-89 204,-135 333,-135 128,0 238,46 330,135 90,92 135,201 135,330 0,130 -45,240 -135,333 -92,91 -202,138 -330,138 -129,0 -240,-47 -333,-138 -91,-93 -138,-203 -138,-333zm3670 -1711c0,147 -28,247 -84,300 -55,53 -145,79 -269,79l-229 0c-190,0 -362,-19 -517,-59 -156,-38 -287,-104 -397,-197 -109,-94 -195,-219 -256,-375 -62,-158 -93,-353 -93,-589l0 -5083 724 0 0 4889c0,247 40,422 116,525 78,105 249,156 514,156l138 0c236,0 353,118 353,354zm-353 379c-235,0 -353,-117 -353,-353 0,-147 28,-247 84,-300 56,-53 146,-80 269,-80l1406 0c-58,-84 -114,-201 -168,-353 -55,-153 -83,-341 -83,-565 0,-305 72,-591 214,-861 143,-268 360,-456 653,-562 -118,0 -235,2 -353,4 -118,3 -238,8 -362,14l0 -660c640,-35 1215,-5 1726,89 511,92 940,262 1289,506 349,244 617,571 802,980 186,411 278,908 278,1494l0 647 -5402 0zm2480 -733c123,0 226,-31 310,-92 83,-62 149,-139 196,-228 47,-92 80,-192 97,-301 16,-108 25,-210 25,-306 0,-129 -12,-254 -34,-375 -23,-121 -61,-228 -114,-324 -53,-94 -121,-168 -205,-219 -84,-51 -184,-78 -302,-78 -207,0 -368,94 -481,283 -113,188 -169,432 -169,731 0,106 9,212 29,319 21,106 56,202 106,286 50,85 115,156 195,212 78,56 179,87 303,92l44 0zm2181 0c0,-629 -128,-1115 -384,-1456 -256,-343 -604,-582 -1044,-717 102,78 183,169 246,272 63,103 116,209 157,316 43,109 71,217 84,326 15,110 22,212 22,306 0,225 -20,415 -60,569 -40,156 -88,284 -143,384l1122 0zm2437 -2225l715 0 0 2462c0,437 -25,804 -75,1103 -52,297 -146,537 -287,719 -141,183 -337,315 -587,396 -250,82 -573,124 -970,124l0 -733c287,0 512,-31 675,-93 162,-62 284,-162 364,-300 81,-137 128,-315 143,-530 14,-216 22,-475 22,-780l0 -2368zm2672 -3345l0 6303 -724 0 0 -6303 724 0zm3363 6303c-196,0 -358,-44 -487,-131 -130,-88 -226,-191 -289,-309 0,423 -25,780 -75,1072 -51,291 -146,528 -287,707 -141,180 -335,309 -583,387 -247,80 -568,120 -965,120l0 -733c287,0 512,-31 676,-93 161,-62 282,-162 363,-300 81,-137 128,-315 143,-530 14,-216 20,-475 20,-780l0 -2368 717 0 0 1256c0,298 54,535 163,709 109,174 311,260 604,260 235,0 353,118 353,354 0,147 -28,247 -84,300 -56,53 -146,79 -269,79zm-1609 -4884c0,-129 47,-240 139,-330 92,-91 203,-136 332,-136 130,0 239,45 330,136 90,90 135,201 135,330 0,130 -45,240 -135,331 -91,93 -200,138 -330,138 -129,0 -240,-45 -332,-138 -92,-91 -139,-201 -139,-331zm1604 4884c-235,0 -353,-117 -353,-353 0,-147 28,-247 84,-300 56,-53 146,-80 269,-80l1376 0 0 -2665 724 0 0 3398 -2100 0zm1120 1314c0,-129 46,-239 139,-329 91,-91 203,-136 331,-136 129,0 240,45 331,136 90,90 135,200 135,329 0,130 -45,240 -135,333 -91,91 -202,137 -331,137 -128,0 -240,-46 -331,-137 -93,-93 -139,-203 -139,-333zm2938 -7617l0 6303 -725 0 0 -6303 725 0zm-31667 -7084c-195,0 -391,-32 -588,-96 -196,-64 -355,-205 -479,-420 -83,117 -179,208 -289,278 -112,69 -230,122 -361,157 -128,34 -262,56 -401,66 -139,10 -276,15 -411,15l-4458 0c-399,0 -735,-28 -1007,-86 -271,-57 -487,-152 -648,-281 -163,-128 -278,-294 -346,-497 -67,-204 -101,-451 -101,-742l0 -1677 1318 0 0 1498c0,135 19,242 53,320 35,78 96,140 183,186 88,46 206,76 355,90 149,13 338,20 570,20l3868 0c232,0 392,-36 484,-107 89,-71 135,-232 135,-479l0 -2286 1310 0 0 2173c0,250 53,430 158,536 106,109 325,163 655,163 52,0 103,5 150,17 49,12 92,35 130,71 38,37 66,91 87,166 20,74 29,176 29,306 0,230 -33,391 -97,477 -64,88 -164,132 -299,132zm-5618 3179c0,-195 71,-364 213,-506 143,-142 312,-213 510,-213 196,0 364,71 506,213 142,142 213,311 213,506 0,194 -71,364 -213,506 -142,142 -310,213 -506,213 -195,0 -364,-71 -508,-213 -144,-142 -215,-312 -215,-506zm-829 -1473c0,-194 71,-363 213,-506 142,-142 312,-213 506,-213 195,0 364,71 506,213 142,143 213,312 213,506 0,195 -71,364 -213,506 -142,143 -311,214 -506,214 -194,0 -364,-71 -506,-214 -142,-142 -213,-311 -213,-506zm1652 0c0,-194 71,-363 213,-506 142,-142 311,-213 511,-213 195,0 364,71 506,213 142,143 213,312 213,506 0,195 -71,364 -213,506 -142,143 -311,214 -506,214 -196,0 -365,-71 -509,-214 -144,-142 -215,-311 -215,-506zm4789 -1706c-52,0 -103,-5 -150,-15 -49,-10 -92,-34 -130,-71 -38,-39 -66,-95 -87,-169 -20,-75 -29,-176 -29,-305 0,-232 33,-391 97,-479 64,-88 164,-130 299,-130l1503 0c53,0 104,5 151,17 47,12 91,35 129,71 39,37 67,91 88,166 18,74 28,176 28,306 0,230 -32,391 -96,477 -64,88 -164,132 -300,132l-1503 0zm1503 0c-52,0 -103,-5 -150,-15 -49,-10 -92,-35 -131,-76 -37,-42 -66,-100 -86,-174 -20,-75 -29,-176 -29,-305 0,-232 32,-391 97,-479 64,-86 164,-130 299,-130l1607 0 0 -2862 1328 0 0 4041 -2935 0zm114 1706c0,-194 71,-363 213,-506 142,-142 311,-213 506,-213 195,0 364,71 506,213 142,143 213,312 213,506 0,195 -71,364 -213,506 -142,143 -311,214 -506,214 -195,0 -364,-71 -506,-214 -142,-142 -213,-311 -213,-506zm1652 0c0,-194 71,-363 213,-506 142,-142 313,-213 511,-213 195,0 364,71 506,213 142,143 213,312 213,506 0,195 -71,364 -213,506 -142,143 -311,214 -506,214 -195,0 -366,-71 -509,-214 -144,-142 -215,-311 -215,-506zm6516 -1706c-197,0 -362,-10 -501,-30 -139,-19 -259,-49 -361,-91 -100,-41 -194,-94 -284,-160 -90,-64 -181,-138 -273,-225 -194,225 -406,366 -634,422 -229,56 -474,84 -740,84l-1765 0 0 -1169 2009 0c161,0 282,-25 362,-75 80,-50 118,-110 118,-179 0,-76 -32,-168 -96,-274 -64,-108 -184,-288 -360,-538l-926 -1370 1208 -773 1220 2063c129,218 241,401 336,550 94,149 179,268 257,354 78,88 150,150 218,186 68,37 139,56 212,56 52,0 103,5 152,17 51,12 93,35 130,71 36,37 65,91 83,166 21,74 31,176 31,306 0,230 -32,391 -97,477 -64,88 -164,132 -299,132zm0 0c-53,0 -104,-5 -151,-15 -49,-10 -91,-34 -130,-71 -38,-39 -66,-95 -87,-169 -20,-75 -28,-176 -28,-305 0,-232 32,-391 96,-479 64,-88 164,-130 300,-130l1503 0c52,0 103,5 150,17 48,12 92,35 129,71 39,37 68,91 88,166 18,74 29,176 29,306 0,230 -33,391 -97,477 -64,88 -164,132 -299,132l-1503 0zm1503 0c-53,0 -104,-5 -151,-15 -49,-10 -91,-34 -130,-71 -38,-39 -66,-95 -87,-169 -20,-75 -28,-176 -28,-305 0,-232 32,-391 96,-479 64,-88 164,-130 300,-130l1502 0c53,0 104,5 151,17 48,12 92,35 129,71 39,37 67,91 88,166 18,74 29,176 29,306 0,230 -33,391 -97,477 -64,88 -164,132 -300,132l-1502 0zm2577 -5796c0,-195 71,-364 213,-508 143,-144 314,-217 512,-217 194,0 363,71 506,214 142,142 213,313 213,511 0,194 -71,364 -213,506 -143,142 -312,213 -506,213 -195,0 -364,-71 -508,-213 -144,-142 -217,-312 -217,-506zm95 4627l0 -2872 1330 0 0 4041 -2500 0c-52,0 -103,-5 -150,-15 -49,-10 -92,-34 -130,-71 -38,-39 -66,-95 -87,-169 -20,-75 -29,-176 -29,-305 0,-232 33,-391 97,-479 64,-88 164,-130 299,-130l1170 0zm5306 1169c-90,0 -212,-20 -367,-62 -156,-41 -291,-129 -407,-264 -6,458 -60,843 -160,1152 -102,308 -254,559 -457,748 -203,190 -461,327 -770,407 -312,81 -686,125 -1121,132l0 -1239c278,-7 498,-39 662,-98 162,-58 286,-143 367,-258 80,-113 132,-260 156,-441 24,-180 34,-397 34,-647l0 -3024 1310 0 0 1726c0,264 79,447 240,547 161,101 332,152 513,152 52,0 103,5 151,17 49,12 91,35 130,71 37,37 66,91 86,166 20,74 29,176 29,306 0,230 -32,391 -97,477 -64,88 -164,132 -299,132zm-5 0c-53,0 -103,-5 -151,-15 -49,-10 -91,-34 -130,-71 -37,-39 -66,-95 -86,-169 -21,-75 -29,-176 -29,-305 0,-232 32,-391 96,-479 65,-88 164,-130 300,-130l1503 0c52,0 103,5 150,17 48,12 92,35 129,71 39,37 68,91 88,166 19,74 29,176 29,306 0,230 -32,391 -97,477 -64,88 -164,132 -299,132l-1503 0zm1503 0c-53,0 -103,-5 -151,-15 -49,-10 -91,-34 -130,-71 -37,-39 -66,-95 -86,-169 -21,-75 -29,-176 -29,-305 0,-232 32,-391 96,-479 65,-88 164,-130 300,-130l1503 0c52,0 103,5 150,17 48,12 92,35 129,71 39,37 68,91 88,166 19,74 29,176 29,306 0,230 -32,391 -97,477 -64,88 -164,132 -299,132l-1503 0zm1503 0c-53,0 -104,-5 -151,-15 -49,-10 -91,-34 -130,-71 -38,-39 -66,-95 -87,-169 -20,-75 -28,-176 -28,-305 0,-232 32,-391 96,-479 64,-88 164,-130 300,-130l1503 0c52,0 103,5 150,17 48,12 92,35 129,71 39,37 68,91 88,166 18,74 29,176 29,306 0,230 -33,391 -97,477 -64,88 -164,132 -299,132l-1503 0zm1919 -1169c149,0 272,-3 369,-10 98,-7 178,-27 239,-60 60,-33 104,-82 133,-147 29,-64 43,-154 43,-271l0 -1937 1299 0 0 1726c0,217 58,387 176,513 117,123 302,186 552,186 196,0 364,-31 504,-90 141,-59 210,-191 210,-398l0 -1937 1319 0 0 1726c0,465 201,699 601,699l629 0 0 -2872 1319 0 0 4041 -1552 0c-361,0 -632,-42 -816,-127 -183,-84 -337,-216 -464,-399 -101,130 -211,229 -326,298 -116,69 -236,122 -358,157 -121,34 -242,54 -358,61 -119,7 -231,10 -341,10 -343,0 -633,-55 -868,-169 -233,-112 -401,-230 -501,-357 -181,239 -418,386 -711,442 -292,56 -665,84 -1118,84l-396 0c-53,0 -104,-5 -151,-15 -49,-10 -91,-34 -130,-71 -38,-39 -66,-95 -87,-169 -20,-75 -28,-176 -28,-305 0,-232 32,-391 96,-479 64,-88 164,-130 300,-130l416 0z"/>
    <polygon class="fil12" points="126092,45449 126092,15236 125788,15236 125788,45449 "/>
   </g>
   <g>
    <path class="fil13" d="M271654 18468l0 12596c-2749,2189 -6233,3497 -10029,3497 -8969,0 -16158,-7189 -16158,-16093 0,-8904 7189,-16093 16158,-16093 3796,0 7280,1308 10029,3497l0 12596z"/>
    <path class="fil14" d="M263182 26892c1385,0 1385,-2176 0,-2176 -1451,0 -1451,2176 0,2176z"/>
    <g>
     <path class="fil15" d="M253296 17023c0,-641 4002,-922 4656,-958 374,-444 1187,-801 2016,-810 828,9 1641,366 2015,810 655,36 4657,317 4657,958 0,793 -5519,855 -6672,855 -1154,0 -6672,-62 -6672,-855l0 0z"/>
     <path class="fil8" d="M253296 20915c0,-642 4002,-922 4656,-959 374,-444 1187,-801 2016,-810 828,9 1641,366 2015,810 655,37 4657,317 4657,959 0,792 -5519,854 -6672,854 -1154,0 -6672,-62 -6672,-854l0 0z"/>
    </g>
    <path class="fil2" d="M271654 17300c-1620,6582 -7557,11448 -14699,11448 -3930,0 -7495,-1473 -10176,-3895 2469,5717 8164,9708 14846,9708 3796,0 7280,-1308 10029,-3497l0 -9201 0 -4563z"/>
    <path class="fil16" d="M271654 28372c-2753,2896 -6654,4699 -11001,4699 -8402,0 -15136,-6734 -15136,-15074 0,-577 32,-1146 95,-1706 -96,712 -145,1439 -145,2177 0,8904 7189,16093 16158,16093 3796,0 7280,-1308 10029,-3497l0 -2692z"/>
    <path class="fil17" d="M257944 6978c1474,1275 1454,3713 -46,5447 -1499,1733 -3909,2105 -5383,831 -1474,-1275 -1454,-3714 46,-5448 1499,-1733 3909,-2105 5383,-830z"/>
    <path class="fil14" d="M271654 12647c-363,95 -781,-9 -1085,-312 -395,-396 -395,-1121 0,-1517 264,-264 528,-528 792,-726 84,-98 184,-176 293,-232l0 2787z"/>
    <path class="fil14" d="M250627 14074c-577,0 -577,-1183 0,-1183 606,0 606,1183 0,1183z"/>
   </g>
  </g>
 </g>
</svg>
