<?xml version="1.0" encoding="UTF-8"?>
<!DOCTYPE svg PUBLIC "-//W3C//DTD SVG 1.1//EN" "http://www.w3.org/Graphics/SVG/1.1/DTD/svg11.dtd">
<!-- Creator: CorelDRAW X7 -->
<svg xmlns="http://www.w3.org/2000/svg" xml:space="preserve" width="6.57276in" height="15.9012in" version="1.1" style="shape-rendering:geometricPrecision; text-rendering:geometricPrecision; image-rendering:optimizeQuality; fill-rule:evenodd; clip-rule:evenodd"
viewBox="0 0 65728 159012"
 xmlns:xlink="http://www.w3.org/1999/xlink">
 <defs>
  <style type="text/css">
   <![CDATA[
    .fil0 {fill:#FEFEFE}
    .fil6 {fill:#8480BC}
    .fil2 {fill:#F0E3CC}
    .fil1 {fill:#F1E6D1}
    .fil3 {fill:#F7EFE3}
    .fil7 {fill:white}
    .fil5 {fill:#8480BC;fill-rule:nonzero}
    .fil4 {fill:black;fill-rule:nonzero}
   ]]>
  </style>
 </defs>
 <g id="Layer_x0020_1">
  <metadata id="CorelCorpID_0Corel-Layer"/>
  <g id="_2623016592992">
   <polygon class="fil0" points="65728,0 0,0 0,159012 65728,159012 "/>
   <path class="fil1" d="M34332 14022c-11481,8959 -25087,6667 -34332,1138l0 -15160 44980 0c-1482,4939 -5526,10026 -10648,14022z"/>
   <path class="fil2" d="M65728 46735c-21548,3319 -46053,-1173 -65728,-9061l0 -11189c19110,11110 52271,12575 65728,-2188l0 22438z"/>
   <path class="fil3" d="M65728 66577c-22659,-553 -44407,-7056 -65728,-17645l0 -6971 0 -4287c19675,7888 44180,12380 65728,9061l0 6801 0 13041z"/>
   <g>
    <path class="fil4" d="M23992 37888c7,29 12,62 16,98 5,37 8,79 8,129 0,135 -26,258 -76,370 -51,112 -140,209 -269,292 -129,83 -301,147 -519,193 -216,46 -491,68 -825,68 -323,0 -588,-30 -798,-91 -209,-61 -375,-145 -499,-252 -124,-107 -210,-232 -260,-375 -48,-143 -73,-298 -73,-465l0 -820 641 0 0 798c0,213 79,369 233,466 156,98 411,147 766,147 231,0 415,-13 555,-39 140,-26 249,-58 327,-98 78,-40 129,-81 153,-124 24,-43 36,-81 36,-113 0,-86 -85,-158 -254,-217 -170,-60 -398,-126 -684,-198l0 -589c217,69 424,129 622,177 198,50 375,74 534,74l617 0c26,0 50,3 74,9 25,5 45,17 64,34 17,18 31,45 40,81 10,36 15,86 15,149 0,112 -16,190 -47,232 -32,43 -80,64 -146,64l-251 0zm552 -569c113,0 191,-17 236,-51 44,-35 66,-113 66,-233l0 -1113 642 0 0 1057c0,122 23,210 68,261 46,53 148,79 308,79 26,0 50,3 73,9 23,5 44,17 62,34 17,18 31,45 42,81 11,36 16,86 16,149 0,112 -16,190 -47,232 -31,43 -80,64 -146,64 -95,0 -187,-15 -277,-47 -88,-31 -163,-99 -223,-204 -40,57 -88,101 -143,135 -55,34 -114,59 -177,77 -63,16 -128,27 -196,32 -67,5 -134,7 -200,7l-405 0c-25,0 -50,-2 -73,-7 -24,-5 -45,-17 -64,-35 -18,-19 -32,-46 -42,-82 -10,-36 -14,-86 -14,-148 0,-113 16,-190 47,-233 32,-43 80,-64 146,-64l301 0zm-173 -2250c0,-95 34,-178 103,-248 70,-69 153,-105 249,-105 95,0 177,35 246,104 69,69 104,152 104,249 0,94 -35,177 -104,246 -69,69 -151,103 -246,103 -95,0 -177,-34 -247,-103 -70,-69 -105,-152 -105,-246zm806 0c0,-95 34,-178 103,-248 70,-69 151,-105 247,-105 94,0 177,35 247,104 70,69 104,152 104,249 0,94 -34,177 -104,246 -69,69 -151,103 -247,103 -96,0 -177,-34 -247,-103 -69,-69 -103,-152 -103,-246zm1835 2250c69,0 136,-14 198,-41 63,-27 94,-85 94,-171 0,-59 -37,-139 -111,-239 -74,-99 -172,-206 -294,-318 -123,-113 -261,-224 -415,-335 -155,-110 -311,-205 -470,-288 22,-109 49,-199 81,-270 33,-71 66,-127 98,-170 33,-42 66,-74 97,-97 31,-21 57,-37 76,-46l1724 -760 0 661 -1167 485 0 14c197,129 361,256 490,381 128,126 231,248 308,365 78,119 131,231 161,338 30,107 44,207 44,300 0,79 -10,163 -32,251 -22,89 -64,171 -126,247 -61,77 -149,140 -264,189 -114,49 -263,73 -446,73l-1196 0c-26,0 -51,-2 -74,-7 -24,-5 -44,-17 -63,-35 -18,-19 -32,-46 -42,-82 -10,-36 -14,-86 -14,-148 0,-113 16,-190 47,-233 31,-43 80,-64 146,-64l1150 0zm2871 569c-44,0 -103,-10 -179,-30 -76,-20 -142,-63 -198,-129 -3,224 -29,410 -78,561 -49,150 -123,272 -222,364 -99,92 -224,159 -375,198 -151,39 -333,60 -545,64l0 -603c135,-3 242,-19 322,-48 79,-28 139,-69 179,-125 39,-55 64,-127 76,-215 11,-87 16,-192 16,-314l0 -1471 637 0 0 839c0,129 39,218 117,266 78,50 162,74 250,74 25,0 50,3 73,9 24,5 44,17 63,34 18,18 32,45 42,81 10,36 14,86 14,149 0,112 -15,190 -47,232 -31,43 -79,64 -145,64zm200 -569c72,0 132,-1 179,-5 48,-3 87,-13 116,-28 30,-17 51,-41 65,-72 14,-31 21,-75 21,-132l0 -942 632 0 0 839c0,106 28,189 86,250 57,60 146,90 268,90 96,0 177,-14 246,-43 68,-29 102,-93 102,-194l0 -942 641 0 0 839c0,227 98,340 292,340l307 0 0 -1397 641 0 0 1966 -755 0c-175,0 -307,-20 -397,-61 -89,-42 -164,-106 -225,-195 -50,64 -103,111 -159,145 -56,34 -115,59 -174,77 -59,16 -118,26 -175,29 -57,4 -112,5 -165,5 -167,0 -308,-27 -422,-82 -114,-54 -196,-112 -244,-174 -88,116 -204,188 -346,215 -142,27 -323,41 -544,41l-193 0c-25,0 -50,-2 -73,-7 -24,-5 -45,-17 -63,-35 -19,-19 -33,-46 -42,-82 -10,-36 -14,-86 -14,-148 0,-113 15,-190 46,-233 32,-43 80,-64 146,-64l203 0zm1259 -2250c0,-95 34,-178 103,-248 69,-69 153,-105 249,-105 95,0 177,35 246,104 69,69 104,152 104,249 0,94 -35,177 -104,246 -69,69 -151,103 -246,103 -95,0 -177,-34 -247,-103 -70,-69 -105,-152 -105,-246zm806 0c0,-95 34,-178 103,-248 69,-69 151,-105 246,-105 95,0 177,35 247,104 70,69 105,152 105,249 0,94 -35,177 -104,246 -69,69 -151,103 -248,103 -95,0 -177,-34 -246,-103 -69,-69 -103,-152 -103,-246zm-392 -717c0,-94 35,-177 104,-247 69,-70 153,-105 249,-105 95,0 177,34 246,104 69,69 104,152 104,248 0,95 -35,177 -104,246 -69,70 -151,104 -246,104 -95,0 -177,-34 -247,-104 -70,-69 -106,-151 -106,-246zm3600 2253c0,40 5,82 14,126 10,43 28,82 54,117 27,34 62,63 106,86 45,24 102,35 171,35 43,0 87,-1 131,-4 44,-4 89,-14 136,-29l0 -683 -246 0c-122,0 -214,32 -275,97 -61,64 -91,149 -91,255zm1377 1283c-79,0 -155,-5 -229,-17 -75,-11 -143,-31 -205,-61 -63,-30 -118,-71 -165,-122 -48,-52 -85,-118 -110,-200 -56,13 -114,23 -174,32 -59,9 -119,13 -178,13 -82,0 -178,-12 -286,-37 -109,-24 -212,-70 -309,-136 -97,-66 -180,-158 -247,-275 -68,-117 -101,-268 -101,-451 0,-182 32,-335 96,-460 64,-124 146,-226 247,-306 101,-79 212,-137 336,-171 122,-35 243,-52 363,-52l839 0 0 1478c0,76 10,128 30,155 20,27 66,41 139,41l118 0c26,0 50,3 73,9 23,5 45,17 63,34 19,18 33,45 43,81 9,36 14,86 14,149 0,112 -16,190 -47,232 -31,43 -80,64 -146,64l-164 0zm1932 -569c-9,-132 -31,-253 -64,-363 -33,-110 -82,-205 -148,-284 -66,-78 -152,-140 -259,-184 -107,-44 -240,-66 -397,-66 -54,0 -136,7 -248,21 -111,15 -226,39 -346,73l0 -574c76,-26 180,-53 312,-83 131,-30 265,-45 400,-45 247,0 457,40 630,121 173,80 314,189 423,327 108,139 188,300 238,483 51,183 79,374 86,574l321 0c26,0 50,3 73,9 24,5 45,17 63,34 19,18 33,45 43,81 9,36 14,86 14,149 0,112 -16,190 -47,232 -31,43 -80,64 -146,64l-2716 0c-25,0 -50,-2 -73,-7 -24,-5 -45,-17 -64,-35 -18,-19 -32,-46 -42,-82 -9,-36 -14,-86 -14,-148 0,-113 16,-190 47,-233 32,-43 80,-64 146,-64l1768 0zm-1166 -2250c0,-95 35,-178 104,-248 69,-69 152,-105 248,-105 95,0 177,35 246,104 70,69 104,152 104,249 0,94 -34,177 -104,246 -69,69 -151,103 -246,103 -94,0 -177,-34 -247,-103 -70,-69 -105,-152 -105,-246zm2288 2250c72,0 132,-1 179,-5 48,-3 87,-13 116,-28 30,-17 51,-41 64,-72 13,-31 20,-75 20,-132l0 -942 638 0 0 839c0,106 29,189 86,250 58,60 146,90 264,90 98,0 182,-14 249,-43 68,-29 101,-93 101,-194l0 -942 639 0 0 839c0,116 26,201 77,257 50,55 135,83 254,83 92,0 166,-15 222,-46 56,-30 84,-99 84,-205l0 -1146 637 0 0 1057c0,122 24,210 73,261 49,53 156,79 318,79 25,0 50,3 73,9 23,5 44,17 62,34 17,18 31,45 42,81 11,36 16,86 16,149 0,112 -16,190 -47,232 -32,43 -80,64 -146,64 -95,0 -189,-17 -282,-52 -92,-34 -168,-104 -227,-210 -47,62 -95,111 -146,145 -51,35 -103,61 -156,80 -53,18 -105,29 -158,32 -52,4 -103,5 -153,5 -60,0 -122,-5 -188,-14 -66,-10 -131,-24 -195,-45 -64,-20 -122,-46 -173,-79 -50,-34 -91,-72 -122,-118 -101,113 -203,184 -307,213 -104,29 -217,43 -339,43 -324,0 -556,-85 -698,-256 -88,116 -203,188 -344,215 -141,27 -322,41 -543,41l-164 0c-25,0 -50,-2 -73,-7 -24,-5 -45,-17 -64,-35 -18,-19 -32,-46 -42,-82 -9,-36 -13,-86 -13,-148 0,-113 15,-190 46,-233 32,-43 80,-64 146,-64l174 0zm4541 -2250c0,-95 35,-178 104,-248 69,-69 152,-105 249,-105 94,0 177,35 246,104 69,69 103,152 103,249 0,94 -34,177 -103,246 -69,69 -152,103 -246,103 -95,0 -177,-34 -247,-103 -70,-69 -106,-152 -106,-246zm46 2250l0 -1397 647 0 0 1966 -1216 0c-25,0 -50,-2 -73,-7 -24,-5 -44,-17 -63,-35 -18,-19 -32,-46 -42,-82 -10,-36 -14,-86 -14,-148 0,-113 15,-190 47,-233 31,-43 80,-64 145,-64l569 0z"/>
    <polygon class="fil5" points="41034,43482 24694,43482 24694,43070 41034,43070 "/>
    <g>
     <path class="fil6" d="M32864 8636c-5980,0 -10827,4848 -10827,10827 0,5979 4847,10827 10827,10827 5979,0 10827,-4848 10827,-10827 0,-5979 -4848,-10827 -10827,-10827z"/>
     <path class="fil7" d="M33070 13036l0 1739c-68,-3 -138,-4 -206,-4 -68,0 -135,1 -203,4l-3 0 0 -1739c-356,-88 -612,-404 -612,-792 0,-455 363,-817 818,-817 454,0 817,362 817,817 0,388 -255,704 -611,792zm-801 8220l-1669 0 0 -2699 2263 -1766 2264 1766 0 2699 -1668 0 0 -1588 -1190 0 0 1588zm595 2073c1067,0 2034,-433 2733,-1132 700,-700 1132,-1666 1132,-2734 0,-1067 -432,-2034 -1132,-2733 -699,-700 -1666,-1133 -2733,-1133 -1068,0 -2034,433 -2734,1133 -699,699 -1132,1666 -1132,2733 0,1068 433,2034 1132,2734 700,699 1666,1132 2734,1132zm0 412c2362,0 4277,-1915 4277,-4278 0,-2362 -1915,-4278 -4277,-4278 -2363,0 -4278,1916 -4278,4278 0,2363 1915,4278 4278,4278zm2164 -8442l870 -1505c-263,-255 -326,-656 -133,-992 228,-393 724,-526 1117,-299 393,228 527,723 299,1117 -194,336 -574,482 -927,380l-869 1506c-116,-74 -235,-143 -357,-207zm1792 1641l1506 -870c-100,-352 46,-731 381,-924 393,-228 889,-95 1117,299 227,393 94,889 -300,1116 -336,194 -738,130 -993,-134l-1505 869c-64,-122 -133,-241 -206,-356zm731 2317l1739 0c89,-356 405,-611 793,-611 454,0 817,363 817,817 0,454 -363,818 -817,818 -388,0 -704,-256 -793,-612l-1739 0c3,-68 5,-137 5,-206 0,-69 -2,-137 -5,-206zm-525 2374l1505 869c254,-265 657,-330 993,-135 394,227 527,723 300,1116 -228,394 -724,527 -1117,299 -335,-193 -481,-571 -381,-923l-1507 -870c74,-115 143,-233 206,-354l1 -2zm-1644 1792l868 1504c354,-104 736,42 931,379 228,394 94,889 -299,1117 -393,227 -889,94 -1117,-300 -193,-334 -131,-733 130,-988l-870 -1506c122,-63 241,-132 357,-206zm-2320 728l0 1737c360,86 619,403 619,794 0,454 -363,817 -817,817 -455,0 -818,-363 -818,-817 0,-385 252,-699 604,-791l0 -1741c71,4 142,5 214,5 66,0 132,-1 198,-4zm-2372 -528l-868 1502c270,255 336,660 140,998 -227,394 -723,527 -1116,300 -394,-228 -527,-723 -300,-1117 193,-333 567,-479 917,-383l871 -1508c116,75 234,144 356,208zm-1788 -1645l-1503 868c106,355 -40,739 -378,934 -394,228 -890,95 -1117,-299 -227,-393 -94,-889 299,-1116 333,-193 731,-132 986,126l1507 -870 2 5c63,120 131,237 204,352zm-726 -2317l-1737 0c-86,360 -404,620 -794,620 -454,0 -818,-364 -818,-818 0,-454 364,-817 818,-817 385,0 699,252 790,604l1742 0c-4,71 -5,141 -5,213 0,66 1,133 4,198zm527 -2369l-1504 -868c-255,267 -658,332 -996,137 -393,-227 -526,-723 -299,-1116 227,-394 723,-527 1117,-299 334,192 480,569 382,920l1507 870c-74,116 -143,235 -207,356zm1641 -1787l-869 -1505c-354,102 -734,-44 -929,-380 -227,-394 -94,-889 300,-1117 393,-227 889,-94 1116,299 194,335 131,736 -131,991l869 1506c-122,63 -241,132 -356,206zm-1287 -2635c193,-112 429,-46 539,144 115,199 51,426 -144,539 -196,113 -424,55 -539,-144 -110,-190 -49,-428 144,-539zm-2786 2786c111,-193 348,-254 538,-144 200,115 258,344 145,539 -113,195 -340,259 -539,144 -190,-109 -256,-345 -144,-539zm-1021 3807c0,-223 175,-395 395,-395 230,0 395,169 395,395 0,225 -165,394 -395,394 -220,0 -395,-171 -395,-394zm1021 3807c-112,-194 -46,-430 144,-539 199,-115 426,-51 539,144 113,196 55,424 -145,539 -190,110 -427,49 -538,-144zm2786 2786c-193,-111 -254,-348 -144,-539 115,-199 343,-257 539,-144 195,113 259,340 144,539 -110,190 -346,256 -539,144zm3807 1020c-223,0 -395,-175 -395,-394 0,-230 170,-395 395,-395 225,0 395,165 395,395 0,219 -172,394 -395,394zm3806 -1020c-193,112 -429,46 -539,-144 -115,-199 -50,-426 145,-539 195,-113 424,-55 539,144 110,191 49,428 -145,539zm2787 -2786c-111,193 -349,254 -539,144 -199,-115 -257,-343 -144,-539 113,-195 340,-259 539,-144 190,109 256,345 144,539zm1020 -3807c0,223 -175,394 -394,394 -230,0 -395,-169 -395,-394 0,-226 165,-395 395,-395 219,0 394,172 394,395zm-1020 -3807c112,194 46,430 -144,539 -199,115 -426,51 -539,-144 -113,-195 -55,-424 144,-539 190,-110 428,-49 539,144zm-2787 -2786c194,111 255,349 145,539 -115,199 -344,257 -539,144 -195,-113 -260,-340 -145,-539 110,-190 346,-256 539,-144zm-3806 -1021c223,0 395,176 395,395 0,230 -170,395 -395,395 -225,0 -395,-165 -395,-395 0,-219 172,-395 395,-395z"/>
    </g>
   </g>
  </g>
 </g>
</svg>
