<?xml version="1.0" encoding="UTF-8"?>
<!DOCTYPE svg PUBLIC "-//W3C//DTD SVG 1.1//EN" "http://www.w3.org/Graphics/SVG/1.1/DTD/svg11.dtd">
<!-- Creator: CorelDRAW X7 -->
<svg xmlns="http://www.w3.org/2000/svg" xml:space="preserve" width="6.57276in" height="3.49665in" version="1.1" style="shape-rendering:geometricPrecision; text-rendering:geometricPrecision; image-rendering:optimizeQuality; fill-rule:evenodd; clip-rule:evenodd"
viewBox="0 0 65728 34967"
 xmlns:xlink="http://www.w3.org/1999/xlink">
 <defs>
  <style type="text/css">
   <![CDATA[
    .fil2 {fill:#979697}
    .fil0 {fill:#E3E0DB}
    .fil1 {fill:#F4F3F2}
    .fil4 {fill:#FAF6F0}
    .fil3 {fill:white}
    .fil6 {fill:#B3B3B3;fill-rule:nonzero}
    .fil5 {fill:#B5B4B8;fill-rule:nonzero}
   ]]>
  </style>
 </defs>
 <g id="Layer_x0020_1">
  <metadata id="CorelCorpID_0Corel-Layer"/>
  <g id="_2622975968080">
   <polygon class="fil0" points="65727,34967 0,34967 0,20908 65727,20908 "/>
   <g>
    <polygon class="fil1" points="0,0 65727,0 65727,20908 0,20908 "/>
    <path class="fil2" d="M0 0l65727 0 0 20908 -65727 0 0 -20908zm64940 787l-64153 0 0 19334 64153 0 0 -19334z"/>
   </g>
   <g>
    <g>
     <path class="fil3" d="M35151 11726l0 -3680c0,-140 140,-251 317,-251l11479 0c177,0 317,111 317,251l0 3680c0,140 -140,251 -317,251l-11479 0c-177,0 -317,-111 -317,-251z"/>
     <path class="fil2" d="M35716 12400l10983 0c436,0 793,-357 793,-793l0 -3441c0,-437 -357,-794 -793,-794l-10983 0c-436,0 -793,357 -793,794l0 3441c0,436 357,793 793,793zm10983 -559l-10983 0c-131,0 -234,-104 -234,-234l0 -3441c0,-131 103,-235 234,-235l10983 0c130,0 234,104 234,235l0 3441c0,130 -104,234 -234,234z"/>
    </g>
    <g>
     <path class="fil4" d="M35131 7982l0 3808c0,144 -115,259 -259,259l-3808 0c-144,0 -259,-115 -259,-259l0 -3808c0,-144 115,-259 259,-259l3808 0c144,0 259,115 259,259z"/>
     <path class="fil2" d="M31247 7372l3441 0c437,0 794,357 794,793l0 3441c0,437 -357,794 -794,794l-3441 0c-436,0 -793,-357 -793,-794l0 -3441c0,-436 357,-793 793,-793zm3441 559l-3441 0c-130,0 -234,104 -234,234l0 3441c0,131 104,235 234,235l3441 0c131,0 235,-104 235,-235l0 -3441c0,-130 -104,-234 -235,-234z"/>
    </g>
    <g>
     <path class="fil4" d="M51610 7982l0 3808c0,144 -115,259 -260,259l-3807 0c-145,0 -259,-115 -259,-259l0 -3808c0,-144 114,-259 259,-259l3807 0c145,0 260,115 260,259z"/>
     <path class="fil2" d="M47726 7372l3441 0c437,0 794,357 794,793l0 3441c0,437 -357,794 -794,794l-3441 0c-436,0 -793,-357 -793,-794l0 -3441c0,-436 357,-793 793,-793zm3441 559l-3441 0c-130,0 -234,104 -234,234l0 3441c0,131 104,235 234,235l3441 0c131,0 234,-104 234,-235l0 -3441c0,-130 -103,-234 -234,-234z"/>
    </g>
    <polygon class="fil5" points="31687,9633 32968,11019 34248,9633 33899,9312 32968,10320 32036,9312 "/>
    <polygon class="fil5" points="50727,10139 49447,8752 48166,10139 48515,10460 49447,9452 50378,10460 "/>
    <path class="fil6" d="M36108 10673c0,-31 7,-60 20,-86 12,-27 29,-50 50,-71 21,-20 45,-36 73,-47 28,-12 57,-18 89,-18l1579 0c30,0 59,6 86,18 27,11 51,27 71,47 20,21 37,44 49,71 12,26 18,55 18,86 0,32 -6,61 -18,88 -12,28 -29,51 -49,71 -20,19 -44,35 -71,47 -27,12 -56,17 -86,17l-1581 0c-30,0 -59,-5 -87,-17 -28,-12 -52,-28 -73,-47 -21,-20 -38,-43 -50,-71 -13,-27 -20,-56 -20,-88zm2708 0c0,-31 7,-60 20,-86 12,-27 29,-50 50,-71 21,-20 45,-36 73,-47 28,-12 57,-18 89,-18l1579 0c30,0 59,6 86,18 27,11 51,27 71,47 20,21 37,44 49,71 12,26 18,55 18,86 0,32 -6,61 -18,88 -12,28 -29,51 -49,71 -20,19 -44,35 -71,47 -27,12 -56,17 -86,17l-1581 0c-30,0 -59,-5 -87,-17 -28,-12 -52,-28 -73,-47 -21,-20 -38,-43 -50,-71 -13,-27 -20,-56 -20,-88zm2708 0c0,-31 7,-60 20,-86 12,-27 29,-50 50,-71 21,-20 45,-36 73,-47 28,-12 57,-18 89,-18l1579 0c30,0 59,6 86,18 27,11 51,27 71,47 20,21 37,44 49,71 12,26 18,55 18,86 0,32 -6,61 -18,88 -12,28 -29,51 -49,71 -20,19 -44,35 -71,47 -27,12 -56,17 -86,17l-1581 0c-30,0 -59,-5 -87,-17 -28,-12 -52,-28 -73,-47 -21,-20 -38,-43 -50,-71 -13,-27 -20,-56 -20,-88zm2708 0c0,-31 7,-60 20,-86 12,-27 29,-50 50,-71 21,-20 45,-36 73,-47 28,-12 57,-18 89,-18l1579 0c30,0 59,6 86,18 27,11 51,27 71,47 20,21 37,44 49,71 12,26 18,55 18,86 0,32 -6,61 -18,88 -12,28 -29,51 -49,71 -20,19 -44,35 -71,47 -27,12 -56,17 -86,17l-1581 0c-30,0 -59,-5 -87,-17 -28,-12 -52,-28 -73,-47 -21,-20 -38,-43 -50,-71 -13,-27 -20,-56 -20,-88z"/>
   </g>
  </g>
 </g>
</svg>
