<?xml version="1.0" encoding="UTF-8"?>
<!DOCTYPE svg PUBLIC "-//W3C//DTD SVG 1.1//EN" "http://www.w3.org/Graphics/SVG/1.1/DTD/svg11.dtd">
<!-- Creator: CorelDRAW X7 -->
<svg xmlns="http://www.w3.org/2000/svg" xml:space="preserve" width="7.375in" height="1.40583in" version="1.1" style="shape-rendering:geometricPrecision; text-rendering:geometricPrecision; image-rendering:optimizeQuality; fill-rule:evenodd; clip-rule:evenodd"
viewBox="0 0 73750 14058"
 xmlns:xlink="http://www.w3.org/1999/xlink">
 <defs>
  <style type="text/css">
   <![CDATA[
    .fil0 {fill:#D2AE6D}
    .fil1 {fill:#F6EFE2;fill-rule:nonzero}
   ]]>
  </style>
 </defs>
 <g id="Layer_x0020_1">
  <metadata id="CorelCorpID_0Corel-Layer"/>
  <g id="_2623014603168">
   <path class="fil0" d="M71781 14058l-69812 0c-1083,0 -1969,-886 -1969,-1968l0 -12090 73750 0 0 12090c0,1082 -886,1968 -1969,1968z"/>
   <path class="fil1" d="M53016 8501l-447 -447 1102 -1104 -3182 0 0 -630 3181 0 -1100 -1101 446 -449 1866 1865 -1866 1866zm-372 -5881c2217,0 4015,1798 4015,4015 0,2218 -1798,4016 -4015,4016 -2218,0 -4016,-1798 -4016,-4016 0,-2217 1798,-4015 4016,-4015zm2393 1622c-613,-612 -1459,-991 -2393,-991 -935,0 -1781,379 -2393,991 -613,613 -992,1459 -992,2393 0,935 379,1781 992,2394 612,612 1458,991 2393,991 934,0 1780,-379 2393,-991 612,-613 991,-1459 991,-2394 0,-934 -379,-1780 -991,-2393z"/>
  </g>
 </g>
</svg>
