<?xml version="1.0" encoding="UTF-8"?>
<!DOCTYPE svg PUBLIC "-//W3C//DTD SVG 1.1//EN" "http://www.w3.org/Graphics/SVG/1.1/DTD/svg11.dtd">
<!-- Creator: CorelDRAW X7 -->
<svg xmlns="http://www.w3.org/2000/svg" xml:space="preserve" width="6.57276in" height="11.1512in" version="1.1" style="shape-rendering:geometricPrecision; text-rendering:geometricPrecision; image-rendering:optimizeQuality; fill-rule:evenodd; clip-rule:evenodd"
viewBox="0 0 65728 111512"
 xmlns:xlink="http://www.w3.org/1999/xlink">
 <defs>
  <style type="text/css">
   <![CDATA[
    .fil0 {fill:#FEFEFE}
    .fil5 {fill:#C4CFE9}
    .fil2 {fill:#F7EFE3}
    .fil1 {fill:#FAF6F0}
    .fil6 {fill:white}
    .fil3 {fill:black;fill-rule:nonzero}
    .fil4 {fill:#C4CFE9;fill-rule:nonzero}
   ]]>
  </style>
 </defs>
 <g id="Layer_x0020_1">
  <metadata id="CorelCorpID_0Corel-Layer"/>
  <g id="_2622975240944">
   <polygon class="fil0" points="65728,0 0,0 0,111512 65728,111512 "/>
   <path class="fil1" d="M65728 49107c-12956,5063 -25163,10101 -38540,13469 -9229,2323 -18282,3601 -27188,3944l0 -13755 0 -7689c24351,-6351 38327,-23207 42104,-45076l23624 0 0 7979 0 41128z"/>
   <path class="fil2" d="M42104 0c-3777,21869 -17753,38725 -42104,45076l0 -45076 42104 0z"/>
   <g>
    <path class="fil3" d="M21044 35009c0,92 15,177 46,255 33,77 84,144 159,200 74,55 172,99 297,130 123,31 278,47 462,47 230,0 417,-17 560,-50 143,-33 255,-73 335,-120 81,-48 136,-99 166,-155 29,-57 44,-107 44,-153 0,-49 -19,-89 -57,-119 -37,-30 -98,-68 -184,-115 -95,-50 -184,-101 -269,-153 -84,-52 -157,-112 -218,-179 -61,-68 -110,-143 -146,-227 -36,-84 -54,-183 -54,-299 0,-129 23,-259 70,-389 46,-130 115,-248 205,-353 89,-105 204,-191 342,-257 138,-66 300,-99 485,-99 122,0 230,14 324,40 94,27 164,48 209,64l0 579c-116,-26 -215,-43 -299,-52 -83,-9 -149,-13 -195,-13 -86,0 -160,12 -223,37 -62,25 -114,58 -155,97 -41,39 -71,83 -91,131 -19,49 -29,96 -29,145 0,76 34,140 102,192 67,54 150,103 248,150 120,56 217,111 293,163 74,52 135,106 179,161 44,54 76,112 94,172 19,60 28,125 28,194 0,139 -28,280 -85,426 -56,146 -152,276 -289,393 -137,116 -318,212 -543,286 -225,74 -507,110 -847,110 -298,0 -550,-30 -755,-91 -205,-61 -371,-146 -498,-254 -126,-109 -216,-237 -270,-382 -56,-147 -83,-307 -83,-483l0 -793 642 0 0 764zm3908 -3437l0 3526 -638 0 0 -3526 638 0zm921 2243c0,40 5,82 14,126 10,43 28,82 54,117 27,34 62,63 107,86 44,24 101,35 170,35 43,0 87,-1 131,-4 44,-4 90,-14 136,-29l0 -683 -246 0c-122,0 -214,32 -275,97 -61,64 -91,149 -91,255zm1377 1283c-79,0 -155,-5 -229,-17 -74,-11 -143,-31 -205,-61 -63,-30 -118,-71 -165,-122 -48,-52 -85,-118 -110,-200 -56,13 -114,23 -174,32 -59,9 -119,13 -178,13 -82,0 -178,-12 -286,-37 -109,-24 -212,-70 -309,-136 -97,-66 -180,-158 -247,-275 -68,-117 -101,-268 -101,-451 0,-182 32,-335 96,-460 64,-124 147,-226 247,-306 101,-79 212,-137 336,-171 123,-35 244,-52 363,-52l839 0 0 1478c0,76 10,128 30,155 20,27 66,41 139,41l118 0c26,0 50,3 73,9 23,5 45,17 63,34 19,18 33,45 43,81 9,36 14,86 14,149 0,112 -16,190 -47,232 -31,43 -80,64 -146,64l-164 0zm1144 -1022c0,170 39,288 118,354 79,66 173,99 284,99l278 0 0 -374c0,-66 -4,-129 -12,-190 -9,-61 -25,-115 -50,-161 -25,-45 -58,-82 -101,-111 -43,-28 -97,-42 -163,-42 -69,0 -126,12 -170,38 -44,25 -80,57 -108,96 -28,40 -48,84 -60,135 -11,50 -16,102 -16,156zm-550 453c-26,-53 -45,-120 -57,-200 -12,-80 -18,-155 -18,-224 0,-129 22,-256 67,-380 45,-125 110,-236 193,-333 84,-98 189,-176 314,-235 125,-60 268,-90 429,-90 188,0 343,34 464,102 122,67 217,153 287,256 70,104 119,219 146,347 27,127 41,249 41,369l0 957 -2296 0c-25,0 -50,-2 -73,-7 -24,-5 -45,-17 -64,-35 -18,-19 -32,-46 -42,-82 -9,-36 -14,-86 -14,-148 0,-113 16,-190 47,-233 32,-43 80,-64 146,-64l430 0zm557 -2250c0,-95 35,-178 104,-248 69,-69 152,-105 249,-105 94,0 177,35 246,104 69,69 104,152 104,249 0,94 -35,177 -104,246 -69,69 -152,103 -246,103 -95,0 -177,-34 -247,-103 -70,-69 -106,-152 -106,-246zm3224 2819c-43,0 -103,-10 -178,-30 -76,-20 -142,-63 -198,-129 -3,223 -30,410 -78,561 -50,150 -124,272 -222,364 -99,92 -224,159 -375,197 -152,40 -334,61 -545,65l0 -603c135,-3 242,-19 322,-48 79,-28 139,-69 178,-125 39,-55 65,-127 76,-215 12,-87 17,-192 17,-314l0 -1471 637 0 0 839c0,129 39,218 117,266 78,50 161,74 249,74 26,0 50,3 74,9 23,5 44,17 63,34 18,18 32,45 42,81 10,36 14,86 14,149 0,112 -16,190 -47,232 -31,43 -80,64 -146,64zm1765 -569c-9,-132 -30,-253 -63,-363 -33,-110 -83,-205 -151,-284 -67,-78 -154,-140 -259,-184 -105,-44 -237,-66 -394,-66 -54,0 -137,7 -250,21 -113,15 -228,39 -344,73l0 -574c76,-26 179,-53 309,-83 130,-30 264,-45 402,-45 258,0 475,44 651,133 176,88 318,207 426,356 109,148 187,320 235,516 47,195 71,398 71,611l0 458 -2400 0c-26,0 -50,-2 -74,-7 -23,-5 -44,-17 -63,-35 -18,-19 -32,-46 -42,-82 -10,-36 -14,-86 -14,-148 0,-113 16,-190 47,-233 31,-43 80,-64 146,-64l1767 0zm2261 -714c0,40 5,82 14,126 10,43 28,82 54,117 27,34 62,63 106,86 45,24 102,35 171,35 43,0 87,-1 131,-4 44,-4 90,-14 136,-29l0 -683 -246 0c-122,0 -214,32 -275,97 -61,64 -91,149 -91,255zm1377 1283c-79,0 -155,-5 -229,-17 -75,-11 -143,-31 -205,-61 -63,-30 -118,-71 -165,-122 -48,-52 -85,-118 -110,-200 -56,13 -114,23 -174,32 -59,9 -119,13 -178,13 -82,0 -178,-12 -286,-37 -109,-24 -212,-70 -309,-136 -97,-66 -180,-158 -247,-275 -68,-117 -101,-268 -101,-451 0,-182 32,-335 96,-460 64,-124 146,-226 247,-306 101,-79 212,-137 336,-171 122,-35 243,-52 363,-52l839 0 0 1478c0,76 10,128 30,155 20,27 66,41 139,41l118 0c26,0 50,3 73,9 23,5 45,17 63,34 19,18 33,45 43,81 9,36 14,86 14,149 0,112 -16,190 -47,232 -31,43 -80,64 -146,64l-164 0zm1932 -569c-9,-132 -31,-253 -64,-363 -33,-110 -82,-205 -148,-284 -66,-78 -152,-140 -259,-184 -107,-44 -240,-66 -397,-66 -54,0 -136,7 -248,21 -111,15 -226,39 -346,73l0 -574c76,-26 180,-53 312,-83 131,-30 265,-45 400,-45 247,0 457,40 630,121 173,80 314,189 423,327 108,139 188,300 238,483 51,183 79,374 86,574l321 0c26,0 50,3 73,9 24,5 45,17 63,34 19,18 33,45 43,81 9,36 14,86 14,149 0,112 -16,190 -47,232 -31,43 -80,64 -146,64l-2716 0c-25,0 -50,-2 -73,-7 -24,-5 -45,-17 -64,-35 -18,-19 -32,-46 -42,-82 -9,-36 -14,-86 -14,-148 0,-113 16,-190 47,-233 32,-43 80,-64 146,-64l1768 0zm-1166 -2250c0,-95 34,-178 104,-248 69,-69 152,-105 248,-105 95,0 177,35 246,104 70,69 104,152 104,249 0,94 -34,177 -104,246 -69,69 -151,103 -246,103 -94,0 -177,-34 -247,-103 -70,-69 -105,-152 -105,-246zm2288 2250c72,0 132,-1 179,-5 48,-3 87,-13 116,-28 30,-17 51,-41 64,-72 13,-31 20,-75 20,-132l0 -942 638 0 0 839c0,106 29,189 86,250 58,60 146,90 264,90 98,0 181,-14 249,-43 67,-29 101,-93 101,-194l0 -942 639 0 0 839c0,116 26,201 77,257 50,55 135,83 254,83 91,0 165,-15 221,-46 56,-30 85,-99 85,-205l0 -1146 637 0 0 1057c0,122 24,209 73,261 49,53 156,79 318,79 25,0 50,3 73,9 23,5 44,17 62,34 17,18 31,45 42,81 10,36 15,86 15,149 0,112 -15,190 -47,232 -31,43 -79,64 -145,64 -95,0 -189,-17 -282,-52 -92,-34 -168,-104 -227,-210 -47,62 -96,111 -147,145 -50,35 -102,61 -155,80 -53,18 -106,29 -158,32 -52,4 -103,5 -153,5 -60,0 -122,-5 -188,-15 -66,-9 -131,-23 -195,-44 -64,-20 -122,-46 -173,-79 -50,-34 -91,-72 -122,-118 -101,113 -203,184 -307,213 -104,28 -217,43 -339,43 -324,0 -556,-85 -698,-256 -88,116 -203,188 -345,215 -140,27 -321,41 -542,41l-164 0c-25,0 -50,-2 -73,-7 -24,-5 -45,-17 -64,-35 -18,-19 -32,-46 -42,-82 -9,-36 -14,-86 -14,-148 0,-113 16,-190 47,-233 32,-43 80,-64 146,-64l174 0zm4541 -2250c0,-95 35,-178 104,-248 69,-69 152,-105 248,-105 95,0 177,35 247,104 69,69 103,152 103,249 0,94 -34,177 -103,246 -70,69 -152,103 -247,103 -94,0 -177,-34 -247,-103 -70,-69 -105,-152 -105,-246zm46 2250l0 -1397 647 0 0 1966 -1216 0c-25,0 -50,-2 -73,-7 -24,-5 -44,-17 -63,-35 -18,-19 -33,-46 -42,-82 -10,-36 -14,-86 -14,-148 0,-113 15,-190 47,-233 31,-43 79,-64 145,-64l569 0z"/>
    <polygon class="fil4" points="41034,40692 24694,40692 24694,40280 41034,40280 "/>
    <g>
     <path class="fil5" d="M32864 5844c-5980,0 -10827,4848 -10827,10827 0,5980 4847,10827 10827,10827 5979,0 10827,-4847 10827,-10827 0,-5979 -4848,-10827 -10827,-10827z"/>
     <path class="fil6" d="M32864 20537c-1068,0 -2034,-433 -2734,-1132 -699,-700 -1132,-1666 -1132,-2734 0,-1067 433,-2034 1132,-2733 700,-700 1666,-1132 2734,-1132 1067,0 2034,432 2733,1132 700,699 1132,1666 1132,2733 0,1068 -432,2034 -1132,2734 -699,699 -1666,1132 -2733,1132zm206 -10292l0 1739c-129,-6 -285,-12 -412,0l0 -1739c-356,-89 -612,-405 -612,-793 0,-454 363,-817 818,-817 454,0 817,363 817,817 0,388 -255,704 -611,793zm3750 3903l1506 -870c-100,-352 46,-731 381,-924 393,-227 889,-94 1117,299 227,393 94,890 -300,1117 -336,194 -738,130 -993,-135l-1505 869c-64,-122 -133,-240 -206,-356zm206 4692l1505 868c254,-265 657,-329 993,-135 394,227 527,723 300,1116 -228,394 -724,527 -1117,300 -335,-194 -481,-572 -381,-924l-1507 -870c74,-115 143,-233 206,-354l1 -1zm-3964 2519l0 1737c360,86 619,404 619,794 0,455 -363,818 -817,818 -455,0 -818,-363 -818,-818 0,-385 252,-699 604,-790l0 -1741c71,3 142,5 214,5 66,0 132,-2 198,-5zm-4160 -2173l-1504 868c107,355 -39,739 -377,935 -394,227 -890,94 -1117,-300 -227,-393 -95,-889 299,-1116 333,-192 731,-131 986,126l1507 -870 2 5c63,120 131,238 204,352zm-199 -4685l-1504 -869c-255,267 -658,333 -996,138 -394,-227 -526,-724 -299,-1117 227,-393 723,-526 1117,-299 334,193 480,569 382,921l1507 870c-74,115 -143,234 -207,356zm-2432 -1636c111,-194 348,-255 538,-145 200,115 258,344 145,539 -113,195 -340,260 -539,145 -190,-110 -256,-346 -144,-539zm0 7613c-112,-193 -46,-429 144,-539 199,-115 426,-51 539,145 113,195 55,423 -145,539 -190,109 -427,48 -538,-145zm6593 3807c-223,0 -395,-175 -395,-395 0,-230 169,-394 395,-394 225,0 394,164 394,394 0,220 -171,395 -394,395zm6593 -3807c-111,193 -349,254 -539,145 -199,-116 -257,-344 -144,-539 113,-196 340,-260 539,-145 190,110 256,346 144,539zm0 -7613c112,193 46,429 -144,539 -199,115 -426,50 -539,-145 -113,-195 -55,-424 144,-539 190,-110 428,-49 539,145zm-6593 -3807c223,0 394,175 394,394 0,230 -169,395 -394,395 -226,0 -395,-165 -395,-395 0,-219 172,-394 395,-394zm0 5399c750,0 1224,471 1394,1174 836,-156 1559,318 1559,1187 0,685 -558,1240 -1243,1240l-3421 0c-684,0 -1242,-555 -1242,-1240 0,-869 722,-1343 1558,-1187 170,-703 645,-1174 1395,-1174zm0 6492c-2363,0 -4278,-1915 -4278,-4278 0,-2362 1915,-4277 4278,-4277 2362,0 4278,1915 4278,4277 0,2363 -1916,4278 -4278,4278z"/>
    </g>
   </g>
  </g>
 </g>
</svg>
