<?xml version="1.0" encoding="UTF-8"?>
<!DOCTYPE svg PUBLIC "-//W3C//DTD SVG 1.1//EN" "http://www.w3.org/Graphics/SVG/1.1/DTD/svg11.dtd">
<!-- Creator: CorelDRAW X7 -->
<svg xmlns="http://www.w3.org/2000/svg" xml:space="preserve" width="14.977in" height="14.331in" version="1.1" style="shape-rendering:geometricPrecision; text-rendering:geometricPrecision; image-rendering:optimizeQuality; fill-rule:evenodd; clip-rule:evenodd"
viewBox="0 0 149770 143310"
 xmlns:xlink="http://www.w3.org/1999/xlink">
 <defs>
  <style type="text/css">
   <![CDATA[
    .fil0 {fill:#F7F2E6}
   ]]>
  </style>
 </defs>
 <g id="Layer_x0020_1">
  <metadata id="CorelCorpID_0Corel-Layer"/>
  <path class="fil0" d="M101387 19565c-11297,-11298 -26104,-16946 -40911,-16946 -14807,0 -29614,5648 -40911,16946 -11298,11297 -16946,26104 -16946,40911 0,14807 5648,29614 16946,40911 11297,11298 26104,16946 40911,16946 14807,0 29614,-5648 40911,-16946 11298,-11297 16946,-26104 16946,-40911 0,-14807 -5648,-29614 -16946,-40911zm37960 42777c2878,0 5484,1166 7370,3053 1886,1886 3053,4491 3053,7369 0,2878 -1167,5484 -3053,7370 -1886,1886 -4492,3053 -7370,3053 -2878,0 -5483,-1167 -7370,-3053 -1886,-1886 -3052,-4492 -3052,-7370 0,-2878 1166,-5483 3052,-7369 1887,-1887 4492,-3053 7370,-3053zm5516 4906c-1412,-1411 -3362,-2284 -5516,-2284 -2154,0 -4104,873 -5516,2284 -1411,1412 -2284,3362 -2284,5516 0,2154 873,4105 2284,5516 1412,1412 3362,2285 5516,2285 2154,0 4104,-873 5516,-2285 1411,-1411 2285,-3362 2285,-5516 0,-2154 -874,-4104 -2285,-5516zm-52108 -39051c-458,-458 -838,-420 -1385,-420l-32158 0 -40416 40416c-920,918 -1423,2134 -1423,3430 0,1296 503,2518 1423,3431l13551 13551 13551 13551c913,920 2135,1423 3431,1423 1296,0 2512,-503 3430,-1423l40416 -40416 0 -32158c0,-547 38,-927 -420,-1385zm-20763 22706c536,-536 536,-1409 0,-1946 -538,-538 -1404,-538 -1941,0l-1027 1027c-2459,-1967 -5574,-2934 -8764,-2664 -2216,187 -4223,1253 -5646,3013 -1470,1813 -2149,4183 -1860,6501l1048 8372 -12302 12301c-2819,-3766 -2530,-9138 894,-12564 536,-536 536,-1402 0,-1939 -538,-538 -1410,-538 -1948,0 -4498,4492 -4801,11615 -912,16472l-1572 1569c-538,537 -538,1404 0,1942 269,269 617,403 973,403 349,0 705,-134 975,-403l1571 -1573c2188,1753 4901,2715 7714,2715 343,0 692,-14 1041,-43 2215,-186 4223,-1253 5653,-3014 1464,-1812 2144,-4182 1855,-6499l-1049 -8373 12308 -12300c2813,3765 2525,9138 -899,12561 -538,538 -538,1404 0,1941 536,538 1409,538 1947,0 4499,-4498 4801,-11616 913,-16471l1028 -1028zm-17760 17760l779 6252c201,1578 -263,3190 -1264,4424 -952,1176 -2283,1888 -3745,2009 -2364,189 -4688,-497 -6562,-1894l10792 -10791zm2027 -5922l-779 -6251c-194,-1579 263,-3189 1263,-4424 953,-1168 2283,-1881 3746,-2008 2363,-195 4687,489 6568,1895l-10798 10788zm28169 -16499c2684,-2683 2684,-7035 0,-9718 -2683,-2684 -7035,-2684 -9718,0 -2684,2683 -2684,7035 0,9718 2683,2684 7035,2684 9718,0zm-1952 -7766c804,803 1205,1855 1205,2907 0,1052 -401,2104 -1205,2907 -803,804 -1855,1205 -2907,1205 -1052,0 -2104,-401 -2907,-1205 -803,-803 -1205,-1855 -1205,-2907 0,-1052 402,-2104 1205,-2907 803,-804 1855,-1205 2907,-1205 1052,0 2105,401 2907,1205zm-48185 48185l-13554 -13555c-396,-396 -611,-920 -611,-1483 0,-558 215,-1088 617,-1491l39617 -39601 30061 0 0 30061 -39601 39617c-403,402 -933,617 -1491,617 -563,0 -1087,-215 -1483,-611l-13555 -13554zm-16268 16886c-2374,1045 -4516,2522 -6325,4331 -3756,3756 -6080,8945 -6080,14676 0,5732 2324,10921 6080,14677 3756,3756 8945,6079 14676,6079 5731,0 10920,-2323 14676,-6079 3756,-3756 6079,-8945 6079,-14677 0,-1067 -80,-2115 -235,-3139l1 0c4465,1024 9023,1537 13581,1537 15477,0 30954,-5904 42763,-17713 11809,-11809 17713,-27286 17713,-42763 0,-15477 -5904,-30954 -17713,-42763 -11809,-11809 -27286,-17713 -42763,-17713 -15477,0 -30954,5904 -42763,17713 -11809,11809 -17713,27286 -17713,42763 0,15477 5904,30954 17713,42763 102,102 205,203 308,304l2 4zm26074 15155l1 1c268,1241 409,2530 409,3851 0,5008 -2029,9541 -5311,12823 -3281,3281 -7815,5311 -12822,5311 -5008,0 -9541,-2030 -12822,-5311 -3282,-3282 -5311,-7815 -5311,-12823 0,-5007 2029,-9541 5311,-12822 1842,-1843 4080,-3291 6575,-4206l2 1c7085,6356 15309,10748 23968,13175z"/>
 </g>
</svg>
