<?xml version="1.0" encoding="UTF-8"?>
<!DOCTYPE svg PUBLIC "-//W3C//DTD SVG 1.1//EN" "http://www.w3.org/Graphics/SVG/1.1/DTD/svg11.dtd">
<!-- Creator: CorelDRAW X7 -->
<svg xmlns="http://www.w3.org/2000/svg" xml:space="preserve" width="1.79315in" height="1.79315in" version="1.1" style="shape-rendering:geometricPrecision; text-rendering:geometricPrecision; image-rendering:optimizeQuality; fill-rule:evenodd; clip-rule:evenodd"
viewBox="0 0 17931 17931"
 xmlns:xlink="http://www.w3.org/1999/xlink">
 <defs>
  <style type="text/css">
   <![CDATA[
    .fil1 {fill:#8DA0D1}
    .fil0 {fill:white}
   ]]>
  </style>
 </defs>
 <g id="Layer_x0020_1">
  <metadata id="CorelCorpID_0Corel-Layer"/>
  <g id="_2622976164240">
   <path class="fil0" d="M8966 0c-4952,0 -8966,4014 -8966,8966 0,4951 4014,8965 8966,8965 4951,0 8965,-4014 8965,-8965 0,-4952 -4014,-8966 -8965,-8966z"/>
   <path class="fil1" d="M8966 12167c-884,0 -1685,-358 -2264,-938 -579,-579 -937,-1379 -937,-2263 0,-884 358,-1685 937,-2264 579,-579 1380,-937 2264,-937 884,0 1684,358 2263,937 580,579 938,1380 938,2264 0,884 -358,1684 -938,2263 -579,580 -1379,938 -2263,938zm170 -8523l0 1440c-106,-5 -236,-10 -341,0l0 -1440c-295,-74 -506,-335 -506,-656 0,-377 300,-677 677,-677 376,0 677,300 677,677 0,321 -212,582 -507,656zm3106 3232l1247 -720c-83,-292 38,-605 315,-765 326,-189 737,-79 925,247 188,326 78,737 -248,925 -278,161 -611,108 -822,-111l-1246 719c-53,-101 -110,-199 -171,-295zm171 3885l1245 719c212,-219 545,-272 823,-111 326,188 436,598 248,924 -188,326 -599,436 -925,248 -277,-160 -398,-473 -315,-765l-1248 -720c62,-95 119,-193 171,-294l1 -1zm-3283 2087l0 1438c298,71 513,334 513,658 0,376 -301,677 -677,677 -377,0 -677,-301 -677,-677 0,-319 208,-579 500,-655l0 -1442c59,3 117,4 177,4 55,0 109,-1 164,-3zm-3445 -1800l-1245 719c88,294 -33,612 -313,774 -326,188 -736,78 -925,-248 -188,-326 -78,-736 248,-924 276,-160 605,-109 816,104l1248 -720 2 4c52,99 108,196 169,291zm-165 -3880l-1245 -719c-211,221 -546,275 -825,114 -326,-188 -436,-599 -248,-925 189,-326 599,-436 925,-247 277,159 398,471 316,762l1248 720c-61,96 -118,194 -171,295zm-2014 -1355c92,-160 289,-210 446,-119 165,95 213,284 120,446 -94,162 -282,215 -447,120 -157,-91 -212,-287 -119,-447zm0 6305c-93,-160 -38,-355 119,-446 165,-96 353,-42 447,119 93,162 45,351 -120,447 -157,90 -354,40 -446,-120zm5460 3152c-185,0 -327,-145 -327,-326 0,-191 140,-327 327,-327 187,0 327,136 327,327 0,181 -142,326 -327,326zm5460 -3152c-92,160 -289,210 -447,120 -165,-96 -212,-285 -119,-447 93,-161 281,-215 446,-119 158,91 212,286 120,446zm0 -6305c92,160 38,356 -120,447 -165,95 -353,42 -446,-120 -93,-162 -46,-351 119,-446 158,-91 355,-41 447,119zm-5460 -3152c185,0 327,145 327,327 0,190 -140,326 -327,326 -187,0 -327,-136 -327,-326 0,-182 142,-327 327,-327zm0 4471c621,0 1014,390 1155,972 692,-129 1290,263 1290,983 0,568 -462,1027 -1029,1027l-2833 0c-567,0 -1028,-459 -1028,-1027 0,-720 598,-1112 1290,-983 141,-582 534,-972 1155,-972zm0 5376c-1957,0 -3543,-1586 -3543,-3542 0,-1957 1586,-3543 3543,-3543 1956,0 3542,1586 3542,3543 0,1956 -1586,3542 -3542,3542z"/>
  </g>
 </g>
</svg>
