<?xml version="1.0" encoding="UTF-8"?>
<!DOCTYPE svg PUBLIC "-//W3C//DTD SVG 1.1//EN" "http://www.w3.org/Graphics/SVG/1.1/DTD/svg11.dtd">
<!-- Creator: CorelDRAW X7 -->
<svg xmlns="http://www.w3.org/2000/svg" xml:space="preserve" width="2.67846in" height="4.86933in" version="1.1" style="shape-rendering:geometricPrecision; text-rendering:geometricPrecision; image-rendering:optimizeQuality; fill-rule:evenodd; clip-rule:evenodd"
viewBox="0 0 26785 48693"
 xmlns:xlink="http://www.w3.org/1999/xlink">
 <defs>
  <style type="text/css">
   <![CDATA[
    .fil0 {fill:#D7B77D}
    .fil1 {fill:#FEFEFE;fill-rule:nonzero}
   ]]>
  </style>
 </defs>
 <g id="Layer_x0020_1">
  <metadata id="CorelCorpID_0Corel-Layer"/>
  <g id="_2622979447648">
   <path class="fil0" d="M2438 0c-823,0 -1636,41 -2438,121l0 48451c802,80 1615,121 2438,121 13446,0 24347,-10900 24347,-24346 0,-13447 -10901,-24347 -24347,-24347z"/>
   <path class="fil1" d="M3186 24439c-70,0 -129,17 -176,50 -48,34 -87,77 -117,129 -29,52 -52,112 -65,179 -14,68 -21,133 -21,196 0,124 28,224 84,299 56,76 159,114 309,114 119,0 211,-35 273,-103 63,-69 94,-166 94,-289 0,-158 -32,-293 -97,-406 -66,-113 -161,-169 -284,-169zm-1033 596c0,-141 23,-285 71,-431 47,-146 115,-277 206,-393 90,-116 199,-211 324,-285 127,-74 270,-111 432,-111 148,0 284,29 410,86 125,56 233,137 325,241 90,104 163,231 216,382 53,152 80,321 80,511 0,124 -19,243 -58,359 -38,116 -100,219 -185,309 -86,91 -194,164 -325,219 -132,56 -291,84 -478,84 -152,0 -289,-20 -414,-57 -125,-39 -232,-98 -322,-177 -90,-79 -160,-181 -209,-305 -49,-123 -73,-268 -73,-432zm3889 634c0,119 -17,203 -51,248 -33,46 -85,68 -155,68l-222 0c-120,0 -230,-13 -330,-39 -99,-27 -185,-71 -257,-132 -73,-61 -129,-143 -169,-245 -41,-102 -61,-228 -61,-380l0 -2971 686 0 0 2875c0,125 22,203 65,235 44,33 107,50 188,50l100 0c27,0 53,2 78,8 26,7 48,19 68,37 19,20 34,48 45,87 10,38 15,91 15,159zm1017 -291c74,0 146,-15 212,-44 67,-29 101,-91 101,-183 0,-64 -40,-149 -119,-255 -79,-107 -184,-220 -314,-341 -131,-120 -279,-239 -443,-357 -166,-118 -333,-220 -503,-308 24,-117 53,-213 87,-288 35,-76 70,-137 105,-182 35,-45 69,-80 103,-103 33,-23 61,-40 81,-51l1843 -811 0 706 -1248 518 0 16c211,137 387,273 524,406 137,135 247,265 330,391 82,126 139,246 171,360 32,115 48,222 48,322 0,84 -12,173 -36,268 -22,94 -67,182 -133,264 -66,82 -160,148 -283,201 -122,52 -280,78 -476,78l-1278 0c-28,0 -54,-2 -79,-7 -25,-6 -47,-18 -68,-37 -19,-21 -34,-50 -44,-88 -11,-39 -15,-92 -15,-159 0,-120 16,-203 50,-249 33,-45 85,-67 156,-67l1228 0zm-1038 -2317c21,-427 173,-713 459,-859l1667 -755 0 675 -2126 939zm4817 2924c-102,0 -188,-5 -260,-15 -72,-10 -135,-26 -187,-48 -52,-21 -102,-48 -148,-83 -47,-33 -94,-72 -142,-117 -101,117 -211,190 -330,219 -118,29 -246,44 -384,44l-918 0 0 -607 1045 0c83,0 146,-14 188,-39 41,-26 61,-57 61,-93 0,-40 -16,-87 -50,-143 -33,-56 -96,-149 -187,-280l-481 -711 628 -402 634 1072c67,114 125,209 174,286 49,77 93,139 134,184 40,46 78,78 113,97 36,19 72,29 110,29 28,0 54,2 79,8 27,7 49,19 68,37 19,20 34,48 43,87 11,38 16,91 16,159 0,119 -17,203 -50,248 -33,46 -85,68 -156,68zm0 0c-27,0 -53,-2 -78,-7 -26,-6 -48,-19 -68,-40 -19,-22 -34,-52 -45,-91 -10,-38 -15,-91 -15,-158 0,-121 17,-203 51,-249 33,-45 85,-68 155,-68l835 0 0 -1487 691 0 0 2100 -1526 0zm59 887c0,-101 37,-189 111,-263 74,-74 162,-111 263,-111 101,0 189,37 263,111 74,74 111,162 111,263 0,101 -37,189 -111,263 -74,74 -162,111 -263,111 -101,0 -189,-37 -263,-111 -74,-74 -111,-162 -111,-263zm859 0c0,-101 37,-189 111,-263 73,-74 162,-111 265,-111 101,0 189,37 263,111 74,74 111,162 111,263 0,101 -37,189 -111,263 -74,74 -162,111 -263,111 -101,0 -190,-37 -265,-111 -74,-74 -111,-162 -111,-263zm3043 -1552c0,92 -15,177 -44,258 -29,81 -74,151 -133,211 -61,61 -138,108 -233,144 -96,35 -208,52 -337,52l-1279 0 0 -607 1034 0c81,0 144,-8 191,-24 47,-15 69,-45 69,-87 0,-21 -2,-42 -8,-63 -5,-20 -18,-49 -39,-86 -22,-37 -53,-85 -93,-145 -41,-61 -94,-140 -161,-238l-417 -623c104,-71 206,-138 308,-203 100,-66 205,-132 315,-199l459 745c124,200 216,368 277,502 61,134 91,255 91,363zm6401 665c-101,0 -203,-16 -305,-50 -102,-33 -185,-106 -249,-218 -43,61 -93,108 -150,144 -58,36 -120,64 -188,82 -66,18 -136,29 -208,35 -72,5 -143,7 -214,7l-2317 0c-207,0 -381,-15 -523,-44 -141,-30 -253,-80 -337,-146 -84,-67 -144,-154 -179,-259 -36,-106 -53,-234 -53,-385l0 -872 685 0 0 778c0,71 10,126 27,167 19,40 50,73 95,96 46,24 108,40 185,47 77,7 176,11 296,11l2010 0c121,0 204,-19 252,-56 47,-37 70,-120 70,-249l0 -1188 681 0 0 1129c0,130 27,224 82,279 55,56 169,85 340,85 28,0 54,2 79,8 25,7 47,19 67,37 20,20 35,48 45,87 11,38 15,91 15,159 0,119 -16,203 -50,248 -33,46 -85,68 -156,68zm-3394 -2711c0,-102 37,-190 111,-264 74,-75 162,-113 265,-113 102,0 189,37 263,111 74,74 111,163 111,266 0,101 -37,189 -111,263 -74,73 -161,110 -263,110 -101,0 -189,-37 -263,-110 -75,-74 -113,-162 -113,-263zm861 0c0,-102 37,-190 111,-264 74,-75 161,-113 263,-113 101,0 189,37 264,111 75,74 112,163 112,266 0,101 -37,189 -111,263 -74,73 -162,110 -265,110 -102,0 -189,-37 -263,-110 -74,-74 -111,-162 -111,-263zm2853 2104c120,0 204,-19 251,-56 48,-37 71,-120 71,-249l0 -1188 686 0 0 1129c0,130 24,224 73,279 49,56 158,85 329,85 27,0 53,2 78,8 25,7 47,19 66,37 19,20 33,48 45,87 11,38 17,91 17,159 0,119 -17,203 -50,248 -34,46 -86,68 -156,68 -101,0 -200,-16 -296,-50 -95,-33 -174,-106 -238,-218 -43,61 -94,108 -153,144 -59,36 -122,64 -189,82 -68,18 -138,29 -210,35 -72,5 -143,7 -213,7l-433 0c-27,0 -54,-2 -79,-7 -25,-6 -47,-18 -67,-37 -20,-21 -35,-50 -45,-88 -11,-39 -15,-92 -15,-159 0,-120 17,-203 50,-249 34,-45 85,-67 156,-67l322 0zm289 1478c0,-101 37,-189 111,-263 74,-74 162,-111 266,-111 101,0 188,37 262,111 74,74 111,162 111,263 0,101 -37,189 -111,263 -74,74 -161,111 -262,111 -102,0 -190,-37 -265,-111 -75,-74 -112,-162 -112,-263zm1726 -1478l0 -1493 691 0 0 2100 -1299 0c-27,0 -53,-2 -78,-7 -26,-6 -48,-18 -68,-37 -19,-21 -34,-50 -45,-88 -10,-39 -15,-92 -15,-159 0,-120 17,-203 50,-249 34,-45 86,-67 156,-67l608 0zm-514 -2405c0,-102 37,-189 111,-264 74,-75 163,-113 266,-113 101,0 189,37 263,111 74,74 111,163 111,266 0,101 -37,189 -111,263 -74,74 -162,110 -263,110 -101,0 -189,-36 -264,-110 -75,-74 -113,-162 -113,-263zm861 0c0,-102 37,-189 111,-264 74,-75 161,-113 263,-113 101,0 189,37 264,111 75,74 112,163 112,266 0,101 -37,189 -111,263 -74,74 -162,110 -265,110 -102,0 -189,-36 -263,-110 -74,-74 -111,-162 -111,-263zm-417 -766c0,-101 37,-189 110,-263 74,-75 163,-113 266,-113 101,0 189,37 263,111 74,74 111,162 111,265 0,102 -37,189 -111,263 -74,74 -162,111 -263,111 -101,0 -189,-37 -264,-111 -75,-74 -112,-161 -112,-263z"/>
  </g>
 </g>
</svg>
