<?xml version="1.0" encoding="UTF-8"?>
<!DOCTYPE svg PUBLIC "-//W3C//DTD SVG 1.1//EN" "http://www.w3.org/Graphics/SVG/1.1/DTD/svg11.dtd">
<!-- Creator: CorelDRAW X7 -->
<svg xmlns="http://www.w3.org/2000/svg" xml:space="preserve" width="2.49228in" height="3.04039in" version="1.1" style="shape-rendering:geometricPrecision; text-rendering:geometricPrecision; image-rendering:optimizeQuality; fill-rule:evenodd; clip-rule:evenodd"
viewBox="0 0 24923 30404"
 xmlns:xlink="http://www.w3.org/1999/xlink">
 <defs>
  <style type="text/css">
   <![CDATA[
    .fil1 {fill:#8DA0D1}
    .fil2 {fill:white}
    .fil0 {fill:black;fill-rule:nonzero}
   ]]>
  </style>
 </defs>
 <g id="Layer_x0020_1">
  <metadata id="CorelCorpID_0Corel-Layer"/>
  <g id="_2622641616544">
   <path class="fil0" d="M641 29165c0,91 16,176 47,254 32,78 84,144 158,200 74,55 173,99 297,130 124,32 279,47 463,47 230,0 417,-16 560,-49 143,-33 254,-73 335,-120 81,-48 136,-100 166,-156 29,-57 44,-107 44,-152 0,-50 -19,-90 -57,-120 -38,-29 -99,-67 -184,-114 -95,-50 -185,-101 -269,-153 -84,-53 -158,-112 -219,-180 -61,-67 -109,-143 -145,-227 -37,-83 -55,-183 -55,-299 0,-128 23,-258 70,-388 47,-130 116,-248 205,-353 90,-106 204,-191 343,-257 138,-66 299,-99 485,-99 122,0 230,13 324,39 94,28 164,48 208,65l0 578c-115,-25 -215,-42 -298,-52 -84,-9 -150,-13 -196,-13 -85,0 -159,13 -222,37 -62,26 -114,58 -155,98 -41,38 -71,83 -91,130 -19,49 -29,97 -29,145 0,76 34,140 101,193 68,53 151,103 249,150 119,56 217,110 292,163 75,52 135,105 180,160 44,55 76,112 94,172 19,60 28,126 28,195 0,138 -28,280 -85,425 -56,146 -152,277 -289,394 -137,116 -318,211 -544,286 -224,74 -507,110 -846,110 -299,0 -551,-31 -756,-92 -205,-60 -370,-145 -497,-254 -126,-109 -216,-236 -271,-382 -55,-146 -82,-307 -82,-482l0 -794 641 0 0 765zm3908 -3437l0 3526 -637 0 0 -3526 637 0zm922 2242c0,41 5,83 14,126 10,43 28,83 54,117 26,35 62,63 106,87 45,23 101,35 171,35 42,0 87,-2 130,-5 45,-3 90,-13 137,-29l0 -682 -246 0c-122,0 -214,32 -275,96 -61,64 -91,149 -91,255zm1377 1284c-79,0 -156,-6 -230,-18 -74,-10 -142,-31 -205,-60 -62,-30 -117,-71 -164,-122 -48,-52 -85,-119 -111,-200 -56,12 -113,23 -173,32 -60,9 -119,13 -178,13 -83,0 -178,-12 -287,-37 -108,-25 -211,-71 -308,-137 -98,-66 -180,-157 -247,-275 -68,-117 -102,-267 -102,-450 0,-182 32,-335 97,-460 64,-125 146,-227 247,-307 101,-79 212,-136 336,-171 122,-34 243,-52 363,-52l838 0 0 1479c0,76 10,128 31,155 20,27 66,41 138,41l119 0c25,0 50,2 73,8 23,6 45,17 63,35 19,18 33,44 42,80 10,37 14,86 14,149 0,112 -15,191 -46,233 -32,42 -80,64 -146,64l-164 0zm1143 -1023c0,171 39,288 118,354 79,67 174,100 285,100l278 0 0 -375c0,-66 -5,-129 -13,-190 -8,-61 -25,-114 -49,-160 -25,-46 -59,-83 -101,-112 -43,-28 -98,-42 -163,-42 -70,0 -126,13 -170,38 -45,25 -81,57 -109,97 -28,39 -48,84 -59,135 -12,50 -17,102 -17,155zm-549 454c-27,-54 -46,-120 -57,-201 -13,-80 -18,-155 -18,-224 0,-128 22,-255 67,-379 45,-126 110,-237 193,-334 84,-97 188,-175 313,-235 126,-60 269,-89 429,-89 189,0 344,33 465,101 122,67 217,153 287,257 70,104 119,219 146,346 27,127 41,250 41,369l0 958 -2296 0c-26,0 -50,-3 -73,-8 -24,-5 -45,-16 -64,-34 -18,-19 -32,-46 -42,-83 -10,-36 -14,-85 -14,-148 0,-113 16,-190 47,-233 31,-43 80,-63 146,-63l430 0zm557 -2251c0,-95 35,-177 104,-247 69,-70 152,-105 248,-105 95,0 177,34 246,103 70,70 104,153 104,249 0,95 -34,177 -104,246 -69,69 -151,104 -246,104 -94,0 -177,-35 -247,-104 -70,-69 -105,-151 -105,-246zm3224 2820c-44,0 -103,-10 -179,-31 -75,-19 -141,-62 -197,-128 -4,223 -30,410 -79,561 -49,149 -123,271 -222,363 -99,93 -224,159 -374,198 -152,39 -334,61 -545,64l0 -602c135,-4 242,-19 321,-48 80,-28 140,-69 179,-125 39,-55 64,-127 76,-215 11,-87 16,-193 16,-315l0 -1471 638 0 0 840c0,128 38,217 116,266 79,49 162,74 250,74 25,0 50,2 73,8 24,6 45,17 64,35 18,18 32,44 42,80 9,37 14,86 14,149 0,112 -16,191 -47,233 -32,42 -80,64 -146,64zm1765 -569c-9,-133 -30,-254 -63,-363 -33,-111 -84,-205 -151,-284 -68,-78 -154,-140 -259,-185 -106,-43 -237,-66 -395,-66 -53,0 -136,8 -249,22 -114,15 -228,39 -344,72l0 -573c75,-27 178,-54 308,-84 131,-29 265,-45 403,-45 258,0 474,45 650,133 177,89 319,207 427,356 109,148 187,320 234,516 47,195 71,399 71,611l0 459 -2400 0c-25,0 -50,-3 -73,-8 -24,-5 -44,-16 -63,-34 -18,-19 -32,-46 -42,-83 -10,-36 -14,-85 -14,-148 0,-113 15,-190 47,-233 31,-43 80,-63 145,-63l1768 0zm2261 -715c0,41 5,83 14,126 9,43 28,83 54,117 26,35 62,63 106,87 45,23 101,35 171,35 42,0 87,-2 130,-5 45,-3 90,-13 137,-29l0 -682 -246 0c-122,0 -214,32 -275,96 -61,64 -91,149 -91,255zm1377 1284c-79,0 -156,-6 -230,-18 -74,-10 -142,-31 -205,-60 -62,-30 -117,-71 -164,-122 -48,-52 -85,-119 -111,-200 -56,12 -113,23 -173,32 -60,9 -119,13 -178,13 -83,0 -178,-12 -287,-37 -108,-25 -211,-71 -309,-137 -97,-66 -179,-157 -246,-275 -68,-117 -102,-267 -102,-450 0,-182 32,-335 97,-460 64,-125 146,-227 247,-307 101,-79 212,-136 335,-171 123,-34 244,-52 364,-52l838 0 0 1479c0,76 10,128 31,155 20,27 66,41 138,41l119 0c25,0 50,2 73,8 23,6 45,17 63,35 19,18 33,44 42,80 9,37 14,86 14,149 0,112 -15,191 -46,233 -32,42 -80,64 -146,64l-164 0zm1931 -569c-9,-133 -30,-254 -63,-363 -33,-111 -82,-205 -148,-284 -66,-78 -153,-140 -260,-185 -107,-43 -239,-66 -396,-66 -54,0 -136,8 -248,22 -111,15 -227,39 -346,72l0 -573c76,-27 180,-54 311,-84 132,-29 265,-45 400,-45 248,0 458,40 631,121 173,81 314,189 422,328 109,138 189,299 239,482 51,184 79,375 86,575l321 0c25,0 50,2 73,8 24,6 45,17 63,35 19,18 33,44 42,80 9,37 14,86 14,149 0,112 -15,191 -47,233 -31,42 -79,64 -145,64l-2716 0c-26,0 -50,-3 -74,-8 -23,-5 -44,-16 -63,-34 -18,-19 -32,-46 -42,-83 -10,-36 -14,-85 -14,-148 0,-113 16,-190 47,-233 31,-43 80,-63 146,-63l1767 0zm-1165 -2251c0,-95 34,-177 103,-247 69,-70 153,-105 249,-105 95,0 177,34 246,103 69,70 104,153 104,249 0,95 -35,177 -104,246 -69,69 -151,104 -246,104 -95,0 -177,-35 -247,-104 -70,-69 -105,-151 -105,-246zm2287 2251c73,0 133,-2 180,-5 48,-3 86,-13 116,-29 30,-16 51,-40 63,-72 14,-31 20,-74 20,-131l0 -943 639 0 0 840c0,105 29,188 86,249 57,60 145,91 264,91 98,0 181,-15 249,-44 67,-29 101,-93 101,-193l0 -943 639 0 0 840c0,115 25,201 76,257 50,55 135,83 255,83 91,0 165,-16 221,-46 56,-31 85,-99 85,-205l0 -1146 636 0 0 1057c0,122 25,209 74,261 49,53 155,79 317,79 26,0 51,2 74,8 23,6 43,17 61,35 18,18 32,44 42,80 11,37 16,86 16,149 0,112 -16,191 -47,233 -31,42 -80,64 -146,64 -94,0 -188,-18 -281,-52 -92,-35 -168,-105 -227,-211 -47,63 -96,111 -147,146 -50,34 -102,61 -156,80 -52,18 -105,29 -158,32 -52,3 -103,5 -153,5 -59,0 -122,-5 -187,-15 -66,-9 -131,-24 -196,-45 -64,-19 -121,-46 -172,-79 -51,-33 -92,-72 -122,-117 -102,112 -204,183 -307,212 -104,29 -218,44 -340,44 -323,0 -555,-86 -697,-256 -88,116 -203,187 -345,215 -141,27 -322,41 -542,41l-164 0c-26,0 -50,-3 -74,-8 -23,-5 -44,-16 -63,-34 -18,-19 -32,-46 -42,-83 -10,-36 -14,-85 -14,-148 0,-113 16,-190 47,-233 31,-43 80,-63 146,-63l173 0zm4542 -2251c0,-95 34,-177 103,-247 70,-70 153,-105 249,-105 95,0 177,34 246,103 69,70 104,153 104,249 0,95 -35,177 -104,246 -69,69 -151,104 -246,104 -95,0 -177,-35 -247,-104 -70,-69 -105,-151 -105,-246zm46 2251l0 -1397 647 0 0 1966 -1216 0c-26,0 -50,-3 -73,-8 -24,-5 -45,-16 -64,-34 -18,-19 -32,-46 -42,-83 -10,-36 -14,-85 -14,-148 0,-113 16,-190 47,-233 31,-43 80,-63 146,-63l569 0z"/>
   <g>
    <path class="fil1" d="M12461 0c-5979,0 -10826,4847 -10826,10827 0,5979 4847,10827 10826,10827 5980,0 10827,-4848 10827,-10827 0,-5980 -4847,-10827 -10827,-10827z"/>
    <path class="fil2" d="M12461 14693c-1067,0 -2033,-433 -2733,-1133 -700,-699 -1132,-1666 -1132,-2733 0,-1068 432,-2034 1132,-2734 700,-699 1666,-1132 2733,-1132 1068,0 2034,433 2734,1132 699,700 1132,1666 1132,2734 0,1067 -433,2034 -1132,2733 -700,700 -1666,1133 -2734,1133zm206 -10293l0 1739c-128,-5 -284,-12 -412,0l0 -1739c-355,-89 -611,-405 -611,-792 0,-455 363,-817 818,-817 454,0 817,362 817,817 0,387 -256,703 -612,792zm3750 3904l1507 -870c-101,-352 45,-731 380,-924 394,-228 890,-95 1117,298 227,394 95,890 -299,1117 -336,194 -738,130 -993,-134l-1505 869c-64,-122 -133,-241 -207,-356zm207 4691l1504 868c255,-265 658,-329 994,-135 394,228 526,723 299,1117 -227,394 -723,527 -1117,299 -334,-193 -480,-571 -381,-923l-1506 -870c74,-115 143,-233 206,-355l1 -1zm-3964 2520l0 1737c360,86 619,403 619,794 0,454 -363,817 -817,817 -455,0 -818,-363 -818,-817 0,-385 252,-699 604,-791l0 -1741c71,3 142,5 213,5 67,0 133,-1 199,-4zm-4161 -2173l-1503 868c106,355 -39,739 -378,934 -393,228 -889,95 -1116,-299 -228,-394 -95,-889 299,-1117 333,-192 730,-131 985,127l1508 -870 2 5c63,120 130,237 203,352zm-198 -4686l-1504 -868c-255,267 -659,332 -996,137 -394,-227 -526,-723 -299,-1116 227,-394 723,-527 1116,-299 335,192 480,569 382,920l1508 870c-75,115 -143,234 -207,356zm-2433 -1636c112,-193 349,-254 539,-144 199,115 257,343 144,539 -112,195 -339,259 -539,144 -190,-110 -256,-346 -144,-539zm0 7614c-112,-194 -46,-430 144,-539 200,-116 427,-51 539,144 113,195 55,424 -144,539 -190,110 -427,49 -539,-144zm6594 3806c-224,0 -395,-175 -395,-394 0,-230 169,-395 395,-395 225,0 394,165 394,395 0,219 -171,394 -394,394zm6593 -3806c-111,193 -349,254 -539,144 -199,-115 -257,-344 -144,-539 112,-195 339,-260 538,-144 190,109 257,345 145,539zm0 -7614c112,193 45,429 -145,539 -199,115 -426,51 -538,-144 -113,-196 -55,-424 144,-539 190,-110 428,-49 539,144zm-6593 -3807c223,0 394,176 394,395 0,230 -169,394 -394,394 -226,0 -395,-164 -395,-394 0,-219 171,-395 395,-395zm-1 5399c750,0 1225,472 1395,1174 836,-155 1558,318 1558,1188 0,685 -557,1240 -1242,1240l-3421 0c-685,0 -1242,-555 -1242,-1240 0,-870 722,-1343 1558,-1188 170,-702 645,-1174 1394,-1174zm0 6493c-2362,0 -4277,-1916 -4277,-4278 0,-2363 1915,-4278 4277,-4278 2363,0 4278,1915 4278,4278 0,2362 -1915,4278 -4278,4278z"/>
   </g>
  </g>
 </g>
</svg>
