<?xml version="1.0" encoding="UTF-8"?>
<!DOCTYPE svg PUBLIC "-//W3C//DTD SVG 1.1//EN" "http://www.w3.org/Graphics/SVG/1.1/DTD/svg11.dtd">
<!-- Creator: CorelDRAW X7 -->
<svg xmlns="http://www.w3.org/2000/svg" xml:space="preserve" width="1.79315in" height="1.79315in" version="1.1" style="shape-rendering:geometricPrecision; text-rendering:geometricPrecision; image-rendering:optimizeQuality; fill-rule:evenodd; clip-rule:evenodd"
viewBox="0 0 17931 17931"
 xmlns:xlink="http://www.w3.org/1999/xlink">
 <defs>
  <style type="text/css">
   <![CDATA[
    .fil1 {fill:#8380BC}
    .fil0 {fill:white}
   ]]>
  </style>
 </defs>
 <g id="Layer_x0020_1">
  <metadata id="CorelCorpID_0Corel-Layer"/>
  <g id="_2623017948272">
   <path class="fil0" d="M8966 0c-4952,0 -8966,4014 -8966,8966 0,4951 4014,8965 8966,8965 4951,0 8966,-4014 8966,-8965 0,-4952 -4015,-8966 -8966,-8966z"/>
   <path class="fil1" d="M9136 3644l0 1440c-56,-3 -113,-4 -170,-4 -57,0 -112,1 -168,4l-3 0 0 -1440c-295,-74 -506,-335 -506,-656 0,-377 300,-677 677,-677 376,0 677,300 677,677 0,321 -212,582 -507,656zm-663 6806l-1382 0 0 -2235 1874 -1462 1875 1462 0 2235 -1382 0 0 -1315 -985 0 0 1315zm493 1717c884,0 1684,-358 2263,-938 580,-579 938,-1379 938,-2263 0,-884 -358,-1685 -938,-2264 -579,-579 -1379,-937 -2263,-937 -884,0 -1685,358 -2264,937 -579,579 -938,1380 -938,2264 0,884 359,1684 938,2263 579,580 1380,938 2264,938zm0 341c1956,0 3542,-1586 3542,-3542 0,-1957 -1586,-3543 -3542,-3543 -1957,0 -3543,1586 -3543,3543 0,1956 1586,3542 3543,3542zm1792 -6990l720 -1247c-218,-211 -270,-543 -109,-821 188,-326 599,-436 924,-248 326,189 436,599 248,925 -161,278 -475,399 -768,315l-720 1247c-96,-62 -194,-119 -295,-171zm1484 1358l1247 -720c-83,-292 38,-605 315,-765 326,-189 737,-79 925,247 188,326 78,737 -247,925 -279,161 -612,108 -823,-111l-1246 719c-53,-101 -110,-199 -171,-295zm605 1919l1441 0c73,-295 335,-506 656,-506 376,0 677,300 677,677 0,376 -301,677 -677,677 -321,0 -583,-212 -656,-507l-1440 0c2,-56 3,-113 3,-170 0,-57 -1,-114 -4,-171zm-434 1966l1245 719c212,-219 545,-272 824,-111 325,188 435,598 247,924 -188,326 -599,436 -925,248 -277,-160 -398,-473 -315,-765l-1248 -720c62,-95 119,-193 171,-294l1 -1zm-1362 1484l719 1245c293,-86 610,35 771,314 188,326 78,737 -248,925 -325,188 -736,78 -924,-248 -160,-276 -109,-607 107,-818l-720 -1247c101,-53 199,-110 295,-171zm-1921 603l0 1438c298,72 513,334 513,658 0,376 -301,677 -677,677 -377,0 -677,-301 -677,-677 0,-319 208,-579 500,-655l0 -1442c59,3 117,4 177,4 55,0 110,-1 164,-3zm-1965 -438l-718 1245c223,211 278,546 116,826 -188,326 -599,436 -925,248 -326,-188 -436,-599 -247,-925 159,-275 469,-396 759,-317l721 -1248c96,61 194,119 294,171zm-1480 -1362l-1245 719c88,294 -33,612 -313,774 -326,188 -736,78 -925,-248 -188,-326 -78,-736 248,-924 276,-160 605,-109 816,104l1248 -720 2 4c52,99 108,196 169,291zm-601 -1918l-1439 0c-71,298 -334,513 -657,513 -377,0 -677,-301 -677,-677 0,-377 300,-677 677,-677 318,0 578,208 654,500l1442 0c-3,59 -4,117 -4,177 0,55 1,110 4,164zm436 -1962l-1245 -719c-211,221 -546,275 -825,114 -326,-188 -436,-599 -248,-925 189,-326 599,-436 925,-247 277,159 398,471 316,762l1248 720c-61,96 -118,194 -171,295zm1359 -1480l-720 -1246c-292,84 -608,-36 -768,-315 -189,-326 -79,-736 247,-925 326,-188 737,-78 925,248 160,277 108,609 -109,820l720 1247c-101,53 -199,110 -295,171zm-1066 -2182c160,-93 356,-38 447,119 95,165 42,353 -120,446 -162,94 -351,46 -446,-119 -91,-157 -41,-354 119,-446zm-2307 2307c92,-160 289,-210 446,-119 165,95 213,284 120,446 -94,162 -282,215 -447,120 -157,-91 -212,-287 -119,-447zm-845 3153c0,-185 145,-327 327,-327 190,0 327,140 327,327 0,186 -137,326 -327,326 -182,0 -327,-142 -327,-326zm845 3152c-93,-160 -38,-355 119,-446 165,-96 353,-42 447,119 93,162 45,351 -120,447 -157,90 -354,40 -446,-120zm2307 2308c-160,-93 -210,-289 -119,-447 95,-165 284,-213 446,-119 162,93 215,281 120,446 -91,158 -287,212 -447,120zm3153 844c-185,0 -327,-144 -327,-326 0,-191 140,-327 327,-327 187,0 327,136 327,327 0,182 -142,326 -327,326zm3152 -844c-160,92 -355,38 -446,-120 -96,-165 -42,-353 119,-446 162,-94 352,-46 447,119 91,158 40,354 -120,447zm2308 -2308c-92,160 -289,210 -447,120 -165,-96 -212,-285 -119,-447 93,-161 281,-215 446,-119 158,91 212,286 120,446zm844 -3152c1,184 -145,326 -326,326 -191,0 -327,-140 -327,-326 0,-187 136,-327 327,-327 181,0 327,142 326,327zm-844 -3153c92,160 38,356 -120,447 -165,95 -353,42 -446,-120 -93,-162 -46,-351 119,-446 158,-91 355,-41 447,119zm-2308 -2307c160,92 211,289 120,446 -95,165 -285,213 -447,119 -161,-93 -215,-281 -119,-446 91,-157 286,-212 446,-119zm-3152 -845c185,0 327,145 327,327 0,190 -140,326 -327,326 -187,0 -327,-136 -327,-326 0,-182 142,-327 327,-327z"/>
  </g>
 </g>
</svg>
