<?xml version="1.0" encoding="UTF-8"?>
<!DOCTYPE svg PUBLIC "-//W3C//DTD SVG 1.1//EN" "http://www.w3.org/Graphics/SVG/1.1/DTD/svg11.dtd">
<!-- Creator: CorelDRAW X7 -->
<svg xmlns="http://www.w3.org/2000/svg" xml:space="preserve" width="2.61783in" height="2.29531in" version="1.1" style="shape-rendering:geometricPrecision; text-rendering:geometricPrecision; image-rendering:optimizeQuality; fill-rule:evenodd; clip-rule:evenodd"
viewBox="0 0 26178 22953"
 xmlns:xlink="http://www.w3.org/1999/xlink">
 <defs>
  <style type="text/css">
   <![CDATA[
    .fil1 {fill:#FEFEFE}
    .fil2 {fill:#E6D2AE}
    .fil0 {fill:black;fill-rule:nonzero}
   ]]>
  </style>
 </defs>
 <g id="Layer_x0020_1">
  <metadata id="CorelCorpID_0Corel-Layer"/>
  <g id="_2623027499328">
   <path class="fil0" d="M1165 21477c0,112 -16,190 -47,232 -31,43 -80,64 -146,64l-207 0c-113,0 -216,-12 -309,-37 -93,-25 -174,-66 -241,-123 -68,-57 -120,-134 -158,-229 -38,-96 -57,-214 -57,-356l0 -2781 642 0 0 2691c0,117 21,190 61,220 41,31 100,46 175,46l94 0c26,0 51,3 74,9 23,5 44,17 63,34 18,18 32,45 42,81 10,36 14,86 14,149zm58 -273c40,0 89,-33 147,-98 58,-65 109,-160 155,-285 72,-189 151,-344 237,-469 86,-123 174,-222 266,-296 90,-74 182,-126 273,-156 91,-29 183,-44 273,-44 128,0 248,25 360,75 112,49 209,118 288,207 81,88 144,195 190,320 46,126 69,263 69,410 0,23 -1,45 -3,65 -1,19 -2,39 -2,59 44,78 109,133 199,165 89,32 173,47 252,47 26,0 50,3 73,9 23,5 44,17 62,34 17,18 31,45 42,81 11,36 16,86 16,149 0,112 -16,190 -47,232 -31,43 -80,64 -146,64 -126,0 -238,-24 -337,-71 -98,-47 -184,-124 -256,-230 -142,241 -386,361 -732,361 -131,0 -264,-19 -397,-60 -134,-40 -274,-108 -423,-202 -84,94 -172,152 -261,172 -89,20 -186,30 -291,30l-263 0c-25,0 -50,-2 -73,-7 -24,-5 -44,-17 -63,-35 -18,-19 -32,-46 -42,-82 -10,-36 -14,-86 -14,-148 0,-113 15,-190 47,-233 31,-43 79,-64 145,-64l256 0zm1631 -350c0,-50 -6,-99 -17,-148 -11,-49 -30,-93 -54,-131 -26,-37 -59,-69 -100,-94 -40,-24 -90,-37 -151,-37 -42,0 -88,11 -133,33 -46,22 -90,57 -132,106 -43,49 -84,113 -121,192 -38,79 -70,177 -96,296 82,50 161,91 235,122 73,32 153,48 238,48 107,0 188,-36 245,-107 57,-70 86,-164 86,-280zm1593 -1901c0,-94 35,-177 104,-247 69,-70 153,-105 249,-105 94,0 177,35 246,104 69,69 104,152 104,248 0,95 -35,177 -104,247 -69,69 -152,103 -246,103 -95,0 -177,-34 -247,-103 -70,-70 -106,-152 -106,-247zm47 2251l0 -1397 647 0 0 1966 -1216 0c-26,0 -51,-2 -74,-7 -24,-5 -44,-17 -63,-35 -18,-19 -32,-46 -42,-82 -10,-36 -14,-86 -14,-148 0,-113 16,-190 47,-233 31,-43 80,-64 146,-64l569 0zm5357 569c-95,0 -190,-15 -286,-47 -95,-31 -173,-99 -233,-204 -40,57 -87,101 -141,135 -54,34 -112,59 -175,77 -63,16 -128,27 -195,32 -68,5 -134,7 -200,7l-2169 0c-194,0 -357,-14 -490,-42 -131,-28 -237,-74 -315,-136 -79,-63 -135,-144 -168,-242 -33,-99 -49,-219 -49,-361l0 -816 641 0 0 729c0,66 9,117 26,155 17,38 46,69 88,91 43,22 101,37 173,43 73,7 165,10 278,10l1881 0c113,0 191,-17 235,-52 44,-34 66,-112 66,-233l0 -1112 638 0 0 1057c0,122 25,209 76,261 52,53 158,79 319,79 25,0 50,3 73,9 24,5 45,17 63,34 19,18 33,45 42,81 10,36 14,86 14,149 0,112 -15,190 -47,232 -31,43 -79,64 -145,64zm-2757 830c0,-95 34,-177 103,-246 69,-69 152,-104 249,-104 95,0 176,35 245,104 69,69 104,151 104,246 0,95 -35,177 -104,246 -69,69 -150,104 -245,104 -96,0 -178,-35 -248,-104 -70,-69 -104,-151 -104,-246zm3343 -1399l0 -2957 636 0 0 2060c130,-161 287,-296 475,-403 186,-107 389,-162 606,-162 346,0 606,101 782,304 175,203 262,483 262,842l0 316 384 0c25,0 50,3 74,9 23,5 44,17 63,34 18,18 32,45 42,81 10,36 14,86 14,149 0,112 -16,190 -47,232 -32,43 -80,64 -146,64l-3734 0c-25,0 -50,-2 -73,-7 -24,-5 -44,-17 -63,-35 -18,-19 -32,-46 -42,-82 -10,-36 -14,-86 -14,-148 0,-113 15,-190 47,-233 31,-43 79,-64 145,-64l589 0zm2122 0l0 -280c0,-79 -8,-154 -23,-224 -17,-71 -44,-133 -81,-186 -38,-53 -88,-94 -152,-124 -62,-30 -138,-44 -226,-44 -98,0 -195,22 -291,68 -98,46 -188,109 -274,189 -85,79 -162,171 -231,275 -69,103 -127,212 -174,326l1452 0zm1610 -2251c0,-94 35,-177 104,-247 69,-70 152,-105 248,-105 95,0 177,35 247,104 69,69 103,152 103,248 0,95 -34,177 -103,247 -70,69 -152,103 -247,103 -94,0 -177,-34 -247,-103 -70,-70 -105,-152 -105,-247zm806 0c0,-94 35,-177 104,-247 69,-70 150,-105 246,-105 95,0 177,35 247,104 70,69 104,152 104,248 0,95 -34,177 -103,247 -69,69 -152,103 -248,103 -96,0 -177,-34 -246,-103 -69,-70 -104,-152 -104,-247zm-354 1798c0,170 39,288 118,354 79,66 173,99 285,99l277 0 0 -374c0,-66 -4,-129 -12,-190 -9,-61 -25,-115 -50,-161 -24,-45 -58,-82 -101,-111 -43,-28 -97,-42 -163,-42 -69,0 -126,12 -170,38 -44,24 -80,57 -108,96 -28,40 -48,84 -60,135 -11,50 -16,102 -16,156zm-550 453c-26,-53 -45,-120 -57,-201 -12,-79 -18,-154 -18,-223 0,-129 22,-256 68,-380 44,-125 109,-236 192,-333 84,-98 189,-176 314,-235 125,-60 268,-90 429,-90 188,0 343,34 464,101 122,68 218,154 288,257 70,104 118,219 145,347 27,127 41,249 41,369l0 957 -2296 0c-25,0 -50,-2 -73,-7 -24,-5 -44,-17 -63,-35 -19,-19 -33,-46 -42,-82 -10,-36 -14,-86 -14,-148 0,-113 15,-190 47,-233 31,-43 79,-64 145,-64l430 0zm3539 -714c0,40 5,82 14,126 10,43 28,82 55,117 26,34 61,63 106,86 44,24 101,35 170,35 43,0 88,-1 131,-4 45,-4 90,-14 137,-29l0 -683 -246 0c-122,0 -214,32 -275,97 -61,64 -92,149 -92,255zm1378 1283c-79,0 -156,-5 -230,-17 -74,-11 -142,-31 -205,-61 -63,-30 -118,-71 -165,-122 -47,-52 -84,-118 -110,-200 -56,13 -114,23 -174,32 -59,9 -118,13 -178,13 -82,0 -177,-12 -286,-37 -109,-24 -212,-70 -309,-136 -97,-66 -179,-158 -247,-275 -67,-117 -101,-268 -101,-451 0,-182 32,-335 96,-460 64,-124 147,-226 247,-306 101,-79 213,-137 336,-171 123,-35 244,-52 363,-52l839 0 0 1478c0,76 10,128 31,155 19,27 65,41 138,41l118 0c26,0 51,3 74,9 23,5 44,17 62,34 19,18 33,45 43,81 9,36 14,86 14,149 0,112 -15,190 -47,232 -31,43 -80,64 -146,64l-163 0zm465 -569c113,0 191,-17 235,-52 45,-34 66,-112 66,-233l0 -1112 642 0 0 1057c0,122 23,209 69,261 46,53 148,79 308,79 25,0 50,3 73,9 23,5 43,17 62,34 17,18 31,45 42,81 10,36 15,86 15,149 0,112 -15,190 -47,232 -31,43 -80,64 -145,64 -95,0 -187,-15 -277,-47 -89,-31 -163,-99 -223,-204 -41,57 -88,101 -143,135 -56,34 -115,59 -177,77 -64,16 -129,27 -196,32 -68,5 -135,7 -200,7l-406 0c-25,0 -50,-2 -73,-7 -24,-5 -44,-17 -63,-35 -18,-19 -32,-46 -42,-82 -10,-36 -14,-86 -14,-148 0,-113 15,-190 47,-233 31,-43 80,-64 145,-64l302 0zm-174 -2251c0,-94 35,-177 104,-247 69,-70 152,-105 248,-105 95,0 178,35 247,104 69,69 103,152 103,248 0,95 -34,177 -103,247 -69,69 -152,103 -247,103 -94,0 -177,-34 -247,-103 -69,-70 -105,-152 -105,-247zm806 0c0,-94 35,-177 104,-247 69,-70 151,-105 246,-105 95,0 177,35 247,104 70,69 105,152 105,248 0,95 -35,177 -104,247 -69,69 -152,103 -248,103 -95,0 -177,-34 -246,-103 -69,-70 -104,-152 -104,-247zm859 2251c72,0 132,-1 179,-5 48,-3 87,-13 116,-28 30,-17 51,-41 64,-72 13,-31 20,-75 20,-132l0 -942 638 0 0 839c0,106 29,189 86,250 58,60 146,90 264,90 98,0 181,-14 249,-43 67,-29 101,-93 101,-194l0 -942 639 0 0 839c0,116 26,201 77,257 50,55 135,83 254,83 91,0 166,-15 222,-46 56,-30 84,-99 84,-205l0 -1146 637 0 0 1057c0,122 24,209 73,261 49,53 156,79 318,79 25,0 50,3 73,9 23,5 44,17 62,34 17,18 31,45 42,81 11,36 15,86 15,149 0,112 -15,190 -46,232 -32,43 -80,64 -146,64 -95,0 -189,-17 -282,-52 -92,-34 -168,-104 -227,-210 -47,62 -95,111 -147,145 -50,35 -102,61 -155,80 -53,18 -105,29 -158,32 -52,4 -103,5 -153,5 -60,0 -122,-5 -188,-15 -66,-9 -131,-23 -195,-44 -64,-20 -122,-46 -173,-79 -50,-34 -91,-72 -122,-118 -101,113 -203,184 -307,213 -104,28 -217,43 -339,43 -324,0 -556,-85 -698,-256 -88,116 -203,188 -345,215 -140,27 -321,41 -542,41l-164 0c-25,0 -50,-2 -73,-7 -24,-5 -45,-17 -64,-35 -18,-19 -32,-46 -42,-82 -9,-36 -14,-86 -14,-148 0,-113 16,-190 47,-233 32,-43 80,-64 146,-64l174 0zm4587 0l0 -1397 647 0 0 1966 -1216 0c-25,0 -50,-2 -73,-7 -24,-5 -44,-17 -63,-35 -18,-19 -32,-46 -42,-82 -10,-36 -14,-86 -14,-148 0,-113 15,-190 47,-233 31,-43 79,-64 145,-64l569 0zm-80 1384c0,-94 34,-177 103,-246 69,-69 152,-104 249,-104 95,0 176,35 245,104 69,69 104,152 104,246 0,95 -35,177 -104,246 -69,70 -150,104 -245,104 -96,0 -178,-34 -248,-104 -70,-69 -104,-151 -104,-246z"/>
   <g>
    <path class="fil1" d="M13089 0c3805,0 6890,3085 6890,6890 0,3805 -3085,6890 -6890,6890 -3805,0 -6890,-3085 -6890,-6890 0,-3805 3085,-6890 6890,-6890z"/>
    <path class="fil2" d="M14389 8840l0 1300 -5200 0 0 -1300 5200 0zm-5200 -3900l0 -1300c2600,0 5200,0 7800,0l-1300 1300c-2166,0 -4333,0 -6500,0zm7800 1300c0,1300 0,2600 0,3900l-1300 0 0 -2600 -6500 0 0 -1300c2600,0 5200,0 7800,0z"/>
   </g>
  </g>
 </g>
</svg>
