<?xml version="1.0" encoding="UTF-8"?>
<!DOCTYPE svg PUBLIC "-//W3C//DTD SVG 1.1//EN" "http://www.w3.org/Graphics/SVG/1.1/DTD/svg11.dtd">
<!-- Creator: CorelDRAW X7 -->
<svg xmlns="http://www.w3.org/2000/svg" xml:space="preserve" width="27.1654in" height="9.12677in" version="1.1" style="shape-rendering:geometricPrecision; text-rendering:geometricPrecision; image-rendering:optimizeQuality; fill-rule:evenodd; clip-rule:evenodd"
viewBox="0 0 271654 91268"
 xmlns:xlink="http://www.w3.org/1999/xlink">
 <defs>
  <style type="text/css">
   <![CDATA[
    .fil4 {fill:#DFC596}
    .fil2 {fill:#EDDFC4}
    .fil1 {fill:#F6EFE2}
    .fil0 {fill:#F8F2E8}
    .fil3 {fill:#F9F3EA}
   ]]>
  </style>
 </defs>
 <g id="Layer_x0020_1">
  <metadata id="CorelCorpID_0Corel-Layer"/>
  <g id="_2622629697920">
   <path class="fil0" d="M54689 67595c4089,7902 -2882,15616 -11495,19020 -17600,6956 -40134,-14579 -36211,-22193 3768,-7311 40271,-11193 47706,3173z"/>
   <path class="fil0" d="M69158 64295c-4622,397 -8086,4009 -7737,8068 348,4058 4377,7026 8999,6629 4622,-397 8086,-4008 7738,-8067 -349,-4058 -4378,-7026 -9000,-6630z"/>
   <path class="fil1" d="M271654 60215c-62648,33109 -161936,18363 -163000,-60215l85243 0c-30923,63158 49924,65830 77757,41244l0 18971z"/>
   <path class="fil2" d="M271654 67829c-37117,20468 -75298,29629 -116716,18847 -23090,-6011 -42988,-16735 -67968,-24833 -31648,-10260 -63698,-12663 -86970,20540l0 -82383 137525 0c-605,33145 15798,59585 49579,67551 27302,6438 60311,-344 84550,-11856l0 12134z"/>
   <path class="fil3" d="M243808 27408c5457,8830 -3006,17339 -13703,21037 -21860,7557 -39138,-17480 -34505,-25908 4449,-8093 38289,-11183 48208,4871z"/>
   <path class="fil4" d="M218791 60762c952,31 1715,812 1720,1779l15 0c8,-967 771,-1748 1720,-1779 -954,-31 -1720,-820 -1720,-1793l-13 0c0,973 -765,1762 -1722,1793z"/>
   <path class="fil2" d="M58094 61547c1484,48 2673,1266 2681,2774l24 0c13,-1508 1202,-2726 2682,-2774 -1488,-49 -2682,-1279 -2682,-2795l-20 0c0,1516 -1193,2746 -2685,2795z"/>
  </g>
 </g>
</svg>
