<?xml version="1.0" encoding="UTF-8"?>
<!DOCTYPE svg PUBLIC "-//W3C//DTD SVG 1.1//EN" "http://www.w3.org/Graphics/SVG/1.1/DTD/svg11.dtd">
<!-- Creator: CorelDRAW X7 -->
<svg xmlns="http://www.w3.org/2000/svg" xml:space="preserve" width="1.37795in" height="1.37795in" version="1.1" style="shape-rendering:geometricPrecision; text-rendering:geometricPrecision; image-rendering:optimizeQuality; fill-rule:evenodd; clip-rule:evenodd"
viewBox="0 0 13780 13780"
 xmlns:xlink="http://www.w3.org/1999/xlink">
 <defs>
  <style type="text/css">
   <![CDATA[
    .fil0 {fill:#FEFEFE}
    .fil1 {fill:#E6D2AE}
   ]]>
  </style>
 </defs>
 <g id="Layer_x0020_1">
  <metadata id="CorelCorpID_0Corel-Layer"/>
  <g id="_2622975199216">
   <path class="fil0" d="M6890 0c3805,0 6890,3085 6890,6890 0,3805 -3085,6890 -6890,6890 -3805,0 -6890,-3085 -6890,-6890 0,-3805 3085,-6890 6890,-6890z"/>
   <path class="fil1" d="M8190 8840l0 1300 -5200 0 0 -1300 5200 0zm-5200 -3900l0 -1300c2600,0 5200,0 7800,0l-1300 1300c-2167,0 -4334,0 -6500,0zm7800 1300c0,1300 0,2600 0,3900l-1300 0 0 -2600 -6500 0 0 -1300c2600,0 5200,0 7800,0z"/>
  </g>
 </g>
</svg>
