<?xml version="1.0" encoding="UTF-8"?>
<!DOCTYPE svg PUBLIC "-//W3C//DTD SVG 1.1//EN" "http://www.w3.org/Graphics/SVG/1.1/DTD/svg11.dtd">
<!-- Creator: CorelDRAW X7 -->
<svg xmlns="http://www.w3.org/2000/svg" xml:space="preserve" width="24.7597in" height="16.7351in" version="1.1" style="shape-rendering:geometricPrecision; text-rendering:geometricPrecision; image-rendering:optimizeQuality; fill-rule:evenodd; clip-rule:evenodd"
viewBox="0 0 247597 167351"
 xmlns:xlink="http://www.w3.org/1999/xlink">
 <defs>
  <style type="text/css">
   <![CDATA[
    .fil0 {fill:#F1EADA}
   ]]>
  </style>
 </defs>
 <g id="Layer_x0020_1">
  <metadata id="CorelCorpID_0Corel-Layer"/>
  <path class="fil0" d="M39333 78338c-21723,0 -39333,17610 -39333,39333 0,21723 17610,39333 39333,39333 21723,0 39334,-17610 39334,-39333 -25,-21713 -17621,-39309 -39334,-39333zm123284 -75701c-8358,133 -16410,1541 -23975,4031 -458,1376 -2069,6358 -3984,13873 8053,-1049 17474,-1818 27959,-1877l0 -16027zm0 146051c-10486,-59 -19906,-828 -27960,-1877 1915,7514 3526,12495 3984,13872 7566,2490 15618,3898 23976,4031l0 -16026zm-30755 -2259c-11389,-1635 -19730,-3766 -24059,-5018 133,421 241,753 319,989 7823,7438 17125,13334 27416,17194 -802,-2557 -2159,-7112 -3676,-13165zm-27872 -8253c27,-26 56,-50 85,-73 -1641,-5750 -4123,-15527 -5884,-27364 -5622,-1333 -9610,-2508 -11720,-3171 3555,11501 9607,21915 17519,30608zm2900 233c3348,1034 11894,3438 24301,5281 -1830,-7623 -3801,-17219 -5271,-27981 -9964,-1265 -18399,-2859 -24988,-4337 1843,11982 4401,21717 5958,27037zm27087 5676c8167,1103 17826,1927 28640,1989l0 -27985c-12579,-54 -24014,-876 -34012,-2052 1512,10868 3531,20505 5372,28048zm31257 1989c10817,-63 20472,-886 28637,-1988 1840,-7543 3860,-17181 5373,-28048 -9998,1175 -21433,1997 -34010,2051l0 27985zm31423 -2382c12412,-1843 20954,-4248 24302,-5282 1557,-5320 4117,-15054 5960,-27037 -6592,1478 -15026,3072 -24991,4337 -1470,10762 -3441,20359 -5271,27982zm27118 -5593c29,23 58,48 86,74 7910,-8692 13960,-19103 17515,-30601 -2115,663 -6101,1837 -11715,3169 -1762,11833 -4244,21608 -5886,27358zm-3729 3313c-4330,1251 -12672,3383 -24060,5018 -1517,6052 -2874,10607 -3675,13164 10290,-3860 19591,-9756 27415,-17194 78,-235 186,-567 320,-988zm-26855 5400c-8054,1048 -17473,1817 -27957,1876l0 16026c8358,-133 16411,-1542 23976,-4032 458,-1379 2067,-6359 3981,-13870zm-107596 -42285l16 5c114,41 4430,1543 12184,3422 -963,-7130 -1636,-14917 -1703,-22964l-13205 0c107,6743 1042,13287 2708,19537zm14930 4070c6501,1488 14961,3125 25042,4428 -1109,-8779 -1861,-18263 -1923,-28035l-24935 0c70,8299 795,16317 1816,23607zm27721 4762c10058,1206 21619,2055 34371,2110l0 -30479 -36356 0c64,9905 844,19509 1985,28369zm36988 2110c12751,-55 24311,-904 34368,-2109 1142,-8862 1923,-18466 1987,-28370l-36355 0 0 30479zm37047 -2443c10081,-1304 18542,-2940 25045,-4428 1020,-7290 1745,-15309 1815,-23608l-24937 0c-62,9772 -814,19256 -1923,28036zm27776 -5071c7757,-1879 12075,-3382 12190,-3423l5 -2c1666,-6250 2602,-12796 2709,-19540l-13200 0c-67,8047 -741,15834 -1704,22965zm-96080 -84685c-1840,7543 -3860,17180 -5372,28047 9999,-1175 21434,-1997 34012,-2051l0 -27985c-10814,62 -20472,886 -28640,1989zm-29902 5981c-30,-23 -58,-47 -86,-72 -7910,8693 -13961,19106 -17517,30606 2111,-662 6097,-1838 11718,-3171 1761,-11836 4242,-21613 5885,-27363zm3727 -3310c4329,-1251 12670,-3383 24060,-5018 1517,-6053 2874,-10609 3676,-13166 -10291,3861 -19594,9759 -27417,17198 -78,235 -186,567 -319,986zm57431 -7277c10485,59 19905,827 27959,1877 -1915,-7514 -3525,-12495 -3982,-13872 -7566,-2490 -15619,-3899 -23977,-4032l0 16027zm30754 2259c11388,1634 19729,3766 24059,5018 -133,-420 -241,-752 -319,-987 -7824,-7439 -17126,-13336 -27416,-17197 802,2557 2159,7113 3676,13166zm27875 8259c-28,26 -57,51 -86,74 1643,5750 4124,15525 5886,27357 5613,1331 9598,2505 11713,3169 -3555,-11497 -9604,-21909 -17513,-30600zm-2902 -238c-3348,-1033 -11894,-3436 -24300,-5279 1829,7623 3800,17219 5269,27979 9965,1265 18401,2859 24992,4337 -1843,-11985 -4402,-21718 -5961,-27037zm-27087 -5673c-8168,-1103 -17826,-1927 -28640,-1990l1 27985c12577,54 24012,875 34011,2051 -1512,-10866 -3532,-20503 -5372,-28046zm-62684 393c-12407,1843 -20953,4247 -24300,5280 -1557,5320 -4116,15055 -5959,27038 6591,-1478 15024,-3072 24989,-4337 1469,-10761 3441,-20358 5270,-27981zm-2942 30329c-1142,8864 -1922,18471 -1986,28378l36356 0 0 -30487c-12752,54 -24312,904 -34370,2109zm114004 8828l-4 -1c-115,-40 -4432,-1543 -12190,-3422 964,7133 1638,14923 1704,22973l13200 0c-107,-6747 -1043,-13296 -2710,-19550zm-14923 -4065c-6503,-1489 -14964,-3126 -25046,-4429 1109,8782 1860,18269 1922,28044l24937 0c-69,-8304 -793,-16325 -1813,-23615zm-27725 -4763c-10057,-1205 -21618,-2055 -34369,-2109l0 30487 36355 0c-64,-9907 -844,-19514 -1986,-28378zm-74037 334c-10081,1304 -18541,2941 -25042,4429 -1021,7292 -1745,15313 -1815,23615l24935 0c62,-9774 813,-19262 1922,-28044zm-27771 5072c-7755,1879 -12070,3381 -12184,3421l-14 5c-1667,6252 -2603,12800 -2710,19546l13205 0c66,-8050 739,-15840 1703,-22972zm8651 85029c-236,-117 -437,-305 -570,-547 -15789,-15228 -25626,-36586 -25626,-60201 0,-23616 9837,-44977 25625,-60206 133,-243 335,-431 572,-548 15001,-14202 35239,-22926 57478,-22926 22233,0 42467,8720 57468,22918 242,117 448,309 582,558 15786,15230 25622,36589 25622,60204 0,12 0,24 0,35 -10,23600 -9844,44944 -25623,60164 -133,245 -337,435 -576,552 -15001,14199 -35237,22920 -57473,22920 -22238,0 -42477,-8723 -57479,-22923zm-67113 9954c-20275,0 -36711,-16436 -36711,-36711 0,-20275 16436,-36711 36711,-36711 20275,0 36711,16436 36711,36711 -23,20265 -16445,36688 -36711,36711z"/>
 </g>
</svg>
