<?xml version="1.0" encoding="UTF-8"?>
<!DOCTYPE svg PUBLIC "-//W3C//DTD SVG 1.1//EN" "http://www.w3.org/Graphics/SVG/1.1/DTD/svg11.dtd">
<!-- Creator: CorelDRAW X7 -->
<svg xmlns="http://www.w3.org/2000/svg" xml:space="preserve" width="4.17634in" height="4.3761in" version="1.1" style="shape-rendering:geometricPrecision; text-rendering:geometricPrecision; image-rendering:optimizeQuality; fill-rule:evenodd; clip-rule:evenodd"
viewBox="0 0 41763 43761"
 xmlns:xlink="http://www.w3.org/1999/xlink">
 <defs>
  <style type="text/css">
   <![CDATA[
    .fil4 {fill:#8380BC}
    .fil1 {fill:#736EAD}
    .fil3 {fill:white}
    .fil0 {fill:#8380BC;fill-rule:nonzero}
    .fil2 {fill:white;fill-rule:nonzero}
   ]]>
  </style>
 </defs>
 <g id="Layer_x0020_1">
  <metadata id="CorelCorpID_0Corel-Layer"/>
  <g id="_2622772187072">
   <polygon class="fil0" points="3346,0 41763,0 41763,43761 3346,43761 3346,25226 0,21881 3346,18535 "/>
   <polygon class="fil1" points="0,21881 3346,25226 3346,43439 3346,43761 41763,43761 41763,21881 "/>
   <g>
    <path class="fil2" d="M14392 35809c6,26 11,56 15,90 4,33 7,73 7,118 0,124 -24,238 -70,341 -47,103 -129,192 -248,269 -118,76 -277,135 -477,177 -199,42 -452,63 -759,63 -297,0 -542,-28 -734,-84 -192,-56 -345,-134 -460,-232 -113,-98 -193,-214 -238,-345 -45,-131 -68,-275 -68,-428l0 -755 590 0 0 735c0,196 72,339 215,429 143,90 378,134 704,134 212,0 382,-12 511,-35 128,-24 228,-54 300,-90 72,-37 119,-75 141,-115 22,-39 34,-74 34,-103 0,-79 -78,-146 -234,-200 -157,-55 -366,-116 -630,-182l0 -542c200,64 391,118 573,163 182,45 345,68 491,68l568 0c23,0 46,2 68,8 23,5 42,16 58,32 16,16 29,41 37,74 9,33 14,79 14,137 0,103 -14,175 -43,214 -29,39 -74,59 -134,59l-231 0zm508 -524c104,0 176,-16 217,-47 41,-32 60,-104 60,-215l0 -1023 591 0 0 972c0,112 21,193 63,241 42,48 136,72 283,72 24,0 46,2 68,8 21,5 40,16 56,32 16,16 29,41 39,74 10,33 14,79 14,137 0,103 -14,175 -43,214 -28,39 -73,59 -134,59 -87,0 -172,-15 -254,-44 -82,-28 -150,-91 -206,-187 -37,52 -81,93 -131,124 -51,31 -106,54 -163,70 -59,15 -118,25 -181,30 -62,4 -123,7 -184,7l-372 0c-24,0 -47,-3 -68,-7 -22,-5 -41,-15 -58,-32 -17,-17 -30,-42 -39,-76 -9,-33 -13,-78 -13,-136 0,-104 15,-175 44,-214 28,-40 73,-59 134,-59l277 0zm-160 -2071c0,-87 32,-163 96,-227 63,-64 140,-97 228,-97 87,0 163,32 227,95 63,64 95,141 95,229 0,87 -32,163 -95,227 -64,63 -140,95 -227,95 -87,0 -163,-32 -227,-95 -64,-64 -97,-140 -97,-227zm742 0c0,-87 32,-163 95,-227 64,-64 139,-97 227,-97 87,0 163,32 227,95 64,64 96,141 96,229 0,87 -32,163 -95,227 -64,63 -140,95 -228,95 -88,0 -163,-32 -227,-95 -63,-64 -95,-140 -95,-227zm1688 2071c64,0 125,-13 183,-38 57,-25 86,-78 86,-157 0,-55 -34,-128 -102,-220 -68,-92 -158,-189 -271,-293 -112,-104 -240,-206 -381,-308 -143,-101 -287,-189 -433,-265 21,-100 46,-183 75,-248 30,-65 60,-118 90,-157 31,-39 60,-68 89,-89 29,-19 52,-34 70,-43l1587 -699 0 608 -1075 446 0 14c182,118 333,235 451,350 118,116 213,228 284,336 71,109 121,213 148,311 27,98 41,191 41,276 0,73 -10,150 -31,232 -19,81 -58,156 -115,227 -56,70 -137,128 -243,173 -105,45 -241,68 -410,68l-1101 0c-23,0 -46,-3 -67,-7 -22,-5 -41,-15 -59,-32 -16,-17 -29,-42 -38,-76 -9,-33 -13,-78 -13,-136 0,-104 14,-175 43,-214 29,-40 73,-59 134,-59l1058 0zm2642 524c-41,0 -95,-9 -165,-28 -69,-19 -130,-58 -182,-119 -3,206 -27,378 -71,516 -46,138 -114,250 -205,335 -91,85 -206,146 -345,182 -139,36 -306,56 -501,59l0 -554c124,-4 223,-18 296,-44 73,-26 128,-64 164,-116 36,-50 59,-116 70,-197 11,-81 15,-177 15,-290l0 -1353 587 0 0 772c0,119 35,200 107,245 72,45 149,68 230,68 23,0 46,2 67,8 22,5 41,16 58,32 17,16 30,41 39,74 9,33 13,79 13,137 0,103 -14,175 -43,214 -29,39 -74,59 -134,59zm184 -524c66,0 122,-1 165,-4 44,-3 79,-12 107,-27 27,-15 47,-37 60,-66 12,-29 18,-69 18,-121l0 -867 582 0 0 772c0,97 26,174 79,230 52,55 135,83 247,83 88,0 163,-13 226,-40 63,-26 94,-86 94,-178l0 -867 590 0 0 772c0,209 90,313 269,313l281 0 0 -1285 590 0 0 1809 -694 0c-161,0 -283,-19 -365,-57 -82,-38 -151,-97 -208,-179 -45,58 -94,102 -146,133 -52,31 -105,55 -160,71 -54,15 -108,24 -160,27 -53,3 -103,5 -153,5 -153,0 -283,-25 -388,-76 -105,-50 -180,-103 -225,-160 -81,107 -187,173 -318,198 -131,25 -297,38 -500,38l-178 0c-23,0 -46,-3 -67,-7 -22,-5 -41,-15 -58,-32 -17,-17 -30,-42 -39,-76 -9,-33 -13,-78 -13,-136 0,-104 14,-175 43,-214 29,-40 74,-59 134,-59l187 0zm1158 -2071c0,-87 32,-163 95,-227 64,-64 141,-97 229,-97 87,0 163,32 227,95 63,64 95,141 95,229 0,87 -32,163 -95,227 -64,63 -140,95 -227,95 -87,0 -163,-32 -227,-95 -64,-64 -97,-140 -97,-227zm742 0c0,-87 31,-163 95,-227 64,-64 139,-97 226,-97 88,0 163,32 228,95 64,64 96,141 96,229 0,87 -32,163 -95,227 -64,63 -140,95 -229,95 -87,0 -162,-32 -226,-95 -64,-64 -95,-140 -95,-227zm-360 -659c0,-87 32,-163 95,-227 64,-64 140,-97 229,-97 87,0 163,32 226,95 64,64 96,141 96,229 0,87 -32,163 -96,227 -63,63 -139,95 -226,95 -87,0 -163,-32 -227,-95 -65,-64 -97,-140 -97,-227zm3311 2073c0,37 5,75 13,116 9,39 26,75 50,107 25,32 57,58 98,80 41,22 93,32 157,32 39,0 80,-1 120,-4 41,-3 83,-12 126,-27l0 -628 -226 0c-113,0 -197,30 -253,89 -57,59 -85,137 -85,235zm1268 1181c-73,0 -143,-6 -212,-16 -68,-10 -131,-29 -188,-56 -58,-28 -109,-65 -152,-112 -44,-48 -78,-109 -101,-184 -52,11 -105,21 -160,29 -55,8 -109,12 -164,12 -75,0 -163,-11 -263,-34 -100,-23 -195,-65 -284,-126 -90,-60 -165,-144 -228,-253 -62,-107 -93,-246 -93,-414 0,-167 30,-308 89,-423 59,-115 135,-209 227,-282 93,-73 196,-126 309,-158 113,-32 224,-48 334,-48l772 0 0 1361c0,70 9,117 28,142 18,25 61,38 127,38l110 0c23,0 46,2 67,8 21,5 41,16 58,32 17,16 30,41 39,74 8,33 13,79 13,137 0,103 -15,175 -43,214 -29,39 -74,59 -134,59l-151 0zm1777 -524c-8,-122 -28,-233 -58,-334 -31,-101 -76,-188 -137,-261 -60,-72 -140,-129 -238,-170 -99,-40 -221,-60 -366,-60 -49,0 -125,6 -228,19 -102,14 -208,36 -318,67l0 -528c70,-24 165,-49 287,-77 121,-27 244,-41 368,-41 228,0 421,37 580,111 159,74 289,174 389,302 100,127 173,275 219,443 47,169 73,345 79,529l296 0c23,0 46,2 67,8 22,5 41,16 58,32 17,16 30,41 39,74 8,33 13,79 13,137 0,103 -15,175 -43,214 -29,39 -74,59 -134,59l-2499 0c-24,0 -47,-3 -68,-7 -22,-5 -41,-15 -58,-32 -17,-17 -30,-42 -39,-76 -9,-33 -13,-78 -13,-136 0,-104 15,-175 43,-214 29,-40 74,-59 135,-59l1626 0zm-1073 -2071c0,-87 32,-163 96,-227 63,-64 140,-97 228,-97 88,0 163,32 227,95 64,64 95,141 95,229 0,87 -31,163 -95,227 -64,63 -139,95 -227,95 -87,0 -162,-32 -227,-95 -64,-64 -97,-140 -97,-227zm2105 2071c67,0 122,-1 165,-4 44,-3 80,-12 107,-27 28,-15 47,-37 59,-66 12,-29 18,-69 18,-121l0 -867 588 0 0 772c0,97 26,174 78,230 53,55 135,83 244,83 90,0 166,-13 228,-40 62,-26 94,-86 94,-178l0 -867 587 0 0 772c0,106 24,185 71,237 46,50 124,76 234,76 84,0 152,-14 204,-42 51,-28 78,-91 78,-189l0 -1054 585 0 0 972c0,112 23,193 68,241 45,48 143,72 292,72 24,0 46,2 67,8 22,5 41,16 57,32 16,16 29,41 39,74 10,33 14,79 14,137 0,103 -14,175 -43,214 -29,39 -73,59 -134,59 -87,0 -173,-16 -259,-48 -85,-32 -155,-96 -209,-194 -43,58 -88,102 -135,134 -46,32 -94,56 -143,74 -49,16 -97,26 -146,29 -47,3 -94,5 -140,5 -55,0 -113,-5 -173,-14 -61,-8 -121,-22 -180,-41 -59,-18 -112,-42 -159,-73 -46,-31 -84,-66 -112,-108 -93,104 -187,169 -282,196 -96,26 -200,40 -313,40 -297,0 -511,-79 -641,-236 -81,107 -187,173 -318,198 -129,25 -296,38 -499,38l-150 0c-24,0 -47,-3 -68,-7 -22,-5 -41,-15 -58,-32 -17,-17 -30,-42 -39,-76 -9,-33 -13,-78 -13,-136 0,-104 15,-175 43,-214 29,-40 74,-59 135,-59l159 0zm4179 -2071c0,-87 32,-163 95,-227 64,-64 140,-97 229,-97 87,0 163,32 226,95 64,64 96,141 96,229 0,87 -32,163 -96,227 -63,63 -139,95 -226,95 -87,0 -163,-32 -227,-95 -65,-64 -97,-140 -97,-227zm42 2071l0 -1285 596 0 0 1809 -1119 0c-24,0 -46,-3 -68,-7 -22,-5 -41,-15 -58,-32 -17,-17 -30,-42 -39,-76 -9,-33 -13,-78 -13,-136 0,-104 15,-175 44,-214 28,-40 73,-59 134,-59l523 0z"/>
    <g>
     <path class="fil3" d="M22554 9890c-4951,0 -8965,4014 -8965,8965 0,4952 4014,8966 8965,8966 4952,0 8966,-4014 8966,-8966 0,-4951 -4014,-8965 -8966,-8965z"/>
     <path class="fil4" d="M22725 13533l0 1441c-56,-3 -114,-4 -171,-4 -56,0 -111,1 -167,3l-3 1 0 -1441c-295,-73 -507,-335 -507,-656 0,-376 301,-677 678,-677 376,0 676,301 676,677 0,321 -211,583 -506,656zm-663 6807l-1382 0 0 -2235 1874 -1463 1875 1463 0 2235 -1382 0 0 -1315 -985 0 0 1315zm492 1717c884,0 1685,-359 2264,-938 579,-579 938,-1380 938,-2264 0,-884 -359,-1684 -938,-2263 -579,-580 -1380,-938 -2264,-938 -884,0 -1684,358 -2263,938 -580,579 -938,1379 -938,2263 0,884 358,1685 938,2264 579,579 1379,938 2263,938zm0 341c1957,0 3543,-1586 3543,-3543 0,-1956 -1586,-3542 -3543,-3542 -1956,0 -3542,1586 -3542,3542 0,1957 1586,3543 3542,3543zm1793 -6991l720 -1246c-218,-212 -270,-544 -110,-821 188,-326 599,-436 925,-248 326,188 436,599 248,925 -161,278 -476,399 -768,314l-720 1247c-96,-61 -194,-118 -295,-171zm1483 1359l1248 -720c-83,-292 37,-606 315,-766 326,-188 737,-78 925,248 188,326 78,736 -248,925 -278,160 -611,107 -822,-112l-1247 720c-52,-101 -110,-200 -171,-295zm606 1919l1440 0c74,-295 336,-507 657,-507 376,0 676,301 676,677 0,377 -300,677 -676,677 -321,0 -583,-211 -657,-506l-1440 0c3,-57 4,-114 4,-170 0,-58 -2,-115 -4,-171zm-435 1966l1246 719c211,-220 544,-273 823,-112 326,188 436,599 248,925 -188,326 -599,436 -925,248 -277,-161 -398,-474 -316,-765l-1247 -720c61,-96 118,-194 171,-294l0 -1zm-1361 1483l719 1246c293,-86 609,34 771,314 188,326 78,737 -248,925 -326,188 -737,78 -925,-248 -160,-277 -108,-607 107,-819l-719 -1247c100,-52 199,-109 295,-171zm-1921 603l0 1439c298,71 512,334 512,657 0,377 -300,677 -676,677 -377,0 -678,-300 -678,-677 0,-318 209,-579 501,-654l0 -1442c58,3 117,4 176,4 55,0 110,-1 165,-4zm-1965 -437l-718 1244c223,211 278,546 116,827 -188,326 -599,436 -925,248 -326,-188 -436,-599 -248,-925 159,-276 470,-397 760,-317l720 -1249c96,62 195,119 295,172zm-1481 -1362l-1244 719c88,294 -33,612 -313,774 -326,188 -737,78 -925,-248 -188,-326 -78,-737 248,-925 275,-159 605,-109 816,105l1248 -721 2 5c52,99 108,196 168,291zm-601 -1918l-1438 0c-71,298 -334,512 -657,512 -377,0 -677,-300 -677,-677 0,-376 300,-677 677,-677 318,0 578,209 654,501l1442 0c-3,58 -4,117 -4,177 0,54 1,109 3,164zm437 -1962l-1246 -719c-210,221 -545,275 -824,114 -326,-189 -436,-599 -248,-925 188,-326 599,-436 925,-248 277,160 397,472 316,762l1248 721c-61,96 -118,194 -171,295zm1358 -1480l-719 -1247c-293,85 -608,-36 -769,-314 -188,-326 -78,-737 248,-925 326,-188 737,-78 925,248 160,277 108,609 -109,820l720 1247c-101,53 -200,110 -296,171zm-1065 -2183c160,-92 356,-37 447,120 95,165 42,353 -120,446 -162,93 -351,46 -447,-119 -90,-158 -40,-354 120,-447zm-2307 2308c92,-160 288,-211 446,-120 165,96 213,285 119,447 -93,161 -281,215 -446,119 -157,-91 -212,-286 -119,-446zm-845 3152c0,-185 145,-327 327,-327 190,0 326,141 326,327 0,187 -136,327 -326,327 -182,0 -327,-142 -327,-327zm845 3153c-93,-160 -38,-356 119,-447 165,-95 353,-42 446,120 94,162 46,351 -119,446 -158,91 -354,41 -446,-119zm2307 2307c-160,-92 -210,-289 -120,-446 96,-165 285,-213 447,-120 162,94 215,282 120,447 -91,157 -287,212 -447,119zm3153 845c-185,0 -327,-145 -327,-327 0,-190 140,-327 327,-327 186,0 326,137 326,327 0,182 -142,327 -326,327zm3152 -845c-160,93 -356,38 -447,-119 -95,-165 -42,-353 120,-447 162,-93 351,-45 446,120 91,157 41,354 -119,446zm2308 -2307c-93,160 -289,210 -447,119 -165,-95 -213,-284 -119,-446 93,-162 281,-215 446,-120 157,91 212,287 120,447zm844 -3153c0,185 -145,327 -326,327 -191,0 -327,-140 -327,-327 0,-186 136,-327 327,-327 181,0 326,142 326,327zm-844 -3152c92,160 37,355 -120,446 -165,96 -353,42 -446,-119 -94,-162 -46,-351 119,-447 158,-91 354,-40 447,120zm-2308 -2308c160,93 210,289 119,447 -95,165 -284,212 -446,119 -162,-93 -215,-281 -120,-446 91,-157 287,-212 447,-120zm-3152 -844c184,0 326,145 326,326 0,191 -140,327 -326,327 -187,0 -327,-136 -327,-327 0,-181 142,-326 327,-326z"/>
    </g>
   </g>
  </g>
 </g>
</svg>
