<?xml version="1.0" encoding="UTF-8"?>
<!DOCTYPE svg PUBLIC "-//W3C//DTD SVG 1.1//EN" "http://www.w3.org/Graphics/SVG/1.1/DTD/svg11.dtd">
<!-- Creator: CorelDRAW X7 -->
<svg xmlns="http://www.w3.org/2000/svg" xml:space="preserve" width="3.06988in" height="0.97189in" version="1.1" style="shape-rendering:geometricPrecision; text-rendering:geometricPrecision; image-rendering:optimizeQuality; fill-rule:evenodd; clip-rule:evenodd"
viewBox="0 0 30699 9719"
 xmlns:xlink="http://www.w3.org/1999/xlink">
 <defs>
  <style type="text/css">
   <![CDATA[
    .fil1 {fill:#8480BC}
    .fil2 {fill:#DBE2F1}
    .fil0 {fill:white}
    .fil3 {fill:#8480BC;fill-rule:nonzero}
   ]]>
  </style>
 </defs>
 <g id="Layer_x0020_1">
  <metadata id="CorelCorpID_0Corel-Layer"/>
  <g id="_2622976127792">
   <path class="fil0" d="M4859 0l20981 0c2672,0 4859,2187 4859,4859 0,2673 -2187,4860 -4859,4860l-20981 0c-2672,0 -4859,-2187 -4859,-4859 0,-2673 2186,-4860 4859,-4860z"/>
   <path class="fil1" d="M4859 0l20981 0c2672,0 4859,2187 4859,4859 0,2673 -2187,4860 -4859,4860l-20981 0c-2672,0 -4859,-2187 -4859,-4859 0,-2673 2186,-4860 4859,-4860zm20981 239l-20981 0c-2541,0 -4620,2080 -4620,4621 0,1270 520,2425 1358,3262 837,838 1992,1358 3262,1358l20981 0c2541,0 4620,-2080 4620,-4621 0,-1270 -520,-2425 -1358,-3263 -837,-837 -1992,-1357 -3262,-1357z"/>
   <g>
    <polygon class="fil2" points="21106,1407 20825,1407 20825,8312 21106,8312 "/>
    <polygon class="fil1" points="20684,1407 20825,1407 20825,8312 20684,8312 "/>
   </g>
   <path class="fil1" d="M22543 4860c0,-919 356,-1783 1006,-2432 650,-649 1512,-1007 2431,-1005 918,0 1780,356 2430,1006 650,648 1006,1512 1006,2431 0,918 -356,1782 -1006,2430 -650,650 -1512,1007 -2430,1007 -919,1 -1781,-357 -2431,-1006 -650,-649 -1006,-1513 -1006,-2431zm2496 1879l2819 -2819 -938 -938 -734 735 600 600 -1350 1349 -600 -600 -735 735 938 938zm-203 -1372l151 151 -434 434 -150 -151 433 -434zm2084 -2084l151 151 -433 433 -151 -150 433 -434zm-1881 3757l3120 -3121 -1239 -1239 -1036 1037 600 600 -1048 1048 -600 -600 -1036 1036c414,412 826,824 1239,1239zm4163 -2180c0,-861 -335,-1670 -943,-2280 -610,-608 -1418,-943 -2279,-943 -862,0 -1670,335 -2279,943 -609,610 -944,1419 -944,2280 0,861 335,1669 944,2279 609,608 1417,944 2279,944 861,0 1669,-336 2279,-944 608,-610 943,-1418 943,-2279z"/>
   <path class="fil3" d="M4092 5530l-110 0c-121,0 -237,-53 -347,-160 -30,36 -65,65 -107,88 -41,23 -85,42 -133,55 -47,14 -95,24 -144,29 -48,5 -95,8 -139,8 -35,0 -70,-2 -105,-6 -36,-4 -76,-11 -121,-20 -45,-10 -97,-23 -155,-39 -58,-16 -127,-36 -208,-60l98 -326c55,22 113,41 172,58 59,17 116,30 173,41 56,10 110,17 162,20 52,3 98,2 139,-3 41,-6 76,-16 104,-31 29,-15 48,-35 58,-61 5,-11 7,-20 7,-29 0,-9 -2,-19 -7,-31 -5,-11 -13,-26 -24,-43 -11,-16 -25,-38 -42,-66l-484 -680 286 -184 487 737c26,40 54,82 83,125 29,42 58,81 87,116 29,35 57,64 85,87 27,22 52,34 75,34l110 0 0 341zm2424 -340l430 0c56,0 100,-5 133,-16 33,-10 58,-23 75,-38 17,-16 28,-33 33,-52 5,-19 8,-38 8,-56l0 -442 338 0 0 432c0,41 9,73 27,96 18,24 39,41 62,52 23,12 46,18 69,21 23,2 38,3 46,3l202 0 0 340 -202 0c-77,0 -147,-11 -211,-32 -64,-21 -117,-51 -161,-92 -51,42 -111,74 -181,94 -69,20 -149,30 -238,30l-430 0 -163 0c-37,0 -72,-3 -105,-7 -34,-5 -66,-17 -98,-38 -11,117 -38,223 -80,319 -43,95 -100,177 -172,245 -71,67 -156,120 -255,157 -99,37 -211,56 -334,56l-171 0 0 -340 171 0c87,0 162,-9 226,-27 64,-18 116,-47 157,-87 41,-40 71,-92 91,-156 20,-64 30,-142 30,-234l0 -831 340 0 0 408c0,42 9,76 26,101 18,26 39,45 62,59 23,14 45,24 67,28 22,5 37,7 45,7l163 0zm-1471 -806c2,7 6,22 12,45 6,24 13,53 20,87 7,34 15,72 22,114 8,42 15,84 22,126 7,42 12,83 17,123 4,40 6,75 6,105 0,94 -16,175 -47,244 -31,68 -71,125 -121,169 -50,45 -106,78 -168,100 -63,22 -125,33 -188,33l-588 0 0 -340 598 0c10,0 26,-1 47,-5 20,-3 41,-11 61,-25 20,-13 38,-34 54,-62 15,-28 23,-66 23,-114 0,-20 -2,-44 -5,-73 -3,-28 -7,-59 -13,-92 -5,-32 -11,-66 -18,-100 -7,-34 -14,-66 -20,-97 -6,-30 -13,-58 -19,-83 -6,-25 -11,-44 -15,-58l320 -97zm-293 1889l-229 -232 226 -234 235 234 -232 232zm-571 1l-229 -232 224 -234 235 234 -230 232zm3204 5l-229 -232 226 -234 235 234 -232 232zm-571 1l-229 -232 225 -234 234 234 -230 232zm2843 -750l-41 0c-80,0 -149,-8 -208,-23 -59,-15 -113,-36 -160,-63 -47,-26 -91,-59 -130,-96 -40,-38 -80,-80 -121,-126 -22,57 -56,105 -104,145 -48,40 -102,73 -164,97 -61,25 -127,42 -197,53 -70,10 -139,15 -207,13l-426 0 0 -340 445 0c60,0 115,-3 166,-10 51,-7 95,-18 133,-34 37,-16 66,-37 88,-64 22,-26 34,-58 37,-96 0,-39 -17,-89 -50,-149 -33,-60 -76,-127 -129,-200 -53,-74 -113,-152 -180,-234 -67,-83 -135,-166 -203,-251l58 -276 1183 -574 139 310 -1035 479c86,115 171,228 256,342 85,113 170,227 256,341 50,67 96,125 137,177 42,51 84,95 126,130 43,36 87,63 133,81 47,19 99,28 157,28l41 0 0 340zm-1380 -2066l1039 -451 71 153 -1128 491 18 -193zm2104 920c2,7 6,22 12,45 6,24 13,53 20,87 7,34 15,72 22,114 8,42 15,84 22,126 7,42 12,83 17,123 4,40 6,75 6,105 0,94 -16,175 -47,244 -31,68 -71,125 -121,169 -50,45 -106,78 -168,100 -63,22 -125,33 -188,33l-363 0 0 -340 373 0c10,0 26,-1 47,-5 20,-3 41,-11 61,-25 20,-13 38,-34 54,-62 15,-28 23,-66 23,-114 0,-20 -2,-44 -5,-73 -3,-28 -7,-59 -13,-92 -5,-32 -11,-66 -18,-100 -7,-34 -14,-66 -20,-97 -6,-30 -13,-58 -19,-83 -6,-25 -11,-44 -15,-58l320 -97zm-587 1621l246 -248 251 251 -249 248 -248 -251zm4819 -475c-86,0 -162,-12 -231,-36 -68,-23 -126,-57 -176,-101 -27,27 -56,49 -86,66 -31,17 -62,31 -94,41 -32,11 -65,18 -97,23 -32,4 -63,7 -93,7 -48,0 -92,-4 -134,-11 -42,-7 -82,-24 -120,-49l0 57c0,250 -68,435 -203,555 -135,120 -335,180 -600,180l-266 0c-122,0 -234,-20 -336,-60 -101,-40 -189,-97 -263,-171 -73,-74 -131,-164 -172,-269 -42,-105 -62,-223 -62,-354 0,-60 4,-120 11,-180 8,-60 20,-121 36,-184 17,-62 38,-128 64,-197 26,-68 57,-142 95,-220l305 149c-32,65 -60,126 -84,182 -24,56 -44,109 -60,159 -16,51 -28,99 -35,146 -8,47 -12,94 -12,141 0,73 13,141 38,204 25,63 60,118 105,165 45,47 99,84 162,111 63,26 132,39 208,38l266 0c96,0 175,-8 235,-26 60,-18 107,-44 141,-77 34,-34 57,-75 69,-124 12,-49 18,-105 18,-168l0 -940 340 0 0 246c0,78 7,141 22,188 14,47 33,83 57,108 24,25 51,42 81,50 31,8 62,13 94,13 19,0 40,-4 64,-11 24,-7 47,-18 69,-34 22,-17 40,-39 55,-67 14,-27 22,-62 22,-103l0 -390 338 0 0 404c2,69 20,120 56,152 36,32 93,49 170,49l-1 0c12,-1 30,-4 51,-9 21,-5 42,-15 62,-30 20,-15 37,-37 52,-64 14,-28 22,-65 22,-112 0,-30 -4,-68 -11,-114 -8,-46 -16,-94 -26,-143 -10,-48 -20,-94 -30,-136 -10,-42 -18,-74 -25,-95l321 -97c1,6 5,20 11,43 6,22 13,50 21,84 7,33 16,70 24,110 9,40 17,81 23,123 7,41 13,82 17,121 5,40 7,74 7,104 0,93 -15,174 -45,242 -31,69 -70,126 -119,172 -49,46 -104,81 -165,103 -61,23 -123,35 -186,36zm1567 0c-100,0 -186,-6 -258,-19 -72,-12 -132,-30 -181,-54 -49,-24 -89,-55 -118,-92 -30,-38 -52,-81 -68,-131 -15,-50 -25,-107 -30,-170 -5,-63 -8,-133 -8,-209l0 -1292 340 0 0 1292c0,72 2,131 7,174 5,44 18,78 40,102 21,24 53,40 96,48 44,7 103,11 180,11l0 340zm935 -258c8,0 21,-2 39,-5 18,-3 36,-13 54,-29 18,-16 34,-42 48,-76 14,-34 21,-82 21,-144 0,-23 -4,-54 -13,-90 -8,-37 -23,-73 -45,-108 -21,-35 -50,-65 -86,-90 -35,-25 -81,-38 -135,-38 -48,0 -86,15 -116,43 -30,28 -55,63 -76,105 -20,42 -38,87 -52,135 -14,49 -29,93 -45,133 33,19 69,39 107,58 37,20 74,37 111,53 36,15 71,28 103,38 32,10 60,15 85,15zm-117 -918c93,0 175,17 245,51 69,33 127,79 175,136 47,57 83,124 107,199 24,76 37,155 39,237 0,51 10,91 30,120 20,28 42,50 68,63 25,14 50,22 75,25 24,4 41,5 50,5l38 0 0 340 -38 0c-64,0 -124,-10 -178,-28 -54,-19 -103,-43 -148,-72 -27,38 -57,69 -90,91 -32,22 -65,39 -98,50 -33,11 -64,17 -94,20 -30,3 -56,4 -78,4 -45,0 -88,-4 -129,-13 -41,-8 -83,-21 -125,-37 -42,-16 -86,-35 -132,-58 -45,-23 -95,-50 -148,-79 -41,44 -85,75 -132,94 -47,18 -101,28 -164,28l-168 0 -3 -340 171 0c20,0 37,-6 52,-18 15,-11 29,-28 41,-49 13,-22 24,-48 34,-78 11,-31 22,-64 32,-102 19,-65 40,-133 66,-202 25,-70 59,-133 102,-190 42,-58 95,-105 160,-142 64,-36 144,-55 240,-55zm1783 30c2,7 6,22 12,45 6,24 13,53 20,87 7,34 15,72 22,114 8,42 15,84 22,126 7,42 12,83 17,123 4,40 6,75 6,105 0,94 -16,175 -47,244 -31,68 -71,125 -121,169 -50,45 -106,78 -168,100 -63,22 -125,33 -188,33l-588 0 0 -340 598 0c10,0 26,-1 47,-5 20,-3 41,-11 61,-25 20,-13 38,-34 54,-62 15,-28 23,-66 23,-114 0,-20 -2,-44 -5,-73 -3,-28 -7,-59 -13,-92 -5,-32 -11,-66 -18,-100 -7,-34 -14,-66 -20,-97 -6,-30 -13,-58 -19,-83 -6,-25 -11,-44 -15,-58l320 -97zm-135 -265l-229 -232 227 -235 234 235 -232 232zm-571 1l-229 -231 225 -235 235 235 -231 231z"/>
  </g>
 </g>
</svg>
