<?xml version="1.0" encoding="UTF-8"?>
<!DOCTYPE svg PUBLIC "-//W3C//DTD SVG 1.1//EN" "http://www.w3.org/Graphics/SVG/1.1/DTD/svg11.dtd">
<!-- Creator: CorelDRAW X7 -->
<svg xmlns="http://www.w3.org/2000/svg" xml:space="preserve" width="0.432795in" height="0.432795in" version="1.1" style="shape-rendering:geometricPrecision; text-rendering:geometricPrecision; image-rendering:optimizeQuality; fill-rule:evenodd; clip-rule:evenodd"
viewBox="0 0 4328 4328"
 xmlns:xlink="http://www.w3.org/1999/xlink">
 <defs>
  <style type="text/css">
   <![CDATA[
    .fil0 {fill:#8380BC}
   ]]>
  </style>
 </defs>
 <g id="Layer_x0020_1">
  <metadata id="CorelCorpID_0Corel-Layer"/>
  <path class="fil0" d="M634 634c391,-392 932,-634 1530,-634 597,0 1139,242 1530,634 392,391 634,932 634,1530 0,1195 -969,2164 -2164,2164 -598,0 -1139,-242 -1530,-634 -392,-391 -634,-933 -634,-1530 0,-598 242,-1139 634,-1530zm886 -26c-205,85 -390,210 -546,366 -156,156 -281,341 -366,546 -82,198 -127,415 -127,644 0,229 45,446 127,644 85,205 210,390 366,546 156,156 341,281 546,366 198,81 415,127 644,127 229,0 446,-46 644,-127 205,-85 390,-210 546,-366 156,-156 281,-341 366,-546 81,-198 127,-415 127,-644 0,-229 -46,-446 -127,-644 -85,-205 -210,-390 -366,-546 -156,-156 -341,-281 -546,-366 -198,-82 -415,-127 -644,-127 -229,0 -446,45 -644,127z"/>
 </g>
</svg>
