<?xml version="1.0" encoding="UTF-8"?>
<!DOCTYPE svg PUBLIC "-//W3C//DTD SVG 1.1//EN" "http://www.w3.org/Graphics/SVG/1.1/DTD/svg11.dtd">
<!-- Creator: CorelDRAW X7 -->
<svg xmlns="http://www.w3.org/2000/svg" xml:space="preserve" width="21.3335in" height="4.3761in" version="1.1" style="shape-rendering:geometricPrecision; text-rendering:geometricPrecision; image-rendering:optimizeQuality; fill-rule:evenodd; clip-rule:evenodd"
viewBox="0 0 213335 43761"
 xmlns:xlink="http://www.w3.org/1999/xlink">
 <defs>
  <style type="text/css">
   <![CDATA[
    .fil3 {fill:#8DA0D1}
    .fil5 {fill:#6C87C3}
    .fil7 {fill:white}
    .fil0 {fill:white}
    .fil4 {fill:#8DA0D1;fill-rule:nonzero}
    .fil1 {fill:#F4F4F4;fill-rule:nonzero}
    .fil6 {fill:white;fill-rule:nonzero}
    .fil2 {fill:white;fill-rule:nonzero}
   ]]>
  </style>
 </defs>
 <g id="Layer_x0020_1">
  <metadata id="CorelCorpID_0Corel-Layer"/>
  <g id="_2622979387872">
   <polygon class="fil0" points="0,0 213335,0 213335,43761 0,43761 "/>
   <polygon class="fil1" points="51237,0 2092,0 2092,43761 51237,43761 "/>
   <polygon class="fil2" points="51237,0 113077,0 113077,43761 51237,43761 "/>
   <polygon class="fil1" points="174917,0 113077,0 113077,43761 174917,43761 "/>
   <polygon class="fil3" points="0,43761 2092,43761 2092,0 0,0 "/>
   <g>
    <polygon class="fil4" points="174917,0 213335,0 213335,43761 174917,43761 174917,25226 171571,21880 174917,18535 "/>
    <polygon class="fil5" points="213013,21880 171571,21880 174917,25226 174917,43761 213013,43761 213335,43761 213335,21880 "/>
    <g>
     <path class="fil6" d="M183250 35728c0,84 14,162 43,234 30,71 77,133 146,184 68,51 159,91 273,120 114,29 256,43 426,43 211,0 383,-15 515,-45 132,-31 234,-68 308,-111 74,-44 125,-92 152,-143 28,-52 41,-99 41,-140 0,-46 -17,-83 -52,-110 -35,-27 -91,-62 -170,-105 -87,-47 -169,-94 -247,-141 -78,-49 -145,-103 -201,-165 -56,-63 -101,-132 -134,-210 -33,-76 -50,-168 -50,-275 0,-118 21,-237 64,-357 43,-120 106,-228 189,-325 82,-97 188,-176 315,-236 127,-61 276,-91 446,-91 112,0 212,12 299,36 86,25 150,44 191,59l0 533c-106,-24 -197,-40 -275,-48 -76,-8 -137,-12 -179,-12 -79,0 -147,11 -205,34 -57,23 -105,53 -143,89 -37,36 -65,77 -83,121 -18,44 -27,88 -27,133 0,70 31,129 93,177 63,50 139,95 229,138 110,52 199,102 269,150 69,48 124,97 165,148 41,50 70,103 87,158 17,56 25,115 25,179 0,127 -25,258 -78,392 -51,134 -140,254 -266,362 -125,107 -292,194 -500,263 -206,68 -466,101 -778,101 -275,0 -507,-28 -696,-84 -188,-56 -341,-134 -457,-234 -116,-100 -199,-217 -249,-352 -51,-134 -76,-282 -76,-443l0 -731 590 0 0 704zm3596 -3163l0 3245 -586 0 0 -3245 586 0zm848 2064c0,37 4,76 12,116 9,39 26,76 50,107 25,32 57,59 98,80 41,22 93,32 157,32 39,0 80,-1 120,-4 41,-3 83,-12 126,-27l0 -628 -226 0c-112,0 -197,30 -253,89 -56,59 -84,137 -84,235zm1267 1181c-73,0 -143,-5 -212,-16 -68,-10 -131,-29 -188,-56 -58,-27 -108,-65 -152,-112 -44,-48 -78,-109 -101,-184 -52,11 -105,21 -160,29 -55,9 -109,12 -164,12 -75,0 -163,-11 -263,-34 -100,-22 -195,-65 -284,-125 -90,-61 -165,-145 -228,-253 -62,-108 -93,-247 -93,-415 0,-167 30,-308 89,-423 59,-115 135,-209 227,-282 93,-73 196,-126 309,-158 113,-31 224,-47 334,-47l772 0 0 1360c0,70 9,118 28,143 18,25 61,37 127,37l110 0c23,0 46,3 67,8 21,5 41,16 58,32 17,16 30,41 39,74 8,33 13,79 13,137 0,103 -15,175 -43,214 -29,39 -74,59 -134,59l-151 0zm1052 -941c0,157 36,265 108,326 73,61 160,91 262,91l256 0 0 -344c0,-61 -4,-119 -12,-175 -7,-56 -22,-106 -45,-148 -23,-42 -54,-76 -93,-102 -40,-26 -90,-39 -150,-39 -64,0 -116,12 -156,35 -41,23 -75,52 -100,89 -26,36 -44,77 -55,124 -10,46 -15,94 -15,143zm-506 417c-24,-49 -42,-110 -52,-184 -12,-74 -17,-143 -17,-206 0,-119 21,-235 62,-350 41,-115 101,-217 177,-306 78,-90 174,-162 289,-216 115,-56 247,-83 395,-83 173,0 316,31 427,93 112,62 200,141 264,237 65,95 109,201 134,318 25,117 38,230 38,340l0 881 -2112 0c-24,0 -47,-2 -68,-7 -22,-5 -41,-15 -58,-32 -17,-17 -30,-42 -39,-76 -9,-33 -13,-78 -13,-136 0,-104 15,-175 43,-214 29,-40 74,-59 135,-59l395 0zm513 -2071c0,-87 32,-162 95,-227 64,-64 140,-97 229,-97 87,0 163,32 227,96 63,63 95,140 95,228 0,87 -32,163 -95,227 -64,64 -140,95 -227,95 -87,0 -163,-31 -227,-95 -65,-64 -97,-140 -97,-227zm2966 2595c-40,0 -94,-9 -164,-28 -70,-18 -130,-58 -182,-118 -3,205 -27,377 -72,515 -45,138 -114,250 -204,335 -91,85 -206,147 -345,182 -140,36 -307,56 -502,59l0 -554c125,-3 223,-18 297,-44 72,-26 128,-64 164,-115 36,-51 59,-117 70,-198 10,-80 15,-177 15,-289l0 -1354 586 0 0 773c0,118 36,200 108,244 72,46 148,68 229,68 24,0 46,3 68,8 22,5 41,16 58,32 17,16 29,41 39,74 9,33 12,79 12,137 0,103 -14,175 -43,214 -29,39 -73,59 -134,59zm1624 -524c-8,-122 -28,-233 -58,-334 -30,-101 -77,-188 -139,-261 -62,-72 -141,-129 -238,-170 -97,-40 -218,-60 -363,-60 -49,0 -126,7 -230,19 -104,14 -209,36 -316,67l0 -528c69,-24 164,-49 284,-76 119,-28 243,-42 370,-42 237,0 437,41 599,123 162,81 293,190 392,327 100,136 172,295 216,475 43,179 65,366 65,562l0 422 -2208 0c-24,0 -46,-2 -67,-7 -22,-5 -41,-15 -59,-32 -16,-17 -29,-42 -38,-76 -10,-33 -13,-78 -13,-136 0,-104 14,-175 43,-214 29,-40 73,-59 134,-59l1626 0zm2080 -657c0,37 5,76 13,116 9,39 26,76 50,107 24,32 57,59 98,80 41,22 93,32 157,32 39,0 80,-1 120,-4 41,-3 83,-12 126,-27l0 -628 -227 0c-112,0 -197,30 -253,89 -56,59 -84,137 -84,235zm1268 1181c-73,0 -144,-5 -212,-16 -68,-10 -131,-29 -188,-56 -58,-27 -109,-65 -152,-112 -44,-48 -78,-109 -101,-184 -52,11 -105,21 -160,29 -55,9 -109,12 -164,12 -76,0 -163,-11 -263,-34 -100,-22 -195,-65 -284,-125 -90,-61 -166,-145 -228,-253 -62,-108 -93,-247 -93,-415 0,-167 30,-308 89,-423 59,-115 135,-209 227,-282 93,-73 195,-126 309,-158 113,-31 224,-47 334,-47l772 0 0 1360c0,70 9,118 28,143 18,25 61,37 127,37l109 0c24,0 47,3 68,8 21,5 41,16 57,32 18,16 31,41 40,74 8,33 13,79 13,137 0,103 -15,175 -44,214 -28,39 -73,59 -134,59l-150 0zm1777 -524c-9,-122 -28,-233 -59,-334 -30,-101 -75,-188 -136,-261 -61,-72 -140,-129 -239,-170 -98,-40 -220,-60 -365,-60 -49,0 -125,7 -228,19 -102,14 -208,36 -318,67l0 -528c70,-24 165,-49 287,-76 121,-28 243,-42 368,-42 228,0 421,37 580,111 159,74 289,174 389,302 100,127 173,275 219,444 47,169 73,344 79,528l295 0c24,0 47,3 68,8 22,5 41,16 57,32 18,16 31,41 40,74 8,33 13,79 13,137 0,103 -15,175 -44,214 -28,39 -73,59 -134,59l-2499 0c-23,0 -46,-2 -67,-7 -22,-5 -41,-15 -58,-32 -17,-17 -30,-42 -39,-76 -9,-33 -13,-78 -13,-136 0,-104 15,-175 43,-214 29,-40 74,-59 134,-59l1627 0zm-1073 -2071c0,-87 32,-162 96,-227 63,-64 140,-97 228,-97 87,0 163,32 227,96 63,63 95,140 95,228 0,87 -32,163 -95,227 -64,64 -140,95 -227,95 -87,0 -163,-31 -227,-95 -64,-64 -97,-140 -97,-227zm2105 2071c67,0 122,-1 165,-4 44,-3 80,-12 107,-27 27,-15 47,-37 59,-66 12,-28 18,-68 18,-121l0 -867 588 0 0 773c0,97 26,173 78,229 53,55 134,83 243,83 91,0 167,-13 229,-40 62,-26 93,-85 93,-178l0 -867 588 0 0 773c0,106 24,184 71,236 46,51 124,76 234,76 84,0 152,-14 204,-42 51,-28 78,-91 78,-189l0 -1054 585 0 0 973c0,112 23,192 67,240 46,48 144,72 293,72 23,0 46,3 67,8 22,5 40,16 57,32 16,16 29,41 39,74 10,33 14,79 14,137 0,103 -14,175 -43,214 -29,39 -74,59 -134,59 -87,0 -174,-16 -259,-48 -85,-32 -155,-96 -209,-194 -43,58 -88,102 -135,134 -46,32 -94,56 -143,74 -49,16 -97,26 -146,29 -47,3 -94,5 -141,5 -54,0 -112,-5 -172,-14 -61,-8 -121,-22 -180,-41 -59,-18 -112,-42 -159,-72 -46,-31 -84,-67 -112,-109 -93,104 -187,169 -283,196 -95,26 -200,40 -312,40 -297,0 -511,-79 -641,-236 -81,107 -187,173 -318,198 -129,25 -296,38 -499,38l-151 0c-23,0 -46,-2 -67,-7 -22,-5 -41,-15 -58,-32 -17,-17 -30,-42 -39,-76 -9,-33 -13,-78 -13,-136 0,-104 15,-175 43,-214 29,-40 74,-59 134,-59l160 0zm4179 -2071c0,-87 31,-162 95,-227 64,-64 140,-97 229,-97 87,0 163,32 226,96 64,63 96,140 96,228 0,87 -32,163 -96,227 -63,64 -139,95 -226,95 -87,0 -163,-31 -227,-95 -65,-64 -97,-140 -97,-227zm42 2071l0 -1285 595 0 0 1809 -1118 0c-24,0 -47,-2 -68,-7 -22,-5 -41,-15 -58,-32 -17,-17 -30,-42 -39,-76 -9,-33 -13,-78 -13,-136 0,-104 15,-175 44,-214 28,-40 73,-59 134,-59l523 0z"/>
     <g>
      <path class="fil7" d="M194126 9889c-4951,0 -8965,4015 -8965,8966 0,4952 4014,8966 8965,8966 4952,0 8966,-4014 8966,-8966 0,-4951 -4014,-8966 -8966,-8966z"/>
      <path class="fil3" d="M194126 22056c-884,0 -1684,-358 -2263,-937 -580,-580 -938,-1380 -938,-2264 0,-884 358,-1684 938,-2264 579,-579 1379,-937 2263,-937 884,0 1685,358 2264,937 579,580 937,1380 937,2264 0,884 -358,1684 -937,2264 -579,579 -1380,937 -2264,937zm171 -8523l0 1440c-107,-4 -236,-9 -341,0l0 -1440c-295,-73 -507,-335 -507,-656 0,-376 301,-677 677,-677 376,0 677,301 677,677 0,321 -212,583 -506,656zm3105 3233l1247 -721c-83,-291 38,-605 316,-765 326,-188 736,-78 925,247 188,326 78,737 -248,925 -279,161 -611,108 -823,-111l-1246 720c-53,-101 -110,-200 -171,-295zm171 3885l1246 719c211,-220 544,-273 823,-112 326,188 436,599 248,924 -189,326 -599,437 -925,248 -278,-160 -398,-473 -316,-764l-1247 -721c61,-95 118,-193 170,-293l1 -1zm-3283 2086l0 1438c298,72 513,335 513,658 0,376 -301,677 -677,677 -376,0 -677,-301 -677,-677 0,-319 209,-579 500,-655l0 -1441c59,2 118,4 177,4 55,0 110,-1 164,-4zm-3445 -1799l-1245 718c88,294 -32,613 -312,774 -326,189 -737,78 -925,-248 -188,-325 -78,-736 248,-924 275,-159 604,-109 816,105l1248 -721 2 4c52,100 108,197 168,292zm-164 -3880l-1246 -719c-211,221 -545,275 -824,113 -326,-188 -436,-599 -248,-924 188,-326 599,-436 925,-248 276,160 397,471 316,762l1248 721c-61,95 -118,194 -171,295zm-2015 -1355c93,-160 289,-211 447,-120 165,95 213,285 119,446 -93,162 -281,215 -446,120 -158,-91 -212,-286 -120,-446zm0 6304c-92,-160 -38,-355 120,-446 165,-95 353,-42 446,120 94,161 46,351 -119,446 -158,91 -354,41 -447,-120zm5460 3153c-185,0 -326,-145 -326,-327 0,-191 140,-327 326,-327 187,0 327,136 327,327 0,182 -142,327 -327,327zm5460 -3153c-92,161 -289,211 -446,120 -165,-95 -213,-285 -120,-446 94,-162 282,-215 447,-120 157,91 212,286 119,446zm0 -6304c93,160 38,355 -119,446 -165,95 -353,42 -447,-120 -93,-161 -45,-351 120,-446 157,-91 354,-40 446,120zm-5460 -3153c185,0 327,145 327,327 0,191 -140,327 -327,327 -186,0 -326,-136 -326,-327 0,-182 141,-327 326,-327zm0 4471c621,0 1014,391 1155,973 692,-129 1290,263 1290,983 0,567 -461,1026 -1028,1026l-2833 0c-567,0 -1029,-459 -1029,-1026 0,-720 598,-1112 1290,-983 141,-582 534,-973 1155,-973zm0 5377c-1956,0 -3542,-1586 -3542,-3543 0,-1956 1586,-3542 3542,-3542 1957,0 3543,1586 3543,3542 0,1957 -1586,3543 -3543,3543z"/>
     </g>
    </g>
   </g>
  </g>
 </g>
</svg>
