<?xml version="1.0" encoding="UTF-8"?>
<!DOCTYPE svg PUBLIC "-//W3C//DTD SVG 1.1//EN" "http://www.w3.org/Graphics/SVG/1.1/DTD/svg11.dtd">
<!-- Creator: CorelDRAW X7 -->
<svg xmlns="http://www.w3.org/2000/svg" xml:space="preserve" width="2.22157in" height="2.29531in" version="1.1" style="shape-rendering:geometricPrecision; text-rendering:geometricPrecision; image-rendering:optimizeQuality; fill-rule:evenodd; clip-rule:evenodd"
viewBox="0 0 22216 22953"
 xmlns:xlink="http://www.w3.org/1999/xlink">
 <defs>
  <style type="text/css">
   <![CDATA[
    .fil1 {fill:#FEFEFE}
    .fil2 {fill:#E6D2AE}
    .fil0 {fill:black;fill-rule:nonzero}
   ]]>
  </style>
 </defs>
 <g id="Layer_x0020_1">
  <metadata id="CorelCorpID_0Corel-Layer"/>
  <g id="_2622982837056">
   <path class="fil0" d="M627 20490c0,40 5,82 14,126 10,43 28,82 55,117 26,34 61,63 106,86 44,24 101,35 170,35 43,0 88,-1 131,-4 45,-4 90,-14 137,-29l0 -683 -246 0c-122,0 -214,32 -275,97 -61,64 -92,149 -92,255zm1378 1283c-79,0 -156,-5 -230,-17 -74,-11 -142,-31 -205,-61 -63,-30 -118,-71 -165,-122 -47,-52 -84,-118 -110,-200 -56,13 -114,23 -174,32 -59,9 -118,13 -178,13 -82,0 -177,-12 -286,-37 -109,-24 -212,-70 -309,-136 -97,-66 -179,-158 -247,-275 -67,-117 -101,-268 -101,-451 0,-182 32,-335 96,-460 64,-124 147,-226 247,-306 101,-79 213,-137 336,-171 123,-35 244,-52 363,-52l839 0 0 1478c0,76 10,128 31,155 19,27 65,41 138,41l119 0c25,0 50,3 73,9 23,5 44,17 62,34 19,18 33,45 43,81 9,36 14,86 14,149 0,112 -15,190 -47,232 -31,43 -80,64 -145,64l-164 0zm465 -569c113,0 191,-17 235,-51 45,-35 66,-113 66,-233l0 -1113 642 0 0 1057c0,122 23,210 69,261 46,53 148,79 308,79 25,0 50,3 73,9 23,5 43,17 62,34 17,18 31,45 42,81 10,36 15,86 15,149 0,112 -15,190 -47,232 -31,43 -80,64 -145,64 -95,0 -187,-15 -277,-47 -89,-31 -163,-99 -223,-204 -41,57 -88,101 -143,135 -56,34 -115,59 -177,77 -64,16 -129,27 -196,32 -68,5 -135,7 -200,7l-405 0c-26,0 -51,-2 -74,-7 -24,-5 -44,-17 -63,-35 -18,-19 -32,-46 -42,-82 -10,-36 -14,-86 -14,-148 0,-113 15,-190 47,-233 31,-43 80,-64 146,-64l301 0zm266 -2250c0,-95 34,-178 103,-248 70,-69 153,-105 249,-105 95,0 177,35 246,104 69,69 104,152 104,249 0,94 -35,177 -104,246 -69,69 -151,103 -246,103 -95,0 -177,-34 -247,-103 -70,-69 -105,-152 -105,-246zm2819 2819c-46,0 -96,-3 -148,-10 -52,-6 -103,-19 -152,-37 -49,-19 -96,-44 -142,-77 -44,-33 -81,-75 -110,-127 -40,57 -88,101 -144,135 -55,34 -114,59 -177,77 -63,16 -128,27 -195,32 -68,5 -134,7 -201,7l-499 0c-25,0 -50,-2 -73,-7 -24,-5 -45,-17 -64,-35 -18,-19 -32,-46 -42,-82 -9,-36 -14,-86 -14,-148 0,-113 16,-190 47,-233 32,-43 80,-64 146,-64l395 0c113,0 191,-17 236,-51 44,-35 66,-113 66,-233l0 -1113 642 0 0 1057c0,122 32,210 96,261 64,53 176,79 333,79 26,0 50,3 74,9 23,5 44,17 62,34 19,18 33,45 42,81 10,36 15,86 15,149 0,112 -15,190 -47,232 -31,43 -80,64 -146,64zm-1640 830c0,-94 34,-177 103,-246 70,-69 153,-104 249,-104 95,0 177,35 246,104 69,69 104,152 104,246 0,95 -35,177 -104,246 -69,70 -151,104 -246,104 -95,0 -177,-34 -247,-104 -70,-69 -105,-151 -105,-246zm806 0c0,-94 34,-177 103,-246 70,-69 151,-104 247,-104 94,0 177,35 247,104 70,69 104,152 104,246 0,95 -34,177 -104,246 -69,70 -151,104 -247,104 -96,0 -177,-34 -247,-104 -69,-69 -103,-151 -103,-246zm2601 -1399c-9,-132 -30,-253 -63,-363 -33,-110 -82,-205 -148,-284 -66,-78 -152,-140 -260,-184 -107,-44 -239,-66 -396,-66 -54,0 -136,7 -248,21 -111,15 -227,39 -346,73l0 -574c76,-26 180,-53 311,-83 132,-30 265,-45 400,-45 248,0 458,40 631,121 173,80 314,189 422,327 109,139 189,300 239,483 51,183 79,374 86,574l321 0c25,0 50,3 73,9 24,5 45,17 63,34 19,18 33,45 42,81 10,36 15,86 15,149 0,112 -16,190 -47,232 -32,43 -80,64 -146,64l-2716 0c-26,0 -50,-2 -74,-7 -23,-5 -44,-17 -63,-35 -18,-19 -32,-46 -42,-82 -10,-36 -14,-86 -14,-148 0,-113 16,-190 47,-233 31,-43 80,-64 146,-64l1767 0zm-993 1389c0,-94 35,-177 104,-246 69,-69 152,-104 249,-104 95,0 176,35 245,104 69,69 104,152 104,246 0,95 -35,177 -104,246 -69,70 -150,104 -245,104 -96,0 -178,-34 -248,-104 -70,-69 -105,-151 -105,-246zm2243 -1389c113,0 191,-17 236,-51 44,-35 65,-113 65,-233l0 -1113 643 0 0 1057c0,122 23,210 68,261 46,53 148,79 308,79 25,0 50,3 73,9 23,5 44,17 62,34 17,18 31,45 42,81 11,36 16,86 16,149 0,112 -16,190 -47,232 -32,43 -80,64 -146,64 -95,0 -187,-15 -277,-47 -89,-31 -163,-99 -223,-204 -40,57 -88,101 -143,135 -55,34 -115,59 -177,77 -63,16 -129,27 -196,32 -68,5 -134,7 -200,7l-405 0c-26,0 -50,-2 -73,-7 -24,-5 -45,-17 -64,-35 -18,-19 -32,-46 -42,-82 -10,-36 -14,-86 -14,-148 0,-113 16,-190 47,-233 31,-43 80,-64 146,-64l301 0zm266 -2250c0,-95 35,-178 104,-248 69,-69 152,-105 248,-105 95,0 177,35 247,104 69,69 103,152 103,249 0,94 -34,177 -103,246 -70,69 -152,103 -247,103 -94,0 -177,-34 -247,-103 -70,-69 -105,-152 -105,-246zm2202 2250c69,0 135,-14 198,-41 63,-27 94,-85 94,-171 0,-59 -37,-139 -111,-239 -74,-99 -172,-206 -294,-318 -123,-113 -261,-224 -415,-335 -155,-110 -311,-205 -470,-288 22,-109 49,-199 81,-270 32,-71 65,-127 98,-170 33,-42 65,-74 97,-97 31,-21 56,-37 75,-46l1725 -760 0 661 -1167 485 0 14c197,129 361,256 490,381 128,126 231,248 308,365 78,119 131,231 161,338 29,107 44,207 44,300 0,79 -10,163 -33,251 -21,89 -63,171 -125,247 -62,77 -150,140 -264,189 -115,49 -263,73 -446,73l-1197 0c-25,0 -50,-2 -73,-7 -24,-5 -44,-17 -63,-35 -18,-19 -32,-46 -42,-82 -10,-36 -14,-86 -14,-148 0,-113 15,-190 47,-233 31,-43 80,-64 145,-64l1151 0zm-973 -2168c20,-399 162,-667 430,-804l1560 -706 0 631 -1990 879zm3581 1454c0,40 5,82 14,126 10,43 28,82 54,117 26,34 62,63 106,86 45,24 102,35 171,35 42,0 87,-1 131,-4 44,-4 89,-14 136,-29l0 -683 -246 0c-122,0 -214,32 -275,97 -61,64 -91,149 -91,255zm1377 1283c-79,0 -156,-5 -230,-17 -74,-11 -142,-31 -205,-61 -62,-30 -117,-71 -164,-122 -48,-52 -85,-118 -111,-200 -56,13 -113,23 -173,32 -60,9 -119,13 -178,13 -82,0 -178,-12 -287,-37 -108,-24 -211,-70 -308,-136 -98,-66 -180,-158 -247,-275 -68,-117 -102,-268 -102,-451 0,-182 32,-335 97,-460 64,-124 146,-226 247,-306 101,-79 212,-137 336,-171 122,-35 243,-52 363,-52l839 0 0 1478c0,76 9,128 30,155 20,27 66,41 138,41l119 0c25,0 50,3 73,9 23,5 45,17 63,34 19,18 33,45 43,81 9,36 14,86 14,149 0,112 -16,190 -47,232 -32,43 -80,64 -146,64l-164 0zm465 -569c113,0 191,-17 236,-51 44,-35 66,-113 66,-233l0 -1113 642 0 0 1057c0,122 23,210 68,261 46,53 148,79 308,79 26,0 50,3 73,9 23,5 44,17 62,34 17,18 31,45 42,81 11,36 16,86 16,149 0,112 -16,190 -47,232 -32,43 -80,64 -146,64 -95,0 -187,-15 -277,-47 -89,-31 -163,-99 -223,-204 -40,57 -88,101 -143,135 -55,34 -114,59 -177,77 -63,16 -128,27 -196,32 -67,5 -134,7 -200,7l-405 0c-26,0 -50,-2 -73,-7 -24,-5 -45,-17 -64,-35 -18,-19 -32,-46 -42,-82 -10,-36 -14,-86 -14,-148 0,-113 16,-190 47,-233 31,-43 80,-64 146,-64l301 0zm-173 -2250c0,-95 34,-178 103,-248 69,-69 153,-105 249,-105 95,0 177,35 246,104 69,69 104,152 104,249 0,94 -35,177 -104,246 -69,69 -151,103 -246,103 -95,0 -177,-34 -247,-103 -70,-69 -105,-152 -105,-246zm806 0c0,-95 34,-178 103,-248 69,-69 151,-105 246,-105 95,0 177,35 247,104 70,69 105,152 105,249 0,94 -35,177 -104,246 -69,69 -151,103 -248,103 -95,0 -177,-34 -246,-103 -69,-69 -103,-152 -103,-246zm858 2250c73,0 133,-1 180,-5 48,-3 86,-13 116,-28 29,-17 51,-41 63,-72 13,-31 20,-75 20,-132l0 -942 639 0 0 839c0,106 29,189 85,250 58,60 146,90 265,90 98,0 181,-14 248,-43 68,-29 102,-93 102,-194l0 -942 639 0 0 839c0,116 25,201 76,257 50,55 135,83 255,83 91,0 165,-15 221,-46 56,-30 85,-99 85,-205l0 -1146 636 0 0 1057c0,122 25,210 73,261 50,53 156,79 318,79 26,0 50,3 74,9 23,5 43,17 61,34 18,18 32,45 42,81 11,36 16,86 16,149 0,112 -16,190 -47,232 -31,43 -80,64 -146,64 -94,0 -188,-17 -281,-52 -92,-34 -168,-104 -228,-210 -46,62 -95,111 -146,145 -50,35 -102,61 -156,80 -52,18 -105,29 -158,32 -52,4 -103,5 -153,5 -59,0 -122,-5 -188,-14 -65,-10 -131,-24 -195,-45 -64,-20 -122,-46 -173,-79 -50,-34 -91,-72 -121,-118 -102,113 -204,184 -308,213 -103,29 -217,43 -339,43 -323,0 -555,-85 -697,-256 -88,116 -203,188 -345,215 -141,27 -322,41 -543,41l-163 0c-26,0 -51,-2 -74,-7 -24,-5 -44,-17 -63,-35 -18,-19 -32,-46 -42,-82 -10,-36 -14,-86 -14,-148 0,-113 16,-190 47,-233 31,-43 80,-64 146,-64l173 0zm4588 0l0 -1397 647 0 0 1966 -1216 0c-26,0 -50,-2 -73,-7 -24,-5 -45,-17 -64,-35 -18,-19 -32,-46 -42,-82 -10,-36 -14,-86 -14,-148 0,-113 16,-190 47,-233 31,-43 80,-64 146,-64l569 0zm-81 1384c0,-94 35,-177 104,-246 69,-69 151,-104 248,-104 95,0 177,35 246,104 69,69 103,152 103,246 0,95 -34,177 -103,247 -69,69 -151,103 -246,103 -95,0 -177,-34 -247,-103 -70,-70 -105,-152 -105,-247z"/>
   <g>
    <path class="fil1" d="M11108 0c3805,0 6890,3085 6890,6890 0,3805 -3085,6890 -6890,6890 -3805,0 -6890,-3085 -6890,-6890 0,-3805 3085,-6890 6890,-6890z"/>
    <path class="fil2" d="M12408 8840l0 1300 -5200 0 0 -1300 5200 0zm-5200 -3900l0 -1300c2600,0 5200,0 7800,0l-1300 1300c-2167,0 -4334,0 -6500,0zm7800 1300c0,1300 0,2600 0,3900l-1300 0 0 -2600 -6500 0 0 -1300c2600,0 5200,0 7800,0z"/>
   </g>
  </g>
 </g>
</svg>
