<?xml version="1.0" encoding="UTF-8"?>
<!DOCTYPE svg PUBLIC "-//W3C//DTD SVG 1.1//EN" "http://www.w3.org/Graphics/SVG/1.1/DTD/svg11.dtd">
<!-- Creator: CorelDRAW X7 -->
<svg xmlns="http://www.w3.org/2000/svg" xml:space="preserve" width="3.06988in" height="0.971929in" version="1.1" style="shape-rendering:geometricPrecision; text-rendering:geometricPrecision; image-rendering:optimizeQuality; fill-rule:evenodd; clip-rule:evenodd"
viewBox="0 0 30699 9719"
 xmlns:xlink="http://www.w3.org/1999/xlink">
 <defs>
  <style type="text/css">
   <![CDATA[
    .fil1 {fill:#5C589A}
    .fil0 {fill:#8480BC}
    .fil2 {fill:white}
    .fil3 {fill:#FEFEFE;fill-rule:nonzero}
   ]]>
  </style>
 </defs>
 <g id="Layer_x0020_1">
  <metadata id="CorelCorpID_0Corel-Layer"/>
  <g id="_2622760214928">
   <path class="fil0" d="M4859 0l20981 0c2672,0 4859,2187 4859,4859 0,2673 -2186,4860 -4859,4860l-20981 0c-2672,0 -4859,-2187 -4859,-4859 0,-2673 2186,-4860 4859,-4860z"/>
   <g>
    <polygon class="fil1" points="21106,1407 20825,1407 20825,8313 21106,8313 "/>
    <polygon class="fil2" points="20684,1407 20825,1407 20825,8313 20684,8313 "/>
   </g>
   <path class="fil2" d="M22543 4860c0,-919 357,-1783 1006,-2432 650,-649 1512,-1007 2431,-1005 918,0 1780,356 2430,1006 650,648 1006,1512 1006,2431 0,918 -356,1782 -1006,2430 -650,650 -1512,1007 -2430,1007 -919,1 -1781,-357 -2431,-1006 -649,-649 -1006,-1513 -1006,-2431zm2496 1879l2820 -2819 -938 -938 -735 735 600 600 -1349 1350 -601 -601 -735 735 938 938zm-203 -1371l151 150 -433 434 -151 -151 433 -433zm2085 -2085l150 151 -433 433 -151 -150 434 -434zm-1882 3757l3120 -3121 -1238 -1239 -1036 1037 600 600 -1048 1048 -601 -600 -1036 1036c415,412 827,824 1239,1239zm4163 -2180c0,-861 -335,-1670 -943,-2280 -609,-608 -1417,-943 -2279,-943 -862,0 -1670,335 -2279,943 -609,610 -944,1419 -944,2280 0,861 335,1670 944,2279 609,608 1417,944 2279,944 862,0 1670,-336 2279,-944 608,-609 943,-1418 943,-2279z"/>
   <path class="fil3" d="M4092 5530l-110 0c-121,0 -237,-53 -347,-159 -30,35 -65,64 -107,88 -41,23 -85,41 -133,55 -47,13 -95,23 -144,28 -48,6 -95,9 -139,9 -35,0 -70,-2 -105,-6 -36,-5 -76,-11 -121,-21 -45,-9 -97,-22 -155,-38 -58,-16 -127,-36 -208,-61l98 -326c55,22 113,41 172,58 59,17 116,31 173,41 56,11 110,17 162,21 52,3 98,2 139,-4 41,-5 76,-15 104,-30 29,-15 48,-36 58,-61 5,-11 7,-21 7,-29 0,-9 -2,-19 -7,-31 -5,-12 -13,-26 -24,-43 -11,-17 -25,-39 -42,-66l-484 -681 286 -184 487 738c26,40 54,81 83,124 29,43 58,82 87,117 29,35 57,63 85,86 27,23 52,34 75,34l110 0 0 341zm2424 -339l430 0c56,0 100,-6 133,-16 33,-10 58,-23 75,-39 17,-15 28,-33 33,-52 5,-19 8,-37 8,-56l0 -441 338 0 0 432c0,41 9,73 27,96 18,23 39,40 62,52 23,11 46,18 69,20 23,3 38,4 46,4l202 0 0 339 -202 0c-77,0 -147,-10 -211,-31 -64,-21 -117,-52 -161,-93 -51,43 -111,74 -181,94 -69,20 -149,30 -238,30l-430 0 -163 0c-37,0 -72,-2 -105,-7 -34,-4 -66,-17 -98,-38 -11,117 -38,224 -80,319 -43,96 -100,177 -172,245 -71,68 -156,120 -255,158 -99,37 -211,55 -334,55l-171 0 0 -339 171 0c87,0 162,-9 226,-27 64,-19 116,-48 157,-88 41,-40 71,-92 91,-156 20,-64 30,-142 30,-234l0 -830 340 0 0 408c0,41 9,75 26,101 18,25 39,45 62,59 23,14 45,23 67,28 22,4 37,7 45,7l163 0zm-1471 -806c2,6 6,21 12,45 6,23 13,52 20,86 7,34 15,72 22,114 8,42 15,84 22,126 7,43 12,84 17,124 4,40 6,75 6,105 0,93 -16,175 -47,243 -31,69 -71,125 -121,170 -50,44 -106,78 -168,99 -63,22 -125,33 -188,33l-588 0 0 -339 598 0c10,0 26,-2 47,-5 20,-3 41,-12 61,-25 20,-14 38,-35 54,-62 15,-28 23,-66 23,-114 0,-20 -2,-45 -5,-73 -3,-29 -7,-60 -13,-92 -5,-33 -11,-66 -18,-100 -7,-35 -14,-67 -20,-97 -6,-31 -13,-58 -19,-83 -6,-25 -11,-45 -15,-58l320 -97zm-293 1888l-229 -231 226 -235 234 235 -231 231zm-572 2l-229 -232 225 -235 235 235 -231 232zm3205 4l-229 -231 226 -235 235 235 -232 231zm-571 2l-229 -232 225 -235 234 235 -230 232zm2843 -751l-41 0c-80,0 -149,-7 -208,-22 -59,-15 -113,-36 -160,-63 -47,-27 -91,-59 -130,-97 -40,-38 -80,-80 -121,-126 -22,57 -56,106 -104,146 -48,40 -102,72 -164,97 -61,24 -127,42 -197,52 -70,11 -139,15 -207,13l-426 0 0 -339 445 0c60,0 115,-4 166,-11 51,-6 95,-18 133,-34 37,-16 66,-37 88,-63 22,-26 34,-59 37,-97 0,-39 -17,-89 -50,-149 -33,-60 -76,-126 -129,-200 -53,-74 -113,-152 -180,-234 -67,-82 -135,-166 -203,-250l58 -277 1183 -574 139 311 -1035 479c86,114 171,228 256,341 85,113 170,227 256,342 50,66 96,125 137,176 42,52 84,95 126,131 43,35 87,62 133,81 47,18 99,28 157,28l41 0 0 339zm-1380 -2066l1039 -451 71 153 -1128 492 18 -194zm2104 921c2,6 6,21 12,45 6,23 13,52 20,86 7,34 15,72 22,114 8,42 15,84 22,126 7,43 12,84 17,124 4,40 6,75 6,105 0,93 -16,175 -47,243 -31,69 -71,125 -121,170 -50,44 -106,78 -168,99 -63,22 -125,33 -188,33l-363 0 0 -339 373 0c10,0 26,-2 47,-5 20,-3 41,-12 61,-25 20,-14 38,-35 54,-62 15,-28 23,-66 23,-114 0,-20 -2,-45 -5,-73 -3,-29 -7,-60 -13,-92 -5,-33 -11,-66 -18,-100 -7,-35 -14,-67 -20,-97 -6,-31 -13,-58 -19,-83 -6,-25 -11,-45 -15,-58l320 -97zm-587 1621l246 -248 251 251 -249 248 -248 -251zm4819 -476c-86,0 -162,-12 -231,-35 -68,-24 -126,-58 -176,-101 -27,26 -56,48 -86,65 -31,18 -62,31 -94,42 -32,10 -65,18 -97,22 -32,5 -63,7 -93,7 -48,0 -92,-3 -134,-11 -42,-7 -82,-23 -120,-49l0 57c0,250 -68,435 -203,555 -135,120 -335,180 -600,180l-266 0c-122,0 -234,-20 -336,-60 -101,-40 -189,-97 -263,-171 -73,-74 -131,-163 -172,-268 -42,-105 -62,-223 -62,-354 0,-60 4,-120 11,-180 8,-60 20,-122 36,-184 17,-63 38,-129 64,-197 26,-69 57,-142 95,-221l305 149c-32,66 -60,126 -84,182 -24,56 -44,109 -60,160 -16,50 -28,99 -35,146 -8,46 -12,93 -12,141 0,72 13,140 38,204 25,63 60,118 105,165 45,46 99,83 162,110 63,27 132,40 208,39l266 0c96,0 175,-9 235,-27 60,-17 107,-43 141,-77 34,-33 57,-75 69,-124 12,-49 18,-105 18,-168l0 -939 340 0 0 245c0,79 7,141 22,189 14,47 33,83 57,108 24,25 51,42 81,50 31,8 62,12 94,12 19,0 40,-3 64,-10 24,-7 47,-19 69,-35 22,-16 40,-38 55,-66 14,-28 22,-62 22,-103l0 -390 338 0 0 404c2,69 20,119 56,152 36,32 93,48 170,48l-1 0c12,-1 30,-4 51,-9 21,-5 42,-15 62,-30 20,-15 37,-36 52,-64 14,-28 22,-65 22,-111 0,-30 -4,-68 -11,-115 -8,-46 -16,-93 -26,-142 -10,-49 -20,-94 -30,-136 -10,-43 -18,-74 -25,-95l321 -97c1,5 5,19 11,42 6,23 13,51 21,84 7,33 16,70 24,111 9,40 17,81 23,122 7,42 13,82 17,122 5,39 7,74 7,104 0,93 -15,173 -45,242 -31,69 -70,126 -119,172 -49,46 -104,80 -165,103 -61,22 -123,34 -186,35zm1567 0c-100,0 -186,-6 -258,-18 -72,-12 -132,-31 -181,-55 -49,-24 -89,-55 -118,-92 -30,-37 -52,-81 -68,-131 -15,-50 -25,-106 -30,-169 -5,-64 -8,-133 -8,-210l0 -1291 340 0 0 1291c0,73 2,131 7,175 5,43 18,77 40,101 21,24 53,40 96,48 44,8 103,12 180,12l0 339zm935 -258c8,0 21,-1 39,-4 18,-3 36,-13 54,-30 18,-16 34,-41 48,-75 14,-34 21,-82 21,-144 0,-24 -4,-54 -13,-91 -8,-37 -23,-73 -45,-108 -21,-35 -50,-65 -86,-90 -35,-25 -81,-37 -135,-37 -48,0 -86,14 -116,42 -30,28 -55,63 -76,105 -20,42 -38,87 -52,136 -14,49 -29,93 -45,133 33,19 69,38 107,58 37,19 74,37 111,52 36,16 71,28 103,38 32,10 60,15 85,15zm-117 -917c93,0 175,17 245,50 69,34 127,79 175,137 47,57 83,123 107,199 24,75 37,154 39,237 0,51 10,91 30,119 20,29 42,50 68,64 25,13 50,22 75,25 24,3 41,5 50,5l38 0 0 339 -38 0c-64,0 -124,-9 -178,-28 -54,-18 -103,-42 -148,-71 -27,38 -57,68 -90,90 -32,23 -65,39 -98,50 -33,11 -64,18 -94,21 -30,2 -56,4 -78,4 -45,0 -88,-5 -129,-13 -41,-9 -83,-21 -125,-37 -42,-16 -86,-36 -132,-59 -45,-23 -95,-49 -148,-78 -41,43 -85,75 -132,93 -47,19 -101,28 -164,28l-168 0 -3 -339 171 0c20,0 37,-6 52,-18 15,-12 29,-28 41,-50 13,-21 24,-47 34,-78 11,-30 22,-64 32,-101 19,-66 40,-133 66,-203 25,-69 59,-133 102,-190 42,-57 95,-104 160,-141 64,-37 144,-55 240,-55zm1783 30c2,6 6,21 12,45 6,23 13,52 20,86 7,34 15,72 22,114 8,42 15,84 22,126 7,43 12,84 17,124 4,40 6,75 6,105 0,93 -16,175 -47,243 -31,69 -71,125 -121,170 -50,44 -106,78 -168,99 -63,22 -125,33 -188,33l-588 0 0 -339 598 0c10,0 26,-2 47,-5 20,-3 41,-12 61,-25 20,-14 38,-35 54,-62 15,-28 23,-66 23,-114 0,-20 -2,-45 -5,-73 -3,-29 -7,-60 -13,-92 -5,-33 -11,-66 -18,-100 -7,-35 -14,-67 -20,-97 -6,-31 -13,-58 -19,-83 -6,-25 -11,-45 -15,-58l320 -97zm-135 -266l-229 -232 227 -234 234 234 -232 232zm-571 1l-229 -231 225 -235 235 235 -231 231z"/>
  </g>
 </g>
</svg>
