<?xml version="1.0" encoding="UTF-8"?>
<!DOCTYPE svg PUBLIC "-//W3C//DTD SVG 1.1//EN" "http://www.w3.org/Graphics/SVG/1.1/DTD/svg11.dtd">
<!-- Creator: CorelDRAW X7 -->
<svg xmlns="http://www.w3.org/2000/svg" xml:space="preserve" width="6.57276in" height="7.07243in" version="1.1" style="shape-rendering:geometricPrecision; text-rendering:geometricPrecision; image-rendering:optimizeQuality; fill-rule:evenodd; clip-rule:evenodd"
viewBox="0 0 65728 70724"
 xmlns:xlink="http://www.w3.org/1999/xlink">
 <defs>
  <style type="text/css">
   <![CDATA[
    .fil1 {fill:#F7EFE3}
    .fil0 {fill:#F9F3EA}
   ]]>
  </style>
 </defs>
 <g id="Layer_x0020_1">
  <metadata id="CorelCorpID_0Corel-Layer"/>
  <g id="_2622975982960">
   <path class="fil0" d="M27714 56329c0,3608 -3700,6534 -8264,6534 -4564,0 -8264,-2926 -8264,-6534 0,-3609 3700,-6534 8264,-6534 4564,0 8264,2925 8264,6534z"/>
   <path class="fil1" d="M65727 36836c-15662,-4576 -32936,-1635 -50080,3740 -5445,1707 -10627,3546 -15647,5429l0 -46005 65727 0 0 36836z"/>
   <path class="fil1" d="M65727 44704l0 25874c-15539,1934 -32485,-15800 -28899,-21922 2375,-4054 17034,-6303 28899,-3952z"/>
  </g>
 </g>
</svg>
