<?xml version="1.0" encoding="UTF-8"?>
<!DOCTYPE svg PUBLIC "-//W3C//DTD SVG 1.1//EN" "http://www.w3.org/Graphics/SVG/1.1/DTD/svg11.dtd">
<!-- Creator: CorelDRAW X7 -->
<svg xmlns="http://www.w3.org/2000/svg" xml:space="preserve" width="2.16535in" height="2.16535in" version="1.1" style="shape-rendering:geometricPrecision; text-rendering:geometricPrecision; image-rendering:optimizeQuality; fill-rule:evenodd; clip-rule:evenodd"
viewBox="0 0 21654 21654"
 xmlns:xlink="http://www.w3.org/1999/xlink">
 <defs>
  <style type="text/css">
   <![CDATA[
    .fil0 {fill:#DABA76}
    .fil1 {fill:white}
   ]]>
  </style>
 </defs>
 <g id="Layer_x0020_1">
  <metadata id="CorelCorpID_0Corel-Layer"/>
  <g id="_2622982885312">
   <path class="fil0" d="M10827 0c-5980,0 -10827,4847 -10827,10827 0,5979 4847,10827 10827,10827 5979,0 10827,-4848 10827,-10827 0,-5980 -4848,-10827 -10827,-10827z"/>
   <path class="fil1" d="M11033 4402l0 1733c-70,-3 -140,-4 -210,-4 -68,0 -135,1 -202,4l0 -1733c-356,-90 -611,-405 -611,-793 0,-454 363,-817 817,-817 454,0 817,363 817,817 0,388 -255,703 -611,793zm-206 4212c749,0 1224,471 1394,1174 836,-156 1558,318 1558,1187 0,685 -557,1240 -1242,1240l-3421 0c-685,0 -1242,-555 -1242,-1240 0,-869 722,-1343 1558,-1187 170,-703 645,-1174 1395,-1174zm-4 6074c1067,0 2034,-433 2733,-1132 700,-700 1133,-1666 1133,-2734 0,-1067 -433,-2034 -1133,-2733 -699,-700 -1666,-1133 -2733,-1133 -1068,0 -2034,433 -2734,1133 -699,699 -1132,1666 -1132,2733 0,1068 433,2034 1132,2734 700,699 1666,1132 2734,1132zm0 412c2363,0 4278,-1915 4278,-4278 0,-2362 -1915,-4278 -4278,-4278 -2363,0 -4278,1916 -4278,4278 0,2363 1915,4278 4278,4278zm4162 -2108l1507 870c255,-265 657,-329 994,-135 394,228 526,724 299,1117 -227,393 -723,526 -1117,299 -334,-193 -480,-572 -381,-923l-1509 -872c74,-116 143,-234 207,-356zm-8121 350l-1501 866c106,356 -39,740 -378,935 -394,227 -889,94 -1116,-299 -228,-393 -95,-889 299,-1117 332,-192 730,-131 985,127l1505 -868c63,121 132,240 206,356zm-2629 1290c-112,-193 -46,-429 144,-538 199,-115 426,-51 539,144 113,195 55,424 -144,539 -190,109 -428,49 -539,-145zm13184 0c-112,194 -349,254 -539,145 -199,-115 -257,-344 -144,-539 112,-195 339,-259 538,-144 190,109 256,345 145,538zm-6592 -11417c223,0 394,175 394,394 0,230 -169,395 -394,395 -226,0 -395,-165 -395,-395 0,-219 172,-394 395,-394z"/>
  </g>
 </g>
</svg>
