<?xml version="1.0" encoding="UTF-8"?>
<!DOCTYPE svg PUBLIC "-//W3C//DTD SVG 1.1//EN" "http://www.w3.org/Graphics/SVG/1.1/DTD/svg11.dtd">
<!-- Creator: CorelDRAW X7 -->
<svg xmlns="http://www.w3.org/2000/svg" xml:space="preserve" width="12.6931in" height="14.331in" version="1.1" style="shape-rendering:geometricPrecision; text-rendering:geometricPrecision; image-rendering:optimizeQuality; fill-rule:evenodd; clip-rule:evenodd"
viewBox="0 0 126931 143310"
 xmlns:xlink="http://www.w3.org/1999/xlink">
 <defs>
  <style type="text/css">
   <![CDATA[
    .fil0 {fill:#F1EADA}
   ]]>
  </style>
 </defs>
 <g id="Layer_x0020_1">
  <metadata id="CorelCorpID_0Corel-Layer"/>
  <path class="fil0" d="M78549 19565c-11298,-11298 -26105,-16946 -40912,-16946 -13416,0 -26832,4637 -37637,13912l0 -3398c10985,-8755 24311,-13133 37637,-13133 15478,0 30955,5904 42764,17713 11808,11809 17712,27286 17712,42763 0,15477 -5904,30955 -17712,42763 -11809,11809 -27286,17713 -42764,17713 -4558,0 -9116,-512 -13581,-1537l-1 1c155,1023 236,2072 236,3139 0,5731 -2324,10920 -6080,14676 -3756,3756 -8945,6079 -14676,6079 -1205,0 -2386,-103 -3535,-300l0 -2667c1143,226 2325,345 3535,345 5008,0 9541,-2029 12823,-5311 3281,-3281 5311,-7815 5311,-12822 0,-1322 -142,-2610 -410,-3852l-1 -1c-7576,-2123 -14819,-5751 -21258,-10883l0 -3397c10805,9274 24221,13912 37637,13912 14807,0 29614,-5649 40912,-16947 11297,-11297 16946,-26104 16946,-40911 0,-14807 -5649,-29614 -16946,-40911zm37960 42777c2878,0 5483,1167 7369,3053 1886,1886 3053,4491 3053,7369 0,2878 -1167,5484 -3053,7370 -1886,1886 -4491,3053 -7369,3053 -2878,0 -5484,-1167 -7370,-3053 -1886,-1886 -3053,-4492 -3053,-7370 0,-2878 1167,-5483 3053,-7369 1886,-1886 4492,-3053 7370,-3053zm5516 4907c-1412,-1412 -3362,-2285 -5516,-2285 -2155,0 -4105,873 -5516,2285 -1412,1411 -2285,3361 -2285,5515 0,2155 873,4105 2285,5516 1411,1412 3361,2285 5516,2285 2154,0 4104,-873 5516,-2285 1411,-1411 2284,-3361 2284,-5516 0,-2154 -873,-4104 -2284,-5515zm-52109 -39052c-458,-457 -837,-420 -1384,-420l-32159 0 -36373 36373 0 3888 37522 -37507 30061 0 0 30061 -39601 39617c-404,402 -934,617 -1491,617 -564,0 -1088,-215 -1484,-610l-13554 -13555 -11453 -11453 0 3889 9508 9508 13551 13551c913,920 2135,1424 3432,1424 1296,0 2511,-504 3430,-1424l40416 -40416 0 -32158c0,-547 37,-927 -421,-1385zm-20763 22706c537,-536 537,-1409 0,-1946 -538,-538 -1404,-538 -1940,0l-1028 1027c-2458,-1967 -5573,-2934 -8763,-2664 -2216,187 -4224,1253 -5647,3013 -1470,1814 -2149,4183 -1860,6501l1049 8372 -12303 12301c-2819,-3766 -2530,-9138 894,-12564 536,-536 536,-1401 0,-1938 -538,-539 -1410,-539 -1948,0 -4498,4491 -4800,11614 -912,16471l-1572 1570c-538,537 -538,1403 0,1941 269,269 618,403 973,403 349,0 706,-134 975,-403l1571 -1573c2189,1753 4901,2715 7715,2715 342,0 691,-14 1040,-43 2215,-186 4223,-1253 5653,-3014 1465,-1812 2144,-4182 1855,-6499l-1049 -8373 12308 -12300c2814,3765 2525,9138 -899,12561 -538,538 -538,1404 0,1941 536,538 1410,538 1948,0 4498,-4498 4800,-11616 912,-16471l1028 -1028zm-17760 17761l779 6251c201,1578 -263,3191 -1263,4424 -953,1177 -2283,1888 -3746,2009 -2364,189 -4687,-497 -6561,-1894l10791 -10790zm2027 -5923l-779 -6251c-194,-1579 263,-3189 1264,-4424 952,-1168 2282,-1881 3745,-2008 2364,-195 4688,489 6568,1895l-10798 10788zm28170 -16499c2683,-2683 2683,-7034 0,-9718 -2684,-2684 -7035,-2684 -9719,0 -2684,2684 -2684,7035 0,9718 2684,2684 7035,2684 9719,0zm-1952 -7766c803,803 1205,1855 1204,2907 1,1052 -401,2105 -1204,2908 -803,803 -1855,1204 -2908,1204 -1052,0 -2104,-401 -2907,-1204 -803,-803 -1205,-1856 -1205,-2908 0,-1052 402,-2104 1205,-2907 803,-803 1855,-1205 2907,-1205 1053,0 2105,402 2908,1205z"/>
 </g>
</svg>
