<?xml version="1.0" encoding="UTF-8"?>
<!DOCTYPE svg PUBLIC "-//W3C//DTD SVG 1.1//EN" "http://www.w3.org/Graphics/SVG/1.1/DTD/svg11.dtd">
<!-- Creator: CorelDRAW X7 -->
<svg xmlns="http://www.w3.org/2000/svg" xml:space="preserve" width="2.43335in" height="3.04024in" version="1.1" style="shape-rendering:geometricPrecision; text-rendering:geometricPrecision; image-rendering:optimizeQuality; fill-rule:evenodd; clip-rule:evenodd"
viewBox="0 0 24333 30402"
 xmlns:xlink="http://www.w3.org/1999/xlink">
 <defs>
  <style type="text/css">
   <![CDATA[
    .fil1 {fill:#8480BC}
    .fil2 {fill:white}
    .fil0 {fill:black;fill-rule:nonzero}
   ]]>
  </style>
 </defs>
 <g id="Layer_x0020_1">
  <metadata id="CorelCorpID_0Corel-Layer"/>
  <g id="_2622760275312">
   <path class="fil0" d="M3295 29252c6,29 12,62 16,98 5,36 8,79 8,129 0,135 -26,258 -76,370 -51,112 -140,209 -269,292 -129,83 -302,147 -519,193 -216,46 -491,68 -825,68 -323,0 -589,-30 -798,-91 -209,-61 -375,-145 -499,-252 -124,-107 -210,-232 -260,-375 -48,-143 -73,-298 -73,-466l0 -820 641 0 0 799c0,213 79,369 233,466 156,98 411,146 766,146 231,0 415,-13 555,-38 140,-26 249,-59 327,-98 78,-40 129,-81 153,-124 24,-43 36,-81 36,-113 0,-86 -85,-158 -254,-218 -170,-59 -398,-125 -684,-197l0 -589c217,69 424,129 622,177 198,50 375,74 534,74l617 0c26,0 50,3 74,8 25,6 45,18 64,35 17,18 31,45 40,81 10,36 15,85 15,149 0,112 -16,190 -47,232 -32,43 -80,64 -146,64l-251 0zm552 -569c113,0 191,-17 236,-52 44,-34 66,-112 66,-233l0 -1112 642 0 0 1057c0,122 23,209 68,261 46,53 148,79 308,79 26,0 50,3 73,8 23,6 44,18 62,35 17,18 31,45 42,81 11,36 16,85 16,149 0,112 -16,190 -47,232 -32,43 -80,64 -146,64 -95,0 -187,-16 -277,-47 -88,-31 -163,-99 -223,-204 -40,57 -88,101 -143,135 -55,34 -114,59 -177,77 -63,16 -128,27 -196,32 -67,5 -134,7 -200,7l-405 0c-26,0 -50,-2 -73,-7 -24,-5 -45,-17 -64,-35 -18,-19 -32,-46 -42,-82 -10,-36 -14,-86 -14,-148 0,-113 16,-191 47,-233 32,-43 80,-64 146,-64l301 0zm-173 -2251c0,-94 34,-177 103,-247 69,-70 153,-105 249,-105 95,0 177,35 246,104 69,69 104,152 104,248 0,95 -35,177 -104,247 -69,69 -151,103 -246,103 -95,0 -177,-34 -247,-103 -70,-70 -105,-152 -105,-247zm806 0c0,-94 34,-177 103,-247 70,-70 151,-105 247,-105 94,0 177,35 246,104 70,69 105,152 105,248 0,95 -35,177 -104,247 -69,69 -151,103 -247,103 -96,0 -177,-34 -247,-103 -69,-70 -103,-152 -103,-247zm1835 2251c69,0 136,-14 198,-41 63,-27 94,-85 94,-171 0,-59 -37,-139 -111,-239 -74,-100 -172,-206 -294,-319 -123,-112 -261,-224 -415,-334 -155,-110 -311,-206 -470,-288 22,-109 49,-199 81,-270 33,-71 65,-128 98,-170 33,-42 65,-75 97,-97 31,-21 57,-37 75,-47l1725 -760 0 662 -1167 484 0 15c197,129 361,255 490,381 128,126 231,247 308,365 78,119 131,231 161,338 30,107 44,207 44,300 0,79 -10,162 -33,251 -21,88 -63,171 -125,247 -61,77 -149,139 -264,189 -114,48 -263,73 -446,73l-1196 0c-26,0 -51,-2 -74,-7 -24,-5 -44,-17 -63,-35 -18,-19 -32,-46 -42,-82 -10,-36 -14,-86 -14,-148 0,-113 16,-191 47,-233 31,-43 80,-64 146,-64l1150 0zm2871 569c-44,0 -103,-10 -179,-30 -76,-20 -142,-63 -198,-129 -3,223 -29,410 -78,561 -49,150 -123,272 -222,364 -99,92 -224,159 -375,197 -151,40 -333,61 -545,65l0 -603c135,-3 242,-19 322,-48 79,-28 139,-69 179,-125 39,-55 64,-127 76,-215 11,-87 16,-192 16,-314l0 -1472 637 0 0 840c0,129 39,218 117,266 78,50 162,74 250,74 25,0 50,3 73,8 24,6 44,18 63,35 18,18 32,45 42,81 10,36 14,85 14,149 0,112 -15,190 -47,232 -31,43 -80,64 -145,64zm200 -569c72,0 132,-1 179,-5 48,-3 87,-13 116,-29 30,-16 51,-40 65,-71 14,-31 21,-75 21,-132l0 -943 632 0 0 840c0,106 28,189 86,250 57,60 146,90 268,90 96,0 177,-15 246,-43 68,-29 102,-93 102,-194l0 -943 641 0 0 840c0,227 98,340 292,340l307 0 0 -1397 641 0 0 1966 -755 0c-175,0 -307,-20 -397,-62 -89,-41 -164,-105 -226,-194 -49,63 -102,111 -158,145 -56,34 -115,59 -174,77 -59,16 -118,26 -175,29 -57,3 -112,5 -165,5 -167,0 -308,-27 -423,-82 -113,-55 -195,-112 -243,-174 -88,116 -204,188 -346,215 -142,27 -324,41 -544,41l-193 0c-25,0 -50,-2 -73,-7 -24,-5 -45,-17 -64,-35 -18,-19 -32,-46 -42,-82 -9,-36 -13,-86 -13,-148 0,-113 15,-191 46,-233 32,-43 80,-64 146,-64l203 0zm1259 -2251c0,-94 34,-177 103,-247 69,-70 153,-105 249,-105 95,0 177,35 246,104 69,69 104,152 104,248 0,95 -35,177 -104,247 -69,69 -151,103 -246,103 -95,0 -177,-34 -247,-103 -70,-70 -105,-152 -105,-247zm806 0c0,-94 34,-177 103,-247 69,-70 151,-105 246,-105 95,0 177,35 247,104 70,69 105,152 105,248 0,95 -35,177 -104,247 -69,69 -151,103 -248,103 -95,0 -177,-34 -246,-103 -69,-70 -103,-152 -103,-247zm-392 -716c0,-95 35,-177 104,-247 69,-70 153,-105 249,-105 94,0 177,34 246,103 69,70 104,153 104,249 0,95 -35,177 -104,246 -69,69 -152,104 -246,104 -95,0 -177,-35 -247,-104 -70,-69 -106,-151 -106,-246zm3600 2253c0,40 5,82 14,126 10,42 28,82 54,116 27,35 62,64 106,87 45,24 102,35 171,35 43,0 87,-1 131,-5 44,-3 89,-13 136,-28l0 -683 -246 0c-122,0 -214,32 -275,96 -61,65 -91,149 -91,256zm1377 1283c-79,0 -155,-6 -230,-17 -74,-11 -142,-31 -205,-61 -62,-30 -117,-71 -164,-122 -48,-52 -85,-118 -111,-200 -55,12 -113,23 -173,32 -59,9 -119,13 -178,13 -82,0 -178,-12 -287,-37 -108,-24 -211,-71 -308,-136 -97,-66 -180,-158 -247,-275 -68,-117 -102,-268 -102,-451 0,-182 33,-335 97,-460 64,-124 146,-226 247,-306 101,-79 212,-137 336,-171 122,-35 243,-52 363,-52l839 0 0 1478c0,76 10,128 30,155 20,27 66,41 138,41l119 0c26,0 50,3 73,8 23,6 45,18 63,35 19,18 33,45 43,81 9,36 14,85 14,149 0,112 -16,190 -47,232 -32,43 -80,64 -146,64l-164 0zm1932 -569c-9,-132 -31,-253 -64,-363 -33,-110 -82,-205 -148,-284 -66,-78 -152,-140 -259,-184 -107,-44 -240,-66 -397,-66 -54,0 -136,7 -248,21 -111,15 -226,39 -346,73l0 -574c76,-27 180,-54 312,-83 131,-30 265,-46 400,-46 247,0 457,41 630,121 173,81 314,190 423,328 108,138 188,300 238,483 51,183 79,374 86,574l321 0c26,0 50,3 73,8 24,6 45,18 63,35 19,18 33,45 43,81 9,36 14,85 14,149 0,112 -16,190 -47,232 -31,43 -80,64 -146,64l-2716 0c-25,0 -50,-2 -73,-7 -24,-5 -45,-17 -64,-35 -18,-19 -32,-46 -42,-82 -10,-36 -14,-86 -14,-148 0,-113 16,-191 47,-233 32,-43 80,-64 146,-64l1768 0zm-1166 -2251c0,-94 34,-177 104,-247 69,-70 152,-105 248,-105 95,0 177,35 246,104 70,69 104,152 104,248 0,95 -34,177 -104,247 -69,69 -151,103 -246,103 -94,0 -177,-34 -247,-103 -70,-70 -105,-152 -105,-247zm2288 2251c72,0 132,-1 179,-5 48,-3 87,-13 116,-29 30,-16 51,-40 64,-71 13,-31 20,-75 20,-132l0 -943 638 0 0 840c0,106 29,189 86,250 58,60 146,90 264,90 98,0 181,-15 249,-43 67,-29 101,-93 101,-194l0 -943 639 0 0 840c0,115 26,201 77,257 50,55 135,83 254,83 91,0 166,-15 222,-46 56,-30 84,-99 84,-205l0 -1146 637 0 0 1057c0,122 24,209 73,261 49,53 156,79 318,79 25,0 50,3 73,8 23,6 44,18 62,35 17,18 31,45 42,81 11,36 15,85 15,149 0,112 -15,190 -46,232 -32,43 -80,64 -146,64 -95,0 -189,-17 -282,-52 -92,-34 -168,-104 -227,-211 -47,63 -95,112 -147,146 -50,35 -102,61 -155,80 -53,18 -106,29 -158,32 -52,3 -103,5 -153,5 -60,0 -122,-5 -188,-15 -66,-9 -131,-24 -195,-44 -64,-20 -122,-46 -173,-79 -50,-34 -91,-73 -122,-118 -101,113 -203,184 -307,213 -104,28 -217,43 -339,43 -324,0 -556,-86 -698,-256 -88,116 -203,188 -345,215 -140,27 -321,41 -542,41l-164 0c-25,0 -50,-2 -73,-7 -24,-5 -45,-17 -64,-35 -18,-19 -32,-46 -42,-82 -9,-36 -14,-86 -14,-148 0,-113 16,-191 47,-233 32,-43 80,-64 146,-64l174 0zm4541 -2251c0,-94 35,-177 104,-247 69,-70 152,-105 249,-105 94,0 177,35 246,104 69,69 103,152 103,248 0,95 -34,177 -103,247 -69,69 -152,103 -246,103 -95,0 -178,-34 -247,-103 -70,-70 -106,-152 -106,-247zm46 2251l0 -1397 647 0 0 1966 -1216 0c-25,0 -50,-2 -73,-7 -24,-5 -44,-17 -63,-35 -18,-19 -32,-46 -42,-82 -10,-36 -14,-86 -14,-148 0,-113 15,-191 47,-233 31,-43 79,-64 145,-64l569 0z"/>
   <g>
    <path class="fil1" d="M12167 0c-5980,0 -10827,4847 -10827,10827 0,5979 4847,10827 10827,10827 5979,0 10827,-4848 10827,-10827 0,-5980 -4848,-10827 -10827,-10827z"/>
    <path class="fil2" d="M12373 4400l0 1739c-68,-3 -138,-4 -206,-4 -68,0 -135,1 -203,4l-3 0 0 -1739c-356,-89 -612,-405 -612,-792 0,-455 363,-817 818,-817 454,0 817,362 817,817 0,387 -255,703 -611,792zm-801 8220l-1669 0 0 -2699 2263 -1767 2264 1767 0 2699 -1669 0 0 -1589 -1189 0 0 1589zm595 2073c1067,0 2034,-433 2733,-1133 700,-699 1132,-1666 1132,-2733 0,-1068 -432,-2034 -1132,-2734 -699,-699 -1666,-1132 -2733,-1132 -1068,0 -2034,433 -2734,1132 -699,700 -1132,1666 -1132,2734 0,1067 433,2034 1132,2733 700,700 1666,1133 2734,1133zm0 412c2362,0 4277,-1916 4277,-4278 0,-2363 -1915,-4278 -4277,-4278 -2363,0 -4278,1915 -4278,4278 0,2362 1915,4278 4278,4278zm2164 -8442l870 -1506c-263,-254 -326,-656 -133,-991 227,-393 724,-526 1117,-299 393,227 526,723 299,1117 -194,336 -574,482 -927,380l-869 1505c-116,-73 -235,-143 -357,-206zm1792 1641l1506 -870c-100,-352 46,-731 381,-924 393,-228 889,-95 1117,298 227,394 94,890 -300,1117 -336,194 -738,130 -993,-134l-1505 869c-64,-122 -133,-241 -206,-356zm731 2317l1739 0c89,-356 405,-612 793,-612 454,0 817,363 817,818 0,454 -363,817 -817,817 -388,0 -704,-255 -793,-611l-1739 0c3,-68 5,-137 5,-206 0,-69 -2,-138 -5,-206zm-525 2374l1505 869c254,-266 657,-330 993,-135 394,227 527,722 300,1116 -228,394 -724,527 -1117,299 -335,-193 -481,-571 -381,-923l-1507 -870c74,-115 143,-233 206,-355l1 -1zm-1644 1792l868 1504c354,-104 736,41 931,379 227,393 94,889 -299,1116 -393,228 -890,95 -1117,-299 -193,-334 -131,-733 130,-988l-870 -1506c122,-64 241,-132 357,-206zm-2320 728l0 1737c360,86 619,403 619,794 0,454 -363,817 -817,817 -455,0 -818,-363 -818,-817 0,-385 252,-699 604,-791l0 -1741c71,3 142,5 214,5 66,0 132,-1 198,-4zm-2372 -528l-868 1502c270,255 336,660 140,998 -227,394 -723,527 -1116,299 -394,-227 -527,-723 -300,-1116 192,-333 567,-479 917,-383l871 -1508c116,75 234,144 356,208zm-1788 -1645l-1504 868c107,355 -39,739 -377,934 -394,228 -890,95 -1117,-299 -227,-394 -95,-889 299,-1116 333,-193 730,-132 986,126l1507 -870 2 5c63,120 131,237 204,352zm-726 -2317l-1737 0c-86,360 -404,619 -794,619 -455,0 -818,-363 -818,-817 0,-455 363,-818 818,-818 385,0 699,252 790,604l1741 0c-3,71 -4,142 -4,214 0,66 1,132 4,198zm527 -2369l-1504 -868c-255,267 -658,332 -996,137 -394,-227 -526,-723 -299,-1116 227,-394 723,-527 1117,-299 334,192 480,569 382,920l1507 870c-74,116 -143,234 -207,356zm1641 -1787l-870 -1505c-353,102 -733,-44 -928,-380 -227,-394 -94,-890 300,-1117 393,-227 889,-94 1116,299 194,335 131,736 -131,990l869 1507c-122,63 -241,132 -356,206zm-1287 -2636c193,-111 429,-45 539,145 115,199 51,426 -144,539 -196,112 -424,55 -540,-145 -109,-190 -48,-427 145,-539zm-2786 2787c111,-193 348,-254 538,-144 200,115 258,343 145,539 -113,195 -340,259 -539,144 -190,-110 -256,-346 -144,-539zm-1021 3807c0,-223 175,-395 395,-395 230,0 395,169 395,395 0,225 -165,394 -395,394 -220,0 -395,-171 -395,-394zm1021 3807c-112,-194 -46,-430 144,-539 199,-116 426,-51 539,144 113,195 55,424 -145,539 -190,110 -427,49 -538,-144zm2786 2786c-193,-111 -254,-349 -145,-539 116,-199 344,-257 540,-144 195,112 259,340 144,539 -110,190 -346,256 -539,144zm3807 1020c-223,0 -395,-175 -395,-394 0,-230 169,-395 395,-395 225,0 394,165 394,395 0,219 -171,394 -394,394zm3806 -1020c-193,112 -429,46 -539,-144 -115,-199 -50,-427 145,-539 195,-113 424,-55 539,144 110,190 49,428 -145,539zm2787 -2786c-111,193 -349,254 -539,144 -199,-115 -257,-344 -144,-539 113,-195 339,-260 539,-144 190,109 256,345 144,539zm1020 -3807c0,223 -175,394 -394,394 -230,0 -395,-169 -395,-394 0,-226 165,-395 395,-395 219,0 394,172 394,395zm-1020 -3807c112,193 46,429 -144,539 -200,115 -426,51 -539,-144 -113,-196 -55,-424 144,-539 190,-110 428,-49 539,144zm-2787 -2787c194,112 255,349 145,539 -115,200 -344,257 -539,145 -195,-113 -260,-340 -145,-539 110,-190 346,-256 539,-145zm-3806 -1020c223,0 394,176 394,395 0,230 -169,394 -394,394 -226,0 -395,-164 -395,-394 0,-219 172,-395 395,-395z"/>
   </g>
  </g>
 </g>
</svg>
