<?xml version="1.0" encoding="UTF-8"?>
<!DOCTYPE svg PUBLIC "-//W3C//DTD SVG 1.1//EN" "http://www.w3.org/Graphics/SVG/1.1/DTD/svg11.dtd">
<!-- Creator: CorelDRAW X7 -->
<svg xmlns="http://www.w3.org/2000/svg" xml:space="preserve" width="3.41102in" height="1.07988in" version="1.1" style="shape-rendering:geometricPrecision; text-rendering:geometricPrecision; image-rendering:optimizeQuality; fill-rule:evenodd; clip-rule:evenodd"
viewBox="0 0 34110 10799"
 xmlns:xlink="http://www.w3.org/1999/xlink">
 <defs>
  <style type="text/css">
   <![CDATA[
    .fil0 {fill:#FEFEFE}
    .fil2 {fill:#D2AE6D}
    .fil1 {fill:#F6EFE2}
    .fil3 {fill:#D2AE6D;fill-rule:nonzero}
   ]]>
  </style>
 </defs>
 <g id="Layer_x0020_1">
  <metadata id="CorelCorpID_0Corel-Layer"/>
  <g id="_2623027542432">
   <g id="_2555776433744">
    <path class="fil0" d="M5399 0l23312 0c2969,0 5399,2430 5399,5399 0,2970 -2429,5400 -5399,5400l-23312 0c-2969,0 -5399,-2430 -5399,-5399 0,-2970 2429,-5400 5399,-5400z"/>
    <polygon class="fil1" points="23087,1563 22775,1563 22775,9236 23087,9236 "/>
    <polygon class="fil2" points="22618,1563 22775,1563 22775,9236 22618,9236 "/>
    <path class="fil2" d="M26909 5281l3459 0 -1298 -1298 169 -170 1587 1587 -1587 1587 -169 -169 1298 -1300 -3459 0 0 -237zm-1861 119c0,-1021 396,-1981 1118,-2702 722,-721 1680,-1119 2701,-1117 1020,0 1978,396 2700,1118 722,720 1118,1680 1118,2701 0,1020 -396,1980 -1118,2700 -722,722 -1680,1119 -2700,1119 -1021,1 -1979,-397 -2701,-1118 -722,-721 -1118,-1681 -1118,-2701zm7399 0c0,-957 -372,-1856 -1048,-2533 -677,-676 -1575,-1048 -2532,-1048 -958,0 -1856,372 -2532,1048 -677,677 -1049,1576 -1049,2533 0,957 372,1855 1049,2532 676,676 1574,1049 2532,1049 957,0 1855,-373 2532,-1049 676,-677 1048,-1575 1048,-2532z"/>
   </g>
   <path class="fil3" d="M6698 6588c89,0 167,-6 232,-17 65,-11 119,-31 161,-59 43,-27 74,-65 95,-112 22,-48 32,-107 33,-178 -13,-5 -35,-10 -65,-18 -30,-8 -65,-17 -106,-28 -41,-11 -85,-23 -133,-35 -47,-13 -96,-26 -145,-40 -49,-13 -97,-26 -145,-38 -48,-12 -91,-23 -131,-33 -26,-65 -45,-128 -57,-189 -13,-62 -19,-122 -19,-180 0,-113 21,-219 62,-318 41,-100 100,-187 177,-261 76,-74 170,-133 281,-176 110,-43 234,-65 373,-65 49,0 98,5 147,12 48,8 103,20 165,37l-93 354c-46,-14 -86,-24 -121,-31 -34,-6 -69,-9 -105,-9 -74,0 -143,11 -206,32 -63,21 -118,51 -165,91 -47,41 -84,90 -111,148 -27,58 -40,124 -40,197 0,6 0,12 0,19 0,6 1,12 2,18l516 132c95,24 163,64 205,120 42,57 63,127 63,210 0,137 -15,254 -47,353 -31,99 -81,180 -150,245 -70,64 -160,111 -270,142 -111,32 -245,47 -403,47l-311 0c-80,0 -157,-9 -231,-28 -73,-19 -143,-46 -208,-80 -65,-35 -124,-78 -178,-127 -54,-49 -101,-106 -143,-169 -97,-157 -145,-341 -145,-552 0,-65 4,-129 13,-193 9,-64 23,-129 42,-196 19,-68 43,-138 73,-212 29,-74 64,-153 106,-238l327 157c-35,73 -64,139 -88,200 -24,60 -44,117 -60,171 -16,53 -28,105 -36,154 -7,50 -11,100 -11,150 0,142 32,263 95,362 45,75 106,132 184,171 78,40 165,60 260,60l311 0zm2085 -533c-6,135 -31,257 -75,366 -44,108 -105,201 -182,277 -78,76 -172,135 -282,176 -110,41 -234,62 -372,62l-183 0 0 -367 183 0c94,0 175,-10 244,-29 69,-20 125,-52 169,-95 45,-43 78,-99 99,-168 22,-69 33,-154 33,-253l0 -897 366 0 0 928zm-455 -1566l265 -268 271 271 -268 268 -268 -271zm1632 1656c-108,0 -201,-6 -278,-20 -78,-13 -143,-33 -196,-59 -53,-26 -96,-59 -128,-99 -31,-41 -56,-88 -73,-142 -16,-54 -27,-115 -32,-183 -6,-68 -9,-143 -9,-226l0 -1395 367 0 0 1395c0,78 3,141 8,188 6,47 20,84 43,110 23,26 58,43 104,52 47,8 111,12 194,12l0 367zm1057 -3c-180,0 -322,-47 -427,-140 -54,50 -114,86 -180,109 -66,23 -133,34 -203,34l-331 0 0 -367 331 0c12,0 29,-2 51,-6 22,-3 44,-13 66,-28 23,-15 42,-38 58,-68 17,-30 26,-72 26,-125l0 -5 0 -419 366 0 0 419c0,80 19,139 57,176 38,36 100,55 186,55 12,0 29,-2 51,-7 22,-4 44,-14 66,-30 23,-16 42,-39 58,-70 17,-31 26,-73 26,-124l0 -419 365 0 0 419c0,80 19,139 58,177 39,38 102,57 189,57 13,0 30,-3 52,-8 23,-6 44,-16 66,-33 21,-16 40,-40 56,-70 16,-30 24,-72 24,-123 0,-22 -2,-48 -6,-79 -3,-30 -7,-62 -13,-96 -5,-34 -12,-68 -18,-103 -7,-35 -14,-68 -21,-99 -7,-32 -14,-60 -20,-86 -6,-26 -11,-46 -15,-60l346 -114c2,7 6,23 12,47 6,25 13,55 21,92 8,36 17,76 26,121 8,44 16,88 24,133 8,44 14,88 18,131 5,42 8,80 8,113 0,99 -17,188 -50,263 -33,75 -75,137 -128,186 -54,50 -113,87 -180,112 -67,24 -134,37 -202,38 -183,0 -327,-48 -433,-144 -54,49 -113,86 -179,108 -65,22 -132,33 -201,33zm2396 817c-69,0 -136,-7 -200,-23 -64,-16 -124,-39 -180,-70 -55,-30 -107,-67 -154,-109 -47,-43 -89,-91 -124,-147 -15,-23 -30,-51 -45,-83 -15,-32 -28,-68 -40,-108 -12,-40 -22,-85 -30,-134 -8,-49 -12,-103 -12,-161 0,-48 3,-97 8,-148 5,-50 14,-104 28,-161 13,-57 33,-119 57,-185 25,-66 57,-140 96,-222l331 158c-29,61 -54,117 -74,168 -20,50 -36,97 -48,142 -12,45 -20,88 -26,128 -5,40 -8,80 -8,122 0,56 6,108 18,157 13,48 31,92 56,131l-2 -1c38,53 87,96 150,129 62,34 129,51 199,51l68 0c103,0 187,-11 253,-33 65,-21 116,-52 153,-91 37,-39 61,-87 75,-143 13,-56 20,-118 20,-187l0 -2118 362 0 0 2118c0,545 -288,818 -863,820l-68 0zm2080 -814c-108,0 -201,-6 -278,-20 -78,-13 -143,-33 -196,-59 -53,-26 -96,-59 -128,-99 -32,-41 -56,-88 -73,-142 -16,-54 -27,-115 -33,-183 -5,-68 -8,-143 -8,-226l0 -1395 367 0 0 1395c0,78 3,141 8,188 6,47 20,84 43,110 22,26 58,43 104,52 47,8 111,12 194,12l0 367zm1857 0l-557 0c-19,0 -39,-2 -62,-6 -23,-4 -48,-12 -79,-24 -29,-11 -63,-28 -102,-51 -38,-23 -82,-52 -133,-90 -58,28 -125,53 -200,74 -76,21 -156,39 -241,53 -86,15 -175,26 -269,33 -94,7 -189,11 -285,11l0 -367c66,0 131,-1 195,-4 63,-3 124,-8 182,-13 57,-5 110,-12 160,-20 50,-9 94,-18 133,-29 -83,-74 -158,-139 -226,-195 -67,-57 -120,-104 -158,-144l-42 -41 0 -80c0,-20 1,-43 3,-68 3,-25 7,-51 15,-78 7,-27 17,-54 30,-81 12,-27 30,-53 53,-79 42,-47 94,-82 155,-105 61,-23 137,-35 226,-35l516 0c44,0 87,6 130,18 42,11 82,28 119,50 36,21 68,48 97,79 29,30 52,66 69,103 11,26 19,54 26,86 6,32 9,60 9,86 0,23 -5,48 -15,73 -9,25 -28,57 -56,95 -27,38 -66,84 -115,140 -49,55 -114,125 -193,210 10,5 21,9 34,12 15,4 28,7 42,9 14,3 26,5 37,7 12,2 19,3 22,4l1 0 479 0 0 367zm-1231 -997c-30,0 -53,2 -70,7 -18,5 -30,9 -38,14l422 424c32,-28 67,-59 105,-92 38,-34 73,-69 106,-103 33,-35 60,-69 82,-102 22,-33 34,-62 36,-88 1,-15 -5,-28 -21,-41 -14,-13 -33,-19 -55,-19l-567 0zm1160 997l0 -367 601 0c82,0 151,-5 207,-14 56,-9 102,-21 136,-36 35,-14 62,-31 79,-49 18,-18 31,-37 38,-56 -130,18 -248,20 -352,6 -103,-14 -192,-44 -265,-89 -72,-44 -128,-104 -167,-179 -39,-74 -58,-164 -58,-267 0,-83 15,-161 46,-234 30,-73 73,-137 127,-191 55,-55 119,-98 193,-128 74,-32 156,-45 244,-41 78,3 148,16 208,41 61,24 113,57 158,97 45,40 82,87 112,141 30,53 54,111 72,173 18,62 31,126 40,193 8,68 13,135 13,203l-5 109c-8,138 -36,251 -83,340 -47,88 -108,158 -183,210 -75,52 -161,88 -257,108 -96,20 -197,30 -303,30l-601 0zm826 -1278c-36,-3 -70,-1 -103,8 -34,8 -63,22 -88,41 -25,20 -45,45 -60,73 -15,30 -23,63 -23,101 0,86 45,147 135,185 89,38 219,43 388,16 -2,-42 -6,-87 -10,-134 -5,-47 -16,-91 -33,-133 -17,-41 -41,-76 -74,-105 -32,-29 -76,-46 -132,-52zm-311 -936l265 -267 271 271 -268 268 -268 -272z"/>
  </g>
 </g>
</svg>
