<?xml version="1.0" encoding="UTF-8"?>
<!DOCTYPE svg PUBLIC "-//W3C//DTD SVG 1.1//EN" "http://www.w3.org/Graphics/SVG/1.1/DTD/svg11.dtd">
<!-- Creator: CorelDRAW X7 -->
<svg xmlns="http://www.w3.org/2000/svg" xml:space="preserve" width="7.61134in" height="5.90551in" version="1.1" style="shape-rendering:geometricPrecision; text-rendering:geometricPrecision; image-rendering:optimizeQuality; fill-rule:evenodd; clip-rule:evenodd"
viewBox="0 0 76113 59055"
 xmlns:xlink="http://www.w3.org/1999/xlink">
 <defs>
  <style type="text/css">
   <![CDATA[
    .fil1 {fill:#E4CFA9}
    .fil3 {fill:#E7D5B4}
    .fil2 {fill:#EDDFC4}
    .fil0 {fill:#F7F1E5}
   ]]>
  </style>
 </defs>
 <g id="Layer_x0020_1">
  <metadata id="CorelCorpID_0Corel-Layer"/>
  <g id="_3027804139008">
   <path class="fil0" d="M15147 45814c-4663,1615 -9992,1673 -15147,311l0 4694 0 3515c4491,2098 9904,3958 14837,4543 10202,1210 15814,-3788 16548,-13840 112,-1533 107,-3092 38,-4624 -11,-239 -21,-475 -30,-707 -1445,223 -2973,244 -4551,98 -871,-81 -1758,-213 -2654,-390 -1283,1668 -2832,3097 -4622,4258 -1342,869 -2818,1588 -4419,2142z"/>
   <g>
    <path class="fil1" d="M0 8414c1838,438 4112,1530 7187,3498 1080,691 2258,1489 3551,2405 6552,4641 14561,5906 20900,3295 516,-213 1015,-448 1496,-705 6358,-3396 7724,-10544 9439,-16907l29427 0c5974,6476 5561,14940 -2030,17762 -9250,816 -12296,-3284 -19251,-5096 -4458,-1161 -7604,678 -9706,7977 -2405,8353 -6985,13840 -13359,15387 -12048,2923 -19691,-5594 -27654,-11368l0 -16248z"/>
    <path class="fil2" d="M0 8414l0 -8414 42573 0c-2157,8006 -1849,14257 -10802,17943 -6339,2611 -14481,1015 -21033,-3626 -3012,-2134 -7236,-5067 -10738,-5903z"/>
    <path class="fil2" d="M0 19496c2020,1212 4485,3181 7702,6150 1988,1835 4192,3314 6494,4400 4530,2137 9441,2756 13848,1596 1394,-367 2698,-899 3901,-1584 3852,-2194 6669,-5964 8104,-10946 1553,-5396 3672,-8558 6477,-9669 898,-356 1848,-488 2837,-449 6961,274 9645,8422 20607,8768 -8104,3012 -19279,-2304 -24665,932 -3727,2239 -2997,6621 -3182,11263 -107,2669 -752,5028 -1823,7004 -7684,14183 -30411,1862 -40300,-6694l0 -10771z"/>
   </g>
   <path class="fil3" d="M21447 42280c-8023,-2308 -16404,-7650 -21447,-12013l0 15858c7251,1915 15557,1113 21447,-3845z"/>
  </g>
 </g>
</svg>
