<?xml version="1.0" encoding="UTF-8"?>
<!DOCTYPE svg PUBLIC "-//W3C//DTD SVG 1.1//EN" "http://www.w3.org/Graphics/SVG/1.1/DTD/svg11.dtd">
<!-- Creator: CorelDRAW X7 -->
<svg xmlns="http://www.w3.org/2000/svg" xml:space="preserve" width="7.61134in" height="5.90551in" version="1.1" style="shape-rendering:geometricPrecision; text-rendering:geometricPrecision; image-rendering:optimizeQuality; fill-rule:evenodd; clip-rule:evenodd"
viewBox="0 0 76113 59055"
 xmlns:xlink="http://www.w3.org/1999/xlink">
 <defs>
  <style type="text/css">
   <![CDATA[
    .fil4 {fill:#D7B67C}
    .fil3 {fill:#D7BF93}
    .fil5 {fill:#E2CBA3}
    .fil1 {fill:#E4CFA9}
    .fil6 {fill:#E7D5B4}
    .fil2 {fill:#EDDFC4}
    .fil0 {fill:#F7F1E5}
    .fil11 {fill:#E0C99F;fill-rule:nonzero}
    .fil8 {fill:#E4CFAA;fill-rule:nonzero}
    .fil7 {fill:#EBDBBE;fill-rule:nonzero}
    .fil10 {fill:#EDDFC4;fill-rule:nonzero}
    .fil9 {fill:#F2E8D4;fill-rule:nonzero}
   ]]>
  </style>
 </defs>
 <g id="Layer_x0020_1">
  <metadata id="CorelCorpID_0Corel-Layer"/>
  <g id="_3027845122864">
   <path class="fil0" d="M15147 45814c-4663,1615 -9992,1673 -15147,311l0 4694 0 3515c4491,2098 9904,3958 14837,4543 10202,1210 15814,-3788 16548,-13840 112,-1533 107,-3092 38,-4624 -11,-239 -21,-475 -30,-707 -1445,223 -2973,244 -4551,98 -871,-81 -1758,-213 -2654,-390 -1283,1668 -2832,3097 -4622,4258 -1342,869 -2818,1588 -4419,2142z"/>
   <g>
    <path class="fil1" d="M0 8414c1838,438 4112,1530 7187,3498 1080,691 2258,1489 3551,2405 6552,4641 14561,5906 20900,3295 516,-213 1015,-448 1496,-705 6358,-3396 7724,-10544 9439,-16907l29427 0c5974,6476 5561,14940 -2030,17762 -9250,816 -12296,-3284 -19251,-5096 -4458,-1161 -7604,678 -9706,7977 -2405,8353 -6985,13840 -13359,15387 -12048,2923 -19691,-5594 -27654,-11368l0 -16248z"/>
    <path class="fil2" d="M0 8414l0 -8414 42573 0c-2157,8006 -1849,14257 -10802,17943 -6339,2611 -14481,1015 -21033,-3626 -3012,-2134 -7236,-5067 -10738,-5903z"/>
    <path class="fil2" d="M0 19496c2020,1212 4485,3181 7702,6150 1988,1835 4192,3314 6494,4400 4530,2137 9441,2756 13848,1596 1394,-367 2698,-899 3901,-1584 3852,-2194 6669,-5964 8104,-10946 1553,-5396 3672,-8558 6477,-9669 898,-356 1848,-488 2837,-449 6961,274 9645,8422 20607,8768 -8104,3012 -19279,-2304 -24665,932 -3727,2239 -2997,6621 -3182,11263 -107,2669 -752,5028 -1823,7004 -7684,14183 -30411,1862 -40300,-6694l0 -10771z"/>
   </g>
   <g>
    <path class="fil2" d="M70760 8719c0,-2604 -2111,-4715 -4715,-4715 -2604,0 -4715,2111 -4715,4715 0,2604 2111,4715 4715,4715 2604,0 4715,-2111 4715,-4715z"/>
    <path class="fil3" d="M63433 8422c0,2467 1895,4491 4308,4698 -526,203 -1098,314 -1696,314 -2604,0 -4715,-2111 -4715,-4715 0,-2604 2111,-4715 4715,-4715 137,0 273,6 407,17 -1766,681 -3019,2395 -3019,4401z"/>
    <path class="fil4" d="M63376 6494l5338 0 -890 890 -4448 0 0 -890zm0 3560l3558 0 0 888 -3558 0 0 -888zm0 -1781l5338 0 0 2669 -890 0 0 -1779 -4448 0 0 -890z"/>
   </g>
   <path class="fil5" d="M59853 23315c497,17 896,425 899,931l8 0c4,-506 403,-914 899,-931 -499,-16 -899,-428 -899,-936l-7 0c0,508 -400,920 -900,936z"/>
   <path class="fil6" d="M21447 42280c-8023,-2308 -16404,-7650 -21447,-12013l0 15858c7251,1915 15557,1113 21447,-3845z"/>
   <path class="fil0" d="M6048 41976c781,25 1408,667 1412,1461l13 0c6,-794 632,-1436 1412,-1461 -784,-25 -1412,-673 -1412,-1472l-11 0c0,799 -629,1447 -1414,1472z"/>
   <g>
    <path class="fil7" d="M17840 50377c0,-1238 1004,-2242 2242,-2242 1238,0 2241,1004 2241,2242 0,1238 -1003,2241 -2241,2241 -1238,0 -2242,-1003 -2242,-2241z"/>
    <path class="fil8" d="M17890 49909c215,-1014 1115,-1774 2192,-1774 1238,0 2241,1004 2241,2242 0,283 -53,555 -149,805 -358,-102 -899,-283 -1705,-583 -1181,-441 -1996,-638 -2579,-690z"/>
    <path class="fil9" d="M20082 52618c-911,0 -1694,-543 -2045,-1323 343,-12 726,-45 1132,-116 999,-175 2021,319 2599,674 -411,469 -1014,765 -1686,765z"/>
    <path class="fil10" d="M22306 50097c-716,-81 -1475,-272 -2171,-658 -618,-343 -1108,-594 -1495,-778 390,-328 893,-526 1442,-526 1143,0 2086,856 2224,1962z"/>
    <path class="fil11" d="M19145 51891c1134,0 2053,-919 2053,-2053 0,-702 -352,-1321 -888,-1691 1131,114 2013,1069 2013,2230 0,1238 -1003,2241 -2241,2241 -745,0 -1405,-363 -1812,-922 265,125 562,195 875,195z"/>
   </g>
  </g>
 </g>
</svg>
