<?xml version="1.0" encoding="UTF-8"?>
<!DOCTYPE svg PUBLIC "-//W3C//DTD SVG 1.1//EN" "http://www.w3.org/Graphics/SVG/1.1/DTD/svg11.dtd">
<!-- Creator: CorelDRAW X7 -->
<svg xmlns="http://www.w3.org/2000/svg" xml:space="preserve" width="5.75094in" height="4.95815in" version="1.1" style="shape-rendering:geometricPrecision; text-rendering:geometricPrecision; image-rendering:optimizeQuality; fill-rule:evenodd; clip-rule:evenodd"
viewBox="0 0 57509 49581"
 xmlns:xlink="http://www.w3.org/1999/xlink">
 <defs>
  <style type="text/css">
   <![CDATA[
    .fil20 {fill:#536896}
    .fil21 {fill:#7B93C9}
    .fil16 {fill:#8480BC}
    .fil13 {fill:#9F9CCB}
    .fil22 {fill:#AFBEE1}
    .fil11 {fill:#BBB8DA}
    .fil18 {fill:#BFA36F}
    .fil15 {fill:#D2AE6D}
    .fil17 {fill:#D7B67C}
    .fil23 {fill:#E2CBA3}
    .fil12 {fill:#E9EDF7}
    .fil24 {fill:#F7F1E5}
    .fil19 {fill:#F9FAFC}
    .fil9 {fill:#7B93C9;fill-rule:nonzero}
    .fil1 {fill:#8480BC;fill-rule:nonzero}
    .fil8 {fill:#9DB0D9;fill-rule:nonzero}
    .fil2 {fill:#9F9CCB;fill-rule:nonzero}
    .fil4 {fill:#A38755;fill-rule:nonzero}
    .fil10 {fill:#AFBEE1;fill-rule:nonzero}
    .fil0 {fill:#BBB8DA;fill-rule:nonzero}
    .fil5 {fill:#D2AE6D;fill-rule:nonzero}
    .fil3 {fill:#D7B67C;fill-rule:nonzero}
    .fil6 {fill:#DFC596;fill-rule:nonzero}
    .fil29 {fill:#E0C99F;fill-rule:nonzero}
    .fil26 {fill:#E4CFAA;fill-rule:nonzero}
    .fil30 {fill:#E9EDF7;fill-rule:nonzero}
    .fil25 {fill:#EBDBBE;fill-rule:nonzero}
    .fil28 {fill:#EDDFC4;fill-rule:nonzero}
    .fil7 {fill:#EFF2FA;fill-rule:nonzero}
    .fil27 {fill:#F2E8D4;fill-rule:nonzero}
    .fil14 {fill:#F9FAFC;fill-rule:nonzero}
   ]]>
  </style>
 </defs>
 <g id="Layer_x0020_1">
  <metadata id="CorelCorpID_0Corel-Layer"/>
  <g id="_3027852411696">
   <g>
    <path class="fil0" d="M49210 22129l-1 662c-1,272 -180,545 -538,752 -719,418 -1890,418 -2614,0 -364,-210 -546,-486 -545,-762l1 -662c0,276 182,552 546,762 724,418 1895,418 2614,0 358,-207 537,-479 537,-752z"/>
    <path class="fil1" d="M48665 21367c724,418 727,1096 8,1514 -720,419 -1890,419 -2614,0 -724,-418 -728,-1095 -8,-1514 719,-418 1890,-418 2614,0z"/>
    <path class="fil2" d="M49210 21284l-1 662c-1,272 -180,544 -538,752 -719,418 -1890,418 -2614,0 -364,-210 -546,-486 -545,-762l1 -662c0,276 182,552 546,762 724,418 1895,418 2614,0 358,-208 537,-479 537,-752z"/>
    <path class="fil1" d="M48665 20522c724,418 727,1096 8,1514 -720,418 -1890,418 -2614,0 -724,-418 -728,-1096 -8,-1514 719,-418 1890,-418 2614,0z"/>
    <path class="fil0" d="M49210 20439l-1 662c-1,272 -180,544 -538,752 -719,418 -1890,418 -2614,0 -364,-211 -546,-487 -545,-762l1 -662c0,276 182,552 546,762 724,418 1895,418 2614,0 358,-208 537,-480 537,-752z"/>
    <path class="fil1" d="M48665 19676c724,419 727,1097 8,1515 -720,418 -1890,418 -2614,0 -724,-418 -728,-1096 -8,-1514 719,-418 1890,-419 2614,-1z"/>
    <path class="fil2" d="M49210 19594l-1 662c-1,272 -180,544 -538,752 -719,418 -1890,418 -2614,0 -364,-211 -546,-487 -545,-762l1 -662c0,275 182,551 546,762 724,418 1895,418 2614,0 358,-208 537,-480 537,-752z"/>
    <path class="fil1" d="M48665 18831c724,419 727,1097 8,1515 -720,418 -1890,418 -2614,0 -724,-418 -728,-1096 -8,-1514 719,-418 1890,-419 2614,-1z"/>
    <path class="fil0" d="M49210 18749l-1 661c-1,273 -180,545 -538,752 -719,419 -1890,419 -2614,0 -364,-210 -546,-486 -545,-762l1 -661c0,275 182,551 546,762 724,418 1895,418 2614,0 358,-208 537,-480 537,-752z"/>
    <path class="fil1" d="M48665 17986c724,418 727,1097 8,1515 -720,418 -1890,418 -2614,0 -724,-418 -728,-1096 -8,-1514 719,-418 1890,-419 2614,-1z"/>
    <path class="fil2" d="M49210 17903l-1 662c-1,273 -180,545 -538,752 -719,419 -1890,419 -2614,0 -364,-210 -546,-486 -545,-762l1 -662c0,276 182,552 546,762 724,419 1895,419 2614,0 358,-207 537,-479 537,-752z"/>
    <path class="fil1" d="M48665 17141c724,418 727,1096 8,1514 -720,419 -1890,419 -2614,0 -724,-418 -728,-1096 -8,-1514 719,-418 1890,-418 2614,0z"/>
    <path class="fil0" d="M49210 17058l-1 662c-1,272 -180,544 -538,752 -719,418 -1890,418 -2614,0 -364,-210 -546,-486 -545,-762l1 -662c0,276 182,552 546,762 724,418 1895,418 2614,0 358,-207 537,-479 537,-752z"/>
    <path class="fil1" d="M48665 16296c724,418 727,1096 8,1514 -720,419 -1890,419 -2614,0 -724,-418 -728,-1096 -8,-1514 719,-418 1890,-418 2614,0z"/>
    <path class="fil2" d="M49210 16213l-1 662c-1,272 -180,544 -538,752 -719,418 -1890,418 -2614,0 -364,-210 -546,-486 -545,-762l1 -662c0,276 182,552 546,762 724,418 1895,418 2614,0 358,-208 537,-480 537,-752z"/>
    <path class="fil0" d="M48665 15451c724,418 727,1096 8,1514 -720,418 -1890,418 -2614,0 -724,-418 -728,-1096 -8,-1514 719,-418 1890,-418 2614,0z"/>
    <path class="fil3" d="M45973 24030l-2 662c-1,272 -180,544 -537,752 -720,418 -1890,418 -2615,0 -364,-210 -546,-486 -545,-762l2 -662c-1,276 181,552 545,762 725,418 1895,418 2615,0 357,-208 536,-480 537,-752z"/>
    <path class="fil4" d="M45427 23268c725,418 728,1096 9,1514 -720,418 -1890,418 -2615,0 -723,-418 -727,-1096 -7,-1514 718,-418 1890,-418 2613,0z"/>
    <path class="fil5" d="M45973 23185l-2 662c-1,272 -180,544 -537,752 -720,418 -1890,418 -2615,0 -364,-210 -546,-486 -545,-762l2 -662c-1,276 181,552 545,762 725,418 1895,418 2615,0 357,-208 536,-480 537,-752z"/>
    <path class="fil4" d="M45427 22422c725,419 728,1097 9,1515 -720,418 -1890,418 -2615,0 -723,-418 -727,-1096 -7,-1514 718,-418 1890,-418 2613,-1z"/>
    <path class="fil3" d="M45973 22340l-2 662c-1,272 -180,544 -537,752 -720,418 -1890,418 -2615,0 -364,-211 -546,-487 -545,-762l2 -662c-1,275 181,551 545,762 725,418 1895,418 2615,0 357,-208 536,-480 537,-752z"/>
    <path class="fil4" d="M45427 21577c725,419 728,1097 9,1515 -720,418 -1890,418 -2615,0 -723,-418 -727,-1096 -7,-1514 718,-418 1890,-419 2613,-1z"/>
    <path class="fil5" d="M45973 21495l-2 662c-1,272 -180,544 -537,751 -720,419 -1890,419 -2615,0 -364,-210 -546,-486 -545,-762l2 -661c-1,275 181,551 545,762 725,418 1895,418 2615,0 357,-208 536,-480 537,-752z"/>
    <path class="fil4" d="M45427 20732c725,418 728,1097 9,1515 -720,418 -1890,418 -2615,0 -723,-418 -727,-1096 -7,-1514 718,-418 1890,-419 2613,-1z"/>
    <path class="fil3" d="M45973 20649l-2 662c-1,273 -180,545 -537,752 -720,419 -1890,419 -2615,0 -364,-210 -546,-486 -545,-762l2 -662c-1,276 181,552 545,763 725,418 1895,418 2615,0 357,-208 536,-480 537,-753z"/>
    <path class="fil4" d="M45427 19887c725,418 728,1096 9,1514 -720,419 -1890,419 -2615,0 -723,-418 -727,-1095 -7,-1514 718,-418 1890,-418 2613,0z"/>
    <path class="fil5" d="M45973 19804l-2 662c-1,273 -180,545 -537,752 -720,418 -1890,418 -2615,0 -364,-210 -546,-486 -545,-762l2 -662c-1,276 181,552 545,762 725,419 1895,419 2615,0 357,-207 536,-479 537,-752z"/>
    <path class="fil6" d="M45427 19042c725,418 728,1096 9,1514 -720,419 -1890,419 -2615,0 -723,-418 -727,-1096 -7,-1514 718,-418 1890,-418 2613,0z"/>
   </g>
   <g>
    <polygon class="fil7" points="54564,26196 56391,25134 51587,22360 42784,27476 49426,31310 56402,27257 "/>
    <polygon class="fil8" points="49426,31310 49425,31664 42783,27829 42784,27476 "/>
    <path class="fil9" d="M54666 25718l-539 313 -1379 -796 -511 297 1379 797 -449 260 -1379 -796 -558 324 1379 797 -447 259 -1379 -796 -546 317 5 819 1094 632c28,16 29,43 0,59l-1023 595 446 257 -519 302 -1140 -658 519 -302 592 341 972 -564 -1043 -603 -1502 1 -5 -871 -1056 -609 -972 565 518 299 -519 302 -518 -300 -760 442 518 299 -519 302 -1138 -658 519 -302 518 300 759 -442 -518 -299 519 -302 519 300 1022 -595c29,-16 75,-16 104,0l1106 639 1388 0 559 -324 -1366 -789 447 -260 1366 789 558 -325 -1365 -788 448 -260 1365 788 512 -297 -1366 -789 539 -313 2846 1643z"/>
    <polygon class="fil10" points="56391,25134 56402,27257 54564,26196 "/>
    <polygon class="fil10" points="56402,27257 56401,27610 49425,31664 49426,31310 "/>
   </g>
   <g>
    <g>
     <path class="fil11" d="M1947 14984l0 3 0 3c0,64 4,125 7,186l0 0 61 -35c2,30 2,60 4,88l0 0 61 -34c1,29 2,59 3,88l0 0 62 -34c1,29 1,59 3,87l0 0 61 -34c2,29 2,59 4,88l0 0 61 -34c1,29 1,59 3,88l0 0 61 -35c2,29 2,59 4,88l0 0 61 -34c1,29 2,59 3,88l0 0 62 -35c1,30 1,60 3,88l0 0 61 -34c2,29 2,59 4,88l0 0 9245 -5180c5,-67 8,-134 8,-201l0 0c0,-631 -193,-1094 -503,-1331l0 0c-21,-19 -43,-36 -65,-53l0 0c-21,-19 -43,-37 -65,-54l0 0c-21,-19 -42,-37 -64,-53l0 0c-21,-19 -43,-37 -65,-54l0 0c-21,-19 -43,-37 -65,-54l0 0c-20,-19 -42,-36 -64,-53l0 0c-21,-19 -43,-37 -65,-54l0 0c-21,-19 -42,-36 -65,-53l0 0c-298,-274 -725,-316 -1201,-65l0 0c-130,-285 -302,-512 -508,-674l0 0c-21,-19 -43,-36 -65,-54l0 0c-21,-18 -42,-36 -64,-53l0 0c-21,-19 -43,-36 -65,-54l0 0c-21,-18 -42,-36 -64,-53l0 0c-21,-19 -43,-37 -65,-54l0 0c-21,-19 -43,-36 -65,-53l0 0c-21,-19 -42,-37 -64,-54l0 0c-21,-19 -43,-36 -65,-54l0 0c-256,-227 -570,-348 -923,-348l0 0c-314,0 -658,96 -1019,299l0 0c-1201,672 -2215,2314 -2541,3967l0 0c-71,29 -142,63 -215,103l0 0c-1048,587 -1897,2205 -1897,3613z"/>
     <path class="fil12" d="M7181 7783c-1201,673 -2214,2314 -2540,3968 -71,28 -142,62 -215,102 -1048,588 -1898,2205 -1898,3613 0,36 1,70 3,105l1 -1c2,28 2,57 3,85 1,0 1,1 1,2 0,0 0,1 0,1l9245 -5180c5,-67 8,-134 8,-201 0,-631 -193,-1094 -503,-1331 -2,-1 -3,-2 -4,-2 -303,-230 -719,-243 -1178,14 -111,62 -219,138 -324,224 -44,-273 -117,-517 -213,-729 -130,-285 -302,-512 -508,-674 -3,-3 -6,-5 -9,-8 -479,-371 -1139,-397 -1869,12z"/>
    </g>
    <g>
     <path class="fil13" d="M15165 2973l0 -5c0,-391 -119,-678 -311,-824l0 0c-13,-12 -27,-23 -40,-33l0 0c-13,-12 -27,-23 -40,-33l0 0c-13,-12 -27,-23 -40,-33l0 0c-13,-12 -27,-23 -40,-34l0 0c-13,-11 -27,-22 -40,-33l0 0c-13,-11 -27,-22 -40,-33l0 0c-13,-12 -27,-23 -40,-33l0 0c-13,-12 -27,-23 -40,-33l0 0c-185,-169 -449,-195 -744,-40l0 0c-80,-176 -186,-317 -314,-417l0 0c-13,-12 -26,-23 -40,-33l0 0c-13,-12 -26,-23 -40,-33l0 0c-13,-12 -26,-23 -40,-34l0 0c-13,-11 -26,-22 -40,-33l0 0c-13,-11 -26,-22 -40,-33l0 0c-13,-11 -26,-22 -40,-33l0 0c-13,-12 -26,-23 -40,-33l0 0c-13,-12 -26,-23 -40,-33l0 0c-158,-141 -353,-216 -571,-216 -194,0 -407,60 -630,185l0 0c-743,416 -1371,1431 -1572,2455l0 0c-44,18 -88,38 -133,63l0 0c-649,364 -1174,1364 -1174,2235l0 0c0,41 2,80 4,119l0 0 38 -21c1,18 1,36 2,54l0 0 38 -21c1,18 1,37 2,54l0 0 38 -21c1,18 1,37 2,55l0 0 38 -22c1,18 1,37 2,55l0 0 38 -22c1,19 1,37 2,55l0 0 38 -21c1,18 1,36 2,54l0 0 38 -21c1,18 1,36 2,54l0 0 38 -21c1,18 1,37 2,54l0 0 38 -21c1,18 1,37 2,54l0 0 5720 -3204c3,-40 5,-80 5,-119z"/>
     <path class="fil14" d="M9440 6296c-2,-39 -4,-77 -4,-118 0,-871 525,-1872 1174,-2235 45,-26 89,-46 132,-64 202,-1023 829,-2039 1572,-2455 795,-445 1457,-57 1608,866 65,-53 132,-100 201,-139 575,-322 1042,43 1042,817 0,41 -2,82 -5,124l-5720 3204z"/>
    </g>
    <g>
     <path class="fil11" d="M3780 1261l0 -3c0,-243 -74,-420 -193,-511l0 0c-8,-8 -16,-14 -25,-21l0 0c-8,-7 -16,-14 -25,-20l0 0c-8,-8 -16,-15 -25,-21l0 0c-8,-7 -16,-14 -24,-21l0 0c-8,-7 -17,-14 -25,-20l0 0c-8,-8 -17,-14 -25,-21l0 0c-8,-7 -16,-14 -25,-20l0 0c-8,-8 -16,-15 -25,-21l0 0c-114,-105 -278,-121 -461,-25l0 0c-50,-109 -116,-196 -195,-259l0 0c-8,-7 -17,-14 -25,-20l0 0c-8,-7 -16,-14 -25,-21l0 0c-8,-7 -16,-14 -25,-20l0 0c-8,-8 -16,-14 -24,-21l0 0c-9,-7 -17,-14 -25,-21l0 0c-8,-7 -17,-14 -25,-20l0 0c-8,-7 -17,-14 -25,-21l0 0c-8,-7 -16,-14 -25,-20l0 0c-98,-88 -219,-134 -354,-134 -121,0 -253,37 -392,114l0 0c-461,259 -850,889 -976,1525l0 0c-27,11 -54,23 -82,39l0 0c-403,226 -729,847 -729,1388l0 0c0,25 1,49 3,73l0 0 23 -13c1,11 1,23 2,34l0 0 23 -13c1,11 1,22 1,34l0 0 24 -14c0,12 1,23 1,34l0 0 24 -13c0,11 0,23 1,34l0 0 24 -13c0,11 0,22 1,33l0 0 23 -13c1,11 1,23 2,34l0 0 23 -13c1,11 1,22 2,33l0 0 23 -13c1,11 1,23 1,34l0 0 24 -13c0,11 1,23 1,34l0 0 3551 -1990c2,-25 3,-49 3,-74z"/>
     <path class="fil14" d="M226 3325c-1,-25 -3,-49 -3,-74 0,-541 327,-1162 729,-1388 28,-15 56,-28 83,-39 125,-635 514,-1266 976,-1524 493,-277 904,-36 998,537 40,-33 82,-62 124,-86 358,-200 647,27 647,507 0,25 -1,51 -3,77l-3551 1990z"/>
    </g>
   </g>
   <g>
    <g>
     <path class="fil15" d="M38967 19112c174,101 174,264 2,365 -86,50 -200,75 -313,75 -85,0 -170,-14 -244,-42 -25,-10 -49,-21 -71,-34 -2,-1 -3,-1 -4,-2 -170,-100 -170,-262 1,-361 173,-101 455,-101 629,-1zm-314 -112c-131,0 -261,29 -360,87 -196,114 -195,299 0,413 1,1 2,2 3,2 22,13 46,24 71,34 198,80 471,68 647,-33 197,-115 196,-302 -2,-417 -99,-57 -229,-86 -359,-86z"/>
     <path class="fil15" d="M39079 19047c236,136 237,358 2,495 -116,68 -270,102 -425,102 -125,0 -251,-23 -357,-68 -25,-10 -48,-22 -71,-35 0,0 -1,-1 -2,-2 -233,-136 -233,-356 0,-491 234,-137 617,-137 853,-1zm-826 556c262,114 637,102 874,-35 259,-151 258,-396 -3,-547 -131,-75 -301,-113 -472,-113 -171,0 -341,38 -471,114 -258,149 -259,394 -1,544 1,1 2,1 3,2 22,13 45,24 70,35z"/>
     <path class="fil15" d="M39175 18991c291,168 292,441 4,608 -144,84 -333,125 -523,125 -161,0 -323,-30 -457,-90 -24,-11 -47,-23 -69,-35 -1,-1 -2,-1 -3,-2 -287,-167 -288,-439 -1,-606 288,-167 759,-167 1049,0zm-1021 669c317,146 780,134 1070,-35 313,-182 311,-478 -4,-660 -158,-91 -364,-136 -570,-136 -206,0 -412,45 -569,136 -312,181 -311,476 1,658 1,1 2,1 3,2 22,12 45,24 69,35z"/>
     <path class="fil15" d="M40154 19724c-72,0 -144,-14 -203,-41 -11,-5 -22,-10 -32,-16 -13,-7 -25,-15 -35,-24 -93,-75 -82,-180 34,-247 128,-75 339,-75 468,0 130,75 130,197 2,272 -64,37 -149,56 -234,56zm-270 -347c-134,78 -145,200 -34,286 11,8 23,16 36,24 10,6 20,11 31,16 149,69 367,64 504,-16 148,-85 147,-225 -1,-311 -74,-42 -171,-63 -268,-63 -97,0 -195,21 -268,64z"/>
     <path class="fil15" d="M40155 19792c-103,0 -205,-20 -289,-60 -10,-5 -21,-10 -31,-16 -13,-8 -25,-15 -36,-24 -138,-102 -127,-250 34,-344 176,-102 461,-102 637,-1 176,102 177,267 2,369 -87,51 -202,76 -317,76zm-323 -40c197,96 490,90 674,-16 193,-113 192,-296 -3,-408 -97,-56 -224,-84 -352,-84 -127,0 -254,28 -351,84 -181,105 -192,271 -35,384 11,8 23,16 36,24 10,5 21,11 31,16z"/>
     <path class="fil15" d="M40154 19853c-128,0 -257,-26 -361,-78 -11,-5 -21,-11 -31,-16 -13,-8 -25,-16 -37,-24 -179,-125 -168,-312 34,-430 215,-124 566,-124 783,0 216,126 217,329 3,454 -108,62 -249,94 -391,94zm-395 -58c237,119 596,113 819,-17 234,-135 232,-356 -3,-492 -117,-68 -271,-102 -425,-102 -154,0 -308,34 -424,102 -221,128 -232,333 -34,469 11,8 23,16 36,23 10,6 21,11 31,17z"/>
     <path class="fil15" d="M38732 21252c-13,-8 -25,-16 -36,-25 -92,-75 -80,-179 35,-246 129,-75 339,-75 469,-1 130,76 130,197 1,272 -64,38 -149,56 -233,56 -73,0 -145,-13 -205,-41 -11,-4 -21,-10 -31,-15zm501 -291c-74,-43 -171,-64 -268,-64 -97,0 -194,21 -268,64 -134,78 -145,200 -35,286 11,8 24,17 37,24 10,6 20,11 30,16 149,70 368,65 506,-15 147,-86 146,-225 -2,-311z"/>
     <path class="fil15" d="M38612 21276c-138,-102 -126,-250 35,-344 175,-102 461,-102 636,0 176,102 178,267 2,369 -87,51 -202,76 -317,76 -102,0 -205,-20 -289,-61 -10,-5 -20,-10 -30,-16 -13,-7 -26,-15 -37,-24zm1 -363c-180,104 -192,270 -35,383 11,9 24,17 37,24 10,6 20,11 30,16 196,97 491,91 674,-16 194,-112 193,-295 -2,-408 -97,-56 -225,-84 -352,-84 -127,0 -255,28 -352,85z"/>
     <path class="fil15" d="M38538 21320c-178,-126 -167,-313 35,-430 214,-125 566,-125 782,0 217,125 218,329 3,454 -107,62 -249,93 -390,93 -129,0 -259,-26 -363,-78 -10,-5 -20,-10 -30,-16 -13,-7 -25,-15 -37,-23zm1 -449c-220,128 -231,332 -34,468 11,8 24,16 37,24 10,5 20,11 30,16 237,119 596,114 820,-16 233,-136 232,-356 -4,-492 -117,-68 -271,-102 -425,-102 -154,0 -307,34 -424,102z"/>
     <path class="fil15" d="M34374 29084c-143,0 -286,-32 -395,-95 -187,-108 -214,-274 -80,-398l-56 -34c-166,143 -138,339 80,465 249,143 651,144 898,0 247,-143 246,-377 -3,-521 -123,-71 -286,-107 -448,-107 -151,0 -301,31 -420,92l54 34c218,-111 550,-106 758,14 218,126 219,330 3,456 -108,62 -250,94 -391,94z"/>
     <path class="fil15" d="M34374 29199c-193,0 -387,-43 -535,-128 -266,-154 -293,-395 -80,-565l-56 -34c-245,189 -219,460 79,632 327,188 857,188 1180,0 325,-189 323,-495 -4,-684 -162,-94 -376,-141 -589,-141 -199,0 -399,41 -556,123l54 34c296,-153 751,-147 1035,17 296,170 297,448 4,618 -146,85 -339,128 -532,128z"/>
     <path class="fil15" d="M34374 29300c-238,0 -476,-53 -658,-158 -336,-193 -362,-500 -79,-711l-55 -34c-316,229 -290,566 78,778 394,228 1033,228 1424,0 391,-227 389,-597 -5,-825 -197,-113 -455,-170 -713,-170 -242,0 -483,50 -673,149l55 34c362,-189 924,-182 1275,20 363,210 365,551 5,760 -180,104 -417,157 -654,157z"/>
     <path class="fil15" d="M34152 27281c248,144 651,145 898,1 247,-143 246,-377 -3,-521 -123,-71 -286,-107 -449,-107 -146,0 -293,29 -410,87l56 33c218,-105 542,-98 747,20 218,126 218,330 3,456 -108,62 -250,93 -392,93 -142,0 -285,-31 -394,-94 -191,-110 -215,-281 -72,-406l-57 -33c-174,144 -148,344 73,471z"/>
     <path class="fil15" d="M34603 27458c-193,0 -387,-42 -535,-128 -268,-155 -293,-398 -75,-569l-57 -33c-249,189 -225,463 75,635 327,189 856,188 1180,0 325,-188 323,-494 -4,-683 -163,-94 -376,-141 -589,-141 -198,0 -395,40 -552,121l57 32c295,-149 746,-142 1028,20 296,171 297,448 4,619 -146,85 -339,127 -532,127z"/>
     <path class="fil15" d="M34602 27559c-237,0 -476,-52 -657,-157 -337,-194 -363,-502 -76,-713l-57 -33c-317,229 -291,566 77,779 394,227 1033,227 1424,0 391,-227 389,-597 -5,-825 -197,-114 -455,-171 -713,-171 -241,0 -482,50 -672,150l56 32c362,-187 923,-180 1272,21 364,210 366,551 6,761 -180,104 -417,156 -655,156z"/>
     <path class="fil15" d="M24125 31030c-178,104 -469,104 -649,0 -166,-96 -179,-247 -40,-351l-47 -27c-165,119 -150,294 41,404 205,119 537,120 741,1 204,-119 203,-312 -2,-430 -191,-111 -495,-118 -701,-21l47 27c179,-82 442,-75 608,21 180,104 180,273 2,376z"/>
     <path class="fil15" d="M24241 31097c-241,141 -637,141 -881,0 -230,-133 -244,-344 -41,-486l-47 -27c-228,157 -215,393 41,540 270,156 707,156 975,0 268,-156 266,-409 -3,-564 -256,-148 -664,-155 -934,-22l47 27c244,-119 610,-111 840,21 244,141 246,370 3,511z"/>
     <path class="fil15" d="M24342 31157c-297,172 -784,172 -1084,-1 -286,-165 -300,-430 -41,-604l-47 -27c-284,189 -270,478 42,658 326,188 854,188 1177,0 323,-187 321,-493 -5,-681 -312,-180 -810,-188 -1135,-22l47 26c299,-150 756,-142 1042,23 300,173 301,455 4,628z"/>
     <path class="fil15" d="M24199 33861c-339,-196 -362,-508 -67,-719l-57 -33c-326,229 -303,570 68,784 395,228 1034,228 1425,1 391,-227 389,-598 -6,-825 -389,-225 -1019,-228 -1411,-8l56 33c361,-202 941,-200 1299,7 363,210 365,551 5,760 -360,209 -949,209 -1312,0z"/>
     <path class="fil15" d="M24199 33181c-258,189 -236,466 67,641 326,189 856,188 1180,0 324,-189 323,-495 -4,-683 -322,-186 -843,-188 -1168,-6l56 32c295,-164 765,-162 1056,6 295,171 297,448 3,619 -292,170 -771,170 -1066,-1 -272,-157 -294,-404 -68,-575l-56 -33z"/>
     <path class="fil15" d="M24341 33263c-182,144 -159,348 66,477 248,144 651,144 898,1 247,-144 245,-378 -3,-521 -244,-141 -640,-143 -887,-6l56 33c216,-119 561,-118 775,5 218,126 218,331 2,456 -215,126 -567,126 -785,0 -194,-112 -216,-286 -65,-412l-57 -33z"/>
     <path class="fil15" d="M17125 34491c-216,125 -568,125 -786,-1 -217,-125 -218,-329 -2,-454 192,-112 495,-125 712,-36l57 -33c-248,-106 -602,-94 -826,36 -247,144 -244,377 3,520 249,143 651,144 898,1 236,-138 245,-358 28,-502l-57 32c188,127 178,318 -27,437z"/>
     <path class="fil15" d="M17266 34572c-293,170 -772,170 -1067,0 -294,-170 -296,-448 -3,-618 271,-157 700,-169 996,-36l56 -33c-327,-151 -807,-139 -1109,37 -323,188 -323,495 3,683 327,189 856,188 1180,0 314,-182 323,-475 28,-664l-57 32c264,172 256,435 -27,599z"/>
     <path class="fil15" d="M17388 34644c-360,209 -949,209 -1312,0 -363,-210 -365,-551 -5,-760 338,-196 878,-208 1243,-36l56 -33c-396,-190 -986,-178 -1355,36 -391,228 -389,598 5,825 394,228 1033,228 1424,1 380,-221 389,-577 27,-806l-56 32c331,211 322,538 -27,741z"/>
     <path class="fil15" d="M11874 33690c-216,125 -567,125 -786,-1 -217,-125 -218,-329 -2,-454 205,-120 535,-126 753,-18l57 -33c-249,-125 -630,-119 -867,18 -246,144 -244,377 3,520 249,143 652,144 898,0 224,-130 244,-334 60,-478l-57 32c154,126 134,302 -59,414z"/>
     <path class="fil15" d="M12015 33771c-292,170 -771,170 -1067,-1 -294,-170 -296,-447 -3,-617 283,-164 739,-170 1035,-17l57 -33c-328,-171 -834,-165 -1148,18 -324,188 -323,495 2,683 327,188 857,188 1180,0 302,-176 322,-452 61,-642l-56 32c229,172 210,420 -61,577z"/>
     <path class="fil15" d="M12137 33843c-360,209 -949,209 -1312,-1 -362,-209 -364,-550 -4,-759 350,-204 916,-209 1280,-17l57 -33c-396,-210 -1013,-204 -1394,17 -391,227 -389,597 5,825 395,228 1034,228 1425,0 368,-213 387,-554 60,-783l-57 32c297,212 277,523 -60,719z"/>
     <path class="fil15" d="M14499 30778c-204,119 -202,311 2,429 205,119 538,119 742,1 199,-116 203,-303 11,-422l-46 27c166,104 162,267 -12,368 -178,104 -468,104 -649,-1 -179,-103 -180,-271 -2,-375 149,-86 377,-101 553,-43l48 -28c-202,-72 -473,-57 -647,44z"/>
     <path class="fil15" d="M14432 31248c-244,-141 -245,-370 -3,-510 213,-124 546,-139 788,-45l48 -27c-269,-109 -643,-94 -883,45 -267,155 -267,409 2,564 270,156 708,155 975,0 264,-153 267,-400 11,-556l-46 27c230,141 226,364 -11,502 -242,141 -637,141 -881,0z"/>
     <path class="fil15" d="M14330 31307c-300,-173 -301,-455 -4,-627 269,-157 693,-172 993,-45l47 -27c-326,-142 -792,-127 -1086,45 -323,187 -322,493 3,681 150,86 342,133 537,140l423 -80 51 -30c-297,114 -702,95 -964,-57z"/>
     <path class="fil15" d="M15424 30688c250,153 278,383 84,553l146 -84c101,-167 40,-360 -184,-496l-46 27z"/>
    </g>
    <g>
     <path class="fil16" d="M38721 19156l-2 0c-172,0 -326,121 -208,217l0 0c8,7 18,14 30,21l0 0c12,7 25,13 38,18l0 0c218,86 507,-96 300,-215l0 0c-49,-29 -104,-41 -158,-41z"/>
     <path class="fil16" d="M39519 20314c10,9 21,17 34,25l0 0c11,6 22,11 33,16l0 0c218,91 516,-93 306,-214l0 0c-50,-28 -106,-40 -160,-40l0 0c-170,0 -322,118 -213,213l0 0z"/>
     <path class="fil16" d="M38977 20978l-3 0c-168,0 -320,117 -214,212l0 0c10,8 22,17 36,25l0 0c10,6 20,11 30,15l0 0c219,94 519,-90 308,-212l0 0c-49,-28 -104,-40 -157,-40z"/>
     <path class="fil16" d="M35208 21301l68 39 3303 -1928c-13,-5 -26,-11 -38,-18l0 0c-12,-7 -22,-14 -30,-21l0 0 -3303 1928z"/>
     <path class="fil16" d="M39002 20156l-1919 360 -1605 940 68 39 1589 -931 1919 -359 1098 -639c-7,-3 -14,-7 -21,-11l0 0c-17,-10 -31,-20 -42,-31l0 0 -1087 632z"/>
     <path class="fil16" d="M39156 20526l-1979 296 -1387 814 68 39 1368 -803 1980 -296 380 -221c-11,-5 -22,-10 -33,-16l0 0c-13,-8 -24,-16 -34,-25l0 0 -363 212z"/>
     <path class="fil16" d="M36947 21839c8,6 16,11 26,17l0 0c14,8 29,15 45,21l0 0c217,80 499,-99 293,-218l0 0c-50,-29 -105,-41 -160,-41l0 0c-174,0 -329,124 -204,221l0 0z"/>
     <path class="fil16" d="M36449 22136l68 39 501 -298c-16,-6 -31,-13 -45,-21l0 0c-10,-6 -18,-11 -26,-17l-498 297z"/>
     <path class="fil16" d="M36798 22337l68 40 1960 -1147c-10,-4 -20,-9 -30,-15l0 0c-14,-8 -26,-17 -36,-25l0 0 -1962 1147z"/>
     <polygon class="fil16" points="35276,21340 35276,15338 35208,15338 35208,21301 "/>
     <polygon class="fil16" points="35546,21495 35546,15494 35478,15494 35478,21456 "/>
     <polygon class="fil16" points="35858,21676 35858,15674 35790,15674 35790,21637 "/>
     <polygon class="fil16" points="36449,13527 36449,22136 36517,22175 36517,13527 "/>
     <polygon class="fil16" points="36866,22377 36866,13729 36798,13729 36798,22337 "/>
     <path class="fil16" d="M39940 19591c11,11 25,21 43,31l0 0c6,4 13,8 20,11l0 0c219,104 531,-85 318,-207l0 0c-50,-29 -106,-41 -160,-41l0 0c-166,0 -314,112 -221,206l0 0z"/>
     <path class="fil16" d="M19939 28591c-4,0 -8,1 -11,2l0 0c-242,46 -240,458 10,422l0 0c228,-32 252,-379 69,-422l0 0c-12,-3 -25,-4 -39,-4l0 0c-9,0 -19,0 -29,2l0 0z"/>
     <path class="fil16" d="M20915 30120l-2 0 -2 0c-9,0 -18,1 -28,2l0 0c-8,2 -16,3 -24,5l0 0c-228,59 -221,454 24,420l0 0c234,-33 253,-398 54,-425l0 0c-7,-1 -14,-2 -22,-2z"/>
     <path class="fil16" d="M20875 25847l0 132 -16 4148c8,-2 16,-3 24,-5l0 0c20,-2 38,-2 54,0l0 0 16 -4286 -78 11z"/>
     <path class="fil16" d="M20888 19075l-13 6759 -937 1551 1 1206c25,-4 48,-3 68,2l10 -1192 858 -1422 0 -132 78 -11 13 -6772 -78 11z"/>
     <path class="fil16" d="M21440 18997l-22 12161c20,-11 43,-18 79,-23l0 0 21 -12149 -78 11z"/>
     <path class="fil16" d="M22731 25206c-8,0 -16,1 -24,2l0 0c-20,3 -38,8 -54,15l0 0c-199,83 -181,443 53,410l0 0c242,-34 254,-427 30,-427l0 0c-2,0 -3,0 -5,0l0 0z"/>
     <path class="fil16" d="M22662 20351l-9 4872c16,-7 34,-12 54,-15l0 0c8,-1 16,-2 24,-2l0 0 9 -4866 -78 11z"/>
     <path class="fil16" d="M21977 18922l-12 6530 847 751 -4 4114c8,-3 17,-4 26,-6l0 0c19,-2 37,-2 53,0l0 0 4 -4155 -847 -752 12 -6493 -79 11z"/>
     <path class="fil16" d="M22807 30316l757 436c10,-8 21,-16 35,-24l0 0c14,-8 29,-16 44,-21l-757 -437 -79 46z"/>
     <path class="fil16" d="M23643 30707c-15,5 -30,13 -44,21l0 0c-14,8 -25,16 -35,24l0 0c-83,70 -45,150 44,202l0 0c99,57 262,78 389,4l0 0c127,-74 91,-169 -8,-226l0 0c-54,-32 -128,-52 -203,-52l0 0c-48,0 -97,8 -143,27l0 0z"/>
     <path class="fil16" d="M21951 30642l3060 1771c11,-9 23,-18 38,-27l0 0c13,-7 27,-14 40,-20l-3059 -1770 -79 46z"/>
     <path class="fil16" d="M21418 31155l802 462 604 1339 434 255c9,-8 20,-15 32,-22l0 0c16,-9 32,-17 49,-23l0 0 -414 -243 -605 -1339 -823 -475 -79 46z"/>
     <path class="fil16" d="M23476 33141l-2 0c-45,1 -91,8 -135,25l0 0c-17,6 -33,14 -49,23l0 0c-12,7 -23,14 -32,22l0 0c-88,70 -50,152 40,204l0 0c99,57 262,78 389,4l0 0c127,-74 92,-169 -8,-226l0 0c-54,-31 -127,-52 -203,-52z"/>
     <path class="fil16" d="M21638 30824l1060 612 732 1299 1276 740c7,-4 14,-9 22,-14l0 0c20,-11 41,-21 63,-28l0 0 -1263 -733 -732 -1299 -1079 -623 -79 46z"/>
     <path class="fil16" d="M21972 18482l-21 12160c20,-10 42,-17 78,-22l0 0 22 -12149 -79 11z"/>
     <path class="fil16" d="M21660 18663l-22 12160c20,-10 42,-17 78,-22l0 0 22 -12150 -78 12z"/>
     <path class="fil16" d="M24984 32274c-17,7 -33,15 -49,24l0 0c-12,7 -23,14 -32,21l0 0c-88,70 -50,153 40,205l0 0c99,57 262,77 389,3l0 0c128,-74 92,-168 -8,-225l0 0c-54,-32 -127,-52 -203,-52l0 0c-46,0 -93,8 -137,24l0 0z"/>
     <path class="fil16" d="M24704 33337c-17,7 -34,14 -50,24l0 0c-12,7 -22,14 -31,21l0 0c-89,70 -51,152 39,204l0 0c100,58 262,78 390,4l0 0c127,-74 91,-168 -8,-226l0 0c-54,-31 -127,-51 -203,-51l0 0c-46,0 -93,7 -137,24l0 0z"/>
     <path class="fil16" d="M24067 24169l-1 125 -7 1255c8,-3 17,-4 26,-6l0 0c16,-2 32,-2 46,0l0 0 7 -1384 -71 10z"/>
     <path class="fil16" d="M23505 27183c-9,1 -18,3 -26,5l0 0c-204,56 -196,411 25,380l0 0c213,-30 230,-365 46,-386l0 0c-6,-1 -12,-1 -19,-1l0 0c-8,0 -17,0 -26,2l0 0z"/>
     <path class="fil16" d="M24080 16927l-13 7230 -580 995 18 2031c16,-3 31,-3 45,-1l0 0 9 -2016 507 -872 1 -125 71 -10 14 -7242 -72 10z"/>
     <path class="fil16" d="M25087 24541c-9,1 -17,3 -26,5l0 0c-203,57 -195,412 25,381l0 0c214,-30 230,-365 47,-387l0 0c-6,-1 -13,-1 -20,-1l0 0c-8,0 -17,1 -26,2l0 0z"/>
     <path class="fil16" d="M24426 16878l-11 6011 653 677 -7 980c9,-2 17,-4 26,-5l0 0c17,-2 32,-3 46,-1l0 0 7 -1015 -653 -677 11 -5980 -72 10z"/>
     <path class="fil16" d="M24113 25542l-2 0 -2 0c-7,0 -16,0 -24,1l0 0c-9,2 -18,3 -26,6l0 0c-203,56 -195,411 25,380l0 0c213,-30 229,-364 47,-386l0 0c-6,-1 -12,-1 -18,-1z"/>
     <path class="fil16" d="M32495 25898l1760 1014c12,-8 24,-17 38,-25l0 0c27,-15 54,-28 83,-37l-1767 -1018 -114 66z"/>
     <path class="fil16" d="M34562 26819l-3 0c-61,0 -124,9 -183,31l0 0c-29,9 -56,22 -83,37l0 0c-14,8 -26,17 -38,25l0 0c-288,212 253,510 607,306l0 0c285,-165 10,-399 -300,-399z"/>
     <polygon class="fil16" points="32609,25832 32609,15264 32495,15264 32495,25898 "/>
     <polygon class="fil16" points="31270,26862 31270,16294 31156,16294 31156,26927 "/>
     <path class="fil16" d="M34287 28552l-3 0c-60,1 -120,10 -178,29l0 0c-30,11 -60,24 -88,40l0 0c-12,7 -24,14 -34,22l0 0c-296,213 246,514 602,308l0 0c285,-164 10,-399 -299,-399z"/>
     <path class="fil16" d="M31156 26928l769 461 -128 1662 786 447c10,-7 21,-15 34,-22l0 0c28,-16 58,-29 88,-40l0 0 -744 -421 119 -1535 1904 1163c10,-8 22,-15 34,-22l0 0c28,-16 58,-29 88,-40l-2016 -1232 2 -20 -821 -468 -115 67z"/>
     <path class="fil16" d="M32808 29364l-3 0c-60,0 -120,9 -178,29l0 0c-30,10 -60,23 -88,40l0 0c-13,7 -24,14 -34,22l0 0c-296,212 246,513 602,308l0 0c285,-165 10,-399 -299,-399z"/>
     <path class="fil16" d="M31858 15625l-9 4713c6,-2 11,-3 17,-3l0 0c19,-3 38,-3 54,0l0 0 9 -4720 -71 10z"/>
     <path class="fil16" d="M31866 20335c-6,0 -11,1 -17,3l0 0c-213,48 -209,414 16,382l0 0c210,-29 228,-354 55,-385l0 0c-9,-1 -18,-2 -28,-2l0 0c-9,0 -17,0 -26,2l0 0z"/>
     <path class="fil16" d="M31982 24433l0 0 -1 0c-8,0 -17,1 -25,2l0 0c-16,2 -31,6 -45,11l0 0c-184,73 -170,404 44,374l0 0c220,-31 231,-387 27,-387z"/>
     <path class="fil16" d="M32531 15530l-10 5424 -598 1164 -12 2328c14,-5 29,-9 71,-13l0 0 12 -2304 599 -1164 10 -5445 -72 10z"/>
     <path class="fil16" d="M32994 24986c-6,0 -14,0 -21,1l0 0c-18,3 -34,8 -49,14l0 0c-180,76 -164,401 48,371l0 0c221,-31 230,-386 27,-386l0 0c-1,0 -3,0 -5,0l0 0z"/>
     <path class="fil16" d="M32941 15472l-17 9529c15,-6 31,-11 49,-14l0 0c7,-1 15,-1 21,-1l0 0 18 -9523 -71 9z"/>
     <path class="fil16" d="M33558 19256c-6,1 -11,1 -17,2l0 0c-20,3 -38,8 -54,16l0 0c-174,80 -156,399 53,370l0 0c221,-31 231,-388 28,-388l0 0c-4,0 -7,0 -10,0l0 0z"/>
     <path class="fil16" d="M33494 15395l-7 3879c16,-8 34,-13 54,-16l0 0c6,-1 11,-1 17,-2l0 0 7 -3871 -71 10z"/>
     <path class="fil16" d="M33942 22572l0 125 -7 1255c8,-2 17,-4 26,-6l0 0c16,-2 31,-2 46,0l0 0 7 -1384 -72 10z"/>
     <path class="fil16" d="M33380 25586c-9,1 -17,3 -26,5l0 0c-203,56 -195,411 26,380l0 0c213,-30 229,-365 46,-386l0 0c-6,-1 -13,-1 -19,-1l0 0c-9,0 -17,0 -27,2l0 0z"/>
     <path class="fil16" d="M33956 15330l-14 7230 -579 995 17 2031c17,-3 32,-3 46,-1l0 0 9 -2016 507 -872 0 -125 72 -10 13 -7242 -71 10z"/>
     <path class="fil16" d="M34991 22942l-2 0 -2 0c-8,0 -16,1 -24,2l0 0c-9,1 -18,3 -26,5l0 0c-203,57 -195,412 25,381l0 0c213,-30 230,-365 47,-387l0 0c-6,0 -12,-1 -18,-1z"/>
     <path class="fil16" d="M34302 15281l-11 6011 653 677 -7 980c8,-2 17,-4 26,-5l0 0c16,-2 32,-2 46,-1l0 0 6 -1015 -652 -677 11 -5980 -72 10z"/>
     <path class="fil16" d="M33961 23946c-9,2 -18,4 -26,6l0 0c-204,56 -196,411 25,380l0 0c213,-30 229,-364 47,-386l0 0c-7,-1 -13,-1 -20,-1l0 0c-8,0 -17,0 -26,1l0 0z"/>
     <path class="fil16" d="M15009 30813c25,9 49,19 72,33l0 0c12,7 23,14 33,21l0 0 1593 -918 -98 -57 -1600 921z"/>
     <path class="fil16" d="M14589 31131c306,177 773,-81 525,-264l0 0c-10,-7 -21,-14 -33,-21l0 0c-23,-14 -47,-24 -72,-33l0 0c-52,-18 -107,-27 -161,-27l0 0c-267,0 -505,203 -259,345l0 0z"/>
     <path class="fil16" d="M15243 31394l-1833 349 -1184 676c10,5 20,10 30,16l0 0c26,15 46,30 62,46l0 0 1168 -668 1832 -348 2009 -1159 -100 -57 -1984 1145z"/>
     <polygon class="fil16" points="16707,29949 16707,21767 16609,21767 16609,29892 "/>
     <polygon class="fil16" points="17228,22127 17228,30252 17327,30309 17327,22127 "/>
     <polygon class="fil16" points="17842,30606 17842,22424 17743,22424 17743,30549 "/>
     <polygon class="fil16" points="18400,22802 18400,30926 18499,30983 18499,22802 "/>
     <polygon class="fil16" points="19177,31375 19177,23193 19078,23193 19078,31318 "/>
     <path class="fil16" d="M11765 32721c292,168 732,-59 553,-240l0 0c-16,-16 -36,-31 -62,-46l0 0c-10,-6 -20,-11 -30,-16l0 0c-64,-30 -134,-43 -202,-43l0 0c-267,0 -505,203 -259,345l0 0z"/>
     <path class="fil16" d="M14882 32952c30,9 59,21 87,37l0 0c7,5 15,9 22,14l0 0 3508 -2019 -99 -58 -3518 2026z"/>
     <path class="fil16" d="M15511 31836l-1931 379 -1970 1133c23,9 45,19 66,31l0 0c14,8 26,16 37,24l1943 -1118 1931 -379 2255 -1302 -99 -57 -2232 1289z"/>
     <path class="fil16" d="M14478 33274c311,180 785,-87 513,-271l0 0c-7,-5 -15,-9 -22,-14l0 0c-28,-16 -57,-28 -87,-37l0 0c-48,-15 -97,-22 -145,-22l0 0c-268,0 -505,202 -259,344l0 0z"/>
     <path class="fil16" d="M15468 33361l-3 0c-267,0 -504,202 -258,344l0 0c307,178 776,-82 520,-266l0 0c-9,-6 -19,-13 -30,-19l0 0c-24,-14 -50,-25 -76,-34l0 0c-50,-17 -102,-25 -153,-25z"/>
     <path class="fil16" d="M18295 31764l2 17 -2676 1605c26,9 52,20 76,34l0 0c11,6 21,13 30,19l0 0 2579 -1545 102 1325 -1577 906c27,8 52,20 76,34l0 0c11,6 21,12 30,19l1613 -927 -111 -1436 738 -440 -100 -58 -782 447z"/>
     <path class="fil16" d="M11234 33605c307,178 776,-82 520,-266l0 0c-9,-6 -19,-13 -30,-19l0 0c-24,-14 -50,-25 -76,-34l0 0c-51,-17 -104,-25 -156,-25l0 0c-267,0 -504,202 -258,344l0 0z"/>
     <path class="fil16" d="M16484 34406c308,178 776,-82 520,-266l0 0c-9,-6 -18,-12 -29,-19l0 0c-25,-14 -50,-25 -76,-34l0 0c-51,-17 -104,-25 -156,-25l0 0c-267,0 -505,202 -259,344l0 0z"/>
     <path class="fil16" d="M34798 20495l-2 0 -2 0c-9,0 -18,1 -27,2l0 0c-4,1 -8,2 -11,2l0 0c-243,47 -240,458 10,423l0 0c229,-32 252,-379 69,-422l0 0c-11,-3 -24,-5 -37,-5z"/>
     <path class="fil16" d="M34766 14810l1 5687c25,-3 48,-2 68,3l0 0 11 -5701 -80 11z"/>
     <path class="fil16" d="M16088 28418c-7,0 -16,1 -24,2l0 0c-19,2 -37,7 -54,14l0 0c-198,84 -181,443 53,410l0 0c243,-34 254,-426 30,-426l0 0c-1,0 -3,0 -5,0l0 0z"/>
     <path class="fil16" d="M16019 23562l-9 4872c17,-7 35,-12 54,-14l0 0c8,-1 17,-2 24,-2l0 0 10 -4867 -79 11z"/>
    </g>
    <g>
     <polygon class="fil17" points="20821,5458 19102,6451 18248,8656 19112,9870 20830,8878 21685,6672 "/>
     <polygon class="fil17" points="16358,13314 15494,12100 13775,13093 12921,15298 13785,16512 15503,15520 "/>
     <path class="fil18" d="M18119 5265l848 1191 -839 2166 -1686 973 -848 -1191 838 -2166 1687 -973zm-1709 4412l1751 -1011 870 -2246 -9 -11 -871 -1226 -1751 1011 -870 2247 8 11 872 1225z"/>
     <path class="fil18" d="M19033 9969l-872 -1225 -1751 1010 -870 2248 8 11 872 1225 1751 -1010 870 -2247 -8 -12zm-904 -1144l848 1193 -839 2164 -1686 974 -848 -1191 839 -2166 1686 -974z"/>
     <polygon class="fil17" points="10446,26715 9582,25501 7864,26493 7010,28699 7873,29913 9592,28921 "/>
     <path class="fil18" d="M10498 23078l1751 -1011 870 -2247 -8 -10 -872 -1226 -1750 1011 -870 2246 8 12 871 1225zm1719 -1056l-1687 974 -848 -1191 839 -2166 1686 -973 848 1191 -838 2165z"/>
     <path class="fil18" d="M12217 22226l848 1193 -838 2164 -1687 974 -848 -1191 839 -2166 1686 -974zm904 1144l-872 -1225 -1750 1010 -870 2248 8 10 872 1226 1750 -1011 870 -2246 -8 -12z"/>
     <path class="fil17" d="M36719 8124l-418 1079 986 573c3,2 6,4 9,5 0,0 1,1 1,1 346,201 615,535 779,984l371 -214 855 -2206 -865 -1214 -1718 992z"/>
     <path class="fil18" d="M35735 6938l849 1192 -392 1010 41 23 414 -1070 -8 -11 -872 -1225 -1750 1010 -358 924c12,13 23,26 34,39l356 -918 1686 -974z"/>
     <path class="fil18" d="M41029 10604l872 1226 1750 -1011 870 -2247 -8 -11 -871 -1225 -1751 1011 -870 2246 8 11zm904 1144l-848 -1191 838 -2166 1687 -973 848 1191 -839 2165 -1686 974z"/>
     <polygon class="fil17" points="12604,29677 14323,28685 15177,26479 14313,25265 12595,26257 11741,28463 "/>
     <polygon class="fil17" points="13200,23271 14919,22279 15773,20073 14909,18859 13191,19851 12337,22057 "/>
     <polygon class="fil17" points="17652,15062 18516,16276 20234,15284 21089,13078 20225,11864 18506,12857 "/>
     <path class="fil18" d="M25993 5744l848 1192 -838 2165 -1687 974 -848 -1192 839 -2165 1686 -974zm-2580 3187l871 1225 1751 -1010 870 -2247 -8 -12 -872 -1224 -1750 1010 -870 2247 8 11z"/>
    </g>
    <g>
     <path class="fil11" d="M33374 9029l-777 449 1597 929 777 -449c906,-523 1730,-570 2326,-223l-1597 -928c-252,-147 -544,-223 -866,-223l0 0c-441,0 -937,143 -1460,445l0 0z"/>
     <path class="fil11" d="M22091 8903c-3093,1786 -5590,6114 -5580,9666l0 0c0,69 2,136 4,202l0 0 1598 928c-3,-66 -5,-133 -5,-201l0 0c-10,-3553 2488,-7880 5581,-9666l0 0c1252,-723 2470,-16 3404,244l995 247 695 355 235 -1239 -1894 -316 -1049 -609c-428,-249 -924,-378 -1472,-378 -756,0 -1609,246 -2512,767l0 0z"/>
     <path class="fil13" d="M14416 21083c-592,1023 -957,2176 -954,3210l0 0c3,1028 369,1753 958,2095l0 0 1597 928c-588,-342 -955,-1067 -957,-2095l0 0c-3,-1033 362,-2187 953,-3210l0 0c545,-945 1283,-1779 2100,-2312l0 0 -1598 -928c-817,532 -1554,1367 -2099,2312l0 0z"/>
     <path class="fil13" d="M29533 7733l-2409 1390 549 319c-198,-115 -412,-205 -639,-267l0 0 -134 77 1599 929 2632 -1520c845,-488 1614,-531 2170,-208l-1598 -929c-235,-136 -507,-207 -807,-207 -411,0 -874,133 -1363,416l0 0z"/>
     <path class="fil19" d="M31131 8661l-2633 1520c-984,-1304 -2771,-1525 -4808,-349l0 0c-3093,1786 -5591,6113 -5581,9666l0 0c0,68 1,135 3,202l0 0c-816,532 -1553,1366 -2098,2311l0 0c-592,1023 -957,2177 -954,3210l0 0c6,2070 1483,2912 3284,1872l0 0 16648 -9612c901,-520 1718,-1415 2309,-2439l0 0c592,-1025 957,-2178 954,-3212l0 0c-6,-2068 -1483,-2911 -3284,-1872l0 0 -777 449c-4,-1368 -698,-2161 -1700,-2161l0 0c-411,0 -875,133 -1363,415l0 0z"/>
    </g>
    <g>
     <polygon class="fil20" points="30193,22360 30551,22568 31850,21818 31491,21610 "/>
     <polygon class="fil20" points="24797,25475 25156,25683 26382,24975 26023,24767 "/>
     <polygon class="fil21" points="26023,24767 26382,24975 26372,21588 26014,21379 "/>
     <polygon class="fil20" points="26014,21379 26372,21588 30542,19180 30183,18972 "/>
     <polygon class="fil22" points="26372,21588 26382,24975 25156,25683 28513,27483 31850,21818 30551,22568 30542,19180 "/>
     <polygon class="fil21" points="26013,21240 26372,21448 26369,20480 26011,20272 "/>
     <polygon class="fil20" points="26011,20272 26369,20480 30539,18073 30180,17865 "/>
     <polygon class="fil22" points="26369,20480 26372,21448 30541,19041 30539,18073 "/>
     <polygon class="fil21" points="26010,20139 26369,20347 26367,19666 26008,19458 "/>
     <polygon class="fil20" points="26008,19458 26367,19666 30536,17259 30178,17051 "/>
     <polygon class="fil22" points="26367,19666 26369,20347 30538,17940 30536,17259 "/>
    </g>
   </g>
   <path class="fil23" d="M55703 18581c498,16 897,424 899,930l9 0c4,-506 402,-914 899,-930 -499,-17 -899,-429 -899,-937l-7 0c0,508 -400,920 -901,937z"/>
   <path class="fil24" d="M1898 37241c782,26 1408,667 1412,1461l13 0c6,-794 633,-1435 1412,-1461 -783,-25 -1412,-673 -1412,-1471l-11 0c0,798 -628,1446 -1414,1471z"/>
   <g>
    <path class="fil25" d="M13691 45642c0,-1238 1003,-2242 2241,-2242 1238,0 2242,1004 2242,2242 0,1238 -1004,2241 -2242,2241 -1238,0 -2241,-1003 -2241,-2241z"/>
    <path class="fil26" d="M13740 45174c215,-1013 1115,-1773 2192,-1773 1238,0 2242,1003 2242,2241 0,284 -53,555 -149,805 -359,-102 -900,-283 -1705,-583 -1182,-441 -1996,-637 -2580,-690z"/>
    <path class="fil27" d="M15932 47883c-910,0 -1694,-543 -2045,-1322 343,-12 727,-46 1132,-117 1000,-174 2022,320 2600,674 -411,469 -1014,765 -1687,765z"/>
    <path class="fil28" d="M18156 45362c-716,-81 -1475,-272 -2170,-658 -618,-343 -1109,-594 -1496,-778 390,-328 893,-526 1442,-526 1144,0 2087,856 2224,1962z"/>
    <path class="fil29" d="M14995 47156c1134,0 2054,-919 2054,-2053 0,-701 -352,-1321 -889,-1691 1131,114 2014,1069 2014,2230 0,1238 -1004,2241 -2242,2241 -744,0 -1404,-363 -1812,-922 266,125 562,195 875,195z"/>
   </g>
   <g>
    <g>
     <path class="fil13" d="M34831 48907l0 3 0 3c0,64 4,125 7,186l0 0 61 -34c2,29 2,59 4,88l0 0 61 -34c1,29 2,59 3,87l0 0 62 -34c1,29 1,59 3,88l0 0 61 -34c2,29 2,59 4,88l0 0 61 -35c1,29 1,59 3,88l0 0 61 -34c2,29 2,59 4,88l0 0 61 -35c1,29 2,59 4,88l0 0 61 -34c1,29 1,59 3,88l0 0 61 -34c2,29 2,59 4,87l0 0 9245 -5180c5,-67 8,-134 8,-200l0 0c0,-632 -193,-1095 -503,-1331l0 0c-21,-19 -43,-37 -65,-54l0 0c-21,-19 -43,-37 -65,-53l0 0c-21,-19 -42,-37 -64,-54l0 0c-21,-19 -43,-37 -65,-53l0 0c-21,-20 -43,-37 -65,-54l0 0c-20,-19 -42,-37 -64,-54l0 0c-21,-19 -43,-36 -65,-53l0 0c-21,-19 -42,-37 -65,-54l0 0c-298,-273 -725,-315 -1201,-65l0 0c-130,-284 -302,-511 -508,-674l0 0c-21,-18 -43,-36 -65,-53l0 0c-21,-19 -42,-36 -64,-54l0 0c-21,-18 -43,-36 -65,-53l0 0c-21,-19 -42,-37 -64,-54l0 0c-21,-18 -43,-36 -65,-53l0 0c-21,-19 -43,-37 -65,-54l0 0c-21,-19 -42,-36 -64,-53l0 0c-21,-19 -43,-37 -65,-54l0 0c-256,-227 -570,-348 -923,-348l0 0c-314,0 -658,96 -1019,298l0 0c-1201,673 -2215,2314 -2541,3968l0 0c-71,29 -142,62 -215,103l0 0c-1048,587 -1897,2204 -1897,3612z"/>
     <path class="fil12" d="M40065 41706c-1201,673 -2214,2314 -2540,3968 -71,29 -142,62 -215,103 -1048,587 -1898,2204 -1898,3612 0,36 1,71 3,105l1 0c2,28 2,56 3,84 1,1 1,2 1,2 0,1 0,1 0,1l9245 -5180c5,-67 8,-134 8,-200 0,-632 -193,-1095 -503,-1331 -2,-1 -3,-2 -4,-3 -303,-229 -719,-242 -1178,15 -111,62 -219,137 -324,224 -44,-274 -117,-518 -213,-730 -130,-284 -302,-511 -508,-674 -3,-2 -6,-5 -9,-7 -479,-372 -1139,-397 -1869,11z"/>
    </g>
    <g>
     <path class="fil11" d="M43346 34747l0 -6c0,-391 -120,-677 -312,-823l0 0c-13,-12 -26,-23 -40,-34l0 0c-13,-11 -26,-22 -40,-33l0 0c-13,-12 -26,-22 -40,-33l0 0c-13,-12 -26,-23 -40,-33l0 0c-13,-12 -26,-23 -40,-33l0 0c-13,-12 -26,-23 -40,-33l0 0c-13,-12 -26,-23 -40,-33l0 0c-13,-12 -26,-23 -40,-34l0 0c-185,-169 -449,-195 -743,-40l0 0c-80,-176 -187,-316 -314,-417l0 0c-13,-11 -27,-22 -40,-33l0 0c-13,-11 -27,-22 -40,-33l0 0c-13,-12 -27,-23 -40,-33l0 0c-13,-12 -27,-23 -40,-33l0 0c-13,-12 -26,-23 -40,-33l0 0c-13,-12 -26,-23 -40,-34l0 0c-13,-11 -27,-22 -40,-33l0 0c-13,-11 -26,-22 -40,-33l0 0c-158,-140 -353,-215 -571,-215 -194,0 -407,59 -631,184l0 0c-743,416 -1370,1432 -1572,2455l0 0c-43,18 -87,39 -133,64l0 0c-648,363 -1174,1364 -1174,2235l0 0c0,41 3,80 5,119l0 0 38 -22c1,18 1,37 2,55l0 0 38 -22c1,18 1,37 2,55l0 0 38 -21c1,18 1,36 2,54l0 0 38 -21c1,18 1,36 2,54l0 0 38 -21c1,18 1,36 2,54l0 0 38 -21c1,18 1,37 2,54l0 0 38 -21c1,18 1,37 2,55l0 0 38 -22c1,18 1,37 2,55l0 0 38 -21c1,18 1,36 2,54l0 0 5720 -3205c3,-40 4,-79 5,-118z"/>
     <path class="fil30" d="M37621 38070c-2,-39 -5,-78 -5,-119 0,-871 526,-1872 1174,-2235 45,-25 89,-46 133,-64 202,-1023 829,-2038 1572,-2455 795,-445 1457,-57 1608,866 65,-53 132,-100 200,-138 576,-323 1043,43 1043,816 0,41 -2,82 -5,124l-5720 3205z"/>
    </g>
   </g>
  </g>
 </g>
</svg>
