<?xml version="1.0" encoding="UTF-8"?>
<!DOCTYPE svg PUBLIC "-//W3C//DTD SVG 1.1//EN" "http://www.w3.org/Graphics/SVG/1.1/DTD/svg11.dtd">
<!-- Creator: CorelDRAW X7 -->
<svg xmlns="http://www.w3.org/2000/svg" xml:space="preserve" width="10.699in" height="9.22409in" version="1.1" style="shape-rendering:geometricPrecision; text-rendering:geometricPrecision; image-rendering:optimizeQuality; fill-rule:evenodd; clip-rule:evenodd"
viewBox="0 0 106990 92241"
 xmlns:xlink="http://www.w3.org/1999/xlink">
 <defs>
  <style type="text/css">
   <![CDATA[
    .fil20 {fill:#536896}
    .fil21 {fill:#7B93C9}
    .fil16 {fill:#8480BC}
    .fil13 {fill:#9F9CCB}
    .fil22 {fill:#AFBEE1}
    .fil11 {fill:#BBB8DA}
    .fil18 {fill:#BFA36F}
    .fil15 {fill:#D2AE6D}
    .fil17 {fill:#D7B67C}
    .fil23 {fill:#E2CBA3}
    .fil12 {fill:#E9EDF7}
    .fil24 {fill:#F7F1E5}
    .fil19 {fill:#F9FAFC}
    .fil9 {fill:#7B93C9;fill-rule:nonzero}
    .fil1 {fill:#8480BC;fill-rule:nonzero}
    .fil8 {fill:#9DB0D9;fill-rule:nonzero}
    .fil2 {fill:#9F9CCB;fill-rule:nonzero}
    .fil4 {fill:#A38755;fill-rule:nonzero}
    .fil10 {fill:#AFBEE1;fill-rule:nonzero}
    .fil0 {fill:#BBB8DA;fill-rule:nonzero}
    .fil5 {fill:#D2AE6D;fill-rule:nonzero}
    .fil3 {fill:#D7B67C;fill-rule:nonzero}
    .fil6 {fill:#DFC596;fill-rule:nonzero}
    .fil29 {fill:#E0C99F;fill-rule:nonzero}
    .fil26 {fill:#E4CFAA;fill-rule:nonzero}
    .fil30 {fill:#E9EDF7;fill-rule:nonzero}
    .fil25 {fill:#EBDBBE;fill-rule:nonzero}
    .fil28 {fill:#EDDFC4;fill-rule:nonzero}
    .fil7 {fill:#EFF2FA;fill-rule:nonzero}
    .fil27 {fill:#F2E8D4;fill-rule:nonzero}
    .fil14 {fill:#F9FAFC;fill-rule:nonzero}
   ]]>
  </style>
 </defs>
 <g id="Layer_x0020_1">
  <metadata id="CorelCorpID_0Corel-Layer"/>
  <g id="_2456921714272">
   <g>
    <path class="fil0" d="M15440 41169l3 1232c2,506 335,1012 999,1398 1340,779 3517,779 4864,0 678,-391 1016,-904 1015,-1417l-3 -1232c1,513 -338,1027 -1015,1418 -1348,778 -3525,778 -4864,0 -665,-386 -998,-892 -999,-1399z"/>
    <path class="fil1" d="M16455 39751c-1348,778 -1354,2039 -16,2817 1339,778 3516,778 4864,0 1347,-778 1354,-2038 15,-2817 -1338,-777 -3517,-778 -4863,0z"/>
    <path class="fil2" d="M15440 39597l3 1231c2,507 335,1013 999,1399 1340,778 3517,778 4864,0 678,-391 1016,-905 1015,-1418l-3 -1231c1,513 -338,1026 -1015,1418 -1348,778 -3525,778 -4864,0 -665,-387 -998,-892 -999,-1399z"/>
    <path class="fil1" d="M16455 38178c-1348,778 -1354,2040 -16,2818 1339,778 3516,778 4864,0 1347,-778 1354,-2039 15,-2817 -1338,-777 -3517,-778 -4863,-1z"/>
    <path class="fil0" d="M15440 38024l3 1232c2,506 335,1013 999,1399 1340,778 3517,778 4864,0 678,-392 1016,-905 1015,-1418l-3 -1231c1,513 -338,1026 -1015,1418 -1348,777 -3525,777 -4864,0 -665,-387 -998,-893 -999,-1400z"/>
    <path class="fil1" d="M16455 36606c-1348,778 -1354,2040 -16,2817 1339,778 3516,778 4864,0 1347,-777 1354,-2038 15,-2816 -1338,-778 -3517,-779 -4863,-1z"/>
    <path class="fil2" d="M15440 36452l3 1231c2,507 335,1013 999,1399 1340,779 3517,779 4864,0 678,-391 1016,-904 1015,-1417l-3 -1232c1,513 -338,1027 -1015,1418 -1348,778 -3525,778 -4864,0 -665,-386 -998,-892 -999,-1399z"/>
    <path class="fil1" d="M16455 35033c-1348,779 -1354,2040 -16,2818 1339,778 3516,778 4864,0 1347,-778 1354,-2039 15,-2817 -1338,-777 -3517,-778 -4863,-1z"/>
    <path class="fil0" d="M15440 34880l3 1231c2,507 335,1013 999,1399 1340,778 3517,778 4864,0 678,-391 1016,-905 1015,-1418l-3 -1231c1,513 -338,1026 -1015,1418 -1348,778 -3525,778 -4864,0 -665,-387 -998,-892 -999,-1399z"/>
    <path class="fil1" d="M16455 33461c-1348,778 -1354,2040 -16,2818 1339,778 3516,778 4864,0 1347,-778 1354,-2039 15,-2817 -1338,-778 -3517,-778 -4863,-1z"/>
    <path class="fil2" d="M15440 33307l3 1232c2,506 335,1012 999,1399 1340,778 3517,778 4864,0 678,-391 1016,-905 1015,-1418l-3 -1231c1,512 -338,1026 -1015,1417 -1348,778 -3525,778 -4864,0 -665,-386 -998,-892 -999,-1399z"/>
    <path class="fil1" d="M16455 31889c-1348,778 -1354,2040 -16,2817 1339,779 3516,779 4864,0 1347,-777 1354,-2039 15,-2816 -1338,-778 -3517,-779 -4863,-1z"/>
    <path class="fil0" d="M15440 31735l3 1231c2,507 335,1013 999,1399 1340,778 3517,778 4864,0 678,-391 1016,-904 1015,-1417l-3 -1232c1,513 -338,1027 -1015,1418 -1348,778 -3525,778 -4864,0 -665,-386 -998,-892 -999,-1399z"/>
    <path class="fil1" d="M16455 30316c-1348,779 -1354,2040 -16,2818 1339,778 3516,778 4864,0 1347,-778 1354,-2039 15,-2817 -1338,-777 -3517,-778 -4863,-1z"/>
    <path class="fil2" d="M15440 30163l3 1231c2,507 335,1013 999,1399 1340,778 3517,778 4864,0 678,-391 1016,-905 1015,-1418l-3 -1231c1,513 -338,1026 -1015,1418 -1348,778 -3525,778 -4864,0 -665,-387 -998,-893 -999,-1399z"/>
    <path class="fil0" d="M16455 28744c-1348,778 -1354,2040 -16,2817 1339,779 3516,779 4864,0 1347,-777 1354,-2038 15,-2816 -1338,-778 -3517,-778 -4863,-1z"/>
    <path class="fil3" d="M21462 44705l4 1232c1,507 334,1013 999,1399 1339,778 3516,778 4864,0 678,-391 1016,-905 1015,-1418l-4 -1231c2,513 -337,1026 -1014,1418 -1348,778 -3525,778 -4865,0 -664,-387 -997,-893 -999,-1400z"/>
    <path class="fil4" d="M22477 43287c-1347,778 -1353,2040 -15,2817 1338,779 3516,779 4864,0 1346,-777 1353,-2038 14,-2816 -1337,-778 -3516,-779 -4863,-1z"/>
    <path class="fil5" d="M21462 43133l4 1231c1,507 334,1013 999,1399 1339,779 3516,779 4864,0 678,-391 1016,-904 1015,-1417l-4 -1232c2,513 -337,1027 -1014,1418 -1348,778 -3525,778 -4865,0 -664,-386 -997,-892 -999,-1399z"/>
    <path class="fil4" d="M22477 41715c-1347,778 -1353,2040 -15,2817 1338,778 3516,778 4864,0 1346,-777 1353,-2039 14,-2817 -1337,-777 -3516,-778 -4863,0z"/>
    <path class="fil3" d="M21462 41561l4 1231c1,507 334,1013 999,1399 1339,778 3516,778 4864,0 678,-391 1016,-905 1015,-1417l-4 -1232c2,513 -337,1027 -1014,1418 -1348,778 -3525,778 -4865,0 -664,-387 -997,-893 -999,-1399z"/>
    <path class="fil4" d="M22477 40142c-1347,779 -1353,2040 -15,2818 1338,778 3516,778 4864,0 1346,-778 1353,-2039 14,-2817 -1337,-777 -3516,-778 -4863,-1z"/>
    <path class="fil5" d="M21462 39988l4 1232c1,506 334,1013 999,1399 1339,778 3516,778 4864,0 678,-391 1016,-905 1015,-1418l-4 -1231c2,513 -337,1026 -1014,1418 -1348,777 -3525,777 -4865,0 -664,-387 -997,-893 -999,-1400z"/>
    <path class="fil4" d="M22477 38570c-1347,778 -1353,2040 -15,2817 1338,779 3516,779 4864,0 1346,-777 1353,-2038 14,-2816 -1337,-778 -3516,-779 -4863,-1z"/>
    <path class="fil3" d="M21462 38416l4 1232c1,506 334,1012 999,1398 1339,779 3516,779 4864,0 678,-391 1016,-904 1015,-1417l-4 -1232c2,513 -337,1027 -1014,1418 -1348,778 -3525,778 -4865,0 -664,-386 -997,-892 -999,-1399z"/>
    <path class="fil4" d="M22477 36998c-1347,778 -1353,2039 -15,2817 1338,778 3516,778 4864,0 1346,-778 1353,-2039 14,-2817 -1337,-777 -3516,-778 -4863,0z"/>
    <path class="fil5" d="M21462 36844l4 1231c1,507 334,1013 999,1399 1339,778 3516,778 4864,0 678,-391 1016,-905 1015,-1418l-4 -1231c2,513 -337,1026 -1014,1418 -1348,778 -3525,778 -4865,0 -664,-387 -997,-893 -999,-1399z"/>
    <path class="fil6" d="M22477 35425c-1347,778 -1353,2040 -15,2818 1338,778 3516,778 4864,0 1346,-778 1353,-2039 14,-2817 -1337,-777 -3516,-778 -4863,-1z"/>
   </g>
   <g>
    <polygon class="fil7" points="5480,48734 2081,46759 11019,41599 27395,51115 15038,58249 2061,50708 "/>
    <polygon class="fil8" points="15038,58249 15040,58906 27396,51773 27395,51115 "/>
    <path class="fil9" d="M5290 47846l1003 583 2566 -1482 951 553 -2566 1481 834 485 2566 -1481 1038 603 -2566 1482 832 483 2566 -1481 1015 589 -8 1524 -2035 1175c-54,31 -54,80 -1,111l1903 1106 -829 478 966 562 2120 -1224 -966 -562 -1101 636 -1808 -1051 1940 -1121 2795 1 9 -1619 1964 -1134 1809 1051 -964 556 966 561 963 -556 1413 821 -963 557 966 561 2118 -1223 -966 -561 -964 556 -1413 -821 964 -556 -966 -562 -964 557 -1902 -1106c-54,-31 -139,-31 -192,0l-2059 1188 -2583 0 -1038 -603 2540 -1467 -832 -483 -2540 1466 -1039 -603 2540 -1467 -834 -484 -2540 1466 -951 -552 2540 -1467 -1002 -583 -5295 3057z"/>
    <polygon class="fil10" points="2081,46759 2061,50708 5480,48734 "/>
    <polygon class="fil10" points="2061,50708 2063,51365 15040,58907 15038,58249 "/>
   </g>
   <g>
    <g>
     <path class="fil11" d="M103368 27875l0 6 0 6c0,119 -7,232 -13,346l0 0 -114 -64c-3,54 -3,110 -7,163l0 0 -113 -63c-3,54 -4,110 -7,163l0 0 -114 -64c-2,54 -3,110 -6,164l0 0 -114 -64c-2,54 -3,110 -6,164l0 0 -114 -64c-2,54 -3,110 -6,163l0 0 -114 -64c-3,54 -3,110 -7,164l0 0 -113 -64c-3,54 -4,110 -7,164l0 0 -114 -64c-2,54 -3,110 -6,163l0 0 -114 -64c-2,55 -3,110 -6,164l0 0 -17201 -9637c-8,-125 -14,-250 -14,-373l0 0c0,-1175 359,-2036 937,-2476l0 0c38,-36 79,-68 120,-100l0 0c39,-35 79,-68 120,-100l0 0c39,-35 79,-68 120,-99l0 0c39,-36 80,-69 121,-100l0 0c38,-36 79,-68 120,-100l0 0c38,-35 79,-68 120,-99l0 0c39,-36 79,-69 120,-100l0 0c39,-36 79,-68 121,-100l0 0c556,-509 1350,-586 2236,-121l0 0c240,-529 560,-951 944,-1253l0 0c39,-35 79,-68 120,-100l0 0c39,-34 79,-67 120,-99l0 0c39,-35 80,-68 120,-100l0 0c39,-35 80,-68 121,-99l0 0c39,-35 79,-68 120,-100l0 0c39,-35 79,-68 120,-100l0 0c39,-35 79,-68 120,-100l0 0c39,-34 80,-67 120,-99l0 0c477,-423 1061,-648 1718,-648l0 0c583,0 1224,178 1896,555l0 0c2234,1252 4120,4305 4727,7381l0 0c131,54 264,116 399,192l0 0c1950,1092 3530,4101 3530,6720z"/>
     <path class="fil12" d="M93630 14479c2234,1252 4120,4305 4727,7382 131,53 264,115 399,191 1950,1092 3531,4101 3531,6720 0,67 -2,132 -5,196l-3 -2c-2,53 -3,106 -6,158 0,1 0,2 0,4 0,0 0,1 0,2l-17201 -9637c-8,-125 -14,-250 -14,-373 0,-1175 359,-2037 937,-2476 2,-2 4,-4 6,-6 565,-426 1338,-451 2192,28 206,115 407,256 602,416 83,-508 218,-962 397,-1357 241,-529 561,-951 945,-1253 5,-5 11,-10 16,-15 892,-691 2120,-738 3477,22z"/>
    </g>
    <g>
     <path class="fil13" d="M78778 5532l0 -11c0,-727 221,-1260 579,-1532l0 0c24,-22 49,-43 74,-62l0 0c24,-22 49,-42 75,-61l0 0c23,-22 49,-43 74,-62l0 0c24,-22 49,-42 74,-62l0 0c24,-22 49,-42 75,-62l0 0c24,-21 49,-42 74,-61l0 0c24,-22 49,-42 74,-62l0 0c25,-22 49,-42 75,-62l0 0c344,-314 835,-362 1383,-74l0 0c149,-328 347,-589 584,-776l0 0c25,-21 49,-42 75,-61l0 0c24,-22 49,-42 74,-62l0 0c24,-22 49,-42 74,-62l0 0c24,-21 50,-42 75,-61l0 0c24,-22 49,-42 74,-62l0 0c24,-21 49,-42 75,-62l0 0c24,-21 49,-42 74,-62l0 0c24,-21 49,-41 74,-61l0 0c295,-261 657,-401 1063,-401 361,0 757,111 1173,343l0 0c1382,775 2549,2664 2924,4567l0 0c81,34 164,72 248,119l0 0c1206,676 2184,2537 2184,4158l0 0c0,76 -5,148 -9,221l0 0 -70 -40c-2,34 -2,68 -4,101l0 0 -71 -39c-1,34 -2,68 -4,101l0 0 -70 -39c-2,33 -2,68 -4,101l0 0 -70 -40c-2,34 -3,68 -4,102l0 0 -71 -40c-1,34 -2,68 -4,101l0 0 -70 -39c-2,33 -2,68 -4,101l0 0 -71 -40c-1,34 -2,68 -4,101l0 0 -70 -39c-1,33 -2,68 -4,101l0 0 -70 -39c-2,33 -2,68 -4,101l0 0 -10642 -5962c-5,-74 -8,-148 -8,-220z"/>
     <path class="fil14" d="M89428 11714c4,-73 8,-145 8,-221 0,-1621 -978,-3482 -2184,-4158 -83,-47 -166,-85 -247,-119 -375,-1903 -1542,-3792 -2925,-4567 -1478,-828 -2710,-106 -2991,1611 -120,-99 -245,-186 -372,-258 -1071,-600 -1940,80 -1940,1519 0,76 4,153 9,231l10642 5962z"/>
    </g>
    <g>
     <path class="fil11" d="M99957 2347l0 -7c0,-451 138,-782 360,-951l0 0c15,-14 30,-26 46,-38l0 0c15,-14 31,-27 46,-38l0 0c15,-14 31,-27 47,-39l0 0c15,-13 30,-26 46,-38l0 0c15,-14 30,-26 46,-38l0 0c15,-14 30,-27 46,-39l0 0c15,-13 30,-26 46,-38l0 0c15,-14 31,-26 46,-38l0 0c214,-196 519,-226 859,-47l0 0c92,-203 216,-365 363,-481l0 0c15,-13 30,-26 46,-38l0 0c15,-14 30,-26 46,-39l0 0c15,-13 31,-26 46,-38l0 0c15,-13 31,-26 47,-38l0 0c15,-13 30,-26 46,-38l0 0c15,-14 30,-26 46,-39l0 0c15,-13 31,-26 46,-38l0 0c15,-13 31,-26 46,-38l0 0c183,-162 408,-249 660,-249 224,0 470,68 728,213l0 0c858,481 1583,1654 1816,2835l0 0c50,21 101,45 153,74l0 0c749,419 1356,1575 1356,2581l0 0c0,47 -2,92 -5,138l0 0 -44 -25c-1,21 -1,42 -2,63l0 0 -44 -25c-1,21 -1,42 -2,63l0 0 -44 -24c-1,20 -1,42 -3,62l0 0 -43 -24c-1,21 -2,42 -3,63l0 0 -43 -25c-1,21 -2,42 -3,63l0 0 -44 -25c-1,21 -1,43 -2,63l0 0 -44 -24c-1,20 -1,42 -2,62l0 0 -44 -24c-1,21 -1,42 -2,63l0 0 -44 -25c-1,21 -1,42 -3,63l0 0 -6606 -3702c-3,-45 -5,-91 -6,-136z"/>
     <path class="fil14" d="M106569 6185c3,-45 6,-90 6,-137 0,-1006 -607,-2162 -1356,-2582 -52,-29 -103,-52 -154,-73 -233,-1182 -957,-2355 -1815,-2835 -918,-514 -1683,-67 -1857,1000 -75,-62 -153,-116 -232,-161 -665,-372 -1204,50 -1204,943 0,48 3,96 6,144l6606 3701z"/>
    </g>
   </g>
   <g>
    <g>
     <path class="fil15" d="M34497 35556c-325,188 -325,492 -4,678 160,93 371,140 582,140 158,0 316,-26 454,-78 47,-18 91,-39 133,-63 2,-1 4,-2 6,-3 317,-187 317,-488 -2,-673 -321,-187 -846,-187 -1169,-1zm584 -208c242,0 485,54 669,161 365,212 363,557 1,769 -2,1 -4,2 -6,4 -41,23 -85,45 -132,63 -369,148 -878,127 -1204,-62 -367,-214 -365,-562 5,-775 183,-107 425,-160 667,-160z"/>
     <path class="fil15" d="M34289 35435c-440,254 -442,666 -6,920 218,126 504,190 791,190 234,0 468,-42 666,-126 45,-19 89,-41 130,-65 2,-1 4,-2 6,-3 432,-253 433,-663 -1,-915 -436,-254 -1149,-254 -1586,-1zm1536 1034c-487,213 -1185,191 -1626,-65 -483,-281 -480,-737 6,-1017 242,-140 560,-210 877,-210 318,0 636,70 877,210 480,279 481,734 1,1014 -1,1 -3,2 -5,3 -41,23 -85,45 -130,65z"/>
     <path class="fil15" d="M34109 35331c-540,312 -543,820 -7,1131 267,155 620,233 973,233 300,0 600,-56 850,-168 45,-20 88,-42 129,-66 2,-1 3,-2 5,-3 534,-311 535,-817 1,-1127 -535,-311 -1412,-311 -1951,0zm1899 1245c-590,271 -1449,248 -1990,-66 -582,-338 -579,-889 8,-1228 293,-169 677,-253 1061,-253 383,0 766,84 1057,253 580,338 579,886 -2,1225 -2,1 -3,1 -5,2 -41,24 -84,46 -129,67z"/>
     <path class="fil15" d="M32288 36694c133,0 267,-25 379,-75 20,-9 40,-19 58,-30 25,-14 46,-29 66,-45 173,-139 152,-334 -63,-460 -239,-139 -631,-139 -872,0 -242,140 -242,366 -3,506 120,69 277,104 435,104zm503 -646c250,145 269,374 63,533 -20,15 -42,30 -67,44 -18,11 -38,21 -58,30 -277,129 -683,119 -938,-29 -274,-159 -273,-419 3,-578 137,-79 317,-119 498,-119 181,0 362,40 499,119z"/>
     <path class="fil15" d="M32287 36821c190,0 381,-37 536,-111 20,-10 39,-20 58,-31 24,-14 46,-28 67,-43 258,-190 237,-467 -63,-642 -326,-189 -858,-189 -1184,0 -328,189 -330,497 -4,686 162,94 376,141 590,141zm599 -74c-365,178 -911,167 -1252,-31 -360,-209 -358,-549 4,-759 181,-104 418,-156 655,-156 237,0 474,52 654,157 335,195 357,504 64,715 -20,15 -43,29 -67,43 -19,11 -38,21 -58,31z"/>
     <path class="fil15" d="M32287 36934c240,0 480,-48 673,-144 20,-10 39,-20 58,-31 24,-14 46,-28 68,-43 333,-234 312,-582 -64,-800 -399,-232 -1053,-232 -1455,0 -403,233 -405,611 -6,843 200,116 463,175 726,175zm736 -108c-441,221 -1109,211 -1524,-30 -435,-253 -432,-663 6,-916 218,-127 505,-189 791,-189 286,0 572,62 789,189 410,238 431,618 63,872 -21,15 -44,29 -68,43 -19,11 -38,21 -57,31z"/>
     <path class="fil15" d="M34933 39537c25,-15 47,-30 67,-46 171,-139 150,-334 -64,-459 -240,-139 -631,-139 -873,0 -242,140 -242,366 -2,505 119,70 276,105 434,105 135,0 269,-26 381,-76 20,-9 39,-19 57,-29zm-932 -541c137,-80 318,-119 498,-119 181,0 362,39 499,119 249,145 270,372 65,531 -21,16 -43,32 -68,46 -18,10 -37,20 -56,29 -278,130 -685,121 -941,-28 -274,-159 -273,-419 3,-578z"/>
     <path class="fil15" d="M35157 39582c256,-189 235,-466 -65,-640 -326,-189 -857,-189 -1184,-1 -328,190 -330,497 -4,687 162,94 376,141 590,141 191,0 383,-37 538,-112 19,-10 38,-19 56,-30 25,-14 48,-29 69,-45zm-2 -676c334,194 357,503 65,714 -21,15 -44,30 -69,44 -18,10 -36,20 -56,30 -364,179 -912,168 -1253,-30 -361,-209 -359,-549 4,-759 180,-104 417,-156 654,-156 237,0 474,52 655,157z"/>
     <path class="fil15" d="M35294 39663c332,-234 311,-581 -64,-799 -400,-232 -1053,-232 -1456,0 -403,233 -405,611 -5,843 199,116 462,174 726,174 240,0 481,-48 674,-144 19,-10 38,-20 56,-30 25,-14 48,-29 69,-44zm-1 -835c409,238 430,617 64,871 -22,15 -45,30 -70,44 -18,11 -37,21 -56,30 -440,222 -1109,212 -1525,-29 -434,-253 -432,-663 6,-916 219,-127 505,-189 791,-189 287,0 572,62 790,189z"/>
     <path class="fil15" d="M43042 54107c265,0 530,-58 734,-176 347,-201 397,-509 149,-740l104 -64c308,266 257,631 -149,865 -462,267 -1212,268 -1671,1 -459,-267 -457,-702 5,-969 230,-133 533,-199 835,-199 280,0 559,57 782,170l-102 63c-405,-205 -1023,-197 -1410,26 -406,235 -407,615 -5,848 200,117 464,175 728,175z"/>
     <path class="fil15" d="M43041 54321c360,0 720,-80 995,-238 495,-286 545,-734 149,-1052l104 -63c456,352 407,856 -147,1176 -608,351 -1593,350 -2195,0 -604,-351 -601,-920 7,-1271 303,-175 700,-263 1097,-263 370,0 741,77 1034,230l-102 62c-549,-285 -1397,-274 -1925,31 -549,318 -552,833 -6,1151 272,158 630,237 989,237z"/>
     <path class="fil15" d="M43042 54509c442,0 886,-98 1224,-293 624,-360 673,-931 145,-1323l103 -63c588,426 539,1052 -144,1447 -734,423 -1923,424 -2651,1 -727,-423 -723,-1112 11,-1536 366,-211 847,-317 1326,-317 449,0 898,93 1252,278l-102 63c-674,-352 -1720,-339 -2372,37 -676,390 -679,1025 -10,1414 335,195 776,292 1218,292z"/>
     <path class="fil15" d="M43454 50754c-462,267 -1211,268 -1671,1 -459,-267 -457,-702 6,-969 230,-132 532,-199 835,-199 272,0 545,54 764,162l-105 61c-405,-195 -1009,-183 -1390,37 -406,234 -406,614 -5,848 201,116 464,175 728,175 265,0 531,-59 734,-177 355,-204 400,-522 133,-754l107 -61c323,267 276,639 -136,876z"/>
     <path class="fil15" d="M42615 51083c360,0 720,-79 996,-238 498,-288 545,-742 139,-1059l106 -61c464,351 418,860 -139,1182 -609,351 -1594,349 -2196,0 -604,-351 -601,-921 7,-1272 303,-175 700,-262 1097,-262 367,0 734,75 1026,224l-105 61c-550,-278 -1389,-265 -1914,37 -549,318 -552,834 -6,1151 272,158 630,237 989,237z"/>
     <path class="fil15" d="M42616 51271c443,0 886,-97 1224,-292 626,-362 674,-935 141,-1327l106 -61c590,426 541,1053 -143,1448 -734,424 -1923,424 -2650,1 -728,-423 -724,-1111 10,-1535 367,-212 847,-317 1326,-317 449,0 897,92 1251,277l-105 61c-674,-349 -1717,-336 -2367,39 -676,391 -680,1025 -10,1414 334,195 775,292 1217,292z"/>
     <path class="fil15" d="M62109 57728c331,193 872,193 1207,-1 308,-178 333,-459 74,-652l87 -51c307,222 280,548 -75,753 -382,221 -1001,222 -1380,1 -379,-220 -377,-580 5,-800 355,-205 921,-219 1303,-39l-87 50c-334,-152 -821,-140 -1130,39 -336,193 -336,508 -4,700z"/>
     <path class="fil15" d="M61892 57853c450,261 1185,261 1639,-1 427,-246 453,-640 77,-903l87 -50c424,291 399,730 -76,1004 -502,290 -1316,289 -1814,0 -498,-290 -496,-760 6,-1050 477,-275 1235,-289 1737,-40l-87 51c-454,-222 -1136,-208 -1563,39 -455,262 -457,688 -6,950z"/>
     <path class="fil15" d="M61704 57963c554,322 1459,322 2017,-1 532,-307 558,-799 77,-1123l87 -50c529,352 502,888 -78,1223 -606,351 -1588,351 -2189,1 -601,-349 -598,-918 8,-1268 580,-334 1507,-348 2112,-41l-87 50c-557,-279 -1407,-266 -1938,41 -559,323 -562,847 -9,1168z"/>
     <path class="fil15" d="M61970 62994c632,-365 675,-945 126,-1337l105 -61c607,425 564,1060 -127,1459 -734,424 -1922,424 -2650,1 -727,-423 -724,-1112 11,-1536 724,-418 1895,-422 2625,-13l-105 61c-671,-376 -1750,-372 -2416,13 -676,390 -680,1025 -10,1414 670,389 1765,389 2441,-1z"/>
     <path class="fil15" d="M61971 61729c480,353 439,868 -124,1193 -608,351 -1594,350 -2196,0 -604,-351 -601,-920 7,-1271 600,-346 1568,-350 2173,-11l-105 61c-547,-306 -1422,-302 -1963,10 -550,318 -553,833 -7,1151 544,316 1435,316 1985,-1 504,-292 547,-752 125,-1070l105 -62z"/>
     <path class="fil15" d="M61707 61883c337,267 294,646 -123,887 -462,267 -1211,268 -1670,1 -460,-267 -457,-702 5,-969 454,-262 1190,-266 1651,-10l-105 60c-403,-222 -1044,-219 -1442,11 -406,234 -406,614 -5,847 402,234 1056,234 1462,-1 360,-208 401,-532 121,-765l106 -61z"/>
     <path class="fil15" d="M75131 64167c402,233 1056,233 1462,-1 404,-234 406,-613 5,-846 -359,-209 -922,-232 -1326,-67l-106 -61c462,-197 1120,-175 1537,67 459,267 455,701 -6,967 -462,267 -1211,268 -1671,1 -439,-255 -456,-665 -51,-934l105 61c-349,236 -331,591 51,813z"/>
     <path class="fil15" d="M74869 64318c544,316 1435,316 1985,-1 547,-316 550,-832 6,-1148 -504,-293 -1302,-316 -1853,-69l-106 -60c610,-281 1502,-259 2064,68 602,350 601,921 -5,1271 -608,351 -1594,350 -2196,0 -584,-340 -600,-883 -51,-1236l105 60c-492,319 -475,809 51,1115z"/>
     <path class="fil15" d="M74642 64452c669,389 1765,389 2441,-2 674,-389 678,-1023 8,-1413 -628,-365 -1632,-387 -2311,-67l-105 -60c737,-355 1834,-332 2521,67 728,423 724,1111 -9,1534 -734,424 -1923,424 -2650,1 -707,-411 -723,-1073 -50,-1499l105 60c-616,393 -599,1001 50,1379z"/>
     <path class="fil15" d="M84900 62676c401,233 1055,233 1461,-1 404,-233 406,-612 5,-846 -382,-222 -995,-233 -1401,-33l-105 -60c463,-234 1171,-223 1611,33 459,267 455,701 -5,966 -463,267 -1212,268 -1671,2 -417,-243 -454,-623 -112,-891l106 61c-286,234 -248,560 111,769z"/>
     <path class="fil15" d="M84637 62827c545,317 1435,317 1985,-1 548,-316 551,-832 6,-1148 -527,-306 -1375,-317 -1926,-33l-105 -60c610,-318 1551,-308 2136,32 602,350 601,921 -5,1271 -608,351 -1593,350 -2195,0 -562,-326 -599,-841 -114,-1194l106 61c-428,319 -391,780 112,1072z"/>
     <path class="fil15" d="M84410 62961c670,389 1766,389 2442,-1 673,-389 677,-1024 8,-1413 -652,-379 -1706,-389 -2383,-32l-105 -60c736,-391 1883,-381 2592,31 728,423 724,1111 -8,1534 -735,424 -1923,424 -2651,1 -684,-397 -721,-1030 -112,-1457l106 60c-553,393 -516,973 111,1337z"/>
     <path class="fil15" d="M80017 57259c379,221 376,579 -4,799 -382,220 -1001,221 -1381,1 -370,-216 -377,-564 -21,-785l87 50c-310,194 -302,497 21,685 332,192 872,192 1208,-1 333,-193 335,-506 3,-699 -277,-161 -701,-188 -1028,-80l-89 -51c376,-134 879,-107 1204,81z"/>
     <path class="fil15" d="M80142 58133c452,-261 454,-687 5,-948 -398,-232 -1016,-259 -1467,-83l-88 -51c500,-203 1196,-176 1642,83 497,290 496,761 -5,1050 -502,290 -1316,289 -1813,0 -490,-285 -496,-744 -21,-1035l87 50c-428,263 -422,678 21,935 449,261 1185,261 1639,-1z"/>
     <path class="fil15" d="M80331 58243c557,-321 560,-845 7,-1167 -500,-291 -1289,-318 -1847,-83l-87 -51c607,-263 1472,-235 2021,84 601,349 597,918 -8,1267 -278,161 -635,248 -998,261l-786 -149 -95 -55c551,210 1305,175 1793,-107z"/>
     <path class="fil15" d="M78296 57092c-466,284 -519,713 -157,1028l-270 -156c-190,-310 -76,-669 340,-922l87 50z"/>
    </g>
    <g>
     <path class="fil16" d="M34954 35637l5 0c319,0 605,226 386,405l0 0c-16,13 -34,25 -55,38l0 0c-24,13 -48,24 -73,34l0 0c-404,159 -942,-178 -557,-400l0 0c92,-53 194,-76 294,-77z"/>
     <path class="fil16" d="M33469 37793c-17,15 -39,30 -63,45l0 0c-20,11 -40,21 -61,29l0 0c-406,171 -959,-171 -570,-396l0 0c93,-54 197,-76 298,-76l0 0c316,0 599,220 396,398l0 0z"/>
     <path class="fil16" d="M34478 39026l5 0c314,0 596,218 398,395l0 0c-18,16 -40,32 -67,47l0 0c-18,11 -37,20 -56,28l0 0c-407,176 -965,-167 -573,-394l0 0c91,-52 194,-75 293,-76z"/>
     <path class="fil16" d="M41489 39627l-127 74 -6145 -3587c25,-10 49,-21 73,-34l0 0c21,-13 39,-25 55,-38l0 0 6144 3585z"/>
     <path class="fil16" d="M34431 37499l3570 668 2987 1750 -127 73 -2956 -1732 -3570 -669 -2043 -1188c13,-6 25,-13 38,-20l0 0c33,-19 59,-39 79,-59l0 0 2022 1177z"/>
     <path class="fil16" d="M34145 38187l3682 551 2581 1514 -127 73 -2547 -1494 -3682 -551 -707 -413c21,-8 41,-18 61,-29l0 0c24,-15 46,-30 63,-45l0 0 676 394z"/>
     <path class="fil16" d="M38254 40629c-14,10 -30,21 -48,31l0 0c-27,16 -55,29 -83,39l0 0c-404,150 -928,-184 -546,-405l0 0c92,-53 196,-76 297,-76l0 0c324,0 613,231 380,411l0 0z"/>
     <path class="fil16" d="M39181 41181l-127 73 -931 -555c28,-10 56,-23 83,-39l0 0c18,-10 34,-21 48,-31l927 552z"/>
     <path class="fil16" d="M38531 41556l-127 73 -3646 -2133c19,-8 38,-17 56,-28l0 0c27,-15 49,-31 67,-47l0 0 3650 2135z"/>
     <polygon class="fil16" points="41362,39701 41362,28535 41489,28535 41489,39627 "/>
     <polygon class="fil16" points="40861,39990 40861,28825 40988,28825 40988,39917 "/>
     <polygon class="fil16" points="40281,40326 40281,29161 40408,29161 40408,40253 "/>
     <polygon class="fil16" points="39181,25166 39181,41181 39054,41254 39054,25166 "/>
     <polygon class="fil16" points="38404,41629 38404,25541 38531,25541 38531,41556 "/>
     <path class="fil16" d="M32685 36446c-20,21 -46,40 -78,59l0 0c-13,7 -26,14 -39,20l0 0c-407,193 -987,-157 -591,-386l0 0c93,-54 197,-76 298,-76l0 0c308,0 584,209 410,383l0 0z"/>
     <path class="fil16" d="M69896 53190c7,1 14,2 21,3l0 0c449,87 446,853 -19,787l0 0c-425,-60 -469,-706 -129,-786l0 0c23,-5 47,-8 73,-8l0 0c17,0 35,1 54,4l0 0z"/>
     <path class="fil16" d="M68080 56035l4 0 3 0c17,1 34,2 52,4l0 0c15,3 31,6 45,9l0 0c424,110 412,845 -44,781l0 0c-436,-61 -470,-739 -101,-790l0 0c13,-2 27,-3 41,-4z"/>
     <path class="fil16" d="M68154 48086l1 246 29 7716c-14,-3 -30,-6 -45,-9l0 0c-36,-5 -70,-5 -100,0l0 0 -30 -7974 145 21z"/>
     <path class="fil16" d="M68131 35486l23 12575 1744 2886 -2 2243c-47,-7 -89,-4 -127,4l-19 -2218 -1595 -2644 -1 -246 -145 -21 -23 -12599 145 20z"/>
     <path class="fil16" d="M67104 35342l40 22623c-37,-19 -79,-32 -146,-41l0 0 -40 -22602 146 20z"/>
     <path class="fil16" d="M64701 46893c15,1 30,2 46,4l0 0c36,5 69,14 100,27l0 0c369,155 337,824 -99,763l0 0c-451,-63 -472,-794 -56,-794l0 0c3,0 6,0 9,0l0 0z"/>
     <path class="fil16" d="M64830 37860l17 9064c-31,-13 -64,-22 -100,-27l0 0c-16,-2 -31,-3 -46,-4l0 0 -17 -9053 146 20z"/>
     <path class="fil16" d="M66104 35202l22 12148 -1575 1398 7 7653c-15,-4 -31,-8 -48,-10l0 0c-36,-5 -69,-5 -99,-1l0 0 -8 -7730 1578 -1398 -23 -12081 146 21z"/>
     <path class="fil16" d="M64559 56400l-1406 812c-19,-16 -41,-32 -67,-46l0 0c-26,-16 -53,-29 -80,-40l1407 -812 146 86z"/>
     <path class="fil16" d="M63006 57126c27,11 54,24 80,40l0 0c26,14 48,30 67,46l0 0c154,128 83,278 -82,374l0 0c-185,107 -488,145 -725,7l0 0c-237,-137 -170,-313 16,-420l0 0c101,-58 237,-96 378,-96l0 0c89,0 180,15 266,49l0 0z"/>
     <path class="fil16" d="M66153 57007l-5693 3293c-20,-16 -43,-33 -70,-48l0 0c-25,-15 -50,-27 -76,-38l5692 -3293 147 86z"/>
     <path class="fil16" d="M67144 57960l-1491 860 -1124 2491 -808 474c-17,-14 -37,-27 -59,-40l0 0c-29,-17 -60,-32 -91,-44l0 0 770 -452 1125 -2491 1531 -883 147 85z"/>
     <path class="fil16" d="M63315 61656l4 0c84,1 170,14 252,45l0 0c31,12 62,27 91,44l0 0c22,13 42,26 59,40l0 0c164,130 94,283 -74,380l0 0c-185,107 -487,145 -724,7l0 0c-237,-138 -171,-313 14,-420l0 0c101,-58 237,-96 378,-96z"/>
     <path class="fil16" d="M66735 57345l-1972 1138 -1361 2416 -2375 1378c-12,-9 -25,-17 -40,-26l0 0c-38,-22 -77,-39 -118,-53l0 0 2350 -1364 1361 -2416 2008 -1158 147 85z"/>
     <path class="fil16" d="M66113 34383l40 22623c-38,-19 -79,-32 -146,-41l0 0 -40 -22602 146 20z"/>
     <path class="fil16" d="M66695 34720l40 22623c-37,-19 -79,-33 -146,-42l0 0 -40 -22602 146 21z"/>
     <path class="fil16" d="M60510 60043c31,12 62,27 92,44l0 0c22,13 42,26 59,39l0 0c164,131 93,284 -74,381l0 0c-185,106 -488,144 -725,7l0 0c-237,-138 -170,-314 15,-420l0 0c101,-58 236,-96 378,-96l0 0c85,0 172,14 255,45l0 0z"/>
     <path class="fil16" d="M61032 62020c31,12 62,27 92,44l0 0c22,13 41,26 58,39l0 0c164,131 94,284 -73,381l0 0c-185,106 -488,144 -725,7l0 0c-237,-138 -170,-314 15,-420l0 0c100,-59 236,-96 377,-96l0 0c86,0 173,14 256,45l0 0z"/>
     <path class="fil16" d="M62217 44963l0 234 14 2334c-16,-5 -32,-8 -48,-10l0 0c-31,-5 -59,-5 -85,-2l0 0 -14 -2574 133 18z"/>
     <path class="fil16" d="M63263 50570c16,2 32,6 48,10l0 0c378,105 363,765 -47,708l0 0c-397,-56 -428,-679 -87,-719l0 0c12,-2 24,-2 36,-2l0 0c16,0 32,1 50,3l0 0z"/>
     <path class="fil16" d="M62192 31491l25 13450 1077 1851 -31 3778c-31,-4 -59,-4 -86,-1l0 0 -16 -3750 -944 -1622 0 -234 -133 -18 -25 -13473 133 19z"/>
     <path class="fil16" d="M60318 45656c17,2 33,5 48,10l0 0c379,105 364,765 -47,707l0 0c-396,-56 -427,-678 -86,-719l0 0c12,-1 24,-2 36,-2l0 0c16,0 32,1 49,4l0 0z"/>
     <path class="fil16" d="M61548 31400l21 11183 -1215 1259 12 1824c-15,-5 -31,-8 -48,-10l0 0c-30,-5 -59,-5 -85,-2l0 0 -13 -1888 1215 -1259 -21 -11126 134 19z"/>
     <path class="fil16" d="M62130 47517l4 0 3 0c15,0 30,2 46,4l0 0c16,2 32,5 48,10l0 0c378,105 364,765 -47,707l0 0c-397,-55 -426,-678 -86,-719l0 0c10,-1 21,-2 32,-2z"/>
     <path class="fil16" d="M46537 48180l-3275 1887c-21,-16 -44,-31 -70,-46l0 0c-50,-29 -101,-52 -154,-70l3286 -1894 213 123z"/>
     <path class="fil16" d="M42691 49893l6 0c114,1 230,18 341,58l0 0c53,18 104,41 154,70l0 0c26,15 49,30 70,46l0 0c536,395 -470,949 -1128,569l0 0c-530,-306 -19,-743 557,-743z"/>
     <polygon class="fil16" points="46324,48057 46324,28397 46537,28397 46537,48180 "/>
     <polygon class="fil16" points="48815,49973 48815,30313 49028,30313 49028,50096 "/>
     <path class="fil16" d="M43204 53119l5 0c110,0 223,17 331,54l0 0c56,19 111,43 163,73l0 0c23,14 45,27 64,41l0 0c551,396 -457,956 -1120,573l0 0c-530,-306 -19,-741 557,-741z"/>
     <path class="fil16" d="M49028 50096l-1431 858 239 3093 -1463 831c-19,-14 -40,-28 -63,-41l0 0c-53,-30 -108,-55 -163,-74l0 0 1383 -785 -220 -2855 -3543 2164c-19,-14 -41,-27 -64,-41l0 0c-52,-30 -107,-54 -163,-73l3751 -2292 -4 -38 1527 -871 214 124z"/>
     <path class="fil16" d="M45955 54629l6 0c110,0 223,17 331,53l0 0c56,20 110,44 163,74l0 0c23,14 44,27 63,41l0 0c552,396 -457,956 -1120,573l0 0c-530,-306 -18,-741 557,-741z"/>
     <path class="fil16" d="M47722 29068l16 8768c-10,-2 -20,-4 -30,-6l0 0c-37,-5 -71,-4 -102,1l0 0 -16 -8781 132 18z"/>
     <path class="fil16" d="M47708 37830c10,2 20,4 30,6l0 0c397,89 389,771 -29,712l0 0c-390,-55 -425,-659 -103,-717l0 0c17,-3 35,-4 53,-4l0 0c15,0 32,1 49,3l0 0z"/>
     <path class="fil16" d="M47490 45455l2 0 1 0c15,0 31,1 47,3l0 0c30,4 58,12 84,22l0 0c341,135 315,750 -83,694l0 0c-410,-58 -429,-719 -51,-719z"/>
     <path class="fil16" d="M46469 28892l19 10091 1113 2165 23 4332c-26,-10 -54,-18 -132,-25l0 0 -22 -4286 -1115 -2165 -19 -10131 133 19z"/>
     <path class="fil16" d="M45608 46483c12,1 26,2 40,3l0 0c33,5 63,14 91,26l0 0c334,141 306,746 -90,690l0 0c-410,-57 -428,-719 -51,-719l0 0c3,0 6,0 10,0l0 0z"/>
     <path class="fil16" d="M45706 28785l33 17727c-28,-12 -58,-21 -91,-26l0 0c-14,-1 -28,-2 -40,-3l0 0 -33 -17717 131 19z"/>
     <path class="fil16" d="M44560 35824c10,1 20,2 31,3l0 0c36,5 70,16 101,30l0 0c323,149 290,743 -100,688l0 0c-410,-58 -429,-721 -51,-721l0 0c6,0 13,0 19,0l0 0z"/>
     <path class="fil16" d="M44678 28641l14 7216c-31,-14 -65,-25 -101,-30l0 0c-11,-1 -21,-2 -31,-3l0 0 -13 -7202 131 19z"/>
     <path class="fil16" d="M43844 41992l1 234 13 2334c-15,-5 -31,-8 -48,-10l0 0c-31,-5 -59,-5 -85,-2l0 0 -14 -2574 133 18z"/>
     <path class="fil16" d="M44890 47599c17,2 32,6 48,10l0 0c378,105 363,765 -47,708l0 0c-397,-56 -427,-679 -86,-719l0 0c11,-2 23,-2 36,-2l0 0c15,0 32,1 49,3l0 0z"/>
     <path class="fil16" d="M43819 28520l25 13450 1078 1851 -32 3778c-31,-4 -59,-4 -85,-1l0 0 -16 -3750 -944 -1622 -1 -234 -133 -18 -25 -13473 133 19z"/>
     <path class="fil16" d="M41893 42681l4 0 3 0c15,0 30,1 46,4l0 0c16,2 32,6 48,10l0 0c378,105 363,765 -47,707l0 0c-397,-56 -428,-678 -87,-719l0 0c11,-1 22,-2 33,-2z"/>
     <path class="fil16" d="M43175 28429l21 11183 -1215 1259 13 1824c-16,-4 -32,-8 -48,-10l0 0c-31,-5 -59,-5 -86,-2l0 0 -12 -1888 1214 -1259 -20 -11125 133 18z"/>
     <path class="fil16" d="M43810 44550c17,2 33,5 48,10l0 0c378,105 364,765 -47,707l0 0c-396,-55 -426,-678 -86,-719l0 0c11,-1 23,-2 36,-2l0 0c15,0 32,1 49,4l0 0z"/>
     <path class="fil16" d="M79067 57324c-46,16 -90,36 -133,61l0 0c-22,13 -43,26 -61,40l0 0 -2965 -1708 184 -106 2975 1713z"/>
     <path class="fil16" d="M79848 57916c-568,329 -1438,-150 -975,-491l0 0c18,-14 39,-27 61,-40l0 0c43,-25 87,-45 133,-61l0 0c97,-34 199,-49 299,-49l0 0c498,0 940,377 482,641l0 0z"/>
     <path class="fil16" d="M78633 58405l3409 649 2202 1259c-18,9 -37,18 -55,29l0 0c-48,27 -85,56 -114,85l0 0 -2174 -1242 -3409 -647 -3736 -2156 185 -107 3692 2130z"/>
     <polygon class="fil16" points="75908,55717 75908,40496 76092,40496 76092,55611 "/>
     <polygon class="fil16" points="74940,41165 74940,56280 74756,56386 74756,41165 "/>
     <polygon class="fil16" points="73797,56939 73797,41717 73981,41717 73981,56832 "/>
     <polygon class="fil16" points="72758,42420 72758,57535 72574,57641 72574,42420 "/>
     <polygon class="fil16" points="71313,58369 71313,43148 71497,43148 71497,58263 "/>
     <path class="fil16" d="M85103 60873c-544,314 -1362,-110 -1028,-446l0 0c29,-29 66,-58 114,-85l0 0c18,-11 37,-20 55,-29l0 0c120,-57 250,-81 376,-81l0 0c498,0 941,377 483,641l0 0z"/>
     <path class="fil16" d="M79303 61303c-55,17 -109,40 -160,70l0 0c-15,8 -28,17 -41,26l0 0 -6528 -3758 184 -106 6545 3768z"/>
     <path class="fil16" d="M78133 59226l3593 706 3664 2109c-42,16 -83,34 -122,57l0 0c-26,15 -48,30 -68,45l-3615 -2080 -3593 -706 -4194 -2422 183 -106 4152 2397z"/>
     <path class="fil16" d="M80055 61903c-577,334 -1459,-162 -953,-504l0 0c13,-9 26,-18 41,-26l0 0c51,-30 105,-53 160,-70l0 0c89,-28 181,-40 271,-40l0 0c498,0 939,376 481,640l0 0z"/>
     <path class="fil16" d="M78214 62065l5 0c497,0 939,376 481,640l0 0c-573,331 -1444,-153 -968,-495l0 0c17,-12 35,-24 55,-35l0 0c46,-26 93,-48 141,-64l0 0c94,-32 191,-46 286,-46z"/>
     <path class="fil16" d="M72954 59093l-4 32 4978 2986c-48,16 -95,38 -141,64l0 0c-20,11 -38,23 -55,35l0 0 -4798 -2875 -190 2466 2933 1684c-49,17 -96,38 -141,64l0 0c-20,11 -38,23 -55,35l-3002 -1724 207 -2672 -1373 -818 186 -107 1455 830z"/>
     <path class="fil16" d="M86091 62519c-572,330 -1443,-154 -967,-495l0 0c16,-12 35,-24 55,-36l0 0c45,-26 92,-47 141,-63l0 0c95,-33 193,-47 290,-47l0 0c497,0 939,376 481,641l0 0z"/>
     <path class="fil16" d="M76323 64009c-572,331 -1444,-153 -967,-495l0 0c16,-12 34,-23 54,-35l0 0c46,-26 93,-47 141,-64l0 0c95,-32 194,-46 291,-46l0 0c497,0 939,376 481,640l0 0z"/>
     <path class="fil16" d="M42252 38129l4 0 3 0c17,0 34,2 51,4l0 0c7,1 14,3 21,4l0 0c451,86 445,852 -20,786l0 0c-424,-60 -468,-706 -128,-786l0 0c22,-5 45,-7 69,-8z"/>
     <path class="fil16" d="M42311 27552l-1 10581c-47,-6 -89,-4 -127,4l0 0 -19 -10606 147 21z"/>
     <path class="fil16" d="M77059 52868c15,0 30,2 46,4l0 0c36,5 69,14 100,27l0 0c369,155 338,824 -99,763l0 0c-451,-64 -472,-794 -56,-794l0 0c3,0 6,0 9,0l0 0z"/>
     <path class="fil16" d="M77188 43835l17 9064c-31,-13 -64,-22 -100,-27l0 0c-16,-2 -31,-4 -46,-4l0 0 -17 -9054 146 21z"/>
    </g>
    <g>
     <polygon class="fil17" points="68255,10155 71452,12001 73041,16104 71434,18363 68237,16517 66647,12413 "/>
     <polygon class="fil17" points="76558,24770 78166,22512 81363,24357 82951,28461 81345,30720 78148,28874 "/>
     <path class="fil18" d="M73282 9795l-1578 2216 1560 4029 3138 1811 1577 -2217 -1560 -4028 -3137 -1811zm3179 8208l-3257 -1881 -1618 -4179 15 -20 1622 -2280 3256 1880 1619 4180 -15 21 -1622 2279z"/>
     <path class="fil18" d="M71582 18547l1622 -2280 3257 1880 1618 4181 -15 20 -1622 2280 -3256 -1880 -1619 -4180 15 -21zm1681 -2128l-1578 2218 1561 4027 3137 1811 1578 -2215 -1560 -4030 -3138 -1811z"/>
     <polygon class="fil17" points="87556,49700 89164,47442 92361,49288 93949,53392 92343,55650 89146,53805 "/>
     <path class="fil18" d="M87459 42933l-3257 -1880 -1618 -4179 15 -20 1622 -2280 3256 1880 1619 4179 -15 22 -1622 2278zm-3197 -1963l3138 1812 1577 -2217 -1560 -4028 -3137 -1812 -1578 2217 1560 4028z"/>
     <path class="fil18" d="M84261 41350l-1578 2218 1561 4027 3137 1811 1578 -2215 -1561 -4030 -3137 -1811zm-1681 2128l1622 -2280 3257 1880 1618 4181 -15 20 -1622 2280 -3256 -1880 -1619 -4180 15 -21z"/>
     <path class="fil17" d="M38679 15114l777 2008 -1835 1066c-5,3 -10,6 -15,9 -1,0 -2,1 -3,2 -644,374 -1144,994 -1449,1830l-690 -399 -1590 -4104 1608 -2258 3197 1846z"/>
     <path class="fil18" d="M40508 12908l-1578 2216 729 1880 -75 44 -772 -1992 15 -20 1622 -2280 3257 1880 665 1719c-21,24 -43,48 -64,73l-661 -1709 -3138 -1811z"/>
     <path class="fil18" d="M30660 19728l-1622 2280 -3257 -1880 -1618 -4180 15 -22 1622 -2278 3256 1880 1619 4180 -15 20zm-1681 2128l1577 -2217 -1560 -4028 -3137 -1811 -1578 2216 1560 4029 3138 1811z"/>
     <polygon class="fil17" points="83541,55211 80344,53366 78754,49261 80362,47003 83559,48849 85148,52953 "/>
     <polygon class="fil17" points="82432,43294 79235,41448 77645,37344 79253,35086 82450,36931 84039,41035 "/>
     <polygon class="fil17" points="74150,28022 72543,30281 69346,28435 67756,24331 69364,22073 72561,23918 "/>
     <path class="fil18" d="M58633 10687l-1578 2216 1560 4028 3137 1812 1578 -2217 -1560 -4028 -3137 -1811zm4800 5927l-1621 2281 -3257 -1881 -1619 -4179 15 -22 1622 -2278 3257 1880 1618 4180 -15 19z"/>
    </g>
    <g>
     <path class="fil11" d="M44902 16798l1446 835 -2973 1727 -1445 -834c-1684,-973 -3219,-1060 -4328,-415l2973 -1727c468,-273 1011,-414 1610,-414l0 0c820,0 1744,266 2717,828l0 0z"/>
     <path class="fil11" d="M65892 16564c5754,3322 10401,11373 10382,17982l0 0c0,127 -4,252 -8,375l0 0 -2972 1728c4,-123 7,-248 7,-375l0 0c19,-6609 -4628,-14660 -10382,-17983l0 0c-2329,-1345 -4594,-30 -6333,455l-1851 458 -1292 662 -437 -2305 3523 -589 1951 -1133c796,-463 1720,-704 2739,-704 1406,0 2994,460 4673,1429l0 0z"/>
     <path class="fil13" d="M80171 39222c1102,1903 1779,4049 1775,5972l0 0c-5,1912 -686,3262 -1782,3897l0 0 -2973 1728c1096,-636 1777,-1985 1781,-3898l0 0c6,-1922 -674,-4068 -1773,-5971l0 0c-1014,-1758 -2386,-3310 -3905,-4301l0 0 2972 -1728c1520,990 2891,2543 3905,4301l0 0z"/>
     <path class="fil13" d="M52047 14386l4482 2586 -1021 594c369,-213 766,-382 1188,-497l0 0 250 144 -2975 1727 -4897 -2827c-1572,-908 -3002,-987 -4037,-388l2974 -1727c436,-253 942,-385 1501,-385 764,0 1626,248 2535,773l0 0z"/>
     <path class="fil19" d="M49074 16113l4898 2828c1832,-2426 5157,-2838 8946,-650l0 0c5754,3322 10401,11374 10383,17983l0 0c-1,126 -3,251 -7,375l0 0c1519,990 2890,2542 3905,4300l0 0c1100,1904 1779,4050 1774,5973l0 0c-11,3849 -2760,5416 -6110,3481l0 0 -30972 -17882c-1675,-967 -3196,-2632 -4296,-4538l0 0c-1100,-1906 -1779,-4050 -1774,-5975l0 0c11,-3847 2759,-5416 6109,-3482l0 0 1446 835c7,-2546 1298,-4021 3163,-4021l0 0c765,0 1627,248 2535,773l0 0z"/>
    </g>
    <g>
     <polygon class="fil20" points="50819,41597 50153,41985 47738,40591 48405,40203 "/>
     <polygon class="fil20" points="60857,47393 60190,47780 57910,46464 58576,46076 "/>
     <polygon class="fil21" points="58576,46076 57910,46464 57927,40161 58594,39774 "/>
     <polygon class="fil20" points="58594,39774 57927,40161 50170,35683 50837,35295 "/>
     <polygon class="fil22" points="57927,40161 57910,46464 60190,47780 53944,51129 47738,40591 50153,41985 50170,35683 "/>
     <polygon class="fil21" points="58595,39514 57928,39902 57933,38101 58600,37714 "/>
     <polygon class="fil20" points="58600,37714 57933,38101 50176,33623 50843,33235 "/>
     <polygon class="fil22" points="57933,38101 57928,39902 50171,35423 50176,33623 "/>
     <polygon class="fil21" points="58601,37467 57934,37854 57938,36587 58604,36199 "/>
     <polygon class="fil20" points="58604,36199 57938,36587 50181,32108 50847,31721 "/>
     <polygon class="fil22" points="57938,36587 57934,37854 50177,33376 50181,32108 "/>
    </g>
   </g>
   <path class="fil23" d="M3360 34567c-925,30 -1667,790 -1672,1731l-15 0c-8,-941 -750,-1701 -1673,-1731 928,-30 1673,-797 1673,-1743l12 0c0,946 745,1713 1675,1743z"/>
   <path class="fil24" d="M103459 69283c-1454,48 -2619,1241 -2627,2718l-24 0c-12,-1477 -1177,-2670 -2627,-2718 1458,-47 2627,-1252 2627,-2737l20 0c0,1485 1169,2690 2631,2737z"/>
   <g>
    <path class="fil25" d="M81520 84912c0,-2303 -1867,-4170 -4170,-4170 -2303,0 -4170,1867 -4170,4170 0,2303 1867,4170 4170,4170 2303,0 4170,-1867 4170,-4170z"/>
    <path class="fil26" d="M81428 84041c-400,-1885 -2074,-3299 -4078,-3299 -2303,0 -4170,1867 -4170,4170 0,528 98,1032 277,1497 667,-189 1674,-525 3172,-1084 2198,-820 3713,-1186 4799,-1284z"/>
    <path class="fil27" d="M77350 89082c1694,0 3152,-1010 3804,-2461 -638,-22 -1351,-85 -2106,-217 -1859,-324 -3760,594 -4835,1255 764,872 1886,1423 3137,1423z"/>
    <path class="fil28" d="M73212 84392c1332,-151 2745,-507 4038,-1225 1150,-638 2063,-1105 2782,-1448 -725,-610 -1660,-977 -2682,-977 -2127,0 -3882,1592 -4138,3650z"/>
    <path class="fil29" d="M79093 87729c-2109,0 -3820,-1710 -3820,-3820 0,-1305 655,-2457 1653,-3146 -2104,212 -3746,1989 -3746,4149 0,2303 1867,4170 4170,4170 1385,0 2613,-676 3371,-1716 -494,233 -1046,363 -1628,363z"/>
   </g>
   <g>
    <g>
     <path class="fil13" d="M42191 90986l0 6 0 6c0,119 -7,232 -13,346l0 0 -114 -64c-3,54 -3,110 -7,163l0 0 -113 -63c-3,54 -4,109 -7,163l0 0 -114 -64c-2,54 -3,110 -6,164l0 0 -114 -64c-2,54 -3,110 -6,163l0 0 -114 -63c-2,54 -3,110 -6,163l0 0 -114 -64c-3,54 -3,110 -7,164l0 0 -113 -64c-3,54 -4,110 -7,163l0 0 -114 -63c-2,54 -3,110 -6,163l0 0 -114 -64c-2,54 -3,110 -6,164l0 0 -17201 -9637c-8,-125 -14,-250 -14,-373l0 0c0,-1175 359,-2036 937,-2476l0 0c38,-36 79,-69 120,-100l0 0c39,-36 79,-68 120,-100l0 0c39,-35 79,-68 120,-99l0 0c39,-36 80,-69 121,-100l0 0c38,-36 79,-68 120,-100l0 0c38,-35 79,-68 120,-99l0 0c39,-36 79,-69 120,-100l0 0c39,-36 79,-68 121,-100l0 0c556,-509 1350,-586 2235,-121l0 0c241,-529 561,-951 945,-1253l0 0c39,-35 79,-68 120,-100l0 0c39,-34 79,-67 120,-99l0 0c39,-35 79,-68 120,-100l0 0c39,-35 80,-68 120,-100l0 0c40,-34 80,-67 121,-99l0 0c39,-35 79,-68 120,-100l0 0c39,-35 79,-68 120,-100l0 0c39,-34 80,-67 120,-100l0 0c477,-422 1061,-647 1718,-647l0 0c583,0 1224,178 1896,555l0 0c2234,1252 4120,4305 4727,7381l0 0c131,54 264,116 399,192l0 0c1950,1092 3530,4101 3530,6720z"/>
     <path class="fil12" d="M32453 77590c2234,1252 4120,4305 4727,7381 131,54 264,116 399,192 1950,1092 3531,4101 3531,6720 0,67 -2,132 -5,196l-3 -2c-2,53 -3,106 -6,158 0,1 0,2 0,4 0,0 0,1 0,2l-17201 -9637c-8,-125 -14,-250 -14,-373 0,-1175 359,-2037 937,-2476 2,-2 4,-4 6,-6 565,-426 1338,-451 2192,27 206,116 407,257 602,417 83,-508 218,-962 397,-1357 241,-529 561,-951 945,-1253 5,-5 11,-10 16,-15 892,-691 2120,-738 3477,22z"/>
    </g>
    <g>
     <path class="fil11" d="M26350 64643l0 -11c0,-727 222,-1260 580,-1532l0 0c24,-22 48,-43 74,-62l0 0c24,-22 49,-42 75,-62l0 0c23,-22 48,-42 74,-61l0 0c24,-22 49,-42 74,-62l0 0c24,-22 49,-42 75,-62l0 0c24,-22 49,-42 74,-61l0 0c24,-22 49,-43 74,-62l0 0c24,-22 49,-42 75,-62l0 0c344,-314 835,-363 1383,-75l0 0c149,-327 347,-588 584,-775l0 0c25,-21 49,-42 74,-62l0 0c25,-21 50,-41 75,-61l0 0c24,-22 49,-42 74,-62l0 0c24,-21 50,-42 75,-62l0 0c24,-21 49,-41 74,-61l0 0c24,-22 49,-42 75,-62l0 0c24,-21 49,-42 74,-62l0 0c24,-21 49,-41 74,-61l0 0c295,-261 657,-401 1063,-401 361,0 757,110 1173,343l0 0c1382,775 2549,2664 2924,4567l0 0c81,34 164,72 248,119l0 0c1206,676 2184,2537 2184,4158l0 0c0,76 -5,148 -9,221l0 0 -70 -40c-2,34 -2,68 -4,101l0 0 -71 -39c-1,33 -2,68 -4,101l0 0 -70 -39c-2,33 -2,67 -4,101l0 0 -71 -40c-1,34 -2,68 -3,101l0 0 -71 -39c-1,34 -2,68 -4,101l0 0 -70 -39c-2,33 -2,68 -4,101l0 0 -71 -40c-1,34 -2,68 -4,101l0 0 -70 -39c-2,33 -2,68 -4,101l0 0 -70 -39c-2,33 -2,68 -4,101l0 0 -10642 -5963c-5,-73 -8,-147 -9,-219z"/>
     <path class="fil30" d="M37001 70825c4,-73 8,-145 8,-221 0,-1621 -978,-3482 -2184,-4158 -84,-47 -166,-85 -247,-119 -375,-1903 -1542,-3792 -2925,-4567 -1478,-828 -2710,-106 -2991,1611 -121,-99 -245,-186 -372,-258 -1072,-600 -1940,80 -1940,1519 0,76 4,153 9,231l10642 5962z"/>
    </g>
   </g>
  </g>
 </g>
</svg>
