<?xml version="1.0" encoding="UTF-8"?>
<!DOCTYPE svg PUBLIC "-//W3C//DTD SVG 1.1//EN" "http://www.w3.org/Graphics/SVG/1.1/DTD/svg11.dtd">
<!-- Creator: CorelDRAW X7 -->
<svg xmlns="http://www.w3.org/2000/svg" xml:space="preserve" width="8.18043in" height="5.04402in" version="1.1" style="shape-rendering:geometricPrecision; text-rendering:geometricPrecision; image-rendering:optimizeQuality; fill-rule:evenodd; clip-rule:evenodd"
viewBox="0 0 81804 50440"
 xmlns:xlink="http://www.w3.org/1999/xlink">
 <defs>
  <style type="text/css">
   <![CDATA[
    .str0 {stroke:#6C87C3;stroke-width:34.7244}
    .fil16 {fill:none;fill-rule:nonzero}
    .fil54 {fill:#7875A3}
    .fil1 {fill:#9F9CCB}
    .fil2 {fill:#BBB8DA}
    .fil12 {fill:#CEB78C}
    .fil0 {fill:#E1E7F4}
    .fil4 {fill:#E4CFA9}
    .fil9 {fill:#E9EDF7}
    .fil3 {fill:#EDDFC4}
    .fil5 {fill:#F7F1E5}
    .fil53 {fill:#12395F;fill-rule:nonzero}
    .fil49 {fill:#123A62;fill-rule:nonzero}
    .fil52 {fill:#123B63;fill-rule:nonzero}
    .fil51 {fill:#133D66;fill-rule:nonzero}
    .fil50 {fill:#14416E;fill-rule:nonzero}
    .fil17 {fill:#154471;fill-rule:nonzero}
    .fil18 {fill:#164675;fill-rule:nonzero}
    .fil19 {fill:#164879;fill-rule:nonzero}
    .fil20 {fill:#174A7C;fill-rule:nonzero}
    .fil21 {fill:#184C80;fill-rule:nonzero}
    .fil22 {fill:#184E84;fill-rule:nonzero}
    .fil26 {fill:#1A548D;fill-rule:nonzero}
    .fil55 {fill:#536896;fill-rule:nonzero}
    .fil58 {fill:#6C87C3;fill-rule:nonzero}
    .fil47 {fill:#717070;fill-rule:nonzero}
    .fil46 {fill:#757574;fill-rule:nonzero}
    .fil14 {fill:#7875A3;fill-rule:nonzero}
    .fil45 {fill:#7A7978;fill-rule:nonzero}
    .fil15 {fill:#7E7977;fill-rule:nonzero}
    .fil37 {fill:#7E7D7D;fill-rule:nonzero}
    .fil25 {fill:#827D7B;fill-rule:nonzero}
    .fil38 {fill:#828281;fill-rule:nonzero}
    .fil27 {fill:#837E7C;fill-rule:nonzero}
    .fil48 {fill:#8480BC;fill-rule:nonzero}
    .fil39 {fill:#878685;fill-rule:nonzero}
    .fil28 {fill:#888280;fill-rule:nonzero}
    .fil44 {fill:#8B8A8A;fill-rule:nonzero}
    .fil29 {fill:#8D8785;fill-rule:nonzero}
    .fil40 {fill:#8F8F8E;fill-rule:nonzero}
    .fil30 {fill:#928C89;fill-rule:nonzero}
    .fil41 {fill:#949392;fill-rule:nonzero}
    .fil31 {fill:#97908E;fill-rule:nonzero}
    .fil43 {fill:#989797;fill-rule:nonzero}
    .fil32 {fill:#9C9593;fill-rule:nonzero}
    .fil42 {fill:#9C9C9B;fill-rule:nonzero}
    .fil24 {fill:#9F9CCB;fill-rule:nonzero}
    .fil33 {fill:#A09A97;fill-rule:nonzero}
    .fil34 {fill:#A59E9C;fill-rule:nonzero}
    .fil35 {fill:#AAA3A0;fill-rule:nonzero}
    .fil36 {fill:#AFA8A5;fill-rule:nonzero}
    .fil56 {fill:#B3C1E0;fill-rule:nonzero}
    .fil13 {fill:#BBBAB9;fill-rule:nonzero}
    .fil23 {fill:#C1C0DF;fill-rule:nonzero}
    .fil8 {fill:#CEB78C;fill-rule:nonzero}
    .fil11 {fill:#E2CDA7;fill-rule:nonzero}
    .fil6 {fill:#E4CFA9;fill-rule:nonzero}
    .fil10 {fill:#E7D6B7;fill-rule:nonzero}
    .fil7 {fill:#EFE3CB;fill-rule:nonzero}
    .fil60 {fill:#F7F1E5;fill-rule:nonzero}
    .fil57 {fill:#F7F2E7;fill-rule:nonzero}
    .fil59 {fill:#FAF5EE;fill-rule:nonzero}
   ]]>
  </style>
 </defs>
 <g id="Layer_x0020_1">
  <metadata id="CorelCorpID_0Corel-Layer"/>
  <g id="_1759271541264">
   <g>
    <path class="fil0" d="M22946 19491l0 0zm7076 -4085c-6,-87 -18,-169 -36,-245 -64,-280 -204,-482 -397,-595 -271,-157 -646,-135 -1061,104 -26,15 -52,34 -78,50 -107,-225 -261,-396 -450,-506 0,0 -1,0 -1,0 0,0 0,0 -1,0 0,-1 0,-1 -1,-1 -76,-44 -159,-79 -246,-102 -357,-98 -798,-23 -1276,253 -884,511 -1641,1564 -1966,2631 -26,14 -51,25 -77,40 -790,456 -1432,1533 -1485,2456 -443,399 -770,1057 -769,1611l1 34c1,327 115,559 300,671l8 4c192,112 458,97 750,-72l6508 -3757c580,-335 1053,-1155 1051,-1821l0 -35c-1,-330 -118,-563 -308,-673 -127,-74 -288,-93 -466,-47z"/>
    <path class="fil1" d="M27999 14214c0,0 1,0 1,0 189,110 343,281 450,506 26,-16 52,-35 78,-50 47,-27 93,-51 139,-73 359,-169 682,-170 922,-31l-873 -507c-242,-140 -566,-138 -927,33l210 122zm-4364 2274l0 0zm874 507c325,-1067 1082,-2120 1966,-2631 478,-276 919,-351 1276,-253 87,23 170,58 246,102l-208 -121 -662 -385c-286,-166 -653,-193 -1064,-60 -1167,380 -2095,1747 -2428,2841l874 507z"/>
    <path class="fil2" d="M22073 18983l0 0zm2436 -1987l-874 -508c-851,444 -1507,1545 -1562,2495l874 508c53,-923 695,-2000 1485,-2456 26,-15 51,-26 77,-39z"/>
    <path class="fil1" d="M22947 19491l-874 -508c-187,169 -351,377 -479,605 -220,391 -406,1030 -206,1458 28,60 63,115 108,163 64,69 122,97 202,144l781 454c-185,-112 -299,-344 -300,-671l-1 -34c-1,-554 326,-1212 769,-1611z"/>
    <path class="fil2" d="M29986 15161c18,76 30,158 36,245 178,-46 339,-27 466,47l-502 -292z"/>
   </g>
   <g>
    <g>
     <path class="fil3" d="M81804 28805c-7580,-2892 -15861,-2820 -22279,329 -595,292 -1168,607 -1718,943 -5406,3311 -8582,8740 -9002,15483 -114,1821 -338,3446 -676,4880l-42554 0c-1232,-7136 -24,-12400 6111,-15921 769,-441 2482,-946 3367,-1128 6980,-1435 15905,2570 22128,3392 5472,723 9045,-1647 10774,-9807 1978,-9339 6874,-15834 14349,-18275 7414,-2420 13715,-1282 19500,1112l0 18992z"/>
     <path class="fil4" d="M48129 50440c338,-1434 562,-3059 676,-4880 420,-6743 3596,-12172 9002,-15483 550,-336 1123,-651 1718,-943 6418,-3149 14699,-3221 22279,-329l0 21635 -33675 0z"/>
     <path class="fil5" d="M81804 14558c-894,-373 -1800,-703 -2714,-989 -5663,-1772 -11619,-1853 -16777,-67 -1632,565 -3138,1298 -4506,2185 -4381,2839 -7350,7262 -8530,12832 -1403,6626 -2771,17912 -13481,14102 -4729,-1682 -9349,-6411 -14865,-8156 -3473,-1099 -7226,-1059 -10183,631 4189,-3412 15310,-2056 23683,-2716 10914,-860 11667,-5002 11286,-13371 -71,-1562 -76,-3151 38,-4715 748,-10250 6471,-15346 16874,-14113 6633,787 14120,3835 19175,6719l0 7658z"/>
    </g>
    <path class="fil4" d="M26483 50440c-129,-123 -256,-248 -381,-374 -3454,-3496 -5144,-7867 -8838,-7907 -4592,-50 -6658,4165 -7164,8281l16383 0z"/>
   </g>
   <g>
    <path class="fil6" d="M32936 19528c2550,-239 6255,-2710 6255,-5738l0 -5779c-3127,0 -2750,-3010 -2750,-3010l-3505 0 -3505 0c0,0 378,3010 -2750,3010l0 5779c0,3028 3705,5499 6255,5738z"/>
    <path class="fil7" d="M32936 18586c2128,-249 5319,-2376 5319,-4796l0 -4927c-780,-149 -1414,-497 -1893,-1040 -532,-602 -747,-1312 -828,-1885l-5195 0c-81,573 -297,1283 -828,1885 -479,543 -1114,891 -1894,1040l0 4927c0,2420 3191,4547 5319,4796z"/>
    <path class="fil8" d="M34031 10674c0,-613 -471,-1140 -1095,-1140 -624,0 -1095,527 -1095,1140l0 793 -471 11 0 -872c0,-865 701,-1566 1566,-1566 865,0 1566,701 1566,1566l0 872 -471 -11 0 -793zm-3235 804l0 2590c0,623 505,1127 1128,1127l2025 0c622,0 1127,-504 1127,-1127l0 -2590 -574 0 -3132 0 -574 0z"/>
    <path class="fil7" d="M32446 12662c0,-264 214,-478 478,-478 263,0 477,214 477,478 0,199 -122,369 -296,441l0 859c0,101 -81,182 -181,182 -101,0 -182,-81 -182,-182l0 -859c-174,-72 -296,-242 -296,-441z"/>
   </g>
   <g>
    <path class="fil9" d="M29789 30967l0 0zm11383 -6572c-10,-140 -29,-272 -57,-394 -103,-450 -329,-777 -639,-957 -436,-253 -1040,-218 -1707,167 -42,24 -83,54 -125,80 -173,-362 -421,-637 -724,-813 -1,-1 -2,-1 -2,-1 0,0 -1,-1 -1,-1 -1,0 -2,-1 -2,-1 -123,-71 -256,-126 -396,-164 -574,-157 -1284,-36 -2053,407 -1423,822 -2641,2517 -3163,4234 -41,22 -82,40 -124,64 -1270,733 -2304,2466 -2389,3950 -713,642 -1239,1701 -1236,2592l0 56c1,525 186,898 484,1078l12 7c309,180 737,156 1207,-116l10470 -6044c933,-539 1694,-1858 1691,-2930l0 -55c-2,-532 -191,-907 -495,-1084 -206,-119 -464,-149 -751,-75z"/>
    <path class="fil2" d="M37918 22477c0,0 1,0 2,1 303,176 551,451 724,813 42,-26 83,-56 125,-80 75,-43 150,-83 224,-117 578,-272 1096,-275 1483,-50l-1405 -816c-389,-226 -910,-223 -1491,53l338 196zm-7021 3658l0 0zm1406 817c522,-1717 1740,-3412 3163,-4234 769,-443 1479,-564 2053,-407 140,38 273,93 396,164l-335 -194 -1066 -620c-460,-267 -1050,-311 -1711,-96 -1877,611 -3370,2810 -3906,4570l1406 817z"/>
    <path class="fil1" d="M28384 30150l0 0zm3919 -3198l-1406 -817c-1368,715 -2425,2486 -2513,4015l1406 816c85,-1484 1119,-3217 2389,-3950 42,-24 83,-42 124,-64z"/>
    <path class="fil2" d="M29790 30966l-1406 -816c-301,271 -565,606 -771,972 -354,630 -653,1657 -331,2347 45,97 102,185 173,262 103,110 197,156 326,231l1257 730c-298,-180 -483,-553 -484,-1078l0 -56c-3,-891 523,-1950 1236,-2592z"/>
    <path class="fil1" d="M41115 24001c28,122 47,254 57,394 287,-74 545,-44 751,75l-808 -469z"/>
   </g>
   <g>
    <path class="fil0" d="M45827 15333l0 0zm7075 -4084c-6,-88 -18,-170 -35,-246 -64,-279 -205,-482 -397,-594 -271,-158 -647,-136 -1061,104 -27,15 -52,33 -78,49 -108,-225 -261,-395 -450,-505 -1,0 -1,-1 -1,-1 -1,0 -1,0 -1,0 0,0 -1,-1 -1,-1 -77,-44 -159,-78 -246,-102 -357,-98 -799,-22 -1276,253 -885,511 -1642,1565 -1967,2632 -25,14 -50,25 -76,40 -790,456 -1433,1532 -1486,2455 -442,399 -769,1058 -768,1611l0 35c1,326 116,558 301,670l8 4c192,112 458,97 750,-72l6508 -3757c580,-335 1053,-1154 1051,-1821l0 -34c-1,-331 -119,-564 -308,-674 -128,-74 -288,-92 -467,-46z"/>
    <path class="fil1" d="M50880 10056c0,0 0,1 1,1 189,110 342,280 450,505 26,-16 51,-34 78,-49 47,-27 93,-52 139,-73 359,-169 681,-171 922,-31l-874 -508c-241,-140 -565,-138 -926,33l210 122zm-4364 2274l0 0zm873 508c325,-1067 1082,-2121 1967,-2632 477,-275 919,-351 1276,-253 87,24 169,58 246,102l-208 -121 -663 -385c-286,-166 -653,-193 -1063,-59 -1167,379 -2095,1746 -2428,2840l873 508z"/>
    <path class="fil2" d="M44954 14826l0 0zm2435 -1988l-873 -508c-851,444 -1508,1545 -1562,2496l873 507c53,-923 696,-1999 1486,-2455 26,-15 51,-26 76,-40z"/>
    <path class="fil1" d="M45827 15333l-873 -507c-187,168 -352,377 -480,604 -220,391 -406,1030 -206,1459 28,60 64,115 108,162 64,69 123,98 203,144l781 454c-185,-112 -300,-344 -301,-670l0 -35c-1,-553 326,-1212 768,-1611z"/>
    <path class="fil2" d="M52867 11003c17,77 29,158 35,246 179,-46 339,-28 467,46l-502 -292z"/>
   </g>
   <g>
    <path class="fil0" d="M13721 17581l0 0zm3681 -2125c-3,-45 -9,-88 -18,-127 -33,-146 -106,-252 -207,-310 -141,-82 -336,-70 -552,54 -13,8 -27,18 -40,26 -56,-117 -136,-206 -234,-263 -1,0 -1,0 -1,0 0,0 0,0 0,-1 0,0 -1,0 -1,0 -40,-23 -83,-41 -128,-53 -186,-51 -415,-12 -664,132 -460,265 -854,814 -1023,1369 -13,7 -26,13 -40,21 -411,237 -745,797 -773,1277 -230,208 -400,550 -399,839l0 18c0,169 60,290 156,348l4 3c100,58 238,50 391,-38l3386 -1955c301,-174 547,-600 546,-947l0 -18c0,-172 -61,-293 -160,-351 -66,-38 -149,-48 -243,-24z"/>
    <path class="fil1" d="M16350 14836c0,0 0,0 1,0 98,57 178,146 234,263 13,-8 27,-18 40,-26 25,-14 49,-27 73,-38 187,-88 354,-89 479,-16l-454 -264c-126,-73 -294,-72 -482,17l109 64zm-2270 1183l0 0zm454 264c169,-555 563,-1104 1023,-1369 249,-144 478,-183 664,-132 45,12 88,30 128,53l-108 -63 -345 -200c-149,-87 -340,-101 -553,-31 -607,197 -1090,908 -1263,1478l454 264z"/>
    <path class="fil2" d="M13267 17317l0 0zm1267 -1034l-454 -264c-443,231 -785,804 -813,1298l454 264c28,-480 362,-1040 773,-1277 14,-8 27,-14 40,-21z"/>
    <path class="fil1" d="M13721 17581l-454 -264c-98,88 -183,196 -250,315 -114,203 -211,536 -107,759 15,31 33,60 56,84 34,36 64,51 106,75l406 236c-96,-58 -156,-179 -156,-348l0 -18c-1,-289 169,-631 399,-839z"/>
    <path class="fil2" d="M17384 15329c9,39 15,82 18,127 94,-24 177,-14 243,24l-261 -151z"/>
   </g>
   <path class="fil10" d="M0 39706c720,-24 1297,-616 1302,-1348l11 0c5,732 582,1324 1303,1348 -723,24 -1303,620 -1303,1358l-10 0c0,-738 -580,-1334 -1303,-1358z"/>
   <path class="fil11" d="M43597 8788c406,-14 732,-347 734,-760l7 0c2,413 328,746 735,760 -408,13 -735,350 -735,765l-6 0c0,-415 -327,-752 -735,-765z"/>
   <g>
    <g>
     <path class="fil12" d="M48604 30750c144,-160 350,-249 555,-316 515,-169 1097,-220 1589,8 492,228 851,794 713,1318 -216,12 -417,-97 -626,-154 -295,-82 -617,-59 -897,62 -500,217 -902,739 -1445,700 -400,-29 -722,-387 -808,-779l397 148c260,-270 272,-707 522,-987z"/>
     <path class="fil8" d="M71591 37451l-13200 -7621c-551,-318 -1450,-318 -1997,0l-6906 4013c-548,318 -545,839 7,1157l13199 7621c551,318 1450,318 1997,0l6906 -4013c548,-318 545,-839 -6,-1157z"/>
     <path class="fil13" d="M49029 33725l2 -672c0,211 138,423 416,583l-2 672c-278,-160 -416,-372 -416,-583z"/>
     <path class="fil14" d="M49447 33636l-2 672c-278,-161 -416,-372 -416,-583l2 -665c3,209 141,418 416,576z"/>
     <path class="fil15" d="M70290 36872c-20,-38 -48,-75 -83,-110l-6 -6 -3 -3c-8,-7 -16,-15 -24,-22l-1 -1 -9 -7 -12 -10 -9 -7c-26,-20 -54,-38 -84,-56l2 -671 0 0c36,20 68,42 97,65l6 5 14 12 3 3 4 3 20 19 2 2 2 2 7 7 7 8 5 5c20,23 38,46 52,70l2 3 8 15 2 2 0 0 -2 672z"/>
     <path class="fil15" d="M70333 36361l-1 224 -1 439c0,-22 -3,-43 -8,-65l0 -1 -1 -2 -3 -13 -2 -5 -2 -8 -2 -4 -5 -16 -3 -7 -2 -3 -2 -6 -5 -9 0 -1 -2 -5 -2 -4 -1 -1 -1 -2c-1,-3 0,-6 0,-9l0 0c0,-5 0,-12 0,-18l0 0c0,-6 0,-14 0,-20l0 0c0,-6 0,-14 0,-19l0 0c0,-3 0,-7 0,-10l0 0c0,-26 1,-52 1,-77l0 0c0,-173 0,-346 1,-519l0 0 1 3 3 5 1 3 2 3 1 2 3 8 1 3 6 12 3 10 3 9 3 8 4 13 1 4c2,8 3,16 5,25l0 5c3,16 4,32 4,48z"/>
     <polyline class="fil16" points="70333,36368 70332,36584 70333,36515 70333,36369 70333,36367 "/>
     <path class="fil16" d="M70333 36369l-1 370 -1 293 0 0c0,21 -2,41 -6,61l2 -671c2,-8 3,-17 4,-26l0 -2 0 -1 1 -3 0 -5 1 -14 0 0 0 -1 0 -1"/>
     <path class="fil17" d="M70327 36422l-2 671c-4,18 -9,36 -15,53l2 -671 3 -10 0 0 5 -14 1 -5 1 -5 2 -8 0 0 1 -1 0 -1 0 -1 0 -1 1 -1 0 -2 0 -2 1 -1 0 -1z"/>
     <path class="fil18" d="M70312 36475l-2 671c-7,18 -15,36 -25,53l2 -671c10,-18 18,-35 25,-53z"/>
     <path class="fil19" d="M70287 36528l-2 671 -1 2c-10,18 -22,36 -36,53l2 -671c14,-18 27,-37 37,-55z"/>
     <path class="fil20" d="M70250 36583l-2 671c-17,21 -36,42 -57,62l2 -672c17,-15 32,-31 46,-47l0 -1 11 -13z"/>
     <path class="fil21" d="M70193 36644l-2 672 -4 4c-17,15 -35,30 -55,44l0 0 -5 4 -2 1 -21 14 -1 1 -9 6 -5 3 -14 9 2 -672c44,-27 83,-55 116,-86z"/>
     <path class="fil22" d="M70077 36730l-2 672c-4,2 -7,4 -11,6l2 -671c4,-3 7,-5 11,-7z"/>
     <path class="fil14" d="M71958 36669l-2 672c-1,208 -137,416 -409,574l2 -672c272,-158 408,-366 409,-574z"/>
     <polygon class="fil13" points="71958,36683 71957,37073 71956,37341 71956,37341 71955,37353 71957,36689 "/>
     <path class="fil14" d="M71958 36687l-2 662c-1,28 -4,57 -10,85l0 0 0 1 2 -671c5,-26 8,-51 10,-77z"/>
     <path class="fil14" d="M71948 36764l-2 671c-5,26 -13,53 -23,80l2 -672 1 -2 1 -2 1 -4 1 -1 0 -2 0 0 1 -2 0 -1c8,-22 14,-44 18,-65z"/>
     <path class="fil23" d="M71925 36843l-2 672c-3,9 -7,18 -10,26l-1 1 -4 9 0 1c-6,12 -12,24 -18,36l-1 1 -1 2 -2 5 1 -672 3 -4c14,-25 26,-51 35,-77z"/>
     <path class="fil16" d="M71887 36924l-2 671 -9 17 -1 2 -1 1 -2 3 -1 2 -2 3 0 1 -12 18 -1 0 -1 3 -2 2 -1 2 -5 7 -18 24m2 -672l1 -2 2 -2 4 -5 6 -9 3 -3 5 -8 3 -4c12,-17 23,-34 32,-51"/>
     <path class="fil23" d="M71831 37008l-2 672 -11 13 -2 3 -7 8 -2 2 -4 5 -9 10 -2 2 -20 21 -2 3 -6 5 -5 5 -2 2 -4 4 -1 1 -3 3 -5 4 -3 3 2 -672c10,-9 20,-19 30,-28l2 -2c9,-10 18,-20 27,-30l13 -15 3 -3 4 -5 2 -3 2 -1 0 -1 5 -6z"/>
     <path class="fil16" d="M71741 37774c-15,14 -32,28 -49,42l-1 1 -23 18 -1 1 -18 13 -11 8 -9 6 -6 5 -1 0 -12 8 -4 3 -11 7 -9 6 -4 2 -7 5 -3 2 -3 1"/>
     <path class="fil24" d="M71566 37233l-2 672 -4 3 -1 0 0 0 -7 5 -5 2 1 -336 1 -336c6,-3 12,-6 17,-10z"/>
     <polygon class="fil25" points="70061,35978 70059,36650 58381,29908 58383,29236 "/>
     <path class="fil15" d="M67689 39313c0,-170 0,-340 1,-510l0 0 0 0 -1 510 0 0z"/>
     <polygon class="fil26" points="70066,36737 70064,37408 63762,41071 63764,40399 "/>
     <path class="fil15" d="M67688 39474l0 0c-15,-9 -32,-17 -48,-24l-2 -1 -25 -11 2 -672 4 2 1 1 1 0 2 1 1 0 1 1 1 0 1 1c22,9 43,19 63,31 -1,224 -1,448 -2,671z"/>
     <path class="fil27" d="M67615 38767l-2 671 -6 -2 -1 0 -2 -1 -1 0 -2 -1 0 0 -1 -1 -1 0 -2 -1 -2 0 -1 -1 -2 0 -1 -1 -1 0 -1 0 -2 -1 -1 -1 -2 0 0 0 -4 -2 -1 0 -3 -1 -5 -2 -4 -1 -1 0 -17 -5 2 -672c22,6 43,14 64,22z"/>
     <path class="fil28" d="M67551 38745l-2 672 -8 -2 -3 -1 -2 -1 -3 -1 0 0c-13,-3 -25,-6 -38,-8l2 -672 10 2 1 0 5 1 1 0 1 1 1 0 1 0 1 1 1 0 2 0 0 0 2 1 1 0 1 0 2 1 24 6z"/>
     <polygon class="fil29" points="67497,38732 67495,39404 67489,39402 67480,39401 67479,39400 67478,39400 67475,39400 67472,39399 67471,39399 67443,39395 67445,38723 67462,38725 67462,38725 67465,38726 67468,38726 67468,38726 67471,38727 67472,38727 67477,38728 67478,38728 67483,38729 67484,38729 67491,38731 67494,38731 "/>
     <path class="fil30" d="M67445 38723l-2 672c-16,-3 -33,-5 -50,-6l2 -672 13 1 0 0 5 1 6 1 1 0 17 2 0 0 2 0 1 0 3 1 0 0 1 0 1 0 0 0z"/>
     <path class="fil31" d="M67395 38717l-2 672 -3 0 0 0 -3 0 0 -1 -3 0 -1 0 -1 0 -1 0 -1 0 -2 0 -1 0 -1 0 0 0 -2 0 0 0 -19 -1 0 0 -2 0 -1 0 0 0 -2 -1 -1 0 -7 0 2 -671c17,0 34,1 51,2z"/>
     <polygon class="fil32" points="67344,38715 67342,39386 67336,39386 67334,39386 67332,39386 67325,39386 67320,39386 67313,39386 67308,39386 67304,39386 67303,39386 67299,39386 67299,39386 67295,39386 67295,39386 67288,39386 67290,38715 67292,38715 67292,38715 67309,38714 67309,38714 67315,38714 67321,38714 67328,38714 67330,38714 67334,38714 67336,38714 "/>
     <polygon class="fil33" points="67290,38715 67288,39386 67278,39387 67277,39387 67276,39387 67276,39387 67274,39387 67268,39387 67268,39387 67265,39388 67264,39388 67262,39388 67261,39388 67258,39388 67255,39388 67251,39389 67249,39389 67231,39390 67233,38719 67234,38718 67237,38718 67239,38718 67249,38717 67252,38717 67256,38717 67258,38716 67261,38716 67263,38716 67264,38716 67277,38715 67278,38715 67278,38715 67279,38715 67280,38715 67281,38715 67282,38715 67283,38715 67284,38715 67284,38715 67288,38715 67289,38715 67290,38715 "/>
     <path class="fil34" d="M67233 38719l-2 671c-14,2 -28,4 -42,6l-1 0 -2 0 -3 1 -1 0 -15 2 0 0 -2 1 2 -672c15,-3 31,-5 48,-7l1 -1 2 0 1 0 1 0 1 0 1 0 1 0 2 -1 1 0 5 0 0 0 2 0z"/>
     <path class="fil35" d="M67167 38728l-2 671 -16 4 -2 0 -6 1 0 0 -4 1 -2 1 -3 0 -1 0 -2 1 -1 0 -2 0 -3 1 -4 1 -1 1 -16 4 -2 0 -8 2 0 0 -3 1 0 0 -22 7 2 -672c17,-5 35,-11 53,-15l1 0 4 -1 1 0 2 -1 1 0 2 0 1 -1 2 0 1 0 2 -1 5 -1 1 0 5 -1 3 -1 5 -1 9 -1z"/>
     <path class="fil36" d="M67069 38752l-2 672c-25,8 -49,17 -71,28l-2 0 -1 1 -3 1 -1 1 -19 10 -1 0 -16 9 0 0 -5 3 -1 1 1 -672 7 -4 0 0 0 0 0 0 6 -3 1 -1 2 -1 4 -2 1 -1 1 0 8 -5 1 0 8 -4 8 -4 1 0 2 -1 17 -8 4 -2 2 0 2 -1 2 -1c14,-6 29,-11 44,-16zm-114 50c0,0 0,0 0,0l0 0z"/>
     <path class="fil35" d="M66949 38806l-2 672 -13 8 -1 0 -1 1 -1 1 -1 0 -8 6 -7 5 -3 2 -1 1 -4 3 -15 11 -2 2 -9 9 1 -672 4 -3 1 -1 1 -1 2 -2 1 0 2 -2 2 -2 6 -5c14,-11 30,-22 48,-33z"/>
     <path class="fil34" d="M66882 38855l-1 672 -1 0 -1 1 -2 2 -2 2 0 0 -3 3 -1 1c-9,8 -16,17 -23,25l2 -671 3 -3 0 -1 2 -3 4 -3 6 -8 3 -3 5 -4 1 -2 3 -3 0 0 1 -1 3 -3 1 0 0 -1z"/>
     <path class="fil33" d="M66850 38890l-2 671 -5 8 -1 1 0 0c-5,7 -10,14 -14,21l0 1 -1 0 2 -671 0 -1 1 -1 1 -1 1 -2 0 0 2 -3 1 -2 9 -13 2 -3 3 -3 0 -1 1 -1z"/>
     <path class="fil32" d="M66829 38921l-2 671 -1 3 0 0 -2 3c-4,8 -7,16 -10,24l2 -672c3,-10 8,-20 13,-29z"/>
     <path class="fil31" d="M66815 38950l-1 672c-4,9 -7,19 -9,28l2 -671 0 -1 1 -1 0 -1 0 -1 0 -1 1 -2 1 -5 0 0c2,-6 3,-11 5,-17z"/>
     <path class="fil30" d="M66807 38980l-2 671c-2,8 -3,16 -3,25l1 -507 1 -155 0 0c0,-12 1,-23 3,-34z"/>
     <path class="fil16" d="M66803 39304l-1 373m0 0l1 -396 0 23"/>
     <polygon class="fil37" points="67843,39017 67841,39688 67841,39689 "/>
     <path class="fil38" d="M67843 39021l-2 671 0 3 0 1 0 0 0 2 0 2 0 5 -1 8 0 1 -2 8 2 -671c2,-9 3,-17 3,-26l0 -1 0 0 0 -1 0 -2z"/>
     <path class="fil39" d="M67840 39051l-2 672 0 1 0 1 -1 1 0 1c-2,8 -4,16 -7,25l2 -672c2,-7 4,-14 6,-21l1 -3 0 -1 0 -1 0 -1 1 -1 0 -1z"/>
     <path class="fil16" d="M67830 39752l0 0 -2 4 0 1c-3,7 -7,14 -11,22l-1 2 2 -671 2 -4 1 -2 1 -2 0 -1 3 -5 2 -5 3 -7 1 -2 0 -2"/>
     <polygon class="fil40" points="67818,39110 67816,39781 67814,39784 67814,39784 67812,39787 67810,39791 67808,39794 67808,39795 67806,39798 67801,39804 67801,39804 67798,39808 67797,39809 67796,39811 67795,39812 67797,39141 67798,39139 67799,39137 67800,39137 67803,39132 67804,39132 67805,39130 67807,39127 67808,39126 67810,39123 67810,39122 67812,39119 67814,39116 67815,39114 67816,39113 "/>
     <path class="fil41" d="M67797 39141l-2 671 -3 4 0 0c-9,11 -18,21 -29,31l2 -672c8,-8 16,-16 23,-24l4 -4 5 -6z"/>
     <path class="fil16" d="M67765 39175l-2 672 -8 7 -1 0 -7 6 -1 2 -2 1 -1 1 -1 1 -19 14 -2 1 -1 1 -10 7 -1 0 -3 2 0 0m59 -715c-19,18 -41,34 -66,49"/>
     <path class="fil42" d="M67699 39224l-2 672 -6 3 -1 1 0 0 -14 8 -1 0 -4 2 -3 2c-9,4 -18,9 -27,13 -10,4 -19,8 -29,12l-3 2 -6 2 -27 9 2 -672 21 -7 14 -5 3 -1c14,-6 28,-12 42,-19l2 -1 3 -2 7 -3 7 -4 0 0 3 -1 1 -1 4 -2 7 -4 3 -2 4 -2z"/>
     <path class="fil43" d="M67578 39278l-2 672c-32,10 -65,19 -99,24l2 -671 1 0 1 -1 3 0 4 -1c14,-2 28,-5 42,-9l5 -1 8 -2 1 -1 3 -1 1 0 7 -2 3 0 2 -1 2 -1 2 0 14 -5z"/>
     <path class="fil41" d="M67479 39303l-2 672 -27 4 -1 0 -7 1 0 0 -4 1 -1 0 -6 1 0 0 -5 0 -1 0 -8 1 -6 1 2 -672c13,-1 26,-3 38,-5l1 0 1 0 1 0 8 -1 17 -3z"/>
     <path class="fil40" d="M67413 39312l-2 672c-19,2 -38,3 -58,4l2 -672c18,-1 36,-2 54,-4l3 0 1 0z"/>
     <path class="fil44" d="M67355 39316l-2 672c-17,0 -35,1 -52,0l1 -672c15,1 29,1 43,0l1 0 2 0 2 0 5 0z"/>
     <path class="fil39" d="M67302 39316l-2 672c-17,0 -34,-1 -51,-3l2 -671 3 0 0 0 3 0 0 0 3 0 1 0 1 0 2 0 0 0 2 1 1 0 3 0 0 0 25 1 1 0 2 0 1 0 1 0 1 0 1 0z"/>
     <path class="fil38" d="M67251 39314l-2 671c-16,-1 -33,-3 -50,-5l2 -672 11 1 0 0 3 1 1 0 3 0 1 0 13 2 10 1 6 0 2 0 0 1z"/>
     <path class="fil37" d="M67201 39308l-2 672c-17,-3 -34,-6 -51,-9l2 -672 11 2 0 0 4 1 0 0 3 0 2 1 1 0 13 2 0 0 2 1 7 1 0 0 1 0 1 0 1 0 0 0 2 0 0 0 3 1z"/>
     <path class="fil45" d="M67150 39299l-2 672c-19,-4 -37,-9 -54,-14l2 -671 25 6 1 1 1 0 1 0 1 1 1 0 2 0 1 0 1 1 0 0 1 0 1 0 1 0 1 0 1 1 1 0 0 0 1 0 1 0 5 2 1 0 6 1z"/>
     <path class="fil46" d="M67096 39286l-2 671c-22,-6 -43,-13 -63,-21l1 -672 17 7c12,4 24,8 36,12l1 0 4 1 2 1 2 0 2 1z"/>
     <path class="fil47" d="M67032 39264l-1 672c-13,-5 -26,-10 -38,-16l-3 -2 -1 0 -2 -1 -3 -2 -1 0 -1 -1 -1 0 -2 -1 0 0 -23 -13 -12 -6 -10 -7 -8 -6 -8 -5 -6 -4 -10 -8 -16 -13 -3 -3 -15 -15 -3 -3 -3 -3 -3 -4 -3 -3c-36,-42 -54,-88 -54,-135l1 -504 1 -162c1,45 19,89 54,130 25,29 58,56 100,80l0 0c8,4 16,9 25,13l1 1 2 1 0 0 3 1 2 1 1 0 3 2 15 7 1 0 9 4 0 0 5 2 0 0 6 3 1 0 0 0z"/>
     <path class="fil48" d="M67690 38803c204,117 205,307 2,425 -203,118 -531,118 -735,0 -203,-117 -205,-308 -2,-426 202,-117 531,-117 735,1z"/>
     <polygon class="fil49" points="62455,40399 62453,41070 50775,34328 50777,33657 "/>
     <path class="fil22" d="M63762 40846l0 225 -23 13 -1 0 -17 9 -10 5 -4 2 -11 6 -8 3 -4 2 0 0 -4 2 -12 5 -5 2 -32 14 -3 1c-15,6 -30,12 -46,17l-1 0 -6 2 -1 1 -4 1 -5 2 -4 1 2 -672 16 -5 2 -1 15 -5 9 -3 4 -2 22 -8 2 -1c28,-11 54,-23 80,-35l2 -1 10 -6 1 0 7 -4 9 -5 8 -4 13 -8 -1 447z"/>
     <path class="fil21" d="M63563 40487l-2 672c-15,5 -31,10 -46,14l-3 1 -37 10 0 0 -5 1 -2 0 -2 1 -4 1 -1 0 -4 1c-23,5 -47,10 -71,14l2 -671c42,-8 84,-17 124,-28l1 -1 9 -2 15 -5 6 -1 3 -1 2 -1 4 -1 5 -2 1 0 5 -2z"/>
     <path class="fil20" d="M63388 40531l-2 671 -16 3 -7 2 -4 0 -7 1 -3 1 -3 0 -1 0 -14 2 -39 5 -1 1 -4 0 -3 0 -3 1 -1 0 -3 0 0 0 -4 1 -4 0 0 0 -2 0 2 -672 1 0 2 0c39,-4 78,-9 116,-16z"/>
     <path class="fil19" d="M63269 40547l-2 672 -19 2 -4 0 -4 1 -3 0 -1 0 -4 0 0 0 -3 0 -1 0 -1 1 -14 1 -1 0 -3 0 -4 0 -3 0 -3 0 -35 2 2 -672c35,-1 69,-3 103,-7z"/>
     <path class="fil18" d="M63166 40554l-2 672 -1 0 -1 0 -7 0 0 0 -6 0 0 0 -2 0 -2 0 -1 0 -3 1 -2 0 -1 0 -1 0 -3 0 -10 0 -5 0 -1 0 -10 0 -22 0 0 0 -18 -1 2 -671 1 0 2 0 3 0 0 0 3 0 1 0 4 0 0 0 10 0 5 0 22 0 0 0c15,0 30,0 45,-1z"/>
     <path class="fil17" d="M63070 40555l-2 671 -13 0 -2 0 -1 0 -3 0 -1 0c-24,-1 -48,-3 -71,-5l1 -671c31,2 62,4 92,5z"/>
     <path class="fil50" d="M62978 40550l-2 671 -3 0 -2 0 -1 0 -2 0 -3 -1 -1 0 -1 0 -2 0 -2 0 -2 0 -3 -1 -1 0 -5 0c-21,-2 -42,-5 -62,-8l2 -671 27 3 5 1 4 0 6 1 9 1 6 1 33 3z"/>
     <polyline class="fil16" points="62888,40540 62886,41211 62883,41211 62881,41211 62878,41210 62875,41210 62872,41209 62870,41209 62857,41207 62853,41206 62843,41205 62824,41201 62823,41201 62793,41195 62795,40524 62804,40525 62805,40526 62824,40529 62826,40530 62829,40530 62830,40530 62833,40531 62834,40531 62838,40532 62842,40533 62843,40533 "/>
     <path class="fil51" d="M62795 40524l-1 671 -2 0 -12 -3 0 0c-28,-6 -55,-13 -81,-20l-1 0 -1 0 2 -672 2 1 1 0 1 0 6 2 6 1 2 1 20 5 16 4 0 0c14,3 28,7 42,10z"/>
     <path class="fil52" d="M62699 40500l-2 672 0 -1c-39,-10 -76,-23 -112,-37l2 -672c10,4 21,8 31,12l6 2 7 3 1 0 4 1 3 1 15 5 1 0 2 1 4 1 4 2 22 7 3 0 9 3z"/>
     <path class="fil53" d="M62587 40462l-2 672c-46,-18 -89,-39 -130,-63l-2 -1 2 -671 3 1c16,10 32,18 49,27 16,8 33,15 49,23l1 0 3 1 6 3 5 2 1 0 3 1 5 2 1 1 0 0 6 2z"/>
     <path class="fil23" d="M66957 39228c204,118 532,118 735,0 203,-118 202,-308 -2,-425 -204,-118 -533,-118 -735,-1 -203,118 -201,309 2,426zm-3194 1171l6303 -3662c358,-209 356,-550 -5,-759l-11678 -6742c-361,-208 -950,-208 -1308,0l-6303 3663c-358,208 -356,549 5,757l11678 6743c360,208 950,208 1308,0zm7780 -4313c551,318 554,839 6,1157l-6906 4014c-547,318 -1446,318 -1997,0l-13199 -7621c-552,-318 -555,-839 -7,-1157l6905 -4013c548,-319 1447,-319 1998,0l13200 7620z"/>
     <path class="fil48" d="M70066 36738l-5342 3103 -961 558c-357,209 -947,209 -1307,0l-11679 -6743c-360,-207 -362,-548 -5,-757l5914 -3435 388 -227c358,-208 948,-208 1308,0l11678 6741c361,209 363,551 6,760z"/>
     <polygon class="fil14" points="71549,37243 71547,37915 64641,41928 64643,41257 "/>
     <polygon class="fil48" points="62646,41257 62644,41928 49445,34308 49447,33636 "/>
     <path class="fil24" d="M64643 41257l-2 671c-547,319 -1446,319 -1997,0l2 -671c551,318 1450,318 1997,0z"/>
     <path class="fil48" d="M64641 41926l0 2 -6 4 -17 9 -6 4 -22 12 -3 1 -25 13 -4 2 -21 10 -6 3 -21 10 -4 2 -27 11 -29 12 0 0c-38,16 -76,29 -116,42l2 -671c69,-23 135,-48 197,-78l6 -2c17,-8 34,-17 50,-26l3 -1 24 -13 2 -1 21 -12 4 -2 -2 669z"/>
     <path class="fil24" d="M64336 41392l-2 671 -25 8 -12 4c-74,22 -151,40 -230,55l2 -672c46,-8 92,-18 137,-29l7 -2 2 0 3 -1c17,-5 34,-9 50,-14l9 -2 22 -7 11 -3 26 -8z"/>
     <path class="fil48" d="M64069 41458l-2 672 -19 3 -4 1c-52,9 -105,16 -158,21l2 -672 6 0 1 0 34 -4 2 0 35 -5 10 -1 10 -2 7 -1 0 0 23 -3 30 -5 4 -1 19 -3z"/>
     <path class="fil24" d="M63888 41483l-2 672 -3 0 -8 1 -27 2 -2 1 -3 0 -2 0c-19,2 -39,3 -59,4l-5 0 -4 0 0 0 -27 2 -3 0 -14 0 1 -671 15 -1 3 0 27 -1 0 0 4 0 5 -1c20,-1 39,-2 59,-4l2 0 2 0 3 0 26 -3 10 -1 2 0z"/>
     <path class="fil23" d="M63730 41494l-2 671c-48,2 -97,2 -145,1l1 -672 4 0 2 0 4 1 3 0 3 0 5 0 0 0 3 0 3 0 1 0 3 0 31 0c28,0 56,0 84,-1z"/>
     <path class="fil23" d="M63585 41494l-2 672c-47,-1 -94,-4 -140,-7l2 -672c45,4 91,6 137,7l1 0 2 0z"/>
     <path class="fil24" d="M63444 41487l-1 672c-47,-4 -93,-9 -139,-16l2 -671 7 0 0 0 6 1 1 0 5 1 1 0 5 1 2 0 2 0 20 3 1 0 5 1 5 0 9 1 1 0 1 0 15 2 8 1 4 0 8 1 4 0 4 1 1 0 4 0 0 0 4 1 1 0 3 0 1 0 3 0 7 1z"/>
     <path class="fil16" d="M63306 41472l-2 671c-47,-7 -94,-15 -140,-24m4 -671l20 4 22 4 2 0c31,6 63,11 94,16"/>
     <path class="fil48" d="M63166 41447l-2 672c-49,-10 -96,-22 -143,-35l-4 -1 2 -672 3 1c19,5 39,11 59,16l5 1 27 6 6 2 21 4 0 1 4 0 2 1 3 0 1 1 16 3z"/>
     <path class="fil48" d="M63019 41411l-2 672 -3 -1c-58,-17 -114,-36 -168,-57l2 -672c43,18 88,33 134,47l10 3 27 8z"/>
     <path class="fil24" d="M62848 41353l-2 672 -3 -1 -14 -6 -6 -2 -1 -1 -8 -3 -10 -4 -23 -10 -3 -1c-46,-21 -91,-44 -134,-69l0 -5 2 -666 0 0 2 1 20 11 10 5 15 8 10 6 1 0 5 3 11 6 10 5 3 1 2 1 5 2 2 1 5 3 17 8 10 4 10 5 11 4 1 1 4 1 16 8 19 7 8 3 5 2z"/>
     <path class="fil24" d="M64724 39841l-961 558c-357,209 -947,209 -1307,0l-11679 -6743c-360,-207 -363,-548 -5,-757l5914 -3435c3108,2073 6224,5316 8038,10377z"/>
     <path class="fil54" d="M56126 33107c-450,329 -1219,293 -1396,821 -31,91 -39,193 -96,270 -113,149 -339,126 -523,88 -324,-68 -695,-173 -825,-477 -43,-101 -54,-215 -100,-315 -165,-359 -654,-373 -1044,-438 -276,-46 -542,-145 -782,-290 -273,-165 -523,-415 -570,-730 -48,-316 191,-679 509,-665l-39 -48 2338 -987c363,-153 735,-308 1128,-334 463,-30 922,123 1385,106 797,-29 1649,-540 2333,-130 139,83 267,233 229,391 -19,75 -73,137 -129,191 -242,234 -552,397 -883,462 -247,49 -525,53 -710,224 -149,138 -198,351 -236,550 -92,483 -192,1021 -589,1311z"/>
     <path class="fil16" d="M58251 29173l-2 672m-1 -1l-1 0 -3 -1 0 0 -3 -1 -15 -6 -8 -3 -10 -3 -3 -2 -12 -4 -1 0 -3 -1 -1 0 -2 -1 -2 -1 -9 -3 -8 -2 -5 -2 -3 -1 -6 -2 -14 -4 -1 0 -1 0 2 -672c39,11 76,24 112,38"/>
     <g>
      <path class="fil55" d="M52668 29960c-840,-828 -1386,-1762 -2324,-2488 -279,-216 -570,-432 -914,-534 -192,-57 -408,-74 -590,9 -256,119 -458,677 -533,939 -309,1077 -742,2394 -441,3473 42,149 105,314 255,374 255,101 489,-179 600,-420 202,-444 528,-1189 636,-1661 564,1024 1373,1951 2335,2660 271,200 604,394 938,314 127,-30 241,-99 349,-170 437,-284 846,-634 1073,-1088 67,-132 117,-284 69,-423 -30,-87 -95,-159 -160,-227 -300,-311 -632,-594 -990,-844 -65,-45 -137,-91 -216,-87 -80,5 -157,88 -119,155l32 18z"/>
      <path class="fil55" d="M54359 28381c-574,-737 -1149,-1475 -1723,-2213 -171,-220 -382,-460 -661,-461 -301,-1 -519,277 -683,528 -486,746 -933,1515 -1341,2306 151,270 212,458 448,658 35,30 74,60 119,61 50,2 94,-31 132,-62 415,-331 830,-662 1245,-993 258,519 565,1068 891,1548 30,44 62,89 110,111 122,57 249,-63 331,-171 346,-458 693,-915 1040,-1373l92 61z"/>
      <path class="fil55" d="M48672 31839c-48,190 -544,229 -1107,87 -563,-143 -981,-413 -933,-603 48,-190 544,-229 1107,-87 563,142 981,412 933,603z"/>
      <g>
       <path class="fil56" d="M54344 26259c-341,47 -597,338 -763,640 -166,302 -279,638 -501,901 -275,325 -694,511 -941,857 -166,233 -240,520 -277,804 -75,598 16,1242 379,1723 363,481 1037,750 1598,531 455,-178 749,-618 961,-1057 357,-739 567,-1561 514,-2381 -52,-819 -382,-1633 -978,-2197l8 179z"/>
       <g>
        <path class="fil56" d="M55415 24926c-900,562 -1965,1217 -2351,2205 -394,1009 -96,2137 98,3203 126,693 205,1393 238,2096 14,290 21,587 132,854 112,267 356,502 645,507 505,10 764,-611 780,-1116 16,-505 -43,-1085 318,-1439 153,-151 361,-232 532,-363 310,-238 474,-616 602,-984 321,-924 493,-1898 509,-2876 9,-495 -29,-1012 -273,-1443 -244,-432 -746,-751 -1230,-644z"/>
        <g>
         <path class="fil57" d="M57915 30269c-39,205 146,420 354,415 111,-4 213,-59 310,-112 255,-141 510,-281 765,-422 -22,-119 -190,-181 -284,-104 45,-16 87,-80 102,-125 20,-59 -42,-120 -104,-125 -63,-5 -122,28 -176,60 38,-29 -25,-153 -67,-176 -42,-22 -93,-13 -140,-3 -259,56 -539,175 -639,421 -25,59 -44,130 -103,153l-18 18z"/>
         <path class="fil57" d="M53929 33567c-121,67 -167,217 -189,354 -29,170 -40,342 -35,515 1,27 3,57 21,78 36,45 115,20 145,-29 31,-50 30,-111 40,-168 10,-57 38,-119 94,-134 98,220 197,396 337,592 18,26 50,55 77,38 17,-11 19,-37 20,-58 0,-86 0,-173 0,-260 65,144 200,209 341,281 10,-154 -31,-310 -117,-438 66,157 213,231 377,279 -9,-159 -71,-314 -175,-435 93,89 228,112 354,137 7,-160 -130,-285 -257,-382 -145,-110 -293,-214 -445,-314 -154,-101 -350,-199 -513,-114l-75 58z"/>
         <path class="fil56" d="M55100 25386c191,-310 614,-422 964,-321 349,100 626,375 814,686 187,312 297,662 419,1005 264,747 586,1473 964,2169 171,316 359,651 329,1008 -30,358 -399,705 -729,565 -102,-43 -182,-123 -258,-203 -1371,-1432 -2230,-3009 -2498,-4973l-5 64z"/>
         <path class="fil58" d="M55018 31723c0,0 156,-1077 180,-2142 17,-531 5,-1063 -21,-1461 -25,-398 -56,-662 -56,-662l69 -7c0,0 29,265 51,665 23,400 32,934 10,1467 -41,1068 -223,2105 -223,2105l-10 35z"/>
         <path class="fil55" d="M56618 29200c-45,-246 -42,-445 -48,-695l-43 -1859 69 -1 38 2493 -16 62z"/>
        </g>
       </g>
      </g>
      <path class="fil16 str0" d="M53349 31790c-84,-1377 -76,-2769 6,-4146"/>
      <g>
       <path class="fil59" d="M56024 24623c-202,772 -870,1267 -1493,1104 -624,-162 -966,-920 -764,-1692 201,-773 869,-1267 1493,-1104 623,162 965,920 764,1692z"/>
       <path class="fil58" d="M56271 23664c-59,-440 -357,-853 -755,-1050 -266,-130 -567,-152 -853,-87 -295,68 -539,267 -636,554 -52,157 -72,325 -55,490 33,316 204,616 459,805 -194,198 -133,544 41,759 174,215 444,328 706,416 96,32 196,63 297,52 92,-10 177,-55 255,-105 365,-234 638,-608 749,-1027 77,-289 48,-654 -208,-807z"/>
       <path class="fil60" d="M54532 24724c-127,148 -307,203 -403,121 -95,-82 -69,-268 57,-416 127,-148 308,-202 403,-120 95,81 69,267 -57,415z"/>
      </g>
     </g>
    </g>
    <path class="fil1" d="M50889 31637c223,212 457,413 702,599 33,26 67,51 101,76 13,10 26,19 40,29l-537 312c-44,-35 -87,-72 -128,-112 -141,-140 -248,-310 -277,-505 -20,-130 9,-267 71,-383l28 -16z"/>
    <path class="fil54" d="M56634 29138c60,83 121,166 184,247l-302 176c37,-120 71,-240 102,-361l16 -62z"/>
   </g>
  </g>
 </g>
</svg>
