<?xml version="1.0" encoding="UTF-8"?>
<!DOCTYPE svg PUBLIC "-//W3C//DTD SVG 1.1//EN" "http://www.w3.org/Graphics/SVG/1.1/DTD/svg11.dtd">
<!-- Creator: CorelDRAW X7 -->
<svg xmlns="http://www.w3.org/2000/svg" xml:space="preserve" width="7.88075in" height="6.11453in" version="1.1" style="shape-rendering:geometricPrecision; text-rendering:geometricPrecision; image-rendering:optimizeQuality; fill-rule:evenodd; clip-rule:evenodd"
viewBox="0 0 78807 61145"
 xmlns:xlink="http://www.w3.org/1999/xlink">
 <defs>
  <style type="text/css">
   <![CDATA[
    .fil4 {fill:#D7B67C}
    .fil3 {fill:#D7BF93}
    .fil5 {fill:#E2CBA3}
    .fil1 {fill:#E4CFA9}
    .fil6 {fill:#E7D5B4}
    .fil2 {fill:#EDDFC4}
    .fil0 {fill:#F7F1E5}
    .fil11 {fill:#E0C99F;fill-rule:nonzero}
    .fil8 {fill:#E4CFAA;fill-rule:nonzero}
    .fil7 {fill:#EBDBBE;fill-rule:nonzero}
    .fil10 {fill:#EDDFC4;fill-rule:nonzero}
    .fil9 {fill:#F2E8D4;fill-rule:nonzero}
   ]]>
  </style>
 </defs>
 <g id="Layer_x0020_1">
  <metadata id="CorelCorpID_0Corel-Layer"/>
  <g id="_1759349801120">
   <path class="fil0" d="M15683 47435c-4828,1672 -10345,1733 -15683,323l0 4860 0 3639c4650,2173 10255,4099 15362,4704 10563,1253 16374,-3922 17134,-14330 115,-1587 111,-3201 39,-4787 -11,-248 -22,-492 -31,-733 -1496,232 -3078,253 -4712,101 -902,-83 -1820,-220 -2748,-403 -1328,1727 -2933,3207 -4786,4408 -1389,901 -2918,1645 -4575,2218z"/>
   <g>
    <path class="fil1" d="M0 8711c1903,455 4257,1585 7442,3623 1117,715 2337,1541 3676,2490 6784,4805 15077,6115 21640,3411 534,-220 1050,-463 1549,-730 6583,-3516 7998,-10916 9773,-17505l30468 0c6186,6705 5759,15469 -2102,18390 -9577,845 -12730,-3400 -19931,-5275 -4617,-1203 -7874,701 -10050,8259 -2491,8648 -7233,14329 -13832,15931 -12475,3027 -20388,-5792 -28633,-11770l0 -16824z"/>
    <path class="fil2" d="M0 8711l0 -8711 44080 0c-2234,8289 -1914,14761 -11185,18578 -6563,2704 -14993,1051 -21777,-3754 -3119,-2210 -7492,-5247 -11118,-6113z"/>
    <path class="fil2" d="M0 20186c2091,1255 4644,3293 7974,6367 2059,1901 4341,3432 6725,4556 4689,2213 9775,2854 14337,1653 1444,-380 2794,-931 4039,-1640 3989,-2272 6906,-6175 8391,-11334 1609,-5586 3803,-8861 6707,-10011 929,-368 1913,-506 2937,-465 7207,284 9986,8721 21336,9078 -8391,3119 -19961,-2385 -25538,966 -3859,2318 -3102,6855 -3294,11662 -111,2763 -779,5206 -1887,7251 -7957,14685 -31488,1928 -41727,-6930l0 -11153z"/>
   </g>
   <g>
    <path class="fil2" d="M73264 9027c0,-2696 -2185,-4881 -4881,-4881 -2697,0 -4882,2185 -4882,4881 0,2697 2185,4882 4882,4882 2696,0 4881,-2185 4881,-4882z"/>
    <path class="fil3" d="M65678 8720c0,2554 1962,4650 4461,4864 -545,210 -1137,325 -1756,325 -2697,0 -4882,-2185 -4882,-4882 0,-2696 2185,-4881 4882,-4881 142,0 282,6 421,18 -1828,705 -3126,2479 -3126,4556z"/>
    <path class="fil4" d="M65619 6724l5527 0 -921 922 -4606 0 0 -922zm0 3685l3684 0 0 921 -3684 0 0 -921zm0 -1843l5527 0 0 2764 -921 0 0 -1842 -4606 0 0 -922z"/>
   </g>
   <path class="fil5" d="M61971 24141c515,16 928,439 931,963l9 0c4,-524 417,-947 930,-963 -516,-17 -930,-444 -930,-970l-7 0c0,526 -415,953 -933,970z"/>
   <path class="fil6" d="M22206 43776c-8307,-2389 -16985,-7920 -22206,-12437l0 16419c7507,1983 16108,1152 22206,-3982z"/>
   <path class="fil0" d="M6262 43462c809,26 1458,690 1462,1512l13 0c7,-822 655,-1486 1462,-1512 -811,-27 -1462,-697 -1462,-1524l-11 0c0,827 -651,1497 -1464,1524z"/>
   <g>
    <path class="fil7" d="M18472 52160c0,-1282 1039,-2321 2321,-2321 1281,0 2320,1039 2320,2321 0,1281 -1039,2320 -2320,2320 -1282,0 -2321,-1039 -2321,-2320z"/>
    <path class="fil8" d="M18523 51675c223,-1049 1154,-1836 2270,-1836 1281,0 2320,1039 2320,2321 0,293 -54,574 -154,833 -371,-105 -931,-292 -1765,-603 -1223,-456 -2067,-660 -2671,-715z"/>
    <path class="fil9" d="M20793 54480c-943,0 -1755,-562 -2118,-1369 356,-12 752,-48 1172,-121 1035,-180 2093,331 2692,698 -426,486 -1050,792 -1746,792z"/>
    <path class="fil10" d="M23095 51870c-741,-83 -1527,-282 -2247,-681 -640,-355 -1148,-615 -1548,-806 403,-339 924,-544 1493,-544 1183,0 2160,886 2302,2031z"/>
    <path class="fil11" d="M19822 53728c1175,0 2126,-952 2126,-2126 0,-726 -364,-1368 -920,-1751 1171,118 2085,1107 2085,2309 0,1281 -1039,2320 -2320,2320 -771,0 -1455,-376 -1877,-954 275,129 582,202 906,202z"/>
   </g>
  </g>
 </g>
</svg>
