<?xml version="1.0" encoding="UTF-8"?>
<!DOCTYPE svg PUBLIC "-//W3C//DTD SVG 1.1//EN" "http://www.w3.org/Graphics/SVG/1.1/DTD/svg11.dtd">
<!-- Creator: CorelDRAW X7 -->
<svg xmlns="http://www.w3.org/2000/svg" xml:space="preserve" width="14.1601in" height="10.9865in" version="1.1" style="shape-rendering:geometricPrecision; text-rendering:geometricPrecision; image-rendering:optimizeQuality; fill-rule:evenodd; clip-rule:evenodd"
viewBox="0 0 141601 109865"
 xmlns:xlink="http://www.w3.org/1999/xlink">
 <defs>
  <style type="text/css">
   <![CDATA[
    .fil4 {fill:#D7B67C}
    .fil3 {fill:#D7BF93}
    .fil5 {fill:#E2CBA3}
    .fil1 {fill:#E4CFA9}
    .fil6 {fill:#E7D5B4}
    .fil2 {fill:#EDDFC4}
    .fil0 {fill:#F7F1E5}
    .fil11 {fill:#E0C99F;fill-rule:nonzero}
    .fil8 {fill:#E4CFAA;fill-rule:nonzero}
    .fil7 {fill:#EBDBBE;fill-rule:nonzero}
    .fil10 {fill:#EDDFC4;fill-rule:nonzero}
    .fil9 {fill:#F2E8D4;fill-rule:nonzero}
   ]]>
  </style>
 </defs>
 <g id="Layer_x0020_1">
  <metadata id="CorelCorpID_0Corel-Layer"/>
  <g id="_2137074340912">
   <path class="fil0" d="M113421 85232c8676,3004 18589,3112 28180,579l0 8733 0 6538c-8355,3904 -18426,7364 -27602,8452 -18980,2251 -29421,-7047 -30786,-25747 -208,-2853 -200,-5752 -71,-8602 21,-446 39,-885 56,-1317 2687,416 5530,455 8467,182 1620,-150 3270,-396 4938,-725 2385,3103 5268,5763 8598,7921 2496,1618 5243,2955 8220,3986z"/>
   <g>
    <path class="fil1" d="M141601 15652c-3419,817 -7649,2848 -13371,6509 -2009,1285 -4200,2770 -6605,4474 -12191,8635 -27091,10987 -38883,6130 -960,-395 -1888,-833 -2784,-1311 -11828,-6318 -14370,-19616 -17560,-31454l-54745 0c-11115,12048 -10347,27794 3776,33043 17209,1518 22875,-6109 35814,-9479 8294,-2160 14147,1260 18057,14840 4475,15539 12996,25748 24854,28625 22414,5439 36633,-10407 51447,-21147l0 -30230z"/>
    <path class="fil2" d="M141601 15652l0 -15652 -79203 0c4013,14894 3440,26523 20097,33381 11793,4858 26939,1889 39130,-6746 5603,-3970 13461,-9427 19976,-10983z"/>
    <path class="fil2" d="M141601 36270c-3757,2255 -8345,5917 -14328,11441 -3700,3415 -7799,6165 -12083,8186 -8426,3975 -17563,5128 -25761,2969 -2594,-683 -5020,-1672 -7258,-2947 -7166,-4082 -12407,-11095 -15076,-20364 -2891,-10038 -6833,-15921 -12051,-17988 -1670,-661 -3438,-908 -5278,-836 -12949,512 -17943,15670 -38337,16312 15077,5605 35867,-4286 45888,1735 6933,4166 5573,12317 5919,20954 198,4965 1399,9354 3390,13029 14297,26387 56577,3465 74975,-12452l0 -20039z"/>
   </g>
   <g>
    <path class="fil2" d="M27503 16220c0,-4844 -3927,-8771 -8772,-8771 -4844,0 -8771,3927 -8771,8771 0,4845 3927,8772 8771,8772 4845,0 8772,-3927 8772,-8772z"/>
    <path class="fil3" d="M13872 15668c0,4589 3525,8355 8014,8739 -979,378 -2043,585 -3155,585 -4844,0 -8771,-3927 -8771,-8772 0,-4844 3927,-8771 8771,-8771 255,0 508,11 757,32 -3285,1267 -5616,4455 -5616,8187z"/>
    <path class="fil4" d="M13765 12081l9932 0 -1656 1656 -8276 0 0 -1656zm0 6622l6620 0 0 1654 -6620 0 0 -1654zm0 -3312l9932 0 0 4966 -1656 0 0 -3310 -8276 0 0 -1656z"/>
   </g>
   <path class="fil5" d="M30251 43376c-926,30 -1667,789 -1672,1730l-16 0c-7,-941 -749,-1700 -1672,-1730 928,-30 1672,-798 1672,-1743l13 0c0,945 744,1713 1675,1743z"/>
   <path class="fil6" d="M101702 78656c14925,-4292 30517,-14230 39899,-22347l0 29502c-13489,3563 -28943,2071 -39899,-7155z"/>
   <path class="fil0" d="M130350 78092c-1454,47 -2620,1240 -2627,2717l-24 0c-12,-1477 -1177,-2670 -2627,-2717 1458,-48 2627,-1253 2627,-2738l20 0c0,1485 1169,2690 2631,2738z"/>
   <g>
    <path class="fil7" d="M108411 93720c0,-2303 -1867,-4170 -4170,-4170 -2303,0 -4170,1867 -4170,4170 0,2303 1867,4170 4170,4170 2303,0 4170,-1867 4170,-4170z"/>
    <path class="fil8" d="M108319 92849c-400,-1885 -2074,-3299 -4078,-3299 -2303,0 -4170,1867 -4170,4170 0,528 98,1033 277,1498 667,-190 1673,-526 3172,-1084 2198,-820 3713,-1186 4799,-1285z"/>
    <path class="fil9" d="M104241 97890c1694,0 3152,-1010 3804,-2461 -638,-22 -1351,-85 -2106,-217 -1859,-324 -3760,595 -4835,1255 764,872 1886,1423 3137,1423z"/>
    <path class="fil10" d="M100103 93200c1332,-150 2745,-507 4038,-1224 1150,-638 2063,-1105 2782,-1448 -725,-610 -1660,-978 -2682,-978 -2127,0 -3882,1593 -4138,3650z"/>
    <path class="fil11" d="M105984 96538c-2110,0 -3820,-1710 -3820,-3820 0,-1305 655,-2457 1653,-3146 -2104,212 -3746,1988 -3746,4148 0,2303 1867,4170 4170,4170 1385,0 2613,-676 3371,-1715 -494,233 -1046,363 -1628,363z"/>
   </g>
  </g>
 </g>
</svg>
