<?xml version="1.0" encoding="UTF-8"?>
<!DOCTYPE svg PUBLIC "-//W3C//DTD SVG 1.1//EN" "http://www.w3.org/Graphics/SVG/1.1/DTD/svg11.dtd">
<!-- Creator: CorelDRAW X7 -->
<svg xmlns="http://www.w3.org/2000/svg" xml:space="preserve" width="12.8489in" height="20.3607in" version="1.1" style="shape-rendering:geometricPrecision; text-rendering:geometricPrecision; image-rendering:optimizeQuality; fill-rule:evenodd; clip-rule:evenodd"
viewBox="0 0 128489 203607"
 xmlns:xlink="http://www.w3.org/1999/xlink">
 <defs>
  <style type="text/css">
   <![CDATA[
    .fil0 {fill:#F7F2E6}
   ]]>
  </style>
 </defs>
 <g id="Layer_x0020_1">
  <metadata id="CorelCorpID_0Corel-Layer"/>
  <path class="fil0" d="M0 100206l99814 -13 1220 -81c13927,-962 24836,-13088 24836,-27604 0,-15271 -11941,-27694 -26618,-27694l-1303 0 -293 -1289c-50,-11842 -9343,-21473 -20713,-21473 -3014,0 -5951,689 -8732,2036l-1202 583 -558 -1215c-5844,-12658 -18308,-20839 -31758,-20839 -17247,0 -31717,12776 -34693,30147l0 -9302c5872,-13949 19242,-23462 34693,-23462 14044,0 27083,8275 33570,21189 2782,-1164 5698,-1752 8680,-1752 12385,0 22582,10099 23294,22773 15669,537 28252,13925 28252,30298 0,15459 -11350,28449 -26055,30103l0 113 -1311 100 -52888 0 0 14896 22623 0 0 12650 32003 0c625,-3728 3872,-6574 7773,-6574 4347,0 7883,3534 7883,7883 0,4344 -3536,7884 -7883,7884 -3900,0 -7147,-2850 -7773,-6573l-32003 0 0 10790c2831,692 4936,3247 4936,6290 0,3565 -2903,6469 -6477,6469 -3568,0 -6471,-2904 -6471,-6469 0,-3206 2335,-5870 5391,-6385l0 -23346 -20002 0 0 19732 0 31456 25048 0c627,-3726 3876,-6571 7772,-6571 4350,0 7887,3535 7887,7885 0,4340 -3538,7881 -7887,7881 -3899,0 -7150,-2854 -7774,-6578l-25046 0 0 16050c3108,613 5460,3360 5460,6647 0,3732 -3038,6766 -6770,6766 -3730,0 -6765,-3034 -6765,-6766 1,-3288 2351,-6036 5458,-6648l0 -17352 0 -31458 -28699 0 0 15300c3724,625 6574,3867 6574,7765 0,4349 -3540,7887 -7885,7887 -4344,0 -7883,-3538 -7883,-7887 0,-3899 2850,-7141 6575,-7766l0 -15299 -14300 0 0 -2621 15608 0 30010 0 0 -18423 -22001 0c-204,3084 -2780,5528 -5915,5528 -3271,0 -5927,-2656 -5927,-5924 0,-3272 2656,-5929 5927,-5929 2483,0 4614,1534 5496,3706l22420 0 0 -14896 -45618 0 0 -2618zm17702 16430c1824,0 3309,1480 3309,3307 0,1822 -1485,3305 -3309,3305 -1825,0 -3309,-1483 -3309,-3305 0,-1827 1484,-3307 3309,-3307zm-2094 42552c-2900,0 -5259,2361 -5259,5260 0,2906 2358,5265 5259,5265 2905,0 5266,-2359 5266,-5265 0,-2899 -2361,-5260 -5266,-5260zm53709 -12972c-2120,0 -3850,1724 -3850,3854 0,2123 1730,3850 3850,3850 2126,0 3856,-1727 3856,-3850 0,-2130 -1730,-3854 -3856,-3854zm41317 -19800c-2902,0 -5265,2362 -5265,5263 0,2903 2363,5265 5265,5265 2905,0 5267,-2362 5267,-5265 1,-2901 -2362,-5263 -5267,-5263zm-29579 41159c-2900,0 -5261,2365 -5261,5266 0,2895 2360,5260 5261,5260 2907,0 5268,-2365 5268,-5260 0,-2901 -2362,-5266 -5268,-5266zm-34130 25110c-2288,0 -4149,1865 -4149,4156 0,2288 1861,4148 4149,4148 2288,0 4150,-1860 4150,-4148 0,-2291 -1862,-4156 -4150,-4156zm45314 -154541c-517,0 -1007,-307 -1214,-818 -2506,-6143 -8212,-10111 -14530,-10111 -723,0 -1308,-587 -1308,-1314 0,-718 585,-1305 1308,-1305 7392,0 14045,4610 16954,11737 273,673 -45,1435 -718,1709 -158,70 -326,102 -492,102zm28519 29419c-591,0 -1121,-397 -1270,-987 -2009,-7881 -7905,-14054 -15379,-16118 -702,-192 -1111,-914 -918,-1610 192,-697 920,-1110 1611,-916 8383,2310 14983,9207 17222,17996 178,698 -247,1416 -946,1589 -105,32 -217,46 -320,46zm-61181 -46806c-398,0 -795,-183 -1056,-533 -5712,-7778 -14398,-12238 -23832,-12238 -720,0 -1309,-587 -1309,-1312 0,-722 589,-1305 1309,-1305 10276,0 19732,4846 25946,13305 427,580 304,1404 -279,1830 -232,172 -504,253 -779,253z"/>
 </g>
</svg>
