<?xml version="1.0" encoding="UTF-8"?>
<!DOCTYPE svg PUBLIC "-//W3C//DTD SVG 1.1//EN" "http://www.w3.org/Graphics/SVG/1.1/DTD/svg11.dtd">
<!-- Creator: CorelDRAW X7 -->
<svg xmlns="http://www.w3.org/2000/svg" xml:space="preserve" width="7.61134in" height="5.90551in" version="1.1" style="shape-rendering:geometricPrecision; text-rendering:geometricPrecision; image-rendering:optimizeQuality; fill-rule:evenodd; clip-rule:evenodd"
viewBox="0 0 76113 59055"
 xmlns:xlink="http://www.w3.org/1999/xlink">
 <defs>
  <style type="text/css">
   <![CDATA[
    .fil23 {fill:#536896}
    .fil24 {fill:#7B93C9}
    .fil19 {fill:#8480BC}
    .fil16 {fill:#9F9CCB}
    .fil25 {fill:#AFBEE1}
    .fil14 {fill:#BBB8DA}
    .fil21 {fill:#BFA36F}
    .fil18 {fill:#D2AE6D}
    .fil20 {fill:#D7B67C}
    .fil26 {fill:#D7BF93}
    .fil27 {fill:#E2CBA3}
    .fil12 {fill:#E4CFA9}
    .fil28 {fill:#E7D5B4}
    .fil15 {fill:#E9EDF7}
    .fil13 {fill:#EDDFC4}
    .fil0 {fill:#F7F1E5}
    .fil22 {fill:#F9FAFC}
    .fil10 {fill:#7B93C9;fill-rule:nonzero}
    .fil2 {fill:#8480BC;fill-rule:nonzero}
    .fil9 {fill:#9DB0D9;fill-rule:nonzero}
    .fil3 {fill:#9F9CCB;fill-rule:nonzero}
    .fil5 {fill:#A38755;fill-rule:nonzero}
    .fil11 {fill:#AFBEE1;fill-rule:nonzero}
    .fil1 {fill:#BBB8DA;fill-rule:nonzero}
    .fil6 {fill:#D2AE6D;fill-rule:nonzero}
    .fil4 {fill:#D7B67C;fill-rule:nonzero}
    .fil7 {fill:#DFC596;fill-rule:nonzero}
    .fil33 {fill:#E0C99F;fill-rule:nonzero}
    .fil30 {fill:#E4CFAA;fill-rule:nonzero}
    .fil34 {fill:#E9EDF7;fill-rule:nonzero}
    .fil29 {fill:#EBDBBE;fill-rule:nonzero}
    .fil32 {fill:#EDDFC4;fill-rule:nonzero}
    .fil8 {fill:#EFF2FA;fill-rule:nonzero}
    .fil31 {fill:#F2E8D4;fill-rule:nonzero}
    .fil17 {fill:#F9FAFC;fill-rule:nonzero}
   ]]>
  </style>
 </defs>
 <g id="Layer_x0020_1">
  <metadata id="CorelCorpID_0Corel-Layer"/>
  <g id="_3027625200384">
   <path class="fil0" d="M15147 45814c-4663,1615 -9992,1673 -15147,311l0 4694 0 3515c4491,2098 9904,3958 14837,4543 10202,1210 15814,-3788 16548,-13840 112,-1533 107,-3092 38,-4624 -11,-239 -21,-475 -30,-707 -1445,223 -2973,244 -4551,98 -871,-81 -1758,-213 -2654,-390 -1283,1668 -2832,3097 -4622,4258 -1342,869 -2818,1588 -4419,2142z"/>
   <g>
    <path class="fil1" d="M53360 26864l-2 662c-1,272 -180,544 -537,752 -720,418 -1890,418 -2615,0 -364,-210 -546,-486 -545,-762l2 -662c-1,276 181,552 545,762 725,418 1895,418 2615,0 357,-208 536,-480 537,-752z"/>
    <path class="fil2" d="M52814 26102c725,418 728,1096 9,1514 -720,418 -1890,418 -2615,0 -724,-418 -727,-1096 -8,-1514 719,-418 1890,-418 2614,0z"/>
    <path class="fil3" d="M53360 26019l-2 662c-1,272 -180,544 -537,752 -720,418 -1890,418 -2615,0 -364,-210 -546,-487 -545,-762l2 -662c-1,276 181,552 545,762 725,418 1895,418 2615,0 357,-208 536,-480 537,-752z"/>
    <path class="fil2" d="M52814 25256c725,419 728,1097 9,1515 -720,418 -1890,418 -2615,0 -724,-418 -727,-1096 -8,-1514 719,-418 1890,-418 2614,-1z"/>
    <path class="fil1" d="M53360 25174l-2 662c-1,272 -180,544 -537,752 -720,418 -1890,418 -2615,0 -364,-211 -546,-487 -545,-762l2 -662c-1,275 181,551 545,762 725,418 1895,418 2615,0 357,-208 536,-480 537,-752z"/>
    <path class="fil2" d="M52814 24411c725,419 728,1097 9,1515 -720,418 -1890,418 -2615,0 -724,-418 -727,-1096 -8,-1514 719,-418 1890,-419 2614,-1z"/>
    <path class="fil3" d="M53360 24329l-2 662c-1,272 -180,544 -537,751 -720,419 -1890,419 -2615,0 -364,-210 -546,-486 -545,-762l2 -661c-1,275 181,551 545,762 725,418 1895,418 2615,0 357,-208 536,-480 537,-752z"/>
    <path class="fil2" d="M52814 23566c725,418 728,1097 9,1515 -720,418 -1890,418 -2615,0 -724,-418 -727,-1096 -8,-1514 719,-418 1890,-419 2614,-1z"/>
    <path class="fil1" d="M53360 23483l-2 662c-1,273 -180,545 -537,752 -720,419 -1890,419 -2615,0 -364,-210 -546,-486 -545,-762l2 -662c-1,276 181,552 545,763 725,418 1895,418 2615,0 357,-208 536,-480 537,-753z"/>
    <path class="fil2" d="M52814 22721c725,418 728,1096 9,1514 -720,419 -1890,419 -2615,0 -724,-418 -727,-1096 -8,-1514 719,-418 1890,-418 2614,0z"/>
    <path class="fil3" d="M53360 22638l-2 662c-1,272 -180,545 -537,752 -720,418 -1890,418 -2615,0 -364,-210 -546,-486 -545,-762l2 -662c-1,276 181,552 545,762 725,419 1895,419 2615,0 357,-207 536,-479 537,-752z"/>
    <path class="fil2" d="M52814 21876c725,418 728,1096 9,1514 -720,419 -1890,419 -2615,0 -724,-418 -727,-1096 -8,-1514 719,-418 1890,-418 2614,0z"/>
    <path class="fil1" d="M53360 21793l-2 662c-1,272 -180,544 -537,752 -720,418 -1890,418 -2615,0 -364,-210 -546,-486 -545,-762l2 -662c-1,276 181,552 545,762 725,418 1895,418 2615,0 357,-208 536,-479 537,-752z"/>
    <path class="fil2" d="M52814 21031c725,418 728,1096 9,1514 -720,418 -1890,418 -2615,0 -724,-418 -727,-1096 -8,-1514 719,-418 1890,-418 2614,0z"/>
    <path class="fil3" d="M53360 20948l-2 662c-1,272 -180,544 -537,752 -720,418 -1890,418 -2615,0 -364,-210 -546,-487 -545,-762l2 -662c-1,276 181,552 545,762 725,418 1895,418 2615,0 357,-208 536,-480 537,-752z"/>
    <path class="fil1" d="M52814 20185c725,419 728,1097 9,1515 -720,418 -1890,418 -2615,0 -724,-418 -727,-1096 -8,-1514 719,-418 1890,-419 2614,-1z"/>
    <path class="fil4" d="M50122 28765l-1 662c-1,272 -180,544 -538,752 -719,418 -1890,418 -2614,0 -364,-210 -546,-486 -545,-762l1 -662c0,276 182,552 546,762 724,418 1895,418 2614,0 358,-208 537,-480 537,-752z"/>
    <path class="fil5" d="M49577 28002c724,419 727,1097 8,1515 -719,418 -1890,418 -2614,0 -724,-418 -728,-1096 -8,-1514 719,-418 1890,-418 2614,-1z"/>
    <path class="fil6" d="M50122 27920l-1 662c-1,272 -180,544 -538,752 -719,418 -1890,418 -2614,0 -364,-211 -546,-487 -545,-762l1 -662c0,275 182,551 546,762 724,418 1895,418 2614,0 358,-208 537,-480 537,-752z"/>
    <path class="fil5" d="M49577 27157c724,419 727,1097 8,1515 -719,418 -1890,418 -2614,0 -724,-418 -728,-1096 -8,-1514 719,-418 1890,-419 2614,-1z"/>
    <path class="fil4" d="M50122 27075l-1 662c-1,272 -180,544 -538,751 -719,419 -1890,419 -2614,0 -364,-210 -546,-486 -545,-761l1 -662c0,275 182,551 546,762 724,418 1895,418 2614,0 358,-208 537,-480 537,-752z"/>
    <path class="fil5" d="M49577 26312c724,419 727,1097 8,1515 -719,418 -1890,418 -2614,0 -724,-418 -728,-1096 -8,-1514 719,-418 1890,-419 2614,-1z"/>
    <path class="fil6" d="M50122 26229l-1 662c-1,273 -180,545 -538,752 -719,419 -1890,419 -2614,0 -364,-210 -546,-486 -545,-762l1 -662c0,276 182,552 546,763 724,418 1895,418 2614,0 358,-208 537,-480 537,-753z"/>
    <path class="fil5" d="M49577 25467c724,418 727,1097 8,1514 -719,419 -1890,419 -2614,0 -724,-417 -728,-1095 -8,-1514 719,-417 1890,-418 2614,0z"/>
    <path class="fil4" d="M50122 25384l-1 662c-1,273 -180,545 -538,752 -719,418 -1890,418 -2614,0 -364,-210 -546,-486 -545,-762l1 -662c0,276 182,552 546,762 724,419 1895,419 2614,0 358,-207 537,-479 537,-752z"/>
    <path class="fil5" d="M49577 24622c724,418 727,1096 8,1514 -719,419 -1890,419 -2614,0 -724,-418 -728,-1096 -8,-1514 719,-418 1890,-418 2614,0z"/>
    <path class="fil6" d="M50122 24539l-1 662c-1,272 -180,544 -538,752 -719,418 -1890,418 -2614,0 -364,-210 -546,-486 -545,-762l1 -662c0,276 182,552 546,762 724,418 1895,418 2614,0 358,-207 537,-480 537,-752z"/>
    <path class="fil7" d="M49577 23777c724,418 727,1096 8,1514 -719,418 -1890,418 -2614,0 -724,-418 -728,-1096 -8,-1514 719,-418 1890,-418 2614,0z"/>
   </g>
   <g>
    <polygon class="fil8" points="58713,30930 60540,29869 55736,27095 46934,32210 53576,36045 60551,31992 "/>
    <polygon class="fil9" points="53576,36045 53574,36398 46933,32564 46934,32210 "/>
    <path class="fil10" d="M58815 30453l-539 313 -1379 -796 -511 297 1379 796 -448 261 -1379 -796 -559 324 1380 796 -447 260 -1380 -796 -545 317 4 819 1094 631c29,17 29,44 0,60l-1022 594 445 258 -519 301 -1140 -658 519 -301 592 341 973 -565 -1044 -602 -1502 1 -5 -871 -1055 -609 -973 565 518 299 -519 301 -518 -299 -759 442 518 299 -520 301 -1138 -657 519 -302 518 299 760 -441 -518 -299 519 -302 518 299 1023 -594c28,-17 74,-17 103,0l1106 639 1389 0 558 -324 -1365 -789 447 -260 1365 788 558 -324 -1365 -788 448 -261 1366 789 511 -297 -1365 -789 538 -313 2846 1643z"/>
    <polygon class="fil11" points="60540,29869 60551,31992 58713,30930 "/>
    <polygon class="fil11" points="60551,31991 60550,32345 53575,36398 53576,36045 "/>
   </g>
   <g>
    <path class="fil12" d="M0 8414c1838,438 4112,1530 7187,3498 1080,691 2258,1489 3551,2405 6552,4641 14561,5906 20900,3295 516,-213 1015,-448 1496,-705 6358,-3396 7724,-10544 9439,-16907l29427 0c5974,6476 5561,14940 -2030,17762 -9250,816 -12296,-3284 -19251,-5096 -4458,-1161 -7604,678 -9706,7977 -2405,8353 -6985,13840 -13359,15387 -12048,2923 -19691,-5594 -27654,-11368l0 -16248z"/>
    <path class="fil13" d="M0 8414l0 -8414 42573 0c-2157,8006 -1849,14257 -10802,17943 -6339,2611 -14481,1015 -21033,-3626 -3012,-2134 -7236,-5067 -10738,-5903z"/>
    <path class="fil13" d="M0 19496c2020,1212 4485,3181 7702,6150 1988,1835 4192,3314 6494,4400 4530,2137 9441,2756 13848,1596 1394,-367 2698,-899 3901,-1584 3852,-2194 6669,-5964 8104,-10946 1553,-5396 3672,-8558 6477,-9669 898,-356 1848,-488 2837,-449 6961,274 9645,8422 20607,8768 -8104,3012 -19279,-2304 -24665,932 -3727,2239 -2997,6621 -3182,11263 -107,2669 -752,5028 -1823,7004 -7684,14183 -30411,1862 -40300,-6694l0 -10771z"/>
   </g>
   <g>
    <g>
     <path class="fil14" d="M6096 19718l0 3 0 4c1,64 4,125 8,186l0 0 61 -35c1,29 2,59 3,88l0 0 62 -34c1,29 1,59 3,88l0 0 61 -34c2,28 2,59 4,87l0 0 61 -34c1,29 2,59 3,88l0 0 61 -34c2,29 2,59 4,87l0 0 61 -34c1,29 2,59 3,88l0 0 62 -34c1,29 1,59 3,88l0 0 61 -35c2,29 2,60 4,88l0 0 61 -34c1,29 2,59 3,88l0 0 9246 -5180c4,-67 7,-134 7,-201l0 0c0,-631 -192,-1094 -503,-1331l0 0c-21,-19 -42,-36 -65,-53l0 0c-20,-19 -42,-37 -64,-54l0 0c-21,-19 -43,-37 -65,-53l0 0c-21,-20 -42,-37 -64,-54l0 0c-21,-19 -43,-37 -65,-54l0 0c-21,-19 -43,-36 -65,-53l0 0c-21,-19 -42,-37 -64,-54l0 0c-21,-19 -43,-37 -65,-53l0 0c-299,-274 -726,-316 -1202,-66l0 0c-129,-284 -301,-511 -507,-673l0 0c-21,-19 -43,-36 -65,-54l0 0c-21,-18 -43,-36 -65,-53l0 0c-21,-19 -42,-37 -64,-54l0 0c-21,-19 -43,-36 -65,-53l0 0c-21,-19 -42,-37 -64,-54l0 0c-21,-19 -43,-36 -65,-54l0 0c-21,-18 -43,-36 -65,-53l0 0c-21,-19 -42,-36 -64,-54l0 0c-256,-227 -571,-348 -923,-348l0 0c-314,0 -658,96 -1020,298l0 0c-1200,673 -2215,2314 -2540,3968l0 0c-71,29 -142,62 -215,103l0 0c-1048,587 -1898,2205 -1898,3612z"/>
     <path class="fil15" d="M11331 12518c-1201,673 -2215,2314 -2541,3967 -70,29 -142,63 -215,103 -1048,587 -1897,2205 -1897,3613 0,35 1,70 2,105l2 -1c1,28 2,57 3,85 0,0 0,1 0,2 0,0 0,0 0,1l9246 -5180c4,-67 7,-134 7,-201 0,-631 -192,-1094 -503,-1331 -1,-1 -2,-2 -3,-3 -304,-229 -720,-242 -1178,15 -111,62 -219,138 -324,224 -45,-273 -117,-517 -214,-730 -129,-284 -301,-511 -507,-673 -3,-3 -6,-5 -9,-8 -480,-371 -1140,-397 -1869,12z"/>
    </g>
    <g>
     <path class="fil16" d="M19314 7708l0 -6c0,-390 -119,-677 -311,-823l0 0c-13,-12 -26,-23 -40,-33l0 0c-13,-12 -26,-23 -40,-33l0 0c-13,-12 -26,-23 -40,-33l0 0c-13,-12 -26,-23 -40,-34l0 0c-13,-12 -26,-22 -40,-33l0 0c-13,-12 -26,-22 -40,-33l0 0c-13,-12 -26,-23 -40,-33l0 0c-13,-12 -26,-23 -40,-33l0 0c-185,-169 -449,-195 -743,-40l0 0c-80,-176 -187,-317 -314,-417l0 0c-13,-12 -27,-23 -40,-33l0 0c-13,-12 -27,-23 -40,-34l0 0c-13,-11 -27,-22 -40,-33l0 0c-13,-11 -27,-22 -40,-33l0 0c-13,-11 -27,-22 -40,-33l0 0c-13,-11 -27,-22 -40,-33l0 0c-13,-12 -27,-23 -40,-33l0 0c-13,-12 -27,-23 -40,-33l0 0c-159,-141 -353,-216 -571,-216 -194,0 -407,60 -631,185l0 0c-743,416 -1370,1431 -1572,2455l0 0c-43,17 -88,38 -133,63l0 0c-648,363 -1174,1364 -1174,2235l0 0c0,41 3,80 5,119l0 0 38 -21c1,18 1,36 2,54l0 0 38 -21c1,18 1,37 2,54l0 0 38 -21c1,18 1,37 2,54l0 0 38 -21c1,18 1,37 2,55l0 0 38 -22c1,18 1,37 2,55l0 0 38 -22c1,18 1,37 2,55l0 0 38 -21c1,18 1,36 2,54l0 0 38 -21c0,18 1,36 2,54l0 0 38 -21c0,18 1,37 2,54l0 0 5720 -3205c2,-39 4,-79 4,-118z"/>
     <path class="fil17" d="M13590 11031c-3,-39 -5,-78 -5,-119 0,-871 526,-1871 1174,-2234 45,-26 89,-46 133,-64 202,-1023 829,-2039 1572,-2455 795,-445 1457,-57 1608,866 65,-53 132,-100 200,-139 576,-322 1042,43 1042,817 0,40 -2,82 -4,124l-5720 3204z"/>
    </g>
    <g>
     <path class="fil14" d="M7930 5996l0 -3c0,-243 -74,-421 -193,-511l0 0c-8,-8 -17,-15 -25,-21l0 0c-8,-7 -17,-14 -25,-21l0 0c-8,-7 -16,-14 -25,-20l0 0c-8,-7 -16,-14 -25,-21l0 0c-8,-7 -16,-14 -25,-20l0 0c-8,-8 -16,-14 -24,-21l0 0c-8,-7 -17,-14 -25,-20l0 0c-8,-8 -17,-15 -25,-21l0 0c-115,-105 -279,-121 -462,-25l0 0c-49,-109 -115,-196 -195,-259l0 0c-8,-7 -16,-14 -24,-20l0 0c-9,-8 -17,-14 -25,-21l0 0c-8,-7 -17,-14 -25,-21l0 0c-8,-7 -16,-13 -25,-20l0 0c-8,-7 -16,-14 -25,-21l0 0c-8,-7 -16,-14 -25,-20l0 0c-8,-7 -16,-14 -24,-21l0 0c-8,-7 -17,-14 -25,-20l0 0c-99,-88 -219,-134 -355,-134 -120,0 -253,37 -391,114l0 0c-462,259 -851,889 -976,1524l0 0c-27,12 -55,24 -83,40l0 0c-402,226 -729,847 -729,1388l0 0c0,25 2,49 3,73l0 0 24 -13c0,11 1,23 1,34l0 0 24 -13c0,11 0,22 1,33l0 0 24 -13c0,11 0,23 1,34l0 0 23 -13c1,11 1,23 2,34l0 0 23 -14c1,12 1,23 1,34l0 0 24 -13c1,11 1,23 1,34l0 0 24 -13c0,11 0,22 1,33l0 0 24 -13c0,11 0,23 1,34l0 0 23 -13c1,11 1,22 2,34l0 0 3551 -1990c2,-25 3,-49 3,-74z"/>
     <path class="fil17" d="M4376 8059c-2,-24 -3,-48 -3,-73 0,-541 326,-1162 729,-1388 28,-15 55,-28 82,-39 125,-636 515,-1266 976,-1524 493,-277 905,-36 998,537 41,-33 82,-62 125,-86 357,-200 647,27 647,507 0,25 -1,51 -3,77l-3551 1989z"/>
    </g>
   </g>
   <g>
    <g>
     <path class="fil18" d="M43116 23847c175,101 175,264 2,364 -86,51 -199,76 -313,76 -85,0 -169,-14 -243,-42 -26,-10 -50,-21 -72,-34 -1,-1 -2,-1 -3,-2 -171,-100 -171,-262 1,-362 172,-100 455,-100 628,0zm-314 -112c-130,0 -260,29 -359,86 -197,115 -196,300 -1,414 1,1 2,1 3,2 22,13 46,24 71,34 198,79 472,68 647,-34 198,-114 197,-301 -2,-416 -99,-57 -229,-86 -359,-86z"/>
     <path class="fil18" d="M43228 23782c236,136 238,358 3,494 -117,68 -271,102 -425,102 -126,0 -252,-22 -358,-67 -24,-11 -48,-22 -70,-35 -1,-1 -2,-1 -3,-2 -232,-136 -233,-356 0,-492 235,-136 618,-136 853,0zm-826 556c262,114 637,102 874,-35 260,-151 258,-396 -3,-547 -130,-75 -301,-113 -471,-113 -171,0 -342,38 -472,113 -258,150 -258,394 0,545 0,0 1,1 2,2 23,12 46,24 70,35z"/>
     <path class="fil18" d="M43324 23726c291,168 292,441 5,608 -144,83 -334,125 -524,125 -161,0 -322,-30 -456,-90 -24,-11 -48,-23 -70,-36 -1,0 -2,-1 -2,-1 -288,-168 -288,-439 -1,-606 288,-167 759,-167 1048,0zm-1020 669c317,146 779,134 1070,-35 312,-182 311,-478 -5,-660 -157,-91 -364,-136 -570,-136 -206,0 -412,45 -568,136 -312,181 -311,476 1,658 1,0 2,1 2,1 23,13 46,25 70,36z"/>
     <path class="fil18" d="M44304 24459c-72,0 -144,-14 -204,-41 -11,-5 -22,-10 -32,-16 -13,-7 -24,-15 -35,-24 -93,-75 -82,-180 34,-247 129,-75 339,-75 469,0 130,75 130,197 1,272 -64,37 -149,56 -233,56zm-271 -347c-134,78 -145,200 -34,286 11,8 23,16 36,24 10,5 21,11 31,16 149,69 367,64 505,-16 147,-86 146,-225 -2,-311 -74,-42 -171,-64 -268,-64 -97,0 -194,22 -268,65z"/>
     <path class="fil18" d="M44304 24527c-102,0 -205,-20 -288,-60 -11,-5 -21,-10 -31,-16 -13,-8 -25,-16 -36,-24 -139,-102 -128,-251 34,-345 175,-101 461,-101 636,0 177,102 177,267 2,369 -87,51 -202,76 -317,76zm-322 -40c196,96 490,90 673,-16 194,-113 193,-296 -2,-408 -97,-56 -225,-84 -352,-84 -128,0 -255,28 -352,84 -180,105 -192,271 -34,384 11,8 23,16 36,24 10,5 20,11 31,16z"/>
     <path class="fil18" d="M44304 24587c-129,0 -258,-25 -362,-77 -10,-5 -21,-11 -31,-16 -13,-8 -25,-16 -36,-24 -179,-125 -168,-312 34,-430 214,-124 566,-124 782,0 217,125 218,329 3,454 -107,62 -248,93 -390,93zm-395 -57c236,119 595,113 819,-17 233,-135 232,-356 -4,-492 -117,-68 -271,-102 -425,-102 -154,0 -307,34 -424,102 -220,128 -231,332 -34,469 12,8 24,16 37,23 10,6 20,11 31,17z"/>
     <path class="fil18" d="M42882 25987c-14,-8 -26,-16 -36,-25 -92,-75 -81,-179 34,-246 129,-75 340,-76 469,-1 130,75 130,197 2,272 -65,37 -149,56 -234,56 -72,0 -145,-13 -205,-41 -10,-4 -21,-10 -30,-15zm501 -291c-74,-43 -171,-64 -268,-64 -97,0 -195,21 -268,64 -134,78 -145,200 -35,286 11,8 23,16 37,24 9,6 19,11 30,16 149,69 368,65 505,-15 148,-86 147,-226 -1,-311z"/>
     <path class="fil18" d="M42761 26011c-137,-102 -126,-250 35,-344 175,-102 461,-102 637,0 176,102 177,267 2,369 -87,50 -202,76 -317,76 -103,0 -206,-21 -289,-61 -11,-5 -21,-10 -31,-16 -13,-7 -25,-15 -37,-24zm2 -363c-180,104 -192,270 -36,383 12,8 24,16 37,24 10,6 20,11 30,16 197,96 491,91 674,-16 194,-112 193,-295 -2,-408 -97,-56 -224,-84 -352,-84 -127,0 -254,28 -351,85z"/>
     <path class="fil18" d="M42688 26054c-179,-125 -168,-312 34,-429 215,-125 566,-125 783,0 216,125 217,329 3,453 -108,63 -249,94 -391,94 -129,0 -258,-26 -362,-78 -11,-5 -21,-10 -30,-16 -14,-7 -26,-15 -37,-24zm0 -448c-220,128 -231,332 -34,468 12,8 24,16 37,24 10,5 20,11 30,16 237,119 597,114 820,-16 234,-136 232,-357 -3,-492 -118,-68 -272,-102 -425,-102 -154,0 -308,34 -425,102z"/>
     <path class="fil18" d="M38523 33819c-142,0 -285,-32 -394,-95 -187,-108 -214,-274 -80,-398l-57 -34c-165,143 -137,339 81,465 248,143 651,144 898,0 247,-143 245,-377 -3,-521 -124,-71 -286,-107 -449,-107 -150,0 -300,31 -420,92l55 33c217,-110 550,-105 758,15 218,126 218,330 2,456 -107,62 -249,94 -391,94z"/>
     <path class="fil18" d="M38524 33933c-194,0 -388,-42 -535,-128 -266,-153 -293,-394 -81,-565l-55 -34c-245,189 -219,461 79,633 326,188 856,188 1180,0 324,-189 323,-495 -4,-684 -163,-94 -376,-141 -590,-141 -199,0 -398,41 -556,123l55 34c295,-153 751,-147 1035,17 295,170 297,447 3,618 -146,85 -338,127 -531,127z"/>
     <path class="fil18" d="M38523 34035c-238,0 -476,-53 -658,-158 -335,-194 -362,-500 -78,-711l-56 -34c-315,229 -289,566 78,778 395,228 1034,228 1425,0 391,-227 389,-597 -6,-825 -197,-114 -455,-170 -713,-170 -241,0 -482,49 -673,149l55 34c362,-189 925,-183 1275,20 364,209 365,551 5,760 -179,104 -416,157 -654,157z"/>
     <path class="fil18" d="M38301 32016c249,144 652,144 899,1 246,-144 245,-378 -3,-521 -124,-71 -287,-107 -449,-107 -147,0 -293,29 -411,87l57 33c217,-105 542,-99 747,20 218,126 218,330 2,455 -108,63 -249,94 -391,94 -143,0 -285,-31 -395,-94 -190,-110 -214,-281 -71,-406l-58 -33c-173,144 -148,344 73,471z"/>
     <path class="fil18" d="M38752 32193c-193,0 -387,-43 -535,-128 -268,-155 -293,-399 -74,-569l-57 -33c-250,189 -225,462 74,635 327,189 857,188 1181,0 324,-188 322,-495 -4,-683 -163,-94 -376,-141 -590,-141 -197,0 -394,40 -551,121l56 32c296,-149 747,-143 1029,20 295,171 297,448 3,619 -146,85 -339,127 -532,127z"/>
     <path class="fil18" d="M38752 32294c-238,0 -476,-52 -658,-157 -336,-194 -362,-502 -76,-713l-57 -33c-317,229 -291,566 77,778 395,228 1034,228 1425,1 391,-227 389,-597 -6,-825 -197,-114 -455,-171 -713,-171 -241,0 -482,50 -672,149l57 33c362,-188 922,-180 1272,21 363,210 365,551 5,760 -180,105 -417,157 -654,157z"/>
     <path class="fil18" d="M28274 35765c-178,104 -468,104 -649,-1 -166,-95 -179,-246 -39,-350l-47 -27c-165,119 -151,294 40,404 205,119 538,119 742,1 204,-119 203,-312 -3,-430 -191,-111 -495,-118 -700,-21l46 27c180,-82 442,-75 608,21 180,104 180,272 2,376z"/>
     <path class="fil18" d="M28391 35832c-242,141 -637,141 -881,0 -230,-133 -244,-344 -41,-486l-47 -27c-228,157 -215,393 40,540 270,156 708,155 975,0 268,-156 267,-409 -3,-565 -256,-147 -663,-155 -933,-21l46 27c245,-119 611,-111 841,21 244,141 245,370 3,511z"/>
     <path class="fil18" d="M28492 35891c-298,173 -784,173 -1084,0 -286,-165 -300,-430 -42,-604l-46 -27c-285,189 -270,478 41,658 326,188 854,188 1177,0 323,-187 321,-493 -5,-681 -311,-180 -809,-188 -1134,-23l46 27c300,-150 756,-142 1042,23 300,173 302,455 5,627z"/>
     <path class="fil18" d="M28349 38596c-340,-197 -363,-509 -68,-719l-56 -33c-327,229 -303,570 68,784 394,228 1033,228 1424,1 391,-228 389,-598 -5,-826 -390,-224 -1019,-227 -1411,-7l56 33c361,-202 941,-200 1299,7 363,210 365,551 5,760 -360,209 -949,209 -1312,0z"/>
     <path class="fil18" d="M28348 37916c-258,189 -236,466 67,641 327,189 857,188 1180,0 325,-189 323,-495 -4,-684 -322,-186 -842,-188 -1168,-5l57 32c294,-164 765,-162 1055,6 296,170 297,448 4,618 -293,170 -771,170 -1067,0 -271,-157 -294,-404 -67,-575l-57 -33z"/>
     <path class="fil18" d="M28490 37998c-181,144 -158,348 66,477 249,143 651,144 898,1 247,-144 246,-378 -3,-521 -244,-141 -639,-143 -887,-6l56 33c217,-119 562,-118 775,5 218,126 219,331 3,456 -216,125 -568,125 -786,-1 -194,-111 -215,-285 -65,-411l-57 -33z"/>
     <path class="fil18" d="M21274 39226c-215,125 -567,125 -785,-1 -218,-125 -219,-329 -3,-454 193,-112 495,-125 713,-37l57 -32c-249,-106 -602,-94 -826,36 -247,144 -245,377 3,520 248,143 651,144 898,0 236,-137 245,-357 27,-502l-56 33c187,127 178,317 -28,437z"/>
     <path class="fil18" d="M21415 39307c-292,170 -771,170 -1066,0 -295,-170 -296,-448 -4,-618 271,-157 700,-169 996,-36l57 -33c-328,-151 -807,-139 -1109,37 -324,188 -323,495 2,683 327,188 857,188 1181,0 314,-183 322,-475 27,-665l-56 33c264,171 255,435 -28,599z"/>
     <path class="fil18" d="M21537 39379c-359,209 -949,209 -1312,-1 -362,-209 -364,-550 -4,-759 338,-197 877,-209 1242,-36l57 -33c-396,-190 -986,-178 -1356,36 -391,228 -389,598 5,825 395,228 1034,228 1425,0 380,-220 389,-576 27,-805l-57 32c331,211 322,538 -27,741z"/>
     <path class="fil18" d="M16024 38425c-216,125 -568,125 -786,-1 -217,-125 -218,-329 -3,-455 206,-119 535,-125 754,-17l56 -33c-249,-125 -629,-120 -866,18 -247,143 -245,377 3,519 248,144 651,145 898,1 224,-130 244,-335 60,-479l-57 33c154,126 134,301 -59,414z"/>
     <path class="fil18" d="M16165 38506c-293,170 -772,170 -1067,-1 -294,-170 -296,-447 -4,-617 284,-165 740,-170 1036,-18l56 -32c-327,-171 -833,-165 -1148,17 -324,189 -323,495 3,683 327,189 856,188 1180,0 302,-175 322,-452 61,-641l-57 32c230,172 210,420 -60,577z"/>
     <path class="fil18" d="M16287 38578c-360,209 -949,209 -1313,-1 -362,-209 -364,-550 -4,-759 350,-204 917,-209 1281,-17l56 -33c-395,-210 -1012,-205 -1393,17 -391,227 -389,597 4,825 395,227 1034,227 1425,0 368,-214 388,-554 60,-783l-56 32c297,211 277,523 -60,719z"/>
     <path class="fil18" d="M18648 35513c-204,118 -202,311 3,429 205,119 537,119 741,1 200,-116 203,-303 12,-422l-47 27c167,104 162,267 -11,368 -178,103 -469,103 -649,-1 -180,-103 -180,-271 -2,-375 149,-87 377,-101 552,-43l48 -28c-202,-72 -472,-58 -647,44z"/>
     <path class="fil18" d="M18581 35983c-243,-141 -244,-370 -3,-510 214,-124 546,-139 789,-45l47 -27c-269,-109 -643,-94 -882,45 -268,155 -267,409 2,564 270,156 708,155 975,0 263,-153 267,-400 11,-556l-47 27c230,141 227,364 -11,502 -241,140 -637,140 -881,0z"/>
     <path class="fil18" d="M18479 36042c-299,-173 -301,-455 -3,-628 269,-156 692,-171 992,-44l47 -27c-326,-142 -791,-127 -1086,45 -323,187 -321,493 4,681 150,86 342,133 537,140l422 -80 51 -30c-296,113 -701,94 -964,-57z"/>
     <path class="fil18" d="M19573 35423c251,153 279,383 85,552l145 -83c102,-167 41,-360 -183,-496l-47 27z"/>
    </g>
    <g>
     <path class="fil19" d="M42870 23891l-2 0c-172,0 -326,121 -208,217l0 0c9,7 19,14 30,20l0 0c13,8 26,14 39,19l0 0c217,86 506,-96 299,-215l0 0c-49,-29 -104,-41 -158,-41z"/>
     <path class="fil19" d="M43668 25049c10,8 21,17 35,24l0 0c10,6 21,12 32,16l0 0c218,92 516,-92 307,-213l0 0c-50,-28 -106,-41 -160,-41l0 0c-170,0 -323,119 -214,214l0 0z"/>
     <path class="fil19" d="M43126 25712l-2 0c-169,0 -321,117 -214,212l0 0c9,9 21,18 36,26l0 0c9,6 19,11 30,15l0 0c219,94 518,-90 308,-212l0 0c-49,-28 -104,-40 -158,-41z"/>
     <path class="fil19" d="M39358 26035l68 40 3303 -1928c-13,-5 -26,-11 -39,-19l0 0c-11,-6 -21,-13 -30,-20l0 0 -3302 1927z"/>
     <path class="fil19" d="M43151 24891l-1918 359 -1606 941 68 39 1589 -931 1919 -359 1098 -639c-7,-3 -13,-7 -20,-11l0 0c-18,-10 -32,-20 -43,-31l0 0 -1087 632z"/>
     <path class="fil19" d="M43305 25261l-1979 296 -1387 814 68 39 1369 -803 1979 -296 380 -222c-11,-4 -22,-10 -32,-16l0 0c-14,-7 -25,-16 -35,-24l0 0 -363 212z"/>
     <path class="fil19" d="M41097 26574c7,5 16,11 25,17l0 0c15,8 30,15 45,21l0 0c217,80 499,-100 294,-218l0 0c-50,-29 -106,-41 -160,-41l0 0c-174,0 -330,124 -204,221l0 0z"/>
     <path class="fil19" d="M40599 26871l68 39 500 -298c-15,-6 -30,-13 -45,-21l0 0c-9,-6 -18,-12 -25,-17l-498 297z"/>
     <path class="fil19" d="M40948 27072l68 40 1960 -1147c-11,-4 -21,-9 -30,-15l0 0c-15,-8 -27,-17 -36,-26l0 0 -1962 1148z"/>
     <polygon class="fil19" points="39426,26075 39426,20073 39358,20073 39358,26035 "/>
     <polygon class="fil19" points="39695,26230 39695,20229 39627,20229 39627,26191 "/>
     <polygon class="fil19" points="40007,26411 40007,20409 39939,20409 39939,26372 "/>
     <polygon class="fil19" points="40599,18262 40599,26871 40667,26910 40667,18262 "/>
     <polygon class="fil19" points="41016,27112 41016,18464 40948,18464 40948,27072 "/>
     <path class="fil19" d="M44090 24326c11,10 25,21 42,31l0 0c7,4 14,8 21,11l0 0c219,104 531,-85 318,-208l0 0c-50,-28 -106,-41 -161,-41l0 0c-165,0 -313,113 -220,207l0 0z"/>
     <path class="fil19" d="M24088 33326c-3,0 -7,1 -11,1l0 0c-241,47 -239,458 11,423l0 0c228,-32 251,-379 68,-422l0 0c-12,-3 -25,-4 -39,-4l0 0c-9,0 -19,0 -29,2l0 0z"/>
     <path class="fil19" d="M25064 34855l-2 0 -1 0c-9,0 -18,1 -28,2l0 0c-8,1 -17,3 -25,5l0 0c-227,59 -221,454 24,420l0 0c235,-33 253,-398 55,-425l0 0c-8,-1 -15,-2 -23,-2z"/>
     <path class="fil19" d="M25025 30582l-1 132 -16 4148c8,-2 17,-4 25,-5l0 0c19,-2 37,-3 54,0l0 0 16 -4286 -78 11z"/>
     <path class="fil19" d="M25037 23810l-12 6759 -938 1551 1 1206c26,-4 48,-3 68,2l11 -1193 857 -1421 1 -132 78 -11 12 -6772 -78 11z"/>
     <path class="fil19" d="M25589 23732l-21 12160c20,-10 42,-17 78,-22l0 0 21 -12149 -78 11z"/>
     <path class="fil19" d="M26881 29941c-8,0 -16,1 -25,2l0 0c-19,3 -37,8 -54,15l0 0c-198,83 -181,443 53,410l0 0c243,-34 254,-427 30,-427l0 0c-1,0 -3,0 -4,0l0 0z"/>
     <path class="fil19" d="M26812 25085l-10 4873c17,-7 35,-12 54,-15l0 0c9,-1 17,-2 25,-2l0 0 9 -4867 -78 11z"/>
     <path class="fil19" d="M26127 23656l-12 6530 846 752 -4 4113c9,-2 17,-4 26,-5l0 0c20,-3 37,-3 54,0l0 0 4 -4155 -848 -752 12 -6494 -78 11z"/>
     <path class="fil19" d="M26957 35051l756 436c10,-8 22,-16 36,-24l0 0c14,-9 28,-16 43,-22l-756 -436 -79 46z"/>
     <path class="fil19" d="M27792 35441c-15,6 -29,13 -43,22l0 0c-14,8 -26,16 -36,24l0 0c-83,69 -45,150 44,201l0 0c100,58 263,78 390,4l0 0c127,-73 91,-168 -9,-226l0 0c-54,-31 -127,-51 -203,-51l0 0c-48,0 -97,8 -143,26l0 0z"/>
     <path class="fil19" d="M26101 35377l3060 1771c10,-9 23,-18 37,-27l0 0c13,-7 27,-14 41,-20l-3059 -1770 -79 46z"/>
     <path class="fil19" d="M25568 35890l801 462 604 1339 435 254c9,-7 19,-14 31,-21l0 0c16,-9 33,-17 49,-23l0 0 -413 -243 -605 -1339 -823 -475 -79 46z"/>
     <path class="fil19" d="M27626 37876l-2 0c-46,1 -92,8 -136,25l0 0c-16,6 -33,14 -49,23l0 0c-12,7 -22,14 -31,21l0 0c-89,70 -51,153 39,205l0 0c100,57 262,78 390,4l0 0c127,-74 91,-169 -8,-226l0 0c-54,-31 -127,-52 -203,-52z"/>
     <path class="fil19" d="M25788 35559l1059 612 732 1298 1277 741c6,-5 13,-9 21,-14l0 0c21,-12 42,-21 64,-28l0 0 -1263 -733 -732 -1299 -1079 -623 -79 46z"/>
     <path class="fil19" d="M26122 23217l-21 12160c20,-10 42,-17 78,-22l0 0 21 -12149 -78 11z"/>
     <path class="fil19" d="M25809 23397l-21 12161c20,-11 42,-18 78,-22l0 0 21 -12150 -78 11z"/>
     <path class="fil19" d="M29134 37009c-17,7 -34,15 -50,24l0 0c-12,7 -22,14 -31,21l0 0c-89,70 -51,153 39,204l0 0c100,58 262,78 390,4l0 0c127,-74 91,-168 -8,-225l0 0c-54,-32 -127,-52 -203,-52l0 0c-46,0 -93,7 -137,24l0 0z"/>
     <path class="fil19" d="M28853 38072c-17,6 -33,14 -49,23l0 0c-12,7 -23,14 -32,22l0 0c-88,70 -50,152 40,204l0 0c99,57 262,78 389,4l0 0c128,-74 92,-169 -8,-226l0 0c-54,-31 -127,-51 -203,-51l0 0c-46,0 -93,7 -137,24l0 0z"/>
     <path class="fil19" d="M28216 28904l0 125 -7 1255c8,-3 16,-4 25,-6l0 0c17,-2 32,-2 46,-1l0 0 8 -1383 -72 10z"/>
     <path class="fil19" d="M27654 31917c-9,2 -18,3 -26,6l0 0c-203,56 -195,411 25,380l0 0c214,-30 230,-365 47,-386l0 0c-6,-1 -13,-2 -20,-2l0 0c-8,0 -17,1 -26,2l0 0z"/>
     <path class="fil19" d="M28230 21662l-14 7230 -579 995 17 2030c16,-2 32,-2 46,0l0 0 9 -2016 507 -872 0 -125 72 -10 13 -7242 -71 10z"/>
     <path class="fil19" d="M29237 29276c-9,1 -18,3 -26,5l0 0c-204,57 -196,411 25,380l0 0c213,-30 230,-364 46,-386l0 0c-6,-1 -12,-1 -19,-1l0 0c-9,0 -17,0 -26,2l0 0z"/>
     <path class="fil19" d="M28576 21613l-11 6011 653 677 -7 980c8,-2 17,-4 26,-5l0 0c16,-3 31,-3 45,-1l0 0 7 -1015 -653 -677 11 -5980 -71 10z"/>
     <path class="fil19" d="M28263 30276l-2 0 -2 0c-8,0 -16,1 -25,2l0 0c-9,2 -17,3 -25,6l0 0c-204,56 -196,411 25,380l0 0c213,-30 229,-365 46,-387l0 0c-5,0 -11,-1 -17,-1z"/>
     <path class="fil19" d="M36644 30633l1761 1014c11,-9 23,-17 37,-25l0 0c27,-15 55,-28 83,-38l-1766 -1017 -115 66z"/>
     <path class="fil19" d="M38711 31554l-2 0c-62,0 -124,9 -184,30l0 0c-28,10 -56,23 -83,38l0 0c-14,8 -26,16 -37,25l0 0c-288,212 252,510 606,306l0 0c285,-165 10,-399 -300,-399z"/>
     <polygon class="fil19" points="36759,30567 36759,19999 36644,19999 36644,30633 "/>
     <polygon class="fil19" points="35420,31596 35420,21029 35305,21029 35305,31662 "/>
     <path class="fil19" d="M38436 33287l-3 0c-59,1 -120,9 -178,29l0 0c-30,10 -59,23 -88,40l0 0c-12,7 -23,14 -34,22l0 0c-296,212 246,513 602,308l0 0c285,-165 10,-399 -299,-399z"/>
     <path class="fil19" d="M35305 31663l770 461 -129 1662 786 447c11,-8 22,-15 34,-22l0 0c29,-16 58,-29 88,-40l0 0 -743 -422 118 -1534 1904 1163c11,-8 22,-15 34,-22l0 0c29,-17 58,-30 88,-40l-2016 -1232 2 -20 -820 -468 -116 67z"/>
     <path class="fil19" d="M36957 34099l-3 0c-59,0 -120,9 -178,29l0 0c-30,10 -59,23 -88,39l0 0c-12,8 -23,15 -34,22l0 0c-296,213 246,514 602,309l0 0c285,-165 10,-399 -299,-399z"/>
     <path class="fil19" d="M36007 20360l-8 4712c5,-1 10,-2 16,-3l0 0c20,-2 38,-2 54,1l0 0 9 -4720 -71 10z"/>
     <path class="fil19" d="M36015 25069c-6,1 -11,2 -16,3l0 0c-213,48 -209,415 15,383l0 0c210,-29 229,-354 55,-385l0 0c-8,-2 -18,-3 -28,-3l0 0c-8,0 -17,1 -26,2l0 0z"/>
     <path class="fil19" d="M36132 29168l-1 0 -1 0c-8,0 -16,0 -25,2l0 0c-16,2 -31,6 -45,11l0 0c-183,73 -169,403 44,373l0 0c221,-31 231,-386 28,-386z"/>
     <path class="fil19" d="M36681 20265l-10 5424 -599 1164 -12 2328c14,-5 29,-9 71,-13l0 0 12 -2304 599 -1164 10 -5445 -71 10z"/>
     <path class="fil19" d="M37144 29721c-7,0 -14,0 -22,1l0 0c-17,3 -34,7 -49,14l0 0c-179,76 -164,401 49,371l0 0c220,-31 230,-386 27,-386l0 0c-2,0 -3,0 -5,0l0 0z"/>
     <path class="fil19" d="M37091 20207l-18 9529c15,-7 32,-11 49,-14l0 0c8,-1 15,-1 22,-1l0 0 18 -9524 -71 10z"/>
     <path class="fil19" d="M37707 23991c-5,0 -11,1 -16,2l0 0c-20,3 -38,8 -55,16l0 0c-173,80 -156,399 54,369l0 0c220,-30 231,-387 27,-387l0 0c-3,0 -7,0 -10,0l0 0z"/>
     <path class="fil19" d="M37643 20130l-7 3879c17,-8 35,-13 55,-16l0 0c5,-1 11,-2 16,-2l0 0 7 -3871 -71 10z"/>
     <path class="fil19" d="M38092 27307l0 125 -8 1255c9,-3 17,-4 26,-6l0 0c17,-2 32,-2 46,0l0 0 8 -1384 -72 10z"/>
     <path class="fil19" d="M37530 30320c-9,2 -18,4 -26,6l0 0c-203,56 -196,411 25,380l0 0c213,-30 230,-365 47,-386l0 0c-7,-1 -13,-1 -20,-1l0 0c-8,0 -17,0 -26,1l0 0z"/>
     <path class="fil19" d="M38105 20065l-13 7230 -579 995 17 2030c16,-2 32,-2 46,0l0 0 8 -2016 508 -872 0 -125 72 -10 13 -7242 -72 10z"/>
     <path class="fil19" d="M39141 27677l-2 0 -2 0c-8,0 -16,1 -25,2l0 0c-9,1 -17,3 -25,5l0 0c-204,57 -196,412 25,381l0 0c213,-31 229,-365 46,-387l0 0c-6,-1 -11,-1 -17,-1z"/>
     <path class="fil19" d="M38451 20016l-11 6011 653 677 -6 980c8,-2 16,-4 25,-5l0 0c17,-3 32,-3 46,-1l0 0 7 -1015 -653 -677 11 -5980 -72 10z"/>
     <path class="fil19" d="M38110 28681c-9,2 -17,3 -26,6l0 0c-203,56 -195,411 26,380l0 0c213,-30 229,-364 46,-386l0 0c-6,-1 -13,-2 -19,-2l0 0c-9,0 -18,1 -27,2l0 0z"/>
     <path class="fil19" d="M19159 35548c24,8 48,19 71,33l0 0c12,7 23,14 33,21l0 0 1594 -918 -99 -57 -1599 921z"/>
     <path class="fil19" d="M18739 35866c306,177 773,-81 524,-264l0 0c-10,-7 -21,-14 -33,-21l0 0c-23,-14 -47,-25 -71,-33l0 0c-53,-19 -107,-27 -161,-27l0 0c-268,0 -505,203 -259,345l0 0z"/>
     <path class="fil19" d="M19392 36129l-1833 348 -1183 677c10,5 20,10 30,16l0 0c25,15 45,30 61,46l0 0 1168 -668 1833 -348 2008 -1159 -100 -57 -1984 1145z"/>
     <polygon class="fil19" points="20857,34684 20857,26502 20758,26502 20758,34627 "/>
     <polygon class="fil19" points="21377,26862 21377,34987 21476,35044 21476,26862 "/>
     <polygon class="fil19" points="21992,35341 21992,27159 21893,27159 21893,35284 "/>
     <polygon class="fil19" points="22550,27536 22550,35661 22649,35718 22649,27536 "/>
     <polygon class="fil19" points="23327,36109 23327,27928 23228,27928 23228,36052 "/>
     <path class="fil19" d="M15914 37455c293,169 733,-59 553,-239l0 0c-16,-16 -36,-31 -61,-46l0 0c-10,-6 -20,-11 -30,-16l0 0c-64,-30 -134,-43 -202,-43l0 0c-268,0 -506,202 -260,344l0 0z"/>
     <path class="fil19" d="M19032 37687c29,9 58,21 86,37l0 0c8,5 15,9 22,14l0 0 3509 -2020 -99 -57 -3518 2026z"/>
     <path class="fil19" d="M19661 36570l-1931 379 -1970 1134c22,9 45,19 66,31l0 0c14,8 26,16 36,24l1944 -1118 1930 -379 2255 -1302 -99 -57 -2231 1288z"/>
     <path class="fil19" d="M18627 38009c311,180 785,-87 513,-271l0 0c-7,-5 -14,-9 -22,-14l0 0c-28,-16 -57,-28 -86,-37l0 0c-48,-15 -97,-22 -146,-22l0 0c-267,0 -505,202 -259,344l0 0z"/>
     <path class="fil19" d="M19617 38096l-2 0c-267,0 -505,202 -259,344l0 0c308,178 776,-82 520,-266l0 0c-9,-6 -18,-13 -29,-19l0 0c-25,-14 -50,-25 -76,-34l0 0c-50,-17 -103,-25 -154,-25z"/>
     <path class="fil19" d="M22445 36498l2 18 -2676 1605c26,9 51,20 76,34l0 0c11,6 20,13 29,19l0 0 2579 -1546 103 1326 -1577 905c26,9 51,21 76,35l0 0c11,6 20,12 29,19l1614 -927 -111 -1436 738 -440 -100 -58 -782 446z"/>
     <path class="fil19" d="M15383 38340c308,178 776,-82 520,-266l0 0c-9,-7 -19,-13 -29,-19l0 0c-25,-14 -50,-26 -76,-34l0 0c-51,-18 -104,-25 -156,-25l0 0c-268,0 -505,202 -259,344l0 0z"/>
     <path class="fil19" d="M20634 39141c307,178 776,-82 520,-266l0 0c-9,-6 -19,-13 -30,-19l0 0c-24,-14 -50,-25 -75,-34l0 0c-51,-17 -105,-25 -157,-25l0 0c-267,0 -504,202 -258,344l0 0z"/>
     <path class="fil19" d="M38947 25230l-2 0 -1 0c-9,0 -18,1 -28,2l0 0c-3,1 -7,2 -11,2l0 0c-242,47 -239,458 11,423l0 0c228,-32 251,-380 69,-422l0 0c-12,-3 -24,-5 -38,-5z"/>
     <path class="fil19" d="M38916 19545l0 5687c26,-3 48,-2 69,3l0 0 10 -5701 -79 11z"/>
     <path class="fil19" d="M20238 33153c-8,0 -16,0 -25,1l0 0c-19,3 -37,8 -53,15l0 0c-199,83 -182,443 53,410l0 0c242,-34 254,-427 30,-427l0 0c-2,0 -3,0 -5,1l0 0z"/>
     <path class="fil19" d="M20169 28297l-9 4872c16,-7 34,-12 53,-15l0 0c9,-1 17,-1 25,-1l0 0 9 -4867 -78 11z"/>
    </g>
    <g>
     <polygon class="fil20" points="24970,10193 23252,11185 22398,13391 23262,14605 24980,13613 25835,11407 "/>
     <polygon class="fil20" points="20508,18049 19643,16835 17925,17827 17071,20033 17935,21247 19653,20255 "/>
     <path class="fil21" d="M22268 10000l848 1191 -838 2165 -1686 974 -849 -1191 839 -2166 1686 -973zm-1708 4412l1750 -1011 870 -2247 -8 -10 -872 -1226 -1750 1011 -870 2246 8 12 872 1225z"/>
     <path class="fil21" d="M23182 14704l-872 -1225 -1750 1010 -870 2248 8 10 872 1226 1750 -1011 870 -2246 -8 -12zm-904 -1144l849 1193 -839 2164 -1686 974 -848 -1191 838 -2166 1686 -974z"/>
     <polygon class="fil20" points="14596,31450 13732,30236 12013,31228 11159,33434 12023,34648 13741,33656 "/>
     <path class="fil21" d="M14648 27813l1750 -1011 870 -2247 -8 -11 -871 -1225 -1751 1011 -870 2246 8 12 872 1225zm1718 -1056l-1686 974 -848 -1192 838 -2165 1687 -973 848 1191 -839 2165z"/>
     <path class="fil21" d="M16367 26961l848 1192 -839 2165 -1686 973 -848 -1190 838 -2166 1687 -974zm903 1144l-871 -1225 -1751 1010 -870 2248 8 10 872 1226 1751 -1011 870 -2246 -9 -12z"/>
     <path class="fil20" d="M40868 12859l-417 1079 986 573c3,2 5,4 8,5 1,0 1,1 2,1 346,201 615,534 778,984l371 -214 855 -2207 -864 -1213 -1719 992z"/>
     <path class="fil21" d="M39885 11673l848 1192 -391 1010 40 23 415 -1070 -8 -11 -872 -1225 -1751 1010 -358 924c12,13 23,26 35,39l356 -918 1686 -974z"/>
     <path class="fil21" d="M45179 15339l871 1226 1751 -1011 870 -2247 -8 -11 -872 -1225 -1750 1011 -870 2246 8 11zm903 1144l-848 -1192 839 -2165 1686 -973 848 1191 -838 2165 -1687 974z"/>
     <polygon class="fil20" points="16754,34412 18472,33420 19327,31214 18463,30000 16744,30992 15890,33198 "/>
     <polygon class="fil20" points="17350,28006 19068,27014 19923,24808 19059,23594 17340,24586 16486,26792 "/>
     <polygon class="fil20" points="21802,19797 22666,21011 24384,20019 25239,17813 24374,16599 22656,17591 "/>
     <path class="fil21" d="M30143 10479l848 1192 -839 2165 -1686 973 -848 -1191 838 -2165 1687 -974zm-2581 3187l872 1225 1750 -1011 870 -2246 -8 -12 -871 -1224 -1751 1010 -870 2247 8 11z"/>
    </g>
    <g>
     <path class="fil14" d="M37523 13764l-777 449 1598 928 777 -448c905,-523 1730,-570 2326,-223l-1598 -928c-251,-147 -543,-223 -865,-223l0 0c-441,0 -938,143 -1461,445l0 0z"/>
     <path class="fil14" d="M26241 13638c-3093,1786 -5591,6114 -5581,9666l0 0c0,68 2,136 4,202l0 0 1598 928c-2,-66 -4,-133 -4,-201l0 0c-10,-3553 2488,-7880 5581,-9666l0 0c1252,-723 2469,-16 3404,244l995 246 694 356 235 -1239 -1894 -316 -1048 -609c-428,-249 -925,-379 -1472,-379 -756,1 -1610,247 -2512,768l0 0z"/>
     <path class="fil16" d="M18565 25817c-592,1024 -956,2177 -954,3210l0 0c3,1029 369,1754 958,2096l0 0 1598 928c-589,-342 -955,-1067 -957,-2095l0 0c-3,-1033 362,-2187 953,-3210l0 0c545,-945 1282,-1779 2099,-2312l0 0 -1598 -928c-816,532 -1554,1367 -2099,2311l0 0z"/>
     <path class="fil16" d="M33683 12468l-2410 1390 549 319c-198,-115 -411,-205 -638,-267l0 0 -135 77 1599 929 2632 -1520c846,-488 1615,-531 2171,-208l-1599 -929c-234,-136 -506,-207 -807,-207 -411,0 -874,133 -1362,416l0 0z"/>
     <path class="fil22" d="M35280 13396l-2632 1520c-985,-1304 -2772,-1525 -4809,-349l0 0c-3093,1785 -5591,6113 -5581,9666l0 0c0,68 2,135 4,201l0 0c-817,533 -1553,1367 -2099,2312l0 0c-591,1023 -956,2177 -954,3210l0 0c6,2069 1484,2911 3284,1872l0 0 16649 -9612c900,-520 1717,-1415 2309,-2440l0 0c591,-1024 956,-2177 953,-3211l0 0c-5,-2068 -1483,-2911 -3284,-1872l0 0 -776 449c-4,-1368 -699,-2162 -1701,-2162l0 0c-411,1 -874,134 -1363,416l0 0z"/>
    </g>
    <g>
     <polygon class="fil23" points="34342,27094 34701,27303 35999,26553 35641,26345 "/>
     <polygon class="fil23" points="28947,30209 29305,30418 30531,29710 30173,29502 "/>
     <polygon class="fil24" points="30173,29502 30531,29710 30522,26322 30163,26114 "/>
     <polygon class="fil23" points="30163,26114 30522,26322 34691,23915 34333,23707 "/>
     <polygon class="fil25" points="30522,26322 30531,29710 29305,30418 32663,32218 35999,26553 34701,27303 34691,23915 "/>
     <polygon class="fil24" points="30163,25975 30521,26183 30519,25215 30160,25007 "/>
     <polygon class="fil23" points="30160,25007 30519,25215 34688,22808 34330,22600 "/>
     <polygon class="fil25" points="30519,25215 30521,26183 34691,23776 34688,22808 "/>
     <polygon class="fil24" points="30160,24874 30518,25082 30516,24401 30158,24193 "/>
     <polygon class="fil23" points="30158,24193 30516,24401 34686,21994 34327,21785 "/>
     <polygon class="fil25" points="30516,24401 30518,25082 34688,22675 34686,21994 "/>
    </g>
   </g>
   <g>
    <path class="fil13" d="M70760 8719c0,-2604 -2111,-4715 -4715,-4715 -2604,0 -4715,2111 -4715,4715 0,2604 2111,4715 4715,4715 2604,0 4715,-2111 4715,-4715z"/>
    <path class="fil26" d="M63433 8422c0,2467 1895,4491 4308,4698 -526,203 -1098,314 -1696,314 -2604,0 -4715,-2111 -4715,-4715 0,-2604 2111,-4715 4715,-4715 137,0 273,6 407,17 -1766,681 -3019,2395 -3019,4401z"/>
    <path class="fil20" d="M63376 6494l5338 0 -890 890 -4448 0 0 -890zm0 3560l3558 0 0 888 -3558 0 0 -888zm0 -1781l5338 0 0 2669 -890 0 0 -1779 -4448 0 0 -890z"/>
   </g>
   <path class="fil27" d="M59853 23315c497,17 896,425 899,931l8 0c4,-506 403,-914 899,-931 -499,-16 -899,-428 -899,-936l-7 0c0,508 -400,920 -900,936z"/>
   <path class="fil28" d="M21447 42280c-8023,-2308 -16404,-7650 -21447,-12013l0 15858c7251,1915 15557,1113 21447,-3845z"/>
   <path class="fil0" d="M6048 41976c781,25 1408,667 1412,1461l13 0c6,-794 632,-1436 1412,-1461 -784,-25 -1412,-673 -1412,-1472l-11 0c0,799 -629,1447 -1414,1472z"/>
   <g>
    <path class="fil29" d="M17840 50377c0,-1238 1004,-2242 2242,-2242 1238,0 2241,1004 2241,2242 0,1238 -1003,2241 -2241,2241 -1238,0 -2242,-1003 -2242,-2241z"/>
    <path class="fil30" d="M17890 49909c215,-1014 1115,-1774 2192,-1774 1238,0 2241,1004 2241,2242 0,283 -53,555 -149,805 -358,-102 -899,-283 -1705,-583 -1181,-441 -1996,-638 -2579,-690z"/>
    <path class="fil31" d="M20082 52618c-911,0 -1694,-543 -2045,-1323 343,-12 726,-45 1132,-116 999,-175 2021,319 2599,674 -411,469 -1014,765 -1686,765z"/>
    <path class="fil32" d="M22306 50097c-716,-81 -1475,-272 -2171,-658 -618,-343 -1108,-594 -1495,-778 390,-328 893,-526 1442,-526 1143,0 2086,856 2224,1962z"/>
    <path class="fil33" d="M19145 51891c1134,0 2053,-919 2053,-2053 0,-702 -352,-1321 -888,-1691 1131,114 2013,1069 2013,2230 0,1238 -1003,2241 -2241,2241 -745,0 -1405,-363 -1812,-922 265,125 562,195 875,195z"/>
   </g>
   <g>
    <g>
     <path class="fil16" d="M38980 53642l0 3 0 3c0,64 4,125 8,186l0 0 61 -34c1,29 1,59 3,88l0 0 61 -35c2,29 2,59 4,88l0 0 61 -34c1,29 2,59 3,88l0 0 62 -35c1,30 1,59 3,88l0 0 61 -34c2,29 2,59 4,88l0 0 61 -34c1,29 2,59 3,87l0 0 61 -34c2,29 2,59 4,88l0 0 61 -34c1,29 2,59 4,88l0 0 61 -35c1,29 2,59 3,88l0 0 9246 -5180c4,-67 7,-134 7,-200l0 0c0,-632 -192,-1095 -503,-1331l0 0c-21,-19 -43,-37 -65,-54l0 0c-21,-19 -42,-37 -64,-54l0 0c-21,-19 -43,-36 -65,-53l0 0c-21,-19 -43,-37 -65,-54l0 0c-20,-19 -42,-36 -64,-53l0 0c-21,-19 -43,-37 -65,-54l0 0c-21,-19 -42,-37 -65,-54l0 0c-20,-18 -42,-36 -64,-53l0 0c-299,-274 -726,-315 -1202,-65l0 0c-129,-285 -301,-511 -507,-674l0 0c-21,-18 -43,-36 -65,-53l0 0c-21,-19 -43,-37 -65,-54l0 0c-21,-18 -42,-36 -64,-53l0 0c-21,-19 -43,-37 -65,-54l0 0c-21,-19 -43,-36 -64,-54l0 0c-22,-18 -43,-36 -65,-53l0 0c-21,-19 -43,-36 -65,-54l0 0c-21,-18 -42,-36 -64,-53l0 0c-257,-227 -571,-348 -923,-348l0 0c-314,0 -659,95 -1020,298l0 0c-1201,673 -2215,2314 -2541,3967l0 0c-70,29 -142,63 -214,103l0 0c-1048,588 -1898,2205 -1898,3613z"/>
     <path class="fil15" d="M44215 46441c-1201,673 -2215,2314 -2541,3968 -70,29 -142,62 -215,103 -1048,587 -1897,2204 -1897,3612 0,36 1,71 2,105l2 -1c1,28 1,57 3,85 0,1 0,1 0,2 0,0 0,1 0,1l9246 -5180c4,-67 7,-134 7,-200 0,-632 -192,-1095 -503,-1331 -1,-1 -2,-2 -3,-3 -304,-229 -720,-243 -1178,14 -111,62 -219,138 -324,224 -45,-273 -117,-517 -214,-729 -129,-285 -301,-511 -507,-674 -3,-2 -6,-5 -9,-8 -480,-371 -1140,-396 -1869,12z"/>
    </g>
    <g>
     <path class="fil14" d="M47495 39482l0 -6c0,-391 -119,-677 -311,-824l0 0c-13,-12 -27,-22 -40,-33l0 0c-13,-12 -27,-23 -40,-33l0 0c-13,-12 -27,-23 -40,-33l0 0c-13,-12 -27,-23 -40,-33l0 0c-13,-12 -26,-23 -40,-33l0 0c-13,-12 -27,-23 -40,-34l0 0c-13,-11 -27,-22 -40,-33l0 0c-13,-12 -26,-22 -40,-33l0 0c-185,-169 -449,-195 -744,-40l0 0c-80,-176 -186,-316 -314,-417l0 0c-13,-11 -26,-22 -40,-33l0 0c-13,-12 -26,-23 -40,-33l0 0c-13,-12 -26,-23 -40,-33l0 0c-13,-12 -26,-23 -40,-34l0 0c-13,-11 -26,-22 -40,-33l0 0c-13,-11 -26,-22 -40,-33l0 0c-13,-11 -26,-22 -40,-33l0 0c-13,-12 -26,-22 -40,-33l0 0c-158,-140 -352,-215 -571,-215 -194,0 -407,59 -630,184l0 0c-743,416 -1370,1432 -1572,2455l0 0c-44,18 -88,38 -133,64l0 0c-648,363 -1174,1363 -1174,2234l0 0c0,41 2,80 5,119l0 0 37 -21c1,18 1,37 3,54l0 0 37 -21c1,18 1,37 2,55l0 0 38 -22c1,18 1,37 2,55l0 0 38 -22c1,19 1,37 2,55l0 0 38 -21c1,18 1,36 2,54l0 0 38 -21c1,18 1,36 2,54l0 0 38 -21c1,18 1,37 2,54l0 0 38 -21c1,18 1,37 2,54l0 0 38 -21c1,18 1,37 2,55l0 0 5720 -3205c3,-40 5,-79 5,-118z"/>
     <path class="fil34" d="M41770 42805c-2,-39 -4,-78 -4,-119 0,-871 525,-1872 1174,-2235 45,-25 89,-46 133,-64 201,-1023 829,-2038 1572,-2455 794,-445 1457,-57 1607,866 65,-53 132,-100 201,-139 575,-322 1042,43 1042,817 0,41 -2,82 -4,124l-5721 3205z"/>
    </g>
   </g>
  </g>
 </g>
</svg>
