<?xml version="1.0" encoding="UTF-8"?>
<!DOCTYPE svg PUBLIC "-//W3C//DTD SVG 1.1//EN" "http://www.w3.org/Graphics/SVG/1.1/DTD/svg11.dtd">
<!-- Creator: CorelDRAW X7 -->
<svg xmlns="http://www.w3.org/2000/svg" xml:space="preserve" width="5.95449in" height="5.13362in" version="1.1" style="shape-rendering:geometricPrecision; text-rendering:geometricPrecision; image-rendering:optimizeQuality; fill-rule:evenodd; clip-rule:evenodd"
viewBox="0 0 59545 51336"
 xmlns:xlink="http://www.w3.org/1999/xlink">
 <defs>
  <style type="text/css">
   <![CDATA[
    .fil20 {fill:#536896}
    .fil21 {fill:#7B93C9}
    .fil16 {fill:#8480BC}
    .fil13 {fill:#9F9CCB}
    .fil22 {fill:#AFBEE1}
    .fil11 {fill:#BBB8DA}
    .fil18 {fill:#BFA36F}
    .fil15 {fill:#D2AE6D}
    .fil17 {fill:#D7B67C}
    .fil23 {fill:#E2CBA3}
    .fil12 {fill:#E9EDF7}
    .fil24 {fill:#F7F1E5}
    .fil19 {fill:#F9FAFC}
    .fil9 {fill:#7B93C9;fill-rule:nonzero}
    .fil1 {fill:#8480BC;fill-rule:nonzero}
    .fil8 {fill:#9DB0D9;fill-rule:nonzero}
    .fil2 {fill:#9F9CCB;fill-rule:nonzero}
    .fil4 {fill:#A38755;fill-rule:nonzero}
    .fil10 {fill:#AFBEE1;fill-rule:nonzero}
    .fil0 {fill:#BBB8DA;fill-rule:nonzero}
    .fil5 {fill:#D2AE6D;fill-rule:nonzero}
    .fil3 {fill:#D7B67C;fill-rule:nonzero}
    .fil6 {fill:#DFC596;fill-rule:nonzero}
    .fil29 {fill:#E0C99F;fill-rule:nonzero}
    .fil26 {fill:#E4CFAA;fill-rule:nonzero}
    .fil30 {fill:#E9EDF7;fill-rule:nonzero}
    .fil25 {fill:#EBDBBE;fill-rule:nonzero}
    .fil28 {fill:#EDDFC4;fill-rule:nonzero}
    .fil7 {fill:#EFF2FA;fill-rule:nonzero}
    .fil27 {fill:#F2E8D4;fill-rule:nonzero}
    .fil14 {fill:#F9FAFC;fill-rule:nonzero}
   ]]>
  </style>
 </defs>
 <g id="Layer_x0020_1">
  <metadata id="CorelCorpID_0Corel-Layer"/>
  <g id="_1759401283648">
   <g>
    <path class="fil0" d="M50952 22912l-2 686c-1,282 -186,563 -556,778 -745,433 -1957,433 -2707,0 -377,-217 -566,-503 -565,-789l2 -685c-1,285 188,571 565,789 750,433 1962,433 2707,0 370,-215 555,-497 556,-779z"/>
    <path class="fil1" d="M50387 22123c750,433 753,1135 9,1568 -745,433 -1957,433 -2707,0 -750,-433 -754,-1134 -9,-1568 745,-432 1958,-433 2707,0z"/>
    <path class="fil2" d="M50952 22037l-2 686c-1,282 -186,563 -556,778 -745,433 -1957,433 -2707,0 -377,-217 -566,-503 -565,-789l2 -685c-1,286 188,571 565,789 750,433 1962,433 2707,0 370,-215 555,-496 556,-779z"/>
    <path class="fil1" d="M50387 21248c750,433 753,1135 9,1568 -745,433 -1957,433 -2707,0 -750,-433 -754,-1135 -9,-1568 745,-432 1958,-433 2707,0z"/>
    <path class="fil0" d="M50952 21162l-2 686c-1,282 -186,563 -556,778 -745,433 -1957,433 -2707,0 -377,-218 -566,-503 -565,-789l2 -685c-1,285 188,571 565,789 750,433 1962,433 2707,0 370,-215 555,-497 556,-779z"/>
    <path class="fil1" d="M50387 20373c750,433 753,1135 9,1568 -745,433 -1957,433 -2707,0 -750,-433 -754,-1135 -9,-1568 745,-432 1958,-433 2707,0z"/>
    <path class="fil2" d="M50952 20287l-2 686c-1,281 -186,563 -556,778 -745,433 -1957,433 -2707,0 -377,-218 -566,-503 -565,-789l2 -685c-1,285 188,571 565,789 750,433 1962,433 2707,0 370,-215 555,-497 556,-779z"/>
    <path class="fil1" d="M50387 19498c750,433 753,1135 9,1568 -745,433 -1957,433 -2707,0 -750,-433 -754,-1135 -9,-1568 745,-433 1958,-433 2707,0z"/>
    <path class="fil0" d="M50952 19412l-2 685c-1,282 -186,564 -556,779 -745,433 -1957,433 -2707,0 -377,-218 -566,-504 -565,-789l2 -685c-1,285 188,571 565,789 750,433 1962,433 2707,0 370,-215 555,-497 556,-779z"/>
    <path class="fil1" d="M50387 18623c750,433 753,1135 9,1568 -745,433 -1957,433 -2707,0 -750,-433 -754,-1135 -9,-1568 745,-433 1958,-433 2707,0z"/>
    <path class="fil2" d="M50952 18537l-2 685c-1,282 -186,564 -556,779 -745,433 -1957,433 -2707,0 -377,-218 -566,-504 -565,-789l2 -685c-1,285 188,571 565,789 750,433 1962,433 2707,0 370,-215 555,-497 556,-779z"/>
    <path class="fil1" d="M50387 17748c750,433 753,1135 9,1568 -745,433 -1957,433 -2707,0 -750,-433 -754,-1135 -9,-1568 745,-433 1958,-433 2707,0z"/>
    <path class="fil0" d="M50952 17662l-2 685c-1,282 -186,564 -556,779 -745,433 -1957,433 -2707,0 -377,-218 -566,-504 -565,-789l2 -685c-1,285 188,571 565,789 750,433 1962,433 2707,0 370,-215 555,-497 556,-779z"/>
    <path class="fil1" d="M50387 16872c750,434 753,1136 9,1569 -745,433 -1957,433 -2707,0 -750,-433 -754,-1135 -9,-1568 745,-433 1958,-433 2707,-1z"/>
    <path class="fil2" d="M50952 16787l-2 685c-1,282 -186,564 -556,779 -745,433 -1957,433 -2707,0 -377,-218 -566,-504 -565,-789l2 -686c-1,286 188,572 565,790 750,432 1962,432 2707,0 370,-216 555,-497 556,-779z"/>
    <path class="fil0" d="M50387 15997c750,434 753,1136 9,1568 -745,434 -1957,434 -2707,0 -750,-432 -754,-1134 -9,-1567 745,-433 1958,-433 2707,-1z"/>
    <path class="fil3" d="M47600 24881l-2 685c-1,282 -186,564 -556,778 -745,434 -1957,434 -2707,0 -377,-217 -566,-503 -565,-788l2 -686c-1,286 188,571 565,789 750,433 1962,433 2707,0 370,-215 555,-497 556,-778z"/>
    <path class="fil4" d="M47035 24091c750,433 753,1135 9,1568 -745,433 -1957,433 -2707,0 -750,-433 -754,-1134 -8,-1567 744,-433 1957,-434 2706,-1z"/>
    <path class="fil5" d="M47600 24006l-2 685c-1,282 -186,564 -556,778 -745,433 -1957,433 -2707,0 -377,-217 -566,-503 -565,-788l2 -686c-1,286 188,571 565,789 750,433 1962,433 2707,0 370,-215 555,-497 556,-778z"/>
    <path class="fil4" d="M47035 23216c750,433 753,1135 9,1568 -745,433 -1957,433 -2707,0 -750,-433 -754,-1135 -8,-1567 744,-433 1957,-434 2706,-1z"/>
    <path class="fil3" d="M47600 23130l-2 686c-1,282 -186,563 -556,778 -745,433 -1957,433 -2707,0 -377,-217 -566,-503 -565,-789l2 -685c-1,285 188,571 565,789 750,433 1962,433 2707,0 370,-215 555,-497 556,-779z"/>
    <path class="fil4" d="M47035 22341c750,433 753,1135 9,1568 -745,433 -1957,433 -2707,0 -750,-433 -754,-1135 -8,-1568 744,-432 1957,-433 2706,0z"/>
    <path class="fil5" d="M47600 22255l-2 686c-1,282 -186,563 -556,778 -745,433 -1957,433 -2707,0 -377,-217 -566,-503 -565,-789l2 -685c-1,285 188,571 565,789 750,433 1962,433 2707,0 370,-215 555,-497 556,-779z"/>
    <path class="fil4" d="M47035 21466c750,433 753,1135 9,1568 -745,433 -1957,433 -2707,0 -750,-433 -754,-1135 -8,-1568 744,-432 1957,-433 2706,0z"/>
    <path class="fil3" d="M47600 21380l-2 686c-1,282 -186,563 -556,778 -745,433 -1957,433 -2707,0 -377,-218 -566,-503 -565,-789l2 -685c-1,285 188,571 565,789 750,433 1962,433 2707,0 370,-215 555,-497 556,-779z"/>
    <path class="fil4" d="M47035 20591c750,433 753,1135 9,1568 -745,433 -1957,433 -2707,0 -750,-433 -754,-1135 -8,-1568 744,-432 1957,-433 2706,0z"/>
    <path class="fil5" d="M47600 20505l-2 686c-1,281 -186,563 -556,778 -745,433 -1957,433 -2707,0 -377,-218 -566,-503 -565,-789l2 -685c-1,285 188,571 565,789 750,433 1962,433 2707,0 370,-215 555,-497 556,-779z"/>
    <path class="fil6" d="M47035 19716c750,433 753,1135 9,1568 -745,433 -1957,433 -2707,0 -750,-433 -754,-1135 -8,-1568 744,-433 1957,-433 2706,0z"/>
   </g>
   <g>
    <polygon class="fil7" points="56495,27123 58387,26023 53412,23152 44298,28448 51175,32418 58398,28221 "/>
    <polygon class="fil8" points="51175,32418 51174,32784 44297,28814 44298,28448 "/>
    <path class="fil9" d="M56601 26629l-558 324 -1428 -825 -530 308 1428 824 -464 270 -1428 -824 -578 336 1428 824 -463 269 -1428 -824 -565 328 5 848 1132 654c30,17 30,44 1,61l-1059 616 461 266 -537 313 -1180 -682 537 -312 613 354 1007 -585 -1081 -624 -1555 1 -5 -902 -1093 -631 -1007 585 537 310 -538 312 -536 -310 -787 458 537 309 -538 313 -1179 -681 538 -312 536 309 787 -457 -537 -309 538 -313 536 310 1059 -615c30,-18 77,-18 107,0l1145 661 1438 0 578 -336 -1414 -816 463 -269 1414 816 578 -336 -1414 -816 465 -270 1413 816 530 -307 -1414 -817 558 -324 2947 1702z"/>
    <polygon class="fil10" points="58387,26023 58398,28221 56495,27123 "/>
    <polygon class="fil10" points="58398,28221 58397,28587 51174,32784 51175,32418 "/>
   </g>
   <g>
    <g>
     <path class="fil11" d="M2016 15514l0 3 0 3c0,67 4,130 7,193l0 0 64 -36c1,30 1,62 3,91l0 0 64 -35c1,30 1,61 3,91l0 0 64 -36c1,30 1,62 3,91l0 0 64 -35c1,30 1,61 3,91l0 0 63 -36c2,30 2,61 4,91l0 0 63 -35c2,30 2,61 4,91l0 0 63 -36c2,30 2,61 4,91l0 0 63 -35c1,30 2,61 4,91l0 0 63 -36c1,30 2,61 3,91l0 0 9573 -5363c5,-70 8,-139 8,-208l0 0c0,-654 -199,-1133 -521,-1378l0 0c-22,-20 -44,-38 -67,-55l0 0c-22,-20 -44,-39 -67,-56l0 0c-22,-20 -44,-38 -67,-55l0 0c-21,-20 -44,-38 -67,-56l0 0c-21,-20 -44,-38 -67,-55l0 0c-21,-20 -44,-38 -67,-56l0 0c-21,-20 -44,-38 -67,-55l0 0c-21,-20 -43,-38 -66,-56l0 0c-310,-283 -752,-326 -1245,-67l0 0c-133,-295 -312,-529 -525,-698l0 0c-22,-19 -44,-37 -67,-55l0 0c-22,-19 -44,-38 -67,-56l0 0c-22,-19 -44,-37 -67,-55l0 0c-22,-19 -44,-38 -67,-55l0 0c-22,-20 -44,-38 -67,-56l0 0c-21,-19 -44,-38 -67,-55l0 0c-21,-20 -44,-38 -67,-56l0 0c-21,-19 -44,-38 -66,-55l0 0c-266,-235 -591,-361 -956,-361l0 0c-325,0 -682,99 -1056,309l0 0c-1243,697 -2293,2396 -2630,4108l0 0c-73,30 -147,65 -223,107l0 0c-1085,607 -1964,2282 -1964,3740z"/>
     <path class="fil12" d="M7436 8058c-1244,697 -2294,2396 -2631,4108 -73,30 -147,65 -222,107 -1085,608 -1965,2282 -1965,3740 0,37 1,73 3,109l1 -1c1,29 2,59 3,88 0,1 0,1 0,2 0,0 0,1 0,1l9573 -5363c5,-70 8,-139 8,-208 0,-654 -199,-1133 -521,-1378 -1,-1 -2,-2 -3,-3 -315,-237 -745,-251 -1220,15 -115,64 -227,143 -336,232 -46,-283 -121,-536 -221,-755 -133,-295 -312,-529 -525,-698 -3,-2 -6,-5 -10,-8 -496,-384 -1179,-411 -1934,12z"/>
    </g>
    <g>
     <path class="fil13" d="M15702 3079l0 -6c0,-405 -124,-701 -323,-853l0 0c-13,-12 -27,-24 -41,-34l0 0c-13,-12 -27,-24 -42,-35l0 0c-13,-12 -27,-23 -41,-34l0 0c-13,-12 -27,-23 -41,-34l0 0c-14,-13 -28,-24 -42,-35l0 0c-13,-12 -27,-23 -41,-34l0 0c-14,-12 -27,-23 -42,-34l0 0c-13,-13 -27,-24 -41,-35l0 0c-191,-175 -465,-202 -770,-41l0 0c-83,-183 -193,-328 -325,-432l0 0c-13,-12 -27,-23 -41,-34l0 0c-14,-12 -28,-23 -42,-34l0 0c-13,-12 -27,-24 -41,-35l0 0c-13,-12 -28,-23 -42,-34l0 0c-13,-12 -27,-23 -41,-34l0 0c-13,-12 -27,-24 -41,-35l0 0c-14,-12 -28,-23 -42,-34l0 0c-13,-12 -27,-23 -41,-34l0 0c-164,-146 -365,-223 -591,-223 -201,0 -422,61 -653,191l0 0c-770,431 -1419,1482 -1628,2541l0 0c-45,19 -91,40 -138,66l0 0c-671,376 -1215,1412 -1215,2314l0 0c0,43 2,83 5,124l0 0 39 -23c1,19 1,38 2,57l0 0 39 -22c1,18 1,38 3,56l0 0 39 -22c1,19 1,38 2,56l0 0 39 -22c1,19 1,38 2,57l0 0 39 -22c1,18 2,38 3,56l0 0 39 -22c1,19 1,38 2,56l0 0 39 -22c1,19 1,38 3,57l0 0 39 -22c1,18 1,38 2,56l0 0 39 -22c1,19 1,38 2,56l0 0 5923 -3318c2,-41 4,-82 5,-122z"/>
     <path class="fil14" d="M9774 6519c-2,-40 -4,-80 -4,-123 0,-902 544,-1938 1215,-2314 47,-26 92,-47 138,-66 209,-1059 858,-2110 1627,-2542 823,-460 1509,-59 1665,897 67,-55 136,-104 207,-144 597,-333 1080,45 1080,846 0,42 -2,85 -5,128l-5923 3318z"/>
    </g>
    <g>
     <path class="fil11" d="M3914 1306l0 -4c0,-251 -77,-435 -200,-529l0 0c-8,-7 -17,-14 -26,-21l0 0c-8,-8 -17,-15 -25,-21l0 0c-9,-8 -17,-15 -26,-22l0 0c-8,-7 -17,-14 -26,-21l0 0c-8,-8 -17,-15 -26,-21l0 0c-8,-8 -16,-15 -25,-22l0 0c-9,-7 -17,-14 -26,-21l0 0c-8,-8 -17,-15 -26,-21l0 0c-119,-109 -288,-126 -478,-26l0 0c-51,-113 -119,-203 -201,-268l0 0c-9,-8 -17,-15 -26,-21l0 0c-9,-8 -17,-15 -26,-22l0 0c-8,-7 -17,-14 -26,-21l0 0c-8,-7 -17,-14 -25,-21l0 0c-9,-8 -17,-15 -26,-22l0 0c-8,-7 -17,-14 -26,-21l0 0c-8,-7 -17,-14 -25,-21l0 0c-9,-8 -17,-15 -26,-22l0 0c-102,-90 -227,-138 -367,-138 -125,0 -262,38 -405,119l0 0c-478,267 -881,920 -1011,1577l0 0c-28,12 -56,25 -85,41l0 0c-417,234 -755,877 -755,1437l0 0c0,26 1,51 3,77l0 0 24 -14c1,11 1,23 2,35l0 0 24 -14c0,12 1,24 1,35l0 0 25 -13c0,11 0,23 1,34l0 0 24 -13c1,11 1,23 2,35l0 0 24 -14c1,12 1,24 1,35l0 0 25 -14c0,12 0,24 1,35l0 0 25 -13c0,11 0,23 1,35l0 0 24 -14c1,12 1,24 2,35l0 0 24 -14c0,12 1,24 1,35l0 0 3677 -2060c2,-25 3,-51 3,-76z"/>
     <path class="fil14" d="M234 3442c-1,-25 -3,-50 -3,-76 0,-560 338,-1203 755,-1437 29,-16 57,-29 85,-41 130,-657 533,-1310 1011,-1578 511,-286 936,-36 1033,557 42,-34 85,-65 129,-89 370,-208 670,27 670,524 0,27 -1,53 -3,80l-3677 2060z"/>
    </g>
   </g>
   <g>
    <g>
     <path class="fil15" d="M40346 19789c180,104 181,273 2,377 -89,52 -207,78 -324,78 -88,0 -176,-15 -252,-44 -27,-10 -52,-21 -75,-35 -1,0 -2,-1 -3,-2 -177,-103 -176,-271 1,-374 179,-104 471,-104 651,0zm-325 -116c-135,0 -270,30 -372,89 -204,118 -203,310 -1,429 1,0 2,1 3,1 23,14 48,25 73,36 206,82 489,70 671,-35 204,-119 203,-313 -3,-431 -102,-59 -237,-89 -371,-89z"/>
     <path class="fil15" d="M40462 19721c244,141 246,371 3,512 -121,71 -281,106 -441,106 -130,0 -260,-24 -370,-70 -25,-11 -50,-23 -73,-36 -1,-1 -2,-1 -3,-2 -240,-141 -241,-369 1,-509 243,-142 639,-142 883,-1zm-856 576c272,118 660,106 905,-37 269,-156 268,-410 -3,-566 -135,-78 -311,-116 -488,-116 -177,0 -354,38 -488,117 -267,155 -268,408 -1,564 1,0 2,1 3,1 23,14 47,26 72,37z"/>
     <path class="fil15" d="M40561 19663c301,174 303,456 5,630 -149,86 -345,130 -542,130 -167,0 -334,-32 -473,-94 -25,-11 -49,-24 -72,-37 -1,0 -2,-1 -3,-1 -297,-174 -297,-455 0,-628 298,-173 785,-173 1085,0zm-1056 693c328,151 806,138 1107,-36 324,-189 323,-495 -4,-684 -163,-94 -377,-141 -590,-141 -214,0 -427,47 -589,141 -323,188 -322,493 1,682 1,0 2,1 3,1 23,13 47,26 72,37z"/>
     <path class="fil15" d="M41575 20422c-74,0 -149,-14 -211,-42 -11,-5 -22,-11 -32,-17 -14,-7 -26,-16 -37,-24 -96,-78 -85,-187 35,-256 133,-78 351,-78 486,-1 134,78 134,204 1,282 -66,38 -154,58 -242,58zm-280 -360c-139,81 -150,208 -35,297 11,8 24,17 37,25 11,5 21,11 33,16 154,72 380,66 522,-16 152,-89 152,-233 -2,-322 -76,-44 -177,-66 -277,-66 -101,0 -201,22 -278,66z"/>
     <path class="fil15" d="M41576 20493c-106,0 -212,-21 -299,-62 -11,-6 -21,-11 -32,-17 -13,-8 -26,-16 -37,-25 -144,-105 -132,-259 35,-357 181,-105 477,-105 659,0 183,105 183,277 2,382 -90,52 -209,79 -328,79zm-334 -42c203,99 507,93 697,-17 201,-116 200,-306 -2,-422 -101,-58 -233,-87 -365,-87 -132,0 -263,29 -364,87 -186,109 -198,281 -36,398 12,8 25,16 38,24 10,6 21,12 32,17z"/>
     <path class="fil15" d="M41575 20555c-133,0 -266,-26 -374,-80 -11,-5 -22,-11 -32,-17 -13,-8 -26,-16 -38,-24 -185,-130 -174,-324 35,-445 223,-129 587,-129 810,0 225,129 226,340 4,469 -111,65 -258,97 -405,97zm-409 -60c245,124 617,118 848,-17 242,-140 241,-369 -3,-509 -122,-71 -281,-106 -440,-106 -160,0 -319,35 -440,106 -228,132 -239,344 -35,485 12,8 25,16 38,24 11,6 21,12 32,17z"/>
     <path class="fil15" d="M40103 22004c-14,-8 -26,-17 -37,-26 -96,-77 -84,-185 36,-255 133,-77 351,-78 485,0 135,78 135,204 2,281 -67,39 -155,58 -242,58 -75,0 -150,-14 -213,-42 -10,-5 -21,-10 -31,-16zm519 -301c-77,-44 -177,-66 -278,-66 -100,0 -201,22 -277,66 -139,81 -150,207 -36,296 11,9 24,17 38,25 10,6 20,11 31,16 154,72 381,67 523,-15 153,-89 152,-234 -1,-322z"/>
     <path class="fil15" d="M39979 22029c-143,-105 -131,-259 36,-356 181,-105 477,-105 659,0 182,105 183,276 2,382 -91,52 -210,78 -329,78 -106,0 -213,-20 -299,-62 -11,-5 -21,-11 -31,-17 -14,-8 -27,-16 -38,-25zm1 -376c-187,108 -199,280 -37,397 12,9 25,17 38,25 11,6 21,11 32,16 203,100 508,94 697,-16 201,-117 200,-306 -2,-423 -100,-58 -232,-87 -364,-87 -132,0 -264,29 -364,88z"/>
     <path class="fil15" d="M39902 22074c-185,-130 -173,-323 36,-445 222,-129 586,-129 810,0 224,130 225,341 3,470 -111,65 -257,97 -404,97 -134,0 -268,-27 -375,-81 -11,-5 -21,-11 -32,-16 -13,-8 -26,-16 -38,-25zm1 -465c-228,133 -240,344 -36,485 12,9 25,17 39,25 10,6 20,11 31,17 245,123 617,118 849,-17 242,-140 240,-369 -4,-510 -121,-70 -281,-105 -440,-105 -159,0 -318,35 -439,105z"/>
     <path class="fil15" d="M35590 30113c-147,0 -295,-33 -408,-98 -194,-112 -222,-283 -83,-412l-59 -36c-171,148 -142,352 84,482 257,148 674,149 930,0 255,-148 254,-390 -3,-539 -128,-74 -297,-111 -465,-111 -156,0 -311,32 -435,95l57 35c225,-114 569,-109 785,15 225,130 226,342 2,472 -111,65 -258,97 -405,97z"/>
     <path class="fil15" d="M35591 30232c-201,0 -401,-44 -554,-133 -276,-159 -304,-408 -83,-585l-58 -35c-254,196 -227,477 82,655 338,195 886,194 1222,0 336,-196 334,-513 -4,-708 -169,-97 -390,-146 -611,-146 -206,0 -412,42 -576,128l57 34c306,-158 778,-152 1072,18 305,176 307,463 3,640 -151,88 -351,132 -550,132z"/>
     <path class="fil15" d="M35590 30337c-246,0 -493,-55 -681,-163 -347,-201 -375,-519 -81,-736l-57 -35c-328,236 -300,585 80,804 409,236 1070,236 1475,1 405,-235 403,-619 -6,-854 -204,-118 -471,-177 -738,-177 -250,0 -500,52 -697,155l57 34c375,-195 957,-188 1320,21 376,217 378,571 6,787 -187,109 -432,163 -678,163z"/>
     <path class="fil15" d="M35361 28247c257,149 674,149 930,1 255,-149 254,-391 -3,-540 -129,-74 -297,-111 -465,-111 -152,0 -303,31 -425,91l58 33c225,-108 562,-101 774,21 225,130 226,342 2,472 -111,65 -258,97 -405,97 -147,0 -295,-32 -408,-98 -198,-114 -223,-290 -75,-420l-59 -34c-180,149 -153,356 76,488z"/>
     <path class="fil15" d="M35828 28430c-201,0 -401,-44 -554,-132 -278,-161 -304,-413 -78,-590l-59 -34c-258,196 -233,479 78,658 338,195 886,195 1221,0 337,-195 335,-513 -3,-708 -169,-97 -390,-146 -611,-146 -204,0 -408,42 -571,125l59 34c306,-155 773,-148 1065,21 305,176 307,463 3,640 -151,88 -351,132 -550,132z"/>
     <path class="fil15" d="M35827 28535c-246,0 -493,-55 -681,-163 -348,-201 -375,-520 -79,-738l-59 -34c-328,237 -301,586 80,806 408,235 1070,235 1475,0 405,-235 403,-618 -6,-854 -204,-118 -471,-177 -738,-177 -250,0 -499,52 -696,155l59 33c375,-194 955,-187 1317,22 376,218 378,571 6,787 -187,109 -432,163 -678,163z"/>
     <path class="fil15" d="M24979 32128c-185,108 -486,108 -672,0 -172,-99 -186,-256 -41,-363l-49 -28c-171,123 -156,305 42,419 212,122 557,123 768,0 211,-123 210,-323 -3,-445 -198,-115 -513,-122 -725,-22l48 28c186,-85 457,-78 629,22 187,107 187,282 3,389z"/>
     <path class="fil15" d="M25099 32198c-250,145 -659,145 -912,-1 -238,-137 -252,-356 -43,-502l-48 -28c-236,162 -222,406 42,559 280,161 733,161 1009,0 278,-162 276,-423 -3,-585 -265,-153 -687,-160 -966,-22l48 28c253,-123 632,-116 870,22 253,146 254,383 3,529z"/>
     <path class="fil15" d="M25204 32259c-308,179 -812,179 -1123,0 -296,-171 -310,-445 -43,-625l-48 -28c-294,195 -280,494 43,681 338,194 884,194 1219,0 334,-194 332,-511 -5,-706 -323,-186 -838,-194 -1175,-23l48 28c310,-155 783,-148 1079,23 311,180 312,471 5,650z"/>
     <path class="fil15" d="M25056 35059c-352,-203 -376,-526 -70,-744l-59 -34c-338,237 -314,590 71,812 408,236 1070,236 1475,0 405,-235 402,-618 -6,-854 -403,-233 -1055,-235 -1461,-8l58 34c374,-209 974,-206 1345,8 376,217 378,570 5,787 -372,216 -982,216 -1358,-1z"/>
     <path class="fil15" d="M25055 34355c-267,196 -244,483 69,664 339,195 887,195 1222,0 336,-195 335,-512 -4,-708 -333,-192 -872,-194 -1209,-6l58 34c305,-170 792,-168 1093,6 306,177 308,464 4,640 -303,176 -799,176 -1105,0 -280,-162 -304,-419 -69,-596l-59 -34z"/>
     <path class="fil15" d="M25202 34440c-188,149 -164,360 68,494 258,149 675,149 930,1 256,-149 255,-391 -3,-539 -252,-146 -662,-148 -918,-6l58 34c224,-124 581,-122 802,5 226,131 226,342 3,472 -224,130 -588,130 -814,0 -200,-116 -223,-296 -67,-426l-59 -35z"/>
     <path class="fil15" d="M17731 35712c-224,129 -588,129 -814,-1 -225,-130 -226,-341 -2,-471 199,-116 513,-128 737,-37l60 -34c-258,-110 -624,-97 -856,38 -255,148 -253,390 3,538 258,148 675,149 930,0 245,-142 254,-370 29,-519l-59 33c195,131 184,329 -28,453z"/>
     <path class="fil15" d="M17877 35796c-303,176 -799,176 -1105,-1 -305,-176 -306,-463 -3,-639 280,-163 725,-175 1031,-38l59 -34c-339,-156 -836,-143 -1149,38 -335,195 -334,513 3,708 339,195 887,194 1222,0 325,-189 334,-492 29,-688l-59 33c274,178 265,451 -28,621z"/>
     <path class="fil15" d="M18003 35870c-372,217 -982,217 -1358,0 -376,-217 -378,-570 -5,-787 350,-203 909,-216 1286,-37l59 -34c-410,-197 -1021,-185 -1403,37 -405,236 -403,619 5,854 408,236 1070,236 1475,1 393,-229 402,-597 27,-834l-58 33c343,219 334,557 -28,767z"/>
     <path class="fil15" d="M12294 34882c-223,130 -587,130 -813,-1 -225,-129 -226,-340 -3,-470 213,-124 554,-130 780,-19l59 -33c-258,-130 -652,-124 -897,18 -256,149 -253,390 3,538 257,149 674,149 930,1 232,-135 252,-347 62,-496l-59 34c159,130 138,312 -62,428z"/>
     <path class="fil15" d="M12440 34966c-303,176 -798,176 -1104,0 -305,-176 -307,-463 -4,-639 294,-171 766,-177 1072,-19l59 -33c-339,-177 -863,-171 -1189,18 -335,195 -334,512 3,707 338,195 887,195 1222,0 312,-182 333,-468 63,-664l-59 33c238,178 218,434 -63,597z"/>
     <path class="fil15" d="M12567 35041c-373,216 -983,216 -1359,-1 -375,-217 -377,-570 -4,-786 362,-211 949,-217 1326,-18l58 -34c-409,-217 -1048,-212 -1443,18 -405,235 -402,618 5,854 409,236 1070,236 1475,0 381,-221 402,-573 62,-811l-58 34c307,218 287,541 -62,744z"/>
     <path class="fil15" d="M15012 31867c-211,123 -209,323 2,445 213,123 557,123 768,0 207,-120 210,-313 12,-436l-48 27c172,108 168,277 -12,382 -184,107 -485,107 -672,-1 -186,-107 -187,-281 -2,-389 154,-89 390,-104 572,-44l50 -29c-210,-75 -489,-60 -670,45z"/>
     <path class="fil15" d="M14942 32354c-251,-146 -253,-383 -3,-528 222,-129 566,-144 817,-46l49 -29c-279,-113 -666,-97 -914,47 -277,161 -276,423 3,584 279,161 732,161 1009,0 273,-158 276,-414 11,-576l-48 28c238,146 235,377 -11,520 -250,146 -660,146 -913,0z"/>
     <path class="fil15" d="M14837 32415c-310,-179 -312,-471 -4,-650 279,-161 717,-177 1028,-46l49 -28c-338,-146 -820,-131 -1125,47 -334,194 -333,510 4,705 155,89 354,138 556,145l437 -83 53 -31c-307,117 -726,98 -998,-59z"/>
     <path class="fil15" d="M15970 31774c259,158 288,397 87,572l151 -87c105,-172 42,-372 -190,-512l-48 27z"/>
    </g>
    <g>
     <path class="fil16" d="M40091 19834l-2 0c-178,0 -337,125 -215,225l0 0c8,7 19,14 30,21l0 0c14,7 27,14 41,19l0 0c225,89 524,-99 310,-223l0 0c-51,-29 -108,-42 -164,-42z"/>
     <path class="fil16" d="M40918 21033c9,9 21,17 35,25l0 0c11,7 22,12 34,17l0 0c226,95 534,-96 317,-221l0 0c-51,-29 -110,-42 -166,-42l0 0c-176,0 -333,123 -220,221l0 0z"/>
     <path class="fil16" d="M40356 21720l-2 0c-175,0 -332,121 -222,220l0 0c10,9 22,17 37,26l0 0c10,6 21,11 31,16l0 0c227,97 537,-94 319,-220l0 0c-50,-29 -107,-42 -163,-42z"/>
     <path class="fil16" d="M36454 22054l71 41 3420 -1996c-14,-5 -27,-12 -41,-19l0 0c-11,-7 -22,-14 -30,-21l0 0 -3420 1995z"/>
     <path class="fil16" d="M40382 20870l-1987 372 -1662 974 71 40 1645 -964 1987 -372 1137 -661c-7,-4 -14,-7 -21,-11l0 0c-19,-11 -33,-22 -44,-33l0 0 -1126 655z"/>
     <path class="fil16" d="M40542 21253l-2050 306 -1436 843 71 41 1417 -832 2049 -307 394 -229c-12,-5 -23,-10 -34,-17l0 0c-14,-8 -26,-16 -35,-25l0 0 -376 220z"/>
     <path class="fil16" d="M38255 22612c8,6 16,11 26,17l0 0c15,9 31,16 47,22l0 0c225,83 516,-103 304,-225l0 0c-52,-30 -110,-43 -166,-43l0 0c-180,0 -341,129 -211,229l0 0z"/>
     <path class="fil16" d="M37739 22919l71 41 518 -309c-16,-6 -32,-13 -47,-22l0 0c-10,-6 -18,-11 -26,-17l-516 307z"/>
     <path class="fil16" d="M38101 23128l70 41 2029 -1187c-10,-5 -21,-10 -31,-16l0 0c-15,-9 -27,-17 -37,-26l0 0 -2031 1188z"/>
     <polygon class="fil16" points="36525,22095 36525,15881 36454,15881 36454,22054 "/>
     <polygon class="fil16" points="36804,22256 36804,16042 36733,16042 36733,22216 "/>
     <polygon class="fil16" points="37127,22443 37127,16229 37056,16229 37056,22402 "/>
     <polygon class="fil16" points="37739,14006 37739,22919 37810,22960 37810,14006 "/>
     <polygon class="fil16" points="38171,23169 38171,14215 38101,14215 38101,23128 "/>
     <path class="fil16" d="M41354 20284c11,11 26,22 44,33l0 0c7,4 14,7 21,11l0 0c227,107 550,-88 329,-215l0 0c-52,-30 -110,-42 -166,-42l0 0c-171,0 -325,116 -228,213l0 0z"/>
     <path class="fil16" d="M20644 29603c-3,0 -7,1 -11,2l0 0c-250,48 -248,474 11,437l0 0c236,-33 260,-393 71,-437l0 0c-12,-3 -26,-4 -40,-4l0 0c-10,0 -20,0 -31,2l0 0z"/>
     <path class="fil16" d="M21655 31186l-2 0 -2 0c-9,0 -18,1 -28,2l0 0c-9,2 -18,3 -26,6l0 0c-236,60 -229,470 25,434l0 0c242,-34 262,-412 56,-440l0 0c-7,-1 -15,-2 -23,-2z"/>
     <path class="fil16" d="M21614 26762l-1 137 -16 4295c8,-3 17,-4 26,-6l0 0c20,-2 38,-2 55,0l0 0 17 -4438 -81 12z"/>
     <path class="fil16" d="M21627 19750l-13 6998 -970 1606 0 1249c27,-4 50,-3 71,2l11 -1235 887 -1471 1 -137 81 -12 13 -7012 -81 12z"/>
     <path class="fil16" d="M22198 19669l-22 12591c21,-10 44,-18 81,-23l0 0 23 -12579 -82 11z"/>
     <path class="fil16" d="M23536 26098c-9,0 -17,1 -26,2l0 0c-20,3 -38,8 -55,15l0 0c-206,87 -188,459 54,425l0 0c251,-35 263,-442 32,-442l0 0c-2,0 -4,0 -5,0l0 0z"/>
     <path class="fil16" d="M23464 21071l-9 5044c17,-7 35,-12 55,-15l0 0c9,-1 17,-2 26,-2l0 0 9 -5039 -81 12z"/>
     <path class="fil16" d="M22755 19591l-12 6761 876 779 -4 4259c9,-3 18,-5 27,-6l0 0c20,-3 38,-3 55,0l0 0 4 -4302 -877 -778 12 -6724 -81 11z"/>
     <path class="fil16" d="M23615 31389l782 452c11,-9 23,-18 37,-26l0 0c15,-8 30,-16 45,-22l-783 -452 -81 48z"/>
     <path class="fil16" d="M24479 31793c-15,6 -30,14 -45,22l0 0c-14,8 -26,17 -37,26l0 0c-85,71 -46,155 46,208l0 0c103,60 272,81 404,4l0 0c131,-76 94,-174 -9,-234l0 0c-56,-32 -132,-53 -211,-53l0 0c-49,0 -100,8 -148,27l0 0z"/>
     <path class="fil16" d="M22728 31727l3168 1833c11,-9 24,-19 39,-27l0 0c14,-8 28,-15 42,-21l-3167 -1833 -82 48z"/>
     <path class="fil16" d="M22176 32257l830 479 626 1386 449 264c10,-8 21,-15 33,-22l0 0c16,-10 34,-18 51,-24l0 0 -429 -252 -626 -1387 -852 -491 -82 47z"/>
     <path class="fil16" d="M24307 34314l-2 0c-47,1 -95,8 -140,26l0 0c-17,6 -35,14 -51,24l0 0c-12,7 -23,14 -33,22l0 0c-91,72 -52,158 41,212l0 0c103,59 272,80 403,3l0 0c132,-76 95,-174 -8,-233l0 0c-56,-33 -131,-54 -210,-54z"/>
     <path class="fil16" d="M22404 31915l1097 633 758 1345 1321 767c7,-5 15,-10 23,-14l0 0c21,-13 43,-22 66,-30l0 0 -1308 -759 -758 -1345 -1117 -644 -82 47z"/>
     <path class="fil16" d="M22750 19136l-22 12591c21,-11 44,-18 81,-23l0 0 22 -12579 -81 11z"/>
     <path class="fil16" d="M22426 19323l-22 12591c21,-11 44,-18 81,-23l0 0 22 -12579 -81 11z"/>
     <path class="fil16" d="M25868 33417c-17,6 -34,14 -51,24l0 0c-12,7 -23,15 -32,22l0 0c-92,73 -53,158 41,212l0 0c102,59 271,80 403,4l0 0c132,-77 95,-175 -8,-234l0 0c-56,-33 -132,-54 -211,-54l0 0c-47,0 -96,8 -142,26l0 0z"/>
     <path class="fil16" d="M25578 34517c-18,7 -35,15 -51,24l0 0c-13,7 -23,15 -33,22l0 0c-91,73 -52,158 41,212l0 0c103,59 272,80 403,4l0 0c132,-77 95,-175 -8,-234l0 0c-56,-32 -131,-53 -210,-53l0 0c-48,0 -96,7 -142,25l0 0z"/>
     <path class="fil16" d="M24918 25024l0 130 -7 1299c8,-2 17,-4 26,-6l0 0c17,-2 33,-2 48,0l0 0 8 -1433 -75 10z"/>
     <path class="fil16" d="M24336 28145c-9,1 -18,3 -26,5l0 0c-211,59 -203,426 26,394l0 0c220,-31 238,-378 48,-400l0 0c-7,-1 -13,-1 -20,-1l0 0c-9,0 -18,0 -28,2l0 0z"/>
     <path class="fil16" d="M24932 17526l-14 7486 -599 1030 17 2103c17,-3 33,-3 48,-1l0 0 9 -2087 525 -903 0 -130 75 -10 13 -7498 -74 10z"/>
     <path class="fil16" d="M25975 25409c-9,2 -18,4 -27,6l0 0c-210,59 -202,426 26,394l0 0c221,-31 238,-378 48,-400l0 0c-6,-1 -13,-2 -20,-2l0 0c-8,0 -18,1 -27,2l0 0z"/>
     <path class="fil16" d="M25291 17476l-12 6223 676 701 -7 1015c9,-2 18,-4 27,-6l0 0c17,-2 33,-2 47,0l0 0 7 -1051 -676 -701 12 -6192 -74 11z"/>
     <path class="fil16" d="M24967 26445l-2 0 -2 0c-8,1 -17,1 -26,2l0 0c-9,2 -18,4 -26,6l0 0c-211,58 -203,426 26,394l0 0c220,-31 237,-378 48,-400l0 0c-6,-1 -12,-1 -18,-2z"/>
     <path class="fil16" d="M33645 26814l1823 1050c11,-8 24,-17 39,-25l0 0c27,-16 56,-29 85,-39l-1829 -1054 -118 68z"/>
     <path class="fil16" d="M35785 27768l-3 0c-63,0 -128,10 -190,32l0 0c-29,10 -58,23 -85,39l0 0c-15,8 -28,17 -39,25l0 0c-299,220 261,529 628,317l0 0c295,-170 10,-413 -311,-413z"/>
     <polygon class="fil16" points="33763,26746 33763,15804 33645,15804 33645,26814 "/>
     <polygon class="fil16" points="32377,27812 32377,16871 32259,16871 32259,27880 "/>
     <path class="fil16" d="M35500 29563l-3 0c-61,0 -124,9 -184,30l0 0c-31,11 -62,24 -91,41l0 0c-13,7 -25,15 -35,23l0 0c-307,220 254,532 623,319l0 0c295,-171 10,-413 -310,-413z"/>
     <path class="fil16" d="M32259 27881l796 477 -133 1722 814 462c11,-8 22,-15 35,-23l0 0c30,-17 60,-30 91,-41l0 0 -770 -437 123 -1589 1972 1205c10,-8 22,-16 35,-23l0 0c29,-17 60,-30 91,-41l-2088 -1276 3 -21 -850 -484 -119 69z"/>
     <path class="fil16" d="M33969 30403l-3 0c-62,1 -125,10 -185,30l0 0c-31,11 -61,24 -90,41l0 0c-13,8 -25,15 -36,23l0 0c-307,220 255,532 624,319l0 0c295,-170 10,-413 -310,-413z"/>
     <path class="fil16" d="M32986 16178l-10 4879c6,-1 12,-2 17,-3l0 0c21,-3 40,-2 57,1l0 0 9 -4888 -73 11z"/>
     <path class="fil16" d="M32993 21054c-5,1 -11,2 -17,3l0 0c-220,50 -216,429 17,397l0 0c217,-31 236,-367 57,-399l0 0c-10,-2 -19,-3 -30,-3l0 0c-8,0 -17,1 -27,2l0 0z"/>
     <path class="fil16" d="M33114 25298l0 0 -1 0c-9,0 -17,0 -26,2l0 0c-17,2 -33,6 -47,12l0 0c-190,75 -175,417 46,386l0 0c228,-32 239,-400 28,-400z"/>
     <path class="fil16" d="M33683 16080l-11 5616 -619 1205 -13 2411c14,-6 30,-10 74,-14l0 0 12 -2385 620 -1206 11 -5638 -74 11z"/>
     <path class="fil16" d="M34162 25870c-7,0 -14,1 -22,2l0 0c-19,2 -35,7 -51,14l0 0c-186,78 -170,415 50,384l0 0c228,-32 238,-400 28,-400l0 0c-1,0 -3,0 -5,0l0 0z"/>
     <path class="fil16" d="M34107 16020l-18 9866c16,-7 32,-12 51,-14l0 0c8,-1 15,-2 22,-2l0 0 19 -9860 -74 10z"/>
     <path class="fil16" d="M34745 19938c-5,0 -11,1 -17,1l0 0c-20,3 -39,9 -56,17l0 0c-180,83 -162,413 55,383l0 0c229,-32 239,-402 29,-402l0 0c-4,0 -7,1 -11,1l0 0z"/>
     <path class="fil16" d="M34679 15940l-7 4016c17,-8 36,-14 56,-17l0 0c6,0 12,-1 17,-1l0 0 8 -4009 -74 11z"/>
     <path class="fil16" d="M35144 23371l-1 130 -7 1299c8,-3 17,-5 27,-6l0 0c17,-2 32,-3 47,-1l0 0 8 -1433 -74 11z"/>
     <path class="fil16" d="M34562 26491c-10,1 -19,3 -27,6l0 0c-211,58 -202,426 26,393l0 0c221,-31 238,-377 48,-400l0 0c-6,0 -13,-1 -20,-1l0 0c-9,0 -18,1 -27,2l0 0z"/>
     <path class="fil16" d="M35158 15873l-14 7485 -600 1031 18 2102c17,-2 33,-2 47,-1l0 0 9 -2087 525 -902 1 -130 74 -11 14 -7498 -74 11z"/>
     <path class="fil16" d="M36229 23754l-2 0 -2 0c-8,0 -16,1 -25,2l0 0c-9,1 -18,3 -26,6l0 0c-211,58 -203,425 26,393l0 0c220,-31 237,-377 48,-400l0 0c-6,-1 -12,-1 -19,-1z"/>
     <path class="fil16" d="M35516 15822l-12 6224 676 701 -6 1015c8,-3 17,-5 26,-6l0 0c17,-2 33,-3 48,-1l0 0 7 -1051 -676 -700 11 -6192 -74 10z"/>
     <path class="fil16" d="M35163 24794c-10,1 -19,3 -27,6l0 0c-211,58 -202,425 26,393l0 0c221,-31 237,-377 48,-400l0 0c-6,-1 -13,-1 -20,-1l0 0c-9,0 -18,1 -27,2l0 0z"/>
     <path class="fil16" d="M15541 31904c25,8 50,20 74,33l0 0c12,8 23,15 33,22l0 0 1651 -950 -103 -59 -1655 954z"/>
     <path class="fil16" d="M15106 32233c316,183 800,-84 542,-274l0 0c-10,-7 -21,-14 -33,-22l0 0c-24,-13 -49,-25 -74,-33l0 0c-55,-20 -111,-28 -167,-28l0 0c-277,0 -523,210 -268,357l0 0z"/>
     <path class="fil16" d="M15782 32505l-1897 361 -1226 701c11,5 21,10 31,16l0 0c26,15 47,31 64,47l0 0 1209 -691 1898 -360 2079 -1200 -103 -59 -2055 1185z"/>
     <polygon class="fil16" points="17299,31009 17299,22538 17196,22538 17196,30950 "/>
     <polygon class="fil16" points="17838,22910 17838,31322 17940,31382 17940,22910 "/>
     <polygon class="fil16" points="18474,31689 18474,23217 18371,23217 18371,31630 "/>
     <polygon class="fil16" points="19052,23609 19052,32021 19154,32080 19154,23609 "/>
     <polygon class="fil16" points="19856,32485 19856,24014 19754,24014 19754,32426 "/>
     <path class="fil16" d="M12181 33879c303,174 758,-62 573,-249l0 0c-17,-16 -38,-32 -64,-47l0 0c-10,-6 -20,-11 -31,-16l0 0c-66,-32 -139,-45 -209,-45l0 0c-277,0 -524,209 -269,357l0 0z"/>
     <path class="fil16" d="M15409 34118c31,9 61,22 89,39l0 0c9,5 16,9 23,14l0 0 3633 -2091 -102 -59 -3643 2097z"/>
     <path class="fil16" d="M16060 32962l-1999 393 -2040 1174c24,8 46,19 69,32l0 0c14,8 26,16 37,24l2012 -1157 2000 -393 2334 -1348 -102 -59 -2311 1334z"/>
     <path class="fil16" d="M14990 34452c322,186 813,-90 531,-281l0 0c-7,-5 -14,-9 -23,-14l0 0c-28,-17 -58,-30 -89,-39l0 0c-50,-16 -101,-22 -151,-22l0 0c-277,0 -522,209 -268,356l0 0z"/>
     <path class="fil16" d="M16015 34542l-2 0c-277,0 -523,209 -268,356l0 0c318,184 803,-85 538,-275l0 0c-9,-7 -19,-14 -30,-20l0 0c-25,-15 -52,-26 -79,-35l0 0c-52,-18 -106,-26 -159,-26z"/>
     <path class="fil16" d="M18943 32888l2 18 -2771 1662c27,9 54,20 79,35l0 0c11,6 21,13 30,20l0 0 2671 -1601 106 1373 -1633 937c27,9 54,21 79,36l0 0c11,6 21,13 30,19l1671 -959 -115 -1487 764 -456 -103 -59 -810 462z"/>
     <path class="fil16" d="M11631 34794c319,184 804,-85 539,-275l0 0c-10,-7 -20,-13 -31,-20l0 0c-25,-14 -51,-26 -78,-35l0 0c-53,-18 -108,-26 -162,-26l0 0c-277,0 -523,209 -268,356l0 0z"/>
     <path class="fil16" d="M17068 35624c318,184 803,-85 538,-275l0 0c-9,-7 -19,-14 -30,-20l0 0c-26,-15 -52,-26 -79,-35l0 0c-53,-18 -108,-26 -162,-26l0 0c-276,0 -522,209 -267,356l0 0z"/>
     <path class="fil16" d="M36030 21221l-3 0 -1 0c-9,0 -19,0 -29,2l0 0c-4,0 -7,1 -11,2l0 0c-251,48 -248,474 11,438l0 0c236,-34 260,-393 71,-438l0 0c-12,-3 -25,-4 -38,-4z"/>
     <path class="fil16" d="M35997 15334l0 5889c27,-4 50,-3 71,2l0 0 11 -5903 -82 12z"/>
     <path class="fil16" d="M16658 29423c-8,1 -17,1 -26,2l0 0c-20,3 -38,9 -55,16l0 0c-206,86 -188,458 55,424l0 0c251,-35 263,-442 31,-442l0 0c-2,0 -3,0 -5,0l0 0z"/>
     <path class="fil16" d="M16586 24396l-9 5045c17,-7 35,-13 55,-16l0 0c9,-1 18,-1 26,-2l0 0 9 -5039 -81 12z"/>
    </g>
    <g>
     <polygon class="fil17" points="21558,5652 19778,6679 18894,8963 19788,10220 21568,9193 22453,6908 "/>
     <polygon class="fil17" points="16937,13785 16042,12529 14263,13556 13379,15840 14273,17097 16052,16070 "/>
     <path class="fil18" d="M18760 5451l878 1234 -868 2242 -1746 1008 -878 -1234 868 -2242 1746 -1008zm-1769 4568l1812 -1046 901 -2326 -8 -11 -903 -1269 -1812 1046 -901 2326 8 12 903 1268z"/>
     <path class="fil18" d="M19706 10322l-902 -1269 -1813 1047 -901 2327 9 11 902 1269 1813 -1047 900 -2326 -8 -12zm-936 -1184l879 1234 -869 2241 -1746 1008 -878 -1232 869 -2243 1745 -1008z"/>
     <polygon class="fil17" points="10816,27660 9921,26404 8142,27431 7258,29715 8152,30972 9931,29945 "/>
     <path class="fil18" d="M10870 23894l1812 -1046 901 -2326 -8 -11 -903 -1269 -1812 1046 -901 2326 8 12 903 1268zm1779 -1092l-1746 1008 -878 -1234 868 -2242 1746 -1008 878 1234 -868 2242z"/>
     <path class="fil18" d="M12650 23013l878 1234 -869 2242 -1745 1007 -879 -1232 869 -2243 1746 -1008zm935 1184l-902 -1269 -1813 1047 -901 2327 9 11 902 1269 1813 -1047 901 -2326 -9 -12z"/>
     <path class="fil17" d="M38018 8411l-432 1118 1021 594c3,1 6,3 8,4 1,1 2,1 2,1 358,209 637,554 806,1019l385 -222 885 -2284 -895 -1257 -1780 1027z"/>
     <path class="fil18" d="M37000 7184l878 1233 -405 1047 42 24 429 -1109 -8 -11 -903 -1269 -1812 1047 -371 956c12,14 24,27 36,41l368 -951 1746 -1008z"/>
     <path class="fil18" d="M42481 10979l903 1269 1812 -1046 901 -2326 -8 -12 -903 -1268 -1812 1046 -901 2326 8 11zm936 1185l-878 -1234 868 -2242 1746 -1008 878 1234 -868 2242 -1746 1008z"/>
     <polygon class="fil17" points="13051,30728 14830,29700 15715,27416 14820,26159 13040,27187 12156,29471 "/>
     <polygon class="fil17" points="13668,24095 15447,23068 16332,20783 15437,19527 13658,20554 12773,22838 "/>
     <polygon class="fil17" points="18277,15595 19171,16852 20951,15825 21835,13541 20941,12284 19161,13312 "/>
     <path class="fil18" d="M26913 5948l878 1233 -868 2242 -1746 1008 -878 -1233 868 -2242 1746 -1008zm-2672 3299l903 1269 1812 -1047 901 -2326 -8 -12 -903 -1268 -1812 1046 -901 2327 8 11z"/>
    </g>
    <g>
     <path class="fil11" d="M34555 9349l-805 464 1655 962 804 -465c937,-541 1791,-589 2408,-230l-1654 -962c-260,-151 -563,-230 -896,-230l0 0c-456,0 -971,148 -1512,461l0 0z"/>
     <path class="fil11" d="M22873 9218c-3202,1850 -5789,6330 -5778,10009l0 0c0,70 2,140 4,208l0 0 1655 962c-3,-69 -5,-138 -5,-209l0 0c-10,-3678 2576,-8159 5779,-10008l0 0c1296,-749 2557,-17 3524,253l1030 255 719 368 243 -1283 -1960 -327 -1086 -631c-443,-257 -957,-391 -1524,-391 -783,0 -1666,255 -2601,794l0 0z"/>
     <path class="fil13" d="M14926 21829c-613,1059 -990,2253 -988,3323l0 0c3,1065 382,1816 992,2170l0 0 1654 961c-609,-354 -989,-1105 -991,-2169l0 0c-3,-1070 375,-2264 987,-3324l0 0c565,-978 1328,-1842 2174,-2393l0 0 -1655 -962c-845,551 -1609,1416 -2173,2394l0 0z"/>
     <path class="fil13" d="M30578 8006l-2494 1440 568 331c-205,-119 -426,-213 -661,-277l0 0 -139 80 1655 961 2726 -1573c875,-506 1671,-550 2247,-216l-1655 -962c-243,-140 -525,-214 -836,-214 -425,0 -905,138 -1411,430l0 0z"/>
     <path class="fil19" d="M32233 8968l-2726 1573c-1020,-1350 -2870,-1579 -4979,-361l0 0c-3202,1849 -5789,6330 -5778,10008l0 0c0,70 1,140 3,209l0 0c-845,551 -1608,1415 -2173,2393l0 0c-612,1059 -990,2254 -987,3324l0 0c6,2142 1536,3014 3400,1938l0 0 17238 -9952c932,-539 1778,-1465 2391,-2526l0 0c612,-1061 990,-2254 987,-3326l0 0c-6,-2141 -1536,-3014 -3400,-1937l0 0 -805 464c-4,-1416 -723,-2238 -1760,-2238l0 0c-426,1 -906,139 -1411,431l0 0z"/>
    </g>
    <g>
     <polygon class="fil20" points="31262,23151 31633,23367 32977,22591 32606,22375 "/>
     <polygon class="fil20" points="25675,26376 26046,26592 27316,25859 26944,25643 "/>
     <polygon class="fil21" points="26944,25643 27316,25859 27306,22352 26934,22136 "/>
     <polygon class="fil20" points="26934,22136 27306,22352 31623,19859 31252,19643 "/>
     <polygon class="fil22" points="27306,22352 27316,25859 26046,26592 29522,28456 32977,22591 31633,23367 31623,19859 "/>
     <polygon class="fil21" points="26934,21991 27305,22207 27302,21205 26931,20989 "/>
     <polygon class="fil20" points="26931,20989 27302,21205 31619,18713 31248,18497 "/>
     <polygon class="fil22" points="27302,21205 27305,22207 31622,19715 31619,18713 "/>
     <polygon class="fil21" points="26931,20852 27302,21068 27300,20362 26929,20147 "/>
     <polygon class="fil20" points="26929,20147 27300,20362 31617,17870 31246,17654 "/>
     <polygon class="fil22" points="27300,20362 27302,21068 31619,18575 31617,17870 "/>
    </g>
   </g>
   <path class="fil23" d="M57675 19238c515,17 928,440 931,963l8 0c4,-523 417,-946 931,-963 -517,-17 -931,-444 -931,-970l-7 0c0,526 -414,953 -932,970z"/>
   <path class="fil24" d="M1966 38559c809,27 1457,691 1462,1513l13 0c6,-822 655,-1486 1462,-1513 -812,-26 -1462,-697 -1462,-1523l-11 0c0,826 -651,1497 -1464,1523z"/>
   <g>
    <path class="fil25" d="M14175 47257c0,-1282 1039,-2321 2321,-2321 1282,0 2321,1039 2321,2321 0,1282 -1039,2321 -2321,2321 -1282,0 -2321,-1039 -2321,-2321z"/>
    <path class="fil26" d="M14226 46772c223,-1049 1155,-1836 2270,-1836 1282,0 2321,1039 2321,2321 0,294 -55,575 -154,834 -371,-106 -932,-293 -1766,-604 -1223,-456 -2066,-660 -2671,-715z"/>
    <path class="fil27" d="M16496 49578c-943,0 -1754,-562 -2117,-1370 355,-12 752,-47 1172,-120 1035,-181 2093,331 2691,698 -425,485 -1050,792 -1746,792z"/>
    <path class="fil28" d="M18799 46968c-742,-84 -1528,-282 -2247,-682 -640,-355 -1148,-615 -1549,-805 404,-340 925,-545 1493,-545 1184,0 2161,887 2303,2032z"/>
    <path class="fil29" d="M15526 48825c1174,0 2126,-952 2126,-2126 0,-726 -364,-1367 -920,-1751 1171,118 2085,1107 2085,2309 0,1282 -1039,2321 -2321,2321 -771,0 -1454,-376 -1876,-955 275,130 582,202 906,202z"/>
   </g>
   <g>
    <g>
     <path class="fil13" d="M36063 50638l0 3 0 3c1,67 4,130 8,193l0 0 63 -36c2,30 2,62 4,91l0 0 63 -35c2,30 2,61 4,91l0 0 63 -36c2,30 2,62 4,91l0 0 63 -35c2,30 2,61 4,91l0 0 63 -36c1,30 2,61 4,91l0 0 63 -35c1,30 2,61 3,91l0 0 64 -36c1,30 2,61 3,91l0 0 64 -35c1,30 2,61 3,91l0 0 64 -36c1,30 1,61 3,91l0 0 9573 -5363c4,-70 8,-139 8,-208l0 0c0,-654 -200,-1133 -521,-1378l0 0c-22,-20 -44,-38 -67,-55l0 0c-22,-20 -44,-39 -67,-56l0 0c-22,-20 -44,-38 -67,-55l0 0c-22,-20 -44,-38 -67,-56l0 0c-22,-20 -44,-38 -67,-55l0 0c-21,-20 -44,-38 -67,-56l0 0c-21,-20 -44,-38 -67,-55l0 0c-21,-20 -44,-38 -67,-56l0 0c-309,-283 -751,-326 -1244,-67l0 0c-134,-295 -312,-529 -526,-698l0 0c-21,-19 -44,-37 -66,-55l0 0c-22,-19 -45,-38 -67,-55l0 0c-22,-20 -45,-38 -67,-56l0 0c-22,-19 -44,-38 -67,-55l0 0c-22,-20 -44,-38 -67,-56l0 0c-22,-19 -44,-38 -67,-55l0 0c-22,-20 -44,-38 -67,-56l0 0c-22,-19 -44,-37 -67,-55l0 0c-265,-235 -590,-361 -956,-361l0 0c-324,0 -681,99 -1055,309l0 0c-1243,697 -2293,2396 -2631,4108l0 0c-73,30 -147,65 -222,107l0 0c-1085,608 -1965,2282 -1965,3740z"/>
     <path class="fil12" d="M41483 43182c-1243,697 -2293,2396 -2630,4108 -73,30 -147,65 -223,107 -1085,608 -1964,2282 -1964,3740 0,37 1,73 2,109l2 -1c1,29 1,59 3,88 0,1 0,1 0,2 0,0 0,1 0,1l9573 -5363c4,-70 8,-139 8,-208 0,-654 -200,-1133 -521,-1378 -1,-1 -2,-2 -4,-3 -314,-237 -745,-251 -1220,15 -114,64 -226,143 -335,232 -46,-283 -121,-536 -221,-755 -134,-295 -312,-529 -526,-698 -3,-2 -6,-5 -9,-8 -496,-384 -1180,-411 -1935,12z"/>
    </g>
    <g>
     <path class="fil11" d="M44880 35976l0 -6c0,-404 -124,-701 -323,-852l0 0c-13,-12 -27,-24 -41,-34l0 0c-13,-13 -27,-24 -42,-35l0 0c-13,-12 -27,-23 -41,-34l0 0c-13,-12 -27,-24 -41,-34l0 0c-14,-13 -27,-24 -42,-35l0 0c-13,-12 -27,-23 -41,-34l0 0c-14,-12 -27,-24 -42,-34l0 0c-13,-13 -27,-24 -41,-35l0 0c-191,-175 -465,-202 -770,-41l0 0c-83,-183 -193,-328 -325,-432l0 0c-13,-12 -27,-23 -41,-34l0 0c-14,-12 -28,-23 -42,-35l0 0c-13,-12 -27,-23 -41,-34l0 0c-13,-12 -28,-23 -42,-34l0 0c-13,-12 -27,-23 -41,-34l0 0c-13,-12 -27,-24 -41,-35l0 0c-14,-12 -28,-23 -42,-34l0 0c-13,-12 -27,-24 -41,-34l0 0c-164,-146 -365,-223 -591,-223 -201,0 -422,61 -653,191l0 0c-770,431 -1419,1482 -1628,2541l0 0c-45,19 -91,40 -138,66l0 0c-671,376 -1215,1412 -1215,2314l0 0c0,43 2,83 5,123l0 0 39 -22c1,19 1,38 2,57l0 0 39 -22c1,18 1,38 3,56l0 0 39 -22c1,19 1,38 2,56l0 0 39 -22c1,19 1,38 2,57l0 0 39 -22c1,18 2,37 3,56l0 0 39 -22c1,18 1,38 2,56l0 0 39 -22c1,19 1,38 3,56l0 0 39 -21c1,18 1,38 2,56l0 0 39 -22c1,19 1,38 2,56l0 0 5923 -3318c2,-41 4,-82 5,-123z"/>
     <path class="fil30" d="M38952 39417c-2,-40 -4,-80 -4,-123 0,-902 544,-1938 1215,-2314 47,-26 92,-47 138,-66 209,-1059 858,-2110 1627,-2542 823,-460 1509,-59 1665,897 67,-55 136,-104 207,-144 597,-334 1080,45 1080,846 0,42 -2,85 -5,128l-5923 3318z"/>
    </g>
   </g>
  </g>
 </g>
</svg>
