<?xml version="1.0" encoding="UTF-8"?>
<!DOCTYPE svg PUBLIC "-//W3C//DTD SVG 1.1//EN" "http://www.w3.org/Graphics/SVG/1.1/DTD/svg11.dtd">
<!-- Creator: CorelDRAW X7 -->
<svg xmlns="http://www.w3.org/2000/svg" xml:space="preserve" width="2.2178in" height="2.71905in" version="1.1" style="shape-rendering:geometricPrecision; text-rendering:geometricPrecision; image-rendering:optimizeQuality; fill-rule:evenodd; clip-rule:evenodd"
viewBox="0 0 22178 27190"
 xmlns:xlink="http://www.w3.org/1999/xlink">
 <defs>
  <style type="text/css">
   <![CDATA[
    .fil1 {fill:none;fill-rule:nonzero}
    .fil2 {fill:#BB9B61}
    .fil15 {fill:#DBBB82}
    .fil9 {fill:#E2B74B}
    .fil8 {fill:#F6EFE2}
    .fil13 {fill:#75613D;fill-rule:nonzero}
    .fil6 {fill:#A34630;fill-rule:nonzero}
    .fil4 {fill:#A38755;fill-rule:nonzero}
    .fil10 {fill:#BB9B61;fill-rule:nonzero}
    .fil12 {fill:#D2AE6D;fill-rule:nonzero}
    .fil0 {fill:#D7B77D;fill-rule:nonzero}
    .fil14 {fill:#DBBB82;fill-rule:nonzero}
    .fil5 {fill:#DCC08D;fill-rule:nonzero}
    .fil7 {fill:#E2B74B;fill-rule:nonzero}
    .fil3 {fill:#F6EFE2;fill-rule:nonzero}
    .fil11 {fill:white;fill-rule:nonzero}
   ]]>
  </style>
 </defs>
 <g id="Layer_x0020_1">
  <metadata id="CorelCorpID_0Corel-Layer"/>
  <g id="_2557164860864">
   <g>
    <g>
     <polygon class="fil0" points="3649,21433 20032,23065 22166,1631 5783,0 "/>
     <path class="fil1" d="M7286 3015l5048 1574c818,256 1677,341 2529,252l5259 -547c1039,-72 1883,-922 1991,-2008l65 -654 -16383 -1631 -65 654c-108,1085 551,2085 1556,2360z"/>
     <path class="fil2" d="M14898 5180l5253 -547c755,-54 1403,-453 1819,-1034l108 -1079c-198,972 -993,1707 -1956,1774l-5259 547c-852,89 -1711,4 -2529,-252l-5048 -1574c-1005,-275 -1664,-1275 -1556,-2360l65 -654 -12 -1 -191 1926c288,672 852,1210 1599,1416l5042 1572c861,269 1768,359 2665,266z"/>
    </g>
    <path class="fil3" d="M13649 3042c652,65 1130,648 1066,1300l-308 3103c-64,652 -647,1130 -1299,1066 -652,-65 -1130,-648 -1066,-1300l307 -3103c65,-652 648,-1130 1300,-1066zm-552 5581c714,70 1352,-453 1423,-1167l307 -3103c71,-714 -453,-1352 -1167,-1423 -714,-71 -1352,453 -1423,1167l-307 3103c-71,714 453,1352 1167,1423z"/>
    <path class="fil4" d="M12336 3667c-67,684 432,1293 1117,1361 684,68 1293,-432 1361,-1116 68,-684 -432,-1294 -1116,-1361 -684,-68 -1294,432 -1362,1116z"/>
    <path class="fil5" d="M12940 3726c-34,351 222,664 572,698 351,35 663,-221 698,-572 35,-350 -221,-663 -572,-697 -351,-35 -663,221 -698,571z"/>
    <path class="fil4" d="M13280 3760c-16,163 103,309 266,325 163,16 308,-103 325,-266 16,-164 -103,-309 -267,-325 -163,-16 -308,103 -324,266z"/>
    <path class="fil4" d="M11949 7576c-67,684 432,1293 1116,1361 685,68 1294,-432 1362,-1116 68,-684 -432,-1294 -1116,-1362 -684,-67 -1294,432 -1362,1117z"/>
    <path class="fil5" d="M12553 7635c-34,351 222,663 572,698 351,35 663,-221 698,-572 35,-351 -221,-663 -572,-698 -351,-34 -663,222 -698,572z"/>
    <path class="fil4" d="M12893 7669c-16,163 103,308 266,325 163,16 308,-103 325,-267 16,-163 -103,-308 -267,-324 -163,-16 -308,103 -324,266z"/>
   </g>
   <g>
    <g>
     <polygon class="fil6" points="5402,23810 4892,23179 4505,23904 4126,20870 4930,20382 "/>
     <polygon class="fil6" points="3395,23837 3303,23030 2588,23434 3896,20672 4837,20691 "/>
     <path class="fil7" d="M4542 18551l-122 274c-62,138 -247,162 -342,45l-189 -233c-129,-161 -388,-47 -357,157l45 297c23,149 -120,270 -263,222l-285 -94c-196,-65 -352,171 -215,326l198 225c100,113 45,292 -101,329l-291 75c-200,51 -203,334 -5,390l289 82c145,42 195,222 92,333l-204 219c-140,152 10,391 207,332l287 -87c145,-44 285,80 258,229l-53 295c-36,203 219,324 353,167l195 -228c98,-115 282,-86 340,53l116 277c79,191 359,154 387,-50l40 -298c20,-149 191,-225 316,-139l246 171c170,117 386,-65 299,-252l-127 -272c-64,-137 39,-293 190,-288l300 11c206,7 289,-263 115,-373l-254 -161c-128,-80 -125,-267 4,-344l258 -154c177,-105 101,-378 -105,-376l-300 3c-151,1 -250,-158 -183,-293l134 -268c92,-185 -119,-373 -292,-260l-251 164c-126,83 -295,3 -311,-147l-33 -298c-22,-205 -302,-249 -386,-61z"/>
     <path class="fil8" d="M4606 19404c-290,-45 -571,44 -778,222 -168,144 -288,346 -325,582 -40,255 25,504 162,701 10,14 21,28 32,42 130,167 315,291 532,344 26,6 51,11 78,15 15,3 31,5 46,7 246,26 482,-43 670,-179 200,-146 345,-368 386,-631 83,-526 -278,-1020 -803,-1103z"/>
     <path class="fil9" d="M3976 20733c82,106 199,184 337,218 16,3 32,7 49,9 10,2 19,3 29,4 156,17 305,-27 424,-113 127,-92 218,-232 244,-399 52,-332 -176,-645 -508,-698 -184,-28 -361,28 -492,141 -106,91 -182,219 -206,368 -25,161 16,319 103,443 6,9 13,18 20,27z"/>
    </g>
    <polygon class="fil10" points="1655,21245 3747,5242 18757,7204 16726,22737 "/>
    <g>
     <polygon class="fil11" points="14954,27191 0,24842 3239,4216 18193,6564 "/>
     <path class="fil12" d="M7152 7914l8385 1316c228,36 283,-317 55,-353l-8385 -1317c-228,-36 -283,318 -55,354z"/>
     <path class="fil12" d="M4173 9593l11035 1732c228,36 283,-317 55,-353l-11035 -1733c-228,-36 -283,318 -55,354z"/>
     <path class="fil12" d="M3844 11688l11035 1732c228,36 283,-318 55,-353l-11035 -1733c-228,-36 -283,318 -55,354z"/>
     <path class="fil12" d="M3515 13783l11035 1732c228,36 283,-318 55,-353l-11035 -1733c-228,-36 -283,318 -55,354z"/>
     <path class="fil12" d="M3186 15877l11035 1733c228,36 283,-318 55,-353l-11035 -1733c-228,-36 -283,318 -55,353z"/>
     <g>
      <polygon class="fil13" points="10129,24552 10808,24108 10954,24916 12245,22145 11629,21433 "/>
      <polygon class="fil13" points="12031,25193 12366,24453 12922,25057 12524,22026 11622,21756 "/>
      <path class="fil14" d="M12559 19810l32 298c17,150 186,230 312,148l251 -165c173,-113 384,75 292,260l-134 268c-67,135 32,294 183,293l300 -3c206,-1 282,271 105,376l-258 154c-130,77 -132,264 -4,345l253 160c175,110 92,380 -115,373l-299 -10c-151,-6 -254,150 -191,287l127 272c88,187 -128,369 -298,252l-247 -171c-124,-86 -295,-10 -315,139l-40 298c-28,204 -308,241 -388,50l-115 -277c-58,-139 -243,-168 -341,-53l-194 228c-134,157 -389,36 -353,-167l53 -295c26,-149 -113,-273 -258,-229l-287 87c-198,60 -347,-180 -207,-331l204 -220c103,-111 52,-291 -93,-332l-288 -83c-199,-56 -195,-339 5,-390l290 -75c147,-37 202,-216 102,-329l-198 -225c-137,-155 19,-391 215,-326l285 94c143,48 286,-73 263,-222l-45 -297c-31,-204 227,-318 357,-157l189 233c95,118 280,93 342,-45l122 -273c84,-189 363,-145 386,60z"/>
      <path class="fil8" d="M12237 20603c290,45 530,216 672,449 116,189 168,418 131,653 -40,256 -178,472 -369,618 -14,11 -28,21 -43,31 -175,118 -389,180 -612,164 -26,-2 -52,-5 -79,-9 -15,-3 -31,-6 -46,-9 -242,-50 -446,-188 -582,-375 -146,-200 -216,-456 -175,-719 83,-526 577,-886 1103,-803z"/>
      <path class="fil15" d="M12429 22061c-110,75 -246,114 -387,103 -16,-1 -33,-3 -50,-5 -9,-2 -19,-4 -29,-6 -153,-31 -282,-119 -368,-237 -93,-127 -137,-289 -111,-455 52,-333 365,-561 698,-508 183,28 335,137 425,284 74,119 106,264 83,413 -25,162 -112,299 -233,391 -9,7 -18,13 -28,20z"/>
     </g>
    </g>
    <path class="fil12" d="M13336 8885l-8386 -1317c-228,-36 -172,-389 56,-354l8385 1317c228,36 173,389 -55,354z"/>
   </g>
  </g>
 </g>
</svg>
