<?xml version="1.0" encoding="UTF-8"?>
<!DOCTYPE svg PUBLIC "-//W3C//DTD SVG 1.1//EN" "http://www.w3.org/Graphics/SVG/1.1/DTD/svg11.dtd">
<!-- Creator: CorelDRAW X7 -->
<svg xmlns="http://www.w3.org/2000/svg" xml:space="preserve" width="1.02362in" height="1.02362in" version="1.1" style="shape-rendering:geometricPrecision; text-rendering:geometricPrecision; image-rendering:optimizeQuality; fill-rule:evenodd; clip-rule:evenodd"
viewBox="0 0 10236 10236"
 xmlns:xlink="http://www.w3.org/1999/xlink">
 <defs>
  <style type="text/css">
   <![CDATA[
    .fil0 {fill:none}
    .fil1 {fill:black}
   ]]>
  </style>
 </defs>
 <g id="Layer_x0020_1">
  <metadata id="CorelCorpID_0Corel-Layer"/>
  <g id="_2069286351952">
   <rect class="fil0" width="10236" height="10236"/>
   <path class="fil1" d="M6296 6289l-371 -1607 680 -680c102,-102 102,-268 0,-371 -103,-102 -268,-102 -371,0l-680 680 -1606 -371 -247 248 1297 679 -826 826 -432 -62 -185 186 556 309 309 556 185 -186 -62 -432 826 -826 680 1298 247 -247zm1336 -3685c-671,-671 -1564,-1041 -2514,-1041 -950,-1 -1843,369 -2514,1041 -672,671 -1041,1564 -1041,2514 0,950 370,1843 1041,2514 672,672 1564,1041 2514,1041 950,0 1843,-369 2515,-1041 671,-671 1041,-1564 1040,-2514 0,-950 -369,-1842 -1041,-2514zm-2514 5848c-890,-1 -1727,-348 -2357,-977 -629,-630 -976,-1467 -976,-2357 0,-890 347,-1728 976,-2357 630,-630 1467,-976 2357,-976 890,0 1728,346 2357,976 630,629 976,1467 977,2357 -1,891 -347,1727 -977,2357 -629,629 -1466,976 -2357,977z"/>
  </g>
 </g>
</svg>
