<?xml version="1.0" encoding="UTF-8"?>
<!DOCTYPE svg PUBLIC "-//W3C//DTD SVG 1.1//EN" "http://www.w3.org/Graphics/SVG/1.1/DTD/svg11.dtd">
<!-- Creator: CorelDRAW X7 -->
<svg xmlns="http://www.w3.org/2000/svg" xml:space="preserve" width="1.02362in" height="1.02362in" version="1.1" style="shape-rendering:geometricPrecision; text-rendering:geometricPrecision; image-rendering:optimizeQuality; fill-rule:evenodd; clip-rule:evenodd"
viewBox="0 0 10236 10236"
 xmlns:xlink="http://www.w3.org/1999/xlink">
 <defs>
  <style type="text/css">
   <![CDATA[
    .fil0 {fill:none}
    .fil1 {fill:black}
   ]]>
  </style>
 </defs>
 <g id="Layer_x0020_1">
  <metadata id="CorelCorpID_0Corel-Layer"/>
  <g id="_2069286290448">
   <rect class="fil0" width="10236" height="10236"/>
   <path class="fil1" d="M3487 5265c-696,273 -664,966 -153,1175 72,29 151,45 235,45l550 0 1402 0 928 0c995,0 1204,-1355 28,-1617 0,-1425 -1654,-1509 -1948,-131 -548,-318 -1052,-193 -1042,528zm4145 -2661c-671,-671 -1564,-1041 -2514,-1041 -950,-1 -1843,369 -2514,1041 -672,671 -1041,1564 -1041,2514 0,950 370,1843 1041,2514 672,672 1564,1041 2514,1041 950,0 1843,-369 2515,-1041 671,-671 1041,-1564 1040,-2514 0,-950 -369,-1842 -1041,-2514zm-2514 5848c-890,-1 -1727,-348 -2357,-977 -629,-630 -976,-1467 -976,-2357 0,-890 347,-1728 976,-2357 630,-630 1467,-976 2357,-976 890,0 1728,346 2357,976 630,629 976,1467 977,2357 -1,891 -347,1727 -977,2357 -629,629 -1466,976 -2357,977zm-1125 -4101c125,-2 258,24 396,75 150,-404 419,-671 721,-802 178,-78 367,-107 551,-91 186,18 366,82 522,194 269,191 469,517 508,971 382,127 621,367 734,637 65,154 87,319 71,479 -16,160 -72,315 -162,449 -175,260 -479,444 -885,444l-928 0 -1402 0 -550 0c-54,0 -109,-5 -162,-15 -53,-11 -106,-27 -156,-47l-1 0c-162,-66 -290,-171 -378,-297 -93,-134 -140,-292 -136,-455 4,-160 57,-323 165,-468 87,-116 210,-222 370,-305 14,-172 56,-314 122,-428 66,-113 154,-198 259,-255 101,-56 217,-84 341,-86z"/>
  </g>
 </g>
</svg>
