<?xml version="1.0" encoding="UTF-8"?>
<!DOCTYPE svg PUBLIC "-//W3C//DTD SVG 1.1//EN" "http://www.w3.org/Graphics/SVG/1.1/DTD/svg11.dtd">
<!-- Creator: CorelDRAW X7 -->
<svg xmlns="http://www.w3.org/2000/svg" xml:space="preserve" width="1.02362in" height="1.02362in" version="1.1" style="shape-rendering:geometricPrecision; text-rendering:geometricPrecision; image-rendering:optimizeQuality; fill-rule:evenodd; clip-rule:evenodd"
viewBox="0 0 10236 10236"
 xmlns:xlink="http://www.w3.org/1999/xlink">
 <defs>
  <style type="text/css">
   <![CDATA[
    .fil0 {fill:none}
    .fil1 {fill:black}
   ]]>
  </style>
 </defs>
 <g id="Layer_x0020_1">
  <metadata id="CorelCorpID_0Corel-Layer"/>
  <g id="_2069286351056">
   <rect class="fil0" width="10236" height="10236"/>
   <path class="fil1" d="M5118 8674c949,0 1843,-370 2516,-1044 670,-669 1040,-1563 1040,-2512 0,-949 -370,-1843 -1040,-2516 -673,-669 -1567,-1040 -2516,-1040 -949,0 -1843,371 -2512,1040 -673,673 -1044,1567 -1044,2516 0,949 371,1843 1044,2512 669,674 1563,1044 2512,1044zm0 -3920c302,0 552,-247 552,-553 0,-305 -250,-552 -552,-552 -306,0 -556,247 -556,552 0,306 250,553 556,553zm82 2613c59,-75 1470,-1806 1466,-2942 -4,-917 -698,-1662 -1548,-1662 -854,0 -1547,745 -1547,1662 0,1136 1398,2867 1457,2942l86 106 86 -106zm1242 -2942c4,901 -1022,2295 -1328,2691 -305,-396 -1324,-1790 -1324,-2691 0,-796 595,-1438 1328,-1438 725,0 1320,642 1324,1438zm-995 -224c0,184 -149,333 -329,333 -184,0 -333,-149 -333,-333 0,-184 149,-333 333,-333 180,0 329,149 329,333zm-2688 -1442c630,-630 1469,-976 2359,-976 890,0 1729,346 2359,976 630,630 976,1469 976,2359 0,890 -346,1729 -976,2359 -630,626 -1469,976 -2359,976 -890,0 -1729,-350 -2359,-976 -626,-630 -972,-1469 -972,-2359 0,-890 346,-1729 972,-2359z"/>
  </g>
 </g>
</svg>
