<?xml version="1.0" encoding="UTF-8"?>
<!DOCTYPE svg PUBLIC "-//W3C//DTD SVG 1.1//EN" "http://www.w3.org/Graphics/SVG/1.1/DTD/svg11.dtd">
<!-- Creator: CorelDRAW X7 -->
<svg xmlns="http://www.w3.org/2000/svg" xml:space="preserve" width="1.02362in" height="1.02362in" version="1.1" style="shape-rendering:geometricPrecision; text-rendering:geometricPrecision; image-rendering:optimizeQuality; fill-rule:evenodd; clip-rule:evenodd"
viewBox="0 0 10236 10236"
 xmlns:xlink="http://www.w3.org/1999/xlink">
 <defs>
  <style type="text/css">
   <![CDATA[
    .fil0 {fill:none}
    .fil1 {fill:black}
   ]]>
  </style>
 </defs>
 <g id="Layer_x0020_1">
  <metadata id="CorelCorpID_0Corel-Layer"/>
  <g id="_2069420123056">
   <rect class="fil0" width="10236" height="10236"/>
   <path class="fil1" d="M6757 3952l-938 -944 -2334 0 -6 4220 3278 0 0 -3276zm875 -1348c672,671 1041,1564 1041,2514 1,950 -369,1843 -1040,2514 -672,672 -1565,1041 -2515,1041 -950,0 -1843,-369 -2514,-1041 -672,-671 -1041,-1564 -1041,-2514 0,-950 369,-1843 1041,-2514 671,-672 1564,-1042 2514,-1041 950,0 1843,369 2514,1041zm-5847 2514c0,890 347,1727 976,2357 630,629 1467,976 2357,976 891,0 1728,-346 2357,-976 630,-630 976,-1466 976,-2357 0,-890 -346,-1728 -976,-2357 -629,-630 -1467,-976 -2357,-976 -890,0 -1727,346 -2357,976 -629,630 -976,1467 -976,2357zm3812 -1888l0 944 938 0 0 2832 -2834 0 6 -3776 1890 0zm852 722l-630 0 0 -630 630 630z"/>
  </g>
 </g>
</svg>
