<?xml version="1.0" encoding="UTF-8"?>
<!DOCTYPE svg PUBLIC "-//W3C//DTD SVG 1.1//EN" "http://www.w3.org/Graphics/SVG/1.1/DTD/svg11.dtd">
<!-- Creator: CorelDRAW X7 -->
<svg xmlns="http://www.w3.org/2000/svg" xml:space="preserve" width="100%" height="100%" version="1.1" style="shape-rendering:geometricPrecision; text-rendering:geometricPrecision; image-rendering:optimizeQuality; fill-rule:evenodd; clip-rule:evenodd"
viewBox="0 0 26000 26000"
 xmlns:xlink="http://www.w3.org/1999/xlink">
 <defs>
  <style type="text/css">
   <![CDATA[
    .fil0 {fill:none}
    .fil3 {fill:blue}
    .fil2 {fill:red}
    .fil1 {fill:white}
   ]]>
  </style>
 </defs>
 <g id="Layer_x0020_1">
  <metadata id="CorelCorpID_0Corel-Layer"/>
  <g id="_1928481149456">
   <rect class="fil0" width="26000" height="26000"/>
   <g>
    <path class="fil1" d="M7013 18986c-1599,-1599 -2479,-3724 -2478,-5985 0,-2263 879,-4387 2479,-5988 1599,-1599 3725,-2478 5987,-2478 2261,-1 4386,878 5985,2477 1600,1601 2479,3725 2479,5988 0,2262 -879,4387 -2478,5986 -1601,1600 -3725,2479 -5987,2479 -2263,0 -4387,-879 -5987,-2479zm5986 -1475c-1214,0 -2332,-462 -3190,-1321 -858,-857 -1320,-1976 -1320,-3189 0,-1214 462,-2333 1321,-3191 858,-859 1978,-1321 3191,-1321 1213,0 2332,462 3189,1320 859,858 1321,1976 1321,3190 0,1214 -463,2333 -1321,3191 -858,859 -1976,1321 -3191,1321zm5077 -4512c0,-1363 -522,-2625 -1486,-3590 -964,-963 -2226,-1485 -3589,-1485 -1363,0 -2626,522 -3591,1486 -964,965 -1486,2227 -1486,3591 0,1363 522,2625 1485,3589 965,964 2227,1486 3590,1486 1364,0 2626,-522 3591,-1486 964,-964 1486,-2227 1486,-3591zm3954 1c0,-2413 -938,-4681 -2644,-6387 -1705,-1705 -3974,-2644 -6385,-2643 -2413,0 -4681,939 -6387,2644 -1706,1706 -2644,3974 -2644,6387 -1,2411 938,4680 2643,6385 1706,1706 3974,2644 6387,2644 2412,0 4680,-938 6386,-2644 1705,-1706 2644,-3974 2644,-6386z"/>
    <path class="fil2" d="M16190 9809c-857,-858 -1976,-1320 -3188,-1320 -1214,0 -2334,462 -3192,1321 -859,858 -1321,1977 -1321,3191 0,1213 463,2332 1320,3189 858,859 1977,1321 3191,1321 1214,0 2332,-462 3190,-1321 859,-858 1321,-1977 1321,-3191 0,-1214 -462,-2332 -1321,-3190z"/>
    <path class="fil3" d="M9409 16590c-963,-964 -1485,-2226 -1485,-3589 0,-1364 522,-2626 1487,-3591 964,-964 2227,-1486 3590,-1486 1363,0 2625,522 3589,1485 964,965 1486,2227 1486,3590 0,1364 -522,2627 -1486,3591 -965,964 -2227,1486 -3590,1486 -1364,0 -2626,-522 -3591,-1486zm9577 -9578c-1599,-1599 -3724,-2478 -5985,-2477 -2262,0 -4387,879 -5987,2478 -1600,1601 -2479,3725 -2479,5988 -1,2261 879,4386 2478,5985 1600,1600 3724,2479 5987,2479 2262,0 4387,-879 5987,-2479 1599,-1599 2479,-3724 2479,-5986 0,-2263 -880,-4387 -2480,-5988z"/>
   </g>
  </g>
 </g>
</svg>
