<?xml version="1.0" encoding="UTF-8"?>
<!DOCTYPE svg PUBLIC "-//W3C//DTD SVG 1.1//EN" "http://www.w3.org/Graphics/SVG/1.1/DTD/svg11.dtd">
<!-- Creator: CorelDRAW X7 -->
<svg xmlns="http://www.w3.org/2000/svg" xml:space="preserve" width="100%" height="100%" version="1.1" style="shape-rendering:geometricPrecision; text-rendering:geometricPrecision; image-rendering:optimizeQuality; fill-rule:evenodd; clip-rule:evenodd"
viewBox="0 0 26000 26000"
 xmlns:xlink="http://www.w3.org/1999/xlink">
 <defs>
  <style type="text/css">
   <![CDATA[
    .fil0 {fill:none}
    .fil1 {fill:white}
   ]]>
  </style>
 </defs>
 <g id="Layer_x0020_1">
  <metadata id="CorelCorpID_0Corel-Layer"/>
  <g id="_1930574337168">
   <rect class="fil0" width="26000" height="26000"/>
   <path class="fil1" d="M13000 22031c2410,0 4681,-940 6391,-2650 1700,-1700 2640,-3971 2640,-6381 0,-2410 -940,-4681 -2640,-6391 -1710,-1700 -3981,-2640 -6391,-2640 -2410,0 -4681,940 -6381,2640 -1710,1710 -2650,3981 -2650,6391 0,2410 940,4681 2650,6381 1700,1710 3971,2650 6381,2650zm0 -9957c766,0 1403,-626 1403,-1403 0,-776 -637,-1403 -1403,-1403 -776,0 -1413,627 -1413,1403 0,777 637,1403 1413,1403zm209 6638c149,-189 3732,-4588 3722,-7473 -10,-2329 -1772,-4220 -3931,-4220 -2169,0 -3931,1891 -3931,4220 0,2885 3553,7284 3702,7473l219 269 219 -269zm3155 -7473c9,2288 -2598,5831 -3374,6836 -776,-1005 -3364,-4548 -3364,-6836 0,-2021 1513,-3653 3374,-3653 1841,0 3354,1632 3364,3653zm-2528 -568c0,468 -378,846 -836,846 -468,0 -846,-378 -846,-846 0,-467 378,-845 846,-845 458,0 836,378 836,845zm-6827 -3662c1600,-1600 3731,-2480 5991,-2480 2260,0 4391,880 5991,2480 1600,1600 2480,3731 2480,5991 0,2260 -880,4391 -2480,5991 -1600,1590 -3731,2480 -5991,2480 -2260,0 -4391,-890 -5991,-2480 -1590,-1600 -2470,-3731 -2470,-5991 0,-2260 880,-4391 2470,-5991z"/>
  </g>
 </g>
</svg>
