<?xml version="1.0" encoding="UTF-8"?>
<!DOCTYPE svg PUBLIC "-//W3C//DTD SVG 1.1//EN" "http://www.w3.org/Graphics/SVG/1.1/DTD/svg11.dtd">
<!-- Creator: CorelDRAW X7 -->
<svg xmlns="http://www.w3.org/2000/svg" xml:space="preserve" width="100%" height="100%" version="1.1" style="shape-rendering:geometricPrecision; text-rendering:geometricPrecision; image-rendering:optimizeQuality; fill-rule:evenodd; clip-rule:evenodd"
viewBox="0 0 26000 26000"
 xmlns:xlink="http://www.w3.org/1999/xlink">
 <defs>
  <style type="text/css">
   <![CDATA[
    .fil0 {fill:none}
    .fil1 {fill:white}
   ]]>
  </style>
 </defs>
 <g id="Layer_x0020_1">
  <metadata id="CorelCorpID_0Corel-Layer"/>
  <g id="_1930564551232">
   <rect class="fil0" width="26000" height="26000"/>
   <path class="fil1" d="M19386 6614c-1705,-1705 -3974,-2644 -6386,-2644 -2412,-1 -4681,938 -6386,2643 -1706,1706 -2644,3974 -2644,6387 0,2412 939,4680 2644,6386 1706,1706 3974,2644 6387,2644 2412,0 4680,-938 6386,-2644 1705,-1705 2644,-3974 2643,-6385 0,-2413 -938,-4681 -2644,-6387zm-3539 8832l-1875 -1875c100,-168 157,-365 157,-575 0,-525 -361,-963 -846,-1088l0 -4558 -565 0 0 4558c-485,125 -846,563 -846,1088 0,623 506,1129 1129,1129 208,0 402,-57 570,-155l1876 1876 400 -400zm-2281 -2450c0,312 -254,565 -565,565 -312,0 -564,-253 -564,-565 0,-311 252,-565 564,-565 311,0 565,254 565,565zm-284 -8457l0 1687 -562 0 0 -1687c-2157,69 -4174,941 -5706,2473 -1533,1533 -2406,3551 -2475,5708l1687 0 0 562 -1687 0c70,2155 942,4172 2475,5704 1533,1533 3550,2406 5706,2476l0 -1688 562 0 0 1688c2156,-71 4173,-943 5705,-2476 1533,-1533 2405,-3549 2475,-5706l-1688 0 0 -562 1688 0c-70,-2156 -942,-4173 -2475,-5706 -1532,-1532 -3550,-2404 -5705,-2473z"/>
  </g>
 </g>
</svg>
