<?xml version="1.0" encoding="UTF-8"?>
<!DOCTYPE svg PUBLIC "-//W3C//DTD SVG 1.1//EN" "http://www.w3.org/Graphics/SVG/1.1/DTD/svg11.dtd">
<!-- Creator: CorelDRAW X7 -->
<svg xmlns="http://www.w3.org/2000/svg" xml:space="preserve" width="100%" height="100%" version="1.1" style="shape-rendering:geometricPrecision; text-rendering:geometricPrecision; image-rendering:optimizeQuality; fill-rule:evenodd; clip-rule:evenodd"
viewBox="0 0 26000 26000"
 xmlns:xlink="http://www.w3.org/1999/xlink">
 <defs>
  <style type="text/css">
   <![CDATA[
    .fil0 {fill:none}
    .fil1 {fill:white}
   ]]>
  </style>
 </defs>
 <g id="Layer_x0020_1">
  <metadata id="CorelCorpID_0Corel-Layer"/>
  <g id="_1928485594560">
   <rect class="fil0" width="26000" height="26000"/>
   <path class="fil1" d="M6614 6614c1706,-1705 3974,-2644 6387,-2644 2411,-1 4680,938 6385,2643 1706,1706 2644,3974 2644,6387 0,2412 -939,4680 -2644,6386 -1706,1706 -3974,2644 -6386,2644 -2413,0 -4681,-938 -6387,-2644 -1705,-1705 -2644,-3974 -2643,-6385 0,-2413 938,-4681 2644,-6387zm1590 3683c0,-489 400,-889 890,-889l7813 0c489,0 889,400 889,889l0 5406c0,489 -400,889 -889,889l-7813 0c-490,0 -890,-400 -890,-889l0 -5406zm5466 1469c437,237 738,700 738,1234 0,126 -17,248 -48,364 -69,255 -208,480 -394,656 -252,238 -592,383 -961,383 -776,0 -1413,-627 -1413,-1403 0,-747 590,-1356 1327,-1401l86 -2c239,0 466,61 665,169zm-665 -734c-152,0 -300,17 -443,50 -876,200 -1535,981 -1535,1918 0,1089 891,1968 1978,1968 404,0 781,-123 1094,-334 184,-124 347,-278 480,-456 247,-329 394,-737 394,-1178 0,-1009 -767,-1845 -1747,-1956 -73,-8 -146,-12 -221,-12zm4072 -480c0,-234 -189,-423 -423,-423 -229,0 -418,189 -418,423 0,233 189,423 418,423 234,0 423,-190 423,-423zm-4918 2448c0,468 378,846 846,846 458,0 836,-378 836,-846 0,-468 -378,-846 -836,-846 -468,0 -846,378 -846,846zm4748 -4157l-7813 0c-800,0 -1455,654 -1455,1454l0 5406c0,800 655,1454 1455,1454l7813 0c799,0 1454,-654 1454,-1454l0 -5406c0,-800 -655,-1454 -1454,-1454zm-3907 12624c2261,-1 4387,-882 5986,-2481 1599,-1599 2480,-3725 2480,-5985 0,-2263 -880,-4389 -2480,-5989 -1599,-1599 -3724,-2478 -5986,-2478 -2261,0 -4388,879 -5987,2478 -1599,1600 -2479,3727 -2480,5989 1,2261 881,4386 2480,5985 1599,1599 3725,2480 5987,2481z"/>
  </g>
 </g>
</svg>
