<?xml version="1.0" encoding="UTF-8"?>
<!DOCTYPE svg PUBLIC "-//W3C//DTD SVG 1.1//EN" "http://www.w3.org/Graphics/SVG/1.1/DTD/svg11.dtd">
<!-- Creator: CorelDRAW X7 -->
<svg xmlns="http://www.w3.org/2000/svg" xml:space="preserve" width="100%" height="100%" version="1.1" style="shape-rendering:geometricPrecision; text-rendering:geometricPrecision; image-rendering:optimizeQuality; fill-rule:evenodd; clip-rule:evenodd"
viewBox="0 0 26000 26000"
 xmlns:xlink="http://www.w3.org/1999/xlink">
 <defs>
  <style type="text/css">
   <![CDATA[
    .fil0 {fill:none}
    .fil1 {fill:white}
   ]]>
  </style>
 </defs>
 <g id="Layer_x0020_1">
  <metadata id="CorelCorpID_0Corel-Layer"/>
  <g id="_1928479817168">
   <rect class="fil0" width="26000" height="26000"/>
   <path class="fil1" d="M15991 15973l-941 -4081 1726 -1726c261,-261 261,-681 0,-942 -260,-260 -681,-260 -942,0l-1726 1726 -4081 -941 -627 628 3295 1726 -2097 2097 -1098 -157 -471 471 1412 785 785 1412 471 -470 -157 -1099 2097 -2097 1726 3296 628 -628zm3395 -9359c-1705,-1705 -3974,-2644 -6386,-2644 -2412,-1 -4681,938 -6386,2643 -1706,1706 -2644,3974 -2644,6387 0,2412 939,4681 2644,6386 1706,1706 3974,2644 6387,2644 2412,0 4680,-938 6386,-2644 1705,-1705 2644,-3974 2643,-6385 0,-2413 -938,-4681 -2644,-6387zm-6385 14853c-2262,-1 -4388,-882 -5987,-2481 -1599,-1599 -2480,-3725 -2480,-5985 0,-2263 880,-4389 2480,-5988 1599,-1599 3724,-2479 5987,-2479 2260,0 4387,880 5986,2479 1600,1599 2479,3726 2480,5988 -1,2261 -881,4386 -2480,5985 -1599,1599 -3725,2480 -5986,2481z"/>
  </g>
 </g>
</svg>
