<?xml version="1.0" encoding="UTF-8"?>
<!DOCTYPE svg PUBLIC "-//W3C//DTD SVG 1.1//EN" "http://www.w3.org/Graphics/SVG/1.1/DTD/svg11.dtd">
<!-- Creator: CorelDRAW X7 -->
<svg xmlns="http://www.w3.org/2000/svg" xml:space="preserve" width="100%" height="100%" version="1.1" style="shape-rendering:geometricPrecision; text-rendering:geometricPrecision; image-rendering:optimizeQuality; fill-rule:evenodd; clip-rule:evenodd"
viewBox="0 0 26000 26000"
 xmlns:xlink="http://www.w3.org/1999/xlink">
 <defs>
  <style type="text/css">
   <![CDATA[
    .fil1 {fill:none}
    .fil0 {fill:black}
   ]]>
  </style>
 </defs>
 <g id="Layer_x0020_1">
  <metadata id="CorelCorpID_0Corel-Layer"/>
  <g id="_2559315259664">
   <path class="fil0" d="M18360 17720l0 -8340 -838 0 0 -1410 -565 0 0 1410 -1130 0 0 -1410 -566 0 0 1410 -1130 0 0 -1410 -566 0 0 1410 -1130 0 0 -1410 -566 0 0 1410 -1130 0 0 -1410 -565 0 0 1410 -1131 0 0 -1410 -565 0 0 1410 -838 0 0 8340 10720 0zm1026 -11106c-1705,-1705 -3974,-2644 -6386,-2644 -2412,-1 -4681,938 -6386,2643 -1706,1706 -2644,3974 -2644,6387 0,2412 939,4680 2644,6386 1706,1706 3974,2644 6387,2644 2412,0 4680,-938 6386,-2644 1705,-1705 2644,-3974 2643,-6385 0,-2413 -938,-4681 -2644,-6387zm-6385 14853c-2262,-1 -4388,-882 -5987,-2481 -1599,-1599 -2480,-3725 -2480,-5985 0,-2263 880,-4389 2480,-5989 1599,-1599 3724,-2478 5987,-2478 2260,0 4387,879 5986,2478 1600,1600 2479,3727 2480,5989 -1,2261 -881,4386 -2480,5985 -1599,1599 -3725,2480 -5986,2481zm4057 -7106l-1585 1587 -936 -937 399 -397 334 335 203 203 371 -371 815 -816 399 396zm-6056 -3209l-1599 0 0 1598 1599 0 0 -1598zm3996 0l1599 0 0 1598 -1599 0 0 -1598zm-1199 0l-1598 0 0 1598 1598 0 0 -1598zm0 3197l-1598 0 0 1599 1598 0 0 -1599zm-2797 0l-1599 0 0 1599 1599 0 0 -1599zm6794 2807l-9592 0 0 -7213 9592 0 0 7213z"/>
   <rect class="fil1" width="26000" height="26000"/>
  </g>
 </g>
</svg>
