<?xml version="1.0" encoding="UTF-8"?>
<!DOCTYPE svg PUBLIC "-//W3C//DTD SVG 1.1//EN" "http://www.w3.org/Graphics/SVG/1.1/DTD/svg11.dtd">
<!-- Creator: CorelDRAW X7 -->
<svg xmlns="http://www.w3.org/2000/svg" xml:space="preserve" width="0.763937in" height="0.763937in" version="1.1" style="shape-rendering:geometricPrecision; text-rendering:geometricPrecision; image-rendering:optimizeQuality; fill-rule:evenodd; clip-rule:evenodd"
viewBox="0 0 7639 7639"
 xmlns:xlink="http://www.w3.org/1999/xlink">
 <defs>
  <style type="text/css">
   <![CDATA[
    .fil0 {fill:black}
   ]]>
  </style>
 </defs>
 <g id="Layer_x0020_1">
  <metadata id="CorelCorpID_0Corel-Layer"/>
  <path class="fil0" d="M3820 7639c1019,0 1979,-397 2703,-1121 719,-719 1116,-1679 1116,-2698 0,-1020 -397,-1979 -1116,-2703 -724,-720 -1684,-1117 -2703,-1117 -1020,0 -1979,397 -2699,1117 -724,724 -1121,1683 -1121,2703 0,1019 397,1979 1121,2698 720,724 1679,1121 2699,1121zm0 -4212c325,0 591,-263 591,-593 0,-325 -266,-592 -591,-592 -330,0 -596,267 -596,592 0,330 266,593 596,593zm88 2808c65,-80 1579,-1942 1574,-3160 -4,-986 -749,-1785 -1662,-1785 -918,0 -1663,799 -1663,1785 0,1218 1502,3080 1566,3160l92 114 93 -114 0 0 0 0zm1333 -3160c4,968 -1096,2466 -1426,2893 -329,-427 -1421,-1925 -1421,-2893 0,-855 639,-1543 1426,-1543 778,0 1417,688 1421,1543zm-1067 -241c0,199 -160,360 -354,360 -199,0 -359,-161 -359,-360 0,-199 160,-355 359,-355 194,0 354,156 354,355zm-2888 -1548c677,-677 1577,-1049 2534,-1049 956,0 1857,372 2533,1049 677,677 1050,1577 1050,2534 0,956 -373,1857 -1050,2533 -676,673 -1577,1050 -2533,1050 -957,0 -1857,-377 -2534,-1050 -672,-676 -1045,-1577 -1045,-2533 0,-957 372,-1857 1045,-2534z"/>
 </g>
</svg>
