<?xml version="1.0" encoding="UTF-8"?>
<!DOCTYPE svg PUBLIC "-//W3C//DTD SVG 1.1//EN" "http://www.w3.org/Graphics/SVG/1.1/DTD/svg11.dtd">
<!-- Creator: CorelDRAW X7 -->
<svg xmlns="http://www.w3.org/2000/svg" xml:space="preserve" width="0.347008in" height="0.347008in" version="1.1" style="shape-rendering:geometricPrecision; text-rendering:geometricPrecision; image-rendering:optimizeQuality; fill-rule:evenodd; clip-rule:evenodd"
viewBox="0 0 3470 3470"
 xmlns:xlink="http://www.w3.org/1999/xlink">
 <defs>
  <style type="text/css">
   <![CDATA[
    .fil0 {fill:white}
   ]]>
  </style>
 </defs>
 <g id="Layer_x0020_1">
  <metadata id="CorelCorpID_0Corel-Layer"/>
  <path class="fil0" d="M508 507c-327,328 -508,764 -508,1228 0,463 181,899 508,1228 328,326 764,507 1227,507 463,0 899,-181 1227,-507 327,-329 508,-765 508,-1228 0,-464 -181,-900 -508,-1228 -328,-327 -764,-507 -1227,-507 -463,0 -899,180 -1227,507zm1866 675l-916 917 -362 -361 -94 94 456 456 1010 -1013 -94 -93 0 0zm988 553c0,434 -169,844 -476,1151 -308,307 -717,476 -1151,476 -434,0 -843,-169 -1151,-476 -307,-307 -476,-717 -476,-1151 0,-435 169,-844 476,-1151 308,-308 717,-477 1151,-477 434,0 843,169 1151,477 307,307 476,716 476,1151z"/>
 </g>
</svg>
