<?xml version="1.0" encoding="UTF-8"?>
<!DOCTYPE svg PUBLIC "-//W3C//DTD SVG 1.1//EN" "http://www.w3.org/Graphics/SVG/1.1/DTD/svg11.dtd">
<!-- Creator: CorelDRAW X7 -->
<svg xmlns="http://www.w3.org/2000/svg" xml:space="preserve" width="0.763819in" height="0.763937in" version="1.1" style="shape-rendering:geometricPrecision; text-rendering:geometricPrecision; image-rendering:optimizeQuality; fill-rule:evenodd; clip-rule:evenodd"
viewBox="0 0 7638 7639"
 xmlns:xlink="http://www.w3.org/1999/xlink">
 <defs>
  <style type="text/css">
   <![CDATA[
    .fil0 {fill:#AD915C}
   ]]>
  </style>
 </defs>
 <g id="Layer_x0020_1">
  <metadata id="CorelCorpID_0Corel-Layer"/>
  <path class="fil0" d="M6520 1118c-721,-721 -1680,-1118 -2701,-1118 -1020,-1 -1980,396 -2700,1118 -722,722 -1119,1681 -1119,2701 0,1022 398,1981 1119,2702 721,722 1680,1118 2700,1118 1021,0 1980,-396 2702,-1118 721,-721 1118,-1680 1117,-2702 0,-1020 -396,-1978 -1118,-2701zm-2599 701l696 1132 1291 312 189 46 -126 147 -862 1011 103 1327 15 193 -179 -74 -1229 -507 -1229 507 -179 74 15 -193 103 -1327 -862 -1011 -125 -147 188 -46 1292 -312 696 -1132 101 -166 102 166zm518 1299l-620 -1009 -620 1009 -25 41 -48 12 -1152 278 768 901 32 38 -3 49 -92 1182 1095 -452 45 -19 45 19 1095 452 -91 -1182 -4 -49 32 -38 768 -901 -1151 -278 -48 -12 -26 -41zm-620 4284c-956,-1 -1855,-374 -2532,-1050 -675,-676 -1048,-1575 -1048,-2533 0,-956 373,-1856 1048,-2532 677,-677 1576,-1049 2532,-1049 956,0 1856,372 2532,1049 677,676 1048,1576 1050,2532 -2,959 -373,1857 -1050,2533 -676,676 -1575,1049 -2532,1050z"/>
 </g>
</svg>
