<?xml version="1.0" encoding="UTF-8"?>
<!DOCTYPE svg PUBLIC "-//W3C//DTD SVG 1.1//EN" "http://www.w3.org/Graphics/SVG/1.1/DTD/svg11.dtd">
<!-- Creator: CorelDRAW X7 -->
<svg xmlns="http://www.w3.org/2000/svg" xml:space="preserve" width="0.763937in" height="0.763937in" version="1.1" style="shape-rendering:geometricPrecision; text-rendering:geometricPrecision; image-rendering:optimizeQuality; fill-rule:evenodd; clip-rule:evenodd"
viewBox="0 0 7639 7639"
 xmlns:xlink="http://www.w3.org/1999/xlink">
 <defs>
  <style type="text/css">
   <![CDATA[
    .fil0 {fill:none}
    .fil1 {fill:#AD915C}
   ]]>
  </style>
 </defs>
 <g id="Layer_x0020_1">
  <metadata id="CorelCorpID_0Corel-Layer"/>
  <g id="_1307419440832">
   <rect class="fil0" width="7639" height="7639"/>
   <path class="fil1" d="M3922 1819l696 1132 1291 312 189 46 -126 147 -862 1011 103 1327 15 193 -179 -74 -1229 -507 -1229 507 -179 74 15 -193 103 -1327 -862 -1011 -125 -147 188 -46 1292 -312 696 -1132 101 -166 102 166zm518 1299l-620 -1009 -620 1009 -25 41 -48 12 -1152 278 768 901 32 38 -3 49 -92 1182 1095 -452 45 -19 45 19 1095 452 -91 -1182 -4 -49 32 -38 768 -901 -1151 -278 -48 -12 -26 -41z"/>
  </g>
 </g>
</svg>
