<?xml version="1.0" encoding="UTF-8"?>
<!DOCTYPE svg PUBLIC "-//W3C//DTD SVG 1.1//EN" "http://www.w3.org/Graphics/SVG/1.1/DTD/svg11.dtd">
<!-- Creator: CorelDRAW X7 -->
<svg xmlns="http://www.w3.org/2000/svg" xml:space="preserve" width="0.347008in" height="0.347008in" version="1.1" style="shape-rendering:geometricPrecision; text-rendering:geometricPrecision; image-rendering:optimizeQuality; fill-rule:evenodd; clip-rule:evenodd"
viewBox="0 0 3470 3470"
 xmlns:xlink="http://www.w3.org/1999/xlink">
 <defs>
  <style type="text/css">
   <![CDATA[
    .fil0 {fill:#AD915C}
   ]]>
  </style>
 </defs>
 <g id="Layer_x0020_1">
  <metadata id="CorelCorpID_0Corel-Layer"/>
  <path class="fil0" d="M1735 3470c463,0 899,-180 1227,-508 328,-328 508,-764 508,-1227 0,-463 -180,-899 -508,-1227 -328,-327 -764,-508 -1227,-508 -464,0 -899,181 -1227,508 -328,328 -508,764 -508,1227 0,463 180,899 508,1227 328,328 763,508 1227,508zm54 -2277l0 -434 -108 0 0 434 108 0zm0 325l-108 0 0 1193 108 0 0 -1193zm-1204 -933c307,-307 716,-476 1150,-476 434,0 843,169 1150,476 307,307 476,716 476,1150 0,435 -169,843 -476,1150 -307,307 -716,477 -1150,477 -434,0 -843,-170 -1150,-477 -307,-307 -476,-715 -476,-1150 0,-434 169,-843 476,-1150z"/>
 </g>
</svg>
