<?xml version="1.0" encoding="UTF-8"?>
<!DOCTYPE svg PUBLIC "-//W3C//DTD SVG 1.1//EN" "http://www.w3.org/Graphics/SVG/1.1/DTD/svg11.dtd">
<!-- Creator: CorelDRAW X7 -->
<svg xmlns="http://www.w3.org/2000/svg" xml:space="preserve" width="0.763819in" height="0.763937in" version="1.1" style="shape-rendering:geometricPrecision; text-rendering:geometricPrecision; image-rendering:optimizeQuality; fill-rule:evenodd; clip-rule:evenodd"
viewBox="0 0 7638 7639"
 xmlns:xlink="http://www.w3.org/1999/xlink">
 <defs>
  <style type="text/css">
   <![CDATA[
    .fil0 {fill:#D2AE6D}
   ]]>
  </style>
 </defs>
 <g id="Layer_x0020_1">
  <metadata id="CorelCorpID_0Corel-Layer"/>
  <path class="fil0" d="M1690 4949l0 0zm4830 -3831c-721,-721 -1680,-1118 -2701,-1118 -1021,-1 -1980,396 -2701,1118 -722,721 -1118,1681 -1118,2702 0,1020 397,1979 1118,2700 722,722 1680,1119 2701,1119 1021,0 1980,-397 2702,-1119 721,-721 1118,-1680 1117,-2700 0,-1021 -396,-1980 -1118,-2702zm-2701 6283c-957,-1 -1856,-374 -2533,-1049 -675,-677 -1048,-1576 -1048,-2532 0,-956 373,-1858 1048,-2533 677,-677 1576,-1049 2533,-1049 956,0 1857,372 2532,1049 677,675 1049,1577 1050,2533 -1,957 -373,1855 -1050,2532 -675,675 -1574,1048 -2532,1049zm2128 -2452l0 0zm-2128 -2525c654,0 991,462 1080,1056 665,-203 1315,97 1315,826 0,502 -406,908 -909,908l-2972 0c-502,0 -908,-406 -908,-908 0,-729 649,-1029 1314,-826 89,-594 427,-1056 1080,-1056l0 0zm1486 3028c154,0 302,-31 438,-87 141,-58 268,-144 373,-249 105,-105 190,-232 248,-372 106,-255 114,-545 35,-808 -77,-250 -227,-440 -425,-569 -192,-124 -425,-188 -674,-188 -71,0 -143,6 -217,17 -171,-613 -609,-1010 -1264,-1010 -655,0 -1093,397 -1263,1010 -74,-11 -147,-17 -218,-17 -248,0 -482,64 -673,188 -199,129 -349,319 -426,569 -79,263 -71,553 35,808 58,140 142,267 248,372 105,105 232,191 373,249 136,56 284,87 438,87l2972 0 0 0z"/>
 </g>
</svg>
