<?xml version="1.0" encoding="UTF-8"?>
<!DOCTYPE svg PUBLIC "-//W3C//DTD SVG 1.1//EN" "http://www.w3.org/Graphics/SVG/1.1/DTD/svg11.dtd">
<!-- Creator: CorelDRAW X7 -->
<svg xmlns="http://www.w3.org/2000/svg" xml:space="preserve" width="0.763937in" height="0.763937in" version="1.1" style="shape-rendering:geometricPrecision; text-rendering:geometricPrecision; image-rendering:optimizeQuality; fill-rule:evenodd; clip-rule:evenodd"
viewBox="0 0 7639 7639"
 xmlns:xlink="http://www.w3.org/1999/xlink">
 <defs>
  <style type="text/css">
   <![CDATA[
    .fil0 {fill:none}
    .fil1 {fill:white}
   ]]>
  </style>
 </defs>
 <g id="Layer_x0020_1">
  <metadata id="CorelCorpID_0Corel-Layer"/>
  <g id="_1307419477920">
   <rect class="fil0" width="7639" height="7639"/>
   <path class="fil1" d="M1691 4949l0 0zm4256 0l0 0zm-2128 -2525c654,0 991,462 1080,1056 665,-203 1316,97 1316,826 0,502 -407,908 -910,908l-2971 0c-502,0 -908,-406 -908,-908 0,-729 649,-1029 1314,-826 89,-594 427,-1056 1079,-1056l0 0zm1486 3028c154,0 302,-31 438,-87 141,-58 268,-144 373,-249 106,-105 191,-232 249,-372 106,-255 114,-545 35,-808 -77,-250 -228,-440 -426,-569 -192,-124 -425,-188 -674,-188 -71,0 -143,6 -217,17 -171,-613 -609,-1010 -1264,-1010 -654,0 -1092,397 -1262,1010 -74,-11 -147,-17 -218,-17 -248,0 -482,64 -673,188 -199,129 -349,319 -426,569 -79,263 -71,553 35,808 58,140 142,267 248,372 105,105 232,191 373,249 136,56 284,87 438,87l2971 0 0 0z"/>
  </g>
 </g>
</svg>
