<?xml version="1.0" encoding="UTF-8"?>
<!DOCTYPE svg PUBLIC "-//W3C//DTD SVG 1.1//EN" "http://www.w3.org/Graphics/SVG/1.1/DTD/svg11.dtd">
<!-- Creator: CorelDRAW X7 -->
<svg xmlns="http://www.w3.org/2000/svg" xml:space="preserve" width="0.763819in" height="0.763937in" version="1.1" style="shape-rendering:geometricPrecision; text-rendering:geometricPrecision; image-rendering:optimizeQuality; fill-rule:evenodd; clip-rule:evenodd"
viewBox="0 0 7638 7639"
 xmlns:xlink="http://www.w3.org/1999/xlink">
 <defs>
  <style type="text/css">
   <![CDATA[
    .fil0 {fill:#8480BC}
   ]]>
  </style>
 </defs>
 <g id="Layer_x0020_1">
  <metadata id="CorelCorpID_0Corel-Layer"/>
  <path class="fil0" d="M1861 3916l0 0 0 -193 0 0 0 -22 3460 0 -1298 -1299 169 -170 1587 1588 -1587 1587 -169 -169 1298 -1300 -3460 0 0 -22zm-1861 -96c0,-1022 396,-1982 1118,-2703 722,-721 1680,-1119 2702,-1117 1020,0 1978,396 2700,1118 722,720 1118,1680 1118,2702 0,1020 -396,1980 -1118,2700 -722,722 -1680,1119 -2700,1119 -1022,1 -1980,-397 -2702,-1118 -722,-721 -1118,-1681 -1118,-2701zm7400 0c0,-958 -372,-1857 -1048,-2534 -677,-676 -1575,-1048 -2532,-1048 -959,0 -1857,372 -2533,1048 -677,677 -1049,1576 -1049,2534 0,957 372,1855 1049,2532 676,676 1574,1049 2533,1049 957,0 1855,-373 2532,-1049 676,-677 1048,-1575 1048,-2532z"/>
 </g>
</svg>
