<?xml version="1.0" encoding="UTF-8"?>
<!DOCTYPE svg PUBLIC "-//W3C//DTD SVG 1.1//EN" "http://www.w3.org/Graphics/SVG/1.1/DTD/svg11.dtd">
<!-- Creator: CorelDRAW X7 -->
<svg xmlns="http://www.w3.org/2000/svg" xml:space="preserve" width="0.763937in" height="0.763937in" version="1.1" style="shape-rendering:geometricPrecision; text-rendering:geometricPrecision; image-rendering:optimizeQuality; fill-rule:evenodd; clip-rule:evenodd"
viewBox="0 0 764 764"
 xmlns:xlink="http://www.w3.org/1999/xlink">
 <defs>
  <style type="text/css">
   <![CDATA[
    .fil0 {fill:none}
    .fil1 {fill:#D2AE6D}
   ]]>
  </style>
 </defs>
 <g id="Layer_x0020_1">
  <metadata id="CorelCorpID_0Corel-Layer"/>
  <g id="_1970698735504">
   <rect class="fil0" width="764" height="764"/>
   <path class="fil1" d="M593 277l-316 316 -106 -106 83 -82 67 67 151 -151 -67 -67 82 -83 53 53 53 53zm-154 -23l17 17 48 -49 -17 -17 -48 49zm-234 233l17 17 49 -48 -17 -17 -49 48zm421 -211l-350 350 -138 -139 116 -116 67 68 118 -118 -68 -67 116 -116c47,46 93,92 139,138z"/>
  </g>
 </g>
</svg>
