<?xml version="1.0" encoding="UTF-8"?>
<!DOCTYPE svg PUBLIC "-//W3C//DTD SVG 1.1//EN" "http://www.w3.org/Graphics/SVG/1.1/DTD/svg11.dtd">
<!-- Creator: CorelDRAW X7 -->
<svg xmlns="http://www.w3.org/2000/svg" xml:space="preserve" width="0.653543in" height="0.653543in" version="1.1" style="shape-rendering:geometricPrecision; text-rendering:geometricPrecision; image-rendering:optimizeQuality; fill-rule:evenodd; clip-rule:evenodd"
viewBox="0 0 654 654"
 xmlns:xlink="http://www.w3.org/1999/xlink">
 <defs>
  <style type="text/css">
   <![CDATA[
    .fil0 {fill:none}
    .fil1 {fill:#7C94CA}
   ]]>
  </style>
 </defs>
 <g id="Layer_x0020_1">
  <metadata id="CorelCorpID_0Corel-Layer"/>
  <g id="_1970742456112">
   <rect class="fil0" width="654" height="654"/>
   <path class="fil1" d="M217 347l-70 70 90 90 270 -270 -90 -90 -70 70 57 58 -129 129 -58 -57zm7 36l-41 41 14 15 42 -42 -15 -14zm200 -200l-41 41 14 15 42 -42 -15 -14zm-207 135l-99 99c39,40 79,79 119,119l299 -299 -119 -119 -99 99 57 58 -100 100 -58 -57z"/>
  </g>
 </g>
</svg>
