<?xml version="1.0" encoding="UTF-8"?>
<!DOCTYPE svg PUBLIC "-//W3C//DTD SVG 1.1//EN" "http://www.w3.org/Graphics/SVG/1.1/DTD/svg11.dtd">
<!-- Creator: CorelDRAW X7 -->
<svg xmlns="http://www.w3.org/2000/svg" xml:space="preserve" width="0.347165in" height="0.347165in" version="1.1" style="shape-rendering:geometricPrecision; text-rendering:geometricPrecision; image-rendering:optimizeQuality; fill-rule:evenodd; clip-rule:evenodd"
viewBox="0 0 3472 3472"
 xmlns:xlink="http://www.w3.org/1999/xlink">
 <defs>
  <style type="text/css">
   <![CDATA[
    .fil0 {fill:#D2AE6D}
   ]]>
  </style>
 </defs>
 <g id="Layer_x0020_1">
  <metadata id="CorelCorpID_0Corel-Layer"/>
  <path class="fil0" d="M0 1735c2,956 782,1734 1736,1737 955,-3 1733,-781 1736,-1736 -3,-954 -781,-1734 -1737,-1736 -953,1 -1734,782 -1735,1735zm1114 131l-366 365 493 493 1483 -1483 -493 -493 -366 366 282 282 -751 751 -282 -281zm0 -190l-555 555c259,258 424,422 682,682l1672 -1672 -682 -682 -555 555 282 282 -562 562 -282 -282zm2249 60c-1,895 -733,1626 -1627,1627 -894,0 -1628,-734 -1628,-1627 0,-895 733,-1628 1628,-1628 893,0 1627,734 1627,1628z"/>
 </g>
</svg>
