<?xml version="1.0" encoding="UTF-8"?>
<!DOCTYPE svg PUBLIC "-//W3C//DTD SVG 1.1//EN" "http://www.w3.org/Graphics/SVG/1.1/DTD/svg11.dtd">
<!-- Creator: CorelDRAW X7 -->
<svg xmlns="http://www.w3.org/2000/svg" xml:space="preserve" width="0.763937in" height="0.763937in" version="1.1" style="shape-rendering:geometricPrecision; text-rendering:geometricPrecision; image-rendering:optimizeQuality; fill-rule:evenodd; clip-rule:evenodd"
viewBox="0 0 7639 7639"
 xmlns:xlink="http://www.w3.org/1999/xlink">
 <defs>
  <style type="text/css">
   <![CDATA[
    .fil0 {fill:none}
    .fil1 {fill:#8480BC;fill-rule:nonzero}
   ]]>
  </style>
 </defs>
 <g id="Layer_x0020_1">
  <metadata id="CorelCorpID_0Corel-Layer"/>
  <g id="_1307419435552">
   <rect class="fil0" width="7639" height="7639"/>
   <path class="fil1" d="M4786 5441c-49,-116 -520,-1163 -574,-1298l490 -1016c101,-155 295,-255 482,-262l-1 -106 -1018 -1c-2,27 0,84 -3,112 287,8 389,72 321,243 -114,258 -352,747 -399,836 -145,-304 -238,-539 -396,-868 -69,-152 82,-212 242,-216l0 -107 -1179 -4c1,51 -1,79 -1,115 164,3 378,20 462,163 113,220 489,1092 603,1325 -145,278 -498,937 -624,1184 -181,-402 -850,-1982 -1039,-2390 -71,-174 202,-275 359,-282l1 -116 -1341 0 2 118c217,-2 535,355 626,577 391,909 795,1811 1184,2720 0,2 122,4 124,1 254,-522 552,-1070 821,-1597l678 1598c1,0 113,0 114,0 430,-983 1074,-2491 1285,-2968 86,-203 229,-327 461,-334l2 -106 -2 -5 -1057 -3 -1 114c90,2 320,44 392,234l-1014 2339z"/>
  </g>
 </g>
</svg>
