<?xml version="1.0" encoding="UTF-8"?>
<!DOCTYPE svg PUBLIC "-//W3C//DTD SVG 1.1//EN" "http://www.w3.org/Graphics/SVG/1.1/DTD/svg11.dtd">
<!-- Creator: CorelDRAW X7 -->
<svg xmlns="http://www.w3.org/2000/svg" xml:space="preserve" width="0.763819in" height="0.763937in" version="1.1" style="shape-rendering:geometricPrecision; text-rendering:geometricPrecision; image-rendering:optimizeQuality; fill-rule:evenodd; clip-rule:evenodd"
viewBox="0 0 7638 7639"
 xmlns:xlink="http://www.w3.org/1999/xlink">
 <defs>
  <style type="text/css">
   <![CDATA[
    .fil0 {fill:black;fill-rule:nonzero}
   ]]>
  </style>
 </defs>
 <g id="Layer_x0020_1">
  <metadata id="CorelCorpID_0Corel-Layer"/>
  <path class="fil0" d="M3819 0c1021,0 1980,397 2701,1120 722,720 1118,1681 1118,2700 0,1020 -396,1979 -1118,2701 -721,720 -1680,1118 -2701,1118 -1021,0 -1979,-398 -2702,-1118 -720,-722 -1117,-1681 -1117,-2701 0,-1019 397,-1980 1117,-2700 723,-723 1681,-1120 2702,-1120zm967 5441c-50,-116 -521,-1163 -575,-1298l490 -1016c101,-155 295,-255 482,-262l0 -106 -1018 -1c-3,27 0,84 -4,112 287,8 390,72 321,243 -114,258 -352,747 -398,836 -146,-304 -238,-539 -397,-868 -68,-152 83,-212 242,-216l0 -107 -1179 -4c1,51 -1,79 -1,115 165,3 378,20 463,163 113,220 488,1092 602,1325 -145,278 -497,937 -623,1184 -181,-402 -851,-1982 -1039,-2390 -71,-174 201,-275 358,-282l2 -116 -1341 0 1 118c218,-2 536,355 626,577 392,909 795,1811 1185,2720 0,2 122,4 123,1 255,-522 553,-1070 821,-1597l679 1598c0,0 112,0 113,0 430,-983 1075,-2491 1285,-2968 86,-203 230,-327 462,-334l1 -106 -1 -5 -1058 -3 -1 114c90,2 320,44 392,234l-1013 2339zm-3499 910c677,677 1577,1049 2532,1049 957,0 1856,-372 2531,-1049 678,-676 1051,-1575 1051,-2531 0,-958 -373,-1855 -1051,-2532 -675,-676 -1574,-1050 -2531,-1050 -955,0 -1855,374 -2532,1050 -677,677 -1049,1574 -1049,2532 0,956 372,1855 1049,2531z"/>
 </g>
</svg>
