<?xml version="1.0" encoding="UTF-8"?>
<!DOCTYPE svg PUBLIC "-//W3C//DTD SVG 1.1//EN" "http://www.w3.org/Graphics/SVG/1.1/DTD/svg11.dtd">
<!-- Creator: CorelDRAW X7 -->
<svg xmlns="http://www.w3.org/2000/svg" xml:space="preserve" width="13.2465in" height="8.25413in" version="1.1" style="shape-rendering:geometricPrecision; text-rendering:geometricPrecision; image-rendering:optimizeQuality; fill-rule:evenodd; clip-rule:evenodd"
viewBox="0 0 132465 82541"
 xmlns:xlink="http://www.w3.org/1999/xlink">
 <defs>
  <style type="text/css">
   <![CDATA[
    .fil3 {fill:#E2CBA1}
    .fil2 {fill:#EBDCBF}
    .fil1 {fill:#F2E8D3}
    .fil0 {fill:#F9F4EB}
    .fil5 {fill:#EBDCBF;fill-rule:nonzero}
    .fil4 {fill:#EEE3CE;fill-rule:nonzero}
    .fil6 {fill:#F2E8D3;fill-rule:nonzero}
   ]]>
  </style>
 </defs>
 <g id="Layer_x0020_1">
  <metadata id="CorelCorpID_0Corel-Layer"/>
  <g id="_2188705222560">
   <g>
    <path class="fil0" d="M44777 0l-44777 0 0 66745c4508,-768 7912,-32 10964,1456 4202,2050 7863,4771 11532,7295 15088,10379 31750,10615 39547,-8313 2257,-5478 4343,-14247 9453,-18202 5892,-4561 13477,-279 18763,3276 2709,1822 7236,4837 9974,5994 3,-5169 -49937,-55000 -55456,-58251z"/>
    <path class="fil1" d="M0 40860c19743,-8778 20354,19044 39279,22157 22012,3621 23153,-32697 51119,-10651 4427,3491 9198,7326 14569,9410 16348,6343 30562,-6851 26923,-20094 -2461,-8958 -11476,-13916 -20372,-13805l-1 0c-860,31 -1736,110 -2625,241 -3865,571 -7194,377 -9976,-262 -16756,-3849 -10509,-17552 -2842,-27856l-74536 0c-2944,8067 -12069,8763 -21538,9938l0 30922z"/>
    <path class="fil2" d="M17904 0c-3888,4215 -10718,5021 -17904,5896l0 17721c14968,-128 18062,-5826 27457,10759 3864,6821 8888,12021 14597,13322 15636,3564 26036,-13062 36100,-12669 4643,181 8612,3814 11992,7735 4470,5186 9751,10571 15754,13479 9197,4456 23561,1149 26132,-9299l-56007 -28539 -31248 -18405 -26873 0z"/>
    <path class="fil3" d="M108892 28118c-3865,571 -7194,377 -9976,-262 -16756,-3849 -10509,-17552 -2842,-27856l-96074 0 0 16333c14184,1209 21871,-8578 29022,8890 4290,10474 19490,18479 33108,11954 2813,-1349 5099,-3239 7725,-4790 6313,-3728 11815,-3422 17105,1263 2298,2036 4062,4376 5834,6710 17263,22738 49496,15509 36525,-4115 -3142,-4753 -9817,-8681 -17880,-8365l-4 0c-277,11 -556,27 -836,48l-2 0c-140,10 -281,22 -421,35l-3 1c-282,26 -565,57 -850,94l-3 1c-142,18 -285,38 -428,59z"/>
   </g>
   <path class="fil4" d="M112310 19762c-1426,-48 -2570,-1220 -2579,-2671l-22 0c-10,1451 -1154,2623 -2583,2671 1432,47 2583,1229 2583,2690l19 0c0,-1461 1150,-2643 2582,-2690z"/>
   <path class="fil5" d="M11470 57387c-1862,57 -3354,1587 -3367,3475l-32 0c-13,-1888 -1498,-3418 -3360,-3475 1868,-64 3366,-1601 3366,-3507l26 0c0,1906 1498,3443 3367,3507z"/>
   <path class="fil1" d="M96645 22075c-888,-7406 11790,-15582 23443,-22075l-24014 0c-7667,10304 -13914,24007 2842,27856 2782,639 6111,833 9976,262 889,-131 1765,-210 2625,-241 -10234,127 -14456,-2325 -14872,-5802z"/>
   <path class="fil6" d="M97718 70590c-1015,31 -1828,866 -1835,1895l-18 0c-6,-1029 -816,-1864 -1832,-1895 1019,-35 1836,-872 1836,-1912l14 0c0,1040 817,1877 1835,1912z"/>
  </g>
 </g>
</svg>
