<?xml version="1.0" encoding="UTF-8"?>
<!DOCTYPE svg PUBLIC "-//W3C//DTD SVG 1.1//EN" "http://www.w3.org/Graphics/SVG/1.1/DTD/svg11.dtd">
<!-- Creator: CorelDRAW X7 -->
<svg xmlns="http://www.w3.org/2000/svg" xml:space="preserve" width="4.49268in" height="1.42236in" version="1.1" style="shape-rendering:geometricPrecision; text-rendering:geometricPrecision; image-rendering:optimizeQuality; fill-rule:evenodd; clip-rule:evenodd"
viewBox="0 0 44927 14224"
 xmlns:xlink="http://www.w3.org/1999/xlink">
 <defs>
  <style type="text/css">
   <![CDATA[
    .fil1 {fill:#5C589A}
    .fil0 {fill:#8480BC}
    .fil2 {fill:white}
    .fil3 {fill:#FEFEFE;fill-rule:nonzero}
   ]]>
  </style>
 </defs>
 <g id="Layer_x0020_1">
  <metadata id="CorelCorpID_0Corel-Layer"/>
  <g id="_2188969711008">
   <g id="_2555776433744">
    <path class="fil0" d="M7111 0l30705 0c3910,0 7111,3201 7111,7111 0,3911 -3200,7113 -7111,7113l-30705 0c-3910,0 -7111,-3201 -7111,-7112 0,-3911 3199,-7112 7111,-7112z"/>
    <polygon class="fil1" points="30408,2059 29997,2059 29997,12165 30408,12165 "/>
    <polygon class="fil2" points="29791,2059 29997,2059 29997,12165 29791,12165 "/>
    <path class="fil2" d="M35442 7239l0 0 0 -254 0 0 0 -29 4556 0 -1709 -1710 222 -224 2090 2091 -2090 2090 -222 -223 1709 -1712 -4556 0 0 -29zm-2451 -126c0,-1345 522,-2610 1473,-3559 951,-950 2212,-1474 3557,-1472 1344,0 2605,522 3556,1473 951,948 1473,2213 1473,3558 0,1343 -522,2607 -1473,3556 -951,951 -2212,1474 -3556,1474 -1345,1 -2606,-523 -3557,-1473 -951,-950 -1473,-2214 -1473,-3557zm9745 0c0,-1261 -490,-2445 -1380,-3337 -892,-890 -2074,-1380 -3335,-1380 -1262,0 -2444,490 -3335,1380 -891,892 -1381,2076 -1381,3337 0,1260 490,2443 1381,3334 891,891 2073,1382 3335,1382 1261,0 2443,-491 3335,-1382 890,-891 1380,-2074 1380,-3334z"/>
   </g>
   <path class="fil3" d="M4879 8094c-99,0 -192,-17 -280,-50 -88,-33 -166,-82 -233,-146 -27,-25 -54,-56 -83,-92 -28,-36 -54,-78 -77,-127 -23,-50 -41,-105 -55,-167 -15,-62 -22,-132 -22,-208 0,-67 6,-140 19,-217 14,-78 28,-152 45,-220 17,-70 32,-130 47,-180 15,-51 24,-82 28,-94l238 76 235 74c-12,36 -25,78 -38,128 -13,50 -26,102 -38,154 -12,52 -22,104 -30,153 -8,49 -12,92 -12,128 0,63 9,114 27,154 18,39 40,69 66,90 26,20 54,34 85,41 30,7 58,10 81,10l1182 -2c161,0 303,-1 426,-4 123,-3 228,-10 313,-21 86,-12 155,-29 205,-52 51,-23 84,-54 98,-95 9,-26 7,-58 -6,-93 -14,-36 -36,-77 -67,-120 -32,-44 -69,-92 -113,-143 -44,-51 -91,-105 -143,-160 -121,-129 -232,-238 -332,-330 -101,-92 -187,-167 -259,-227 -72,-59 -128,-103 -169,-131 -41,-29 -61,-43 -63,-43l36 -535 1798 -802 200 455 -1513 658c95,71 198,158 310,261 111,103 234,227 365,374 55,61 107,122 157,181 51,60 96,122 134,184 39,63 70,128 93,197 23,68 35,141 35,219 0,13 0,27 0,42 0,15 -2,29 -4,41 -24,151 -73,268 -150,354 -77,86 -179,150 -307,192 -128,41 -279,68 -454,77 -175,10 -372,16 -590,16l-1185 0zm3901 0l-497 0 0 -2878 497 0 0 2878zm2044 0l-76 0c-55,0 -106,-4 -154,-10 -49,-7 -97,-25 -143,-56 -16,171 -56,327 -118,467 -63,140 -146,259 -251,358 -104,99 -229,176 -374,231 -145,54 -308,81 -489,81l-249 0 0 -497 249 0c128,0 238,-13 332,-39 93,-27 169,-70 229,-128 60,-59 104,-135 134,-229 29,-93 44,-208 44,-342l0 -1216 496 0 0 598c0,60 13,110 39,147 26,38 57,66 90,87 34,20 67,34 99,41 32,6 54,10 66,10l76 0 0 497zm959 -1911l-335 -340 332 -343 343 343 -340 340zm-835 1l-336 -339 330 -343 343 343 -337 339zm1522 1413l0 497 -295 0c-114,0 -216,-15 -310,-46 -93,-31 -171,-76 -235,-136 -74,62 -163,109 -265,138 -101,29 -218,44 -348,44l-690 0 0 -497 690 0c81,0 146,-8 195,-23 48,-15 85,-34 110,-57 24,-23 41,-48 48,-76 7,-28 11,-55 11,-82l0 -646 494 0 0 632c0,60 14,107 40,141 27,34 57,59 91,76 34,16 68,26 101,30 33,3 56,5 68,5l295 0zm1463 492c-244,0 -437,-63 -579,-189 -73,68 -154,117 -243,148 -90,30 -181,46 -276,46l-449 0 0 -497 449 0c17,0 39,-3 69,-8 30,-5 60,-18 90,-39 30,-20 56,-51 79,-92 22,-40 34,-97 34,-168l0 -8 0 -568 497 0 0 568c0,109 25,188 77,238 51,50 135,75 252,75 16,0 39,-3 69,-9 30,-6 60,-20 90,-41 30,-21 55,-53 78,-95 23,-42 35,-98 35,-168l0 -568 494 0 0 568c0,109 27,189 79,240 53,52 138,77 256,77 18,0 41,-4 71,-11 30,-7 60,-22 89,-44 29,-22 55,-54 76,-95 21,-41 32,-97 32,-167 0,-30 -2,-65 -7,-107 -5,-40 -11,-84 -18,-130 -7,-46 -16,-93 -25,-140 -9,-47 -19,-92 -28,-134 -9,-43 -18,-82 -27,-116 -8,-35 -16,-62 -21,-82l469 -153c3,8 8,30 16,63 8,33 18,75 29,124 11,49 23,104 35,164 12,60 23,120 33,181 10,60 18,119 25,177 6,57 10,109 10,153 0,135 -23,254 -67,356 -45,102 -102,186 -174,253 -73,68 -153,118 -244,151 -91,33 -181,51 -274,52 -247,1 -442,-65 -587,-196 -73,68 -153,117 -242,147 -88,30 -179,44 -272,44zm471 -2256l-340 344 -339 -340 339 -343 340 339zm856 -8l-335 339 -350 -335 344 -343 341 339zm-442 -563l-319 320 -315 -316 319 -319 315 315zm1992 2832l-497 0 0 -2878 497 0 0 2878zm2264 2c-51,0 -101,-3 -150,-8 -49,-6 -99,-13 -150,-22 -50,-10 -102,-21 -155,-35 -53,-14 -109,-29 -168,-47l-237 -72 143 -479c116,40 236,75 361,106 124,31 241,51 351,60 110,9 205,5 285,-13 81,-18 135,-56 163,-115 9,-18 10,-42 3,-69 -8,-29 -21,-58 -43,-88l-745 -1086 420 -272 135 210c0,1 3,6 7,12 5,7 14,21 28,42 14,21 34,51 60,91 26,39 60,90 103,154 43,64 95,143 156,237 62,94 136,206 223,336 68,102 109,208 125,317 15,109 1,213 -41,311 -23,54 -53,103 -91,148 -38,44 -82,84 -132,118 -95,65 -209,110 -342,134 -111,20 -214,30 -309,30zm2391 -2c-147,0 -272,-9 -377,-27 -105,-18 -194,-45 -266,-80 -71,-35 -129,-81 -172,-135 -44,-55 -77,-118 -99,-191 -23,-74 -38,-156 -45,-248 -7,-93 -11,-195 -11,-307l0 -1890 497 0 0 1890c0,106 4,192 11,255 7,64 26,114 58,149 31,35 78,58 141,70 64,11 151,17 263,17l0 497zm2622 -795c-7,5 -28,18 -64,43 -36,25 -84,57 -146,95 13,40 34,71 62,93 28,22 57,38 86,48 29,10 56,15 83,17 25,1 44,2 55,2l365 0 0 497 -365 0c-158,-2 -301,-37 -426,-105 -126,-69 -224,-171 -295,-309 -103,51 -213,101 -331,151 -118,50 -242,94 -372,133 -128,38 -261,70 -396,94 -136,24 -272,36 -408,36l-594 0 0 -497 594 0c130,0 269,-13 417,-40 148,-27 294,-61 438,-103 143,-41 280,-89 410,-140 129,-52 242,-103 338,-154 -60,-19 -126,-39 -198,-61 -72,-22 -145,-44 -219,-66 -75,-22 -148,-43 -221,-64 -74,-20 -142,-39 -206,-55 -64,-16 -121,-28 -172,-38 -50,-9 -91,-14 -120,-14 -30,0 -57,4 -80,11 -24,8 -44,20 -63,36 -19,17 -36,39 -52,65 -16,27 -33,59 -50,96l-457 -138c25,-79 56,-155 93,-224 36,-70 81,-131 133,-183 53,-52 114,-93 183,-122 69,-30 148,-46 237,-46 35,0 85,8 148,22 64,15 136,35 218,58 81,24 168,51 260,82 92,31 185,63 279,96 93,33 183,66 271,98 87,31 167,61 237,86 71,27 130,48 178,65 48,18 79,28 92,33l58 402zm-1662 1477l360 -362 367 367 -364 363 -363 -368zm3479 -2359c3,10 9,32 18,66 8,35 18,77 28,127 11,50 22,105 33,167 12,61 22,123 32,184 10,62 18,122 24,181 6,58 9,110 9,153 0,137 -22,257 -68,357 -45,100 -104,183 -178,248 -73,65 -155,114 -245,145 -92,33 -183,49 -275,49l-860 0 0 -497 874 0c15,0 39,-2 69,-7 30,-5 60,-17 89,-37 30,-20 56,-50 79,-91 23,-41 35,-96 35,-167 0,-29 -3,-65 -8,-106 -4,-42 -11,-87 -19,-135 -8,-48 -17,-97 -27,-146 -9,-51 -20,-98 -28,-142 -10,-45 -19,-85 -28,-122 -10,-36 -17,-65 -22,-85l468 -142zm-242 2764l-335 -339 331 -343 343 343 -339 339zm-836 2l-336 -339 330 -343 343 343 -337 339zm2206 -1089l-497 0 0 -2878 497 0 0 2878z"/>
  </g>
 </g>
</svg>
