<?xml version="1.0" encoding="UTF-8"?>
<!DOCTYPE svg PUBLIC "-//W3C//DTD SVG 1.1//EN" "http://www.w3.org/Graphics/SVG/1.1/DTD/svg11.dtd">
<!-- Creator: CorelDRAW X7 -->
<svg xmlns="http://www.w3.org/2000/svg" xml:space="preserve" width="13.478in" height="10.6277in" version="1.1" style="shape-rendering:geometricPrecision; text-rendering:geometricPrecision; image-rendering:optimizeQuality; fill-rule:evenodd; clip-rule:evenodd"
viewBox="0 0 134780 106277"
 xmlns:xlink="http://www.w3.org/1999/xlink">
 <defs>
  <style type="text/css">
   <![CDATA[
    .fil0 {fill:#F7F2E6;fill-rule:nonzero}
   ]]>
  </style>
 </defs>
 <g id="Layer_x0020_1">
  <metadata id="CorelCorpID_0Corel-Layer"/>
  <path class="fil0" d="M95613 103667l-41937 0 0 -41936 41937 0 0 41936zm-18948 -10747l-4041 0 0 -8374c0,-481 -265,-924 -691,-1151 -1911,-1020 -3098,-2977 -3098,-5102 0,-3203 2606,-5809 5809,-5809 3203,0 5810,2606 5810,5809 0,2128 -1187,4082 -3099,5102 -425,227 -690,670 -690,1151l0 8374zm-5346 2609l6651 0c721,0 1304,-584 1304,-1305l0 -8936c2356,-1554 3789,-4169 3789,-6995 0,-4642 -3776,-8419 -8419,-8419 -4642,0 -8418,3777 -8418,8419 0,2826 1433,5438 3788,6992l0 8939c0,721 584,1305 1305,1305zm-12261 -36408l0 -10844c0,-8592 6992,-15585 15586,-15585 8595,0 15587,6993 15587,15585l0 10844 -4174 0 0 -10844c0,-6292 -5120,-11411 -11413,-11411 -6291,0 -11410,5119 -11410,11411l0 10844 -4176 0zm6785 0l0 -10844c0,-4855 3948,-8801 8801,-8801 4855,0 8804,3946 8804,8801l0 10844 -17605 0zm26997 0l0 -10844c0,-10032 -8162,-18194 -18196,-18194 -10033,0 -18196,8162 -18196,18194l0 10844 -4077 0c-721,0 -1304,584 -1304,1305l0 14453 -35261 0c-7276,0 -13197,-5919 -13197,-13194 0,-7278 5921,-13199 13197,-13199l4013 0c529,0 1004,-319 1207,-808 3055,-7402 10201,-12188 18202,-12188l3789 0c352,0 688,-143 934,-395 246,-249 380,-591 371,-942l-26 -459c-10,-133 -20,-265 -20,-400 0,-16920 13764,-30685 30682,-30685 16918,0 30682,13765 30682,30685 0,135 -11,267 -21,400l-25 459c-9,351 125,693 370,942 246,252 583,395 934,395l5578 0c10860,0 19694,8835 19694,19692 0,10860 -8834,19697 -19694,19697l-14254 0 0 -14453c0,-721 -583,-1305 -1305,-1305l-4077 0zm5382 18367l14254 0c12298,0 22304,-10006 22304,-22306 0,-12297 -10006,-22301 -22304,-22301l-4230 0c-222,-18168 -15069,-32881 -33288,-32881 -18219,0 -33067,14713 -33289,32881l-2441 0c-8768,0 -16627,5071 -20264,12995l-3158 0c-8716,0 -15806,7092 -15806,15809 0,8714 7090,15803 15806,15803l35261 0 0 27484c0,721 583,1305 1304,1305l44546 0c722,0 1305,-584 1305,-1305l0 -27484z"/>
 </g>
</svg>
