<?xml version="1.0" encoding="UTF-8"?>
<!DOCTYPE svg PUBLIC "-//W3C//DTD SVG 1.1//EN" "http://www.w3.org/Graphics/SVG/1.1/DTD/svg11.dtd">
<!-- Creator: CorelDRAW X7 -->
<svg xmlns="http://www.w3.org/2000/svg" xml:space="preserve" width="100%" height="100%" version="1.1" style="shape-rendering:geometricPrecision; text-rendering:geometricPrecision; image-rendering:optimizeQuality; fill-rule:evenodd; clip-rule:evenodd"
viewBox="0 0 5000 5000"
 xmlns:xlink="http://www.w3.org/1999/xlink">
 <defs>
  <style type="text/css">
   <![CDATA[
    .fil0 {fill:#B5E4FA}
    .fil1 {fill:#5C56A2}
   ]]>
  </style>
 </defs>
 <g id="Layer_x0020_1">
  <metadata id="CorelCorpID_0Corel-Layer"/>
  <g id="_2381120590064">
   <circle class="fil0" cx="2500" cy="2500" r="2500"/>
   <path class="fil1" d="M3483 972l-1966 0 0 963 -447 187 0 1728 2860 0 0 -1728 -447 -187 0 -963zm-1229 561c-73,47 -130,115 -170,203 -33,73 -49,149 -49,228 0,72 14,139 41,200 22,49 55,92 98,130 43,37 95,65 157,84 61,18 128,28 201,28 79,0 146,-11 202,-32 56,-20 104,-49 145,-84 41,-36 69,-71 86,-106l-88 0c-29,42 -73,77 -131,106 -58,29 -130,43 -216,43 -80,0 -153,-14 -219,-41 -66,-28 -116,-71 -151,-129 -35,-57 -53,-126 -53,-206 0,-77 18,-149 53,-216 35,-66 84,-118 147,-154 64,-35 134,-53 211,-53 67,0 128,14 184,42 56,29 97,67 125,114 28,47 42,98 42,153 0,47 -10,92 -32,136 -22,44 -52,79 -89,105 -28,20 -51,30 -68,30 -10,0 -18,-3 -25,-10 -6,-6 -10,-14 -10,-22 0,-5 5,-31 15,-77l71 -329 -88 0 -17 76c-19,-30 -41,-53 -67,-68 -26,-15 -53,-22 -81,-22 -38,0 -76,13 -116,39 -39,26 -72,65 -99,117 -27,53 -40,105 -40,157 0,42 9,81 26,116 17,36 39,62 67,79 27,17 56,25 85,25 26,0 53,-7 79,-22 27,-15 50,-35 72,-59 2,20 5,34 9,42 7,13 17,23 31,30 14,7 32,10 54,10 71,0 136,-33 196,-99 67,-73 100,-157 100,-252 0,-66 -16,-128 -48,-184 -37,-66 -88,-116 -153,-149 -65,-33 -138,-50 -219,-50 -105,0 -194,24 -268,71zm91 553c-21,-25 -32,-60 -32,-105 0,-28 6,-59 16,-93 11,-34 25,-62 42,-86 17,-23 35,-40 54,-51 18,-11 38,-16 59,-16 32,0 59,12 81,37 22,24 33,59 33,103 0,34 -6,67 -18,100 -11,34 -27,61 -45,83 -19,21 -38,38 -58,49 -21,11 -40,16 -58,16 -28,0 -52,-12 -74,-37zm1049 -1025l0 1346 -894 561 -894 -561 0 -1346 1788 0zm-1877 1290l-306 -191 306 -128 0 319zm-357 1410l0 -1528 1340 840 1341 -840 0 1528 -2681 0zm2629 -1601l-306 191 0 -319 306 128z"/>
  </g>
 </g>
</svg>
