<?xml version="1.0" encoding="UTF-8"?>
<!DOCTYPE svg PUBLIC "-//W3C//DTD SVG 1.1//EN" "http://www.w3.org/Graphics/SVG/1.1/DTD/svg11.dtd">
<!-- Creator: CorelDRAW X7 -->
<svg xmlns="http://www.w3.org/2000/svg" xml:space="preserve" width="100%" height="100%" version="1.1" style="shape-rendering:geometricPrecision; text-rendering:geometricPrecision; image-rendering:optimizeQuality; fill-rule:evenodd; clip-rule:evenodd"
viewBox="0 0 5000 5000"
 xmlns:xlink="http://www.w3.org/1999/xlink">
 <defs>
  <style type="text/css">
   <![CDATA[
    .fil0 {fill:#B5E4FA}
    .fil1 {fill:#5C56A2}
   ]]>
  </style>
 </defs>
 <g id="Layer_x0020_1">
  <metadata id="CorelCorpID_0Corel-Layer"/>
  <g id="_2381310402992">
   <circle class="fil0" cx="2500" cy="2500" r="2500"/>
   <path class="fil1" d="M1294 1856l0 2208 2145 0 0 -268 267 0 0 -2860 -2145 0 0 652 -267 268zm2145 1850l0 -2502 -1493 0 -295 295 0 -474 1966 0 0 2681 -178 0zm-1753 -189l144 145c21,-21 42,-42 63,-63l163 -163 -63 -63 -163 163 -81 -82 -63 63zm0 -446l144 144c21,-21 42,-42 63,-63l163 -163 -63 -63 -163 163 -81 -82 -63 64zm0 -447l144 144c21,-21 42,-42 63,-63l163 -163 -63 -63 -163 163 -81 -82 -63 64zm0 -447l144 144c21,-20 42,-42 63,-63l163 -163 -63 -63 -163 163 -81 -81 -63 63zm412 1396l983 0 0 89 -983 0 0 -89zm0 -447l983 0 0 89 -983 0 0 -89zm0 -447l983 0 0 89 -983 0 0 -89zm0 -447l983 0 0 89 -983 0 0 -89zm-179 -875l0 473 -473 0 473 -473zm1430 2618l-1966 0 0 -2056 626 0 0 -625 1340 0 0 2681z"/>
  </g>
 </g>
</svg>
