<?xml version="1.0" encoding="UTF-8"?>
<!DOCTYPE svg PUBLIC "-//W3C//DTD SVG 1.1//EN" "http://www.w3.org/Graphics/SVG/1.1/DTD/svg11.dtd">
<!-- Creator: CorelDRAW X7 -->
<svg xmlns="http://www.w3.org/2000/svg" xml:space="preserve" width="100%" height="100%" version="1.1" style="shape-rendering:geometricPrecision; text-rendering:geometricPrecision; image-rendering:optimizeQuality; fill-rule:evenodd; clip-rule:evenodd"
viewBox="0 0 5000 5000"
 xmlns:xlink="http://www.w3.org/1999/xlink">
 <defs>
  <style type="text/css">
   <![CDATA[
    .fil0 {fill:#B5E4FA}
    .fil1 {fill:#5C56A2}
   ]]>
  </style>
 </defs>
 <g id="Layer_x0020_1">
  <metadata id="CorelCorpID_0Corel-Layer"/>
  <g id="_2381264750976">
   <circle class="fil0" cx="2500" cy="2500" r="2500"/>
   <path class="fil1" d="M1338 1419l0 -269 2592 0 0 2021 -268 0 0 269 -1413 0 -687 588 0 -588 -492 0 0 -2021 268 0zm837 1663l0 -247c0,-130 48,-249 127,-340 -74,-59 -167,-93 -268,-93 -239,0 -433,194 -433,433l0 247 574 0zm191 -651c91,-74 207,-119 333,-119 144,0 275,59 370,153 94,95 153,226 153,370l0 247 0 89c-570,0 -1141,0 -1711,0l0 -89 0 -247c0,-144 58,-275 153,-370 95,-94 226,-153 370,-153 126,0 242,45 332,119zm333 -694c109,0 197,89 197,198 0,109 -88,197 -197,197 -109,0 -198,-88 -198,-197 0,-109 89,-198 198,-198zm0 -90c-159,0 -288,129 -288,288 0,158 129,287 288,287 158,0 287,-129 287,-287 0,-159 -129,-288 -287,-288zm-434 1435l0 -247c0,-105 38,-202 101,-278 63,76 102,173 102,278l0 247 -203 0zm166 -587c74,-59 167,-93 268,-93 239,0 433,194 433,433l0 247 -575 0 0 -247c0,-130 -47,-249 -126,-340zm-397 -758c109,0 198,89 198,198 0,109 -89,197 -198,197 -109,0 -197,-88 -197,-197 0,-109 88,-198 197,-198zm0 -90c-158,0 -287,129 -287,288 0,158 129,287 287,287 159,0 287,-129 287,-287 0,-159 -129,-288 -287,-288zm1628 1435l178 0 0 -1842 -2413 0 0 179 2235 0 0 1663zm-2502 -1574l2413 0 0 1843 -1357 0 -565 483 0 -483 -491 0 0 -1843z"/>
  </g>
 </g>
</svg>
