<?xml version="1.0" encoding="UTF-8"?>
<!DOCTYPE svg PUBLIC "-//W3C//DTD SVG 1.1//EN" "http://www.w3.org/Graphics/SVG/1.1/DTD/svg11.dtd">
<!-- Creator: CorelDRAW X7 -->
<svg xmlns="http://www.w3.org/2000/svg" xml:space="preserve" width="100%" height="100%" version="1.1" style="shape-rendering:geometricPrecision; text-rendering:geometricPrecision; image-rendering:optimizeQuality; fill-rule:evenodd; clip-rule:evenodd"
viewBox="0 0 5000 5000"
 xmlns:xlink="http://www.w3.org/1999/xlink">
 <defs>
  <style type="text/css">
   <![CDATA[
    .fil0 {fill:#B5E4FA}
    .fil1 {fill:#5C56A2}
   ]]>
  </style>
 </defs>
 <g id="Layer_x0020_1">
  <metadata id="CorelCorpID_0Corel-Layer"/>
  <g id="_2381310369808">
   <circle class="fil0" cx="2500" cy="2500" r="2500"/>
   <path class="fil1" d="M1420 1718l0 2221 2160 0 0 -2878 -1503 0 -657 657zm1320 1102l247 -332 -218 -308 101 0 117 164c24,34 41,60 51,78 14,-23 31,-46 51,-72l127 -170 93 0 -222 304 239 336 -104 0 -161 -228c-9,-13 -18,-26 -26,-39 -15,22 -25,37 -31,45l-162 222 -102 0zm-601 0l245 -640 93 0 261 640 -97 0 -74 -194 -269 0 -70 194 -89 0zm184 -263l218 0 -67 -177c-20,-54 -35,-99 -46,-134 -9,42 -20,83 -35,123l-70 188zm-606 263l0 -640 431 0 0 75 -346 0 0 199 300 0 0 76 -300 0 0 290 -85 0zm333 -1606l0 476 -477 0 477 -476zm1439 2636l-1978 0 0 -2069 630 0 0 -629 1348 0 0 2698z"/>
  </g>
 </g>
</svg>
