<?xml version="1.0" encoding="UTF-8"?>
<!DOCTYPE svg PUBLIC "-//W3C//DTD SVG 1.1//EN" "http://www.w3.org/Graphics/SVG/1.1/DTD/svg11.dtd">
<!-- Creator: CorelDRAW X7 -->
<svg xmlns="http://www.w3.org/2000/svg" xml:space="preserve" width="100%" height="100%" version="1.1" style="shape-rendering:geometricPrecision; text-rendering:geometricPrecision; image-rendering:optimizeQuality; fill-rule:evenodd; clip-rule:evenodd"
viewBox="0 0 5000 5000"
 xmlns:xlink="http://www.w3.org/1999/xlink">
 <defs>
  <style type="text/css">
   <![CDATA[
    .fil0 {fill:#B5E4FA}
    .fil1 {fill:#5C56A2}
   ]]>
  </style>
 </defs>
 <g id="Layer_x0020_1">
  <metadata id="CorelCorpID_0Corel-Layer"/>
  <g id="_2381310388240">
   <circle class="fil0" cx="2500" cy="2500" r="2500"/>
   <path class="fil1" d="M2500 3939c384,0 746,-150 1018,-422 271,-271 421,-633 421,-1017 0,-384 -150,-746 -421,-1018 -272,-271 -634,-421 -1018,-421 -384,0 -746,150 -1017,421 -272,272 -422,634 -422,1018 0,384 150,746 422,1017 271,272 633,422 1017,422zm-602 -1439c0,-332 270,-602 602,-602 208,0 392,106 500,267l105 0c-118,-212 -345,-356 -605,-356 -382,0 -691,309 -691,691 0,382 309,691 691,691 260,0 487,-144 605,-356l-105 0c-108,161 -292,267 -500,267 -332,0 -602,-270 -602,-602zm-167 -575c32,30 76,50 124,50 47,0 91,-20 122,-50 32,-32 52,-75 52,-124 0,-48 -20,-92 -52,-122 -31,-32 -75,-51 -122,-51 -48,0 -92,19 -124,51 -32,30 -51,74 -51,122 0,49 19,92 51,124zm124 -40c-48,0 -85,-36 -85,-84 0,-46 38,-84 85,-84 45,0 84,38 84,84 0,47 -38,84 -84,84zm-310 -340c255,-255 595,-395 955,-395 360,0 700,140 955,395 255,255 395,595 395,955 0,360 -140,700 -395,955 -255,253 -595,395 -955,395 -360,0 -700,-142 -955,-395 -253,-255 -393,-595 -393,-955 0,-360 140,-700 393,-955z"/>
  </g>
 </g>
</svg>
