<?xml version="1.0" encoding="UTF-8"?>
<!DOCTYPE svg PUBLIC "-//W3C//DTD SVG 1.1//EN" "http://www.w3.org/Graphics/SVG/1.1/DTD/svg11.dtd">
<!-- Creator: CorelDRAW X7 -->
<svg xmlns="http://www.w3.org/2000/svg" xml:space="preserve" width="100%" height="100%" version="1.1" style="shape-rendering:geometricPrecision; text-rendering:geometricPrecision; image-rendering:optimizeQuality; fill-rule:evenodd; clip-rule:evenodd"
viewBox="0 0 5000 5000"
 xmlns:xlink="http://www.w3.org/1999/xlink">
 <defs>
  <style type="text/css">
   <![CDATA[
    .fil0 {fill:#B5E4FA}
    .fil1 {fill:#5C56A2}
   ]]>
  </style>
 </defs>
 <g id="Layer_x0020_1">
  <metadata id="CorelCorpID_0Corel-Layer"/>
  <g id="_2381290612224">
   <circle class="fil0" cx="2500" cy="2500" r="2500"/>
   <path class="fil1" d="M2500 1051c-387,0 -751,151 -1024,425 -274,273 -425,637 -425,1024 0,387 151,751 425,1026 273,272 637,423 1024,423 387,0 751,-151 1026,-423 272,-275 423,-639 423,-1026 0,-387 -151,-751 -423,-1024 -275,-274 -639,-425 -1026,-425zm961 2410c-256,257 -598,398 -961,398 -363,0 -705,-141 -961,-398 -256,-256 -397,-598 -397,-961 0,-363 141,-705 397,-961 256,-256 598,-397 961,-397 363,0 705,142 961,397 257,256 398,598 398,961 0,363 -141,705 -398,961z"/>
   <path class="fil1" d="M2500 1414c-290,0 -563,112 -769,317 -205,206 -318,479 -318,769 0,291 113,563 318,769 206,205 479,318 769,318 291,0 563,-113 769,-318 205,-206 318,-478 318,-769 0,-290 -113,-563 -318,-769 -206,-205 -478,-317 -769,-317zm705 1791c-188,187 -439,292 -705,292 -266,0 -517,-105 -705,-292 -187,-188 -292,-439 -292,-705 0,-266 105,-517 292,-705 188,-187 439,-292 705,-292 266,0 517,105 705,292 187,188 292,439 292,705 0,266 -105,517 -292,705z"/>
   <path class="fil1" d="M2499 1776c-192,0 -375,76 -512,212 -136,137 -212,318 -212,512 0,194 76,376 212,512 137,138 320,214 512,214 194,0 376,-76 512,-214 138,-136 214,-318 214,-512 0,-194 -76,-375 -214,-512 -136,-136 -318,-212 -512,-212zm448 1173c-119,119 -278,185 -448,185 -168,0 -329,-66 -448,-185 -120,-120 -186,-279 -186,-449 0,-168 66,-329 186,-448 119,-120 280,-186 448,-186 170,0 329,66 448,186 120,119 186,280 186,448 0,170 -66,329 -186,449z"/>
   <path class="fil1" d="M2500 2137c-96,0 -188,39 -257,106 -67,69 -106,161 -106,257 0,96 39,188 106,257 69,67 161,106 257,106 96,0 188,-39 257,-106 67,-69 106,-161 106,-257 0,-96 -39,-188 -106,-257 -69,-67 -161,-106 -257,-106zm193 556c-52,51 -121,78 -193,78 -72,0 -141,-27 -193,-78 -51,-52 -78,-121 -78,-193 0,-72 27,-141 78,-193 52,-51 121,-78 193,-78 72,0 141,27 193,78 51,52 78,121 78,193 2,72 -27,141 -78,193z"/>
  </g>
 </g>
</svg>
