<?xml version="1.0" encoding="UTF-8"?>
<!DOCTYPE svg PUBLIC "-//W3C//DTD SVG 1.1//EN" "http://www.w3.org/Graphics/SVG/1.1/DTD/svg11.dtd">
<!-- Creator: CorelDRAW X7 -->
<svg xmlns="http://www.w3.org/2000/svg" xml:space="preserve" width="100%" height="100%" version="1.1" style="shape-rendering:geometricPrecision; text-rendering:geometricPrecision; image-rendering:optimizeQuality; fill-rule:evenodd; clip-rule:evenodd"
viewBox="0 0 5000 5000"
 xmlns:xlink="http://www.w3.org/1999/xlink">
 <defs>
  <style type="text/css">
   <![CDATA[
    .fil0 {fill:#B5E4FA}
    .fil1 {fill:#5C56A2}
   ]]>
  </style>
 </defs>
 <g id="Layer_x0020_1">
  <metadata id="CorelCorpID_0Corel-Layer"/>
  <g id="_2381214224848">
   <circle class="fil0" cx="2500" cy="2500" r="2500"/>
   <path class="fil1" d="M2186 1657l983 0 0 90 -983 0 0 -90zm-86 2278l0 -445 355 0 0 538c-75,20 -130,90 -130,169 0,96 78,173 174,173 98,0 174,-76 174,-173 0,-80 -53,-149 -130,-169l0 -538 357 0 0 445 721 0c20,77 88,130 168,130 98,0 174,-76 174,-174 0,-96 -77,-173 -174,-173 -78,0 -148,54 -168,129l-634 0 0 -357 540 0 0 -2547 -602 0 -33 -135 -170 0 0 -178 -446 0 0 178 -169 0 -34 135 -602 0 0 2547 541 0 0 357 -633 0c-20,-76 -89,-129 -168,-129 -96,0 -174,78 -174,173 0,97 77,174 174,174 81,0 148,-52 168,-130l721 0zm1605 -44c0,-46 38,-84 84,-84 48,0 84,38 84,84 0,49 -35,84 -84,84 -47,0 -84,-37 -84,-84zm-1206 222c48,0 84,37 84,84 0,48 -36,83 -84,83 -47,0 -84,-37 -84,-83 0,-46 38,-84 84,-84zm-1288 -306c47,0 84,38 84,84 0,49 -36,84 -84,84 -48,0 -84,-37 -84,-84 0,-46 38,-84 84,-84zm1792 -2552l-56 -223 490 0 0 2368 -1876 0 0 -2368 490 0 -56 223 1008 0zm-181 -357l67 268 -779 0 67 -268 188 0 0 -179 268 0 0 179 189 0zm-993 2100l179 0 0 89 -179 0 0 -89zm0 -447l179 0 0 90 -179 0 0 -90zm0 -447l179 0 0 90 -179 0 0 -90zm0 -447l179 0 0 90 -179 0 0 -90zm357 1341l983 0 0 89 -983 0 0 -89zm0 -447l983 0 0 90 -983 0 0 -90zm0 -447l983 0 0 90 -983 0 0 -90z"/>
  </g>
 </g>
</svg>
