<?xml version="1.0" encoding="UTF-8"?>
<!DOCTYPE svg PUBLIC "-//W3C//DTD SVG 1.1//EN" "http://www.w3.org/Graphics/SVG/1.1/DTD/svg11.dtd">
<!-- Creator: CorelDRAW X7 -->
<svg xmlns="http://www.w3.org/2000/svg" xml:space="preserve" width="100%" height="100%" version="1.1" style="shape-rendering:geometricPrecision; text-rendering:geometricPrecision; image-rendering:optimizeQuality; fill-rule:evenodd; clip-rule:evenodd"
viewBox="0 0 5000 5000"
 xmlns:xlink="http://www.w3.org/1999/xlink">
 <defs>
  <style type="text/css">
   <![CDATA[
    .fil0 {fill:#B5E4FA}
    .fil1 {fill:#5C56A2}
   ]]>
  </style>
 </defs>
 <g id="Layer_x0020_1">
  <metadata id="CorelCorpID_0Corel-Layer"/>
  <g id="_2381310400848">
   <circle class="fil0" cx="2500" cy="2500" r="2500"/>
   <path class="fil1" d="M2500 3939c384,0 746,-150 1018,-422 271,-271 421,-633 421,-1017 0,-384 -150,-746 -421,-1018 -272,-271 -634,-421 -1018,-421 -384,0 -746,150 -1017,421 -272,272 -422,634 -422,1018 0,384 150,746 422,1017 271,272 633,422 1017,422zm-955 -2394c255,-255 595,-395 955,-395 360,0 700,140 955,395 255,255 395,595 395,955 0,360 -140,700 -395,955 -255,253 -595,395 -955,395 -360,0 -700,-142 -955,-395 -253,-255 -393,-595 -393,-955 0,-360 140,-700 393,-955z"/>
   <path class="fil1" d="M1813 1893c-109,0 -197,88 -197,197 0,108 88,198 197,198 109,0 198,-89 198,-198 0,-109 -89,-197 -198,-197zm0 484c141,1 276,79 344,206 67,-127 202,-205 343,-206 141,1 276,79 343,206 68,-127 203,-205 344,-206 200,2 389,159 389,389l0 341c-717,0 -1434,0 -2151,0l0 -341c0,-230 188,-387 388,-389zm389 389l0 252 596 0 0 -252c0,-166 -132,-298 -298,-299 -165,1 -298,133 -298,299zm-91 252l0 -252c0,-166 -132,-298 -298,-299 -153,1 -299,122 -299,299l0 252 597 0zm778 -252l0 252 597 0 0 -252c0,-177 -146,-298 -299,-299 -166,1 -298,133 -298,299zm-389 -873c-109,0 -197,88 -197,197 0,108 88,198 197,198 109,0 198,-89 198,-198 0,-109 -89,-197 -198,-197zm687 0c-109,0 -198,88 -198,197 0,108 89,198 198,198 109,0 197,-89 197,-198 0,-109 -88,-197 -197,-197zm-108 197c0,-59 48,-108 108,-108 59,0 108,49 108,108 0,60 -49,108 -108,108 -60,0 -108,-48 -108,-108zm-687 0c0,-59 49,-108 108,-108 60,0 108,49 108,108 0,60 -48,108 -108,108 -59,0 -108,-48 -108,-108zm-686 0c0,-59 48,-108 107,-108 60,0 108,49 108,108 0,60 -48,108 -108,108 -59,0 -107,-48 -107,-108z"/>
  </g>
 </g>
</svg>
