<?xml version="1.0" encoding="UTF-8"?>
<!DOCTYPE svg PUBLIC "-//W3C//DTD SVG 1.1//EN" "http://www.w3.org/Graphics/SVG/1.1/DTD/svg11.dtd">
<!-- Creator: CorelDRAW X7 -->
<svg xmlns="http://www.w3.org/2000/svg" xml:space="preserve" width="100%" height="100%" version="1.1" style="shape-rendering:geometricPrecision; text-rendering:geometricPrecision; image-rendering:optimizeQuality; fill-rule:evenodd; clip-rule:evenodd"
viewBox="0 0 5000 5000"
 xmlns:xlink="http://www.w3.org/1999/xlink">
 <defs>
  <style type="text/css">
   <![CDATA[
    .fil0 {fill:#6C87C3}
    .fil1 {fill:white}
   ]]>
  </style>
 </defs>
 <g id="Layer_x0020_1">
  <metadata id="CorelCorpID_0Corel-Layer"/>
  <g id="_2380725794736">
   <circle class="fil0" cx="2500" cy="2500" r="2500"/>
   <path class="fil1" d="M1160 3615l0 -1068 940 471 0 -457 915 457 0 -457 825 412 0 642c-893,0 -1787,0 -2680,0zm1397 -120l0 -275 0 0 -89 0 0 275 89 0zm549 0l0 -275 -89 0 0 275 89 0zm-274 0l0 -275 -90 0 0 275 90 0zm-549 -275l-90 0 0 275 90 0 0 -275zm-275 0l-89 0 0 275 89 0 0 -275zm-274 0l-90 0 0 275 90 0 0 -275zm-275 0l-90 0 0 275 90 0 0 -275zm-389 -818l669 336 90 -1622 451 0 92 1481 284 141 89 -1210 449 0 93 1069 643 321 0 786 -2860 0 0 -1302zm1126 -1196l-282 0 -5 93 293 0 -6 -93zm11 183l-303 0 -5 93 314 0 -6 -93zm12 183l-325 0 -67 1210 183 91 0 -457 270 135 -61 -979zm893 46l-283 0 -7 93 298 0 -8 -93zm16 183l-313 0 -7 93 328 0 -8 -93zm16 183l-343 0 -59 798 183 91 0 -457 268 134 -49 -566z"/>
  </g>
 </g>
</svg>
