<?xml version="1.0" encoding="UTF-8"?>
<!DOCTYPE svg PUBLIC "-//W3C//DTD SVG 1.1//EN" "http://www.w3.org/Graphics/SVG/1.1/DTD/svg11.dtd">
<!-- Creator: CorelDRAW X7 -->
<svg xmlns="http://www.w3.org/2000/svg" xml:space="preserve" width="100%" height="100%" version="1.1" style="shape-rendering:geometricPrecision; text-rendering:geometricPrecision; image-rendering:optimizeQuality; fill-rule:evenodd; clip-rule:evenodd"
viewBox="0 0 500 500"
 xmlns:xlink="http://www.w3.org/1999/xlink">
 <defs>
  <style type="text/css">
   <![CDATA[
    .fil0 {fill:#6C87C3}
    .fil1 {fill:white}
   ]]>
  </style>
 </defs>
 <g id="Layer_x0020_1">
  <metadata id="CorelCorpID_0Corel-Layer"/>
  <circle class="fil0" cx="250" cy="250" r="250"/>
  <path class="fil1" d="M109 179l67 0 57 -70c0,-9 8,-16 17,-16 9,0 17,7 17,16l57 70 67 0 0 184 -282 0 0 -184zm53 92c0,-4 1,-8 2,-12 1,-2 3,-4 4,-6 2,-2 4,-3 6,-4 3,-2 7,-2 10,-2 7,0 13,2 17,6 4,5 6,10 6,18 0,8 -2,13 -6,18 -4,4 -10,6 -16,6 -7,0 -13,-2 -17,-6 -4,-4 -6,-10 -6,-18zm10 0c0,5 1,9 3,12 3,3 6,4 10,4 3,0 6,-1 9,-4 2,-3 3,-7 3,-12 0,-6 -1,-9 -3,-12 -2,-3 -6,-4 -9,-4 -4,0 -7,1 -10,4 -2,3 -3,7 -3,12zm42 23l0 -46 15 0c6,0 10,0 12,0 2,1 5,3 6,5 2,2 3,5 3,9 0,3 0,5 -2,7 -1,2 -2,4 -3,5 -2,1 -4,2 -5,2 -3,0 -6,1 -10,1l-6 0 0 17 -10 0zm10 -38l0 13 5 0c4,0 6,0 7,-1 2,0 3,-1 3,-2 1,-1 1,-2 1,-4 0,-2 0,-3 -1,-4 -1,-1 -2,-2 -4,-2 -1,0 -3,0 -7,0l-4 0zm34 38l0 -46 34 0 0 8 -25 0 0 10 23 0 0 8 -23 0 0 12 26 0 0 8 -35 0zm43 0l0 -46 9 0 19 31 0 -31 9 0 0 46 -9 0 -19 -30 0 30 -9 0zm-36 -175c-3,6 -9,9 -15,9 -6,0 -12,-3 -15,-9l-49 60 128 0 -49 -60zm-15 -17c-5,0 -9,4 -9,8 0,5 4,9 9,9 5,0 9,-4 9,-9 0,-4 -4,-8 -9,-8zm-88 105l176 0c0,14 12,25 25,25l0 78c-13,0 -25,11 -25,25l-176 0c0,-14 -11,-25 -25,-25l0 -78c14,0 25,-11 25,-25zm169 8l-162 0c-1,6 -4,11 -9,16 -4,4 -9,7 -15,8l0 64c6,1 11,4 15,8 5,5 8,10 9,16l162 0c1,-6 4,-11 9,-16 4,-4 9,-7 15,-8l0 -64c-6,-1 -11,-4 -15,-8 -5,-5 -8,-10 -9,-16zm52 -27l-266 0 0 166 266 0 0 -166z"/>
 </g>
</svg>
