<?xml version="1.0" encoding="UTF-8"?>
<!DOCTYPE svg PUBLIC "-//W3C//DTD SVG 1.1//EN" "http://www.w3.org/Graphics/SVG/1.1/DTD/svg11.dtd">
<!-- Creator: CorelDRAW X7 -->
<svg xmlns="http://www.w3.org/2000/svg" xml:space="preserve" width="100%" height="100%" version="1.1" style="shape-rendering:geometricPrecision; text-rendering:geometricPrecision; image-rendering:optimizeQuality; fill-rule:evenodd; clip-rule:evenodd"
viewBox="0 0 5000 5000"
 xmlns:xlink="http://www.w3.org/1999/xlink">
 <defs>
  <style type="text/css">
   <![CDATA[
    .fil0 {fill:#6C87C3}
    .fil1 {fill:white}
   ]]>
  </style>
 </defs>
 <g id="Layer_x0020_1">
  <metadata id="CorelCorpID_0Corel-Layer"/>
  <g id="_2381122699104">
   <circle class="fil0" cx="2500" cy="2500" r="2500"/>
   <path class="fil1" d="M1070 1895l0 23 0 1695 0 89c953,0 1907,0 2860,0l0 -1784 0 -48 0 -41 -359 0 0 -307 -1025 0 0 -135 267 0 90 0 0 -89 0 -90 0 -89 -90 0 -267 0 -47 0 -43 0 0 403 -2 0 -1025 0 0 307 -359 0 0 66zm269 201l89 0 90 0 0 90 -90 0 -89 0 0 -90zm2322 0l-90 0 -89 0 0 90 89 0 90 0 0 -90zm-268 0l-90 0 -89 0 0 90 89 0 90 0 0 -90zm-268 0l-89 0 -90 0 0 90 90 0 89 0 0 -90zm-268 0l-89 0 -90 0 0 90 90 0 89 0 0 -90zm-268 0l-89 0 -89 0 0 90 89 0 89 0 0 -90zm-268 0l-89 0 -89 0 0 90 89 0 89 0 0 -90zm-268 0l-89 0 -89 0 0 90 89 0 89 0 0 -90zm-267 0l-90 0 -89 0 0 90 89 0 90 0 0 -90zm-447 179l89 0 90 0 0 89 -90 0 -89 0 0 -89zm2322 0l-90 0 -89 0 0 89 89 0 90 0 0 -89zm-268 0l-90 0 -89 0 0 89 89 0 90 0 0 -89zm-268 0l-89 0 -90 0 0 89 90 0 89 0 0 -89zm-268 0l-89 0 -90 0 0 89 90 0 89 0 0 -89zm-268 0l-89 0 -89 0 0 89 89 0 89 0 0 -89zm-268 0l-89 0 -89 0 0 89 89 0 89 0 0 -89zm-268 0l-89 0 -89 0 0 89 89 0 89 0 0 -89zm-267 0l-90 0 -89 0 0 89 89 0 90 0 0 -89zm-447 178l89 0 90 0 0 89 -90 0 -89 0 0 -89zm2322 0l-90 0 -89 0 0 89 89 0 90 0 0 -89zm-268 0l-90 0 -89 0 0 89 89 0 90 0 0 -89zm-268 0l-89 0 -90 0 0 89 90 0 89 0 0 -89zm-268 0l-89 0 -90 0 0 89 90 0 89 0 0 -89zm-268 0l-89 0 -89 0 0 89 89 0 89 0 0 -89zm-268 0l-89 0 -89 0 0 89 89 0 89 0 0 -89zm-268 0l-89 0 -89 0 0 89 89 0 89 0 0 -89zm-267 0l-90 0 -89 0 0 89 89 0 90 0 0 -89zm-447 179l89 0 90 0 0 89 -90 0 -89 0 0 -89zm2322 0l-90 0 -89 0 0 89 89 0 90 0 0 -89zm-268 0l-90 0 -89 0 0 89 89 0 90 0 0 -89zm-268 0l-89 0 -90 0 0 89 90 0 89 0 0 -89zm-268 0l-89 0 -90 0 0 89 90 0 89 0 0 -89zm-268 0l-89 0 -89 0 0 89 89 0 89 0 0 -89zm-268 0l-89 0 -89 0 0 89 89 0 89 0 0 -89zm-268 0l-89 0 -89 0 0 89 89 0 89 0 0 -89zm-267 0l-90 0 -89 0 0 89 89 0 90 0 0 -89zm-447 178l89 0 90 0 0 89 -90 0 -89 0 0 -89zm2322 0l-90 0 -89 0 0 89 89 0 90 0 0 -89zm-268 0l-90 0 -89 0 0 89 89 0 90 0 0 -89zm-268 0l-89 0 -90 0 0 89 90 0 89 0 0 -89zm-268 0l-89 0 -90 0 0 89 90 0 89 0 0 -89zm-268 0l-89 0 -89 0 0 89 89 0 89 0 0 -89zm-268 0l-89 0 -89 0 0 89 89 0 89 0 0 -89zm-268 0l-89 0 -89 0 0 89 89 0 89 0 0 -89zm-267 0l-90 0 -89 0 0 89 89 0 90 0 0 -89zm-447 179l89 0 90 0 0 89 -90 0 -89 0 0 -89zm2322 0l-90 0 -89 0 0 89 89 0 90 0 0 -89zm-268 0l-90 0 -89 0 0 89 89 0 90 0 0 -89zm-268 0l-89 0 -90 0 0 89 90 0 89 0 0 -89zm-1072 0l-89 0 -89 0 0 89 89 0 89 0 0 -89zm-267 0l-90 0 -89 0 0 89 89 0 90 0 0 -89zm-447 178l89 0 90 0 0 89 -90 0 -89 0 0 -89zm2322 0l-90 0 -89 0 0 89 89 0 90 0 0 -89zm-268 0l-90 0 -89 0 0 89 89 0 90 0 0 -89zm-268 0l-89 0 -90 0 0 89 90 0 89 0 0 -89zm-1072 0l-89 0 -89 0 0 89 89 0 89 0 0 -89zm-267 0l-90 0 -89 0 0 89 89 0 90 0 0 -89zm2054 -1249c0,565 0,1130 0,1695 -328,0 -655,0 -983,0l0 -624 -714 0 0 624c-328,0 -656,0 -983,0 0,-565 0,-1130 0,-1695l2680 0zm-2322 -89l1964 0 0 -217 -1964 0 0 217zm1295 -531l0 -90 -267 0 0 90 267 0zm-580 2315l-1 -535 223 0 0 535 -222 0zm312 0l0 -535 222 0 0 535 -222 0z"/>
  </g>
 </g>
</svg>
