<?xml version="1.0" encoding="UTF-8"?>
<!DOCTYPE svg PUBLIC "-//W3C//DTD SVG 1.1//EN" "http://www.w3.org/Graphics/SVG/1.1/DTD/svg11.dtd">
<!-- Creator: CorelDRAW X7 -->
<svg xmlns="http://www.w3.org/2000/svg" xml:space="preserve" width="100%" height="100%" version="1.1" style="shape-rendering:geometricPrecision; text-rendering:geometricPrecision; image-rendering:optimizeQuality; fill-rule:evenodd; clip-rule:evenodd"
viewBox="0 0 5000 5000"
 xmlns:xlink="http://www.w3.org/1999/xlink">
 <defs>
  <style type="text/css">
   <![CDATA[
    .fil0 {fill:#6C87C3}
    .fil1 {fill:white}
   ]]>
  </style>
 </defs>
 <g id="Layer_x0020_1">
  <metadata id="CorelCorpID_0Corel-Layer"/>
  <g id="_2381122679328">
   <circle class="fil0" cx="2500" cy="2500" r="2500"/>
   <path class="fil1" d="M1966 1297l-72 0 -18 0 0 446 -180 0 0 -89 -89 0 0 89 -178 0 0 -89 -89 0 0 89 -180 0 -58 0 -32 0 0 1959 0 90 90 0 716 0 18 0 72 0 316 0 437 0 315 0 72 0 18 0 716 0 90 0 0 -90 0 -267 0 -89 0 -1514 0 -89 -90 0 -180 0 0 -89 -89 0 0 89 -178 0 0 -89 -89 0 0 89 -180 0 0 -446 -18 0 -72 0 -356 0 0 -89 -89 0 0 89 -178 0 0 -89 -89 0 0 89 -356 0zm846 179l89 0 0 1692 -89 0 0 -1692zm89 1781l0 0 0 445 133 0 0 -2315 -1068 0 0 2315 133 0 0 -382 0 0 0 -63 89 0 89 0 89 0 89 0 89 0 89 0 89 0 90 0 89 0zm-802 -89l0 -1692 89 0 0 1692 -89 0zm178 0l0 -1692 89 0 0 1692 -89 0zm178 0l0 -1692 89 0 0 1692 -89 0zm178 0l0 -1692 89 0 0 1692 -89 0zm-892 89l0 -1335 -90 0 0 1335 90 0zm-357 0l0 -1335 -89 0 0 1335 89 0zm178 0l0 -1335 -89 0 0 1335 89 0zm2143 0l0 -1335 -89 0 0 1335 89 0zm-356 0l0 -1335 -89 0 0 1335 89 0zm178 0l0 -1335 -89 0 0 1335 89 0zm-1339 89l268 0 0 356 -174 0 -94 0 0 -356zm357 0l267 0 0 356 -93 0 -174 0 0 -356zm-1385 89l716 0 0 267 -716 0 0 -267zm716 -89l-716 0 0 -1514 716 0 0 1514zm1248 89l716 0 0 267 -716 0 0 -267zm716 -89l-716 0 0 -1514 716 0 0 1514z"/>
  </g>
 </g>
</svg>
