<?xml version="1.0" encoding="UTF-8"?>
<!DOCTYPE svg PUBLIC "-//W3C//DTD SVG 1.1//EN" "http://www.w3.org/Graphics/SVG/1.1/DTD/svg11.dtd">
<!-- Creator: CorelDRAW X7 -->
<svg xmlns="http://www.w3.org/2000/svg" xml:space="preserve" width="100%" height="100%" version="1.1" style="shape-rendering:geometricPrecision; text-rendering:geometricPrecision; image-rendering:optimizeQuality; fill-rule:evenodd; clip-rule:evenodd"
viewBox="0 0 5000 5000"
 xmlns:xlink="http://www.w3.org/1999/xlink">
 <defs>
  <style type="text/css">
   <![CDATA[
    .fil1 {fill:#5C56A2}
    .fil0 {fill:#FCE9CA}
   ]]>
  </style>
 </defs>
 <g id="Layer_x0020_1">
  <metadata id="CorelCorpID_0Corel-Layer"/>
  <g id="_2381264744224">
   <circle class="fil0" cx="2500" cy="2500" r="2500"/>
   <path class="fil1" d="M2899 1530c-65,-289 -323,-504 -630,-504 -363,0 -652,296 -647,658 -255,57 -445,284 -445,556 0,314 254,568 568,568l1623 0c252,0 455,-203 455,-455 0,-195 -123,-362 -296,-426 22,-332 -337,-560 -628,-397zm-179 1943l0 -575 -351 0 0 575c31,8 58,25 79,46 32,31 51,74 51,123 0,48 -19,92 -51,124 -30,30 -74,49 -122,49 -49,0 -93,-19 -124,-49 -30,-32 -50,-76 -50,-124 0,-49 20,-92 50,-123 22,-21 49,-38 80,-46l0 -575 -351 0 0 700 0 51 0 36 -500 0c-8,31 -24,59 -46,81 -30,30 -74,49 -122,49 -49,0 -92,-19 -124,-49 -30,-32 -50,-76 -50,-124 0,-49 20,-92 50,-123 32,-31 75,-51 124,-51 48,0 92,20 122,51 22,21 38,48 46,79l413 0 0 -700 -99 0c-181,0 -346,-74 -465,-193 -119,-119 -192,-284 -192,-465 0,-156 54,-299 144,-412 78,-96 183,-171 303,-212 14,-178 91,-338 209,-459 131,-133 312,-217 515,-219l0 0 9 0 1 -1c173,0 332,60 458,161 101,80 181,188 228,311 60,-19 121,-25 181,-21 86,6 169,34 241,79 72,46 133,109 176,184 36,65 58,138 63,218 80,41 148,101 199,174 62,88 98,195 98,310 0,151 -61,287 -160,385 -98,99 -234,160 -385,160l-122 0 0 700 325 0c8,-31 24,-58 46,-79 30,-31 74,-51 122,-51 48,0 92,20 124,51 30,31 50,74 50,123 0,48 -20,92 -50,124 -32,30 -76,49 -124,49 -48,0 -92,-19 -122,-49 -22,-22 -38,-50 -46,-81l-413 0 0 -36 0 -51 0 -700 -351 0 0 575c31,8 59,25 81,46 30,31 49,74 49,123 0,48 -19,92 -49,124 -32,30 -76,49 -124,49 -49,0 -92,-19 -123,-49 -31,-32 -51,-76 -51,-124 0,-49 20,-92 51,-123 21,-21 48,-38 79,-46zm-1380 136c-4,-10 -10,-18 -17,-25l-3 -3c-6,-7 -15,-13 -25,-17 -10,-4 -21,-6 -32,-6 -24,0 -45,9 -61,25 -7,7 -13,16 -17,26 -4,10 -6,21 -6,33 0,12 2,23 6,33 4,10 10,19 17,27 8,7 18,13 28,17 10,4 21,6 33,6 23,0 44,-9 59,-23 8,-8 14,-18 18,-28 4,-10 7,-21 7,-32 0,-12 -3,-23 -7,-33zm1063 0c-4,-10 -10,-18 -17,-25l-3 -3c-7,-7 -15,-13 -25,-17 -10,-4 -21,-6 -32,-6 -24,0 -45,9 -61,25 -7,7 -13,16 -17,26 -4,10 -6,21 -6,33 0,12 2,23 6,33 4,10 10,19 17,27 8,7 17,13 27,17 10,4 22,6 34,6 23,0 44,-9 58,-23 8,-8 15,-18 19,-28 4,-10 6,-21 6,-32 0,-12 -2,-23 -6,-33zm1258 0c5,-10 10,-18 17,-25l3 -3c7,-7 16,-13 26,-17 9,-4 20,-6 32,-6 23,0 45,9 60,25 7,7 13,16 17,26 4,10 7,21 7,33 0,12 -3,23 -7,33 -4,10 -9,19 -17,27 -8,7 -17,13 -27,17 -10,4 -21,6 -33,6 -24,0 -45,-9 -59,-23 -8,-8 -14,-18 -19,-28 -4,-10 -6,-21 -6,-32 0,-12 2,-23 6,-33zm-975 0c4,-10 10,-18 17,-25l3 -3c7,-7 15,-13 25,-17 10,-4 21,-6 33,-6 23,0 45,9 60,25 7,7 13,16 17,26 4,10 7,21 7,33 0,12 -3,23 -7,33 -4,10 -10,19 -17,27 -8,7 -17,13 -27,17 -10,4 -21,6 -33,6 -24,0 -45,-9 -59,-23 -8,-8 -15,-18 -19,-28 -4,-10 -6,-21 -6,-32 0,-12 2,-23 6,-33z"/>
  </g>
 </g>
</svg>
