<?xml version="1.0" encoding="UTF-8"?>
<!DOCTYPE svg PUBLIC "-//W3C//DTD SVG 1.1//EN" "http://www.w3.org/Graphics/SVG/1.1/DTD/svg11.dtd">
<!-- Creator: CorelDRAW X7 -->
<svg xmlns="http://www.w3.org/2000/svg" xml:space="preserve" width="100%" height="100%" version="1.1" style="shape-rendering:geometricPrecision; text-rendering:geometricPrecision; image-rendering:optimizeQuality; fill-rule:evenodd; clip-rule:evenodd"
viewBox="0 0 5000 5000"
 xmlns:xlink="http://www.w3.org/1999/xlink">
 <defs>
  <style type="text/css">
   <![CDATA[
    .fil1 {fill:#5C56A2}
    .fil0 {fill:#FCE9CA}
   ]]>
  </style>
 </defs>
 <g id="Layer_x0020_1">
  <metadata id="CorelCorpID_0Corel-Layer"/>
  <g id="_2381310387600">
   <circle class="fil0" cx="2500" cy="2500" r="2500"/>
   <path class="fil1" d="M2051 1534l178 0 0 89 -178 0 0 -89zm494 650l0 -180 -89 0 0 180 89 0zm0 179l-89 0 0 989 89 0 0 -989zm-851 -829l178 0 0 89 -178 0 0 -89zm-356 0l178 0 0 89 -178 0 0 -89zm2592 -179l-2860 0 0 2290 2860 0 0 -2290zm-89 90l0 267 -2682 0 0 -267 2682 0zm-2682 2110l0 -1754 2682 0 0 1754 -2682 0z"/>
  </g>
 </g>
</svg>
