<?xml version="1.0" encoding="UTF-8"?>
<!DOCTYPE svg PUBLIC "-//W3C//DTD SVG 1.1//EN" "http://www.w3.org/Graphics/SVG/1.1/DTD/svg11.dtd">
<!-- Creator: CorelDRAW X7 -->
<svg xmlns="http://www.w3.org/2000/svg" xml:space="preserve" width="100%" height="100%" version="1.1" style="shape-rendering:geometricPrecision; text-rendering:geometricPrecision; image-rendering:optimizeQuality; fill-rule:evenodd; clip-rule:evenodd"
viewBox="0 0 5000 5000"
 xmlns:xlink="http://www.w3.org/1999/xlink">
 <defs>
  <style type="text/css">
   <![CDATA[
    .fil1 {fill:#5C56A2}
    .fil0 {fill:#FCE9CA}
   ]]>
  </style>
 </defs>
 <g id="Layer_x0020_1">
  <metadata id="CorelCorpID_0Corel-Layer"/>
  <g id="_2381290629440">
   <circle class="fil0" cx="2500" cy="2500" r="2500"/>
   <path class="fil1" d="M1444 3493c10,11 21,22 32,32l0 1c4,4 9,8 13,13l1 0 12 12 0 0 6 5 0 0c269,254 620,393 992,393 387,0 751,-151 1026,-423 272,-275 423,-639 423,-1026 0,-372 -139,-723 -393,-993l0 0 -5 -5 0 0 0 0 0 0 -1 -1 0 0 -1 -1 -10 -10 0 0 -1 -1 0 0 0 0 -1 -1 0 0 -1 -1 0 0 -9 -9 0 -1 -1 0 0 -1 0 0 -1 0 0 -1 -1 0 0 -1 0 0 -10 -9 -1 -1 0 0 0 -1 -1 0 0 0 -1 -1 0 0 -1 -1c-3,-3 -6,-6 -9,-9l-1 0 0 -1 0 0 -1 0 0 -1 -1 0 0 -1 -6 -5 0 0c-270,-254 -621,-393 -992,-393 -387,0 -751,151 -1024,425 -274,273 -425,637 -425,1024 0,371 139,722 393,993l0 0zm402 -614l0 -183 -333 0 0 -87 350 -498 78 0 0 498 104 0 0 87 -104 0 0 183 -95 0zm0 -270l0 -346 -241 346 241 0zm383 -109c0,-90 9,-164 28,-219 19,-56 46,-98 83,-128 37,-30 83,-45 139,-45 41,0 77,8 108,25 32,17 57,40 77,72 9,13 17,28 24,43l740 -741c-252,-235 -581,-366 -928,-366 -363,0 -705,143 -961,398 -256,256 -397,598 -397,961 0,348 130,676 365,929l741 -741c-12,-53 -19,-115 -19,-188zm489 -154c7,41 11,93 11,154 0,90 -9,163 -28,219 -18,55 -46,98 -83,128 -36,30 -83,45 -139,45 -74,0 -132,-26 -174,-79 -8,-10 -15,-21 -22,-32l-712 712c253,237 581,366 929,366 363,0 705,-141 961,-398 257,-256 398,-598 398,-961 0,-348 -130,-676 -366,-929l-775 775zm-392 155c0,39 1,74 4,105l287 -287c-7,-30 -17,-54 -29,-70 -29,-42 -66,-63 -110,-63 -43,0 -78,19 -104,55 -32,47 -48,134 -48,260zm24 213c6,15 12,28 20,38 29,42 66,63 109,63 43,0 80,-21 109,-63 30,-42 44,-125 44,-251 0,-24 0,-47 -1,-68l-281 281zm865 165l0 -183 -334 0 0 -87 351 -498 77 0 0 498 104 0 0 87 -104 0 0 183 -94 0zm0 -270l0 -346 -241 346 241 0z"/>
  </g>
 </g>
</svg>
