<?xml version="1.0" encoding="UTF-8"?>
<!DOCTYPE svg PUBLIC "-//W3C//DTD SVG 1.1//EN" "http://www.w3.org/Graphics/SVG/1.1/DTD/svg11.dtd">
<!-- Creator: CorelDRAW X7 -->
<svg xmlns="http://www.w3.org/2000/svg" xml:space="preserve" width="0.413937in" height="0.413976in" version="1.1" style="shape-rendering:geometricPrecision; text-rendering:geometricPrecision; image-rendering:optimizeQuality; fill-rule:evenodd; clip-rule:evenodd"
viewBox="0 0 4139 4140"
 xmlns:xlink="http://www.w3.org/1999/xlink">
 <defs>
  <style type="text/css">
   <![CDATA[
    .fil0 {fill:white}
   ]]>
  </style>
 </defs>
 <g id="Layer_x0020_1">
  <metadata id="CorelCorpID_0Corel-Layer"/>
  <path class="fil0" d="M1009 2005l1875 0 -704 -703 92 -92 860 860 -860 860 -92 -92 704 -704 -1875 0 0 -129zm-1009 65c0,-554 215,-1074 606,-1465 391,-390 911,-606 1463,-605 554,0 1073,215 1464,606 392,390 606,910 606,1464 0,553 -214,1073 -606,1463 -391,392 -910,607 -1464,607 -552,0 -1072,-215 -1463,-606 -391,-391 -606,-911 -606,-1464zm4010 0c0,-519 -201,-1006 -568,-1373 -367,-366 -853,-568 -1373,-568 -518,0 -1005,202 -1371,568 -367,367 -569,854 -569,1373 0,519 202,1005 569,1372 366,367 853,569 1371,569 520,0 1006,-202 1373,-569 367,-367 568,-853 568,-1372z"/>
 </g>
</svg>
