<?xml version="1.0" encoding="UTF-8"?>
<!DOCTYPE svg PUBLIC "-//W3C//DTD SVG 1.1//EN" "http://www.w3.org/Graphics/SVG/1.1/DTD/svg11.dtd">
<!-- Creator: CorelDRAW X7 -->
<svg xmlns="http://www.w3.org/2000/svg" xml:space="preserve" width="27.1654in" height="16.0448in" version="1.1" style="shape-rendering:geometricPrecision; text-rendering:geometricPrecision; image-rendering:optimizeQuality; fill-rule:evenodd; clip-rule:evenodd"
viewBox="0 0 271654 160448"
 xmlns:xlink="http://www.w3.org/1999/xlink">
 <defs>
  <style type="text/css">
   <![CDATA[
    .fil3 {fill:#E6D4AF}
    .fil2 {fill:#ECDDC1}
    .fil6 {fill:#F1E6D3}
    .fil1 {fill:#F1E8D5}
    .fil0 {fill:#F6EFE2}
    .fil5 {fill:#F6EFE3}
    .fil4 {fill:#F7F1E6}
   ]]>
  </style>
 </defs>
 <g id="Layer_x0020_1">
  <metadata id="CorelCorpID_0Corel-Layer"/>
  <g id="_2071780212400">
   <path class="fil0" d="M0 117287c41399,-21880 104603,-10503 113136,43161l-11922 0c-15475,-30726 -63471,-45620 -101214,-37315l0 -5846z"/>
   <path class="fil1" d="M0 39195c44648,20928 77922,1975 113402,-16134 47759,-24376 130328,-45389 158252,24930l0 68788c-24188,-41894 -57270,-59592 -93480,-63624 -67857,-7558 -121118,21601 -178174,-8114l0 -5846z"/>
   <path class="fil2" d="M0 43094c26508,13805 52358,11774 79246,6399 31858,-6368 64108,-14589 94398,-13094 47421,2339 80979,30984 98010,73808l0 50241 -159716 0c-12673,-45156 -69810,-56501 -111938,-42908l0 -74446z"/>
   <path class="fil3" d="M223026 127889c5730,13415 -7815,23464 -23456,26359 -31963,5917 -50721,-32502 -42515,-43242 7880,-10313 55554,-7507 65971,16883z"/>
   <path class="fil4" d="M14642 31950c-5151,-6796 175,-15218 7753,-19837 15486,-9439 31446,9582 28983,17411 -2365,7519 -27372,14780 -36736,2426z"/>
   <path class="fil5" d="M56224 19922c-2388,0 -4323,-1699 -4323,-3796 0,-2096 1935,-3796 4323,-3796 2387,0 4322,1700 4322,3796 0,2097 -1935,3796 -4322,3796z"/>
   <path class="fil4" d="M59575 134124c4009,0 7259,3250 7259,7259 0,4008 -3250,7258 -7259,7258 -4008,0 -7258,-3250 -7258,-7258 0,-4009 3250,-7259 7258,-7259z"/>
   <path class="fil6" d="M57172 135397c3306,0 5985,2680 5985,5986 0,3305 -2679,5985 -5985,5985 -815,0 -1592,-163 -2301,-458 1267,1079 2910,1731 4704,1731 4009,0 7259,-3250 7259,-7258 0,-4009 -3250,-7259 -7259,-7259 -1794,0 -3437,652 -4704,1731 709,-295 1486,-458 2301,-458z"/>
  </g>
 </g>
</svg>
