<?xml version="1.0" encoding="UTF-8"?>
<!DOCTYPE svg PUBLIC "-//W3C//DTD SVG 1.1//EN" "http://www.w3.org/Graphics/SVG/1.1/DTD/svg11.dtd">
<!-- Creator: CorelDRAW X7 -->
<svg xmlns="http://www.w3.org/2000/svg" xml:space="preserve" width="0.413937in" height="0.413937in" version="1.1" style="shape-rendering:geometricPrecision; text-rendering:geometricPrecision; image-rendering:optimizeQuality; fill-rule:evenodd; clip-rule:evenodd"
viewBox="0 0 4139 4139"
 xmlns:xlink="http://www.w3.org/1999/xlink">
 <defs>
  <style type="text/css">
   <![CDATA[
    .fil0 {fill:#6C87C3}
   ]]>
  </style>
 </defs>
 <g id="Layer_x0020_1">
  <metadata id="CorelCorpID_0Corel-Layer"/>
  <path class="fil0" d="M605 605c-390,392 -605,912 -605,1465 0,552 215,1072 605,1464 392,390 912,605 1465,605 552,0 1072,-215 1464,-605 390,-392 605,-912 605,-1464 0,-553 -215,-1073 -605,-1465 -392,-390 -912,-605 -1464,-605 -553,0 -1073,215 -1465,605zm415 1467l729 729 1370 -1373 -89 -89c-431,430 -850,850 -1281,1278l-637 -637 -92 92zm2991 -2c0,518 -202,1006 -568,1373 -367,366 -855,568 -1373,568 -518,0 -1006,-202 -1373,-568 -367,-367 -569,-855 -569,-1373 0,-518 202,-1006 569,-1373 367,-367 855,-569 1373,-569 518,0 1006,202 1373,569 366,367 568,855 568,1373z"/>
 </g>
</svg>
