<?xml version="1.0" encoding="UTF-8"?>
<!DOCTYPE svg PUBLIC "-//W3C//DTD SVG 1.1//EN" "http://www.w3.org/Graphics/SVG/1.1/DTD/svg11.dtd">
<!-- Creator: CorelDRAW X7 -->
<svg xmlns="http://www.w3.org/2000/svg" xml:space="preserve" width="4.62339in" height="1.22661in" version="1.1" style="shape-rendering:geometricPrecision; text-rendering:geometricPrecision; image-rendering:optimizeQuality; fill-rule:evenodd; clip-rule:evenodd"
viewBox="0 0 46234 12266"
 xmlns:xlink="http://www.w3.org/1999/xlink">
 <defs>
  <style type="text/css">
   <![CDATA[
    .fil0 {fill:#FEFEFE}
    .fil1 {fill:#B3B3B3}
   ]]>
  </style>
 </defs>
 <g id="Layer_x0020_1">
  <metadata id="CorelCorpID_0Corel-Layer"/>
  <g id="_2071923723952">
   <path class="fil0" d="M6132 1l33970 -1c3372,0 6132,2760 6132,6132 0,3373 -2759,6133 -6132,6133l-33970 1c-3372,0 -6132,-2760 -6132,-6132 0,-3373 2759,-6133 6132,-6133z"/>
   <path class="fil1" d="M38055 5998l3929 0 -1475 -1474 192 -193 1803 1802 -1803 1803 -192 -192 1475 -1477 -3929 0 0 -269zm-2114 135c0,-1159 450,-2250 1270,-3069 820,-818 1908,-1271 3067,-1268 1159,0 2247,449 3067,1270 820,817 1270,1908 1270,3067 0,1159 -449,2249 -1269,3067 -821,820 -1909,1271 -3068,1271 -1159,1 -2247,-451 -3067,-1270 -820,-819 -1270,-1909 -1270,-3068zm8404 0c0,-1087 -423,-2108 -1190,-2877 -769,-767 -1789,-1190 -2877,-1190 -1087,0 -2107,423 -2875,1190 -769,769 -1191,1790 -1191,2877 0,1087 422,2107 1191,2876 768,768 1788,1192 2875,1192 1088,0 2108,-424 2877,-1192 768,-769 1190,-1789 1190,-2876z"/>
   <path class="fil1" d="M6132 1l33970 -1c3372,0 6132,2760 6132,6132 0,3373 -2759,6134 -6132,6134l-33970 0c-3372,0 -6132,-2760 -6132,-6132 0,-3373 2759,-6133 6132,-6133zm0 269c-1612,0 -3078,660 -4140,1722 -1063,1063 -1723,2529 -1723,4141 0,1560 621,3040 1723,4141 1063,1063 2528,1723 4140,1723l33970 1c1611,0 3077,-660 4140,-1724 1063,-1063 1723,-2529 1723,-4140 0,-1560 -621,-3040 -1723,-4142 -1063,-1063 -2529,-1723 -4140,-1723l-33970 1z"/>
  </g>
 </g>
</svg>
