<?xml version="1.0" encoding="UTF-8"?>
<!DOCTYPE svg PUBLIC "-//W3C//DTD SVG 1.1//EN" "http://www.w3.org/Graphics/SVG/1.1/DTD/svg11.dtd">
<!-- Creator: CorelDRAW X7 -->
<svg xmlns="http://www.w3.org/2000/svg" xml:space="preserve" width="1.84874in" height="0.585315in" version="1.1" style="shape-rendering:geometricPrecision; text-rendering:geometricPrecision; image-rendering:optimizeQuality; fill-rule:evenodd; clip-rule:evenodd"
viewBox="0 0 18487 5853"
 xmlns:xlink="http://www.w3.org/1999/xlink">
 <defs>
  <style type="text/css">
   <![CDATA[
    .fil0 {fill:#FEFEFE}
    .fil4 {fill:#6C87C3}
    .fil2 {fill:#9DAFD7}
    .fil1 {fill:#DEE4F2}
    .fil3 {fill:#6C87C3;fill-rule:nonzero}
   ]]>
  </style>
 </defs>
 <g id="Layer_x0020_1">
  <metadata id="CorelCorpID_0Corel-Layer"/>
  <g id="_2071907997600">
   <path class="fil0" d="M2926 0l12635 0c1609,0 2926,1317 2926,2926 0,1610 -1316,2927 -2926,2927l-12635 0c-1609,0 -2926,-1317 -2926,-2926 0,-1610 1317,-2927 2926,-2927z"/>
   <polygon class="fil1" points="12919,847 12750,847 12750,5006 12919,5006 "/>
   <polygon class="fil2" points="12665,847 12750,847 12750,5006 12665,5006 "/>
   <path class="fil3" d="M3263 3195l0 155 -31 0c-81,0 -156,-34 -225,-102 -41,55 -113,90 -216,105 -19,3 -40,5 -61,7 -21,1 -44,2 -66,2 -28,0 -56,-1 -85,-3 -28,-3 -56,-7 -83,-12 -28,-5 -53,-12 -79,-21 -25,-8 -48,-18 -68,-29l-67 -40 77 -135 68 39c19,11 43,20 70,27 28,7 57,11 89,14 31,3 62,5 94,4 32,-1 61,-3 89,-7 31,-5 57,-12 78,-21 21,-9 34,-19 39,-31 8,-9 9,-22 4,-39 -6,-18 -15,-37 -28,-57l-308 -469 131 -85 318 486c17,23 33,48 50,73 17,25 34,47 53,68 19,20 38,37 59,51 20,13 43,20 67,20l31 0zm607 153c-52,0 -98,-7 -138,-22 -39,-15 -73,-37 -101,-66 -28,31 -61,54 -99,68 -38,15 -76,22 -114,22l-181 0 0 -155 181 0c8,0 20,-2 35,-4 16,-2 31,-9 45,-19 15,-10 28,-25 40,-45 11,-21 16,-48 16,-83l0 -4 0 -245 155 0 0 245c0,53 13,92 38,117 25,25 66,37 123,37 8,0 19,-2 34,-5 15,-3 31,-9 46,-20 15,-10 28,-25 39,-46 11,-20 17,-48 17,-83l0 -245 154 0 0 245c0,53 13,93 39,118 25,25 67,37 124,37 8,0 20,-1 35,-5 15,-3 29,-10 44,-22 14,-10 27,-26 37,-46 11,-20 16,-48 16,-82 0,-12 -1,-27 -3,-45 -2,-18 -5,-37 -8,-58 -3,-21 -6,-42 -10,-64 -4,-21 -7,-41 -11,-60 -4,-19 -8,-36 -11,-51 -3,-15 -6,-26 -8,-34l147 -46c1,3 3,12 6,26 4,13 7,31 12,51 4,21 9,44 13,69 5,25 9,50 14,76 4,25 7,50 10,74 2,23 4,44 4,62 0,53 -8,98 -26,136 -16,39 -38,71 -66,96 -27,26 -58,45 -92,58 -35,13 -69,19 -103,20 -53,0 -99,-8 -140,-24 -40,-15 -74,-38 -102,-67 -28,30 -61,52 -99,67 -37,15 -75,22 -112,22zm337 -1148l-117 114 -115 -114 118 -117 114 117zm40 371l-130 -131 128 -133 133 133 -131 131zm-315 -2l-129 -131 128 -133 133 133 -132 131zm1528 1235c-73,0 -140,-16 -200,-48 -60,-32 -108,-77 -145,-135 -15,-24 -29,-55 -43,-93 -14,-38 -22,-84 -24,-138 -3,-54 3,-116 18,-186 14,-70 43,-149 85,-237l139 67c-25,52 -46,103 -60,151 -14,48 -24,94 -27,136 -4,43 -2,82 5,119 7,36 19,69 37,98 23,35 53,62 91,82 37,19 79,29 124,29l59 0c63,0 114,-7 153,-20 40,-13 71,-32 93,-56 22,-24 37,-54 46,-88 8,-34 12,-72 12,-114l0 -1193 153 0 0 1193c0,287 -152,432 -457,433l-59 0zm1153 -454c-52,-1 -97,-5 -135,-12 -37,-7 -69,-18 -95,-32 -26,-14 -47,-31 -62,-52 -16,-22 -28,-46 -37,-75 -8,-28 -14,-59 -17,-94 -3,-35 -4,-74 -4,-117l0 -790 155 0 0 790c0,48 2,86 5,116 3,30 11,52 24,68 13,17 32,27 58,33 26,6 62,9 108,10l0 155zm617 -2c-51,0 -97,-7 -137,-22 -40,-15 -74,-37 -101,-66 -29,31 -62,54 -99,68 -38,15 -76,22 -114,22l-181 0 0 -155 181 0c8,0 19,-2 35,-4 15,-2 30,-9 45,-19 15,-10 28,-25 39,-46 11,-20 17,-47 17,-82l0 -4 0 -245 155 0 0 245c0,53 12,92 37,117 25,25 66,37 123,37 8,0 20,-2 35,-5 15,-3 30,-9 45,-20 15,-10 28,-25 40,-46 11,-20 16,-48 16,-83l0 -245 154 0 1 245c0,53 12,93 38,118 26,25 67,37 124,37 9,0 21,-1 35,-5 15,-3 30,-11 44,-22 15,-10 27,-26 37,-46 11,-20 16,-48 16,-82 0,-12 -1,-27 -3,-45 -2,-18 -4,-37 -7,-58 -3,-21 -6,-42 -10,-64 -4,-21 -8,-41 -12,-60 -4,-19 -7,-36 -11,-51 -3,-15 -6,-26 -8,-34l147 -46c1,3 3,12 7,26 3,13 7,31 11,51 5,21 9,44 14,69 5,25 9,50 13,76 4,25 8,50 10,73 3,24 4,45 4,63 0,52 -8,98 -25,136 -17,39 -39,71 -66,96 -27,26 -58,45 -92,58 -35,13 -69,19 -104,20 -52,0 -99,-8 -139,-24 -40,-15 -74,-38 -102,-67 -29,30 -62,52 -99,67 -38,15 -75,22 -113,22zm762 458l0 -156 113 0c56,0 105,-6 147,-20 41,-13 75,-34 102,-62 27,-28 47,-63 60,-107 13,-43 19,-94 19,-154l0 -512 155 0 0 512c0,78 -10,148 -30,210 -21,62 -51,114 -92,156 -40,43 -91,76 -151,98 -61,23 -131,35 -210,35l-113 0zm915 -457l-155 0 0 -1171 155 0 0 1171zm1155 1l-35 0c-53,0 -101,-11 -146,-31 0,76 -10,145 -31,205 -22,60 -53,111 -94,153 -41,42 -92,74 -151,96 -60,21 -129,33 -207,33l-113 0 0 -156 113 0c56,0 105,-6 147,-20 41,-13 75,-34 102,-62 27,-28 47,-63 60,-107 13,-43 19,-94 19,-154l0 -512 155 0 0 272c0,30 7,54 20,72 13,17 28,29 45,38 16,8 33,13 48,15 16,2 27,3 33,3l35 0 0 155zm-400 -887l140 -142 143 143 -142 141 -141 -142zm968 771c4,0 9,0 16,-1 7,0 14,-2 23,-6 7,-4 15,-10 23,-18 8,-8 15,-19 22,-34 6,-14 11,-33 15,-55 4,-23 6,-51 6,-84 0,-6 0,-16 -1,-28 -1,-14 -4,-28 -8,-44 -4,-17 -9,-33 -17,-50 -7,-17 -17,-33 -30,-47 -12,-14 -27,-26 -45,-35 -18,-9 -40,-13 -66,-13 -24,0 -45,4 -61,12 -17,9 -31,21 -43,35 -11,15 -21,32 -28,53 -8,19 -15,41 -22,64 -6,24 -13,48 -19,73 -7,26 -15,51 -23,76 28,15 54,28 78,41 24,12 47,23 68,32 21,9 40,16 58,21 19,6 37,8 54,8zm-62 -570c54,0 100,11 140,31 39,21 72,48 99,83 26,34 45,74 58,119 13,45 20,91 20,139 0,53 -5,99 -14,137 -9,39 -21,71 -35,97 -15,26 -32,47 -50,63 -18,15 -37,27 -56,36 -19,8 -37,13 -55,16 -17,3 -32,4 -45,4 -26,0 -52,-2 -77,-8 -24,-6 -50,-13 -76,-23 -25,-11 -52,-23 -80,-38 -29,-14 -60,-31 -94,-50 -44,53 -102,80 -173,80l-94 0 0 -155 94 0c21,0 38,-8 52,-23 13,-16 24,-36 34,-60 10,-25 19,-53 28,-85 8,-31 17,-64 28,-97 11,-34 23,-66 38,-98 15,-32 33,-60 56,-85 23,-24 51,-44 83,-60 33,-15 72,-23 119,-23zm352 1141l0 -155 113 0c57,0 105,-6 147,-20 41,-13 75,-34 103,-62 27,-28 46,-63 59,-107 13,-43 20,-94 20,-154l0 -512 155 0 0 512c0,78 -11,148 -31,210 -20,62 -51,114 -92,156 -40,43 -90,76 -151,98 -60,23 -130,34 -210,34l-113 0z"/>
   <path class="fil4" d="M14181 1462c-390,392 -605,912 -605,1464 0,553 215,1073 605,1465 392,389 912,605 1464,605 553,0 1073,-216 1465,-605 389,-392 605,-912 605,-1465 0,-552 -216,-1072 -605,-1464 -392,-390 -912,-605 -1465,-605 -552,0 -1072,215 -1464,605zm414 1467l729 728 1371 -1373 -89 -89c-431,431 -851,850 -1282,1279l-637 -637 -92 92zm2992 -3c0,518 -202,1006 -569,1373 -367,367 -855,569 -1373,569 -518,0 -1006,-202 -1373,-569 -366,-367 -568,-855 -568,-1373 0,-518 202,-1006 568,-1373 367,-366 855,-568 1373,-568 518,0 1006,202 1373,568 367,367 569,855 569,1373z"/>
   <path class="fil4" d="M2926 0l12635 0c1609,0 2926,1317 2926,2926l0 1c0,1609 -1317,2926 -2926,2926l-12635 0c-1609,0 -2926,-1317 -2926,-2926l0 -1c0,-1609 1317,-2926 2926,-2926zm12635 128l-12635 0 0 1c-769,0 -1468,315 -1976,822 -507,507 -822,1206 -822,1975l0 1c0,769 315,1469 822,1976 508,507 1207,822 1976,822l0 0 12635 0c769,0 1468,-315 1976,-822 507,-508 822,-1207 822,-1976l0 -1c0,-769 -315,-1468 -822,-1976 -507,-507 -1207,-822 -1976,-822l0 0z"/>
  </g>
 </g>
</svg>
