<?xml version="1.0" encoding="UTF-8"?>
<!DOCTYPE svg PUBLIC "-//W3C//DTD SVG 1.1//EN" "http://www.w3.org/Graphics/SVG/1.1/DTD/svg11.dtd">
<!-- Creator: CorelDRAW X7 -->
<svg xmlns="http://www.w3.org/2000/svg" xml:space="preserve" width="0.867402in" height="0.86752in" version="1.1" style="shape-rendering:geometricPrecision; text-rendering:geometricPrecision; image-rendering:optimizeQuality; fill-rule:evenodd; clip-rule:evenodd"
viewBox="0 0 8674 8675"
 xmlns:xlink="http://www.w3.org/1999/xlink">
 <defs>
  <style type="text/css">
   <![CDATA[
    .fil0 {fill:#B3B3B3}
   ]]>
  </style>
 </defs>
 <g id="Layer_x0020_1">
  <metadata id="CorelCorpID_0Corel-Layer"/>
  <path class="fil0" d="M2114 4202l3928 0 -1474 -1474 192 -193 1803 1803 -1803 1802 -192 -192 1474 -1476 -3928 0 0 -270zm-2114 136c0,-1160 450,-2250 1270,-3069 820,-819 1908,-1271 3066,-1269 1160,0 2248,450 3068,1270 820,818 1270,1908 1270,3068 0,1158 -450,2248 -1270,3066 -820,820 -1908,1271 -3068,1271 -1158,1 -2246,-451 -3066,-1270 -820,-818 -1270,-1909 -1270,-3067zm8404 0c0,-1087 -423,-2108 -1191,-2877 -769,-768 -1788,-1191 -2877,-1191 -1087,0 -2106,423 -2874,1191 -769,769 -1192,1790 -1192,2877 0,1087 423,2107 1192,2875 768,768 1788,1192 2875,1192 1088,0 2108,-424 2877,-1192 767,-769 1190,-1788 1190,-2875z"/>
 </g>
</svg>
