<?xml version="1.0" encoding="UTF-8"?>
<!DOCTYPE svg PUBLIC "-//W3C//DTD SVG 1.1//EN" "http://www.w3.org/Graphics/SVG/1.1/DTD/svg11.dtd">
<!-- Creator: CorelDRAW X7 -->
<svg xmlns="http://www.w3.org/2000/svg" xml:space="preserve" width="0.428622in" height="0.428622in" version="1.1" style="shape-rendering:geometricPrecision; text-rendering:geometricPrecision; image-rendering:optimizeQuality; fill-rule:evenodd; clip-rule:evenodd"
viewBox="0 0 4286 4286"
 xmlns:xlink="http://www.w3.org/1999/xlink">
 <defs>
  <style type="text/css">
   <![CDATA[
    .fil0 {fill:#DABA76}
   ]]>
  </style>
 </defs>
 <g id="Layer_x0020_1">
  <metadata id="CorelCorpID_0Corel-Layer"/>
  <path class="fil0" d="M3390 786c-161,-4 -322,91 -328,310 -14,443 529,537 236,1427l-241 737 -659 -1941c-10,-30 1,-47 38,-47l187 0c9,0 17,-8 17,-19l0 -110c0,-10 -8,-19 -17,-18 -353,15 -704,15 -1052,0 -10,-1 -18,8 -18,18l0 111c0,10 8,18 18,18l187 0c42,0 53,14 63,41l271 740 -407 1229 -670 -1971c-8,-25 2,-39 26,-39l213 0c10,0 18,-8 18,-18l0 -111c0,-10 -8,-19 -18,-18 -223,12 -448,14 -658,16 626,-964 1960,-1121 2794,-355zm374 480c142,261 222,559 222,877 0,697 -387,1304 -958,1617l574 -1628c89,-252 172,-592 162,-866l0 0 0 0zm-1004 2614c-193,68 -400,106 -617,106 -186,0 -366,-28 -536,-79l568 -1627 585 1600 0 0 0 0zm-1405 -71c-624,-296 -1055,-930 -1055,-1666 0,-272 60,-531 166,-764l889 2430zm788 -3682c1113,0 2016,903 2016,2016 0,1113 -903,2016 -2016,2016 -1113,0 -2015,-903 -2015,-2016 0,-1113 902,-2016 2015,-2016zm0 -127c1183,0 2143,960 2143,2143 0,1183 -960,2143 -2143,2143 -1183,0 -2143,-960 -2143,-2143 0,-1183 960,-2143 2143,-2143z"/>
 </g>
</svg>
