<?xml version="1.0" encoding="UTF-8"?>
<!DOCTYPE svg PUBLIC "-//W3C//DTD SVG 1.1//EN" "http://www.w3.org/Graphics/SVG/1.1/DTD/svg11.dtd">
<!-- Creator: CorelDRAW X7 -->
<svg xmlns="http://www.w3.org/2000/svg" xml:space="preserve" width="13.54in" height="6.61665in" version="1.1" style="shape-rendering:geometricPrecision; text-rendering:geometricPrecision; image-rendering:optimizeQuality; fill-rule:evenodd; clip-rule:evenodd"
viewBox="0 0 135400 66166"
 xmlns:xlink="http://www.w3.org/1999/xlink">
 <defs>
  <style type="text/css">
   <![CDATA[
    .fil17 {fill:#FEFEFE}
    .fil18 {fill:#9DAFD7}
    .fil19 {fill:#B0BEDF}
    .fil23 {fill:#C5CFE7}
    .fil24 {fill:#C9D3E9}
    .fil14 {fill:#D2AE6D}
    .fil1 {fill:#DDE2F1}
    .fil21 {fill:#DEC494}
    .fil13 {fill:#E3CEA7}
    .fil0 {fill:#E9EEF5}
    .fil6 {fill:#F1E6D3}
    .fil20 {fill:#F2F5F9}
    .fil5 {fill:#F7F1E6}
    .fil16 {fill:#F7F1E8}
    .fil22 {fill:white}
    .fil12 {fill:white}
    .fil8 {fill:#9DAFD7;fill-rule:nonzero}
    .fil9 {fill:#C9D3E9;fill-rule:nonzero}
    .fil11 {fill:#DCC18F;fill-rule:nonzero}
    .fil4 {fill:#DEC495;fill-rule:nonzero}
    .fil3 {fill:#E1E6F3;fill-rule:nonzero}
    .fil7 {fill:#E3CEA7;fill-rule:nonzero}
    .fil15 {fill:#F1E6D3;fill-rule:nonzero}
    .fil10 {fill:#F2F5F9;fill-rule:nonzero}
    .fil2 {fill:white;fill-rule:nonzero}
   ]]>
  </style>
 </defs>
 <g id="Layer_x0020_1">
  <metadata id="CorelCorpID_0Corel-Layer"/>
  <g id="_2071896186608">
   <path class="fil0" d="M12932 37704c8095,95 14023,-897 18014,-1963 5491,-1467 3478,5871 3042,10012 -1553,14736 10484,16438 20121,14408 9673,-2037 17137,-8863 25027,-12072 4655,-1893 10025,-1008 10370,2951 442,5050 2857,12194 13520,8530 7169,-2459 13195,-6427 17524,-10504 15204,-14317 6619,-27073 -12248,-27474 -12396,-263 -19218,8963 -27678,-1446 -2017,-2482 -4120,-5501 -6674,-8311 -8191,-9009 -17269,-10733 -27526,-7134 -2640,926 -5265,1909 -8969,2100 -5313,273 -7583,-3270 -16379,-6152 -19575,-6413 -31650,36775 -8144,37055z"/>
   <path class="fil1" d="M36796 50799c-4416,-509 -6503,327 -6503,327 6661,-9494 -9428,-7335 -13120,-4433 0,0 612,-2058 -570,-2966 -3490,-2680 -16704,6203 -5369,7873 1515,223 3535,292 6224,103 -340,1836 409,8416 13289,5192 0,0 2554,3181 5383,2159 3107,-1122 5971,-7643 666,-8255z"/>
   <path class="fil1" d="M107129 20439c-595,5 -1355,186 -2326,640 -171,-5137 -5275,-5102 -8990,-3463 0,0 120,-1339 -1433,-2097 -1926,-941 -8507,-860 -8051,2545 179,1339 1712,2464 4453,1550 2167,3782 8947,8580 11132,5430 6465,3879 9809,-4647 5215,-4605z"/>
   <path class="fil2" d="M11144 17420c1189,-40 2142,-1015 2149,-2226l19 0c7,1211 960,2186 2149,2226 -1194,37 -2149,1023 -2149,2239l-20 0c0,-1216 -956,-2202 -2148,-2239z"/>
   <path class="fil3" d="M58795 61748c574,-19 1034,-490 1038,-1075l9 0c4,585 464,1056 1038,1075 -577,18 -1038,494 -1038,1082l-9 0c0,-588 -463,-1064 -1038,-1082z"/>
   <g>
    <path class="fil4" d="M104517 40657c33,212 232,359 446,323 214,-35 359,-239 326,-451 -31,-215 -231,-360 -446,-324 -213,36 -360,235 -326,452z"/>
    <g>
     <path class="fil5" d="M121257 57480c1654,51 2952,1434 2901,3087 -52,1654 -1434,2952 -3088,2901 -1653,-52 -2952,-1434 -2900,-3088 51,-1653 1433,-2952 3087,-2900z"/>
     <path class="fil6" d="M120249 57974c1364,42 2435,1182 2392,2546 -42,1363 -1182,2434 -2546,2392 -336,-11 -654,-88 -943,-219 509,462 1178,752 1918,775 1654,51 3036,-1247 3088,-2901 51,-1653 -1247,-3036 -2901,-3087 -740,-23 -1426,224 -1963,653 296,-113 619,-170 955,-159z"/>
    </g>
    <path class="fil7" d="M82611 39603l-1763 4162 -1479 4269c0,0 3241,1391 7125,1780l-725 -1108c0,0 2208,582 6721,-503 -2630,-3811 -4666,-4846 -4666,-4846l1285 -341c-3151,-2291 -6498,-3413 -6498,-3413l0 0 0 0z"/>
    <path class="fil2" d="M82019 41000l-1171 2765 -982 2836c0,0 2153,923 4733,1183l-483 -738c0,0 1469,387 4467,-334 -1748,-2530 -3099,-3218 -3099,-3218l852 -228c-2094,-1523 -4317,-2266 -4317,-2266z"/>
    <polygon class="fil8" points="83455,38825 79475,49173 78240,48702 82219,38353 "/>
    <path class="fil9" d="M68571 46989c0,0 1525,8705 11005,10670 885,183 1503,-888 880,-1547 -1719,-1822 -3718,-4798 -2983,-8311l-8902 -812 0 0z"/>
    <path class="fil9" d="M73873 33200c0,0 6978,-5465 15350,-624 782,453 522,1663 -382,1739 -2503,211 -5988,1097 -7795,4201l-7173 -5316z"/>
    <path class="fil2" d="M82486 37928c-2486,-2054 -14014,-8069 -25725,-12536 -13248,-5051 -30960,-4739 -31671,-2891 -709,1850 12263,13864 25511,18916 12498,4765 24325,7655 27552,7781l4333 -11270 0 0 0 0z"/>
    <path class="fil10" d="M58612 30124c-2617,-546 -5189,1152 -5749,3790 -559,2640 1110,5223 3727,5768 2615,545 5189,-1153 5749,-3792 557,-2641 -1110,-5222 -3727,-5766z"/>
    <path class="fil9" d="M80927 41987c3446,1314 5968,3084 5635,3954 -336,871 -3403,513 -6849,-802 -3447,-1314 -5967,-3084 -5633,-3956 335,-868 3401,-510 6847,804z"/>
    <path class="fil11" d="M68133 18190c142,504 -1051,3376 -1664,4798 -304,703 -371,790 -1123,560l-1651 -506 1045 -4654 2153 -1104c-5,-2 1038,190 1240,906z"/>
    <path class="fil12" d="M61337 19680c0,0 -1132,-1224 -1459,-1855 -330,-629 -694,-2115 -812,-2759 0,0 579,-895 1366,-511 0,0 796,1940 1227,2343 432,404 1038,1003 1038,1003l-742 1948 -618 -169 0 0 0 0z"/>
    <path class="fil13" d="M59716 17457c0,0 1068,-687 1685,-902 0,0 205,-9 258,343 0,0 -614,925 -1526,1330 0,0 -377,-242 -417,-771l0 0 0 0z"/>
    <path class="fil12" d="M62709 17600c0,0 -2129,1616 -1507,4613 0,0 -1826,925 -2300,1427 -473,499 -1010,2556 -1010,2556 0,0 -71,28 -174,80 30,124 147,383 575,647 242,150 585,301 1065,433 82,-42 159,-89 232,-136 0,0 624,-1648 752,-2189l1656 -382 -23 184c-56,310 -96,645 -106,985 0,0 0,1211 687,2328 0,0 -19,69 -45,188 98,51 310,148 597,177l195 11c314,-2 717,-92 1137,-421 -1,-76 -5,-153 -14,-231 0,0 -536,-1227 -492,-1767l1161 -2494c0,0 613,-460 602,-1843l129 -3460 -3117 -706 0 0 0 0z"/>
    <path class="fil14" d="M62554 19797c1,233 -186,422 -417,424 -231,1 -418,-184 -418,-417 -1,-233 187,-421 417,-423 232,-1 419,184 417,415l1 1 0 0z"/>
    <path class="fil7" d="M63108 28511l-14 1 -5 0 -8 -3 -10 -1 -3 1 -13 -3 0 0 -13 -2 -6 -1 -7 -1 -9 -1 -4 -2 -12 -1 0 0 -12 -2 -6 -1 -8 -2 -9 0 -2 -1 -11 -2 -2 -1 -12 -2 -4 -2 -7 -1 -10 -1 -2 -1 -12 -4 -1 2 -11 -4 -5 0 -6 -4 -9 0 -2 -1 -11 -4 -3 1 -8 -3 -7 -1 -4 -2 -9 -3 -2 -1 -11 -1 -2 -1 -6 -2 -9 -5 -5 1 -8 -2 0 0 -11 -4 -2 -1 -9 -3 -6 -1 -2 -1 -11 -4 -8 -2 -4 -2 -7 -2 -5 -3 -3 -1 -8 -3 -2 -1 -8 -2 -4 -2 -6 -1 -5 -3 -3 1 -7 -4 -2 -1 -7 -2 -4 -2 -4 -2 -7 -2 -1 -1 -8 -4 -3 1 -6 -4 -4 -2 -3 -2 -7 -1 -2 -1 -5 -4 -2 -1 -8 -1 -3 -3 -2 -1 -6 -3 -1 -1 -7 -1 -2 -1 -3 -2 -1 -1 -4 -2 -4 -2 -5 1 -2 -1 -5 -4 -2 -1 -5 -2 -3 -2 -2 -1 -4 -2 -2 -2 -5 0 -1 -1 -4 -2 -4 -2 -2 -2 -4 -2 -6 -3 0 0 -3 -2c-32,-15 -48,-27 -55,-31 -87,-56 -113,-172 -58,-258 57,-89 172,-115 259,-60 34,22 804,485 1647,-258 79,-65 196,-59 264,17 66,79 59,198 -18,266l-110 90 -18 15 -3 1 -19 14 -19 15 -3 1 -17 13 -4 3 -16 10 -6 5 -13 10 -7 3 -13 11 -8 5 -12 7 -11 6 -8 5 -12 9 -7 3 -14 10 -5 5 -15 8 -3 3 -17 8 -2 2 -20 12 -1 -1 -19 11 0 0 -19 10 -3 1 -15 9 -6 2 -15 8 -4 3 -14 7 -7 4 -12 7 -19 6 -10 6 -8 4 -12 5 -8 3 -13 6 -4 2 -16 6 -2 1 -18 8 0 0 -20 9 0 0 -20 6 0 0 -16 7 -5 1 -14 5 -6 1 -13 6 -5 2 -13 2 -7 4 -10 5 -10 1 -7 4 -13 2 -6 3 -12 5 -5 -1 -16 4 -2 1 -16 6 -2 -1 -18 4 0 0 -18 6 0 0 -16 3 -2 1 -14 3 -6 2 -14 1 -6 2 -9 2 -8 2 -8 2 -10 2 -8 0 -10 2 -6 2 -13 3 -5 0 -13 2 -3 0 -15 3 -2 1 -16 1 0 0 -16 0 -3 1 -13 3 -2 -1 -14 2 -3 0 -13 1 -6 1 -10 1 -6 1 -10 -1 -7 1 -8 0 -9 4 -7 -2 -11 1 -5 0 -10 1 -6 -1 -11 -1 -3 0 -13 2 -1 2 -15 -2 -195 -11 -2 1 1 -1z"/>
    <path class="fil13" d="M63964 26319c-623,543 -1983,553 -2038,246 -98,-242 -71,-550 -71,-550 972,-578 2092,-29 2092,-29 0,0 81,121 17,333l0 0 0 0z"/>
    <path class="fil7" d="M59589 27406c-14,-1 -30,-1 -45,-5l-186 -46 -21 -7 -22 -5 -4 -2 -17 -5 -23 -6 -33 -11 -10 0 -21 -7 -22 -8 -17 -5 -5 0 -19 -6 -41 -13 -4 -2 -17 -5 -19 -6 -21 -7 -11 -4 -9 -2 -18 -8 -19 -5 -18 -5 -2 -2 -18 -8 -19 -5 -18 -9 -5 0 -13 -5 -18 -7 -17 -6 -12 -4 -26 -9 -16 -7 -17 -7 0 0 -16 -6 -18 -8 -17 -7 -4 -3 -12 -4 -16 -7 -17 -7 -10 -4 -6 -3 -14 -6 -15 -8 -17 -7 0 0 -14 -6 -15 -8 -15 -7 -6 -1 -10 -5 -13 -8 -14 -5 -12 -7 -4 -2 -15 -5 -13 -8 -14 -8 0 0 -14 -5 -13 -8 -13 -7 -6 -3 -6 -4 -13 -7 -15 -7 -9 -5 -2 -1 -13 -8 -11 -6 -14 -8 -2 -1 -9 -5 -11 -9 -13 -7 -5 -3 -7 -4 -11 -6 -39 -25 -17 -13 0 0 -19 -11 -16 -12 -2 -1 -18 -13 -12 -9 -7 -4 -15 -11 -11 -9 -5 -3 -16 -13 -9 -6 -8 -7 -14 -11 -7 -6 -9 -7 -13 -10 -6 -6 -8 -7 -14 -11 -3 -4 -9 -9 -14 -12 -2 -1 -10 -11 -12 -12 0 0 -11 -11 -13 -10 0 -3 -13 -9 -7 -10 -2 -4 -10 -10 -8 -8 -3 -3 -10 -11 -6 -6 -2 -4 -9 -12 -5 -5 -4 -5 -9 -12 -5 -5 -4 -5 -8 -11 -2 -1 -6 -9 -6 -10 -2 -2 -6 -8 -6 -12 -1 -1 -6 -8 -8 -9 -4 -10 -7 -9 1 -1 -5 -10 -6 -8 -2 -1 -4 -9 -4 -8 -2 -1 -4 -9 -3 -4 0 -3 -5 -11 -3 -4 0 -3 -5 -10 0 -3 -3 -4 -4 -7 -1 -3 -2 -6 -3 -7 -1 -1 -1 -8 -3 -7 0 0 -5 -7 -1 -6 -3 -8 -2 -5 0 0 -1 -6 -2 -6 0 0 -1 -8 -3 -4 1 -2 -10 -64c-9,-104 69,-193 169,-201 100,-11 188,64 199,164 7,24 133,520 1558,862 101,23 162,126 137,226 -19,87 -98,143 -181,144l0 -1 0 0z"/>
    <path class="fil13" d="M59293 23317c0,0 963,1001 1049,1714 88,711 -1767,-847 -1767,-847 0,0 -7,-637 718,-867z"/>
    <path class="fil7" d="M62299 23670c-79,0 -153,-50 -177,-132 -286,-934 -945,-1136 -971,-1143 -100,-29 -156,-132 -127,-232 28,-98 130,-158 230,-129 35,10 876,253 1223,1391 29,98 -25,203 -123,236 -19,4 -37,8 -55,9l0 0 0 0z"/>
    <polygon class="fil15" points="61998,24649 61076,24861 62135,23372 62260,23390 "/>
    <path class="fil12" d="M67507 15948c0,1512 -1236,2744 -2755,2757 -1523,12 -2757,-1200 -2756,-2711 -2,-1508 1233,-2745 2755,-2756 1522,-13 2756,1201 2756,2710z"/>
    <path class="fil14" d="M65138 18489c-186,46 -381,68 -579,70 -1416,13 -2563,-1117 -2566,-2522 2,-644 241,-1234 640,-1685l23 -20c64,-70 175,-57 222,26 192,344 864,1029 3134,728 137,-17 260,81 272,219 56,627 80,2266 -1019,3151l-127 33z"/>
    <path class="fil12" d="M68599 23998c0,0 259,1478 155,1790 -106,313 -340,-493 -340,-493 0,0 15,1063 -176,1079 -194,15 -189,-1071 -189,-1071 0,0 59,1081 -132,1097 -192,15 -208,-1025 -208,-1025 0,0 -164,836 -338,874 -174,35 -73,-972 -73,-972 0,0 -254,107 -500,269 -247,162 -249,-446 255,-1161l1546 -387 0 0 0 0z"/>
    <path class="fil12" d="M66039 18243c0,0 -1338,332 -1279,1497 0,0 514,966 1646,2025 0,0 241,328 363,993 125,666 225,1612 225,1612 0,0 669,277 1605,-372 0,0 217,-1688 -343,-3006 -558,-1316 -2217,-2749 -2217,-2749l0 0 0 0z"/>
    <path class="fil7" d="M68005 24621c-440,145 -839,46 -1045,-72 -87,-50 -119,-165 -69,-254 51,-91 163,-123 253,-75 28,17 677,358 1317,-349 70,-76 188,-82 263,-12 77,70 81,187 11,264 -239,263 -492,418 -730,498l0 0 0 0z"/>
    <path class="fil13" d="M66618 22202c0,0 1640,-573 1638,-1210 0,0 181,254 271,914 0,0 -813,622 -1827,546 0,0 -78,4 -82,-250l0 0 0 0z"/>
    <path class="fil16" d="M56795 27243c-82,602 1526,650 2563,112 -481,-131 -823,-282 -1065,-432 -428,-265 -545,-523 -575,-648 -114,57 -266,142 -415,253 -240,176 -470,418 -508,715l0 0z"/>
    <path class="fil16" d="M62707 30434c402,445 1105,-121 1479,-1035 160,-387 258,-836 254,-1298 -420,329 -823,419 -1137,421l-195 -11c-287,-30 -499,-126 -597,-177 -17,84 -39,193 -58,314 -85,534 -132,1358 254,1786l0 0 0 0z"/>
    <path class="fil4" d="M93260 53536c503,265 1129,87 1418,-414l9 5c-285,504 -121,1133 363,1432 -504,-268 -1133,-85 -1421,419l-9 -5c288,-504 125,-1139 -360,-1437z"/>
    <path class="fil4" d="M120611 36414c27,167 181,277 345,250 165,-27 275,-181 251,-347 -27,-164 -181,-277 -345,-250 -164,27 -276,184 -251,347z"/>
    <path class="fil4" d="M94872 43347c490,-77 834,-551 750,-1049 -71,-501 -537,-845 -1035,-761 -1182,199 -910,2012 285,1810z"/>
    <path class="fil4" d="M85259 55508c272,-45 458,-301 413,-573 -38,-272 -293,-458 -563,-412 -648,106 -495,1089 150,985z"/>
    <path class="fil4" d="M104327 64425c26,167 180,278 342,250 164,-26 277,-181 251,-348 -25,-163 -178,-276 -343,-248 -163,26 -275,184 -250,346z"/>
    <path class="fil4" d="M85765 38892c24,164 177,277 342,250 165,-28 275,-182 251,-348 -27,-164 -178,-276 -343,-248 -165,27 -277,181 -250,346z"/>
    <path class="fil4" d="M96441 38636c164,-27 275,-184 251,-347 -27,-166 -181,-278 -345,-250 -389,58 -296,655 94,597z"/>
    <path class="fil4" d="M97935 50877c165,-27 276,-181 249,-348 -25,-163 -178,-276 -343,-249 -389,64 -299,662 94,597z"/>
    <path class="fil4" d="M79955 26501c27,164 181,278 345,250 164,-28 275,-184 249,-348 -25,-166 -179,-276 -343,-249 -164,25 -275,181 -251,347l0 0 0 0z"/>
    <path class="fil4" d="M135152 66161c386,-63 296,-660 -94,-597 -391,65 -300,662 94,597z"/>
    <path class="fil4" d="M91584 61651c25,164 178,277 343,249 164,-26 276,-184 250,-347 -23,-165 -177,-276 -342,-249 -165,28 -278,181 -251,347z"/>
    <path class="fil4" d="M121179 50637c164,-26 275,-182 250,-346 -27,-166 -181,-277 -344,-251 -388,63 -298,661 94,597z"/>
    <path class="fil7" d="M65094 23796c-38,0 -77,-12 -109,-36 -58,-40 -1385,-970 -2682,-58 -84,60 -199,40 -259,-44 -58,-87 -36,-203 49,-263 1516,-1067 3096,50 3109,60 84,62 103,178 42,263 -35,50 -92,78 -150,78l0 0z"/>
    <path class="fil7" d="M64914 20112c-14,4 -26,8 -41,10 -135,21 -261,-76 -282,-210 -179,-1271 839,-1808 1404,-1914 135,-25 264,64 289,200 25,136 -65,267 -198,293 -119,23 -1158,257 -1004,1348 17,120 -54,237 -168,273l0 0z"/>
    <path class="fil6" d="M61502 19206c337,-739 795,-1231 1038,-1459 -23,-23 -47,-47 -74,-72 -401,264 -1149,809 -1605,1468 225,263 411,467 461,522 54,-162 114,-314 179,-457l1 -1 0 -1z"/>
    <path class="fil17" d="M63144 14671c112,94 259,187 455,267 -289,311 -503,698 -608,1136 -185,778 12,1555 469,2139 -71,-50 -141,-103 -206,-158 -578,-599 -847,-1467 -641,-2335 96,-398 281,-754 531,-1049z"/>
    <path class="fil6" d="M65723 21061c-346,-392 -594,-737 -752,-976 -17,11 -36,20 -57,27 -15,4 -26,8 -41,10 -34,5 -66,3 -97,-5 93,200 383,783 926,1499l21 -555z"/>
    <path class="fil1" d="M79062 46565c-15818,-1535 -42811,-12752 -53888,-24199 -38,44 -66,89 -84,135 -709,1850 12263,13864 25511,18916 6581,2509 12976,4498 18027,5838 3846,1020 6914,1663 8691,1872 321,38 600,62 834,71l178 -462 831 -2162c-33,-3 -67,-6 -100,-9z"/>
    <path class="fil9" d="M35253 32785c1751,-1282 3092,-2939 3860,-4935 767,-1997 880,-4124 439,-6244 -7574,-723 -13705,-216 -14415,808 -19,30 -36,58 -47,87 -13,30 -18,63 -22,96 -161,1236 4064,5693 10185,10188l0 0 0 0z"/>
    <path class="fil18" d="M36932 31304c-4709,-2843 -8801,-5882 -11757,-8938 -14,16 -27,32 -38,48 -19,30 -36,58 -47,87 -13,30 -18,63 -22,96 -161,1236 4064,5693 10185,10188 612,-448 1174,-943 1679,-1481z"/>
    <path class="fil18" d="M77319 49127c-1777,-209 -4845,-852 -8691,-1872 54,228 150,593 305,1053 3670,973 6629,1602 8432,1837 -38,-332 -55,-672 -46,-1018z"/>
    <path class="fil19" d="M82452 36775c-1497,-1016 -4174,-2528 -7554,-4242 -379,219 -660,406 -831,526 3522,1785 6284,3352 7750,4370 201,-235 414,-452 635,-654z"/>
    <path class="fil20" d="M65662 40852c1570,49 2882,-1184 2931,-2754 49,-1570 -1184,-2882 -2754,-2931 -1570,-49 -2882,1184 -2931,2754 -49,1570 1184,2882 2754,2931z"/>
    <path class="fil13" d="M65684 40147c1181,37 2168,-890 2205,-2071 36,-1181 -891,-2168 -2072,-2204 -1180,-37 -2167,890 -2204,2071 -37,1181 890,2168 2071,2204z"/>
    <path class="fil14" d="M64174 38285c37,-1180 1024,-2108 2205,-2071 266,8 519,65 752,161 -356,-301 -812,-488 -1314,-503 -1180,-37 -2167,890 -2204,2071 -29,914 521,1713 1319,2043 -481,-407 -779,-1022 -758,-1701z"/>
    <g>
     <path class="fil21" d="M57484 38613c2050,64 3763,-1546 3827,-3596 64,-2049 -1546,-3763 -3595,-3827 -2050,-63 -3764,1546 -3827,3596 -64,2050 1545,3763 3595,3827z"/>
     <path class="fil14" d="M54863 35381c64,-2050 1778,-3660 3828,-3596 462,14 901,113 1305,280 -618,-522 -1409,-847 -2280,-875 -2050,-63 -3764,1546 -3827,3596 -50,1588 905,2974 2290,3547 -836,-706 -1352,-1774 -1316,-2952z"/>
    </g>
    <g>
     <path class="fil22" d="M57638 36789l-2622 -989 248 -656 2621 988 -247 657zm-1633 -3611l247 -656c1312,494 2622,989 3934,1483l-905 409c-1091,-411 -2185,-824 -3276,-1236zm3686 2138c-247,656 -494,1311 -742,1968l-657 -248 495 -1311 -3276 -1236 247 -657c1312,495 2622,989 3933,1484z"/>
    </g>
    <path class="fil6" d="M56853 39763c2615,545 5189,-1153 5749,-3792 535,-2536 -980,-5016 -3418,-5691 2282,775 3670,3167 3155,5610 -560,2639 -3134,4337 -5749,3792 -104,-22 -206,-47 -307,-75 184,63 375,115 570,156z"/>
    <path class="fil6" d="M65885 40951c1570,49 2882,-1184 2931,-2754 39,-1235 -716,-2310 -1803,-2737 966,479 1616,1490 1580,2638 -49,1570 -1361,2803 -2931,2754 -335,-10 -655,-78 -950,-194 354,176 752,280 1173,293z"/>
    <path class="fil23" d="M62707 30434l0 0zm2245 -1672c-69,-30 -468,-205 -536,-235 -39,309 -120,605 -230,872 -374,914 -1077,1480 -1479,1035 -23,-26 -45,-54 -66,-83 608,1268 2195,-875 2311,-1589z"/>
    <path class="fil23" d="M59358 27355c-909,472 -2258,493 -2521,85 -22,85 -32,173 -26,262 39,641 1639,405 2666,-317l-119 -30z"/>
    <path class="fil23" d="M60415 26837c-111,-46 -482,-197 -594,-242 -65,180 -123,337 -165,449 54,20 94,64 111,117 166,-107 479,-272 648,-324z"/>
    <g>
     <path class="fil12" d="M55188 8303c217,693 592,1575 1200,1965 668,437 1077,1177 1242,2002l697 -71c139,-924 -140,-1934 -873,-2408 -731,-478 -977,-1995 -977,-1995 -106,199 -676,371 -1289,507z"/>
     <path class="fil12" d="M56388 10268c-608,-390 -983,-1272 -1200,-1965 -165,-532 -230,-955 -230,-955 -364,681 -4362,1159 -4362,1159 -74,770 480,2168 1708,2917 750,455 1026,1400 1121,2065l840 -364 262 989 3140 -314c73,-506 63,-1036 -37,-1530 -165,-825 -574,-1565 -1242,-2002l0 0z"/>
     <polygon class="fil24" points="54527,14114 54265,13125 53425,13489 53978,13803 "/>
     <path class="fil24" d="M56388 10268l0 0zm393 69c-607,-391 -983,-1272 -1200,-1965 -16,-52 -31,-103 -45,-152 -113,29 -230,57 -348,83 217,693 592,1574 1200,1965 668,437 1077,1177 1242,2002l371 -38c-178,-782 -581,-1477 -1220,-1895z"/>
    </g>
    <path class="fil12" d="M59066 15066c0,0 -727,-782 -752,-1109 -24,-329 508,313 508,313 0,0 -434,-963 -262,-1054 171,-92 595,900 595,900 0,0 -479,-962 -307,-1053 171,-92 591,851 591,851 0,0 -175,-832 -31,-932 148,-104 449,856 449,856 0,0 193,-200 358,-446 165,-246 405,308 217,1162l-1366 512 0 0 0 0z"/>
    <path class="fil7" d="M60621 14476c-25,-49 -76,-90 -135,-98 -1025,-156 -1529,560 -1549,591 -58,86 -38,202 47,260 85,58 199,37 259,-49 16,-23 398,-552 1184,-431 102,16 197,-54 213,-158 7,-40 -1,-81 -19,-115l0 0z"/>
   </g>
  </g>
 </g>
</svg>
