<?xml version="1.0" encoding="UTF-8"?>
<!DOCTYPE svg PUBLIC "-//W3C//DTD SVG 1.1//EN" "http://www.w3.org/Graphics/SVG/1.1/DTD/svg11.dtd">
<!-- Creator: CorelDRAW X7 -->
<svg xmlns="http://www.w3.org/2000/svg" xml:space="preserve" width="12.8352in" height="6.28295in" version="1.1" style="shape-rendering:geometricPrecision; text-rendering:geometricPrecision; image-rendering:optimizeQuality; fill-rule:evenodd; clip-rule:evenodd"
viewBox="0 0 128352 62830"
 xmlns:xlink="http://www.w3.org/1999/xlink">
 <defs>
  <style type="text/css">
   <![CDATA[
    .fil0 {fill:#E9EEF5}
    .fil2 {fill:#E1E6F3;fill-rule:nonzero}
    .fil1 {fill:white;fill-rule:nonzero}
   ]]>
  </style>
 </defs>
 <g id="Layer_x0020_1">
  <metadata id="CorelCorpID_0Corel-Layer"/>
  <g id="_2071896217136">
   <path class="fil0" d="M12932 37703c8095,96 14023,-896 18014,-1962 5491,-1467 3478,5871 3042,10012 -1554,14736 10483,16438 20121,14408 9673,-2037 17137,-8864 25027,-12072 4654,-1893 10024,-1008 10370,2951 442,5050 2857,12194 13520,8529 7169,-2459 13195,-6426 17523,-10503 15205,-14317 6620,-27073 -12247,-27474 -12397,-263 -19218,8963 -27678,-1446 -2017,-2482 -4120,-5501 -6674,-8311 -8191,-9009 -17269,-10733 -27526,-7134 -2640,926 -5265,1909 -8969,2100 -5313,273 -7583,-3270 -16379,-6152 -19575,-6413 -31650,36775 -8144,37054z"/>
   <path class="fil1" d="M11144 17420c1189,-40 2142,-1015 2148,-2226l20 0c7,1211 960,2186 2149,2226 -1194,37 -2149,1023 -2149,2239l-20 0c0,-1216 -957,-2202 -2148,-2239z"/>
   <path class="fil2" d="M58795 61748c574,-19 1034,-490 1038,-1075l9 0c3,585 463,1056 1038,1075 -577,18 -1038,494 -1038,1082l-9 0c0,-588 -463,-1064 -1038,-1082z"/>
  </g>
 </g>
</svg>
