<?xml version="1.0" encoding="UTF-8"?>
<!DOCTYPE svg PUBLIC "-//W3C//DTD SVG 1.1//EN" "http://www.w3.org/Graphics/SVG/1.1/DTD/svg11.dtd">
<!-- Creator: CorelDRAW X7 -->
<svg xmlns="http://www.w3.org/2000/svg" xml:space="preserve" width="0.32511in" height="0.401102in" version="1.1" style="shape-rendering:geometricPrecision; text-rendering:geometricPrecision; image-rendering:optimizeQuality; fill-rule:evenodd; clip-rule:evenodd"
viewBox="0 0 3251 4011"
 xmlns:xlink="http://www.w3.org/1999/xlink">
 <defs>
  <style type="text/css">
   <![CDATA[
    .fil0 {fill:#DABA76}
    .fil3 {fill:#BB9B61}
    .fil1 {fill:#DEC494}
    .fil2 {fill:#EADABC}
   ]]>
  </style>
 </defs>
 <g id="Layer_x0020_1">
  <metadata id="CorelCorpID_0Corel-Layer"/>
  <g id="_2070935389104">
   <polygon class="fil0" points="0,1749 3251,1749 3251,2414 0,2414 "/>
   <polygon class="fil1" points="0,889 3251,889 3251,1554 0,1554 "/>
   <path class="fil2" d="M2746 0l-2228 0c-285,0 -518,237 -518,531l0 173 3251 0 0 -173c0,-294 -224,-531 -505,-531z"/>
   <path class="fil3" d="M0 2604l0 172c0,294 233,531 518,531l1382 0 0 704 682 -704 151 0c285,0 518,-237 518,-531l0 -172 -3251 0z"/>
  </g>
 </g>
</svg>
