<?xml version="1.0" encoding="UTF-8"?>
<!DOCTYPE svg PUBLIC "-//W3C//DTD SVG 1.1//EN" "http://www.w3.org/Graphics/SVG/1.1/DTD/svg11.dtd">
<!-- Creator: CorelDRAW X7 -->
<svg xmlns="http://www.w3.org/2000/svg" xml:space="preserve" width="0.749094in" height="0.749094in" version="1.1" style="shape-rendering:geometricPrecision; text-rendering:geometricPrecision; image-rendering:optimizeQuality; fill-rule:evenodd; clip-rule:evenodd"
viewBox="0 0 7491 7491"
 xmlns:xlink="http://www.w3.org/1999/xlink">
 <defs>
  <style type="text/css">
   <![CDATA[
    .fil0 {fill:none}
    .fil1 {fill:#A38755;fill-rule:nonzero}
   ]]>
  </style>
 </defs>
 <g id="Layer_x0020_1">
  <metadata id="CorelCorpID_0Corel-Layer"/>
  <g id="_2071835322912">
   <polygon class="fil0" points="0,7491 7491,7491 7491,0 0,0 "/>
   <path class="fil1" d="M3745 1631c-564,0 -1095,221 -1495,620 -398,399 -619,930 -619,1494 0,565 221,1096 619,1496 400,398 931,619 1495,619 565,0 1096,-221 1496,-619 399,-400 619,-931 619,-1496 0,-564 -220,-1095 -619,-1494 -400,-400 -931,-620 -1496,-620zm238 2022l1397 -1030 0 0c226,328 347,716 347,1122 0,530 -205,1027 -579,1402 -375,375 -873,580 -1402,580 -530,0 -1027,-205 -1402,-580 -55,-55 -106,-113 -154,-173l887 -653 123 -91 308 -228 133 -97 100 -74 0 0 242 -178 0 0zm1318 -1136l0 0 -871 642c-8,-41 -21,-78 -36,-114 -35,-81 -88,-149 -152,-205 -72,-61 -161,-106 -259,-134l0 -330 -133 0 0 302c-36,-5 -74,-8 -111,-8 -33,0 -66,1 -98,5l0 -299 -133 0 0 322c-100,25 -193,70 -267,133 -43,37 -80,80 -109,127 -59,95 -88,206 -85,316 2,111 39,220 114,307 30,36 67,68 110,94 73,46 154,77 237,101l0 62 -1397 1030c-226,-328 -347,-716 -347,-1122 0,-530 205,-1027 580,-1402 375,-374 872,-581 1401,-581 530,0 1028,207 1403,581 54,55 106,113 153,173l0 0zm-2185 1939c33,76 81,141 141,193 69,61 156,106 251,135l0 331 133 0 0 -303c36,6 74,9 112,9 32,0 65,-1 97,-5l0 299 133 0 0 -322c98,-27 190,-71 263,-134 89,-78 150,-192 173,-312 22,-117 8,-241 -51,-343 -19,-33 -43,-62 -69,-88 -27,-26 -55,-48 -87,-67 -52,-33 -109,-57 -167,-77l-195 143 0 769c-31,3 -64,6 -97,5 -38,0 -75,-4 -112,-10l0 -609 -133 97 0 478 -46 -19c-44,-21 -84,-46 -118,-77 -46,-40 -83,-90 -108,-148 -4,-9 -7,-17 -9,-26l-111 81 0 0zm734 -870l-140 103 -69 -15 0 -867c32,-3 64,-5 97,-5 37,1 76,4 112,9l0 775zm-342 -752l0 804c-60,-19 -117,-43 -167,-75 -32,-20 -58,-42 -80,-68 -54,-63 -81,-143 -83,-224 -2,-84 21,-170 66,-243 23,-36 51,-69 83,-97 50,-43 113,-75 181,-97l0 0zm496 1064c50,17 96,37 139,63 23,15 45,32 63,49 19,18 34,38 47,60 43,74 52,165 36,253 -17,92 -63,178 -129,236 -49,43 -109,74 -175,96l-2 1 0 -766 21 8 0 0zm306 -651l-327 242 0 -645c29,10 57,22 84,36 32,17 62,38 89,60 50,44 90,96 117,158 10,23 18,48 25,74 6,24 10,49 12,75l0 0z"/>
  </g>
 </g>
</svg>
