<?xml version="1.0" encoding="UTF-8"?>
<!DOCTYPE svg PUBLIC "-//W3C//DTD SVG 1.1//EN" "http://www.w3.org/Graphics/SVG/1.1/DTD/svg11.dtd">
<!-- Creator: CorelDRAW X7 -->
<svg xmlns="http://www.w3.org/2000/svg" xml:space="preserve" width="0.944882in" height="0.944882in" version="1.1" style="shape-rendering:geometricPrecision; text-rendering:geometricPrecision; image-rendering:optimizeQuality; fill-rule:evenodd; clip-rule:evenodd"
viewBox="0 0 9449 9449"
 xmlns:xlink="http://www.w3.org/1999/xlink">
 <defs>
  <style type="text/css">
   <![CDATA[
    .fil1 {fill:none}
    .fil0 {fill:black}
   ]]>
  </style>
 </defs>
 <g id="Layer_x0020_1">
  <metadata id="CorelCorpID_0Corel-Layer"/>
  <g id="_2071906657776">
   <g id="_2296485222656">
    <path class="fil0" d="M6469 1443l-3489 0 0 1948 -1537 0 0 3489 1537 0 0 1126 3489 0 0 -1126 1537 0 0 -3489 -1537 0 0 -1948zm-2769 5538l2049 0 0 203 -2049 0 0 -203zm0 -821l2049 0 0 208 -2049 0 0 -208zm-1025 -2049l411 0 0 203 -411 0 0 -203zm-618 0l410 0 0 203 -410 0 0 -203zm1130 -2465l3074 0 0 1745 -3074 0 0 -1745zm3074 6157l-3074 0 0 -2257 3074 0 0 2257zm1542 -1131l-1334 0 0 -1334 -3489 0 0 1334 -1334 0 0 -3074 6157 0 0 3074z"/>
    <polygon class="fil1" points="0,9449 9449,9449 9449,0 0,0 "/>
   </g>
  </g>
 </g>
</svg>
