<?xml version="1.0" encoding="UTF-8"?>
<!DOCTYPE svg PUBLIC "-//W3C//DTD SVG 1.1//EN" "http://www.w3.org/Graphics/SVG/1.1/DTD/svg11.dtd">
<!-- Creator: CorelDRAW X7 -->
<svg xmlns="http://www.w3.org/2000/svg" xml:space="preserve" width="9.87878in" height="9.87878in" version="1.1" style="shape-rendering:geometricPrecision; text-rendering:geometricPrecision; image-rendering:optimizeQuality; fill-rule:evenodd; clip-rule:evenodd"
viewBox="0 0 98788 98788"
 xmlns:xlink="http://www.w3.org/1999/xlink">
 <defs>
  <style type="text/css">
   <![CDATA[
    .fil2 {fill:#F7F1E6}
    .fil3 {fill:#FAFAF4}
    .fil1 {fill:#FAFAF4;fill-rule:nonzero}
    .fil0 {fill:white;fill-rule:nonzero}
   ]]>
  </style>
 </defs>
 <g id="Layer_x0020_1">
  <metadata id="CorelCorpID_0Corel-Layer"/>
  <g id="_2071917533760">
   <path class="fil0" d="M49394 98788c27418,0 49394,-22066 49394,-49394 0,-27329 -21976,-49394 -49394,-49394 -27419,0 -49394,22065 -49394,49394 0,27328 21975,49394 49394,49394z"/>
   <path class="fil1" d="M92229 55017c-4234,0 -4234,-6681 0,-6681 4435,0 4435,6681 0,6681z"/>
   <path class="fil1" d="M22220 26536c2086,-2789 5513,-4547 7706,-941 1059,1741 368,3393 -1285,4686 -5129,4011 -8575,-866 -6421,-3745z"/>
   <path class="fil1" d="M83012 35906c1767,0 1767,-3629 0,-3629 -1850,0 -1850,3629 0,3629z"/>
   <path class="fil2" d="M6718 47570c0,25856 20437,46732 45935,46732 25498,0 45934,-20876 45934,-46732 0,-1634 -81,-3249 -241,-4839 292,2178 442,4403 442,6663 0,27328 -21976,49394 -49394,49394 -27419,0 -49394,-22066 -49394,-49394 0,-27329 21975,-49394 49394,-49394 5739,0 11240,967 16351,2746 -4144,-1241 -8537,-1907 -13092,-1907 -25498,0 -45935,20876 -45935,46731z"/>
   <path class="fil3" d="M52653 94302c-25498,0 -45935,-20876 -45935,-46732 0,-25855 20437,-46731 45935,-46731 4555,0 8948,666 13092,1907 248,87 494,175 739,264 -2290,-412 -4652,-627 -7067,-627 -21744,0 -39171,17457 -39171,39078 0,21621 17427,39078 39171,39078 20761,0 37587,-15915 39065,-36175 70,1059 105,2128 105,3206 0,25856 -20436,46732 -45934,46732z"/>
  </g>
 </g>
</svg>
