<?xml version="1.0" encoding="UTF-8"?>
<!DOCTYPE svg PUBLIC "-//W3C//DTD SVG 1.1//EN" "http://www.w3.org/Graphics/SVG/1.1/DTD/svg11.dtd">
<!-- Creator: CorelDRAW X7 -->
<svg xmlns="http://www.w3.org/2000/svg" xml:space="preserve" width="2.27043in" height="0.585315in" version="1.1" style="shape-rendering:geometricPrecision; text-rendering:geometricPrecision; image-rendering:optimizeQuality; fill-rule:evenodd; clip-rule:evenodd"
viewBox="0 0 22704 5853"
 xmlns:xlink="http://www.w3.org/1999/xlink">
 <defs>
  <style type="text/css">
   <![CDATA[
    .fil0 {fill:#FEFEFE}
    .fil1 {fill:#DABA76}
    .fil3 {fill:#E6D4AF}
    .fil2 {fill:#F6EFE2}
   ]]>
  </style>
 </defs>
 <g id="Layer_x0020_1">
  <metadata id="CorelCorpID_0Corel-Layer"/>
  <g id="_2071903165136">
   <path class="fil0" d="M2926 0l16852 0c1609,0 2926,1317 2926,2926 0,1610 -1316,2927 -2926,2927l-16852 0c-1609,0 -2926,-1317 -2926,-2926 0,-1609 1317,-2927 2926,-2927z"/>
   <path class="fil1" d="M20996 1570c-160,-5 -321,91 -328,310 -13,442 530,537 237,1427l-242 736 -658 -1940c-11,-30 1,-48 38,-48l186 0c10,0 18,-8 18,-18l0 -110c0,-10 -8,-19 -18,-19 -352,16 -703,16 -1051,0 -10,0 -18,9 -18,19l0 110c0,10 8,18 18,18l187 0c41,0 53,14 63,41l271 740 -408 1230 -669 -1971c-8,-25 2,-40 26,-40l213 0c10,0 18,-8 18,-18l0 -110c0,-10 -8,-19 -18,-19 -224,12 -448,15 -658,17 626,-964 1959,-1122 2793,-355zm375 479c141,261 222,560 222,878 0,697 -388,1303 -959,1617l575 -1628c89,-252 172,-593 162,-867l0 0 0 0zm-1004 2614c-193,69 -401,106 -617,106 -187,0 -366,-27 -536,-79l568 -1627 585 1600 0 0 0 0zm-1406 -70c-623,-296 -1054,-931 -1054,-1666 0,-273 59,-532 166,-764l888 2430zm789 -3682c1113,0 2015,903 2015,2016 0,1113 -902,2015 -2015,2015 -1113,0 -2016,-902 -2016,-2015 0,-1113 903,-2016 2016,-2016zm0 -127c1183,0 2143,959 2143,2143 0,1183 -960,2143 -2143,2143 -1184,0 -2143,-960 -2143,-2143 0,-1184 959,-2143 2143,-2143z"/>
   <polygon class="fil2" points="16798,847 16629,847 16629,5006 16798,5006 "/>
   <polygon class="fil3" points="16544,847 16629,847 16629,5006 16544,5006 "/>
  </g>
 </g>
</svg>
