<?xml version="1.0" encoding="UTF-8"?>
<!DOCTYPE svg PUBLIC "-//W3C//DTD SVG 1.1//EN" "http://www.w3.org/Graphics/SVG/1.1/DTD/svg11.dtd">
<!-- Creator: CorelDRAW X7 -->
<svg xmlns="http://www.w3.org/2000/svg" xml:space="preserve" width="0.944882in" height="0.944882in" version="1.1" style="shape-rendering:geometricPrecision; text-rendering:geometricPrecision; image-rendering:optimizeQuality; fill-rule:evenodd; clip-rule:evenodd"
viewBox="0 0 9449 9449"
 xmlns:xlink="http://www.w3.org/1999/xlink">
 <defs>
  <style type="text/css">
   <![CDATA[
    .fil1 {fill:none}
    .fil0 {fill:black}
   ]]>
  </style>
 </defs>
 <g id="Layer_x0020_1">
  <metadata id="CorelCorpID_0Corel-Layer"/>
  <g id="_2071896195312">
   <g id="_2307278443904">
    <path class="fil0" d="M4623 4521l0 3034 -647 -646 -146 159 822 836 145 0 821 -836 -145 -152 -647 639 0 -3034 -203 0zm-720 1537l-2257 0 0 -3485 6157 0 0 3485 -2257 0 0 207 2460 0 0 -3899 -6563 0 0 3899 2460 0 0 -207 0 0z"/>
    <polygon class="fil1" points="0,9449 9449,9449 9449,0 0,0 "/>
   </g>
  </g>
 </g>
</svg>
