<?xml version="1.0" encoding="UTF-8"?>
<!DOCTYPE svg PUBLIC "-//W3C//DTD SVG 1.1//EN" "http://www.w3.org/Graphics/SVG/1.1/DTD/svg11.dtd">
<!-- Creator: CorelDRAW X7 -->
<svg xmlns="http://www.w3.org/2000/svg" xml:space="preserve" width="2.27043in" height="0.585315in" version="1.1" style="shape-rendering:geometricPrecision; text-rendering:geometricPrecision; image-rendering:optimizeQuality; fill-rule:evenodd; clip-rule:evenodd"
viewBox="0 0 22704 5853"
 xmlns:xlink="http://www.w3.org/1999/xlink">
 <defs>
  <style type="text/css">
   <![CDATA[
    .fil0 {fill:#FEFEFE}
    .fil4 {fill:#DABA76}
    .fil2 {fill:#E6D4AF}
    .fil1 {fill:#F6EFE2}
    .fil3 {fill:#FEFEFE}
   ]]>
  </style>
 </defs>
 <g id="Layer_x0020_1">
  <metadata id="CorelCorpID_0Corel-Layer"/>
  <g id="_2071907967936">
   <path class="fil0" d="M2926 0l16852 0c1609,0 2926,1317 2926,2926 0,1610 -1316,2927 -2926,2927l-16852 0c-1609,0 -2926,-1317 -2926,-2926 0,-1609 1317,-2927 2926,-2927z"/>
   <polygon class="fil1" points="16798,847 16629,847 16629,5006 16798,5006 "/>
   <polygon class="fil2" points="16544,847 16629,847 16629,5006 16544,5006 "/>
   <g>
    <g id="_1305869410672">
     <path class="fil3" d="M19221 1897c-417,-278 -584,-223 -584,-223 -140,306 -56,529 -28,585 -139,139 -223,334 -223,556 0,835 501,1030 974,1058 -55,55 -111,167 -139,306 -111,56 -417,139 -612,-195 0,0 -112,-195 -334,-223 0,0 -223,0 -28,140 0,0 139,55 250,305 0,0 112,418 724,307 0,167 0,306 0,362 0,55 -28,83 -84,111 195,55 390,84 613,84 222,0 417,-29 612,-84 -56,0 -83,-56 -83,-111 0,-84 0,-307 0,-585 0,-195 -56,-334 -140,-417 473,-28 975,-223 975,-1058 0,-222 -84,-417 -223,-556 28,-56 111,-279 -28,-585 0,0 -167,-55 -584,223 -167,-56 -334,-84 -529,-84 -195,0 -362,28 -529,84l0 0 0 0 0 0z"/>
     <path class="fil4" d="M20354 4985c896,-256 1539,-1072 1539,-2059 0,-1168 -946,-2142 -2143,-2142 -1169,0 -2143,974 -2143,2142 0,983 656,1796 1537,2056 51,-26 77,-54 77,-107l0 -362c-612,111 -724,-307 -724,-307 -111,-250 -250,-305 -250,-305 -195,-140 28,-140 28,-140 222,28 334,223 334,223 195,334 501,251 612,195 28,-139 84,-251 139,-306 -473,-28 -974,-223 -974,-1058 0,-222 84,-417 223,-556 -28,-56 -112,-279 28,-585 0,0 167,-55 584,223 167,-56 334,-84 529,-84 195,0 362,28 529,84 417,-278 584,-223 584,-223 139,306 56,529 28,585 139,139 223,334 223,556 0,835 -502,1030 -975,1058 84,83 140,222 140,417l0 585c0,52 25,105 75,110l0 0z"/>
    </g>
   </g>
  </g>
 </g>
</svg>
