<?xml version="1.0" encoding="UTF-8"?>
<!DOCTYPE svg PUBLIC "-//W3C//DTD SVG 1.1//EN" "http://www.w3.org/Graphics/SVG/1.1/DTD/svg11.dtd">
<!-- Creator: CorelDRAW X7 -->
<svg xmlns="http://www.w3.org/2000/svg" xml:space="preserve" width="1.94322in" height="0.585315in" version="1.1" style="shape-rendering:geometricPrecision; text-rendering:geometricPrecision; image-rendering:optimizeQuality; fill-rule:evenodd; clip-rule:evenodd"
viewBox="0 0 19432 5853"
 xmlns:xlink="http://www.w3.org/1999/xlink">
 <defs>
  <style type="text/css">
   <![CDATA[
    .fil0 {fill:#FEFEFE}
    .fil2 {fill:#B3B3B3}
    .fil1 {fill:#EBEBEB}
    .fil3 {fill:#848688;fill-rule:nonzero}
   ]]>
  </style>
 </defs>
 <g id="Layer_x0020_1">
  <metadata id="CorelCorpID_0Corel-Layer"/>
  <g id="_2071907991200">
   <path class="fil0" d="M2926 0l13580 0c1609,0 2926,1317 2926,2926 0,1610 -1317,2927 -2926,2927l-13580 0c-1609,0 -2926,-1317 -2926,-2926 0,-1610 1317,-2927 2926,-2927z"/>
   <polygon class="fil1" points="13864,847 13695,847 13695,5006 13864,5006 "/>
   <polygon class="fil2" points="13610,847 13695,847 13695,5006 13610,5006 "/>
   <path class="fil2" d="M15529 2862l1875 0 -704 -703 92 -92 860 860 -860 860 -92 -92 704 -704 -1875 0 0 -129zm-1008 65c0,-554 214,-1074 605,-1465 392,-391 911,-606 1464,-605 553,0 1072,214 1464,606 391,390 606,910 606,1464 0,552 -215,1073 -606,1463 -392,391 -911,606 -1464,606 -553,1 -1072,-215 -1464,-605 -391,-391 -605,-911 -605,-1464zm4010 0c0,-519 -202,-1006 -568,-1373 -367,-367 -854,-568 -1373,-568 -519,0 -1006,201 -1372,568 -367,367 -568,854 -568,1373 0,518 201,1005 568,1372 366,366 853,569 1372,569 519,-1 1006,-203 1373,-569 366,-367 568,-854 568,-1372z"/>
   <path class="fil3" d="M2574 3350l-35 0c-53,0 -101,-11 -146,-31 0,76 -10,145 -32,205 -21,60 -52,111 -93,153 -41,42 -92,74 -152,96 -60,21 -129,33 -206,33l-113 0 0 -156 113 0c56,0 105,-6 146,-20 42,-13 76,-34 103,-62 27,-28 47,-63 60,-106 13,-44 19,-95 19,-155l0 -512 155 0 0 272c0,30 7,54 19,72 13,17 28,29 45,38 17,8 33,13 49,15 16,2 27,3 33,3l35 0 0 155zm-400 -887l140 -142 142 143 -141 142 -141 -143zm968 771c4,0 9,0 16,-1 7,0 14,-2 22,-6 8,-4 16,-10 24,-18 8,-8 15,-19 21,-34 6,-14 12,-33 16,-55 4,-23 6,-51 6,-84 0,-6 -1,-15 -2,-28 -1,-14 -3,-28 -7,-44 -4,-17 -10,-33 -17,-50 -7,-17 -17,-32 -30,-47 -12,-14 -28,-26 -46,-35 -18,-9 -40,-13 -66,-13 -24,0 -44,4 -61,13 -16,8 -30,20 -42,34 -11,15 -21,32 -29,53 -7,19 -14,41 -21,64 -6,24 -13,48 -20,73 -6,26 -14,51 -22,76 28,15 54,28 78,41 24,12 47,23 67,32 21,9 41,16 59,21 18,6 37,8 54,8zm-63 -569c54,0 101,10 140,30 40,21 73,48 99,83 27,34 46,74 59,119 13,45 19,91 19,139 0,54 -4,99 -13,138 -9,38 -21,70 -36,96 -15,26 -31,47 -49,63 -19,15 -37,27 -56,36 -19,8 -37,13 -55,16 -17,3 -32,4 -45,4 -27,0 -53,-2 -77,-8 -25,-6 -50,-13 -76,-23 -25,-11 -53,-23 -80,-38 -29,-14 -60,-31 -94,-50 -45,53 -102,80 -173,80l-94 0 0 -155 94 0c21,0 38,-8 51,-23 14,-16 25,-36 35,-60 10,-25 19,-53 27,-85 8,-31 18,-64 29,-97 10,-34 23,-66 38,-98 15,-32 33,-60 56,-85 23,-24 50,-44 83,-60 33,-15 72,-22 118,-22zm353 1141l0 -156 113 0c56,0 105,-6 147,-20 41,-13 75,-34 102,-62 27,-28 47,-63 60,-106 13,-44 19,-95 19,-155l0 -512 155 0 0 512c0,78 -10,148 -30,210 -21,62 -51,114 -92,156 -40,43 -91,76 -151,98 -61,23 -131,35 -210,35l-113 0zm1326 -444c-28,0 -56,-1 -84,-3 -29,-3 -57,-7 -84,-12 -27,-5 -53,-12 -78,-21 -25,-8 -47,-18 -67,-30l-68 -39 77 -135 68 38c19,11 42,20 70,27 28,7 58,12 89,15 31,3 63,4 94,3 32,0 62,-2 88,-6 32,-5 58,-12 79,-21 20,-9 33,-19 39,-31 5,-12 4,-29 -3,-50 -7,-21 -19,-45 -37,-71l-297 -449 131 -86c8,11 15,22 23,34 7,12 16,26 27,41 10,16 22,34 36,55 13,22 30,47 50,76 20,30 43,64 69,104 26,39 57,85 92,138 13,20 26,42 37,65 11,23 19,45 24,68 6,24 8,46 7,70 0,23 -6,46 -16,68 -35,78 -114,125 -238,143 -20,3 -40,5 -61,7 -22,1 -44,2 -67,2zm1479 -167l0 155 -30 0c-82,0 -157,-34 -226,-102 -41,55 -113,90 -216,105 -19,3 -39,5 -60,7 -22,1 -44,2 -67,2 -28,0 -56,-1 -85,-3 -28,-3 -56,-7 -83,-12 -27,-5 -53,-12 -78,-21 -25,-8 -48,-18 -68,-29l-68 -40 77 -135 69 39c19,11 42,20 70,27 28,7 57,11 88,14 31,3 63,5 95,4 31,-1 61,-3 88,-7 32,-5 58,-12 79,-21 20,-9 33,-19 38,-31 8,-9 9,-22 4,-39 -5,-18 -14,-37 -27,-57l-308 -469 130 -85 319 486c16,23 33,48 50,72 16,25 34,48 52,69 19,20 39,37 59,51 21,13 43,20 68,20l30 0zm1079 -174c-3,3 -17,12 -41,28 -24,17 -56,37 -96,60 6,21 16,36 29,48 13,11 28,19 42,25 15,6 29,9 42,11 13,1 22,2 28,2l172 0 0 155 -172 0c-40,0 -77,-6 -112,-18 -35,-12 -66,-29 -94,-52 -32,-27 -56,-59 -72,-97 -42,21 -88,41 -136,61 -48,20 -98,38 -150,54 -51,15 -104,28 -159,37 -54,10 -108,15 -163,15l-230 0 0 -155 230 0c62,0 124,-8 186,-22 63,-15 123,-33 181,-54 58,-22 113,-45 164,-71 51,-25 95,-49 133,-72 -53,-21 -106,-42 -159,-62 -52,-20 -100,-38 -144,-54 -44,-16 -82,-28 -113,-38 -32,-10 -53,-15 -63,-17 -9,0 -19,1 -29,2 -10,2 -20,7 -30,15 -10,8 -19,21 -29,38 -9,17 -18,42 -26,73l-150 -39c42,-163 131,-244 266,-244 4,0 8,1 13,1 5,0 13,1 24,4 11,3 24,6 42,12 16,5 39,12 66,21 27,10 61,21 99,36 39,15 86,32 140,54l291 107 20 136zm-669 622l139 -141 143 143 -141 141 -141 -143zm1409 -409c4,0 9,0 16,-1 7,0 14,-2 23,-6 7,-4 15,-10 23,-18 8,-8 15,-19 22,-34 6,-14 11,-33 15,-55 4,-23 6,-51 6,-84 0,-6 0,-15 -1,-28 -1,-14 -4,-28 -8,-44 -3,-17 -9,-33 -16,-50 -8,-17 -18,-33 -31,-47 -12,-14 -27,-26 -45,-35 -18,-9 -40,-13 -66,-13 -24,0 -45,4 -61,12 -17,9 -31,21 -42,35 -12,15 -22,32 -29,53 -8,19 -15,41 -22,64 -6,24 -13,48 -19,73 -7,26 -14,51 -23,76 28,15 54,28 78,41 24,12 47,23 68,32 21,9 40,16 59,21 18,6 36,8 53,8zm-62 -570c54,0 100,11 140,31 39,21 73,48 99,83 26,34 46,74 58,119 13,45 20,91 20,139 0,53 -5,99 -14,137 -9,39 -21,71 -35,97 -15,26 -32,47 -50,63 -18,15 -37,27 -56,36 -19,8 -37,13 -54,16 -18,3 -33,4 -46,4 -26,0 -52,-2 -77,-8 -24,-6 -50,-13 -75,-23 -26,-11 -53,-23 -81,-38 -28,-14 -59,-31 -93,-50 -45,53 -103,80 -174,80l-94 0 0 -155 94 0c21,0 38,-8 52,-23 13,-16 25,-36 35,-60 9,-25 18,-53 27,-85 8,-31 17,-64 28,-97 11,-34 23,-66 38,-98 15,-32 34,-60 56,-85 23,-24 51,-44 83,-60 33,-15 72,-23 119,-23zm1190 1140c-73,0 -140,-16 -200,-48 -60,-32 -108,-77 -145,-135 -15,-24 -30,-55 -43,-93 -14,-38 -22,-85 -24,-138 -3,-54 3,-116 18,-186 14,-70 43,-149 85,-237l139 67c-26,52 -46,103 -60,151 -15,48 -24,93 -27,136 -4,43 -2,82 5,119 7,36 19,69 37,98 23,35 53,62 91,81 37,20 79,30 124,30l59 0c63,0 114,-7 153,-20 40,-13 71,-32 93,-56 22,-25 37,-54 46,-88 8,-34 12,-72 12,-114l0 -1193 153 0 0 1193c0,287 -153,432 -457,433l-59 0zm1153 -454c-53,-1 -97,-5 -135,-12 -37,-7 -69,-18 -95,-32 -26,-14 -47,-31 -62,-52 -16,-22 -28,-46 -37,-75 -9,-28 -14,-59 -17,-94 -3,-35 -4,-74 -4,-117l0 -790 155 0 0 790c0,48 2,86 5,116 3,30 10,52 23,68 13,17 33,27 59,33 26,6 62,9 108,10l0 155zm617 -2c-52,0 -97,-7 -137,-22 -40,-15 -74,-37 -101,-66 -29,31 -62,54 -100,68 -37,15 -75,22 -114,22l-180 0 0 -155 180 0c9,0 20,-2 36,-4 15,-3 30,-9 45,-19 15,-10 27,-25 39,-46 11,-20 16,-47 16,-82l0 -4 0 -245 156 0 0 245c0,53 12,92 37,117 25,24 66,37 123,37 8,0 20,-2 35,-5 15,-3 30,-9 45,-20 15,-10 28,-25 39,-46 11,-20 17,-48 17,-83l0 -245 154 0 0 245c0,53 13,92 39,118 26,25 67,37 124,37 9,0 20,-1 35,-5 15,-3 30,-11 44,-22 15,-11 27,-26 37,-46 11,-21 16,-48 16,-82 0,-12 -1,-27 -3,-45 -2,-18 -4,-37 -7,-58 -3,-21 -7,-42 -10,-64 -4,-21 -8,-42 -12,-60 -4,-19 -8,-36 -11,-51 -3,-15 -6,-27 -8,-34l147 -46c1,3 3,12 7,25 3,14 7,32 11,52 5,21 9,44 14,69 4,25 9,50 13,76 4,25 7,50 10,73 3,24 4,45 4,63 0,52 -8,98 -25,136 -17,39 -39,71 -66,96 -27,26 -58,45 -93,58 -34,13 -69,19 -103,20 -53,0 -99,-8 -139,-24 -41,-15 -75,-38 -103,-67 -28,30 -61,52 -98,67 -38,15 -76,22 -113,22zm762 457l0 -155 113 0c56,0 105,-6 146,-20 42,-13 76,-34 103,-62 27,-28 47,-63 60,-107 13,-43 19,-94 19,-154l0 -512 155 0 0 512c0,78 -10,148 -30,210 -21,62 -52,114 -92,156 -41,43 -91,76 -151,98 -61,23 -131,34 -210,34l-113 0zm915 -456l-155 0 0 -1171 155 0 0 1171z"/>
   <path class="fil2" d="M2926 0l13580 0c1609,0 2926,1317 2926,2926 0,1610 -1317,2927 -2926,2927l-13580 0c-1609,0 -2926,-1317 -2926,-2926 0,-1609 1317,-2927 2926,-2927zm0 129c-769,0 -1468,315 -1975,822 -508,507 -822,1206 -822,1975 0,745 296,1451 822,1977 507,507 1206,822 1975,822l13580 0c769,0 1468,-315 1976,-822 507,-508 822,-1207 822,-1976 0,-744 -297,-1451 -823,-1976 -507,-508 -1206,-823 -1975,-823l-13580 1z"/>
  </g>
 </g>
</svg>
