<?xml version="1.0" encoding="UTF-8"?>
<!DOCTYPE svg PUBLIC "-//W3C//DTD SVG 1.1//EN" "http://www.w3.org/Graphics/SVG/1.1/DTD/svg11.dtd">
<!-- Creator: CorelDRAW X7 -->
<svg xmlns="http://www.w3.org/2000/svg" xml:space="preserve" width="7.49799in" height="5.5852in" version="1.1" style="shape-rendering:geometricPrecision; text-rendering:geometricPrecision; image-rendering:optimizeQuality; fill-rule:evenodd; clip-rule:evenodd"
viewBox="0 0 74980 55852"
 xmlns:xlink="http://www.w3.org/1999/xlink">
 <defs>
  <style type="text/css">
   <![CDATA[
    .fil6 {fill:#BB9B61}
    .fil4 {fill:#BDADFF}
    .fil7 {fill:#DCD3FF}
    .fil2 {fill:white}
    .fil3 {fill:#BDADFF;fill-rule:nonzero}
    .fil5 {fill:#DCD3FF;fill-rule:nonzero}
    .fil1 {fill:#FAF6EE;fill-rule:nonzero}
    .fil0 {fill:white;fill-rule:nonzero}
   ]]>
  </style>
 </defs>
 <g id="Layer_x0020_1">
  <metadata id="CorelCorpID_0Corel-Layer"/>
  <g id="_2071811041744">
   <path class="fil0" d="M74980 0c-3617,6200 -8407,9765 -14089,11904 -6606,2486 -14428,3055 -23018,3595 -398,25 -859,52 -1333,79 -5985,348 -14336,834 -17077,5393 -1728,2875 -660,5868 518,9171 1056,2961 2203,6175 1449,9739 -543,2572 -1937,4716 -4143,6091 -2042,1274 -4784,1891 -8196,1581l-30 333c3488,316 6300,-320 8402,-1631 2287,-1426 3732,-3645 4294,-6305 774,-3656 -390,-6917 -1461,-9920 -1151,-3225 -2193,-6148 -547,-8886 2650,-4409 10899,-4889 16812,-5233 445,-26 876,-51 1334,-80 8616,-541 16463,-1112 23112,-3615 5604,-2109 10349,-5586 13973,-11561l0 -655z"/>
   <path class="fil1" d="M9387 45555c0,0 961,108 1041,674 80,566 -1253,2281 -1253,2281l-288 -2563 500 -392 0 0z"/>
   <path class="fil2" d="M5781 44947c0,0 -1260,-526 -1835,-603 -576,-78 -1821,54 -2349,143 0,0 -519,694 0,1189 0,0 1712,74 2147,289 431,219 1067,517 1067,517l1277 -1107 -306 -428 -1 0z"/>
   <path class="fil2" d="M1597 44487c0,0 -805,-338 -1061,-269 -262,73 384,304 384,304 0,0 -863,-65 -885,93 -21,157 862,203 862,203 0,0 -875,-101 -897,57 -21,157 825,219 825,219 0,0 -689,94 -726,237 -36,138 784,105 784,105 0,0 -97,204 -240,397 -139,194 352,226 954,-157l0 -1189z"/>
   <path class="fil3" d="M1576 45829c-42,-6 -86,-33 -111,-76 -416,-741 -7,-1328 9,-1352 49,-71 146,-84 213,-36 67,48 85,141 37,209 -16,19 -309,461 9,1029 42,75 12,166 -59,209 -33,17 -64,22 -98,17z"/>
   <path class="fil4" d="M3615 44321c0,0 -219,1012 -208,1542 0,0 52,159 337,102 0,0 532,-726 581,-1539 0,0 -291,-222 -710,-105l0 0z"/>
   <path class="fil5" d="M4851 46509l-380 -188c538,-834 1356,-973 1380,-987l44 93c-5,3 -519,272 -1044,1082z"/>
   <path class="fil2" d="M5961 45323c0,0 -1900,1058 -1720,3555 0,0 -1581,528 -2019,881 -442,349 -1100,1947 -1100,1947 0,0 -859,201 -1003,715 -138,515 1376,736 2271,306 0,0 681,-1257 847,-1677l1382 -117 -37 146c-81,245 -147,510 -192,781 0,0 -132,980 304,1959 0,0 -543,1262 -130,1865 417,607 1615,-524 1675,-1870 0,0 -305,-1051 -208,-1481l1212 -1879c0,0 547,-300 685,-1418l483 -2780 -2450 -933 0 0z"/>
   <path class="fil6" d="M5598 47083c-26,187 -199,316 -382,291 -188,-25 -321,-195 -296,-383 26,-187 200,-320 387,-295 183,25 316,199 291,387z"/>
   <path class="fil3" d="M5257 54211c-60,-8 -110,-19 -157,-30 -310,-80 -501,-236 -509,-246 -62,-52 -71,-148 -14,-214 52,-63 148,-72 214,-15 24,21 599,484 1365,-20 67,-43 164,-25 211,46 42,71 26,164 -46,211 -414,273 -787,306 -1064,268l0 0z"/>
   <path class="fil4" d="M6033 52511c-565,362 -1669,214 -1682,-40 -51,-206 4,-450 4,-450 850,-354 1701,220 1701,220 0,0 46,106 -23,270z"/>
   <path class="fil3" d="M2369 52881c-12,-2 -25,-8 -37,-10 -1363,-539 -1364,-1112 -1360,-1176 2,-83 76,-146 162,-143 78,6 142,75 140,157 2,18 49,436 1170,878 78,32 118,120 86,198 -26,66 -92,105 -161,96z"/>
   <path class="fil4" d="M2572 49546c0,0 670,919 665,1504 -10,584 -1343,-888 -1343,-888 0,0 66,-516 678,-616l0 0z"/>
   <path class="fil3" d="M4968 50177c-64,-8 -118,-59 -126,-125 -132,-790 -643,-1028 -663,-1035 -78,-37 -113,-128 -77,-201 32,-79 119,-114 197,-82 29,12 683,309 840,1267 15,84 -39,164 -123,174 -18,2 -31,4 -48,2l0 0z"/>
   <polygon class="fil5" points="4619,50933 4204,50968 4873,49917 4969,49947 "/>
   <path class="fil2" d="M10030 44548c-164,1219 -1299,2072 -2534,1906 -1236,-167 -2104,-1290 -1939,-2509 164,-1218 1298,-2072 2534,-1905 1235,167 2103,1290 1939,2508z"/>
   <path class="fil6" d="M7834 46326c-154,14 -314,9 -476,-12 -1150,-155 -1959,-1197 -1806,-2335 70,-519 330,-966 702,-1284l20 -15c63,-48 150,-23 180,46 115,302 586,933 2461,956 113,-2 200,92 193,204 -21,514 -178,1841 -1168,2428l-106 12 0 0z"/>
   <path class="fil2" d="M8764 51457c0,0 -327,1175 -518,1366 -186,192 -74,-483 -74,-483 0,0 -361,784 -510,729 -148,-59 237,-853 237,-853 0,0 -336,814 -484,755 -149,-55 206,-822 206,-822 0,0 -413,556 -556,519 -142,-37 286,-738 286,-738 0,0 -223,-13 -461,16 -239,33 -27,-416 596,-757l1278 268z"/>
   <path class="fil2" d="M8901 46326c0,0 -1104,-240 -1474,635 0,0 40,894 501,2075 0,0 65,326 -76,858 -146,531 -404,1260 -404,1260 0,0 395,443 1316,303 0,0 755,-1161 804,-2325 53,-1164 -667,-2806 -667,-2806l0 0z"/>
   <path class="fil3" d="M8107 51702c-375,-50 -637,-268 -745,-426 -47,-71 -30,-164 37,-216 67,-47 165,-30 212,38 14,23 374,505 1094,216 79,-32 169,6 202,84 28,82 -10,168 -88,201 -266,107 -508,131 -712,103l0 0z"/>
   <path class="fil4" d="M7936 49432c0,0 1408,168 1632,-300 0,0 45,249 -120,764 0,0 -821,167 -1541,-251 0,0 -57,-25 29,-213z"/>
   <path class="fil3" d="M7413 47288c-12,-1 -25,-3 -38,-5 -104,-35 -166,-148 -130,-256 312,-995 1253,-1024 1708,-897 110,27 172,140 140,248 -27,109 -140,172 -249,145 -92,-26 -941,-227 -1212,626 -30,95 -125,152 -219,139z"/>
   <path class="fil3" d="M7223 50603c-35,-5 -63,-17 -86,-42 -43,-36 -1018,-940 -2168,-358 -75,38 -166,8 -204,-66 -38,-75 -8,-166 67,-204 1346,-686 2505,399 2517,409 57,60 61,156 1,217 -31,35 -81,50 -127,44l0 0z"/>
   <path class="fil7" d="M7462 47289c51,363 174,998 466,1747 -50,404 -153,701 -264,916 182,-794 -346,-2429 -400,-2758 25,40 64,73 111,89l38 5c17,3 33,3 49,1z"/>
  </g>
 </g>
</svg>
