<?xml version="1.0" encoding="UTF-8"?>
<!DOCTYPE svg PUBLIC "-//W3C//DTD SVG 1.1//EN" "http://www.w3.org/Graphics/SVG/1.1/DTD/svg11.dtd">
<!-- Creator: CorelDRAW X7 -->
<svg xmlns="http://www.w3.org/2000/svg" xml:space="preserve" width="3.87417in" height="1.22654in" version="1.1" style="shape-rendering:geometricPrecision; text-rendering:geometricPrecision; image-rendering:optimizeQuality; fill-rule:evenodd; clip-rule:evenodd"
viewBox="0 0 38742 12265"
 xmlns:xlink="http://www.w3.org/1999/xlink">
 <defs>
  <style type="text/css">
   <![CDATA[
    .fil1 {fill:#BB9B61}
    .fil0 {fill:#DCC08B}
    .fil2 {fill:white}
    .fil3 {fill:white;fill-rule:nonzero}
   ]]>
  </style>
 </defs>
 <g id="Layer_x0020_1">
  <metadata id="CorelCorpID_0Corel-Layer"/>
  <g id="_2071828259888">
   <path class="fil0" d="M6132 0l26478 0c3372,0 6132,2760 6132,6132 0,3373 -2759,6133 -6132,6133l-26478 0c-3372,0 -6132,-2760 -6132,-6132 0,-3373 2759,-6133 6132,-6133z"/>
   <polygon class="fil1" points="26222,1775 25868,1775 25868,10490 26222,10490 "/>
   <polygon class="fil2" points="25689,1775 25868,1775 25868,10490 25689,10490 "/>
   <path class="fil2" d="M30563 5998l3929 0 -1475 -1474 192 -193 1803 1802 -1803 1803 -192 -192 1475 -1477 -3929 0 0 -269zm-2114 135c0,-1159 450,-2250 1270,-3069 820,-819 1908,-1271 3067,-1268 1159,0 2247,449 3067,1270 821,817 1270,1908 1270,3067 0,1159 -449,2249 -1270,3067 -820,820 -1908,1271 -3067,1271 -1159,1 -2247,-451 -3067,-1270 -820,-819 -1270,-1909 -1270,-3068zm8404 0c0,-1087 -423,-2108 -1190,-2877 -769,-767 -1789,-1190 -2877,-1190 -1087,0 -2107,423 -2875,1190 -769,769 -1191,1790 -1191,2877 0,1087 422,2107 1191,2876 768,768 1788,1192 2875,1192 1088,0 2108,-424 2877,-1192 768,-769 1190,-1789 1190,-2876z"/>
   <path class="fil3" d="M10739 7253l-53 0c-230,0 -431,-49 -603,-147 -171,-98 -303,-236 -396,-413 -45,63 -100,118 -164,165 -64,47 -137,88 -216,124 -47,19 -100,34 -160,45 -61,11 -124,17 -192,17 -67,0 -137,-8 -208,-24 -71,-16 -141,-42 -208,-79 -103,-55 -186,-127 -249,-217 -62,-89 -104,-195 -124,-318 -27,-149 -18,-294 27,-434 45,-140 124,-268 236,-384 197,-202 475,-355 834,-462l-41 -232 397 -85c34,144 65,271 91,383 25,111 48,211 68,301 4,17 11,46 21,86 9,40 20,86 33,139 13,52 27,109 41,169 14,60 29,119 43,177 15,57 28,111 41,161 13,51 24,92 35,125 28,108 71,195 127,260 56,66 117,116 183,151 66,35 133,58 202,69 68,11 129,16 182,16l53 0 0 407zm-1368 -1734c-143,41 -268,91 -377,148 -109,57 -200,121 -271,191 -71,69 -121,144 -151,225 -31,81 -38,164 -23,252 11,61 32,112 65,152 33,41 72,74 116,99 32,18 67,31 104,39 38,8 75,12 112,13 37,1 74,-2 109,-7 35,-6 67,-15 94,-26 181,-75 286,-211 316,-407 11,-72 12,-137 6,-193 -6,-57 -12,-96 -16,-116l-84 -370zm2215 1327c16,0 24,6 24,17l0 369c0,14 -8,21 -24,21l-922 0c-14,0 -22,-7 -22,-21l0 -369c0,-11 8,-17 22,-17l922 0zm893 0c15,0 23,6 23,17l0 369c0,14 -8,21 -23,21l-923 0c-14,0 -22,-7 -22,-21l0 -369c0,-11 8,-17 22,-17l923 0zm1511 103c9,0 23,0 41,-1 19,-2 38,-8 59,-18 21,-10 41,-25 62,-46 21,-21 40,-50 57,-89 15,-38 30,-87 40,-146 11,-59 16,-133 16,-219 0,-16 -1,-41 -4,-75 -3,-35 -9,-74 -19,-115 -11,-43 -26,-87 -45,-131 -19,-45 -45,-85 -79,-123 -32,-37 -72,-68 -120,-92 -47,-24 -105,-35 -173,-35 -63,0 -116,11 -160,34 -44,22 -81,53 -111,91 -30,39 -55,84 -76,137 -19,52 -38,109 -56,170 -16,62 -34,125 -51,192 -18,67 -37,133 -60,199 74,38 143,73 206,106 63,33 123,62 177,85 55,24 106,42 154,56 48,14 96,20 142,20zm-165 -1495c142,0 264,27 368,81 104,53 191,126 260,216 68,91 120,195 154,313 34,118 50,240 50,366 0,140 -11,259 -35,360 -24,101 -55,185 -93,253 -40,68 -83,123 -131,165 -48,41 -97,73 -147,95 -50,22 -97,36 -143,43 -46,7 -85,11 -118,11 -71,0 -139,-7 -203,-21 -64,-15 -131,-35 -199,-62 -67,-27 -138,-59 -212,-98 -74,-39 -155,-83 -245,-132 -117,140 -269,209 -454,209l-248 0 0 -407 248 0c55,0 100,-20 134,-60 36,-41 66,-93 92,-158 26,-64 50,-138 71,-222 21,-83 47,-168 74,-256 29,-87 62,-173 101,-257 39,-83 87,-157 148,-222 59,-64 132,-117 217,-157 86,-40 190,-60 311,-60zm1960 1797l-408 0 0 -3073 408 0 0 3073zm1606 35c-74,0 -147,-3 -222,-10 -75,-7 -148,-16 -219,-30 -71,-14 -139,-32 -205,-54 -65,-22 -125,-49 -178,-81l-178 -101 202 -356 179 102c50,28 112,52 185,70 74,17 151,31 234,39 81,8 164,11 247,9 84,-1 160,-7 231,-17 83,-13 151,-31 205,-55 55,-24 89,-50 103,-81 14,-32 12,-75 -6,-131 -19,-56 -52,-119 -98,-188l-780 -1179 345 -224c19,29 38,58 58,89 20,32 44,67 72,108 26,41 58,90 94,145 36,55 80,122 132,199 52,78 112,168 181,271 69,104 149,225 241,363 36,54 68,111 97,171 29,60 50,120 65,180 14,61 20,121 18,182 -2,61 -17,121 -44,180 -91,203 -299,328 -625,375 -50,7 -103,13 -159,17 -57,4 -115,7 -175,7zm1998 -35l-408 0 0 -3073 408 0 0 3073z"/>
  </g>
 </g>
</svg>
