<?xml version="1.0" encoding="UTF-8"?>
<!DOCTYPE svg PUBLIC "-//W3C//DTD SVG 1.1//EN" "http://www.w3.org/Graphics/SVG/1.1/DTD/svg11.dtd">
<!-- Creator: CorelDRAW X7 -->
<svg xmlns="http://www.w3.org/2000/svg" xml:space="preserve" width="1.1811in" height="1.1811in" version="1.1" style="shape-rendering:geometricPrecision; text-rendering:geometricPrecision; image-rendering:optimizeQuality; fill-rule:evenodd; clip-rule:evenodd"
viewBox="0 0 11811 11811"
 xmlns:xlink="http://www.w3.org/1999/xlink">
 <defs>
  <style type="text/css">
   <![CDATA[
    .fil1 {fill:white}
    .fil0 {fill:#ECDDC1;fill-rule:nonzero}
   ]]>
  </style>
 </defs>
 <g id="Layer_x0020_1">
  <metadata id="CorelCorpID_0Corel-Layer"/>
  <g id="_2071907999648">
   <g id="_2902029503680">
    <path class="fil0" d="M11811 5914c0,-3259 -2656,-5914 -5914,-5914 -3259,0 -5897,2655 -5897,5914 0,3259 2638,5897 5897,5897 3258,0 5914,-2638 5914,-5897z"/>
    <path class="fil1" d="M7009 7576l0 1113 -4454 0 0 -1113 4454 0zm-4454 -4454c2227,0 4454,0 6701,0l-1133 1113c-1850,0 -3719,0 -5568,0l0 -1113zm6701 2227c0,1113 0,2227 0,3340l-1134 0 0 -2227 -5567 0 0 -1113c2234,0 4467,0 6701,0z"/>
   </g>
  </g>
 </g>
</svg>
