<?xml version="1.0" encoding="UTF-8"?>
<!DOCTYPE svg PUBLIC "-//W3C//DTD SVG 1.1//EN" "http://www.w3.org/Graphics/SVG/1.1/DTD/svg11.dtd">
<!-- Creator: CorelDRAW X7 -->
<svg xmlns="http://www.w3.org/2000/svg" xml:space="preserve" width="11.0338in" height="5.88177in" version="1.1" style="shape-rendering:geometricPrecision; text-rendering:geometricPrecision; image-rendering:optimizeQuality; fill-rule:evenodd; clip-rule:evenodd"
viewBox="0 0 110338 58818"
 xmlns:xlink="http://www.w3.org/1999/xlink">
 <defs>
  <style type="text/css">
   <![CDATA[
    .fil14 {fill:#FEFEFE}
    .fil16 {fill:#9DAFD7}
    .fil17 {fill:#B0BEDF}
    .fil21 {fill:#C5CFE7}
    .fil22 {fill:#C9D3E9}
    .fil11 {fill:#D2AE6D}
    .fil15 {fill:#DDE2F1}
    .fil19 {fill:#DEC494}
    .fil10 {fill:#E3CEA7}
    .fil2 {fill:#F1E6D3}
    .fil18 {fill:#F2F5F9}
    .fil1 {fill:#F7F1E6}
    .fil13 {fill:#F7F1E8}
    .fil20 {fill:white}
    .fil9 {fill:white}
    .fil5 {fill:#9DAFD7;fill-rule:nonzero}
    .fil6 {fill:#C9D3E9;fill-rule:nonzero}
    .fil8 {fill:#DCC18F;fill-rule:nonzero}
    .fil0 {fill:#DEC495;fill-rule:nonzero}
    .fil3 {fill:#E3CEA7;fill-rule:nonzero}
    .fil12 {fill:#F1E6D3;fill-rule:nonzero}
    .fil7 {fill:#F2F5F9;fill-rule:nonzero}
    .fil4 {fill:white;fill-rule:nonzero}
   ]]>
  </style>
 </defs>
 <g id="Layer_x0020_1">
  <metadata id="CorelCorpID_0Corel-Layer"/>
  <g id="_2071819790000">
   <path class="fil0" d="M79455 33308c33,212 232,359 446,323 214,-34 359,-239 325,-451 -30,-215 -230,-359 -445,-324 -213,36 -360,235 -326,452z"/>
   <g>
    <path class="fil1" d="M96195 50131c1653,52 2952,1434 2900,3087 -51,1654 -1433,2953 -3087,2901 -1653,-51 -2952,-1434 -2901,-3087 52,-1654 1434,-2953 3088,-2901z"/>
    <path class="fil2" d="M95187 50625c1364,43 2434,1182 2392,2546 -43,1364 -1182,2435 -2546,2392 -336,-10 -655,-87 -943,-218 509,461 1178,751 1918,774 1654,52 3036,-1247 3087,-2901 52,-1653 -1247,-3035 -2900,-3087 -741,-23 -1426,225 -1963,653 296,-112 619,-169 955,-159z"/>
   </g>
   <path class="fil3" d="M57549 32255l-1764 4162 -1478 4269c0,0 3241,1391 7125,1780l-725 -1109c0,0 2208,583 6721,-503 -2630,-3810 -4666,-4845 -4666,-4845l1285 -342c-3151,-2291 -6498,-3412 -6498,-3412l0 0 0 0z"/>
   <path class="fil4" d="M56957 33651l-1172 2766 -981 2835c0,0 2153,924 4733,1183l-483 -738c0,0 1469,388 4467,-333 -1748,-2530 -3099,-3219 -3099,-3219l852 -227c-2094,-1524 -4317,-2267 -4317,-2267z"/>
   <polygon class="fil5" points="58393,31476 54413,41825 53178,41353 57157,31005 "/>
   <path class="fil6" d="M43509 39640c0,0 1525,8705 11005,10671 885,182 1503,-889 880,-1548 -1719,-1822 -3718,-4798 -2983,-8310l-8902 -813 0 0z"/>
   <path class="fil6" d="M48811 25852c0,0 6977,-5465 15350,-624 782,452 522,1662 -383,1738 -2502,212 -5987,1098 -7795,4201l-7172 -5315z"/>
   <path class="fil4" d="M57424 30579c-2487,-2053 -14014,-8068 -25725,-12535 -13248,-5052 -30959,-4740 -31671,-2892 -709,1850 12263,13864 25511,18917 12498,4764 24324,7655 27552,7780l4333 -11270 0 0 0 0z"/>
   <path class="fil7" d="M33550 22775c-2617,-546 -5189,1153 -5749,3791 -559,2639 1110,5222 3727,5767 2615,545 5188,-1153 5748,-3792 558,-2641 -1109,-5222 -3726,-5766z"/>
   <path class="fil6" d="M55865 34638c3446,1315 5968,3085 5635,3954 -337,872 -3403,513 -6849,-801 -3447,-1314 -5968,-3084 -5633,-3957 335,-868 3400,-510 6847,804z"/>
   <path class="fil8" d="M43071 10841c142,504 -1051,3377 -1664,4798 -304,704 -371,791 -1123,560l-1651 -505 1045 -4655 2153 -1103c-5,-3 1038,189 1240,905z"/>
   <path class="fil9" d="M36275 12332c0,0 -1132,-1225 -1459,-1855 -330,-630 -694,-2116 -812,-2759 0,0 579,-895 1366,-512 0,0 796,1941 1227,2344 432,403 1038,1003 1038,1003l-742 1947 -618 -168 0 0 0 0z"/>
   <path class="fil10" d="M34654 10108c0,0 1068,-686 1685,-902 0,0 205,-8 258,344 0,0 -614,924 -1526,1329 0,0 -377,-241 -417,-771l0 0 0 0z"/>
   <path class="fil9" d="M37647 10251c0,0 -2129,1617 -1507,4614 0,0 -1826,924 -2300,1426 -473,499 -1010,2557 -1010,2557 0,0 -71,27 -174,79 30,124 147,383 575,647 242,151 584,302 1065,433 82,-42 159,-89 232,-136 0,0 624,-1648 752,-2189l1655 -382 -22 184c-56,310 -96,646 -106,985 0,0 0,1211 687,2328 0,0 -19,70 -45,189 97,51 310,147 597,177l195 11c314,-2 717,-93 1137,-421 -1,-77 -5,-154 -14,-232 0,0 -536,-1227 -492,-1767l1161 -2493c0,0 613,-461 602,-1843l129 -3460 -3117 -707 0 0 0 0z"/>
   <path class="fil11" d="M37492 12448c0,234 -186,422 -417,424 -231,2 -418,-184 -418,-417 -1,-232 187,-420 417,-422 232,-1 418,183 417,415l1 0 0 0z"/>
   <path class="fil3" d="M38046 21163l-14 0 -5 0 -8 -2 -11 -1 -2 0 -14 -2 0 0 -12 -2 -6 -2 -7 -1 -9 0 -4 -2 -13 -2 0 0 -11 -1 -6 -1 -8 -2 -9 -1 -2 -1 -11 -1 -2 -1 -12 -3 -4 -2 -7 -1 -10 0 -2 -1 -12 -5 -1 2 -11 -3 -5 -1 -6 -3 -9 -1 -2 -1 -11 -4 -3 1 -8 -2 -7 -1 -4 -2 -9 -3 -2 -1 -11 -2 -2 -1 -6 -1 -9 -5 -5 1 -8 -3 0 0 -11 -4 -2 -1 -9 -2 -6 -1 -2 -1 -11 -4 -8 -3 -4 -2 -7 -1 -5 -3 -3 -2 -8 -2 -2 -1 -8 -3 -4 -2 -6 0 -5 -4 -3 1 -7 -4 -2 -1 -7 -1 -4 -3 -4 -2 -7 -1 -2 -1 -7 -5 -3 1 -6 -3 -4 -3 -3 -2 -7 -1 -2 -1 -5 -3 -2 -1 -8 -2 -3 -2 -2 -1 -6 -3 -2 -1 -6 -2 -2 -1 -3 -1 -1 -1 -4 -2 -4 -3 -5 1 -2 -1 -5 -3 -2 -1 -5 -3 -3 -2 -2 -1 -4 -2 -2 -1 -5 0 -1 -1 -4 -2 -4 -3 -3 -1 -3 -2 -6 -3 0 0 -3 -3c-32,-15 -48,-27 -55,-31 -87,-56 -113,-171 -58,-258 57,-89 172,-114 259,-60 34,22 804,486 1647,-257 79,-66 196,-60 264,17 66,78 59,197 -18,265l-110 90 -18 16 -3 0 -19 15 -19 15 -3 1 -17 13 -4 2 -16 10 -6 6 -13 9 -7 4 -13 10 -8 6 -12 6 -11 6 -8 5 -12 9 -7 3 -14 11 -5 4 -15 9 -4 2 -17 9 -1 2 -20 11 -1 -1 -19 11 0 0 -19 10 -3 1 -15 10 -6 1 -15 9 -4 2 -15 8 -6 3 -12 7 -19 6 -11 6 -7 4 -12 5 -8 3 -13 6 -4 3 -16 5 -3 1 -17 8 0 0 -20 10 0 0 -20 6 0 0 -16 6 -5 2 -14 4 -6 2 -13 6 -5 1 -13 3 -7 3 -10 5 -10 2 -7 3 -13 3 -6 2 -13 5 -4 0 -16 3 -2 1 -16 7 -2 -1 -18 4 0 0 -18 5 0 0 -16 4 -2 1 -14 3 -6 1 -14 2 -6 1 -9 3 -8 1 -9 3 -9 1 -8 1 -10 1 -6 3 -13 2 -5 0 -13 2 -3 1 -15 2 -2 1 -16 1 0 0 -16 1 -3 0 -14 4 -1 -2 -14 3 -4 0 -12 0 -6 2 -10 0 -6 1 -10 0 -7 0 -8 1 -9 3 -7 -2 -11 1 -5 0 -10 1 -6 0 -11 -2 -3 1 -13 1 -1 2 -15 -1 -195 -11 -2 0 1 0z"/>
   <path class="fil10" d="M38902 18970c-623,544 -1983,554 -2038,247 -98,-243 -72,-551 -72,-551 973,-578 2093,-28 2093,-28 0,0 81,121 17,332l0 0 0 0z"/>
   <path class="fil3" d="M34527 20058c-14,-1 -30,-2 -45,-5l-186 -46 -21 -7 -22 -5 -4 -3 -17 -5 -23 -5 -33 -11 -10 -1 -21 -7 -22 -7 -17 -5 -5 -1 -19 -5 -41 -13 -4 -2 -17 -6 -19 -5 -21 -8 -11 -3 -9 -3 -18 -8 -19 -5 -18 -5 -2 -1 -18 -8 -19 -6 -18 -8 -5 0 -13 -5 -18 -8 -17 -5 -12 -5 -26 -8 -16 -7 -17 -7 0 0 -16 -7 -18 -8 -17 -7 -4 -2 -12 -5 -16 -7 -17 -7 -10 -3 -6 -3 -14 -6 -15 -9 -17 -7 0 0 -14 -6 -15 -8 -15 -6 -6 -1 -10 -6 -13 -7 -14 -6 -12 -7 -4 -2 -15 -5 -13 -7 -14 -8 0 0 -14 -6 -13 -8 -13 -7 -6 -3 -6 -4 -13 -7 -15 -6 -9 -5 -2 -1 -13 -8 -11 -6 -14 -8 -2 -1 -9 -6 -11 -8 -13 -8 -5 -3 -7 -3 -11 -7 -39 -25 -17 -13 0 0 -19 -11 -16 -12 -2 -1 -18 -13 -12 -9 -7 -3 -15 -12 -11 -8 -5 -3 -16 -14 -9 -5 -8 -7 -15 -11 -6 -6 -9 -8 -13 -10 -6 -5 -8 -8 -14 -10 -3 -4 -9 -9 -14 -13 -2 -1 -11 -11 -11 -11 0 0 -11 -11 -13 -10 0 -3 -13 -10 -7 -10 -2 -4 -10 -10 -8 -7 -3 -4 -10 -11 -6 -6 -2 -4 -9 -12 -5 -5 -4 -5 -9 -11 -5 -5 -4 -5 -8 -12 -2 -1 -6 -8 -6 -11 -2 -1 -6 -8 -6 -12 -1 -1 -6 -8 -8 -9 -4 -10 -7 -9 1 -2 -5 -9 -6 -8 -2 -1 -4 -10 -4 -7 -2 -1 -4 -10 -3 -4 0 -3 -5 -11 -3 -4 0 -3 -5 -9 0 -3 -3 -4 -4 -8 -1 -2 -2 -6 -3 -8 -1 -1 -1 -8 -3 -6 0 0 -5 -8 -1 -6 -3 -7 -2 -6 0 0 -1 -6 -2 -6 0 0 -1 -8 -3 -4 1 -1 -11 -65c-8,-103 70,-192 170,-201 100,-11 188,64 199,164 7,25 133,521 1558,863 101,22 162,125 137,225 -19,88 -98,144 -181,145l0 -2 0 1z"/>
   <path class="fil10" d="M34231 15969c0,0 963,1000 1049,1713 88,712 -1767,-846 -1767,-846 0,0 -7,-637 718,-867z"/>
   <path class="fil3" d="M37237 16321c-79,0 -153,-50 -177,-131 -286,-935 -945,-1136 -971,-1144 -100,-29 -156,-132 -127,-232 28,-98 130,-158 230,-128 35,10 876,252 1223,1391 29,98 -25,203 -123,236 -19,3 -37,8 -55,8l0 0 0 0z"/>
   <polygon class="fil12" points="36935,17300 36014,17513 37073,16024 37198,16041 "/>
   <path class="fil9" d="M42445 8600c0,1511 -1236,2744 -2755,2756 -1523,13 -2757,-1200 -2756,-2710 -2,-1509 1233,-2745 2755,-2756 1522,-14 2756,1200 2756,2710z"/>
   <path class="fil11" d="M40076 11140c-186,46 -381,68 -579,71 -1416,13 -2563,-1117 -2566,-2523 2,-643 241,-1233 640,-1685l23 -20c64,-69 175,-56 222,26 192,345 864,1030 3134,729 137,-18 260,80 272,218 55,628 80,2266 -1019,3151l-127 33z"/>
   <path class="fil9" d="M43536 16650c0,0 260,1477 156,1789 -106,313 -340,-493 -340,-493 0,0 15,1064 -176,1079 -194,15 -189,-1071 -189,-1071 0,0 59,1082 -132,1097 -192,16 -208,-1025 -208,-1025 0,0 -164,837 -338,874 -174,35 -73,-972 -73,-972 0,0 -254,108 -501,269 -246,163 -249,-445 256,-1161l1546 -386 0 0 -1 0z"/>
   <path class="fil9" d="M40977 10894c0,0 -1338,333 -1279,1497 0,0 513,966 1646,2026 0,0 241,328 363,992 125,666 225,1613 225,1613 0,0 669,277 1604,-372 0,0 218,-1689 -342,-3007 -558,-1316 -2217,-2749 -2217,-2749l0 0 0 0z"/>
   <path class="fil3" d="M42943 17273c-440,144 -839,45 -1045,-73 -87,-50 -119,-164 -69,-254 50,-91 163,-123 253,-75 28,18 677,359 1317,-348 70,-76 188,-83 263,-13 77,70 81,188 11,264 -239,264 -492,419 -730,499l0 0 0 0z"/>
   <path class="fil10" d="M41556 14853c0,0 1640,-573 1638,-1209 0,0 181,254 271,913 0,0 -813,622 -1827,546 0,0 -78,5 -82,-250l0 0 0 0z"/>
   <path class="fil13" d="M31733 19895c-82,602 1526,650 2563,112 -481,-131 -823,-282 -1065,-433 -428,-265 -545,-523 -575,-647 -114,56 -266,141 -415,252 -240,177 -470,419 -508,716l0 0z"/>
   <path class="fil13" d="M37645 23085c402,446 1105,-120 1479,-1035 160,-386 258,-835 254,-1297 -420,328 -823,419 -1137,421l-195 -11c-287,-31 -500,-127 -597,-177 -17,83 -39,192 -58,313 -85,535 -132,1359 254,1786l0 0 0 0z"/>
   <path class="fil0" d="M68198 46187c503,265 1128,87 1418,-413l9 4c-285,504 -121,1134 363,1432 -504,-267 -1134,-85 -1422,419l-8 -5c288,-504 125,-1139 -360,-1437z"/>
   <path class="fil0" d="M95549 29066c26,166 181,277 344,250 166,-27 276,-182 251,-348 -26,-163 -180,-277 -344,-249 -164,27 -276,184 -251,347z"/>
   <path class="fil0" d="M69809 35999c491,-78 835,-551 751,-1049 -71,-502 -537,-846 -1035,-762 -1183,200 -910,2012 284,1811z"/>
   <path class="fil0" d="M60196 48159c272,-45 459,-300 414,-573 -39,-272 -293,-458 -564,-412 -647,106 -495,1090 150,985z"/>
   <path class="fil0" d="M79264 57077c27,167 181,277 343,249 164,-25 277,-181 251,-348 -25,-162 -178,-275 -343,-248 -164,27 -275,184 -251,347z"/>
   <path class="fil0" d="M60703 31544c24,163 177,276 342,249 164,-27 275,-182 251,-347 -27,-165 -179,-276 -343,-249 -165,27 -277,181 -250,347z"/>
   <path class="fil0" d="M71378 31288c165,-28 276,-184 251,-348 -26,-166 -180,-277 -344,-249 -389,58 -296,655 93,597z"/>
   <path class="fil0" d="M72873 43529c165,-28 275,-182 249,-349 -25,-163 -179,-276 -343,-248 -390,63 -299,661 94,597z"/>
   <path class="fil0" d="M54893 19153c27,163 181,277 345,249 164,-27 275,-184 249,-348 -25,-165 -179,-276 -343,-249 -164,26 -275,182 -251,348l0 0 0 0z"/>
   <path class="fil0" d="M110089 58813c387,-64 296,-661 -93,-597 -392,64 -301,662 93,597z"/>
   <path class="fil0" d="M66521 54303c26,163 179,276 343,248 165,-26 277,-183 251,-346 -23,-166 -177,-277 -343,-250 -164,28 -277,181 -251,348z"/>
   <path class="fil0" d="M96116 43288c164,-25 276,-182 250,-346 -26,-166 -180,-277 -343,-251 -388,63 -298,661 93,597z"/>
   <path class="fil3" d="M40032 16447c-38,1 -77,-11 -109,-35 -58,-41 -1385,-971 -2682,-58 -85,60 -199,39 -259,-45 -58,-86 -36,-203 49,-262 1516,-1068 3096,50 3109,60 84,61 103,178 42,262 -36,50 -92,79 -150,78l0 0z"/>
   <path class="fil3" d="M39852 12764c-15,4 -26,8 -42,9 -134,21 -260,-75 -281,-209 -180,-1271 839,-1809 1404,-1914 135,-26 264,63 289,200 25,136 -65,267 -198,293 -119,23 -1158,257 -1004,1347 17,120 -54,237 -168,273l0 1z"/>
   <path class="fil2" d="M36440 11858c337,-740 795,-1232 1038,-1460 -23,-22 -47,-46 -74,-72 -401,265 -1150,809 -1605,1469 225,262 411,466 461,521 54,-161 114,-313 179,-457l1 0 0 -1z"/>
   <path class="fil14" d="M38082 7323c111,93 259,186 454,266 -288,311 -502,698 -607,1137 -185,777 12,1554 469,2138 -71,-49 -141,-102 -206,-158 -578,-598 -847,-1466 -641,-2334 96,-399 281,-754 531,-1049z"/>
   <path class="fil2" d="M40661 13713c-346,-393 -594,-738 -752,-977 -17,12 -36,21 -57,28 -15,4 -26,8 -42,9 -33,5 -65,3 -96,-4 93,199 383,782 926,1499l21 -555z"/>
   <path class="fil15" d="M54000 39216c-15818,-1535 -42811,-12752 -53888,-24199 -38,44 -66,89 -84,135 -709,1850 12263,13864 25511,18917 6581,2509 12976,4498 18027,5837 3846,1020 6914,1664 8691,1873 321,38 600,61 834,70l178 -461 831 -2163c-34,-3 -67,-6 -100,-9z"/>
   <path class="fil6" d="M10191 25436c1751,-1282 3092,-2939 3860,-4935 767,-1996 880,-4124 439,-6243 -7574,-724 -13705,-217 -14415,807 -19,30 -35,59 -47,87 -13,31 -18,63 -22,96 -161,1237 4064,5694 10185,10188l0 0 0 0z"/>
   <path class="fil16" d="M11870 23955c-4709,-2843 -8800,-5882 -11757,-8937 -14,15 -26,31 -38,47 -19,30 -35,59 -47,87 -13,31 -18,63 -22,96 -161,1237 4064,5694 10185,10188 612,-448 1174,-942 1679,-1481z"/>
   <path class="fil16" d="M52257 41779c-1777,-209 -4845,-853 -8691,-1873 54,229 150,593 305,1053 3670,973 6629,1602 8432,1837 -38,-332 -55,-671 -46,-1017z"/>
   <path class="fil17" d="M57390 29426c-1497,-1015 -4174,-2528 -7554,-4241 -379,219 -660,406 -831,526 3522,1784 6284,3352 7750,4369 201,-234 413,-452 635,-654z"/>
   <path class="fil18" d="M40600 33503c1570,49 2882,-1184 2931,-2754 49,-1569 -1184,-2882 -2754,-2931 -1570,-49 -2882,1184 -2931,2754 -49,1570 1184,2883 2754,2931z"/>
   <path class="fil10" d="M40622 32799c1181,37 2168,-891 2205,-2071 36,-1181 -891,-2168 -2072,-2205 -1180,-37 -2167,891 -2204,2071 -37,1181 890,2168 2071,2205z"/>
   <path class="fil11" d="M39112 30937c37,-1181 1024,-2108 2205,-2072 266,9 519,65 752,162 -356,-301 -812,-488 -1314,-504 -1180,-37 -2167,891 -2204,2071 -29,915 521,1713 1319,2044 -481,-407 -779,-1022 -758,-1701z"/>
   <g>
    <path class="fil19" d="M32422 31265c2050,63 3763,-1546 3827,-3596 64,-2050 -1546,-3763 -3595,-3827 -2050,-64 -3764,1546 -3827,3596 -64,2049 1545,3763 3595,3827z"/>
    <path class="fil11" d="M29801 28032c64,-2050 1778,-3659 3827,-3596 463,15 902,113 1306,280 -618,-522 -1409,-847 -2280,-874 -2050,-64 -3764,1546 -3827,3596 -50,1587 905,2973 2290,3547 -836,-707 -1352,-1774 -1316,-2953z"/>
   </g>
   <g>
    <path class="fil20" d="M32576 29440l-2622 -988 248 -657 2621 989 -247 656zm-1633 -3610l247 -657c1312,495 2622,989 3934,1484l-905 409c-1091,-412 -2185,-825 -3276,-1236zm3686 2137c-247,657 -494,1311 -742,1968l-657 -248 495 -1311 -3276 -1236 247 -656c1312,494 2622,988 3933,1483z"/>
   </g>
   <path class="fil2" d="M31791 32414c2615,545 5189,-1153 5749,-3792 535,-2535 -980,-5016 -3418,-5691 2282,775 3670,3167 3154,5610 -560,2639 -3133,4337 -5748,3792 -104,-22 -206,-46 -307,-74 184,62 374,114 570,155z"/>
   <path class="fil2" d="M40823 33602c1570,49 2882,-1184 2931,-2754 39,-1234 -716,-2310 -1803,-2737 966,480 1616,1490 1580,2638 -49,1570 -1361,2803 -2931,2754 -335,-10 -655,-78 -950,-194 354,176 751,280 1173,293z"/>
   <path class="fil21" d="M37645 23085l0 0zm2245 -1672c-69,-30 -468,-205 -537,-235 -38,310 -119,606 -229,872 -374,915 -1077,1481 -1479,1035 -23,-26 -45,-53 -66,-82 608,1268 2195,-876 2311,-1590z"/>
   <path class="fil21" d="M34296 20007c-910,472 -2258,493 -2521,84 -22,86 -32,173 -26,262 39,642 1639,406 2666,-317l-119 -29z"/>
   <path class="fil21" d="M35353 19488c-111,-45 -482,-196 -594,-241 -65,179 -123,337 -165,448 54,20 94,65 111,118 166,-108 479,-272 648,-325z"/>
   <g id="_2071819790960">
    <path class="fil9" d="M30126 954c217,694 592,1575 1200,1966 668,437 1077,1176 1242,2002l697 -71c139,-924 -140,-1935 -873,-2409 -731,-478 -977,-1994 -977,-1994 -106,199 -676,370 -1289,506z"/>
    <path class="fil9" d="M31326 2920c-608,-391 -983,-1272 -1200,-1966 -165,-531 -230,-954 -230,-954 -364,681 -4362,1159 -4362,1159 -74,770 480,2168 1708,2916 750,455 1026,1401 1121,2065l840 -364 262 990 3139 -315c74,-505 64,-1035 -36,-1530 -165,-825 -574,-1564 -1242,-2001l0 0z"/>
    <polygon class="fil22" points="29465,6766 29203,5776 28363,6140 28916,6454 "/>
    <path class="fil22" d="M31326 2920l0 0zm393 69c-608,-391 -983,-1272 -1200,-1966 -16,-52 -31,-102 -45,-152 -113,29 -230,57 -348,83 217,694 592,1575 1200,1966 668,437 1077,1176 1242,2002l371 -38c-178,-782 -581,-1477 -1220,-1895z"/>
   </g>
   <path class="fil9" d="M34004 7718c0,0 -727,-783 -752,-1110 -24,-328 508,313 508,313 0,0 -434,-962 -262,-1053 171,-92 595,900 595,900 0,0 -479,-962 -307,-1054 171,-92 590,852 590,852 0,0 -174,-832 -30,-932 148,-105 449,856 449,856 0,0 193,-201 358,-446 165,-247 405,308 217,1162l-1366 512 0 0 0 0z"/>
   <path class="fil3" d="M35559 7128c-25,-50 -76,-90 -135,-99 -1025,-156 -1529,561 -1549,592 -58,85 -38,201 47,259 85,59 199,37 258,-49 17,-23 399,-552 1185,-430 102,15 197,-55 213,-158 7,-41 -1,-82 -19,-115l0 0z"/>
  </g>
 </g>
</svg>
