<?xml version="1.0" encoding="UTF-8"?>
<!DOCTYPE svg PUBLIC "-//W3C//DTD SVG 1.1//EN" "http://www.w3.org/Graphics/SVG/1.1/DTD/svg11.dtd">
<!-- Creator: CorelDRAW X7 -->
<svg xmlns="http://www.w3.org/2000/svg" xml:space="preserve" width="1.84874in" height="0.585315in" version="1.1" style="shape-rendering:geometricPrecision; text-rendering:geometricPrecision; image-rendering:optimizeQuality; fill-rule:evenodd; clip-rule:evenodd"
viewBox="0 0 18487 5853"
 xmlns:xlink="http://www.w3.org/1999/xlink">
 <defs>
  <style type="text/css">
   <![CDATA[
    .fil0 {fill:#FEFEFE}
    .fil1 {fill:#6C87C3}
   ]]>
  </style>
 </defs>
 <g id="Layer_x0020_1">
  <metadata id="CorelCorpID_0Corel-Layer"/>
  <g id="_2071781449584">
   <path class="fil0" d="M2926 0l12635 0c1609,0 2926,1317 2926,2926 0,1610 -1316,2927 -2926,2927l-12635 0c-1609,0 -2926,-1317 -2926,-2926 0,-1610 1317,-2927 2926,-2927z"/>
   <path class="fil1" d="M14181 1462c-390,392 -605,912 -605,1464 0,553 215,1073 605,1465 392,389 912,605 1464,605 553,0 1073,-216 1465,-605 389,-392 605,-912 605,-1465 0,-552 -216,-1072 -605,-1464 -392,-390 -912,-605 -1465,-605 -552,0 -1072,215 -1464,605zm414 1467l729 728 1371 -1373 -89 -89c-431,431 -851,850 -1282,1279l-637 -637 -92 92zm2992 -3c0,518 -202,1006 -569,1373 -367,367 -855,569 -1373,569 -518,0 -1006,-202 -1373,-569 -366,-367 -568,-855 -568,-1373 0,-518 202,-1006 568,-1373 367,-366 855,-568 1373,-568 518,0 1006,202 1373,568 367,367 569,855 569,1373z"/>
   <path class="fil1" d="M2926 0l12635 0c1609,0 2926,1317 2926,2926l0 1c0,1609 -1317,2926 -2926,2926l-12635 0c-1609,0 -2926,-1317 -2926,-2926l0 -1c0,-1609 1317,-2926 2926,-2926zm12635 128l-12635 0 0 1c-769,0 -1468,315 -1976,822 -507,507 -822,1206 -822,1975l0 1c0,769 315,1469 822,1976 508,507 1207,822 1976,822l0 0 12635 0c769,0 1468,-315 1976,-822 507,-508 822,-1207 822,-1976l0 -1c0,-769 -315,-1468 -822,-1976 -507,-507 -1207,-822 -1976,-822l0 0z"/>
  </g>
 </g>
</svg>
