<?xml version="1.0" encoding="UTF-8"?>
<!DOCTYPE svg PUBLIC "-//W3C//DTD SVG 1.1//EN" "http://www.w3.org/Graphics/SVG/1.1/DTD/svg11.dtd">
<!-- Creator: CorelDRAW X7 -->
<svg xmlns="http://www.w3.org/2000/svg" xml:space="preserve" width="0.749094in" height="0.749094in" version="1.1" style="shape-rendering:geometricPrecision; text-rendering:geometricPrecision; image-rendering:optimizeQuality; fill-rule:evenodd; clip-rule:evenodd"
viewBox="0 0 7491 7491"
 xmlns:xlink="http://www.w3.org/1999/xlink">
 <defs>
  <style type="text/css">
   <![CDATA[
    .fil0 {fill:none}
    .fil1 {fill:#A38755;fill-rule:nonzero}
   ]]>
  </style>
 </defs>
 <g id="Layer_x0020_1">
  <metadata id="CorelCorpID_0Corel-Layer"/>
  <g id="_2071896207344">
   <polygon class="fil0" points="0,7491 7491,7491 7491,0 0,0 "/>
   <path class="fil1" d="M3641 2376l0 78 0 221 0 132 0 0 0 867 0 135 0 0 0 35 0 835 0 300 0 0 0 136 -133 0 0 -331c-95,-29 -182,-74 -251,-135 -60,-54 -109,-119 -142,-197 -31,-73 -49,-155 -49,-248l67 0 66 0c0,33 3,65 8,95 6,36 16,70 29,101 25,59 62,109 108,149 34,31 74,56 118,77 15,6 30,13 46,19l0 -707 0 -162c-83,-24 -164,-55 -237,-101 -43,-26 -80,-58 -110,-94 -75,-87 -111,-196 -114,-307 -3,-110 26,-221 85,-316 30,-47 66,-90 109,-127 74,-63 167,-108 267,-134l0 -321 133 0 0 0zm209 302l0 0 0 -302 133 0 0 330c98,28 187,73 259,134 64,56 117,124 152,205 33,76 51,163 51,259l-42 0 -24 0 -66 0c0,-47 -5,-91 -15,-132 -7,-26 -15,-51 -25,-74 -27,-62 -67,-114 -117,-158 -27,-22 -57,-43 -89,-60 -27,-14 -55,-26 -84,-36l0 758 0 150c82,23 159,53 229,97 32,19 60,41 87,67 26,26 50,55 69,88 59,102 73,226 51,343 -23,120 -84,234 -173,312 -73,63 -165,107 -263,134l0 322 -133 0 0 -299 0 0 0 -132 0 0 0 -830 0 0 0 -135 0 -23 0 -885 0 -133zm-342 960l0 -804c-68,22 -131,54 -181,97 -32,28 -60,61 -83,97 -45,73 -68,159 -66,243 3,81 29,161 83,224 22,26 48,48 80,68 50,32 107,56 167,75l0 0zm475 1018l2 -1c66,-22 126,-53 175,-96 66,-58 112,-144 129,-236 16,-88 7,-179 -36,-253 -13,-22 -28,-42 -47,-60 -18,-17 -40,-34 -63,-49 -43,-26 -89,-46 -139,-63 -7,-3 -14,-5 -21,-8l0 766 0 0zm-238 -3025c565,0 1096,221 1496,620 399,399 619,930 619,1494 0,565 -220,1096 -619,1496 -400,398 -931,619 -1496,619 -564,0 -1095,-221 -1495,-619 -398,-400 -619,-931 -619,-1496 0,-564 221,-1095 619,-1494 400,-400 931,-620 1495,-620zm-1401 3516c375,375 872,580 1401,580 530,0 1028,-205 1402,-580 375,-375 581,-872 581,-1402 0,-529 -206,-1026 -581,-1401 -374,-374 -872,-581 -1402,-581 -529,0 -1026,207 -1401,581 -375,375 -580,872 -580,1401 0,530 205,1027 580,1402z"/>
  </g>
 </g>
</svg>
