<?xml version="1.0" encoding="UTF-8"?>
<!DOCTYPE svg PUBLIC "-//W3C//DTD SVG 1.1//EN" "http://www.w3.org/Graphics/SVG/1.1/DTD/svg11.dtd">
<!-- Creator: CorelDRAW X7 -->
<svg xmlns="http://www.w3.org/2000/svg" xml:space="preserve" width="0.749094in" height="0.749094in" version="1.1" style="shape-rendering:geometricPrecision; text-rendering:geometricPrecision; image-rendering:optimizeQuality; fill-rule:evenodd; clip-rule:evenodd"
viewBox="0 0 7491 7491"
 xmlns:xlink="http://www.w3.org/1999/xlink">
 <defs>
  <style type="text/css">
   <![CDATA[
    .fil1 {fill:none}
    .fil0 {fill:#A38755}
   ]]>
  </style>
 </defs>
 <g id="Layer_x0020_1">
  <metadata id="CorelCorpID_0Corel-Layer"/>
  <g id="_2071896216208">
   <path class="fil0" d="M5343 5597l0 -2182 361 361 93 -91 -2050 -2053 -2053 2053 93 91 398 -396 0 2217 3158 0zm-1203 -131l-789 0 0 -1442 789 0 0 1442zm-920 0l-904 0 0 -2219 1431 -1428 1467 1468 -2 2179 -941 0 0 -1573 -1051 0 0 1573z"/>
   <polygon class="fil1" points="0,7491 7491,7491 7491,0 0,0 "/>
  </g>
 </g>
</svg>
