<?xml version="1.0" encoding="UTF-8"?>
<!DOCTYPE svg PUBLIC "-//W3C//DTD SVG 1.1//EN" "http://www.w3.org/Graphics/SVG/1.1/DTD/svg11.dtd">
<!-- Creator: CorelDRAW X7 -->
<svg xmlns="http://www.w3.org/2000/svg" xml:space="preserve" width="8.79031in" height="5.5852in" version="1.1" style="shape-rendering:geometricPrecision; text-rendering:geometricPrecision; image-rendering:optimizeQuality; fill-rule:evenodd; clip-rule:evenodd"
viewBox="0 0 87903 55852"
 xmlns:xlink="http://www.w3.org/1999/xlink">
 <defs>
  <style type="text/css">
   <![CDATA[
    .fil7 {fill:#E6E7E8}
    .fil6 {fill:#BB9B61}
    .fil4 {fill:#BDADFF}
    .fil8 {fill:#DCD3FF}
    .fil2 {fill:white}
    .fil3 {fill:#BDADFF;fill-rule:nonzero}
    .fil5 {fill:#DCD3FF;fill-rule:nonzero}
    .fil1 {fill:#FAF6EE;fill-rule:nonzero}
    .fil0 {fill:white;fill-rule:nonzero}
   ]]>
  </style>
 </defs>
 <g id="Layer_x0020_1">
  <metadata id="CorelCorpID_0Corel-Layer"/>
  <g id="_2071905251824">
   <path class="fil0" d="M87903 0c-3617,6200 -8407,9765 -14089,11904 -6606,2486 -14428,3055 -23018,3595 -398,25 -859,52 -1333,79 -5985,348 -14336,834 -17077,5393 -1728,2875 -660,5868 518,9171 1056,2961 2203,6175 1449,9739 -543,2572 -1937,4716 -4143,6091 -2042,1274 -4784,1891 -8196,1581l-30 333c3488,316 6300,-320 8402,-1631 2288,-1426 3732,-3645 4295,-6305 773,-3656 -391,-6917 -1462,-9920 -1150,-3225 -2193,-6148 -547,-8886 2650,-4409 10899,-4889 16812,-5233 445,-26 876,-51 1334,-80 8616,-541 16464,-1112 23112,-3615 5604,-2109 10349,-5586 13973,-11561l0 -655z"/>
   <path class="fil1" d="M22310 45555c0,0 961,108 1041,674 80,566 -1253,2281 -1253,2281l-288 -2563 500 -392 0 0z"/>
   <path class="fil2" d="M18705 44947c0,0 -1261,-526 -1836,-603 -575,-78 -1821,54 -2349,143 0,0 -519,694 0,1189 0,0 1712,74 2147,289 431,219 1067,517 1067,517l1277 -1107 -306 -428 0 0z"/>
   <path class="fil2" d="M14520 44487c0,0 -805,-338 -1061,-269 -262,73 384,304 384,304 0,0 -863,-65 -884,93 -22,157 861,203 861,203 0,0 -875,-101 -897,57 -21,157 825,219 825,219 0,0 -689,94 -725,237 -36,138 783,105 783,105 0,0 -96,204 -240,397 -139,194 352,226 954,-157l0 -1189z"/>
   <path class="fil3" d="M14499 45829c-42,-6 -86,-33 -111,-76 -416,-741 -7,-1328 9,-1352 49,-71 146,-84 213,-36 67,48 85,141 37,209 -16,19 -309,461 9,1029 42,75 12,166 -59,209 -33,17 -63,22 -98,17z"/>
   <path class="fil4" d="M16538 44321c0,0 -219,1012 -208,1542 0,0 52,159 337,102 0,0 532,-726 581,-1539 0,0 -291,-222 -710,-105l0 0z"/>
   <path class="fil5" d="M17774 46509l-380 -188c538,-834 1356,-973 1380,-987l44 93c-5,3 -518,272 -1044,1082z"/>
   <path class="fil2" d="M18884 45323c0,0 -1900,1058 -1720,3555 0,0 -1581,528 -2019,881 -441,349 -1099,1947 -1099,1947 0,0 -860,201 -1003,715 -139,515 1375,736 2270,306 0,0 682,-1257 847,-1677l1382 -117 -37 146c-81,245 -147,510 -192,781 0,0 -132,980 304,1959 0,0 -543,1262 -130,1865 417,607 1615,-524 1675,-1870 0,0 -305,-1051 -208,-1481l1212 -1879c0,0 547,-300 685,-1418l484 -2780 -2451 -933 0 0z"/>
   <path class="fil6" d="M18521 47083c-26,187 -199,316 -382,291 -188,-25 -321,-195 -296,-383 26,-187 200,-320 387,-295 183,25 316,199 291,387z"/>
   <path class="fil3" d="M18180 54211c-60,-8 -110,-19 -157,-30 -310,-80 -501,-236 -509,-246 -62,-52 -71,-148 -14,-214 52,-63 148,-72 215,-15 23,21 598,484 1364,-20 67,-43 164,-25 211,46 42,71 26,164 -46,211 -414,273 -787,306 -1064,268l0 0z"/>
   <path class="fil4" d="M18956 52511c-565,362 -1669,214 -1682,-40 -51,-206 4,-450 4,-450 850,-354 1701,220 1701,220 0,0 46,106 -23,270z"/>
   <path class="fil3" d="M15293 52881c-13,-2 -25,-8 -38,-10 -1363,-539 -1364,-1112 -1360,-1176 3,-83 76,-146 163,-143 77,6 141,75 139,157 2,18 49,436 1170,878 78,32 118,120 86,198 -26,66 -92,105 -160,96z"/>
   <path class="fil4" d="M15495 49546c0,0 670,919 665,1504 -10,584 -1342,-888 -1342,-888 0,0 65,-516 677,-616l0 0z"/>
   <path class="fil3" d="M17891 50177c-64,-8 -118,-59 -126,-125 -132,-790 -643,-1028 -663,-1035 -78,-37 -113,-128 -77,-201 32,-79 119,-114 197,-82 29,12 683,309 840,1267 15,84 -39,164 -123,174 -18,2 -31,4 -48,2l0 0z"/>
   <polygon class="fil5" points="17542,50933 17127,50968 17796,49917 17892,49947 "/>
   <path class="fil2" d="M22953 44548c-164,1219 -1299,2072 -2534,1906 -1236,-167 -2104,-1290 -1939,-2509 164,-1218 1298,-2072 2534,-1905 1235,167 2103,1290 1939,2508z"/>
   <path class="fil6" d="M20757 46326c-154,14 -314,9 -476,-12 -1150,-155 -1959,-1197 -1806,-2335 70,-519 330,-966 702,-1284l20 -15c63,-48 150,-23 180,46 116,302 586,933 2461,956 113,-2 200,92 193,204 -21,514 -178,1841 -1168,2428l-106 12 0 0z"/>
   <path class="fil2" d="M21687 51457c0,0 -327,1175 -518,1366 -186,192 -73,-483 -73,-483 0,0 -362,784 -511,729 -148,-59 237,-853 237,-853 0,0 -336,814 -484,755 -149,-55 206,-822 206,-822 0,0 -413,556 -555,519 -143,-37 286,-738 286,-738 0,0 -224,-13 -462,16 -239,33 -27,-416 596,-757l1278 268z"/>
   <path class="fil2" d="M21824 46326c0,0 -1104,-240 -1474,635 0,0 40,894 501,2075 0,0 65,326 -76,858 -146,531 -404,1260 -404,1260 0,0 395,443 1317,303 0,0 755,-1161 803,-2325 53,-1164 -667,-2806 -667,-2806l0 0z"/>
   <path class="fil3" d="M21030 51702c-375,-50 -637,-268 -745,-426 -47,-71 -30,-164 37,-216 68,-47 165,-30 212,38 14,23 375,505 1095,216 78,-32 168,6 201,84 28,82 -10,168 -88,201 -266,107 -508,131 -712,103l0 0z"/>
   <path class="fil4" d="M20859 49432c0,0 1408,168 1632,-300 0,0 45,249 -120,764 0,0 -821,167 -1541,-251 0,0 -57,-25 29,-213z"/>
   <path class="fil3" d="M20337 47288c-13,-1 -26,-3 -39,-5 -103,-35 -166,-148 -130,-256 312,-995 1253,-1024 1708,-897 110,27 172,140 140,248 -27,109 -140,172 -249,145 -92,-26 -941,-227 -1212,626 -30,95 -125,152 -218,139z"/>
   <g>
    <path class="fil7" d="M3591 32683c394,483 975,1064 1584,1181 672,134 1235,591 1631,1196l532 -280c-186,-780 -731,-1495 -1467,-1638 -735,-147 -1415,-1275 -1415,-1275 -22,192 -421,512 -865,816z"/>
    <path class="fil2" d="M5175 33864c-609,-117 -1190,-698 -1584,-1181 -302,-370 -489,-686 -489,-686 -71,658 -3102,2319 -3102,2319 188,637 1076,1572 2294,1775 743,122 1265,786 1553,1285l553 -559 525 705 2399 -1256c-103,-426 -281,-845 -518,-1206 -396,-605 -959,-1062 -1631,-1196l0 0z"/>
    <polygon class="fil7" points="4925,37522 4400,36817 3847,37376 4388,37449 "/>
   </g>
   <path class="fil3" d="M20146 50603c-34,-5 -63,-17 -86,-42 -43,-36 -1018,-940 -2168,-358 -75,38 -166,8 -204,-66 -38,-75 -8,-166 67,-204 1346,-686 2505,399 2517,409 57,60 61,156 1,217 -31,35 -80,50 -127,44l0 0z"/>
   <path class="fil8" d="M20385 47289c51,363 174,998 466,1747 -50,404 -153,701 -264,916 182,-794 -346,-2429 -400,-2758 25,40 64,73 111,89l39 5c16,3 32,3 48,1z"/>
  </g>
 </g>
</svg>
