<?xml version="1.0" encoding="UTF-8"?>
<!DOCTYPE svg PUBLIC "-//W3C//DTD SVG 1.1//EN" "http://www.w3.org/Graphics/SVG/1.1/DTD/svg11.dtd">
<!-- Creator: CorelDRAW X7 -->
<svg xmlns="http://www.w3.org/2000/svg" xml:space="preserve" width="100%" height="100%" version="1.1" style="shape-rendering:geometricPrecision; text-rendering:geometricPrecision; image-rendering:optimizeQuality; fill-rule:evenodd; clip-rule:evenodd"
viewBox="0 0 120000 19833"
 xmlns:xlink="http://www.w3.org/1999/xlink">
 <defs>
  <style type="text/css">
   <![CDATA[
    .fil0 {fill:none}
    .fil2 {fill:#6C87C3}
    .fil1 {fill:#A6B7DE}
    .fil3 {fill:#D2AE6D}
   ]]>
  </style>
 </defs>
 <g id="Layer_x0020_1">
  <metadata id="CorelCorpID_0Corel-Layer"/>
  <g id="_1596973574176">
   <rect class="fil0" width="120000" height="19833"/>
   <g>
    <g>
     <path class="fil1" d="M79332 15866l-3967 3967c3967,0 7933,0 11900,0l3967 -3967c-3967,0 -7933,0 -11900,0z"/>
     <polygon class="fil1" points="19833,3967 23800,0 0,0 0,3967 "/>
     <polygon class="fil1" points="0,7933 0,11900 11900,11900 15866,7933 "/>
     <polygon class="fil1" points="23800,7933 19833,11900 35699,11900 39666,7933 "/>
     <polygon class="fil1" points="19833,15866 19833,19833 27766,19833 31733,15866 "/>
     <polygon class="fil1" points="35699,15866 31733,19833 43633,19833 43633,15866 "/>
     <path class="fil1" d="M27766 3967l15867 0 3966 -3967c-5289,0 -10577,0 -15866,0l-3967 3967z"/>
     <path class="fil1" d="M47599 7933l-3966 3967 15866 0 3967 -3967c-5289,0 -10578,0 -15867,0z"/>
     <polygon class="fil1" points="59499,0 59499,3967 63466,3967 63466,0 "/>
     <polygon class="fil1" points="67432,7933 63466,11900 75365,11900 75365,7933 "/>
     <path class="fil1" d="M63466 15866c-3967,0 -7933,0 -11900,0l-3967 3967c5289,0 10578,0 15867,0l0 -3967z"/>
     <path class="fil1" d="M87265 3967l3967 -3967c-3967,0 -7933,0 -11900,0l-3967 3967c3967,0 7933,0 11900,0z"/>
     <path class="fil1" d="M79332 7933l-3967 3967c3967,0 7933,0 11900,0l3967 -3967c-3967,0 -7933,0 -11900,0z"/>
    </g>
    <g>
     <polygon class="fil2" points="15866,7933 11900,11900 11900,19833 15866,19833 "/>
     <polygon class="fil2" points="7933,15866 0,15866 0,19833 7933,19833 "/>
     <polygon class="fil2" points="19833,3967 19833,11900 23800,7933 23800,0 "/>
     <polygon class="fil2" points="63466,11900 63466,19833 67432,15866 67432,11900 "/>
     <polygon class="fil2" points="75365,11900 79332,7933 79332,3967 75365,3967 "/>
     <polygon class="fil2" points="79332,11900 75365,11900 75365,19833 79332,15866 "/>
     <polygon class="fil2" points="47599,7933 47599,0 43633,3967 43633,11900 "/>
     <polygon class="fil2" points="47599,11900 43633,11900 43633,19833 47599,15866 "/>
    </g>
    <path class="fil3" d="M96200 3967l19833 0 3967 -3967 -23800 0 0 3967zm15867 11899l-15867 0 0 3967 15867 0 0 -3967zm7933 -7933l-23800 0 0 3967 19833 0 0 7933 3967 0 0 -11900z"/>
   </g>
  </g>
 </g>
</svg>
