<?xml version="1.0" encoding="UTF-8"?>
<!DOCTYPE svg PUBLIC "-//W3C//DTD SVG 1.1//EN" "http://www.w3.org/Graphics/SVG/1.1/DTD/svg11.dtd">
<!-- Creator: CorelDRAW X7 -->
<svg xmlns="http://www.w3.org/2000/svg" xml:space="preserve" width="100%" height="100%" version="1.1" style="shape-rendering:geometricPrecision; text-rendering:geometricPrecision; image-rendering:optimizeQuality; fill-rule:evenodd; clip-rule:evenodd"
viewBox="0 0 121280 20583"
 xmlns:xlink="http://www.w3.org/1999/xlink">
 <defs>
  <style type="text/css">
   <![CDATA[
    .fil1 {fill:none}
    .fil0 {fill:#8480BC;fill-rule:nonzero}
   ]]>
  </style>
 </defs>
 <g id="Layer_x0020_1">
  <metadata id="CorelCorpID_0Corel-Layer"/>
  <g id="_1596965476336">
   <path class="fil0" d="M79862 16616l-3217 3217 10840 0 3217 -3217 -10840 0zm-64525 -7933l-14587 0 0 3217 11371 0 3216 -3217zm5246 -4186l0 6873 3217 -3217 0 -6873 -3217 3217zm-750 220l-19833 0 0 -4717 24550 0 0 7933 16396 0 -4717 4717 -16396 0 0 -7933zm-11900 11899l-7183 0 0 3217 7183 0 0 -3217zm-7558 -750l8308 0 0 4717 -8683 0 0 -4717 375 0zm15491 -6654l-3216 3217 0 7404 3216 0 0 -10621zm-15866 3063l0 -4342 16616 0 0 12650 -4716 0 0 -7933 -11900 0 0 -375zm20583 4341l0 3217 7403 0 3217 -3217 -10620 0zm-750 -750l13180 0 -4717 4717 -8463 0 0 -4717zm4497 -7183l-3217 3217 14806 0 3217 -3217 -14806 0zm-4277 -4716l3217 -3217 -22520 0 0 3217 19303 0zm76897 0l19303 0 3217 -3217 -22520 0 0 3217zm19458 750l-20208 0 0 -4717 25080 0 -4717 4717 -155 0zm-4341 11899l-15117 0 0 3217 15117 0 0 -3217zm750 -750l0 4717 -16617 0 0 -4717 16617 0zm7183 -7183l-23050 0 0 3217 19833 0 0 7933 3217 0 0 -11150zm750 -750l0 12650 -4717 0 0 -7933 -19833 0 0 -4717 24550 0zm-76367 4717l0 6654 3216 -3217 0 -3437 -3216 0zm3966 0l0 3745 -4187 4188 -12958 0 4716 -4717 7713 0 0 -11149 -16397 0 4717 -4717 16396 0 0 7933 16397 0 -4717 4717 -11680 0zm-750 -4496l0 -6875 -3216 3217 0 6875 1298 -1298 1918 -1919zm529 529l-3216 3217 14807 0 3217 -3217 -14808 0 0 0zm27987 3967l0 6653 3217 -3217 0 -3436 -3217 0zm3967 0l0 3216 12430 0 -4717 4717 -12430 0 0 -7933 -7183 0 0 3745 -4187 4188 -16926 0 4717 -4717 11680 0 0 -3745 4187 -4188 7712 0 0 -3746 4187 -4187 12960 0 -640 640 -4077 4077 -7713 0 0 3216 12430 0 -4717 4717 -7713 0zm-750 -4497l0 -3436 -3217 0 0 3216 0 3437 3217 -3217zm-15116 4497l0 6654 3216 -3217 0 -3437 -3216 0zm15646 -3967l-3217 3217 3437 0 7403 0 3217 -3217 -10840 0zm7623 -4716l3217 -3217 -10840 0 -3217 3217 3437 0 7403 0zm-24019 12649l-11370 0 -3217 3217 14587 0 0 -3217zm4495 -7933l-3216 3217 3437 0 7183 0 0 -3217 -7404 0zm-7712 -7933l0 3217 3217 0 0 -3217 -3217 0zm-750 3592l0 -4342 4717 0 0 4717 -4717 0 0 -375zm-30453 -375l14808 0 3216 -3217 -14807 0 -3217 3217zm7182 12649l-3216 3217 10621 0 0 -3217 -7405 0z"/>
   <rect class="fil1" x="640" y="375" width="120000" height="19833"/>
  </g>
 </g>
</svg>
