<?xml version="1.0" encoding="UTF-8"?>
<!DOCTYPE svg PUBLIC "-//W3C//DTD SVG 1.1//EN" "http://www.w3.org/Graphics/SVG/1.1/DTD/svg11.dtd">
<!-- Creator: CorelDRAW X7 -->
<svg xmlns="http://www.w3.org/2000/svg" xml:space="preserve" width="4.72441in" height="1.27861in" version="1.1" style="shape-rendering:geometricPrecision; text-rendering:geometricPrecision; image-rendering:optimizeQuality; fill-rule:evenodd; clip-rule:evenodd"
viewBox="0 0 47244 12786"
 xmlns:xlink="http://www.w3.org/1999/xlink">
 <defs>
  <style type="text/css">
   <![CDATA[
    .fil1 {fill:none}
    .fil3 {fill:#6C87C3}
    .fil2 {fill:#A6B7DE}
    .fil4 {fill:#D2AE6D}
    .fil0 {fill:gray;fill-rule:nonzero}
   ]]>
  </style>
 </defs>
 <g id="Layer_x0020_1">
  <metadata id="CorelCorpID_0Corel-Layer"/>
  <g id="_1970679416912">
   <path class="fil0" d="M1365 10336l-1124 0 0 704 1034 0 0 244 -1034 0 0 705 1124 0 0 241 -1365 0 0 -2135 1365 0 0 241zm1703 315l283 0 -542 788 542 791 -283 0 -398 -607 -402 607 -283 0 544 -791 -544 -788 283 0 402 610 398 -610zm885 2135l0 -2049c219,-76 425,-114 620,-114 160,2 297,45 409,128 127,97 191,228 192,394l0 585c0,165 -65,297 -195,397 -115,91 -254,136 -415,134 -149,-4 -275,-29 -378,-75l0 600 -233 0zm233 -832c119,47 246,71 381,71 102,0 189,-25 258,-74 76,-53 113,-125 111,-215l0 -597c2,-89 -34,-160 -108,-212 -69,-47 -155,-71 -255,-71 -181,0 -310,14 -387,42l0 1056zm2319 288c-178,0 -311,-46 -399,-137 -86,-91 -130,-217 -131,-377l0 -1633 232 0 0 1633c0,187 99,280 298,280l0 234zm1256 -1398c-104,0 -192,24 -262,72 -77,53 -116,126 -116,220l0 597c0,95 39,170 116,224 72,47 160,71 262,71 101,0 187,-24 257,-71 78,-53 116,-128 115,-224l0 -597c0,-93 -38,-166 -115,-220 -69,-48 -155,-72 -257,-72zm-609 292c0,-166 65,-298 194,-397 113,-84 252,-128 415,-130 163,2 301,46 414,130 129,98 193,230 193,397l0 597c0,167 -64,300 -193,400 -113,85 -251,129 -414,131 -164,-2 -303,-46 -415,-131 -129,-99 -194,-232 -194,-400l0 -597zm2475 -485c65,-14 157,-15 274,-3l0 238c-89,-17 -169,-20 -238,-7 -169,40 -253,133 -253,280l0 1071 -233 0 0 -1071c0,-134 45,-248 134,-342 82,-85 187,-141 316,-166zm1857 485c0,-89 -38,-160 -113,-212 -70,-49 -156,-74 -259,-74 -105,0 -193,25 -264,74 -73,52 -111,122 -111,212l0 220 747 0 0 -220zm-747 606c0,93 39,167 114,221 68,47 155,71 261,71 180,0 303,-71 366,-214l212 106c-107,229 -300,343 -578,343 -164,0 -303,-43 -415,-127 -129,-100 -194,-232 -195,-400l0 -600c0,-166 65,-299 195,-397 113,-85 252,-127 415,-127 161,0 299,42 414,127 129,97 194,229 194,397l0 425 -983 0 0 175zm3195 488c-180,28 -326,-6 -438,-103 -113,-97 -169,-233 -169,-408l0 -1622 232 0 0 554 326 0 0 231 -326 0 0 837c0,96 32,175 97,235 66,61 159,81 278,60l0 216zm714 -2133l233 0 0 622c100,-45 225,-68 375,-68 160,-4 298,39 414,128 128,99 192,229 192,392l0 1059 -235 0 0 -1062c0,-89 -36,-159 -110,-210 -70,-48 -156,-73 -258,-76 -137,0 -263,24 -378,73l0 1275 -233 0 0 -2133zm2974 1039c0,-89 -38,-160 -113,-212 -70,-49 -156,-74 -259,-74 -106,0 -193,25 -264,74 -74,52 -111,122 -111,212l0 220 747 0 0 -220zm-747 606c0,93 38,167 114,221 68,47 154,71 261,71 180,0 302,-71 366,-214l212 106c-108,229 -300,343 -578,343 -165,0 -303,-43 -416,-127 -128,-100 -193,-232 -194,-400l0 -600c0,-166 65,-299 194,-397 114,-85 252,-127 416,-127 161,0 299,42 414,127 129,97 193,229 193,397l0 425 -982 0 0 175zm2621 488l0 -2133 722 0c221,0 405,49 550,146 172,117 259,281 259,491l0 860c0,210 -87,373 -259,488 -145,99 -329,148 -550,148l-722 0zm241 -241l481 0c160,0 293,-32 396,-94 113,-70 170,-170 169,-301l0 -860c0,-131 -57,-231 -169,-301 -102,-64 -235,-95 -396,-94l-481 0 0 1650zm2028 -1675c0,-46 16,-84 48,-116 33,-34 74,-50 119,-49 45,0 84,16 115,49 33,32 50,70 50,116 0,46 -17,85 -50,119 -32,32 -71,48 -115,48 -45,0 -86,-16 -119,-48 -32,-34 -48,-73 -48,-119zm289 337l0 1579 -232 0 0 -1579 232 0zm921 1124c127,171 277,253 449,247 203,-2 303,-78 301,-229 0,-127 -106,-210 -319,-250 -164,-28 -286,-67 -365,-116 -125,-78 -188,-192 -188,-341 0,-154 65,-272 193,-355 106,-68 232,-102 378,-102 184,0 342,62 473,185l-152 175c-87,-88 -194,-133 -321,-133 -91,0 -167,17 -228,51 -74,37 -110,97 -110,179 0,73 39,129 119,168 45,22 127,44 244,67 337,64 507,221 511,472 0,147 -57,262 -170,346 -95,69 -217,106 -366,110 -267,6 -478,-114 -630,-360l181 -114zm2624 -720c-72,-133 -194,-199 -366,-199 -106,0 -193,25 -262,74 -75,51 -113,122 -113,212l0 591c0,91 38,163 113,215 70,48 157,71 262,71 200,0 325,-82 374,-247l215 105c-47,133 -127,229 -241,290 -102,58 -218,87 -348,88 -163,0 -301,-43 -414,-128 -129,-99 -194,-232 -194,-399l0 -580c0,-167 65,-299 194,-397 113,-85 251,-128 414,-128 259,0 446,103 562,307l-196 125zm1477 -211c-104,0 -192,24 -262,72 -77,53 -116,126 -116,220l0 597c0,95 39,170 116,224 72,47 160,71 262,71 101,0 187,-24 257,-71 78,-53 116,-128 115,-224l0 -597c0,-93 -38,-166 -115,-220 -69,-48 -155,-72 -257,-72zm-609 292c0,-166 65,-298 194,-397 113,-84 252,-128 415,-130 163,2 301,46 414,130 129,98 193,230 193,397l0 597c0,167 -64,300 -193,400 -113,85 -251,129 -414,131 -164,-2 -303,-46 -415,-131 -129,-99 -194,-232 -194,-400l0 -597zm2579 806l452 -1291 244 0 -553 1579 -286 0 -556 -1579 247 0 452 1291zm2273 -806c0,-89 -37,-160 -113,-212 -70,-49 -156,-74 -259,-74 -105,0 -193,25 -264,74 -73,52 -110,122 -110,212l0 220 746 0 0 -220zm-746 606c0,93 38,167 113,221 68,47 155,71 261,71 180,0 303,-71 366,-214l213 106c-108,229 -300,343 -579,343 -164,0 -303,-43 -415,-127 -128,-100 -193,-232 -194,-400l0 -600c0,-166 65,-299 194,-397 114,-85 252,-127 415,-127 161,0 299,42 414,127 129,97 194,229 194,397l0 425 -982 0 0 175zm2195 -1091c65,-14 157,-15 274,-3l0 238c-89,-17 -169,-20 -238,-7 -169,40 -253,133 -253,280l0 1071 -232 0 0 -1071c0,-134 44,-248 133,-342 82,-85 187,-141 316,-166zm957 -337c0,-46 16,-84 48,-116 34,-34 74,-50 119,-49 46,0 84,16 115,49 34,32 51,70 51,116 0,46 -17,85 -51,119 -32,32 -70,48 -115,48 -45,0 -85,-16 -119,-48 -32,-34 -48,-73 -48,-119zm289 337l0 1579 -232 0 0 -1579 232 0zm1807 485c0,-89 -37,-160 -113,-212 -70,-49 -156,-74 -259,-74 -105,0 -193,25 -264,74 -73,52 -110,122 -110,212l0 220 746 0 0 -220zm-746 606c0,93 38,167 113,221 68,47 155,71 261,71 180,0 303,-71 366,-214l213 106c-108,229 -300,343 -579,343 -164,0 -303,-43 -415,-127 -128,-100 -193,-232 -194,-400l0 -600c0,-166 65,-299 194,-397 114,-85 252,-127 415,-127 161,0 299,42 414,127 129,97 194,229 194,397l0 425 -982 0 0 175zm1811 33c127,171 277,253 449,247 202,-2 303,-78 301,-229 0,-127 -106,-210 -319,-250 -164,-28 -286,-67 -366,-116 -125,-78 -187,-192 -187,-341 0,-154 64,-272 193,-355 106,-68 231,-102 378,-102 184,0 342,62 473,185l-152 175c-87,-88 -194,-133 -321,-133 -91,0 -167,17 -228,51 -74,37 -110,97 -110,179 0,73 39,129 119,168 45,22 126,44 243,67 338,64 508,221 512,472 0,147 -57,262 -170,346 -95,69 -217,106 -366,110 -268,6 -478,-114 -630,-360l181 -114z"/>
   <g>
    <rect class="fil1" width="47244" height="7808"/>
    <g>
     <path class="fil2" d="M31234 6246l-1562 1562c1562,0 3123,0 4685,0l1562 -1562c-1562,0 -3123,0 -4685,0z"/>
     <polygon class="fil2" points="7808,1561 9370,0 0,0 0,1561 "/>
     <polygon class="fil2" points="0,3123 0,4685 4685,4685 6246,3123 "/>
     <polygon class="fil2" points="9370,3123 7808,4685 14054,4685 15617,3123 "/>
     <polygon class="fil2" points="7808,6246 7808,7808 10932,7808 12493,6246 "/>
     <polygon class="fil2" points="14054,6246 12493,7808 17178,7808 17178,6246 "/>
     <path class="fil2" d="M10932 1561l6246 0 1561 -1561c-2081,0 -4164,0 -6246,0l-1561 1561z"/>
     <path class="fil2" d="M18739 3123l-1561 1561 6247 0 1561 -1561c-2082,0 -4165,0 -6247,0z"/>
     <polygon class="fil2" points="23425,0 23425,1561 24987,1561 24987,0 "/>
     <polygon class="fil2" points="26548,3123 24987,4685 29671,4685 29671,3123 "/>
     <path class="fil2" d="M24987 6246c-1561,0 -3123,0 -4685,0l-1561 1562c2081,0 4164,0 6246,0l0 -1562z"/>
     <path class="fil2" d="M34356 1561l1562 -1561c-1562,0 -3123,0 -4686,0l-1561 1561c1561,0 3123,0 4685,0z"/>
     <path class="fil2" d="M31234 3123l-1562 1561c1562,0 3123,0 4685,0l1562 -1561c-1562,0 -3123,0 -4685,0z"/>
    </g>
    <g>
     <polygon class="fil3" points="6246,3123 4685,4685 4685,7808 6246,7808 "/>
     <polygon class="fil3" points="3123,6246 0,6246 0,7808 3123,7808 "/>
     <polygon class="fil3" points="7808,1561 7808,4685 9370,3123 9370,0 "/>
     <polygon class="fil3" points="24987,4685 24987,7808 26548,6246 26548,4685 "/>
     <polygon class="fil3" points="29671,4685 31234,3123 31234,1561 29671,1561 "/>
     <polygon class="fil3" points="31234,4685 29671,4685 29671,7808 31234,6246 "/>
     <polygon class="fil3" points="18739,3123 18739,0 17178,1561 17178,4685 "/>
     <polygon class="fil3" points="18739,4685 17178,4685 17178,7808 18739,6246 "/>
    </g>
    <path class="fil4" d="M37874 1561l7808 0 1561 -1561 -9370 0 0 1561 1 0zm6247 4685l-6246 0 0 1562 6246 0 0 -1562zm3123 -3123l-9370 0 0 1561 7808 0 0 3123 1561 0 0 -4685 1 1z"/>
   </g>
  </g>
 </g>
</svg>
