<?xml version="1.0" encoding="UTF-8"?>
<!DOCTYPE svg PUBLIC "-//W3C//DTD SVG 1.1//EN" "http://www.w3.org/Graphics/SVG/1.1/DTD/svg11.dtd">
<!-- Creator: CorelDRAW X7 -->
<svg xmlns="http://www.w3.org/2000/svg" xml:space="preserve" width="100%" height="100%" version="1.1" style="shape-rendering:geometricPrecision; text-rendering:geometricPrecision; image-rendering:optimizeQuality; fill-rule:evenodd; clip-rule:evenodd"
viewBox="0 0 300000 300000"
 xmlns:xlink="http://www.w3.org/1999/xlink">
 <defs>
  <style type="text/css">
   <![CDATA[
    .fil4 {fill:black}
    .fil16 {fill:#6C87C3}
    .fil12 {fill:#8480BC}
    .fil14 {fill:#9F9CCB}
    .fil15 {fill:#A6B7DE}
    .fil7 {fill:#BBB8DA}
    .fil9 {fill:#C4CFE9}
    .fil0 {fill:#D2AE6D}
    .fil8 {fill:#DEE4F2}
    .fil10 {fill:#E4E3F0}
    .fil3 {fill:#E6D2AE}
    .fil13 {fill:#EDDFC4}
    .fil11 {fill:#F4F4FB}
    .fil6 {fill:white}
    .fil5 {fill:white}
    .fil2 {fill:#1A1A1A;fill-rule:nonzero}
    .fil1 {fill:white;fill-rule:nonzero}
   ]]>
  </style>
 </defs>
 <g id="Layer_x0020_1">
  <metadata id="CorelCorpID_0Corel-Layer"/>
  <rect class="fil0" width="300000" height="300000"/>
  <g id="_1597176610528">
   <path class="fil1" d="M101324 246045l-3217 3217 10840 0 3217 -3217 -10840 0zm-64525 -7933l-14587 0 0 3217 11371 0 3216 -3217zm5246 -4185l0 6872 3217 -3217 0 -6872 -3217 3217zm-750 219l-19833 0 0 -4717 24550 0 0 7933 16396 0 -4717 4717 -16396 0 0 -7933zm-11900 11899l-7183 0 0 3217 7183 0 0 -3217zm-7558 -750l8308 0 0 4717 -8683 0 0 -4717 375 0zm15491 -6654l-3216 3217 0 7404 3216 0 0 -10621zm-15866 3063l0 -4342 16616 0 0 12650 -4716 0 0 -7933 -11900 0 0 -375zm20583 4341l0 3217 7403 0 3217 -3217 -10620 0zm-750 -750l13180 0 -4717 4717 -8463 0 0 -4717zm4497 -7183l-3217 3217 14806 0 3217 -3217 -14806 0zm-4277 -4716l3217 -3217 -22520 0 0 3217 19303 0zm76897 0l19303 0 3217 -3217 -22520 0 0 3217zm19458 750l-20208 0 0 -4717 25080 0 -4717 4717 -155 0zm-4341 11899l-15117 0 0 3217 15117 0 0 -3217zm750 -750l0 4717 -16617 0 0 -4717 16617 0zm7183 -7183l-23050 0 0 3217 19833 0 0 7933 3217 0 0 -11150zm750 -750l0 12650 -4717 0 0 -7933 -19833 0 0 -4717 24550 0zm-76367 4717l0 6654 3216 -3216 0 -3438 -3216 0zm3966 0l0 3745 -4187 4188 -12957 0 4715 -4717 7713 0 0 -11149 -16397 0 4717 -4717 16396 0 0 7933 16397 0 -4717 4717 -11680 0zm-750 -4495l0 -6876 -3216 3217 0 6875 1298 -1298 1918 -1918zm529 528l-3216 3217 14807 0 3217 -3217 -14808 0 0 0zm27987 3967l0 6653 3217 -3217 0 -3436 -3217 0zm3967 0l0 3216 12430 0 -4717 4717 -12430 0 0 -7933 -7183 0 0 3745 -4187 4188 -16926 0 4717 -4717 11680 0 0 -3744 4187 -4189 7712 0 0 -3746 4187 -4187 12960 0 -640 640 -4077 4077 -7713 0 0 3216 12430 0 -4717 4717 -7713 0zm-750 -4497l0 -3436 -3217 0 0 3216 0 3437 3217 -3217zm-15116 4497l0 6654 3216 -3216 0 -3438 -3216 0zm15646 -3967l-3217 3217 3437 0 7403 0 3217 -3217 -10840 0zm7623 -4716l3217 -3217 -10840 0 -3217 3217 3437 0 7403 0zm-24019 12649l-11370 0 -3217 3217 14587 0 0 -3217zm4495 -7933l-3216 3217 3437 0 7183 0 0 -3217 -7404 0zm-7712 -7933l0 3217 3217 0 0 -3217 -3217 0zm-750 3592l0 -4342 4717 0 0 4717 -4717 0 0 -375zm-30453 -375l14808 0 3216 -3217 -14807 0 -3217 3217zm7182 12649l-3216 3217 10621 0 0 -3217 -7405 0z"/>
   <path class="fil2" d="M101324 216076l-3217 3217 10840 0 3217 -3217 -10840 0zm-64525 -7933l-14587 0 0 3217 11371 0 3216 -3217zm5246 -4186l0 6873 3217 -3217 0 -6873 -3217 3217zm-750 220l-19833 0 0 -4717 24550 0 0 7933 16396 0 -4717 4717 -16396 0 0 -7933zm-11900 11899l-7183 0 0 3217 7183 0 0 -3217zm-7558 -750l8308 0 0 4717 -8683 0 0 -4717 375 0zm15491 -6654l-3216 3217 0 7404 3216 0 0 -10621zm-15866 3063l0 -4342 16616 0 0 12650 -4716 0 0 -7933 -11900 0 0 -375zm20583 4341l0 3217 7403 0 3217 -3217 -10620 0zm-750 -750l13180 0 -4717 4717 -8463 0 0 -4717zm4497 -7183l-3217 3217 14806 0 3217 -3217 -14806 0zm-4277 -4716l3217 -3217 -22520 0 0 3217 19303 0zm76897 0l19303 0 3217 -3217 -22520 0 0 3217zm19458 750l-20208 0 0 -4717 25080 0 -4717 4717 -155 0zm-4341 11899l-15117 0 0 3217 15117 0 0 -3217zm750 -750l0 4717 -16617 0 0 -4717 16617 0zm7183 -7183l-23050 0 0 3217 19833 0 0 7933 3217 0 0 -11150zm750 -750l0 12650 -4717 0 0 -7933 -19833 0 0 -4717 24550 0zm-76367 4717l0 6654 3216 -3217 0 -3437 -3216 0zm3966 0l0 3745 -4187 4188 -12957 0 4715 -4717 7713 0 0 -11149 -16397 0 4717 -4717 16396 0 0 7933 16397 0 -4717 4717 -11680 0zm-750 -4496l0 -6875 -3216 3217 0 6875 1298 -1298 1918 -1919zm529 529l-3216 3217 14807 0 3217 -3217 -14808 0 0 0zm27987 3967l0 6653 3217 -3217 0 -3436 -3217 0zm3967 0l0 3216 12430 0 -4717 4717 -12430 0 0 -7933 -7183 0 0 3745 -4187 4188 -16926 0 4717 -4717 11680 0 0 -3745 4187 -4188 7712 0 0 -3746 4187 -4187 12960 0 -640 640 -4077 4077 -7713 0 0 3216 12430 0 -4717 4717 -7713 0zm-750 -4497l0 -3436 -3217 0 0 3216 0 3437 3217 -3217zm-15116 4497l0 6654 3216 -3217 0 -3437 -3216 0zm15646 -3967l-3217 3217 3437 0 7403 0 3217 -3217 -10840 0zm7623 -4716l3217 -3217 -10840 0 -3217 3217 3437 0 7403 0zm-24019 12649l-11370 0 -3217 3217 14587 0 0 -3217zm4495 -7933l-3216 3217 3437 0 7183 0 0 -3217 -7404 0zm-7712 -7933l0 3217 3217 0 0 -3217 -3217 0zm-750 3592l0 -4342 4717 0 0 4717 -4717 0 0 -375zm-30453 -375l14808 0 3216 -3217 -14807 0 -3217 3217zm7182 12649l-3216 3217 10621 0 0 -3217 -7405 0z"/>
   <g>
    <polygon class="fil3" points="41515,173457 44732,170240 22212,170240 22212,173457 "/>
    <polygon class="fil3" points="33583,181390 36799,178173 22212,178173 22212,181390 "/>
    <polygon class="fil0" points="29395,189323 29395,186106 22212,186106 22212,189323 "/>
    <polygon class="fil0" points="37328,189323 37328,178702 34112,181919 34112,189323 "/>
    <polygon class="fil0" points="45262,177643 45262,170771 42045,173988 42045,180860 "/>
    <polygon class="fil3" points="42575,181390 57381,181390 60598,178173 45792,178173 "/>
    <polygon class="fil3" points="49448,189323 52665,186106 42045,186106 42045,189323 "/>
    <polygon class="fil3" points="65316,173457 68532,170240 53725,170240 50508,173457 "/>
    <polygon class="fil3" points="66374,181390 81181,181390 84398,178173 69590,178173 "/>
    <polygon class="fil0" points="69061,177645 69061,170769 65845,173986 65845,180861 67143,179563 "/>
    <polygon class="fil0" points="69061,185578 69061,182140 65845,182140 65845,188794 "/>
    <polygon class="fil3" points="65095,189323 65095,186106 57690,186106 54474,189323 "/>
    <polygon class="fil3" points="89644,181390 96827,181390 96827,178173 89423,178173 86207,181390 "/>
    <polygon class="fil3" points="84928,173457 84928,170240 81711,170240 81711,173457 "/>
    <polygon class="fil3" points="84928,189323 84928,186106 73558,186106 70341,189323 "/>
    <polygon class="fil0" points="88894,185578 88894,182140 85678,182140 85678,188794 "/>
    <polygon class="fil3" points="98107,181390 101544,181390 108947,181390 112164,178173 101324,178173 "/>
    <polygon class="fil3" points="101544,173457 108947,173457 112164,170240 101324,170240 98107,173457 "/>
    <polygon class="fil0" points="97577,180860 100794,177643 100794,174207 97577,174207 97577,177423 "/>
    <polygon class="fil0" points="97577,188793 100794,185576 100794,182140 97577,182140 "/>
    <polygon class="fil3" points="101324,186106 98107,189323 108947,189323 112164,186106 "/>
    <polygon class="fil0" points="118412,178173 118412,181390 138245,181390 138245,189323 141462,189323 141462,178173 "/>
    <polygon class="fil0" points="118412,173457 137715,173457 140932,170240 118412,170240 "/>
    <polygon class="fil0" points="118412,186106 118412,189323 133529,189323 133529,186106 "/>
    <path class="fil1" d="M101324 186106l-3217 3217 10840 0 3217 -3217 -10840 0zm-64525 -7933l-14587 0 0 3217 11371 0 3216 -3217zm5246 -4185l0 6872 3217 -3217 0 -6872 -3217 3217zm-750 219l-19833 0 0 -4717 24550 0 0 7933 16396 0 -4717 4717 -16396 0 0 -7933zm-11900 11899l-7183 0 0 3217 7183 0 0 -3217zm-7558 -750l8308 0 0 4717 -8683 0 0 -4717 375 0zm15491 -6654l-3216 3217 0 7404 3216 0 0 -10621zm-15866 3063l0 -4342 16616 0 0 12650 -4716 0 0 -7933 -11900 0 0 -375zm20583 4341l0 3217 7403 0 3217 -3217 -10620 0zm-750 -750l13180 0 -4717 4717 -8463 0 0 -4717zm4497 -7183l-3217 3217 14806 0 3217 -3217 -14806 0zm-4277 -4716l3217 -3217 -22520 0 0 3217 19303 0zm76897 0l19303 0 3217 -3217 -22520 0 0 3217zm19458 750l-20208 0 0 -4717 25080 0 -4717 4717 -155 0zm-4341 11899l-15117 0 0 3217 15117 0 0 -3217zm750 -750l0 4717 -16617 0 0 -4717 16617 0zm7183 -7183l-23050 0 0 3217 19833 0 0 7933 3217 0 0 -11150zm750 -750l0 12650 -4717 0 0 -7933 -19833 0 0 -4717 24550 0zm-76367 4717l0 6654 3216 -3216 0 -3438 -3216 0zm3966 0l0 3745 -4187 4188 -12957 0 4715 -4717 7713 0 0 -11149 -16397 0 4717 -4717 16396 0 0 7933 16397 0 -4717 4717 -11680 0zm-750 -4495l0 -6876 -3216 3217 0 6875 1298 -1298 1918 -1918zm529 528l-3216 3217 14807 0 3217 -3217 -14808 0 0 0zm27987 3967l0 6653 3217 -3217 0 -3436 -3217 0zm3967 0l0 3216 12430 0 -4717 4717 -12430 0 0 -7933 -7183 0 0 3745 -4187 4188 -16926 0 4717 -4717 11680 0 0 -3744 4187 -4189 7712 0 0 -3746 4187 -4187 12960 0 -640 640 -4077 4077 -7713 0 0 3216 12430 0 -4717 4717 -7713 0zm-750 -4497l0 -3436 -3217 0 0 3216 0 3437 3217 -3217zm-15116 4497l0 6654 3216 -3216 0 -3438 -3216 0zm15646 -3967l-3217 3217 3437 0 7403 0 3217 -3217 -10840 0zm7623 -4716l3217 -3217 -10840 0 -3217 3217 3437 0 7403 0zm-24019 12649l-11370 0 -3217 3217 14587 0 0 -3217zm4495 -7933l-3216 3217 3437 0 7183 0 0 -3217 -7404 0zm-7712 -7933l0 3217 3217 0 0 -3217 -3217 0zm-750 3592l0 -4342 4717 0 0 4717 -4717 0 0 -375zm-30453 -375l14808 0 3216 -3217 -14807 0 -3217 3217zm7182 12649l-3216 3217 10621 0 0 -3217 -7405 0z"/>
   </g>
   <path class="fil4" d="M101538 156012l-3467 3467 11193 0 3467 -3467 -11193 0zm17014 -12399l19480 0 3467 -3467 -22947 0 0 3467zm15367 12399l-15367 0 0 3467 15367 0 0 -3467zm7933 -7933l-23300 0 0 3467 19833 0 0 7933 3467 0 0 -11400zm-75867 3967l0 3466 0 3614 3466 -3467 0 -3613 -3466 0zm3466 -4320l0 -7227 -3466 3466 0 7228 464 -464 3002 -3003zm353 353l-3466 3467 3613 0 11547 0 3467 -3467 -15161 0zm-4172 -4466c1155,-1156 2311,-2312 3466,-3467l-15159 0 -3467 3467 15160 0zm32085 8433l0 7079 3467 -3467 0 -3612 -3467 0zm3467 -4321l0 -3612 -3467 0 0 3466 0 3613 3467 -3467zm-15366 4321l0 3466 0 3614 3466 -3467 0 -3613 -3466 0zm-43633 -8080l0 7226 3467 -3467 0 -7226 -3467 3467zm-12400 12046l-7433 0 0 3467 7433 0 0 -3467zm7933 -7580l-3466 3466 0 7581 3466 0 0 -11047zm63820 -353l-3467 3467 3613 0 7580 0 3467 -3467 -11193 0zm7726 -4466l3467 -3467 -11193 0 -3467 3467 3613 0 7580 0zm-23946 12399l-11546 0 -3467 3467 15013 0 0 -3467zm4319 -7933l-3466 3467 3613 0 7433 0 0 -3467 -7580 0zm-7786 -7933l0 3467 3467 0 0 -3467 -3467 0zm-23947 15866l-3466 3467 11047 0 0 -3467 -7581 0zm-15719 0l0 3467 7580 0 3467 -3467 -11047 0zm3821 -7933l-3467 3467 15159 0 3467 -3467 -15159 0zm-23654 0l0 3467 11548 0 2009 -2010 1457 -1457 -15014 0zm19480 -4466l3467 -3467 -22947 0 0 3467 19480 0z"/>
   <path class="fil4" d="M101476 125892l-3767 3767 11617 0 3767 -3767 -11617 0zm16926 -12099l19692 0 3767 -3767 -23459 0 0 3767zm15667 12099l-15667 0 0 3767 15667 0 0 -3767zm7933 -7933l-23600 0 0 3767 19833 0 0 7933 3767 0 0 -11700zm-76167 3967l0 3766 0 3826 3766 -3767 0 -3825 -3766 0zm3766 -4108l0 -7650 -75 75 -3691 3691 0 7651 2799 -2799 967 -968zm-3907 -4025c1253,-1257 2510,-2511 3766,-3767l-15583 0 -3767 3767 15584 0zm31873 8133l0 7592 3767 -3767 0 -3825 -3767 0zm3767 -4108l0 -3825 -3767 0 0 3766 0 3826 3767 -3767zm-15666 4108l0 3766 0 3826 3766 -3767 0 -3825 -3766 0zm-43633 -7991l0 7650 3767 -3767 0 -7650 -3767 3767zm-12100 11957l-7733 0 0 3767 7733 0 0 -3767zm7933 -7792l-3766 3767 0 7792 3766 0 0 -11559zm63608 -141l-3767 3767 3825 0 7792 0 3767 -3767 -11617 0zm7850 -4166l3767 -3767 -11617 0 -3767 3767 3825 0 7792 0zm-23858 12099l-11758 0 -3767 3767 15525 0 0 -3767zm4107 -7933l-3766 3767 3825 0 7733 0 0 -3767 -7792 0zm-7874 -7933l0 3767 3767 0 0 -3767 -3767 0zm-11959 7933l-3766 3767 3825 0 11759 0 3767 -3767 -15585 0zm-11900 7933l-3766 3768 11559 0 0 -3768 -7793 0zm-15807 0l0 3768 7792 0 3767 -3768 -11559 0zm3909 -7933l-3767 3767 15583 0 3767 -3767 -15583 0zm-23742 0l0 3767 11759 0 302 -301 3464 -3466 -15525 0zm19692 -4166l3767 -3767 -23459 0 0 3767 19692 0z"/>
   <path class="fil5" d="M101538 96073l-3467 3467 11193 0 3467 -3467 -11193 0zm17014 -12399l19480 0 3467 -3467 -22947 0 0 3467zm15367 12399l-15367 0 0 3467 15367 0 0 -3467zm7933 -7933l-23300 0 0 3467 19833 0 0 7933 3467 0 0 -11400zm-75867 3967l0 3466 0 3614 3466 -3467 0 -3613 -3466 0zm3466 -4320l0 -7227 -3466 3467 0 7227 464 -464 3002 -3003zm353 353l-3466 3467 3613 0 11547 0 3467 -3467 -15161 0zm-4172 -4466c1155,-1156 2311,-2312 3466,-3467l-15159 0 -3467 3467 15160 0zm32085 8433l0 7079 3467 -3467 0 -3612 -3467 0zm3467 -4321l0 -3612 -3467 0 0 3466 0 3613 3467 -3467zm-15366 4321l0 3466 0 3614 3466 -3467 0 -3613 -3466 0zm-43633 -8079l0 7225 3467 -3467 0 -7225 -3467 3467zm-12400 12045l-7433 0 0 3467 7433 0 0 -3467zm7933 -7580l-3466 3467 0 7580 3466 0 0 -11047zm63820 -353l-3467 3467 3613 0 7580 0 3467 -3467 -11193 0zm7726 -4466l3467 -3467 -11193 0 -3467 3467 3613 0 7580 0zm-23946 12399l-11546 0 -3467 3467 15013 0 0 -3467zm4319 -7933l-3466 3467 3613 0 7433 0 0 -3467 -7580 0zm-7786 -7933l0 3467 3467 0 0 -3467 -3467 0zm-23947 15866l-3466 3467 11047 0 0 -3467 -7581 0zm-15719 0l0 3467 7580 0 3467 -3467 -11047 0zm3821 -7933l-3467 3467 15159 0 3467 -3467 -15159 0zm-23654 0l0 3467 11548 0 2009 -2010 1457 -1457 -15014 0zm19480 -4466l3467 -3467 -22947 0 0 3467 19480 0z"/>
   <path class="fil5" d="M101476 65953l-3767 3767 11617 0 3767 -3767 -11617 0zm16926 -12099l19692 0 3767 -3767 -23459 0 0 3767zm15667 12099l-15667 0 0 3767 15667 0 0 -3767zm7933 -7933l-23600 0 0 3767 19833 0 0 7933 3767 0 0 -11700zm-76167 3967l0 3766 0 3826 3766 -3767 0 -3825 -3766 0zm3766 -4108l0 -7650 -75 75 -3691 3691 0 7651 2799 -2799 967 -968zm-3907 -4025c1253,-1257 2510,-2511 3766,-3767l-15583 0 -3767 3767 15584 0zm31873 8133l0 7592 3767 -3767 0 -3825 -3767 0zm3767 -4108l0 -3825 -3767 0 0 3766 0 3826 3767 -3767zm-15666 4108l0 3766 0 3826 3766 -3767 0 -3825 -3766 0zm-43633 -7991l0 7650 3767 -3767 0 -7650 -3767 3767zm-12100 11957l-7733 0 0 3767 7733 0 0 -3767zm7933 -7792l-3766 3767 0 7792 3766 0 0 -11559zm63608 -141l-3767 3767 3825 0 7792 0 3767 -3767 -11617 0zm7850 -4166l3767 -3767 -11617 0 -3767 3767 3825 0 7792 0zm-23858 12099l-11758 0 -3767 3767 15525 0 0 -3767zm4107 -7933l-3766 3767 3825 0 7733 0 0 -3767 -7792 0zm-7874 -7933l0 3767 3767 0 0 -3767 -3767 0zm-11959 7933l-3766 3767 3825 0 11759 0 3767 -3767 -15585 0zm-11900 7933l-3766 3768 11559 0 0 -3768 -7793 0zm-15807 0l0 3768 7792 0 3767 -3768 -11559 0zm3909 -7933l-3767 3767 15583 0 3767 -3767 -15583 0zm-23742 0l0 3767 11759 0 302 -301 3464 -3466 -15525 0zm19692 -4166l3767 -3767 -23459 0 0 3767 19692 0z"/>
   <g>
    <g>
     <path class="fil6" d="M101434 35884l-3967 3967c3967,0 7933,0 11900,0l3967 -3967c-3967,0 -7933,0 -11900,0z"/>
     <polygon class="fil6" points="41935,23985 45902,20018 22102,20018 22102,23985 "/>
     <polygon class="fil6" points="22102,27951 22102,31918 34002,31918 37968,27951 "/>
     <polygon class="fil6" points="45902,27951 41935,31918 57801,31918 61768,27951 "/>
     <polygon class="fil6" points="41935,35884 41935,39851 49868,39851 53835,35884 "/>
     <polygon class="fil6" points="57801,35884 53835,39851 65735,39851 65735,35884 "/>
     <path class="fil6" d="M49868 23985l15867 0 3966 -3967c-5288,0 -10577,0 -15866,0l-3967 3967z"/>
     <path class="fil6" d="M69701 27951l-3966 3967 15866 0 3967 -3967c-5289,0 -10578,0 -15867,0z"/>
     <polygon class="fil6" points="81601,20018 81601,23985 85568,23985 85568,20018 "/>
     <polygon class="fil6" points="89534,27951 85568,31918 97467,31918 97467,27951 "/>
     <path class="fil6" d="M85568 35884c-3967,0 -7933,0 -11900,0l-3967 3967c5289,0 10578,0 15867,0l0 -3967z"/>
     <path class="fil6" d="M109367 23985l3967 -3967c-3967,0 -7933,0 -11900,0l-3967 3967c3967,0 7933,0 11900,0z"/>
     <path class="fil6" d="M101434 27951l-3967 3967c3967,0 7933,0 11900,0l3967 -3967c-3967,0 -7933,0 -11900,0z"/>
    </g>
    <g>
     <polygon class="fil7" points="37968,27951 34002,31918 34002,39851 37968,39851 "/>
     <polygon class="fil7" points="30035,35884 22102,35884 22102,39851 30035,39851 "/>
     <polygon class="fil7" points="41935,23985 41935,31918 45902,27951 45902,20018 "/>
     <polygon class="fil7" points="85568,31918 85568,39851 89534,35884 89534,31918 "/>
     <polygon class="fil7" points="97467,31918 101434,27951 101434,23985 97467,23985 "/>
     <polygon class="fil7" points="101434,31918 97467,31918 97467,39851 101434,35884 "/>
     <polygon class="fil7" points="69701,27951 69701,20018 65735,23985 65735,31918 "/>
     <polygon class="fil7" points="69701,31918 65735,31918 65735,39851 69701,35884 "/>
    </g>
    <path class="fil7" d="M118302 23985l19833 0 3967 -3967 -23800 0 0 3967zm15867 11899l-15867 0 0 3967 15867 0 0 -3967zm7933 -7933l-23800 0 0 3967 19833 0 0 7933 3967 0 0 -11900z"/>
   </g>
   <g>
    <g>
     <path class="fil8" d="M237870 155762l-3967 3967c3967,0 7933,0 11900,0l3967 -3967c-3967,0 -7933,0 -11900,0z"/>
     <polygon class="fil8" points="178371,143863 182338,139896 158538,139896 158538,143863 "/>
     <polygon class="fil8" points="158538,147829 158538,151796 170438,151796 174404,147829 "/>
     <polygon class="fil8" points="182338,147829 178371,151796 194237,151796 198204,147829 "/>
     <polygon class="fil8" points="178371,155762 178371,159729 186304,159729 190271,155762 "/>
     <polygon class="fil8" points="194237,155762 190271,159729 202171,159729 202171,155762 "/>
     <path class="fil8" d="M186304 143863l15867 0 3966 -3967c-5289,0 -10577,0 -15866,0l-3967 3967z"/>
     <path class="fil8" d="M206137 147829l-3966 3967 15866 0 3967 -3967c-5289,0 -10578,0 -15867,0z"/>
     <polygon class="fil8" points="218037,139896 218037,143863 222004,143863 222004,139896 "/>
     <polygon class="fil8" points="225970,147829 222004,151796 233903,151796 233903,147829 "/>
     <path class="fil8" d="M222004 155762c-3967,0 -7933,0 -11900,0l-3967 3967c5289,0 10578,0 15867,0l0 -3967z"/>
     <path class="fil8" d="M245803 143863l3967 -3967c-3967,0 -7933,0 -11900,0l-3967 3967c3967,0 7933,0 11900,0z"/>
     <path class="fil8" d="M237870 147829l-3967 3967c3967,0 7933,0 11900,0l3967 -3967c-3967,0 -7933,0 -11900,0z"/>
    </g>
    <g>
     <polygon class="fil9" points="174404,147829 170438,151796 170438,159729 174404,159729 "/>
     <polygon class="fil9" points="166471,155762 158538,155762 158538,159729 166471,159729 "/>
     <polygon class="fil9" points="178371,143863 178371,151796 182338,147829 182338,139896 "/>
     <polygon class="fil9" points="222004,151796 222004,159729 225970,155762 225970,151796 "/>
     <polygon class="fil9" points="233903,151796 237870,147829 237870,143863 233903,143863 "/>
     <polygon class="fil9" points="237870,151796 233903,151796 233903,159729 237870,155762 "/>
     <polygon class="fil9" points="206137,147829 206137,139896 202171,143863 202171,151796 "/>
     <polygon class="fil9" points="206137,151796 202171,151796 202171,159729 206137,155762 "/>
    </g>
    <path class="fil9" d="M254738 143863l19833 0 3967 -3967 -23800 0 0 3967zm15867 11899l-15867 0 0 3967 15867 0 0 -3967zm7933 -7933l-23800 0 0 3967 19833 0 0 7933 3967 0 0 -11900z"/>
   </g>
   <g>
    <g>
     <path class="fil6" d="M237870 125792l-3967 3967c3967,0 7933,0 11900,0l3967 -3967c-3967,0 -7933,0 -11900,0z"/>
     <polygon class="fil6" points="178371,113893 182338,109926 158538,109926 158538,113893 "/>
     <polygon class="fil6" points="158538,117859 158538,121826 170438,121826 174404,117859 "/>
     <polygon class="fil6" points="182338,117859 178371,121826 194237,121826 198204,117859 "/>
     <polygon class="fil6" points="178371,125792 178371,129760 186304,129760 190271,125792 "/>
     <polygon class="fil6" points="194237,125792 190271,129760 202171,129760 202171,125792 "/>
     <path class="fil6" d="M186304 113893l15867 0 3966 -3967c-5289,0 -10577,0 -15866,0l-3967 3967z"/>
     <path class="fil6" d="M206137 117859l-3966 3967 15866 0 3967 -3967c-5289,0 -10578,0 -15867,0z"/>
     <polygon class="fil6" points="218037,109926 218037,113893 222004,113893 222004,109926 "/>
     <polygon class="fil6" points="225970,117859 222004,121826 233903,121826 233903,117859 "/>
     <path class="fil6" d="M222004 125792c-3967,0 -7933,0 -11900,0l-3967 3967c5289,0 10578,0 15867,0l0 -3967z"/>
     <path class="fil6" d="M245803 113893l3967 -3967c-3967,0 -7933,0 -11900,0l-3967 3967c3967,0 7933,0 11900,0z"/>
     <path class="fil6" d="M237870 117859l-3967 3967c3967,0 7933,0 11900,0l3967 -3967c-3967,0 -7933,0 -11900,0z"/>
    </g>
    <g>
     <polygon class="fil10" points="174404,117859 170438,121826 170438,129759 174404,129759 "/>
     <polygon class="fil10" points="166471,125792 158538,125792 158538,129759 166471,129759 "/>
     <polygon class="fil10" points="178371,113893 178371,121826 182338,117859 182338,109926 "/>
     <polygon class="fil10" points="222004,121826 222004,129759 225970,125792 225970,121826 "/>
     <polygon class="fil10" points="233903,121826 237870,117859 237870,113893 233903,113893 "/>
     <polygon class="fil10" points="237870,121826 233903,121826 233903,129759 237870,125792 "/>
     <polygon class="fil10" points="206137,117859 206137,109926 202171,113893 202171,121826 "/>
     <polygon class="fil10" points="206137,121826 202171,121826 202171,129759 206137,125792 "/>
    </g>
    <path class="fil10" d="M254738 113893l19833 0 3967 -3967 -23800 0 0 3967zm15867 11899l-15867 0 0 3967 15867 0 0 -3967zm7933 -7933l-23800 0 0 3967 19833 0 0 7933 3967 0 0 -11900z"/>
   </g>
   <g>
    <g>
     <path class="fil11" d="M237870 95823l-3967 3967c3967,0 7933,0 11900,0l3967 -3967c-3967,0 -7933,0 -11900,0z"/>
     <polygon class="fil11" points="178371,83924 182338,79957 158538,79957 158538,83924 "/>
     <polygon class="fil11" points="158538,87890 158538,91857 170438,91857 174404,87890 "/>
     <polygon class="fil11" points="182338,87890 178371,91857 194237,91857 198204,87890 "/>
     <polygon class="fil11" points="178371,95823 178371,99790 186304,99790 190271,95823 "/>
     <polygon class="fil11" points="194237,95823 190271,99790 202171,99790 202171,95823 "/>
     <path class="fil11" d="M186304 83924l15867 0 3966 -3967c-5289,0 -10577,0 -15866,0l-3967 3967z"/>
     <path class="fil11" d="M206137 87890l-3966 3967 15866 0 3967 -3967c-5289,0 -10578,0 -15867,0z"/>
     <polygon class="fil11" points="218037,79957 218037,83924 222004,83924 222004,79957 "/>
     <polygon class="fil11" points="225970,87890 222004,91857 233903,91857 233903,87890 "/>
     <path class="fil11" d="M222004 95823c-3967,0 -7933,0 -11900,0l-3967 3967c5289,0 10578,0 15867,0l0 -3967z"/>
     <path class="fil11" d="M245803 83924l3967 -3967c-3967,0 -7933,0 -11900,0l-3967 3967c3967,0 7933,0 11900,0z"/>
     <path class="fil11" d="M237870 87890l-3967 3967c3967,0 7933,0 11900,0l3967 -3967c-3967,0 -7933,0 -11900,0z"/>
    </g>
    <g>
     <polygon class="fil10" points="174404,87890 170438,91857 170438,99790 174404,99790 "/>
     <polygon class="fil10" points="166471,95823 158538,95823 158538,99790 166471,99790 "/>
     <polygon class="fil10" points="178371,83924 178371,91857 182338,87890 182338,79957 "/>
     <polygon class="fil10" points="222004,91857 222004,99790 225970,95823 225970,91857 "/>
     <polygon class="fil10" points="233903,91857 237870,87890 237870,83924 233903,83924 "/>
     <polygon class="fil10" points="237870,91857 233903,91857 233903,99790 237870,95823 "/>
     <polygon class="fil10" points="206137,87890 206137,79957 202171,83924 202171,91857 "/>
     <polygon class="fil10" points="206137,91857 202171,91857 202171,99790 206137,95823 "/>
    </g>
    <path class="fil10" d="M254738 83924l19833 0 3967 -3967 -23800 0 0 3967zm15867 11899l-15867 0 0 3967 15867 0 0 -3967zm7933 -7933l-23800 0 0 3967 19833 0 0 7933 3967 0 0 -11900z"/>
   </g>
   <g>
    <g>
     <path class="fil10" d="M237870 65853l-3967 3967c3967,0 7933,0 11900,0l3967 -3967c-3967,0 -7933,0 -11900,0z"/>
     <polygon class="fil10" points="178371,53954 182338,49987 158538,49987 158538,53954 "/>
     <polygon class="fil10" points="158538,57920 158538,61887 170438,61887 174404,57920 "/>
     <polygon class="fil10" points="182338,57920 178371,61887 194237,61887 198204,57920 "/>
     <polygon class="fil10" points="178371,65853 178371,69821 186304,69821 190271,65853 "/>
     <polygon class="fil10" points="194237,65853 190271,69821 202171,69821 202171,65853 "/>
     <path class="fil10" d="M186304 53954l15867 0 3966 -3967c-5289,0 -10577,0 -15866,0l-3967 3967z"/>
     <path class="fil10" d="M206137 57920l-3966 3967 15866 0 3967 -3967c-5289,0 -10578,0 -15867,0z"/>
     <polygon class="fil10" points="218037,49987 218037,53954 222004,53954 222004,49987 "/>
     <polygon class="fil10" points="225970,57920 222004,61887 233903,61887 233903,57920 "/>
     <path class="fil10" d="M222004 65853c-3967,0 -7933,0 -11900,0l-3967 3967c5289,0 10578,0 15867,0l0 -3967z"/>
     <path class="fil10" d="M245803 53954l3967 -3967c-3967,0 -7933,0 -11900,0l-3967 3967c3967,0 7933,0 11900,0z"/>
     <path class="fil10" d="M237870 57920l-3967 3967c3967,0 7933,0 11900,0l3967 -3967c-3967,0 -7933,0 -11900,0z"/>
    </g>
    <g>
     <polygon class="fil12" points="174404,57920 170438,61887 170438,69820 174404,69820 "/>
     <polygon class="fil12" points="166471,65853 158538,65853 158538,69820 166471,69820 "/>
     <polygon class="fil12" points="178371,53954 178371,61887 182338,57920 182338,49987 "/>
     <polygon class="fil12" points="222004,61887 222004,69820 225970,65853 225970,61887 "/>
     <polygon class="fil12" points="233903,61887 237870,57920 237870,53954 233903,53954 "/>
     <polygon class="fil12" points="237870,61887 233903,61887 233903,69820 237870,65853 "/>
     <polygon class="fil12" points="206137,57920 206137,49987 202171,53954 202171,61887 "/>
     <polygon class="fil12" points="206137,61887 202171,61887 202171,69820 206137,65853 "/>
    </g>
    <path class="fil12" d="M254738 53954l19833 0 3967 -3967 -23800 0 0 3967zm15867 11899l-15867 0 0 3967 15867 0 0 -3967zm7933 -7933l-23800 0 0 3967 19833 0 0 7933 3967 0 0 -11900z"/>
   </g>
   <g>
    <g>
     <path class="fil6" d="M237870 35884l-3967 3967c3967,0 7933,0 11900,0l3967 -3967c-3967,0 -7933,0 -11900,0z"/>
     <polygon class="fil6" points="178371,23985 182338,20018 158538,20018 158538,23985 "/>
     <polygon class="fil6" points="158538,27951 158538,31918 170438,31918 174404,27951 "/>
     <polygon class="fil6" points="182338,27951 178371,31918 194237,31918 198204,27951 "/>
     <polygon class="fil6" points="178371,35884 178371,39851 186304,39851 190271,35884 "/>
     <polygon class="fil6" points="194237,35884 190271,39851 202171,39851 202171,35884 "/>
     <path class="fil6" d="M186304 23985l15867 0 3966 -3967c-5289,0 -10577,0 -15866,0l-3967 3967z"/>
     <path class="fil6" d="M206137 27951l-3966 3967 15866 0 3967 -3967c-5289,0 -10578,0 -15867,0z"/>
     <polygon class="fil6" points="218037,20018 218037,23985 222004,23985 222004,20018 "/>
     <polygon class="fil6" points="225970,27951 222004,31918 233903,31918 233903,27951 "/>
     <path class="fil6" d="M222004 35884c-3967,0 -7933,0 -11900,0l-3967 3967c5289,0 10578,0 15867,0l0 -3967z"/>
     <path class="fil6" d="M245803 23985l3967 -3967c-3967,0 -7933,0 -11900,0l-3967 3967c3967,0 7933,0 11900,0z"/>
     <path class="fil6" d="M237870 27951l-3967 3967c3967,0 7933,0 11900,0l3967 -3967c-3967,0 -7933,0 -11900,0z"/>
    </g>
    <g>
     <polygon class="fil10" points="174404,27951 170438,31918 170438,39851 174404,39851 "/>
     <polygon class="fil10" points="166471,35884 158538,35884 158538,39851 166471,39851 "/>
     <polygon class="fil10" points="178371,23985 178371,31918 182338,27951 182338,20018 "/>
     <polygon class="fil10" points="222004,31918 222004,39851 225970,35884 225970,31918 "/>
     <polygon class="fil10" points="233903,31918 237870,27951 237870,23985 233903,23985 "/>
     <polygon class="fil10" points="237870,31918 233903,31918 233903,39851 237870,35884 "/>
     <polygon class="fil10" points="206137,27951 206137,20018 202171,23985 202171,31918 "/>
     <polygon class="fil10" points="206137,31918 202171,31918 202171,39851 206137,35884 "/>
    </g>
    <path class="fil10" d="M254738 23985l19833 0 3967 -3967 -23800 0 0 3967zm15867 11899l-15867 0 0 3967 15867 0 0 -3967zm7933 -7933l-23800 0 0 3967 19833 0 0 7933 3967 0 0 -11900z"/>
   </g>
   <g>
    <g>
     <path class="fil6" d="M237870 185731l-3967 3967c3967,0 7933,0 11900,0l3967 -3967c-3967,0 -7933,0 -11900,0z"/>
     <polygon class="fil6" points="178371,173832 182338,169865 158538,169865 158538,173832 "/>
     <polygon class="fil6" points="158538,177798 158538,181765 170438,181765 174404,177798 "/>
     <polygon class="fil6" points="182338,177798 178371,181765 194237,181765 198204,177798 "/>
     <polygon class="fil6" points="178371,185731 178371,189699 186304,189699 190271,185731 "/>
     <polygon class="fil6" points="194237,185731 190271,189699 202171,189699 202171,185731 "/>
     <path class="fil6" d="M186304 173832l15867 0 3966 -3967c-5289,0 -10577,0 -15866,0l-3967 3967z"/>
     <path class="fil6" d="M206137 177798l-3966 3967 15866 0 3967 -3967c-5289,0 -10578,0 -15867,0z"/>
     <polygon class="fil6" points="218037,169865 218037,173832 222004,173832 222004,169865 "/>
     <polygon class="fil6" points="225970,177798 222004,181765 233903,181765 233903,177798 "/>
     <path class="fil6" d="M222004 185731c-3967,0 -7933,0 -11900,0l-3967 3967c5289,0 10578,0 15867,0l0 -3967z"/>
     <path class="fil6" d="M245803 173832l3967 -3967c-3967,0 -7933,0 -11900,0l-3967 3967c3967,0 7933,0 11900,0z"/>
     <path class="fil6" d="M237870 177798l-3967 3967c3967,0 7933,0 11900,0l3967 -3967c-3967,0 -7933,0 -11900,0z"/>
    </g>
    <g>
     <polygon class="fil3" points="174404,177798 170438,181765 170438,189698 174404,189698 "/>
     <polygon class="fil3" points="166471,185731 158538,185731 158538,189698 166471,189698 "/>
     <polygon class="fil3" points="178371,173832 178371,181765 182338,177798 182338,169865 "/>
     <polygon class="fil3" points="222004,181765 222004,189698 225970,185731 225970,181765 "/>
     <polygon class="fil3" points="233903,181765 237870,177798 237870,173832 233903,173832 "/>
     <polygon class="fil3" points="237870,181765 233903,181765 233903,189698 237870,185731 "/>
     <polygon class="fil3" points="206137,177798 206137,169865 202171,173832 202171,181765 "/>
     <polygon class="fil3" points="206137,181765 202171,181765 202171,189698 206137,185731 "/>
    </g>
    <path class="fil3" d="M254738 173832l19833 0 3967 -3967 -23800 0 0 3967zm15867 11899l-15867 0 0 3967 15867 0 0 -3967zm7933 -7933l-23800 0 0 3967 19833 0 0 7933 3967 0 0 -11900z"/>
   </g>
   <g>
    <g>
     <path class="fil6" d="M237870 215701l-3967 3967c3967,0 7933,0 11900,0l3967 -3967c-3967,0 -7933,0 -11900,0z"/>
     <polygon class="fil6" points="178371,203802 182338,199835 158538,199835 158538,203802 "/>
     <polygon class="fil6" points="158538,207768 158538,211735 170438,211735 174404,207768 "/>
     <polygon class="fil6" points="182338,207768 178371,211735 194237,211735 198204,207768 "/>
     <polygon class="fil6" points="178371,215701 178371,219668 186304,219668 190271,215701 "/>
     <polygon class="fil6" points="194237,215701 190271,219668 202171,219668 202171,215701 "/>
     <path class="fil6" d="M186304 203802l15867 0 3966 -3967c-5289,0 -10577,0 -15866,0l-3967 3967z"/>
     <path class="fil6" d="M206137 207768l-3966 3967 15866 0 3967 -3967c-5289,0 -10578,0 -15867,0z"/>
     <polygon class="fil6" points="218037,199835 218037,203802 222004,203802 222004,199835 "/>
     <polygon class="fil6" points="225970,207768 222004,211735 233903,211735 233903,207768 "/>
     <path class="fil6" d="M222004 215701c-3967,0 -7933,0 -11900,0l-3967 3967c5289,0 10578,0 15867,0l0 -3967z"/>
     <path class="fil6" d="M245803 203802l3967 -3967c-3967,0 -7933,0 -11900,0l-3967 3967c3967,0 7933,0 11900,0z"/>
     <path class="fil6" d="M237870 207768l-3967 3967c3967,0 7933,0 11900,0l3967 -3967c-3967,0 -7933,0 -11900,0z"/>
    </g>
    <g>
     <polygon class="fil13" points="174404,207768 170438,211735 170438,219668 174404,219668 "/>
     <polygon class="fil13" points="166471,215701 158538,215701 158538,219668 166471,219668 "/>
     <polygon class="fil13" points="178371,203802 178371,211735 182338,207768 182338,199835 "/>
     <polygon class="fil13" points="222004,211735 222004,219668 225970,215701 225970,211735 "/>
     <polygon class="fil13" points="233903,211735 237870,207768 237870,203802 233903,203802 "/>
     <polygon class="fil13" points="237870,211735 233903,211735 233903,219668 237870,215701 "/>
     <polygon class="fil13" points="206137,207768 206137,199835 202171,203802 202171,211735 "/>
     <polygon class="fil13" points="206137,211735 202171,211735 202171,219668 206137,215701 "/>
    </g>
    <path class="fil13" d="M254738 203802l19833 0 3967 -3967 -23800 0 0 3967zm15867 11899l-15867 0 0 3967 15867 0 0 -3967zm7933 -7933l-23800 0 0 3967 19833 0 0 7933 3967 0 0 -11900z"/>
   </g>
   <g>
    <g>
     <path class="fil6" d="M237870 245670l-3967 3967c3967,0 7933,0 11900,0l3967 -3967c-3967,0 -7933,0 -11900,0z"/>
     <polygon class="fil6" points="178371,233771 182338,229804 158538,229804 158538,233771 "/>
     <polygon class="fil6" points="158538,237737 158538,241704 170438,241704 174404,237737 "/>
     <polygon class="fil6" points="182338,237737 178371,241704 194237,241704 198204,237737 "/>
     <polygon class="fil6" points="178371,245670 178371,249638 186304,249638 190271,245670 "/>
     <polygon class="fil6" points="194237,245670 190271,249638 202171,249638 202171,245670 "/>
     <path class="fil6" d="M186304 233771l15867 0 3966 -3967c-5289,0 -10577,0 -15866,0l-3967 3967z"/>
     <path class="fil6" d="M206137 237737l-3966 3967 15866 0 3967 -3967c-5289,0 -10578,0 -15867,0z"/>
     <polygon class="fil6" points="218037,229804 218037,233771 222004,233771 222004,229804 "/>
     <polygon class="fil6" points="225970,237737 222004,241704 233903,241704 233903,237737 "/>
     <path class="fil6" d="M222004 245670c-3967,0 -7933,0 -11900,0l-3967 3967c5289,0 10578,0 15867,0l0 -3967z"/>
     <path class="fil6" d="M245803 233771l3967 -3967c-3967,0 -7933,0 -11900,0l-3967 3967c3967,0 7933,0 11900,0z"/>
     <path class="fil6" d="M237870 237737l-3967 3967c3967,0 7933,0 11900,0l3967 -3967c-3967,0 -7933,0 -11900,0z"/>
    </g>
    <g>
     <polygon class="fil12" points="174404,237737 170438,241704 170438,249637 174404,249637 "/>
     <polygon class="fil12" points="166471,245670 158538,245670 158538,249637 166471,249637 "/>
     <polygon class="fil12" points="178371,233771 178371,241704 182338,237737 182338,229804 "/>
     <polygon class="fil12" points="222004,241704 222004,249637 225970,245670 225970,241704 "/>
     <polygon class="fil12" points="233903,241704 237870,237737 237870,233771 233903,233771 "/>
     <polygon class="fil12" points="237870,241704 233903,241704 233903,249637 237870,245670 "/>
     <polygon class="fil12" points="206137,237737 206137,229804 202171,233771 202171,241704 "/>
     <polygon class="fil12" points="206137,241704 202171,241704 202171,249637 206137,245670 "/>
    </g>
    <path class="fil12" d="M254738 233771l19833 0 3967 -3967 -23800 0 0 3967zm15867 11899l-15867 0 0 3967 15867 0 0 -3967zm7933 -7933l-23800 0 0 3967 19833 0 0 7933 3967 0 0 -11900z"/>
   </g>
   <g>
    <g>
     <path class="fil6" d="M237870 275640l-3967 3967c3967,0 7933,0 11900,0l3967 -3967c-3967,0 -7933,0 -11900,0z"/>
     <polygon class="fil6" points="178371,263741 182338,259774 158538,259774 158538,263741 "/>
     <polygon class="fil6" points="158538,267707 158538,271674 170438,271674 174404,267707 "/>
     <polygon class="fil6" points="182338,267707 178371,271674 194237,271674 198204,267707 "/>
     <polygon class="fil6" points="178371,275640 178371,279607 186304,279607 190271,275640 "/>
     <polygon class="fil6" points="194237,275640 190271,279607 202171,279607 202171,275640 "/>
     <path class="fil6" d="M186304 263741l15867 0 3966 -3967c-5289,0 -10577,0 -15866,0l-3967 3967z"/>
     <path class="fil6" d="M206137 267707l-3966 3967 15866 0 3967 -3967c-5289,0 -10578,0 -15867,0z"/>
     <polygon class="fil6" points="218037,259774 218037,263741 222004,263741 222004,259774 "/>
     <polygon class="fil6" points="225970,267707 222004,271674 233903,271674 233903,267707 "/>
     <path class="fil6" d="M222004 275640c-3967,0 -7933,0 -11900,0l-3967 3967c5289,0 10578,0 15867,0l0 -3967z"/>
     <path class="fil6" d="M245803 263741l3967 -3967c-3967,0 -7933,0 -11900,0l-3967 3967c3967,0 7933,0 11900,0z"/>
     <path class="fil6" d="M237870 267707l-3967 3967c3967,0 7933,0 11900,0l3967 -3967c-3967,0 -7933,0 -11900,0z"/>
    </g>
    <g>
     <polygon class="fil14" points="174404,267707 170438,271674 170438,279607 174404,279607 "/>
     <polygon class="fil14" points="166471,275640 158538,275640 158538,279607 166471,279607 "/>
     <polygon class="fil14" points="178371,263741 178371,271674 182338,267707 182338,259774 "/>
     <polygon class="fil14" points="222004,271674 222004,279607 225970,275640 225970,271674 "/>
     <polygon class="fil14" points="233903,271674 237870,267707 237870,263741 233903,263741 "/>
     <polygon class="fil14" points="237870,271674 233903,271674 233903,279607 237870,275640 "/>
     <polygon class="fil14" points="206137,267707 206137,259774 202171,263741 202171,271674 "/>
     <polygon class="fil14" points="206137,271674 202171,271674 202171,279607 206137,275640 "/>
    </g>
    <path class="fil14" d="M254738 263741l19833 0 3967 -3967 -23800 0 0 3967zm15867 11899l-15867 0 0 3967 15867 0 0 -3967zm7933 -7933l-23800 0 0 3967 19833 0 0 7933 3967 0 0 -11900z"/>
   </g>
   <g>
    <polygon class="fil15" points="41515,263366 44732,260149 22212,260149 22212,263366 "/>
    <polygon class="fil15" points="33583,271299 36799,268082 22212,268082 22212,271299 "/>
    <polygon class="fil16" points="29395,279232 29395,276015 22212,276015 22212,279232 "/>
    <polygon class="fil16" points="37328,279232 37328,268611 34112,271828 34112,279232 "/>
    <polygon class="fil16" points="45262,267552 45262,260679 42045,263896 42045,270769 "/>
    <polygon class="fil15" points="42575,271299 57381,271299 60598,268082 45792,268082 "/>
    <polygon class="fil15" points="49448,279232 52665,276015 42045,276015 42045,279232 "/>
    <polygon class="fil15" points="65316,263366 68532,260149 53725,260149 50508,263366 "/>
    <polygon class="fil15" points="66374,271299 81181,271299 84398,268082 69590,268082 "/>
    <polygon class="fil16" points="69061,267553 69061,260678 65845,263895 65845,270770 67143,269472 "/>
    <polygon class="fil16" points="69061,275486 69061,272049 65845,272049 65845,278703 "/>
    <polygon class="fil15" points="65095,279232 65095,276015 57690,276015 54474,279232 "/>
    <polygon class="fil15" points="89644,271299 96827,271299 96827,268082 89423,268082 86207,271299 "/>
    <polygon class="fil15" points="84928,263366 84928,260149 81711,260149 81711,263366 "/>
    <polygon class="fil15" points="84928,279232 84928,276015 73558,276015 70341,279232 "/>
    <polygon class="fil16" points="88894,275486 88894,272049 85678,272049 85678,278703 "/>
    <polygon class="fil15" points="98107,271299 101544,271299 108947,271299 112164,268082 101324,268082 "/>
    <polygon class="fil15" points="101544,263366 108947,263366 112164,260149 101324,260149 98107,263366 "/>
    <polygon class="fil16" points="97577,270769 100794,267552 100794,264116 97577,264116 97577,267332 "/>
    <polygon class="fil16" points="97577,278702 100794,275485 100794,272049 97577,272049 "/>
    <polygon class="fil15" points="101324,276015 98107,279232 108947,279232 112164,276015 "/>
    <polygon class="fil16" points="118412,268082 118412,271299 138245,271299 138245,279232 141462,279232 141462,268082 "/>
    <polygon class="fil16" points="118412,263366 137715,263366 140932,260149 118412,260149 "/>
    <polygon class="fil16" points="118412,276015 118412,279232 133529,279232 133529,276015 "/>
    <path class="fil1" d="M101324 276015l-3217 3217 10840 0 3217 -3217 -10840 0zm-64525 -7933l-14587 0 0 3217 11371 0 3216 -3217zm5246 -4186l0 6873 3217 -3217 0 -6873 -3217 3217zm-750 220l-19833 0 0 -4717 24550 0 0 7933 16396 0 -4717 4717 -16396 0 0 -7933zm-11900 11899l-7183 0 0 3217 7183 0 0 -3217zm-7558 -750l8308 0 0 4717 -8683 0 0 -4717 375 0zm15491 -6654l-3216 3217 0 7404 3216 0 0 -10621zm-15866 3063l0 -4342 16616 0 0 12650 -4716 0 0 -7933 -11900 0 0 -375zm20583 4341l0 3217 7403 0 3217 -3217 -10620 0zm-750 -750l13180 0 -4717 4717 -8463 0 0 -4717zm4497 -7183l-3217 3217 14806 0 3217 -3217 -14806 0zm-4277 -4716l3217 -3217 -22520 0 0 3217 19303 0zm76897 0l19303 0 3217 -3217 -22520 0 0 3217zm19458 750l-20208 0 0 -4717 25080 0 -4717 4717 -155 0zm-4341 11899l-15117 0 0 3217 15117 0 0 -3217zm750 -750l0 4717 -16617 0 0 -4717 16617 0zm7183 -7183l-23050 0 0 3217 19833 0 0 7933 3217 0 0 -11150zm750 -750l0 12650 -4717 0 0 -7933 -19833 0 0 -4717 24550 0zm-76367 4717l0 6654 3216 -3217 0 -3437 -3216 0zm3966 0l0 3745 -4187 4188 -12957 0 4715 -4717 7713 0 0 -11149 -16397 0 4717 -4717 16396 0 0 7933 16397 0 -4717 4717 -11680 0zm-750 -4496l0 -6875 -3216 3217 0 6875 1298 -1298 1918 -1919zm529 529l-3216 3217 14807 0 3217 -3217 -14808 0 0 0zm27987 3967l0 6653 3217 -3217 0 -3436 -3217 0zm3967 0l0 3216 12430 0 -4717 4717 -12430 0 0 -7933 -7183 0 0 3745 -4187 4188 -16926 0 4717 -4717 11680 0 0 -3745 4187 -4188 7712 0 0 -3746 4187 -4187 12960 0 -640 640 -4077 4077 -7713 0 0 3216 12430 0 -4717 4717 -7713 0zm-750 -4497l0 -3436 -3217 0 0 3216 0 3437 3217 -3217zm-15116 4497l0 6654 3216 -3217 0 -3437 -3216 0zm15646 -3967l-3217 3217 3437 0 7403 0 3217 -3217 -10840 0zm7623 -4716l3217 -3217 -10840 0 -3217 3217 3437 0 7403 0zm-24019 12649l-11370 0 -3217 3217 14587 0 0 -3217zm4495 -7933l-3216 3217 3437 0 7183 0 0 -3217 -7404 0zm-7712 -7933l0 3217 3217 0 0 -3217 -3217 0zm-750 3592l0 -4342 4717 0 0 4717 -4717 0 0 -375zm-30453 -375l14808 0 3216 -3217 -14807 0 -3217 3217zm7182 12649l-3216 3217 10621 0 0 -3217 -7405 0z"/>
   </g>
  </g>
 </g>
</svg>
