<?xml version="1.0" encoding="UTF-8"?>
<!DOCTYPE svg PUBLIC "-//W3C//DTD SVG 1.1//EN" "http://www.w3.org/Graphics/SVG/1.1/DTD/svg11.dtd">
<!-- Creator: CorelDRAW X7 -->
<svg xmlns="http://www.w3.org/2000/svg" xml:space="preserve" width="4.72441in" height="1.38039in" version="1.1" style="shape-rendering:geometricPrecision; text-rendering:geometricPrecision; image-rendering:optimizeQuality; fill-rule:evenodd; clip-rule:evenodd"
viewBox="0 0 47244 13804"
 xmlns:xlink="http://www.w3.org/1999/xlink">
 <defs>
  <style type="text/css">
   <![CDATA[
    .fil0 {fill:none}
    .fil2 {fill:#6C87C3}
    .fil1 {fill:#A6B7DE}
    .fil3 {fill:#D2AE6D}
    .fil4 {fill:gray;fill-rule:nonzero}
   ]]>
  </style>
 </defs>
 <g id="Layer_x0020_1">
  <metadata id="CorelCorpID_0Corel-Layer"/>
  <g id="_1970585705776">
   <rect class="fil0" width="47244" height="7808"/>
   <path class="fil1" d="M31233 6246l-1561 1562c1561,0 3123,0 4685,0l1562 -1562c-1562,0 -3123,0 -4686,0z"/>
   <polygon class="fil1" points="7808,1561 9370,0 0,0 0,1561 "/>
   <polygon class="fil1" points="0,3123 0,4685 4685,4685 6246,3123 "/>
   <polygon class="fil1" points="9370,3123 7808,4685 14054,4685 15617,3123 "/>
   <polygon class="fil1" points="7808,6246 7808,7808 10932,7808 12493,6246 "/>
   <polygon class="fil1" points="14054,6246 12493,7808 17178,7808 17178,6246 "/>
   <path class="fil1" d="M10932 1561l6246 0 1561 -1561c-2081,0 -4164,0 -6246,0l-1561 1561z"/>
   <path class="fil1" d="M18739 3123l-1561 1561 6247 0 1561 -1561c-2082,0 -4165,0 -6247,0z"/>
   <polygon class="fil1" points="23425,0 23425,1561 24987,1561 24987,0 "/>
   <polygon class="fil1" points="26548,3123 24987,4685 29671,4685 29671,3123 "/>
   <path class="fil1" d="M24987 6246c-1561,0 -3123,0 -4685,0l-1561 1562c2081,0 4164,0 6246,0l0 -1562z"/>
   <path class="fil1" d="M34356 1561l1562 -1561c-1562,0 -3123,0 -4686,0l-1561 1561c1561,0 3123,0 4685,0z"/>
   <path class="fil1" d="M31233 3123l-1561 1561c1561,0 3123,0 4685,0l1562 -1561c-1562,0 -3123,0 -4686,0z"/>
   <polygon class="fil2" points="6246,3123 4685,4685 4685,7808 6246,7808 "/>
   <polygon class="fil2" points="3123,6246 0,6246 0,7808 3123,7808 "/>
   <polygon class="fil2" points="7808,1561 7808,4685 9370,3123 9370,0 "/>
   <polygon class="fil2" points="24987,4685 24987,7808 26548,6246 26548,4685 "/>
   <polygon class="fil2" points="29671,4685 31233,3123 31233,1561 29671,1561 "/>
   <polygon class="fil2" points="31233,4685 29671,4685 29671,7808 31233,6246 "/>
   <polygon class="fil2" points="18739,3123 18739,0 17178,1561 17178,4685 "/>
   <polygon class="fil2" points="18739,4685 17178,4685 17178,7808 18739,6246 "/>
   <path class="fil3" d="M37874 1561l7808 0 1561 -1561 -9370 0 0 1561 1 0zm6247 4685l-6246 0 0 1562 6246 0 0 -1562zm3123 -3123l-9370 0 0 1561 7808 0 0 3123 1561 0 0 -4685 1 1z"/>
   <path class="fil4" d="M1217 12587c0,374 -85,663 -255,869 -170,205 -400,307 -691,307 -78,0 -168,-9 -271,-29l33 -231c61,13 128,19 202,19 251,0 439,-90 564,-268 125,-178 187,-396 187,-652 0,-213 -43,-492 -128,-839l245 -70c76,320 114,618 114,894zm1400 85l0 271 -103 0c-276,0 -468,-75 -577,-224 -109,-149 -163,-372 -163,-670l0 -1738 245 -22 0 1723c0,244 42,415 127,513 84,98 226,147 427,147l44 0zm0 271c-25,0 -45,-13 -61,-39 -16,-26 -23,-57 -23,-93 0,-39 7,-72 23,-99 16,-27 36,-40 61,-40l942 0 0 271 -942 0zm942 0c-25,0 -45,-13 -61,-39 -16,-26 -24,-57 -24,-93 0,-39 8,-72 24,-99 16,-27 36,-40 61,-40l77 0c474,0 860,-54 1158,-162 -17,-227 -122,-440 -314,-639 -192,-199 -447,-353 -767,-460l0 -315c432,-350 936,-611 1513,-785l0 261c-471,132 -904,350 -1297,656 354,141 623,324 808,547 184,224 277,469 277,735 0,81 -4,144 -12,191 -307,161 -757,242 -1348,242l-95 0zm3500 -261c153,0 300,-20 439,-62 -5,-249 -53,-460 -144,-632 -92,-172 -217,-258 -376,-258 -142,0 -250,55 -326,166 -76,112 -114,234 -114,369 0,139 38,243 114,313 76,70 211,104 407,104zm-404 1096c-124,0 -255,-17 -392,-51l37 -227c100,22 216,33 348,33 149,0 279,-22 390,-64 111,-43 197,-100 257,-171 60,-71 105,-143 135,-216 31,-73 50,-152 57,-235 -149,52 -319,77 -509,77 -240,0 -408,-55 -506,-165 -98,-109 -146,-262 -146,-458 0,-234 61,-429 183,-584 122,-155 282,-233 480,-233 222,0 399,105 531,313 132,209 198,489 198,838 0,364 -90,645 -269,844 -180,200 -444,299 -794,299zm5758 -835c-323,0 -573,-81 -752,-242 -212,188 -667,282 -1363,282 -239,0 -440,-18 -603,-55 -162,-37 -286,-90 -370,-159 -84,-70 -143,-146 -176,-229 -33,-84 -49,-181 -49,-294 0,-205 42,-428 128,-670l213 47c-62,215 -92,395 -92,539 0,88 13,163 38,224 26,61 74,118 143,170 70,53 174,92 314,117 139,26 312,39 520,39 213,0 396,-9 550,-28 154,-18 277,-42 368,-71 92,-29 164,-69 218,-117 54,-49 89,-98 106,-147 18,-49 26,-106 26,-172l0 -477 235 -22 0 510c0,117 -19,220 -55,308 151,117 369,176 652,176l26 0 0 271 -77 0zm-1990 410l212 191 -179 201 -217 -179 184 -213zm4320 -403c-246,0 -411,-88 -494,-264 -52,91 -139,160 -262,207 -124,48 -250,72 -380,72 -246,0 -439,-58 -579,-173 -117,101 -282,151 -494,151l-44 0c-25,0 -45,-13 -61,-39 -16,-26 -24,-57 -24,-93 0,-39 8,-72 24,-99 16,-27 36,-40 61,-40l106 0c137,0 239,-30 306,-88 67,-59 107,-171 119,-338l22 -304 224 -18 -22 352c-8,115 -27,211 -59,289 115,78 260,117 436,117 144,0 268,-32 372,-97 104,-64 156,-160 156,-287l0 -425 223 -15 0 429c0,259 129,388 385,388 276,0 414,-132 414,-396l0 -458 224 -22 0 458c0,96 -9,176 -26,242 139,115 342,173 609,173l33 0 0 271 -66 0c-262,0 -488,-70 -678,-209 -105,144 -280,216 -525,216zm1269 -7c-25,0 -45,-13 -61,-39 -16,-26 -24,-57 -24,-93 0,-39 8,-72 24,-99 16,-27 36,-40 61,-40l941 0 0 271 -941 0zm941 0c-24,0 -44,-13 -60,-39 -16,-26 -24,-57 -24,-93 0,-39 8,-72 24,-99 16,-27 36,-40 60,-40l77 0c474,0 860,-54 1158,-162 -17,-227 -121,-440 -313,-639 -192,-199 -448,-353 -768,-460l0 -315c433,-350 937,-611 1514,-785l0 261c-472,132 -904,350 -1297,656 354,141 623,324 808,547 184,224 276,469 276,735 0,81 -3,144 -11,191 -307,161 -757,242 -1348,242l-96 0zm3903 -1551l213 191 -180 202 -216 -180 183 -213zm957 360c103,361 154,661 154,898 0,332 -107,593 -321,784 -214,190 -521,286 -921,286 -318,0 -561,-76 -730,-226 -168,-150 -253,-361 -253,-632 0,-288 70,-574 209,-857l202 84c-110,239 -165,474 -165,703 0,208 63,370 191,486 127,116 323,174 590,174 295,0 529,-68 700,-203 171,-136 256,-317 256,-545 0,-261 -50,-554 -150,-879l238 -73zm956 1191l-241 0 0 -2632 241 -22 0 2654zm568 820c-78,0 -168,-9 -271,-29l33 -231c61,13 128,19 202,19 256,0 448,-90 573,-268 126,-178 189,-396 189,-652 0,-188 -50,-469 -150,-843l231 -66c68,296 119,493 154,594 73,256 259,385 557,385l99 0 0 271 -132 0c-245,0 -425,-79 -543,-235 -17,335 -110,594 -278,779 -169,184 -390,276 -664,276zm1441 -820c-24,0 -45,-13 -60,-39 -16,-25 -24,-57 -24,-93 0,-39 8,-72 24,-99 15,-27 36,-40 60,-40l751 0 0 271 -751 0zm1191 -2265l0 -191c237,-151 531,-290 883,-418l0 184c-344,129 -639,271 -883,425zm-440 2265c-24,0 -45,-13 -60,-39 -16,-26 -24,-57 -24,-93 0,-39 8,-72 24,-99 15,-27 36,-40 60,-40l73 0c474,0 862,-56 1162,-166 -19,-227 -124,-439 -313,-635 -190,-197 -443,-349 -761,-457l0 -307c430,-342 932,-601 1506,-777l0 256c-466,132 -896,348 -1289,649 351,142 619,324 802,546 183,222 275,467 275,733 0,78 -4,140 -11,187 -147,73 -342,132 -584,176 -244,44 -502,66 -776,66l-84 0zm5299 -2250l191 172 -161 183 -198 -161 168 -194zm264 381l198 176 -169 186 -201 -164 172 -198zm-491 14l198 176 -169 187 -201 -165 172 -198zm-2026 2716c-318,0 -561,-75 -730,-225 -168,-151 -253,-362 -253,-633 0,-286 70,-573 209,-861l202 84c-110,240 -165,476 -165,708 0,205 63,365 190,482 128,116 324,174 591,174 295,0 528,-68 700,-204 170,-135 256,-315 256,-540 0,-262 -50,-555 -150,-880l238 -77c88,313 138,566 150,759 108,61 242,91 403,91 144,0 268,-32 370,-97 103,-64 154,-160 154,-287l0 -436 228 -22 0 447c0,259 125,388 377,388 144,0 275,-33 392,-99 5,-58 7,-102 7,-132 0,-193 -32,-421 -98,-685l234 -55c56,230 84,441 84,634 0,178 -19,327 -58,447 -196,108 -390,161 -583,161 -242,0 -403,-86 -484,-260 -51,91 -138,160 -262,207 -123,48 -250,72 -379,72 -144,0 -275,-21 -392,-63 -37,281 -160,502 -370,662 -210,160 -497,240 -861,240zm4628 -1122c154,0 301,-20 440,-62 -5,-249 -53,-460 -145,-632 -92,-172 -217,-258 -376,-258 -141,0 -250,55 -326,166 -75,112 -113,234 -113,369 0,139 38,243 113,313 76,70 212,104 407,104zm-403 1096c-125,0 -255,-17 -392,-51l36 -227c101,22 217,33 349,33 149,0 279,-22 390,-64 111,-43 197,-100 256,-171 60,-71 106,-143 136,-216 31,-73 50,-152 57,-235 -149,52 -319,77 -510,77 -239,0 -408,-55 -505,-165 -98,-109 -147,-262 -147,-458 0,-234 61,-429 183,-584 123,-155 283,-233 481,-233 222,0 399,105 531,313 132,209 198,489 198,838 0,364 -90,645 -270,844 -179,200 -444,299 -793,299zm2463 -1106l0 271 -103 0c-276,0 -468,-75 -577,-224 -109,-149 -163,-372 -163,-670l0 -1738 245 -22 0 1723c0,244 42,415 127,513 84,98 226,147 427,147l44 0zm0 271c-25,0 -45,-13 -61,-39 -16,-26 -24,-57 -24,-93 0,-39 8,-72 24,-99 16,-27 36,-40 61,-40l941 0 0 271 -941 0zm941 0c-24,0 -44,-13 -60,-39 -16,-26 -24,-57 -24,-93 0,-39 8,-72 24,-99 16,-27 36,-40 60,-40l77 0c475,0 861,-54 1159,-162 -17,-227 -122,-440 -314,-639 -192,-199 -447,-353 -768,-460l0 -315c433,-350 937,-611 1514,-785l0 261c-471,132 -904,350 -1297,656 354,141 623,324 808,547 184,224 276,469 276,735 0,81 -3,144 -11,191 -307,161 -757,242 -1348,242l-96 0z"/>
  </g>
 </g>
</svg>
