<?xml version="1.0" encoding="UTF-8"?>
<!DOCTYPE svg PUBLIC "-//W3C//DTD SVG 1.1//EN" "http://www.w3.org/Graphics/SVG/1.1/DTD/svg11.dtd">
<!-- Creator: CorelDRAW X7 -->
<svg xmlns="http://www.w3.org/2000/svg" xml:space="preserve" width="8.92933in" height="7.74063in" version="1.1" style="shape-rendering:geometricPrecision; text-rendering:geometricPrecision; image-rendering:optimizeQuality; fill-rule:evenodd; clip-rule:evenodd"
viewBox="0 0 89293 77406"
 xmlns:xlink="http://www.w3.org/1999/xlink">
 <defs>
  <style type="text/css">
   <![CDATA[
    .fil5 {fill:#7ECDC5}
    .fil7 {fill:#D2AE6D}
    .fil4 {fill:#DFC495}
    .fil11 {fill:#E2CAA0}
    .fil3 {fill:#E8D5B3}
    .fil10 {fill:#E9D6B3}
    .fil9 {fill:#ECDFC7}
    .fil6 {fill:#EDDEC2}
    .fil1 {fill:#F0E5D2}
    .fil2 {fill:#F2E6D3}
    .fil12 {fill:#F3E9D7}
    .fil0 {fill:#F7F1E5}
    .fil8 {fill:white}
   ]]>
  </style>
 </defs>
 <g id="Layer_x0020_1">
  <metadata id="CorelCorpID_0Corel-Layer"/>
  <g id="_1507467777168">
   <g>
    <path class="fil0" d="M79495 45946c0,-16952 -13741,-30693 -30692,-30693 -16951,0 -30693,13741 -30693,30693 0,16951 13742,30693 30693,30693 16951,0 30692,-13742 30692,-30693z"/>
    <path class="fil1" d="M70062 68072l0 -14749 -6 0 0 -35c-18,-76 -1869,-1611 -3293,-2777l0 -645 1723 -445c270,-70 546,-104 820,-104 445,0 885,90 1295,268 299,128 609,251 920,351l0 1348c1424,1166 2327,1928 2344,2004l0 35 6 0 0 10319c-1131,1600 -2403,3077 -3809,4430z"/>
    <polygon class="fil2" points="5120,6566 14127,27699 20709,23196 24525,28739 25213,19388 33180,14533 "/>
    <polygon class="fil3" points="22169,22196 14127,27699 20709,23196 24525,28739 25213,19388 12518,11828 "/>
    <polygon class="fil4" points="25044,21680 12518,11828 25213,19388 "/>
    <path class="fil4" d="M24686 31375c-71,-411 -161,-822 -268,-1221l618 -165c111,417 206,847 280,1277l-630 109z"/>
    <path class="fil4" d="M25295 36494l-630 -112c147,-826 223,-1668 227,-2503l640 3c-5,871 -84,1750 -237,2612zm-4377 376c-726,-162 -1472,-245 -2216,-245l-259 3 -16 -639c881,-21 1769,64 2631,258l-140 623zm-7043 1249l-447 -457c563,-552 1332,-964 2353,-1263l215 603c-940,275 -1642,648 -2121,1117zm11496 961c-588,-428 -1220,-878 -1904,-1252l-214 -113 293 -568c77,38 152,79 228,120 717,393 1395,875 1973,1297l-376 516zm27462 843l-197 -608c813,-264 1621,-539 2426,-825l213 602c-808,288 -1623,566 -2442,831zm-4968 1416l-150 -622c799,-194 1632,-414 2473,-655l176 615c-850,243 -1690,465 -2499,662zm-24347 71l-555 -319c415,-721 770,-1488 1055,-2279l602 216c-299,828 -669,1628 -1102,2382zm6381 254c-752,-256 -1456,-568 -2095,-928 -100,-56 -199,-115 -299,-174l331 -548c93,56 187,112 282,165 604,341 1272,637 1986,880l-205 605zm12885 646l-86 -633c822,-112 1670,-252 2519,-416l121 628c-860,166 -1720,308 -2554,421zm-7760 291l-408 -31c-786,-66 -1498,-154 -2177,-272l109 -630c660,114 1354,200 2121,265l400 30 -45 638zm2593 84l-2 -639c832,-4 1690,-38 2546,-102l47 638c-871,64 -1743,99 -2591,103zm-24736 146c-361,-731 -551,-1534 -551,-2323 0,-65 1,-129 4,-194l8 -139 637 47 -6 117c-2,57 -4,113 -4,169 0,692 167,1397 485,2040l-573 283zm7003 2377l-282 -574c665,-327 1308,-833 1912,-1506l476 427c-659,734 -1368,1290 -2106,1653zm-2656 521c-928,-62 -1816,-358 -2568,-856l354 -533c659,437 1439,697 2257,751l-43 638z"/>
    <path class="fil5" d="M57723 38191l-227 -598c397,-151 795,-306 1192,-461l232 597c-398,155 -797,309 -1197,462z"/>
    <path class="fil6" d="M77850 53773c-325,0 -603,-247 -635,-578 -34,-351 223,-664 574,-698 3864,-374 7419,-2219 10010,-5193 232,-267 636,-294 901,-62 267,231 295,635 62,901 -2805,3223 -6659,5221 -10849,5627l-63 3z"/>
    <path class="fil7" d="M70058 53324l-22274 13135 -22273 -13135 3 -36c18,-84 1248,-1110 3122,-2633l51 -44c6151,-4994 19097,-15220 19097,-15220 0,0 12947,10226 19097,15220 1904,1545 3156,2590 3174,2677l3 36z"/>
    <path class="fil8" d="M56945 24513l-24032 0c-2062,0 -3733,1671 -3733,3732l0 36336c0,2062 1671,3733 3733,3733l30113 0c2061,0 3732,-1671 3732,-3733l0 -30255 -9813 -9813z"/>
    <path class="fil9" d="M56945 30594c0,2061 1671,3732 3732,3732l6081 0 -9813 -9813 0 6081z"/>
    <path class="fil10" d="M70061 53323l0 21369c0,1494 -1221,2714 -2715,2714l-39126 0c-1493,0 -2707,-1220 -2707,-2714l0 -21369 22274 13133 22274 -13133z"/>
    <path class="fil11" d="M69308 76556l-14336 -14337 -7185 4237 -7188 -4238 -14337 14337c494,521 1186,851 1958,851l39126 0c772,0 1466,-329 1962,-850z"/>
    <path class="fil10" d="M74559 23989c-6411,629 -11534,5914 -11992,12341 -229,3198 677,6169 2347,8572 628,905 731,2075 309,3093l-1058 2546 4323 -1120c704,-184 1448,-126 2116,163 2003,869 4260,1266 6631,1036 6294,-609 11386,-5692 11994,-11985 816,-8443 -6224,-15475 -14670,-14646z"/>
    <path class="fil11" d="M75552 23932c4766,1426 8242,5841 8242,11071 0,6386 -5176,11562 -11561,11562 -3364,0 -6383,-1445 -8495,-3738 333,728 723,1424 1176,2075 628,905 731,2075 309,3093l-1058 2546 4323 -1120c704,-184 1448,-126 2116,163 2003,869 4260,1266 6631,1036 6294,-609 11386,-5692 11994,-11985 783,-8111 -5681,-14913 -13677,-14703z"/>
    <path class="fil12" d="M5883 12833l2922 6704c148,342 -9,740 -351,887l-104 45c-344,148 -743,-12 -888,-357l-2817 -6749c-149,-353 27,-760 387,-893 336,-124 709,36 851,363z"/>
    <path class="fil4" d="M48337 50107l0 -2205 -734 0 0 2205 734 0zm4447 6225l-4684 -4003 -9759 0 0 -14060 19256 0 0 14060 -4813 0 0 4003zm734 -3266l4814 0 0 -15544 -20725 0 0 15544 10231 0 5680 4880 0 -4880zm-5915 -6645l734 0 0 -5928 -734 0 0 5928z"/>
    <path class="fil8" d="M70752 40260l281 288 1835 -1828 -288 -288 -1828 1828zm11801 -5742l-9426 9426c-1245,-1252 -2490,-2497 -3742,-3742l3130 -3130 1814 1814 3166 -3167 -1814 -1813 3131 -3130c1244,1245 2497,2497 3741,3742zm-3741 -3166l-2555 2554 1806 1813 -3734 3735 -1814 -1806 -2554 2554c1058,1058 2108,2109 3166,3167l8851 -8851c-1058,-1058 -2109,-2109 -3166,-3166l0 0zm-1771 2619l288 280 1828 -1827 -288 -281 -1828 1828z"/>
   </g>
   <path class="fil9" d="M75499 73415c2047,67 3688,1747 3699,3827l34 0c16,-2080 1657,-3760 3699,-3827 -2053,-67 -3699,-1763 -3699,-3855l-28 0c0,2092 -1647,3788 -3705,3855z"/>
   <path class="fil9" d="M3702 1920c-1019,34 -1837,871 -1842,1907l-17 0c-8,-1036 -826,-1873 -1843,-1907 1023,-33 1843,-878 1843,-1920l14 0c0,1042 820,1887 1845,1920z"/>
  </g>
 </g>
</svg>
