<?xml version="1.0" encoding="UTF-8"?>
<!DOCTYPE svg PUBLIC "-//W3C//DTD SVG 1.1//EN" "http://www.w3.org/Graphics/SVG/1.1/DTD/svg11.dtd">
<!-- Creator: CorelDRAW X7 -->
<svg xmlns="http://www.w3.org/2000/svg" xml:space="preserve" width="3.4111in" height="1.07992in" version="1.1" style="shape-rendering:geometricPrecision; text-rendering:geometricPrecision; image-rendering:optimizeQuality; fill-rule:evenodd; clip-rule:evenodd"
viewBox="0 0 34111 10799"
 xmlns:xlink="http://www.w3.org/1999/xlink">
 <defs>
  <style type="text/css">
   <![CDATA[
    .fil1 {fill:#D2AE6D}
    .fil2 {fill:#F2ECE1}
    .fil0 {fill:white}
    .fil3 {fill:#D2AE6D;fill-rule:nonzero}
   ]]>
  </style>
 </defs>
 <g id="Layer_x0020_1">
  <metadata id="CorelCorpID_0Corel-Layer"/>
  <g id="_2622772022688">
   <path class="fil0" d="M5399 0l23313 0c2969,0 5399,2430 5399,5399 0,2970 -2430,5400 -5399,5400l-23313 0c-2969,0 -5399,-2430 -5399,-5399 0,-2970 2429,-5400 5399,-5400z"/>
   <path class="fil1" d="M5399 0l23313 0c2969,0 5399,2430 5399,5399 0,2970 -2430,5400 -5399,5400l-23313 0c-2969,0 -5399,-2430 -5399,-5399 0,-2970 2429,-5400 5399,-5400zm23313 266l-23313 0c-2823,0 -5133,2311 -5133,5134 0,1411 577,2695 1508,3625 931,931 2214,1509 3625,1509l23313 0c2823,0 5133,-2311 5133,-5135 0,-1411 -577,-2694 -1508,-3626 -931,-930 -2214,-1507 -3625,-1507l0 0z"/>
   <g>
    <polygon class="fil2" points="23087,1563 22775,1563 22775,9236 23087,9236 "/>
    <polygon class="fil1" points="22618,1563 22775,1563 22775,9236 22618,9236 "/>
   </g>
   <path class="fil3" d="M28678 7872l-239 0 0 -597c-173,-52 -330,-133 -455,-245 -110,-97 -198,-215 -258,-356 -55,-131 -87,-280 -87,-446l240 0c0,59 5,118 15,170 10,66 29,126 52,184 45,106 113,196 195,268 63,55 135,102 215,138 25,13 53,25 83,35l0 -1569c-151,-43 -298,-100 -430,-182 -77,-48 -144,-105 -199,-171 -135,-156 -201,-354 -207,-554 -4,-197 48,-398 156,-570 52,-85 118,-164 196,-230 133,-114 301,-194 483,-241l0 -581 239 0 0 4947 0 0 1 0zm378 -4947l239 0 0 595c177,53 338,133 468,244 117,101 211,224 275,370 59,138 93,293 93,468l-240 0c0,-86 -10,-166 -27,-238 -11,-48 -25,-93 -45,-135 -49,-112 -122,-206 -212,-284 -49,-42 -102,-78 -161,-108 -47,-27 -99,-48 -152,-67l0 1641c150,42 288,97 415,175 57,35 110,75 155,120 48,48 90,100 126,159 106,184 132,409 92,621 -41,216 -151,422 -312,562 -132,116 -297,195 -476,242l0 582 -239 0 0 -4947 0 0 1 0zm-617 2279l0 -1451c-125,38 -238,97 -330,175 -57,50 -107,110 -149,174 -82,132 -123,289 -118,439 3,148 51,293 149,406 40,47 88,88 145,123 90,57 194,100 303,134l0 0 0 0zm860 1838c119,-40 227,-97 315,-173 120,-105 203,-260 235,-427 29,-158 12,-324 -65,-457 -25,-40 -53,-76 -85,-108 -33,-31 -73,-62 -115,-89 -77,-46 -162,-84 -250,-114 -13,-5 -26,-9 -40,-13l0 1382 5 -1 0 0zm-433 -5462c1022,0 1980,398 2700,1120 723,720 1118,1680 1118,2699 0,1020 -395,1979 -1118,2701 -720,720 -1678,1118 -2700,1118 -1020,0 -1978,-398 -2700,-1118 -720,-722 -1117,-1681 -1117,-2701 0,-1019 397,-1979 1117,-2699 722,-722 1680,-1120 2700,-1120zm-2532 6350c677,677 1577,1048 2532,1048 957,0 1856,-371 2531,-1048 677,-676 1050,-1575 1050,-2531 0,-957 -373,-1854 -1050,-2531 -676,-675 -1574,-1049 -2531,-1049 -955,0 -1855,374 -2532,1049 -676,677 -1048,1574 -1048,2531 0,956 373,1855 1048,2531z"/>
  </g>
 </g>
</svg>
