<?xml version="1.0" encoding="UTF-8"?>
<!DOCTYPE svg PUBLIC "-//W3C//DTD SVG 1.1//EN" "http://www.w3.org/Graphics/SVG/1.1/DTD/svg11.dtd">
<!-- Creator: CorelDRAW X7 -->
<svg xmlns="http://www.w3.org/2000/svg" xml:space="preserve" width="11.0236in" height="8.22008in" version="1.1" style="shape-rendering:geometricPrecision; text-rendering:geometricPrecision; image-rendering:optimizeQuality; fill-rule:evenodd; clip-rule:evenodd"
viewBox="0 0 110236 82201"
 xmlns:xlink="http://www.w3.org/1999/xlink">
 <defs>
  <style type="text/css">
   <![CDATA[
    .fil67 {fill:#0A87B9}
    .fil70 {fill:#374D4C}
    .fil68 {fill:#067BAB}
    .fil69 {fill:#067AAB}
    .fil45 {fill:#4F638F}
    .fil30 {fill:#536896}
    .fil43 {fill:#5C71A5}
    .fil46 {fill:#6981B7}
    .fil33 {fill:#6C87C3}
    .fil72 {fill:#75613D}
    .fil53 {fill:#7875A3}
    .fil41 {fill:#7E96CB}
    .fil47 {fill:#839ACD}
    .fil21 {fill:#8480BC}
    .fil34 {fill:#889DC8}
    .fil54 {fill:#8BA1D0}
    .fil42 {fill:#91A5D2}
    .fil56 {fill:#9CAED7}
    .fil27 {fill:#9DAFD7}
    .fil24 {fill:#9F9CCB}
    .fil49 {fill:#9FB1D9}
    .fil52 {fill:#A0B2DB}
    .fil71 {fill:#A38755}
    .fil55 {fill:#A6B6DB}
    .fil29 {fill:#A6B7DE}
    .fil32 {fill:#B6C4E3}
    .fil22 {fill:#BBB8DA}
    .fil63 {fill:#C1C0DF}
    .fil37 {fill:#C4CFE9}
    .fil5 {fill:#D2AE6D}
    .fil3 {fill:#DFC596}
    .fil2 {fill:#E7D4B0}
    .fil1 {fill:#EFE2C9}
    .fil0 {fill:#F7F2E7}
    .fil6 {fill:white}
    .fil57 {fill:white}
    .fil31 {fill:#2A344B;fill-rule:nonzero}
    .fil66 {fill:#5B72A5;fill-rule:nonzero}
    .fil48 {fill:#6077AD;fill-rule:nonzero}
    .fil8 {fill:#6981B7;fill-rule:nonzero}
    .fil73 {fill:#6C87C3;fill-rule:nonzero}
    .fil64 {fill:#76B5CE;fill-rule:nonzero}
    .fil9 {fill:#7B93C9;fill-rule:nonzero}
    .fil44 {fill:#7E96CB;fill-rule:nonzero}
    .fil23 {fill:#8480BC;fill-rule:nonzero}
    .fil51 {fill:#879BC5;fill-rule:nonzero}
    .fil40 {fill:#889ECE;fill-rule:nonzero}
    .fil15 {fill:#8BA1D0;fill-rule:nonzero}
    .fil10 {fill:#97AAD5;fill-rule:nonzero}
    .fil19 {fill:#9F9CCB;fill-rule:nonzero}
    .fil18 {fill:#A38755;fill-rule:nonzero}
    .fil11 {fill:#A6B6DB;fill-rule:nonzero}
    .fil50 {fill:#A6B7DE;fill-rule:nonzero}
    .fil58 {fill:#ACBCDD;fill-rule:nonzero}
    .fil65 {fill:#AFBEE1;fill-rule:nonzero}
    .fil20 {fill:#BBB8DA;fill-rule:nonzero}
    .fil13 {fill:#C4CFE9;fill-rule:nonzero}
    .fil14 {fill:#D1D1D1;fill-rule:nonzero}
    .fil61 {fill:#D2AE6D;fill-rule:nonzero}
    .fil17 {fill:#D7B77D;fill-rule:nonzero}
    .fil62 {fill:#D8DBEE;fill-rule:nonzero}
    .fil12 {fill:#D8E0F1;fill-rule:nonzero}
    .fil59 {fill:#DAE1F0;fill-rule:nonzero}
    .fil7 {fill:#DFC596;fill-rule:nonzero}
    .fil38 {fill:#E1E7F4;fill-rule:nonzero}
    .fil4 {fill:#EEE3CE;fill-rule:nonzero}
    .fil25 {fill:#F1E5CF;fill-rule:nonzero}
    .fil16 {fill:#F3F5FB;fill-rule:nonzero}
    .fil35 {fill:#F6F8FB;fill-rule:nonzero}
    .fil60 {fill:#F8F9FC;fill-rule:nonzero}
    .fil26 {fill:white;fill-rule:nonzero}
    .fil39 {fill:url(#id0)}
    .fil28 {fill:url(#id1)}
    .fil36 {fill:url(#id2)}
   ]]>
  </style>
  <linearGradient id="id0" gradientUnits="userSpaceOnUse" x1="39622.6" y1="49150.2" x2="47250.3" y2="49150.2">
   <stop offset="0" style="stop-opacity:1; stop-color:#3A9BD5"/>
   <stop offset="1" style="stop-opacity:1; stop-color:#2573BA"/>
  </linearGradient>
  <linearGradient id="id1" gradientUnits="userSpaceOnUse" x1="57463.5" y1="50031.9" x2="46068.2" y2="40366.9">
   <stop offset="0" style="stop-opacity:1; stop-color:#59BDEF"/>
   <stop offset="1" style="stop-opacity:1; stop-color:#7BDAFF"/>
  </linearGradient>
  <linearGradient id="id2" gradientUnits="userSpaceOnUse" xlink:href="#id1" x1="55171.9" y1="42446.2" x2="48359.8" y2="32822.1">
  </linearGradient>
 </defs>
 <g id="Layer_x0020_1">
  <metadata id="CorelCorpID_0Corel-Layer"/>
  <g id="_3027667480272">
   <g>
    <path class="fil0" d="M0 0l0 25172 0 5856 0 198 0 6438 0 10416 0 28801c6018,2201 11474,4588 16502,5164 10616,1218 13254,-4902 17577,-12221 1109,-1878 2449,-3573 4388,-4471 1770,-820 3922,-728 7046,389 3813,1363 8916,2869 16196,551 14221,-4528 14872,-22557 11350,-34567 -2228,-7594 -6287,-14556 -11130,-20815 -3035,-3923 -6405,-7608 -10104,-10911l-51825 0z"/>
    <path class="fil1" d="M0 31226l0 16854c5060,9556 14464,7955 19205,3066 7413,-7647 5016,-12968 20590,-6997 5287,2028 11571,2037 16435,-1105 3498,-2260 6010,-6078 6450,-10220 244,-2304 -129,-4626 -112,-6943 18,-2317 508,-4784 2140,-6428 1572,-1584 3922,-2119 6151,-2211 2417,-100 4822,250 7225,599 2931,427 5859,853 8802,464 1857,-245 3774,-796 5574,-1622 97,-45 194,-90 290,-136 65,-31 130,-63 195,-95 86,-42 172,-85 258,-129 2095,-1070 3992,-2520 5393,-4295 58,-73 115,-146 170,-220 66,-87 130,-174 192,-261 933,-1304 1601,-2726 2065,-4218 24,-76 46,-151 69,-227 2,-6 3,-12 5,-18 98,-331 186,-666 265,-1004 22,-95 44,-190 65,-285 18,-86 37,-173 54,-259 9,-42 17,-83 25,-125 202,-1023 327,-2068 391,-3121 6,-94 11,-187 16,-281 1,-25 3,-51 4,-77 4,-88 8,-176 11,-263 22,-556 29,-1113 23,-1669l-95649 0c602,2030 1591,4204 3042,6525 7228,11564 -4112,16347 -9344,24701z"/>
    <path class="fil2" d="M6449 4268c6065,9704 -945,14634 -6449,20904l0 5856 0 6636c4050,1688 8750,580 11963,-1923 8401,-6547 6763,-12148 21360,-4078 4956,2739 11178,3619 16430,1180 3778,-1754 6794,-5187 7803,-9228 560,-2248 512,-4600 851,-6892 343,-2323 1198,-4818 3208,-6216 1754,-1220 4060,-1401 6198,-1192 5341,522 10322,3230 15726,3272 8611,67 14850,-3960 15460,-12587l-90010 0c-429,962 -1007,1851 -1692,2694 -335,412 -695,813 -1075,1206 74,122 149,245 227,368z"/>
    <path class="fil3" d="M4215 0c522,1250 1185,2550 2007,3900 74,123 150,245 227,368 6065,9704 -945,14634 -6449,20904l0 5856c35,11 70,22 105,33 2853,877 5738,638 7978,-758 9040,-5630 7297,-15493 20968,-5938 4641,3243 10737,4770 16216,2894 3940,-1348 7300,-4447 8726,-8360 793,-2177 992,-4521 1568,-6765 515,-2001 1422,-4028 3017,-5296 194,-153 397,-296 611,-425 1908,-1158 4317,-1109 6503,-661 5257,1079 9926,4293 15296,4901 4527,513 9836,-652 13348,-3644 2197,-1875 3654,-4331 4652,-7009l-94773 0z"/>
   </g>
   <path class="fil4" d="M82730 46131c-1612,-54 -2904,-1379 -2915,-3019l-25 0c-11,1640 -1304,2965 -2919,3019 1619,54 2919,1390 2919,3040l21 0c0,-1650 1300,-2986 2919,-3040z"/>
   <g>
    <path class="fil5" d="M50349 15810c0,-4522 -3666,-8188 -8188,-8188 -4522,0 -8188,3666 -8188,8188 0,4522 3666,8188 8188,8188 4522,0 8188,-3666 8188,-8188z"/>
    <path class="fil6" d="M43707 18128l0 1543 -6179 0 0 -1543 6179 0zm-6179 -4636l0 -1545c3090,0 6179,0 9268,0l-1545 1545c-2573,0 -5148,0 -7723,0zm9268 1544c0,1546 0,3092 0,4635l-1545 0 0 -3089 -7723 0 0 -1546 9268 0z"/>
   </g>
   <path class="fil7" d="M110236 11964c-732,23 -1319,624 -1324,1367l-12 0c-5,-742 -590,-1344 -1322,-1367 735,-25 1324,-629 1324,-1379l10 0c0,750 589,1354 1324,1379z"/>
   <g>
    <path class="fil8" d="M34524 61305l-14 1577c-3,246 -135,473 -349,595l-6401 3677 12 -1328 6752 -4521z"/>
    <path class="fil9" d="M24803 64074l2969 1752 6174 -3488c762,-431 772,-1524 19,-1969l0 0c-789,-466 -1765,-475 -2562,-25l-6600 3730z"/>
    <polygon class="fil10" points="24803,64074 24791,65401 27760,67154 27772,65826 "/>
    <polygon class="fil11" points="27204,65780 25804,66573 25796,67443 27196,66650 "/>
    <polygon class="fil12" points="27204,65780 25387,64709 23993,65503 25804,66573 "/>
    <polygon class="fil13" points="23993,65503 23985,66375 25796,67443 25804,66573 "/>
    <polygon class="fil14" points="24083,65656 24077,66312 25707,67274 25713,66617 "/>
    <polygon class="fil15" points="24077,66312 24653,65991 24083,65656 "/>
    <polygon class="fil16" points="24077,66312 24080,65984 25710,66943 25707,67274 "/>
    <polygon class="fil11" points="24080,65984 24364,65821 25713,66617 25710,66944 "/>
    <polygon class="fil11" points="25599,65930 25988,65709 26372,65938 25982,66159 "/>
    <polygon class="fil9" points="25679,65978 25599,65930 25988,65709 26372,65939 26289,65984 25986,65805 "/>
    <polygon class="fil11" points="24716,65408 25105,65186 25488,65416 25099,65636 "/>
    <polygon class="fil9" points="24796,65456 24716,65408 25105,65187 25488,65416 25406,65461 25103,65283 "/>
    <polygon class="fil17" points="29699,61307 30405,60908 33377,62662 32669,63059 "/>
    <polygon class="fil18" points="32669,63059 33377,62662 33365,63934 32658,64341 "/>
   </g>
   <g>
    <path class="fil19" d="M19418 51158l-6 2137c-3,879 -581,1757 -1735,2428 -2323,1350 -6102,1350 -8442,0 -1175,-679 -1763,-1570 -1760,-2460l6 -2137c-2,890 585,1781 1761,2460 2339,1350 6117,1350 8441,0 1154,-671 1732,-1549 1735,-2428z"/>
    <path class="fil19" d="M17656 48696c2339,1351 2349,3541 27,4890 -2323,1350 -6102,1351 -8442,0 -2336,-1349 -2349,-3538 -25,-4889 2322,-1349 6103,-1350 8440,-1z"/>
    <path class="fil19" d="M19418 48508l-6 2137c-3,879 -581,1757 -1735,2428 -2323,1351 -6102,1351 -8442,0 -1175,-679 -1763,-1570 -1760,-2460l6 -2137c-2,890 585,1781 1761,2460 2339,1350 6117,1350 8441,0 1154,-671 1732,-1549 1735,-2428z"/>
    <path class="fil19" d="M17656 46046c2339,1351 2349,3540 27,4890 -2323,1350 -6102,1350 -8442,0 -2336,-1349 -2349,-3538 -25,-4889 2322,-1349 6103,-1350 8440,-1z"/>
    <path class="fil19" d="M19418 45858l-6 2137c-3,879 -581,1757 -1735,2428 -2323,1350 -6102,1350 -8442,0 -1175,-679 -1763,-1570 -1760,-2461l6 -2136c-2,890 585,1781 1761,2460 2339,1350 6117,1350 8441,0 1154,-671 1732,-1549 1735,-2428z"/>
    <path class="fil19" d="M17656 43396c2339,1350 2349,3540 27,4890 -2323,1350 -6102,1350 -8442,0 -2336,-1350 -2349,-3539 -25,-4889 2322,-1349 6103,-1350 8440,-1z"/>
    <path class="fil19" d="M19418 43208l-6 2136c-3,880 -581,1758 -1735,2429 -2323,1350 -6102,1350 -8442,0 -1175,-679 -1763,-1571 -1760,-2461l6 -2137c-2,890 585,1782 1761,2461 2339,1350 6117,1350 8441,0 1154,-671 1732,-1549 1735,-2428z"/>
    <path class="fil19" d="M17656 40746c2339,1350 2349,3540 27,4890 -2323,1350 -6102,1350 -8442,0 -2336,-1350 -2349,-3539 -25,-4889 2322,-1349 6103,-1350 8440,-1z"/>
    <path class="fil19" d="M19418 40557l-6 2137c-3,880 -581,1758 -1735,2428 -2323,1351 -6102,1351 -8442,0 -1175,-678 -1763,-1570 -1760,-2460l6 -2137c-2,890 585,1782 1761,2460 2339,1351 6117,1351 8441,0 1154,-670 1732,-1548 1735,-2428z"/>
    <path class="fil19" d="M17656 38096c2339,1350 2349,3540 27,4889 -2323,1351 -6102,1351 -8442,0 -2336,-1349 -2349,-3538 -25,-4888 2322,-1349 6103,-1351 8440,-1z"/>
    <path class="fil19" d="M19418 37907l-6 2137c-3,880 -581,1758 -1735,2428 -2323,1350 -6102,1350 -8442,0 -1175,-679 -1763,-1570 -1760,-2460l6 -2137c-2,890 585,1781 1761,2460 2339,1350 6117,1350 8441,0 1154,-670 1732,-1548 1735,-2428z"/>
    <path class="fil20" d="M17656 35445c2339,1351 2349,3541 27,4890 -2323,1350 -6102,1351 -8442,0 -2336,-1349 -2349,-3538 -25,-4889 2322,-1349 6103,-1350 8440,-1z"/>
    <path class="fil21" d="M9241 40335c-235,-136 -448,-281 -636,-433 -273,-219 -496,-453 -670,-696 -304,-425 -455,-878 -454,-1331l-6 2137c0,37 1,74 3,111 3,58 8,117 16,175 63,450 278,895 643,1306 279,313 645,606 1098,868 304,176 632,328 979,458 522,196 1086,340 1669,432l0 -860 0 -1277c-812,-129 -1588,-359 -2267,-691 -128,-62 -253,-129 -375,-199z"/>
    <path class="fil21" d="M11883 43875c-812,-129 -1588,-359 -2267,-691 -128,-62 -253,-129 -375,-199 -577,-333 -1012,-718 -1306,-1128 -304,-426 -455,-879 -454,-1332l-6 2137c0,95 6,191 19,286 63,450 278,895 643,1306 279,313 645,606 1098,868 304,176 632,328 978,458 523,196 1087,341 1670,433l0 -860 0 -1278z"/>
    <path class="fil21" d="M11883 46525c-812,-129 -1588,-359 -2267,-690 -128,-63 -253,-129 -375,-199 -577,-334 -1013,-719 -1306,-1129 -304,-426 -455,-879 -454,-1332l-6 2137c0,96 6,191 19,286 63,450 278,895 643,1306 279,313 645,607 1098,869 304,175 633,328 979,457 523,196 1086,341 1669,433l0 -860 0 -1278z"/>
    <path class="fil21" d="M11883 49175c-812,-129 -1588,-359 -2267,-690 -128,-63 -253,-129 -375,-199 -577,-334 -1012,-718 -1306,-1129 -304,-425 -455,-879 -454,-1331l-6 2136c0,96 6,191 19,286 63,450 278,895 643,1306 279,313 645,607 1098,869 763,440 1679,737 2648,890l0 -2138z"/>
    <path class="fil21" d="M11883 51825c-966,-153 -1880,-450 -2642,-889 -577,-334 -1013,-718 -1306,-1129 -304,-425 -455,-878 -454,-1331l-6 2137c0,95 6,190 19,285 111,793 692,1569 1741,2175 763,440 1679,737 2648,890l0 -2138z"/>
    <path class="fil21" d="M11883 54475c-966,-153 -1880,-449 -2642,-889 -1175,-679 -1762,-1570 -1760,-2460l-6 2137c-3,890 585,1781 1760,2460 6,3 12,7 18,10 759,435 1669,728 2630,880l0 -587 0 -1551z"/>
    <path class="fil22" d="M11883 43875c1838,291 3867,66 5400,-677 138,-67 271,-138 400,-213 565,-328 992,-706 1281,-1109 301,-421 452,-870 454,-1319 0,-95 -7,-190 -20,-285 -54,463 -268,921 -643,1344 -273,308 -633,598 -1078,856 -309,180 -643,335 -997,467 -1438,536 -3190,677 -4797,423l0 513z"/>
    <path class="fil22" d="M11883 46525c1838,292 3867,66 5400,-677 138,-66 271,-137 400,-212 565,-328 992,-706 1281,-1110 301,-421 452,-869 454,-1318 0,-96 -7,-191 -20,-286 -54,464 -268,922 -643,1344 -273,308 -633,598 -1078,857 -309,179 -643,335 -997,466 -1438,537 -3190,678 -4797,424l0 512z"/>
    <path class="fil22" d="M11883 49175c1838,292 3867,67 5400,-676 138,-67 271,-138 400,-213 565,-328 992,-706 1281,-1109 301,-421 452,-870 454,-1319 0,-95 -7,-190 -20,-285 -54,463 -268,921 -643,1343 -273,309 -633,598 -1078,857 -309,179 -643,335 -997,467 -1438,536 -3190,677 -4797,423l0 512z"/>
    <path class="fil22" d="M11883 51826c1838,292 3867,66 5400,-677 138,-67 271,-138 400,-213 565,-328 992,-706 1281,-1109 301,-421 452,-870 454,-1319 0,-95 -7,-190 -20,-285 -54,463 -268,921 -643,1344 -273,308 -633,598 -1078,856 -309,180 -643,335 -997,467 -1438,536 -3190,677 -4797,424l0 512z"/>
    <path class="fil22" d="M11883 54476c1838,292 3867,66 5400,-677 138,-66 271,-137 400,-212 565,-328 992,-706 1281,-1110 301,-421 452,-869 454,-1318 0,-95 -7,-191 -20,-286 -54,464 -268,922 -643,1344 -273,309 -633,598 -1078,857 -309,179 -643,335 -997,467 -1438,536 -3190,677 -4797,423l0 512z"/>
   </g>
   <g>
    <path class="fil23" d="M19418 51158l-6 2137c-3,880 -581,1758 -1735,2428 -356,208 -748,383 -1163,527l0 -2135c418,-144 811,-320 1169,-529 1154,-670 1732,-1548 1735,-2428z"/>
    <path class="fil19" d="M17656 48696c2339,1351 2349,3541 27,4890 -358,209 -752,385 -1169,529l0 -5935c407,142 791,314 1142,516z"/>
    <path class="fil23" d="M19418 48508l-6 2137c-3,879 -581,1757 -1735,2428 -356,207 -748,383 -1163,527l0 -2135c418,-144 811,-321 1169,-529 1154,-671 1732,-1549 1735,-2428z"/>
    <path class="fil23" d="M19418 45858l-6 2137c-3,879 -581,1757 -1735,2428 -356,207 -748,383 -1163,526l0 -2135c418,-144 811,-320 1169,-528 1154,-671 1732,-1549 1735,-2428z"/>
    <path class="fil23" d="M19418 43208l-6 2137c-3,879 -581,1757 -1735,2428 -356,207 -748,382 -1163,526l0 -2135c418,-144 811,-320 1169,-528 1154,-671 1732,-1549 1735,-2428z"/>
    <path class="fil24" d="M16514 48815c267,-92 525,-198 769,-316 138,-67 271,-138 400,-213 565,-328 992,-706 1281,-1109 301,-421 452,-870 454,-1319 0,-95 -7,-190 -20,-285 -54,463 -268,921 -643,1343 -273,309 -633,598 -1078,857 -309,180 -643,335 -997,467 -55,20 -110,40 -166,60l0 515z"/>
    <path class="fil24" d="M16514 51465c267,-92 525,-197 769,-316 138,-67 271,-137 400,-212 565,-329 992,-706 1281,-1110 301,-421 452,-869 454,-1318 0,-96 -7,-191 -20,-286 -54,463 -268,921 -643,1344 -273,308 -633,598 -1078,857 -309,179 -643,335 -997,466 -55,21 -110,41 -166,60l0 515z"/>
    <path class="fil24" d="M16514 54115c267,-92 525,-197 769,-316 138,-66 271,-137 400,-212 565,-328 992,-706 1281,-1110 301,-420 452,-869 454,-1318 0,-95 -7,-190 -20,-285 -54,463 -268,921 -643,1343 -273,309 -633,598 -1078,857 -309,179 -643,335 -997,467 -55,20 -110,40 -166,59l0 515z"/>
   </g>
   <g>
    <g>
     <path class="fil25" d="M56191 64995l-21282 -12287c-243,-141 -213,-387 68,-549l12558 -7250c281,-162 706,-180 949,-39l21283 12287c243,141 213,386 -68,549l-12558 7250c-281,162 -706,180 -950,39z"/>
     <path class="fil26" d="M50421 32694l-6301 -3669c-1249,-720 -2426,-834 -3315,-321 -889,513 -1379,1590 -1379,3031l0 462c45,30 91,59 139,88l0 -550c0,-1390 465,-2423 1309,-2911 845,-487 1973,-373 3176,322l6301 3668c33,20 76,8 95,-25 19,-33 8,-76 -25,-95z"/>
     <path class="fil26" d="M30771 28324l0 -14200c0,-2842 -2003,-6311 -4465,-7732 -1205,-696 -2342,-806 -3201,-310 -859,496 -1332,1535 -1332,2927l0 991c46,46 92,92 139,139l0 -1130c0,-1340 448,-2337 1262,-2807 815,-470 1902,-360 3063,310 2423,1400 4395,4814 4395,7612l0 14200c0,2356 1386,5144 3266,6822l0 -187c-1806,-1659 -3127,-4353 -3127,-6635z"/>
     <path class="fil26" d="M33911 35087c0,0 -1604,-1635 -2228,-2981 -625,-1347 -948,-2594 -959,-3706 -11,-1111 -22,-10669 -22,-10669 0,0 69,-3963 -98,-4588 -167,-626 -560,-3963 -3829,-6361 -3269,-2398 -4902,189 -4882,1540 19,1352 -1,2216 -1,2216 0,0 1792,1450 2467,3520 676,2071 741,1712 752,3771 11,2060 22,12508 22,12508 0,0 -151,1835 305,3255 457,1420 1278,2994 2252,4025 975,1031 2413,2248 3742,2129 1330,-120 2223,-611 2479,-2714l0 -1945z"/>
     <polygon class="fil26" points="23105,6082 17595,9258 21892,10538 "/>
     <path class="fil27" d="M36309 31675c-1542,55 -2060,1466 -2060,1466l0 0c0,0 -365,1054 -338,1548l0 0c5,85 9,186 13,293l0 0c-9,-8 -18,-15 -26,-23l0 0 0 187c10,9 21,18 31,27l0 0c13,475 17,998 17,998l0 0c0,0 14,940 -120,1558l0 0c-240,1112 -1181,1743 -1253,1842l0 0 5654 -3256c5,-3 10,-4 15,-7l0 0c8,-5 15,-10 23,-14l0 0 28 -17 4 -4c818,-504 1268,-1520 1268,-2872l0 0 0 -1116c-48,-29 -94,-58 -139,-89l0 0 0 638c-299,-217 -1680,-1160 -3019,-1160l0 0c-33,0 -65,0 -98,1l0 0z"/>
     <path class="fil26" d="M35020 32052l5785 -3348c0,0 986,-519 2179,-82 1193,437 7444,4187 7444,4187l-5584 3217c0,0 -6489,-4020 -7251,-4222 -1563,-414 -2573,248 -2573,248z"/>
     <path class="fil27" d="M21912 12185l0 -1 0 -1630c-47,-46 -93,-74 -139,-120l0 0c-228,-217 -1292,-1155 -2845,-1392l0 0c-104,-17 -205,-24 -302,-25l-5 0 -5 0c-1533,0 -2173,1812 -2173,1812l0 0c0,0 -203,1068 -196,1700l0 0c8,632 53,2928 53,2928l0 0 5573 -3211 0 -1c23,-11 38,-33 39,-60z"/>
     <path class="fil26" d="M31486 39823c-614,0 -1294,-205 -1998,-611 -2444,-1411 -4432,-4855 -4432,-7676l0 -14200c0,-2798 -1972,-6213 -4395,-7612 -1161,-670 -2248,-780 -3062,-310 -815,470 -1263,1467 -1263,2807l0 3175c0,38 -31,69 -70,69 -38,0 -69,-31 -69,-69l0 -3175c0,-1392 473,-2431 1332,-2927 859,-496 1996,-386 3202,310 2461,1421 4464,4890 4464,7732l0 14200c0,2777 1957,6167 4362,7555 1152,665 2232,775 3040,308 808,-466 1253,-1456 1253,-2786l0 -1666c0,-1441 490,-2518 1379,-3031 889,-513 2066,-400 3315,321l6300 3669c34,19 45,62 26,95 -19,33 -62,44 -95,25l-6301 -3668c-1203,-695 -2331,-809 -3175,-322 -845,488 -1310,1521 -1310,2911l0 1666c0,1382 -470,2414 -1322,2907 -352,203 -750,303 -1181,303z"/>
     <polygon class="fil28" points="40525,49520 51766,56009 63006,49520 51766,34389 "/>
     <polygon class="fil29" points="40525,39259 51766,45749 63006,39259 51766,32769 "/>
     <polygon class="fil13" points="51766,45580 40671,39175 40525,39259 51766,45749 63006,39259 62860,39175 "/>
     <polygon class="fil30" points="63006,49520 63006,39259 51766,45749 51766,56009 "/>
     <polygon class="fil31" points="61595,48816 61595,41592 53177,46453 53177,53676 "/>
     <polygon class="fil32" points="53177,52605 53177,53676 61595,48816 61595,41592 60567,42186 60567,48339 "/>
     <polygon class="fil33" points="51766,56009 51766,45749 40525,39259 40525,49520 "/>
     <polygon class="fil31" points="41944,44543 41944,45874 50348,50726 50348,49395 "/>
     <polygon class="fil34" points="50347,50726 50347,49977 42585,45495 42585,44913 41944,44543 41944,45874 "/>
     <polygon class="fil26" points="51766,45148 41443,39188 51766,33228 62089,39188 "/>
     <polygon class="fil26" points="51766,43660 41443,37700 51766,31740 62089,37700 "/>
     <polygon class="fil26" points="51766,43505 41577,37623 41443,37700 51766,43660 62089,37700 61955,37623 "/>
     <polygon class="fil13" points="62089,39188 62089,37700 51766,43660 51766,45148 "/>
     <polygon class="fil35" points="41443,37700 41443,39188 51766,45148 51766,43660 "/>
     <polygon class="fil36" points="40525,37634 51766,44124 63006,37634 51766,31144 "/>
     <polygon class="fil29" points="40525,36014 51766,42504 63006,36014 51766,29524 "/>
     <polygon class="fil13" points="51766,42335 40671,35930 40525,36014 51766,42504 63006,36014 62860,35930 "/>
     <polygon class="fil30" points="63006,37634 63006,36014 51766,42504 51766,44124 "/>
     <polygon class="fil33" points="51766,44124 51766,42504 40525,36014 40525,37634 "/>
     <polygon class="fil37" points="37384,48503 45611,53254 49395,51070 41167,46319 "/>
     <polygon class="fil30" points="49395,51792 49395,51070 45611,53254 45611,53976 "/>
     <polygon class="fil33" points="37384,48503 37384,49226 45611,53976 45611,53254 "/>
     <polygon class="fil38" points="47250,51232 39623,46828 42762,45015 50347,49395 50347,49444 "/>
     <polygon class="fil26" points="50347,49684 47250,51472 47250,51232 50347,49444 "/>
     <polygon class="fil39" points="47250,51472 47250,51232 39623,46828 39623,47068 "/>
     <polygon class="fil35" points="41356,45921 37645,47769 37645,48430 45612,53042 49072,51044 49072,50384 "/>
     <polygon class="fil37" points="37384,47186 45611,51936 49395,49752 41167,45002 "/>
     <polygon class="fil30" points="38739,47279 45611,51245 48056,49833 41166,45785 "/>
     <polygon class="fil40" points="41164,45879 48036,49845 48196,49752 41164,45694 38579,47186 38739,47279 "/>
     <polygon class="fil41" points="49395,50475 49395,49752 45611,51936 45611,52659 "/>
     <polygon class="fil42" points="37384,47186 37384,47909 45611,52659 45611,51936 "/>
     <path class="fil43" d="M53177 48709l0 2929 8811 5038 409 -155c0,0 2145,-2695 2105,-2757l0 0c-40,-61 -3970,-2998 -3970,-2998l0 0 -7145 -2755 -210 698z"/>
     <polygon class="fil44" points="53177,50255 57523,47746 57437,47697 53177,50156 "/>
     <polygon class="fil44" points="60282,49345 60196,49296 54688,52476 54773,52525 "/>
     <polygon class="fil44" points="57453,54072 57538,54121 63041,50945 62955,50895 "/>
     <polygon class="fil44" points="60182,55689 60264,55740 65800,52544 65714,52494 "/>
     <path class="fil37" d="M53177 46453l0 2502 7010 4044 1408 881 763 740 116 609 98 625 -232 882 5374 -3100 0 -1c267,-158 420,-503 420,-948l0 0c0,-810 -481,-1722 -1094,-2076l0 0 -10511 -6093 -3352 1935z"/>
     <path class="fil13" d="M67040 50611l-10511 -6093 -47 27 10422 6040c613,354 1093,1267 1093,2077 0,445 -153,790 -420,948l0 1 -5204 3003 -33 122 5374 -3100 0 -1c267,-158 420,-503 420,-948 0,-810 -481,-1722 -1094,-2076z"/>
     <polygon class="fil40" points="61168,47207 61083,47157 55574,50338 55660,50387 "/>
     <polygon class="fil40" points="58339,51933 58425,51983 63927,48806 63842,48756 "/>
     <polygon class="fil40" points="61068,53550 61150,53601 66686,50405 66601,50356 "/>
     <polygon class="fil29" points="55515,45103 56150,45469 60204,43129 59569,42762 "/>
     <polygon class="fil45" points="60204,46288 60204,43129 56150,45469 56150,48629 "/>
     <polygon class="fil46" points="56150,48629 56150,45469 55515,45103 53177,46453 53177,46913 "/>
     <path class="fil47" d="M60587 54396c0,642 452,1424 1008,1745l0 0c557,321 1008,61 1008,-582l0 0c0,-642 -451,-1424 -1008,-1745l0 0c-161,-93 -314,-138 -450,-138 -331,0 -558,264 -558,720z"/>
     <path class="fil48" d="M62214 55335c0,394 -277,554 -619,357 -341,-198 -618,-677 -618,-1072 0,-394 277,-554 618,-357 342,197 619,677 619,1072z"/>
     <path class="fil37" d="M60977 54620c0,395 277,875 618,1072l0 0c239,138 446,100 549,-69l0 0c-95,15 -209,-10 -331,-80l0 0c-341,-197 -618,-677 -618,-1071l0 0c0,-119 25,-216 69,-288 -172,27 -287,182 -287,436z"/>
     <path class="fil49" d="M53177 48782l0 343 8348 4838c522,302 946,1118 946,1821l0 0c0,340 -102,594 -279,696l0 0c-176,102 -379,27 -519,-54l0 0 0 0 -8496 -4925 0 343 8348 4839 0 0c164,94 327,142 480,142l0 0c119,0 233,-29 335,-89l0 0c272,-156 427,-504 427,-952l0 0c0,-811 -480,-1723 -1094,-2077l0 0 -8496 -4925z"/>
     <polygon class="fil50" points="54921,45446 55440,45745 55440,45146 "/>
     <polygon class="fil51" points="54921,45446 55440,45745 55440,45461 55164,45305 "/>
     <polygon class="fil52" points="58321,46646 63422,49591 67476,47250 62375,44305 "/>
     <polygon class="fil30" points="67476,50410 67476,47250 63422,49591 63422,52750 "/>
     <polygon class="fil33" points="63422,52750 63422,49591 58321,46646 58321,49805 "/>
     <polygon class="fil35" points="61458,45907 59249,47182 59249,47865 59905,48244 59905,47560 62113,46285 "/>
     <polygon class="fil35" points="62861,46716 60652,47991 60652,48675 61308,49053 61308,48370 63516,47095 "/>
     <polygon class="fil35" points="64265,47527 62057,48802 62057,49485 62712,49864 62712,49180 64921,47905 "/>
     <polygon class="fil44" points="61458,45907 61458,46182 61879,46420 62113,46285 "/>
     <polygon class="fil50" points="59487,47724 59249,47865 59905,48244 59905,47959 "/>
     <polygon class="fil30" points="59249,47182 59249,47865 59487,47724 59487,47321 61459,46182 61458,45907 "/>
     <polygon class="fil44" points="62861,46716 62861,46992 63282,47230 63516,47095 "/>
     <polygon class="fil50" points="60890,48534 60652,48675 61308,49053 61308,48769 "/>
     <polygon class="fil30" points="60652,47991 60652,48675 60890,48533 60890,48130 62862,46992 62861,46716 "/>
     <polygon class="fil44" points="64265,47527 64265,47802 64686,48041 64921,47905 "/>
     <polygon class="fil50" points="62294,49344 62057,49485 62712,49864 62712,49579 "/>
     <polygon class="fil30" points="62057,48802 62057,49486 62294,49344 62294,48941 64266,47802 64265,47527 "/>
     <polygon class="fil13" points="26554,20455 26554,19953 27139,19616 27139,20117 "/>
     <polygon class="fil13" points="28205,18565 28205,18063 29318,17420 29318,17922 "/>
     <polygon class="fil13" points="26611,18460 26611,17959 29318,16396 29318,16897 "/>
     <polygon class="fil13" points="27552,19879 27552,19377 29812,18073 29812,18574 "/>
     <polygon class="fil13" points="26611,19485 26611,18983 27725,18341 27725,18842 "/>
     <polygon class="fil13" points="27267,25332 27267,25833 26581,26229 26581,25728 "/>
     <polygon class="fil13" points="28515,24612 28515,25113 27829,25509 27829,25007 "/>
     <polygon class="fil13" points="29263,23242 29263,23744 26614,25273 26614,24772 "/>
     <polygon class="fil13" points="27940,21657 27940,21155 29263,20392 29263,20893 "/>
     <polygon class="fil13" points="26581,22441 26581,21940 27267,21544 27267,22046 "/>
     <polygon class="fil13" points="26581,23379 26581,22877 27887,22123 27887,22625 "/>
     <polygon class="fil13" points="28413,22321 28413,21820 29263,21329 29263,21830 "/>
     <polygon class="fil13" points="27940,27494 27940,26993 29263,26229 29263,26730 "/>
     <polygon class="fil13" points="26581,28279 26581,27777 27267,27382 27267,27883 "/>
     <polygon class="fil13" points="26581,29216 26581,28714 27887,27961 27887,28462 "/>
     <polygon class="fil13" points="28413,28158 28413,27657 29263,27166 29263,27667 "/>
     <polygon class="fil13" points="42297,32842 41863,32591 42448,32253 42882,32504 "/>
     <polygon class="fil13" points="43136,31420 42702,31170 43815,30526 44250,30777 "/>
     <polygon class="fil13" points="40655,31828 40221,31577 42928,30014 43362,30265 "/>
     <polygon class="fil13" points="43295,32266 42861,32015 45120,30710 45554,30961 "/>
     <polygon class="fil13" points="41542,32340 41108,32090 42222,31446 42656,31697 "/>
     <path class="fil53" d="M54312 37486c703,-407 1054,-940 1054,-1472 0,-532 -351,-1065 -1054,-1472 -703,-406 -1627,-609 -2551,-609 -920,0 -1843,203 -2547,609 -705,407 -1057,941 -1057,1472 0,533 352,1066 1055,1473 704,406 1627,608 2549,608 922,0 1847,-203 2551,-609zm-2790 -777c-161,92 -321,185 -482,278 -320,-186 -640,-371 -960,-556 -321,-185 -642,-370 -962,-555 159,-92 320,-185 480,-277 321,185 641,370 962,555 321,185 641,370 962,555zm1924 0c-482,278 -962,556 -1444,833 -161,-93 -321,-186 -481,-278 320,-185 641,-370 961,-555 0,0 0,0 0,0 -400,-232 -802,-464 -1201,-695 -400,-231 -801,-462 -1201,-694 159,-92 320,-185 481,-278 480,278 962,556 1442,833 481,278 962,556 1443,834zm-2405 -1944c160,-92 321,-185 482,-278 480,277 962,555 1442,833 481,278 962,555 1443,833 -322,0 -643,0 -964,0 -400,-231 -801,-463 -1201,-694 -401,-231 -801,-463 -1202,-694z"/>
     <polygon class="fil54" points="56529,49222 57360,48743 58321,48188 58321,47376 56150,48629 56072,48584 55986,48534 54663,47770 54577,47721 53839,47295 53177,46913 53177,47572 53177,48529 53177,48628 53177,48709 53177,48782 54276,49419 55195,48890 55283,48941 55368,48990 55777,49226 56150,49441 "/>
     <path class="fil55" d="M66262 51110l-2840 1640 -398 -230 -86 -50 -570 -329 -700 -404 -86 -49 -1165 -673 -158 -91 -86 -50 -577 -333 -739 427 577 333 86 50 157 91 1166 673 85 49 1271 733 85 50 378 218c291,168 534,402 712,680 16,24 30,49 45,73 76,132 139,272 185,420l56 176 551 -321 3028 -1761 -60 -184c-158,-478 -484,-882 -917,-1138z"/>
     <polygon class="fil30" points="63024,52520 62938,52470 62863,52514 62199,52897 62284,52947 62937,52569 "/>
     <polygon class="fil30" points="60259,50924 60174,50874 60099,50918 59434,51301 59520,51351 60173,50973 "/>
     <polygon class="fil30" points="53800,48170 53242,48492 53177,48529 53177,48628 53206,48611 53902,48210 54663,47770 54577,47721 "/>
     <polygon class="fil37" points="50051,49615 50051,49855 50348,49684 50348,49444 "/>
     <polygon class="fil56" points="50348,49395 42762,45015 42444,45199 50051,49615 50348,49444 "/>
    </g>
    <path class="fil37" d="M46228 49863l-525 -303 -527 304 525 304 527 -305zm-2572 -1104l330 -191 -526 -303 -475 274 -52 30 525 304 198 -114zm924 761l527 -304 -160 -93 -366 -211 -135 79 -392 226 526 303z"/>
    <g>
     <polygon class="fil57" points="41215,47578 41743,47273 41217,46970 40690,47274 "/>
     <polygon class="fil57" points="42339,47617 41811,47922 42337,48225 42864,47921 "/>
    </g>
   </g>
   <g>
    <polygon class="fil58" points="17943,60742 17470,60467 17431,46942 17904,47217 "/>
    <polygon class="fil59" points="17904,47217 17431,46942 26301,41821 26774,42096 "/>
    <polygon class="fil60" points="26774,42096 26812,55621 17943,60742 17904,47217 "/>
    <polygon class="fil58" points="18949,61413 18476,61138 18438,47613 18911,47888 "/>
    <polygon class="fil59" points="18911,47888 18438,47613 27308,42493 27781,42767 "/>
    <polygon class="fil60" points="27781,42767 27819,56293 18949,61413 18911,47888 "/>
    <polygon class="fil58" points="19993,62242 19520,61967 19482,48442 19955,48717 "/>
    <polygon class="fil59" points="19955,48717 19482,48442 28351,43322 28824,43597 "/>
    <polygon class="fil26" points="28824,43596 28863,57122 19993,62242 19955,48717 "/>
    <polygon class="fil25" points="28282,50904 28285,51717 20540,56188 20538,55376 "/>
    <polygon class="fil25" points="28273,47440 28275,48253 20530,52724 20528,51912 "/>
    <polygon class="fil61" points="25759,47156 25761,47968 20525,50991 20523,50179 "/>
    <polygon class="fil25" points="28278,49174 28280,49986 20535,54457 20533,53645 "/>
    <polygon class="fil25" points="28292,54370 28294,55183 20550,59654 20547,58842 "/>
    <polygon class="fil25" points="28287,52637 28290,53450 20545,57921 20543,57109 "/>
   </g>
   <polygon class="fil30" points="42585,44913 42585,45118 42762,45015 "/>
   <polygon class="fil30" points="50347,49684 50094,49830 50347,49977 "/>
   <g>
    <path class="fil62" d="M11909 63409c-2387,1378 -2387,3612 0,4990 2387,1378 6257,1378 8644,0 2387,-1378 2387,-3612 0,-4990 -2387,-1379 -6257,-1379 -8644,0z"/>
    <path class="fil63" d="M11909 68399c2387,1378 6257,1378 8644,0l0 0c1185,-684 1780,-1579 1788,-2476l0 0 0 3793c9,909 -587,1820 -1788,2514l0 0c-2387,1378 -6257,1378 -8644,0l0 0c-1202,-694 -1798,-1605 -1789,-2514l0 0 0 -3793c8,897 603,1792 1789,2476l0 0z"/>
    <path class="fil64" d="M16231 63217l-3733 2155c2048,1182 5418,1182 7465,0 2048,-1182 2048,-3128 0,-4310 -1143,-660 -2751,-981 -4357,-871l625 3026z"/>
    <path class="fil18" d="M19963 65372c1019,-588 1530,-1366 1535,-2144l0 2169c5,786 -506,1572 -1535,2166 -2047,1182 -5417,1182 -7465,0l0 -2191c2048,1182 5418,1182 7465,0z"/>
    <path class="fil17" d="M16231 63217l-3733 2155c2048,1182 5418,1182 7465,0 2048,-1182 2048,-3128 0,-4310 -1143,-660 -2751,-981 -4357,-871l625 3026z"/>
    <path class="fil65" d="M16231 60986l-625 -3026c-1175,81 -2270,388 -3108,871 -2047,1183 -2047,3128 0,4310l3733 -2155z"/>
    <polygon class="fil9" points="16231,60986 16231,63217 12498,65372 12498,63141 "/>
    <path class="fil66" d="M10964 65386l0 -4378c9,775 520,1548 1534,2133l0 2231 0 2191c-1033,-597 -1544,-1388 -1534,-2177z"/>
   </g>
   <g>
    <polygon class="fil67" points="40194,59996 40195,59995 40171,59981 40170,59982 "/>
    <polygon class="fil67" points="39987,59875 39986,59876 40011,59891 40012,59890 "/>
    <polygon class="fil67" points="39986,59876 39987,59875 39950,59854 39949,59855 "/>
    <polygon class="fil68" points="40143,59965 40142,59966 40170,59982 40171,59981 "/>
    <polygon class="fil69" points="40142,59966 40143,59965 40091,59935 40090,59936 "/>
    <polygon class="fil69" points="40090,59936 40091,59935 40039,59905 40038,59906 "/>
    <polygon class="fil69" points="40038,59906 40039,59905 40012,59890 40011,59891 "/>
    <polygon class="fil70" points="40175,59979 40016,59888 40117,59830 40276,59921 "/>
    <polygon class="fil70" points="40171,59981 40012,59890 40016,59888 40175,59979 "/>
    <polygon class="fil5" points="35929,59884 37703,58862 37811,58924 37954,58843 37845,58780 38089,58640 39021,58573 40685,59532 40150,59840 40063,59790 39416,60162 39504,60213 38002,61078 "/>
    <polygon class="fil71" points="37954,58843 37845,58780 37845,58906 "/>
    <polygon class="fil71" points="35929,59884 38002,61078 38002,61272 35929,60078 "/>
    <path class="fil72" d="M40685 59720l0 -188 -535 308 0 187 535 -307zm-2683 1552l1502 -868 0 -191 -1502 865 0 194z"/>
    <polygon class="fil71" points="40063,59790 40063,59975 40150,60027 40150,59840 "/>
    <polygon class="fil72" points="40063,59790 40063,59975 39503,60298 39504,60213 39416,60162 "/>
    <polygon class="fil1" points="38262,59020 38706,58765 38547,58673 38103,58929 "/>
    <polygon class="fil1" points="38735,59024 39179,58768 39020,58677 38576,58932 "/>
    <polygon class="fil1" points="38954,59152 39398,58896 39240,58805 38796,59060 "/>
    <polygon class="fil1" points="39174,59280 39618,59024 39459,58933 39015,59188 "/>
    <polygon class="fil1" points="39393,59408 39837,59152 39679,59061 39235,59316 "/>
    <polygon class="fil1" points="39613,59536 40056,59280 39898,59189 39454,59444 "/>
    <polygon class="fil1" points="39832,59664 40276,59408 40117,59317 39673,59573 "/>
   </g>
   <g>
    <path class="fil61" d="M59619 24253l0 2211c0,345 183,664 481,839l8925 5236 0 -1861 -9406 -6425z"/>
    <path class="fil7" d="M73210 28260l-4185 2418 -8608 -4970c-1063,-613 -1063,-2147 -1,-2761l0 0c1111,-642 2480,-642 3591,0l9203 5313z"/>
    <polygon class="fil18" points="73210,28260 73210,30120 69025,32539 69025,30678 "/>
    <polygon class="fil11" points="69822,30621 71775,31750 71775,32970 69822,31840 "/>
    <polygon class="fil12" points="69822,30621 72383,29143 74327,30274 71775,31750 "/>
    <polygon class="fil13" points="74327,30274 74327,31496 71775,32970 71775,31750 "/>
    <polygon class="fil14" points="74198,30487 74198,31407 71901,32734 71901,31813 "/>
    <polygon class="fil15" points="74198,31407 73396,30950 74198,30487 "/>
    <polygon class="fil16" points="74198,31407 74198,30947 71901,32271 71901,32734 "/>
    <polygon class="fil11" points="74198,30947 73803,30715 71901,31813 71901,32271 "/>
    <polygon class="fil11" points="72070,30852 71528,30537 70987,30854 71530,31167 "/>
    <polygon class="fil9" points="71957,30918 72070,30852 71528,30537 70987,30853 71102,30918 71528,30672 "/>
    <polygon class="fil11" points="73315,30131 72772,29816 72232,30133 72775,30446 "/>
    <polygon class="fil9" points="73201,30197 73315,30131 72772,29816 72232,30132 72347,30197 72773,29951 "/>
    <polygon class="fil50" points="66383,24319 65398,23750 61209,26170 62197,26736 "/>
    <polygon class="fil73" points="62197,26736 61210,26170 61210,27954 62197,28533 "/>
   </g>
  </g>
 </g>
</svg>
