<?xml version="1.0" encoding="UTF-8"?>
<!DOCTYPE svg PUBLIC "-//W3C//DTD SVG 1.1//EN" "http://www.w3.org/Graphics/SVG/1.1/DTD/svg11.dtd">
<!-- Creator: CorelDRAW X7 -->
<svg xmlns="http://www.w3.org/2000/svg" xml:space="preserve" width="27.1654in" height="12.7424in" version="1.1" style="shape-rendering:geometricPrecision; text-rendering:geometricPrecision; image-rendering:optimizeQuality; fill-rule:evenodd; clip-rule:evenodd"
viewBox="0 0 271654 127424"
 xmlns:xlink="http://www.w3.org/1999/xlink">
 <defs>
  <style type="text/css">
   <![CDATA[
    .fil6 {fill:#7ECDC5}
    .fil8 {fill:#D2AE6D}
    .fil5 {fill:#DFC495}
    .fil12 {fill:#E2CAA0}
    .fil4 {fill:#E8D5B3}
    .fil11 {fill:#E9D6B3}
    .fil10 {fill:#ECDFC7}
    .fil7 {fill:#EDDEC2}
    .fil2 {fill:#F0E5D2}
    .fil3 {fill:#F2E6D3}
    .fil13 {fill:#F3E9D7}
    .fil1 {fill:#F7F1E5}
    .fil0 {fill:#FBF7F0}
    .fil9 {fill:white}
   ]]>
  </style>
 </defs>
 <g id="Layer_x0020_1">
  <metadata id="CorelCorpID_0Corel-Layer"/>
  <g id="_1507302457792">
   <path class="fil0" d="M0 127424l0 -116228c25302,27878 62496,14485 87708,2520 23839,-11314 46758,-8700 69886,3960 17793,9739 25714,7836 34833,613 30968,-24530 52545,-27625 79227,10879l0 98256 -271654 0z"/>
   <g>
    <g>
     <path class="fil1" d="M109959 80413c0,-16951 -13742,-30693 -30693,-30693 -16951,0 -30693,13742 -30693,30693 0,16951 13742,30693 30693,30693 16951,0 30693,-13742 30693,-30693z"/>
     <path class="fil2" d="M100525 102540l0 -14749 -5 0 0 -36c-19,-76 -1870,-1611 -3294,-2777l0 -645 1723 -445c270,-69 546,-103 820,-103 445,-1 886,90 1295,267 299,129 610,252 920,352l0 1348c1424,1165 2327,1928 2344,2004l0 35 6 0 0 10319c-1131,1599 -2403,3076 -3809,4430z"/>
     <polygon class="fil3" points="35583,41034 44590,62166 51173,57663 54988,63207 55676,53856 63643,49001 "/>
     <polygon class="fil4" points="52632,56663 44590,62166 51173,57663 54988,63207 55676,53856 42981,46295 "/>
     <polygon class="fil5" points="55507,56148 42981,46295 55676,53856 "/>
     <path class="fil5" d="M55149 65842c-71,-411 -161,-822 -268,-1221l618 -165c112,417 206,847 280,1277l-630 109z"/>
     <path class="fil5" d="M55758 70961l-630 -112c147,-826 223,-1668 227,-2503l640 3c-5,871 -84,1750 -237,2612zm-4377 377c-726,-163 -1472,-246 -2216,-246l-259 4 -16 -640c881,-21 1769,65 2631,258l-140 624zm-7043 1248l-447 -457c563,-551 1332,-964 2353,-1262l215 603c-940,275 -1641,647 -2121,1116zm11496 961c-588,-428 -1220,-877 -1904,-1252l-214 -113 293 -568c77,39 152,79 228,120 717,393 1395,876 1974,1297l-377 516zm27462 843l-197 -608c813,-263 1622,-539 2426,-825l213 603c-808,287 -1623,565 -2442,830zm-4968 1416l-150 -621c799,-195 1632,-415 2473,-655l176 615c-850,243 -1690,465 -2499,661zm-24347 71l-554 -319c414,-720 769,-1487 1054,-2279l602 216c-299,828 -669,1629 -1102,2382zm6381 254c-752,-255 -1456,-568 -2095,-928 -100,-56 -199,-115 -298,-174l330 -548c93,57 187,112 282,165 604,341 1272,637 1986,880l-205 605zm12885 647l-86 -634c822,-112 1670,-252 2519,-415l121 627c-860,167 -1720,309 -2554,422zm-7760 291l-408 -32c-786,-66 -1498,-154 -2177,-272l109 -630c660,115 1354,201 2121,265l400 30 -45 639zm2594 84l-3 -640c832,-4 1690,-38 2547,-101l46 637c-871,65 -1743,100 -2590,104zm-24737 146c-361,-731 -551,-1534 -551,-2324 0,-64 1,-129 4,-194l8 -138 637 46 -6 117c-2,58 -4,113 -4,169 0,692 167,1397 485,2041l-573 283zm7003 2376l-282 -573c665,-328 1308,-834 1912,-1507l476 428c-659,733 -1368,1290 -2106,1652zm-2656 522c-928,-62 -1816,-358 -2568,-857l354 -532c659,436 1439,696 2257,751l-43 638z"/>
     <path class="fil6" d="M88186 72658l-227 -598c397,-151 795,-305 1192,-460l233 596c-399,155 -798,310 -1198,462z"/>
     <path class="fil7" d="M108314 88240c-325,0 -604,-247 -636,-578 -34,-351 223,-663 574,-697 3865,-374 7419,-2219 10010,-5194 232,-267 636,-294 902,-62 266,231 294,636 62,902 -2806,3222 -6659,5220 -10850,5627l-62 2z"/>
     <path class="fil8" d="M100521 87791l-22274 13136 -22273 -13136 3 -36c19,-83 1248,-1110 3123,-2633l50 -43c6151,-4994 19097,-15220 19097,-15220 0,0 12947,10226 19098,15220 1904,1544 3155,2590 3173,2676l3 36z"/>
     <path class="fil9" d="M87408 58980l-24032 0c-2061,0 -3733,1671 -3733,3733l0 36336c0,2061 1672,3732 3733,3732l30113 0c2061,0 3732,-1671 3732,-3732l0 -30255 -9813 -9814z"/>
     <path class="fil10" d="M87408 65061c0,2061 1671,3733 3732,3733l6081 0 -9813 -9814 0 6081z"/>
     <path class="fil11" d="M100524 87791l0 21369c0,1494 -1221,2714 -2715,2714l-39126 0c-1493,0 -2707,-1220 -2707,-2714l0 -21369 22274 13132 22274 -13132z"/>
     <path class="fil12" d="M99771 111024l-14336 -14337 -7185 4236 -7188 -4237 -14337 14336c494,522 1186,852 1958,852l39126 0c772,0 1467,-330 1962,-850z"/>
     <path class="fil11" d="M105023 58456c-6412,630 -11535,5915 -11993,12341 -228,3198 678,6169 2347,8573 629,905 732,2075 309,3093l-1057 2545 4322 -1120c704,-183 1448,-126 2116,164 2003,869 4260,1265 6631,1035 6294,-609 11386,-5691 11994,-11985 816,-8443 -6224,-15475 -14669,-14646z"/>
     <path class="fil12" d="M106015 58399c4766,1427 8243,5841 8243,11072 0,6385 -5176,11562 -11562,11562 -3364,0 -6382,-1446 -8495,-3739 333,728 723,1424 1176,2076 629,905 732,2075 309,3093l-1057 2545 4322 -1120c704,-183 1448,-126 2116,164 2003,869 4260,1265 6631,1035 6294,-609 11386,-5691 11994,-11985 784,-8110 -5680,-14912 -13677,-14703z"/>
     <path class="fil13" d="M36346 47300l2922 6704c148,343 -9,740 -351,887l-104 45c-344,148 -743,-11 -888,-357l-2817 -6749c-149,-353 27,-760 387,-893 336,-124 709,36 851,363z"/>
     <path class="fil5" d="M78800 84575l0 -2205 -734 0 0 2205 734 0zm4447 6224l-4683 -4002 -9760 0 0 -14061 19257 0 0 14061 -4814 0 0 4002zm734 -3266l4814 0 0 -15544 -20725 0 0 15544 10231 0 5680 4880 0 -4880zm-5915 -6645l734 0 0 -5928 -734 0 0 5928z"/>
     <path class="fil9" d="M101216 74727l280 288 1835 -1828 -288 -287 -1827 1827zm11801 -5742l-9427 9427c-1245,-1252 -2490,-2497 -3742,-3742l3131 -3130 1813 1813 3166 -3166 -1813 -1813 3130 -3131c1245,1245 2497,2497 3742,3742zm-3742 -3166l-2555 2555 1806 1813 -3734 3734 -1813 -1806 -2555 2555c1058,1058 2108,2108 3166,3166l8851 -8851c-1058,-1058 -2108,-2108 -3166,-3166l0 0zm-1770 2619l287 281 1828 -1828 -288 -280 -1827 1827z"/>
    </g>
    <path class="fil10" d="M105962 107883c2047,66 3688,1746 3700,3827l33 0c17,-2081 1658,-3761 3699,-3827 -2053,-67 -3699,-1764 -3699,-3855l-28 0c0,2091 -1646,3788 -3705,3855z"/>
    <path class="fil10" d="M34165 36388c-1019,33 -1837,870 -1842,1906l-17 0c-8,-1036 -826,-1873 -1843,-1906 1023,-33 1843,-879 1843,-1921l14 0c0,1042 820,1888 1845,1921z"/>
   </g>
  </g>
 </g>
</svg>
