<?xml version="1.0" encoding="UTF-8"?>
<!DOCTYPE svg PUBLIC "-//W3C//DTD SVG 1.1//EN" "http://www.w3.org/Graphics/SVG/1.1/DTD/svg11.dtd">
<!-- Creator: CorelDRAW X7 -->
<svg xmlns="http://www.w3.org/2000/svg" xml:space="preserve" width="3.4111in" height="1.07992in" version="1.1" style="shape-rendering:geometricPrecision; text-rendering:geometricPrecision; image-rendering:optimizeQuality; fill-rule:evenodd; clip-rule:evenodd"
viewBox="0 0 34111 10799"
 xmlns:xlink="http://www.w3.org/1999/xlink">
 <defs>
  <style type="text/css">
   <![CDATA[
    .fil1 {fill:#D2AE6D}
    .fil2 {fill:#F2ECE1}
    .fil0 {fill:white}
    .fil3 {fill:#D2AE6D;fill-rule:nonzero}
   ]]>
  </style>
 </defs>
 <g id="Layer_x0020_1">
  <metadata id="CorelCorpID_0Corel-Layer"/>
  <g id="_2623635988608">
   <path class="fil0" d="M5399 0l23313 0c2969,0 5399,2430 5399,5399 0,2970 -2430,5400 -5399,5400l-23313 0c-2969,0 -5399,-2430 -5399,-5399 0,-2970 2429,-5400 5399,-5400z"/>
   <path class="fil1" d="M5399 0l23313 0c2969,0 5399,2430 5399,5399 0,2970 -2430,5400 -5399,5400l-23313 0c-2969,0 -5399,-2430 -5399,-5399 0,-2970 2429,-5400 5399,-5400zm23313 266l-23313 0c-2823,0 -5133,2311 -5133,5134 0,1411 577,2695 1508,3625 931,931 2214,1509 3625,1509l23313 0c2823,0 5133,-2311 5133,-5135 0,-1411 -577,-2694 -1508,-3626 -931,-930 -2214,-1507 -3625,-1507l0 0z"/>
   <g>
    <polygon class="fil2" points="23087,1563 22775,1563 22775,9236 23087,9236 "/>
    <polygon class="fil1" points="22618,1563 22775,1563 22775,9236 22618,9236 "/>
   </g>
   <path class="fil3" d="M28678 7872l-239 0 0 -597c-173,-52 -330,-133 -455,-245 -110,-97 -198,-215 -258,-356 -55,-131 -87,-280 -87,-446l240 0c0,59 5,118 15,170 10,66 29,126 52,184 45,106 113,196 195,268 63,55 135,102 215,138 25,13 53,25 83,35l0 -1569c-151,-43 -298,-100 -430,-182 -77,-48 -144,-105 -199,-171 -135,-156 -201,-354 -207,-554 -4,-197 48,-398 156,-570 52,-85 118,-164 196,-230 133,-114 301,-194 483,-241l0 -581 239 0 0 4947 0 0 1 0zm378 -4947l239 0 0 595c177,53 338,133 468,244 117,101 211,224 275,370 59,138 93,293 93,468l-240 0c0,-86 -10,-166 -27,-238 -11,-48 -25,-93 -45,-135 -49,-112 -122,-206 -212,-284 -49,-42 -102,-78 -161,-108 -47,-27 -99,-48 -152,-67l0 1641c150,42 288,97 415,175 57,35 110,75 155,120 48,48 90,100 126,159 106,184 132,409 92,621 -41,216 -151,422 -312,562 -132,116 -297,195 -476,242l0 582 -239 0 0 -4947 0 0 1 0zm-617 2279l0 -1451c-125,38 -238,97 -330,175 -57,50 -107,110 -149,174 -82,132 -123,289 -118,439 3,148 51,293 149,406 40,47 88,88 145,123 90,57 194,100 303,134l0 0 0 0zm860 1838c119,-40 227,-97 315,-173 120,-105 203,-260 235,-427 29,-158 12,-324 -65,-457 -25,-40 -53,-76 -85,-108 -33,-31 -73,-62 -115,-89 -77,-46 -162,-84 -250,-114 -13,-5 -26,-9 -40,-13l0 1382 5 -1 0 0zm-433 -5462c1022,0 1980,398 2700,1120 723,720 1118,1680 1118,2699 0,1020 -395,1979 -1118,2701 -720,720 -1678,1118 -2700,1118 -1020,0 -1978,-398 -2700,-1118 -720,-722 -1117,-1681 -1117,-2701 0,-1019 397,-1979 1117,-2699 722,-722 1680,-1120 2700,-1120zm-2532 6350c677,677 1577,1048 2532,1048 957,0 1856,-371 2531,-1048 677,-676 1050,-1575 1050,-2531 0,-957 -373,-1854 -1050,-2531 -676,-675 -1574,-1049 -2531,-1049 -955,0 -1855,374 -2532,1049 -676,677 -1048,1574 -1048,2531 0,956 373,1855 1048,2531z"/>
   <path class="fil3" d="M6504 6269c-111,0 -206,-7 -286,-21 -79,-13 -147,-34 -201,-60 -55,-27 -98,-62 -132,-103 -33,-42 -57,-90 -75,-145 -16,-56 -28,-119 -34,-189 -4,-70 -8,-147 -8,-233l0 -1435 378 0 0 1435c0,81 2,146 8,194 6,48 20,87 44,114 24,25 60,44 107,52 49,8 114,13 199,13l0 378 0 0 0 0zm589 -378c21,0 37,5 47,15 11,12 15,26 15,42l0 260c0,22 -4,37 -15,47 -10,9 -26,14 -47,14l-632 0c-22,0 -38,-5 -48,-14 -9,-10 -14,-25 -14,-47l0 -260c0,-16 5,-30 14,-42 10,-10 26,-15 48,-15l632 0zm628 0c20,0 36,5 47,15 10,12 15,26 15,42l0 260c0,22 -5,37 -15,47 -11,9 -27,14 -47,14l-633 0c-23,0 -39,-5 -47,-14 -10,-10 -14,-25 -14,-47l0 -260c0,-16 4,-30 14,-42 8,-10 24,-15 47,-15l633 0zm1431 -1278c66,86 132,175 200,264 29,37 59,77 90,119 32,42 64,83 98,126 33,43 65,86 96,129 31,42 62,82 90,120 63,84 104,175 123,276 19,99 10,197 -22,296 -20,60 -49,116 -89,167 -39,50 -85,93 -142,129 -56,38 -119,65 -191,86 -71,20 -150,30 -236,30 -73,0 -147,-8 -226,-22 -78,-15 -156,-42 -237,-83 -19,-7 -36,-17 -54,-24 -15,-7 -30,-15 -46,-22 -17,-8 -30,-15 -41,-21 -97,29 -205,52 -322,65 -118,14 -249,21 -390,21l-172 0 0 -378 172 0c28,0 53,0 75,1 22,0 42,1 62,1 20,0 38,-1 59,-2 19,-1 41,-3 66,-6 -27,-30 -51,-59 -70,-89 -21,-28 -39,-58 -54,-91 -14,-31 -26,-65 -33,-101 -8,-36 -12,-75 -12,-118 0,-83 16,-159 48,-229 32,-71 76,-130 132,-179 56,-50 122,-88 197,-116 76,-28 156,-42 243,-42 98,0 184,20 262,58 76,39 140,88 192,148 52,58 92,122 118,190 27,70 40,133 40,193 0,48 -5,92 -14,133 -9,40 -23,79 -41,114 -16,36 -37,70 -63,103 -26,32 -54,65 -84,95 30,10 63,20 96,29 34,9 65,13 97,13 31,0 64,-2 99,-7 34,-5 67,-15 97,-28 30,-14 59,-34 82,-57 24,-24 42,-55 54,-95 11,-38 7,-83 -13,-135 -20,-52 -50,-110 -94,-177 -43,-65 -96,-137 -160,-217 -64,-79 -133,-166 -209,-259l-158 -196 285 -213 0 0 0 1zm-848 873c0,37 6,70 18,99 11,28 29,55 52,79 25,24 54,48 88,71 35,22 76,46 122,71 32,-14 62,-32 92,-52 29,-18 53,-39 76,-64 22,-23 39,-50 52,-79 13,-30 20,-62 20,-97 0,-42 -9,-80 -28,-113 -18,-31 -40,-58 -67,-80 -25,-21 -53,-36 -84,-47 -29,-9 -56,-14 -79,-14 -34,0 -67,5 -98,18 -33,11 -61,29 -86,49 -23,21 -43,44 -57,72 -14,27 -21,56 -21,87l0 0 0 0zm3610 783l-42 0c-79,0 -155,-7 -227,-23 -74,-14 -140,-36 -202,-66 -62,-29 -116,-68 -165,-115 -47,-45 -86,-101 -117,-165 -24,38 -55,71 -93,100 -38,29 -79,52 -123,71 -44,20 -91,34 -138,43 -48,10 -93,16 -137,16 -80,0 -157,-15 -229,-43 -72,-29 -135,-69 -190,-121 -55,-52 -98,-116 -130,-189 -31,-75 -48,-161 -48,-254 0,-109 21,-205 63,-287 41,-83 96,-156 165,-218 69,-62 147,-115 237,-160 89,-43 182,-82 277,-113l-35 -146 370 -87 275 1073c17,65 42,118 79,159 36,40 76,70 119,92 43,21 86,36 132,43 44,9 84,12 117,12l42 0 0 378 0 0 0 0zm-933 -754c6,-27 8,-56 6,-85 -2,-29 -6,-59 -14,-92 -7,-32 -16,-67 -28,-105 -12,-37 -23,-79 -36,-125 -161,52 -285,110 -368,175 -83,65 -125,145 -125,241 0,38 8,71 25,101 17,29 38,53 65,72 28,19 57,33 90,42 32,8 65,10 99,5 75,-11 139,-33 189,-67 50,-34 83,-87 97,-162l0 0 0 0zm850 754l0 -378 618 0c84,0 155,-5 214,-14 57,-9 104,-22 139,-37 36,-15 64,-33 82,-51 18,-18 31,-38 39,-57 -134,18 -256,20 -362,6 -107,-15 -199,-46 -273,-91 -74,-46 -131,-108 -172,-185 -40,-76 -60,-168 -60,-275 0,-85 15,-165 47,-240 32,-76 76,-141 132,-198 56,-56 122,-99 198,-130 76,-33 160,-47 251,-43 80,3 152,17 214,43 62,24 117,58 162,100 46,41 84,89 115,144 31,55 56,114 74,179 19,63 33,129 41,198 9,69 14,139 14,208l-5 112c-9,143 -37,259 -85,350 -49,91 -112,163 -189,217 -77,53 -165,90 -264,110 -99,21 -203,32 -312,32l-618 0 0 0 0 0zm849 -1315c-36,-4 -71,-1 -105,8 -35,8 -65,22 -90,42 -27,21 -47,46 -63,76 -15,29 -23,64 -23,104 0,88 46,151 139,189 92,39 225,45 398,17 -1,-43 -4,-90 -10,-138 -5,-48 -15,-94 -33,-137 -18,-42 -43,-78 -76,-108 -34,-30 -79,-47 -137,-53l0 0 0 0zm-319 -963l273 -275 279 279 -277 275 -275 -279 0 0zm2351 2278l-57 0c-42,0 -80,-3 -117,-9 -37,-4 -73,-18 -108,-42 -13,130 -42,249 -90,354 -48,107 -111,198 -191,273 -78,76 -174,133 -284,175 -110,41 -233,62 -370,62l-190 0 0 -378 190 0c96,0 180,-9 251,-30 70,-20 129,-52 174,-97 46,-44 80,-102 102,-173 22,-71 33,-158 33,-260l0 -922 377 0 0 453c0,46 11,84 29,112 21,28 43,50 69,66 26,15 50,25 75,31 25,5 41,7 50,7l58 0 0 378 -1 0 0 0zm1746 0l-572 0c-20,0 -41,-3 -65,-6 -23,-5 -50,-13 -80,-25 -31,-11 -66,-29 -105,-52 -40,-24 -86,-54 -137,-93 -61,28 -130,54 -207,76 -77,21 -160,40 -248,54 -87,15 -180,27 -277,34 -96,8 -194,12 -292,12l0 -378c68,0 135,-1 200,-5 65,-2 127,-7 187,-12 60,-6 114,-13 165,-21 51,-9 97,-19 138,-30 -87,-76 -164,-142 -233,-201 -70,-58 -124,-107 -164,-147l-42 -43 0 -82c0,-21 2,-44 4,-70 1,-26 6,-53 14,-81 7,-27 17,-55 31,-83 12,-28 31,-55 54,-80 43,-49 97,-86 160,-109 63,-24 141,-36 233,-36l530 0c46,0 90,7 134,19 44,11 85,29 122,51 38,22 70,49 101,81 30,31 54,67 70,107 12,26 20,55 27,88 6,33 9,62 9,87 0,25 -5,51 -15,76 -9,26 -29,59 -57,99 -28,38 -68,86 -120,143 -50,58 -116,129 -197,216 9,5 21,10 35,13 14,3 28,6 43,9 13,3 26,4 38,7 11,2 18,3 22,4l1 0 493 0 0 378 0 0 0 0zm-1266 -1026c-31,0 -55,2 -73,8 -17,4 -30,9 -38,13l433 437c34,-30 70,-61 109,-95 38,-35 75,-71 108,-106 34,-37 62,-70 86,-104 22,-34 35,-65 37,-91 0,-16 -7,-30 -22,-43 -15,-12 -34,-19 -57,-19l-583 0 0 0zm2337 -247c2,7 7,23 13,50 7,26 14,59 22,96 8,38 16,80 24,126 10,47 18,94 25,141 7,45 14,92 19,135 4,46 7,85 7,117 0,105 -18,195 -53,271 -34,76 -80,139 -134,188 -57,49 -118,87 -187,111 -69,24 -140,37 -208,37l-654 0 0 -378 664 0c12,0 29,-1 53,-6 22,-2 45,-13 67,-27 23,-15 43,-38 60,-69 18,-31 26,-73 26,-127 0,-22 -3,-49 -5,-81 -3,-31 -9,-66 -15,-102 -6,-35 -13,-73 -20,-111 -8,-38 -15,-74 -22,-108 -7,-34 -14,-64 -21,-92 -7,-28 -13,-49 -17,-65l356 -107 0 0 0 1zm-150 -296l-255 -257 252 -260 260 260 -257 257zm-634 2l-255 -258 250 -260 261 260 -256 258z"/>
  </g>
 </g>
</svg>
