<?xml version="1.0" encoding="UTF-8"?>
<!DOCTYPE svg PUBLIC "-//W3C//DTD SVG 1.1//EN" "http://www.w3.org/Graphics/SVG/1.1/DTD/svg11.dtd">
<!-- Creator: CorelDRAW X7 -->
<svg xmlns="http://www.w3.org/2000/svg" xml:space="preserve" width="15.7602in" height="18.9588in" version="1.1" style="shape-rendering:geometricPrecision; text-rendering:geometricPrecision; image-rendering:optimizeQuality; fill-rule:evenodd; clip-rule:evenodd"
viewBox="0 0 157602 189588"
 xmlns:xlink="http://www.w3.org/1999/xlink">
 <defs>
  <style type="text/css">
   <![CDATA[
    .fil0 {fill:#F7F2E6}
   ]]>
  </style>
 </defs>
 <g id="Layer_x0020_1">
  <metadata id="CorelCorpID_0Corel-Layer"/>
  <path class="fil0" d="M86327 142374l-82414 -47580 35846 -20695 45915 26508c415,238 906,223 1294,3l1 2 46714 -26537 23919 13568 0 -3004 -21274 -12067 21274 -12085 0 -3005 -71275 40490 -82414 -47581 82415 -47581 71274 40430 0 -3003 -70633 -40067c-441,-250 -966,-216 -1363,44l-84951 49046c-625,359 -840,1157 -481,1781 121,212 294,377 493,488l36483 21063 -36495 21071c-625,359 -840,1156 -481,1781 121,212 294,376 493,488l36481 21062 -36493 21069c-625,359 -840,1156 -481,1781 118,206 285,367 477,478l-1 3 85019 49087c431,249 945,225 1341,-19l70592 -40104 0 -3004 -71272 40490 -82414 -47583 35841 -20692 45917 26510c415,238 906,223 1294,3l1 2 46716 -26539 23917 13567 0 -3004 -21271 -12066 21271 -12084 0 -3004 -71275 40489z"/>
 </g>
</svg>
