<?xml version="1.0" encoding="UTF-8"?>
<!DOCTYPE svg PUBLIC "-//W3C//DTD SVG 1.1//EN" "http://www.w3.org/Graphics/SVG/1.1/DTD/svg11.dtd">
<!-- Creator: CorelDRAW X7 -->
<svg xmlns="http://www.w3.org/2000/svg" xml:space="preserve" width="11.5046in" height="14.5635in" version="1.1" style="shape-rendering:geometricPrecision; text-rendering:geometricPrecision; image-rendering:optimizeQuality; fill-rule:evenodd; clip-rule:evenodd"
viewBox="0 0 115046 145635"
 xmlns:xlink="http://www.w3.org/1999/xlink">
 <defs>
  <style type="text/css">
   <![CDATA[
    .fil0 {fill:#F7F2E6;fill-rule:nonzero}
   ]]>
  </style>
 </defs>
 <g id="Layer_x0020_1">
  <metadata id="CorelCorpID_0Corel-Layer"/>
  <path class="fil0" d="M115046 132317l-86856 10617c-6745,824 -12147,-4787 -12931,-11202l-12539 -102580c-784,-6415 3108,-13162 9852,-13986l102474 -12526 0 -2640 -102792 12565c-8185,1000 -13095,9053 -12135,16905l12539 102580c960,7853 7664,14485 15850,13485l86538 -10578 0 -2640zm0 -93724l-4366 534 -2038 -16676 6404 -783 0 -2640 -92374 11291 8612 70456 15111 -1847 1731 14161 15107 -1847 1327 10858 50486 -6171 0 -2640 -48203 5892 -1327 -10858 -15107 1847 -1731 -14161 -15111 1847 -7976 -65254 18162 -2220 2356 19277 12127 -1482 -2357 -19277 8636 -1056 2357 19277 12127 -1482 -2357 -19277 8636 -1056 2356 19278 12127 -1483 -2356 -19277 8636 -1055 2356 19277 6649 -813 0 -2640zm-18204 2225l-6925 847 -2038 -16677 6925 -846 2038 16676zm-20763 2538l-6924 846 -2039 -16676 6925 -846 2038 16676zm-20762 2538l-6925 846 -2038 -16676 6924 -846 2039 16676z"/>
 </g>
</svg>
