<?xml version="1.0" encoding="UTF-8"?>
<!DOCTYPE svg PUBLIC "-//W3C//DTD SVG 1.1//EN" "http://www.w3.org/Graphics/SVG/1.1/DTD/svg11.dtd">
<!-- Creator: CorelDRAW X7 -->
<svg xmlns="http://www.w3.org/2000/svg" xml:space="preserve" width="4.01622in" height="1.07988in" version="1.1" style="shape-rendering:geometricPrecision; text-rendering:geometricPrecision; image-rendering:optimizeQuality; fill-rule:evenodd; clip-rule:evenodd"
viewBox="0 0 40162 10799"
 xmlns:xlink="http://www.w3.org/1999/xlink">
 <defs>
  <style type="text/css">
   <![CDATA[
    .fil1 {fill:#7C94CA}
    .fil2 {fill:#DBE2F1}
    .fil0 {fill:white}
    .fil3 {fill:#7C94CA;fill-rule:nonzero}
   ]]>
  </style>
 </defs>
 <g id="Layer_x0020_1">
  <metadata id="CorelCorpID_0Corel-Layer"/>
  <g id="_1909849157136">
   <path class="fil0" d="M5400 0l29362 0c2971,0 5400,2430 5400,5399l0 1c0,2970 -2429,5399 -5400,5399l-29362 0c-2970,0 -5400,-2429 -5400,-5399l0 -1c0,-2969 2430,-5399 5400,-5399z"/>
   <path class="fil1" d="M5400 0l29362 0c2971,0 5400,2430 5400,5399l0 1c0,2970 -2429,5399 -5400,5399l-29362 0c-2970,0 -5400,-2429 -5400,-5399l0 -1c0,-2969 2430,-5399 5400,-5399zm42 239l29278 0c2839,0 5161,2322 5161,5161l0 0c0,2838 -2322,5160 -5161,5160l-29278 0c-2838,0 -5161,-2322 -5161,-5160l0 0c0,-2839 2323,-5161 5161,-5161z"/>
   <rect class="fil2" x="28827" y="1563" width="313" height="7674"/>
   <rect class="fil1" x="28670" y="1563" width="156" height="7674"/>
   <path class="fil1" d="M31100 5400c0,-1021 396,-1980 1118,-2702 722,-721 1680,-1118 2701,-1117 1020,0 1978,396 2700,1118 722,721 1118,1680 1118,2701 0,1020 -396,1980 -1118,2700 -722,722 -1680,1119 -2700,1119 -1021,1 -1979,-397 -2701,-1117 -722,-722 -1118,-1682 -1118,-2702zm5917 -1050l-3149 3148 -1047 -1047 821 -821 670 670 1507 -1507 -670 -670 821 -821 522 525 525 523zm-1532 -227l169 168 484 -484 -169 -168 -484 484zm-2327 2328l168 168 484 -484 -168 -168 -484 484zm4195 -2102l-3485 3485 -1383 -1383 1157 -1157 670 670 1171 -1171 -671 -670 1157 -1157c461,463 921,923 1384,1383zm1146 1051c0,-957 -372,-1856 -1048,-2533 -677,-675 -1575,-1048 -2532,-1048 -958,0 -1856,373 -2532,1048 -677,677 -1049,1576 -1049,2533 0,957 372,1856 1049,2532 676,676 1574,1049 2532,1049 957,0 1855,-373 2532,-1049 676,-676 1048,-1575 1048,-2532z"/>
   <path class="fil3" d="M6917 6370l-123 0c-134,0 -262,-59 -385,-178 -33,40 -72,72 -119,98 -46,26 -95,46 -147,61 -53,15 -106,26 -160,32 -54,6 -106,9 -155,9 -39,0 -78,-2 -117,-6 -39,-5 -84,-12 -134,-23 -50,-11 -108,-25 -172,-43 -65,-18 -142,-40 -232,-67l109 -362c62,24 126,45 191,64 66,19 130,34 192,46 63,11 123,19 181,23 57,3 109,2 154,-4 46,-6 84,-18 116,-34 32,-17 53,-40 64,-68 5,-12 8,-23 8,-32 0,-10 -3,-21 -8,-35 -6,-12 -15,-29 -27,-47 -12,-19 -28,-43 -46,-74l-538 -756 318 -204 541 819c29,45 60,91 92,138 32,48 65,91 97,130 32,39 63,70 94,96 30,25 58,38 83,38l123 0 0 379zm2570 -378l77 0 70 0 454 0c62,0 111,-6 148,-17 37,-11 64,-26 83,-43 19,-17 31,-37 37,-58 6,-21 8,-42 8,-62l0 -491 376 0 0 480c0,46 10,81 30,107 20,26 43,45 69,58 26,13 51,20 76,23 26,2 43,3 52,3l225 0 0 378 -225 0c-86,0 -164,-12 -235,-35 -70,-24 -130,-58 -179,-103 -56,47 -123,82 -200,104 -78,23 -166,34 -265,34l-454 0 -70 0 -77 0 -16 0 -42 0c-41,0 -80,-3 -117,-8 -37,-5 -73,-19 -108,-42 -12,130 -42,248 -90,354 -47,106 -111,197 -190,272 -79,75 -174,134 -284,175 -110,41 -234,62 -371,62l-190 0 0 -377 190 0c96,0 180,-10 251,-30 71,-21 129,-53 174,-97 46,-45 80,-103 102,-174 22,-71 33,-158 33,-260l0 -923 378 0 0 454c0,46 10,84 29,112 20,28 43,50 68,66 26,15 51,26 75,31 25,5 41,7 50,7l42 0 16 0zm-1511 -895c2,7 7,24 13,50 6,26 14,58 22,96 8,38 17,80 25,127 9,46 17,93 24,140 8,47 14,92 19,137 4,44 6,83 6,117 0,103 -17,194 -51,270 -35,76 -80,139 -135,188 -56,50 -118,87 -187,111 -69,24 -139,37 -208,37l-654 0 0 -378 664 0c12,0 30,-1 53,-5 22,-3 45,-13 67,-28 23,-15 43,-38 60,-69 18,-31 26,-73 26,-126 0,-23 -2,-50 -5,-82 -3,-31 -8,-66 -15,-102 -6,-36 -12,-73 -20,-111 -7,-38 -15,-74 -22,-108 -7,-34 -14,-64 -21,-92 -7,-28 -13,-49 -17,-64l356 -108zm-184 2098l-254 -257 251 -261 260 261 -257 257zm-635 2l-254 -258 250 -260 260 260 -256 258zm3419 5l-254 -257 251 -261 260 261 -257 257zm-635 2l-254 -258 250 -261 260 261 -256 258zm3159 -834l-45 0c-89,0 -166,-9 -232,-25 -65,-17 -125,-40 -177,-70 -53,-30 -101,-66 -145,-108 -44,-42 -88,-88 -134,-140 -24,64 -63,118 -116,162 -53,45 -113,81 -182,108 -68,27 -141,47 -219,58 -77,12 -154,17 -230,15l-473 0 0 -378 494 0c67,0 128,-3 185,-11 57,-7 106,-20 147,-38 41,-18 74,-41 99,-71 24,-28 37,-65 41,-107 0,-43 -19,-99 -56,-165 -37,-67 -85,-141 -144,-223 -59,-82 -125,-168 -200,-260 -74,-91 -149,-184 -225,-278l64 -307 1315 -638 155 345 -1150 532c95,128 189,254 283,380 95,125 190,252 285,379 55,74 107,139 153,196 46,58 93,106 140,145 47,40 96,70 147,90 52,21 110,31 175,31l45 0 0 378zm-1533 -2296l1155 -501 78 170 -1253 546 20 -215zm2338 1023c2,7 6,24 13,50 6,26 14,58 22,96 8,38 16,80 25,127 9,46 16,93 24,140 7,47 14,92 19,137 4,44 6,83 6,117 0,103 -17,194 -51,270 -35,76 -80,139 -135,188 -56,50 -118,87 -187,111 -70,24 -139,37 -208,37l-404 0 0 -378 414 0c12,0 30,-1 52,-5 23,-3 46,-13 68,-28 23,-15 43,-38 60,-69 17,-31 26,-73 26,-126 0,-23 -2,-50 -5,-82 -4,-31 -9,-66 -15,-102 -6,-36 -13,-73 -20,-111 -8,-38 -15,-74 -22,-108 -7,-34 -14,-64 -21,-92 -7,-28 -13,-49 -17,-64l356 -108zm-652 1801l272 -276 279 279 -276 276 -275 -279zm5353 -528c-95,0 -180,-14 -256,-40 -75,-26 -140,-64 -195,-112 -30,29 -62,54 -96,73 -34,19 -69,34 -105,46 -35,12 -71,20 -108,25 -35,5 -70,8 -103,8 -53,0 -102,-4 -149,-13 -46,-7 -90,-26 -133,-54l0 63c0,278 -75,484 -225,617 -150,133 -372,200 -667,200l-296 0c-135,0 -259,-22 -373,-67 -112,-44 -210,-107 -292,-190 -82,-82 -145,-181 -192,-298 -46,-117 -68,-248 -68,-393 0,-67 4,-134 12,-200 9,-67 23,-135 40,-205 19,-69 42,-143 71,-219 29,-76 64,-157 105,-245l340 166c-36,73 -67,140 -93,202 -27,62 -49,121 -67,177 -18,56 -31,110 -40,163 -8,51 -12,103 -12,156 0,81 14,156 41,227 28,70 67,131 117,183 50,52 110,93 180,123 71,29 147,44 231,43l296 0c107,0 194,-10 261,-30 67,-19 119,-48 157,-85 37,-37 63,-84 76,-138 14,-54 21,-117 21,-187l0 -1044 377 0 0 273c0,87 8,157 24,210 16,52 38,92 64,120 26,27 56,46 90,55 34,9 69,14 104,14 21,0 45,-4 72,-12 26,-7 52,-20 76,-38 25,-18 45,-43 61,-74 16,-30 24,-69 24,-114l0 -434 376 0 0 449c2,77 23,133 63,169 40,36 103,54 189,54l-2 0c14,-1 33,-4 57,-10 24,-5 46,-17 69,-33 22,-17 41,-41 57,-71 16,-31 25,-73 25,-124 0,-34 -5,-76 -12,-127 -9,-52 -18,-104 -29,-159 -11,-54 -23,-104 -34,-151 -11,-47 -20,-82 -27,-105l356 -108c2,6 6,21 13,47 7,25 14,56 23,93 8,37 18,78 27,123 9,45 18,90 26,136 7,46 13,91 18,135 6,44 8,82 8,116 0,103 -16,193 -50,269 -34,76 -78,140 -133,191 -53,51 -115,89 -183,114 -68,25 -137,39 -207,40zm1742 0c-112,0 -207,-7 -287,-21 -80,-13 -147,-34 -201,-60 -55,-27 -99,-62 -131,-103 -33,-41 -58,-90 -75,-145 -18,-56 -29,-119 -34,-189 -6,-70 -9,-147 -9,-232l0 -1435 378 0 0 1435c0,80 2,145 8,194 6,48 20,86 44,112 23,27 59,45 107,54 48,8 115,12 200,12l0 378zm589 -378c20,0 36,5 46,16 11,11 16,25 16,42l0 259c0,22 -5,38 -16,47 -10,9 -26,14 -46,14l-633 0c-23,0 -39,-5 -48,-14 -8,-9 -13,-25 -13,-47l0 -259c0,-17 5,-31 13,-42 9,-11 25,-16 48,-16l633 0zm627 0c20,0 36,5 46,16 11,11 16,25 16,42l0 259c0,22 -5,38 -16,47 -10,9 -26,14 -46,14l-633 0c-22,0 -38,-5 -47,-14 -9,-9 -14,-25 -14,-47l0 -259c0,-17 5,-31 14,-42 9,-11 25,-16 47,-16l633 0zm1077 91c9,0 24,-2 43,-5 20,-3 40,-14 60,-33 20,-18 39,-46 54,-84 16,-37 23,-91 23,-160 0,-26 -5,-60 -14,-100 -9,-41 -26,-81 -50,-120 -24,-39 -56,-72 -96,-100 -39,-28 -90,-42 -150,-42 -53,0 -96,16 -129,47 -33,31 -61,70 -84,117 -23,47 -42,97 -58,151 -15,54 -32,103 -50,147 37,21 76,43 119,65 41,21 82,41 123,58 41,17 79,31 114,42 37,11 68,17 95,17zm-130 -1019c104,0 194,18 272,56 77,37 142,87 195,151 52,64 92,138 118,221 27,84 42,172 44,264 0,56 11,101 33,133 22,31 47,55 76,70 28,15 56,25 83,28 27,4 46,5 56,5l42 0 0 378 -42 0c-72,0 -138,-11 -198,-31 -60,-21 -115,-48 -164,-80 -30,42 -63,76 -100,101 -36,25 -73,43 -109,55 -37,12 -71,20 -104,23 -34,3 -63,4 -87,4 -51,0 -98,-5 -144,-14 -46,-9 -92,-23 -138,-41 -48,-18 -96,-40 -147,-65 -50,-26 -106,-55 -165,-87 -46,48 -94,83 -146,104 -52,20 -113,31 -183,31l-186 0 -3 -378 189 0c22,0 42,-6 58,-20 17,-12 33,-31 46,-55 14,-23 26,-52 38,-86 11,-34 24,-71 35,-113 21,-73 45,-148 73,-225 28,-77 66,-148 113,-211 47,-64 107,-116 178,-157 72,-41 161,-61 267,-61zm1981 33c3,7 7,24 14,50 6,26 14,58 21,96 9,38 17,80 25,127 9,46 17,93 25,140 7,47 13,92 18,137 5,44 7,83 7,117 0,103 -17,194 -52,270 -34,76 -79,139 -135,188 -55,50 -118,87 -186,111 -70,24 -139,37 -209,37l-653 0 0 -378 664 0c11,0 29,-1 52,-5 23,-3 46,-13 68,-28 23,-15 43,-38 60,-69 17,-31 26,-73 26,-126 0,-23 -2,-50 -6,-82 -3,-31 -8,-66 -14,-102 -6,-36 -13,-73 -21,-111 -7,-38 -15,-74 -21,-108 -8,-34 -15,-64 -21,-92 -8,-28 -13,-49 -17,-64l355 -108zm-150 -295l-254 -258 252 -260 260 260 -258 258zm-634 1l-254 -257 250 -261 260 261 -256 257z"/>
  </g>
 </g>
</svg>
