<?xml version="1.0" encoding="UTF-8"?>
<!DOCTYPE svg PUBLIC "-//W3C//DTD SVG 1.1//EN" "http://www.w3.org/Graphics/SVG/1.1/DTD/svg11.dtd">
<!-- Creator: CorelDRAW X7 -->
<svg xmlns="http://www.w3.org/2000/svg" xml:space="preserve" width="0.763701in" height="0.763819in" version="1.1" style="shape-rendering:geometricPrecision; text-rendering:geometricPrecision; image-rendering:optimizeQuality; fill-rule:evenodd; clip-rule:evenodd"
viewBox="0 0 7637 7638"
 xmlns:xlink="http://www.w3.org/1999/xlink">
 <defs>
  <style type="text/css">
   <![CDATA[
    .fil0 {fill:#7C94CA}
   ]]>
  </style>
 </defs>
 <g id="Layer_x0020_1">
  <metadata id="CorelCorpID_0Corel-Layer"/>
  <path class="fil0" d="M0 3819c0,-1021 396,-1981 1118,-2702 722,-721 1680,-1119 2701,-1117 1020,0 1978,396 2700,1118 722,720 1118,1680 1118,2701 0,1020 -396,1980 -1118,2700 -722,722 -1680,1119 -2700,1119 -1021,1 -1979,-397 -2701,-1118 -722,-721 -1118,-1681 -1118,-2701zm2774 2088l3132 -3132 -1042 -1043 -816 817 667 667 -1500 1499 -667 -667 -817 817 1043 1042zm-226 -1525l168 168 -483 482 -166 -167 481 -483zm2316 -2315l167 168 -481 481 -168 -167 482 -482zm-2090 4174l3466 -3468 -1376 -1376 -1152 1152 667 667 -1164 1164 -667 -666 -1151 1151c460,458 918,915 1377,1376zm4625 -2422c0,-957 -372,-1856 -1048,-2533 -677,-676 -1575,-1048 -2532,-1048 -958,0 -1856,372 -2532,1048 -677,678 -1049,1576 -1049,2533 0,957 372,1855 1049,2532 676,676 1574,1049 2532,1049 957,0 1855,-373 2532,-1049 676,-677 1048,-1575 1048,-2532z"/>
 </g>
</svg>
