<?xml version="1.0" encoding="UTF-8"?>
<!DOCTYPE svg PUBLIC "-//W3C//DTD SVG 1.1//EN" "http://www.w3.org/Graphics/SVG/1.1/DTD/svg11.dtd">
<!-- Creator: CorelDRAW X7 -->
<svg xmlns="http://www.w3.org/2000/svg" xml:space="preserve" width="8.96224in" height="6.68295in" version="1.1" style="shape-rendering:geometricPrecision; text-rendering:geometricPrecision; image-rendering:optimizeQuality; fill-rule:evenodd; clip-rule:evenodd"
viewBox="0 0 89622 66830"
 xmlns:xlink="http://www.w3.org/1999/xlink">
 <defs>
  <style type="text/css">
   <![CDATA[
    .fil71 {fill:#0A87B9}
    .fil74 {fill:#374D4C}
    .fil72 {fill:#067BAB}
    .fil73 {fill:#067AAB}
    .fil45 {fill:#4F638F}
    .fil30 {fill:#536896}
    .fil43 {fill:#5C71A5}
    .fil46 {fill:#6981B7}
    .fil33 {fill:#6C87C3}
    .fil76 {fill:#75613D}
    .fil53 {fill:#7875A3}
    .fil41 {fill:#7E96CB}
    .fil47 {fill:#839ACD}
    .fil21 {fill:#8480BC}
    .fil34 {fill:#889DC8}
    .fil54 {fill:#8BA1D0}
    .fil42 {fill:#91A5D2}
    .fil56 {fill:#9CAED7}
    .fil27 {fill:#9DAFD7}
    .fil24 {fill:#9F9CCB}
    .fil49 {fill:#9FB1D9}
    .fil52 {fill:#A0B2DB}
    .fil75 {fill:#A38755}
    .fil55 {fill:#A6B6DB}
    .fil29 {fill:#A6B7DE}
    .fil32 {fill:#B6C4E3}
    .fil22 {fill:#BBB8DA}
    .fil67 {fill:#C1C0DF}
    .fil37 {fill:#C4CFE9}
    .fil5 {fill:#D2AE6D}
    .fil64 {fill:#D3DCEE}
    .fil3 {fill:#DFC596}
    .fil2 {fill:#E7D4B0}
    .fil1 {fill:#EFE2C9}
    .fil0 {fill:#F7F2E7}
    .fil6 {fill:white}
    .fil57 {fill:white}
    .fil31 {fill:#2A344B;fill-rule:nonzero}
    .fil70 {fill:#5B72A5;fill-rule:nonzero}
    .fil48 {fill:#6077AD;fill-rule:nonzero}
    .fil8 {fill:#6981B7;fill-rule:nonzero}
    .fil77 {fill:#6C87C3;fill-rule:nonzero}
    .fil68 {fill:#76B5CE;fill-rule:nonzero}
    .fil9 {fill:#7B93C9;fill-rule:nonzero}
    .fil44 {fill:#7E96CB;fill-rule:nonzero}
    .fil23 {fill:#8480BC;fill-rule:nonzero}
    .fil51 {fill:#879BC5;fill-rule:nonzero}
    .fil40 {fill:#889ECE;fill-rule:nonzero}
    .fil15 {fill:#8BA1D0;fill-rule:nonzero}
    .fil10 {fill:#97AAD5;fill-rule:nonzero}
    .fil19 {fill:#9F9CCB;fill-rule:nonzero}
    .fil18 {fill:#A38755;fill-rule:nonzero}
    .fil11 {fill:#A6B6DB;fill-rule:nonzero}
    .fil50 {fill:#A6B7DE;fill-rule:nonzero}
    .fil58 {fill:#ACBCDD;fill-rule:nonzero}
    .fil69 {fill:#AFBEE1;fill-rule:nonzero}
    .fil20 {fill:#BBB8DA;fill-rule:nonzero}
    .fil13 {fill:#C4CFE9;fill-rule:nonzero}
    .fil14 {fill:#D1D1D1;fill-rule:nonzero}
    .fil61 {fill:#D2AE6D;fill-rule:nonzero}
    .fil17 {fill:#D7B77D;fill-rule:nonzero}
    .fil66 {fill:#D8DBEE;fill-rule:nonzero}
    .fil12 {fill:#D8E0F1;fill-rule:nonzero}
    .fil59 {fill:#DAE1F0;fill-rule:nonzero}
    .fil7 {fill:#DFC596;fill-rule:nonzero}
    .fil38 {fill:#E1E7F4;fill-rule:nonzero}
    .fil65 {fill:#E7EBF6;fill-rule:nonzero}
    .fil63 {fill:#E9EDF7;fill-rule:nonzero}
    .fil4 {fill:#EEE3CE;fill-rule:nonzero}
    .fil25 {fill:#F1E5CF;fill-rule:nonzero}
    .fil16 {fill:#F3F5FB;fill-rule:nonzero}
    .fil35 {fill:#F6F8FB;fill-rule:nonzero}
    .fil62 {fill:#F7F2E7;fill-rule:nonzero}
    .fil60 {fill:#F8F9FC;fill-rule:nonzero}
    .fil26 {fill:white;fill-rule:nonzero}
    .fil39 {fill:url(#id0)}
    .fil28 {fill:url(#id1)}
    .fil36 {fill:url(#id2)}
   ]]>
  </style>
  <linearGradient id="id0" gradientUnits="userSpaceOnUse" x1="32213.3" y1="39959.3" x2="38414.7" y2="39959.3">
   <stop offset="0" style="stop-opacity:1; stop-color:#3A9BD5"/>
   <stop offset="1" style="stop-opacity:1; stop-color:#2573BA"/>
  </linearGradient>
  <linearGradient id="id1" gradientUnits="userSpaceOnUse" x1="46718" y1="40676.1" x2="37453.6" y2="32818.4">
   <stop offset="0" style="stop-opacity:1; stop-color:#59BDEF"/>
   <stop offset="1" style="stop-opacity:1; stop-color:#7BDAFF"/>
  </linearGradient>
  <linearGradient id="id2" gradientUnits="userSpaceOnUse" xlink:href="#id1" x1="44854.9" y1="34508.9" x2="39316.7" y2="26684.4">
  </linearGradient>
 </defs>
 <g id="Layer_x0020_1">
  <metadata id="CorelCorpID_0Corel-Layer"/>
  <g id="_1759460835552">
   <g>
    <path class="fil0" d="M0 0l0 20465 0 4761 0 161 0 5234 0 8468 0 23416c4892,1789 9328,3729 13416,4198 8631,991 10775,-3986 14290,-9936 902,-1527 1991,-2905 3568,-3635 1439,-666 3189,-592 5728,316 3100,1108 7249,2333 13167,449 11562,-3682 12092,-18339 9228,-28104 -1811,-6174 -5111,-11834 -9048,-16922 -2468,-3190 -5207,-6186 -8215,-8871l-42134 0z"/>
    <path class="fil1" d="M0 25387l0 13702c4114,7769 11759,6468 15614,2493 6026,-6217 4078,-10543 16739,-5688 4299,1648 9408,1655 13362,-899 2844,-1838 4886,-4942 5244,-8309 198,-1873 -105,-3761 -91,-5645 15,-1883 413,-3889 1740,-5226 1278,-1288 3188,-1722 5001,-1797 1964,-81 3920,203 5874,487 2382,347 4763,693 7156,377 1509,-199 3068,-648 4532,-1319 78,-36 157,-73 235,-110 53,-26 106,-51 159,-77 70,-35 140,-70 209,-105 1704,-870 3246,-2050 4385,-3492 47,-60 93,-119 138,-179 53,-70 105,-141 157,-213 758,-1059 1300,-2215 1678,-3429 19,-61 38,-122 56,-184 2,-5 3,-10 4,-15 80,-269 152,-541 216,-816 18,-77 35,-154 52,-232 15,-70 30,-140 45,-210 7,-34 13,-68 20,-102 164,-831 265,-1681 318,-2538 4,-75 9,-151 13,-227 1,-21 2,-42 3,-63 3,-72 6,-143 9,-214 18,-452 23,-905 18,-1357l-77763 0c490,1650 1294,3418 2474,5305 5876,9401 -3343,13290 -7597,20082z"/>
    <path class="fil2" d="M5243 3470c4931,7889 -768,11897 -5243,16995l0 4761 0 5395c3292,1373 7114,472 9726,-1564 6830,-5322 5499,-9876 17366,-3315 4029,2227 9088,2942 13358,959 3071,-1425 5523,-4217 6343,-7502 456,-1828 417,-3740 692,-5603 279,-1889 974,-3917 2608,-5053 1426,-992 3301,-1140 5039,-970 4343,425 8392,2626 12785,2660 7001,55 12074,-3219 12570,-10233l-73179 0c-348,782 -819,1505 -1375,2190 -272,336 -565,662 -875,981 61,99 122,199 185,299z"/>
    <path class="fil3" d="M3426 0c425,1016 965,2073 1632,3171 61,99 122,199 185,299 4931,7889 -768,11897 -5243,16995l0 4761c28,9 57,18 85,26 2320,714 4666,519 6487,-615 7349,-4578 5932,-12596 17046,-4828 3774,2637 8730,3878 13184,2353 3204,-1096 5935,-3616 7094,-6797 645,-1770 807,-3676 1275,-5500 419,-1627 1156,-3275 2453,-4305 157,-125 323,-241 497,-347 1551,-941 3510,-901 5287,-536 4274,877 8070,3490 12436,3984 3680,417 7997,-530 10851,-2963 1787,-1524 2971,-3521 3782,-5698l-77051 0z"/>
   </g>
   <path class="fil4" d="M67260 37505c-1310,-44 -2361,-1121 -2370,-2455l-21 0c-8,1334 -1059,2411 -2372,2455 1316,43 2372,1129 2372,2472l18 0c0,-1343 1057,-2429 2373,-2472z"/>
   <g>
    <path class="fil5" d="M40934 12854c0,-3677 -2980,-6657 -6657,-6657 -3676,0 -6657,2980 -6657,6657 0,3676 2981,6657 6657,6657 3677,0 6657,-2981 6657,-6657z"/>
    <path class="fil6" d="M35534 14738l0 1255 -5024 0 0 -1255 5024 0zm-5024 -3769l0 -1256c2512,0 5024,0 7536,0l-1257 1256c-2092,0 -4185,0 -6279,0zm7536 1255c0,1257 0,2514 0,3769l-1257 0 0 -2512 -6279 0 0 -1257 7536 0z"/>
   </g>
   <path class="fil7" d="M89622 9727c-595,18 -1072,507 -1076,1111l-10 0c-4,-604 -479,-1093 -1075,-1111 598,-21 1077,-512 1077,-1122l8 0c0,610 479,1101 1076,1122z"/>
   <g>
    <path class="fil8" d="M28068 49841l-12 1282c-2,200 -109,384 -283,484l-5204 2989 10 -1079 5489 -3676z"/>
    <path class="fil9" d="M20165 52092l2414 1425 5019 -2836c620,-350 628,-1239 15,-1601l0 0c-641,-378 -1435,-386 -2082,-20l-5366 3032z"/>
    <polygon class="fil10" points="20165,52092 20155,53171 22569,54596 22579,53517 "/>
    <polygon class="fil11" points="22117,53480 20979,54124 20972,54831 22110,54187 "/>
    <polygon class="fil12" points="22117,53480 20639,52609 19506,53254 20979,54124 "/>
    <polygon class="fil13" points="19506,53254 19500,53963 20972,54831 20979,54124 "/>
    <polygon class="fil14" points="19580,53378 19575,53912 20900,54694 20905,54160 "/>
    <polygon class="fil15" points="19575,53912 20043,53651 19580,53378 "/>
    <polygon class="fil16" points="19575,53912 19577,53645 20902,54425 20900,54694 "/>
    <polygon class="fil11" points="19577,53645 19808,53513 20905,54160 20902,54425 "/>
    <polygon class="fil11" points="20812,53602 21128,53422 21440,53608 21124,53787 "/>
    <polygon class="fil9" points="20878,53641 20812,53602 21128,53422 21440,53608 21373,53645 21127,53500 "/>
    <polygon class="fil11" points="20094,53177 20410,52997 20722,53183 20406,53363 "/>
    <polygon class="fil9" points="20160,53216 20094,53177 20410,52997 20722,53183 20655,53220 20409,53075 "/>
    <polygon class="fil17" points="24145,49843 24719,49518 27136,50944 26560,51267 "/>
    <polygon class="fil18" points="26560,51267 27136,50945 27126,51979 26551,52309 "/>
   </g>
   <g>
    <path class="fil19" d="M15787 41592l-5 1737c-2,715 -472,1429 -1410,1974 -1890,1098 -4962,1098 -6864,0 -955,-552 -1433,-1277 -1431,-2000l5 -1737c-2,723 476,1448 1432,2000 1901,1097 4973,1097 6863,0 938,-546 1407,-1259 1410,-1974z"/>
    <path class="fil19" d="M14354 39590c1902,1098 1910,2879 22,3976 -1889,1097 -4961,1098 -6863,0 -1899,-1097 -1910,-2877 -20,-3975 1888,-1097 4961,-1098 6861,-1z"/>
    <path class="fil19" d="M15787 39437l-5 1737c-2,715 -472,1429 -1410,1974 -1890,1098 -4962,1098 -6864,0 -955,-551 -1433,-1276 -1431,-2000l5 -1737c-2,724 476,1448 1432,2000 1901,1098 4973,1098 6863,0 938,-545 1407,-1259 1410,-1974z"/>
    <path class="fil19" d="M14354 37436c1902,1098 1910,2878 22,3975 -1889,1098 -4961,1098 -6863,0 -1899,-1097 -1910,-2876 -20,-3975 1888,-1096 4961,-1097 6861,0z"/>
    <path class="fil19" d="M15787 37282l-5 1738c-2,715 -472,1429 -1410,1974 -1890,1098 -4962,1098 -6864,0 -955,-552 -1433,-1277 -1431,-2000l5 -1738c-2,724 476,1449 1432,2001 1901,1097 4973,1097 6863,0 938,-546 1407,-1260 1410,-1975z"/>
    <path class="fil19" d="M14354 35281c1902,1098 1910,2878 22,3975 -1889,1098 -4961,1098 -6863,0 -1899,-1097 -1910,-2876 -20,-3974 1888,-1097 4961,-1098 6861,-1z"/>
    <path class="fil19" d="M15787 35128l-5 1737c-2,715 -472,1429 -1410,1974 -1890,1098 -4962,1098 -6864,0 -955,-552 -1433,-1276 -1431,-2000l5 -1737c-2,723 476,1448 1432,2000 1901,1098 4973,1098 6863,0 938,-545 1407,-1259 1410,-1974z"/>
    <path class="fil19" d="M14354 33126c1902,1098 1910,2879 22,3976 -1889,1098 -4961,1098 -6863,0 -1899,-1097 -1910,-2877 -20,-3975 1888,-1097 4961,-1097 6861,-1z"/>
    <path class="fil19" d="M15787 32973l-5 1738c-2,715 -472,1428 -1410,1974 -1890,1097 -4962,1098 -6864,0 -955,-552 -1433,-1277 -1431,-2001l5 -1737c-2,724 476,1448 1432,2000 1901,1098 4973,1098 6863,0 938,-545 1407,-1259 1410,-1974z"/>
    <path class="fil19" d="M14354 30972c1902,1098 1910,2878 22,3975 -1889,1098 -4961,1098 -6863,0 -1899,-1097 -1910,-2876 -20,-3974 1888,-1097 4961,-1098 6861,-1z"/>
    <path class="fil19" d="M15787 30819l-5 1737c-2,715 -472,1429 -1410,1974 -1890,1098 -4962,1098 -6864,0 -955,-552 -1433,-1276 -1431,-2000l5 -1737c-2,723 476,1448 1432,2000 1901,1097 4973,1097 6863,0 938,-546 1407,-1259 1410,-1974z"/>
    <path class="fil20" d="M14354 28817c1902,1098 1910,2879 22,3976 -1889,1097 -4961,1098 -6863,0 -1899,-1097 -1910,-2877 -20,-3975 1888,-1097 4961,-1098 6861,-1z"/>
    <path class="fil21" d="M7513 32793c-191,-111 -364,-229 -517,-352 -222,-179 -404,-369 -545,-566 -247,-346 -370,-714 -369,-1082l-5 1737c0,30 1,60 2,90 3,47 7,95 14,142 51,366 225,728 523,1062 226,254 524,493 892,706 248,143 514,267 796,372 425,160 883,277 1357,352l0 -699 0 -1039c-661,-105 -1291,-292 -1843,-561 -104,-51 -206,-105 -305,-162z"/>
    <path class="fil21" d="M9661 35670c-661,-105 -1291,-292 -1843,-561 -104,-51 -206,-105 -305,-162 -469,-271 -823,-584 -1062,-917 -247,-346 -370,-715 -369,-1083l-5 1737c0,78 5,155 16,233 51,366 225,727 523,1062 226,254 524,493 892,706 247,142 514,266 796,372 425,159 883,277 1357,352l0 -700 0 -1039z"/>
    <path class="fil21" d="M9661 37825c-661,-105 -1291,-292 -1843,-561 -104,-51 -206,-105 -305,-162 -469,-271 -823,-584 -1062,-918 -247,-346 -370,-714 -369,-1082l-5 1737c0,78 5,155 16,232 51,366 225,728 523,1062 226,255 524,493 892,706 248,143 514,267 796,372 425,160 883,277 1357,352l0 -699 0 -1039z"/>
    <path class="fil21" d="M9661 39979c-661,-104 -1291,-291 -1843,-561 -104,-51 -206,-105 -305,-162 -469,-271 -823,-583 -1062,-917 -247,-346 -370,-715 -369,-1083l-5 1738c0,77 5,155 16,232 51,366 225,728 523,1062 226,254 524,493 892,706 621,358 1366,599 2153,724l0 -1739z"/>
    <path class="fil21" d="M9661 42134c-786,-125 -1529,-366 -2148,-723 -469,-271 -823,-584 -1062,-918 -247,-345 -370,-714 -369,-1082l-5 1737c0,78 5,155 16,233 90,644 562,1275 1415,1767 621,359 1366,600 2153,724l0 -1738z"/>
    <path class="fil21" d="M9661 44289c-786,-125 -1529,-366 -2148,-723 -955,-552 -1433,-1277 -1431,-2000l-5 1737c-2,723 476,1448 1431,2000 5,3 10,5 14,8 618,354 1357,592 2139,716l0 -478 0 -1260z"/>
    <path class="fil22" d="M9661 35670c1495,237 3144,54 4390,-550 112,-54 221,-112 325,-173 460,-267 807,-574 1041,-902 245,-342 368,-707 370,-1072 0,-77 -6,-155 -16,-232 -44,377 -218,749 -523,1093 -222,250 -514,486 -876,696 -251,146 -523,273 -811,380 -1169,436 -2594,550 -3900,344l0 416z"/>
    <path class="fil22" d="M9661 37825c1495,237 3144,54 4390,-550 112,-54 221,-112 325,-173 460,-267 807,-574 1041,-902 245,-342 368,-707 370,-1072 0,-77 -6,-155 -16,-232 -44,377 -218,749 -523,1092 -222,251 -514,487 -876,697 -251,146 -523,272 -811,379 -1169,436 -2594,551 -3900,345l0 416z"/>
    <path class="fil22" d="M9661 39980c1495,237 3144,54 4390,-551 112,-54 221,-111 325,-172 460,-267 807,-574 1041,-902 245,-342 368,-707 370,-1072 0,-78 -6,-155 -16,-232 -44,376 -218,749 -523,1092 -222,251 -514,486 -876,697 -251,145 -523,272 -811,379 -1169,436 -2594,551 -3900,344l0 417z"/>
    <path class="fil22" d="M9661 42135c1495,237 3144,53 4390,-551 112,-54 221,-111 325,-172 460,-267 807,-575 1041,-903 245,-342 368,-706 370,-1071 0,-78 -6,-155 -16,-233 -44,377 -218,749 -523,1093 -222,251 -514,486 -876,696 -251,146 -523,273 -811,380 -1169,436 -2594,551 -3900,344l0 417z"/>
    <path class="fil22" d="M9661 44289c1495,237 3144,54 4390,-550 112,-54 221,-112 325,-173 460,-267 807,-574 1041,-902 245,-342 368,-707 370,-1072 0,-77 -6,-155 -16,-232 -44,377 -218,749 -523,1093 -222,250 -514,486 -876,696 -251,146 -523,273 -811,380 -1169,436 -2594,550 -3900,344l0 416z"/>
   </g>
   <g>
    <path class="fil23" d="M15787 41592l-5 1737c-2,715 -472,1429 -1410,1974 -290,169 -608,311 -946,428l0 -1736c339,-117 659,-260 951,-429 938,-545 1407,-1259 1410,-1974z"/>
    <path class="fil19" d="M14354 39590c1902,1098 1910,2879 22,3976 -291,169 -611,312 -950,429l0 -4825c331,116 643,256 928,420z"/>
    <path class="fil23" d="M15787 39437l-5 1738c-2,715 -472,1428 -1410,1974 -290,168 -608,311 -946,428l0 -1736c339,-117 659,-260 951,-430 938,-545 1407,-1259 1410,-1974z"/>
    <path class="fil23" d="M15787 37283l-5 1737c-2,715 -472,1429 -1410,1974 -290,169 -608,311 -946,428l0 -1736c339,-117 659,-260 951,-429 938,-546 1407,-1259 1410,-1974z"/>
    <path class="fil23" d="M15787 35128l-5 1737c-2,715 -472,1429 -1410,1974 -290,169 -608,312 -946,428l0 -1735c339,-117 659,-261 951,-430 938,-545 1407,-1259 1410,-1974z"/>
    <path class="fil24" d="M13426 39687c217,-75 426,-161 625,-257 112,-55 221,-112 325,-173 460,-267 807,-574 1041,-902 245,-342 368,-707 370,-1072 0,-77 -6,-155 -16,-232 -44,377 -218,749 -523,1092 -222,251 -514,486 -876,697 -251,146 -523,272 -811,379 -45,17 -90,33 -135,49l0 419z"/>
    <path class="fil24" d="M13426 41841c217,-75 426,-160 625,-257 112,-54 221,-111 325,-172 460,-267 807,-574 1041,-902 245,-343 368,-707 370,-1072 0,-78 -6,-155 -16,-232 -44,376 -218,749 -523,1092 -222,251 -514,486 -876,696 -251,146 -523,273 -811,380 -45,17 -90,33 -135,48l0 419z"/>
    <path class="fil24" d="M13426 43996c217,-75 426,-160 625,-257 112,-54 221,-112 325,-173 460,-266 807,-574 1041,-902 245,-342 368,-707 370,-1072 0,-77 -6,-154 -16,-232 -44,377 -218,749 -523,1093 -222,251 -514,486 -876,696 -251,146 -523,273 -811,380 -45,16 -90,33 -135,48l0 419z"/>
   </g>
   <g>
    <g>
     <path class="fil25" d="M45684 52841l-17303 -9990c-198,-114 -173,-314 56,-445l10209 -5895c228,-132 574,-146 772,-32l17303 9990c198,114 173,314 -56,446l-10209 5894c-229,132 -574,146 -772,32z"/>
     <path class="fil26" d="M40992 26580l-5123 -2982c-1015,-586 -1971,-679 -2695,-262 -722,418 -1120,1293 -1120,2465l0 375c36,25 74,48 112,72l0 -447c0,-1130 379,-1971 1065,-2367 687,-396 1604,-303 2582,262l5123 2982c26,16 61,7 77,-20 15,-27 6,-62 -21,-78z"/>
     <path class="fil26" d="M25017 23027l0 -11544c0,-2311 -1628,-5131 -3630,-6286 -980,-566 -1904,-656 -2603,-253 -698,404 -1083,1249 -1083,2381l0 805c38,37 76,75 113,113l0 -918c0,-1090 365,-1901 1027,-2283 662,-382 1546,-292 2490,253 1970,1137 3573,3913 3573,6188l0 11544c0,1916 1127,4182 2655,5547l0 -152c-1468,-1349 -2542,-3539 -2542,-5395z"/>
     <path class="fil26" d="M27570 28525c0,0 -1304,-1328 -1812,-2423 -508,-1095 -771,-2109 -779,-3012 -9,-904 -18,-8675 -18,-8675 0,0 56,-3221 -80,-3730 -135,-508 -455,-3222 -3113,-5171 -2658,-1949 -3985,153 -3969,1252 15,1099 0,1802 0,1802 0,0 1456,1178 2005,2862 550,1683 603,1391 611,3065 9,1675 18,10169 18,10169 0,0 -123,1492 248,2646 371,1155 1039,2434 1831,3272 792,839 1961,1829 3042,1731 1081,-97 1808,-496 2016,-2206l0 -1582z"/>
     <polygon class="fil26" points="18784,4945 14305,7527 17799,8568 "/>
     <path class="fil27" d="M29519 25752c-1253,44 -1674,1192 -1674,1192l0 0c0,0 -297,856 -275,1258l0 0c4,70 7,151 10,239l0 0c-7,-7 -14,-12 -21,-19l0 0 0 152c9,7 17,14 26,22l0 0c10,386 13,811 13,811l0 0c0,0 11,764 -97,1267l0 0c-195,904 -960,1417 -1019,1497l0 0 4597 -2647c4,-2 8,-3 12,-6l0 0c6,-3 12,-8 18,-11l0 0 24 -14 2 -3c665,-410 1031,-1236 1031,-2335l0 0 0 -907c-38,-24 -76,-48 -112,-72l0 0 0 518c-244,-176 -1366,-943 -2455,-943l0 0c-26,0 -53,0 -80,1l0 0z"/>
     <path class="fil26" d="M28471 26058l4703 -2722c0,0 802,-421 1772,-66 970,355 6053,3404 6053,3404l-4541 2616c0,0 -5276,-3269 -5895,-3433 -1270,-337 -2092,201 -2092,201z"/>
     <path class="fil27" d="M17814 9907l0 -1 0 -1325c-37,-38 -75,-60 -113,-98l0 0c-185,-176 -1050,-939 -2312,-1132l0 0c-85,-13 -167,-19 -246,-20l-4 0 -4 0c-1246,0 -1766,1473 -1766,1473l0 0c0,0 -166,868 -160,1382l0 0c6,514 43,2380 43,2380l0 0 4531 -2610 0 -1c18,-9 31,-27 31,-48z"/>
     <path class="fil26" d="M25599 32376c-500,0 -1053,-166 -1625,-497 -1987,-1147 -3603,-3947 -3603,-6240l0 -11545c0,-2274 -1603,-5051 -3573,-6188 -944,-545 -1828,-635 -2490,-252 -662,382 -1027,1192 -1027,2282l0 2581c0,31 -25,56 -56,56 -31,0 -57,-25 -57,-56l0 -2581c0,-1132 385,-1977 1083,-2380 699,-403 1623,-314 2603,252 2001,1156 3630,3976 3630,6286l0 11545c0,2258 1590,5013 3546,6142 937,541 1814,630 2472,251 656,-379 1018,-1184 1018,-2266l0 -1354c0,-1172 398,-2047 1121,-2465 723,-417 1680,-324 2695,262l5123 2983c27,15 36,50 20,77 -15,27 -50,36 -77,20l-5122 -2982c-979,-565 -1896,-658 -2582,-262 -687,397 -1065,1237 -1065,2367l0 1354c0,1124 -382,1963 -1075,2364 -286,165 -609,246 -959,246z"/>
     <polygon class="fil28" points="32947,40260 42086,45536 51224,40260 42086,27959 "/>
     <polygon class="fil29" points="32947,31918 42086,37194 51224,31918 42086,26642 "/>
     <polygon class="fil13" points="42086,37057 33066,31849 32947,31918 42086,37194 51224,31918 51106,31849 "/>
     <polygon class="fil30" points="51224,40260 51224,31918 42086,37194 42086,45536 "/>
     <polygon class="fil31" points="50077,39687 50077,33815 43233,37766 43233,43639 "/>
     <polygon class="fil32" points="43233,42768 43233,43639 50077,39687 50077,33815 49241,34297 49241,39300 "/>
     <polygon class="fil33" points="42086,45536 42086,37194 32947,31918 32947,40260 "/>
     <polygon class="fil31" points="34100,36213 34100,37296 40933,41240 40933,40158 "/>
     <polygon class="fil34" points="40933,41240 40933,40631 34622,36988 34622,36515 34100,36213 34100,37295 "/>
     <polygon class="fil26" points="42086,36706 33693,31860 42086,27015 50479,31860 "/>
     <polygon class="fil26" points="42086,35496 33693,30650 42086,25805 50479,30651 "/>
     <polygon class="fil26" points="42086,35370 33802,30587 33693,30650 42086,35496 50479,30650 50370,30588 "/>
     <polygon class="fil13" points="50479,31860 50479,30651 42086,35496 42086,36706 "/>
     <polygon class="fil35" points="33693,30650 33693,31860 42086,36706 42086,35496 "/>
     <polygon class="fil36" points="32947,30597 42086,35873 51224,30597 42086,25321 "/>
     <polygon class="fil29" points="32947,29280 42086,34556 51224,29280 42086,24003 "/>
     <polygon class="fil13" points="42086,34419 33066,29211 32947,29279 42086,34556 51224,29280 51106,29211 "/>
     <polygon class="fil30" points="51224,30597 51224,29280 42086,34556 42086,35873 "/>
     <polygon class="fil33" points="42086,35873 42086,34556 32947,29280 32947,30597 "/>
     <polygon class="fil37" points="30393,39433 37082,43295 40158,41520 33469,37658 "/>
     <polygon class="fil30" points="40158,42107 40158,41520 37082,43295 37082,43883 "/>
     <polygon class="fil33" points="30393,39433 30393,40021 37082,43883 37082,43295 "/>
     <polygon class="fil38" points="38415,41652 32213,38071 34766,36598 40933,40158 40933,40198 "/>
     <polygon class="fil26" points="40933,40393 38415,41847 38415,41652 40933,40198 "/>
     <polygon class="fil39" points="38415,41847 38415,41652 32213,38071 32213,38267 "/>
     <polygon class="fil35" points="33623,37334 30606,38837 30606,39374 37082,43123 39896,41499 39896,40962 "/>
     <polygon class="fil37" points="30393,38362 37082,42224 40158,40449 33469,36587 "/>
     <polygon class="fil30" points="31495,38438 37082,41662 39070,40515 33468,37224 "/>
     <polygon class="fil40" points="33466,37300 39053,40524 39184,40449 33466,37149 31365,38362 31495,38438 "/>
     <polygon class="fil41" points="40158,41036 40158,40449 37082,42224 37082,42812 "/>
     <polygon class="fil42" points="30393,38362 30393,38950 37082,42812 37082,42224 "/>
     <path class="fil43" d="M43233 39600l0 2382 7164 4096 332 -126c0,0 1744,-2191 1711,-2241l0 0c-32,-50 -3227,-2438 -3227,-2438l0 0 -5809 -2240 -171 567z"/>
     <polygon class="fil44" points="43233,40858 46766,38818 46697,38777 43233,40777 "/>
     <polygon class="fil44" points="49009,40118 48940,40078 44461,42663 44531,42703 "/>
     <polygon class="fil44" points="46709,43961 46779,44001 51252,41418 51183,41378 "/>
     <polygon class="fil44" points="48928,45275 48995,45317 53495,42718 53426,42678 "/>
     <path class="fil37" d="M43233 37766l0 2034 5699 3289 1145 715 621 602 93 495 81 508 -189 718 4368 -2521 1 0c217,-129 341,-409 341,-771l0 0c0,-659 -391,-1401 -889,-1688l0 0 -8546 -4954 -2725 1573z"/>
     <path class="fil13" d="M54504 41147l-8546 -4954 -38 22 8473 4911c498,288 889,1030 889,1688 0,362 -124,643 -341,772l-1 0 -4231 2441 -26 100 4368 -2521 1 0c217,-129 341,-409 341,-771 0,-659 -391,-1401 -889,-1688z"/>
     <polygon class="fil40" points="49730,38379 49660,38339 45182,40925 45251,40965 "/>
     <polygon class="fil40" points="47430,42222 47500,42262 51973,39679 51903,39639 "/>
     <polygon class="fil40" points="49649,43536 49715,43578 54216,40980 54147,40939 "/>
     <polygon class="fil29" points="45134,36669 45650,36967 48946,35064 48430,34766 "/>
     <polygon class="fil45" points="48946,37633 48946,35064 45650,36967 45650,39535 "/>
     <polygon class="fil46" points="45650,39535 45650,36967 45134,36669 43233,37766 43233,38140 "/>
     <path class="fil47" d="M49258 44224c0,522 367,1157 819,1419l0 0c453,261 819,49 819,-473l0 0c0,-523 -366,-1158 -819,-1419l0 0c-131,-76 -256,-112 -366,-112 -269,0 -453,214 -453,585z"/>
     <path class="fil48" d="M50580 44987c0,321 -225,451 -503,291 -278,-161 -503,-551 -503,-871 0,-321 225,-451 503,-291 278,161 503,551 503,871z"/>
     <path class="fil37" d="M49574 44407c0,320 225,710 503,871l0 0c195,112 363,81 447,-57l0 0c-78,13 -170,-7 -269,-64l0 0c-278,-161 -503,-551 -503,-871l0 0c0,-97 20,-175 56,-235 -140,22 -234,149 -234,356z"/>
     <path class="fil49" d="M43233 39660l0 278 6787 3934c424,245 769,909 769,1480l0 0c0,277 -83,483 -226,566l0 0c-143,83 -309,22 -422,-43l0 0 0 0 -6908 -4004 0 278 6787 3934 0 0c133,77 266,116 390,116l0 0c97,0 190,-24 273,-72l0 0c220,-127 347,-410 347,-775l0 0c0,-659 -391,-1400 -889,-1688l0 0 -6908 -4004z"/>
     <polygon class="fil50" points="44651,36948 45073,37191 45073,36704 "/>
     <polygon class="fil51" points="44651,36947 45073,37191 45073,36960 44849,36833 "/>
     <polygon class="fil52" points="47415,37923 51563,40317 54859,38415 50711,36020 "/>
     <polygon class="fil30" points="54859,40983 54859,38415 51563,40317 51563,42886 "/>
     <polygon class="fil33" points="51563,42886 51563,40317 47415,37923 47415,40492 "/>
     <polygon class="fil35" points="49965,37322 48170,38359 48170,38915 48703,39222 48703,38667 50498,37630 "/>
     <polygon class="fil35" points="51106,37980 49310,39017 49310,39573 49843,39881 49843,39325 51639,38288 "/>
     <polygon class="fil35" points="52248,38640 50452,39676 50452,40232 50985,40540 50985,39984 52781,38947 "/>
     <polygon class="fil44" points="49965,37322 49965,37546 50308,37740 50498,37630 "/>
     <polygon class="fil50" points="48363,38800 48170,38915 48703,39222 48703,38991 "/>
     <polygon class="fil30" points="48170,38359 48170,38915 48363,38800 48363,38472 49966,37546 49965,37322 "/>
     <polygon class="fil44" points="51106,37980 51106,38204 51448,38398 51639,38288 "/>
     <polygon class="fil50" points="49504,39458 49310,39573 49843,39881 49843,39649 "/>
     <polygon class="fil30" points="49310,39017 49310,39573 49504,39458 49504,39130 51107,38204 51106,37980 "/>
     <polygon class="fil44" points="52248,38640 52248,38863 52590,39057 52781,38947 "/>
     <polygon class="fil50" points="50645,40117 50452,40232 50985,40540 50985,40308 "/>
     <polygon class="fil30" points="50452,39676 50452,40232 50645,40117 50645,39789 52249,38863 52248,38640 "/>
     <polygon class="fil13" points="21589,16630 21589,16222 22064,15948 22064,16355 "/>
     <polygon class="fil13" points="22931,15093 22931,14686 23836,14163 23836,14570 "/>
     <polygon class="fil13" points="21635,15008 21635,14601 23836,13330 23836,13738 "/>
     <polygon class="fil13" points="22400,16161 22400,15754 24237,14693 24237,15101 "/>
     <polygon class="fil13" points="21635,15841 21635,15434 22540,14911 22540,15318 "/>
     <polygon class="fil13" points="22168,20595 22168,21003 21611,21324 21611,20917 "/>
     <polygon class="fil13" points="23183,20009 23183,20417 22625,20739 22625,20331 "/>
     <polygon class="fil13" points="23791,18896 23791,19304 21637,20547 21637,20139 "/>
     <polygon class="fil13" points="22716,17607 22716,17199 23791,16579 23791,16986 "/>
     <polygon class="fil13" points="21611,18245 21611,17837 22168,17516 22168,17923 "/>
     <polygon class="fil13" points="21611,19007 21611,18599 22672,17986 22672,18394 "/>
     <polygon class="fil13" points="23100,18147 23100,17739 23791,17341 23791,17748 "/>
     <polygon class="fil13" points="22716,22353 22716,21945 23791,21324 23791,21732 "/>
     <polygon class="fil13" points="21611,22991 21611,22583 22168,22261 22168,22669 "/>
     <polygon class="fil13" points="21611,23752 21611,23345 22672,22732 22672,23140 "/>
     <polygon class="fil13" points="23100,22893 23100,22485 23791,22086 23791,22494 "/>
     <polygon class="fil13" points="34388,26700 34035,26497 34510,26222 34863,26426 "/>
     <polygon class="fil13" points="35070,25545 34717,25341 35622,24818 35975,25022 "/>
     <polygon class="fil13" points="33053,25876 32700,25673 34901,24402 35254,24605 "/>
     <polygon class="fil13" points="35199,26232 34846,26028 36683,24968 37036,25171 "/>
     <polygon class="fil13" points="33774,26293 33421,26089 34326,25566 34680,25770 "/>
     <path class="fil53" d="M44155 30476c573,-330 858,-764 858,-1196 0,-433 -286,-867 -858,-1197 -571,-330 -1322,-495 -2073,-495 -748,0 -1499,165 -2071,495 -573,331 -859,764 -859,1197 0,433 286,866 858,1197 572,330 1323,495 2072,495 750,0 1501,-165 2073,-496zm-2268 -631c-130,75 -260,150 -391,225 -261,-150 -520,-301 -781,-451 -261,-151 -522,-301 -782,-452 130,-75 260,-150 390,-225 261,150 522,301 782,451 261,151 522,301 782,452zm1565 -1c-392,226 -783,452 -1174,678 -131,-76 -261,-151 -392,-226 261,-151 522,-301 782,-452 0,0 0,0 0,0 -325,-188 -652,-377 -976,-564 -326,-189 -652,-376 -977,-564 130,-75 261,-151 391,-226 391,225 783,451 1173,677 391,225 782,451 1173,677zm-1955 -1580c130,-75 261,-150 391,-226 391,226 783,451 1173,677 391,226 782,452 1173,678 -262,0 -523,0 -783,0 -326,-188 -652,-377 -977,-565 -326,-188 -652,-376 -977,-564z"/>
     <polygon class="fil54" points="45959,40018 46634,39628 47415,39177 47415,38516 45650,39535 45587,39499 45517,39459 44441,38837 44372,38797 43771,38451 43233,38140 43233,38676 43233,39455 43233,39535 43233,39601 43233,39660 44127,40178 44874,39748 44945,39789 45014,39829 45347,40021 45650,40196 "/>
     <path class="fil55" d="M53871 41553l-2308 1333 -325 -187 -69 -40 -464 -268 -569 -329 -69 -40 -948 -547 -128 -74 -70 -40 -469 -271 -601 347 469 271 70 40 128 74 948 547 69 41 1033 596 69 40 308 177c236,137 434,327 578,553 13,20 25,40 37,60 62,107 113,221 151,341l45 143 448 -261 2462 -1432 -49 -149c-129,-389 -394,-717 -746,-925z"/>
     <polygon class="fil30" points="51238,42699 51169,42659 51108,42694 50568,43006 50637,43046 51168,42739 "/>
     <polygon class="fil30" points="48991,41401 48921,41361 48860,41396 48320,41708 48390,41748 48921,41442 "/>
     <polygon class="fil30" points="43739,39162 43286,39424 43233,39455 43233,39535 43257,39521 43823,39194 44441,38837 44372,38797 "/>
     <polygon class="fil37" points="40692,40337 40692,40532 40933,40393 40933,40198 "/>
     <polygon class="fil56" points="40933,40158 34766,36598 34507,36747 40692,40337 40933,40198 "/>
    </g>
    <path class="fil37" d="M37584 40539l-427 -247 -429 248 427 246 429 -247zm-2092 -898l269 -155 -428 -247 -386 223 -42 25 427 247 160 -93zm751 619l429 -247 -130 -76 -297 -171 -111 64 -318 183 427 247z"/>
    <g>
     <polygon class="fil57" points="33508,38681 33937,38433 33510,38187 33081,38434 "/>
     <polygon class="fil57" points="34421,38713 33993,38961 34420,39207 34849,38960 "/>
    </g>
   </g>
   <g>
    <polygon class="fil58" points="14587,49384 14203,49160 14172,38164 14556,38388 "/>
    <polygon class="fil59" points="14556,38388 14172,38164 21383,34001 21767,34224 "/>
    <polygon class="fil60" points="21767,34224 21798,45220 14587,49384 14556,38388 "/>
    <polygon class="fil58" points="15406,49929 15021,49706 14990,38710 15375,38933 "/>
    <polygon class="fil59" points="15375,38933 14990,38710 22201,34547 22586,34770 "/>
    <polygon class="fil60" points="22586,34770 22617,45766 15406,49929 15375,38933 "/>
    <polygon class="fil58" points="16254,50603 15870,50380 15839,39384 16223,39607 "/>
    <polygon class="fil59" points="16223,39607 15839,39384 23050,35221 23434,35444 "/>
    <polygon class="fil26" points="23434,35444 23466,46440 16255,50603 16223,39607 "/>
    <polygon class="fil25" points="22994,41385 22996,42046 16699,45681 16697,45021 "/>
    <polygon class="fil25" points="22986,38569 22988,39230 16691,42865 16689,42205 "/>
    <polygon class="fil61" points="20942,38338 20944,38998 16687,41456 16685,40796 "/>
    <polygon class="fil25" points="22990,39978 22991,40639 16695,44274 16693,43614 "/>
    <polygon class="fil25" points="23002,44203 23004,44864 16707,48499 16705,47839 "/>
    <polygon class="fil25" points="22998,42794 23000,43455 16703,47090 16701,46430 "/>
   </g>
   <polygon class="fil30" points="34622,36515 34622,36681 34766,36598 "/>
   <polygon class="fil30" points="40933,40393 40727,40512 40933,40631 "/>
   <path class="fil62" d="M66246 60772l-9404 5267c-416,241 -1151,210 -1632,-67l-3128 -1866c-481,-278 -534,-702 -117,-942l9368 -5374c417,-240 1151,-210 1632,68l3164 1972c481,278 533,702 117,942z"/>
   <path class="fil62" d="M62331 56170l-9404 5267c-416,241 -1151,211 -1632,-67l-3128 -1866c-481,-278 -533,-702 -117,-942l9368 -5374c417,-240 1151,-210 1632,68l3164 1972c481,278 534,702 117,942z"/>
   <path class="fil63" d="M62331 50899l-9404 5268c-416,240 -1151,210 -1632,-68l-3128 -1866c-481,-277 -533,-702 -117,-942l9368 -5373c417,-241 1151,-210 1632,67l3164 1972c481,278 534,702 117,942z"/>
   <path class="fil64" d="M62331 50899l-9404 5268c-200,115 -474,167 -758,160l0 0 0 1069c284,7 558,-45 758,-160l0 0 9404 -5268c218,-125 306,-302 273,-480l0 0 0 -922 0 0c-25,125 -116,242 -273,333l0 0z"/>
   <path class="fil37" d="M52169 57396l0 -1069c-306,-8 -624,-84 -874,-228l0 0 -3128 -1866c-229,-132 -360,-298 -390,-461l0 921c-42,207 91,436 390,609l0 0 3128 1866c250,144 568,220 874,228z"/>
   <path class="fil65" d="M66246 56694l-9404 5267c-416,241 -1151,210 -1632,-67l-3128 -1866c-481,-278 -534,-702 -117,-942l9368 -5374c417,-240 1151,-210 1632,68l3164 1972c481,277 533,701 117,942z"/>
   <path class="fil64" d="M56084 62121l0 1069c284,7 558,-44 758,-160l0 0 9404 -5267c218,-126 306,-302 273,-481l0 0 0 -921 0 0 0 0c-25,125 -116,242 -273,333l0 0 -9404 5267c-200,116 -474,167 -758,160z"/>
   <path class="fil37" d="M56084 63190l0 -1069c-306,-7 -624,-83 -874,-227l0 0 -3128 -1866c-229,-133 -360,-298 -390,-462l0 0 0 922c-42,206 91,436 390,609l0 0 3128 1866c250,144 568,220 874,227z"/>
   <g>
    <path class="fil66" d="M9682 51551c-1941,1121 -1941,2937 0,4058 1940,1120 5087,1120 7027,0 1941,-1121 1941,-2937 0,-4058 -1940,-1120 -5087,-1120 -7027,0z"/>
    <path class="fil67" d="M9682 55609c1940,1120 5087,1120 7027,0l0 0c964,-556 1448,-1284 1455,-2014l0 0 0 3084c7,739 -478,1480 -1455,2044l0 0c-1940,1120 -5087,1120 -7027,0l0 0c-977,-564 -1461,-1305 -1455,-2044l0 0 0 -3084c7,730 491,1458 1455,2014l0 0z"/>
    <path class="fil68" d="M13196 51396l-3035 1752c1665,961 4404,961 6069,0 1665,-961 1665,-2543 0,-3504 -929,-537 -2237,-798 -3542,-708l508 2460z"/>
    <path class="fil18" d="M16230 53148c828,-479 1244,-1111 1248,-1743l0 1763c4,639 -412,1278 -1248,1761 -1665,961 -4404,961 -6069,0l0 -1781c1665,961 4404,961 6069,0z"/>
    <path class="fil17" d="M13196 51396l-3035 1752c1665,961 4404,961 6069,0 1665,-961 1665,-2543 0,-3504 -929,-537 -2237,-798 -3542,-708l508 2460z"/>
    <path class="fil69" d="M13196 49582l-508 -2460c-956,66 -1846,315 -2527,708 -1665,961 -1665,2543 0,3504l3035 -1752z"/>
    <polygon class="fil9" points="13196,49582 13196,51396 10161,53148 10161,51334 "/>
    <path class="fil70" d="M8913 53159l0 -3559c8,630 423,1258 1248,1734l0 1814 0 1781c-840,-485 -1255,-1128 -1248,-1770z"/>
   </g>
   <g>
    <polygon class="fil71" points="32678,48777 32678,48776 32659,48765 32658,48766 "/>
    <polygon class="fil71" points="32509,48679 32509,48680 32529,48692 32530,48691 "/>
    <polygon class="fil71" points="32509,48680 32509,48679 32480,48662 32478,48662 "/>
    <polygon class="fil72" points="32636,48752 32636,48753 32658,48766 32659,48765 "/>
    <polygon class="fil73" points="32636,48753 32636,48752 32594,48728 32593,48729 "/>
    <polygon class="fil73" points="32593,48729 32594,48728 32551,48703 32551,48704 "/>
    <polygon class="fil73" points="32551,48704 32551,48703 32530,48691 32529,48692 "/>
    <polygon class="fil74" points="32662,48763 32533,48689 32616,48642 32744,48716 "/>
    <polygon class="fil74" points="32659,48765 32530,48691 32533,48689 32662,48763 "/>
    <polygon class="fil5" points="29210,48686 30653,47855 30740,47906 30857,47840 30769,47789 30967,47675 31724,47620 33077,48400 32642,48650 32571,48609 32045,48912 32116,48953 30896,49657 "/>
    <polygon class="fil75" points="30857,47840 30768,47789 30768,47891 "/>
    <polygon class="fil75" points="29210,48686 30896,49657 30896,49815 29210,48844 "/>
    <path class="fil76" d="M33077 48553l0 -153 -435 250 0 152 435 -249zm-2181 1262l1220 -706 0 -156 -1220 704 0 158z"/>
    <polygon class="fil75" points="32571,48609 32571,48760 32642,48802 32642,48650 "/>
    <polygon class="fil76" points="32571,48609 32571,48760 32116,49022 32116,48953 32045,48912 "/>
    <polygon class="fil1" points="31107,47984 31468,47776 31339,47702 30978,47909 "/>
    <polygon class="fil1" points="31492,47986 31853,47779 31724,47704 31363,47912 "/>
    <polygon class="fil1" points="31670,48091 32031,47883 31902,47808 31541,48016 "/>
    <polygon class="fil1" points="31848,48195 32209,47987 32080,47912 31719,48120 "/>
    <polygon class="fil1" points="32027,48299 32388,48091 32259,48017 31898,48224 "/>
    <polygon class="fil1" points="32205,48403 32566,48195 32437,48121 32076,48329 "/>
    <polygon class="fil1" points="32384,48507 32744,48299 32616,48225 32255,48433 "/>
   </g>
   <g>
    <path class="fil61" d="M48471 19717l0 1798c0,281 148,540 390,682l7257 4257 0 -1513 -7647 -5224z"/>
    <path class="fil7" d="M59520 22976l-3402 1965 -6999 -4040c-864,-499 -864,-1745 0,-2245l0 0c903,-522 2016,-522 2919,0l7482 4320z"/>
    <polygon class="fil18" points="59520,22976 59520,24488 56118,26454 56118,24941 "/>
    <polygon class="fil11" points="56766,24895 58353,25813 58353,26804 56766,25886 "/>
    <polygon class="fil12" points="56766,24895 58848,23694 60428,24612 58353,25813 "/>
    <polygon class="fil13" points="60428,24613 60428,25606 58353,26804 58353,25813 "/>
    <polygon class="fil14" points="60323,24786 60323,25534 58456,26612 58456,25864 "/>
    <polygon class="fil15" points="60323,25534 59671,25162 60323,24786 "/>
    <polygon class="fil16" points="60323,25534 60323,25160 58456,26236 58456,26613 "/>
    <polygon class="fil11" points="60323,25160 60002,24971 58456,25864 58456,26236 "/>
    <polygon class="fil11" points="58593,25083 58152,24827 57713,25084 58154,25339 "/>
    <polygon class="fil9" points="58501,25137 58593,25083 58152,24827 57713,25084 57806,25137 58153,24936 "/>
    <polygon class="fil11" points="59605,24497 59164,24241 58725,24498 59166,24753 "/>
    <polygon class="fil9" points="59513,24551 59605,24497 59164,24240 58725,24498 58818,24551 59165,24350 "/>
    <polygon class="fil50" points="53970,19771 53169,19309 49763,21276 50566,21736 "/>
    <polygon class="fil77" points="50566,21736 49764,21276 49764,22726 50566,23197 "/>
   </g>
  </g>
 </g>
</svg>
