<?xml version="1.0" encoding="UTF-8"?>
<!DOCTYPE svg PUBLIC "-//W3C//DTD SVG 1.1//EN" "http://www.w3.org/Graphics/SVG/1.1/DTD/svg11.dtd">
<!-- Creator: CorelDRAW X7 -->
<svg xmlns="http://www.w3.org/2000/svg" xml:space="preserve" width="17.2955in" height="14.9329in" version="1.1" style="shape-rendering:geometricPrecision; text-rendering:geometricPrecision; image-rendering:optimizeQuality; fill-rule:evenodd; clip-rule:evenodd"
viewBox="0 0 172955 149329"
 xmlns:xlink="http://www.w3.org/1999/xlink">
 <defs>
  <style type="text/css">
   <![CDATA[
    .fil0 {fill:#F7F2E6;fill-rule:nonzero}
   ]]>
  </style>
 </defs>
 <g id="Layer_x0020_1">
  <metadata id="CorelCorpID_0Corel-Layer"/>
  <path class="fil0" d="M170234 116483c785,6415 -3107,13162 -9851,13986l-132193 16159c-6745,824 -12147,-4787 -12931,-11202l-12539 -102580c-784,-6415 3108,-13162 9852,-13986l132193 -16159c6744,-824 12146,4787 12931,11202l12538 102580zm-52629 -74509l-6925 847 -2038 -16676 6925 -847 2038 16676zm2919 2283l-2356 -19277 18161 -2220 7977 65254 -15107 1847 1730 14161 -15105 1846 1327 10858 -50308 6149 -1327 -10858 -15107 1847 -1731 -14161 -15111 1847 -7976 -65254 18162 -2220 2356 19278 12127 -1483 -2356 -19277 8635 -1056 2357 19278 12127 -1483 -2357 -19277 8636 -1055 2356 19277 12127 -1483 -2356 -19277 8636 -1055 2356 19277 12127 -1483zm-23682 255l-6924 847 -2039 -16676 6925 -847 2038 16676zm-20762 2538l-6925 847 -2039 -16677 6925 -846 2039 16676zm-20763 2538l-6925 846 -2038 -16676 6924 -846 2039 16676zm117519 66577l-12539 -102580c-960,-7852 -7665,-14485 -15850,-13485l-132193 16159c-8185,1000 -13095,9053 -12135,16905l12539 102580c960,7853 7664,14485 15850,13485l132193 -16159c8185,-1000 13094,-9053 12135,-16905zm-40718 -24021l15107 -1846 -8612 -70457 -115941 14172 8612 70456 15111 -1847 1731 14161 15107 -1847 1327 10858 55511 -6785 -1328 -10858 15106 -1846 -1731 -14161z"/>
 </g>
</svg>
