<?xml version="1.0" encoding="UTF-8"?>
<!DOCTYPE svg PUBLIC "-//W3C//DTD SVG 1.1//EN" "http://www.w3.org/Graphics/SVG/1.1/DTD/svg11.dtd">
<!-- Creator: CorelDRAW X7 -->
<svg xmlns="http://www.w3.org/2000/svg" xml:space="preserve" width="3.4111in" height="1.07992in" version="1.1" style="shape-rendering:geometricPrecision; text-rendering:geometricPrecision; image-rendering:optimizeQuality; fill-rule:evenodd; clip-rule:evenodd"
viewBox="0 0 34111 10799"
 xmlns:xlink="http://www.w3.org/1999/xlink">
 <defs>
  <style type="text/css">
   <![CDATA[
    .fil1 {fill:#7C94CA}
    .fil2 {fill:#DBE2F1}
    .fil0 {fill:white}
    .fil3 {fill:#7C94CA;fill-rule:nonzero}
   ]]>
  </style>
 </defs>
 <g id="Layer_x0020_1">
  <metadata id="CorelCorpID_0Corel-Layer"/>
  <g id="_2623686732944">
   <g id="_2622976127792">
    <path class="fil0" d="M5399 0l23313 0c2969,0 5399,2430 5399,5399 0,2970 -2430,5400 -5399,5400l-23313 0c-2969,0 -5399,-2430 -5399,-5399 0,-2970 2429,-5400 5399,-5400z"/>
    <path class="fil1" d="M5399 0l23313 0c2969,0 5399,2430 5399,5399 0,2970 -2430,5400 -5399,5400l-23313 0c-2969,0 -5399,-2430 -5399,-5399 0,-2970 2429,-5400 5399,-5400zm23313 266l-23313 0c-2823,0 -5134,2311 -5134,5134 0,1411 578,2695 1509,3625 930,931 2214,1509 3625,1509l23313 0c2823,0 5134,-2311 5134,-5135 0,-1411 -578,-2694 -1509,-3626 -930,-930 -2214,-1507 -3625,-1507l0 0z"/>
    <g>
     <polygon class="fil2" points="23452,1563 23140,1563 23140,9236 23452,9236 "/>
     <polygon class="fil1" points="22983,1563 23140,1563 23140,9236 22983,9236 "/>
    </g>
    <path class="fil1" d="M25049 5400c0,-1021 395,-1981 1117,-2702 723,-721 1680,-1119 2702,-1117 1020,0 1977,396 2700,1118 722,720 1117,1680 1117,2701 0,1020 -395,1980 -1117,2700 -723,722 -1680,1119 -2700,1119 -1022,1 -1979,-397 -2702,-1118 -722,-721 -1117,-1681 -1117,-2701zm2773 2088l3132 -3132 -1042 -1043 -815 817 666 667 -1500 1499 -667 -667 -816 817 1042 1042zm-226 -1524l168 167 -482 482 -167 -167 481 -482zm2316 -2316l168 168 -481 481 -168 -167 481 -482zm-2090 4174l3467 -3467 -1377 -1377 -1151 1152 667 667 -1165 1164 -667 -666 -1151 1151c460,458 918,915 1377,1376zm4626 -2422c0,-956 -373,-1855 -1048,-2533 -678,-676 -1576,-1048 -2532,-1048 -958,0 -1856,372 -2533,1048 -676,678 -1049,1577 -1049,2533 0,957 373,1855 1049,2532 677,676 1575,1049 2533,1049 956,0 1854,-373 2532,-1049 675,-677 1048,-1575 1048,-2532z"/>
    <path class="fil3" d="M4547 6145l-123 0c-134,0 -263,-59 -385,-178 -33,40 -72,72 -119,98 -46,25 -94,46 -148,61 -52,15 -105,26 -160,32 -53,6 -105,9 -154,9 -39,0 -78,-2 -117,-7 -40,-4 -84,-12 -134,-22 -50,-11 -108,-26 -173,-43 -64,-18 -141,-40 -231,-67l109 -362c61,24 126,45 191,64 66,19 129,34 193,46 62,11 122,19 180,22 57,3 108,2 154,-3 46,-7 84,-18 116,-35 32,-16 53,-39 64,-68 6,-12 8,-22 8,-32 0,-10 -2,-21 -8,-34 -6,-12 -14,-29 -27,-48 -12,-18 -27,-42 -46,-73l-538 -756 318 -204 541 819c29,44 60,91 92,138 32,47 64,90 97,129 32,39 63,71 94,97 30,24 58,38 83,38l123 0 0 379 0 0zm2693 -378l478 0c62,0 111,-6 148,-18 36,-11 64,-25 83,-42 19,-18 31,-37 37,-58 5,-21 9,-42 9,-62l0 -491 375 0 0 480c0,45 10,81 30,106 20,27 44,46 69,58 26,14 51,20 77,24 25,2 42,3 51,3l224 0 0 378 -224 0c-86,0 -163,-13 -235,-36 -71,-23 -130,-57 -178,-102 -57,47 -124,82 -202,104 -76,23 -165,34 -264,34l-478 0 -181 0c-41,0 -80,-4 -117,-8 -37,-6 -73,-19 -108,-42 -13,130 -43,247 -89,354 -48,106 -111,197 -191,272 -79,75 -174,134 -284,175 -110,41 -234,62 -371,62l-190 0 0 -378 190 0c97,0 180,-10 251,-30 71,-20 129,-52 175,-96 45,-45 78,-103 101,-174 22,-71 33,-158 33,-260l0 -923 378 0 0 453c0,47 10,85 29,112 20,29 43,50 69,66 25,16 50,27 74,31 25,6 41,8 50,8l181 0zm-1634 -896c2,8 6,25 13,50 7,27 14,59 22,97 8,38 17,80 25,127 9,46 16,93 24,140 8,46 13,92 19,136 4,45 7,84 7,117 0,104 -18,194 -53,271 -34,76 -78,139 -134,188 -56,50 -118,87 -187,111 -70,24 -139,37 -209,37l-653 0 0 -378 665 0c11,0 28,-1 52,-6 22,-3 45,-12 68,-27 22,-15 42,-38 60,-69 16,-31 25,-74 25,-127 0,-22 -2,-49 -5,-81 -4,-31 -8,-66 -15,-102 -5,-36 -12,-74 -20,-112 -8,-37 -15,-73 -22,-107 -7,-34 -15,-65 -21,-93 -7,-27 -12,-48 -17,-64l356 -108 0 0zm-326 2099l-254 -258 251 -260 261 260 -258 258 0 0zm-634 1l-255 -257 249 -260 261 260 -255 257zm3560 6l-255 -258 251 -260 262 260 -258 258 0 0zm-635 1l-254 -258 250 -260 260 260 -256 258zm3159 -833l-45 0c-89,0 -166,-9 -231,-26 -66,-17 -126,-40 -178,-70 -52,-29 -101,-65 -145,-107 -44,-42 -88,-88 -134,-140 -24,64 -62,117 -116,162 -53,44 -113,81 -182,107 -68,28 -141,47 -219,59 -78,11 -154,17 -230,15l-473 0 0 -378 494 0c67,0 128,-3 185,-11 56,-8 105,-20 148,-38 41,-18 73,-41 97,-71 25,-29 38,-65 41,-107 0,-43 -18,-99 -55,-165 -37,-67 -85,-141 -143,-223 -59,-82 -126,-168 -200,-260 -75,-92 -150,-184 -226,-278l64 -307 1315 -638 154 345 -1150 532c96,128 190,253 285,380 94,125 189,252 284,379 56,74 107,139 152,196 47,57 94,106 140,145 48,40 97,70 148,90 52,21 110,31 175,31l45 0 0 378 0 0zm-1533 -2296l1154 -501 79 170 -1253 545 20 -214 0 0zm2338 1022c2,8 6,25 13,50 7,27 15,59 22,97 8,38 17,80 25,127 9,46 16,93 24,140 8,46 14,92 19,136 5,45 7,84 7,117 0,104 -18,194 -52,271 -35,76 -79,139 -135,188 -55,50 -118,87 -187,111 -70,24 -138,37 -208,37l-404 0 0 -378 415 0c11,0 29,-1 52,-6 22,-3 45,-12 68,-27 22,-15 42,-38 60,-69 16,-31 25,-74 25,-127 0,-22 -2,-49 -5,-81 -4,-31 -8,-66 -15,-102 -5,-36 -12,-74 -20,-112 -8,-37 -15,-73 -22,-107 -7,-34 -14,-65 -21,-93 -7,-27 -12,-48 -17,-64l356 -108 0 0zm-652 1801l273 -275 279 279 -277 275 -276 -279 1 0zm5354 -527c-95,0 -180,-14 -257,-40 -75,-26 -139,-64 -195,-113 -30,30 -62,55 -96,74 -34,19 -68,34 -104,45 -36,13 -72,20 -108,26 -35,4 -70,8 -103,8 -54,0 -102,-5 -149,-13 -47,-7 -91,-26 -133,-54l0 63c0,278 -76,484 -226,617 -150,133 -372,200 -667,200l-295 0c-136,0 -260,-22 -374,-67 -112,-44 -210,-107 -292,-190 -81,-82 -145,-182 -191,-299 -47,-116 -69,-247 -69,-393 0,-67 5,-133 12,-200 9,-67 23,-134 40,-204 19,-69 43,-143 71,-219 29,-76 64,-158 106,-245l339 166c-36,72 -67,140 -93,202 -27,62 -49,121 -67,177 -18,56 -31,110 -39,162 -9,52 -13,104 -13,157 0,81 14,156 42,226 28,70 67,131 117,184 50,52 110,93 180,123 70,29 146,43 231,42l295 0c107,0 195,-9 261,-29 67,-20 119,-49 157,-85 38,-38 63,-84 77,-138 13,-55 20,-117 20,-187l0 -1044 377 0 0 273c0,87 8,157 25,209 16,52 37,92 63,120 27,28 57,47 90,56 35,8 69,14 105,14 21,0 44,-4 71,-12 27,-8 52,-20 77,-38 24,-19 44,-43 61,-74 15,-30 24,-69 24,-115l0 -433 376 0 0 449c2,76 22,133 62,169 40,35 103,54 189,54l-1 0c13,-1 33,-4 56,-10 24,-6 47,-17 69,-33 23,-17 41,-41 58,-71 16,-32 25,-73 25,-125 0,-33 -5,-75 -13,-127 -9,-51 -17,-104 -29,-159 -11,-53 -22,-104 -33,-151 -11,-46 -20,-82 -28,-105l357 -108c1,7 6,22 12,48 7,24 15,55 24,93 7,37 17,78 26,122 10,45 19,90 26,137 8,46 14,91 19,134 5,45 7,83 7,116 0,103 -16,193 -50,269 -34,77 -77,140 -132,191 -54,51 -115,90 -183,115 -68,25 -137,38 -207,40l0 0zm1741 0c-111,0 -206,-7 -286,-21 -80,-14 -147,-34 -201,-60 -55,-27 -99,-62 -132,-103 -33,-42 -57,-90 -75,-145 -17,-56 -28,-119 -33,-189 -6,-70 -9,-148 -9,-232l0 -1436 377 0 0 1436c0,80 3,145 8,193 6,49 20,87 45,113 23,27 59,45 106,54 49,7 115,12 200,12l0 378 0 0zm1039 -287c9,0 24,-2 44,-6 20,-3 40,-14 60,-32 20,-18 37,-47 53,-84 16,-38 23,-91 23,-160 0,-26 -4,-60 -14,-100 -9,-41 -26,-81 -50,-120 -24,-39 -56,-73 -96,-100 -39,-28 -90,-43 -150,-43 -53,0 -95,17 -129,48 -33,31 -61,70 -84,117 -22,47 -42,97 -58,150 -15,54 -32,103 -50,148 37,21 77,43 119,64 41,22 82,41 123,59 40,17 79,31 115,42 35,11 66,17 94,17l0 0zm-130 -1020c104,0 195,19 272,57 77,36 142,87 195,151 52,63 92,137 119,221 26,84 41,172 43,263 0,57 11,101 33,133 23,32 47,56 76,70 28,16 56,25 83,28 27,5 46,6 56,6l42 0 0 378 -42 0c-71,0 -138,-11 -198,-31 -60,-22 -114,-48 -164,-80 -30,42 -64,76 -100,101 -36,24 -73,43 -109,55 -37,12 -71,19 -105,22 -33,4 -62,5 -86,5 -50,0 -98,-5 -144,-15 -45,-8 -92,-23 -139,-41 -46,-17 -95,-39 -146,-64 -50,-26 -106,-56 -165,-88 -45,49 -94,83 -146,105 -53,20 -113,31 -183,31l-186 0 -4 -378 190 0c23,0 42,-7 58,-20 17,-12 32,-31 46,-55 14,-24 26,-53 38,-86 12,-35 24,-71 35,-114 21,-72 45,-147 73,-224 28,-78 66,-148 114,-211 46,-65 105,-117 178,-158 71,-40 160,-61 266,-61l0 0zm1981 33c3,8 7,25 14,50 6,27 14,59 22,97 8,38 17,80 24,127 9,46 17,93 25,140 8,46 13,92 19,136 4,45 6,84 6,117 0,104 -17,194 -52,271 -34,76 -79,139 -134,188 -56,50 -118,87 -187,111 -70,24 -139,37 -209,37l-653 0 0 -378 664 0c11,0 29,-1 53,-6 22,-3 45,-12 67,-27 23,-15 43,-38 60,-69 17,-31 26,-74 26,-127 0,-22 -2,-49 -6,-81 -3,-31 -7,-66 -14,-102 -6,-36 -12,-74 -20,-112 -8,-37 -16,-73 -22,-107 -7,-34 -15,-65 -21,-93 -7,-27 -13,-48 -17,-64l355 -108 0 0zm-150 -294l-254 -258 252 -261 260 261 -258 258zm-634 1l-255 -257 250 -261 262 261 -257 257z"/>
   </g>
  </g>
 </g>
</svg>
