<?xml version="1.0" encoding="UTF-8"?>
<!DOCTYPE svg PUBLIC "-//W3C//DTD SVG 1.1//EN" "http://www.w3.org/Graphics/SVG/1.1/DTD/svg11.dtd">
<!-- Creator: CorelDRAW X7 -->
<svg xmlns="http://www.w3.org/2000/svg" xml:space="preserve" width="0.763583in" height="0.76378in" version="1.1" style="shape-rendering:geometricPrecision; text-rendering:geometricPrecision; image-rendering:optimizeQuality; fill-rule:evenodd; clip-rule:evenodd"
viewBox="0 0 7636 7638"
 xmlns:xlink="http://www.w3.org/1999/xlink">
 <defs>
  <style type="text/css">
   <![CDATA[
    .fil0 {fill:#D2AE6D;fill-rule:nonzero}
   ]]>
  </style>
 </defs>
 <g id="Layer_x0020_1">
  <metadata id="CorelCorpID_0Corel-Layer"/>
  <path class="fil0" d="M3629 6292l-239 0 0 -597c-172,-52 -330,-133 -455,-245 -109,-97 -197,-215 -257,-356 -55,-131 -87,-280 -87,-446l239 0c0,59 6,118 15,170 11,66 29,126 53,184 45,106 112,196 194,268 63,55 135,102 215,138 25,13 53,25 83,35l0 -1569c-151,-43 -297,-100 -429,-182 -77,-48 -144,-105 -199,-171 -135,-156 -201,-354 -207,-554 -4,-197 48,-398 156,-570 52,-85 118,-164 196,-230 133,-114 301,-194 483,-241l0 -581 239 0 0 4947 0 0 0 0zm378 -4947l239 0 0 595c177,53 338,133 468,244 117,101 211,224 275,370 59,138 93,293 93,468l-239 0c0,-86 -10,-166 -28,-238 -11,-48 -25,-93 -44,-135 -49,-112 -122,-206 -212,-284 -49,-42 -102,-78 -161,-108 -48,-27 -99,-48 -152,-67l0 1641c149,42 288,97 415,175 57,35 109,75 155,120 48,48 90,100 126,159 106,184 132,409 92,621 -41,216 -151,422 -312,562 -132,116 -297,195 -476,242l0 582 -239 0 0 -4947 0 0 0 0zm-617 2279l0 -1451c-124,38 -238,97 -329,175 -57,50 -107,110 -149,174 -82,132 -123,289 -118,439 3,148 51,293 149,406 39,47 87,88 144,123 91,57 194,100 303,134l0 0 0 0zm860 1838c119,-40 228,-97 316,-173 120,-105 203,-260 234,-427 29,-158 12,-324 -65,-457 -24,-40 -52,-76 -84,-108 -33,-31 -73,-62 -115,-89 -77,-46 -162,-84 -251,-114 -13,-5 -26,-9 -39,-13l0 1382 4 -1 0 0zm-433 -5462c1022,0 1980,398 2701,1120 722,720 1118,1680 1118,2699 0,1020 -396,1979 -1118,2701 -721,720 -1679,1118 -2701,1118 -1020,0 -1978,-398 -2700,-1118 -720,-722 -1117,-1681 -1117,-2701 0,-1019 397,-1979 1117,-2699 722,-722 1680,-1120 2700,-1120zm-2531 6350c677,677 1577,1048 2531,1048 957,0 1856,-371 2532,-1048 677,-676 1050,-1575 1050,-2531 0,-957 -373,-1854 -1050,-2531 -676,-675 -1575,-1049 -2532,-1049 -954,0 -1854,374 -2531,1049 -676,677 -1048,1574 -1048,2531 0,956 372,1855 1048,2531z"/>
 </g>
</svg>
