<?xml version="1.0" encoding="UTF-8"?>
<!DOCTYPE svg PUBLIC "-//W3C//DTD SVG 1.1//EN" "http://www.w3.org/Graphics/SVG/1.1/DTD/svg11.dtd">
<!-- Creator: CorelDRAW X7 -->
<svg xmlns="http://www.w3.org/2000/svg" xml:space="preserve" width="4.55335in" height="3.18323in" version="1.1" style="shape-rendering:geometricPrecision; text-rendering:geometricPrecision; image-rendering:optimizeQuality; fill-rule:evenodd; clip-rule:evenodd"
viewBox="0 0 45533 31832"
 xmlns:xlink="http://www.w3.org/1999/xlink">
 <defs>
  <style type="text/css">
   <![CDATA[
    .fil2 {fill:none}
    .fil0 {fill:#927C53}
    .fil1 {fill:white}
   ]]>
  </style>
 </defs>
 <g id="Layer_x0020_1">
  <metadata id="CorelCorpID_0Corel-Layer"/>
  <g id="_1502933163968">
   <g>
    <g>
     <path class="fil0" d="M33433 16350c0,-5891 -4775,-10667 -10666,-10667 -5891,0 -10667,4776 -10667,10667 0,5891 4776,10666 10667,10666 5891,0 10666,-4775 10666,-10666z"/>
     <path class="fil1" d="M15704 15531l191 0 0 528 10 0c20,-81 55,-157 105,-229 51,-72 112,-135 184,-188 72,-54 152,-96 241,-126 88,-30 181,-45 278,-45 124,0 231,16 321,48 91,32 168,74 231,125 64,52 114,111 151,176 37,65 62,131 75,198l10 0c77,-180 180,-317 309,-409 129,-92 299,-138 509,-138 117,0 225,18 324,53 99,35 184,89 256,161 72,71 128,163 168,273 40,111 61,241 61,392l0 1762 -191 0 0 -1767c0,-164 -25,-293 -76,-387 -50,-94 -109,-165 -178,-213 -68,-49 -137,-79 -206,-91 -68,-11 -121,-17 -158,-17 -117,0 -225,20 -323,60 -99,40 -184,100 -256,181 -72,80 -128,180 -169,298 -40,119 -60,256 -60,410l0 1526 -191 0 0 -1767c0,-161 -24,-289 -72,-384 -49,-96 -106,-167 -171,-214 -65,-47 -132,-77 -201,-90 -68,-13 -123,-20 -163,-20 -90,0 -184,18 -281,55 -97,37 -186,94 -266,171 -80,77 -146,175 -196,296 -50,120 -75,263 -75,427l0 1526 -191 0 0 -2581zm3870 1290c0,-184 26,-357 78,-519 52,-162 128,-305 228,-429 101,-124 225,-222 372,-294 147,-72 316,-108 507,-108 191,0 360,36 507,108 147,72 271,170 371,294 101,124 177,267 229,429 52,162 78,335 78,519 0,185 -26,359 -78,523 -52,164 -128,307 -229,429 -100,122 -224,219 -371,291 -147,72 -316,108 -507,108 -191,0 -360,-36 -507,-108 -147,-72 -271,-169 -372,-291 -100,-122 -176,-265 -228,-429 -52,-164 -78,-338 -78,-523l0 0zm191 0c0,154 22,303 65,445 44,142 107,268 191,379 84,110 187,198 311,263 124,66 266,98 427,98 161,0 303,-32 427,-98 123,-65 227,-153 311,-263 83,-111 147,-237 191,-379 43,-142 65,-291 65,-445 0,-153 -22,-302 -65,-444 -44,-142 -108,-268 -191,-379 -84,-110 -188,-198 -311,-263 -124,-66 -266,-98 -427,-98 -161,0 -303,32 -427,98 -124,65 -227,153 -311,263 -84,111 -147,237 -191,379 -43,142 -65,291 -65,444l0 0zm4568 -491c-10,-114 -39,-215 -88,-302 -49,-87 -111,-159 -188,-215 -77,-57 -167,-101 -269,-131 -102,-30 -211,-45 -329,-45 -160,0 -302,32 -426,98 -124,65 -228,152 -311,261 -84,109 -148,232 -191,371 -44,139 -65,282 -65,429 0,174 20,335 60,482 40,148 102,276 186,384 83,109 187,194 311,254 124,60 269,90 436,90 121,0 232,-20 334,-60 102,-40 193,-95 271,-166 79,-70 143,-155 194,-253 50,-99 83,-207 100,-324l191 0c-20,154 -62,291 -126,412 -63,120 -144,221 -241,303 -97,82 -207,145 -331,188 -124,44 -254,66 -392,66 -210,0 -390,-38 -539,-113 -149,-75 -271,-177 -367,-304 -95,-127 -165,-273 -210,-439 -46,-166 -68,-339 -68,-520 0,-180 26,-351 78,-512 51,-160 128,-301 228,-421 100,-121 224,-216 371,-286 148,-71 317,-106 507,-106 141,0 272,18 394,53 123,35 231,88 327,158 95,70 173,160 233,269 60,108 97,235 111,379l-191 0zm853 -1802l0 1556 10 0c34,-97 81,-184 143,-259 62,-75 134,-140 216,-193 82,-54 172,-94 269,-121 97,-26 195,-40 296,-40 150,0 278,19 384,55 105,37 191,86 258,146 67,60 120,128 158,203 39,76 67,152 83,229 17,77 27,151 30,223 4,72 5,135 5,188l0 1597 -190 0 0 -1632c0,-63 -5,-144 -15,-241 -10,-97 -40,-190 -88,-278 -49,-89 -122,-165 -221,-229 -99,-63 -235,-95 -409,-95 -147,0 -278,27 -392,80 -114,54 -211,128 -291,224 -80,95 -141,209 -183,341 -42,132 -63,277 -63,434l0 1396 -191 0 0 -3584 191 0zm4126 3072l-10 0c-30,76 -73,149 -130,218 -57,68 -127,130 -209,183 -82,54 -174,95 -278,126 -104,30 -218,45 -341,45 -275,0 -487,-60 -638,-178 -151,-119 -226,-302 -226,-550 0,-151 30,-274 91,-369 60,-95 136,-171 228,-226 92,-55 194,-94 306,-118 112,-23 220,-40 324,-50l296 -25c137,-10 245,-26 324,-48 78,-22 138,-52 178,-90 40,-39 65,-88 75,-148 10,-61 15,-136 15,-226 0,-70 -13,-136 -40,-196 -27,-60 -68,-114 -125,-161 -57,-46 -131,-83 -221,-110 -91,-27 -201,-40 -331,-40 -231,0 -418,57 -560,171 -142,113 -220,286 -234,517l-190 0c13,-285 104,-498 273,-640 169,-143 409,-214 721,-214 311,0 537,61 680,183 142,123 213,282 213,480l0 1501c0,36 1,73 3,110 1,37 7,70 17,100 10,31 27,55 50,73 24,19 57,28 101,28 33,0 80,-5 140,-15l0 160c-50,14 -102,21 -155,21 -77,0 -138,-11 -184,-31 -45,-20 -79,-46 -102,-80 -24,-33 -40,-73 -48,-118 -9,-45 -13,-94 -13,-148l0 -135zm0 -954c-47,57 -118,95 -213,115 -95,20 -202,35 -319,45l-321 31c-94,10 -187,24 -281,42 -94,19 -178,50 -254,93 -75,44 -136,103 -183,178 -47,76 -70,173 -70,294 0,191 60,332 181,424 120,92 286,138 497,138 217,0 389,-39 517,-118 127,-78 224,-169 291,-271 67,-102 109,-201 128,-296 18,-95 27,-160 27,-193l0 -482z"/>
    </g>
   </g>
   <polygon class="fil2" points="0,0 45533,0 45533,31832 0,31832 "/>
  </g>
 </g>
</svg>
