<?xml version="1.0" encoding="UTF-8"?>
<!DOCTYPE svg PUBLIC "-//W3C//DTD SVG 1.1//EN" "http://www.w3.org/Graphics/SVG/1.1/DTD/svg11.dtd">
<!-- Creator: CorelDRAW X7 -->
<svg xmlns="http://www.w3.org/2000/svg" xml:space="preserve" width="4.55335in" height="3.18323in" version="1.1" style="shape-rendering:geometricPrecision; text-rendering:geometricPrecision; image-rendering:optimizeQuality; fill-rule:evenodd; clip-rule:evenodd"
viewBox="0 0 45533 31832"
 xmlns:xlink="http://www.w3.org/1999/xlink">
 <defs>
  <style type="text/css">
   <![CDATA[
    .fil5 {fill:none}
    .fil2 {fill:#927C53}
    .fil1 {fill:#BB9B61}
    .fil0 {fill:#D1AE70}
    .fil3 {fill:#D2AE6D}
    .fil4 {fill:#E0C598}
   ]]>
  </style>
 </defs>
 <g id="Layer_x0020_1">
  <metadata id="CorelCorpID_0Corel-Layer"/>
  <g id="_1502933122112">
   <g>
    <path class="fil0" d="M18312 10186l-3103 1791c-116,67 -187,191 -187,325l0 3585c0,134 71,258 187,325l3104 1792c116,67 259,67 375,0l3104 -1792c115,-67 187,-191 187,-325l0 -3585c0,-134 -72,-258 -188,-325l-3103 -1791c-58,-34 -123,-50 -188,-50 -65,0 -130,16 -188,50z"/>
    <g>
     <path class="fil1" d="M22580 25462c-108,0 -215,-28 -309,-82l-982 -582c-147,-82 -76,-111 -27,-128 195,-68 235,-84 444,-202 22,-13 51,-8 73,5l755 448c27,14 66,14 91,0l2943 -1699c28,-16 45,-47 45,-80l0 -3396c0,-34 -17,-64 -45,-81l-2942 -1697c-27,-16 -64,-16 -91,0l-2941 1697c-29,16 -47,48 -47,80l0 3397c0,32 18,63 46,78l806 466c437,219 705,-39 705,-298l0 -3352c0,-48 37,-85 85,-85l373 0c47,0 85,37 85,85l0 3353c0,584 -318,919 -872,919 -170,0 -304,0 -678,-184l-772 -445c-191,-111 -309,-317 -309,-537l0 -3397c0,-221 118,-427 309,-536l2946 -1699c186,-106 434,-106 619,0l2942 1700c190,110 309,315 309,536l0 3396c0,221 -119,426 -309,537l-2942 1699c-95,55 -202,83 -311,83l1 1zm0 0l0 0 0 0z"/>
    </g>
    <g>
     <path class="fil1" d="M23489 23122c-1288,0 -1558,-591 -1558,-1087 0,-47 38,-85 85,-85l380 0c42,0 78,31 84,72 58,388 229,583 1008,583 620,0 884,-140 884,-469 0,-189 -76,-330 -1039,-424 -806,-80 -1304,-257 -1304,-902 0,-594 501,-947 1340,-947 942,0 1409,327 1468,1030 2,24 -7,47 -23,65 -16,17 -39,27 -62,27l-383 0c-39,0 -74,-28 -82,-66 -92,-407 -315,-538 -920,-538 -677,0 -755,236 -755,413 0,214 92,277 1006,398 905,120 1334,289 1334,925 0,641 -535,1009 -1467,1009l4 -4zm3580 -3598l99 0c81,0 96,-57 96,-90 0,-87 -59,-87 -92,-87l-102 0 -1 177zm-120 -279l219 0c75,0 222,0 222,168 0,117 -75,142 -120,156 88,6 94,64 106,145 6,51 15,138 33,168l-135 0c-4,-30 -24,-192 -24,-201 -9,-36 -22,-53 -67,-53l-111 0 0 255 -123 0 0 -638zm-263 317c0,264 213,478 475,478 263,0 476,-219 476,-478 0,-264 -216,-474 -477,-474 -258,0 -475,207 -475,473l1 1zm1043 2c0,312 -256,567 -568,567 -309,0 -567,-252 -567,-567 0,-322 264,-568 567,-568 306,0 567,247 567,568l1 0zm0 0l0 0 0 0z"/>
    </g>
    <path class="fil2" d="M13466 12174c0,-136 -71,-260 -188,-328l-3121 -1795c-52,-31 -111,-47 -171,-49l-32 0c-60,2 -119,18 -173,49l-3120 1795c-116,68 -189,193 -189,328l7 4836c0,67 35,129 94,163 57,35 129,35 187,0l1855 -1063c117,-69 188,-193 188,-327l0 -2259c0,-135 72,-259 189,-326l789 -455c59,-34 123,-51 189,-51 64,0 130,17 187,51l790 455c117,67 188,191 188,326l0 2259c0,134 73,258 189,327l1854 1062c58,34 131,34 189,0 57,-34 93,-96 93,-163l6 -4835zm14724 2518c0,33 -18,64 -47,81l-1072 618c-29,17 -65,17 -94,0l-1072 -618c-29,-17 -47,-48 -47,-81l0 -1238c0,-34 18,-65 47,-82l1071 -618c29,-17 65,-17 95,0l1072 618c29,17 47,48 47,82l0 1238zm290 -9165c-59,-33 -130,-32 -188,2 -57,34 -93,96 -93,163l0 4788c0,47 -25,91 -66,114 -40,24 -91,24 -131,0l-782 -450c-116,-67 -260,-67 -377,0l-3121 1802c-117,67 -189,191 -189,325l0 3604c0,135 72,259 189,327l3121 1802c117,67 260,67 377,0l3122 -1803c116,-68 188,-192 188,-327l0 -8981c0,-137 -74,-263 -194,-330l-1856 -1036zm10394 7895c116,-68 187,-192 187,-326l0 -874c0,-134 -71,-258 -187,-326l-3102 -1800c-117,-68 -261,-68 -378,0l-3120 1801c-118,68 -189,192 -189,327l0 3602c0,135 73,261 190,328l3101 1767c114,66 254,66 370,2l1875 -1042c59,-33 97,-96 97,-164 0,-67 -36,-131 -95,-164l-3140 -1802c-59,-33 -95,-96 -95,-163l0 -1130c0,-67 35,-129 94,-163l977 -564c58,-33 130,-33 188,0l977 564c59,33 95,96 95,163l0 888c0,67 36,130 94,164 58,33 130,33 189,-1l1872 -1087zm0 0z"/>
    <path class="fil1" d="M35537 13253c23,-13 50,-13 73,0l599 346c22,13 36,36 36,62l0 692c0,26 -14,50 -36,63l-599 345c-23,13 -50,13 -73,0l-598 -345c-23,-13 -37,-37 -37,-63l0 -692c0,-26 13,-49 36,-62l599 -346zm0 0z"/>
    <path class="fil3" d="M15099 16115c29,38 66,71 110,97l2663 1537 443 255c66,39 142,55 216,49 25,-2 50,-6 74,-13l3273 -5994c-25,-27 -54,-50 -87,-69l-2032 -1174 -1074 -618c-31,-17 -64,-30 -98,-39l-3488 5969z"/>
    <path class="fil1" d="M15209 16212l2710 1564 396 228c65,38 139,54 212,50 9,-1 19,-2 28,-4l-2222 -4047 -1234 2112c29,38 66,71 110,97z"/>
    <path class="fil1" d="M20818 13987l1153 1974c5,-24 8,-49 8,-74l0 -3585c0,-96 -37,-187 -101,-256l-1060 1941z"/>
    <path class="fil4" d="M15218 11957l3337 6078c47,-6 93,-22 134,-46l3103 -1792c94,-55 159,-146 180,-250l-3400 -5818 -259 42 -3095 1786z"/>
   </g>
   <polygon class="fil5" points="0,0 45533,0 45533,31832 0,31832 "/>
  </g>
 </g>
</svg>
