<?xml version="1.0" encoding="UTF-8"?>
<!DOCTYPE svg PUBLIC "-//W3C//DTD SVG 1.1//EN" "http://www.w3.org/Graphics/SVG/1.1/DTD/svg11.dtd">
<!-- Creator: CorelDRAW X7 -->
<svg xmlns="http://www.w3.org/2000/svg" xml:space="preserve" width="4.55335in" height="3.18323in" version="1.1" style="shape-rendering:geometricPrecision; text-rendering:geometricPrecision; image-rendering:optimizeQuality; fill-rule:evenodd; clip-rule:evenodd"
viewBox="0 0 45533 31832"
 xmlns:xlink="http://www.w3.org/1999/xlink">
 <defs>
  <style type="text/css">
   <![CDATA[
    .fil3 {fill:none}
    .fil2 {fill:#A38755}
    .fil0 {fill:#D2AE6D}
    .fil1 {fill:white}
   ]]>
  </style>
 </defs>
 <g id="Layer_x0020_1">
  <metadata id="CorelCorpID_0Corel-Layer"/>
  <g id="_1502933156512">
   <g>
    <circle class="fil0" cx="37828" cy="14122" r="2048"/>
    <path class="fil1" d="M36436 13848c-152,0 -274,123 -274,274 0,151 123,273 274,273 151,0 273,-122 273,-273 0,-151 -122,-274 -273,-274zm1952 1243c-131,75 -176,243 -100,373 75,131 242,176 373,100 131,-75 176,-242 100,-373 -75,-131 -243,-176 -373,-100zm-1359 -969c0,-270 135,-509 340,-654l-200 -335c-239,160 -417,405 -491,691 86,70 142,178 142,298 0,120 -56,227 -142,297 74,287 252,531 491,691l200 -335c-205,-144 -340,-383 -340,-653zm799 -799c417,0 760,320 796,728l389 -6c-19,-301 -151,-571 -353,-770 -104,39 -224,33 -328,-27 -104,-60 -169,-161 -187,-271 -101,-28 -207,-43 -317,-43 -189,0 -368,44 -526,123l190 340c102,-47 216,-74 336,-74zm0 1597c-120,0 -234,-26 -336,-74l-190 340c158,79 337,124 526,124 110,0 216,-16 317,-44 18,-110 83,-211 187,-271 104,-60 224,-66 328,-26 202,-199 334,-470 353,-771l-389 -5c-36,408 -379,727 -796,727zm560 -1768c130,76 298,31 373,-100 76,-130 31,-298 -100,-373 -131,-76 -298,-31 -373,100 -76,131 -31,298 100,373z"/>
    <path class="fil2" d="M9753 19495c-208,52 -482,108 -824,166 -341,59 -736,88 -1185,88 -390,0 -718,-57 -985,-171 -266,-114 -481,-274 -643,-483 -163,-208 -280,-453 -351,-736 -72,-283 -107,-596 -107,-941l0 -2847 906 0 0 2652c0,618 98,1060 293,1326 195,267 523,400 985,400 98,0 198,-3 302,-10 104,-6 202,-14 293,-24 91,-10 174,-19 249,-29 74,-10 128,-21 160,-34l0 -4281 907 0 0 4924 0 0zm25189 0c-208,52 -483,108 -824,166 -342,59 -737,88 -1185,88 -390,0 -719,-57 -985,-171 -267,-114 -481,-274 -644,-483 -162,-208 -279,-453 -351,-736 -72,-283 -107,-596 -107,-941l0 -2847 907 0 0 2652c0,618 97,1060 292,1326 195,267 524,400 985,400 98,0 199,-3 303,-10 103,-6 201,-14 292,-24 91,-10 174,-19 249,-29 75,-10 128,-21 161,-34l0 -4281 907 0 0 4924zm-6856 -4924l1921 0 0 760 -1921 0 0 2341c0,253 20,463 59,629 39,165 97,296 175,390 78,94 176,161 293,200 117,39 253,58 409,58 280,0 501,-31 664,-92 162,-62 273,-106 331,-132l195 741c-91,46 -252,104 -483,176 -230,71 -492,107 -785,107 -344,0 -629,-44 -853,-132 -224,-88 -405,-219 -541,-395 -137,-175 -233,-391 -288,-648 -55,-257 -83,-554 -83,-893l0 -4524 907 -156 0 1570 0 0zm-6192 146c208,-52 484,-107 829,-166 344,-58 741,-88 1190,-88 403,0 737,57 1004,171 267,114 479,273 639,478 159,205 271,450 336,736 65,286 98,602 98,946l0 2847 -907 1 0 -2653c0,-312 -21,-578 -64,-800 -42,-221 -112,-399 -209,-536 -98,-136 -228,-236 -390,-297 -163,-62 -365,-93 -605,-93 -97,0 -198,3 -302,10 -104,6 -203,14 -298,24 -94,10 -179,21 -253,34 -75,13 -129,23 -161,30l0 4280 -907 0 0 -4924zm-1307 4778c-208,52 -482,108 -824,166 -341,59 -736,88 -1184,88 -391,0 -719,-57 -985,-171 -267,-114 -482,-274 -644,-483 -163,-208 -280,-453 -351,-736 -72,-283 -107,-596 -107,-941l0 -2847 907 0 0 2652c0,618 97,1060 292,1326 195,267 523,400 985,400 97,0 198,-3 302,-10 104,-6 202,-14 293,-24 91,-10 174,-19 249,-29 74,-10 128,-21 160,-34l0 -4281 907 0 0 4924 0 0zm-8620 -4700c110,-71 278,-146 502,-224 224,-78 483,-117 775,-117 364,0 688,65 971,195 282,130 521,312 716,546 195,234 343,513 444,838 101,326 151,683 151,1073 0,410 -60,779 -180,1107 -120,328 -291,606 -512,834 -221,227 -488,403 -800,526 -312,124 -663,186 -1053,186 -423,0 -796,-30 -1121,-88 -326,-59 -592,-117 -800,-176l0 -7265 907 -156 0 2721zm0 4057c91,26 219,50 385,73 166,23 372,34 619,34 488,0 878,-161 1170,-483 293,-322 439,-778 439,-1370 0,-260 -26,-504 -78,-731 -52,-228 -136,-425 -253,-590 -117,-166 -268,-296 -454,-390 -185,-95 -408,-142 -668,-142 -247,0 -474,43 -682,127 -208,85 -368,172 -478,263l0 3209z"/>
   </g>
   <polygon class="fil3" points="0,0 45533,0 45533,31832 0,31832 "/>
  </g>
 </g>
</svg>
