<?xml version="1.0" encoding="utf-8"?>
<!-- Generator: Adobe Illustrator 19.0.0, SVG Export Plug-In . SVG Version: 6.00 Build 0)  -->
<svg version="1.1" id="Layer_1" xmlns="http://www.w3.org/2000/svg" xmlns:xlink="http://www.w3.org/1999/xlink" x="0px" y="0px"
	 width="1400px" height="980px" viewBox="0 0 1400 980" enable-background="new 0 0 1400 980" xml:space="preserve">
<radialGradient id="XMLID_110_" cx="700" cy="490" r="953.9198" gradientUnits="userSpaceOnUse">
	<stop  offset="0" style="stop-color:#5BB8E8"/>
	<stop  offset="0.1422" style="stop-color:#52AFE1"/>
	<stop  offset="0.3784" style="stop-color:#3B99D0"/>
	<stop  offset="0.6791" style="stop-color:#037AB9"/>
	<stop  offset="1" style="stop-color:#005AA0"/>
</radialGradient>
<rect id="XMLID_107_" fill-rule="evenodd" clip-rule="evenodd" fill="url(#XMLID_110_)" width="1400" height="980"/>
<g id="XMLID_1_">
	<path id="XMLID_2_" fill-rule="evenodd" clip-rule="evenodd" fill="#80B5D7" d="M533.7,630.5h35.4l398.7-228.6
		c20.2-11.7,51.1-12.9,68.5-2.8l143,82.5h38.8v33.3c-0.3,7.7-5.9,15.7-16.7,21.9L784.1,776.2c-20.2,11.7-51.1,12.9-68.6,2.8
		l-170-98.2c-8.4-4.8-12.2-11.4-11.8-18.2h-0.1V630.5z"/>
	<path id="XMLID_3_" fill-rule="evenodd" clip-rule="evenodd" fill="#80B5D7" d="M550.5,609.1c-20.2,11.7-22.5,29.5-4.9,39.6
		l170,98.2c17.5,10.1,48.4,8.8,68.6-2.9l417.4-239.4c20.2-11.7,22.4-29.5,4.9-39.6l-170.1-98.2c-17.5-10.1-48.3-8.8-68.5,2.8
		L550.5,609.1z"/>
	<path id="XMLID_4_" fill-rule="evenodd" clip-rule="evenodd" fill="#80B5D7" d="M721.1,743.7c14.9,8.6,41.1,7.5,58.3-2.4
		l417.4-239.4c17.2-9.9,19.1-25,4.2-33.6L1030.9,370c-14.9-8.6-41-7.5-58.3,2.4L555.2,611.9c-17.2,10-19.1,25-4.2,33.6L721.1,743.7z
		"/>
	<polygon id="XMLID_5_" fill-rule="evenodd" clip-rule="evenodd" fill="#80B5D7" points="603.4,594.6 809.2,713.4 1147.4,519.7 
		941.6,400.9 	"/>
	<polygon id="XMLID_6_" fill-rule="evenodd" clip-rule="evenodd" fill="#80B5D7" points="941.6,400.9 809.2,713.4 1147.4,519.7 	"/>
	
		<polygon id="XMLID_7_" fill-rule="evenodd" clip-rule="evenodd" fill="#705F47" stroke="#705F47" stroke-width="0.2268" stroke-miterlimit="10" points="
		436.7,242.4 730.9,411.8 730.9,505.7 436.7,336.2 	"/>
	
		<polygon id="XMLID_8_" fill-rule="evenodd" clip-rule="evenodd" fill="#705F47" stroke="#705F47" stroke-width="0.2268" stroke-miterlimit="10" points="
		730.9,505.7 925.3,393.7 925.3,299.8 730.9,411.8 	"/>
	
		<polygon id="XMLID_9_" fill-rule="evenodd" clip-rule="evenodd" fill="#705F47" stroke="#705F47" stroke-width="0.2268" stroke-miterlimit="10" points="
		436.7,242.4 631.2,130.4 925.3,299.8 730.9,411.8 	"/>
	
		<polygon id="XMLID_10_" fill-rule="evenodd" clip-rule="evenodd" fill="#705F47" stroke="#705F47" stroke-width="0.2268" stroke-miterlimit="10" points="
		448.1,281.6 520.4,323.3 520.4,336.7 448.1,295 	"/>
	
		<polygon id="XMLID_11_" fill-rule="evenodd" clip-rule="evenodd" fill="#705F47" stroke="#705F47" stroke-width="0.2268" stroke-miterlimit="10" points="
		448.1,301.8 520.4,343.5 520.4,356.8 448.1,315.2 	"/>
	
		<polygon id="XMLID_12_" fill-rule="evenodd" clip-rule="evenodd" fill="#705F47" stroke="#705F47" stroke-width="0.2268" stroke-miterlimit="10" points="
		526.6,331.4 719.5,442.3 719.5,466.4 526.6,355.5 	"/>
	
		<polygon id="XMLID_13_" fill-rule="evenodd" clip-rule="evenodd" fill="#705F47" stroke="#705F47" stroke-width="0.2268" stroke-miterlimit="10" points="
		529.5,254.8 552.1,267.8 540.6,274.4 518,261.4 	"/>
	
		<polygon id="XMLID_14_" fill-rule="evenodd" clip-rule="evenodd" fill="#705F47" stroke="#705F47" stroke-width="0.2268" stroke-miterlimit="10" points="
		597.4,293.7 620,306.7 608.5,313.3 585.9,300.3 	"/>
	
		<polygon id="XMLID_15_" fill-rule="evenodd" clip-rule="evenodd" fill="#705F47" stroke="#705F47" stroke-width="0.2268" stroke-miterlimit="10" points="
		665.3,332.6 687.9,345.6 676.4,352.3 653.8,339.2 	"/>
	<polygon id="XMLID_16_" fill-rule="evenodd" clip-rule="evenodd" fill="#80B5D7" points="843.5,376.1 849.2,385.4 1117.5,229.7 
		1111.7,220.4 	"/>
	<polygon id="XMLID_17_" fill-rule="evenodd" clip-rule="evenodd" fill="#231914" points="843.5,371.5 849.2,380.8 1117.5,225.2 
		1111.7,215.8 	"/>
	<path id="XMLID_18_" fill-rule="evenodd" clip-rule="evenodd" fill="#80B5D7" d="M412.7,606.4c9.8,5.6,17,12.3,20.2,18.6
		c3.3,6.5,2.5,12.6-3.5,16.5c-6.1,4-16.3,4.9-27.6,3c-11.2-1.8-23.3-6.3-33.4-12.9c-9.8-6.3-15.7-13.3-17.5-19.5
		c-1.7-5.9,0.4-11.1,6.6-14.2c6.1-3.1,15.1-3.7,24.8-2.2C392.2,597.3,402.9,600.9,412.7,606.4L412.7,606.4z"/>
	<polygon id="XMLID_19_" fill-rule="evenodd" clip-rule="evenodd" fill="#80B5D7" points="358.6,468.8 468.7,405.4 468.7,405.4 
		475.4,409.2 484.3,404.2 477.6,400.3 477.6,400.3 492.7,391.6 550.5,387.5 653.8,447 620.6,466.1 615.2,463 575,486.1 580.5,489.2 
		487.3,542.9 	"/>
	<polygon id="XMLID_20_" fill-rule="evenodd" clip-rule="evenodd" fill="#80B5D7" points="484.3,404.2 477.5,400.3 477.5,408.1 	"/>
	<polygon id="XMLID_21_" fill-rule="evenodd" clip-rule="evenodd" fill="#80B5D7" points="358.6,468.8 487.3,542.9 487.3,555 
		358.6,480.9 	"/>
	<path id="XMLID_23_" fill-rule="evenodd" clip-rule="evenodd" fill="#80B5D7" d="M487.3,555l93.2-53.9v-11.9l-93.2,53.7V555z
		 M653.8,458.7V447l-33.2,19.1l0,0v11.6L653.8,458.7z"/>
	<polygon id="XMLID_25_" fill-rule="evenodd" clip-rule="evenodd" fill="#80B5D7" points="615.2,463 615.2,474.4 620.6,477.7 
		620.6,466.1 	"/>
	<polygon id="XMLID_26_" fill-rule="evenodd" clip-rule="evenodd" fill="#80B5D7" points="615.2,463 615.2,474.4 580.5,494.5 
		580.5,489.2 575,486.1 	"/>
	<polygon id="XMLID_27_" fill-rule="evenodd" clip-rule="evenodd" fill="#80B5D7" points="503.4,415.2 531,399.3 521.1,393.7 
		493.6,409.5 	"/>
	<polygon id="XMLID_28_" fill-rule="evenodd" clip-rule="evenodd" fill="#80B5D7" points="532.8,415.4 560.3,399.5 550.5,393.9 
		522.9,409.7 	"/>
	<polygon id="XMLID_29_" fill-rule="evenodd" clip-rule="evenodd" fill="#80B5D7" points="546.4,423.4 573.9,407.5 564.1,401.8 
		536.5,417.7 	"/>
	<polygon id="XMLID_30_" fill-rule="evenodd" clip-rule="evenodd" fill="#80B5D7" points="560,431.3 587.6,415.4 577.7,409.8 
		550.2,425.6 	"/>
	<polygon id="XMLID_31_" fill-rule="evenodd" clip-rule="evenodd" fill="#80B5D7" points="573.6,439.2 601.2,423.4 591.3,417.7 
		563.8,433.6 	"/>
	<polygon id="XMLID_32_" fill-rule="evenodd" clip-rule="evenodd" fill="#80B5D7" points="587.2,447.2 614.8,431.3 605,425.7 
		577.4,441.5 	"/>
	<polygon id="XMLID_33_" fill-rule="evenodd" clip-rule="evenodd" fill="#80B5D7" points="600.9,455.1 628.4,439.3 618.6,433.6 
		591,449.5 	"/>
	<polygon id="XMLID_34_" fill-rule="evenodd" clip-rule="evenodd" fill="#80B5D7" points="442.5,251.2 720.2,411.2 720.2,499.8 
		442.5,339.8 	"/>
	<polygon id="XMLID_35_" fill-rule="evenodd" clip-rule="evenodd" fill="#80B5D7" points="720.2,499.8 903.9,394 903.9,305.4 
		720.2,411.2 	"/>
	<polygon id="XMLID_36_" fill-rule="evenodd" clip-rule="evenodd" fill="#80B5D7" points="442.5,251.2 626.2,145.4 903.9,305.4 
		720.2,411.2 	"/>
	<polygon id="XMLID_37_" fill-rule="evenodd" clip-rule="evenodd" fill="#80B5D7" points="453.3,288.3 521.5,327.6 521.5,340.2 
		453.3,300.9 	"/>
	<polygon id="XMLID_38_" fill-rule="evenodd" clip-rule="evenodd" fill="#80B5D7" points="453.3,307.3 521.5,346.6 521.5,359.3 
		453.3,319.9 	"/>
	<polygon id="XMLID_39_" fill-rule="evenodd" clip-rule="evenodd" fill="#80B5D7" points="527.4,335.2 709.5,439.9 709.5,462.7 
		527.4,358 	"/>
	<polygon id="XMLID_40_" fill-rule="evenodd" clip-rule="evenodd" fill="#80B5D7" points="530.1,262.9 551.4,275.2 540.6,281.4 
		519.2,269.1 	"/>
	<polygon id="XMLID_41_" fill-rule="evenodd" clip-rule="evenodd" fill="#80B5D7" points="594.2,299.6 615.6,311.9 604.7,318.2 
		583.3,305.9 	"/>
	<polygon id="XMLID_42_" fill-rule="evenodd" clip-rule="evenodd" fill="#80B5D7" points="658.3,336.4 679.7,348.7 668.8,354.9 
		647.4,342.6 	"/>
	<polygon id="XMLID_43_" fill-rule="evenodd" clip-rule="evenodd" fill="#C3BEBB" points="428.9,221.5 723,390.9 723,484.7 
		428.9,315.3 	"/>
	<polygon id="XMLID_44_" fill-rule="evenodd" clip-rule="evenodd" fill="#9E9E9E" points="723,484.7 917.5,372.7 917.5,278.9 
		723,390.9 	"/>
	<polygon id="XMLID_45_" fill-rule="evenodd" clip-rule="evenodd" fill="#F2EBE7" points="428.9,221.5 623.4,109.4 917.5,278.9 
		723,390.9 	"/>
	<polygon id="XMLID_46_" fill-rule="evenodd" clip-rule="evenodd" fill="#2D2D2D" points="440.3,260.7 512.6,302.4 512.6,315.8 
		440.3,274.1 	"/>
	<polygon id="XMLID_47_" fill-rule="evenodd" clip-rule="evenodd" fill="#2D2D2D" points="440.3,280.9 512.6,322.5 512.6,335.9 
		440.3,294.3 	"/>
	<polygon id="XMLID_48_" fill-rule="evenodd" clip-rule="evenodd" fill="#2D2D2D" points="518.7,310.4 711.6,421.3 711.6,445.5 
		518.7,334.6 	"/>
	<polygon id="XMLID_49_" fill-rule="evenodd" clip-rule="evenodd" fill="#E41E26" points="521.6,233.8 544.3,246.9 532.8,253.5 
		510.1,240.5 	"/>
	<polygon id="XMLID_50_" fill-rule="evenodd" clip-rule="evenodd" fill="#E41E26" points="589.5,272.7 612.2,285.8 600.7,292.4 
		578,279.4 	"/>
	<polygon id="XMLID_51_" fill-rule="evenodd" clip-rule="evenodd" fill="#E41E26" points="657.4,311.7 680.1,324.7 668.6,331.3 
		645.9,318.3 	"/>
	<path id="XMLID_52_" fill-rule="evenodd" clip-rule="evenodd" d="M420.7,482.5c-0.6-0.4-2.3,0.6-4.7,3.2c-0.6-0.2-1.3,0-1.9,0.4
		c-2.6,0.6-3.6-0.4-5.5-1.1c-0.2,0.2-1.5,1.9-1.5,2.6c-0.2,1.7,0,4.7,1.1,5.3c2.3,1.1,7.4,0.9,10,1.3c3.2,0.4,6.2,1.5,9.3,1.7
		c1.9,0.2,6.6-1.3,7.2-3.8c0.2-0.9-1.7-1.9-2.3-2.3c-3.4-3.2-6.8-3.4-10.6-6C421.5,483.1,421.1,482.7,420.7,482.5L420.7,482.5z"/>
	<path id="XMLID_53_" fill-rule="evenodd" clip-rule="evenodd" d="M393.5,462.9c-0.6-0.4-2.3,0.6-4.7,3.2c-0.6-0.2-1.3,0-1.9,0.4
		c-2.6,0.6-3.6-0.4-5.5-1.1c-0.2,0.2-1.5,1.9-1.5,2.6c-0.2,1.7,0,4.7,1.1,5.3c2.3,1.1,7.4,0.9,10,1.3c3.2,0.4,6.2,1.5,9.3,1.7
		c1.9,0.2,6,0.2,6.6-2.3c0.2-0.9-1.1-3.4-1.7-3.8c-3.4-3.2-6.8-3.4-10.6-6C394.3,463.8,393.9,463.3,393.5,462.9L393.5,462.9z"/>
	<path id="XMLID_54_" fill-rule="evenodd" clip-rule="evenodd" fill="#EEC3A1" d="M429,372.8l1.5,6.4c0,0,13.8,10.6,18.7,14.2
		c0,0,9.1,1.9,8.9,7c-0.2,5.1-8.1,6-13.6-1.3c0,0-16.2-6.8-19.8-10.4c-3.4-3.8-8.5-12.3-8.5-12.3L429,372.8z"/>
	<path id="XMLID_55_" fill-rule="evenodd" clip-rule="evenodd" fill="#231914" d="M416.2,379.2c0,0,4,0.2,8.7-1.5
		c4.5-1.7,5.9-3.2,5.9-3.2s-5.7-24.2-16.1-20.6C404.1,357.7,416.2,379.2,416.2,379.2L416.2,379.2z"/>
	<path id="XMLID_56_" fill-rule="evenodd" clip-rule="evenodd" fill="#343433" d="M416,417.6c0,0-9.4,27.6-12.1,31.9
		c-3,4.3-10.6,17.4-10.6,17.4s-9.4,4-11.7-0.8c0,0,2.3-15.9,7.9-23c0,0,4.7-28.5,8.1-30.4C400.7,410.8,416,417.6,416,417.6
		L416,417.6z"/>
	<path id="XMLID_57_" fill-rule="evenodd" clip-rule="evenodd" fill="#4A484A" d="M389.4,416.4c0,0-0.9,6.8,2.3,13
		c3.2,6.2,10.6,22.3,10.6,22.3l6.6,35.3c0,0,7,1.7,13.2-1.7c0,0-2.5-27.8-3.8-33.4c-1.1-5.5-8.1-33.2-8.1-33.2L389.4,416.4z"/>
	<path id="XMLID_58_" fill-rule="evenodd" clip-rule="evenodd" d="M417.1,352.8c0,0-16.6-5.3-29.5,7v58.9c0,0,17.4,6.4,31.5,0
		l3.2-57.6C422.2,361.1,421.1,355.4,417.1,352.8L417.1,352.8z"/>
	<path id="XMLID_59_" fill-rule="evenodd" clip-rule="evenodd" fill="#E4B492" d="M401.8,349.4l-4.9,4.9c0,0,3.2,10.6,11.1,7.7
		c7.9-3,1.7-10,1.7-10v-5.1L401.8,349.4z"/>
	<path id="XMLID_60_" fill-rule="evenodd" clip-rule="evenodd" fill="#EEC3A1" d="M402,378.5l1.5,6.4c0,0,13.8,10.6,18.7,14.2
		c0,0,9.1,1.9,8.9,7c-0.2,5.1-8.1,5.9-13.6-1.3c0,0-16.2-6.8-19.8-10.4c-3.4-3.8-8.5-12.3-8.5-12.3L402,378.5z"/>
	<path id="XMLID_61_" fill-rule="evenodd" clip-rule="evenodd" fill="#231914" d="M389.2,385.1c0,0,4,0.2,8.7-1.5
		c4.5-1.7,5.9-3.2,5.9-3.2s-5.7-24.2-16.1-20.6C377.1,363.4,389.2,385.1,389.2,385.1L389.2,385.1z"/>
	<path id="XMLID_62_" fill-rule="evenodd" clip-rule="evenodd" fill="#EEC3A1" d="M392.2,341.3L392.2,341.3c0.4-0.4,0.6-0.6,0.9-0.8
		c0.2,0,0.2-0.2,0.4-0.2c0.2,0,0.2,0,0.4,0c0.4,0,0.8,0.4,1.3,0.9c0.2,0.2,0.2,0.4,0.4,0.6c0.6,0.8,1.1,2.3,1.5,4
		c0.6,0.4,1.1,0.6,1.5,0.6c0-0.6,0.2-1.5,0.2-2.5c0-0.6,0-1.3,0-2.1c0-0.2,0-0.6,0-0.9c0-0.6,0-1.3,0-1.7l-1.3-3
		c0-1.1,0.2-2.3,1.1-3.4c0.6-0.9,1.3-1.5,2.1-1.5h0.2h0.8c1.1,0.6,2.6,1.5,4.5,2.5c1.9,1.1,3.8,1.5,5.9,1.5c1.9,0,3.4-0.4,4-1.1
		c0.6-0.6,1.1-1.3,1.3-1.7c0.4,1.3,0.6,2.3,0.6,2.8c0,0.9,0,2.1,0,3.6l-0.2,1.9c-0.2,4.3-0.6,7.4-1.3,9.3c-0.6,1.9-1.5,3.4-2.1,4.3
		l0,0l0,0c-0.4,0.4-0.6,0.9-0.9,1.1c-0.2,0.2-0.4,0.4-0.9,0.6c-0.2,0-0.2,0.2-0.4,0.2c-0.2,0.2-0.4,0.2-0.6,0.4
		c-0.2,0-0.4,0.2-0.9,0.2c-0.4,0.2-1.1,0.4-1.9,0.2c-1.3,0-2.5-0.2-3.6-0.6c-1.7-0.6-3.4-1.7-4.9-3.4c-1.1-1.1-1.9-2.3-2.8-3.8
		c-0.4-0.9-0.9-1.7-1.3-2.6c-0.2,0.2-0.2,0.4-0.4,0.4l0,0h-0.2c0,0,0,0-0.2,0c-0.6,0-1.5-0.6-2.3-2.1c-0.6-1.1-1.1-2.1-1.3-3
		c0,0,0,0,0-0.2v-0.2C391.8,342.4,392,341.8,392.2,341.3L392.2,341.3z"/>
	<path id="XMLID_63_" fill-rule="evenodd" clip-rule="evenodd" d="M406,334.3c1.9,1.1,3.8,1.5,6,1.5c2,0,5.3-0.7,5.5-3.2
		c-2.2-6.5-7.5-8.7-14-8.7c-5.7,0.4-9.4,3.8-10.4,10.2c-0.4,1.9-0.4,4-0.2,6.6c0.2,0,0.2-0.2,0.4-0.2c0.2,0,0.2,0,0.4,0
		c0.4,0,0.9,0.4,1.3,0.8c0.2,0.2,0.2,0.4,0.4,0.6c0.6,0.9,1.1,2.3,1.5,4c0.6,0.4,1.8,1.4,2.3,1.4c0-2.3,0.2-5.4,0.2-7.8
		C400.8,334.6,403,333,406,334.3L406,334.3z"/>
	<polygon id="XMLID_64_" fill-rule="evenodd" clip-rule="evenodd" fill="#4A494A" points="358.6,437 468.7,373.6 468.7,373.6 
		475.4,377.4 484.3,372.4 477.6,368.5 477.6,368.5 492.7,359.8 550.5,355.6 653.8,415.1 620.6,434.3 615.2,431.1 575,454.2 
		580.5,457.4 487.3,511.1 	"/>
	<polygon id="XMLID_65_" fill-rule="evenodd" clip-rule="evenodd" fill="#302F2D" points="484.3,372.4 477.5,368.5 477.5,376.3 	"/>
	<polygon id="XMLID_66_" fill-rule="evenodd" clip-rule="evenodd" fill="#302F2D" points="358.6,437 487.3,511.1 487.3,523.2 
		358.6,449 	"/>
	<path id="XMLID_68_" fill-rule="evenodd" clip-rule="evenodd" fill="#141412" d="M487.3,523.2l93.2-53.9v-11.9l-93.2,53.7V523.2z
		 M653.8,426.8v-11.7l-33.2,19.1l0,0v11.6L653.8,426.8z"/>
	<polygon id="XMLID_70_" fill-rule="evenodd" clip-rule="evenodd" fill="#302F2D" points="615.2,431.1 615.2,442.6 620.6,445.8 
		620.6,434.3 	"/>
	<polygon id="XMLID_71_" fill-rule="evenodd" clip-rule="evenodd" fill="#141412" points="615.2,431.1 615.2,442.6 580.5,462.6 
		580.5,457.4 575,454.2 	"/>
	<polygon id="XMLID_72_" fill-rule="evenodd" clip-rule="evenodd" fill="#F7DE28" points="503.4,383.4 531,367.5 521.1,361.8 
		493.6,377.7 	"/>
	<polygon id="XMLID_73_" fill-rule="evenodd" clip-rule="evenodd" fill="#F7DE28" points="532.8,383.6 560.3,367.7 550.5,362 
		522.9,377.9 	"/>
	<polygon id="XMLID_74_" fill-rule="evenodd" clip-rule="evenodd" fill="#F7DE28" points="546.4,391.5 573.9,375.6 564.1,370 
		536.5,385.9 	"/>
	<polygon id="XMLID_75_" fill-rule="evenodd" clip-rule="evenodd" fill="#F7DE28" points="560,399.5 587.6,383.6 577.7,377.9 
		550.2,393.8 	"/>
	<polygon id="XMLID_76_" fill-rule="evenodd" clip-rule="evenodd" fill="#F7DE28" points="573.6,407.4 601.2,391.5 591.3,385.9 
		563.8,401.7 	"/>
	<polygon id="XMLID_77_" fill-rule="evenodd" clip-rule="evenodd" fill="#F7DE28" points="587.2,415.4 614.8,399.5 605,393.8 
		577.4,409.7 	"/>
	<polygon id="XMLID_78_" fill-rule="evenodd" clip-rule="evenodd" fill="#F7DE28" points="600.9,423.3 628.4,407.4 618.6,401.8 
		591,417.6 	"/>
	<path id="XMLID_79_" fill-rule="evenodd" clip-rule="evenodd" fill="#623B15" d="M366.2,616.2c0.4-1.1,2.6-1.9,3.4-1.7
		c1.7,0.4,5.6,0.9,5.4,0.9c0.2,0.2,3-0.2,3.4,0.2c0.4,0.2,1.3,0.4,2.4,0.6c1.1,0.2,1.5,1.1,1.3,2.1c-0.2,1.1-0.4,1.9-0.9,2.4
		c-0.4,0.4-1.3,0.9-2.6,1.3l-0.2,0.2c-0.4,0.2-0.9,0.4-1.5,0.9c-0.6,0.6-1.1,1.3-1.7,1.9c-1.5,1.3-4.5,0.9-6.2,0.4
		C364.9,624.4,365.2,619.5,366.2,616.2L366.2,616.2z"/>
	<path id="XMLID_80_" fill-rule="evenodd" clip-rule="evenodd" fill="#623B15" d="M415.7,617.3c0,0.2,3.2,1.1,3.4,1.1
		c1.7,0.2,3.9,0.4,5.6,0.6c1.3,0.2,1.9,2.1,1.3,3.2c-0.4,0.9-2.8,2.1-6.9,3.7c-0.6,0.2-1.3,0.4-1.9,0.6s-1.1,0.2-1.7,0.4
		c-0.6,0-1.1,0.2-1.7,0.2c-0.4,0-1.1,0.4-1.7,0.6c-1.1,0.4-2.1,0.9-3.4,0.6c-1.7,0-4.9-0.9-5.2-3c0-1.5,0.2-3.2,0.4-4.7
		C406.2,619.2,409,617.3,415.7,617.3L415.7,617.3z"/>
	<path id="XMLID_81_" fill-rule="evenodd" clip-rule="evenodd" fill="#2E2E2F" d="M365.4,541.7c0,0-3.9,10.1,1.7,15.5
		c4.9,4.5,4.3,17.6,4.7,20c0,0-1.1,4.1-1.9,8.8c-0.9,4.7-1.3,27.1-2.8,30.3c0,0,3.4,3.4,11.8,0c0,0,4.3-29,7.3-32.9
		c2.8-3.9,0.9-29.4,0.9-29.4l-5.6-8.6L365.4,541.7z"/>
	<path id="XMLID_82_" fill-rule="evenodd" clip-rule="evenodd" fill="#3D3D3E" d="M397.2,548.1c0,0,10.1,17.6,12,23.4
		c1.9,6,1.3,14.6,2.4,24.1c1.1,9.5,2.8,23.2,2.8,23.2s-6,3.9-10.5,2.4c0,0,0.9-4.3-1.1-9.7c-1.9-5.2-7.3-24.9-6.4-33.3
		c0,0-9.2-14.4-13.3-16.5c-4.1-2.1-9-10.3-7.1-18.7C377.6,534.6,397.2,548.1,397.2,548.1L397.2,548.1z"/>
	<path id="XMLID_83_" fill-rule="evenodd" clip-rule="evenodd" fill="#EEC3A1" d="M370.3,506.9c-2-8.4,12.3-11.8,16.2-12.7
		c1.8-0.3,2.9-0.6,3.8-0.6c0-0.2,0.3-0.6,0.4-1c1.2-3.3,4.3-9.3,5.4-13.7c0.7-2.5,1.4-5.2,1.4-5.6c1.9-7.3,1.8-9.3,3.8-8.1
		c4.5,2.8,2.6,12.5,1.2,13.3c-1,0.5-1.6,6.9-3,12.1c-1.4,5.4-3.6,10.7-6.1,11.4c-3.4,0.7-7.3,2.9-13.8,6.3
		C373.4,512,370.3,506.9,370.3,506.9L370.3,506.9z"/>
	<path id="XMLID_84_" fill-rule="evenodd" clip-rule="evenodd" fill="#EED97E" d="M369.4,506.5c-0.7-11.3,16.1-14.2,20.4-14.5
		l4.1,11.9c-3.7,0.8-8.2,1.8-15.3,5.6C371.6,513.5,369.4,506.5,369.4,506.5L369.4,506.5z"/>
	<path id="XMLID_85_" fill-rule="evenodd" clip-rule="evenodd" fill="#F7BE16" d="M370.1,502.3c1.1-2.4,2.8-6.4,10.1-6.7
		c7.3-0.2,11.8,2.4,13.8,6.2c2.1,4.3,3.4,3,0,16.3c-3.4,13.3,0.6,22.6,4.1,27.9c3.4,5.2,0,4.7,0,4.7s-24.5,6.4-33.5-7.9
		c0,0,4.3-12.7,4.3-17.6C368.6,520.4,368.4,506.4,370.1,502.3L370.1,502.3z"/>
	<path id="XMLID_86_" fill-rule="evenodd" clip-rule="evenodd" fill="#EEC3A1" d="M393.3,479.1c0,0,1.5,13.5-7.1,15.3
		c-8.8,1.7-7.5-10.3-7.5-10.3l5.2-7.1L393.3,479.1z"/>
	<path id="XMLID_87_" fill-rule="evenodd" clip-rule="evenodd" fill="#623B15" d="M394,477.8c0,0,0.4-11.2-8.6-12.9
		c-8.6-1.7-17,1.7-18.1,14.2c-1.1,12.2,9.9,17.4,18.9,15.3c0,0-1.3-5.2-1.1-8.8c0.2-3.6,2.1-6.2,3-0.6
		C388.1,484.7,392.7,481.1,394,477.8L394,477.8z"/>
	<path id="XMLID_88_" fill-rule="evenodd" clip-rule="evenodd" fill="#EEC3A1" d="M387,512.6c-2-8.4,12.3-11.8,16.2-12.7
		c1.8-0.3,2.9-0.6,3.8-0.6c0-0.2,0.3-0.6,0.4-1c1.2-3.3,4.3-9.3,5.5-13.7c0.7-2.5,1.3-5.2,1.4-5.6c1.9-7.3,1.8-9.3,3.8-8.1
		c4.5,2.8,2.6,12.5,1.2,13.3c-1,0.5-1.6,6.9-3,12.1c-1.4,5.4-3.6,10.7-6.1,11.4c-3.4,0.7-7.3,2.9-13.8,6.3
		C390,517.7,387,512.6,387,512.6L387,512.6z"/>
	<path id="XMLID_89_" fill-rule="evenodd" clip-rule="evenodd" fill="#EED97E" d="M386,512.2c-0.7-11.3,16.1-14.2,20.4-14.5
		l4.1,11.9c-3.7,0.8-8.2,1.8-15.3,5.6C388.3,519.2,386,512.2,386,512.2L386,512.2z"/>
	<path id="XMLID_90_" fill-rule="evenodd" clip-rule="evenodd" fill="#C3BEBB" d="M528.1,604h35.4l398.7-228.6
		c20.2-11.7,51.1-12.9,68.5-2.8l143,82.5h38.8v33.3c-0.3,7.7-5.9,15.7-16.7,21.9L778.5,749.7c-20.2,11.7-51.1,12.9-68.6,2.8
		l-170-98.2c-8.4-4.8-12.2-11.4-11.8-18.2h-0.1V604z"/>
	<path id="XMLID_91_" fill-rule="evenodd" clip-rule="evenodd" fill="#FFFFFF" d="M544.9,582.6c-20.2,11.7-22.5,29.5-4.9,39.6
		l170,98.2c17.5,10.1,48.4,8.8,68.6-2.9l417.4-239.4c20.2-11.7,22.4-29.5,4.9-39.6l-170.1-98.2c-17.5-10.1-48.4-8.8-68.5,2.8
		L544.9,582.6z"/>
	<path id="XMLID_92_" fill-rule="evenodd" clip-rule="evenodd" fill="#F2EBE7" d="M715.5,717.2c14.9,8.6,41,7.5,58.3-2.4
		l417.4-239.4c17.2-9.9,19.1-25,4.2-33.6l-170.1-98.2c-14.9-8.6-41-7.5-58.3,2.4L549.6,585.4c-17.2,9.9-19.1,25-4.2,33.6
		L715.5,717.2z"/>
	<polygon id="XMLID_93_" fill-rule="evenodd" clip-rule="evenodd" fill="#364154" points="597.8,568.1 803.6,687 1141.8,493.3 
		936,374.4 	"/>
	<polygon id="XMLID_94_" fill-rule="evenodd" clip-rule="evenodd" fill="#455062" points="936,374.4 803.6,687 1141.8,493.3 	"/>
	<path id="XMLID_95_" fill-rule="evenodd" clip-rule="evenodd" fill="#2B3443" d="M750.6,594.4c-9.8,5.6-17,12.3-20.2,18.6
		c-3.3,6.5-2.5,12.6,3.5,16.5c6.1,4,16.3,4.9,27.6,3c11.2-1.8,23.3-6.3,33.4-12.9c9.8-6.3,15.7-13.3,17.5-19.5
		c1.7-5.9-0.4-11.1-6.6-14.2c-6.1-3.1-15.1-3.7-24.8-2.2C771.2,585.3,760.5,588.8,750.6,594.4L750.6,594.4z"/>
	<path id="XMLID_96_" fill-rule="evenodd" clip-rule="evenodd" fill="#141412" d="M797.1,604.2c-0.4-1.1-2.6-1.9-3.4-1.7
		c-1.7,0.4-5.6,0.9-5.4,0.9c-0.2,0.2-3-0.2-3.4,0.2c-0.4,0.2-1.3,0.4-2.4,0.6c-1.1,0.2-1.5,1.1-1.3,2.1c0.2,1.1,0.4,1.9,0.9,2.4
		c0.4,0.4,1.3,0.9,2.6,1.3l0.2,0.2c0.4,0.2,0.9,0.4,1.5,0.9c0.6,0.6,1.1,1.3,1.7,1.9c1.5,1.3,4.5,0.9,6.2,0.4
		C798.4,612.3,798.2,607.4,797.1,604.2L797.1,604.2z"/>
	<path id="XMLID_97_" fill-rule="evenodd" clip-rule="evenodd" fill="#141412" d="M747.7,605.3c0,0.2-3.2,1.1-3.4,1.1
		c-1.7,0.2-3.9,0.4-5.6,0.6c-1.3,0.2-1.9,2.1-1.3,3.2c0.4,0.9,2.8,2.1,6.9,3.6c0.6,0.2,1.3,0.4,1.9,0.6c0.6,0.2,1.1,0.2,1.7,0.4
		c0.6,0,1.1,0.2,1.7,0.2c0.4,0,1.1,0.4,1.7,0.6c1.1,0.4,2.1,0.9,3.4,0.6c1.7,0,4.9-0.9,5.2-3c0-1.5-0.2-3.2-0.4-4.7
		C757.2,607.2,754.4,605.3,747.7,605.3L747.7,605.3z"/>
	<path id="XMLID_98_" fill-rule="evenodd" clip-rule="evenodd" fill="#005CAB" d="M798,529.6c0,0,3.9,10.1-1.7,15.5
		c-4.9,4.5-4.3,17.6-4.7,20c0,0,1.1,4.1,1.9,8.8c0.9,4.7,1.3,27.1,2.8,30.3c0,0-3.4,3.4-11.8,0c0,0-4.3-29-7.3-32.9
		c-2.8-3.9-0.9-29.4-0.9-29.4l5.6-8.6L798,529.6z"/>
	<path id="XMLID_99_" fill-rule="evenodd" clip-rule="evenodd" fill="#007DC3" d="M766.2,536.1c0,0-10.1,17.6-12,23.4
		c-1.9,6-1.3,14.6-2.4,24.1c-1.1,9.5-2.8,23.2-2.8,23.2s6,3.9,10.5,2.4c0,0-0.9-4.3,1.1-9.7c1.9-5.2,7.3-24.9,6.4-33.3
		c0,0,9.2-14.4,13.3-16.5c4.1-2.1,9-10.3,7.1-18.7C785.7,522.5,766.2,536.1,766.2,536.1L766.2,536.1z"/>
	<path id="XMLID_100_" fill-rule="evenodd" clip-rule="evenodd" fill="#EEC3A1" d="M788.4,484.8c-8.6-0.6-9.6,14.1-9.8,18.1
		c0,1.8-0.1,3,0,3.9c-0.2,0.1-0.5,0.4-0.9,0.6c-3,1.8-8.5,5.7-12.6,7.6c-2.4,1.1-4.9,2.2-5.3,2.3c-6.9,3.1-8.8,3.4-7.3,5.1
		c3.5,4,12.7,0.5,13.3-1.1c0.3-1,6.5-2.8,11.5-5c5.1-2.3,10-5.3,10.2-7.9c0.1-3.5,1.6-7.6,3.9-14.6
		C793.9,486.9,788.4,484.8,788.4,484.8L788.4,484.8z"/>
	<path id="XMLID_101_" fill-rule="evenodd" clip-rule="evenodd" fill="#E52D4B" d="M787.9,483.9c-11.2,1.1-11.4,18.2-11,22.5
		l12.4,2.1c0.2-3.8,0.4-8.4,3-16C795.2,484.9,787.9,483.9,787.9,483.9L787.9,483.9z"/>
	<path id="XMLID_102_" fill-rule="evenodd" clip-rule="evenodd" fill="#E8546A" d="M793.3,490.3c-1.1-2.4-2.8-6.4-10.1-6.7
		c-7.3-0.2-11.8,2.4-13.8,6.2c-2.1,4.3-3.4,3,0,16.3c3.4,13.3-0.6,22.6-4.1,27.9c-3.4,5.2,0,4.7,0,4.7s24.5,6.4,33.5-8
		c0,0-4.3-12.7-4.3-17.6C794.8,508.3,795,494.4,793.3,490.3L793.3,490.3z"/>
	<path id="XMLID_103_" fill-rule="evenodd" clip-rule="evenodd" fill="#EEC3A1" d="M770.1,467.1c0,0-1.5,13.5,7.1,15.3
		c8.8,1.7,7.5-10.3,7.5-10.3l-5.2-7.1L770.1,467.1z"/>
	<path id="XMLID_104_" fill-rule="evenodd" clip-rule="evenodd" fill="#623B15" d="M769.4,465.8c0,0-0.4-11.2,8.6-12.9
		c8.6-1.7,17,1.7,18.1,14.2c1.1,12.3-9.9,17.4-18.9,15.3c0,0,1.3-5.2,1.1-8.8c-0.2-3.7-2.1-6.2-3-0.6
		C775.2,472.7,770.7,469,769.4,465.8L769.4,465.8z"/>
	<path id="XMLID_105_" fill-rule="evenodd" clip-rule="evenodd" fill="#EEC3A1" d="M777.5,486.1c-8.6-0.7-9.8,14-10,17.9
		c-0.1,1.8-0.1,3,0,3.9c-0.2,0.1-0.5,0.4-0.9,0.5c-3,1.7-8.5,5.6-12.7,7.5c-2.4,1-4.9,2.1-5.4,2.3c-6.9,3-8.9,3.3-7.4,5
		c3.4,4.1,12.7,0.7,13.3-0.9c0.3-1,6.6-2.7,11.5-4.8c5.2-2.2,10-5.2,10.3-7.8c0.2-3.5,1.7-7.6,4.1-14.6
		C783,488.3,777.5,486.1,777.5,486.1L777.5,486.1z"/>
	<path id="XMLID_106_" fill-rule="evenodd" clip-rule="evenodd" fill="#E52D4B" d="M776.9,485.2c-11.2,1-11.6,18.1-11.2,22.4
		l12.4,2.2c0.2-3.8,0.5-8.3,3.2-16C784.2,486.4,776.9,485.2,776.9,485.2L776.9,485.2z"/>
</g>
<text id="XMLID_108_" transform="matrix(1 0 0 1 422.4453 888.207)"><tspan x="0" y="0" fill="#FFFFFF" font-family="'Montserrat-Hairline'" font-size="78.1195px">s</tspan><tspan x="33.4" y="0" fill="#FFFFFF" font-family="'Montserrat-Hairline'" font-size="78.1195px">y</tspan><tspan x="69.8" y="0" fill="#FFFFFF" font-family="'Montserrat-Hairline'" font-size="78.1195px">nchronizing...</tspan></text>
</svg>
