<?xml version="1.0" encoding="UTF-8"?>
<!DOCTYPE svg PUBLIC "-//W3C//DTD SVG 1.1//EN" "http://www.w3.org/Graphics/SVG/1.1/DTD/svg11.dtd">
<!-- Creator: CorelDRAW X7 -->
<svg xmlns="http://www.w3.org/2000/svg" xml:space="preserve" width="100%" height="100%" version="1.1" style="shape-rendering:geometricPrecision; text-rendering:geometricPrecision; image-rendering:optimizeQuality; fill-rule:evenodd; clip-rule:evenodd"
viewBox="0 0 1786 1358"
 xmlns:xlink="http://www.w3.org/1999/xlink">
 <defs>
  <style type="text/css">
   <![CDATA[
    .fil19 {fill:none;fill-rule:nonzero}
    .fil23 {fill:#D29F53;fill-rule:nonzero}
    .fil16 {fill:#5AA3D1;fill-rule:nonzero}
    .fil6 {fill:#2195CA;fill-rule:nonzero}
    .fil17 {fill:#005878;fill-rule:nonzero}
    .fil15 {fill:#005879;fill-rule:nonzero}
    .fil14 {fill:#005B7D;fill-rule:nonzero}
    .fil18 {fill:#006083;fill-rule:nonzero}
    .fil7 {fill:#564D72;fill-rule:nonzero}
    .fil4 {fill:#5C56A2;fill-rule:nonzero}
    .fil25 {fill:#770E12;fill-rule:nonzero}
    .fil5 {fill:#79C9F0;fill-rule:nonzero}
    .fil24 {fill:#7E0F13;fill-rule:nonzero}
    .fil26 {fill:gray;fill-rule:nonzero}
    .fil20 {fill:#820F14;fill-rule:nonzero}
    .fil13 {fill:#838287;fill-rule:nonzero}
    .fil3 {fill:#8480BC;fill-rule:nonzero}
    .fil27 {fill:#888888;fill-rule:nonzero}
    .fil21 {fill:#8C8C8C;fill-rule:nonzero}
    .fil0 {fill:#BABCFF;fill-rule:nonzero}
    .fil10 {fill:#BF7D31;fill-rule:nonzero}
    .fil12 {fill:#C6C9FF;fill-rule:nonzero}
    .fil11 {fill:#D7DAFF;fill-rule:nonzero}
    .fil1 {fill:#D9A44F;fill-rule:nonzero}
    .fil9 {fill:#E3C07B;fill-rule:nonzero}
    .fil8 {fill:#F3F6F9;fill-rule:nonzero}
    .fil22 {fill:#F9F9F9;fill-rule:nonzero}
    .fil2 {fill:#FDDFD1;fill-rule:nonzero}
   ]]>
  </style>
 </defs>
 <g id="Layer_x0020_1">
  <metadata id="CorelCorpID_0Corel-Layer"/>
  <g id="_2098656645744">
   <g>
    <path class="fil0" d="M514 354c-1,-1 -1,-1 -2,-2l-42 -24c0,0 0,-1 0,-1 0,0 0,0 1,0 0,0 1,0 2,-1l28 -16c1,-1 2,-2 3,-2 0,0 1,-1 1,-1 0,0 1,-1 1,-1 0,0 1,-1 1,-1 0,0 0,0 0,0 0,-1 1,-1 1,-1 0,0 1,-1 1,-1 0,-1 0,-1 0,-1 1,0 1,0 1,0 0,0 0,-1 0,-1 0,0 1,-1 1,-1 0,-1 0,-1 1,-1 0,0 0,0 0,0 0,-1 0,-1 0,-1 0,0 0,0 0,-1 1,0 1,0 1,-1 0,0 0,-1 1,-1 0,0 0,0 0,0 0,0 0,0 0,0 0,-1 0,-1 0,-2 0,0 1,-1 1,-1 0,0 0,0 0,-1 0,0 0,0 0,0 0,0 0,0 0,-1 0,0 0,-1 1,-1 0,-1 0,-1 0,-1 0,-1 0,-1 0,-1 0,0 0,0 0,0 0,-1 0,-2 0,-3l0 -33c0,-4 -1,-6 -2,-8 -1,-1 -2,-1 -2,-2l-57 -33c3,2 4,5 4,10l0 33c0,1 0,2 0,3 0,0 0,0 0,1 0,1 0,2 -1,3 0,0 0,0 0,0 0,1 -1,3 -1,4 0,0 0,0 0,0 -1,1 -1,2 -2,3 0,0 0,0 0,0 -1,2 -1,3 -2,4 0,0 0,0 0,0 -1,1 -2,2 -3,3 0,0 0,0 0,0 -1,1 -1,1 -2,2 0,0 -1,0 -1,1 -1,0 -2,1 -3,2l-28 16c-1,1 -2,1 -3,1 0,0 0,1 -1,1 0,0 -1,0 -2,0 0,0 0,0 0,0 -1,0 -2,0 -3,0 0,0 0,0 0,0 -1,0 -1,0 -2,-1l54 32c0,1 1,2 1,3l0 33c0,1 0,2 -1,3 0,0 0,0 0,1 0,1 0,2 0,3 -1,0 -1,0 -1,0 0,1 0,3 -1,4 0,0 0,0 0,0 0,1 -1,2 -2,3 0,0 0,0 0,0 0,2 -1,3 -2,4 0,0 0,0 0,0 -1,1 -2,2 -2,3 0,0 -1,0 -1,0 0,1 -1,1 -2,2 0,0 0,0 -1,1 0,0 -1,1 -2,2l-29 16c-1,1 -2,1 -3,1 0,0 0,0 0,1 -1,0 -2,0 -3,0 0,0 0,0 0,0 -1,0 -2,0 -2,0 0,0 0,0 0,0 -1,0 -2,0 -3,-1l57 33c0,0 0,0 0,0 1,0 1,0 1,1 0,0 1,0 1,0 0,0 0,0 0,0 0,0 0,0 1,0 0,0 0,0 0,0 0,0 0,0 1,0 0,0 0,0 1,0 0,0 0,0 0,0 0,0 0,0 0,0 0,0 1,0 1,0 0,0 1,0 1,0 0,0 0,0 1,0 0,0 0,-1 0,-1 0,0 1,0 1,0 1,0 1,0 2,-1l28 -16c1,-1 2,-2 3,-2 1,-1 1,-1 1,-1 1,0 1,-1 1,-1 1,0 1,-1 1,-1 0,0 0,0 1,0 0,-1 0,-1 0,-1 1,0 1,-1 1,-1 1,-1 1,-1 1,-1 0,0 0,0 0,0 0,0 0,-1 0,-1 1,0 1,-1 1,-1 1,-1 1,-1 1,-1 0,0 0,0 0,-1 0,0 0,0 0,0 0,0 1,0 1,-1 0,0 0,-1 0,-1 1,0 1,-1 1,-1 0,0 0,0 0,0 0,0 0,0 0,0 0,-1 0,-1 1,-2 0,0 0,-1 0,-1 0,0 0,-1 0,-1 0,0 0,0 0,0 0,0 0,0 1,-1 0,0 0,-1 0,-1 0,-1 0,-1 0,-1 0,-1 0,-1 0,-1 0,0 0,0 0,0 0,-1 0,-2 0,-3l0 -33c0,-4 -1,-6 -2,-8z"/>
    <path class="fil0" d="M405 414l-42 -25c0,0 0,0 0,0 1,0 1,0 1,0 1,-1 1,-1 2,-1l29 -17c1,0 2,-1 2,-2 1,0 1,0 1,-1 1,0 1,0 2,-1 0,0 0,0 0,0 0,0 1,-1 1,-1 0,0 0,0 0,0 1,-1 1,-1 2,-2 0,0 0,0 0,0 0,-1 0,-1 0,-1 0,0 0,0 1,0 0,-1 0,-1 0,-2 1,0 1,0 1,-1 0,0 0,0 0,0 0,0 0,0 0,0 0,0 1,-1 1,-1 0,-1 0,-1 1,-1 0,-1 0,-1 0,-2 0,0 0,0 0,0 0,0 0,0 0,0 0,0 0,-1 1,-1 0,-1 0,-1 0,-1 0,-1 0,-1 0,-1 0,0 0,0 0,-1 1,0 1,0 1,0 0,-1 0,-1 0,-2 0,0 0,0 0,-1 0,0 0,0 0,0 0,-1 0,-1 0,-1 1,-1 1,-2 1,-3l0 -33c0,-4 -2,-8 -5,-9l-57 -33c3,1 5,5 5,9l0 33c0,1 0,2 0,4 -1,0 -1,0 -1,0 0,1 0,2 0,3 0,1 0,1 0,1 -1,1 -1,2 -2,3 0,0 0,0 0,0 0,2 -1,3 -2,4 0,0 0,0 0,0 0,1 -1,2 -2,3 0,0 0,0 0,1 -1,0 -1,1 -2,2 0,0 0,1 -1,1 0,0 -1,1 -2,1 0,1 0,1 0,1 -1,1 -2,2 -3,2l-29 17c-1,0 -2,1 -3,1 0,0 0,0 0,0 -1,0 -2,1 -3,1 0,0 0,0 0,0 -1,0 -1,0 -2,0 0,0 0,0 0,0 -1,-1 -2,-1 -2,-1l0 0 0 0 0 0 54 31c0,1 0,2 0,3l0 33c0,1 0,2 0,4 0,0 0,0 0,0 0,1 -1,2 -1,3 0,1 0,1 0,1 0,1 -1,2 -1,3 0,0 0,0 0,0 -1,2 -2,3 -2,4 0,0 0,0 0,0 -1,1 -2,2 -2,3 0,0 -1,0 -1,0 0,1 -1,2 -2,3 0,0 0,0 0,1 -1,0 -2,1 -2,1 -1,1 -1,1 -1,1 -1,1 -2,2 -3,2l-28 17c-1,0 -2,1 -3,1 0,0 -1,0 -1,0 -1,0 -1,1 -2,1 0,0 0,0 0,0 -1,0 -2,0 -3,0 0,-1 0,-1 0,-1 -1,0 -1,0 -2,0l57 33c0,0 0,0 0,0 0,0 0,0 1,0 0,0 0,0 0,0 0,0 1,0 1,1 0,0 0,0 0,0 0,0 0,0 0,0 0,0 1,0 1,0 0,0 1,0 1,0 0,0 0,0 0,0 0,0 1,0 1,0 0,0 0,0 0,0 1,0 1,-1 2,-1 0,0 0,0 0,0 0,0 0,0 1,0 0,0 0,0 0,0 1,-1 2,-1 2,-1l29 -17c1,0 2,-1 3,-2 0,0 0,0 1,-1 0,0 1,0 1,-1 0,0 0,0 1,0 0,-1 0,-1 0,-1 0,0 0,0 1,0 0,-1 0,-1 1,-2 0,0 0,0 0,-1 0,0 0,0 0,0 1,0 1,0 1,0 0,-1 0,-1 1,-2 0,0 0,0 0,-1 0,0 1,0 1,0 0,0 0,0 0,0 0,0 0,-1 0,-1 0,-1 1,-1 1,-1 0,-1 0,-1 0,-2 0,0 0,0 0,0 0,0 0,0 0,0 1,0 1,-1 1,-1 0,-1 0,-1 0,-2 1,0 1,0 1,0 0,0 0,0 0,-1 0,0 0,0 0,0 0,-1 0,-1 0,-2 0,0 1,-1 1,-1 0,0 0,0 0,0 0,-1 0,-1 0,-1 0,-1 0,-2 0,-3l0 -33c0,-4 -2,-8 -5,-9z"/>
    <path class="fil0" d="M299 475l-43 -24c1,0 1,0 1,-1 0,0 0,0 0,0 1,0 2,0 3,-1l28 -16c1,-1 2,-1 3,-2 0,0 0,-1 1,-1 0,0 1,-1 1,-1 0,0 0,-1 1,-1 0,0 0,0 0,0 0,0 1,-1 1,-1 0,0 1,-1 1,-1 0,-1 0,-1 0,-1 0,0 0,0 1,0 0,0 0,-1 0,-1 0,0 1,-1 1,-1 0,0 0,-1 1,-1 0,0 0,0 0,0 0,0 0,0 0,-1 0,0 0,0 0,-1 1,0 1,0 1,-1 0,0 0,-1 0,-1 0,0 0,0 0,0 1,0 1,0 1,0 0,-1 0,-1 0,-2 0,0 0,0 1,-1 0,0 0,0 0,-1 0,0 0,0 0,0 0,0 0,0 0,0 0,-1 0,-2 0,-2 1,-1 1,-1 1,-1 0,0 0,-1 0,-1 0,0 0,0 0,0 0,-1 0,-2 0,-3l0 -33c0,-5 -2,-8 -4,-10l-57 -33c2,2 4,5 4,10l0 33c0,1 0,2 0,3 0,0 0,1 0,1 0,1 -1,2 -1,3 0,0 0,0 0,0 0,1 -1,3 -1,4 0,0 0,0 0,0 -1,1 -1,2 -2,3 0,0 0,1 0,1 -1,1 -2,2 -2,3 0,0 0,0 -1,0 0,1 -1,2 -2,3 0,0 0,0 0,0 -1,1 -1,1 -2,2 0,0 -1,1 -1,1 -1,1 -2,1 -3,2l-28 16c-1,1 -2,1 -3,1 0,1 0,1 -1,1 0,0 -1,0 -2,0 0,0 0,0 0,0 -1,0 -2,0 -3,0 0,0 0,0 0,0 -1,0 -1,0 -2,-1l54 32c0,1 0,2 0,3l1 33c0,1 -1,2 -1,3 0,0 0,0 0,1 0,1 0,2 -1,3 0,0 0,0 0,0 0,1 -1,3 -1,4 0,0 0,0 0,0 -1,1 -1,2 -2,3 0,0 0,0 0,0 -1,2 -1,3 -2,4 0,0 0,0 0,0 -1,1 -2,2 -2,3 -1,0 -1,0 -1,0 -1,1 -1,1 -2,2 0,0 0,0 -1,1 -1,0 -2,1 -3,2l-28 16c-1,1 -2,1 -3,1 0,0 0,1 0,1 -1,0 -2,0 -3,0 0,0 0,0 0,0 -1,0 -2,0 -2,0 0,0 -1,0 -1,0 0,0 -1,0 -2,-1 0,0 0,0 0,0l0 0 0 0 57 33c0,0 0,0 0,0 0,0 1,1 1,1 0,0 0,0 1,0 0,0 0,0 0,0 0,0 0,0 0,0 0,0 1,0 1,0 0,0 0,0 1,0 0,0 0,0 1,0 0,0 0,0 0,0 0,0 0,0 0,0 0,0 0,0 1,0 0,0 1,0 1,0 0,0 0,0 1,0 0,0 0,0 0,-1 0,0 1,0 1,0 0,0 1,0 2,-1l28 -16c1,-1 2,-2 3,-2 0,0 1,-1 1,-1 0,0 1,-1 1,-1 1,0 1,-1 1,-1 0,0 0,0 0,0 1,-1 1,-1 1,-1 0,0 1,-1 1,-1 0,-1 0,-1 1,-1 0,0 0,0 0,0 0,0 0,-1 0,-1 1,0 1,-1 1,-1 0,-1 1,-1 1,-1 0,0 0,0 0,0 0,-1 0,-1 0,-1 0,0 0,0 1,-1 0,0 0,0 0,-1 0,0 1,-1 1,-1 0,0 0,0 0,0 0,0 0,0 0,0 0,-1 0,-1 0,-2 1,0 1,-1 1,-1 0,0 0,0 0,-1 0,0 0,0 0,0 0,0 0,0 0,-1 1,0 1,-1 1,-1 0,-1 0,-1 0,-1 0,-1 0,-1 0,-1 0,0 0,0 0,0 0,-1 0,-2 0,-3l0 -33c0,-5 -1,-8 -4,-10z"/>
    <path class="fil0" d="M192 537l-42 -25c0,0 0,0 0,0 0,0 1,0 1,0 1,-1 1,-1 2,-1l28 -17c1,0 2,-1 3,-2 1,0 1,0 1,0 1,-1 1,-1 2,-2 0,0 0,0 0,0 0,0 0,-1 1,-1 0,0 0,0 0,0 1,-1 1,-1 1,-2 1,0 1,0 1,0 0,0 0,-1 0,-1 0,0 0,0 0,0 1,-1 1,-1 1,-2 1,0 1,0 1,-1 0,0 0,0 0,0 0,0 0,0 0,0 0,0 1,-1 1,-1 0,0 0,-1 0,-1 1,-1 1,-1 1,-2 0,0 0,0 0,0 0,0 0,0 0,0 0,0 0,-1 1,-1 0,0 0,-1 0,-1 0,-1 0,-1 0,-1 0,0 0,0 0,0 0,-1 0,-1 1,-1 0,-1 0,-1 0,-2 0,0 0,0 0,-1 0,0 0,0 0,0 0,0 0,-1 0,-1 0,-1 0,-2 0,-3l0 -32c0,-5 -1,-9 -4,-10l-57 -33c3,1 5,5 5,9l0 33c0,1 0,2 -1,4 0,0 0,0 0,0 0,1 0,2 0,4 -1,0 -1,0 -1,0 0,1 0,2 -1,3 0,0 0,0 0,0 0,2 -1,3 -2,4 0,0 0,0 0,0 0,1 -1,2 -2,3 0,0 0,0 0,1 -1,0 -2,1 -2,2 0,0 -1,1 -1,1 0,0 -1,1 -2,2 0,0 0,0 -1,0 0,1 -1,2 -2,2l-29 17c-1,0 -2,1 -3,1 0,0 0,0 0,0 -1,0 -2,1 -3,1 0,0 0,0 0,0 -1,0 -2,0 -2,0 0,0 0,0 0,0 -1,-1 -2,-1 -3,-1l55 31c0,1 0,2 0,3l0 33c0,1 0,2 0,4 0,0 0,0 0,0 -1,1 -1,2 -1,3 0,1 0,1 0,1 -1,1 -1,2 -2,3 0,0 0,0 0,0 0,2 -1,3 -1,4 0,0 0,0 0,0 -1,1 -2,2 -3,3 0,0 0,0 0,1 0,0 -1,1 -2,2 0,0 0,1 0,1 -1,0 -2,1 -2,1 -1,1 -1,1 -1,1 -1,1 -2,2 -3,2l-29 17c-1,0 -1,1 -2,1 -1,0 -1,0 -1,0 -1,0 -2,1 -2,1 0,0 0,0 -1,0 0,0 -1,0 -2,0 0,0 0,0 0,0 -1,-1 -2,-1 -2,-1l0 0 0 0 0 0 57 33c0,0 0,0 0,0 0,0 0,0 0,0 1,0 1,0 1,0 0,0 1,1 1,1 0,0 0,0 0,0 0,0 0,0 0,0 0,0 1,0 1,0 0,0 1,0 1,0 0,0 0,0 0,0 0,0 0,0 0,0 1,0 1,0 1,0 0,0 1,-1 1,-1 1,0 1,0 1,0 0,0 0,0 1,0 0,0 0,0 0,0 1,-1 2,-1 2,-1l29 -17c1,0 2,-1 3,-2 0,0 0,0 0,0 1,-1 1,-1 2,-2 0,0 0,0 0,0 1,0 1,-1 1,-1 0,0 0,0 0,0 1,-1 1,-1 2,-2 0,0 0,0 0,0 0,-1 0,-1 0,-1 0,0 1,0 1,0 0,-1 0,-1 1,-2 0,0 0,0 0,-1 0,0 0,0 0,0 0,0 0,0 0,0 1,0 1,-1 1,-1 0,-1 0,-1 1,-1 0,-1 0,-1 0,-2 0,0 0,0 0,0 0,0 0,0 0,0 0,0 1,-1 1,-1 0,-1 0,-1 0,-1 0,-1 1,-1 1,-1 0,0 0,0 0,-1 0,0 0,0 0,0 0,-1 0,-1 0,-2 0,0 0,0 0,-1 0,0 0,0 1,0 0,-1 0,-1 0,-1 0,-1 0,-2 0,-3l0 -33c0,-4 -2,-8 -5,-9z"/>
    <polygon class="fil1" points="556,143 499,110 40,375 97,409 "/>
    <path class="fil0" d="M98 676l-1 -267 -57 -34 1 268c0,16 6,27 15,33l57 33c-9,-6 -15,-17 -15,-33z"/>
    <path class="fil2" d="M303 407l0 -33c0,-10 -7,-13 -15,-9l-29 17c-8,5 -15,16 -15,26l0 33c0,9 7,13 16,8l28 -16c8,-5 15,-17 15,-26zm213 -123l0 -33c0,-10 -7,-13 -15,-9l-29 17c-8,5 -15,16 -15,26l1 33c0,9 6,13 15,8l28 -16c8,-5 15,-17 15,-26zm-106 61l0 -33c0,-9 -7,-13 -16,-8l-28 16c-8,5 -15,17 -15,26l0 33c0,10 7,13 15,9l29 -17c8,-5 15,-16 15,-26zm106 50l0 -33c0,-10 -6,-14 -15,-9l-28 17c-9,5 -15,16 -15,26l0 32c0,10 7,14 15,9l28 -16c9,-5 16,-17 15,-26zm-213 123l0 -33c0,-10 -7,-13 -15,-9l-28 17c-9,5 -15,16 -15,26l0 33c0,9 7,13 15,8l28 -16c9,-5 15,-17 15,-26zm-107 -50l0 -32c0,-10 -6,-14 -15,-9l-28 16c-9,5 -15,17 -15,26l0 33c0,10 7,14 15,9l28 -17c9,-5 16,-16 15,-26zm214 -12l0 -33c0,-9 -7,-13 -15,-8l-29 16c-8,5 -15,17 -15,26l0 33c0,10 7,13 15,9l29 -17c8,-5 15,-16 15,-26zm-213 123l0 -33c0,-9 -7,-13 -15,-8l-29 16c-8,5 -15,17 -15,26l0 33c0,10 7,13 15,9l29 -17c8,-5 15,-16 15,-26zm-100 -170l459 -266 1 268c0,32 -23,72 -52,89l-355 205c-29,17 -52,3 -52,-29l-1 -267z"/>
    <path class="fil3" d="M563 51c1,0 2,0 3,-1 0,0 1,0 1,0 1,0 2,0 2,0 1,-1 2,-1 2,-1 1,0 1,0 2,0 1,0 1,0 2,0 1,0 1,0 1,0 1,0 2,0 3,0 0,0 0,0 1,1 0,0 1,0 2,0 0,0 0,0 1,0 1,1 2,1 2,2l-56 -33c-1,0 -1,0 -1,0 0,-1 -1,-1 -2,-1 0,0 0,-1 0,-1 0,0 -1,0 -1,0 0,0 -1,0 -1,0 0,0 -1,0 -1,0 0,-1 -1,-1 -1,-1 0,0 0,0 0,0 -1,0 -2,0 -3,0 0,0 0,0 0,0 0,0 0,0 -1,0 0,0 -1,0 -2,0 0,0 0,0 0,0 -1,0 -1,0 -1,0 -1,0 -1,0 -2,0 0,0 0,0 -1,0 0,1 -1,1 -1,1 -1,0 -1,0 -1,0 -1,0 -1,0 -1,0 -1,1 -2,1 -3,1 0,0 -1,1 -1,1 0,0 -1,0 -1,0 -1,1 -3,2 -5,3l-458 264c-2,1 -5,3 -7,5 -1,1 -2,2 -3,2 -1,1 -2,2 -4,4 0,0 -1,1 -1,1 -1,1 -1,1 -1,2 -1,0 -2,1 -2,1 -1,2 -2,3 -3,5 -1,0 -1,1 -2,1 0,0 0,1 0,1 0,0 -1,1 -1,1 -1,1 -2,3 -3,4 0,1 -1,2 -2,3 0,0 0,1 0,1 0,0 0,0 0,0 -1,1 -1,2 -2,3 0,1 -1,2 -1,3 -1,1 -1,3 -2,4 0,0 0,0 0,0 0,0 0,0 0,0 -1,1 -1,2 -2,4 0,1 -1,2 -1,4 0,0 0,1 -1,2 0,0 0,0 0,0 0,1 0,1 0,2 -1,1 -1,3 -1,5 -1,1 -1,2 -1,3 0,0 0,0 0,1 0,0 0,1 0,1 -1,3 -1,6 -1,9 0,13 5,22 12,26l57 33c-8,-4 -12,-13 -12,-26 0,-4 0,-7 1,-10 0,0 0,-1 0,-1 0,-3 1,-6 2,-10 0,0 0,0 0,0 1,-4 2,-7 4,-10 0,0 0,0 0,0 1,-4 3,-7 5,-10 0,0 0,0 0,0 2,-3 4,-6 6,-9 0,0 0,-1 0,-1 2,-2 4,-5 6,-7 1,-1 1,-1 2,-2 1,-1 3,-3 5,-5 1,0 2,-1 2,-2 3,-2 5,-4 8,-5l458 -264c2,-1 3,-2 5,-3 1,0 1,0 2,-1z"/>
    <path class="fil4" d="M556 55l-458 264c-23,13 -41,45 -41,72 0,26 19,36 41,23l458 -264c23,-13 42,-45 42,-72 -1,-26 -19,-37 -42,-23z"/>
    <path class="fil2" d="M232 36c8,-4 16,-4 20,2l96 136 -51 31 -84 -118c-7,-9 -3,-27 8,-41 3,-4 7,-8 11,-10z"/>
    <path class="fil0" d="M213 87c-1,-1 -2,-2 -2,-4 0,0 0,-1 -1,-1 0,-1 0,-2 0,-3 0,0 0,-1 0,-2 0,-1 0,-2 0,-3 0,0 0,-1 0,-1 0,-2 0,-3 0,-4 0,-1 0,-1 0,-1 1,-2 1,-3 2,-5 0,0 0,0 0,0 0,-2 1,-4 2,-6 0,0 0,0 0,0 1,-2 2,-4 3,-5 0,0 0,-1 0,-1 1,-1 2,-3 4,-5 1,-2 3,-3 5,-5 0,0 1,-1 1,-1 2,-2 3,-3 5,-4 2,-1 3,-1 4,-2 1,0 1,0 1,0 1,0 3,-1 4,-1 0,0 0,0 0,0 1,0 3,0 4,0 0,0 0,0 0,0 1,1 2,1 3,2l-56 -33c-1,-1 -1,-1 -1,-1 0,0 0,0 -1,0 0,0 -1,0 -1,-1 0,0 -1,0 -1,0 0,0 0,0 0,0 0,0 0,0 0,0 -1,0 -1,0 -2,0 0,0 -1,0 -1,0 0,0 -1,0 -1,0 0,0 0,0 0,0 0,0 -1,0 -1,0 0,0 -1,0 -2,1 0,0 0,0 -1,0 0,0 0,0 -1,0 0,0 0,0 0,1 -2,0 -3,1 -4,1 -1,1 -3,2 -5,4 0,0 -1,1 -1,1 0,0 -1,1 -1,1 -1,1 -2,2 -3,3 0,0 -1,1 -1,1 0,0 0,1 -1,1 0,1 -1,1 -1,2 -1,1 -1,1 -1,2 -1,0 -1,0 -1,0 0,0 0,1 0,1 0,0 0,0 -1,1 0,1 0,1 -1,2 0,0 0,1 -1,2 0,0 0,0 0,0 0,0 0,0 0,0 0,1 0,1 -1,2 0,0 0,1 0,2 -1,0 -1,1 -1,2 0,0 0,0 0,0 0,0 0,0 0,0 0,1 -1,1 -1,2 0,1 0,2 -1,3 0,0 0,0 0,0 0,0 0,0 0,1 0,0 0,1 0,2 0,1 0,1 0,1 0,1 0,2 0,2 0,1 0,2 0,3 0,1 0,2 0,2 0,1 0,2 1,3 0,0 0,1 0,1 0,2 1,3 2,4l84 118 57 33 -84 -118z"/>
    <path class="fil5" d="M337 158c3,-1 6,-3 7,-3 4,0 9,0 13,1 -8,-5 -9,-10 -24,-7 -8,1 -15,6 -21,11 -13,11 -21,25 -26,41 -3,13 -6,34 8,42 0,0 11,7 11,7 -14,-8 -12,-30 -8,-43 6,-19 19,-36 35,-47l0 0c0,0 3,-1 5,-2z"/>
    <path class="fil6" d="M332 160c21,-12 38,-3 38,22 0,24 -17,53 -38,65 -21,12 -38,3 -38,-22 0,-24 17,-53 38,-65z"/>
   </g>
   <g>
    <path class="fil0" d="M1108 354c0,-1 -1,-1 -2,-2l-42 -24c0,0 0,-1 0,-1 1,0 1,0 1,0 1,0 1,0 2,-1l29 -16c1,-1 1,-2 2,-2 1,0 1,-1 1,-1 1,0 1,-1 2,-1 0,0 0,-1 0,-1 0,0 1,0 1,0 0,-1 0,-1 0,-1 1,0 1,-1 1,-1 1,-1 1,-1 1,-1 0,0 0,0 0,0 0,0 0,-1 0,-1 1,0 1,-1 1,-1 1,-1 1,-1 1,-1 0,0 0,0 0,0 0,-1 0,-1 0,-1 0,0 1,0 1,-1 0,0 0,0 1,-1 0,0 0,-1 0,-1 0,0 0,0 0,0 0,0 0,0 0,0 0,-1 0,-1 1,-2 0,0 0,-1 0,-1 0,0 0,0 0,-1 0,0 0,0 0,0 1,0 1,0 1,-1 0,0 0,-1 0,-1 0,-1 0,-1 0,-1 0,-1 0,-1 0,-1 0,0 0,0 0,0 1,-1 1,-2 1,-3l0 -33c0,-4 -1,-6 -3,-8 -1,-1 -1,-1 -2,-2l-57 -33c3,2 5,5 5,10l0 33c0,1 0,2 -1,3 0,0 0,0 0,1 0,1 0,2 0,3 0,0 0,0 0,0 -1,1 -1,3 -2,4 0,0 0,0 0,0 0,1 -1,2 -2,3 0,0 0,0 0,0 0,2 -1,3 -2,4 0,0 0,0 0,0 -1,1 -1,2 -2,3 0,0 0,0 -1,0 0,1 -1,1 -2,2 0,0 0,0 0,1 -1,0 -2,1 -3,2l-29 16c-1,1 -2,1 -3,1 0,0 0,1 0,1 -1,0 -2,0 -3,0 0,0 0,0 0,0 -1,0 -1,0 -2,0 0,0 0,0 0,0 -1,0 -2,0 -2,-1l54 32c0,1 0,2 0,3l0 33c0,1 0,2 0,3 0,0 0,0 0,1 0,1 -1,2 -1,3 0,0 0,0 0,0 -1,1 -1,3 -1,4 0,0 0,0 0,0 -1,1 -2,2 -2,3 0,0 0,0 0,0 -1,2 -2,3 -2,4 0,0 -1,0 -1,0 0,1 -1,2 -2,3 0,0 0,0 0,0 -1,1 -2,1 -2,2 -1,0 -1,0 -1,1 -1,0 -2,1 -3,2l-28 16c-1,1 -2,1 -3,1 0,0 -1,0 -1,1 -1,0 -1,0 -2,0 0,0 0,0 0,0 -1,0 -2,0 -3,0 0,0 0,0 0,0 -1,0 -2,0 -2,-1l57 33c0,0 0,0 0,0 0,0 0,0 1,1 0,0 0,0 0,0 0,0 1,0 1,0 0,0 0,0 0,0 0,0 0,0 0,0 0,0 1,0 1,0 0,0 1,0 1,0 0,0 0,0 0,0 0,0 1,0 1,0 0,0 0,0 0,0 1,0 1,0 2,0 0,0 0,0 0,0 0,0 0,-1 1,-1 0,0 0,0 0,0 1,0 2,0 2,-1l29 -16c1,-1 2,-2 3,-2 0,-1 0,-1 1,-1 0,0 1,-1 1,-1 0,0 0,-1 1,-1 0,0 0,0 0,0 0,-1 0,-1 1,-1 0,0 0,-1 1,-1 0,-1 0,-1 0,-1 0,0 0,0 0,0 1,0 1,-1 1,-1 0,0 0,-1 1,-1 0,-1 0,-1 0,-1 0,0 0,0 1,-1 0,0 0,0 0,0 0,0 0,0 0,-1 0,0 1,-1 1,-1 0,0 0,-1 0,-1 0,0 0,0 0,0 0,0 0,0 0,0 1,-1 1,-1 1,-2 0,0 0,-1 0,-1 1,0 1,-1 1,-1 0,0 0,0 0,0 0,0 0,0 0,-1 0,0 0,-1 0,-1 0,-1 0,-1 1,-1 0,-1 0,-1 0,-1 0,0 0,0 0,0 0,-1 0,-2 0,-3l0 -33c0,-4 -1,-6 -3,-8z"/>
    <path class="fil0" d="M1000 414l-43 -25c1,0 1,0 1,0 0,0 0,0 0,0 1,-1 2,-1 3,-1l28 -17c1,0 2,-1 3,-2 0,0 0,0 1,-1 0,0 1,0 1,-1 0,0 0,0 1,0 0,0 0,-1 0,-1 0,0 1,0 1,0 0,-1 1,-1 1,-2 0,0 0,0 0,0 0,-1 0,-1 1,-1 0,0 0,0 0,0 0,-1 1,-1 1,-2 0,0 0,0 1,-1 0,0 0,0 0,0 0,0 0,0 0,0 0,0 0,-1 0,-1 1,-1 1,-1 1,-1 0,-1 0,-1 1,-2 0,0 0,0 0,0 0,0 0,0 0,0 0,0 0,-1 0,-1 0,-1 0,-1 1,-1 0,-1 0,-1 0,-1 0,0 0,0 0,-1 0,0 0,0 0,0 0,-1 0,-1 1,-2 0,0 0,0 0,-1 0,0 0,0 0,0 0,-1 0,-1 0,-1 0,-1 0,-2 0,-3l0 -33c0,-4 -2,-8 -4,-9l-57 -33c2,1 4,5 4,9l0 33c0,1 0,2 0,4 0,0 0,0 0,0 0,1 -1,2 -1,3 0,1 0,1 0,1 0,1 -1,2 -1,3 0,0 0,0 0,0 -1,2 -1,3 -2,4 0,0 0,0 0,0 -1,1 -2,2 -2,3 0,0 0,0 0,1 -1,0 -2,1 -3,2 0,0 0,1 0,1 -1,0 -1,1 -2,1 0,1 -1,1 -1,1 -1,1 -2,2 -3,2l-28 17c-1,0 -2,1 -3,1 0,0 0,0 -1,0 0,0 -1,1 -2,1 0,0 0,0 0,0 -1,0 -2,0 -3,0 0,0 0,0 0,0 -1,-1 -1,-1 -2,-1l0 0 0 0 0 0 54 31c0,1 0,2 0,3l1 33c0,1 -1,2 -1,4 0,0 0,0 0,0 0,1 0,2 -1,3 0,1 0,1 0,1 0,1 0,2 -1,3 0,0 0,0 0,0 -1,2 -1,3 -2,4 0,0 0,0 0,0 -1,1 -1,2 -2,3 0,0 0,0 0,0 -1,1 -2,2 -2,3 -1,0 -1,0 -1,1 0,0 -1,1 -2,1 0,1 0,1 -1,1 -1,1 -2,2 -2,2l-29 17c-1,0 -2,1 -3,1 0,0 0,0 0,0 -1,0 -2,1 -3,1 0,0 0,0 0,0 -1,0 -2,0 -2,0 0,-1 0,-1 -1,-1 0,0 -1,0 -2,0l57 33c0,0 0,0 0,0 0,0 1,0 1,0 0,0 0,0 1,0 0,0 0,0 0,1 0,0 0,0 0,0 0,0 1,0 1,0 0,0 0,0 1,0 0,0 0,0 1,0 0,0 0,0 0,0 0,0 0,0 0,0 0,0 0,0 1,0 0,0 1,-1 1,-1 0,0 0,0 1,0 0,0 0,0 0,0 0,0 1,0 1,0 0,-1 1,-1 2,-1l28 -17c1,0 2,-1 3,-2 0,0 1,0 1,-1 1,0 1,0 1,-1 1,0 1,0 1,0 0,-1 0,-1 0,-1 1,0 1,0 1,0 0,-1 1,-1 1,-2 0,0 1,0 1,-1 0,0 0,0 0,0 0,0 0,0 0,0 1,-1 1,-1 1,-2 0,0 1,0 1,-1 0,0 0,0 0,0 0,0 0,0 0,0 0,0 0,-1 1,-1 0,-1 0,-1 0,-1 0,-1 1,-1 1,-2 0,0 0,0 0,0 0,0 0,0 0,0 0,0 0,-1 0,-1 1,-1 1,-1 1,-2 0,0 0,0 0,0 0,0 0,0 0,-1 0,0 0,0 0,0 1,-1 1,-1 1,-2 0,0 0,-1 0,-1 0,0 0,0 0,0 0,-1 0,-1 0,-1 0,-1 0,-2 0,-3l0 -33c0,-4 -1,-8 -4,-9z"/>
    <path class="fil0" d="M893 475l-42 -24c0,0 0,0 0,-1 0,0 1,0 1,0 1,0 1,0 2,-1l28 -16c1,-1 2,-1 3,-2 1,0 1,-1 1,-1 1,0 1,-1 1,-1 1,0 1,-1 1,-1 0,0 0,0 1,0 0,0 0,-1 0,-1 1,0 1,-1 1,-1 0,-1 1,-1 1,-1 0,0 0,0 0,0 0,0 0,-1 0,-1 1,0 1,-1 1,-1 1,0 1,-1 1,-1 0,0 0,0 0,0 0,0 0,0 0,-1 0,0 1,0 1,-1 0,0 0,0 0,-1 1,0 1,-1 1,-1 0,0 0,0 0,0 0,0 0,0 0,0 0,-1 0,-1 1,-2 0,0 0,0 0,-1 0,0 0,0 0,-1 0,0 0,0 0,0 0,0 0,0 0,0 1,-1 1,-2 1,-2 0,-1 0,-1 0,-1 0,0 0,-1 0,-1 0,0 0,0 0,0 0,-1 0,-2 0,-3l0 -33c0,-5 -1,-8 -4,-10l-57 -33c3,2 5,5 5,10l0 33c0,1 0,2 -1,3 0,0 0,1 0,1 0,1 0,2 -1,3 0,0 0,0 0,0 0,1 0,3 -1,4 0,0 0,0 0,0 0,1 -1,2 -2,3 0,0 0,1 0,1 0,1 -1,2 -2,3 0,0 0,0 0,0 -1,1 -2,2 -2,3 0,0 -1,0 -1,0 0,1 -1,1 -2,2 0,0 0,1 -1,1 0,1 -1,1 -2,2l-29 16c-1,1 -2,1 -3,1 0,1 0,1 0,1 -1,0 -2,0 -3,0 0,0 0,0 0,0 -1,0 -2,0 -2,0 0,0 0,0 0,0 -1,0 -2,0 -3,-1l55 32c0,1 0,2 0,3l0 33c0,1 0,2 0,3 0,0 0,0 0,1 -1,1 -1,2 -1,3 0,0 0,0 0,0 -1,1 -1,3 -2,4 0,0 0,0 0,0 0,1 -1,2 -1,3 0,0 0,0 0,0 -1,2 -2,3 -3,4 0,0 0,0 0,0 0,1 -1,2 -2,3 0,0 0,0 0,0 -1,1 -2,1 -2,2 -1,0 -1,0 -1,1 -1,0 -2,1 -3,2l-29 16c-1,1 -1,1 -2,1 -1,0 -1,1 -1,1 -1,0 -2,0 -2,0 0,0 0,0 -1,0 0,0 -1,0 -2,0 0,0 0,0 0,0 -1,0 -2,0 -2,-1l0 0 0 0 0 0 57 33c0,0 0,0 0,0 0,0 0,1 0,1 1,0 1,0 1,0 0,0 1,0 1,0 0,0 0,0 0,0 0,0 0,0 0,0 0,0 1,0 1,0 0,0 1,0 1,0 0,0 0,0 0,0 0,0 0,0 0,0 1,0 1,0 1,0 1,0 1,0 1,0 1,0 1,0 1,0 0,0 0,0 0,-1 1,0 1,0 1,0 1,0 2,0 2,-1l29 -16c1,-1 2,-2 3,-2 0,0 0,-1 0,-1 1,0 1,-1 2,-1 0,0 0,-1 0,-1 1,0 1,0 1,0 0,-1 0,-1 0,-1 1,0 1,-1 2,-1 0,-1 0,-1 0,-1 0,0 0,0 0,0 0,0 1,-1 1,-1 0,0 0,-1 1,-1 0,-1 0,-1 0,-1 0,0 0,0 0,0 0,-1 0,-1 0,-1 1,0 1,0 1,-1 0,0 0,0 1,-1 0,0 0,-1 0,-1 0,0 0,0 0,0 0,0 0,0 0,0 0,-1 1,-1 1,-2 0,0 0,-1 0,-1 0,0 0,0 1,-1 0,0 0,0 0,0 0,0 0,0 0,-1 0,0 0,-1 0,-1 0,-1 0,-1 0,-1 0,-1 0,-1 1,-1 0,0 0,0 0,0 0,-1 0,-2 0,-3l0 -33c0,-5 -2,-8 -5,-10z"/>
    <path class="fil0" d="M787 537l-43 -25c0,0 1,0 1,0 0,0 0,0 0,0 1,-1 2,-1 2,-1l29 -17c1,0 2,-1 3,-2 0,0 0,0 1,0 0,-1 1,-1 1,-2 0,0 0,0 1,0 0,0 0,-1 0,-1 0,0 0,0 1,0 0,-1 0,-1 1,-2 0,0 0,0 0,0 0,0 0,-1 0,-1 1,0 1,0 1,0 0,-1 0,-1 1,-2 0,0 0,0 0,-1 0,0 1,0 1,0 0,0 0,0 0,0 0,0 0,-1 0,-1 0,0 1,-1 1,-1 0,-1 0,-1 0,-2 0,0 0,0 0,0 0,0 0,0 0,0 1,0 1,-1 1,-1 0,0 0,-1 0,-1 1,-1 1,-1 1,-1 0,0 0,0 0,0 0,-1 0,-1 0,-1 0,-1 0,-1 0,-2 0,0 0,0 1,-1 0,0 0,0 0,0 0,0 0,-1 0,-1 0,-1 0,-2 0,-3l0 -32c0,-5 -2,-9 -5,-10l-56 -33c2,1 4,5 4,9l0 33c0,1 0,2 0,4 0,0 0,0 0,0 0,1 -1,2 -1,4 0,0 0,0 0,0 -1,1 -1,2 -1,3 0,0 0,0 0,0 -1,2 -2,3 -2,4 0,0 0,0 0,0 -1,1 -2,2 -2,3 0,0 -1,0 -1,1 0,0 -1,1 -2,2 0,0 0,1 0,1 -1,0 -2,1 -2,2 -1,0 -1,0 -1,0 -1,1 -2,2 -3,2l-28 17c-1,0 -2,1 -3,1 0,0 -1,0 -1,0 -1,0 -1,1 -2,1 0,0 0,0 0,0 -1,0 -2,0 -3,0 0,0 0,0 0,0 -1,-1 -2,-1 -2,-1l54 31c0,1 0,2 0,3l0 33c0,1 0,2 0,4 0,0 0,0 0,0 0,1 0,2 -1,3 0,1 0,1 0,1 0,1 -1,2 -1,3 0,0 0,0 0,0 -1,2 -1,3 -2,4 0,0 0,0 0,0 -1,1 -1,2 -2,3 0,0 0,0 0,1 -1,0 -2,1 -3,2 0,0 0,1 0,1 -1,0 -1,1 -2,1 0,1 0,1 -1,1 -1,1 -2,2 -3,2l-28 17c-1,0 -2,1 -3,1 0,0 0,0 0,0 -1,0 -2,1 -3,1 0,0 0,0 0,0 -1,0 -2,0 -3,0 0,0 0,0 0,0 0,-1 -1,-1 -2,-1l0 0 0 0 0 0 57 33c0,0 0,0 0,0 0,0 1,0 1,0 0,0 0,0 1,0 0,0 0,1 0,1 0,0 0,0 0,0 0,0 0,0 0,0 1,0 1,0 1,0 1,0 1,0 1,0 0,0 1,0 1,0 0,0 0,0 0,0 0,0 0,0 1,0 0,0 0,-1 1,-1 0,0 0,0 0,0 1,0 1,0 1,0 0,0 0,0 1,0 0,-1 1,-1 2,-1l28 -17c1,0 2,-1 3,-2 0,0 1,0 1,0 0,-1 1,-1 1,-2 0,0 1,0 1,0 0,0 0,-1 0,-1 1,0 1,0 1,0 0,-1 1,-1 1,-2 0,0 0,0 1,0 0,-1 0,-1 0,-1 0,0 0,0 0,0 0,-1 1,-1 1,-2 0,0 1,0 1,-1 0,0 0,0 0,0 0,0 0,0 0,0 0,0 0,-1 0,-1 1,-1 1,-1 1,-1 0,-1 1,-1 1,-2 0,0 0,0 0,0 0,0 0,0 0,0 0,0 0,-1 0,-1 0,-1 1,-1 1,-1 0,-1 0,-1 0,-1 0,0 0,0 0,-1 0,0 0,0 0,0 0,-1 1,-1 1,-2 0,0 0,0 0,-1 0,0 0,0 0,0 0,-1 0,-1 0,-1 0,-1 0,-2 0,-3l0 -33c0,-4 -2,-8 -4,-9z"/>
    <polygon class="fil1" points="1151,143 1094,110 635,375 692,409 "/>
    <path class="fil0" d="M692 676l0 -267 -57 -34 0 268c0,16 6,27 16,33l56 33c-9,-6 -15,-17 -15,-33z"/>
    <path class="fil2" d="M897 407l0 -33c0,-10 -6,-13 -15,-9l-28 17c-9,5 -15,16 -15,26l0 33c0,9 7,13 15,8l28 -16c9,-5 16,-17 15,-26zm214 -123l0 -33c-1,-10 -7,-13 -16,-9l-28 17c-8,5 -15,16 -15,26l0 33c0,9 7,13 15,8l29 -16c8,-5 15,-17 15,-26zm-107 61l0 -33c0,-9 -7,-13 -15,-8l-29 16c-8,5 -15,17 -15,26l0 33c0,10 7,13 16,9l28 -17c8,-5 15,-16 15,-26zm107 50l0 -33c0,-10 -7,-14 -15,-9l-29 17c-8,5 -15,16 -15,26l0 32c0,10 7,14 15,9l29 -16c8,-5 15,-17 15,-26zm-213 123l0 -33c0,-10 -7,-13 -15,-9l-29 17c-8,5 -15,16 -15,26l0 33c0,9 7,13 15,8l29 -16c8,-5 15,-17 15,-26zm-107 -50l0 -32c0,-10 -7,-14 -15,-9l-29 16c-8,5 -15,17 -15,26l0 33c0,10 7,14 15,9l29 -17c8,-5 15,-16 15,-26zm213 -12l0 -33c0,-9 -7,-13 -15,-8l-28 16c-9,5 -15,17 -15,26l0 33c0,10 7,13 15,9l28 -17c9,-5 15,-16 15,-26zm-213 123l0 -33c0,-9 -7,-13 -15,-8l-28 16c-9,5 -16,17 -16,26l1 33c0,10 6,13 15,9l28 -17c9,-5 15,-16 15,-26zm-99 -170l459 -266 0 268c1,32 -23,72 -51,89l-356 205c-28,17 -52,3 -52,-29l0 -267z"/>
    <path class="fil5" d="M1157 51c1,0 2,0 3,-1 1,0 1,0 2,0 1,0 1,0 2,0 0,-1 1,-1 2,-1 0,0 1,0 1,0 1,0 2,0 3,0 0,0 0,0 0,0 1,0 2,0 3,0 1,0 1,0 1,1 1,0 2,0 2,0 1,0 1,0 1,0 1,1 2,1 3,2l-57 -33c0,0 0,0 0,0 -1,-1 -2,-1 -2,-1 0,0 -1,-1 -1,-1 0,0 0,0 0,0 -1,0 -1,0 -2,0 0,0 0,0 -1,0 0,-1 0,-1 0,-1 -1,0 -1,0 -1,0 -1,0 -1,0 -2,0 0,0 0,0 -1,0 0,0 0,0 0,0 -1,0 -1,0 -2,0 0,0 -1,0 -1,0 0,0 -1,0 -1,0 0,0 -1,0 -1,0 -1,0 -1,0 -1,0 -1,1 -1,1 -2,1 0,0 -1,0 -1,0 0,0 0,0 -1,0 -1,1 -2,1 -3,1 0,0 0,1 -1,1 0,0 0,0 0,0 -2,1 -4,2 -6,3l-457 264c-3,1 -6,3 -8,5 -1,1 -2,2 -2,2 -2,1 -3,2 -4,4 -1,0 -1,1 -2,1 0,1 -1,1 -1,2 -1,0 -1,1 -2,1 -1,2 -2,3 -3,5 0,0 -1,1 -1,1 0,0 -1,1 -1,1 0,0 0,1 -1,1 -1,1 -1,3 -2,4 -1,1 -2,2 -2,3 0,0 0,1 0,1 -1,0 -1,0 -1,0 0,1 -1,2 -1,3 -1,1 -1,2 -2,3 -1,1 -1,3 -2,4 0,0 0,0 0,0 0,0 0,0 0,0 0,1 -1,2 -1,4 -1,1 -1,2 -2,4 0,0 0,1 0,2 0,0 0,0 0,0 -1,1 -1,1 -1,2 0,1 -1,3 -1,5 0,1 0,2 -1,3 0,0 0,0 0,1 0,0 0,1 0,1 0,3 -1,6 -1,9 0,13 5,22 13,26l56 33c-7,-4 -12,-13 -12,-26 0,-4 1,-7 1,-10 0,0 0,-1 0,-1 1,-3 1,-6 2,-10 0,0 1,0 1,0 1,-4 2,-7 3,-10 0,0 0,0 0,0 2,-4 3,-7 5,-10 0,0 0,0 0,0 2,-3 4,-6 6,-9 0,0 1,-1 1,-1 2,-2 4,-5 6,-7 0,-1 1,-1 1,-2 2,-1 4,-3 5,-5 1,0 2,-1 3,-2 2,-2 5,-4 8,-5l457 -264c2,-1 4,-2 6,-3 0,0 1,0 1,-1z"/>
    <path class="fil6" d="M1150 55l-457 264c-23,13 -42,45 -42,72 0,26 19,36 42,23l458 -264c23,-13 41,-45 41,-72 0,-26 -19,-37 -42,-23z"/>
    <path class="fil2" d="M827 36c7,-4 15,-4 19,2l97 136 -52 31 -84 -118c-6,-9 -3,-27 8,-41 4,-4 8,-8 12,-10z"/>
    <path class="fil0" d="M807 87c-1,-1 -1,-2 -2,-4 0,0 0,-1 0,-1 0,-1 -1,-2 -1,-3 0,0 0,-1 0,-2 0,-1 0,-2 0,-3 0,0 0,-1 0,-1 0,-2 0,-3 1,-4 0,-1 0,-1 0,-1 0,-2 1,-3 1,-5 0,0 0,0 0,0 1,-2 2,-4 2,-6 0,0 1,0 1,0 0,-2 1,-4 2,-5 0,0 1,-1 1,-1 1,-1 2,-3 3,-5 2,-2 4,-3 5,-5 1,0 1,-1 1,-1 2,-2 4,-3 6,-4 1,-1 2,-1 4,-2 0,0 0,0 0,0 2,0 3,-1 4,-1 0,0 0,0 1,0 1,0 2,0 3,0 0,0 0,0 0,0 2,1 3,1 4,2l-57 -33c0,-1 0,-1 0,-1 -1,0 -1,0 -1,0 -1,0 -1,0 -1,-1 -1,0 -1,0 -1,0 -1,0 -1,0 -1,0 0,0 0,0 0,0 0,0 -1,0 -1,0 -1,0 -1,0 -2,0 0,0 0,0 0,0 0,0 -1,0 -1,0 0,0 0,0 0,0 -1,0 -2,0 -2,1 -1,0 -1,0 -1,0 -1,0 -1,0 -1,0 0,0 -1,0 -1,1 -1,0 -2,1 -3,1 -2,1 -4,2 -5,4 -1,0 -1,1 -2,1 0,0 0,1 -1,1 -1,1 -2,2 -2,3 -1,0 -1,1 -2,1 0,0 0,1 0,1 -1,1 -1,1 -2,2 0,1 -1,1 -1,2 0,0 0,0 0,0 0,0 0,1 0,1 -1,0 -1,0 -1,1 -1,1 -1,1 -1,2 -1,0 -1,1 -1,2 0,0 0,0 0,0 0,0 0,0 0,0 -1,1 -1,1 -1,2 0,0 -1,1 -1,2 0,0 0,1 -1,2 0,0 0,0 0,0 0,0 0,0 0,0 0,1 0,1 0,2 -1,1 -1,2 -1,3 0,0 0,0 0,0 0,0 0,0 0,1 0,0 -1,1 -1,2 0,1 0,1 0,1 0,1 0,2 0,2 0,1 0,2 0,3 0,1 0,2 0,2 1,1 1,2 1,3 0,0 0,1 0,1 1,2 1,3 2,4l84 118 57 33 -84 -118z"/>
    <path class="fil7" d="M932 158c2,-1 5,-3 6,-3 4,0 9,0 13,1 -7,-5 -9,-10 -23,-7 -9,1 -16,6 -22,11 -12,11 -21,25 -25,41 -4,13 -6,34 8,42 0,0 11,7 11,7 -14,-8 -12,-30 -8,-43 5,-19 18,-36 35,-47l0 0c0,0 2,-1 5,-2z"/>
    <path class="fil3" d="M927 160c21,-12 38,-3 38,22 0,24 -17,53 -38,65 -21,12 -38,3 -38,-22 0,-24 17,-53 38,-65z"/>
    <path class="fil4" d="M985 334c11,-2 24,0 34,2 -17,-11 -24,-24 -59,-18 -19,3 -36,14 -50,27 -29,25 -50,59 -60,96 -9,32 -14,80 19,99 0,0 26,16 26,16 -23,-30 -29,-70 -19,-101 5,-19 15,-36 26,-53 17,-26 51,-63 83,-68z"/>
    <path class="fil3" d="M958 344c50,-28 90,-5 90,51 0,57 -40,126 -89,155 -50,28 -90,6 -90,-51 0,-57 40,-126 89,-155z"/>
    <path class="fil8" d="M919 538c-23,0 -26,-25 -26,-39 0,-48 35,-110 77,-134 11,-6 20,-9 28,-9 22,0 26,25 26,39 0,49 -35,110 -77,134 -11,6 -20,9 -28,9z"/>
    <path class="fil4" d="M965 400c5,-3 9,-1 9,5l0 26 23 -13c5,-3 9,-1 9,5 0,6 -4,13 -9,16l-23 13 0 27c0,6 -4,13 -9,16 -5,2 -9,0 -9,-6l0 -26 -23 13c-5,3 -10,1 -10,-5 0,-6 4,-13 10,-16l23 -13 -1 -27c0,-5 5,-13 10,-15z"/>
   </g>
   <g>
    <path class="fil0" d="M1703 354c-1,-1 -1,-1 -2,-2l-43 -24c1,0 1,-1 1,-1 0,0 0,0 0,0 1,0 2,0 3,-1l28 -16c1,-1 2,-2 3,-2 0,0 0,-1 1,-1 0,0 1,-1 1,-1 0,0 0,-1 1,-1 0,0 0,0 0,0 0,-1 1,-1 1,-1 0,0 1,-1 1,-1 0,-1 0,-1 0,-1 0,0 0,0 1,0 0,0 0,-1 0,-1 0,0 1,-1 1,-1 0,-1 0,-1 1,-1 0,0 0,0 0,0 0,-1 0,-1 0,-1 0,0 0,0 0,-1 1,0 1,0 1,-1 0,0 0,-1 1,-1 0,0 0,0 0,0 0,0 0,0 0,0 0,-1 0,-1 0,-2 0,0 0,-1 1,-1 0,0 0,0 0,-1 0,0 0,0 0,0 0,0 0,0 0,-1 0,0 0,-1 1,-1 0,-1 0,-1 0,-1 0,-1 0,-1 0,-1 0,0 0,0 0,0 0,-1 0,-2 0,-3l0 -33c0,-4 -1,-6 -3,-8 0,-1 -1,-1 -1,-2l-57 -33c2,2 4,5 4,10l0 33c0,1 0,2 0,3 0,0 0,0 0,1 0,1 -1,2 -1,3 0,0 0,0 0,0 0,1 -1,3 -1,4 0,0 0,0 0,0 -1,1 -1,2 -2,3 0,0 0,0 0,0 -1,2 -2,3 -2,4 0,0 0,0 0,0 -1,1 -2,2 -3,3 0,0 0,0 0,0 -1,1 -1,1 -2,2 0,0 -1,0 -1,1 -1,0 -2,1 -3,2l-28 16c-1,1 -2,1 -3,1 0,0 0,1 -1,1 0,0 -1,0 -2,0 0,0 0,0 0,0 -1,0 -2,0 -3,0 0,0 0,0 0,0 -1,0 -1,0 -2,-1l54 32c0,1 0,2 0,3l1 33c0,1 -1,2 -1,3 0,0 0,0 0,1 0,1 0,2 -1,3 0,0 0,0 0,0 0,1 0,3 -1,4 0,0 0,0 0,0 -1,1 -1,2 -2,3 0,0 0,0 0,0 -1,2 -1,3 -2,4 0,0 0,0 0,0 -1,1 -2,2 -2,3 -1,0 -1,0 -1,0 0,1 -1,1 -2,2 0,0 0,0 -1,1 -1,0 -2,1 -2,2l-29 16c-1,1 -2,1 -3,1 0,0 0,0 0,1 -1,0 -2,0 -3,0 0,0 0,0 0,0 -1,0 -2,0 -2,0 0,0 0,0 -1,0 0,0 -1,0 -2,-1l57 33c0,0 0,0 0,0 0,0 1,0 1,1 0,0 0,0 1,0 0,0 0,0 0,0 0,0 0,0 0,0 0,0 1,0 1,0 0,0 0,0 1,0 0,0 0,0 1,0 0,0 0,0 0,0 0,0 0,0 0,0 0,0 0,0 1,0 0,0 1,0 1,0 0,0 0,0 1,0 0,0 0,-1 0,-1 0,0 1,0 1,0 0,0 1,0 2,-1l28 -16c1,-1 2,-2 3,-2 0,-1 1,-1 1,-1 1,0 1,-1 1,-1 1,0 1,-1 1,-1 0,0 0,0 0,0 1,-1 1,-1 1,-1 0,0 1,-1 1,-1 0,-1 1,-1 1,-1 0,0 0,0 0,0 0,0 0,-1 0,-1 1,0 1,-1 1,-1 0,-1 1,-1 1,-1 0,0 0,0 0,-1 0,0 0,0 0,0 0,0 0,0 1,-1 0,0 0,-1 0,-1 0,0 1,-1 1,-1 0,0 0,0 0,0 0,0 0,0 0,0 0,-1 0,-1 0,-2 1,0 1,-1 1,-1 0,0 0,-1 0,-1 0,0 0,0 0,0 0,0 0,0 0,-1 1,0 1,-1 1,-1 0,-1 0,-1 0,-1 0,-1 0,-1 0,-1 0,0 0,0 0,0 0,-1 0,-2 0,-3l0 -33c0,-4 -1,-6 -2,-8z"/>
    <path class="fil0" d="M1594 414l-42 -25c0,0 0,0 0,0 0,0 1,0 1,0 1,-1 1,-1 2,-1l28 -17c1,0 2,-1 3,-2 1,0 1,0 1,-1 1,0 1,0 2,-1 0,0 0,0 0,0 0,0 0,-1 1,-1 0,0 0,0 0,0 1,-1 1,-1 1,-2 1,0 1,0 1,0 0,-1 0,-1 0,-1 0,0 0,0 0,0 1,-1 1,-1 1,-2 1,0 1,0 1,-1 0,0 0,0 0,0 0,0 0,0 0,0 0,0 1,-1 1,-1 0,-1 0,-1 0,-1 1,-1 1,-1 1,-2 0,0 0,0 0,0 0,0 0,0 0,0 0,0 0,-1 1,-1 0,-1 0,-1 0,-1 0,-1 0,-1 0,-1 0,0 0,0 0,-1 0,0 1,0 1,0 0,-1 0,-1 0,-2 0,0 0,0 0,-1 0,0 0,0 0,0 0,-1 0,-1 0,-1 0,-1 1,-2 1,-3l-1 -33c0,-4 -1,-8 -4,-9l-57 -33c3,1 5,5 5,9l0 33c0,1 0,2 -1,4 0,0 0,0 0,0 0,1 0,2 0,3 0,1 -1,1 -1,1 0,1 0,2 -1,3 0,0 0,0 0,0 0,2 -1,3 -2,4 0,0 0,0 0,0 0,1 -1,2 -2,3 0,0 0,0 0,1 -1,0 -1,1 -2,2 0,0 -1,1 -1,1 0,0 -1,1 -2,1 0,1 0,1 -1,1 0,1 -1,2 -2,2l-29 17c-1,0 -2,1 -3,1 0,0 0,0 0,0 -1,0 -2,1 -3,1 0,0 0,0 0,0 -1,0 -2,0 -2,0 0,0 0,0 0,0 -1,-1 -2,-1 -3,-1l0 0 0 0 0 0 55 31c0,1 0,2 0,3l0 33c0,1 0,2 0,4 0,0 0,0 0,0 -1,1 -1,2 -1,3 0,1 0,1 0,1 -1,1 -1,2 -2,3 0,0 0,0 0,0 0,2 -1,3 -1,4 0,0 0,0 0,0 -1,1 -2,2 -3,3 0,0 0,0 0,0 0,1 -1,2 -2,3 0,0 0,0 0,1 -1,0 -2,1 -2,1 -1,1 -1,1 -1,1 -1,1 -2,2 -3,2l-29 17c0,0 -1,1 -2,1 0,0 -1,0 -1,0 -1,0 -2,1 -2,1 0,0 0,0 -1,0 0,0 -1,0 -2,0 0,-1 0,-1 0,-1 -1,0 -2,0 -2,0l57 33c0,0 0,0 0,0 0,0 0,0 0,0 1,0 1,0 1,0 0,0 1,0 1,1 0,0 0,0 0,0 0,0 0,0 0,0 0,0 1,0 1,0 0,0 1,0 1,0 0,0 0,0 0,0 0,0 0,0 1,0 0,0 0,0 0,0 1,0 1,-1 1,-1 1,0 1,0 1,0 0,0 0,0 1,0 0,0 0,0 0,0 1,-1 2,-1 2,-1l29 -17c1,0 2,-1 3,-2 0,0 0,0 1,-1 0,0 0,0 1,-1 0,0 0,0 0,0 1,-1 1,-1 1,-1 0,0 0,0 1,0 0,-1 0,-1 1,-2 0,0 0,0 0,-1 0,0 0,0 0,0 0,0 1,0 1,0 0,-1 0,-1 1,-2 0,0 0,0 0,-1 0,0 0,0 0,0 0,0 0,0 0,0 1,0 1,-1 1,-1 0,-1 1,-1 1,-1 0,-1 0,-1 0,-2 0,0 0,0 0,0 0,0 0,0 0,0 1,0 1,-1 1,-1 0,-1 0,-1 0,-2 0,0 1,0 1,0 0,0 0,0 0,-1 0,0 0,0 0,0 0,-1 0,-1 0,-2 0,0 0,-1 0,-1 0,0 1,0 1,0 0,-1 0,-1 0,-1 0,-1 0,-2 0,-3l0 -33c0,-4 -2,-8 -5,-9z"/>
    <path class="fil0" d="M1488 475l-43 -24c0,0 1,0 1,-1 0,0 0,0 0,0 1,0 2,0 2,-1l29 -16c1,-1 2,-1 3,-2 0,0 0,-1 1,-1 0,0 1,-1 1,-1 0,0 0,-1 1,-1 0,0 0,0 0,0 0,0 0,-1 1,-1 0,0 0,-1 1,-1 0,-1 0,-1 0,-1 0,0 0,0 0,0 1,0 1,-1 1,-1 0,0 0,-1 1,-1 0,0 0,-1 0,-1 0,0 1,0 1,0 0,0 0,0 0,-1 0,0 0,0 0,-1 0,0 1,0 1,-1 0,0 0,-1 0,-1 0,0 0,0 0,0 0,0 0,0 0,0 1,-1 1,-1 1,-2 0,0 0,0 0,-1 1,0 1,0 1,-1 0,0 0,0 0,0 0,0 0,0 0,0 0,-1 0,-2 0,-2 0,-1 0,-1 1,-1 0,0 0,-1 0,-1 0,0 0,0 0,0 0,-1 0,-2 0,-3l0 -33c0,-5 -2,-8 -5,-10l-56 -33c2,2 4,5 4,10l0 33c0,1 0,2 0,3 0,0 0,1 0,1 0,1 -1,2 -1,3 0,0 0,0 0,0 -1,1 -1,3 -1,4 0,0 0,0 0,0 -1,1 -2,2 -2,3 0,0 0,1 0,1 -1,1 -2,2 -2,3 0,0 -1,0 -1,0 0,1 -1,2 -2,3 0,0 0,0 0,0 -1,1 -2,1 -2,2 -1,0 -1,1 -1,1 -1,1 -2,1 -3,2l-28 16c-1,1 -2,1 -3,1 0,1 -1,1 -1,1 -1,0 -1,0 -2,0 0,0 0,0 0,0 -1,0 -2,0 -3,0 0,0 0,0 0,0 -1,0 -1,0 -2,-1l54 32c0,1 0,2 0,3l0 33c0,1 0,2 0,3 0,0 0,0 0,1 0,1 0,2 -1,3 0,0 0,0 0,0 0,1 -1,3 -1,4 0,0 0,0 0,0 -1,1 -1,2 -2,3 0,0 0,0 0,0 -1,2 -1,3 -2,4 0,0 0,0 0,0 -1,1 -2,2 -3,3 0,0 0,0 0,0 -1,1 -1,1 -2,2 0,0 0,0 -1,1 -1,0 -2,1 -3,2l-28 16c-1,1 -2,1 -3,1 0,0 0,1 0,1 -1,0 -2,0 -3,0 0,0 0,0 0,0 -1,0 -2,0 -3,0 0,0 0,0 0,0 0,0 -1,0 -2,-1l0 0 0 0 0 0 57 33c0,0 0,0 0,0 0,0 1,1 1,1 0,0 0,0 1,0 0,0 0,0 0,0 0,0 0,0 0,0 0,0 0,0 0,0 1,0 1,0 1,0 1,0 1,0 1,0 1,0 1,0 1,0 0,0 0,0 0,0 0,0 0,0 1,0 0,0 0,0 1,0 0,0 0,0 0,0 1,0 1,0 1,-1 0,0 0,0 1,0 0,0 1,0 2,-1l28 -16c1,-1 2,-2 3,-2 0,0 1,-1 1,-1 0,0 1,-1 1,-1 0,0 1,-1 1,-1 0,0 0,0 0,0 1,-1 1,-1 1,-1 0,0 1,-1 1,-1 0,-1 0,-1 1,-1 0,0 0,0 0,0 0,0 0,-1 0,-1 0,0 1,-1 1,-1 0,-1 1,-1 1,-1 0,0 0,0 0,0 0,-1 0,-1 0,-1 0,0 0,0 0,-1 1,0 1,0 1,-1 0,0 1,-1 1,-1 0,0 0,0 0,0 0,0 0,0 0,0 0,-1 0,-1 0,-2 0,0 1,-1 1,-1 0,0 0,0 0,-1 0,0 0,0 0,0 0,0 0,0 0,-1 0,0 1,-1 1,-1 0,-1 0,-1 0,-1 0,-1 0,-1 0,-1 0,0 0,0 0,0 0,-1 0,-2 0,-3l0 -33c0,-5 -2,-8 -4,-10z"/>
    <path class="fil0" d="M1381 537l-42 -25c0,0 0,0 0,0 0,0 1,0 1,0 0,-1 1,-1 2,-1l28 -17c1,0 2,-1 3,-2 0,0 1,0 1,0 1,-1 1,-1 1,-2 1,0 1,0 1,0 0,0 0,-1 0,-1 1,0 1,0 1,0 0,-1 1,-1 1,-2 0,0 1,0 1,0 0,0 0,-1 0,-1 0,0 0,0 0,0 1,-1 1,-1 1,-2 0,0 1,0 1,-1 0,0 0,0 0,0 0,0 0,0 0,0 0,0 0,-1 1,-1 0,0 0,-1 0,-1 0,-1 1,-1 1,-2 0,0 0,0 0,0 0,0 0,0 0,0 0,0 0,-1 0,-1 1,0 1,-1 1,-1 0,-1 0,-1 0,-1 0,0 0,0 0,0 0,-1 0,-1 0,-1 1,-1 1,-1 1,-2 0,0 0,0 0,-1 0,0 0,0 0,0 0,0 0,-1 0,-1 0,-1 0,-2 0,-3l0 -32c0,-5 -1,-9 -4,-10l-57 -33c3,1 4,5 4,9l1 33c0,1 -1,2 -1,4 0,0 0,0 0,0 0,1 0,2 -1,4 0,0 0,0 0,0 0,1 0,2 -1,3 0,0 0,0 0,0 -1,2 -1,3 -2,4 0,0 0,0 0,0 -1,1 -1,2 -2,3 0,0 0,0 0,1 -1,0 -2,1 -2,2 -1,0 -1,1 -1,1 0,0 -1,1 -2,2 0,0 0,0 -1,0 -1,1 -2,2 -2,2l-29 17c-1,0 -2,1 -3,1 0,0 0,0 0,0 -1,0 -2,1 -3,1 0,0 0,0 0,0 -1,0 -2,0 -2,0 0,0 0,0 -1,0 0,-1 -1,-1 -2,-1l54 31c1,1 1,2 1,3l0 33c0,1 0,2 0,4 0,0 0,0 -1,0 0,1 0,2 0,3 0,1 0,1 0,1 -1,1 -1,2 -2,3 0,0 0,0 0,0 0,2 -1,3 -1,4 -1,0 -1,0 -1,0 0,1 -1,2 -2,3 0,0 0,0 0,1 -1,0 -1,1 -2,2 0,0 0,1 -1,1 0,0 -1,1 -1,1 -1,1 -1,1 -1,1 -1,1 -2,2 -3,2l-29 17c-1,0 -2,1 -2,1 -1,0 -1,0 -1,0 -1,0 -2,1 -2,1 -1,0 -1,0 -1,0 -1,0 -1,0 -2,0 0,0 0,0 0,0 -1,-1 -2,-1 -2,-1l0 0 0 0 0 0 56 33c0,0 0,0 1,0 0,0 0,0 0,0 1,0 1,0 1,0 0,0 0,1 1,1 0,0 0,0 0,0 0,0 0,0 0,0 0,0 1,0 1,0 0,0 0,0 1,0 0,0 0,0 0,0 0,0 0,0 0,0 1,0 1,0 1,0 0,0 1,-1 1,-1 0,0 1,0 1,0 0,0 0,0 0,0 1,0 1,0 1,0 1,-1 1,-1 2,-1l29 -17c1,0 2,-1 3,-2 0,0 0,0 0,0 1,-1 1,-1 2,-2 0,0 0,0 0,0 0,0 1,-1 1,-1 0,0 0,0 0,0 1,-1 1,-1 2,-2 0,0 0,0 0,0 0,-1 0,-1 0,-1 0,0 0,0 1,0 0,-1 0,-1 0,-2 1,0 1,0 1,-1 0,0 0,0 0,0 0,0 0,0 0,0 1,0 1,-1 1,-1 0,-1 0,-1 1,-1 0,-1 0,-1 0,-2 0,0 0,0 0,0 0,0 0,0 0,0 0,0 1,-1 1,-1 0,-1 0,-1 0,-1 0,-1 0,-1 0,-1 1,0 1,0 1,-1 0,0 0,0 0,0 0,-1 0,-1 0,-2 0,0 0,0 0,-1 0,0 0,0 0,0 0,-1 0,-1 1,-1 0,-1 0,-2 0,-3l0 -33c0,-4 -2,-8 -5,-9z"/>
    <polygon class="fil1" points="1745,143 1688,110 1229,375 1286,409 "/>
    <path class="fil0" d="M1287 676l-1 -267 -57 -34 1 268c0,16 6,27 15,33l57 33c-9,-6 -15,-17 -15,-33z"/>
    <path class="fil2" d="M1492 407l0 -33c0,-10 -7,-13 -15,-9l-29 17c-8,5 -15,16 -15,26l0 33c0,9 7,13 15,8l29 -16c8,-5 15,-17 15,-26zm213 -123l0 -33c0,-10 -7,-13 -15,-9l-29 17c-8,5 -15,16 -15,26l0 33c0,9 7,13 16,8l28 -16c8,-5 15,-17 15,-26zm-106 61l-1 -33c0,-9 -6,-13 -15,-8l-28 16c-9,5 -15,17 -15,26l0 33c0,10 7,13 15,9l28 -17c9,-5 16,-16 16,-26zm106 50l0 -33c0,-10 -7,-14 -15,-9l-28 17c-9,5 -15,16 -15,26l0 32c0,10 7,14 15,9l28 -16c9,-5 15,-17 15,-26zm-213 123l0 -33c0,-10 -7,-13 -15,-9l-28 17c-9,5 -16,16 -15,26l0 33c0,9 6,13 15,8l28 -16c9,-5 15,-17 15,-26zm-107 -50l0 -32c0,-10 -6,-14 -15,-9l-28 16c-9,5 -15,17 -15,26l0 33c0,10 7,14 15,9l28 -17c9,-5 15,-16 15,-26zm214 -12l0 -33c0,-9 -7,-13 -15,-8l-29 16c-8,5 -15,17 -15,26l0 33c0,10 7,13 15,9l29 -17c8,-5 15,-16 15,-26zm-213 123l0 -33c0,-9 -7,-13 -16,-8l-28 16c-8,5 -15,17 -15,26l0 33c0,10 7,13 15,9l29 -17c8,-5 15,-16 15,-26zm-100 -170l459 -266 1 268c0,32 -23,72 -52,89l-355 205c-29,17 -52,3 -52,-29l-1 -267z"/>
    <path class="fil9" d="M1752 51c1,0 2,0 3,-1 0,0 1,0 1,0 1,0 2,0 2,0 1,-1 2,-1 2,-1 1,0 1,0 2,0 0,0 1,0 2,0 0,0 1,0 1,0 1,0 2,0 3,0 0,0 0,0 1,1 0,0 1,0 2,0 0,0 0,0 1,0 1,1 1,1 2,2l-57 -33c0,0 0,0 0,0 0,-1 -1,-1 -2,-1 0,0 0,-1 0,-1 0,0 -1,0 -1,0 0,0 -1,0 -1,0 0,0 -1,0 -1,0 0,-1 -1,-1 -1,-1 0,0 0,0 0,0 -1,0 -2,0 -3,0 0,0 0,0 0,0 0,0 0,0 -1,0 0,0 -1,0 -2,0 0,0 0,0 0,0 -1,0 -1,0 -2,0 0,0 0,0 -1,0 0,0 0,0 -1,0 0,1 -1,1 -1,1 -1,0 -1,0 -1,0 -1,0 -1,0 -1,0 -1,1 -2,1 -3,1 -1,0 -1,1 -1,1 0,0 -1,0 -1,0 -2,1 -3,2 -5,3l-458 264c-2,1 -5,3 -8,5 0,1 -1,2 -2,2 -1,1 -2,2 -4,4 0,0 -1,1 -1,1 -1,1 -1,1 -2,2 0,0 -1,1 -1,1 -1,2 -2,3 -4,5 0,0 0,1 -1,1 0,0 0,1 0,1 -1,0 -1,1 -1,1 -1,1 -2,3 -3,4 0,1 -1,2 -2,3 0,0 0,1 0,1 0,0 0,0 0,0 -1,1 -1,2 -2,3 0,1 -1,2 -2,3 0,1 -1,3 -1,4 0,0 0,0 0,0 0,0 0,0 0,0 -1,1 -1,2 -2,4 0,1 -1,2 -1,4 0,0 -1,1 -1,2 0,0 0,0 0,0 0,1 0,1 0,2 -1,1 -1,3 -2,5 0,1 0,2 0,3 0,0 0,0 0,1 0,0 -1,1 -1,1 0,3 0,6 0,9 0,13 5,22 12,26l57 33c-8,-4 -12,-13 -12,-26 0,-4 0,-7 0,-10 1,0 1,-1 1,-1 0,-3 1,-6 2,-10 0,0 0,0 0,0 1,-4 2,-7 4,-10 0,0 0,0 0,0 1,-4 3,-7 5,-10 0,0 0,0 0,0 2,-3 4,-6 6,-9 0,0 0,-1 0,-1 2,-2 4,-5 6,-7 1,-1 1,-1 2,-2 1,-1 3,-3 5,-5 1,0 1,-1 2,-2 3,-2 5,-4 8,-5l458 -264c2,-1 3,-2 5,-3 1,0 1,0 2,-1z"/>
    <path class="fil10" d="M1745 55l-458 264c-23,13 -41,45 -41,72 0,26 18,36 41,23l458 -264c23,-13 41,-45 41,-72 0,-26 -18,-37 -41,-23z"/>
    <path class="fil2" d="M1421 36c8,-4 16,-4 20,2l96 136 -52 31 -84 -118c-6,-9 -2,-27 9,-41 3,-4 7,-8 11,-10z"/>
    <path class="fil0" d="M1401 87c0,-1 -1,-2 -1,-4 0,0 -1,-1 -1,-1 0,-1 0,-2 0,-3 0,0 0,-1 0,-2 -1,-1 -1,-2 -1,-3 0,0 1,-1 1,-1 0,-2 0,-3 0,-4 0,-1 0,-1 0,-1 1,-2 1,-3 2,-5 0,0 0,0 0,0 0,-2 1,-4 2,-6 0,0 0,0 0,0 1,-2 2,-4 3,-5 0,0 0,-1 0,-1 1,-1 2,-3 4,-5 1,-2 3,-3 5,-5 0,0 1,-1 1,-1 2,-2 3,-3 5,-4 1,-1 3,-1 4,-2 0,0 1,0 1,0 1,0 2,-1 4,-1 0,0 0,0 0,0 1,0 3,0 4,0 0,0 0,0 0,0 1,1 2,1 3,2l-57 -33c0,-1 0,-1 0,-1 0,0 0,0 -1,0 0,0 -1,0 -1,-1 0,0 -1,0 -1,0 0,0 0,0 0,0 0,0 0,0 0,0 -1,0 -1,0 -2,0 0,0 -1,0 -1,0 0,0 -1,0 -1,0 0,0 0,0 0,0 0,0 -1,0 -1,0 -1,0 -1,0 -2,1 0,0 -1,0 -1,0 0,0 0,0 -1,0 0,0 0,0 -1,1 -1,0 -2,1 -3,1 -1,1 -3,2 -5,4 0,0 -1,1 -1,1 -1,0 -1,1 -1,1 -1,1 -2,2 -3,3 0,0 -1,1 -1,1 0,0 -1,1 -1,1 0,1 -1,1 -1,2 -1,1 -1,1 -2,2 0,0 0,0 0,0 0,0 0,1 0,1 0,0 0,0 -1,1 0,1 0,1 -1,2 0,0 0,1 -1,2 0,0 0,0 0,0 0,0 0,0 0,0 0,1 0,1 -1,2 0,0 0,1 0,2 -1,0 -1,1 -1,2 0,0 0,0 0,0 0,0 0,0 0,0 -1,1 -1,1 -1,2 0,1 0,2 -1,3 0,0 0,0 0,0 0,0 0,0 0,1 0,0 0,1 0,2 0,1 0,1 0,1 0,1 0,2 0,2 0,1 0,2 0,3 0,1 0,2 0,2 0,1 0,2 0,3 1,0 1,1 1,1 0,2 1,3 2,4l84 118 56 33 -84 -118z"/>
    <path class="fil6" d="M1526 158c3,-1 6,-3 7,-3 4,0 8,0 13,1 -8,-5 -9,-10 -24,-7 -8,1 -15,6 -21,11 -13,11 -21,25 -26,41 -4,13 -6,34 8,42 0,0 11,7 11,7 -14,-8 -12,-30 -8,-43 6,-19 18,-36 35,-47l0 0c0,0 2,-1 5,-2z"/>
    <path class="fil5" d="M1521 160c21,-12 38,-3 38,22 0,24 -17,53 -38,65 -21,12 -38,3 -38,-22 0,-24 17,-53 38,-65z"/>
    <path class="fil6" d="M1567 328c7,-2 14,-5 16,-6 10,-2 23,0 33,3 -18,-11 -24,-25 -58,-18 -19,3 -36,14 -51,27 -28,25 -49,59 -60,96 -8,31 -14,80 20,99 0,0 25,16 25,16 -33,-20 -24,-69 -15,-101 10,-34 58,-102 90,-116z"/>
    <path class="fil5" d="M1556 333c49,-29 89,-6 90,51 0,57 -40,126 -90,155 -49,28 -89,5 -90,-52 0,-56 40,-126 90,-154z"/>
    <path class="fil8" d="M1516 527c-22,0 -25,-25 -25,-40 -1,-48 35,-109 77,-133 10,-6 20,-9 28,-9 22,0 25,24 25,39 0,48 -35,109 -77,134 -10,6 -20,9 -28,9z"/>
    <path class="fil6" d="M1594 407c5,-3 9,-1 9,5 0,6 -4,13 -9,16l-64 37c-5,3 -9,0 -9,-5 0,-6 4,-13 9,-16l64 -37z"/>
   </g>
   <g>
    <path class="fil11" d="M873 877c0,-1 0,-1 1,-1 1,0 2,-1 3,-1 0,0 1,0 1,0 1,-1 2,-1 2,-1 1,0 1,0 2,0 1,-1 1,-1 2,-1 1,0 1,0 2,0 0,0 1,0 2,-1 0,0 1,0 1,0 1,0 2,0 2,0 1,0 2,0 2,0 1,0 1,0 2,0 1,0 1,0 2,0 0,0 1,0 2,0 0,0 1,0 1,0 0,0 0,0 1,0 0,0 1,0 1,0 0,0 1,0 1,0 1,0 2,0 2,0 1,0 1,0 2,0 0,1 1,1 2,1 0,0 0,0 1,0 1,0 2,1 3,1 0,0 0,0 0,0 1,0 2,1 3,1 0,0 0,0 1,1 0,0 1,0 2,0 0,1 0,1 1,1 0,0 1,0 1,1l-42 -25c-8,-4 -17,-6 -27,-6 7,8 13,19 17,31 1,0 2,-1 4,-1z"/>
    <path class="fil0" d="M755 845l-11 -6 11 6c2,-1 4,-2 5,-3 1,-1 2,-1 2,-1 2,-1 3,-1 4,-2 1,0 1,-1 2,-1 1,0 2,-1 4,-1 0,-1 1,-1 2,-1 1,-1 2,-1 4,-2 0,0 1,0 1,0 2,-1 4,-1 5,-2 1,0 1,0 1,0 2,0 3,-1 5,-1 0,0 1,0 1,-1 1,0 3,0 4,0 0,0 1,0 2,0 1,-1 2,-1 3,-1 0,0 1,0 2,0 1,0 2,0 3,0 1,0 1,0 1,0 2,0 4,0 5,0 1,0 1,0 1,0 2,0 3,0 4,0 0,0 0,0 0,0 1,0 1,0 1,0 1,1 2,1 3,1 1,0 1,0 2,0 1,0 2,1 3,1 0,0 1,0 1,0 1,1 3,1 4,2 0,0 0,0 0,0 2,0 3,1 4,1 1,1 1,1 1,1 1,0 2,1 3,1 0,0 1,1 1,1l-42 -25c-22,-12 -51,-10 -84,9l0 0c-62,35 -113,119 -117,192l42 24c4,-72 55,-156 117,-192z"/>
    <path class="fil2" d="M864 1086c7,-5 14,-10 20,-16 37,-34 63,-88 63,-135 0,-29 -10,-49 -27,-58 -1,0 -1,0 -1,-1 -1,0 -2,0 -2,0 -1,-1 -1,-1 -1,-1 -1,0 -2,-1 -3,-1 0,0 0,0 0,0 -1,0 -2,-1 -3,-1 -1,0 -1,0 -1,0 -1,0 -2,0 -2,-1 -1,0 -1,0 -2,0 0,0 -1,0 -2,0 0,0 -1,0 -1,0 -1,0 -1,0 -2,0 0,0 -1,0 -1,0 -1,0 -2,0 -2,0 -1,0 -1,0 -2,0 -1,0 -1,0 -2,0 0,0 -1,0 -2,0 0,0 -1,0 -2,0 0,0 -1,0 -1,0 -1,1 -2,1 -2,1 -1,0 -1,0 -2,0 -1,0 -1,0 -2,1 -1,0 -1,0 -2,0 0,0 -1,0 -2,1 0,0 -1,0 -1,0 -1,0 -2,1 -3,1 -1,0 -1,0 -1,1 -2,0 -3,1 -4,1 -4,-12 -10,-23 -17,-31 -4,-4 -9,-8 -14,-11 -1,0 -2,-1 -3,-1 0,0 0,0 -1,-1 -1,0 -2,-1 -4,-1 0,0 0,0 0,0 -1,-1 -3,-1 -4,-2 0,0 -1,0 -1,0 -1,0 -2,-1 -3,-1 -1,0 -1,0 -2,0 -1,0 -2,0 -3,-1 0,0 -1,0 -1,0 -1,0 -2,0 -4,0 0,0 0,0 -1,0 -1,0 -3,0 -5,0 0,0 0,0 -1,0 -1,0 -2,0 -3,0 -1,0 -2,0 -2,0 -1,0 -2,0 -3,1 -1,0 -2,0 -2,0 -1,0 -3,0 -4,0 0,1 -1,1 -1,1 -2,0 -3,1 -5,1 0,0 0,0 -1,0 -1,1 -3,1 -5,2 0,0 -1,0 -1,0 -2,1 -3,1 -4,2 -1,0 -2,0 -2,1 -2,0 -3,1 -4,1 -1,0 -1,1 -2,1 -1,1 -2,1 -4,2 0,0 -1,0 -2,1 -1,1 -3,2 -5,3 -62,36 -113,120 -117,192 -35,30 -61,81 -61,124 0,2 0,3 0,5 0,0 0,1 0,1 0,1 0,2 0,3 0,1 0,1 0,2 1,1 1,2 1,2 0,1 0,2 0,2 0,1 0,2 0,2 1,1 1,2 1,2 0,1 0,2 0,2 0,1 1,1 1,2 0,1 0,1 0,2 1,1 1,1 1,2 0,0 0,1 1,2 0,0 0,1 0,1 1,1 1,1 1,2 0,0 1,1 1,1 0,1 0,1 1,2 0,0 0,1 0,1 1,1 1,1 1,2 1,0 1,1 1,1 1,1 1,1 1,2 1,0 1,0 1,1 1,0 1,1 1,1 1,0 1,1 1,1 1,1 1,1 2,1 0,1 0,1 1,1 0,1 0,1 1,1 0,1 1,1 1,1 1,1 1,1 1,1 1,1 1,1 2,1 0,0 1,1 1,1 9,5 21,7 34,4 7,-2 14,-5 22,-10l50 -29 59 -34 58 -33 19 -11 22 -13z"/>
    <path class="fil6" d="M797 1275c0,0 0,0 0,0 0,-1 -1,-1 -1,-2 0,0 0,0 -1,0 0,-1 0,-2 -1,-3 0,0 0,0 0,0 0,-1 0,-2 0,-3 -1,0 -1,0 -1,0 0,-1 0,-2 0,-3 0,0 0,-1 0,-1 0,-1 0,-2 0,-3 0,0 0,0 0,0 0,-2 0,-3 1,-4 0,0 0,-1 0,-1 0,-1 0,-2 1,-4 0,-1 1,-3 2,-5 9,-21 30,-50 41,-70l-42 -24 -19 33 -1 24c0,3 0,6 0,10 0,0 -1,0 -1,1l0 0 0 0c0,1 0,2 -1,4 -3,11 -11,21 -19,26 1,1 1,2 2,2l42 25c0,-1 0,-1 0,-1 0,0 -1,0 -2,-1z"/>
    <path class="fil5" d="M797 1246c-1,2 -2,4 -2,5 -1,2 -1,3 -1,4 0,0 0,1 0,1 -1,1 -1,2 -1,4 0,0 0,0 0,0 0,1 0,2 0,3 0,0 0,1 0,1 0,1 0,2 0,3 0,0 0,0 1,0 0,1 0,2 0,3 0,0 0,0 0,0 1,1 1,2 1,3 1,0 1,0 1,0 0,1 1,1 1,2 0,0 0,0 0,0 1,1 2,1 2,1 2,2 4,2 7,2 3,0 6,-1 9,-3 8,-5 16,-15 20,-26 0,-2 0,-3 1,-5 3,-16 1,-50 2,-68 -12,21 -32,50 -41,70z"/>
    <path class="fil6" d="M737 1250c0,0 0,0 0,-1 -1,0 -1,-1 -1,-1 -1,0 -1,0 -1,-1 0,0 0,-1 -1,-2 0,0 0,0 0,0 0,-1 0,-2 -1,-3 0,0 0,0 0,0 0,-1 0,-2 0,-3 0,-1 0,-1 0,-1 0,-1 0,-2 0,-3 0,0 0,0 0,-1 0,-1 0,-2 1,-3 0,0 0,-1 0,-1 0,-1 0,-3 1,-4 0,-2 1,-3 2,-5 9,-21 29,-50 41,-70l-13 -8 -59 34 -5 9 9 5 -9 -5c-2,3 -5,7 -6,11 -1,1 -2,3 -2,5 -3,7 -3,14 -1,19 1,2 3,5 5,6l42 24c0,0 0,0 0,0 -1,0 -1,-1 -2,-1z"/>
    <path class="fil5" d="M737 1221c-1,2 -2,3 -2,5 -1,1 -1,3 -1,4 0,0 0,1 0,1 -1,1 -1,2 -1,3 0,1 0,1 0,1 0,1 0,2 0,3 0,0 0,0 0,1 0,1 0,2 0,3 0,0 0,0 0,0 1,1 1,2 1,3 0,0 0,0 0,0 1,1 1,2 1,2 0,1 0,1 1,1 0,0 0,1 1,1 0,1 0,1 0,1 1,0 1,1 2,1 2,1 4,2 7,2 3,0 6,-1 9,-3 0,0 0,0 0,0 8,-5 16,-15 19,-26 1,-2 1,-3 1,-4 0,-1 1,-1 1,-1 1,-9 0,-25 1,-34l1 -34c-12,20 -32,50 -41,70z"/>
    <path class="fil6" d="M660 1355c-1,-1 -1,-1 -1,-1 0,0 -1,-1 -1,-1 0,-1 0,-1 0,-1 -1,-1 -1,-1 -1,-2 0,0 -1,-1 -1,-1 0,-1 0,-1 0,-2 0,0 0,0 0,-1 -1,-1 -1,-2 -1,-3 0,0 0,0 0,0 0,-1 0,-2 0,-3 0,-1 0,-1 0,-1 1,-1 1,-2 1,-3 0,-1 0,-1 0,-1 0,-2 1,-3 1,-4 1,-2 1,-4 2,-5l0 0c10,-21 29,-50 41,-70l-42 -25 -10 18 0 18c0,2 0,4 -1,7 0,1 0,2 -1,4 -2,8 -8,15 -13,18l0 0c-1,1 -1,1 -1,1 -2,1 -4,2 -7,2 -2,0 -3,0 -5,-1 0,0 1,0 1,0l-2 -1c0,2 -1,3 -2,4l0 0c-1,2 -1,4 -2,5 -4,12 -1,22 5,26l42 24c0,0 -1,0 -1,0 0,0 -1,-1 -1,-1z"/>
    <path class="fil5" d="M659 1326c-1,1 -1,3 -2,5 0,1 -1,2 -1,4 0,0 0,0 0,1 0,1 0,2 -1,3 0,0 0,0 0,1 0,1 0,2 0,3 0,0 0,0 0,0 0,1 0,2 1,3 0,1 0,1 0,1 0,1 0,1 0,2 0,0 1,1 1,1 0,1 0,1 1,2 0,0 0,0 0,1 0,0 1,1 1,1 0,0 0,0 1,1 0,0 1,1 1,1 2,1 5,2 7,1 3,0 6,-1 9,-2 8,-5 16,-15 20,-27 0,-1 1,-3 1,-5 3,-15 2,-49 2,-67 -12,20 -32,49 -41,70z"/>
    <path class="fil6" d="M620 1298c0,0 0,-1 -1,-1 0,0 0,0 0,0 0,-1 -1,-1 -1,-2 0,0 0,0 0,0 -1,0 -1,-1 -1,-2 0,0 0,0 0,0 0,0 -1,-1 -1,-2 0,0 0,0 0,0 0,-1 0,-1 0,-2 0,0 0,-1 0,-1 0,-1 0,-1 0,-2 0,0 0,0 0,0 0,-1 0,-2 0,-3 0,0 0,0 1,-1 0,-1 0,-1 0,-2 4,-14 26,-45 32,-56l-15 -8c-13,3 -25,1 -34,-4l-19 32 0 0c-1,2 -3,5 -4,7 -1,2 -1,3 -2,4 -2,9 -1,16 4,19l40 23 2 1c0,0 -1,0 -1,0z"/>
    <path class="fil5" d="M617 1280c0,1 0,1 0,2 -1,1 -1,1 -1,1 0,1 0,2 0,3 0,0 0,0 0,0 0,1 0,1 0,2 0,0 0,1 0,1 0,1 0,1 0,2 0,0 0,0 0,0 0,1 1,2 1,2 0,0 0,0 0,0 0,1 0,2 1,2 0,0 0,0 0,0 0,1 1,1 1,2 0,0 0,0 0,0 1,0 1,1 1,1 2,1 3,1 5,1 3,0 5,-1 7,-2 0,0 0,0 1,-1 5,-3 11,-10 13,-18 1,-2 1,-3 1,-4 2,-6 1,-18 1,-25l1 -25c-9,16 -27,40 -32,56z"/>
    <path class="fil6" d="M867 1141c0,-1 0,-1 0,-1 -1,0 -1,-1 -1,-1 0,-1 0,-1 0,-1 -1,-1 -1,-1 -1,-2 0,0 0,-1 0,-1 0,-1 0,-1 0,-2 0,0 0,-1 0,-1 0,-1 0,-1 0,-2 0,-1 0,-1 0,-1 0,-1 1,-2 1,-4 0,-1 1,-2 1,-3 1,-2 3,-5 4,-7l-29 -16 -19 11c0,4 2,6 4,8l42 24c0,0 0,0 0,0 -1,0 -1,0 -1,0 0,-1 -1,-1 -1,-1zm-25 -42l29 16 23 -39 -10 -6c-6,6 -13,11 -20,16l-22 13z"/>
    <path class="fil5" d="M871 1115c-1,2 -3,5 -4,7 0,1 -1,2 -1,3 0,2 -1,3 -1,4 0,0 0,0 0,1 0,1 0,1 0,2 0,0 0,1 0,1 0,1 0,1 0,2 0,0 0,1 0,1 0,1 0,1 1,2 0,0 0,0 0,1 0,0 0,1 1,1 0,0 0,0 0,1 0,0 1,0 1,1 0,0 0,0 1,0 1,1 2,1 4,1 2,0 4,-1 6,-2 5,-3 11,-10 13,-17 0,-1 1,-2 1,-3 2,-11 1,-33 1,-45l-23 39z"/>
    <path class="fil11" d="M596 1209c0,0 -1,0 -1,-1 -1,0 -1,0 -1,-1 -1,0 -1,0 -1,-1 -1,0 -1,0 -2,-1 0,0 0,-1 -1,-1 0,0 0,-1 -1,-1 0,-1 0,-1 -1,-1 0,-1 0,-1 -1,-2 0,0 0,-1 -1,-1 0,-1 0,-1 -1,-2 0,0 0,-1 0,-1 -1,-1 -1,-1 -1,-2 0,0 -1,-1 -1,-1 0,-1 0,-1 -1,-2 0,0 0,-1 0,-1 -1,-1 -1,-2 -1,-2 0,-1 0,-1 -1,-2 0,-1 0,-1 0,-2 0,-1 -1,-1 -1,-2 0,0 0,-1 0,-2 0,0 0,-1 -1,-2 0,0 0,-1 0,-2 0,0 0,-1 0,-2 0,0 0,-1 -1,-2 0,-1 0,-1 0,-2 0,-1 0,-2 0,-3 0,0 0,-1 0,-1 0,-2 0,-3 0,-5 0,-43 26,-94 61,-124l-42 -24c-35,30 -61,81 -61,124 0,25 9,42 23,51l42 24c-1,0 -1,-1 -1,-1 -1,0 -1,0 -2,-1 0,0 0,0 -1,-1z"/>
   </g>
   <g>
    <path class="fil12" d="M480 923c4,-4 9,-7 13,-10 2,-1 3,-1 5,-2 0,0 1,-1 1,-1 1,0 3,-1 4,-1 0,0 1,0 1,-1 1,0 2,0 3,0 1,0 1,0 2,-1 1,0 2,0 2,0 1,0 2,0 2,0 1,0 2,0 2,0 1,0 2,0 2,0 1,0 2,0 2,0 1,1 1,1 2,1 1,0 1,0 2,0 0,1 1,1 1,1 1,0 2,1 2,1 0,0 0,0 0,0l-48 -28c2,6 4,14 4,23 0,6 -1,12 -2,18z"/>
    <path class="fil13" d="M377 837c0,0 -1,0 -2,0 1,0 2,0 2,0z"/>
    <path class="fil13" d="M356 838c-1,1 -2,1 -2,1 0,0 1,0 2,-1z"/>
    <path class="fil13" d="M367 836c-1,0 -1,0 -2,1 1,-1 1,-1 2,-1z"/>
    <path class="fil13" d="M362 837c-1,0 -2,0 -3,0 1,0 2,0 3,0z"/>
    <path class="fil13" d="M370 836c1,0 2,0 2,1 0,-1 -1,-1 -2,-1z"/>
    <path class="fil0" d="M384 840c11,6 18,18 19,35 4,-3 7,-6 11,-8 2,-1 3,-2 4,-2 0,0 1,-1 1,-1 1,0 1,-1 2,-1 1,0 1,0 2,0 0,-1 1,-1 2,-1 0,-1 1,-1 1,-1 1,0 1,0 2,-1 0,0 1,0 1,0 1,0 2,0 2,-1 1,0 1,0 2,0 0,0 1,0 1,0 1,-1 1,-1 2,-1 0,0 1,0 2,0 0,0 0,0 1,0 0,0 1,0 2,0 0,0 1,0 1,0 0,0 1,-1 2,-1 0,0 0,0 1,0 0,0 1,0 1,1 1,0 1,0 2,0 0,0 1,0 1,0 1,0 1,0 2,0 0,0 1,0 1,0 0,0 1,0 1,0 1,1 1,1 2,1 0,0 0,0 1,0 0,0 1,1 1,1 1,0 1,0 1,0 1,0 1,0 2,1 0,0 0,0 1,0 0,0 1,1 1,1 0,0 0,0 0,0l-55 -32c-11,-6 -24,-6 -40,0l18 10c0,0 -1,0 -1,0z"/>
    <path class="fil13" d="M382 839c-1,0 -1,-1 -2,-1 1,0 1,1 2,1z"/>
    <path class="fil12" d="M341 845l-55 -32c-13,7 -25,19 -35,32 -2,4 -5,8 -8,12 -3,6 -6,12 -8,18 -1,1 -2,2 -2,4 -3,8 -5,16 -7,24l56 32c5,-35 30,-73 59,-90 2,-1 5,-3 7,-3 0,-1 1,-1 2,-1 1,-1 2,-1 4,-2 0,0 1,0 2,-1 1,0 2,0 3,-1 1,0 2,0 3,0 1,0 2,0 3,0 1,-1 1,-1 2,-1 1,0 2,0 3,0 1,0 2,0 2,1 1,0 2,0 3,0 1,0 2,0 2,0 1,1 2,1 3,1 1,0 1,1 2,1 1,0 1,1 2,1 0,0 1,0 1,0l-18 -10 -37 -22c-11,-6 -27,-5 -44,5l55 32z"/>
    <path class="fil12" d="M99 1220c0,0 -1,0 -1,-1 -1,-1 -1,-1 -2,-2 0,-1 -1,-1 -1,-2 -1,-1 -1,-1 -1,-2 -1,-1 -1,-1 -2,-2 0,-1 0,-2 -1,-3 0,-1 0,-1 0,-2 -1,-1 -1,-2 -1,-4 -1,0 -1,-1 -1,-2 0,-1 0,-2 0,-4 -1,0 -1,-1 -1,-2 0,-2 0,-4 0,-6 0,-21 8,-45 22,-65 2,-4 5,-8 8,-11 2,-2 3,-4 5,-5 4,-6 10,-10 15,-14l-55 -32c-29,20 -51,61 -50,95 0,11 2,20 7,27 2,4 6,7 9,10l56 32c-1,-1 -2,-1 -2,-2 -1,0 -1,0 -2,-1 -1,0 -1,-1 -2,-2z"/>
    <path class="fil0" d="M232 948c7,-4 14,-7 20,-9 11,-3 21,-5 30,-4l-56 -32c-14,-1 -31,3 -49,13 -47,27 -86,89 -94,145l55 32c8,-56 47,-118 94,-145z"/>
    <path class="fil2" d="M526 910c0,0 -1,-1 -2,-1 0,0 -1,0 -1,-1 -1,0 -1,0 -2,0 -1,0 -1,0 -2,-1 0,0 -1,0 -2,0 0,0 -1,0 -2,0 0,0 -1,0 -2,0 0,0 -1,0 -2,0 0,0 -1,0 -2,0 -1,1 -1,1 -2,1 -1,0 -2,0 -3,0 0,1 -1,1 -1,1 -1,0 -3,1 -4,1 0,0 -1,1 -1,1 -2,1 -3,1 -5,2 -4,3 -9,6 -13,10 1,-6 2,-12 2,-18 0,-9 -2,-17 -4,-23 -4,-9 -9,-16 -16,-20 0,0 -1,-1 -1,-1 -1,0 -1,0 -1,0 -1,0 -1,-1 -2,-1 0,0 0,0 -1,0 0,0 -1,-1 -1,-1 -1,0 -1,0 -1,0 -1,0 -1,0 -2,-1 0,0 -1,0 -1,0 0,0 -1,0 -1,0 -1,0 -1,0 -2,0 0,0 -1,0 -1,0 -1,0 -1,0 -2,0 0,-1 -1,-1 -1,-1 -1,0 -1,0 -1,0 -1,0 -2,1 -2,1 0,0 -1,0 -1,0 -1,0 -2,0 -2,0 -1,0 -1,0 -1,0 -1,0 -2,0 -2,0 -1,0 -1,0 -2,1 0,0 -1,0 -1,0 -1,0 -1,0 -2,0 0,1 -1,1 -2,1 0,0 -1,0 -1,0 -1,1 -1,1 -2,1 0,0 -1,0 -1,1 -1,0 -2,0 -2,1 -1,0 -1,0 -2,0 -1,0 -1,1 -2,1 0,0 -1,1 -1,1 -1,0 -2,1 -4,2 -4,2 -7,5 -11,8 -1,-17 -8,-29 -19,-35 -1,0 -1,-1 -2,-1 -1,0 -1,-1 -2,-1 -1,0 -2,0 -3,-1 0,0 -1,0 -2,0 -1,0 -2,0 -3,0 0,-1 -1,-1 -2,-1 -1,0 -2,0 -3,0 -1,0 -1,0 -2,1 -1,0 -2,0 -3,0 -1,0 -2,0 -3,0 -1,1 -2,1 -3,1 -1,1 -2,1 -2,1 -2,1 -3,1 -4,2 -1,0 -2,0 -2,1 -2,0 -5,2 -7,3 -29,17 -54,55 -59,90l0 0c-9,-1 -19,1 -30,4 -6,2 -13,5 -20,9 -47,27 -86,89 -94,145 -5,4 -11,8 -15,14 -2,1 -3,3 -5,5 -3,3 -6,7 -8,11 -14,20 -22,44 -22,65 0,2 0,4 0,6 0,1 0,2 1,2 0,2 0,3 0,4 0,1 0,2 1,2 0,2 0,3 1,4 0,1 0,1 0,2 1,1 1,2 1,3 1,1 1,1 2,2 0,1 0,1 1,2 0,1 1,1 1,2 1,1 1,1 2,2 0,1 1,1 1,1 1,1 1,2 2,2 1,1 1,1 2,1 10,8 26,8 43,-2l347 -201c26,-15 47,-51 47,-80 0,-15 -5,-25 -14,-30z"/>
    <path class="fil6" d="M450 1240c1,0 2,0 2,0 0,0 0,0 0,0 1,0 1,0 1,0 0,0 0,0 0,0l-19 -12 -2 1 18 11z"/>
    <path class="fil6" d="M430 1275l-18 -11 0 2 19 12c0,-1 0,-1 0,-1 0,0 -1,0 -1,0 0,-1 0,-1 0,-2z"/>
    <path class="fil6" d="M426 1233c-1,3 -1,6 -3,8l13 8 14 -9 -18 -11 -6 4z"/>
    <path class="fil14" d="M418 1230c0,0 0,0 0,0 0,0 0,0 0,0z"/>
    <path class="fil15" d="M407 1251c0,1 -1,1 -2,1 1,0 2,0 2,-1z"/>
    <path class="fil16" d="M430 1258l-12 -7c-2,3 -4,5 -6,7l0 6 18 11 0 -17z"/>
    <polygon class="fil17" points="459,1219 451,1214 451,1214 "/>
    <path class="fil16" d="M393 1300l-8 -5 0 6c0,0 0,1 0,1l8 5c-1,-1 -1,-4 0,-7z"/>
    <polygon class="fil6" points="404,1282 390,1275 385,1285 385,1295 393,1300 "/>
    <polygon class="fil16" points="436,1197 430,1206 444,1213 454,1196 446,1191 "/>
    <path class="fil6" d="M446 1191l8 5c1,-2 2,-3 3,-3 1,-1 2,-1 2,-1l-8 -4c0,0 -1,0 -1,0l-4 3z"/>
    <path class="fil17" d="M423 1241l13 8 -13 -8c0,0 0,0 0,0z"/>
    <path class="fil16" d="M403 1262c-2,1 -4,1 -6,1l-7 12 14 7 -1 -20z"/>
    <path class="fil6" d="M423 1218c1,2 2,3 3,6l18 -11 -14 -7 -7 12z"/>
    <path class="fil6" d="M377 1306l-13 -7c-1,0 -2,0 -3,-1 1,1 1,1 1,1l-9 -5c0,0 0,0 0,0l25 15c0,-1 0,-1 -1,-1 0,0 0,0 0,0 0,-1 0,-1 0,-2z"/>
    <path class="fil18" d="M361 1298c0,0 0,-1 0,-1l0 0c0,0 0,1 0,1z"/>
    <path class="fil18" d="M436 1169c0,0 0,0 0,0 0,0 0,0 0,0 0,0 0,0 0,0z"/>
    <path class="fil6" d="M438 1172l12 7c1,0 1,0 2,0 0,0 0,0 0,0 0,0 1,0 1,0 0,0 0,0 0,0l-16 -9c1,0 1,1 1,2l0 0z"/>
    <path class="fil6" d="M377 1292l-12 7c0,0 0,0 -1,0l13 7 0 -14z"/>
    <path class="fil15" d="M361 1297c0,0 0,-1 0,-1 0,0 0,1 0,1z"/>
    <path class="fil16" d="M418 1230c0,0 0,0 0,0 0,0 0,0 0,0 0,-1 0,-1 -1,-2 0,0 0,0 0,0 0,-1 0,-1 -1,-1 0,0 0,-1 0,-1 -2,-1 -5,-1 -9,0 -6,4 -10,12 -10,19l10 6c6,-3 11,-11 11,-18 0,-1 0,-2 0,-3z"/>
    <path class="fil6" d="M397 1245c0,0 0,0 0,0 0,4 1,6 3,7 0,0 0,0 1,0 0,0 0,1 0,1 1,0 1,0 2,0 0,0 0,0 0,0 1,0 1,0 2,-1 0,0 0,0 0,0 1,0 2,0 2,-1l-10 -6z"/>
    <polygon class="fil6" points="438,1186 450,1179 438,1172 "/>
    <polygon class="fil6" points="379,1281 392,1260 386,1256 371,1264 366,1273 "/>
    <polygon class="fil6" points="417,1186 411,1195 411,1211 418,1215 430,1193 "/>
    <path class="fil6" d="M389 1254l-3 2 6 4c-2,-2 -2,-4 -3,-6z"/>
    <path class="fil6" d="M411 1215c3,0 5,0 7,0l-7 -4 0 4z"/>
    <path class="fil16" d="M379 1281l-13 -8 -5 9c-1,1 -2,3 -3,3 0,0 0,0 0,0l7 4 14 -8z"/>
    <path class="fil6" d="M422 1178l-5 8 13 7 0 -17 -8 -4c1,1 1,4 0,6z"/>
    <path class="fil6" d="M361 1298c0,0 0,0 0,0 0,0 0,-1 0,-1 0,0 0,-1 0,-1 0,-2 2,-5 4,-7l-7 -4c-1,1 -2,1 -3,0l-16 -9c-2,1 -3,4 -3,6 0,1 0,1 0,1 0,1 1,1 1,1l16 10 9 5c0,0 0,0 -1,-1z"/>
    <path class="fil18" d="M437 1169l0 0c0,0 0,0 0,0 0,0 0,0 0,0z"/>
    <path class="fil18" d="M417 1158c-1,0 -1,0 -1,-1l0 0c0,1 0,1 1,1z"/>
    <path class="fil18" d="M417 1159c0,-1 0,-1 0,-1 0,0 0,0 0,1z"/>
    <path class="fil16" d="M417 1159c0,0 1,0 1,0l-8 -4c0,0 -1,0 -1,0 -2,1 -4,4 -4,7l17 9c0,0 0,1 0,1l8 4c0,-2 2,-5 4,-6 1,-1 1,-1 2,-1 0,0 0,0 0,0 0,0 0,0 0,0 0,0 1,0 1,0l-17 -10c-1,1 -2,0 -3,0z"/>
    <path class="fil6" d="M389 1245c1,-3 1,-6 3,-9l-13 -7 -8 5 18 11z"/>
    <path class="fil6" d="M385 1209l0 10 12 8c2,-3 4,-5 6,-7l-18 -11z"/>
    <path class="fil14" d="M360 1235c0,1 1,1 1,2 0,-1 -1,-1 -1,-2z"/>
    <path class="fil6" d="M356 1235l-9 6 25 14 17 -10 -18 -11 -7 4c-1,0 -2,0 -3,-1 0,0 0,1 1,1l-6 -3z"/>
    <path class="fil15" d="M382 1200c0,0 1,0 1,0 0,0 -1,0 -1,0z"/>
    <path class="fil16" d="M384 1200c0,1 1,2 1,3l0 6 18 11 0 -20 -10 -6 -15 -9 0 12 6 3c0,0 0,0 0,0z"/>
    <path class="fil16" d="M355 1285c-1,0 -1,-3 0,-6l-18 -11c-1,2 -3,3 -4,4l-1 0 7 4 16 9z"/>
    <path class="fil6" d="M335 1257l2 1c0,0 0,0 0,0 1,1 2,2 2,4 0,2 -1,4 -2,6l18 11 9 -15 -8 -5 -17 -10 -4 8z"/>
    <path class="fil14" d="M335 1258c0,0 0,0 0,0 0,0 0,0 0,0z"/>
    <path class="fil14" d="M336 1258c0,0 0,0 0,0 0,0 0,0 0,0z"/>
    <line class="fil19" x1="334" y1="1258" x2="334" y2= "1258" />
    <polygon class="fil6" points="407,1189 416,1174 391,1160 383,1175 "/>
    <path class="fil6" d="M416 1174c1,-1 2,-2 3,-3 1,0 2,0 3,0l-17 -9 -8 -5c-1,-1 -2,-1 -3,0 -1,1 -2,2 -3,3l25 14z"/>
    <polygon class="fil17" points="385,1219 385,1220 397,1227 "/>
    <polygon class="fil17" points="407,1189 383,1175 374,1170 399,1184 "/>
    <path class="fil16" d="M341 1241c-1,1 -3,2 -4,1l-6 -4c-1,2 -2,4 -1,5 0,1 0,1 1,1l8 5 17 10c-2,-1 -2,-4 0,-7 0,-1 1,-2 2,-3 1,0 1,0 2,0 0,0 1,0 1,0l-17 -10c-1,1 -2,2 -3,2z"/>
    <path class="fil6" d="M393 1187c1,-1 2,-2 3,-3 1,0 2,0 3,0l-25 -14c-1,-1 -2,-1 -3,0 -1,0 -2,1 -3,3 -1,1 -1,3 -1,4 0,1 0,2 1,2l10 6 15 9c-2,-1 -2,-4 0,-7z"/>
    <polygon class="fil16" points="377,1207 352,1193 352,1207 377,1221 "/>
    <polygon class="fil6" points="377,1221 352,1207 339,1214 364,1228 "/>
    <path class="fil6" d="M377 1207c0,-2 2,-5 4,-7 0,0 1,0 1,0 0,0 1,0 1,0 0,0 0,0 1,0 0,0 0,0 0,0l-6 -3 -19 -11c-1,-1 -2,-1 -3,0 -2,1 -4,4 -4,7l25 14z"/>
    <path class="fil16" d="M347 1229l9 6 6 3c-1,0 -1,-1 -1,-1 0,0 0,0 0,0 0,-1 -1,-1 -1,-2 0,-2 2,-5 4,-7l-25 -14c-2,1 -4,4 -3,7 0,0 0,1 0,1l9 6c1,0 2,1 2,1z"/>
    <path class="fil5" d="M407 1251c0,1 -1,1 -2,1 0,0 0,0 0,0 -1,1 -1,1 -2,1 0,0 0,0 0,0 -1,0 -1,0 -2,0 0,0 0,-1 0,-1 -1,0 -1,0 -1,0 -2,-1 -3,-3 -3,-7 0,0 0,0 0,0 0,-7 4,-15 10,-19 4,-1 7,-1 9,0 0,0 0,1 0,1 1,0 1,0 1,1 0,0 0,0 0,0 1,1 1,1 1,2 0,0 0,0 0,0 0,0 0,0 0,0 0,1 0,2 0,3 0,7 -5,15 -11,18zm29 -82c0,0 0,0 0,0 -1,0 -1,0 -2,1 -2,1 -4,4 -4,6l0 17 -12 22c-2,0 -4,0 -7,0l0 -4 0 -16 6 -9 5 -8c1,-2 1,-5 0,-6 0,0 0,-1 0,-1 -1,0 -2,0 -3,0 -1,1 -2,2 -3,3l-9 15 -8 -5c-1,0 -2,0 -3,0 -1,1 -2,2 -3,3 -2,3 -2,6 0,7l10 6 0 20c-2,2 -4,4 -6,7l-12 -7 0 -1 0 -10 0 -6c0,-1 -1,-2 -1,-3 -1,0 -1,0 -1,0 0,0 -1,0 -1,0 0,0 -1,0 -1,0 -2,2 -4,5 -4,7l0 14 -13 7c-2,2 -4,5 -4,7 0,1 1,1 1,2 0,0 0,0 0,0 1,1 2,1 3,1l7 -4 8 -5 13 7c-2,3 -2,6 -3,9l-17 10 -11 -6 0 0c0,0 -1,0 -1,0 -1,0 -1,0 -2,0 -1,1 -2,2 -2,3 -2,3 -2,6 0,7l8 5 -9 15c-1,3 -1,6 0,6 1,1 2,1 3,0 0,0 0,0 0,0 1,0 2,-2 3,-3l5 -9 5 -9 15 -8 3 -2c1,2 1,4 3,6l-13 21 -14 8c-2,2 -4,5 -4,7 0,0 0,1 0,1 0,0 0,1 0,1 0,0 0,0 0,0 1,1 2,1 3,1 1,0 1,0 1,0l12 -7 0 14c0,1 0,1 0,2 0,0 0,0 0,0 1,1 2,1 4,0 2,-1 4,-4 4,-6 0,0 0,-1 0,-1l0 -6 0 -10 5 -10 7 -12c2,0 4,0 6,-1l1 20 -11 18c-1,3 -1,6 0,7 1,0 2,0 3,-1 1,0 2,-1 3,-3l8 -14 9 5c1,0 2,0 3,-1 1,0 2,-1 3,-3 1,-2 1,-5 0,-6l-10 -6 0 0 0 -12 0 -2 0 -6c2,-2 4,-4 6,-7l12 7 0 17c0,1 0,1 0,2 0,0 1,0 1,0 0,1 2,1 3,0 2,-1 4,-4 4,-7l0 -13 12 -8c3,-1 4,-4 4,-7 0,-1 0,-2 -1,-2 0,0 0,0 -1,0 0,0 0,0 0,0 0,0 -1,0 -2,0l-14 9 -13 -8c0,0 0,0 0,0 2,-2 2,-5 3,-8l6 -4 2 -1 9 -5 11 6c0,0 1,0 2,-1 2,0 3,-1 3,-3 2,-2 2,-5 0,-6l-8 -5 0 0 9 -15c1,-3 1,-6 -1,-7 0,0 -1,0 -2,1 -1,0 -2,1 -3,3l-10 17 -18 11c-1,-3 -2,-4 -3,-6l7 -12 6 -9 10 -6 4 -3c0,0 1,0 1,0 2,-2 3,-4 3,-7 0,-1 0,-2 -1,-2 0,0 -1,0 -1,0 0,0 0,0 0,0 -1,0 -1,0 -2,0l-12 7 0 -14 0 0c0,-1 0,-2 -1,-2 0,0 0,-1 0,-1 0,0 0,0 0,0l0 0c0,0 -1,0 -1,0z"/>
    <path class="fil16" d="M335 1257l-23 -13c-1,-1 -3,-1 -4,0l25 15c0,-1 1,-1 1,-1 0,0 0,0 0,0l0 0c1,0 1,0 1,0 0,0 0,0 0,0 1,0 1,0 1,0 0,0 0,0 0,0 1,0 1,0 1,0 0,0 0,0 0,0l-2 -1z"/>
    <path class="fil6" d="M304 1312c0,0 0,0 0,0 0,-1 0,-1 0,-1 0,0 0,0 0,0 -1,-1 -1,-1 -1,-1 0,0 0,-1 0,-1l-25 -15c0,2 1,4 2,4l25 15c0,0 0,-1 0,-1 -1,0 -1,0 -1,0z"/>
    <path class="fil6" d="M297 1251c-1,3 -2,6 -3,9l18 11 21 -12 -25 -15 -11 7z"/>
    <path class="fil6" d="M303 1285l-18 -11c-2,3 -4,6 -7,8l0 12 25 15 0 -24z"/>
    <polygon class="fil17" points="345,1228 336,1222 333,1221 333,1221 "/>
    <path class="fil6" d="M250 1345l-12 -7 0 9c0,0 0,0 0,1l12 7c-2,-2 -2,-6 0,-10z"/>
    <polygon class="fil16" points="265,1320 246,1309 238,1323 238,1338 250,1345 "/>
    <polygon class="fil16" points="311,1196 304,1209 323,1220 338,1194 326,1187 "/>
    <path class="fil6" d="M326 1187l12 7c1,-2 2,-3 4,-4 1,-1 2,-1 3,-1 0,0 1,0 1,0l-12 -7c-1,1 -1,1 -2,2l-6 3z"/>
    <path class="fil17" d="M293 1260l19 11 -18 -11c0,0 -1,0 -1,0z"/>
    <path class="fil6" d="M265 1291c-3,1 -6,1 -9,0l-10 18 19 11 0 -29z"/>
    <path class="fil15" d="M245 1283c0,-1 -1,-3 -1,-4l0 0c0,1 1,3 1,4z"/>
    <path class="fil6" d="M293 1227c2,2 3,4 4,8l26 -15 -19 -11 -11 18z"/>
    <path class="fil18" d="M203 1341c0,1 0,1 1,1 -1,0 -1,0 -1,-1z"/>
    <path class="fil18" d="M203 1341c0,0 0,-1 0,-1l0 0c0,0 0,1 0,1z"/>
    <path class="fil18" d="M204 1343c0,0 0,0 0,-1 0,1 0,1 0,1z"/>
    <path class="fil6" d="M227 1357c0,0 0,-1 0,-1 0,0 0,0 0,0 0,0 0,-1 0,-1 0,0 -1,0 -1,0 0,0 0,-1 0,-1l-18 -11c-1,1 -3,1 -4,0 0,0 1,0 1,0l-3 -1c0,0 1,1 1,1l25 14c0,0 0,0 0,0 0,0 -1,0 -1,0z"/>
    <path class="fil6" d="M315 1160l17 10c1,0 1,0 1,0 1,0 1,0 1,0 0,0 0,-1 0,-1 1,0 1,0 1,0 0,0 0,0 0,1 1,0 1,0 1,0 0,0 0,0 0,0l-22 -13c0,1 1,1 1,3l0 0z"/>
    <path class="fil18" d="M310 1156c0,0 0,0 0,0 0,0 0,0 0,0z"/>
    <path class="fil18" d="M311 1156c0,0 0,0 1,0 -1,0 -1,0 -1,0z"/>
    <path class="fil18" d="M336 1170l0 0 0 0c0,0 0,0 0,0z"/>
    <path class="fil15" d="M203 1340c0,0 0,0 0,0 0,0 0,0 0,0z"/>
    <path class="fil6" d="M226 1333l-17 10c0,0 0,0 -1,0l18 11 0 -21z"/>
    <path class="fil16" d="M255 1266c0,5 2,8 5,10 0,0 0,0 1,0 0,0 0,1 1,1 0,0 1,0 1,0 1,0 1,0 1,0 1,0 2,-1 2,-1 1,0 1,0 1,0 1,0 3,-1 4,-1l-16 -9c0,0 0,0 0,0z"/>
    <polygon class="fil18" points="260,1227 265,1229 265,1229 "/>
    <path class="fil6" d="M286 1248c0,-2 0,-3 0,-4 0,0 0,0 0,-1 -1,0 -1,-1 -1,-2 0,0 0,0 -1,-1 0,0 0,0 -1,-1 0,0 0,0 0,-1 -3,-2 -8,-2 -13,1 -8,5 -15,17 -15,27l16 9c8,-5 15,-17 15,-27z"/>
    <polygon class="fil6" points="315,1180 332,1170 315,1160 "/>
    <polygon class="fil16" points="248,1287 239,1282 218,1293 211,1306 230,1318 "/>
    <polygon class="fil6" points="276,1194 276,1217 285,1222 303,1191 284,1180 "/>
    <path class="fil6" d="M248 1287c-1,-1 -2,-3 -3,-4 0,-1 -1,-3 -1,-4l-5 3 9 5z"/>
    <path class="fil6" d="M276 1217l0 6c3,-1 6,-2 9,-1l-9 -5z"/>
    <path class="fil6" d="M209 1330l21 -12 -19 -12 -8 13c-1,2 -2,4 -4,4 0,1 0,1 0,1l10 6z"/>
    <path class="fil16" d="M292 1160c1,2 1,5 -1,8l-7 12 19 11 0 -25 -11 -6z"/>
    <path class="fil6" d="M204 1343c0,0 0,0 0,0 0,0 0,0 0,-1 0,0 0,0 0,0 -1,0 -1,0 -1,-1 0,0 0,0 0,0 0,0 0,-1 0,-1 0,0 0,0 0,0 0,-4 3,-8 6,-10l-10 -6c-2,0 -3,0 -4,0l-13 -8c-2,3 -4,6 -4,9 0,2 1,3 2,4l22 13 3 1c0,0 -1,0 -1,0z"/>
    <path class="fil6" d="M291 1159c1,0 1,0 1,1l11 6c0,-3 3,-8 6,-10 0,0 1,0 1,0 0,0 0,0 0,0 1,0 1,0 1,0 0,0 0,0 1,0 0,0 0,0 0,0 0,0 0,0 1,0 0,0 0,0 0,0l-25 -15c-1,0 -2,0 -4,1 -3,2 -5,6 -6,9l13 8z"/>
    <path class="fil18" d="M313 1156l0 0c0,0 0,0 0,0 0,0 0,0 0,0z"/>
    <path class="fil6" d="M244 1265c1,-4 2,-8 4,-12l-19 -10 -9 5c-1,1 -1,2 -1,3l25 14z"/>
    <path class="fil6" d="M256 1239c1,-2 3,-4 4,-5 1,-2 3,-3 5,-5l-5 -2 -20 -12c-1,1 -2,1 -2,2l0 11 18 11z"/>
    <polygon class="fil16" points="219,1280 244,1265 219,1251 194,1265 "/>
    <polygon class="fil16" points="265,1229 265,1200 250,1191 240,1186 240,1215 260,1227 "/>
    <path class="fil16" d="M195 1315l-25 -15c-2,4 -2,8 0,9l12 7 13 8c-2,-1 -2,-6 0,-9z"/>
    <polygon class="fil6" points="195,1315 208,1293 196,1286 183,1278 170,1300 "/>
    <polygon class="fil16" points="283,1163 258,1149 246,1170 271,1185 "/>
    <path class="fil6" d="M283 1163c1,-2 2,-3 4,-4 1,-1 2,-1 3,-1 0,0 1,0 1,1l-13 -8 -12 -7c-1,-1 -3,0 -4,1 -2,0 -3,2 -4,4l25 14z"/>
    <polygon class="fil17" points="238,1229 256,1239 238,1228 "/>
    <path class="fil6" d="M196 1276c1,-2 2,-3 4,-4 1,-1 3,-1 4,-1l-25 -14c-1,-1 -3,-1 -4,0 -2,1 -3,3 -4,5 -3,4 -3,8 0,9l12 7 13 8c-3,-2 -3,-6 0,-10z"/>
    <path class="fil6" d="M250 1182c1,-2 2,-3 4,-4 1,-1 3,-1 4,-1l-25 -14c-1,-1 -3,-1 -4,0 -2,1 -3,3 -4,5 -3,3 -3,8 0,9l15 9 10 5c-3,-1 -3,-5 0,-9z"/>
    <polygon class="fil6" points="226,1211 201,1197 201,1217 226,1231 "/>
    <polygon class="fil16" points="226,1231 201,1217 183,1227 208,1241 "/>
    <path class="fil16" d="M232 1201c0,0 1,0 1,0 0,0 0,0 0,-1 1,0 1,0 1,0 0,0 0,0 1,0 0,0 0,0 0,0 0,0 0,0 0,0 0,0 0,0 1,1 0,0 0,0 0,0l-25 -15c-1,0 -2,0 -4,1 -3,1 -6,6 -6,10l25 14c0,-4 3,-8 6,-10z"/>
    <path class="fil18" d="M236 1201l0 0c0,0 0,0 0,0 0,0 0,0 0,0z"/>
    <path class="fil6" d="M204 1255c-1,-1 -1,-1 -1,-1 0,0 0,0 0,0 0,0 0,-1 0,-1 0,0 0,0 0,0 0,-1 0,-1 0,-2 0,-3 2,-8 5,-10l-25 -14c-3,2 -5,6 -5,10 0,2 0,3 1,4l25 14c0,0 0,0 0,0 0,0 0,0 0,0z"/>
    <path class="fil5" d="M271 1275c-1,0 -3,1 -4,1 0,0 0,0 -1,0 0,0 -1,1 -2,1 0,0 0,0 -1,0 0,0 -1,0 -1,0 -1,0 -1,-1 -1,-1 -1,0 -1,0 -1,0 -3,-2 -5,-5 -5,-10 0,0 0,0 0,0 0,-10 7,-22 15,-27 5,-3 10,-3 13,-1 0,1 0,1 0,1 1,1 1,1 1,1 1,1 1,1 1,1 0,1 0,2 1,2 0,1 0,1 0,1 0,1 0,2 0,4 0,10 -7,22 -15,27zm66 -7c1,-2 2,-4 2,-6 0,-2 -1,-3 -2,-4 0,0 0,0 -1,0 0,0 0,0 0,0 0,0 0,0 -1,0 0,0 0,0 0,0 0,0 0,0 -1,0l0 0c0,0 0,0 0,0 0,0 -1,0 -1,1l-21 12 -19 -11c0,0 1,0 1,0 1,-3 2,-6 3,-9 0,-1 0,-2 0,-3l25 -15 9 5 6 4c1,1 3,0 4,-1 1,0 2,-1 3,-2 0,0 0,0 0,0 1,-1 1,-1 2,-2 1,-3 2,-6 1,-8 0,0 -1,-1 -2,-1l-12 -7 0 0 13 -22c2,-4 2,-8 0,-10l0 0c0,0 -1,0 -1,0 -1,0 -2,0 -3,1 -2,1 -3,2 -4,4l-15 26 -26 15c-1,-4 -2,-6 -4,-8l11 -18 7 -13 15 -9 6 -3c1,-1 1,-1 2,-2 2,-2 4,-5 4,-8 0,-2 -1,-4 -2,-4l0 0 0 0c0,0 0,0 0,0 0,0 0,0 -1,0 0,-1 0,-1 0,-1 0,0 0,0 -1,0 0,0 0,1 0,1 0,0 0,0 -1,0 0,0 0,0 -1,0l-17 10 0 -20 0 0c0,-2 -1,-2 -1,-3 0,-1 -1,-1 -1,-1 0,0 0,0 0,0l0 0c0,0 0,0 0,0 -1,0 -1,0 -1,0 0,0 0,0 0,0 -1,0 -1,0 -1,0 0,0 0,0 -1,0 0,0 0,0 0,0 0,0 -1,0 -1,0 -3,2 -6,7 -6,10l0 25 -18 31c-3,-1 -6,0 -9,1l0 -6 0 -23 8 -14 7 -12c2,-3 2,-6 1,-8 0,-1 0,-1 -1,-1l0 0c0,-1 -1,-1 -1,-1 -1,0 -2,0 -3,1 -2,1 -3,2 -4,4l-12 22 -13 -8c-1,0 -3,0 -4,1 -2,1 -3,2 -4,4 -3,4 -3,8 0,9l15 9 0 29 0 0c-2,2 -4,3 -5,5 -1,1 -3,3 -4,5l-18 -10 0 -1 0 -11 0 -13c0,-1 -1,-3 -2,-3 0,0 0,0 0,0 0,0 0,0 0,0 -1,-1 -1,-1 -1,-1 0,0 0,0 0,0 -1,0 -1,0 -1,0 0,0 0,0 -1,0 0,1 0,1 0,1 0,0 -1,0 -1,0 -3,2 -6,6 -6,10l0 20 -18 10c-3,2 -5,7 -5,10 0,1 0,1 0,2 0,0 0,0 0,0 0,0 0,1 0,1 0,0 0,0 0,0 0,0 0,0 1,1 0,0 0,0 0,0 1,1 3,1 4,0l12 -7 9 -5 19 10c-2,4 -3,8 -4,12l-25 15 -15 -9c-1,0 -3,0 -4,1 -2,1 -3,2 -4,4 -3,4 -3,8 0,10l12 7 -13 22c-2,3 -2,8 0,9 1,0 2,0 4,0 0,0 0,0 0,-1 2,0 3,-2 4,-4l8 -13 7 -13 21 -11 5 -3 0 0c0,1 1,3 1,4 1,1 2,3 3,4l-18 31 -21 12c-3,2 -6,6 -6,10 0,0 0,0 0,0 0,0 0,1 0,1 0,0 0,0 0,0 0,1 0,1 1,1 0,0 0,0 0,0 0,1 0,1 0,1 0,0 0,0 0,0 1,1 3,1 4,0 1,0 1,0 1,0l17 -10 0 21c0,0 0,1 0,1 0,0 1,0 1,0 0,0 0,1 0,1 0,0 0,0 0,0 0,0 0,1 0,1 0,0 1,0 1,0 1,1 2,1 4,0 3,-2 6,-6 6,-9 0,-1 0,-1 0,-1l0 -9 0 -15 8 -14 10 -18c3,1 6,1 9,0l0 29 -15 25c-2,4 -2,8 0,10 1,0 3,0 4,-1 2,-1 3,-2 4,-4l13 -21 12 7c1,1 3,0 4,0 2,-1 3,-3 4,-5 3,-4 3,-8 0,-9l-15 -9 0 0 0 -29c1,-1 2,-1 2,-2 3,-2 5,-5 7,-8l18 11 0 24c0,0 0,1 0,1 0,0 0,0 1,1 0,0 0,0 0,0 0,0 0,0 0,1 0,0 0,0 0,0 0,0 0,0 1,0 1,1 2,1 4,0 3,-2 6,-6 6,-10l0 -20 17 -10 1 0c1,-1 3,-2 4,-4z"/>
    <path class="fil6" d="M524 1060c0,0 0,0 0,0 0,0 1,0 1,0 0,0 0,0 0,0 0,0 1,0 1,0 0,0 0,0 0,0 0,0 0,0 1,0 0,0 0,0 0,0l-25 -15c-1,0 -3,0 -4,1l24 14c1,0 1,0 2,0z"/>
    <path class="fil6" d="M494 1114c0,0 0,0 0,-1 0,0 0,0 -1,0 0,0 0,0 0,-1 0,0 0,0 0,0 0,0 0,-1 0,-1l-25 -15c0,2 1,3 2,4l25 14c0,0 -1,0 -1,0 0,0 0,0 0,0z"/>
    <path class="fil16" d="M501 1073l21 -13 -24 -14 -12 6c0,4 -1,7 -3,10l18 11z"/>
    <path class="fil6" d="M493 1087l-18 -11c-2,3 -4,6 -7,8l0 12 25 15 0 -24z"/>
    <polygon class="fil17" points="535,1030 523,1022 523,1023 "/>
    <path class="fil6" d="M440 1147l-12 -7 0 9c0,0 0,0 0,0l12 8c-2,-2 -2,-6 0,-10z"/>
    <polygon class="fil16" points="455,1121 436,1110 428,1125 428,1140 440,1147 "/>
    <polygon class="fil16" points="501,998 493,1011 512,1022 527,996 516,989 "/>
    <path class="fil6" d="M516 989l11 7c1,-2 3,-3 4,-4 2,-1 3,-1 4,-1l-12 -7c0,1 -1,1 -1,1l-6 4z"/>
    <path class="fil17" d="M483 1062l18 11 -18 -11c0,0 0,0 0,0z"/>
    <path class="fil6" d="M455 1092c-4,1 -7,2 -9,1l-10 17 19 11 0 -29z"/>
    <path class="fil6" d="M483 1028c2,2 3,5 4,8l25 -14 -19 -11 -10 17z"/>
    <polygon class="fil14" points="467,1019 475,1024 475,1024 "/>
    <path class="fil18" d="M393 1143c0,0 0,-1 0,-1l0 0c0,0 0,1 0,1z"/>
    <path class="fil18" d="M393 1143c0,0 0,1 0,1 0,0 0,-1 0,-1z"/>
    <path class="fil18" d="M394 1145c0,0 0,-1 -1,-1 1,0 1,1 1,1z"/>
    <path class="fil6" d="M417 1159c0,0 0,0 0,0 0,-1 0,-1 0,-1 0,0 0,0 0,0 -1,0 -1,0 -1,-1 0,0 0,0 0,0 0,0 0,0 0,0 0,-1 0,-1 0,-2l-18 -10c-1,1 -3,1 -4,0 0,0 0,0 0,0l-2 -1c0,0 0,1 1,1l17 10 8 4c0,0 -1,0 -1,0z"/>
    <path class="fil6" d="M504 962l18 10c0,0 1,0 1,0 0,0 0,0 0,-1 1,0 1,0 1,0 0,0 0,0 1,0 0,0 0,0 0,0 0,0 0,0 1,1 0,0 0,0 0,0 0,0 0,0 0,0l-22 -13c0,0 0,1 0,2l0 1z"/>
    <path class="fil18" d="M501 957c0,0 0,0 0,0 0,0 0,0 0,0z"/>
    <path class="fil18" d="M500 958c0,0 0,0 0,0 0,0 0,0 0,0z"/>
    <path class="fil15" d="M393 1142c0,0 0,0 0,0 0,0 0,0 0,0z"/>
    <path class="fil16" d="M416 1135l-17 10c-1,0 -1,0 -1,0l18 10 0 -20z"/>
    <path class="fil6" d="M476 1049c0,-1 0,-2 0,-3 0,0 -1,-1 -1,-1 0,-1 0,-1 0,-2 -1,0 -1,0 -1,-1 0,0 0,-1 -1,-1 0,0 0,0 -1,-1 -2,-2 -7,-2 -12,1 -8,4 -15,16 -15,26l15 9c9,-5 16,-17 16,-27z"/>
    <polygon class="fil18" points="450,1029 454,1031 454,1031 "/>
    <path class="fil16" d="M445 1068c0,4 1,8 4,10 1,0 1,0 2,0 0,0 0,0 1,0 0,1 1,0 1,1 1,0 1,0 1,0 1,-1 2,-1 2,-1 1,0 1,0 1,0 1,0 2,-1 3,-2l-15 -9c0,0 0,0 0,1z"/>
    <polygon class="fil16" points="505,982 522,972 504,962 "/>
    <polygon class="fil16" points="437,1089 429,1083 408,1095 401,1108 420,1119 "/>
    <polygon class="fil6" points="466,996 466,1018 467,1019 475,1024 493,992 474,981 "/>
    <path class="fil6" d="M437 1089c-1,-3 -3,-5 -3,-9l-5 3 8 6z"/>
    <path class="fil6" d="M466 1018l0 7c2,-1 3,-1 5,-1 1,-1 3,-1 4,0l-8 -5 -1 -1z"/>
    <path class="fil6" d="M399 1132l21 -13 -19 -11 -8 13c-1,2 -2,3 -4,4 0,0 0,1 -1,1l11 6z"/>
    <path class="fil16" d="M482 962c1,2 0,5 -1,8l-7 11 19 11 0 -24 -11 -6z"/>
    <path class="fil6" d="M394 1145c0,0 0,0 0,0 0,0 0,-1 -1,-1 0,0 0,0 0,0 0,0 0,-1 0,-1 0,0 0,0 0,0 0,0 0,-1 0,-1 0,0 0,0 0,0 0,-4 2,-9 6,-10l-11 -6c-1,0 -2,0 -3,0l-13 -8c-2,2 -4,6 -4,9 0,1 0,3 1,3 0,0 0,1 1,1l22 13 2 1c0,0 0,0 0,0z"/>
    <path class="fil6" d="M482 962l11 6c0,-3 2,-8 6,-10 0,0 0,0 1,0 0,0 0,0 0,0 0,0 1,-1 1,-1 0,0 0,0 0,0 1,0 1,0 1,0 0,0 0,1 0,1 0,0 1,0 1,0l-25 -15c-1,0 -3,0 -4,1 -3,1 -6,6 -6,9l13 7c0,1 1,1 1,2z"/>
    <path class="fil18" d="M503 958l0 0c0,0 0,0 0,0 0,0 0,0 0,0z"/>
    <path class="fil16" d="M434 1067c0,-2 0,-4 1,-6 1,-2 1,-4 2,-6l0 0 -18 -11 -10 6c0,1 0,2 0,3l25 14z"/>
    <path class="fil6" d="M445 1041c2,-2 3,-4 5,-5 1,-2 3,-3 4,-5l-4 -2 -21 -12c0,0 -1,1 -1,2l0 11 17 11z"/>
    <polygon class="fil6" points="408,1082 434,1067 409,1053 384,1067 "/>
    <polygon class="fil16" points="454,1031 454,1002 439,993 429,988 429,1017 450,1029 "/>
    <path class="fil16" d="M385 1116l-25 -14c-2,3 -2,7 -1,9 1,0 1,0 1,0l12 7 13 8c-2,-2 -2,-6 0,-10z"/>
    <polygon class="fil6" points="385,1116 398,1094 385,1087 373,1080 360,1102 "/>
    <polygon class="fil16" points="473,965 448,951 435,972 460,986 "/>
    <path class="fil6" d="M473 965c1,-2 2,-3 4,-4 1,-1 3,-1 4,-1l-13 -7 -12 -7c-1,-1 -3,0 -4,0 -2,1 -3,3 -4,5l25 14z"/>
    <polygon class="fil17" points="428,1030 445,1041 428,1030 "/>
    <polygon class="fil17" points="460,986 435,972 423,965 448,979 "/>
    <path class="fil16" d="M385 1078c1,-2 3,-3 4,-4 2,-1 3,-1 4,-1l-24 -14c-2,-1 -3,-1 -5,0 -1,1 -2,3 -4,4 0,2 -1,3 -1,5 0,0 0,1 0,1 0,2 0,3 1,4l13 7 12 7c-2,-1 -2,-5 0,-9z"/>
    <path class="fil6" d="M439 984c1,-2 3,-4 4,-4 2,-1 3,-1 5,-1l-25 -14c-2,-1 -3,-1 -4,0 -2,1 -3,2 -5,4 -2,4 -2,9 0,10l15 9 10 5c-2,-1 -2,-5 0,-9z"/>
    <polygon class="fil16" points="416,1013 391,998 391,1018 416,1033 "/>
    <polygon class="fil6" points="416,1033 391,1018 373,1029 398,1043 "/>
    <path class="fil6" d="M422 1003c0,0 1,0 1,-1 0,0 0,0 0,0 0,0 1,0 1,0 0,0 0,0 0,0 0,0 0,0 0,0 1,0 1,0 1,0 0,0 0,0 0,0 1,0 1,0 1,1 0,0 0,0 0,0l-25 -15c-1,-1 -3,0 -4,0 -3,2 -6,7 -6,10l25 15c0,-4 3,-8 6,-10z"/>
    <path class="fil16" d="M393 1056c0,0 0,0 0,0 0,0 0,0 0,0 0,-1 0,-1 -1,-1 0,0 0,0 0,0 0,-1 0,-1 0,-2 0,-3 3,-8 6,-10l-25 -14c-3,2 -6,6 -6,10 0,1 1,2 1,3 1,0 1,0 1,1l25 14c0,0 0,0 0,0 -1,0 -1,0 -1,-1z"/>
    <path class="fil5" d="M460 1076c-1,1 -2,2 -3,2 0,0 0,0 -1,0 0,0 -1,0 -2,1 0,0 0,0 -1,0 0,-1 -1,0 -1,-1 -1,0 -1,0 -1,0 -1,0 -1,0 -2,0 -3,-2 -4,-6 -4,-10 0,-1 0,-1 0,-1 0,-10 7,-22 15,-26 5,-3 10,-3 12,-1 1,1 1,1 1,1 1,0 1,1 1,1 0,1 0,1 1,1 0,1 0,1 0,2 0,0 1,1 1,1 0,1 0,2 0,3 0,10 -7,22 -16,27zm75 -46l-12 -7 0 -1 13 -21c2,-4 2,-8 -1,-10 -1,0 -2,0 -4,1 -1,1 -3,2 -4,4l-15 26 -25 14c-1,-3 -2,-6 -4,-8l10 -17 8 -13 15 -9 6 -4c0,0 1,0 1,-1 3,-2 5,-6 5,-9 0,-1 -1,-3 -2,-3 0,0 0,0 0,-1 -1,0 -1,0 -1,0 0,0 0,0 0,0 -1,0 -1,0 -1,0 0,0 0,0 -1,0 0,1 0,1 0,1 0,0 -1,0 -1,0l-17 10 -1 -20 0 -1c0,-1 0,-2 0,-2 -1,-1 -1,-1 -1,-1 0,0 0,0 0,0l0 0c0,0 -1,0 -1,0 0,0 0,-1 0,-1 0,0 0,0 -1,0 0,0 0,0 0,0 0,0 -1,1 -1,1 0,0 0,0 0,0 -1,0 -1,0 -1,0 -4,2 -6,7 -6,10l0 24 -18 32 0 0c-1,-1 -3,-1 -4,0 -2,0 -3,0 -5,1l0 -7 0 0 0 -22 8 -15 7 -11c1,-3 2,-6 1,-8 0,-1 -1,-1 -1,-2 -1,0 -3,0 -4,1 -2,1 -3,2 -4,4l-13 21 -12 -7c-2,0 -3,0 -5,1 -1,0 -3,2 -4,4 -2,4 -2,8 0,9l15 9 0 29 0 0c-1,2 -3,3 -4,5 -2,1 -3,3 -5,5l-17 -11 0 0 0 -11 0 -13c0,-2 -1,-3 -2,-3 0,-1 0,-1 -1,-1 0,0 0,0 0,0 0,0 0,0 -1,0 0,0 0,0 0,0 0,0 -1,0 -1,0 0,0 0,0 0,0 0,1 -1,1 -1,1 -3,2 -6,6 -6,10l0 20 -18 10c-3,2 -6,7 -6,10 0,1 0,1 0,2 0,0 0,0 0,0 1,0 1,0 1,1 0,0 0,0 0,0 0,0 0,0 0,0 0,1 0,1 1,1 1,1 2,1 4,0l11 -7 10 -6 18 11 0 0 0 0c-1,2 -1,4 -2,6 -1,2 -1,4 -1,6l-26 15 -15 -9c-1,0 -2,0 -4,1 -1,1 -3,2 -4,4 -2,4 -2,8 0,9l13 7 -13 22c-2,4 -2,8 0,10 1,0 2,0 3,0 1,0 1,-1 1,-1 2,-1 3,-2 4,-4l8 -13 7 -13 21 -12 5 -3c0,4 2,6 3,9l-17 30 -21 13c-4,1 -6,6 -6,10 0,0 0,0 0,0 0,0 0,1 0,1 0,0 0,0 0,0 0,0 0,1 0,1 0,0 0,0 0,0 1,0 1,1 1,1 0,0 0,0 0,0 1,1 3,1 4,0 0,0 0,0 1,0l17 -10 0 20c0,1 0,1 0,2 0,0 0,0 0,0 0,0 0,0 0,0 0,1 0,1 1,1 0,0 0,0 0,0 0,0 0,0 0,1 0,0 0,0 0,0 1,0 2,1 3,0 1,0 1,0 2,0 3,-2 5,-6 6,-10 0,0 0,0 0,0l0 -9 0 -15 8 -15 10 -17c2,1 5,0 9,-1l0 29 -15 26c-2,4 -2,8 0,10 1,0 2,0 4,-1 1,-1 3,-2 4,-4l12 -21 13 7c1,0 3,0 4,-1 2,0 3,-2 4,-4 2,-4 2,-8 0,-9l-15 -9 0 0 0 -29c1,-1 1,-2 2,-2 3,-2 5,-5 7,-8l18 11 0 24c0,0 0,1 0,1 0,0 0,0 0,0 0,1 0,1 0,1 1,0 1,0 1,0 0,1 0,1 0,1 0,0 0,0 0,0 1,1 3,1 5,0 3,-2 6,-6 6,-10l0 -20 17 -10c4,-2 6,-7 6,-10 0,-2 0,-3 -1,-4 -1,0 -1,0 -1,0 0,0 0,0 0,0 0,0 -1,0 -1,0 0,0 0,0 0,0 0,0 -1,0 -1,0 0,0 0,0 0,0 -1,0 -1,0 -2,0l-21 13 -18 -11c0,0 0,0 0,0 2,-3 3,-6 3,-10 0,0 1,-1 1,-2l25 -15 15 9c1,0 3,0 4,-1 2,-1 3,-2 4,-4 3,-4 2,-8 0,-9z"/>
   </g>
   <g>
    <path class="fil20" d="M1229 1119c-1,0 -1,0 -1,-1 -1,-1 -2,-1 -3,-2 -2,-1 -4,-2 -7,-2 -1,0 -2,0 -3,1l16 9c-1,-2 -1,-3 -2,-5z"/>
    <path class="fil20" d="M1162 1161c0,0 1,0 1,0 0,0 -1,0 -1,0z"/>
    <path class="fil20" d="M1170 1160c0,-1 1,-1 2,-1 -1,0 -2,0 -2,1z"/>
    <path class="fil20" d="M1166 1161c0,0 1,0 1,-1 0,1 -1,1 -1,1z"/>
    <path class="fil20" d="M1120 1201c0,0 -1,-1 -2,-1 1,0 2,1 2,1z"/>
    <path class="fil20" d="M1175 1158c0,0 0,-1 1,-1 -1,0 -1,1 -1,1z"/>
    <path class="fil4" d="M1204 1121c-1,0 -2,1 -3,2l15 9c-1,-1 -1,-1 -1,-1 2,1 3,2 3,4l4 14c1,4 -1,11 -5,16 -10,10 -24,22 -40,31 -22,13 -41,15 -54,7 0,0 0,0 0,0l-16 -9c-4,1 -8,2 -12,2 5,12 12,20 22,24 1,1 2,1 3,2 1,0 2,0 3,1 1,0 2,0 4,1 1,0 2,0 3,0 2,0 3,0 4,0 1,0 3,0 4,0 1,0 2,0 4,0 1,0 3,-1 4,-1 1,0 3,0 4,-1 2,0 3,-1 5,-1 1,-1 2,-1 4,-1 2,-1 4,-2 6,-3 1,0 2,-1 3,-1 3,-2 6,-3 9,-5 18,-10 34,-24 46,-36 7,-9 11,-19 12,-29l2 2 11 -31 -27 -15c-2,1 -12,-2 -14,-1 -2,1 -10,12 -11,13l8 7z"/>
    <path class="fil20" d="M1112 1192c0,0 0,0 0,0 0,0 0,0 0,0z"/>
    <path class="fil20" d="M1116 1197c-1,0 -2,-1 -2,-2 0,1 1,2 2,2z"/>
    <path class="fil21" d="M1153 1129c0,1 0,1 0,2 0,-1 0,-1 0,-2z"/>
    <path class="fil21" d="M1154 1135c1,1 1,2 1,2 0,0 0,-1 -1,-2z"/>
    <path class="fil10" d="M1140 1131c0,16 4,25 12,29 0,0 1,0 1,1 1,0 1,0 2,0 0,0 1,0 1,0 1,0 2,0 2,1 1,0 1,0 2,0 0,0 1,0 2,-1 0,0 1,0 1,0 1,0 2,0 3,0 0,0 1,0 1,-1 1,0 2,0 3,0 0,-1 1,-1 2,-1 0,0 2,-1 3,-1 0,0 0,-1 1,-1 1,-1 3,-1 5,-2 8,-5 18,-13 23,-19 2,-2 3,-3 5,-4 1,-1 2,-1 4,-1 1,0 1,0 2,0 0,0 0,0 1,1l-15 -9c-1,1 -2,2 -3,3 -3,3 -10,9 -17,14 -10,5 -16,6 -21,3 0,0 0,0 0,0l-20 -12z"/>
    <path class="fil21" d="M1158 1141c0,0 -1,0 -1,-1 0,1 1,1 1,1z"/>
    <g>
     <path class="fil4" d="M1217 1030c0,4 -2,8 -5,10 -1,2 -3,3 -4,4 -2,1 -3,1 -4,1 -4,0 -11,1 -23,8 -26,15 -42,43 -42,75 0,1 1,2 1,3l20 12c0,0 0,0 0,0 -1,0 -1,-1 -2,-1 0,-1 -1,-1 -1,-2 -1,-1 -1,-2 -2,-3 0,0 0,-1 -1,-2 0,-1 0,-2 -1,-4 0,-1 0,-1 0,-2 0,-2 0,-5 0,-8 0,-25 9,-42 28,-53 9,-5 15,-6 17,-6 3,0 7,-1 10,-3 3,-2 6,-5 9,-8 6,-7 11,-15 13,-24l0 0 4 -18 0 0c0,-2 1,-3 1,-5 0,0 0,-1 0,-1 0,-1 0,-2 0,-3 0,-1 0,-1 0,-1 0,-1 0,-2 -1,-3 0,-1 0,-1 0,-1 0,-1 0,-2 -1,-3 0,-1 0,-1 0,-1 -1,-1 -1,-1 -2,-2 0,0 0,-1 0,-1 -1,0 -1,-1 -2,-1 0,0 0,-1 0,-1 -2,-1 -4,-1 -6,-2 -4,0 -12,1 -23,5l0 0c0,1 -1,1 -2,1l21 12c-1,0 -2,-1 -3,-1 5,0 7,5 5,11l-2 9 0 0 -2 9zm13 -3l-11 -6 0 0 11 6z"/>
    </g>
    <path class="fil21" d="M1064 1126c0,0 -1,0 -2,0 1,0 2,0 2,0z"/>
    <path class="fil21" d="M1132 1030c1,3 2,6 2,9 0,-3 -1,-6 -2,-9z"/>
    <path class="fil21" d="M1094 1027c1,0 2,0 2,-1 0,1 -1,1 -2,1z"/>
    <path class="fil21" d="M1130 1022c1,3 2,5 2,8 0,-3 -1,-5 -2,-8z"/>
    <path class="fil21" d="M1121 1012c1,1 3,2 4,4 -1,-2 -3,-3 -4,-4z"/>
    <path class="fil21" d="M1126 1016c1,2 3,4 4,6 -1,-2 -3,-4 -4,-6z"/>
    <path class="fil21" d="M1057 1124c0,0 -1,0 -2,-1 1,1 2,1 2,1z"/>
    <path class="fil21" d="M1100 1025c1,0 2,1 3,1 -1,0 -2,-1 -3,-1z"/>
    <path class="fil21" d="M1085 1084c-1,0 -2,0 -2,0 0,0 1,0 2,0z"/>
    <path class="fil21" d="M1099 1054c1,0 1,0 1,1 0,-1 0,-1 -1,-1z"/>
    <path class="fil21" d="M1100 1056c0,1 1,1 1,1 0,0 -1,0 -1,-1z"/>
    <path class="fil21" d="M1098 1052c0,1 0,1 1,1 -1,0 -1,0 -1,-1z"/>
    <path class="fil21" d="M1061 1126c-1,-1 -2,-1 -2,-1 0,0 1,0 2,1z"/>
    <path class="fil21" d="M1088 1083c-1,0 -2,1 -3,1 1,0 2,-1 3,-1z"/>
    <path class="fil21" d="M1080 1084c-1,0 -1,0 -1,0 0,0 0,0 1,0z"/>
    <path class="fil21" d="M1082 1084c-1,0 -1,0 -1,0 0,0 0,0 1,0z"/>
    <path class="fil21" d="M1108 1027c-1,-1 -1,-1 -2,-1 0,0 0,0 0,0 1,0 1,0 2,1z"/>
    <path class="fil21" d="M1077 1125c-1,0 -2,1 -3,1 1,0 2,-1 3,-1z"/>
    <path class="fil21" d="M1073 1126c-1,0 -2,0 -3,0 1,0 2,0 3,0z"/>
    <path class="fil21" d="M1088 1120c-2,1 -3,2 -5,3 2,-1 3,-2 5,-3z"/>
    <path class="fil21" d="M1082 1123c-1,1 -2,1 -3,2 1,-1 2,-1 3,-2z"/>
    <path class="fil21" d="M1068 1126c0,0 -1,1 -2,0 1,1 2,0 2,0z"/>
    <g>
     <path class="fil10" d="M1123 1203c0,0 0,0 0,0 -1,-1 -2,-1 -3,-2 0,0 -1,-1 -2,-1 -1,-1 -1,-2 -2,-3 -1,0 -2,-1 -2,-2 -1,-1 -1,-2 -2,-3 0,0 0,0 0,0 -1,-1 -1,-1 -2,-2 0,-1 -1,-2 -1,-3 -1,-1 -1,-2 -2,-3 0,-1 -1,-3 -1,-4 0,-1 -1,-2 -1,-3 -1,-2 -1,-3 -1,-5 0,-1 -1,-2 -1,-3 0,-2 0,-4 -1,-6 0,-1 0,-2 0,-3 0,-3 0,-6 0,-9 0,-54 32,-110 78,-137l0 0c21,-12 32,-13 36,-13 1,0 2,1 3,1l-21 -12c-5,2 -11,5 -18,9 -4,2 -8,5 -12,8l0 0 0 0c-12,9 -24,20 -34,32l-38 -21c0,0 0,0 -1,1l16 9c0,0 0,0 0,0 6,3 10,10 10,21 0,20 -15,46 -33,56 -3,2 -5,3 -7,3l13 8c-3,14 -5,28 -5,42 0,10 1,19 3,27l15 9 16 9zm45 -196l0 0 0 0z"/>
    </g>
    <path class="fil22" d="M1209 1132c-2,1 -3,2 -5,4 -5,6 -15,14 -23,19 -2,1 -4,1 -5,2 -1,0 -1,1 -1,1 -1,0 -3,1 -3,1 -1,0 -2,0 -2,1 -1,0 -2,0 -3,0 0,1 -1,1 -1,1 -1,0 -2,0 -3,0 0,0 -1,0 -1,0 -1,1 -2,1 -2,1 -1,0 -1,0 -2,0 0,-1 -1,-1 -2,-1 0,0 -1,0 -1,0 -1,0 -1,0 -2,0 0,-1 -1,-1 -1,-1 -8,-4 -12,-13 -12,-29 0,-1 -1,-2 -1,-3 0,-32 16,-60 42,-75 12,-7 19,-8 23,-8 1,0 2,0 4,-1 1,-1 3,-2 4,-4 3,-2 5,-6 5,-10l2 -9 2 -9c2,-6 0,-11 -5,-11 -4,0 -15,1 -36,13 -46,27 -78,83 -78,137 0,3 0,6 0,9 0,1 0,2 0,3 1,2 1,4 1,6 0,1 1,2 1,3 0,2 0,3 1,5 0,1 1,2 1,3 0,1 1,3 1,4 1,1 1,2 2,3 0,1 1,2 1,3 1,1 1,1 2,2 0,0 0,0 0,0 1,1 1,2 2,3 0,1 1,2 2,2 1,1 1,2 2,3 1,0 2,1 2,1 1,1 2,1 3,2 13,8 32,6 54,-7 16,-9 30,-21 40,-31 4,-5 6,-12 5,-16l-4 -14c0,-2 -1,-3 -3,-4 -1,0 -1,0 -2,0 -2,0 -3,0 -4,1z"/>
    <path class="fil20" d="M1056 1096c1,1 1,2 2,4 -1,-2 -1,-3 -2,-4z"/>
    <path class="fil20" d="M1061 1104c-1,-1 -2,-2 -2,-3 0,1 1,2 2,3z"/>
    <path class="fil10" d="M1062 1106c1,0 2,1 3,1l-23 -13c0,15 5,25 13,29 1,1 2,1 2,1 1,1 1,1 2,1 0,0 1,0 2,1 0,0 1,0 1,0 1,0 2,0 2,0 1,0 1,0 2,0 1,1 2,0 2,0 1,0 1,0 2,0 1,0 2,0 3,0 0,0 1,0 1,0 1,0 2,-1 3,-1 1,0 1,0 2,0 1,-1 2,-1 3,-2 0,0 1,0 1,0 2,-1 3,-2 5,-3 2,-1 4,-2 6,-4l-13 -8c-8,3 -14,2 -19,-2z"/>
    <path class="fil10" d="M1100 1056c0,0 0,-1 0,-1 0,-1 0,-1 -1,-1 0,0 0,-1 0,-1 -1,0 -1,0 -1,-1 -2,-2 -6,-2 -10,1 -7,4 -13,14 -13,22l13 8c7,-5 13,-15 13,-23 0,-1 0,-2 0,-3 0,0 -1,0 -1,-1z"/>
    <path class="fil10" d="M1075 1075c0,4 1,7 4,9 0,0 0,0 1,0 0,0 0,0 1,0 0,0 0,0 1,0 0,0 0,0 1,0 0,0 1,0 2,0 0,0 0,0 0,0 1,0 2,-1 3,-1l-13 -8c0,0 0,0 0,0z"/>
    <path class="fil4" d="M1134 1039c0,-3 -1,-6 -2,-9 0,0 0,0 0,0 0,-3 -1,-5 -2,-8 0,0 0,0 0,0 -1,-2 -3,-4 -4,-6 0,0 0,0 -1,0 -1,-2 -3,-3 -4,-4 -8,-5 -19,-5 -31,2l6 4 38 21z"/>
    <g>
     <path class="fil10" d="M1065 1107c-1,0 -2,-1 -3,-1 0,-1 -1,-1 -1,-2 -1,-1 -2,-2 -2,-3 -1,0 -1,-1 -1,-1 -1,-2 -1,-3 -2,-4 0,-1 0,-2 0,-2 -1,-3 -1,-5 -1,-8 0,-20 15,-46 33,-56l0 0c2,-1 4,-2 6,-3 5,-2 12,-2 17,1 0,0 0,0 0,0l-16 -9 -7 -5c0,1 0,1 0,1 -4,2 -8,5 -12,8l0 0 0 0c-20,17 -34,47 -34,71 0,0 0,0 0,0l23 13zm11 -84l0 0 0 0z"/>
    </g>
    <path class="fil22" d="M1088 1083c-1,0 -2,1 -3,1 0,0 0,0 0,0 -1,0 -2,0 -2,0 -1,0 -1,0 -1,0 -1,0 -1,0 -1,0 -1,0 -1,0 -1,0 -1,0 -1,0 -1,0 -3,-2 -4,-5 -4,-9 0,0 0,0 0,0 0,-8 6,-18 13,-22 4,-3 8,-3 10,-1 0,1 0,1 1,1 0,0 0,1 0,1 1,0 1,0 1,1 0,0 0,1 0,1 0,1 1,1 1,1 0,1 0,2 0,3 0,8 -6,18 -13,23zm6 -56c-2,1 -4,2 -6,3 -18,10 -33,36 -33,56 0,3 0,5 1,8 0,0 0,1 0,2 1,1 1,2 2,4 0,0 0,1 1,1 0,1 1,2 2,3 0,1 1,1 1,2 5,4 11,5 19,2 2,0 4,-1 7,-3 18,-10 33,-36 33,-56 0,-11 -4,-18 -10,-21 -5,-3 -12,-3 -17,-1z"/>
    <path class="fil23" d="M1029 1293c-3,-3 -6,-6 -9,-9 0,0 0,0 -1,0 -2,-4 -5,-7 -8,-11 0,0 0,0 0,0 -2,-4 -5,-8 -7,-13 0,0 0,0 0,0 -2,-5 -4,-9 -5,-14 -1,-1 -1,-1 -1,-1 -1,-5 -3,-10 -4,-16 0,0 0,0 0,0 -1,-5 -2,-11 -2,-17 0,0 0,0 0,-1 -1,-6 -1,-12 -1,-19 0,-107 75,-238 168,-292l0 0c3,-2 6,-3 9,-5 1,0 2,-1 3,-1 2,-1 4,-2 6,-3 1,0 2,-1 3,-1 2,-1 4,-2 5,-3 2,0 3,0 4,-1 1,0 3,-1 5,-2 1,0 2,0 3,-1 2,0 3,-1 5,-1 1,0 2,-1 3,-1 2,0 4,-1 5,-1 1,0 2,-1 4,-1 1,0 2,0 4,-1 1,0 2,0 3,0 2,0 3,0 5,-1 1,0 2,0 3,0 1,0 3,0 4,0 1,0 2,0 4,0 1,0 2,0 3,0 2,0 3,0 4,0 1,0 2,1 4,1 1,0 2,0 3,0 1,0 2,1 3,1 2,0 3,0 4,1 1,0 2,0 3,0 1,1 2,1 3,1 1,1 2,1 4,2 1,0 2,0 3,1 1,0 2,1 3,1 1,1 2,1 3,2 1,0 2,1 3,1 0,0 0,0 0,0l-47 -27c-31,-18 -74,-15 -121,12l0 0c-93,54 -169,185 -168,292 0,53 19,91 49,109l47 27c0,0 0,0 0,0 -4,-2 -7,-5 -10,-8 -1,0 -1,0 -1,0z"/>
    <path class="fil9" d="M1223 1175c-12,12 -28,26 -46,36 -3,2 -6,3 -9,5 -1,0 -2,1 -3,1 -2,1 -4,2 -6,3 -2,0 -3,0 -4,1 -2,0 -3,1 -5,1 -1,1 -3,1 -4,1 -1,0 -3,1 -4,1 -2,0 -3,0 -4,0 -1,0 -3,0 -4,0 -1,0 -2,0 -4,0 -1,0 -2,0 -3,0 -2,-1 -3,-1 -4,-1 -1,-1 -2,-1 -3,-1 -1,-1 -2,-1 -3,-2 -10,-4 -17,-12 -22,-24 -1,-3 -2,-7 -3,-11 -2,-8 -3,-17 -3,-27 0,-14 2,-28 5,-42 -2,2 -4,3 -6,4 -2,1 -3,2 -5,3 0,0 -1,0 -1,0 -1,1 -2,1 -3,2 -1,0 -1,0 -2,0 -1,0 -2,1 -3,1 0,0 -1,0 -1,0 -1,0 -2,0 -3,0 -1,0 -1,0 -2,0 0,0 -1,1 -2,0 -1,0 -1,0 -2,0 0,0 -1,0 -2,0 0,0 -1,0 -1,0 -1,-1 -2,-1 -2,-1 -1,0 -1,0 -2,-1 0,0 -1,0 -2,-1 -8,-4 -13,-14 -13,-29 0,0 0,0 0,0 0,-24 14,-54 34,-71 4,-3 8,-6 12,-8 0,0 0,0 0,-1 1,0 1,0 2,0 12,-7 23,-7 31,-2 1,1 3,2 4,4 1,0 1,0 1,0 1,2 3,4 4,6 0,0 0,0 0,0 1,3 2,5 2,8 0,0 0,0 0,0 1,3 2,6 2,9 10,-12 22,-23 34,-32 4,-3 8,-6 12,-8 7,-4 13,-7 18,-9 1,0 2,-1 2,-1 11,-4 19,-5 23,-5 2,1 4,1 6,2 0,0 0,1 0,1 1,0 1,1 2,1 0,0 0,1 0,1 1,1 1,1 2,2 0,0 0,0 0,1 1,1 1,2 1,3 0,0 0,0 0,1 1,1 1,2 1,3 0,0 0,0 0,1 0,1 0,2 0,3 0,0 0,1 0,1 0,2 -1,3 -1,5l-4 18c-2,9 -7,17 -13,24 -3,3 -6,6 -9,8 -3,2 -7,3 -10,3 -2,0 -8,1 -17,6 -19,11 -29,28 -28,53 0,3 0,6 0,8 0,1 0,1 0,2 1,2 1,3 1,4 1,1 1,2 1,2 1,1 1,2 2,3 0,1 1,1 1,2 1,0 1,1 2,1 5,3 11,2 21,-3 7,-5 14,-11 17,-14 1,-1 2,-2 3,-3 1,-1 2,-2 3,-3 2,-1 3,-2 5,-3 2,-1 4,-2 6,-2 1,-1 2,-1 3,-1 3,0 5,1 7,2 1,1 2,1 3,2 0,1 0,1 1,1 1,2 1,3 2,5l3 14c3,10 -2,26 -11,37zm57 -287c-1,0 -2,-1 -3,-1 -1,-1 -2,-1 -3,-2 -1,0 -2,-1 -3,-1 -1,-1 -2,-1 -3,-1 -2,-1 -3,-1 -4,-2 -1,0 -2,0 -3,-1 -1,0 -2,0 -3,0 -1,-1 -2,-1 -4,-1 -1,0 -2,-1 -3,-1 -1,0 -2,0 -3,0 -2,0 -3,-1 -4,-1 -1,0 -2,0 -4,0 -1,0 -2,0 -3,0 -2,0 -3,0 -4,0 -1,0 -3,0 -4,0 -1,0 -2,0 -3,0 -2,1 -3,1 -5,1 -1,0 -2,0 -3,0 -2,1 -3,1 -4,1 -2,0 -3,1 -4,1 -1,0 -3,1 -5,1 -1,0 -2,1 -3,1 -2,0 -3,1 -5,1 -1,1 -2,1 -3,1 -2,1 -4,2 -5,2 -1,1 -2,1 -4,1 -1,1 -3,2 -5,3 -1,0 -2,1 -3,1 -2,1 -4,2 -6,3 -1,0 -2,1 -3,1 -3,2 -6,3 -9,5 -93,54 -168,185 -168,292 0,7 0,13 1,19 0,1 0,1 0,1 0,6 1,12 2,17 0,0 0,0 0,0 1,6 3,11 4,16 0,0 0,0 1,1 1,5 3,9 5,14 0,0 0,0 0,0 2,5 5,9 7,13 0,0 0,0 0,0 3,4 6,7 8,11 1,0 1,0 1,0 3,3 6,6 9,9 0,0 0,0 1,0 3,3 6,5 10,8 31,18 73,15 121,-12 93,-54 169,-185 168,-292 0,-54 -19,-91 -49,-109z"/>
   </g>
   <g>
    <path class="fil24" d="M1559 1211c0,0 0,0 0,0 0,0 0,0 0,0z"/>
    <path class="fil25" d="M1641 1065c0,0 0,0 -1,0 1,0 1,0 1,0z"/>
    <path class="fil25" d="M1638 1065c-1,0 -1,0 -1,1 0,-1 0,-1 1,-1z"/>
    <path class="fil25" d="M1639 1065c0,0 0,0 0,0 0,0 0,0 0,0z"/>
    <path class="fil4" d="M1595 1129l0 42 0 15c0,6 -4,14 -10,17l-13 8 0 0 -4 2c-3,2 -5,2 -7,1 0,0 0,0 0,0l-16 -10 0 11 0 0c0,7 3,12 7,15 0,0 1,0 2,0 0,1 1,1 1,1 1,0 2,0 3,0 0,0 1,0 1,0 1,0 2,0 3,0 0,-1 1,-1 1,-1 2,0 3,-1 5,-2l-23 -13 23 13 17 -10c13,-7 23,-25 23,-39l0 0 0 -43 -13 -8 0 1z"/>
    <g>
     <path class="fil4" d="M1595 1128l13 8 27 -16 0 0c13,-7 23,-25 23,-39l0 0 0 -16c0,-2 0,-4 -1,-5 0,0 0,-1 0,-1 0,-1 0,-2 -1,-3 0,0 0,-1 0,-1 -1,-1 -1,-2 -2,-2 0,-1 0,-1 0,-1 -1,-1 -2,-2 -3,-2 -2,-1 -5,-2 -8,-2l-13 -7 -6 4 -9 5 27 16c0,0 0,0 0,0 2,1 3,3 3,6l0 1 0 0 0 15c0,7 -5,14 -10,17l-13 8 0 0 0 0 -27 15zm27 -15l0 0 0 0z"/>
    </g>
    <path class="fil4" d="M1649 1004l0 15c0,6 -5,14 -10,17l-9 5 13 7c11,-8 19,-24 19,-36l0 0 0 -17 0 0c0,-2 0,-3 -1,-5 0,-1 0,-1 0,-1 0,-1 -1,-2 -1,-3 0,-1 -1,-1 -1,-1 0,-1 -1,-2 -1,-2 0,-1 -1,-1 -1,-1 -4,-4 -11,-4 -18,0l0 0 0 0c0,0 0,0 0,0l-9 5 16 9c0,0 0,0 0,0 2,1 3,3 3,7l0 1z"/>
    <path class="fil25" d="M1644 996c1,0 1,0 1,0 0,0 0,0 -1,0z"/>
    <path class="fil25" d="M1641 996c0,0 0,0 1,0 -1,0 -1,0 -1,0z"/>
    <path class="fil25" d="M1643 996c0,0 0,0 0,0 0,0 0,0 0,0z"/>
    <path class="fil10" d="M1611 1052l-16 10 0 28 40 -24c1,0 1,0 2,0 0,-1 0,-1 1,-1 0,0 0,0 1,0 0,0 0,0 0,0 1,0 1,0 1,0 1,0 1,0 1,0 0,1 1,1 1,1 0,0 0,0 0,0l-27 -16 -4 2z"/>
    <path class="fil26" d="M1528 1052c0,0 0,0 0,1 0,-1 0,-1 0,-1z"/>
    <path class="fil26" d="M1526 1050c0,0 1,1 1,1 0,0 -1,-1 -1,-1z"/>
    <path class="fil26" d="M1516 1118c-1,1 -3,2 -5,3 2,-1 4,-2 5,-3z"/>
    <path class="fil26" d="M1529 1054c0,1 0,1 0,1 0,0 0,0 0,-1z"/>
    <path class="fil10" d="M1568 1038l71 -41c1,0 1,-1 2,-1 0,0 0,0 1,0 0,0 0,0 1,0 0,0 0,0 0,0 1,0 1,0 1,0 1,0 1,0 1,0 0,0 1,0 1,0 0,0 0,0 0,0l-16 -9 -4 2 0 0 0 0 -59 34c-2,1 -4,3 -6,5l-35 -20c-1,1 -2,1 -3,1l-3 2c-1,0 -1,1 -2,2l21 13c0,0 0,0 0,0 6,3 10,10 10,21 0,1 0,2 -1,3 0,11 -5,24 -13,35l10 5 0 0 0 110 0 0 0 4 16 10c0,0 0,0 0,0 -1,-1 -2,-2 -2,-3 0,0 0,0 0,0 -1,-1 -1,-2 -1,-4l0 0 0 -152c0,-6 4,-14 10,-17z"/>
    <path class="fil27" d="M1558 1020c0,0 0,1 1,2 -1,-1 -1,-2 -1,-2z"/>
    <path class="fil27" d="M1549 1010c1,1 2,1 2,2 0,-1 -1,-1 -2,-2z"/>
    <path class="fil27" d="M1554 1014c0,1 1,1 1,2 0,-1 -1,-1 -1,-2z"/>
    <path class="fil21" d="M1536 1024c0,0 -1,0 -2,0 0,0 0,0 0,0 1,0 2,0 2,0z"/>
    <path class="fil21" d="M1523 1025c0,0 1,-1 1,-1 0,0 -1,1 -1,1z"/>
    <path class="fil21" d="M1529 1023c0,0 1,0 2,1 -1,-1 -2,-1 -2,-1z"/>
    <path class="fil22" d="M1646 996c0,0 -1,0 -1,0 0,0 0,0 -1,0 0,0 0,0 -1,0 0,0 0,0 0,0 -1,0 -1,0 -1,0 -1,0 -1,0 -1,0 -1,0 -1,1 -2,1l-71 41c-6,3 -10,11 -10,17l0 152c0,2 0,3 1,4 0,0 0,0 0,0 0,1 1,2 2,3 2,1 4,1 7,-1l4 -2 13 -8c6,-3 10,-11 10,-17l0 -15 0 -42 0 -1 27 -15 13 -8c5,-3 10,-10 10,-17l0 -15 0 -1c0,-3 -1,-5 -3,-6 0,0 -1,0 -1,-1 0,0 0,0 -1,0 0,0 0,0 -1,0 0,0 0,0 0,0 -1,0 -1,0 -1,0 -1,0 -1,0 -1,1 -1,0 -1,0 -2,0l-40 24 0 -28 16 -10 4 -2 9 -5 6 -4 9 -5c5,-3 10,-11 10,-17l0 -15 0 -1c0,-4 -1,-6 -3,-7z"/>
    <path class="fil20" d="M1508 1082c-1,0 -1,0 -1,-1 0,1 0,1 1,1z"/>
    <path class="fil20" d="M1489 1102c-1,-1 -1,-2 -2,-3 1,1 1,2 2,3z"/>
    <path class="fil20" d="M1484 1092c-1,-3 -1,-5 -1,-8 0,3 0,5 1,8z"/>
    <path class="fil20" d="M1486 1097c-1,-1 -1,-2 -1,-3 0,1 0,2 1,3z"/>
    <path class="fil20" d="M1510 1082c0,0 -1,0 -1,0 0,0 1,0 1,0z"/>
    <path class="fil20" d="M1513 1082c-1,0 -2,0 -2,0 0,0 1,0 2,0z"/>
    <path class="fil20" d="M1516 1081c-1,0 -2,0 -3,1 1,-1 2,-1 3,-1z"/>
    <path class="fil4" d="M1516 1103c-10,6 -19,6 -25,1 0,0 1,1 2,1l-23 -13c0,15 5,25 14,29 0,1 1,1 1,1 1,0 1,1 2,1 1,0 1,0 2,0 0,1 1,1 1,1 1,0 2,0 3,0 0,0 1,0 1,0 1,0 2,0 3,0 0,0 1,0 1,0 1,0 2,0 3,0 0,0 1,0 1,0 1,-1 2,-1 3,-1 1,0 1,0 2,-1 1,0 2,0 3,-1 0,0 1,0 1,0 2,-1 4,-2 5,-3 8,-5 16,-11 22,-19 3,-3 5,-6 7,-9l-10 -5c-5,7 -12,14 -19,18z"/>
    <path class="fil10" d="M1529 1055c0,0 0,0 0,-1 -1,0 -1,-1 -1,-1 0,-1 0,-1 0,-1 -1,0 -1,-1 -1,-1 0,0 -1,-1 -1,-1 -2,-2 -6,-2 -10,0 -7,5 -13,15 -13,23l13 8c7,-5 13,-15 13,-23 0,-1 0,-2 0,-3z"/>
    <path class="fil10" d="M1503 1073c0,0 0,0 0,0 0,4 1,7 4,8 0,1 0,1 1,1 0,0 0,0 1,0 0,0 1,0 1,0 0,0 1,0 1,0 0,0 1,0 2,0 0,0 0,0 0,0 1,-1 2,-1 3,-1l-13 -8z"/>
    <path class="fil4" d="M1559 1022c-1,-1 -1,-2 -1,-2 -1,-2 -2,-3 -3,-4 0,-1 -1,-1 -1,-2 -1,-1 -2,-2 -3,-2 0,-1 -1,-1 -2,-2 -6,-4 -14,-5 -23,-2l35 20c-1,-2 -2,-4 -2,-6z"/>
    <g>
     <path class="fil10" d="M1491 1104c-1,-1 -2,-1 -2,-2 -1,-1 -1,-2 -2,-3 0,0 -1,-1 -1,-2 -1,-1 -1,-2 -1,-3 -1,-1 -1,-2 -1,-2 -1,-3 -1,-5 -1,-8 0,-20 15,-46 33,-56l0 0c2,-2 4,-3 7,-3 5,-2 11,-2 16,1 0,0 0,0 0,0l-21 -13 -1 -1c-1,1 -1,1 -1,1 -4,2 -8,5 -12,8l0 0 0 0c-19,17 -34,46 -34,71 0,0 0,0 0,0l23 13c-1,0 -2,-1 -2,-1zm25 -76l0 0 0 0zm-12 -7l0 0 0 0z"/>
    </g>
    <path class="fil22" d="M1516 1081c-1,0 -2,0 -3,1 0,0 0,0 0,0 -1,0 -2,0 -2,0 0,0 -1,0 -1,0 0,0 -1,0 -1,0 -1,0 -1,0 -1,0 -1,0 -1,0 -1,-1 -3,-1 -4,-4 -4,-8 0,0 0,0 0,0 0,-8 6,-18 13,-23 4,-2 8,-2 10,0 0,0 1,1 1,1 0,0 0,1 1,1 0,0 0,0 0,1 0,0 0,1 1,1 0,1 0,1 0,1 0,1 0,2 0,3 0,8 -6,18 -13,23zm23 -55c-5,-3 -11,-3 -16,-1 -3,0 -5,1 -7,3 -18,10 -33,36 -33,56 0,3 0,5 1,8 0,0 0,1 1,2 0,1 0,2 1,3 0,1 1,2 1,2 1,1 1,2 2,3 0,1 1,1 2,2 6,5 15,5 25,-1 7,-4 14,-11 19,-18 8,-11 13,-24 13,-35 1,-1 1,-2 1,-3 0,-11 -4,-18 -10,-21z"/>
    <path class="fil23" d="M1454 1293c-4,-3 -7,-6 -10,-9 0,0 0,0 0,0 -3,-4 -6,-7 -8,-11 0,0 0,0 0,0 -3,-4 -5,-8 -7,-13 0,0 0,0 0,0 -2,-5 -4,-9 -6,-14 0,-1 0,-1 0,-1 -2,-5 -3,-10 -4,-16 0,0 0,0 0,0 -1,-5 -2,-11 -3,-17 0,0 0,0 0,-1 0,-6 -1,-12 -1,-19 0,-107 76,-238 169,-292l0 0c3,-2 6,-3 9,-5 1,0 2,-1 3,-1 2,-1 4,-2 5,-3 2,0 3,-1 4,-1 1,-1 3,-2 5,-2 1,-1 2,-1 3,-2 2,0 4,-1 5,-2 1,0 3,0 4,-1 1,0 3,-1 5,-1 1,0 2,-1 3,-1 2,0 3,-1 5,-1 1,0 2,-1 3,-1 2,0 3,0 4,-1 1,0 1,0 1,0 1,0 2,0 3,0 1,0 3,0 4,-1 1,0 3,0 4,0 1,0 2,0 4,0 0,0 0,0 0,0 1,0 2,0 3,0 1,0 3,0 4,0 1,0 2,0 3,0 2,0 3,1 4,1 1,0 2,0 3,0 2,0 3,1 4,1 0,0 0,0 0,0 1,0 2,0 3,1 1,0 3,0 4,0 1,1 2,1 3,1 1,1 2,1 3,2 1,0 2,0 3,1 1,0 2,1 3,1 1,1 2,1 3,2 1,0 2,1 3,1 0,0 0,0 0,0l-47 -27c-30,-18 -73,-15 -120,12l0 0c-94,54 -169,185 -169,292 0,33 8,60 21,80 7,12 17,22 29,29l47 27c0,0 -1,0 -1,0 -3,-2 -7,-5 -10,-8 0,0 0,0 0,0z"/>
    <path class="fil9" d="M1643 1048c3,0 6,1 8,2 1,0 2,1 3,2 0,0 0,0 0,1 1,0 1,1 2,2 0,0 0,1 0,1 1,1 1,2 1,3 0,0 0,1 0,1 1,1 1,3 1,5l0 16c0,14 -10,32 -23,39l-27 16 0 43c0,14 -10,32 -23,39l-17 10c-2,1 -3,2 -5,2 0,0 -1,0 -1,1 -1,0 -2,0 -3,0 0,0 -1,0 -1,0 -1,0 -2,0 -3,0 0,0 -1,0 -1,-1 -1,0 -2,0 -2,0 -4,-3 -7,-8 -7,-15l0 0 0 -11 0 -4 0 -110 0 0c-2,3 -4,6 -7,9 -6,8 -14,14 -22,19 -1,1 -3,2 -5,3 0,0 -1,0 -1,0 -1,1 -2,1 -3,1 -1,1 -1,1 -2,1 -1,0 -2,0 -3,1 0,0 -1,0 -1,0 -1,0 -2,0 -3,0 0,0 -1,0 -1,0 -1,0 -2,0 -3,0 0,0 -1,0 -1,0 -1,0 -2,0 -3,0 0,0 -1,0 -1,-1 -1,0 -1,0 -2,0 -1,0 -1,-1 -2,-1 0,0 -1,0 -1,-1 -9,-4 -14,-14 -14,-29 0,0 0,0 0,0 0,-25 15,-54 34,-71 4,-3 8,-6 12,-8 0,0 0,0 1,-1 2,-1 4,-2 6,-3 1,0 2,0 3,-1 9,-3 17,-2 23,2 1,1 2,1 2,2 1,0 2,1 3,2 0,1 1,1 1,2 1,1 2,2 3,4 0,0 0,1 1,2 0,2 1,4 2,6 2,-2 4,-4 6,-5l59 -34 4 -2 9 -5c0,0 0,0 0,0 7,-4 14,-4 18,0 0,0 1,0 1,1 0,0 1,1 1,2 0,0 1,0 1,1 0,1 1,2 1,3 0,0 0,0 0,1 1,2 1,3 1,5l0 17c0,12 -8,28 -19,36zm61 -160c-1,0 -2,-1 -3,-1 -1,-1 -2,-1 -3,-2 -1,0 -2,-1 -3,-1 -1,-1 -2,-1 -3,-1 -1,-1 -2,-1 -3,-2 -1,0 -2,0 -3,-1 -1,0 -3,0 -4,0 -1,-1 -2,-1 -3,-1 -1,0 -2,-1 -4,-1 -1,0 -2,0 -3,0 -1,0 -2,-1 -4,-1 -1,0 -2,0 -3,0 -1,0 -3,0 -4,0 -1,0 -2,0 -3,0 -2,0 -3,0 -4,0 -1,0 -3,0 -4,0 -1,1 -3,1 -4,1 -1,0 -2,0 -4,0 -1,1 -2,1 -4,1 -1,0 -2,1 -3,1 -2,0 -3,1 -5,1 -1,0 -2,1 -3,1 -2,0 -4,1 -5,1 -1,1 -3,1 -4,1 -1,1 -3,2 -5,2 -1,1 -2,1 -3,2 -2,0 -4,1 -5,2 -1,0 -2,1 -4,1 -1,1 -3,2 -5,3 -1,0 -2,1 -3,1 -3,2 -6,3 -9,5 -93,54 -169,185 -169,292 0,7 1,13 1,19 0,1 0,1 0,1 1,6 2,12 3,17 0,0 0,0 0,0 1,6 2,11 4,16 0,0 0,0 0,1 2,5 4,9 6,14 0,0 0,0 0,0 2,5 4,9 7,13 0,0 0,0 0,0 2,4 5,7 8,11 0,0 0,0 0,0 3,3 6,6 10,9 0,0 0,0 0,0 3,3 7,6 10,8 31,18 74,15 121,-12 94,-54 169,-185 169,-292 0,-54 -19,-91 -50,-109z"/>
   </g>
  </g>
 </g>
</svg>
