<?xml version="1.0" encoding="UTF-8"?>
<!DOCTYPE svg PUBLIC "-//W3C//DTD SVG 1.1//EN" "http://www.w3.org/Graphics/SVG/1.1/DTD/svg11.dtd">
<!-- Creator: CorelDRAW X7 -->
<svg xmlns="http://www.w3.org/2000/svg" xml:space="preserve" width="100%" height="100%" version="1.1" style="shape-rendering:geometricPrecision; text-rendering:geometricPrecision; image-rendering:optimizeQuality; fill-rule:evenodd; clip-rule:evenodd"
viewBox="0 0 10293 7563"
 xmlns:xlink="http://www.w3.org/1999/xlink">
 <defs>
  <style type="text/css">
   <![CDATA[
    .fil0 {fill:black}
   ]]>
  </style>
 </defs>
 <g id="Layer_x0020_1">
  <metadata id="CorelCorpID_0Corel-Layer"/>
  <path class="fil0" d="M3576 1259l-1 0 -1 0 -1 0 0 0 -1 0 -1 0 -1 -1 0 0c-32,0 -64,-6 -96,-16 -34,-11 -62,-36 -83,-73 -15,20 -31,36 -50,48 -20,12 -40,21 -63,27 -22,6 -46,10 -70,12 -24,2 -48,3 -71,3l-808 0c-70,0 -128,-5 -175,-15 -47,-10 -85,-27 -113,-49 -28,-23 -48,-51 -60,-87 -12,-35 -17,-78 -17,-128l0 -292 228 0 0 261c0,23 4,42 10,55 6,14 16,25 31,32 15,8 36,14 62,16 26,2 59,3 99,3l706 0c40,0 68,-6 84,-18 16,-12 23,-40 23,-83l0 -397 228 0 0 377c0,44 9,75 27,93 18,19 55,28 110,28l1 0 0 0 1 0 1 0 1 0 2 0 1 0 239 0c6,-1 12,-1 18,-1l279 0 0 -497 230 0 0 702 -507 0 -1 0 -1 0 -2 0 -1 0 -255 0 -1 0 -1 0zm-3523 -902l-53 0 0 7206 53 0 0 -7206zm10097 6372l125 0 0 427c0,76 -5,140 -13,192 -9,51 -26,93 -50,125 -25,31 -59,54 -102,68 -44,15 -100,22 -169,22l0 -127c50,0 89,-6 118,-16 28,-11 49,-29 63,-53 14,-23 22,-54 25,-91 2,-38 3,-83 3,-136l0 -411zm-325 -581l0 1095 -125 0 0 -1095 125 0zm-1394 967l365 0c37,0 69,-6 94,-20 25,-13 38,-38 38,-76 0,-27 -13,-57 -38,-91 -25,-34 -58,-69 -100,-105 -41,-35 -89,-70 -142,-104 -54,-34 -109,-65 -165,-92 1,-13 4,-25 9,-38 5,-13 11,-25 17,-35 6,-11 13,-21 19,-29 7,-8 12,-14 17,-17l560 -247 0 125 -450 199c71,42 132,82 182,122 50,40 91,79 122,116 31,37 54,72 68,106 14,35 21,67 21,97 0,22 -3,45 -9,71 -7,26 -19,49 -38,71 -18,21 -44,39 -78,53 -34,14 -77,22 -131,22l-361 0 -2 0 0 0 -1 0 -1 0 -3 -1 -1 0c-37,0 -67,-10 -91,-28 -24,-19 -41,-42 -49,-71 -9,21 -22,38 -38,51 -17,13 -34,23 -53,30 -18,7 -36,12 -53,15 -18,2 -32,4 -45,4 -34,0 -62,-4 -85,-10 -23,-6 -42,-14 -58,-23 -15,-10 -27,-21 -35,-33 -9,-12 -16,-23 -21,-34 -18,42 -47,69 -85,81 -38,12 -84,19 -137,19 -36,0 -66,-3 -90,-9 -24,-6 -44,-13 -59,-23 -15,-9 -27,-20 -36,-33 -10,-12 -17,-25 -23,-37 -9,22 -21,39 -35,52 -14,13 -32,23 -54,30 -22,8 -49,13 -81,16 -32,2 -71,4 -116,4l-48 0 -2 0 0 0 -2 0 -1248 0c-60,0 -109,-5 -148,-13 -40,-8 -72,-21 -95,-39 -24,-17 -42,-40 -52,-69 -10,-28 -15,-62 -15,-103l0 -238 126 0 0 192c0,31 3,57 11,76 8,19 21,33 39,43 18,10 43,16 75,19 32,3 72,4 122,4l531 0c-11,-21 -21,-45 -29,-71 -8,-26 -12,-56 -12,-90 0,-39 7,-79 20,-118 13,-39 33,-73 58,-103 26,-30 57,-55 94,-73 38,-19 81,-29 130,-29 56,0 102,10 138,31 35,20 64,46 85,78 21,32 35,66 43,105 8,38 13,75 13,112l0 158 114 0 2 0 0 0 2 0 51 0c34,0 63,-1 86,-3 23,-2 42,-7 56,-14 14,-8 24,-19 30,-34 6,-15 9,-35 9,-60l0 -275 126 0 0 218c0,25 1,48 4,69 4,21 11,39 22,53 11,14 27,26 48,34 21,8 50,12 85,12 22,0 42,-1 58,-3 17,-2 31,-7 42,-14 11,-8 20,-19 25,-34 5,-15 8,-35 8,-60l0 -275 126 0 0 218c0,25 2,48 6,69 3,21 11,39 21,53 11,14 26,26 45,34 19,8 43,12 74,12 18,0 33,-1 47,-3 15,-2 27,-7 37,-14 10,-8 18,-19 24,-34 6,-15 9,-35 9,-60l0 -351 125 0 0 294c0,25 2,48 6,69 3,21 10,39 20,53 11,14 24,26 42,34 16,8 38,12 64,12l2 0 0 0 2 0zm-772 -720c0,-23 8,-42 24,-58 16,-15 35,-23 57,-23 23,0 42,8 58,23 16,16 23,35 23,58 0,22 -7,41 -23,57 -16,16 -35,24 -58,24 -22,0 -41,-8 -57,-24 -16,-16 -24,-35 -24,-57zm199 0c0,-23 8,-42 24,-58 16,-15 35,-23 58,-23 22,0 41,8 57,23 16,16 23,35 23,58 0,22 -7,41 -23,57 -16,16 -35,24 -57,24 -23,0 -42,-8 -58,-24 -16,-16 -24,-35 -24,-57zm-97 -184c0,-22 9,-41 24,-58 16,-15 36,-23 58,-23 23,0 42,8 57,23 16,17 24,36 24,58 0,23 -8,42 -24,57 -15,16 -34,24 -57,24 -22,0 -42,-8 -58,-24 -15,-15 -24,-34 -24,-57zm-1209 723c0,63 18,108 55,138 36,29 81,43 135,43l146 0 0 -153c0,-24 -2,-49 -6,-74 -5,-25 -13,-48 -25,-68 -13,-19 -29,-36 -51,-49 -21,-12 -49,-19 -82,-19 -27,0 -51,5 -73,15 -21,10 -40,23 -55,39 -14,16 -26,35 -33,58 -8,22 -11,46 -11,70zm110 -539c0,-23 8,-42 24,-58 16,-15 35,-23 57,-23 23,0 42,8 58,23 15,16 23,35 23,58 0,22 -8,41 -23,57 -16,16 -35,24 -58,24 -22,0 -41,-8 -57,-24 -16,-16 -24,-35 -24,-57zm-2254 720l364 0c38,0 69,-6 94,-20 26,-13 38,-38 38,-76 0,-27 -12,-57 -38,-91 -25,-34 -58,-69 -100,-105 -41,-35 -89,-70 -142,-104 -54,-34 -108,-65 -164,-92 1,-13 4,-25 8,-38 6,-13 11,-25 17,-35 6,-11 13,-21 20,-29 6,-8 12,-14 16,-17l561 -247 0 125 -451 199c71,42 132,82 182,122 50,40 91,79 122,116 31,37 54,72 68,106 15,35 22,67 22,97 0,22 -4,45 -10,71 -7,26 -19,49 -38,71 -18,21 -44,39 -78,53 -33,14 -77,22 -130,22l-361 0 -2 0 0 0 -2 0 0 0 -1 0 -1 -1 -1 0 -1 0 -1 0 -1 0c-36,-1 -65,-10 -88,-28 -25,-19 -41,-42 -50,-71 -18,42 -47,69 -86,81 -39,12 -87,19 -145,19l-123 0 -2 0 -1 0 -1 0 -1 0 -1 0 0 -1 -1 0 -1 0 -1 0 -1 0c-36,-1 -66,-10 -88,-28 -25,-19 -41,-42 -50,-71 -18,42 -47,69 -86,81 -39,12 -88,19 -145,19l-124 0 -2 0 -2 0 -223 0 -2 0 -2 0 -223 0 -2 0 -2 0 0 0 -3 -1 -1 0c-39,0 -72,-9 -99,-26 -29,-17 -57,-48 -86,-93 -12,27 -26,49 -44,66 -18,16 -38,28 -60,36 -22,8 -45,12 -69,14 -25,3 -49,4 -74,4l-233 0 0 -128 275 0c42,0 75,-5 98,-16 23,-11 35,-26 35,-47 0,-19 -5,-38 -16,-58 -10,-19 -22,-40 -38,-63l-163 -240 119 -74 184 305c20,34 38,63 53,88 15,24 30,44 44,59 14,15 27,27 40,35 12,7 25,11 38,11l0 0 1 0 1 0 2 0 223 0 2 0 2 0 223 0 2 0 2 0 100 0c25,0 46,-1 63,-3 18,-2 33,-7 44,-14 12,-8 21,-19 26,-34 6,-15 9,-35 9,-60l0 -351 126 0 0 294c0,25 2,48 5,69 3,21 10,39 21,53 10,14 24,26 41,34 16,8 37,12 62,12l1 0 1 0 1 0 0 0 1 0 2 0 100 0c24,0 45,-1 63,-3 17,-2 32,-7 44,-14 11,-8 20,-19 26,-34 6,-15 8,-35 8,-60l0 -351 126 0 0 294c0,25 2,48 5,69 4,21 11,39 21,53 10,14 24,26 41,34 17,8 37,12 63,12l1 0 0 0 1 0 1 0 0 0 2 0zm-275 -720c0,-23 8,-42 24,-58 16,-15 35,-23 58,-23 22,0 41,8 57,23 16,16 24,35 24,58 0,22 -8,41 -24,57 -16,16 -35,24 -57,24 -23,0 -42,-8 -58,-24 -16,-16 -24,-35 -24,-57zm-611 1079c0,-23 8,-42 24,-57 16,-16 35,-24 58,-24 22,0 41,8 57,24 16,15 24,34 24,57 0,22 -8,41 -24,58 -16,15 -35,24 -57,24 -23,0 -42,-9 -58,-24 -16,-17 -24,-36 -24,-58zm199 0c0,-23 8,-42 24,-57 16,-16 35,-24 58,-24 22,0 41,8 57,24 16,15 24,34 24,57 0,22 -8,41 -24,58 -16,15 -35,24 -57,24 -23,0 -42,-9 -58,-24 -16,-17 -24,-36 -24,-58zm-1633 -503l-124 0 0 -820 124 0 0 820zm-151 198c-1,-25 8,-47 25,-64 18,-18 39,-26 65,-26 25,0 46,8 64,26 17,17 26,39 26,64 0,26 -9,47 -26,65 -18,17 -39,26 -64,26 -26,0 -47,-9 -65,-26 -17,-18 -26,-39 -25,-65zm8337 -2851l0 1095 -125 0 0 -1095 125 0zm-463 581l124 0 0 428c0,75 -5,139 -13,191 -9,52 -26,93 -50,125 -25,32 -59,55 -102,69 -43,14 -99,21 -168,21l0 -127c49,0 89,-6 117,-16 28,-11 49,-28 63,-52 14,-24 22,-55 25,-92 2,-38 4,-83 4,-136l0 -411zm-19 -334c0,-23 8,-42 24,-58 16,-15 35,-23 57,-23 23,0 42,8 58,23 15,16 23,35 23,58 0,22 -8,41 -23,57 -16,16 -35,24 -58,24 -22,0 -41,-8 -57,-24 -16,-16 -24,-35 -24,-57zm-1361 720l365 0c37,0 69,-6 94,-20 25,-13 38,-38 38,-76 0,-27 -13,-57 -38,-91 -25,-34 -58,-69 -100,-105 -41,-35 -89,-70 -142,-104 -54,-34 -109,-65 -165,-92 1,-13 4,-25 9,-38 5,-13 11,-25 17,-35 6,-11 13,-21 19,-29 7,-8 12,-14 17,-17l560 -247 0 125 -450 199c71,42 132,83 182,122 50,40 91,79 122,116 31,37 54,72 68,106 14,35 21,67 21,97 0,22 -3,45 -9,71 -7,26 -19,49 -38,71 -18,21 -44,39 -78,53 -34,14 -77,22 -131,22l-361 0 -2 0 0 0 -1 0 -1 0 -3 0 -1 0c-37,-1 -67,-11 -91,-29 -24,-19 -41,-42 -49,-71 -9,21 -22,39 -38,51 -17,13 -34,23 -53,30 -18,7 -36,13 -53,15 -18,2 -32,4 -45,4 -34,0 -62,-3 -85,-10 -23,-6 -42,-14 -58,-23 -15,-10 -27,-20 -35,-32 -9,-13 -16,-24 -21,-35 -18,42 -47,69 -85,81 -38,13 -84,19 -137,19 -36,0 -66,-3 -90,-9 -24,-6 -44,-13 -59,-23 -15,-9 -27,-20 -36,-33 -10,-12 -17,-25 -23,-37 -9,22 -21,39 -35,52 -14,13 -32,23 -54,30 -22,8 -49,14 -81,16 -32,2 -71,4 -116,4l-48 0 -2 0 0 0 -2 0 0 0 -1 0 -1 0 -1 0 -1 0 -1 0 -1 -1c-36,-1 -65,-10 -88,-28 -25,-19 -41,-42 -50,-71 -9,21 -21,39 -36,51 -15,13 -34,23 -58,30 -23,7 -51,13 -83,15 -33,2 -71,4 -115,4l-624 0c-59,0 -109,-4 -148,-13 -39,-8 -71,-21 -95,-39 -24,-17 -41,-40 -51,-68 -11,-29 -16,-63 -16,-104l0 -237 126 0 0 191c0,32 4,57 12,76 7,19 20,33 39,43 18,10 43,16 74,19 32,3 73,4 122,4l559 0c34,0 63,-1 86,-3 24,-2 42,-7 56,-14 14,-8 24,-19 30,-34 6,-14 9,-35 9,-60l0 -351 126 0 0 294c0,25 2,49 5,70 4,20 11,38 21,52 10,14 24,26 41,34 17,8 38,12 63,12l1 0 0 0 1 0 1 0 0 0 2 0 51 0c34,0 63,-1 86,-3 23,-2 42,-7 56,-14 14,-8 24,-19 30,-34 6,-14 9,-35 9,-60l0 -275 126 0 0 218c0,25 1,49 4,70 4,20 11,38 22,52 11,14 27,26 48,34 21,8 50,12 85,12 22,0 42,-1 58,-3 17,-2 31,-7 42,-14 11,-8 20,-19 25,-34 5,-14 8,-35 8,-60l0 -275 126 0 0 218c0,25 2,49 6,70 3,20 11,38 21,52 11,14 26,26 45,34 19,8 43,12 74,12 18,0 33,-1 47,-3 15,-2 27,-7 37,-14 10,-8 18,-19 24,-34 6,-14 9,-35 9,-60l0 -351 125 0 0 294c0,25 2,49 6,70 3,20 10,38 20,52 11,14 24,26 42,34 16,8 38,12 64,12l2 0 0 0 2 0zm-2128 360c0,-22 8,-41 24,-57 16,-16 35,-23 57,-23 23,0 42,7 58,23 15,16 23,35 23,57 0,23 -8,42 -23,58 -16,16 -35,24 -58,24 -22,0 -41,-8 -57,-24 -16,-16 -24,-35 -24,-58zm-1374 -232c-40,0 -77,-5 -111,-14 -35,-9 -64,-24 -89,-45 -26,-21 -45,-49 -60,-84 -15,-35 -22,-77 -22,-128 0,-41 6,-81 19,-121 14,-39 33,-74 58,-105 26,-31 58,-55 95,-74 39,-18 82,-27 131,-27 54,0 100,10 137,29 37,20 67,48 90,83 22,35 38,77 48,126 10,49 14,102 14,161l0 143c0,77 -10,140 -30,188 -21,49 -50,87 -88,115 -37,28 -84,47 -139,58 -55,10 -117,15 -185,15l-64 0 0 -127 47 0c49,0 93,-2 134,-6 40,-4 75,-13 104,-28 29,-14 52,-35 68,-63 17,-27 25,-64 25,-111l0 -30c-19,12 -43,22 -72,31 -30,9 -66,14 -110,14zm-160 -285c0,58 16,99 47,124 31,25 73,38 125,38 39,0 73,-5 103,-16 29,-10 52,-21 67,-33l0 -57c0,-34 -3,-67 -8,-98 -6,-31 -15,-57 -29,-79 -13,-22 -30,-39 -52,-52 -21,-13 -47,-19 -78,-19 -32,0 -58,6 -80,18 -22,12 -40,28 -54,46 -14,19 -25,39 -31,62 -6,22 -10,44 -10,66zm-1342 157l364 0c38,0 70,-6 95,-20 25,-13 37,-38 37,-76 0,-27 -12,-57 -37,-91 -25,-34 -59,-69 -100,-105 -42,-35 -89,-70 -143,-104 -53,-34 -108,-65 -164,-92 1,-13 4,-25 9,-38 5,-13 11,-25 17,-35 6,-11 12,-21 19,-29 6,-8 12,-14 16,-17l561 -247 0 125 -451 199c72,42 132,83 183,122 50,40 90,79 122,116 31,37 54,72 68,106 14,35 21,67 21,97 0,22 -3,45 -10,71 -6,26 -19,49 -37,71 -19,21 -45,39 -78,53 -34,14 -78,22 -131,22l-361 0 -2 0 -2 0 -38 0c-33,0 -63,-4 -89,-11 -28,-6 -50,-18 -69,-34 -19,-16 -34,-38 -45,-65 -11,-27 -16,-61 -16,-102l0 -883 126 0 0 849c0,43 7,73 20,91 13,18 43,27 89,27l22 0 2 0 2 0zm-599 -386l124 0 0 428c0,75 -4,139 -13,191 -9,52 -25,93 -50,125 -24,32 -58,55 -102,69 -43,14 -99,21 -168,21l0 -127c50,0 89,-6 117,-16 28,-11 49,-28 63,-52 14,-24 22,-55 25,-92 2,-38 4,-83 4,-136l0 -411zm-688 386l237 0 0 -462 126 0 0 590 -363 0 -2 0 -2 0 -38 0c-33,0 -62,-4 -89,-11 -27,-6 -50,-18 -69,-34 -19,-16 -34,-38 -45,-65 -10,-27 -16,-61 -16,-102l0 -883 126 0 0 849c0,43 7,73 20,91 14,18 43,27 89,27l22 0 2 0 2 0zm101 -720c0,-23 8,-42 24,-58 16,-15 35,-23 57,-23 23,0 42,8 58,23 16,16 23,35 23,58 0,22 -7,41 -23,57 -16,16 -35,24 -58,24 -22,0 -41,-8 -57,-24 -16,-16 -24,-35 -24,-57zm199 0c0,-23 8,-42 24,-58 16,-15 35,-23 58,-23 22,0 41,8 57,23 16,16 23,35 23,58 0,22 -7,41 -23,57 -16,16 -35,24 -57,24 -23,0 -42,-8 -58,-24 -16,-16 -24,-35 -24,-57zm-1616 429l124 0 0 210c0,99 25,169 76,209 51,40 125,59 224,59 51,0 95,-3 132,-11 37,-8 67,-21 91,-40 24,-19 42,-45 53,-78 11,-34 17,-75 17,-127l0 -393 124 0 0 395c0,135 -37,232 -110,291 -74,59 -177,89 -310,89 -141,0 -246,-31 -317,-94 -69,-63 -104,-154 -104,-274l0 -236zm344 -230c0,-23 9,-42 24,-57 17,-16 36,-24 58,-24 23,0 42,8 57,24 16,15 24,34 24,57 0,22 -8,42 -24,57 -15,17 -34,24 -57,24 -22,0 -41,-7 -58,-24 -15,-15 -24,-35 -24,-57zm8648 -2029c0,-23 8,-42 24,-57 16,-16 35,-24 58,-24 22,0 42,8 57,24 16,15 24,34 24,57 0,22 -8,41 -24,57 -15,16 -35,24 -57,24 -23,0 -42,-8 -58,-24 -16,-16 -24,-35 -24,-57zm199 0c0,-23 9,-42 24,-57 17,-16 36,-24 58,-24 22,0 42,8 57,24 16,15 24,34 24,57 0,22 -8,41 -24,57 -15,16 -35,24 -57,24 -22,0 -41,-8 -58,-24 -15,-16 -24,-35 -24,-57zm-183 539c0,63 18,108 55,138 36,29 81,44 135,44l147 0 0 -154c0,-24 -3,-49 -7,-74 -4,-25 -13,-47 -25,-67 -12,-20 -29,-37 -51,-49 -21,-13 -48,-20 -81,-20 -28,0 -52,5 -74,15 -21,10 -39,23 -54,39 -15,16 -26,36 -33,58 -8,22 -12,46 -12,70zm-253 309l-8 -1 -10 1c-40,0 -72,-10 -96,-29 -24,-19 -40,-42 -48,-71 -18,42 -48,69 -88,81 -41,13 -93,19 -156,19l-106 0 -2 0 -1 0 -1 0 -1 0 0 0 -1 0 -1 0 -1 0 -1 0c-36,-1 -67,-9 -94,-23 -29,-15 -52,-41 -70,-78l0 -3c-19,39 -47,69 -84,91 -38,22 -84,33 -141,33 -49,0 -97,-8 -146,-25 -49,-16 -99,-44 -151,-83 -13,21 -27,37 -41,48 -13,12 -28,21 -44,27 -15,5 -31,9 -47,10 -16,2 -34,3 -52,3l-63 0 -2 0 -1 0 -1 0 -1 0 0 0 -2 0 0 0 -1 0 -2 0 0 0c-30,-2 -56,-9 -77,-23 -22,-15 -39,-33 -50,-54 0,74 -4,136 -13,186 -9,51 -25,92 -50,123 -24,31 -58,54 -101,67 -43,14 -98,21 -167,21l0 -127c49,0 89,-5 117,-16 28,-11 49,-28 63,-52 14,-24 22,-55 25,-92 2,-38 3,-83 3,-136l0 -411 125 0 0 218c0,52 9,93 28,123 18,30 52,45 100,46l2 0 0 0 2 0 1 0 2 0 60 0c13,0 25,-2 39,-5 13,-3 26,-10 39,-20 13,-10 26,-24 39,-42 13,-18 25,-42 37,-73 23,-65 48,-118 74,-158 25,-41 52,-72 79,-94 27,-22 55,-36 83,-44 28,-7 56,-11 84,-11 38,0 73,8 106,22 34,15 62,36 86,63 24,28 43,60 57,97 13,37 20,79 20,125 0,7 0,14 -1,21 0,7 0,13 0,19 10,33 25,58 44,74 19,16 49,25 90,26l1 0 1 0 1 0 1 0 2 0 120 0c19,0 35,-2 49,-4 14,-2 26,-6 36,-14 10,-8 17,-19 23,-34 5,-14 8,-35 8,-60l0 -855 126 0 0 798c0,52 10,93 31,123 21,30 55,46 101,46l9 0 9 0 174 0c-11,-22 -21,-46 -29,-72 -8,-26 -12,-55 -12,-89 0,-40 7,-80 20,-119 13,-39 33,-73 58,-103 26,-30 57,-54 95,-73 37,-19 80,-29 129,-29 57,0 103,10 139,31 35,20 64,47 84,78 21,32 36,67 44,105 8,38 12,76 12,113l0 285 -714 0zm-778 -271c0,-23 -3,-45 -10,-66 -6,-22 -16,-41 -29,-57 -13,-17 -28,-30 -47,-39 -18,-10 -39,-15 -64,-15 -43,0 -82,19 -118,57 -36,38 -70,104 -101,199 38,25 75,44 113,59 37,15 75,23 114,23 43,0 77,-13 103,-37 26,-24 39,-66 39,-124zm-1557 271c-40,0 -77,-5 -112,-14 -34,-9 -63,-24 -89,-45 -25,-21 -45,-49 -60,-84 -14,-35 -22,-77 -22,-128 0,-41 7,-81 20,-121 13,-39 33,-74 58,-105 26,-31 57,-55 95,-73 38,-19 82,-28 130,-28 55,0 101,10 138,30 37,19 67,47 89,82 23,36 39,77 49,126 9,49 14,102 14,161l0 143c0,77 -10,140 -30,188 -21,49 -50,87 -88,115 -37,28 -84,48 -139,58 -55,10 -117,15 -185,15l-65 0 0 -127 48 0c48,0 93,-2 133,-6 41,-4 76,-13 105,-28 29,-14 52,-35 68,-63 16,-27 24,-64 24,-111l0 -29c-18,11 -42,21 -71,30 -30,9 -67,14 -110,14zm-160 -285c0,58 16,100 47,125 31,25 73,37 125,37 38,0 73,-5 102,-15 30,-11 52,-22 67,-34l0 -57c0,-34 -2,-67 -8,-98 -5,-31 -15,-57 -28,-79 -13,-22 -31,-39 -52,-52 -21,-13 -48,-19 -78,-19 -32,0 -59,6 -81,18 -22,12 -39,28 -54,46 -13,19 -24,39 -30,62 -7,22 -10,44 -10,66zm-1193 158l242 0c-10,-15 -20,-35 -29,-62 -10,-26 -15,-59 -15,-98 0,-53 13,-103 37,-149 25,-47 63,-80 114,-98 -21,0 -41,0 -62,1 -20,0 -41,1 -62,2l0 -114c111,-6 211,-1 299,15 89,16 163,45 224,88 61,42 107,99 139,170 32,71 49,158 49,259l0 113 -936 0 -2 0 -2 0 -38 0c-33,0 -63,-4 -90,-10 -27,-7 -50,-19 -69,-35 -19,-16 -34,-38 -44,-65 -11,-27 -16,-61 -16,-102l0 -882 125 0 0 848c0,43 7,74 20,91 14,19 44,28 90,28l22 0 2 0 2 0zm428 0c22,0 39,-6 54,-17 14,-10 26,-24 34,-39 8,-16 14,-33 17,-52 3,-19 4,-37 4,-53 0,-23 -2,-45 -6,-66 -4,-21 -10,-39 -20,-56 -9,-16 -21,-29 -35,-38 -15,-9 -32,-13 -52,-13 -36,0 -64,16 -84,49 -20,32 -29,75 -29,127 0,18 1,36 5,55 3,18 9,35 18,50 9,14 20,27 34,36 13,10 31,15 52,17l8 0zm379 0c0,-110 -22,-194 -67,-253 -44,-60 -105,-101 -181,-125 18,14 32,30 43,47 11,18 20,37 27,55 7,19 12,38 15,57 2,19 3,37 3,53 0,39 -3,72 -10,99 -7,27 -15,49 -25,67l195 0zm-2178 86c0,39 7,76 19,109 13,33 35,62 65,86 30,24 70,42 120,56 49,13 111,19 184,19 53,0 104,-3 152,-11 49,-8 92,-19 129,-33 38,-14 68,-32 90,-53 22,-21 33,-44 33,-71 0,-23 -8,-43 -24,-59 -15,-16 -44,-35 -87,-56 -31,-16 -59,-32 -85,-48 -26,-16 -49,-34 -68,-54 -18,-20 -33,-42 -45,-67 -11,-25 -17,-55 -17,-89 0,-39 7,-78 21,-117 14,-40 35,-76 63,-108 28,-32 63,-59 105,-78 42,-20 91,-30 149,-30 34,0 63,3 89,11 26,8 41,13 45,15l0 128c-20,-5 -42,-11 -66,-15 -24,-4 -48,-6 -72,-6 -33,0 -63,5 -89,16 -26,11 -48,25 -65,42 -17,18 -29,37 -38,59 -8,21 -13,42 -13,64 0,20 4,38 12,53 7,14 17,28 31,40 13,12 28,24 46,34 17,10 36,21 57,32 35,20 64,38 87,54 24,16 42,32 56,47 14,16 24,31 30,47 6,16 9,33 9,51 0,43 -9,85 -29,125 -19,40 -51,75 -94,106 -42,30 -98,55 -166,74 -68,19 -150,28 -246,28 -96,0 -177,-9 -242,-28 -66,-19 -118,-45 -158,-79 -40,-33 -68,-72 -86,-118 -17,-45 -26,-95 -26,-149l0 -229 124 0 0 202zm-1019 -86l237 0 0 -463 125 0 0 590 -362 0 -2 0 -2 0 -38 0c-33,0 -63,-4 -90,-10 -27,-7 -50,-19 -69,-35 -19,-16 -34,-38 -44,-65 -11,-27 -16,-61 -16,-102l0 -882 125 0 0 848c0,43 7,74 20,91 14,19 44,28 90,28l22 0 2 0 2 0zm100 -721c0,-23 8,-42 24,-57 16,-16 35,-24 58,-24 22,0 41,8 57,24 16,15 24,34 24,57 0,22 -8,41 -24,57 -16,16 -35,24 -57,24 -23,0 -42,-8 -58,-24 -16,-16 -24,-35 -24,-57zm199 0c0,-23 9,-42 24,-57 16,-16 36,-24 58,-24 22,0 42,8 57,24 16,15 24,34 24,57 0,22 -8,41 -24,57 -15,16 -35,24 -57,24 -22,0 -42,-8 -58,-24 -15,-16 -24,-35 -24,-57zm-899 334l125 0 0 428c0,76 -5,139 -13,191 -9,52 -26,93 -50,125 -25,32 -59,55 -102,69 -44,14 -100,21 -169,21l0 -127c50,0 89,-5 118,-16 28,-11 49,-28 63,-52 14,-24 22,-55 25,-92 2,-38 3,-83 3,-136l0 -411zm-19 -334c0,-23 9,-42 24,-57 17,-16 36,-24 58,-24 23,0 42,8 57,24 16,15 24,34 24,57 0,22 -8,41 -24,57 -15,16 -34,24 -57,24 -22,0 -41,-8 -58,-24 -15,-16 -24,-35 -24,-57zm-564 361c-26,0 -49,5 -71,17 -21,12 -40,28 -55,47 -16,19 -28,42 -36,67 -9,26 -13,52 -13,81 0,27 5,51 14,72 9,20 21,36 37,49 16,13 34,22 55,27 21,6 44,8 67,8 21,0 43,-2 64,-6 21,-5 39,-13 56,-24 16,-12 29,-28 39,-47 10,-19 16,-43 16,-72 0,-34 -5,-64 -15,-91 -9,-26 -22,-49 -38,-69 -16,-19 -34,-34 -55,-44 -21,-10 -43,-15 -65,-15zm-290 225c0,-41 6,-82 20,-124 13,-41 32,-79 58,-112 26,-34 57,-61 93,-82 36,-21 77,-32 123,-32 40,0 77,8 111,24 34,15 64,38 91,69 26,30 46,67 61,109 15,43 22,92 22,148 0,34 -5,67 -16,98 -11,32 -28,61 -52,86 -24,25 -55,46 -92,62 -37,15 -82,23 -134,23 -43,0 -82,-5 -116,-16 -35,-11 -65,-27 -90,-50 -25,-22 -45,-50 -58,-84 -14,-34 -21,-73 -21,-119zm-107 -832l0 1094 -126 0 0 -1094 126 0zm-1235 1053c0,39 6,76 19,109 13,33 34,62 64,86 31,24 70,42 120,56 50,13 111,19 185,19 52,0 103,-3 152,-11 49,-8 92,-19 129,-33 37,-14 67,-32 89,-53 22,-21 33,-44 33,-71 0,-23 -8,-43 -23,-59 -16,-16 -45,-35 -88,-56 -30,-16 -59,-32 -85,-48 -26,-16 -48,-34 -67,-54 -19,-20 -34,-42 -45,-67 -12,-25 -18,-55 -18,-89 0,-39 7,-78 22,-117 13,-40 34,-76 62,-108 28,-32 63,-59 105,-78 42,-20 92,-30 149,-30 34,0 64,3 90,11 26,8 41,13 45,15l0 128c-21,-5 -43,-11 -67,-15 -24,-4 -48,-6 -71,-6 -34,0 -64,5 -90,16 -26,11 -47,25 -64,42 -17,18 -30,37 -38,59 -9,21 -13,42 -13,64 0,20 4,38 11,53 8,14 18,28 31,40 14,12 29,24 46,34 18,10 37,21 57,32 35,20 64,38 88,54 23,16 42,32 56,47 13,16 23,31 29,47 7,16 10,33 10,51 0,43 -10,85 -30,125 -19,40 -50,75 -93,106 -43,30 -98,55 -166,74 -68,19 -150,28 -246,28 -97,0 -177,-9 -243,-28 -65,-19 -118,-45 -157,-79 -40,-33 -69,-72 -86,-118 -18,-45 -26,-95 -26,-149l0 -229 124 0 0 202zm9360 -2487l0 -498 231 0 0 702 -430 0 -2 0 -1 0 -1 0 -2 0 -2 0 -69 0c-40,0 -77,-5 -110,-14 -33,-9 -62,-23 -86,-44 -24,-20 -43,-47 -56,-81 -14,-35 -21,-77 -21,-127l0 -993 230 0 0 961c0,41 7,67 21,78 15,11 36,16 63,16l28 0 1 0 2 0 1 0 1 0 2 0 2 0 198 0zm-29 494c0,-33 12,-63 37,-87 25,-25 54,-37 89,-37 33,0 63,12 87,37 25,24 37,54 37,87 0,34 -12,64 -37,88 -24,25 -54,37 -87,37 -34,0 -64,-12 -89,-37 -25,-24 -37,-54 -37,-88zm-2504 -494c26,0 47,0 64,-1 17,-1 31,-5 42,-11 10,-5 18,-14 23,-25 5,-11 7,-27 7,-47l0 -337 226 0 0 300c0,38 10,67 30,89 21,22 53,32 96,32 34,0 63,-5 88,-15 24,-10 36,-33 36,-69l0 -337 229 0 0 300c0,81 35,121 104,121l110 0 0 -498 229 0 0 702 -270 0c-62,0 -109,-8 -142,-22 -31,-15 -58,-38 -80,-70 -18,23 -37,40 -57,52 -20,12 -41,21 -62,27 -21,6 -42,10 -62,11 -21,1 -40,2 -59,2 -60,0 -110,-10 -151,-30 -40,-19 -70,-40 -87,-62 -31,42 -72,67 -123,77 -51,10 -116,15 -194,15l-67 0 -1 0 -1 0 -2 0 -2 0 -255 0 -1 0 -1 0 -2 0 -2 0 -254 0 -1 0 -1 0 -1 0 0 0 -1 0 0 0 -1 0 0 0 -2 -1 0 0 -1 0 0 0 -1 0 -1 0 0 0 -1 0 0 0 -1 0 0 0 -1 0 0 0 -3 0 0 0 -1 0 -6 -1 0 0 -3 0 0 0 -1 -1 -1 0 0 0 0 0 -1 0 0 0 -1 0c-10,-2 -22,-5 -36,-8 -27,-7 -50,-23 -70,-46 -2,79 -11,146 -28,200 -18,53 -44,97 -80,130 -35,33 -80,57 -133,70 -54,14 -119,22 -195,23l0 -215c48,-1 86,-7 115,-17 28,-10 50,-25 64,-45 14,-19 23,-45 27,-76 4,-31 6,-69 6,-112l0 -526 227 0 0 300c0,46 14,78 42,95 27,17 55,26 85,26l1 0 0 0 1 0 0 0 1 0 1 0 2 0 1 0 254 0 1 0 1 0 1 0 2 0 1 0 254 0 2 0 1 0 1 0 1 0 2 0 69 0zm-1531 -803c0,-34 12,-63 37,-88 25,-25 55,-38 89,-38 34,0 63,13 88,37 24,25 37,55 37,89 0,34 -13,63 -37,88 -25,25 -54,37 -88,37 -34,0 -63,-12 -88,-37 -25,-25 -38,-54 -38,-88zm17 803l0 -498 231 0 0 702 -432 0 -1 0 -1 0 -2 0 -2 0 -255 0 -1 0 -1 0 -2 0 -2 0 -255 0 -1 0 -1 0 -2 0 0 0 -1 0 -1 0 -1 0c-32,-1 -59,-2 -82,-6 -24,-3 -45,-8 -63,-16 -17,-7 -34,-16 -49,-27 -16,-11 -32,-24 -47,-39 -34,39 -71,63 -111,73 -39,10 -82,15 -128,15l-307 0 0 -204 349 0c28,0 49,-4 63,-12 14,-9 21,-20 21,-32 0,-13 -6,-29 -17,-47 -11,-19 -32,-50 -63,-94l-160 -237 209 -135 212 359c23,37 42,69 58,95 17,26 32,46 45,61 14,16 26,27 38,33 11,6 23,9 34,9l1 0 1 0 0 0 1 0 1 0 0 0 1 0 1 0 254 0 1 0 2 0 1 0 1 0 2 0 254 0 1 0 1 0 2 0 1 0 2 0 200 0zm-2143 500c0,-34 12,-63 37,-88 24,-25 54,-37 88,-37 33,0 63,12 87,37 25,25 37,54 37,88 0,34 -12,63 -37,88 -24,24 -54,37 -87,37 -34,0 -64,-13 -88,-37 -25,-25 -37,-54 -37,-88zm286 0c0,-34 13,-63 37,-88 25,-25 55,-37 89,-37 34,0 63,12 88,37 25,25 37,54 37,88 0,34 -12,63 -37,88 -25,24 -54,37 -88,37 -34,0 -63,-13 -88,-37 -25,-25 -38,-54 -38,-88zm-1541 255c0,-33 12,-63 37,-87 24,-25 54,-37 88,-37 34,0 63,12 88,37 25,24 37,54 37,87 0,34 -12,64 -37,88 -25,25 -54,37 -88,37 -34,0 -63,-12 -88,-37 -25,-24 -37,-54 -37,-88zm-144 -255c0,-34 12,-63 37,-88 24,-25 54,-37 88,-37 33,0 63,12 87,37 25,25 37,54 37,88 0,34 -12,63 -37,88 -24,24 -54,37 -87,37 -34,0 -64,-13 -88,-37 -25,-25 -37,-54 -37,-88zm286 0c0,-34 13,-63 37,-88 25,-25 55,-37 89,-37 34,0 63,12 88,37 25,25 37,54 37,88 0,34 -12,63 -37,88 -25,24 -54,37 -88,37 -34,0 -63,-13 -88,-37 -25,-25 -38,-54 -38,-88z"/>
 </g>
</svg>
