<?xml version="1.0" encoding="UTF-8"?>
<!DOCTYPE svg PUBLIC "-//W3C//DTD SVG 1.1//EN" "http://www.w3.org/Graphics/SVG/1.1/DTD/svg11.dtd">
<!-- Creator: CorelDRAW X7 -->
<svg xmlns="http://www.w3.org/2000/svg" xml:space="preserve" width="100%" height="100%" version="1.1" style="shape-rendering:geometricPrecision; text-rendering:geometricPrecision; image-rendering:optimizeQuality; fill-rule:evenodd; clip-rule:evenodd"
viewBox="0 0 8128 2332"
 xmlns:xlink="http://www.w3.org/1999/xlink">
 <defs>
  <style type="text/css">
   <![CDATA[
    .fil0 {fill:#FCE9CA}
    .fil1 {fill:#D2AE6D;fill-rule:nonzero}
   ]]>
  </style>
 </defs>
 <g id="Layer_x0020_1">
  <metadata id="CorelCorpID_0Corel-Layer"/>
  <g id="_2524424598080">
   <polygon class="fil0" points="0,0 2709,0 5419,0 8128,0 8128,2332 5419,2332 2709,2332 0,2332 "/>
   <path class="fil1" d="M4696 2094l1 0c2,0 2,3 0,3l-1 0c-2,0 -2,-3 0,-3z"/>
   <path class="fil1" d="M4922 1082c1,-1 2,-2 3,-3 3,-2 7,2 4,4 -1,1 -2,2 -3,3 -2,3 -6,-1 -4,-4z"/>
   <path class="fil1" d="M1552 1919c2,1 4,2 6,3 3,2 0,7 -3,5 -2,-1 -4,-2 -6,-3 -3,-2 0,-6 3,-5z"/>
   <path class="fil1" d="M4558 805c3,0 3,6 0,6 -4,0 -4,-6 0,-6z"/>
   <path class="fil1" d="M4537 613c4,0 4,6 0,6 -3,0 -3,-6 0,-6z"/>
   <path class="fil1" d="M4380 785c4,0 4,5 0,5 -3,0 -3,-5 0,-5z"/>
   <path class="fil1" d="M5252 1021c-1,-1 -2,-2 -3,-3 -1,-1 1,-3 2,-2 1,1 2,2 3,3 1,2 -1,4 -2,2z"/>
   <path class="fil1" d="M5250 1276c4,0 4,6 0,6 -3,0 -3,-6 0,-6z"/>
   <path class="fil1" d="M5256 1343c4,0 4,6 0,6 -4,0 -4,-6 0,-6z"/>
   <path class="fil1" d="M4919 2025c1,-1 2,-2 3,-3 3,-2 7,2 4,4 -1,1 -2,2 -3,3 -2,3 -6,-1 -4,-4z"/>
   <path class="fil1" d="M5361 2143l0 -2c0,-4 6,-4 6,0l0 2c0,4 -6,4 -6,0z"/>
   <path class="fil1" d="M5239 1602c3,0 3,6 0,6 -4,0 -4,-6 0,-6z"/>
   <path class="fil1" d="M4790 1221l3 0c4,0 4,6 0,6l-3 0c-3,0 -3,-6 0,-6z"/>
   <path class="fil1" d="M5074 944c-1,-1 -2,-2 -3,-3 -3,-3 1,-7 4,-4 1,1 2,2 3,3 2,2 -2,6 -4,4z"/>
   <path class="fil1" d="M5134 1052c3,0 3,6 0,6 -4,0 -4,-6 0,-6z"/>
   <path class="fil1" d="M5131 558l3 0c3,0 3,5 0,5l-3 0c-4,0 -4,-5 0,-5z"/>
   <path class="fil1" d="M5189 776l3 0c4,0 4,6 0,6l-3 0c-4,0 -4,-6 0,-6z"/>
   <path class="fil1" d="M4805 927c4,0 4,6 0,6 -4,0 -4,-6 0,-6z"/>
   <path class="fil1" d="M4613 1058c4,0 4,6 0,6 -4,0 -4,-6 0,-6z"/>
   <path class="fil1" d="M6774 1939c6,0 6,9 0,9 -5,0 -5,-9 0,-9z"/>
   <path class="fil1" d="M389 1705l0 -2c0,-7 11,-7 11,0l0 2c0,7 -11,7 -11,0l0 -2c0,-7 11,-7 11,0l0 2c0,7 -11,7 -11,0z"/>
   <path class="fil1" d="M1157 2185c7,0 7,12 0,12 -8,0 -8,-12 0,-12z"/>
   <path class="fil1" d="M3621 2191c7,0 7,11 0,11 -7,0 -7,-11 0,-11z"/>
   <path class="fil1" d="M4610 505c4,0 4,6 0,6 -4,0 -4,-6 0,-6z"/>
   <path class="fil1" d="M4756 517c3,0 3,6 0,6 -4,0 -4,-6 0,-6z"/>
   <path class="fil1" d="M4875 441c4,0 4,6 0,6 -4,0 -4,-6 0,-6z"/>
   <path class="fil1" d="M4796 313c4,0 4,6 0,6 -3,0 -3,-6 0,-6z"/>
   <path class="fil1" d="M4665 383c4,0 4,6 0,6 -3,0 -3,-6 0,-6z"/>
   <path class="fil1" d="M4706 462c4,0 4,5 0,5 -4,0 -4,-5 0,-5z"/>
   <path class="fil1" d="M4665 526c4,0 4,5 0,5 -3,0 -3,-5 0,-5z"/>
   <path class="fil1" d="M4401 558c3,0 3,5 0,5 -4,0 -4,-5 0,-5z"/>
   <path class="fil1" d="M6237 1084c3,0 3,6 0,6 -4,0 -4,-6 0,-6z"/>
   <path class="fil1" d="M4438 997c4,0 4,6 0,6 -3,0 -3,-6 0,-6z"/>
   <path class="fil1" d="M6893 1330c4,0 4,6 0,6 -3,0 -3,-6 0,-6z"/>
   <path class="fil1" d="M4462 1102c3,0 3,6 0,6 -4,0 -4,-6 0,-6z"/>
   <path class="fil1" d="M4523 1210c3,0 3,5 0,5 -4,0 -4,-5 0,-5z"/>
   <path class="fil1" d="M5081 1978l3 0c4,0 4,5 0,5l-3 0c-3,0 -3,-5 0,-5z"/>
   <path class="fil1" d="M4767 1989c4,0 4,6 0,6 -3,0 -3,-6 0,-6z"/>
   <path class="fil1" d="M4788 2072c1,-1 2,-2 3,-3 3,-3 7,1 4,4 -1,1 -2,2 -3,3 -2,2 -6,-2 -4,-4z"/>
   <path class="fil1" d="M4468 2039c3,0 3,5 0,5 -4,0 -4,-5 0,-5z"/>
   <path class="fil1" d="M4619 1992c3,0 3,6 0,6 -4,0 -4,-6 0,-6z"/>
   <path class="fil1" d="M4995 1831l0 -3c0,-3 5,-3 5,0l0 3c0,4 -5,4 -5,0z"/>
   <path class="fil1" d="M5209 502c4,0 4,6 0,6 -3,0 -3,-6 0,-6z"/>
   <path class="fil1" d="M6573 215l0 -3c0,-4 6,-4 6,0l0 3c0,3 -6,3 -6,0z"/>
   <path class="fil1" d="M3899 234c-1,-1 -2,-2 -3,-3 -3,-2 1,-6 4,-4 1,1 2,2 3,3 2,3 -2,7 -4,4z"/>
   <path class="fil1" d="M5145 491c4,0 4,5 0,5 -3,0 -3,-5 0,-5z"/>
   <path class="fil1" d="M5067 499l0 -2c0,-4 6,-4 6,0l0 2c0,4 -6,4 -6,0z"/>
   <path class="fil1" d="M5938 2170c1,1 2,2 3,3 3,3 -1,7 -4,4 -1,-1 -2,-2 -3,-3 -2,-2 2,-6 4,-4z"/>
   <path class="fil1" d="M5166 607l3 0c3,0 3,6 0,6l-3 0c-4,0 -4,-6 0,-6z"/>
   <path class="fil1" d="M5218 558c4,0 4,5 0,5 -3,0 -3,-5 0,-5z"/>
   <path class="fil1" d="M5230 703c3,0 4,6 0,6 -4,0 -4,-6 0,-6z"/>
   <path class="fil1" d="M5291 796c4,0 4,6 0,6 -4,0 -4,-6 0,-6z"/>
   <path class="fil1" d="M5221 892c4,0 4,6 0,6 -4,0 -4,-6 0,-6z"/>
   <path class="fil1" d="M4858 790c-1,-1 -2,-2 -3,-3 -2,-3 2,-7 4,-4 1,1 2,2 3,3 3,2 -1,6 -4,4z"/>
   <path class="fil1" d="M5670 751c4,0 4,6 0,6 -3,0 -3,-6 0,-6z"/>
   <path class="fil1" d="M4675 809c1,-1 2,-2 3,-3 3,-3 7,1 4,4 -1,1 -2,2 -3,3 -3,2 -7,-2 -4,-4z"/>
   <path class="fil1" d="M4671 895c4,0 4,6 0,6 -3,0 -3,-6 0,-6z"/>
   <path class="fil1" d="M5224 1698c4,0 4,6 0,6 -4,0 -4,-6 0,-6z"/>
   <path class="fil1" d="M4369 1205c5,0 5,9 0,9 -6,0 -6,-9 0,-9z"/>
   <path class="fil1" d="M4673 1890c6,0 6,8 0,8 -5,0 -5,-8 0,-8z"/>
   <path class="fil1" d="M7370 634l3 0c3,0 5,2 5,4 -1,3 -2,5 -5,5l-3 0c-2,0 -4,-2 -4,-5 0,-2 2,-4 4,-4z"/>
   <path class="fil1" d="M5358 999l3 0c2,0 4,2 4,4 0,2 -2,4 -4,4l-3 0c-2,0 -4,-2 -4,-4 0,-2 2,-4 4,-4z"/>
   <path class="fil1" d="M5381 2005c6,0 6,9 0,9 -5,0 -5,-9 0,-9z"/>
   <path class="fil1" d="M5265 2011c5,0 5,9 0,9 -6,0 -6,-9 0,-9z"/>
   <path class="fil1" d="M5238 1864c0,-1 -1,-2 -2,-3 -2,-1 -2,-4 0,-6 1,-1 4,-1 6,0 1,1 2,2 2,3 2,2 2,5 0,6 -1,2 -4,2 -6,0z"/>
   <path class="fil1" d="M4933 1769c6,0 6,8 0,8 -5,0 -5,-8 0,-8z"/>
   <path class="fil1" d="M5262 1764c5,0 5,8 0,8 -6,0 -6,-8 0,-8z"/>
   <path class="fil1" d="M5362 1692l0 -2c0,-3 2,-5 5,-5 2,0 4,2 4,5l0 2c0,3 -2,5 -4,5 -3,0 -5,-2 -5,-5z"/>
   <path class="fil1" d="M6015 1956c6,0 6,8 0,8 -5,0 -5,-8 0,-8z"/>
   <path class="fil1" d="M7931 1898c6,0 6,9 0,9 -5,0 -5,-9 0,-9z"/>
   <path class="fil1" d="M7316 273l0 -3c0,-2 2,-4 4,-4 2,0 4,2 4,4l0 3c0,2 -2,4 -4,4 -2,0 -4,-2 -4,-4z"/>
   <path class="fil1" d="M4552 457c5,0 5,9 0,9 -6,0 -6,-9 0,-9z"/>
   <path class="fil1" d="M6643 2234c5,0 5,9 0,9 -5,0 -5,-9 0,-9z"/>
   <path class="fil1" d="M4438 679c6,0 6,8 0,8 -5,0 -5,-8 0,-8z"/>
   <path class="fil1" d="M5557 766c1,-1 2,-2 3,-3 1,-2 4,-2 6,0 1,2 1,4 0,6 -1,1 -2,2 -3,3 -2,1 -5,1 -6,0 -2,-2 -2,-5 0,-6z"/>
   <path class="fil1" d="M7825 1492c5,0 5,8 0,8 -6,0 -6,-8 0,-8z"/>
   <path class="fil1" d="M4300 491c5,0 5,8 0,8 -5,0 -6,-8 0,-8z"/>
   <path class="fil1" d="M1395 1479c5,0 5,9 0,9 -6,0 -6,-9 0,-9z"/>
   <path class="fil1" d="M7960 1176c6,0 6,8 0,8 -5,0 -5,-8 0,-8z"/>
   <path class="fil1" d="M952 101c7,0 7,11 0,11 -8,0 -8,-11 0,-11z"/>
   <path class="fil1" d="M5365 1419c0,3 4,5 5,2 0,-1 1,-2 1,-2 0,0 0,0 0,0 0,2 -2,4 -4,4 -3,0 -4,-2 -5,-4 0,-3 3,-5 6,-5 3,0 5,2 5,5 0,2 -2,4 -4,4 -2,0 -4,-2 -4,-4z"/>
   <path class="fil1" d="M5067 338c5,0 5,9 0,9 -6,0 -6,-9 0,-9z"/>
   <path class="fil1" d="M5248 134c-1,-1 -2,-2 -3,-3 -2,-1 -2,-4 0,-6 1,-1 4,-1 6,0 1,1 2,2 3,3 1,2 1,5 0,6 -2,2 -5,2 -6,0z"/>
   <path class="fil1" d="M5241 361c6,0 6,9 0,9 -5,0 -5,-9 0,-9z"/>
   <path class="fil1" d="M5361 353c5,0 5,8 0,8 -6,0 -6,-8 0,-8z"/>
   <path class="fil1" d="M5340 437c6,0 6,9 0,9 -5,0 -5,-9 0,-9z"/>
   <path class="fil1" d="M5580 146c6,0 6,8 0,8 -5,0 -5,-8 0,-8z"/>
   <path class="fil1" d="M578 113c6,0 6,8 0,8 -5,0 -5,-8 0,-8z"/>
   <path class="fil1" d="M5032 79c1,0 2,1 3,2 2,2 2,5 0,6 -1,2 -4,2 -6,0 -1,-1 -2,-2 -3,-2 -1,-2 -1,-5 0,-6 2,-2 5,-2 6,0z"/>
   <path class="fil1" d="M4433 271c5,0 5,9 0,9 -6,0 -6,-9 0,-9z"/>
   <path class="fil1" d="M4784 117c6,0 6,9 0,9 -5,0 -5,-9 0,-9z"/>
   <path class="fil1" d="M1181 651c6,0 6,8 0,8 -5,0 -5,-8 0,-8z"/>
   <path class="fil1" d="M4823 641c5,0 5,8 0,8 -6,0 -6,-8 0,-8z"/>
   <path class="fil1" d="M871 597c1,1 2,2 3,3 1,1 1,4 0,6 -2,1 -5,1 -6,0l-3 -3c-2,-2 -2,-5 0,-6 1,-2 4,-2 6,0z"/>
   <path class="fil1" d="M4796 1077c6,0 6,9 0,9 -5,0 -5,-9 0,-9z"/>
   <path class="fil1" d="M6787 1250c5,0 5,8 0,8 -6,0 -6,-8 0,-8z"/>
   <path class="fil1" d="M4881 2098c5,0 5,9 0,9 -6,0 -6,-9 0,-9z"/>
   <path class="fil1" d="M4834 1994c6,0 6,8 0,8 -5,0 -5,-8 0,-8z"/>
   <path class="fil1" d="M5925 786c5,0 5,8 0,8 -6,0 -6,-8 0,-8z"/>
   <path class="fil1" d="M4686 1182c5,0 5,8 0,8 -6,0 -6,-8 0,-8z"/>
   <path class="fil1" d="M5750 331l2 0c3,0 5,2 5,4 0,2 -2,4 -5,4l-2 0c-3,0 -5,-2 -5,-4 0,-2 2,-4 5,-4z"/>
   <path class="fil1" d="M6927 915l0 -3c0,-5 5,-10 10,-10 6,0 10,4 10,10l0 3c0,5 -4,10 -10,10 -5,-1 -10,-5 -10,-10z"/>
   <path class="fil1" d="M4450 2176c13,0 13,19 0,19 -12,0 -12,-19 0,-19z"/>
   <path class="fil1" d="M5265 465l3 0c3,0 3,5 0,5l-3 0c-4,0 -4,-5 0,-5z"/>
   <path class="fil1" d="M4406 1032c4,0 4,6 0,6 -3,0 -3,-6 0,-6z"/>
   <path class="fil1" d="M1522 585c-1,-1 -2,-2 -3,-3 -2,-2 2,-6 4,-4 1,1 2,2 3,3 3,3 -1,7 -4,4z"/>
   <path class="fil1" d="M5192 1815l3 0c4,0 4,5 0,5l-3 0c-4,0 -4,-5 0,-5z"/>
   <path class="fil1" d="M5177 1847c4,0 4,5 0,5 -3,0 -3,-5 0,-5z"/>
   <path class="fil1" d="M7250 1164l0 -3c0,-2 2,-5 4,-4 3,0 5,1 5,4l0 3c0,2 -2,4 -5,4 -2,0 -4,-2 -4,-4z"/>
   <path class="fil1" d="M6569 1734c6,0 6,8 0,8 -5,0 -5,-8 0,-8z"/>
   <path class="fil1" d="M6980 462c5,0 5,8 0,8 -6,0 -6,-8 0,-8z"/>
   <path class="fil1" d="M4476 1623c6,0 6,9 0,9 -5,0 -5,-9 0,-9z"/>
   <path class="fil1" d="M3946 360c6,0 6,9 0,9 -5,0 -5,-9 0,-9z"/>
   <path class="fil1" d="M7714 1061l0 -1c0,-6 8,-6 8,0l0 1c0,6 -8,6 -8,0l0 -1c0,-6 8,-6 8,0l0 1c0,6 -8,6 -8,0z"/>
   <path class="fil1" d="M3894 810c7,0 7,12 0,12 -8,0 -8,-12 0,-12z"/>
   <path class="fil1" d="M4074 809c7,0 7,11 0,11 -7,0 -7,-11 0,-11z"/>
   <path class="fil1" d="M7930 276c7,0 7,11 0,11 -7,0 -7,-11 0,-11z"/>
   <path class="fil1" d="M7324 1665c7,0 7,12 0,12 -7,0 -7,-12 0,-12z"/>
   <path class="fil1" d="M6175 1435c1,1 2,1 3,2 2,3 2,6 0,8 -2,3 -6,3 -8,0 -1,-1 -2,-2 -3,-2 -2,-3 -2,-6 0,-8 2,-3 6,-3 8,0z"/>
   <path class="fil1" d="M4443 117l3 0c3,0 6,3 6,6 0,3 -3,6 -6,6l-3 0c-3,0 -5,-3 -5,-6 0,-3 2,-6 5,-6z"/>
   <path class="fil1" d="M2743 302l2 0c1,0 1,-3 0,-3l-2 0c-2,0 -2,3 0,3z"/>
   <path class="fil1" d="M4036 598c4,0 4,-6 0,-6 -4,0 -4,6 0,6z"/>
   <path class="fil1" d="M3577 945c3,0 3,-6 0,-6 -4,0 -4,6 0,6z"/>
   <path class="fil1" d="M2114 563c4,0 4,-5 0,-5 -3,0 -3,5 0,5z"/>
   <path class="fil1" d="M2970 1314c1,1 1,1 2,2 3,3 7,-1 4,-4 -1,-1 -1,-1 -2,-2 -3,-3 -7,1 -4,4z"/>
   <path class="fil1" d="M3545 1333c1,-3 2,-6 3,-9 1,-3 -4,-5 -5,-1 -1,3 -2,5 -3,8 -1,4 4,5 5,2z"/>
   <path class="fil1" d="M2993 1695c2,-1 4,-2 6,-3 3,-2 0,-7 -3,-5 -2,1 -4,2 -6,3 -3,2 0,7 3,5z"/>
   <path class="fil1" d="M1675 317c4,0 4,-6 0,-6 -3,0 -3,6 0,6z"/>
   <path class="fil1" d="M3635 1236c4,0 4,-6 0,-6 -4,0 -4,6 0,6z"/>
   <path class="fil1" d="M3533 1588c4,0 4,-6 0,-6 -4,0 -4,6 0,6z"/>
   <path class="fil1" d="M2957 751c2,0 2,-2 0,-2 -2,0 -2,2 0,2z"/>
   <path class="fil1" d="M1428 996l-6 5c-4,3 0,9 4,6l6 -4c4,-3 0,-9 -4,-7z"/>
   <path class="fil1" d="M3765 1167c1,1 2,2 3,3 1,1 3,-1 2,-2 -1,-1 -2,-2 -3,-3 -1,-1 -3,1 -2,2z"/>
   <path class="fil1" d="M4022 1159c2,0 2,-3 0,-3 -2,0 -2,3 0,3z"/>
   <path class="fil1" d="M4431 1225c1,1 2,2 3,3 1,1 3,-1 2,-2l-3 -3c-1,-1 -3,1 -2,2z"/>
   <path class="fil1" d="M4076 1558c-1,1 -2,2 -3,3 -1,1 1,3 2,2 1,-1 2,-2 3,-3 2,-1 0,-3 -2,-2z"/>
   <path class="fil1" d="M3839 1528c1,0 1,-3 0,-3 -2,0 -2,3 0,3z"/>
   <path class="fil1" d="M3299 1375c-1,1 -2,2 -3,2 -1,2 1,4 2,2 1,-1 2,-1 3,-2 2,-2 0,-4 -2,-2z"/>
   <path class="fil1" d="M3079 1115c2,0 2,-3 0,-3 -2,0 -2,3 0,3z"/>
   <path class="fil1" d="M2849 1019c2,0 2,-3 0,-3 -1,0 -1,3 0,3z"/>
   <path class="fil1" d="M2899 1124c2,0 2,-3 0,-3 -2,0 -2,3 0,3z"/>
   <path class="fil1" d="M3297 1119c4,0 4,-5 0,-5 -3,0 -3,5 0,5z"/>
   <path class="fil1" d="M3303 1053c4,0 4,-6 0,-6 -3,0 -3,6 0,6z"/>
   <path class="fil1" d="M3108 1117c4,0 4,-6 0,-6 -3,0 -3,6 0,6z"/>
   <path class="fil1" d="M2838 977c3,0 3,-6 0,-6 -4,0 -4,6 0,6z"/>
   <path class="fil1" d="M2983 852c4,0 4,-6 0,-6 -3,0 -3,6 0,6z"/>
   <path class="fil1" d="M3114 779c4,0 4,-6 0,-6 -4,0 -4,6 0,6z"/>
   <path class="fil1" d="M1741 539c3,0 3,-6 0,-6 -4,0 -4,6 0,6z"/>
   <path class="fil1" d="M2791 834l0 5c0,6 10,6 10,0l0 -5c0,-7 -10,-7 -10,0z"/>
   <path class="fil1" d="M2967 371c1,1 2,2 3,3 2,2 6,-2 4,-4 -1,-1 -2,-2 -3,-3 -3,-3 -7,1 -4,4z"/>
   <path class="fil1" d="M3408 252l0 3c0,4 6,4 6,0l0 -3c0,-3 -6,-3 -6,0z"/>
   <path class="fil1" d="M3475 764c4,0 4,-5 0,-5 -4,0 -4,5 0,5z"/>
   <path class="fil1" d="M3286 794c3,0 3,-6 0,-6 -4,0 -4,6 0,6z"/>
   <path class="fil1" d="M5266 1252l0 3c0,4 6,4 6,0l0 -3c0,-3 -6,-3 -6,0z"/>
   <path class="fil1" d="M2838 1175l3 0c3,0 3,-6 0,-6l-3 0c-4,0 -4,6 0,6z"/>
   <path class="fil1" d="M3121 1452c-1,1 -2,2 -3,3 -3,3 1,7 4,4 1,-1 2,-2 3,-3 2,-2 -2,-6 -4,-4z"/>
   <path class="fil1" d="M3181 1343c4,0 4,-5 0,-5 -4,0 -4,5 0,5z"/>
   <path class="fil1" d="M3466 1274c4,0 4,-6 0,-6 -3,0 -3,6 0,6z"/>
   <path class="fil1" d="M3539 1166c4,0 4,-6 0,-6 -4,0 -4,6 0,6z"/>
   <path class="fil1" d="M3478 1076l0 3c0,3 6,3 6,0l0 -3c0,-4 -6,-4 -6,0z"/>
   <path class="fil1" d="M3807 1067c3,0 3,-6 0,-6 -4,0 -4,6 0,6z"/>
   <path class="fil1" d="M3504 1856l3 0c4,0 4,-6 0,-6l-3 0c-4,0 -4,6 0,6z"/>
   <path class="fil1" d="M1871 749l4 0c6,0 6,-8 0,-8l-4 0c-6,0 -6,8 0,8z"/>
   <path class="fil1" d="M2539 1530l4 0c6,0 6,-8 0,-8l-4 0c-6,0 -6,8 0,8z"/>
   <path class="fil1" d="M2852 1469c4,0 4,-6 0,-6 -3,0 -3,6 0,6z"/>
   <path class="fil1" d="M3965 637l0 3c0,3 2,5 4,5 2,0 4,-2 4,-5l0 -3c0,-2 -2,-4 -4,-4 -2,0 -4,2 -4,4z"/>
   <path class="fil1" d="M841 2123c2,0 4,1 6,2 2,1 5,1 6,-1 1,-2 1,-5 -1,-6 -2,-1 -4,-2 -6,-3 -2,-1 -5,0 -6,2 -1,2 -1,4 1,6z"/>
   <path class="fil1" d="M5301 1070c6,0 6,-8 0,-8 -5,0 -5,8 0,8z"/>
   <path class="fil1" d="M3012 967c6,0 6,-9 0,-9 -5,0 -5,9 0,9z"/>
   <path class="fil1" d="M3437 591c6,0 6,-8 0,-8 -5,0 -5,8 0,8z"/>
   <path class="fil1" d="M6188 1496c5,0 5,-8 0,-8 -6,0 -6,8 0,8z"/>
   <path class="fil1" d="M6488 1211l0 2c0,7 11,7 11,0l0 -2c0,-7 -11,-7 -11,0l0 2c0,7 11,7 11,0l0 -2c0,-7 -11,-7 -11,0z"/>
   <path class="fil1" d="M3100 1602c7,0 7,-11 0,-11 -8,0 -8,11 0,11z"/>
   <path class="fil1" d="M2147 1054c7,0 7,-11 0,-11 -7,0 -7,11 0,11z"/>
   <path class="fil1" d="M654 308c7,0 7,-11 0,-11 -7,0 -7,11 0,11z"/>
   <path class="fil1" d="M5818 1102c-1,1 -1,2 -2,3 -3,2 -3,6 0,8 2,2 5,3 8,0 0,-1 1,-2 2,-3 3,-2 3,-6 0,-8 -2,-2 -5,-2 -8,0z"/>
   <path class="fil1" d="M2803 1879c3,0 3,-6 0,-6 -4,0 -4,6 0,6z"/>
   <path class="fil1" d="M2922 1955c4,0 4,-6 0,-6 -4,0 -4,6 0,6z"/>
   <path class="fil1" d="M2844 2083c3,0 3,-6 0,-6 -4,0 -4,6 0,6z"/>
   <path class="fil1" d="M4000 1916c3,0 3,-6 0,-6 -4,0 -4,6 0,6z"/>
   <path class="fil1" d="M4261 1373l2 0c4,0 4,-6 0,-6l-2 0c-4,0 -4,6 0,6z"/>
   <path class="fil1" d="M4287 1108c3,0 3,-6 0,-6 -4,0 -4,6 0,6z"/>
   <path class="fil1" d="M4359 872c4,0 4,-6 0,-6 -3,0 -3,6 0,6z"/>
   <path class="fil1" d="M4336 732c4,0 4,-5 0,-5 -3,0 -3,5 0,5z"/>
   <path class="fil1" d="M3129 418l3 0c3,0 3,-5 0,-5l-3 0c-4,0 -4,5 0,5z"/>
   <path class="fil1" d="M4013 457c3,0 3,-6 0,-6 -4,0 -4,6 0,6z"/>
   <path class="fil1" d="M2940 254c1,1 2,2 3,3 3,2 7,-2 4,-4 -1,-1 -2,-2 -3,-3 -2,-3 -6,1 -4,4z"/>
   <path class="fil1" d="M3004 583c7,0 7,-10 0,-10 -6,0 -6,10 0,10z"/>
   <path class="fil1" d="M3015 476c4,0 4,-5 0,-5 -3,0 -3,5 0,5z"/>
   <path class="fil1" d="M3434 508l0 3c0,4 6,4 6,0l0 -3c0,-3 -6,-3 -6,0z"/>
   <path class="fil1" d="M3548 567c3,0 3,-6 0,-6 -4,0 -4,6 0,6z"/>
   <path class="fil1" d="M3556 1710c4,0 4,-6 0,-6 -3,0 -3,6 0,6z"/>
   <path class="fil1" d="M3466 1725c4,0 4,-6 0,-6 -3,0 -3,6 0,6z"/>
   <path class="fil1" d="M2570 1955c6,0 6,-9 0,-9 -5,0 -5,9 0,9z"/>
   <path class="fil1" d="M3210 1972l0 3c0,4 6,4 6,0l0 -3c0,-4 -6,-4 -6,0z"/>
   <path class="fil1" d="M2445 2019c-1,2 -3,3 -4,5 -4,4 2,10 6,6 2,-2 3,-3 5,-5 4,-4 -3,-10 -7,-6z"/>
   <path class="fil1" d="M2471 1973c6,0 6,-9 0,-9 -6,0 -6,9 0,9z"/>
   <path class="fil1" d="M3114 1896l0 3c0,4 6,4 6,0l0 -3c0,-3 -6,-3 -6,0z"/>
   <path class="fil1" d="M3615 1830c1,-1 2,-2 3,-3 2,-2 -2,-6 -4,-4 -1,1 -2,2 -3,3 -3,3 1,7 4,4z"/>
   <path class="fil1" d="M2503 1792l4 0c6,0 6,-9 0,-9l-4 0c-6,0 -6,9 0,9z"/>
   <path class="fil1" d="M2584 1869c6,0 6,-9 0,-9 -6,0 -6,9 0,9z"/>
   <path class="fil1" d="M3591 1957c4,0 4,-5 0,-5 -3,0 -3,5 0,5z"/>
   <path class="fil1" d="M3687 1902c4,0 4,-6 0,-6 -3,0 -3,6 0,6z"/>
   <path class="fil1" d="M1637 1656c5,0 5,-9 0,-9 -6,0 -6,9 0,9z"/>
   <path class="fil1" d="M3424 1854c4,0 4,-5 0,-5 -4,0 -4,5 0,5z"/>
   <path class="fil1" d="M3268 1504c4,0 4,-6 0,-6 -3,0 -3,6 0,6z"/>
   <path class="fil1" d="M2906 1606c-1,1 -2,2 -3,3 -3,3 1,7 4,4 1,-1 2,-2 3,-3 2,-2 -2,-6 -4,-4z"/>
   <path class="fil1" d="M2753 1710c4,0 4,-6 0,-6 -3,0 -3,6 0,6z"/>
   <path class="fil1" d="M4118 1719l0 3c0,3 6,3 6,0l0 -3c0,-4 -6,-4 -6,0z"/>
   <path class="fil1" d="M3967 1664c3,0 3,-6 0,-6 -4,0 -4,6 0,6z"/>
   <path class="fil1" d="M4231 1477c4,0 4,-5 0,-5 -3,0 -3,5 0,5z"/>
   <path class="fil1" d="M4045 1410l0 3c0,4 6,4 6,0l0 -3c0,-3 -6,-3 -6,0z"/>
   <path class="fil1" d="M3975 1236c4,0 4,-6 0,-6 -3,0 -3,6 0,6z"/>
   <path class="fil1" d="M4170 1093c4,0 4,-5 0,-5 -3,0 -3,5 0,5z"/>
   <path class="fil1" d="M696 792c-1,1 -2,2 -3,3 -2,2 2,6 4,4 1,-1 2,-2 3,-3 3,-3 -1,-7 -4,-4z"/>
   <path class="fil1" d="M3199 645c3,0 3,-6 0,-6 -4,0 -4,6 0,6z"/>
   <path class="fil1" d="M3271 698c4,0 4,-6 0,-6 -3,0 -3,6 0,6z"/>
   <path class="fil1" d="M5278 984c4,0 4,-5 0,-5 -4,0 -4,5 0,5z"/>
   <path class="fil1" d="M4421 948c3,0 3,-6 0,-6 -4,0 -4,6 0,6z"/>
   <path class="fil1" d="M4456 756c3,0 3,-6 0,-6 -4,0 -4,6 0,6z"/>
   <path class="fil1" d="M986 1926c1,-1 2,-2 3,-3 1,-2 1,-5 0,-6 -2,-2 -5,-2 -6,0 -1,1 -2,2 -3,3 -2,1 -2,4 0,6 1,1 4,1 6,0z"/>
   <path class="fil1" d="M4157 252l3 0c2,0 4,-2 4,-5 0,-2 -2,-4 -4,-4l-3 0c-2,0 -4,2 -4,4 0,3 2,5 4,5z"/>
   <path class="fil1" d="M2873 923c5,0 5,-9 0,-9 -6,0 -6,9 0,9z"/>
   <path class="fil1" d="M3120 868c5,0 5,-9 0,-9 -6,0 -6,9 0,9z"/>
   <path class="fil1" d="M2998 1426l3 0c2,0 4,-2 4,-4 0,-2 -2,-4 -4,-4l-3 0c-2,0 -5,2 -4,4 0,2 1,4 4,4z"/>
   <path class="fil1" d="M3405 1397l3 0c2,0 4,-2 4,-4 0,-2 -2,-4 -4,-4l-3 0c-2,0 -4,2 -4,4 0,2 2,4 4,4z"/>
   <path class="fil1" d="M1598 1355c-1,1 -2,2 -3,3 -2,1 -2,4 0,6 2,1 4,1 6,0 1,-1 2,-2 3,-3 2,-2 2,-5 0,-6 -2,-2 -4,-2 -6,0z"/>
   <path class="fil1" d="M2068 779l0 3c0,2 2,4 4,4 2,0 4,-2 4,-4l0 -3c0,-2 -2,-4 -4,-4 -2,0 -4,2 -4,4z"/>
   <path class="fil1" d="M250 446c5,0 5,-9 0,-9 -6,0 -6,9 0,9z"/>
   <path class="fil1" d="M4048 1784c6,0 6,-8 0,-8 -5,0 -5,8 0,8z"/>
   <path class="fil1" d="M3725 2011c6,0 6,-8 0,-8 -5,0 -5,8 0,8z"/>
   <path class="fil1" d="M3530 2072l3 0c2,0 4,-2 4,-4 0,-2 -1,-4 -4,-4l-3 0c-2,0 -4,2 -4,4 0,2 2,4 4,4z"/>
   <path class="fil1" d="M3504 1979c5,0 5,-8 0,-8 -5,0 -5,8 0,8z"/>
   <path class="fil1" d="M3455 1953c5,0 5,-8 0,-8 -6,0 -6,8 0,8z"/>
   <path class="fil1" d="M1733 339c6,0 6,-9 0,-9 -5,0 -5,9 0,9z"/>
   <path class="fil1" d="M3428 391c6,0 6,-9 0,-9 -5,0 -5,9 0,9z"/>
   <path class="fil1" d="M3312 385c5,0 5,-9 0,-9 -5,0 -5,9 0,9z"/>
   <path class="fil1" d="M1345 1147c1,-1 2,-2 3,-3 2,-1 2,-4 0,-6 -1,-1 -4,-1 -6,0 -1,1 -2,2 -3,3 -1,2 -1,5 0,6 2,2 5,2 6,0z"/>
   <path class="fil1" d="M3775 158c-1,1 -2,2 -3,3 -2,2 -2,4 0,6 2,2 4,2 6,0 1,-1 2,-2 3,-3 1,-2 1,-4 0,-6 -2,-2 -5,-2 -6,0z"/>
   <path class="fil1" d="M2380 310c5,0 5,-8 0,-8 -6,0 -6,8 0,8z"/>
   <path class="fil1" d="M2252 905c6,0 6,-8 0,-8 -5,0 -5,8 0,8z"/>
   <path class="fil1" d="M2360 95l0 3c0,2 2,4 4,4 3,0 5,-2 5,-4l0 -3c0,-2 -2,-4 -5,-4 -2,0 -4,2 -4,4z"/>
   <path class="fil1" d="M660 1894c6,0 6,-8 0,-8 -5,0 -5,8 0,8z"/>
   <path class="fil1" d="M2396 1164c5,0 5,-9 0,-9 -6,0 -6,9 0,9z"/>
   <path class="fil1" d="M261 2162c-1,1 -2,2 -3,3 -2,2 -2,4 0,6 2,2 4,2 6,0 1,-1 2,-2 3,-3 2,-2 2,-4 0,-6 -2,-2 -4,-2 -6,0z"/>
   <path class="fil1" d="M2963 1828c5,0 5,-9 0,-9 -6,0 -6,9 0,9z"/>
   <path class="fil1" d="M3001 1915c5,0 5,-8 0,-8 -6,0 -6,8 0,8z"/>
   <path class="fil1" d="M2630 1094l0 3c0,2 2,4 4,4 2,0 4,-2 4,-4l0 -3c0,-2 -2,-4 -4,-4 -2,0 -4,2 -4,4z"/>
   <path class="fil1" d="M3897 1799c5,0 5,-9 0,-9 -6,0 -6,9 0,9z"/>
   <path class="fil1" d="M4051 1709c6,0 6,-9 0,-9 -5,0 -5,9 0,9z"/>
   <path class="fil1" d="M7893 697l0 3c0,3 3,6 6,6 3,0 5,-2 5,-6l0 -3c0,-2 -2,-5 -5,-5 -3,0 -6,2 -6,5z"/>
   <path class="fil1" d="M2076 228c7,0 7,-11 0,-11 -7,0 -7,11 0,11z"/>
   <path class="fil1" d="M6869 1625c7,0 7,-11 0,-11 -8,0 -8,11 0,11z"/>
   <path class="fil1" d="M2523 819c1,1 2,2 3,3 2,2 6,2 8,0 2,-2 2,-6 0,-8 -1,-1 -2,-2 -3,-3 -2,-2 -6,-2 -8,0 -2,2 -2,6 0,8z"/>
   <path class="fil1" d="M5784 1626c2,-1 4,-2 6,-3 2,-1 3,-5 2,-7 -2,-3 -5,-4 -8,-2 -2,1 -4,1 -6,2 -3,2 -4,6 -2,8 2,3 5,4 8,2z"/>
   <path class="fil1" d="M352 800l0 3c0,2 2,4 5,4 2,0 4,-2 4,-4l0 -3c0,-3 -2,-5 -4,-5 -3,1 -5,2 -5,5z"/>
   <path class="fil1" d="M1871 1016c1,-1 2,-2 3,-3 1,-2 1,-4 0,-6 -2,-2 -5,-2 -6,0 -1,1 -2,2 -3,3 -2,2 -2,4 0,6 1,2 4,2 6,0z"/>
   <path class="fil1" d="M3412 977c0,-3 4,-5 6,-2 0,1 0,2 0,2 0,0 0,0 0,0 0,-2 -2,-4 -4,-4 -3,0 -4,2 -4,4 -1,3 2,5 5,5 3,0 6,-2 5,-5 0,-2 -1,-4 -4,-4 -2,0 -4,2 -4,4z"/>
   <path class="fil1" d="M1990 1271c5,0 5,-9 0,-9 -6,0 -6,9 0,9z"/>
   <path class="fil1" d="M3714 1147c5,0 5,-8 0,-8 -6,0 -6,8 0,8z"/>
   <path class="fil1" d="M3731 1036c5,0 5,-8 0,-8 -5,0 -5,8 0,8z"/>
   <path class="fil1" d="M3114 2058c6,0 6,-9 0,-9 -5,0 -5,9 0,9z"/>
   <path class="fil1" d="M1546 137c-2,1 -3,2 -4,3 -1,2 -1,4 0,6 2,2 5,2 6,0 1,-1 2,-2 4,-3 1,-1 1,-4 0,-6 -2,-1 -5,-1 -6,0z"/>
   <path class="fil1" d="M2285 2235c6,0 6,-8 0,-8 -5,0 -5,8 0,8z"/>
   <path class="fil1" d="M3408 2043c5,0 5,-8 0,-8 -5,0 -5,8 0,8z"/>
   <path class="fil1" d="M3270 1702c5,0 5,-9 0,-9 -5,0 -5,9 0,9z"/>
   <path class="fil1" d="M3280 1994c5,0 5,-9 0,-9 -5,0 -5,9 0,9z"/>
   <path class="fil1" d="M3430 2255c5,0 6,-8 0,-8 -5,0 -5,8 0,8z"/>
   <path class="fil1" d="M2963 2193c1,-1 2,-2 3,-3 1,-1 1,-4 0,-6 -2,-1 -5,-1 -6,0 -1,1 -2,2 -3,3 -2,2 -2,5 0,6 2,2 4,2 6,0z"/>
   <path class="fil1" d="M3988 2161c5,0 5,-8 0,-8 -6,0 -6,8 0,8z"/>
   <path class="fil1" d="M2777 1778c5,0 5,-8 0,-8 -6,0 -6,8 0,8z"/>
   <path class="fil1" d="M2870 1755c5,0 5,-8 0,-8 -6,0 -6,8 0,8z"/>
   <path class="fil1" d="M4016 1502c6,0 6,-8 0,-8 -5,0 -5,8 0,8z"/>
   <path class="fil1" d="M4398 1874c6,0 6,-9 0,-9 -5,0 -5,9 0,9z"/>
   <path class="fil1" d="M994 1376c1,-1 2,-2 3,-3 1,-2 1,-4 0,-6 -2,-2 -5,-2 -6,0l-3 3c-2,2 -2,4 0,6 1,2 4,2 6,0z"/>
   <path class="fil1" d="M2769 1426c6,0 6,-9 0,-9 -5,0 -5,9 0,9z"/>
   <path class="fil1" d="M5790 2239c5,0 5,-9 0,-9 -6,0 -6,9 0,9z"/>
   <path class="fil1" d="M545 586l0 3c0,2 2,5 4,4 3,0 5,-1 5,-4l0 -3c0,-2 -2,-4 -5,-4 -2,0 -4,2 -4,4z"/>
   <path class="fil1" d="M3548 308c1,-1 2,-2 3,-3 1,-2 1,-4 0,-6 -2,-2 -5,-2 -6,0 -1,1 -2,2 -3,3 -2,1 -2,4 0,6 1,1 4,1 6,0z"/>
   <path class="fil1" d="M3108 180c6,0 6,-8 0,-8 -5,0 -5,8 0,8z"/>
   <path class="fil1" d="M2881 402c6,0 6,-8 0,-8 -5,0 -5,8 0,8z"/>
   <path class="fil1" d="M4118 1866c5,0 5,-9 0,-9 -5,0 -5,9 0,9z"/>
   <path class="fil1" d="M3897 1441c5,0 5,-9 0,-9 -6,0 -6,9 0,9z"/>
   <path class="fil1" d="M6056 298c6,0 6,-8 0,-8 -5,0 -5,8 0,8z"/>
   <path class="fil1" d="M5933 1385c6,0 6,-8 0,-8 -5,0 -5,8 0,8z"/>
   <path class="fil1" d="M1329 2071c6,0 6,-9 0,-9 -5,0 -5,9 0,9z"/>
   <path class="fil1" d="M4103 1086c6,0 6,-9 0,-9 -5,0 -5,9 0,9z"/>
   <path class="fil1" d="M3112 1266c5,0 5,-9 0,-9 -6,0 -6,9 0,9z"/>
   <path class="fil1" d="M5284 1469l3 0c3,0 7,-3 7,-7 0,-4 -3,-7 -7,-7l-3 0c-4,0 -8,3 -7,7 0,4 3,7 7,7z"/>
   <path class="fil1" d="M2423 529c13,0 13,-19 0,-19 -12,0 -12,19 0,19z"/>
   <path class="fil1" d="M3652 1996c13,0 13,-19 0,-19 -12,0 -12,19 0,19z"/>
   <path class="fil1" d="M393 1180c13,0 13,-20 0,-20 -12,0 -12,20 0,20z"/>
   <path class="fil1" d="M2189 1533l3 0c5,0 10,-4 10,-9 0,-6 -4,-10 -10,-10l-3 0c-5,0 -10,4 -10,10 0,5 5,9 10,9z"/>
   <path class="fil1" d="M4922 1430l0 3c0,5 5,10 10,10 5,0 10,-5 10,-10l0 -3c0,-5 -5,-10 -10,-10 -5,0 -10,4 -10,10z"/>
   <path class="fil1" d="M4206 2136l3 0c4,0 4,-6 0,-6l-3 0c-3,0 -3,6 0,6z"/>
   <path class="fil1" d="M3527 1416c4,0 4,-5 0,-5 -3,0 -3,5 0,5z"/>
   <path class="fil1" d="M3595 1481c-1,1 -2,2 -3,3 -2,3 2,7 4,4 1,-1 2,-2 3,-3 3,-2 -1,-6 -4,-4z"/>
   <path class="fil1" d="M3472 1521c4,0 4,-6 0,-6 -4,0 -4,6 0,6z"/>
   <path class="fil1" d="M3455 1635l0 2c0,4 5,4 5,0l0 -2c0,-4 -5,-4 -5,0z"/>
   <path class="fil1" d="M3882 1245l3 0c4,0 4,-6 0,-6l-3 0c-3,0 -3,6 0,6z"/>
   <path class="fil1" d="M3952 1166c4,0 4,-6 0,-6 -4,0 -4,6 0,6z"/>
   <path class="fil1" d="M3164 604c3,0 3,-5 0,-5 -4,0 -4,5 0,5z"/>
   <path class="fil1" d="M3207 607c4,0 4,-5 0,-5 -3,0 -3,5 0,5z"/>
   <path class="fil1" d="M1728 1221l3 0c4,0 4,-5 0,-5l-3 0c-3,0 -3,5 0,5z"/>
   <path class="fil1" d="M800 1008c6,8 18,-1 12,-8 -6,-8 -18,1 -12,8z"/>
   <path class="fil1" d="M1229 342c5,7 17,-1 12,-9 -6,-8 -18,1 -12,9z"/>
   <path class="fil1" d="M4082 122c3,0 3,-6 0,-6 -4,0 -4,6 0,6z"/>
   <path class="fil1" d="M4070 151c4,0 4,-5 0,-5 -4,0 -4,5 0,5z"/>
   <path class="fil1" d="M6717 2143c7,0 7,-11 0,-11 -7,0 -7,11 0,11z"/>
   <path class="fil1" d="M5102 1120c7,0 7,-12 0,-12 -7,0 -7,12 0,12z"/>
   <path class="fil1" d="M1159 1693l0 3c0,4 6,4 6,0l0 -3c0,-4 -6,-4 -6,0z"/>
   <path class="fil1" d="M1324 811c2,3 6,0 4,-3 -2,-3 -7,0 -4,3z"/>
   <path class="fil1" d="M4258 1457c3,0 3,-6 0,-6 -4,0 -4,6 0,6z"/>
   <path class="fil1" d="M4272 1434c4,0 4,-6 0,-6 -3,0 -3,6 0,6z"/>
   <path class="fil1" d="M730 1684c7,0 7,-11 0,-11 -7,0 -7,11 0,11z"/>
   <path class="fil1" d="M3775 454l0 2c0,7 11,7 11,0l0 -2c0,-7 -11,-7 -11,0l0 2c0,7 11,7 11,0l0 -2c0,-7 -11,-7 -11,0z"/>
   <path class="fil1" d="M3545 96c7,0 7,-11 0,-11 -7,0 -7,11 0,11z"/>
   <path class="fil1" d="M2871 107c7,0 7,-11 0,-11 -7,0 -7,11 0,11z"/>
   <path class="fil1" d="M2951 1998c7,0 7,-11 0,-11 -7,0 -7,11 0,11z"/>
   <path class="fil1" d="M1982 1964c0,-1 1,-2 2,-3 3,-2 3,-6 0,-8 -2,-2 -5,-2 -8,0 -1,1 -2,2 -2,3 -3,2 -3,6 0,8 2,2 5,2 8,0z"/>
   <path class="fil1" d="M3809 2208l3 0c3,0 6,-3 6,-6 0,-3 -3,-5 -6,-5l-3 0c-3,0 -5,2 -5,5 0,3 2,6 5,6z"/>
   <path class="fil1" d="M229 93c7,0 7,-10 0,-10 -6,0 -6,10 0,10z"/>
   <path class="fil1" d="M1686 2255c7,0 7,-10 0,-10 -6,0 -6,10 0,10z"/>
   <path class="fil1" d="M2843 599c6,0 6,-10 0,-10 -7,0 -7,10 0,10z"/>
   <path class="fil1" d="M2801 536c6,0 6,-10 0,-10 -7,0 -7,10 0,10z"/>
   <path class="fil1" d="M4902 1651c4,0 4,5 0,5 -4,0 -4,-5 0,-5z"/>
   <path class="fil1" d="M5053 1604c4,0 4,6 0,6 -3,0 -3,-6 0,-6z"/>
   <path class="fil1" d="M4552 1478c6,0 6,-9 0,-9 -5,0 -5,9 0,9z"/>
   <path class="fil1" d="M4641 1748l2 0c4,0 4,-6 0,-6l-2 0c-4,0 -4,6 0,6z"/>
   <path class="fil1" d="M6561 775l3 0c4,0 4,-5 0,-5l-3 0c-4,0 -4,5 0,5z"/>
   <path class="fil1" d="M6250 752l3 0c4,0 4,5 0,5l-3 0c-3,0 -3,-5 0,-5z"/>
   <path class="fil1" d="M6524 499l3 0c4,0 4,5 0,5l-3 0c-3,0 -3,-5 0,-5z"/>
   <path class="fil1" d="M7133 611c3,0 3,6 0,6 -4,0 -4,-6 0,-6z"/>
   <path class="fil1" d="M3687 677c13,0 13,-20 0,-20 -13,0 -13,20 0,20z"/>
  </g>
 </g>
</svg>
