<?xml version="1.0" encoding="UTF-8"?>
<!DOCTYPE svg PUBLIC "-//W3C//DTD SVG 1.1//EN" "http://www.w3.org/Graphics/SVG/1.1/DTD/svg11.dtd">
<!-- Creator: CorelDRAW X7 -->
<svg xmlns="http://www.w3.org/2000/svg" xml:space="preserve" width="100%" height="100%" version="1.1" style="shape-rendering:geometricPrecision; text-rendering:geometricPrecision; image-rendering:optimizeQuality; fill-rule:evenodd; clip-rule:evenodd"
viewBox="0 0 2709 1524"
 xmlns:xlink="http://www.w3.org/1999/xlink">
 <defs>
  <style type="text/css">
   <![CDATA[
    .fil3 {fill:#FDDFD1}
    .fil15 {fill:#FCD9C8}
    .fil22 {fill:#D2AE6D}
    .fil1 {fill:#F6DCCB}
    .fil0 {fill:#DABA76}
    .fil4 {fill:#8DA0D1}
    .fil2 {fill:#835086}
    .fil6 {fill:#6C87C3}
    .fil5 {fill:#686AA2}
    .fil14 {fill:#DABA76}
    .fil19 {fill:#F0F5FF}
    .fil16 {fill:#FF6600}
    .fil20 {fill:white}
    .fil23 {fill:white}
    .fil8 {fill:#FDDFD1;fill-rule:nonzero}
    .fil9 {fill:#FCD9C8;fill-rule:nonzero}
    .fil10 {fill:#DABA76;fill-rule:nonzero}
    .fil21 {fill:#8DA0D1;fill-rule:nonzero}
    .fil11 {fill:#6C87C3;fill-rule:nonzero}
    .fil12 {fill:#686AA2;fill-rule:nonzero}
    .fil18 {fill:#D6E4FF;fill-rule:nonzero}
    .fil13 {fill:#EBF2FF;fill-rule:nonzero}
    .fil7 {fill:white;fill-rule:nonzero}
    .fil17 {fill:white;fill-rule:nonzero}
   ]]>
  </style>
 </defs>
 <g id="Layer_x0020_1">
  <metadata id="CorelCorpID_0Corel-Layer"/>
  <g id="_1697661243152">
   <polygon class="fil0" points="2709,1524 0,1524 0,0 2709,0 "/>
   <g>
    <path class="fil1" d="M1903 290c0,0 -166,49 -162,-56 0,0 2,-77 98,-32 0,0 4,-104 87,-96 83,7 112,20 112,20 0,0 -3,-30 31,-46 52,-25 130,-3 130,-3 0,0 54,14 47,56 -7,50 -29,36 -97,37 0,0 -198,189 -246,120z"/>
    <path class="fil2" d="M1874 1524c-6,-37 -10,-74 -14,-112 -14,-155 -8,-316 19,-481 26,-165 71,-323 134,-470 30,-71 64,-139 101,-202 37,-62 77,-120 119,-172 25,-31 51,-60 77,-87l399 0 0 1513 -33 11 -802 0z"/>
    <path class="fil3" d="M1873 1524c-7,-45 -12,-92 -15,-140 -9,-141 -1,-288 22,-438 24,-151 63,-295 115,-430 26,-65 54,-127 85,-184 30,-57 63,-111 97,-159 35,-47 71,-91 109,-128 16,-16 33,-31 50,-45l373 0 0 1524 -836 0z"/>
    <path class="fil4" d="M2436 607c-104,-9 -215,149 -247,353 -33,204 26,377 130,387 104,10 215,-149 248,-353 32,-203 -26,-377 -131,-387z"/>
    <path class="fil5" d="M2511 0c-247,85 -495,467 -570,942 -34,213 -28,414 8,582l-104 0c-5,-32 -9,-65 -12,-98 -14,-154 -7,-316 20,-481 26,-165 72,-323 134,-470 30,-71 64,-139 101,-201 36,-63 76,-121 118,-173 30,-36 60,-70 92,-101l213 0zm198 1l-2 -1 2 0 0 1z"/>
    <path class="fil6" d="M2484 377c-168,-16 -348,240 -400,570 -41,255 6,480 108,577l-149 0c-26,-78 -42,-167 -48,-265 -5,-103 0,-210 18,-320 17,-110 45,-216 83,-314 36,-95 80,-179 130,-250 50,-72 104,-126 160,-163 58,-37 116,-54 172,-49 56,6 107,32 151,79l0 546c-8,-229 -94,-399 -225,-411zm225 1072c-13,26 -27,51 -41,75l-228 0c117,-89 218,-286 256,-521 7,-48 12,-95 13,-140l0 586z"/>
    <path class="fil6" d="M2369 940c0,0 -101,306 -126,361l-27 -47c0,0 101,-240 153,-314z"/>
    <path class="fil4" d="M2243 1301c0,0 -60,147 -84,185 0,0 -23,-33 -28,-48 0,0 71,-154 85,-178l27 41z"/>
    <path class="fil7" d="M247 117c-2,2 -5,3 -8,1 -2,-1 -3,-5 -2,-7 2,-3 5,-3 8,-2 2,2 3,5 2,8z"/>
    <path class="fil8" d="M403 455c-1,2 -5,3 -7,1 -3,-1 -4,-5 -2,-7 1,-3 5,-4 7,-2 3,2 4,5 2,8z"/>
    <path class="fil8" d="M97 512c-2,3 -5,4 -8,2 -2,-2 -3,-5 -1,-8 1,-2 5,-3 7,-1 3,1 4,5 2,7z"/>
    <path class="fil8" d="M53 382c-2,2 -5,3 -8,1 -3,-1 -3,-5 -2,-7 2,-3 5,-4 8,-2 2,2 3,5 2,8z"/>
    <path class="fil8" d="M240 285c-2,3 -5,3 -8,2 -3,-2 -3,-5 -2,-8 2,-2 5,-3 8,-2 2,2 3,5 2,8z"/>
    <path class="fil8" d="M512 65c-2,3 -5,4 -8,2 -2,-2 -3,-5 -1,-8 1,-2 5,-3 7,-1 3,1 3,5 2,7z"/>
    <path class="fil8" d="M1897 450c-2,3 -5,4 -8,2 -2,-2 -3,-5 -1,-8 1,-2 5,-3 7,-1 3,1 4,5 2,7z"/>
    <path class="fil7" d="M1996 398c-2,2 -5,3 -8,2 -3,-2 -3,-5 -2,-8 2,-3 5,-3 8,-2 2,2 3,5 2,8z"/>
    <path class="fil8" d="M1570 207c-1,3 -5,4 -7,2 -3,-1 -4,-5 -2,-7 2,-3 5,-4 7,-2 3,1 4,5 2,7z"/>
    <path class="fil7" d="M1266 204c-2,3 -5,4 -8,2 -2,-2 -3,-5 -1,-8 1,-2 5,-3 7,-1 3,1 4,5 2,7z"/>
    <path class="fil8" d="M1003 218c-1,3 -5,3 -7,2 -3,-2 -4,-5 -2,-8 2,-2 5,-3 7,-2 3,2 4,5 2,8z"/>
    <path class="fil8" d="M888 118c-1,3 -5,3 -7,2 -3,-2 -3,-5 -2,-8 2,-2 5,-3 8,-2 2,2 3,5 1,8z"/>
    <path class="fil8" d="M582 397c-2,2 -5,3 -8,1 -2,-1 -3,-5 -2,-7 2,-3 5,-4 8,-2 2,2 3,5 2,8z"/>
    <path class="fil8" d="M1498 491c-1,2 -5,3 -7,2 -3,-2 -3,-5 -2,-8 2,-3 5,-3 8,-2 2,2 3,5 1,8z"/>
    <path class="fil7" d="M1448 483c-2,2 -5,3 -8,2 -2,-2 -3,-5 -1,-8 1,-3 5,-3 7,-2 3,2 4,5 2,8z"/>
    <path class="fil8" d="M1168 447c-1,2 -5,3 -7,1 -3,-1 -4,-5 -2,-7 2,-3 5,-4 8,-2 2,2 3,5 1,8z"/>
    <path class="fil8" d="M1032 541c-1,2 -5,3 -7,1 -3,-1 -3,-5 -2,-7 2,-3 5,-4 8,-2 2,2 3,5 1,8z"/>
    <path class="fil8" d="M806 528c-1,3 -5,3 -7,2 -3,-2 -4,-5 -2,-8 1,-2 5,-3 7,-2 3,2 4,5 2,8z"/>
    <path class="fil8" d="M557 631c-1,3 -5,3 -7,2 -3,-2 -4,-5 -2,-8 1,-2 5,-3 7,-2 3,2 4,5 2,8z"/>
    <path class="fil8" d="M1164 96c-1,2 -5,3 -7,1 -3,-1 -4,-5 -2,-7 2,-3 5,-4 8,-2 2,2 3,5 1,8z"/>
    <path class="fil8" d="M1362 79c-2,3 -5,4 -8,2 -2,-1 -3,-5 -1,-7 1,-3 5,-4 7,-2 3,1 4,5 2,7z"/>
    <path class="fil8" d="M1584 108c-2,2 -5,3 -7,1 -3,-1 -4,-5 -2,-7 1,-3 5,-4 7,-2 3,2 4,5 2,8z"/>
    <path class="fil8" d="M701 374c-2,2 -5,3 -7,1 -3,-1 -4,-5 -2,-7 1,-3 5,-4 7,-2 3,2 4,5 2,8z"/>
    <path class="fil7" d="M531 292c-1,3 -5,3 -7,2 -3,-2 -4,-5 -2,-8 1,-2 5,-3 7,-2 3,2 4,5 2,8z"/>
    <path class="fil7" d="M419 487c-1,3 -4,3 -7,2 -3,-2 -3,-5 -2,-8 2,-2 5,-3 8,-2 2,2 3,5 1,8z"/>
    <path class="fil7" d="M267 1337c-2,3 -5,4 -7,2 -3,-2 -4,-5 -2,-8 1,-2 5,-3 7,-1 3,1 4,5 2,7z"/>
    <path class="fil8" d="M635 1380c-1,2 -5,3 -7,1 -3,-1 -4,-5 -2,-7 2,-3 5,-4 7,-2 3,2 4,5 2,8z"/>
    <path class="fil8" d="M800 263c-2,2 -5,3 -8,2 -2,-2 -3,-5 -1,-8 1,-3 4,-3 7,-2 3,2 3,5 2,8z"/>
    <path class="fil7" d="M1067 268c-2,2 -5,3 -7,1 -3,-1 -4,-5 -2,-7 1,-3 5,-3 7,-2 3,2 4,5 2,8z"/>
    <path class="fil8" d="M1384 373c-1,2 -5,3 -7,1 -3,-1 -4,-5 -2,-7 2,-3 5,-4 8,-2 2,2 3,5 1,8z"/>
    <path class="fil8" d="M1808 1388c-2,2 -5,3 -8,2 -2,-2 -3,-5 -1,-8 1,-3 5,-3 7,-2 3,2 4,5 2,8z"/>
    <path class="fil8" d="M1717 1171c-1,3 -5,3 -7,2 -3,-2 -3,-5 -2,-8 2,-2 5,-3 8,-2 2,2 3,5 1,8z"/>
    <path class="fil8" d="M264 1189c-1,3 -5,3 -7,2 -3,-2 -4,-5 -2,-8 2,-2 5,-3 8,-2 2,2 3,5 1,8z"/>
    <path class="fil8" d="M133 1188c-2,3 -5,4 -8,2 -2,-2 -3,-5 -2,-8 2,-2 5,-3 8,-1 2,1 3,5 2,7z"/>
    <path class="fil8" d="M92 1208c-2,2 -5,3 -8,1 -2,-1 -3,-5 -2,-7 2,-3 5,-4 8,-2 2,2 3,5 2,8z"/>
    <path class="fil8" d="M430 1123c-2,2 -5,3 -8,2 -2,-2 -3,-5 -2,-8 2,-3 5,-3 8,-2 2,2 3,5 2,8z"/>
    <path class="fil8" d="M667 1252c-2,3 -5,4 -8,2 -2,-2 -3,-5 -2,-8 2,-2 5,-3 8,-1 3,1 3,5 2,7z"/>
    <path class="fil8" d="M1602 1228c-2,3 -5,4 -8,2 -2,-1 -3,-5 -2,-7 2,-3 5,-4 8,-2 3,1 3,5 2,7z"/>
    <path class="fil7" d="M1780 1344c-1,3 -5,4 -7,2 -3,-2 -4,-5 -2,-8 2,-2 5,-3 8,-1 2,1 3,5 1,7z"/>
    <path class="fil8" d="M1541 582c-1,2 -5,3 -7,2 -3,-2 -4,-5 -2,-8 1,-3 5,-3 7,-2 3,2 4,5 2,8z"/>
    <path class="fil8" d="M1680 318c-2,3 -5,3 -8,2 -2,-2 -3,-5 -2,-8 2,-2 5,-3 8,-2 2,2 3,5 2,8z"/>
    <path class="fil8" d="M1638 342c-2,2 -5,3 -8,2 -2,-2 -3,-5 -2,-8 2,-3 5,-3 8,-2 2,2 3,5 2,8z"/>
    <path class="fil7" d="M1712 217c-1,2 -5,3 -7,1 -3,-1 -3,-5 -2,-7 2,-3 5,-4 8,-2 2,2 3,5 1,8z"/>
    <path class="fil8" d="M1709 1371c-2,3 -5,4 -8,2 -2,-1 -3,-5 -2,-7 2,-3 5,-4 8,-2 2,1 3,5 2,7z"/>
    <path class="fil8" d="M1488 1414c-1,3 -5,4 -7,2 -3,-1 -4,-5 -2,-7 1,-3 5,-4 7,-2 3,1 4,5 2,7z"/>
    <path class="fil7" d="M604 1267c-2,2 -5,3 -8,1 -2,-1 -3,-5 -2,-7 2,-3 5,-4 8,-2 2,2 3,5 2,8z"/>
    <path class="fil8" d="M383 1410c-2,3 -5,3 -8,2 -2,-2 -3,-5 -1,-8 1,-2 5,-3 7,-2 3,2 4,5 2,8z"/>
    <path class="fil8" d="M230 1396c-1,2 -4,3 -7,1 -3,-1 -3,-5 -2,-7 2,-3 5,-4 8,-2 2,2 3,5 1,8z"/>
    <path class="fil8" d="M333 1246c-1,3 -5,4 -7,2 -3,-1 -3,-5 -2,-7 2,-3 5,-4 8,-2 2,1 3,5 1,7z"/>
    <path class="fil8" d="M475 1221c-1,2 -5,3 -7,2 -3,-2 -3,-5 -2,-8 2,-3 5,-3 8,-2 2,2 3,5 1,8z"/>
    <g>
     <path class="fil9" d="M1170 659l-11 93 -17 91c0,0 -72,-9 -145,-41l24 -13c0,0 -45,-12 -115,-77 86,-41 133,-39 133,-39l-20 -19c80,-9 151,5 151,5z"/>
     <path class="fil10" d="M1166 690l-7 62 -12 60c0,0 -47,-5 -96,-27l16 -8c0,0 -30,-8 -76,-52 57,-27 88,-26 88,-26l-13 -12c53,-6 100,3 100,3z"/>
     <polygon class="fil11" points="1163,637 1128,862 1155,866 1190,641 "/>
     <path class="fil12" d="M1345 934c0,0 -116,140 -305,78 -18,-6 -18,-31 0,-36 49,-15 115,-48 138,-118l167 76z"/>
     <path class="fil12" d="M1391 634c0,0 -69,-168 -267,-167 -19,0 -27,24 -11,35 42,29 95,80 96,154l182 -22z"/>
     <path class="fil13" d="M1189 631c65,-11 332,-1 586,39 288,45 600,231 594,271 -6,40 -360,122 -647,77 -272,-43 -512,-112 -570,-142l37 -245z"/>
     <path class="fil12" d="M2083 1020c-18,-40 -25,-83 -18,-127 6,-43 26,-82 55,-116 143,65 247,136 249,162 0,0 0,1 0,2 0,0 0,1 -1,2 -9,23 -130,60 -285,77z"/>
     <path class="fil11" d="M1679 731c54,9 91,60 82,115 -8,55 -59,92 -113,84 -54,-9 -91,-60 -83,-115 9,-55 59,-92 114,-84z"/>
     <path class="fil11" d="M1495 745c32,5 54,35 49,67 -5,32 -35,54 -66,49 -32,-5 -54,-35 -49,-67 5,-32 35,-54 66,-49z"/>
     <path class="fil14" d="M1480 847c-24,-4 -41,-27 -37,-51l0 0c4,-24 26,-41 50,-37l0 0c24,4 40,26 37,51l0 0c-2,10 -7,19 -14,25l0 0c-9,9 -22,14 -36,12l0 0z"/>
     <path class="fil12" d="M1176 719c-75,-12 -138,-6 -141,13 -3,19 55,44 130,56 75,11 138,5 141,-13 3,-19 -56,-44 -130,-56z"/>
    </g>
    <path class="fil15" d="M931 1310c0,0 -44,-72 26,-80 59,-7 87,4 87,4 0,0 -46,-65 2,-81 49,-17 173,22 173,22 0,0 -16,-54 41,-44 58,11 99,46 97,61 0,0 24,62 -142,50 0,0 -5,113 -177,69 0,0 -58,73 -107,-1z"/>
    <path class="fil8" d="M1005 1466c-1,3 -5,4 -7,2 -3,-1 -3,-5 -2,-7 2,-3 5,-4 8,-2 2,1 3,5 1,7z"/>
    <path class="fil8" d="M1264 1313c-1,2 -5,3 -7,1 -3,-1 -4,-5 -2,-7 2,-3 5,-4 7,-2 3,2 4,5 2,8z"/>
    <path class="fil8" d="M908 1120c-2,3 -5,4 -8,2 -2,-2 -3,-5 -2,-8 2,-2 5,-3 8,-1 2,1 3,5 2,7z"/>
    <path class="fil8" d="M1263 1474c-2,3 -5,4 -8,2 -2,-2 -3,-5 -2,-8 2,-2 5,-3 8,-1 2,1 3,5 2,7z"/>
    <path class="fil7" d="M1171 1497c-2,3 -5,4 -8,2 -2,-2 -3,-5 -1,-8 1,-2 4,-3 7,-1 3,1 3,5 2,7z"/>
    <path class="fil7" d="M1394 1273c-2,2 -5,3 -8,1 -2,-1 -3,-5 -1,-7 1,-3 4,-4 7,-2 3,2 3,5 2,8z"/>
    <path class="fil8" d="M822 1231c-2,3 -5,4 -8,2 -3,-1 -3,-5 -2,-7 2,-3 5,-4 8,-2 2,1 3,5 2,7z"/>
    <polygon class="fil16" points="2004,1008 2003,1007 2003,1008 "/>
    <polygon class="fil16" points="2048,946 2048,946 2048,946 "/>
    <path class="fil8" d="M291 723c-2,2 -5,3 -8,1 -2,-1 -3,-5 -2,-7 2,-3 5,-4 8,-2 3,2 3,5 2,8z"/>
    <path class="fil8" d="M382 873c-2,2 -5,3 -8,1 -2,-1 -3,-5 -2,-7 2,-3 5,-4 8,-2 3,2 3,5 2,8z"/>
    <path class="fil7" d="M865 672c-1,3 -5,3 -7,2 -3,-2 -4,-5 -2,-8 1,-2 5,-3 7,-2 3,2 4,5 2,8z"/>
    <path class="fil7" d="M207 654c-2,2 -5,3 -7,2 -3,-2 -4,-5 -2,-8 1,-3 5,-3 7,-2 3,2 4,5 2,8z"/>
    <path class="fil8" d="M110 1004c-1,3 -5,4 -7,2 -3,-2 -4,-5 -2,-7 2,-3 5,-4 8,-2 2,1 3,5 1,7z"/>
    <path class="fil8" d="M1231 1070c-1,2 -5,3 -7,1 -3,-1 -4,-5 -2,-7 2,-3 5,-4 8,-2 2,2 3,5 1,8z"/>
    <path class="fil8" d="M753 960c-2,3 -5,3 -8,2 -3,-2 -3,-5 -2,-8 2,-2 5,-3 8,-2 2,2 3,5 2,8z"/>
    <path class="fil8" d="M565 1071c-1,3 -5,3 -7,2 -3,-2 -4,-5 -2,-8 2,-3 5,-3 8,-2 2,2 3,5 1,8z"/>
    <path class="fil8" d="M62 838c-1,3 -5,3 -7,2 -3,-2 -4,-5 -2,-8 1,-2 5,-3 7,-1 3,1 4,5 2,7z"/>
    <path class="fil8" d="M283 913c-2,3 -5,3 -8,2 -2,-2 -3,-5 -2,-8 2,-2 5,-3 8,-2 2,2 3,5 2,8z"/>
    <path class="fil8" d="M638 863c-1,3 -5,3 -7,2 -3,-2 -4,-5 -2,-8 2,-2 5,-3 8,-2 2,2 3,5 1,8z"/>
    <path class="fil8" d="M533 836c-2,3 -5,4 -8,2 -2,-1 -3,-5 -2,-7 2,-3 5,-4 8,-2 3,1 3,5 2,7z"/>
    <path class="fil7" d="M599 919c-1,2 -5,3 -7,2 -3,-2 -4,-5 -2,-8 2,-3 5,-3 8,-2 2,2 3,5 1,8z"/>
    <path class="fil8" d="M924 858c-2,2 -5,3 -8,2 -2,-2 -3,-5 -2,-8 2,-3 5,-3 8,-2 2,2 3,5 2,8z"/>
    <path class="fil8" d="M1490 1060c-1,3 -5,3 -7,2 -3,-2 -3,-5 -2,-8 2,-2 5,-3 8,-2 2,2 3,6 1,8z"/>
    <path class="fil17" d="M362 1030c-21,0 -38,-17 -38,-38l0 0c0,21 -17,38 -38,38 21,1 38,18 38,40l0 0c0,-22 17,-39 38,-40z"/>
    <path class="fil8" d="M1556 1377c12,0 22,10 22,22l0 0c0,-12 10,-22 22,-22 -12,-1 -22,-11 -22,-23l0 0c0,12 -9,22 -22,23z"/>
    <path class="fil17" d="M954 369c-14,0 -26,-12 -26,-27l0 0c0,15 -12,27 -26,27 14,1 26,13 26,28l0 0c0,-15 12,-27 26,-28z"/>
    <path class="fil8" d="M328 289c29,1 53,26 53,55l1 0c0,-29 23,-54 52,-55 -29,0 -53,-25 -53,-55l0 0c0,30 -24,55 -53,55z"/>
    <g>
     <g>
      <path class="fil18" d="M1646 400c0,0 -21,-13 -31,-3 -10,10 -10,65 -10,65l45 -47 -4 -15z"/>
      <path class="fil19" d="M1727 443c0,0 33,9 45,16 13,8 35,30 44,39 0,0 0,22 -18,24 0,0 -35,-25 -47,-27 -12,-2 -29,-6 -29,-6l-8 -42 13 -4z"/>
      <path class="fil20" d="M1816 498c0,0 21,6 26,12 4,5 -13,0 -13,0 0,0 18,12 16,15 -2,4 -20,-9 -20,-9 0,0 19,11 17,15 -2,3 -20,-8 -20,-8 0,0 13,12 11,15 -1,4 -17,-10 -17,-10 0,0 -1,6 -1,12 -1,6 -11,-1 -17,-18l18 -24z"/>
      <path class="fil11" d="M1796 526c1,0 2,0 3,0 20,-9 21,-27 21,-27 0,-2 -2,-4 -4,-4 -2,0 -4,1 -4,3 0,1 -1,14 -16,21 -2,1 -3,3 -2,5 0,1 1,1 2,2z"/>
      <path class="fil4" d="M1779 464c0,0 -11,24 -20,34 0,0 -3,2 -8,-3 0,0 1,-23 12,-40 0,0 9,0 16,9z"/>
      <path class="fil21" d="M1721 489l3 0c2,-25 -4,-39 -5,-39l-2 1c0,0 6,13 4,38z"/>
      <path class="fil20" d="M1717 448c0,0 22,50 -20,97 0,0 23,35 26,49 4,14 -8,56 -8,56 0,0 1,1 3,3 -2,2 -7,6 -17,6 -6,0 -14,-1 -24,-3 -1,-2 -1,-3 -2,-5 0,0 5,-36 9,-47l-26 -23 -1 3c-3,6 -5,13 -9,19 0,0 -12,21 -36,34 0,0 0,2 -1,4 -2,0 -7,0 -12,-3l-4 -2c-5,-3 -12,-9 -16,-19 1,-1 2,-2 3,-4 0,0 22,-16 27,-26l4 -56c0,0 -6,-15 9,-39l32 -63 63 19z"/>
      <path class="fil5" d="M1698 489c-3,4 -1,9 3,11 4,3 9,1 11,-3 3,-4 1,-9 -3,-12 -4,-2 -9,-1 -11,4z"/>
      <path class="fil11" d="M1599 638l0 0 0 0 0 0 1 0 0 1 0 0 0 0 0 0 0 0 0 0 1 0 0 0 0 0 0 0 0 0 0 0 0 0 1 0 0 0 0 0 0 0 0 0 0 0 0 1 1 0 0 0 0 0 0 0 0 0 0 0 0 0 0 0 0 0 1 0 0 0 0 0 0 0 0 0 0 0 0 0 1 0 0 0 0 0 0 0 0 0 0 0 0 0 0 0 1 0 0 0 0 0 0 0 0 0 0 1 0 0 0 0 1 0 0 0 0 0 0 0 0 0 0 0 0 0 0 0 0 0 1 0 0 0 0 0 0 0 0 0 0 0 0 0 0 0 0 0 1 0 0 0 0 0 0 0 0 0 0 0 0 0 0 0 0 0 0 0 0 0 1 0 0 0 0 0 0 0 0 0 0 0 0 0 0 0 0 0 0 0 0 0 0 0 0 0 0 0 1 0 0 0 0 0 0 0 0 0 0 0 0 0 0 0 0 0 0 0 0 0c1,0 1,0 2,0 2,0 3,-2 3,-4 0,-2 -2,-4 -4,-4 -1,0 -19,1 -26,-21 -1,-2 -3,-3 -5,-2 -2,0 -3,3 -3,5l1 2 1 1 0 0 0 0 0 1 0 0 0 0 0 0 0 1 0 0 1 0 0 0 0 0 0 1 0 0 0 0 0 0 0 1 0 0 1 0 0 0 0 0 0 1 0 0 0 0 0 0 0 0 1 1 0 0 0 0 0 0 0 0 0 1 0 0 0 0 1 0 0 0 0 1 0 0 0 0 0 0 0 0 0 1 1 0 0 0 0 0 0 0 0 1 0 0 0 0 1 0 0 0 0 0 0 1 0 0 0 0 0 0 1 0 0 0 0 0 0 1 0 0 0 0 0 0 0 0 1 0 0 0 0 1 0 0 0 0 0 0 0 0 1 0 0 0 0 1 0 0 0 0 0 0 0 0 0 0 1 0 0 0 0 1 0 0 0 0 0 0 1 0 0 0 0 0 0 0 0 0 0 1 0 0 1 0 0 0 0 0 0 0 0 0 0 0 0 0 0 1 1 0 0 0 0 0 0 0 0 0 0 0 0 0 1 0 0 0 0 1 0 0 0 0 0 0 0 0 1 0 0 0 0 0 0 0 0 0 0 0 4 2z"/>
      <path class="fil4" d="M1606 590c6,16 30,30 34,26 4,-4 7,-10 7,-10 -12,-20 -37,-21 -37,-21 0,0 -3,1 -4,5z"/>
      <path class="fil21" d="M1612 534c0,0 1,1 2,0 1,0 34,-3 48,27 1,2 3,2 5,2 2,-1 3,-4 2,-6 -16,-34 -56,-30 -56,-30 -2,0 -4,2 -3,4 0,1 1,2 2,3z"/>
      <path class="fil11" d="M1673 654c0,0 0,1 1,1l3 1 1 0 0 0 0 0 1 0 0 0 1 0 0 0 1 1 0 0 0 0 1 0 0 0 1 0 0 0 0 0 1 0 0 0 0 0 0 0 1 0 0 1 1 0 0 0 0 0 1 0 0 0 0 0 0 0 1 0 0 0 0 0 1 0 0 0 1 0 0 0 0 0 0 0 1 0 0 0 0 0 0 0 1 1 0 0 0 0 0 0 1 0 0 0 0 0 1 0 0 0 0 0 0 0 1 0 0 0 0 0 0 0 0 0 1 0 0 0 0 0 0 0 1 0 0 0 0 0 1 0 0 0 0 0 0 0 1 0 0 0 0 0 0 0 0 0 1 0 0 0 0 0 0 0 0 0 1 0 0 0 1 0 0 0 0 0 1 0 0 0 0 0 1 0 0 0 0 0 0 0 1 0 0 0 0 0 1 0 0 -1 0 0 0 0 0 0 1 0 0 0 0 0 1 0 0 0 0 0 0 0 0 0 1 0 0 0 0 0 0 0 1 0 0 0 0 0 0 -1 0 0 1 0 0 0 0 0 0 0 0 0 0 0 1 0 0 0 0 0 0 0 0 0 0 0 1 0 0 0 0 -1 0 0 0 0 0 0 1 0 0 0 0 0 0 0 0 0 0 0 1 0 0 0 0 -1 0 0 0 0 0 0 0 0 0 0 1 0 0 0 0 0 0 0 0 0 0 0 0 0 0 0 0 -1 0 0 1 0 0 0 0 0 0 0 0 0 0 0 0 0 0 0 0 0 0 0 0 0 0 0 1 -1 0 0 0 0 0 0 0 0 1 -1c1,-2 0,-4 -1,-5 -2,-1 -4,-1 -6,1 0,0 -7,8 -36,-1 -2,0 -4,1 -5,3 0,2 0,3 2,4z"/>
      <path class="fil4" d="M1720 585c0,0 -28,8 -36,19 -9,12 40,3 40,3 0,0 6,-11 -4,-22z"/>
      <path class="fil21" d="M1663 560c1,1 3,1 4,0 15,-14 28,-11 29,-11 2,1 4,-1 5,-3 0,-2 -1,-4 -3,-4 -1,-1 -18,-5 -36,12 -2,1 -2,4 0,5 0,1 0,1 1,1z"/>
      <polygon class="fil21" points="1657,580 1659,581 1669,557 1666,556 "/>
      <path class="fil20" d="M1649 370c-16,26 -6,61 21,77 27,15 61,6 76,-20 16,-27 6,-62 -21,-78 -27,-15 -61,-6 -76,21z"/>
      <path class="fil5" d="M1665 439c3,3 6,5 9,7 26,15 57,6 72,-19 6,-11 8,-24 6,-36l-1 -1c0,-2 -2,-3 -4,-2 -7,5 -26,10 -63,-19 -2,-1 -6,-1 -7,2 -8,10 -25,39 -14,66l2 2z"/>
      <path class="fil20" d="M1568 527c0,0 -11,29 -11,35 1,7 9,-8 9,-8 0,0 -5,21 -1,22 4,2 8,-20 8,-20 0,0 -5,21 -2,22 4,1 9,-19 9,-19 0,0 0,17 3,19 3,1 6,-20 6,-20 0,0 4,4 9,8 4,4 7,-8 -1,-25l-29 -14z"/>
      <path class="fil19" d="M1644 422c0,0 25,13 19,36 0,0 -14,17 -41,34 0,0 -7,5 -12,18 -5,13 -11,31 -11,31 0,0 -15,3 -31,-14 0,0 3,-35 20,-59 16,-24 56,-46 56,-46z"/>
      <path class="fil11" d="M1577 542c8,5 17,5 22,3 2,0 3,-3 2,-5 -1,-2 -3,-3 -5,-2 0,0 -15,4 -25,-13 -1,-2 -3,-2 -5,-1 -2,1 -2,3 -1,5 3,6 8,11 12,13z"/>
      <path class="fil4" d="M1615 499c0,0 -30,-18 -27,-31 0,0 -5,5 -10,17 0,0 14,16 35,19 0,0 1,1 2,-5z"/>
      <path class="fil21" d="M1658 465c1,0 1,0 1,0 3,1 6,0 7,-3 9,-25 -9,-40 -20,-44 -3,-1 -6,0 -7,3 -1,2 0,5 3,6 2,1 22,10 14,32 -1,2 0,5 2,6z"/>
     </g>
     <path class="fil20" d="M1724 680c-4,11 -34,-4 -47,-24 10,2 18,3 24,3 10,0 15,-4 17,-6 1,2 3,6 5,9 2,6 4,12 1,18z"/>
     <path class="fil20" d="M1586 677c-11,3 -18,-14 -15,-34 1,-8 4,-18 8,-26 4,10 11,16 16,19l4 2c5,3 10,3 12,3 0,2 -1,4 -2,6 -4,11 -11,26 -23,30z"/>
    </g>
    <g>
     <circle class="fil22" cx="1663" cy="830" r="76"/>
     <path class="fil23" d="M1678 852l0 14 -58 0 0 -14 58 0zm-58 -43l0 -14c29,0 58,0 86,0l-14 14c-24,0 -48,0 -72,0zm86 14c0,15 0,29 0,43l-14 0 0 -28 0 0 -72 0 0 -15c29,0 58,0 86,0z"/>
    </g>
   </g>
   <path class="fil5" d="M2131 1438c0,0 -7,15 -38,86l47 0 19 -38 -28 -48z"/>
  </g>
 </g>
</svg>
