<?xml version="1.0" encoding="UTF-8"?>
<!DOCTYPE svg PUBLIC "-//W3C//DTD SVG 1.1//EN" "http://www.w3.org/Graphics/SVG/1.1/DTD/svg11.dtd">
<!-- Creator: CorelDRAW X7 -->
<svg xmlns="http://www.w3.org/2000/svg" xml:space="preserve" width="100%" height="100%" version="1.1" style="shape-rendering:geometricPrecision; text-rendering:geometricPrecision; image-rendering:optimizeQuality; fill-rule:evenodd; clip-rule:evenodd"
viewBox="0 0 16256 3387"
 xmlns:xlink="http://www.w3.org/1999/xlink">
 <defs>
  <style type="text/css">
   <![CDATA[
    .fil3 {fill:#FDDFD1}
    .fil15 {fill:#F7D8C4}
    .fil22 {fill:#D2AE6D}
    .fil1 {fill:#F2D6C0}
    .fil0 {fill:#DDBF80}
    .fil4 {fill:#8DA0D1}
    .fil2 {fill:#835086}
    .fil6 {fill:#6C87C3}
    .fil5 {fill:#686AA2}
    .fil30 {fill:black}
    .fil14 {fill:#DABA76}
    .fil19 {fill:#F0F5FF}
    .fil16 {fill:#FF6600}
    .fil20 {fill:white}
    .fil23 {fill:white}
    .fil8 {fill:#FDDFD1;fill-rule:nonzero}
    .fil9 {fill:#FCD9C8;fill-rule:nonzero}
    .fil25 {fill:#D2AE6D;fill-rule:nonzero}
    .fil10 {fill:#DABA76;fill-rule:nonzero}
    .fil21 {fill:#8DA0D1;fill-rule:nonzero}
    .fil11 {fill:#6C87C3;fill-rule:nonzero}
    .fil12 {fill:#686AA2;fill-rule:nonzero}
    .fil29 {fill:#282828;fill-rule:nonzero}
    .fil26 {fill:#D2AE6D;fill-rule:nonzero}
    .fil18 {fill:#D6E4FF;fill-rule:nonzero}
    .fil24 {fill:#E2C89A;fill-rule:nonzero}
    .fil13 {fill:#EBF2FF;fill-rule:nonzero}
    .fil27 {fill:#F4DDB5;fill-rule:nonzero}
    .fil28 {fill:#F6E3C3;fill-rule:nonzero}
    .fil7 {fill:white;fill-rule:nonzero}
    .fil17 {fill:white;fill-rule:nonzero}
   ]]>
  </style>
 </defs>
 <g id="Layer_x0020_1">
  <metadata id="CorelCorpID_0Corel-Layer"/>
  <g id="_1882185679696">
   <polygon class="fil0" points="0,3387 16256,3387 16256,0 0,0 "/>
   <path class="fil1" d="M1792 644c0,0 368,110 360,-124 0,0 -5,-170 -219,-71 0,0 -7,-231 -192,-215 -185,17 -249,46 -249,46 0,0 6,-66 -70,-103 -114,-56 -287,-7 -287,-7 0,0 -121,31 -106,126 17,110 66,79 217,82 0,0 438,421 546,266z"/>
   <path class="fil2" d="M1856 3387c13,-82 23,-165 31,-250 32,-343 18,-702 -41,-1069 -59,-366 -159,-718 -298,-1045 -67,-157 -143,-307 -225,-447 -81,-138 -170,-267 -264,-383 -55,-69 -113,-133 -172,-193l-887 0 0 3362 73 25 1783 0z"/>
   <path class="fil3" d="M1859 3387c15,-101 26,-205 33,-312 20,-312 3,-639 -50,-974 -53,-334 -139,-655 -255,-954 -56,-144 -119,-282 -187,-410 -68,-127 -141,-245 -218,-351 -77,-107 -158,-203 -241,-285 -36,-36 -74,-70 -111,-101l-830 0 0 3387 1859 0z"/>
   <path class="fil4" d="M607 1349c231,-21 478,330 550,784 72,453 -58,839 -290,860 -232,22 -478,-330 -550,-783 -72,-453 58,-839 290,-861z"/>
   <path class="fil5" d="M441 0c550,188 1099,1038 1267,2093 75,473 62,919 -18,1294l231 0c11,-72 20,-145 26,-219 31,-342 16,-702 -43,-1068 -60,-367 -160,-718 -299,-1045 -66,-157 -142,-307 -224,-447 -81,-138 -170,-267 -263,-383 -65,-81 -133,-157 -203,-225l-474 0zm-441 2l5 -2 -5 0 0 2z"/>
   <path class="fil6" d="M500 837c375,-35 774,534 891,1267 89,566 -16,1067 -240,1283l330 0c58,-173 93,-372 106,-590 13,-228 0,-467 -39,-711 -39,-244 -101,-478 -184,-697 -81,-211 -178,-398 -290,-556 -111,-159 -230,-280 -355,-361 -129,-84 -257,-120 -382,-109 -125,12 -238,70 -337,175l0 1214c19,-509 210,-888 500,-915zm-500 2383c29,58 60,114 92,167l506 0c-259,-197 -485,-636 -568,-1157 -16,-107 -26,-212 -30,-313l0 1303z"/>
   <path class="fil6" d="M757 2089c0,0 225,680 279,803l59 -105c0,0 -223,-535 -338,-698z"/>
   <path class="fil4" d="M1036 2892c0,0 134,326 187,410 0,0 52,-73 63,-107 0,0 -158,-343 -190,-394l-60 91z"/>
   <path class="fil7" d="M5473 259c3,6 11,8 16,4 6,-3 8,-11 4,-17 -3,-5 -11,-7 -17,-4 -5,4 -7,12 -3,17z"/>
   <path class="fil8" d="M6994 322c4,6 11,8 17,4 6,-3 8,-11 4,-17 -4,-5 -11,-7 -17,-4 -5,4 -7,12 -4,17z"/>
   <path class="fil8" d="M5805 1138c4,6 11,8 17,4 6,-3 7,-11 4,-16 -4,-6 -11,-8 -17,-4 -5,3 -7,11 -4,16z"/>
   <path class="fil8" d="M5904 848c4,6 11,7 17,4 5,-4 7,-11 4,-17 -4,-6 -11,-8 -17,-4 -6,4 -8,11 -4,17z"/>
   <path class="fil8" d="M5488 633c4,6 11,8 17,4 6,-3 8,-11 4,-17 -4,-5 -11,-7 -17,-4 -5,4 -7,12 -4,17z"/>
   <path class="fil8" d="M4883 145c4,6 11,7 17,4 6,-4 7,-11 4,-17 -4,-6 -11,-8 -17,-4 -6,4 -7,11 -4,17z"/>
   <path class="fil8" d="M1805 1000c4,6 11,8 17,4 6,-3 7,-11 4,-16 -4,-6 -11,-8 -17,-4 -6,3 -7,11 -4,16z"/>
   <path class="fil7" d="M1586 884c4,6 11,7 17,4 5,-4 7,-11 4,-17 -4,-6 -11,-8 -17,-4 -6,4 -7,11 -4,17z"/>
   <path class="fil8" d="M2531 461c4,6 11,7 17,4 6,-4 8,-11 4,-17 -4,-6 -11,-8 -17,-4 -5,3 -7,11 -4,17z"/>
   <path class="fil7" d="M3207 454c4,5 11,7 17,4 6,-4 8,-12 4,-17 -3,-6 -11,-8 -17,-4 -5,3 -7,11 -4,17z"/>
   <path class="fil8" d="M3791 484c4,6 11,8 17,4 6,-3 8,-11 4,-17 -4,-5 -11,-7 -17,-4 -5,4 -7,12 -4,17z"/>
   <path class="fil8" d="M4047 262c3,6 11,8 16,4 6,-4 8,-11 4,-17 -3,-6 -11,-7 -17,-4 -5,4 -7,11 -3,17z"/>
   <path class="fil8" d="M4728 881c4,6 11,8 17,4 6,-3 7,-11 4,-17 -4,-5 -11,-7 -17,-4 -6,4 -7,12 -4,17z"/>
   <path class="fil8" d="M9621 310c4,6 11,8 17,4 6,-4 7,-11 4,-17 -4,-6 -11,-7 -17,-4 -5,4 -7,11 -4,17z"/>
   <path class="fil7" d="M2803 1073c4,6 11,7 17,4 5,-4 7,-11 4,-17 -4,-6 -11,-8 -17,-4 -6,3 -7,11 -4,17z"/>
   <path class="fil8" d="M8141 1303c3,5 11,7 16,4 6,-4 8,-11 4,-17 -3,-6 -11,-8 -17,-4 -5,3 -7,11 -3,17z"/>
   <path class="fil8" d="M3726 1201c4,6 11,8 17,4 6,-4 8,-11 4,-17 -4,-6 -11,-7 -17,-4 -5,4 -7,11 -4,17z"/>
   <path class="fil8" d="M4229 1173c4,6 11,8 17,4 6,-3 7,-11 4,-17 -4,-5 -11,-7 -17,-4 -6,4 -7,12 -4,17z"/>
   <path class="fil8" d="M4783 1402c3,6 11,8 16,4 6,-3 8,-11 4,-17 -3,-5 -11,-7 -17,-4 -5,4 -7,12 -3,17z"/>
   <path class="fil8" d="M3433 212c4,6 12,8 17,4 6,-3 8,-11 4,-17 -3,-5 -11,-7 -17,-3 -5,3 -7,11 -4,16z"/>
   <path class="fil8" d="M2994 176c4,6 11,8 17,4 5,-3 7,-11 4,-17 -4,-5 -11,-7 -17,-4 -6,4 -8,12 -4,17z"/>
   <path class="fil8" d="M2501 239c3,6 11,8 16,4 6,-4 8,-11 4,-17 -3,-6 -11,-7 -17,-4 -5,4 -7,11 -3,17z"/>
   <path class="fil8" d="M4463 830c3,6 11,8 17,4 5,-3 7,-11 3,-17 -3,-5 -11,-7 -16,-3 -6,3 -8,11 -4,16z"/>
   <path class="fil7" d="M4840 649c4,6 11,8 17,4 6,-4 8,-11 4,-17 -4,-6 -11,-7 -17,-4 -5,4 -7,11 -4,17z"/>
   <path class="fil7" d="M5089 1082c3,6 11,8 16,4 6,-3 8,-11 4,-17 -3,-5 -11,-7 -17,-4 -5,4 -7,12 -3,17z"/>
   <path class="fil8" d="M4609 3066c4,6 11,7 17,4 6,-4 7,-11 4,-17 -4,-6 -11,-8 -17,-4 -6,3 -7,11 -4,17z"/>
   <path class="fil8" d="M4243 584c4,6 11,8 17,4 6,-4 8,-11 4,-17 -4,-6 -11,-7 -17,-4 -5,4 -7,11 -4,17z"/>
   <path class="fil7" d="M3649 595c4,6 11,7 17,4 6,-4 8,-11 4,-17 -4,-6 -11,-8 -17,-4 -5,4 -7,11 -4,17z"/>
   <path class="fil8" d="M2944 828c4,6 11,8 17,4 6,-4 8,-11 4,-17 -4,-6 -11,-7 -17,-4 -5,4 -7,11 -4,17z"/>
   <path class="fil8" d="M2003 3084c3,6 11,8 17,4 5,-4 7,-11 4,-17 -4,-6 -11,-7 -17,-4 -6,4 -8,11 -4,17z"/>
   <path class="fil8" d="M2204 2602c4,6 11,8 17,4 6,-3 7,-11 4,-17 -4,-5 -11,-7 -17,-4 -6,4 -7,12 -4,17z"/>
   <path class="fil8" d="M3630 2665c4,6 11,8 17,4 6,-4 7,-11 4,-17 -4,-6 -11,-7 -17,-4 -6,4 -7,11 -4,17z"/>
   <path class="fil8" d="M6072 2320c4,6 11,8 17,4 5,-4 7,-11 4,-17 -4,-6 -11,-7 -17,-4 -6,4 -7,11 -4,17z"/>
   <path class="fil8" d="M6490 2453c4,6 11,8 17,4 6,-3 8,-11 4,-17 -3,-6 -11,-7 -17,-4 -5,4 -7,11 -4,17z"/>
   <path class="fil8" d="M4539 2783c4,6 11,7 17,4 6,-4 7,-11 4,-17 -4,-6 -11,-8 -17,-4 -6,4 -7,11 -4,17z"/>
   <path class="fil8" d="M2461 2730c4,6 11,7 17,4 6,-4 8,-11 4,-17 -4,-6 -11,-8 -17,-4 -5,4 -7,11 -4,17z"/>
   <path class="fil7" d="M2065 2987c3,6 11,7 16,4 6,-4 8,-11 4,-17 -3,-6 -11,-8 -17,-4 -5,4 -7,11 -3,17z"/>
   <path class="fil8" d="M8052 1938c4,6 11,7 17,4 6,-4 8,-11 4,-17 -4,-6 -11,-8 -17,-4 -5,3 -7,11 -4,17z"/>
   <path class="fil8" d="M2654 760c4,6 11,7 17,4 5,-4 7,-11 4,-17 -4,-6 -11,-8 -17,-4 -6,4 -8,11 -4,17z"/>
   <path class="fil8" d="M6659 1610c4,6 11,7 17,4 6,-4 7,-11 4,-17 -4,-6 -11,-8 -17,-4 -6,4 -7,11 -4,17z"/>
   <path class="fil7" d="M2215 481c4,6 11,8 17,4 6,-3 7,-11 4,-17 -4,-5 -11,-7 -17,-3 -6,3 -7,11 -4,16z"/>
   <path class="fil8" d="M2224 3048c3,5 11,7 16,3 6,-3 8,-11 4,-16 -3,-6 -11,-8 -16,-4 -6,3 -8,11 -4,17z"/>
   <path class="fil8" d="M2714 3143c3,6 11,8 16,4 6,-3 8,-11 4,-17 -3,-6 -11,-7 -16,-4 -6,4 -8,11 -4,17z"/>
   <path class="fil7" d="M4679 2815c4,5 11,7 17,4 6,-4 7,-12 4,-17 -4,-6 -11,-8 -17,-4 -5,3 -7,11 -4,17z"/>
   <path class="fil8" d="M5170 3133c3,6 11,8 16,4 6,-3 8,-11 4,-17 -3,-5 -11,-7 -16,-4 -6,4 -8,12 -4,17z"/>
   <path class="fil8" d="M5572 3210c4,5 12,7 17,3 6,-3 8,-11 4,-16 -3,-6 -11,-8 -17,-4 -5,3 -7,11 -4,17z"/>
   <path class="fil8" d="M4159 3045c4,6 11,8 17,4 6,-3 7,-11 4,-17 -4,-5 -11,-7 -17,-4 -6,4 -7,12 -4,17z"/>
   <g>
    <path class="fil9" d="M3421 1465l24 205 39 203c0,0 159,-19 322,-91l-54 -28c0,0 101,-27 255,-172 -191,-91 -294,-86 -294,-86l43 -43c-177,-19 -335,12 -335,12z"/>
    <path class="fil10" d="M3429 1534l16 136 26 135c0,0 106,-13 214,-61l-36 -18c0,0 67,-18 169,-114 -126,-61 -195,-58 -195,-58l28 -28c-117,-13 -222,8 -222,8z"/>
    <polygon class="fil11" points="3437,1415 3514,1915 3454,1925 3377,1425 "/>
    <path class="fil12" d="M3032 2076c0,0 258,310 678,173 39,-13 39,-69 0,-81 -110,-33 -256,-106 -307,-262l-371 170z"/>
    <path class="fil12" d="M2930 1410c0,0 153,-375 594,-372 41,0 58,53 24,77 -94,65 -212,179 -213,343l-405 -48z"/>
    <path class="fil13" d="M3378 1402c-145,-25 -737,-2 -1302,86 -639,100 -1333,513 -1319,603 13,89 799,271 1438,171 603,-94 1136,-248 1267,-316l-84 -544z"/>
    <path class="fil12" d="M1392 2268c40,-91 56,-187 41,-283 -15,-97 -59,-183 -124,-257 -316,142 -548,301 -553,358 0,2 0,3 1,5 0,1 0,2 1,4 21,52 290,133 634,173z"/>
    <path class="fil11" d="M2291 1625c-121,19 -203,133 -185,255 19,121 132,205 252,186 121,-19 203,-133 184,-255 -18,-121 -131,-205 -251,-186z"/>
    <path class="fil11" d="M2698 1655c-71,11 -119,78 -108,149 11,71 77,120 147,109 71,-11 119,-78 108,-149 -11,-71 -77,-120 -147,-109z"/>
    <path class="fil14" d="M2732 1881c53,-8 90,-58 82,-112l0 0c-9,-54 -58,-90 -111,-82l0 0c-54,8 -90,58 -82,112l0 0c4,23 15,43 30,57l0 0c21,20 51,30 81,25l0 0z"/>
    <path class="fil12" d="M3408 1598c167,-26 307,-13 313,29 6,42 -123,97 -289,123 -166,26 -306,13 -313,-29 -6,-42 123,-97 289,-123z"/>
   </g>
   <path class="fil15" d="M6052 2885c0,0 134,-215 -76,-239 -177,-21 -261,13 -261,13 0,0 138,-196 -8,-245 -145,-49 -517,67 -517,67 0,0 48,-163 -124,-131 -172,31 -295,136 -289,183 0,0 -72,184 424,149 0,0 17,337 533,208 0,0 173,216 318,-5z"/>
   <path class="fil8" d="M3786 3259c4,5 12,7 17,4 6,-4 8,-12 4,-17 -3,-6 -11,-8 -17,-4 -5,3 -7,11 -4,17z"/>
   <path class="fil8" d="M3211 2917c4,6 11,7 17,4 6,-4 7,-11 4,-17 -4,-6 -11,-7 -17,-4 -5,4 -7,11 -4,17z"/>
   <path class="fil8" d="M4004 2489c3,6 11,8 17,4 5,-3 7,-11 3,-17 -3,-6 -11,-7 -16,-4 -6,4 -8,11 -4,17z"/>
   <path class="fil8" d="M3215 3276c3,6 11,7 17,4 5,-4 7,-11 3,-17 -3,-6 -11,-8 -16,-4 -6,4 -8,11 -4,17z"/>
   <path class="fil7" d="M3419 3327c4,6 11,8 17,4 5,-3 7,-11 4,-17 -4,-5 -11,-7 -17,-3 -6,3 -8,11 -4,16z"/>
   <path class="fil7" d="M2923 2828c4,6 11,7 17,4 6,-4 8,-11 4,-17 -4,-6 -11,-8 -17,-4 -5,4 -7,11 -4,17z"/>
   <path class="fil8" d="M4195 2736c4,6 11,8 17,4 5,-3 7,-11 4,-17 -4,-5 -11,-7 -17,-3 -6,3 -8,11 -4,16z"/>
   <polygon class="fil16" points="1568,2240 1569,2238 1569,2240 "/>
   <polygon class="fil16" points="1470,2101 1470,2101 1471,2101 "/>
   <path class="fil8" d="M6562 1144c3,6 11,7 17,4 5,-4 7,-11 4,-17 -4,-6 -12,-7 -17,-4 -6,4 -8,11 -4,17z"/>
   <path class="fil8" d="M5172 1939c4,6 11,8 17,4 6,-3 7,-11 4,-17 -4,-5 -11,-7 -17,-4 -5,4 -7,12 -4,17z"/>
   <path class="fil7" d="M7417 2052c4,6 11,8 17,4 6,-3 8,-11 4,-17 -4,-5 -11,-7 -17,-3 -5,3 -7,11 -4,16z"/>
   <path class="fil7" d="M5561 1453c3,6 11,8 16,4 6,-4 8,-11 4,-17 -3,-6 -11,-7 -17,-4 -5,4 -7,11 -3,17z"/>
   <path class="fil8" d="M6204 3061c4,6 11,7 17,4 6,-4 8,-11 4,-17 -4,-6 -11,-8 -17,-4 -5,4 -7,11 -4,17z"/>
   <path class="fil8" d="M3285 2377c3,6 11,7 16,4 6,-4 8,-11 4,-17 -3,-6 -11,-8 -17,-4 -5,4 -7,11 -3,17z"/>
   <path class="fil8" d="M4348 2133c4,6 12,8 17,4 6,-3 8,-11 4,-17 -3,-5 -11,-7 -17,-4 -5,4 -7,12 -4,17z"/>
   <path class="fil8" d="M4764 2380c4,6 11,7 17,4 6,-4 8,-11 4,-17 -4,-6 -11,-8 -17,-4 -5,3 -7,11 -4,17z"/>
   <path class="fil8" d="M5883 1862c3,6 11,8 16,4 6,-3 8,-11 4,-16 -3,-6 -11,-8 -16,-4 -6,3 -8,11 -4,16z"/>
   <path class="fil8" d="M5393 2029c3,6 11,7 16,4 6,-4 8,-11 4,-17 -3,-6 -11,-8 -16,-4 -6,4 -8,11 -4,17z"/>
   <path class="fil8" d="M4602 1918c4,6 11,7 17,4 6,-4 8,-11 4,-17 -4,-6 -11,-8 -17,-4 -5,4 -7,11 -4,17z"/>
   <path class="fil8" d="M7699 3123c3,6 11,8 16,4 6,-3 8,-11 4,-17 -3,-5 -11,-7 -16,-3 -6,3 -8,11 -4,16z"/>
   <path class="fil7" d="M4689 2042c4,6 11,7 17,4 5,-4 7,-11 4,-17 -4,-6 -11,-8 -17,-4 -6,4 -8,11 -4,17z"/>
   <path class="fil8" d="M3968 1906c4,6 11,8 17,4 6,-3 7,-11 4,-17 -4,-5 -11,-7 -17,-4 -6,4 -7,11 -4,17z"/>
   <path class="fil8" d="M2709 2356c3,6 11,7 16,4 6,-4 8,-11 4,-17 -3,-6 -11,-8 -16,-4 -6,3 -8,11 -4,17z"/>
   <path class="fil8" d="M2562 3059c-27,1 -48,23 -48,50l-1 0c0,-27 -21,-49 -48,-50 27,-1 48,-23 48,-50l1 0c0,27 21,49 48,50z"/>
   <path class="fil17" d="M3900 821c33,-1 58,-28 59,-60l0 0c0,32 26,59 58,60 -32,1 -58,28 -58,60l0 0c0,-32 -26,-59 -59,-60z"/>
   <path class="fil8" d="M6681 496c-65,2 -117,56 -117,122l-2 0c0,-66 -52,-120 -117,-122 65,-2 118,-56 118,-122l0 0c0,66 53,120 118,122z"/>
   <g>
    <g>
     <path class="fil18" d="M2363 888c0,0 46,-28 69,-6 23,23 22,145 22,145l-99 -104 8 -35z"/>
     <path class="fil19" d="M2184 985c0,0 -73,19 -101,36 -28,16 -78,65 -99,87 0,0 1,48 41,53 0,0 78,-56 104,-61 26,-5 64,-14 64,-14l19 -93 -28 -8z"/>
     <path class="fil20" d="M1984 1108c0,0 -47,12 -56,24 -8,12 28,0 28,0 0,0 -40,27 -36,35 4,8 45,-20 45,-20 0,0 -42,25 -38,33 5,7 44,-19 44,-19 0,0 -27,28 -24,36 3,7 38,-23 38,-23 0,0 3,13 3,26 1,14 23,-2 37,-39l-41 -53z"/>
     <path class="fil11" d="M2030 1168c-2,2 -5,2 -7,1 -44,-19 -46,-59 -46,-61 0,-4 4,-8 8,-9 5,0 9,4 9,9 0,1 2,31 35,45 5,2 7,7 5,11 -1,2 -2,3 -4,4z"/>
     <path class="fil4" d="M2067 1031c0,0 25,53 44,76 0,0 7,5 18,-7 0,0 -1,-51 -27,-89 0,0 -20,1 -35,20z"/>
     <path class="fil21" d="M2196 1086l-5 0c-5,-55 9,-85 9,-86l5 2c0,0 -13,30 -9,84z"/>
     <path class="fil20" d="M2205 995c0,0 -48,112 45,217 0,0 -52,78 -59,108 -8,31 18,125 18,125 0,0 -2,2 -5,7 4,4 14,11 37,12 13,1 30,-1 52,-7 2,-3 4,-7 6,-10 0,0 -13,-80 -20,-104l57 -53 3 8c5,14 11,28 19,42 0,0 27,47 80,76 0,0 0,3 2,9 5,0 16,-2 28,-7l8 -4c12,-7 26,-20 35,-42 -2,-3 -4,-6 -6,-9 0,0 -49,-36 -59,-59l-11 -125c0,0 14,-32 -18,-86l-73 -140 -139 42z"/>
     <path class="fil5" d="M2248 1086c6,9 3,21 -7,26 -9,5 -20,2 -26,-7 -5,-9 -2,-21 7,-26 10,-6 21,-3 26,7z"/>
     <path class="fil11" d="M2468 1418l-1 0 0 1 0 0 -1 0 0 0 -1 0 0 0 0 0 0 0 -1 1 0 0 0 0 -1 0 0 0 0 0 -1 0 0 0 0 1 0 0 -1 0 0 0 0 0 -1 0 0 0 0 0 -1 0 0 0 0 0 -1 1 0 0 0 0 -1 0 0 0 0 0 0 0 -1 0 0 0 0 0 -1 0 0 0 0 1 0 0 -1 0 0 0 0 0 -1 0 0 0 0 0 0 0 0 0 -1 0 0 0 0 0 -1 0 0 0 0 0 -1 1 0 0 0 0 0 0 -1 0 0 0 0 0 0 0 0 0 -1 0 0 0 0 0 0 0 -1 0 0 0 0 0 0 0 0 0 -1 0 0 0 0 0 0 0 -1 0 0 0 0 0 0 0 0 0 -1 0 0 0 0 0 0 0 0 0 -1 0 0 1 0 0 0 0 0 0 0 0 -1 0 0 0 0 0 0 0 0 0 0 0 0 0 -1 0 0 0 0 0 0 0 0 0 -1 0 0 0 0 0 0 0c-2,0 -3,0 -3,0 -5,-1 -8,-4 -8,-9 0,-5 4,-9 9,-8 2,0 43,1 59,-48 2,-4 7,-7 11,-5 5,1 7,6 5,11l-2 6 0 1 0 0 -1 1 0 1 0 0 -1 1 0 0 0 1 0 0 -1 1 0 0 0 1 0 0 -1 1 0 0 0 1 0 0 -1 1 0 0 0 1 0 0 -1 0 0 1 0 0 -1 1 0 0 0 1 0 0 -1 1 0 0 0 1 0 0 -1 1 0 0 0 0 0 1 -1 0 0 1 -1 0 0 1 0 0 0 0 -1 1 0 0 0 1 0 0 -1 1 0 0 -1 0 0 0 0 1 0 0 -1 1 0 0 0 0 0 1 -1 0 0 0 0 1 -1 0 0 0 0 1 -1 0 0 0 0 1 -1 0 0 0 0 1 0 0 -1 0 0 0 -1 1 0 0 0 1 0 0 -1 0 0 0 0 1 0 0 -1 0 0 0 -1 1 0 0 0 0 0 0 -1 1 0 0 0 0 -1 1 0 0 0 0 -1 0 0 1 0 0 -1 0 0 0 0 1 0 0 -1 0 0 0 -1 0 0 1 0 0 0 0 -1 0 0 0 0 1 -1 0 0 0 0 0 0 0 -1 1 0 0 -1 0 0 0 0 0 0 1 -1 0 0 0 0 0 -8 4z"/>
     <path class="fil4" d="M2452 1312c-12,36 -66,67 -75,56 -10,-7 -16,-20 -16,-20 26,-45 83,-49 83,-49 0,0 6,3 8,13z"/>
     <path class="fil21" d="M2439 1187c-1,0 -3,1 -5,1 -3,-1 -76,-7 -107,58 -2,4 -7,6 -11,4 -5,-2 -6,-7 -4,-11 36,-77 123,-69 124,-68 5,0 8,4 8,9 -1,3 -2,5 -5,7z"/>
     <path class="fil11" d="M2303 1454c0,0 -1,1 -2,1l-8 2 -1 1 -1 0 0 0 -1 0 -1 0 -2 1 0 0 -1 0 -1 0 -1 0 0 0 -1 1 -2 0 0 0 -1 0 -1 0 -1 1 0 0 -1 0 0 0 -1 0 -1 0 0 0 -1 1 -1 0 -1 0 0 0 -1 0 -1 0 -1 0 0 0 -1 1 -1 0 -1 0 0 0 -1 0 -1 0 0 0 -1 0 0 0 -1 0 -1 0 0 0 -1 0 0 1 -1 0 -1 0 0 0 -1 0 0 0 -1 0 0 0 -1 0 -1 0 0 0 -1 0 0 0 -1 0 0 0 -1 0 0 0 -1 0 -1 0 0 0 -1 0 0 0 -1 0 0 0 -1 0 0 0 -1 0 0 0 -1 0 0 0 -1 0 0 0 -1 0 0 0 0 0 -1 0 -2 0 -1 0 0 0 -1 0 -1 0 0 0 -1 0 -1 0 0 0 -1 0 -1 0 0 0 -1 -1 0 0 -1 0 -1 0 0 0 0 0 -1 0 -1 0 0 0 -1 0 0 0 -1 -1 -1 0 0 0 0 0 -1 0 0 0 -1 0 0 -1 0 0 -1 0 -1 0 0 0 -1 0 0 0 0 0 -1 -1 0 0 0 0 -1 0 0 0 -1 0 0 -1 0 0 -1 0 0 0 -1 0 0 0 0 0 -1 -1 0 0 0 0 0 0 -1 0 0 0 -1 -1 0 0 0 0 -1 0 0 0 0 0 -1 -1 0 0 0 0 0 0 -1 0 0 0 0 -1 0 0 0 0 -1 0 0 0 0 0 0 -1 -1 0 0 0 0 0 0 0 0 0 -1 -1 0 0 0 0 0 0 0 0 -1 0 0 0 0 -1 0 0 0 0 0 0 0 0 0 0 -2 -3c-3,-3 -2,-9 2,-11 4,-3 9,-2 11,2 1,0 18,17 82,-2 4,-1 9,2 10,6 1,4 0,8 -4,10z"/>
     <path class="fil4" d="M2199 1299c0,0 61,18 80,44 20,26 -89,7 -89,7 0,0 -14,-26 9,-51z"/>
     <path class="fil21" d="M2326 1245c-3,2 -7,1 -10,-1 -33,-31 -63,-24 -64,-24 -5,1 -9,-1 -11,-6 -1,-5 2,-9 7,-10 1,-1 40,-10 79,27 4,3 4,9 1,12 -1,1 -1,1 -2,2z"/>
     <polygon class="fil21" points="2339,1289 2334,1291 2313,1237 2318,1235 "/>
     <path class="fil20" d="M2357 821c35,60 14,137 -46,172 -60,35 -137,15 -171,-45 -34,-60 -13,-137 47,-172 60,-35 136,-15 170,45z"/>
     <path class="fil5" d="M2321 975c-6,6 -13,12 -21,16 -56,33 -127,14 -159,-41 -14,-26 -18,-55 -13,-82l1 -1c1,-4 5,-6 9,-4 15,9 58,21 141,-42 5,-4 12,-3 15,2 17,24 55,88 31,148l-4 4z"/>
     <path class="fil20" d="M2536 1171c0,0 26,64 24,79 -2,15 -20,-19 -20,-19 0,0 11,47 3,50 -9,2 -19,-46 -19,-46 0,0 13,48 5,50 -9,3 -19,-44 -19,-44 0,0 0,39 -7,42 -8,4 -13,-42 -13,-42 0,0 -10,7 -20,17 -9,9 -15,-18 1,-55l65 -32z"/>
     <path class="fil19" d="M2368 939c0,0 -57,27 -43,79 0,0 32,38 92,75 0,0 14,12 26,40 12,29 25,70 25,70 0,0 33,6 68,-32 0,0 -6,-77 -43,-130 -38,-54 -125,-102 -125,-102z"/>
     <path class="fil11" d="M2516 1205c-19,10 -37,10 -48,7 -4,-2 -7,-7 -5,-11 1,-5 6,-7 10,-6 2,1 34,10 56,-28 2,-4 8,-5 12,-3 4,2 5,8 3,12 -9,14 -18,23 -28,29z"/>
     <path class="fil4" d="M2431 1110c0,0 68,-41 62,-69 0,0 10,9 20,38 0,0 -30,35 -76,41 0,0 -3,1 -6,-10z"/>
     <path class="fil21" d="M2335 1033c0,0 -1,0 -1,1 -6,2 -13,-1 -15,-7 -20,-55 20,-89 45,-99 5,-2 12,1 14,7 3,5 0,12 -6,14 -5,3 -49,23 -32,70 2,5 0,11 -5,14z"/>
    </g>
    <path class="fil20" d="M2189 1511c10,26 75,-9 104,-54 -22,6 -39,8 -52,7 -23,-1 -33,-8 -37,-12 -4,5 -8,11 -11,19 -6,13 -9,27 -4,40z"/>
    <path class="fil20" d="M2495 1503c26,9 41,-29 35,-74 -2,-19 -8,-39 -19,-57 -9,22 -23,35 -35,42l-8 4c-12,5 -23,7 -28,7 1,3 3,8 5,13 9,23 25,57 50,65z"/>
   </g>
   <g>
    <circle class="fil22" cx="2324" cy="1846" r="169"/>
    <path class="fil23" d="M2356 1893l0 32 -127 0 0 -32 127 0zm-127 -95l0 -32c63,0 127,0 191,0l-32 32c-53,0 -106,0 -159,0zm191 32c0,31 0,63 0,95l-32 0 0 -64 0 0 -159 0 0 -31c63,0 127,0 191,0z"/>
   </g>
   <path class="fil5" d="M1286 3195c0,0 14,33 85,192l-105 0 -43 -85 63 -107z"/>
   <path class="fil17" d="M8777 2771c46,-1 83,-39 83,-86l1 0c0,47 37,85 83,86 -46,2 -83,40 -83,87l-1 0c0,-47 -37,-85 -83,-87z"/>
   <path class="fil7" d="M14843 697c4,-6 11,-8 17,-4 6,3 7,11 4,17 -4,5 -11,7 -17,3 -6,-3 -7,-11 -4,-16z"/>
   <path class="fil8" d="M15044 2900c-6,3 -8,11 -4,17 4,5 11,7 17,4 6,-4 7,-11 4,-17 -4,-6 -11,-8 -17,-4z"/>
   <path class="fil8" d="M9688 2141c-6,4 -8,11 -4,17 3,5 11,7 17,4 5,-4 7,-11 3,-17 -3,-6 -11,-8 -16,-4z"/>
   <path class="fil8" d="M9978 2240c-6,3 -7,11 -4,16 4,6 11,8 17,4 6,-3 8,-11 4,-16 -4,-6 -11,-8 -17,-4z"/>
   <path class="fil8" d="M11442 2895c-6,4 -7,11 -4,17 4,5 11,7 17,4 6,-4 8,-11 4,-17 -4,-6 -11,-7 -17,-4z"/>
   <path class="fil8" d="M14254 811c3,-6 11,-7 17,-4 5,4 7,11 4,17 -4,6 -11,8 -17,4 -6,-4 -8,-11 -4,-17z"/>
   <path class="fil8" d="M13882 3167c-6,4 -7,11 -4,17 4,6 11,8 17,4 6,-4 8,-11 4,-17 -4,-5 -11,-7 -17,-4z"/>
   <path class="fil8" d="M12077 1519c-6,4 -7,11 -4,17 4,6 11,7 17,4 6,-4 8,-11 4,-17 -4,-6 -11,-7 -17,-4z"/>
   <path class="fil8" d="M15224 2238c-6,3 -8,11 -4,17 3,5 11,7 17,3 6,-3 7,-11 4,-16 -4,-6 -11,-8 -17,-4z"/>
   <path class="fil7" d="M12405 341c-6,3 -8,11 -4,17 3,5 11,7 17,3 5,-3 7,-11 3,-16 -3,-6 -11,-8 -16,-4z"/>
   <path class="fil7" d="M7242 1167c-6,4 -8,11 -4,17 3,6 11,7 17,4 5,-4 7,-11 4,-17 -4,-6 -12,-7 -17,-4z"/>
   <path class="fil8" d="M9220 1710c-6,4 -7,11 -4,17 4,6 11,7 17,4 6,-4 8,-11 4,-17 -4,-5 -11,-7 -17,-4z"/>
   <path class="fil8" d="M11196 554c-6,4 -8,11 -4,17 4,5 11,7 17,4 6,-4 7,-11 4,-17 -4,-6 -11,-7 -17,-4z"/>
   <path class="fil7" d="M9696 2913c-6,3 -8,11 -4,16 3,6 11,8 17,4 6,-3 7,-11 4,-16 -4,-6 -11,-8 -17,-4z"/>
   <path class="fil8" d="M8693 684c-6,4 -8,11 -4,17 3,6 11,7 17,4 5,-4 7,-11 4,-17 -4,-6 -12,-7 -17,-4z"/>
   <path class="fil8" d="M8964 2218c-6,4 -8,11 -4,17 3,6 11,7 17,4 5,-4 7,-11 3,-17 -3,-6 -11,-7 -16,-4z"/>
   <path class="fil8" d="M8797 1728c-6,4 -7,11 -4,17 4,6 11,7 17,4 6,-4 8,-11 4,-17 -4,-5 -11,-7 -17,-4z"/>
   <path class="fil8" d="M10472 364c-6,3 -8,11 -4,17 4,5 11,7 17,3 6,-3 7,-11 4,-16 -4,-6 -11,-8 -17,-4z"/>
   <path class="fil8" d="M8967 1173c-6,3 -7,11 -4,16 4,6 11,8 17,4 6,-3 8,-11 4,-17 -4,-5 -11,-7 -17,-3z"/>
   <path class="fil7" d="M7123 2596c-6,3 -8,11 -4,17 3,5 11,7 17,3 5,-3 7,-11 3,-16 -3,-6 -11,-8 -16,-4z"/>
   <path class="fil8" d="M7898 450c3,6 11,8 16,4 6,-3 8,-11 4,-17 -3,-5 -11,-7 -16,-3 -6,3 -8,11 -4,16z"/>
   <g>
    <g id="_2425988439968">
     <path class="fil24" d="M6707 2220c0,-121 96,-217 217,-217 119,0 216,96 216,217 0,119 -97,216 -216,216 -121,0 -217,-97 -217,-216z"/>
     <path class="fil25" d="M7091 2082c30,38 49,85 49,138 0,119 -97,216 -216,216 -68,0 -127,-30 -167,-77 0,0 164,62 264,-38 101,-101 70,-239 70,-239l0 0z"/>
     <path class="fil26" d="M6801 2139c-18,0 -18,-29 0,-29 20,0 20,29 0,29z"/>
     <path class="fil26" d="M6792 2270c-20,0 -20,-29 0,-29 18,0 18,29 0,29z"/>
     <path class="fil27" d="M6994 2084c-3,4 -7,7 -10,10 -5,6 -15,6 -21,0 -6,-5 -6,-15 0,-20 3,-4 7,-8 10,-10 6,-6 15,-6 21,0 6,5 6,15 0,20l0 0z"/>
    </g>
   </g>
   <g>
    <g id="_2425989898016">
     <path class="fil24" d="M15297 1419c59,-103 192,-139 296,-79 103,59 138,192 79,295 -60,104 -192,139 -296,80 -103,-60 -139,-193 -79,-296z"/>
     <path class="fil25" d="M15698 1492c8,48 0,98 -26,143 -60,104 -192,139 -296,80 -58,-34 -94,-90 -105,-151 0,0 110,136 248,99 137,-37 179,-171 179,-171l0 0z"/>
     <path class="fil26" d="M15393 1613c3,-1 7,-2 10,-3 6,-2 9,-8 8,-13 -2,-5 -8,-9 -14,-7 -3,0 -6,2 -9,2 -5,2 -9,8 -8,13 2,5 8,9 13,8l0 0z"/>
     <path class="fil26" d="M15468 1368c-12,-7 -23,12 -11,19 11,6 22,-12 11,-19z"/>
     <path class="fil27" d="M15554 1564l-6 -4c-8,-4 -15,8 -7,12l7 4c7,5 14,-7 6,-12z"/>
     <path class="fil26" d="M15499 1574c-16,-9 -30,15 -15,24 16,9 31,-15 15,-24z"/>
     <path class="fil28" d="M15442 1465c-27,-16 -52,27 -24,43 27,16 52,-27 24,-43z"/>
    </g>
   </g>
   <g>
    <path class="fil29" d="M11928 1564c-7,0 -15,-2 -22,-4 -8,-3 -14,-8 -19,-16 -3,4 -6,8 -11,10 -4,3 -8,5 -13,7 -5,1 -10,2 -16,2 -5,0 -10,1 -15,1l-171 0c-15,0 -28,-1 -38,-4 -11,-2 -19,-6 -25,-10 -6,-5 -11,-12 -13,-19 -3,-8 -4,-18 -4,-29l0 -64 50 0 0 57c0,6 1,10 2,13 2,3 4,5 7,7 4,1 8,3 14,3 6,1 13,1 22,1l147 0c9,0 15,-1 19,-4 3,-3 5,-9 5,-18l0 -88 50 0 0 83c0,10 2,17 6,21 4,4 13,6 25,6 2,0 4,0 6,1 2,0 3,1 5,2 1,2 2,4 3,7 1,2 1,6 1,11 0,9 -1,15 -3,19 -3,3 -7,5 -12,5zm-214 121c0,-7 2,-14 8,-19 5,-6 12,-8 19,-8 8,0 14,2 19,8 6,5 9,12 9,19 0,7 -3,14 -9,19 -5,6 -11,9 -19,9 -7,0 -14,-3 -19,-9 -6,-5 -8,-12 -8,-19zm-32 -56c0,-8 3,-14 8,-20 5,-5 12,-8 19,-8 8,0 14,3 20,8 5,6 8,12 8,20 0,7 -3,14 -8,19 -6,6 -12,8 -20,8 -7,0 -14,-2 -19,-8 -5,-5 -8,-12 -8,-19zm63 0c0,-8 3,-14 8,-20 6,-5 12,-8 20,-8 7,0 14,3 19,8 5,6 8,12 8,20 0,7 -3,14 -8,19 -5,6 -12,8 -19,8 -8,0 -14,-2 -20,-8 -5,-5 -8,-12 -8,-19zm183 -65c-2,0 -4,-1 -6,-1 -2,0 -3,-1 -5,-3 -1,-1 -2,-4 -3,-7 -1,-2 -1,-6 -1,-11 0,-9 1,-15 3,-18 3,-4 7,-5 12,-5l61 0 0 -110 51 0 0 155 -112 0zm4 65c0,-8 3,-14 8,-20 6,-5 12,-8 20,-8 7,0 14,3 19,8 5,6 8,12 8,20 0,7 -3,14 -8,19 -5,6 -12,8 -19,8 -8,0 -14,-2 -20,-8 -5,-5 -8,-12 -8,-19zm63 0c0,-8 3,-14 9,-20 5,-5 11,-8 19,-8 7,0 14,3 19,8 6,6 9,12 9,20 0,7 -3,14 -9,19 -5,6 -12,8 -19,8 -7,0 -14,-2 -19,-8 -6,-5 -9,-12 -9,-19zm249 -65c-7,0 -14,-1 -19,-2 -5,0 -10,-1 -14,-3 -3,-2 -7,-4 -10,-6 -4,-3 -7,-5 -11,-9 -7,9 -15,14 -24,16 -9,3 -18,4 -28,4l-68 0 0 -45 77 0c6,0 11,-1 14,-3 3,-2 4,-4 4,-7 0,-3 -1,-6 -3,-10 -3,-4 -7,-11 -14,-21l-36 -52 47 -30 46 79c5,9 9,15 13,21 4,6 7,10 10,14 3,3 6,5 8,7 3,1 6,2 8,2 2,0 4,0 6,1 2,0 4,1 5,2 1,2 3,4 3,7 1,2 1,6 1,11 0,9 -1,15 -3,19 -3,3 -7,5 -12,5zm41 -222c0,-7 3,-14 8,-19 6,-6 12,-9 20,-9 7,0 14,3 19,9 6,5 8,12 8,19 0,8 -2,14 -8,20 -5,5 -12,8 -19,8 -7,0 -14,-3 -19,-8 -6,-6 -9,-12 -9,-20zm4 177l0 -110 51 0 0 155 -96 0c-2,0 -4,-1 -5,-1 -2,0 -4,-1 -5,-3 -2,-1 -3,-3 -4,-6 -1,-3 -1,-7 -1,-12 0,-9 1,-15 4,-18 2,-3 6,-5 11,-5l45 0zm203 45c-4,0 -8,-1 -14,-3 -6,-1 -11,-5 -16,-10 0,18 -2,32 -6,44 -4,12 -10,22 -17,29 -8,7 -18,12 -30,15 -12,3 -26,5 -43,5l0 -47c11,0 19,-2 26,-4 6,-2 10,-5 14,-10 3,-4 5,-10 6,-16 0,-7 1,-16 1,-25l0 -116 50 0 0 66c0,10 3,17 9,21 6,4 13,6 20,6 2,0 4,0 5,1 2,0 4,1 5,2 2,2 3,4 4,7 0,2 1,6 1,11 0,9 -1,15 -4,19 -2,3 -6,5 -11,5zm15 -45c6,0 11,0 14,0 4,-1 7,-1 10,-3 2,-1 4,-3 5,-5 1,-3 1,-6 1,-11l0 -74 50 0 0 66c0,9 2,15 7,20 4,5 11,7 21,7 7,0 14,-1 19,-3 5,-3 8,-8 8,-16l0 -74 50 0 0 66c0,18 8,27 23,27l24 0 0 -110 51 0 0 155 -60 0c-13,0 -24,-2 -31,-5 -7,-3 -13,-9 -17,-15 -4,4 -8,8 -13,11 -4,3 -9,5 -14,6 -4,1 -9,2 -13,2 -5,0 -9,1 -13,1 -13,0 -24,-3 -33,-7 -9,-4 -16,-9 -20,-13 -6,9 -15,14 -27,16 -11,3 -25,4 -42,4l-16 0c-2,0 -3,-1 -5,-1 -2,0 -4,-1 -5,-3 -2,-1 -3,-3 -4,-6 0,-3 -1,-7 -1,-12 0,-9 2,-15 4,-18 2,-3 6,-5 11,-5l16 0zm414 66c0,-12 0,-23 2,-32 1,-8 3,-16 7,-22 4,-7 9,-12 16,-17 6,-4 14,-9 24,-13 3,-16 7,-30 13,-42 7,-11 14,-20 21,-27 8,-7 16,-12 25,-15 8,-2 16,-4 24,-4 10,0 20,2 29,6 9,4 16,9 22,16 6,7 11,16 15,25 3,10 5,21 5,33 0,23 -6,41 -17,55 -12,14 -29,20 -52,20 -22,0 -45,-7 -69,-23 -5,3 -9,7 -11,13 -2,7 -3,16 -3,27l0 133 -51 0 0 -133zm155 -94c0,-8 -2,-15 -7,-22 -5,-7 -12,-10 -21,-10 -8,0 -15,4 -22,12 -7,7 -12,20 -14,37 7,4 14,8 21,10 7,3 13,4 18,4 8,0 14,-3 18,-9 5,-5 7,-12 7,-22zm141 -204l0 277 -50 0 0 -277 50 0zm180 139l51 0 0 116c0,18 -2,34 -4,47 -3,13 -8,24 -15,32 -7,8 -17,14 -30,17 -12,4 -28,6 -48,6l0 -47c11,0 19,-2 25,-4 6,-2 11,-5 14,-10 3,-4 5,-10 6,-16 1,-7 1,-16 1,-25l0 -116zm147 -139l0 277 -50 0 0 -277 50 0zm-93 -50c7,-7 14,-12 20,-14 6,-3 12,-4 17,-4 5,0 11,1 18,4 7,2 13,5 19,8 5,3 11,5 16,6 5,2 10,3 13,3 5,0 9,-2 12,-6 3,-4 6,-8 7,-12l20 9c-5,12 -10,21 -15,27 -6,6 -14,9 -24,9 -7,0 -14,-1 -20,-3 -6,-2 -12,-4 -18,-7 -6,-3 -11,-5 -17,-7 -5,-2 -10,-3 -14,-3 -4,0 -7,1 -10,2 -3,1 -7,3 -12,7l-12 -19zm483 327c1,2 1,4 1,7 1,3 1,7 1,10 0,11 -2,21 -6,29 -4,9 -11,17 -21,23 -10,7 -24,12 -41,16 -17,3 -39,5 -65,5 -25,0 -46,-2 -62,-7 -17,-5 -30,-12 -40,-20 -9,-8 -16,-18 -20,-30 -4,-11 -6,-23 -6,-36l0 -64 51 0 0 62c0,17 6,29 18,37 12,8 32,11 60,11 18,0 33,-1 44,-3 11,-2 19,-4 25,-7 6,-3 10,-7 12,-10 2,-3 3,-6 3,-9 0,-7 -6,-12 -20,-17 -13,-5 -31,-10 -54,-16l0 -46c18,6 34,10 49,14 16,4 30,6 42,6l49 0c2,0 4,0 6,1 2,0 3,1 5,2 1,2 2,4 3,7 1,2 1,6 1,11 0,9 -1,15 -4,19 -2,3 -6,5 -11,5l-20 0zm36 -45c5,0 10,0 14,0 4,-1 7,-1 9,-3 2,-1 4,-3 5,-5 1,-3 2,-6 2,-11l0 -74 49 0 0 66c0,9 2,15 7,20 4,5 11,7 21,7 8,0 14,-1 19,-3 6,-3 8,-8 8,-16l0 -74 51 0 0 66c0,18 7,27 23,27l24 0 0 -110 50 0 0 155 -59 0c-14,0 -24,-2 -31,-5 -7,-3 -13,-9 -18,-15 -4,4 -8,8 -13,11 -4,3 -9,5 -13,6 -5,1 -9,2 -14,2 -4,0 -9,1 -13,1 -13,0 -24,-3 -33,-7 -9,-4 -15,-9 -19,-13 -7,9 -16,14 -27,16 -12,3 -26,4 -43,4l-15 0c-2,0 -4,-1 -6,-1 -2,0 -3,-1 -5,-3 -1,-1 -2,-3 -3,-6 -1,-3 -1,-7 -1,-12 0,-9 1,-15 3,-18 3,-3 7,-5 12,-5l16 0zm-2505 602c-9,0 -16,-2 -21,-5 -6,-4 -10,-9 -13,-14 0,19 -1,34 -3,47 -3,13 -7,23 -13,31 -6,8 -15,14 -26,17 -10,4 -25,6 -42,6l0 -33c13,0 23,-1 30,-4 7,-2 12,-7 16,-13 3,-6 5,-14 6,-23 1,-10 1,-21 1,-35l0 -104 31 0 0 56c0,13 3,23 8,31 4,7 13,11 26,11 10,0 16,5 16,16 0,6 -2,11 -4,13 -3,2 -7,3 -12,3zm0 0c-11,0 -16,-5 -16,-15 0,-7 2,-11 4,-13 2,-3 6,-4 12,-4l26 0c6,0 11,0 16,-1 4,0 8,-1 11,-3 3,-2 5,-5 6,-9 2,-3 3,-9 3,-15l0 -89 31 0 0 75c0,6 1,12 2,17 1,6 2,10 5,14 2,3 6,6 10,8 5,2 10,3 17,3 10,0 16,5 16,16 0,6 -2,11 -4,13 -3,2 -6,3 -12,3 -10,0 -18,-2 -24,-7 -7,-5 -11,-11 -13,-18 -5,11 -12,18 -22,21 -10,3 -22,4 -36,4l-32 0zm30 59c0,-6 2,-11 7,-15 4,-3 8,-5 14,-5 6,0 11,2 15,5 4,4 6,9 6,15 0,6 -2,10 -6,15 -4,4 -9,6 -15,6 -6,0 -10,-2 -14,-6 -5,-5 -7,-9 -7,-15zm51 0c0,-6 2,-11 6,-15 4,-3 9,-5 15,-5 5,0 10,2 14,5 4,4 6,9 6,15 0,6 -2,10 -6,15 -4,4 -9,6 -14,6 -6,0 -11,-2 -15,-6 -4,-5 -6,-9 -6,-15zm60 -91c8,0 15,0 21,-1 6,0 11,-1 14,-3 4,-2 6,-5 8,-9 1,-3 2,-9 2,-15l0 -70 32 0 0 56c0,6 0,12 1,17 1,6 3,10 6,14 3,3 7,6 12,8 5,2 12,3 21,3 6,0 11,0 15,-1 4,0 8,-1 11,-3 2,-2 5,-5 6,-9 1,-3 2,-9 2,-15l0 -70 32 0 0 56c0,6 0,12 1,17 1,6 3,10 6,14 3,3 6,6 11,8 5,2 11,3 19,3 4,0 8,0 12,-1 3,0 7,-1 9,-3 3,-2 5,-5 6,-9 2,-3 2,-9 2,-15l0 -89 32 0 0 75c0,6 1,12 2,17 0,6 2,10 5,14 2,3 6,6 10,8 5,2 10,3 17,3 10,0 15,5 15,16 0,6 -1,11 -3,13 -3,2 -7,3 -12,3 -10,0 -18,-2 -24,-7 -7,-5 -11,-11 -13,-18 -2,6 -5,10 -10,13 -4,3 -8,6 -13,8 -5,2 -9,3 -13,3 -5,1 -9,1 -12,1 -8,0 -16,0 -21,-2 -6,-2 -11,-4 -15,-6 -4,-2 -7,-5 -9,-8 -2,-3 -4,-6 -5,-9 -5,11 -12,18 -22,21 -9,3 -21,4 -34,4 -9,0 -17,0 -23,-2 -6,-1 -11,-3 -15,-6 -4,-2 -7,-5 -9,-8 -3,-3 -5,-6 -6,-9 -2,5 -5,10 -9,13 -3,3 -8,6 -13,8 -6,2 -13,3 -21,3 -8,1 -18,1 -29,1l-13 0c-10,0 -16,-5 -16,-15 0,-7 2,-11 4,-13 3,-3 6,-4 12,-4l14 0zm315 32c-10,0 -15,-5 -15,-15 0,-7 1,-11 3,-13 3,-3 7,-4 12,-4l16 0c3,0 6,0 10,-1 3,-1 7,-2 10,-5 3,-3 6,-6 10,-11 3,-4 6,-10 9,-18 6,-17 12,-30 19,-40 6,-10 13,-18 20,-24 7,-5 14,-9 21,-11 7,-2 14,-3 21,-3 10,0 19,2 27,6 8,4 16,9 22,16 6,7 10,15 14,24 3,10 5,20 5,32 0,22 -5,40 -16,53 -10,13 -27,20 -49,20 -13,0 -25,-3 -37,-7 -13,-4 -25,-11 -39,-21 -3,5 -6,9 -10,12 -3,3 -7,6 -11,7 -4,2 -8,2 -12,3 -4,0 -9,0 -13,0l-17 0zm172 -68c0,-6 -1,-11 -3,-17 -1,-5 -4,-10 -7,-14 -3,-4 -7,-8 -12,-10 -4,-3 -10,-4 -16,-4 -11,0 -21,5 -30,15 -9,9 -17,26 -25,50 9,6 19,11 28,15 9,4 19,6 29,6 11,0 20,-4 26,-10 7,-6 10,-16 10,-31zm214 -62l32 0 0 109c0,19 -1,35 -3,48 -3,13 -7,24 -13,32 -6,8 -15,14 -26,17 -11,4 -25,6 -42,6l0 -33c12,0 22,-1 29,-4 7,-2 13,-7 16,-13 4,-6 6,-14 6,-23 1,-10 1,-21 1,-35l0 -104zm213 88c0,12 -4,22 -13,30 -8,8 -20,12 -37,12l-93 0 0 -32 91 0c8,0 14,-1 16,-4 3,-3 4,-6 4,-9 0,-3 -1,-5 -2,-8 -1,-3 -3,-8 -7,-14 -4,-6 -10,-15 -18,-26 -8,-12 -18,-27 -31,-46l30 -19c10,18 19,33 27,45 7,12 14,23 18,31 5,9 9,16 12,22 2,6 3,12 3,18zm235 26c0,6 -1,11 -3,13 -3,2 -7,3 -12,3l-10 0c-9,0 -16,0 -23,-2 -7,-2 -13,-5 -18,-9 -4,-4 -8,-9 -11,-16 -3,-7 -4,-16 -4,-26l0 -223 32 0 0 214c0,11 2,19 5,23 3,5 11,7 23,7l6 0c10,0 15,5 15,16zm223 16c-10,0 -18,-2 -25,-5 -8,-4 -13,-11 -18,-20l0 -1c-5,10 -12,18 -21,23 -10,6 -22,9 -36,9 -12,0 -25,-3 -37,-7 -12,-4 -25,-11 -38,-21 -3,5 -7,9 -10,12 -4,3 -8,6 -11,7 -4,2 -8,2 -13,3 -4,0 -8,0 -13,0l-16 0c-11,0 -16,-5 -16,-15 0,-7 1,-11 4,-13 2,-3 6,-4 12,-4l16 0c3,0 6,0 9,-1 4,-1 7,-2 10,-5 4,-3 7,-6 10,-11 3,-4 7,-10 9,-18 6,-17 13,-30 19,-40 7,-10 13,-18 20,-24 7,-5 14,-9 21,-11 7,-2 15,-3 22,-3 9,0 18,2 26,6 9,4 16,9 22,16 6,7 11,15 14,24 4,10 6,20 6,32 0,2 0,3 -1,5 0,2 0,4 0,5 3,8 7,15 12,19 5,4 12,6 23,6 11,0 16,5 16,16 0,6 -2,11 -4,13 -2,2 -6,3 -12,3zm-67 -68c0,-6 0,-11 -2,-17 -2,-5 -4,-10 -7,-14 -4,-4 -8,-8 -12,-10 -5,-3 -10,-4 -16,-4 -11,0 -21,5 -30,15 -9,9 -18,26 -26,50 10,6 19,11 29,15 9,4 19,6 29,6 10,0 19,-4 26,-10 6,-6 9,-16 9,-31zm81 36c8,0 16,0 21,-1 6,0 11,-1 15,-3 3,-2 6,-5 7,-9 2,-3 2,-9 2,-15l0 -70 32 0 0 56c0,6 1,12 1,17 1,6 3,10 6,14 3,3 7,6 12,8 5,2 12,3 21,3 6,0 11,0 15,-1 4,0 8,-1 11,-3 3,-2 5,-5 6,-9 2,-3 2,-9 2,-15l0 -70 32 0 0 56c0,6 1,12 2,17 1,6 2,10 5,14 2,3 6,6 10,8 4,2 10,3 17,3l32 0 0 -117 32 0 0 149 -64 0c-10,0 -19,-2 -25,-7 -6,-5 -10,-11 -12,-18 -5,11 -12,18 -22,21 -10,3 -21,4 -35,4 -9,0 -17,0 -23,-2 -5,-1 -10,-3 -14,-6 -4,-2 -7,-5 -9,-8 -2,-3 -4,-6 -6,-9 -2,5 -5,10 -9,13 -3,3 -8,6 -13,8 -6,2 -13,3 -21,3 -8,1 -18,1 -29,1l-13 0c-10,0 -15,-5 -15,-15 0,-7 1,-11 3,-13 3,-3 7,-4 12,-4l14 0zm119 -182c0,-6 2,-11 6,-15 4,-4 9,-6 14,-6 6,0 11,2 15,6 4,4 6,9 6,15 0,6 -2,10 -6,14 -4,4 -9,6 -15,6 -5,0 -10,-2 -14,-6 -4,-4 -6,-8 -6,-14zm50 0c0,-6 2,-11 6,-15 4,-4 9,-6 15,-6 5,0 10,2 14,6 4,4 6,9 6,15 0,6 -2,10 -6,14 -4,4 -9,6 -14,6 -6,0 -11,-2 -15,-6 -4,-4 -6,-8 -6,-14zm-24 -47c0,-5 2,-10 6,-14 4,-4 9,-6 14,-6 6,0 11,2 15,6 4,4 6,9 6,14 0,6 -2,11 -6,15 -4,4 -9,6 -15,6 -5,0 -10,-2 -14,-6 -4,-4 -6,-9 -6,-15zm344 138c-6,0 -12,2 -18,5 -5,3 -10,7 -14,11 -4,5 -7,11 -9,17 -2,7 -3,14 -3,21 0,7 1,13 3,18 3,5 6,9 10,13 4,3 9,5 14,6 5,2 11,2 17,2 5,0 10,0 16,-1 5,-1 10,-3 14,-6 4,-3 8,-7 10,-12 3,-5 4,-11 4,-18 0,-9 -1,-17 -4,-23 -2,-7 -5,-13 -9,-18 -4,-5 -9,-8 -14,-11 -6,-3 -11,-4 -17,-4zm-73 57c0,-10 1,-21 5,-31 3,-11 8,-20 15,-29 6,-8 14,-15 23,-20 9,-6 20,-8 31,-8 10,0 20,2 28,6 9,4 17,9 23,17 7,8 12,17 16,28 4,11 5,23 5,37 0,9 -1,17 -4,25 -2,8 -7,15 -13,22 -6,6 -14,11 -23,15 -10,4 -21,6 -34,6 -11,0 -21,-1 -30,-4 -8,-2 -16,-7 -22,-12 -7,-6 -12,-13 -15,-22 -3,-8 -5,-18 -5,-30zm225 -210l0 276 -32 0 0 -276 32 0zm147 276c-8,0 -15,-2 -21,-5 -6,-4 -10,-9 -13,-14 0,19 -1,34 -3,47 -2,13 -6,23 -13,31 -6,8 -14,14 -25,17 -11,4 -25,6 -43,6l0 -33c13,0 23,-1 30,-4 7,-2 12,-7 16,-13 3,-6 6,-14 6,-23 1,-10 1,-21 1,-35l0 -104 32 0 0 56c0,13 2,23 7,31 5,7 13,11 26,11 11,0 16,5 16,16 0,6 -1,11 -4,13 -2,2 -6,3 -12,3zm239 0c-10,0 -19,-2 -26,-5 -7,-4 -13,-11 -17,-20l0 -1c-5,10 -13,18 -22,23 -9,6 -21,9 -35,9 -13,0 -25,-3 -37,-7 -13,-4 -25,-11 -39,-21 -3,5 -6,9 -10,12 -3,3 -7,6 -11,7 -4,2 -8,2 -12,3 -4,0 -9,0 -13,0l-17 0c-10,0 -15,-5 -15,-15 0,-7 1,-11 3,-13 3,-3 7,-4 12,-4l16 0c3,0 6,0 10,-1 3,-1 6,-2 10,-5 3,-3 6,-6 10,-11 3,-4 6,-10 9,-18 6,-17 12,-30 19,-40 6,-10 13,-18 20,-24 7,-5 14,-9 21,-11 7,-2 14,-3 21,-3 10,0 18,2 27,6 8,4 16,9 22,16 6,7 10,15 14,24 3,10 5,20 5,32 0,2 0,3 0,5 0,2 0,4 0,5 2,8 6,15 11,19 5,4 13,6 24,6 10,0 15,5 15,16 0,6 -1,11 -3,13 -3,2 -7,3 -12,3zm-67 -68c0,-6 -1,-11 -3,-17 -1,-5 -4,-10 -7,-14 -3,-4 -7,-8 -12,-10 -4,-3 -10,-4 -16,-4 -11,0 -21,5 -30,15 -9,9 -18,26 -25,50 9,6 19,11 28,15 9,4 19,6 29,6 11,0 19,-4 26,-10 7,-6 10,-16 10,-31zm67 68c-11,0 -16,-5 -16,-15 0,-7 1,-11 4,-13 2,-3 6,-4 12,-4l61 0c-2,-3 -5,-9 -7,-15 -2,-7 -4,-15 -4,-25 0,-14 3,-26 10,-38 6,-12 16,-20 28,-25 -5,0 -10,0 -15,1 -5,0 -11,0 -16,0l0 -29c28,-1 53,0 76,4 22,4 41,12 56,22 16,11 28,25 36,43 8,18 12,40 12,66l0 28 -237 0zm108 -32c6,0 10,-1 14,-4 4,-3 7,-6 9,-10 2,-4 3,-8 4,-13 1,-5 1,-9 1,-14 0,-5 0,-11 -1,-16 -1,-5 -3,-10 -5,-14 -3,-4 -6,-8 -9,-10 -4,-2 -9,-3 -14,-3 -9,0 -16,4 -21,12 -5,8 -7,19 -7,32 0,5 0,10 1,14 1,5 2,9 5,13 2,4 5,7 8,9 4,3 8,4 14,4l1 0zm96 0c0,-27 -5,-49 -17,-64 -11,-15 -26,-25 -45,-31 4,3 8,7 10,12 3,4 5,9 7,14 2,4 3,9 4,14 1,5 1,9 1,13 0,10 -1,19 -3,25 -1,7 -4,13 -6,17l49 0zm-3642 427l-31 0 0 -208 31 0 0 208zm-38 50c0,-7 2,-12 7,-16 4,-5 9,-7 16,-7 6,0 12,2 16,7 5,4 7,9 7,16 0,6 -2,12 -7,16 -4,5 -10,7 -16,7 -7,0 -12,-2 -16,-7 -5,-4 -7,-10 -7,-16zm195 19c-9,0 -16,-2 -21,-6 -6,-4 -10,-9 -13,-14 0,19 -1,34 -3,47 -3,13 -7,23 -13,31 -6,8 -15,14 -26,17 -10,4 -24,6 -42,6l0 -33c13,0 23,-1 30,-4 7,-2 12,-7 16,-13 3,-6 5,-14 6,-23 1,-10 1,-21 1,-34l0 -104 31 0 0 55c0,13 3,23 8,31 4,7 13,11 26,11 10,0 16,5 16,16 0,6 -2,11 -4,13 -3,2 -7,4 -12,4zm-71 -215c0,-6 2,-11 6,-15 5,-4 9,-6 15,-6 6,0 11,2 15,6 3,4 5,9 5,15 0,6 -2,10 -5,14 -4,5 -9,7 -15,7 -6,0 -10,-2 -15,-7 -4,-4 -6,-8 -6,-14zm71 215c-10,0 -16,-6 -16,-16 0,-6 2,-11 4,-13 2,-3 6,-4 12,-4l26 0c6,0 11,0 16,0 4,-1 8,-2 11,-4 3,-2 5,-5 6,-9 2,-3 3,-8 3,-15l0 -89 31 0 0 75c0,6 1,12 2,17 1,6 2,10 5,14 3,3 6,6 10,8 5,2 10,3 17,3 10,0 16,5 16,16 0,6 -2,11 -4,13 -2,2 -6,4 -12,4 -10,0 -18,-3 -24,-8 -6,-5 -11,-10 -13,-18 -4,11 -12,18 -22,21 -10,3 -22,5 -36,5l-32 0zm30 58c0,-6 2,-10 7,-14 4,-4 8,-6 14,-6 6,0 11,2 15,6 4,4 6,8 6,14 0,6 -2,11 -6,15 -4,4 -9,6 -15,6 -6,0 -10,-2 -14,-6 -5,-4 -7,-9 -7,-15zm51 0c0,-6 2,-10 6,-14 4,-4 9,-6 15,-6 5,0 10,2 14,6 4,4 6,8 6,14 0,6 -2,11 -6,15 -4,4 -9,6 -14,6 -6,0 -11,-2 -15,-6 -4,-4 -6,-9 -6,-15zm46 -58c-10,0 -16,-6 -16,-16 0,-6 2,-11 4,-13 3,-3 7,-4 12,-4l87 0c14,0 24,-2 31,-7 6,-4 9,-10 9,-18 0,-6 -3,-14 -9,-23 -5,-9 -13,-18 -23,-26 -10,-9 -22,-18 -36,-27 -13,-8 -28,-16 -44,-23 0,-3 1,-7 2,-10 1,-3 2,-6 3,-9 1,-3 2,-5 4,-7 1,-2 2,-4 3,-4l145 -63 0 33 -114 50c27,14 49,29 65,45 17,15 27,31 33,47 3,9 6,16 9,22 3,5 6,9 9,13 3,3 7,5 10,6 4,1 9,1 13,1 11,0 16,5 16,16 0,6 -1,11 -4,13 -2,2 -6,4 -12,4 -5,0 -10,-1 -15,-1 -4,-1 -8,-2 -12,-5 -4,-2 -8,-5 -11,-9 -4,-4 -7,-9 -10,-16l-2 0c-5,12 -13,20 -24,24 -12,5 -26,7 -43,7l-80 0zm21 -204c0,-3 1,-7 2,-11 2,-4 3,-7 5,-11 2,-3 4,-6 7,-8 2,-3 4,-4 5,-5l132 -60 0 29 -151 66zm230 -11c0,-6 2,-11 6,-15 4,-4 9,-6 15,-6 6,0 10,2 14,6 4,4 6,9 6,15 0,6 -2,10 -6,14 -4,5 -8,7 -14,7 -6,0 -11,-2 -15,-7 -4,-4 -6,-8 -6,-14zm-54 215c-10,0 -16,-6 -16,-16 0,-6 2,-11 4,-13 3,-3 7,-4 12,-4l60 0 0 -117 32 0 0 150 -92 0zm177 -277l0 277 -31 0 0 -277 31 0zm391 277c-11,0 -19,-3 -25,-8 -6,-4 -10,-10 -12,-18 -3,6 -6,10 -10,13 -3,4 -8,6 -14,8 -6,2 -13,3 -21,4 -9,0 -18,1 -29,1l-158 0c-15,0 -28,-1 -38,-4 -10,-2 -18,-5 -24,-9 -6,-5 -10,-11 -13,-18 -2,-7 -4,-16 -4,-26l0 -60 32 0 0 48c0,8 1,15 3,19 2,5 5,9 10,11 5,3 11,4 19,5 8,1 18,1 31,1l141 0c9,0 16,0 22,0 6,-1 11,-2 14,-4 4,-2 6,-5 8,-9 1,-3 2,-8 2,-15l0 -89 32 0 0 75c0,6 0,12 1,17 1,6 3,10 5,14 3,3 6,6 11,8 4,2 10,3 17,3 10,0 15,5 15,16 0,6 -1,11 -4,13 -2,2 -6,4 -11,4zm-236 -193c0,-5 3,-10 7,-14 4,-4 8,-6 14,-6 6,0 11,2 15,6 4,4 6,9 6,14 0,6 -2,11 -6,15 -4,4 -9,6 -15,6 -6,0 -10,-2 -14,-6 -4,-4 -7,-9 -7,-15zm51 0c0,-5 2,-10 6,-14 4,-4 9,-6 15,-6 5,0 10,2 14,6 4,4 6,9 6,14 0,6 -2,11 -6,15 -4,4 -9,6 -14,6 -6,0 -11,-2 -15,-6 -4,-4 -6,-9 -6,-15zm184 193c-10,0 -15,-6 -15,-16 0,-6 1,-11 4,-13 2,-3 6,-4 11,-4l45 0c-3,-5 -6,-11 -8,-18 -2,-6 -3,-14 -3,-22 0,-11 2,-20 5,-30 3,-10 8,-19 15,-26 6,-8 14,-14 24,-19 9,-5 20,-7 33,-7 14,0 26,2 35,8 9,5 16,11 21,19 5,8 9,17 11,27 2,9 3,19 3,28l0 40 30 0c10,0 15,5 15,16 0,6 -1,11 -4,13 -2,2 -6,4 -11,4l-211 0zm64 -79c0,16 5,28 14,35 10,8 21,11 34,11l38 0 0 -39c0,-6 -1,-12 -2,-18 -1,-7 -3,-12 -6,-17 -4,-5 -8,-9 -13,-13 -6,-3 -13,-5 -21,-5 -7,0 -13,2 -18,4 -6,3 -10,6 -14,10 -4,4 -7,9 -9,15 -2,5 -3,11 -3,17zm26 -136c0,-6 2,-11 6,-15 4,-4 9,-6 14,-6 6,0 11,2 15,6 4,4 6,9 6,15 0,6 -2,10 -6,14 -4,5 -9,7 -15,7 -5,0 -10,-2 -14,-7 -4,-4 -6,-8 -6,-14zm121 215c-11,0 -16,-6 -16,-16 0,-6 1,-11 4,-13 2,-3 6,-4 12,-4l87 0c14,0 24,-2 30,-7 6,-4 10,-10 10,-18 0,-6 -3,-14 -9,-23 -6,-9 -14,-18 -24,-26 -10,-9 -22,-18 -35,-27 -14,-8 -28,-16 -44,-23 0,-3 1,-7 1,-10 1,-3 2,-6 4,-9 1,-3 2,-5 3,-7 2,-2 3,-4 4,-4l145 -63 0 33 -114 50c27,14 49,29 65,45 16,15 27,31 33,47 3,9 6,16 8,22 3,5 6,9 10,13 3,3 6,5 10,6 4,1 8,1 13,1 10,0 16,5 16,16 0,6 -2,11 -4,13 -3,2 -7,4 -12,4 -5,0 -10,-1 -15,-1 -4,-1 -9,-2 -12,-5 -4,-2 -8,-5 -12,-9 -3,-4 -6,-9 -9,-16l-2 0c-5,12 -13,20 -25,24 -11,4 -26,7 -42,7l-80 0zm21 -204c0,-3 1,-7 2,-11 1,-4 3,-7 5,-11 2,-3 4,-6 6,-8 3,-3 4,-4 6,-5l132 -60 0 29 -151 66zm190 171c8,0 16,0 21,0 6,-1 11,-2 14,-4 4,-2 7,-5 8,-9 2,-3 2,-8 2,-15l0 -70 32 0 0 56c0,6 1,12 1,17 1,6 3,10 6,14 3,3 7,6 12,8 5,2 12,3 21,3 6,0 11,0 15,0 4,-1 8,-2 11,-4 3,-2 5,-5 6,-9 1,-3 2,-8 2,-15l0 -69 32 0 0 55c0,6 0,12 1,17 1,6 3,10 6,14 2,3 5,6 10,8 4,2 10,3 17,3l32 0 0 -117 32 0 0 150 -64 0c-11,0 -19,-3 -25,-8 -6,-4 -10,-10 -12,-18 -5,11 -12,18 -22,21 -10,3 -22,5 -35,5 -9,0 -17,-1 -23,-3 -6,-1 -10,-3 -14,-5 -4,-3 -7,-6 -9,-9 -3,-3 -4,-6 -6,-9 -2,5 -5,10 -9,13 -3,3 -8,6 -13,8 -6,2 -13,3 -21,4 -8,0 -18,1 -29,1l-13 0c-10,0 -16,-6 -16,-16 0,-6 2,-11 4,-13 3,-3 7,-4 12,-4l14 0zm119 -182c0,-6 2,-11 6,-15 4,-4 9,-6 14,-6 6,0 11,2 15,6 4,4 6,9 6,15 0,6 -2,10 -6,14 -4,4 -9,7 -15,7 -5,0 -10,-2 -14,-7 -4,-4 -6,-8 -6,-14zm50 0c0,-6 2,-11 6,-15 4,-4 9,-6 15,-6 5,0 10,2 14,6 4,4 6,9 6,15 0,6 -2,10 -6,14 -4,5 -9,7 -14,7 -6,0 -11,-2 -15,-7 -4,-4 -6,-8 -6,-14zm-24 -47c0,-5 2,-10 6,-14 4,-4 9,-6 14,-6 6,0 11,2 15,6 4,4 6,9 6,14 0,6 -2,11 -6,15 -4,4 -9,6 -15,6 -5,0 -10,-2 -14,-6 -4,-4 -6,-9 -6,-15zm286 251c0,10 2,19 5,28 3,8 9,15 16,21 8,7 18,11 31,15 12,3 28,5 46,5 14,0 27,-1 39,-3 12,-2 23,-5 33,-9 9,-3 17,-8 22,-13 6,-5 8,-11 8,-18 0,-6 -1,-11 -5,-15 -4,-4 -12,-9 -23,-14 -7,-4 -14,-8 -21,-12 -7,-4 -12,-9 -17,-14 -5,-5 -9,-11 -12,-17 -2,-6 -4,-14 -4,-22 0,-10 2,-20 5,-30 4,-10 9,-19 16,-27 7,-9 16,-15 27,-20 10,-5 23,-8 38,-8 8,0 16,1 22,3 7,2 11,3 12,4l0 32c-6,-1 -11,-2 -17,-3 -6,-2 -12,-2 -18,-2 -9,0 -16,1 -23,4 -7,3 -12,6 -16,11 -5,4 -8,9 -10,14 -2,6 -3,11 -3,17 0,5 1,9 3,13 2,4 4,7 8,10 3,3 7,6 11,9 5,2 9,5 15,8 8,5 16,10 22,14 6,4 10,8 14,12 3,4 6,8 7,12 2,4 3,8 3,12 0,11 -3,22 -8,32 -5,10 -12,19 -23,27 -11,8 -25,14 -42,18 -17,5 -38,8 -63,8 -24,0 -44,-3 -61,-8 -17,-4 -30,-11 -40,-19 -10,-9 -17,-19 -22,-30 -4,-12 -6,-24 -6,-38l0 -58 31 0 0 51zm362 -6c0,6 -1,11 -4,13 -2,2 -6,4 -11,4l-11 0c-8,0 -15,-1 -22,-3 -7,-2 -13,-5 -18,-9 -5,-4 -8,-9 -11,-16 -3,-7 -4,-16 -4,-26l0 -223 32 0 0 214c0,11 2,19 5,23 3,5 11,7 22,7l7 0c10,0 15,5 15,16zm-15 17c-11,0 -16,-6 -16,-16 0,-6 1,-11 4,-13 2,-3 6,-4 12,-4l61 0c-2,-3 -5,-9 -7,-15 -3,-7 -4,-15 -4,-25 0,-13 3,-26 10,-38 6,-12 15,-20 28,-25 -5,0 -10,1 -15,1 -5,0 -11,0 -16,0l0 -29c28,-1 53,0 76,4 22,4 41,12 56,22 16,11 27,25 36,43 8,18 12,40 12,66l0 29 -237 0zm108 -33c6,0 10,-1 14,-4 4,-2 7,-6 9,-10 2,-4 3,-8 4,-13 1,-5 1,-9 1,-13 0,-6 0,-12 -1,-17 -1,-5 -3,-10 -5,-14 -3,-4 -6,-8 -9,-10 -4,-2 -9,-3 -14,-3 -9,0 -16,4 -21,12 -5,8 -7,19 -7,32 0,5 0,10 1,14 1,5 2,9 5,13 2,4 5,7 8,9 4,3 8,4 14,4l1 0zm96 0c0,-27 -5,-49 -17,-64 -11,-15 -26,-25 -45,-31 4,3 8,7 10,12 3,4 5,9 7,14 2,4 3,9 4,14 1,5 1,9 1,13 0,10 -1,19 -3,25 -1,7 -4,13 -6,17l49 0zm207 -10c0,12 -5,22 -13,30 -9,8 -21,13 -37,13l-93 0 0 -33 90 0c9,0 14,-1 17,-4 2,-2 3,-6 3,-9 0,-2 -1,-5 -2,-8 -1,-3 -3,-7 -7,-14 -4,-6 -10,-15 -18,-26 -7,-11 -18,-27 -31,-46l30 -19c10,18 19,33 27,45 8,12 14,23 19,31 5,9 8,16 11,22 2,6 4,12 4,18zm74 -87l31 0 0 108c0,19 -1,35 -3,48 -2,13 -7,24 -13,32 -6,8 -15,14 -26,17 -11,4 -25,6 -42,6l0 -33c12,0 22,-1 29,-4 8,-2 13,-7 16,-13 4,-6 6,-14 7,-23 0,-10 1,-21 1,-34l0 -104zm144 130c-10,0 -19,-2 -28,-4 -8,-2 -16,-6 -22,-11 -7,-6 -12,-13 -15,-22 -4,-8 -6,-19 -6,-32 0,-10 2,-21 5,-31 3,-10 8,-18 15,-26 6,-8 14,-14 24,-19 9,-5 20,-7 33,-7 13,0 25,3 34,8 10,5 17,12 23,21 6,9 10,19 12,31 3,13 4,26 4,41l0 36c0,20 -3,36 -8,48 -5,12 -12,22 -22,29 -9,7 -21,12 -35,15 -14,2 -30,4 -47,4l-16 0 0 -33 12 0c12,0 23,0 34,-1 10,-1 19,-3 26,-7 7,-4 13,-9 17,-16 4,-7 6,-16 6,-28l0 -8c-4,3 -10,6 -18,8 -7,2 -16,4 -28,4zm-40 -73c0,15 4,26 12,32 8,6 18,9 31,9 10,0 19,-1 26,-3 8,-3 14,-6 17,-9l0 -14c0,-9 0,-17 -2,-25 -1,-8 -3,-15 -7,-20 -3,-6 -8,-10 -13,-13 -5,-4 -12,-5 -20,-5 -8,0 -15,1 -20,5 -6,3 -10,6 -14,11 -3,5 -6,10 -8,16 -1,5 -2,11 -2,16zm250 56c0,6 -1,11 -3,13 -3,2 -7,4 -12,4l-10 0c-9,0 -16,-1 -23,-3 -7,-2 -12,-5 -17,-9 -5,-4 -9,-9 -12,-16 -2,-7 -4,-16 -4,-26l0 -223 32 0 0 214c0,11 2,19 5,23 4,5 11,7 23,7l6 0c10,0 15,5 15,16zm-15 17c-10,0 -16,-6 -16,-16 0,-6 2,-11 4,-13 3,-3 6,-4 12,-4l26 0c6,0 11,0 16,0 4,-1 8,-2 11,-4 3,-2 5,-5 6,-9 2,-3 3,-8 3,-15l0 -89 31 0 0 75c0,6 1,12 2,17 1,6 2,10 5,14 3,3 6,6 10,8 5,2 10,3 17,3 11,0 16,5 16,16 0,6 -1,11 -4,13 -2,2 -6,4 -12,4 -10,0 -18,-3 -24,-8 -6,-5 -11,-10 -13,-18 -4,11 -12,18 -22,21 -9,3 -22,5 -36,5l-32 0zm31 -215c0,-6 2,-11 6,-15 4,-4 9,-6 14,-6 6,0 11,2 15,6 4,4 6,9 6,15 0,6 -2,10 -6,14 -4,5 -9,7 -15,7 -5,0 -10,-2 -14,-7 -4,-4 -6,-8 -6,-14zm50 0c0,-6 2,-11 6,-15 4,-4 9,-6 15,-6 5,0 10,2 14,6 4,4 6,9 6,15 0,6 -2,10 -6,14 -4,5 -9,7 -14,7 -6,0 -11,-2 -15,-7 -4,-4 -6,-8 -6,-14zm60 182c8,0 16,0 21,0 6,-1 11,-2 14,-4 4,-2 7,-5 8,-9 2,-3 2,-8 2,-15l0 -70 32 0 0 56c0,6 1,12 1,17 1,6 3,10 6,14 3,3 7,6 12,8 5,2 12,3 21,3 6,0 11,0 15,0 4,-1 8,-2 11,-4 3,-2 5,-5 6,-9 2,-3 2,-8 2,-15l0 -69 32 0 0 55c0,6 0,12 1,17 1,6 3,10 6,14 2,3 5,6 10,8 4,2 10,3 17,3l32 0 0 -117 32 0 0 150 -64 0c-11,0 -19,-3 -25,-8 -6,-5 -10,-10 -12,-18 -5,11 -12,18 -22,21 -10,3 -22,5 -35,5 -9,0 -17,-1 -23,-3 -6,-1 -10,-3 -14,-5 -4,-3 -7,-6 -9,-9 -3,-3 -4,-6 -6,-9 -2,5 -5,10 -9,13 -3,3 -8,6 -13,8 -6,2 -13,3 -21,4 -8,0 -18,1 -29,1l-13 0c-10,0 -15,-6 -15,-16 0,-6 1,-11 3,-13 3,-3 7,-4 12,-4l14 0zm462 -10c0,12 -4,22 -13,30 -8,8 -20,13 -37,13l-93 0 0 -33 91 0c8,0 14,-1 16,-4 3,-2 4,-6 4,-9 0,-2 -1,-5 -2,-8 -1,-3 -3,-7 -7,-14 -4,-6 -10,-15 -18,-26 -8,-11 -18,-27 -31,-46l30 -19c10,18 19,33 27,45 7,12 14,23 18,31 5,9 9,16 12,22 2,6 3,12 3,18z"/>
    <circle class="fil22" cx="10452" cy="1288" r="748"/>
    <rect class="fil30" x="14530" y="1257" width="5.28819" height="1381.59"/>
    <path class="fil23" d="M10593 1500l0 141 -565 0 0 -141 565 0zm-565 -424l0 -141c282,0 565,0 847,0l-141 141c-235,0 -471,0 -706,0zm847 141c0,141 0,283 0,424l-141 0 0 -283 0 0 -706 0 0 -141c282,0 565,0 847,0z"/>
   </g>
  </g>
 </g>
</svg>
