<?xml version="1.0" encoding="UTF-8"?>
<!DOCTYPE svg PUBLIC "-//W3C//DTD SVG 1.1//EN" "http://www.w3.org/Graphics/SVG/1.1/DTD/svg11.dtd">
<!-- Creator: CorelDRAW X7 -->
<svg xmlns="http://www.w3.org/2000/svg" xml:space="preserve" width="100%" height="100%" version="1.1" style="shape-rendering:geometricPrecision; text-rendering:geometricPrecision; image-rendering:optimizeQuality; fill-rule:evenodd; clip-rule:evenodd"
viewBox="0 0 2709 2332"
 xmlns:xlink="http://www.w3.org/1999/xlink">
 <defs>
  <style type="text/css">
   <![CDATA[
    .fil0 {fill:#FCE9CA}
    .fil1 {fill:#D2AE6D;fill-rule:nonzero}
   ]]>
  </style>
 </defs>
 <g id="Layer_x0020_1">
  <metadata id="CorelCorpID_0Corel-Layer"/>
  <g id="_2098537796080">
   <polygon class="fil0" points="0,0 2709,0 2709,2332 0,2332 "/>
   <path class="fil1" d="M1987 2094l1 0c2,0 2,3 0,3l-1 0c-2,0 -2,-3 0,-3z"/>
   <path class="fil1" d="M2213 1082c1,-1 2,-2 3,-3 2,-2 6,2 4,4 -1,1 -2,2 -3,3 -3,3 -7,-1 -4,-4z"/>
   <path class="fil1" d="M2237 701c2,1 4,2 5,3 4,2 1,6 -2,5 -2,-1 -4,-2 -6,-3 -3,-2 -1,-7 3,-5z"/>
   <path class="fil1" d="M1848 805c4,0 4,6 0,6 -3,0 -3,-6 0,-6z"/>
   <path class="fil1" d="M1828 613c4,0 4,6 0,6 -4,0 -4,-6 0,-6z"/>
   <path class="fil1" d="M1671 785c4,0 4,5 0,5 -4,0 -4,-5 0,-5z"/>
   <path class="fil1" d="M2543 1021c-1,-1 -2,-2 -3,-3 -1,-1 1,-3 2,-2 1,1 2,2 3,3 1,2 -1,4 -2,2z"/>
   <path class="fil1" d="M2541 1276c4,0 4,6 0,6 -4,0 -4,-6 0,-6z"/>
   <path class="fil1" d="M2547 1343c3,0 3,6 0,6 -4,0 -4,-6 0,-6z"/>
   <path class="fil1" d="M2210 2025c1,-1 2,-2 3,-3 3,-2 7,2 4,4 -1,1 -2,2 -3,3 -2,3 -6,-1 -4,-4z"/>
   <path class="fil1" d="M2652 2143l0 -2c0,-4 5,-4 5,0l0 2c0,4 -5,4 -5,0z"/>
   <path class="fil1" d="M2529 1602c4,0 4,6 0,6 -3,0 -3,-6 0,-6z"/>
   <path class="fil1" d="M2081 1221l3 0c4,0 4,6 0,6l-3 0c-3,0 -3,-6 0,-6z"/>
   <path class="fil1" d="M2364 944c-1,-1 -2,-2 -3,-3 -2,-3 2,-7 4,-4 1,1 2,2 3,3 3,2 -1,6 -4,4z"/>
   <path class="fil1" d="M2424 1052c4,0 4,6 0,6 -3,0 -3,-6 0,-6z"/>
   <path class="fil1" d="M2422 558l2 0c4,0 4,5 0,5l-2 0c-4,0 -4,-5 0,-5z"/>
   <path class="fil1" d="M2480 776l3 0c3,0 3,6 0,6l-3 0c-4,0 -4,-6 0,-6z"/>
   <path class="fil1" d="M2096 927c3,0 3,6 0,6 -4,0 -4,-6 0,-6z"/>
   <path class="fil1" d="M1904 1058c3,0 3,6 0,6 -4,0 -4,-6 0,-6z"/>
   <path class="fil1" d="M2288 1748c6,0 6,9 0,9 -5,0 -5,-9 0,-9z"/>
   <path class="fil1" d="M2169 918l0 -1c0,-7 11,-7 11,0l0 1c0,8 -11,8 -11,0l0 -1c0,-7 11,-7 11,0l0 1c0,8 -11,8 -11,0z"/>
   <path class="fil1" d="M2343 794c7,0 7,11 0,11 -7,0 -7,-11 0,-11z"/>
   <path class="fil1" d="M911 2191c8,0 8,11 0,11 -7,0 -7,-11 0,-11z"/>
   <path class="fil1" d="M1901 505c3,0 3,6 0,6 -4,0 -4,-6 0,-6z"/>
   <path class="fil1" d="M2046 517c4,0 4,6 0,6 -3,0 -3,-6 0,-6z"/>
   <path class="fil1" d="M2166 441c3,0 3,6 0,6 -4,0 -4,-6 0,-6z"/>
   <path class="fil1" d="M2087 313c4,0 4,6 0,6 -4,0 -4,-6 0,-6z"/>
   <path class="fil1" d="M1956 383c4,0 4,6 0,6 -4,0 -4,-6 0,-6z"/>
   <path class="fil1" d="M1997 462c3,0 3,5 0,5 -4,0 -4,-5 0,-5z"/>
   <path class="fil1" d="M1956 526c4,0 4,5 0,5 -4,0 -4,-5 0,-5z"/>
   <path class="fil1" d="M1691 558c4,0 4,5 0,5 -3,0 -3,-5 0,-5z"/>
   <path class="fil1" d="M1656 953c4,0 4,6 0,6 -3,0 -3,-6 0,-6z"/>
   <path class="fil1" d="M1729 997c4,0 4,6 0,6 -4,0 -4,-6 0,-6z"/>
   <path class="fil1" d="M1787 1029c4,0 4,6 0,6 -3,0 -3,-6 0,-6z"/>
   <path class="fil1" d="M1752 1102c4,0 4,6 0,6 -3,0 -3,-6 0,-6z"/>
   <path class="fil1" d="M1813 1210c4,0 4,5 0,5 -3,0 -3,-5 0,-5z"/>
   <path class="fil1" d="M2372 1978l3 0c4,0 4,5 0,5l-3 0c-4,0 -4,-5 0,-5z"/>
   <path class="fil1" d="M2058 1989c4,0 4,6 0,6 -4,0 -4,-6 0,-6z"/>
   <path class="fil1" d="M2079 2072c1,-1 2,-2 3,-3 3,-3 7,1 4,4 -1,1 -2,2 -3,3 -2,2 -6,-2 -4,-4z"/>
   <path class="fil1" d="M1758 2039c4,0 4,5 0,5 -3,0 -3,-5 0,-5z"/>
   <path class="fil1" d="M1909 1992c4,0 4,6 0,6 -3,0 -3,-6 0,-6z"/>
   <path class="fil1" d="M2285 1831l0 -3c0,-3 6,-3 6,0l0 3c0,4 -6,4 -6,0z"/>
   <path class="fil1" d="M2500 502c4,0 4,6 0,6 -3,0 -4,-6 0,-6z"/>
   <path class="fil1" d="M2454 424l0 -3c0,-4 5,-4 5,0l0 3c0,3 -5,3 -5,0z"/>
   <path class="fil1" d="M1190 234c-1,-1 -2,-2 -3,-3 -3,-2 1,-6 4,-4 1,1 2,2 3,3 2,3 -2,7 -4,4z"/>
   <path class="fil1" d="M2436 491c4,0 4,5 0,5 -4,0 -4,-5 0,-5z"/>
   <path class="fil1" d="M2358 499l0 -2c0,-4 5,-4 5,0l0 2c0,4 -5,4 -5,0z"/>
   <path class="fil1" d="M2362 547c1,1 2,2 3,3 3,2 -1,6 -4,4 -1,-1 -2,-2 -3,-3 -2,-3 2,-7 4,-4z"/>
   <path class="fil1" d="M2456 607l3 0c4,0 4,6 0,6l-3 0c-3,0 -3,-6 0,-6z"/>
   <path class="fil1" d="M2509 558c4,0 4,5 0,5 -4,0 -4,-5 0,-5z"/>
   <path class="fil1" d="M2521 703c3,0 3,6 0,6 -4,0 -4,-6 0,-6z"/>
   <path class="fil1" d="M2582 796c3,0 3,6 0,6 -4,0 -4,-6 0,-6z"/>
   <path class="fil1" d="M2512 892c3,0 3,6 0,6 -4,0 -4,-6 0,-6z"/>
   <path class="fil1" d="M2149 790c-1,-1 -2,-2 -3,-3 -3,-3 1,-7 4,-4 1,1 2,2 3,3 3,2 -1,6 -4,4z"/>
   <path class="fil1" d="M1997 686c3,0 3,5 0,5 -4,0 -4,-5 0,-5z"/>
   <path class="fil1" d="M1966 809c1,-1 2,-2 3,-3 2,-3 6,1 4,4 -1,1 -2,2 -3,3 -3,2 -7,-2 -4,-4z"/>
   <path class="fil1" d="M1962 895c3,0 3,6 0,6 -4,0 -4,-6 0,-6z"/>
   <path class="fil1" d="M2515 1698c3,0 3,6 0,6 -4,0 -4,-6 0,-6z"/>
   <path class="fil1" d="M1659 1205c6,0 6,9 0,9 -5,0 -5,-9 0,-9z"/>
   <path class="fil1" d="M1825 1255c6,0 6,8 0,8 -5,0 -5,-8 0,-8z"/>
   <path class="fil1" d="M2241 970l3 0c2,0 4,1 4,4 0,2 -2,4 -4,4l-3 0c-2,0 -4,-2 -4,-4 0,-3 2,-4 4,-4z"/>
   <path class="fil1" d="M2649 999l2 0c3,0 5,2 5,4 0,2 -2,4 -5,4l-2 0c-3,0 -5,-2 -5,-4 0,-2 2,-4 5,-4z"/>
   <path class="fil1" d="M2672 2005c5,0 5,9 0,9 -6,0 -6,-9 0,-9z"/>
   <path class="fil1" d="M2555 2011c6,0 6,9 0,9 -5,0 -5,-9 0,-9z"/>
   <path class="fil1" d="M2529 1864c-1,-1 -2,-2 -3,-3 -1,-1 -1,-4 0,-6 2,-1 5,-1 6,0 1,1 2,2 3,3 2,2 2,5 0,6 -1,2 -4,2 -6,0z"/>
   <path class="fil1" d="M2224 1769c6,0 6,8 0,8 -5,0 -5,-8 0,-8z"/>
   <path class="fil1" d="M2553 1764c5,0 5,8 0,8 -6,0 -6,-8 0,-8z"/>
   <path class="fil1" d="M2653 1692l0 -2c0,-3 2,-5 4,-5 3,0 5,2 5,5l0 2c0,3 -2,5 -5,5 -2,0 -4,-2 -4,-5z"/>
   <path class="fil1" d="M2206 568c6,0 6,8 0,8 -5,0 -5,-8 0,-8z"/>
   <path class="fil1" d="M2244 481c6,0 6,8 0,8 -5,0 -5,-8 0,-8z"/>
   <path class="fil1" d="M2318 418l0 -3c0,-2 2,-4 5,-4 2,0 4,2 4,4l0 3c0,2 -2,4 -4,4 -3,0 -5,-2 -5,-4z"/>
   <path class="fil1" d="M1843 457c5,0 5,9 0,9 -6,0 -6,-9 0,-9z"/>
   <path class="fil1" d="M1770 501c5,0 5,9 0,9 -6,0 -6,-9 0,-9z"/>
   <path class="fil1" d="M1729 679c6,0 6,8 0,8 -5,0 -5,-8 0,-8z"/>
   <path class="fil1" d="M1883 700c1,-1 2,-2 3,-3 2,-1 4,-1 6,0 2,2 2,5 0,6 -1,1 -2,2 -3,3 -1,2 -4,2 -6,0 -1,-1 -1,-4 0,-6z"/>
   <path class="fil1" d="M1880 638c6,0 6,8 0,8 -5,0 -5,-8 0,-8z"/>
   <path class="fil1" d="M1808 702c5,0 5,8 0,8 -6,0 -6,-8 0,-8z"/>
   <path class="fil1" d="M1767 914c5,0 5,9 0,9 -6,0 -6,-9 0,-9z"/>
   <path class="fil1" d="M1889 972c6,0 6,9 0,9 -5,0 -5,-9 0,-9z"/>
   <path class="fil1" d="M1531 1213c7,0 8,11 0,11 -7,0 -7,-11 0,-11z"/>
   <path class="fil1" d="M2655 1419c0,3 5,5 6,2 0,-1 0,-2 1,-2 -1,0 -1,0 0,0 0,2 -3,4 -5,4 -2,0 -4,-2 -4,-4 0,-3 3,-5 5,-5 3,0 6,2 6,5 0,2 -2,4 -4,4 -3,0 -5,-2 -5,-4z"/>
   <path class="fil1" d="M2358 338c5,0 5,9 0,9 -6,0 -6,-9 0,-9z"/>
   <path class="fil1" d="M2538 134c-1,-1 -2,-2 -3,-3 -2,-1 -1,-4 0,-6 2,-1 4,-1 6,0 1,1 2,2 3,3 2,2 2,5 0,6 -1,2 -4,2 -6,0z"/>
   <path class="fil1" d="M2532 361c6,0 6,9 0,9 -5,0 -5,-9 0,-9z"/>
   <path class="fil1" d="M2651 353c6,0 6,8 0,8 -5,0 -5,-8 0,-8z"/>
   <path class="fil1" d="M2631 437c6,0 6,9 0,9 -5,0 -5,-9 0,-9z"/>
   <path class="fil1" d="M2523 402c6,0 6,9 0,9 -5,0 -5,-9 0,-9z"/>
   <path class="fil1" d="M2369 280c6,0 6,8 0,8 -5,0 -5,-8 0,-8z"/>
   <path class="fil1" d="M2206 203c1,1 2,2 3,3 2,1 2,4 0,5 -1,2 -4,2 -6,0 -1,0 -2,-1 -3,-2 -1,-2 -1,-5 0,-6 2,-2 5,-2 6,0z"/>
   <path class="fil1" d="M1723 271c6,0 6,9 0,9 -5,0 -5,-9 0,-9z"/>
   <path class="fil1" d="M1985 216c6,0 6,8 0,8 -5,0 -5,-8 0,-8z"/>
   <path class="fil1" d="M2020 617c5,0 6,9 0,9 -5,0 -5,-9 0,-9z"/>
   <path class="fil1" d="M2113 641c6,0 6,8 0,8 -5,0 -5,-8 0,-8z"/>
   <path class="fil1" d="M2247 819c1,1 2,2 3,3 2,2 2,5 0,6 -2,2 -4,2 -6,0l-3 -3c-2,-1 -2,-4 0,-6 2,-1 4,-1 6,0z"/>
   <path class="fil1" d="M2087 1077c5,0 5,9 0,9 -5,0 -6,-9 0,-9z"/>
   <path class="fil1" d="M1962 1121c5,0 5,8 0,8 -6,0 -6,-8 0,-8z"/>
   <path class="fil1" d="M2171 2098c6,0 6,9 0,9 -5,0 -5,-9 0,-9z"/>
   <path class="fil1" d="M2125 1994c5,0 5,8 0,8 -6,0 -6,-8 0,-8z"/>
   <path class="fil1" d="M2055 1138c5,0 5,9 0,9 -5,0 -6,-9 0,-9z"/>
   <path class="fil1" d="M1976 1182c6,0 6,8 0,8 -5,0 -5,-8 0,-8z"/>
   <path class="fil1" d="M1872 1191l3 0c2,0 4,2 4,4 0,2 -2,4 -4,4l-3 0c-3,0 -5,-2 -5,-4 1,-2 2,-4 5,-4z"/>
   <path class="fil1" d="M1908 785l0 -3c0,-5 5,-10 10,-10 6,0 10,4 10,10l0 3c0,5 -4,10 -10,10 -5,-1 -10,-5 -10,-10z"/>
   <path class="fil1" d="M2384 685c12,0 13,19 0,19 -13,0 -13,-19 0,-19z"/>
   <path class="fil1" d="M2555 465l3 0c4,0 4,5 0,5l-3 0c-3,0 -3,-5 0,-5z"/>
   <path class="fil1" d="M1697 1032c4,0 4,6 0,6 -4,0 -4,-6 0,-6z"/>
   <path class="fil1" d="M1870 1145c-1,-1 -2,-2 -3,-3 -3,-3 1,-7 4,-4 1,1 2,2 3,3 2,2 -2,6 -4,4z"/>
   <path class="fil1" d="M2483 1815l3 0c3,0 3,5 0,5l-3 0c-4,0 -4,-5 0,-5z"/>
   <path class="fil1" d="M2468 1847c4,0 4,5 0,5 -4,0 -4,-5 0,-5z"/>
   <path class="fil1" d="M1780 1079l0 -3c0,-3 2,-5 4,-5 3,0 5,2 5,5l0 3c0,2 -2,4 -5,4 -2,0 -4,-2 -4,-4z"/>
   <path class="fil1" d="M1752 1036c6,0 6,9 0,9 -5,0 -5,-9 0,-9z"/>
   <path class="fil1" d="M1735 1068c5,0 5,9 0,9 -6,0 -6,-9 0,-9z"/>
   <path class="fil1" d="M1779 1100c5,0 5,9 0,9 -6,0 -6,-9 0,-9z"/>
   <path class="fil1" d="M1237 360c6,0 6,9 0,9 -5,0 -5,-9 0,-9z"/>
   <path class="fil1" d="M1710 1102l0 -2c0,-5 9,-5 9,0l0 2c0,5 -9,5 -9,0l0 -2c0,-5 9,-5 9,0l0 2c0,5 -9,5 -9,0z"/>
   <path class="fil1" d="M1184 810c7,0 7,12 0,12 -7,0 -7,-12 0,-12z"/>
   <path class="fil1" d="M1365 809c7,0 7,11 0,11 -7,0 -7,-11 0,-11z"/>
   <path class="fil1" d="M2500 1829c7,0 7,12 0,12 -7,0 -7,-12 0,-12z"/>
   <path class="fil1" d="M2195 398c7,0 7,11 0,11 -8,0 -8,-11 0,-11z"/>
   <path class="fil1" d="M2155 399c1,1 2,2 3,3 2,2 2,6 0,8 -2,2 -6,3 -8,0 -1,-1 -2,-2 -3,-3 -2,-2 -2,-5 0,-8 2,-2 6,-2 8,0z"/>
   <path class="fil1" d="M1734 117l3 0c3,0 6,3 6,6 -1,3 -3,6 -6,6l-3 0c-3,0 -6,-3 -6,-6 0,-3 3,-6 6,-6z"/>
   <path class="fil1" d="M34 302l1 0c2,0 2,-3 0,-3l-1 0c-2,0 -2,3 0,3z"/>
   <path class="fil1" d="M1327 598c3,0 3,-6 0,-6 -4,0 -4,6 0,6z"/>
   <path class="fil1" d="M867 945c4,0 4,-6 0,-6 -3,0 -3,6 0,6z"/>
   <path class="fil1" d="M434 994c4,0 4,-5 0,-5 -4,0 -4,5 0,5z"/>
   <path class="fil1" d="M260 1314c1,1 2,1 3,2 3,3 7,-1 4,-4 -1,-1 -2,-1 -3,-2 -2,-3 -6,1 -4,4z"/>
   <path class="fil1" d="M836 1333c1,-3 2,-6 3,-9 1,-3 -4,-5 -6,-1 -1,3 -2,5 -3,8 -1,4 5,5 6,2z"/>
   <path class="fil1" d="M284 1695c2,-1 4,-2 6,-3 3,-2 0,-7 -3,-5 -2,1 -4,2 -6,3 -3,2 0,7 3,5z"/>
   <path class="fil1" d="M806 412c4,0 4,-5 0,-5 -3,0 -3,5 0,5z"/>
   <path class="fil1" d="M926 1236c3,0 3,-6 0,-6 -4,0 -4,6 0,6z"/>
   <path class="fil1" d="M824 1588c3,0 3,-6 0,-6 -4,0 -4,6 0,6z"/>
   <path class="fil1" d="M248 751c1,0 1,-2 0,-2 -2,0 -2,2 0,2z"/>
   <path class="fil1" d="M502 564l0 3c0,1 3,1 3,0l0 -3c0,-2 -3,-2 -3,0z"/>
   <path class="fil1" d="M1056 1167c1,1 1,2 2,3 2,1 4,-1 2,-2 -1,-1 -1,-2 -2,-3 -2,-1 -4,1 -2,2z"/>
   <path class="fil1" d="M1313 1159c1,0 1,-3 0,-3 -2,0 -2,3 0,3z"/>
   <path class="fil1" d="M1722 1225c1,1 2,2 3,3 1,1 3,-1 2,-2l-3 -3c-1,-1 -3,1 -2,2z"/>
   <path class="fil1" d="M1367 1558c-1,1 -2,2 -3,3 -1,1 1,3 2,2 1,-1 2,-2 3,-3 1,-1 -1,-3 -2,-2z"/>
   <path class="fil1" d="M1129 1528c2,0 2,-3 0,-3 -2,0 -2,3 0,3z"/>
   <path class="fil1" d="M590 1375c-1,1 -2,2 -3,2 -1,2 1,4 2,2 1,-1 2,-1 3,-2 1,-2 -1,-4 -2,-2z"/>
   <path class="fil1" d="M370 1115c2,0 2,-3 0,-3 -2,0 -2,3 0,3z"/>
   <path class="fil1" d="M140 1019c2,0 2,-3 0,-3 -2,0 -2,3 0,3z"/>
   <path class="fil1" d="M189 1124c2,0 2,-3 0,-3 -1,0 -1,3 0,3z"/>
   <path class="fil1" d="M588 1119c4,0 4,-5 0,-5 -4,0 -4,5 0,5z"/>
   <path class="fil1" d="M594 1053c4,0 4,-6 0,-6 -4,0 -4,6 0,6z"/>
   <path class="fil1" d="M399 1117c4,0 4,-6 0,-6 -4,0 -4,6 0,6z"/>
   <path class="fil1" d="M128 977c4,0 4,-6 0,-6 -3,0 -3,6 0,6z"/>
   <path class="fil1" d="M274 852c3,0 3,-6 0,-6 -4,0 -4,6 0,6z"/>
   <path class="fil1" d="M405 779c3,0 3,-6 0,-6 -4,0 -4,6 0,6z"/>
   <path class="fil1" d="M399 660c4,0 4,-6 0,-6 -4,0 -4,6 0,6z"/>
   <path class="fil1" d="M178 698l0 3c0,3 6,3 6,0l0 -3c0,-4 -6,-4 -6,0z"/>
   <path class="fil1" d="M257 371c1,1 2,2 3,3 3,2 7,-2 4,-4 -1,-1 -2,-2 -3,-3 -2,-3 -6,1 -4,4z"/>
   <path class="fil1" d="M699 252l0 3c0,4 5,4 5,0l0 -3c0,-3 -5,-3 -5,0z"/>
   <path class="fil1" d="M766 764c3,0 3,-5 0,-5 -4,0 -4,5 0,5z"/>
   <path class="fil1" d="M576 794c4,0 4,-6 0,-6 -3,0 -3,6 0,6z"/>
   <path class="fil1" d="M2557 1252l0 3c0,4 6,4 6,0l0 -3c0,-3 -6,-3 -6,0z"/>
   <path class="fil1" d="M128 1175l3 0c4,0 4,-6 0,-6l-3 0c-3,0 -3,6 0,6z"/>
   <path class="fil1" d="M412 1452c-1,1 -2,2 -3,3 -3,3 1,7 4,4 1,-1 2,-2 3,-3 2,-2 -2,-6 -4,-4z"/>
   <path class="fil1" d="M472 1343c3,0 3,-5 0,-5 -4,0 -4,5 0,5z"/>
   <path class="fil1" d="M757 1274c3,0 3,-6 0,-6 -4,0 -4,6 0,6z"/>
   <path class="fil1" d="M830 1166c3,0 3,-6 0,-6 -4,0 -4,6 0,6z"/>
   <path class="fil1" d="M769 1076l0 3c0,3 5,3 5,0l0 -3c0,-4 -5,-4 -5,0z"/>
   <path class="fil1" d="M1097 1067c4,0 4,-6 0,-6 -3,0 -3,6 0,6z"/>
   <path class="fil1" d="M795 1856l3 0c3,0 3,-6 0,-6l-3 0c-4,0 -4,6 0,6z"/>
   <path class="fil1" d="M469 1838l3 0c3,0 3,-6 0,-6l-3 0c-4,0 -4,6 0,6z"/>
   <path class="fil1" d="M527 1620l3 0c4,0 4,-6 0,-6l-3 0c-4,0 -4,6 0,6z"/>
   <path class="fil1" d="M143 1469c4,0 4,-6 0,-6 -4,0 -4,6 0,6z"/>
   <path class="fil1" d="M1256 637l0 3c0,3 1,5 4,5 2,0 4,-2 4,-5l0 -3c0,-2 -2,-4 -4,-4 -3,0 -4,2 -4,4z"/>
   <path class="fil1" d="M298 722c2,1 4,2 6,3 2,1 4,0 5,-2 1,-2 1,-4 -1,-5 -2,-1 -4,-2 -6,-3 -2,-1 -5,-1 -6,1 -1,2 0,5 2,6z"/>
   <path class="fil1" d="M2592 1070c5,0 5,-8 0,-8 -6,0 -6,8 0,8z"/>
   <path class="fil1" d="M303 967c5,0 5,-9 0,-9 -6,0 -6,9 0,9z"/>
   <path class="fil1" d="M728 591c5,0 5,-8 0,-8 -6,0 -6,8 0,8z"/>
   <path class="fil1" d="M1295 1132c6,0 6,-8 0,-8 -5,0 -5,8 0,8z"/>
   <path class="fil1" d="M216 1477l0 2c0,7 11,7 11,0l0 -2c0,-7 -11,-7 -11,0l0 2c0,7 11,7 11,0l0 -2c0,-7 -11,-7 -11,0z"/>
   <path class="fil1" d="M390 1602c8,0 8,-11 0,-11 -7,0 -7,11 0,11z"/>
   <path class="fil1" d="M1176 1553c7,0 7,-11 0,-11 -7,0 -7,11 0,11z"/>
   <path class="fil1" d="M571 459c7,0 7,-11 0,-11 -8,0 -8,11 0,11z"/>
   <path class="fil1" d="M782 880c-1,1 -2,2 -3,3 -2,2 -2,6 0,8 2,2 6,2 8,0 1,-1 2,-2 3,-3 2,-2 2,-6 0,-8 -2,-2 -6,-2 -8,0z"/>
   <path class="fil1" d="M93 1879c4,0 4,-6 0,-6 -3,0 -3,6 0,6z"/>
   <path class="fil1" d="M213 1955c3,0 3,-6 0,-6 -4,0 -4,6 0,6z"/>
   <path class="fil1" d="M134 2083c4,0 4,-6 0,-6 -3,0 -3,6 0,6z"/>
   <path class="fil1" d="M1290 1916c4,0 4,-6 0,-6 -3,0 -3,6 0,6z"/>
   <path class="fil1" d="M1551 1373l3 0c4,0 4,-6 0,-6l-3 0c-3,0 -3,6 0,6z"/>
   <path class="fil1" d="M1577 1108c4,0 4,-6 0,-6 -3,0 -3,6 0,6z"/>
   <path class="fil1" d="M1650 872c4,0 4,-6 0,-6 -4,0 -4,6 0,6z"/>
   <path class="fil1" d="M1627 732c3,0 3,-5 0,-5 -4,0 -4,5 0,5z"/>
   <path class="fil1" d="M419 418l3 0c4,0 4,-5 0,-5l-3 0c-3,0 -3,5 0,5z"/>
   <path class="fil1" d="M1303 457c4,0 4,-6 0,-6 -3,0 -3,6 0,6z"/>
   <path class="fil1" d="M231 254c1,1 2,2 3,3 2,2 6,-2 4,-4 -1,-1 -2,-2 -3,-3 -3,-3 -7,1 -4,4z"/>
   <path class="fil1" d="M297 558c4,0 4,-6 0,-6 -4,0 -4,6 0,6z"/>
   <path class="fil1" d="M306 476c3,0 3,-5 0,-5 -4,0 -4,5 0,5z"/>
   <path class="fil1" d="M725 508l0 3c0,4 6,4 6,0l0 -3c0,-3 -6,-3 -6,0z"/>
   <path class="fil1" d="M838 567c4,0 4,-6 0,-6 -3,0 -3,6 0,6z"/>
   <path class="fil1" d="M847 1710c4,0 4,-6 0,-6 -4,0 -4,6 0,6z"/>
   <path class="fil1" d="M757 1725c3,0 3,-6 0,-6 -4,0 -4,6 0,6z"/>
   <path class="fil1" d="M547 1893c4,0 4,-5 0,-5 -3,0 -3,5 0,5z"/>
   <path class="fil1" d="M501 1972l0 3c0,4 6,4 6,0l0 -3c0,-4 -6,-4 -6,0z"/>
   <path class="fil1" d="M467 1935c-1,1 -2,2 -3,3 -3,3 1,7 4,4 1,-1 2,-2 3,-3 2,-2 -2,-6 -4,-4z"/>
   <path class="fil1" d="M483 1905c4,0 4,-6 0,-6 -3,0 -3,6 0,6z"/>
   <path class="fil1" d="M405 1896l0 3c0,4 6,4 6,0l0 -3c0,-3 -6,-3 -6,0z"/>
   <path class="fil1" d="M906 1830c0,-1 1,-2 2,-3 3,-2 -1,-6 -4,-4 -1,1 -2,2 -2,3 -3,3 1,7 4,4z"/>
   <path class="fil1" d="M504 1789l3 0c3,0 3,-6 0,-6l-3 0c-4,0 -4,6 0,6z"/>
   <path class="fil1" d="M556 1838c4,0 4,-6 0,-6 -4,0 -4,6 0,6z"/>
   <path class="fil1" d="M882 1957c4,0 4,-5 0,-5 -4,0 -4,5 0,5z"/>
   <path class="fil1" d="M978 1902c4,0 4,-6 0,-6 -4,0 -4,6 0,6z"/>
   <path class="fil1" d="M568 1693c3,0 3,-6 0,-6 -4,0 -4,6 0,6z"/>
   <path class="fil1" d="M715 1854c3,0 3,-5 0,-5 -4,0 -4,5 0,5z"/>
   <path class="fil1" d="M559 1504c4,0 4,-6 0,-6 -4,0 -4,6 0,6z"/>
   <path class="fil1" d="M196 1606c-1,1 -2,2 -3,3 -2,3 2,7 4,4 1,-1 2,-2 3,-3 3,-2 -1,-6 -4,-4z"/>
   <path class="fil1" d="M44 1710c4,0 4,-6 0,-6 -4,0 -4,6 0,6z"/>
   <path class="fil1" d="M1409 1719l0 3c0,3 5,3 5,0l0 -3c0,-4 -5,-4 -5,0z"/>
   <path class="fil1" d="M1257 1664c4,0 4,-6 0,-6 -3,0 -3,6 0,6z"/>
   <path class="fil1" d="M1522 1477c4,0 4,-5 0,-5 -4,0 -4,5 0,5z"/>
   <path class="fil1" d="M1336 1410l0 3c0,4 6,4 6,0l0 -3c0,-3 -6,-3 -6,0z"/>
   <path class="fil1" d="M1266 1236c4,0 4,-6 0,-6 -4,0 -4,6 0,6z"/>
   <path class="fil1" d="M1461 1093c4,0 4,-5 0,-5 -4,0 -4,5 0,5z"/>
   <path class="fil1" d="M1436 987c-1,1 -2,2 -3,2 -3,3 1,7 4,4 1,0 2,-1 3,-2 2,-3 -2,-7 -4,-4z"/>
   <path class="fil1" d="M489 645c4,0 4,-6 0,-6 -3,0 -3,6 0,6z"/>
   <path class="fil1" d="M562 698c4,0 4,-6 0,-6 -4,0 -4,6 0,6z"/>
   <path class="fil1" d="M2569 984c3,0 3,-5 0,-5 -4,0 -4,5 0,5z"/>
   <path class="fil1" d="M1711 948c4,0 4,-6 0,-6 -3,0 -3,6 0,6z"/>
   <path class="fil1" d="M1746 756c4,0 4,-6 0,-6 -3,0 -3,6 0,6z"/>
   <path class="fil1" d="M276 1170c1,-1 2,-2 3,-3 2,-1 2,-4 0,-6 -2,-1 -4,-1 -6,0 -1,1 -2,2 -3,3 -1,2 -1,5 0,6 2,2 5,2 6,0z"/>
   <path class="fil1" d="M1448 252l3 0c2,0 4,-2 4,-5 0,-2 -2,-4 -4,-4l-3 0c-2,0 -4,2 -4,4 0,3 1,5 4,5z"/>
   <path class="fil1" d="M163 923c6,0 6,-9 0,-9 -5,0 -5,9 0,9z"/>
   <path class="fil1" d="M411 868c5,0 5,-9 0,-9 -6,0 -6,9 0,9z"/>
   <path class="fil1" d="M288 1426l3 0c3,0 5,-2 5,-4 -1,-2 -2,-4 -5,-4l-3 0c-2,0 -4,2 -4,4 0,2 2,4 4,4z"/>
   <path class="fil1" d="M696 1397l3 0c2,0 4,-2 4,-4 0,-2 -2,-4 -4,-4l-3 0c-2,0 -5,2 -4,4 0,2 1,4 4,4z"/>
   <path class="fil1" d="M896 1439c-1,1 -2,2 -2,3 -2,2 -2,5 0,6 1,2 4,2 6,0 0,-1 1,-2 2,-3 2,-1 2,-4 0,-6 -1,-1 -4,-1 -6,0z"/>
   <path class="fil1" d="M1163 1189l0 3c0,2 2,5 4,4 2,0 4,-1 4,-4l0 -3c0,-2 -2,-4 -4,-4 -2,0 -4,2 -4,4z"/>
   <path class="fil1" d="M1598 1170c5,0 5,-8 0,-8 -6,0 -6,8 0,8z"/>
   <path class="fil1" d="M1339 1784c5,0 5,-8 0,-8 -6,0 -6,8 0,8z"/>
   <path class="fil1" d="M1016 2011c5,0 5,-8 0,-8 -6,0 -6,8 0,8z"/>
   <path class="fil1" d="M821 2072l3 0c2,0 4,-2 4,-4 0,-2 -2,-4 -4,-4l-3 0c-2,0 -4,2 -4,4 0,2 1,4 4,4z"/>
   <path class="fil1" d="M795 1979c5,0 5,-8 0,-8 -6,0 -6,8 0,8z"/>
   <path class="fil1" d="M745 1953c6,0 6,-8 0,-8 -5,0 -5,8 0,8z"/>
   <path class="fil1" d="M865 434c5,0 5,-8 0,-8 -6,0 -6,8 0,8z"/>
   <path class="fil1" d="M719 391c5,0 5,-9 0,-9 -5,0 -5,9 0,9z"/>
   <path class="fil1" d="M603 385c5,0 5,-9 0,-9 -6,0 -6,9 0,9z"/>
   <path class="fil1" d="M486 494c1,-1 2,-2 3,-3 2,-2 2,-4 0,-6 -1,-2 -4,-2 -6,0 -1,1 -2,2 -3,3 -1,2 -1,4 0,6 2,2 5,2 6,0z"/>
   <path class="fil1" d="M1065 158c-1,1 -2,2 -2,3 -2,2 -2,4 0,6 1,2 4,2 6,0 0,-1 1,-2 2,-3 2,-2 2,-4 0,-6 -1,-2 -4,-2 -6,0z"/>
   <path class="fil1" d="M664 571c5,0 5,-9 0,-9 -6,0 -6,9 0,9z"/>
   <path class="fil1" d="M600 632c5,0 5,-8 0,-8 -6,0 -6,8 0,8z"/>
   <path class="fil1" d="M700 703l0 3c0,3 2,5 4,5 3,-1 5,-2 5,-5l0 -3c0,-2 -2,-4 -5,-4 -2,0 -4,2 -4,4z"/>
   <path class="fil1" d="M803 673c6,0 6,-9 0,-9 -5,0 -5,9 0,9z"/>
   <path class="fil1" d="M792 632c5,0 5,-8 0,-8 -6,0 -6,8 0,8z"/>
   <path class="fil1" d="M867 738c-1,1 -2,2 -3,3 -1,2 -1,5 0,6 2,2 5,2 6,0 1,-1 2,-2 3,-3 2,-1 2,-4 0,-6 -1,-1 -4,-1 -6,0z"/>
   <path class="fil1" d="M253 1828c6,0 6,-9 0,-9 -5,0 -5,9 0,9z"/>
   <path class="fil1" d="M291 1915c6,0 6,-8 0,-8 -5,0 -5,8 0,8z"/>
   <path class="fil1" d="M366 1978l0 3c0,2 2,4 4,4 2,0 4,-2 4,-4l0 -3c0,-2 -2,-4 -4,-4 -2,0 -4,1 -4,4z"/>
   <path class="fil1" d="M1187 1799c6,0 6,-9 0,-9 -5,0 -5,9 0,9z"/>
   <path class="fil1" d="M1342 1709c5,0 5,-9 0,-9 -6,0 -6,9 0,9z"/>
   <path class="fil1" d="M1337 172l0 3c0,3 3,5 6,5 3,0 6,-2 6,-5l0 -3c0,-3 -3,-6 -6,-6 -3,0 -6,2 -6,6z"/>
   <path class="fil1" d="M128 663c8,0 8,-12 0,-12 -7,0 -7,12 0,12z"/>
   <path class="fil1" d="M1234 1079c7,0 7,-12 0,-12 -7,0 -7,12 0,12z"/>
   <path class="fil1" d="M1137 1609c1,1 2,2 3,3 2,2 6,3 8,0 2,-2 2,-5 0,-8 -1,-1 -2,-2 -3,-3 -2,-2 -6,-2 -8,0 -2,3 -2,6 0,8z"/>
   <path class="fil1" d="M1027 1572c2,-1 4,-2 6,-3 3,-1 4,-5 2,-7 -2,-3 -5,-4 -8,-2 -2,0 -4,1 -5,2 -3,2 -4,6 -2,8 1,3 4,4 7,2z"/>
   <path class="fil1" d="M377 538l0 2c0,3 2,5 5,5 2,0 4,-2 4,-5l0 -2c0,-3 -2,-5 -4,-5 -3,0 -5,2 -5,5z"/>
   <path class="fil1" d="M498 901c1,-1 2,-2 3,-3 2,-1 2,-4 0,-6 -2,-1 -4,-1 -6,0 -1,1 -2,2 -3,3 -2,2 -2,5 0,6 2,2 4,2 6,0z"/>
   <path class="fil1" d="M703 977c-1,-3 4,-5 5,-2 0,1 1,2 1,2 0,0 0,0 0,0 0,-2 -2,-4 -4,-4 -3,0 -4,2 -5,4 0,3 3,5 6,5 3,0 5,-2 5,-5 0,-2 -2,-4 -4,-4 -2,0 -5,2 -4,4z"/>
   <path class="fil1" d="M847 1048c6,0 6,-8 0,-8 -5,0 -5,8 0,8z"/>
   <path class="fil1" d="M1004 1147c6,0 6,-8 0,-8 -5,0 -5,8 0,8z"/>
   <path class="fil1" d="M1022 1036c5,0 5,-8 0,-8 -6,0 -6,8 0,8z"/>
   <path class="fil1" d="M405 2058c5,0 5,-9 0,-9 -6,0 -6,9 0,9z"/>
   <path class="fil1" d="M530 2094c-1,1 -2,2 -3,3 -2,1 -2,4 0,6 1,1 4,1 6,0 1,-1 2,-2 3,-3 1,-2 1,-4 0,-6 -2,-2 -5,-2 -6,0z"/>
   <path class="fil1" d="M579 2034c6,0 6,-8 0,-8 -5,0 -5,8 0,8z"/>
   <path class="fil1" d="M699 2043c5,0 5,-8 0,-8 -6,0 -6,8 0,8z"/>
   <path class="fil1" d="M678 1959c6,0 6,-9 0,-9 -5,0 -5,9 0,9z"/>
   <path class="fil1" d="M571 1994c5,0 5,-9 0,-9 -6,0 -6,9 0,9z"/>
   <path class="fil1" d="M416 2116c6,0 6,-9 0,-9 -5,0 -5,9 0,9z"/>
   <path class="fil1" d="M254 2193c1,-1 2,-2 2,-3 2,-1 2,-4 0,-6 -1,-1 -4,-1 -6,0 0,1 -1,2 -2,3 -2,2 -2,5 0,6 1,2 4,2 6,0z"/>
   <path class="fil1" d="M1279 2161c5,0 5,-8 0,-8 -6,0 -6,8 0,8z"/>
   <path class="fil1" d="M67 1778c6,0 6,-8 0,-8 -5,0 -5,8 0,8z"/>
   <path class="fil1" d="M160 1755c6,0 6,-8 0,-8 -5,0 -5,8 0,8z"/>
   <path class="fil1" d="M1307 1502c5,0 5,-8 0,-8 -6,0 -6,8 0,8z"/>
   <path class="fil1" d="M1444 1549c5,0 5,-9 0,-9 -6,0 -6,9 0,9z"/>
   <path class="fil1" d="M294 1576c1,-1 2,-2 3,-2 2,-2 2,-5 0,-6 -1,-2 -4,-2 -6,0l-3 2c-1,2 -1,5 0,6 2,2 5,2 6,0z"/>
   <path class="fil1" d="M60 1426c5,0 5,-9 0,-9 -6,0 -6,9 0,9z"/>
   <path class="fil1" d="M1027 1045c6,0 6,-8 0,-8 -5,0 -5,8 0,8z"/>
   <path class="fil1" d="M1172 989l0 2c0,3 2,5 4,5 2,0 4,-2 4,-5l0 -2c0,-3 -2,-5 -4,-5 -2,0 -4,2 -4,5z"/>
   <path class="fil1" d="M838 308c1,-1 2,-2 3,-3 2,-2 2,-4 0,-6 -1,-2 -4,-2 -6,0 -1,1 -2,2 -3,3 -1,1 -1,4 0,6 2,1 5,1 6,0z"/>
   <path class="fil1" d="M399 180c6,0 6,-8 0,-8 -5,0 -5,8 0,8z"/>
   <path class="fil1" d="M172 402c5,0 5,-8 0,-8 -5,0 -5,8 0,8z"/>
   <path class="fil1" d="M1409 1866c5,0 5,-9 0,-9 -6,0 -6,9 0,9z"/>
   <path class="fil1" d="M1187 1441c6,0 6,-9 0,-9 -5,0 -5,9 0,9z"/>
   <path class="fil1" d="M1260 1426c6,0 6,-8 0,-8 -5,0 -5,8 0,8z"/>
   <path class="fil1" d="M1438 1185c5,0 5,-9 0,-9 -6,0 -6,9 0,9z"/>
   <path class="fil1" d="M1388 1153c6,0 6,-9 0,-9 -5,0 -5,9 0,9z"/>
   <path class="fil1" d="M1394 1086c6,0 6,-9 0,-9 -5,0 -5,9 0,9z"/>
   <path class="fil1" d="M403 1266c5,0 5,-9 0,-9 -6,0 -6,9 0,9z"/>
   <path class="fil1" d="M2574 1469l3 0c4,0 8,-3 7,-7 0,-4 -3,-7 -7,-7l-3 0c-3,0 -7,3 -7,7 0,4 3,7 7,7z"/>
   <path class="fil1" d="M534 982c13,0 13,-19 0,-19 -13,0 -13,19 0,19z"/>
   <path class="fil1" d="M943 1996c13,0 13,-19 0,-19 -13,0 -13,19 0,19z"/>
   <path class="fil1" d="M431 1711c13,0 13,-19 0,-19 -13,0 -13,19 0,19z"/>
   <path class="fil1" d="M998 1001l3 0c5,0 10,-4 10,-10 0,-5 -4,-9 -10,-9l-3 0c-5,0 -10,4 -10,9 1,6 5,10 10,10z"/>
   <path class="fil1" d="M1406 169l0 3c0,5 4,10 10,10 5,-1 10,-5 10,-10l0 -3c0,-5 -5,-10 -10,-10 -6,0 -10,4 -10,10z"/>
   <path class="fil1" d="M1497 2136l3 0c3,0 3,-6 0,-6l-3 0c-4,0 -4,6 0,6z"/>
   <path class="fil1" d="M818 1416c4,0 4,-5 0,-5 -4,0 -4,5 0,5z"/>
   <path class="fil1" d="M886 1481c-1,1 -2,2 -3,3 -3,3 1,7 4,4 1,-1 2,-2 3,-3 2,-2 -2,-6 -4,-4z"/>
   <path class="fil1" d="M763 1521c3,0 3,-6 0,-6 -4,0 -4,6 0,6z"/>
   <path class="fil1" d="M745 1635l0 2c0,4 6,4 6,0l0 -2c0,-4 -6,-4 -6,0z"/>
   <path class="fil1" d="M1173 1245l3 0c3,0 3,-6 0,-6l-3 0c-4,0 -4,6 0,6z"/>
   <path class="fil1" d="M1243 1166c3,0 3,-6 0,-6 -4,0 -4,6 0,6z"/>
   <path class="fil1" d="M454 604c4,0 4,-5 0,-5 -3,0 -3,5 0,5z"/>
   <path class="fil1" d="M498 607c4,0 4,-5 0,-5 -4,0 -4,5 0,5z"/>
   <path class="fil1" d="M530 581l3 0c3,0 3,-6 0,-6l-3 0c-4,0 -4,6 0,6z"/>
   <path class="fil1" d="M515 549c4,0 4,-6 0,-6 -3,0 -3,6 0,6z"/>
   <path class="fil1" d="M460 546c4,0 4,-5 0,-5 -4,0 -4,5 0,5z"/>
   <path class="fil1" d="M1372 122c4,0 4,-6 0,-6 -3,0 -3,6 0,6z"/>
   <path class="fil1" d="M1361 151c3,0 3,-5 0,-5 -4,0 -4,5 0,5z"/>
   <path class="fil1" d="M1298 1163c7,0 7,-11 0,-11 -7,0 -7,11 0,11z"/>
   <path class="fil1" d="M2393 1120c7,0 7,-12 0,-12 -8,0 -8,12 0,12z"/>
   <path class="fil1" d="M358 604l0 3c0,4 6,4 6,0l0 -3c0,-3 -6,-3 -6,0z"/>
   <path class="fil1" d="M367 572c4,0 4,-5 0,-5 -4,0 -4,5 0,5z"/>
   <path class="fil1" d="M1548 1457c4,0 4,-6 0,-6 -3,0 -3,6 0,6z"/>
   <path class="fil1" d="M1563 1434c3,0 3,-6 0,-6 -4,0 -4,6 0,6z"/>
   <path class="fil1" d="M547 566c8,0 8,-11 0,-11 -7,0 -7,11 0,11z"/>
   <path class="fil1" d="M1066 454l0 2c0,7 11,7 11,0l0 -2c0,-7 -11,-7 -11,0l0 2c0,7 11,7 11,0l0 -2c0,-7 -11,-7 -11,0z"/>
   <path class="fil1" d="M836 96c7,0 7,-11 0,-11 -7,0 -7,11 0,11z"/>
   <path class="fil1" d="M162 107c7,0 7,-11 0,-11 -8,0 -8,11 0,11z"/>
   <path class="fil1" d="M242 1998c7,0 7,-11 0,-11 -7,0 -7,11 0,11z"/>
   <path class="fil1" d="M202 1996c1,-1 2,-2 3,-2 2,-3 2,-6 0,-8 -2,-3 -6,-3 -8,0 -1,0 -2,1 -3,2 -2,3 -2,6 0,8 2,2 6,3 8,0z"/>
   <path class="fil1" d="M1100 2208l3 0c3,0 6,-3 6,-6 -1,-3 -3,-5 -6,-5l-3 0c-3,0 -6,2 -6,5 0,3 3,6 6,6z"/>
   <path class="fil1" d="M163 622c4,0 4,-6 0,-6 -3,0 -3,6 0,6z"/>
   <path class="fil1" d="M175 581c4,0 4,-6 0,-6 -4,0 -4,6 0,6z"/>
   <path class="fil1" d="M207 567c4,0 4,-6 0,-6 -4,0 -4,6 0,6z"/>
   <path class="fil1" d="M184 532c3,0 3,-6 0,-6 -4,0 -4,6 0,6z"/>
   <path class="fil1" d="M2193 1651c3,0 3,5 0,5 -4,0 -4,-5 0,-5z"/>
   <path class="fil1" d="M2344 1604c3,0 3,6 0,6 -4,0 -4,-6 0,-6z"/>
   <path class="fil1" d="M1843 1478c5,0 5,-9 0,-9 -5,0 -5,9 0,9z"/>
   <path class="fil1" d="M1931 1748l3 0c4,0 4,-6 0,-6l-3 0c-3,0 -3,6 0,6z"/>
  </g>
 </g>
</svg>
