<?xml version="1.0" encoding="UTF-8"?>
<!DOCTYPE svg PUBLIC "-//W3C//DTD SVG 1.1//EN" "http://www.w3.org/Graphics/SVG/1.1/DTD/svg11.dtd">
<!-- Creator: CorelDRAW X7 -->
<svg xmlns="http://www.w3.org/2000/svg" xml:space="preserve" width="100%" height="100%" version="1.1" style="shape-rendering:geometricPrecision; text-rendering:geometricPrecision; image-rendering:optimizeQuality; fill-rule:evenodd; clip-rule:evenodd"
viewBox="0 0 4832 2136"
 xmlns:xlink="http://www.w3.org/1999/xlink">
 <defs>
  <style type="text/css">
   <![CDATA[
    .fil1 {fill:#D2AE6D}
    .fil2 {fill:black}
    .fil3 {fill:white}
    .fil0 {fill:#282828;fill-rule:nonzero}
   ]]>
  </style>
 </defs>
 <g id="Layer_x0020_1">
  <metadata id="CorelCorpID_0Corel-Layer"/>
  <g id="_1882128937376">
   <path class="fil0" d="M2225 1024c-8,0 -15,-1 -23,-4 -7,-2 -13,-8 -18,-16 -3,5 -7,8 -11,11 -4,2 -9,4 -14,6 -5,1 -10,2 -15,2 -5,1 -11,1 -16,1l-170 0c-15,0 -28,-1 -39,-3 -10,-3 -18,-6 -24,-11 -7,-5 -11,-11 -14,-19 -2,-8 -4,-17 -4,-29l0 -64 51 0 0 58c0,5 1,9 2,12 1,3 4,5 7,7 3,2 8,3 13,3 6,1 13,1 22,1l148 0c9,0 15,-1 18,-4 4,-3 6,-9 6,-18l0 -88 50 0 0 83c0,10 2,17 6,21 4,4 12,6 25,6 2,0 4,0 5,1 2,0 4,1 5,3 2,1 3,3 4,6 0,3 1,7 1,12 0,8 -1,14 -4,18 -2,3 -6,5 -11,5zm-215 121c0,-7 3,-14 8,-19 6,-6 12,-8 20,-8 7,0 14,2 19,8 5,5 8,12 8,19 0,8 -3,14 -8,20 -5,5 -12,8 -19,8 -8,0 -14,-3 -20,-8 -5,-6 -8,-12 -8,-20zm-32 -56c0,-7 3,-14 9,-19 5,-6 11,-8 19,-8 7,0 14,2 19,8 6,5 8,12 8,19 0,7 -2,14 -8,19 -5,6 -12,8 -19,8 -8,0 -14,-2 -19,-8 -6,-5 -9,-12 -9,-19zm64 0c0,-7 2,-14 8,-19 5,-6 12,-8 19,-8 8,0 14,2 20,8 5,5 8,12 8,19 0,7 -3,14 -8,19 -6,6 -12,8 -20,8 -7,0 -14,-2 -19,-8 -6,-5 -8,-12 -8,-19zm182 -65c-2,0 -3,0 -5,-1 -2,0 -4,-1 -5,-3 -2,-1 -3,-3 -4,-6 0,-3 -1,-7 -1,-12 0,-9 2,-15 4,-18 3,-4 6,-5 11,-5l62 0 0 -110 51 0 0 155 -113 0zm5 65c0,-7 3,-14 8,-19 5,-6 12,-8 19,-8 8,0 14,2 20,8 5,5 8,12 8,19 0,7 -3,14 -8,19 -6,6 -12,8 -20,8 -7,0 -14,-2 -19,-8 -5,-5 -8,-12 -8,-19zm63 0c0,-7 3,-14 8,-19 6,-6 12,-8 20,-8 7,0 14,2 19,8 5,5 8,12 8,19 0,7 -3,14 -8,19 -5,6 -12,8 -19,8 -8,0 -14,-2 -20,-8 -5,-5 -8,-12 -8,-19zm249 -65c-8,0 -14,-1 -19,-1 -6,-1 -10,-2 -14,-4 -4,-1 -7,-3 -11,-6 -3,-2 -7,-5 -10,-9 -8,9 -16,14 -25,17 -8,2 -18,3 -28,3l-67 0 0 -45 76 0c7,0 11,-1 14,-3 3,-2 5,-4 5,-7 0,-2 -1,-6 -4,-10 -2,-4 -7,-11 -14,-21l-35 -52 46 -29 47 78c5,9 9,16 13,21 3,6 6,11 9,14 3,3 6,6 9,7 2,1 5,2 8,2 2,0 4,0 6,1 2,0 3,1 5,3 1,1 2,3 3,6 1,3 1,7 1,12 0,8 -1,14 -4,18 -2,3 -6,5 -11,5zm41 -222c0,-7 3,-14 8,-19 5,-6 12,-8 20,-8 7,0 13,2 19,8 5,5 8,12 8,19 0,8 -3,14 -8,20 -6,5 -12,8 -19,8 -8,0 -14,-3 -20,-8 -5,-6 -8,-12 -8,-20zm4 177l0 -110 50 0 0 155 -95 0c-2,0 -4,0 -6,-1 -2,0 -3,-1 -5,-2 -1,-2 -2,-4 -3,-7 -1,-3 -1,-7 -1,-12 0,-8 1,-15 3,-18 3,-3 7,-5 12,-5l45 0zm202 45c-3,0 -8,-1 -14,-3 -6,-1 -11,-4 -15,-10 -1,18 -3,33 -6,44 -4,12 -10,22 -18,29 -8,7 -18,12 -29,15 -12,4 -27,5 -43,6l0 -48c10,0 19,-1 25,-4 6,-2 11,-5 14,-9 3,-5 5,-10 6,-17 1,-7 1,-15 1,-25l0 -116 50 0 0 66c0,11 3,18 10,21 6,4 12,6 19,6 2,0 4,0 6,1 2,0 3,1 5,3 1,1 2,3 3,6 1,3 1,7 1,12 0,8 -1,14 -3,18 -3,3 -7,5 -12,5zm16 -45c6,0 10,0 14,0 4,-1 7,-1 9,-3 2,-1 4,-3 5,-5 1,-3 2,-6 2,-10l0 -75 50 0 0 66c0,9 2,15 6,20 5,5 12,7 21,7 8,0 14,-1 20,-3 5,-3 8,-8 8,-15l0 -75 50 0 0 66c0,18 8,27 23,27l24 0 0 -110 50 0 0 155 -59 0c-14,0 -24,-2 -31,-5 -7,-3 -13,-8 -18,-15 -4,5 -8,8 -12,11 -5,3 -9,5 -14,6 -5,1 -9,2 -14,2 -4,1 -8,1 -13,1 -13,0 -24,-2 -33,-7 -9,-4 -15,-8 -19,-13 -7,9 -16,14 -27,17 -11,2 -26,3 -43,3l-15 0c-2,0 -4,0 -6,-1 -2,0 -3,-1 -5,-2 -1,-2 -2,-4 -3,-7 -1,-3 -1,-7 -1,-12 0,-8 1,-15 4,-18 2,-3 6,-5 11,-5l16 0zm413 66c0,-12 1,-23 2,-31 1,-9 4,-17 8,-23 4,-6 9,-12 15,-16 7,-5 15,-10 25,-14 2,-16 7,-30 13,-41 6,-12 13,-21 21,-28 8,-6 16,-11 25,-14 8,-3 16,-5 23,-5 11,0 20,2 29,6 9,4 17,9 23,16 6,7 11,16 14,26 4,9 6,20 6,32 0,23 -6,41 -18,55 -11,14 -29,21 -52,21 -22,0 -45,-8 -68,-24 -5,3 -9,7 -11,14 -2,6 -4,15 -4,27l0 132 -51 0 0 -133zm156 -93c0,-9 -3,-16 -8,-23 -5,-6 -11,-10 -20,-10 -8,0 -16,4 -23,12 -7,7 -11,20 -14,38 7,4 14,7 21,9 8,3 14,4 19,4 7,0 13,-3 18,-8 4,-6 7,-13 7,-22zm140 -205l0 277 -50 0 0 -277 50 0zm181 139l50 0 0 116c0,19 -1,34 -4,47 -3,13 -8,24 -15,32 -7,8 -17,14 -29,18 -13,3 -29,5 -48,6l0 -48c10,0 18,-1 25,-4 6,-2 11,-5 14,-9 3,-5 5,-10 6,-17 1,-7 1,-15 1,-25l0 -116zm147 -139l0 277 -50 0 0 -277 50 0zm-93 -50c7,-7 14,-12 20,-14 6,-3 11,-4 16,-4 5,0 11,1 18,4 7,2 14,5 19,8 6,3 11,5 17,7 5,1 9,2 13,2 5,0 9,-2 12,-6 3,-3 5,-7 6,-11l20 8c-4,12 -9,21 -15,27 -5,6 -13,9 -23,9 -7,0 -14,-1 -20,-3 -7,-2 -13,-4 -19,-7 -5,-3 -11,-5 -16,-7 -5,-2 -10,-3 -14,-3 -4,0 -7,1 -11,2 -3,1 -6,3 -11,7l-12 -19zm483 327c0,2 1,5 1,8 0,2 0,6 0,10 0,10 -2,20 -5,29 -4,8 -11,16 -22,23 -10,6 -23,11 -40,15 -17,3 -39,5 -65,5 -25,0 -46,-2 -63,-7 -16,-5 -29,-11 -39,-20 -10,-8 -17,-18 -20,-29 -4,-11 -6,-24 -6,-37l0 -64 50 0 0 62c0,17 6,29 19,37 12,8 32,12 60,12 18,0 32,-1 43,-3 11,-2 20,-5 26,-8 6,-3 10,-6 12,-10 2,-3 3,-6 3,-9 0,-6 -7,-12 -20,-17 -14,-4 -31,-10 -54,-15l0 -47c17,6 33,11 49,14 15,4 29,6 42,6l48 0c2,0 4,0 6,1 2,0 4,1 5,3 1,1 3,3 3,6 1,3 1,7 1,12 0,8 -1,14 -3,18 -3,3 -6,5 -12,5l-19 0zm35 -45c6,0 11,0 14,0 4,-1 7,-1 9,-3 3,-1 4,-3 6,-5 1,-3 1,-6 1,-10l0 -75 50 0 0 66c0,9 2,15 7,20 4,5 11,7 21,7 7,0 14,-1 19,-3 5,-3 8,-8 8,-15l0 -75 50 0 0 66c0,18 8,27 23,27l24 0 0 -110 51 0 0 155 -60 0c-13,0 -24,-2 -31,-5 -7,-3 -13,-8 -18,-15 -3,5 -8,8 -12,11 -4,3 -9,5 -14,6 -4,1 -9,2 -13,2 -5,1 -9,1 -13,1 -13,0 -25,-2 -34,-7 -8,-4 -15,-8 -19,-13 -7,9 -16,14 -27,17 -11,2 -25,3 -43,3l-15 0c-2,0 -4,0 -5,-1 -2,0 -4,-1 -5,-2 -2,-2 -3,-4 -4,-7 0,-3 -1,-7 -1,-12 0,-8 1,-15 4,-18 2,-3 6,-5 11,-5l16 0zm-2504 603c-9,0 -16,-2 -22,-6 -6,-4 -10,-9 -12,-14 0,19 -2,35 -4,47 -2,13 -6,24 -12,31 -7,8 -15,14 -26,17 -11,4 -25,6 -42,6l0 -32c12,0 22,-2 29,-5 7,-2 13,-7 16,-13 4,-6 6,-14 7,-23 0,-10 0,-21 0,-34l0 -104 32 0 0 55c0,13 2,23 7,31 5,8 14,11 27,11 10,0 15,6 15,16 0,6 -1,11 -4,13 -2,2 -6,4 -11,4zm-1 0c-10,0 -15,-6 -15,-16 0,-6 1,-11 4,-13 2,-2 6,-4 11,-4l26 0c7,0 12,0 16,0 5,-1 8,-2 11,-4 3,-2 6,-5 7,-9 1,-3 2,-8 2,-15l0 -89 32 0 0 75c0,6 0,12 1,17 1,6 3,10 5,14 3,3 7,6 11,8 4,2 10,3 17,3 10,0 15,6 15,16 0,6 -1,11 -3,13 -3,2 -7,4 -12,4 -10,0 -19,-3 -25,-8 -6,-4 -10,-10 -12,-18 -5,11 -12,18 -22,21 -10,3 -22,5 -37,5l-32 0zm31 58c0,-6 2,-10 6,-14 4,-4 9,-6 15,-6 5,0 10,2 14,6 4,4 6,8 6,14 0,6 -2,11 -6,15 -4,4 -9,6 -14,6 -6,0 -11,-2 -15,-6 -4,-4 -6,-9 -6,-15zm50 0c0,-6 2,-10 6,-14 5,-4 9,-6 15,-6 6,0 11,2 15,6 4,4 6,8 6,14 0,6 -2,11 -6,15 -4,4 -9,6 -15,6 -6,0 -10,-2 -15,-6 -4,-4 -6,-9 -6,-15zm60 -91c9,0 16,0 22,0 6,-1 10,-2 14,-4 3,-2 6,-5 8,-9 1,-3 2,-8 2,-15l0 -69 32 0 0 55c0,6 0,12 1,17 1,6 2,10 5,14 3,3 7,6 13,8 5,2 12,3 21,3 6,0 11,0 15,0 4,-1 7,-2 10,-4 3,-2 5,-5 7,-9 1,-3 2,-8 2,-15l0 -69 31 0 0 55c0,6 1,12 2,17 1,6 3,10 5,14 3,3 7,6 12,8 4,2 11,3 18,3 5,0 9,0 12,0 4,-1 7,-2 10,-4 2,-2 4,-5 6,-9 1,-3 2,-8 2,-15l0 -89 32 0 0 75c0,6 0,12 1,17 1,6 3,10 5,14 3,3 6,6 11,8 4,2 10,3 17,3 10,0 15,6 15,16 0,6 -1,11 -4,13 -2,2 -6,4 -11,4 -11,0 -19,-3 -25,-8 -6,-4 -10,-10 -12,-18 -3,6 -6,10 -10,13 -4,4 -9,6 -13,8 -5,2 -10,3 -14,4 -4,0 -8,1 -11,1 -9,0 -16,-1 -22,-3 -6,-1 -10,-3 -14,-6 -4,-2 -7,-5 -9,-8 -3,-3 -4,-6 -6,-9 -4,11 -11,18 -21,21 -10,3 -21,5 -35,5 -9,0 -16,-1 -23,-3 -6,-1 -11,-3 -14,-5 -4,-3 -7,-5 -10,-9 -2,-3 -4,-6 -5,-9 -3,5 -6,10 -9,13 -4,3 -8,6 -14,8 -5,2 -12,3 -20,4 -8,0 -18,1 -30,1l-13 0c-10,0 -15,-6 -15,-16 0,-6 1,-11 4,-13 2,-2 6,-4 11,-4l14 0zm316 33c-11,0 -16,-6 -16,-16 0,-6 1,-11 4,-13 2,-2 6,-4 12,-4l16 0c3,0 6,0 9,-1 4,0 7,-2 10,-5 4,-2 7,-6 10,-10 3,-5 7,-11 9,-19 6,-16 13,-30 19,-40 7,-10 13,-18 20,-24 7,-5 14,-9 21,-11 8,-2 15,-2 22,-2 9,0 18,1 27,5 8,4 15,9 21,16 6,7 11,15 15,24 3,10 5,20 5,32 0,23 -6,40 -16,53 -11,13 -27,20 -50,20 -12,0 -25,-2 -37,-7 -12,-4 -25,-11 -38,-21 -3,6 -7,10 -10,13 -4,3 -8,5 -11,6 -4,2 -8,3 -12,3 -5,0 -9,1 -14,1l-16 0zm172 -69c0,-6 -1,-11 -3,-17 -2,-5 -4,-10 -7,-14 -4,-4 -8,-8 -12,-10 -5,-2 -10,-4 -16,-4 -11,0 -21,5 -30,15 -9,9 -18,26 -26,50 10,6 19,11 29,15 9,4 19,6 29,6 10,0 19,-3 26,-9 6,-7 10,-17 10,-32zm214 -61l31 0 0 108c0,19 -1,35 -3,48 -2,13 -6,24 -13,32 -6,8 -14,14 -25,17 -11,4 -25,6 -43,6l0 -32c13,0 23,-2 30,-5 7,-2 12,-7 16,-13 3,-6 5,-14 6,-23 1,-10 1,-21 1,-34l0 -104zm213 87c0,12 -4,23 -13,31 -8,8 -21,12 -37,12l-93 0 0 -33 90 0c9,0 15,-1 17,-4 2,-2 3,-5 3,-9 0,-2 0,-5 -1,-8 -1,-3 -4,-7 -8,-14 -4,-6 -10,-15 -17,-26 -8,-11 -18,-27 -32,-46l30 -19c11,18 20,33 27,45 8,12 14,23 19,31 5,9 9,16 11,22 3,6 4,12 4,18zm235 26c0,6 -1,11 -4,13 -2,2 -6,4 -12,4l-10 0c-8,0 -16,-1 -23,-3 -6,-2 -12,-5 -17,-9 -5,-4 -9,-9 -11,-16 -3,-7 -4,-16 -4,-26l0 -223 31 0 0 214c0,11 2,19 6,24 3,4 11,6 22,6l6 0c11,0 16,6 16,16zm223 17c-10,0 -18,-2 -26,-6 -7,-4 -13,-11 -17,-20l0 -1c-5,10 -12,18 -22,23 -9,6 -21,9 -35,9 -13,0 -25,-2 -37,-7 -13,-4 -25,-11 -38,-21 -4,6 -7,10 -11,13 -3,3 -7,5 -11,6 -4,2 -8,3 -12,3 -4,0 -8,1 -13,1l-17 0c-10,0 -15,-6 -15,-16 0,-6 1,-11 3,-13 3,-2 7,-4 12,-4l16 0c3,0 7,0 10,-1 3,0 7,-2 10,-5 3,-2 7,-6 10,-10 3,-5 6,-11 9,-19 6,-16 12,-30 19,-40 6,-10 13,-18 20,-24 7,-5 14,-9 21,-11 7,-2 14,-2 21,-2 10,0 19,1 27,5 8,4 16,9 22,16 6,7 11,15 14,24 3,10 5,20 5,32 0,2 0,4 0,5 0,2 0,4 0,5 2,9 6,15 11,19 5,4 13,6 24,6 10,0 15,6 15,16 0,6 -1,11 -3,13 -3,2 -7,4 -12,4zm-67 -69c0,-6 -1,-11 -2,-17 -2,-5 -4,-10 -8,-14 -3,-4 -7,-8 -12,-10 -4,-2 -10,-4 -16,-4 -11,0 -21,5 -30,15 -9,9 -17,26 -25,50 9,6 19,11 28,15 10,4 19,6 29,6 11,0 20,-3 26,-9 7,-7 10,-17 10,-32zm80 36c9,0 16,0 22,0 6,-1 11,-2 14,-4 4,-2 6,-5 8,-9 1,-3 2,-8 2,-15l0 -70 32 0 0 56c0,6 0,12 1,17 1,6 3,10 6,14 2,3 6,6 12,8 5,2 12,3 21,3 5,0 10,0 15,0 4,-1 8,-2 10,-4 3,-2 5,-5 7,-9 1,-3 2,-8 2,-15l0 -69 32 0 0 55c0,6 0,12 1,17 1,6 3,10 5,14 3,3 6,6 10,8 5,2 10,3 17,3l33 0 0 -117 31 0 0 150 -64 0c-10,0 -18,-3 -24,-8 -6,-4 -10,-10 -12,-18 -5,11 -12,18 -22,21 -10,3 -22,5 -36,5 -9,0 -16,-1 -22,-3 -6,-1 -11,-3 -15,-5 -3,-3 -6,-5 -9,-9 -2,-3 -4,-6 -5,-9 -3,5 -5,10 -9,13 -4,3 -8,6 -14,8 -5,2 -12,3 -20,4 -8,0 -18,1 -29,1l-13 0c-11,0 -16,-6 -16,-16 0,-6 1,-11 4,-13 2,-2 6,-4 12,-4l13 0zm119 -182c0,-6 2,-11 6,-14 4,-4 9,-6 15,-6 6,0 11,2 14,6 4,3 6,8 6,14 0,6 -2,11 -6,15 -3,4 -8,6 -14,6 -6,0 -11,-2 -15,-6 -4,-4 -6,-9 -6,-15zm51 0c0,-6 2,-11 6,-14 4,-4 9,-6 14,-6 6,0 11,2 15,6 4,3 6,8 6,14 0,6 -2,11 -6,15 -4,4 -9,6 -15,6 -5,0 -10,-2 -14,-6 -4,-4 -6,-9 -6,-15zm-25 -46c0,-6 2,-11 6,-15 4,-4 9,-6 15,-6 6,0 10,2 14,6 4,4 6,9 6,15 0,5 -2,10 -6,14 -4,4 -8,6 -14,6 -6,0 -11,-2 -15,-6 -4,-4 -6,-9 -6,-14zm345 137c-7,0 -13,2 -18,5 -6,3 -10,7 -14,12 -4,5 -7,10 -9,17 -2,6 -4,13 -4,20 0,7 2,13 4,18 2,5 5,9 9,13 4,3 9,5 14,7 6,1 11,2 17,2 6,0 11,-1 16,-2 6,-1 10,-3 15,-6 4,-3 7,-7 10,-12 2,-5 3,-11 3,-18 0,-9 -1,-16 -3,-23 -3,-7 -6,-13 -10,-18 -4,-4 -9,-8 -14,-11 -5,-2 -11,-4 -16,-4zm-74 57c0,-10 2,-20 5,-31 4,-10 9,-20 15,-28 7,-9 14,-16 24,-21 9,-6 19,-8 31,-8 10,0 19,2 28,6 9,4 16,10 23,17 6,8 12,17 15,28 4,11 6,23 6,37 0,9 -1,17 -4,25 -3,8 -7,16 -13,22 -6,6 -14,12 -24,16 -9,3 -20,5 -34,5 -10,0 -20,-1 -29,-4 -9,-2 -16,-6 -23,-12 -6,-6 -11,-13 -14,-21 -4,-9 -6,-19 -6,-31zm225 -210l0 277 -32 0 0 -277 32 0zm148 277c-9,0 -16,-2 -22,-6 -5,-4 -9,-9 -12,-14 0,19 -1,35 -4,47 -2,13 -6,24 -12,31 -6,8 -15,14 -26,17 -11,4 -25,6 -42,6l0 -32c12,0 22,-2 30,-5 7,-2 12,-7 16,-13 3,-6 5,-14 6,-23 0,-10 1,-21 1,-34l0 -104 31 0 0 55c0,13 3,23 7,31 5,8 14,11 27,11 10,0 15,6 15,16 0,6 -1,11 -3,13 -3,2 -7,4 -12,4zm238 0c-10,0 -18,-2 -25,-6 -8,-4 -13,-11 -18,-20l0 -1c-5,10 -12,18 -21,23 -10,6 -22,9 -36,9 -12,0 -25,-2 -37,-7 -12,-4 -25,-11 -38,-21 -3,6 -7,10 -10,13 -4,3 -8,5 -12,6 -3,2 -7,3 -12,3 -4,0 -8,1 -13,1l-16 0c-11,0 -16,-6 -16,-16 0,-6 1,-11 4,-13 2,-2 6,-4 12,-4l16 0c3,0 6,0 9,-1 4,0 7,-2 10,-5 4,-2 7,-6 10,-10 3,-5 7,-11 9,-19 6,-16 13,-30 19,-40 7,-10 13,-18 20,-24 7,-5 14,-9 21,-11 7,-2 15,-2 22,-2 9,0 18,1 26,5 9,4 16,9 22,16 6,7 11,15 14,24 4,10 6,20 6,32 0,2 0,4 -1,5 0,2 0,4 0,5 3,9 7,15 12,19 5,4 12,6 23,6 11,0 16,6 16,16 0,6 -2,11 -4,13 -2,2 -6,4 -12,4zm-67 -69c0,-6 0,-11 -2,-17 -2,-5 -4,-10 -7,-14 -4,-4 -8,-8 -12,-10 -5,-2 -10,-4 -16,-4 -11,0 -21,5 -30,15 -9,9 -18,26 -26,50 10,6 19,11 29,15 9,4 19,6 29,6 10,0 19,-3 26,-9 6,-7 9,-17 9,-32zm67 69c-10,0 -15,-6 -15,-16 0,-6 1,-11 3,-13 3,-2 7,-4 12,-4l62 0c-3,-3 -5,-8 -8,-15 -2,-7 -3,-15 -3,-25 0,-13 3,-26 9,-38 7,-12 16,-20 29,-24 -5,0 -10,0 -16,0 -5,0 -10,0 -15,0l0 -29c28,-1 53,0 75,4 23,4 42,12 57,22 15,11 27,26 35,44 8,18 12,39 12,65l0 29 -237 0zm109 -33c5,0 10,-1 14,-4 3,-2 6,-6 8,-10 2,-4 4,-8 5,-13 0,-5 1,-9 1,-13 0,-6 -1,-11 -2,-17 -1,-5 -3,-10 -5,-14 -2,-4 -5,-7 -9,-10 -4,-2 -8,-3 -13,-3 -9,0 -16,4 -21,12 -5,9 -8,19 -8,32 0,5 1,10 2,15 1,4 2,8 4,12 2,4 5,7 9,9 3,3 8,4 13,4l2 0zm96 0c0,-27 -6,-49 -17,-64 -11,-15 -27,-25 -46,-31 5,3 8,7 11,12 3,4 5,9 7,14 2,5 3,9 4,14 0,5 1,9 1,14 0,9 -1,18 -3,25 -2,6 -4,12 -6,16l49 0zm-3642 427l-31 0 0 -208 31 0 0 208zm-38 50c0,-6 2,-12 6,-16 5,-5 10,-7 16,-7 7,0 12,2 17,7 4,4 6,10 6,16 0,7 -2,12 -6,16 -5,5 -10,7 -17,7 -6,0 -11,-2 -16,-7 -4,-4 -6,-9 -6,-16zm195 19c-9,0 -16,-2 -22,-6 -5,-4 -10,-8 -12,-14 0,19 -2,35 -4,47 -2,13 -6,24 -12,32 -7,7 -15,13 -26,17 -11,3 -25,5 -42,5l0 -32c12,0 22,-2 29,-4 7,-3 13,-8 16,-14 4,-6 6,-14 7,-23 0,-9 0,-21 0,-34l0 -104 32 0 0 55c0,13 2,23 7,31 5,8 14,12 27,12 10,0 15,5 15,15 0,6 -1,11 -4,13 -2,3 -6,4 -11,4zm-71 -215c0,-6 2,-10 6,-14 4,-4 9,-6 15,-6 5,0 10,2 14,6 4,4 6,8 6,14 0,6 -2,11 -6,15 -4,4 -9,6 -14,6 -6,0 -11,-2 -15,-6 -4,-4 -6,-9 -6,-15zm70 215c-10,0 -15,-5 -15,-16 0,-6 1,-11 4,-13 2,-2 6,-3 11,-3l26 0c7,0 12,-1 16,-1 5,-1 8,-2 11,-4 3,-2 6,-5 7,-8 1,-4 2,-9 2,-16l0 -89 32 0 0 75c0,6 0,12 1,17 1,6 3,10 6,14 2,3 6,6 10,8 4,2 10,4 17,4 10,0 15,5 15,15 0,6 -1,11 -3,13 -3,3 -7,4 -12,4 -10,0 -19,-3 -25,-7 -6,-5 -10,-11 -12,-19 -5,11 -12,18 -22,21 -10,3 -22,5 -37,5l-32 0zm31 58c0,-5 2,-10 6,-14 4,-4 9,-6 15,-6 5,0 10,2 14,6 4,4 6,9 6,14 0,6 -2,11 -6,15 -4,4 -9,6 -14,6 -6,0 -11,-2 -15,-6 -4,-4 -6,-9 -6,-15zm50 0c0,-5 2,-10 7,-14 4,-4 8,-6 14,-6 6,0 11,2 15,6 4,4 6,9 6,14 0,6 -2,11 -6,15 -4,4 -9,6 -15,6 -6,0 -10,-2 -14,-6 -5,-4 -7,-9 -7,-15zm47 -58c-11,0 -16,-5 -16,-16 0,-6 1,-11 4,-13 2,-2 6,-3 12,-3l86 0c15,0 25,-3 31,-7 6,-5 9,-11 9,-18 0,-7 -2,-15 -8,-24 -6,-9 -14,-17 -24,-26 -10,-9 -22,-18 -35,-27 -14,-8 -29,-16 -44,-23 0,-3 0,-6 1,-10 1,-3 2,-6 4,-9 1,-3 2,-5 3,-7 1,-2 3,-3 4,-4l145 -62 0 32 -114 50c27,14 49,29 65,45 16,16 27,31 32,47 4,9 7,17 9,22 3,5 6,10 10,13 3,3 6,5 10,6 4,1 8,2 13,2 10,0 15,5 15,15 0,6 -1,11 -3,13 -3,3 -7,4 -12,4 -6,0 -10,-1 -15,-1 -4,-1 -9,-2 -13,-4 -4,-2 -7,-5 -11,-9 -3,-4 -6,-10 -10,-17l-1 0c-5,13 -13,21 -25,25 -12,4 -26,6 -43,6l-79 0zm21 -204c0,-3 1,-7 2,-11 1,-4 3,-7 5,-10 2,-4 4,-7 6,-9 2,-2 4,-4 6,-5l132 -60 0 29 -151 66zm230 -11c0,-6 2,-10 6,-14 4,-4 9,-6 14,-6 6,0 11,2 15,6 4,4 6,8 6,14 0,6 -2,11 -6,15 -4,4 -9,6 -15,6 -5,0 -10,-2 -14,-6 -4,-4 -6,-9 -6,-15zm-54 215c-11,0 -16,-5 -16,-16 0,-6 1,-11 4,-13 2,-2 6,-3 12,-3l60 0 0 -118 32 0 0 150 -92 0zm177 -277l0 277 -32 0 0 -277 32 0zm390 277c-10,0 -18,-3 -24,-7 -6,-5 -11,-11 -13,-19 -2,6 -5,10 -9,13 -4,4 -9,6 -15,8 -5,2 -13,3 -21,4 -8,0 -18,1 -29,1l-158 0c-15,0 -27,-1 -37,-3 -10,-2 -18,-6 -24,-10 -6,-5 -11,-11 -13,-18 -3,-7 -4,-16 -4,-26l0 -60 32 0 0 48c0,8 1,15 3,20 2,4 5,8 10,11 4,2 10,4 18,4 9,1 19,2 31,2l142 0c8,0 16,-1 22,-1 5,-1 10,-2 14,-4 3,-2 6,-5 7,-8 2,-4 3,-9 3,-16l0 -89 31 0 0 75c0,6 1,12 2,17 1,6 2,10 5,14 3,3 6,6 10,8 5,3 10,4 17,4 10,0 16,5 16,15 0,6 -2,11 -4,13 -2,3 -6,4 -12,4zm-235 -192c0,-6 2,-11 6,-15 4,-4 9,-6 15,-6 5,0 10,2 14,6 4,4 6,9 6,15 0,5 -2,10 -6,14 -4,4 -9,6 -14,6 -6,0 -11,-2 -15,-6 -4,-4 -6,-9 -6,-14zm50 0c0,-6 2,-11 6,-15 5,-4 9,-6 15,-6 6,0 11,2 15,6 4,4 6,9 6,15 0,5 -2,10 -6,14 -4,4 -9,6 -15,6 -6,0 -10,-2 -15,-6 -4,-4 -6,-9 -6,-14zm185 192c-10,0 -16,-5 -16,-16 0,-6 2,-11 4,-13 3,-2 7,-3 12,-3l44 0c-3,-6 -5,-12 -7,-18 -2,-7 -3,-15 -3,-23 0,-10 1,-20 5,-30 3,-10 8,-19 14,-26 7,-8 15,-14 24,-19 10,-5 21,-7 33,-7 14,0 26,3 35,8 9,5 16,12 22,20 5,8 9,16 11,26 2,10 3,19 3,29l0 40 29 0c11,0 16,5 16,15 0,6 -2,11 -4,13 -2,3 -6,4 -12,4l-210 0zm64 -78c0,15 5,27 14,34 9,8 21,12 34,12l37 0 0 -39c0,-6 0,-13 -2,-19 -1,-6 -3,-12 -6,-17 -3,-5 -7,-9 -13,-13 -5,-3 -12,-4 -20,-4 -7,0 -13,1 -19,3 -5,3 -10,6 -14,10 -3,4 -6,9 -8,15 -2,6 -3,11 -3,18zm25 -137c0,-6 2,-10 6,-14 4,-4 9,-6 15,-6 5,0 10,2 14,6 4,4 6,8 6,14 0,6 -2,11 -6,15 -4,4 -9,6 -14,6 -6,0 -11,-2 -15,-6 -4,-4 -6,-9 -6,-15zm121 215c-10,0 -15,-5 -15,-16 0,-6 1,-11 3,-13 3,-2 7,-3 12,-3l87 0c14,0 25,-3 31,-7 6,-5 9,-11 9,-18 0,-7 -3,-15 -8,-24 -6,-9 -14,-17 -24,-26 -10,-9 -22,-18 -36,-27 -13,-8 -28,-16 -44,-23 1,-3 1,-6 2,-10 1,-3 2,-6 3,-9 1,-3 3,-5 4,-7 1,-2 2,-3 3,-4l145 -62 0 32 -114 50c28,14 50,29 66,45 16,16 27,31 32,47 3,9 6,17 9,22 3,5 6,10 9,13 3,3 7,5 11,6 3,1 8,2 13,2 10,0 15,5 15,15 0,6 -1,11 -4,13 -2,3 -6,4 -11,4 -6,0 -11,-1 -15,-1 -5,-1 -9,-2 -13,-4 -4,-2 -8,-5 -11,-9 -3,-4 -7,-10 -10,-17l-1 0c-5,13 -14,21 -25,25 -12,4 -26,6 -43,6l-80 0zm22 -204c0,-3 0,-7 2,-11 1,-4 3,-7 5,-10 2,-4 4,-7 6,-9 2,-2 4,-4 6,-5l131 -60 0 29 -150 66zm189 172c9,0 16,-1 22,-1 6,-1 11,-2 14,-4 4,-2 6,-5 8,-8 1,-4 2,-9 2,-16l0 -70 32 0 0 56c0,6 0,12 1,17 1,6 3,10 5,14 3,3 7,6 12,8 6,3 13,4 22,4 5,0 10,-1 15,-1 4,-1 7,-2 10,-4 3,-2 5,-5 7,-8 1,-4 2,-9 2,-16l0 -69 32 0 0 55c0,6 0,12 1,17 1,6 3,10 5,14 3,3 6,6 10,8 5,3 10,4 17,4l33 0 0 -118 31 0 0 150 -64 0c-10,0 -18,-3 -24,-7 -6,-5 -10,-11 -12,-19 -5,11 -12,18 -22,21 -10,3 -22,5 -36,5 -9,0 -16,-1 -22,-2 -6,-2 -11,-4 -15,-6 -4,-3 -7,-5 -9,-9 -2,-3 -4,-6 -5,-9 -3,6 -6,10 -9,13 -4,3 -8,6 -14,8 -5,2 -12,3 -20,4 -8,0 -18,1 -30,1l-12 0c-11,0 -16,-5 -16,-16 0,-6 1,-11 4,-13 2,-2 6,-3 12,-3l13 0zm119 -183c0,-6 2,-10 6,-14 4,-4 9,-6 15,-6 6,0 10,2 14,6 4,4 6,8 6,14 0,6 -2,11 -6,15 -4,4 -8,6 -14,6 -6,0 -11,-2 -15,-6 -4,-4 -6,-9 -6,-15zm51 0c0,-6 2,-10 6,-14 4,-4 9,-6 14,-6 6,0 11,2 15,6 4,4 6,8 6,14 0,6 -2,11 -6,15 -4,4 -9,6 -15,6 -5,0 -10,-2 -14,-6 -4,-4 -6,-9 -6,-15zm-25 -46c0,-6 2,-11 6,-15 4,-4 9,-6 15,-6 6,0 10,2 14,6 4,4 6,9 6,15 0,5 -2,10 -6,14 -4,4 -8,6 -14,6 -6,0 -11,-2 -15,-6 -4,-4 -6,-9 -6,-14zm287 250c0,10 1,20 5,28 3,8 8,16 16,22 8,6 18,10 30,14 13,3 28,5 47,5 13,0 26,-1 38,-3 13,-2 24,-5 33,-8 10,-4 17,-8 23,-14 5,-5 8,-11 8,-18 0,-6 -2,-11 -6,-15 -4,-4 -11,-9 -22,-14 -8,-4 -15,-8 -21,-12 -7,-4 -13,-9 -18,-14 -4,-5 -8,-10 -11,-17 -3,-6 -4,-14 -4,-22 0,-10 1,-20 5,-30 3,-10 9,-19 16,-27 7,-8 16,-15 26,-20 11,-5 24,-8 38,-8 9,0 16,1 23,3 6,2 10,4 11,4l0 33c-5,-2 -11,-3 -17,-4 -6,-1 -12,-2 -18,-2 -8,0 -16,1 -22,4 -7,3 -12,6 -17,11 -4,4 -7,9 -9,15 -3,5 -4,11 -4,16 0,5 1,10 3,13 2,4 5,7 8,11 3,3 7,6 12,8 4,3 9,5 14,8 9,5 16,10 22,14 6,4 11,8 14,12 4,4 6,8 8,12 2,4 2,8 2,13 0,11 -2,21 -7,31 -5,10 -13,19 -24,27 -11,8 -25,14 -42,19 -17,4 -38,7 -62,7 -24,0 -45,-3 -61,-7 -17,-5 -30,-12 -40,-20 -10,-9 -18,-19 -22,-30 -4,-12 -7,-24 -7,-38l0 -58 32 0 0 51zm362 -6c0,6 -2,11 -4,13 -3,3 -6,4 -12,4l-10 0c-8,0 -16,-1 -23,-3 -7,-2 -12,-4 -17,-9 -5,-4 -9,-9 -11,-16 -3,-7 -4,-16 -4,-26l0 -223 31 0 0 215c0,10 2,18 5,23 4,4 11,7 23,7l6 0c10,0 16,5 16,15zm-16 17c-10,0 -15,-5 -15,-16 0,-6 1,-11 3,-13 3,-2 7,-3 12,-3l62 0c-3,-4 -5,-9 -8,-16 -2,-7 -3,-15 -3,-25 0,-13 3,-26 9,-38 6,-11 16,-20 29,-24 -5,0 -10,0 -16,0 -5,0 -10,0 -16,0l0 -29c29,-1 54,0 76,4 23,4 42,12 57,23 15,10 27,25 35,43 8,18 12,40 12,65l0 29 -237 0zm109 -32c5,0 10,-2 14,-5 3,-2 6,-6 8,-10 2,-4 4,-8 5,-13 0,-5 1,-9 1,-13 0,-6 -1,-11 -2,-17 -1,-5 -3,-10 -5,-14 -2,-4 -5,-7 -9,-10 -4,-2 -8,-3 -13,-3 -9,0 -16,4 -21,12 -5,9 -8,19 -8,33 0,4 1,9 2,14 0,4 2,8 4,12 2,4 5,7 9,9 3,3 8,4 13,5l2 0zm96 0c0,-28 -6,-50 -17,-65 -11,-15 -27,-25 -46,-31 5,3 8,7 11,12 3,4 5,9 7,14 2,5 3,9 4,14 0,5 1,9 1,14 0,10 -1,18 -3,25 -2,6 -4,12 -6,17l49 0zm206 -11c0,12 -4,23 -13,31 -8,8 -21,12 -37,12l-93 0 0 -32 90 0c9,0 15,-2 17,-5 2,-2 4,-5 4,-9 0,-2 -1,-5 -2,-8 -1,-3 -3,-7 -8,-14 -4,-6 -9,-15 -17,-26 -8,-11 -18,-27 -31,-46l30 -19c10,18 19,33 27,45 7,13 13,23 18,31 5,9 9,16 11,22 3,7 4,12 4,18zm74 -87l32 0 0 108c0,19 -1,35 -4,48 -2,13 -6,24 -12,32 -6,8 -15,14 -26,17 -11,4 -25,6 -43,6l0 -32c13,0 23,-2 30,-4 7,-3 13,-8 16,-14 4,-6 6,-14 6,-23 1,-9 1,-21 1,-34l0 -104zm145 130c-10,0 -20,-1 -28,-4 -9,-2 -16,-6 -23,-11 -6,-6 -11,-13 -15,-21 -4,-9 -5,-20 -5,-33 0,-10 1,-20 5,-30 3,-10 8,-19 14,-27 7,-8 15,-14 24,-19 10,-4 21,-7 33,-7 14,0 26,3 35,8 9,5 17,12 23,21 5,9 9,19 12,32 2,12 4,26 4,40l0 37c0,19 -3,35 -8,47 -5,12 -13,22 -22,29 -10,7 -22,12 -36,15 -13,2 -29,4 -46,4l-17 0 0 -32 12 0c13,0 24,-1 34,-2 10,-1 19,-3 27,-7 7,-4 13,-9 17,-16 4,-7 6,-16 6,-28l0 -7c-5,2 -11,5 -18,7 -8,3 -17,4 -28,4zm-40 -72c0,14 4,25 11,31 8,7 19,10 32,10 10,0 18,-2 26,-4 8,-3 13,-6 17,-9l0 -14c0,-9 -1,-17 -2,-25 -2,-8 -4,-14 -7,-20 -4,-6 -8,-10 -13,-13 -6,-3 -12,-5 -20,-5 -8,0 -15,2 -21,5 -5,3 -10,7 -13,11 -4,5 -6,10 -8,16 -2,6 -2,11 -2,17zm250 55c0,6 -1,11 -4,13 -2,3 -6,4 -12,4l-10 0c-8,0 -15,-1 -22,-3 -7,-2 -13,-4 -18,-9 -5,-4 -8,-9 -11,-16 -3,-7 -4,-16 -4,-26l0 -223 32 0 0 215c0,10 1,18 5,23 3,4 11,7 22,7l6 0c11,0 16,5 16,15zm-16 17c-10,0 -15,-5 -15,-16 0,-6 1,-11 4,-13 2,-2 6,-3 11,-3l26 0c7,0 12,-1 16,-1 5,-1 8,-2 11,-4 3,-2 6,-5 7,-8 2,-4 2,-9 2,-16l0 -89 32 0 0 75c0,6 1,12 1,17 1,6 3,10 6,14 2,3 6,6 10,8 4,2 10,4 17,4 10,0 15,5 15,15 0,6 -1,11 -3,13 -3,3 -7,4 -12,4 -10,0 -18,-3 -25,-7 -6,-5 -10,-11 -12,-19 -5,11 -12,18 -22,21 -10,3 -22,5 -37,5l-32 0zm31 -215c0,-6 2,-10 6,-14 4,-4 9,-6 15,-6 5,0 10,2 14,6 4,4 6,8 6,14 0,6 -2,11 -6,15 -4,4 -9,6 -14,6 -6,0 -11,-2 -15,-6 -4,-4 -6,-9 -6,-15zm51 0c0,-6 2,-10 6,-14 4,-4 9,-6 14,-6 6,0 11,2 15,6 4,4 6,8 6,14 0,6 -2,11 -6,15 -4,4 -9,6 -15,6 -5,0 -10,-2 -14,-6 -4,-4 -6,-9 -6,-15zm59 183c9,0 16,-1 22,-1 6,-1 11,-2 14,-4 4,-2 6,-5 8,-8 1,-4 2,-9 2,-16l0 -70 32 0 0 56c0,6 0,12 1,17 1,6 3,10 5,14 3,3 7,6 12,8 6,2 13,4 22,4 5,0 10,-1 15,-1 4,-1 7,-2 10,-4 3,-2 5,-5 7,-8 1,-4 2,-9 2,-16l0 -69 32 0 0 55c0,6 0,12 1,17 1,6 3,10 5,14 3,3 6,6 10,8 5,2 10,4 17,4l33 0 0 -118 31 0 0 150 -64 0c-10,0 -18,-3 -24,-7 -6,-5 -10,-11 -12,-19 -5,11 -12,18 -22,21 -10,3 -22,5 -36,5 -9,0 -16,-1 -22,-2 -6,-2 -11,-4 -15,-6 -4,-3 -7,-5 -9,-9 -2,-3 -4,-6 -5,-9 -3,6 -6,10 -9,13 -4,3 -8,6 -14,8 -5,2 -12,3 -20,4 -8,0 -18,1 -30,1l-12 0c-11,0 -16,-5 -16,-16 0,-6 1,-11 4,-13 2,-2 6,-3 12,-3l13 0zm463 -11c0,12 -4,23 -13,31 -8,8 -21,12 -37,12l-93 0 0 -32 90 0c9,0 15,-2 17,-5 2,-2 3,-5 3,-9 0,-2 0,-5 -1,-8 -1,-3 -4,-7 -8,-14 -4,-6 -10,-15 -17,-26 -8,-11 -18,-27 -32,-46l30 -19c11,18 20,33 27,45 8,13 14,23 19,31 5,9 9,16 11,22 3,7 4,12 4,18z"/>
   <circle class="fil1" cx="748" cy="748" r="748"/>
   <rect class="fil2" x="4827" y="717" width="5.28819" height="1381.59"/>
   <path class="fil3" d="M889 960l0 141 -564 0 0 -141 564 0zm-564 -424l0 -141c282,0 564,0 847,0l-142 141c-235,0 -470,0 -705,0zm847 142c0,141 0,282 0,423l-142 0 0 -282 0 0 -705 0 0 -141c282,0 564,0 847,0z"/>
  </g>
 </g>
</svg>
