<?xml version="1.0" encoding="UTF-8"?>
<!DOCTYPE svg PUBLIC "-//W3C//DTD SVG 1.1//EN" "http://www.w3.org/Graphics/SVG/1.1/DTD/svg11.dtd">
<!-- Creator: CorelDRAW X7 -->
<svg xmlns="http://www.w3.org/2000/svg" xml:space="preserve" width="100%" height="100%" version="1.1" style="shape-rendering:geometricPrecision; text-rendering:geometricPrecision; image-rendering:optimizeQuality; fill-rule:evenodd; clip-rule:evenodd"
viewBox="0 0 6721 1524"
 xmlns:xlink="http://www.w3.org/1999/xlink">
 <defs>
  <style type="text/css">
   <![CDATA[
    .fil1 {fill:#E3C582}
    .fil17 {fill:#86AFDD}
    .fil0 {fill:#FCE9CA}
    .fil13 {fill:white}
    .fil11 {fill:#E4F4F9;fill-rule:nonzero}
    .fil12 {fill:#B5E4FA;fill-rule:nonzero}
    .fil10 {fill:#A4DBDD;fill-rule:nonzero}
    .fil4 {fill:#92BBD0;fill-rule:nonzero}
    .fil14 {fill:#86CDF1;fill-rule:nonzero}
    .fil16 {fill:#79A9DA;fill-rule:nonzero}
    .fil2 {fill:#8480BC;fill-rule:nonzero}
    .fil8 {fill:#2195CA;fill-rule:nonzero}
    .fil3 {fill:#5C56A2;fill-rule:nonzero}
    .fil6 {fill:#4A458F;fill-rule:nonzero}
    .fil5 {fill:#D2AE6D;fill-rule:nonzero}
    .fil7 {fill:#DFB990;fill-rule:nonzero}
    .fil9 {fill:#F0F0F1;fill-rule:nonzero}
    .fil15 {fill:white;fill-rule:nonzero}
   ]]>
  </style>
 </defs>
 <g id="Layer_x0020_1">
  <metadata id="CorelCorpID_0Corel-Layer"/>
  <g id="_2425875874064">
   <rect class="fil0" x="4809" width="1912" height="1247"/>
   <rect class="fil1" x="4891" y="750" width="226" height="421"/>
   <path class="fil2" d="M6067 408c-73,193 -175,357 -301,489 -102,106 -220,190 -351,251 -214,100 -391,103 -413,103 -1,0 -1,0 -2,0l1 -68 1 -68c1,0 165,0 362,-93 262,-124 456,-347 576,-662l64 24 63 24z"/>
   <path class="fil3" d="M6004 384c-309,808 -1003,799 -1003,799l1 -68c1,0 165,0 362,-93 262,-124 456,-347 576,-662l64 24z"/>
   <polygon class="fil2" points="6044,264 5906,374 6083,436 "/>
   <polygon class="fil3" points="5906,374 6007,369 6044,264 "/>
   <path class="fil4" d="M5471 1129c4,-3 37,16 40,16 3,0 6,-44 6,-44 0,0 -6,-2 -4,-6 3,-3 24,-13 24,-13 0,0 -5,14 -16,20 0,0 9,45 1,54 -8,8 -79,-9 -51,-27z"/>
   <path class="fil5" d="M5490 1121c-4,5 -14,6 -14,6l2 16c0,0 9,-7 21,-6l-9 -16z"/>
   <path class="fil6" d="M5408 1178c0,0 81,-12 85,-6 4,7 -21,69 -21,69l17 6 -28 0 8 -51c0,0 -53,24 -66,6 -12,-19 5,-24 5,-24z"/>
   <path class="fil4" d="M5418 1192l0 0c2,3 39,45 36,53 -4,8 -90,-6 -90,-6l9 8c-34,0 -22,-21 -22,-21l59 2c0,0 -14,-9 -29,-22 0,0 -16,-17 1,-36 5,-6 13,-12 26,-18 53,-25 66,-33 74,-23 8,10 -22,55 -64,63z"/>
   <path class="fil7" d="M5499 1104c9,-4 20,-2 23,6 5,11 -5,16 -2,19 1,1 4,4 4,4l-5 1 -2 4c0,0 -8,-5 -10,0 -1,6 7,4 7,4 0,0 0,8 -4,8 -4,-1 -37,-32 -11,-46z"/>
   <path class="fil8" d="M5504 1124l2 -1c0,0 1,-3 4,-4 3,-2 5,-5 4,-9l10 3c0,0 4,0 5,-4 0,0 -6,0 -7,-4 -2,-4 -17,-11 -25,-1 0,0 -11,1 -8,17l5 4 2 0c0,0 -2,-4 3,-6 4,-2 5,5 5,5z"/>
   <path class="fil9" d="M5474 1125l7 -4c0,0 5,10 5,19l-9 8c0,0 0,-15 -3,-23z"/>
   <path class="fil5" d="M5477 1115l6 -3c0,0 12,-11 14,-11l2 1c0,0 1,-3 4,-2l-14 19 -9 2c0,0 -10,-1 -3,-6z"/>
   <path class="fil10" d="M5489 1119c0,0 -9,69 -19,68 -26,-1 -17,-61 -4,-60 14,1 -1,36 -1,36l16 -42 8 -2z"/>
   <path class="fil10" d="M5465 1163c0,0 -5,6 -4,13 0,0 -6,-25 10,-28 0,0 -4,13 -6,15z"/>
   <path class="fil3" d="M5454 1245c-4,8 -90,-6 -90,-6l9 8c-34,0 -22,-21 -22,-21l59 2c0,0 -14,-9 -29,-22 0,0 -16,-17 1,-36 0,0 11,18 36,22l0 0c2,3 39,45 36,53z"/>
   <path class="fil5" d="M5706 992c0,0 -12,7 -11,19l-16 0c0,0 5,-10 4,-16 0,0 20,-4 23,-3z"/>
   <path class="fil10" d="M5659 1015c0,0 -23,43 -26,41 -2,-2 2,-34 2,-34l-9 6c0,0 -14,44 4,48 18,4 24,-19 34,-28l-5 -33z"/>
   <path class="fil4" d="M5659 1015c11,-9 48,-15 56,-9 5,4 -23,93 -23,93 0,0 -41,13 -43,1 -3,-11 2,-78 10,-85z"/>
   <path class="fil6" d="M5692 1099c0,0 36,72 39,83 2,11 -20,61 -20,61l11 4 -27 0c0,0 17,-49 13,-61 -5,-13 -30,-53 -38,-52 -9,1 -16,0 -20,5 -4,6 -35,48 -35,53 0,5 7,55 7,55l-26 0 14 -7c0,0 -11,-44 -11,-58 -1,-13 50,-82 50,-82l43 -1z"/>
   <path class="fil10" d="M5673 1009l4 3 7 -7 5 7 12 -8c0,0 -13,-7 -28,5z"/>
   <path class="fil5" d="M5626 1028c0,0 -7,0 -5,-5 2,-4 9,-6 9,-6 0,0 10,-9 12,-8 3,1 1,2 -1,4 -1,2 -4,5 -6,9 -2,3 -9,6 -9,6z"/>
   <path class="fil7" d="M5710 970c12,9 2,25 -16,29 -19,4 -16,-11 -14,-16 2,-4 13,-26 30,-13z"/>
   <path class="fil5" d="M5709 989c0,0 5,1 5,3 -1,2 -11,6 -12,3 -1,-3 7,-6 7,-6z"/>
   <path class="fil8" d="M5705 978c0,0 -2,5 1,8 0,0 -2,6 -4,6l0 2c0,0 7,-5 9,-4 0,0 5,-4 6,-10l0 4c0,0 2,-3 -1,-6 0,0 3,-8 -1,-11l0 3c0,0 -10,-10 -18,-9 -8,2 -14,16 -14,16l5 -6c0,0 10,5 15,3 0,0 -2,1 -4,1 0,0 3,2 5,0 0,0 -1,3 -1,5l2 -2z"/>
   <path class="fil10" d="M5711 1005c0,0 30,-20 30,-30 0,-9 -15,-31 -15,-31l5 -5c0,0 19,21 21,38 1,18 -41,57 -41,57 0,0 -2,-20 0,-29z"/>
   <path class="fil5" d="M5727 945c0,0 -8,1 -6,-3 1,-5 7,-8 7,-8 0,0 9,-10 11,-10 3,1 1,2 0,4 -1,3 -3,6 -5,10 -1,4 -7,7 -7,7z"/>
   <path class="fil4" d="M5833 964c0,0 -33,-21 -37,-32 -4,-10 -20,-35 -20,-35 0,0 7,-12 5,-16 0,0 -17,14 -16,17 2,3 5,3 5,3 0,0 10,31 18,41 8,10 40,43 40,43l5 -21z"/>
   <path class="fil5" d="M5839 954c-3,6 1,15 1,15l-15 5c0,0 2,-11 -4,-21l18 1z"/>
   <path class="fil7" d="M5849 939c1,-10 -7,-19 -15,-18 -11,1 -12,11 -16,10 0,0 -5,-1 -5,-1l1 4 -2 4c0,0 7,5 4,8l-4 -6c0,0 -6,6 -4,10 2,3 41,18 41,-11z"/>
   <path class="fil8" d="M5830 943l0 -2c0,0 2,-2 2,-6 0,-3 2,-6 5,-7l-7 -7c0,0 4,-2 8,-2 8,1 18,11 17,20 0,7 -1,11 -16,16l-5 -3 -1 -2c0,0 3,0 4,-4 0,-5 -7,-3 -7,-3z"/>
   <path class="fil6" d="M5863 1247c0,0 -19,4 -31,2 0,0 14,-8 15,-9 -3,1 -27,-64 -28,-73 -4,-16 -4,-32 -3,-48 0,-13 1,-26 1,-40l0 0 0 0c12,-1 23,-5 29,-10 1,7 1,14 1,20 0,29 -9,72 -9,72 0,0 6,50 25,86z"/>
   <path class="fil4" d="M5847 1045c-1,3 -1,6 -1,9 0,1 0,1 0,2 0,4 2,8 2,11 -6,6 -19,11 -31,12 -1,0 -3,-1 -2,-3 0,-4 2,-8 2,-12 0,-5 -1,-10 -1,-15 -1,-7 -2,-14 -2,-20 0,-13 2,-25 4,-37 6,-28 23,-27 23,-27 11,13 14,25 6,80z"/>
   <path class="fil10" d="M5842 965l-2 -5 -16 7 1 16c0,0 5,-16 17,-18z"/>
   <path class="fil5" d="M5758 912c0,0 -7,2 -6,-2 1,-5 6,-9 6,-9 0,0 8,-11 10,-11 3,0 1,2 0,4 0,3 -2,6 -3,10 -1,4 -7,8 -7,8z"/>
   <path class="fil10" d="M5764 906l34 39c0,0 52,23 45,35 -10,16 -55,-24 -55,-24 -16,-18 -31,-42 -31,-42l7 -8z"/>
   <path class="fil4" d="M5948 988c0,0 -23,44 -14,51 8,7 46,-30 46,-30 0,0 -11,-26 -32,-21z"/>
   <path class="fil6" d="M5943 815c0,0 -22,92 -22,102 1,10 38,77 38,77l-13 12 31 -8c0,0 -32,-83 -31,-91 1,-8 26,-80 26,-80l-32 -13 3 1z"/>
   <path class="fil5" d="M5966 976c3,6 12,11 12,11l-8 14c0,0 -6,-10 -17,-13l13 -12z"/>
   <path class="fil4" d="M5982 1155c1,9 23,82 23,82l-23 12 36 0 -13 -89c0,0 13,-27 24,-46 0,0 14,-14 15,-32 0,-5 -4,-9 -8,-15 -2,-4 -5,-8 -8,-12 -9,-19 -27,-76 -57,-69 -12,4 11,59 37,98 1,1 1,1 2,2l0 0c-3,2 -29,61 -28,69z"/>
   <path class="fil5" d="M5951 957c-9,-1 -19,5 -20,13 0,12 10,14 9,18 0,0 -2,5 -2,5l4 -1 4 3c0,0 6,-8 9,-3 3,5 -5,6 -5,6 0,0 3,8 6,6 4,-2 25,-42 -5,-47z"/>
   <path class="fil8" d="M5954 977l-3 0c0,0 -1,-2 -5,-3 -4,0 -7,-2 -7,-6l-8 6c0,0 -4,1 -6,-2 0,0 5,-2 6,-6 0,-5 11,-16 22,-10 0,0 11,-2 14,14l-4 5 -2 1c0,0 1,-4 -4,-5 -5,0 -3,6 -3,6z"/>
   <path class="fil9" d="M5980 985l-5 -6c0,0 -8,8 -11,17l5 10c0,0 6,-14 11,-21z"/>
   <path class="fil6" d="M6005 1237l-23 12 36 0 -13 -89c0,0 13,-27 24,-46 0,0 14,-14 15,-32 0,-5 -4,-9 -8,-15 -7,5 -17,13 -28,17 1,1 1,1 2,2l0 0c-3,2 -29,61 -28,69 1,9 23,82 23,82z"/>
   <path class="fil10" d="M5961 1001c0,0 -13,46 -3,49 24,7 38,-52 25,-55 -14,-4 -12,34 -12,34l0 -25 -10 -3z"/>
   <path class="fil10" d="M5971 1029c0,0 3,6 -1,13 0,0 15,-22 1,-30 0,0 -1,14 0,17z"/>
   <path class="fil3" d="M5974 797c0,0 9,16 9,41 -1,24 -12,68 -12,68l15 82 -21 13 6 -18c0,0 -25,-77 -23,-93 10,-57 -5,-73 -5,-73l31 -20z"/>
   <path class="fil5" d="M5959 693c0,0 -9,10 -4,21l-15 6c0,0 1,-11 -1,-17 0,0 17,-10 20,-10z"/>
   <path class="fil10" d="M5922 730c0,0 -17,50 -19,50 -10,-2 -31,-4 -31,-4l-7 7c0,0 15,8 33,10 19,2 22,-22 31,-31l-7 -32z"/>
   <path class="fil4" d="M5922 730c8,-13 41,-30 51,-26 6,2 7,95 7,95 0,0 -34,25 -40,15 -7,-10 -23,-76 -18,-84z"/>
   <path class="fil10" d="M5934 720l4 2 5 -10 7 6 8 -12c0,0 -14,-2 -24,14z"/>
   <path class="fil5" d="M5873 781c0,0 1,-7 -3,-6 -5,1 -8,7 -8,7 0,0 -10,9 -10,12 0,2 2,0 4,-1 2,-1 6,-3 10,-4 3,-2 7,-8 7,-8z"/>
   <path class="fil7" d="M5956 671c15,4 10,23 -6,33 -16,9 -19,-6 -18,-11 0,-5 4,-29 24,-22z"/>
   <path class="fil5" d="M5961 689c0,0 5,0 6,2 0,1 -8,8 -10,6 -2,-2 4,-8 4,-8z"/>
   <path class="fil10" d="M5969 703c0,0 21,-28 18,-37 -2,-9 -24,-25 -24,-25l3 -7c0,0 25,14 32,31 7,16 -20,67 -20,67 0,0 -9,-19 -9,-29z"/>
   <path class="fil5" d="M5964 642c0,0 -6,3 -7,-1 0,-5 5,-10 5,-10 0,0 5,-12 7,-13 3,0 1,1 1,4 0,3 -1,7 -1,11 0,3 -5,9 -5,9z"/>
   <path class="fil8" d="M5946 674c2,0 0,10 3,11 3,1 6,2 6,2l0 9c0,0 6,-7 10,-7 0,0 3,-12 -4,-16 0,0 1,-7 -6,-8 -7,-1 -23,3 -23,14l2 5c0,0 3,-9 6,-8 3,0 6,-2 6,-2z"/>
   <path class="fil7" d="M5961 1001c0,0 -1,-13 3,-15 3,-3 4,-4 7,-3 3,1 4,9 4,9l5 0c0,0 1,4 -3,4 -5,0 -8,8 -8,8 0,0 -3,2 -8,-3z"/>
   <polygon class="fil11" points="6721,1247 6721,1524 4809,1524 4809,1247 "/>
   <path class="fil12" d="M6076 1418c7,-4 12,-14 -9,-38 -33,-38 -204,-133 -204,-133l-31 0 139 97 18 27c-50,-24 -110,-47 -183,-67l-69 -33 -15 -24 -27 0 15 14 -58 0 -30 -14 -26 0 40 14 3 7c-55,-9 -115,-16 -180,-21l-459 0 -43 78c0,0 845,-36 996,199l242 0c0,0 -29,-49 -119,-106z"/>
   <polygon class="fil12" points="6306,1524 6018,1247 5988,1247 6134,1382 6234,1524 "/>
   <g>
    <circle class="fil1" transform="matrix(-7.69202E-015 -0.290434 -0.290435 7.69205E-015 5330.49 488.122)" r="443"/>
    <path class="fil13" d="M5270 488l0 73 24 0 0 -73 -24 0zm97 73l24 0c0,-49 0,-97 0,-146l-24 0c0,41 0,106 0,146zm-49 -121l0 0 0 0 0 10 0 111 25 0 0 -121 -25 0z"/>
   </g>
   <circle class="fil1" cx="5010" cy="265" r="198"/>
   <polygon class="fil14" points="5001,1247 2501,1247 1,1247 1,0 2501,0 5001,0 "/>
   <g>
    <path class="fil15" d="M4868 208c0,8 5,12 12,12 3,0 6,-1 8,-3l0 -11 -9 0 0 5 4 0 0 4c-1,0 -2,0 -3,0 -4,0 -7,-2 -7,-7 0,-5 3,-8 7,-8 2,0 3,1 4,2l3 -4c-1,-1 -4,-3 -7,-3 -7,0 -12,5 -12,13zm34 12c6,0 11,-5 11,-12 0,-8 -5,-13 -11,-13 -6,0 -11,5 -11,13 0,7 5,12 11,12zm0 -5c-3,0 -5,-3 -5,-7 0,-5 2,-8 5,-8 3,0 5,3 5,8 0,4 -2,7 -5,7zm20 -5l1 -2c0,-3 1,-6 1,-8l1 0c0,2 1,5 2,8l0 2 -5 0zm8 10l5 0 -7 -24 -7 0 -7 24 5 0 2 -6 7 0 2 6zm8 0l15 0 0 -5 -10 0 0 -19 -5 0 0 24z"/>
    <polygon class="fil15" points="5001,211 4964,211 4964,201 5001,201 "/>
    <polygon class="fil15" points="5001,251 4982,251 4982,241 5001,241 "/>
    <polygon class="fil15" points="5001,291 4964,291 4964,282 5001,282 "/>
    <polygon class="fil15" points="5001,331 4982,331 4982,322 5001,322 "/>
    <polygon class="fil15" points="5001,371 4964,371 4964,362 5001,362 "/>
    <polygon class="fil15" points="5001,411 4982,411 4982,402 5001,402 "/>
    <polygon class="fil15" points="5001,451 4964,451 4964,442 5001,442 "/>
    <polygon class="fil15" points="5001,491 4982,491 4982,482 5001,482 "/>
    <polygon class="fil15" points="5001,532 4964,532 4964,522 5001,522 "/>
    <polygon class="fil15" points="5001,572 4982,572 4982,562 5001,562 "/>
    <polygon class="fil15" points="5001,612 4964,612 4964,603 5001,603 "/>
    <polygon class="fil15" points="5001,652 4982,652 4982,643 5001,643 "/>
    <polygon class="fil15" points="5001,692 4964,692 4964,683 5001,683 "/>
    <polygon class="fil15" points="5001,732 4982,732 4982,723 5001,723 "/>
    <polygon class="fil15" points="5001,772 4964,772 4964,763 5001,763 "/>
    <polygon class="fil15" points="5001,812 4982,812 4982,803 5001,803 "/>
    <polygon class="fil15" points="5001,853 4964,853 4964,843 5001,843 "/>
    <polygon class="fil15" points="5001,893 4982,893 4982,884 5001,884 "/>
    <polygon class="fil15" points="5001,933 4964,933 4964,924 5001,924 "/>
    <polygon class="fil15" points="5001,973 4982,973 4982,964 5001,964 "/>
    <polygon class="fil15" points="5001,1013 4964,1013 4964,1004 5001,1004 "/>
    <polygon class="fil15" points="5001,1053 4982,1053 4982,1044 5001,1044 "/>
    <polygon class="fil15" points="5001,1093 4964,1093 4964,1084 5001,1084 "/>
    <polygon class="fil15" points="5001,1133 4982,1133 4982,1124 5001,1124 "/>
    <polygon class="fil15" points="5001,1174 4964,1174 4964,1164 5001,1164 "/>
    <polygon class="fil15" points="5001,1214 4982,1214 4982,1205 5001,1205 "/>
   </g>
   <path class="fil16" d="M4552 1017c-26,0 -47,-10 -63,-31 -14,-19 -21,-42 -21,-69 0,-20 5,-39 15,-56 11,-18 25,-31 44,-40l19 38c-24,12 -35,32 -35,59 0,15 3,28 10,39 7,12 18,18 31,18l97 0c13,0 24,-6 31,-18 7,-11 10,-24 11,-39 0,-28 -12,-47 -36,-59l18 -38c19,9 34,22 45,41 10,17 15,36 15,56 0,27 -7,49 -21,68 -15,21 -36,31 -63,31l-97 0zm178 -476l0 52 -100 78 0 31 100 0 0 43 -259 0 0 -101c0,-27 6,-48 18,-64 14,-17 35,-26 62,-27 45,0 71,23 77,69l102 -81zm-137 103c0,-32 -14,-48 -42,-48 -26,0 -39,16 -38,48l0 58 80 0 0 -58zm137 -217l0 42 -259 0 0 -48 168 -71 -168 -73 0 -47 259 0 0 42 -119 0 -70 -8 0 4 61 22 92 43 0 33 -92 43 -62 21 0 4 71 -7 119 0z"/>
   <path class="fil17" d="M3701 196c237,0 428,191 428,427 0,237 -191,428 -428,428 -236,0 -427,-191 -427,-428 0,-236 191,-427 427,-427zm81 549l0 80 -323 0 0 -80 323 0zm-323 -243l0 -80c162,0 323,0 485,0l-81 80c-135,0 -269,0 -404,0zm485 81c0,81 0,162 0,242l-81 0 0 -161 0 0 -404 0 0 -81c162,0 323,0 485,0z"/>
   <path class="fil12" d="M4848 1524l152 -277c-918,0 -4081,0 -4999,0l-1 277c867,0 3980,0 4848,0z"/>
   <path class="fil16" d="M1125 551l-92 0 0 48 85 0 0 30 -85 0 0 48 92 0 0 30 -122 0 0 -186 122 0 0 30zm168 1l-92 0 0 52 81 0 0 30 -81 0 0 73 -30 0 0 -186 122 0 0 31zm162 0l-92 0 0 52 81 0 0 30 -81 0 0 73 -30 0 0 -186 122 0 0 31zm39 -31l30 0 0 186 -30 0 0 -186zm80 58c0,-19 8,-33 22,-45 14,-10 31,-15 50,-15 14,0 27,4 40,11 13,8 22,18 29,32l-27 13c-9,-17 -24,-25 -43,-25 -11,0 -20,2 -28,7 -8,6 -13,13 -13,22l0 70c0,9 5,17 13,22 8,5 17,7 28,7 20,0 34,-8 43,-25l27 13c-7,14 -17,24 -30,32 -12,7 -25,11 -40,11 -19,0 -35,-5 -49,-15 -14,-11 -22,-26 -22,-45l0 -70zm177 -58l31 0 0 186 -31 0 0 -186zm211 30l-93 0 0 48 85 0 0 30 -85 0 0 48 93 0 0 30 -123 0 0 -186 123 0 0 30zm76 52l0 104 -31 0 0 -186 32 0 65 110 19 37 2 -1 -5 -40 0 -106 31 0 0 186 -36 0 -63 -108 -17 -35 -2 0 5 39zm160 -24c0,-19 7,-33 22,-45 14,-10 30,-15 50,-15 14,0 27,4 39,11 13,8 23,18 30,32l-28 13c-9,-17 -23,-25 -42,-25 -11,0 -20,2 -28,7 -9,6 -13,13 -13,22l0 70c0,9 4,17 13,22 8,5 17,7 28,7 20,0 34,-8 42,-25l28 13c-7,14 -17,24 -30,32 -12,7 -25,11 -40,11 -19,0 -35,-5 -49,-15 -15,-11 -22,-26 -22,-45l0 -70zm253 56l0 72 -30 0 0 -72 -65 -114 35 0 45 85 45 -85 35 0 -65 114z"/>
   <path class="fil16" d="M1107 934l11 -19 26 13 -17 28 33 38 -38 0 -12 -13c-14,16 -31,24 -50,24 -16,0 -30,-5 -41,-15 -11,-10 -16,-23 -16,-39 0,-19 11,-36 33,-49 -11,-14 -16,-25 -16,-36 0,-14 5,-25 15,-33 9,-7 20,-11 33,-11 12,0 23,4 31,11 9,8 14,18 14,30 0,18 -11,33 -31,45l25 26zm-54 -13c-15,10 -23,20 -23,30 0,8 3,14 9,20 6,4 14,7 22,7 11,0 21,-6 31,-17l-39 -40zm15 -73c-6,0 -10,2 -13,5 -4,3 -6,7 -6,12 0,7 4,15 13,24 15,-8 22,-16 22,-25 0,-5 -1,-9 -5,-12 -3,-3 -7,-4 -11,-4zm229 156l-30 0 0 -186 72 0c20,0 36,6 49,19 10,11 16,25 16,42 0,16 -6,30 -16,42 -12,12 -28,18 -49,18l-42 0 0 65zm42 -93c11,0 19,-3 26,-10 6,-6 8,-13 8,-22 0,-8 -3,-15 -8,-21 -7,-7 -15,-10 -26,-10l-42 0 0 63 42 0zm253 93l-37 0 -56 -72 -22 0 0 72 -31 0 0 -186 72 0c20,0 35,4 46,13 12,10 19,25 19,44 0,33 -16,51 -49,56l58 73zm-74 -99c23,0 35,-10 35,-30 0,-18 -12,-27 -35,-27l-41 0 0 57 41 0zm105 -31c0,-19 8,-34 24,-46 14,-10 31,-15 51,-15 21,0 38,5 52,15 16,12 24,27 24,46l0 73c0,19 -8,34 -24,46 -14,10 -31,15 -52,15 -20,0 -37,-5 -51,-15 -16,-11 -24,-27 -24,-46l0 -73zm30 73c0,10 5,17 14,23 9,5 19,8 31,8 13,0 23,-3 31,-8 10,-6 14,-13 14,-23l0 -73c0,-10 -4,-18 -14,-23 -8,-5 -18,-8 -31,-8 -12,1 -22,3 -31,8 -9,5 -14,13 -14,23l0 73zm201 57l-30 0 0 -186 34 0 51 120 52 -120 34 0 0 186 -30 0 0 -86 6 -50 -3 0 -16 44 -30 66 -24 0 -31 -66 -15 -45 -3 0 5 51 0 86zm193 -130c0,-19 8,-34 23,-46 14,-10 31,-15 52,-15 20,0 38,5 52,15 15,12 23,27 23,46l0 73c0,19 -8,34 -23,46 -15,10 -32,15 -52,15 -21,0 -38,-5 -52,-15 -15,-11 -23,-27 -23,-46l0 -73zm30 73c0,10 5,17 14,23 8,5 19,8 31,8 12,0 22,-3 31,-8 9,-6 14,-13 14,-23l0 -73c0,-10 -5,-18 -14,-23 -8,-5 -19,-8 -31,-8 -12,1 -23,3 -31,8 -9,5 -14,13 -14,23l0 73zm297 -130l0 31 -57 0 0 156 -30 0 0 -156 -56 0 0 -31 143 0zm35 1l30 0 0 186 -30 0 0 -186zm83 56c0,-19 8,-34 24,-46 14,-10 31,-15 51,-15 21,0 38,5 52,15 16,12 24,27 24,46l0 73c0,19 -8,34 -24,46 -14,10 -31,15 -52,15 -20,0 -37,-5 -51,-15 -16,-11 -24,-27 -24,-46l0 -73zm30 73c0,10 5,17 14,23 9,5 19,8 31,8 13,0 23,-3 31,-8 10,-6 14,-13 14,-23l0 -73c0,-10 -4,-18 -14,-23 -8,-5 -18,-8 -31,-8 -12,1 -22,3 -31,8 -9,5 -14,13 -14,23l0 73zm202 -47l0 104 -31 0 0 -186 32 0 65 109 19 37 2 0 -5 -40 0 -106 31 0 0 186 -36 0 -63 -108 -17 -36 -2 1 5 39z"/>
   <path class="fil16" d="M1003 225l30 0 0 186 -30 0 0 -186zm118 82l0 104 -30 0 0 -186 32 0 64 109 20 37 1 0 -4 -40 0 -106 30 0 0 186 -35 0 -63 -108 -18 -36 -2 1 5 39zm294 -83l0 31 -56 0 0 156 -31 0 0 -156 -56 0 0 -31 143 0zm159 31l-92 0 0 47 84 0 0 31 -84 0 0 47 92 0 0 31 -123 0 0 -187 123 0 0 31zm39 26c0,-18 8,-33 23,-44 13,-10 29,-15 49,-15 32,0 54,13 67,40l-27 13c-8,-15 -21,-23 -41,-23 -11,0 -20,2 -28,7 -8,6 -13,13 -13,22l0 71c0,10 5,17 13,23 8,5 17,7 29,7 11,0 21,-2 28,-7 9,-6 13,-13 13,-23l0 -14 -52 0 0 -29 83 0 0 43c0,20 -8,35 -23,46 -13,10 -30,15 -49,15 -20,0 -36,-5 -49,-15 -15,-11 -23,-26 -23,-46l0 -71zm343 130l-37 0 -55 -72 -23 0 0 72 -30 0 0 -186 72 0c19,0 35,4 46,13 12,10 18,24 19,44 0,33 -16,51 -49,56l57 73zm-73 -99c23,0 35,-10 35,-30 0,-18 -12,-27 -35,-27l-42 0 0 57 42 0zm161 -87l32 0 67 186 -32 0 -18 -49 -67 0c-2,6 -5,14 -8,24l-9 25 -32 0 67 -186zm23 60l-6 -30 -3 0 -7 30 -15 47 46 0 -15 -47zm217 -61l0 31 -57 0 0 156 -30 0 0 -156 -56 0 0 -31 143 0zm35 1l30 0 0 186 -30 0 0 -186zm83 55c0,-18 8,-33 24,-45 14,-10 31,-15 51,-15 21,0 38,5 52,15 16,12 24,27 24,45l0 74c0,19 -8,34 -24,45 -14,11 -31,16 -52,16 -20,0 -37,-5 -51,-16 -16,-11 -24,-26 -24,-45l0 -74zm30 74c0,10 5,17 14,23 9,5 19,7 31,7 13,0 23,-2 31,-7 10,-6 14,-13 14,-23l0 -74c0,-10 -4,-17 -14,-23 -8,-4 -18,-7 -31,-7 -12,1 -22,3 -31,8 -9,5 -14,13 -14,22l0 74zm202 -47l0 104 -31 0 0 -186 32 0 65 109 19 37 2 0 -5 -40 0 -106 31 0 0 186 -36 0 -63 -108 -17 -36 -2 1 5 39zm192 -33c-1,12 12,21 39,26 21,4 36,9 46,17 15,10 22,25 20,44 0,17 -8,30 -22,40 -13,8 -29,12 -47,12 -15,0 -28,-3 -40,-11 -14,-8 -23,-19 -30,-34l28 -12c9,18 23,27 43,27 10,0 18,-2 25,-6 8,-4 12,-10 13,-18 0,-9 -4,-17 -12,-21 -6,-4 -17,-7 -30,-9 -42,-6 -63,-25 -63,-56 1,-16 8,-29 22,-38 12,-9 27,-14 44,-14 33,0 56,14 67,41l-27 12c-8,-16 -21,-24 -40,-24 -9,0 -17,2 -24,6 -8,4 -11,10 -12,18zm158 100l33 0 -23 69 -29 0 19 -69z"/>
  </g>
 </g>
</svg>
