<?xml version="1.0" encoding="UTF-8"?>
<!DOCTYPE svg PUBLIC "-//W3C//DTD SVG 1.1//EN" "http://www.w3.org/Graphics/SVG/1.1/DTD/svg11.dtd">
<!-- Creator: CorelDRAW X7 -->
<svg xmlns="http://www.w3.org/2000/svg" xml:space="preserve" width="100%" height="100%" version="1.1" style="shape-rendering:geometricPrecision; text-rendering:geometricPrecision; image-rendering:optimizeQuality; fill-rule:evenodd; clip-rule:evenodd"
viewBox="0 0 8559 1524"
 xmlns:xlink="http://www.w3.org/1999/xlink">
 <defs>
  <style type="text/css">
   <![CDATA[
    .fil1 {fill:#E3C582}
    .fil17 {fill:#86AFDD}
    .fil0 {fill:#FCE9CA}
    .fil13 {fill:white}
    .fil11 {fill:#E4F4F9;fill-rule:nonzero}
    .fil12 {fill:#B5E4FA;fill-rule:nonzero}
    .fil10 {fill:#A4DBDD;fill-rule:nonzero}
    .fil4 {fill:#92BBD0;fill-rule:nonzero}
    .fil14 {fill:#86CDF1;fill-rule:nonzero}
    .fil16 {fill:#79A9DA;fill-rule:nonzero}
    .fil2 {fill:#8480BC;fill-rule:nonzero}
    .fil8 {fill:#2195CA;fill-rule:nonzero}
    .fil3 {fill:#5C56A2;fill-rule:nonzero}
    .fil6 {fill:#4A458F;fill-rule:nonzero}
    .fil5 {fill:#D2AE6D;fill-rule:nonzero}
    .fil7 {fill:#DFB990;fill-rule:nonzero}
    .fil9 {fill:#F0F0F1;fill-rule:nonzero}
    .fil15 {fill:white;fill-rule:nonzero}
   ]]>
  </style>
 </defs>
 <g id="Layer_x0020_1">
  <metadata id="CorelCorpID_0Corel-Layer"/>
  <g id="_2425861787568">
   <rect class="fil0" x="6646" width="1912" height="1247"/>
   <rect class="fil1" x="6728" y="750" width="226" height="421"/>
   <path class="fil2" d="M7905 408c-74,193 -175,357 -301,489 -102,106 -220,190 -351,251 -214,100 -392,103 -413,103 -1,0 -2,0 -2,0l1 -68 0 -68c2,0 166,0 362,-93 262,-124 456,-347 577,-662l64 24 63 24z"/>
   <path class="fil3" d="M7842 384c-309,808 -1003,799 -1003,799l0 -68c2,0 166,0 362,-93 262,-124 456,-347 577,-662l64 24z"/>
   <polygon class="fil2" points="7881,264 7744,374 7921,436 "/>
   <polygon class="fil3" points="7744,374 7845,369 7881,264 "/>
   <path class="fil4" d="M7309 1129c4,-3 37,16 40,16 2,0 6,-44 6,-44 0,0 -6,-2 -4,-6 2,-3 24,-13 24,-13 0,0 -6,14 -16,20 0,0 8,45 0,54 -8,8 -78,-9 -50,-27z"/>
   <path class="fil5" d="M7328 1121c-5,5 -15,6 -15,6l3 16c0,0 9,-7 20,-6l-8 -16z"/>
   <path class="fil6" d="M7246 1178c0,0 81,-12 85,-6 4,7 -21,69 -21,69l16 6 -28 0 8 -51c0,0 -52,24 -65,6 -13,-19 5,-24 5,-24z"/>
   <path class="fil4" d="M7255 1192l0 0c3,3 40,45 36,53 -3,8 -89,-6 -89,-6l8 8c-34,0 -21,-21 -21,-21l58 2c0,0 -14,-9 -28,-22 0,0 -16,-17 1,-36 5,-6 13,-12 25,-18 54,-25 66,-33 75,-23 8,10 -22,55 -65,63z"/>
   <path class="fil7" d="M7337 1104c8,-4 20,-2 23,6 5,11 -5,16 -2,19 0,1 3,4 3,4l-4 1 -2 4c0,0 -8,-5 -10,0 -1,6 7,4 7,4 0,0 0,8 -4,8 -4,-1 -38,-32 -11,-46z"/>
   <path class="fil8" d="M7341 1124l3 -1c0,0 0,-3 4,-4 3,-2 5,-5 4,-9l9 3c0,0 4,0 6,-4 0,0 -6,0 -8,-4 -1,-4 -16,-11 -24,-1 0,0 -11,1 -8,17l4 4 3 0c0,0 -2,-4 2,-6 5,-2 5,5 5,5z"/>
   <path class="fil9" d="M7312 1125l7 -4c0,0 4,10 4,19l-8 8c0,0 -1,-15 -3,-23z"/>
   <path class="fil5" d="M7315 1115l6 -3c0,0 12,-11 14,-11l2 1c0,0 1,-3 3,-2l-13 19 -10 2c0,0 -9,-1 -2,-6z"/>
   <path class="fil10" d="M7327 1119c0,0 -9,69 -19,68 -26,-1 -18,-61 -5,-60 14,1 0,36 0,36l15 -42 9 -2z"/>
   <path class="fil10" d="M7303 1163c0,0 -5,6 -4,13 0,0 -6,-25 9,-28 0,0 -4,13 -5,15z"/>
   <path class="fil3" d="M7291 1245c-3,8 -89,-6 -89,-6l8 8c-34,0 -21,-21 -21,-21l58 2c0,0 -14,-9 -28,-22 0,0 -16,-17 1,-36 0,0 11,18 35,22l0 0c3,3 40,45 36,53z"/>
   <path class="fil5" d="M7543 992c0,0 -11,7 -10,19l-17 0c0,0 5,-10 5,-16 0,0 19,-4 22,-3z"/>
   <path class="fil10" d="M7497 1015c0,0 -24,43 -26,41 -2,-2 2,-34 2,-34l-9 6c0,0 -14,44 4,48 18,4 23,-19 33,-28l-4 -33z"/>
   <path class="fil4" d="M7497 1015c11,-9 48,-15 56,-9 5,4 -24,93 -24,93 0,0 -40,13 -43,1 -2,-11 3,-78 11,-85z"/>
   <path class="fil6" d="M7529 1099c0,0 37,72 39,83 2,11 -19,61 -19,61l11 4 -28 0c0,0 18,-49 13,-61 -5,-13 -30,-53 -38,-52 -8,1 -15,0 -19,5 -4,6 -35,48 -35,53 0,5 6,55 6,55l-25 0 14 -7c0,0 -11,-44 -12,-58 0,-13 50,-82 50,-82l43 -1z"/>
   <path class="fil10" d="M7511 1009l4 3 7 -7 5 7 11 -8c0,0 -12,-7 -27,5z"/>
   <path class="fil5" d="M7464 1028c0,0 -7,0 -5,-5 2,-4 8,-6 8,-6 0,0 11,-9 13,-8 2,1 0,2 -1,4 -1,2 -4,5 -6,9 -2,3 -9,6 -9,6z"/>
   <path class="fil7" d="M7548 970c12,9 1,25 -17,29 -18,4 -16,-11 -14,-16 2,-4 13,-26 31,-13z"/>
   <path class="fil5" d="M7547 989c0,0 5,1 4,3 0,2 -10,6 -11,3 -1,-3 7,-6 7,-6z"/>
   <path class="fil8" d="M7542 978c0,0 -1,5 2,8 0,0 -3,6 -4,6l0 2c0,0 7,-5 9,-4 0,0 5,-4 5,-10l1 4c0,0 1,-3 -1,-6 0,0 3,-8 -1,-11l0 3c0,0 -10,-10 -19,-9 -8,2 -13,16 -13,16l5 -6c0,0 10,5 15,3 0,0 -2,1 -5,1 0,0 3,2 6,0 0,0 -1,3 -1,5l1 -2z"/>
   <path class="fil10" d="M7549 1005c0,0 29,-20 30,-30 0,-9 -15,-31 -15,-31l5 -5c0,0 19,21 20,38 1,18 -41,57 -41,57 0,0 -2,-20 1,-29z"/>
   <path class="fil5" d="M7564 945c0,0 -7,1 -6,-3 2,-5 8,-8 8,-8 0,0 8,-10 11,-10 3,1 0,2 0,4 -1,3 -4,6 -5,10 -2,4 -8,7 -8,7z"/>
   <path class="fil4" d="M7671 964c0,0 -33,-21 -37,-32 -5,-10 -21,-35 -21,-35 0,0 8,-12 6,-16 0,0 -17,14 -16,17 1,3 5,3 5,3 0,0 10,31 17,41 8,10 40,43 40,43l6 -21z"/>
   <path class="fil5" d="M7676 954c-2,6 1,15 1,15l-14 5c0,0 2,-11 -4,-21l17 1z"/>
   <path class="fil7" d="M7687 939c0,-10 -7,-19 -15,-18 -12,1 -12,11 -16,10 -1,0 -5,-1 -5,-1l1 4 -2 4c0,0 6,5 4,8l-5 -6c0,0 -6,6 -3,10 2,3 40,18 41,-11z"/>
   <path class="fil8" d="M7668 943l0 -2c0,0 2,-2 2,-6 0,-3 1,-6 5,-7l-7 -7c0,0 4,-2 8,-2 8,1 17,11 17,20 -1,7 -1,11 -16,16l-5 -3 -2 -2c0,0 4,0 4,-4 0,-5 -6,-3 -6,-3z"/>
   <path class="fil6" d="M7700 1247c0,0 -18,4 -30,2 0,0 14,-8 15,-9 -4,1 -27,-64 -29,-73 -3,-16 -3,-32 -3,-48 1,-13 1,-26 2,-40l0 0 0 0c11,-1 23,-5 29,-10 0,7 1,14 1,20 0,29 -9,72 -9,72 0,0 6,50 24,86z"/>
   <path class="fil4" d="M7684 1045c0,3 -1,6 -1,9 0,1 0,1 0,2 0,4 2,8 2,11 -6,6 -18,11 -30,12 -2,0 -3,-1 -3,-3 1,-4 3,-8 2,-12 0,-5 0,-10 -1,-15 -1,-7 -1,-14 -1,-20 0,-13 2,-25 4,-37 5,-28 22,-27 22,-27 12,13 15,25 6,80z"/>
   <path class="fil10" d="M7680 965l-2 -5 -17 7 1 16c0,0 6,-16 18,-18z"/>
   <path class="fil5" d="M7595 912c0,0 -7,2 -6,-2 1,-5 7,-9 7,-9 0,0 7,-11 10,-11 3,0 1,2 0,4 -1,3 -3,6 -4,10 -1,4 -7,8 -7,8z"/>
   <path class="fil10" d="M7601 906l35 39c0,0 52,23 44,35 -9,16 -54,-24 -54,-24 -16,-18 -32,-42 -32,-42l7 -8z"/>
   <path class="fil4" d="M7786 988c0,0 -23,44 -15,51 9,7 46,-30 46,-30 0,0 -11,-26 -31,-21z"/>
   <path class="fil6" d="M7780 815c0,0 -22,92 -21,102 0,10 38,77 38,77l-14 12 32 -8c0,0 -33,-83 -32,-91 1,-8 26,-80 26,-80l-32 -13 3 1z"/>
   <path class="fil5" d="M7804 976c2,6 11,11 11,11l-7 14c0,0 -7,-10 -17,-13l13 -12z"/>
   <path class="fil4" d="M7820 1155c0,9 23,82 23,82l-23 12 36 0 -13 -89c0,0 13,-27 24,-46 0,0 14,-14 14,-32 0,-5 -3,-9 -7,-15 -3,-4 -6,-8 -8,-12 -10,-19 -27,-76 -57,-69 -13,4 10,59 37,98 0,1 1,1 1,2l0 0c-3,2 -28,61 -27,69z"/>
   <path class="fil5" d="M7789 957c-10,-1 -20,5 -20,13 -1,12 10,14 9,18 -1,0 -2,5 -2,5l4 -1 3 3c0,0 6,-8 10,-3 3,5 -6,6 -6,6 0,0 3,8 7,6 4,-2 25,-42 -5,-47z"/>
   <path class="fil8" d="M7791 977l-2 0c0,0 -2,-2 -5,-3 -4,0 -7,-2 -7,-6l-8 6c0,0 -4,1 -7,-2 0,0 6,-2 6,-6 0,-5 12,-16 23,-10 0,0 10,-2 13,14l-3 5 -2 1c0,0 1,-4 -4,-5 -5,0 -4,6 -4,6z"/>
   <path class="fil9" d="M7818 985l-6 -6c0,0 -8,8 -11,17l6 10c0,0 5,-14 11,-21z"/>
   <path class="fil6" d="M7843 1237l-23 12 36 0 -13 -89c0,0 13,-27 24,-46 0,0 14,-14 14,-32 0,-5 -3,-9 -7,-15 -7,5 -18,13 -28,17 0,1 1,1 1,2l0 0c-3,2 -28,61 -27,69 0,9 23,82 23,82z"/>
   <path class="fil10" d="M7799 1001c0,0 -13,46 -4,49 25,7 38,-52 26,-55 -14,-4 -12,34 -12,34l0 -25 -10 -3z"/>
   <path class="fil10" d="M7809 1029c0,0 2,6 -1,13 0,0 14,-22 1,-30 0,0 -1,14 0,17z"/>
   <path class="fil3" d="M7812 797c0,0 9,16 8,41 0,24 -12,68 -12,68l15 82 -20 13 6 -18c0,0 -26,-77 -23,-93 10,-57 -6,-73 -6,-73l32 -20z"/>
   <path class="fil5" d="M7797 693c0,0 -9,10 -4,21l-16 6c0,0 2,-11 -1,-17 0,0 17,-10 21,-10z"/>
   <path class="fil10" d="M7760 730c0,0 -17,50 -20,50 -9,-2 -30,-4 -30,-4l-7 7c0,0 15,8 33,10 18,2 22,-22 30,-31l-6 -32z"/>
   <path class="fil4" d="M7760 730c7,-13 41,-30 50,-26 7,2 7,95 7,95 0,0 -34,25 -40,15 -6,-10 -22,-76 -17,-84z"/>
   <path class="fil10" d="M7771 720l5 2 5 -10 7 6 8 -12c0,0 -14,-2 -25,14z"/>
   <path class="fil5" d="M7711 781c0,0 1,-7 -4,-6 -4,1 -8,7 -8,7 0,0 -10,9 -9,12 0,2 1,0 4,-1 2,-1 6,-3 9,-4 4,-2 8,-8 8,-8z"/>
   <path class="fil7" d="M7794 671c14,4 9,23 -6,33 -16,9 -19,-6 -19,-11 1,-5 4,-29 25,-22z"/>
   <path class="fil5" d="M7799 689c0,0 5,0 5,2 0,1 -7,8 -10,6 -2,-2 5,-8 5,-8z"/>
   <path class="fil10" d="M7806 703c0,0 22,-28 19,-37 -3,-9 -24,-25 -24,-25l3 -7c0,0 25,14 32,31 6,16 -21,67 -21,67 0,0 -8,-19 -9,-29z"/>
   <path class="fil5" d="M7802 642c0,0 -7,3 -7,-1 0,-5 4,-10 4,-10 0,0 6,-12 8,-13 3,0 1,1 1,4 0,3 -1,7 -1,11 -1,3 -5,9 -5,9z"/>
   <path class="fil8" d="M7784 674c1,0 0,10 3,11 2,1 5,2 5,2l0 9c0,0 6,-7 10,-7 0,0 4,-12 -3,-16 0,0 1,-7 -6,-8 -8,-1 -24,3 -24,14l2 5c0,0 4,-9 7,-8 3,0 6,-2 6,-2z"/>
   <path class="fil7" d="M7799 1001c0,0 -1,-13 2,-15 4,-3 5,-4 8,-3 2,1 4,9 4,9l5 0c0,0 1,4 -3,4 -5,0 -8,8 -8,8 0,0 -4,2 -8,-3z"/>
   <polygon class="fil11" points="8559,1247 8559,1524 6646,1524 6646,1247 "/>
   <path class="fil12" d="M7914 1418c7,-4 12,-14 -9,-38 -33,-38 -205,-133 -205,-133l-30 0 139 97 18 27c-50,-24 -110,-47 -184,-67l-69 -33 -14 -24 -28 0 16 14 -58 0 -31 -14 -25 0 40 14 3 7c-55,-9 -115,-16 -180,-21l-459 0 -43 78c0,0 845,-36 996,199l242 0c0,0 -30,-49 -119,-106z"/>
   <polygon class="fil12" points="8144,1524 7856,1247 7826,1247 7971,1382 8071,1524 "/>
   <g>
    <circle class="fil1" transform="matrix(-7.69202E-015 -0.290434 -0.290435 7.69205E-015 7168.12 488.122)" r="443"/>
    <path class="fil13" d="M7107 488l0 73 25 0 0 -73 -25 0zm98 73l24 0c0,-49 0,-97 0,-146l-24 0c0,41 0,106 0,146zm-49 -121l0 0 0 0 0 10 0 111 24 0 0 -121 -24 0z"/>
   </g>
   <circle class="fil1" cx="6848" cy="265" r="198"/>
   <polygon class="fil14" points="6839,1247 3420,1247 1,1247 1,0 3420,0 6839,0 "/>
   <g>
    <path class="fil15" d="M6706 208c0,8 5,12 11,12 3,0 6,-1 8,-3l0 -11 -9 0 0 5 4 0 0 4c0,0 -1,0 -2,0 -5,0 -7,-2 -7,-7 0,-5 3,-8 6,-8 2,0 4,1 5,2l3 -4c-2,-1 -4,-3 -8,-3 -6,0 -11,5 -11,13zm34 12c6,0 11,-5 11,-12 0,-8 -5,-13 -11,-13 -7,0 -11,5 -11,13 0,7 4,12 11,12zm0 -5c-4,0 -6,-3 -6,-7 0,-5 2,-8 6,-8 3,0 5,3 5,8 0,4 -2,7 -5,7zm20 -5l0 -2c1,-3 2,-6 2,-8l0 0c1,2 1,5 2,8l1 2 -5 0zm7 10l6 0 -8 -24 -6 0 -7 24 5 0 2 -6 7 0 1 6zm8 0l15 0 0 -5 -9 0 0 -19 -6 0 0 24z"/>
    <polygon class="fil15" points="6839,211 6801,211 6801,201 6839,201 "/>
    <polygon class="fil15" points="6839,251 6820,251 6820,241 6839,241 "/>
    <polygon class="fil15" points="6839,291 6801,291 6801,282 6839,282 "/>
    <polygon class="fil15" points="6839,331 6820,331 6820,322 6839,322 "/>
    <polygon class="fil15" points="6839,371 6801,371 6801,362 6839,362 "/>
    <polygon class="fil15" points="6839,411 6820,411 6820,402 6839,402 "/>
    <polygon class="fil15" points="6839,451 6801,451 6801,442 6839,442 "/>
    <polygon class="fil15" points="6839,491 6820,491 6820,482 6839,482 "/>
    <polygon class="fil15" points="6839,532 6801,532 6801,522 6839,522 "/>
    <polygon class="fil15" points="6839,572 6820,572 6820,562 6839,562 "/>
    <polygon class="fil15" points="6839,612 6801,612 6801,603 6839,603 "/>
    <polygon class="fil15" points="6839,652 6820,652 6820,643 6839,643 "/>
    <polygon class="fil15" points="6839,692 6801,692 6801,683 6839,683 "/>
    <polygon class="fil15" points="6839,732 6820,732 6820,723 6839,723 "/>
    <polygon class="fil15" points="6839,772 6801,772 6801,763 6839,763 "/>
    <polygon class="fil15" points="6839,812 6820,812 6820,803 6839,803 "/>
    <polygon class="fil15" points="6839,853 6801,853 6801,843 6839,843 "/>
    <polygon class="fil15" points="6839,893 6820,893 6820,884 6839,884 "/>
    <polygon class="fil15" points="6839,933 6801,933 6801,924 6839,924 "/>
    <polygon class="fil15" points="6839,973 6820,973 6820,964 6839,964 "/>
    <polygon class="fil15" points="6839,1013 6801,1013 6801,1004 6839,1004 "/>
    <polygon class="fil15" points="6839,1053 6820,1053 6820,1044 6839,1044 "/>
    <polygon class="fil15" points="6839,1093 6801,1093 6801,1084 6839,1084 "/>
    <polygon class="fil15" points="6839,1133 6820,1133 6820,1124 6839,1124 "/>
    <polygon class="fil15" points="6839,1174 6801,1174 6801,1164 6839,1164 "/>
    <polygon class="fil15" points="6839,1214 6820,1214 6820,1205 6839,1205 "/>
   </g>
   <path class="fil16" d="M6389 1017c-26,0 -47,-10 -63,-31 -14,-19 -20,-42 -20,-69 0,-20 5,-39 14,-56 11,-18 26,-31 45,-40l19 38c-24,12 -36,32 -36,59 0,15 4,28 11,39 7,12 17,18 30,18l98 0c13,0 23,-6 31,-18 7,-11 10,-24 10,-39 0,-28 -12,-47 -35,-59l17 -38c20,9 35,22 46,41 10,17 15,36 15,56 0,27 -7,49 -21,68 -16,21 -37,31 -63,31l-98 0zm179 -476l0 52 -100 78 0 31 100 0 0 43 -260 0 0 -101c0,-27 6,-48 19,-64 14,-17 34,-26 62,-27 45,0 71,23 77,69l102 -81zm-138 103c0,-32 -13,-48 -41,-48 -26,0 -39,16 -38,48l0 58 79 0 0 -58zm138 -217l0 42 -260 0 0 -48 169 -71 -169 -73 0 -47 260 0 0 42 -119 0 -71 -8 0 4 62 22 92 43 0 33 -92 43 -63 21 0 4 72 -7 119 0z"/>
   <path class="fil17" d="M5539 196c236,0 428,191 428,427 0,237 -192,428 -428,428 -236,0 -428,-191 -428,-428 0,-236 192,-427 428,-427zm81 549l0 80 -323 0 0 -80 323 0zm-323 -243l0 -80c161,0 323,0 484,0l-81 80c-134,0 -269,0 -403,0zm484 81c0,81 0,162 0,242l-81 0 0 -161 0 0 -403 0 0 -81c161,0 323,0 484,0z"/>
   <path class="fil12" d="M6685 1524l153 -277c-918,0 -5919,0 -6837,0l-1 277c867,0 5818,0 6685,0z"/>
   <path class="fil16" d="M979 552l20 0 0 125 -20 0 0 -125zm80 55l0 70 -21 0 0 -125 22 0 43 73 13 25 1 0 -3 -27 0 -71 21 0 0 125 -24 0 -43 -73 -11 -24 -1 1 3 26zm198 -56l0 21 -38 0 0 105 -21 0 0 -105 -38 0 0 -21 97 0zm106 21l-62 0 0 32 57 0 0 20 -57 0 0 32 62 0 0 21 -82 0 0 -126 82 0 0 21zm27 18c0,-13 5,-23 15,-30 9,-7 20,-10 33,-10 21,0 36,9 45,27l-18 9c-5,-11 -15,-16 -28,-16 -7,0 -13,2 -19,5 -5,3 -8,8 -8,15l0 48c0,6 3,11 8,15 6,3 12,5 20,5 7,0 14,-2 19,-5 6,-4 9,-9 9,-15l0 -10 -35 0 0 -20 55 0 0 30c0,12 -5,23 -15,30 -9,7 -20,10 -33,10 -13,0 -24,-3 -33,-10 -10,-7 -15,-17 -15,-30l0 -48zm230 87l-25 0 -37 -49 -15 0 0 49 -20 0 0 -125 48 0c13,0 23,3 31,9 8,6 12,16 13,29 0,22 -11,34 -33,38l38 49zm-49 -67c15,0 23,-6 23,-20 0,-12 -8,-18 -23,-18l-28 0 0 38 28 0zm108 -58l21 0 46 125 -22 0 -12 -33 -45 0c-1,4 -3,10 -5,16l-6 17 -22 0 45 -125zm16 40l-4 -20 -3 0 -4 20 -10 32 31 0 -10 -32zm146 -41l0 21 -38 0 0 105 -21 0 0 -105 -38 0 0 -21 97 0zm23 1l20 0 0 125 -20 0 0 -125zm56 37c0,-13 5,-23 16,-30 9,-7 21,-10 35,-10 13,0 25,3 34,10 11,7 16,17 16,30l0 50c0,13 -5,23 -16,30 -9,7 -21,10 -34,10 -14,0 -26,-3 -35,-10 -11,-7 -16,-17 -16,-30l0 -50zm20 50c0,6 3,11 10,15 5,3 12,5 21,5 8,0 15,-2 20,-5 7,-4 10,-9 10,-15l0 -50c0,-7 -3,-12 -10,-15 -5,-3 -12,-5 -20,-5 -9,0 -16,2 -21,5 -7,3 -10,9 -10,15l0 50zm136 -32l0 70 -21 0 0 -125 22 0 43 73 13 25 1 0 -3 -27 0 -71 21 0 0 125 -24 0 -43 -73 -11 -24 -1 1 3 26zm129 -22c-1,8 8,14 26,17 14,3 25,7 32,11 9,7 14,17 13,31 -1,11 -6,20 -15,26 -9,6 -19,9 -32,9 -10,0 -19,-3 -27,-8 -9,-5 -15,-13 -20,-23l19 -8c6,12 15,18 29,18 6,0 12,-1 17,-4 5,-3 8,-7 8,-12 1,-6 -2,-11 -8,-14 -4,-3 -11,-5 -20,-6 -28,-4 -42,-17 -42,-38 0,-11 5,-19 14,-26 9,-6 19,-9 30,-9 23,0 38,9 45,28l-18 8c-5,-11 -14,-16 -27,-16 -6,0 -11,1 -16,4 -5,3 -8,7 -8,12zm107 67l22 0 -16 46 -20 0 14 -46zm184 -80l-62 0 0 32 57 0 0 20 -57 0 0 32 62 0 0 21 -83 0 0 -126 83 0 0 21zm112 0l-61 0 0 35 54 0 0 21 -54 0 0 49 -21 0 0 -125 82 0 0 20zm109 0l-61 0 0 35 54 0 0 21 -54 0 0 49 -21 0 0 -125 82 0 0 20zm27 -20l20 0 0 125 -20 0 0 -125zm53 39c0,-13 5,-23 15,-31 10,-6 21,-10 34,-10 9,0 18,3 26,7 9,6 16,13 20,22l-18 9c-6,-11 -16,-17 -29,-17 -7,0 -13,1 -19,5 -5,3 -8,8 -8,15l0 47c0,6 3,11 8,14 6,4 12,5 19,5 13,0 23,-5 29,-17l18 9c-4,9 -11,16 -20,22 -8,4 -17,7 -27,7 -13,0 -24,-4 -33,-10 -10,-8 -15,-18 -15,-30l0 -47zm120 -39l20 0 0 125 -20 0 0 -125zm141 20l-62 0 0 32 57 0 0 20 -57 0 0 32 62 0 0 21 -82 0 0 -126 82 0 0 21zm51 35l0 70 -20 0 0 -125 21 0 44 73 13 25 1 0 -3 -27 0 -71 20 0 0 125 -24 0 -42 -73 -12 -24 -1 1 3 26zm108 -16c0,-13 5,-23 15,-31 9,-6 20,-10 33,-10 10,0 19,3 27,7 9,6 15,13 19,22l-18 9c-6,-11 -15,-17 -28,-17 -8,0 -14,1 -19,5 -6,3 -9,8 -9,15l0 47c0,6 3,11 9,14 5,4 11,5 19,5 13,0 22,-5 28,-17l18 9c-4,9 -11,16 -19,22 -9,4 -18,7 -27,7 -13,0 -24,-4 -33,-10 -10,-8 -15,-18 -15,-30l0 -47zm170 37l0 49 -20 0 0 -49 -44 -76 24 0 30 56 30 -56 24 0 -44 76zm178 2l8 -13 17 9 -11 18 22 26 -25 0 -8 -9c-10,11 -21,16 -34,16 -11,0 -20,-3 -27,-9 -8,-7 -12,-16 -12,-27 0,-13 8,-24 22,-33 -7,-9 -10,-17 -10,-24 0,-9 3,-16 10,-22 6,-5 14,-8 23,-8 8,0 14,3 20,8 6,5 9,12 9,20 0,12 -7,22 -20,30l16 18zm-35 -9c-11,7 -16,13 -16,20 0,5 2,10 6,13 4,4 9,5 15,5 7,0 14,-4 20,-11l-25 -27zm9 -49c-3,0 -6,1 -9,3 -2,2 -3,5 -3,9 0,4 2,9 8,16 10,-6 15,-11 15,-17 0,-4 -1,-6 -3,-8 -2,-2 -5,-3 -8,-3zm154 105l-20 0 0 -125 49 0c13,0 24,4 32,13 7,7 11,17 11,28 0,11 -4,20 -11,28 -8,8 -19,12 -32,12l-29 0 0 44zm29 -62c7,0 13,-3 17,-7 4,-4 6,-9 6,-15 0,-6 -2,-10 -6,-14 -4,-5 -10,-7 -17,-7l-29 0 0 43 29 0zm169 62l-24 0 -38 -49 -15 0 0 49 -20 0 0 -125 48 0c13,0 23,3 31,9 8,6 12,16 13,29 0,22 -11,34 -33,38l38 49zm-49 -67c16,0 23,-6 23,-20 0,-12 -7,-18 -23,-18l-28 0 0 38 28 0zm71 -21c0,-13 5,-23 15,-30 10,-7 21,-10 35,-10 14,0 25,3 35,10 10,7 16,17 16,30l0 50c0,13 -6,23 -16,30 -10,7 -21,10 -35,10 -14,0 -25,-3 -35,-10 -10,-7 -15,-17 -15,-30l0 -50zm20 50c0,6 3,11 9,15 6,3 13,5 21,5 8,0 15,-2 21,-5 6,-4 9,-9 9,-15l0 -50c0,-7 -3,-12 -9,-15 -6,-3 -13,-5 -21,-5 -8,0 -15,2 -21,5 -6,3 -9,9 -9,15l0 50zm135 38l-20 0 0 -125 23 0 34 81 35 -81 23 0 0 125 -21 0 0 -58 4 -34 -2 0 -10 30 -21 44 -16 0 -20 -44 -11 -30 -2 0 4 34 0 58zm129 -88c0,-13 6,-23 16,-30 10,-7 21,-10 35,-10 14,0 25,3 35,10 10,7 16,17 16,30l0 50c0,13 -6,23 -16,30 -10,7 -21,10 -35,10 -14,0 -25,-3 -35,-10 -10,-7 -16,-17 -16,-30l0 -50zm21 50c0,6 3,11 9,15 6,3 13,5 21,5 8,0 15,-2 21,-5 6,-4 9,-9 9,-15l0 -50c0,-7 -3,-12 -9,-15 -6,-3 -13,-5 -21,-5 -8,0 -15,2 -21,5 -6,3 -9,9 -9,15l0 50zm199 -88l0 21 -38 0 0 105 -20 0 0 -105 -38 0 0 -21 96 0zm24 1l20 0 0 125 -20 0 0 -125zm56 37c0,-13 5,-23 16,-30 9,-7 21,-10 34,-10 14,0 26,3 35,10 11,7 16,17 16,30l0 50c0,13 -5,23 -16,30 -9,7 -21,10 -35,10 -13,0 -25,-3 -34,-10 -11,-7 -16,-17 -16,-30l0 -50zm20 50c0,6 3,11 10,15 5,3 12,5 20,5 9,0 16,-2 21,-5 6,-4 10,-9 10,-15l0 -50c0,-7 -3,-12 -10,-15 -5,-3 -12,-5 -21,-5 -8,0 -15,2 -20,5 -7,3 -10,9 -10,15l0 50zm136 -32l0 70 -21 0 0 -125 22 0 43 73 13 25 1 0 -3 -27 0 -71 21 0 0 125 -24 0 -43 -73 -11 -24 -2 1 4 26z"/>
  </g>
 </g>
</svg>
