<?xml version="1.0" encoding="UTF-8"?>
<!DOCTYPE svg PUBLIC "-//W3C//DTD SVG 1.1//EN" "http://www.w3.org/Graphics/SVG/1.1/DTD/svg11.dtd">
<!-- Creator: CorelDRAW X7 -->
<svg xmlns="http://www.w3.org/2000/svg" xml:space="preserve" width="100%" height="100%" version="1.1" style="shape-rendering:geometricPrecision; text-rendering:geometricPrecision; image-rendering:optimizeQuality; fill-rule:evenodd; clip-rule:evenodd"
viewBox="0 0 2709 1524"
 xmlns:xlink="http://www.w3.org/1999/xlink">
 <defs>
  <style type="text/css">
   <![CDATA[
    .fil5 {fill:#A6B7DE}
    .fil0 {fill:#8EA0D1}
    .fil1 {fill:#FDDFD1;fill-rule:nonzero}
    .fil3 {fill:#F2D394;fill-rule:nonzero}
    .fil2 {fill:white;fill-rule:nonzero}
    .fil4 {fill:white;fill-rule:nonzero}
   ]]>
  </style>
 </defs>
 <g id="Layer_x0020_1">
  <metadata id="CorelCorpID_0Corel-Layer"/>
  <g id="_1697622723520">
   <polygon class="fil0" points="0,0 2709,0 2709,1524 0,1524 "/>
   <path class="fil1" d="M812 1074c2,-3 5,-4 8,-2 2,2 3,5 2,8 -2,2 -5,3 -8,1 -3,-1 -3,-5 -2,-7z"/>
   <path class="fil1" d="M1136 1063c2,-2 5,-3 8,-1 2,1 3,5 1,7 -1,3 -5,4 -7,2 -3,-2 -3,-5 -2,-8z"/>
   <path class="fil2" d="M1372 991c2,-3 5,-4 8,-2 2,1 3,5 1,7 -1,3 -5,4 -7,2 -3,-1 -4,-5 -2,-7z"/>
   <path class="fil1" d="M992 353c2,-3 5,-3 7,-2 3,2 4,5 2,8 -1,2 -5,3 -7,2 -3,-2 -4,-5 -2,-8z"/>
   <path class="fil1" d="M1108 296c1,-3 5,-4 7,-2 3,1 3,5 2,7 -2,3 -5,4 -8,2 -2,-1 -3,-5 -1,-7z"/>
   <path class="fil3" d="M1168 942c2,-2 5,-3 8,-2 2,2 3,5 1,8 -1,3 -5,3 -7,2 -3,-2 -3,-5 -2,-8z"/>
   <path class="fil4" d="M1001 153c1,-3 5,-4 7,-2 3,1 4,5 2,7 -2,3 -5,4 -8,2 -2,-1 -3,-5 -1,-7z"/>
   <path class="fil3" d="M1221 110c2,-3 5,-4 8,-2 2,1 3,5 1,7 -1,3 -5,4 -7,2 -3,-1 -3,-5 -2,-7z"/>
   <path class="fil4" d="M1153 147c-12,0 -22,-10 -22,-22l0 0c0,12 -10,22 -22,22 12,1 22,11 22,23l0 0c0,-12 10,-22 22,-23z"/>
   <path class="fil3" d="M199 415c-20,-1 -36,-17 -36,-37l-1 0c0,20 -15,36 -35,37 20,1 36,17 36,37l0 0c0,-20 16,-36 36,-37z"/>
   <polygon class="fil5" points="743,623 745,628 744,627 "/>
   <path class="fil4" d="M422 236c-2,3 -5,4 -8,2 -2,-2 -3,-5 -1,-8 1,-2 5,-3 7,-1 3,1 4,5 2,7z"/>
   <path class="fil4" d="M242 289c-2,3 -5,4 -8,2 -2,-1 -3,-5 -2,-7 2,-3 5,-4 8,-2 2,1 3,5 2,7z"/>
   <path class="fil3" d="M122 192c-1,3 -5,3 -7,2 -3,-2 -4,-5 -2,-8 1,-2 5,-3 7,-2 3,2 4,5 2,8z"/>
   <path class="fil3" d="M876 338c-2,3 -5,4 -8,2 -2,-2 -3,-5 -1,-7 1,-3 5,-4 7,-2 3,1 3,5 2,7z"/>
   <path class="fil1" d="M627 441c-2,3 -5,4 -8,2 -2,-1 -3,-5 -1,-7 1,-3 4,-4 7,-2 3,1 3,5 2,7z"/>
   <path class="fil4" d="M771 184c-2,3 -5,3 -8,2 -2,-2 -3,-5 -2,-8 2,-2 5,-3 8,-2 3,2 3,5 2,8z"/>
   <path class="fil4" d="M543 90c-2,2 -5,3 -8,2 -3,-2 -3,-5 -2,-8 2,-3 5,-3 8,-2 2,2 3,5 2,8z"/>
   <path class="fil3" d="M360 533c-1,3 -5,3 -7,2 -3,-2 -3,-5 -2,-8 2,-2 5,-3 8,-2 2,2 3,5 1,8z"/>
   <path class="fil4" d="M451 683c-1,3 -5,3 -7,2 -3,-2 -3,-5 -2,-8 2,-2 5,-3 8,-2 2,2 3,5 1,8z"/>
   <path class="fil4" d="M277 464c-2,3 -5,4 -8,2 -2,-2 -3,-5 -2,-8 2,-2 5,-3 8,-1 3,1 3,5 2,7z"/>
   <path class="fil4" d="M249 729c-1,3 -5,4 -7,2 -3,-2 -4,-5 -2,-8 2,-2 5,-3 8,-1 2,1 3,5 1,7z"/>
   <path class="fil3" d="M132 890c-1,3 -5,4 -7,2 -3,-2 -3,-5 -2,-8 2,-2 5,-3 8,-1 2,1 3,5 1,7z"/>
   <path class="fil2" d="M2372 108c2,2 5,3 8,2 2,-2 3,-5 1,-8 -1,-3 -5,-3 -7,-2 -3,2 -3,5 -2,8z"/>
   <path class="fil1" d="M2379 276c2,3 5,4 8,2 2,-2 3,-5 2,-8 -2,-2 -5,-3 -8,-1 -3,1 -3,5 -2,7z"/>
   <path class="fil1" d="M2107 56c2,3 5,4 8,2 2,-1 3,-5 1,-7 -1,-3 -5,-4 -7,-2 -3,1 -4,5 -2,7z"/>
   <path class="fil1" d="M1049 199c1,2 5,3 7,1 3,-1 4,-5 2,-7 -2,-3 -5,-4 -8,-2 -2,2 -3,5 -1,8z"/>
   <path class="fil2" d="M1353 195c1,3 5,4 7,2 3,-2 4,-5 2,-8 -1,-2 -5,-3 -7,-1 -3,1 -4,5 -2,7z"/>
   <path class="fil3" d="M1616 209c1,3 5,4 7,2 3,-2 4,-5 2,-8 -2,-2 -5,-3 -8,-1 -2,1 -3,5 -1,7z"/>
   <path class="fil1" d="M1730 109c2,3 5,4 8,2 3,-2 3,-5 2,-8 -2,-2 -5,-3 -8,-1 -2,1 -3,5 -2,7z"/>
   <path class="fil3" d="M1120 482c2,3 5,3 8,2 3,-2 3,-5 2,-8 -2,-2 -5,-3 -8,-2 -2,2 -3,5 -2,8z"/>
   <path class="fil2" d="M1171 474c2,3 5,3 7,2 3,-2 4,-5 2,-8 -1,-2 -5,-3 -7,-2 -3,2 -4,5 -2,8z"/>
   <path class="fil1" d="M1425 415c2,2 5,3 8,2 2,-2 3,-5 1,-8 -1,-3 -5,-3 -7,-2 -3,2 -3,5 -2,8z"/>
   <path class="fil1" d="M1586 532c2,2 5,3 8,1 2,-1 3,-5 2,-7 -2,-3 -5,-4 -8,-2 -2,2 -3,5 -2,8z"/>
   <path class="fil1" d="M1455 87c1,2 5,3 7,2 3,-2 3,-5 2,-8 -2,-3 -5,-3 -8,-2 -2,2 -3,5 -1,8z"/>
   <path class="fil1" d="M1257 71c1,2 5,3 7,1 3,-1 4,-5 2,-7 -1,-3 -5,-4 -7,-2 -3,2 -4,5 -2,8z"/>
   <path class="fil2" d="M2088 283c1,3 5,4 7,2 3,-2 4,-5 2,-8 -2,-2 -5,-3 -8,-1 -2,1 -3,5 -1,7z"/>
   <path class="fil1" d="M1819 254c2,3 5,3 8,2 2,-2 3,-5 1,-8 -1,-2 -5,-3 -7,-2 -3,2 -4,5 -2,8z"/>
   <path class="fil2" d="M1552 259c1,2 5,3 7,2 3,-2 4,-5 2,-8 -2,-3 -5,-3 -7,-2 -3,2 -4,5 -2,8z"/>
   <path class="fil3" d="M1234 364c2,2 5,3 8,2 3,-2 3,-5 2,-8 -2,-3 -5,-3 -8,-2 -2,2 -3,5 -2,8z"/>
   <path class="fil1" d="M1078 573c1,3 5,3 7,2 3,-2 4,-5 2,-8 -2,-2 -5,-3 -8,-2 -2,2 -3,5 -1,8z"/>
   <path class="fil2" d="M1754 663c1,3 5,4 7,2 3,-2 4,-5 2,-8 -2,-2 -5,-3 -8,-1 -2,1 -3,5 -1,7z"/>
   <path class="fil4" d="M1258 818c14,-1 26,-13 26,-27l0 0c0,14 12,26 27,27 -15,0 -27,12 -27,27l0 0c0,-15 -11,-27 -26,-27z"/>
   <path class="fil3" d="M2477 488c-25,1 -46,22 -46,47l0 0c0,-25 -21,-46 -46,-47 25,-1 46,-22 46,-48l0 0c0,26 21,47 46,48z"/>
   <path class="fil2" d="M2435 882c-1,2 -5,3 -7,1 -3,-1 -4,-5 -2,-7 2,-3 5,-4 8,-2 2,2 3,5 1,8z"/>
   <path class="fil1" d="M2432 734c-1,2 -4,3 -7,1 -3,-1 -3,-5 -2,-7 2,-3 5,-4 8,-2 2,2 3,5 1,8z"/>
   <path class="fil1" d="M2301 733c-2,2 -5,3 -8,2 -2,-2 -3,-5 -1,-8 1,-3 5,-3 7,-2 3,2 3,5 2,8z"/>
   <path class="fil1" d="M2566 371c-1,2 -5,3 -7,1 -3,-1 -4,-5 -2,-7 2,-3 5,-4 7,-2 3,2 4,5 2,8z"/>
   <path class="fil1" d="M1571 1014c-2,3 -5,4 -7,2 -3,-2 -4,-5 -2,-8 1,-2 5,-3 7,-1 3,1 4,5 2,7z"/>
   <path class="fil3" d="M2399 940c-2,3 -5,4 -8,2 -2,-2 -3,-5 -2,-8 2,-2 5,-3 8,-1 3,1 3,5 2,7z"/>
   <path class="fil3" d="M2502 791c-2,3 -5,3 -8,2 -2,-2 -3,-5 -2,-8 2,-2 5,-3 8,-2 2,2 3,5 2,8z"/>
   <path class="fil1" d="M2644 765c-2,3 -5,4 -8,2 -2,-1 -3,-5 -2,-7 2,-3 5,-4 8,-2 2,1 3,5 2,7z"/>
   <path class="fil2" d="M2166 1063c-1,2 -5,3 -7,1 -3,-1 -4,-5 -2,-7 2,-3 5,-4 8,-2 2,2 3,5 1,8z"/>
   <path class="fil3" d="M2282 1135c-1,3 -5,4 -7,2 -3,-2 -4,-5 -2,-7 1,-3 5,-4 7,-2 3,1 4,5 2,7z"/>
   <path class="fil1" d="M2130 1121c-2,3 -5,3 -8,2 -2,-2 -3,-5 -2,-8 2,-2 5,-3 8,-2 3,2 3,5 2,8z"/>
   <path class="fil1" d="M2546 1026c-1,2 -5,3 -7,1 -3,-1 -3,-5 -2,-7 2,-3 5,-4 8,-2 2,2 3,5 1,8z"/>
   <path class="fil1" d="M840 652c-2,2 -5,3 -7,2 -3,-2 -4,-5 -2,-8 1,-3 5,-3 7,-2 3,2 4,5 2,8z"/>
  </g>
 </g>
</svg>
