<?xml version="1.0" encoding="UTF-8"?>
<!DOCTYPE svg PUBLIC "-//W3C//DTD SVG 1.1//EN" "http://www.w3.org/Graphics/SVG/1.1/DTD/svg11.dtd">
<!-- Creator: CorelDRAW X7 -->
<svg xmlns="http://www.w3.org/2000/svg" xml:space="preserve" width="100%" height="100%" version="1.1" style="shape-rendering:geometricPrecision; text-rendering:geometricPrecision; image-rendering:optimizeQuality; fill-rule:evenodd; clip-rule:evenodd"
viewBox="0 0 1200 1200"
 xmlns:xlink="http://www.w3.org/1999/xlink">
 <defs>
  <style type="text/css">
   <![CDATA[
    .fil0 {fill:none}
    .fil1 {fill:#9999FF}
   ]]>
  </style>
 </defs>
 <g id="Layer_x0020_1">
  <metadata id="CorelCorpID_0Corel-Layer"/>
  <g id="_2098926517008">
   <rect class="fil0" width="1200" height="1200"/>
   <path class="fil1" d="M360 357l0 98 22 0 0 -122 -11 -11 -122 0 0 22 92 0c-1,1 -2,3 -3,5 -68,67 -105,156 -105,251 0,95 37,184 105,252 67,67 156,104 251,104 49,0 97,-10 140,-28l0 -25c-43,20 -91,31 -140,31 -89,0 -173,-35 -236,-98 -63,-63 -97,-147 -97,-236 0,-89 34,-173 97,-236 2,-2 5,-4 7,-7l0 0zm377 666l22 0 0 -13 -22 0 0 13zm36 0l46 0 0 -13 -46 0 0 13zm-36 -30l22 0 0 -14 -22 0 0 14zm36 0l28 0 0 -14 -28 0 0 14zm265 -308l72 0 0 -14 -72 0 0 14zm-46 0l30 0 0 -14 -30 0 0 14zm46 74l22 0 0 -13 -22 0 0 13zm-46 0l30 0 0 -13 -30 0 0 13zm46 -37l123 0 0 -13 -123 0 0 13zm-46 0l30 0 0 -13 -30 0 0 13zm-832 -290l-70 0 0 13 70 0 0 -13zm46 0l-28 0 0 13 28 0 0 -13zm-46 -75l-20 0 0 13 20 0 0 -13zm46 0l-28 0 0 13 28 0 0 -13zm-46 37l-121 0 0 14 121 0 0 -14zm46 0l-28 0 0 14 28 0 0 -14zm780 75l-22 0 0 13 22 0 0 -13zm51 0l-22 0 0 13 22 0 0 -13zm-42 13l0 25 13 0 0 -25 -13 0zm0 -37l0 20 13 0 0 -20 -13 0zm-609 517l0 20 13 0 0 -20 -13 0zm0 37l0 24 13 0 0 -24 -13 0zm41 -13l-22 0 0 13 22 0 0 -13zm-50 0l-20 0 0 13 20 0 0 -13zm-227 -361l-22 0 0 14 22 0 0 -14zm51 0l-22 0 0 14 22 0 0 -14zm-42 14l0 24 13 0 0 -24 -13 0zm0 -40l0 22 13 0 0 -22 -13 0zm606 -398l-22 0 0 13 22 0 0 -13zm50 0l-22 0 0 13 22 0 0 -13zm-41 13l0 24 13 0 0 -24 -13 0zm0 -37l0 19 13 0 0 -19 -13 0zm-133 279l16 5 40 -41 72 71 -41 41 5 16 59 0 0 104 -59 0 -5 16 41 40 -72 72 -40 -41 -16 5 0 59 -104 0 0 -59 -16 -5 -41 41 -71 -72 41 -40 -5 -16 -59 0 0 -104 59 0 5 -16 -41 -41 71 -71 41 41 16 -5 0 -59 104 0 0 59zm-22 -37l-60 0 0 53 -44 14 -35 -34 -39 39 34 35 -14 44 -53 0 0 60 53 0 14 44 -34 34 39 40 35 -34 44 14 0 53 60 0 0 -53 44 -14 34 34 40 -40 -34 -34 14 -44 53 0 0 -60 -53 0 -14 -44 34 -35 -40 -39 -34 34 -44 -14 0 -53zm-30 117c35,0 64,28 64,64 0,35 -29,64 -64,64 -36,0 -64,-29 -64,-64 0,-36 28,-64 64,-64zm0 22c-23,0 -42,19 -42,42 0,23 19,42 42,42 23,0 42,-19 42,-42 0,-23 -19,-42 -42,-42zm248 298l92 0 0 22 -122 0 -11 -11 0 -122 22 0 0 98c2,-3 5,-4 7,-7 63,-63 98,-147 98,-236 0,-89 -35,-173 -98,-236 -63,-63 -147,-98 -236,-98 -49,0 -97,11 -140,31l0 -25c44,-18 91,-28 140,-28 95,0 184,37 252,105 67,67 104,156 104,251 0,95 -37,184 -104,252 -2,1 -3,3 -4,4l0 0z"/>
  </g>
 </g>
</svg>
