<?xml version="1.0" encoding="UTF-8"?>
<!DOCTYPE svg PUBLIC "-//W3C//DTD SVG 1.1//EN" "http://www.w3.org/Graphics/SVG/1.1/DTD/svg11.dtd">
<!-- Creator: CorelDRAW X7 -->
<svg xmlns="http://www.w3.org/2000/svg" xml:space="preserve" width="100%" height="100%" version="1.1" style="shape-rendering:geometricPrecision; text-rendering:geometricPrecision; image-rendering:optimizeQuality; fill-rule:evenodd; clip-rule:evenodd"
viewBox="0 0 154 154"
 xmlns:xlink="http://www.w3.org/1999/xlink">
 <defs>
  <style type="text/css">
   <![CDATA[
    .fil0 {fill:#8480BC}
    .fil1 {fill:white}
   ]]>
  </style>
 </defs>
 <g id="Layer_x0020_1">
  <metadata id="CorelCorpID_0Corel-Layer"/>
  <g id="_2098575881648">
   <path class="fil0" d="M154 77c0,43 -34,77 -77,77 -42,0 -77,-34 -77,-77 0,-42 35,-77 77,-77 43,0 77,35 77,77z"/>
   <path class="fil1" d="M96 80l-13 0 0 50 -21 0 0 -50 -10 0 0 -18 10 0 0 -11c0,-8 4,-21 21,-21l15 0 0 17 -11 0c-2,0 -4,1 -4,5l0 10 15 0 -2 18z"/>
  </g>
 </g>
</svg>
