<?xml version="1.0" encoding="UTF-8"?>
<!DOCTYPE svg PUBLIC "-//W3C//DTD SVG 1.1//EN" "http://www.w3.org/Graphics/SVG/1.1/DTD/svg11.dtd">
<!-- Creator: CorelDRAW X7 -->
<svg xmlns="http://www.w3.org/2000/svg" xml:space="preserve" width="100%" height="100%" version="1.1" style="shape-rendering:geometricPrecision; text-rendering:geometricPrecision; image-rendering:optimizeQuality; fill-rule:evenodd; clip-rule:evenodd"
viewBox="0 0 764 126"
 xmlns:xlink="http://www.w3.org/1999/xlink">
 <defs>
  <style type="text/css">
   <![CDATA[
    .fil2 {fill:#D2AE6D}
    .fil1 {fill:#A6B7DE}
    .fil0 {fill:#6C87C3}
   ]]>
  </style>
 </defs>
 <g id="Layer_x0020_1">
  <metadata id="CorelCorpID_0Corel-Layer"/>
  <g id="_2099021688592">
   <polygon class="fil0" points="76,76 76,76 76,76 101,51 101,76 101,76 101,101 101,126 76,126 76,101 "/>
   <polygon class="fil1" points="581,0 556,0 530,0 505,0 480,25 505,25 530,25 556,25 "/>
   <polygon class="fil1" points="505,51 480,76 505,76 530,76 556,76 581,51 556,51 530,51 "/>
   <polygon class="fil0" points="480,101 480,126 505,101 505,76 480,76 505,51 505,25 480,25 480,51 480,76 "/>
   <path class="fil1" d="M530 101l-25 0 0 25 25 0 26 0 25 -25 -25 0 -26 0zm-50 25l25 0 0 -25 -25 25z"/>
   <polygon class="fil1" points="480,51 455,51 429,51 404,76 429,76 455,76 480,76 "/>
   <polygon class="fil0" points="429,76 404,76 404,101 404,126 429,101 "/>
   <polygon class="fil1" points="404,101 379,101 354,101 328,101 303,126 328,126 354,126 379,126 404,126 "/>
   <rect class="fil1" x="353" width="25.2523" height="25.252"/>
   <polygon class="fil0" points="278,101 278,126 303,101 303,76 278,76 "/>
   <polygon class="fil1" points="252,101 227,101 227,126 252,126 278,126 278,101 "/>
   <polygon class="fil1" points="303,76 278,76 303,51 328,51 354,51 379,51 404,51 379,76 354,76 328,76 "/>
   <polygon class="fil1" points="177,126 202,126 202,101 177,101 151,101 126,101 126,126 151,126 "/>
   <polygon class="fil1" points="177,51 202,51 227,51 252,51 227,76 202,76 177,76 151,76 126,76 151,51 "/>
   <polygon class="fil1" points="126,0 101,0 76,0 50,0 25,0 0,0 0,25 25,25 50,25 76,25 101,25 126,25 151,0 "/>
   <polygon class="fil0" points="25,101 50,101 50,126 25,126 0,126 0,101 "/>
   <polygon class="fil1" points="0,76 25,76 50,76 76,76 101,51 76,51 50,51 25,51 0,51 "/>
   <polygon class="fil1" points="202,0 227,0 252,0 278,0 303,0 278,25 252,25 227,25 "/>
   <polygon class="fil0" points="278,76 278,51 278,51 278,25 303,0 303,25 303,51 303,51 "/>
   <polygon class="fil0" points="151,51 126,76 126,51 126,25 151,0 151,25 "/>
   <path class="fil2" d="M713 101l0 25 -101 0 0 -25 101 0zm-101 -76l0 -25c51,0 101,0 152,0l-25 25c-42,0 -85,0 -127,0zm152 26c0,25 0,50 0,75l-25 0 0 -50 0 0 -127 0 0 -25c51,0 101,0 152,0z"/>
  </g>
 </g>
</svg>
