<?xml version="1.0" encoding="UTF-8"?>
<!DOCTYPE svg PUBLIC "-//W3C//DTD SVG 1.1//EN" "http://www.w3.org/Graphics/SVG/1.1/DTD/svg11.dtd">
<!-- Creator: CorelDRAW X7 -->
<svg xmlns="http://www.w3.org/2000/svg" xml:space="preserve" width="100%" height="100%" version="1.1" style="shape-rendering:geometricPrecision; text-rendering:geometricPrecision; image-rendering:optimizeQuality; fill-rule:evenodd; clip-rule:evenodd"
viewBox="0 0 1786 1203"
 xmlns:xlink="http://www.w3.org/1999/xlink">
 <defs>
  <style type="text/css">
   <![CDATA[
    .fil20 {fill:#DABA76}
    .fil10 {fill:#D5A767;fill-rule:nonzero}
    .fil13 {fill:#DABA76;fill-rule:nonzero}
    .fil0 {fill:#8DA0D1;fill-rule:nonzero}
    .fil2 {fill:#2195CA;fill-rule:nonzero}
    .fil1 {fill:#2F8AA1;fill-rule:nonzero}
    .fil19 {fill:#45487A;fill-rule:nonzero}
    .fil7 {fill:#564D72;fill-rule:nonzero}
    .fil9 {fill:#5C56A2;fill-rule:nonzero}
    .fil5 {fill:#6E6E6E;fill-rule:nonzero}
    .fil3 {fill:#79C9F0;fill-rule:nonzero}
    .fil8 {fill:#8480BC;fill-rule:nonzero}
    .fil17 {fill:#A8A8A8;fill-rule:nonzero}
    .fil12 {fill:#BF7D31;fill-rule:nonzero}
    .fil14 {fill:#D7DAFF;fill-rule:nonzero}
    .fil6 {fill:#E3C07B;fill-rule:nonzero}
    .fil4 {fill:#E6E9FF;fill-rule:nonzero}
    .fil16 {fill:#F1FFF9;fill-rule:nonzero}
    .fil15 {fill:#F6C96B;fill-rule:nonzero}
    .fil18 {fill:#FCA30B;fill-rule:nonzero}
    .fil11 {fill:#FCE9CA;fill-rule:nonzero}
   ]]>
  </style>
 </defs>
 <g id="Layer_x0020_1">
  <metadata id="CorelCorpID_0Corel-Layer"/>
  <g id="_2098584384960">
   <path class="fil0" d="M1051 546c0,0 -67,36 -113,51 -42,15 -74,21 -79,22l-1 0c0,0 -10,7 -27,18 -2,0 -3,0 -5,0l0 0c-10,-4 -50,2 -84,13 -65,-23 -345,79 -290,123 -50,8 -249,92 -190,121 0,0 -93,39 -107,80 -13,37 67,22 85,18 26,-5 50,-15 77,-27 67,-30 192,-89 315,-149 44,-20 71,-44 118,-41 81,5 204,-28 261,-69 33,-25 64,-63 82,-98 33,-66 6,-75 -42,-62z"/>
   <path class="fil1" d="M192 812c1,0 1,0 2,-1 -4,0 -9,-1 -13,-3 5,3 8,4 11,4z"/>
   <path class="fil1" d="M894 220c44,-29 96,-51 129,-30 5,3 9,8 11,14 0,0 0,0 0,0 -2,-13 -56,-55 -65,-60 -20,-13 -48,-9 -77,2 12,16 15,43 2,74z"/>
   <path class="fil1" d="M886 139l0 0c-6,-25 -44,-48 -80,-47 5,18 7,40 8,65 27,-30 55,-32 72,-18z"/>
   <path class="fil2" d="M160 684c37,-140 140,-179 140,-179 -18,-55 41,-155 87,-193 79,-66 106,-70 149,-42 1,-71 93,-190 155,-215 45,-19 74,-19 92,-4 0,0 0,0 0,0 -15,-34 -84,-68 -146,-42 -61,25 -154,145 -154,215 -44,-27 -70,-23 -149,42 -47,38 -106,138 -87,193 0,0 -104,40 -140,179 -12,44 -13,85 2,108 5,9 38,40 62,56 -24,-19 -24,-66 -11,-118z"/>
   <path class="fil3" d="M1034 204c-2,-6 -6,-11 -11,-14 -33,-21 -85,1 -129,30 13,-31 10,-58 -2,-74 -1,-2 -4,-5 -6,-7 -17,-14 -45,-12 -72,18 -1,-25 -3,-47 -8,-65 -5,-18 -12,-32 -23,-41 -18,-15 -47,-15 -92,4 -62,25 -154,144 -155,215 -43,-28 -69,-24 -149,42 -46,38 -105,138 -87,193 0,0 -103,39 -140,179 -13,52 -13,99 11,118 3,3 7,5 10,6 4,2 9,3 13,3 2,1 4,1 6,1 42,-1 762,-411 804,-463 32,-38 47,-111 30,-145z"/>
   <path class="fil4" d="M831 305c0,8 -5,17 -11,20l-547 276c-6,3 -11,0 -11,-8 0,-8 5,-17 11,-21l547 -276c6,-3 11,1 11,9z"/>
   <path class="fil4" d="M920 183c0,8 -5,17 -12,20l-546 276c-6,3 -11,0 -11,-8 0,-8 5,-17 11,-21l546 -276c7,-3 12,1 12,9z"/>
   <path class="fil4" d="M831 373c0,8 -5,17 -11,20l-547 277c-6,3 -11,-1 -11,-9 0,-8 5,-17 11,-20l547 -276c6,-4 11,0 11,8z"/>
   <path class="fil5" d="M1120 244c8,-54 10,-97 10,-102 0,5 -1,46 -9,99 0,1 -1,2 -1,3z"/>
   <path class="fil6" d="M922 617c0,0 -108,-25 -129,-124 -15,-69 -10,-192 -10,-192 0,0 73,-18 114,-54 41,-35 67,-67 67,-67 0,0 26,15 65,10 38,-5 101,-49 101,-49 0,0 0,0 0,1 0,5 -2,48 -10,102 -6,33 -13,71 -24,106 -57,188 -174,267 -174,267z"/>
   <path class="fil7" d="M925 109c6,3 37,16 81,11 49,-7 129,-62 129,-62 0,0 35,3 42,22 -8,5 -50,33 -90,49 1,-4 1,-7 1,-8 0,1 -1,4 -1,8 -13,6 -26,10 -38,11 -49,7 -82,-10 -82,-10 0,0 0,0 -1,1l-41 -22z"/>
   <path class="fil8" d="M739 282c0,-1 0,-2 0,-2 0,0 92,-22 144,-67 46,-40 78,-76 83,-82 1,-1 1,-1 1,-1 0,0 33,17 82,10 12,-1 25,-5 38,-11 0,0 0,0 0,0 40,-16 82,-44 90,-49 0,-1 1,-1 1,-1 0,0 0,3 -1,8 0,0 0,0 0,0 -1,31 -8,145 -42,251 -78,240 -220,331 -220,331 0,0 -41,-6 -82,-32 -33,-21 -67,-54 -79,-109 -18,-79 -15,-229 -15,-246zm54 211c21,99 129,124 129,124 0,0 117,-79 174,-267 12,-37 20,-75 25,-109 8,-53 9,-94 9,-99 0,-1 0,-1 0,-1 0,0 -63,44 -101,49 -39,5 -65,-10 -65,-10 0,0 -26,32 -67,67 -41,36 -114,54 -114,54 0,0 -5,123 10,192z"/>
   <path class="fil9" d="M925 109l41 22c-5,6 -37,42 -83,82 -52,45 -144,67 -144,67 0,0 0,1 0,2l-43 -22 0 0c0,0 93,-23 144,-68 51,-44 85,-83 85,-83l0 0z"/>
   <path class="fil7" d="M833 637c-42,-15 -104,-51 -122,-130 -19,-83 -15,-243 -15,-247l43 22c0,17 -3,167 15,246 12,55 46,88 79,109z"/>
   <polygon class="fil9" points="1068,220 929,375 991,376 879,557 1063,340 1010,339 "/>
   <path class="fil10" d="M1271 574c-6,3 -7,5 -11,10 -10,-26 -33,-39 -61,-43 -29,-5 -53,11 -82,1 19,22 36,28 63,29 -15,16 -40,35 -60,45 -19,8 -36,2 -55,3l-2 -12c4,-1 8,-2 12,-3 25,-7 32,-16 49,-34 -22,4 -30,1 -45,-19 -10,-13 -11,-30 -15,-46 20,9 35,17 58,13 46,-7 141,-8 149,56z"/>
   <path class="fil11" d="M1033 710l0 0 84 -48 -84 48zm80 -56c-16,-10 -45,-15 -52,-35 2,0 3,0 4,0 19,-1 36,5 55,-3 20,-10 45,-29 60,-45 -27,-1 -44,-7 -63,-29 29,10 53,-6 82,-1 28,4 50,14 60,40l0 0c0,1 0,1 1,2 -5,4 -8,8 -9,16 -2,8 4,5 -3,11 -4,3 -12,5 -17,7 -12,6 -37,41 -48,49 -21,15 -28,3 -48,18 -6,5 -14,8 -16,17 -3,9 4,14 4,22 0,20 -32,35 -50,35 -8,0 -18,-9 -22,-8 -8,2 -14,23 -18,31l0 -40 0 0c-14,-8 -39,-12 -42,-22 -5,-17 16,-18 18,-31 2,-18 -30,-28 -41,-35 23,-12 58,0 80,7 21,7 45,6 65,-6z"/>
   <path class="fil0" d="M780 1044c17,-3 48,-11 60,-10l2 0c-2,-3 -5,-5 -22,-3 -11,1 -23,4 -34,5 -15,3 -19,2 -32,3 -4,5 7,7 26,5z"/>
   <path class="fil0" d="M625 1101c-17,4 -34,7 -46,6 -2,5 8,5 28,2 19,-3 33,-8 49,-12 -6,-1 -20,2 -31,4z"/>
   <path class="fil0" d="M1113 984c-3,1 -7,3 -9,4 -1,0 -1,-1 -1,-1l10 -3zm143 -19c-12,3 -23,5 -33,7 26,-1 57,-3 76,-1 1,-1 2,-2 3,-3l0 4 -50 4 0 0 -21 2 -61 18 -1 -23c27,-1 61,-7 87,-8zm489 -99l0 0 -21 1 -58 18 -2 -45 -154 46c-5,0 -7,-1 -15,-1 -16,1 -36,5 -53,9 -23,5 -32,9 -54,10 -15,0 -24,-2 -27,-5 0,7 9,10 33,11 -24,-1 -70,10 -93,15 -60,12 -104,16 -143,17 14,7 48,8 101,1 -29,6 -53,9 -81,14 -31,6 -48,10 -70,9 7,4 24,6 44,7l-34 10c-5,-8 -79,0 -118,6 -28,4 -51,11 -78,16 -31,7 -51,9 -77,11 6,3 7,7 20,8 21,2 30,0 60,-6 -23,9 -32,13 -64,21 -5,1 -11,2 -16,3 -15,4 -31,7 -45,9 -24,4 -32,2 -52,5 5,5 25,4 47,3 -17,2 -34,5 -50,8 -18,3 -34,5 -52,8 -34,6 -66,16 -95,24 23,-3 48,-7 71,-10 13,-1 28,-3 33,-1 5,2 -2,6 5,8 9,2 34,1 54,-1 14,-1 47,-5 45,-1 0,0 1,0 1,-1l1 20 -73 22 2 68 26 -2 0 0 0 0 1 0 272 -3 182 -128 1 15 197 26 370 -209 0 -47 -41 11z"/>
   <polygon class="fil6" points="1411,671 1411,974 1036,1198 1036,1151 1036,1149 1036,925 1036,924 1051,915 1230,811 1231,811 1244,768 1245,767 1312,729 1368,696 1371,694 1399,678 "/>
   <polygon class="fil12" points="1383,670 1371,677 1370,678 1356,685 1356,657 1358,656 1371,663 1371,664 "/>
   <polygon class="fil13" points="1356,657 1356,685 1310,712 1310,684 "/>
   <polygon class="fil10" points="1312,729 1312,729 1312,729 1245,767 1245,768 1229,759 1310,712 1310,712 1356,685 1370,678 1371,677 1383,670 1371,664 1370,663 1358,656 1356,657 1310,684 1310,666 1356,640 1371,648 1372,648 1412,671 1411,671 1399,678 1371,694 1368,696 "/>
   <path class="fil14" d="M1052 791c18,21 31,-34 11,-18 -8,3 -17,10 -11,18zm258 -107l0 28 -81 47 -16 43 -180 103 0 -46 0 -78c4,-8 10,-29 18,-31 4,-1 14,8 22,8 18,0 50,-15 50,-35 0,-8 -7,-13 -4,-22 2,-9 10,-12 16,-17 20,-15 27,-3 48,-18 11,-8 36,-43 48,-49 5,-2 13,-4 17,-7 7,-6 1,-3 2,-12 2,-10 12,-19 21,-24l39 -22 0 114 0 18zm-116 -4c-5,4 -8,10 -7,18 15,1 24,-23 7,-18zm-36 11l0 0c-9,3 -32,22 -25,32 14,21 37,-19 36,-32 -3,-1 -7,-1 -11,0zm111 -80c-6,10 -2,24 15,15 24,-12 -3,-35 -15,-16 0,0 0,0 0,1z"/>
   <path class="fil10" d="M1269 610c12,-19 39,4 15,16 -17,9 -21,-5 -15,-15 0,-1 0,-1 0,-1z"/>
   <polygon class="fil12" points="1245,768 1231,811 1230,811 1213,802 1229,759 "/>
   <polygon class="fil10" points="1033,905 1213,802 1230,811 1051,915 1036,924 1036,925 1035,925 1017,914 1017,914 996,902 996,902 977,891 1033,859 1033,879 1010,893 1032,905 "/>
   <path class="fil10" d="M1194 680c17,-5 8,19 -7,18 -1,-8 2,-14 7,-18z"/>
   <path class="fil10" d="M1169 691c1,13 -22,53 -36,32 -7,-10 16,-29 25,-32l0 0c4,-1 8,-1 11,0z"/>
   <path class="fil10" d="M1061 619c7,20 36,25 52,35 -20,12 -44,13 -65,6 -22,-7 -57,-19 -80,-7 11,7 43,17 41,35 -2,13 -23,14 -18,31 3,10 28,14 42,22l0 40c0,0 0,0 -1,0 2,-14 -23,-22 -34,-28 -15,-8 -34,-21 -41,-37 -5,-11 1,-23 -3,-35 -4,-11 -15,-14 -25,-18 -17,-7 -36,-11 -54,-14 22,-12 47,-26 73,-25 14,1 25,6 39,7 12,1 25,-1 38,3 -16,-10 -32,-23 -35,-43 15,3 21,17 39,18 11,1 23,0 34,-2l2 12c-1,0 -2,0 -4,0z"/>
   <path class="fil10" d="M1063 773c20,-16 7,39 -11,18 -6,-8 3,-15 11,-18z"/>
   <path class="fil10" d="M1061 570l-1 1c-9,-14 -33,-2 -46,-6 -14,-4 -23,-24 -19,-37 9,5 13,10 24,12 8,1 18,-1 25,2 13,5 16,16 17,28z"/>
   <polygon class="fil12" points="1036,1151 1036,1198 997,1174 997,1174 996,1174 977,1163 977,891 996,902 996,902 1017,914 1017,914 1035,925 1036,925 1036,1149 "/>
   <polygon class="fil13" points="1033,879 1033,905 1032,905 1010,893 "/>
   <polygon class="fil15" points="997,1174 997,1175 996,1175 996,1174 997,1174 "/>
   <path class="fil10" d="M896 677c8,0 19,-2 23,7 -12,2 -23,12 -37,10 -15,-1 -23,-12 -21,-28 9,10 22,11 35,11z"/>
   <path class="fil16" d="M1087 788c66,-41 132,-82 198,-123 5,-3 0,-12 -5,-8 -66,40 -132,81 -199,122 -5,4 0,12 6,9z"/>
   <path class="fil16" d="M1093 831c66,-40 132,-81 198,-122 5,-4 0,-13 -5,-9 -66,41 -132,82 -199,123 -5,3 0,12 6,8z"/>
   <path class="fil9" d="M1303 801c8,-5 16,-9 24,-12 -1,13 -2,25 -3,38 -1,1 -1,1 -1,1 -5,1 -10,3 -15,6 0,-11 -3,-21 -5,-33z"/>
   <path class="fil9" d="M1279 840c-4,-2 -8,-3 -13,-4 10,-12 21,-23 33,-31 1,11 4,21 5,32 -5,4 -10,8 -14,13 -4,-3 -6,-8 -11,-10z"/>
   <path class="fil9" d="M1267 867c-7,0 -14,0 -20,0 4,-9 9,-17 15,-25 6,1 12,2 16,5 3,2 5,5 8,8 -4,4 -7,9 -9,14 -3,-2 -7,-2 -10,-2z"/>
   <path class="fil9" d="M1252 893c-6,2 -11,4 -17,6 2,-9 5,-18 9,-26 6,-1 12,-1 17,0 3,0 10,-1 13,1 -3,5 -4,10 -5,15 -6,1 -11,2 -17,4z"/>
   <path class="fil9" d="M1246 918c-5,2 -10,5 -15,8 0,-6 1,-10 2,-15 0,-2 0,-5 1,-7 6,-1 11,-4 17,-6 6,-2 11,-3 17,-4 -1,5 -2,10 -2,14 -7,4 -13,6 -20,10z"/>
   <path class="fil9" d="M1229 941c1,-3 1,-7 1,-10 4,-2 8,-4 13,-7 7,-4 15,-7 22,-10 -1,6 -1,12 -3,18 -11,5 -22,8 -33,9z"/>
   <path class="fil9" d="M1255 960c-11,5 -23,6 -32,5 2,-6 4,-12 5,-19 11,-1 22,-4 33,-9 0,5 -1,9 -3,14 0,3 -1,6 -3,9z"/>
   <path class="fil9" d="M1214 993c-2,-2 -5,-4 -7,-6 3,-4 6,-7 9,-10 1,-2 3,-4 4,-7 10,2 21,1 33,-4 -5,12 -13,23 -21,34 -7,0 -13,-4 -18,-7z"/>
   <path class="fil9" d="M1191 1001c4,-3 8,-6 12,-10 3,4 6,7 11,9 4,2 8,5 14,5 -9,10 -19,19 -29,27 -4,-10 -8,-19 -8,-31z"/>
   <path class="fil9" d="M1170 1010c0,0 0,0 1,0 -3,7 -5,15 -7,22 -1,6 -1,12 -2,18 -4,1 -9,1 -13,1 -19,-2 2,-43 21,-41z"/>
   <path class="fil9" d="M1169 1033c1,-8 4,-16 6,-24 3,0 7,-2 11,-4 0,12 5,21 9,30 -10,6 -19,11 -28,14 0,-5 1,-10 2,-16z"/>
   <path class="fil9" d="M1331 788c2,-1 3,-1 5,-2 20,-5 11,30 -8,40 2,-13 3,-26 3,-38z"/>
   <path class="fil10" d="M1390 615c12,-2 14,-15 8,-22 -7,-8 -24,-10 -33,-13 -18,-7 -31,-18 -37,-38 7,9 15,12 24,12 24,0 54,-22 74,-20 -11,0 -28,-9 -36,-19 -2,-3 -3,-5 -4,-8 20,11 47,13 67,7 19,-6 38,-20 58,-14 -6,-6 -16,-13 -13,-23 9,9 20,5 31,6 9,0 19,5 27,9l13 -8c-4,-4 -6,-11 -12,-16 -11,-9 -27,-9 -39,-5 -18,3 -25,12 -41,-1 -12,-9 -18,-26 -21,-38 0,28 6,46 24,68 -17,-21 -52,-15 -70,-12 -45,6 -78,-10 -108,-37 10,40 36,68 76,81 -22,1 -40,-6 -62,-6 -23,0 -36,2 -52,-18 6,27 24,52 43,71 21,19 48,22 68,37 -9,0 -18,0 -25,1 20,15 46,35 60,58 1,-5 0,-12 1,-15l-2 -29c-7,-1 -14,-2 -19,-8z"/>
   <path class="fil10" d="M1523 562c-3,-1 -5,-1 -7,0 0,0 0,0 0,0 0,0 0,0 0,0 -3,2 -6,6 -7,10 7,3 12,-1 14,-10z"/>
   <path class="fil10" d="M1551 517l0 0c-6,6 -12,16 -5,21 20,16 28,-44 5,-21z"/>
   <path class="fil11" d="M1447 620c4,-3 13,-5 15,-12 3,-9 -7,-10 -7,-17 2,-10 10,-16 19,-23 18,-12 47,-18 58,-38 5,-12 1,-15 11,-25 4,-4 9,-9 14,-13l0 0c0,0 0,0 -1,0 -8,-4 -18,-9 -27,-9 -11,-1 -22,3 -31,-6 -3,10 7,17 13,23 -20,-6 -39,8 -58,14 -20,6 -47,4 -67,-7 1,3 2,5 4,8 8,10 25,19 36,19 -20,-2 -50,20 -74,20 -9,0 -17,-3 -24,-12 6,20 19,31 37,38 9,3 26,5 33,13 6,7 4,20 -8,22 5,6 12,7 19,8l0 29c6,-18 20,-23 38,-32z"/>
   <polygon class="fil6" points="1746,623 1743,625 1688,656 1620,696 1619,697 1606,740 1605,740 1426,844 1411,852 1411,854 1411,1078 1411,1080 1411,1127 1786,902 1786,600 1774,607 "/>
   <polygon class="fil12" points="1744,607 1746,605 1758,599 1746,592 1745,592 1733,585 1731,586 1731,614 "/>
   <polygon class="fil10" points="1746,577 1746,577 1731,568 1686,594 1686,612 1731,586 1733,585 1745,592 1746,592 1758,599 1746,605 1744,607 1731,614 1686,640 1604,688 1619,697 1620,696 1688,656 1743,625 1746,623 1774,607 1786,600 1786,599 "/>
   <polygon class="fil13" points="1731,614 1731,586 1686,612 1686,640 "/>
   <path class="fil14" d="M1516 562c0,0 0,0 0,0 0,0 0,0 0,0 2,-1 4,-1 7,0 -2,9 -7,13 -14,10 1,-4 4,-8 7,-10zm35 -45l0 0c23,-23 15,37 -5,21 -7,-5 -1,-15 5,-21zm-142 316l179 -103 16 -42 82 -48 0 -28 0 -18 0 -178 -117 68 -13 8c1,0 1,0 1,0l0 0c-5,4 -10,9 -14,13 -10,10 -6,13 -11,25 -11,20 -40,26 -58,38 -9,7 -17,13 -19,23 0,7 10,8 7,17 -2,7 -11,9 -15,12 -18,9 -32,14 -38,32l0 135 0 20 0 26z"/>
   <polygon class="fil12" points="1605,740 1606,740 1619,697 1604,688 1588,730 "/>
   <polygon class="fil12" points="1411,1078 1411,854 1410,853 1392,843 1392,843 1371,831 1371,831 1352,820 1352,1091 1371,1103 1372,1103 1372,1103 1411,1127 1411,1080 "/>
   <polygon class="fil13" points="1385,822 1407,834 1409,833 1409,807 "/>
   <polygon class="fil10" points="1371,831 1392,843 1392,843 1410,853 1411,854 1411,852 1426,844 1605,740 1588,730 1409,833 1407,834 1385,822 1409,807 1409,787 1352,820 1371,831 "/>
   <polygon class="fil15" points="1371,1103 1371,1104 1372,1103 1372,1103 1372,1103 "/>
   <path class="fil16" d="M1454 668c66,-41 132,-82 199,-123 5,-3 0,-12 -6,-9 -66,41 -132,82 -198,123 -5,3 0,12 5,9z"/>
   <path class="fil16" d="M1454 711c66,-40 132,-81 199,-122 5,-4 0,-13 -6,-9 -66,41 -132,82 -198,123 -5,3 0,12 5,8z"/>
   <path class="fil16" d="M1457 758c66,-41 133,-81 199,-122 5,-4 0,-13 -6,-9 -66,41 -132,82 -198,122 -5,4 0,13 5,9z"/>
   <path class="fil9" d="M1654 834c-1,9 -10,18 -18,20 -8,2 -13,-4 -11,-13 2,-8 10,-17 18,-19 8,-2 13,4 11,12zm-37 46c-2,4 -5,-1 -9,1 -5,3 -6,9 -9,9 -3,1 6,-26 9,-28 3,-2 11,14 9,18zm-35 2c-8,8 -16,9 -18,2 -2,-6 3,-18 11,-25 8,-8 17,-8 19,-2 2,7 -4,18 -12,25zm91 -51c2,-8 3,-16 3,-23 0,-41 -30,-57 -68,-35 -37,21 -68,72 -68,113 0,8 1,15 3,21 7,4 16,-1 25,-2 13,-1 15,11 16,26 3,-1 6,-2 9,-3l0 -10 5 -2 0 11c2,-1 4,-2 6,-3l0 -12 5 -3 0 12c2,-1 4,-3 6,-4l0 -11 5 -3 0 10c4,-2 7,-5 10,-8 1,-14 3,-28 15,-41 11,-11 22,-16 28,-33l0 0 0 0z"/>
   <path class="fil9" d="M1550 974c-7,0 -10,-6 -7,-15 1,-4 4,-8 7,-11 -1,-3 -1,-6 0,-10 3,-9 11,-16 17,-16 7,0 10,8 10,16 8,0 19,0 29,0 12,-13 23,-27 33,-37 -1,-7 2,-19 9,-27 6,-7 14,-9 17,-4 1,3 1,7 0,11 3,-1 6,-1 8,2 2,5 -1,16 -8,23 -6,7 -15,9 -20,8 -7,7 -15,15 -22,23 7,0 14,-1 20,-1 4,-8 13,-17 19,-17 7,-1 10,6 7,14 -1,5 -4,9 -7,12 1,2 1,6 -1,10 -2,8 -10,15 -17,15 -6,1 -10,-7 -8,-15 -9,0 -19,0 -30,0 -9,11 -19,22 -27,32 2,5 -2,18 -8,25 -7,7 -14,9 -17,4 -1,-3 -1,-6 0,-10 -4,1 -7,0 -8,-3 -3,-5 0,-15 7,-22 6,-7 15,-8 20,-6l0 0c5,-6 11,-12 17,-19 -7,1 -14,1 -20,2 -4,7 -14,16 -20,16z"/>
   <path class="fil12" d="M367 619c-1,4 -21,73 -20,93 0,38 13,64 34,77 27,15 54,31 81,47 0,0 0,0 0,-1 -1,0 -1,0 -1,0 -1,-1 -2,-1 -2,-2 -1,0 -1,0 -1,0 -1,-1 -1,-1 -2,-2 0,0 0,0 -1,0 -1,-1 -2,-2 -4,-4 0,0 -1,0 -1,-1 0,0 -1,-1 -1,-1 -1,-1 -2,-2 -3,-3 0,0 0,-1 0,-1 -1,-1 -1,-1 -2,-2 -1,-1 -2,-2 -3,-4 0,-1 0,-1 -1,-2 0,0 0,0 0,-1 -1,0 -1,-1 -2,-2 0,0 0,-1 0,-1 0,-1 -1,-2 -1,-3 0,0 0,0 -1,0 0,-1 0,-2 -1,-3 0,-1 -1,-3 -1,-4 -1,-1 -1,-3 -1,-4 -1,-1 -1,-3 -2,-5 0,-1 0,-2 -1,-3 0,0 0,0 0,0 0,-2 0,-3 0,-4 -1,-2 -1,-4 -1,-6 0,-1 -1,-2 -1,-3 0,0 0,-1 0,-1 0,-1 0,-3 0,-4 0,-2 0,-3 0,-5l0 0c-1,-2 -1,-4 -1,-5 0,-20 20,-89 21,-93l-81 -47z"/>
   <g>
    <path class="fil11" d="M448 666c-1,4 -21,73 -21,93 0,1 0,3 1,5l0 0c0,2 0,3 0,5 0,1 0,3 0,4 0,0 0,1 0,1 0,1 1,2 1,3 0,2 0,4 1,6 0,1 0,2 0,4 0,0 0,0 0,0 1,1 1,2 1,3 1,2 1,4 2,5 0,1 0,3 1,4 0,1 1,3 1,4 1,1 1,2 1,3 0,0 1,0 1,0 0,1 1,2 1,3 0,0 0,1 0,1 1,1 1,2 2,2 0,1 0,1 0,1 1,1 1,1 1,2 1,2 2,3 3,4 1,1 1,1 2,2 0,0 0,1 0,1 1,1 2,2 3,3 0,0 1,1 1,1 0,1 1,1 1,1 2,2 3,3 4,4 1,0 1,0 1,0 1,1 1,1 2,2 0,0 0,0 0,0 1,1 2,1 3,2 0,0 0,0 1,0 21,14 52,12 86,-7 66,-39 119,-131 119,-207 0,-33 -16,-62 -17,-63 -2,1 -31,17 -63,35 0,0 0,1 0,2 0,22 -16,49 -35,60 -6,3 -11,5 -16,5 0,0 -1,0 -1,0 0,0 -1,0 -1,0 -1,0 -1,0 -1,0 -1,0 -1,0 -1,-1 0,0 -1,0 -1,0 0,0 0,0 -1,0 0,0 0,0 -1,0 0,-1 -1,-1 -2,-2l0 0 -18 -10 0 0 0 0 -10 -6c-27,14 -50,25 -51,25zm61 -19c-2,42 29,35 46,27 25,-14 40,-56 40,-75 0,0 46,-23 47,-24 1,1 11,32 11,60 0,64 -49,152 -105,184 -57,33 -106,6 -106,-58 0,-18 15,-85 15,-88 2,-1 24,-11 52,-26l-10 -6c6,-3 12,-6 18,-9 0,1 0,2 0,3 0,11 4,19 10,22l-18 -10z"/>
   </g>
   <path class="fil10" d="M540 732c0,4 2,7 4,9l-3 29 -4 41 35 -21 0 0 -8 -60 0 0c3,-5 4,-10 4,-14 0,-9 -6,-13 -14,-8 -3,2 -7,6 -9,10 -3,4 -5,9 -5,14zm-31 -85c-2,42 29,35 46,27 25,-14 41,-56 40,-75 0,0 46,-23 47,-24 1,1 11,32 11,60 0,64 -49,152 -105,184 -57,33 -106,6 -106,-58 0,-18 15,-85 15,-88 2,-1 24,-11 52,-26l0 1c0,0 0,-1 0,-1z"/>
   <path class="fil17" d="M446 822c0,0 0,-1 0,-1 0,0 0,1 0,1z"/>
   <path class="fil12" d="M474 607l43 25c0,1 0,2 0,3 0,11 4,19 10,22 1,1 2,1 2,2 1,0 1,0 1,0 1,0 1,0 1,0 0,0 1,0 1,0 0,1 0,1 1,1 0,0 0,0 1,0 0,0 1,0 1,0 0,0 1,0 1,0 5,0 10,-2 16,-5 19,-11 35,-38 35,-60 0,-1 0,-2 0,-2l-81 -47c0,0 0,1 0,2 0,21 -14,47 -32,59z"/>
   <path class="fil13" d="M506 546l81 47c32,-18 61,-34 63,-35l-48 -28c0,7 0,13 0,16 0,0 2,14 -16,16 -21,1 -23,-14 -23,-14 0,-5 0,-19 1,-34 -11,5 -34,18 -58,32z"/>
   <path class="fil18" d="M509 647l0 1c0,0 0,-1 0,-1l0 0z"/>
   <path class="fil17" d="M532 659c0,0 -1,0 -1,0 0,0 1,0 1,0z"/>
   <polygon class="fil19" points="541,770 537,811 572,790 "/>
   <path class="fil9" d="M544 741l-3 29 31 20 0 0 -8 -60 -19 -12c-3,4 -5,9 -5,14 0,4 2,7 4,9z"/>
   <path class="fil19" d="M545 718l19 12 0 0c3,-5 4,-10 4,-14 0,-9 -6,-13 -14,-8 -3,2 -7,6 -9,10z"/>
   <path class="fil20" d="M367 619l81 47c12,-6 25,-12 38,-18 10,-5 21,-11 31,-16l-81 -47 -69 34z"/>
   <path class="fil12" d="M409 511c0,0 -2,60 -3,89l0 0 0 0c0,7 0,13 0,15 0,12 7,25 31,20 11,-2 13,-15 13,-22l0 -5c0,-5 0,-10 0,-15l-4 -3 4 3c0,-30 1,-70 1,-70 0,-37 18,-73 44,-89l23 -15c41,-25 47,1 47,38 0,0 -1,30 -1,57l2 -2 -2 2c-1,15 -1,29 -1,34 0,0 2,15 23,14 18,-2 16,-16 16,-16 0,-3 0,-9 0,-16l0 0c1,-36 3,-112 3,-112 0,-52 -36,-75 -81,-53l-40 20c-44,23 -75,74 -75,126zm160 0l0 0 0 0 0 0z"/>
   <path class="fil0" d="M540 866c38,-17 44,-15 44,-10 0,0 0,5 0,9 -10,4 -30,14 -52,24l-2 -18 10 -5zm125 -23l-45 12c1,-6 2,-18 2,-18 -1,-8 -35,0 -77,19l-16 7 -3 -19c0,-3 -5,-3 -12,-1 -2,0 -4,1 -6,2 -2,0 -4,1 -5,1 -2,1 -3,1 -4,1l-1 0 -5 2c-9,2 -20,6 -31,12l-388 178c-15,6 -32,18 -46,28 -32,24 -47,64 11,51 58,-12 144,-59 200,-85l142 -65c0,1 0,1 0,1 0,6 13,6 33,0 26,-7 51,-13 77,-20 0,0 -1,0 -1,0 21,-5 49,-16 81,-30 62,-29 112,-61 111,-72 0,-5 -16,-4 -17,-4z"/>
  </g>
 </g>
</svg>
