<?xml version="1.0" encoding="UTF-8"?>
<!DOCTYPE svg PUBLIC "-//W3C//DTD SVG 1.1//EN" "http://www.w3.org/Graphics/SVG/1.1/DTD/svg11.dtd">
<!-- Creator: CorelDRAW X7 -->
<svg xmlns="http://www.w3.org/2000/svg" xml:space="preserve" width="100%" height="100%" version="1.1" style="shape-rendering:geometricPrecision; text-rendering:geometricPrecision; image-rendering:optimizeQuality; fill-rule:evenodd; clip-rule:evenodd"
viewBox="0 0 2709 1166"
 xmlns:xlink="http://www.w3.org/1999/xlink">
 <defs>
  <style type="text/css">
   <![CDATA[
    .fil10 {fill:#D2AE6D}
    .fil0 {fill:#8480BC}
    .fil6 {fill:#5C56A2}
    .fil7 {fill:white}
    .fil3 {fill:#FDDFD1;fill-rule:nonzero}
    .fil8 {fill:#DBBB83;fill-rule:nonzero}
    .fil9 {fill:#D2AE6D;fill-rule:nonzero}
    .fil1 {fill:#D2AE6D;fill-rule:nonzero}
    .fil4 {fill:#F2D394;fill-rule:nonzero}
    .fil2 {fill:white;fill-rule:nonzero}
    .fil5 {fill:white;fill-rule:nonzero}
   ]]>
  </style>
 </defs>
 <g id="Layer_x0020_1">
  <metadata id="CorelCorpID_0Corel-Layer"/>
  <g id="_2425718555072">
   <g>
    <g>
     <g>
      <polygon class="fil0" points="2709,1166 0,1166 0,0 2709,0 "/>
      <path class="fil1" d="M2339 51c-1,0 -1,3 0,3 2,0 2,-3 0,-3z"/>
      <path class="fil1" d="M2310 49c-3,0 -3,6 0,6 4,0 4,-6 0,-6z"/>
      <path class="fil1" d="M2349 268c-5,0 -5,7 0,7 5,0 5,-7 0,-7z"/>
      <g>
       <path class="fil2" d="M1348 1035c2,-2 5,-3 8,-1 3,1 3,5 2,7 -2,3 -5,4 -8,2 -2,-2 -3,-5 -2,-8z"/>
       <path class="fil3" d="M968 398c2,-3 5,-4 8,-2 2,2 3,5 2,8 -2,2 -5,3 -8,1 -2,-1 -3,-5 -2,-7z"/>
       <path class="fil3" d="M1084 340c2,-2 5,-3 8,-1 2,1 3,5 1,7 -1,3 -5,4 -7,2 -3,-2 -4,-5 -2,-8z"/>
       <path class="fil4" d="M1145 987c1,-3 5,-3 7,-2 3,2 3,5 2,8 -2,3 -5,3 -8,2 -2,-2 -3,-5 -1,-8z"/>
       <path class="fil5" d="M977 198c2,-3 5,-4 8,-2 2,1 3,5 1,7 -1,3 -5,4 -7,2 -3,-1 -4,-5 -2,-7z"/>
       <path class="fil4" d="M1198 154c1,-2 5,-3 7,-1 3,1 3,5 2,7 -2,3 -5,4 -8,2 -2,-2 -3,-5 -1,-8z"/>
       <path class="fil5" d="M1129 192c-12,0 -21,-10 -21,-22l-1 0c0,12 -9,22 -21,22 12,1 21,11 21,23l1 0c0,-12 9,-22 21,-23z"/>
       <path class="fil4" d="M188 466c-24,0 -42,-20 -42,-43l-1 0c0,23 -19,43 -42,43 23,1 42,20 42,44l0 0c1,-24 19,-43 43,-44z"/>
       <path class="fil5" d="M398 281c-1,3 -5,3 -7,2 -3,-2 -4,-5 -2,-8 2,-2 5,-3 8,-2 2,2 3,6 1,8z"/>
       <path class="fil5" d="M218 334c-2,3 -5,4 -8,2 -2,-2 -3,-5 -1,-8 1,-2 5,-3 7,-1 3,1 4,5 2,7z"/>
       <path class="fil4" d="M2014 1108c-2,2 -5,3 -8,1 -3,-1 -3,-5 -2,-7 2,-3 5,-4 8,-2 2,2 3,5 2,8z"/>
       <path class="fil5" d="M747 229c-1,3 -5,3 -7,2 -3,-2 -4,-5 -2,-8 1,-2 5,-3 7,-2 3,2 4,5 2,8z"/>
       <path class="fil5" d="M519 135c-2,2 -5,3 -8,2 -2,-2 -3,-6 -1,-8 1,-3 5,-3 7,-2 3,2 4,5 2,8z"/>
       <path class="fil4" d="M337 578c-2,3 -5,3 -8,2 -2,-2 -3,-5 -1,-8 1,-3 4,-3 7,-2 3,2 3,5 2,8z"/>
       <path class="fil5" d="M253 509c-1,3 -5,4 -7,2 -3,-2 -4,-5 -2,-8 1,-2 5,-3 7,-1 3,1 4,5 2,7z"/>
       <path class="fil5" d="M271 774c-1,3 -4,4 -7,2 -3,-2 -3,-5 -2,-8 2,-2 5,-3 8,-1 2,1 3,5 1,7z"/>
       <path class="fil4" d="M139 935c-2,3 -5,3 -8,2 -3,-2 -3,-5 -2,-8 2,-2 5,-3 8,-1 2,1 3,5 2,7z"/>
       <path class="fil2" d="M2349 153c1,2 5,3 7,2 3,-2 3,-5 2,-8 -2,-3 -5,-3 -8,-2 -2,2 -3,5 -1,8z"/>
       <path class="fil3" d="M1939 639c2,3 5,4 8,2 2,-2 3,-5 1,-8 -1,-2 -5,-3 -7,-1 -3,1 -4,5 -2,7z"/>
       <path class="fil3" d="M2083 101c2,3 5,4 8,2 3,-2 3,-5 2,-8 -2,-2 -5,-3 -8,-1 -2,1 -3,5 -2,7z"/>
       <path class="fil3" d="M1025 243c2,3 5,4 8,2 2,-1 3,-5 1,-7 -1,-3 -5,-4 -7,-2 -3,1 -4,5 -2,7z"/>
       <path class="fil2" d="M1305 232c2,2 5,3 8,1 2,-1 3,-5 2,-7 -2,-3 -5,-4 -8,-2 -2,2 -3,5 -2,8z"/>
       <path class="fil4" d="M1592 254c2,3 5,3 8,2 2,-2 3,-5 1,-8 -1,-2 -5,-3 -7,-2 -3,2 -4,5 -2,8z"/>
       <path class="fil3" d="M1707 154c1,3 5,3 7,2 3,-2 4,-5 2,-8 -1,-2 -5,-3 -7,-2 -3,2 -4,5 -2,8z"/>
       <path class="fil4" d="M1097 527c1,2 5,3 7,2 3,-2 4,-5 2,-8 -2,-3 -5,-3 -7,-2 -3,2 -4,5 -2,8z"/>
       <path class="fil2" d="M1147 519c2,2 5,3 8,2 2,-2 3,-5 2,-8 -2,-3 -5,-3 -8,-2 -3,2 -3,5 -2,8z"/>
       <path class="fil3" d="M1402 460c1,2 5,3 7,2 3,-2 3,-5 2,-8 -2,-3 -5,-3 -8,-2 -2,2 -3,5 -1,8z"/>
       <path class="fil3" d="M1431 132c2,2 5,3 8,1 2,-1 3,-5 1,-7 -1,-3 -5,-4 -7,-2 -3,2 -4,5 -2,8z"/>
       <path class="fil3" d="M1233 115c2,3 5,4 8,2 2,-1 3,-5 2,-7 -2,-3 -5,-4 -8,-2 -3,1 -3,5 -2,7z"/>
       <path class="fil2" d="M1980 224c2,2 5,3 8,2 3,-2 3,-5 2,-8 -2,-3 -5,-3 -8,-2 -2,2 -3,5 -2,8z"/>
       <path class="fil3" d="M273 100c1,3 5,3 7,2 3,-2 4,-5 2,-8 -2,-2 -5,-3 -8,-2 -2,2 -3,5 -1,8z"/>
       <path class="fil2" d="M1528 304c2,2 5,3 8,2 2,-2 3,-5 1,-8 -1,-3 -5,-3 -7,-2 -3,2 -3,5 -2,8z"/>
       <path class="fil4" d="M1211 409c1,2 5,3 7,2 3,-2 4,-6 2,-8 -1,-3 -5,-3 -7,-2 -3,2 -4,5 -2,8z"/>
       <path class="fil3" d="M1054 618c2,2 5,3 8,2 2,-2 3,-5 1,-8 -1,-3 -5,-3 -7,-2 -3,2 -3,5 -2,8z"/>
       <path class="fil2" d="M1762 114c2,3 5,3 8,2 2,-2 3,-5 1,-8 -1,-2 -5,-3 -7,-2 -3,2 -3,5 -2,8z"/>
       <path class="fil5" d="M1133 753c12,0 21,-10 21,-22l1 0c0,12 9,22 21,22 -12,0 -21,10 -21,22l-1 0c0,-12 -9,-22 -21,-22z"/>
       <path class="fil3" d="M2440 707c-2,3 -5,4 -8,2 -3,-1 -3,-5 -2,-7 2,-3 5,-4 8,-2 2,1 3,5 2,7z"/>
       <path class="fil3" d="M204 1085c-1,3 -5,4 -7,2 -3,-1 -3,-5 -2,-7 2,-3 5,-4 8,-2 2,2 3,5 1,7z"/>
       <path class="fil3" d="M2543 416c-2,2 -5,3 -8,1 -2,-1 -3,-5 -2,-7 2,-3 5,-4 8,-2 2,2 3,5 2,8z"/>
       <path class="fil3" d="M1547 1059c-1,3 -4,3 -7,2 -3,-2 -3,-5 -2,-8 2,-2 5,-3 8,-2 2,2 3,5 1,8z"/>
       <path class="fil4" d="M2375 985c-1,3 -5,3 -7,2 -3,-2 -4,-5 -2,-8 1,-2 5,-3 7,-1 3,1 4,5 2,7z"/>
       <path class="fil4" d="M2478 836c-2,3 -5,3 -8,2 -2,-2 -3,-5 -1,-8 1,-2 5,-3 7,-2 3,2 4,5 2,8z"/>
       <path class="fil3" d="M2620 810c-2,3 -5,4 -7,2 -3,-2 -4,-5 -2,-8 1,-2 5,-3 7,-1 3,1 4,5 2,7z"/>
       <path class="fil3" d="M2523 1070c-2,3 -5,4 -8,2 -2,-1 -3,-5 -1,-7 1,-3 5,-4 7,-2 3,1 3,5 2,7z"/>
       <path class="fil3" d="M421 963c-2,2 -5,3 -8,1 -2,-1 -3,-5 -1,-7 1,-3 4,-4 7,-2 3,2 3,5 2,8z"/>
      </g>
     </g>
     <path class="fil1" d="M2339 51c-1,0 -1,3 0,3 2,0 2,-3 0,-3z"/>
     <path class="fil1" d="M2310 49c-3,0 -3,6 0,6 4,0 4,-6 0,-6z"/>
     <path class="fil6" d="M1616 391c6,-29 34,-67 93,-67 58,0 86,41 92,67l-185 0zm18 -90l11 -6 13 26c14,-6 31,-10 51,-10 20,0 36,4 50,11l12 -27 12 6 -13 27c7,5 13,10 17,14 18,19 26,41 28,55l0 7 -214 0 1 -7c1,-22 15,-51 44,-69l-12 -27zm94 63c0,7 6,13 13,13 8,0 14,-6 14,-13 0,-7 -6,-13 -14,-13 -7,0 -13,6 -13,13zm-66 0c0,7 6,13 13,13 7,0 13,-6 13,-13 0,-7 -6,-13 -13,-13 -7,0 -13,6 -13,13zm-47 67l186 0 0 166 -26 0 0 73c0,8 -6,14 -14,14 -7,0 -13,-6 -13,-14l0 -73 -80 0 0 73c0,8 -6,14 -13,14 -7,0 -13,-6 -13,-14l0 -73 -27 0 0 -166zm-13 -14l0 193 26 0 0 60c0,15 12,27 27,27 15,0 27,-12 27,-27l0 -60 53 0 0 60c0,15 12,27 26,27 15,0 27,-12 27,-27l0 -60 27 0 0 -193 -213 0zm-47 14c11,0 20,8 20,20l0 93c0,11 -9,20 -20,20 -11,0 -20,-9 -20,-20l0 -93c0,-12 9,-20 20,-20zm-33 20l0 93c0,19 14,33 33,33 19,0 33,-14 33,-33l0 -93c0,-19 -14,-34 -33,-34 -19,0 -33,15 -33,34zm339 -20c12,0 20,8 20,20l0 93c0,11 -8,20 -20,20 -11,0 -20,-9 -20,-20l0 -93c0,-12 9,-20 20,-20zm-33 20l0 93c0,19 15,33 33,33 19,0 34,-14 34,-33l0 -93c0,-19 -15,-34 -34,-34 -18,0 -33,15 -33,34z"/>
     <path class="fil6" d="M2329 564c-6,-9 -11,-18 -14,-28 -3,-10 -4,-21 -4,-32 0,-10 1,-20 4,-29 3,-9 7,-18 13,-27 3,-4 7,-9 12,-14 3,-3 5,-5 8,-7l-4 -3c-3,-4 -7,-7 -10,-9 -6,-5 -13,-8 -20,-10 -7,-2 -15,-3 -23,-3 -5,0 -10,0 -16,1 -7,2 -13,4 -21,6 -8,3 -15,5 -21,6 -6,2 -12,3 -16,3 -4,0 -9,-1 -15,-2 -5,-2 -12,-3 -21,-6l0 0c-8,-2 -15,-4 -22,-5 -6,-1 -11,-1 -17,-1 -11,0 -21,2 -31,7 -9,4 -18,12 -25,22 -8,10 -14,21 -18,35 -4,13 -6,28 -6,45 0,18 2,36 8,54 5,19 14,38 25,58 11,19 21,33 32,42 10,8 19,12 27,12 4,0 7,0 11,-1 4,-1 10,-3 16,-6l0 0c7,-3 13,-5 20,-6l0 0c6,-2 12,-3 18,-3 6,0 12,1 19,3 6,1 13,3 21,6 6,2 12,4 17,5 5,1 8,2 11,2 8,0 15,-3 23,-9 9,-7 18,-18 27,-32l0 0c7,-9 12,-19 17,-28l0 0c2,-5 5,-11 7,-17 -4,-2 -8,-4 -12,-7 -7,-6 -14,-13 -20,-22l0 0zm-78 -198c4,-5 8,-9 11,-14 3,-5 6,-9 8,-14 2,-5 3,-10 4,-15 1,-2 1,-4 1,-6 -6,2 -12,5 -17,8 -8,5 -15,11 -19,18l0 0c-6,7 -10,15 -12,24 -2,4 -3,9 -3,14 2,0 5,-1 7,-1 3,-1 6,-3 9,-5 3,-3 7,-6 11,-9l0 0zm9 9c10,-10 17,-21 22,-33 4,-11 6,-22 6,-32l0 -2c0,-1 0,-2 0,-2 0,-1 0,-2 0,-3 -1,-1 -1,-2 -1,-3 -28,7 -47,18 -59,35 -12,17 -18,37 -18,61 10,-1 18,-3 24,-4 9,-3 17,-9 26,-17zm80 182c-11,-16 -17,-33 -17,-53 0,-17 5,-34 16,-48 5,-8 14,-18 27,-28 -9,-10 -17,-18 -25,-24 -15,-10 -31,-15 -50,-15 -11,0 -25,3 -41,8 -15,5 -26,8 -33,8 -6,0 -17,-2 -33,-7 -16,-5 -30,-7 -42,-7 -27,0 -49,11 -66,34 -18,23 -27,52 -27,88 0,38 12,77 35,118 23,41 47,61 70,61 8,0 19,-3 32,-8 12,-5 23,-8 33,-8 10,0 22,3 35,8 15,5 26,7 33,7 20,0 41,-15 61,-46 13,-19 23,-39 29,-59 -14,-4 -27,-14 -37,-29z"/>
     <path class="fil7" d="M1630 391c6,-29 34,-67 93,-67 58,0 85,41 91,67l-184 0zm17 -90l12 -6 12 26c14,-6 31,-10 51,-10 21,0 37,4 50,11l13 -27 11 6 -13 27c8,5 13,10 18,14 18,19 26,41 27,55l1 7 -214 0 0 -7c2,-22 16,-51 45,-69l-13 -27zm95 63c0,7 6,13 13,13 7,0 13,-6 13,-13 0,-7 -6,-13 -13,-13 -7,0 -13,6 -13,13zm-67 0c0,7 6,13 13,13 8,0 14,-6 14,-13 0,-7 -6,-13 -14,-13 -7,0 -13,6 -13,13zm-46 67l186 0 0 166 -27 0 0 73c0,8 -6,14 -13,14 -7,0 -13,-6 -13,-14l0 -73 -80 0 0 73c0,8 -6,14 -13,14 -8,0 -14,-6 -14,-14l0 -73 -26 0 0 -166zm-14 -14l0 193 27 0 0 60c0,15 12,27 27,27 14,0 26,-12 26,-27l0 -60 53 0 0 60c0,15 12,27 27,27 15,0 27,-12 27,-27l0 -60 26 0 0 -193 -213 0zm-46 14c11,0 20,8 20,20l0 93c0,11 -9,20 -20,20 -12,0 -20,-9 -20,-20l0 -93c0,-12 8,-20 20,-20zm-34 20l0 93c0,19 15,33 34,33 18,0 33,-14 33,-33l0 -93c0,-19 -15,-34 -33,-34 -19,0 -34,15 -34,34zm340 -20c11,0 20,8 20,20l0 93c0,11 -9,20 -20,20 -11,0 -20,-9 -20,-20l0 -93c0,-12 9,-20 20,-20zm-33 20l0 93c0,19 14,33 33,33 19,0 33,-14 33,-33l0 -93c0,-19 -14,-34 -33,-34 -19,0 -33,15 -33,34z"/>
     <path class="fil7" d="M2343 564c-6,-9 -11,-18 -14,-28 -3,-10 -5,-21 -5,-32 0,-10 2,-20 5,-29 3,-9 7,-18 13,-27 3,-4 7,-9 12,-14 2,-3 5,-5 7,-7l-3 -3c-4,-4 -7,-7 -11,-9 -6,-5 -13,-8 -20,-10 -7,-2 -14,-3 -22,-3 -5,0 -11,0 -17,1 -6,2 -13,4 -20,6 -8,3 -15,5 -21,6 -7,2 -12,3 -17,3 -3,0 -8,-1 -15,-2 -5,-2 -12,-3 -21,-6l0 0c-8,-2 -15,-4 -21,-5 -6,-1 -12,-1 -17,-1 -11,0 -22,2 -31,7 -10,4 -18,12 -26,22 -8,10 -14,21 -17,35 -5,13 -7,28 -7,45 0,18 3,36 9,54 5,19 13,38 24,58 11,19 22,33 33,42 9,8 18,12 27,12 3,0 7,0 11,-1 4,-1 9,-3 15,-6l0 0c7,-3 14,-5 20,-6l0 0c7,-2 13,-3 19,-3 5,0 12,1 19,3 6,1 13,3 20,6 7,2 13,4 18,5 4,1 8,2 11,2 7,0 15,-3 22,-9 9,-7 19,-18 28,-32l0 0c6,-9 12,-19 16,-28l0 0c3,-5 5,-11 8,-17 -5,-2 -8,-4 -12,-7 -7,-6 -14,-13 -20,-22l0 0zm-79 -198c5,-5 8,-9 12,-14 3,-5 5,-9 7,-14 2,-5 4,-10 5,-15 0,-2 1,-4 1,-6 -7,2 -12,5 -17,8 -9,5 -15,11 -20,18l0 0c-5,7 -9,15 -12,24 -1,4 -2,9 -3,14 3,0 5,-1 7,-1 3,-1 6,-3 10,-5 3,-3 7,-6 10,-9l0 0zm9 9c10,-10 17,-21 22,-33 5,-11 7,-22 7,-32l0 -2c0,-1 0,-2 0,-2 0,-1 -1,-2 -1,-3 0,-1 0,-2 0,-3 -28,7 -48,18 -59,35 -12,17 -18,37 -19,61 11,-1 19,-3 25,-4 8,-3 17,-9 25,-17zm80 182c-11,-16 -16,-33 -16,-53 0,-17 5,-34 15,-48 6,-8 15,-18 27,-28 -8,-10 -16,-18 -24,-24 -15,-10 -32,-15 -50,-15 -12,0 -25,3 -41,8 -16,5 -27,8 -34,8 -5,0 -16,-2 -32,-7 -17,-5 -31,-7 -42,-7 -27,0 -49,11 -67,34 -17,23 -26,52 -26,88 0,38 11,77 34,118 24,41 47,61 71,61 8,0 18,-3 31,-8 13,-5 24,-8 34,-8 10,0 22,3 35,8 14,5 25,7 33,7 20,0 40,-15 60,-46 14,-19 23,-39 29,-59 -14,-4 -26,-14 -37,-29z"/>
     <path class="fil1" d="M2349 268c-5,0 -5,7 0,7 5,0 5,-7 0,-7z"/>
     <path class="fil8" d="M2441 124c0,-18 15,-33 33,-33 18,0 33,15 33,33 0,18 -15,33 -33,33 -18,0 -33,-15 -33,-33z"/>
     <path class="fil9" d="M2500 103c4,6 7,13 7,21 0,18 -15,33 -33,33 -10,0 -19,-5 -25,-12 0,0 25,10 40,-6 15,-15 11,-36 11,-36z"/>
     <path class="fil8" d="M921 876c0,-48 39,-87 87,-87 48,0 87,39 87,87 0,48 -39,87 -87,87 -48,0 -87,-39 -87,-87z"/>
     <path class="fil9" d="M1076 821c12,15 19,34 19,55 0,48 -39,87 -87,87 -27,0 -51,-12 -67,-31 0,0 66,25 107,-15 40,-41 28,-96 28,-96z"/>
     <g>
      <circle class="fil10" cx="638" cy="583" r="276"/>
      <path class="fil7" d="M690 661l0 52 -208 0 0 -52 208 0zm-208 -156l0 -52c104,0 208,0 313,0l-53 52c-86,0 -173,0 -260,0zm313 52c0,52 0,104 0,156l-53 0 0 -104 0 0 -260 0 0 -52c104,0 208,0 313,0z"/>
     </g>
     <rect class="fil7" x="1352" y="223" width="5.28819" height="720.664"/>
     <path class="fil5" d="M1581 901c0,8 -1,14 -3,19 -2,5 -5,9 -9,12 -3,3 -8,5 -13,6 -5,2 -11,2 -17,2 -28,0 -42,-13 -42,-39l0 -25 20 0 0 24c0,7 2,12 5,16 4,4 9,6 17,6 8,0 14,-2 17,-5 4,-3 6,-9 6,-16l0 -109 19 0 0 92 12 0c1,0 2,0 3,0 0,0 1,0 2,1 0,1 1,1 1,2 0,2 0,3 0,5 0,4 0,6 -1,7 -1,2 -3,2 -5,2l-12 0zm12 0c0,0 -1,0 -2,0 -1,0 -1,-1 -2,-1 0,-1 -1,-2 -1,-3 0,-1 -1,-2 -1,-4 0,-4 1,-6 2,-8 1,-1 2,-2 4,-2l25 0 0 -43 20 0 0 61 -45 0zm2 26c0,-3 1,-5 3,-8 2,-2 5,-3 8,-3 3,0 5,1 8,3 2,3 3,5 3,8 0,3 -1,6 -3,8 -3,2 -5,3 -8,3 -3,0 -6,-1 -8,-3 -2,-2 -3,-5 -3,-8zm25 0c0,-3 1,-5 3,-8 2,-2 5,-3 8,-3 3,0 5,1 8,3 2,3 3,5 3,8 0,3 -1,6 -3,8 -3,2 -5,3 -8,3 -3,0 -6,-1 -8,-3 -2,-2 -3,-5 -3,-8zm72 -35c0,4 0,6 -1,7 -1,2 -3,2 -5,2l-6 0c-4,0 -7,0 -10,-1 -3,-1 -5,-2 -7,-4 -3,-1 -4,-4 -5,-7 -2,-3 -2,-6 -2,-11l0 -86 20 0 0 83c0,4 0,6 2,7 1,1 3,2 5,2l3 0c1,0 2,0 2,0 1,0 2,0 2,1 1,1 1,1 2,2 0,2 0,3 0,5zm12 -8l0 -44 20 0 0 61 -38 0c-1,0 -2,0 -2,0 -1,0 -2,0 -2,-1 -1,-1 -1,-1 -2,-3 0,-1 0,-2 0,-4 0,-4 0,-6 1,-7 1,-2 3,-2 5,-2l18 0zm-3 43c0,-3 1,-6 3,-8 2,-2 5,-3 8,-3 3,0 5,1 8,3 2,2 3,5 3,8 0,2 -1,5 -3,7 -3,2 -5,3 -8,3 -3,0 -6,-1 -8,-3 -2,-2 -3,-5 -3,-7zm96 -26c-1,11 -6,19 -13,25 -8,5 -20,7 -35,7l-5 0 0 -19 4 0c5,0 9,0 13,0 4,-1 7,-2 9,-3 2,-1 4,-3 5,-4 1,-2 2,-4 2,-6l-9 0c-5,0 -9,0 -13,-1 -4,-1 -7,-3 -10,-5 -2,-3 -5,-6 -6,-9 -2,-4 -2,-8 -2,-13 0,-4 0,-8 2,-12 1,-4 3,-8 6,-11 2,-3 6,-6 10,-8 3,-2 8,-2 13,-2 6,0 10,0 14,2 4,2 7,5 9,9 3,3 4,7 5,12 1,5 2,10 2,16l0 5 11 0c1,0 2,0 2,0 1,0 2,0 2,1 1,1 1,1 2,2 0,2 0,3 0,5 0,4 0,6 -1,7 -1,2 -3,2 -5,2l-12 0zm-41 -30c0,5 1,8 3,10 2,2 5,3 9,3l10 0 0 -10c0,-4 -1,-8 -2,-12 -2,-3 -5,-5 -9,-5 -4,0 -7,2 -8,4 -2,3 -3,6 -3,10zm112 2c0,-2 -1,-3 -1,-5 0,-1 -1,-3 -2,-4 0,-1 -1,-2 -3,-3 -1,-1 -3,-1 -4,-1 -2,0 -3,0 -5,1 -1,1 -2,2 -4,3 -1,2 -2,4 -3,6 -2,3 -3,6 -3,9 2,2 5,3 7,4 2,1 5,2 7,2 4,0 6,-1 8,-4 2,-2 3,-5 3,-8zm-51 11c1,0 3,-1 5,-3 1,-2 3,-5 4,-9 3,-6 5,-11 8,-15 2,-4 5,-7 8,-9 3,-2 6,-4 8,-5 3,-1 6,-1 9,-1 4,0 8,1 11,2 4,2 7,4 9,7 3,2 5,6 6,9 1,4 2,9 2,13 0,9 -2,17 -7,22 -4,5 -11,8 -20,8 -4,0 -8,0 -13,-2 -4,-1 -8,-3 -13,-6 -2,3 -5,5 -8,5 -3,1 -6,1 -9,1l-8 0c-1,0 -2,0 -2,0 -1,0 -2,0 -2,-1 -1,-1 -1,-1 -1,-3 -1,-1 -1,-2 -1,-4 0,-4 1,-6 2,-7 0,-2 2,-2 4,-2l8 0zm258 17c-3,0 -6,0 -9,-1 -3,-1 -6,-3 -8,-7 -1,2 -2,4 -4,5 -2,1 -3,1 -5,2 -2,1 -4,1 -6,1 -3,0 -5,0 -7,0l-67 0c-6,0 -11,0 -15,-1 -4,-1 -8,-2 -10,-4 -2,-2 -4,-5 -5,-8 -1,-3 -2,-7 -2,-11l0 -25 20 0 0 22c0,2 0,4 1,5 1,1 1,2 3,3 1,1 3,1 5,1 2,1 5,1 9,1l58 0c4,0 6,-1 7,-2 2,-1 2,-4 2,-7l0 -35 20 0 0 33c0,4 1,7 3,8 1,2 5,3 10,3 0,0 1,0 2,0 1,0 1,0 2,1 0,1 1,1 1,2 0,2 0,3 0,5 0,4 0,6 -1,7 -1,2 -2,2 -4,2zm-85 48c0,-3 1,-5 3,-7 2,-3 5,-4 8,-4 3,0 5,1 7,4 2,2 3,4 3,7 0,3 -1,6 -3,8 -2,2 -4,3 -7,3 -3,0 -6,-1 -8,-3 -2,-2 -3,-5 -3,-8zm-13 -22c0,-3 1,-5 3,-8 3,-2 5,-3 8,-3 3,0 6,1 8,3 2,3 3,5 3,8 0,3 -1,6 -3,8 -2,2 -5,3 -8,3 -3,0 -5,-1 -8,-3 -2,-2 -3,-5 -3,-8zm25 0c0,-3 1,-5 3,-8 2,-2 5,-3 8,-3 3,0 6,1 8,3 2,3 3,5 3,8 0,3 -1,6 -3,8 -2,2 -5,3 -8,3 -3,0 -5,-1 -8,-3 -2,-2 -3,-5 -3,-8zm72 -26c0,0 -1,0 -2,0 -1,0 -1,-1 -2,-1 0,-1 -1,-2 -1,-3 0,-1 -1,-2 -1,-4 0,-4 1,-6 2,-8 1,-1 2,-1 5,-1l24 -1 0 -43 20 0 0 61 -45 0zm2 26c0,-3 1,-5 3,-8 3,-2 5,-3 8,-3 3,0 5,1 8,3 2,3 3,5 3,8 0,3 -1,6 -3,8 -3,2 -5,3 -8,3 -3,0 -5,-1 -8,-3 -2,-2 -3,-5 -3,-8zm25 0c0,-3 1,-5 3,-8 2,-2 5,-3 8,-3 3,0 6,1 8,3 2,3 3,5 3,8 0,3 -1,6 -3,8 -2,2 -5,3 -8,3 -3,0 -6,-1 -8,-3 -2,-2 -3,-5 -3,-8zm98 -26c-3,0 -5,0 -7,0 -2,0 -4,-1 -6,-2 -1,0 -2,-1 -4,-2 -1,-1 -3,-2 -4,-3 -3,3 -6,5 -10,6 -3,1 -7,1 -11,1l-26 0 0 -17 30 0c2,0 4,-1 5,-2 2,0 2,-1 2,-2 0,-1 0,-3 -1,-4 -1,-2 -3,-5 -6,-8l-14 -21 19 -12 18 31c2,4 4,6 5,9 2,2 3,4 4,5 1,1 2,2 3,3 1,0 2,1 3,1 1,0 2,0 3,0 1,0 1,0 2,1 0,1 1,1 1,2 0,2 0,3 0,5 0,4 0,6 -1,7 -1,2 -2,2 -5,2zm17 -87c0,-3 1,-6 3,-8 2,-2 5,-3 8,-3 3,0 5,1 7,3 2,2 3,5 3,8 0,3 -1,5 -3,7 -2,3 -4,4 -7,4 -3,0 -6,-1 -8,-4 -2,-2 -3,-4 -3,-7zm1 70l0 -44 20 0 0 61 -38 0c0,0 -1,0 -2,0 -1,0 -1,0 -2,-1 0,-1 -1,-1 -1,-3 0,-1 -1,-2 -1,-4 0,-4 1,-6 2,-7 1,-2 2,-2 4,-2l18 0zm80 17c-1,0 -3,0 -5,-1 -3,0 -5,-2 -6,-4 -1,7 -1,13 -3,18 -1,4 -4,8 -7,11 -3,3 -7,5 -11,6 -5,1 -11,2 -17,2l0 -19c4,0 7,0 10,-1 2,-1 4,-2 5,-4 1,-2 2,-4 3,-7 0,-2 0,-6 0,-9l0 -46 20 0 0 26c0,4 1,7 3,8 3,2 5,3 8,3 1,0 2,0 2,0 1,0 2,0 2,1 1,1 1,1 2,2 0,2 0,3 0,5 0,4 0,6 -1,7 -1,2 -3,2 -5,2zm6 -17c3,0 5,0 6,-1 1,0 3,0 4,0 1,-1 1,-2 2,-3 0,-1 0,-2 0,-4l0 -29 20 0 0 26c0,3 1,6 3,8 1,2 4,3 8,3 3,0 5,-1 7,-2 3,-1 4,-3 4,-6l0 -29 20 0 0 26c0,7 3,11 9,11l9 0 0 -44 20 0 0 61 -23 0c-6,0 -10,0 -13,-2 -2,-1 -5,-3 -7,-6 -1,2 -3,4 -5,5 -1,1 -3,2 -5,2 -2,1 -4,1 -5,1 -2,0 -4,0 -6,0 -5,0 -9,-1 -13,-2 -3,-2 -6,-4 -7,-6 -3,4 -7,6 -11,7 -4,1 -10,1 -17,1l-6 0c-1,0 -1,0 -2,0 -1,0 -2,0 -2,-1 -1,-1 -1,-1 -1,-3 -1,-1 -1,-2 -1,-4 0,-4 1,-6 2,-7 1,-2 2,-2 4,-2l6 0z"/>
    </g>
    <rect class="fil7" x="1574" y="883" width="43.21" height="17.81"/>
    <rect class="fil7" x="1679" y="884" width="42.34" height="17.66"/>
    <rect class="fil7" x="1794" y="884" width="22.65" height="17.66"/>
   </g>
   <polygon class="fil7" points="2099,883 2074,884 2069,900 2099,900 "/>
   <rect class="fil7" x="2294" y="884" width="7.23" height="1.98"/>
  </g>
 </g>
</svg>
