<?xml version="1.0" encoding="UTF-8"?>
<!DOCTYPE svg PUBLIC "-//W3C//DTD SVG 1.1//EN" "http://www.w3.org/Graphics/SVG/1.1/DTD/svg11.dtd">
<!-- Creator: CorelDRAW X7 -->
<svg xmlns="http://www.w3.org/2000/svg" xml:space="preserve" width="100%" height="100%" version="1.1" style="shape-rendering:geometricPrecision; text-rendering:geometricPrecision; image-rendering:optimizeQuality; fill-rule:evenodd; clip-rule:evenodd"
viewBox="0 0 95301 125765"
 xmlns:xlink="http://www.w3.org/1999/xlink">
 <defs>
  <style type="text/css">
   <![CDATA[
    .fil8 {fill:#5C56A2}
    .fil3 {fill:#8480BC}
    .fil6 {fill:#D2AE6D}
    .fil7 {fill:white}
    .fil5 {fill:#8480BC;fill-rule:nonzero}
    .fil1 {fill:#9999FF;fill-rule:nonzero}
    .fil0 {fill:#D2AE6D;fill-rule:nonzero}
    .fil2 {fill:#D2AE6D;fill-rule:nonzero}
    .fil4 {fill:#DBBB83;fill-rule:nonzero}
    .fil9 {fill:#F2D394;fill-rule:nonzero}
   ]]>
  </style>
 </defs>
 <g id="Layer_x0020_1">
  <metadata id="CorelCorpID_0Corel-Layer"/>
  <g id="_2514766391488">
   <path class="fil0" d="M79808 61605c-398,0 -398,558 0,558 399,0 399,-558 0,-558z"/>
   <path class="fil1" d="M31 121833c160,-159 399,-239 638,-79 239,79 239,398 159,557 -159,240 -398,319 -637,160 -160,-160 -239,-399 -160,-638z"/>
   <path class="fil1" d="M74208 52440c80,160 399,239 558,160 239,-160 239,-399 160,-638 -160,-239 -399,-239 -638,-159 -159,159 -239,398 -80,637z"/>
   <path class="fil1" d="M47133 91173c159,239 398,319 637,159 160,-159 239,-398 80,-637 -80,-160 -399,-239 -558,-80 -239,80 -319,399 -159,558z"/>
   <path class="fil2" d="M58609 48296c159,239 398,319 638,159 239,-159 239,-398 159,-637 -159,-160 -399,-239 -638,-80 -159,80 -239,399 -159,558z"/>
   <path class="fil2" d="M6813 53767c160,239 399,239 638,159 159,-159 239,-398 80,-638 -80,-159 -399,-239 -558,-159 -239,159 -319,399 -160,638z"/>
   <path class="fil1" d="M28643 52520c79,239 398,239 558,159 239,-159 318,-398 159,-637 -80,-160 -398,-239 -558,-160 -239,160 -319,399 -159,638z"/>
   <path class="fil2" d="M4335 76907c80,160 399,239 558,160 239,-160 239,-399 159,-638 -159,-239 -398,-239 -637,-159 -160,159 -239,398 -80,637z"/>
   <path class="fil2" d="M13717 25773c159,160 398,239 637,80 160,-80 239,-398 80,-558 -80,-239 -399,-319 -558,-159 -239,159 -319,398 -159,637z"/>
   <path class="fil2" d="M50400 58099c160,159 399,239 638,159 239,-159 239,-398 159,-637 -159,-240 -398,-240 -637,-160 -160,160 -240,399 -160,638z"/>
   <path class="fil1" d="M14377 64475c159,159 398,239 638,159 159,-159 239,-399 79,-638 -79,-239 -398,-239 -558,-159 -239,159 -239,398 -159,638z"/>
   <path class="fil2" d="M33026 49332c160,239 399,239 638,159 159,-159 239,-398 79,-637 -79,-160 -398,-239 -557,-160 -240,160 -240,399 -160,638z"/>
   <path class="fil1" d="M87061 96593c-160,239 -399,318 -638,159 -239,-80 -239,-399 -159,-558 159,-239 398,-319 637,-159 160,79 240,398 160,558z"/>
   <path class="fil2" d="M95270 73401c-160,159 -399,239 -638,79 -159,-79 -239,-398 -159,-558 159,-239 398,-318 637,-159 160,159 239,399 160,638z"/>
   <path class="fil2" d="M15891 123746c-80,239 -319,239 -558,159 -239,-159 -239,-398 -159,-637 159,-160 398,-239 637,-160 160,160 240,399 80,638z"/>
   <path class="fil2" d="M81881 118748c-80,239 -399,239 -558,160 -239,-160 -319,-399 -160,-638 80,-159 399,-239 558,-80 239,80 319,399 160,558z"/>
   <path class="fil2" d="M90089 106873c-159,240 -398,240 -637,160 -160,-160 -239,-399 -80,-638 80,-159 399,-239 558,-159 239,159 319,398 159,637z"/>
   <path class="fil2" d="M93676 125523c-160,239 -399,318 -638,159 -159,-80 -239,-398 -80,-558 80,-239 399,-319 558,-159 239,79 239,398 160,558z"/>
   <g>
    <path class="fil3" d="M20288 72508c478,-2311 2710,-5340 7412,-5340 4622,0 6774,3268 7252,5340l-14664 0zm1355 -7173l956 -478 957 2072c1115,-478 2470,-797 4064,-797 1674,0 2949,319 3985,877l1036 -2152 877 478 -1036 2152c637,399 1036,797 1434,1116 1435,1514 2073,3268 2152,4383l80 558 -17055 0 0 -558c159,-1753 1275,-4064 3586,-5499l-1036 -2151 0 -1zm7571 5021c0,558 478,1036 1036,1036 558,0 1036,-478 1036,-1036 0,-558 -478,-1036 -1036,-1036 -558,0 -1036,478 -1036,1036zm-5340 0c0,558 479,1036 1036,1036 638,0 1116,-478 1116,-1036 0,-558 -478,-1036 -1116,-1036 -557,0 -1036,478 -1036,1036zm-3666 5340l14824 0 0 13230 -2152 0 0 5818c0,637 -478,1116 -1036,1116 -558,0 -1036,-479 -1036,-1116l0 -5818 -6376 0 0 5818c0,637 -478,1116 -1036,1116 -638,0 -1116,-479 -1116,-1116l0 -5818 -2072 0 0 -13230 0 0zm-1116 -1116l0 15382 2152 0 0 4782c0,1195 957,2151 2152,2151 1116,0 2072,-956 2072,-2151l0 -4782 4224 0 0 4782c0,1195 957,2151 2152,2151 1195,0 2152,-956 2152,-2151l0 -4782 2072 0 0 -15382 -16976 0 0 0zm-3666 1116c877,0 1594,638 1594,1594l0 7412c0,876 -717,1594 -1594,1594 -956,0 -1593,-718 -1593,-1594l0 -7412c0,-956 637,-1594 1593,-1594zm-2709 1594l0 7412c0,1514 1195,2630 2709,2630 1435,0 2630,-1116 2630,-2630l0 -7412c0,-1514 -1195,-2710 -2630,-2710 -1514,0 -2709,1196 -2709,2710zm27097 -1594c876,0 1594,638 1594,1594l0 7412c0,876 -718,1594 -1594,1594 -877,0 -1594,-718 -1594,-1594l0 -7412c0,-956 717,-1594 1594,-1594zm-2630 1594l0 7412c0,1514 1116,2630 2630,2630 1514,0 2630,-1116 2630,-2630l0 -7412c0,-1514 -1116,-2710 -2630,-2710 -1514,0 -2630,1196 -2630,2710z"/>
    <path class="fil3" d="M80512 86296c-478,-717 -877,-1435 -1116,-2232 -239,-797 -398,-1673 -398,-2550 0,-797 159,-1594 398,-2311 239,-717 558,-1435 1036,-2152 240,-319 558,-717 957,-1116 159,-239 398,-398 558,-558l-239 -239c-319,-319 -558,-558 -877,-717 -478,-399 -1036,-638 -1594,-797 -558,-159 -1116,-239 -1753,-239 -399,0 -877,0 -1355,80 -478,159 -1036,318 -1594,478 -638,239 -1196,398 -1674,478 -558,159 -956,239 -1355,239 -239,0 -637,-80 -1195,-159 -399,-160 -956,-239 -1674,-479l0 0c-637,-159 -1195,-318 -1673,-398 -478,-80 -957,-80 -1355,-80 -877,0 -1753,160 -2471,558 -797,319 -1434,957 -2072,1753 -637,797 -1116,1674 -1355,2790 -398,1036 -558,2231 -558,3586 0,1435 239,2869 718,4304 398,1514 1036,3028 1912,4622 877,1515 1754,2630 2630,3348 718,637 1435,956 2152,956 239,0 558,0 877,-80 319,-79 717,-239 1195,-478l0 0c558,-239 1116,-398 1594,-478l0 0c558,-159 1036,-239 1514,-239 399,0 957,80 1515,239 478,80 1036,239 1594,478 557,160 1036,319 1434,399 319,79 638,159 877,159 558,0 1195,-239 1753,-717 717,-558 1514,-1435 2232,-2551l0 0c478,-717 956,-1514 1275,-2231l0 0c239,-399 398,-877 637,-1355 -398,-159 -637,-319 -956,-558 -558,-478 -1116,-1036 -1594,-1753l0 0zm-6296 -15780c399,-399 638,-718 956,-1116 240,-399 399,-717 558,-1116 160,-398 319,-797 399,-1195 0,-160 80,-319 80,-479 -558,160 -957,399 -1355,638 -718,399 -1196,877 -1594,1435l0 0c-399,558 -718,1195 -957,1912 -79,319 -159,718 -239,1116 239,0 399,-80 558,-80 239,-79 478,-239 797,-398 239,-239 558,-478 797,-717l0 0 0 0zm717 717c797,-797 1355,-1674 1754,-2630 398,-877 558,-1753 558,-2550l0 -160c0,-79 0,-159 0,-159 0,-80 -80,-159 -80,-239 0,-80 0,-160 0,-239 -2232,558 -3826,1434 -4702,2789 -957,1355 -1435,2949 -1514,4862 876,-80 1514,-239 1992,-319 638,-239 1355,-717 1992,-1355l0 0zm6376 14505c-877,-1275 -1275,-2630 -1275,-4224 0,-1355 398,-2710 1195,-3826 479,-637 1196,-1434 2152,-2231 -637,-797 -1275,-1435 -1912,-1913 -1196,-797 -2551,-1195 -3985,-1195 -957,0 -1993,239 -3268,637 -1275,399 -2152,638 -2710,638 -398,0 -1275,-159 -2550,-558 -1355,-398 -2471,-558 -3347,-558 -2152,0 -3905,877 -5340,2710 -1355,1833 -2072,4144 -2072,7013 0,3029 877,6137 2710,9405 1912,3267 3745,4861 5658,4861 638,0 1435,-239 2471,-638 1036,-398 1912,-637 2709,-637 797,0 1754,239 2790,637 1116,399 1992,558 2630,558 1594,0 3188,-1195 4782,-3666 1115,-1514 1833,-3108 2311,-4702 -1116,-319 -2072,-1116 -2949,-2311l0 0z"/>
   </g>
   <path class="fil0" d="M79808 61605c-398,0 -398,558 0,558 399,0 399,-558 0,-558z"/>
   <path class="fil4" d="M7618 45031c0,-1435 1196,-2630 2630,-2630 1435,0 2630,1195 2630,2630 0,1434 -1195,2630 -2630,2630 -1435,0 -2630,-1196 -2630,-2630z"/>
   <path class="fil0" d="M12320 43357c319,478 558,1036 558,1674 0,1434 -1195,2630 -2630,2630 -797,0 -1514,-399 -1992,-957 0,0 1992,797 3188,-478 1195,-1196 876,-2869 876,-2869l0 0z"/>
   <path class="fil5" d="M67077 13535c-159,-240 -398,-319 -637,-160 -160,160 -239,399 -160,638 160,159 399,239 638,79 159,-79 239,-398 159,-557z"/>
   <g>
    <circle class="fil6" cx="70023" cy="21996" r="21996"/>
    <path class="fil7" d="M74168 28213l0 4144 -16577 0 0 -4144 16577 0zm-16577 -12433l0 -4144c8288,0 16577,0 24945,0l-4224 4144c-6854,0 -13788,0 -20721,0zm24945 4144c0,4145 0,8289 0,12433l-4224 0 0 -8288 0 0 -20721 0 0 -4145c8288,0 16577,0 24945,0z"/>
   </g>
   <rect class="fil8" x="350" y="58019" width="422" height="57435"/>
   <path class="fil5" d="M18601 112054c0,637 -80,1116 -239,1514 -160,398 -399,717 -718,956 -239,239 -637,399 -1036,479 -398,159 -876,159 -1355,159 -2231,0 -3347,-1036 -3347,-3108l0 -1993 1594 0 0 1913c0,558 159,956 399,1275 318,319 717,478 1354,478 638,0 1116,-159 1355,-398 319,-239 479,-717 479,-1275l0 -8687 1514 0 0 7332 956 0c80,0 160,0 239,0 0,0 80,0 160,80 0,79 79,79 79,159 0,159 0,239 0,399 0,318 0,478 -79,557 -80,160 -239,160 -399,160l-956 0 0 0zm956 0c0,0 -79,0 -159,0 -80,0 -80,-80 -160,-80 0,-80 -79,-159 -79,-239 0,-80 -80,-159 -80,-319 0,-319 80,-478 159,-637 80,-80 160,-160 319,-160l1993 0 0 -3427 1594 0 0 4862 -3587 0 0 0zm160 2072c0,-239 79,-399 239,-638 159,-159 398,-239 637,-239 239,0 399,80 638,239 159,239 239,399 239,638 0,239 -80,478 -239,638 -239,159 -399,239 -638,239 -239,0 -478,-80 -637,-239 -160,-160 -239,-399 -239,-638zm1992 0c0,-239 80,-399 239,-638 160,-159 399,-239 638,-239 239,0 398,80 637,239 160,239 239,399 239,638 0,239 -79,478 -239,638 -239,159 -398,239 -637,239 -239,0 -478,-80 -638,-239 -159,-160 -239,-399 -239,-638zm5738 -2789c0,318 0,478 -79,557 -80,160 -240,160 -399,160l-478 0c-319,0 -558,0 -797,-80 -239,-80 -399,-159 -558,-319 -239,-79 -319,-318 -399,-558 -159,-239 -159,-478 -159,-876l0 -6854 1594 0 0 6615c0,318 0,478 159,558 80,79 239,159 399,159l239 0c80,0 159,0 159,0 80,0 160,0 160,80 79,79 79,79 159,159 0,159 0,239 0,399l0 0zm957 -638l0 -3507 1594 0 0 4862 -3029 0c-80,0 -159,0 -159,0 -80,0 -160,0 -160,-80 -79,-80 -79,-80 -159,-239 0,-80 0,-159 0,-319 0,-319 0,-478 80,-558 79,-159 239,-159 398,-159l1435 0 0 0zm-239 3427c0,-239 79,-478 239,-638 159,-159 398,-239 637,-239 239,0 399,80 638,239 159,160 239,399 239,638 0,159 -80,398 -239,558 -239,159 -399,239 -638,239 -239,0 -478,-80 -637,-239 -160,-160 -239,-399 -239,-558zm7651 -2072c-80,876 -479,1514 -1037,1992 -637,399 -1593,558 -2789,558l-398 0 0 -1514 318 0c399,0 718,0 1036,0 319,-80 558,-160 718,-239 159,-80 319,-239 398,-319 80,-159 160,-319 160,-478l-718 0c-398,0 -717,0 -1036,-80 -319,-80 -558,-239 -797,-398 -159,-240 -398,-479 -478,-718 -159,-319 -159,-637 -159,-1036 0,-319 0,-637 159,-956 80,-319 239,-638 478,-877 160,-239 478,-478 797,-638 239,-159 638,-159 1036,-159 479,0 797,0 1116,159 319,160 558,399 717,718 240,239 319,558 399,956 80,399 159,797 159,1275l0 399 877 0c80,0 159,0 159,0 80,0 160,0 160,80 80,79 80,79 159,159 0,159 0,239 0,398 0,319 0,479 -79,558 -80,160 -240,160 -399,160l-956 0 0 0zm-3268 -2391c0,398 80,637 239,797 159,159 399,239 717,239l797 0 0 -797c0,-319 -79,-638 -159,-956 -159,-240 -399,-399 -717,-399 -319,0 -558,159 -638,319 -159,239 -239,478 -239,797zm8926 159c0,-159 -80,-239 -80,-398 0,-80 -79,-239 -159,-319 0,-80 -80,-159 -239,-239 -80,-80 -239,-80 -319,-80 -159,0 -239,0 -398,80 -80,80 -160,159 -319,239 -80,159 -160,319 -239,478 -160,239 -239,478 -239,717 159,160 398,240 557,319 160,80 399,160 558,160 319,0 479,-80 638,-319 159,-160 239,-399 239,-638zm-4065 877c80,0 240,-80 399,-239 80,-160 239,-399 319,-717 239,-479 398,-877 637,-1196 160,-319 399,-558 638,-717 239,-160 478,-319 638,-399 239,-79 478,-79 717,-79 319,0 637,79 877,159 318,159 557,319 717,558 239,159 398,478 478,717 80,319 159,717 159,1036 0,718 -159,1355 -557,1754 -319,398 -877,637 -1594,637 -319,0 -638,0 -1036,-159 -319,-80 -638,-239 -1037,-478 -159,239 -398,398 -637,398 -239,80 -478,80 -717,80l-638 0c-80,0 -159,0 -159,0 -80,0 -160,0 -160,-80 -80,-80 -80,-80 -80,-239 -79,-80 -79,-159 -79,-319 0,-319 79,-478 159,-558 0,-159 160,-159 319,-159l638 0 -1 0zm20562 1355c-239,0 -478,0 -717,-80 -239,-80 -478,-239 -638,-558 -79,160 -159,319 -318,399 -160,79 -239,79 -399,159 -159,80 -319,80 -478,80 -239,0 -399,0 -558,0l-5340 0c-478,0 -876,0 -1195,-80 -319,-80 -638,-159 -797,-319 -160,-159 -319,-398 -399,-637 -79,-239 -159,-558 -159,-877l0 -1992 1594 0 0 1753c0,159 0,319 80,398 79,80 79,160 239,239 79,80 239,80 398,80 160,80 399,80 717,80l4623 0c319,0 478,-80 558,-160 159,-79 159,-318 159,-557l0 -2790 1594 0 0 2630c0,319 80,558 239,638 80,159 399,239 797,239 0,0 80,0 160,0 79,0 79,0 159,80 0,79 80,79 80,159 0,159 0,239 0,398 0,319 0,479 -80,558 -80,160 -159,160 -319,160l0 0zm-6774 3825c0,-239 80,-398 239,-558 160,-239 399,-318 638,-318 239,0 398,79 558,318 159,160 239,319 239,558 0,239 -80,478 -239,638 -160,159 -319,239 -558,239 -239,0 -478,-80 -638,-239 -159,-160 -239,-399 -239,-638zm-1036 -1753c0,-239 80,-399 239,-638 239,-159 399,-239 638,-239 239,0 478,80 637,239 160,239 239,399 239,638 0,239 -79,478 -239,638 -159,159 -398,239 -637,239 -239,0 -399,-80 -638,-239 -159,-160 -239,-399 -239,-638zm1992 0c0,-239 80,-399 240,-638 159,-159 398,-239 637,-239 239,0 478,80 638,239 159,239 239,399 239,638 0,239 -80,478 -239,638 -160,159 -399,239 -638,239 -239,0 -398,-80 -637,-239 -160,-160 -240,-399 -240,-638zm5739 -2072c0,0 -80,0 -160,0 -79,0 -79,-80 -159,-80 0,-80 -80,-159 -80,-239 0,-80 -80,-159 -80,-319 0,-319 80,-478 160,-637 80,-80 159,-80 398,-80l1913 -80 0 -3427 1594 0 0 4862 -3586 0 0 0zm159 2072c0,-239 80,-399 239,-638 239,-159 399,-239 638,-239 239,0 398,80 637,239 160,239 239,399 239,638 0,239 -79,478 -239,638 -239,159 -398,239 -637,239 -239,0 -399,-80 -638,-239 -159,-160 -239,-399 -239,-638zm1992 0c0,-239 80,-399 240,-638 159,-159 398,-239 637,-239 239,0 478,80 638,239 159,239 239,399 239,638 0,239 -80,478 -239,638 -160,159 -399,239 -638,239 -239,0 -478,-80 -637,-239 -160,-160 -240,-399 -240,-638zm7811 -2072c-239,0 -399,0 -558,0 -159,0 -319,-80 -478,-160 -80,0 -160,-79 -319,-159 -80,-80 -239,-159 -319,-239 -239,239 -478,398 -797,478 -239,80 -558,80 -877,80l-2072 0 0 -1355 2391 0c160,0 319,-80 399,-160 159,0 159,-79 159,-159 0,-80 0,-239 -80,-319 -79,-159 -239,-398 -478,-637l-1116 -1674 1515 -956 1434 2470c160,319 319,478 399,718 159,159 239,318 319,398 79,80 159,159 239,239 79,0 159,80 239,80 79,0 159,0 239,0 80,0 80,0 159,80 0,79 80,79 80,159 0,159 0,239 0,398 0,319 0,479 -80,558 -79,160 -159,160 -398,160l0 0zm1355 -6934c0,-239 79,-478 239,-637 159,-160 398,-240 637,-240 239,0 399,80 558,240 160,159 239,398 239,637 0,239 -79,399 -239,558 -159,239 -319,319 -558,319 -239,0 -478,-80 -637,-319 -160,-159 -239,-319 -239,-558zm79 5579l0 -3507 1594 0 0 4862 -3028 0c0,0 -80,0 -160,0 -79,0 -79,0 -159,-80 0,-80 -80,-80 -80,-239 0,-80 -79,-159 -79,-319 0,-319 79,-478 159,-558 80,-159 159,-159 319,-159l1434 0 0 0zm6376 1355c-80,0 -239,0 -398,-80 -239,0 -399,-159 -479,-319 -79,558 -79,1036 -239,1435 -79,319 -318,637 -558,877 -239,239 -557,398 -876,478 -399,79 -877,159 -1355,159l0 -1514c319,0 558,0 797,-80 159,-79 319,-159 398,-319 80,-159 160,-318 239,-557 0,-160 0,-479 0,-718l0 -3666 1594 0 0 2072c0,319 80,558 239,638 240,159 399,239 638,239 80,0 159,0 159,0 80,0 160,0 160,80 80,79 80,79 159,159 0,159 0,239 0,399 0,318 0,478 -79,557 -80,160 -240,160 -399,160l0 0zm478 -1355c239,0 399,0 479,-80 79,0 239,0 318,0 80,-79 80,-159 160,-239 0,-80 0,-159 0,-319l0 -2311 1594 0 0 2072c0,239 79,478 239,638 79,159 319,239 637,239 239,0 399,-80 558,-159 239,-80 319,-240 319,-479l0 -2311 1594 0 0 2072c0,558 239,877 717,877l718 0 0 -3507 1593 0 0 4862 -1833 0c-478,0 -797,0 -1036,-160 -159,-79 -398,-239 -558,-478 -79,160 -239,319 -398,399 -80,79 -239,159 -399,159 -159,80 -318,80 -398,80 -159,0 -319,0 -478,0 -399,0 -718,-80 -1036,-160 -239,-159 -479,-318 -558,-478 -239,319 -558,478 -877,558 -319,80 -797,80 -1355,80l-478 0c-80,0 -80,0 -159,0 -80,0 -160,0 -160,-80 -80,-80 -80,-80 -80,-239 -79,-80 -79,-159 -79,-319 0,-319 79,-478 159,-558 80,-159 160,-159 319,-159l478 0 0 0z"/>
   <rect class="fil3" x="18043" y="110619" width="3444" height="1419"/>
   <rect class="fil3" x="26411" y="110699" width="3374" height="1408"/>
   <rect class="fil3" x="35576" y="110699" width="1805" height="1408"/>
   <polygon class="fil3" points="59884,110619 57892,110699 57493,111974 59884,111974 "/>
   <rect class="fil3" x="75425" y="109799" width="576" height="158"/>
   <path class="fil9" d="M41964 32494c-1913,0 -3348,-1594 -3348,-3427l-79 0c0,1833 -1515,3427 -3348,3427 1833,79 3348,1594 3348,3506l0 0c79,-1912 1514,-3427 3427,-3506z"/>
   <path class="fil2" d="M93224 45670c159,159 398,239 637,159 240,-159 240,-398 160,-637 -160,-240 -399,-240 -638,-160 -159,160 -239,399 -159,638z"/>
   <path class="fil1" d="M68143 123376c-957,0 -1674,-797 -1674,-1713l-40 0c0,916 -757,1713 -1674,1713 917,40 1674,797 1674,1754l0 0c40,-957 757,-1714 1714,-1754z"/>
  </g>
 </g>
</svg>
