<?xml version="1.0" encoding="UTF-8"?>
<!DOCTYPE svg PUBLIC "-//W3C//DTD SVG 1.1//EN" "http://www.w3.org/Graphics/SVG/1.1/DTD/svg11.dtd">
<!-- Creator: CorelDRAW X7 -->
<svg xmlns="http://www.w3.org/2000/svg" xml:space="preserve" width="100%" height="100%" version="1.1" style="shape-rendering:geometricPrecision; text-rendering:geometricPrecision; image-rendering:optimizeQuality; fill-rule:evenodd; clip-rule:evenodd"
viewBox="0 0 1786 686"
 xmlns:xlink="http://www.w3.org/1999/xlink">
 <defs>
  <style type="text/css">
   <![CDATA[
    .fil6 {fill:none;fill-rule:nonzero}
    .fil4 {fill:#B5E4FA;fill-rule:nonzero}
    .fil5 {fill:#8480BC;fill-rule:nonzero}
    .fil9 {fill:#132345;fill-rule:nonzero}
    .fil0 {fill:#62C4F3;fill-rule:nonzero}
    .fil7 {fill:#9999FF;fill-rule:nonzero}
    .fil2 {fill:#D2AE6D;fill-rule:nonzero}
    .fil8 {fill:#DFB990;fill-rule:nonzero}
    .fil3 {fill:#F9BF30;fill-rule:nonzero}
    .fil1 {fill:white;fill-rule:nonzero}
   ]]>
  </style>
 </defs>
 <g id="Layer_x0020_1">
  <metadata id="CorelCorpID_0Corel-Layer"/>
  <g id="_2098955207600">
   <path class="fil0" d="M10 422c0,-15 12,-27 27,-27 16,0 28,12 28,27 0,16 -12,28 -28,28 -15,0 -27,-12 -27,-28z"/>
   <path class="fil0" d="M10 573c0,-16 12,-28 27,-28 16,0 28,12 28,28 0,15 -12,28 -28,28 -15,0 -27,-13 -27,-28z"/>
   <polygon class="fil0" points="646,457 454,457 454,577 626,577 "/>
   <polygon class="fil1" points="646,457 639,499 454,499 454,457 "/>
   <path class="fil2" d="M1712 109c0,17 -14,31 -32,31l0 -63c18,0 32,14 32,32z"/>
   <path class="fil3" d="M1436 149l75 0 0 -81 -75 0c-22,0 -41,18 -41,41 0,22 19,40 41,40z"/>
   <path class="fil1" d="M1289 501l12 76 3 25 27 0c100,0 181,-82 181,-181l0 -84 -100 0 0 84c0,44 -36,80 -81,80l-42 0z"/>
   <path class="fil4" d="M1289 501l12 76 5 0c100,0 181,-82 181,-182l0 -58 -75 0 0 84c0,44 -36,80 -81,80l-42 0z"/>
   <path class="fil4" d="M806 167l0 445 316 0 0 -445c0,-19 -16,-34 -34,-34l-248 0c-18,0 -34,15 -34,34z"/>
   <path class="fil1" d="M806 167l0 19 316 0 0 -19c0,-19 -16,-34 -34,-34l-248 0c-18,0 -34,15 -34,34z"/>
   <path class="fil5" d="M657 480l0 -52 32 -5c1,-5 3,-10 6,-15l-19 -26 37 -37 26 19c5,-2 10,-4 15,-6l5 -32 26 0 0 59c-38,0 -69,31 -69,69 0,39 31,70 69,70l0 58 -26 0 -5 -32c-5,-1 -10,-3 -15,-6l-26 19 -37 -37 19 -26c-3,-5 -5,-9 -6,-14l-32 -6z"/>
   <path class="fil5" d="M180 239c0,18 8,34 19,46 12,11 28,18 46,18 17,1 33,-7 45,-18 12,-12 19,-28 19,-46 0,-8 -2,-17 -5,-25 -4,-8 -9,-15 -15,-21l0 0c-6,-5 -13,-10 -20,-13 -8,-3 -16,-5 -24,-5 -9,0 -17,2 -24,5 -8,3 -15,7 -21,13 -6,6 -11,13 -14,21 -4,8 -6,16 -6,25zm14 51c-13,-13 -21,-31 -21,-51 0,-10 2,-19 6,-28 3,-9 9,-17 16,-23 6,-7 14,-12 23,-15 8,-3 17,-5 27,-5 9,0 18,2 27,5 8,3 16,9 22,15l0 0c7,7 13,15 17,23 3,9 5,18 5,28 0,20 -8,38 -21,51 -13,13 -31,21 -50,21 -20,0 -38,-8 -51,-21z"/>
   <path class="fil5" d="M203 190c5,5 11,9 18,11 7,3 15,5 24,5 8,0 16,-2 24,-5 6,-2 12,-6 17,-10 -5,-5 -11,-9 -17,-11 -8,-3 -16,-5 -24,-5 -9,0 -17,2 -24,5 -7,2 -13,6 -18,10zm15 18c-9,-3 -16,-8 -23,-15l0 0c-2,-1 -2,-4 0,-5 6,-7 14,-12 23,-15 8,-3 17,-5 27,-5 9,0 18,2 27,5 8,3 16,8 22,15l1 0c1,1 1,4 -1,5 -6,7 -14,12 -23,15 -8,4 -17,5 -26,5 -10,0 -19,-2 -27,-5z"/>
   <path class="fil5" d="M286 288c-5,-4 -11,-8 -17,-10 -8,-3 -16,-5 -24,-5 -9,0 -17,1 -24,4 -7,3 -13,7 -18,11 5,5 11,8 18,11 7,3 15,4 24,4 8,0 16,-1 24,-4 6,-3 12,-6 17,-11zm-15 -17c9,3 17,8 23,14l0 1c2,1 2,3 0,5 -6,6 -14,11 -23,15 -8,3 -17,5 -26,5 -10,0 -19,-2 -27,-5 -9,-4 -17,-9 -23,-15l0 0c-2,-2 -2,-4 0,-6 6,-6 14,-11 23,-15 8,-3 17,-5 27,-5 9,0 18,2 26,6z"/>
   <path class="fil5" d="M214 239c0,-19 3,-36 8,-49 6,-14 14,-22 23,-22l0 0 0 0c9,0 17,8 22,22 5,13 8,30 8,49l0 0c0,0 0,0 0,0 0,20 -3,37 -8,50 -5,13 -13,22 -22,22l0 0 0 0c-10,0 -18,-9 -23,-22 -5,-13 -8,-30 -8,-50zm15 -46c-5,12 -8,28 -8,46 0,19 3,35 8,47 4,11 10,17 16,17l0 0 0 0c5,0 11,-6 15,-17 5,-12 8,-28 8,-47 0,0 0,0 0,0l0 0c0,-18 -3,-34 -8,-46 -4,-11 -10,-18 -15,-18l0 0 0 0c-6,0 -12,7 -16,18z"/>
   <path class="fil5" d="M312 236c3,0 4,1 4,3 0,2 -1,4 -4,4l-135 0c-2,0 -4,-2 -4,-4 0,-2 2,-3 4,-3l135 0z"/>
   <path class="fil5" d="M441 348l85 0c3,0 6,-1 8,-3l0 0c2,-2 3,-5 3,-8l0 -60c0,-3 -1,-6 -3,-8 -2,-2 -5,-3 -8,-3l-85 0c-3,0 -6,1 -8,3 -2,2 -3,5 -3,8l0 60c0,3 1,6 3,8 2,2 5,3 8,3zm85 8l-85 0c-5,0 -10,-2 -13,-6l0 0c-3,-3 -5,-8 -5,-13l0 -60c0,-5 2,-9 5,-13l0 0c3,-3 8,-5 13,-5l85 0c5,0 10,2 13,5l0 0c4,4 6,8 6,13l0 60c0,5 -2,10 -6,13l0 0c-3,4 -8,6 -13,6z"/>
   <path class="fil2" d="M503 307l0 -17c0,-3 -4,-6 -7,-4l-15 8 -14 9c-4,2 -4,7 0,9l14 8 15 8c3,2 7,0 7,-4l0 -17z"/>
   <path class="fil1" d="M1010 529c3,0 5,3 5,5 0,3 -2,5 -5,5l-82 0c-3,0 -5,-2 -5,-5 0,-2 2,-5 5,-5l82 0z"/>
   <path class="fil1" d="M1010 554c3,0 5,3 5,5 0,3 -2,5 -5,5l-53 0c-3,0 -5,-2 -5,-5 0,-2 2,-5 5,-5l53 0z"/>
   <path class="fil1" d="M941 554c2,0 5,3 5,5 0,3 -3,5 -5,5l-13 0c-3,0 -5,-2 -5,-5 0,-2 2,-5 5,-5l13 0z"/>
   <path class="fil5" d="M380 369c0,2 -2,3 -4,3 -2,0 -3,-1 -3,-3l0 -15c0,-3 1,-4 3,-4 2,0 4,1 4,4l0 15z"/>
   <path class="fil5" d="M380 325c0,2 -2,3 -4,3 -2,0 -3,-1 -3,-3l0 -30c0,-3 1,-4 3,-4 2,0 4,1 4,4l0 30zm-7 -91c0,-2 1,-3 3,-3 2,0 4,1 4,3l0 30c0,3 -2,4 -4,4 -2,0 -3,-1 -3,-4l0 -30z"/>
   <path class="fil5" d="M380 209c0,2 -2,4 -4,4 -2,0 -3,-2 -3,-4l0 -15c0,-2 1,-4 3,-4l15 0c2,0 4,2 4,4 0,2 -2,4 -4,4l-11 0 0 11z"/>
   <path class="fil5" d="M413 198c-2,0 -4,-2 -4,-4 0,-2 2,-4 4,-4l24 0c2,0 4,2 4,4 0,2 -2,4 -4,4l-24 0z"/>
   <path class="fil5" d="M457 198c-2,0 -4,-2 -4,-4 0,-2 2,-4 4,-4l15 0c2,0 3,2 3,4 0,2 -1,4 -3,4l-15 0z"/>
   <path class="fil5" d="M496 194c0,-7 -5,-12 -12,-12 -7,0 -13,5 -13,12 0,7 6,12 13,12 7,0 12,-5 12,-12z"/>
   <path class="fil5" d="M389 378c0,-7 -6,-13 -13,-13 -7,0 -12,6 -12,13 0,7 5,12 12,12 7,0 13,-5 13,-12z"/>
   <path class="fil5" d="M1363 403c0,-7 6,-13 13,-13 7,0 12,6 12,13 0,7 -5,12 -12,12 -7,0 -13,-5 -13,-12z"/>
   <path class="fil5" d="M1098 406c-2,0 -4,-1 -4,-3 0,-2 2,-4 4,-4l30 0c2,0 4,2 4,4 0,2 -2,3 -4,3l-30 0zm270 -7c2,0 4,2 4,4 0,2 -2,3 -4,3l-30 0c-2,0 -4,-1 -4,-3 0,-2 2,-4 4,-4l30 0zm-60 0c2,0 4,2 4,4 0,2 -2,3 -4,3l-30 0c-2,0 -4,-1 -4,-3 0,-2 2,-4 4,-4l30 0zm-60 0c2,0 4,2 4,4 0,2 -2,3 -4,3l-30 0c-2,0 -4,-1 -4,-3 0,-2 2,-4 4,-4l30 0zm-60 0c2,0 4,2 4,4 0,2 -2,3 -4,3l-30 0c-2,0 -4,-1 -4,-3 0,-2 2,-4 4,-4l30 0z"/>
   <path class="fil5" d="M1207 72c-18,0 -35,7 -47,19 -12,12 -19,28 -19,47 0,13 4,26 11,36 8,11 18,20 31,25 2,0 2,2 2,4 0,1 0,1 0,1 -3,4 -6,9 -9,13 -1,0 -2,1 -2,2 4,-2 8,-3 11,-5 6,-3 11,-6 15,-10 1,-1 2,-1 3,-1l2 0 2 0c18,0 34,-7 46,-19 12,-12 19,-28 19,-46 0,-19 -7,-35 -19,-47 -12,-12 -28,-19 -46,-19zm-52 14c13,-13 31,-21 52,-21 20,0 38,8 51,21 14,13 22,31 22,52 0,20 -8,38 -22,51 -13,13 -31,22 -51,22 -1,0 -2,0 -3,0l0 0c-4,4 -10,7 -15,10 -6,3 -13,5 -20,6 -1,1 -3,1 -4,1 -1,0 -2,0 -3,0 -1,1 -3,0 -4,-1 -1,-2 -1,-4 1,-5 4,-3 8,-7 11,-10 2,-3 4,-6 6,-8 -12,-6 -22,-15 -30,-25 -8,-12 -12,-26 -12,-41 0,-21 8,-39 21,-52z"/>
   <path class="fil2" d="M908 660l119 0c12,0 22,-10 22,-23l-163 0c0,13 10,23 22,23z"/>
   <path class="fil5" d="M669 329c-1,2 -2,3 -4,3 -3,0 -4,-2 -4,-4l5 -32c1,-8 6,-15 11,-20 6,-5 14,-8 22,-8l107 0c2,0 4,1 4,3 0,2 -2,4 -4,4l-107 0c-6,0 -12,2 -17,6 -4,4 -7,10 -8,16l-5 32z"/>
   <path class="fil5" d="M1274 423c-1,-2 1,-4 3,-4 2,0 4,1 4,3l32 215c1,2 -1,3 -3,4 0,0 0,0 0,0l-692 0c-2,0 -3,-2 -3,-4 0,0 0,0 0,-1l31 -207c0,-2 2,-3 4,-3 2,0 4,2 3,4l-30 203 682 0 -31 -210z"/>
   <path class="fil5" d="M1122 275c-2,0 -4,-2 -4,-4 0,-2 2,-3 4,-3l107 0c8,0 16,3 22,8 5,5 10,12 11,20l13 86c0,2 -1,4 -3,4 -2,1 -4,-1 -5,-3l-13 -86c-1,-6 -4,-12 -8,-16 -5,-4 -11,-6 -17,-6l-107 0z"/>
   <path class="fil5" d="M577 678l774 0c11,0 22,-4 29,-12 7,-6 11,-15 12,-25l-856 0c1,10 5,19 12,25 7,8 18,12 29,12zm774 8l-774 0c-13,0 -26,-6 -35,-14 -8,-9 -14,-21 -14,-35 0,-2 2,-4 4,-4l864 0c2,0 4,2 4,4 0,14 -6,26 -14,35 -9,8 -22,14 -35,14z"/>
   <path class="fil5" d="M691 347c0,2 -2,3 -4,3 -2,0 -3,-2 -3,-4l3 -25c2,-8 6,-15 12,-20 6,-5 13,-8 22,-8l85 0c2,0 4,1 4,3 0,3 -2,4 -4,4l-85 0c-7,0 -13,3 -17,6 -5,4 -8,10 -9,16l-4 25z"/>
   <path class="fil5" d="M1248 423c0,-2 2,-4 4,-4 2,0 4,1 4,3l23 155c1,2 1,4 1,5 0,9 -3,16 -8,22 -5,6 -13,10 -21,11 -1,1 -3,1 -5,1l-564 0c-2,0 -4,0 -5,-1 -8,-1 -16,-5 -21,-11 -5,-6 -8,-13 -8,-22 0,-1 0,-3 1,-5l11 -78c0,-2 2,-4 4,-3 2,0 4,2 3,4l-11 78c0,2 0,3 0,4 0,7 2,13 6,17 4,5 10,8 16,9 1,0 2,0 4,0l564 0c2,0 3,0 4,0 6,-1 12,-4 16,-9 4,-4 6,-10 6,-17 0,-1 0,-2 0,-4l-24 -155z"/>
   <path class="fil5" d="M1122 300c-2,0 -4,-1 -4,-4 0,-2 2,-3 4,-3l85 0c9,0 16,3 22,8 6,5 10,12 12,20l9 61c0,2 -1,4 -3,4 -2,1 -4,-1 -5,-3l-9 -61c-1,-6 -4,-12 -9,-16 -4,-3 -10,-6 -17,-6l-85 0z"/>
   <path class="fil6" d="M1122 423l0 189 -316 0 0 -445c0,-19 16,-34 34,-34l248 0c18,0 34,15 34,34l0 216"/>
   <path class="fil5" d="M1118 423c0,-2 2,-4 4,-4 2,0 4,2 4,4l0 189c0,2 -2,4 -4,4l-316 0c-2,0 -4,-2 -4,-4l0 -445c0,-10 5,-20 12,-27 6,-7 16,-11 26,-11l248 0c10,0 20,4 26,11 7,7 12,17 12,27l0 216c0,2 -2,3 -4,3 -2,0 -4,-1 -4,-3l0 -216c0,-8 -3,-16 -9,-22 -5,-5 -13,-8 -21,-8l-248 0c-8,0 -16,3 -21,8 -6,6 -9,14 -9,22l0 441 308 0 0 -185z"/>
   <path class="fil7" d="M1029 159c0,-4 -4,-8 -9,-8 -5,0 -9,4 -9,8 0,5 4,9 9,9 5,0 9,-4 9,-9z"/>
   <path class="fil7" d="M1067 159c0,-4 -4,-8 -9,-8 -5,0 -9,4 -9,8 0,5 4,9 9,9 5,0 9,-4 9,-9z"/>
   <path class="fil7" d="M1104 159c0,-4 -4,-8 -9,-8 -4,0 -8,4 -8,8 0,5 4,9 8,9 5,0 9,-4 9,-9z"/>
   <path class="fil8" d="M685 133c0,-8 6,-14 13,-14 8,0 14,6 14,14 0,7 -6,14 -14,14 -7,0 -13,-7 -13,-14z"/>
   <path class="fil8" d="M626 133c0,-8 6,-14 14,-14 8,0 14,6 14,14 0,7 -6,14 -14,14 -8,0 -14,-7 -14,-14z"/>
   <path class="fil8" d="M568 133c0,-8 6,-14 14,-14 7,0 14,6 14,14 0,7 -7,14 -14,14 -8,0 -14,-7 -14,-14z"/>
   <polygon class="fil1" points="1002,416 1038,416 1038,465 1002,465 "/>
   <polygon class="fil1" points="946,340 982,340 982,465 946,465 "/>
   <polygon class="fil1" points="890,391 926,391 926,465 890,465 "/>
   <path class="fil5" d="M1069 478c2,0 4,2 4,4 0,2 -2,4 -4,4l-210 0c-2,0 -4,-2 -4,-4 0,-2 2,-4 4,-4l210 0z"/>
   <path class="fil5" d="M1045 298c0,-3 2,-4 4,-4 2,0 4,1 4,4l0 210c0,2 -2,4 -4,4 -2,0 -4,-2 -4,-4l0 -210z"/>
   <path class="fil5" d="M758 87l0 91c0,7 -3,13 -7,17 -4,5 -11,8 -17,8l-14 0 0 38c0,2 -2,4 -4,4 -1,0 -2,0 -2,-1l-53 -41 -115 0c-6,0 -12,-3 -17,-8l0 0c-4,-4 -7,-10 -7,-17l0 -91c0,-6 3,-12 7,-17 5,-4 11,-7 17,-7l188 0c6,0 13,3 17,7l0 0c4,5 7,11 7,17zm-7 91l0 -91c0,-4 -2,-9 -5,-12l0 0c-3,-3 -8,-5 -12,-5l-188 0c-4,0 -9,2 -12,5 -3,3 -5,8 -5,12l0 91c0,5 2,9 5,12l0 0c3,3 8,5 12,5l117 0c0,0 1,0 2,1l47 38 0 -35c0,-2 2,-4 4,-4l18 0c4,0 9,-2 12,-5 3,-3 5,-7 5,-12z"/>
   <path class="fil5" d="M1498 317c0,-3 2,-4 4,-4 2,0 4,1 4,4l0 20c0,2 -2,4 -4,4l-82 0c-2,0 -4,-2 -4,-4l0 -17c-6,-2 -17,-7 -17,-24l0 -90c0,-3 1,-7 3,-10 2,-3 4,-5 7,-7 0,-1 0,-1 1,-2l25 -25c4,-4 9,-6 15,-6 5,0 10,1 15,5l0 1c4,4 6,9 6,14 0,5 -2,11 -5,15 -7,6 -13,13 -19,19l55 0c2,0 4,2 4,4 0,2 -2,3 -4,3l-64 0c-1,0 -2,0 -3,-1 -2,-1 -2,-4 0,-5 8,-8 17,-17 25,-25 3,-3 4,-6 4,-10 0,-3 -2,-6 -4,-9l0 0c-3,-3 -7,-4 -10,-4 -3,0 -7,2 -10,5l-25 25c0,0 0,0 -1,1l0 0c0,0 0,1 -1,1 -2,1 -3,3 -4,5 -2,2 -2,4 -2,6l0 90c0,15 11,17 13,17l0 0c2,0 4,1 4,4l0 17 74 0 0 -17z"/>
   <path class="fil5" d="M1308 598l23 0c49,0 93,-20 125,-52 32,-32 52,-77 52,-125l0 -80 -92 0 0 80c0,23 -10,44 -25,59 -16,16 -37,25 -60,25l-37 0 14 93zm23 7l-27 0c-2,0 -3,-1 -3,-3l-15 -100c-1,0 -1,0 -1,-1 0,-2 2,-3 4,-3l42 0c21,0 40,-9 54,-23 14,-14 23,-33 23,-54l0 -84c0,-2 2,-3 4,-3l100 0c2,0 4,1 4,3l0 84c0,51 -21,97 -54,130 -34,34 -80,54 -131,54z"/>
   <path class="fil5" d="M1470 236l38 0c3,0 5,-1 7,-3l0 0c2,-2 3,-4 3,-7 0,-2 -1,-4 -3,-6l0 0c-2,-2 -4,-3 -7,-3l-38 0c-3,0 -5,1 -7,3l0 0c-2,2 -3,4 -3,6 0,3 1,5 3,7l0 0c2,2 4,3 7,3zm38 7l-38 0c-5,0 -9,-2 -12,-5l0 0c-3,-3 -5,-7 -5,-12 0,-4 2,-8 5,-11 3,-3 7,-5 12,-5l38 0c5,0 9,2 12,5l0 0c3,3 5,7 5,11 0,5 -2,9 -5,12l0 0c-3,3 -7,5 -12,5z"/>
   <path class="fil5" d="M1470 261l38 0c3,0 5,-1 7,-2l0 -1c2,-1 3,-3 3,-6 0,-2 -1,-5 -3,-6l0 0c-2,-2 -4,-3 -7,-3l-38 0c-3,0 -5,1 -7,3l0 0c-2,1 -3,4 -3,6 0,3 1,5 3,7l0 0c2,1 4,2 7,2zm38 8l-38 0c-5,0 -9,-2 -12,-5l0 0c-3,-3 -5,-7 -5,-12 0,-4 2,-9 5,-12 3,-3 7,-4 12,-4l38 0c5,0 9,1 12,4l0 0c3,3 5,8 5,12 0,5 -2,9 -5,12l0 0c-3,3 -7,5 -12,5z"/>
   <path class="fil5" d="M1470 287l38 0c3,0 5,-1 7,-3l0 0c2,-1 3,-4 3,-6 0,-3 -1,-5 -3,-7 -2,-1 -4,-2 -7,-2l-38 0c-3,0 -5,1 -7,2l0 0c-2,2 -3,4 -3,7 0,2 1,5 3,6 2,2 4,3 7,3zm38 8l-38 0c-5,0 -9,-2 -12,-5 -3,-3 -5,-7 -5,-12 0,-5 2,-9 5,-12 3,-3 7,-5 12,-5l38 0c5,0 9,2 12,5l0 0c3,3 5,7 5,12 0,5 -2,9 -5,12 -3,3 -7,5 -12,5z"/>
   <path class="fil5" d="M1470 313l38 0c3,0 5,-1 7,-3l0 0c2,-2 3,-4 3,-6 0,-3 -1,-5 -3,-7 -2,-1 -4,-2 -7,-2l-38 0c-3,0 -5,1 -7,2l0 0c-2,2 -3,4 -3,7 0,2 1,4 3,6 2,2 4,3 7,3zm38 7l-38 0c-5,0 -9,-2 -12,-5 -3,-3 -5,-7 -5,-11 0,-5 2,-9 5,-12 3,-3 7,-5 12,-5l38 0c5,0 9,2 12,5l0 0c3,3 5,7 5,12 0,4 -2,8 -5,11l0 0c-3,3 -7,5 -12,5z"/>
   <path class="fil5" d="M1450 160c0,2 -2,4 -4,4 -2,0 -4,-2 -4,-4l0 -11c0,-2 2,-3 4,-3l56 0c2,0 4,1 4,3l0 65c0,2 -2,3 -4,3 -2,0 -3,-1 -3,-3l0 -61 -49 0 0 7z"/>
   <path class="fil2" d="M1436 149l75 0 0 -81 -75 0c-22,0 -41,18 -41,41 0,22 19,40 41,40z"/>
   <path class="fil5" d="M1436 146l72 0 0 -74 -72 0c-10,0 -19,4 -26,10 -7,7 -11,16 -11,27 0,10 4,19 11,26 7,6 16,11 26,11zm75 7l-75 0c-12,0 -23,-5 -31,-13 -9,-8 -13,-19 -13,-31 0,-13 4,-24 13,-32 8,-8 19,-13 31,-13l75 0c2,0 4,2 4,4l0 81c0,2 -2,4 -4,4z"/>
   <path class="fil5" d="M1655 203l-145 -50c-1,-1 -2,-2 -2,-4l0 0 0 -81c0,-2 1,-3 2,-4l145 -50c2,-1 4,1 5,2 0,1 0,1 0,2l0 0 0 181c0,2 -2,4 -4,4 0,0 -1,0 -1,0zm-140 -56l137 47 0 -171 -137 47 0 77z"/>
   <path class="fil5" d="M1667 208c3,0 4,-1 6,-2 1,-1 2,-3 2,-5l0 -185c0,-2 -1,-4 -2,-5 -2,-1 -3,-2 -6,-2 -2,0 -4,1 -5,2 -1,1 -2,3 -2,5l0 185c0,2 1,4 2,5 1,1 3,2 5,2zm11 3c-3,3 -6,5 -11,5 -4,0 -7,-2 -10,-5 -3,-2 -5,-6 -5,-10l0 -185c0,-4 2,-7 5,-10 3,-3 6,-5 10,-5 5,0 8,2 11,5 3,3 4,6 4,10l0 185c0,4 -1,8 -4,10z"/>
   <path class="fil5" d="M641 461l-183 0 0 112 165 0 18 -112zm-187 -8l192 0 0 0c0,0 0,0 0,0 2,1 4,3 3,5l-19 119c0,2 -2,3 -4,3l-172 0c-2,0 -4,-1 -4,-3l0 -120c0,-2 2,-4 4,-4z"/>
   <path class="fil5" d="M362 470l-18 -19 -1 0c-4,-4 -6,-9 -6,-15 0,-5 3,-10 7,-14l0 -1c4,-4 9,-5 15,-5 5,0 11,2 15,6l25 25c0,1 1,1 1,2 3,2 5,4 7,7 1,2 2,5 2,7l45 0c2,0 4,2 4,4l0 100c0,2 -2,3 -4,3l-46 0c-3,4 -9,10 -23,10l-79 0c-2,0 -3,-1 -3,-3l0 -103c0,-2 1,-4 3,-4l56 0zm-13 -24l25 25c0,1 1,2 1,3 0,2 -2,3 -4,3l-61 0 0 96 75 0c13,0 16,-7 17,-8 1,-1 2,-2 3,-2l45 0 0 -92 -45 0c-2,0 -3,-2 -3,-4l0 -1c0,-2 -1,-4 -2,-6 -1,-2 -2,-4 -4,-5 -1,0 -1,-1 -2,-1l0 0c0,-1 0,-1 -1,-1l-25 -25c-2,-3 -6,-5 -9,-5 -4,0 -7,1 -10,4l0 0c-3,3 -4,6 -4,9 0,4 1,7 4,10l0 0z"/>
   <path class="fil7" d="M120 661l113 0c75,0 136,-61 136,-136 0,-75 -61,-136 -136,-136l-113 0 0 75 113 0c33,0 61,28 61,61 0,34 -28,61 -61,61l-113 0 0 75z"/>
   <path class="fil9" d="M124 657l109 0c36,0 69,-14 93,-38 24,-24 39,-57 39,-94 0,-36 -15,-69 -39,-93 -24,-24 -57,-39 -93,-39l-109 0 0 67 109 0c18,0 34,8 46,19 11,12 18,28 18,46 0,18 -7,34 -18,46 -12,12 -28,19 -46,19l-109 0 0 67zm109 8l-113 0c-2,0 -3,-2 -3,-4l0 -75c0,-2 1,-4 3,-4l113 0c16,0 30,-6 40,-16 11,-11 17,-25 17,-41 0,-16 -6,-30 -17,-40 -10,-11 -24,-17 -40,-17l-113 0c-2,0 -3,-2 -3,-4l0 -75c0,-2 1,-4 3,-4l113 0c38,0 73,16 99,41 25,26 41,61 41,99 0,39 -16,74 -41,99 -26,25 -61,41 -99,41z"/>
   <path class="fil2" d="M626 399c14,0 25,-11 25,-25l0 0c0,-14 -11,-25 -25,-25 -14,0 -25,11 -25,25 0,14 11,25 25,25zm-34 -36c0,-2 1,-4 2,-5l-7 -10 13 -13 10 7c1,-1 3,-2 5,-2l2 -12 18 0 2 12c2,0 4,1 6,2l9 -7 13 13 -7 10c1,1 2,3 2,5l12 2 0 9 0 9 -12 2c0,2 -1,4 -2,5l7 10 -13 13 -9 -7c-2,1 -4,2 -6,2l-2 12 -18 0 -2 -12c-2,0 -4,-1 -5,-2l-10 7 -13 -13 7 -10c-1,-1 -2,-3 -2,-5l-11 -2 0 -9 0 -9 11 -2z"/>
   <path class="fil4" d="M10 422c0,-15 12,-27 27,-27 16,0 28,12 28,27 0,16 -12,28 -28,28 -15,0 -27,-12 -27,-28z"/>
   <path class="fil5" d="M6 422c0,-8 3,-16 9,-22 6,-6 14,-9 22,-9 9,0 17,3 23,9 6,6 9,14 9,22 0,9 -3,17 -9,23l0 0c-6,5 -14,9 -23,9 -8,0 -16,-4 -22,-9l0 0c-6,-6 -9,-14 -9,-23zm14 -17c-4,5 -7,11 -7,17 0,7 3,13 7,17 5,5 11,7 17,7 7,0 13,-2 17,-6l0 -1c5,-4 8,-10 8,-17 0,-6 -3,-12 -8,-17 -4,-4 -10,-7 -17,-7 -6,0 -12,3 -17,7z"/>
   <path class="fil5" d="M19 437c2,3 5,5 8,7 3,2 7,2 10,2 4,0 8,-1 11,-2 4,-2 7,-5 9,-8 1,-1 4,-2 5,-1l1 1c4,3 8,8 10,13 3,5 4,11 4,17l0 27c0,2 -2,4 -4,4l-69 0c-2,0 -4,-2 -4,-4l0 -27c0,-6 1,-11 3,-16 3,-5 6,-10 10,-13 2,-2 4,-1 6,0l0 0zm5 14c-3,-2 -6,-4 -8,-6 -3,2 -4,5 -6,8 -1,4 -2,8 -2,13l0 23 62 0 0 -23c0,-5 -2,-10 -4,-14 -1,-3 -3,-6 -6,-8 -2,3 -5,5 -8,6 -4,3 -9,4 -15,4 -4,0 -9,-1 -13,-3z"/>
   <path class="fil4" d="M10 573c0,-16 12,-28 27,-28 16,0 28,12 28,28 0,15 -12,28 -28,28 -15,0 -27,-13 -27,-28z"/>
   <path class="fil5" d="M6 573c0,-9 3,-17 9,-23 6,-5 14,-9 22,-9 9,0 17,4 23,9 6,6 9,14 9,23 0,9 -3,16 -9,22 -6,6 -14,9 -23,9 -8,0 -16,-3 -22,-9 -6,-6 -9,-13 -9,-22zm14 -17c-4,4 -7,10 -7,17 0,6 3,12 7,17 5,4 11,7 17,7 7,0 13,-3 17,-7 5,-5 8,-11 8,-17 0,-7 -3,-13 -8,-17 -4,-5 -10,-7 -17,-7 -6,0 -12,2 -17,7z"/>
   <path class="fil5" d="M19 588c2,3 5,5 8,6 3,2 7,3 10,3 4,0 8,-1 11,-3 4,-2 7,-4 9,-7 1,-2 4,-2 5,-1l1 0c4,4 8,8 10,13 3,6 4,11 4,17l0 27c0,2 -2,4 -4,4l-69 0c-2,0 -4,-2 -4,-4l0 -27c0,-5 1,-11 3,-16 3,-5 6,-9 10,-13 2,-1 4,-1 6,1l0 0zm5 13c-3,-1 -6,-3 -8,-6 -3,3 -4,5 -6,8 -1,4 -2,9 -2,13l0 24 62 0 0 -24c0,-5 -2,-9 -4,-13 -1,-3 -3,-6 -6,-9 -2,3 -5,5 -8,7 -4,2 -9,3 -15,3 -4,0 -9,-1 -13,-3z"/>
   <path class="fil7" d="M1181 152c-11,-10 -5,-29 10,-30 1,0 1,0 2,0 5,0 10,2 14,5 3,-3 8,-5 14,-5 0,0 0,0 1,0 15,1 22,20 10,30l-17 16c-5,4 -12,4 -17,0l-17 -16z"/>
   <path class="fil5" d="M34 512c0,-2 1,-4 3,-4 3,0 4,2 4,4l0 18c0,2 -1,4 -4,4 -2,0 -3,-2 -3,-4l0 -18z"/>
   <path class="fil2" d="M1324 235l-6 11c-1,2 -3,3 -5,4l-13 1c-5,1 -8,9 -4,13l9 8c2,2 3,5 2,7l-2 12c-1,6 5,10 11,8l11 -6c2,-1 4,-1 6,0l11 6c6,2 12,-2 11,-8l-2 -12c-1,-2 0,-5 2,-7l9 -8c4,-4 2,-12 -4,-13l-12 -1c-3,-1 -5,-2 -6,-4l-5 -11c-3,-6 -11,-6 -13,0z"/>
   <path class="fil5" d="M1783 14c2,0 3,2 3,4 0,2 -1,3 -3,3l-16 0c-3,0 -6,2 -9,3 -2,2 -3,4 -3,7 0,2 1,4 3,6 3,2 6,3 9,3l5 0c4,0 7,1 10,4 3,2 4,5 4,9 0,3 -1,6 -4,9 -3,2 -6,3 -10,3l-21 0c-2,0 -4,-2 -4,-4 0,-2 2,-3 4,-3l21 0c2,0 4,-1 5,-2 1,-1 2,-2 2,-3 0,-2 -1,-3 -2,-4 -1,-1 -3,-1 -5,-1l-5 0c-5,0 -10,-2 -13,-5 -4,-3 -7,-7 -7,-12 0,-5 3,-9 7,-12 3,-3 8,-5 13,-5l16 0z"/>
   <path class="fil5" d="M1771 18c0,2 -1,3 -4,3 -2,0 -3,-1 -3,-3l0 -14c0,-2 1,-4 3,-4 3,0 4,2 4,4l0 14z"/>
   <path class="fil5" d="M1771 75c0,2 -1,4 -4,4 -2,0 -3,-2 -3,-4l0 -14c0,-2 1,-3 3,-3 3,0 4,1 4,3l0 14z"/>
   <path class="fil5" d="M1767 134c2,0 4,2 4,4 0,2 -2,3 -4,3l-15 0c-4,0 -7,2 -9,3 -3,2 -4,4 -4,7 0,2 1,4 4,6 2,2 5,3 9,3l4 0c4,0 8,1 10,4 3,2 5,5 5,9 0,3 -2,6 -5,9 -2,2 -6,3 -10,3l-21 0c-2,0 -3,-2 -3,-4 0,-2 1,-3 3,-3l21 0c2,0 4,-1 5,-2 2,-1 2,-2 2,-3 0,-2 0,-3 -2,-4 -1,-1 -3,-1 -5,-1l-4 0c-6,0 -11,-2 -14,-5 -4,-3 -6,-7 -6,-12 0,-5 2,-9 6,-12 3,-3 8,-5 14,-5l15 0z"/>
   <path class="fil5" d="M1755 138c0,2 -1,3 -3,3 -2,0 -4,-1 -4,-3l0 -14c0,-2 2,-4 4,-4 2,0 3,2 3,4l0 14z"/>
   <path class="fil5" d="M1755 195c0,2 -1,4 -3,4 -2,0 -4,-2 -4,-4l0 -14c0,-2 2,-3 4,-3 2,0 3,1 3,3l0 14z"/>
   <line class="fil6" x1="1487" y1="682" x2="470" y2= "682" />
   <path class="fil5" d="M1487 678c2,0 4,2 4,4 0,2 -2,4 -4,4l-1017 0c-2,0 -3,-2 -3,-4 0,-2 1,-4 3,-4l1017 0z"/>
   <path class="fil5" d="M421 678c2,0 4,2 4,4 0,2 -2,4 -4,4l-88 0c-2,0 -4,-2 -4,-4 0,-2 2,-4 4,-4l88 0z"/>
   <path class="fil5" d="M1521 686c-2,0 -3,-2 -3,-4 0,-2 1,-4 3,-4l37 0c2,0 3,2 3,4 0,2 -1,4 -3,4l-37 0z"/>
   <path class="fil5" d="M1584 686c-2,0 -4,-2 -4,-4 0,-2 2,-4 4,-4l36 0c2,0 4,2 4,4 0,2 -2,4 -4,4l-36 0z"/>
   <polygon class="fil1" points="120,464 154,464 154,389 120,389 "/>
   <polygon class="fil1" points="120,661 154,661 154,586 120,586 "/>
   <path class="fil5" d="M124 657l109 0c36,0 69,-14 93,-38 24,-24 39,-57 39,-94 0,-36 -15,-69 -39,-93 -24,-24 -57,-39 -93,-39l-109 0 0 67 109 0c18,0 34,8 46,19 11,12 18,28 18,46 0,18 -7,34 -18,46 -12,12 -28,19 -46,19l-109 0 0 67zm109 8l-113 0c-2,0 -3,-2 -3,-4l0 -75c0,-2 1,-4 3,-4l113 0c16,0 30,-6 40,-16 11,-11 17,-25 17,-41 0,-16 -6,-30 -17,-40 -10,-11 -24,-17 -40,-17l-113 0c-2,0 -3,-2 -3,-4l0 -75c0,-2 1,-4 3,-4l113 0c38,0 73,16 99,41 25,26 41,61 41,99 0,39 -16,74 -41,99 -26,25 -61,41 -99,41z"/>
   <path class="fil1" d="M339 499l-39 0c-7,0 -13,-5 -13,-12 0,-8 6,-13 13,-13l39 0c7,0 13,5 13,13 0,7 -6,12 -13,12z"/>
   <path class="fil1" d="M339 525l-39 0c-7,0 -13,-6 -13,-13 0,-7 6,-13 13,-13l39 0c7,0 13,6 13,13 0,7 -6,13 -13,13z"/>
   <path class="fil1" d="M339 551l-39 0c-7,0 -13,-6 -13,-13l0 0c0,-7 6,-13 13,-13l39 0c7,0 13,6 13,13l0 0c0,7 -6,13 -13,13z"/>
   <path class="fil1" d="M339 577l-39 0c-7,0 -13,-6 -13,-13 0,-7 6,-13 13,-13l39 0c7,0 13,6 13,13 0,7 -6,13 -13,13z"/>
   <path class="fil5" d="M339 503l-39 0c-4,0 -9,-2 -12,-5 -3,-3 -4,-7 -4,-11 0,-5 1,-9 4,-12 3,-3 8,-5 12,-5l39 0c5,0 9,2 12,5 3,3 5,7 5,12 0,4 -2,8 -5,11l0 0c-3,3 -7,5 -12,5zm-39 -7l39 0c3,0 5,-1 6,-3l1 0c1,-2 2,-4 2,-6 0,-3 -1,-5 -2,-7 -2,-2 -4,-3 -7,-3l-39 0c-2,0 -5,1 -6,3 -2,2 -3,4 -3,7 0,2 1,4 3,6l0 0c1,2 4,3 6,3z"/>
   <path class="fil5" d="M339 580l-39 0c-4,0 -9,-2 -12,-5l0 0c-3,-3 -4,-7 -4,-11 0,-5 1,-9 4,-12 3,-3 8,-5 12,-5l39 0c5,0 9,2 12,5 3,3 5,7 5,12 0,4 -2,8 -5,11l0 1c-3,3 -7,4 -12,4zm-39 -7l39 0c3,0 5,-1 6,-3l1 0c1,-1 2,-4 2,-6 0,-3 -1,-5 -2,-7 -2,-1 -4,-2 -7,-2l-39 0c-2,0 -5,1 -6,2 -2,2 -3,4 -3,7 0,2 1,4 3,6l0 0c1,2 4,3 6,3z"/>
   <path class="fil5" d="M339 555l-39 0c-4,0 -9,-2 -12,-5 -3,-3 -4,-7 -4,-12 0,-5 1,-9 4,-12 3,-3 8,-5 12,-5l39 0c5,0 9,2 12,5 3,3 5,7 5,12 0,5 -2,9 -5,12l0 0c-3,3 -7,5 -12,5zm-39 -8l39 0c3,0 5,-1 6,-2l1 -1c1,-1 2,-4 2,-6 0,-3 -1,-5 -2,-6 -2,-2 -4,-3 -7,-3l-39 0c-2,0 -5,1 -6,3 -2,1 -3,3 -3,6 0,2 1,5 3,6l0 0c1,2 4,3 6,3z"/>
   <path class="fil5" d="M339 529l-39 0c-4,0 -9,-2 -12,-5l0 0c-3,-3 -4,-7 -4,-12 0,-4 1,-8 4,-11l1 -1c3,-3 7,-4 11,-4l39 0c5,0 9,1 12,5l0 0c3,3 5,7 5,11 0,5 -2,9 -5,12l0 0c-3,3 -7,5 -12,5zm-39 -8l39 0c3,0 5,-1 6,-2l1 0c1,-2 2,-4 2,-7 0,-2 -1,-5 -2,-6 -2,-2 -4,-3 -7,-3l-39 0c-2,0 -5,1 -6,3l0 0c-2,1 -3,4 -3,6 0,3 1,5 3,7l0 0c1,1 4,2 6,2z"/>
   <path class="fil5" d="M1078 403c0,-7 5,-13 12,-13 7,0 13,6 13,13 0,7 -6,12 -13,12 -7,0 -12,-5 -12,-12z"/>
  </g>
 </g>
</svg>
