<?xml version="1.0" encoding="UTF-8"?>
<!DOCTYPE svg PUBLIC "-//W3C//DTD SVG 1.1//EN" "http://www.w3.org/Graphics/SVG/1.1/DTD/svg11.dtd">
<!-- Creator: CorelDRAW X7 -->
<svg xmlns="http://www.w3.org/2000/svg" xml:space="preserve" width="100%" height="100%" version="1.1" style="shape-rendering:geometricPrecision; text-rendering:geometricPrecision; image-rendering:optimizeQuality; fill-rule:evenodd; clip-rule:evenodd"
viewBox="0 0 2709 1166"
 xmlns:xlink="http://www.w3.org/1999/xlink">
 <defs>
  <style type="text/css">
   <![CDATA[
    .fil0 {fill:#8480BC}
    .fil3 {fill:#FDDFD1;fill-rule:nonzero}
    .fil6 {fill:#DBBB83;fill-rule:nonzero}
    .fil7 {fill:#D2AE6D;fill-rule:nonzero}
    .fil1 {fill:#D2AE6D;fill-rule:nonzero}
    .fil4 {fill:#F2D394;fill-rule:nonzero}
    .fil2 {fill:white;fill-rule:nonzero}
    .fil5 {fill:white;fill-rule:nonzero}
   ]]>
  </style>
 </defs>
 <g id="Layer_x0020_1">
  <metadata id="CorelCorpID_0Corel-Layer"/>
  <g id="_2425802227536">
   <g>
    <polygon class="fil0" points="2709,1166 0,1166 0,0 2709,0 "/>
    <path class="fil1" d="M2339 51c-1,0 -1,3 0,3 2,0 2,-3 0,-3z"/>
    <path class="fil1" d="M2310 49c-3,0 -3,6 0,6 4,0 4,-6 0,-6z"/>
    <path class="fil1" d="M2349 268c-5,0 -5,7 0,7 5,0 5,-7 0,-7z"/>
    <g>
     <path class="fil2" d="M1348 1035c2,-2 5,-3 8,-1 3,1 3,5 2,7 -2,3 -5,4 -8,2 -2,-2 -3,-5 -2,-8z"/>
     <path class="fil3" d="M968 398c2,-3 5,-4 8,-2 2,2 3,5 2,8 -2,2 -5,3 -8,1 -2,-1 -3,-5 -2,-7z"/>
     <path class="fil3" d="M1084 340c2,-2 5,-3 8,-1 2,1 3,5 1,7 -1,3 -5,4 -7,2 -3,-2 -4,-5 -2,-8z"/>
     <path class="fil4" d="M1145 987c1,-3 5,-3 7,-2 3,2 3,5 2,8 -2,3 -5,3 -8,2 -2,-2 -3,-5 -1,-8z"/>
     <path class="fil5" d="M977 198c2,-3 5,-4 8,-2 2,1 3,5 1,7 -1,3 -5,4 -7,2 -3,-1 -4,-5 -2,-7z"/>
     <path class="fil4" d="M1198 154c1,-2 5,-3 7,-1 3,1 3,5 2,7 -2,3 -5,4 -8,2 -2,-2 -3,-5 -1,-8z"/>
     <path class="fil5" d="M1129 192c-12,0 -21,-10 -21,-22l-1 0c0,12 -9,22 -21,22 12,1 21,11 21,23l1 0c0,-12 9,-22 21,-23z"/>
     <path class="fil4" d="M188 466c-24,0 -42,-20 -42,-43l-1 0c0,23 -19,43 -42,43 23,1 42,20 42,44l0 0c1,-24 19,-43 43,-44z"/>
     <path class="fil5" d="M398 281c-1,3 -5,3 -7,2 -3,-2 -4,-5 -2,-8 2,-2 5,-3 8,-2 2,2 3,6 1,8z"/>
     <path class="fil5" d="M218 334c-2,3 -5,4 -8,2 -2,-2 -3,-5 -1,-8 1,-2 5,-3 7,-1 3,1 4,5 2,7z"/>
     <path class="fil4" d="M2014 1108c-2,2 -5,3 -8,1 -3,-1 -3,-5 -2,-7 2,-3 5,-4 8,-2 2,2 3,5 2,8z"/>
     <path class="fil5" d="M747 229c-1,3 -5,3 -7,2 -3,-2 -4,-5 -2,-8 1,-2 5,-3 7,-2 3,2 4,5 2,8z"/>
     <path class="fil5" d="M519 135c-2,2 -5,3 -8,2 -2,-2 -3,-6 -1,-8 1,-3 5,-3 7,-2 3,2 4,5 2,8z"/>
     <path class="fil4" d="M337 578c-2,3 -5,3 -8,2 -2,-2 -3,-5 -1,-8 1,-3 4,-3 7,-2 3,2 3,5 2,8z"/>
     <path class="fil5" d="M253 509c-1,3 -5,4 -7,2 -3,-2 -4,-5 -2,-8 1,-2 5,-3 7,-1 3,1 4,5 2,7z"/>
     <path class="fil5" d="M271 774c-1,3 -4,4 -7,2 -3,-2 -3,-5 -2,-8 2,-2 5,-3 8,-1 2,1 3,5 1,7z"/>
     <path class="fil4" d="M139 935c-2,3 -5,3 -8,2 -3,-2 -3,-5 -2,-8 2,-2 5,-3 8,-1 2,1 3,5 2,7z"/>
     <path class="fil2" d="M2349 153c1,2 5,3 7,2 3,-2 3,-5 2,-8 -2,-3 -5,-3 -8,-2 -2,2 -3,5 -1,8z"/>
     <path class="fil3" d="M1939 639c2,3 5,4 8,2 2,-2 3,-5 1,-8 -1,-2 -5,-3 -7,-1 -3,1 -4,5 -2,7z"/>
     <path class="fil3" d="M2083 101c2,3 5,4 8,2 3,-2 3,-5 2,-8 -2,-2 -5,-3 -8,-1 -2,1 -3,5 -2,7z"/>
     <path class="fil3" d="M1025 243c2,3 5,4 8,2 2,-1 3,-5 1,-7 -1,-3 -5,-4 -7,-2 -3,1 -4,5 -2,7z"/>
     <path class="fil2" d="M1305 232c2,2 5,3 8,1 2,-1 3,-5 2,-7 -2,-3 -5,-4 -8,-2 -2,2 -3,5 -2,8z"/>
     <path class="fil4" d="M1592 254c2,3 5,3 8,2 2,-2 3,-5 1,-8 -1,-2 -5,-3 -7,-2 -3,2 -4,5 -2,8z"/>
     <path class="fil3" d="M1707 154c1,3 5,3 7,2 3,-2 4,-5 2,-8 -1,-2 -5,-3 -7,-2 -3,2 -4,5 -2,8z"/>
     <path class="fil4" d="M1097 527c1,2 5,3 7,2 3,-2 4,-5 2,-8 -2,-3 -5,-3 -7,-2 -3,2 -4,5 -2,8z"/>
     <path class="fil2" d="M1147 519c2,2 5,3 8,2 2,-2 3,-5 2,-8 -2,-3 -5,-3 -8,-2 -3,2 -3,5 -2,8z"/>
     <path class="fil3" d="M1402 460c1,2 5,3 7,2 3,-2 3,-5 2,-8 -2,-3 -5,-3 -8,-2 -2,2 -3,5 -1,8z"/>
     <path class="fil3" d="M1431 132c2,2 5,3 8,1 2,-1 3,-5 1,-7 -1,-3 -5,-4 -7,-2 -3,2 -4,5 -2,8z"/>
     <path class="fil3" d="M1233 115c2,3 5,4 8,2 2,-1 3,-5 2,-7 -2,-3 -5,-4 -8,-2 -3,1 -3,5 -2,7z"/>
     <path class="fil2" d="M1980 224c2,2 5,3 8,2 3,-2 3,-5 2,-8 -2,-3 -5,-3 -8,-2 -2,2 -3,5 -2,8z"/>
     <path class="fil3" d="M273 100c1,3 5,3 7,2 3,-2 4,-5 2,-8 -2,-2 -5,-3 -8,-2 -2,2 -3,5 -1,8z"/>
     <path class="fil2" d="M1528 304c2,2 5,3 8,2 2,-2 3,-5 1,-8 -1,-3 -5,-3 -7,-2 -3,2 -3,5 -2,8z"/>
     <path class="fil4" d="M1211 409c1,2 5,3 7,2 3,-2 4,-6 2,-8 -1,-3 -5,-3 -7,-2 -3,2 -4,5 -2,8z"/>
     <path class="fil3" d="M1054 618c2,2 5,3 8,2 2,-2 3,-5 1,-8 -1,-3 -5,-3 -7,-2 -3,2 -3,5 -2,8z"/>
     <path class="fil2" d="M1762 114c2,3 5,3 8,2 2,-2 3,-5 1,-8 -1,-2 -5,-3 -7,-2 -3,2 -3,5 -2,8z"/>
     <path class="fil5" d="M1133 753c12,0 21,-10 21,-22l1 0c0,12 9,22 21,22 -12,0 -21,10 -21,22l-1 0c0,-12 -9,-22 -21,-22z"/>
     <path class="fil3" d="M2440 707c-2,3 -5,4 -8,2 -3,-1 -3,-5 -2,-7 2,-3 5,-4 8,-2 2,1 3,5 2,7z"/>
     <path class="fil3" d="M204 1085c-1,3 -5,4 -7,2 -3,-1 -3,-5 -2,-7 2,-3 5,-4 8,-2 2,2 3,5 1,7z"/>
     <path class="fil3" d="M2543 416c-2,2 -5,3 -8,1 -2,-1 -3,-5 -2,-7 2,-3 5,-4 8,-2 2,2 3,5 2,8z"/>
     <path class="fil3" d="M1547 1059c-1,3 -4,3 -7,2 -3,-2 -3,-5 -2,-8 2,-2 5,-3 8,-2 2,2 3,5 1,8z"/>
     <path class="fil4" d="M2375 985c-1,3 -5,3 -7,2 -3,-2 -4,-5 -2,-8 1,-2 5,-3 7,-1 3,1 4,5 2,7z"/>
     <path class="fil4" d="M2478 836c-2,3 -5,3 -8,2 -2,-2 -3,-5 -1,-8 1,-2 5,-3 7,-2 3,2 4,5 2,8z"/>
     <path class="fil3" d="M2620 810c-2,3 -5,4 -7,2 -3,-2 -4,-5 -2,-8 1,-2 5,-3 7,-1 3,1 4,5 2,7z"/>
     <path class="fil3" d="M2523 1070c-2,3 -5,4 -8,2 -2,-1 -3,-5 -1,-7 1,-3 5,-4 7,-2 3,1 3,5 2,7z"/>
     <path class="fil3" d="M421 963c-2,2 -5,3 -8,1 -2,-1 -3,-5 -1,-7 1,-3 4,-4 7,-2 3,2 3,5 2,8z"/>
    </g>
   </g>
   <path class="fil1" d="M2339 51c-1,0 -1,3 0,3 2,0 2,-3 0,-3z"/>
   <path class="fil1" d="M2310 49c-3,0 -3,6 0,6 4,0 4,-6 0,-6z"/>
   <path class="fil1" d="M2349 268c-5,0 -5,7 0,7 5,0 5,-7 0,-7z"/>
   <path class="fil6" d="M2441 124c0,-18 15,-33 33,-33 18,0 33,15 33,33 0,18 -15,33 -33,33 -18,0 -33,-15 -33,-33z"/>
   <path class="fil7" d="M2500 103c4,6 7,13 7,21 0,18 -15,33 -33,33 -10,0 -19,-5 -25,-12 0,0 25,10 40,-6 15,-15 11,-36 11,-36z"/>
  </g>
 </g>
</svg>
