<?xml version="1.0" encoding="UTF-8"?>
<!DOCTYPE svg PUBLIC "-//W3C//DTD SVG 1.1//EN" "http://www.w3.org/Graphics/SVG/1.1/DTD/svg11.dtd">
<!-- Creator: CorelDRAW X7 -->
<svg xmlns="http://www.w3.org/2000/svg" xml:space="preserve" width="100%" height="100%" version="1.1" style="shape-rendering:geometricPrecision; text-rendering:geometricPrecision; image-rendering:optimizeQuality; fill-rule:evenodd; clip-rule:evenodd"
viewBox="0 0 761 1678"
 xmlns:xlink="http://www.w3.org/1999/xlink">
 <defs>
  <style type="text/css">
   <![CDATA[
    .str0 {stroke:#9999FF;stroke-width:3.59}
    .fil2 {fill:black}
    .fil0 {fill:white}
    .fil3 {fill:black;fill-rule:nonzero}
    .fil1 {fill:#9999FF;fill-rule:nonzero}
   ]]>
  </style>
 </defs>
 <g id="Layer_x0020_1">
  <metadata id="CorelCorpID_0Corel-Layer"/>
  <g id="_2098955189584">
   <path class="fil0" d="M22 1538l0 -1397c0,-64 46,-116 102,-116l512 0c56,0 102,52 102,116l0 1397c0,63 -46,115 -102,115l-512 0c-56,0 -102,-52 -102,-115zm40 -1278l636 0 0 1130 -636 0 0 -1130z"/>
   <path class="fil1" d="M21 1538l0 -1397c0,-32 11,-62 30,-83 19,-21 45,-35 73,-35l512 0c29,0 55,14 74,35 18,21 30,51 30,83l0 1397c0,32 -12,61 -30,82 -19,22 -45,35 -74,35l-512 0c-28,0 -54,-13 -73,-35 -19,-21 -30,-50 -30,-82zm3 -1397l0 1397c0,31 11,59 30,80 18,21 43,34 70,34l512 0c28,0 53,-13 71,-34 18,-21 29,-49 29,-80l0 -1397c0,-31 -11,-60 -29,-81 -18,-20 -43,-33 -71,-33l-512 0c-27,0 -52,13 -70,33 -19,21 -30,50 -30,81zm38 117l638 0 0 1133 -639 0 0 -1133 1 0zm634 4l-632 0 0 1126 632 0 0 -1126z"/>
   <path class="fil0" d="M636 1653c56,0 102,-52 102,-115l0 -1397c0,-64 -46,-116 -102,-116l-512 0c-56,0 -102,52 -102,116l0 1397c0,63 46,115 102,115l512 0zm-621 -115l0 -1397c0,-68 49,-124 109,-124l512 0c60,0 109,56 109,124l0 1397c0,67 -49,123 -109,123l-512 0c-60,0 -109,-56 -109,-123z"/>
   <path class="fil1" d="M636 1652c28,0 53,-13 71,-34 18,-21 29,-49 29,-80l0 -1397c0,-31 -11,-60 -29,-81 -18,-20 -43,-33 -71,-33l-512 0c-27,0 -52,13 -70,33 -19,21 -30,50 -30,81l0 1397c0,31 11,59 30,80 18,21 43,34 70,34l512 0zm74 -32c-19,22 -45,35 -74,35l-512 0c-28,0 -54,-13 -73,-35 -19,-21 -30,-50 -30,-82l0 -1397c0,-32 11,-62 30,-83 19,-21 45,-35 73,-35l512 0c29,0 55,14 74,35 18,21 30,51 30,83l0 1397c0,32 -12,61 -30,82zm-696 -82l0 -1397c0,-35 12,-66 32,-89 20,-22 48,-36 78,-36l512 0c31,0 58,14 78,36 20,23 33,54 33,89l0 1397c0,34 -13,65 -33,88 -20,23 -47,37 -78,37l-512 0c-30,0 -58,-14 -78,-37 -20,-23 -32,-54 -32,-88zm3 -1397l0 1397c0,33 12,64 32,86 19,22 46,35 75,35l512 0c30,0 56,-13 76,-35 19,-22 31,-53 31,-86l0 -1397c0,-34 -12,-64 -31,-86 -20,-22 -46,-36 -76,-36l-512 0c-29,0 -56,14 -75,36 -20,22 -32,52 -32,86z"/>
   <path class="fil0" d="M636 1661c60,0 109,-56 109,-123l0 -1397c0,-68 -49,-124 -109,-124l-512 0c-60,0 -109,56 -109,124l0 1397c0,67 49,123 109,123l512 0zm-634 -123l0 -1397c0,-77 55,-139 122,-139l512 0c68,0 123,62 123,139l0 1397c0,76 -55,139 -123,139l-512 0c-67,0 -122,-63 -122,-139z"/>
   <path class="fil1" d="M636 1659c30,0 56,-13 76,-35 19,-22 31,-53 31,-86l0 -1397c0,-34 -12,-64 -31,-86 -20,-22 -46,-36 -76,-36l-512 0c-29,0 -56,14 -75,36 -20,22 -32,52 -32,86l0 1397c0,33 12,64 32,86 19,22 46,35 75,35l512 0zm78 -33c-20,23 -47,37 -78,37l-512 0c-30,0 -58,-14 -78,-37 -20,-23 -32,-54 -32,-88l0 -1397c0,-35 12,-66 32,-89 20,-22 48,-36 78,-36l512 0c31,0 58,14 78,36 20,23 33,54 33,89l0 1397c0,34 -13,65 -33,88zm-714 -88l0 -1397c0,-39 14,-74 36,-100 23,-25 54,-41 88,-41l512 0c34,0 66,16 88,41 23,26 37,61 37,100l0 1397c0,38 -14,73 -37,99 -22,26 -54,41 -88,41l-512 0c-34,0 -65,-15 -88,-41 -22,-26 -36,-61 -36,-99zm4 -1397l0 1397c0,37 13,72 35,97 22,24 52,40 85,40l512 0c33,0 63,-16 85,-40 22,-25 36,-60 36,-97l0 -1397c0,-38 -14,-72 -36,-97 -22,-25 -52,-40 -85,-40l-512 0c-33,0 -63,15 -85,40 -22,25 -35,59 -35,97z"/>
   <path class="fil0" d="M380 1452c39,0 70,31 70,70 0,39 -31,70 -70,70 -39,0 -70,-31 -70,-70 0,-39 31,-70 70,-70z"/>
   <path class="fil1" d="M380 1450c20,0 38,8 51,21 13,13 21,31 21,51 0,20 -8,38 -21,51 -13,13 -31,21 -51,21 -20,0 -38,-8 -51,-21 -13,-13 -21,-31 -21,-51 0,-20 8,-38 21,-51 13,-13 31,-21 51,-21zm49 24c-13,-13 -30,-20 -49,-20 -19,0 -36,7 -48,20 -12,12 -20,29 -20,48 0,19 8,36 20,49 12,12 29,20 48,20 19,0 36,-8 49,-20 12,-13 20,-30 20,-49 0,-19 -8,-36 -20,-48z"/>
   <path class="fil0" d="M393 1488c12,0 21,10 21,22l0 25c0,12 -9,21 -21,21l-25 0c-12,0 -22,-9 -22,-21l0 -25c0,-12 10,-22 22,-22l25 0zm0 8l-25 0c-8,0 -14,6 -14,14l0 25c0,7 6,13 14,13l25 0c7,0 13,-6 13,-13l0 -25c0,-8 -6,-14 -13,-14z"/>
   <path class="fil1" d="M393 1487c6,0 12,2 16,6 4,5 7,10 7,17l0 25c0,6 -3,12 -7,16 -4,4 -10,7 -16,7l-25 0c-7,0 -12,-3 -17,-7 -4,-4 -6,-10 -6,-16l0 -25c0,-7 2,-12 6,-17 5,-4 10,-6 17,-6l25 0zm14 9c-4,-4 -9,-6 -14,-6l-25 0c-6,0 -11,2 -14,6 -4,3 -6,8 -6,14l0 25c0,5 2,10 6,14 3,3 8,5 14,5l25 0c5,0 10,-2 14,-5 3,-4 5,-9 5,-14l0 -25c0,-6 -2,-11 -5,-14zm-14 2l-25 0c-4,0 -6,1 -8,4 -3,2 -4,4 -4,8l0 25c0,3 1,6 4,8 2,2 4,3 8,3l25 0c3,0 6,-1 8,-3 2,-2 3,-5 3,-8l0 -25c0,-4 -1,-6 -3,-8 -2,-3 -5,-4 -8,-4zm-25 -3l25 0c4,0 8,1 10,4 3,3 5,6 5,11l0 25c0,4 -2,8 -4,10 -3,3 -7,5 -11,5l-25 0c-5,0 -8,-2 -11,-5 -3,-2 -4,-6 -4,-10l0 -25c0,-5 1,-8 4,-11 3,-3 7,-4 11,-4z"/>
   <path class="fil0 str0" d="M434 117l-107 0c-10,0 -18,8 -18,17l0 0c0,10 8,18 18,18l107 0c10,0 18,-8 18,-18l0 0c0,-9 -8,-17 -18,-17z"/>
   <g>
    <g>
     <path class="fil2" d="M434 123l-107 0c-7,0 -11,5 -11,11l0 0c0,6 4,11 11,11l107 0c6,0 11,-5 11,-11l0 0c0,-6 -5,-11 -11,-11z"/>
     <path id="1" class="fil3" d="M327 125l0 -3 107 0 0 3 -107 0zm-13 9l0 0 0 0 0 -1 0 -1 0 0 0 -1 0 0 1 -1 0 -1 0 0 0 -1 1 0 0 -1 0 0 1 -1 0 0 1 -1 0 0 0 0 1 -1 0 0 1 -1 0 0 1 0 1 0 0 -1 1 0 0 0 1 0 1 0 0 0 1 0 1 0 0 3 -1 0 0 0 -1 0 0 0 -1 1 0 0 -1 0 0 0 0 0 -1 0 0 1 -1 0 0 0 0 0 -1 1 0 0 0 0 -1 1 0 0 0 0 0 1 -1 0 0 0 0 1 0 0 0 1 0 0 0 1 -1 0 0 0 0 1 0 0 0 0 -3 0zm3 0l-3 0 0 0 3 0 0 0zm10 13l0 0 -1 0 -1 0 0 0 -1 0 -1 0 0 0 -1 -1 0 0 -1 0 -1 0 0 -1 -1 0 0 0 -1 -1 0 0 0 -1 -1 0 0 0 -1 -1 0 0 0 -1 -1 -1 0 0 0 -1 0 0 -1 -1 0 0 0 -1 0 -1 0 0 0 -1 0 -1 3 0 0 1 0 0 0 1 1 0 0 1 0 0 0 1 0 0 0 0 0 1 1 0 0 1 0 0 0 0 1 1 0 0 0 0 1 0 0 1 0 0 1 0 0 0 1 1 0 0 0 0 1 0 0 0 1 0 0 0 1 1 0 0 1 0 0 0 0 3zm107 -3l0 3 -107 0 0 -3 107 0zm13 -10l0 0 0 1 0 1 0 0 -1 1 0 1 0 0 0 1 0 0 -1 1 0 0 0 1 0 1 -1 0 0 1 -1 0 0 0 0 1 -1 0 0 1 -1 0 0 0 -1 1 0 0 -1 0 -1 0 0 1 -1 0 0 0 -1 0 -1 0 0 0 -1 0 0 -3 0 0 1 0 0 -1 1 0 0 0 1 0 0 0 1 0 0 0 0 -1 1 0 0 0 0 0 1 -1 0 0 0 0 1 0 0 -1 0 0 1 0 0 -1 0 0 0 -1 0 0 1 0 0 -1 0 0 0 -1 0 0 0 -1 0 0 0 -1 0 0 4 0zm-4 0l4 0 0 0 -4 0 0 0zm-9 -12l0 0 1 0 0 0 1 0 1 0 0 0 1 0 0 0 1 1 1 0 0 0 1 0 0 1 1 0 0 1 1 0 0 0 0 1 1 0 0 1 1 0 0 1 0 0 0 1 1 0 0 1 0 1 0 0 0 1 1 0 0 1 0 1 0 0 -4 0 0 0 0 -1 0 0 0 0 0 -1 0 0 0 -1 -1 0 0 -1 0 0 0 0 0 -1 -1 0 0 0 0 -1 -1 0 0 0 0 -1 -1 0 0 0 0 0 -1 -1 0 0 0 0 -1 0 0 0 -1 0 0 -1 -1 0 0 0 -1 0 0 0 0 0 0 -3z"/>
    </g>
   </g>
   <path class="fil0" d="M252 117c-10,0 -18,8 -18,17 0,10 8,18 18,18 9,0 17,-8 17,-18 0,-9 -8,-17 -17,-17z"/>
   <path class="fil1" d="M252 118c-5,0 -9,2 -12,5 -3,3 -4,7 -4,11 0,5 1,9 4,12 3,3 7,4 12,4 4,0 8,-1 11,-4 3,-3 5,-7 5,-12 0,-4 -2,-8 -5,-11 -3,-3 -7,-5 -11,-5zm-14 3c3,-4 8,-6 14,-6 5,0 10,2 13,6 4,3 6,8 6,13 0,6 -2,11 -6,14 -3,4 -8,6 -13,6 -6,0 -11,-2 -14,-6 -4,-3 -6,-8 -6,-14 0,-5 2,-10 6,-13z"/>
   <path class="fil0" d="M252 125c-5,0 -9,4 -9,9 0,5 4,9 9,9 5,0 9,-4 9,-9 0,-5 -4,-9 -9,-9z"/>
   <path class="fil1" d="M252 127c-2,0 -4,1 -5,2 -2,2 -3,3 -3,5 0,2 1,4 3,5 1,2 3,3 5,3 2,0 3,-1 5,-3 1,-1 2,-3 2,-5 0,-2 -1,-3 -2,-5 -2,-1 -3,-2 -5,-2zm-8 0c2,-2 5,-3 8,-3 3,0 5,1 7,3 2,2 3,4 3,7 0,3 -1,6 -3,8 -2,2 -4,3 -7,3 -3,0 -6,-1 -8,-3 -2,-2 -3,-5 -3,-8 0,-3 1,-5 3,-7z"/>
   <path class="fil0" d="M327 123c-7,0 -11,5 -11,11 0,6 4,11 11,11l107 0c6,0 11,-5 11,-11 0,-6 -5,-11 -11,-11l-107 0z"/>
   <path class="fil1" d="M327 125c-3,0 -5,1 -7,3 -2,2 -3,4 -3,6 0,3 1,5 3,7 2,2 4,3 7,3l107 0c2,0 5,-1 6,-3 2,-2 3,-4 3,-7 0,-2 -1,-4 -3,-6 -1,-2 -4,-3 -6,-3l-107 0zm-9 0c2,-2 5,-3 9,-3l107 0c3,0 7,1 9,3 2,3 4,6 4,9 0,4 -2,7 -4,9 -2,3 -6,4 -9,4l-107 0c-4,0 -7,-1 -9,-4 -3,-2 -4,-5 -4,-9 0,-3 1,-6 4,-9z"/>
   <path class="fil0" d="M309 134c0,10 8,18 18,18l107 0c10,0 18,-8 18,-18 0,-9 -8,-17 -18,-17l-107 0c-10,0 -18,8 -18,17zm125 11l-107 0c-7,0 -11,-5 -11,-11 0,-6 4,-11 11,-11l107 0c6,0 11,5 11,11 0,6 -5,11 -11,11z"/>
   <path class="fil1" d="M311 134c0,5 1,9 4,12 3,3 7,4 12,4l107 0c4,0 8,-1 11,-4 3,-3 5,-7 5,-12 0,-4 -2,-8 -5,-11 -3,-3 -7,-5 -11,-5l-107 0c-5,0 -9,2 -12,5 -3,3 -4,7 -4,11zm2 14c-4,-3 -6,-8 -6,-14 0,-5 2,-10 6,-13 3,-4 8,-6 14,-6l107 0c5,0 10,2 14,6 3,3 6,8 6,13 0,6 -3,11 -6,14 -4,4 -9,6 -14,6l-107 0c-6,0 -11,-2 -14,-6zm121 -1l-107 0c-4,0 -7,-1 -9,-4 -3,-2 -4,-5 -4,-9 0,-3 1,-6 4,-9 2,-2 5,-3 9,-3l107 0c3,0 7,1 9,3 2,3 4,6 4,9 0,4 -2,7 -4,9 -2,3 -6,4 -9,4zm-107 -3l107 0c2,0 5,-1 6,-3 2,-2 3,-4 3,-7 0,-2 -1,-4 -3,-6 -1,-2 -4,-3 -6,-3l-107 0c-3,0 -5,1 -7,3 -2,2 -3,4 -3,6 0,3 1,5 3,7 2,2 4,3 7,3z"/>
  </g>
 </g>
</svg>
